<?xml version="1.0" encoding="UTF-8"?> <svg xmlns="http://www.w3.org/2000/svg" width="600" height="400" viewBox="0 0 600 400" fill="none"> <rect width="600" height="400" rx="20" fill="url(#paint0_linear_136_233)"></rect> <path d="M65.6754 177L70.6694 161.16H74.5524L79.5464 177H76.8184L72.2864 162.788H72.8804L68.4034 177H65.6754ZM68.4584 173.568V171.093H76.7744V173.568H68.4584ZM81.5351 177V161.16H88.0801C88.2341 161.16 88.4321 161.167 88.6741 161.182C88.9161 161.189 89.1398 161.211 89.3451 161.248C90.2618 161.387 91.0171 161.692 91.6111 162.161C92.2125 162.63 92.6561 163.224 92.9421 163.943C93.2355 164.654 93.3821 165.446 93.3821 166.319C93.3821 167.61 93.0558 168.721 92.4031 169.652C91.7505 170.576 90.7495 171.148 89.4001 171.368L88.2671 171.467H84.1861V177H81.5351ZM90.6321 177L87.5081 170.554L90.2031 169.96L93.6351 177H90.6321ZM84.1861 168.992H87.9701C88.1168 168.992 88.2818 168.985 88.4651 168.97C88.6485 168.955 88.8171 168.926 88.9711 168.882C89.4111 168.772 89.7558 168.578 90.0051 168.299C90.2618 168.02 90.4415 167.705 90.5441 167.353C90.6541 167.001 90.7091 166.656 90.7091 166.319C90.7091 165.982 90.6541 165.637 90.5441 165.285C90.4415 164.926 90.2618 164.607 90.0051 164.328C89.7558 164.049 89.4111 163.855 88.9711 163.745C88.8171 163.701 88.6485 163.675 88.4651 163.668C88.2818 163.653 88.1168 163.646 87.9701 163.646H84.1861V168.992ZM96.0586 177V161.16H106.289V163.646H98.7096V167.551H104.969V170.037H98.7096V174.514H106.289V177H96.0586ZM117.138 177V163.646H112.012V161.16H124.915V163.646H119.789V177H117.138ZM126.674 177V161.16H129.325V167.826H136.827V161.16H139.467V177H136.827V170.312H129.325V177H126.674ZM142.551 177V161.16H152.781V163.646H145.202V167.551H151.461V170.037H145.202V174.514H152.781V177H142.551ZM155.42 177V161.16H161.965C162.119 161.16 162.317 161.167 162.559 161.182C162.801 161.189 163.025 161.211 163.23 161.248C164.147 161.387 164.902 161.692 165.496 162.161C166.097 162.63 166.541 163.224 166.827 163.943C167.12 164.654 167.267 165.446 167.267 166.319C167.267 167.61 166.941 168.721 166.288 169.652C165.635 170.576 164.634 171.148 163.285 171.368L162.152 171.467H158.071V177H155.42ZM164.517 177L161.393 170.554L164.088 169.96L167.52 177H164.517ZM158.071 168.992H161.855C162.002 168.992 162.167 168.985 162.35 168.97C162.533 168.955 162.702 168.926 162.856 168.882C163.296 168.772 163.641 168.578 163.89 168.299C164.147 168.02 164.326 167.705 164.429 167.353C164.539 167.001 164.594 166.656 164.594 166.319C164.594 165.982 164.539 165.637 164.429 165.285C164.326 164.926 164.147 164.607 163.89 164.328C163.641 164.049 163.296 163.855 162.856 163.745C162.702 163.701 162.533 163.675 162.35 163.668C162.167 163.653 162.002 163.646 161.855 163.646H158.071V168.992ZM169.943 177V161.16H180.173V163.646H172.594V167.551H178.853V170.037H172.594V174.514H180.173V177H169.943ZM186.117 177L191.111 161.16H194.994L199.988 177H197.26L192.728 162.788H193.322L188.845 177H186.117ZM188.9 173.568V171.093H197.216V173.568H188.9ZM201.977 177V161.16H204.661L212.009 172.325V161.16H214.693V177H212.009L204.661 165.835V177H201.977ZM221.618 177V170.51L216.228 161.16H219.319L222.96 167.474L226.59 161.16H229.681L224.302 170.51V177H221.618ZM234.74 177V161.16H237.424L244.772 172.325V161.16H247.456V177H244.772L237.424 165.835V177H234.74ZM250.531 177V161.16H260.761V163.646H253.182V167.551H259.441V170.037H253.182V174.514H260.761V177H250.531ZM269.268 177.33C268.242 177.33 267.277 177.15 266.375 176.791C265.481 176.424 264.692 175.889 264.01 175.185C263.336 174.481 262.808 173.619 262.426 172.6C262.045 171.573 261.854 170.4 261.854 169.08C261.854 167.349 262.177 165.872 262.822 164.647C263.468 163.415 264.351 162.473 265.473 161.82C266.595 161.16 267.86 160.83 269.268 160.83C271.219 160.83 272.763 161.285 273.899 162.194C275.043 163.096 275.817 164.365 276.22 166L273.514 166.429C273.214 165.49 272.722 164.742 272.04 164.185C271.358 163.62 270.489 163.338 269.433 163.338C268.37 163.323 267.486 163.554 266.782 164.031C266.078 164.508 265.547 165.179 265.187 166.044C264.835 166.909 264.659 167.921 264.659 169.08C264.659 170.239 264.835 171.247 265.187 172.105C265.539 172.956 266.067 173.619 266.771 174.096C267.483 174.573 268.37 174.818 269.433 174.833C270.233 174.84 270.933 174.697 271.534 174.404C272.136 174.103 272.627 173.652 273.008 173.051C273.39 172.442 273.646 171.683 273.778 170.774H270.984V168.695H276.594C276.609 168.812 276.62 168.985 276.627 169.212C276.635 169.439 276.638 169.575 276.638 169.619C276.638 171.115 276.341 172.446 275.747 173.612C275.161 174.771 274.317 175.68 273.217 176.34C272.117 177 270.801 177.33 269.268 177.33ZM277.318 177L282.312 161.16H286.195L291.189 177H288.461L283.929 162.788H284.523L280.046 177H277.318ZM280.101 173.568V171.093H288.417V173.568H280.101ZM295.673 177V163.646H290.547V161.16H303.45V163.646H298.324V177H295.673ZM305.429 177V161.16H308.08V177H305.429ZM314.939 177L309.945 161.16H312.673L316.853 174.426L321.088 161.16H323.816L318.822 177H314.939ZM325.469 177V161.16H335.699V163.646H328.12V167.551H334.379V170.037H328.12V174.514H335.699V177H325.469ZM342.742 177V161.16H349.287C349.441 161.16 349.639 161.167 349.881 161.182C350.123 161.189 350.347 161.211 350.552 161.248C351.469 161.387 352.224 161.692 352.818 162.161C353.419 162.63 353.863 163.224 354.149 163.943C354.442 164.654 354.589 165.446 354.589 166.319C354.589 167.184 354.442 167.976 354.149 168.695C353.856 169.406 353.408 169.997 352.807 170.466C352.213 170.935 351.461 171.24 350.552 171.379C350.347 171.408 350.119 171.43 349.87 171.445C349.628 171.46 349.434 171.467 349.287 171.467H345.393V177H342.742ZM345.393 168.992H349.177C349.324 168.992 349.489 168.985 349.672 168.97C349.855 168.955 350.024 168.926 350.178 168.882C350.618 168.772 350.963 168.578 351.212 168.299C351.469 168.02 351.648 167.705 351.751 167.353C351.861 167.001 351.916 166.656 351.916 166.319C351.916 165.982 351.861 165.637 351.751 165.285C351.648 164.926 351.469 164.607 351.212 164.328C350.963 164.049 350.618 163.855 350.178 163.745C350.024 163.701 349.855 163.675 349.672 163.668C349.489 163.653 349.324 163.646 349.177 163.646H345.393V168.992ZM356.793 177V161.16H367.023V163.646H359.444V167.551H365.703V170.037H359.444V174.514H367.023V177H356.793ZM369.662 177V161.16H376.207C376.361 161.16 376.559 161.167 376.801 161.182C377.043 161.189 377.267 161.211 377.472 161.248C378.389 161.387 379.144 161.692 379.738 162.161C380.339 162.63 380.783 163.224 381.069 163.943C381.362 164.654 381.509 165.446 381.509 166.319C381.509 167.61 381.183 168.721 380.53 169.652C379.877 170.576 378.876 171.148 377.527 171.368L376.394 171.467H372.313V177H369.662ZM378.759 177L375.635 170.554L378.33 169.96L381.762 177H378.759ZM372.313 168.992H376.097C376.244 168.992 376.409 168.985 376.592 168.97C376.775 168.955 376.944 168.926 377.098 168.882C377.538 168.772 377.883 168.578 378.132 168.299C378.389 168.02 378.568 167.705 378.671 167.353C378.781 167.001 378.836 166.656 378.836 166.319C378.836 165.982 378.781 165.637 378.671 165.285C378.568 164.926 378.389 164.607 378.132 164.328C377.883 164.049 377.538 163.855 377.098 163.745C376.944 163.701 376.775 163.675 376.592 163.668C376.409 163.653 376.244 163.646 376.097 163.646H372.313V168.992ZM390.049 177.33C388.89 177.33 387.845 177.128 386.914 176.725C385.99 176.322 385.227 175.746 384.626 174.998C384.032 174.243 383.654 173.348 383.493 172.314L386.243 171.896C386.477 172.835 386.958 173.561 387.684 174.074C388.417 174.587 389.26 174.844 390.214 174.844C390.778 174.844 391.31 174.756 391.809 174.58C392.307 174.404 392.711 174.147 393.019 173.81C393.334 173.473 393.492 173.058 393.492 172.567C393.492 172.347 393.455 172.145 393.382 171.962C393.308 171.771 393.198 171.603 393.052 171.456C392.912 171.309 392.729 171.177 392.502 171.06C392.282 170.935 392.025 170.829 391.732 170.741L387.64 169.531C387.288 169.428 386.906 169.293 386.496 169.124C386.092 168.948 385.707 168.71 385.341 168.409C384.981 168.101 384.684 167.712 384.45 167.243C384.222 166.766 384.109 166.18 384.109 165.483C384.109 164.464 384.365 163.609 384.879 162.92C385.399 162.223 386.096 161.703 386.969 161.358C387.849 161.013 388.824 160.845 389.895 160.852C390.98 160.859 391.948 161.046 392.799 161.413C393.649 161.772 394.361 162.297 394.933 162.986C395.505 163.675 395.908 164.508 396.143 165.483L393.294 165.978C393.176 165.421 392.949 164.948 392.612 164.559C392.282 164.163 391.875 163.862 391.391 163.657C390.914 163.452 390.404 163.342 389.862 163.327C389.334 163.32 388.842 163.4 388.388 163.569C387.94 163.73 387.577 163.965 387.299 164.273C387.027 164.581 386.892 164.94 386.892 165.351C386.892 165.74 387.009 166.059 387.244 166.308C387.478 166.55 387.768 166.744 388.113 166.891C388.465 167.03 388.82 167.148 389.18 167.243L392.018 168.035C392.406 168.138 392.843 168.277 393.327 168.453C393.811 168.629 394.276 168.875 394.724 169.19C395.171 169.505 395.538 169.92 395.824 170.433C396.117 170.946 396.264 171.599 396.264 172.391C396.264 173.212 396.091 173.935 395.747 174.558C395.409 175.174 394.951 175.687 394.372 176.098C393.792 176.509 393.129 176.817 392.381 177.022C391.64 177.227 390.863 177.33 390.049 177.33ZM405.343 177.33C403.759 177.33 402.403 176.985 401.273 176.296C400.144 175.599 399.275 174.631 398.666 173.392C398.065 172.153 397.764 170.715 397.764 169.08C397.764 167.445 398.065 166.007 398.666 164.768C399.275 163.529 400.144 162.564 401.273 161.875C402.403 161.178 403.759 160.83 405.343 160.83C406.927 160.83 408.284 161.178 409.413 161.875C410.55 162.564 411.419 163.529 412.02 164.768C412.629 166.007 412.933 167.445 412.933 169.08C412.933 170.715 412.629 172.153 412.02 173.392C411.419 174.631 410.55 175.599 409.413 176.296C408.284 176.985 406.927 177.33 405.343 177.33ZM405.343 174.833C406.407 174.84 407.29 174.606 407.994 174.129C408.706 173.652 409.237 172.981 409.589 172.116C409.949 171.251 410.128 170.239 410.128 169.08C410.128 167.921 409.949 166.917 409.589 166.066C409.237 165.208 408.706 164.541 407.994 164.064C407.29 163.587 406.407 163.342 405.343 163.327C404.28 163.32 403.396 163.554 402.692 164.031C401.988 164.508 401.457 165.179 401.097 166.044C400.745 166.909 400.569 167.921 400.569 169.08C400.569 170.239 400.745 171.247 401.097 172.105C401.449 172.956 401.977 173.619 402.681 174.096C403.393 174.573 404.28 174.818 405.343 174.833ZM415.123 177V161.16H417.807L425.155 172.325V161.16H427.839V177H425.155L417.807 165.835V177H415.123ZM429.814 177L434.808 161.16H438.691L443.685 177H440.957L436.425 162.788H437.019L432.542 177H429.814ZM432.597 173.568V171.093H440.913V173.568H432.597ZM445.894 177V161.16H448.545V174.514H455.541V177H445.894ZM464.519 177V163.646H459.393V161.16H472.296V163.646H467.17V177H464.519ZM474.055 177V161.16H480.6C480.754 161.16 480.952 161.167 481.194 161.182C481.436 161.189 481.659 161.211 481.865 161.248C482.781 161.387 483.537 161.692 484.131 162.161C484.732 162.63 485.176 163.224 485.462 163.943C485.755 164.654 485.902 165.446 485.902 166.319C485.902 167.61 485.575 168.721 484.923 169.652C484.27 170.576 483.269 171.148 481.92 171.368L480.787 171.467H476.706V177H474.055ZM483.152 177L480.028 170.554L482.723 169.96L486.155 177H483.152ZM476.706 168.992H480.49C480.636 168.992 480.801 168.985 480.985 168.97C481.168 168.955 481.337 168.926 481.491 168.882C481.931 168.772 482.275 168.578 482.525 168.299C482.781 168.02 482.961 167.705 483.064 167.353C483.174 167.001 483.229 166.656 483.229 166.319C483.229 165.982 483.174 165.637 483.064 165.285C482.961 164.926 482.781 164.607 482.525 164.328C482.275 164.049 481.931 163.855 481.491 163.745C481.337 163.701 481.168 163.675 480.985 163.668C480.801 163.653 480.636 163.646 480.49 163.646H476.706V168.992ZM487.478 177L492.472 161.16H496.355L501.349 177H498.621L494.089 162.788H494.683L490.206 177H487.478ZM490.261 173.568V171.093H498.577V173.568H490.261ZM503.558 177V161.16H506.209V177H503.558ZM513.31 177V163.646H508.184V161.16H521.087V163.646H515.961V177H513.31ZM528.709 177.33C527.55 177.33 526.505 177.128 525.574 176.725C524.65 176.322 523.887 175.746 523.286 174.998C522.692 174.243 522.314 173.348 522.153 172.314L524.903 171.896C525.137 172.835 525.618 173.561 526.344 174.074C527.077 174.587 527.92 174.844 528.874 174.844C529.438 174.844 529.97 174.756 530.469 174.58C530.967 174.404 531.371 174.147 531.679 173.81C531.994 173.473 532.152 173.058 532.152 172.567C532.152 172.347 532.115 172.145 532.042 171.962C531.968 171.771 531.858 171.603 531.712 171.456C531.572 171.309 531.389 171.177 531.162 171.06C530.942 170.935 530.685 170.829 530.392 170.741L526.3 169.531C525.948 169.428 525.566 169.293 525.156 169.124C524.752 168.948 524.367 168.71 524.001 168.409C523.641 168.101 523.344 167.712 523.11 167.243C522.882 166.766 522.769 166.18 522.769 165.483C522.769 164.464 523.025 163.609 523.539 162.92C524.059 162.223 524.756 161.703 525.629 161.358C526.509 161.013 527.484 160.845 528.555 160.852C529.64 160.859 530.608 161.046 531.459 161.413C532.309 161.772 533.021 162.297 533.593 162.986C534.165 163.675 534.568 164.508 534.803 165.483L531.954 165.978C531.836 165.421 531.609 164.948 531.272 164.559C530.942 164.163 530.535 163.862 530.051 163.657C529.574 163.452 529.064 163.342 528.522 163.327C527.994 163.32 527.502 163.4 527.048 163.569C526.6 163.73 526.237 163.965 525.959 164.273C525.687 164.581 525.552 164.94 525.552 165.351C525.552 165.74 525.669 166.059 525.904 166.308C526.138 166.55 526.428 166.744 526.773 166.891C527.125 167.03 527.48 167.148 527.84 167.243L530.678 168.035C531.066 168.138 531.503 168.277 531.987 168.453C532.471 168.629 532.936 168.875 533.384 169.19C533.831 169.505 534.198 169.92 534.484 170.433C534.777 170.946 534.924 171.599 534.924 172.391C534.924 173.212 534.751 173.935 534.407 174.558C534.069 175.174 533.611 175.687 533.032 176.098C532.452 176.509 531.789 176.817 531.041 177.022C530.3 177.227 529.523 177.33 528.709 177.33ZM124.776 208V194.646H119.65V192.16H132.553V194.646H127.427V208H124.776ZM134.311 208V192.16H136.962V198.826H144.464V192.16H147.104V208H144.464V201.312H136.962V208H134.311ZM149.088 208L154.082 192.16H157.965L162.959 208H160.231L155.699 193.788H156.293L151.816 208H149.088ZM151.871 204.568V202.093H160.187V204.568H151.871ZM167.444 208V194.646H162.318V192.16H175.221V194.646H170.095V208H167.444ZM184.568 208V201.51L179.178 192.16H182.269L185.91 198.474L189.54 192.16H192.631L187.252 201.51V208H184.568ZM199.985 208.33C198.401 208.33 197.044 207.985 195.915 207.296C194.786 206.599 193.917 205.631 193.308 204.392C192.707 203.153 192.406 201.715 192.406 200.08C192.406 198.445 192.707 197.007 193.308 195.768C193.917 194.529 194.786 193.564 195.915 192.875C197.044 192.178 198.401 191.83 199.985 191.83C201.569 191.83 202.926 192.178 204.055 192.875C205.192 193.564 206.061 194.529 206.662 195.768C207.271 197.007 207.575 198.445 207.575 200.08C207.575 201.715 207.271 203.153 206.662 204.392C206.061 205.631 205.192 206.599 204.055 207.296C202.926 207.985 201.569 208.33 199.985 208.33ZM199.985 205.833C201.048 205.84 201.932 205.606 202.636 205.129C203.347 204.652 203.879 203.981 204.231 203.116C204.59 202.251 204.77 201.239 204.77 200.08C204.77 198.921 204.59 197.917 204.231 197.066C203.879 196.208 203.347 195.541 202.636 195.064C201.932 194.587 201.048 194.342 199.985 194.327C198.922 194.32 198.038 194.554 197.334 195.031C196.63 195.508 196.098 196.179 195.739 197.044C195.387 197.909 195.211 198.921 195.211 200.08C195.211 201.239 195.387 202.247 195.739 203.105C196.091 203.956 196.619 204.619 197.323 205.096C198.034 205.573 198.922 205.818 199.985 205.833ZM216.145 208.33C214.883 208.33 213.772 208.073 212.812 207.56C211.858 207.047 211.11 206.324 210.568 205.393C210.032 204.462 209.765 203.369 209.765 202.115V192.182L212.449 192.16V202.049C212.449 202.643 212.548 203.175 212.746 203.644C212.951 204.113 213.226 204.513 213.571 204.843C213.915 205.166 214.311 205.411 214.759 205.58C215.206 205.749 215.668 205.833 216.145 205.833C216.636 205.833 217.102 205.749 217.542 205.58C217.989 205.404 218.385 205.155 218.73 204.832C219.074 204.502 219.346 204.102 219.544 203.633C219.742 203.164 219.841 202.636 219.841 202.049V192.16H222.525V202.115C222.525 203.369 222.253 204.462 221.711 205.393C221.175 206.324 220.427 207.047 219.467 207.56C218.513 208.073 217.406 208.33 216.145 208.33ZM230.003 208V192.16H236.548C236.702 192.16 236.9 192.167 237.142 192.182C237.384 192.189 237.608 192.211 237.813 192.248C238.73 192.387 239.485 192.692 240.079 193.161C240.68 193.63 241.124 194.224 241.41 194.943C241.703 195.654 241.85 196.446 241.85 197.319C241.85 198.184 241.703 198.976 241.41 199.695C241.117 200.406 240.669 200.997 240.068 201.466C239.474 201.935 238.722 202.24 237.813 202.379C237.608 202.408 237.38 202.43 237.131 202.445C236.889 202.46 236.695 202.467 236.548 202.467H232.654V208H230.003ZM232.654 199.992H236.438C236.585 199.992 236.75 199.985 236.933 199.97C237.116 199.955 237.285 199.926 237.439 199.882C237.879 199.772 238.224 199.578 238.473 199.299C238.73 199.02 238.909 198.705 239.012 198.353C239.122 198.001 239.177 197.656 239.177 197.319C239.177 196.982 239.122 196.637 239.012 196.285C238.909 195.926 238.73 195.607 238.473 195.328C238.224 195.049 237.879 194.855 237.439 194.745C237.285 194.701 237.116 194.675 236.933 194.668C236.75 194.653 236.585 194.646 236.438 194.646H232.654V199.992ZM244.054 208V192.16H254.284V194.646H246.705V198.551H252.964V201.037H246.705V205.514H254.284V208H244.054ZM256.923 208V192.16H263.468C263.622 192.16 263.82 192.167 264.062 192.182C264.304 192.189 264.527 192.211 264.733 192.248C265.649 192.387 266.405 192.692 266.999 193.161C267.6 193.63 268.044 194.224 268.33 194.943C268.623 195.654 268.77 196.446 268.77 197.319C268.77 198.61 268.443 199.721 267.791 200.652C267.138 201.576 266.137 202.148 264.788 202.368L263.655 202.467H259.574V208H256.923ZM266.02 208L262.896 201.554L265.591 200.96L269.023 208H266.02ZM259.574 199.992H263.358C263.504 199.992 263.669 199.985 263.853 199.97C264.036 199.955 264.205 199.926 264.359 199.882C264.799 199.772 265.143 199.578 265.393 199.299C265.649 199.02 265.829 198.705 265.932 198.353C266.042 198.001 266.097 197.656 266.097 197.319C266.097 196.982 266.042 196.637 265.932 196.285C265.829 195.926 265.649 195.607 265.393 195.328C265.143 195.049 264.799 194.855 264.359 194.745C264.205 194.701 264.036 194.675 263.853 194.668C263.669 194.653 263.504 194.646 263.358 194.646H259.574V199.992ZM277.309 208.33C276.151 208.33 275.106 208.128 274.174 207.725C273.25 207.322 272.488 206.746 271.886 205.998C271.292 205.243 270.915 204.348 270.753 203.314L273.503 202.896C273.738 203.835 274.218 204.561 274.944 205.074C275.678 205.587 276.521 205.844 277.474 205.844C278.039 205.844 278.571 205.756 279.069 205.58C279.568 205.404 279.971 205.147 280.279 204.81C280.595 204.473 280.752 204.058 280.752 203.567C280.752 203.347 280.716 203.145 280.642 202.962C280.569 202.771 280.459 202.603 280.312 202.456C280.173 202.309 279.99 202.177 279.762 202.06C279.542 201.935 279.286 201.829 278.992 201.741L274.9 200.531C274.548 200.428 274.167 200.293 273.756 200.124C273.353 199.948 272.968 199.71 272.601 199.409C272.242 199.101 271.945 198.712 271.71 198.243C271.483 197.766 271.369 197.18 271.369 196.483C271.369 195.464 271.626 194.609 272.139 193.92C272.66 193.223 273.357 192.703 274.229 192.358C275.109 192.013 276.085 191.845 277.155 191.852C278.241 191.859 279.209 192.046 280.059 192.413C280.91 192.772 281.621 193.297 282.193 193.986C282.765 194.675 283.169 195.508 283.403 196.483L280.554 196.978C280.437 196.421 280.21 195.948 279.872 195.559C279.542 195.163 279.135 194.862 278.651 194.657C278.175 194.452 277.665 194.342 277.122 194.327C276.594 194.32 276.103 194.4 275.648 194.569C275.201 194.73 274.838 194.965 274.559 195.273C274.288 195.581 274.152 195.94 274.152 196.351C274.152 196.74 274.27 197.059 274.504 197.308C274.739 197.55 275.029 197.744 275.373 197.891C275.725 198.03 276.081 198.148 276.44 198.243L279.278 199.035C279.667 199.138 280.103 199.277 280.587 199.453C281.071 199.629 281.537 199.875 281.984 200.19C282.432 200.505 282.798 200.92 283.084 201.433C283.378 201.946 283.524 202.599 283.524 203.391C283.524 204.212 283.352 204.935 283.007 205.558C282.67 206.174 282.212 206.687 281.632 207.098C281.053 207.509 280.389 207.817 279.641 208.022C278.901 208.227 278.123 208.33 277.309 208.33ZM292.604 208.33C291.02 208.33 289.664 207.985 288.534 207.296C287.405 206.599 286.536 205.631 285.927 204.392C285.326 203.153 285.025 201.715 285.025 200.08C285.025 198.445 285.326 197.007 285.927 195.768C286.536 194.529 287.405 193.564 288.534 192.875C289.664 192.178 291.02 191.83 292.604 191.83C294.188 191.83 295.545 192.178 296.674 192.875C297.811 193.564 298.68 194.529 299.281 195.768C299.89 197.007 300.194 198.445 300.194 200.08C300.194 201.715 299.89 203.153 299.281 204.392C298.68 205.631 297.811 206.599 296.674 207.296C295.545 207.985 294.188 208.33 292.604 208.33ZM292.604 205.833C293.668 205.84 294.551 205.606 295.255 205.129C295.967 204.652 296.498 203.981 296.85 203.116C297.21 202.251 297.389 201.239 297.389 200.08C297.389 198.921 297.21 197.917 296.85 197.066C296.498 196.208 295.967 195.541 295.255 195.064C294.551 194.587 293.668 194.342 292.604 194.327C291.541 194.32 290.657 194.554 289.953 195.031C289.249 195.508 288.718 196.179 288.358 197.044C288.006 197.909 287.83 198.921 287.83 200.08C287.83 201.239 288.006 202.247 288.358 203.105C288.71 203.956 289.238 204.619 289.942 205.096C290.654 205.573 291.541 205.818 292.604 205.833ZM302.384 208V192.16H305.068L312.416 203.325V192.16H315.1V208H312.416L305.068 196.835V208H302.384ZM317.075 208L322.069 192.16H325.952L330.946 208H328.218L323.686 193.788H324.28L319.803 208H317.075ZM319.858 204.568V202.093H328.174V204.568H319.858ZM333.155 208V192.16H335.806V205.514H342.802V208H333.155ZM344.885 208V192.16H347.536V205.514H354.532V208H344.885ZM358.054 208V201.51L352.664 192.16H355.755L359.396 198.474L363.026 192.16H366.117L360.738 201.51V208H358.054ZM377.876 208.33C376.292 208.33 374.935 207.985 373.806 207.296C372.676 206.599 371.807 205.631 371.199 204.392C370.597 203.153 370.297 201.715 370.297 200.08C370.297 198.445 370.597 197.007 371.199 195.768C371.807 194.529 372.676 193.564 373.806 192.875C374.935 192.178 376.292 191.83 377.876 191.83C379.702 191.83 381.223 192.288 382.441 193.205C383.658 194.114 384.512 195.343 385.004 196.89L382.331 197.627C382.023 196.593 381.498 195.786 380.758 195.207C380.017 194.62 379.056 194.327 377.876 194.327C376.812 194.327 375.925 194.565 375.214 195.042C374.51 195.519 373.978 196.19 373.619 197.055C373.267 197.913 373.087 198.921 373.08 200.08C373.08 201.239 373.256 202.251 373.608 203.116C373.967 203.974 374.502 204.641 375.214 205.118C375.925 205.595 376.812 205.833 377.876 205.833C379.056 205.833 380.017 205.54 380.758 204.953C381.498 204.366 382.023 203.56 382.331 202.533L385.004 203.27C384.512 204.817 383.658 206.049 382.441 206.966C381.223 207.875 379.702 208.33 377.876 208.33ZM394.118 208.33C392.534 208.33 391.177 207.985 390.048 207.296C388.919 206.599 388.05 205.631 387.441 204.392C386.84 203.153 386.539 201.715 386.539 200.08C386.539 198.445 386.84 197.007 387.441 195.768C388.05 194.529 388.919 193.564 390.048 192.875C391.177 192.178 392.534 191.83 394.118 191.83C395.702 191.83 397.059 192.178 398.188 192.875C399.325 193.564 400.194 194.529 400.795 195.768C401.404 197.007 401.708 198.445 401.708 200.08C401.708 201.715 401.404 203.153 400.795 204.392C400.194 205.631 399.325 206.599 398.188 207.296C397.059 207.985 395.702 208.33 394.118 208.33ZM394.118 205.833C395.181 205.84 396.065 205.606 396.769 205.129C397.48 204.652 398.012 203.981 398.364 203.116C398.723 202.251 398.903 201.239 398.903 200.08C398.903 198.921 398.723 197.917 398.364 197.066C398.012 196.208 397.48 195.541 396.769 195.064C396.065 194.587 395.181 194.342 394.118 194.327C393.055 194.32 392.171 194.554 391.467 195.031C390.763 195.508 390.231 196.179 389.872 197.044C389.52 197.909 389.344 198.921 389.344 200.08C389.344 201.239 389.52 202.247 389.872 203.105C390.224 203.956 390.752 204.619 391.456 205.096C392.167 205.573 393.055 205.818 394.118 205.833ZM403.897 208V192.16H406.581L413.929 203.325V192.16H416.613V208H413.929L406.581 196.835V208H403.897ZM425.551 208.33C424.393 208.33 423.348 208.128 422.416 207.725C421.492 207.322 420.73 206.746 420.128 205.998C419.534 205.243 419.157 204.348 418.995 203.314L421.745 202.896C421.98 203.835 422.46 204.561 423.186 205.074C423.92 205.587 424.763 205.844 425.716 205.844C426.281 205.844 426.813 205.756 427.311 205.58C427.81 205.404 428.213 205.147 428.521 204.81C428.837 204.473 428.994 204.058 428.994 203.567C428.994 203.347 428.958 203.145 428.884 202.962C428.811 202.771 428.701 202.603 428.554 202.456C428.415 202.309 428.232 202.177 428.004 202.06C427.784 201.935 427.528 201.829 427.234 201.741L423.142 200.531C422.79 200.428 422.409 200.293 421.998 200.124C421.595 199.948 421.21 199.71 420.843 199.409C420.484 199.101 420.187 198.712 419.952 198.243C419.725 197.766 419.611 197.18 419.611 196.483C419.611 195.464 419.868 194.609 420.381 193.92C420.902 193.223 421.599 192.703 422.471 192.358C423.351 192.013 424.327 191.845 425.397 191.852C426.483 191.859 427.451 192.046 428.301 192.413C429.152 192.772 429.863 193.297 430.435 193.986C431.007 194.675 431.411 195.508 431.645 196.483L428.796 196.978C428.679 196.421 428.452 195.948 428.114 195.559C427.784 195.163 427.377 194.862 426.893 194.657C426.417 194.452 425.907 194.342 425.364 194.327C424.836 194.32 424.345 194.4 423.89 194.569C423.443 194.73 423.08 194.965 422.801 195.273C422.53 195.581 422.394 195.94 422.394 196.351C422.394 196.74 422.512 197.059 422.746 197.308C422.981 197.55 423.271 197.744 423.615 197.891C423.967 198.03 424.323 198.148 424.682 198.243L427.52 199.035C427.909 199.138 428.345 199.277 428.829 199.453C429.313 199.629 429.779 199.875 430.226 200.19C430.674 200.505 431.04 200.92 431.326 201.433C431.62 201.946 431.766 202.599 431.766 203.391C431.766 204.212 431.594 204.935 431.249 205.558C430.912 206.174 430.454 206.687 429.874 207.098C429.295 207.509 428.631 207.817 427.883 208.022C427.143 208.227 426.365 208.33 425.551 208.33ZM434.367 208V192.16H437.018V208H434.367ZM440.313 208V192.16H445.362C445.494 192.16 445.755 192.164 446.143 192.171C446.539 192.178 446.921 192.204 447.287 192.248C448.541 192.409 449.601 192.857 450.466 193.59C451.339 194.316 451.999 195.244 452.446 196.373C452.894 197.502 453.117 198.738 453.117 200.08C453.117 201.422 452.894 202.658 452.446 203.787C451.999 204.916 451.339 205.848 450.466 206.581C449.601 207.307 448.541 207.751 447.287 207.912C446.928 207.956 446.55 207.982 446.154 207.989C445.758 207.996 445.494 208 445.362 208H440.313ZM443.008 205.503H445.362C445.582 205.503 445.861 205.496 446.198 205.481C446.543 205.466 446.847 205.433 447.111 205.382C447.859 205.243 448.468 204.909 448.937 204.381C449.407 203.853 449.751 203.211 449.971 202.456C450.199 201.701 450.312 200.909 450.312 200.08C450.312 199.222 450.199 198.415 449.971 197.66C449.744 196.905 449.392 196.27 448.915 195.757C448.446 195.244 447.845 194.917 447.111 194.778C446.847 194.719 446.543 194.686 446.198 194.679C445.861 194.664 445.582 194.657 445.362 194.657H443.008V205.503ZM455.718 208V192.16H465.948V194.646H458.369V198.551H464.628V201.037H458.369V205.514H465.948V208H455.718ZM468.587 208V192.16H475.132C475.286 192.16 475.484 192.167 475.726 192.182C475.968 192.189 476.192 192.211 476.397 192.248C477.314 192.387 478.069 192.692 478.663 193.161C479.264 193.63 479.708 194.224 479.994 194.943C480.287 195.654 480.434 196.446 480.434 197.319C480.434 198.61 480.108 199.721 479.455 200.652C478.802 201.576 477.801 202.148 476.452 202.368L475.319 202.467H471.238V208H468.587ZM477.684 208L474.56 201.554L477.255 200.96L480.687 208H477.684ZM471.238 199.992H475.022C475.169 199.992 475.334 199.985 475.517 199.97C475.7 199.955 475.869 199.926 476.023 199.882C476.463 199.772 476.808 199.578 477.057 199.299C477.314 199.02 477.493 198.705 477.596 198.353C477.706 198.001 477.761 197.656 477.761 197.319C477.761 196.982 477.706 196.637 477.596 196.285C477.493 195.926 477.314 195.607 477.057 195.328C476.808 195.049 476.463 194.855 476.023 194.745C475.869 194.701 475.7 194.675 475.517 194.668C475.334 194.653 475.169 194.646 475.022 194.646H471.238V199.992ZM206.699 239L211.693 223.16H215.576L220.57 239H217.842L213.31 224.788H213.904L209.427 239H206.699ZM209.482 235.568V233.093H217.798V235.568H209.482ZM227.992 239.33C226.833 239.33 225.788 239.128 224.857 238.725C223.933 238.322 223.17 237.746 222.569 236.998C221.975 236.243 221.597 235.348 221.436 234.314L224.186 233.896C224.421 234.835 224.901 235.561 225.627 236.074C226.36 236.587 227.204 236.844 228.157 236.844C228.722 236.844 229.253 236.756 229.752 236.58C230.251 236.404 230.654 236.147 230.962 235.81C231.277 235.473 231.435 235.058 231.435 234.567C231.435 234.347 231.398 234.145 231.325 233.962C231.252 233.771 231.142 233.603 230.995 233.456C230.856 233.309 230.672 233.177 230.445 233.06C230.225 232.935 229.968 232.829 229.675 232.741L225.583 231.531C225.231 231.428 224.85 231.293 224.439 231.124C224.036 230.948 223.651 230.71 223.284 230.409C222.925 230.101 222.628 229.712 222.393 229.243C222.166 228.766 222.052 228.18 222.052 227.483C222.052 226.464 222.309 225.609 222.822 224.92C223.343 224.223 224.039 223.703 224.912 223.358C225.792 223.013 226.767 222.845 227.838 222.852C228.923 222.859 229.891 223.046 230.742 223.413C231.593 223.772 232.304 224.297 232.876 224.986C233.448 225.675 233.851 226.508 234.086 227.483L231.237 227.978C231.12 227.421 230.892 226.948 230.555 226.559C230.225 226.163 229.818 225.862 229.334 225.657C228.857 225.452 228.348 225.342 227.805 225.327C227.277 225.32 226.786 225.4 226.331 225.569C225.884 225.73 225.521 225.965 225.242 226.273C224.971 226.581 224.835 226.94 224.835 227.351C224.835 227.74 224.952 228.059 225.187 228.308C225.422 228.55 225.711 228.744 226.056 228.891C226.408 229.03 226.764 229.148 227.123 229.243L229.961 230.035C230.35 230.138 230.786 230.277 231.27 230.453C231.754 230.629 232.22 230.875 232.667 231.19C233.114 231.505 233.481 231.92 233.767 232.433C234.06 232.946 234.207 233.599 234.207 234.391C234.207 235.212 234.035 235.935 233.69 236.558C233.353 237.174 232.894 237.687 232.315 238.098C231.736 238.509 231.072 238.817 230.324 239.022C229.583 239.227 228.806 239.33 227.992 239.33ZM239.892 239L244.886 223.16H248.769L253.763 239H251.035L246.503 224.788H247.097L242.62 239H239.892ZM242.675 235.568V233.093H250.991V235.568H242.675ZM255.752 239V223.16H260.801C260.933 223.16 261.193 223.164 261.582 223.171C261.978 223.178 262.359 223.204 262.726 223.248C263.98 223.409 265.04 223.857 265.905 224.59C266.778 225.316 267.438 226.244 267.885 227.373C268.332 228.502 268.556 229.738 268.556 231.08C268.556 232.422 268.332 233.658 267.885 234.787C267.438 235.916 266.778 236.848 265.905 237.581C265.04 238.307 263.98 238.751 262.726 238.912C262.367 238.956 261.989 238.982 261.593 238.989C261.197 238.996 260.933 239 260.801 239H255.752ZM258.447 236.503H260.801C261.021 236.503 261.3 236.496 261.637 236.481C261.982 236.466 262.286 236.433 262.55 236.382C263.298 236.243 263.907 235.909 264.376 235.381C264.845 234.853 265.19 234.211 265.41 233.456C265.637 232.701 265.751 231.909 265.751 231.08C265.751 230.222 265.637 229.415 265.41 228.66C265.183 227.905 264.831 227.27 264.354 226.757C263.885 226.244 263.283 225.917 262.55 225.778C262.286 225.719 261.982 225.686 261.637 225.679C261.3 225.664 261.021 225.657 260.801 225.657H258.447V236.503ZM274.054 239L269.06 223.16H271.788L275.968 236.426L280.203 223.16H282.931L277.937 239H274.054ZM281.937 239L286.931 223.16H290.814L295.808 239H293.08L288.548 224.788H289.142L284.665 239H281.937ZM284.72 235.568V233.093H293.036V235.568H284.72ZM297.797 239V223.16H300.481L307.829 234.325V223.16H310.513V239H307.829L300.481 227.835V239H297.797ZM317.394 239V225.646H312.268V223.16H325.171V225.646H320.045V239H317.394ZM325.4 239L330.394 223.16H334.277L339.271 239H336.543L332.011 224.788H332.605L328.128 239H325.4ZM328.183 235.568V233.093H336.499V235.568H328.183ZM347.364 239.33C346.337 239.33 345.373 239.15 344.471 238.791C343.576 238.424 342.788 237.889 342.106 237.185C341.431 236.481 340.903 235.619 340.522 234.6C340.141 233.573 339.95 232.4 339.95 231.08C339.95 229.349 340.273 227.872 340.918 226.647C341.563 225.415 342.447 224.473 343.569 223.82C344.691 223.16 345.956 222.83 347.364 222.83C349.315 222.83 350.858 223.285 351.995 224.194C353.139 225.096 353.913 226.365 354.316 228L351.61 228.429C351.309 227.49 350.818 226.742 350.136 226.185C349.454 225.62 348.585 225.338 347.529 225.338C346.466 225.323 345.582 225.554 344.878 226.031C344.174 226.508 343.642 227.179 343.283 228.044C342.931 228.909 342.755 229.921 342.755 231.08C342.755 232.239 342.931 233.247 343.283 234.105C343.635 234.956 344.163 235.619 344.867 236.096C345.578 236.573 346.466 236.818 347.529 236.833C348.328 236.84 349.029 236.697 349.63 236.404C350.231 236.103 350.723 235.652 351.104 235.051C351.485 234.442 351.742 233.683 351.874 232.774H349.08V230.695H354.69C354.705 230.812 354.716 230.985 354.723 231.212C354.73 231.439 354.734 231.575 354.734 231.619C354.734 233.115 354.437 234.446 353.843 235.612C353.256 236.771 352.413 237.68 351.313 238.34C350.213 239 348.897 239.33 347.364 239.33ZM356.943 239V223.16H367.173V225.646H359.594V229.551H365.853V232.037H359.594V236.514H367.173V239H356.943ZM375.525 239.33C374.366 239.33 373.321 239.128 372.39 238.725C371.466 238.322 370.703 237.746 370.102 236.998C369.508 236.243 369.13 235.348 368.969 234.314L371.719 233.896C371.954 234.835 372.434 235.561 373.16 236.074C373.893 236.587 374.737 236.844 375.69 236.844C376.255 236.844 376.786 236.756 377.285 236.58C377.784 236.404 378.187 236.147 378.495 235.81C378.81 235.473 378.968 235.058 378.968 234.567C378.968 234.347 378.931 234.145 378.858 233.962C378.785 233.771 378.675 233.603 378.528 233.456C378.389 233.309 378.205 233.177 377.978 233.06C377.758 232.935 377.501 232.829 377.208 232.741L373.116 231.531C372.764 231.428 372.383 231.293 371.972 231.124C371.569 230.948 371.184 230.71 370.817 230.409C370.458 230.101 370.161 229.712 369.926 229.243C369.699 228.766 369.585 228.18 369.585 227.483C369.585 226.464 369.842 225.609 370.355 224.92C370.876 224.223 371.572 223.703 372.445 223.358C373.325 223.013 374.3 222.845 375.371 222.852C376.456 222.859 377.424 223.046 378.275 223.413C379.126 223.772 379.837 224.297 380.409 224.986C380.981 225.675 381.384 226.508 381.619 227.483L378.77 227.978C378.653 227.421 378.425 226.948 378.088 226.559C377.758 226.163 377.351 225.862 376.867 225.657C376.39 225.452 375.881 225.342 375.338 225.327C374.81 225.32 374.319 225.4 373.864 225.569C373.417 225.73 373.054 225.965 372.775 226.273C372.504 226.581 372.368 226.94 372.368 227.351C372.368 227.74 372.485 228.059 372.72 228.308C372.955 228.55 373.244 228.744 373.589 228.891C373.941 229.03 374.297 229.148 374.656 229.243L377.494 230.035C377.883 230.138 378.319 230.277 378.803 230.453C379.287 230.629 379.753 230.875 380.2 231.19C380.647 231.505 381.014 231.92 381.3 232.433C381.593 232.946 381.74 233.599 381.74 234.391C381.74 235.212 381.568 235.935 381.223 236.558C380.886 237.174 380.427 237.687 379.848 238.098C379.269 238.509 378.605 238.817 377.857 239.022C377.116 239.227 376.339 239.33 375.525 239.33ZM386.992 234.699C386.992 234.193 387.04 233.705 387.135 233.236C387.238 232.759 387.403 232.319 387.63 231.916C387.828 231.527 388.048 231.219 388.29 230.992C388.532 230.757 388.803 230.526 389.104 230.299C389.405 230.064 389.738 229.753 390.105 229.364C390.406 229.034 390.604 228.708 390.699 228.385C390.794 228.055 390.842 227.703 390.842 227.329C390.842 227.087 390.816 226.86 390.765 226.647C390.714 226.434 390.622 226.251 390.49 226.097C390.285 225.826 390.021 225.635 389.698 225.525C389.375 225.408 389.031 225.349 388.664 225.349C388.363 225.349 388.074 225.389 387.795 225.47C387.524 225.543 387.293 225.661 387.102 225.822C386.882 225.998 386.721 226.214 386.618 226.471C386.515 226.728 386.468 227.01 386.475 227.318H383.681C383.754 226.585 383.952 225.906 384.275 225.283C384.605 224.652 385.038 224.15 385.573 223.776C385.991 223.468 386.46 223.237 386.981 223.083C387.509 222.929 388.037 222.852 388.565 222.852C389.372 222.852 390.131 222.977 390.842 223.226C391.561 223.475 392.158 223.886 392.635 224.458C392.965 224.832 393.214 225.265 393.383 225.756C393.559 226.247 393.647 226.746 393.647 227.252C393.647 228.007 393.482 228.697 393.152 229.32C392.829 229.943 392.419 230.519 391.92 231.047C391.685 231.296 391.462 231.516 391.249 231.707C391.036 231.898 390.838 232.085 390.655 232.268C390.479 232.444 390.332 232.631 390.215 232.829C390.01 233.174 389.889 233.467 389.852 233.709C389.815 233.944 389.797 234.274 389.797 234.699H386.992ZM387.014 239V236.085H389.797V239H387.014Z" fill="white"></path> <rect x="20" y="20" width="127" height="40" rx="20" fill="white" fill-opacity="0.3"></rect> <path d="M33.5028 46V34.48H38.0548C38.1668 34.48 38.3001 34.4853 38.4548 34.496C38.6095 34.5013 38.7588 34.5173 38.9028 34.544C39.5268 34.64 40.0495 34.8533 40.4708 35.184C40.8975 35.5147 41.2175 35.9333 41.4308 36.44C41.6441 36.9413 41.7508 37.4987 41.7508 38.112C41.7508 38.72 41.6415 39.2773 41.4228 39.784C41.2095 40.2853 40.8895 40.704 40.4628 41.04C40.0415 41.3707 39.5215 41.584 38.9028 41.68C38.7588 41.7013 38.6095 41.7173 38.4548 41.728C38.3001 41.7387 38.1668 41.744 38.0548 41.744H34.9268V46H33.5028ZM34.9268 40.392H38.0068C38.1081 40.392 38.2228 40.3867 38.3508 40.376C38.4841 40.3653 38.6095 40.3467 38.7268 40.32C39.0948 40.2347 39.3935 40.08 39.6228 39.856C39.8575 39.6267 40.0281 39.36 40.1348 39.056C40.2415 38.7467 40.2948 38.432 40.2948 38.112C40.2948 37.792 40.2415 37.48 40.1348 37.176C40.0281 36.8667 39.8575 36.5973 39.6228 36.368C39.3935 36.1387 39.0948 35.984 38.7268 35.904C38.6095 35.872 38.4841 35.8533 38.3508 35.848C38.2228 35.8373 38.1081 35.832 38.0068 35.832H34.9268V40.392ZM47.4346 46.24C46.6186 46.24 45.8826 46.1013 45.2266 45.824C44.5759 45.5467 44.0372 45.152 43.6106 44.64C43.1892 44.1227 42.9146 43.512 42.7866 42.808L44.2586 42.576C44.4452 43.3013 44.8319 43.8693 45.4186 44.28C46.0106 44.6853 46.7066 44.888 47.5066 44.888C48.0239 44.888 48.4906 44.808 48.9066 44.648C49.3279 44.4827 49.6612 44.248 49.9066 43.944C50.1519 43.64 50.2746 43.28 50.2746 42.864C50.2746 42.608 50.2292 42.3893 50.1386 42.208C50.0532 42.0213 49.9332 41.864 49.7786 41.736C49.6292 41.6027 49.4586 41.4907 49.2666 41.4C49.0746 41.3093 48.8746 41.2347 48.6666 41.176L45.7306 40.304C45.4106 40.208 45.1012 40.088 44.8026 39.944C44.5039 39.7947 44.2372 39.6107 44.0026 39.392C43.7679 39.168 43.5812 38.9013 43.4426 38.592C43.3039 38.2773 43.2346 37.9067 43.2346 37.48C43.2346 36.7973 43.4106 36.216 43.7626 35.736C44.1199 35.2507 44.6026 34.88 45.2106 34.624C45.8186 34.368 46.5039 34.2427 47.2666 34.248C48.0399 34.2533 48.7306 34.392 49.3386 34.664C49.9519 34.9307 50.4586 35.3147 50.8586 35.816C51.2639 36.3173 51.5359 36.9173 51.6746 37.616L50.1626 37.88C50.0826 37.4107 49.9039 37.008 49.6266 36.672C49.3546 36.3307 49.0132 36.0693 48.6026 35.888C48.1919 35.7013 47.7412 35.6053 47.2506 35.6C46.7812 35.5947 46.3572 35.6693 45.9786 35.824C45.5999 35.9787 45.2986 36.1947 45.0746 36.472C44.8506 36.744 44.7386 37.0587 44.7386 37.416C44.7386 37.768 44.8399 38.0533 45.0426 38.272C45.2452 38.4853 45.4932 38.656 45.7866 38.784C46.0852 38.9067 46.3759 39.008 46.6586 39.088L48.8506 39.72C49.1012 39.7893 49.3892 39.8853 49.7146 40.008C50.0452 40.1307 50.3652 40.304 50.6746 40.528C50.9839 40.7467 51.2399 41.04 51.4426 41.408C51.6452 41.7707 51.7466 42.2293 51.7466 42.784C51.7466 43.3387 51.6346 43.832 51.4106 44.264C51.1919 44.696 50.8852 45.0587 50.4906 45.352C50.0959 45.64 49.6372 45.8587 49.1146 46.008C48.5919 46.1627 48.0319 46.24 47.4346 46.24ZM55.7003 46V41.208L51.8203 34.48H53.4763L56.4203 39.576L59.3563 34.48H61.0123L57.1403 41.208V46H55.7003ZM66.2232 46.24C65.0765 46.24 64.1032 45.9867 63.3032 45.48C62.5032 44.9733 61.8925 44.2693 61.4712 43.368C61.0552 42.4667 60.8472 41.424 60.8472 40.24C60.8472 39.056 61.0552 38.0133 61.4712 37.112C61.8925 36.2107 62.5032 35.5067 63.3032 35C64.1032 34.4933 65.0765 34.24 66.2232 34.24C67.5565 34.24 68.6525 34.5787 69.5112 35.256C70.3752 35.9333 70.9699 36.8453 71.2952 37.992L69.8472 38.376C69.6125 37.5173 69.1939 36.84 68.5912 36.344C67.9885 35.848 67.1992 35.6 66.2232 35.6C65.3645 35.6 64.6499 35.7947 64.0792 36.184C63.5085 36.5733 63.0792 37.1173 62.7912 37.816C62.5032 38.5093 62.3565 39.3173 62.3512 40.24C62.3459 41.1573 62.4872 41.9653 62.7752 42.664C63.0632 43.3573 63.4952 43.9013 64.0712 44.296C64.6472 44.6853 65.3645 44.88 66.2232 44.88C67.1992 44.88 67.9885 44.632 68.5912 44.136C69.1939 43.6347 69.6125 42.9573 69.8472 42.104L71.2952 42.488C70.9699 43.6293 70.3752 44.5413 69.5112 45.224C68.6525 45.9013 67.5565 46.24 66.2232 46.24ZM73.0497 46V34.48H74.4737V39.56H80.5377V34.48H81.9617V46H80.5377V40.912H74.4737V46H73.0497ZM88.9419 46.24C87.7953 46.24 86.8219 45.9867 86.0219 45.48C85.2219 44.9733 84.6113 44.2693 84.1899 43.368C83.7739 42.4667 83.5659 41.424 83.5659 40.24C83.5659 39.056 83.7739 38.0133 84.1899 37.112C84.6113 36.2107 85.2219 35.5067 86.0219 35C86.8219 34.4933 87.7953 34.24 88.9419 34.24C90.0939 34.24 91.0699 34.4933 91.8699 35C92.6699 35.5067 93.2779 36.2107 93.6939 37.112C94.1099 38.0133 94.3179 39.056 94.3179 40.24C94.3179 41.424 94.1099 42.4667 93.6939 43.368C93.2779 44.2693 92.6699 44.9733 91.8699 45.48C91.0699 45.9867 90.0939 46.24 88.9419 46.24ZM88.9419 44.88C89.8006 44.8853 90.5153 44.6933 91.0859 44.304C91.6619 43.9093 92.0913 43.3627 92.3739 42.664C92.6619 41.9653 92.8059 41.1573 92.8059 40.24C92.8059 39.3173 92.6619 38.5093 92.3739 37.816C92.0913 37.1227 91.6619 36.5813 91.0859 36.192C90.5153 35.8027 89.8006 35.6053 88.9419 35.6C88.0833 35.5947 87.3686 35.7867 86.7979 36.176C86.2326 36.5653 85.8059 37.1093 85.5179 37.808C85.2299 38.5067 85.0833 39.3173 85.0779 40.24C85.0726 41.1573 85.2139 41.9627 85.5019 42.656C85.7899 43.3493 86.2193 43.8933 86.7899 44.288C87.3659 44.6773 88.0833 44.8747 88.9419 44.88ZM96.0847 46V34.48H97.5087V44.648H102.853V46H96.0847ZM108.629 46.24C107.483 46.24 106.509 45.9867 105.709 45.48C104.909 44.9733 104.299 44.2693 103.877 43.368C103.461 42.4667 103.253 41.424 103.253 40.24C103.253 39.056 103.461 38.0133 103.877 37.112C104.299 36.2107 104.909 35.5067 105.709 35C106.509 34.4933 107.483 34.24 108.629 34.24C109.781 34.24 110.757 34.4933 111.557 35C112.357 35.5067 112.965 36.2107 113.381 37.112C113.797 38.0133 114.005 39.056 114.005 40.24C114.005 41.424 113.797 42.4667 113.381 43.368C112.965 44.2693 112.357 44.9733 111.557 45.48C110.757 45.9867 109.781 46.24 108.629 46.24ZM108.629 44.88C109.488 44.8853 110.203 44.6933 110.773 44.304C111.349 43.9093 111.779 43.3627 112.061 42.664C112.349 41.9653 112.493 41.1573 112.493 40.24C112.493 39.3173 112.349 38.5093 112.061 37.816C111.779 37.1227 111.349 36.5813 110.773 36.192C110.203 35.8027 109.488 35.6053 108.629 35.6C107.771 35.5947 107.056 35.7867 106.485 36.176C105.92 36.5653 105.493 37.1093 105.205 37.808C104.917 38.5067 104.771 39.3173 104.765 40.24C104.76 41.1573 104.901 41.9627 105.189 42.656C105.477 43.3493 105.907 43.8933 106.477 44.288C107.053 44.6773 107.771 44.8747 108.629 44.88ZM120.276 46.24C119.487 46.24 118.767 46.1013 118.116 45.824C117.466 45.5467 116.906 45.1493 116.436 44.632C115.967 44.1093 115.604 43.48 115.348 42.744C115.098 42.0027 114.972 41.168 114.972 40.24C114.972 39.0133 115.191 37.952 115.628 37.056C116.066 36.16 116.682 35.4693 117.476 34.984C118.271 34.4933 119.204 34.248 120.276 34.248C121.567 34.248 122.607 34.5493 123.396 35.152C124.186 35.7493 124.73 36.568 125.028 37.608L123.588 37.904C123.348 37.2053 122.954 36.648 122.404 36.232C121.855 35.816 121.17 35.608 120.348 35.608C119.49 35.6027 118.775 35.7947 118.204 36.184C117.639 36.568 117.212 37.1093 116.924 37.808C116.636 38.5067 116.49 39.3173 116.484 40.24C116.479 41.1573 116.62 41.9627 116.908 42.656C117.196 43.3493 117.626 43.8933 118.196 44.288C118.772 44.6773 119.49 44.8747 120.348 44.88C121.09 44.8853 121.714 44.744 122.22 44.456C122.727 44.168 123.119 43.752 123.396 43.208C123.674 42.664 123.842 42.0107 123.9 41.248H121.452V40.072H125.404C125.42 40.1787 125.428 40.3067 125.428 40.456C125.434 40.6 125.436 40.6987 125.436 40.752C125.436 41.8027 125.239 42.744 124.844 43.576C124.455 44.4027 123.876 45.0533 123.108 45.528C122.346 46.0027 121.402 46.24 120.276 46.24ZM129.31 46V41.208L125.43 34.48H127.086L130.03 39.576L132.966 34.48H134.622L130.75 41.208V46H129.31Z" fill="white"></path> <defs> <linearGradient id="paint0_linear_136_233" x1="300" y1="0" x2="300" y2="400" gradientUnits="userSpaceOnUse"> <stop stop-color="#2DBDE8"></stop> <stop offset="1" stop-color="#0070A5"></stop> </linearGradient> </defs> </svg> 