<?xml version="1.0" encoding="UTF-8"?> <svg xmlns="http://www.w3.org/2000/svg" width="600" height="400" viewBox="0 0 600 400" fill="none"> <rect width="600" height="400" rx="20" fill="url(#paint0_linear_136_285)"></rect> <path d="M134.424 193V177.16H139.473C139.605 177.16 139.865 177.164 140.254 177.171C140.65 177.178 141.031 177.204 141.398 177.248C142.652 177.409 143.711 177.857 144.577 178.59C145.449 179.316 146.109 180.244 146.557 181.373C147.004 182.502 147.228 183.738 147.228 185.08C147.228 186.422 147.004 187.658 146.557 188.787C146.109 189.916 145.449 190.848 144.577 191.581C143.711 192.307 142.652 192.751 141.398 192.912C141.038 192.956 140.661 192.982 140.265 192.989C139.869 192.996 139.605 193 139.473 193H134.424ZM137.119 190.503H139.473C139.693 190.503 139.971 190.496 140.309 190.481C140.653 190.466 140.958 190.433 141.222 190.382C141.97 190.243 142.578 189.909 143.048 189.381C143.517 188.853 143.862 188.211 144.082 187.456C144.309 186.701 144.423 185.909 144.423 185.08C144.423 184.222 144.309 183.415 144.082 182.66C143.854 181.905 143.502 181.27 143.026 180.757C142.556 180.244 141.955 179.917 141.222 179.778C140.958 179.719 140.653 179.686 140.309 179.679C139.971 179.664 139.693 179.657 139.473 179.657H137.119V190.503ZM156.527 193.33C154.943 193.33 153.586 192.985 152.457 192.296C151.328 191.599 150.459 190.631 149.85 189.392C149.249 188.153 148.948 186.715 148.948 185.08C148.948 183.445 149.249 182.007 149.85 180.768C150.459 179.529 151.328 178.564 152.457 177.875C153.586 177.178 154.943 176.83 156.527 176.83C158.111 176.83 159.468 177.178 160.597 177.875C161.734 178.564 162.603 179.529 163.204 180.768C163.813 182.007 164.117 183.445 164.117 185.08C164.117 186.715 163.813 188.153 163.204 189.392C162.603 190.631 161.734 191.599 160.597 192.296C159.468 192.985 158.111 193.33 156.527 193.33ZM156.527 190.833C157.59 190.84 158.474 190.606 159.178 190.129C159.889 189.652 160.421 188.981 160.773 188.116C161.132 187.251 161.312 186.239 161.312 185.08C161.312 183.921 161.132 182.917 160.773 182.066C160.421 181.208 159.889 180.541 159.178 180.064C158.474 179.587 157.59 179.342 156.527 179.327C155.464 179.32 154.58 179.554 153.876 180.031C153.172 180.508 152.64 181.179 152.281 182.044C151.929 182.909 151.753 183.921 151.753 185.08C151.753 186.239 151.929 187.247 152.281 188.105C152.633 188.956 153.161 189.619 153.865 190.096C154.576 190.573 155.464 190.818 156.527 190.833ZM174.561 193V186.51L169.171 177.16H172.262L175.903 183.474L179.533 177.16H182.624L177.245 186.51V193H174.561ZM189.978 193.33C188.394 193.33 187.038 192.985 185.908 192.296C184.779 191.599 183.91 190.631 183.301 189.392C182.7 188.153 182.399 186.715 182.399 185.08C182.399 183.445 182.7 182.007 183.301 180.768C183.91 179.529 184.779 178.564 185.908 177.875C187.038 177.178 188.394 176.83 189.978 176.83C191.562 176.83 192.919 177.178 194.048 177.875C195.185 178.564 196.054 179.529 196.655 180.768C197.264 182.007 197.568 183.445 197.568 185.08C197.568 186.715 197.264 188.153 196.655 189.392C196.054 190.631 195.185 191.599 194.048 192.296C192.919 192.985 191.562 193.33 189.978 193.33ZM189.978 190.833C191.042 190.84 191.925 190.606 192.629 190.129C193.341 189.652 193.872 188.981 194.224 188.116C194.584 187.251 194.763 186.239 194.763 185.08C194.763 183.921 194.584 182.917 194.224 182.066C193.872 181.208 193.341 180.541 192.629 180.064C191.925 179.587 191.042 179.342 189.978 179.327C188.915 179.32 188.031 179.554 187.327 180.031C186.623 180.508 186.092 181.179 185.732 182.044C185.38 182.909 185.204 183.921 185.204 185.08C185.204 186.239 185.38 187.247 185.732 188.105C186.084 188.956 186.612 189.619 187.316 190.096C188.028 190.573 188.915 190.818 189.978 190.833ZM206.138 193.33C204.876 193.33 203.765 193.073 202.805 192.56C201.851 192.047 201.103 191.324 200.561 190.393C200.025 189.462 199.758 188.369 199.758 187.115V177.182L202.442 177.16V187.049C202.442 187.643 202.541 188.175 202.739 188.644C202.944 189.113 203.219 189.513 203.564 189.843C203.908 190.166 204.304 190.411 204.752 190.58C205.199 190.749 205.661 190.833 206.138 190.833C206.629 190.833 207.095 190.749 207.535 190.58C207.982 190.404 208.378 190.155 208.723 189.832C209.067 189.502 209.339 189.102 209.537 188.633C209.735 188.164 209.834 187.636 209.834 187.049V177.16H212.518V187.115C212.518 188.369 212.246 189.462 211.704 190.393C211.168 191.324 210.42 192.047 209.46 192.56C208.506 193.073 207.399 193.33 206.138 193.33ZM219.996 193V177.16H226.277C227.348 177.16 228.224 177.376 228.906 177.809C229.595 178.234 230.105 178.781 230.435 179.448C230.772 180.115 230.941 180.805 230.941 181.516C230.941 182.389 230.732 183.129 230.314 183.738C229.903 184.347 229.342 184.757 228.631 184.97V184.42C229.628 184.647 230.384 185.12 230.897 185.839C231.418 186.558 231.678 187.375 231.678 188.292C231.678 189.231 231.498 190.052 231.139 190.756C230.78 191.46 230.244 192.01 229.533 192.406C228.829 192.802 227.956 193 226.915 193H219.996ZM222.68 190.503H226.585C227.047 190.503 227.461 190.411 227.828 190.228C228.195 190.037 228.481 189.773 228.686 189.436C228.899 189.091 229.005 188.684 229.005 188.215C229.005 187.79 228.913 187.408 228.73 187.071C228.547 186.734 228.279 186.466 227.927 186.268C227.575 186.063 227.153 185.96 226.662 185.96H222.68V190.503ZM222.68 183.485H226.244C226.625 183.485 226.966 183.412 227.267 183.265C227.568 183.118 227.806 182.902 227.982 182.616C228.158 182.33 228.246 181.978 228.246 181.56C228.246 181.01 228.07 180.552 227.718 180.185C227.366 179.818 226.875 179.635 226.244 179.635H222.68V183.485ZM233.875 193V177.16H244.105V179.646H236.526V183.551H242.785V186.037H236.526V190.514H244.105V193H233.875ZM246.964 193V177.16H249.615V190.514H256.611V193H246.964ZM258.695 193V177.16H261.346V193H258.695ZM264.641 193V177.16H274.871V179.646H267.292V183.551H273.551V186.037H267.292V190.514H274.871V193H264.641ZM281.074 193L276.08 177.16H278.808L282.988 190.426L287.223 177.16H289.951L284.957 193H281.074ZM291.603 193V177.16H301.833V179.646H294.254V183.551H300.513V186.037H294.254V190.514H301.833V193H291.603ZM309.097 193V177.16H311.748V193H309.097ZM315.043 193V177.16H317.727L325.075 188.325V177.16H327.759V193H325.075L317.727 181.835V193H315.043ZM334.138 193L339.132 177.16H343.015L348.009 193H345.281L340.749 178.788H341.343L336.866 193H334.138ZM336.921 189.568V187.093H345.237V189.568H336.921ZM355.431 193.33C354.273 193.33 353.228 193.128 352.296 192.725C351.372 192.322 350.61 191.746 350.008 190.998C349.414 190.243 349.037 189.348 348.875 188.314L351.625 187.896C351.86 188.835 352.34 189.561 353.066 190.074C353.8 190.587 354.643 190.844 355.596 190.844C356.161 190.844 356.693 190.756 357.191 190.58C357.69 190.404 358.093 190.147 358.401 189.81C358.717 189.473 358.874 189.058 358.874 188.567C358.874 188.347 358.838 188.145 358.764 187.962C358.691 187.771 358.581 187.603 358.434 187.456C358.295 187.309 358.112 187.177 357.884 187.06C357.664 186.935 357.408 186.829 357.114 186.741L353.022 185.531C352.67 185.428 352.289 185.293 351.878 185.124C351.475 184.948 351.09 184.71 350.723 184.409C350.364 184.101 350.067 183.712 349.832 183.243C349.605 182.766 349.491 182.18 349.491 181.483C349.491 180.464 349.748 179.609 350.261 178.92C350.782 178.223 351.479 177.703 352.351 177.358C353.231 177.013 354.207 176.845 355.277 176.852C356.363 176.859 357.331 177.046 358.181 177.413C359.032 177.772 359.743 178.297 360.315 178.986C360.887 179.675 361.291 180.508 361.525 181.483L358.676 181.978C358.559 181.421 358.332 180.948 357.994 180.559C357.664 180.163 357.257 179.862 356.773 179.657C356.297 179.452 355.787 179.342 355.244 179.327C354.716 179.32 354.225 179.4 353.77 179.569C353.323 179.73 352.96 179.965 352.681 180.273C352.41 180.581 352.274 180.94 352.274 181.351C352.274 181.74 352.392 182.059 352.626 182.308C352.861 182.55 353.151 182.744 353.495 182.891C353.847 183.03 354.203 183.148 354.562 183.243L357.4 184.035C357.789 184.138 358.225 184.277 358.709 184.453C359.193 184.629 359.659 184.875 360.106 185.19C360.554 185.505 360.92 185.92 361.206 186.433C361.5 186.946 361.646 187.599 361.646 188.391C361.646 189.212 361.474 189.935 361.129 190.558C360.792 191.174 360.334 191.687 359.754 192.098C359.175 192.509 358.511 192.817 357.763 193.022C357.023 193.227 356.245 193.33 355.431 193.33ZM367.833 193V179.646H362.707V177.16H375.61V179.646H370.484V193H367.833ZM377.369 193V177.16H383.914C384.068 177.16 384.266 177.167 384.508 177.182C384.75 177.189 384.974 177.211 385.179 177.248C386.096 177.387 386.851 177.692 387.445 178.161C388.046 178.63 388.49 179.224 388.776 179.943C389.069 180.654 389.216 181.446 389.216 182.319C389.216 183.61 388.89 184.721 388.237 185.652C387.584 186.576 386.583 187.148 385.234 187.368L384.101 187.467H380.02V193H377.369ZM386.466 193L383.342 186.554L386.037 185.96L389.469 193H386.466ZM380.02 184.992H383.804C383.951 184.992 384.116 184.985 384.299 184.97C384.482 184.955 384.651 184.926 384.805 184.882C385.245 184.772 385.59 184.578 385.839 184.299C386.096 184.02 386.275 183.705 386.378 183.353C386.488 183.001 386.543 182.656 386.543 182.319C386.543 181.982 386.488 181.637 386.378 181.285C386.275 180.926 386.096 180.607 385.839 180.328C385.59 180.049 385.245 179.855 384.805 179.745C384.651 179.701 384.482 179.675 384.299 179.668C384.116 179.653 383.951 179.646 383.804 179.646H380.02V184.992ZM398.592 193.33C397.008 193.33 395.651 192.985 394.522 192.296C393.392 191.599 392.523 190.631 391.915 189.392C391.313 188.153 391.013 186.715 391.013 185.08C391.013 183.445 391.313 182.007 391.915 180.768C392.523 179.529 393.392 178.564 394.522 177.875C395.651 177.178 397.008 176.83 398.592 176.83C400.176 176.83 401.532 177.178 402.662 177.875C403.798 178.564 404.667 179.529 405.269 180.768C405.877 182.007 406.182 183.445 406.182 185.08C406.182 186.715 405.877 188.153 405.269 189.392C404.667 190.631 403.798 191.599 402.662 192.296C401.532 192.985 400.176 193.33 398.592 193.33ZM398.592 190.833C399.655 190.84 400.539 190.606 401.243 190.129C401.954 189.652 402.486 188.981 402.838 188.116C403.197 187.251 403.377 186.239 403.377 185.08C403.377 183.921 403.197 182.917 402.838 182.066C402.486 181.208 401.954 180.541 401.243 180.064C400.539 179.587 399.655 179.342 398.592 179.327C397.528 179.32 396.645 179.554 395.941 180.031C395.237 180.508 394.705 181.179 394.346 182.044C393.994 182.909 393.818 183.921 393.818 185.08C393.818 186.239 393.994 187.247 394.346 188.105C394.698 188.956 395.226 189.619 395.93 190.096C396.641 190.573 397.528 190.818 398.592 190.833ZM408.591 193V177.16H411.242V190.514H418.238V193H408.591ZM426.371 193.33C424.787 193.33 423.43 192.985 422.301 192.296C421.172 191.599 420.303 190.631 419.694 189.392C419.093 188.153 418.792 186.715 418.792 185.08C418.792 183.445 419.093 182.007 419.694 180.768C420.303 179.529 421.172 178.564 422.301 177.875C423.43 177.178 424.787 176.83 426.371 176.83C427.955 176.83 429.312 177.178 430.441 177.875C431.578 178.564 432.447 179.529 433.048 180.768C433.657 182.007 433.961 183.445 433.961 185.08C433.961 186.715 433.657 188.153 433.048 189.392C432.447 190.631 431.578 191.599 430.441 192.296C429.312 192.985 427.955 193.33 426.371 193.33ZM426.371 190.833C427.434 190.84 428.318 190.606 429.022 190.129C429.733 189.652 430.265 188.981 430.617 188.116C430.976 187.251 431.156 186.239 431.156 185.08C431.156 183.921 430.976 182.917 430.617 182.066C430.265 181.208 429.733 180.541 429.022 180.064C428.318 179.587 427.434 179.342 426.371 179.327C425.308 179.32 424.424 179.554 423.72 180.031C423.016 180.508 422.484 181.179 422.125 182.044C421.773 182.909 421.597 183.921 421.597 185.08C421.597 186.239 421.773 187.247 422.125 188.105C422.477 188.956 423.005 189.619 423.709 190.096C424.42 190.573 425.308 190.818 426.371 190.833ZM442.684 193.33C441.658 193.33 440.693 193.15 439.791 192.791C438.897 192.424 438.108 191.889 437.426 191.185C436.752 190.481 436.224 189.619 435.842 188.6C435.461 187.573 435.27 186.4 435.27 185.08C435.27 183.349 435.593 181.872 436.238 180.647C436.884 179.415 437.767 178.473 438.889 177.82C440.011 177.16 441.276 176.83 442.684 176.83C444.635 176.83 446.179 177.285 447.315 178.194C448.459 179.096 449.233 180.365 449.636 182L446.93 182.429C446.63 181.49 446.138 180.742 445.456 180.185C444.774 179.62 443.905 179.338 442.849 179.338C441.786 179.323 440.902 179.554 440.198 180.031C439.494 180.508 438.963 181.179 438.603 182.044C438.251 182.909 438.075 183.921 438.075 185.08C438.075 186.239 438.251 187.247 438.603 188.105C438.955 188.956 439.483 189.619 440.187 190.096C440.899 190.573 441.786 190.818 442.849 190.833C443.649 190.84 444.349 190.697 444.95 190.404C445.552 190.103 446.043 189.652 446.424 189.051C446.806 188.442 447.062 187.683 447.194 186.774H444.4V184.695H450.01C450.025 184.812 450.036 184.985 450.043 185.212C450.051 185.439 450.054 185.575 450.054 185.619C450.054 187.115 449.757 188.446 449.163 189.612C448.577 190.771 447.733 191.68 446.633 192.34C445.533 193 444.217 193.33 442.684 193.33ZM455.448 193V186.51L450.058 177.16H453.149L456.79 183.474L460.42 177.16H463.511L458.132 186.51V193H455.448ZM461.755 195.805L461.909 194.661C462.246 194.69 462.514 194.632 462.712 194.485C462.91 194.346 463.042 194.144 463.108 193.88C463.181 193.623 463.199 193.33 463.163 193H461.755V190.173H464.472V193.11C464.472 194.071 464.244 194.797 463.79 195.288C463.335 195.779 462.657 195.952 461.755 195.805ZM76.1474 224V208.16H86.3774V210.646H78.7984V214.551H85.0574V217.037H78.7984V221.514H86.3774V224H76.1474ZM94.7292 224.33C93.5705 224.33 92.5255 224.128 91.5942 223.725C90.6702 223.322 89.9075 222.746 89.3062 221.998C88.7122 221.243 88.3345 220.348 88.1732 219.314L90.9232 218.896C91.1578 219.835 91.6382 220.561 92.3642 221.074C93.0975 221.587 93.9408 221.844 94.8942 221.844C95.4588 221.844 95.9905 221.756 96.4892 221.58C96.9878 221.404 97.3912 221.147 97.6992 220.81C98.0145 220.473 98.1722 220.058 98.1722 219.567C98.1722 219.347 98.1355 219.145 98.0622 218.962C97.9888 218.771 97.8788 218.603 97.7322 218.456C97.5928 218.309 97.4095 218.177 97.1822 218.06C96.9622 217.935 96.7055 217.829 96.4122 217.741L92.3202 216.531C91.9682 216.428 91.5868 216.293 91.1762 216.124C90.7728 215.948 90.3878 215.71 90.0212 215.409C89.6618 215.101 89.3648 214.712 89.1302 214.243C88.9028 213.766 88.7892 213.18 88.7892 212.483C88.7892 211.464 89.0458 210.609 89.5592 209.92C90.0798 209.223 90.7765 208.703 91.6492 208.358C92.5292 208.013 93.5045 207.845 94.5752 207.852C95.6605 207.859 96.6285 208.046 97.4792 208.413C98.3298 208.772 99.0412 209.297 99.6132 209.986C100.185 210.675 100.589 211.508 100.823 212.483L97.9742 212.978C97.8568 212.421 97.6295 211.948 97.2922 211.559C96.9622 211.163 96.5552 210.862 96.0712 210.657C95.5945 210.452 95.0848 210.342 94.5422 210.327C94.0142 210.32 93.5228 210.4 93.0682 210.569C92.6208 210.73 92.2578 210.965 91.9792 211.273C91.7078 211.581 91.5722 211.94 91.5722 212.351C91.5722 212.74 91.6895 213.059 91.9242 213.308C92.1588 213.55 92.4485 213.744 92.7932 213.891C93.1452 214.03 93.5008 214.148 93.8602 214.243L96.6982 215.035C97.0868 215.138 97.5232 215.277 98.0072 215.453C98.4912 215.629 98.9568 215.875 99.4042 216.19C99.8515 216.505 100.218 216.92 100.504 217.433C100.798 217.946 100.944 218.599 100.944 219.391C100.944 220.212 100.772 220.935 100.427 221.558C100.09 222.174 99.6315 222.687 99.0522 223.098C98.4728 223.509 97.8092 223.817 97.0612 224.022C96.3205 224.227 95.5432 224.33 94.7292 224.33ZM110.024 224.33C108.44 224.33 107.083 223.985 105.954 223.296C104.825 222.599 103.956 221.631 103.347 220.392C102.746 219.153 102.445 217.715 102.445 216.08C102.445 214.445 102.746 213.007 103.347 211.768C103.956 210.529 104.825 209.564 105.954 208.875C107.083 208.178 108.44 207.83 110.024 207.83C111.608 207.83 112.965 208.178 114.094 208.875C115.231 209.564 116.1 210.529 116.701 211.768C117.31 213.007 117.614 214.445 117.614 216.08C117.614 217.715 117.31 219.153 116.701 220.392C116.1 221.631 115.231 222.599 114.094 223.296C112.965 223.985 111.608 224.33 110.024 224.33ZM110.024 221.833C111.087 221.84 111.971 221.606 112.675 221.129C113.386 220.652 113.918 219.981 114.27 219.116C114.629 218.251 114.809 217.239 114.809 216.08C114.809 214.921 114.629 213.917 114.27 213.066C113.918 212.208 113.386 211.541 112.675 211.064C111.971 210.587 111.087 210.342 110.024 210.327C108.961 210.32 108.077 210.554 107.373 211.031C106.669 211.508 106.137 212.179 105.778 213.044C105.426 213.909 105.25 214.921 105.25 216.08C105.25 217.239 105.426 218.247 105.778 219.105C106.13 219.956 106.658 220.619 107.362 221.096C108.073 221.573 108.961 221.818 110.024 221.833ZM123.18 224V210.646H118.054V208.16H130.957V210.646H125.831V224H123.18ZM132.716 224V208.16H142.946V210.646H135.367V214.551H141.626V217.037H135.367V221.514H142.946V224H132.716ZM145.585 224V208.16H152.13C152.284 208.16 152.482 208.167 152.724 208.182C152.966 208.189 153.19 208.211 153.395 208.248C154.312 208.387 155.067 208.692 155.661 209.161C156.262 209.63 156.706 210.224 156.992 210.943C157.285 211.654 157.432 212.446 157.432 213.319C157.432 214.61 157.106 215.721 156.453 216.652C155.8 217.576 154.799 218.148 153.45 218.368L152.317 218.467H148.236V224H145.585ZM154.682 224L151.558 217.554L154.253 216.96L157.685 224H154.682ZM148.236 215.992H152.02C152.167 215.992 152.332 215.985 152.515 215.97C152.698 215.955 152.867 215.926 153.021 215.882C153.461 215.772 153.806 215.578 154.055 215.299C154.312 215.02 154.491 214.705 154.594 214.353C154.704 214.001 154.759 213.656 154.759 213.319C154.759 212.982 154.704 212.637 154.594 212.285C154.491 211.926 154.312 211.607 154.055 211.328C153.806 211.049 153.461 210.855 153.021 210.745C152.867 210.701 152.698 210.675 152.515 210.668C152.332 210.653 152.167 210.646 152.02 210.646H148.236V215.992ZM160.328 224V208.16H162.979V224H160.328ZM172.973 224.33C171.389 224.33 170.033 223.985 168.903 223.296C167.774 222.599 166.905 221.631 166.296 220.392C165.695 219.153 165.394 217.715 165.394 216.08C165.394 214.445 165.695 213.007 166.296 211.768C166.905 210.529 167.774 209.564 168.903 208.875C170.033 208.178 171.389 207.83 172.973 207.83C174.799 207.83 176.321 208.288 177.538 209.205C178.756 210.114 179.61 211.343 180.101 212.89L177.428 213.627C177.12 212.593 176.596 211.786 175.855 211.207C175.115 210.62 174.154 210.327 172.973 210.327C171.91 210.327 171.023 210.565 170.311 211.042C169.607 211.519 169.076 212.19 168.716 213.055C168.364 213.913 168.185 214.921 168.177 216.08C168.177 217.239 168.353 218.251 168.705 219.116C169.065 219.974 169.6 220.641 170.311 221.118C171.023 221.595 171.91 221.833 172.973 221.833C174.154 221.833 175.115 221.54 175.855 220.953C176.596 220.366 177.12 219.56 177.428 218.533L180.101 219.27C179.61 220.817 178.756 222.049 177.538 222.966C176.321 223.875 174.799 224.33 172.973 224.33ZM182.737 224V208.16H185.388V224H182.737ZM194.546 224.33C193.387 224.33 192.342 224.128 191.411 223.725C190.487 223.322 189.724 222.746 189.123 221.998C188.529 221.243 188.151 220.348 187.99 219.314L190.74 218.896C190.974 219.835 191.455 220.561 192.181 221.074C192.914 221.587 193.757 221.844 194.711 221.844C195.275 221.844 195.807 221.756 196.306 221.58C196.804 221.404 197.208 221.147 197.516 220.81C197.831 220.473 197.989 220.058 197.989 219.567C197.989 219.347 197.952 219.145 197.879 218.962C197.805 218.771 197.695 218.603 197.549 218.456C197.409 218.309 197.226 218.177 196.999 218.06C196.779 217.935 196.522 217.829 196.229 217.741L192.137 216.531C191.785 216.428 191.403 216.293 190.993 216.124C190.589 215.948 190.204 215.71 189.838 215.409C189.478 215.101 189.181 214.712 188.947 214.243C188.719 213.766 188.606 213.18 188.606 212.483C188.606 211.464 188.862 210.609 189.376 209.92C189.896 209.223 190.593 208.703 191.466 208.358C192.346 208.013 193.321 207.845 194.392 207.852C195.477 207.859 196.445 208.046 197.296 208.413C198.146 208.772 198.858 209.297 199.43 209.986C200.002 210.675 200.405 211.508 200.64 212.483L197.791 212.978C197.673 212.421 197.446 211.948 197.109 211.559C196.779 211.163 196.372 210.862 195.888 210.657C195.411 210.452 194.901 210.342 194.359 210.327C193.831 210.32 193.339 210.4 192.885 210.569C192.437 210.73 192.074 210.965 191.796 211.273C191.524 211.581 191.389 211.94 191.389 212.351C191.389 212.74 191.506 213.059 191.741 213.308C191.975 213.55 192.265 213.744 192.61 213.891C192.962 214.03 193.317 214.148 193.677 214.243L196.515 215.035C196.903 215.138 197.34 215.277 197.824 215.453C198.308 215.629 198.773 215.875 199.221 216.19C199.668 216.505 200.035 216.92 200.321 217.433C200.614 217.946 200.761 218.599 200.761 219.391C200.761 220.212 200.588 220.935 200.244 221.558C199.906 222.174 199.448 222.687 198.869 223.098C198.289 223.509 197.626 223.817 196.878 224.022C196.137 224.227 195.36 224.33 194.546 224.33ZM203.142 224V208.16H205.529L211.007 219.38L216.485 208.16H218.872V224H216.397V213.847L211.535 224H210.479L205.628 213.847V224H203.142ZM233.065 224.33C231.481 224.33 230.125 223.985 228.995 223.296C227.866 222.599 226.997 221.631 226.388 220.392C225.787 219.153 225.486 217.715 225.486 216.08C225.486 214.445 225.787 213.007 226.388 211.768C226.997 210.529 227.866 209.564 228.995 208.875C230.125 208.178 231.481 207.83 233.065 207.83C234.649 207.83 236.006 208.178 237.135 208.875C238.272 209.564 239.141 210.529 239.742 211.768C240.351 213.007 240.655 214.445 240.655 216.08C240.655 217.715 240.351 219.153 239.742 220.392C239.141 221.631 238.272 222.599 237.135 223.296C236.006 223.985 234.649 224.33 233.065 224.33ZM233.065 221.833C234.129 221.84 235.012 221.606 235.716 221.129C236.428 220.652 236.959 219.981 237.311 219.116C237.671 218.251 237.85 217.239 237.85 216.08C237.85 214.921 237.671 213.917 237.311 213.066C236.959 212.208 236.428 211.541 235.716 211.064C235.012 210.587 234.129 210.342 233.065 210.327C232.002 210.32 231.118 210.554 230.414 211.031C229.71 211.508 229.179 212.179 228.819 213.044C228.467 213.909 228.291 214.921 228.291 216.08C228.291 217.239 228.467 218.247 228.819 219.105C229.171 219.956 229.699 220.619 230.403 221.096C231.115 221.573 232.002 221.818 233.065 221.833ZM242.845 224V208.16H249.39C249.544 208.16 249.742 208.167 249.984 208.182C250.226 208.189 250.449 208.211 250.655 208.248C251.571 208.387 252.327 208.692 252.921 209.161C253.522 209.63 253.966 210.224 254.252 210.943C254.545 211.654 254.692 212.446 254.692 213.319C254.692 214.61 254.365 215.721 253.713 216.652C253.06 217.576 252.059 218.148 250.71 218.368L249.577 218.467H245.496V224H242.845ZM251.942 224L248.818 217.554L251.513 216.96L254.945 224H251.942ZM245.496 215.992H249.28C249.426 215.992 249.591 215.985 249.775 215.97C249.958 215.955 250.127 215.926 250.281 215.882C250.721 215.772 251.065 215.578 251.315 215.299C251.571 215.02 251.751 214.705 251.854 214.353C251.964 214.001 252.019 213.656 252.019 213.319C252.019 212.982 251.964 212.637 251.854 212.285C251.751 211.926 251.571 211.607 251.315 211.328C251.065 211.049 250.721 210.855 250.281 210.745C250.127 210.701 249.958 210.675 249.775 210.668C249.591 210.653 249.426 210.646 249.28 210.646H245.496V215.992ZM261.772 224V208.16H268.317C268.471 208.16 268.669 208.167 268.911 208.182C269.153 208.189 269.377 208.211 269.582 208.248C270.499 208.387 271.254 208.692 271.848 209.161C272.45 209.63 272.893 210.224 273.179 210.943C273.473 211.654 273.619 212.446 273.619 213.319C273.619 214.184 273.473 214.976 273.179 215.695C272.886 216.406 272.439 216.997 271.837 217.466C271.243 217.935 270.492 218.24 269.582 218.379C269.377 218.408 269.15 218.43 268.9 218.445C268.658 218.46 268.464 218.467 268.317 218.467H264.423V224H261.772ZM264.423 215.992H268.207C268.354 215.992 268.519 215.985 268.702 215.97C268.886 215.955 269.054 215.926 269.208 215.882C269.648 215.772 269.993 215.578 270.242 215.299C270.499 215.02 270.679 214.705 270.781 214.353C270.891 214.001 270.946 213.656 270.946 213.319C270.946 212.982 270.891 212.637 270.781 212.285C270.679 211.926 270.499 211.607 270.242 211.328C269.993 211.049 269.648 210.855 269.208 210.745C269.054 210.701 268.886 210.675 268.702 210.668C268.519 210.653 268.354 210.646 268.207 210.646H264.423V215.992ZM281.686 224.33C280.528 224.33 279.483 224.128 278.551 223.725C277.627 223.322 276.865 222.746 276.263 221.998C275.669 221.243 275.292 220.348 275.13 219.314L277.88 218.896C278.115 219.835 278.595 220.561 279.321 221.074C280.055 221.587 280.898 221.844 281.851 221.844C282.416 221.844 282.948 221.756 283.446 221.58C283.945 221.404 284.348 221.147 284.656 220.81C284.972 220.473 285.129 220.058 285.129 219.567C285.129 219.347 285.093 219.145 285.019 218.962C284.946 218.771 284.836 218.603 284.689 218.456C284.55 218.309 284.367 218.177 284.139 218.06C283.919 217.935 283.663 217.829 283.369 217.741L279.277 216.531C278.925 216.428 278.544 216.293 278.133 216.124C277.73 215.948 277.345 215.71 276.978 215.409C276.619 215.101 276.322 214.712 276.087 214.243C275.86 213.766 275.746 213.18 275.746 212.483C275.746 211.464 276.003 210.609 276.516 209.92C277.037 209.223 277.734 208.703 278.606 208.358C279.486 208.013 280.462 207.845 281.532 207.852C282.618 207.859 283.586 208.046 284.436 208.413C285.287 208.772 285.998 209.297 286.57 209.986C287.142 210.675 287.546 211.508 287.78 212.483L284.931 212.978C284.814 212.421 284.587 211.948 284.249 211.559C283.919 211.163 283.512 210.862 283.028 210.657C282.552 210.452 282.042 210.342 281.499 210.327C280.971 210.32 280.48 210.4 280.025 210.569C279.578 210.73 279.215 210.965 278.936 211.273C278.665 211.581 278.529 211.94 278.529 212.351C278.529 212.74 278.647 213.059 278.881 213.308C279.116 213.55 279.406 213.744 279.75 213.891C280.102 214.03 280.458 214.148 280.817 214.243L283.655 215.035C284.044 215.138 284.48 215.277 284.964 215.453C285.448 215.629 285.914 215.875 286.361 216.19C286.809 216.505 287.175 216.92 287.461 217.433C287.755 217.946 287.901 218.599 287.901 219.391C287.901 220.212 287.729 220.935 287.384 221.558C287.047 222.174 286.589 222.687 286.009 223.098C285.43 223.509 284.766 223.817 284.018 224.022C283.278 224.227 282.5 224.33 281.686 224.33ZM293.466 224V217.51L288.076 208.16H291.167L294.808 214.474L298.438 208.16H301.529L296.15 217.51V224H293.466ZM308.884 224.33C307.3 224.33 305.943 223.985 304.814 223.296C303.684 222.599 302.815 221.631 302.207 220.392C301.605 219.153 301.305 217.715 301.305 216.08C301.305 214.445 301.605 213.007 302.207 211.768C302.815 210.529 303.684 209.564 304.814 208.875C305.943 208.178 307.3 207.83 308.884 207.83C310.71 207.83 312.231 208.288 313.449 209.205C314.666 210.114 315.52 211.343 316.012 212.89L313.339 213.627C313.031 212.593 312.506 211.786 311.766 211.207C311.025 210.62 310.064 210.327 308.884 210.327C307.82 210.327 306.933 210.565 306.222 211.042C305.518 211.519 304.986 212.19 304.627 213.055C304.275 213.913 304.095 214.921 304.088 216.08C304.088 217.239 304.264 218.251 304.616 219.116C304.975 219.974 305.51 220.641 306.222 221.118C306.933 221.595 307.82 221.833 308.884 221.833C310.064 221.833 311.025 221.54 311.766 220.953C312.506 220.366 313.031 219.56 313.339 218.533L316.012 219.27C315.52 220.817 314.666 222.049 313.449 222.966C312.231 223.875 310.71 224.33 308.884 224.33ZM318.427 224V208.16H321.078V214.826H328.58V208.16H331.22V224H328.58V217.312H321.078V224H318.427ZM341.003 224.33C339.419 224.33 338.062 223.985 336.933 223.296C335.803 222.599 334.934 221.631 334.326 220.392C333.724 219.153 333.424 217.715 333.424 216.08C333.424 214.445 333.724 213.007 334.326 211.768C334.934 210.529 335.803 209.564 336.933 208.875C338.062 208.178 339.419 207.83 341.003 207.83C342.587 207.83 343.943 208.178 345.073 208.875C346.209 209.564 347.078 210.529 347.68 211.768C348.288 213.007 348.593 214.445 348.593 216.08C348.593 217.715 348.288 219.153 347.68 220.392C347.078 221.631 346.209 222.599 345.073 223.296C343.943 223.985 342.587 224.33 341.003 224.33ZM341.003 221.833C342.066 221.84 342.95 221.606 343.654 221.129C344.365 220.652 344.897 219.981 345.249 219.116C345.608 218.251 345.788 217.239 345.788 216.08C345.788 214.921 345.608 213.917 345.249 213.066C344.897 212.208 344.365 211.541 343.654 211.064C342.95 210.587 342.066 210.342 341.003 210.327C339.939 210.32 339.056 210.554 338.352 211.031C337.648 211.508 337.116 212.179 336.757 213.044C336.405 213.909 336.229 214.921 336.229 216.08C336.229 217.239 336.405 218.247 336.757 219.105C337.109 219.956 337.637 220.619 338.341 221.096C339.052 221.573 339.939 221.818 341.003 221.833ZM351.002 224V208.16H353.653V221.514H360.649V224H351.002ZM368.782 224.33C367.198 224.33 365.841 223.985 364.712 223.296C363.583 222.599 362.714 221.631 362.105 220.392C361.504 219.153 361.203 217.715 361.203 216.08C361.203 214.445 361.504 213.007 362.105 211.768C362.714 210.529 363.583 209.564 364.712 208.875C365.841 208.178 367.198 207.83 368.782 207.83C370.366 207.83 371.723 208.178 372.852 208.875C373.989 209.564 374.858 210.529 375.459 211.768C376.068 213.007 376.372 214.445 376.372 216.08C376.372 217.715 376.068 219.153 375.459 220.392C374.858 221.631 373.989 222.599 372.852 223.296C371.723 223.985 370.366 224.33 368.782 224.33ZM368.782 221.833C369.845 221.84 370.729 221.606 371.433 221.129C372.144 220.652 372.676 219.981 373.028 219.116C373.387 218.251 373.567 217.239 373.567 216.08C373.567 214.921 373.387 213.917 373.028 213.066C372.676 212.208 372.144 211.541 371.433 211.064C370.729 210.587 369.845 210.342 368.782 210.327C367.719 210.32 366.835 210.554 366.131 211.031C365.427 211.508 364.895 212.179 364.536 213.044C364.184 213.909 364.008 214.921 364.008 216.08C364.008 217.239 364.184 218.247 364.536 219.105C364.888 219.956 365.416 220.619 366.12 221.096C366.831 221.573 367.719 221.818 368.782 221.833ZM385.095 224.33C384.069 224.33 383.104 224.15 382.202 223.791C381.308 223.424 380.519 222.889 379.837 222.185C379.163 221.481 378.635 220.619 378.253 219.6C377.872 218.573 377.681 217.4 377.681 216.08C377.681 214.349 378.004 212.872 378.649 211.647C379.295 210.415 380.178 209.473 381.3 208.82C382.422 208.16 383.687 207.83 385.095 207.83C387.046 207.83 388.59 208.285 389.726 209.194C390.87 210.096 391.644 211.365 392.047 213L389.341 213.429C389.041 212.49 388.549 211.742 387.867 211.185C387.185 210.62 386.316 210.338 385.26 210.338C384.197 210.323 383.313 210.554 382.609 211.031C381.905 211.508 381.374 212.179 381.014 213.044C380.662 213.909 380.486 214.921 380.486 216.08C380.486 217.239 380.662 218.247 381.014 219.105C381.366 219.956 381.894 220.619 382.598 221.096C383.31 221.573 384.197 221.818 385.26 221.833C386.06 221.84 386.76 221.697 387.361 221.404C387.963 221.103 388.454 220.652 388.835 220.051C389.217 219.442 389.473 218.683 389.605 217.774H386.811V215.695H392.421C392.436 215.812 392.447 215.985 392.454 216.212C392.462 216.439 392.465 216.575 392.465 216.619C392.465 218.115 392.168 219.446 391.574 220.612C390.988 221.771 390.144 222.68 389.044 223.34C387.944 224 386.628 224.33 385.095 224.33ZM394.895 224V208.16H397.546V224H394.895ZM407.54 224.33C405.956 224.33 404.599 223.985 403.47 223.296C402.34 222.599 401.471 221.631 400.863 220.392C400.261 219.153 399.961 217.715 399.961 216.08C399.961 214.445 400.261 213.007 400.863 211.768C401.471 210.529 402.34 209.564 403.47 208.875C404.599 208.178 405.956 207.83 407.54 207.83C409.366 207.83 410.887 208.288 412.105 209.205C413.322 210.114 414.176 211.343 414.668 212.89L411.995 213.627C411.687 212.593 411.162 211.786 410.422 211.207C409.681 210.62 408.72 210.327 407.54 210.327C406.476 210.327 405.589 210.565 404.878 211.042C404.174 211.519 403.642 212.19 403.283 213.055C402.931 213.913 402.751 214.921 402.744 216.08C402.744 217.239 402.92 218.251 403.272 219.116C403.631 219.974 404.166 220.641 404.878 221.118C405.589 221.595 406.476 221.833 407.54 221.833C408.72 221.833 409.681 221.54 410.422 220.953C411.162 220.366 411.687 219.56 411.995 218.533L414.668 219.27C414.176 220.817 413.322 222.049 412.105 222.966C410.887 223.875 409.366 224.33 407.54 224.33ZM415.553 224L420.547 208.16H424.43L429.424 224H426.696L422.164 209.788H422.758L418.281 224H415.553ZM418.336 220.568V218.093H426.652V220.568H418.336ZM431.633 224V208.16H434.284V221.514H441.28V224H431.633ZM450.258 224V210.646H445.132V208.16H458.035V210.646H452.909V224H450.258ZM459.794 224V208.16H470.024V210.646H462.445V214.551H468.704V217.037H462.445V221.514H470.024V224H459.794ZM478.376 224.33C477.217 224.33 476.172 224.128 475.241 223.725C474.317 223.322 473.554 222.746 472.953 221.998C472.359 221.243 471.981 220.348 471.82 219.314L474.57 218.896C474.804 219.835 475.285 220.561 476.011 221.074C476.744 221.587 477.587 221.844 478.541 221.844C479.105 221.844 479.637 221.756 480.136 221.58C480.634 221.404 481.038 221.147 481.346 220.81C481.661 220.473 481.819 220.058 481.819 219.567C481.819 219.347 481.782 219.145 481.709 218.962C481.635 218.771 481.525 218.603 481.379 218.456C481.239 218.309 481.056 218.177 480.829 218.06C480.609 217.935 480.352 217.829 480.059 217.741L475.967 216.531C475.615 216.428 475.233 216.293 474.823 216.124C474.419 215.948 474.034 215.71 473.668 215.409C473.308 215.101 473.011 214.712 472.777 214.243C472.549 213.766 472.436 213.18 472.436 212.483C472.436 211.464 472.692 210.609 473.206 209.92C473.726 209.223 474.423 208.703 475.296 208.358C476.176 208.013 477.151 207.845 478.222 207.852C479.307 207.859 480.275 208.046 481.126 208.413C481.976 208.772 482.688 209.297 483.26 209.986C483.832 210.675 484.235 211.508 484.47 212.483L481.621 212.978C481.503 212.421 481.276 211.948 480.939 211.559C480.609 211.163 480.202 210.862 479.718 210.657C479.241 210.452 478.731 210.342 478.189 210.327C477.661 210.32 477.169 210.4 476.715 210.569C476.267 210.73 475.904 210.965 475.626 211.273C475.354 211.581 475.219 211.94 475.219 212.351C475.219 212.74 475.336 213.059 475.571 213.308C475.805 213.55 476.095 213.744 476.44 213.891C476.792 214.03 477.147 214.148 477.507 214.243L480.345 215.035C480.733 215.138 481.17 215.277 481.654 215.453C482.138 215.629 482.603 215.875 483.051 216.19C483.498 216.505 483.865 216.92 484.151 217.433C484.444 217.946 484.591 218.599 484.591 219.391C484.591 220.212 484.418 220.935 484.074 221.558C483.736 222.174 483.278 222.687 482.699 223.098C482.119 223.509 481.456 223.817 480.708 224.022C479.967 224.227 479.19 224.33 478.376 224.33ZM490.778 224V210.646H485.652V208.16H498.555V210.646H493.429V224H490.778ZM506.176 224.33C505.018 224.33 503.973 224.128 503.041 223.725C502.117 223.322 501.355 222.746 500.753 221.998C500.159 221.243 499.782 220.348 499.62 219.314L502.37 218.896C502.605 219.835 503.085 220.561 503.811 221.074C504.545 221.587 505.388 221.844 506.341 221.844C506.906 221.844 507.438 221.756 507.936 221.58C508.435 221.404 508.838 221.147 509.146 220.81C509.462 220.473 509.619 220.058 509.619 219.567C509.619 219.347 509.583 219.145 509.509 218.962C509.436 218.771 509.326 218.603 509.179 218.456C509.04 218.309 508.857 218.177 508.629 218.06C508.409 217.935 508.153 217.829 507.859 217.741L503.767 216.531C503.415 216.428 503.034 216.293 502.623 216.124C502.22 215.948 501.835 215.71 501.468 215.409C501.109 215.101 500.812 214.712 500.577 214.243C500.35 213.766 500.236 213.18 500.236 212.483C500.236 211.464 500.493 210.609 501.006 209.92C501.527 209.223 502.224 208.703 503.096 208.358C503.976 208.013 504.952 207.845 506.022 207.852C507.108 207.859 508.076 208.046 508.926 208.413C509.777 208.772 510.488 209.297 511.06 209.986C511.632 210.675 512.036 211.508 512.27 212.483L509.421 212.978C509.304 212.421 509.077 211.948 508.739 211.559C508.409 211.163 508.002 210.862 507.518 210.657C507.042 210.452 506.532 210.342 505.989 210.327C505.461 210.32 504.97 210.4 504.515 210.569C504.068 210.73 503.705 210.965 503.426 211.273C503.155 211.581 503.019 211.94 503.019 212.351C503.019 212.74 503.137 213.059 503.371 213.308C503.606 213.55 503.896 213.744 504.24 213.891C504.592 214.03 504.948 214.148 505.307 214.243L508.145 215.035C508.534 215.138 508.97 215.277 509.454 215.453C509.938 215.629 510.404 215.875 510.851 216.19C511.299 216.505 511.665 216.92 511.951 217.433C512.245 217.946 512.391 218.599 512.391 219.391C512.391 220.212 512.219 220.935 511.874 221.558C511.537 222.174 511.079 222.687 510.499 223.098C509.92 223.509 509.256 223.817 508.508 224.022C507.768 224.227 506.99 224.33 506.176 224.33ZM517.643 219.699C517.643 219.193 517.691 218.705 517.786 218.236C517.889 217.759 518.054 217.319 518.281 216.916C518.479 216.527 518.699 216.219 518.941 215.992C519.183 215.757 519.455 215.526 519.755 215.299C520.056 215.064 520.39 214.753 520.756 214.364C521.057 214.034 521.255 213.708 521.35 213.385C521.446 213.055 521.493 212.703 521.493 212.329C521.493 212.087 521.468 211.86 521.416 211.647C521.365 211.434 521.273 211.251 521.141 211.097C520.936 210.826 520.672 210.635 520.349 210.525C520.027 210.408 519.682 210.349 519.315 210.349C519.015 210.349 518.725 210.389 518.446 210.47C518.175 210.543 517.944 210.661 517.753 210.822C517.533 210.998 517.372 211.214 517.269 211.471C517.167 211.728 517.119 212.01 517.126 212.318H514.332C514.406 211.585 514.604 210.906 514.926 210.283C515.256 209.652 515.689 209.15 516.224 208.776C516.642 208.468 517.112 208.237 517.632 208.083C518.16 207.929 518.688 207.852 519.216 207.852C520.023 207.852 520.782 207.977 521.493 208.226C522.212 208.475 522.81 208.886 523.286 209.458C523.616 209.832 523.866 210.265 524.034 210.756C524.21 211.247 524.298 211.746 524.298 212.252C524.298 213.007 524.133 213.697 523.803 214.32C523.481 214.943 523.07 215.519 522.571 216.047C522.337 216.296 522.113 216.516 521.9 216.707C521.688 216.898 521.49 217.085 521.306 217.268C521.13 217.444 520.984 217.631 520.866 217.829C520.661 218.174 520.54 218.467 520.503 218.709C520.467 218.944 520.448 219.274 520.448 219.699H517.643ZM517.665 224V221.085H520.448V224H517.665Z" fill="white"></path> <rect x="20" y="20" width="127" height="40" rx="20" fill="white" fill-opacity="0.3"></rect> <path d="M33.5028 46V34.48H38.0548C38.1668 34.48 38.3001 34.4853 38.4548 34.496C38.6095 34.5013 38.7588 34.5173 38.9028 34.544C39.5268 34.64 40.0495 34.8533 40.4708 35.184C40.8975 35.5147 41.2175 35.9333 41.4308 36.44C41.6441 36.9413 41.7508 37.4987 41.7508 38.112C41.7508 38.72 41.6415 39.2773 41.4228 39.784C41.2095 40.2853 40.8895 40.704 40.4628 41.04C40.0415 41.3707 39.5215 41.584 38.9028 41.68C38.7588 41.7013 38.6095 41.7173 38.4548 41.728C38.3001 41.7387 38.1668 41.744 38.0548 41.744H34.9268V46H33.5028ZM34.9268 40.392H38.0068C38.1081 40.392 38.2228 40.3867 38.3508 40.376C38.4841 40.3653 38.6095 40.3467 38.7268 40.32C39.0948 40.2347 39.3935 40.08 39.6228 39.856C39.8575 39.6267 40.0281 39.36 40.1348 39.056C40.2415 38.7467 40.2948 38.432 40.2948 38.112C40.2948 37.792 40.2415 37.48 40.1348 37.176C40.0281 36.8667 39.8575 36.5973 39.6228 36.368C39.3935 36.1387 39.0948 35.984 38.7268 35.904C38.6095 35.872 38.4841 35.8533 38.3508 35.848C38.2228 35.8373 38.1081 35.832 38.0068 35.832H34.9268V40.392ZM47.4346 46.24C46.6186 46.24 45.8826 46.1013 45.2266 45.824C44.5759 45.5467 44.0372 45.152 43.6106 44.64C43.1892 44.1227 42.9146 43.512 42.7866 42.808L44.2586 42.576C44.4452 43.3013 44.8319 43.8693 45.4186 44.28C46.0106 44.6853 46.7066 44.888 47.5066 44.888C48.0239 44.888 48.4906 44.808 48.9066 44.648C49.3279 44.4827 49.6612 44.248 49.9066 43.944C50.1519 43.64 50.2746 43.28 50.2746 42.864C50.2746 42.608 50.2292 42.3893 50.1386 42.208C50.0532 42.0213 49.9332 41.864 49.7786 41.736C49.6292 41.6027 49.4586 41.4907 49.2666 41.4C49.0746 41.3093 48.8746 41.2347 48.6666 41.176L45.7306 40.304C45.4106 40.208 45.1012 40.088 44.8026 39.944C44.5039 39.7947 44.2372 39.6107 44.0026 39.392C43.7679 39.168 43.5812 38.9013 43.4426 38.592C43.3039 38.2773 43.2346 37.9067 43.2346 37.48C43.2346 36.7973 43.4106 36.216 43.7626 35.736C44.1199 35.2507 44.6026 34.88 45.2106 34.624C45.8186 34.368 46.5039 34.2427 47.2666 34.248C48.0399 34.2533 48.7306 34.392 49.3386 34.664C49.9519 34.9307 50.4586 35.3147 50.8586 35.816C51.2639 36.3173 51.5359 36.9173 51.6746 37.616L50.1626 37.88C50.0826 37.4107 49.9039 37.008 49.6266 36.672C49.3546 36.3307 49.0132 36.0693 48.6026 35.888C48.1919 35.7013 47.7412 35.6053 47.2506 35.6C46.7812 35.5947 46.3572 35.6693 45.9786 35.824C45.5999 35.9787 45.2986 36.1947 45.0746 36.472C44.8506 36.744 44.7386 37.0587 44.7386 37.416C44.7386 37.768 44.8399 38.0533 45.0426 38.272C45.2452 38.4853 45.4932 38.656 45.7866 38.784C46.0852 38.9067 46.3759 39.008 46.6586 39.088L48.8506 39.72C49.1012 39.7893 49.3892 39.8853 49.7146 40.008C50.0452 40.1307 50.3652 40.304 50.6746 40.528C50.9839 40.7467 51.2399 41.04 51.4426 41.408C51.6452 41.7707 51.7466 42.2293 51.7466 42.784C51.7466 43.3387 51.6346 43.832 51.4106 44.264C51.1919 44.696 50.8852 45.0587 50.4906 45.352C50.0959 45.64 49.6372 45.8587 49.1146 46.008C48.5919 46.1627 48.0319 46.24 47.4346 46.24ZM55.7003 46V41.208L51.8203 34.48H53.4763L56.4203 39.576L59.3563 34.48H61.0123L57.1403 41.208V46H55.7003ZM66.2232 46.24C65.0765 46.24 64.1032 45.9867 63.3032 45.48C62.5032 44.9733 61.8925 44.2693 61.4712 43.368C61.0552 42.4667 60.8472 41.424 60.8472 40.24C60.8472 39.056 61.0552 38.0133 61.4712 37.112C61.8925 36.2107 62.5032 35.5067 63.3032 35C64.1032 34.4933 65.0765 34.24 66.2232 34.24C67.5565 34.24 68.6525 34.5787 69.5112 35.256C70.3752 35.9333 70.9699 36.8453 71.2952 37.992L69.8472 38.376C69.6125 37.5173 69.1939 36.84 68.5912 36.344C67.9885 35.848 67.1992 35.6 66.2232 35.6C65.3645 35.6 64.6499 35.7947 64.0792 36.184C63.5085 36.5733 63.0792 37.1173 62.7912 37.816C62.5032 38.5093 62.3565 39.3173 62.3512 40.24C62.3459 41.1573 62.4872 41.9653 62.7752 42.664C63.0632 43.3573 63.4952 43.9013 64.0712 44.296C64.6472 44.6853 65.3645 44.88 66.2232 44.88C67.1992 44.88 67.9885 44.632 68.5912 44.136C69.1939 43.6347 69.6125 42.9573 69.8472 42.104L71.2952 42.488C70.9699 43.6293 70.3752 44.5413 69.5112 45.224C68.6525 45.9013 67.5565 46.24 66.2232 46.24ZM73.0497 46V34.48H74.4737V39.56H80.5377V34.48H81.9617V46H80.5377V40.912H74.4737V46H73.0497ZM88.9419 46.24C87.7953 46.24 86.8219 45.9867 86.0219 45.48C85.2219 44.9733 84.6113 44.2693 84.1899 43.368C83.7739 42.4667 83.5659 41.424 83.5659 40.24C83.5659 39.056 83.7739 38.0133 84.1899 37.112C84.6113 36.2107 85.2219 35.5067 86.0219 35C86.8219 34.4933 87.7953 34.24 88.9419 34.24C90.0939 34.24 91.0699 34.4933 91.8699 35C92.6699 35.5067 93.2779 36.2107 93.6939 37.112C94.1099 38.0133 94.3179 39.056 94.3179 40.24C94.3179 41.424 94.1099 42.4667 93.6939 43.368C93.2779 44.2693 92.6699 44.9733 91.8699 45.48C91.0699 45.9867 90.0939 46.24 88.9419 46.24ZM88.9419 44.88C89.8006 44.8853 90.5153 44.6933 91.0859 44.304C91.6619 43.9093 92.0913 43.3627 92.3739 42.664C92.6619 41.9653 92.8059 41.1573 92.8059 40.24C92.8059 39.3173 92.6619 38.5093 92.3739 37.816C92.0913 37.1227 91.6619 36.5813 91.0859 36.192C90.5153 35.8027 89.8006 35.6053 88.9419 35.6C88.0833 35.5947 87.3686 35.7867 86.7979 36.176C86.2326 36.5653 85.8059 37.1093 85.5179 37.808C85.2299 38.5067 85.0833 39.3173 85.0779 40.24C85.0726 41.1573 85.2139 41.9627 85.5019 42.656C85.7899 43.3493 86.2193 43.8933 86.7899 44.288C87.3659 44.6773 88.0833 44.8747 88.9419 44.88ZM96.0847 46V34.48H97.5087V44.648H102.853V46H96.0847ZM108.629 46.24C107.483 46.24 106.509 45.9867 105.709 45.48C104.909 44.9733 104.299 44.2693 103.877 43.368C103.461 42.4667 103.253 41.424 103.253 40.24C103.253 39.056 103.461 38.0133 103.877 37.112C104.299 36.2107 104.909 35.5067 105.709 35C106.509 34.4933 107.483 34.24 108.629 34.24C109.781 34.24 110.757 34.4933 111.557 35C112.357 35.5067 112.965 36.2107 113.381 37.112C113.797 38.0133 114.005 39.056 114.005 40.24C114.005 41.424 113.797 42.4667 113.381 43.368C112.965 44.2693 112.357 44.9733 111.557 45.48C110.757 45.9867 109.781 46.24 108.629 46.24ZM108.629 44.88C109.488 44.8853 110.203 44.6933 110.773 44.304C111.349 43.9093 111.779 43.3627 112.061 42.664C112.349 41.9653 112.493 41.1573 112.493 40.24C112.493 39.3173 112.349 38.5093 112.061 37.816C111.779 37.1227 111.349 36.5813 110.773 36.192C110.203 35.8027 109.488 35.6053 108.629 35.6C107.771 35.5947 107.056 35.7867 106.485 36.176C105.92 36.5653 105.493 37.1093 105.205 37.808C104.917 38.5067 104.771 39.3173 104.765 40.24C104.76 41.1573 104.901 41.9627 105.189 42.656C105.477 43.3493 105.907 43.8933 106.477 44.288C107.053 44.6773 107.771 44.8747 108.629 44.88ZM120.276 46.24C119.487 46.24 118.767 46.1013 118.116 45.824C117.466 45.5467 116.906 45.1493 116.436 44.632C115.967 44.1093 115.604 43.48 115.348 42.744C115.098 42.0027 114.972 41.168 114.972 40.24C114.972 39.0133 115.191 37.952 115.628 37.056C116.066 36.16 116.682 35.4693 117.476 34.984C118.271 34.4933 119.204 34.248 120.276 34.248C121.567 34.248 122.607 34.5493 123.396 35.152C124.186 35.7493 124.73 36.568 125.028 37.608L123.588 37.904C123.348 37.2053 122.954 36.648 122.404 36.232C121.855 35.816 121.17 35.608 120.348 35.608C119.49 35.6027 118.775 35.7947 118.204 36.184C117.639 36.568 117.212 37.1093 116.924 37.808C116.636 38.5067 116.49 39.3173 116.484 40.24C116.479 41.1573 116.62 41.9627 116.908 42.656C117.196 43.3493 117.626 43.8933 118.196 44.288C118.772 44.6773 119.49 44.8747 120.348 44.88C121.09 44.8853 121.714 44.744 122.22 44.456C122.727 44.168 123.119 43.752 123.396 43.208C123.674 42.664 123.842 42.0107 123.9 41.248H121.452V40.072H125.404C125.42 40.1787 125.428 40.3067 125.428 40.456C125.434 40.6 125.436 40.6987 125.436 40.752C125.436 41.8027 125.239 42.744 124.844 43.576C124.455 44.4027 123.876 45.0533 123.108 45.528C122.346 46.0027 121.402 46.24 120.276 46.24ZM129.31 46V41.208L125.43 34.48H127.086L130.03 39.576L132.966 34.48H134.622L130.75 41.208V46H129.31Z" fill="white"></path> <defs> <linearGradient id="paint0_linear_136_285" x1="300" y1="0" x2="300" y2="400" gradientUnits="userSpaceOnUse"> <stop stop-color="#2DBDE8"></stop> <stop offset="1" stop-color="#0070A5"></stop> </linearGradient> </defs> </svg> 