<?xml version="1.0" encoding="UTF-8"?> <svg xmlns="http://www.w3.org/2000/svg" width="600" height="400" viewBox="0 0 600 400" fill="none"> <rect width="600" height="400" rx="20" fill="url(#paint0_linear_160_105)"></rect> <path d="M120.915 193V177.16H123.566V193H120.915ZM132.724 193.33C131.566 193.33 130.521 193.128 129.589 192.725C128.665 192.322 127.903 191.746 127.301 190.998C126.707 190.243 126.33 189.348 126.168 188.314L128.918 187.896C129.153 188.835 129.633 189.561 130.359 190.074C131.093 190.587 131.936 190.844 132.889 190.844C133.454 190.844 133.986 190.756 134.484 190.58C134.983 190.404 135.386 190.147 135.694 189.81C136.01 189.473 136.167 189.058 136.167 188.567C136.167 188.347 136.131 188.145 136.057 187.962C135.984 187.771 135.874 187.603 135.727 187.456C135.588 187.309 135.405 187.177 135.177 187.06C134.957 186.935 134.701 186.829 134.407 186.741L130.315 185.531C129.963 185.428 129.582 185.293 129.171 185.124C128.768 184.948 128.383 184.71 128.016 184.409C127.657 184.101 127.36 183.712 127.125 183.243C126.898 182.766 126.784 182.18 126.784 181.483C126.784 180.464 127.041 179.609 127.554 178.92C128.075 178.223 128.772 177.703 129.644 177.358C130.524 177.013 131.5 176.845 132.57 176.852C133.656 176.859 134.624 177.046 135.474 177.413C136.325 177.772 137.036 178.297 137.608 178.986C138.18 179.675 138.584 180.508 138.818 181.483L135.969 181.978C135.852 181.421 135.625 180.948 135.287 180.559C134.957 180.163 134.55 179.862 134.066 179.657C133.59 179.452 133.08 179.342 132.537 179.327C132.009 179.32 131.518 179.4 131.063 179.569C130.616 179.73 130.253 179.965 129.974 180.273C129.703 180.581 129.567 180.94 129.567 181.351C129.567 181.74 129.685 182.059 129.919 182.308C130.154 182.55 130.444 182.744 130.788 182.891C131.14 183.03 131.496 183.148 131.855 183.243L134.693 184.035C135.082 184.138 135.518 184.277 136.002 184.453C136.486 184.629 136.952 184.875 137.399 185.19C137.847 185.505 138.213 185.92 138.499 186.433C138.793 186.946 138.939 187.599 138.939 188.391C138.939 189.212 138.767 189.935 138.422 190.558C138.085 191.174 137.627 191.687 137.047 192.098C136.468 192.509 135.804 192.817 135.056 193.022C134.316 193.227 133.538 193.33 132.724 193.33ZM145.945 193V177.16H148.596V193H145.945ZM155.697 193V179.646H150.571V177.16H163.474V179.646H158.348V193H155.697ZM168.971 193V177.16H179.201V179.646H171.622V183.551H177.881V186.037H171.622V190.514H179.201V193H168.971ZM180.74 193L185.734 177.16H189.617L194.611 193H191.883L187.351 178.788H187.945L183.468 193H180.74ZM183.523 189.568V187.093H191.839V189.568H183.523ZM202.033 193.33C200.874 193.33 199.829 193.128 198.898 192.725C197.974 192.322 197.211 191.746 196.61 190.998C196.016 190.243 195.638 189.348 195.477 188.314L198.227 187.896C198.462 188.835 198.942 189.561 199.668 190.074C200.401 190.587 201.245 190.844 202.198 190.844C202.763 190.844 203.294 190.756 203.793 190.58C204.292 190.404 204.695 190.147 205.003 189.81C205.318 189.473 205.476 189.058 205.476 188.567C205.476 188.347 205.439 188.145 205.366 187.962C205.293 187.771 205.183 187.603 205.036 187.456C204.897 187.309 204.713 187.177 204.486 187.06C204.266 186.935 204.009 186.829 203.716 186.741L199.624 185.531C199.272 185.428 198.891 185.293 198.48 185.124C198.077 184.948 197.692 184.71 197.325 184.409C196.966 184.101 196.669 183.712 196.434 183.243C196.207 182.766 196.093 182.18 196.093 181.483C196.093 180.464 196.35 179.609 196.863 178.92C197.384 178.223 198.08 177.703 198.953 177.358C199.833 177.013 200.808 176.845 201.879 176.852C202.964 176.859 203.932 177.046 204.783 177.413C205.634 177.772 206.345 178.297 206.917 178.986C207.489 179.675 207.892 180.508 208.127 181.483L205.278 181.978C205.161 181.421 204.933 180.948 204.596 180.559C204.266 180.163 203.859 179.862 203.375 179.657C202.898 179.452 202.389 179.342 201.846 179.327C201.318 179.32 200.827 179.4 200.372 179.569C199.925 179.73 199.562 179.965 199.283 180.273C199.012 180.581 198.876 180.94 198.876 181.351C198.876 181.74 198.993 182.059 199.228 182.308C199.463 182.55 199.752 182.744 200.097 182.891C200.449 183.03 200.805 183.148 201.164 183.243L204.002 184.035C204.391 184.138 204.827 184.277 205.311 184.453C205.795 184.629 206.261 184.875 206.708 185.19C207.155 185.505 207.522 185.92 207.808 186.433C208.101 186.946 208.248 187.599 208.248 188.391C208.248 189.212 208.076 189.935 207.731 190.558C207.394 191.174 206.935 191.687 206.356 192.098C205.777 192.509 205.113 192.817 204.365 193.022C203.624 193.227 202.847 193.33 202.033 193.33ZM213.813 193V186.51L208.423 177.16H211.514L215.155 183.474L218.785 177.16H221.876L216.497 186.51V193H213.813ZM226.936 193V177.16H236.473V179.811H229.587V183.76H235.153V186.4H229.587V193H226.936ZM245.15 193.33C243.566 193.33 242.209 192.985 241.08 192.296C239.951 191.599 239.082 190.631 238.473 189.392C237.872 188.153 237.571 186.715 237.571 185.08C237.571 183.445 237.872 182.007 238.473 180.768C239.082 179.529 239.951 178.564 241.08 177.875C242.209 177.178 243.566 176.83 245.15 176.83C246.734 176.83 248.091 177.178 249.22 177.875C250.357 178.564 251.226 179.529 251.827 180.768C252.436 182.007 252.74 183.445 252.74 185.08C252.74 186.715 252.436 188.153 251.827 189.392C251.226 190.631 250.357 191.599 249.22 192.296C248.091 192.985 246.734 193.33 245.15 193.33ZM245.15 190.833C246.213 190.84 247.097 190.606 247.801 190.129C248.512 189.652 249.044 188.981 249.396 188.116C249.755 187.251 249.935 186.239 249.935 185.08C249.935 183.921 249.755 182.917 249.396 182.066C249.044 181.208 248.512 180.541 247.801 180.064C247.097 179.587 246.213 179.342 245.15 179.327C244.087 179.32 243.203 179.554 242.499 180.031C241.795 180.508 241.263 181.179 240.904 182.044C240.552 182.909 240.376 183.921 240.376 185.08C240.376 186.239 240.552 187.247 240.904 188.105C241.256 188.956 241.784 189.619 242.488 190.096C243.199 190.573 244.087 190.818 245.15 190.833ZM254.93 193V177.16H261.475C261.629 177.16 261.827 177.167 262.069 177.182C262.311 177.189 262.534 177.211 262.74 177.248C263.656 177.387 264.412 177.692 265.006 178.161C265.607 178.63 266.051 179.224 266.337 179.943C266.63 180.654 266.777 181.446 266.777 182.319C266.777 183.61 266.45 184.721 265.798 185.652C265.145 186.576 264.144 187.148 262.795 187.368L261.662 187.467H257.581V193H254.93ZM264.027 193L260.903 186.554L263.598 185.96L267.03 193H264.027ZM257.581 184.992H261.365C261.511 184.992 261.676 184.985 261.86 184.97C262.043 184.955 262.212 184.926 262.366 184.882C262.806 184.772 263.15 184.578 263.4 184.299C263.656 184.02 263.836 183.705 263.939 183.353C264.049 183.001 264.104 182.656 264.104 182.319C264.104 181.982 264.049 181.637 263.939 181.285C263.836 180.926 263.656 180.607 263.4 180.328C263.15 180.049 262.806 179.855 262.366 179.745C262.212 179.701 262.043 179.675 261.86 179.668C261.676 179.653 261.511 179.646 261.365 179.646H257.581V184.992ZM277.707 193V186.51L272.317 177.16H275.408L279.049 183.474L282.679 177.16H285.77L280.391 186.51V193H277.707ZM293.125 193.33C291.541 193.33 290.184 192.985 289.055 192.296C287.925 191.599 287.056 190.631 286.448 189.392C285.846 188.153 285.546 186.715 285.546 185.08C285.546 183.445 285.846 182.007 286.448 180.768C287.056 179.529 287.925 178.564 289.055 177.875C290.184 177.178 291.541 176.83 293.125 176.83C294.709 176.83 296.065 177.178 297.195 177.875C298.331 178.564 299.2 179.529 299.802 180.768C300.41 182.007 300.715 183.445 300.715 185.08C300.715 186.715 300.41 188.153 299.802 189.392C299.2 190.631 298.331 191.599 297.195 192.296C296.065 192.985 294.709 193.33 293.125 193.33ZM293.125 190.833C294.188 190.84 295.072 190.606 295.776 190.129C296.487 189.652 297.019 188.981 297.371 188.116C297.73 187.251 297.91 186.239 297.91 185.08C297.91 183.921 297.73 182.917 297.371 182.066C297.019 181.208 296.487 180.541 295.776 180.064C295.072 179.587 294.188 179.342 293.125 179.327C292.061 179.32 291.178 179.554 290.474 180.031C289.77 180.508 289.238 181.179 288.879 182.044C288.527 182.909 288.351 183.921 288.351 185.08C288.351 186.239 288.527 187.247 288.879 188.105C289.231 188.956 289.759 189.619 290.463 190.096C291.174 190.573 292.061 190.818 293.125 190.833ZM309.284 193.33C308.023 193.33 306.912 193.073 305.951 192.56C304.998 192.047 304.25 191.324 303.707 190.393C303.172 189.462 302.904 188.369 302.904 187.115V177.182L305.588 177.16V187.049C305.588 187.643 305.687 188.175 305.885 188.644C306.091 189.113 306.366 189.513 306.71 189.843C307.055 190.166 307.451 190.411 307.898 190.58C308.346 190.749 308.808 190.833 309.284 190.833C309.776 190.833 310.241 190.749 310.681 190.58C311.129 190.404 311.525 190.155 311.869 189.832C312.214 189.502 312.485 189.102 312.683 188.633C312.881 188.164 312.98 187.636 312.98 187.049V177.16H315.664V187.115C315.664 188.369 315.393 189.462 314.85 190.393C314.315 191.324 313.567 192.047 312.606 192.56C311.653 193.073 310.546 193.33 309.284 193.33ZM326.949 193V179.646H321.823V177.16H334.726V179.646H329.6V193H326.949ZM343.183 193.33C341.599 193.33 340.243 192.985 339.113 192.296C337.984 191.599 337.115 190.631 336.506 189.392C335.905 188.153 335.604 186.715 335.604 185.08C335.604 183.445 335.905 182.007 336.506 180.768C337.115 179.529 337.984 178.564 339.113 177.875C340.243 177.178 341.599 176.83 343.183 176.83C344.767 176.83 346.124 177.178 347.253 177.875C348.39 178.564 349.259 179.529 349.86 180.768C350.469 182.007 350.773 183.445 350.773 185.08C350.773 186.715 350.469 188.153 349.86 189.392C349.259 190.631 348.39 191.599 347.253 192.296C346.124 192.985 344.767 193.33 343.183 193.33ZM343.183 190.833C344.247 190.84 345.13 190.606 345.834 190.129C346.546 189.652 347.077 188.981 347.429 188.116C347.789 187.251 347.968 186.239 347.968 185.08C347.968 183.921 347.789 182.917 347.429 182.066C347.077 181.208 346.546 180.541 345.834 180.064C345.13 179.587 344.247 179.342 343.183 179.327C342.12 179.32 341.236 179.554 340.532 180.031C339.828 180.508 339.297 181.179 338.937 182.044C338.585 182.909 338.409 183.921 338.409 185.08C338.409 186.239 338.585 187.247 338.937 188.105C339.289 188.956 339.817 189.619 340.521 190.096C341.233 190.573 342.12 190.818 343.183 190.833ZM357.367 193V177.16H363.648C364.719 177.16 365.595 177.376 366.277 177.809C366.966 178.234 367.476 178.781 367.806 179.448C368.143 180.115 368.312 180.805 368.312 181.516C368.312 182.389 368.103 183.129 367.685 183.738C367.274 184.347 366.713 184.757 366.002 184.97V184.42C366.999 184.647 367.755 185.12 368.268 185.839C368.789 186.558 369.049 187.375 369.049 188.292C369.049 189.231 368.869 190.052 368.51 190.756C368.151 191.46 367.615 192.01 366.904 192.406C366.2 192.802 365.327 193 364.286 193H357.367ZM360.051 190.503H363.956C364.418 190.503 364.832 190.411 365.199 190.228C365.566 190.037 365.852 189.773 366.057 189.436C366.27 189.091 366.376 188.684 366.376 188.215C366.376 187.79 366.284 187.408 366.101 187.071C365.918 186.734 365.65 186.466 365.298 186.268C364.946 186.063 364.524 185.96 364.033 185.96H360.051V190.503ZM360.051 183.485H363.615C363.996 183.485 364.337 183.412 364.638 183.265C364.939 183.118 365.177 182.902 365.353 182.616C365.529 182.33 365.617 181.978 365.617 181.56C365.617 181.01 365.441 180.552 365.089 180.185C364.737 179.818 364.246 179.635 363.615 179.635H360.051V183.485ZM371.246 193V177.16H381.476V179.646H373.897V183.551H380.156V186.037H373.897V190.514H381.476V193H371.246ZM387.419 193L392.413 177.16H396.296L401.29 193H398.562L394.03 178.788H394.624L390.147 193H387.419ZM390.202 189.568V187.093H398.518V189.568H390.202ZM409.384 193.33C408.357 193.33 407.393 193.15 406.491 192.791C405.596 192.424 404.808 191.889 404.126 191.185C403.451 190.481 402.923 189.619 402.542 188.6C402.16 187.573 401.97 186.4 401.97 185.08C401.97 183.349 402.292 181.872 402.938 180.647C403.583 179.415 404.467 178.473 405.589 177.82C406.711 177.16 407.976 176.83 409.384 176.83C411.334 176.83 412.878 177.285 414.015 178.194C415.159 179.096 415.932 180.365 416.336 182L413.63 182.429C413.329 181.49 412.838 180.742 412.156 180.185C411.474 179.62 410.605 179.338 409.549 179.338C408.485 179.323 407.602 179.554 406.898 180.031C406.194 180.508 405.662 181.179 405.303 182.044C404.951 182.909 404.775 183.921 404.775 185.08C404.775 186.239 404.951 187.247 405.303 188.105C405.655 188.956 406.183 189.619 406.887 190.096C407.598 190.573 408.485 190.818 409.549 190.833C410.348 190.84 411.048 190.697 411.65 190.404C412.251 190.103 412.742 189.652 413.124 189.051C413.505 188.442 413.762 187.683 413.894 186.774H411.1V184.695H416.71C416.724 184.812 416.735 184.985 416.743 185.212C416.75 185.439 416.754 185.575 416.754 185.619C416.754 187.115 416.457 188.446 415.863 189.612C415.276 190.771 414.433 191.68 413.333 192.34C412.233 193 410.916 193.33 409.384 193.33ZM417.433 193L422.427 177.16H426.31L431.304 193H428.576L424.044 178.788H424.638L420.161 193H417.433ZM420.216 189.568V187.093H428.532V189.568H420.216ZM433.513 193V177.16H436.164V193H433.513ZM439.459 193V177.16H442.143L449.491 188.325V177.16H452.175V193H449.491L442.143 181.835V193H439.459ZM461.113 193.33C459.954 193.33 458.909 193.128 457.978 192.725C457.054 192.322 456.291 191.746 455.69 190.998C455.096 190.243 454.718 189.348 454.557 188.314L457.307 187.896C457.542 188.835 458.022 189.561 458.748 190.074C459.481 190.587 460.325 190.844 461.278 190.844C461.843 190.844 462.374 190.756 462.873 190.58C463.372 190.404 463.775 190.147 464.083 189.81C464.398 189.473 464.556 189.058 464.556 188.567C464.556 188.347 464.519 188.145 464.446 187.962C464.373 187.771 464.263 187.603 464.116 187.456C463.977 187.309 463.793 187.177 463.566 187.06C463.346 186.935 463.089 186.829 462.796 186.741L458.704 185.531C458.352 185.428 457.971 185.293 457.56 185.124C457.157 184.948 456.772 184.71 456.405 184.409C456.046 184.101 455.749 183.712 455.514 183.243C455.287 182.766 455.173 182.18 455.173 181.483C455.173 180.464 455.43 179.609 455.943 178.92C456.464 178.223 457.16 177.703 458.033 177.358C458.913 177.013 459.888 176.845 460.959 176.852C462.044 176.859 463.012 177.046 463.863 177.413C464.714 177.772 465.425 178.297 465.997 178.986C466.569 179.675 466.972 180.508 467.207 181.483L464.358 181.978C464.241 181.421 464.013 180.948 463.676 180.559C463.346 180.163 462.939 179.862 462.455 179.657C461.978 179.452 461.469 179.342 460.926 179.327C460.398 179.32 459.907 179.4 459.452 179.569C459.005 179.73 458.642 179.965 458.363 180.273C458.092 180.581 457.956 180.94 457.956 181.351C457.956 181.74 458.073 182.059 458.308 182.308C458.543 182.55 458.832 182.744 459.177 182.891C459.529 183.03 459.885 183.148 460.244 183.243L463.082 184.035C463.471 184.138 463.907 184.277 464.391 184.453C464.875 184.629 465.341 184.875 465.788 185.19C466.235 185.505 466.602 185.92 466.888 186.433C467.181 186.946 467.328 187.599 467.328 188.391C467.328 189.212 467.156 189.935 466.811 190.558C466.474 191.174 466.015 191.687 465.436 192.098C464.857 192.509 464.193 192.817 463.445 193.022C462.704 193.227 461.927 193.33 461.113 193.33ZM473.515 193V179.646H468.389V177.16H481.292V179.646H476.166V193H473.515ZM208.846 224V208.16H215.391C215.545 208.16 215.743 208.167 215.985 208.182C216.227 208.189 216.45 208.211 216.656 208.248C217.572 208.387 218.328 208.692 218.922 209.161C219.523 209.63 219.967 210.224 220.253 210.943C220.546 211.654 220.693 212.446 220.693 213.319C220.693 214.184 220.546 214.976 220.253 215.695C219.959 216.406 219.512 216.997 218.911 217.466C218.317 217.935 217.565 218.24 216.656 218.379C216.45 218.408 216.223 218.43 215.974 218.445C215.732 218.46 215.537 218.467 215.391 218.467H211.497V224H208.846ZM211.497 215.992H215.281C215.427 215.992 215.592 215.985 215.776 215.97C215.959 215.955 216.128 215.926 216.282 215.882C216.722 215.772 217.066 215.578 217.316 215.299C217.572 215.02 217.752 214.705 217.855 214.353C217.965 214.001 218.02 213.656 218.02 213.319C218.02 212.982 217.965 212.637 217.855 212.285C217.752 211.926 217.572 211.607 217.316 211.328C217.066 211.049 216.722 210.855 216.282 210.745C216.128 210.701 215.959 210.675 215.776 210.668C215.592 210.653 215.427 210.646 215.281 210.646H211.497V215.992ZM229.276 224.33C228.015 224.33 226.904 224.073 225.943 223.56C224.99 223.047 224.242 222.324 223.699 221.393C223.164 220.462 222.896 219.369 222.896 218.115V208.182L225.58 208.16V218.049C225.58 218.643 225.679 219.175 225.877 219.644C226.083 220.113 226.358 220.513 226.702 220.843C227.047 221.166 227.443 221.411 227.89 221.58C228.338 221.749 228.8 221.833 229.276 221.833C229.768 221.833 230.233 221.749 230.673 221.58C231.121 221.404 231.517 221.155 231.861 220.832C232.206 220.502 232.477 220.102 232.675 219.633C232.873 219.164 232.972 218.636 232.972 218.049V208.16H235.656V218.115C235.656 219.369 235.385 220.462 234.842 221.393C234.307 222.324 233.559 223.047 232.598 223.56C231.645 224.073 230.538 224.33 229.276 224.33ZM238.73 224V208.16H245.011C246.082 208.16 246.958 208.376 247.64 208.809C248.33 209.234 248.839 209.781 249.169 210.448C249.507 211.115 249.675 211.805 249.675 212.516C249.675 213.389 249.466 214.129 249.048 214.738C248.638 215.347 248.077 215.757 247.365 215.97V215.42C248.363 215.647 249.118 216.12 249.631 216.839C250.152 217.558 250.412 218.375 250.412 219.292C250.412 220.231 250.233 221.052 249.873 221.756C249.514 222.46 248.979 223.01 248.267 223.406C247.563 223.802 246.691 224 245.649 224H238.73ZM241.414 221.503H245.319C245.781 221.503 246.196 221.411 246.562 221.228C246.929 221.037 247.215 220.773 247.42 220.436C247.633 220.091 247.739 219.684 247.739 219.215C247.739 218.79 247.648 218.408 247.464 218.071C247.281 217.734 247.013 217.466 246.661 217.268C246.309 217.063 245.888 216.96 245.396 216.96H241.414V221.503ZM241.414 214.485H244.978C245.36 214.485 245.701 214.412 246.001 214.265C246.302 214.118 246.54 213.902 246.716 213.616C246.892 213.33 246.98 212.978 246.98 212.56C246.98 212.01 246.804 211.552 246.452 211.185C246.1 210.818 245.609 210.635 244.978 210.635H241.414V214.485ZM252.829 224V208.16H255.48V221.514H262.476V224H252.829ZM264.56 224V208.16H267.211V224H264.56ZM277.205 224.33C275.621 224.33 274.264 223.985 273.135 223.296C272.005 222.599 271.136 221.631 270.528 220.392C269.926 219.153 269.626 217.715 269.626 216.08C269.626 214.445 269.926 213.007 270.528 211.768C271.136 210.529 272.005 209.564 273.135 208.875C274.264 208.178 275.621 207.83 277.205 207.83C279.031 207.83 280.552 208.288 281.77 209.205C282.987 210.114 283.841 211.343 284.333 212.89L281.66 213.627C281.352 212.593 280.827 211.786 280.087 211.207C279.346 210.62 278.385 210.327 277.205 210.327C276.141 210.327 275.254 210.565 274.543 211.042C273.839 211.519 273.307 212.19 272.948 213.055C272.596 213.913 272.416 214.921 272.409 216.08C272.409 217.239 272.585 218.251 272.937 219.116C273.296 219.974 273.831 220.641 274.543 221.118C275.254 221.595 276.141 221.833 277.205 221.833C278.385 221.833 279.346 221.54 280.087 220.953C280.827 220.366 281.352 219.56 281.66 218.533L284.333 219.27C283.841 220.817 282.987 222.049 281.77 222.966C280.552 223.875 279.031 224.33 277.205 224.33ZM297.851 224.33C296.267 224.33 294.911 223.985 293.781 223.296C292.652 222.599 291.783 221.631 291.174 220.392C290.573 219.153 290.272 217.715 290.272 216.08C290.272 214.445 290.573 213.007 291.174 211.768C291.783 210.529 292.652 209.564 293.781 208.875C294.911 208.178 296.267 207.83 297.851 207.83C299.435 207.83 300.792 208.178 301.921 208.875C303.058 209.564 303.927 210.529 304.528 211.768C305.137 213.007 305.441 214.445 305.441 216.08C305.441 217.715 305.137 219.153 304.528 220.392C303.927 221.631 303.058 222.599 301.921 223.296C300.792 223.985 299.435 224.33 297.851 224.33ZM297.851 221.833C298.915 221.84 299.798 221.606 300.502 221.129C301.214 220.652 301.745 219.981 302.097 219.116C302.457 218.251 302.636 217.239 302.636 216.08C302.636 214.921 302.457 213.917 302.097 213.066C301.745 212.208 301.214 211.541 300.502 211.064C299.798 210.587 298.915 210.342 297.851 210.327C296.788 210.32 295.904 210.554 295.2 211.031C294.496 211.508 293.965 212.179 293.605 213.044C293.253 213.909 293.077 214.921 293.077 216.08C293.077 217.239 293.253 218.247 293.605 219.105C293.957 219.956 294.485 220.619 295.189 221.096C295.901 221.573 296.788 221.818 297.851 221.833ZM307.631 224V208.16H314.176C314.33 208.16 314.528 208.167 314.77 208.182C315.012 208.189 315.235 208.211 315.441 208.248C316.357 208.387 317.113 208.692 317.707 209.161C318.308 209.63 318.752 210.224 319.038 210.943C319.331 211.654 319.478 212.446 319.478 213.319C319.478 214.184 319.331 214.976 319.038 215.695C318.744 216.406 318.297 216.997 317.696 217.466C317.102 217.935 316.35 218.24 315.441 218.379C315.235 218.408 315.008 218.43 314.759 218.445C314.517 218.46 314.322 218.467 314.176 218.467H310.282V224H307.631ZM310.282 215.992H314.066C314.212 215.992 314.377 215.985 314.561 215.97C314.744 215.955 314.913 215.926 315.067 215.882C315.507 215.772 315.851 215.578 316.101 215.299C316.357 215.02 316.537 214.705 316.64 214.353C316.75 214.001 316.805 213.656 316.805 213.319C316.805 212.982 316.75 212.637 316.64 212.285C316.537 211.926 316.357 211.607 316.101 211.328C315.851 211.049 315.507 210.855 315.067 210.745C314.913 210.701 314.744 210.675 314.561 210.668C314.377 210.653 314.212 210.646 314.066 210.646H310.282V215.992ZM321.902 224V208.16H324.553V224H321.902ZM327.848 224V208.16H330.532L337.88 219.325V208.16H340.564V224H337.88L330.532 212.835V224H327.848ZM343.859 224V208.16H346.51V224H343.859ZM356.504 224.33C354.92 224.33 353.563 223.985 352.434 223.296C351.304 222.599 350.435 221.631 349.827 220.392C349.225 219.153 348.925 217.715 348.925 216.08C348.925 214.445 349.225 213.007 349.827 211.768C350.435 210.529 351.304 209.564 352.434 208.875C353.563 208.178 354.92 207.83 356.504 207.83C358.088 207.83 359.444 208.178 360.574 208.875C361.71 209.564 362.579 210.529 363.181 211.768C363.789 213.007 364.094 214.445 364.094 216.08C364.094 217.715 363.789 219.153 363.181 220.392C362.579 221.631 361.71 222.599 360.574 223.296C359.444 223.985 358.088 224.33 356.504 224.33ZM356.504 221.833C357.567 221.84 358.451 221.606 359.155 221.129C359.866 220.652 360.398 219.981 360.75 219.116C361.109 218.251 361.289 217.239 361.289 216.08C361.289 214.921 361.109 213.917 360.75 213.066C360.398 212.208 359.866 211.541 359.155 211.064C358.451 210.587 357.567 210.342 356.504 210.327C355.44 210.32 354.557 210.554 353.853 211.031C353.149 211.508 352.617 212.179 352.258 213.044C351.906 213.909 351.73 214.921 351.73 216.08C351.73 217.239 351.906 218.247 352.258 219.105C352.61 219.956 353.138 220.619 353.842 221.096C354.553 221.573 355.44 221.818 356.504 221.833ZM366.283 224V208.16H368.967L376.315 219.325V208.16H378.999V224H376.315L368.967 212.835V224H366.283ZM384.945 219.699C384.945 219.193 384.993 218.705 385.088 218.236C385.191 217.759 385.356 217.319 385.583 216.916C385.781 216.527 386.001 216.219 386.243 215.992C386.485 215.757 386.757 215.526 387.057 215.299C387.358 215.064 387.692 214.753 388.058 214.364C388.359 214.034 388.557 213.708 388.652 213.385C388.748 213.055 388.795 212.703 388.795 212.329C388.795 212.087 388.77 211.86 388.718 211.647C388.667 211.434 388.575 211.251 388.443 211.097C388.238 210.826 387.974 210.635 387.651 210.525C387.329 210.408 386.984 210.349 386.617 210.349C386.317 210.349 386.027 210.389 385.748 210.47C385.477 210.543 385.246 210.661 385.055 210.822C384.835 210.998 384.674 211.214 384.571 211.471C384.469 211.728 384.421 212.01 384.428 212.318H381.634C381.708 211.585 381.906 210.906 382.228 210.283C382.558 209.652 382.991 209.15 383.526 208.776C383.944 208.468 384.414 208.237 384.934 208.083C385.462 207.929 385.99 207.852 386.518 207.852C387.325 207.852 388.084 207.977 388.795 208.226C389.514 208.475 390.112 208.886 390.588 209.458C390.918 209.832 391.168 210.265 391.336 210.756C391.512 211.247 391.6 211.746 391.6 212.252C391.6 213.007 391.435 213.697 391.105 214.32C390.783 214.943 390.372 215.519 389.873 216.047C389.639 216.296 389.415 216.516 389.202 216.707C388.99 216.898 388.792 217.085 388.608 217.268C388.432 217.444 388.286 217.631 388.168 217.829C387.963 218.174 387.842 218.467 387.805 218.709C387.769 218.944 387.75 219.274 387.75 219.699H384.945ZM384.967 224V221.085H387.75V224H384.967Z" fill="white"></path> <rect x="20" y="20" width="127" height="40" rx="20" fill="white" fill-opacity="0.3"></rect> <path d="M33.5028 46V34.48H38.0548C38.1668 34.48 38.3001 34.4853 38.4548 34.496C38.6095 34.5013 38.7588 34.5173 38.9028 34.544C39.5268 34.64 40.0495 34.8533 40.4708 35.184C40.8975 35.5147 41.2175 35.9333 41.4308 36.44C41.6441 36.9413 41.7508 37.4987 41.7508 38.112C41.7508 38.72 41.6415 39.2773 41.4228 39.784C41.2095 40.2853 40.8895 40.704 40.4628 41.04C40.0415 41.3707 39.5215 41.584 38.9028 41.68C38.7588 41.7013 38.6095 41.7173 38.4548 41.728C38.3001 41.7387 38.1668 41.744 38.0548 41.744H34.9268V46H33.5028ZM34.9268 40.392H38.0068C38.1081 40.392 38.2228 40.3867 38.3508 40.376C38.4841 40.3653 38.6095 40.3467 38.7268 40.32C39.0948 40.2347 39.3935 40.08 39.6228 39.856C39.8575 39.6267 40.0281 39.36 40.1348 39.056C40.2415 38.7467 40.2948 38.432 40.2948 38.112C40.2948 37.792 40.2415 37.48 40.1348 37.176C40.0281 36.8667 39.8575 36.5973 39.6228 36.368C39.3935 36.1387 39.0948 35.984 38.7268 35.904C38.6095 35.872 38.4841 35.8533 38.3508 35.848C38.2228 35.8373 38.1081 35.832 38.0068 35.832H34.9268V40.392ZM47.4346 46.24C46.6186 46.24 45.8826 46.1013 45.2266 45.824C44.5759 45.5467 44.0372 45.152 43.6106 44.64C43.1892 44.1227 42.9146 43.512 42.7866 42.808L44.2586 42.576C44.4452 43.3013 44.8319 43.8693 45.4186 44.28C46.0106 44.6853 46.7066 44.888 47.5066 44.888C48.0239 44.888 48.4906 44.808 48.9066 44.648C49.3279 44.4827 49.6612 44.248 49.9066 43.944C50.1519 43.64 50.2746 43.28 50.2746 42.864C50.2746 42.608 50.2292 42.3893 50.1386 42.208C50.0532 42.0213 49.9332 41.864 49.7786 41.736C49.6292 41.6027 49.4586 41.4907 49.2666 41.4C49.0746 41.3093 48.8746 41.2347 48.6666 41.176L45.7306 40.304C45.4106 40.208 45.1012 40.088 44.8026 39.944C44.5039 39.7947 44.2372 39.6107 44.0026 39.392C43.7679 39.168 43.5812 38.9013 43.4426 38.592C43.3039 38.2773 43.2346 37.9067 43.2346 37.48C43.2346 36.7973 43.4106 36.216 43.7626 35.736C44.1199 35.2507 44.6026 34.88 45.2106 34.624C45.8186 34.368 46.5039 34.2427 47.2666 34.248C48.0399 34.2533 48.7306 34.392 49.3386 34.664C49.9519 34.9307 50.4586 35.3147 50.8586 35.816C51.2639 36.3173 51.5359 36.9173 51.6746 37.616L50.1626 37.88C50.0826 37.4107 49.9039 37.008 49.6266 36.672C49.3546 36.3307 49.0132 36.0693 48.6026 35.888C48.1919 35.7013 47.7412 35.6053 47.2506 35.6C46.7812 35.5947 46.3572 35.6693 45.9786 35.824C45.5999 35.9787 45.2986 36.1947 45.0746 36.472C44.8506 36.744 44.7386 37.0587 44.7386 37.416C44.7386 37.768 44.8399 38.0533 45.0426 38.272C45.2452 38.4853 45.4932 38.656 45.7866 38.784C46.0852 38.9067 46.3759 39.008 46.6586 39.088L48.8506 39.72C49.1012 39.7893 49.3892 39.8853 49.7146 40.008C50.0452 40.1307 50.3652 40.304 50.6746 40.528C50.9839 40.7467 51.2399 41.04 51.4426 41.408C51.6452 41.7707 51.7466 42.2293 51.7466 42.784C51.7466 43.3387 51.6346 43.832 51.4106 44.264C51.1919 44.696 50.8852 45.0587 50.4906 45.352C50.0959 45.64 49.6372 45.8587 49.1146 46.008C48.5919 46.1627 48.0319 46.24 47.4346 46.24ZM55.7003 46V41.208L51.8203 34.48H53.4763L56.4203 39.576L59.3563 34.48H61.0123L57.1403 41.208V46H55.7003ZM66.2232 46.24C65.0765 46.24 64.1032 45.9867 63.3032 45.48C62.5032 44.9733 61.8925 44.2693 61.4712 43.368C61.0552 42.4667 60.8472 41.424 60.8472 40.24C60.8472 39.056 61.0552 38.0133 61.4712 37.112C61.8925 36.2107 62.5032 35.5067 63.3032 35C64.1032 34.4933 65.0765 34.24 66.2232 34.24C67.5565 34.24 68.6525 34.5787 69.5112 35.256C70.3752 35.9333 70.9699 36.8453 71.2952 37.992L69.8472 38.376C69.6125 37.5173 69.1939 36.84 68.5912 36.344C67.9885 35.848 67.1992 35.6 66.2232 35.6C65.3645 35.6 64.6499 35.7947 64.0792 36.184C63.5085 36.5733 63.0792 37.1173 62.7912 37.816C62.5032 38.5093 62.3565 39.3173 62.3512 40.24C62.3459 41.1573 62.4872 41.9653 62.7752 42.664C63.0632 43.3573 63.4952 43.9013 64.0712 44.296C64.6472 44.6853 65.3645 44.88 66.2232 44.88C67.1992 44.88 67.9885 44.632 68.5912 44.136C69.1939 43.6347 69.6125 42.9573 69.8472 42.104L71.2952 42.488C70.9699 43.6293 70.3752 44.5413 69.5112 45.224C68.6525 45.9013 67.5565 46.24 66.2232 46.24ZM73.0497 46V34.48H74.4737V39.56H80.5377V34.48H81.9617V46H80.5377V40.912H74.4737V46H73.0497ZM88.9419 46.24C87.7953 46.24 86.8219 45.9867 86.0219 45.48C85.2219 44.9733 84.6113 44.2693 84.1899 43.368C83.7739 42.4667 83.5659 41.424 83.5659 40.24C83.5659 39.056 83.7739 38.0133 84.1899 37.112C84.6113 36.2107 85.2219 35.5067 86.0219 35C86.8219 34.4933 87.7953 34.24 88.9419 34.24C90.0939 34.24 91.0699 34.4933 91.8699 35C92.6699 35.5067 93.2779 36.2107 93.6939 37.112C94.1099 38.0133 94.3179 39.056 94.3179 40.24C94.3179 41.424 94.1099 42.4667 93.6939 43.368C93.2779 44.2693 92.6699 44.9733 91.8699 45.48C91.0699 45.9867 90.0939 46.24 88.9419 46.24ZM88.9419 44.88C89.8006 44.8853 90.5153 44.6933 91.0859 44.304C91.6619 43.9093 92.0913 43.3627 92.3739 42.664C92.6619 41.9653 92.8059 41.1573 92.8059 40.24C92.8059 39.3173 92.6619 38.5093 92.3739 37.816C92.0913 37.1227 91.6619 36.5813 91.0859 36.192C90.5153 35.8027 89.8006 35.6053 88.9419 35.6C88.0833 35.5947 87.3686 35.7867 86.7979 36.176C86.2326 36.5653 85.8059 37.1093 85.5179 37.808C85.2299 38.5067 85.0833 39.3173 85.0779 40.24C85.0726 41.1573 85.2139 41.9627 85.5019 42.656C85.7899 43.3493 86.2193 43.8933 86.7899 44.288C87.3659 44.6773 88.0833 44.8747 88.9419 44.88ZM96.0847 46V34.48H97.5087V44.648H102.853V46H96.0847ZM108.629 46.24C107.483 46.24 106.509 45.9867 105.709 45.48C104.909 44.9733 104.299 44.2693 103.877 43.368C103.461 42.4667 103.253 41.424 103.253 40.24C103.253 39.056 103.461 38.0133 103.877 37.112C104.299 36.2107 104.909 35.5067 105.709 35C106.509 34.4933 107.483 34.24 108.629 34.24C109.781 34.24 110.757 34.4933 111.557 35C112.357 35.5067 112.965 36.2107 113.381 37.112C113.797 38.0133 114.005 39.056 114.005 40.24C114.005 41.424 113.797 42.4667 113.381 43.368C112.965 44.2693 112.357 44.9733 111.557 45.48C110.757 45.9867 109.781 46.24 108.629 46.24ZM108.629 44.88C109.488 44.8853 110.203 44.6933 110.773 44.304C111.349 43.9093 111.779 43.3627 112.061 42.664C112.349 41.9653 112.493 41.1573 112.493 40.24C112.493 39.3173 112.349 38.5093 112.061 37.816C111.779 37.1227 111.349 36.5813 110.773 36.192C110.203 35.8027 109.488 35.6053 108.629 35.6C107.771 35.5947 107.056 35.7867 106.485 36.176C105.92 36.5653 105.493 37.1093 105.205 37.808C104.917 38.5067 104.771 39.3173 104.765 40.24C104.76 41.1573 104.901 41.9627 105.189 42.656C105.477 43.3493 105.907 43.8933 106.477 44.288C107.053 44.6773 107.771 44.8747 108.629 44.88ZM120.276 46.24C119.487 46.24 118.767 46.1013 118.116 45.824C117.466 45.5467 116.906 45.1493 116.436 44.632C115.967 44.1093 115.604 43.48 115.348 42.744C115.098 42.0027 114.972 41.168 114.972 40.24C114.972 39.0133 115.191 37.952 115.628 37.056C116.066 36.16 116.682 35.4693 117.476 34.984C118.271 34.4933 119.204 34.248 120.276 34.248C121.567 34.248 122.607 34.5493 123.396 35.152C124.186 35.7493 124.73 36.568 125.028 37.608L123.588 37.904C123.348 37.2053 122.954 36.648 122.404 36.232C121.855 35.816 121.17 35.608 120.348 35.608C119.49 35.6027 118.775 35.7947 118.204 36.184C117.639 36.568 117.212 37.1093 116.924 37.808C116.636 38.5067 116.49 39.3173 116.484 40.24C116.479 41.1573 116.62 41.9627 116.908 42.656C117.196 43.3493 117.626 43.8933 118.196 44.288C118.772 44.6773 119.49 44.8747 120.348 44.88C121.09 44.8853 121.714 44.744 122.22 44.456C122.727 44.168 123.119 43.752 123.396 43.208C123.674 42.664 123.842 42.0107 123.9 41.248H121.452V40.072H125.404C125.42 40.1787 125.428 40.3067 125.428 40.456C125.434 40.6 125.436 40.6987 125.436 40.752C125.436 41.8027 125.239 42.744 124.844 43.576C124.455 44.4027 123.876 45.0533 123.108 45.528C122.346 46.0027 121.402 46.24 120.276 46.24ZM129.31 46V41.208L125.43 34.48H127.086L130.03 39.576L132.966 34.48H134.622L130.75 41.208V46H129.31Z" fill="white"></path> <defs> <linearGradient id="paint0_linear_160_105" x1="300" y1="0" x2="300" y2="400" gradientUnits="userSpaceOnUse"> <stop stop-color="#2DBDE8"></stop> <stop offset="1" stop-color="#0070A5"></stop> </linearGradient> </defs> </svg> 