<?xml version="1.0" encoding="UTF-8"?> <svg xmlns="http://www.w3.org/2000/svg" width="600" height="400" viewBox="0 0 600 400" fill="none"><rect width="600" height="400" rx="20" fill="url(#paint0_linear_136_403)"></rect><path d="M35.1067 177V161.16H37.7577V177H35.1067ZM41.0527 177V161.16H50.5897V163.811H43.7037V167.76H49.2697V170.4H43.7037V177H41.0527ZM60.8226 177V170.51L55.4326 161.16H58.5236L62.1646 167.474L65.7946 161.16H68.8856L63.5066 170.51V177H60.8226ZM76.24 177.33C74.656 177.33 73.2993 176.985 72.17 176.296C71.0406 175.599 70.1716 174.631 69.563 173.392C68.9616 172.153 68.661 170.715 68.661 169.08C68.661 167.445 68.9616 166.007 69.563 164.768C70.1716 163.529 71.0406 162.564 72.17 161.875C73.2993 161.178 74.656 160.83 76.24 160.83C77.824 160.83 79.1806 161.178 80.31 161.875C81.4466 162.564 82.3156 163.529 82.917 164.768C83.5256 166.007 83.83 167.445 83.83 169.08C83.83 170.715 83.5256 172.153 82.917 173.392C82.3156 174.631 81.4466 175.599 80.31 176.296C79.1806 176.985 77.824 177.33 76.24 177.33ZM76.24 174.833C77.3033 174.84 78.187 174.606 78.891 174.129C79.6023 173.652 80.134 172.981 80.486 172.116C80.8453 171.251 81.025 170.239 81.025 169.08C81.025 167.921 80.8453 166.917 80.486 166.066C80.134 165.208 79.6023 164.541 78.891 164.064C78.187 163.587 77.3033 163.342 76.24 163.327C75.1766 163.32 74.293 163.554 73.589 164.031C72.885 164.508 72.3533 165.179 71.994 166.044C71.642 166.909 71.466 167.921 71.466 169.08C71.466 170.239 71.642 171.247 71.994 172.105C72.346 172.956 72.874 173.619 73.578 174.096C74.2893 174.573 75.1766 174.818 76.24 174.833ZM92.3995 177.33C91.1382 177.33 90.0272 177.073 89.0665 176.56C88.1132 176.047 87.3652 175.324 86.8225 174.393C86.2872 173.462 86.0195 172.369 86.0195 171.115V161.182L88.7035 161.16V171.049C88.7035 171.643 88.8025 172.175 89.0005 172.644C89.2058 173.113 89.4808 173.513 89.8255 173.843C90.1702 174.166 90.5662 174.411 91.0135 174.58C91.4608 174.749 91.9228 174.833 92.3995 174.833C92.8908 174.833 93.3565 174.749 93.7965 174.58C94.2438 174.404 94.6398 174.155 94.9845 173.832C95.3292 173.502 95.6005 173.102 95.7985 172.633C95.9965 172.164 96.0955 171.636 96.0955 171.049V161.16H98.7795V171.115C98.7795 172.369 98.5082 173.462 97.9655 174.393C97.4302 175.324 96.6822 176.047 95.7215 176.56C94.7682 177.073 93.6608 177.33 92.3995 177.33ZM112.957 177.33C111.373 177.33 110.016 176.985 108.887 176.296C107.757 175.599 106.888 174.631 106.28 173.392C105.678 172.153 105.378 170.715 105.378 169.08C105.378 167.445 105.678 166.007 106.28 164.768C106.888 163.529 107.757 162.564 108.887 161.875C110.016 161.178 111.373 160.83 112.957 160.83C114.783 160.83 116.304 161.288 117.522 162.205C118.739 163.114 119.593 164.343 120.085 165.89L117.412 166.627C117.104 165.593 116.579 164.786 115.839 164.207C115.098 163.62 114.137 163.327 112.957 163.327C111.893 163.327 111.006 163.565 110.295 164.042C109.591 164.519 109.059 165.19 108.7 166.055C108.348 166.913 108.168 167.921 108.161 169.08C108.161 170.239 108.337 171.251 108.689 172.116C109.048 172.974 109.583 173.641 110.295 174.118C111.006 174.595 111.893 174.833 112.957 174.833C114.137 174.833 115.098 174.54 115.839 173.953C116.579 173.366 117.104 172.56 117.412 171.533L120.085 172.27C119.593 173.817 118.739 175.049 117.522 175.966C116.304 176.875 114.783 177.33 112.957 177.33ZM129.199 177.33C127.615 177.33 126.258 176.985 125.129 176.296C124 175.599 123.131 174.631 122.522 173.392C121.921 172.153 121.62 170.715 121.62 169.08C121.62 167.445 121.921 166.007 122.522 164.768C123.131 163.529 124 162.564 125.129 161.875C126.258 161.178 127.615 160.83 129.199 160.83C130.783 160.83 132.14 161.178 133.269 161.875C134.406 162.564 135.275 163.529 135.876 164.768C136.485 166.007 136.789 167.445 136.789 169.08C136.789 170.715 136.485 172.153 135.876 173.392C135.275 174.631 134.406 175.599 133.269 176.296C132.14 176.985 130.783 177.33 129.199 177.33ZM129.199 174.833C130.262 174.84 131.146 174.606 131.85 174.129C132.561 173.652 133.093 172.981 133.445 172.116C133.804 171.251 133.984 170.239 133.984 169.08C133.984 167.921 133.804 166.917 133.445 166.066C133.093 165.208 132.561 164.541 131.85 164.064C131.146 163.587 130.262 163.342 129.199 163.327C128.136 163.32 127.252 163.554 126.548 164.031C125.844 164.508 125.312 165.179 124.953 166.044C124.601 166.909 124.425 167.921 124.425 169.08C124.425 170.239 124.601 171.247 124.953 172.105C125.305 172.956 125.833 173.619 126.537 174.096C127.248 174.573 128.136 174.818 129.199 174.833ZM145.358 177.33C144.097 177.33 142.986 177.073 142.025 176.56C141.072 176.047 140.324 175.324 139.781 174.393C139.246 173.462 138.978 172.369 138.978 171.115V161.182L141.662 161.16V171.049C141.662 171.643 141.761 172.175 141.959 172.644C142.165 173.113 142.44 173.513 142.784 173.843C143.129 174.166 143.525 174.411 143.972 174.58C144.42 174.749 144.882 174.833 145.358 174.833C145.85 174.833 146.315 174.749 146.755 174.58C147.203 174.404 147.599 174.155 147.943 173.832C148.288 173.502 148.559 173.102 148.757 172.633C148.955 172.164 149.054 171.636 149.054 171.049V161.16H151.738V171.115C151.738 172.369 151.467 173.462 150.924 174.393C150.389 175.324 149.641 176.047 148.68 176.56C147.727 177.073 146.62 177.33 145.358 177.33ZM155.032 177V161.16H157.683V174.514H164.679V177H155.032ZM166.543 177V161.16H171.592C171.724 161.16 171.984 161.164 172.373 161.171C172.769 161.178 173.15 161.204 173.517 161.248C174.771 161.409 175.831 161.857 176.696 162.59C177.569 163.316 178.229 164.244 178.676 165.373C179.123 166.502 179.347 167.738 179.347 169.08C179.347 170.422 179.123 171.658 178.676 172.787C178.229 173.916 177.569 174.848 176.696 175.581C175.831 176.307 174.771 176.751 173.517 176.912C173.158 176.956 172.78 176.982 172.384 176.989C171.988 176.996 171.724 177 171.592 177H166.543ZM169.238 174.503H171.592C171.812 174.503 172.091 174.496 172.428 174.481C172.773 174.466 173.077 174.433 173.341 174.382C174.089 174.243 174.698 173.909 175.167 173.381C175.636 172.853 175.981 172.211 176.201 171.456C176.428 170.701 176.542 169.909 176.542 169.08C176.542 168.222 176.428 167.415 176.201 166.66C175.974 165.905 175.622 165.27 175.145 164.757C174.676 164.244 174.074 163.917 173.341 163.778C173.077 163.719 172.773 163.686 172.428 163.679C172.091 163.664 171.812 163.657 171.592 163.657H169.238V174.503ZM186.352 177V161.16H196.582V163.646H189.003V167.551H195.262V170.037H189.003V174.514H196.582V177H186.352ZM198.121 177L203.115 161.16H206.998L211.992 177H209.264L204.732 162.788H205.326L200.849 177H198.121ZM200.904 173.568V171.093H209.22V173.568H200.904ZM213.98 177V161.16H220.525C220.679 161.16 220.877 161.167 221.119 161.182C221.361 161.189 221.585 161.211 221.79 161.248C222.707 161.387 223.462 161.692 224.056 162.161C224.658 162.63 225.101 163.224 225.387 163.943C225.681 164.654 225.827 165.446 225.827 166.319C225.827 167.61 225.501 168.721 224.848 169.652C224.196 170.576 223.195 171.148 221.845 171.368L220.712 171.467H216.631V177H213.98ZM223.077 177L219.953 170.554L222.648 169.96L226.08 177H223.077ZM216.631 168.992H220.415C220.562 168.992 220.727 168.985 220.91 168.97C221.094 168.955 221.262 168.926 221.416 168.882C221.856 168.772 222.201 168.578 222.45 168.299C222.707 168.02 222.887 167.705 222.989 167.353C223.099 167.001 223.154 166.656 223.154 166.319C223.154 165.982 223.099 165.637 222.989 165.285C222.887 164.926 222.707 164.607 222.45 164.328C222.201 164.049 221.856 163.855 221.416 163.745C221.262 163.701 221.094 163.675 220.91 163.668C220.727 163.653 220.562 163.646 220.415 163.646H216.631V168.992ZM228.504 177V161.16H231.188L238.536 172.325V161.16H241.22V177H238.536L231.188 165.835V177H228.504ZM252.505 177V163.646H247.379V161.16H260.282V163.646H255.156V177H252.505ZM262.041 177V161.16H264.692V167.826H272.194V161.16H274.834V177H272.194V170.312H264.692V177H262.041ZM277.918 177V161.16H288.148V163.646H280.569V167.551H286.828V170.037H280.569V174.514H288.148V177H277.918ZM301.054 177.33C299.896 177.33 298.851 177.128 297.919 176.725C296.995 176.322 296.233 175.746 295.631 174.998C295.037 174.243 294.66 173.348 294.498 172.314L297.248 171.896C297.483 172.835 297.963 173.561 298.689 174.074C299.423 174.587 300.266 174.844 301.219 174.844C301.784 174.844 302.316 174.756 302.814 174.58C303.313 174.404 303.716 174.147 304.024 173.81C304.34 173.473 304.497 173.058 304.497 172.567C304.497 172.347 304.461 172.145 304.387 171.962C304.314 171.771 304.204 171.603 304.057 171.456C303.918 171.309 303.735 171.177 303.507 171.06C303.287 170.935 303.031 170.829 302.737 170.741L298.645 169.531C298.293 169.428 297.912 169.293 297.501 169.124C297.098 168.948 296.713 168.71 296.346 168.409C295.987 168.101 295.69 167.712 295.455 167.243C295.228 166.766 295.114 166.18 295.114 165.483C295.114 164.464 295.371 163.609 295.884 162.92C296.405 162.223 297.102 161.703 297.974 161.358C298.854 161.013 299.83 160.845 300.9 160.852C301.986 160.859 302.954 161.046 303.804 161.413C304.655 161.772 305.366 162.297 305.938 162.986C306.51 163.675 306.914 164.508 307.148 165.483L304.299 165.978C304.182 165.421 303.955 164.948 303.617 164.559C303.287 164.163 302.88 163.862 302.396 163.657C301.92 163.452 301.41 163.342 300.867 163.327C300.339 163.32 299.848 163.4 299.393 163.569C298.946 163.73 298.583 163.965 298.304 164.273C298.033 164.581 297.897 164.94 297.897 165.351C297.897 165.74 298.015 166.059 298.249 166.308C298.484 166.55 298.774 166.744 299.118 166.891C299.47 167.03 299.826 167.148 300.185 167.243L303.023 168.035C303.412 168.138 303.848 168.277 304.332 168.453C304.816 168.629 305.282 168.875 305.729 169.19C306.177 169.505 306.543 169.92 306.829 170.433C307.123 170.946 307.269 171.599 307.269 172.391C307.269 173.212 307.097 173.935 306.752 174.558C306.415 175.174 305.957 175.687 305.377 176.098C304.798 176.509 304.134 176.817 303.386 177.022C302.646 177.227 301.868 177.33 301.054 177.33ZM308.55 177L313.544 161.16H317.427L322.421 177H319.693L315.161 162.788H315.755L311.278 177H308.55ZM311.333 173.568V171.093H319.649V173.568H311.333ZM324.41 177V161.16H326.797L332.275 172.38L337.753 161.16H340.14V177H337.665V166.847L332.803 177H331.747L326.896 166.847V177H324.41ZM343.23 177V161.16H353.46V163.646H345.881V167.551H352.14V170.037H345.881V174.514H353.46V177H343.23ZM359.404 177L364.398 161.16H368.281L373.275 177H370.547L366.015 162.788H366.609L362.132 177H359.404ZM362.187 173.568V171.093H370.503V173.568H362.187ZM375.264 177V161.16H377.651L383.129 172.38L388.607 161.16H390.994V177H388.519V166.847L383.657 177H382.601L377.75 166.847V177H375.264ZM400.783 177.33C399.199 177.33 397.842 176.985 396.713 176.296C395.584 175.599 394.715 174.631 394.106 173.392C393.505 172.153 393.204 170.715 393.204 169.08C393.204 167.445 393.505 166.007 394.106 164.768C394.715 163.529 395.584 162.564 396.713 161.875C397.842 161.178 399.199 160.83 400.783 160.83C402.367 160.83 403.724 161.178 404.853 161.875C405.99 162.564 406.859 163.529 407.46 164.768C408.069 166.007 408.373 167.445 408.373 169.08C408.373 170.715 408.069 172.153 407.46 173.392C406.859 174.631 405.99 175.599 404.853 176.296C403.724 176.985 402.367 177.33 400.783 177.33ZM400.783 174.833C401.846 174.84 402.73 174.606 403.434 174.129C404.145 173.652 404.677 172.981 405.029 172.116C405.388 171.251 405.568 170.239 405.568 169.08C405.568 167.921 405.388 166.917 405.029 166.066C404.677 165.208 404.145 164.541 403.434 164.064C402.73 163.587 401.846 163.342 400.783 163.327C399.72 163.32 398.836 163.554 398.132 164.031C397.428 164.508 396.896 165.179 396.537 166.044C396.185 166.909 396.009 167.921 396.009 169.08C396.009 170.239 396.185 171.247 396.537 172.105C396.889 172.956 397.417 173.619 398.121 174.096C398.832 174.573 399.72 174.818 400.783 174.833ZM416.942 177.33C415.681 177.33 414.57 177.073 413.609 176.56C412.656 176.047 411.908 175.324 411.365 174.393C410.83 173.462 410.562 172.369 410.562 171.115V161.182L413.246 161.16V171.049C413.246 171.643 413.345 172.175 413.543 172.644C413.749 173.113 414.024 173.513 414.368 173.843C414.713 174.166 415.109 174.411 415.556 174.58C416.004 174.749 416.466 174.833 416.942 174.833C417.434 174.833 417.899 174.749 418.339 174.58C418.787 174.404 419.183 174.155 419.527 173.832C419.872 173.502 420.143 173.102 420.341 172.633C420.539 172.164 420.638 171.636 420.638 171.049V161.16H423.322V171.115C423.322 172.369 423.051 173.462 422.508 174.393C421.973 175.324 421.225 176.047 420.264 176.56C419.311 177.073 418.204 177.33 416.942 177.33ZM426.396 177V161.16H429.08L436.428 172.325V161.16H439.112V177H436.428L429.08 165.835V177H426.396ZM445.993 177V163.646H440.867V161.16H453.77V163.646H448.644V177H445.993ZM465.967 177.33C464.383 177.33 463.026 176.985 461.897 176.296C460.767 175.599 459.898 174.631 459.29 173.392C458.688 172.153 458.388 170.715 458.388 169.08C458.388 167.445 458.688 166.007 459.29 164.768C459.898 163.529 460.767 162.564 461.897 161.875C463.026 161.178 464.383 160.83 465.967 160.83C467.551 160.83 468.907 161.178 470.037 161.875C471.173 162.564 472.042 163.529 472.644 164.768C473.252 166.007 473.557 167.445 473.557 169.08C473.557 170.715 473.252 172.153 472.644 173.392C472.042 174.631 471.173 175.599 470.037 176.296C468.907 176.985 467.551 177.33 465.967 177.33ZM465.967 174.833C467.03 174.84 467.914 174.606 468.618 174.129C469.329 173.652 469.861 172.981 470.213 172.116C470.572 171.251 470.752 170.239 470.752 169.08C470.752 167.921 470.572 166.917 470.213 166.066C469.861 165.208 469.329 164.541 468.618 164.064C467.914 163.587 467.03 163.342 465.967 163.327C464.903 163.32 464.02 163.554 463.316 164.031C462.612 164.508 462.08 165.179 461.721 166.044C461.369 166.909 461.193 167.921 461.193 169.08C461.193 170.239 461.369 171.247 461.721 172.105C462.073 172.956 462.601 173.619 463.305 174.096C464.016 174.573 464.903 174.818 465.967 174.833ZM475.746 177V161.16H485.283V163.811H478.397V167.76H483.963V170.4H478.397V177H475.746ZM491.666 177V161.16H494.053L499.531 172.38L505.009 161.16H507.396V177H504.921V166.847L500.059 177H499.003L494.152 166.847V177H491.666ZM517.185 177.33C515.601 177.33 514.245 176.985 513.115 176.296C511.986 175.599 511.117 174.631 510.508 173.392C509.907 172.153 509.606 170.715 509.606 169.08C509.606 167.445 509.907 166.007 510.508 164.768C511.117 163.529 511.986 162.564 513.115 161.875C514.245 161.178 515.601 160.83 517.185 160.83C518.769 160.83 520.126 161.178 521.255 161.875C522.392 162.564 523.261 163.529 523.862 164.768C524.471 166.007 524.775 167.445 524.775 169.08C524.775 170.715 524.471 172.153 523.862 173.392C523.261 174.631 522.392 175.599 521.255 176.296C520.126 176.985 518.769 177.33 517.185 177.33ZM517.185 174.833C518.249 174.84 519.132 174.606 519.836 174.129C520.548 173.652 521.079 172.981 521.431 172.116C521.791 171.251 521.97 170.239 521.97 169.08C521.97 167.921 521.791 166.917 521.431 166.066C521.079 165.208 520.548 164.541 519.836 164.064C519.132 163.587 518.249 163.342 517.185 163.327C516.122 163.32 515.238 163.554 514.534 164.031C513.83 164.508 513.299 165.179 512.939 166.044C512.587 166.909 512.411 167.921 512.411 169.08C512.411 170.239 512.587 171.247 512.939 172.105C513.291 172.956 513.819 173.619 514.523 174.096C515.235 174.573 516.122 174.818 517.185 174.833ZM526.965 177V161.16H529.649L536.997 172.325V161.16H539.681V177H536.997L529.649 165.835V177H526.965ZM542.756 177V161.16H552.986V163.646H545.407V167.551H551.666V170.037H545.407V174.514H552.986V177H542.756ZM559.475 177V170.51L554.085 161.16H557.176L560.817 167.474L564.447 161.16H567.538L562.159 170.51V177H559.475ZM59.5774 208V192.16H62.2284V208H59.5774ZM65.5234 208V192.16H68.2074L75.5554 203.325V192.16H78.2394V208H75.5554L68.2074 196.835V208H65.5234ZM84.6187 208L89.6127 192.16H93.4957L98.4897 208H95.7617L91.2297 193.788H91.8237L87.3467 208H84.6187ZM87.4017 204.568V202.093H95.7177V204.568H87.4017ZM100.478 208V192.16H103.162L110.51 203.325V192.16H113.194V208H110.51L103.162 196.835V208H100.478ZM120.119 208V201.51L114.729 192.16H117.82L121.461 198.474L125.091 192.16H128.182L122.803 201.51V208H120.119ZM133.242 208V192.16H142.779V194.811H135.893V198.76H141.459V201.4H135.893V208H133.242ZM144.978 208V192.16H147.629V208H144.978ZM150.924 208V192.16H161.154V194.646H153.575V198.551H159.834V201.037H153.575V205.514H161.154V208H150.924ZM164.013 208V192.16H166.664V205.514H173.66V208H164.013ZM175.523 208V192.16H180.572C180.704 192.16 180.965 192.164 181.353 192.171C181.749 192.178 182.131 192.204 182.497 192.248C183.751 192.409 184.811 192.857 185.676 193.59C186.549 194.316 187.209 195.244 187.656 196.373C188.104 197.502 188.327 198.738 188.327 200.08C188.327 201.422 188.104 202.658 187.656 203.787C187.209 204.916 186.549 205.848 185.676 206.581C184.811 207.307 183.751 207.751 182.497 207.912C182.138 207.956 181.76 207.982 181.364 207.989C180.968 207.996 180.704 208 180.572 208H175.523ZM178.218 205.503H180.572C180.792 205.503 181.071 205.496 181.408 205.481C181.753 205.466 182.057 205.433 182.321 205.382C183.069 205.243 183.678 204.909 184.147 204.381C184.617 203.853 184.961 203.211 185.181 202.456C185.409 201.701 185.522 200.909 185.522 200.08C185.522 199.222 185.409 198.415 185.181 197.66C184.954 196.905 184.602 196.27 184.125 195.757C183.656 195.244 183.055 194.917 182.321 194.778C182.057 194.719 181.753 194.686 181.408 194.679C181.071 194.664 180.792 194.657 180.572 194.657H178.218V205.503ZM189.612 210.805L189.766 209.661C190.103 209.69 190.371 209.632 190.569 209.485C190.767 209.346 190.899 209.144 190.965 208.88C191.038 208.623 191.057 208.33 191.02 208H189.612V205.173H192.329V208.11C192.329 209.071 192.102 209.797 191.647 210.288C191.192 210.779 190.514 210.952 189.612 210.805ZM204.262 208L199.631 192.16H202.414L205.571 203.6L208.717 192.182L211.5 192.16L214.657 203.6L217.803 192.16H220.586L215.966 208H213.348L210.103 196.736L206.88 208H204.262ZM222.381 208V192.16H225.032V198.826H232.534V192.16H235.174V208H232.534V201.312H225.032V208H222.381ZM238.258 208V192.16H248.488V194.646H240.909V198.551H247.168V201.037H240.909V205.514H248.488V208H238.258ZM251.127 208V192.16H257.672C257.826 192.16 258.024 192.167 258.266 192.182C258.508 192.189 258.732 192.211 258.937 192.248C259.854 192.387 260.609 192.692 261.203 193.161C261.804 193.63 262.248 194.224 262.534 194.943C262.827 195.654 262.974 196.446 262.974 197.319C262.974 198.61 262.648 199.721 261.995 200.652C261.342 201.576 260.341 202.148 258.992 202.368L257.859 202.467H253.778V208H251.127ZM260.224 208L257.1 201.554L259.795 200.96L263.227 208H260.224ZM253.778 199.992H257.562C257.709 199.992 257.874 199.985 258.057 199.97C258.24 199.955 258.409 199.926 258.563 199.882C259.003 199.772 259.348 199.578 259.597 199.299C259.854 199.02 260.033 198.705 260.136 198.353C260.246 198.001 260.301 197.656 260.301 197.319C260.301 196.982 260.246 196.637 260.136 196.285C260.033 195.926 259.854 195.607 259.597 195.328C259.348 195.049 259.003 194.855 258.563 194.745C258.409 194.701 258.24 194.675 258.057 194.668C257.874 194.653 257.709 194.646 257.562 194.646H253.778V199.992ZM265.65 208V192.16H275.88V194.646H268.301V198.551H274.56V201.037H268.301V205.514H275.88V208H265.65ZM286.268 208L281.637 192.16H284.42L287.577 203.6L290.723 192.182L293.506 192.16L296.663 203.6L299.809 192.16H302.592L297.972 208H295.354L292.109 196.736L288.886 208H286.268ZM310.656 208.33C309.072 208.33 307.715 207.985 306.586 207.296C305.457 206.599 304.588 205.631 303.979 204.392C303.378 203.153 303.077 201.715 303.077 200.08C303.077 198.445 303.378 197.007 303.979 195.768C304.588 194.529 305.457 193.564 306.586 192.875C307.715 192.178 309.072 191.83 310.656 191.83C312.24 191.83 313.597 192.178 314.726 192.875C315.863 193.564 316.732 194.529 317.333 195.768C317.942 197.007 318.246 198.445 318.246 200.08C318.246 201.715 317.942 203.153 317.333 204.392C316.732 205.631 315.863 206.599 314.726 207.296C313.597 207.985 312.24 208.33 310.656 208.33ZM310.656 205.833C311.719 205.84 312.603 205.606 313.307 205.129C314.018 204.652 314.55 203.981 314.902 203.116C315.261 202.251 315.441 201.239 315.441 200.08C315.441 198.921 315.261 197.917 314.902 197.066C314.55 196.208 314.018 195.541 313.307 195.064C312.603 194.587 311.719 194.342 310.656 194.327C309.593 194.32 308.709 194.554 308.005 195.031C307.301 195.508 306.769 196.179 306.41 197.044C306.058 197.909 305.882 198.921 305.882 200.08C305.882 201.239 306.058 202.247 306.41 203.105C306.762 203.956 307.29 204.619 307.994 205.096C308.705 205.573 309.593 205.818 310.656 205.833ZM326.816 208.33C325.554 208.33 324.443 208.073 323.483 207.56C322.529 207.047 321.781 206.324 321.239 205.393C320.703 204.462 320.436 203.369 320.436 202.115V192.182L323.12 192.16V202.049C323.12 202.643 323.219 203.175 323.417 203.644C323.622 204.113 323.897 204.513 324.242 204.843C324.586 205.166 324.982 205.411 325.43 205.58C325.877 205.749 326.339 205.833 326.816 205.833C327.307 205.833 327.773 205.749 328.213 205.58C328.66 205.404 329.056 205.155 329.401 204.832C329.745 204.502 330.017 204.102 330.215 203.633C330.413 203.164 330.512 202.636 330.512 202.049V192.16H333.196V202.115C333.196 203.369 332.924 204.462 332.382 205.393C331.846 206.324 331.098 207.047 330.138 207.56C329.184 208.073 328.077 208.33 326.816 208.33ZM336.489 208V192.16H339.14V205.514H346.136V208H336.489ZM348 208V192.16H353.049C353.181 192.16 353.441 192.164 353.83 192.171C354.226 192.178 354.607 192.204 354.974 192.248C356.228 192.409 357.288 192.857 358.153 193.59C359.026 194.316 359.686 195.244 360.133 196.373C360.58 197.502 360.804 198.738 360.804 200.08C360.804 201.422 360.58 202.658 360.133 203.787C359.686 204.916 359.026 205.848 358.153 206.581C357.288 207.307 356.228 207.751 354.974 207.912C354.615 207.956 354.237 207.982 353.841 207.989C353.445 207.996 353.181 208 353.049 208H348ZM350.695 205.503H353.049C353.269 205.503 353.548 205.496 353.885 205.481C354.23 205.466 354.534 205.433 354.798 205.382C355.546 205.243 356.155 204.909 356.624 204.381C357.093 203.853 357.438 203.211 357.658 202.456C357.885 201.701 357.999 200.909 357.999 200.08C357.999 199.222 357.885 198.415 357.658 197.66C357.431 196.905 357.079 196.27 356.602 195.757C356.133 195.244 355.531 194.917 354.798 194.778C354.534 194.719 354.23 194.686 353.885 194.679C353.548 194.664 353.269 194.657 353.049 194.657H350.695V205.503ZM371.659 208V201.51L366.269 192.16H369.36L373.001 198.474L376.631 192.16H379.722L374.343 201.51V208H371.659ZM387.076 208.33C385.492 208.33 384.135 207.985 383.006 207.296C381.877 206.599 381.008 205.631 380.399 204.392C379.798 203.153 379.497 201.715 379.497 200.08C379.497 198.445 379.798 197.007 380.399 195.768C381.008 194.529 381.877 193.564 383.006 192.875C384.135 192.178 385.492 191.83 387.076 191.83C388.66 191.83 390.017 192.178 391.146 192.875C392.283 193.564 393.152 194.529 393.753 195.768C394.362 197.007 394.666 198.445 394.666 200.08C394.666 201.715 394.362 203.153 393.753 204.392C393.152 205.631 392.283 206.599 391.146 207.296C390.017 207.985 388.66 208.33 387.076 208.33ZM387.076 205.833C388.139 205.84 389.023 205.606 389.727 205.129C390.438 204.652 390.97 203.981 391.322 203.116C391.681 202.251 391.861 201.239 391.861 200.08C391.861 198.921 391.681 197.917 391.322 197.066C390.97 196.208 390.438 195.541 389.727 195.064C389.023 194.587 388.139 194.342 387.076 194.327C386.013 194.32 385.129 194.554 384.425 195.031C383.721 195.508 383.189 196.179 382.83 197.044C382.478 197.909 382.302 198.921 382.302 200.08C382.302 201.239 382.478 202.247 382.83 203.105C383.182 203.956 383.71 204.619 384.414 205.096C385.125 205.573 386.013 205.818 387.076 205.833ZM403.235 208.33C401.974 208.33 400.863 208.073 399.902 207.56C398.949 207.047 398.201 206.324 397.658 205.393C397.123 204.462 396.855 203.369 396.855 202.115V192.182L399.539 192.16V202.049C399.539 202.643 399.638 203.175 399.836 203.644C400.042 204.113 400.317 204.513 400.661 204.843C401.006 205.166 401.402 205.411 401.849 205.58C402.297 205.749 402.759 205.833 403.235 205.833C403.727 205.833 404.192 205.749 404.632 205.58C405.08 205.404 405.476 205.155 405.82 204.832C406.165 204.502 406.436 204.102 406.634 203.633C406.832 203.164 406.931 202.636 406.931 202.049V192.16H409.615V202.115C409.615 203.369 409.344 204.462 408.801 205.393C408.266 206.324 407.518 207.047 406.557 207.56C405.604 208.073 404.497 208.33 403.235 208.33ZM423.793 208.33C422.209 208.33 420.852 207.985 419.723 207.296C418.593 206.599 417.724 205.631 417.116 204.392C416.514 203.153 416.214 201.715 416.214 200.08C416.214 198.445 416.514 197.007 417.116 195.768C417.724 194.529 418.593 193.564 419.723 192.875C420.852 192.178 422.209 191.83 423.793 191.83C425.619 191.83 427.14 192.288 428.358 193.205C429.575 194.114 430.429 195.343 430.921 196.89L428.248 197.627C427.94 196.593 427.415 195.786 426.675 195.207C425.934 194.62 424.973 194.327 423.793 194.327C422.729 194.327 421.842 194.565 421.131 195.042C420.427 195.519 419.895 196.19 419.536 197.055C419.184 197.913 419.004 198.921 418.997 200.08C418.997 201.239 419.173 202.251 419.525 203.116C419.884 203.974 420.419 204.641 421.131 205.118C421.842 205.595 422.729 205.833 423.793 205.833C424.973 205.833 425.934 205.54 426.675 204.953C427.415 204.366 427.94 203.56 428.248 202.533L430.921 203.27C430.429 204.817 429.575 206.049 428.358 206.966C427.14 207.875 425.619 208.33 423.793 208.33ZM433.336 208V192.16H435.987V198.826H443.489V192.16H446.129V208H443.489V201.312H435.987V208H433.336ZM455.912 208.33C454.328 208.33 452.971 207.985 451.842 207.296C450.713 206.599 449.844 205.631 449.235 204.392C448.634 203.153 448.333 201.715 448.333 200.08C448.333 198.445 448.634 197.007 449.235 195.768C449.844 194.529 450.713 193.564 451.842 192.875C452.971 192.178 454.328 191.83 455.912 191.83C457.496 191.83 458.853 192.178 459.982 192.875C461.119 193.564 461.988 194.529 462.589 195.768C463.198 197.007 463.502 198.445 463.502 200.08C463.502 201.715 463.198 203.153 462.589 204.392C461.988 205.631 461.119 206.599 459.982 207.296C458.853 207.985 457.496 208.33 455.912 208.33ZM455.912 205.833C456.975 205.84 457.859 205.606 458.563 205.129C459.274 204.652 459.806 203.981 460.158 203.116C460.517 202.251 460.697 201.239 460.697 200.08C460.697 198.921 460.517 197.917 460.158 197.066C459.806 196.208 459.274 195.541 458.563 195.064C457.859 194.587 456.975 194.342 455.912 194.327C454.849 194.32 453.965 194.554 453.261 195.031C452.557 195.508 452.025 196.179 451.666 197.044C451.314 197.909 451.138 198.921 451.138 200.08C451.138 201.239 451.314 202.247 451.666 203.105C452.018 203.956 452.546 204.619 453.25 205.096C453.961 205.573 454.849 205.818 455.912 205.833ZM472.39 208.33C470.806 208.33 469.45 207.985 468.32 207.296C467.191 206.599 466.322 205.631 465.713 204.392C465.112 203.153 464.811 201.715 464.811 200.08C464.811 198.445 465.112 197.007 465.713 195.768C466.322 194.529 467.191 193.564 468.32 192.875C469.45 192.178 470.806 191.83 472.39 191.83C473.974 191.83 475.331 192.178 476.46 192.875C477.597 193.564 478.466 194.529 479.067 195.768C479.676 197.007 479.98 198.445 479.98 200.08C479.98 201.715 479.676 203.153 479.067 204.392C478.466 205.631 477.597 206.599 476.46 207.296C475.331 207.985 473.974 208.33 472.39 208.33ZM472.39 205.833C473.454 205.84 474.337 205.606 475.041 205.129C475.753 204.652 476.284 203.981 476.636 203.116C476.996 202.251 477.175 201.239 477.175 200.08C477.175 198.921 476.996 197.917 476.636 197.066C476.284 196.208 475.753 195.541 475.041 195.064C474.337 194.587 473.454 194.342 472.39 194.327C471.327 194.32 470.443 194.554 469.739 195.031C469.035 195.508 468.504 196.179 468.144 197.044C467.792 197.909 467.616 198.921 467.616 200.08C467.616 201.239 467.792 202.247 468.144 203.105C468.496 203.956 469.024 204.619 469.728 205.096C470.44 205.573 471.327 205.818 472.39 205.833ZM488.033 208.33C486.874 208.33 485.829 208.128 484.898 207.725C483.974 207.322 483.211 206.746 482.61 205.998C482.016 205.243 481.638 204.348 481.477 203.314L484.227 202.896C484.462 203.835 484.942 204.561 485.668 205.074C486.401 205.587 487.245 205.844 488.198 205.844C488.763 205.844 489.294 205.756 489.793 205.58C490.292 205.404 490.695 205.147 491.003 204.81C491.318 204.473 491.476 204.058 491.476 203.567C491.476 203.347 491.439 203.145 491.366 202.962C491.293 202.771 491.183 202.603 491.036 202.456C490.897 202.309 490.713 202.177 490.486 202.06C490.266 201.935 490.009 201.829 489.716 201.741L485.624 200.531C485.272 200.428 484.891 200.293 484.48 200.124C484.077 199.948 483.692 199.71 483.325 199.409C482.966 199.101 482.669 198.712 482.434 198.243C482.207 197.766 482.093 197.18 482.093 196.483C482.093 195.464 482.35 194.609 482.863 193.92C483.384 193.223 484.08 192.703 484.953 192.358C485.833 192.013 486.808 191.845 487.879 191.852C488.964 191.859 489.932 192.046 490.783 192.413C491.634 192.772 492.345 193.297 492.917 193.986C493.489 194.675 493.892 195.508 494.127 196.483L491.278 196.978C491.161 196.421 490.933 195.948 490.596 195.559C490.266 195.163 489.859 194.862 489.375 194.657C488.898 194.452 488.389 194.342 487.846 194.327C487.318 194.32 486.827 194.4 486.372 194.569C485.925 194.73 485.562 194.965 485.283 195.273C485.012 195.581 484.876 195.94 484.876 196.351C484.876 196.74 484.993 197.059 485.228 197.308C485.463 197.55 485.752 197.744 486.097 197.891C486.449 198.03 486.805 198.148 487.164 198.243L490.002 199.035C490.391 199.138 490.827 199.277 491.311 199.453C491.795 199.629 492.261 199.875 492.708 200.19C493.155 200.505 493.522 200.92 493.808 201.433C494.101 201.946 494.248 202.599 494.248 203.391C494.248 204.212 494.076 204.935 493.731 205.558C493.394 206.174 492.935 206.687 492.356 207.098C491.777 207.509 491.113 207.817 490.365 208.022C489.624 208.227 488.847 208.33 488.033 208.33ZM496.629 208V192.16H506.859V194.646H499.28V198.551H505.539V201.037H499.28V205.514H506.859V208H496.629ZM517.708 208V194.646H512.582V192.16H525.485V194.646H520.359V208H517.708ZM533.943 208.33C532.359 208.33 531.002 207.985 529.873 207.296C528.744 206.599 527.875 205.631 527.266 204.392C526.665 203.153 526.364 201.715 526.364 200.08C526.364 198.445 526.665 197.007 527.266 195.768C527.875 194.529 528.744 193.564 529.873 192.875C531.002 192.178 532.359 191.83 533.943 191.83C535.527 191.83 536.884 192.178 538.013 192.875C539.15 193.564 540.019 194.529 540.62 195.768C541.229 197.007 541.533 198.445 541.533 200.08C541.533 201.715 541.229 203.153 540.62 204.392C540.019 205.631 539.15 206.599 538.013 207.296C536.884 207.985 535.527 208.33 533.943 208.33ZM533.943 205.833C535.006 205.84 535.89 205.606 536.594 205.129C537.305 204.652 537.837 203.981 538.189 203.116C538.548 202.251 538.728 201.239 538.728 200.08C538.728 198.921 538.548 197.917 538.189 197.066C537.837 196.208 537.305 195.541 536.594 195.064C535.89 194.587 535.006 194.342 533.943 194.327C532.88 194.32 531.996 194.554 531.292 195.031C530.588 195.508 530.056 196.179 529.697 197.044C529.345 197.909 529.169 198.921 529.169 200.08C529.169 201.239 529.345 202.247 529.697 203.105C530.049 203.956 530.577 204.619 531.281 205.096C531.992 205.573 532.88 205.818 533.943 205.833ZM265.664 239L261.033 223.16H263.816L266.973 234.6L270.119 223.182L272.902 223.16L276.059 234.6L279.205 223.16H281.988L277.368 239H274.75L271.505 227.736L268.282 239H265.664ZM290.052 239.33C288.468 239.33 287.112 238.985 285.982 238.296C284.853 237.599 283.984 236.631 283.375 235.392C282.774 234.153 282.473 232.715 282.473 231.08C282.473 229.445 282.774 228.007 283.375 226.768C283.984 225.529 284.853 224.564 285.982 223.875C287.112 223.178 288.468 222.83 290.052 222.83C291.636 222.83 292.993 223.178 294.122 223.875C295.259 224.564 296.128 225.529 296.729 226.768C297.338 228.007 297.642 229.445 297.642 231.08C297.642 232.715 297.338 234.153 296.729 235.392C296.128 236.631 295.259 237.599 294.122 238.296C292.993 238.985 291.636 239.33 290.052 239.33ZM290.052 236.833C291.116 236.84 291.999 236.606 292.703 236.129C293.415 235.652 293.946 234.981 294.298 234.116C294.658 233.251 294.837 232.239 294.837 231.08C294.837 229.921 294.658 228.917 294.298 228.066C293.946 227.208 293.415 226.541 292.703 226.064C291.999 225.587 291.116 225.342 290.052 225.327C288.989 225.32 288.105 225.554 287.401 226.031C286.697 226.508 286.166 227.179 285.806 228.044C285.454 228.909 285.278 229.921 285.278 231.08C285.278 232.239 285.454 233.247 285.806 234.105C286.158 234.956 286.686 235.619 287.39 236.096C288.102 236.573 288.989 236.818 290.052 236.833ZM299.832 239V223.16H306.377C306.531 223.16 306.729 223.167 306.971 223.182C307.213 223.189 307.437 223.211 307.642 223.248C308.559 223.387 309.314 223.692 309.908 224.161C310.509 224.63 310.953 225.224 311.239 225.943C311.532 226.654 311.679 227.446 311.679 228.319C311.679 229.61 311.353 230.721 310.7 231.652C310.047 232.576 309.046 233.148 307.697 233.368L306.564 233.467H302.483V239H299.832ZM308.929 239L305.805 232.554L308.5 231.96L311.932 239H308.929ZM302.483 230.992H306.267C306.414 230.992 306.579 230.985 306.762 230.97C306.945 230.955 307.114 230.926 307.268 230.882C307.708 230.772 308.053 230.578 308.302 230.299C308.559 230.02 308.738 229.705 308.841 229.353C308.951 229.001 309.006 228.656 309.006 228.319C309.006 227.982 308.951 227.637 308.841 227.285C308.738 226.926 308.559 226.607 308.302 226.328C308.053 226.049 307.708 225.855 307.268 225.745C307.114 225.701 306.945 225.675 306.762 225.668C306.579 225.653 306.414 225.646 306.267 225.646H302.483V230.992ZM314.355 239V223.16H317.006V230.508L323.331 223.16H326.587L319.778 230.926L327.049 239H323.683L317.006 231.608V239H314.355ZM331.471 234.699C331.471 234.193 331.518 233.705 331.614 233.236C331.716 232.759 331.881 232.319 332.109 231.916C332.307 231.527 332.527 231.219 332.769 230.992C333.011 230.757 333.282 230.526 333.583 230.299C333.883 230.064 334.217 229.753 334.584 229.364C334.884 229.034 335.082 228.708 335.178 228.385C335.273 228.055 335.321 227.703 335.321 227.329C335.321 227.087 335.295 226.86 335.244 226.647C335.192 226.434 335.101 226.251 334.969 226.097C334.763 225.826 334.499 225.635 334.177 225.525C333.854 225.408 333.509 225.349 333.143 225.349C332.842 225.349 332.552 225.389 332.274 225.47C332.002 225.543 331.771 225.661 331.581 225.822C331.361 225.998 331.199 226.214 331.097 226.471C330.994 226.728 330.946 227.01 330.954 227.318H328.16C328.233 226.585 328.431 225.906 328.754 225.283C329.084 224.652 329.516 224.15 330.052 223.776C330.47 223.468 330.939 223.237 331.46 223.083C331.988 222.929 332.516 222.852 333.044 222.852C333.85 222.852 334.609 222.977 335.321 223.226C336.039 223.475 336.637 223.886 337.114 224.458C337.444 224.832 337.693 225.265 337.862 225.756C338.038 226.247 338.126 226.746 338.126 227.252C338.126 228.007 337.961 228.697 337.631 229.32C337.308 229.943 336.897 230.519 336.399 231.047C336.164 231.296 335.94 231.516 335.728 231.707C335.515 231.898 335.317 232.085 335.134 232.268C334.958 232.444 334.811 232.631 334.694 232.829C334.488 233.174 334.367 233.467 334.331 233.709C334.294 233.944 334.276 234.274 334.276 234.699H331.471ZM331.493 239V236.085H334.276V239H331.493Z" fill="white"></path><rect x="20" y="20" width="163" height="40" rx="20" fill="white" fill-opacity="0.3"></rect><path d="M33.245 46V34.48H37.733C38.421 34.48 39.0077 34.6213 39.493 34.904C39.9837 35.1867 40.357 35.56 40.613 36.024C40.8743 36.4827 41.005 36.9787 41.005 37.512C41.005 38.136 40.845 38.6827 40.525 39.152C40.205 39.6213 39.773 39.944 39.229 40.12L39.213 39.728C39.9543 39.9253 40.5303 40.288 40.941 40.816C41.3517 41.344 41.557 41.9733 41.557 42.704C41.557 43.376 41.4183 43.9573 41.141 44.448C40.869 44.9387 40.4743 45.32 39.957 45.592C39.445 45.864 38.837 46 38.133 46H33.245ZM34.685 44.64H37.861C38.2877 44.64 38.669 44.5627 39.005 44.408C39.341 44.248 39.605 44.024 39.797 43.736C39.9943 43.448 40.093 43.1013 40.093 42.696C40.093 42.3067 40.005 41.9573 39.829 41.648C39.6583 41.3387 39.4157 41.0933 39.101 40.912C38.7917 40.7253 38.4317 40.632 38.021 40.632H34.685V44.64ZM34.685 39.288H37.717C38.0583 39.288 38.365 39.216 38.637 39.072C38.9143 38.9227 39.133 38.7147 39.293 38.448C39.4583 38.1813 39.541 37.8693 39.541 37.512C39.541 37.016 39.373 36.6107 39.037 36.296C38.701 35.9813 38.261 35.824 37.717 35.824H34.685V39.288ZM47.6953 46.24C46.8046 46.24 46.0179 46.056 45.3353 45.688C44.6526 45.32 44.1166 44.8053 43.7273 44.144C43.3433 43.4773 43.1513 42.696 43.1513 41.8V34.488L44.5913 34.48V41.68C44.5913 42.224 44.6819 42.6987 44.8633 43.104C45.0499 43.504 45.2953 43.8373 45.5993 44.104C45.9033 44.3707 46.2366 44.5707 46.5993 44.704C46.9673 44.832 47.3326 44.896 47.6953 44.896C48.0633 44.896 48.4313 44.8293 48.7993 44.696C49.1673 44.5627 49.5006 44.3653 49.7993 44.104C50.1033 43.8373 50.3459 43.5013 50.5273 43.096C50.7086 42.6907 50.7993 42.2187 50.7993 41.68V34.48H52.2393V41.8C52.2393 42.6907 52.0446 43.4693 51.6553 44.136C51.2713 44.8027 50.7379 45.32 50.0553 45.688C49.3726 46.056 48.5859 46.24 47.6953 46.24ZM58.083 46.24C57.267 46.24 56.531 46.1013 55.875 45.824C55.2243 45.5467 54.6857 45.152 54.259 44.64C53.8377 44.1227 53.563 43.512 53.435 42.808L54.907 42.576C55.0937 43.3013 55.4803 43.8693 56.067 44.28C56.659 44.6853 57.355 44.888 58.155 44.888C58.6723 44.888 59.139 44.808 59.555 44.648C59.9763 44.4827 60.3097 44.248 60.555 43.944C60.8003 43.64 60.923 43.28 60.923 42.864C60.923 42.608 60.8777 42.3893 60.787 42.208C60.7017 42.0213 60.5817 41.864 60.427 41.736C60.2777 41.6027 60.107 41.4907 59.915 41.4C59.723 41.3093 59.523 41.2347 59.315 41.176L56.379 40.304C56.059 40.208 55.7497 40.088 55.451 39.944C55.1523 39.7947 54.8857 39.6107 54.651 39.392C54.4163 39.168 54.2297 38.9013 54.091 38.592C53.9523 38.2773 53.883 37.9067 53.883 37.48C53.883 36.7973 54.059 36.216 54.411 35.736C54.7683 35.2507 55.251 34.88 55.859 34.624C56.467 34.368 57.1523 34.2427 57.915 34.248C58.6883 34.2533 59.379 34.392 59.987 34.664C60.6003 34.9307 61.107 35.3147 61.507 35.816C61.9123 36.3173 62.1843 36.9173 62.323 37.616L60.811 37.88C60.731 37.4107 60.5523 37.008 60.275 36.672C60.003 36.3307 59.6617 36.0693 59.251 35.888C58.8403 35.7013 58.3897 35.6053 57.899 35.6C57.4297 35.5947 57.0057 35.6693 56.627 35.824C56.2483 35.9787 55.947 36.1947 55.723 36.472C55.499 36.744 55.387 37.0587 55.387 37.416C55.387 37.768 55.4883 38.0533 55.691 38.272C55.8937 38.4853 56.1417 38.656 56.435 38.784C56.7337 38.9067 57.0243 39.008 57.307 39.088L59.499 39.72C59.7497 39.7893 60.0377 39.8853 60.363 40.008C60.6937 40.1307 61.0137 40.304 61.323 40.528C61.6323 40.7467 61.8883 41.04 62.091 41.408C62.2937 41.7707 62.395 42.2293 62.395 42.784C62.395 43.3387 62.283 43.832 62.059 44.264C61.8403 44.696 61.5337 45.0587 61.139 45.352C60.7443 45.64 60.2857 45.8587 59.763 46.008C59.2403 46.1627 58.6803 46.24 58.083 46.24ZM64.2331 46V34.48H65.6571V46H64.2331ZM68.0575 46V34.48H69.4975L75.5055 43.48V34.48H76.9455V46H75.5055L69.4975 36.992V46H68.0575ZM79.1825 46V34.48H86.4625V35.832H80.6065V39.44H85.5025V40.792H80.6065V44.648H86.4625V46H79.1825ZM92.1455 46.24C91.3295 46.24 90.5935 46.1013 89.9375 45.824C89.2868 45.5467 88.7482 45.152 88.3215 44.64C87.9002 44.1227 87.6255 43.512 87.4975 42.808L88.9695 42.576C89.1562 43.3013 89.5428 43.8693 90.1295 44.28C90.7215 44.6853 91.4175 44.888 92.2175 44.888C92.7348 44.888 93.2015 44.808 93.6175 44.648C94.0388 44.4827 94.3722 44.248 94.6175 43.944C94.8628 43.64 94.9855 43.28 94.9855 42.864C94.9855 42.608 94.9402 42.3893 94.8495 42.208C94.7642 42.0213 94.6442 41.864 94.4895 41.736C94.3402 41.6027 94.1695 41.4907 93.9775 41.4C93.7855 41.3093 93.5855 41.2347 93.3775 41.176L90.4415 40.304C90.1215 40.208 89.8122 40.088 89.5135 39.944C89.2148 39.7947 88.9482 39.6107 88.7135 39.392C88.4788 39.168 88.2922 38.9013 88.1535 38.592C88.0148 38.2773 87.9455 37.9067 87.9455 37.48C87.9455 36.7973 88.1215 36.216 88.4735 35.736C88.8308 35.2507 89.3135 34.88 89.9215 34.624C90.5295 34.368 91.2148 34.2427 91.9775 34.248C92.7508 34.2533 93.4415 34.392 94.0495 34.664C94.6628 34.9307 95.1695 35.3147 95.5695 35.816C95.9748 36.3173 96.2468 36.9173 96.3855 37.616L94.8735 37.88C94.7935 37.4107 94.6148 37.008 94.3375 36.672C94.0655 36.3307 93.7242 36.0693 93.3135 35.888C92.9028 35.7013 92.4522 35.6053 91.9615 35.6C91.4922 35.5947 91.0682 35.6693 90.6895 35.824C90.3108 35.9787 90.0095 36.1947 89.7855 36.472C89.5615 36.744 89.4495 37.0587 89.4495 37.416C89.4495 37.768 89.5508 38.0533 89.7535 38.272C89.9562 38.4853 90.2042 38.656 90.4975 38.784C90.7962 38.9067 91.0868 39.008 91.3695 39.088L93.5615 39.72C93.8122 39.7893 94.1002 39.8853 94.4255 40.008C94.7562 40.1307 95.0762 40.304 95.3855 40.528C95.6948 40.7467 95.9508 41.04 96.1535 41.408C96.3562 41.7707 96.4575 42.2293 96.4575 42.784C96.4575 43.3387 96.3455 43.832 96.1215 44.264C95.9028 44.696 95.5962 45.0587 95.2015 45.352C94.8068 45.64 94.3482 45.8587 93.8255 46.008C93.3028 46.1627 92.7428 46.24 92.1455 46.24ZM102.458 46.24C101.642 46.24 100.906 46.1013 100.25 45.824C99.5993 45.5467 99.0607 45.152 98.634 44.64C98.2127 44.1227 97.938 43.512 97.81 42.808L99.282 42.576C99.4687 43.3013 99.8553 43.8693 100.442 44.28C101.034 44.6853 101.73 44.888 102.53 44.888C103.047 44.888 103.514 44.808 103.93 44.648C104.351 44.4827 104.685 44.248 104.93 43.944C105.175 43.64 105.298 43.28 105.298 42.864C105.298 42.608 105.253 42.3893 105.162 42.208C105.077 42.0213 104.957 41.864 104.802 41.736C104.653 41.6027 104.482 41.4907 104.29 41.4C104.098 41.3093 103.898 41.2347 103.69 41.176L100.754 40.304C100.434 40.208 100.125 40.088 99.826 39.944C99.5273 39.7947 99.2607 39.6107 99.026 39.392C98.7913 39.168 98.6047 38.9013 98.466 38.592C98.3273 38.2773 98.258 37.9067 98.258 37.48C98.258 36.7973 98.434 36.216 98.786 35.736C99.1433 35.2507 99.626 34.88 100.234 34.624C100.842 34.368 101.527 34.2427 102.29 34.248C103.063 34.2533 103.754 34.392 104.362 34.664C104.975 34.9307 105.482 35.3147 105.882 35.816C106.287 36.3173 106.559 36.9173 106.698 37.616L105.186 37.88C105.106 37.4107 104.927 37.008 104.65 36.672C104.378 36.3307 104.037 36.0693 103.626 35.888C103.215 35.7013 102.765 35.6053 102.274 35.6C101.805 35.5947 101.381 35.6693 101.002 35.824C100.623 35.9787 100.322 36.1947 100.098 36.472C99.874 36.744 99.762 37.0587 99.762 37.416C99.762 37.768 99.8633 38.0533 100.066 38.272C100.269 38.4853 100.517 38.656 100.81 38.784C101.109 38.9067 101.399 39.008 101.682 39.088L103.874 39.72C104.125 39.7893 104.413 39.8853 104.738 40.008C105.069 40.1307 105.389 40.304 105.698 40.528C106.007 40.7467 106.263 41.04 106.466 41.408C106.669 41.7707 106.77 42.2293 106.77 42.784C106.77 43.3387 106.658 43.832 106.434 44.264C106.215 44.696 105.909 45.0587 105.514 45.352C105.119 45.64 104.661 45.8587 104.138 46.008C103.615 46.1627 103.055 46.24 102.458 46.24ZM115.395 46.24C114.755 46.24 114.158 46.1467 113.603 45.96C113.049 45.7733 112.585 45.48 112.211 45.08C111.923 44.76 111.707 44.408 111.563 44.024C111.425 43.6347 111.347 43.224 111.331 42.792C111.331 42.3707 111.393 41.96 111.515 41.56C111.638 41.1547 111.833 40.7947 112.099 40.48C112.238 40.3093 112.393 40.1653 112.563 40.048C112.739 39.9253 112.915 39.8213 113.091 39.736C112.723 39.3413 112.441 38.9707 112.243 38.624C112.051 38.2773 111.955 37.8587 111.955 37.368C111.955 36.744 112.115 36.1813 112.435 35.68C112.761 35.1733 113.203 34.8027 113.763 34.568C114.035 34.4507 114.313 34.3707 114.595 34.328C114.883 34.28 115.163 34.256 115.435 34.256C115.894 34.256 116.339 34.32 116.771 34.448C117.203 34.576 117.571 34.784 117.875 35.072C118.078 35.2427 118.251 35.44 118.395 35.664C118.539 35.8827 118.651 36.112 118.731 36.352L117.339 36.712C117.238 36.44 117.07 36.2107 116.835 36.024C116.649 35.864 116.43 35.7547 116.179 35.696C115.934 35.6373 115.686 35.608 115.435 35.608C115.019 35.608 114.643 35.688 114.307 35.848C114.009 35.992 113.785 36.1947 113.635 36.456C113.486 36.712 113.411 37.016 113.411 37.368C113.411 37.672 113.462 37.9227 113.563 38.12C113.67 38.312 113.817 38.5173 114.003 38.736C114.115 38.8533 114.241 38.9787 114.379 39.112C114.523 39.24 114.67 39.3733 114.819 39.512L118.211 42.664C118.227 42.5307 118.238 42.3947 118.243 42.256C118.249 42.1173 118.251 41.984 118.251 41.856L118.243 40.264H119.547V42.136C119.547 42.5147 119.534 42.8373 119.507 43.104C119.486 43.3707 119.449 43.592 119.395 43.768L120.859 45.12L119.931 46.112L118.715 44.96C118.507 45.1947 118.259 45.4 117.971 45.576C117.683 45.752 117.395 45.8853 117.107 45.976C116.835 46.0773 116.555 46.1467 116.267 46.184C115.979 46.2213 115.689 46.24 115.395 46.24ZM115.427 44.872C115.689 44.872 115.926 44.856 116.139 44.824C116.353 44.792 116.555 44.7307 116.747 44.64C117.003 44.5173 117.201 44.4 117.339 44.288C117.478 44.176 117.593 44.072 117.683 43.976L114.171 40.76C113.979 40.824 113.798 40.9093 113.627 41.016C113.462 41.1227 113.318 41.248 113.195 41.392C113.057 41.5627 112.953 41.7627 112.883 41.992C112.819 42.2213 112.787 42.464 112.787 42.72C112.793 42.992 112.838 43.2427 112.923 43.472C113.009 43.7013 113.129 43.9067 113.283 44.088C113.518 44.36 113.835 44.56 114.235 44.688C114.635 44.8107 115.033 44.872 115.427 44.872ZM127.826 46L124.49 34.48H125.978L128.538 43.592L131.09 34.488L132.586 34.48L135.146 43.592L137.698 34.48H139.194L135.858 46H134.434L131.842 36.968L129.25 46H127.826ZM144.981 46.24C143.834 46.24 142.861 45.9867 142.061 45.48C141.261 44.9733 140.65 44.2693 140.229 43.368C139.813 42.4667 139.605 41.424 139.605 40.24C139.605 39.056 139.813 38.0133 140.229 37.112C140.65 36.2107 141.261 35.5067 142.061 35C142.861 34.4933 143.834 34.24 144.981 34.24C146.133 34.24 147.109 34.4933 147.909 35C148.709 35.5067 149.317 36.2107 149.733 37.112C150.149 38.0133 150.357 39.056 150.357 40.24C150.357 41.424 150.149 42.4667 149.733 43.368C149.317 44.2693 148.709 44.9733 147.909 45.48C147.109 45.9867 146.133 46.24 144.981 46.24ZM144.981 44.88C145.84 44.8853 146.554 44.6933 147.125 44.304C147.701 43.9093 148.13 43.3627 148.413 42.664C148.701 41.9653 148.845 41.1573 148.845 40.24C148.845 39.3173 148.701 38.5093 148.413 37.816C148.13 37.1227 147.701 36.5813 147.125 36.192C146.554 35.8027 145.84 35.6053 144.981 35.6C144.122 35.5947 143.408 35.7867 142.837 36.176C142.272 36.5653 141.845 37.1093 141.557 37.808C141.269 38.5067 141.122 39.3173 141.117 40.24C141.112 41.1573 141.253 41.9627 141.541 42.656C141.829 43.3493 142.258 43.8933 142.829 44.288C143.405 44.6773 144.122 44.8747 144.981 44.88ZM151.964 46V34.48H156.516C156.628 34.48 156.761 34.4853 156.916 34.496C157.07 34.5013 157.22 34.5173 157.364 34.544C157.988 34.64 158.51 34.8533 158.932 35.184C159.358 35.5147 159.678 35.9333 159.892 36.44C160.105 36.9413 160.212 37.4987 160.212 38.112C160.212 39.0027 159.98 39.776 159.516 40.432C159.052 41.0827 158.372 41.4907 157.476 41.656L156.932 41.744H153.388V46H151.964ZM158.82 46L156.548 41.312L157.956 40.88L160.452 46H158.82ZM153.388 40.392H156.468C156.569 40.392 156.684 40.3867 156.812 40.376C156.945 40.3653 157.07 40.3467 157.188 40.32C157.556 40.2347 157.854 40.08 158.084 39.856C158.318 39.6267 158.489 39.36 158.596 39.056C158.702 38.7467 158.756 38.432 158.756 38.112C158.756 37.792 158.702 37.48 158.596 37.176C158.489 36.8667 158.318 36.5973 158.084 36.368C157.854 36.1387 157.556 35.984 157.188 35.904C157.07 35.872 156.945 35.8533 156.812 35.848C156.684 35.8373 156.569 35.832 156.468 35.832H153.388V40.392ZM162.214 46V34.48H163.638V39.888L168.678 34.48H170.47L165.238 40.072L170.878 46H169.038L163.638 40.368V46H162.214Z" fill="white"></path><defs><linearGradient id="paint0_linear_136_403" x1="300" y1="0" x2="300" y2="400" gradientUnits="userSpaceOnUse"><stop stop-color="#41295A"></stop><stop offset="1" stop-color="#2F0743"></stop></linearGradient></defs></svg> 