<?xml version="1.0" encoding="UTF-8"?> <svg xmlns="http://www.w3.org/2000/svg" width="600" height="400" viewBox="0 0 600 400" fill="none"><rect width="600" height="400" rx="20" fill="url(#paint0_linear_160_193)"></rect><path d="M105.128 178L100.497 162.16H103.28L106.437 173.6L109.583 162.182L112.366 162.16L115.523 173.6L118.669 162.16H121.452L116.832 178H114.214L110.969 166.736L107.746 178H105.128ZM123.247 178V162.16H125.898V168.826H133.4V162.16H136.04V178H133.4V171.312H125.898V178H123.247ZM138.024 178L143.018 162.16H146.901L151.895 178H149.167L144.635 163.788H145.229L140.752 178H138.024ZM140.807 174.568V172.093H149.123V174.568H140.807ZM156.379 178V164.646H151.253V162.16H164.156V164.646H159.03V178H156.379ZM169.873 178V162.16H172.524V178H169.873ZM181.682 178.33C180.524 178.33 179.479 178.128 178.547 177.725C177.623 177.322 176.861 176.746 176.259 175.998C175.665 175.243 175.288 174.348 175.126 173.314L177.876 172.896C178.111 173.835 178.591 174.561 179.317 175.074C180.051 175.587 180.894 175.844 181.847 175.844C182.412 175.844 182.944 175.756 183.442 175.58C183.941 175.404 184.344 175.147 184.652 174.81C184.968 174.473 185.125 174.058 185.125 173.567C185.125 173.347 185.089 173.145 185.015 172.962C184.942 172.771 184.832 172.603 184.685 172.456C184.546 172.309 184.363 172.177 184.135 172.06C183.915 171.935 183.659 171.829 183.365 171.741L179.273 170.531C178.921 170.428 178.54 170.293 178.129 170.124C177.726 169.948 177.341 169.71 176.974 169.409C176.615 169.101 176.318 168.712 176.083 168.243C175.856 167.766 175.742 167.18 175.742 166.483C175.742 165.464 175.999 164.609 176.512 163.92C177.033 163.223 177.73 162.703 178.602 162.358C179.482 162.013 180.458 161.845 181.528 161.852C182.614 161.859 183.582 162.046 184.432 162.413C185.283 162.772 185.994 163.297 186.566 163.986C187.138 164.675 187.542 165.508 187.776 166.483L184.927 166.978C184.81 166.421 184.583 165.948 184.245 165.559C183.915 165.163 183.508 164.862 183.024 164.657C182.548 164.452 182.038 164.342 181.495 164.327C180.967 164.32 180.476 164.4 180.021 164.569C179.574 164.73 179.211 164.965 178.932 165.273C178.661 165.581 178.525 165.94 178.525 166.351C178.525 166.74 178.643 167.059 178.877 167.308C179.112 167.55 179.402 167.744 179.746 167.891C180.098 168.03 180.454 168.148 180.813 168.243L183.651 169.035C184.04 169.138 184.476 169.277 184.96 169.453C185.444 169.629 185.91 169.875 186.357 170.19C186.805 170.505 187.171 170.92 187.457 171.433C187.751 171.946 187.897 172.599 187.897 173.391C187.897 174.212 187.725 174.935 187.38 175.558C187.043 176.174 186.585 176.687 186.005 177.098C185.426 177.509 184.762 177.817 184.014 178.022C183.274 178.227 182.496 178.33 181.682 178.33ZM201.382 178.33C199.798 178.33 198.441 177.985 197.312 177.296C196.182 176.599 195.313 175.631 194.705 174.392C194.103 173.153 193.803 171.715 193.803 170.08C193.803 168.445 194.103 167.007 194.705 165.768C195.313 164.529 196.182 163.564 197.312 162.875C198.441 162.178 199.798 161.83 201.382 161.83C203.208 161.83 204.729 162.288 205.947 163.205C207.164 164.114 208.018 165.343 208.51 166.89L205.837 167.627C205.529 166.593 205.004 165.786 204.264 165.207C203.523 164.62 202.562 164.327 201.382 164.327C200.318 164.327 199.431 164.565 198.72 165.042C198.016 165.519 197.484 166.19 197.125 167.055C196.773 167.913 196.593 168.921 196.586 170.08C196.586 171.239 196.762 172.251 197.114 173.116C197.473 173.974 198.008 174.641 198.72 175.118C199.431 175.595 200.318 175.833 201.382 175.833C202.562 175.833 203.523 175.54 204.264 174.953C205.004 174.366 205.529 173.56 205.837 172.533L208.51 173.27C208.018 174.817 207.164 176.049 205.947 176.966C204.729 177.875 203.208 178.33 201.382 178.33ZM210.925 178V162.16H217.47C217.624 162.16 217.822 162.167 218.064 162.182C218.306 162.189 218.529 162.211 218.735 162.248C219.651 162.387 220.407 162.692 221.001 163.161C221.602 163.63 222.046 164.224 222.332 164.943C222.625 165.654 222.772 166.446 222.772 167.319C222.772 168.61 222.445 169.721 221.793 170.652C221.14 171.576 220.139 172.148 218.79 172.368L217.657 172.467H213.576V178H210.925ZM220.022 178L216.898 171.554L219.593 170.96L223.025 178H220.022ZM213.576 169.992H217.36C217.506 169.992 217.671 169.985 217.855 169.97C218.038 169.955 218.207 169.926 218.361 169.882C218.801 169.772 219.145 169.578 219.395 169.299C219.651 169.02 219.831 168.705 219.934 168.353C220.044 168.001 220.099 167.656 220.099 167.319C220.099 166.982 220.044 166.637 219.934 166.285C219.831 165.926 219.651 165.607 219.395 165.328C219.145 165.049 218.801 164.855 218.361 164.745C218.207 164.701 218.038 164.675 217.855 164.668C217.671 164.653 217.506 164.646 217.36 164.646H213.576V169.992ZM231.828 178.33C230.567 178.33 229.456 178.073 228.495 177.56C227.542 177.047 226.794 176.324 226.251 175.393C225.716 174.462 225.448 173.369 225.448 172.115V162.182L228.132 162.16V172.049C228.132 172.643 228.231 173.175 228.429 173.644C228.635 174.113 228.91 174.513 229.254 174.843C229.599 175.166 229.995 175.411 230.442 175.58C230.89 175.749 231.352 175.833 231.828 175.833C232.32 175.833 232.785 175.749 233.225 175.58C233.673 175.404 234.069 175.155 234.413 174.832C234.758 174.502 235.029 174.102 235.227 173.633C235.425 173.164 235.524 172.636 235.524 172.049V162.16H238.208V172.115C238.208 173.369 237.937 174.462 237.394 175.393C236.859 176.324 236.111 177.047 235.15 177.56C234.197 178.073 233.09 178.33 231.828 178.33ZM247.981 178.33C246.397 178.33 245.041 177.985 243.911 177.296C242.782 176.599 241.913 175.631 241.304 174.392C240.703 173.153 240.402 171.715 240.402 170.08C240.402 168.445 240.703 167.007 241.304 165.768C241.913 164.529 242.782 163.564 243.911 162.875C245.041 162.178 246.397 161.83 247.981 161.83C249.807 161.83 251.329 162.288 252.546 163.205C253.764 164.114 254.618 165.343 255.109 166.89L252.436 167.627C252.128 166.593 251.604 165.786 250.863 165.207C250.123 164.62 249.162 164.327 247.981 164.327C246.918 164.327 246.031 164.565 245.319 165.042C244.615 165.519 244.084 166.19 243.724 167.055C243.372 167.913 243.193 168.921 243.185 170.08C243.185 171.239 243.361 172.251 243.713 173.116C244.073 173.974 244.608 174.641 245.319 175.118C246.031 175.595 246.918 175.833 247.981 175.833C249.162 175.833 250.123 175.54 250.863 174.953C251.604 174.366 252.128 173.56 252.436 172.533L255.109 173.27C254.618 174.817 253.764 176.049 252.546 176.966C251.329 177.875 249.807 178.33 247.981 178.33ZM257.744 178V162.16H260.395V178H257.744ZM262.59 178L267.584 162.16H271.467L276.461 178H273.733L269.201 163.788H269.795L265.318 178H262.59ZM265.373 174.568V172.093H273.689V174.568H265.373ZM278.67 178V162.16H281.321V175.514H288.317V178H278.67ZM293.489 178V162.16H303.026V164.811H296.14V168.76H301.706V171.4H296.14V178H293.489ZM311.704 178.33C310.12 178.33 308.763 177.985 307.634 177.296C306.505 176.599 305.636 175.631 305.027 174.392C304.426 173.153 304.125 171.715 304.125 170.08C304.125 168.445 304.426 167.007 305.027 165.768C305.636 164.529 306.505 163.564 307.634 162.875C308.763 162.178 310.12 161.83 311.704 161.83C313.288 161.83 314.645 162.178 315.774 162.875C316.911 163.564 317.78 164.529 318.381 165.768C318.99 167.007 319.294 168.445 319.294 170.08C319.294 171.715 318.99 173.153 318.381 174.392C317.78 175.631 316.911 176.599 315.774 177.296C314.645 177.985 313.288 178.33 311.704 178.33ZM311.704 175.833C312.767 175.84 313.651 175.606 314.355 175.129C315.066 174.652 315.598 173.981 315.95 173.116C316.309 172.251 316.489 171.239 316.489 170.08C316.489 168.921 316.309 167.917 315.95 167.066C315.598 166.208 315.066 165.541 314.355 165.064C313.651 164.587 312.767 164.342 311.704 164.327C310.641 164.32 309.757 164.554 309.053 165.031C308.349 165.508 307.817 166.179 307.458 167.044C307.106 167.909 306.93 168.921 306.93 170.08C306.93 171.239 307.106 172.247 307.458 173.105C307.81 173.956 308.338 174.619 309.042 175.096C309.753 175.573 310.641 175.818 311.704 175.833ZM321.483 178V162.16H328.028C328.182 162.16 328.38 162.167 328.622 162.182C328.864 162.189 329.088 162.211 329.293 162.248C330.21 162.387 330.965 162.692 331.559 163.161C332.161 163.63 332.604 164.224 332.89 164.943C333.184 165.654 333.33 166.446 333.33 167.319C333.33 168.61 333.004 169.721 332.351 170.652C331.699 171.576 330.698 172.148 329.348 172.368L328.215 172.467H324.134V178H321.483ZM330.58 178L327.456 171.554L330.151 170.96L333.583 178H330.58ZM324.134 169.992H327.918C328.065 169.992 328.23 169.985 328.413 169.97C328.597 169.955 328.765 169.926 328.919 169.882C329.359 169.772 329.704 169.578 329.953 169.299C330.21 169.02 330.39 168.705 330.492 168.353C330.602 168.001 330.657 167.656 330.657 167.319C330.657 166.982 330.602 166.637 330.492 166.285C330.39 165.926 330.21 165.607 329.953 165.328C329.704 165.049 329.359 164.855 328.919 164.745C328.765 164.701 328.597 164.675 328.413 164.668C328.23 164.653 328.065 164.646 327.918 164.646H324.134V169.992ZM339.311 178L344.305 162.16H348.188L353.182 178H350.454L345.922 163.788H346.516L342.039 178H339.311ZM342.094 174.568V172.093H350.41V174.568H342.094ZM365.438 178.33C364.279 178.33 363.234 178.128 362.303 177.725C361.379 177.322 360.616 176.746 360.015 175.998C359.421 175.243 359.043 174.348 358.882 173.314L361.632 172.896C361.867 173.835 362.347 174.561 363.073 175.074C363.806 175.587 364.65 175.844 365.603 175.844C366.168 175.844 366.699 175.756 367.198 175.58C367.697 175.404 368.1 175.147 368.408 174.81C368.723 174.473 368.881 174.058 368.881 173.567C368.881 173.347 368.844 173.145 368.771 172.962C368.698 172.771 368.588 172.603 368.441 172.456C368.302 172.309 368.118 172.177 367.891 172.06C367.671 171.935 367.414 171.829 367.121 171.741L363.029 170.531C362.677 170.428 362.296 170.293 361.885 170.124C361.482 169.948 361.097 169.71 360.73 169.409C360.371 169.101 360.074 168.712 359.839 168.243C359.612 167.766 359.498 167.18 359.498 166.483C359.498 165.464 359.755 164.609 360.268 163.92C360.789 163.223 361.485 162.703 362.358 162.358C363.238 162.013 364.213 161.845 365.284 161.852C366.369 161.859 367.337 162.046 368.188 162.413C369.039 162.772 369.75 163.297 370.322 163.986C370.894 164.675 371.297 165.508 371.532 166.483L368.683 166.978C368.566 166.421 368.338 165.948 368.001 165.559C367.671 165.163 367.264 164.862 366.78 164.657C366.303 164.452 365.794 164.342 365.251 164.327C364.723 164.32 364.232 164.4 363.777 164.569C363.33 164.73 362.967 164.965 362.688 165.273C362.417 165.581 362.281 165.94 362.281 166.351C362.281 166.74 362.398 167.059 362.633 167.308C362.868 167.55 363.157 167.744 363.502 167.891C363.854 168.03 364.21 168.148 364.569 168.243L367.407 169.035C367.796 169.138 368.232 169.277 368.716 169.453C369.2 169.629 369.666 169.875 370.113 170.19C370.56 170.505 370.927 170.92 371.213 171.433C371.506 171.946 371.653 172.599 371.653 173.391C371.653 174.212 371.481 174.935 371.136 175.558C370.799 176.174 370.34 176.687 369.761 177.098C369.182 177.509 368.518 177.817 367.77 178.022C367.029 178.227 366.252 178.33 365.438 178.33ZM380.414 178.33C379.153 178.33 378.042 178.073 377.081 177.56C376.128 177.047 375.38 176.324 374.837 175.393C374.302 174.462 374.034 173.369 374.034 172.115V162.182L376.718 162.16V172.049C376.718 172.643 376.817 173.175 377.015 173.644C377.22 174.113 377.495 174.513 377.84 174.843C378.185 175.166 378.581 175.411 379.028 175.58C379.475 175.749 379.937 175.833 380.414 175.833C380.905 175.833 381.371 175.749 381.811 175.58C382.258 175.404 382.654 175.155 382.999 174.832C383.344 174.502 383.615 174.102 383.813 173.633C384.011 173.164 384.11 172.636 384.11 172.049V162.16H386.794V172.115C386.794 173.369 386.523 174.462 385.98 175.393C385.445 176.324 384.697 177.047 383.736 177.56C382.783 178.073 381.675 178.33 380.414 178.33ZM396.567 178.33C394.983 178.33 393.626 177.985 392.497 177.296C391.368 176.599 390.499 175.631 389.89 174.392C389.289 173.153 388.988 171.715 388.988 170.08C388.988 168.445 389.289 167.007 389.89 165.768C390.499 164.529 391.368 163.564 392.497 162.875C393.626 162.178 394.983 161.83 396.567 161.83C398.393 161.83 399.915 162.288 401.132 163.205C402.349 164.114 403.204 165.343 403.695 166.89L401.022 167.627C400.714 166.593 400.19 165.786 399.449 165.207C398.708 164.62 397.748 164.327 396.567 164.327C395.504 164.327 394.616 164.565 393.905 165.042C393.201 165.519 392.669 166.19 392.31 167.055C391.958 167.913 391.778 168.921 391.771 170.08C391.771 171.239 391.947 172.251 392.299 173.116C392.658 173.974 393.194 174.641 393.905 175.118C394.616 175.595 395.504 175.833 396.567 175.833C397.748 175.833 398.708 175.54 399.449 174.953C400.19 174.366 400.714 173.56 401.022 172.533L403.695 173.27C403.204 174.817 402.349 176.049 401.132 176.966C399.915 177.875 398.393 178.33 396.567 178.33ZM412.809 178.33C411.225 178.33 409.869 177.985 408.739 177.296C407.61 176.599 406.741 175.631 406.132 174.392C405.531 173.153 405.23 171.715 405.23 170.08C405.23 168.445 405.531 167.007 406.132 165.768C406.741 164.529 407.61 163.564 408.739 162.875C409.869 162.178 411.225 161.83 412.809 161.83C414.635 161.83 416.157 162.288 417.374 163.205C418.592 164.114 419.446 165.343 419.937 166.89L417.264 167.627C416.956 166.593 416.432 165.786 415.691 165.207C414.951 164.62 413.99 164.327 412.809 164.327C411.746 164.327 410.859 164.565 410.147 165.042C409.443 165.519 408.912 166.19 408.552 167.055C408.2 167.913 408.021 168.921 408.013 170.08C408.013 171.239 408.189 172.251 408.541 173.116C408.901 173.974 409.436 174.641 410.147 175.118C410.859 175.595 411.746 175.833 412.809 175.833C413.99 175.833 414.951 175.54 415.691 174.953C416.432 174.366 416.956 173.56 417.264 172.533L419.937 173.27C419.446 174.817 418.592 176.049 417.374 176.966C416.157 177.875 414.635 178.33 412.809 178.33ZM422.353 178V162.16H432.583V164.646H425.004V168.551H431.263V171.037H425.004V175.514H432.583V178H422.353ZM440.934 178.33C439.776 178.33 438.731 178.128 437.799 177.725C436.875 177.322 436.113 176.746 435.511 175.998C434.917 175.243 434.54 174.348 434.378 173.314L437.128 172.896C437.363 173.835 437.843 174.561 438.569 175.074C439.303 175.587 440.146 175.844 441.099 175.844C441.664 175.844 442.196 175.756 442.694 175.58C443.193 175.404 443.596 175.147 443.904 174.81C444.22 174.473 444.377 174.058 444.377 173.567C444.377 173.347 444.341 173.145 444.267 172.962C444.194 172.771 444.084 172.603 443.937 172.456C443.798 172.309 443.615 172.177 443.387 172.06C443.167 171.935 442.911 171.829 442.617 171.741L438.525 170.531C438.173 170.428 437.792 170.293 437.381 170.124C436.978 169.948 436.593 169.71 436.226 169.409C435.867 169.101 435.57 168.712 435.335 168.243C435.108 167.766 434.994 167.18 434.994 166.483C434.994 165.464 435.251 164.609 435.764 163.92C436.285 163.223 436.982 162.703 437.854 162.358C438.734 162.013 439.71 161.845 440.78 161.852C441.866 161.859 442.834 162.046 443.684 162.413C444.535 162.772 445.246 163.297 445.818 163.986C446.39 164.675 446.794 165.508 447.028 166.483L444.179 166.978C444.062 166.421 443.835 165.948 443.497 165.559C443.167 165.163 442.76 164.862 442.276 164.657C441.8 164.452 441.29 164.342 440.747 164.327C440.219 164.32 439.728 164.4 439.273 164.569C438.826 164.73 438.463 164.965 438.184 165.273C437.913 165.581 437.777 165.94 437.777 166.351C437.777 166.74 437.895 167.059 438.129 167.308C438.364 167.55 438.654 167.744 438.998 167.891C439.35 168.03 439.706 168.148 440.065 168.243L442.903 169.035C443.292 169.138 443.728 169.277 444.212 169.453C444.696 169.629 445.162 169.875 445.609 170.19C446.057 170.505 446.423 170.92 446.709 171.433C447.003 171.946 447.149 172.599 447.149 173.391C447.149 174.212 446.977 174.935 446.632 175.558C446.295 176.174 445.837 176.687 445.257 177.098C444.678 177.509 444.014 177.817 443.266 178.022C442.526 178.227 441.748 178.33 440.934 178.33ZM455.716 178.33C454.557 178.33 453.512 178.128 452.581 177.725C451.657 177.322 450.894 176.746 450.293 175.998C449.699 175.243 449.321 174.348 449.16 173.314L451.91 172.896C452.144 173.835 452.625 174.561 453.351 175.074C454.084 175.587 454.927 175.844 455.881 175.844C456.445 175.844 456.977 175.756 457.476 175.58C457.974 175.404 458.378 175.147 458.686 174.81C459.001 174.473 459.159 174.058 459.159 173.567C459.159 173.347 459.122 173.145 459.049 172.962C458.975 172.771 458.865 172.603 458.719 172.456C458.579 172.309 458.396 172.177 458.169 172.06C457.949 171.935 457.692 171.829 457.399 171.741L453.307 170.531C452.955 170.428 452.573 170.293 452.163 170.124C451.759 169.948 451.374 169.71 451.008 169.409C450.648 169.101 450.351 168.712 450.117 168.243C449.889 167.766 449.776 167.18 449.776 166.483C449.776 165.464 450.032 164.609 450.546 163.92C451.066 163.223 451.763 162.703 452.636 162.358C453.516 162.013 454.491 161.845 455.562 161.852C456.647 161.859 457.615 162.046 458.466 162.413C459.316 162.772 460.028 163.297 460.6 163.986C461.172 164.675 461.575 165.508 461.81 166.483L458.961 166.978C458.843 166.421 458.616 165.948 458.279 165.559C457.949 165.163 457.542 164.862 457.058 164.657C456.581 164.452 456.071 164.342 455.529 164.327C455.001 164.32 454.509 164.4 454.055 164.569C453.607 164.73 453.244 164.965 452.966 165.273C452.694 165.581 452.559 165.94 452.559 166.351C452.559 166.74 452.676 167.059 452.911 167.308C453.145 167.55 453.435 167.744 453.78 167.891C454.132 168.03 454.487 168.148 454.847 168.243L457.685 169.035C458.073 169.138 458.51 169.277 458.994 169.453C459.478 169.629 459.943 169.875 460.391 170.19C460.838 170.505 461.205 170.92 461.491 171.433C461.784 171.946 461.931 172.599 461.931 173.391C461.931 174.212 461.758 174.935 461.414 175.558C461.076 176.174 460.618 176.687 460.039 177.098C459.459 177.509 458.796 177.817 458.048 178.022C457.307 178.227 456.53 178.33 455.716 178.33ZM464.311 178V162.16H473.848V164.811H466.962V168.76H472.528V171.4H466.962V178H464.311ZM482.207 178.33C480.946 178.33 479.835 178.073 478.874 177.56C477.921 177.047 477.173 176.324 476.63 175.393C476.095 174.462 475.827 173.369 475.827 172.115V162.182L478.511 162.16V172.049C478.511 172.643 478.61 173.175 478.808 173.644C479.013 174.113 479.288 174.513 479.633 174.843C479.978 175.166 480.374 175.411 480.821 175.58C481.268 175.749 481.73 175.833 482.207 175.833C482.698 175.833 483.164 175.749 483.604 175.58C484.051 175.404 484.447 175.155 484.792 174.832C485.137 174.502 485.408 174.102 485.606 173.633C485.804 173.164 485.903 172.636 485.903 172.049V162.16H488.587V172.115C488.587 173.369 488.316 174.462 487.773 175.393C487.238 176.324 486.49 177.047 485.529 177.56C484.576 178.073 483.468 178.33 482.207 178.33ZM491.881 178V162.16H494.532V175.514H501.528V178H491.881ZM70.8574 209V193.16H77.1384C78.209 193.16 79.0854 193.376 79.7674 193.809C80.4567 194.234 80.9664 194.781 81.2964 195.448C81.6337 196.115 81.8024 196.805 81.8024 197.516C81.8024 198.389 81.5934 199.129 81.1754 199.738C80.7647 200.347 80.2037 200.757 79.4924 200.97V200.42C80.4897 200.647 81.2451 201.12 81.7584 201.839C82.279 202.558 82.5394 203.375 82.5394 204.292C82.5394 205.231 82.3597 206.052 82.0004 206.756C81.6411 207.46 81.1057 208.01 80.3944 208.406C79.6904 208.802 78.8177 209 77.7764 209H70.8574ZM73.5414 206.503H77.4464C77.9084 206.503 78.3227 206.411 78.6894 206.228C79.0561 206.037 79.3421 205.773 79.5474 205.436C79.7601 205.091 79.8664 204.684 79.8664 204.215C79.8664 203.79 79.7747 203.408 79.5914 203.071C79.408 202.734 79.1404 202.466 78.7884 202.268C78.4364 202.063 78.0147 201.96 77.5234 201.96H73.5414V206.503ZM73.5414 199.485H77.1054C77.4867 199.485 77.8277 199.412 78.1284 199.265C78.4291 199.118 78.6674 198.902 78.8434 198.616C79.0194 198.33 79.1074 197.978 79.1074 197.56C79.1074 197.01 78.9314 196.552 78.5794 196.185C78.2274 195.818 77.736 195.635 77.1054 195.635H73.5414V199.485ZM91.1163 209.33C89.855 209.33 88.744 209.073 87.7833 208.56C86.83 208.047 86.082 207.324 85.5393 206.393C85.004 205.462 84.7363 204.369 84.7363 203.115V193.182L87.4203 193.16V203.049C87.4203 203.643 87.5193 204.175 87.7173 204.644C87.9226 205.113 88.1976 205.513 88.5423 205.843C88.887 206.166 89.283 206.411 89.7303 206.58C90.1776 206.749 90.6396 206.833 91.1163 206.833C91.6076 206.833 92.0733 206.749 92.5133 206.58C92.9606 206.404 93.3566 206.155 93.7013 205.832C94.046 205.502 94.3173 205.102 94.5153 204.633C94.7133 204.164 94.8123 203.636 94.8123 203.049V193.16H97.4963V203.115C97.4963 204.369 97.225 205.462 96.6823 206.393C96.147 207.324 95.399 208.047 94.4383 208.56C93.485 209.073 92.3776 209.33 91.1163 209.33ZM105.767 209.33C104.609 209.33 103.564 209.128 102.632 208.725C101.708 208.322 100.946 207.746 100.344 206.998C99.7503 206.243 99.3726 205.348 99.2113 204.314L101.961 203.896C102.196 204.835 102.676 205.561 103.402 206.074C104.136 206.587 104.979 206.844 105.932 206.844C106.497 206.844 107.029 206.756 107.527 206.58C108.026 206.404 108.429 206.147 108.737 205.81C109.053 205.473 109.21 205.058 109.21 204.567C109.21 204.347 109.174 204.145 109.1 203.962C109.027 203.771 108.917 203.603 108.77 203.456C108.631 203.309 108.448 203.177 108.22 203.06C108 202.935 107.744 202.829 107.45 202.741L103.358 201.531C103.006 201.428 102.625 201.293 102.214 201.124C101.811 200.948 101.426 200.71 101.059 200.409C100.7 200.101 100.403 199.712 100.168 199.243C99.9409 198.766 99.8273 198.18 99.8273 197.483C99.8273 196.464 100.084 195.609 100.597 194.92C101.118 194.223 101.815 193.703 102.687 193.358C103.567 193.013 104.543 192.845 105.613 192.852C106.699 192.859 107.667 193.046 108.517 193.413C109.368 193.772 110.079 194.297 110.651 194.986C111.223 195.675 111.627 196.508 111.861 197.483L109.012 197.978C108.895 197.421 108.668 196.948 108.33 196.559C108 196.163 107.593 195.862 107.109 195.657C106.633 195.452 106.123 195.342 105.58 195.327C105.052 195.32 104.561 195.4 104.106 195.569C103.659 195.73 103.296 195.965 103.017 196.273C102.746 196.581 102.61 196.94 102.61 197.351C102.61 197.74 102.728 198.059 102.962 198.308C103.197 198.55 103.487 198.744 103.831 198.891C104.183 199.03 104.539 199.148 104.898 199.243L107.736 200.035C108.125 200.138 108.561 200.277 109.045 200.453C109.529 200.629 109.995 200.875 110.442 201.19C110.89 201.505 111.256 201.92 111.542 202.433C111.836 202.946 111.982 203.599 111.982 204.391C111.982 205.212 111.81 205.935 111.465 206.558C111.128 207.174 110.67 207.687 110.09 208.098C109.511 208.509 108.847 208.817 108.099 209.022C107.359 209.227 106.581 209.33 105.767 209.33ZM114.583 209V193.16H117.234V209H114.583ZM120.529 209V193.16H123.213L130.561 204.325V193.16H133.245V209H130.561L123.213 197.835V209H120.529ZM136.32 209V193.16H146.55V195.646H138.971V199.551H145.23V202.037H138.971V206.514H146.55V209H136.32ZM154.902 209.33C153.743 209.33 152.698 209.128 151.767 208.725C150.843 208.322 150.08 207.746 149.479 206.998C148.885 206.243 148.507 205.348 148.346 204.314L151.096 203.896C151.331 204.835 151.811 205.561 152.537 206.074C153.27 206.587 154.114 206.844 155.067 206.844C155.632 206.844 156.163 206.756 156.662 206.58C157.161 206.404 157.564 206.147 157.872 205.81C158.187 205.473 158.345 205.058 158.345 204.567C158.345 204.347 158.308 204.145 158.235 203.962C158.162 203.771 158.052 203.603 157.905 203.456C157.766 203.309 157.582 203.177 157.355 203.06C157.135 202.935 156.878 202.829 156.585 202.741L152.493 201.531C152.141 201.428 151.76 201.293 151.349 201.124C150.946 200.948 150.561 200.71 150.194 200.409C149.835 200.101 149.538 199.712 149.303 199.243C149.076 198.766 148.962 198.18 148.962 197.483C148.962 196.464 149.219 195.609 149.732 194.92C150.253 194.223 150.949 193.703 151.822 193.358C152.702 193.013 153.677 192.845 154.748 192.852C155.833 192.859 156.801 193.046 157.652 193.413C158.503 193.772 159.214 194.297 159.786 194.986C160.358 195.675 160.761 196.508 160.996 197.483L158.147 197.978C158.03 197.421 157.802 196.948 157.465 196.559C157.135 196.163 156.728 195.862 156.244 195.657C155.767 195.452 155.258 195.342 154.715 195.327C154.187 195.32 153.696 195.4 153.241 195.569C152.794 195.73 152.431 195.965 152.152 196.273C151.881 196.581 151.745 196.94 151.745 197.351C151.745 197.74 151.862 198.059 152.097 198.308C152.332 198.55 152.621 198.744 152.966 198.891C153.318 199.03 153.674 199.148 154.033 199.243L156.871 200.035C157.26 200.138 157.696 200.277 158.18 200.453C158.664 200.629 159.13 200.875 159.577 201.19C160.024 201.505 160.391 201.92 160.677 202.433C160.97 202.946 161.117 203.599 161.117 204.391C161.117 205.212 160.945 205.935 160.6 206.558C160.263 207.174 159.804 207.687 159.225 208.098C158.646 208.509 157.982 208.817 157.234 209.022C156.493 209.227 155.716 209.33 154.902 209.33ZM169.683 209.33C168.525 209.33 167.48 209.128 166.548 208.725C165.624 208.322 164.862 207.746 164.26 206.998C163.666 206.243 163.289 205.348 163.127 204.314L165.877 203.896C166.112 204.835 166.592 205.561 167.318 206.074C168.052 206.587 168.895 206.844 169.848 206.844C170.413 206.844 170.945 206.756 171.443 206.58C171.942 206.404 172.345 206.147 172.653 205.81C172.969 205.473 173.126 205.058 173.126 204.567C173.126 204.347 173.09 204.145 173.016 203.962C172.943 203.771 172.833 203.603 172.686 203.456C172.547 203.309 172.364 203.177 172.136 203.06C171.916 202.935 171.66 202.829 171.366 202.741L167.274 201.531C166.922 201.428 166.541 201.293 166.13 201.124C165.727 200.948 165.342 200.71 164.975 200.409C164.616 200.101 164.319 199.712 164.084 199.243C163.857 198.766 163.743 198.18 163.743 197.483C163.743 196.464 164 195.609 164.513 194.92C165.034 194.223 165.731 193.703 166.603 193.358C167.483 193.013 168.459 192.845 169.529 192.852C170.615 192.859 171.583 193.046 172.433 193.413C173.284 193.772 173.995 194.297 174.567 194.986C175.139 195.675 175.543 196.508 175.777 197.483L172.928 197.978C172.811 197.421 172.584 196.948 172.246 196.559C171.916 196.163 171.509 195.862 171.025 195.657C170.549 195.452 170.039 195.342 169.496 195.327C168.968 195.32 168.477 195.4 168.022 195.569C167.575 195.73 167.212 195.965 166.933 196.273C166.662 196.581 166.526 196.94 166.526 197.351C166.526 197.74 166.644 198.059 166.878 198.308C167.113 198.55 167.403 198.744 167.747 198.891C168.099 199.03 168.455 199.148 168.814 199.243L171.652 200.035C172.041 200.138 172.477 200.277 172.961 200.453C173.445 200.629 173.911 200.875 174.358 201.19C174.806 201.505 175.172 201.92 175.458 202.433C175.752 202.946 175.898 203.599 175.898 204.391C175.898 205.212 175.726 205.935 175.381 206.558C175.044 207.174 174.586 207.687 174.006 208.098C173.427 208.509 172.763 208.817 172.015 209.022C171.275 209.227 170.497 209.33 169.683 209.33ZM179.159 206.25V203.533H181.876V206.25H179.159ZM179.181 198.627V195.91H181.898V198.627H179.181ZM189.125 209L194.119 193.16H198.002L202.996 209H200.268L195.736 194.788H196.33L191.853 209H189.125ZM191.908 205.568V203.093H200.224V205.568H191.908ZM209.389 209V193.16H215.67C216.74 193.16 217.617 193.376 218.299 193.809C218.988 194.234 219.498 194.781 219.828 195.448C220.165 196.115 220.334 196.805 220.334 197.516C220.334 198.389 220.125 199.129 219.707 199.738C219.296 200.347 218.735 200.757 218.024 200.97V200.42C219.021 200.647 219.776 201.12 220.29 201.839C220.81 202.558 221.071 203.375 221.071 204.292C221.071 205.231 220.891 206.052 220.532 206.756C220.172 207.46 219.637 208.01 218.926 208.406C218.222 208.802 217.349 209 216.308 209H209.389ZM212.073 206.503H215.978C216.44 206.503 216.854 206.411 217.221 206.228C217.587 206.037 217.873 205.773 218.079 205.436C218.291 205.091 218.398 204.684 218.398 204.215C218.398 203.79 218.306 203.408 218.123 203.071C217.939 202.734 217.672 202.466 217.32 202.268C216.968 202.063 216.546 201.96 216.055 201.96H212.073V206.503ZM212.073 199.485H215.637C216.018 199.485 216.359 199.412 216.66 199.265C216.96 199.118 217.199 198.902 217.375 198.616C217.551 198.33 217.639 197.978 217.639 197.56C217.639 197.01 217.463 196.552 217.111 196.185C216.759 195.818 216.267 195.635 215.637 195.635H212.073V199.485ZM223.268 209V193.16H229.813C229.967 193.16 230.165 193.167 230.407 193.182C230.649 193.189 230.872 193.211 231.078 193.248C231.994 193.387 232.75 193.692 233.344 194.161C233.945 194.63 234.389 195.224 234.675 195.943C234.968 196.654 235.115 197.446 235.115 198.319C235.115 199.61 234.788 200.721 234.136 201.652C233.483 202.576 232.482 203.148 231.133 203.368L230 203.467H225.919V209H223.268ZM232.365 209L229.241 202.554L231.936 201.96L235.368 209H232.365ZM225.919 200.992H229.703C229.849 200.992 230.014 200.985 230.198 200.97C230.381 200.955 230.55 200.926 230.704 200.882C231.144 200.772 231.488 200.578 231.738 200.299C231.994 200.02 232.174 199.705 232.277 199.353C232.387 199.001 232.442 198.656 232.442 198.319C232.442 197.982 232.387 197.637 232.277 197.285C232.174 196.926 231.994 196.607 231.738 196.328C231.488 196.049 231.144 195.855 230.704 195.745C230.55 195.701 230.381 195.675 230.198 195.668C230.014 195.653 229.849 195.646 229.703 195.646H225.919V200.992ZM236.691 209L241.685 193.16H245.568L250.562 209H247.834L243.302 194.788H243.896L239.419 209H236.691ZM239.474 205.568V203.093H247.79V205.568H239.474ZM252.551 209V193.16H255.235L262.583 204.325V193.16H265.267V209H262.583L255.235 197.835V209H252.551ZM268.342 209V193.16H273.391C273.523 193.16 273.783 193.164 274.172 193.171C274.568 193.178 274.949 193.204 275.316 193.248C276.57 193.409 277.629 193.857 278.495 194.59C279.367 195.316 280.027 196.244 280.475 197.373C280.922 198.502 281.146 199.738 281.146 201.08C281.146 202.422 280.922 203.658 280.475 204.787C280.027 205.916 279.367 206.848 278.495 207.581C277.629 208.307 276.57 208.751 275.316 208.912C274.956 208.956 274.579 208.982 274.183 208.989C273.787 208.996 273.523 209 273.391 209H268.342ZM271.037 206.503H273.391C273.611 206.503 273.889 206.496 274.227 206.481C274.571 206.466 274.876 206.433 275.14 206.382C275.888 206.243 276.496 205.909 276.966 205.381C277.435 204.853 277.78 204.211 278 203.456C278.227 202.701 278.341 201.909 278.341 201.08C278.341 200.222 278.227 199.415 278 198.66C277.772 197.905 277.42 197.27 276.944 196.757C276.474 196.244 275.873 195.917 275.14 195.778C274.876 195.719 274.571 195.686 274.227 195.679C273.889 195.664 273.611 195.657 273.391 195.657H271.037V206.503ZM288.15 209V193.16H290.834L298.182 204.325V193.16H300.866V209H298.182L290.834 197.835V209H288.15ZM303.941 209V193.16H314.171V195.646H306.592V199.551H312.851V202.037H306.592V206.514H314.171V209H303.941ZM320.155 209L315.524 193.16H318.307L321.464 204.6L324.61 193.182L327.393 193.16L330.55 204.6L333.696 193.16H336.479L331.859 209H329.241L325.996 197.736L322.773 209H320.155ZM342.898 209V193.16H345.549V209H342.898ZM348.844 209V193.16H353.893C354.025 193.16 354.285 193.164 354.674 193.171C355.07 193.178 355.451 193.204 355.818 193.248C357.072 193.409 358.131 193.857 358.997 194.59C359.869 195.316 360.529 196.244 360.977 197.373C361.424 198.502 361.648 199.738 361.648 201.08C361.648 202.422 361.424 203.658 360.977 204.787C360.529 205.916 359.869 206.848 358.997 207.581C358.131 208.307 357.072 208.751 355.818 208.912C355.458 208.956 355.081 208.982 354.685 208.989C354.289 208.996 354.025 209 353.893 209H348.844ZM351.539 206.503H353.893C354.113 206.503 354.391 206.496 354.729 206.481C355.073 206.466 355.378 206.433 355.642 206.382C356.39 206.243 356.998 205.909 357.468 205.381C357.937 204.853 358.282 204.211 358.502 203.456C358.729 202.701 358.843 201.909 358.843 201.08C358.843 200.222 358.729 199.415 358.502 198.66C358.274 197.905 357.922 197.27 357.446 196.757C356.976 196.244 356.375 195.917 355.642 195.778C355.378 195.719 355.073 195.686 354.729 195.679C354.391 195.664 354.113 195.657 353.893 195.657H351.539V206.503ZM364.248 209V193.16H374.478V195.646H366.899V199.551H373.158V202.037H366.899V206.514H374.478V209H364.248ZM376.017 209L381.011 193.16H384.894L389.888 209H387.16L382.628 194.788H383.222L378.745 209H376.017ZM378.8 205.568V203.093H387.116V205.568H378.8ZM402.98 209.33C401.396 209.33 400.04 208.985 398.91 208.296C397.781 207.599 396.912 206.631 396.303 205.392C395.702 204.153 395.401 202.715 395.401 201.08C395.401 199.445 395.702 198.007 396.303 196.768C396.912 195.529 397.781 194.564 398.91 193.875C400.04 193.178 401.396 192.83 402.98 192.83C404.564 192.83 405.921 193.178 407.05 193.875C408.187 194.564 409.056 195.529 409.657 196.768C410.266 198.007 410.57 199.445 410.57 201.08C410.57 202.715 410.266 204.153 409.657 205.392C409.056 206.631 408.187 207.599 407.05 208.296C405.921 208.985 404.564 209.33 402.98 209.33ZM402.98 206.833C404.044 206.84 404.927 206.606 405.631 206.129C406.343 205.652 406.874 204.981 407.226 204.116C407.586 203.251 407.765 202.239 407.765 201.08C407.765 199.921 407.586 198.917 407.226 198.066C406.874 197.208 406.343 196.541 405.631 196.064C404.927 195.587 404.044 195.342 402.98 195.327C401.917 195.32 401.033 195.554 400.329 196.031C399.625 196.508 399.094 197.179 398.734 198.044C398.382 198.909 398.206 199.921 398.206 201.08C398.206 202.239 398.382 203.247 398.734 204.105C399.086 204.956 399.614 205.619 400.318 206.096C401.03 206.573 401.917 206.818 402.98 206.833ZM412.76 209V193.16H419.305C419.459 193.16 419.657 193.167 419.899 193.182C420.141 193.189 420.364 193.211 420.57 193.248C421.486 193.387 422.242 193.692 422.836 194.161C423.437 194.63 423.881 195.224 424.167 195.943C424.46 196.654 424.607 197.446 424.607 198.319C424.607 199.61 424.28 200.721 423.628 201.652C422.975 202.576 421.974 203.148 420.625 203.368L419.492 203.467H415.411V209H412.76ZM421.857 209L418.733 202.554L421.428 201.96L424.86 209H421.857ZM415.411 200.992H419.195C419.341 200.992 419.506 200.985 419.69 200.97C419.873 200.955 420.042 200.926 420.196 200.882C420.636 200.772 420.98 200.578 421.23 200.299C421.486 200.02 421.666 199.705 421.769 199.353C421.879 199.001 421.934 198.656 421.934 198.319C421.934 197.982 421.879 197.637 421.769 197.285C421.666 196.926 421.486 196.607 421.23 196.328C420.98 196.049 420.636 195.855 420.196 195.745C420.042 195.701 419.873 195.675 419.69 195.668C419.506 195.653 419.341 195.646 419.195 195.646H415.411V200.992ZM435.493 209V195.646H430.367V193.16H443.27V195.646H438.144V209H435.493ZM451.728 209.33C450.144 209.33 448.788 208.985 447.658 208.296C446.529 207.599 445.66 206.631 445.051 205.392C444.45 204.153 444.149 202.715 444.149 201.08C444.149 199.445 444.45 198.007 445.051 196.768C445.66 195.529 446.529 194.564 447.658 193.875C448.788 193.178 450.144 192.83 451.728 192.83C453.312 192.83 454.669 193.178 455.798 193.875C456.935 194.564 457.804 195.529 458.405 196.768C459.014 198.007 459.318 199.445 459.318 201.08C459.318 202.715 459.014 204.153 458.405 205.392C457.804 206.631 456.935 207.599 455.798 208.296C454.669 208.985 453.312 209.33 451.728 209.33ZM451.728 206.833C452.792 206.84 453.675 206.606 454.379 206.129C455.091 205.652 455.622 204.981 455.974 204.116C456.334 203.251 456.513 202.239 456.513 201.08C456.513 199.921 456.334 198.917 455.974 198.066C455.622 197.208 455.091 196.541 454.379 196.064C453.675 195.587 452.792 195.342 451.728 195.327C450.665 195.32 449.781 195.554 449.077 196.031C448.373 196.508 447.842 197.179 447.482 198.044C447.13 198.909 446.954 199.921 446.954 201.08C446.954 202.239 447.13 203.247 447.482 204.105C447.834 204.956 448.362 205.619 449.066 206.096C449.778 206.573 450.665 206.818 451.728 206.833ZM465.912 209V193.16H468.563V200.508L474.888 193.16H478.144L471.335 200.926L478.606 209H475.24L468.563 201.608V209H465.912ZM480.156 209V193.16H482.84L490.188 204.325V193.16H492.872V209H490.188L482.84 197.835V209H480.156ZM502.646 209.33C501.062 209.33 499.706 208.985 498.576 208.296C497.447 207.599 496.578 206.631 495.969 205.392C495.368 204.153 495.067 202.715 495.067 201.08C495.067 199.445 495.368 198.007 495.969 196.768C496.578 195.529 497.447 194.564 498.576 193.875C499.706 193.178 501.062 192.83 502.646 192.83C504.23 192.83 505.587 193.178 506.716 193.875C507.853 194.564 508.722 195.529 509.323 196.768C509.932 198.007 510.236 199.445 510.236 201.08C510.236 202.715 509.932 204.153 509.323 205.392C508.722 206.631 507.853 207.599 506.716 208.296C505.587 208.985 504.23 209.33 502.646 209.33ZM502.646 206.833C503.71 206.84 504.593 206.606 505.297 206.129C506.009 205.652 506.54 204.981 506.892 204.116C507.252 203.251 507.431 202.239 507.431 201.08C507.431 199.921 507.252 198.917 506.892 198.066C506.54 197.208 506.009 196.541 505.297 196.064C504.593 195.587 503.71 195.342 502.646 195.327C501.583 195.32 500.699 195.554 499.995 196.031C499.291 196.508 498.76 197.179 498.4 198.044C498.048 198.909 497.872 199.921 497.872 201.08C497.872 202.239 498.048 203.247 498.4 204.105C498.752 204.956 499.28 205.619 499.984 206.096C500.696 206.573 501.583 206.818 502.646 206.833ZM515.104 209L510.473 193.16H513.256L516.413 204.6L519.559 193.182L522.342 193.16L525.499 204.6L528.645 193.16H531.428L526.808 209H524.19L520.945 197.736L517.722 209H515.104ZM213.267 240V224.16H215.918V230.826H223.42V224.16H226.06V240H223.42V233.312H215.918V240H213.267ZM235.843 240.33C234.259 240.33 232.902 239.985 231.773 239.296C230.643 238.599 229.774 237.631 229.166 236.392C228.564 235.153 228.264 233.715 228.264 232.08C228.264 230.445 228.564 229.007 229.166 227.768C229.774 226.529 230.643 225.564 231.773 224.875C232.902 224.178 234.259 223.83 235.843 223.83C237.427 223.83 238.783 224.178 239.913 224.875C241.049 225.564 241.918 226.529 242.52 227.768C243.128 229.007 243.433 230.445 243.433 232.08C243.433 233.715 243.128 235.153 242.52 236.392C241.918 237.631 241.049 238.599 239.913 239.296C238.783 239.985 237.427 240.33 235.843 240.33ZM235.843 237.833C236.906 237.84 237.79 237.606 238.494 237.129C239.205 236.652 239.737 235.981 240.089 235.116C240.448 234.251 240.628 233.239 240.628 232.08C240.628 230.921 240.448 229.917 240.089 229.066C239.737 228.208 239.205 227.541 238.494 227.064C237.79 226.587 236.906 226.342 235.843 226.327C234.779 226.32 233.896 226.554 233.192 227.031C232.488 227.508 231.956 228.179 231.597 229.044C231.245 229.909 231.069 230.921 231.069 232.08C231.069 233.239 231.245 234.247 231.597 235.105C231.949 235.956 232.477 236.619 233.181 237.096C233.892 237.573 234.779 237.818 235.843 237.833ZM248.3 240L243.669 224.16H246.452L249.609 235.6L252.755 224.182L255.538 224.16L258.695 235.6L261.841 224.16H264.624L260.004 240H257.386L254.141 228.736L250.918 240H248.3ZM274.629 240V226.646H269.503V224.16H282.406V226.646H277.28V240H274.629ZM290.864 240.33C289.28 240.33 287.923 239.985 286.794 239.296C285.665 238.599 284.796 237.631 284.187 236.392C283.586 235.153 283.285 233.715 283.285 232.08C283.285 230.445 283.586 229.007 284.187 227.768C284.796 226.529 285.665 225.564 286.794 224.875C287.923 224.178 289.28 223.83 290.864 223.83C292.448 223.83 293.805 224.178 294.934 224.875C296.071 225.564 296.94 226.529 297.541 227.768C298.15 229.007 298.454 230.445 298.454 232.08C298.454 233.715 298.15 235.153 297.541 236.392C296.94 237.631 296.071 238.599 294.934 239.296C293.805 239.985 292.448 240.33 290.864 240.33ZM290.864 237.833C291.927 237.84 292.811 237.606 293.515 237.129C294.226 236.652 294.758 235.981 295.11 235.116C295.469 234.251 295.649 233.239 295.649 232.08C295.649 230.921 295.469 229.917 295.11 229.066C294.758 228.208 294.226 227.541 293.515 227.064C292.811 226.587 291.927 226.342 290.864 226.327C289.801 226.32 288.917 226.554 288.213 227.031C287.509 227.508 286.977 228.179 286.618 229.044C286.266 229.909 286.09 230.921 286.09 232.08C286.09 233.239 286.266 234.247 286.618 235.105C286.97 235.956 287.498 236.619 288.202 237.096C288.913 237.573 289.801 237.818 290.864 237.833ZM310.911 240.33C309.752 240.33 308.707 240.128 307.776 239.725C306.852 239.322 306.089 238.746 305.488 237.998C304.894 237.243 304.516 236.348 304.355 235.314L307.105 234.896C307.339 235.835 307.82 236.561 308.546 237.074C309.279 237.587 310.122 237.844 311.076 237.844C311.64 237.844 312.172 237.756 312.671 237.58C313.169 237.404 313.573 237.147 313.881 236.81C314.196 236.473 314.354 236.058 314.354 235.567C314.354 235.347 314.317 235.145 314.244 234.962C314.17 234.771 314.06 234.603 313.914 234.456C313.774 234.309 313.591 234.177 313.364 234.06C313.144 233.935 312.887 233.829 312.594 233.741L308.502 232.531C308.15 232.428 307.768 232.293 307.358 232.124C306.954 231.948 306.569 231.71 306.203 231.409C305.843 231.101 305.546 230.712 305.312 230.243C305.084 229.766 304.971 229.18 304.971 228.483C304.971 227.464 305.227 226.609 305.741 225.92C306.261 225.223 306.958 224.703 307.831 224.358C308.711 224.013 309.686 223.845 310.757 223.852C311.842 223.859 312.81 224.046 313.661 224.413C314.511 224.772 315.223 225.297 315.795 225.986C316.367 226.675 316.77 227.508 317.005 228.483L314.156 228.978C314.038 228.421 313.811 227.948 313.474 227.559C313.144 227.163 312.737 226.862 312.253 226.657C311.776 226.452 311.266 226.342 310.724 226.327C310.196 226.32 309.704 226.4 309.25 226.569C308.802 226.73 308.439 226.965 308.161 227.273C307.889 227.581 307.754 227.94 307.754 228.351C307.754 228.74 307.871 229.059 308.106 229.308C308.34 229.55 308.63 229.744 308.975 229.891C309.327 230.03 309.682 230.148 310.042 230.243L312.88 231.035C313.268 231.138 313.705 231.277 314.189 231.453C314.673 231.629 315.138 231.875 315.586 232.19C316.033 232.505 316.4 232.92 316.686 233.433C316.979 233.946 317.126 234.599 317.126 235.391C317.126 236.212 316.953 236.935 316.609 237.558C316.271 238.174 315.813 238.687 315.234 239.098C314.654 239.509 313.991 239.817 313.243 240.022C312.502 240.227 311.725 240.33 310.911 240.33ZM319.507 240V224.16H329.737V226.646H322.158V230.551H328.417V233.037H322.158V237.514H329.737V240H319.507ZM332.596 240V224.16H335.247V237.514H342.243V240H332.596ZM344.326 240V224.16H346.977V237.514H353.973V240H344.326ZM359.365 240V224.16H362.016V240H359.365ZM369.117 240V226.646H363.991V224.16H376.894V226.646H371.768V240H369.117ZM381.524 235.699C381.524 235.193 381.572 234.705 381.667 234.236C381.77 233.759 381.935 233.319 382.162 232.916C382.36 232.527 382.58 232.219 382.822 231.992C383.064 231.757 383.336 231.526 383.636 231.299C383.937 231.064 384.271 230.753 384.637 230.364C384.938 230.034 385.136 229.708 385.231 229.385C385.327 229.055 385.374 228.703 385.374 228.329C385.374 228.087 385.349 227.86 385.297 227.647C385.246 227.434 385.154 227.251 385.022 227.097C384.817 226.826 384.553 226.635 384.23 226.525C383.908 226.408 383.563 226.349 383.196 226.349C382.896 226.349 382.606 226.389 382.327 226.47C382.056 226.543 381.825 226.661 381.634 226.822C381.414 226.998 381.253 227.214 381.15 227.471C381.048 227.728 381 228.01 381.007 228.318H378.213C378.287 227.585 378.485 226.906 378.807 226.283C379.137 225.652 379.57 225.15 380.105 224.776C380.523 224.468 380.993 224.237 381.513 224.083C382.041 223.929 382.569 223.852 383.097 223.852C383.904 223.852 384.663 223.977 385.374 224.226C386.093 224.475 386.691 224.886 387.167 225.458C387.497 225.832 387.747 226.265 387.915 226.756C388.091 227.247 388.179 227.746 388.179 228.252C388.179 229.007 388.014 229.697 387.684 230.32C387.362 230.943 386.951 231.519 386.452 232.047C386.218 232.296 385.994 232.516 385.781 232.707C385.569 232.898 385.371 233.085 385.187 233.268C385.011 233.444 384.865 233.631 384.747 233.829C384.542 234.174 384.421 234.467 384.384 234.709C384.348 234.944 384.329 235.274 384.329 235.699H381.524ZM381.546 240V237.085H384.329V240H381.546Z" fill="white"></path><rect x="20" y="20" width="163" height="40" rx="20" fill="white" fill-opacity="0.3"></rect><path d="M33.245 46V34.48H37.733C38.421 34.48 39.0077 34.6213 39.493 34.904C39.9837 35.1867 40.357 35.56 40.613 36.024C40.8743 36.4827 41.005 36.9787 41.005 37.512C41.005 38.136 40.845 38.6827 40.525 39.152C40.205 39.6213 39.773 39.944 39.229 40.12L39.213 39.728C39.9543 39.9253 40.5303 40.288 40.941 40.816C41.3517 41.344 41.557 41.9733 41.557 42.704C41.557 43.376 41.4183 43.9573 41.141 44.448C40.869 44.9387 40.4743 45.32 39.957 45.592C39.445 45.864 38.837 46 38.133 46H33.245ZM34.685 44.64H37.861C38.2877 44.64 38.669 44.5627 39.005 44.408C39.341 44.248 39.605 44.024 39.797 43.736C39.9943 43.448 40.093 43.1013 40.093 42.696C40.093 42.3067 40.005 41.9573 39.829 41.648C39.6583 41.3387 39.4157 41.0933 39.101 40.912C38.7917 40.7253 38.4317 40.632 38.021 40.632H34.685V44.64ZM34.685 39.288H37.717C38.0583 39.288 38.365 39.216 38.637 39.072C38.9143 38.9227 39.133 38.7147 39.293 38.448C39.4583 38.1813 39.541 37.8693 39.541 37.512C39.541 37.016 39.373 36.6107 39.037 36.296C38.701 35.9813 38.261 35.824 37.717 35.824H34.685V39.288ZM47.6953 46.24C46.8046 46.24 46.0179 46.056 45.3353 45.688C44.6526 45.32 44.1166 44.8053 43.7273 44.144C43.3433 43.4773 43.1513 42.696 43.1513 41.8V34.488L44.5913 34.48V41.68C44.5913 42.224 44.6819 42.6987 44.8633 43.104C45.0499 43.504 45.2953 43.8373 45.5993 44.104C45.9033 44.3707 46.2366 44.5707 46.5993 44.704C46.9673 44.832 47.3326 44.896 47.6953 44.896C48.0633 44.896 48.4313 44.8293 48.7993 44.696C49.1673 44.5627 49.5006 44.3653 49.7993 44.104C50.1033 43.8373 50.3459 43.5013 50.5273 43.096C50.7086 42.6907 50.7993 42.2187 50.7993 41.68V34.48H52.2393V41.8C52.2393 42.6907 52.0446 43.4693 51.6553 44.136C51.2713 44.8027 50.7379 45.32 50.0553 45.688C49.3726 46.056 48.5859 46.24 47.6953 46.24ZM58.083 46.24C57.267 46.24 56.531 46.1013 55.875 45.824C55.2243 45.5467 54.6857 45.152 54.259 44.64C53.8377 44.1227 53.563 43.512 53.435 42.808L54.907 42.576C55.0937 43.3013 55.4803 43.8693 56.067 44.28C56.659 44.6853 57.355 44.888 58.155 44.888C58.6723 44.888 59.139 44.808 59.555 44.648C59.9763 44.4827 60.3097 44.248 60.555 43.944C60.8003 43.64 60.923 43.28 60.923 42.864C60.923 42.608 60.8777 42.3893 60.787 42.208C60.7017 42.0213 60.5817 41.864 60.427 41.736C60.2777 41.6027 60.107 41.4907 59.915 41.4C59.723 41.3093 59.523 41.2347 59.315 41.176L56.379 40.304C56.059 40.208 55.7497 40.088 55.451 39.944C55.1523 39.7947 54.8857 39.6107 54.651 39.392C54.4163 39.168 54.2297 38.9013 54.091 38.592C53.9523 38.2773 53.883 37.9067 53.883 37.48C53.883 36.7973 54.059 36.216 54.411 35.736C54.7683 35.2507 55.251 34.88 55.859 34.624C56.467 34.368 57.1523 34.2427 57.915 34.248C58.6883 34.2533 59.379 34.392 59.987 34.664C60.6003 34.9307 61.107 35.3147 61.507 35.816C61.9123 36.3173 62.1843 36.9173 62.323 37.616L60.811 37.88C60.731 37.4107 60.5523 37.008 60.275 36.672C60.003 36.3307 59.6617 36.0693 59.251 35.888C58.8403 35.7013 58.3897 35.6053 57.899 35.6C57.4297 35.5947 57.0057 35.6693 56.627 35.824C56.2483 35.9787 55.947 36.1947 55.723 36.472C55.499 36.744 55.387 37.0587 55.387 37.416C55.387 37.768 55.4883 38.0533 55.691 38.272C55.8937 38.4853 56.1417 38.656 56.435 38.784C56.7337 38.9067 57.0243 39.008 57.307 39.088L59.499 39.72C59.7497 39.7893 60.0377 39.8853 60.363 40.008C60.6937 40.1307 61.0137 40.304 61.323 40.528C61.6323 40.7467 61.8883 41.04 62.091 41.408C62.2937 41.7707 62.395 42.2293 62.395 42.784C62.395 43.3387 62.283 43.832 62.059 44.264C61.8403 44.696 61.5337 45.0587 61.139 45.352C60.7443 45.64 60.2857 45.8587 59.763 46.008C59.2403 46.1627 58.6803 46.24 58.083 46.24ZM64.2331 46V34.48H65.6571V46H64.2331ZM68.0575 46V34.48H69.4975L75.5055 43.48V34.48H76.9455V46H75.5055L69.4975 36.992V46H68.0575ZM79.1825 46V34.48H86.4625V35.832H80.6065V39.44H85.5025V40.792H80.6065V44.648H86.4625V46H79.1825ZM92.1455 46.24C91.3295 46.24 90.5935 46.1013 89.9375 45.824C89.2868 45.5467 88.7482 45.152 88.3215 44.64C87.9002 44.1227 87.6255 43.512 87.4975 42.808L88.9695 42.576C89.1562 43.3013 89.5428 43.8693 90.1295 44.28C90.7215 44.6853 91.4175 44.888 92.2175 44.888C92.7348 44.888 93.2015 44.808 93.6175 44.648C94.0388 44.4827 94.3722 44.248 94.6175 43.944C94.8628 43.64 94.9855 43.28 94.9855 42.864C94.9855 42.608 94.9402 42.3893 94.8495 42.208C94.7642 42.0213 94.6442 41.864 94.4895 41.736C94.3402 41.6027 94.1695 41.4907 93.9775 41.4C93.7855 41.3093 93.5855 41.2347 93.3775 41.176L90.4415 40.304C90.1215 40.208 89.8122 40.088 89.5135 39.944C89.2148 39.7947 88.9482 39.6107 88.7135 39.392C88.4788 39.168 88.2922 38.9013 88.1535 38.592C88.0148 38.2773 87.9455 37.9067 87.9455 37.48C87.9455 36.7973 88.1215 36.216 88.4735 35.736C88.8308 35.2507 89.3135 34.88 89.9215 34.624C90.5295 34.368 91.2148 34.2427 91.9775 34.248C92.7508 34.2533 93.4415 34.392 94.0495 34.664C94.6628 34.9307 95.1695 35.3147 95.5695 35.816C95.9748 36.3173 96.2468 36.9173 96.3855 37.616L94.8735 37.88C94.7935 37.4107 94.6148 37.008 94.3375 36.672C94.0655 36.3307 93.7242 36.0693 93.3135 35.888C92.9028 35.7013 92.4522 35.6053 91.9615 35.6C91.4922 35.5947 91.0682 35.6693 90.6895 35.824C90.3108 35.9787 90.0095 36.1947 89.7855 36.472C89.5615 36.744 89.4495 37.0587 89.4495 37.416C89.4495 37.768 89.5508 38.0533 89.7535 38.272C89.9562 38.4853 90.2042 38.656 90.4975 38.784C90.7962 38.9067 91.0868 39.008 91.3695 39.088L93.5615 39.72C93.8122 39.7893 94.1002 39.8853 94.4255 40.008C94.7562 40.1307 95.0762 40.304 95.3855 40.528C95.6948 40.7467 95.9508 41.04 96.1535 41.408C96.3562 41.7707 96.4575 42.2293 96.4575 42.784C96.4575 43.3387 96.3455 43.832 96.1215 44.264C95.9028 44.696 95.5962 45.0587 95.2015 45.352C94.8068 45.64 94.3482 45.8587 93.8255 46.008C93.3028 46.1627 92.7428 46.24 92.1455 46.24ZM102.458 46.24C101.642 46.24 100.906 46.1013 100.25 45.824C99.5993 45.5467 99.0607 45.152 98.634 44.64C98.2127 44.1227 97.938 43.512 97.81 42.808L99.282 42.576C99.4687 43.3013 99.8553 43.8693 100.442 44.28C101.034 44.6853 101.73 44.888 102.53 44.888C103.047 44.888 103.514 44.808 103.93 44.648C104.351 44.4827 104.685 44.248 104.93 43.944C105.175 43.64 105.298 43.28 105.298 42.864C105.298 42.608 105.253 42.3893 105.162 42.208C105.077 42.0213 104.957 41.864 104.802 41.736C104.653 41.6027 104.482 41.4907 104.29 41.4C104.098 41.3093 103.898 41.2347 103.69 41.176L100.754 40.304C100.434 40.208 100.125 40.088 99.826 39.944C99.5273 39.7947 99.2607 39.6107 99.026 39.392C98.7913 39.168 98.6047 38.9013 98.466 38.592C98.3273 38.2773 98.258 37.9067 98.258 37.48C98.258 36.7973 98.434 36.216 98.786 35.736C99.1433 35.2507 99.626 34.88 100.234 34.624C100.842 34.368 101.527 34.2427 102.29 34.248C103.063 34.2533 103.754 34.392 104.362 34.664C104.975 34.9307 105.482 35.3147 105.882 35.816C106.287 36.3173 106.559 36.9173 106.698 37.616L105.186 37.88C105.106 37.4107 104.927 37.008 104.65 36.672C104.378 36.3307 104.037 36.0693 103.626 35.888C103.215 35.7013 102.765 35.6053 102.274 35.6C101.805 35.5947 101.381 35.6693 101.002 35.824C100.623 35.9787 100.322 36.1947 100.098 36.472C99.874 36.744 99.762 37.0587 99.762 37.416C99.762 37.768 99.8633 38.0533 100.066 38.272C100.269 38.4853 100.517 38.656 100.81 38.784C101.109 38.9067 101.399 39.008 101.682 39.088L103.874 39.72C104.125 39.7893 104.413 39.8853 104.738 40.008C105.069 40.1307 105.389 40.304 105.698 40.528C106.007 40.7467 106.263 41.04 106.466 41.408C106.669 41.7707 106.77 42.2293 106.77 42.784C106.77 43.3387 106.658 43.832 106.434 44.264C106.215 44.696 105.909 45.0587 105.514 45.352C105.119 45.64 104.661 45.8587 104.138 46.008C103.615 46.1627 103.055 46.24 102.458 46.24ZM115.395 46.24C114.755 46.24 114.158 46.1467 113.603 45.96C113.049 45.7733 112.585 45.48 112.211 45.08C111.923 44.76 111.707 44.408 111.563 44.024C111.425 43.6347 111.347 43.224 111.331 42.792C111.331 42.3707 111.393 41.96 111.515 41.56C111.638 41.1547 111.833 40.7947 112.099 40.48C112.238 40.3093 112.393 40.1653 112.563 40.048C112.739 39.9253 112.915 39.8213 113.091 39.736C112.723 39.3413 112.441 38.9707 112.243 38.624C112.051 38.2773 111.955 37.8587 111.955 37.368C111.955 36.744 112.115 36.1813 112.435 35.68C112.761 35.1733 113.203 34.8027 113.763 34.568C114.035 34.4507 114.313 34.3707 114.595 34.328C114.883 34.28 115.163 34.256 115.435 34.256C115.894 34.256 116.339 34.32 116.771 34.448C117.203 34.576 117.571 34.784 117.875 35.072C118.078 35.2427 118.251 35.44 118.395 35.664C118.539 35.8827 118.651 36.112 118.731 36.352L117.339 36.712C117.238 36.44 117.07 36.2107 116.835 36.024C116.649 35.864 116.43 35.7547 116.179 35.696C115.934 35.6373 115.686 35.608 115.435 35.608C115.019 35.608 114.643 35.688 114.307 35.848C114.009 35.992 113.785 36.1947 113.635 36.456C113.486 36.712 113.411 37.016 113.411 37.368C113.411 37.672 113.462 37.9227 113.563 38.12C113.67 38.312 113.817 38.5173 114.003 38.736C114.115 38.8533 114.241 38.9787 114.379 39.112C114.523 39.24 114.67 39.3733 114.819 39.512L118.211 42.664C118.227 42.5307 118.238 42.3947 118.243 42.256C118.249 42.1173 118.251 41.984 118.251 41.856L118.243 40.264H119.547V42.136C119.547 42.5147 119.534 42.8373 119.507 43.104C119.486 43.3707 119.449 43.592 119.395 43.768L120.859 45.12L119.931 46.112L118.715 44.96C118.507 45.1947 118.259 45.4 117.971 45.576C117.683 45.752 117.395 45.8853 117.107 45.976C116.835 46.0773 116.555 46.1467 116.267 46.184C115.979 46.2213 115.689 46.24 115.395 46.24ZM115.427 44.872C115.689 44.872 115.926 44.856 116.139 44.824C116.353 44.792 116.555 44.7307 116.747 44.64C117.003 44.5173 117.201 44.4 117.339 44.288C117.478 44.176 117.593 44.072 117.683 43.976L114.171 40.76C113.979 40.824 113.798 40.9093 113.627 41.016C113.462 41.1227 113.318 41.248 113.195 41.392C113.057 41.5627 112.953 41.7627 112.883 41.992C112.819 42.2213 112.787 42.464 112.787 42.72C112.793 42.992 112.838 43.2427 112.923 43.472C113.009 43.7013 113.129 43.9067 113.283 44.088C113.518 44.36 113.835 44.56 114.235 44.688C114.635 44.8107 115.033 44.872 115.427 44.872ZM127.826 46L124.49 34.48H125.978L128.538 43.592L131.09 34.488L132.586 34.48L135.146 43.592L137.698 34.48H139.194L135.858 46H134.434L131.842 36.968L129.25 46H127.826ZM144.981 46.24C143.834 46.24 142.861 45.9867 142.061 45.48C141.261 44.9733 140.65 44.2693 140.229 43.368C139.813 42.4667 139.605 41.424 139.605 40.24C139.605 39.056 139.813 38.0133 140.229 37.112C140.65 36.2107 141.261 35.5067 142.061 35C142.861 34.4933 143.834 34.24 144.981 34.24C146.133 34.24 147.109 34.4933 147.909 35C148.709 35.5067 149.317 36.2107 149.733 37.112C150.149 38.0133 150.357 39.056 150.357 40.24C150.357 41.424 150.149 42.4667 149.733 43.368C149.317 44.2693 148.709 44.9733 147.909 45.48C147.109 45.9867 146.133 46.24 144.981 46.24ZM144.981 44.88C145.84 44.8853 146.554 44.6933 147.125 44.304C147.701 43.9093 148.13 43.3627 148.413 42.664C148.701 41.9653 148.845 41.1573 148.845 40.24C148.845 39.3173 148.701 38.5093 148.413 37.816C148.13 37.1227 147.701 36.5813 147.125 36.192C146.554 35.8027 145.84 35.6053 144.981 35.6C144.122 35.5947 143.408 35.7867 142.837 36.176C142.272 36.5653 141.845 37.1093 141.557 37.808C141.269 38.5067 141.122 39.3173 141.117 40.24C141.112 41.1573 141.253 41.9627 141.541 42.656C141.829 43.3493 142.258 43.8933 142.829 44.288C143.405 44.6773 144.122 44.8747 144.981 44.88ZM151.964 46V34.48H156.516C156.628 34.48 156.761 34.4853 156.916 34.496C157.07 34.5013 157.22 34.5173 157.364 34.544C157.988 34.64 158.51 34.8533 158.932 35.184C159.358 35.5147 159.678 35.9333 159.892 36.44C160.105 36.9413 160.212 37.4987 160.212 38.112C160.212 39.0027 159.98 39.776 159.516 40.432C159.052 41.0827 158.372 41.4907 157.476 41.656L156.932 41.744H153.388V46H151.964ZM158.82 46L156.548 41.312L157.956 40.88L160.452 46H158.82ZM153.388 40.392H156.468C156.569 40.392 156.684 40.3867 156.812 40.376C156.945 40.3653 157.07 40.3467 157.188 40.32C157.556 40.2347 157.854 40.08 158.084 39.856C158.318 39.6267 158.489 39.36 158.596 39.056C158.702 38.7467 158.756 38.432 158.756 38.112C158.756 37.792 158.702 37.48 158.596 37.176C158.489 36.8667 158.318 36.5973 158.084 36.368C157.854 36.1387 157.556 35.984 157.188 35.904C157.07 35.872 156.945 35.8533 156.812 35.848C156.684 35.8373 156.569 35.832 156.468 35.832H153.388V40.392ZM162.214 46V34.48H163.638V39.888L168.678 34.48H170.47L165.238 40.072L170.878 46H169.038L163.638 40.368V46H162.214Z" fill="white"></path><defs><linearGradient id="paint0_linear_160_193" x1="300" y1="0" x2="300" y2="400" gradientUnits="userSpaceOnUse"><stop stop-color="#41295A"></stop><stop offset="1" stop-color="#2F0743"></stop></linearGradient></defs></svg> 