<?xml version="1.0" encoding="UTF-8"?> <svg xmlns="http://www.w3.org/2000/svg" width="600" height="400" viewBox="0 0 600 400" fill="none"><rect width="600" height="400" rx="20" fill="url(#paint0_linear_160_197)"></rect><path d="M144.232 193V177.16H146.883V193H144.232ZM150.178 193V177.16H159.715V179.811H152.829V183.76H158.395V186.4H152.829V193H150.178ZM169.948 193V186.51L164.558 177.16H167.649L171.29 183.474L174.92 177.16H178.011L172.632 186.51V193H169.948ZM185.365 193.33C183.781 193.33 182.424 192.985 181.295 192.296C180.166 191.599 179.297 190.631 178.688 189.392C178.087 188.153 177.786 186.715 177.786 185.08C177.786 183.445 178.087 182.007 178.688 180.768C179.297 179.529 180.166 178.564 181.295 177.875C182.424 177.178 183.781 176.83 185.365 176.83C186.949 176.83 188.306 177.178 189.435 177.875C190.572 178.564 191.441 179.529 192.042 180.768C192.651 182.007 192.955 183.445 192.955 185.08C192.955 186.715 192.651 188.153 192.042 189.392C191.441 190.631 190.572 191.599 189.435 192.296C188.306 192.985 186.949 193.33 185.365 193.33ZM185.365 190.833C186.428 190.84 187.312 190.606 188.016 190.129C188.727 189.652 189.259 188.981 189.611 188.116C189.97 187.251 190.15 186.239 190.15 185.08C190.15 183.921 189.97 182.917 189.611 182.066C189.259 181.208 188.727 180.541 188.016 180.064C187.312 179.587 186.428 179.342 185.365 179.327C184.302 179.32 183.418 179.554 182.714 180.031C182.01 180.508 181.478 181.179 181.119 182.044C180.767 182.909 180.591 183.921 180.591 185.08C180.591 186.239 180.767 187.247 181.119 188.105C181.471 188.956 181.999 189.619 182.703 190.096C183.414 190.573 184.302 190.818 185.365 190.833ZM201.524 193.33C200.263 193.33 199.152 193.073 198.191 192.56C197.238 192.047 196.49 191.324 195.947 190.393C195.412 189.462 195.144 188.369 195.144 187.115V177.182L197.828 177.16V187.049C197.828 187.643 197.927 188.175 198.125 188.644C198.331 189.113 198.606 189.513 198.95 189.843C199.295 190.166 199.691 190.411 200.138 190.58C200.586 190.749 201.048 190.833 201.524 190.833C202.016 190.833 202.481 190.749 202.921 190.58C203.369 190.404 203.765 190.155 204.109 189.832C204.454 189.502 204.725 189.102 204.923 188.633C205.121 188.164 205.22 187.636 205.22 187.049V177.16H207.904V187.115C207.904 188.369 207.633 189.462 207.09 190.393C206.555 191.324 205.807 192.047 204.846 192.56C203.893 193.073 202.786 193.33 201.524 193.33ZM215.603 193V177.16H218.254V190.514H225.25V193H215.603ZM226.013 193L231.007 177.16H234.89L239.884 193H237.156L232.624 178.788H233.218L228.741 193H226.013ZM228.796 189.568V187.093H237.112V189.568H228.796ZM247.823 193.33C246.562 193.33 245.451 193.073 244.49 192.56C243.537 192.047 242.789 191.324 242.246 190.393C241.711 189.462 241.443 188.369 241.443 187.115V177.182L244.127 177.16V187.049C244.127 187.643 244.226 188.175 244.424 188.644C244.63 189.113 244.905 189.513 245.249 189.843C245.594 190.166 245.99 190.411 246.437 190.58C246.885 190.749 247.347 190.833 247.823 190.833C248.315 190.833 248.78 190.749 249.22 190.58C249.668 190.404 250.064 190.155 250.408 189.832C250.753 189.502 251.024 189.102 251.222 188.633C251.42 188.164 251.519 187.636 251.519 187.049V177.16H254.203V187.115C254.203 188.369 253.932 189.462 253.389 190.393C252.854 191.324 252.106 192.047 251.145 192.56C250.192 193.073 249.085 193.33 247.823 193.33ZM257.277 193V177.16H259.961L267.309 188.325V177.16H269.993V193H267.309L259.961 181.835V193H257.277ZM279.767 193.33C278.183 193.33 276.827 192.985 275.697 192.296C274.568 191.599 273.699 190.631 273.09 189.392C272.489 188.153 272.188 186.715 272.188 185.08C272.188 183.445 272.489 182.007 273.09 180.768C273.699 179.529 274.568 178.564 275.697 177.875C276.827 177.178 278.183 176.83 279.767 176.83C281.593 176.83 283.115 177.288 284.332 178.205C285.55 179.114 286.404 180.343 286.895 181.89L284.222 182.627C283.914 181.593 283.39 180.786 282.649 180.207C281.909 179.62 280.948 179.327 279.767 179.327C278.704 179.327 277.817 179.565 277.105 180.042C276.401 180.519 275.87 181.19 275.51 182.055C275.158 182.913 274.979 183.921 274.971 185.08C274.971 186.239 275.147 187.251 275.499 188.116C275.859 188.974 276.394 189.641 277.105 190.118C277.817 190.595 278.704 190.833 279.767 190.833C280.948 190.833 281.909 190.54 282.649 189.953C283.39 189.366 283.914 188.56 284.222 187.533L286.895 188.27C286.404 189.817 285.55 191.049 284.332 191.966C283.115 192.875 281.593 193.33 279.767 193.33ZM289.311 193V177.16H291.962V183.826H299.464V177.16H302.104V193H299.464V186.312H291.962V193H289.311ZM305.187 193V177.16H315.417V179.646H307.838V183.551H314.097V186.037H307.838V190.514H315.417V193H305.187ZM318.057 193V177.16H323.106C323.238 177.16 323.498 177.164 323.887 177.171C324.283 177.178 324.664 177.204 325.031 177.248C326.285 177.409 327.344 177.857 328.21 178.59C329.082 179.316 329.742 180.244 330.19 181.373C330.637 182.502 330.861 183.738 330.861 185.08C330.861 186.422 330.637 187.658 330.19 188.787C329.742 189.916 329.082 190.848 328.21 191.581C327.344 192.307 326.285 192.751 325.031 192.912C324.671 192.956 324.294 192.982 323.898 192.989C323.502 192.996 323.238 193 323.106 193H318.057ZM320.752 190.503H323.106C323.326 190.503 323.604 190.496 323.942 190.481C324.286 190.466 324.591 190.433 324.855 190.382C325.603 190.243 326.211 189.909 326.681 189.381C327.15 188.853 327.495 188.211 327.715 187.456C327.942 186.701 328.056 185.909 328.056 185.08C328.056 184.222 327.942 183.415 327.715 182.66C327.487 181.905 327.135 181.27 326.659 180.757C326.189 180.244 325.588 179.917 324.855 179.778C324.591 179.719 324.286 179.686 323.942 179.679C323.604 179.664 323.326 179.657 323.106 179.657H320.752V190.503ZM336.765 193L341.759 177.16H345.642L350.636 193H347.908L343.376 178.788H343.97L339.493 193H336.765ZM339.548 189.568V187.093H347.864V189.568H339.548ZM362.892 193.33C361.734 193.33 360.689 193.128 359.757 192.725C358.833 192.322 358.071 191.746 357.469 190.998C356.875 190.243 356.498 189.348 356.336 188.314L359.086 187.896C359.321 188.835 359.801 189.561 360.527 190.074C361.261 190.587 362.104 190.844 363.057 190.844C363.622 190.844 364.154 190.756 364.652 190.58C365.151 190.404 365.554 190.147 365.862 189.81C366.178 189.473 366.335 189.058 366.335 188.567C366.335 188.347 366.299 188.145 366.225 187.962C366.152 187.771 366.042 187.603 365.895 187.456C365.756 187.309 365.573 187.177 365.345 187.06C365.125 186.935 364.869 186.829 364.575 186.741L360.483 185.531C360.131 185.428 359.75 185.293 359.339 185.124C358.936 184.948 358.551 184.71 358.184 184.409C357.825 184.101 357.528 183.712 357.293 183.243C357.066 182.766 356.952 182.18 356.952 181.483C356.952 180.464 357.209 179.609 357.722 178.92C358.243 178.223 358.94 177.703 359.812 177.358C360.692 177.013 361.668 176.845 362.738 176.852C363.824 176.859 364.792 177.046 365.642 177.413C366.493 177.772 367.204 178.297 367.776 178.986C368.348 179.675 368.752 180.508 368.986 181.483L366.137 181.978C366.02 181.421 365.793 180.948 365.455 180.559C365.125 180.163 364.718 179.862 364.234 179.657C363.758 179.452 363.248 179.342 362.705 179.327C362.177 179.32 361.686 179.4 361.231 179.569C360.784 179.73 360.421 179.965 360.142 180.273C359.871 180.581 359.735 180.94 359.735 181.351C359.735 181.74 359.853 182.059 360.087 182.308C360.322 182.55 360.612 182.744 360.956 182.891C361.308 183.03 361.664 183.148 362.023 183.243L364.861 184.035C365.25 184.138 365.686 184.277 366.17 184.453C366.654 184.629 367.12 184.875 367.567 185.19C368.015 185.505 368.381 185.92 368.667 186.433C368.961 186.946 369.107 187.599 369.107 188.391C369.107 189.212 368.935 189.935 368.59 190.558C368.253 191.174 367.795 191.687 367.215 192.098C366.636 192.509 365.972 192.817 365.224 193.022C364.484 193.227 363.706 193.33 362.892 193.33ZM375.294 193V179.646H370.168V177.16H383.071V179.646H377.945V193H375.294ZM383.3 193L388.294 177.16H392.177L397.171 193H394.443L389.911 178.788H390.505L386.028 193H383.3ZM386.083 189.568V187.093H394.399V189.568H386.083ZM399.16 193V177.16H405.705C405.859 177.16 406.057 177.167 406.299 177.182C406.541 177.189 406.765 177.211 406.97 177.248C407.887 177.387 408.642 177.692 409.236 178.161C409.837 178.63 410.281 179.224 410.567 179.943C410.86 180.654 411.007 181.446 411.007 182.319C411.007 183.61 410.681 184.721 410.028 185.652C409.375 186.576 408.374 187.148 407.025 187.368L405.892 187.467H401.811V193H399.16ZM408.257 193L405.133 186.554L407.828 185.96L411.26 193H408.257ZM401.811 184.992H405.595C405.742 184.992 405.907 184.985 406.09 184.97C406.273 184.955 406.442 184.926 406.596 184.882C407.036 184.772 407.381 184.578 407.63 184.299C407.887 184.02 408.066 183.705 408.169 183.353C408.279 183.001 408.334 182.656 408.334 182.319C408.334 181.982 408.279 181.637 408.169 181.285C408.066 180.926 407.887 180.607 407.63 180.328C407.381 180.049 407.036 179.855 406.596 179.745C406.442 179.701 406.273 179.675 406.09 179.668C405.907 179.653 405.742 179.646 405.595 179.646H401.811V184.992ZM417.49 193V179.646H412.364V177.16H425.267V179.646H420.141V193H417.49ZM433.405 193.33C432.144 193.33 431.033 193.073 430.072 192.56C429.119 192.047 428.371 191.324 427.828 190.393C427.293 189.462 427.025 188.369 427.025 187.115V177.182L429.709 177.16V187.049C429.709 187.643 429.808 188.175 430.006 188.644C430.212 189.113 430.487 189.513 430.831 189.843C431.176 190.166 431.572 190.411 432.019 190.58C432.467 190.749 432.929 190.833 433.405 190.833C433.897 190.833 434.362 190.749 434.802 190.58C435.25 190.404 435.646 190.155 435.99 189.832C436.335 189.502 436.606 189.102 436.804 188.633C437.002 188.164 437.101 187.636 437.101 187.049V177.16H439.785V187.115C439.785 188.369 439.514 189.462 438.971 190.393C438.436 191.324 437.688 192.047 436.727 192.56C435.774 193.073 434.667 193.33 433.405 193.33ZM442.859 193V177.16H449.404C449.558 177.16 449.756 177.167 449.998 177.182C450.24 177.189 450.464 177.211 450.669 177.248C451.586 177.387 452.341 177.692 452.935 178.161C453.537 178.63 453.98 179.224 454.266 179.943C454.56 180.654 454.706 181.446 454.706 182.319C454.706 183.184 454.56 183.976 454.266 184.695C453.973 185.406 453.526 185.997 452.924 186.466C452.33 186.935 451.579 187.24 450.669 187.379C450.464 187.408 450.237 187.43 449.987 187.445C449.745 187.46 449.551 187.467 449.404 187.467H445.51V193H442.859ZM445.51 184.992H449.294C449.441 184.992 449.606 184.985 449.789 184.97C449.973 184.955 450.141 184.926 450.295 184.882C450.735 184.772 451.08 184.578 451.329 184.299C451.586 184.02 451.766 183.705 451.868 183.353C451.978 183.001 452.033 182.656 452.033 182.319C452.033 181.982 451.978 181.637 451.868 181.285C451.766 180.926 451.586 180.607 451.329 180.328C451.08 180.049 450.735 179.855 450.295 179.745C450.141 179.701 449.973 179.675 449.789 179.668C449.606 179.653 449.441 179.646 449.294 179.646H445.51V184.992ZM453.167 195.805L453.321 194.661C453.658 194.69 453.926 194.632 454.124 194.485C454.322 194.346 454.454 194.144 454.52 193.88C454.593 193.623 454.611 193.33 454.575 193H453.167V190.173H455.884V193.11C455.884 194.071 455.656 194.797 455.202 195.288C454.747 195.779 454.069 195.952 453.167 195.805ZM101.476 224L96.8448 208.16H99.6278L102.785 219.6L105.931 208.182L108.714 208.16L111.871 219.6L115.017 208.16H117.8L113.18 224H110.562L107.317 212.736L104.094 224H101.476ZM119.595 224V208.16H122.246V214.826H129.748V208.16H132.388V224H129.748V217.312H122.246V224H119.595ZM135.692 224V208.16H138.343V224H135.692ZM148.337 224.33C146.753 224.33 145.396 223.985 144.267 223.296C143.137 222.599 142.268 221.631 141.66 220.392C141.058 219.153 140.758 217.715 140.758 216.08C140.758 214.445 141.058 213.007 141.66 211.768C142.268 210.529 143.137 209.564 144.267 208.875C145.396 208.178 146.753 207.83 148.337 207.83C150.163 207.83 151.684 208.288 152.902 209.205C154.119 210.114 154.973 211.343 155.465 212.89L152.792 213.627C152.484 212.593 151.959 211.786 151.219 211.207C150.478 210.62 149.517 210.327 148.337 210.327C147.273 210.327 146.386 210.565 145.675 211.042C144.971 211.519 144.439 212.19 144.08 213.055C143.728 213.913 143.548 214.921 143.541 216.08C143.541 217.239 143.717 218.251 144.069 219.116C144.428 219.974 144.963 220.641 145.675 221.118C146.386 221.595 147.273 221.833 148.337 221.833C149.517 221.833 150.478 221.54 151.219 220.953C151.959 220.366 152.484 219.56 152.792 218.533L155.465 219.27C154.973 220.817 154.119 222.049 152.902 222.966C151.684 223.875 150.163 224.33 148.337 224.33ZM157.88 224V208.16H160.531V214.826H168.033V208.16H170.673V224H168.033V217.312H160.531V224H157.88ZM184.024 224.33C182.865 224.33 181.82 224.128 180.889 223.725C179.965 223.322 179.202 222.746 178.601 221.998C178.007 221.243 177.629 220.348 177.468 219.314L180.218 218.896C180.453 219.835 180.933 220.561 181.659 221.074C182.392 221.587 183.236 221.844 184.189 221.844C184.754 221.844 185.285 221.756 185.784 221.58C186.283 221.404 186.686 221.147 186.994 220.81C187.309 220.473 187.467 220.058 187.467 219.567C187.467 219.347 187.43 219.145 187.357 218.962C187.284 218.771 187.174 218.603 187.027 218.456C186.888 218.309 186.704 218.177 186.477 218.06C186.257 217.935 186 217.829 185.707 217.741L181.615 216.531C181.263 216.428 180.882 216.293 180.471 216.124C180.068 215.948 179.683 215.71 179.316 215.409C178.957 215.101 178.66 214.712 178.425 214.243C178.198 213.766 178.084 213.18 178.084 212.483C178.084 211.464 178.341 210.609 178.854 209.92C179.375 209.223 180.071 208.703 180.944 208.358C181.824 208.013 182.799 207.845 183.87 207.852C184.955 207.859 185.923 208.046 186.774 208.413C187.625 208.772 188.336 209.297 188.908 209.986C189.48 210.675 189.883 211.508 190.118 212.483L187.269 212.978C187.152 212.421 186.924 211.948 186.587 211.559C186.257 211.163 185.85 210.862 185.366 210.657C184.889 210.452 184.38 210.342 183.837 210.327C183.309 210.32 182.818 210.4 182.363 210.569C181.916 210.73 181.553 210.965 181.274 211.273C181.003 211.581 180.867 211.94 180.867 212.351C180.867 212.74 180.984 213.059 181.219 213.308C181.454 213.55 181.743 213.744 182.088 213.891C182.44 214.03 182.796 214.148 183.155 214.243L185.993 215.035C186.382 215.138 186.818 215.277 187.302 215.453C187.786 215.629 188.252 215.875 188.699 216.19C189.146 216.505 189.513 216.92 189.799 217.433C190.092 217.946 190.239 218.599 190.239 219.391C190.239 220.212 190.067 220.935 189.722 221.558C189.385 222.174 188.926 222.687 188.347 223.098C187.768 223.509 187.104 223.817 186.356 224.022C185.615 224.227 184.838 224.33 184.024 224.33ZM192.62 224V208.16H199.165C199.319 208.16 199.517 208.167 199.759 208.182C200.001 208.189 200.225 208.211 200.43 208.248C201.347 208.387 202.102 208.692 202.696 209.161C203.297 209.63 203.741 210.224 204.027 210.943C204.32 211.654 204.467 212.446 204.467 213.319C204.467 214.184 204.32 214.976 204.027 215.695C203.734 216.406 203.286 216.997 202.685 217.466C202.091 217.935 201.339 218.24 200.43 218.379C200.225 218.408 199.997 218.43 199.748 218.445C199.506 218.46 199.312 218.467 199.165 218.467H195.271V224H192.62ZM195.271 215.992H199.055C199.202 215.992 199.367 215.985 199.55 215.97C199.733 215.955 199.902 215.926 200.056 215.882C200.496 215.772 200.841 215.578 201.09 215.299C201.347 215.02 201.526 214.705 201.629 214.353C201.739 214.001 201.794 213.656 201.794 213.319C201.794 212.982 201.739 212.637 201.629 212.285C201.526 211.926 201.347 211.607 201.09 211.328C200.841 211.049 200.496 210.855 200.056 210.745C199.902 210.701 199.733 210.675 199.55 210.668C199.367 210.653 199.202 210.646 199.055 210.646H195.271V215.992ZM206.671 224V208.16H209.322V214.826H216.824V208.16H219.464V224H216.824V217.312H209.322V224H206.671ZM222.548 224V208.16H232.778V210.646H225.199V214.551H231.458V217.037H225.199V221.514H232.778V224H222.548ZM235.417 224V208.16H241.962C242.116 208.16 242.314 208.167 242.556 208.182C242.798 208.189 243.022 208.211 243.227 208.248C244.144 208.387 244.899 208.692 245.493 209.161C246.094 209.63 246.538 210.224 246.824 210.943C247.117 211.654 247.264 212.446 247.264 213.319C247.264 214.61 246.938 215.721 246.285 216.652C245.632 217.576 244.631 218.148 243.282 218.368L242.149 218.467H238.068V224H235.417ZM244.514 224L241.39 217.554L244.085 216.96L247.517 224H244.514ZM238.068 215.992H241.852C241.999 215.992 242.164 215.985 242.347 215.97C242.53 215.955 242.699 215.926 242.853 215.882C243.293 215.772 243.638 215.578 243.887 215.299C244.144 215.02 244.323 214.705 244.426 214.353C244.536 214.001 244.591 213.656 244.591 213.319C244.591 212.982 244.536 212.637 244.426 212.285C244.323 211.926 244.144 211.607 243.887 211.328C243.638 211.049 243.293 210.855 242.853 210.745C242.699 210.701 242.53 210.675 242.347 210.668C242.164 210.653 241.999 210.646 241.852 210.646H238.068V215.992ZM249.94 224V208.16H260.17V210.646H252.591V214.551H258.85V217.037H252.591V221.514H260.17V224H249.94ZM270.558 224L265.927 208.16H268.71L271.867 219.6L275.013 208.182L277.796 208.16L280.953 219.6L284.099 208.16H286.882L282.262 224H279.644L276.399 212.736L273.176 224H270.558ZM294.946 224.33C293.362 224.33 292.005 223.985 290.876 223.296C289.747 222.599 288.878 221.631 288.269 220.392C287.668 219.153 287.367 217.715 287.367 216.08C287.367 214.445 287.668 213.007 288.269 211.768C288.878 210.529 289.747 209.564 290.876 208.875C292.005 208.178 293.362 207.83 294.946 207.83C296.53 207.83 297.887 208.178 299.016 208.875C300.153 209.564 301.022 210.529 301.623 211.768C302.232 213.007 302.536 214.445 302.536 216.08C302.536 217.715 302.232 219.153 301.623 220.392C301.022 221.631 300.153 222.599 299.016 223.296C297.887 223.985 296.53 224.33 294.946 224.33ZM294.946 221.833C296.009 221.84 296.893 221.606 297.597 221.129C298.308 220.652 298.84 219.981 299.192 219.116C299.551 218.251 299.731 217.239 299.731 216.08C299.731 214.921 299.551 213.917 299.192 213.066C298.84 212.208 298.308 211.541 297.597 211.064C296.893 210.587 296.009 210.342 294.946 210.327C293.883 210.32 292.999 210.554 292.295 211.031C291.591 211.508 291.059 212.179 290.7 213.044C290.348 213.909 290.172 214.921 290.172 216.08C290.172 217.239 290.348 218.247 290.7 219.105C291.052 219.956 291.58 220.619 292.284 221.096C292.995 221.573 293.883 221.818 294.946 221.833ZM311.106 224.33C309.844 224.33 308.733 224.073 307.773 223.56C306.819 223.047 306.071 222.324 305.529 221.393C304.993 220.462 304.726 219.369 304.726 218.115V208.182L307.41 208.16V218.049C307.41 218.643 307.509 219.175 307.707 219.644C307.912 220.113 308.187 220.513 308.532 220.843C308.876 221.166 309.272 221.411 309.72 221.58C310.167 221.749 310.629 221.833 311.106 221.833C311.597 221.833 312.063 221.749 312.503 221.58C312.95 221.404 313.346 221.155 313.691 220.832C314.035 220.502 314.307 220.102 314.505 219.633C314.703 219.164 314.802 218.636 314.802 218.049V208.16H317.486V218.115C317.486 219.369 317.214 220.462 316.672 221.393C316.136 222.324 315.388 223.047 314.428 223.56C313.474 224.073 312.367 224.33 311.106 224.33ZM320.78 224V208.16H323.431V221.514H330.427V224H320.78ZM332.29 224V208.16H337.339C337.471 208.16 337.731 208.164 338.12 208.171C338.516 208.178 338.897 208.204 339.264 208.248C340.518 208.409 341.578 208.857 342.443 209.59C343.316 210.316 343.976 211.244 344.423 212.373C344.87 213.502 345.094 214.738 345.094 216.08C345.094 217.422 344.87 218.658 344.423 219.787C343.976 220.916 343.316 221.848 342.443 222.581C341.578 223.307 340.518 223.751 339.264 223.912C338.905 223.956 338.527 223.982 338.131 223.989C337.735 223.996 337.471 224 337.339 224H332.29ZM334.985 221.503H337.339C337.559 221.503 337.838 221.496 338.175 221.481C338.52 221.466 338.824 221.433 339.088 221.382C339.836 221.243 340.445 220.909 340.914 220.381C341.383 219.853 341.728 219.211 341.948 218.456C342.175 217.701 342.289 216.909 342.289 216.08C342.289 215.222 342.175 214.415 341.948 213.66C341.721 212.905 341.369 212.27 340.892 211.757C340.423 211.244 339.821 210.917 339.088 210.778C338.824 210.719 338.52 210.686 338.175 210.679C337.838 210.664 337.559 210.657 337.339 210.657H334.985V221.503ZM355.949 224V217.51L350.559 208.16H353.65L357.291 214.474L360.921 208.16H364.012L358.633 217.51V224H355.949ZM371.366 224.33C369.782 224.33 368.425 223.985 367.296 223.296C366.167 222.599 365.298 221.631 364.689 220.392C364.088 219.153 363.787 217.715 363.787 216.08C363.787 214.445 364.088 213.007 364.689 211.768C365.298 210.529 366.167 209.564 367.296 208.875C368.425 208.178 369.782 207.83 371.366 207.83C372.95 207.83 374.307 208.178 375.436 208.875C376.573 209.564 377.442 210.529 378.043 211.768C378.652 213.007 378.956 214.445 378.956 216.08C378.956 217.715 378.652 219.153 378.043 220.392C377.442 221.631 376.573 222.599 375.436 223.296C374.307 223.985 372.95 224.33 371.366 224.33ZM371.366 221.833C372.429 221.84 373.313 221.606 374.017 221.129C374.728 220.652 375.26 219.981 375.612 219.116C375.971 218.251 376.151 217.239 376.151 216.08C376.151 214.921 375.971 213.917 375.612 213.066C375.26 212.208 374.728 211.541 374.017 211.064C373.313 210.587 372.429 210.342 371.366 210.327C370.303 210.32 369.419 210.554 368.715 211.031C368.011 211.508 367.479 212.179 367.12 213.044C366.768 213.909 366.592 214.921 366.592 216.08C366.592 217.239 366.768 218.247 367.12 219.105C367.472 219.956 368 220.619 368.704 221.096C369.415 221.573 370.303 221.818 371.366 221.833ZM387.525 224.33C386.264 224.33 385.153 224.073 384.192 223.56C383.239 223.047 382.491 222.324 381.948 221.393C381.413 220.462 381.145 219.369 381.145 218.115V208.182L383.829 208.16V218.049C383.829 218.643 383.928 219.175 384.126 219.644C384.332 220.113 384.607 220.513 384.951 220.843C385.296 221.166 385.692 221.411 386.139 221.58C386.587 221.749 387.049 221.833 387.525 221.833C388.017 221.833 388.482 221.749 388.922 221.58C389.37 221.404 389.766 221.155 390.11 220.832C390.455 220.502 390.726 220.102 390.924 219.633C391.122 219.164 391.221 218.636 391.221 218.049V208.16H393.905V218.115C393.905 219.369 393.634 220.462 393.091 221.393C392.556 222.324 391.808 223.047 390.847 223.56C389.894 224.073 388.787 224.33 387.525 224.33ZM408.083 224.33C406.499 224.33 405.142 223.985 404.013 223.296C402.883 222.599 402.014 221.631 401.406 220.392C400.804 219.153 400.504 217.715 400.504 216.08C400.504 214.445 400.804 213.007 401.406 211.768C402.014 210.529 402.883 209.564 404.013 208.875C405.142 208.178 406.499 207.83 408.083 207.83C409.909 207.83 411.43 208.288 412.648 209.205C413.865 210.114 414.719 211.343 415.211 212.89L412.538 213.627C412.23 212.593 411.705 211.786 410.965 211.207C410.224 210.62 409.263 210.327 408.083 210.327C407.019 210.327 406.132 210.565 405.421 211.042C404.717 211.519 404.185 212.19 403.826 213.055C403.474 213.913 403.294 214.921 403.287 216.08C403.287 217.239 403.463 218.251 403.815 219.116C404.174 219.974 404.709 220.641 405.421 221.118C406.132 221.595 407.019 221.833 408.083 221.833C409.263 221.833 410.224 221.54 410.965 220.953C411.705 220.366 412.23 219.56 412.538 218.533L415.211 219.27C414.719 220.817 413.865 222.049 412.648 222.966C411.43 223.875 409.909 224.33 408.083 224.33ZM417.626 224V208.16H420.277V214.826H427.779V208.16H430.419V224H427.779V217.312H420.277V224H417.626ZM440.202 224.33C438.618 224.33 437.261 223.985 436.132 223.296C435.003 222.599 434.134 221.631 433.525 220.392C432.924 219.153 432.623 217.715 432.623 216.08C432.623 214.445 432.924 213.007 433.525 211.768C434.134 210.529 435.003 209.564 436.132 208.875C437.261 208.178 438.618 207.83 440.202 207.83C441.786 207.83 443.143 208.178 444.272 208.875C445.409 209.564 446.278 210.529 446.879 211.768C447.488 213.007 447.792 214.445 447.792 216.08C447.792 217.715 447.488 219.153 446.879 220.392C446.278 221.631 445.409 222.599 444.272 223.296C443.143 223.985 441.786 224.33 440.202 224.33ZM440.202 221.833C441.265 221.84 442.149 221.606 442.853 221.129C443.564 220.652 444.096 219.981 444.448 219.116C444.807 218.251 444.987 217.239 444.987 216.08C444.987 214.921 444.807 213.917 444.448 213.066C444.096 212.208 443.564 211.541 442.853 211.064C442.149 210.587 441.265 210.342 440.202 210.327C439.139 210.32 438.255 210.554 437.551 211.031C436.847 211.508 436.315 212.179 435.956 213.044C435.604 213.909 435.428 214.921 435.428 216.08C435.428 217.239 435.604 218.247 435.956 219.105C436.308 219.956 436.836 220.619 437.54 221.096C438.251 221.573 439.139 221.818 440.202 221.833ZM456.68 224.33C455.096 224.33 453.74 223.985 452.61 223.296C451.481 222.599 450.612 221.631 450.003 220.392C449.402 219.153 449.101 217.715 449.101 216.08C449.101 214.445 449.402 213.007 450.003 211.768C450.612 210.529 451.481 209.564 452.61 208.875C453.74 208.178 455.096 207.83 456.68 207.83C458.264 207.83 459.621 208.178 460.75 208.875C461.887 209.564 462.756 210.529 463.357 211.768C463.966 213.007 464.27 214.445 464.27 216.08C464.27 217.715 463.966 219.153 463.357 220.392C462.756 221.631 461.887 222.599 460.75 223.296C459.621 223.985 458.264 224.33 456.68 224.33ZM456.68 221.833C457.744 221.84 458.627 221.606 459.331 221.129C460.043 220.652 460.574 219.981 460.926 219.116C461.286 218.251 461.465 217.239 461.465 216.08C461.465 214.921 461.286 213.917 460.926 213.066C460.574 212.208 460.043 211.541 459.331 211.064C458.627 210.587 457.744 210.342 456.68 210.327C455.617 210.32 454.733 210.554 454.029 211.031C453.325 211.508 452.794 212.179 452.434 213.044C452.082 213.909 451.906 214.921 451.906 216.08C451.906 217.239 452.082 218.247 452.434 219.105C452.786 219.956 453.314 220.619 454.018 221.096C454.73 221.573 455.617 221.818 456.68 221.833ZM472.323 224.33C471.164 224.33 470.119 224.128 469.188 223.725C468.264 223.322 467.501 222.746 466.9 221.998C466.306 221.243 465.928 220.348 465.767 219.314L468.517 218.896C468.752 219.835 469.232 220.561 469.958 221.074C470.691 221.587 471.535 221.844 472.488 221.844C473.053 221.844 473.584 221.756 474.083 221.58C474.582 221.404 474.985 221.147 475.293 220.81C475.608 220.473 475.766 220.058 475.766 219.567C475.766 219.347 475.729 219.145 475.656 218.962C475.583 218.771 475.473 218.603 475.326 218.456C475.187 218.309 475.003 218.177 474.776 218.06C474.556 217.935 474.299 217.829 474.006 217.741L469.914 216.531C469.562 216.428 469.181 216.293 468.77 216.124C468.367 215.948 467.982 215.71 467.615 215.409C467.256 215.101 466.959 214.712 466.724 214.243C466.497 213.766 466.383 213.18 466.383 212.483C466.383 211.464 466.64 210.609 467.153 209.92C467.674 209.223 468.37 208.703 469.243 208.358C470.123 208.013 471.098 207.845 472.169 207.852C473.254 207.859 474.222 208.046 475.073 208.413C475.924 208.772 476.635 209.297 477.207 209.986C477.779 210.675 478.182 211.508 478.417 212.483L475.568 212.978C475.451 212.421 475.223 211.948 474.886 211.559C474.556 211.163 474.149 210.862 473.665 210.657C473.188 210.452 472.679 210.342 472.136 210.327C471.608 210.32 471.117 210.4 470.662 210.569C470.215 210.73 469.852 210.965 469.573 211.273C469.302 211.581 469.166 211.94 469.166 212.351C469.166 212.74 469.283 213.059 469.518 213.308C469.753 213.55 470.042 213.744 470.387 213.891C470.739 214.03 471.095 214.148 471.454 214.243L474.292 215.035C474.681 215.138 475.117 215.277 475.601 215.453C476.085 215.629 476.551 215.875 476.998 216.19C477.445 216.505 477.812 216.92 478.098 217.433C478.391 217.946 478.538 218.599 478.538 219.391C478.538 220.212 478.366 220.935 478.021 221.558C477.684 222.174 477.225 222.687 476.646 223.098C476.067 223.509 475.403 223.817 474.655 224.022C473.914 224.227 473.137 224.33 472.323 224.33ZM480.919 224V208.16H491.149V210.646H483.57V214.551H489.829V217.037H483.57V221.514H491.149V224H480.919ZM496.659 219.699C496.659 219.193 496.707 218.705 496.802 218.236C496.905 217.759 497.07 217.319 497.297 216.916C497.495 216.527 497.715 216.219 497.957 215.992C498.199 215.757 498.47 215.526 498.771 215.299C499.072 215.064 499.405 214.753 499.772 214.364C500.073 214.034 500.271 213.708 500.366 213.385C500.461 213.055 500.509 212.703 500.509 212.329C500.509 212.087 500.483 211.86 500.432 211.647C500.381 211.434 500.289 211.251 500.157 211.097C499.952 210.826 499.688 210.635 499.365 210.525C499.042 210.408 498.698 210.349 498.331 210.349C498.03 210.349 497.741 210.389 497.462 210.47C497.191 210.543 496.96 210.661 496.769 210.822C496.549 210.998 496.388 211.214 496.285 211.471C496.182 211.728 496.135 212.01 496.142 212.318H493.348C493.421 211.585 493.619 210.906 493.942 210.283C494.272 209.652 494.705 209.15 495.24 208.776C495.658 208.468 496.127 208.237 496.648 208.083C497.176 207.929 497.704 207.852 498.232 207.852C499.039 207.852 499.798 207.977 500.509 208.226C501.228 208.475 501.825 208.886 502.302 209.458C502.632 209.832 502.881 210.265 503.05 210.756C503.226 211.247 503.314 211.746 503.314 212.252C503.314 213.007 503.149 213.697 502.819 214.32C502.496 214.943 502.086 215.519 501.587 216.047C501.352 216.296 501.129 216.516 500.916 216.707C500.703 216.898 500.505 217.085 500.322 217.268C500.146 217.444 499.999 217.631 499.882 217.829C499.677 218.174 499.556 218.467 499.519 218.709C499.482 218.944 499.464 219.274 499.464 219.699H496.659ZM496.681 224V221.085H499.464V224H496.681Z" fill="white"></path><rect x="20" y="20" width="163" height="40" rx="20" fill="white" fill-opacity="0.3"></rect><path d="M33.245 46V34.48H37.733C38.421 34.48 39.0077 34.6213 39.493 34.904C39.9837 35.1867 40.357 35.56 40.613 36.024C40.8743 36.4827 41.005 36.9787 41.005 37.512C41.005 38.136 40.845 38.6827 40.525 39.152C40.205 39.6213 39.773 39.944 39.229 40.12L39.213 39.728C39.9543 39.9253 40.5303 40.288 40.941 40.816C41.3517 41.344 41.557 41.9733 41.557 42.704C41.557 43.376 41.4183 43.9573 41.141 44.448C40.869 44.9387 40.4743 45.32 39.957 45.592C39.445 45.864 38.837 46 38.133 46H33.245ZM34.685 44.64H37.861C38.2877 44.64 38.669 44.5627 39.005 44.408C39.341 44.248 39.605 44.024 39.797 43.736C39.9943 43.448 40.093 43.1013 40.093 42.696C40.093 42.3067 40.005 41.9573 39.829 41.648C39.6583 41.3387 39.4157 41.0933 39.101 40.912C38.7917 40.7253 38.4317 40.632 38.021 40.632H34.685V44.64ZM34.685 39.288H37.717C38.0583 39.288 38.365 39.216 38.637 39.072C38.9143 38.9227 39.133 38.7147 39.293 38.448C39.4583 38.1813 39.541 37.8693 39.541 37.512C39.541 37.016 39.373 36.6107 39.037 36.296C38.701 35.9813 38.261 35.824 37.717 35.824H34.685V39.288ZM47.6953 46.24C46.8046 46.24 46.0179 46.056 45.3353 45.688C44.6526 45.32 44.1166 44.8053 43.7273 44.144C43.3433 43.4773 43.1513 42.696 43.1513 41.8V34.488L44.5913 34.48V41.68C44.5913 42.224 44.6819 42.6987 44.8633 43.104C45.0499 43.504 45.2953 43.8373 45.5993 44.104C45.9033 44.3707 46.2366 44.5707 46.5993 44.704C46.9673 44.832 47.3326 44.896 47.6953 44.896C48.0633 44.896 48.4313 44.8293 48.7993 44.696C49.1673 44.5627 49.5006 44.3653 49.7993 44.104C50.1033 43.8373 50.3459 43.5013 50.5273 43.096C50.7086 42.6907 50.7993 42.2187 50.7993 41.68V34.48H52.2393V41.8C52.2393 42.6907 52.0446 43.4693 51.6553 44.136C51.2713 44.8027 50.7379 45.32 50.0553 45.688C49.3726 46.056 48.5859 46.24 47.6953 46.24ZM58.083 46.24C57.267 46.24 56.531 46.1013 55.875 45.824C55.2243 45.5467 54.6857 45.152 54.259 44.64C53.8377 44.1227 53.563 43.512 53.435 42.808L54.907 42.576C55.0937 43.3013 55.4803 43.8693 56.067 44.28C56.659 44.6853 57.355 44.888 58.155 44.888C58.6723 44.888 59.139 44.808 59.555 44.648C59.9763 44.4827 60.3097 44.248 60.555 43.944C60.8003 43.64 60.923 43.28 60.923 42.864C60.923 42.608 60.8777 42.3893 60.787 42.208C60.7017 42.0213 60.5817 41.864 60.427 41.736C60.2777 41.6027 60.107 41.4907 59.915 41.4C59.723 41.3093 59.523 41.2347 59.315 41.176L56.379 40.304C56.059 40.208 55.7497 40.088 55.451 39.944C55.1523 39.7947 54.8857 39.6107 54.651 39.392C54.4163 39.168 54.2297 38.9013 54.091 38.592C53.9523 38.2773 53.883 37.9067 53.883 37.48C53.883 36.7973 54.059 36.216 54.411 35.736C54.7683 35.2507 55.251 34.88 55.859 34.624C56.467 34.368 57.1523 34.2427 57.915 34.248C58.6883 34.2533 59.379 34.392 59.987 34.664C60.6003 34.9307 61.107 35.3147 61.507 35.816C61.9123 36.3173 62.1843 36.9173 62.323 37.616L60.811 37.88C60.731 37.4107 60.5523 37.008 60.275 36.672C60.003 36.3307 59.6617 36.0693 59.251 35.888C58.8403 35.7013 58.3897 35.6053 57.899 35.6C57.4297 35.5947 57.0057 35.6693 56.627 35.824C56.2483 35.9787 55.947 36.1947 55.723 36.472C55.499 36.744 55.387 37.0587 55.387 37.416C55.387 37.768 55.4883 38.0533 55.691 38.272C55.8937 38.4853 56.1417 38.656 56.435 38.784C56.7337 38.9067 57.0243 39.008 57.307 39.088L59.499 39.72C59.7497 39.7893 60.0377 39.8853 60.363 40.008C60.6937 40.1307 61.0137 40.304 61.323 40.528C61.6323 40.7467 61.8883 41.04 62.091 41.408C62.2937 41.7707 62.395 42.2293 62.395 42.784C62.395 43.3387 62.283 43.832 62.059 44.264C61.8403 44.696 61.5337 45.0587 61.139 45.352C60.7443 45.64 60.2857 45.8587 59.763 46.008C59.2403 46.1627 58.6803 46.24 58.083 46.24ZM64.2331 46V34.48H65.6571V46H64.2331ZM68.0575 46V34.48H69.4975L75.5055 43.48V34.48H76.9455V46H75.5055L69.4975 36.992V46H68.0575ZM79.1825 46V34.48H86.4625V35.832H80.6065V39.44H85.5025V40.792H80.6065V44.648H86.4625V46H79.1825ZM92.1455 46.24C91.3295 46.24 90.5935 46.1013 89.9375 45.824C89.2868 45.5467 88.7482 45.152 88.3215 44.64C87.9002 44.1227 87.6255 43.512 87.4975 42.808L88.9695 42.576C89.1562 43.3013 89.5428 43.8693 90.1295 44.28C90.7215 44.6853 91.4175 44.888 92.2175 44.888C92.7348 44.888 93.2015 44.808 93.6175 44.648C94.0388 44.4827 94.3722 44.248 94.6175 43.944C94.8628 43.64 94.9855 43.28 94.9855 42.864C94.9855 42.608 94.9402 42.3893 94.8495 42.208C94.7642 42.0213 94.6442 41.864 94.4895 41.736C94.3402 41.6027 94.1695 41.4907 93.9775 41.4C93.7855 41.3093 93.5855 41.2347 93.3775 41.176L90.4415 40.304C90.1215 40.208 89.8122 40.088 89.5135 39.944C89.2148 39.7947 88.9482 39.6107 88.7135 39.392C88.4788 39.168 88.2922 38.9013 88.1535 38.592C88.0148 38.2773 87.9455 37.9067 87.9455 37.48C87.9455 36.7973 88.1215 36.216 88.4735 35.736C88.8308 35.2507 89.3135 34.88 89.9215 34.624C90.5295 34.368 91.2148 34.2427 91.9775 34.248C92.7508 34.2533 93.4415 34.392 94.0495 34.664C94.6628 34.9307 95.1695 35.3147 95.5695 35.816C95.9748 36.3173 96.2468 36.9173 96.3855 37.616L94.8735 37.88C94.7935 37.4107 94.6148 37.008 94.3375 36.672C94.0655 36.3307 93.7242 36.0693 93.3135 35.888C92.9028 35.7013 92.4522 35.6053 91.9615 35.6C91.4922 35.5947 91.0682 35.6693 90.6895 35.824C90.3108 35.9787 90.0095 36.1947 89.7855 36.472C89.5615 36.744 89.4495 37.0587 89.4495 37.416C89.4495 37.768 89.5508 38.0533 89.7535 38.272C89.9562 38.4853 90.2042 38.656 90.4975 38.784C90.7962 38.9067 91.0868 39.008 91.3695 39.088L93.5615 39.72C93.8122 39.7893 94.1002 39.8853 94.4255 40.008C94.7562 40.1307 95.0762 40.304 95.3855 40.528C95.6948 40.7467 95.9508 41.04 96.1535 41.408C96.3562 41.7707 96.4575 42.2293 96.4575 42.784C96.4575 43.3387 96.3455 43.832 96.1215 44.264C95.9028 44.696 95.5962 45.0587 95.2015 45.352C94.8068 45.64 94.3482 45.8587 93.8255 46.008C93.3028 46.1627 92.7428 46.24 92.1455 46.24ZM102.458 46.24C101.642 46.24 100.906 46.1013 100.25 45.824C99.5993 45.5467 99.0607 45.152 98.634 44.64C98.2127 44.1227 97.938 43.512 97.81 42.808L99.282 42.576C99.4687 43.3013 99.8553 43.8693 100.442 44.28C101.034 44.6853 101.73 44.888 102.53 44.888C103.047 44.888 103.514 44.808 103.93 44.648C104.351 44.4827 104.685 44.248 104.93 43.944C105.175 43.64 105.298 43.28 105.298 42.864C105.298 42.608 105.253 42.3893 105.162 42.208C105.077 42.0213 104.957 41.864 104.802 41.736C104.653 41.6027 104.482 41.4907 104.29 41.4C104.098 41.3093 103.898 41.2347 103.69 41.176L100.754 40.304C100.434 40.208 100.125 40.088 99.826 39.944C99.5273 39.7947 99.2607 39.6107 99.026 39.392C98.7913 39.168 98.6047 38.9013 98.466 38.592C98.3273 38.2773 98.258 37.9067 98.258 37.48C98.258 36.7973 98.434 36.216 98.786 35.736C99.1433 35.2507 99.626 34.88 100.234 34.624C100.842 34.368 101.527 34.2427 102.29 34.248C103.063 34.2533 103.754 34.392 104.362 34.664C104.975 34.9307 105.482 35.3147 105.882 35.816C106.287 36.3173 106.559 36.9173 106.698 37.616L105.186 37.88C105.106 37.4107 104.927 37.008 104.65 36.672C104.378 36.3307 104.037 36.0693 103.626 35.888C103.215 35.7013 102.765 35.6053 102.274 35.6C101.805 35.5947 101.381 35.6693 101.002 35.824C100.623 35.9787 100.322 36.1947 100.098 36.472C99.874 36.744 99.762 37.0587 99.762 37.416C99.762 37.768 99.8633 38.0533 100.066 38.272C100.269 38.4853 100.517 38.656 100.81 38.784C101.109 38.9067 101.399 39.008 101.682 39.088L103.874 39.72C104.125 39.7893 104.413 39.8853 104.738 40.008C105.069 40.1307 105.389 40.304 105.698 40.528C106.007 40.7467 106.263 41.04 106.466 41.408C106.669 41.7707 106.77 42.2293 106.77 42.784C106.77 43.3387 106.658 43.832 106.434 44.264C106.215 44.696 105.909 45.0587 105.514 45.352C105.119 45.64 104.661 45.8587 104.138 46.008C103.615 46.1627 103.055 46.24 102.458 46.24ZM115.395 46.24C114.755 46.24 114.158 46.1467 113.603 45.96C113.049 45.7733 112.585 45.48 112.211 45.08C111.923 44.76 111.707 44.408 111.563 44.024C111.425 43.6347 111.347 43.224 111.331 42.792C111.331 42.3707 111.393 41.96 111.515 41.56C111.638 41.1547 111.833 40.7947 112.099 40.48C112.238 40.3093 112.393 40.1653 112.563 40.048C112.739 39.9253 112.915 39.8213 113.091 39.736C112.723 39.3413 112.441 38.9707 112.243 38.624C112.051 38.2773 111.955 37.8587 111.955 37.368C111.955 36.744 112.115 36.1813 112.435 35.68C112.761 35.1733 113.203 34.8027 113.763 34.568C114.035 34.4507 114.313 34.3707 114.595 34.328C114.883 34.28 115.163 34.256 115.435 34.256C115.894 34.256 116.339 34.32 116.771 34.448C117.203 34.576 117.571 34.784 117.875 35.072C118.078 35.2427 118.251 35.44 118.395 35.664C118.539 35.8827 118.651 36.112 118.731 36.352L117.339 36.712C117.238 36.44 117.07 36.2107 116.835 36.024C116.649 35.864 116.43 35.7547 116.179 35.696C115.934 35.6373 115.686 35.608 115.435 35.608C115.019 35.608 114.643 35.688 114.307 35.848C114.009 35.992 113.785 36.1947 113.635 36.456C113.486 36.712 113.411 37.016 113.411 37.368C113.411 37.672 113.462 37.9227 113.563 38.12C113.67 38.312 113.817 38.5173 114.003 38.736C114.115 38.8533 114.241 38.9787 114.379 39.112C114.523 39.24 114.67 39.3733 114.819 39.512L118.211 42.664C118.227 42.5307 118.238 42.3947 118.243 42.256C118.249 42.1173 118.251 41.984 118.251 41.856L118.243 40.264H119.547V42.136C119.547 42.5147 119.534 42.8373 119.507 43.104C119.486 43.3707 119.449 43.592 119.395 43.768L120.859 45.12L119.931 46.112L118.715 44.96C118.507 45.1947 118.259 45.4 117.971 45.576C117.683 45.752 117.395 45.8853 117.107 45.976C116.835 46.0773 116.555 46.1467 116.267 46.184C115.979 46.2213 115.689 46.24 115.395 46.24ZM115.427 44.872C115.689 44.872 115.926 44.856 116.139 44.824C116.353 44.792 116.555 44.7307 116.747 44.64C117.003 44.5173 117.201 44.4 117.339 44.288C117.478 44.176 117.593 44.072 117.683 43.976L114.171 40.76C113.979 40.824 113.798 40.9093 113.627 41.016C113.462 41.1227 113.318 41.248 113.195 41.392C113.057 41.5627 112.953 41.7627 112.883 41.992C112.819 42.2213 112.787 42.464 112.787 42.72C112.793 42.992 112.838 43.2427 112.923 43.472C113.009 43.7013 113.129 43.9067 113.283 44.088C113.518 44.36 113.835 44.56 114.235 44.688C114.635 44.8107 115.033 44.872 115.427 44.872ZM127.826 46L124.49 34.48H125.978L128.538 43.592L131.09 34.488L132.586 34.48L135.146 43.592L137.698 34.48H139.194L135.858 46H134.434L131.842 36.968L129.25 46H127.826ZM144.981 46.24C143.834 46.24 142.861 45.9867 142.061 45.48C141.261 44.9733 140.65 44.2693 140.229 43.368C139.813 42.4667 139.605 41.424 139.605 40.24C139.605 39.056 139.813 38.0133 140.229 37.112C140.65 36.2107 141.261 35.5067 142.061 35C142.861 34.4933 143.834 34.24 144.981 34.24C146.133 34.24 147.109 34.4933 147.909 35C148.709 35.5067 149.317 36.2107 149.733 37.112C150.149 38.0133 150.357 39.056 150.357 40.24C150.357 41.424 150.149 42.4667 149.733 43.368C149.317 44.2693 148.709 44.9733 147.909 45.48C147.109 45.9867 146.133 46.24 144.981 46.24ZM144.981 44.88C145.84 44.8853 146.554 44.6933 147.125 44.304C147.701 43.9093 148.13 43.3627 148.413 42.664C148.701 41.9653 148.845 41.1573 148.845 40.24C148.845 39.3173 148.701 38.5093 148.413 37.816C148.13 37.1227 147.701 36.5813 147.125 36.192C146.554 35.8027 145.84 35.6053 144.981 35.6C144.122 35.5947 143.408 35.7867 142.837 36.176C142.272 36.5653 141.845 37.1093 141.557 37.808C141.269 38.5067 141.122 39.3173 141.117 40.24C141.112 41.1573 141.253 41.9627 141.541 42.656C141.829 43.3493 142.258 43.8933 142.829 44.288C143.405 44.6773 144.122 44.8747 144.981 44.88ZM151.964 46V34.48H156.516C156.628 34.48 156.761 34.4853 156.916 34.496C157.07 34.5013 157.22 34.5173 157.364 34.544C157.988 34.64 158.51 34.8533 158.932 35.184C159.358 35.5147 159.678 35.9333 159.892 36.44C160.105 36.9413 160.212 37.4987 160.212 38.112C160.212 39.0027 159.98 39.776 159.516 40.432C159.052 41.0827 158.372 41.4907 157.476 41.656L156.932 41.744H153.388V46H151.964ZM158.82 46L156.548 41.312L157.956 40.88L160.452 46H158.82ZM153.388 40.392H156.468C156.569 40.392 156.684 40.3867 156.812 40.376C156.945 40.3653 157.07 40.3467 157.188 40.32C157.556 40.2347 157.854 40.08 158.084 39.856C158.318 39.6267 158.489 39.36 158.596 39.056C158.702 38.7467 158.756 38.432 158.756 38.112C158.756 37.792 158.702 37.48 158.596 37.176C158.489 36.8667 158.318 36.5973 158.084 36.368C157.854 36.1387 157.556 35.984 157.188 35.904C157.07 35.872 156.945 35.8533 156.812 35.848C156.684 35.8373 156.569 35.832 156.468 35.832H153.388V40.392ZM162.214 46V34.48H163.638V39.888L168.678 34.48H170.47L165.238 40.072L170.878 46H169.038L163.638 40.368V46H162.214Z" fill="white"></path><defs><linearGradient id="paint0_linear_160_197" x1="300" y1="0" x2="300" y2="400" gradientUnits="userSpaceOnUse"><stop stop-color="#41295A"></stop><stop offset="1" stop-color="#2F0743"></stop></linearGradient></defs></svg> 