<?xml version="1.0" encoding="UTF-8"?> <svg xmlns="http://www.w3.org/2000/svg" width="600" height="400" viewBox="0 0 600 400" fill="none"><rect width="600" height="400" rx="20" fill="url(#paint0_linear_136_351)"></rect><path d="M68.8303 208L64.1993 192.16H66.9823L70.1393 203.6L73.2853 192.182L76.0683 192.16L79.2253 203.6L82.3713 192.16H85.1543L80.5343 208H77.9163L74.6713 196.736L71.4483 208H68.8303ZM86.9492 208V192.16H89.6002V198.826H97.1022V192.16H99.7422V208H97.1022V201.312H89.6002V208H86.9492ZM103.046 208V192.16H105.697V208H103.046ZM115.691 208.33C114.107 208.33 112.75 207.985 111.621 207.296C110.492 206.599 109.623 205.631 109.014 204.392C108.413 203.153 108.112 201.715 108.112 200.08C108.112 198.445 108.413 197.007 109.014 195.768C109.623 194.529 110.492 193.564 111.621 192.875C112.75 192.178 114.107 191.83 115.691 191.83C117.517 191.83 119.039 192.288 120.256 193.205C121.473 194.114 122.328 195.343 122.819 196.89L120.146 197.627C119.838 196.593 119.314 195.786 118.573 195.207C117.832 194.62 116.872 194.327 115.691 194.327C114.628 194.327 113.74 194.565 113.029 195.042C112.325 195.519 111.793 196.19 111.434 197.055C111.082 197.913 110.902 198.921 110.895 200.08C110.895 201.239 111.071 202.251 111.423 203.116C111.782 203.974 112.318 204.641 113.029 205.118C113.74 205.595 114.628 205.833 115.691 205.833C116.872 205.833 117.832 205.54 118.573 204.953C119.314 204.366 119.838 203.56 120.146 202.533L122.819 203.27C122.328 204.817 121.473 206.049 120.256 206.966C119.039 207.875 117.517 208.33 115.691 208.33ZM125.234 208V192.16H127.885V198.826H135.387V192.16H138.027V208H135.387V201.312H127.885V208H125.234ZM148.684 208.33C147.474 208.33 146.465 208.015 145.659 207.384C144.859 206.753 144.298 205.903 143.976 204.832L146.594 204.205C146.674 204.652 146.909 205.037 147.298 205.36C147.686 205.683 148.115 205.844 148.585 205.844C148.893 205.844 149.219 205.763 149.564 205.602C149.908 205.433 150.165 205.166 150.334 204.799C150.436 204.564 150.495 204.286 150.51 203.963C150.532 203.633 150.543 203.252 150.543 202.819V192.16H153.227V202.819C153.227 203.31 153.223 203.743 153.216 204.117C153.216 204.484 153.179 204.832 153.106 205.162C153.04 205.485 152.904 205.818 152.699 206.163C152.266 206.911 151.701 207.461 151.005 207.813C150.308 208.158 149.534 208.33 148.684 208.33ZM163.236 208.33C161.652 208.33 160.295 207.985 159.166 207.296C158.037 206.599 157.168 205.631 156.559 204.392C155.958 203.153 155.657 201.715 155.657 200.08C155.657 198.445 155.958 197.007 156.559 195.768C157.168 194.529 158.037 193.564 159.166 192.875C160.295 192.178 161.652 191.83 163.236 191.83C164.82 191.83 166.177 192.178 167.306 192.875C168.443 193.564 169.312 194.529 169.913 195.768C170.522 197.007 170.826 198.445 170.826 200.08C170.826 201.715 170.522 203.153 169.913 204.392C169.312 205.631 168.443 206.599 167.306 207.296C166.177 207.985 164.82 208.33 163.236 208.33ZM163.236 205.833C164.299 205.84 165.183 205.606 165.887 205.129C166.598 204.652 167.13 203.981 167.482 203.116C167.841 202.251 168.021 201.239 168.021 200.08C168.021 198.921 167.841 197.917 167.482 197.066C167.13 196.208 166.598 195.541 165.887 195.064C165.183 194.587 164.299 194.342 163.236 194.327C162.173 194.32 161.289 194.554 160.585 195.031C159.881 195.508 159.349 196.179 158.99 197.044C158.638 197.909 158.462 198.921 158.462 200.08C158.462 201.239 158.638 202.247 158.99 203.105C159.342 203.956 159.87 204.619 160.574 205.096C161.285 205.573 162.173 205.818 163.236 205.833ZM173.016 208V192.16H179.297C180.367 192.16 181.244 192.376 181.926 192.809C182.615 193.234 183.125 193.781 183.455 194.448C183.792 195.115 183.961 195.805 183.961 196.516C183.961 197.389 183.752 198.129 183.334 198.738C182.923 199.347 182.362 199.757 181.651 199.97V199.42C182.648 199.647 183.403 200.12 183.917 200.839C184.437 201.558 184.698 202.375 184.698 203.292C184.698 204.231 184.518 205.052 184.159 205.756C183.799 206.46 183.264 207.01 182.553 207.406C181.849 207.802 180.976 208 179.935 208H173.016ZM175.7 205.503H179.605C180.067 205.503 180.481 205.411 180.848 205.228C181.214 205.037 181.5 204.773 181.706 204.436C181.918 204.091 182.025 203.684 182.025 203.215C182.025 202.79 181.933 202.408 181.75 202.071C181.566 201.734 181.299 201.466 180.947 201.268C180.595 201.063 180.173 200.96 179.682 200.96H175.7V205.503ZM175.7 198.485H179.264C179.645 198.485 179.986 198.412 180.287 198.265C180.587 198.118 180.826 197.902 181.002 197.616C181.178 197.33 181.266 196.978 181.266 196.56C181.266 196.01 181.09 195.552 180.738 195.185C180.386 194.818 179.894 194.635 179.264 194.635H175.7V198.485ZM191.299 208V192.16H196.348C196.48 192.16 196.74 192.164 197.129 192.171C197.525 192.178 197.906 192.204 198.273 192.248C199.527 192.409 200.586 192.857 201.452 193.59C202.324 194.316 202.984 195.244 203.432 196.373C203.879 197.502 204.103 198.738 204.103 200.08C204.103 201.422 203.879 202.658 203.432 203.787C202.984 204.916 202.324 205.848 201.452 206.581C200.586 207.307 199.527 207.751 198.273 207.912C197.913 207.956 197.536 207.982 197.14 207.989C196.744 207.996 196.48 208 196.348 208H191.299ZM193.994 205.503H196.348C196.568 205.503 196.846 205.496 197.184 205.481C197.528 205.466 197.833 205.433 198.097 205.382C198.845 205.243 199.453 204.909 199.923 204.381C200.392 203.853 200.737 203.211 200.957 202.456C201.184 201.701 201.298 200.909 201.298 200.08C201.298 199.222 201.184 198.415 200.957 197.66C200.729 196.905 200.377 196.27 199.901 195.757C199.431 195.244 198.83 194.917 198.097 194.778C197.833 194.719 197.528 194.686 197.184 194.679C196.846 194.664 196.568 194.657 196.348 194.657H193.994V205.503ZM213.402 208.33C211.818 208.33 210.461 207.985 209.332 207.296C208.203 206.599 207.334 205.631 206.725 204.392C206.124 203.153 205.823 201.715 205.823 200.08C205.823 198.445 206.124 197.007 206.725 195.768C207.334 194.529 208.203 193.564 209.332 192.875C210.461 192.178 211.818 191.83 213.402 191.83C214.986 191.83 216.343 192.178 217.472 192.875C218.609 193.564 219.478 194.529 220.079 195.768C220.688 197.007 220.992 198.445 220.992 200.08C220.992 201.715 220.688 203.153 220.079 204.392C219.478 205.631 218.609 206.599 217.472 207.296C216.343 207.985 214.986 208.33 213.402 208.33ZM213.402 205.833C214.465 205.84 215.349 205.606 216.053 205.129C216.764 204.652 217.296 203.981 217.648 203.116C218.007 202.251 218.187 201.239 218.187 200.08C218.187 198.921 218.007 197.917 217.648 197.066C217.296 196.208 216.764 195.541 216.053 195.064C215.349 194.587 214.465 194.342 213.402 194.327C212.339 194.32 211.455 194.554 210.751 195.031C210.047 195.508 209.515 196.179 209.156 197.044C208.804 197.909 208.628 198.921 208.628 200.08C208.628 201.239 208.804 202.247 209.156 203.105C209.508 203.956 210.036 204.619 210.74 205.096C211.451 205.573 212.339 205.818 213.402 205.833ZM231.436 208V201.51L226.046 192.16H229.137L232.778 198.474L236.408 192.16H239.499L234.12 201.51V208H231.436ZM246.853 208.33C245.269 208.33 243.913 207.985 242.783 207.296C241.654 206.599 240.785 205.631 240.176 204.392C239.575 203.153 239.274 201.715 239.274 200.08C239.274 198.445 239.575 197.007 240.176 195.768C240.785 194.529 241.654 193.564 242.783 192.875C243.913 192.178 245.269 191.83 246.853 191.83C248.437 191.83 249.794 192.178 250.923 192.875C252.06 193.564 252.929 194.529 253.53 195.768C254.139 197.007 254.443 198.445 254.443 200.08C254.443 201.715 254.139 203.153 253.53 204.392C252.929 205.631 252.06 206.599 250.923 207.296C249.794 207.985 248.437 208.33 246.853 208.33ZM246.853 205.833C247.917 205.84 248.8 205.606 249.504 205.129C250.216 204.652 250.747 203.981 251.099 203.116C251.459 202.251 251.638 201.239 251.638 200.08C251.638 198.921 251.459 197.917 251.099 197.066C250.747 196.208 250.216 195.541 249.504 195.064C248.8 194.587 247.917 194.342 246.853 194.327C245.79 194.32 244.906 194.554 244.202 195.031C243.498 195.508 242.967 196.179 242.607 197.044C242.255 197.909 242.079 198.921 242.079 200.08C242.079 201.239 242.255 202.247 242.607 203.105C242.959 203.956 243.487 204.619 244.191 205.096C244.903 205.573 245.79 205.818 246.853 205.833ZM263.013 208.33C261.751 208.33 260.64 208.073 259.68 207.56C258.726 207.047 257.978 206.324 257.436 205.393C256.9 204.462 256.633 203.369 256.633 202.115V192.182L259.317 192.16V202.049C259.317 202.643 259.416 203.175 259.614 203.644C259.819 204.113 260.094 204.513 260.439 204.843C260.783 205.166 261.179 205.411 261.627 205.58C262.074 205.749 262.536 205.833 263.013 205.833C263.504 205.833 263.97 205.749 264.41 205.58C264.857 205.404 265.253 205.155 265.598 204.832C265.942 204.502 266.214 204.102 266.412 203.633C266.61 203.164 266.709 202.636 266.709 202.049V192.16H269.393V202.115C269.393 203.369 269.121 204.462 268.579 205.393C268.043 206.324 267.295 207.047 266.335 207.56C265.381 208.073 264.274 208.33 263.013 208.33ZM276.871 208V192.16H286.408V194.811H279.522V198.76H285.088V201.4H279.522V208H276.871ZM288.607 208V192.16H291.258V208H288.607ZM294.553 208V192.16H297.237L304.585 203.325V192.16H307.269V208H304.585L297.237 196.835V208H294.553ZM310.344 208V192.16H315.393C315.525 192.16 315.785 192.164 316.174 192.171C316.57 192.178 316.951 192.204 317.318 192.248C318.572 192.409 319.631 192.857 320.497 193.59C321.369 194.316 322.029 195.244 322.477 196.373C322.924 197.502 323.148 198.738 323.148 200.08C323.148 201.422 322.924 202.658 322.477 203.787C322.029 204.916 321.369 205.848 320.497 206.581C319.631 207.307 318.572 207.751 317.318 207.912C316.958 207.956 316.581 207.982 316.185 207.989C315.789 207.996 315.525 208 315.393 208H310.344ZM313.039 205.503H315.393C315.613 205.503 315.891 205.496 316.229 205.481C316.573 205.466 316.878 205.433 317.142 205.382C317.89 205.243 318.498 204.909 318.968 204.381C319.437 203.853 319.782 203.211 320.002 202.456C320.229 201.701 320.343 200.909 320.343 200.08C320.343 199.222 320.229 198.415 320.002 197.66C319.774 196.905 319.422 196.27 318.946 195.757C318.476 195.244 317.875 194.917 317.142 194.778C316.878 194.719 316.573 194.686 316.229 194.679C315.891 194.664 315.613 194.657 315.393 194.657H313.039V205.503ZM333.958 208V194.646H328.832V192.16H341.735V194.646H336.609V208H333.958ZM343.494 208V192.16H346.145V198.826H353.647V192.16H356.287V208H353.647V201.312H346.145V208H343.494ZM359.371 208V192.16H369.601V194.646H362.022V198.551H368.281V201.037H362.022V205.514H369.601V208H359.371ZM376.644 208V192.16H379.031L384.509 203.38L389.987 192.16H392.374V208H389.899V197.847L385.037 208H383.981L379.13 197.847V208H376.644ZM402.164 208.33C400.58 208.33 399.223 207.985 398.094 207.296C396.964 206.599 396.095 205.631 395.487 204.392C394.885 203.153 394.585 201.715 394.585 200.08C394.585 198.445 394.885 197.007 395.487 195.768C396.095 194.529 396.964 193.564 398.094 192.875C399.223 192.178 400.58 191.83 402.164 191.83C403.748 191.83 405.104 192.178 406.234 192.875C407.37 193.564 408.239 194.529 408.841 195.768C409.449 197.007 409.754 198.445 409.754 200.08C409.754 201.715 409.449 203.153 408.841 204.392C408.239 205.631 407.37 206.599 406.234 207.296C405.104 207.985 403.748 208.33 402.164 208.33ZM402.164 205.833C403.227 205.84 404.111 205.606 404.815 205.129C405.526 204.652 406.058 203.981 406.41 203.116C406.769 202.251 406.949 201.239 406.949 200.08C406.949 198.921 406.769 197.917 406.41 197.066C406.058 196.208 405.526 195.541 404.815 195.064C404.111 194.587 403.227 194.342 402.164 194.327C401.1 194.32 400.217 194.554 399.513 195.031C398.809 195.508 398.277 196.179 397.918 197.044C397.566 197.909 397.39 198.921 397.39 200.08C397.39 201.239 397.566 202.247 397.918 203.105C398.27 203.956 398.798 204.619 399.502 205.096C400.213 205.573 401.1 205.818 402.164 205.833ZM417.806 208.33C416.648 208.33 415.603 208.128 414.671 207.725C413.747 207.322 412.985 206.746 412.383 205.998C411.789 205.243 411.412 204.348 411.25 203.314L414 202.896C414.235 203.835 414.715 204.561 415.441 205.074C416.175 205.587 417.018 205.844 417.971 205.844C418.536 205.844 419.068 205.756 419.566 205.58C420.065 205.404 420.468 205.147 420.776 204.81C421.092 204.473 421.249 204.058 421.249 203.567C421.249 203.347 421.213 203.145 421.139 202.962C421.066 202.771 420.956 202.603 420.809 202.456C420.67 202.309 420.487 202.177 420.259 202.06C420.039 201.935 419.783 201.829 419.489 201.741L415.397 200.531C415.045 200.428 414.664 200.293 414.253 200.124C413.85 199.948 413.465 199.71 413.098 199.409C412.739 199.101 412.442 198.712 412.207 198.243C411.98 197.766 411.866 197.18 411.866 196.483C411.866 195.464 412.123 194.609 412.636 193.92C413.157 193.223 413.854 192.703 414.726 192.358C415.606 192.013 416.582 191.845 417.652 191.852C418.738 191.859 419.706 192.046 420.556 192.413C421.407 192.772 422.118 193.297 422.69 193.986C423.262 194.675 423.666 195.508 423.9 196.483L421.051 196.978C420.934 196.421 420.707 195.948 420.369 195.559C420.039 195.163 419.632 194.862 419.148 194.657C418.672 194.452 418.162 194.342 417.619 194.327C417.091 194.32 416.6 194.4 416.145 194.569C415.698 194.73 415.335 194.965 415.056 195.273C414.785 195.581 414.649 195.94 414.649 196.351C414.649 196.74 414.767 197.059 415.001 197.308C415.236 197.55 415.526 197.744 415.87 197.891C416.222 198.03 416.578 198.148 416.937 198.243L419.775 199.035C420.164 199.138 420.6 199.277 421.084 199.453C421.568 199.629 422.034 199.875 422.481 200.19C422.929 200.505 423.295 200.92 423.581 201.433C423.875 201.946 424.021 202.599 424.021 203.391C424.021 204.212 423.849 204.935 423.504 205.558C423.167 206.174 422.709 206.687 422.129 207.098C421.55 207.509 420.886 207.817 420.138 208.022C419.398 208.227 418.62 208.33 417.806 208.33ZM430.208 208V194.646H425.082V192.16H437.985V194.646H432.859V208H430.208ZM443.482 208V192.16H449.763C450.834 192.16 451.71 192.376 452.392 192.809C453.082 193.234 453.591 193.781 453.921 194.448C454.259 195.115 454.427 195.805 454.427 196.516C454.427 197.389 454.218 198.129 453.8 198.738C453.39 199.347 452.829 199.757 452.117 199.97V199.42C453.115 199.647 453.87 200.12 454.383 200.839C454.904 201.558 455.164 202.375 455.164 203.292C455.164 204.231 454.985 205.052 454.625 205.756C454.266 206.46 453.731 207.01 453.019 207.406C452.315 207.802 451.443 208 450.401 208H443.482ZM446.166 205.503H450.071C450.533 205.503 450.948 205.411 451.314 205.228C451.681 205.037 451.967 204.773 452.172 204.436C452.385 204.091 452.491 203.684 452.491 203.215C452.491 202.79 452.4 202.408 452.216 202.071C452.033 201.734 451.765 201.466 451.413 201.268C451.061 201.063 450.64 200.96 450.148 200.96H446.166V205.503ZM446.166 198.485H449.73C450.112 198.485 450.453 198.412 450.753 198.265C451.054 198.118 451.292 197.902 451.468 197.616C451.644 197.33 451.732 196.978 451.732 196.56C451.732 196.01 451.556 195.552 451.204 195.185C450.852 194.818 450.361 194.635 449.73 194.635H446.166V198.485ZM464.06 208.33C462.476 208.33 461.12 207.985 459.99 207.296C458.861 206.599 457.992 205.631 457.383 204.392C456.782 203.153 456.481 201.715 456.481 200.08C456.481 198.445 456.782 197.007 457.383 195.768C457.992 194.529 458.861 193.564 459.99 192.875C461.12 192.178 462.476 191.83 464.06 191.83C465.644 191.83 467.001 192.178 468.13 192.875C469.267 193.564 470.136 194.529 470.737 195.768C471.346 197.007 471.65 198.445 471.65 200.08C471.65 201.715 471.346 203.153 470.737 204.392C470.136 205.631 469.267 206.599 468.13 207.296C467.001 207.985 465.644 208.33 464.06 208.33ZM464.06 205.833C465.124 205.84 466.007 205.606 466.711 205.129C467.423 204.652 467.954 203.981 468.306 203.116C468.666 202.251 468.845 201.239 468.845 200.08C468.845 198.921 468.666 197.917 468.306 197.066C467.954 196.208 467.423 195.541 466.711 195.064C466.007 194.587 465.124 194.342 464.06 194.327C462.997 194.32 462.113 194.554 461.409 195.031C460.705 195.508 460.174 196.179 459.814 197.044C459.462 197.909 459.286 198.921 459.286 200.08C459.286 201.239 459.462 202.247 459.814 203.105C460.166 203.956 460.694 204.619 461.398 205.096C462.11 205.573 462.997 205.818 464.06 205.833ZM473.84 208V192.16H480.385C480.539 192.16 480.737 192.167 480.979 192.182C481.221 192.189 481.444 192.211 481.65 192.248C482.566 192.387 483.322 192.692 483.916 193.161C484.517 193.63 484.961 194.224 485.247 194.943C485.54 195.654 485.687 196.446 485.687 197.319C485.687 198.61 485.36 199.721 484.708 200.652C484.055 201.576 483.054 202.148 481.705 202.368L480.572 202.467H476.491V208H473.84ZM482.937 208L479.813 201.554L482.508 200.96L485.94 208H482.937ZM476.491 199.992H480.275C480.421 199.992 480.586 199.985 480.77 199.97C480.953 199.955 481.122 199.926 481.276 199.882C481.716 199.772 482.06 199.578 482.31 199.299C482.566 199.02 482.746 198.705 482.849 198.353C482.959 198.001 483.014 197.656 483.014 197.319C483.014 196.982 482.959 196.637 482.849 196.285C482.746 195.926 482.566 195.607 482.31 195.328C482.06 195.049 481.716 194.855 481.276 194.745C481.122 194.701 480.953 194.675 480.77 194.668C480.586 194.653 480.421 194.646 480.275 194.646H476.491V199.992ZM488.583 208V192.16H491.234V208H488.583ZM494.529 208V192.16H497.213L504.561 203.325V192.16H507.245V208H504.561L497.213 196.835V208H494.529ZM516.854 208.33C515.828 208.33 514.863 208.15 513.961 207.791C513.067 207.424 512.278 206.889 511.596 206.185C510.922 205.481 510.394 204.619 510.012 203.6C509.631 202.573 509.44 201.4 509.44 200.08C509.44 198.349 509.763 196.872 510.408 195.647C511.054 194.415 511.937 193.473 513.059 192.82C514.181 192.16 515.446 191.83 516.854 191.83C518.805 191.83 520.349 192.285 521.485 193.194C522.629 194.096 523.403 195.365 523.806 197L521.1 197.429C520.8 196.49 520.308 195.742 519.626 195.185C518.944 194.62 518.075 194.338 517.019 194.338C515.956 194.323 515.072 194.554 514.368 195.031C513.664 195.508 513.133 196.179 512.773 197.044C512.421 197.909 512.245 198.921 512.245 200.08C512.245 201.239 512.421 202.247 512.773 203.105C513.125 203.956 513.653 204.619 514.357 205.096C515.069 205.573 515.956 205.818 517.019 205.833C517.819 205.84 518.519 205.697 519.12 205.404C519.722 205.103 520.213 204.652 520.594 204.051C520.976 203.442 521.232 202.683 521.364 201.774H518.57V199.695H524.18C524.195 199.812 524.206 199.985 524.213 200.212C524.221 200.439 524.224 200.575 524.224 200.619C524.224 202.115 523.927 203.446 523.333 204.612C522.747 205.771 521.903 206.68 520.803 207.34C519.703 208 518.387 208.33 516.854 208.33ZM529.305 203.699C529.305 203.193 529.352 202.705 529.448 202.236C529.55 201.759 529.715 201.319 529.943 200.916C530.141 200.527 530.361 200.219 530.603 199.992C530.845 199.757 531.116 199.526 531.417 199.299C531.717 199.064 532.051 198.753 532.418 198.364C532.718 198.034 532.916 197.708 533.012 197.385C533.107 197.055 533.155 196.703 533.155 196.329C533.155 196.087 533.129 195.86 533.078 195.647C533.026 195.434 532.935 195.251 532.803 195.097C532.597 194.826 532.333 194.635 532.011 194.525C531.688 194.408 531.343 194.349 530.977 194.349C530.676 194.349 530.386 194.389 530.108 194.47C529.836 194.543 529.605 194.661 529.415 194.822C529.195 194.998 529.033 195.214 528.931 195.471C528.828 195.728 528.78 196.01 528.788 196.318H525.994C526.067 195.585 526.265 194.906 526.588 194.283C526.918 193.652 527.35 193.15 527.886 192.776C528.304 192.468 528.773 192.237 529.294 192.083C529.822 191.929 530.35 191.852 530.878 191.852C531.684 191.852 532.443 191.977 533.155 192.226C533.873 192.475 534.471 192.886 534.948 193.458C535.278 193.832 535.527 194.265 535.696 194.756C535.872 195.247 535.96 195.746 535.96 196.252C535.96 197.007 535.795 197.697 535.465 198.32C535.142 198.943 534.731 199.519 534.233 200.047C533.998 200.296 533.774 200.516 533.562 200.707C533.349 200.898 533.151 201.085 532.968 201.268C532.792 201.444 532.645 201.631 532.528 201.829C532.322 202.174 532.201 202.467 532.165 202.709C532.128 202.944 532.11 203.274 532.11 203.699H529.305ZM529.327 208V205.085H532.11V208H529.327Z" fill="white"></path><rect x="20" y="20" width="163" height="40" rx="20" fill="white" fill-opacity="0.3"></rect><path d="M33.245 46V34.48H37.733C38.421 34.48 39.0077 34.6213 39.493 34.904C39.9837 35.1867 40.357 35.56 40.613 36.024C40.8743 36.4827 41.005 36.9787 41.005 37.512C41.005 38.136 40.845 38.6827 40.525 39.152C40.205 39.6213 39.773 39.944 39.229 40.12L39.213 39.728C39.9543 39.9253 40.5303 40.288 40.941 40.816C41.3517 41.344 41.557 41.9733 41.557 42.704C41.557 43.376 41.4183 43.9573 41.141 44.448C40.869 44.9387 40.4743 45.32 39.957 45.592C39.445 45.864 38.837 46 38.133 46H33.245ZM34.685 44.64H37.861C38.2877 44.64 38.669 44.5627 39.005 44.408C39.341 44.248 39.605 44.024 39.797 43.736C39.9943 43.448 40.093 43.1013 40.093 42.696C40.093 42.3067 40.005 41.9573 39.829 41.648C39.6583 41.3387 39.4157 41.0933 39.101 40.912C38.7917 40.7253 38.4317 40.632 38.021 40.632H34.685V44.64ZM34.685 39.288H37.717C38.0583 39.288 38.365 39.216 38.637 39.072C38.9143 38.9227 39.133 38.7147 39.293 38.448C39.4583 38.1813 39.541 37.8693 39.541 37.512C39.541 37.016 39.373 36.6107 39.037 36.296C38.701 35.9813 38.261 35.824 37.717 35.824H34.685V39.288ZM47.6953 46.24C46.8046 46.24 46.0179 46.056 45.3353 45.688C44.6526 45.32 44.1166 44.8053 43.7273 44.144C43.3433 43.4773 43.1513 42.696 43.1513 41.8V34.488L44.5913 34.48V41.68C44.5913 42.224 44.6819 42.6987 44.8633 43.104C45.0499 43.504 45.2953 43.8373 45.5993 44.104C45.9033 44.3707 46.2366 44.5707 46.5993 44.704C46.9673 44.832 47.3326 44.896 47.6953 44.896C48.0633 44.896 48.4313 44.8293 48.7993 44.696C49.1673 44.5627 49.5006 44.3653 49.7993 44.104C50.1033 43.8373 50.3459 43.5013 50.5273 43.096C50.7086 42.6907 50.7993 42.2187 50.7993 41.68V34.48H52.2393V41.8C52.2393 42.6907 52.0446 43.4693 51.6553 44.136C51.2713 44.8027 50.7379 45.32 50.0553 45.688C49.3726 46.056 48.5859 46.24 47.6953 46.24ZM58.083 46.24C57.267 46.24 56.531 46.1013 55.875 45.824C55.2243 45.5467 54.6857 45.152 54.259 44.64C53.8377 44.1227 53.563 43.512 53.435 42.808L54.907 42.576C55.0937 43.3013 55.4803 43.8693 56.067 44.28C56.659 44.6853 57.355 44.888 58.155 44.888C58.6723 44.888 59.139 44.808 59.555 44.648C59.9763 44.4827 60.3097 44.248 60.555 43.944C60.8003 43.64 60.923 43.28 60.923 42.864C60.923 42.608 60.8777 42.3893 60.787 42.208C60.7017 42.0213 60.5817 41.864 60.427 41.736C60.2777 41.6027 60.107 41.4907 59.915 41.4C59.723 41.3093 59.523 41.2347 59.315 41.176L56.379 40.304C56.059 40.208 55.7497 40.088 55.451 39.944C55.1523 39.7947 54.8857 39.6107 54.651 39.392C54.4163 39.168 54.2297 38.9013 54.091 38.592C53.9523 38.2773 53.883 37.9067 53.883 37.48C53.883 36.7973 54.059 36.216 54.411 35.736C54.7683 35.2507 55.251 34.88 55.859 34.624C56.467 34.368 57.1523 34.2427 57.915 34.248C58.6883 34.2533 59.379 34.392 59.987 34.664C60.6003 34.9307 61.107 35.3147 61.507 35.816C61.9123 36.3173 62.1843 36.9173 62.323 37.616L60.811 37.88C60.731 37.4107 60.5523 37.008 60.275 36.672C60.003 36.3307 59.6617 36.0693 59.251 35.888C58.8403 35.7013 58.3897 35.6053 57.899 35.6C57.4297 35.5947 57.0057 35.6693 56.627 35.824C56.2483 35.9787 55.947 36.1947 55.723 36.472C55.499 36.744 55.387 37.0587 55.387 37.416C55.387 37.768 55.4883 38.0533 55.691 38.272C55.8937 38.4853 56.1417 38.656 56.435 38.784C56.7337 38.9067 57.0243 39.008 57.307 39.088L59.499 39.72C59.7497 39.7893 60.0377 39.8853 60.363 40.008C60.6937 40.1307 61.0137 40.304 61.323 40.528C61.6323 40.7467 61.8883 41.04 62.091 41.408C62.2937 41.7707 62.395 42.2293 62.395 42.784C62.395 43.3387 62.283 43.832 62.059 44.264C61.8403 44.696 61.5337 45.0587 61.139 45.352C60.7443 45.64 60.2857 45.8587 59.763 46.008C59.2403 46.1627 58.6803 46.24 58.083 46.24ZM64.2331 46V34.48H65.6571V46H64.2331ZM68.0575 46V34.48H69.4975L75.5055 43.48V34.48H76.9455V46H75.5055L69.4975 36.992V46H68.0575ZM79.1825 46V34.48H86.4625V35.832H80.6065V39.44H85.5025V40.792H80.6065V44.648H86.4625V46H79.1825ZM92.1455 46.24C91.3295 46.24 90.5935 46.1013 89.9375 45.824C89.2868 45.5467 88.7482 45.152 88.3215 44.64C87.9002 44.1227 87.6255 43.512 87.4975 42.808L88.9695 42.576C89.1562 43.3013 89.5428 43.8693 90.1295 44.28C90.7215 44.6853 91.4175 44.888 92.2175 44.888C92.7348 44.888 93.2015 44.808 93.6175 44.648C94.0388 44.4827 94.3722 44.248 94.6175 43.944C94.8628 43.64 94.9855 43.28 94.9855 42.864C94.9855 42.608 94.9402 42.3893 94.8495 42.208C94.7642 42.0213 94.6442 41.864 94.4895 41.736C94.3402 41.6027 94.1695 41.4907 93.9775 41.4C93.7855 41.3093 93.5855 41.2347 93.3775 41.176L90.4415 40.304C90.1215 40.208 89.8122 40.088 89.5135 39.944C89.2148 39.7947 88.9482 39.6107 88.7135 39.392C88.4788 39.168 88.2922 38.9013 88.1535 38.592C88.0148 38.2773 87.9455 37.9067 87.9455 37.48C87.9455 36.7973 88.1215 36.216 88.4735 35.736C88.8308 35.2507 89.3135 34.88 89.9215 34.624C90.5295 34.368 91.2148 34.2427 91.9775 34.248C92.7508 34.2533 93.4415 34.392 94.0495 34.664C94.6628 34.9307 95.1695 35.3147 95.5695 35.816C95.9748 36.3173 96.2468 36.9173 96.3855 37.616L94.8735 37.88C94.7935 37.4107 94.6148 37.008 94.3375 36.672C94.0655 36.3307 93.7242 36.0693 93.3135 35.888C92.9028 35.7013 92.4522 35.6053 91.9615 35.6C91.4922 35.5947 91.0682 35.6693 90.6895 35.824C90.3108 35.9787 90.0095 36.1947 89.7855 36.472C89.5615 36.744 89.4495 37.0587 89.4495 37.416C89.4495 37.768 89.5508 38.0533 89.7535 38.272C89.9562 38.4853 90.2042 38.656 90.4975 38.784C90.7962 38.9067 91.0868 39.008 91.3695 39.088L93.5615 39.72C93.8122 39.7893 94.1002 39.8853 94.4255 40.008C94.7562 40.1307 95.0762 40.304 95.3855 40.528C95.6948 40.7467 95.9508 41.04 96.1535 41.408C96.3562 41.7707 96.4575 42.2293 96.4575 42.784C96.4575 43.3387 96.3455 43.832 96.1215 44.264C95.9028 44.696 95.5962 45.0587 95.2015 45.352C94.8068 45.64 94.3482 45.8587 93.8255 46.008C93.3028 46.1627 92.7428 46.24 92.1455 46.24ZM102.458 46.24C101.642 46.24 100.906 46.1013 100.25 45.824C99.5993 45.5467 99.0607 45.152 98.634 44.64C98.2127 44.1227 97.938 43.512 97.81 42.808L99.282 42.576C99.4687 43.3013 99.8553 43.8693 100.442 44.28C101.034 44.6853 101.73 44.888 102.53 44.888C103.047 44.888 103.514 44.808 103.93 44.648C104.351 44.4827 104.685 44.248 104.93 43.944C105.175 43.64 105.298 43.28 105.298 42.864C105.298 42.608 105.253 42.3893 105.162 42.208C105.077 42.0213 104.957 41.864 104.802 41.736C104.653 41.6027 104.482 41.4907 104.29 41.4C104.098 41.3093 103.898 41.2347 103.69 41.176L100.754 40.304C100.434 40.208 100.125 40.088 99.826 39.944C99.5273 39.7947 99.2607 39.6107 99.026 39.392C98.7913 39.168 98.6047 38.9013 98.466 38.592C98.3273 38.2773 98.258 37.9067 98.258 37.48C98.258 36.7973 98.434 36.216 98.786 35.736C99.1433 35.2507 99.626 34.88 100.234 34.624C100.842 34.368 101.527 34.2427 102.29 34.248C103.063 34.2533 103.754 34.392 104.362 34.664C104.975 34.9307 105.482 35.3147 105.882 35.816C106.287 36.3173 106.559 36.9173 106.698 37.616L105.186 37.88C105.106 37.4107 104.927 37.008 104.65 36.672C104.378 36.3307 104.037 36.0693 103.626 35.888C103.215 35.7013 102.765 35.6053 102.274 35.6C101.805 35.5947 101.381 35.6693 101.002 35.824C100.623 35.9787 100.322 36.1947 100.098 36.472C99.874 36.744 99.762 37.0587 99.762 37.416C99.762 37.768 99.8633 38.0533 100.066 38.272C100.269 38.4853 100.517 38.656 100.81 38.784C101.109 38.9067 101.399 39.008 101.682 39.088L103.874 39.72C104.125 39.7893 104.413 39.8853 104.738 40.008C105.069 40.1307 105.389 40.304 105.698 40.528C106.007 40.7467 106.263 41.04 106.466 41.408C106.669 41.7707 106.77 42.2293 106.77 42.784C106.77 43.3387 106.658 43.832 106.434 44.264C106.215 44.696 105.909 45.0587 105.514 45.352C105.119 45.64 104.661 45.8587 104.138 46.008C103.615 46.1627 103.055 46.24 102.458 46.24ZM115.395 46.24C114.755 46.24 114.158 46.1467 113.603 45.96C113.049 45.7733 112.585 45.48 112.211 45.08C111.923 44.76 111.707 44.408 111.563 44.024C111.425 43.6347 111.347 43.224 111.331 42.792C111.331 42.3707 111.393 41.96 111.515 41.56C111.638 41.1547 111.833 40.7947 112.099 40.48C112.238 40.3093 112.393 40.1653 112.563 40.048C112.739 39.9253 112.915 39.8213 113.091 39.736C112.723 39.3413 112.441 38.9707 112.243 38.624C112.051 38.2773 111.955 37.8587 111.955 37.368C111.955 36.744 112.115 36.1813 112.435 35.68C112.761 35.1733 113.203 34.8027 113.763 34.568C114.035 34.4507 114.313 34.3707 114.595 34.328C114.883 34.28 115.163 34.256 115.435 34.256C115.894 34.256 116.339 34.32 116.771 34.448C117.203 34.576 117.571 34.784 117.875 35.072C118.078 35.2427 118.251 35.44 118.395 35.664C118.539 35.8827 118.651 36.112 118.731 36.352L117.339 36.712C117.238 36.44 117.07 36.2107 116.835 36.024C116.649 35.864 116.43 35.7547 116.179 35.696C115.934 35.6373 115.686 35.608 115.435 35.608C115.019 35.608 114.643 35.688 114.307 35.848C114.009 35.992 113.785 36.1947 113.635 36.456C113.486 36.712 113.411 37.016 113.411 37.368C113.411 37.672 113.462 37.9227 113.563 38.12C113.67 38.312 113.817 38.5173 114.003 38.736C114.115 38.8533 114.241 38.9787 114.379 39.112C114.523 39.24 114.67 39.3733 114.819 39.512L118.211 42.664C118.227 42.5307 118.238 42.3947 118.243 42.256C118.249 42.1173 118.251 41.984 118.251 41.856L118.243 40.264H119.547V42.136C119.547 42.5147 119.534 42.8373 119.507 43.104C119.486 43.3707 119.449 43.592 119.395 43.768L120.859 45.12L119.931 46.112L118.715 44.96C118.507 45.1947 118.259 45.4 117.971 45.576C117.683 45.752 117.395 45.8853 117.107 45.976C116.835 46.0773 116.555 46.1467 116.267 46.184C115.979 46.2213 115.689 46.24 115.395 46.24ZM115.427 44.872C115.689 44.872 115.926 44.856 116.139 44.824C116.353 44.792 116.555 44.7307 116.747 44.64C117.003 44.5173 117.201 44.4 117.339 44.288C117.478 44.176 117.593 44.072 117.683 43.976L114.171 40.76C113.979 40.824 113.798 40.9093 113.627 41.016C113.462 41.1227 113.318 41.248 113.195 41.392C113.057 41.5627 112.953 41.7627 112.883 41.992C112.819 42.2213 112.787 42.464 112.787 42.72C112.793 42.992 112.838 43.2427 112.923 43.472C113.009 43.7013 113.129 43.9067 113.283 44.088C113.518 44.36 113.835 44.56 114.235 44.688C114.635 44.8107 115.033 44.872 115.427 44.872ZM127.826 46L124.49 34.48H125.978L128.538 43.592L131.09 34.488L132.586 34.48L135.146 43.592L137.698 34.48H139.194L135.858 46H134.434L131.842 36.968L129.25 46H127.826ZM144.981 46.24C143.834 46.24 142.861 45.9867 142.061 45.48C141.261 44.9733 140.65 44.2693 140.229 43.368C139.813 42.4667 139.605 41.424 139.605 40.24C139.605 39.056 139.813 38.0133 140.229 37.112C140.65 36.2107 141.261 35.5067 142.061 35C142.861 34.4933 143.834 34.24 144.981 34.24C146.133 34.24 147.109 34.4933 147.909 35C148.709 35.5067 149.317 36.2107 149.733 37.112C150.149 38.0133 150.357 39.056 150.357 40.24C150.357 41.424 150.149 42.4667 149.733 43.368C149.317 44.2693 148.709 44.9733 147.909 45.48C147.109 45.9867 146.133 46.24 144.981 46.24ZM144.981 44.88C145.84 44.8853 146.554 44.6933 147.125 44.304C147.701 43.9093 148.13 43.3627 148.413 42.664C148.701 41.9653 148.845 41.1573 148.845 40.24C148.845 39.3173 148.701 38.5093 148.413 37.816C148.13 37.1227 147.701 36.5813 147.125 36.192C146.554 35.8027 145.84 35.6053 144.981 35.6C144.122 35.5947 143.408 35.7867 142.837 36.176C142.272 36.5653 141.845 37.1093 141.557 37.808C141.269 38.5067 141.122 39.3173 141.117 40.24C141.112 41.1573 141.253 41.9627 141.541 42.656C141.829 43.3493 142.258 43.8933 142.829 44.288C143.405 44.6773 144.122 44.8747 144.981 44.88ZM151.964 46V34.48H156.516C156.628 34.48 156.761 34.4853 156.916 34.496C157.07 34.5013 157.22 34.5173 157.364 34.544C157.988 34.64 158.51 34.8533 158.932 35.184C159.358 35.5147 159.678 35.9333 159.892 36.44C160.105 36.9413 160.212 37.4987 160.212 38.112C160.212 39.0027 159.98 39.776 159.516 40.432C159.052 41.0827 158.372 41.4907 157.476 41.656L156.932 41.744H153.388V46H151.964ZM158.82 46L156.548 41.312L157.956 40.88L160.452 46H158.82ZM153.388 40.392H156.468C156.569 40.392 156.684 40.3867 156.812 40.376C156.945 40.3653 157.07 40.3467 157.188 40.32C157.556 40.2347 157.854 40.08 158.084 39.856C158.318 39.6267 158.489 39.36 158.596 39.056C158.702 38.7467 158.756 38.432 158.756 38.112C158.756 37.792 158.702 37.48 158.596 37.176C158.489 36.8667 158.318 36.5973 158.084 36.368C157.854 36.1387 157.556 35.984 157.188 35.904C157.07 35.872 156.945 35.8533 156.812 35.848C156.684 35.8373 156.569 35.832 156.468 35.832H153.388V40.392ZM162.214 46V34.48H163.638V39.888L168.678 34.48H170.47L165.238 40.072L170.878 46H169.038L163.638 40.368V46H162.214Z" fill="white"></path><defs><linearGradient id="paint0_linear_136_351" x1="300" y1="0" x2="300" y2="400" gradientUnits="userSpaceOnUse"><stop stop-color="#41295A"></stop><stop offset="1" stop-color="#2F0743"></stop></linearGradient></defs></svg> 