<?xml version="1.0" encoding="UTF-8"?> <svg xmlns="http://www.w3.org/2000/svg" width="600" height="400" viewBox="0 0 600 400" fill="none"><rect width="600" height="400" rx="20" fill="url(#paint0_linear_136_399)"></rect><path d="M41.1799 177L36.5489 161.16H39.3319L42.4889 172.6L45.6349 161.182L48.4179 161.16L51.5749 172.6L54.7209 161.16H57.5039L52.8839 177H50.2659L47.0209 165.736L43.7979 177H41.1799ZM59.2988 177V161.16H61.9498V167.826H69.4518V161.16H72.0918V177H69.4518V170.312H61.9498V177H59.2988ZM74.0757 177L79.0697 161.16H82.9527L87.9467 177H85.2187L80.6867 162.788H81.2807L76.8037 177H74.0757ZM76.8587 173.568V171.093H85.1747V173.568H76.8587ZM92.431 177V163.646H87.305V161.16H100.208V163.646H95.082V177H92.431ZM109.049 177L104.418 161.16H107.201L110.358 172.6L113.504 161.182L116.287 161.16L119.444 172.6L122.59 161.16H125.373L120.753 177H118.135L114.89 165.736L111.667 177H109.049ZM133.437 177.33C131.853 177.33 130.497 176.985 129.367 176.296C128.238 175.599 127.369 174.631 126.76 173.392C126.159 172.153 125.858 170.715 125.858 169.08C125.858 167.445 126.159 166.007 126.76 164.768C127.369 163.529 128.238 162.564 129.367 161.875C130.497 161.178 131.853 160.83 133.437 160.83C135.021 160.83 136.378 161.178 137.507 161.875C138.644 162.564 139.513 163.529 140.114 164.768C140.723 166.007 141.027 167.445 141.027 169.08C141.027 170.715 140.723 172.153 140.114 173.392C139.513 174.631 138.644 175.599 137.507 176.296C136.378 176.985 135.021 177.33 133.437 177.33ZM133.437 174.833C134.501 174.84 135.384 174.606 136.088 174.129C136.8 173.652 137.331 172.981 137.683 172.116C138.043 171.251 138.222 170.239 138.222 169.08C138.222 167.921 138.043 166.917 137.683 166.066C137.331 165.208 136.8 164.541 136.088 164.064C135.384 163.587 134.501 163.342 133.437 163.327C132.374 163.32 131.49 163.554 130.786 164.031C130.082 164.508 129.551 165.179 129.191 166.044C128.839 166.909 128.663 167.921 128.663 169.08C128.663 170.239 128.839 171.247 129.191 172.105C129.543 172.956 130.071 173.619 130.775 174.096C131.487 174.573 132.374 174.818 133.437 174.833ZM149.597 177.33C148.335 177.33 147.224 177.073 146.264 176.56C145.31 176.047 144.562 175.324 144.02 174.393C143.484 173.462 143.217 172.369 143.217 171.115V161.182L145.901 161.16V171.049C145.901 171.643 146 172.175 146.198 172.644C146.403 173.113 146.678 173.513 147.023 173.843C147.367 174.166 147.763 174.411 148.211 174.58C148.658 174.749 149.12 174.833 149.597 174.833C150.088 174.833 150.554 174.749 150.994 174.58C151.441 174.404 151.837 174.155 152.182 173.832C152.526 173.502 152.798 173.102 152.996 172.633C153.194 172.164 153.293 171.636 153.293 171.049V161.16H155.977V171.115C155.977 172.369 155.705 173.462 155.163 174.393C154.627 175.324 153.879 176.047 152.919 176.56C151.965 177.073 150.858 177.33 149.597 177.33ZM159.271 177V161.16H161.922V174.514H168.918V177H159.271ZM170.781 177V161.16H175.83C175.962 161.16 176.223 161.164 176.611 161.171C177.007 161.178 177.389 161.204 177.755 161.248C179.009 161.409 180.069 161.857 180.934 162.59C181.807 163.316 182.467 164.244 182.914 165.373C183.362 166.502 183.585 167.738 183.585 169.08C183.585 170.422 183.362 171.658 182.914 172.787C182.467 173.916 181.807 174.848 180.934 175.581C180.069 176.307 179.009 176.751 177.755 176.912C177.396 176.956 177.018 176.982 176.622 176.989C176.226 176.996 175.962 177 175.83 177H170.781ZM173.476 174.503H175.83C176.05 174.503 176.329 174.496 176.666 174.481C177.011 174.466 177.315 174.433 177.579 174.382C178.327 174.243 178.936 173.909 179.405 173.381C179.875 172.853 180.219 172.211 180.439 171.456C180.667 170.701 180.78 169.909 180.78 169.08C180.78 168.222 180.667 167.415 180.439 166.66C180.212 165.905 179.86 165.27 179.383 164.757C178.914 164.244 178.313 163.917 177.579 163.778C177.315 163.719 177.011 163.686 176.666 163.679C176.329 163.664 176.05 163.657 175.83 163.657H173.476V174.503ZM194.44 177V170.51L189.05 161.16H192.141L195.782 167.474L199.412 161.16H202.503L197.124 170.51V177H194.44ZM209.857 177.33C208.273 177.33 206.916 176.985 205.787 176.296C204.658 175.599 203.789 174.631 203.18 173.392C202.579 172.153 202.278 170.715 202.278 169.08C202.278 167.445 202.579 166.007 203.18 164.768C203.789 163.529 204.658 162.564 205.787 161.875C206.916 161.178 208.273 160.83 209.857 160.83C211.441 160.83 212.798 161.178 213.927 161.875C215.064 162.564 215.933 163.529 216.534 164.768C217.143 166.007 217.447 167.445 217.447 169.08C217.447 170.715 217.143 172.153 216.534 173.392C215.933 174.631 215.064 175.599 213.927 176.296C212.798 176.985 211.441 177.33 209.857 177.33ZM209.857 174.833C210.92 174.84 211.804 174.606 212.508 174.129C213.219 173.652 213.751 172.981 214.103 172.116C214.462 171.251 214.642 170.239 214.642 169.08C214.642 167.921 214.462 166.917 214.103 166.066C213.751 165.208 213.219 164.541 212.508 164.064C211.804 163.587 210.92 163.342 209.857 163.327C208.794 163.32 207.91 163.554 207.206 164.031C206.502 164.508 205.97 165.179 205.611 166.044C205.259 166.909 205.083 167.921 205.083 169.08C205.083 170.239 205.259 171.247 205.611 172.105C205.963 172.956 206.491 173.619 207.195 174.096C207.906 174.573 208.794 174.818 209.857 174.833ZM226.017 177.33C224.755 177.33 223.644 177.073 222.684 176.56C221.73 176.047 220.982 175.324 220.44 174.393C219.904 173.462 219.637 172.369 219.637 171.115V161.182L222.321 161.16V171.049C222.321 171.643 222.42 172.175 222.618 172.644C222.823 173.113 223.098 173.513 223.443 173.843C223.787 174.166 224.183 174.411 224.631 174.58C225.078 174.749 225.54 174.833 226.017 174.833C226.508 174.833 226.974 174.749 227.414 174.58C227.861 174.404 228.257 174.155 228.602 173.832C228.946 173.502 229.218 173.102 229.416 172.633C229.614 172.164 229.713 171.636 229.713 171.049V161.16H232.397V171.115C232.397 172.369 232.125 173.462 231.583 174.393C231.047 175.324 230.299 176.047 229.339 176.56C228.385 177.073 227.278 177.33 226.017 177.33ZM246.574 177.33C244.99 177.33 243.633 176.985 242.504 176.296C241.375 175.599 240.506 174.631 239.897 173.392C239.296 172.153 238.995 170.715 238.995 169.08C238.995 167.445 239.296 166.007 239.897 164.768C240.506 163.529 241.375 162.564 242.504 161.875C243.633 161.178 244.99 160.83 246.574 160.83C248.4 160.83 249.922 161.288 251.139 162.205C252.356 163.114 253.211 164.343 253.702 165.89L251.029 166.627C250.721 165.593 250.197 164.786 249.456 164.207C248.715 163.62 247.755 163.327 246.574 163.327C245.511 163.327 244.623 163.565 243.912 164.042C243.208 164.519 242.676 165.19 242.317 166.055C241.965 166.913 241.785 167.921 241.778 169.08C241.778 170.239 241.954 171.251 242.306 172.116C242.665 172.974 243.201 173.641 243.912 174.118C244.623 174.595 245.511 174.833 246.574 174.833C247.755 174.833 248.715 174.54 249.456 173.953C250.197 173.366 250.721 172.56 251.029 171.533L253.702 172.27C253.211 173.817 252.356 175.049 251.139 175.966C249.922 176.875 248.4 177.33 246.574 177.33ZM256.117 177V161.16H258.768V167.826H266.27V161.16H268.91V177H266.27V170.312H258.768V177H256.117ZM278.693 177.33C277.109 177.33 275.752 176.985 274.623 176.296C273.494 175.599 272.625 174.631 272.016 173.392C271.415 172.153 271.114 170.715 271.114 169.08C271.114 167.445 271.415 166.007 272.016 164.768C272.625 163.529 273.494 162.564 274.623 161.875C275.752 161.178 277.109 160.83 278.693 160.83C280.277 160.83 281.634 161.178 282.763 161.875C283.9 162.564 284.769 163.529 285.37 164.768C285.979 166.007 286.283 167.445 286.283 169.08C286.283 170.715 285.979 172.153 285.37 173.392C284.769 174.631 283.9 175.599 282.763 176.296C281.634 176.985 280.277 177.33 278.693 177.33ZM278.693 174.833C279.756 174.84 280.64 174.606 281.344 174.129C282.055 173.652 282.587 172.981 282.939 172.116C283.298 171.251 283.478 170.239 283.478 169.08C283.478 167.921 283.298 166.917 282.939 166.066C282.587 165.208 282.055 164.541 281.344 164.064C280.64 163.587 279.756 163.342 278.693 163.327C277.63 163.32 276.746 163.554 276.042 164.031C275.338 164.508 274.806 165.179 274.447 166.044C274.095 166.909 273.919 167.921 273.919 169.08C273.919 170.239 274.095 171.247 274.447 172.105C274.799 172.956 275.327 173.619 276.031 174.096C276.742 174.573 277.63 174.818 278.693 174.833ZM295.172 177.33C293.588 177.33 292.231 176.985 291.102 176.296C289.972 175.599 289.103 174.631 288.495 173.392C287.893 172.153 287.593 170.715 287.593 169.08C287.593 167.445 287.893 166.007 288.495 164.768C289.103 163.529 289.972 162.564 291.102 161.875C292.231 161.178 293.588 160.83 295.172 160.83C296.756 160.83 298.112 161.178 299.242 161.875C300.378 162.564 301.247 163.529 301.849 164.768C302.457 166.007 302.762 167.445 302.762 169.08C302.762 170.715 302.457 172.153 301.849 173.392C301.247 174.631 300.378 175.599 299.242 176.296C298.112 176.985 296.756 177.33 295.172 177.33ZM295.172 174.833C296.235 174.84 297.119 174.606 297.823 174.129C298.534 173.652 299.066 172.981 299.418 172.116C299.777 171.251 299.957 170.239 299.957 169.08C299.957 167.921 299.777 166.917 299.418 166.066C299.066 165.208 298.534 164.541 297.823 164.064C297.119 163.587 296.235 163.342 295.172 163.327C294.108 163.32 293.225 163.554 292.521 164.031C291.817 164.508 291.285 165.179 290.926 166.044C290.574 166.909 290.398 167.921 290.398 169.08C290.398 170.239 290.574 171.247 290.926 172.105C291.278 172.956 291.806 173.619 292.51 174.096C293.221 174.573 294.108 174.818 295.172 174.833ZM310.814 177.33C309.655 177.33 308.61 177.128 307.679 176.725C306.755 176.322 305.992 175.746 305.391 174.998C304.797 174.243 304.419 173.348 304.258 172.314L307.008 171.896C307.243 172.835 307.723 173.561 308.449 174.074C309.182 174.587 310.026 174.844 310.979 174.844C311.544 174.844 312.075 174.756 312.574 174.58C313.073 174.404 313.476 174.147 313.784 173.81C314.099 173.473 314.257 173.058 314.257 172.567C314.257 172.347 314.22 172.145 314.147 171.962C314.074 171.771 313.964 171.603 313.817 171.456C313.678 171.309 313.494 171.177 313.267 171.06C313.047 170.935 312.79 170.829 312.497 170.741L308.405 169.531C308.053 169.428 307.672 169.293 307.261 169.124C306.858 168.948 306.473 168.71 306.106 168.409C305.747 168.101 305.45 167.712 305.215 167.243C304.988 166.766 304.874 166.18 304.874 165.483C304.874 164.464 305.131 163.609 305.644 162.92C306.165 162.223 306.861 161.703 307.734 161.358C308.614 161.013 309.589 160.845 310.66 160.852C311.745 160.859 312.713 161.046 313.564 161.413C314.415 161.772 315.126 162.297 315.698 162.986C316.27 163.675 316.673 164.508 316.908 165.483L314.059 165.978C313.942 165.421 313.714 164.948 313.377 164.559C313.047 164.163 312.64 163.862 312.156 163.657C311.679 163.452 311.17 163.342 310.627 163.327C310.099 163.32 309.608 163.4 309.153 163.569C308.706 163.73 308.343 163.965 308.064 164.273C307.793 164.581 307.657 164.94 307.657 165.351C307.657 165.74 307.774 166.059 308.009 166.308C308.244 166.55 308.533 166.744 308.878 166.891C309.23 167.03 309.586 167.148 309.945 167.243L312.783 168.035C313.172 168.138 313.608 168.277 314.092 168.453C314.576 168.629 315.042 168.875 315.489 169.19C315.936 169.505 316.303 169.92 316.589 170.433C316.882 170.946 317.029 171.599 317.029 172.391C317.029 173.212 316.857 173.935 316.512 174.558C316.175 175.174 315.716 175.687 315.137 176.098C314.558 176.509 313.894 176.817 313.146 177.022C312.405 177.227 311.628 177.33 310.814 177.33ZM319.41 177V161.16H329.64V163.646H322.061V167.551H328.32V170.037H322.061V174.514H329.64V177H319.41ZM333.159 174.25V171.533H335.876V174.25H333.159ZM333.181 166.627V163.91H335.898V166.627H333.181ZM343.125 177L348.119 161.16H352.002L356.996 177H354.268L349.736 162.788H350.33L345.853 177H343.125ZM345.908 173.568V171.093H354.224V173.568H345.908ZM358.984 177V161.16H361.668L369.016 172.325V161.16H371.7V177H369.016L361.668 165.835V177H358.984ZM379.4 177V161.16H382.051V177H379.4ZM385.346 177V161.16H388.03L395.378 172.325V161.16H398.062V177H395.378L388.03 165.835V177H385.346ZM404.943 177V163.646H399.817V161.16H412.72V163.646H407.594V177H404.943ZM414.478 177V161.16H424.708V163.646H417.129V167.551H423.388V170.037H417.129V174.514H424.708V177H414.478ZM427.348 177V161.16H433.893C434.047 161.16 434.245 161.167 434.487 161.182C434.729 161.189 434.952 161.211 435.158 161.248C436.074 161.387 436.83 161.692 437.424 162.161C438.025 162.63 438.469 163.224 438.755 163.943C439.048 164.654 439.195 165.446 439.195 166.319C439.195 167.61 438.868 168.721 438.216 169.652C437.563 170.576 436.562 171.148 435.213 171.368L434.08 171.467H429.999V177H427.348ZM436.445 177L433.321 170.554L436.016 169.96L439.448 177H436.445ZM429.999 168.992H433.783C433.929 168.992 434.094 168.985 434.278 168.97C434.461 168.955 434.63 168.926 434.784 168.882C435.224 168.772 435.568 168.578 435.818 168.299C436.074 168.02 436.254 167.705 436.357 167.353C436.467 167.001 436.522 166.656 436.522 166.319C436.522 165.982 436.467 165.637 436.357 165.285C436.254 164.926 436.074 164.607 435.818 164.328C435.568 164.049 435.224 163.855 434.784 163.745C434.63 163.701 434.461 163.675 434.278 163.668C434.094 163.653 433.929 163.646 433.783 163.646H429.999V168.992ZM441.871 177V161.16H452.101V163.646H444.522V167.551H450.781V170.037H444.522V174.514H452.101V177H441.871ZM460.453 177.33C459.294 177.33 458.249 177.128 457.318 176.725C456.394 176.322 455.631 175.746 455.03 174.998C454.436 174.243 454.058 173.348 453.897 172.314L456.647 171.896C456.881 172.835 457.362 173.561 458.088 174.074C458.821 174.587 459.664 174.844 460.618 174.844C461.182 174.844 461.714 174.756 462.213 174.58C462.711 174.404 463.115 174.147 463.423 173.81C463.738 173.473 463.896 173.058 463.896 172.567C463.896 172.347 463.859 172.145 463.786 171.962C463.712 171.771 463.602 171.603 463.456 171.456C463.316 171.309 463.133 171.177 462.906 171.06C462.686 170.935 462.429 170.829 462.136 170.741L458.044 169.531C457.692 169.428 457.31 169.293 456.9 169.124C456.496 168.948 456.111 168.71 455.745 168.409C455.385 168.101 455.088 167.712 454.854 167.243C454.626 166.766 454.513 166.18 454.513 165.483C454.513 164.464 454.769 163.609 455.283 162.92C455.803 162.223 456.5 161.703 457.373 161.358C458.253 161.013 459.228 160.845 460.299 160.852C461.384 160.859 462.352 161.046 463.203 161.413C464.053 161.772 464.765 162.297 465.337 162.986C465.909 163.675 466.312 164.508 466.547 165.483L463.698 165.978C463.58 165.421 463.353 164.948 463.016 164.559C462.686 164.163 462.279 163.862 461.795 163.657C461.318 163.452 460.808 163.342 460.266 163.327C459.738 163.32 459.246 163.4 458.792 163.569C458.344 163.73 457.981 163.965 457.703 164.273C457.431 164.581 457.296 164.94 457.296 165.351C457.296 165.74 457.413 166.059 457.648 166.308C457.882 166.55 458.172 166.744 458.517 166.891C458.869 167.03 459.224 167.148 459.584 167.243L462.422 168.035C462.81 168.138 463.247 168.277 463.731 168.453C464.215 168.629 464.68 168.875 465.128 169.19C465.575 169.505 465.942 169.92 466.228 170.433C466.521 170.946 466.668 171.599 466.668 172.391C466.668 173.212 466.495 173.935 466.151 174.558C465.813 175.174 465.355 175.687 464.776 176.098C464.196 176.509 463.533 176.817 462.785 177.022C462.044 177.227 461.267 177.33 460.453 177.33ZM472.855 177V163.646H467.729V161.16H480.632V163.646H475.506V177H472.855ZM482.611 177V161.16H485.262V177H482.611ZM488.557 177V161.16H491.241L498.589 172.325V161.16H501.273V177H498.589L491.241 165.835V177H488.557ZM510.882 177.33C509.855 177.33 508.891 177.15 507.989 176.791C507.094 176.424 506.306 175.889 505.624 175.185C504.949 174.481 504.421 173.619 504.04 172.6C503.658 171.573 503.468 170.4 503.468 169.08C503.468 167.349 503.79 165.872 504.436 164.647C505.081 163.415 505.965 162.473 507.087 161.82C508.209 161.16 509.474 160.83 510.882 160.83C512.832 160.83 514.376 161.285 515.513 162.194C516.657 163.096 517.43 164.365 517.834 166L515.128 166.429C514.827 165.49 514.336 164.742 513.654 164.185C512.972 163.62 512.103 163.338 511.047 163.338C509.983 163.323 509.1 163.554 508.396 164.031C507.692 164.508 507.16 165.179 506.801 166.044C506.449 166.909 506.273 167.921 506.273 169.08C506.273 170.239 506.449 171.247 506.801 172.105C507.153 172.956 507.681 173.619 508.385 174.096C509.096 174.573 509.983 174.818 511.047 174.833C511.846 174.84 512.546 174.697 513.148 174.404C513.749 174.103 514.24 173.652 514.622 173.051C515.003 172.442 515.26 171.683 515.392 170.774H512.598V168.695H518.208C518.222 168.812 518.233 168.985 518.241 169.212C518.248 169.439 518.252 169.575 518.252 169.619C518.252 171.115 517.955 172.446 517.361 173.612C516.774 174.771 515.931 175.68 514.831 176.34C513.731 177 512.414 177.33 510.882 177.33ZM528.033 177.33C526.823 177.33 525.815 177.015 525.008 176.384C524.209 175.753 523.648 174.903 523.325 173.832L525.943 173.205C526.024 173.652 526.259 174.037 526.647 174.36C527.036 174.683 527.465 174.844 527.934 174.844C528.242 174.844 528.569 174.763 528.913 174.602C529.258 174.433 529.515 174.166 529.683 173.799C529.786 173.564 529.845 173.286 529.859 172.963C529.881 172.633 529.892 172.252 529.892 171.819V161.16H532.576V171.819C532.576 172.31 532.573 172.743 532.565 173.117C532.565 173.484 532.529 173.832 532.455 174.162C532.389 174.485 532.254 174.818 532.048 175.163C531.616 175.911 531.051 176.461 530.354 176.813C529.658 177.158 528.884 177.33 528.033 177.33ZM542.586 177.33C541.002 177.33 539.645 176.985 538.516 176.296C537.386 175.599 536.517 174.631 535.909 173.392C535.307 172.153 535.007 170.715 535.007 169.08C535.007 167.445 535.307 166.007 535.909 164.768C536.517 163.529 537.386 162.564 538.516 161.875C539.645 161.178 541.002 160.83 542.586 160.83C544.17 160.83 545.526 161.178 546.656 161.875C547.792 162.564 548.661 163.529 549.263 164.768C549.871 166.007 550.176 167.445 550.176 169.08C550.176 170.715 549.871 172.153 549.263 173.392C548.661 174.631 547.792 175.599 546.656 176.296C545.526 176.985 544.17 177.33 542.586 177.33ZM542.586 174.833C543.649 174.84 544.533 174.606 545.237 174.129C545.948 173.652 546.48 172.981 546.832 172.116C547.191 171.251 547.371 170.239 547.371 169.08C547.371 167.921 547.191 166.917 546.832 166.066C546.48 165.208 545.948 164.541 545.237 164.064C544.533 163.587 543.649 163.342 542.586 163.327C541.522 163.32 540.639 163.554 539.935 164.031C539.231 164.508 538.699 165.179 538.34 166.044C537.988 166.909 537.812 167.921 537.812 169.08C537.812 170.239 537.988 171.247 538.34 172.105C538.692 172.956 539.22 173.619 539.924 174.096C540.635 174.573 541.522 174.818 542.586 174.833ZM552.365 177V161.16H558.646C559.717 161.16 560.593 161.376 561.275 161.809C561.965 162.234 562.474 162.781 562.804 163.448C563.142 164.115 563.31 164.805 563.31 165.516C563.31 166.389 563.101 167.129 562.683 167.738C562.273 168.347 561.712 168.757 561 168.97V168.42C561.998 168.647 562.753 169.12 563.266 169.839C563.787 170.558 564.047 171.375 564.047 172.292C564.047 173.231 563.868 174.052 563.508 174.756C563.149 175.46 562.614 176.01 561.902 176.406C561.198 176.802 560.326 177 559.284 177H552.365ZM555.049 174.503H558.954C559.416 174.503 559.831 174.411 560.197 174.228C560.564 174.037 560.85 173.773 561.055 173.436C561.268 173.091 561.374 172.684 561.374 172.215C561.374 171.79 561.283 171.408 561.099 171.071C560.916 170.734 560.648 170.466 560.296 170.268C559.944 170.063 559.523 169.96 559.031 169.96H555.049V174.503ZM555.049 167.485H558.613C558.995 167.485 559.336 167.412 559.636 167.265C559.937 167.118 560.175 166.902 560.351 166.616C560.527 166.33 560.615 165.978 560.615 165.56C560.615 165.01 560.439 164.552 560.087 164.185C559.735 163.818 559.244 163.635 558.613 163.635H555.049V167.485ZM44.0266 208L39.3956 192.16H42.1786L45.3356 203.6L48.4816 192.182L51.2646 192.16L54.4216 203.6L57.5676 192.16H60.3506L55.7306 208H53.1126L49.8676 196.736L46.6446 208H44.0266ZM62.3655 208V192.16H65.0165V208H62.3655ZM72.1175 208V194.646H66.9915V192.16H79.8945V194.646H74.7685V208H72.1175ZM81.6533 208V192.16H84.3043V198.826H91.8063V192.16H94.4463V208H91.8063V201.312H84.3043V208H81.6533ZM100.835 208L105.829 192.16H109.712L114.706 208H111.978L107.446 193.788H108.04L103.563 208H100.835ZM103.618 204.568V202.093H111.934V204.568H103.618ZM121.099 208V192.16H127.38C128.45 192.16 129.327 192.376 130.009 192.809C130.698 193.234 131.208 193.781 131.538 194.448C131.875 195.115 132.044 195.805 132.044 196.516C132.044 197.389 131.835 198.129 131.417 198.738C131.006 199.347 130.445 199.757 129.734 199.97V199.42C130.731 199.647 131.486 200.12 132 200.839C132.52 201.558 132.781 202.375 132.781 203.292C132.781 204.231 132.601 205.052 132.242 205.756C131.882 206.46 131.347 207.01 130.636 207.406C129.932 207.802 129.059 208 128.018 208H121.099ZM123.783 205.503H127.688C128.15 205.503 128.564 205.411 128.931 205.228C129.297 205.037 129.583 204.773 129.789 204.436C130.001 204.091 130.108 203.684 130.108 203.215C130.108 202.79 130.016 202.408 129.833 202.071C129.649 201.734 129.382 201.466 129.03 201.268C128.678 201.063 128.256 200.96 127.765 200.96H123.783V205.503ZM123.783 198.485H127.347C127.728 198.485 128.069 198.412 128.37 198.265C128.67 198.118 128.909 197.902 129.085 197.616C129.261 197.33 129.349 196.978 129.349 196.56C129.349 196.01 129.173 195.552 128.821 195.185C128.469 194.818 127.977 194.635 127.347 194.635H123.783V198.485ZM133.878 208L138.872 192.16H142.755L147.749 208H145.021L140.489 193.788H141.083L136.606 208H133.878ZM136.661 204.568V202.093H144.977V204.568H136.661ZM149.737 208V192.16H154.786C154.918 192.16 155.179 192.164 155.567 192.171C155.963 192.178 156.345 192.204 156.711 192.248C157.965 192.409 159.025 192.857 159.89 193.59C160.763 194.316 161.423 195.244 161.87 196.373C162.318 197.502 162.541 198.738 162.541 200.08C162.541 201.422 162.318 202.658 161.87 203.787C161.423 204.916 160.763 205.848 159.89 206.581C159.025 207.307 157.965 207.751 156.711 207.912C156.352 207.956 155.974 207.982 155.578 207.989C155.182 207.996 154.918 208 154.786 208H149.737ZM152.432 205.503H154.786C155.006 205.503 155.285 205.496 155.622 205.481C155.967 205.466 156.271 205.433 156.535 205.382C157.283 205.243 157.892 204.909 158.361 204.381C158.831 203.853 159.175 203.211 159.395 202.456C159.623 201.701 159.736 200.909 159.736 200.08C159.736 199.222 159.623 198.415 159.395 197.66C159.168 196.905 158.816 196.27 158.339 195.757C157.87 195.244 157.269 194.917 156.535 194.778C156.271 194.719 155.967 194.686 155.622 194.679C155.285 194.664 155.006 194.657 154.786 194.657H152.432V205.503ZM173.352 208V194.646H168.226V192.16H181.129V194.646H176.003V208H173.352ZM182.888 208V192.16H193.118V194.646H185.539V198.551H191.798V201.037H185.539V205.514H193.118V208H182.888ZM194.657 208L199.651 192.16H203.534L208.528 208H205.8L201.268 193.788H201.862L197.385 208H194.657ZM197.44 204.568V202.093H205.756V204.568H197.44ZM210.517 208V192.16H212.904L218.382 203.38L223.86 192.16H226.247V208H223.772V197.847L218.91 208H217.854L213.003 197.847V208H210.517ZM229.117 210.805L229.271 209.661C229.608 209.69 229.876 209.632 230.074 209.485C230.272 209.346 230.404 209.144 230.47 208.88C230.543 208.623 230.562 208.33 230.525 208H229.117V205.173H231.834V208.11C231.834 209.071 231.607 209.797 231.152 210.288C230.697 210.779 230.019 210.952 229.117 210.805ZM247.122 208.33C245.538 208.33 244.181 207.985 243.052 207.296C241.922 206.599 241.053 205.631 240.445 204.392C239.843 203.153 239.543 201.715 239.543 200.08C239.543 198.445 239.843 197.007 240.445 195.768C241.053 194.529 241.922 193.564 243.052 192.875C244.181 192.178 245.538 191.83 247.122 191.83C248.706 191.83 250.062 192.178 251.192 192.875C252.328 193.564 253.197 194.529 253.799 195.768C254.407 197.007 254.712 198.445 254.712 200.08C254.712 201.715 254.407 203.153 253.799 204.392C253.197 205.631 252.328 206.599 251.192 207.296C250.062 207.985 248.706 208.33 247.122 208.33ZM247.122 205.833C248.185 205.84 249.069 205.606 249.773 205.129C250.484 204.652 251.016 203.981 251.368 203.116C251.727 202.251 251.907 201.239 251.907 200.08C251.907 198.921 251.727 197.917 251.368 197.066C251.016 196.208 250.484 195.541 249.773 195.064C249.069 194.587 248.185 194.342 247.122 194.327C246.058 194.32 245.175 194.554 244.471 195.031C243.767 195.508 243.235 196.179 242.876 197.044C242.524 197.909 242.348 198.921 242.348 200.08C242.348 201.239 242.524 202.247 242.876 203.105C243.228 203.956 243.756 204.619 244.46 205.096C245.171 205.573 246.058 205.818 247.122 205.833ZM256.901 208V192.16H263.446C263.6 192.16 263.798 192.167 264.04 192.182C264.282 192.189 264.506 192.211 264.711 192.248C265.628 192.387 266.383 192.692 266.977 193.161C267.579 193.63 268.022 194.224 268.308 194.943C268.602 195.654 268.748 196.446 268.748 197.319C268.748 198.61 268.422 199.721 267.769 200.652C267.117 201.576 266.116 202.148 264.766 202.368L263.633 202.467H259.552V208H256.901ZM265.998 208L262.874 201.554L265.569 200.96L269.001 208H265.998ZM259.552 199.992H263.336C263.483 199.992 263.648 199.985 263.831 199.97C264.015 199.955 264.183 199.926 264.337 199.882C264.777 199.772 265.122 199.578 265.371 199.299C265.628 199.02 265.808 198.705 265.91 198.353C266.02 198.001 266.075 197.656 266.075 197.319C266.075 196.982 266.02 196.637 265.91 196.285C265.808 195.926 265.628 195.607 265.371 195.328C265.122 195.049 264.777 194.855 264.337 194.745C264.183 194.701 264.015 194.675 263.831 194.668C263.648 194.653 263.483 194.646 263.336 194.646H259.552V199.992ZM274.729 208L279.723 192.16H283.606L288.6 208H285.872L281.34 193.788H281.934L277.457 208H274.729ZM277.512 204.568V202.093H285.828V204.568H277.512ZM294.993 208V192.16H297.677L305.025 203.325V192.16H307.709V208H305.025L297.677 196.835V208H294.993ZM311.004 208V192.16H313.655V208H311.004ZM323.649 208.33C322.065 208.33 320.708 207.985 319.579 207.296C318.45 206.599 317.581 205.631 316.972 204.392C316.371 203.153 316.07 201.715 316.07 200.08C316.07 198.445 316.371 197.007 316.972 195.768C317.581 194.529 318.45 193.564 319.579 192.875C320.708 192.178 322.065 191.83 323.649 191.83C325.475 191.83 326.997 192.288 328.214 193.205C329.431 194.114 330.286 195.343 330.777 196.89L328.104 197.627C327.796 196.593 327.272 195.786 326.531 195.207C325.79 194.62 324.83 194.327 323.649 194.327C322.586 194.327 321.698 194.565 320.987 195.042C320.283 195.519 319.751 196.19 319.392 197.055C319.04 197.913 318.86 198.921 318.853 200.08C318.853 201.239 319.029 202.251 319.381 203.116C319.74 203.974 320.276 204.641 320.987 205.118C321.698 205.595 322.586 205.833 323.649 205.833C324.83 205.833 325.79 205.54 326.531 204.953C327.272 204.366 327.796 203.56 328.104 202.533L330.777 203.27C330.286 204.817 329.431 206.049 328.214 206.966C326.997 207.875 325.475 208.33 323.649 208.33ZM333.192 208V192.16H343.422V194.646H335.843V198.551H342.102V201.037H335.843V205.514H343.422V208H333.192ZM349.366 208L354.36 192.16H358.243L363.237 208H360.509L355.977 193.788H356.571L352.094 208H349.366ZM352.149 204.568V202.093H360.465V204.568H352.149ZM365.226 208V192.16H367.91L375.258 203.325V192.16H377.942V208H375.258L367.91 196.835V208H365.226ZM381.017 208V192.16H386.066C386.198 192.16 386.458 192.164 386.847 192.171C387.243 192.178 387.624 192.204 387.991 192.248C389.245 192.409 390.304 192.857 391.17 193.59C392.042 194.316 392.702 195.244 393.15 196.373C393.597 197.502 393.821 198.738 393.821 200.08C393.821 201.422 393.597 202.658 393.15 203.787C392.702 204.916 392.042 205.848 391.17 206.581C390.304 207.307 389.245 207.751 387.991 207.912C387.631 207.956 387.254 207.982 386.858 207.989C386.462 207.996 386.198 208 386.066 208H381.017ZM383.712 205.503H386.066C386.286 205.503 386.564 205.496 386.902 205.481C387.246 205.466 387.551 205.433 387.815 205.382C388.563 205.243 389.171 204.909 389.641 204.381C390.11 203.853 390.455 203.211 390.675 202.456C390.902 201.701 391.016 200.909 391.016 200.08C391.016 199.222 390.902 198.415 390.675 197.66C390.447 196.905 390.095 196.27 389.619 195.757C389.149 195.244 388.548 194.917 387.815 194.778C387.551 194.719 387.246 194.686 386.902 194.679C386.564 194.664 386.286 194.657 386.066 194.657H383.712V205.503ZM400.825 208V192.16H410.362V194.811H403.476V198.76H409.042V201.4H403.476V208H400.825ZM412.341 208V192.16H418.886C419.04 192.16 419.238 192.167 419.48 192.182C419.722 192.189 419.945 192.211 420.151 192.248C421.067 192.387 421.823 192.692 422.417 193.161C423.018 193.63 423.462 194.224 423.748 194.943C424.041 195.654 424.188 196.446 424.188 197.319C424.188 198.61 423.861 199.721 423.209 200.652C422.556 201.576 421.555 202.148 420.206 202.368L419.073 202.467H414.992V208H412.341ZM421.438 208L418.314 201.554L421.009 200.96L424.441 208H421.438ZM414.992 199.992H418.776C418.922 199.992 419.087 199.985 419.271 199.97C419.454 199.955 419.623 199.926 419.777 199.882C420.217 199.772 420.561 199.578 420.811 199.299C421.067 199.02 421.247 198.705 421.35 198.353C421.46 198.001 421.515 197.656 421.515 197.319C421.515 196.982 421.46 196.637 421.35 196.285C421.247 195.926 421.067 195.607 420.811 195.328C420.561 195.049 420.217 194.855 419.777 194.745C419.623 194.701 419.454 194.675 419.271 194.668C419.087 194.653 418.922 194.646 418.776 194.646H414.992V199.992ZM427.084 208V192.16H429.735V208H427.084ZM433.03 208V192.16H443.26V194.646H435.681V198.551H441.94V201.037H435.681V205.514H443.26V208H433.03ZM445.899 208V192.16H448.583L455.931 203.325V192.16H458.615V208H455.931L448.583 196.835V208H445.899ZM461.69 208V192.16H466.739C466.871 192.16 467.132 192.164 467.52 192.171C467.916 192.178 468.298 192.204 468.664 192.248C469.918 192.409 470.978 192.857 471.843 193.59C472.716 194.316 473.376 195.244 473.823 196.373C474.271 197.502 474.494 198.738 474.494 200.08C474.494 201.422 474.271 202.658 473.823 203.787C473.376 204.916 472.716 205.848 471.843 206.581C470.978 207.307 469.918 207.751 468.664 207.912C468.305 207.956 467.927 207.982 467.531 207.989C467.135 207.996 466.871 208 466.739 208H461.69ZM464.385 205.503H466.739C466.959 205.503 467.238 205.496 467.575 205.481C467.92 205.466 468.224 205.433 468.488 205.382C469.236 205.243 469.845 204.909 470.314 204.381C470.784 203.853 471.128 203.211 471.348 202.456C471.576 201.701 471.689 200.909 471.689 200.08C471.689 199.222 471.576 198.415 471.348 197.66C471.121 196.905 470.769 196.27 470.292 195.757C469.823 195.244 469.222 194.917 468.488 194.778C468.224 194.719 467.92 194.686 467.575 194.679C467.238 194.664 466.959 194.657 466.739 194.657H464.385V205.503ZM477.315 208V192.16H479.966V205.514H486.962V208H477.315ZM490.484 208V201.51L485.094 192.16H488.185L491.826 198.474L495.456 192.16H498.547L493.168 201.51V208H490.484ZM507.412 208V194.646H502.286V192.16H515.189V194.646H510.063V208H507.412ZM516.948 208V192.16H527.178V194.646H519.599V198.551H525.858V201.037H519.599V205.514H527.178V208H516.948ZM528.717 208L533.711 192.16H537.594L542.588 208H539.86L535.328 193.788H535.922L531.445 208H528.717ZM531.5 204.568V202.093H539.816V204.568H531.5ZM544.577 208V192.16H546.964L552.442 203.38L557.92 192.16H560.307V208H557.832V197.847L552.97 208H551.914L547.063 197.847V208H544.577ZM194.729 239L190.098 223.16H192.881L196.038 234.6L199.184 223.182L201.967 223.16L205.124 234.6L208.27 223.16H211.053L206.433 239H203.815L200.57 227.736L197.347 239H194.729ZM213.068 239V223.16H215.719V239H213.068ZM222.82 239V225.646H217.694V223.16H230.597V225.646H225.471V239H222.82ZM232.355 239V223.16H235.006V229.826H242.508V223.16H245.148V239H242.508V232.312H235.006V239H232.355ZM251.537 239L256.531 223.16H260.414L265.408 239H262.68L258.148 224.788H258.742L254.265 239H251.537ZM254.32 235.568V233.093H262.636V235.568H254.32ZM271.801 239V223.16H278.082C279.152 223.16 280.029 223.376 280.711 223.809C281.4 224.234 281.91 224.781 282.24 225.448C282.577 226.115 282.746 226.805 282.746 227.516C282.746 228.389 282.537 229.129 282.119 229.738C281.708 230.347 281.147 230.757 280.436 230.97V230.42C281.433 230.647 282.188 231.12 282.702 231.839C283.222 232.558 283.483 233.375 283.483 234.292C283.483 235.231 283.303 236.052 282.944 236.756C282.584 237.46 282.049 238.01 281.338 238.406C280.634 238.802 279.761 239 278.72 239H271.801ZM274.485 236.503H278.39C278.852 236.503 279.266 236.411 279.633 236.228C279.999 236.037 280.285 235.773 280.491 235.436C280.703 235.091 280.81 234.684 280.81 234.215C280.81 233.79 280.718 233.408 280.535 233.071C280.351 232.734 280.084 232.466 279.732 232.268C279.38 232.063 278.958 231.96 278.467 231.96H274.485V236.503ZM274.485 229.485H278.049C278.43 229.485 278.771 229.412 279.072 229.265C279.372 229.118 279.611 228.902 279.787 228.616C279.963 228.33 280.051 227.978 280.051 227.56C280.051 227.01 279.875 226.552 279.523 226.185C279.171 225.818 278.679 225.635 278.049 225.635H274.485V229.485ZM292.379 239.33C290.795 239.33 289.438 238.985 288.309 238.296C287.179 237.599 286.31 236.631 285.702 235.392C285.1 234.153 284.8 232.715 284.8 231.08C284.8 229.445 285.1 228.007 285.702 226.768C286.31 225.529 287.179 224.564 288.309 223.875C289.438 223.178 290.795 222.83 292.379 222.83C293.963 222.83 295.319 223.178 296.449 223.875C297.585 224.564 298.454 225.529 299.056 226.768C299.664 228.007 299.969 229.445 299.969 231.08C299.969 232.715 299.664 234.153 299.056 235.392C298.454 236.631 297.585 237.599 296.449 238.296C295.319 238.985 293.963 239.33 292.379 239.33ZM292.379 236.833C293.442 236.84 294.326 236.606 295.03 236.129C295.741 235.652 296.273 234.981 296.625 234.116C296.984 233.251 297.164 232.239 297.164 231.08C297.164 229.921 296.984 228.917 296.625 228.066C296.273 227.208 295.741 226.541 295.03 226.064C294.326 225.587 293.442 225.342 292.379 225.327C291.315 225.32 290.432 225.554 289.728 226.031C289.024 226.508 288.492 227.179 288.133 228.044C287.781 228.909 287.605 229.921 287.605 231.08C287.605 232.239 287.781 233.247 288.133 234.105C288.485 234.956 289.013 235.619 289.717 236.096C290.428 236.573 291.315 236.818 292.379 236.833ZM302.158 239V223.16H308.703C308.857 223.16 309.055 223.167 309.297 223.182C309.539 223.189 309.763 223.211 309.968 223.248C310.885 223.387 311.64 223.692 312.234 224.161C312.835 224.63 313.279 225.224 313.565 225.943C313.858 226.654 314.005 227.446 314.005 228.319C314.005 229.61 313.679 230.721 313.026 231.652C312.373 232.576 311.372 233.148 310.023 233.368L308.89 233.467H304.809V239H302.158ZM311.255 239L308.131 232.554L310.826 231.96L314.258 239H311.255ZM304.809 230.992H308.593C308.74 230.992 308.905 230.985 309.088 230.97C309.271 230.955 309.44 230.926 309.594 230.882C310.034 230.772 310.379 230.578 310.628 230.299C310.885 230.02 311.064 229.705 311.167 229.353C311.277 229.001 311.332 228.656 311.332 228.319C311.332 227.982 311.277 227.637 311.167 227.285C311.064 226.926 310.885 226.607 310.628 226.328C310.379 226.049 310.034 225.855 309.594 225.745C309.44 225.701 309.271 225.675 309.088 225.668C308.905 225.653 308.74 225.646 308.593 225.646H304.809V230.992ZM316.902 239V223.16H319.553V239H316.902ZM322.848 239V223.16H325.532L332.88 234.325V223.16H335.564V239H332.88L325.532 227.835V239H322.848ZM345.173 239.33C344.146 239.33 343.182 239.15 342.28 238.791C341.385 238.424 340.597 237.889 339.915 237.185C339.24 236.481 338.712 235.619 338.331 234.6C337.949 233.573 337.759 232.4 337.759 231.08C337.759 229.349 338.081 227.872 338.727 226.647C339.372 225.415 340.256 224.473 341.378 223.82C342.5 223.16 343.765 222.83 345.173 222.83C347.123 222.83 348.667 223.285 349.804 224.194C350.948 225.096 351.721 226.365 352.125 228L349.419 228.429C349.118 227.49 348.627 226.742 347.945 226.185C347.263 225.62 346.394 225.338 345.338 225.338C344.274 225.323 343.391 225.554 342.687 226.031C341.983 226.508 341.451 227.179 341.092 228.044C340.74 228.909 340.564 229.921 340.564 231.08C340.564 232.239 340.74 233.247 341.092 234.105C341.444 234.956 341.972 235.619 342.676 236.096C343.387 236.573 344.274 236.818 345.338 236.833C346.137 236.84 346.837 236.697 347.439 236.404C348.04 236.103 348.531 235.652 348.913 235.051C349.294 234.442 349.551 233.683 349.683 232.774H346.889V230.695H352.499C352.513 230.812 352.524 230.985 352.532 231.212C352.539 231.439 352.543 231.575 352.543 231.619C352.543 233.115 352.246 234.446 351.652 235.612C351.065 236.771 350.222 237.68 349.122 238.34C348.022 239 346.705 239.33 345.173 239.33ZM362.324 239.33C361.114 239.33 360.106 239.015 359.299 238.384C358.5 237.753 357.939 236.903 357.616 235.832L360.234 235.205C360.315 235.652 360.55 236.037 360.938 236.36C361.327 236.683 361.756 236.844 362.225 236.844C362.533 236.844 362.86 236.763 363.204 236.602C363.549 236.433 363.806 236.166 363.974 235.799C364.077 235.564 364.136 235.286 364.15 234.963C364.172 234.633 364.183 234.252 364.183 233.819V223.16H366.867V233.819C366.867 234.31 366.864 234.743 366.856 235.117C366.856 235.484 366.82 235.832 366.746 236.162C366.68 236.485 366.545 236.818 366.339 237.163C365.907 237.911 365.342 238.461 364.645 238.813C363.949 239.158 363.175 239.33 362.324 239.33ZM376.877 239.33C375.293 239.33 373.936 238.985 372.807 238.296C371.677 237.599 370.808 236.631 370.2 235.392C369.598 234.153 369.298 232.715 369.298 231.08C369.298 229.445 369.598 228.007 370.2 226.768C370.808 225.529 371.677 224.564 372.807 223.875C373.936 223.178 375.293 222.83 376.877 222.83C378.461 222.83 379.817 223.178 380.947 223.875C382.083 224.564 382.952 225.529 383.554 226.768C384.162 228.007 384.467 229.445 384.467 231.08C384.467 232.715 384.162 234.153 383.554 235.392C382.952 236.631 382.083 237.599 380.947 238.296C379.817 238.985 378.461 239.33 376.877 239.33ZM376.877 236.833C377.94 236.84 378.824 236.606 379.528 236.129C380.239 235.652 380.771 234.981 381.123 234.116C381.482 233.251 381.662 232.239 381.662 231.08C381.662 229.921 381.482 228.917 381.123 228.066C380.771 227.208 380.239 226.541 379.528 226.064C378.824 225.587 377.94 225.342 376.877 225.327C375.813 225.32 374.93 225.554 374.226 226.031C373.522 226.508 372.99 227.179 372.631 228.044C372.279 228.909 372.103 229.921 372.103 231.08C372.103 232.239 372.279 233.247 372.631 234.105C372.983 234.956 373.511 235.619 374.215 236.096C374.926 236.573 375.813 236.818 376.877 236.833ZM386.656 239V223.16H392.937C394.008 223.16 394.884 223.376 395.566 223.809C396.256 224.234 396.765 224.781 397.095 225.448C397.433 226.115 397.601 226.805 397.601 227.516C397.601 228.389 397.392 229.129 396.974 229.738C396.564 230.347 396.003 230.757 395.291 230.97V230.42C396.289 230.647 397.044 231.12 397.557 231.839C398.078 232.558 398.338 233.375 398.338 234.292C398.338 235.231 398.159 236.052 397.799 236.756C397.44 237.46 396.905 238.01 396.193 238.406C395.489 238.802 394.617 239 393.575 239H386.656ZM389.34 236.503H393.245C393.707 236.503 394.122 236.411 394.488 236.228C394.855 236.037 395.141 235.773 395.346 235.436C395.559 235.091 395.665 234.684 395.665 234.215C395.665 233.79 395.574 233.408 395.39 233.071C395.207 232.734 394.939 232.466 394.587 232.268C394.235 232.063 393.814 231.96 393.322 231.96H389.34V236.503ZM389.34 229.485H392.904C393.286 229.485 393.627 229.412 393.927 229.265C394.228 229.118 394.466 228.902 394.642 228.616C394.818 228.33 394.906 227.978 394.906 227.56C394.906 227.01 394.73 226.552 394.378 226.185C394.026 225.818 393.535 225.635 392.904 225.635H389.34V229.485ZM403.406 234.699C403.406 234.193 403.454 233.705 403.549 233.236C403.652 232.759 403.817 232.319 404.044 231.916C404.242 231.527 404.462 231.219 404.704 230.992C404.946 230.757 405.217 230.526 405.518 230.299C405.819 230.064 406.152 229.753 406.519 229.364C406.82 229.034 407.018 228.708 407.113 228.385C407.208 228.055 407.256 227.703 407.256 227.329C407.256 227.087 407.23 226.86 407.179 226.647C407.128 226.434 407.036 226.251 406.904 226.097C406.699 225.826 406.435 225.635 406.112 225.525C405.789 225.408 405.445 225.349 405.078 225.349C404.777 225.349 404.488 225.389 404.209 225.47C403.938 225.543 403.707 225.661 403.516 225.822C403.296 225.998 403.135 226.214 403.032 226.471C402.929 226.728 402.882 227.01 402.889 227.318H400.095C400.168 226.585 400.366 225.906 400.689 225.283C401.019 224.652 401.452 224.15 401.987 223.776C402.405 223.468 402.874 223.237 403.395 223.083C403.923 222.929 404.451 222.852 404.979 222.852C405.786 222.852 406.545 222.977 407.256 223.226C407.975 223.475 408.572 223.886 409.049 224.458C409.379 224.832 409.628 225.265 409.797 225.756C409.973 226.247 410.061 226.746 410.061 227.252C410.061 228.007 409.896 228.697 409.566 229.32C409.243 229.943 408.833 230.519 408.334 231.047C408.099 231.296 407.876 231.516 407.663 231.707C407.45 231.898 407.252 232.085 407.069 232.268C406.893 232.444 406.746 232.631 406.629 232.829C406.424 233.174 406.303 233.467 406.266 233.709C406.229 233.944 406.211 234.274 406.211 234.699H403.406ZM403.428 239V236.085H406.211V239H403.428Z" fill="white"></path><rect x="20" y="20" width="163" height="40" rx="20" fill="white" fill-opacity="0.3"></rect><path d="M33.245 46V34.48H37.733C38.421 34.48 39.0077 34.6213 39.493 34.904C39.9837 35.1867 40.357 35.56 40.613 36.024C40.8743 36.4827 41.005 36.9787 41.005 37.512C41.005 38.136 40.845 38.6827 40.525 39.152C40.205 39.6213 39.773 39.944 39.229 40.12L39.213 39.728C39.9543 39.9253 40.5303 40.288 40.941 40.816C41.3517 41.344 41.557 41.9733 41.557 42.704C41.557 43.376 41.4183 43.9573 41.141 44.448C40.869 44.9387 40.4743 45.32 39.957 45.592C39.445 45.864 38.837 46 38.133 46H33.245ZM34.685 44.64H37.861C38.2877 44.64 38.669 44.5627 39.005 44.408C39.341 44.248 39.605 44.024 39.797 43.736C39.9943 43.448 40.093 43.1013 40.093 42.696C40.093 42.3067 40.005 41.9573 39.829 41.648C39.6583 41.3387 39.4157 41.0933 39.101 40.912C38.7917 40.7253 38.4317 40.632 38.021 40.632H34.685V44.64ZM34.685 39.288H37.717C38.0583 39.288 38.365 39.216 38.637 39.072C38.9143 38.9227 39.133 38.7147 39.293 38.448C39.4583 38.1813 39.541 37.8693 39.541 37.512C39.541 37.016 39.373 36.6107 39.037 36.296C38.701 35.9813 38.261 35.824 37.717 35.824H34.685V39.288ZM47.6953 46.24C46.8046 46.24 46.0179 46.056 45.3353 45.688C44.6526 45.32 44.1166 44.8053 43.7273 44.144C43.3433 43.4773 43.1513 42.696 43.1513 41.8V34.488L44.5913 34.48V41.68C44.5913 42.224 44.6819 42.6987 44.8633 43.104C45.0499 43.504 45.2953 43.8373 45.5993 44.104C45.9033 44.3707 46.2366 44.5707 46.5993 44.704C46.9673 44.832 47.3326 44.896 47.6953 44.896C48.0633 44.896 48.4313 44.8293 48.7993 44.696C49.1673 44.5627 49.5006 44.3653 49.7993 44.104C50.1033 43.8373 50.3459 43.5013 50.5273 43.096C50.7086 42.6907 50.7993 42.2187 50.7993 41.68V34.48H52.2393V41.8C52.2393 42.6907 52.0446 43.4693 51.6553 44.136C51.2713 44.8027 50.7379 45.32 50.0553 45.688C49.3726 46.056 48.5859 46.24 47.6953 46.24ZM58.083 46.24C57.267 46.24 56.531 46.1013 55.875 45.824C55.2243 45.5467 54.6857 45.152 54.259 44.64C53.8377 44.1227 53.563 43.512 53.435 42.808L54.907 42.576C55.0937 43.3013 55.4803 43.8693 56.067 44.28C56.659 44.6853 57.355 44.888 58.155 44.888C58.6723 44.888 59.139 44.808 59.555 44.648C59.9763 44.4827 60.3097 44.248 60.555 43.944C60.8003 43.64 60.923 43.28 60.923 42.864C60.923 42.608 60.8777 42.3893 60.787 42.208C60.7017 42.0213 60.5817 41.864 60.427 41.736C60.2777 41.6027 60.107 41.4907 59.915 41.4C59.723 41.3093 59.523 41.2347 59.315 41.176L56.379 40.304C56.059 40.208 55.7497 40.088 55.451 39.944C55.1523 39.7947 54.8857 39.6107 54.651 39.392C54.4163 39.168 54.2297 38.9013 54.091 38.592C53.9523 38.2773 53.883 37.9067 53.883 37.48C53.883 36.7973 54.059 36.216 54.411 35.736C54.7683 35.2507 55.251 34.88 55.859 34.624C56.467 34.368 57.1523 34.2427 57.915 34.248C58.6883 34.2533 59.379 34.392 59.987 34.664C60.6003 34.9307 61.107 35.3147 61.507 35.816C61.9123 36.3173 62.1843 36.9173 62.323 37.616L60.811 37.88C60.731 37.4107 60.5523 37.008 60.275 36.672C60.003 36.3307 59.6617 36.0693 59.251 35.888C58.8403 35.7013 58.3897 35.6053 57.899 35.6C57.4297 35.5947 57.0057 35.6693 56.627 35.824C56.2483 35.9787 55.947 36.1947 55.723 36.472C55.499 36.744 55.387 37.0587 55.387 37.416C55.387 37.768 55.4883 38.0533 55.691 38.272C55.8937 38.4853 56.1417 38.656 56.435 38.784C56.7337 38.9067 57.0243 39.008 57.307 39.088L59.499 39.72C59.7497 39.7893 60.0377 39.8853 60.363 40.008C60.6937 40.1307 61.0137 40.304 61.323 40.528C61.6323 40.7467 61.8883 41.04 62.091 41.408C62.2937 41.7707 62.395 42.2293 62.395 42.784C62.395 43.3387 62.283 43.832 62.059 44.264C61.8403 44.696 61.5337 45.0587 61.139 45.352C60.7443 45.64 60.2857 45.8587 59.763 46.008C59.2403 46.1627 58.6803 46.24 58.083 46.24ZM64.2331 46V34.48H65.6571V46H64.2331ZM68.0575 46V34.48H69.4975L75.5055 43.48V34.48H76.9455V46H75.5055L69.4975 36.992V46H68.0575ZM79.1825 46V34.48H86.4625V35.832H80.6065V39.44H85.5025V40.792H80.6065V44.648H86.4625V46H79.1825ZM92.1455 46.24C91.3295 46.24 90.5935 46.1013 89.9375 45.824C89.2868 45.5467 88.7482 45.152 88.3215 44.64C87.9002 44.1227 87.6255 43.512 87.4975 42.808L88.9695 42.576C89.1562 43.3013 89.5428 43.8693 90.1295 44.28C90.7215 44.6853 91.4175 44.888 92.2175 44.888C92.7348 44.888 93.2015 44.808 93.6175 44.648C94.0388 44.4827 94.3722 44.248 94.6175 43.944C94.8628 43.64 94.9855 43.28 94.9855 42.864C94.9855 42.608 94.9402 42.3893 94.8495 42.208C94.7642 42.0213 94.6442 41.864 94.4895 41.736C94.3402 41.6027 94.1695 41.4907 93.9775 41.4C93.7855 41.3093 93.5855 41.2347 93.3775 41.176L90.4415 40.304C90.1215 40.208 89.8122 40.088 89.5135 39.944C89.2148 39.7947 88.9482 39.6107 88.7135 39.392C88.4788 39.168 88.2922 38.9013 88.1535 38.592C88.0148 38.2773 87.9455 37.9067 87.9455 37.48C87.9455 36.7973 88.1215 36.216 88.4735 35.736C88.8308 35.2507 89.3135 34.88 89.9215 34.624C90.5295 34.368 91.2148 34.2427 91.9775 34.248C92.7508 34.2533 93.4415 34.392 94.0495 34.664C94.6628 34.9307 95.1695 35.3147 95.5695 35.816C95.9748 36.3173 96.2468 36.9173 96.3855 37.616L94.8735 37.88C94.7935 37.4107 94.6148 37.008 94.3375 36.672C94.0655 36.3307 93.7242 36.0693 93.3135 35.888C92.9028 35.7013 92.4522 35.6053 91.9615 35.6C91.4922 35.5947 91.0682 35.6693 90.6895 35.824C90.3108 35.9787 90.0095 36.1947 89.7855 36.472C89.5615 36.744 89.4495 37.0587 89.4495 37.416C89.4495 37.768 89.5508 38.0533 89.7535 38.272C89.9562 38.4853 90.2042 38.656 90.4975 38.784C90.7962 38.9067 91.0868 39.008 91.3695 39.088L93.5615 39.72C93.8122 39.7893 94.1002 39.8853 94.4255 40.008C94.7562 40.1307 95.0762 40.304 95.3855 40.528C95.6948 40.7467 95.9508 41.04 96.1535 41.408C96.3562 41.7707 96.4575 42.2293 96.4575 42.784C96.4575 43.3387 96.3455 43.832 96.1215 44.264C95.9028 44.696 95.5962 45.0587 95.2015 45.352C94.8068 45.64 94.3482 45.8587 93.8255 46.008C93.3028 46.1627 92.7428 46.24 92.1455 46.24ZM102.458 46.24C101.642 46.24 100.906 46.1013 100.25 45.824C99.5993 45.5467 99.0607 45.152 98.634 44.64C98.2127 44.1227 97.938 43.512 97.81 42.808L99.282 42.576C99.4687 43.3013 99.8553 43.8693 100.442 44.28C101.034 44.6853 101.73 44.888 102.53 44.888C103.047 44.888 103.514 44.808 103.93 44.648C104.351 44.4827 104.685 44.248 104.93 43.944C105.175 43.64 105.298 43.28 105.298 42.864C105.298 42.608 105.253 42.3893 105.162 42.208C105.077 42.0213 104.957 41.864 104.802 41.736C104.653 41.6027 104.482 41.4907 104.29 41.4C104.098 41.3093 103.898 41.2347 103.69 41.176L100.754 40.304C100.434 40.208 100.125 40.088 99.826 39.944C99.5273 39.7947 99.2607 39.6107 99.026 39.392C98.7913 39.168 98.6047 38.9013 98.466 38.592C98.3273 38.2773 98.258 37.9067 98.258 37.48C98.258 36.7973 98.434 36.216 98.786 35.736C99.1433 35.2507 99.626 34.88 100.234 34.624C100.842 34.368 101.527 34.2427 102.29 34.248C103.063 34.2533 103.754 34.392 104.362 34.664C104.975 34.9307 105.482 35.3147 105.882 35.816C106.287 36.3173 106.559 36.9173 106.698 37.616L105.186 37.88C105.106 37.4107 104.927 37.008 104.65 36.672C104.378 36.3307 104.037 36.0693 103.626 35.888C103.215 35.7013 102.765 35.6053 102.274 35.6C101.805 35.5947 101.381 35.6693 101.002 35.824C100.623 35.9787 100.322 36.1947 100.098 36.472C99.874 36.744 99.762 37.0587 99.762 37.416C99.762 37.768 99.8633 38.0533 100.066 38.272C100.269 38.4853 100.517 38.656 100.81 38.784C101.109 38.9067 101.399 39.008 101.682 39.088L103.874 39.72C104.125 39.7893 104.413 39.8853 104.738 40.008C105.069 40.1307 105.389 40.304 105.698 40.528C106.007 40.7467 106.263 41.04 106.466 41.408C106.669 41.7707 106.77 42.2293 106.77 42.784C106.77 43.3387 106.658 43.832 106.434 44.264C106.215 44.696 105.909 45.0587 105.514 45.352C105.119 45.64 104.661 45.8587 104.138 46.008C103.615 46.1627 103.055 46.24 102.458 46.24ZM115.395 46.24C114.755 46.24 114.158 46.1467 113.603 45.96C113.049 45.7733 112.585 45.48 112.211 45.08C111.923 44.76 111.707 44.408 111.563 44.024C111.425 43.6347 111.347 43.224 111.331 42.792C111.331 42.3707 111.393 41.96 111.515 41.56C111.638 41.1547 111.833 40.7947 112.099 40.48C112.238 40.3093 112.393 40.1653 112.563 40.048C112.739 39.9253 112.915 39.8213 113.091 39.736C112.723 39.3413 112.441 38.9707 112.243 38.624C112.051 38.2773 111.955 37.8587 111.955 37.368C111.955 36.744 112.115 36.1813 112.435 35.68C112.761 35.1733 113.203 34.8027 113.763 34.568C114.035 34.4507 114.313 34.3707 114.595 34.328C114.883 34.28 115.163 34.256 115.435 34.256C115.894 34.256 116.339 34.32 116.771 34.448C117.203 34.576 117.571 34.784 117.875 35.072C118.078 35.2427 118.251 35.44 118.395 35.664C118.539 35.8827 118.651 36.112 118.731 36.352L117.339 36.712C117.238 36.44 117.07 36.2107 116.835 36.024C116.649 35.864 116.43 35.7547 116.179 35.696C115.934 35.6373 115.686 35.608 115.435 35.608C115.019 35.608 114.643 35.688 114.307 35.848C114.009 35.992 113.785 36.1947 113.635 36.456C113.486 36.712 113.411 37.016 113.411 37.368C113.411 37.672 113.462 37.9227 113.563 38.12C113.67 38.312 113.817 38.5173 114.003 38.736C114.115 38.8533 114.241 38.9787 114.379 39.112C114.523 39.24 114.67 39.3733 114.819 39.512L118.211 42.664C118.227 42.5307 118.238 42.3947 118.243 42.256C118.249 42.1173 118.251 41.984 118.251 41.856L118.243 40.264H119.547V42.136C119.547 42.5147 119.534 42.8373 119.507 43.104C119.486 43.3707 119.449 43.592 119.395 43.768L120.859 45.12L119.931 46.112L118.715 44.96C118.507 45.1947 118.259 45.4 117.971 45.576C117.683 45.752 117.395 45.8853 117.107 45.976C116.835 46.0773 116.555 46.1467 116.267 46.184C115.979 46.2213 115.689 46.24 115.395 46.24ZM115.427 44.872C115.689 44.872 115.926 44.856 116.139 44.824C116.353 44.792 116.555 44.7307 116.747 44.64C117.003 44.5173 117.201 44.4 117.339 44.288C117.478 44.176 117.593 44.072 117.683 43.976L114.171 40.76C113.979 40.824 113.798 40.9093 113.627 41.016C113.462 41.1227 113.318 41.248 113.195 41.392C113.057 41.5627 112.953 41.7627 112.883 41.992C112.819 42.2213 112.787 42.464 112.787 42.72C112.793 42.992 112.838 43.2427 112.923 43.472C113.009 43.7013 113.129 43.9067 113.283 44.088C113.518 44.36 113.835 44.56 114.235 44.688C114.635 44.8107 115.033 44.872 115.427 44.872ZM127.826 46L124.49 34.48H125.978L128.538 43.592L131.09 34.488L132.586 34.48L135.146 43.592L137.698 34.48H139.194L135.858 46H134.434L131.842 36.968L129.25 46H127.826ZM144.981 46.24C143.834 46.24 142.861 45.9867 142.061 45.48C141.261 44.9733 140.65 44.2693 140.229 43.368C139.813 42.4667 139.605 41.424 139.605 40.24C139.605 39.056 139.813 38.0133 140.229 37.112C140.65 36.2107 141.261 35.5067 142.061 35C142.861 34.4933 143.834 34.24 144.981 34.24C146.133 34.24 147.109 34.4933 147.909 35C148.709 35.5067 149.317 36.2107 149.733 37.112C150.149 38.0133 150.357 39.056 150.357 40.24C150.357 41.424 150.149 42.4667 149.733 43.368C149.317 44.2693 148.709 44.9733 147.909 45.48C147.109 45.9867 146.133 46.24 144.981 46.24ZM144.981 44.88C145.84 44.8853 146.554 44.6933 147.125 44.304C147.701 43.9093 148.13 43.3627 148.413 42.664C148.701 41.9653 148.845 41.1573 148.845 40.24C148.845 39.3173 148.701 38.5093 148.413 37.816C148.13 37.1227 147.701 36.5813 147.125 36.192C146.554 35.8027 145.84 35.6053 144.981 35.6C144.122 35.5947 143.408 35.7867 142.837 36.176C142.272 36.5653 141.845 37.1093 141.557 37.808C141.269 38.5067 141.122 39.3173 141.117 40.24C141.112 41.1573 141.253 41.9627 141.541 42.656C141.829 43.3493 142.258 43.8933 142.829 44.288C143.405 44.6773 144.122 44.8747 144.981 44.88ZM151.964 46V34.48H156.516C156.628 34.48 156.761 34.4853 156.916 34.496C157.07 34.5013 157.22 34.5173 157.364 34.544C157.988 34.64 158.51 34.8533 158.932 35.184C159.358 35.5147 159.678 35.9333 159.892 36.44C160.105 36.9413 160.212 37.4987 160.212 38.112C160.212 39.0027 159.98 39.776 159.516 40.432C159.052 41.0827 158.372 41.4907 157.476 41.656L156.932 41.744H153.388V46H151.964ZM158.82 46L156.548 41.312L157.956 40.88L160.452 46H158.82ZM153.388 40.392H156.468C156.569 40.392 156.684 40.3867 156.812 40.376C156.945 40.3653 157.07 40.3467 157.188 40.32C157.556 40.2347 157.854 40.08 158.084 39.856C158.318 39.6267 158.489 39.36 158.596 39.056C158.702 38.7467 158.756 38.432 158.756 38.112C158.756 37.792 158.702 37.48 158.596 37.176C158.489 36.8667 158.318 36.5973 158.084 36.368C157.854 36.1387 157.556 35.984 157.188 35.904C157.07 35.872 156.945 35.8533 156.812 35.848C156.684 35.8373 156.569 35.832 156.468 35.832H153.388V40.392ZM162.214 46V34.48H163.638V39.888L168.678 34.48H170.47L165.238 40.072L170.878 46H169.038L163.638 40.368V46H162.214Z" fill="white"></path><defs><linearGradient id="paint0_linear_136_399" x1="300" y1="0" x2="300" y2="400" gradientUnits="userSpaceOnUse"><stop stop-color="#41295A"></stop><stop offset="1" stop-color="#2F0743"></stop></linearGradient></defs></svg> 