<?xml version="1.0" encoding="UTF-8"?> <svg xmlns="http://www.w3.org/2000/svg" width="600" height="400" viewBox="0 0 600 400" fill="none"><rect width="600" height="400" rx="20" fill="url(#paint0_linear_160_175)"></rect><path d="M78.6455 178V162.16H81.2965V168.826H88.7985V162.16H91.4385V178H88.7985V171.312H81.2965V178H78.6455ZM101.221 178.33C99.6374 178.33 98.2808 177.985 97.1514 177.296C96.0221 176.599 95.1531 175.631 94.5444 174.392C93.9431 173.153 93.6424 171.715 93.6424 170.08C93.6424 168.445 93.9431 167.007 94.5444 165.768C95.1531 164.529 96.0221 163.564 97.1514 162.875C98.2808 162.178 99.6374 161.83 101.221 161.83C102.805 161.83 104.162 162.178 105.291 162.875C106.428 163.564 107.297 164.529 107.898 165.768C108.507 167.007 108.811 168.445 108.811 170.08C108.811 171.715 108.507 173.153 107.898 174.392C107.297 175.631 106.428 176.599 105.291 177.296C104.162 177.985 102.805 178.33 101.221 178.33ZM101.221 175.833C102.285 175.84 103.168 175.606 103.872 175.129C104.584 174.652 105.115 173.981 105.467 173.116C105.827 172.251 106.006 171.239 106.006 170.08C106.006 168.921 105.827 167.917 105.467 167.066C105.115 166.208 104.584 165.541 103.872 165.064C103.168 164.587 102.285 164.342 101.221 164.327C100.158 164.32 99.2744 164.554 98.5704 165.031C97.8664 165.508 97.3348 166.179 96.9754 167.044C96.6234 167.909 96.4474 168.921 96.4474 170.08C96.4474 171.239 96.6234 172.247 96.9754 173.105C97.3274 173.956 97.8554 174.619 98.5594 175.096C99.2708 175.573 100.158 175.818 101.221 175.833ZM113.679 178L109.048 162.16H111.831L114.988 173.6L118.134 162.182L120.917 162.16L124.074 173.6L127.22 162.16H130.003L125.383 178H122.765L119.52 166.736L116.297 178H113.679ZM136.202 178V162.16H141.251C141.383 162.16 141.643 162.164 142.032 162.171C142.428 162.178 142.809 162.204 143.176 162.248C144.43 162.409 145.49 162.857 146.355 163.59C147.228 164.316 147.888 165.244 148.335 166.373C148.782 167.502 149.006 168.738 149.006 170.08C149.006 171.422 148.782 172.658 148.335 173.787C147.888 174.916 147.228 175.848 146.355 176.581C145.49 177.307 144.43 177.751 143.176 177.912C142.817 177.956 142.439 177.982 142.043 177.989C141.647 177.996 141.383 178 141.251 178H136.202ZM138.897 175.503H141.251C141.471 175.503 141.75 175.496 142.087 175.481C142.432 175.466 142.736 175.433 143 175.382C143.748 175.243 144.357 174.909 144.826 174.381C145.295 173.853 145.64 173.211 145.86 172.456C146.087 171.701 146.201 170.909 146.201 170.08C146.201 169.222 146.087 168.415 145.86 167.66C145.633 166.905 145.281 166.27 144.804 165.757C144.335 165.244 143.733 164.917 143 164.778C142.736 164.719 142.432 164.686 142.087 164.679C141.75 164.664 141.471 164.657 141.251 164.657H138.897V175.503ZM158.305 178.33C156.721 178.33 155.365 177.985 154.235 177.296C153.106 176.599 152.237 175.631 151.628 174.392C151.027 173.153 150.726 171.715 150.726 170.08C150.726 168.445 151.027 167.007 151.628 165.768C152.237 164.529 153.106 163.564 154.235 162.875C155.365 162.178 156.721 161.83 158.305 161.83C159.889 161.83 161.246 162.178 162.375 162.875C163.512 163.564 164.381 164.529 164.982 165.768C165.591 167.007 165.895 168.445 165.895 170.08C165.895 171.715 165.591 173.153 164.982 174.392C164.381 175.631 163.512 176.599 162.375 177.296C161.246 177.985 159.889 178.33 158.305 178.33ZM158.305 175.833C159.369 175.84 160.252 175.606 160.956 175.129C161.668 174.652 162.199 173.981 162.551 173.116C162.911 172.251 163.09 171.239 163.09 170.08C163.09 168.921 162.911 167.917 162.551 167.066C162.199 166.208 161.668 165.541 160.956 165.064C160.252 164.587 159.369 164.342 158.305 164.327C157.242 164.32 156.358 164.554 155.654 165.031C154.95 165.508 154.419 166.179 154.059 167.044C153.707 167.909 153.531 168.921 153.531 170.08C153.531 171.239 153.707 172.247 154.059 173.105C154.411 173.956 154.939 174.619 155.643 175.096C156.355 175.573 157.242 175.818 158.305 175.833ZM176.339 178V171.51L170.949 162.16H174.04L177.681 168.474L181.311 162.16H184.402L179.023 171.51V178H176.339ZM191.757 178.33C190.173 178.33 188.816 177.985 187.687 177.296C186.557 176.599 185.688 175.631 185.08 174.392C184.478 173.153 184.178 171.715 184.178 170.08C184.178 168.445 184.478 167.007 185.08 165.768C185.688 164.529 186.557 163.564 187.687 162.875C188.816 162.178 190.173 161.83 191.757 161.83C193.341 161.83 194.697 162.178 195.827 162.875C196.963 163.564 197.832 164.529 198.434 165.768C199.042 167.007 199.347 168.445 199.347 170.08C199.347 171.715 199.042 173.153 198.434 174.392C197.832 175.631 196.963 176.599 195.827 177.296C194.697 177.985 193.341 178.33 191.757 178.33ZM191.757 175.833C192.82 175.84 193.704 175.606 194.408 175.129C195.119 174.652 195.651 173.981 196.003 173.116C196.362 172.251 196.542 171.239 196.542 170.08C196.542 168.921 196.362 167.917 196.003 167.066C195.651 166.208 195.119 165.541 194.408 165.064C193.704 164.587 192.82 164.342 191.757 164.327C190.693 164.32 189.81 164.554 189.106 165.031C188.402 165.508 187.87 166.179 187.511 167.044C187.159 167.909 186.983 168.921 186.983 170.08C186.983 171.239 187.159 172.247 187.511 173.105C187.863 173.956 188.391 174.619 189.095 175.096C189.806 175.573 190.693 175.818 191.757 175.833ZM207.916 178.33C206.655 178.33 205.544 178.073 204.583 177.56C203.63 177.047 202.882 176.324 202.339 175.393C201.804 174.462 201.536 173.369 201.536 172.115V162.182L204.22 162.16V172.049C204.22 172.643 204.319 173.175 204.517 173.644C204.722 174.113 204.997 174.513 205.342 174.843C205.687 175.166 206.083 175.411 206.53 175.58C206.977 175.749 207.439 175.833 207.916 175.833C208.407 175.833 208.873 175.749 209.313 175.58C209.76 175.404 210.156 175.155 210.501 174.832C210.846 174.502 211.117 174.102 211.315 173.633C211.513 173.164 211.612 172.636 211.612 172.049V162.16H214.296V172.115C214.296 173.369 214.025 174.462 213.482 175.393C212.947 176.324 212.199 177.047 211.238 177.56C210.285 178.073 209.177 178.33 207.916 178.33ZM221.774 178V162.16H228.319C228.473 162.16 228.671 162.167 228.913 162.182C229.155 162.189 229.379 162.211 229.584 162.248C230.501 162.387 231.256 162.692 231.85 163.161C232.452 163.63 232.895 164.224 233.181 164.943C233.475 165.654 233.621 166.446 233.621 167.319C233.621 168.184 233.475 168.976 233.181 169.695C232.888 170.406 232.441 170.997 231.839 171.466C231.245 171.935 230.494 172.24 229.584 172.379C229.379 172.408 229.152 172.43 228.902 172.445C228.66 172.46 228.466 172.467 228.319 172.467H224.425V178H221.774ZM224.425 169.992H228.209C228.356 169.992 228.521 169.985 228.704 169.97C228.888 169.955 229.056 169.926 229.21 169.882C229.65 169.772 229.995 169.578 230.244 169.299C230.501 169.02 230.681 168.705 230.783 168.353C230.893 168.001 230.948 167.656 230.948 167.319C230.948 166.982 230.893 166.637 230.783 166.285C230.681 165.926 230.501 165.607 230.244 165.328C229.995 165.049 229.65 164.855 229.21 164.745C229.056 164.701 228.888 164.675 228.704 164.668C228.521 164.653 228.356 164.646 228.209 164.646H224.425V169.992ZM235.825 178V162.16H242.37C242.524 162.16 242.722 162.167 242.964 162.182C243.206 162.189 243.43 162.211 243.635 162.248C244.552 162.387 245.307 162.692 245.901 163.161C246.502 163.63 246.946 164.224 247.232 164.943C247.525 165.654 247.672 166.446 247.672 167.319C247.672 168.61 247.346 169.721 246.693 170.652C246.04 171.576 245.039 172.148 243.69 172.368L242.557 172.467H238.476V178H235.825ZM244.922 178L241.798 171.554L244.493 170.96L247.925 178H244.922ZM238.476 169.992H242.26C242.407 169.992 242.572 169.985 242.755 169.97C242.938 169.955 243.107 169.926 243.261 169.882C243.701 169.772 244.046 169.578 244.295 169.299C244.552 169.02 244.731 168.705 244.834 168.353C244.944 168.001 244.999 167.656 244.999 167.319C244.999 166.982 244.944 166.637 244.834 166.285C244.731 165.926 244.552 165.607 244.295 165.328C244.046 165.049 243.701 164.855 243.261 164.745C243.107 164.701 242.938 164.675 242.755 164.668C242.572 164.653 242.407 164.646 242.26 164.646H238.476V169.992ZM250.349 178V162.16H260.579V164.646H253V168.551H259.259V171.037H253V175.514H260.579V178H250.349ZM263.218 178V162.16H272.755V164.811H265.869V168.76H271.435V171.4H265.869V178H263.218ZM274.733 178V162.16H284.963V164.646H277.384V168.551H283.643V171.037H277.384V175.514H284.963V178H274.733ZM287.603 178V162.16H294.148C294.302 162.16 294.5 162.167 294.742 162.182C294.984 162.189 295.207 162.211 295.413 162.248C296.329 162.387 297.085 162.692 297.678 163.161C298.28 163.63 298.724 164.224 299.01 164.943C299.303 165.654 299.45 166.446 299.45 167.319C299.45 168.61 299.123 169.721 298.471 170.652C297.818 171.576 296.817 172.148 295.468 172.368L294.335 172.467H290.254V178H287.603ZM296.7 178L293.576 171.554L296.271 170.96L299.703 178H296.7ZM290.254 169.992H294.038C294.184 169.992 294.349 169.985 294.533 169.97C294.716 169.955 294.885 169.926 295.039 169.882C295.479 169.772 295.823 169.578 296.073 169.299C296.329 169.02 296.509 168.705 296.612 168.353C296.722 168.001 296.777 167.656 296.777 167.319C296.777 166.982 296.722 166.637 296.612 166.285C296.509 165.926 296.329 165.607 296.073 165.328C295.823 165.049 295.479 164.855 295.039 164.745C294.885 164.701 294.716 164.675 294.533 164.668C294.349 164.653 294.184 164.646 294.038 164.646H290.254V169.992ZM310.336 178V164.646H305.21V162.16H318.113V164.646H312.987V178H310.336ZM326.571 178.33C324.987 178.33 323.63 177.985 322.501 177.296C321.372 176.599 320.503 175.631 319.894 174.392C319.293 173.153 318.992 171.715 318.992 170.08C318.992 168.445 319.293 167.007 319.894 165.768C320.503 164.529 321.372 163.564 322.501 162.875C323.63 162.178 324.987 161.83 326.571 161.83C328.155 161.83 329.512 162.178 330.641 162.875C331.778 163.564 332.647 164.529 333.248 165.768C333.857 167.007 334.161 168.445 334.161 170.08C334.161 171.715 333.857 173.153 333.248 174.392C332.647 175.631 331.778 176.599 330.641 177.296C329.512 177.985 328.155 178.33 326.571 178.33ZM326.571 175.833C327.634 175.84 328.518 175.606 329.222 175.129C329.933 174.652 330.465 173.981 330.817 173.116C331.176 172.251 331.356 171.239 331.356 170.08C331.356 168.921 331.176 167.917 330.817 167.066C330.465 166.208 329.933 165.541 329.222 165.064C328.518 164.587 327.634 164.342 326.571 164.327C325.508 164.32 324.624 164.554 323.92 165.031C323.216 165.508 322.684 166.179 322.325 167.044C321.973 167.909 321.797 168.921 321.797 170.08C321.797 171.239 321.973 172.247 322.325 173.105C322.677 173.956 323.205 174.619 323.909 175.096C324.62 175.573 325.508 175.818 326.571 175.833ZM340.755 178V162.16H347.3C347.454 162.16 347.652 162.167 347.894 162.182C348.136 162.189 348.36 162.211 348.565 162.248C349.482 162.387 350.237 162.692 350.831 163.161C351.432 163.63 351.876 164.224 352.162 164.943C352.455 165.654 352.602 166.446 352.602 167.319C352.602 168.61 352.276 169.721 351.623 170.652C350.97 171.576 349.969 172.148 348.62 172.368L347.487 172.467H343.406V178H340.755ZM349.852 178L346.728 171.554L349.423 170.96L352.855 178H349.852ZM343.406 169.992H347.19C347.337 169.992 347.502 169.985 347.685 169.97C347.868 169.955 348.037 169.926 348.191 169.882C348.631 169.772 348.976 169.578 349.225 169.299C349.482 169.02 349.661 168.705 349.764 168.353C349.874 168.001 349.929 167.656 349.929 167.319C349.929 166.982 349.874 166.637 349.764 166.285C349.661 165.926 349.482 165.607 349.225 165.328C348.976 165.049 348.631 164.855 348.191 164.745C348.037 164.701 347.868 164.675 347.685 164.668C347.502 164.653 347.337 164.646 347.19 164.646H343.406V169.992ZM361.658 178.33C360.397 178.33 359.286 178.073 358.325 177.56C357.372 177.047 356.624 176.324 356.081 175.393C355.546 174.462 355.278 173.369 355.278 172.115V162.182L357.962 162.16V172.049C357.962 172.643 358.061 173.175 358.259 173.644C358.465 174.113 358.74 174.513 359.084 174.843C359.429 175.166 359.825 175.411 360.272 175.58C360.72 175.749 361.182 175.833 361.658 175.833C362.15 175.833 362.615 175.749 363.055 175.58C363.503 175.404 363.899 175.155 364.243 174.832C364.588 174.502 364.859 174.102 365.057 173.633C365.255 173.164 365.354 172.636 365.354 172.049V162.16H368.038V172.115C368.038 173.369 367.767 174.462 367.224 175.393C366.689 176.324 365.941 177.047 364.98 177.56C364.027 178.073 362.92 178.33 361.658 178.33ZM371.112 178V162.16H373.796L381.144 173.325V162.16H383.828V178H381.144L373.796 166.835V178H371.112ZM390.208 178L395.202 162.16H399.085L404.079 178H401.351L396.819 163.788H397.413L392.936 178H390.208ZM392.991 174.568V172.093H401.307V174.568H392.991ZM410.472 178V162.16H416.753C417.823 162.16 418.7 162.376 419.382 162.809C420.071 163.234 420.581 163.781 420.911 164.448C421.248 165.115 421.417 165.805 421.417 166.516C421.417 167.389 421.208 168.129 420.79 168.738C420.379 169.347 419.818 169.757 419.107 169.97V169.42C420.104 169.647 420.859 170.12 421.373 170.839C421.893 171.558 422.154 172.375 422.154 173.292C422.154 174.231 421.974 175.052 421.615 175.756C421.255 176.46 420.72 177.01 420.009 177.406C419.305 177.802 418.432 178 417.391 178H410.472ZM413.156 175.503H417.061C417.523 175.503 417.937 175.411 418.304 175.228C418.67 175.037 418.956 174.773 419.162 174.436C419.374 174.091 419.481 173.684 419.481 173.215C419.481 172.79 419.389 172.408 419.206 172.071C419.022 171.734 418.755 171.466 418.403 171.268C418.051 171.063 417.629 170.96 417.138 170.96H413.156V175.503ZM413.156 168.485H416.72C417.101 168.485 417.442 168.412 417.743 168.265C418.043 168.118 418.282 167.902 418.458 167.616C418.634 167.33 418.722 166.978 418.722 166.56C418.722 166.01 418.546 165.552 418.194 165.185C417.842 164.818 417.35 164.635 416.72 164.635H413.156V168.485ZM430.731 178.33C429.469 178.33 428.358 178.073 427.398 177.56C426.444 177.047 425.696 176.324 425.154 175.393C424.618 174.462 424.351 173.369 424.351 172.115V162.182L427.035 162.16V172.049C427.035 172.643 427.134 173.175 427.332 173.644C427.537 174.113 427.812 174.513 428.157 174.843C428.501 175.166 428.897 175.411 429.345 175.58C429.792 175.749 430.254 175.833 430.731 175.833C431.222 175.833 431.688 175.749 432.128 175.58C432.575 175.404 432.971 175.155 433.316 174.832C433.66 174.502 433.932 174.102 434.13 173.633C434.328 173.164 434.427 172.636 434.427 172.049V162.16H437.111V172.115C437.111 173.369 436.839 174.462 436.297 175.393C435.761 176.324 435.013 177.047 434.053 177.56C433.099 178.073 431.992 178.33 430.731 178.33ZM445.382 178.33C444.223 178.33 443.178 178.128 442.247 177.725C441.323 177.322 440.56 176.746 439.959 175.998C439.365 175.243 438.987 174.348 438.826 173.314L441.576 172.896C441.81 173.835 442.291 174.561 443.017 175.074C443.75 175.587 444.593 175.844 445.547 175.844C446.111 175.844 446.643 175.756 447.142 175.58C447.64 175.404 448.044 175.147 448.352 174.81C448.667 174.473 448.825 174.058 448.825 173.567C448.825 173.347 448.788 173.145 448.715 172.962C448.641 172.771 448.531 172.603 448.385 172.456C448.245 172.309 448.062 172.177 447.835 172.06C447.615 171.935 447.358 171.829 447.065 171.741L442.973 170.531C442.621 170.428 442.239 170.293 441.829 170.124C441.425 169.948 441.04 169.71 440.674 169.409C440.314 169.101 440.017 168.712 439.783 168.243C439.555 167.766 439.442 167.18 439.442 166.483C439.442 165.464 439.698 164.609 440.212 163.92C440.732 163.223 441.429 162.703 442.302 162.358C443.182 162.013 444.157 161.845 445.228 161.852C446.313 161.859 447.281 162.046 448.132 162.413C448.982 162.772 449.694 163.297 450.266 163.986C450.838 164.675 451.241 165.508 451.476 166.483L448.627 166.978C448.509 166.421 448.282 165.948 447.945 165.559C447.615 165.163 447.208 164.862 446.724 164.657C446.247 164.452 445.737 164.342 445.195 164.327C444.667 164.32 444.175 164.4 443.721 164.569C443.273 164.73 442.91 164.965 442.632 165.273C442.36 165.581 442.225 165.94 442.225 166.351C442.225 166.74 442.342 167.059 442.577 167.308C442.811 167.55 443.101 167.744 443.446 167.891C443.798 168.03 444.153 168.148 444.513 168.243L447.351 169.035C447.739 169.138 448.176 169.277 448.66 169.453C449.144 169.629 449.609 169.875 450.057 170.19C450.504 170.505 450.871 170.92 451.157 171.433C451.45 171.946 451.597 172.599 451.597 173.391C451.597 174.212 451.424 174.935 451.08 175.558C450.742 176.174 450.284 176.687 449.705 177.098C449.125 177.509 448.462 177.817 447.714 178.022C446.973 178.227 446.196 178.33 445.382 178.33ZM454.198 178V162.16H456.849V178H454.198ZM460.144 178V162.16H462.828L470.176 173.325V162.16H472.86V178H470.176L462.828 166.835V178H460.144ZM475.935 178V162.16H486.165V164.646H478.586V168.551H484.845V171.037H478.586V175.514H486.165V178H475.935ZM494.516 178.33C493.358 178.33 492.313 178.128 491.381 177.725C490.457 177.322 489.695 176.746 489.093 175.998C488.499 175.243 488.122 174.348 487.96 173.314L490.71 172.896C490.945 173.835 491.425 174.561 492.151 175.074C492.885 175.587 493.728 175.844 494.681 175.844C495.246 175.844 495.778 175.756 496.276 175.58C496.775 175.404 497.178 175.147 497.486 174.81C497.802 174.473 497.959 174.058 497.959 173.567C497.959 173.347 497.923 173.145 497.849 172.962C497.776 172.771 497.666 172.603 497.519 172.456C497.38 172.309 497.197 172.177 496.969 172.06C496.749 171.935 496.493 171.829 496.199 171.741L492.107 170.531C491.755 170.428 491.374 170.293 490.963 170.124C490.56 169.948 490.175 169.71 489.808 169.409C489.449 169.101 489.152 168.712 488.917 168.243C488.69 167.766 488.576 167.18 488.576 166.483C488.576 165.464 488.833 164.609 489.346 163.92C489.867 163.223 490.564 162.703 491.436 162.358C492.316 162.013 493.292 161.845 494.362 161.852C495.448 161.859 496.416 162.046 497.266 162.413C498.117 162.772 498.828 163.297 499.4 163.986C499.972 164.675 500.376 165.508 500.61 166.483L497.761 166.978C497.644 166.421 497.417 165.948 497.079 165.559C496.749 165.163 496.342 164.862 495.858 164.657C495.382 164.452 494.872 164.342 494.329 164.327C493.801 164.32 493.31 164.4 492.855 164.569C492.408 164.73 492.045 164.965 491.766 165.273C491.495 165.581 491.359 165.94 491.359 166.351C491.359 166.74 491.477 167.059 491.711 167.308C491.946 167.55 492.236 167.744 492.58 167.891C492.932 168.03 493.288 168.148 493.647 168.243L496.485 169.035C496.874 169.138 497.31 169.277 497.794 169.453C498.278 169.629 498.744 169.875 499.191 170.19C499.639 170.505 500.005 170.92 500.291 171.433C500.585 171.946 500.731 172.599 500.731 173.391C500.731 174.212 500.559 174.935 500.214 175.558C499.877 176.174 499.419 176.687 498.839 177.098C498.26 177.509 497.596 177.817 496.848 178.022C496.108 178.227 495.33 178.33 494.516 178.33ZM509.298 178.33C508.139 178.33 507.094 178.128 506.163 177.725C505.239 177.322 504.476 176.746 503.875 175.998C503.281 175.243 502.903 174.348 502.742 173.314L505.492 172.896C505.726 173.835 506.207 174.561 506.933 175.074C507.666 175.587 508.509 175.844 509.463 175.844C510.027 175.844 510.559 175.756 511.058 175.58C511.556 175.404 511.96 175.147 512.268 174.81C512.583 174.473 512.741 174.058 512.741 173.567C512.741 173.347 512.704 173.145 512.631 172.962C512.557 172.771 512.447 172.603 512.301 172.456C512.161 172.309 511.978 172.177 511.751 172.06C511.531 171.935 511.274 171.829 510.981 171.741L506.889 170.531C506.537 170.428 506.155 170.293 505.745 170.124C505.341 169.948 504.956 169.71 504.59 169.409C504.23 169.101 503.933 168.712 503.699 168.243C503.471 167.766 503.358 167.18 503.358 166.483C503.358 165.464 503.614 164.609 504.128 163.92C504.648 163.223 505.345 162.703 506.218 162.358C507.098 162.013 508.073 161.845 509.144 161.852C510.229 161.859 511.197 162.046 512.048 162.413C512.898 162.772 513.61 163.297 514.182 163.986C514.754 164.675 515.157 165.508 515.392 166.483L512.543 166.978C512.425 166.421 512.198 165.948 511.861 165.559C511.531 165.163 511.124 164.862 510.64 164.657C510.163 164.452 509.653 164.342 509.111 164.327C508.583 164.32 508.091 164.4 507.637 164.569C507.189 164.73 506.826 164.965 506.548 165.273C506.276 165.581 506.141 165.94 506.141 166.351C506.141 166.74 506.258 167.059 506.493 167.308C506.727 167.55 507.017 167.744 507.362 167.891C507.714 168.03 508.069 168.148 508.429 168.243L511.267 169.035C511.655 169.138 512.092 169.277 512.576 169.453C513.06 169.629 513.525 169.875 513.973 170.19C514.42 170.505 514.787 170.92 515.073 171.433C515.366 171.946 515.513 172.599 515.513 173.391C515.513 174.212 515.34 174.935 514.996 175.558C514.658 176.174 514.2 176.687 513.621 177.098C513.041 177.509 512.378 177.817 511.63 178.022C510.889 178.227 510.112 178.33 509.298 178.33ZM518.774 175.25V172.533H521.491V175.25H518.774ZM518.796 167.627V164.91H521.513V167.627H518.796ZM157.679 209L153.048 193.16H155.831L158.988 204.6L162.134 193.182L164.917 193.16L168.074 204.6L171.22 193.16H174.003L169.383 209H166.765L163.52 197.736L160.297 209H157.679ZM176.018 209V193.16H178.669V209H176.018ZM185.77 209V195.646H180.644V193.16H193.547V195.646H188.421V209H185.77ZM195.306 209V193.16H197.957V199.826H205.459V193.16H208.099V209H205.459V202.312H197.957V209H195.306ZM214.487 209L219.481 193.16H223.364L228.358 209H225.63L221.098 194.788H221.692L217.215 209H214.487ZM217.27 205.568V203.093H225.586V205.568H217.27ZM234.751 209V193.16H241.032C242.103 193.16 242.979 193.376 243.661 193.809C244.35 194.234 244.86 194.781 245.19 195.448C245.527 196.115 245.696 196.805 245.696 197.516C245.696 198.389 245.487 199.129 245.069 199.738C244.658 200.347 244.097 200.757 243.386 200.97V200.42C244.383 200.647 245.139 201.12 245.652 201.839C246.173 202.558 246.433 203.375 246.433 204.292C246.433 205.231 246.253 206.052 245.894 206.756C245.535 207.46 244.999 208.01 244.288 208.406C243.584 208.802 242.711 209 241.67 209H234.751ZM237.435 206.503H241.34C241.802 206.503 242.216 206.411 242.583 206.228C242.95 206.037 243.236 205.773 243.441 205.436C243.654 205.091 243.76 204.684 243.76 204.215C243.76 203.79 243.668 203.408 243.485 203.071C243.302 202.734 243.034 202.466 242.682 202.268C242.33 202.063 241.908 201.96 241.417 201.96H237.435V206.503ZM237.435 199.485H240.999C241.38 199.485 241.721 199.412 242.022 199.265C242.323 199.118 242.561 198.902 242.737 198.616C242.913 198.33 243.001 197.978 243.001 197.56C243.001 197.01 242.825 196.552 242.473 196.185C242.121 195.818 241.63 195.635 240.999 195.635H237.435V199.485ZM255.01 209.33C253.749 209.33 252.638 209.073 251.677 208.56C250.724 208.047 249.976 207.324 249.433 206.393C248.898 205.462 248.63 204.369 248.63 203.115V193.182L251.314 193.16V203.049C251.314 203.643 251.413 204.175 251.611 204.644C251.816 205.113 252.091 205.513 252.436 205.843C252.781 206.166 253.177 206.411 253.624 206.58C254.071 206.749 254.533 206.833 255.01 206.833C255.501 206.833 255.967 206.749 256.407 206.58C256.854 206.404 257.25 206.155 257.595 205.832C257.94 205.502 258.211 205.102 258.409 204.633C258.607 204.164 258.706 203.636 258.706 203.049V193.16H261.39V203.115C261.39 204.369 261.119 205.462 260.576 206.393C260.041 207.324 259.293 208.047 258.332 208.56C257.379 209.073 256.271 209.33 255.01 209.33ZM269.661 209.33C268.502 209.33 267.457 209.128 266.526 208.725C265.602 208.322 264.839 207.746 264.238 206.998C263.644 206.243 263.266 205.348 263.105 204.314L265.855 203.896C266.089 204.835 266.57 205.561 267.296 206.074C268.029 206.587 268.872 206.844 269.826 206.844C270.39 206.844 270.922 206.756 271.421 206.58C271.919 206.404 272.323 206.147 272.631 205.81C272.946 205.473 273.104 205.058 273.104 204.567C273.104 204.347 273.067 204.145 272.994 203.962C272.92 203.771 272.81 203.603 272.664 203.456C272.524 203.309 272.341 203.177 272.114 203.06C271.894 202.935 271.637 202.829 271.344 202.741L267.252 201.531C266.9 201.428 266.518 201.293 266.108 201.124C265.704 200.948 265.319 200.71 264.953 200.409C264.593 200.101 264.296 199.712 264.062 199.243C263.834 198.766 263.721 198.18 263.721 197.483C263.721 196.464 263.977 195.609 264.491 194.92C265.011 194.223 265.708 193.703 266.581 193.358C267.461 193.013 268.436 192.845 269.507 192.852C270.592 192.859 271.56 193.046 272.411 193.413C273.261 193.772 273.973 194.297 274.545 194.986C275.117 195.675 275.52 196.508 275.755 197.483L272.906 197.978C272.788 197.421 272.561 196.948 272.224 196.559C271.894 196.163 271.487 195.862 271.003 195.657C270.526 195.452 270.016 195.342 269.474 195.327C268.946 195.32 268.454 195.4 268 195.569C267.552 195.73 267.189 195.965 266.911 196.273C266.639 196.581 266.504 196.94 266.504 197.351C266.504 197.74 266.621 198.059 266.856 198.308C267.09 198.55 267.38 198.744 267.725 198.891C268.077 199.03 268.432 199.148 268.792 199.243L271.63 200.035C272.018 200.138 272.455 200.277 272.939 200.453C273.423 200.629 273.888 200.875 274.336 201.19C274.783 201.505 275.15 201.92 275.436 202.433C275.729 202.946 275.876 203.599 275.876 204.391C275.876 205.212 275.703 205.935 275.359 206.558C275.021 207.174 274.563 207.687 273.984 208.098C273.404 208.509 272.741 208.817 271.993 209.022C271.252 209.227 270.475 209.33 269.661 209.33ZM278.477 209V193.16H281.128V209H278.477ZM284.423 209V193.16H287.107L294.455 204.325V193.16H297.139V209H294.455L287.107 197.835V209H284.423ZM300.214 209V193.16H310.444V195.646H302.865V199.551H309.124V202.037H302.865V206.514H310.444V209H300.214ZM318.796 209.33C317.637 209.33 316.592 209.128 315.661 208.725C314.737 208.322 313.974 207.746 313.373 206.998C312.779 206.243 312.401 205.348 312.24 204.314L314.99 203.896C315.224 204.835 315.705 205.561 316.431 206.074C317.164 206.587 318.007 206.844 318.961 206.844C319.525 206.844 320.057 206.756 320.556 206.58C321.054 206.404 321.458 206.147 321.766 205.81C322.081 205.473 322.239 205.058 322.239 204.567C322.239 204.347 322.202 204.145 322.129 203.962C322.055 203.771 321.945 203.603 321.799 203.456C321.659 203.309 321.476 203.177 321.249 203.06C321.029 202.935 320.772 202.829 320.479 202.741L316.387 201.531C316.035 201.428 315.653 201.293 315.243 201.124C314.839 200.948 314.454 200.71 314.088 200.409C313.728 200.101 313.431 199.712 313.197 199.243C312.969 198.766 312.856 198.18 312.856 197.483C312.856 196.464 313.112 195.609 313.626 194.92C314.146 194.223 314.843 193.703 315.716 193.358C316.596 193.013 317.571 192.845 318.642 192.852C319.727 192.859 320.695 193.046 321.546 193.413C322.396 193.772 323.108 194.297 323.68 194.986C324.252 195.675 324.655 196.508 324.89 197.483L322.041 197.978C321.923 197.421 321.696 196.948 321.359 196.559C321.029 196.163 320.622 195.862 320.138 195.657C319.661 195.452 319.151 195.342 318.609 195.327C318.081 195.32 317.589 195.4 317.135 195.569C316.687 195.73 316.324 195.965 316.046 196.273C315.774 196.581 315.639 196.94 315.639 197.351C315.639 197.74 315.756 198.059 315.991 198.308C316.225 198.55 316.515 198.744 316.86 198.891C317.212 199.03 317.567 199.148 317.927 199.243L320.765 200.035C321.153 200.138 321.59 200.277 322.074 200.453C322.558 200.629 323.023 200.875 323.471 201.19C323.918 201.505 324.285 201.92 324.571 202.433C324.864 202.946 325.011 203.599 325.011 204.391C325.011 205.212 324.838 205.935 324.494 206.558C324.156 207.174 323.698 207.687 323.119 208.098C322.539 208.509 321.876 208.817 321.128 209.022C320.387 209.227 319.61 209.33 318.796 209.33ZM333.577 209.33C332.418 209.33 331.373 209.128 330.442 208.725C329.518 208.322 328.755 207.746 328.154 206.998C327.56 206.243 327.182 205.348 327.021 204.314L329.771 203.896C330.005 204.835 330.486 205.561 331.212 206.074C331.945 206.587 332.788 206.844 333.742 206.844C334.306 206.844 334.838 206.756 335.337 206.58C335.835 206.404 336.239 206.147 336.547 205.81C336.862 205.473 337.02 205.058 337.02 204.567C337.02 204.347 336.983 204.145 336.91 203.962C336.836 203.771 336.726 203.603 336.58 203.456C336.44 203.309 336.257 203.177 336.03 203.06C335.81 202.935 335.553 202.829 335.26 202.741L331.168 201.531C330.816 201.428 330.434 201.293 330.024 201.124C329.62 200.948 329.235 200.71 328.869 200.409C328.509 200.101 328.212 199.712 327.978 199.243C327.75 198.766 327.637 198.18 327.637 197.483C327.637 196.464 327.893 195.609 328.407 194.92C328.927 194.223 329.624 193.703 330.497 193.358C331.377 193.013 332.352 192.845 333.423 192.852C334.508 192.859 335.476 193.046 336.327 193.413C337.177 193.772 337.889 194.297 338.461 194.986C339.033 195.675 339.436 196.508 339.671 197.483L336.822 197.978C336.704 197.421 336.477 196.948 336.14 196.559C335.81 196.163 335.403 195.862 334.919 195.657C334.442 195.452 333.932 195.342 333.39 195.327C332.862 195.32 332.37 195.4 331.916 195.569C331.468 195.73 331.105 195.965 330.827 196.273C330.555 196.581 330.42 196.94 330.42 197.351C330.42 197.74 330.537 198.059 330.772 198.308C331.006 198.55 331.296 198.744 331.641 198.891C331.993 199.03 332.348 199.148 332.708 199.243L335.546 200.035C335.934 200.138 336.371 200.277 336.855 200.453C337.339 200.629 337.804 200.875 338.252 201.19C338.699 201.505 339.066 201.92 339.352 202.433C339.645 202.946 339.792 203.599 339.792 204.391C339.792 205.212 339.619 205.935 339.275 206.558C338.937 207.174 338.479 207.687 337.9 208.098C337.32 208.509 336.657 208.817 335.909 209.022C335.168 209.227 334.391 209.33 333.577 209.33ZM346.577 209V193.16H353.122C353.276 193.16 353.474 193.167 353.716 193.182C353.958 193.189 354.182 193.211 354.387 193.248C355.304 193.387 356.059 193.692 356.653 194.161C357.254 194.63 357.698 195.224 357.984 195.943C358.277 196.654 358.424 197.446 358.424 198.319C358.424 199.184 358.277 199.976 357.984 200.695C357.691 201.406 357.243 201.997 356.642 202.466C356.048 202.935 355.296 203.24 354.387 203.379C354.182 203.408 353.954 203.43 353.705 203.445C353.463 203.46 353.269 203.467 353.122 203.467H349.228V209H346.577ZM349.228 200.992H353.012C353.159 200.992 353.324 200.985 353.507 200.97C353.69 200.955 353.859 200.926 354.013 200.882C354.453 200.772 354.798 200.578 355.047 200.299C355.304 200.02 355.483 199.705 355.586 199.353C355.696 199.001 355.751 198.656 355.751 198.319C355.751 197.982 355.696 197.637 355.586 197.285C355.483 196.926 355.304 196.607 355.047 196.328C354.798 196.049 354.453 195.855 354.013 195.745C353.859 195.701 353.69 195.675 353.507 195.668C353.324 195.653 353.159 195.646 353.012 195.646H349.228V200.992ZM358.432 209L363.426 193.16H367.309L372.303 209H369.575L365.043 194.788H365.637L361.16 209H358.432ZM361.215 205.568V203.093H369.531V205.568H361.215ZM374.292 209V193.16H380.837C380.991 193.16 381.189 193.167 381.431 193.182C381.673 193.189 381.897 193.211 382.102 193.248C383.019 193.387 383.774 193.692 384.368 194.161C384.969 194.63 385.413 195.224 385.699 195.943C385.992 196.654 386.139 197.446 386.139 198.319C386.139 199.61 385.813 200.721 385.16 201.652C384.507 202.576 383.506 203.148 382.157 203.368L381.024 203.467H376.943V209H374.292ZM383.389 209L380.265 202.554L382.96 201.96L386.392 209H383.389ZM376.943 200.992H380.727C380.874 200.992 381.039 200.985 381.222 200.97C381.405 200.955 381.574 200.926 381.728 200.882C382.168 200.772 382.513 200.578 382.762 200.299C383.019 200.02 383.198 199.705 383.301 199.353C383.411 199.001 383.466 198.656 383.466 198.319C383.466 197.982 383.411 197.637 383.301 197.285C383.198 196.926 383.019 196.607 382.762 196.328C382.513 196.049 382.168 195.855 381.728 195.745C381.574 195.701 381.405 195.675 381.222 195.668C381.039 195.653 380.874 195.646 380.727 195.646H376.943V200.992ZM392.621 209V195.646H387.495V193.16H400.398V195.646H395.272V209H392.621ZM402.157 209V193.16H404.841L412.189 204.325V193.16H414.873V209H412.189L404.841 197.835V209H402.157ZM417.948 209V193.16H428.178V195.646H420.599V199.551H426.858V202.037H420.599V206.514H428.178V209H417.948ZM430.817 209V193.16H437.362C437.516 193.16 437.714 193.167 437.956 193.182C438.198 193.189 438.422 193.211 438.627 193.248C439.544 193.387 440.299 193.692 440.893 194.161C441.495 194.63 441.938 195.224 442.224 195.943C442.518 196.654 442.664 197.446 442.664 198.319C442.664 199.61 442.338 200.721 441.685 201.652C441.033 202.576 440.032 203.148 438.682 203.368L437.549 203.467H433.468V209H430.817ZM439.914 209L436.79 202.554L439.485 201.96L442.917 209H439.914ZM433.468 200.992H437.252C437.399 200.992 437.564 200.985 437.747 200.97C437.931 200.955 438.099 200.926 438.253 200.882C438.693 200.772 439.038 200.578 439.287 200.299C439.544 200.02 439.724 199.705 439.826 199.353C439.936 199.001 439.991 198.656 439.991 198.319C439.991 197.982 439.936 197.637 439.826 197.285C439.724 196.926 439.544 196.607 439.287 196.328C439.038 196.049 438.693 195.855 438.253 195.745C438.099 195.701 437.931 195.675 437.747 195.668C437.564 195.653 437.399 195.646 437.252 195.646H433.468V200.992ZM208.181 240.33C206.597 240.33 205.241 239.985 204.111 239.296C202.982 238.599 202.113 237.631 201.504 236.392C200.903 235.153 200.602 233.715 200.602 232.08C200.602 230.445 200.903 229.007 201.504 227.768C202.113 226.529 202.982 225.564 204.111 224.875C205.241 224.178 206.597 223.83 208.181 223.83C209.765 223.83 211.122 224.178 212.251 224.875C213.388 225.564 214.257 226.529 214.858 227.768C215.467 229.007 215.771 230.445 215.771 232.08C215.771 233.715 215.467 235.153 214.858 236.392C214.257 237.631 213.388 238.599 212.251 239.296C211.122 239.985 209.765 240.33 208.181 240.33ZM208.181 237.833C209.245 237.84 210.128 237.606 210.832 237.129C211.544 236.652 212.075 235.981 212.427 235.116C212.787 234.251 212.966 233.239 212.966 232.08C212.966 230.921 212.787 229.917 212.427 229.066C212.075 228.208 211.544 227.541 210.832 227.064C210.128 226.587 209.245 226.342 208.181 226.327C207.118 226.32 206.234 226.554 205.53 227.031C204.826 227.508 204.295 228.179 203.935 229.044C203.583 229.909 203.407 230.921 203.407 232.08C203.407 233.239 203.583 234.247 203.935 235.105C204.287 235.956 204.815 236.619 205.519 237.096C206.231 237.573 207.118 237.818 208.181 237.833ZM217.961 240V224.16H224.506C224.66 224.16 224.858 224.167 225.1 224.182C225.342 224.189 225.566 224.211 225.771 224.248C226.688 224.387 227.443 224.692 228.037 225.161C228.638 225.63 229.082 226.224 229.368 226.943C229.661 227.654 229.808 228.446 229.808 229.319C229.808 230.61 229.482 231.721 228.829 232.652C228.176 233.576 227.175 234.148 225.826 234.368L224.693 234.467H220.612V240H217.961ZM227.058 240L223.934 233.554L226.629 232.96L230.061 240H227.058ZM220.612 231.992H224.396C224.543 231.992 224.708 231.985 224.891 231.97C225.074 231.955 225.243 231.926 225.397 231.882C225.837 231.772 226.182 231.578 226.431 231.299C226.688 231.02 226.867 230.705 226.97 230.353C227.08 230.001 227.135 229.656 227.135 229.319C227.135 228.982 227.08 228.637 226.97 228.285C226.867 227.926 226.688 227.607 226.431 227.328C226.182 227.049 225.837 226.855 225.397 226.745C225.243 226.701 225.074 226.675 224.891 226.668C224.708 226.653 224.543 226.646 224.396 226.646H220.612V231.992ZM243.588 240.33C242.004 240.33 240.647 239.985 239.518 239.296C238.388 238.599 237.519 237.631 236.911 236.392C236.309 235.153 236.009 233.715 236.009 232.08C236.009 230.445 236.309 229.007 236.911 227.768C237.519 226.529 238.388 225.564 239.518 224.875C240.647 224.178 242.004 223.83 243.588 223.83C245.172 223.83 246.528 224.178 247.658 224.875C248.794 225.564 249.663 226.529 250.265 227.768C250.873 229.007 251.178 230.445 251.178 232.08C251.178 233.715 250.873 235.153 250.265 236.392C249.663 237.631 248.794 238.599 247.658 239.296C246.528 239.985 245.172 240.33 243.588 240.33ZM243.588 237.833C244.651 237.84 245.535 237.606 246.239 237.129C246.95 236.652 247.482 235.981 247.834 235.116C248.193 234.251 248.373 233.239 248.373 232.08C248.373 230.921 248.193 229.917 247.834 229.066C247.482 228.208 246.95 227.541 246.239 227.064C245.535 226.587 244.651 226.342 243.588 226.327C242.524 226.32 241.641 226.554 240.937 227.031C240.233 227.508 239.701 228.179 239.342 229.044C238.99 229.909 238.814 230.921 238.814 232.08C238.814 233.239 238.99 234.247 239.342 235.105C239.694 235.956 240.222 236.619 240.926 237.096C241.637 237.573 242.524 237.818 243.588 237.833ZM253.367 240V224.16H256.051L263.399 235.325V224.16H266.083V240H263.399L256.051 228.835V240H253.367ZM277.412 240V233.51L272.022 224.16H275.113L278.754 230.474L282.384 224.16H285.475L280.096 233.51V240H277.412ZM292.83 240.33C291.246 240.33 289.889 239.985 288.76 239.296C287.63 238.599 286.761 237.631 286.153 236.392C285.551 235.153 285.251 233.715 285.251 232.08C285.251 230.445 285.551 229.007 286.153 227.768C286.761 226.529 287.63 225.564 288.76 224.875C289.889 224.178 291.246 223.83 292.83 223.83C294.414 223.83 295.77 224.178 296.9 224.875C298.036 225.564 298.905 226.529 299.507 227.768C300.115 229.007 300.42 230.445 300.42 232.08C300.42 233.715 300.115 235.153 299.507 236.392C298.905 237.631 298.036 238.599 296.9 239.296C295.77 239.985 294.414 240.33 292.83 240.33ZM292.83 237.833C293.893 237.84 294.777 237.606 295.481 237.129C296.192 236.652 296.724 235.981 297.076 235.116C297.435 234.251 297.615 233.239 297.615 232.08C297.615 230.921 297.435 229.917 297.076 229.066C296.724 228.208 296.192 227.541 295.481 227.064C294.777 226.587 293.893 226.342 292.83 226.327C291.766 226.32 290.883 226.554 290.179 227.031C289.475 227.508 288.943 228.179 288.584 229.044C288.232 229.909 288.056 230.921 288.056 232.08C288.056 233.239 288.232 234.247 288.584 235.105C288.936 235.956 289.464 236.619 290.168 237.096C290.879 237.573 291.766 237.818 292.83 237.833ZM308.989 240.33C307.728 240.33 306.617 240.073 305.656 239.56C304.703 239.047 303.955 238.324 303.412 237.393C302.877 236.462 302.609 235.369 302.609 234.115V224.182L305.293 224.16V234.049C305.293 234.643 305.392 235.175 305.59 235.644C305.796 236.113 306.071 236.513 306.415 236.843C306.76 237.166 307.156 237.411 307.603 237.58C308.051 237.749 308.513 237.833 308.989 237.833C309.481 237.833 309.946 237.749 310.386 237.58C310.834 237.404 311.23 237.155 311.574 236.832C311.919 236.502 312.19 236.102 312.388 235.633C312.586 235.164 312.685 234.636 312.685 234.049V224.16H315.369V234.115C315.369 235.369 315.098 236.462 314.555 237.393C314.02 238.324 313.272 239.047 312.311 239.56C311.358 240.073 310.251 240.33 308.989 240.33ZM318.443 240V224.16H324.988C325.142 224.16 325.34 224.167 325.582 224.182C325.824 224.189 326.048 224.211 326.253 224.248C327.17 224.387 327.925 224.692 328.519 225.161C329.121 225.63 329.564 226.224 329.85 226.943C330.144 227.654 330.29 228.446 330.29 229.319C330.29 230.61 329.964 231.721 329.311 232.652C328.659 233.576 327.658 234.148 326.308 234.368L325.175 234.467H321.094V240H318.443ZM327.54 240L324.416 233.554L327.111 232.96L330.543 240H327.54ZM321.094 231.992H324.878C325.025 231.992 325.19 231.985 325.373 231.97C325.557 231.955 325.725 231.926 325.879 231.882C326.319 231.772 326.664 231.578 326.913 231.299C327.17 231.02 327.35 230.705 327.452 230.353C327.562 230.001 327.617 229.656 327.617 229.319C327.617 228.982 327.562 228.637 327.452 228.285C327.35 227.926 327.17 227.607 326.913 227.328C326.664 227.049 326.319 226.855 325.879 226.745C325.725 226.701 325.557 226.675 325.373 226.668C325.19 226.653 325.025 226.646 324.878 226.646H321.094V231.992ZM344.07 240.33C342.486 240.33 341.129 239.985 340 239.296C338.871 238.599 338.002 237.631 337.393 236.392C336.792 235.153 336.491 233.715 336.491 232.08C336.491 230.445 336.792 229.007 337.393 227.768C338.002 226.529 338.871 225.564 340 224.875C341.129 224.178 342.486 223.83 344.07 223.83C345.654 223.83 347.011 224.178 348.14 224.875C349.277 225.564 350.146 226.529 350.747 227.768C351.356 229.007 351.66 230.445 351.66 232.08C351.66 233.715 351.356 235.153 350.747 236.392C350.146 237.631 349.277 238.599 348.14 239.296C347.011 239.985 345.654 240.33 344.07 240.33ZM344.07 237.833C345.133 237.84 346.017 237.606 346.721 237.129C347.432 236.652 347.964 235.981 348.316 235.116C348.675 234.251 348.855 233.239 348.855 232.08C348.855 230.921 348.675 229.917 348.316 229.066C347.964 228.208 347.432 227.541 346.721 227.064C346.017 226.587 345.133 226.342 344.07 226.327C343.007 226.32 342.123 226.554 341.419 227.031C340.715 227.508 340.183 228.179 339.824 229.044C339.472 229.909 339.296 230.921 339.296 232.08C339.296 233.239 339.472 234.247 339.824 235.105C340.176 235.956 340.704 236.619 341.408 237.096C342.119 237.573 343.007 237.818 344.07 237.833ZM356.528 240L351.897 224.16H354.68L357.837 235.6L360.983 224.182L363.766 224.16L366.923 235.6L370.069 224.16H372.852L368.232 240H365.614L362.369 228.736L359.146 240H356.528ZM374.646 240V224.16H377.33L384.678 235.325V224.16H387.362V240H384.678L377.33 228.835V240H374.646ZM393.308 235.699C393.308 235.193 393.356 234.705 393.451 234.236C393.554 233.759 393.719 233.319 393.946 232.916C394.144 232.527 394.364 232.219 394.606 231.992C394.848 231.757 395.12 231.526 395.42 231.299C395.721 231.064 396.055 230.753 396.421 230.364C396.722 230.034 396.92 229.708 397.015 229.385C397.111 229.055 397.158 228.703 397.158 228.329C397.158 228.087 397.133 227.86 397.081 227.647C397.03 227.434 396.938 227.251 396.806 227.097C396.601 226.826 396.337 226.635 396.014 226.525C395.692 226.408 395.347 226.349 394.98 226.349C394.68 226.349 394.39 226.389 394.111 226.47C393.84 226.543 393.609 226.661 393.418 226.822C393.198 226.998 393.037 227.214 392.934 227.471C392.832 227.728 392.784 228.01 392.791 228.318H389.997C390.071 227.585 390.269 226.906 390.591 226.283C390.921 225.652 391.354 225.15 391.889 224.776C392.307 224.468 392.777 224.237 393.297 224.083C393.825 223.929 394.353 223.852 394.881 223.852C395.688 223.852 396.447 223.977 397.158 224.226C397.877 224.475 398.475 224.886 398.951 225.458C399.281 225.832 399.531 226.265 399.699 226.756C399.875 227.247 399.963 227.746 399.963 228.252C399.963 229.007 399.798 229.697 399.468 230.32C399.146 230.943 398.735 231.519 398.236 232.047C398.002 232.296 397.778 232.516 397.565 232.707C397.353 232.898 397.155 233.085 396.971 233.268C396.795 233.444 396.649 233.631 396.531 233.829C396.326 234.174 396.205 234.467 396.168 234.709C396.132 234.944 396.113 235.274 396.113 235.699H393.308ZM393.33 240V237.085H396.113V240H393.33Z" fill="white"></path><rect x="20" y="20" width="163" height="40" rx="20" fill="white" fill-opacity="0.3"></rect><path d="M33.245 46V34.48H37.733C38.421 34.48 39.0077 34.6213 39.493 34.904C39.9837 35.1867 40.357 35.56 40.613 36.024C40.8743 36.4827 41.005 36.9787 41.005 37.512C41.005 38.136 40.845 38.6827 40.525 39.152C40.205 39.6213 39.773 39.944 39.229 40.12L39.213 39.728C39.9543 39.9253 40.5303 40.288 40.941 40.816C41.3517 41.344 41.557 41.9733 41.557 42.704C41.557 43.376 41.4183 43.9573 41.141 44.448C40.869 44.9387 40.4743 45.32 39.957 45.592C39.445 45.864 38.837 46 38.133 46H33.245ZM34.685 44.64H37.861C38.2877 44.64 38.669 44.5627 39.005 44.408C39.341 44.248 39.605 44.024 39.797 43.736C39.9943 43.448 40.093 43.1013 40.093 42.696C40.093 42.3067 40.005 41.9573 39.829 41.648C39.6583 41.3387 39.4157 41.0933 39.101 40.912C38.7917 40.7253 38.4317 40.632 38.021 40.632H34.685V44.64ZM34.685 39.288H37.717C38.0583 39.288 38.365 39.216 38.637 39.072C38.9143 38.9227 39.133 38.7147 39.293 38.448C39.4583 38.1813 39.541 37.8693 39.541 37.512C39.541 37.016 39.373 36.6107 39.037 36.296C38.701 35.9813 38.261 35.824 37.717 35.824H34.685V39.288ZM47.6953 46.24C46.8046 46.24 46.0179 46.056 45.3353 45.688C44.6526 45.32 44.1166 44.8053 43.7273 44.144C43.3433 43.4773 43.1513 42.696 43.1513 41.8V34.488L44.5913 34.48V41.68C44.5913 42.224 44.6819 42.6987 44.8633 43.104C45.0499 43.504 45.2953 43.8373 45.5993 44.104C45.9033 44.3707 46.2366 44.5707 46.5993 44.704C46.9673 44.832 47.3326 44.896 47.6953 44.896C48.0633 44.896 48.4313 44.8293 48.7993 44.696C49.1673 44.5627 49.5006 44.3653 49.7993 44.104C50.1033 43.8373 50.3459 43.5013 50.5273 43.096C50.7086 42.6907 50.7993 42.2187 50.7993 41.68V34.48H52.2393V41.8C52.2393 42.6907 52.0446 43.4693 51.6553 44.136C51.2713 44.8027 50.7379 45.32 50.0553 45.688C49.3726 46.056 48.5859 46.24 47.6953 46.24ZM58.083 46.24C57.267 46.24 56.531 46.1013 55.875 45.824C55.2243 45.5467 54.6857 45.152 54.259 44.64C53.8377 44.1227 53.563 43.512 53.435 42.808L54.907 42.576C55.0937 43.3013 55.4803 43.8693 56.067 44.28C56.659 44.6853 57.355 44.888 58.155 44.888C58.6723 44.888 59.139 44.808 59.555 44.648C59.9763 44.4827 60.3097 44.248 60.555 43.944C60.8003 43.64 60.923 43.28 60.923 42.864C60.923 42.608 60.8777 42.3893 60.787 42.208C60.7017 42.0213 60.5817 41.864 60.427 41.736C60.2777 41.6027 60.107 41.4907 59.915 41.4C59.723 41.3093 59.523 41.2347 59.315 41.176L56.379 40.304C56.059 40.208 55.7497 40.088 55.451 39.944C55.1523 39.7947 54.8857 39.6107 54.651 39.392C54.4163 39.168 54.2297 38.9013 54.091 38.592C53.9523 38.2773 53.883 37.9067 53.883 37.48C53.883 36.7973 54.059 36.216 54.411 35.736C54.7683 35.2507 55.251 34.88 55.859 34.624C56.467 34.368 57.1523 34.2427 57.915 34.248C58.6883 34.2533 59.379 34.392 59.987 34.664C60.6003 34.9307 61.107 35.3147 61.507 35.816C61.9123 36.3173 62.1843 36.9173 62.323 37.616L60.811 37.88C60.731 37.4107 60.5523 37.008 60.275 36.672C60.003 36.3307 59.6617 36.0693 59.251 35.888C58.8403 35.7013 58.3897 35.6053 57.899 35.6C57.4297 35.5947 57.0057 35.6693 56.627 35.824C56.2483 35.9787 55.947 36.1947 55.723 36.472C55.499 36.744 55.387 37.0587 55.387 37.416C55.387 37.768 55.4883 38.0533 55.691 38.272C55.8937 38.4853 56.1417 38.656 56.435 38.784C56.7337 38.9067 57.0243 39.008 57.307 39.088L59.499 39.72C59.7497 39.7893 60.0377 39.8853 60.363 40.008C60.6937 40.1307 61.0137 40.304 61.323 40.528C61.6323 40.7467 61.8883 41.04 62.091 41.408C62.2937 41.7707 62.395 42.2293 62.395 42.784C62.395 43.3387 62.283 43.832 62.059 44.264C61.8403 44.696 61.5337 45.0587 61.139 45.352C60.7443 45.64 60.2857 45.8587 59.763 46.008C59.2403 46.1627 58.6803 46.24 58.083 46.24ZM64.2331 46V34.48H65.6571V46H64.2331ZM68.0575 46V34.48H69.4975L75.5055 43.48V34.48H76.9455V46H75.5055L69.4975 36.992V46H68.0575ZM79.1825 46V34.48H86.4625V35.832H80.6065V39.44H85.5025V40.792H80.6065V44.648H86.4625V46H79.1825ZM92.1455 46.24C91.3295 46.24 90.5935 46.1013 89.9375 45.824C89.2868 45.5467 88.7482 45.152 88.3215 44.64C87.9002 44.1227 87.6255 43.512 87.4975 42.808L88.9695 42.576C89.1562 43.3013 89.5428 43.8693 90.1295 44.28C90.7215 44.6853 91.4175 44.888 92.2175 44.888C92.7348 44.888 93.2015 44.808 93.6175 44.648C94.0388 44.4827 94.3722 44.248 94.6175 43.944C94.8628 43.64 94.9855 43.28 94.9855 42.864C94.9855 42.608 94.9402 42.3893 94.8495 42.208C94.7642 42.0213 94.6442 41.864 94.4895 41.736C94.3402 41.6027 94.1695 41.4907 93.9775 41.4C93.7855 41.3093 93.5855 41.2347 93.3775 41.176L90.4415 40.304C90.1215 40.208 89.8122 40.088 89.5135 39.944C89.2148 39.7947 88.9482 39.6107 88.7135 39.392C88.4788 39.168 88.2922 38.9013 88.1535 38.592C88.0148 38.2773 87.9455 37.9067 87.9455 37.48C87.9455 36.7973 88.1215 36.216 88.4735 35.736C88.8308 35.2507 89.3135 34.88 89.9215 34.624C90.5295 34.368 91.2148 34.2427 91.9775 34.248C92.7508 34.2533 93.4415 34.392 94.0495 34.664C94.6628 34.9307 95.1695 35.3147 95.5695 35.816C95.9748 36.3173 96.2468 36.9173 96.3855 37.616L94.8735 37.88C94.7935 37.4107 94.6148 37.008 94.3375 36.672C94.0655 36.3307 93.7242 36.0693 93.3135 35.888C92.9028 35.7013 92.4522 35.6053 91.9615 35.6C91.4922 35.5947 91.0682 35.6693 90.6895 35.824C90.3108 35.9787 90.0095 36.1947 89.7855 36.472C89.5615 36.744 89.4495 37.0587 89.4495 37.416C89.4495 37.768 89.5508 38.0533 89.7535 38.272C89.9562 38.4853 90.2042 38.656 90.4975 38.784C90.7962 38.9067 91.0868 39.008 91.3695 39.088L93.5615 39.72C93.8122 39.7893 94.1002 39.8853 94.4255 40.008C94.7562 40.1307 95.0762 40.304 95.3855 40.528C95.6948 40.7467 95.9508 41.04 96.1535 41.408C96.3562 41.7707 96.4575 42.2293 96.4575 42.784C96.4575 43.3387 96.3455 43.832 96.1215 44.264C95.9028 44.696 95.5962 45.0587 95.2015 45.352C94.8068 45.64 94.3482 45.8587 93.8255 46.008C93.3028 46.1627 92.7428 46.24 92.1455 46.24ZM102.458 46.24C101.642 46.24 100.906 46.1013 100.25 45.824C99.5993 45.5467 99.0607 45.152 98.634 44.64C98.2127 44.1227 97.938 43.512 97.81 42.808L99.282 42.576C99.4687 43.3013 99.8553 43.8693 100.442 44.28C101.034 44.6853 101.73 44.888 102.53 44.888C103.047 44.888 103.514 44.808 103.93 44.648C104.351 44.4827 104.685 44.248 104.93 43.944C105.175 43.64 105.298 43.28 105.298 42.864C105.298 42.608 105.253 42.3893 105.162 42.208C105.077 42.0213 104.957 41.864 104.802 41.736C104.653 41.6027 104.482 41.4907 104.29 41.4C104.098 41.3093 103.898 41.2347 103.69 41.176L100.754 40.304C100.434 40.208 100.125 40.088 99.826 39.944C99.5273 39.7947 99.2607 39.6107 99.026 39.392C98.7913 39.168 98.6047 38.9013 98.466 38.592C98.3273 38.2773 98.258 37.9067 98.258 37.48C98.258 36.7973 98.434 36.216 98.786 35.736C99.1433 35.2507 99.626 34.88 100.234 34.624C100.842 34.368 101.527 34.2427 102.29 34.248C103.063 34.2533 103.754 34.392 104.362 34.664C104.975 34.9307 105.482 35.3147 105.882 35.816C106.287 36.3173 106.559 36.9173 106.698 37.616L105.186 37.88C105.106 37.4107 104.927 37.008 104.65 36.672C104.378 36.3307 104.037 36.0693 103.626 35.888C103.215 35.7013 102.765 35.6053 102.274 35.6C101.805 35.5947 101.381 35.6693 101.002 35.824C100.623 35.9787 100.322 36.1947 100.098 36.472C99.874 36.744 99.762 37.0587 99.762 37.416C99.762 37.768 99.8633 38.0533 100.066 38.272C100.269 38.4853 100.517 38.656 100.81 38.784C101.109 38.9067 101.399 39.008 101.682 39.088L103.874 39.72C104.125 39.7893 104.413 39.8853 104.738 40.008C105.069 40.1307 105.389 40.304 105.698 40.528C106.007 40.7467 106.263 41.04 106.466 41.408C106.669 41.7707 106.77 42.2293 106.77 42.784C106.77 43.3387 106.658 43.832 106.434 44.264C106.215 44.696 105.909 45.0587 105.514 45.352C105.119 45.64 104.661 45.8587 104.138 46.008C103.615 46.1627 103.055 46.24 102.458 46.24ZM115.395 46.24C114.755 46.24 114.158 46.1467 113.603 45.96C113.049 45.7733 112.585 45.48 112.211 45.08C111.923 44.76 111.707 44.408 111.563 44.024C111.425 43.6347 111.347 43.224 111.331 42.792C111.331 42.3707 111.393 41.96 111.515 41.56C111.638 41.1547 111.833 40.7947 112.099 40.48C112.238 40.3093 112.393 40.1653 112.563 40.048C112.739 39.9253 112.915 39.8213 113.091 39.736C112.723 39.3413 112.441 38.9707 112.243 38.624C112.051 38.2773 111.955 37.8587 111.955 37.368C111.955 36.744 112.115 36.1813 112.435 35.68C112.761 35.1733 113.203 34.8027 113.763 34.568C114.035 34.4507 114.313 34.3707 114.595 34.328C114.883 34.28 115.163 34.256 115.435 34.256C115.894 34.256 116.339 34.32 116.771 34.448C117.203 34.576 117.571 34.784 117.875 35.072C118.078 35.2427 118.251 35.44 118.395 35.664C118.539 35.8827 118.651 36.112 118.731 36.352L117.339 36.712C117.238 36.44 117.07 36.2107 116.835 36.024C116.649 35.864 116.43 35.7547 116.179 35.696C115.934 35.6373 115.686 35.608 115.435 35.608C115.019 35.608 114.643 35.688 114.307 35.848C114.009 35.992 113.785 36.1947 113.635 36.456C113.486 36.712 113.411 37.016 113.411 37.368C113.411 37.672 113.462 37.9227 113.563 38.12C113.67 38.312 113.817 38.5173 114.003 38.736C114.115 38.8533 114.241 38.9787 114.379 39.112C114.523 39.24 114.67 39.3733 114.819 39.512L118.211 42.664C118.227 42.5307 118.238 42.3947 118.243 42.256C118.249 42.1173 118.251 41.984 118.251 41.856L118.243 40.264H119.547V42.136C119.547 42.5147 119.534 42.8373 119.507 43.104C119.486 43.3707 119.449 43.592 119.395 43.768L120.859 45.12L119.931 46.112L118.715 44.96C118.507 45.1947 118.259 45.4 117.971 45.576C117.683 45.752 117.395 45.8853 117.107 45.976C116.835 46.0773 116.555 46.1467 116.267 46.184C115.979 46.2213 115.689 46.24 115.395 46.24ZM115.427 44.872C115.689 44.872 115.926 44.856 116.139 44.824C116.353 44.792 116.555 44.7307 116.747 44.64C117.003 44.5173 117.201 44.4 117.339 44.288C117.478 44.176 117.593 44.072 117.683 43.976L114.171 40.76C113.979 40.824 113.798 40.9093 113.627 41.016C113.462 41.1227 113.318 41.248 113.195 41.392C113.057 41.5627 112.953 41.7627 112.883 41.992C112.819 42.2213 112.787 42.464 112.787 42.72C112.793 42.992 112.838 43.2427 112.923 43.472C113.009 43.7013 113.129 43.9067 113.283 44.088C113.518 44.36 113.835 44.56 114.235 44.688C114.635 44.8107 115.033 44.872 115.427 44.872ZM127.826 46L124.49 34.48H125.978L128.538 43.592L131.09 34.488L132.586 34.48L135.146 43.592L137.698 34.48H139.194L135.858 46H134.434L131.842 36.968L129.25 46H127.826ZM144.981 46.24C143.834 46.24 142.861 45.9867 142.061 45.48C141.261 44.9733 140.65 44.2693 140.229 43.368C139.813 42.4667 139.605 41.424 139.605 40.24C139.605 39.056 139.813 38.0133 140.229 37.112C140.65 36.2107 141.261 35.5067 142.061 35C142.861 34.4933 143.834 34.24 144.981 34.24C146.133 34.24 147.109 34.4933 147.909 35C148.709 35.5067 149.317 36.2107 149.733 37.112C150.149 38.0133 150.357 39.056 150.357 40.24C150.357 41.424 150.149 42.4667 149.733 43.368C149.317 44.2693 148.709 44.9733 147.909 45.48C147.109 45.9867 146.133 46.24 144.981 46.24ZM144.981 44.88C145.84 44.8853 146.554 44.6933 147.125 44.304C147.701 43.9093 148.13 43.3627 148.413 42.664C148.701 41.9653 148.845 41.1573 148.845 40.24C148.845 39.3173 148.701 38.5093 148.413 37.816C148.13 37.1227 147.701 36.5813 147.125 36.192C146.554 35.8027 145.84 35.6053 144.981 35.6C144.122 35.5947 143.408 35.7867 142.837 36.176C142.272 36.5653 141.845 37.1093 141.557 37.808C141.269 38.5067 141.122 39.3173 141.117 40.24C141.112 41.1573 141.253 41.9627 141.541 42.656C141.829 43.3493 142.258 43.8933 142.829 44.288C143.405 44.6773 144.122 44.8747 144.981 44.88ZM151.964 46V34.48H156.516C156.628 34.48 156.761 34.4853 156.916 34.496C157.07 34.5013 157.22 34.5173 157.364 34.544C157.988 34.64 158.51 34.8533 158.932 35.184C159.358 35.5147 159.678 35.9333 159.892 36.44C160.105 36.9413 160.212 37.4987 160.212 38.112C160.212 39.0027 159.98 39.776 159.516 40.432C159.052 41.0827 158.372 41.4907 157.476 41.656L156.932 41.744H153.388V46H151.964ZM158.82 46L156.548 41.312L157.956 40.88L160.452 46H158.82ZM153.388 40.392H156.468C156.569 40.392 156.684 40.3867 156.812 40.376C156.945 40.3653 157.07 40.3467 157.188 40.32C157.556 40.2347 157.854 40.08 158.084 39.856C158.318 39.6267 158.489 39.36 158.596 39.056C158.702 38.7467 158.756 38.432 158.756 38.112C158.756 37.792 158.702 37.48 158.596 37.176C158.489 36.8667 158.318 36.5973 158.084 36.368C157.854 36.1387 157.556 35.984 157.188 35.904C157.07 35.872 156.945 35.8533 156.812 35.848C156.684 35.8373 156.569 35.832 156.468 35.832H153.388V40.392ZM162.214 46V34.48H163.638V39.888L168.678 34.48H170.47L165.238 40.072L170.878 46H169.038L163.638 40.368V46H162.214Z" fill="white"></path><defs><linearGradient id="paint0_linear_160_175" x1="300" y1="0" x2="300" y2="400" gradientUnits="userSpaceOnUse"><stop stop-color="#41295A"></stop><stop offset="1" stop-color="#2F0743"></stop></linearGradient></defs></svg> 