<?xml version="1.0" encoding="UTF-8"?> <svg xmlns="http://www.w3.org/2000/svg" width="600" height="400" viewBox="0 0 600 400" fill="none"><rect width="600" height="400" rx="20" fill="url(#paint0_linear_160_183)"></rect><path d="M138.064 162L133.433 146.16H136.216L139.373 157.6L142.519 146.182L145.302 146.16L148.459 157.6L151.605 146.16H154.388L149.768 162H147.15L143.905 150.736L140.682 162H138.064ZM156.183 162V146.16H158.834V152.826H166.336V146.16H168.976V162H166.336V155.312H158.834V162H156.183ZM170.96 162L175.954 146.16H179.837L184.831 162H182.103L177.571 147.788H178.165L173.688 162H170.96ZM173.743 158.568V156.093H182.059V158.568H173.743ZM189.315 162V148.646H184.189V146.16H197.092V148.646H191.966V162H189.315ZM202.809 162V146.16H205.46V162H202.809ZM214.618 162.33C213.459 162.33 212.414 162.128 211.483 161.725C210.559 161.322 209.796 160.746 209.195 159.998C208.601 159.243 208.223 158.348 208.062 157.314L210.812 156.896C211.047 157.835 211.527 158.561 212.253 159.074C212.986 159.587 213.83 159.844 214.783 159.844C215.348 159.844 215.879 159.756 216.378 159.58C216.877 159.404 217.28 159.147 217.588 158.81C217.903 158.473 218.061 158.058 218.061 157.567C218.061 157.347 218.024 157.145 217.951 156.962C217.878 156.771 217.768 156.603 217.621 156.456C217.482 156.309 217.298 156.177 217.071 156.06C216.851 155.935 216.594 155.829 216.301 155.741L212.209 154.531C211.857 154.428 211.476 154.293 211.065 154.124C210.662 153.948 210.277 153.71 209.91 153.409C209.551 153.101 209.254 152.712 209.019 152.243C208.792 151.766 208.678 151.18 208.678 150.483C208.678 149.464 208.935 148.609 209.448 147.92C209.969 147.223 210.665 146.703 211.538 146.358C212.418 146.013 213.393 145.845 214.464 145.852C215.549 145.859 216.517 146.046 217.368 146.413C218.219 146.772 218.93 147.297 219.502 147.986C220.074 148.675 220.477 149.508 220.712 150.483L217.863 150.978C217.746 150.421 217.518 149.948 217.181 149.559C216.851 149.163 216.444 148.862 215.96 148.657C215.483 148.452 214.974 148.342 214.431 148.327C213.903 148.32 213.412 148.4 212.957 148.569C212.51 148.73 212.147 148.965 211.868 149.273C211.597 149.581 211.461 149.94 211.461 150.351C211.461 150.74 211.578 151.059 211.813 151.308C212.048 151.55 212.337 151.744 212.682 151.891C213.034 152.03 213.39 152.148 213.749 152.243L216.587 153.035C216.976 153.138 217.412 153.277 217.896 153.453C218.38 153.629 218.846 153.875 219.293 154.19C219.74 154.505 220.107 154.92 220.393 155.433C220.686 155.946 220.833 156.599 220.833 157.391C220.833 158.212 220.661 158.935 220.316 159.558C219.979 160.174 219.52 160.687 218.941 161.098C218.362 161.509 217.698 161.817 216.95 162.022C216.209 162.227 215.432 162.33 214.618 162.33ZM227.618 162V146.16H234.163C234.317 146.16 234.515 146.167 234.757 146.182C234.999 146.189 235.223 146.211 235.428 146.248C236.345 146.387 237.1 146.692 237.694 147.161C238.295 147.63 238.739 148.224 239.025 148.943C239.318 149.654 239.465 150.446 239.465 151.319C239.465 152.184 239.318 152.976 239.025 153.695C238.732 154.406 238.284 154.997 237.683 155.466C237.089 155.935 236.337 156.24 235.428 156.379C235.223 156.408 234.995 156.43 234.746 156.445C234.504 156.46 234.31 156.467 234.163 156.467H230.269V162H227.618ZM230.269 153.992H234.053C234.2 153.992 234.365 153.985 234.548 153.97C234.731 153.955 234.9 153.926 235.054 153.882C235.494 153.772 235.839 153.578 236.088 153.299C236.345 153.02 236.524 152.705 236.627 152.353C236.737 152.001 236.792 151.656 236.792 151.319C236.792 150.982 236.737 150.637 236.627 150.285C236.524 149.926 236.345 149.607 236.088 149.328C235.839 149.049 235.494 148.855 235.054 148.745C234.9 148.701 234.731 148.675 234.548 148.668C234.365 148.653 234.2 148.646 234.053 148.646H230.269V153.992ZM241.669 162V146.16H248.214C248.368 146.16 248.566 146.167 248.808 146.182C249.05 146.189 249.274 146.211 249.479 146.248C250.396 146.387 251.151 146.692 251.745 147.161C252.346 147.63 252.79 148.224 253.076 148.943C253.369 149.654 253.516 150.446 253.516 151.319C253.516 152.61 253.19 153.721 252.537 154.652C251.884 155.576 250.883 156.148 249.534 156.368L248.401 156.467H244.32V162H241.669ZM250.766 162L247.642 155.554L250.337 154.96L253.769 162H250.766ZM244.32 153.992H248.104C248.251 153.992 248.416 153.985 248.599 153.97C248.782 153.955 248.951 153.926 249.105 153.882C249.545 153.772 249.89 153.578 250.139 153.299C250.396 153.02 250.575 152.705 250.678 152.353C250.788 152.001 250.843 151.656 250.843 151.319C250.843 150.982 250.788 150.637 250.678 150.285C250.575 149.926 250.396 149.607 250.139 149.328C249.89 149.049 249.545 148.855 249.105 148.745C248.951 148.701 248.782 148.675 248.599 148.668C248.416 148.653 248.251 148.646 248.104 148.646H244.32V153.992ZM256.192 162V146.16H266.422V148.646H258.843V152.551H265.102V155.037H258.843V159.514H266.422V162H256.192ZM269.061 162V146.16H278.598V148.811H271.712V152.76H277.278V155.4H271.712V162H269.061ZM280.577 162V146.16H290.807V148.646H283.228V152.551H289.487V155.037H283.228V159.514H290.807V162H280.577ZM293.446 162V146.16H299.991C300.145 146.16 300.343 146.167 300.585 146.182C300.827 146.189 301.051 146.211 301.256 146.248C302.173 146.387 302.928 146.692 303.522 147.161C304.124 147.63 304.567 148.224 304.853 148.943C305.147 149.654 305.293 150.446 305.293 151.319C305.293 152.61 304.967 153.721 304.314 154.652C303.662 155.576 302.661 156.148 301.311 156.368L300.178 156.467H296.097V162H293.446ZM302.543 162L299.419 155.554L302.114 154.96L305.546 162H302.543ZM296.097 153.992H299.881C300.028 153.992 300.193 153.985 300.376 153.97C300.56 153.955 300.728 153.926 300.882 153.882C301.322 153.772 301.667 153.578 301.916 153.299C302.173 153.02 302.353 152.705 302.455 152.353C302.565 152.001 302.62 151.656 302.62 151.319C302.62 150.982 302.565 150.637 302.455 150.285C302.353 149.926 302.173 149.607 301.916 149.328C301.667 149.049 301.322 148.855 300.882 148.745C300.728 148.701 300.56 148.675 300.376 148.668C300.193 148.653 300.028 148.646 299.881 148.646H296.097V153.992ZM306.87 162L311.864 146.16H315.747L320.741 162H318.013L313.481 147.788H314.075L309.598 162H306.87ZM309.653 158.568V156.093H317.969V158.568H309.653ZM322.729 162V146.16H329.01C330.081 146.16 330.957 146.376 331.639 146.809C332.329 147.234 332.838 147.781 333.168 148.448C333.506 149.115 333.674 149.805 333.674 150.516C333.674 151.389 333.465 152.129 333.047 152.738C332.637 153.347 332.076 153.757 331.364 153.97V153.42C332.362 153.647 333.117 154.12 333.63 154.839C334.151 155.558 334.411 156.375 334.411 157.292C334.411 158.231 334.232 159.052 333.872 159.756C333.513 160.46 332.978 161.01 332.266 161.406C331.562 161.802 330.69 162 329.648 162H322.729ZM325.413 159.503H329.318C329.78 159.503 330.195 159.411 330.561 159.228C330.928 159.037 331.214 158.773 331.419 158.436C331.632 158.091 331.738 157.684 331.738 157.215C331.738 156.79 331.647 156.408 331.463 156.071C331.28 155.734 331.012 155.466 330.66 155.268C330.308 155.063 329.887 154.96 329.395 154.96H325.413V159.503ZM325.413 152.485H328.977C329.359 152.485 329.7 152.412 330 152.265C330.301 152.118 330.539 151.902 330.715 151.616C330.891 151.33 330.979 150.978 330.979 150.56C330.979 150.01 330.803 149.552 330.451 149.185C330.099 148.818 329.608 148.635 328.977 148.635H325.413V152.485ZM336.828 162V146.16H339.479V159.514H346.475V162H336.828ZM348.339 162V146.16H358.569V148.646H350.99V152.551H357.249V155.037H350.99V159.514H358.569V162H348.339ZM365.612 162V146.16H375.149V148.811H368.263V152.76H373.829V155.4H368.263V162H365.612ZM383.827 162.33C382.243 162.33 380.886 161.985 379.757 161.296C378.628 160.599 377.759 159.631 377.15 158.392C376.549 157.153 376.248 155.715 376.248 154.08C376.248 152.445 376.549 151.007 377.15 149.768C377.759 148.529 378.628 147.564 379.757 146.875C380.886 146.178 382.243 145.83 383.827 145.83C385.411 145.83 386.768 146.178 387.897 146.875C389.034 147.564 389.903 148.529 390.504 149.768C391.113 151.007 391.417 152.445 391.417 154.08C391.417 155.715 391.113 157.153 390.504 158.392C389.903 159.631 389.034 160.599 387.897 161.296C386.768 161.985 385.411 162.33 383.827 162.33ZM383.827 159.833C384.89 159.84 385.774 159.606 386.478 159.129C387.189 158.652 387.721 157.981 388.073 157.116C388.432 156.251 388.612 155.239 388.612 154.08C388.612 152.921 388.432 151.917 388.073 151.066C387.721 150.208 387.189 149.541 386.478 149.064C385.774 148.587 384.89 148.342 383.827 148.327C382.764 148.32 381.88 148.554 381.176 149.031C380.472 149.508 379.94 150.179 379.581 151.044C379.229 151.909 379.053 152.921 379.053 154.08C379.053 155.239 379.229 156.247 379.581 157.105C379.933 157.956 380.461 158.619 381.165 159.096C381.876 159.573 382.764 159.818 383.827 159.833ZM393.606 162V146.16H400.151C400.305 146.16 400.503 146.167 400.745 146.182C400.987 146.189 401.211 146.211 401.416 146.248C402.333 146.387 403.088 146.692 403.682 147.161C404.284 147.63 404.727 148.224 405.013 148.943C405.307 149.654 405.453 150.446 405.453 151.319C405.453 152.61 405.127 153.721 404.474 154.652C403.822 155.576 402.821 156.148 401.471 156.368L400.338 156.467H396.257V162H393.606ZM402.703 162L399.579 155.554L402.274 154.96L405.706 162H402.703ZM396.257 153.992H400.041C400.188 153.992 400.353 153.985 400.536 153.97C400.72 153.955 400.888 153.926 401.042 153.882C401.482 153.772 401.827 153.578 402.076 153.299C402.333 153.02 402.513 152.705 402.615 152.353C402.725 152.001 402.78 151.656 402.78 151.319C402.78 150.982 402.725 150.637 402.615 150.285C402.513 149.926 402.333 149.607 402.076 149.328C401.827 149.049 401.482 148.855 401.042 148.745C400.888 148.701 400.72 148.675 400.536 148.668C400.353 148.653 400.188 148.646 400.041 148.646H396.257V153.992ZM416.384 162V155.51L410.994 146.16H414.085L417.726 152.474L421.356 146.16H424.447L419.068 155.51V162H416.384ZM431.802 162.33C430.218 162.33 428.861 161.985 427.732 161.296C426.602 160.599 425.733 159.631 425.125 158.392C424.523 157.153 424.223 155.715 424.223 154.08C424.223 152.445 424.523 151.007 425.125 149.768C425.733 148.529 426.602 147.564 427.732 146.875C428.861 146.178 430.218 145.83 431.802 145.83C433.386 145.83 434.742 146.178 435.872 146.875C437.008 147.564 437.877 148.529 438.479 149.768C439.087 151.007 439.392 152.445 439.392 154.08C439.392 155.715 439.087 157.153 438.479 158.392C437.877 159.631 437.008 160.599 435.872 161.296C434.742 161.985 433.386 162.33 431.802 162.33ZM431.802 159.833C432.865 159.84 433.749 159.606 434.453 159.129C435.164 158.652 435.696 157.981 436.048 157.116C436.407 156.251 436.587 155.239 436.587 154.08C436.587 152.921 436.407 151.917 436.048 151.066C435.696 150.208 435.164 149.541 434.453 149.064C433.749 148.587 432.865 148.342 431.802 148.327C430.738 148.32 429.855 148.554 429.151 149.031C428.447 149.508 427.915 150.179 427.556 151.044C427.204 151.909 427.028 152.921 427.028 154.08C427.028 155.239 427.204 156.247 427.556 157.105C427.908 157.956 428.436 158.619 429.14 159.096C429.851 159.573 430.738 159.818 431.802 159.833ZM447.961 162.33C446.7 162.33 445.589 162.073 444.628 161.56C443.675 161.047 442.927 160.324 442.384 159.393C441.849 158.462 441.581 157.369 441.581 156.115V146.182L444.265 146.16V156.049C444.265 156.643 444.364 157.175 444.562 157.644C444.767 158.113 445.042 158.513 445.387 158.843C445.732 159.166 446.128 159.411 446.575 159.58C447.022 159.749 447.484 159.833 447.961 159.833C448.452 159.833 448.918 159.749 449.358 159.58C449.805 159.404 450.201 159.155 450.546 158.832C450.891 158.502 451.162 158.102 451.36 157.633C451.558 157.164 451.657 156.636 451.657 156.049V146.16H454.341V156.115C454.341 157.369 454.07 158.462 453.527 159.393C452.992 160.324 452.244 161.047 451.283 161.56C450.33 162.073 449.222 162.33 447.961 162.33ZM458.295 159.25V156.533H461.012V159.25H458.295ZM458.317 151.627V148.91H461.034V151.627H458.317ZM63.4023 193V177.16H69.9473C70.1013 177.16 70.2993 177.167 70.5413 177.182C70.7833 177.189 71.007 177.211 71.2123 177.248C72.129 177.387 72.8843 177.692 73.4783 178.161C74.0796 178.63 74.5233 179.224 74.8093 179.943C75.1026 180.654 75.2493 181.446 75.2493 182.319C75.2493 183.61 74.923 184.721 74.2703 185.652C73.6176 186.576 72.6166 187.148 71.2673 187.368L70.1343 187.467H66.0533V193H63.4023ZM72.4993 193L69.3753 186.554L72.0703 185.96L75.5023 193H72.4993ZM66.0533 184.992H69.8373C69.984 184.992 70.149 184.985 70.3323 184.97C70.5156 184.955 70.6843 184.926 70.8383 184.882C71.2783 184.772 71.623 184.578 71.8723 184.299C72.129 184.02 72.3086 183.705 72.4113 183.353C72.5213 183.001 72.5763 182.656 72.5763 182.319C72.5763 181.982 72.5213 181.637 72.4113 181.285C72.3086 180.926 72.129 180.607 71.8723 180.328C71.623 180.049 71.2783 179.855 70.8383 179.745C70.6843 179.701 70.5156 179.675 70.3323 179.668C70.149 179.653 69.984 179.646 69.8373 179.646H66.0533V184.992ZM84.3057 193.33C83.0444 193.33 81.9334 193.073 80.9727 192.56C80.0194 192.047 79.2714 191.324 78.7287 190.393C78.1934 189.462 77.9257 188.369 77.9257 187.115V177.182L80.6097 177.16V187.049C80.6097 187.643 80.7087 188.175 80.9067 188.644C81.1121 189.113 81.3871 189.513 81.7317 189.843C82.0764 190.166 82.4724 190.411 82.9197 190.58C83.3671 190.749 83.8291 190.833 84.3057 190.833C84.7971 190.833 85.2627 190.749 85.7027 190.58C86.1501 190.404 86.5461 190.155 86.8907 189.832C87.2354 189.502 87.5067 189.102 87.7047 188.633C87.9027 188.164 88.0017 187.636 88.0017 187.049V177.16H90.6857V187.115C90.6857 188.369 90.4144 189.462 89.8717 190.393C89.3364 191.324 88.5884 192.047 87.6277 192.56C86.6744 193.073 85.5671 193.33 84.3057 193.33ZM93.7597 193V177.16H96.4437L103.792 188.325V177.16H106.476V193H103.792L96.4437 181.835V193H93.7597ZM109.551 193V177.16H112.235L119.583 188.325V177.16H122.267V193H119.583L112.235 181.835V193H109.551ZM125.562 193V177.16H128.213V193H125.562ZM131.508 193V177.16H134.192L141.54 188.325V177.16H144.224V193H141.54L134.192 181.835V193H131.508ZM153.833 193.33C152.806 193.33 151.842 193.15 150.94 192.791C150.045 192.424 149.257 191.889 148.575 191.185C147.9 190.481 147.372 189.619 146.991 188.6C146.609 187.573 146.419 186.4 146.419 185.08C146.419 183.349 146.741 181.872 147.387 180.647C148.032 179.415 148.916 178.473 150.038 177.82C151.16 177.16 152.425 176.83 153.833 176.83C155.783 176.83 157.327 177.285 158.464 178.194C159.608 179.096 160.381 180.365 160.785 182L158.079 182.429C157.778 181.49 157.287 180.742 156.605 180.185C155.923 179.62 155.054 179.338 153.998 179.338C152.934 179.323 152.051 179.554 151.347 180.031C150.643 180.508 150.111 181.179 149.752 182.044C149.4 182.909 149.224 183.921 149.224 185.08C149.224 186.239 149.4 187.247 149.752 188.105C150.104 188.956 150.632 189.619 151.336 190.096C152.047 190.573 152.934 190.818 153.998 190.833C154.797 190.84 155.497 190.697 156.099 190.404C156.7 190.103 157.191 189.652 157.573 189.051C157.954 188.442 158.211 187.683 158.343 186.774H155.549V184.695H161.159C161.173 184.812 161.184 184.985 161.192 185.212C161.199 185.439 161.203 185.575 161.203 185.619C161.203 187.115 160.906 188.446 160.312 189.612C159.725 190.771 158.882 191.68 157.782 192.34C156.682 193 155.365 193.33 153.833 193.33ZM171.666 193V186.51L166.276 177.16H169.367L173.008 183.474L176.638 177.16H179.729L174.35 186.51V193H171.666ZM187.084 193.33C185.5 193.33 184.143 192.985 183.014 192.296C181.884 191.599 181.015 190.631 180.407 189.392C179.805 188.153 179.505 186.715 179.505 185.08C179.505 183.445 179.805 182.007 180.407 180.768C181.015 179.529 181.884 178.564 183.014 177.875C184.143 177.178 185.5 176.83 187.084 176.83C188.668 176.83 190.024 177.178 191.154 177.875C192.29 178.564 193.159 179.529 193.761 180.768C194.369 182.007 194.674 183.445 194.674 185.08C194.674 186.715 194.369 188.153 193.761 189.392C193.159 190.631 192.29 191.599 191.154 192.296C190.024 192.985 188.668 193.33 187.084 193.33ZM187.084 190.833C188.147 190.84 189.031 190.606 189.735 190.129C190.446 189.652 190.978 188.981 191.33 188.116C191.689 187.251 191.869 186.239 191.869 185.08C191.869 183.921 191.689 182.917 191.33 182.066C190.978 181.208 190.446 180.541 189.735 180.064C189.031 179.587 188.147 179.342 187.084 179.327C186.02 179.32 185.137 179.554 184.433 180.031C183.729 180.508 183.197 181.179 182.838 182.044C182.486 182.909 182.31 183.921 182.31 185.08C182.31 186.239 182.486 187.247 182.838 188.105C183.19 188.956 183.718 189.619 184.422 190.096C185.133 190.573 186.02 190.818 187.084 190.833ZM203.243 193.33C201.982 193.33 200.871 193.073 199.91 192.56C198.957 192.047 198.209 191.324 197.666 190.393C197.131 189.462 196.863 188.369 196.863 187.115V177.182L199.547 177.16V187.049C199.547 187.643 199.646 188.175 199.844 188.644C200.05 189.113 200.325 189.513 200.669 189.843C201.014 190.166 201.41 190.411 201.857 190.58C202.305 190.749 202.767 190.833 203.243 190.833C203.735 190.833 204.2 190.749 204.64 190.58C205.088 190.404 205.484 190.155 205.828 189.832C206.173 189.502 206.444 189.102 206.642 188.633C206.84 188.164 206.939 187.636 206.939 187.049V177.16H209.623V187.115C209.623 188.369 209.352 189.462 208.809 190.393C208.274 191.324 207.526 192.047 206.565 192.56C205.612 193.073 204.505 193.33 203.243 193.33ZM212.697 193V177.16H219.242C219.396 177.16 219.594 177.167 219.836 177.182C220.078 177.189 220.302 177.211 220.507 177.248C221.424 177.387 222.179 177.692 222.773 178.161C223.375 178.63 223.818 179.224 224.104 179.943C224.398 180.654 224.544 181.446 224.544 182.319C224.544 183.61 224.218 184.721 223.565 185.652C222.913 186.576 221.912 187.148 220.562 187.368L219.429 187.467H215.348V193H212.697ZM221.794 193L218.67 186.554L221.365 185.96L224.797 193H221.794ZM215.348 184.992H219.132C219.279 184.992 219.444 184.985 219.627 184.97C219.811 184.955 219.979 184.926 220.133 184.882C220.573 184.772 220.918 184.578 221.167 184.299C221.424 184.02 221.604 183.705 221.706 183.353C221.816 183.001 221.871 182.656 221.871 182.319C221.871 181.982 221.816 181.637 221.706 181.285C221.604 180.926 221.424 180.607 221.167 180.328C220.918 180.049 220.573 179.855 220.133 179.745C219.979 179.701 219.811 179.675 219.627 179.668C219.444 179.653 219.279 179.646 219.132 179.646H215.348V184.992ZM238.324 193.33C236.74 193.33 235.383 192.985 234.254 192.296C233.125 191.599 232.256 190.631 231.647 189.392C231.046 188.153 230.745 186.715 230.745 185.08C230.745 183.445 231.046 182.007 231.647 180.768C232.256 179.529 233.125 178.564 234.254 177.875C235.383 177.178 236.74 176.83 238.324 176.83C239.908 176.83 241.265 177.178 242.394 177.875C243.531 178.564 244.4 179.529 245.001 180.768C245.61 182.007 245.914 183.445 245.914 185.08C245.914 186.715 245.61 188.153 245.001 189.392C244.4 190.631 243.531 191.599 242.394 192.296C241.265 192.985 239.908 193.33 238.324 193.33ZM238.324 190.833C239.387 190.84 240.271 190.606 240.975 190.129C241.686 189.652 242.218 188.981 242.57 188.116C242.929 187.251 243.109 186.239 243.109 185.08C243.109 183.921 242.929 182.917 242.57 182.066C242.218 181.208 241.686 180.541 240.975 180.064C240.271 179.587 239.387 179.342 238.324 179.327C237.261 179.32 236.377 179.554 235.673 180.031C234.969 180.508 234.437 181.179 234.078 182.044C233.726 182.909 233.55 183.921 233.55 185.08C233.55 186.239 233.726 187.247 234.078 188.105C234.43 188.956 234.958 189.619 235.662 190.096C236.373 190.573 237.261 190.818 238.324 190.833ZM250.781 193L246.15 177.16H248.933L252.09 188.6L255.236 177.182L258.019 177.16L261.176 188.6L264.322 177.16H267.105L262.485 193H259.867L256.622 181.736L253.399 193H250.781ZM268.9 193V177.16H271.584L278.932 188.325V177.16H281.616V193H278.932L271.584 181.835V193H268.9ZM289.096 193V177.16H295.377C296.447 177.16 297.324 177.376 298.006 177.809C298.695 178.234 299.205 178.781 299.535 179.448C299.872 180.115 300.041 180.805 300.041 181.516C300.041 182.389 299.832 183.129 299.414 183.738C299.003 184.347 298.442 184.757 297.731 184.97V184.42C298.728 184.647 299.483 185.12 299.997 185.839C300.517 186.558 300.778 187.375 300.778 188.292C300.778 189.231 300.598 190.052 300.239 190.756C299.879 191.46 299.344 192.01 298.633 192.406C297.929 192.802 297.056 193 296.015 193H289.096ZM291.78 190.503H295.685C296.147 190.503 296.561 190.411 296.928 190.228C297.294 190.037 297.58 189.773 297.786 189.436C297.998 189.091 298.105 188.684 298.105 188.215C298.105 187.79 298.013 187.408 297.83 187.071C297.646 186.734 297.379 186.466 297.027 186.268C296.675 186.063 296.253 185.96 295.762 185.96H291.78V190.503ZM291.78 183.485H295.344C295.725 183.485 296.066 183.412 296.367 183.265C296.667 183.118 296.906 182.902 297.082 182.616C297.258 182.33 297.346 181.978 297.346 181.56C297.346 181.01 297.17 180.552 296.818 180.185C296.466 179.818 295.974 179.635 295.344 179.635H291.78V183.485ZM309.355 193.33C308.093 193.33 306.982 193.073 306.022 192.56C305.068 192.047 304.32 191.324 303.778 190.393C303.242 189.462 302.975 188.369 302.975 187.115V177.182L305.659 177.16V187.049C305.659 187.643 305.758 188.175 305.956 188.644C306.161 189.113 306.436 189.513 306.781 189.843C307.125 190.166 307.521 190.411 307.969 190.58C308.416 190.749 308.878 190.833 309.355 190.833C309.846 190.833 310.312 190.749 310.752 190.58C311.199 190.404 311.595 190.155 311.94 189.832C312.284 189.502 312.556 189.102 312.754 188.633C312.952 188.164 313.051 187.636 313.051 187.049V177.16H315.735V187.115C315.735 188.369 315.463 189.462 314.921 190.393C314.385 191.324 313.637 192.047 312.677 192.56C311.723 193.073 310.616 193.33 309.355 193.33ZM324.006 193.33C322.847 193.33 321.802 193.128 320.871 192.725C319.947 192.322 319.184 191.746 318.583 190.998C317.989 190.243 317.611 189.348 317.45 188.314L320.2 187.896C320.434 188.835 320.915 189.561 321.641 190.074C322.374 190.587 323.217 190.844 324.171 190.844C324.735 190.844 325.267 190.756 325.766 190.58C326.264 190.404 326.668 190.147 326.976 189.81C327.291 189.473 327.449 189.058 327.449 188.567C327.449 188.347 327.412 188.145 327.339 187.962C327.265 187.771 327.155 187.603 327.009 187.456C326.869 187.309 326.686 187.177 326.459 187.06C326.239 186.935 325.982 186.829 325.689 186.741L321.597 185.531C321.245 185.428 320.863 185.293 320.453 185.124C320.049 184.948 319.664 184.71 319.298 184.409C318.938 184.101 318.641 183.712 318.407 183.243C318.179 182.766 318.066 182.18 318.066 181.483C318.066 180.464 318.322 179.609 318.836 178.92C319.356 178.223 320.053 177.703 320.926 177.358C321.806 177.013 322.781 176.845 323.852 176.852C324.937 176.859 325.905 177.046 326.756 177.413C327.606 177.772 328.318 178.297 328.89 178.986C329.462 179.675 329.865 180.508 330.1 181.483L327.251 181.978C327.133 181.421 326.906 180.948 326.569 180.559C326.239 180.163 325.832 179.862 325.348 179.657C324.871 179.452 324.361 179.342 323.819 179.327C323.291 179.32 322.799 179.4 322.345 179.569C321.897 179.73 321.534 179.965 321.256 180.273C320.984 180.581 320.849 180.94 320.849 181.351C320.849 181.74 320.966 182.059 321.201 182.308C321.435 182.55 321.725 182.744 322.07 182.891C322.422 183.03 322.777 183.148 323.137 183.243L325.975 184.035C326.363 184.138 326.8 184.277 327.284 184.453C327.768 184.629 328.233 184.875 328.681 185.19C329.128 185.505 329.495 185.92 329.781 186.433C330.074 186.946 330.221 187.599 330.221 188.391C330.221 189.212 330.048 189.935 329.704 190.558C329.366 191.174 328.908 191.687 328.329 192.098C327.749 192.509 327.086 192.817 326.338 193.022C325.597 193.227 324.82 193.33 324.006 193.33ZM332.822 193V177.16H335.473V193H332.822ZM338.768 193V177.16H341.452L348.8 188.325V177.16H351.484V193H348.8L341.452 181.835V193H338.768ZM354.559 193V177.16H364.789V179.646H357.21V183.551H363.469V186.037H357.21V190.514H364.789V193H354.559ZM373.14 193.33C371.982 193.33 370.937 193.128 370.005 192.725C369.081 192.322 368.319 191.746 367.717 190.998C367.123 190.243 366.746 189.348 366.584 188.314L369.334 187.896C369.569 188.835 370.049 189.561 370.775 190.074C371.509 190.587 372.352 190.844 373.305 190.844C373.87 190.844 374.402 190.756 374.9 190.58C375.399 190.404 375.802 190.147 376.11 189.81C376.426 189.473 376.583 189.058 376.583 188.567C376.583 188.347 376.547 188.145 376.473 187.962C376.4 187.771 376.29 187.603 376.143 187.456C376.004 187.309 375.821 187.177 375.593 187.06C375.373 186.935 375.117 186.829 374.823 186.741L370.731 185.531C370.379 185.428 369.998 185.293 369.587 185.124C369.184 184.948 368.799 184.71 368.432 184.409C368.073 184.101 367.776 183.712 367.541 183.243C367.314 182.766 367.2 182.18 367.2 181.483C367.2 180.464 367.457 179.609 367.97 178.92C368.491 178.223 369.188 177.703 370.06 177.358C370.94 177.013 371.916 176.845 372.986 176.852C374.072 176.859 375.04 177.046 375.89 177.413C376.741 177.772 377.452 178.297 378.024 178.986C378.596 179.675 379 180.508 379.234 181.483L376.385 181.978C376.268 181.421 376.041 180.948 375.703 180.559C375.373 180.163 374.966 179.862 374.482 179.657C374.006 179.452 373.496 179.342 372.953 179.327C372.425 179.32 371.934 179.4 371.479 179.569C371.032 179.73 370.669 179.965 370.39 180.273C370.119 180.581 369.983 180.94 369.983 181.351C369.983 181.74 370.101 182.059 370.335 182.308C370.57 182.55 370.86 182.744 371.204 182.891C371.556 183.03 371.912 183.148 372.271 183.243L375.109 184.035C375.498 184.138 375.934 184.277 376.418 184.453C376.902 184.629 377.368 184.875 377.815 185.19C378.263 185.505 378.629 185.92 378.915 186.433C379.209 186.946 379.355 187.599 379.355 188.391C379.355 189.212 379.183 189.935 378.838 190.558C378.501 191.174 378.043 191.687 377.463 192.098C376.884 192.509 376.22 192.817 375.472 193.022C374.732 193.227 373.954 193.33 373.14 193.33ZM387.922 193.33C386.763 193.33 385.718 193.128 384.787 192.725C383.863 192.322 383.1 191.746 382.499 190.998C381.905 190.243 381.527 189.348 381.366 188.314L384.116 187.896C384.35 188.835 384.831 189.561 385.557 190.074C386.29 190.587 387.133 190.844 388.087 190.844C388.651 190.844 389.183 190.756 389.682 190.58C390.18 190.404 390.584 190.147 390.892 189.81C391.207 189.473 391.365 189.058 391.365 188.567C391.365 188.347 391.328 188.145 391.255 187.962C391.181 187.771 391.071 187.603 390.925 187.456C390.785 187.309 390.602 187.177 390.375 187.06C390.155 186.935 389.898 186.829 389.605 186.741L385.513 185.531C385.161 185.428 384.779 185.293 384.369 185.124C383.965 184.948 383.58 184.71 383.214 184.409C382.854 184.101 382.557 183.712 382.323 183.243C382.095 182.766 381.982 182.18 381.982 181.483C381.982 180.464 382.238 179.609 382.752 178.92C383.272 178.223 383.969 177.703 384.842 177.358C385.722 177.013 386.697 176.845 387.768 176.852C388.853 176.859 389.821 177.046 390.672 177.413C391.522 177.772 392.234 178.297 392.806 178.986C393.378 179.675 393.781 180.508 394.016 181.483L391.167 181.978C391.049 181.421 390.822 180.948 390.485 180.559C390.155 180.163 389.748 179.862 389.264 179.657C388.787 179.452 388.277 179.342 387.735 179.327C387.207 179.32 386.715 179.4 386.261 179.569C385.813 179.73 385.45 179.965 385.172 180.273C384.9 180.581 384.765 180.94 384.765 181.351C384.765 181.74 384.882 182.059 385.117 182.308C385.351 182.55 385.641 182.744 385.986 182.891C386.338 183.03 386.693 183.148 387.053 183.243L389.891 184.035C390.279 184.138 390.716 184.277 391.2 184.453C391.684 184.629 392.149 184.875 392.597 185.19C393.044 185.505 393.411 185.92 393.697 186.433C393.99 186.946 394.137 187.599 394.137 188.391C394.137 189.212 393.964 189.935 393.62 190.558C393.282 191.174 392.824 191.687 392.245 192.098C391.665 192.509 391.002 192.817 390.254 193.022C389.513 193.227 388.736 193.33 387.922 193.33ZM407.621 193.33C406.037 193.33 404.68 192.985 403.551 192.296C402.422 191.599 401.553 190.631 400.944 189.392C400.343 188.153 400.042 186.715 400.042 185.08C400.042 183.445 400.343 182.007 400.944 180.768C401.553 179.529 402.422 178.564 403.551 177.875C404.68 177.178 406.037 176.83 407.621 176.83C409.205 176.83 410.562 177.178 411.691 177.875C412.828 178.564 413.697 179.529 414.298 180.768C414.907 182.007 415.211 183.445 415.211 185.08C415.211 186.715 414.907 188.153 414.298 189.392C413.697 190.631 412.828 191.599 411.691 192.296C410.562 192.985 409.205 193.33 407.621 193.33ZM407.621 190.833C408.684 190.84 409.568 190.606 410.272 190.129C410.983 189.652 411.515 188.981 411.867 188.116C412.226 187.251 412.406 186.239 412.406 185.08C412.406 183.921 412.226 182.917 411.867 182.066C411.515 181.208 410.983 180.541 410.272 180.064C409.568 179.587 408.684 179.342 407.621 179.327C406.558 179.32 405.674 179.554 404.97 180.031C404.266 180.508 403.734 181.179 403.375 182.044C403.023 182.909 402.847 183.921 402.847 185.08C402.847 186.239 403.023 187.247 403.375 188.105C403.727 188.956 404.255 189.619 404.959 190.096C405.67 190.573 406.558 190.818 407.621 190.833ZM417.4 193V177.16H423.945C424.099 177.16 424.297 177.167 424.539 177.182C424.781 177.189 425.005 177.211 425.21 177.248C426.127 177.387 426.882 177.692 427.476 178.161C428.078 178.63 428.521 179.224 428.807 179.943C429.101 180.654 429.247 181.446 429.247 182.319C429.247 183.61 428.921 184.721 428.268 185.652C427.616 186.576 426.615 187.148 425.265 187.368L424.132 187.467H420.051V193H417.4ZM426.497 193L423.373 186.554L426.068 185.96L429.5 193H426.497ZM420.051 184.992H423.835C423.982 184.992 424.147 184.985 424.33 184.97C424.514 184.955 424.682 184.926 424.836 184.882C425.276 184.772 425.621 184.578 425.87 184.299C426.127 184.02 426.307 183.705 426.409 183.353C426.519 183.001 426.574 182.656 426.574 182.319C426.574 181.982 426.519 181.637 426.409 181.285C426.307 180.926 426.127 180.607 425.87 180.328C425.621 180.049 425.276 179.855 424.836 179.745C424.682 179.701 424.514 179.675 424.33 179.668C424.147 179.653 423.982 179.646 423.835 179.646H420.051V184.992ZM439.672 193L435.041 177.16H437.824L440.981 188.6L444.127 177.182L446.91 177.16L450.067 188.6L453.213 177.16H455.996L451.376 193H448.758L445.513 181.736L442.29 193H439.672ZM464.06 193.33C462.476 193.33 461.12 192.985 459.99 192.296C458.861 191.599 457.992 190.631 457.383 189.392C456.782 188.153 456.481 186.715 456.481 185.08C456.481 183.445 456.782 182.007 457.383 180.768C457.992 179.529 458.861 178.564 459.99 177.875C461.12 177.178 462.476 176.83 464.06 176.83C465.644 176.83 467.001 177.178 468.13 177.875C469.267 178.564 470.136 179.529 470.737 180.768C471.346 182.007 471.65 183.445 471.65 185.08C471.65 186.715 471.346 188.153 470.737 189.392C470.136 190.631 469.267 191.599 468.13 192.296C467.001 192.985 465.644 193.33 464.06 193.33ZM464.06 190.833C465.124 190.84 466.007 190.606 466.711 190.129C467.423 189.652 467.954 188.981 468.306 188.116C468.666 187.251 468.845 186.239 468.845 185.08C468.845 183.921 468.666 182.917 468.306 182.066C467.954 181.208 467.423 180.541 466.711 180.064C466.007 179.587 465.124 179.342 464.06 179.327C462.997 179.32 462.113 179.554 461.409 180.031C460.705 180.508 460.174 181.179 459.814 182.044C459.462 182.909 459.286 183.921 459.286 185.08C459.286 186.239 459.462 187.247 459.814 188.105C460.166 188.956 460.694 189.619 461.398 190.096C462.11 190.573 462.997 190.818 464.06 190.833ZM473.84 193V177.16H480.385C480.539 177.16 480.737 177.167 480.979 177.182C481.221 177.189 481.444 177.211 481.65 177.248C482.566 177.387 483.322 177.692 483.916 178.161C484.517 178.63 484.961 179.224 485.247 179.943C485.54 180.654 485.687 181.446 485.687 182.319C485.687 183.61 485.36 184.721 484.708 185.652C484.055 186.576 483.054 187.148 481.705 187.368L480.572 187.467H476.491V193H473.84ZM482.937 193L479.813 186.554L482.508 185.96L485.94 193H482.937ZM476.491 184.992H480.275C480.421 184.992 480.586 184.985 480.77 184.97C480.953 184.955 481.122 184.926 481.276 184.882C481.716 184.772 482.06 184.578 482.31 184.299C482.566 184.02 482.746 183.705 482.849 183.353C482.959 183.001 483.014 182.656 483.014 182.319C483.014 181.982 482.959 181.637 482.849 181.285C482.746 180.926 482.566 180.607 482.31 180.328C482.06 180.049 481.716 179.855 481.276 179.745C481.122 179.701 480.953 179.675 480.77 179.668C480.586 179.653 480.421 179.646 480.275 179.646H476.491V184.992ZM488.363 193V177.16H491.014V184.508L497.339 177.16H500.595L493.786 184.926L501.057 193H497.691L491.014 185.608V193H488.363ZM502.827 193V177.16H505.478V193H502.827ZM508.773 193V177.16H511.457L518.805 188.325V177.16H521.489V193H518.805L511.457 181.835V193H508.773ZM531.098 193.33C530.072 193.33 529.107 193.15 528.205 192.791C527.311 192.424 526.522 191.889 525.84 191.185C525.166 190.481 524.638 189.619 524.256 188.6C523.875 187.573 523.684 186.4 523.684 185.08C523.684 183.349 524.007 181.872 524.652 180.647C525.298 179.415 526.181 178.473 527.303 177.82C528.425 177.16 529.69 176.83 531.098 176.83C533.049 176.83 534.593 177.285 535.729 178.194C536.873 179.096 537.647 180.365 538.05 182L535.344 182.429C535.044 181.49 534.552 180.742 533.87 180.185C533.188 179.62 532.319 179.338 531.263 179.338C530.2 179.323 529.316 179.554 528.612 180.031C527.908 180.508 527.377 181.179 527.017 182.044C526.665 182.909 526.489 183.921 526.489 185.08C526.489 186.239 526.665 187.247 527.017 188.105C527.369 188.956 527.897 189.619 528.601 190.096C529.313 190.573 530.2 190.818 531.263 190.833C532.063 190.84 532.763 190.697 533.364 190.404C533.966 190.103 534.457 189.652 534.838 189.051C535.22 188.442 535.476 187.683 535.608 186.774H532.814V184.695H538.424C538.439 184.812 538.45 184.985 538.457 185.212C538.465 185.439 538.468 185.575 538.468 185.619C538.468 187.115 538.171 188.446 537.577 189.612C536.991 190.771 536.147 191.68 535.047 192.34C533.947 193 532.631 193.33 531.098 193.33ZM94.0498 224V208.16H103.587V210.811H96.7008V214.76H102.267V217.4H96.7008V224H94.0498ZM112.264 224.33C110.68 224.33 109.324 223.985 108.194 223.296C107.065 222.599 106.196 221.631 105.587 220.392C104.986 219.153 104.685 217.715 104.685 216.08C104.685 214.445 104.986 213.007 105.587 211.768C106.196 210.529 107.065 209.564 108.194 208.875C109.324 208.178 110.68 207.83 112.264 207.83C113.848 207.83 115.205 208.178 116.334 208.875C117.471 209.564 118.34 210.529 118.941 211.768C119.55 213.007 119.854 214.445 119.854 216.08C119.854 217.715 119.55 219.153 118.941 220.392C118.34 221.631 117.471 222.599 116.334 223.296C115.205 223.985 113.848 224.33 112.264 224.33ZM112.264 221.833C113.328 221.84 114.211 221.606 114.915 221.129C115.627 220.652 116.158 219.981 116.51 219.116C116.87 218.251 117.049 217.239 117.049 216.08C117.049 214.921 116.87 213.917 116.51 213.066C116.158 212.208 115.627 211.541 114.915 211.064C114.211 210.587 113.328 210.342 112.264 210.327C111.201 210.32 110.317 210.554 109.613 211.031C108.909 211.508 108.378 212.179 108.018 213.044C107.666 213.909 107.49 214.921 107.49 216.08C107.49 217.239 107.666 218.247 108.018 219.105C108.37 219.956 108.898 220.619 109.602 221.096C110.314 221.573 111.201 221.818 112.264 221.833ZM122.044 224V208.16H128.589C128.743 208.16 128.941 208.167 129.183 208.182C129.425 208.189 129.649 208.211 129.854 208.248C130.771 208.387 131.526 208.692 132.12 209.161C132.721 209.63 133.165 210.224 133.451 210.943C133.744 211.654 133.891 212.446 133.891 213.319C133.891 214.61 133.565 215.721 132.912 216.652C132.259 217.576 131.258 218.148 129.909 218.368L128.776 218.467H124.695V224H122.044ZM131.141 224L128.017 217.554L130.712 216.96L134.144 224H131.141ZM124.695 215.992H128.479C128.626 215.992 128.791 215.985 128.974 215.97C129.157 215.955 129.326 215.926 129.48 215.882C129.92 215.772 130.265 215.578 130.514 215.299C130.771 215.02 130.95 214.705 131.053 214.353C131.163 214.001 131.218 213.656 131.218 213.319C131.218 212.982 131.163 212.637 131.053 212.285C130.95 211.926 130.771 211.607 130.514 211.328C130.265 211.049 129.92 210.855 129.48 210.745C129.326 210.701 129.157 210.675 128.974 210.668C128.791 210.653 128.626 210.646 128.479 210.646H124.695V215.992ZM139.872 224L144.866 208.16H148.749L153.743 224H151.015L146.483 209.788H147.077L142.6 224H139.872ZM142.655 220.568V218.093H150.971V220.568H142.655ZM166.835 224.33C165.251 224.33 163.894 223.985 162.765 223.296C161.635 222.599 160.766 221.631 160.158 220.392C159.556 219.153 159.256 217.715 159.256 216.08C159.256 214.445 159.556 213.007 160.158 211.768C160.766 210.529 161.635 209.564 162.765 208.875C163.894 208.178 165.251 207.83 166.835 207.83C168.661 207.83 170.182 208.288 171.4 209.205C172.617 210.114 173.471 211.343 173.963 212.89L171.29 213.627C170.982 212.593 170.457 211.786 169.717 211.207C168.976 210.62 168.015 210.327 166.835 210.327C165.771 210.327 164.884 210.565 164.173 211.042C163.469 211.519 162.937 212.19 162.578 213.055C162.226 213.913 162.046 214.921 162.039 216.08C162.039 217.239 162.215 218.251 162.567 219.116C162.926 219.974 163.461 220.641 164.173 221.118C164.884 221.595 165.771 221.833 166.835 221.833C168.015 221.833 168.976 221.54 169.717 220.953C170.457 220.366 170.982 219.56 171.29 218.533L173.963 219.27C173.471 220.817 172.617 222.049 171.4 222.966C170.182 223.875 168.661 224.33 166.835 224.33ZM183.077 224.33C181.493 224.33 180.136 223.985 179.007 223.296C177.878 222.599 177.009 221.631 176.4 220.392C175.799 219.153 175.498 217.715 175.498 216.08C175.498 214.445 175.799 213.007 176.4 211.768C177.009 210.529 177.878 209.564 179.007 208.875C180.136 208.178 181.493 207.83 183.077 207.83C184.661 207.83 186.018 208.178 187.147 208.875C188.284 209.564 189.153 210.529 189.754 211.768C190.363 213.007 190.667 214.445 190.667 216.08C190.667 217.715 190.363 219.153 189.754 220.392C189.153 221.631 188.284 222.599 187.147 223.296C186.018 223.985 184.661 224.33 183.077 224.33ZM183.077 221.833C184.14 221.84 185.024 221.606 185.728 221.129C186.439 220.652 186.971 219.981 187.323 219.116C187.682 218.251 187.862 217.239 187.862 216.08C187.862 214.921 187.682 213.917 187.323 213.066C186.971 212.208 186.439 211.541 185.728 211.064C185.024 210.587 184.14 210.342 183.077 210.327C182.014 210.32 181.13 210.554 180.426 211.031C179.722 211.508 179.19 212.179 178.831 213.044C178.479 213.909 178.303 214.921 178.303 216.08C178.303 217.239 178.479 218.247 178.831 219.105C179.183 219.956 179.711 220.619 180.415 221.096C181.126 221.573 182.014 221.818 183.077 221.833ZM192.856 224V208.16H195.243L200.721 219.38L206.199 208.16H208.586V224H206.111V213.847L201.249 224H200.193L195.342 213.847V224H192.856ZM211.677 224V208.16H218.222C218.376 208.16 218.574 208.167 218.816 208.182C219.058 208.189 219.281 208.211 219.487 208.248C220.403 208.387 221.159 208.692 221.753 209.161C222.354 209.63 222.798 210.224 223.084 210.943C223.377 211.654 223.524 212.446 223.524 213.319C223.524 214.184 223.377 214.976 223.084 215.695C222.79 216.406 222.343 216.997 221.742 217.466C221.148 217.935 220.396 218.24 219.487 218.379C219.281 218.408 219.054 218.43 218.805 218.445C218.563 218.46 218.368 218.467 218.222 218.467H214.328V224H211.677ZM214.328 215.992H218.112C218.258 215.992 218.423 215.985 218.607 215.97C218.79 215.955 218.959 215.926 219.113 215.882C219.553 215.772 219.897 215.578 220.147 215.299C220.403 215.02 220.583 214.705 220.686 214.353C220.796 214.001 220.851 213.656 220.851 213.319C220.851 212.982 220.796 212.637 220.686 212.285C220.583 211.926 220.403 211.607 220.147 211.328C219.897 211.049 219.553 210.855 219.113 210.745C218.959 210.701 218.79 210.675 218.607 210.668C218.423 210.653 218.258 210.646 218.112 210.646H214.328V215.992ZM223.532 224L228.526 208.16H232.409L237.403 224H234.675L230.143 209.788H230.737L226.26 224H223.532ZM226.315 220.568V218.093H234.631V220.568H226.315ZM239.392 224V208.16H242.076L249.424 219.325V208.16H252.108V224H249.424L242.076 212.835V224H239.392ZM259.033 224V217.51L253.643 208.16H256.734L260.375 214.474L264.005 208.16H267.096L261.717 217.51V224H259.033ZM271.503 219.699C271.503 219.193 271.55 218.705 271.646 218.236C271.748 217.759 271.913 217.319 272.141 216.916C272.339 216.527 272.559 216.219 272.801 215.992C273.043 215.757 273.314 215.526 273.615 215.299C273.915 215.064 274.249 214.753 274.616 214.364C274.916 214.034 275.114 213.708 275.21 213.385C275.305 213.055 275.353 212.703 275.353 212.329C275.353 212.087 275.327 211.86 275.276 211.647C275.224 211.434 275.133 211.251 275.001 211.097C274.795 210.826 274.531 210.635 274.209 210.525C273.886 210.408 273.541 210.349 273.175 210.349C272.874 210.349 272.584 210.389 272.306 210.47C272.034 210.543 271.803 210.661 271.613 210.822C271.393 210.998 271.231 211.214 271.129 211.471C271.026 211.728 270.978 212.01 270.986 212.318H268.192C268.265 211.585 268.463 210.906 268.786 210.283C269.116 209.652 269.548 209.15 270.084 208.776C270.502 208.468 270.971 208.237 271.492 208.083C272.02 207.929 272.548 207.852 273.076 207.852C273.882 207.852 274.641 207.977 275.353 208.226C276.071 208.475 276.669 208.886 277.146 209.458C277.476 209.832 277.725 210.265 277.894 210.756C278.07 211.247 278.158 211.746 278.158 212.252C278.158 213.007 277.993 213.697 277.663 214.32C277.34 214.943 276.929 215.519 276.431 216.047C276.196 216.296 275.972 216.516 275.76 216.707C275.547 216.898 275.349 217.085 275.166 217.268C274.99 217.444 274.843 217.631 274.726 217.829C274.52 218.174 274.399 218.467 274.363 218.709C274.326 218.944 274.308 219.274 274.308 219.699H271.503ZM271.525 224V221.085H274.308V224H271.525ZM288.54 224L283.909 208.16H286.692L289.849 219.6L292.995 208.182L295.778 208.16L298.935 219.6L302.081 208.16H304.864L300.244 224H297.626L294.381 212.736L291.158 224H288.54ZM306.659 224V208.16H309.31V214.826H316.812V208.16H319.452V224H316.812V217.312H309.31V224H306.659ZM321.436 224L326.43 208.16H330.313L335.307 224H332.579L328.047 209.788H328.641L324.164 224H321.436ZM324.219 220.568V218.093H332.535V220.568H324.219ZM339.791 224V210.646H334.665V208.16H347.568V210.646H342.442V224H339.791ZM351.965 224L356.959 208.16H360.842L365.836 224H363.108L358.576 209.788H359.17L354.693 224H351.965ZM354.748 220.568V218.093H363.064V220.568H354.748ZM367.825 224V208.16H374.37C374.524 208.16 374.722 208.167 374.964 208.182C375.206 208.189 375.43 208.211 375.635 208.248C376.552 208.387 377.307 208.692 377.901 209.161C378.502 209.63 378.946 210.224 379.232 210.943C379.525 211.654 379.672 212.446 379.672 213.319C379.672 214.61 379.346 215.721 378.693 216.652C378.04 217.576 377.039 218.148 375.69 218.368L374.557 218.467H370.476V224H367.825ZM376.922 224L373.798 217.554L376.493 216.96L379.925 224H376.922ZM370.476 215.992H374.26C374.407 215.992 374.572 215.985 374.755 215.97C374.938 215.955 375.107 215.926 375.261 215.882C375.701 215.772 376.046 215.578 376.295 215.299C376.552 215.02 376.731 214.705 376.834 214.353C376.944 214.001 376.999 213.656 376.999 213.319C376.999 212.982 376.944 212.637 376.834 212.285C376.731 211.926 376.552 211.607 376.295 211.328C376.046 211.049 375.701 210.855 375.261 210.745C375.107 210.701 374.938 210.675 374.755 210.668C374.572 210.653 374.407 210.646 374.26 210.646H370.476V215.992ZM382.349 224V208.16H392.579V210.646H385V214.551H391.259V217.037H385V221.514H392.579V224H382.349ZM403.428 224V210.646H398.302V208.16H411.205V210.646H406.079V224H403.428ZM412.964 224V208.16H415.615V214.826H423.117V208.16H425.757V224H423.117V217.312H415.615V224H412.964ZM428.841 224V208.16H439.071V210.646H431.492V214.551H437.751V217.037H431.492V221.514H439.071V224H428.841ZM446.114 224V208.16H452.659C452.813 208.16 453.011 208.167 453.253 208.182C453.495 208.189 453.719 208.211 453.924 208.248C454.841 208.387 455.596 208.692 456.19 209.161C456.792 209.63 457.235 210.224 457.521 210.943C457.815 211.654 457.961 212.446 457.961 213.319C457.961 214.184 457.815 214.976 457.521 215.695C457.228 216.406 456.781 216.997 456.179 217.466C455.585 217.935 454.834 218.24 453.924 218.379C453.719 218.408 453.492 218.43 453.242 218.445C453 218.46 452.806 218.467 452.659 218.467H448.765V224H446.114ZM448.765 215.992H452.549C452.696 215.992 452.861 215.985 453.044 215.97C453.228 215.955 453.396 215.926 453.55 215.882C453.99 215.772 454.335 215.578 454.584 215.299C454.841 215.02 455.021 214.705 455.123 214.353C455.233 214.001 455.288 213.656 455.288 213.319C455.288 212.982 455.233 212.637 455.123 212.285C455.021 211.926 454.841 211.607 454.584 211.328C454.335 211.049 453.99 210.855 453.55 210.745C453.396 210.701 453.228 210.675 453.044 210.668C452.861 210.653 452.696 210.646 452.549 210.646H448.765V215.992ZM460.165 224V208.16H466.71C466.864 208.16 467.062 208.167 467.304 208.182C467.546 208.189 467.77 208.211 467.975 208.248C468.892 208.387 469.647 208.692 470.241 209.161C470.842 209.63 471.286 210.224 471.572 210.943C471.865 211.654 472.012 212.446 472.012 213.319C472.012 214.61 471.686 215.721 471.033 216.652C470.38 217.576 469.379 218.148 468.03 218.368L466.897 218.467H462.816V224H460.165ZM469.262 224L466.138 217.554L468.833 216.96L472.265 224H469.262ZM462.816 215.992H466.6C466.747 215.992 466.912 215.985 467.095 215.97C467.278 215.955 467.447 215.926 467.601 215.882C468.041 215.772 468.386 215.578 468.635 215.299C468.892 215.02 469.071 214.705 469.174 214.353C469.284 214.001 469.339 213.656 469.339 213.319C469.339 212.982 469.284 212.637 469.174 212.285C469.071 211.926 468.892 211.607 468.635 211.328C468.386 211.049 468.041 210.855 467.601 210.745C467.447 210.701 467.278 210.675 467.095 210.668C466.912 210.653 466.747 210.646 466.6 210.646H462.816V215.992ZM481.387 224.33C479.803 224.33 478.447 223.985 477.317 223.296C476.188 222.599 475.319 221.631 474.71 220.392C474.109 219.153 473.808 217.715 473.808 216.08C473.808 214.445 474.109 213.007 474.71 211.768C475.319 210.529 476.188 209.564 477.317 208.875C478.447 208.178 479.803 207.83 481.387 207.83C482.971 207.83 484.328 208.178 485.457 208.875C486.594 209.564 487.463 210.529 488.064 211.768C488.673 213.007 488.977 214.445 488.977 216.08C488.977 217.715 488.673 219.153 488.064 220.392C487.463 221.631 486.594 222.599 485.457 223.296C484.328 223.985 482.971 224.33 481.387 224.33ZM481.387 221.833C482.451 221.84 483.334 221.606 484.038 221.129C484.75 220.652 485.281 219.981 485.633 219.116C485.993 218.251 486.172 217.239 486.172 216.08C486.172 214.921 485.993 213.917 485.633 213.066C485.281 212.208 484.75 211.541 484.038 211.064C483.334 210.587 482.451 210.342 481.387 210.327C480.324 210.32 479.44 210.554 478.736 211.031C478.032 211.508 477.501 212.179 477.141 213.044C476.789 213.909 476.613 214.921 476.613 216.08C476.613 217.239 476.789 218.247 477.141 219.105C477.493 219.956 478.021 220.619 478.725 221.096C479.437 221.573 480.324 221.818 481.387 221.833ZM497.03 224.33C495.871 224.33 494.826 224.128 493.895 223.725C492.971 223.322 492.208 222.746 491.607 221.998C491.013 221.243 490.635 220.348 490.474 219.314L493.224 218.896C493.459 219.835 493.939 220.561 494.665 221.074C495.398 221.587 496.242 221.844 497.195 221.844C497.76 221.844 498.291 221.756 498.79 221.58C499.289 221.404 499.692 221.147 500 220.81C500.315 220.473 500.473 220.058 500.473 219.567C500.473 219.347 500.436 219.145 500.363 218.962C500.29 218.771 500.18 218.603 500.033 218.456C499.894 218.309 499.71 218.177 499.483 218.06C499.263 217.935 499.006 217.829 498.713 217.741L494.621 216.531C494.269 216.428 493.888 216.293 493.477 216.124C493.074 215.948 492.689 215.71 492.322 215.409C491.963 215.101 491.666 214.712 491.431 214.243C491.204 213.766 491.09 213.18 491.09 212.483C491.09 211.464 491.347 210.609 491.86 209.92C492.381 209.223 493.077 208.703 493.95 208.358C494.83 208.013 495.805 207.845 496.876 207.852C497.961 207.859 498.929 208.046 499.78 208.413C500.631 208.772 501.342 209.297 501.914 209.986C502.486 210.675 502.889 211.508 503.124 212.483L500.275 212.978C500.158 212.421 499.93 211.948 499.593 211.559C499.263 211.163 498.856 210.862 498.372 210.657C497.895 210.452 497.386 210.342 496.843 210.327C496.315 210.32 495.824 210.4 495.369 210.569C494.922 210.73 494.559 210.965 494.28 211.273C494.009 211.581 493.873 211.94 493.873 212.351C493.873 212.74 493.99 213.059 494.225 213.308C494.46 213.55 494.749 213.744 495.094 213.891C495.446 214.03 495.802 214.148 496.161 214.243L498.999 215.035C499.388 215.138 499.824 215.277 500.308 215.453C500.792 215.629 501.258 215.875 501.705 216.19C502.152 216.505 502.519 216.92 502.805 217.433C503.098 217.946 503.245 218.599 503.245 219.391C503.245 220.212 503.073 220.935 502.728 221.558C502.391 222.174 501.932 222.687 501.353 223.098C500.774 223.509 500.11 223.817 499.362 224.022C498.621 224.227 497.844 224.33 497.03 224.33ZM146.779 255L151.773 239.16H155.656L160.65 255H157.922L153.39 240.788H153.984L149.507 255H146.779ZM149.562 251.568V249.093H157.878V251.568H149.562ZM162.639 255V239.16H165.323L172.671 250.325V239.16H175.355V255H172.671L165.323 243.835V255H162.639ZM178.43 255V239.16H183.479C183.611 239.16 183.871 239.164 184.26 239.171C184.656 239.178 185.037 239.204 185.404 239.248C186.658 239.409 187.717 239.857 188.583 240.59C189.455 241.316 190.115 242.244 190.563 243.373C191.01 244.502 191.234 245.738 191.234 247.08C191.234 248.422 191.01 249.658 190.563 250.787C190.115 251.916 189.455 252.848 188.583 253.581C187.717 254.307 186.658 254.751 185.404 254.912C185.044 254.956 184.667 254.982 184.271 254.989C183.875 254.996 183.611 255 183.479 255H178.43ZM181.125 252.503H183.479C183.699 252.503 183.977 252.496 184.315 252.481C184.659 252.466 184.964 252.433 185.228 252.382C185.976 252.243 186.584 251.909 187.054 251.381C187.523 250.853 187.868 250.211 188.088 249.456C188.315 248.701 188.429 247.909 188.429 247.08C188.429 246.222 188.315 245.415 188.088 244.66C187.86 243.905 187.508 243.27 187.032 242.757C186.562 242.244 185.961 241.917 185.228 241.778C184.964 241.719 184.659 241.686 184.315 241.679C183.977 241.664 183.699 241.657 183.479 241.657H181.125V252.503ZM204.937 255.33C203.353 255.33 201.997 254.985 200.867 254.296C199.738 253.599 198.869 252.631 198.26 251.392C197.659 250.153 197.358 248.715 197.358 247.08C197.358 245.445 197.659 244.007 198.26 242.768C198.869 241.529 199.738 240.564 200.867 239.875C201.997 239.178 203.353 238.83 204.937 238.83C206.763 238.83 208.285 239.288 209.502 240.205C210.72 241.114 211.574 242.343 212.065 243.89L209.392 244.627C209.084 243.593 208.56 242.786 207.819 242.207C207.079 241.62 206.118 241.327 204.937 241.327C203.874 241.327 202.987 241.565 202.275 242.042C201.571 242.519 201.04 243.19 200.68 244.055C200.328 244.913 200.149 245.921 200.141 247.08C200.141 248.239 200.317 249.251 200.669 250.116C201.029 250.974 201.564 251.641 202.275 252.118C202.987 252.595 203.874 252.833 204.937 252.833C206.118 252.833 207.079 252.54 207.819 251.953C208.56 251.366 209.084 250.56 209.392 249.533L212.065 250.27C211.574 251.817 210.72 253.049 209.502 253.966C208.285 254.875 206.763 255.33 204.937 255.33ZM221.179 255.33C219.595 255.33 218.239 254.985 217.109 254.296C215.98 253.599 215.111 252.631 214.502 251.392C213.901 250.153 213.6 248.715 213.6 247.08C213.6 245.445 213.901 244.007 214.502 242.768C215.111 241.529 215.98 240.564 217.109 239.875C218.239 239.178 219.595 238.83 221.179 238.83C222.763 238.83 224.12 239.178 225.249 239.875C226.386 240.564 227.255 241.529 227.856 242.768C228.465 244.007 228.769 245.445 228.769 247.08C228.769 248.715 228.465 250.153 227.856 251.392C227.255 252.631 226.386 253.599 225.249 254.296C224.12 254.985 222.763 255.33 221.179 255.33ZM221.179 252.833C222.243 252.84 223.126 252.606 223.83 252.129C224.542 251.652 225.073 250.981 225.425 250.116C225.785 249.251 225.964 248.239 225.964 247.08C225.964 245.921 225.785 244.917 225.425 244.066C225.073 243.208 224.542 242.541 223.83 242.064C223.126 241.587 222.243 241.342 221.179 241.327C220.116 241.32 219.232 241.554 218.528 242.031C217.824 242.508 217.293 243.179 216.933 244.044C216.581 244.909 216.405 245.921 216.405 247.08C216.405 248.239 216.581 249.247 216.933 250.105C217.285 250.956 217.813 251.619 218.517 252.096C219.229 252.573 220.116 252.818 221.179 252.833ZM230.959 255V239.16H233.643L240.991 250.325V239.16H243.675V255H240.991L233.643 243.835V255H230.959ZM252.613 255.33C251.454 255.33 250.409 255.128 249.478 254.725C248.554 254.322 247.791 253.746 247.19 252.998C246.596 252.243 246.218 251.348 246.057 250.314L248.807 249.896C249.042 250.835 249.522 251.561 250.248 252.074C250.981 252.587 251.825 252.844 252.778 252.844C253.343 252.844 253.874 252.756 254.373 252.58C254.872 252.404 255.275 252.147 255.583 251.81C255.898 251.473 256.056 251.058 256.056 250.567C256.056 250.347 256.019 250.145 255.946 249.962C255.873 249.771 255.763 249.603 255.616 249.456C255.477 249.309 255.293 249.177 255.066 249.06C254.846 248.935 254.589 248.829 254.296 248.741L250.204 247.531C249.852 247.428 249.471 247.293 249.06 247.124C248.657 246.948 248.272 246.71 247.905 246.409C247.546 246.101 247.249 245.712 247.014 245.243C246.787 244.766 246.673 244.18 246.673 243.483C246.673 242.464 246.93 241.609 247.443 240.92C247.964 240.223 248.66 239.703 249.533 239.358C250.413 239.013 251.388 238.845 252.459 238.852C253.544 238.859 254.512 239.046 255.363 239.413C256.214 239.772 256.925 240.297 257.497 240.986C258.069 241.675 258.472 242.508 258.707 243.483L255.858 243.978C255.741 243.421 255.513 242.948 255.176 242.559C254.846 242.163 254.439 241.862 253.955 241.657C253.478 241.452 252.969 241.342 252.426 241.327C251.898 241.32 251.407 241.4 250.952 241.569C250.505 241.73 250.142 241.965 249.863 242.273C249.592 242.581 249.456 242.94 249.456 243.351C249.456 243.74 249.573 244.059 249.808 244.308C250.043 244.55 250.332 244.744 250.677 244.891C251.029 245.03 251.385 245.148 251.744 245.243L254.582 246.035C254.971 246.138 255.407 246.277 255.891 246.453C256.375 246.629 256.841 246.875 257.288 247.19C257.735 247.505 258.102 247.92 258.388 248.433C258.681 248.946 258.828 249.599 258.828 250.391C258.828 251.212 258.656 251.935 258.311 252.558C257.974 253.174 257.515 253.687 256.936 254.098C256.357 254.509 255.693 254.817 254.945 255.022C254.204 255.227 253.427 255.33 252.613 255.33ZM272.312 255.33C270.728 255.33 269.372 254.985 268.242 254.296C267.113 253.599 266.244 252.631 265.635 251.392C265.034 250.153 264.733 248.715 264.733 247.08C264.733 245.445 265.034 244.007 265.635 242.768C266.244 241.529 267.113 240.564 268.242 239.875C269.372 239.178 270.728 238.83 272.312 238.83C273.896 238.83 275.253 239.178 276.382 239.875C277.519 240.564 278.388 241.529 278.989 242.768C279.598 244.007 279.902 245.445 279.902 247.08C279.902 248.715 279.598 250.153 278.989 251.392C278.388 252.631 277.519 253.599 276.382 254.296C275.253 254.985 273.896 255.33 272.312 255.33ZM272.312 252.833C273.376 252.84 274.259 252.606 274.963 252.129C275.675 251.652 276.206 250.981 276.558 250.116C276.918 249.251 277.097 248.239 277.097 247.08C277.097 245.921 276.918 244.917 276.558 244.066C276.206 243.208 275.675 242.541 274.963 242.064C274.259 241.587 273.376 241.342 272.312 241.327C271.249 241.32 270.365 241.554 269.661 242.031C268.957 242.508 268.426 243.179 268.066 244.044C267.714 244.909 267.538 245.921 267.538 247.08C267.538 248.239 267.714 249.247 268.066 250.105C268.418 250.956 268.946 251.619 269.65 252.096C270.362 252.573 271.249 252.818 272.312 252.833ZM282.092 255V239.16H291.629V241.811H284.743V245.76H290.309V248.4H284.743V255H282.092ZM298.012 255V239.16H308.242V241.646H300.663V245.551H306.922V248.037H300.663V252.514H308.242V255H298.012ZM309.781 255L314.775 239.16H318.658L323.652 255H320.924L316.392 240.788H316.986L312.509 255H309.781ZM312.564 251.568V249.093H320.88V251.568H312.564ZM331.91 255.33C330.326 255.33 328.969 254.985 327.84 254.296C326.711 253.599 325.842 252.631 325.233 251.392C324.632 250.153 324.331 248.715 324.331 247.08C324.331 245.445 324.632 244.007 325.233 242.768C325.842 241.529 326.711 240.564 327.84 239.875C328.969 239.178 330.326 238.83 331.91 238.83C333.736 238.83 335.258 239.288 336.475 240.205C337.692 241.114 338.547 242.343 339.038 243.89L336.365 244.627C336.057 243.593 335.533 242.786 334.792 242.207C334.051 241.62 333.091 241.327 331.91 241.327C330.847 241.327 329.959 241.565 329.248 242.042C328.544 242.519 328.012 243.19 327.653 244.055C327.301 244.913 327.121 245.921 327.114 247.08C327.114 248.239 327.29 249.251 327.642 250.116C328.001 250.974 328.537 251.641 329.248 252.118C329.959 252.595 330.847 252.833 331.91 252.833C333.091 252.833 334.051 252.54 334.792 251.953C335.533 251.366 336.057 250.56 336.365 249.533L339.038 250.27C338.547 251.817 337.692 253.049 336.475 253.966C335.258 254.875 333.736 255.33 331.91 255.33ZM341.453 255V239.16H344.104V245.826H351.606V239.16H354.246V255H351.606V248.312H344.104V255H341.453ZM368.433 255.33C366.849 255.33 365.493 254.985 364.363 254.296C363.234 253.599 362.365 252.631 361.756 251.392C361.155 250.153 360.854 248.715 360.854 247.08C360.854 245.445 361.155 244.007 361.756 242.768C362.365 241.529 363.234 240.564 364.363 239.875C365.493 239.178 366.849 238.83 368.433 238.83C370.017 238.83 371.374 239.178 372.503 239.875C373.64 240.564 374.509 241.529 375.11 242.768C375.719 244.007 376.023 245.445 376.023 247.08C376.023 248.715 375.719 250.153 375.11 251.392C374.509 252.631 373.64 253.599 372.503 254.296C371.374 254.985 370.017 255.33 368.433 255.33ZM368.433 252.833C369.497 252.84 370.38 252.606 371.084 252.129C371.796 251.652 372.327 250.981 372.679 250.116C373.039 249.251 373.218 248.239 373.218 247.08C373.218 245.921 373.039 244.917 372.679 244.066C372.327 243.208 371.796 242.541 371.084 242.064C370.38 241.587 369.497 241.342 368.433 241.327C367.37 241.32 366.486 241.554 365.782 242.031C365.078 242.508 364.547 243.179 364.187 244.044C363.835 244.909 363.659 245.921 363.659 247.08C363.659 248.239 363.835 249.247 364.187 250.105C364.539 250.956 365.067 251.619 365.771 252.096C366.483 252.573 367.37 252.818 368.433 252.833ZM378.213 255V239.16H384.758C384.912 239.16 385.11 239.167 385.352 239.182C385.594 239.189 385.818 239.211 386.023 239.248C386.94 239.387 387.695 239.692 388.289 240.161C388.89 240.63 389.334 241.224 389.62 241.943C389.913 242.654 390.06 243.446 390.06 244.319C390.06 245.184 389.913 245.976 389.62 246.695C389.327 247.406 388.879 247.997 388.278 248.466C387.684 248.935 386.932 249.24 386.023 249.379C385.818 249.408 385.59 249.43 385.341 249.445C385.099 249.46 384.905 249.467 384.758 249.467H380.864V255H378.213ZM380.864 246.992H384.648C384.795 246.992 384.96 246.985 385.143 246.97C385.326 246.955 385.495 246.926 385.649 246.882C386.089 246.772 386.434 246.578 386.683 246.299C386.94 246.02 387.119 245.705 387.222 245.353C387.332 245.001 387.387 244.656 387.387 244.319C387.387 243.982 387.332 243.637 387.222 243.285C387.119 242.926 386.94 242.607 386.683 242.328C386.434 242.049 386.089 241.855 385.649 241.745C385.495 241.701 385.326 241.675 385.143 241.668C384.96 241.653 384.795 241.646 384.648 241.646H380.864V246.992ZM396.07 255V241.646H390.944V239.16H403.847V241.646H398.721V255H396.07ZM405.825 255V239.16H408.476V255H405.825ZM418.47 255.33C416.886 255.33 415.53 254.985 414.4 254.296C413.271 253.599 412.402 252.631 411.793 251.392C411.192 250.153 410.891 248.715 410.891 247.08C410.891 245.445 411.192 244.007 411.793 242.768C412.402 241.529 413.271 240.564 414.4 239.875C415.53 239.178 416.886 238.83 418.47 238.83C420.054 238.83 421.411 239.178 422.54 239.875C423.677 240.564 424.546 241.529 425.147 242.768C425.756 244.007 426.06 245.445 426.06 247.08C426.06 248.715 425.756 250.153 425.147 251.392C424.546 252.631 423.677 253.599 422.54 254.296C421.411 254.985 420.054 255.33 418.47 255.33ZM418.47 252.833C419.534 252.84 420.417 252.606 421.121 252.129C421.833 251.652 422.364 250.981 422.716 250.116C423.076 249.251 423.255 248.239 423.255 247.08C423.255 245.921 423.076 244.917 422.716 244.066C422.364 243.208 421.833 242.541 421.121 242.064C420.417 241.587 419.534 241.342 418.47 241.327C417.407 241.32 416.523 241.554 415.819 242.031C415.115 242.508 414.584 243.179 414.224 244.044C413.872 244.909 413.696 245.921 413.696 247.08C413.696 248.239 413.872 249.247 414.224 250.105C414.576 250.956 415.104 251.619 415.808 252.096C416.52 252.573 417.407 252.818 418.47 252.833ZM428.25 255V239.16H430.934L438.282 250.325V239.16H440.966V255H438.282L430.934 243.835V255H428.25ZM446.912 250.699C446.912 250.193 446.96 249.705 447.055 249.236C447.158 248.759 447.323 248.319 447.55 247.916C447.748 247.527 447.968 247.219 448.21 246.992C448.452 246.757 448.723 246.526 449.024 246.299C449.325 246.064 449.658 245.753 450.025 245.364C450.326 245.034 450.524 244.708 450.619 244.385C450.714 244.055 450.762 243.703 450.762 243.329C450.762 243.087 450.736 242.86 450.685 242.647C450.634 242.434 450.542 242.251 450.41 242.097C450.205 241.826 449.941 241.635 449.618 241.525C449.295 241.408 448.951 241.349 448.584 241.349C448.283 241.349 447.994 241.389 447.715 241.47C447.444 241.543 447.213 241.661 447.022 241.822C446.802 241.998 446.641 242.214 446.538 242.471C446.435 242.728 446.388 243.01 446.395 243.318H443.601C443.674 242.585 443.872 241.906 444.195 241.283C444.525 240.652 444.958 240.15 445.493 239.776C445.911 239.468 446.38 239.237 446.901 239.083C447.429 238.929 447.957 238.852 448.485 238.852C449.292 238.852 450.051 238.977 450.762 239.226C451.481 239.475 452.078 239.886 452.555 240.458C452.885 240.832 453.134 241.265 453.303 241.756C453.479 242.247 453.567 242.746 453.567 243.252C453.567 244.007 453.402 244.697 453.072 245.32C452.749 245.943 452.339 246.519 451.84 247.047C451.605 247.296 451.382 247.516 451.169 247.707C450.956 247.898 450.758 248.085 450.575 248.268C450.399 248.444 450.252 248.631 450.135 248.829C449.93 249.174 449.809 249.467 449.772 249.709C449.735 249.944 449.717 250.274 449.717 250.699H446.912ZM446.934 255V252.085H449.717V255H446.934Z" fill="white"></path><rect x="20" y="20" width="163" height="40" rx="20" fill="white" fill-opacity="0.3"></rect><path d="M33.245 46V34.48H37.733C38.421 34.48 39.0077 34.6213 39.493 34.904C39.9837 35.1867 40.357 35.56 40.613 36.024C40.8743 36.4827 41.005 36.9787 41.005 37.512C41.005 38.136 40.845 38.6827 40.525 39.152C40.205 39.6213 39.773 39.944 39.229 40.12L39.213 39.728C39.9543 39.9253 40.5303 40.288 40.941 40.816C41.3517 41.344 41.557 41.9733 41.557 42.704C41.557 43.376 41.4183 43.9573 41.141 44.448C40.869 44.9387 40.4743 45.32 39.957 45.592C39.445 45.864 38.837 46 38.133 46H33.245ZM34.685 44.64H37.861C38.2877 44.64 38.669 44.5627 39.005 44.408C39.341 44.248 39.605 44.024 39.797 43.736C39.9943 43.448 40.093 43.1013 40.093 42.696C40.093 42.3067 40.005 41.9573 39.829 41.648C39.6583 41.3387 39.4157 41.0933 39.101 40.912C38.7917 40.7253 38.4317 40.632 38.021 40.632H34.685V44.64ZM34.685 39.288H37.717C38.0583 39.288 38.365 39.216 38.637 39.072C38.9143 38.9227 39.133 38.7147 39.293 38.448C39.4583 38.1813 39.541 37.8693 39.541 37.512C39.541 37.016 39.373 36.6107 39.037 36.296C38.701 35.9813 38.261 35.824 37.717 35.824H34.685V39.288ZM47.6953 46.24C46.8046 46.24 46.0179 46.056 45.3353 45.688C44.6526 45.32 44.1166 44.8053 43.7273 44.144C43.3433 43.4773 43.1513 42.696 43.1513 41.8V34.488L44.5913 34.48V41.68C44.5913 42.224 44.6819 42.6987 44.8633 43.104C45.0499 43.504 45.2953 43.8373 45.5993 44.104C45.9033 44.3707 46.2366 44.5707 46.5993 44.704C46.9673 44.832 47.3326 44.896 47.6953 44.896C48.0633 44.896 48.4313 44.8293 48.7993 44.696C49.1673 44.5627 49.5006 44.3653 49.7993 44.104C50.1033 43.8373 50.3459 43.5013 50.5273 43.096C50.7086 42.6907 50.7993 42.2187 50.7993 41.68V34.48H52.2393V41.8C52.2393 42.6907 52.0446 43.4693 51.6553 44.136C51.2713 44.8027 50.7379 45.32 50.0553 45.688C49.3726 46.056 48.5859 46.24 47.6953 46.24ZM58.083 46.24C57.267 46.24 56.531 46.1013 55.875 45.824C55.2243 45.5467 54.6857 45.152 54.259 44.64C53.8377 44.1227 53.563 43.512 53.435 42.808L54.907 42.576C55.0937 43.3013 55.4803 43.8693 56.067 44.28C56.659 44.6853 57.355 44.888 58.155 44.888C58.6723 44.888 59.139 44.808 59.555 44.648C59.9763 44.4827 60.3097 44.248 60.555 43.944C60.8003 43.64 60.923 43.28 60.923 42.864C60.923 42.608 60.8777 42.3893 60.787 42.208C60.7017 42.0213 60.5817 41.864 60.427 41.736C60.2777 41.6027 60.107 41.4907 59.915 41.4C59.723 41.3093 59.523 41.2347 59.315 41.176L56.379 40.304C56.059 40.208 55.7497 40.088 55.451 39.944C55.1523 39.7947 54.8857 39.6107 54.651 39.392C54.4163 39.168 54.2297 38.9013 54.091 38.592C53.9523 38.2773 53.883 37.9067 53.883 37.48C53.883 36.7973 54.059 36.216 54.411 35.736C54.7683 35.2507 55.251 34.88 55.859 34.624C56.467 34.368 57.1523 34.2427 57.915 34.248C58.6883 34.2533 59.379 34.392 59.987 34.664C60.6003 34.9307 61.107 35.3147 61.507 35.816C61.9123 36.3173 62.1843 36.9173 62.323 37.616L60.811 37.88C60.731 37.4107 60.5523 37.008 60.275 36.672C60.003 36.3307 59.6617 36.0693 59.251 35.888C58.8403 35.7013 58.3897 35.6053 57.899 35.6C57.4297 35.5947 57.0057 35.6693 56.627 35.824C56.2483 35.9787 55.947 36.1947 55.723 36.472C55.499 36.744 55.387 37.0587 55.387 37.416C55.387 37.768 55.4883 38.0533 55.691 38.272C55.8937 38.4853 56.1417 38.656 56.435 38.784C56.7337 38.9067 57.0243 39.008 57.307 39.088L59.499 39.72C59.7497 39.7893 60.0377 39.8853 60.363 40.008C60.6937 40.1307 61.0137 40.304 61.323 40.528C61.6323 40.7467 61.8883 41.04 62.091 41.408C62.2937 41.7707 62.395 42.2293 62.395 42.784C62.395 43.3387 62.283 43.832 62.059 44.264C61.8403 44.696 61.5337 45.0587 61.139 45.352C60.7443 45.64 60.2857 45.8587 59.763 46.008C59.2403 46.1627 58.6803 46.24 58.083 46.24ZM64.2331 46V34.48H65.6571V46H64.2331ZM68.0575 46V34.48H69.4975L75.5055 43.48V34.48H76.9455V46H75.5055L69.4975 36.992V46H68.0575ZM79.1825 46V34.48H86.4625V35.832H80.6065V39.44H85.5025V40.792H80.6065V44.648H86.4625V46H79.1825ZM92.1455 46.24C91.3295 46.24 90.5935 46.1013 89.9375 45.824C89.2868 45.5467 88.7482 45.152 88.3215 44.64C87.9002 44.1227 87.6255 43.512 87.4975 42.808L88.9695 42.576C89.1562 43.3013 89.5428 43.8693 90.1295 44.28C90.7215 44.6853 91.4175 44.888 92.2175 44.888C92.7348 44.888 93.2015 44.808 93.6175 44.648C94.0388 44.4827 94.3722 44.248 94.6175 43.944C94.8628 43.64 94.9855 43.28 94.9855 42.864C94.9855 42.608 94.9402 42.3893 94.8495 42.208C94.7642 42.0213 94.6442 41.864 94.4895 41.736C94.3402 41.6027 94.1695 41.4907 93.9775 41.4C93.7855 41.3093 93.5855 41.2347 93.3775 41.176L90.4415 40.304C90.1215 40.208 89.8122 40.088 89.5135 39.944C89.2148 39.7947 88.9482 39.6107 88.7135 39.392C88.4788 39.168 88.2922 38.9013 88.1535 38.592C88.0148 38.2773 87.9455 37.9067 87.9455 37.48C87.9455 36.7973 88.1215 36.216 88.4735 35.736C88.8308 35.2507 89.3135 34.88 89.9215 34.624C90.5295 34.368 91.2148 34.2427 91.9775 34.248C92.7508 34.2533 93.4415 34.392 94.0495 34.664C94.6628 34.9307 95.1695 35.3147 95.5695 35.816C95.9748 36.3173 96.2468 36.9173 96.3855 37.616L94.8735 37.88C94.7935 37.4107 94.6148 37.008 94.3375 36.672C94.0655 36.3307 93.7242 36.0693 93.3135 35.888C92.9028 35.7013 92.4522 35.6053 91.9615 35.6C91.4922 35.5947 91.0682 35.6693 90.6895 35.824C90.3108 35.9787 90.0095 36.1947 89.7855 36.472C89.5615 36.744 89.4495 37.0587 89.4495 37.416C89.4495 37.768 89.5508 38.0533 89.7535 38.272C89.9562 38.4853 90.2042 38.656 90.4975 38.784C90.7962 38.9067 91.0868 39.008 91.3695 39.088L93.5615 39.72C93.8122 39.7893 94.1002 39.8853 94.4255 40.008C94.7562 40.1307 95.0762 40.304 95.3855 40.528C95.6948 40.7467 95.9508 41.04 96.1535 41.408C96.3562 41.7707 96.4575 42.2293 96.4575 42.784C96.4575 43.3387 96.3455 43.832 96.1215 44.264C95.9028 44.696 95.5962 45.0587 95.2015 45.352C94.8068 45.64 94.3482 45.8587 93.8255 46.008C93.3028 46.1627 92.7428 46.24 92.1455 46.24ZM102.458 46.24C101.642 46.24 100.906 46.1013 100.25 45.824C99.5993 45.5467 99.0607 45.152 98.634 44.64C98.2127 44.1227 97.938 43.512 97.81 42.808L99.282 42.576C99.4687 43.3013 99.8553 43.8693 100.442 44.28C101.034 44.6853 101.73 44.888 102.53 44.888C103.047 44.888 103.514 44.808 103.93 44.648C104.351 44.4827 104.685 44.248 104.93 43.944C105.175 43.64 105.298 43.28 105.298 42.864C105.298 42.608 105.253 42.3893 105.162 42.208C105.077 42.0213 104.957 41.864 104.802 41.736C104.653 41.6027 104.482 41.4907 104.29 41.4C104.098 41.3093 103.898 41.2347 103.69 41.176L100.754 40.304C100.434 40.208 100.125 40.088 99.826 39.944C99.5273 39.7947 99.2607 39.6107 99.026 39.392C98.7913 39.168 98.6047 38.9013 98.466 38.592C98.3273 38.2773 98.258 37.9067 98.258 37.48C98.258 36.7973 98.434 36.216 98.786 35.736C99.1433 35.2507 99.626 34.88 100.234 34.624C100.842 34.368 101.527 34.2427 102.29 34.248C103.063 34.2533 103.754 34.392 104.362 34.664C104.975 34.9307 105.482 35.3147 105.882 35.816C106.287 36.3173 106.559 36.9173 106.698 37.616L105.186 37.88C105.106 37.4107 104.927 37.008 104.65 36.672C104.378 36.3307 104.037 36.0693 103.626 35.888C103.215 35.7013 102.765 35.6053 102.274 35.6C101.805 35.5947 101.381 35.6693 101.002 35.824C100.623 35.9787 100.322 36.1947 100.098 36.472C99.874 36.744 99.762 37.0587 99.762 37.416C99.762 37.768 99.8633 38.0533 100.066 38.272C100.269 38.4853 100.517 38.656 100.81 38.784C101.109 38.9067 101.399 39.008 101.682 39.088L103.874 39.72C104.125 39.7893 104.413 39.8853 104.738 40.008C105.069 40.1307 105.389 40.304 105.698 40.528C106.007 40.7467 106.263 41.04 106.466 41.408C106.669 41.7707 106.77 42.2293 106.77 42.784C106.77 43.3387 106.658 43.832 106.434 44.264C106.215 44.696 105.909 45.0587 105.514 45.352C105.119 45.64 104.661 45.8587 104.138 46.008C103.615 46.1627 103.055 46.24 102.458 46.24ZM115.395 46.24C114.755 46.24 114.158 46.1467 113.603 45.96C113.049 45.7733 112.585 45.48 112.211 45.08C111.923 44.76 111.707 44.408 111.563 44.024C111.425 43.6347 111.347 43.224 111.331 42.792C111.331 42.3707 111.393 41.96 111.515 41.56C111.638 41.1547 111.833 40.7947 112.099 40.48C112.238 40.3093 112.393 40.1653 112.563 40.048C112.739 39.9253 112.915 39.8213 113.091 39.736C112.723 39.3413 112.441 38.9707 112.243 38.624C112.051 38.2773 111.955 37.8587 111.955 37.368C111.955 36.744 112.115 36.1813 112.435 35.68C112.761 35.1733 113.203 34.8027 113.763 34.568C114.035 34.4507 114.313 34.3707 114.595 34.328C114.883 34.28 115.163 34.256 115.435 34.256C115.894 34.256 116.339 34.32 116.771 34.448C117.203 34.576 117.571 34.784 117.875 35.072C118.078 35.2427 118.251 35.44 118.395 35.664C118.539 35.8827 118.651 36.112 118.731 36.352L117.339 36.712C117.238 36.44 117.07 36.2107 116.835 36.024C116.649 35.864 116.43 35.7547 116.179 35.696C115.934 35.6373 115.686 35.608 115.435 35.608C115.019 35.608 114.643 35.688 114.307 35.848C114.009 35.992 113.785 36.1947 113.635 36.456C113.486 36.712 113.411 37.016 113.411 37.368C113.411 37.672 113.462 37.9227 113.563 38.12C113.67 38.312 113.817 38.5173 114.003 38.736C114.115 38.8533 114.241 38.9787 114.379 39.112C114.523 39.24 114.67 39.3733 114.819 39.512L118.211 42.664C118.227 42.5307 118.238 42.3947 118.243 42.256C118.249 42.1173 118.251 41.984 118.251 41.856L118.243 40.264H119.547V42.136C119.547 42.5147 119.534 42.8373 119.507 43.104C119.486 43.3707 119.449 43.592 119.395 43.768L120.859 45.12L119.931 46.112L118.715 44.96C118.507 45.1947 118.259 45.4 117.971 45.576C117.683 45.752 117.395 45.8853 117.107 45.976C116.835 46.0773 116.555 46.1467 116.267 46.184C115.979 46.2213 115.689 46.24 115.395 46.24ZM115.427 44.872C115.689 44.872 115.926 44.856 116.139 44.824C116.353 44.792 116.555 44.7307 116.747 44.64C117.003 44.5173 117.201 44.4 117.339 44.288C117.478 44.176 117.593 44.072 117.683 43.976L114.171 40.76C113.979 40.824 113.798 40.9093 113.627 41.016C113.462 41.1227 113.318 41.248 113.195 41.392C113.057 41.5627 112.953 41.7627 112.883 41.992C112.819 42.2213 112.787 42.464 112.787 42.72C112.793 42.992 112.838 43.2427 112.923 43.472C113.009 43.7013 113.129 43.9067 113.283 44.088C113.518 44.36 113.835 44.56 114.235 44.688C114.635 44.8107 115.033 44.872 115.427 44.872ZM127.826 46L124.49 34.48H125.978L128.538 43.592L131.09 34.488L132.586 34.48L135.146 43.592L137.698 34.48H139.194L135.858 46H134.434L131.842 36.968L129.25 46H127.826ZM144.981 46.24C143.834 46.24 142.861 45.9867 142.061 45.48C141.261 44.9733 140.65 44.2693 140.229 43.368C139.813 42.4667 139.605 41.424 139.605 40.24C139.605 39.056 139.813 38.0133 140.229 37.112C140.65 36.2107 141.261 35.5067 142.061 35C142.861 34.4933 143.834 34.24 144.981 34.24C146.133 34.24 147.109 34.4933 147.909 35C148.709 35.5067 149.317 36.2107 149.733 37.112C150.149 38.0133 150.357 39.056 150.357 40.24C150.357 41.424 150.149 42.4667 149.733 43.368C149.317 44.2693 148.709 44.9733 147.909 45.48C147.109 45.9867 146.133 46.24 144.981 46.24ZM144.981 44.88C145.84 44.8853 146.554 44.6933 147.125 44.304C147.701 43.9093 148.13 43.3627 148.413 42.664C148.701 41.9653 148.845 41.1573 148.845 40.24C148.845 39.3173 148.701 38.5093 148.413 37.816C148.13 37.1227 147.701 36.5813 147.125 36.192C146.554 35.8027 145.84 35.6053 144.981 35.6C144.122 35.5947 143.408 35.7867 142.837 36.176C142.272 36.5653 141.845 37.1093 141.557 37.808C141.269 38.5067 141.122 39.3173 141.117 40.24C141.112 41.1573 141.253 41.9627 141.541 42.656C141.829 43.3493 142.258 43.8933 142.829 44.288C143.405 44.6773 144.122 44.8747 144.981 44.88ZM151.964 46V34.48H156.516C156.628 34.48 156.761 34.4853 156.916 34.496C157.07 34.5013 157.22 34.5173 157.364 34.544C157.988 34.64 158.51 34.8533 158.932 35.184C159.358 35.5147 159.678 35.9333 159.892 36.44C160.105 36.9413 160.212 37.4987 160.212 38.112C160.212 39.0027 159.98 39.776 159.516 40.432C159.052 41.0827 158.372 41.4907 157.476 41.656L156.932 41.744H153.388V46H151.964ZM158.82 46L156.548 41.312L157.956 40.88L160.452 46H158.82ZM153.388 40.392H156.468C156.569 40.392 156.684 40.3867 156.812 40.376C156.945 40.3653 157.07 40.3467 157.188 40.32C157.556 40.2347 157.854 40.08 158.084 39.856C158.318 39.6267 158.489 39.36 158.596 39.056C158.702 38.7467 158.756 38.432 158.756 38.112C158.756 37.792 158.702 37.48 158.596 37.176C158.489 36.8667 158.318 36.5973 158.084 36.368C157.854 36.1387 157.556 35.984 157.188 35.904C157.07 35.872 156.945 35.8533 156.812 35.848C156.684 35.8373 156.569 35.832 156.468 35.832H153.388V40.392ZM162.214 46V34.48H163.638V39.888L168.678 34.48H170.47L165.238 40.072L170.878 46H169.038L163.638 40.368V46H162.214Z" fill="white"></path><defs><linearGradient id="paint0_linear_160_183" x1="300" y1="0" x2="300" y2="400" gradientUnits="userSpaceOnUse"><stop stop-color="#41295A"></stop><stop offset="1" stop-color="#2F0743"></stop></linearGradient></defs></svg> 