<?xml version="1.0" encoding="UTF-8"?> <svg xmlns="http://www.w3.org/2000/svg" width="600" height="775" viewBox="0 0 600 775" fill="none"> <rect width="600" height="775" rx="20" fill="#F9F9F9"></rect> <path d="M129.614 73L122.457 48.52H126.758L131.637 66.2L136.499 48.554L140.8 48.52L145.679 66.2L150.541 48.52H154.842L147.702 73H143.656L138.641 55.592L133.66 73H129.614ZM167.305 73.51C164.857 73.51 162.761 72.9773 161.015 71.912C159.27 70.8353 157.927 69.3393 156.986 67.424C156.057 65.5087 155.592 63.2873 155.592 60.76C155.592 58.2327 156.057 56.0113 156.986 54.096C157.927 52.1807 159.27 50.6903 161.015 49.625C162.761 48.5483 164.857 48.01 167.305 48.01C169.753 48.01 171.85 48.5483 173.595 49.625C175.352 50.6903 176.695 52.1807 177.624 54.096C178.565 56.0113 179.035 58.2327 179.035 60.76C179.035 63.2873 178.565 65.5087 177.624 67.424C176.695 69.3393 175.352 70.8353 173.595 71.912C171.85 72.9773 169.753 73.51 167.305 73.51ZM167.305 69.651C168.949 69.6623 170.314 69.2997 171.402 68.563C172.502 67.8263 173.323 66.7893 173.867 65.452C174.423 64.1147 174.7 62.5507 174.7 60.76C174.7 58.9693 174.423 57.4167 173.867 56.102C173.323 54.776 172.502 53.7447 171.402 53.008C170.314 52.2713 168.949 51.8917 167.305 51.869C165.662 51.8577 164.296 52.2203 163.208 52.957C162.12 53.6937 161.299 54.7307 160.743 56.068C160.199 57.4053 159.927 58.9693 159.927 60.76C159.927 62.5507 160.199 64.109 160.743 65.435C161.287 66.7497 162.103 67.7753 163.191 68.512C164.291 69.2487 165.662 69.6283 167.305 69.651ZM192.279 73.51C190.33 73.51 188.613 73.1133 187.128 72.32C185.655 71.5267 184.499 70.4103 183.66 68.971C182.833 67.5317 182.419 65.843 182.419 63.905V48.554L186.567 48.52V63.803C186.567 64.721 186.72 65.5427 187.026 66.268C187.343 66.9933 187.768 67.611 188.301 68.121C188.834 68.6197 189.446 68.9993 190.137 69.26C190.828 69.5207 191.542 69.651 192.279 69.651C193.038 69.651 193.758 69.5207 194.438 69.26C195.129 68.988 195.741 68.6027 196.274 68.104C196.807 67.594 197.226 66.9763 197.532 66.251C197.838 65.5257 197.991 64.7097 197.991 63.803V48.52H202.139V63.905C202.139 65.843 201.72 67.5317 200.881 68.971C200.054 70.4103 198.898 71.5267 197.413 72.32C195.94 73.1133 194.228 73.51 192.279 73.51ZM207.23 73V48.52H211.327V69.158H222.139V73H207.23ZM225.019 73V48.52H232.822C233.026 48.52 233.428 48.5257 234.029 48.537C234.641 48.5483 235.23 48.588 235.797 48.656C237.735 48.9053 239.372 49.5967 240.71 50.73C242.058 51.852 243.078 53.2857 243.77 55.031C244.461 56.7763 244.807 58.686 244.807 60.76C244.807 62.834 244.461 64.7437 243.77 66.489C243.078 68.2343 242.058 69.6737 240.71 70.807C239.372 71.929 237.735 72.6147 235.797 72.864C235.241 72.932 234.658 72.9717 234.046 72.983C233.434 72.9943 233.026 73 232.822 73H225.019ZM229.184 69.141H232.822C233.162 69.141 233.592 69.1297 234.114 69.107C234.646 69.0843 235.117 69.0333 235.525 68.954C236.681 68.7387 237.621 68.223 238.347 67.407C239.072 66.591 239.605 65.5993 239.945 64.432C240.296 63.2647 240.472 62.0407 240.472 60.76C240.472 59.434 240.296 58.1873 239.945 57.02C239.593 55.8527 239.049 54.8723 238.313 54.079C237.587 53.2857 236.658 52.7813 235.525 52.566C235.117 52.4753 234.646 52.4243 234.114 52.413C233.592 52.3903 233.162 52.379 232.822 52.379H229.184V69.141ZM261.582 73V62.97L253.252 48.52H258.029L263.656 58.278L269.266 48.52H274.043L265.73 62.97V73H261.582ZM285.409 73.51C282.961 73.51 280.864 72.9773 279.119 71.912C277.373 70.8353 276.03 69.3393 275.09 67.424C274.16 65.5087 273.696 63.2873 273.696 60.76C273.696 58.2327 274.16 56.0113 275.09 54.096C276.03 52.1807 277.373 50.6903 279.119 49.625C280.864 48.5483 282.961 48.01 285.409 48.01C287.857 48.01 289.953 48.5483 291.699 49.625C293.455 50.6903 294.798 52.1807 295.728 54.096C296.668 56.0113 297.139 58.2327 297.139 60.76C297.139 63.2873 296.668 65.5087 295.728 67.424C294.798 69.3393 293.455 70.8353 291.699 71.912C289.953 72.9773 287.857 73.51 285.409 73.51ZM285.409 69.651C287.052 69.6623 288.418 69.2997 289.506 68.563C290.605 67.8263 291.427 66.7893 291.971 65.452C292.526 64.1147 292.804 62.5507 292.804 60.76C292.804 58.9693 292.526 57.4167 291.971 56.102C291.427 54.776 290.605 53.7447 289.506 53.008C288.418 52.2713 287.052 51.8917 285.409 51.869C283.765 51.8577 282.4 52.2203 281.312 52.957C280.224 53.6937 279.402 54.7307 278.847 56.068C278.303 57.4053 278.031 58.9693 278.031 60.76C278.031 62.5507 278.303 64.109 278.847 65.435C279.391 66.7497 280.207 67.7753 281.295 68.512C282.394 69.2487 283.765 69.6283 285.409 69.651ZM310.383 73.51C308.433 73.51 306.716 73.1133 305.232 72.32C303.758 71.5267 302.602 70.4103 301.764 68.971C300.936 67.5317 300.523 65.843 300.523 63.905V48.554L304.671 48.52V63.803C304.671 64.721 304.824 65.5427 305.13 66.268C305.447 66.9933 305.872 67.611 306.405 68.121C306.937 68.6197 307.549 68.9993 308.241 69.26C308.932 69.5207 309.646 69.651 310.383 69.651C311.142 69.651 311.862 69.5207 312.542 69.26C313.233 68.988 313.845 68.6027 314.378 68.104C314.91 67.594 315.33 66.9763 315.636 66.251C315.942 65.5257 316.095 64.7097 316.095 63.803V48.52H320.243V63.905C320.243 65.843 319.823 67.5317 318.985 68.971C318.157 70.4103 317.001 71.5267 315.517 72.32C314.043 73.1133 312.332 73.51 310.383 73.51ZM331.8 73V48.52H341.915C342.153 48.52 342.459 48.5313 342.833 48.554C343.207 48.5653 343.553 48.5993 343.87 48.656C345.287 48.8713 346.454 49.3417 347.372 50.067C348.301 50.7923 348.987 51.7103 349.429 52.821C349.882 53.9203 350.109 55.1443 350.109 56.493C350.109 58.4877 349.605 60.2047 348.596 61.644C347.587 63.072 346.04 63.956 343.955 64.296L342.204 64.449H335.897V73H331.8ZM345.859 73L341.031 63.038L345.196 62.12L350.5 73H345.859ZM335.897 60.624H341.745C341.972 60.624 342.227 60.6127 342.51 60.59C342.793 60.5673 343.054 60.522 343.292 60.454C343.972 60.284 344.505 59.9837 344.89 59.553C345.287 59.1223 345.564 58.635 345.723 58.091C345.893 57.547 345.978 57.0143 345.978 56.493C345.978 55.9717 345.893 55.439 345.723 54.895C345.564 54.3397 345.287 53.8467 344.89 53.416C344.505 52.9853 343.972 52.685 343.292 52.515C343.054 52.447 342.793 52.4073 342.51 52.396C342.227 52.3733 341.972 52.362 341.745 52.362H335.897V60.624ZM352.545 73L360.263 48.52H366.264L373.982 73H369.766L362.762 51.036H363.68L356.761 73H352.545ZM356.846 67.696V63.871H369.698V67.696H356.846ZM380.912 73V52.362H372.99V48.52H392.931V52.362H385.009V73H380.912ZM395.65 73V48.52H399.747V58.822H411.341V48.52H415.421V73H411.341V62.664H399.747V73H395.65ZM420.187 73V48.52H435.997V52.362H424.284V58.397H433.957V62.239H424.284V69.158H435.997V73H420.187ZM440.075 73V48.52H450.19C450.428 48.52 450.734 48.5313 451.108 48.554C451.482 48.5653 451.828 48.5993 452.145 48.656C453.562 48.8713 454.729 49.3417 455.647 50.067C456.577 50.7923 457.262 51.7103 457.704 52.821C458.158 53.9203 458.384 55.1443 458.384 56.493C458.384 58.4877 457.88 60.2047 456.871 61.644C455.863 63.072 454.316 63.956 452.23 64.296L450.479 64.449H444.172V73H440.075ZM454.134 73L449.306 63.038L453.471 62.12L458.775 73H454.134ZM444.172 60.624H450.02C450.247 60.624 450.502 60.6127 450.785 60.59C451.069 60.5673 451.329 60.522 451.567 60.454C452.247 60.284 452.78 59.9837 453.165 59.553C453.562 59.1223 453.84 58.635 453.998 58.091C454.168 57.547 454.253 57.0143 454.253 56.493C454.253 55.9717 454.168 55.439 453.998 54.895C453.84 54.3397 453.562 53.8467 453.165 53.416C452.78 52.9853 452.247 52.685 451.567 52.515C451.329 52.447 451.069 52.4073 450.785 52.396C450.502 52.3733 450.247 52.362 450.02 52.362H444.172V60.624ZM466.958 66.353C466.958 65.571 467.031 64.8173 467.179 64.092C467.337 63.3553 467.592 62.6753 467.944 62.052C468.25 61.4513 468.59 60.9753 468.964 60.624C469.338 60.2613 469.757 59.9043 470.222 59.553C470.686 59.1903 471.202 58.7087 471.769 58.108C472.233 57.598 472.539 57.0937 472.687 56.595C472.834 56.085 472.908 55.541 472.908 54.963C472.908 54.589 472.868 54.2377 472.789 53.909C472.709 53.5803 472.568 53.297 472.364 53.059C472.046 52.6397 471.638 52.345 471.14 52.175C470.641 51.9937 470.108 51.903 469.542 51.903C469.077 51.903 468.629 51.9653 468.199 52.09C467.779 52.2033 467.422 52.3847 467.128 52.634C466.788 52.906 466.538 53.2403 466.38 53.637C466.221 54.0337 466.147 54.47 466.159 54.946H461.841C461.954 53.8127 462.26 52.7643 462.759 51.801C463.269 50.8263 463.937 50.05 464.765 49.472C465.411 48.996 466.136 48.639 466.941 48.401C467.757 48.163 468.573 48.044 469.389 48.044C470.635 48.044 471.808 48.2367 472.908 48.622C474.018 49.0073 474.942 49.642 475.679 50.526C476.189 51.104 476.574 51.7727 476.835 52.532C477.107 53.2913 477.243 54.062 477.243 54.844C477.243 56.0113 476.988 57.0767 476.478 58.04C475.979 59.0033 475.344 59.893 474.574 60.709C474.211 61.0943 473.865 61.4343 473.537 61.729C473.208 62.0237 472.902 62.3127 472.619 62.596C472.347 62.868 472.12 63.157 471.939 63.463C471.621 63.9957 471.434 64.449 471.378 64.823C471.321 65.1857 471.293 65.6957 471.293 66.353H466.958ZM466.992 73V68.495H471.293V73H466.992Z" fill="#3E1BC9"></path> <rect y="120" width="600" height="300" rx="20" fill="#3E1BC9"></rect> <path d="M150.674 281V260.84H154.048V277.836H162.952V281H150.674ZM173.302 281.42C171.286 281.42 169.56 280.981 168.122 280.104C166.685 279.217 165.579 277.985 164.804 276.408C164.039 274.831 163.656 273.001 163.656 270.92C163.656 268.839 164.039 267.009 164.804 265.432C165.579 263.855 166.685 262.627 168.122 261.75C169.56 260.863 171.286 260.42 173.302 260.42C175.318 260.42 177.045 260.863 178.482 261.75C179.929 262.627 181.035 263.855 181.8 265.432C182.575 267.009 182.962 268.839 182.962 270.92C182.962 273.001 182.575 274.831 181.8 276.408C181.035 277.985 179.929 279.217 178.482 280.104C177.045 280.981 175.318 281.42 173.302 281.42ZM173.302 278.242C174.656 278.251 175.78 277.953 176.676 277.346C177.582 276.739 178.258 275.885 178.706 274.784C179.164 273.683 179.392 272.395 179.392 270.92C179.392 269.445 179.164 268.167 178.706 267.084C178.258 265.992 177.582 265.143 176.676 264.536C175.78 263.929 174.656 263.617 173.302 263.598C171.949 263.589 170.824 263.887 169.928 264.494C169.032 265.101 168.356 265.955 167.898 267.056C167.45 268.157 167.226 269.445 167.226 270.92C167.226 272.395 167.45 273.678 167.898 274.77C168.346 275.853 169.018 276.697 169.914 277.304C170.82 277.911 171.949 278.223 173.302 278.242ZM193.211 281.42C191.736 281.42 190.406 281.163 189.221 280.65C188.045 280.137 187.074 279.404 186.309 278.452C185.553 277.491 185.072 276.352 184.867 275.036L188.367 274.504C188.666 275.699 189.277 276.623 190.201 277.276C191.134 277.929 192.208 278.256 193.421 278.256C194.14 278.256 194.816 278.144 195.451 277.92C196.086 277.696 196.599 277.369 196.991 276.94C197.392 276.511 197.593 275.983 197.593 275.358C197.593 275.078 197.546 274.821 197.453 274.588C197.36 274.345 197.22 274.131 197.033 273.944C196.856 273.757 196.622 273.589 196.333 273.44C196.053 273.281 195.726 273.146 195.353 273.034L190.145 271.494C189.697 271.363 189.212 271.191 188.689 270.976C188.176 270.752 187.686 270.449 187.219 270.066C186.762 269.674 186.384 269.179 186.085 268.582C185.796 267.975 185.651 267.229 185.651 266.342C185.651 265.045 185.978 263.957 186.631 263.08C187.294 262.193 188.18 261.531 189.291 261.092C190.411 260.653 191.652 260.439 193.015 260.448C194.396 260.457 195.628 260.695 196.711 261.162C197.794 261.619 198.699 262.287 199.427 263.164C200.155 264.041 200.668 265.101 200.967 266.342L197.341 266.972C197.192 266.263 196.902 265.661 196.473 265.166C196.053 264.662 195.535 264.279 194.919 264.018C194.312 263.757 193.664 263.617 192.973 263.598C192.301 263.589 191.676 263.691 191.097 263.906C190.528 264.111 190.066 264.41 189.711 264.802C189.366 265.194 189.193 265.651 189.193 266.174C189.193 266.669 189.342 267.075 189.641 267.392C189.94 267.7 190.308 267.947 190.747 268.134C191.195 268.311 191.648 268.461 192.105 268.582L195.717 269.59C196.212 269.721 196.767 269.898 197.383 270.122C197.999 270.346 198.592 270.659 199.161 271.06C199.73 271.461 200.197 271.989 200.561 272.642C200.934 273.295 201.121 274.126 201.121 275.134C201.121 276.179 200.902 277.099 200.463 277.892C200.034 278.676 199.45 279.329 198.713 279.852C197.976 280.375 197.131 280.767 196.179 281.028C195.236 281.289 194.247 281.42 193.211 281.42ZM204.151 281V260.84H217.171V264.004H207.525V268.974H215.491V272.138H207.525V277.836H217.171V281H204.151ZM231.036 281V272.74L224.176 260.84H228.11L232.744 268.876L237.364 260.84H241.298L234.452 272.74V281H231.036ZM250.658 281.42C248.642 281.42 246.915 280.981 245.478 280.104C244.041 279.217 242.935 277.985 242.16 276.408C241.395 274.831 241.012 273.001 241.012 270.92C241.012 268.839 241.395 267.009 242.16 265.432C242.935 263.855 244.041 262.627 245.478 261.75C246.915 260.863 248.642 260.42 250.658 260.42C252.674 260.42 254.401 260.863 255.838 261.75C257.285 262.627 258.391 263.855 259.156 265.432C259.931 267.009 260.318 268.839 260.318 270.92C260.318 273.001 259.931 274.831 259.156 276.408C258.391 277.985 257.285 279.217 255.838 280.104C254.401 280.981 252.674 281.42 250.658 281.42ZM250.658 278.242C252.011 278.251 253.136 277.953 254.032 277.346C254.937 276.739 255.614 275.885 256.062 274.784C256.519 273.683 256.748 272.395 256.748 270.92C256.748 269.445 256.519 268.167 256.062 267.084C255.614 265.992 254.937 265.143 254.032 264.536C253.136 263.929 252.011 263.617 250.658 263.598C249.305 263.589 248.18 263.887 247.284 264.494C246.388 265.101 245.711 265.955 245.254 267.056C244.806 268.157 244.582 269.445 244.582 270.92C244.582 272.395 244.806 273.678 245.254 274.77C245.702 275.853 246.374 276.697 247.27 277.304C248.175 277.911 249.305 278.223 250.658 278.242ZM271.225 281.42C269.619 281.42 268.205 281.093 266.983 280.44C265.769 279.787 264.817 278.867 264.127 277.682C263.445 276.497 263.105 275.106 263.105 273.51V260.868L266.521 260.84V273.426C266.521 274.182 266.647 274.859 266.899 275.456C267.16 276.053 267.51 276.562 267.949 276.982C268.387 277.393 268.891 277.705 269.461 277.92C270.03 278.135 270.618 278.242 271.225 278.242C271.85 278.242 272.443 278.135 273.003 277.92C273.572 277.696 274.076 277.379 274.515 276.968C274.953 276.548 275.299 276.039 275.551 275.442C275.803 274.845 275.929 274.173 275.929 273.426V260.84H279.345V273.51C279.345 275.106 278.999 276.497 278.309 277.682C277.627 278.867 276.675 279.787 275.453 280.44C274.239 281.093 272.83 281.42 271.225 281.42ZM283.257 281V260.84H291.587C291.783 260.84 292.035 260.849 292.343 260.868C292.651 260.877 292.936 260.905 293.197 260.952C294.364 261.129 295.325 261.517 296.081 262.114C296.846 262.711 297.411 263.467 297.775 264.382C298.148 265.287 298.335 266.295 298.335 267.406C298.335 269.049 297.92 270.463 297.089 271.648C296.258 272.824 294.984 273.552 293.267 273.832L291.825 273.958H286.631V281H283.257ZM294.835 281L290.859 272.796L294.289 272.04L298.657 281H294.835ZM286.631 270.808H291.447C291.634 270.808 291.844 270.799 292.077 270.78C292.31 270.761 292.525 270.724 292.721 270.668C293.281 270.528 293.72 270.281 294.037 269.926C294.364 269.571 294.592 269.17 294.723 268.722C294.863 268.274 294.933 267.835 294.933 267.406C294.933 266.977 294.863 266.538 294.723 266.09C294.592 265.633 294.364 265.227 294.037 264.872C293.72 264.517 293.281 264.27 292.721 264.13C292.525 264.074 292.31 264.041 292.077 264.032C291.844 264.013 291.634 264.004 291.447 264.004H286.631V270.808ZM307.347 281V260.84H310.385L317.357 275.12L324.329 260.84H327.367V281H324.217V268.078L318.029 281H316.685L310.511 268.078V281H307.347ZM331.3 281V260.84H344.32V264.004H334.674V268.974H342.64V272.138H334.674V277.836H344.32V281H331.3ZM347.679 281V260.84H350.717L357.689 275.12L364.661 260.84H367.699V281H364.549V268.078L358.361 281H357.017L350.843 268.078V281H347.679ZM380.158 281.42C378.142 281.42 376.415 280.981 374.978 280.104C373.541 279.217 372.435 277.985 371.66 276.408C370.895 274.831 370.512 273.001 370.512 270.92C370.512 268.839 370.895 267.009 371.66 265.432C372.435 263.855 373.541 262.627 374.978 261.75C376.415 260.863 378.142 260.42 380.158 260.42C382.174 260.42 383.901 260.863 385.338 261.75C386.785 262.627 387.891 263.855 388.656 265.432C389.431 267.009 389.818 268.839 389.818 270.92C389.818 273.001 389.431 274.831 388.656 276.408C387.891 277.985 386.785 279.217 385.338 280.104C383.901 280.981 382.174 281.42 380.158 281.42ZM380.158 278.242C381.511 278.251 382.636 277.953 383.532 277.346C384.437 276.739 385.114 275.885 385.562 274.784C386.019 273.683 386.248 272.395 386.248 270.92C386.248 269.445 386.019 268.167 385.562 267.084C385.114 265.992 384.437 265.143 383.532 264.536C382.636 263.929 381.511 263.617 380.158 263.598C378.805 263.589 377.68 263.887 376.784 264.494C375.888 265.101 375.211 265.955 374.754 267.056C374.306 268.157 374.082 269.445 374.082 270.92C374.082 272.395 374.306 273.678 374.754 274.77C375.202 275.853 375.874 276.697 376.77 277.304C377.675 277.911 378.805 278.223 380.158 278.242ZM392.605 281V260.84H400.935C401.131 260.84 401.383 260.849 401.691 260.868C401.999 260.877 402.283 260.905 402.545 260.952C403.711 261.129 404.673 261.517 405.429 262.114C406.194 262.711 406.759 263.467 407.123 264.382C407.496 265.287 407.683 266.295 407.683 267.406C407.683 269.049 407.267 270.463 406.437 271.648C405.606 272.824 404.332 273.552 402.615 273.832L401.173 273.958H395.979V281H392.605ZM404.183 281L400.207 272.796L403.637 272.04L408.005 281H404.183ZM395.979 270.808H400.795C400.981 270.808 401.191 270.799 401.425 270.78C401.658 270.761 401.873 270.724 402.069 270.668C402.629 270.528 403.067 270.281 403.385 269.926C403.711 269.571 403.94 269.17 404.071 268.722C404.211 268.274 404.281 267.835 404.281 267.406C404.281 266.977 404.211 266.538 404.071 266.09C403.94 265.633 403.711 265.227 403.385 264.872C403.067 264.517 402.629 264.27 402.069 264.13C401.873 264.074 401.658 264.041 401.425 264.032C401.191 264.013 400.981 264.004 400.795 264.004H395.979V270.808ZM411.369 281V260.84H414.743V281H411.369ZM418.937 281V260.84H431.957V264.004H422.311V268.974H430.277V272.138H422.311V277.836H431.957V281H418.937ZM442.586 281.42C441.111 281.42 439.781 281.163 438.596 280.65C437.42 280.137 436.449 279.404 435.684 278.452C434.928 277.491 434.447 276.352 434.242 275.036L437.742 274.504C438.041 275.699 438.652 276.623 439.576 277.276C440.509 277.929 441.583 278.256 442.796 278.256C443.515 278.256 444.191 278.144 444.826 277.92C445.461 277.696 445.974 277.369 446.366 276.94C446.767 276.511 446.968 275.983 446.968 275.358C446.968 275.078 446.921 274.821 446.828 274.588C446.735 274.345 446.595 274.131 446.408 273.944C446.231 273.757 445.997 273.589 445.708 273.44C445.428 273.281 445.101 273.146 444.728 273.034L439.52 271.494C439.072 271.363 438.587 271.191 438.064 270.976C437.551 270.752 437.061 270.449 436.594 270.066C436.137 269.674 435.759 269.179 435.46 268.582C435.171 267.975 435.026 267.229 435.026 266.342C435.026 265.045 435.353 263.957 436.006 263.08C436.669 262.193 437.555 261.531 438.666 261.092C439.786 260.653 441.027 260.439 442.39 260.448C443.771 260.457 445.003 260.695 446.086 261.162C447.169 261.619 448.074 262.287 448.802 263.164C449.53 264.041 450.043 265.101 450.342 266.342L446.716 266.972C446.567 266.263 446.277 265.661 445.848 265.166C445.428 264.662 444.91 264.279 444.294 264.018C443.687 263.757 443.039 263.617 442.348 263.598C441.676 263.589 441.051 263.691 440.472 263.906C439.903 264.111 439.441 264.41 439.086 264.802C438.741 265.194 438.568 265.651 438.568 266.174C438.568 266.669 438.717 267.075 439.016 267.392C439.315 267.7 439.683 267.947 440.122 268.134C440.57 268.311 441.023 268.461 441.48 268.582L445.092 269.59C445.587 269.721 446.142 269.898 446.758 270.122C447.374 270.346 447.967 270.659 448.536 271.06C449.105 271.461 449.572 271.989 449.936 272.642C450.309 273.295 450.496 274.126 450.496 275.134C450.496 276.179 450.277 277.099 449.838 277.892C449.409 278.676 448.825 279.329 448.088 279.852C447.351 280.375 446.506 280.767 445.554 281.028C444.611 281.289 443.622 281.42 442.586 281.42Z" fill="white"></path> <rect y="475" width="600" height="300" rx="20" fill="#FC8F58"></rect> <path d="M84.812 597L91.168 576.84H96.11L102.466 597H98.994L93.226 578.912H93.982L88.284 597H84.812ZM88.354 592.632V589.482H98.938V592.632H88.354ZM105.277 597V576.84H108.651V593.836H117.555V597H105.277ZM121.941 597L116.047 576.84H119.589L123.607 591.4L127.611 576.868L131.153 576.84L135.171 591.4L139.175 576.84H142.717L136.837 597H133.505L129.375 582.664L125.273 597H121.941ZM141.632 597L147.988 576.84H152.93L159.286 597H155.814L150.046 578.912H150.802L145.104 597H141.632ZM145.174 592.632V589.482H155.758V592.632H145.174ZM165.049 597V588.74L158.189 576.84H162.123L166.757 584.876L171.377 576.84H175.311L168.465 588.74V597H165.049ZM183.881 597.42C182.406 597.42 181.076 597.163 179.891 596.65C178.715 596.137 177.744 595.404 176.979 594.452C176.223 593.491 175.742 592.352 175.537 591.036L179.037 590.504C179.336 591.699 179.947 592.623 180.871 593.276C181.804 593.929 182.878 594.256 184.091 594.256C184.81 594.256 185.486 594.144 186.121 593.92C186.756 593.696 187.269 593.369 187.661 592.94C188.062 592.511 188.263 591.983 188.263 591.358C188.263 591.078 188.216 590.821 188.123 590.588C188.03 590.345 187.89 590.131 187.703 589.944C187.526 589.757 187.292 589.589 187.003 589.44C186.723 589.281 186.396 589.146 186.023 589.034L180.815 587.494C180.367 587.363 179.882 587.191 179.359 586.976C178.846 586.752 178.356 586.449 177.889 586.066C177.432 585.674 177.054 585.179 176.755 584.582C176.466 583.975 176.321 583.229 176.321 582.342C176.321 581.045 176.648 579.957 177.301 579.08C177.964 578.193 178.85 577.531 179.961 577.092C181.081 576.653 182.322 576.439 183.685 576.448C185.066 576.457 186.298 576.695 187.381 577.162C188.464 577.619 189.369 578.287 190.097 579.164C190.825 580.041 191.338 581.101 191.637 582.342L188.011 582.972C187.862 582.263 187.572 581.661 187.143 581.166C186.723 580.662 186.205 580.279 185.589 580.018C184.982 579.757 184.334 579.617 183.643 579.598C182.971 579.589 182.346 579.691 181.767 579.906C181.198 580.111 180.736 580.41 180.381 580.802C180.036 581.194 179.863 581.651 179.863 582.174C179.863 582.669 180.012 583.075 180.311 583.392C180.61 583.7 180.978 583.947 181.417 584.134C181.865 584.311 182.318 584.461 182.775 584.582L186.387 585.59C186.882 585.721 187.437 585.898 188.053 586.122C188.669 586.346 189.262 586.659 189.831 587.06C190.4 587.461 190.867 587.989 191.231 588.642C191.604 589.295 191.791 590.126 191.791 591.134C191.791 592.179 191.572 593.099 191.133 593.892C190.704 594.676 190.12 595.329 189.383 595.852C188.646 596.375 187.801 596.767 186.849 597.028C185.906 597.289 184.917 597.42 183.881 597.42ZM200.427 597V576.84H203.801V586.192L211.851 576.84H215.995L207.329 586.724L216.583 597H212.299L203.801 587.592V597H200.427ZM218.556 597V576.84H221.972L231.324 591.05V576.84H234.74V597H231.324L221.972 582.79V597H218.556ZM247.179 597.42C245.163 597.42 243.437 596.981 241.999 596.104C240.562 595.217 239.456 593.985 238.681 592.408C237.916 590.831 237.533 589.001 237.533 586.92C237.533 584.839 237.916 583.009 238.681 581.432C239.456 579.855 240.562 578.627 241.999 577.75C243.437 576.863 245.163 576.42 247.179 576.42C249.195 576.42 250.922 576.863 252.359 577.75C253.806 578.627 254.912 579.855 255.677 581.432C256.452 583.009 256.839 584.839 256.839 586.92C256.839 589.001 256.452 590.831 255.677 592.408C254.912 593.985 253.806 595.217 252.359 596.104C250.922 596.981 249.195 597.42 247.179 597.42ZM247.179 594.242C248.533 594.251 249.657 593.953 250.553 593.346C251.459 592.739 252.135 591.885 252.583 590.784C253.041 589.683 253.269 588.395 253.269 586.92C253.269 585.445 253.041 584.167 252.583 583.084C252.135 581.992 251.459 581.143 250.553 580.536C249.657 579.929 248.533 579.617 247.179 579.598C245.826 579.589 244.701 579.887 243.805 580.494C242.909 581.101 242.233 581.955 241.775 583.056C241.327 584.157 241.103 585.445 241.103 586.92C241.103 588.395 241.327 589.678 241.775 590.77C242.223 591.853 242.895 592.697 243.791 593.304C244.697 593.911 245.826 594.223 247.179 594.242ZM263.034 597L257.14 576.84H260.682L264.7 591.4L268.704 576.868L272.246 576.84L276.264 591.4L280.268 576.84H283.81L277.93 597H274.598L270.468 582.664L266.366 597H263.034ZM299.162 597.42C297.688 597.42 296.358 597.163 295.172 596.65C293.996 596.137 293.026 595.404 292.26 594.452C291.504 593.491 291.024 592.352 290.818 591.036L294.318 590.504C294.617 591.699 295.228 592.623 296.152 593.276C297.086 593.929 298.159 594.256 299.372 594.256C300.091 594.256 300.768 594.144 301.402 593.92C302.037 593.696 302.55 593.369 302.942 592.94C303.344 592.511 303.544 591.983 303.544 591.358C303.544 591.078 303.498 590.821 303.404 590.588C303.311 590.345 303.171 590.131 302.984 589.944C302.807 589.757 302.574 589.589 302.284 589.44C302.004 589.281 301.678 589.146 301.304 589.034L296.096 587.494C295.648 587.363 295.163 587.191 294.64 586.976C294.127 586.752 293.637 586.449 293.17 586.066C292.713 585.674 292.335 585.179 292.036 584.582C291.747 583.975 291.602 583.229 291.602 582.342C291.602 581.045 291.929 579.957 292.582 579.08C293.245 578.193 294.132 577.531 295.242 577.092C296.362 576.653 297.604 576.439 298.966 576.448C300.348 576.457 301.58 576.695 302.662 577.162C303.745 577.619 304.65 578.287 305.378 579.164C306.106 580.041 306.62 581.101 306.918 582.342L303.292 582.972C303.143 582.263 302.854 581.661 302.424 581.166C302.004 580.662 301.486 580.279 300.87 580.018C300.264 579.757 299.615 579.617 298.924 579.598C298.252 579.589 297.627 579.691 297.048 579.906C296.479 580.111 296.017 580.41 295.662 580.802C295.317 581.194 295.144 581.651 295.144 582.174C295.144 582.669 295.294 583.075 295.592 583.392C295.891 583.7 296.26 583.947 296.698 584.134C297.146 584.311 297.599 584.461 298.056 584.582L301.668 585.59C302.163 585.721 302.718 585.898 303.334 586.122C303.95 586.346 304.543 586.659 305.112 587.06C305.682 587.461 306.148 587.989 306.512 588.642C306.886 589.295 307.072 590.126 307.072 591.134C307.072 592.179 306.853 593.099 306.414 593.892C305.985 594.676 305.402 595.329 304.664 595.852C303.927 596.375 303.082 596.767 302.13 597.028C301.188 597.289 300.198 597.42 299.162 597.42ZM318.629 597.42C316.613 597.42 314.886 596.981 313.449 596.104C312.011 595.217 310.905 593.985 310.131 592.408C309.365 590.831 308.983 589.001 308.983 586.92C308.983 584.839 309.365 583.009 310.131 581.432C310.905 579.855 312.011 578.627 313.449 577.75C314.886 576.863 316.613 576.42 318.629 576.42C320.645 576.42 322.371 576.863 323.809 577.75C325.255 578.627 326.361 579.855 327.127 581.432C327.901 583.009 328.289 584.839 328.289 586.92C328.289 589.001 327.901 590.831 327.127 592.408C326.361 593.985 325.255 595.217 323.809 596.104C322.371 596.981 320.645 597.42 318.629 597.42ZM318.629 594.242C319.982 594.251 321.107 593.953 322.003 593.346C322.908 592.739 323.585 591.885 324.033 590.784C324.49 589.683 324.719 588.395 324.719 586.92C324.719 585.445 324.49 584.167 324.033 583.084C323.585 581.992 322.908 581.143 322.003 580.536C321.107 579.929 319.982 579.617 318.629 579.598C317.275 579.589 316.151 579.887 315.255 580.494C314.359 581.101 313.682 581.955 313.225 583.056C312.777 584.157 312.553 585.445 312.553 586.92C312.553 588.395 312.777 589.678 313.225 590.77C313.673 591.853 314.345 592.697 315.241 593.304C316.146 593.911 317.275 594.223 318.629 594.242ZM331.075 597V576.84H334.113L341.085 591.12L348.057 576.84H351.095V597H347.945V584.078L341.757 597H340.413L334.239 584.078V597H331.075ZM355.028 597V576.84H368.048V580.004H358.402V584.974H366.368V588.138H358.402V593.836H368.048V597H355.028ZM376.251 597V580.004H369.727V576.84H386.149V580.004H379.625V597H376.251ZM388.388 597V576.84H391.762V585.324H401.31V576.84H404.67V597H401.31V588.488H391.762V597H388.388ZM408.875 597V576.84H412.249V597H408.875ZM416.442 597V576.84H419.858L429.21 591.05V576.84H432.626V597H429.21L419.858 582.79V597H416.442ZM444.856 597.42C443.549 597.42 442.322 597.191 441.174 596.734C440.035 596.267 439.032 595.586 438.164 594.69C437.305 593.794 436.633 592.697 436.148 591.4C435.663 590.093 435.42 588.6 435.42 586.92C435.42 584.717 435.831 582.837 436.652 581.278C437.473 579.71 438.598 578.511 440.026 577.68C441.454 576.84 443.064 576.42 444.856 576.42C447.339 576.42 449.303 576.999 450.75 578.156C452.206 579.304 453.191 580.919 453.704 583L450.26 583.546C449.877 582.351 449.252 581.399 448.384 580.69C447.516 579.971 446.41 579.612 445.066 579.612C443.713 579.593 442.588 579.887 441.692 580.494C440.796 581.101 440.119 581.955 439.662 583.056C439.214 584.157 438.99 585.445 438.99 586.92C438.99 588.395 439.214 589.678 439.662 590.77C440.11 591.853 440.782 592.697 441.678 593.304C442.583 593.911 443.713 594.223 445.066 594.242C446.083 594.251 446.975 594.069 447.74 593.696C448.505 593.313 449.131 592.739 449.616 591.974C450.101 591.199 450.428 590.233 450.596 589.076H447.04V586.43H454.18C454.199 586.579 454.213 586.799 454.222 587.088C454.231 587.377 454.236 587.55 454.236 587.606C454.236 589.51 453.858 591.204 453.102 592.688C452.355 594.163 451.282 595.32 449.882 596.16C448.482 597 446.807 597.42 444.856 597.42ZM462.653 597V576.84H470.647C472.01 576.84 473.125 577.115 473.993 577.666C474.871 578.207 475.519 578.903 475.939 579.752C476.369 580.601 476.583 581.479 476.583 582.384C476.583 583.495 476.317 584.437 475.785 585.212C475.263 585.987 474.549 586.509 473.643 586.78V586.08C474.913 586.369 475.874 586.971 476.527 587.886C477.19 588.801 477.521 589.841 477.521 591.008C477.521 592.203 477.293 593.248 476.835 594.144C476.378 595.04 475.697 595.74 474.791 596.244C473.895 596.748 472.785 597 471.459 597H462.653ZM466.069 593.822H471.039C471.627 593.822 472.155 593.705 472.621 593.472C473.088 593.229 473.452 592.893 473.713 592.464C473.984 592.025 474.119 591.507 474.119 590.91C474.119 590.369 474.003 589.883 473.769 589.454C473.536 589.025 473.195 588.684 472.747 588.432C472.299 588.171 471.763 588.04 471.137 588.04H466.069V593.822ZM466.069 584.89H470.605C471.091 584.89 471.525 584.797 471.907 584.61C472.29 584.423 472.593 584.148 472.817 583.784C473.041 583.42 473.153 582.972 473.153 582.44C473.153 581.74 472.929 581.157 472.481 580.69C472.033 580.223 471.408 579.99 470.605 579.99H466.069V584.89ZM478.917 597L485.273 576.84H490.215L496.571 597H493.099L487.331 578.912H488.087L482.389 597H478.917ZM482.459 592.632V589.482H493.043V592.632H482.459ZM499.103 597V576.84H505.529C505.697 576.84 506.028 576.845 506.523 576.854C507.027 576.863 507.512 576.896 507.979 576.952C509.575 577.157 510.923 577.727 512.025 578.66C513.135 579.584 513.975 580.765 514.545 582.202C515.114 583.639 515.399 585.212 515.399 586.92C515.399 588.628 515.114 590.201 514.545 591.638C513.975 593.075 513.135 594.261 512.025 595.194C510.923 596.118 509.575 596.683 507.979 596.888C507.521 596.944 507.041 596.977 506.537 596.986C506.033 596.995 505.697 597 505.529 597H499.103ZM502.533 593.822H505.529C505.809 593.822 506.163 593.813 506.593 593.794C507.031 593.775 507.419 593.733 507.755 593.668C508.707 593.491 509.481 593.066 510.079 592.394C510.676 591.722 511.115 590.905 511.395 589.944C511.684 588.983 511.829 587.975 511.829 586.92C511.829 585.828 511.684 584.801 511.395 583.84C511.105 582.879 510.657 582.071 510.051 581.418C509.453 580.765 508.688 580.349 507.755 580.172C507.419 580.097 507.031 580.055 506.593 580.046C506.163 580.027 505.809 580.018 505.529 580.018H502.533V593.822ZM110.274 636V615.84H113.648V624.324H123.196V615.84H126.556V636H123.196V627.488H113.648V636H110.274ZM129.081 636L135.437 615.84H140.379L146.735 636H143.263L137.495 617.912H138.251L132.553 636H129.081ZM132.623 631.632V628.482H143.207V631.632H132.623ZM149.267 636V615.84H157.597C157.793 615.84 158.045 615.849 158.353 615.868C158.661 615.877 158.945 615.905 159.207 615.952C160.373 616.129 161.335 616.517 162.091 617.114C162.856 617.711 163.421 618.467 163.785 619.382C164.158 620.287 164.345 621.295 164.345 622.406C164.345 623.507 164.158 624.515 163.785 625.43C163.411 626.335 162.842 627.087 162.077 627.684C161.321 628.281 160.364 628.669 159.207 628.846C158.945 628.883 158.656 628.911 158.339 628.93C158.031 628.949 157.783 628.958 157.597 628.958H152.641V636H149.267ZM152.641 625.808H157.457C157.643 625.808 157.853 625.799 158.087 625.78C158.32 625.761 158.535 625.724 158.731 625.668C159.291 625.528 159.729 625.281 160.047 624.926C160.373 624.571 160.602 624.17 160.733 623.722C160.873 623.274 160.943 622.835 160.943 622.406C160.943 621.977 160.873 621.538 160.733 621.09C160.602 620.633 160.373 620.227 160.047 619.872C159.729 619.517 159.291 619.27 158.731 619.13C158.535 619.074 158.32 619.041 158.087 619.032C157.853 619.013 157.643 619.004 157.457 619.004H152.641V625.808ZM167.149 636V615.84H175.479C175.675 615.84 175.927 615.849 176.235 615.868C176.543 615.877 176.828 615.905 177.089 615.952C178.256 616.129 179.217 616.517 179.973 617.114C180.739 617.711 181.303 618.467 181.667 619.382C182.041 620.287 182.227 621.295 182.227 622.406C182.227 623.507 182.041 624.515 181.667 625.43C181.294 626.335 180.725 627.087 179.959 627.684C179.203 628.281 178.247 628.669 177.089 628.846C176.828 628.883 176.539 628.911 176.221 628.93C175.913 628.949 175.666 628.958 175.479 628.958H170.523V636H167.149ZM170.523 625.808H175.339C175.526 625.808 175.736 625.799 175.969 625.78C176.203 625.761 176.417 625.724 176.613 625.668C177.173 625.528 177.612 625.281 177.929 624.926C178.256 624.571 178.485 624.17 178.615 623.722C178.755 623.274 178.825 622.835 178.825 622.406C178.825 621.977 178.755 621.538 178.615 621.09C178.485 620.633 178.256 620.227 177.929 619.872C177.612 619.517 177.173 619.27 176.613 619.13C176.417 619.074 176.203 619.041 175.969 619.032C175.736 619.013 175.526 619.004 175.339 619.004H170.523V625.808ZM185.032 636V615.84H198.052V619.004H188.406V623.974H196.372V627.138H188.406V632.836H198.052V636H185.032ZM201.411 636V615.84H204.827L214.179 630.05V615.84H217.595V636H214.179L204.827 621.79V636H201.411ZM228.971 636.42C227.496 636.42 226.166 636.163 224.981 635.65C223.805 635.137 222.834 634.404 222.069 633.452C221.313 632.491 220.832 631.352 220.627 630.036L224.127 629.504C224.425 630.699 225.037 631.623 225.961 632.276C226.894 632.929 227.967 633.256 229.181 633.256C229.899 633.256 230.576 633.144 231.211 632.92C231.845 632.696 232.359 632.369 232.751 631.94C233.152 631.511 233.353 630.983 233.353 630.358C233.353 630.078 233.306 629.821 233.213 629.588C233.119 629.345 232.979 629.131 232.793 628.944C232.615 628.757 232.382 628.589 232.093 628.44C231.813 628.281 231.486 628.146 231.113 628.034L225.905 626.494C225.457 626.363 224.971 626.191 224.449 625.976C223.935 625.752 223.445 625.449 222.979 625.066C222.521 624.674 222.143 624.179 221.845 623.582C221.555 622.975 221.411 622.229 221.411 621.342C221.411 620.045 221.737 618.957 222.391 618.08C223.053 617.193 223.94 616.531 225.051 616.092C226.171 615.653 227.412 615.439 228.775 615.448C230.156 615.457 231.388 615.695 232.471 616.162C233.553 616.619 234.459 617.287 235.187 618.164C235.915 619.041 236.428 620.101 236.727 621.342L233.101 621.972C232.951 621.263 232.662 620.661 232.233 620.166C231.813 619.662 231.295 619.279 230.679 619.018C230.072 618.757 229.423 618.617 228.733 618.598C228.061 618.589 227.435 618.691 226.857 618.906C226.287 619.111 225.825 619.41 225.471 619.802C225.125 620.194 224.953 620.651 224.953 621.174C224.953 621.669 225.102 622.075 225.401 622.392C225.699 622.7 226.068 622.947 226.507 623.134C226.955 623.311 227.407 623.461 227.865 623.582L231.477 624.59C231.971 624.721 232.527 624.898 233.143 625.122C233.759 625.346 234.351 625.659 234.921 626.06C235.49 626.461 235.957 626.989 236.321 627.642C236.694 628.295 236.881 629.126 236.881 630.134C236.881 631.179 236.661 632.099 236.223 632.892C235.793 633.676 235.21 634.329 234.473 634.852C233.735 635.375 232.891 635.767 231.939 636.028C230.996 636.289 230.007 636.42 228.971 636.42ZM252.979 636.42C251.504 636.42 250.174 636.163 248.989 635.65C247.813 635.137 246.842 634.404 246.077 633.452C245.321 632.491 244.84 631.352 244.635 630.036L248.135 629.504C248.433 630.699 249.045 631.623 249.969 632.276C250.902 632.929 251.975 633.256 253.189 633.256C253.907 633.256 254.584 633.144 255.219 632.92C255.853 632.696 256.367 632.369 256.759 631.94C257.16 631.511 257.361 630.983 257.361 630.358C257.361 630.078 257.314 629.821 257.221 629.588C257.127 629.345 256.987 629.131 256.801 628.944C256.623 628.757 256.39 628.589 256.101 628.44C255.821 628.281 255.494 628.146 255.121 628.034L249.913 626.494C249.465 626.363 248.979 626.191 248.457 625.976C247.943 625.752 247.453 625.449 246.987 625.066C246.529 624.674 246.151 624.179 245.853 623.582C245.563 622.975 245.419 622.229 245.419 621.342C245.419 620.045 245.745 618.957 246.399 618.08C247.061 617.193 247.948 616.531 249.059 616.092C250.179 615.653 251.42 615.439 252.783 615.448C254.164 615.457 255.396 615.695 256.479 616.162C257.561 616.619 258.467 617.287 259.195 618.164C259.923 619.041 260.436 620.101 260.735 621.342L257.109 621.972C256.959 621.263 256.67 620.661 256.241 620.166C255.821 619.662 255.303 619.279 254.687 619.018C254.08 618.757 253.431 618.617 252.741 618.598C252.069 618.589 251.443 618.691 250.865 618.906C250.295 619.111 249.833 619.41 249.479 619.802C249.133 620.194 248.961 620.651 248.961 621.174C248.961 621.669 249.11 622.075 249.409 622.392C249.707 622.7 250.076 622.947 250.515 623.134C250.963 623.311 251.415 623.461 251.873 623.582L255.485 624.59C255.979 624.721 256.535 624.898 257.151 625.122C257.767 625.346 258.359 625.659 258.929 626.06C259.498 626.461 259.965 626.989 260.329 627.642C260.702 628.295 260.889 629.126 260.889 630.134C260.889 631.179 260.669 632.099 260.231 632.892C259.801 633.676 259.218 634.329 258.481 634.852C257.743 635.375 256.899 635.767 255.947 636.028C255.004 636.289 254.015 636.42 252.979 636.42ZM263.919 636V615.84H276.939V619.004H267.293V623.974H275.259V627.138H267.293V632.836H276.939V636H263.919ZM284.834 636L278.478 615.84H281.95L287.27 632.724L292.66 615.84H296.132L289.776 636H284.834ZM298.235 636V615.84H311.255V619.004H301.609V623.974H309.575V627.138H301.609V632.836H311.255V636H298.235ZM314.614 636V615.84H322.944C323.14 615.84 323.392 615.849 323.7 615.868C324.008 615.877 324.293 615.905 324.554 615.952C325.721 616.129 326.682 616.517 327.438 617.114C328.204 617.711 328.768 618.467 329.132 619.382C329.506 620.287 329.692 621.295 329.692 622.406C329.692 624.049 329.277 625.463 328.446 626.648C327.616 627.824 326.342 628.552 324.624 628.832L323.182 628.958H317.988V636H314.614ZM326.192 636L322.216 627.796L325.646 627.04L330.014 636H326.192ZM317.988 625.808H322.804C322.991 625.808 323.201 625.799 323.434 625.78C323.668 625.761 323.882 625.724 324.078 625.668C324.638 625.528 325.077 625.281 325.394 624.926C325.721 624.571 325.95 624.17 326.08 623.722C326.22 623.274 326.29 622.835 326.29 622.406C326.29 621.977 326.22 621.538 326.08 621.09C325.95 620.633 325.721 620.227 325.394 619.872C325.077 619.517 324.638 619.27 324.078 619.13C323.882 619.074 323.668 619.041 323.434 619.032C323.201 619.013 322.991 619.004 322.804 619.004H317.988V625.808ZM331.699 636L338.055 615.84H342.997L349.353 636H345.881L340.113 617.912H340.869L335.171 636H331.699ZM335.241 631.632V628.482H345.825V631.632H335.241ZM352.164 636V615.84H355.538V632.836H364.442V636H352.164ZM371.024 636V615.84H374.062L381.034 630.12L388.006 615.84H391.044V636H387.894V623.078L381.706 636H380.362L374.188 623.078V636H371.024ZM395.258 636V615.84H398.632V636H395.258ZM402.825 636V615.84H406.241L415.593 630.05V615.84H419.009V636H415.593L406.241 621.79V636H402.825ZM431.043 636.42C429.438 636.42 428.024 636.093 426.801 635.44C425.588 634.787 424.636 633.867 423.945 632.682C423.264 631.497 422.923 630.106 422.923 628.51V615.868L426.339 615.84V628.426C426.339 629.182 426.465 629.859 426.717 630.456C426.978 631.053 427.328 631.562 427.767 631.982C428.206 632.393 428.71 632.705 429.279 632.92C429.848 633.135 430.436 633.242 431.043 633.242C431.668 633.242 432.261 633.135 432.821 632.92C433.39 632.696 433.894 632.379 434.333 631.968C434.772 631.548 435.117 631.039 435.369 630.442C435.621 629.845 435.747 629.173 435.747 628.426V615.84H439.163V628.51C439.163 630.106 438.818 631.497 438.127 632.682C437.446 633.867 436.494 634.787 435.271 635.44C434.058 636.093 432.648 636.42 431.043 636.42ZM447.919 636V619.004H441.395V615.84H457.817V619.004H451.293V636H447.919ZM460.056 636V615.84H473.076V619.004H463.43V623.974H471.396V627.138H463.43V632.836H473.076V636H460.056ZM483.705 636.42C482.231 636.42 480.901 636.163 479.715 635.65C478.539 635.137 477.569 634.404 476.803 633.452C476.047 632.491 475.567 631.352 475.361 630.036L478.861 629.504C479.16 630.699 479.771 631.623 480.695 632.276C481.629 632.929 482.702 633.256 483.915 633.256C484.634 633.256 485.311 633.144 485.945 632.92C486.58 632.696 487.093 632.369 487.485 631.94C487.887 631.511 488.087 630.983 488.087 630.358C488.087 630.078 488.041 629.821 487.947 629.588C487.854 629.345 487.714 629.131 487.527 628.944C487.35 628.757 487.117 628.589 486.827 628.44C486.547 628.281 486.221 628.146 485.847 628.034L480.639 626.494C480.191 626.363 479.706 626.191 479.183 625.976C478.67 625.752 478.18 625.449 477.713 625.066C477.256 624.674 476.878 624.179 476.579 623.582C476.29 622.975 476.145 622.229 476.145 621.342C476.145 620.045 476.472 618.957 477.125 618.08C477.788 617.193 478.675 616.531 479.785 616.092C480.905 615.653 482.147 615.439 483.509 615.448C484.891 615.457 486.123 615.695 487.205 616.162C488.288 616.619 489.193 617.287 489.921 618.164C490.649 619.041 491.163 620.101 491.461 621.342L487.835 621.972C487.686 621.263 487.397 620.661 486.967 620.166C486.547 619.662 486.029 619.279 485.413 619.018C484.807 618.757 484.158 618.617 483.467 618.598C482.795 618.589 482.17 618.691 481.591 618.906C481.022 619.111 480.56 619.41 480.205 619.802C479.86 620.194 479.687 620.651 479.687 621.174C479.687 621.669 479.837 622.075 480.135 622.392C480.434 622.7 480.803 622.947 481.241 623.134C481.689 623.311 482.142 623.461 482.599 623.582L486.211 624.59C486.706 624.721 487.261 624.898 487.877 625.122C488.493 625.346 489.086 625.659 489.655 626.06C490.225 626.461 490.691 626.989 491.055 627.642C491.429 628.295 491.615 629.126 491.615 630.134C491.615 631.179 491.396 632.099 490.957 632.892C490.528 633.676 489.945 634.329 489.207 634.852C488.47 635.375 487.625 635.767 486.673 636.028C485.731 636.289 484.741 636.42 483.705 636.42ZM221.242 675V654.84H224.616V675H221.242ZM228.81 675V654.84H232.226L241.578 669.05V654.84H244.994V675H241.578L232.226 660.79V675H228.81ZM253.113 675L259.469 654.84H264.411L270.767 675H267.295L261.527 656.912H262.283L256.585 675H253.113ZM256.655 670.632V667.482H267.239V670.632H256.655ZM273.298 675V654.84H279.724C279.892 654.84 280.223 654.845 280.718 654.854C281.222 654.863 281.707 654.896 282.174 654.952C283.77 655.157 285.119 655.727 286.22 656.66C287.331 657.584 288.171 658.765 288.74 660.202C289.309 661.639 289.594 663.212 289.594 664.92C289.594 666.628 289.309 668.201 288.74 669.638C288.171 671.075 287.331 672.261 286.22 673.194C285.119 674.118 283.77 674.683 282.174 674.888C281.717 674.944 281.236 674.977 280.732 674.986C280.228 674.995 279.892 675 279.724 675H273.298ZM276.728 671.822H279.724C280.004 671.822 280.359 671.813 280.788 671.794C281.227 671.775 281.614 671.733 281.95 671.668C282.902 671.491 283.677 671.066 284.274 670.394C284.871 669.722 285.31 668.905 285.59 667.944C285.879 666.983 286.024 665.975 286.024 664.92C286.024 663.828 285.879 662.801 285.59 661.84C285.301 660.879 284.853 660.071 284.246 659.418C283.649 658.765 282.883 658.349 281.95 658.172C281.614 658.097 281.227 658.055 280.788 658.046C280.359 658.027 280.004 658.018 279.724 658.018H276.728V671.822ZM296.592 675L290.236 654.84H293.708L299.028 671.724L304.418 654.84H307.89L301.534 675H296.592ZM306.624 675L312.98 654.84H317.922L324.278 675H320.806L315.038 656.912H315.794L310.096 675H306.624ZM310.166 670.632V667.482H320.75V670.632H310.166ZM326.81 675V654.84H330.226L339.578 669.05V654.84H342.994V675H339.578L330.226 660.79V675H326.81ZM355.433 675.42C353.417 675.42 351.691 674.981 350.253 674.104C348.816 673.217 347.71 671.985 346.935 670.408C346.17 668.831 345.787 667.001 345.787 664.92C345.787 662.839 346.17 661.009 346.935 659.432C347.71 657.855 348.816 656.627 350.253 655.75C351.691 654.863 353.417 654.42 355.433 654.42C357.757 654.42 359.694 655.003 361.243 656.17C362.793 657.327 363.88 658.891 364.505 660.86L361.103 661.798C360.711 660.482 360.044 659.455 359.101 658.718C358.159 657.971 356.936 657.598 355.433 657.598C354.08 657.598 352.951 657.901 352.045 658.508C351.149 659.115 350.473 659.969 350.015 661.07C349.567 662.162 349.339 663.445 349.329 664.92C349.329 666.395 349.553 667.683 350.001 668.784C350.459 669.876 351.14 670.725 352.045 671.332C352.951 671.939 354.08 672.242 355.433 672.242C356.936 672.242 358.159 671.869 359.101 671.122C360.044 670.375 360.711 669.349 361.103 668.042L364.505 668.98C363.88 670.949 362.793 672.517 361.243 673.684C359.694 674.841 357.757 675.42 355.433 675.42ZM367.579 675V654.84H380.599V658.004H370.953V662.974H378.919V666.138H370.953V671.836H380.599V675H367.579Z" fill="white"></path> <circle cx="300" cy="448" r="60" fill="#F9F9F9"></circle> <path d="M288.777 461.51C286.329 461.51 284.232 460.977 282.487 459.912C280.742 458.835 279.399 457.339 278.458 455.424C277.529 453.509 277.064 451.287 277.064 448.76C277.064 446.233 277.529 444.011 278.458 442.096C279.399 440.181 280.742 438.69 282.487 437.625C284.232 436.548 286.329 436.01 288.777 436.01C291.225 436.01 293.322 436.548 295.067 437.625C296.824 438.69 298.167 440.181 299.096 442.096C300.037 444.011 300.507 446.233 300.507 448.76C300.507 451.287 300.037 453.509 299.096 455.424C298.167 457.339 296.824 458.835 295.067 459.912C293.322 460.977 291.225 461.51 288.777 461.51ZM288.777 457.651C290.42 457.662 291.786 457.3 292.874 456.563C293.973 455.826 294.795 454.789 295.339 453.452C295.894 452.115 296.172 450.551 296.172 448.76C296.172 446.969 295.894 445.417 295.339 444.102C294.795 442.776 293.973 441.745 292.874 441.008C291.786 440.271 290.42 439.892 288.777 439.869C287.134 439.858 285.768 440.22 284.68 440.957C283.592 441.694 282.77 442.731 282.215 444.068C281.671 445.405 281.399 446.969 281.399 448.76C281.399 450.551 281.671 452.109 282.215 453.435C282.759 454.75 283.575 455.775 284.663 456.512C285.762 457.249 287.134 457.628 288.777 457.651ZM303.891 461V436.52H314.006C314.244 436.52 314.55 436.531 314.924 436.554C315.298 436.565 315.643 436.599 315.961 436.656C317.377 436.871 318.545 437.342 319.463 438.067C320.392 438.792 321.078 439.71 321.52 440.821C321.973 441.92 322.2 443.144 322.2 444.493C322.2 446.488 321.695 448.205 320.687 449.644C319.678 451.072 318.131 451.956 316.046 452.296L314.295 452.449H307.988V461H303.891ZM317.95 461L313.122 451.038L317.287 450.12L322.591 461H317.95ZM307.988 448.624H313.836C314.062 448.624 314.317 448.613 314.601 448.59C314.884 448.567 315.145 448.522 315.383 448.454C316.063 448.284 316.595 447.984 316.981 447.553C317.377 447.122 317.655 446.635 317.814 446.091C317.984 445.547 318.069 445.014 318.069 444.493C318.069 443.972 317.984 443.439 317.814 442.895C317.655 442.34 317.377 441.847 316.981 441.416C316.595 440.985 316.063 440.685 315.383 440.515C315.145 440.447 314.884 440.407 314.601 440.396C314.317 440.373 314.062 440.362 313.836 440.362H307.988V448.624Z" fill="#3E1BC9"></path> </svg> 