<?xml version="1.0" encoding="UTF-8"?> <svg xmlns="http://www.w3.org/2000/svg" width="600" height="775" viewBox="0 0 600 775" fill="none"> <rect width="600" height="775" rx="20" fill="#F9F9F9"></rect> <path d="M129.614 73L122.457 48.52H126.758L131.637 66.2L136.499 48.554L140.8 48.52L145.679 66.2L150.541 48.52H154.842L147.702 73H143.656L138.641 55.592L133.66 73H129.614ZM167.305 73.51C164.857 73.51 162.761 72.9773 161.015 71.912C159.27 70.8353 157.927 69.3393 156.986 67.424C156.057 65.5087 155.592 63.2873 155.592 60.76C155.592 58.2327 156.057 56.0113 156.986 54.096C157.927 52.1807 159.27 50.6903 161.015 49.625C162.761 48.5483 164.857 48.01 167.305 48.01C169.753 48.01 171.85 48.5483 173.595 49.625C175.352 50.6903 176.695 52.1807 177.624 54.096C178.565 56.0113 179.035 58.2327 179.035 60.76C179.035 63.2873 178.565 65.5087 177.624 67.424C176.695 69.3393 175.352 70.8353 173.595 71.912C171.85 72.9773 169.753 73.51 167.305 73.51ZM167.305 69.651C168.949 69.6623 170.314 69.2997 171.402 68.563C172.502 67.8263 173.323 66.7893 173.867 65.452C174.423 64.1147 174.7 62.5507 174.7 60.76C174.7 58.9693 174.423 57.4167 173.867 56.102C173.323 54.776 172.502 53.7447 171.402 53.008C170.314 52.2713 168.949 51.8917 167.305 51.869C165.662 51.8577 164.296 52.2203 163.208 52.957C162.12 53.6937 161.299 54.7307 160.743 56.068C160.199 57.4053 159.927 58.9693 159.927 60.76C159.927 62.5507 160.199 64.109 160.743 65.435C161.287 66.7497 162.103 67.7753 163.191 68.512C164.291 69.2487 165.662 69.6283 167.305 69.651ZM192.279 73.51C190.33 73.51 188.613 73.1133 187.128 72.32C185.655 71.5267 184.499 70.4103 183.66 68.971C182.833 67.5317 182.419 65.843 182.419 63.905V48.554L186.567 48.52V63.803C186.567 64.721 186.72 65.5427 187.026 66.268C187.343 66.9933 187.768 67.611 188.301 68.121C188.834 68.6197 189.446 68.9993 190.137 69.26C190.828 69.5207 191.542 69.651 192.279 69.651C193.038 69.651 193.758 69.5207 194.438 69.26C195.129 68.988 195.741 68.6027 196.274 68.104C196.807 67.594 197.226 66.9763 197.532 66.251C197.838 65.5257 197.991 64.7097 197.991 63.803V48.52H202.139V63.905C202.139 65.843 201.72 67.5317 200.881 68.971C200.054 70.4103 198.898 71.5267 197.413 72.32C195.94 73.1133 194.228 73.51 192.279 73.51ZM207.23 73V48.52H211.327V69.158H222.139V73H207.23ZM225.019 73V48.52H232.822C233.026 48.52 233.428 48.5257 234.029 48.537C234.641 48.5483 235.23 48.588 235.797 48.656C237.735 48.9053 239.372 49.5967 240.71 50.73C242.058 51.852 243.078 53.2857 243.77 55.031C244.461 56.7763 244.807 58.686 244.807 60.76C244.807 62.834 244.461 64.7437 243.77 66.489C243.078 68.2343 242.058 69.6737 240.71 70.807C239.372 71.929 237.735 72.6147 235.797 72.864C235.241 72.932 234.658 72.9717 234.046 72.983C233.434 72.9943 233.026 73 232.822 73H225.019ZM229.184 69.141H232.822C233.162 69.141 233.592 69.1297 234.114 69.107C234.646 69.0843 235.117 69.0333 235.525 68.954C236.681 68.7387 237.621 68.223 238.347 67.407C239.072 66.591 239.605 65.5993 239.945 64.432C240.296 63.2647 240.472 62.0407 240.472 60.76C240.472 59.434 240.296 58.1873 239.945 57.02C239.593 55.8527 239.049 54.8723 238.313 54.079C237.587 53.2857 236.658 52.7813 235.525 52.566C235.117 52.4753 234.646 52.4243 234.114 52.413C233.592 52.3903 233.162 52.379 232.822 52.379H229.184V69.141ZM261.582 73V62.97L253.252 48.52H258.029L263.656 58.278L269.266 48.52H274.043L265.73 62.97V73H261.582ZM285.409 73.51C282.961 73.51 280.864 72.9773 279.119 71.912C277.373 70.8353 276.03 69.3393 275.09 67.424C274.16 65.5087 273.696 63.2873 273.696 60.76C273.696 58.2327 274.16 56.0113 275.09 54.096C276.03 52.1807 277.373 50.6903 279.119 49.625C280.864 48.5483 282.961 48.01 285.409 48.01C287.857 48.01 289.953 48.5483 291.699 49.625C293.455 50.6903 294.798 52.1807 295.728 54.096C296.668 56.0113 297.139 58.2327 297.139 60.76C297.139 63.2873 296.668 65.5087 295.728 67.424C294.798 69.3393 293.455 70.8353 291.699 71.912C289.953 72.9773 287.857 73.51 285.409 73.51ZM285.409 69.651C287.052 69.6623 288.418 69.2997 289.506 68.563C290.605 67.8263 291.427 66.7893 291.971 65.452C292.526 64.1147 292.804 62.5507 292.804 60.76C292.804 58.9693 292.526 57.4167 291.971 56.102C291.427 54.776 290.605 53.7447 289.506 53.008C288.418 52.2713 287.052 51.8917 285.409 51.869C283.765 51.8577 282.4 52.2203 281.312 52.957C280.224 53.6937 279.402 54.7307 278.847 56.068C278.303 57.4053 278.031 58.9693 278.031 60.76C278.031 62.5507 278.303 64.109 278.847 65.435C279.391 66.7497 280.207 67.7753 281.295 68.512C282.394 69.2487 283.765 69.6283 285.409 69.651ZM310.383 73.51C308.433 73.51 306.716 73.1133 305.232 72.32C303.758 71.5267 302.602 70.4103 301.764 68.971C300.936 67.5317 300.523 65.843 300.523 63.905V48.554L304.671 48.52V63.803C304.671 64.721 304.824 65.5427 305.13 66.268C305.447 66.9933 305.872 67.611 306.405 68.121C306.937 68.6197 307.549 68.9993 308.241 69.26C308.932 69.5207 309.646 69.651 310.383 69.651C311.142 69.651 311.862 69.5207 312.542 69.26C313.233 68.988 313.845 68.6027 314.378 68.104C314.91 67.594 315.33 66.9763 315.636 66.251C315.942 65.5257 316.095 64.7097 316.095 63.803V48.52H320.243V63.905C320.243 65.843 319.823 67.5317 318.985 68.971C318.157 70.4103 317.001 71.5267 315.517 72.32C314.043 73.1133 312.332 73.51 310.383 73.51ZM331.8 73V48.52H341.915C342.153 48.52 342.459 48.5313 342.833 48.554C343.207 48.5653 343.553 48.5993 343.87 48.656C345.287 48.8713 346.454 49.3417 347.372 50.067C348.301 50.7923 348.987 51.7103 349.429 52.821C349.882 53.9203 350.109 55.1443 350.109 56.493C350.109 58.4877 349.605 60.2047 348.596 61.644C347.587 63.072 346.04 63.956 343.955 64.296L342.204 64.449H335.897V73H331.8ZM345.859 73L341.031 63.038L345.196 62.12L350.5 73H345.859ZM335.897 60.624H341.745C341.972 60.624 342.227 60.6127 342.51 60.59C342.793 60.5673 343.054 60.522 343.292 60.454C343.972 60.284 344.505 59.9837 344.89 59.553C345.287 59.1223 345.564 58.635 345.723 58.091C345.893 57.547 345.978 57.0143 345.978 56.493C345.978 55.9717 345.893 55.439 345.723 54.895C345.564 54.3397 345.287 53.8467 344.89 53.416C344.505 52.9853 343.972 52.685 343.292 52.515C343.054 52.447 342.793 52.4073 342.51 52.396C342.227 52.3733 341.972 52.362 341.745 52.362H335.897V60.624ZM352.545 73L360.263 48.52H366.264L373.982 73H369.766L362.762 51.036H363.68L356.761 73H352.545ZM356.846 67.696V63.871H369.698V67.696H356.846ZM380.912 73V52.362H372.99V48.52H392.931V52.362H385.009V73H380.912ZM395.65 73V48.52H399.747V58.822H411.341V48.52H415.421V73H411.341V62.664H399.747V73H395.65ZM420.187 73V48.52H435.997V52.362H424.284V58.397H433.957V62.239H424.284V69.158H435.997V73H420.187ZM440.075 73V48.52H450.19C450.428 48.52 450.734 48.5313 451.108 48.554C451.482 48.5653 451.828 48.5993 452.145 48.656C453.562 48.8713 454.729 49.3417 455.647 50.067C456.577 50.7923 457.262 51.7103 457.704 52.821C458.158 53.9203 458.384 55.1443 458.384 56.493C458.384 58.4877 457.88 60.2047 456.871 61.644C455.863 63.072 454.316 63.956 452.23 64.296L450.479 64.449H444.172V73H440.075ZM454.134 73L449.306 63.038L453.471 62.12L458.775 73H454.134ZM444.172 60.624H450.02C450.247 60.624 450.502 60.6127 450.785 60.59C451.069 60.5673 451.329 60.522 451.567 60.454C452.247 60.284 452.78 59.9837 453.165 59.553C453.562 59.1223 453.84 58.635 453.998 58.091C454.168 57.547 454.253 57.0143 454.253 56.493C454.253 55.9717 454.168 55.439 453.998 54.895C453.84 54.3397 453.562 53.8467 453.165 53.416C452.78 52.9853 452.247 52.685 451.567 52.515C451.329 52.447 451.069 52.4073 450.785 52.396C450.502 52.3733 450.247 52.362 450.02 52.362H444.172V60.624ZM466.958 66.353C466.958 65.571 467.031 64.8173 467.179 64.092C467.337 63.3553 467.592 62.6753 467.944 62.052C468.25 61.4513 468.59 60.9753 468.964 60.624C469.338 60.2613 469.757 59.9043 470.222 59.553C470.686 59.1903 471.202 58.7087 471.769 58.108C472.233 57.598 472.539 57.0937 472.687 56.595C472.834 56.085 472.908 55.541 472.908 54.963C472.908 54.589 472.868 54.2377 472.789 53.909C472.709 53.5803 472.568 53.297 472.364 53.059C472.046 52.6397 471.638 52.345 471.14 52.175C470.641 51.9937 470.108 51.903 469.542 51.903C469.077 51.903 468.629 51.9653 468.199 52.09C467.779 52.2033 467.422 52.3847 467.128 52.634C466.788 52.906 466.538 53.2403 466.38 53.637C466.221 54.0337 466.147 54.47 466.159 54.946H461.841C461.954 53.8127 462.26 52.7643 462.759 51.801C463.269 50.8263 463.937 50.05 464.765 49.472C465.411 48.996 466.136 48.639 466.941 48.401C467.757 48.163 468.573 48.044 469.389 48.044C470.635 48.044 471.808 48.2367 472.908 48.622C474.018 49.0073 474.942 49.642 475.679 50.526C476.189 51.104 476.574 51.7727 476.835 52.532C477.107 53.2913 477.243 54.062 477.243 54.844C477.243 56.0113 476.988 57.0767 476.478 58.04C475.979 59.0033 475.344 59.893 474.574 60.709C474.211 61.0943 473.865 61.4343 473.537 61.729C473.208 62.0237 472.902 62.3127 472.619 62.596C472.347 62.868 472.12 63.157 471.939 63.463C471.621 63.9957 471.434 64.449 471.378 64.823C471.321 65.1857 471.293 65.6957 471.293 66.353H466.958ZM466.992 73V68.495H471.293V73H466.992Z" fill="#3E1BC9"></path> <rect y="120" width="600" height="300" rx="20" fill="#3E1BC9"></rect> <path d="M123.091 261V240.84H126.507L135.859 255.05V240.84H139.275V261H135.859L126.507 246.79V261H123.091ZM151.715 261.42C149.699 261.42 147.972 260.981 146.535 260.104C145.097 259.217 143.991 257.985 143.217 256.408C142.451 254.831 142.069 253.001 142.069 250.92C142.069 248.839 142.451 247.009 143.217 245.432C143.991 243.855 145.097 242.627 146.535 241.75C147.972 240.863 149.699 240.42 151.715 240.42C153.731 240.42 155.457 240.863 156.895 241.75C158.341 242.627 159.447 243.855 160.213 245.432C160.987 247.009 161.375 248.839 161.375 250.92C161.375 253.001 160.987 254.831 160.213 256.408C159.447 257.985 158.341 259.217 156.895 260.104C155.457 260.981 153.731 261.42 151.715 261.42ZM151.715 258.242C153.068 258.251 154.193 257.953 155.089 257.346C155.994 256.739 156.671 255.885 157.119 254.784C157.576 253.683 157.805 252.395 157.805 250.92C157.805 249.445 157.576 248.167 157.119 247.084C156.671 245.992 155.994 245.143 155.089 244.536C154.193 243.929 153.068 243.617 151.715 243.598C150.361 243.589 149.237 243.887 148.341 244.494C147.445 245.101 146.768 245.955 146.311 247.056C145.863 248.157 145.639 249.445 145.639 250.92C145.639 252.395 145.863 253.678 146.311 254.77C146.759 255.853 147.431 256.697 148.327 257.304C149.232 257.911 150.361 258.223 151.715 258.242ZM168.458 261V244.004H161.934V240.84H178.356V244.004H171.832V261H168.458ZM185.353 261V240.84H193.347C194.709 240.84 195.825 241.115 196.693 241.666C197.57 242.207 198.219 242.903 198.639 243.752C199.068 244.601 199.283 245.479 199.283 246.384C199.283 247.495 199.017 248.437 198.485 249.212C197.962 249.987 197.248 250.509 196.343 250.78V250.08C197.612 250.369 198.573 250.971 199.227 251.886C199.889 252.801 200.221 253.841 200.221 255.008C200.221 256.203 199.992 257.248 199.535 258.144C199.077 259.04 198.396 259.74 197.491 260.244C196.595 260.748 195.484 261 194.159 261H185.353ZM188.769 257.822H193.739C194.327 257.822 194.854 257.705 195.321 257.472C195.787 257.229 196.151 256.893 196.413 256.464C196.683 256.025 196.819 255.507 196.819 254.91C196.819 254.369 196.702 253.883 196.469 253.454C196.235 253.025 195.895 252.684 195.447 252.432C194.999 252.171 194.462 252.04 193.837 252.04H188.769V257.822ZM188.769 248.89H193.305C193.79 248.89 194.224 248.797 194.607 248.61C194.989 248.423 195.293 248.148 195.517 247.784C195.741 247.42 195.853 246.972 195.853 246.44C195.853 245.74 195.629 245.157 195.181 244.69C194.733 244.223 194.107 243.99 193.305 243.99H188.769V248.89ZM203.017 261V240.84H216.037V244.004H206.391V248.974H214.357V252.138H206.391V257.836H216.037V261H203.017ZM223.601 261L229.957 240.84H234.899L241.255 261H237.783L232.015 242.912H232.771L227.073 261H223.601ZM227.143 256.632V253.482H237.727V256.632H227.143ZM243.786 261V240.84H251.78C253.143 240.84 254.258 241.115 255.126 241.666C256.004 242.207 256.652 242.903 257.072 243.752C257.502 244.601 257.716 245.479 257.716 246.384C257.716 247.495 257.45 248.437 256.918 249.212C256.396 249.987 255.682 250.509 254.776 250.78V250.08C256.046 250.369 257.007 250.971 257.66 251.886C258.323 252.801 258.654 253.841 258.654 255.008C258.654 256.203 258.426 257.248 257.968 258.144C257.511 259.04 256.83 259.74 255.924 260.244C255.028 260.748 253.918 261 252.592 261H243.786ZM247.202 257.822H252.172C252.76 257.822 253.288 257.705 253.754 257.472C254.221 257.229 254.585 256.893 254.846 256.464C255.117 256.025 255.252 255.507 255.252 254.91C255.252 254.369 255.136 253.883 254.902 253.454C254.669 253.025 254.328 252.684 253.88 252.432C253.432 252.171 252.896 252.04 252.27 252.04H247.202V257.822ZM247.202 248.89H251.738C252.224 248.89 252.658 248.797 253.04 248.61C253.423 248.423 253.726 248.148 253.95 247.784C254.174 247.42 254.286 246.972 254.286 246.44C254.286 245.74 254.062 245.157 253.614 244.69C253.166 244.223 252.541 243.99 251.738 243.99H247.202V248.89ZM261.73 261V240.84H265.104V257.836H274.008V261H261.73ZM276.38 261V240.84H289.4V244.004H279.754V248.974H287.72V252.138H279.754V257.836H289.4V261H276.38ZM303.208 261V244.004H296.684V240.84H313.106V244.004H306.582V261H303.208ZM323.871 261.42C321.855 261.42 320.128 260.981 318.691 260.104C317.253 259.217 316.147 257.985 315.373 256.408C314.607 254.831 314.225 253.001 314.225 250.92C314.225 248.839 314.607 247.009 315.373 245.432C316.147 243.855 317.253 242.627 318.691 241.75C320.128 240.863 321.855 240.42 323.871 240.42C325.887 240.42 327.613 240.863 329.051 241.75C330.497 242.627 331.603 243.855 332.369 245.432C333.143 247.009 333.531 248.839 333.531 250.92C333.531 253.001 333.143 254.831 332.369 256.408C331.603 257.985 330.497 259.217 329.051 260.104C327.613 260.981 325.887 261.42 323.871 261.42ZM323.871 258.242C325.224 258.251 326.349 257.953 327.245 257.346C328.15 256.739 328.827 255.885 329.275 254.784C329.732 253.683 329.961 252.395 329.961 250.92C329.961 249.445 329.732 248.167 329.275 247.084C328.827 245.992 328.15 245.143 327.245 244.536C326.349 243.929 325.224 243.617 323.871 243.598C322.517 243.589 321.393 243.887 320.497 244.494C319.601 245.101 318.924 245.955 318.467 247.056C318.019 248.157 317.795 249.445 317.795 250.92C317.795 252.395 318.019 253.678 318.467 254.77C318.915 255.853 319.587 256.697 320.483 257.304C321.388 257.911 322.517 258.223 323.871 258.242ZM341.923 261V240.84H348.349C348.517 240.84 348.848 240.845 349.343 240.854C349.847 240.863 350.332 240.896 350.799 240.952C352.395 241.157 353.744 241.727 354.845 242.66C355.956 243.584 356.796 244.765 357.365 246.202C357.934 247.639 358.219 249.212 358.219 250.92C358.219 252.628 357.934 254.201 357.365 255.638C356.796 257.075 355.956 258.261 354.845 259.194C353.744 260.118 352.395 260.683 350.799 260.888C350.342 260.944 349.861 260.977 349.357 260.986C348.853 260.995 348.517 261 348.349 261H341.923ZM345.353 257.822H348.349C348.629 257.822 348.984 257.813 349.413 257.794C349.852 257.775 350.239 257.733 350.575 257.668C351.527 257.491 352.302 257.066 352.899 256.394C353.496 255.722 353.935 254.905 354.215 253.944C354.504 252.983 354.649 251.975 354.649 250.92C354.649 249.828 354.504 248.801 354.215 247.84C353.926 246.879 353.478 246.071 352.871 245.418C352.274 244.765 351.508 244.349 350.575 244.172C350.239 244.097 349.852 244.055 349.413 244.046C348.984 244.027 348.629 244.018 348.349 244.018H345.353V257.822ZM370.054 261.42C368.038 261.42 366.312 260.981 364.874 260.104C363.437 259.217 362.331 257.985 361.556 256.408C360.791 254.831 360.408 253.001 360.408 250.92C360.408 248.839 360.791 247.009 361.556 245.432C362.331 243.855 363.437 242.627 364.874 241.75C366.312 240.863 368.038 240.42 370.054 240.42C372.07 240.42 373.797 240.863 375.234 241.75C376.681 242.627 377.787 243.855 378.552 245.432C379.327 247.009 379.714 248.839 379.714 250.92C379.714 253.001 379.327 254.831 378.552 256.408C377.787 257.985 376.681 259.217 375.234 260.104C373.797 260.981 372.07 261.42 370.054 261.42ZM370.054 258.242C371.408 258.251 372.532 257.953 373.428 257.346C374.334 256.739 375.01 255.885 375.458 254.784C375.916 253.683 376.144 252.395 376.144 250.92C376.144 249.445 375.916 248.167 375.458 247.084C375.01 245.992 374.334 245.143 373.428 244.536C372.532 243.929 371.408 243.617 370.054 243.598C368.701 243.589 367.576 243.887 366.68 244.494C365.784 245.101 365.108 245.955 364.65 247.056C364.202 248.157 363.978 249.445 363.978 250.92C363.978 252.395 364.202 253.678 364.65 254.77C365.098 255.853 365.77 256.697 366.666 257.304C367.572 257.911 368.701 258.223 370.054 258.242ZM395.568 261.42C394.094 261.42 392.764 261.163 391.578 260.65C390.402 260.137 389.432 259.404 388.666 258.452C387.91 257.491 387.43 256.352 387.224 255.036L390.724 254.504C391.023 255.699 391.634 256.623 392.558 257.276C393.492 257.929 394.565 258.256 395.778 258.256C396.497 258.256 397.174 258.144 397.808 257.92C398.443 257.696 398.956 257.369 399.348 256.94C399.75 256.511 399.95 255.983 399.95 255.358C399.95 255.078 399.904 254.821 399.81 254.588C399.717 254.345 399.577 254.131 399.39 253.944C399.213 253.757 398.98 253.589 398.69 253.44C398.41 253.281 398.084 253.146 397.71 253.034L392.502 251.494C392.054 251.363 391.569 251.191 391.046 250.976C390.533 250.752 390.043 250.449 389.576 250.066C389.119 249.674 388.741 249.179 388.442 248.582C388.153 247.975 388.008 247.229 388.008 246.342C388.008 245.045 388.335 243.957 388.988 243.08C389.651 242.193 390.538 241.531 391.648 241.092C392.768 240.653 394.01 240.439 395.372 240.448C396.754 240.457 397.986 240.695 399.068 241.162C400.151 241.619 401.056 242.287 401.784 243.164C402.512 244.041 403.026 245.101 403.324 246.342L399.698 246.972C399.549 246.263 399.26 245.661 398.83 245.166C398.41 244.662 397.892 244.279 397.276 244.018C396.67 243.757 396.021 243.617 395.33 243.598C394.658 243.589 394.033 243.691 393.454 243.906C392.885 244.111 392.423 244.41 392.068 244.802C391.723 245.194 391.55 245.651 391.55 246.174C391.55 246.669 391.7 247.075 391.998 247.392C392.297 247.7 392.666 247.947 393.104 248.134C393.552 248.311 394.005 248.461 394.462 248.582L398.074 249.59C398.569 249.721 399.124 249.898 399.74 250.122C400.356 250.346 400.949 250.659 401.518 251.06C402.088 251.461 402.554 251.989 402.918 252.642C403.292 253.295 403.478 254.126 403.478 255.134C403.478 256.179 403.259 257.099 402.82 257.892C402.391 258.676 401.808 259.329 401.07 259.852C400.333 260.375 399.488 260.767 398.536 261.028C397.594 261.289 396.604 261.42 395.568 261.42ZM406.509 261V240.84H414.839C415.035 240.84 415.287 240.849 415.595 240.868C415.903 240.877 416.187 240.905 416.449 240.952C417.615 241.129 418.577 241.517 419.333 242.114C420.098 242.711 420.663 243.467 421.027 244.382C421.4 245.287 421.587 246.295 421.587 247.406C421.587 248.507 421.4 249.515 421.027 250.43C420.653 251.335 420.084 252.087 419.319 252.684C418.563 253.281 417.606 253.669 416.449 253.846C416.187 253.883 415.898 253.911 415.581 253.93C415.273 253.949 415.025 253.958 414.839 253.958H409.883V261H406.509ZM409.883 250.808H414.699C414.885 250.808 415.095 250.799 415.329 250.78C415.562 250.761 415.777 250.724 415.973 250.668C416.533 250.528 416.971 250.281 417.289 249.926C417.615 249.571 417.844 249.17 417.975 248.722C418.115 248.274 418.185 247.835 418.185 247.406C418.185 246.977 418.115 246.538 417.975 246.09C417.844 245.633 417.615 245.227 417.289 244.872C416.971 244.517 416.533 244.27 415.973 244.13C415.777 244.074 415.562 244.041 415.329 244.032C415.095 244.013 414.885 244.004 414.699 244.004H409.883V250.808ZM432.918 261.42C430.902 261.42 429.175 260.981 427.738 260.104C426.3 259.217 425.194 257.985 424.42 256.408C423.654 254.831 423.272 253.001 423.272 250.92C423.272 248.839 423.654 247.009 424.42 245.432C425.194 243.855 426.3 242.627 427.738 241.75C429.175 240.863 430.902 240.42 432.918 240.42C434.934 240.42 436.66 240.863 438.098 241.75C439.544 242.627 440.65 243.855 441.416 245.432C442.19 247.009 442.578 248.839 442.578 250.92C442.578 253.001 442.19 254.831 441.416 256.408C440.65 257.985 439.544 259.217 438.098 260.104C436.66 260.981 434.934 261.42 432.918 261.42ZM432.918 258.242C434.271 258.251 435.396 257.953 436.292 257.346C437.197 256.739 437.874 255.885 438.322 254.784C438.779 253.683 439.008 252.395 439.008 250.92C439.008 249.445 438.779 248.167 438.322 247.084C437.874 245.992 437.197 245.143 436.292 244.536C435.396 243.929 434.271 243.617 432.918 243.598C431.564 243.589 430.44 243.887 429.544 244.494C428.648 245.101 427.971 245.955 427.514 247.056C427.066 248.157 426.842 249.445 426.842 250.92C426.842 252.395 427.066 253.678 427.514 254.77C427.962 255.853 428.634 256.697 429.53 257.304C430.435 257.911 431.564 258.223 432.918 258.242ZM445.364 261V240.84H453.694C453.89 240.84 454.142 240.849 454.45 240.868C454.758 240.877 455.043 240.905 455.304 240.952C456.471 241.129 457.432 241.517 458.188 242.114C458.954 242.711 459.518 243.467 459.882 244.382C460.256 245.287 460.442 246.295 460.442 247.406C460.442 249.049 460.027 250.463 459.196 251.648C458.366 252.824 457.092 253.552 455.374 253.832L453.932 253.958H448.738V261H445.364ZM456.942 261L452.966 252.796L456.396 252.04L460.764 261H456.942ZM448.738 250.808H453.554C453.741 250.808 453.951 250.799 454.184 250.78C454.418 250.761 454.632 250.724 454.828 250.668C455.388 250.528 455.827 250.281 456.144 249.926C456.471 249.571 456.7 249.17 456.83 248.722C456.97 248.274 457.04 247.835 457.04 247.406C457.04 246.977 456.97 246.538 456.83 246.09C456.7 245.633 456.471 245.227 456.144 244.872C455.827 244.517 455.388 244.27 454.828 244.13C454.632 244.074 454.418 244.041 454.184 244.032C453.951 244.013 453.741 244.004 453.554 244.004H448.738V250.808ZM468.693 261V244.004H462.169V240.84H478.591V244.004H472.067V261H468.693ZM224.523 300V279.84H236.661V283.214H227.897V288.24H234.981V291.6H227.897V300H224.523ZM247.705 300.42C245.689 300.42 243.962 299.981 242.525 299.104C241.087 298.217 239.981 296.985 239.207 295.408C238.441 293.831 238.059 292.001 238.059 289.92C238.059 287.839 238.441 286.009 239.207 284.432C239.981 282.855 241.087 281.627 242.525 280.75C243.962 279.863 245.689 279.42 247.705 279.42C249.721 279.42 251.447 279.863 252.885 280.75C254.331 281.627 255.437 282.855 256.203 284.432C256.977 286.009 257.365 287.839 257.365 289.92C257.365 292.001 256.977 293.831 256.203 295.408C255.437 296.985 254.331 298.217 252.885 299.104C251.447 299.981 249.721 300.42 247.705 300.42ZM247.705 297.242C249.058 297.251 250.183 296.953 251.079 296.346C251.984 295.739 252.661 294.885 253.109 293.784C253.566 292.683 253.795 291.395 253.795 289.92C253.795 288.445 253.566 287.167 253.109 286.084C252.661 284.992 251.984 284.143 251.079 283.536C250.183 282.929 249.058 282.617 247.705 282.598C246.351 282.589 245.227 282.887 244.331 283.494C243.435 284.101 242.758 284.955 242.301 286.056C241.853 287.157 241.629 288.445 241.629 289.92C241.629 291.395 241.853 292.678 242.301 293.77C242.749 294.853 243.421 295.697 244.317 296.304C245.222 296.911 246.351 297.223 247.705 297.242ZM260.151 300V279.84H268.481C268.677 279.84 268.929 279.849 269.237 279.868C269.545 279.877 269.83 279.905 270.091 279.952C271.258 280.129 272.219 280.517 272.975 281.114C273.741 281.711 274.305 282.467 274.669 283.382C275.043 284.287 275.229 285.295 275.229 286.406C275.229 288.049 274.814 289.463 273.983 290.648C273.153 291.824 271.879 292.552 270.161 292.832L268.719 292.958H263.525V300H260.151ZM271.729 300L267.753 291.796L271.183 291.04L275.551 300H271.729ZM263.525 289.808H268.341C268.528 289.808 268.738 289.799 268.971 289.78C269.205 289.761 269.419 289.724 269.615 289.668C270.175 289.528 270.614 289.281 270.931 288.926C271.258 288.571 271.487 288.17 271.617 287.722C271.757 287.274 271.827 286.835 271.827 286.406C271.827 285.977 271.757 285.538 271.617 285.09C271.487 284.633 271.258 284.227 270.931 283.872C270.614 283.517 270.175 283.27 269.615 283.13C269.419 283.074 269.205 283.041 268.971 283.032C268.738 283.013 268.528 283.004 268.341 283.004H263.525V289.808ZM282.841 300L289.197 279.84H294.139L300.495 300H297.023L291.255 281.912H292.011L286.313 300H282.841ZM286.383 295.632V292.482H296.967V295.632H286.383ZM313.532 300V291.74L306.672 279.84H310.606L315.24 287.876L319.86 279.84H323.794L316.948 291.74V300H313.532ZM325.749 300V279.84H338.769V283.004H329.123V287.974H337.089V291.138H329.123V296.836H338.769V300H325.749ZM340.728 300L347.084 279.84H352.026L358.382 300H354.91L349.142 281.912H349.898L344.2 300H340.728ZM344.27 295.632V292.482H354.854V295.632H344.27ZM360.913 300V279.84H369.243C369.439 279.84 369.691 279.849 369.999 279.868C370.307 279.877 370.592 279.905 370.853 279.952C372.02 280.129 372.981 280.517 373.737 281.114C374.502 281.711 375.067 282.467 375.431 283.382C375.804 284.287 375.991 285.295 375.991 286.406C375.991 288.049 375.576 289.463 374.745 290.648C373.914 291.824 372.64 292.552 370.923 292.832L369.481 292.958H364.287V300H360.913ZM372.491 300L368.515 291.796L371.945 291.04L376.313 300H372.491ZM364.287 289.808H369.103C369.29 289.808 369.5 289.799 369.733 289.78C369.966 289.761 370.181 289.724 370.377 289.668C370.937 289.528 371.376 289.281 371.693 288.926C372.02 288.571 372.248 288.17 372.379 287.722C372.519 287.274 372.589 286.835 372.589 286.406C372.589 285.977 372.519 285.538 372.379 285.09C372.248 284.633 372.02 284.227 371.693 283.872C371.376 283.517 370.937 283.27 370.377 283.13C370.181 283.074 369.966 283.041 369.733 283.032C369.5 283.013 369.29 283.004 369.103 283.004H364.287V289.808Z" fill="white"></path> <rect y="475" width="600" height="300" rx="20" fill="#FF7EB3"></rect> <path d="M55.8799 616V595.84H59.2959L68.6479 610.05V595.84H72.0639V616H68.6479L59.2959 601.79V616H55.8799ZM84.5036 616.42C82.4876 616.42 80.7609 615.981 79.3236 615.104C77.8862 614.217 76.7802 612.985 76.0056 611.408C75.2402 609.831 74.8576 608.001 74.8576 605.92C74.8576 603.839 75.2402 602.009 76.0056 600.432C76.7802 598.855 77.8862 597.627 79.3236 596.75C80.7609 595.863 82.4876 595.42 84.5036 595.42C86.5196 595.42 88.2462 595.863 89.6836 596.75C91.1302 597.627 92.2362 598.855 93.0016 600.432C93.7762 602.009 94.1636 603.839 94.1636 605.92C94.1636 608.001 93.7762 609.831 93.0016 611.408C92.2362 612.985 91.1302 614.217 89.6836 615.104C88.2462 615.981 86.5196 616.42 84.5036 616.42ZM84.5036 613.242C85.8569 613.251 86.9816 612.953 87.8776 612.346C88.7829 611.739 89.4596 610.885 89.9076 609.784C90.3649 608.683 90.5936 607.395 90.5936 605.92C90.5936 604.445 90.3649 603.167 89.9076 602.084C89.4596 600.992 88.7829 600.143 87.8776 599.536C86.9816 598.929 85.8569 598.617 84.5036 598.598C83.1502 598.589 82.0256 598.887 81.1296 599.494C80.2336 600.101 79.5569 600.955 79.0996 602.056C78.6516 603.157 78.4276 604.445 78.4276 605.92C78.4276 607.395 78.6516 608.678 79.0996 609.77C79.5476 610.853 80.2196 611.697 81.1156 612.304C82.0209 612.911 83.1502 613.223 84.5036 613.242ZM101.247 616V599.004H94.7234V595.84H111.145V599.004H104.621V616H101.247ZM118.142 616V595.84H126.136C127.498 595.84 128.614 596.115 129.482 596.666C130.359 597.207 131.008 597.903 131.428 598.752C131.857 599.601 132.072 600.479 132.072 601.384C132.072 602.495 131.806 603.437 131.274 604.212C130.751 604.987 130.037 605.509 129.132 605.78V605.08C130.401 605.369 131.362 605.971 132.016 606.886C132.678 607.801 133.01 608.841 133.01 610.008C133.01 611.203 132.781 612.248 132.324 613.144C131.866 614.04 131.185 614.74 130.28 615.244C129.384 615.748 128.273 616 126.948 616H118.142ZM121.558 612.822H126.528C127.116 612.822 127.643 612.705 128.11 612.472C128.576 612.229 128.94 611.893 129.202 611.464C129.472 611.025 129.608 610.507 129.608 609.91C129.608 609.369 129.491 608.883 129.258 608.454C129.024 608.025 128.684 607.684 128.236 607.432C127.788 607.171 127.251 607.04 126.626 607.04H121.558V612.822ZM121.558 603.89H126.094C126.579 603.89 127.013 603.797 127.396 603.61C127.778 603.423 128.082 603.148 128.306 602.784C128.53 602.42 128.642 601.972 128.642 601.44C128.642 600.74 128.418 600.157 127.97 599.69C127.522 599.223 126.896 598.99 126.094 598.99H121.558V603.89ZM135.806 616V595.84H148.826V599.004H139.18V603.974H147.146V607.138H139.18V612.836H148.826V616H135.806ZM156.39 616L162.746 595.84H167.688L174.044 616H170.572L164.804 597.912H165.56L159.862 616H156.39ZM159.932 611.632V608.482H170.516V611.632H159.932ZM176.575 616V595.84H184.569C185.932 595.84 187.047 596.115 187.915 596.666C188.793 597.207 189.441 597.903 189.861 598.752C190.291 599.601 190.505 600.479 190.505 601.384C190.505 602.495 190.239 603.437 189.707 604.212C189.185 604.987 188.471 605.509 187.565 605.78V605.08C188.835 605.369 189.796 605.971 190.449 606.886C191.112 607.801 191.443 608.841 191.443 610.008C191.443 611.203 191.215 612.248 190.757 613.144C190.3 614.04 189.619 614.74 188.713 615.244C187.817 615.748 186.707 616 185.381 616H176.575ZM179.991 612.822H184.961C185.549 612.822 186.077 612.705 186.543 612.472C187.01 612.229 187.374 611.893 187.635 611.464C187.906 611.025 188.041 610.507 188.041 609.91C188.041 609.369 187.925 608.883 187.691 608.454C187.458 608.025 187.117 607.684 186.669 607.432C186.221 607.171 185.685 607.04 185.059 607.04H179.991V612.822ZM179.991 603.89H184.527C185.013 603.89 185.447 603.797 185.829 603.61C186.212 603.423 186.515 603.148 186.739 602.784C186.963 602.42 187.075 601.972 187.075 601.44C187.075 600.74 186.851 600.157 186.403 599.69C185.955 599.223 185.33 598.99 184.527 598.99H179.991V603.89ZM194.519 616V595.84H197.893V612.836H206.797V616H194.519ZM209.169 616V595.84H222.189V599.004H212.543V603.974H220.509V607.138H212.543V612.836H222.189V616H209.169ZM235.997 616V599.004H229.473V595.84H245.895V599.004H239.371V616H235.997ZM256.66 616.42C254.644 616.42 252.917 615.981 251.48 615.104C250.042 614.217 248.936 612.985 248.162 611.408C247.396 609.831 247.014 608.001 247.014 605.92C247.014 603.839 247.396 602.009 248.162 600.432C248.936 598.855 250.042 597.627 251.48 596.75C252.917 595.863 254.644 595.42 256.66 595.42C258.676 595.42 260.402 595.863 261.84 596.75C263.286 597.627 264.392 598.855 265.158 600.432C265.932 602.009 266.32 603.839 266.32 605.92C266.32 608.001 265.932 609.831 265.158 611.408C264.392 612.985 263.286 614.217 261.84 615.104C260.402 615.981 258.676 616.42 256.66 616.42ZM256.66 613.242C258.013 613.251 259.138 612.953 260.034 612.346C260.939 611.739 261.616 610.885 262.064 609.784C262.521 608.683 262.75 607.395 262.75 605.92C262.75 604.445 262.521 603.167 262.064 602.084C261.616 600.992 260.939 600.143 260.034 599.536C259.138 598.929 258.013 598.617 256.66 598.598C255.306 598.589 254.182 598.887 253.286 599.494C252.39 600.101 251.713 600.955 251.256 602.056C250.808 603.157 250.584 604.445 250.584 605.92C250.584 607.395 250.808 608.678 251.256 609.77C251.704 610.853 252.376 611.697 253.272 612.304C254.177 612.911 255.306 613.223 256.66 613.242ZM280.597 616V595.84H283.971V612.836H292.875V616H280.597ZM295.247 616V595.84H308.267V599.004H298.621V603.974H306.587V607.138H298.621V612.836H308.267V616H295.247ZM310.226 616L316.582 595.84H321.524L327.88 616H324.408L318.64 597.912H319.396L313.698 616H310.226ZM313.768 611.632V608.482H324.352V611.632H313.768ZM330.411 616V595.84H338.741C338.937 595.84 339.189 595.849 339.497 595.868C339.805 595.877 340.09 595.905 340.351 595.952C341.518 596.129 342.479 596.517 343.235 597.114C344.001 597.711 344.565 598.467 344.929 599.382C345.303 600.287 345.489 601.295 345.489 602.406C345.489 604.049 345.074 605.463 344.243 606.648C343.413 607.824 342.139 608.552 340.421 608.832L338.979 608.958H333.785V616H330.411ZM341.989 616L338.013 607.796L341.443 607.04L345.811 616H341.989ZM333.785 605.808H338.601C338.788 605.808 338.998 605.799 339.231 605.78C339.465 605.761 339.679 605.724 339.875 605.668C340.435 605.528 340.874 605.281 341.191 604.926C341.518 604.571 341.747 604.17 341.877 603.722C342.017 603.274 342.087 602.835 342.087 602.406C342.087 601.977 342.017 601.538 341.877 601.09C341.747 600.633 341.518 600.227 341.191 599.872C340.874 599.517 340.435 599.27 339.875 599.13C339.679 599.074 339.465 599.041 339.231 599.032C338.998 599.013 338.788 599.004 338.601 599.004H333.785V605.808ZM348.896 616V595.84H352.312L361.664 610.05V595.84H365.08V616H361.664L352.312 601.79V616H348.896ZM374.599 616V595.84H378.015L387.367 610.05V595.84H390.783V616H387.367L378.015 601.79V616H374.599ZM394.696 616V595.84H407.716V599.004H398.07V603.974H406.036V607.138H398.07V612.836H407.716V616H394.696ZM415.331 616L409.437 595.84H412.979L416.997 610.4L421.001 595.868L424.543 595.84L428.561 610.4L432.565 595.84H436.107L430.227 616H426.895L422.765 601.664L418.663 616H415.331ZM448.841 616V599.004H442.317V595.84H458.739V599.004H452.215V616H448.841ZM460.978 616V595.84H464.352V604.324H473.9V595.84H477.26V616H473.9V607.488H464.352V616H460.978ZM481.465 616V595.84H484.839V616H481.465ZM489.032 616V595.84H492.448L501.8 610.05V595.84H505.216V616H501.8L492.448 601.79V616H489.032ZM517.446 616.42C516.139 616.42 514.912 616.191 513.764 615.734C512.625 615.267 511.622 614.586 510.754 613.69C509.895 612.794 509.223 611.697 508.738 610.4C508.253 609.093 508.01 607.6 508.01 605.92C508.01 603.717 508.421 601.837 509.242 600.278C510.063 598.71 511.188 597.511 512.616 596.68C514.044 595.84 515.654 595.42 517.446 595.42C519.929 595.42 521.893 595.999 523.34 597.156C524.796 598.304 525.781 599.919 526.294 602L522.85 602.546C522.467 601.351 521.842 600.399 520.974 599.69C520.106 598.971 519 598.612 517.656 598.612C516.303 598.593 515.178 598.887 514.282 599.494C513.386 600.101 512.709 600.955 512.252 602.056C511.804 603.157 511.58 604.445 511.58 605.92C511.58 607.395 511.804 608.678 512.252 609.77C512.7 610.853 513.372 611.697 514.268 612.304C515.173 612.911 516.303 613.223 517.656 613.242C518.673 613.251 519.565 613.069 520.33 612.696C521.095 612.313 521.721 611.739 522.206 610.974C522.691 610.199 523.018 609.233 523.186 608.076H519.63V605.43H526.77C526.789 605.579 526.803 605.799 526.812 606.088C526.821 606.377 526.826 606.55 526.826 606.606C526.826 608.51 526.448 610.204 525.692 611.688C524.945 613.163 523.872 614.32 522.472 615.16C521.072 616 519.397 616.42 517.446 616.42ZM537.1 616.42C535.625 616.42 534.295 616.163 533.11 615.65C531.934 615.137 530.963 614.404 530.198 613.452C529.442 612.491 528.961 611.352 528.756 610.036L532.256 609.504C532.554 610.699 533.166 611.623 534.09 612.276C535.023 612.929 536.096 613.256 537.31 613.256C538.028 613.256 538.705 613.144 539.34 612.92C539.974 612.696 540.488 612.369 540.88 611.94C541.281 611.511 541.482 610.983 541.482 610.358C541.482 610.078 541.435 609.821 541.342 609.588C541.248 609.345 541.108 609.131 540.922 608.944C540.744 608.757 540.511 608.589 540.222 608.44C539.942 608.281 539.615 608.146 539.242 608.034L534.034 606.494C533.586 606.363 533.1 606.191 532.578 605.976C532.064 605.752 531.574 605.449 531.108 605.066C530.65 604.674 530.272 604.179 529.974 603.582C529.684 602.975 529.54 602.229 529.54 601.342C529.54 600.045 529.866 598.957 530.52 598.08C531.182 597.193 532.069 596.531 533.18 596.092C534.3 595.653 535.541 595.439 536.904 595.448C538.285 595.457 539.517 595.695 540.6 596.162C541.682 596.619 542.588 597.287 543.316 598.164C544.044 599.041 544.557 600.101 544.856 601.342L541.23 601.972C541.08 601.263 540.791 600.661 540.362 600.166C539.942 599.662 539.424 599.279 538.808 599.018C538.201 598.757 537.552 598.617 536.862 598.598C536.19 598.589 535.564 598.691 534.986 598.906C534.416 599.111 533.954 599.41 533.6 599.802C533.254 600.194 533.082 600.651 533.082 601.174C533.082 601.669 533.231 602.075 533.53 602.392C533.828 602.7 534.197 602.947 534.636 603.134C535.084 603.311 535.536 603.461 535.994 603.582L539.606 604.59C540.1 604.721 540.656 604.898 541.272 605.122C541.888 605.346 542.48 605.659 543.05 606.06C543.619 606.461 544.086 606.989 544.45 607.642C544.823 608.295 545.01 609.126 545.01 610.134C545.01 611.179 544.79 612.099 544.352 612.892C543.922 613.676 543.339 614.329 542.602 614.852C541.864 615.375 541.02 615.767 540.068 616.028C539.125 616.289 538.136 616.42 537.1 616.42ZM114.855 655L121.211 634.84H126.153L132.509 655H129.037L123.269 636.912H124.025L118.327 655H114.855ZM118.397 650.632V647.482H128.981V650.632H118.397ZM135.04 655V634.84H138.456L147.808 649.05V634.84H151.224V655H147.808L138.456 640.79V655H135.04ZM155.138 655V634.84H161.564C161.732 634.84 162.063 634.845 162.558 634.854C163.062 634.863 163.547 634.896 164.014 634.952C165.61 635.157 166.958 635.727 168.06 636.66C169.17 637.584 170.01 638.765 170.58 640.202C171.149 641.639 171.434 643.212 171.434 644.92C171.434 646.628 171.149 648.201 170.58 649.638C170.01 651.075 169.17 652.261 168.06 653.194C166.958 654.118 165.61 654.683 164.014 654.888C163.556 654.944 163.076 654.977 162.572 654.986C162.068 654.995 161.732 655 161.564 655H155.138ZM158.568 651.822H161.564C161.844 651.822 162.198 651.813 162.628 651.794C163.066 651.775 163.454 651.733 163.79 651.668C164.742 651.491 165.516 651.066 166.114 650.394C166.711 649.722 167.15 648.905 167.43 647.944C167.719 646.983 167.864 645.975 167.864 644.92C167.864 643.828 167.719 642.801 167.43 641.84C167.14 640.879 166.692 640.071 166.086 639.418C165.488 638.765 164.723 638.349 163.79 638.172C163.454 638.097 163.066 638.055 162.628 638.046C162.198 638.027 161.844 638.018 161.564 638.018H158.568V651.822ZM185.193 655V638.004H178.669V634.84H195.091V638.004H188.567V655H185.193ZM195.382 655L201.738 634.84H206.68L213.036 655H209.564L203.796 636.912H204.552L198.854 655H195.382ZM198.924 650.632V647.482H209.508V650.632H198.924ZM215.567 655V634.84H218.941V644.192L226.991 634.84H231.135L222.469 644.724L231.723 655H227.439L218.941 645.592V655H215.567ZM233.696 655V634.84H246.716V638.004H237.07V642.974H245.036V646.138H237.07V651.836H246.716V655H233.696ZM263.801 655.42C262.195 655.42 260.781 655.093 259.559 654.44C258.345 653.787 257.393 652.867 256.703 651.682C256.021 650.497 255.681 649.106 255.681 647.51V634.868L259.097 634.84V647.426C259.097 648.182 259.223 648.859 259.475 649.456C259.736 650.053 260.086 650.562 260.525 650.982C260.963 651.393 261.467 651.705 262.037 651.92C262.606 652.135 263.194 652.242 263.801 652.242C264.426 652.242 265.019 652.135 265.579 651.92C266.148 651.696 266.652 651.379 267.091 650.968C267.529 650.548 267.875 650.039 268.127 649.442C268.379 648.845 268.505 648.173 268.505 647.426V634.84H271.921V647.51C271.921 649.106 271.575 650.497 270.885 651.682C270.203 652.867 269.251 653.787 268.029 654.44C266.815 655.093 265.406 655.42 263.801 655.42ZM275.833 655V634.84H284.163C284.359 634.84 284.611 634.849 284.919 634.868C285.227 634.877 285.512 634.905 285.773 634.952C286.94 635.129 287.901 635.517 288.657 636.114C289.422 636.711 289.987 637.467 290.351 638.382C290.724 639.287 290.911 640.295 290.911 641.406C290.911 642.507 290.724 643.515 290.351 644.43C289.978 645.335 289.408 646.087 288.643 646.684C287.887 647.281 286.93 647.669 285.773 647.846C285.512 647.883 285.222 647.911 284.905 647.93C284.597 647.949 284.35 647.958 284.163 647.958H279.207V655H275.833ZM279.207 644.808H284.023C284.21 644.808 284.42 644.799 284.653 644.78C284.886 644.761 285.101 644.724 285.297 644.668C285.857 644.528 286.296 644.281 286.613 643.926C286.94 643.571 287.168 643.17 287.299 642.722C287.439 642.274 287.509 641.835 287.509 641.406C287.509 640.977 287.439 640.538 287.299 640.09C287.168 639.633 286.94 639.227 286.613 638.872C286.296 638.517 285.857 638.27 285.297 638.13C285.101 638.074 284.886 638.041 284.653 638.032C284.42 638.013 284.21 638.004 284.023 638.004H279.207V644.808ZM299.321 655V634.84H302.737L312.089 649.05V634.84H315.505V655H312.089L302.737 640.79V655H299.321ZM319.419 655V634.84H332.439V638.004H322.793V642.974H330.759V646.138H322.793V651.836H332.439V655H319.419ZM340.054 655L334.16 634.84H337.702L341.72 649.4L345.724 634.868L349.266 634.84L353.284 649.4L357.288 634.84H360.83L354.95 655H351.618L347.488 640.664L343.386 655H340.054ZM368.72 655V634.84H372.094V643.324H381.642V634.84H385.002V655H381.642V646.488H372.094V655H368.72ZM397.453 655.42C395.437 655.42 393.71 654.981 392.273 654.104C390.835 653.217 389.729 651.985 388.955 650.408C388.189 648.831 387.807 647.001 387.807 644.92C387.807 642.839 388.189 641.009 388.955 639.432C389.729 637.855 390.835 636.627 392.273 635.75C393.71 634.863 395.437 634.42 397.453 634.42C399.469 634.42 401.195 634.863 402.633 635.75C404.079 636.627 405.185 637.855 405.951 639.432C406.725 641.009 407.113 642.839 407.113 644.92C407.113 647.001 406.725 648.831 405.951 650.408C405.185 651.985 404.079 653.217 402.633 654.104C401.195 654.981 399.469 655.42 397.453 655.42ZM397.453 652.242C398.806 652.251 399.931 651.953 400.827 651.346C401.732 650.739 402.409 649.885 402.857 648.784C403.314 647.683 403.543 646.395 403.543 644.92C403.543 643.445 403.314 642.167 402.857 641.084C402.409 639.992 401.732 639.143 400.827 638.536C399.931 637.929 398.806 637.617 397.453 637.598C396.099 637.589 394.975 637.887 394.079 638.494C393.183 639.101 392.506 639.955 392.049 641.056C391.601 642.157 391.377 643.445 391.377 644.92C391.377 646.395 391.601 647.678 392.049 648.77C392.497 649.853 393.169 650.697 394.065 651.304C394.97 651.911 396.099 652.223 397.453 652.242ZM409.899 655V634.84H417.893C419.256 634.84 420.371 635.115 421.239 635.666C422.117 636.207 422.765 636.903 423.185 637.752C423.615 638.601 423.829 639.479 423.829 640.384C423.829 641.495 423.563 642.437 423.031 643.212C422.509 643.987 421.795 644.509 420.889 644.78V644.08C422.159 644.369 423.12 644.971 423.773 645.886C424.436 646.801 424.767 647.841 424.767 649.008C424.767 650.203 424.539 651.248 424.081 652.144C423.624 653.04 422.943 653.74 422.037 654.244C421.141 654.748 420.031 655 418.705 655H409.899ZM413.315 651.822H418.285C418.873 651.822 419.401 651.705 419.867 651.472C420.334 651.229 420.698 650.893 420.959 650.464C421.23 650.025 421.365 649.507 421.365 648.91C421.365 648.369 421.249 647.883 421.015 647.454C420.782 647.025 420.441 646.684 419.993 646.432C419.545 646.171 419.009 646.04 418.383 646.04H413.315V651.822ZM413.315 642.89H417.851C418.337 642.89 418.771 642.797 419.153 642.61C419.536 642.423 419.839 642.148 420.063 641.784C420.287 641.42 420.399 640.972 420.399 640.44C420.399 639.74 420.175 639.157 419.727 638.69C419.279 638.223 418.654 637.99 417.851 637.99H413.315V642.89ZM427.564 655V634.84H435.558C436.92 634.84 438.036 635.115 438.904 635.666C439.781 636.207 440.43 636.903 440.85 637.752C441.279 638.601 441.494 639.479 441.494 640.384C441.494 641.495 441.228 642.437 440.696 643.212C440.173 643.987 439.459 644.509 438.554 644.78V644.08C439.823 644.369 440.784 644.971 441.438 645.886C442.1 646.801 442.432 647.841 442.432 649.008C442.432 650.203 442.203 651.248 441.746 652.144C441.288 653.04 440.607 653.74 439.702 654.244C438.806 654.748 437.695 655 436.37 655H427.564ZM430.98 651.822H435.95C436.538 651.822 437.065 651.705 437.532 651.472C437.998 651.229 438.362 650.893 438.624 650.464C438.894 650.025 439.03 649.507 439.03 648.91C439.03 648.369 438.913 647.883 438.68 647.454C438.446 647.025 438.106 646.684 437.658 646.432C437.21 646.171 436.673 646.04 436.048 646.04H430.98V651.822ZM430.98 642.89H435.516C436.001 642.89 436.435 642.797 436.818 642.61C437.2 642.423 437.504 642.148 437.728 641.784C437.952 641.42 438.064 640.972 438.064 640.44C438.064 639.74 437.84 639.157 437.392 638.69C436.944 638.223 436.318 637.99 435.516 637.99H430.98V642.89ZM445.508 655V634.84H448.882V655H445.508ZM453.075 655V634.84H466.095V638.004H456.449V642.974H464.415V646.138H456.449V651.836H466.095V655H453.075ZM476.725 655.42C475.25 655.42 473.92 655.163 472.735 654.65C471.559 654.137 470.588 653.404 469.823 652.452C469.067 651.491 468.586 650.352 468.381 649.036L471.881 648.504C472.179 649.699 472.791 650.623 473.715 651.276C474.648 651.929 475.721 652.256 476.935 652.256C477.653 652.256 478.33 652.144 478.965 651.92C479.599 651.696 480.113 651.369 480.505 650.94C480.906 650.511 481.107 649.983 481.107 649.358C481.107 649.078 481.06 648.821 480.967 648.588C480.873 648.345 480.733 648.131 480.547 647.944C480.369 647.757 480.136 647.589 479.847 647.44C479.567 647.281 479.24 647.146 478.867 647.034L473.659 645.494C473.211 645.363 472.725 645.191 472.203 644.976C471.689 644.752 471.199 644.449 470.733 644.066C470.275 643.674 469.897 643.179 469.599 642.582C469.309 641.975 469.165 641.229 469.165 640.342C469.165 639.045 469.491 637.957 470.145 637.08C470.807 636.193 471.694 635.531 472.805 635.092C473.925 634.653 475.166 634.439 476.529 634.448C477.91 634.457 479.142 634.695 480.225 635.162C481.307 635.619 482.213 636.287 482.941 637.164C483.669 638.041 484.182 639.101 484.481 640.342L480.855 640.972C480.705 640.263 480.416 639.661 479.987 639.166C479.567 638.662 479.049 638.279 478.433 638.018C477.826 637.757 477.177 637.617 476.487 637.598C475.815 637.589 475.189 637.691 474.611 637.906C474.041 638.111 473.579 638.41 473.225 638.802C472.879 639.194 472.707 639.651 472.707 640.174C472.707 640.669 472.856 641.075 473.155 641.392C473.453 641.7 473.822 641.947 474.261 642.134C474.709 642.311 475.161 642.461 475.619 642.582L479.231 643.59C479.725 643.721 480.281 643.898 480.897 644.122C481.513 644.346 482.105 644.659 482.675 645.06C483.244 645.461 483.711 645.989 484.075 646.642C484.448 647.295 484.635 648.126 484.635 649.134C484.635 650.179 484.415 651.099 483.977 651.892C483.547 652.676 482.964 653.329 482.227 653.852C481.489 654.375 480.645 654.767 479.693 655.028C478.75 655.289 477.761 655.42 476.725 655.42Z" fill="white"></path> <circle cx="300" cy="448" r="60" fill="#F9F9F9"></circle> <path d="M288.777 461.51C286.329 461.51 284.232 460.977 282.487 459.912C280.742 458.835 279.399 457.339 278.458 455.424C277.529 453.509 277.064 451.287 277.064 448.76C277.064 446.233 277.529 444.011 278.458 442.096C279.399 440.181 280.742 438.69 282.487 437.625C284.232 436.548 286.329 436.01 288.777 436.01C291.225 436.01 293.322 436.548 295.067 437.625C296.824 438.69 298.167 440.181 299.096 442.096C300.037 444.011 300.507 446.233 300.507 448.76C300.507 451.287 300.037 453.509 299.096 455.424C298.167 457.339 296.824 458.835 295.067 459.912C293.322 460.977 291.225 461.51 288.777 461.51ZM288.777 457.651C290.42 457.662 291.786 457.3 292.874 456.563C293.973 455.826 294.795 454.789 295.339 453.452C295.894 452.115 296.172 450.551 296.172 448.76C296.172 446.969 295.894 445.417 295.339 444.102C294.795 442.776 293.973 441.745 292.874 441.008C291.786 440.271 290.42 439.892 288.777 439.869C287.134 439.858 285.768 440.22 284.68 440.957C283.592 441.694 282.77 442.731 282.215 444.068C281.671 445.405 281.399 446.969 281.399 448.76C281.399 450.551 281.671 452.109 282.215 453.435C282.759 454.75 283.575 455.775 284.663 456.512C285.762 457.249 287.134 457.628 288.777 457.651ZM303.891 461V436.52H314.006C314.244 436.52 314.55 436.531 314.924 436.554C315.298 436.565 315.643 436.599 315.961 436.656C317.377 436.871 318.545 437.342 319.463 438.067C320.392 438.792 321.078 439.71 321.52 440.821C321.973 441.92 322.2 443.144 322.2 444.493C322.2 446.488 321.695 448.205 320.687 449.644C319.678 451.072 318.131 451.956 316.046 452.296L314.295 452.449H307.988V461H303.891ZM317.95 461L313.122 451.038L317.287 450.12L322.591 461H317.95ZM307.988 448.624H313.836C314.062 448.624 314.317 448.613 314.601 448.59C314.884 448.567 315.145 448.522 315.383 448.454C316.063 448.284 316.595 447.984 316.981 447.553C317.377 447.122 317.655 446.635 317.814 446.091C317.984 445.547 318.069 445.014 318.069 444.493C318.069 443.972 317.984 443.439 317.814 442.895C317.655 442.34 317.377 441.847 316.981 441.416C316.595 440.985 316.063 440.685 315.383 440.515C315.145 440.447 314.884 440.407 314.601 440.396C314.317 440.373 314.062 440.362 313.836 440.362H307.988V448.624Z" fill="#3E1BC9"></path> </svg> 