<?xml version="1.0" encoding="UTF-8"?> <svg xmlns="http://www.w3.org/2000/svg" width="600" height="775" viewBox="0 0 600 775" fill="none"> <rect width="600" height="775" rx="20" fill="#F9F9F9"></rect> <path d="M129.614 73L122.457 48.52H126.758L131.637 66.2L136.499 48.554L140.8 48.52L145.679 66.2L150.541 48.52H154.842L147.702 73H143.656L138.641 55.592L133.66 73H129.614ZM167.305 73.51C164.857 73.51 162.761 72.9773 161.015 71.912C159.27 70.8353 157.927 69.3393 156.986 67.424C156.057 65.5087 155.592 63.2873 155.592 60.76C155.592 58.2327 156.057 56.0113 156.986 54.096C157.927 52.1807 159.27 50.6903 161.015 49.625C162.761 48.5483 164.857 48.01 167.305 48.01C169.753 48.01 171.85 48.5483 173.595 49.625C175.352 50.6903 176.695 52.1807 177.624 54.096C178.565 56.0113 179.035 58.2327 179.035 60.76C179.035 63.2873 178.565 65.5087 177.624 67.424C176.695 69.3393 175.352 70.8353 173.595 71.912C171.85 72.9773 169.753 73.51 167.305 73.51ZM167.305 69.651C168.949 69.6623 170.314 69.2997 171.402 68.563C172.502 67.8263 173.323 66.7893 173.867 65.452C174.423 64.1147 174.7 62.5507 174.7 60.76C174.7 58.9693 174.423 57.4167 173.867 56.102C173.323 54.776 172.502 53.7447 171.402 53.008C170.314 52.2713 168.949 51.8917 167.305 51.869C165.662 51.8577 164.296 52.2203 163.208 52.957C162.12 53.6937 161.299 54.7307 160.743 56.068C160.199 57.4053 159.927 58.9693 159.927 60.76C159.927 62.5507 160.199 64.109 160.743 65.435C161.287 66.7497 162.103 67.7753 163.191 68.512C164.291 69.2487 165.662 69.6283 167.305 69.651ZM192.279 73.51C190.33 73.51 188.613 73.1133 187.128 72.32C185.655 71.5267 184.499 70.4103 183.66 68.971C182.833 67.5317 182.419 65.843 182.419 63.905V48.554L186.567 48.52V63.803C186.567 64.721 186.72 65.5427 187.026 66.268C187.343 66.9933 187.768 67.611 188.301 68.121C188.834 68.6197 189.446 68.9993 190.137 69.26C190.828 69.5207 191.542 69.651 192.279 69.651C193.038 69.651 193.758 69.5207 194.438 69.26C195.129 68.988 195.741 68.6027 196.274 68.104C196.807 67.594 197.226 66.9763 197.532 66.251C197.838 65.5257 197.991 64.7097 197.991 63.803V48.52H202.139V63.905C202.139 65.843 201.72 67.5317 200.881 68.971C200.054 70.4103 198.898 71.5267 197.413 72.32C195.94 73.1133 194.228 73.51 192.279 73.51ZM207.23 73V48.52H211.327V69.158H222.139V73H207.23ZM225.019 73V48.52H232.822C233.026 48.52 233.428 48.5257 234.029 48.537C234.641 48.5483 235.23 48.588 235.797 48.656C237.735 48.9053 239.372 49.5967 240.71 50.73C242.058 51.852 243.078 53.2857 243.77 55.031C244.461 56.7763 244.807 58.686 244.807 60.76C244.807 62.834 244.461 64.7437 243.77 66.489C243.078 68.2343 242.058 69.6737 240.71 70.807C239.372 71.929 237.735 72.6147 235.797 72.864C235.241 72.932 234.658 72.9717 234.046 72.983C233.434 72.9943 233.026 73 232.822 73H225.019ZM229.184 69.141H232.822C233.162 69.141 233.592 69.1297 234.114 69.107C234.646 69.0843 235.117 69.0333 235.525 68.954C236.681 68.7387 237.621 68.223 238.347 67.407C239.072 66.591 239.605 65.5993 239.945 64.432C240.296 63.2647 240.472 62.0407 240.472 60.76C240.472 59.434 240.296 58.1873 239.945 57.02C239.593 55.8527 239.049 54.8723 238.313 54.079C237.587 53.2857 236.658 52.7813 235.525 52.566C235.117 52.4753 234.646 52.4243 234.114 52.413C233.592 52.3903 233.162 52.379 232.822 52.379H229.184V69.141ZM261.582 73V62.97L253.252 48.52H258.029L263.656 58.278L269.266 48.52H274.043L265.73 62.97V73H261.582ZM285.409 73.51C282.961 73.51 280.864 72.9773 279.119 71.912C277.373 70.8353 276.03 69.3393 275.09 67.424C274.16 65.5087 273.696 63.2873 273.696 60.76C273.696 58.2327 274.16 56.0113 275.09 54.096C276.03 52.1807 277.373 50.6903 279.119 49.625C280.864 48.5483 282.961 48.01 285.409 48.01C287.857 48.01 289.953 48.5483 291.699 49.625C293.455 50.6903 294.798 52.1807 295.728 54.096C296.668 56.0113 297.139 58.2327 297.139 60.76C297.139 63.2873 296.668 65.5087 295.728 67.424C294.798 69.3393 293.455 70.8353 291.699 71.912C289.953 72.9773 287.857 73.51 285.409 73.51ZM285.409 69.651C287.052 69.6623 288.418 69.2997 289.506 68.563C290.605 67.8263 291.427 66.7893 291.971 65.452C292.526 64.1147 292.804 62.5507 292.804 60.76C292.804 58.9693 292.526 57.4167 291.971 56.102C291.427 54.776 290.605 53.7447 289.506 53.008C288.418 52.2713 287.052 51.8917 285.409 51.869C283.765 51.8577 282.4 52.2203 281.312 52.957C280.224 53.6937 279.402 54.7307 278.847 56.068C278.303 57.4053 278.031 58.9693 278.031 60.76C278.031 62.5507 278.303 64.109 278.847 65.435C279.391 66.7497 280.207 67.7753 281.295 68.512C282.394 69.2487 283.765 69.6283 285.409 69.651ZM310.383 73.51C308.433 73.51 306.716 73.1133 305.232 72.32C303.758 71.5267 302.602 70.4103 301.764 68.971C300.936 67.5317 300.523 65.843 300.523 63.905V48.554L304.671 48.52V63.803C304.671 64.721 304.824 65.5427 305.13 66.268C305.447 66.9933 305.872 67.611 306.405 68.121C306.937 68.6197 307.549 68.9993 308.241 69.26C308.932 69.5207 309.646 69.651 310.383 69.651C311.142 69.651 311.862 69.5207 312.542 69.26C313.233 68.988 313.845 68.6027 314.378 68.104C314.91 67.594 315.33 66.9763 315.636 66.251C315.942 65.5257 316.095 64.7097 316.095 63.803V48.52H320.243V63.905C320.243 65.843 319.823 67.5317 318.985 68.971C318.157 70.4103 317.001 71.5267 315.517 72.32C314.043 73.1133 312.332 73.51 310.383 73.51ZM331.8 73V48.52H341.915C342.153 48.52 342.459 48.5313 342.833 48.554C343.207 48.5653 343.553 48.5993 343.87 48.656C345.287 48.8713 346.454 49.3417 347.372 50.067C348.301 50.7923 348.987 51.7103 349.429 52.821C349.882 53.9203 350.109 55.1443 350.109 56.493C350.109 58.4877 349.605 60.2047 348.596 61.644C347.587 63.072 346.04 63.956 343.955 64.296L342.204 64.449H335.897V73H331.8ZM345.859 73L341.031 63.038L345.196 62.12L350.5 73H345.859ZM335.897 60.624H341.745C341.972 60.624 342.227 60.6127 342.51 60.59C342.793 60.5673 343.054 60.522 343.292 60.454C343.972 60.284 344.505 59.9837 344.89 59.553C345.287 59.1223 345.564 58.635 345.723 58.091C345.893 57.547 345.978 57.0143 345.978 56.493C345.978 55.9717 345.893 55.439 345.723 54.895C345.564 54.3397 345.287 53.8467 344.89 53.416C344.505 52.9853 343.972 52.685 343.292 52.515C343.054 52.447 342.793 52.4073 342.51 52.396C342.227 52.3733 341.972 52.362 341.745 52.362H335.897V60.624ZM352.545 73L360.263 48.52H366.264L373.982 73H369.766L362.762 51.036H363.68L356.761 73H352.545ZM356.846 67.696V63.871H369.698V67.696H356.846ZM380.912 73V52.362H372.99V48.52H392.931V52.362H385.009V73H380.912ZM395.65 73V48.52H399.747V58.822H411.341V48.52H415.421V73H411.341V62.664H399.747V73H395.65ZM420.187 73V48.52H435.997V52.362H424.284V58.397H433.957V62.239H424.284V69.158H435.997V73H420.187ZM440.075 73V48.52H450.19C450.428 48.52 450.734 48.5313 451.108 48.554C451.482 48.5653 451.828 48.5993 452.145 48.656C453.562 48.8713 454.729 49.3417 455.647 50.067C456.577 50.7923 457.262 51.7103 457.704 52.821C458.158 53.9203 458.384 55.1443 458.384 56.493C458.384 58.4877 457.88 60.2047 456.871 61.644C455.863 63.072 454.316 63.956 452.23 64.296L450.479 64.449H444.172V73H440.075ZM454.134 73L449.306 63.038L453.471 62.12L458.775 73H454.134ZM444.172 60.624H450.02C450.247 60.624 450.502 60.6127 450.785 60.59C451.069 60.5673 451.329 60.522 451.567 60.454C452.247 60.284 452.78 59.9837 453.165 59.553C453.562 59.1223 453.84 58.635 453.998 58.091C454.168 57.547 454.253 57.0143 454.253 56.493C454.253 55.9717 454.168 55.439 453.998 54.895C453.84 54.3397 453.562 53.8467 453.165 53.416C452.78 52.9853 452.247 52.685 451.567 52.515C451.329 52.447 451.069 52.4073 450.785 52.396C450.502 52.3733 450.247 52.362 450.02 52.362H444.172V60.624ZM466.958 66.353C466.958 65.571 467.031 64.8173 467.179 64.092C467.337 63.3553 467.592 62.6753 467.944 62.052C468.25 61.4513 468.59 60.9753 468.964 60.624C469.338 60.2613 469.757 59.9043 470.222 59.553C470.686 59.1903 471.202 58.7087 471.769 58.108C472.233 57.598 472.539 57.0937 472.687 56.595C472.834 56.085 472.908 55.541 472.908 54.963C472.908 54.589 472.868 54.2377 472.789 53.909C472.709 53.5803 472.568 53.297 472.364 53.059C472.046 52.6397 471.638 52.345 471.14 52.175C470.641 51.9937 470.108 51.903 469.542 51.903C469.077 51.903 468.629 51.9653 468.199 52.09C467.779 52.2033 467.422 52.3847 467.128 52.634C466.788 52.906 466.538 53.2403 466.38 53.637C466.221 54.0337 466.147 54.47 466.159 54.946H461.841C461.954 53.8127 462.26 52.7643 462.759 51.801C463.269 50.8263 463.937 50.05 464.765 49.472C465.411 48.996 466.136 48.639 466.941 48.401C467.757 48.163 468.573 48.044 469.389 48.044C470.635 48.044 471.808 48.2367 472.908 48.622C474.018 49.0073 474.942 49.642 475.679 50.526C476.189 51.104 476.574 51.7727 476.835 52.532C477.107 53.2913 477.243 54.062 477.243 54.844C477.243 56.0113 476.988 57.0767 476.478 58.04C475.979 59.0033 475.344 59.893 474.574 60.709C474.211 61.0943 473.865 61.4343 473.537 61.729C473.208 62.0237 472.902 62.3127 472.619 62.596C472.347 62.868 472.12 63.157 471.939 63.463C471.621 63.9957 471.434 64.449 471.378 64.823C471.321 65.1857 471.293 65.6957 471.293 66.353H466.958ZM466.992 73V68.495H471.293V73H466.992Z" fill="#3E1BC9"></path> <rect y="120" width="600" height="300" rx="20" fill="#3E1BC9"></rect> <path d="M85.7565 261.42C84.4498 261.42 83.2225 261.191 82.0745 260.734C80.9358 260.267 79.9325 259.586 79.0645 258.69C78.2058 257.794 77.5338 256.697 77.0485 255.4C76.5631 254.093 76.3205 252.6 76.3205 250.92C76.3205 248.717 76.7311 246.837 77.5525 245.278C78.3738 243.71 79.4985 242.511 80.9265 241.68C82.3545 240.84 83.9645 240.42 85.7565 240.42C88.2391 240.42 90.2038 240.999 91.6505 242.156C93.1065 243.304 94.0911 244.919 94.6045 247L91.1605 247.546C90.7778 246.351 90.1525 245.399 89.2845 244.69C88.4165 243.971 87.3105 243.612 85.9665 243.612C84.6131 243.593 83.4885 243.887 82.5925 244.494C81.6965 245.101 81.0198 245.955 80.5625 247.056C80.1145 248.157 79.8905 249.445 79.8905 250.92C79.8905 252.395 80.1145 253.678 80.5625 254.77C81.0105 255.853 81.6825 256.697 82.5785 257.304C83.4838 257.911 84.6131 258.223 85.9665 258.242C86.9838 258.251 87.8751 258.069 88.6405 257.696C89.4058 257.313 90.0311 256.739 90.5165 255.974C91.0018 255.199 91.3285 254.233 91.4965 253.076H87.9405V250.43H95.0805C95.0991 250.579 95.1131 250.799 95.1225 251.088C95.1318 251.377 95.1365 251.55 95.1365 251.606C95.1365 253.51 94.7585 255.204 94.0025 256.688C93.2558 258.163 92.1825 259.32 90.7825 260.16C89.3825 261 87.7071 261.42 85.7565 261.42ZM97.9483 261V240.84H110.968V244.004H101.322V248.974H109.288V252.138H101.322V257.836H110.968V261H97.9483ZM119.171 261V244.004H112.647V240.84H129.069V244.004H122.545V261H119.171ZM140.909 261V244.004H134.385V240.84H150.807V244.004H144.283V261H140.909ZM161.572 261.42C159.556 261.42 157.829 260.981 156.392 260.104C154.955 259.217 153.849 257.985 153.074 256.408C152.309 254.831 151.926 253.001 151.926 250.92C151.926 248.839 152.309 247.009 153.074 245.432C153.849 243.855 154.955 242.627 156.392 241.75C157.829 240.863 159.556 240.42 161.572 240.42C163.588 240.42 165.315 240.863 166.752 241.75C168.199 242.627 169.305 243.855 170.07 245.432C170.845 247.009 171.232 248.839 171.232 250.92C171.232 253.001 170.845 254.831 170.07 256.408C169.305 257.985 168.199 259.217 166.752 260.104C165.315 260.981 163.588 261.42 161.572 261.42ZM161.572 258.242C162.925 258.251 164.05 257.953 164.946 257.346C165.851 256.739 166.528 255.885 166.976 254.784C167.433 253.683 167.662 252.395 167.662 250.92C167.662 249.445 167.433 248.167 166.976 247.084C166.528 245.992 165.851 245.143 164.946 244.536C164.05 243.929 162.925 243.617 161.572 243.598C160.219 243.589 159.094 243.887 158.198 244.494C157.302 245.101 156.625 245.955 156.168 247.056C155.72 248.157 155.496 249.445 155.496 250.92C155.496 252.395 155.72 253.678 156.168 254.77C156.616 255.853 157.288 256.697 158.184 257.304C159.089 257.911 160.219 258.223 161.572 258.242ZM179.624 261V240.84H182.998V250.192L191.048 240.84H195.192L186.526 250.724L195.78 261H191.496L182.998 251.592V261H179.624ZM197.753 261V240.84H201.169L210.521 255.05V240.84H213.937V261H210.521L201.169 246.79V261H197.753ZM226.377 261.42C224.361 261.42 222.634 260.981 221.197 260.104C219.759 259.217 218.653 257.985 217.879 256.408C217.113 254.831 216.731 253.001 216.731 250.92C216.731 248.839 217.113 247.009 217.879 245.432C218.653 243.855 219.759 242.627 221.197 241.75C222.634 240.863 224.361 240.42 226.377 240.42C228.393 240.42 230.119 240.863 231.557 241.75C233.003 242.627 234.109 243.855 234.875 245.432C235.649 247.009 236.037 248.839 236.037 250.92C236.037 253.001 235.649 254.831 234.875 256.408C234.109 257.985 233.003 259.217 231.557 260.104C230.119 260.981 228.393 261.42 226.377 261.42ZM226.377 258.242C227.73 258.251 228.855 257.953 229.751 257.346C230.656 256.739 231.333 255.885 231.781 254.784C232.238 253.683 232.467 252.395 232.467 250.92C232.467 249.445 232.238 248.167 231.781 247.084C231.333 245.992 230.656 245.143 229.751 244.536C228.855 243.929 227.73 243.617 226.377 243.598C225.023 243.589 223.899 243.887 223.003 244.494C222.107 245.101 221.43 245.955 220.973 247.056C220.525 248.157 220.301 249.445 220.301 250.92C220.301 252.395 220.525 253.678 220.973 254.77C221.421 255.853 222.093 256.697 222.989 257.304C223.894 257.911 225.023 258.223 226.377 258.242ZM242.232 261L236.338 240.84H239.88L243.898 255.4L247.902 240.868L251.444 240.84L255.462 255.4L259.466 240.84H263.008L257.128 261H253.796L249.666 246.664L245.564 261H242.232ZM275.742 261V244.004H269.218V240.84H285.64V244.004H279.116V261H275.742ZM287.878 261V240.84H291.252V249.324H300.8V240.84H304.16V261H300.8V252.488H291.252V261H287.878ZM308.085 261V240.84H321.105V244.004H311.459V248.974H319.425V252.138H311.459V257.836H321.105V261H308.085ZM338.595 261.42C336.579 261.42 334.853 260.981 333.415 260.104C331.978 259.217 330.872 257.985 330.097 256.408C329.332 254.831 328.949 253.001 328.949 250.92C328.949 248.839 329.332 247.009 330.097 245.432C330.872 243.855 331.978 242.627 333.415 241.75C334.853 240.863 336.579 240.42 338.595 240.42C340.611 240.42 342.338 240.863 343.775 241.75C345.222 242.627 346.328 243.855 347.093 245.432C347.868 247.009 348.255 248.839 348.255 250.92C348.255 253.001 347.868 254.831 347.093 256.408C346.328 257.985 345.222 259.217 343.775 260.104C342.338 260.981 340.611 261.42 338.595 261.42ZM338.595 258.242C339.949 258.251 341.073 257.953 341.969 257.346C342.875 256.739 343.551 255.885 343.999 254.784C344.457 253.683 344.685 252.395 344.685 250.92C344.685 249.445 344.457 248.167 343.999 247.084C343.551 245.992 342.875 245.143 341.969 244.536C341.073 243.929 339.949 243.617 338.595 243.598C337.242 243.589 336.117 243.887 335.221 244.494C334.325 245.101 333.649 245.955 333.191 247.056C332.743 248.157 332.519 249.445 332.519 250.92C332.519 252.395 332.743 253.678 333.191 254.77C333.639 255.853 334.311 256.697 335.207 257.304C336.113 257.911 337.242 258.223 338.595 258.242ZM351.042 261V240.84H359.372C359.568 240.84 359.82 240.849 360.128 240.868C360.436 240.877 360.721 240.905 360.982 240.952C362.149 241.129 363.11 241.517 363.866 242.114C364.631 242.711 365.196 243.467 365.56 244.382C365.933 245.287 366.12 246.295 366.12 247.406C366.12 249.049 365.705 250.463 364.874 251.648C364.043 252.824 362.769 253.552 361.052 253.832L359.61 253.958H354.416V261H351.042ZM362.62 261L358.644 252.796L362.074 252.04L366.442 261H362.62ZM354.416 250.808H359.232C359.419 250.808 359.629 250.799 359.862 250.78C360.095 250.761 360.31 250.724 360.506 250.668C361.066 250.528 361.505 250.281 361.822 249.926C362.149 249.571 362.377 249.17 362.508 248.722C362.648 248.274 362.718 247.835 362.718 247.406C362.718 246.977 362.648 246.538 362.508 246.09C362.377 245.633 362.149 245.227 361.822 244.872C361.505 244.517 361.066 244.27 360.506 244.13C360.31 244.074 360.095 244.041 359.862 244.032C359.629 244.013 359.419 244.004 359.232 244.004H354.416V250.808ZM369.806 261V240.84H373.18V261H369.806ZM385.69 261.42C384.383 261.42 383.156 261.191 382.008 260.734C380.869 260.267 379.866 259.586 378.998 258.69C378.139 257.794 377.467 256.697 376.982 255.4C376.497 254.093 376.254 252.6 376.254 250.92C376.254 248.717 376.665 246.837 377.486 245.278C378.307 243.71 379.432 242.511 380.86 241.68C382.288 240.84 383.898 240.42 385.69 240.42C388.173 240.42 390.137 240.999 391.584 242.156C393.04 243.304 394.025 244.919 394.538 247L391.094 247.546C390.711 246.351 390.086 245.399 389.218 244.69C388.35 243.971 387.244 243.612 385.9 243.612C384.547 243.593 383.422 243.887 382.526 244.494C381.63 245.101 380.953 245.955 380.496 247.056C380.048 248.157 379.824 249.445 379.824 250.92C379.824 252.395 380.048 253.678 380.496 254.77C380.944 255.853 381.616 256.697 382.512 257.304C383.417 257.911 384.547 258.223 385.9 258.242C386.917 258.251 387.809 258.069 388.574 257.696C389.339 257.313 389.965 256.739 390.45 255.974C390.935 255.199 391.262 254.233 391.43 253.076H387.874V250.43H395.014C395.033 250.579 395.047 250.799 395.056 251.088C395.065 251.377 395.07 251.55 395.07 251.606C395.07 253.51 394.692 255.204 393.936 256.688C393.189 258.163 392.116 259.32 390.716 260.16C389.316 261 387.641 261.42 385.69 261.42ZM398.162 261V240.84H401.536V261H398.162ZM405.73 261V240.84H409.146L418.498 255.05V240.84H421.914V261H418.498L409.146 246.79V261H405.73ZM439.959 261.42C437.943 261.42 436.216 260.981 434.779 260.104C433.341 259.217 432.235 257.985 431.461 256.408C430.695 254.831 430.313 253.001 430.313 250.92C430.313 248.839 430.695 247.009 431.461 245.432C432.235 243.855 433.341 242.627 434.779 241.75C436.216 240.863 437.943 240.42 439.959 240.42C441.975 240.42 443.701 240.863 445.139 241.75C446.585 242.627 447.691 243.855 448.457 245.432C449.231 247.009 449.619 248.839 449.619 250.92C449.619 253.001 449.231 254.831 448.457 256.408C447.691 257.985 446.585 259.217 445.139 260.104C443.701 260.981 441.975 261.42 439.959 261.42ZM439.959 258.242C441.312 258.251 442.437 257.953 443.333 257.346C444.238 256.739 444.915 255.885 445.363 254.784C445.82 253.683 446.049 252.395 446.049 250.92C446.049 249.445 445.82 248.167 445.363 247.084C444.915 245.992 444.238 245.143 443.333 244.536C442.437 243.929 441.312 243.617 439.959 243.598C438.605 243.589 437.481 243.887 436.585 244.494C435.689 245.101 435.012 245.955 434.555 247.056C434.107 248.157 433.883 249.445 433.883 250.92C433.883 252.395 434.107 253.678 434.555 254.77C435.003 255.853 435.675 256.697 436.571 257.304C437.476 257.911 438.605 258.223 439.959 258.242ZM452.405 261V240.84H464.543V244.214H455.779V249.24H462.863V252.6H455.779V261H452.405ZM472.947 261V240.84H476.321V257.836H485.225V261H472.947ZM487.877 261V240.84H491.251V261H487.877ZM495.444 261V240.84H507.582V244.214H498.818V249.24H505.902V252.6H498.818V261H495.444ZM510.101 261V240.84H523.121V244.004H513.475V248.974H521.441V252.138H513.475V257.836H523.121V261H510.101ZM241.73 300.42C239.714 300.42 237.987 299.981 236.55 299.104C235.113 298.217 234.007 296.985 233.232 295.408C232.467 293.831 232.084 292.001 232.084 289.92C232.084 287.839 232.467 286.009 233.232 284.432C234.007 282.855 235.113 281.627 236.55 280.75C237.987 279.863 239.714 279.42 241.73 279.42C243.746 279.42 245.473 279.863 246.91 280.75C248.357 281.627 249.463 282.855 250.228 284.432C251.003 286.009 251.39 287.839 251.39 289.92C251.39 292.001 251.003 293.831 250.228 295.408C249.463 296.985 248.357 298.217 246.91 299.104C245.473 299.981 243.746 300.42 241.73 300.42ZM241.73 297.242C243.083 297.251 244.208 296.953 245.104 296.346C246.009 295.739 246.686 294.885 247.134 293.784C247.591 292.683 247.82 291.395 247.82 289.92C247.82 288.445 247.591 287.167 247.134 286.084C246.686 284.992 246.009 284.143 245.104 283.536C244.208 282.929 243.083 282.617 241.73 282.598C240.377 282.589 239.252 282.887 238.356 283.494C237.46 284.101 236.783 284.955 236.326 286.056C235.878 287.157 235.654 288.445 235.654 289.92C235.654 291.395 235.878 292.678 236.326 293.77C236.774 294.853 237.446 295.697 238.342 296.304C239.247 296.911 240.377 297.223 241.73 297.242ZM254.177 300V279.84H257.593L266.945 294.05V279.84H270.361V300H266.945L257.593 285.79V300H254.177ZM279.88 300V279.84H292.9V283.004H283.254V287.974H291.22V291.138H283.254V296.836H292.9V300H279.88ZM294.859 300L301.215 279.84H306.157L312.513 300H309.041L303.273 281.912H304.029L298.331 300H294.859ZM298.401 295.632V292.482H308.985V295.632H298.401ZM315.044 300V279.84H323.374C323.57 279.84 323.822 279.849 324.13 279.868C324.438 279.877 324.723 279.905 324.984 279.952C326.151 280.129 327.112 280.517 327.868 281.114C328.633 281.711 329.198 282.467 329.562 283.382C329.935 284.287 330.122 285.295 330.122 286.406C330.122 288.049 329.707 289.463 328.876 290.648C328.045 291.824 326.771 292.552 325.054 292.832L323.612 292.958H318.418V300H315.044ZM326.622 300L322.646 291.796L326.076 291.04L330.444 300H326.622ZM318.418 289.808H323.234C323.421 289.808 323.631 289.799 323.864 289.78C324.097 289.761 324.312 289.724 324.508 289.668C325.068 289.528 325.507 289.281 325.824 288.926C326.151 288.571 326.379 288.17 326.51 287.722C326.65 287.274 326.72 286.835 326.72 286.406C326.72 285.977 326.65 285.538 326.51 285.09C326.379 284.633 326.151 284.227 325.824 283.872C325.507 283.517 325.068 283.27 324.508 283.13C324.312 283.074 324.097 283.041 323.864 283.032C323.631 283.013 323.421 283.004 323.234 283.004H318.418V289.808ZM338.372 300V283.004H331.848V279.84H348.27V283.004H341.746V300H338.372ZM350.509 300V279.84H353.883V288.324H363.431V279.84H366.791V300H363.431V291.488H353.883V300H350.509Z" fill="white"></path> <rect y="475" width="600" height="300" rx="20" fill="#0BA360"></rect> <path d="M59.0286 636V619.004H52.5046V615.84H68.9266V619.004H62.4026V636H59.0286ZM71.1651 636V615.84H74.5391V624.324H84.0871V615.84H87.4471V636H84.0871V627.488H74.5391V636H71.1651ZM91.3721 636V615.84H104.392V619.004H94.7461V623.974H102.712V627.138H94.7461V632.836H104.392V636H91.3721ZM113.356 636V615.84H125.494V619.214H116.73V624.24H123.814V627.6H116.73V636H113.356ZM136.133 636.42C134.527 636.42 133.113 636.093 131.891 635.44C130.677 634.787 129.725 633.867 129.035 632.682C128.353 631.497 128.013 630.106 128.013 628.51V615.868L131.429 615.84V628.426C131.429 629.182 131.555 629.859 131.807 630.456C132.068 631.053 132.418 631.562 132.857 631.982C133.295 632.393 133.799 632.705 134.369 632.92C134.938 633.135 135.526 633.242 136.133 633.242C136.758 633.242 137.351 633.135 137.911 632.92C138.48 632.696 138.984 632.379 139.423 631.968C139.861 631.548 140.207 631.039 140.459 630.442C140.711 629.845 140.837 629.173 140.837 628.426V615.84H144.253V628.51C144.253 630.106 143.907 631.497 143.217 632.682C142.535 633.867 141.583 634.787 140.361 635.44C139.147 636.093 137.738 636.42 136.133 636.42ZM148.445 636V615.84H151.819V632.836H160.723V636H148.445ZM163.375 636V615.84H166.749V632.836H175.653V636H163.375ZM180.835 636L187.191 615.84H192.133L198.489 636H195.017L189.249 617.912H190.005L184.307 636H180.835ZM184.377 631.632V628.482H194.961V631.632H184.377ZM201.021 636V615.84H204.437L213.789 630.05V615.84H217.205V636H213.789L204.437 621.79V636H201.021ZM229.644 636.42C227.628 636.42 225.902 635.981 224.464 635.104C223.027 634.217 221.921 632.985 221.146 631.408C220.381 629.831 219.998 628.001 219.998 625.92C219.998 623.839 220.381 622.009 221.146 620.432C221.921 618.855 223.027 617.627 224.464 616.75C225.902 615.863 227.628 615.42 229.644 615.42C231.968 615.42 233.905 616.003 235.454 617.17C237.004 618.327 238.091 619.891 238.716 621.86L235.314 622.798C234.922 621.482 234.255 620.455 233.312 619.718C232.37 618.971 231.147 618.598 229.644 618.598C228.291 618.598 227.162 618.901 226.256 619.508C225.36 620.115 224.684 620.969 224.226 622.07C223.778 623.162 223.55 624.445 223.54 625.92C223.54 627.395 223.764 628.683 224.212 629.784C224.67 630.876 225.351 631.725 226.256 632.332C227.162 632.939 228.291 633.242 229.644 633.242C231.147 633.242 232.37 632.869 233.312 632.122C234.255 631.375 234.922 630.349 235.314 629.042L238.716 629.98C238.091 631.949 237.004 633.517 235.454 634.684C233.905 635.841 231.968 636.42 229.644 636.42ZM241.79 636V615.84H254.81V619.004H245.164V623.974H253.13V627.138H245.164V632.836H254.81V636H241.79ZM265.44 636.42C263.965 636.42 262.635 636.163 261.45 635.65C260.274 635.137 259.303 634.404 258.538 633.452C257.782 632.491 257.301 631.352 257.096 630.036L260.596 629.504C260.894 630.699 261.506 631.623 262.43 632.276C263.363 632.929 264.436 633.256 265.65 633.256C266.368 633.256 267.045 633.144 267.68 632.92C268.314 632.696 268.828 632.369 269.22 631.94C269.621 631.511 269.822 630.983 269.822 630.358C269.822 630.078 269.775 629.821 269.682 629.588C269.588 629.345 269.448 629.131 269.262 628.944C269.084 628.757 268.851 628.589 268.562 628.44C268.282 628.281 267.955 628.146 267.582 628.034L262.374 626.494C261.926 626.363 261.44 626.191 260.918 625.976C260.404 625.752 259.914 625.449 259.448 625.066C258.99 624.674 258.612 624.179 258.314 623.582C258.024 622.975 257.88 622.229 257.88 621.342C257.88 620.045 258.206 618.957 258.86 618.08C259.522 617.193 260.409 616.531 261.52 616.092C262.64 615.653 263.881 615.439 265.244 615.448C266.625 615.457 267.857 615.695 268.94 616.162C270.022 616.619 270.928 617.287 271.656 618.164C272.384 619.041 272.897 620.101 273.196 621.342L269.57 621.972C269.42 621.263 269.131 620.661 268.702 620.166C268.282 619.662 267.764 619.279 267.148 619.018C266.541 618.757 265.892 618.617 265.202 618.598C264.53 618.589 263.904 618.691 263.326 618.906C262.756 619.111 262.294 619.41 261.94 619.802C261.594 620.194 261.422 620.651 261.422 621.174C261.422 621.669 261.571 622.075 261.87 622.392C262.168 622.7 262.537 622.947 262.976 623.134C263.424 623.311 263.876 623.461 264.334 623.582L267.946 624.59C268.44 624.721 268.996 624.898 269.612 625.122C270.228 625.346 270.82 625.659 271.39 626.06C271.959 626.461 272.426 626.989 272.79 627.642C273.163 628.295 273.35 629.126 273.35 630.134C273.35 631.179 273.13 632.099 272.692 632.892C272.262 633.676 271.679 634.329 270.942 634.852C270.204 635.375 269.36 635.767 268.408 636.028C267.465 636.289 266.476 636.42 265.44 636.42ZM281.224 636V619.004H274.7V615.84H291.122V619.004H284.598V636H281.224ZM293.36 636V615.84H301.69C301.886 615.84 302.138 615.849 302.446 615.868C302.754 615.877 303.039 615.905 303.3 615.952C304.467 616.129 305.428 616.517 306.184 617.114C306.95 617.711 307.514 618.467 307.878 619.382C308.252 620.287 308.438 621.295 308.438 622.406C308.438 624.049 308.023 625.463 307.192 626.648C306.362 627.824 305.088 628.552 303.37 628.832L301.928 628.958H296.734V636H293.36ZM304.938 636L300.962 627.796L304.392 627.04L308.76 636H304.938ZM296.734 625.808H301.55C301.737 625.808 301.947 625.799 302.18 625.78C302.414 625.761 302.628 625.724 302.824 625.668C303.384 625.528 303.823 625.281 304.14 624.926C304.467 624.571 304.696 624.17 304.826 623.722C304.966 623.274 305.036 622.835 305.036 622.406C305.036 621.977 304.966 621.538 304.826 621.09C304.696 620.633 304.467 620.227 304.14 619.872C303.823 619.517 303.384 619.27 302.824 619.13C302.628 619.074 302.414 619.041 302.18 619.032C301.947 619.013 301.737 619.004 301.55 619.004H296.734V625.808ZM316.362 636V627.74L309.502 615.84H313.436L318.07 623.876L322.69 615.84H326.624L319.778 627.74V636H316.362ZM341.59 636.42C339.574 636.42 337.847 635.981 336.41 635.104C334.972 634.217 333.866 632.985 333.092 631.408C332.326 629.831 331.944 628.001 331.944 625.92C331.944 623.839 332.326 622.009 333.092 620.432C333.866 618.855 334.972 617.627 336.41 616.75C337.847 615.863 339.574 615.42 341.59 615.42C343.606 615.42 345.332 615.863 346.77 616.75C348.216 617.627 349.322 618.855 350.088 620.432C350.862 622.009 351.25 623.839 351.25 625.92C351.25 628.001 350.862 629.831 350.088 631.408C349.322 632.985 348.216 634.217 346.77 635.104C345.332 635.981 343.606 636.42 341.59 636.42ZM341.59 633.242C342.943 633.251 344.068 632.953 344.964 632.346C345.869 631.739 346.546 630.885 346.994 629.784C347.451 628.683 347.68 627.395 347.68 625.92C347.68 624.445 347.451 623.167 346.994 622.084C346.546 620.992 345.869 620.143 344.964 619.536C344.068 618.929 342.943 618.617 341.59 618.598C340.236 618.589 339.112 618.887 338.216 619.494C337.32 620.101 336.643 620.955 336.186 622.056C335.738 623.157 335.514 624.445 335.514 625.92C335.514 627.395 335.738 628.678 336.186 629.77C336.634 630.853 337.306 631.697 338.202 632.304C339.107 632.911 340.236 633.223 341.59 633.242ZM354.036 636V615.84H366.174V619.214H357.41V624.24H364.494V627.6H357.41V636H354.036ZM379.198 636V627.74L372.338 615.84H376.272L380.906 623.876L385.526 615.84H389.46L382.614 627.74V636H379.198ZM398.82 636.42C396.804 636.42 395.077 635.981 393.64 635.104C392.203 634.217 391.097 632.985 390.322 631.408C389.557 629.831 389.174 628.001 389.174 625.92C389.174 623.839 389.557 622.009 390.322 620.432C391.097 618.855 392.203 617.627 393.64 616.75C395.077 615.863 396.804 615.42 398.82 615.42C400.836 615.42 402.563 615.863 404 616.75C405.447 617.627 406.553 618.855 407.318 620.432C408.093 622.009 408.48 623.839 408.48 625.92C408.48 628.001 408.093 629.831 407.318 631.408C406.553 632.985 405.447 634.217 404 635.104C402.563 635.981 400.836 636.42 398.82 636.42ZM398.82 633.242C400.173 633.251 401.298 632.953 402.194 632.346C403.099 631.739 403.776 630.885 404.224 629.784C404.681 628.683 404.91 627.395 404.91 625.92C404.91 624.445 404.681 623.167 404.224 622.084C403.776 620.992 403.099 620.143 402.194 619.536C401.298 618.929 400.173 618.617 398.82 618.598C397.467 618.589 396.342 618.887 395.446 619.494C394.55 620.101 393.873 620.955 393.416 622.056C392.968 623.157 392.744 624.445 392.744 625.92C392.744 627.395 392.968 628.678 393.416 629.77C393.864 630.853 394.536 631.697 395.432 632.304C396.337 632.911 397.467 633.223 398.82 633.242ZM419.387 636.42C417.781 636.42 416.367 636.093 415.145 635.44C413.931 634.787 412.979 633.867 412.289 632.682C411.607 631.497 411.267 630.106 411.267 628.51V615.868L414.683 615.84V628.426C414.683 629.182 414.809 629.859 415.061 630.456C415.322 631.053 415.672 631.562 416.111 631.982C416.549 632.393 417.053 632.705 417.623 632.92C418.192 633.135 418.78 633.242 419.387 633.242C420.012 633.242 420.605 633.135 421.165 632.92C421.734 632.696 422.238 632.379 422.677 631.968C423.115 631.548 423.461 631.039 423.713 630.442C423.965 629.845 424.091 629.173 424.091 628.426V615.84H427.507V628.51C427.507 630.106 427.161 631.497 426.471 632.682C425.789 633.867 424.837 634.787 423.615 635.44C422.401 636.093 420.992 636.42 419.387 636.42ZM431.419 636V615.84H439.749C439.945 615.84 440.197 615.849 440.505 615.868C440.813 615.877 441.098 615.905 441.359 615.952C442.526 616.129 443.487 616.517 444.243 617.114C445.008 617.711 445.573 618.467 445.937 619.382C446.31 620.287 446.497 621.295 446.497 622.406C446.497 624.049 446.082 625.463 445.251 626.648C444.42 627.824 443.146 628.552 441.429 628.832L439.987 628.958H434.793V636H431.419ZM442.997 636L439.021 627.796L442.451 627.04L446.819 636H442.997ZM434.793 625.808H439.609C439.796 625.808 440.006 625.799 440.239 625.78C440.472 625.761 440.687 625.724 440.883 625.668C441.443 625.528 441.882 625.281 442.199 624.926C442.526 624.571 442.754 624.17 442.885 623.722C443.025 623.274 443.095 622.835 443.095 622.406C443.095 621.977 443.025 621.538 442.885 621.09C442.754 620.633 442.526 620.227 442.199 619.872C441.882 619.517 441.443 619.27 440.883 619.13C440.687 619.074 440.472 619.041 440.239 619.032C440.006 619.013 439.796 619.004 439.609 619.004H434.793V625.808ZM455.509 636V615.84H467.647V619.214H458.883V624.24H465.967V627.6H458.883V636H455.509ZM468.492 636L474.848 615.84H479.79L486.146 636H482.674L476.906 617.912H477.662L471.964 636H468.492ZM472.034 631.632V628.482H482.618V631.632H472.034ZM488.677 636V615.84H491.715L498.687 630.12L505.659 615.84H508.697V636H505.547V623.078L499.359 636H498.015L491.841 623.078V636H488.677ZM512.91 636V615.84H516.284V636H512.91ZM520.758 636V615.84H524.132V632.836H533.036V636H520.758ZM537.518 636V627.74L530.658 615.84H534.592L539.226 623.876L543.846 615.84H547.78L540.934 627.74V636H537.518Z" fill="white"></path> <circle cx="300" cy="448" r="60" fill="#F9F9F9"></circle> <path d="M288.777 461.51C286.329 461.51 284.232 460.977 282.487 459.912C280.742 458.835 279.399 457.339 278.458 455.424C277.529 453.509 277.064 451.287 277.064 448.76C277.064 446.233 277.529 444.011 278.458 442.096C279.399 440.181 280.742 438.69 282.487 437.625C284.232 436.548 286.329 436.01 288.777 436.01C291.225 436.01 293.322 436.548 295.067 437.625C296.824 438.69 298.167 440.181 299.096 442.096C300.037 444.011 300.507 446.233 300.507 448.76C300.507 451.287 300.037 453.509 299.096 455.424C298.167 457.339 296.824 458.835 295.067 459.912C293.322 460.977 291.225 461.51 288.777 461.51ZM288.777 457.651C290.42 457.662 291.786 457.3 292.874 456.563C293.973 455.826 294.795 454.789 295.339 453.452C295.894 452.115 296.172 450.551 296.172 448.76C296.172 446.969 295.894 445.417 295.339 444.102C294.795 442.776 293.973 441.745 292.874 441.008C291.786 440.271 290.42 439.892 288.777 439.869C287.134 439.858 285.768 440.22 284.68 440.957C283.592 441.694 282.77 442.731 282.215 444.068C281.671 445.405 281.399 446.969 281.399 448.76C281.399 450.551 281.671 452.109 282.215 453.435C282.759 454.75 283.575 455.775 284.663 456.512C285.762 457.249 287.134 457.628 288.777 457.651ZM303.891 461V436.52H314.006C314.244 436.52 314.55 436.531 314.924 436.554C315.298 436.565 315.643 436.599 315.961 436.656C317.377 436.871 318.545 437.342 319.463 438.067C320.392 438.792 321.078 439.71 321.52 440.821C321.973 441.92 322.2 443.144 322.2 444.493C322.2 446.488 321.695 448.205 320.687 449.644C319.678 451.072 318.131 451.956 316.046 452.296L314.295 452.449H307.988V461H303.891ZM317.95 461L313.122 451.038L317.287 450.12L322.591 461H317.95ZM307.988 448.624H313.836C314.062 448.624 314.317 448.613 314.601 448.59C314.884 448.567 315.145 448.522 315.383 448.454C316.063 448.284 316.595 447.984 316.981 447.553C317.377 447.122 317.655 446.635 317.814 446.091C317.984 445.547 318.069 445.014 318.069 444.493C318.069 443.972 317.984 443.439 317.814 442.895C317.655 442.34 317.377 441.847 316.981 441.416C316.595 440.985 316.063 440.685 315.383 440.515C315.145 440.447 314.884 440.407 314.601 440.396C314.317 440.373 314.062 440.362 313.836 440.362H307.988V448.624Z" fill="#3E1BC9"></path> </svg> 