<?xml version="1.0" encoding="UTF-8"?> <svg xmlns="http://www.w3.org/2000/svg" width="600" height="775" viewBox="0 0 600 775" fill="none"> <rect width="600" height="775" rx="20" fill="#F9F9F9"></rect> <path d="M129.614 73L122.457 48.52H126.758L131.637 66.2L136.499 48.554L140.8 48.52L145.679 66.2L150.541 48.52H154.842L147.702 73H143.656L138.641 55.592L133.66 73H129.614ZM167.305 73.51C164.857 73.51 162.761 72.9773 161.015 71.912C159.27 70.8353 157.927 69.3393 156.986 67.424C156.057 65.5087 155.592 63.2873 155.592 60.76C155.592 58.2327 156.057 56.0113 156.986 54.096C157.927 52.1807 159.27 50.6903 161.015 49.625C162.761 48.5483 164.857 48.01 167.305 48.01C169.753 48.01 171.85 48.5483 173.595 49.625C175.352 50.6903 176.695 52.1807 177.624 54.096C178.565 56.0113 179.035 58.2327 179.035 60.76C179.035 63.2873 178.565 65.5087 177.624 67.424C176.695 69.3393 175.352 70.8353 173.595 71.912C171.85 72.9773 169.753 73.51 167.305 73.51ZM167.305 69.651C168.949 69.6623 170.314 69.2997 171.402 68.563C172.502 67.8263 173.323 66.7893 173.867 65.452C174.423 64.1147 174.7 62.5507 174.7 60.76C174.7 58.9693 174.423 57.4167 173.867 56.102C173.323 54.776 172.502 53.7447 171.402 53.008C170.314 52.2713 168.949 51.8917 167.305 51.869C165.662 51.8577 164.296 52.2203 163.208 52.957C162.12 53.6937 161.299 54.7307 160.743 56.068C160.199 57.4053 159.927 58.9693 159.927 60.76C159.927 62.5507 160.199 64.109 160.743 65.435C161.287 66.7497 162.103 67.7753 163.191 68.512C164.291 69.2487 165.662 69.6283 167.305 69.651ZM192.279 73.51C190.33 73.51 188.613 73.1133 187.128 72.32C185.655 71.5267 184.499 70.4103 183.66 68.971C182.833 67.5317 182.419 65.843 182.419 63.905V48.554L186.567 48.52V63.803C186.567 64.721 186.72 65.5427 187.026 66.268C187.343 66.9933 187.768 67.611 188.301 68.121C188.834 68.6197 189.446 68.9993 190.137 69.26C190.828 69.5207 191.542 69.651 192.279 69.651C193.038 69.651 193.758 69.5207 194.438 69.26C195.129 68.988 195.741 68.6027 196.274 68.104C196.807 67.594 197.226 66.9763 197.532 66.251C197.838 65.5257 197.991 64.7097 197.991 63.803V48.52H202.139V63.905C202.139 65.843 201.72 67.5317 200.881 68.971C200.054 70.4103 198.898 71.5267 197.413 72.32C195.94 73.1133 194.228 73.51 192.279 73.51ZM207.23 73V48.52H211.327V69.158H222.139V73H207.23ZM225.019 73V48.52H232.822C233.026 48.52 233.428 48.5257 234.029 48.537C234.641 48.5483 235.23 48.588 235.797 48.656C237.735 48.9053 239.372 49.5967 240.71 50.73C242.058 51.852 243.078 53.2857 243.77 55.031C244.461 56.7763 244.807 58.686 244.807 60.76C244.807 62.834 244.461 64.7437 243.77 66.489C243.078 68.2343 242.058 69.6737 240.71 70.807C239.372 71.929 237.735 72.6147 235.797 72.864C235.241 72.932 234.658 72.9717 234.046 72.983C233.434 72.9943 233.026 73 232.822 73H225.019ZM229.184 69.141H232.822C233.162 69.141 233.592 69.1297 234.114 69.107C234.646 69.0843 235.117 69.0333 235.525 68.954C236.681 68.7387 237.621 68.223 238.347 67.407C239.072 66.591 239.605 65.5993 239.945 64.432C240.296 63.2647 240.472 62.0407 240.472 60.76C240.472 59.434 240.296 58.1873 239.945 57.02C239.593 55.8527 239.049 54.8723 238.313 54.079C237.587 53.2857 236.658 52.7813 235.525 52.566C235.117 52.4753 234.646 52.4243 234.114 52.413C233.592 52.3903 233.162 52.379 232.822 52.379H229.184V69.141ZM261.582 73V62.97L253.252 48.52H258.029L263.656 58.278L269.266 48.52H274.043L265.73 62.97V73H261.582ZM285.409 73.51C282.961 73.51 280.864 72.9773 279.119 71.912C277.373 70.8353 276.03 69.3393 275.09 67.424C274.16 65.5087 273.696 63.2873 273.696 60.76C273.696 58.2327 274.16 56.0113 275.09 54.096C276.03 52.1807 277.373 50.6903 279.119 49.625C280.864 48.5483 282.961 48.01 285.409 48.01C287.857 48.01 289.953 48.5483 291.699 49.625C293.455 50.6903 294.798 52.1807 295.728 54.096C296.668 56.0113 297.139 58.2327 297.139 60.76C297.139 63.2873 296.668 65.5087 295.728 67.424C294.798 69.3393 293.455 70.8353 291.699 71.912C289.953 72.9773 287.857 73.51 285.409 73.51ZM285.409 69.651C287.052 69.6623 288.418 69.2997 289.506 68.563C290.605 67.8263 291.427 66.7893 291.971 65.452C292.526 64.1147 292.804 62.5507 292.804 60.76C292.804 58.9693 292.526 57.4167 291.971 56.102C291.427 54.776 290.605 53.7447 289.506 53.008C288.418 52.2713 287.052 51.8917 285.409 51.869C283.765 51.8577 282.4 52.2203 281.312 52.957C280.224 53.6937 279.402 54.7307 278.847 56.068C278.303 57.4053 278.031 58.9693 278.031 60.76C278.031 62.5507 278.303 64.109 278.847 65.435C279.391 66.7497 280.207 67.7753 281.295 68.512C282.394 69.2487 283.765 69.6283 285.409 69.651ZM310.383 73.51C308.433 73.51 306.716 73.1133 305.232 72.32C303.758 71.5267 302.602 70.4103 301.764 68.971C300.936 67.5317 300.523 65.843 300.523 63.905V48.554L304.671 48.52V63.803C304.671 64.721 304.824 65.5427 305.13 66.268C305.447 66.9933 305.872 67.611 306.405 68.121C306.937 68.6197 307.549 68.9993 308.241 69.26C308.932 69.5207 309.646 69.651 310.383 69.651C311.142 69.651 311.862 69.5207 312.542 69.26C313.233 68.988 313.845 68.6027 314.378 68.104C314.91 67.594 315.33 66.9763 315.636 66.251C315.942 65.5257 316.095 64.7097 316.095 63.803V48.52H320.243V63.905C320.243 65.843 319.823 67.5317 318.985 68.971C318.157 70.4103 317.001 71.5267 315.517 72.32C314.043 73.1133 312.332 73.51 310.383 73.51ZM331.8 73V48.52H341.915C342.153 48.52 342.459 48.5313 342.833 48.554C343.207 48.5653 343.553 48.5993 343.87 48.656C345.287 48.8713 346.454 49.3417 347.372 50.067C348.301 50.7923 348.987 51.7103 349.429 52.821C349.882 53.9203 350.109 55.1443 350.109 56.493C350.109 58.4877 349.605 60.2047 348.596 61.644C347.587 63.072 346.04 63.956 343.955 64.296L342.204 64.449H335.897V73H331.8ZM345.859 73L341.031 63.038L345.196 62.12L350.5 73H345.859ZM335.897 60.624H341.745C341.972 60.624 342.227 60.6127 342.51 60.59C342.793 60.5673 343.054 60.522 343.292 60.454C343.972 60.284 344.505 59.9837 344.89 59.553C345.287 59.1223 345.564 58.635 345.723 58.091C345.893 57.547 345.978 57.0143 345.978 56.493C345.978 55.9717 345.893 55.439 345.723 54.895C345.564 54.3397 345.287 53.8467 344.89 53.416C344.505 52.9853 343.972 52.685 343.292 52.515C343.054 52.447 342.793 52.4073 342.51 52.396C342.227 52.3733 341.972 52.362 341.745 52.362H335.897V60.624ZM352.545 73L360.263 48.52H366.264L373.982 73H369.766L362.762 51.036H363.68L356.761 73H352.545ZM356.846 67.696V63.871H369.698V67.696H356.846ZM380.912 73V52.362H372.99V48.52H392.931V52.362H385.009V73H380.912ZM395.65 73V48.52H399.747V58.822H411.341V48.52H415.421V73H411.341V62.664H399.747V73H395.65ZM420.187 73V48.52H435.997V52.362H424.284V58.397H433.957V62.239H424.284V69.158H435.997V73H420.187ZM440.075 73V48.52H450.19C450.428 48.52 450.734 48.5313 451.108 48.554C451.482 48.5653 451.828 48.5993 452.145 48.656C453.562 48.8713 454.729 49.3417 455.647 50.067C456.577 50.7923 457.262 51.7103 457.704 52.821C458.158 53.9203 458.384 55.1443 458.384 56.493C458.384 58.4877 457.88 60.2047 456.871 61.644C455.863 63.072 454.316 63.956 452.23 64.296L450.479 64.449H444.172V73H440.075ZM454.134 73L449.306 63.038L453.471 62.12L458.775 73H454.134ZM444.172 60.624H450.02C450.247 60.624 450.502 60.6127 450.785 60.59C451.069 60.5673 451.329 60.522 451.567 60.454C452.247 60.284 452.78 59.9837 453.165 59.553C453.562 59.1223 453.84 58.635 453.998 58.091C454.168 57.547 454.253 57.0143 454.253 56.493C454.253 55.9717 454.168 55.439 453.998 54.895C453.84 54.3397 453.562 53.8467 453.165 53.416C452.78 52.9853 452.247 52.685 451.567 52.515C451.329 52.447 451.069 52.4073 450.785 52.396C450.502 52.3733 450.247 52.362 450.02 52.362H444.172V60.624ZM466.958 66.353C466.958 65.571 467.031 64.8173 467.179 64.092C467.337 63.3553 467.592 62.6753 467.944 62.052C468.25 61.4513 468.59 60.9753 468.964 60.624C469.338 60.2613 469.757 59.9043 470.222 59.553C470.686 59.1903 471.202 58.7087 471.769 58.108C472.233 57.598 472.539 57.0937 472.687 56.595C472.834 56.085 472.908 55.541 472.908 54.963C472.908 54.589 472.868 54.2377 472.789 53.909C472.709 53.5803 472.568 53.297 472.364 53.059C472.046 52.6397 471.638 52.345 471.14 52.175C470.641 51.9937 470.108 51.903 469.542 51.903C469.077 51.903 468.629 51.9653 468.199 52.09C467.779 52.2033 467.422 52.3847 467.128 52.634C466.788 52.906 466.538 53.2403 466.38 53.637C466.221 54.0337 466.147 54.47 466.159 54.946H461.841C461.954 53.8127 462.26 52.7643 462.759 51.801C463.269 50.8263 463.937 50.05 464.765 49.472C465.411 48.996 466.136 48.639 466.941 48.401C467.757 48.163 468.573 48.044 469.389 48.044C470.635 48.044 471.808 48.2367 472.908 48.622C474.018 49.0073 474.942 49.642 475.679 50.526C476.189 51.104 476.574 51.7727 476.835 52.532C477.107 53.2913 477.243 54.062 477.243 54.844C477.243 56.0113 476.988 57.0767 476.478 58.04C475.979 59.0033 475.344 59.893 474.574 60.709C474.211 61.0943 473.865 61.4343 473.537 61.729C473.208 62.0237 472.902 62.3127 472.619 62.596C472.347 62.868 472.12 63.157 471.939 63.463C471.621 63.9957 471.434 64.449 471.378 64.823C471.321 65.1857 471.293 65.6957 471.293 66.353H466.958ZM466.992 73V68.495H471.293V73H466.992Z" fill="#3E1BC9"></path> <rect y="120" width="600" height="300" rx="20" fill="#3E1BC9"></rect> <path d="M84.3395 261.42C82.3235 261.42 80.5968 260.981 79.1595 260.104C77.7222 259.217 76.6162 257.985 75.8415 256.408C75.0762 254.831 74.6935 253.001 74.6935 250.92C74.6935 248.839 75.0762 247.009 75.8415 245.432C76.6162 243.855 77.7222 242.627 79.1595 241.75C80.5968 240.863 82.3235 240.42 84.3395 240.42C86.6635 240.42 88.6002 241.003 90.1495 242.17C91.6988 243.327 92.7862 244.891 93.4115 246.86L90.0095 247.798C89.6175 246.482 88.9502 245.455 88.0075 244.718C87.0648 243.971 85.8422 243.598 84.3395 243.598C82.9862 243.598 81.8568 243.901 80.9515 244.508C80.0555 245.115 79.3788 245.969 78.9215 247.07C78.4735 248.162 78.2448 249.445 78.2355 250.92C78.2355 252.395 78.4595 253.683 78.9075 254.784C79.3648 255.876 80.0462 256.725 80.9515 257.332C81.8568 257.939 82.9862 258.242 84.3395 258.242C85.8422 258.242 87.0648 257.869 88.0075 257.122C88.9502 256.375 89.6175 255.349 90.0095 254.042L93.4115 254.98C92.7862 256.949 91.6988 258.517 90.1495 259.684C88.6002 260.841 86.6635 261.42 84.3395 261.42ZM96.4854 261V240.84H99.8594V249.324H109.407V240.84H112.767V261H109.407V252.488H99.8594V261H96.4854ZM115.292 261L121.648 240.84H126.59L132.946 261H129.474L123.706 242.912H124.462L118.764 261H115.292ZM118.834 256.632V253.482H129.418V256.632H118.834ZM135.478 261V240.84H138.894L148.246 255.05V240.84H151.662V261H148.246L138.894 246.79V261H135.478ZM163.891 261.42C162.585 261.42 161.357 261.191 160.209 260.734C159.071 260.267 158.067 259.586 157.199 258.69C156.341 257.794 155.669 256.697 155.183 255.4C154.698 254.093 154.455 252.6 154.455 250.92C154.455 248.717 154.866 246.837 155.687 245.278C156.509 243.71 157.633 242.511 159.061 241.68C160.489 240.84 162.099 240.42 163.891 240.42C166.374 240.42 168.339 240.999 169.785 242.156C171.241 243.304 172.226 244.919 172.739 247L169.295 247.546C168.913 246.351 168.287 245.399 167.419 244.69C166.551 243.971 165.445 243.612 164.101 243.612C162.748 243.593 161.623 243.887 160.727 244.494C159.831 245.101 159.155 245.955 158.697 247.056C158.249 248.157 158.025 249.445 158.025 250.92C158.025 252.395 158.249 253.678 158.697 254.77C159.145 255.853 159.817 256.697 160.713 257.304C161.619 257.911 162.748 258.223 164.101 258.242C165.119 258.251 166.01 258.069 166.775 257.696C167.541 257.313 168.166 256.739 168.651 255.974C169.137 255.199 169.463 254.233 169.631 253.076H166.075V250.43H173.215C173.234 250.579 173.248 250.799 173.257 251.088C173.267 251.377 173.271 251.55 173.271 251.606C173.271 253.51 172.893 255.204 172.137 256.688C171.391 258.163 170.317 259.32 168.917 260.16C167.517 261 165.842 261.42 163.891 261.42ZM176.083 261V240.84H189.103V244.004H179.457V248.974H187.423V252.138H179.457V257.836H189.103V261H176.083ZM206.593 261.42C204.577 261.42 202.851 260.981 201.413 260.104C199.976 259.217 198.87 257.985 198.095 256.408C197.33 254.831 196.947 253.001 196.947 250.92C196.947 248.839 197.33 247.009 198.095 245.432C198.87 243.855 199.976 242.627 201.413 241.75C202.851 240.863 204.577 240.42 206.593 240.42C208.609 240.42 210.336 240.863 211.773 241.75C213.22 242.627 214.326 243.855 215.091 245.432C215.866 247.009 216.253 248.839 216.253 250.92C216.253 253.001 215.866 254.831 215.091 256.408C214.326 257.985 213.22 259.217 211.773 260.104C210.336 260.981 208.609 261.42 206.593 261.42ZM206.593 258.242C207.947 258.251 209.071 257.953 209.967 257.346C210.873 256.739 211.549 255.885 211.997 254.784C212.455 253.683 212.683 252.395 212.683 250.92C212.683 249.445 212.455 248.167 211.997 247.084C211.549 245.992 210.873 245.143 209.967 244.536C209.071 243.929 207.947 243.617 206.593 243.598C205.24 243.589 204.115 243.887 203.219 244.494C202.323 245.101 201.647 245.955 201.189 247.056C200.741 248.157 200.517 249.445 200.517 250.92C200.517 252.395 200.741 253.678 201.189 254.77C201.637 255.853 202.309 256.697 203.205 257.304C204.111 257.911 205.24 258.223 206.593 258.242ZM219.04 261V240.84H222.456L231.808 255.05V240.84H235.224V261H231.808L222.456 246.79V261H219.04ZM239.138 261V240.84H252.158V244.004H242.512V248.974H250.478V252.138H242.512V257.836H252.158V261H239.138ZM269.648 261.42C267.632 261.42 265.905 260.981 264.468 260.104C263.031 259.217 261.925 257.985 261.15 256.408C260.385 254.831 260.002 253.001 260.002 250.92C260.002 248.839 260.385 247.009 261.15 245.432C261.925 243.855 263.031 242.627 264.468 241.75C265.905 240.863 267.632 240.42 269.648 240.42C271.664 240.42 273.391 240.863 274.828 241.75C276.275 242.627 277.381 243.855 278.146 245.432C278.921 247.009 279.308 248.839 279.308 250.92C279.308 253.001 278.921 254.831 278.146 256.408C277.381 257.985 276.275 259.217 274.828 260.104C273.391 260.981 271.664 261.42 269.648 261.42ZM269.648 258.242C271.001 258.251 272.126 257.953 273.022 257.346C273.927 256.739 274.604 255.885 275.052 254.784C275.509 253.683 275.738 252.395 275.738 250.92C275.738 249.445 275.509 248.167 275.052 247.084C274.604 245.992 273.927 245.143 273.022 244.536C272.126 243.929 271.001 243.617 269.648 243.598C268.295 243.589 267.17 243.887 266.274 244.494C265.378 245.101 264.701 245.955 264.244 247.056C263.796 248.157 263.572 249.445 263.572 250.92C263.572 252.395 263.796 253.678 264.244 254.77C264.692 255.853 265.364 256.697 266.26 257.304C267.165 257.911 268.295 258.223 269.648 258.242ZM282.095 261V240.84H294.233V244.214H285.469V249.24H292.553V252.6H285.469V261H282.095ZM307.256 261V252.74L300.396 240.84H304.33L308.964 248.876L313.584 240.84H317.518L310.672 252.74V261H307.256ZM326.879 261.42C324.863 261.42 323.136 260.981 321.699 260.104C320.261 259.217 319.155 257.985 318.381 256.408C317.615 254.831 317.233 253.001 317.233 250.92C317.233 248.839 317.615 247.009 318.381 245.432C319.155 243.855 320.261 242.627 321.699 241.75C323.136 240.863 324.863 240.42 326.879 240.42C328.895 240.42 330.621 240.863 332.059 241.75C333.505 242.627 334.611 243.855 335.377 245.432C336.151 247.009 336.539 248.839 336.539 250.92C336.539 253.001 336.151 254.831 335.377 256.408C334.611 257.985 333.505 259.217 332.059 260.104C330.621 260.981 328.895 261.42 326.879 261.42ZM326.879 258.242C328.232 258.251 329.357 257.953 330.253 257.346C331.158 256.739 331.835 255.885 332.283 254.784C332.74 253.683 332.969 252.395 332.969 250.92C332.969 249.445 332.74 248.167 332.283 247.084C331.835 245.992 331.158 245.143 330.253 244.536C329.357 243.929 328.232 243.617 326.879 243.598C325.525 243.589 324.401 243.887 323.505 244.494C322.609 245.101 321.932 245.955 321.475 247.056C321.027 248.157 320.803 249.445 320.803 250.92C320.803 252.395 321.027 253.678 321.475 254.77C321.923 255.853 322.595 256.697 323.491 257.304C324.396 257.911 325.525 258.223 326.879 258.242ZM347.445 261.42C345.84 261.42 344.426 261.093 343.203 260.44C341.99 259.787 341.038 258.867 340.347 257.682C339.666 256.497 339.325 255.106 339.325 253.51V240.868L342.741 240.84V253.426C342.741 254.182 342.867 254.859 343.119 255.456C343.381 256.053 343.731 256.562 344.169 256.982C344.608 257.393 345.112 257.705 345.681 257.92C346.251 258.135 346.839 258.242 347.445 258.242C348.071 258.242 348.663 258.135 349.223 257.92C349.793 257.696 350.297 257.379 350.735 256.968C351.174 256.548 351.519 256.039 351.771 255.442C352.023 254.845 352.149 254.173 352.149 253.426V240.84H355.565V253.51C355.565 255.106 355.22 256.497 354.529 257.682C353.848 258.867 352.896 259.787 351.673 260.44C350.46 261.093 349.051 261.42 347.445 261.42ZM359.478 261V240.84H367.808C368.004 240.84 368.256 240.849 368.564 240.868C368.872 240.877 369.156 240.905 369.418 240.952C370.584 241.129 371.546 241.517 372.302 242.114C373.067 242.711 373.632 243.467 373.996 244.382C374.369 245.287 374.556 246.295 374.556 247.406C374.556 249.049 374.14 250.463 373.31 251.648C372.479 252.824 371.205 253.552 369.488 253.832L368.046 253.958H362.852V261H359.478ZM371.056 261L367.08 252.796L370.51 252.04L374.878 261H371.056ZM362.852 250.808H367.668C367.854 250.808 368.064 250.799 368.298 250.78C368.531 250.761 368.746 250.724 368.942 250.668C369.502 250.528 369.94 250.281 370.258 249.926C370.584 249.571 370.813 249.17 370.944 248.722C371.084 248.274 371.154 247.835 371.154 247.406C371.154 246.977 371.084 246.538 370.944 246.09C370.813 245.633 370.584 245.227 370.258 244.872C369.94 244.517 369.502 244.27 368.942 244.13C368.746 244.074 368.531 244.041 368.298 244.032C368.064 244.013 367.854 244.004 367.668 244.004H362.852V250.808ZM383.567 261V240.84H391.897C392.093 240.84 392.345 240.849 392.653 240.868C392.961 240.877 393.246 240.905 393.507 240.952C394.674 241.129 395.635 241.517 396.391 242.114C397.157 242.711 397.721 243.467 398.085 244.382C398.459 245.287 398.645 246.295 398.645 247.406C398.645 248.507 398.459 249.515 398.085 250.43C397.712 251.335 397.143 252.087 396.377 252.684C395.621 253.281 394.665 253.669 393.507 253.846C393.246 253.883 392.957 253.911 392.639 253.93C392.331 253.949 392.084 253.958 391.897 253.958H386.941V261H383.567ZM386.941 250.808H391.757C391.944 250.808 392.154 250.799 392.387 250.78C392.621 250.761 392.835 250.724 393.031 250.668C393.591 250.528 394.03 250.281 394.347 249.926C394.674 249.571 394.903 249.17 395.033 248.722C395.173 248.274 395.243 247.835 395.243 247.406C395.243 246.977 395.173 246.538 395.033 246.09C394.903 245.633 394.674 245.227 394.347 244.872C394.03 244.517 393.591 244.27 393.031 244.13C392.835 244.074 392.621 244.041 392.387 244.032C392.154 244.013 391.944 244.004 391.757 244.004H386.941V250.808ZM401.45 261V240.84H414.47V244.004H404.824V248.974H412.79V252.138H404.824V257.836H414.47V261H401.45ZM417.829 261V240.84H426.159C426.355 240.84 426.607 240.849 426.915 240.868C427.223 240.877 427.508 240.905 427.769 240.952C428.936 241.129 429.897 241.517 430.653 242.114C431.418 242.711 431.983 243.467 432.347 244.382C432.72 245.287 432.907 246.295 432.907 247.406C432.907 249.049 432.492 250.463 431.661 251.648C430.83 252.824 429.556 253.552 427.839 253.832L426.397 253.958H421.203V261H417.829ZM429.407 261L425.431 252.796L428.861 252.04L433.229 261H429.407ZM421.203 250.808H426.019C426.206 250.808 426.416 250.799 426.649 250.78C426.882 250.761 427.097 250.724 427.293 250.668C427.853 250.528 428.292 250.281 428.609 249.926C428.936 249.571 429.164 249.17 429.295 248.722C429.435 248.274 429.505 247.835 429.505 247.406C429.505 246.977 429.435 246.538 429.295 246.09C429.164 245.633 428.936 245.227 428.609 244.872C428.292 244.517 427.853 244.27 427.293 244.13C427.097 244.074 426.882 244.041 426.649 244.032C426.416 244.013 426.206 244.004 426.019 244.004H421.203V250.808ZM443.776 261.42C442.301 261.42 440.971 261.163 439.786 260.65C438.61 260.137 437.639 259.404 436.874 258.452C436.118 257.491 435.637 256.352 435.432 255.036L438.932 254.504C439.23 255.699 439.842 256.623 440.766 257.276C441.699 257.929 442.772 258.256 443.986 258.256C444.704 258.256 445.381 258.144 446.016 257.92C446.65 257.696 447.164 257.369 447.556 256.94C447.957 256.511 448.158 255.983 448.158 255.358C448.158 255.078 448.111 254.821 448.018 254.588C447.924 254.345 447.784 254.131 447.598 253.944C447.42 253.757 447.187 253.589 446.898 253.44C446.618 253.281 446.291 253.146 445.918 253.034L440.71 251.494C440.262 251.363 439.776 251.191 439.254 250.976C438.74 250.752 438.25 250.449 437.784 250.066C437.326 249.674 436.948 249.179 436.65 248.582C436.36 247.975 436.216 247.229 436.216 246.342C436.216 245.045 436.542 243.957 437.196 243.08C437.858 242.193 438.745 241.531 439.856 241.092C440.976 240.653 442.217 240.439 443.58 240.448C444.961 240.457 446.193 240.695 447.276 241.162C448.358 241.619 449.264 242.287 449.992 243.164C450.72 244.041 451.233 245.101 451.532 246.342L447.906 246.972C447.756 246.263 447.467 245.661 447.038 245.166C446.618 244.662 446.1 244.279 445.484 244.018C444.877 243.757 444.228 243.617 443.538 243.598C442.866 243.589 442.24 243.691 441.662 243.906C441.092 244.111 440.63 244.41 440.276 244.802C439.93 245.194 439.758 245.651 439.758 246.174C439.758 246.669 439.907 247.075 440.206 247.392C440.504 247.7 440.873 247.947 441.312 248.134C441.76 248.311 442.212 248.461 442.67 248.582L446.282 249.59C446.776 249.721 447.332 249.898 447.948 250.122C448.564 250.346 449.156 250.659 449.726 251.06C450.295 251.461 450.762 251.989 451.126 252.642C451.499 253.295 451.686 254.126 451.686 255.134C451.686 256.179 451.466 257.099 451.028 257.892C450.598 258.676 450.015 259.329 449.278 259.852C448.54 260.375 447.696 260.767 446.744 261.028C445.801 261.289 444.812 261.42 443.776 261.42ZM463.242 261.42C461.226 261.42 459.499 260.981 458.062 260.104C456.625 259.217 455.519 257.985 454.744 256.408C453.979 254.831 453.596 253.001 453.596 250.92C453.596 248.839 453.979 247.009 454.744 245.432C455.519 243.855 456.625 242.627 458.062 241.75C459.499 240.863 461.226 240.42 463.242 240.42C465.258 240.42 466.985 240.863 468.422 241.75C469.869 242.627 470.975 243.855 471.74 245.432C472.515 247.009 472.902 248.839 472.902 250.92C472.902 253.001 472.515 254.831 471.74 256.408C470.975 257.985 469.869 259.217 468.422 260.104C466.985 260.981 465.258 261.42 463.242 261.42ZM463.242 258.242C464.595 258.251 465.72 257.953 466.616 257.346C467.521 256.739 468.198 255.885 468.646 254.784C469.103 253.683 469.332 252.395 469.332 250.92C469.332 249.445 469.103 248.167 468.646 247.084C468.198 245.992 467.521 245.143 466.616 244.536C465.72 243.929 464.595 243.617 463.242 243.598C461.889 243.589 460.764 243.887 459.868 244.494C458.972 245.101 458.295 245.955 457.838 247.056C457.39 248.157 457.166 249.445 457.166 250.92C457.166 252.395 457.39 253.678 457.838 254.77C458.286 255.853 458.958 256.697 459.854 257.304C460.759 257.911 461.889 258.223 463.242 258.242ZM475.689 261V240.84H479.105L488.457 255.05V240.84H491.873V261H488.457L479.105 246.79V261H475.689ZM494.386 261L500.742 240.84H505.684L512.04 261H508.568L502.8 242.912H503.556L497.858 261H494.386ZM497.928 256.632V253.482H508.512V256.632H497.928ZM514.851 261V240.84H518.225V257.836H527.129V261H514.851ZM258.064 300V283.004H251.54V279.84H267.962V283.004H261.438V300H258.064ZM270.2 300V279.84H278.53C278.726 279.84 278.978 279.849 279.286 279.868C279.594 279.877 279.879 279.905 280.14 279.952C281.307 280.129 282.268 280.517 283.024 281.114C283.79 281.711 284.354 282.467 284.718 283.382C285.092 284.287 285.278 285.295 285.278 286.406C285.278 288.049 284.863 289.463 284.032 290.648C283.202 291.824 281.928 292.552 280.21 292.832L278.768 292.958H273.574V300H270.2ZM281.778 300L277.802 291.796L281.232 291.04L285.6 300H281.778ZM273.574 289.808H278.39C278.577 289.808 278.787 289.799 279.02 289.78C279.254 289.761 279.468 289.724 279.664 289.668C280.224 289.528 280.663 289.281 280.98 288.926C281.307 288.571 281.536 288.17 281.666 287.722C281.806 287.274 281.876 286.835 281.876 286.406C281.876 285.977 281.806 285.538 281.666 285.09C281.536 284.633 281.307 284.227 280.98 283.872C280.663 283.517 280.224 283.27 279.664 283.13C279.468 283.074 279.254 283.041 279.02 283.032C278.787 283.013 278.577 283.004 278.39 283.004H273.574V289.808ZM287.285 300L293.641 279.84H298.583L304.939 300H301.467L295.699 281.912H296.455L290.757 300H287.285ZM290.827 295.632V292.482H301.411V295.632H290.827ZM307.75 300V279.84H311.124V300H307.75ZM320.161 300V283.004H313.637V279.84H330.059V283.004H323.535V300H320.161ZM339.76 300.42C338.285 300.42 336.955 300.163 335.77 299.65C334.594 299.137 333.623 298.404 332.858 297.452C332.102 296.491 331.621 295.352 331.416 294.036L334.916 293.504C335.215 294.699 335.826 295.623 336.75 296.276C337.683 296.929 338.757 297.256 339.97 297.256C340.689 297.256 341.365 297.144 342 296.92C342.635 296.696 343.148 296.369 343.54 295.94C343.941 295.511 344.142 294.983 344.142 294.358C344.142 294.078 344.095 293.821 344.002 293.588C343.909 293.345 343.769 293.131 343.582 292.944C343.405 292.757 343.171 292.589 342.882 292.44C342.602 292.281 342.275 292.146 341.902 292.034L336.694 290.494C336.246 290.363 335.761 290.191 335.238 289.976C334.725 289.752 334.235 289.449 333.768 289.066C333.311 288.674 332.933 288.179 332.634 287.582C332.345 286.975 332.2 286.229 332.2 285.342C332.2 284.045 332.527 282.957 333.18 282.08C333.843 281.193 334.729 280.531 335.84 280.092C336.96 279.653 338.201 279.439 339.564 279.448C340.945 279.457 342.177 279.695 343.26 280.162C344.343 280.619 345.248 281.287 345.976 282.164C346.704 283.041 347.217 284.101 347.516 285.342L343.89 285.972C343.741 285.263 343.451 284.661 343.022 284.166C342.602 283.662 342.084 283.279 341.468 283.018C340.861 282.757 340.213 282.617 339.522 282.598C338.85 282.589 338.225 282.691 337.646 282.906C337.077 283.111 336.615 283.41 336.26 283.802C335.915 284.194 335.742 284.651 335.742 285.174C335.742 285.669 335.891 286.075 336.19 286.392C336.489 286.7 336.857 286.947 337.296 287.134C337.744 287.311 338.197 287.461 338.654 287.582L342.266 288.59C342.761 288.721 343.316 288.898 343.932 289.122C344.548 289.346 345.141 289.659 345.71 290.06C346.279 290.461 346.746 290.989 347.11 291.642C347.483 292.295 347.67 293.126 347.67 294.134C347.67 295.179 347.451 296.099 347.012 296.892C346.583 297.676 345.999 298.329 345.262 298.852C344.525 299.375 343.68 299.767 342.728 300.028C341.785 300.289 340.796 300.42 339.76 300.42Z" fill="white"></path> <rect y="475" width="600" height="300" rx="20" fill="#FF7EB3"></rect> <path d="M133.668 636.42C131.652 636.42 129.925 635.981 128.488 635.104C127.05 634.217 125.944 632.985 125.17 631.408C124.404 629.831 124.022 628.001 124.022 625.92C124.022 623.839 124.404 622.009 125.17 620.432C125.944 618.855 127.05 617.627 128.488 616.75C129.925 615.863 131.652 615.42 133.668 615.42C135.684 615.42 137.41 615.863 138.848 616.75C140.294 617.627 141.4 618.855 142.166 620.432C142.94 622.009 143.328 623.839 143.328 625.92C143.328 628.001 142.94 629.831 142.166 631.408C141.4 632.985 140.294 634.217 138.848 635.104C137.41 635.981 135.684 636.42 133.668 636.42ZM133.668 633.242C135.021 633.251 136.146 632.953 137.042 632.346C137.947 631.739 138.624 630.885 139.072 629.784C139.529 628.683 139.758 627.395 139.758 625.92C139.758 624.445 139.529 623.167 139.072 622.084C138.624 620.992 137.947 620.143 137.042 619.536C136.146 618.929 135.021 618.617 133.668 618.598C132.314 618.589 131.19 618.887 130.294 619.494C129.398 620.101 128.721 620.955 128.264 622.056C127.816 623.157 127.592 624.445 127.592 625.92C127.592 627.395 127.816 628.678 128.264 629.77C128.712 630.853 129.384 631.697 130.28 632.304C131.185 632.911 132.314 633.223 133.668 633.242ZM146.114 636V615.84H149.53L158.882 630.05V615.84H162.298V636H158.882L149.53 621.79V636H146.114ZM166.212 636V615.84H179.232V619.004H169.586V623.974H177.552V627.138H169.586V632.836H179.232V636H166.212ZM196.722 636.42C194.706 636.42 192.98 635.981 191.542 635.104C190.105 634.217 188.999 632.985 188.224 631.408C187.459 629.831 187.076 628.001 187.076 625.92C187.076 623.839 187.459 622.009 188.224 620.432C188.999 618.855 190.105 617.627 191.542 616.75C192.98 615.863 194.706 615.42 196.722 615.42C198.738 615.42 200.465 615.863 201.902 616.75C203.349 617.627 204.455 618.855 205.22 620.432C205.995 622.009 206.382 623.839 206.382 625.92C206.382 628.001 205.995 629.831 205.22 631.408C204.455 632.985 203.349 634.217 201.902 635.104C200.465 635.981 198.738 636.42 196.722 636.42ZM196.722 633.242C198.076 633.251 199.2 632.953 200.096 632.346C201.002 631.739 201.678 630.885 202.126 629.784C202.584 628.683 202.812 627.395 202.812 625.92C202.812 624.445 202.584 623.167 202.126 622.084C201.678 620.992 201.002 620.143 200.096 619.536C199.2 618.929 198.076 618.617 196.722 618.598C195.369 618.589 194.244 618.887 193.348 619.494C192.452 620.101 191.776 620.955 191.318 622.056C190.87 623.157 190.646 624.445 190.646 625.92C190.646 627.395 190.87 628.678 191.318 629.77C191.766 630.853 192.438 631.697 193.334 632.304C194.24 632.911 195.369 633.223 196.722 633.242ZM209.169 636V615.84H221.307V619.214H212.543V624.24H219.627V627.6H212.543V636H209.169ZM234.331 636V627.74L227.471 615.84H231.405L236.039 623.876L240.659 615.84H244.593L237.747 627.74V636H234.331ZM253.953 636.42C251.937 636.42 250.21 635.981 248.773 635.104C247.335 634.217 246.229 632.985 245.455 631.408C244.689 629.831 244.307 628.001 244.307 625.92C244.307 623.839 244.689 622.009 245.455 620.432C246.229 618.855 247.335 617.627 248.773 616.75C250.21 615.863 251.937 615.42 253.953 615.42C255.969 615.42 257.695 615.863 259.133 616.75C260.579 617.627 261.685 618.855 262.451 620.432C263.225 622.009 263.613 623.839 263.613 625.92C263.613 628.001 263.225 629.831 262.451 631.408C261.685 632.985 260.579 634.217 259.133 635.104C257.695 635.981 255.969 636.42 253.953 636.42ZM253.953 633.242C255.306 633.251 256.431 632.953 257.327 632.346C258.232 631.739 258.909 630.885 259.357 629.784C259.814 628.683 260.043 627.395 260.043 625.92C260.043 624.445 259.814 623.167 259.357 622.084C258.909 620.992 258.232 620.143 257.327 619.536C256.431 618.929 255.306 618.617 253.953 618.598C252.599 618.589 251.475 618.887 250.579 619.494C249.683 620.101 249.006 620.955 248.549 622.056C248.101 623.157 247.877 624.445 247.877 625.92C247.877 627.395 248.101 628.678 248.549 629.77C248.997 630.853 249.669 631.697 250.565 632.304C251.47 632.911 252.599 633.223 253.953 633.242ZM274.519 636.42C272.914 636.42 271.5 636.093 270.277 635.44C269.064 634.787 268.112 633.867 267.421 632.682C266.74 631.497 266.399 630.106 266.399 628.51V615.868L269.815 615.84V628.426C269.815 629.182 269.941 629.859 270.193 630.456C270.455 631.053 270.805 631.562 271.243 631.982C271.682 632.393 272.186 632.705 272.755 632.92C273.325 633.135 273.913 633.242 274.519 633.242C275.145 633.242 275.737 633.135 276.297 632.92C276.867 632.696 277.371 632.379 277.809 631.968C278.248 631.548 278.593 631.039 278.845 630.442C279.097 629.845 279.223 629.173 279.223 628.426V615.84H282.639V628.51C282.639 630.106 282.294 631.497 281.603 632.682C280.922 633.867 279.97 634.787 278.747 635.44C277.534 636.093 276.125 636.42 274.519 636.42ZM286.552 636V615.84H294.882C295.078 615.84 295.33 615.849 295.638 615.868C295.946 615.877 296.23 615.905 296.492 615.952C297.658 616.129 298.62 616.517 299.376 617.114C300.141 617.711 300.706 618.467 301.07 619.382C301.443 620.287 301.63 621.295 301.63 622.406C301.63 624.049 301.214 625.463 300.384 626.648C299.553 627.824 298.279 628.552 296.562 628.832L295.12 628.958H289.926V636H286.552ZM298.13 636L294.154 627.796L297.584 627.04L301.952 636H298.13ZM289.926 625.808H294.742C294.928 625.808 295.138 625.799 295.372 625.78C295.605 625.761 295.82 625.724 296.016 625.668C296.576 625.528 297.014 625.281 297.332 624.926C297.658 624.571 297.887 624.17 298.018 623.722C298.158 623.274 298.228 622.835 298.228 622.406C298.228 621.977 298.158 621.538 298.018 621.09C297.887 620.633 297.658 620.227 297.332 619.872C297.014 619.517 296.576 619.27 296.016 619.13C295.82 619.074 295.605 619.041 295.372 619.032C295.138 619.013 294.928 619.004 294.742 619.004H289.926V625.808ZM310.642 636V615.84H318.636C319.998 615.84 321.114 616.115 321.982 616.666C322.859 617.207 323.508 617.903 323.928 618.752C324.357 619.601 324.572 620.479 324.572 621.384C324.572 622.495 324.306 623.437 323.774 624.212C323.251 624.987 322.537 625.509 321.632 625.78V625.08C322.901 625.369 323.862 625.971 324.516 626.886C325.178 627.801 325.51 628.841 325.51 630.008C325.51 631.203 325.281 632.248 324.824 633.144C324.366 634.04 323.685 634.74 322.78 635.244C321.884 635.748 320.773 636 319.448 636H310.642ZM314.058 632.822H319.028C319.616 632.822 320.143 632.705 320.61 632.472C321.076 632.229 321.44 631.893 321.702 631.464C321.972 631.025 322.108 630.507 322.108 629.91C322.108 629.369 321.991 628.883 321.758 628.454C321.524 628.025 321.184 627.684 320.736 627.432C320.288 627.171 319.751 627.04 319.126 627.04H314.058V632.822ZM314.058 623.89H318.594C319.079 623.89 319.513 623.797 319.896 623.61C320.278 623.423 320.582 623.148 320.806 622.784C321.03 622.42 321.142 621.972 321.142 621.44C321.142 620.74 320.918 620.157 320.47 619.69C320.022 619.223 319.396 618.99 318.594 618.99H314.058V623.89ZM336.832 636.42C334.816 636.42 333.089 635.981 331.652 635.104C330.214 634.217 329.108 632.985 328.334 631.408C327.568 629.831 327.186 628.001 327.186 625.92C327.186 623.839 327.568 622.009 328.334 620.432C329.108 618.855 330.214 617.627 331.652 616.75C333.089 615.863 334.816 615.42 336.832 615.42C338.848 615.42 340.574 615.863 342.012 616.75C343.458 617.627 344.564 618.855 345.33 620.432C346.104 622.009 346.492 623.839 346.492 625.92C346.492 628.001 346.104 629.831 345.33 631.408C344.564 632.985 343.458 634.217 342.012 635.104C340.574 635.981 338.848 636.42 336.832 636.42ZM336.832 633.242C338.185 633.251 339.31 632.953 340.206 632.346C341.111 631.739 341.788 630.885 342.236 629.784C342.693 628.683 342.922 627.395 342.922 625.92C342.922 624.445 342.693 623.167 342.236 622.084C341.788 620.992 341.111 620.143 340.206 619.536C339.31 618.929 338.185 618.617 336.832 618.598C335.478 618.589 334.354 618.887 333.458 619.494C332.562 620.101 331.885 620.955 331.428 622.056C330.98 623.157 330.756 624.445 330.756 625.92C330.756 627.395 330.98 628.678 331.428 629.77C331.876 630.853 332.548 631.697 333.444 632.304C334.349 632.911 335.478 633.223 336.832 633.242ZM349.278 636V615.84H355.704C355.872 615.84 356.204 615.845 356.698 615.854C357.202 615.863 357.688 615.896 358.154 615.952C359.75 616.157 361.099 616.727 362.2 617.66C363.311 618.584 364.151 619.765 364.72 621.202C365.29 622.639 365.574 624.212 365.574 625.92C365.574 627.628 365.29 629.201 364.72 630.638C364.151 632.075 363.311 633.261 362.2 634.194C361.099 635.118 359.75 635.683 358.154 635.888C357.697 635.944 357.216 635.977 356.712 635.986C356.208 635.995 355.872 636 355.704 636H349.278ZM352.708 632.822H355.704C355.984 632.822 356.339 632.813 356.768 632.794C357.207 632.775 357.594 632.733 357.93 632.668C358.882 632.491 359.657 632.066 360.254 631.394C360.852 630.722 361.29 629.905 361.57 628.944C361.86 627.983 362.004 626.975 362.004 625.92C362.004 624.828 361.86 623.801 361.57 622.84C361.281 621.879 360.833 621.071 360.226 620.418C359.629 619.765 358.864 619.349 357.93 619.172C357.594 619.097 357.207 619.055 356.768 619.046C356.339 619.027 355.984 619.018 355.704 619.018H352.708V632.822ZM372.936 636V627.74L366.076 615.84H370.01L374.644 623.876L379.264 615.84H383.198L376.352 627.74V636H372.936ZM389.638 636V615.84H397.968C398.164 615.84 398.416 615.849 398.724 615.868C399.032 615.877 399.316 615.905 399.578 615.952C400.744 616.129 401.706 616.517 402.462 617.114C403.227 617.711 403.792 618.467 404.156 619.382C404.529 620.287 404.716 621.295 404.716 622.406C404.716 623.507 404.529 624.515 404.156 625.43C403.782 626.335 403.213 627.087 402.448 627.684C401.692 628.281 400.735 628.669 399.578 628.846C399.316 628.883 399.027 628.911 398.71 628.93C398.402 628.949 398.154 628.958 397.968 628.958H393.012V636H389.638ZM393.012 625.808H397.828C398.014 625.808 398.224 625.799 398.458 625.78C398.691 625.761 398.906 625.724 399.102 625.668C399.662 625.528 400.1 625.281 400.418 624.926C400.744 624.571 400.973 624.17 401.104 623.722C401.244 623.274 401.314 622.835 401.314 622.406C401.314 621.977 401.244 621.538 401.104 621.09C400.973 620.633 400.744 620.227 400.418 619.872C400.1 619.517 399.662 619.27 399.102 619.13C398.906 619.074 398.691 619.041 398.458 619.032C398.224 619.013 398.014 619.004 397.828 619.004H393.012V625.808ZM404.726 636L411.082 615.84H416.024L422.38 636H418.908L413.14 617.912H413.896L408.198 636H404.726ZM408.268 631.632V628.482H418.852V631.632H408.268ZM424.911 636V615.84H433.241C433.437 615.84 433.689 615.849 433.997 615.868C434.305 615.877 434.59 615.905 434.851 615.952C436.018 616.129 436.979 616.517 437.735 617.114C438.501 617.711 439.065 618.467 439.429 619.382C439.803 620.287 439.989 621.295 439.989 622.406C439.989 624.049 439.574 625.463 438.743 626.648C437.913 627.824 436.639 628.552 434.921 628.832L433.479 628.958H428.285V636H424.911ZM436.489 636L432.513 627.796L435.943 627.04L440.311 636H436.489ZM428.285 625.808H433.101C433.288 625.808 433.498 625.799 433.731 625.78C433.965 625.761 434.179 625.724 434.375 625.668C434.935 625.528 435.374 625.281 435.691 624.926C436.018 624.571 436.247 624.17 436.377 623.722C436.517 623.274 436.587 622.835 436.587 622.406C436.587 621.977 436.517 621.538 436.377 621.09C436.247 620.633 436.018 620.227 435.691 619.872C435.374 619.517 434.935 619.27 434.375 619.13C434.179 619.074 433.965 619.041 433.731 619.032C433.498 619.013 433.288 619.004 433.101 619.004H428.285V625.808ZM448.24 636V619.004H441.716V615.84H458.138V619.004H451.614V636H448.24ZM467.838 636.42C466.363 636.42 465.033 636.163 463.848 635.65C462.672 635.137 461.701 634.404 460.936 633.452C460.18 632.491 459.699 631.352 459.494 630.036L462.994 629.504C463.293 630.699 463.904 631.623 464.828 632.276C465.761 632.929 466.835 633.256 468.048 633.256C468.767 633.256 469.443 633.144 470.078 632.92C470.713 632.696 471.226 632.369 471.618 631.94C472.019 631.511 472.22 630.983 472.22 630.358C472.22 630.078 472.173 629.821 472.08 629.588C471.987 629.345 471.847 629.131 471.66 628.944C471.483 628.757 471.249 628.589 470.96 628.44C470.68 628.281 470.353 628.146 469.98 628.034L464.772 626.494C464.324 626.363 463.839 626.191 463.316 625.976C462.803 625.752 462.313 625.449 461.846 625.066C461.389 624.674 461.011 624.179 460.712 623.582C460.423 622.975 460.278 622.229 460.278 621.342C460.278 620.045 460.605 618.957 461.258 618.08C461.921 617.193 462.807 616.531 463.918 616.092C465.038 615.653 466.279 615.439 467.642 615.448C469.023 615.457 470.255 615.695 471.338 616.162C472.421 616.619 473.326 617.287 474.054 618.164C474.782 619.041 475.295 620.101 475.594 621.342L471.968 621.972C471.819 621.263 471.529 620.661 471.1 620.166C470.68 619.662 470.162 619.279 469.546 619.018C468.939 618.757 468.291 618.617 467.6 618.598C466.928 618.589 466.303 618.691 465.724 618.906C465.155 619.111 464.693 619.41 464.338 619.802C463.993 620.194 463.82 620.651 463.82 621.174C463.82 621.669 463.969 622.075 464.268 622.392C464.567 622.7 464.935 622.947 465.374 623.134C465.822 623.311 466.275 623.461 466.732 623.582L470.344 624.59C470.839 624.721 471.394 624.898 472.01 625.122C472.626 625.346 473.219 625.659 473.788 626.06C474.357 626.461 474.824 626.989 475.188 627.642C475.561 628.295 475.748 629.126 475.748 630.134C475.748 631.179 475.529 632.099 475.09 632.892C474.661 633.676 474.077 634.329 473.34 634.852C472.603 635.375 471.758 635.767 470.806 636.028C469.863 636.289 468.874 636.42 467.838 636.42Z" fill="white"></path> <circle cx="300" cy="448" r="60" fill="#F9F9F9"></circle> <path d="M288.777 461.51C286.329 461.51 284.232 460.977 282.487 459.912C280.742 458.835 279.399 457.339 278.458 455.424C277.529 453.509 277.064 451.287 277.064 448.76C277.064 446.233 277.529 444.011 278.458 442.096C279.399 440.181 280.742 438.69 282.487 437.625C284.232 436.548 286.329 436.01 288.777 436.01C291.225 436.01 293.322 436.548 295.067 437.625C296.824 438.69 298.167 440.181 299.096 442.096C300.037 444.011 300.507 446.233 300.507 448.76C300.507 451.287 300.037 453.509 299.096 455.424C298.167 457.339 296.824 458.835 295.067 459.912C293.322 460.977 291.225 461.51 288.777 461.51ZM288.777 457.651C290.42 457.662 291.786 457.3 292.874 456.563C293.973 455.826 294.795 454.789 295.339 453.452C295.894 452.115 296.172 450.551 296.172 448.76C296.172 446.969 295.894 445.417 295.339 444.102C294.795 442.776 293.973 441.745 292.874 441.008C291.786 440.271 290.42 439.892 288.777 439.869C287.134 439.858 285.768 440.22 284.68 440.957C283.592 441.694 282.77 442.731 282.215 444.068C281.671 445.405 281.399 446.969 281.399 448.76C281.399 450.551 281.671 452.109 282.215 453.435C282.759 454.75 283.575 455.775 284.663 456.512C285.762 457.249 287.134 457.628 288.777 457.651ZM303.891 461V436.52H314.006C314.244 436.52 314.55 436.531 314.924 436.554C315.298 436.565 315.643 436.599 315.961 436.656C317.377 436.871 318.545 437.342 319.463 438.067C320.392 438.792 321.078 439.71 321.52 440.821C321.973 441.92 322.2 443.144 322.2 444.493C322.2 446.488 321.695 448.205 320.687 449.644C319.678 451.072 318.131 451.956 316.046 452.296L314.295 452.449H307.988V461H303.891ZM317.95 461L313.122 451.038L317.287 450.12L322.591 461H317.95ZM307.988 448.624H313.836C314.062 448.624 314.317 448.613 314.601 448.59C314.884 448.567 315.145 448.522 315.383 448.454C316.063 448.284 316.595 447.984 316.981 447.553C317.377 447.122 317.655 446.635 317.814 446.091C317.984 445.547 318.069 445.014 318.069 444.493C318.069 443.972 317.984 443.439 317.814 442.895C317.655 442.34 317.377 441.847 316.981 441.416C316.595 440.985 316.063 440.685 315.383 440.515C315.145 440.447 314.884 440.407 314.601 440.396C314.317 440.373 314.062 440.362 313.836 440.362H307.988V448.624Z" fill="#3E1BC9"></path> </svg> 