<?xml version="1.0" encoding="UTF-8"?> <svg xmlns="http://www.w3.org/2000/svg" width="600" height="775" viewBox="0 0 600 775" fill="none"> <rect width="600" height="775" rx="20" fill="#F9F9F9"></rect> <path d="M129.614 73L122.457 48.52H126.758L131.637 66.2L136.499 48.554L140.8 48.52L145.679 66.2L150.541 48.52H154.842L147.702 73H143.656L138.641 55.592L133.66 73H129.614ZM167.305 73.51C164.857 73.51 162.761 72.9773 161.015 71.912C159.27 70.8353 157.927 69.3393 156.986 67.424C156.057 65.5087 155.592 63.2873 155.592 60.76C155.592 58.2327 156.057 56.0113 156.986 54.096C157.927 52.1807 159.27 50.6903 161.015 49.625C162.761 48.5483 164.857 48.01 167.305 48.01C169.753 48.01 171.85 48.5483 173.595 49.625C175.352 50.6903 176.695 52.1807 177.624 54.096C178.565 56.0113 179.035 58.2327 179.035 60.76C179.035 63.2873 178.565 65.5087 177.624 67.424C176.695 69.3393 175.352 70.8353 173.595 71.912C171.85 72.9773 169.753 73.51 167.305 73.51ZM167.305 69.651C168.949 69.6623 170.314 69.2997 171.402 68.563C172.502 67.8263 173.323 66.7893 173.867 65.452C174.423 64.1147 174.7 62.5507 174.7 60.76C174.7 58.9693 174.423 57.4167 173.867 56.102C173.323 54.776 172.502 53.7447 171.402 53.008C170.314 52.2713 168.949 51.8917 167.305 51.869C165.662 51.8577 164.296 52.2203 163.208 52.957C162.12 53.6937 161.299 54.7307 160.743 56.068C160.199 57.4053 159.927 58.9693 159.927 60.76C159.927 62.5507 160.199 64.109 160.743 65.435C161.287 66.7497 162.103 67.7753 163.191 68.512C164.291 69.2487 165.662 69.6283 167.305 69.651ZM192.279 73.51C190.33 73.51 188.613 73.1133 187.128 72.32C185.655 71.5267 184.499 70.4103 183.66 68.971C182.833 67.5317 182.419 65.843 182.419 63.905V48.554L186.567 48.52V63.803C186.567 64.721 186.72 65.5427 187.026 66.268C187.343 66.9933 187.768 67.611 188.301 68.121C188.834 68.6197 189.446 68.9993 190.137 69.26C190.828 69.5207 191.542 69.651 192.279 69.651C193.038 69.651 193.758 69.5207 194.438 69.26C195.129 68.988 195.741 68.6027 196.274 68.104C196.807 67.594 197.226 66.9763 197.532 66.251C197.838 65.5257 197.991 64.7097 197.991 63.803V48.52H202.139V63.905C202.139 65.843 201.72 67.5317 200.881 68.971C200.054 70.4103 198.898 71.5267 197.413 72.32C195.94 73.1133 194.228 73.51 192.279 73.51ZM207.23 73V48.52H211.327V69.158H222.139V73H207.23ZM225.019 73V48.52H232.822C233.026 48.52 233.428 48.5257 234.029 48.537C234.641 48.5483 235.23 48.588 235.797 48.656C237.735 48.9053 239.372 49.5967 240.71 50.73C242.058 51.852 243.078 53.2857 243.77 55.031C244.461 56.7763 244.807 58.686 244.807 60.76C244.807 62.834 244.461 64.7437 243.77 66.489C243.078 68.2343 242.058 69.6737 240.71 70.807C239.372 71.929 237.735 72.6147 235.797 72.864C235.241 72.932 234.658 72.9717 234.046 72.983C233.434 72.9943 233.026 73 232.822 73H225.019ZM229.184 69.141H232.822C233.162 69.141 233.592 69.1297 234.114 69.107C234.646 69.0843 235.117 69.0333 235.525 68.954C236.681 68.7387 237.621 68.223 238.347 67.407C239.072 66.591 239.605 65.5993 239.945 64.432C240.296 63.2647 240.472 62.0407 240.472 60.76C240.472 59.434 240.296 58.1873 239.945 57.02C239.593 55.8527 239.049 54.8723 238.313 54.079C237.587 53.2857 236.658 52.7813 235.525 52.566C235.117 52.4753 234.646 52.4243 234.114 52.413C233.592 52.3903 233.162 52.379 232.822 52.379H229.184V69.141ZM261.582 73V62.97L253.252 48.52H258.029L263.656 58.278L269.266 48.52H274.043L265.73 62.97V73H261.582ZM285.409 73.51C282.961 73.51 280.864 72.9773 279.119 71.912C277.373 70.8353 276.03 69.3393 275.09 67.424C274.16 65.5087 273.696 63.2873 273.696 60.76C273.696 58.2327 274.16 56.0113 275.09 54.096C276.03 52.1807 277.373 50.6903 279.119 49.625C280.864 48.5483 282.961 48.01 285.409 48.01C287.857 48.01 289.953 48.5483 291.699 49.625C293.455 50.6903 294.798 52.1807 295.728 54.096C296.668 56.0113 297.139 58.2327 297.139 60.76C297.139 63.2873 296.668 65.5087 295.728 67.424C294.798 69.3393 293.455 70.8353 291.699 71.912C289.953 72.9773 287.857 73.51 285.409 73.51ZM285.409 69.651C287.052 69.6623 288.418 69.2997 289.506 68.563C290.605 67.8263 291.427 66.7893 291.971 65.452C292.526 64.1147 292.804 62.5507 292.804 60.76C292.804 58.9693 292.526 57.4167 291.971 56.102C291.427 54.776 290.605 53.7447 289.506 53.008C288.418 52.2713 287.052 51.8917 285.409 51.869C283.765 51.8577 282.4 52.2203 281.312 52.957C280.224 53.6937 279.402 54.7307 278.847 56.068C278.303 57.4053 278.031 58.9693 278.031 60.76C278.031 62.5507 278.303 64.109 278.847 65.435C279.391 66.7497 280.207 67.7753 281.295 68.512C282.394 69.2487 283.765 69.6283 285.409 69.651ZM310.383 73.51C308.433 73.51 306.716 73.1133 305.232 72.32C303.758 71.5267 302.602 70.4103 301.764 68.971C300.936 67.5317 300.523 65.843 300.523 63.905V48.554L304.671 48.52V63.803C304.671 64.721 304.824 65.5427 305.13 66.268C305.447 66.9933 305.872 67.611 306.405 68.121C306.937 68.6197 307.549 68.9993 308.241 69.26C308.932 69.5207 309.646 69.651 310.383 69.651C311.142 69.651 311.862 69.5207 312.542 69.26C313.233 68.988 313.845 68.6027 314.378 68.104C314.91 67.594 315.33 66.9763 315.636 66.251C315.942 65.5257 316.095 64.7097 316.095 63.803V48.52H320.243V63.905C320.243 65.843 319.823 67.5317 318.985 68.971C318.157 70.4103 317.001 71.5267 315.517 72.32C314.043 73.1133 312.332 73.51 310.383 73.51ZM331.8 73V48.52H341.915C342.153 48.52 342.459 48.5313 342.833 48.554C343.207 48.5653 343.553 48.5993 343.87 48.656C345.287 48.8713 346.454 49.3417 347.372 50.067C348.301 50.7923 348.987 51.7103 349.429 52.821C349.882 53.9203 350.109 55.1443 350.109 56.493C350.109 58.4877 349.605 60.2047 348.596 61.644C347.587 63.072 346.04 63.956 343.955 64.296L342.204 64.449H335.897V73H331.8ZM345.859 73L341.031 63.038L345.196 62.12L350.5 73H345.859ZM335.897 60.624H341.745C341.972 60.624 342.227 60.6127 342.51 60.59C342.793 60.5673 343.054 60.522 343.292 60.454C343.972 60.284 344.505 59.9837 344.89 59.553C345.287 59.1223 345.564 58.635 345.723 58.091C345.893 57.547 345.978 57.0143 345.978 56.493C345.978 55.9717 345.893 55.439 345.723 54.895C345.564 54.3397 345.287 53.8467 344.89 53.416C344.505 52.9853 343.972 52.685 343.292 52.515C343.054 52.447 342.793 52.4073 342.51 52.396C342.227 52.3733 341.972 52.362 341.745 52.362H335.897V60.624ZM352.545 73L360.263 48.52H366.264L373.982 73H369.766L362.762 51.036H363.68L356.761 73H352.545ZM356.846 67.696V63.871H369.698V67.696H356.846ZM380.912 73V52.362H372.99V48.52H392.931V52.362H385.009V73H380.912ZM395.65 73V48.52H399.747V58.822H411.341V48.52H415.421V73H411.341V62.664H399.747V73H395.65ZM420.187 73V48.52H435.997V52.362H424.284V58.397H433.957V62.239H424.284V69.158H435.997V73H420.187ZM440.075 73V48.52H450.19C450.428 48.52 450.734 48.5313 451.108 48.554C451.482 48.5653 451.828 48.5993 452.145 48.656C453.562 48.8713 454.729 49.3417 455.647 50.067C456.577 50.7923 457.262 51.7103 457.704 52.821C458.158 53.9203 458.384 55.1443 458.384 56.493C458.384 58.4877 457.88 60.2047 456.871 61.644C455.863 63.072 454.316 63.956 452.23 64.296L450.479 64.449H444.172V73H440.075ZM454.134 73L449.306 63.038L453.471 62.12L458.775 73H454.134ZM444.172 60.624H450.02C450.247 60.624 450.502 60.6127 450.785 60.59C451.069 60.5673 451.329 60.522 451.567 60.454C452.247 60.284 452.78 59.9837 453.165 59.553C453.562 59.1223 453.84 58.635 453.998 58.091C454.168 57.547 454.253 57.0143 454.253 56.493C454.253 55.9717 454.168 55.439 453.998 54.895C453.84 54.3397 453.562 53.8467 453.165 53.416C452.78 52.9853 452.247 52.685 451.567 52.515C451.329 52.447 451.069 52.4073 450.785 52.396C450.502 52.3733 450.247 52.362 450.02 52.362H444.172V60.624ZM466.958 66.353C466.958 65.571 467.031 64.8173 467.179 64.092C467.337 63.3553 467.592 62.6753 467.944 62.052C468.25 61.4513 468.59 60.9753 468.964 60.624C469.338 60.2613 469.757 59.9043 470.222 59.553C470.686 59.1903 471.202 58.7087 471.769 58.108C472.233 57.598 472.539 57.0937 472.687 56.595C472.834 56.085 472.908 55.541 472.908 54.963C472.908 54.589 472.868 54.2377 472.789 53.909C472.709 53.5803 472.568 53.297 472.364 53.059C472.046 52.6397 471.638 52.345 471.14 52.175C470.641 51.9937 470.108 51.903 469.542 51.903C469.077 51.903 468.629 51.9653 468.199 52.09C467.779 52.2033 467.422 52.3847 467.128 52.634C466.788 52.906 466.538 53.2403 466.38 53.637C466.221 54.0337 466.147 54.47 466.159 54.946H461.841C461.954 53.8127 462.26 52.7643 462.759 51.801C463.269 50.8263 463.937 50.05 464.765 49.472C465.411 48.996 466.136 48.639 466.941 48.401C467.757 48.163 468.573 48.044 469.389 48.044C470.635 48.044 471.808 48.2367 472.908 48.622C474.018 49.0073 474.942 49.642 475.679 50.526C476.189 51.104 476.574 51.7727 476.835 52.532C477.107 53.2913 477.243 54.062 477.243 54.844C477.243 56.0113 476.988 57.0767 476.478 58.04C475.979 59.0033 475.344 59.893 474.574 60.709C474.211 61.0943 473.865 61.4343 473.537 61.729C473.208 62.0237 472.902 62.3127 472.619 62.596C472.347 62.868 472.12 63.157 471.939 63.463C471.621 63.9957 471.434 64.449 471.378 64.823C471.321 65.1857 471.293 65.6957 471.293 66.353H466.958ZM466.992 73V68.495H471.293V73H466.992Z" fill="#3E1BC9"></path> <rect y="120" width="600" height="300" rx="20" fill="#3E1BC9"></rect> <path d="M92.2334 261V240.84H104.371V244.214H95.6074V249.24H102.691V252.6H95.6074V261H92.2334ZM107.17 261V240.84H110.544V261H107.17ZM114.737 261V240.84H118.153L127.505 255.05V240.84H130.921V261H127.505L118.153 246.79V261H114.737ZM134.835 261V240.84H141.261C141.429 240.84 141.76 240.845 142.255 240.854C142.759 240.863 143.244 240.896 143.711 240.952C145.307 241.157 146.656 241.727 147.757 242.66C148.868 243.584 149.708 244.765 150.277 246.202C150.846 247.639 151.131 249.212 151.131 250.92C151.131 252.628 150.846 254.201 150.277 255.638C149.708 257.075 148.868 258.261 147.757 259.194C146.656 260.118 145.307 260.683 143.711 260.888C143.254 260.944 142.773 260.977 142.269 260.986C141.765 260.995 141.429 261 141.261 261H134.835ZM138.265 257.822H141.261C141.541 257.822 141.896 257.813 142.325 257.794C142.764 257.775 143.151 257.733 143.487 257.668C144.439 257.491 145.214 257.066 145.811 256.394C146.408 255.722 146.847 254.905 147.127 253.944C147.416 252.983 147.561 251.975 147.561 250.92C147.561 249.828 147.416 248.801 147.127 247.84C146.838 246.879 146.39 246.071 145.783 245.418C145.186 244.765 144.42 244.349 143.487 244.172C143.151 244.097 142.764 244.055 142.325 244.046C141.896 244.027 141.541 244.018 141.261 244.018H138.265V257.822ZM168.572 261.42C166.556 261.42 164.829 260.981 163.392 260.104C161.955 259.217 160.849 257.985 160.074 256.408C159.309 254.831 158.926 253.001 158.926 250.92C158.926 248.839 159.309 247.009 160.074 245.432C160.849 243.855 161.955 242.627 163.392 241.75C164.829 240.863 166.556 240.42 168.572 240.42C170.588 240.42 172.315 240.863 173.752 241.75C175.199 242.627 176.305 243.855 177.07 245.432C177.845 247.009 178.232 248.839 178.232 250.92C178.232 253.001 177.845 254.831 177.07 256.408C176.305 257.985 175.199 259.217 173.752 260.104C172.315 260.981 170.588 261.42 168.572 261.42ZM168.572 258.242C169.925 258.251 171.05 257.953 171.946 257.346C172.851 256.739 173.528 255.885 173.976 254.784C174.433 253.683 174.662 252.395 174.662 250.92C174.662 249.445 174.433 248.167 173.976 247.084C173.528 245.992 172.851 245.143 171.946 244.536C171.05 243.929 169.925 243.617 168.572 243.598C167.219 243.589 166.094 243.887 165.198 244.494C164.302 245.101 163.625 245.955 163.168 247.056C162.72 248.157 162.496 249.445 162.496 250.92C162.496 252.395 162.72 253.678 163.168 254.77C163.616 255.853 164.288 256.697 165.184 257.304C166.089 257.911 167.219 258.223 168.572 258.242ZM189.139 261.42C187.533 261.42 186.119 261.093 184.897 260.44C183.683 259.787 182.731 258.867 182.041 257.682C181.359 256.497 181.019 255.106 181.019 253.51V240.868L184.435 240.84V253.426C184.435 254.182 184.561 254.859 184.813 255.456C185.074 256.053 185.424 256.562 185.863 256.982C186.301 257.393 186.805 257.705 187.375 257.92C187.944 258.135 188.532 258.242 189.139 258.242C189.764 258.242 190.357 258.135 190.917 257.92C191.486 257.696 191.99 257.379 192.429 256.968C192.867 256.548 193.213 256.039 193.465 255.442C193.717 254.845 193.843 254.173 193.843 253.426V240.84H197.259V253.51C197.259 255.106 196.913 256.497 196.223 257.682C195.541 258.867 194.589 259.787 193.367 260.44C192.153 261.093 190.744 261.42 189.139 261.42ZM206.015 261V244.004H199.491V240.84H215.913V244.004H209.389V261H206.015ZM221.509 261L227.865 240.84H232.807L239.163 261H235.691L229.923 242.912H230.679L224.981 261H221.509ZM225.051 256.632V253.482H235.635V256.632H225.051ZM241.974 261V240.84H245.348V257.836H254.252V261H241.974ZM256.904 261V240.84H260.278V257.836H269.182V261H256.904ZM274.365 261L280.721 240.84H285.663L292.019 261H288.547L282.779 242.912H283.535L277.837 261H274.365ZM277.907 256.632V253.482H288.491V256.632H277.907ZM294.55 261V240.84H302.544C303.907 240.84 305.022 241.115 305.89 241.666C306.767 242.207 307.416 242.903 307.836 243.752C308.265 244.601 308.48 245.479 308.48 246.384C308.48 247.495 308.214 248.437 307.682 249.212C307.159 249.987 306.445 250.509 305.54 250.78V250.08C306.809 250.369 307.771 250.971 308.424 251.886C309.087 252.801 309.418 253.841 309.418 255.008C309.418 256.203 309.189 257.248 308.732 258.144C308.275 259.04 307.593 259.74 306.688 260.244C305.792 260.748 304.681 261 303.356 261H294.55ZM297.966 257.822H302.936C303.524 257.822 304.051 257.705 304.518 257.472C304.985 257.229 305.349 256.893 305.61 256.464C305.881 256.025 306.016 255.507 306.016 254.91C306.016 254.369 305.899 253.883 305.666 253.454C305.433 253.025 305.092 252.684 304.644 252.432C304.196 252.171 303.659 252.04 303.034 252.04H297.966V257.822ZM297.966 248.89H302.502C302.987 248.89 303.421 248.797 303.804 248.61C304.187 248.423 304.49 248.148 304.714 247.784C304.938 247.42 305.05 246.972 305.05 246.44C305.05 245.74 304.826 245.157 304.378 244.69C303.93 244.223 303.305 243.99 302.502 243.99H297.966V248.89ZM320.74 261.42C318.724 261.42 316.997 260.981 315.56 260.104C314.123 259.217 313.017 257.985 312.242 256.408C311.477 254.831 311.094 253.001 311.094 250.92C311.094 248.839 311.477 247.009 312.242 245.432C313.017 243.855 314.123 242.627 315.56 241.75C316.997 240.863 318.724 240.42 320.74 240.42C322.756 240.42 324.483 240.863 325.92 241.75C327.367 242.627 328.473 243.855 329.238 245.432C330.013 247.009 330.4 248.839 330.4 250.92C330.4 253.001 330.013 254.831 329.238 256.408C328.473 257.985 327.367 259.217 325.92 260.104C324.483 260.981 322.756 261.42 320.74 261.42ZM320.74 258.242C322.093 258.251 323.218 257.953 324.114 257.346C325.019 256.739 325.696 255.885 326.144 254.784C326.601 253.683 326.83 252.395 326.83 250.92C326.83 249.445 326.601 248.167 326.144 247.084C325.696 245.992 325.019 245.143 324.114 244.536C323.218 243.929 322.093 243.617 320.74 243.598C319.387 243.589 318.262 243.887 317.366 244.494C316.47 245.101 315.793 245.955 315.336 247.056C314.888 248.157 314.664 249.445 314.664 250.92C314.664 252.395 314.888 253.678 315.336 254.77C315.784 255.853 316.456 256.697 317.352 257.304C318.257 257.911 319.387 258.223 320.74 258.242ZM341.307 261.42C339.701 261.42 338.287 261.093 337.065 260.44C335.851 259.787 334.899 258.867 334.209 257.682C333.527 256.497 333.187 255.106 333.187 253.51V240.868L336.603 240.84V253.426C336.603 254.182 336.729 254.859 336.981 255.456C337.242 256.053 337.592 256.562 338.031 256.982C338.469 257.393 338.973 257.705 339.543 257.92C340.112 258.135 340.7 258.242 341.307 258.242C341.932 258.242 342.525 258.135 343.085 257.92C343.654 257.696 344.158 257.379 344.597 256.968C345.035 256.548 345.381 256.039 345.633 255.442C345.885 254.845 346.011 254.173 346.011 253.426V240.84H349.427V253.51C349.427 255.106 349.081 256.497 348.391 257.682C347.709 258.867 346.757 259.787 345.535 260.44C344.321 261.093 342.912 261.42 341.307 261.42ZM358.183 261V244.004H351.659V240.84H368.081V244.004H361.557V261H358.183ZM373.677 261L380.033 240.84H384.975L391.331 261H387.859L382.091 242.912H382.847L377.149 261H373.677ZM377.219 256.632V253.482H387.803V256.632H377.219ZM399.468 261V240.84H407.798C407.994 240.84 408.246 240.849 408.554 240.868C408.862 240.877 409.146 240.905 409.408 240.952C410.574 241.129 411.536 241.517 412.292 242.114C413.057 242.711 413.622 243.467 413.986 244.382C414.359 245.287 414.546 246.295 414.546 247.406C414.546 248.507 414.359 249.515 413.986 250.43C413.612 251.335 413.043 252.087 412.278 252.684C411.522 253.281 410.565 253.669 409.408 253.846C409.146 253.883 408.857 253.911 408.54 253.93C408.232 253.949 407.984 253.958 407.798 253.958H402.842V261H399.468ZM402.842 250.808H407.658C407.844 250.808 408.054 250.799 408.288 250.78C408.521 250.761 408.736 250.724 408.932 250.668C409.492 250.528 409.93 250.281 410.248 249.926C410.574 249.571 410.803 249.17 410.934 248.722C411.074 248.274 411.144 247.835 411.144 247.406C411.144 246.977 411.074 246.538 410.934 246.09C410.803 245.633 410.574 245.227 410.248 244.872C409.93 244.517 409.492 244.27 408.932 244.13C408.736 244.074 408.521 244.041 408.288 244.032C408.054 244.013 407.844 244.004 407.658 244.004H402.842V250.808ZM417.351 261V240.84H430.371V244.004H420.725V248.974H428.691V252.138H420.725V257.836H430.371V261H417.351ZM433.73 261V240.84H442.06C442.256 240.84 442.508 240.849 442.816 240.868C443.124 240.877 443.408 240.905 443.67 240.952C444.836 241.129 445.798 241.517 446.554 242.114C447.319 242.711 447.884 243.467 448.248 244.382C448.621 245.287 448.808 246.295 448.808 247.406C448.808 249.049 448.392 250.463 447.562 251.648C446.731 252.824 445.457 253.552 443.74 253.832L442.298 253.958H437.104V261H433.73ZM445.308 261L441.332 252.796L444.762 252.04L449.13 261H445.308ZM437.104 250.808H441.92C442.106 250.808 442.316 250.799 442.55 250.78C442.783 250.761 442.998 250.724 443.194 250.668C443.754 250.528 444.192 250.281 444.51 249.926C444.836 249.571 445.065 249.17 445.196 248.722C445.336 248.274 445.406 247.835 445.406 247.406C445.406 246.977 445.336 246.538 445.196 246.09C445.065 245.633 444.836 245.227 444.51 244.872C444.192 244.517 443.754 244.27 443.194 244.13C442.998 244.074 442.783 244.041 442.55 244.032C442.316 244.013 442.106 244.004 441.92 244.004H437.104V250.808ZM459.676 261.42C458.201 261.42 456.871 261.163 455.686 260.65C454.51 260.137 453.539 259.404 452.774 258.452C452.018 257.491 451.537 256.352 451.332 255.036L454.832 254.504C455.131 255.699 455.742 256.623 456.666 257.276C457.599 257.929 458.673 258.256 459.886 258.256C460.605 258.256 461.281 258.144 461.916 257.92C462.551 257.696 463.064 257.369 463.456 256.94C463.857 256.511 464.058 255.983 464.058 255.358C464.058 255.078 464.011 254.821 463.918 254.588C463.825 254.345 463.685 254.131 463.498 253.944C463.321 253.757 463.087 253.589 462.798 253.44C462.518 253.281 462.191 253.146 461.818 253.034L456.61 251.494C456.162 251.363 455.677 251.191 455.154 250.976C454.641 250.752 454.151 250.449 453.684 250.066C453.227 249.674 452.849 249.179 452.55 248.582C452.261 247.975 452.116 247.229 452.116 246.342C452.116 245.045 452.443 243.957 453.096 243.08C453.759 242.193 454.645 241.531 455.756 241.092C456.876 240.653 458.117 240.439 459.48 240.448C460.861 240.457 462.093 240.695 463.176 241.162C464.259 241.619 465.164 242.287 465.892 243.164C466.62 244.041 467.133 245.101 467.432 246.342L463.806 246.972C463.657 246.263 463.367 245.661 462.938 245.166C462.518 244.662 462 244.279 461.384 244.018C460.777 243.757 460.129 243.617 459.438 243.598C458.766 243.589 458.141 243.691 457.562 243.906C456.993 244.111 456.531 244.41 456.176 244.802C455.831 245.194 455.658 245.651 455.658 246.174C455.658 246.669 455.807 247.075 456.106 247.392C456.405 247.7 456.773 247.947 457.212 248.134C457.66 248.311 458.113 248.461 458.57 248.582L462.182 249.59C462.677 249.721 463.232 249.898 463.848 250.122C464.464 250.346 465.057 250.659 465.626 251.06C466.195 251.461 466.662 251.989 467.026 252.642C467.399 253.295 467.586 254.126 467.586 255.134C467.586 256.179 467.367 257.099 466.928 257.892C466.499 258.676 465.915 259.329 465.178 259.852C464.441 260.375 463.596 260.767 462.644 261.028C461.701 261.289 460.712 261.42 459.676 261.42ZM479.142 261.42C477.126 261.42 475.4 260.981 473.962 260.104C472.525 259.217 471.419 257.985 470.644 256.408C469.879 254.831 469.496 253.001 469.496 250.92C469.496 248.839 469.879 247.009 470.644 245.432C471.419 243.855 472.525 242.627 473.962 241.75C475.4 240.863 477.126 240.42 479.142 240.42C481.158 240.42 482.885 240.863 484.322 241.75C485.769 242.627 486.875 243.855 487.64 245.432C488.415 247.009 488.802 248.839 488.802 250.92C488.802 253.001 488.415 254.831 487.64 256.408C486.875 257.985 485.769 259.217 484.322 260.104C482.885 260.981 481.158 261.42 479.142 261.42ZM479.142 258.242C480.496 258.251 481.62 257.953 482.516 257.346C483.422 256.739 484.098 255.885 484.546 254.784C485.004 253.683 485.232 252.395 485.232 250.92C485.232 249.445 485.004 248.167 484.546 247.084C484.098 245.992 483.422 245.143 482.516 244.536C481.62 243.929 480.496 243.617 479.142 243.598C477.789 243.589 476.664 243.887 475.768 244.494C474.872 245.101 474.196 245.955 473.738 247.056C473.29 248.157 473.066 249.445 473.066 250.92C473.066 252.395 473.29 253.678 473.738 254.77C474.186 255.853 474.858 256.697 475.754 257.304C476.66 257.911 477.789 258.223 479.142 258.242ZM491.589 261V240.84H495.005L504.357 255.05V240.84H507.773V261H504.357L495.005 246.79V261H491.589ZM137.751 300V283.004H131.227V279.84H147.649V283.004H141.125V300H137.751ZM149.888 300V279.84H153.262V288.324H162.81V279.84H166.17V300H162.81V291.488H153.262V300H149.888ZM170.095 300V279.84H178.425C178.621 279.84 178.873 279.849 179.181 279.868C179.489 279.877 179.773 279.905 180.035 279.952C181.201 280.129 182.163 280.517 182.919 281.114C183.684 281.711 184.249 282.467 184.613 283.382C184.986 284.287 185.173 285.295 185.173 286.406C185.173 288.049 184.757 289.463 183.927 290.648C183.096 291.824 181.822 292.552 180.105 292.832L178.663 292.958H173.469V300H170.095ZM181.673 300L177.697 291.796L181.127 291.04L185.495 300H181.673ZM173.469 289.808H178.285C178.471 289.808 178.681 289.799 178.915 289.78C179.148 289.761 179.363 289.724 179.559 289.668C180.119 289.528 180.557 289.281 180.875 288.926C181.201 288.571 181.43 288.17 181.561 287.722C181.701 287.274 181.771 286.835 181.771 286.406C181.771 285.977 181.701 285.538 181.561 285.09C181.43 284.633 181.201 284.227 180.875 283.872C180.557 283.517 180.119 283.27 179.559 283.13C179.363 283.074 179.148 283.041 178.915 283.032C178.681 283.013 178.471 283.004 178.285 283.004H173.469V289.808ZM197.105 300.42C195.089 300.42 193.362 299.981 191.925 299.104C190.488 298.217 189.382 296.985 188.607 295.408C187.842 293.831 187.459 292.001 187.459 289.92C187.459 287.839 187.842 286.009 188.607 284.432C189.382 282.855 190.488 281.627 191.925 280.75C193.362 279.863 195.089 279.42 197.105 279.42C199.121 279.42 200.848 279.863 202.285 280.75C203.732 281.627 204.838 282.855 205.603 284.432C206.378 286.009 206.765 287.839 206.765 289.92C206.765 292.001 206.378 293.831 205.603 295.408C204.838 296.985 203.732 298.217 202.285 299.104C200.848 299.981 199.121 300.42 197.105 300.42ZM197.105 297.242C198.458 297.251 199.583 296.953 200.479 296.346C201.384 295.739 202.061 294.885 202.509 293.784C202.966 292.683 203.195 291.395 203.195 289.92C203.195 288.445 202.966 287.167 202.509 286.084C202.061 284.992 201.384 284.143 200.479 283.536C199.583 282.929 198.458 282.617 197.105 282.598C195.752 282.589 194.627 282.887 193.731 283.494C192.835 284.101 192.158 284.955 191.701 286.056C191.253 287.157 191.029 288.445 191.029 289.92C191.029 291.395 191.253 292.678 191.701 293.77C192.149 294.853 192.821 295.697 193.717 296.304C194.622 296.911 195.752 297.223 197.105 297.242ZM217.672 300.42C216.066 300.42 214.652 300.093 213.43 299.44C212.216 298.787 211.264 297.867 210.574 296.682C209.892 295.497 209.552 294.106 209.552 292.51V279.868L212.968 279.84V292.426C212.968 293.182 213.094 293.859 213.346 294.456C213.607 295.053 213.957 295.562 214.396 295.982C214.834 296.393 215.338 296.705 215.908 296.92C216.477 297.135 217.065 297.242 217.672 297.242C218.297 297.242 218.89 297.135 219.45 296.92C220.019 296.696 220.523 296.379 220.962 295.968C221.4 295.548 221.746 295.039 221.998 294.442C222.25 293.845 222.376 293.173 222.376 292.426V279.84H225.792V292.51C225.792 294.106 225.446 295.497 224.756 296.682C224.074 297.867 223.122 298.787 221.9 299.44C220.686 300.093 219.277 300.42 217.672 300.42ZM238.02 300.42C236.713 300.42 235.486 300.191 234.338 299.734C233.199 299.267 232.196 298.586 231.328 297.69C230.469 296.794 229.797 295.697 229.312 294.4C228.827 293.093 228.584 291.6 228.584 289.92C228.584 287.717 228.995 285.837 229.816 284.278C230.637 282.71 231.762 281.511 233.19 280.68C234.618 279.84 236.228 279.42 238.02 279.42C240.503 279.42 242.467 279.999 243.914 281.156C245.37 282.304 246.355 283.919 246.868 286L243.424 286.546C243.041 285.351 242.416 284.399 241.548 283.69C240.68 282.971 239.574 282.612 238.23 282.612C236.877 282.593 235.752 282.887 234.856 283.494C233.96 284.101 233.283 284.955 232.826 286.056C232.378 287.157 232.154 288.445 232.154 289.92C232.154 291.395 232.378 292.678 232.826 293.77C233.274 294.853 233.946 295.697 234.842 296.304C235.747 296.911 236.877 297.223 238.23 297.242C239.247 297.251 240.139 297.069 240.904 296.696C241.669 296.313 242.295 295.739 242.78 294.974C243.265 294.199 243.592 293.233 243.76 292.076H240.204V289.43H247.344C247.363 289.579 247.377 289.799 247.386 290.088C247.395 290.377 247.4 290.55 247.4 290.606C247.4 292.51 247.022 294.204 246.266 295.688C245.519 297.163 244.446 298.32 243.046 299.16C241.646 300 239.971 300.42 238.02 300.42ZM250.212 300V279.84H253.586V288.324H263.134V279.84H266.494V300H263.134V291.488H253.586V300H250.212ZM274.624 300L280.98 279.84H285.922L292.278 300H288.806L283.038 281.912H283.794L278.096 300H274.624ZM278.166 295.632V292.482H288.75V295.632H278.166ZM300.415 300V279.84H303.789V288.324H313.337V279.84H316.697V300H313.337V291.488H303.789V300H300.415ZM319.222 300L325.578 279.84H330.52L336.876 300H333.404L327.636 281.912H328.392L322.694 300H319.222ZM322.764 295.632V292.482H333.348V295.632H322.764ZM339.407 300V279.84H342.823L352.175 294.05V279.84H355.591V300H352.175L342.823 285.79V300H339.407ZM359.505 300V279.84H365.931C366.099 279.84 366.43 279.845 366.925 279.854C367.429 279.863 367.914 279.896 368.381 279.952C369.977 280.157 371.326 280.727 372.427 281.66C373.538 282.584 374.378 283.765 374.947 285.202C375.516 286.639 375.801 288.212 375.801 289.92C375.801 291.628 375.516 293.201 374.947 294.638C374.378 296.075 373.538 297.261 372.427 298.194C371.326 299.118 369.977 299.683 368.381 299.888C367.924 299.944 367.443 299.977 366.939 299.986C366.435 299.995 366.099 300 365.931 300H359.505ZM362.935 296.822H365.931C366.211 296.822 366.566 296.813 366.995 296.794C367.434 296.775 367.821 296.733 368.157 296.668C369.109 296.491 369.884 296.066 370.481 295.394C371.078 294.722 371.517 293.905 371.797 292.944C372.086 291.983 372.231 290.975 372.231 289.92C372.231 288.828 372.086 287.801 371.797 286.84C371.508 285.879 371.06 285.071 370.453 284.418C369.856 283.765 369.09 283.349 368.157 283.172C367.821 283.097 367.434 283.055 366.995 283.046C366.566 283.027 366.211 283.018 365.931 283.018H362.935V296.822ZM386.572 300.42C385.098 300.42 383.768 300.163 382.582 299.65C381.406 299.137 380.436 298.404 379.67 297.452C378.914 296.491 378.434 295.352 378.228 294.036L381.728 293.504C382.027 294.699 382.638 295.623 383.562 296.276C384.496 296.929 385.569 297.256 386.782 297.256C387.501 297.256 388.178 297.144 388.812 296.92C389.447 296.696 389.96 296.369 390.352 295.94C390.754 295.511 390.954 294.983 390.954 294.358C390.954 294.078 390.908 293.821 390.814 293.588C390.721 293.345 390.581 293.131 390.394 292.944C390.217 292.757 389.984 292.589 389.694 292.44C389.414 292.281 389.088 292.146 388.714 292.034L383.506 290.494C383.058 290.363 382.573 290.191 382.05 289.976C381.537 289.752 381.047 289.449 380.58 289.066C380.123 288.674 379.745 288.179 379.446 287.582C379.157 286.975 379.012 286.229 379.012 285.342C379.012 284.045 379.339 282.957 379.992 282.08C380.655 281.193 381.542 280.531 382.652 280.092C383.772 279.653 385.014 279.439 386.376 279.448C387.758 279.457 388.99 279.695 390.072 280.162C391.155 280.619 392.06 281.287 392.788 282.164C393.516 283.041 394.03 284.101 394.328 285.342L390.702 285.972C390.553 285.263 390.264 284.661 389.834 284.166C389.414 283.662 388.896 283.279 388.28 283.018C387.674 282.757 387.025 282.617 386.334 282.598C385.662 282.589 385.037 282.691 384.458 282.906C383.889 283.111 383.427 283.41 383.072 283.802C382.727 284.194 382.554 284.651 382.554 285.174C382.554 285.669 382.704 286.075 383.002 286.392C383.301 286.7 383.67 286.947 384.108 287.134C384.556 287.311 385.009 287.461 385.466 287.582L389.078 288.59C389.573 288.721 390.128 288.898 390.744 289.122C391.36 289.346 391.953 289.659 392.522 290.06C393.092 290.461 393.558 290.989 393.922 291.642C394.296 292.295 394.482 293.126 394.482 294.134C394.482 295.179 394.263 296.099 393.824 296.892C393.395 297.676 392.812 298.329 392.074 298.852C391.337 299.375 390.492 299.767 389.54 300.028C388.598 300.289 387.608 300.42 386.572 300.42ZM397.513 300V279.84H400.887V288.324H410.435V279.84H413.795V300H410.435V291.488H400.887V300H397.513ZM416.32 300L422.676 279.84H427.618L433.974 300H430.502L424.734 281.912H425.49L419.792 300H416.32ZM419.862 295.632V292.482H430.446V295.632H419.862ZM436.505 300V279.84H439.879V289.192L447.929 279.84H452.073L443.407 289.724L452.661 300H448.377L439.879 290.592V300H436.505ZM454.634 300V279.84H467.654V283.004H458.008V287.974H465.974V291.138H458.008V296.836H467.654V300H454.634Z" fill="white"></path> <rect y="475" width="600" height="300" rx="20" fill="#0BA360"></rect> <path d="M57.6573 616V595.84H65.6513C67.0139 595.84 68.1293 596.115 68.9973 596.666C69.8746 597.207 70.5233 597.903 70.9433 598.752C71.3726 599.601 71.5873 600.479 71.5873 601.384C71.5873 602.495 71.3213 603.437 70.7893 604.212C70.2666 604.987 69.5526 605.509 68.6473 605.78V605.08C69.9166 605.369 70.8779 605.971 71.5313 606.886C72.1939 607.801 72.5253 608.841 72.5253 610.008C72.5253 611.203 72.2966 612.248 71.8393 613.144C71.3819 614.04 70.7006 614.74 69.7953 615.244C68.8993 615.748 67.7886 616 66.4633 616H57.6573ZM61.0733 612.822H66.0433C66.6313 612.822 67.1586 612.705 67.6253 612.472C68.0919 612.229 68.4559 611.893 68.7173 611.464C68.9879 611.025 69.1233 610.507 69.1233 609.91C69.1233 609.369 69.0066 608.883 68.7733 608.454C68.5399 608.025 68.1993 607.684 67.7513 607.432C67.3033 607.171 66.7666 607.04 66.1413 607.04H61.0733V612.822ZM61.0733 603.89H65.6093C66.0946 603.89 66.5286 603.797 66.9113 603.61C67.2939 603.423 67.5973 603.148 67.8213 602.784C68.0453 602.42 68.1573 601.972 68.1573 601.44C68.1573 600.74 67.9333 600.157 67.4853 599.69C67.0373 599.223 66.4119 598.99 65.6093 598.99H61.0733V603.89ZM75.3213 616V595.84H88.3413V599.004H78.6953V603.974H86.6613V607.138H78.6953V612.836H88.3413V616H75.3213ZM95.9057 616L102.262 595.84H107.204L113.56 616H110.088L104.32 597.912H105.076L99.3777 616H95.9057ZM99.4477 611.632V608.482H110.032V611.632H99.4477ZM116.091 616V595.84H124.085C125.448 595.84 126.563 596.115 127.431 596.666C128.308 597.207 128.957 597.903 129.377 598.752C129.806 599.601 130.021 600.479 130.021 601.384C130.021 602.495 129.755 603.437 129.223 604.212C128.7 604.987 127.986 605.509 127.081 605.78V605.08C128.35 605.369 129.312 605.971 129.965 606.886C130.628 607.801 130.959 608.841 130.959 610.008C130.959 611.203 130.73 612.248 130.273 613.144C129.816 614.04 129.134 614.74 128.229 615.244C127.333 615.748 126.222 616 124.897 616H116.091ZM119.507 612.822H124.477C125.065 612.822 125.592 612.705 126.059 612.472C126.526 612.229 126.89 611.893 127.151 611.464C127.422 611.025 127.557 610.507 127.557 609.91C127.557 609.369 127.44 608.883 127.207 608.454C126.974 608.025 126.633 607.684 126.185 607.432C125.737 607.171 125.2 607.04 124.575 607.04H119.507V612.822ZM119.507 603.89H124.043C124.528 603.89 124.962 603.797 125.345 603.61C125.728 603.423 126.031 603.148 126.255 602.784C126.479 602.42 126.591 601.972 126.591 601.44C126.591 600.74 126.367 600.157 125.919 599.69C125.471 599.223 124.846 598.99 124.043 598.99H119.507V603.89ZM134.035 616V595.84H137.409V612.836H146.313V616H134.035ZM148.685 616V595.84H161.705V599.004H152.059V603.974H160.025V607.138H152.059V612.836H161.705V616H148.685ZM175.513 616V599.004H168.989V595.84H185.411V599.004H178.887V616H175.513ZM196.175 616.42C194.159 616.42 192.433 615.981 190.995 615.104C189.558 614.217 188.452 612.985 187.677 611.408C186.912 609.831 186.529 608.001 186.529 605.92C186.529 603.839 186.912 602.009 187.677 600.432C188.452 598.855 189.558 597.627 190.995 596.75C192.433 595.863 194.159 595.42 196.175 595.42C198.191 595.42 199.918 595.863 201.355 596.75C202.802 597.627 203.908 598.855 204.673 600.432C205.448 602.009 205.835 603.839 205.835 605.92C205.835 608.001 205.448 609.831 204.673 611.408C203.908 612.985 202.802 614.217 201.355 615.104C199.918 615.981 198.191 616.42 196.175 616.42ZM196.175 613.242C197.529 613.251 198.653 612.953 199.549 612.346C200.455 611.739 201.131 610.885 201.579 609.784C202.037 608.683 202.265 607.395 202.265 605.92C202.265 604.445 202.037 603.167 201.579 602.084C201.131 600.992 200.455 600.143 199.549 599.536C198.653 598.929 197.529 598.617 196.175 598.598C194.822 598.589 193.697 598.887 192.801 599.494C191.905 600.101 191.229 600.955 190.771 602.056C190.323 603.157 190.099 604.445 190.099 605.92C190.099 607.395 190.323 608.678 190.771 609.77C191.219 610.853 191.891 611.697 192.787 612.304C193.693 612.911 194.822 613.223 196.175 613.242ZM214.228 616V595.84H217.266L224.238 610.12L231.21 595.84H234.248V616H231.098V603.078L224.91 616H223.566L217.392 603.078V616H214.228ZM236.781 616L243.137 595.84H248.079L254.435 616H250.963L245.195 597.912H245.951L240.253 616H236.781ZM240.323 611.632V608.482H250.907V611.632H240.323ZM256.966 616V595.84H260.34V605.192L268.39 595.84H272.534L263.868 605.724L273.122 616H268.838L260.34 606.592V616H256.966ZM275.095 616V595.84H288.115V599.004H278.469V603.974H286.435V607.138H278.469V612.836H288.115V616H275.095ZM295.679 616L302.035 595.84H306.977L313.333 616H309.861L304.093 597.912H304.849L299.151 616H295.679ZM299.221 611.632V608.482H309.805V611.632H299.221ZM315.864 616V595.84H319.28L328.632 610.05V595.84H332.048V616H328.632L319.28 601.79V616H315.864ZM344.488 616.42C342.472 616.42 340.745 615.981 339.308 615.104C337.871 614.217 336.765 612.985 335.99 611.408C335.225 609.831 334.842 608.001 334.842 605.92C334.842 603.839 335.225 602.009 335.99 600.432C336.765 598.855 337.871 597.627 339.308 596.75C340.745 595.863 342.472 595.42 344.488 595.42C346.504 595.42 348.231 595.863 349.668 596.75C351.115 597.627 352.221 598.855 352.986 600.432C353.761 602.009 354.148 603.839 354.148 605.92C354.148 608.001 353.761 609.831 352.986 611.408C352.221 612.985 351.115 614.217 349.668 615.104C348.231 615.981 346.504 616.42 344.488 616.42ZM344.488 613.242C345.841 613.251 346.966 612.953 347.862 612.346C348.767 611.739 349.444 610.885 349.892 609.784C350.349 608.683 350.578 607.395 350.578 605.92C350.578 604.445 350.349 603.167 349.892 602.084C349.444 600.992 348.767 600.143 347.862 599.536C346.966 598.929 345.841 598.617 344.488 598.598C343.135 598.589 342.01 598.887 341.114 599.494C340.218 600.101 339.541 600.955 339.084 602.056C338.636 603.157 338.412 604.445 338.412 605.92C338.412 607.395 338.636 608.678 339.084 609.77C339.532 610.853 340.204 611.697 341.1 612.304C342.005 612.911 343.135 613.223 344.488 613.242ZM361.232 616V599.004H354.708V595.84H371.13V599.004H364.606V616H361.232ZM373.368 616V595.84H376.742V604.324H386.29V595.84H389.65V616H386.29V607.488H376.742V616H373.368ZM393.575 616V595.84H406.595V599.004H396.949V603.974H404.915V607.138H396.949V612.836H406.595V616H393.575ZM409.954 616V595.84H418.284C418.48 595.84 418.732 595.849 419.04 595.868C419.348 595.877 419.633 595.905 419.894 595.952C421.061 596.129 422.022 596.517 422.778 597.114C423.543 597.711 424.108 598.467 424.472 599.382C424.845 600.287 425.032 601.295 425.032 602.406C425.032 604.049 424.617 605.463 423.786 606.648C422.955 607.824 421.681 608.552 419.964 608.832L418.522 608.958H413.328V616H409.954ZM421.532 616L417.556 607.796L420.986 607.04L425.354 616H421.532ZM413.328 605.808H418.144C418.331 605.808 418.541 605.799 418.774 605.78C419.007 605.761 419.222 605.724 419.418 605.668C419.978 605.528 420.417 605.281 420.734 604.926C421.061 604.571 421.289 604.17 421.42 603.722C421.56 603.274 421.63 602.835 421.63 602.406C421.63 601.977 421.56 601.538 421.42 601.09C421.289 600.633 421.061 600.227 420.734 599.872C420.417 599.517 419.978 599.27 419.418 599.13C419.222 599.074 419.007 599.041 418.774 599.032C418.541 599.013 418.331 599.004 418.144 599.004H413.328V605.808ZM434.044 616V595.84H442.374C442.57 595.84 442.822 595.849 443.13 595.868C443.438 595.877 443.723 595.905 443.984 595.952C445.151 596.129 446.112 596.517 446.868 597.114C447.633 597.711 448.198 598.467 448.562 599.382C448.935 600.287 449.122 601.295 449.122 602.406C449.122 603.507 448.935 604.515 448.562 605.43C448.189 606.335 447.619 607.087 446.854 607.684C446.098 608.281 445.141 608.669 443.984 608.846C443.723 608.883 443.433 608.911 443.116 608.93C442.808 608.949 442.561 608.958 442.374 608.958H437.418V616H434.044ZM437.418 605.808H442.234C442.421 605.808 442.631 605.799 442.864 605.78C443.097 605.761 443.312 605.724 443.508 605.668C444.068 605.528 444.507 605.281 444.824 604.926C445.151 604.571 445.379 604.17 445.51 603.722C445.65 603.274 445.72 602.835 445.72 602.406C445.72 601.977 445.65 601.538 445.51 601.09C445.379 600.633 445.151 600.227 444.824 599.872C444.507 599.517 444.068 599.27 443.508 599.13C443.312 599.074 443.097 599.041 442.864 599.032C442.631 599.013 442.421 599.004 442.234 599.004H437.418V605.808ZM451.927 616V595.84H464.947V599.004H455.301V603.974H463.267V607.138H455.301V612.836H464.947V616H451.927ZM468.306 616V595.84H476.636C476.832 595.84 477.084 595.849 477.392 595.868C477.7 595.877 477.984 595.905 478.246 595.952C479.412 596.129 480.374 596.517 481.13 597.114C481.895 597.711 482.46 598.467 482.824 599.382C483.197 600.287 483.384 601.295 483.384 602.406C483.384 604.049 482.968 605.463 482.138 606.648C481.307 607.824 480.033 608.552 478.316 608.832L476.874 608.958H471.68V616H468.306ZM479.884 616L475.908 607.796L479.338 607.04L483.706 616H479.884ZM471.68 605.808H476.496C476.682 605.808 476.892 605.799 477.126 605.78C477.359 605.761 477.574 605.724 477.77 605.668C478.33 605.528 478.768 605.281 479.086 604.926C479.412 604.571 479.641 604.17 479.772 603.722C479.912 603.274 479.982 602.835 479.982 602.406C479.982 601.977 479.912 601.538 479.772 601.09C479.641 600.633 479.412 600.227 479.086 599.872C478.768 599.517 478.33 599.27 477.77 599.13C477.574 599.074 477.359 599.041 477.126 599.032C476.892 599.013 476.682 599.004 476.496 599.004H471.68V605.808ZM494.252 616.42C492.777 616.42 491.447 616.163 490.262 615.65C489.086 615.137 488.115 614.404 487.35 613.452C486.594 612.491 486.113 611.352 485.908 610.036L489.408 609.504C489.707 610.699 490.318 611.623 491.242 612.276C492.175 612.929 493.249 613.256 494.462 613.256C495.181 613.256 495.857 613.144 496.492 612.92C497.127 612.696 497.64 612.369 498.032 611.94C498.433 611.511 498.634 610.983 498.634 610.358C498.634 610.078 498.587 609.821 498.494 609.588C498.401 609.345 498.261 609.131 498.074 608.944C497.897 608.757 497.663 608.589 497.374 608.44C497.094 608.281 496.767 608.146 496.394 608.034L491.186 606.494C490.738 606.363 490.253 606.191 489.73 605.976C489.217 605.752 488.727 605.449 488.26 605.066C487.803 604.674 487.425 604.179 487.126 603.582C486.837 602.975 486.692 602.229 486.692 601.342C486.692 600.045 487.019 598.957 487.672 598.08C488.335 597.193 489.221 596.531 490.332 596.092C491.452 595.653 492.693 595.439 494.056 595.448C495.437 595.457 496.669 595.695 497.752 596.162C498.835 596.619 499.74 597.287 500.468 598.164C501.196 599.041 501.709 600.101 502.008 601.342L498.382 601.972C498.233 601.263 497.943 600.661 497.514 600.166C497.094 599.662 496.576 599.279 495.96 599.018C495.353 598.757 494.705 598.617 494.014 598.598C493.342 598.589 492.717 598.691 492.138 598.906C491.569 599.111 491.107 599.41 490.752 599.802C490.407 600.194 490.234 600.651 490.234 601.174C490.234 601.669 490.383 602.075 490.682 602.392C490.981 602.7 491.349 602.947 491.788 603.134C492.236 603.311 492.689 603.461 493.146 603.582L496.758 604.59C497.253 604.721 497.808 604.898 498.424 605.122C499.04 605.346 499.633 605.659 500.202 606.06C500.771 606.461 501.238 606.989 501.602 607.642C501.975 608.295 502.162 609.126 502.162 610.134C502.162 611.179 501.943 612.099 501.504 612.892C501.075 613.676 500.491 614.329 499.754 614.852C499.017 615.375 498.172 615.767 497.22 616.028C496.277 616.289 495.288 616.42 494.252 616.42ZM513.718 616.42C511.702 616.42 509.976 615.981 508.538 615.104C507.101 614.217 505.995 612.985 505.22 611.408C504.455 609.831 504.072 608.001 504.072 605.92C504.072 603.839 504.455 602.009 505.22 600.432C505.995 598.855 507.101 597.627 508.538 596.75C509.976 595.863 511.702 595.42 513.718 595.42C515.734 595.42 517.461 595.863 518.898 596.75C520.345 597.627 521.451 598.855 522.216 600.432C522.991 602.009 523.378 603.839 523.378 605.92C523.378 608.001 522.991 609.831 522.216 611.408C521.451 612.985 520.345 614.217 518.898 615.104C517.461 615.981 515.734 616.42 513.718 616.42ZM513.718 613.242C515.072 613.251 516.196 612.953 517.092 612.346C517.998 611.739 518.674 610.885 519.122 609.784C519.58 608.683 519.808 607.395 519.808 605.92C519.808 604.445 519.58 603.167 519.122 602.084C518.674 600.992 517.998 600.143 517.092 599.536C516.196 598.929 515.072 598.617 513.718 598.598C512.365 598.589 511.24 598.887 510.344 599.494C509.448 600.101 508.772 600.955 508.314 602.056C507.866 603.157 507.642 604.445 507.642 605.92C507.642 607.395 507.866 608.678 508.314 609.77C508.762 610.853 509.434 611.697 510.33 612.304C511.236 612.911 512.365 613.223 513.718 613.242ZM526.165 616V595.84H529.581L538.933 610.05V595.84H542.349V616H538.933L529.581 601.79V616H526.165ZM121.095 655V634.84H127.521C127.689 634.84 128.02 634.845 128.515 634.854C129.019 634.863 129.504 634.896 129.971 634.952C131.567 635.157 132.915 635.727 134.017 636.66C135.127 637.584 135.967 638.765 136.537 640.202C137.106 641.639 137.391 643.212 137.391 644.92C137.391 646.628 137.106 648.201 136.537 649.638C135.967 651.075 135.127 652.261 134.017 653.194C132.915 654.118 131.567 654.683 129.971 654.888C129.513 654.944 129.033 654.977 128.529 654.986C128.025 654.995 127.689 655 127.521 655H121.095ZM124.525 651.822H127.521C127.801 651.822 128.155 651.813 128.585 651.794C129.023 651.775 129.411 651.733 129.747 651.668C130.699 651.491 131.473 651.066 132.071 650.394C132.668 649.722 133.107 648.905 133.387 647.944C133.676 646.983 133.821 645.975 133.821 644.92C133.821 643.828 133.676 642.801 133.387 641.84C133.097 640.879 132.649 640.071 132.043 639.418C131.445 638.765 130.68 638.349 129.747 638.172C129.411 638.097 129.023 638.055 128.585 638.046C128.155 638.027 127.801 638.018 127.521 638.018H124.525V651.822ZM149.226 655.42C147.21 655.42 145.484 654.981 144.046 654.104C142.609 653.217 141.503 651.985 140.728 650.408C139.963 648.831 139.58 647.001 139.58 644.92C139.58 642.839 139.963 641.009 140.728 639.432C141.503 637.855 142.609 636.627 144.046 635.75C145.484 634.863 147.21 634.42 149.226 634.42C151.242 634.42 152.969 634.863 154.406 635.75C155.853 636.627 156.959 637.855 157.724 639.432C158.499 641.009 158.886 642.839 158.886 644.92C158.886 647.001 158.499 648.831 157.724 650.408C156.959 651.985 155.853 653.217 154.406 654.104C152.969 654.981 151.242 655.42 149.226 655.42ZM149.226 652.242C150.58 652.251 151.704 651.953 152.6 651.346C153.506 650.739 154.182 649.885 154.63 648.784C155.088 647.683 155.316 646.395 155.316 644.92C155.316 643.445 155.088 642.167 154.63 641.084C154.182 639.992 153.506 639.143 152.6 638.536C151.704 637.929 150.58 637.617 149.226 637.598C147.873 637.589 146.748 637.887 145.852 638.494C144.956 639.101 144.28 639.955 143.822 641.056C143.374 642.157 143.15 643.445 143.15 644.92C143.15 646.395 143.374 647.678 143.822 648.77C144.27 649.853 144.942 650.697 145.838 651.304C146.744 651.911 147.873 652.223 149.226 652.242ZM165.878 655L172.234 634.84H177.176L183.532 655H180.06L174.292 636.912H175.048L169.35 655H165.878ZM169.42 650.632V647.482H180.004V650.632H169.42ZM186.064 655V634.84H189.48L198.832 649.05V634.84H202.248V655H198.832L189.48 640.79V655H186.064ZM211.061 655V646.74L204.201 634.84H208.135L212.769 642.876L217.389 634.84H221.323L214.477 646.74V655H211.061ZM227.763 655V634.84H239.901V638.214H231.137V643.24H238.221V646.6H231.137V655H227.763ZM240.746 655L247.102 634.84H252.044L258.4 655H254.928L249.16 636.912H249.916L244.218 655H240.746ZM244.288 650.632V647.482H254.872V650.632H244.288ZM263.498 655L257.142 634.84H260.614L265.934 651.724L271.324 634.84H274.796L268.44 655H263.498ZM284.879 655.42C282.863 655.42 281.136 654.981 279.699 654.104C278.261 653.217 277.155 651.985 276.381 650.408C275.615 648.831 275.233 647.001 275.233 644.92C275.233 642.839 275.615 641.009 276.381 639.432C277.155 637.855 278.261 636.627 279.699 635.75C281.136 634.863 282.863 634.42 284.879 634.42C286.895 634.42 288.621 634.863 290.059 635.75C291.505 636.627 292.611 637.855 293.377 639.432C294.151 641.009 294.539 642.839 294.539 644.92C294.539 647.001 294.151 648.831 293.377 650.408C292.611 651.985 291.505 653.217 290.059 654.104C288.621 654.981 286.895 655.42 284.879 655.42ZM284.879 652.242C286.232 652.251 287.357 651.953 288.253 651.346C289.158 650.739 289.835 649.885 290.283 648.784C290.74 647.683 290.969 646.395 290.969 644.92C290.969 643.445 290.74 642.167 290.283 641.084C289.835 639.992 289.158 639.143 288.253 638.536C287.357 637.929 286.232 637.617 284.879 637.598C283.525 637.589 282.401 637.887 281.505 638.494C280.609 639.101 279.932 639.955 279.475 641.056C279.027 642.157 278.803 643.445 278.803 644.92C278.803 646.395 279.027 647.678 279.475 648.77C279.923 649.853 280.595 650.697 281.491 651.304C282.396 651.911 283.525 652.223 284.879 652.242ZM297.325 655V634.84H305.655C305.851 634.84 306.103 634.849 306.411 634.868C306.719 634.877 307.004 634.905 307.265 634.952C308.432 635.129 309.393 635.517 310.149 636.114C310.915 636.711 311.479 637.467 311.843 638.382C312.217 639.287 312.403 640.295 312.403 641.406C312.403 643.049 311.988 644.463 311.157 645.648C310.327 646.824 309.053 647.552 307.335 647.832L305.893 647.958H300.699V655H297.325ZM308.903 655L304.927 646.796L308.357 646.04L312.725 655H308.903ZM300.699 644.808H305.515C305.702 644.808 305.912 644.799 306.145 644.78C306.379 644.761 306.593 644.724 306.789 644.668C307.349 644.528 307.788 644.281 308.105 643.926C308.432 643.571 308.661 643.17 308.791 642.722C308.931 642.274 309.001 641.835 309.001 641.406C309.001 640.977 308.931 640.538 308.791 640.09C308.661 639.633 308.432 639.227 308.105 638.872C307.788 638.517 307.349 638.27 306.789 638.13C306.593 638.074 306.379 638.041 306.145 638.032C305.912 638.013 305.702 638.004 305.515 638.004H300.699V644.808ZM329.941 655.42C327.925 655.42 326.198 654.981 324.761 654.104C323.324 653.217 322.218 651.985 321.443 650.408C320.678 648.831 320.295 647.001 320.295 644.92C320.295 642.839 320.678 641.009 321.443 639.432C322.218 637.855 323.324 636.627 324.761 635.75C326.198 634.863 327.925 634.42 329.941 634.42C331.957 634.42 333.684 634.863 335.121 635.75C336.568 636.627 337.674 637.855 338.439 639.432C339.214 641.009 339.601 642.839 339.601 644.92C339.601 647.001 339.214 648.831 338.439 650.408C337.674 651.985 336.568 653.217 335.121 654.104C333.684 654.981 331.957 655.42 329.941 655.42ZM329.941 652.242C331.294 652.251 332.419 651.953 333.315 651.346C334.22 650.739 334.897 649.885 335.345 648.784C335.802 647.683 336.031 646.395 336.031 644.92C336.031 643.445 335.802 642.167 335.345 641.084C334.897 639.992 334.22 639.143 333.315 638.536C332.419 637.929 331.294 637.617 329.941 637.598C328.588 637.589 327.463 637.887 326.567 638.494C325.671 639.101 324.994 639.955 324.537 641.056C324.089 642.157 323.865 643.445 323.865 644.92C323.865 646.395 324.089 647.678 324.537 648.77C324.985 649.853 325.657 650.697 326.553 651.304C327.458 651.911 328.588 652.223 329.941 652.242ZM342.388 655V634.84H345.804L355.156 649.05V634.84H358.572V655H355.156L345.804 640.79V655H342.388ZM371.011 655.42C368.995 655.42 367.269 654.981 365.831 654.104C364.394 653.217 363.288 651.985 362.513 650.408C361.748 648.831 361.365 647.001 361.365 644.92C361.365 642.839 361.748 641.009 362.513 639.432C363.288 637.855 364.394 636.627 365.831 635.75C367.269 634.863 368.995 634.42 371.011 634.42C373.335 634.42 375.272 635.003 376.821 636.17C378.371 637.327 379.458 638.891 380.083 640.86L376.681 641.798C376.289 640.482 375.622 639.455 374.679 638.718C373.737 637.971 372.514 637.598 371.011 637.598C369.658 637.598 368.529 637.901 367.623 638.508C366.727 639.115 366.051 639.969 365.593 641.07C365.145 642.162 364.917 643.445 364.907 644.92C364.907 646.395 365.131 647.683 365.579 648.784C366.037 649.876 366.718 650.725 367.623 651.332C368.529 651.939 369.658 652.242 371.011 652.242C372.514 652.242 373.737 651.869 374.679 651.122C375.622 650.375 376.289 649.349 376.681 648.042L380.083 648.98C379.458 650.949 378.371 652.517 376.821 653.684C375.272 654.841 373.335 655.42 371.011 655.42ZM383.157 655V634.84H396.177V638.004H386.531V642.974H394.497V646.138H386.531V651.836H396.177V655H383.157ZM403.742 655L410.098 634.84H415.04L421.396 655H417.924L412.156 636.912H412.912L407.214 655H403.742ZM407.284 650.632V647.482H417.868V650.632H407.284ZM429.532 655V634.84H435.958C436.126 634.84 436.458 634.845 436.952 634.854C437.456 634.863 437.942 634.896 438.408 634.952C440.004 635.157 441.353 635.727 442.454 636.66C443.565 637.584 444.405 638.765 444.974 640.202C445.544 641.639 445.828 643.212 445.828 644.92C445.828 646.628 445.544 648.201 444.974 649.638C444.405 651.075 443.565 652.261 442.454 653.194C441.353 654.118 440.004 654.683 438.408 654.888C437.951 654.944 437.47 654.977 436.966 654.986C436.462 654.995 436.126 655 435.958 655H429.532ZM432.962 651.822H435.958C436.238 651.822 436.593 651.813 437.022 651.794C437.461 651.775 437.848 651.733 438.184 651.668C439.136 651.491 439.911 651.066 440.508 650.394C441.106 649.722 441.544 648.905 441.824 647.944C442.114 646.983 442.258 645.975 442.258 644.92C442.258 643.828 442.114 642.801 441.824 641.84C441.535 640.879 441.087 640.071 440.48 639.418C439.883 638.765 439.118 638.349 438.184 638.172C437.848 638.097 437.461 638.055 437.022 638.046C436.593 638.027 436.238 638.018 435.958 638.018H432.962V651.822ZM447.191 655L453.547 634.84H458.489L464.845 655H461.373L455.605 636.912H456.361L450.663 655H447.191ZM450.733 650.632V647.482H461.317V650.632H450.733ZM470.608 655V646.74L463.748 634.84H467.682L472.316 642.876L476.936 634.84H480.87L474.024 646.74V655H470.608Z" fill="white"></path> <circle cx="300" cy="448" r="60" fill="#F9F9F9"></circle> <path d="M288.777 461.51C286.329 461.51 284.232 460.977 282.487 459.912C280.742 458.835 279.399 457.339 278.458 455.424C277.529 453.509 277.064 451.287 277.064 448.76C277.064 446.233 277.529 444.011 278.458 442.096C279.399 440.181 280.742 438.69 282.487 437.625C284.232 436.548 286.329 436.01 288.777 436.01C291.225 436.01 293.322 436.548 295.067 437.625C296.824 438.69 298.167 440.181 299.096 442.096C300.037 444.011 300.507 446.233 300.507 448.76C300.507 451.287 300.037 453.509 299.096 455.424C298.167 457.339 296.824 458.835 295.067 459.912C293.322 460.977 291.225 461.51 288.777 461.51ZM288.777 457.651C290.42 457.662 291.786 457.3 292.874 456.563C293.973 455.826 294.795 454.789 295.339 453.452C295.894 452.115 296.172 450.551 296.172 448.76C296.172 446.969 295.894 445.417 295.339 444.102C294.795 442.776 293.973 441.745 292.874 441.008C291.786 440.271 290.42 439.892 288.777 439.869C287.134 439.858 285.768 440.22 284.68 440.957C283.592 441.694 282.77 442.731 282.215 444.068C281.671 445.405 281.399 446.969 281.399 448.76C281.399 450.551 281.671 452.109 282.215 453.435C282.759 454.75 283.575 455.775 284.663 456.512C285.762 457.249 287.134 457.628 288.777 457.651ZM303.891 461V436.52H314.006C314.244 436.52 314.55 436.531 314.924 436.554C315.298 436.565 315.643 436.599 315.961 436.656C317.377 436.871 318.545 437.342 319.463 438.067C320.392 438.792 321.078 439.71 321.52 440.821C321.973 441.92 322.2 443.144 322.2 444.493C322.2 446.488 321.695 448.205 320.687 449.644C319.678 451.072 318.131 451.956 316.046 452.296L314.295 452.449H307.988V461H303.891ZM317.95 461L313.122 451.038L317.287 450.12L322.591 461H317.95ZM307.988 448.624H313.836C314.062 448.624 314.317 448.613 314.601 448.59C314.884 448.567 315.145 448.522 315.383 448.454C316.063 448.284 316.595 447.984 316.981 447.553C317.377 447.122 317.655 446.635 317.814 446.091C317.984 445.547 318.069 445.014 318.069 444.493C318.069 443.972 317.984 443.439 317.814 442.895C317.655 442.34 317.377 441.847 316.981 441.416C316.595 440.985 316.063 440.685 315.383 440.515C315.145 440.447 314.884 440.407 314.601 440.396C314.317 440.373 314.062 440.362 313.836 440.362H307.988V448.624Z" fill="#3E1BC9"></path> </svg> 