<?xml version="1.0" encoding="UTF-8"?> <svg xmlns="http://www.w3.org/2000/svg" width="600" height="775" viewBox="0 0 600 775" fill="none"> <rect width="600" height="775" rx="20" fill="#F9F9F9"></rect> <path d="M129.614 73L122.457 48.52H126.758L131.637 66.2L136.499 48.554L140.8 48.52L145.679 66.2L150.541 48.52H154.842L147.702 73H143.656L138.641 55.592L133.66 73H129.614ZM167.305 73.51C164.857 73.51 162.761 72.9773 161.015 71.912C159.27 70.8353 157.927 69.3393 156.986 67.424C156.057 65.5087 155.592 63.2873 155.592 60.76C155.592 58.2327 156.057 56.0113 156.986 54.096C157.927 52.1807 159.27 50.6903 161.015 49.625C162.761 48.5483 164.857 48.01 167.305 48.01C169.753 48.01 171.85 48.5483 173.595 49.625C175.352 50.6903 176.695 52.1807 177.624 54.096C178.565 56.0113 179.035 58.2327 179.035 60.76C179.035 63.2873 178.565 65.5087 177.624 67.424C176.695 69.3393 175.352 70.8353 173.595 71.912C171.85 72.9773 169.753 73.51 167.305 73.51ZM167.305 69.651C168.949 69.6623 170.314 69.2997 171.402 68.563C172.502 67.8263 173.323 66.7893 173.867 65.452C174.423 64.1147 174.7 62.5507 174.7 60.76C174.7 58.9693 174.423 57.4167 173.867 56.102C173.323 54.776 172.502 53.7447 171.402 53.008C170.314 52.2713 168.949 51.8917 167.305 51.869C165.662 51.8577 164.296 52.2203 163.208 52.957C162.12 53.6937 161.299 54.7307 160.743 56.068C160.199 57.4053 159.927 58.9693 159.927 60.76C159.927 62.5507 160.199 64.109 160.743 65.435C161.287 66.7497 162.103 67.7753 163.191 68.512C164.291 69.2487 165.662 69.6283 167.305 69.651ZM192.279 73.51C190.33 73.51 188.613 73.1133 187.128 72.32C185.655 71.5267 184.499 70.4103 183.66 68.971C182.833 67.5317 182.419 65.843 182.419 63.905V48.554L186.567 48.52V63.803C186.567 64.721 186.72 65.5427 187.026 66.268C187.343 66.9933 187.768 67.611 188.301 68.121C188.834 68.6197 189.446 68.9993 190.137 69.26C190.828 69.5207 191.542 69.651 192.279 69.651C193.038 69.651 193.758 69.5207 194.438 69.26C195.129 68.988 195.741 68.6027 196.274 68.104C196.807 67.594 197.226 66.9763 197.532 66.251C197.838 65.5257 197.991 64.7097 197.991 63.803V48.52H202.139V63.905C202.139 65.843 201.72 67.5317 200.881 68.971C200.054 70.4103 198.898 71.5267 197.413 72.32C195.94 73.1133 194.228 73.51 192.279 73.51ZM207.23 73V48.52H211.327V69.158H222.139V73H207.23ZM225.019 73V48.52H232.822C233.026 48.52 233.428 48.5257 234.029 48.537C234.641 48.5483 235.23 48.588 235.797 48.656C237.735 48.9053 239.372 49.5967 240.71 50.73C242.058 51.852 243.078 53.2857 243.77 55.031C244.461 56.7763 244.807 58.686 244.807 60.76C244.807 62.834 244.461 64.7437 243.77 66.489C243.078 68.2343 242.058 69.6737 240.71 70.807C239.372 71.929 237.735 72.6147 235.797 72.864C235.241 72.932 234.658 72.9717 234.046 72.983C233.434 72.9943 233.026 73 232.822 73H225.019ZM229.184 69.141H232.822C233.162 69.141 233.592 69.1297 234.114 69.107C234.646 69.0843 235.117 69.0333 235.525 68.954C236.681 68.7387 237.621 68.223 238.347 67.407C239.072 66.591 239.605 65.5993 239.945 64.432C240.296 63.2647 240.472 62.0407 240.472 60.76C240.472 59.434 240.296 58.1873 239.945 57.02C239.593 55.8527 239.049 54.8723 238.313 54.079C237.587 53.2857 236.658 52.7813 235.525 52.566C235.117 52.4753 234.646 52.4243 234.114 52.413C233.592 52.3903 233.162 52.379 232.822 52.379H229.184V69.141ZM261.582 73V62.97L253.252 48.52H258.029L263.656 58.278L269.266 48.52H274.043L265.73 62.97V73H261.582ZM285.409 73.51C282.961 73.51 280.864 72.9773 279.119 71.912C277.373 70.8353 276.03 69.3393 275.09 67.424C274.16 65.5087 273.696 63.2873 273.696 60.76C273.696 58.2327 274.16 56.0113 275.09 54.096C276.03 52.1807 277.373 50.6903 279.119 49.625C280.864 48.5483 282.961 48.01 285.409 48.01C287.857 48.01 289.953 48.5483 291.699 49.625C293.455 50.6903 294.798 52.1807 295.728 54.096C296.668 56.0113 297.139 58.2327 297.139 60.76C297.139 63.2873 296.668 65.5087 295.728 67.424C294.798 69.3393 293.455 70.8353 291.699 71.912C289.953 72.9773 287.857 73.51 285.409 73.51ZM285.409 69.651C287.052 69.6623 288.418 69.2997 289.506 68.563C290.605 67.8263 291.427 66.7893 291.971 65.452C292.526 64.1147 292.804 62.5507 292.804 60.76C292.804 58.9693 292.526 57.4167 291.971 56.102C291.427 54.776 290.605 53.7447 289.506 53.008C288.418 52.2713 287.052 51.8917 285.409 51.869C283.765 51.8577 282.4 52.2203 281.312 52.957C280.224 53.6937 279.402 54.7307 278.847 56.068C278.303 57.4053 278.031 58.9693 278.031 60.76C278.031 62.5507 278.303 64.109 278.847 65.435C279.391 66.7497 280.207 67.7753 281.295 68.512C282.394 69.2487 283.765 69.6283 285.409 69.651ZM310.383 73.51C308.433 73.51 306.716 73.1133 305.232 72.32C303.758 71.5267 302.602 70.4103 301.764 68.971C300.936 67.5317 300.523 65.843 300.523 63.905V48.554L304.671 48.52V63.803C304.671 64.721 304.824 65.5427 305.13 66.268C305.447 66.9933 305.872 67.611 306.405 68.121C306.937 68.6197 307.549 68.9993 308.241 69.26C308.932 69.5207 309.646 69.651 310.383 69.651C311.142 69.651 311.862 69.5207 312.542 69.26C313.233 68.988 313.845 68.6027 314.378 68.104C314.91 67.594 315.33 66.9763 315.636 66.251C315.942 65.5257 316.095 64.7097 316.095 63.803V48.52H320.243V63.905C320.243 65.843 319.823 67.5317 318.985 68.971C318.157 70.4103 317.001 71.5267 315.517 72.32C314.043 73.1133 312.332 73.51 310.383 73.51ZM331.8 73V48.52H341.915C342.153 48.52 342.459 48.5313 342.833 48.554C343.207 48.5653 343.553 48.5993 343.87 48.656C345.287 48.8713 346.454 49.3417 347.372 50.067C348.301 50.7923 348.987 51.7103 349.429 52.821C349.882 53.9203 350.109 55.1443 350.109 56.493C350.109 58.4877 349.605 60.2047 348.596 61.644C347.587 63.072 346.04 63.956 343.955 64.296L342.204 64.449H335.897V73H331.8ZM345.859 73L341.031 63.038L345.196 62.12L350.5 73H345.859ZM335.897 60.624H341.745C341.972 60.624 342.227 60.6127 342.51 60.59C342.793 60.5673 343.054 60.522 343.292 60.454C343.972 60.284 344.505 59.9837 344.89 59.553C345.287 59.1223 345.564 58.635 345.723 58.091C345.893 57.547 345.978 57.0143 345.978 56.493C345.978 55.9717 345.893 55.439 345.723 54.895C345.564 54.3397 345.287 53.8467 344.89 53.416C344.505 52.9853 343.972 52.685 343.292 52.515C343.054 52.447 342.793 52.4073 342.51 52.396C342.227 52.3733 341.972 52.362 341.745 52.362H335.897V60.624ZM352.545 73L360.263 48.52H366.264L373.982 73H369.766L362.762 51.036H363.68L356.761 73H352.545ZM356.846 67.696V63.871H369.698V67.696H356.846ZM380.912 73V52.362H372.99V48.52H392.931V52.362H385.009V73H380.912ZM395.65 73V48.52H399.747V58.822H411.341V48.52H415.421V73H411.341V62.664H399.747V73H395.65ZM420.187 73V48.52H435.997V52.362H424.284V58.397H433.957V62.239H424.284V69.158H435.997V73H420.187ZM440.075 73V48.52H450.19C450.428 48.52 450.734 48.5313 451.108 48.554C451.482 48.5653 451.828 48.5993 452.145 48.656C453.562 48.8713 454.729 49.3417 455.647 50.067C456.577 50.7923 457.262 51.7103 457.704 52.821C458.158 53.9203 458.384 55.1443 458.384 56.493C458.384 58.4877 457.88 60.2047 456.871 61.644C455.863 63.072 454.316 63.956 452.23 64.296L450.479 64.449H444.172V73H440.075ZM454.134 73L449.306 63.038L453.471 62.12L458.775 73H454.134ZM444.172 60.624H450.02C450.247 60.624 450.502 60.6127 450.785 60.59C451.069 60.5673 451.329 60.522 451.567 60.454C452.247 60.284 452.78 59.9837 453.165 59.553C453.562 59.1223 453.84 58.635 453.998 58.091C454.168 57.547 454.253 57.0143 454.253 56.493C454.253 55.9717 454.168 55.439 453.998 54.895C453.84 54.3397 453.562 53.8467 453.165 53.416C452.78 52.9853 452.247 52.685 451.567 52.515C451.329 52.447 451.069 52.4073 450.785 52.396C450.502 52.3733 450.247 52.362 450.02 52.362H444.172V60.624ZM466.958 66.353C466.958 65.571 467.031 64.8173 467.179 64.092C467.337 63.3553 467.592 62.6753 467.944 62.052C468.25 61.4513 468.59 60.9753 468.964 60.624C469.338 60.2613 469.757 59.9043 470.222 59.553C470.686 59.1903 471.202 58.7087 471.769 58.108C472.233 57.598 472.539 57.0937 472.687 56.595C472.834 56.085 472.908 55.541 472.908 54.963C472.908 54.589 472.868 54.2377 472.789 53.909C472.709 53.5803 472.568 53.297 472.364 53.059C472.046 52.6397 471.638 52.345 471.14 52.175C470.641 51.9937 470.108 51.903 469.542 51.903C469.077 51.903 468.629 51.9653 468.199 52.09C467.779 52.2033 467.422 52.3847 467.128 52.634C466.788 52.906 466.538 53.2403 466.38 53.637C466.221 54.0337 466.147 54.47 466.159 54.946H461.841C461.954 53.8127 462.26 52.7643 462.759 51.801C463.269 50.8263 463.937 50.05 464.765 49.472C465.411 48.996 466.136 48.639 466.941 48.401C467.757 48.163 468.573 48.044 469.389 48.044C470.635 48.044 471.808 48.2367 472.908 48.622C474.018 49.0073 474.942 49.642 475.679 50.526C476.189 51.104 476.574 51.7727 476.835 52.532C477.107 53.2913 477.243 54.062 477.243 54.844C477.243 56.0113 476.988 57.0767 476.478 58.04C475.979 59.0033 475.344 59.893 474.574 60.709C474.211 61.0943 473.865 61.4343 473.537 61.729C473.208 62.0237 472.902 62.3127 472.619 62.596C472.347 62.868 472.12 63.157 471.939 63.463C471.621 63.9957 471.434 64.449 471.378 64.823C471.321 65.1857 471.293 65.6957 471.293 66.353H466.958ZM466.992 73V68.495H471.293V73H466.992Z" fill="#3E1BC9"></path> <rect y="120" width="600" height="300" rx="20" fill="#3E1BC9"></rect> <path d="M71.2334 261V240.84H83.3714V244.214H74.6074V249.24H81.6914V252.6H74.6074V261H71.2334ZM94.4157 261.42C92.3997 261.42 90.673 260.981 89.2357 260.104C87.7984 259.217 86.6924 257.985 85.9177 256.408C85.1524 254.831 84.7697 253.001 84.7697 250.92C84.7697 248.839 85.1524 247.009 85.9177 245.432C86.6924 243.855 87.7984 242.627 89.2357 241.75C90.673 240.863 92.3997 240.42 94.4157 240.42C96.4317 240.42 98.1584 240.863 99.5957 241.75C101.042 242.627 102.148 243.855 102.914 245.432C103.688 247.009 104.076 248.839 104.076 250.92C104.076 253.001 103.688 254.831 102.914 256.408C102.148 257.985 101.042 259.217 99.5957 260.104C98.1584 260.981 96.4317 261.42 94.4157 261.42ZM94.4157 258.242C95.769 258.251 96.8937 257.953 97.7897 257.346C98.695 256.739 99.3717 255.885 99.8197 254.784C100.277 253.683 100.506 252.395 100.506 250.92C100.506 249.445 100.277 248.167 99.8197 247.084C99.3717 245.992 98.695 245.143 97.7897 244.536C96.8937 243.929 95.769 243.617 94.4157 243.598C93.0624 243.589 91.9377 243.887 91.0417 244.494C90.1457 245.101 89.469 245.955 89.0117 247.056C88.5637 248.157 88.3397 249.445 88.3397 250.92C88.3397 252.395 88.5637 253.678 89.0117 254.77C89.4597 255.853 90.1317 256.697 91.0277 257.304C91.933 257.911 93.0624 258.223 94.4157 258.242ZM106.862 261V240.84H115.192C115.388 240.84 115.64 240.849 115.948 240.868C116.256 240.877 116.541 240.905 116.802 240.952C117.969 241.129 118.93 241.517 119.686 242.114C120.452 242.711 121.016 243.467 121.38 244.382C121.754 245.287 121.94 246.295 121.94 247.406C121.94 249.049 121.525 250.463 120.694 251.648C119.864 252.824 118.59 253.552 116.872 253.832L115.43 253.958H110.236V261H106.862ZM118.44 261L114.464 252.796L117.894 252.04L122.262 261H118.44ZM110.236 250.808H115.052C115.239 250.808 115.449 250.799 115.682 250.78C115.916 250.761 116.13 250.724 116.326 250.668C116.886 250.528 117.325 250.281 117.642 249.926C117.969 249.571 118.198 249.17 118.328 248.722C118.468 248.274 118.538 247.835 118.538 247.406C118.538 246.977 118.468 246.538 118.328 246.09C118.198 245.633 117.969 245.227 117.642 244.872C117.325 244.517 116.886 244.27 116.326 244.13C116.13 244.074 115.916 244.041 115.682 244.032C115.449 244.013 115.239 244.004 115.052 244.004H110.236V250.808ZM133.663 261.42C132.356 261.42 131.129 261.191 129.981 260.734C128.842 260.267 127.839 259.586 126.971 258.69C126.112 257.794 125.44 256.697 124.955 255.4C124.469 254.093 124.227 252.6 124.227 250.92C124.227 248.717 124.637 246.837 125.459 245.278C126.28 243.71 127.405 242.511 128.833 241.68C130.261 240.84 131.871 240.42 133.663 240.42C136.145 240.42 138.11 240.999 139.557 242.156C141.013 243.304 141.997 244.919 142.511 247L139.067 247.546C138.684 246.351 138.059 245.399 137.191 244.69C136.323 243.971 135.217 243.612 133.873 243.612C132.519 243.593 131.395 243.887 130.499 244.494C129.603 245.101 128.926 245.955 128.469 247.056C128.021 248.157 127.797 249.445 127.797 250.92C127.797 252.395 128.021 253.678 128.469 254.77C128.917 255.853 129.589 256.697 130.485 257.304C131.39 257.911 132.519 258.223 133.873 258.242C134.89 258.251 135.781 258.069 136.547 257.696C137.312 257.313 137.937 256.739 138.423 255.974C138.908 255.199 139.235 254.233 139.403 253.076H135.847V250.43H142.987C143.005 250.579 143.019 250.799 143.029 251.088C143.038 251.377 143.043 251.55 143.043 251.606C143.043 253.51 142.665 255.204 141.909 256.688C141.162 258.163 140.089 259.32 138.689 260.16C137.289 261 135.613 261.42 133.663 261.42ZM145.855 261V240.84H158.875V244.004H149.229V248.974H157.195V252.138H149.229V257.836H158.875V261H145.855ZM167.077 261V244.004H160.553V240.84H176.975V244.004H170.451V261H167.077ZM182.572 261L188.928 240.84H193.87L200.226 261H196.754L190.986 242.912H191.742L186.044 261H182.572ZM186.114 256.632V253.482H196.698V256.632H186.114ZM203.037 261V240.84H206.411V257.836H215.315V261H203.037ZM217.967 261V240.84H221.341V257.836H230.245V261H217.967ZM241.727 261V252.74L234.867 240.84H238.801L243.435 248.876L248.055 240.84H251.989L245.143 252.74V261H241.727ZM261.349 261.42C259.333 261.42 257.607 260.981 256.169 260.104C254.732 259.217 253.626 257.985 252.851 256.408C252.086 254.831 251.703 253.001 251.703 250.92C251.703 248.839 252.086 247.009 252.851 245.432C253.626 243.855 254.732 242.627 256.169 241.75C257.607 240.863 259.333 240.42 261.349 240.42C263.365 240.42 265.092 240.863 266.529 241.75C267.976 242.627 269.082 243.855 269.847 245.432C270.622 247.009 271.009 248.839 271.009 250.92C271.009 253.001 270.622 254.831 269.847 256.408C269.082 257.985 267.976 259.217 266.529 260.104C265.092 260.981 263.365 261.42 261.349 261.42ZM261.349 258.242C262.703 258.251 263.827 257.953 264.723 257.346C265.629 256.739 266.305 255.885 266.753 254.784C267.211 253.683 267.439 252.395 267.439 250.92C267.439 249.445 267.211 248.167 266.753 247.084C266.305 245.992 265.629 245.143 264.723 244.536C263.827 243.929 262.703 243.617 261.349 243.598C259.996 243.589 258.871 243.887 257.975 244.494C257.079 245.101 256.403 245.955 255.945 247.056C255.497 248.157 255.273 249.445 255.273 250.92C255.273 252.395 255.497 253.678 255.945 254.77C256.393 255.853 257.065 256.697 257.961 257.304C258.867 257.911 259.996 258.223 261.349 258.242ZM281.916 261.42C280.311 261.42 278.897 261.093 277.674 260.44C276.461 259.787 275.509 258.867 274.818 257.682C274.137 256.497 273.796 255.106 273.796 253.51V240.868L277.212 240.84V253.426C277.212 254.182 277.338 254.859 277.59 255.456C277.851 256.053 278.201 256.562 278.64 256.982C279.079 257.393 279.583 257.705 280.152 257.92C280.721 258.135 281.309 258.242 281.916 258.242C282.541 258.242 283.134 258.135 283.694 257.92C284.263 257.696 284.767 257.379 285.206 256.968C285.645 256.548 285.99 256.039 286.242 255.442C286.494 254.845 286.62 254.173 286.62 253.426V240.84H290.036V253.51C290.036 255.106 289.691 256.497 289 257.682C288.319 258.867 287.367 259.787 286.144 260.44C284.931 261.093 283.521 261.42 281.916 261.42ZM293.948 261V240.84H302.278C302.474 240.84 302.726 240.849 303.034 240.868C303.342 240.877 303.627 240.905 303.888 240.952C305.055 241.129 306.016 241.517 306.772 242.114C307.538 242.711 308.102 243.467 308.466 244.382C308.84 245.287 309.026 246.295 309.026 247.406C309.026 249.049 308.611 250.463 307.78 251.648C306.95 252.824 305.676 253.552 303.958 253.832L302.516 253.958H297.322V261H293.948ZM305.526 261L301.55 252.796L304.98 252.04L309.348 261H305.526ZM297.322 250.808H302.138C302.325 250.808 302.535 250.799 302.768 250.78C303.002 250.761 303.216 250.724 303.412 250.668C303.972 250.528 304.411 250.281 304.728 249.926C305.055 249.571 305.284 249.17 305.414 248.722C305.554 248.274 305.624 247.835 305.624 247.406C305.624 246.977 305.554 246.538 305.414 246.09C305.284 245.633 305.055 245.227 304.728 244.872C304.411 244.517 303.972 244.27 303.412 244.13C303.216 244.074 303.002 244.041 302.768 244.032C302.535 244.013 302.325 244.004 302.138 244.004H297.322V250.808ZM318.038 261V240.84H330.176V244.214H321.412V249.24H328.496V252.6H321.412V261H318.038ZM331.021 261L337.377 240.84H342.319L348.675 261H345.203L339.435 242.912H340.191L334.493 261H331.021ZM334.563 256.632V253.482H345.147V256.632H334.563ZM353.773 261L347.417 240.84H350.889L356.209 257.724L361.599 240.84H365.071L358.715 261H353.773ZM375.154 261.42C373.138 261.42 371.411 260.981 369.974 260.104C368.537 259.217 367.431 257.985 366.656 256.408C365.891 254.831 365.508 253.001 365.508 250.92C365.508 248.839 365.891 247.009 366.656 245.432C367.431 243.855 368.537 242.627 369.974 241.75C371.411 240.863 373.138 240.42 375.154 240.42C377.17 240.42 378.897 240.863 380.334 241.75C381.781 242.627 382.887 243.855 383.652 245.432C384.427 247.009 384.814 248.839 384.814 250.92C384.814 253.001 384.427 254.831 383.652 256.408C382.887 257.985 381.781 259.217 380.334 260.104C378.897 260.981 377.17 261.42 375.154 261.42ZM375.154 258.242C376.507 258.251 377.632 257.953 378.528 257.346C379.433 256.739 380.11 255.885 380.558 254.784C381.015 253.683 381.244 252.395 381.244 250.92C381.244 249.445 381.015 248.167 380.558 247.084C380.11 245.992 379.433 245.143 378.528 244.536C377.632 243.929 376.507 243.617 375.154 243.598C373.801 243.589 372.676 243.887 371.78 244.494C370.884 245.101 370.207 245.955 369.75 247.056C369.302 248.157 369.078 249.445 369.078 250.92C369.078 252.395 369.302 253.678 369.75 254.77C370.198 255.853 370.87 256.697 371.766 257.304C372.671 257.911 373.801 258.223 375.154 258.242ZM387.601 261V240.84H395.931C396.127 240.84 396.379 240.849 396.687 240.868C396.995 240.877 397.279 240.905 397.541 240.952C398.707 241.129 399.669 241.517 400.425 242.114C401.19 242.711 401.755 243.467 402.119 244.382C402.492 245.287 402.679 246.295 402.679 247.406C402.679 249.049 402.263 250.463 401.433 251.648C400.602 252.824 399.328 253.552 397.611 253.832L396.169 253.958H390.975V261H387.601ZM399.179 261L395.203 252.796L398.633 252.04L403.001 261H399.179ZM390.975 250.808H395.791C395.977 250.808 396.187 250.799 396.421 250.78C396.654 250.761 396.869 250.724 397.065 250.668C397.625 250.528 398.063 250.281 398.381 249.926C398.707 249.571 398.936 249.17 399.067 248.722C399.207 248.274 399.277 247.835 399.277 247.406C399.277 246.977 399.207 246.538 399.067 246.09C398.936 245.633 398.707 245.227 398.381 244.872C398.063 244.517 397.625 244.27 397.065 244.13C396.869 244.074 396.654 244.041 396.421 244.032C396.187 244.013 395.977 244.004 395.791 244.004H390.975V250.808ZM406.365 261V240.84H409.739V261H406.365ZM418.777 261V244.004H412.253V240.84H428.675V244.004H422.151V261H418.777ZM430.913 261V240.84H443.933V244.004H434.287V248.974H442.253V252.138H434.287V257.836H443.933V261H430.913ZM452.898 261V240.84H465.036V244.214H456.272V249.24H463.356V252.6H456.272V261H452.898ZM467.834 261V240.84H471.208V261H467.834ZM475.681 261V240.84H479.055V257.836H487.959V261H475.681ZM490.331 261V240.84H493.369L500.341 255.12L507.313 240.84H510.351V261H507.201V248.078L501.013 261H499.669L493.495 248.078V261H490.331ZM521.746 261.42C520.272 261.42 518.942 261.163 517.756 260.65C516.58 260.137 515.61 259.404 514.844 258.452C514.088 257.491 513.608 256.352 513.402 255.036L516.902 254.504C517.201 255.699 517.812 256.623 518.736 257.276C519.67 257.929 520.743 258.256 521.956 258.256C522.675 258.256 523.352 258.144 523.986 257.92C524.621 257.696 525.134 257.369 525.526 256.94C525.928 256.511 526.128 255.983 526.128 255.358C526.128 255.078 526.082 254.821 525.988 254.588C525.895 254.345 525.755 254.131 525.568 253.944C525.391 253.757 525.158 253.589 524.868 253.44C524.588 253.281 524.262 253.146 523.888 253.034L518.68 251.494C518.232 251.363 517.747 251.191 517.224 250.976C516.711 250.752 516.221 250.449 515.754 250.066C515.297 249.674 514.919 249.179 514.62 248.582C514.331 247.975 514.186 247.229 514.186 246.342C514.186 245.045 514.513 243.957 515.166 243.08C515.829 242.193 516.716 241.531 517.826 241.092C518.946 240.653 520.188 240.439 521.55 240.448C522.932 240.457 524.164 240.695 525.246 241.162C526.329 241.619 527.234 242.287 527.962 243.164C528.69 244.041 529.204 245.101 529.502 246.342L525.876 246.972C525.727 246.263 525.438 245.661 525.008 245.166C524.588 244.662 524.07 244.279 523.454 244.018C522.848 243.757 522.199 243.617 521.508 243.598C520.836 243.589 520.211 243.691 519.632 243.906C519.063 244.111 518.601 244.41 518.246 244.802C517.901 245.194 517.728 245.651 517.728 246.174C517.728 246.669 517.878 247.075 518.176 247.392C518.475 247.7 518.844 247.947 519.282 248.134C519.73 248.311 520.183 248.461 520.64 248.582L524.252 249.59C524.747 249.721 525.302 249.898 525.918 250.122C526.534 250.346 527.127 250.659 527.696 251.06C528.266 251.461 528.732 251.989 529.096 252.642C529.47 253.295 529.656 254.126 529.656 255.134C529.656 256.179 529.437 257.099 528.998 257.892C528.569 258.676 527.986 259.329 527.248 259.852C526.511 260.375 525.666 260.767 524.714 261.028C523.772 261.289 522.782 261.42 521.746 261.42ZM130.601 300V283.004H124.077V279.84H140.499V283.004H133.975V300H130.601ZM151.263 300.42C149.247 300.42 147.521 299.981 146.083 299.104C144.646 298.217 143.54 296.985 142.765 295.408C142 293.831 141.617 292.001 141.617 289.92C141.617 287.839 142 286.009 142.765 284.432C143.54 282.855 144.646 281.627 146.083 280.75C147.521 279.863 149.247 279.42 151.263 279.42C153.279 279.42 155.006 279.863 156.443 280.75C157.89 281.627 158.996 282.855 159.761 284.432C160.536 286.009 160.923 287.839 160.923 289.92C160.923 292.001 160.536 293.831 159.761 295.408C158.996 296.985 157.89 298.217 156.443 299.104C155.006 299.981 153.279 300.42 151.263 300.42ZM151.263 297.242C152.617 297.251 153.741 296.953 154.637 296.346C155.543 295.739 156.219 294.885 156.667 293.784C157.125 292.683 157.353 291.395 157.353 289.92C157.353 288.445 157.125 287.167 156.667 286.084C156.219 284.992 155.543 284.143 154.637 283.536C153.741 282.929 152.617 282.617 151.263 282.598C149.91 282.589 148.785 282.887 147.889 283.494C146.993 284.101 146.317 284.955 145.859 286.056C145.411 287.157 145.187 288.445 145.187 289.92C145.187 291.395 145.411 292.678 145.859 293.77C146.307 294.853 146.979 295.697 147.875 296.304C148.781 296.911 149.91 297.223 151.263 297.242ZM169.315 300V279.84H177.645C177.841 279.84 178.093 279.849 178.401 279.868C178.709 279.877 178.994 279.905 179.255 279.952C180.422 280.129 181.383 280.517 182.139 281.114C182.905 281.711 183.469 282.467 183.833 283.382C184.207 284.287 184.393 285.295 184.393 286.406C184.393 288.049 183.978 289.463 183.147 290.648C182.317 291.824 181.043 292.552 179.325 292.832L177.883 292.958H172.689V300H169.315ZM180.893 300L176.917 291.796L180.347 291.04L184.715 300H180.893ZM172.689 289.808H177.505C177.692 289.808 177.902 289.799 178.135 289.78C178.369 289.761 178.583 289.724 178.779 289.668C179.339 289.528 179.778 289.281 180.095 288.926C180.422 288.571 180.651 288.17 180.781 287.722C180.921 287.274 180.991 286.835 180.991 286.406C180.991 285.977 180.921 285.538 180.781 285.09C180.651 284.633 180.422 284.227 180.095 283.872C179.778 283.517 179.339 283.27 178.779 283.13C178.583 283.074 178.369 283.041 178.135 283.032C177.902 283.013 177.692 283.004 177.505 283.004H172.689V289.808ZM187.8 300V279.84H200.82V283.004H191.174V287.974H199.14V291.138H191.174V296.836H200.82V300H187.8ZM208.435 300L202.541 279.84H206.083L210.101 294.4L214.105 279.868L217.647 279.84L221.665 294.4L225.669 279.84H229.211L223.331 300H219.999L215.869 285.664L211.767 300H208.435ZM228.126 300L234.482 279.84H239.424L245.78 300H242.308L236.54 281.912H237.296L231.598 300H228.126ZM231.668 295.632V292.482H242.252V295.632H231.668ZM251.488 300V283.004H244.964V279.84H261.386V283.004H254.862V300H251.488ZM272.15 300.42C270.134 300.42 268.407 299.981 266.97 299.104C265.533 298.217 264.427 296.985 263.652 295.408C262.887 293.831 262.504 292.001 262.504 289.92C262.504 287.839 262.887 286.009 263.652 284.432C264.427 282.855 265.533 281.627 266.97 280.75C268.407 279.863 270.134 279.42 272.15 279.42C274.474 279.42 276.411 280.003 277.96 281.17C279.509 282.327 280.597 283.891 281.222 285.86L277.82 286.798C277.428 285.482 276.761 284.455 275.818 283.718C274.875 282.971 273.653 282.598 272.15 282.598C270.797 282.598 269.667 282.901 268.762 283.508C267.866 284.115 267.189 284.969 266.732 286.07C266.284 287.162 266.055 288.445 266.046 289.92C266.046 291.395 266.27 292.683 266.718 293.784C267.175 294.876 267.857 295.725 268.762 296.332C269.667 296.939 270.797 297.242 272.15 297.242C273.653 297.242 274.875 296.869 275.818 296.122C276.761 295.375 277.428 294.349 277.82 293.042L281.222 293.98C280.597 295.949 279.509 297.517 277.96 298.684C276.411 299.841 274.474 300.42 272.15 300.42ZM284.296 300V279.84H287.67V288.324H297.218V279.84H300.578V300H297.218V291.488H287.67V300H284.296ZM314.952 300V283.004H308.428V279.84H324.85V283.004H318.326V300H314.952ZM327.089 300V279.84H330.463V288.324H340.011V279.84H343.371V300H340.011V291.488H330.463V300H327.089ZM347.296 300V279.84H360.316V283.004H350.67V287.974H358.636V291.138H350.67V296.836H360.316V300H347.296ZM363.675 300V279.84H366.713L373.685 294.12L380.657 279.84H383.695V300H380.545V287.078L374.357 300H373.013L366.839 287.078V300H363.675ZM391.833 300L398.189 279.84H403.131L409.487 300H406.015L400.247 281.912H401.003L395.305 300H391.833ZM395.375 295.632V292.482H405.959V295.632H395.375ZM419.788 300.42C418.481 300.42 417.254 300.191 416.106 299.734C414.967 299.267 413.964 298.586 413.096 297.69C412.237 296.794 411.565 295.697 411.08 294.4C410.594 293.093 410.352 291.6 410.352 289.92C410.352 287.717 410.762 285.837 411.584 284.278C412.405 282.71 413.53 281.511 414.958 280.68C416.386 279.84 417.996 279.42 419.788 279.42C422.27 279.42 424.235 279.999 425.682 281.156C427.138 282.304 428.122 283.919 428.636 286L425.192 286.546C424.809 285.351 424.184 284.399 423.316 283.69C422.448 282.971 421.342 282.612 419.998 282.612C418.644 282.593 417.52 282.887 416.624 283.494C415.728 284.101 415.051 284.955 414.594 286.056C414.146 287.157 413.922 288.445 413.922 289.92C413.922 291.395 414.146 292.678 414.594 293.77C415.042 294.853 415.714 295.697 416.61 296.304C417.515 296.911 418.644 297.223 419.998 297.242C421.015 297.251 421.906 297.069 422.672 296.696C423.437 296.313 424.062 295.739 424.548 294.974C425.033 294.199 425.36 293.233 425.528 292.076H421.972V289.43H429.112C429.13 289.579 429.144 289.799 429.154 290.088C429.163 290.377 429.168 290.55 429.168 290.606C429.168 292.51 428.79 294.204 428.034 295.688C427.287 297.163 426.214 298.32 424.814 299.16C423.414 300 421.738 300.42 419.788 300.42ZM430.033 300L436.389 279.84H441.331L447.687 300H444.215L438.447 281.912H439.203L433.505 300H430.033ZM433.575 295.632V292.482H444.159V295.632H433.575ZM450.498 300V279.84H453.872V300H450.498ZM458.065 300V279.84H461.481L470.833 294.05V279.84H474.249V300H470.833L461.481 285.79V300H458.065Z" fill="white"></path> <rect y="475" width="600" height="300" rx="20" fill="#90C81D"></rect> <path d="M125.556 616L119.662 595.84H123.204L127.222 610.4L131.226 595.868L134.768 595.84L138.786 610.4L142.79 595.84H146.332L140.452 616H137.12L132.99 601.664L128.888 616H125.556ZM145.248 616L151.604 595.84H156.546L162.902 616H159.43L153.662 597.912H154.418L148.72 616H145.248ZM148.79 611.632V608.482H159.374V611.632H148.79ZM168.609 616V599.004H162.085V595.84H178.507V599.004H171.983V616H168.609ZM189.271 616.42C187.255 616.42 185.528 615.981 184.091 615.104C182.654 614.217 181.548 612.985 180.773 611.408C180.008 609.831 179.625 608.001 179.625 605.92C179.625 603.839 180.008 602.009 180.773 600.432C181.548 598.855 182.654 597.627 184.091 596.75C185.528 595.863 187.255 595.42 189.271 595.42C191.595 595.42 193.532 596.003 195.081 597.17C196.63 598.327 197.718 599.891 198.343 601.86L194.941 602.798C194.549 601.482 193.882 600.455 192.939 599.718C191.996 598.971 190.774 598.598 189.271 598.598C187.918 598.598 186.788 598.901 185.883 599.508C184.987 600.115 184.31 600.969 183.853 602.07C183.405 603.162 183.176 604.445 183.167 605.92C183.167 607.395 183.391 608.683 183.839 609.784C184.296 610.876 184.978 611.725 185.883 612.332C186.788 612.939 187.918 613.242 189.271 613.242C190.774 613.242 191.996 612.869 192.939 612.122C193.882 611.375 194.549 610.349 194.941 609.042L198.343 609.98C197.718 611.949 196.63 613.517 195.081 614.684C193.532 615.841 191.595 616.42 189.271 616.42ZM201.417 616V595.84H204.791V604.324H214.339V595.84H217.699V616H214.339V607.488H204.791V616H201.417ZM231.486 616L225.592 595.84H229.134L233.152 610.4L237.156 595.868L240.698 595.84L244.716 610.4L248.72 595.84H252.262L246.382 616H243.05L238.92 601.664L234.818 616H231.486ZM262.525 616.42C260.509 616.42 258.782 615.981 257.345 615.104C255.908 614.217 254.802 612.985 254.027 611.408C253.262 609.831 252.879 608.001 252.879 605.92C252.879 603.839 253.262 602.009 254.027 600.432C254.802 598.855 255.908 597.627 257.345 596.75C258.782 595.863 260.509 595.42 262.525 595.42C264.541 595.42 266.268 595.863 267.705 596.75C269.152 597.627 270.258 598.855 271.023 600.432C271.798 602.009 272.185 603.839 272.185 605.92C272.185 608.001 271.798 609.831 271.023 611.408C270.258 612.985 269.152 614.217 267.705 615.104C266.268 615.981 264.541 616.42 262.525 616.42ZM262.525 613.242C263.878 613.251 265.003 612.953 265.899 612.346C266.804 611.739 267.481 610.885 267.929 609.784C268.386 608.683 268.615 607.395 268.615 605.92C268.615 604.445 268.386 603.167 267.929 602.084C267.481 600.992 266.804 600.143 265.899 599.536C265.003 598.929 263.878 598.617 262.525 598.598C261.172 598.589 260.047 598.887 259.151 599.494C258.255 600.101 257.578 600.955 257.121 602.056C256.673 603.157 256.449 604.445 256.449 605.92C256.449 607.395 256.673 608.678 257.121 609.77C257.569 610.853 258.241 611.697 259.137 612.304C260.042 612.911 261.172 613.223 262.525 613.242ZM274.972 616V595.84H283.302C283.498 595.84 283.75 595.849 284.058 595.868C284.366 595.877 284.65 595.905 284.912 595.952C286.078 596.129 287.04 596.517 287.796 597.114C288.561 597.711 289.126 598.467 289.49 599.382C289.863 600.287 290.05 601.295 290.05 602.406C290.05 604.049 289.634 605.463 288.804 606.648C287.973 607.824 286.699 608.552 284.982 608.832L283.54 608.958H278.346V616H274.972ZM286.55 616L282.574 607.796L286.004 607.04L290.372 616H286.55ZM278.346 605.808H283.162C283.348 605.808 283.558 605.799 283.792 605.78C284.025 605.761 284.24 605.724 284.436 605.668C284.996 605.528 285.434 605.281 285.752 604.926C286.078 604.571 286.307 604.17 286.438 603.722C286.578 603.274 286.648 602.835 286.648 602.406C286.648 601.977 286.578 601.538 286.438 601.09C286.307 600.633 286.078 600.227 285.752 599.872C285.434 599.517 284.996 599.27 284.436 599.13C284.24 599.074 284.025 599.041 283.792 599.032C283.558 599.013 283.348 599.004 283.162 599.004H278.346V605.808ZM298.3 616V599.004H291.776V595.84H308.198V599.004H301.674V616H298.3ZM310.437 616V595.84H313.811V604.324H323.359V595.84H326.719V616H323.359V607.488H313.811V616H310.437ZM335.544 616V607.74L328.684 595.84H332.618L337.252 603.876L341.872 595.84H345.806L338.96 607.74V616H335.544ZM359.707 616.42C358.232 616.42 356.902 616.163 355.717 615.65C354.541 615.137 353.57 614.404 352.805 613.452C352.049 612.491 351.568 611.352 351.363 610.036L354.863 609.504C355.162 610.699 355.773 611.623 356.697 612.276C357.63 612.929 358.704 613.256 359.917 613.256C360.636 613.256 361.312 613.144 361.947 612.92C362.582 612.696 363.095 612.369 363.487 611.94C363.888 611.511 364.089 610.983 364.089 610.358C364.089 610.078 364.042 609.821 363.949 609.588C363.856 609.345 363.716 609.131 363.529 608.944C363.352 608.757 363.118 608.589 362.829 608.44C362.549 608.281 362.222 608.146 361.849 608.034L356.641 606.494C356.193 606.363 355.708 606.191 355.185 605.976C354.672 605.752 354.182 605.449 353.715 605.066C353.258 604.674 352.88 604.179 352.581 603.582C352.292 602.975 352.147 602.229 352.147 601.342C352.147 600.045 352.474 598.957 353.127 598.08C353.79 597.193 354.676 596.531 355.787 596.092C356.907 595.653 358.148 595.439 359.511 595.448C360.892 595.457 362.124 595.695 363.207 596.162C364.29 596.619 365.195 597.287 365.923 598.164C366.651 599.041 367.164 600.101 367.463 601.342L363.837 601.972C363.688 601.263 363.398 600.661 362.969 600.166C362.549 599.662 362.031 599.279 361.415 599.018C360.808 598.757 360.16 598.617 359.469 598.598C358.797 598.589 358.172 598.691 357.593 598.906C357.024 599.111 356.562 599.41 356.207 599.802C355.862 600.194 355.689 600.651 355.689 601.174C355.689 601.669 355.838 602.075 356.137 602.392C356.436 602.7 356.804 602.947 357.243 603.134C357.691 603.311 358.144 603.461 358.601 603.582L362.213 604.59C362.708 604.721 363.263 604.898 363.879 605.122C364.495 605.346 365.088 605.659 365.657 606.06C366.226 606.461 366.693 606.989 367.057 607.642C367.43 608.295 367.617 609.126 367.617 610.134C367.617 611.179 367.398 612.099 366.959 612.892C366.53 613.676 365.946 614.329 365.209 614.852C364.472 615.375 363.627 615.767 362.675 616.028C361.732 616.289 360.743 616.42 359.707 616.42ZM370.648 616V595.84H383.668V599.004H374.022V603.974H381.988V607.138H374.022V612.836H383.668V616H370.648ZM401.957 616.42L396.203 610.694L398.317 608.58L404.043 614.306L401.957 616.42ZM394.705 616.42C392.689 616.42 390.962 615.981 389.525 615.104C388.087 614.217 386.981 612.985 386.207 611.408C385.441 609.831 385.059 608.001 385.059 605.92C385.059 603.839 385.441 602.009 386.207 600.432C386.981 598.855 388.087 597.627 389.525 596.75C390.962 595.863 392.689 595.42 394.705 595.42C396.721 595.42 398.447 595.863 399.885 596.75C401.331 597.627 402.437 598.855 403.203 600.432C403.977 602.009 404.365 603.839 404.365 605.92C404.365 608.001 403.977 609.831 403.203 611.408C402.437 612.985 401.331 614.217 399.885 615.104C398.447 615.981 396.721 616.42 394.705 616.42ZM394.705 613.242C396.058 613.251 397.183 612.953 398.079 612.346C398.984 611.739 399.661 610.885 400.109 609.784C400.566 608.683 400.795 607.395 400.795 605.92C400.795 604.445 400.566 603.167 400.109 602.084C399.661 600.992 398.984 600.143 398.079 599.536C397.183 598.929 396.058 598.617 394.705 598.598C393.351 598.589 392.227 598.887 391.331 599.494C390.435 600.101 389.758 600.955 389.301 602.056C388.853 603.157 388.629 604.445 388.629 605.92C388.629 607.395 388.853 608.678 389.301 609.77C389.749 610.853 390.421 611.697 391.317 612.304C392.222 612.911 393.351 613.223 394.705 613.242ZM415.271 616.42C413.666 616.42 412.252 616.093 411.029 615.44C409.816 614.787 408.864 613.867 408.173 612.682C407.492 611.497 407.151 610.106 407.151 608.51V595.868L410.567 595.84V608.426C410.567 609.182 410.693 609.859 410.945 610.456C411.207 611.053 411.557 611.562 411.995 611.982C412.434 612.393 412.938 612.705 413.507 612.92C414.077 613.135 414.665 613.242 415.271 613.242C415.897 613.242 416.489 613.135 417.049 612.92C417.619 612.696 418.123 612.379 418.561 611.968C419 611.548 419.345 611.039 419.597 610.442C419.849 609.845 419.975 609.173 419.975 608.426V595.84H423.391V608.51C423.391 610.106 423.046 611.497 422.355 612.682C421.674 613.867 420.722 614.787 419.499 615.44C418.286 616.093 416.877 616.42 415.271 616.42ZM427.304 616V595.84H440.324V599.004H430.678V603.974H438.644V607.138H430.678V612.836H440.324V616H427.304ZM443.963 616V595.84H447.337V612.836H456.241V616H443.963ZM466.074 616.42C464.6 616.42 463.27 616.163 462.084 615.65C460.908 615.137 459.938 614.404 459.172 613.452C458.416 612.491 457.936 611.352 457.73 610.036L461.23 609.504C461.529 610.699 462.14 611.623 463.064 612.276C463.998 612.929 465.071 613.256 466.284 613.256C467.003 613.256 467.68 613.144 468.314 612.92C468.949 612.696 469.462 612.369 469.854 611.94C470.256 611.511 470.456 610.983 470.456 610.358C470.456 610.078 470.41 609.821 470.316 609.588C470.223 609.345 470.083 609.131 469.896 608.944C469.719 608.757 469.486 608.589 469.196 608.44C468.916 608.281 468.59 608.146 468.216 608.034L463.008 606.494C462.56 606.363 462.075 606.191 461.552 605.976C461.039 605.752 460.549 605.449 460.082 605.066C459.625 604.674 459.247 604.179 458.948 603.582C458.659 602.975 458.514 602.229 458.514 601.342C458.514 600.045 458.841 598.957 459.494 598.08C460.157 597.193 461.044 596.531 462.154 596.092C463.274 595.653 464.516 595.439 465.878 595.448C467.26 595.457 468.492 595.695 469.574 596.162C470.657 596.619 471.562 597.287 472.29 598.164C473.018 599.041 473.532 600.101 473.83 601.342L470.204 601.972C470.055 601.263 469.766 600.661 469.336 600.166C468.916 599.662 468.398 599.279 467.782 599.018C467.176 598.757 466.527 598.617 465.836 598.598C465.164 598.589 464.539 598.691 463.96 598.906C463.391 599.111 462.929 599.41 462.574 599.802C462.229 600.194 462.056 600.651 462.056 601.174C462.056 601.669 462.206 602.075 462.504 602.392C462.803 602.7 463.172 602.947 463.61 603.134C464.058 603.311 464.511 603.461 464.968 603.582L468.58 604.59C469.075 604.721 469.63 604.898 470.246 605.122C470.862 605.346 471.455 605.659 472.024 606.06C472.594 606.461 473.06 606.989 473.424 607.642C473.798 608.295 473.984 609.126 473.984 610.134C473.984 611.179 473.765 612.099 473.326 612.892C472.897 613.676 472.314 614.329 471.576 614.852C470.839 615.375 469.994 615.767 469.042 616.028C468.1 616.289 467.11 616.42 466.074 616.42ZM141.939 655.42C139.923 655.42 138.196 654.981 136.759 654.104C135.322 653.217 134.216 651.985 133.441 650.408C132.676 648.831 132.293 647.001 132.293 644.92C132.293 642.839 132.676 641.009 133.441 639.432C134.216 637.855 135.322 636.627 136.759 635.75C138.196 634.863 139.923 634.42 141.939 634.42C143.955 634.42 145.682 634.863 147.119 635.75C148.566 636.627 149.672 637.855 150.437 639.432C151.212 641.009 151.599 642.839 151.599 644.92C151.599 647.001 151.212 648.831 150.437 650.408C149.672 651.985 148.566 653.217 147.119 654.104C145.682 654.981 143.955 655.42 141.939 655.42ZM141.939 652.242C143.292 652.251 144.417 651.953 145.313 651.346C146.218 650.739 146.895 649.885 147.343 648.784C147.8 647.683 148.029 646.395 148.029 644.92C148.029 643.445 147.8 642.167 147.343 641.084C146.895 639.992 146.218 639.143 145.313 638.536C144.417 637.929 143.292 637.617 141.939 637.598C140.586 637.589 139.461 637.887 138.565 638.494C137.669 639.101 136.992 639.955 136.535 641.056C136.087 642.157 135.863 643.445 135.863 644.92C135.863 646.395 136.087 647.678 136.535 648.77C136.983 649.853 137.655 650.697 138.551 651.304C139.456 651.911 140.586 652.223 141.939 652.242ZM154.386 655V634.84H166.524V638.214H157.76V643.24H164.844V646.6H157.76V655H154.386ZM179.548 655V646.74L172.688 634.84H176.622L181.256 642.876L185.876 634.84H189.81L182.964 646.74V655H179.548ZM199.17 655.42C197.154 655.42 195.427 654.981 193.99 654.104C192.552 653.217 191.446 651.985 190.672 650.408C189.906 648.831 189.524 647.001 189.524 644.92C189.524 642.839 189.906 641.009 190.672 639.432C191.446 637.855 192.552 636.627 193.99 635.75C195.427 634.863 197.154 634.42 199.17 634.42C201.186 634.42 202.912 634.863 204.35 635.75C205.796 636.627 206.902 637.855 207.668 639.432C208.442 641.009 208.83 642.839 208.83 644.92C208.83 647.001 208.442 648.831 207.668 650.408C206.902 651.985 205.796 653.217 204.35 654.104C202.912 654.981 201.186 655.42 199.17 655.42ZM199.17 652.242C200.523 652.251 201.648 651.953 202.544 651.346C203.449 650.739 204.126 649.885 204.574 648.784C205.031 647.683 205.26 646.395 205.26 644.92C205.26 643.445 205.031 642.167 204.574 641.084C204.126 639.992 203.449 639.143 202.544 638.536C201.648 637.929 200.523 637.617 199.17 637.598C197.816 637.589 196.692 637.887 195.796 638.494C194.9 639.101 194.223 639.955 193.766 641.056C193.318 642.157 193.094 643.445 193.094 644.92C193.094 646.395 193.318 647.678 193.766 648.77C194.214 649.853 194.886 650.697 195.782 651.304C196.687 651.911 197.816 652.223 199.17 652.242ZM219.736 655.42C218.131 655.42 216.717 655.093 215.494 654.44C214.281 653.787 213.329 652.867 212.638 651.682C211.957 650.497 211.616 649.106 211.616 647.51V634.868L215.032 634.84V647.426C215.032 648.182 215.158 648.859 215.41 649.456C215.672 650.053 216.022 650.562 216.46 650.982C216.899 651.393 217.403 651.705 217.972 651.92C218.542 652.135 219.13 652.242 219.736 652.242C220.362 652.242 220.954 652.135 221.514 651.92C222.084 651.696 222.588 651.379 223.026 650.968C223.465 650.548 223.81 650.039 224.062 649.442C224.314 648.845 224.44 648.173 224.44 647.426V634.84H227.856V647.51C227.856 649.106 227.511 650.497 226.82 651.682C226.139 652.867 225.187 653.787 223.964 654.44C222.751 655.093 221.342 655.42 219.736 655.42ZM231.769 655V634.84H240.099C240.295 634.84 240.547 634.849 240.855 634.868C241.163 634.877 241.447 634.905 241.709 634.952C242.875 635.129 243.837 635.517 244.593 636.114C245.358 636.711 245.923 637.467 246.287 638.382C246.66 639.287 246.847 640.295 246.847 641.406C246.847 643.049 246.431 644.463 245.601 645.648C244.77 646.824 243.496 647.552 241.779 647.832L240.337 647.958H235.143V655H231.769ZM243.347 655L239.371 646.796L242.801 646.04L247.169 655H243.347ZM235.143 644.808H239.959C240.145 644.808 240.355 644.799 240.589 644.78C240.822 644.761 241.037 644.724 241.233 644.668C241.793 644.528 242.231 644.281 242.549 643.926C242.875 643.571 243.104 643.17 243.235 642.722C243.375 642.274 243.445 641.835 243.445 641.406C243.445 640.977 243.375 640.538 243.235 640.09C243.104 639.633 242.875 639.227 242.549 638.872C242.231 638.517 241.793 638.27 241.233 638.13C241.037 638.074 240.822 638.041 240.589 638.032C240.355 638.013 240.145 638.004 239.959 638.004H235.143V644.808ZM255.858 655V634.84H267.996V638.214H259.232V643.24H266.316V646.6H259.232V655H255.858ZM268.841 655L275.197 634.84H280.139L286.495 655H283.023L277.255 636.912H278.011L272.313 655H268.841ZM272.383 650.632V647.482H282.967V650.632H272.383ZM291.594 655L285.238 634.84H288.71L294.03 651.724L299.42 634.84H302.892L296.536 655H291.594ZM312.974 655.42C310.958 655.42 309.232 654.981 307.794 654.104C306.357 653.217 305.251 651.985 304.476 650.408C303.711 648.831 303.328 647.001 303.328 644.92C303.328 642.839 303.711 641.009 304.476 639.432C305.251 637.855 306.357 636.627 307.794 635.75C309.232 634.863 310.958 634.42 312.974 634.42C314.99 634.42 316.717 634.863 318.154 635.75C319.601 636.627 320.707 637.855 321.472 639.432C322.247 641.009 322.634 642.839 322.634 644.92C322.634 647.001 322.247 648.831 321.472 650.408C320.707 651.985 319.601 653.217 318.154 654.104C316.717 654.981 314.99 655.42 312.974 655.42ZM312.974 652.242C314.328 652.251 315.452 651.953 316.348 651.346C317.254 650.739 317.93 649.885 318.378 648.784C318.836 647.683 319.064 646.395 319.064 644.92C319.064 643.445 318.836 642.167 318.378 641.084C317.93 639.992 317.254 639.143 316.348 638.536C315.452 637.929 314.328 637.617 312.974 637.598C311.621 637.589 310.496 637.887 309.6 638.494C308.704 639.101 308.028 639.955 307.57 641.056C307.122 642.157 306.898 643.445 306.898 644.92C306.898 646.395 307.122 647.678 307.57 648.77C308.018 649.853 308.69 650.697 309.586 651.304C310.492 651.911 311.621 652.223 312.974 652.242ZM325.421 655V634.84H333.751C333.947 634.84 334.199 634.849 334.507 634.868C334.815 634.877 335.1 634.905 335.361 634.952C336.528 635.129 337.489 635.517 338.245 636.114C339.01 636.711 339.575 637.467 339.939 638.382C340.312 639.287 340.499 640.295 340.499 641.406C340.499 643.049 340.084 644.463 339.253 645.648C338.422 646.824 337.148 647.552 335.431 647.832L333.989 647.958H328.795V655H325.421ZM336.999 655L333.023 646.796L336.453 646.04L340.821 655H336.999ZM328.795 644.808H333.611C333.798 644.808 334.008 644.799 334.241 644.78C334.474 644.761 334.689 644.724 334.885 644.668C335.445 644.528 335.884 644.281 336.201 643.926C336.528 643.571 336.756 643.17 336.887 642.722C337.027 642.274 337.097 641.835 337.097 641.406C337.097 640.977 337.027 640.538 336.887 640.09C336.756 639.633 336.528 639.227 336.201 638.872C335.884 638.517 335.445 638.27 334.885 638.13C334.689 638.074 334.474 638.041 334.241 638.032C334.008 638.013 333.798 638.004 333.611 638.004H328.795V644.808ZM344.185 655V634.84H347.559V655H344.185ZM356.597 655V638.004H350.073V634.84H366.495V638.004H359.971V655H356.597ZM368.733 655V634.84H381.753V638.004H372.107V642.974H380.073V646.138H372.107V651.836H381.753V655H368.733ZM390.718 655V634.84H402.856V638.214H394.092V643.24H401.176V646.6H394.092V655H390.718ZM405.654 655V634.84H409.028V655H405.654ZM413.502 655V634.84H416.876V651.836H425.78V655H413.502ZM428.151 655V634.84H431.189L438.161 649.12L445.133 634.84H448.171V655H445.021V642.078L438.833 655H437.489L431.315 642.078V655H428.151ZM459.567 655.42C458.092 655.42 456.762 655.163 455.577 654.65C454.401 654.137 453.43 653.404 452.665 652.452C451.909 651.491 451.428 650.352 451.223 649.036L454.723 648.504C455.021 649.699 455.633 650.623 456.557 651.276C457.49 651.929 458.563 652.256 459.777 652.256C460.495 652.256 461.172 652.144 461.807 651.92C462.441 651.696 462.955 651.369 463.347 650.94C463.748 650.511 463.949 649.983 463.949 649.358C463.949 649.078 463.902 648.821 463.809 648.588C463.715 648.345 463.575 648.131 463.389 647.944C463.211 647.757 462.978 647.589 462.689 647.44C462.409 647.281 462.082 647.146 461.709 647.034L456.501 645.494C456.053 645.363 455.567 645.191 455.045 644.976C454.531 644.752 454.041 644.449 453.575 644.066C453.117 643.674 452.739 643.179 452.441 642.582C452.151 641.975 452.007 641.229 452.007 640.342C452.007 639.045 452.333 637.957 452.987 637.08C453.649 636.193 454.536 635.531 455.647 635.092C456.767 634.653 458.008 634.439 459.371 634.448C460.752 634.457 461.984 634.695 463.067 635.162C464.149 635.619 465.055 636.287 465.783 637.164C466.511 638.041 467.024 639.101 467.323 640.342L463.697 640.972C463.547 640.263 463.258 639.661 462.829 639.166C462.409 638.662 461.891 638.279 461.275 638.018C460.668 637.757 460.019 637.617 459.329 637.598C458.657 637.589 458.031 637.691 457.453 637.906C456.883 638.111 456.421 638.41 456.067 638.802C455.721 639.194 455.549 639.651 455.549 640.174C455.549 640.669 455.698 641.075 455.997 641.392C456.295 641.7 456.664 641.947 457.103 642.134C457.551 642.311 458.003 642.461 458.461 642.582L462.073 643.59C462.567 643.721 463.123 643.898 463.739 644.122C464.355 644.346 464.947 644.659 465.517 645.06C466.086 645.461 466.553 645.989 466.917 646.642C467.29 647.295 467.477 648.126 467.477 649.134C467.477 650.179 467.257 651.099 466.819 651.892C466.389 652.676 465.806 653.329 465.069 653.852C464.331 654.375 463.487 654.767 462.535 655.028C461.592 655.289 460.603 655.42 459.567 655.42Z" fill="white"></path> <circle cx="300" cy="448" r="60" fill="#F9F9F9"></circle> <path d="M288.777 461.51C286.329 461.51 284.232 460.977 282.487 459.912C280.742 458.835 279.399 457.339 278.458 455.424C277.529 453.509 277.064 451.287 277.064 448.76C277.064 446.233 277.529 444.011 278.458 442.096C279.399 440.181 280.742 438.69 282.487 437.625C284.232 436.548 286.329 436.01 288.777 436.01C291.225 436.01 293.322 436.548 295.067 437.625C296.824 438.69 298.167 440.181 299.096 442.096C300.037 444.011 300.507 446.233 300.507 448.76C300.507 451.287 300.037 453.509 299.096 455.424C298.167 457.339 296.824 458.835 295.067 459.912C293.322 460.977 291.225 461.51 288.777 461.51ZM288.777 457.651C290.42 457.662 291.786 457.3 292.874 456.563C293.973 455.826 294.795 454.789 295.339 453.452C295.894 452.115 296.172 450.551 296.172 448.76C296.172 446.969 295.894 445.417 295.339 444.102C294.795 442.776 293.973 441.745 292.874 441.008C291.786 440.271 290.42 439.892 288.777 439.869C287.134 439.858 285.768 440.22 284.68 440.957C283.592 441.694 282.77 442.731 282.215 444.068C281.671 445.405 281.399 446.969 281.399 448.76C281.399 450.551 281.671 452.109 282.215 453.435C282.759 454.75 283.575 455.775 284.663 456.512C285.762 457.249 287.134 457.628 288.777 457.651ZM303.891 461V436.52H314.006C314.244 436.52 314.55 436.531 314.924 436.554C315.298 436.565 315.643 436.599 315.961 436.656C317.377 436.871 318.545 437.342 319.463 438.067C320.392 438.792 321.078 439.71 321.52 440.821C321.973 441.92 322.2 443.144 322.2 444.493C322.2 446.488 321.695 448.205 320.687 449.644C319.678 451.072 318.131 451.956 316.046 452.296L314.295 452.449H307.988V461H303.891ZM317.95 461L313.122 451.038L317.287 450.12L322.591 461H317.95ZM307.988 448.624H313.836C314.062 448.624 314.317 448.613 314.601 448.59C314.884 448.567 315.145 448.522 315.383 448.454C316.063 448.284 316.595 447.984 316.981 447.553C317.377 447.122 317.655 446.635 317.814 446.091C317.984 445.547 318.069 445.014 318.069 444.493C318.069 443.972 317.984 443.439 317.814 442.895C317.655 442.34 317.377 441.847 316.981 441.416C316.595 440.985 316.063 440.685 315.383 440.515C315.145 440.447 314.884 440.407 314.601 440.396C314.317 440.373 314.062 440.362 313.836 440.362H307.988V448.624Z" fill="#3E1BC9"></path> </svg> 