<?xml version="1.0" encoding="UTF-8"?> <svg xmlns="http://www.w3.org/2000/svg" width="600" height="775" viewBox="0 0 600 775" fill="none"> <rect width="600" height="775" rx="20" fill="#F9F9F9"></rect> <path d="M129.614 73L122.457 48.52H126.758L131.637 66.2L136.499 48.554L140.8 48.52L145.679 66.2L150.541 48.52H154.842L147.702 73H143.656L138.641 55.592L133.66 73H129.614ZM167.305 73.51C164.857 73.51 162.761 72.9773 161.015 71.912C159.27 70.8353 157.927 69.3393 156.986 67.424C156.057 65.5087 155.592 63.2873 155.592 60.76C155.592 58.2327 156.057 56.0113 156.986 54.096C157.927 52.1807 159.27 50.6903 161.015 49.625C162.761 48.5483 164.857 48.01 167.305 48.01C169.753 48.01 171.85 48.5483 173.595 49.625C175.352 50.6903 176.695 52.1807 177.624 54.096C178.565 56.0113 179.035 58.2327 179.035 60.76C179.035 63.2873 178.565 65.5087 177.624 67.424C176.695 69.3393 175.352 70.8353 173.595 71.912C171.85 72.9773 169.753 73.51 167.305 73.51ZM167.305 69.651C168.949 69.6623 170.314 69.2997 171.402 68.563C172.502 67.8263 173.323 66.7893 173.867 65.452C174.423 64.1147 174.7 62.5507 174.7 60.76C174.7 58.9693 174.423 57.4167 173.867 56.102C173.323 54.776 172.502 53.7447 171.402 53.008C170.314 52.2713 168.949 51.8917 167.305 51.869C165.662 51.8577 164.296 52.2203 163.208 52.957C162.12 53.6937 161.299 54.7307 160.743 56.068C160.199 57.4053 159.927 58.9693 159.927 60.76C159.927 62.5507 160.199 64.109 160.743 65.435C161.287 66.7497 162.103 67.7753 163.191 68.512C164.291 69.2487 165.662 69.6283 167.305 69.651ZM192.279 73.51C190.33 73.51 188.613 73.1133 187.128 72.32C185.655 71.5267 184.499 70.4103 183.66 68.971C182.833 67.5317 182.419 65.843 182.419 63.905V48.554L186.567 48.52V63.803C186.567 64.721 186.72 65.5427 187.026 66.268C187.343 66.9933 187.768 67.611 188.301 68.121C188.834 68.6197 189.446 68.9993 190.137 69.26C190.828 69.5207 191.542 69.651 192.279 69.651C193.038 69.651 193.758 69.5207 194.438 69.26C195.129 68.988 195.741 68.6027 196.274 68.104C196.807 67.594 197.226 66.9763 197.532 66.251C197.838 65.5257 197.991 64.7097 197.991 63.803V48.52H202.139V63.905C202.139 65.843 201.72 67.5317 200.881 68.971C200.054 70.4103 198.898 71.5267 197.413 72.32C195.94 73.1133 194.228 73.51 192.279 73.51ZM207.23 73V48.52H211.327V69.158H222.139V73H207.23ZM225.019 73V48.52H232.822C233.026 48.52 233.428 48.5257 234.029 48.537C234.641 48.5483 235.23 48.588 235.797 48.656C237.735 48.9053 239.372 49.5967 240.71 50.73C242.058 51.852 243.078 53.2857 243.77 55.031C244.461 56.7763 244.807 58.686 244.807 60.76C244.807 62.834 244.461 64.7437 243.77 66.489C243.078 68.2343 242.058 69.6737 240.71 70.807C239.372 71.929 237.735 72.6147 235.797 72.864C235.241 72.932 234.658 72.9717 234.046 72.983C233.434 72.9943 233.026 73 232.822 73H225.019ZM229.184 69.141H232.822C233.162 69.141 233.592 69.1297 234.114 69.107C234.646 69.0843 235.117 69.0333 235.525 68.954C236.681 68.7387 237.621 68.223 238.347 67.407C239.072 66.591 239.605 65.5993 239.945 64.432C240.296 63.2647 240.472 62.0407 240.472 60.76C240.472 59.434 240.296 58.1873 239.945 57.02C239.593 55.8527 239.049 54.8723 238.313 54.079C237.587 53.2857 236.658 52.7813 235.525 52.566C235.117 52.4753 234.646 52.4243 234.114 52.413C233.592 52.3903 233.162 52.379 232.822 52.379H229.184V69.141ZM261.582 73V62.97L253.252 48.52H258.029L263.656 58.278L269.266 48.52H274.043L265.73 62.97V73H261.582ZM285.409 73.51C282.961 73.51 280.864 72.9773 279.119 71.912C277.373 70.8353 276.03 69.3393 275.09 67.424C274.16 65.5087 273.696 63.2873 273.696 60.76C273.696 58.2327 274.16 56.0113 275.09 54.096C276.03 52.1807 277.373 50.6903 279.119 49.625C280.864 48.5483 282.961 48.01 285.409 48.01C287.857 48.01 289.953 48.5483 291.699 49.625C293.455 50.6903 294.798 52.1807 295.728 54.096C296.668 56.0113 297.139 58.2327 297.139 60.76C297.139 63.2873 296.668 65.5087 295.728 67.424C294.798 69.3393 293.455 70.8353 291.699 71.912C289.953 72.9773 287.857 73.51 285.409 73.51ZM285.409 69.651C287.052 69.6623 288.418 69.2997 289.506 68.563C290.605 67.8263 291.427 66.7893 291.971 65.452C292.526 64.1147 292.804 62.5507 292.804 60.76C292.804 58.9693 292.526 57.4167 291.971 56.102C291.427 54.776 290.605 53.7447 289.506 53.008C288.418 52.2713 287.052 51.8917 285.409 51.869C283.765 51.8577 282.4 52.2203 281.312 52.957C280.224 53.6937 279.402 54.7307 278.847 56.068C278.303 57.4053 278.031 58.9693 278.031 60.76C278.031 62.5507 278.303 64.109 278.847 65.435C279.391 66.7497 280.207 67.7753 281.295 68.512C282.394 69.2487 283.765 69.6283 285.409 69.651ZM310.383 73.51C308.433 73.51 306.716 73.1133 305.232 72.32C303.758 71.5267 302.602 70.4103 301.764 68.971C300.936 67.5317 300.523 65.843 300.523 63.905V48.554L304.671 48.52V63.803C304.671 64.721 304.824 65.5427 305.13 66.268C305.447 66.9933 305.872 67.611 306.405 68.121C306.937 68.6197 307.549 68.9993 308.241 69.26C308.932 69.5207 309.646 69.651 310.383 69.651C311.142 69.651 311.862 69.5207 312.542 69.26C313.233 68.988 313.845 68.6027 314.378 68.104C314.91 67.594 315.33 66.9763 315.636 66.251C315.942 65.5257 316.095 64.7097 316.095 63.803V48.52H320.243V63.905C320.243 65.843 319.823 67.5317 318.985 68.971C318.157 70.4103 317.001 71.5267 315.517 72.32C314.043 73.1133 312.332 73.51 310.383 73.51ZM331.8 73V48.52H341.915C342.153 48.52 342.459 48.5313 342.833 48.554C343.207 48.5653 343.553 48.5993 343.87 48.656C345.287 48.8713 346.454 49.3417 347.372 50.067C348.301 50.7923 348.987 51.7103 349.429 52.821C349.882 53.9203 350.109 55.1443 350.109 56.493C350.109 58.4877 349.605 60.2047 348.596 61.644C347.587 63.072 346.04 63.956 343.955 64.296L342.204 64.449H335.897V73H331.8ZM345.859 73L341.031 63.038L345.196 62.12L350.5 73H345.859ZM335.897 60.624H341.745C341.972 60.624 342.227 60.6127 342.51 60.59C342.793 60.5673 343.054 60.522 343.292 60.454C343.972 60.284 344.505 59.9837 344.89 59.553C345.287 59.1223 345.564 58.635 345.723 58.091C345.893 57.547 345.978 57.0143 345.978 56.493C345.978 55.9717 345.893 55.439 345.723 54.895C345.564 54.3397 345.287 53.8467 344.89 53.416C344.505 52.9853 343.972 52.685 343.292 52.515C343.054 52.447 342.793 52.4073 342.51 52.396C342.227 52.3733 341.972 52.362 341.745 52.362H335.897V60.624ZM352.545 73L360.263 48.52H366.264L373.982 73H369.766L362.762 51.036H363.68L356.761 73H352.545ZM356.846 67.696V63.871H369.698V67.696H356.846ZM380.912 73V52.362H372.99V48.52H392.931V52.362H385.009V73H380.912ZM395.65 73V48.52H399.747V58.822H411.341V48.52H415.421V73H411.341V62.664H399.747V73H395.65ZM420.187 73V48.52H435.997V52.362H424.284V58.397H433.957V62.239H424.284V69.158H435.997V73H420.187ZM440.075 73V48.52H450.19C450.428 48.52 450.734 48.5313 451.108 48.554C451.482 48.5653 451.828 48.5993 452.145 48.656C453.562 48.8713 454.729 49.3417 455.647 50.067C456.577 50.7923 457.262 51.7103 457.704 52.821C458.158 53.9203 458.384 55.1443 458.384 56.493C458.384 58.4877 457.88 60.2047 456.871 61.644C455.863 63.072 454.316 63.956 452.23 64.296L450.479 64.449H444.172V73H440.075ZM454.134 73L449.306 63.038L453.471 62.12L458.775 73H454.134ZM444.172 60.624H450.02C450.247 60.624 450.502 60.6127 450.785 60.59C451.069 60.5673 451.329 60.522 451.567 60.454C452.247 60.284 452.78 59.9837 453.165 59.553C453.562 59.1223 453.84 58.635 453.998 58.091C454.168 57.547 454.253 57.0143 454.253 56.493C454.253 55.9717 454.168 55.439 453.998 54.895C453.84 54.3397 453.562 53.8467 453.165 53.416C452.78 52.9853 452.247 52.685 451.567 52.515C451.329 52.447 451.069 52.4073 450.785 52.396C450.502 52.3733 450.247 52.362 450.02 52.362H444.172V60.624ZM466.958 66.353C466.958 65.571 467.031 64.8173 467.179 64.092C467.337 63.3553 467.592 62.6753 467.944 62.052C468.25 61.4513 468.59 60.9753 468.964 60.624C469.338 60.2613 469.757 59.9043 470.222 59.553C470.686 59.1903 471.202 58.7087 471.769 58.108C472.233 57.598 472.539 57.0937 472.687 56.595C472.834 56.085 472.908 55.541 472.908 54.963C472.908 54.589 472.868 54.2377 472.789 53.909C472.709 53.5803 472.568 53.297 472.364 53.059C472.046 52.6397 471.638 52.345 471.14 52.175C470.641 51.9937 470.108 51.903 469.542 51.903C469.077 51.903 468.629 51.9653 468.199 52.09C467.779 52.2033 467.422 52.3847 467.128 52.634C466.788 52.906 466.538 53.2403 466.38 53.637C466.221 54.0337 466.147 54.47 466.159 54.946H461.841C461.954 53.8127 462.26 52.7643 462.759 51.801C463.269 50.8263 463.937 50.05 464.765 49.472C465.411 48.996 466.136 48.639 466.941 48.401C467.757 48.163 468.573 48.044 469.389 48.044C470.635 48.044 471.808 48.2367 472.908 48.622C474.018 49.0073 474.942 49.642 475.679 50.526C476.189 51.104 476.574 51.7727 476.835 52.532C477.107 53.2913 477.243 54.062 477.243 54.844C477.243 56.0113 476.988 57.0767 476.478 58.04C475.979 59.0033 475.344 59.893 474.574 60.709C474.211 61.0943 473.865 61.4343 473.537 61.729C473.208 62.0237 472.902 62.3127 472.619 62.596C472.347 62.868 472.12 63.157 471.939 63.463C471.621 63.9957 471.434 64.449 471.378 64.823C471.321 65.1857 471.293 65.6957 471.293 66.353H466.958ZM466.992 73V68.495H471.293V73H466.992Z" fill="#3E1BC9"></path> <rect y="120" width="600" height="300" rx="20" fill="#3E1BC9"></rect> <path d="M119.55 261V240.84H127.544C128.907 240.84 130.022 241.115 130.89 241.666C131.767 242.207 132.416 242.903 132.836 243.752C133.265 244.601 133.48 245.479 133.48 246.384C133.48 247.495 133.214 248.437 132.682 249.212C132.159 249.987 131.445 250.509 130.54 250.78V250.08C131.809 250.369 132.771 250.971 133.424 251.886C134.087 252.801 134.418 253.841 134.418 255.008C134.418 256.203 134.189 257.248 133.732 258.144C133.275 259.04 132.593 259.74 131.688 260.244C130.792 260.748 129.681 261 128.356 261H119.55ZM122.966 257.822H127.936C128.524 257.822 129.051 257.705 129.518 257.472C129.985 257.229 130.349 256.893 130.61 256.464C130.881 256.025 131.016 255.507 131.016 254.91C131.016 254.369 130.899 253.883 130.666 253.454C130.433 253.025 130.092 252.684 129.644 252.432C129.196 252.171 128.659 252.04 128.034 252.04H122.966V257.822ZM122.966 248.89H127.502C127.987 248.89 128.421 248.797 128.804 248.61C129.187 248.423 129.49 248.148 129.714 247.784C129.938 247.42 130.05 246.972 130.05 246.44C130.05 245.74 129.826 245.157 129.378 244.69C128.93 244.223 128.305 243.99 127.502 243.99H122.966V248.89ZM137.214 261V240.84H150.234V244.004H140.588V248.974H148.554V252.138H140.588V257.836H150.234V261H137.214ZM157.798 261L164.154 240.84H169.096L175.452 261H171.98L166.212 242.912H166.968L161.27 261H157.798ZM161.34 256.632V253.482H171.924V256.632H161.34ZM177.983 261V240.84H185.977C187.34 240.84 188.455 241.115 189.323 241.666C190.201 242.207 190.849 242.903 191.269 243.752C191.699 244.601 191.913 245.479 191.913 246.384C191.913 247.495 191.647 248.437 191.115 249.212C190.593 249.987 189.879 250.509 188.973 250.78V250.08C190.243 250.369 191.204 250.971 191.857 251.886C192.52 252.801 192.851 253.841 192.851 255.008C192.851 256.203 192.623 257.248 192.165 258.144C191.708 259.04 191.027 259.74 190.121 260.244C189.225 260.748 188.115 261 186.789 261H177.983ZM181.399 257.822H186.369C186.957 257.822 187.485 257.705 187.951 257.472C188.418 257.229 188.782 256.893 189.043 256.464C189.314 256.025 189.449 255.507 189.449 254.91C189.449 254.369 189.333 253.883 189.099 253.454C188.866 253.025 188.525 252.684 188.077 252.432C187.629 252.171 187.093 252.04 186.467 252.04H181.399V257.822ZM181.399 248.89H185.935C186.421 248.89 186.855 248.797 187.237 248.61C187.62 248.423 187.923 248.148 188.147 247.784C188.371 247.42 188.483 246.972 188.483 246.44C188.483 245.74 188.259 245.157 187.811 244.69C187.363 244.223 186.738 243.99 185.935 243.99H181.399V248.89ZM195.928 261V240.84H199.302V257.836H208.206V261H195.928ZM210.577 261V240.84H223.597V244.004H213.951V248.974H221.917V252.138H213.951V257.836H223.597V261H210.577ZM237.406 261V244.004H230.882V240.84H247.304V244.004H240.78V261H237.406ZM258.068 261.42C256.052 261.42 254.325 260.981 252.888 260.104C251.451 259.217 250.345 257.985 249.57 256.408C248.805 254.831 248.422 253.001 248.422 250.92C248.422 248.839 248.805 247.009 249.57 245.432C250.345 243.855 251.451 242.627 252.888 241.75C254.325 240.863 256.052 240.42 258.068 240.42C260.084 240.42 261.811 240.863 263.248 241.75C264.695 242.627 265.801 243.855 266.566 245.432C267.341 247.009 267.728 248.839 267.728 250.92C267.728 253.001 267.341 254.831 266.566 256.408C265.801 257.985 264.695 259.217 263.248 260.104C261.811 260.981 260.084 261.42 258.068 261.42ZM258.068 258.242C259.421 258.251 260.546 257.953 261.442 257.346C262.347 256.739 263.024 255.885 263.472 254.784C263.929 253.683 264.158 252.395 264.158 250.92C264.158 249.445 263.929 248.167 263.472 247.084C263.024 245.992 262.347 245.143 261.442 244.536C260.546 243.929 259.421 243.617 258.068 243.598C256.715 243.589 255.59 243.887 254.694 244.494C253.798 245.101 253.121 245.955 252.664 247.056C252.216 248.157 251.992 249.445 251.992 250.92C251.992 252.395 252.216 253.678 252.664 254.77C253.112 255.853 253.784 256.697 254.68 257.304C255.585 257.911 256.715 258.223 258.068 258.242ZM284.646 261.42C282.63 261.42 280.903 260.981 279.466 260.104C278.029 259.217 276.923 257.985 276.148 256.408C275.383 254.831 275 253.001 275 250.92C275 248.839 275.383 247.009 276.148 245.432C276.923 243.855 278.029 242.627 279.466 241.75C280.903 240.863 282.63 240.42 284.646 240.42C286.97 240.42 288.907 241.003 290.456 242.17C292.005 243.327 293.093 244.891 293.718 246.86L290.316 247.798C289.924 246.482 289.257 245.455 288.314 244.718C287.371 243.971 286.149 243.598 284.646 243.598C283.293 243.598 282.163 243.901 281.258 244.508C280.362 245.115 279.685 245.969 279.228 247.07C278.78 248.162 278.551 249.445 278.542 250.92C278.542 252.395 278.766 253.683 279.214 254.784C279.671 255.876 280.353 256.725 281.258 257.332C282.163 257.939 283.293 258.242 284.646 258.242C286.149 258.242 287.371 257.869 288.314 257.122C289.257 256.375 289.924 255.349 290.316 254.042L293.718 254.98C293.093 256.949 292.005 258.517 290.456 259.684C288.907 260.841 286.97 261.42 284.646 261.42ZM305.318 261.42C303.302 261.42 301.575 260.981 300.138 260.104C298.701 259.217 297.595 257.985 296.82 256.408C296.055 254.831 295.672 253.001 295.672 250.92C295.672 248.839 296.055 247.009 296.82 245.432C297.595 243.855 298.701 242.627 300.138 241.75C301.575 240.863 303.302 240.42 305.318 240.42C307.334 240.42 309.061 240.863 310.498 241.75C311.945 242.627 313.051 243.855 313.816 245.432C314.591 247.009 314.978 248.839 314.978 250.92C314.978 253.001 314.591 254.831 313.816 256.408C313.051 257.985 311.945 259.217 310.498 260.104C309.061 260.981 307.334 261.42 305.318 261.42ZM305.318 258.242C306.671 258.251 307.796 257.953 308.692 257.346C309.597 256.739 310.274 255.885 310.722 254.784C311.179 253.683 311.408 252.395 311.408 250.92C311.408 249.445 311.179 248.167 310.722 247.084C310.274 245.992 309.597 245.143 308.692 244.536C307.796 243.929 306.671 243.617 305.318 243.598C303.965 243.589 302.84 243.887 301.944 244.494C301.048 245.101 300.371 245.955 299.914 247.056C299.466 248.157 299.242 249.445 299.242 250.92C299.242 252.395 299.466 253.678 299.914 254.77C300.362 255.853 301.034 256.697 301.93 257.304C302.835 257.911 303.965 258.223 305.318 258.242ZM317.765 261V240.84H320.803L327.775 255.12L334.747 240.84H337.785V261H334.635V248.078L328.447 261H327.103L320.929 248.078V261H317.765ZM341.718 261V240.84H344.756L351.728 255.12L358.7 240.84H361.738V261H358.588V248.078L352.4 261H351.056L344.882 248.078V261H341.718ZM373.791 261.42C372.186 261.42 370.772 261.093 369.549 260.44C368.336 259.787 367.384 258.867 366.693 257.682C366.012 256.497 365.671 255.106 365.671 253.51V240.868L369.087 240.84V253.426C369.087 254.182 369.213 254.859 369.465 255.456C369.726 256.053 370.076 256.562 370.515 256.982C370.954 257.393 371.458 257.705 372.027 257.92C372.596 258.135 373.184 258.242 373.791 258.242C374.416 258.242 375.009 258.135 375.569 257.92C376.138 257.696 376.642 257.379 377.081 256.968C377.52 256.548 377.865 256.039 378.117 255.442C378.369 254.845 378.495 254.173 378.495 253.426V240.84H381.911V253.51C381.911 255.106 381.566 256.497 380.875 257.682C380.194 258.867 379.242 259.787 378.019 260.44C376.806 261.093 375.396 261.42 373.791 261.42ZM385.823 261V240.84H389.239L398.591 255.05V240.84H402.007V261H398.591L389.239 246.79V261H385.823ZM406.201 261V240.84H409.575V261H406.201ZM422.295 261.42C420.279 261.42 418.552 260.981 417.115 260.104C415.677 259.217 414.571 257.985 413.797 256.408C413.031 254.831 412.649 253.001 412.649 250.92C412.649 248.839 413.031 247.009 413.797 245.432C414.571 243.855 415.677 242.627 417.115 241.75C418.552 240.863 420.279 240.42 422.295 240.42C424.619 240.42 426.555 241.003 428.105 242.17C429.654 243.327 430.741 244.891 431.367 246.86L427.965 247.798C427.573 246.482 426.905 245.455 425.963 244.718C425.02 243.971 423.797 243.598 422.295 243.598C420.941 243.598 419.812 243.901 418.907 244.508C418.011 245.115 417.334 245.969 416.877 247.07C416.429 248.162 416.2 249.445 416.191 250.92C416.191 252.395 416.415 253.683 416.863 254.784C417.32 255.876 418.001 256.725 418.907 257.332C419.812 257.939 420.941 258.242 422.295 258.242C423.797 258.242 425.02 257.869 425.963 257.122C426.905 256.375 427.573 255.349 427.965 254.042L431.367 254.98C430.741 256.949 429.654 258.517 428.105 259.684C426.555 260.841 424.619 261.42 422.295 261.42ZM432.494 261L438.85 240.84H443.792L450.148 261H446.676L440.908 242.912H441.664L435.966 261H432.494ZM436.036 256.632V253.482H446.62V256.632H436.036ZM455.855 261V244.004H449.331V240.84H465.753V244.004H459.229V261H455.855ZM467.991 261V240.84H481.011V244.004H471.365V248.974H479.331V252.138H471.365V257.836H481.011V261H467.991ZM205.837 300L199.943 279.84H203.485L207.503 294.4L211.507 279.868L215.049 279.84L219.067 294.4L223.071 279.84H226.613L220.733 300H217.401L213.271 285.664L209.169 300H205.837ZM229.178 300V279.84H232.552V300H229.178ZM241.589 300V283.004H235.065V279.84H251.487V283.004H244.963V300H241.589ZM253.726 300V279.84H257.1V288.324H266.648V279.84H270.008V300H266.648V291.488H257.1V300H253.726ZM278.138 300L284.494 279.84H289.436L295.792 300H292.32L286.552 281.912H287.308L281.61 300H278.138ZM281.68 295.632V292.482H292.264V295.632H281.68ZM298.323 300V279.84H301.739L311.091 294.05V279.84H314.507V300H311.091L301.739 285.79V300H298.323ZM318.701 300V279.84H322.075V300H318.701ZM326.269 300V279.84H329.307L336.279 294.12L343.251 279.84H346.289V300H343.139V287.078L336.951 300H335.607L329.433 287.078V300H326.269ZM348.822 300L355.178 279.84H360.12L366.476 300H363.004L357.236 281.912H357.992L352.294 300H348.822ZM352.364 295.632V292.482H362.948V295.632H352.364ZM369.287 300V279.84H372.661V296.836H381.565V300H369.287ZM391.399 300.42C389.924 300.42 388.594 300.163 387.409 299.65C386.233 299.137 385.262 298.404 384.497 297.452C383.741 296.491 383.26 295.352 383.055 294.036L386.555 293.504C386.853 294.699 387.465 295.623 388.389 296.276C389.322 296.929 390.395 297.256 391.609 297.256C392.327 297.256 393.004 297.144 393.639 296.92C394.273 296.696 394.787 296.369 395.179 295.94C395.58 295.511 395.781 294.983 395.781 294.358C395.781 294.078 395.734 293.821 395.641 293.588C395.547 293.345 395.407 293.131 395.221 292.944C395.043 292.757 394.81 292.589 394.521 292.44C394.241 292.281 393.914 292.146 393.541 292.034L388.333 290.494C387.885 290.363 387.399 290.191 386.877 289.976C386.363 289.752 385.873 289.449 385.407 289.066C384.949 288.674 384.571 288.179 384.273 287.582C383.983 286.975 383.839 286.229 383.839 285.342C383.839 284.045 384.165 282.957 384.819 282.08C385.481 281.193 386.368 280.531 387.479 280.092C388.599 279.653 389.84 279.439 391.203 279.448C392.584 279.457 393.816 279.695 394.899 280.162C395.981 280.619 396.887 281.287 397.615 282.164C398.343 283.041 398.856 284.101 399.155 285.342L395.529 285.972C395.379 285.263 395.09 284.661 394.661 284.166C394.241 283.662 393.723 283.279 393.107 283.018C392.5 282.757 391.851 282.617 391.161 282.598C390.489 282.589 389.863 282.691 389.285 282.906C388.715 283.111 388.253 283.41 387.899 283.802C387.553 284.194 387.381 284.651 387.381 285.174C387.381 285.669 387.53 286.075 387.829 286.392C388.127 286.7 388.496 286.947 388.935 287.134C389.383 287.311 389.835 287.461 390.293 287.582L393.905 288.59C394.399 288.721 394.955 288.898 395.571 289.122C396.187 289.346 396.779 289.659 397.349 290.06C397.918 290.461 398.385 290.989 398.749 291.642C399.122 292.295 399.309 293.126 399.309 294.134C399.309 295.179 399.089 296.099 398.651 296.892C398.221 297.676 397.638 298.329 396.901 298.852C396.163 299.375 395.319 299.767 394.367 300.028C393.424 300.289 392.435 300.42 391.399 300.42Z" fill="white"></path> <rect y="475" width="600" height="300" rx="20" fill="#5199FF"></rect> <path d="M166.305 636.42C164.83 636.42 163.5 636.163 162.315 635.65C161.139 635.137 160.168 634.404 159.403 633.452C158.647 632.491 158.166 631.352 157.961 630.036L161.461 629.504C161.759 630.699 162.371 631.623 163.295 632.276C164.228 632.929 165.301 633.256 166.515 633.256C167.233 633.256 167.91 633.144 168.545 632.92C169.179 632.696 169.693 632.369 170.085 631.94C170.486 631.511 170.687 630.983 170.687 630.358C170.687 630.078 170.64 629.821 170.547 629.588C170.453 629.345 170.313 629.131 170.127 628.944C169.949 628.757 169.716 628.589 169.427 628.44C169.147 628.281 168.82 628.146 168.447 628.034L163.239 626.494C162.791 626.363 162.305 626.191 161.783 625.976C161.269 625.752 160.779 625.449 160.313 625.066C159.855 624.674 159.477 624.179 159.179 623.582C158.889 622.975 158.745 622.229 158.745 621.342C158.745 620.045 159.071 618.957 159.725 618.08C160.387 617.193 161.274 616.531 162.385 616.092C163.505 615.653 164.746 615.439 166.109 615.448C167.49 615.457 168.722 615.695 169.805 616.162C170.887 616.619 171.793 617.287 172.521 618.164C173.249 619.041 173.762 620.101 174.061 621.342L170.435 621.972C170.285 621.263 169.996 620.661 169.567 620.166C169.147 619.662 168.629 619.279 168.013 619.018C167.406 618.757 166.757 618.617 166.067 618.598C165.395 618.589 164.769 618.691 164.191 618.906C163.621 619.111 163.159 619.41 162.805 619.802C162.459 620.194 162.287 620.651 162.287 621.174C162.287 621.669 162.436 622.075 162.735 622.392C163.033 622.7 163.402 622.947 163.841 623.134C164.289 623.311 164.741 623.461 165.199 623.582L168.811 624.59C169.305 624.721 169.861 624.898 170.477 625.122C171.093 625.346 171.685 625.659 172.255 626.06C172.824 626.461 173.291 626.989 173.655 627.642C174.028 628.295 174.215 629.126 174.215 630.134C174.215 631.179 173.995 632.099 173.557 632.892C173.127 633.676 172.544 634.329 171.807 634.852C171.069 635.375 170.225 635.767 169.273 636.028C168.33 636.289 167.341 636.42 166.305 636.42ZM177.245 636V615.84H185.575C185.771 615.84 186.023 615.849 186.331 615.868C186.639 615.877 186.924 615.905 187.185 615.952C188.352 616.129 189.313 616.517 190.069 617.114C190.834 617.711 191.399 618.467 191.763 619.382C192.136 620.287 192.323 621.295 192.323 622.406C192.323 623.507 192.136 624.515 191.763 625.43C191.39 626.335 190.82 627.087 190.055 627.684C189.299 628.281 188.342 628.669 187.185 628.846C186.924 628.883 186.634 628.911 186.317 628.93C186.009 628.949 185.762 628.958 185.575 628.958H180.619V636H177.245ZM180.619 625.808H185.435C185.622 625.808 185.832 625.799 186.065 625.78C186.298 625.761 186.513 625.724 186.709 625.668C187.269 625.528 187.708 625.281 188.025 624.926C188.352 624.571 188.58 624.17 188.711 623.722C188.851 623.274 188.921 622.835 188.921 622.406C188.921 621.977 188.851 621.538 188.711 621.09C188.58 620.633 188.352 620.227 188.025 619.872C187.708 619.517 187.269 619.27 186.709 619.13C186.513 619.074 186.298 619.041 186.065 619.032C185.832 619.013 185.622 619.004 185.435 619.004H180.619V625.808ZM195.408 636V615.84H198.782V636H195.408ZM202.976 636V615.84H211.306C211.502 615.84 211.754 615.849 212.062 615.868C212.37 615.877 212.654 615.905 212.916 615.952C214.082 616.129 215.044 616.517 215.8 617.114C216.565 617.711 217.13 618.467 217.494 619.382C217.867 620.287 218.054 621.295 218.054 622.406C218.054 624.049 217.638 625.463 216.808 626.648C215.977 627.824 214.703 628.552 212.986 628.832L211.544 628.958H206.35V636H202.976ZM214.554 636L210.578 627.796L214.008 627.04L218.376 636H214.554ZM206.35 625.808H211.166C211.352 625.808 211.562 625.799 211.796 625.78C212.029 625.761 212.244 625.724 212.44 625.668C213 625.528 213.438 625.281 213.756 624.926C214.082 624.571 214.311 624.17 214.442 623.722C214.582 623.274 214.652 622.835 214.652 622.406C214.652 621.977 214.582 621.538 214.442 621.09C214.311 620.633 214.082 620.227 213.756 619.872C213.438 619.517 213 619.27 212.44 619.13C212.244 619.074 212.029 619.041 211.796 619.032C211.562 619.013 211.352 619.004 211.166 619.004H206.35V625.808ZM221.74 636V615.84H225.114V636H221.74ZM234.152 636V619.004H227.628V615.84H244.05V619.004H237.526V636H234.152ZM253.75 636.42C252.275 636.42 250.945 636.163 249.76 635.65C248.584 635.137 247.613 634.404 246.848 633.452C246.092 632.491 245.611 631.352 245.406 630.036L248.906 629.504C249.205 630.699 249.816 631.623 250.74 632.276C251.673 632.929 252.747 633.256 253.96 633.256C254.679 633.256 255.355 633.144 255.99 632.92C256.625 632.696 257.138 632.369 257.53 631.94C257.931 631.511 258.132 630.983 258.132 630.358C258.132 630.078 258.085 629.821 257.992 629.588C257.899 629.345 257.759 629.131 257.572 628.944C257.395 628.757 257.161 628.589 256.872 628.44C256.592 628.281 256.265 628.146 255.892 628.034L250.684 626.494C250.236 626.363 249.751 626.191 249.228 625.976C248.715 625.752 248.225 625.449 247.758 625.066C247.301 624.674 246.923 624.179 246.624 623.582C246.335 622.975 246.19 622.229 246.19 621.342C246.19 620.045 246.517 618.957 247.17 618.08C247.833 617.193 248.719 616.531 249.83 616.092C250.95 615.653 252.191 615.439 253.554 615.448C254.935 615.457 256.167 615.695 257.25 616.162C258.333 616.619 259.238 617.287 259.966 618.164C260.694 619.041 261.207 620.101 261.506 621.342L257.88 621.972C257.731 621.263 257.441 620.661 257.012 620.166C256.592 619.662 256.074 619.279 255.458 619.018C254.851 618.757 254.203 618.617 253.512 618.598C252.84 618.589 252.215 618.691 251.636 618.906C251.067 619.111 250.605 619.41 250.25 619.802C249.905 620.194 249.732 620.651 249.732 621.174C249.732 621.669 249.881 622.075 250.18 622.392C250.479 622.7 250.847 622.947 251.286 623.134C251.734 623.311 252.187 623.461 252.644 623.582L256.256 624.59C256.751 624.721 257.306 624.898 257.922 625.122C258.538 625.346 259.131 625.659 259.7 626.06C260.269 626.461 260.736 626.989 261.1 627.642C261.473 628.295 261.66 629.126 261.66 630.134C261.66 631.179 261.441 632.099 261.002 632.892C260.573 633.676 259.989 634.329 259.252 634.852C258.515 635.375 257.67 635.767 256.718 636.028C255.775 636.289 254.786 636.42 253.75 636.42ZM278.822 636.42C276.806 636.42 275.079 635.981 273.642 635.104C272.205 634.217 271.099 632.985 270.324 631.408C269.559 629.831 269.176 628.001 269.176 625.92C269.176 623.839 269.559 622.009 270.324 620.432C271.099 618.855 272.205 617.627 273.642 616.75C275.079 615.863 276.806 615.42 278.822 615.42C280.838 615.42 282.565 615.863 284.002 616.75C285.449 617.627 286.555 618.855 287.32 620.432C288.095 622.009 288.482 623.839 288.482 625.92C288.482 628.001 288.095 629.831 287.32 631.408C286.555 632.985 285.449 634.217 284.002 635.104C282.565 635.981 280.838 636.42 278.822 636.42ZM278.822 633.242C280.175 633.251 281.3 632.953 282.196 632.346C283.101 631.739 283.778 630.885 284.226 629.784C284.683 628.683 284.912 627.395 284.912 625.92C284.912 624.445 284.683 623.167 284.226 622.084C283.778 620.992 283.101 620.143 282.196 619.536C281.3 618.929 280.175 618.617 278.822 618.598C277.469 618.589 276.344 618.887 275.448 619.494C274.552 620.101 273.875 620.955 273.418 622.056C272.97 623.157 272.746 624.445 272.746 625.92C272.746 627.395 272.97 628.678 273.418 629.77C273.866 630.853 274.538 631.697 275.434 632.304C276.339 632.911 277.469 633.223 278.822 633.242ZM291.269 636V615.84H303.407V619.214H294.643V624.24H301.727V627.6H294.643V636H291.269ZM316.374 636V619.004H309.85V615.84H326.272V619.004H319.748V636H316.374ZM328.511 636V615.84H331.885V624.324H341.433V615.84H344.793V636H341.433V627.488H331.885V636H328.511ZM348.718 636V615.84H361.738V619.004H352.092V623.974H360.058V627.138H352.092V632.836H361.738V636H348.718ZM370.702 636V615.84H377.128C377.296 615.84 377.628 615.845 378.122 615.854C378.626 615.863 379.112 615.896 379.578 615.952C381.174 616.157 382.523 616.727 383.624 617.66C384.735 618.584 385.575 619.765 386.144 621.202C386.714 622.639 386.998 624.212 386.998 625.92C386.998 627.628 386.714 629.201 386.144 630.638C385.575 632.075 384.735 633.261 383.624 634.194C382.523 635.118 381.174 635.683 379.578 635.888C379.121 635.944 378.64 635.977 378.136 635.986C377.632 635.995 377.296 636 377.128 636H370.702ZM374.132 632.822H377.128C377.408 632.822 377.763 632.813 378.192 632.794C378.631 632.775 379.018 632.733 379.354 632.668C380.306 632.491 381.081 632.066 381.678 631.394C382.276 630.722 382.714 629.905 382.994 628.944C383.284 627.983 383.428 626.975 383.428 625.92C383.428 624.828 383.284 623.801 382.994 622.84C382.705 621.879 382.257 621.071 381.65 620.418C381.053 619.765 380.288 619.349 379.354 619.172C379.018 619.097 378.631 619.055 378.192 619.046C377.763 619.027 377.408 619.018 377.128 619.018H374.132V632.822ZM390.308 636V615.84H403.328V619.004H393.682V623.974H401.648V627.138H393.682V632.836H403.328V636H390.308ZM405.287 636L411.643 615.84H416.585L422.941 636H419.469L413.701 617.912H414.457L408.759 636H405.287ZM408.829 631.632V628.482H419.413V631.632H408.829ZM425.472 636V615.84H431.898C432.066 615.84 432.397 615.845 432.892 615.854C433.396 615.863 433.881 615.896 434.348 615.952C435.944 616.157 437.292 616.727 438.394 617.66C439.504 618.584 440.344 619.765 440.914 621.202C441.483 622.639 441.768 624.212 441.768 625.92C441.768 627.628 441.483 629.201 440.914 630.638C440.344 632.075 439.504 633.261 438.394 634.194C437.292 635.118 435.944 635.683 434.348 635.888C433.89 635.944 433.41 635.977 432.906 635.986C432.402 635.995 432.066 636 431.898 636H425.472ZM428.902 632.822H431.898C432.178 632.822 432.532 632.813 432.962 632.794C433.4 632.775 433.788 632.733 434.124 632.668C435.076 632.491 435.85 632.066 436.448 631.394C437.045 630.722 437.484 629.905 437.764 628.944C438.053 627.983 438.198 626.975 438.198 625.92C438.198 624.828 438.053 623.801 437.764 622.84C437.474 621.879 437.026 621.071 436.42 620.418C435.822 619.765 435.057 619.349 434.124 619.172C433.788 619.097 433.4 619.055 432.962 619.046C432.532 619.027 432.178 619.018 431.898 619.018H428.902V632.822Z" fill="white"></path> <circle cx="300" cy="448" r="60" fill="#F9F9F9"></circle> <path d="M288.777 461.51C286.329 461.51 284.232 460.977 282.487 459.912C280.742 458.835 279.399 457.339 278.458 455.424C277.529 453.509 277.064 451.287 277.064 448.76C277.064 446.233 277.529 444.011 278.458 442.096C279.399 440.181 280.742 438.69 282.487 437.625C284.232 436.548 286.329 436.01 288.777 436.01C291.225 436.01 293.322 436.548 295.067 437.625C296.824 438.69 298.167 440.181 299.096 442.096C300.037 444.011 300.507 446.233 300.507 448.76C300.507 451.287 300.037 453.509 299.096 455.424C298.167 457.339 296.824 458.835 295.067 459.912C293.322 460.977 291.225 461.51 288.777 461.51ZM288.777 457.651C290.42 457.662 291.786 457.3 292.874 456.563C293.973 455.826 294.795 454.789 295.339 453.452C295.894 452.115 296.172 450.551 296.172 448.76C296.172 446.969 295.894 445.417 295.339 444.102C294.795 442.776 293.973 441.745 292.874 441.008C291.786 440.271 290.42 439.892 288.777 439.869C287.134 439.858 285.768 440.22 284.68 440.957C283.592 441.694 282.77 442.731 282.215 444.068C281.671 445.405 281.399 446.969 281.399 448.76C281.399 450.551 281.671 452.109 282.215 453.435C282.759 454.75 283.575 455.775 284.663 456.512C285.762 457.249 287.134 457.628 288.777 457.651ZM303.891 461V436.52H314.006C314.244 436.52 314.55 436.531 314.924 436.554C315.298 436.565 315.643 436.599 315.961 436.656C317.377 436.871 318.545 437.342 319.463 438.067C320.392 438.792 321.078 439.71 321.52 440.821C321.973 441.92 322.2 443.144 322.2 444.493C322.2 446.488 321.695 448.205 320.687 449.644C319.678 451.072 318.131 451.956 316.046 452.296L314.295 452.449H307.988V461H303.891ZM317.95 461L313.122 451.038L317.287 450.12L322.591 461H317.95ZM307.988 448.624H313.836C314.062 448.624 314.317 448.613 314.601 448.59C314.884 448.567 315.145 448.522 315.383 448.454C316.063 448.284 316.595 447.984 316.981 447.553C317.377 447.122 317.655 446.635 317.814 446.091C317.984 445.547 318.069 445.014 318.069 444.493C318.069 443.972 317.984 443.439 317.814 442.895C317.655 442.34 317.377 441.847 316.981 441.416C316.595 440.985 316.063 440.685 315.383 440.515C315.145 440.447 314.884 440.407 314.601 440.396C314.317 440.373 314.062 440.362 313.836 440.362H307.988V448.624Z" fill="#3E1BC9"></path> </svg> 