<?xml version="1.0" encoding="UTF-8"?> <svg xmlns="http://www.w3.org/2000/svg" width="600" height="775" viewBox="0 0 600 775" fill="none"> <rect width="600" height="775" rx="20" fill="#F9F9F9"></rect> <path d="M129.614 73L122.457 48.52H126.758L131.637 66.2L136.499 48.554L140.8 48.52L145.679 66.2L150.541 48.52H154.842L147.702 73H143.656L138.641 55.592L133.66 73H129.614ZM167.305 73.51C164.857 73.51 162.761 72.9773 161.015 71.912C159.27 70.8353 157.927 69.3393 156.986 67.424C156.057 65.5087 155.592 63.2873 155.592 60.76C155.592 58.2327 156.057 56.0113 156.986 54.096C157.927 52.1807 159.27 50.6903 161.015 49.625C162.761 48.5483 164.857 48.01 167.305 48.01C169.753 48.01 171.85 48.5483 173.595 49.625C175.352 50.6903 176.695 52.1807 177.624 54.096C178.565 56.0113 179.035 58.2327 179.035 60.76C179.035 63.2873 178.565 65.5087 177.624 67.424C176.695 69.3393 175.352 70.8353 173.595 71.912C171.85 72.9773 169.753 73.51 167.305 73.51ZM167.305 69.651C168.949 69.6623 170.314 69.2997 171.402 68.563C172.502 67.8263 173.323 66.7893 173.867 65.452C174.423 64.1147 174.7 62.5507 174.7 60.76C174.7 58.9693 174.423 57.4167 173.867 56.102C173.323 54.776 172.502 53.7447 171.402 53.008C170.314 52.2713 168.949 51.8917 167.305 51.869C165.662 51.8577 164.296 52.2203 163.208 52.957C162.12 53.6937 161.299 54.7307 160.743 56.068C160.199 57.4053 159.927 58.9693 159.927 60.76C159.927 62.5507 160.199 64.109 160.743 65.435C161.287 66.7497 162.103 67.7753 163.191 68.512C164.291 69.2487 165.662 69.6283 167.305 69.651ZM192.279 73.51C190.33 73.51 188.613 73.1133 187.128 72.32C185.655 71.5267 184.499 70.4103 183.66 68.971C182.833 67.5317 182.419 65.843 182.419 63.905V48.554L186.567 48.52V63.803C186.567 64.721 186.72 65.5427 187.026 66.268C187.343 66.9933 187.768 67.611 188.301 68.121C188.834 68.6197 189.446 68.9993 190.137 69.26C190.828 69.5207 191.542 69.651 192.279 69.651C193.038 69.651 193.758 69.5207 194.438 69.26C195.129 68.988 195.741 68.6027 196.274 68.104C196.807 67.594 197.226 66.9763 197.532 66.251C197.838 65.5257 197.991 64.7097 197.991 63.803V48.52H202.139V63.905C202.139 65.843 201.72 67.5317 200.881 68.971C200.054 70.4103 198.898 71.5267 197.413 72.32C195.94 73.1133 194.228 73.51 192.279 73.51ZM207.23 73V48.52H211.327V69.158H222.139V73H207.23ZM225.019 73V48.52H232.822C233.026 48.52 233.428 48.5257 234.029 48.537C234.641 48.5483 235.23 48.588 235.797 48.656C237.735 48.9053 239.372 49.5967 240.71 50.73C242.058 51.852 243.078 53.2857 243.77 55.031C244.461 56.7763 244.807 58.686 244.807 60.76C244.807 62.834 244.461 64.7437 243.77 66.489C243.078 68.2343 242.058 69.6737 240.71 70.807C239.372 71.929 237.735 72.6147 235.797 72.864C235.241 72.932 234.658 72.9717 234.046 72.983C233.434 72.9943 233.026 73 232.822 73H225.019ZM229.184 69.141H232.822C233.162 69.141 233.592 69.1297 234.114 69.107C234.646 69.0843 235.117 69.0333 235.525 68.954C236.681 68.7387 237.621 68.223 238.347 67.407C239.072 66.591 239.605 65.5993 239.945 64.432C240.296 63.2647 240.472 62.0407 240.472 60.76C240.472 59.434 240.296 58.1873 239.945 57.02C239.593 55.8527 239.049 54.8723 238.313 54.079C237.587 53.2857 236.658 52.7813 235.525 52.566C235.117 52.4753 234.646 52.4243 234.114 52.413C233.592 52.3903 233.162 52.379 232.822 52.379H229.184V69.141ZM261.582 73V62.97L253.252 48.52H258.029L263.656 58.278L269.266 48.52H274.043L265.73 62.97V73H261.582ZM285.409 73.51C282.961 73.51 280.864 72.9773 279.119 71.912C277.373 70.8353 276.03 69.3393 275.09 67.424C274.16 65.5087 273.696 63.2873 273.696 60.76C273.696 58.2327 274.16 56.0113 275.09 54.096C276.03 52.1807 277.373 50.6903 279.119 49.625C280.864 48.5483 282.961 48.01 285.409 48.01C287.857 48.01 289.953 48.5483 291.699 49.625C293.455 50.6903 294.798 52.1807 295.728 54.096C296.668 56.0113 297.139 58.2327 297.139 60.76C297.139 63.2873 296.668 65.5087 295.728 67.424C294.798 69.3393 293.455 70.8353 291.699 71.912C289.953 72.9773 287.857 73.51 285.409 73.51ZM285.409 69.651C287.052 69.6623 288.418 69.2997 289.506 68.563C290.605 67.8263 291.427 66.7893 291.971 65.452C292.526 64.1147 292.804 62.5507 292.804 60.76C292.804 58.9693 292.526 57.4167 291.971 56.102C291.427 54.776 290.605 53.7447 289.506 53.008C288.418 52.2713 287.052 51.8917 285.409 51.869C283.765 51.8577 282.4 52.2203 281.312 52.957C280.224 53.6937 279.402 54.7307 278.847 56.068C278.303 57.4053 278.031 58.9693 278.031 60.76C278.031 62.5507 278.303 64.109 278.847 65.435C279.391 66.7497 280.207 67.7753 281.295 68.512C282.394 69.2487 283.765 69.6283 285.409 69.651ZM310.383 73.51C308.433 73.51 306.716 73.1133 305.232 72.32C303.758 71.5267 302.602 70.4103 301.764 68.971C300.936 67.5317 300.523 65.843 300.523 63.905V48.554L304.671 48.52V63.803C304.671 64.721 304.824 65.5427 305.13 66.268C305.447 66.9933 305.872 67.611 306.405 68.121C306.937 68.6197 307.549 68.9993 308.241 69.26C308.932 69.5207 309.646 69.651 310.383 69.651C311.142 69.651 311.862 69.5207 312.542 69.26C313.233 68.988 313.845 68.6027 314.378 68.104C314.91 67.594 315.33 66.9763 315.636 66.251C315.942 65.5257 316.095 64.7097 316.095 63.803V48.52H320.243V63.905C320.243 65.843 319.823 67.5317 318.985 68.971C318.157 70.4103 317.001 71.5267 315.517 72.32C314.043 73.1133 312.332 73.51 310.383 73.51ZM331.8 73V48.52H341.915C342.153 48.52 342.459 48.5313 342.833 48.554C343.207 48.5653 343.553 48.5993 343.87 48.656C345.287 48.8713 346.454 49.3417 347.372 50.067C348.301 50.7923 348.987 51.7103 349.429 52.821C349.882 53.9203 350.109 55.1443 350.109 56.493C350.109 58.4877 349.605 60.2047 348.596 61.644C347.587 63.072 346.04 63.956 343.955 64.296L342.204 64.449H335.897V73H331.8ZM345.859 73L341.031 63.038L345.196 62.12L350.5 73H345.859ZM335.897 60.624H341.745C341.972 60.624 342.227 60.6127 342.51 60.59C342.793 60.5673 343.054 60.522 343.292 60.454C343.972 60.284 344.505 59.9837 344.89 59.553C345.287 59.1223 345.564 58.635 345.723 58.091C345.893 57.547 345.978 57.0143 345.978 56.493C345.978 55.9717 345.893 55.439 345.723 54.895C345.564 54.3397 345.287 53.8467 344.89 53.416C344.505 52.9853 343.972 52.685 343.292 52.515C343.054 52.447 342.793 52.4073 342.51 52.396C342.227 52.3733 341.972 52.362 341.745 52.362H335.897V60.624ZM352.545 73L360.263 48.52H366.264L373.982 73H369.766L362.762 51.036H363.68L356.761 73H352.545ZM356.846 67.696V63.871H369.698V67.696H356.846ZM380.912 73V52.362H372.99V48.52H392.931V52.362H385.009V73H380.912ZM395.65 73V48.52H399.747V58.822H411.341V48.52H415.421V73H411.341V62.664H399.747V73H395.65ZM420.187 73V48.52H435.997V52.362H424.284V58.397H433.957V62.239H424.284V69.158H435.997V73H420.187ZM440.075 73V48.52H450.19C450.428 48.52 450.734 48.5313 451.108 48.554C451.482 48.5653 451.828 48.5993 452.145 48.656C453.562 48.8713 454.729 49.3417 455.647 50.067C456.577 50.7923 457.262 51.7103 457.704 52.821C458.158 53.9203 458.384 55.1443 458.384 56.493C458.384 58.4877 457.88 60.2047 456.871 61.644C455.863 63.072 454.316 63.956 452.23 64.296L450.479 64.449H444.172V73H440.075ZM454.134 73L449.306 63.038L453.471 62.12L458.775 73H454.134ZM444.172 60.624H450.02C450.247 60.624 450.502 60.6127 450.785 60.59C451.069 60.5673 451.329 60.522 451.567 60.454C452.247 60.284 452.78 59.9837 453.165 59.553C453.562 59.1223 453.84 58.635 453.998 58.091C454.168 57.547 454.253 57.0143 454.253 56.493C454.253 55.9717 454.168 55.439 453.998 54.895C453.84 54.3397 453.562 53.8467 453.165 53.416C452.78 52.9853 452.247 52.685 451.567 52.515C451.329 52.447 451.069 52.4073 450.785 52.396C450.502 52.3733 450.247 52.362 450.02 52.362H444.172V60.624ZM466.958 66.353C466.958 65.571 467.031 64.8173 467.179 64.092C467.337 63.3553 467.592 62.6753 467.944 62.052C468.25 61.4513 468.59 60.9753 468.964 60.624C469.338 60.2613 469.757 59.9043 470.222 59.553C470.686 59.1903 471.202 58.7087 471.769 58.108C472.233 57.598 472.539 57.0937 472.687 56.595C472.834 56.085 472.908 55.541 472.908 54.963C472.908 54.589 472.868 54.2377 472.789 53.909C472.709 53.5803 472.568 53.297 472.364 53.059C472.046 52.6397 471.638 52.345 471.14 52.175C470.641 51.9937 470.108 51.903 469.542 51.903C469.077 51.903 468.629 51.9653 468.199 52.09C467.779 52.2033 467.422 52.3847 467.128 52.634C466.788 52.906 466.538 53.2403 466.38 53.637C466.221 54.0337 466.147 54.47 466.159 54.946H461.841C461.954 53.8127 462.26 52.7643 462.759 51.801C463.269 50.8263 463.937 50.05 464.765 49.472C465.411 48.996 466.136 48.639 466.941 48.401C467.757 48.163 468.573 48.044 469.389 48.044C470.635 48.044 471.808 48.2367 472.908 48.622C474.018 49.0073 474.942 49.642 475.679 50.526C476.189 51.104 476.574 51.7727 476.835 52.532C477.107 53.2913 477.243 54.062 477.243 54.844C477.243 56.0113 476.988 57.0767 476.478 58.04C475.979 59.0033 475.344 59.893 474.574 60.709C474.211 61.0943 473.865 61.4343 473.537 61.729C473.208 62.0237 472.902 62.3127 472.619 62.596C472.347 62.868 472.12 63.157 471.939 63.463C471.621 63.9957 471.434 64.449 471.378 64.823C471.321 65.1857 471.293 65.6957 471.293 66.353H466.958ZM466.992 73V68.495H471.293V73H466.992Z" fill="#3E1BC9"></path> <rect y="120" width="600" height="300" rx="20" fill="#3E1BC9"></rect> <path d="M192.039 261V240.84H195.413V257.836H204.317V261H192.039ZM206.969 261V240.84H210.343V261H206.969ZM219.072 261L212.716 240.84H216.188L221.508 257.724L226.898 240.84H230.37L224.014 261H219.072ZM232.474 261V240.84H245.494V244.004H235.848V248.974H243.814V252.138H235.848V257.836H245.494V261H232.474ZM254.738 261V240.84H258.112V261H254.738ZM262.306 261V240.84H265.722L275.074 255.05V240.84H278.49V261H275.074L265.722 246.79V261H262.306ZM286.609 261L292.965 240.84H297.907L304.263 261H300.791L295.023 242.912H295.779L290.081 261H286.609ZM290.151 256.632V253.482H300.735V256.632H290.151ZM316.655 261L310.761 240.84H314.303L318.321 255.4L322.325 240.868L325.867 240.84L329.885 255.4L333.889 240.84H337.431L331.551 261H328.219L324.089 246.664L319.987 261H316.655ZM347.695 261.42C345.679 261.42 343.952 260.981 342.515 260.104C341.078 259.217 339.972 257.985 339.197 256.408C338.432 254.831 338.049 253.001 338.049 250.92C338.049 248.839 338.432 247.009 339.197 245.432C339.972 243.855 341.078 242.627 342.515 241.75C343.952 240.863 345.679 240.42 347.695 240.42C349.711 240.42 351.438 240.863 352.875 241.75C354.322 242.627 355.428 243.855 356.193 245.432C356.968 247.009 357.355 248.839 357.355 250.92C357.355 253.001 356.968 254.831 356.193 256.408C355.428 257.985 354.322 259.217 352.875 260.104C351.438 260.981 349.711 261.42 347.695 261.42ZM347.695 258.242C349.048 258.251 350.173 257.953 351.069 257.346C351.974 256.739 352.651 255.885 353.099 254.784C353.556 253.683 353.785 252.395 353.785 250.92C353.785 249.445 353.556 248.167 353.099 247.084C352.651 245.992 351.974 245.143 351.069 244.536C350.173 243.929 349.048 243.617 347.695 243.598C346.342 243.589 345.217 243.887 344.321 244.494C343.425 245.101 342.748 245.955 342.291 247.056C341.843 248.157 341.619 249.445 341.619 250.92C341.619 252.395 341.843 253.678 342.291 254.77C342.739 255.853 343.411 256.697 344.307 257.304C345.212 257.911 346.342 258.223 347.695 258.242ZM360.142 261V240.84H368.472C368.668 240.84 368.92 240.849 369.228 240.868C369.536 240.877 369.82 240.905 370.082 240.952C371.248 241.129 372.21 241.517 372.966 242.114C373.731 242.711 374.296 243.467 374.66 244.382C375.033 245.287 375.22 246.295 375.22 247.406C375.22 249.049 374.804 250.463 373.974 251.648C373.143 252.824 371.869 253.552 370.152 253.832L368.71 253.958H363.516V261H360.142ZM371.72 261L367.744 252.796L371.174 252.04L375.542 261H371.72ZM363.516 250.808H368.332C368.518 250.808 368.728 250.799 368.962 250.78C369.195 250.761 369.41 250.724 369.606 250.668C370.166 250.528 370.604 250.281 370.922 249.926C371.248 249.571 371.477 249.17 371.608 248.722C371.748 248.274 371.818 247.835 371.818 247.406C371.818 246.977 371.748 246.538 371.608 246.09C371.477 245.633 371.248 245.227 370.922 244.872C370.604 244.517 370.166 244.27 369.606 244.13C369.41 244.074 369.195 244.041 368.962 244.032C368.728 244.013 368.518 244.004 368.332 244.004H363.516V250.808ZM378.906 261V240.84H382.28V257.836H391.184V261H378.906ZM393.556 261V240.84H399.982C400.15 240.84 400.481 240.845 400.976 240.854C401.48 240.863 401.965 240.896 402.432 240.952C404.028 241.157 405.376 241.727 406.478 242.66C407.588 243.584 408.428 244.765 408.998 246.202C409.567 247.639 409.852 249.212 409.852 250.92C409.852 252.628 409.567 254.201 408.998 255.638C408.428 257.075 407.588 258.261 406.478 259.194C405.376 260.118 404.028 260.683 402.432 260.888C401.974 260.944 401.494 260.977 400.99 260.986C400.486 260.995 400.15 261 399.982 261H393.556ZM396.986 257.822H399.982C400.262 257.822 400.616 257.813 401.046 257.794C401.484 257.775 401.872 257.733 402.208 257.668C403.16 257.491 403.934 257.066 404.532 256.394C405.129 255.722 405.568 254.905 405.848 253.944C406.137 252.983 406.282 251.975 406.282 250.92C406.282 249.828 406.137 248.801 405.848 247.84C405.558 246.879 405.11 246.071 404.504 245.418C403.906 244.765 403.141 244.349 402.208 244.172C401.872 244.097 401.484 244.055 401.046 244.046C400.616 244.027 400.262 244.018 399.982 244.018H396.986V257.822ZM145.743 300L139.849 279.84H143.391L147.409 294.4L151.413 279.868L154.955 279.84L158.973 294.4L162.977 279.84H166.519L160.639 300H157.307L153.177 285.664L149.075 300H145.743ZM169.084 300V279.84H172.458V300H169.084ZM181.495 300V283.004H174.971V279.84H191.393V283.004H184.869V300H181.495ZM193.632 300V279.84H197.006V288.324H206.554V279.84H209.914V300H206.554V291.488H197.006V300H193.632ZM222.365 300.42C220.349 300.42 218.622 299.981 217.185 299.104C215.748 298.217 214.642 296.985 213.867 295.408C213.102 293.831 212.719 292.001 212.719 289.92C212.719 287.839 213.102 286.009 213.867 284.432C214.642 282.855 215.748 281.627 217.185 280.75C218.622 279.863 220.349 279.42 222.365 279.42C224.381 279.42 226.108 279.863 227.545 280.75C228.992 281.627 230.098 282.855 230.863 284.432C231.638 286.009 232.025 287.839 232.025 289.92C232.025 292.001 231.638 293.831 230.863 295.408C230.098 296.985 228.992 298.217 227.545 299.104C226.108 299.981 224.381 300.42 222.365 300.42ZM222.365 297.242C223.718 297.251 224.843 296.953 225.739 296.346C226.644 295.739 227.321 294.885 227.769 293.784C228.226 292.683 228.455 291.395 228.455 289.92C228.455 288.445 228.226 287.167 227.769 286.084C227.321 284.992 226.644 284.143 225.739 283.536C224.843 282.929 223.718 282.617 222.365 282.598C221.012 282.589 219.887 282.887 218.991 283.494C218.095 284.101 217.418 284.955 216.961 286.056C216.513 287.157 216.289 288.445 216.289 289.92C216.289 291.395 216.513 292.678 216.961 293.77C217.409 294.853 218.081 295.697 218.977 296.304C219.882 296.911 221.012 297.223 222.365 297.242ZM242.932 300.42C241.326 300.42 239.912 300.093 238.69 299.44C237.476 298.787 236.524 297.867 235.834 296.682C235.152 295.497 234.812 294.106 234.812 292.51V279.868L238.228 279.84V292.426C238.228 293.182 238.354 293.859 238.606 294.456C238.867 295.053 239.217 295.562 239.656 295.982C240.094 296.393 240.598 296.705 241.168 296.92C241.737 297.135 242.325 297.242 242.932 297.242C243.557 297.242 244.15 297.135 244.71 296.92C245.279 296.696 245.783 296.379 246.222 295.968C246.66 295.548 247.006 295.039 247.258 294.442C247.51 293.845 247.636 293.173 247.636 292.426V279.84H251.052V292.51C251.052 294.106 250.706 295.497 250.016 296.682C249.334 297.867 248.382 298.787 247.16 299.44C245.946 300.093 244.537 300.42 242.932 300.42ZM259.808 300V283.004H253.284V279.84H269.706V283.004H263.182V300H259.808ZM281.546 300V283.004H275.022V279.84H291.444V283.004H284.92V300H281.546ZM293.683 300V279.84H306.703V283.004H297.057V287.974H305.023V291.138H297.057V296.836H306.703V300H293.683ZM317.877 300.42C315.861 300.42 314.134 299.981 312.697 299.104C311.259 298.217 310.153 296.985 309.379 295.408C308.613 293.831 308.231 292.001 308.231 289.92C308.231 287.839 308.613 286.009 309.379 284.432C310.153 282.855 311.259 281.627 312.697 280.75C314.134 279.863 315.861 279.42 317.877 279.42C320.201 279.42 322.137 280.003 323.687 281.17C325.236 282.327 326.323 283.891 326.949 285.86L323.547 286.798C323.155 285.482 322.487 284.455 321.545 283.718C320.602 282.971 319.379 282.598 317.877 282.598C316.523 282.598 315.394 282.901 314.489 283.508C313.593 284.115 312.916 284.969 312.459 286.07C312.011 287.162 311.782 288.445 311.773 289.92C311.773 291.395 311.997 292.683 312.445 293.784C312.902 294.876 313.583 295.725 314.489 296.332C315.394 296.939 316.523 297.242 317.877 297.242C319.379 297.242 320.602 296.869 321.545 296.122C322.487 295.375 323.155 294.349 323.547 293.042L326.949 293.98C326.323 295.949 325.236 297.517 323.687 298.684C322.137 299.841 320.201 300.42 317.877 300.42ZM330.023 300V279.84H333.397V288.324H342.945V279.84H346.305V300H342.945V291.488H333.397V300H330.023ZM350.23 300V279.84H353.646L362.998 294.05V279.84H366.414V300H362.998L353.646 285.79V300H350.23ZM378.853 300.42C376.837 300.42 375.111 299.981 373.673 299.104C372.236 298.217 371.13 296.985 370.355 295.408C369.59 293.831 369.207 292.001 369.207 289.92C369.207 287.839 369.59 286.009 370.355 284.432C371.13 282.855 372.236 281.627 373.673 280.75C375.111 279.863 376.837 279.42 378.853 279.42C380.869 279.42 382.596 279.863 384.033 280.75C385.48 281.627 386.586 282.855 387.351 284.432C388.126 286.009 388.513 287.839 388.513 289.92C388.513 292.001 388.126 293.831 387.351 295.408C386.586 296.985 385.48 298.217 384.033 299.104C382.596 299.981 380.869 300.42 378.853 300.42ZM378.853 297.242C380.207 297.251 381.331 296.953 382.227 296.346C383.133 295.739 383.809 294.885 384.257 293.784C384.715 292.683 384.943 291.395 384.943 289.92C384.943 288.445 384.715 287.167 384.257 286.084C383.809 284.992 383.133 284.143 382.227 283.536C381.331 282.929 380.207 282.617 378.853 282.598C377.5 282.589 376.375 282.887 375.479 283.494C374.583 284.101 373.907 284.955 373.449 286.056C373.001 287.157 372.777 288.445 372.777 289.92C372.777 291.395 373.001 292.678 373.449 293.77C373.897 294.853 374.569 295.697 375.465 296.304C376.371 296.911 377.5 297.223 378.853 297.242ZM391.58 300V279.84H394.954V296.836H403.858V300H391.58ZM414.209 300.42C412.193 300.42 410.466 299.981 409.029 299.104C407.591 298.217 406.485 296.985 405.711 295.408C404.945 293.831 404.563 292.001 404.563 289.92C404.563 287.839 404.945 286.009 405.711 284.432C406.485 282.855 407.591 281.627 409.029 280.75C410.466 279.863 412.193 279.42 414.209 279.42C416.225 279.42 417.951 279.863 419.389 280.75C420.835 281.627 421.941 282.855 422.707 284.432C423.481 286.009 423.869 287.839 423.869 289.92C423.869 292.001 423.481 293.831 422.707 295.408C421.941 296.985 420.835 298.217 419.389 299.104C417.951 299.981 416.225 300.42 414.209 300.42ZM414.209 297.242C415.562 297.251 416.687 296.953 417.583 296.346C418.488 295.739 419.165 294.885 419.613 293.784C420.07 292.683 420.299 291.395 420.299 289.92C420.299 288.445 420.07 287.167 419.613 286.084C419.165 284.992 418.488 284.143 417.583 283.536C416.687 282.929 415.562 282.617 414.209 282.598C412.855 282.589 411.731 282.887 410.835 283.494C409.939 284.101 409.262 284.955 408.805 286.056C408.357 287.157 408.133 288.445 408.133 289.92C408.133 291.395 408.357 292.678 408.805 293.77C409.253 294.853 409.925 295.697 410.821 296.304C411.726 296.911 412.855 297.223 414.209 297.242ZM434.971 300.42C433.665 300.42 432.437 300.191 431.289 299.734C430.151 299.267 429.147 298.586 428.279 297.69C427.421 296.794 426.749 295.697 426.263 294.4C425.778 293.093 425.535 291.6 425.535 289.92C425.535 287.717 425.946 285.837 426.767 284.278C427.589 282.71 428.713 281.511 430.141 280.68C431.569 279.84 433.179 279.42 434.971 279.42C437.454 279.42 439.419 279.999 440.865 281.156C442.321 282.304 443.306 283.919 443.819 286L440.375 286.546C439.993 285.351 439.367 284.399 438.499 283.69C437.631 282.971 436.525 282.612 435.181 282.612C433.828 282.593 432.703 282.887 431.807 283.494C430.911 284.101 430.235 284.955 429.777 286.056C429.329 287.157 429.105 288.445 429.105 289.92C429.105 291.395 429.329 292.678 429.777 293.77C430.225 294.853 430.897 295.697 431.793 296.304C432.699 296.911 433.828 297.223 435.181 297.242C436.199 297.251 437.09 297.069 437.855 296.696C438.621 296.313 439.246 295.739 439.731 294.974C440.217 294.199 440.543 293.233 440.711 292.076H437.155V289.43H444.295C444.314 289.579 444.328 289.799 444.337 290.088C444.347 290.377 444.351 290.55 444.351 290.606C444.351 292.51 443.973 294.204 443.217 295.688C442.471 297.163 441.397 298.32 439.997 299.16C438.597 300 436.922 300.42 434.971 300.42ZM451.215 300V291.74L444.355 279.84H448.289L452.923 287.876L457.543 279.84H461.477L454.631 291.74V300H451.215Z" fill="white"></path> <rect y="475" width="600" height="300" rx="20" fill="#90C81D"></rect> <path d="M112.968 636L119.324 615.84H124.266L130.622 636H127.15L121.382 617.912H122.138L116.44 636H112.968ZM116.51 631.632V628.482H127.094V631.632H116.51ZM143.015 636L137.121 615.84H140.663L144.681 630.4L148.685 615.868L152.227 615.84L156.245 630.4L160.249 615.84H163.791L157.911 636H154.579L150.449 621.664L146.347 636H143.015ZM174.054 636.42C172.038 636.42 170.312 635.981 168.874 635.104C167.437 634.217 166.331 632.985 165.556 631.408C164.791 629.831 164.408 628.001 164.408 625.92C164.408 623.839 164.791 622.009 165.556 620.432C166.331 618.855 167.437 617.627 168.874 616.75C170.312 615.863 172.038 615.42 174.054 615.42C176.07 615.42 177.797 615.863 179.234 616.75C180.681 617.627 181.787 618.855 182.552 620.432C183.327 622.009 183.714 623.839 183.714 625.92C183.714 628.001 183.327 629.831 182.552 631.408C181.787 632.985 180.681 634.217 179.234 635.104C177.797 635.981 176.07 636.42 174.054 636.42ZM174.054 633.242C175.408 633.251 176.532 632.953 177.428 632.346C178.334 631.739 179.01 630.885 179.458 629.784C179.916 628.683 180.144 627.395 180.144 625.92C180.144 624.445 179.916 623.167 179.458 622.084C179.01 620.992 178.334 620.143 177.428 619.536C176.532 618.929 175.408 618.617 174.054 618.598C172.701 618.589 171.576 618.887 170.68 619.494C169.784 620.101 169.108 620.955 168.65 622.056C168.202 623.157 167.978 624.445 167.978 625.92C167.978 627.395 168.202 628.678 168.65 629.77C169.098 630.853 169.77 631.697 170.666 632.304C171.572 632.911 172.701 633.223 174.054 633.242ZM186.501 636V615.84H194.831C195.027 615.84 195.279 615.849 195.587 615.868C195.895 615.877 196.18 615.905 196.441 615.952C197.608 616.129 198.569 616.517 199.325 617.114C200.09 617.711 200.655 618.467 201.019 619.382C201.392 620.287 201.579 621.295 201.579 622.406C201.579 624.049 201.164 625.463 200.333 626.648C199.502 627.824 198.228 628.552 196.511 628.832L195.069 628.958H189.875V636H186.501ZM198.079 636L194.103 627.796L197.533 627.04L201.901 636H198.079ZM189.875 625.808H194.691C194.878 625.808 195.088 625.799 195.321 625.78C195.554 625.761 195.769 625.724 195.965 625.668C196.525 625.528 196.964 625.281 197.281 624.926C197.608 624.571 197.836 624.17 197.967 623.722C198.107 623.274 198.177 622.835 198.177 622.406C198.177 621.977 198.107 621.538 197.967 621.09C197.836 620.633 197.608 620.227 197.281 619.872C196.964 619.517 196.525 619.27 195.965 619.13C195.769 619.074 195.554 619.041 195.321 619.032C195.088 619.013 194.878 619.004 194.691 619.004H189.875V625.808ZM205.265 636V615.84H208.639V632.836H217.543V636H205.265ZM219.915 636V615.84H226.341C226.509 615.84 226.84 615.845 227.335 615.854C227.839 615.863 228.324 615.896 228.791 615.952C230.387 616.157 231.736 616.727 232.837 617.66C233.948 618.584 234.788 619.765 235.357 621.202C235.926 622.639 236.211 624.212 236.211 625.92C236.211 627.628 235.926 629.201 235.357 630.638C234.788 632.075 233.948 633.261 232.837 634.194C231.736 635.118 230.387 635.683 228.791 635.888C228.334 635.944 227.853 635.977 227.349 635.986C226.845 635.995 226.509 636 226.341 636H219.915ZM223.345 632.822H226.341C226.621 632.822 226.976 632.813 227.405 632.794C227.844 632.775 228.231 632.733 228.567 632.668C229.519 632.491 230.294 632.066 230.891 631.394C231.488 630.722 231.927 629.905 232.207 628.944C232.496 627.983 232.641 626.975 232.641 625.92C232.641 624.828 232.496 623.801 232.207 622.84C231.918 621.879 231.47 621.071 230.863 620.418C230.266 619.765 229.5 619.349 228.567 619.172C228.231 619.097 227.844 619.055 227.405 619.046C226.976 619.027 226.621 619.018 226.341 619.018H223.345V632.822ZM249.382 636L243.488 615.84H247.03L251.048 630.4L255.052 615.868L258.594 615.84L262.612 630.4L266.616 615.84H270.158L264.278 636H260.946L256.816 621.664L252.714 636H249.382ZM272.722 636V615.84H276.096V636H272.722ZM285.134 636V619.004H278.61V615.84H295.032V619.004H288.508V636H285.134ZM297.271 636V615.84H300.645V624.324H310.193V615.84H313.553V636H310.193V627.488H300.645V636H297.271ZM326.004 636.42C323.988 636.42 322.261 635.981 320.824 635.104C319.386 634.217 318.28 632.985 317.506 631.408C316.74 629.831 316.358 628.001 316.358 625.92C316.358 623.839 316.74 622.009 317.506 620.432C318.28 618.855 319.386 617.627 320.824 616.75C322.261 615.863 323.988 615.42 326.004 615.42C328.02 615.42 329.746 615.863 331.184 616.75C332.63 617.627 333.736 618.855 334.502 620.432C335.276 622.009 335.664 623.839 335.664 625.92C335.664 628.001 335.276 629.831 334.502 631.408C333.736 632.985 332.63 634.217 331.184 635.104C329.746 635.981 328.02 636.42 326.004 636.42ZM326.004 633.242C327.357 633.251 328.482 632.953 329.378 632.346C330.283 631.739 330.96 630.885 331.408 629.784C331.865 628.683 332.094 627.395 332.094 625.92C332.094 624.445 331.865 623.167 331.408 622.084C330.96 620.992 330.283 620.143 329.378 619.536C328.482 618.929 327.357 618.617 326.004 618.598C324.65 618.589 323.526 618.887 322.63 619.494C321.734 620.101 321.057 620.955 320.6 622.056C320.152 623.157 319.928 624.445 319.928 625.92C319.928 627.395 320.152 628.678 320.6 629.77C321.048 630.853 321.72 631.697 322.616 632.304C323.521 632.911 324.65 633.223 326.004 633.242ZM346.57 636.42C344.965 636.42 343.551 636.093 342.328 635.44C341.115 634.787 340.163 633.867 339.472 632.682C338.791 631.497 338.45 630.106 338.45 628.51V615.868L341.866 615.84V628.426C341.866 629.182 341.992 629.859 342.244 630.456C342.506 631.053 342.856 631.562 343.294 631.982C343.733 632.393 344.237 632.705 344.806 632.92C345.376 633.135 345.964 633.242 346.57 633.242C347.196 633.242 347.788 633.135 348.348 632.92C348.918 632.696 349.422 632.379 349.86 631.968C350.299 631.548 350.644 631.039 350.896 630.442C351.148 629.845 351.274 629.173 351.274 628.426V615.84H354.69V628.51C354.69 630.106 354.345 631.497 353.654 632.682C352.973 633.867 352.021 634.787 350.798 635.44C349.585 636.093 348.176 636.42 346.57 636.42ZM363.447 636V619.004H356.923V615.84H373.345V619.004H366.821V636H363.447ZM380.341 636V615.84H383.757L393.109 630.05V615.84H396.525V636H393.109L383.757 621.79V636H380.341ZM399.039 636L405.395 615.84H410.337L416.693 636H413.221L407.453 617.912H408.209L402.511 636H399.039ZM402.581 631.632V628.482H413.165V631.632H402.581ZM422.4 636V619.004H415.876V615.84H432.298V619.004H425.774V636H422.4ZM442.656 636.42C441.051 636.42 439.637 636.093 438.414 635.44C437.201 634.787 436.249 633.867 435.558 632.682C434.877 631.497 434.536 630.106 434.536 628.51V615.868L437.952 615.84V628.426C437.952 629.182 438.078 629.859 438.33 630.456C438.592 631.053 438.942 631.562 439.38 631.982C439.819 632.393 440.323 632.705 440.892 632.92C441.462 633.135 442.05 633.242 442.656 633.242C443.282 633.242 443.874 633.135 444.434 632.92C445.004 632.696 445.508 632.379 445.946 631.968C446.385 631.548 446.73 631.039 446.982 630.442C447.234 629.845 447.36 629.173 447.36 628.426V615.84H450.776V628.51C450.776 630.106 450.431 631.497 449.74 632.682C449.059 633.867 448.107 634.787 446.884 635.44C445.671 636.093 444.262 636.42 442.656 636.42ZM454.689 636V615.84H463.019C463.215 615.84 463.467 615.849 463.775 615.868C464.083 615.877 464.367 615.905 464.629 615.952C465.795 616.129 466.757 616.517 467.513 617.114C468.278 617.711 468.843 618.467 469.207 619.382C469.58 620.287 469.767 621.295 469.767 622.406C469.767 624.049 469.351 625.463 468.521 626.648C467.69 627.824 466.416 628.552 464.699 628.832L463.257 628.958H458.063V636H454.689ZM466.267 636L462.291 627.796L465.721 627.04L470.089 636H466.267ZM458.063 625.808H462.879C463.065 625.808 463.275 625.799 463.509 625.78C463.742 625.761 463.957 625.724 464.153 625.668C464.713 625.528 465.151 625.281 465.469 624.926C465.795 624.571 466.024 624.17 466.155 623.722C466.295 623.274 466.365 622.835 466.365 622.406C466.365 621.977 466.295 621.538 466.155 621.09C466.024 620.633 465.795 620.227 465.469 619.872C465.151 619.517 464.713 619.27 464.153 619.13C463.957 619.074 463.742 619.041 463.509 619.032C463.275 619.013 463.065 619.004 462.879 619.004H458.063V625.808ZM473.173 636V615.84H486.193V619.004H476.547V623.974H484.513V627.138H476.547V632.836H486.193V636H473.173Z" fill="white"></path> <circle cx="300" cy="448" r="60" fill="#F9F9F9"></circle> <path d="M288.777 461.51C286.329 461.51 284.232 460.977 282.487 459.912C280.742 458.835 279.399 457.339 278.458 455.424C277.529 453.509 277.064 451.287 277.064 448.76C277.064 446.233 277.529 444.011 278.458 442.096C279.399 440.181 280.742 438.69 282.487 437.625C284.232 436.548 286.329 436.01 288.777 436.01C291.225 436.01 293.322 436.548 295.067 437.625C296.824 438.69 298.167 440.181 299.096 442.096C300.037 444.011 300.507 446.233 300.507 448.76C300.507 451.287 300.037 453.509 299.096 455.424C298.167 457.339 296.824 458.835 295.067 459.912C293.322 460.977 291.225 461.51 288.777 461.51ZM288.777 457.651C290.42 457.662 291.786 457.3 292.874 456.563C293.973 455.826 294.795 454.789 295.339 453.452C295.894 452.115 296.172 450.551 296.172 448.76C296.172 446.969 295.894 445.417 295.339 444.102C294.795 442.776 293.973 441.745 292.874 441.008C291.786 440.271 290.42 439.892 288.777 439.869C287.134 439.858 285.768 440.22 284.68 440.957C283.592 441.694 282.77 442.731 282.215 444.068C281.671 445.405 281.399 446.969 281.399 448.76C281.399 450.551 281.671 452.109 282.215 453.435C282.759 454.75 283.575 455.775 284.663 456.512C285.762 457.249 287.134 457.628 288.777 457.651ZM303.891 461V436.52H314.006C314.244 436.52 314.55 436.531 314.924 436.554C315.298 436.565 315.643 436.599 315.961 436.656C317.377 436.871 318.545 437.342 319.463 438.067C320.392 438.792 321.078 439.71 321.52 440.821C321.973 441.92 322.2 443.144 322.2 444.493C322.2 446.488 321.695 448.205 320.687 449.644C319.678 451.072 318.131 451.956 316.046 452.296L314.295 452.449H307.988V461H303.891ZM317.95 461L313.122 451.038L317.287 450.12L322.591 461H317.95ZM307.988 448.624H313.836C314.062 448.624 314.317 448.613 314.601 448.59C314.884 448.567 315.145 448.522 315.383 448.454C316.063 448.284 316.595 447.984 316.981 447.553C317.377 447.122 317.655 446.635 317.814 446.091C317.984 445.547 318.069 445.014 318.069 444.493C318.069 443.972 317.984 443.439 317.814 442.895C317.655 442.34 317.377 441.847 316.981 441.416C316.595 440.985 316.063 440.685 315.383 440.515C315.145 440.447 314.884 440.407 314.601 440.396C314.317 440.373 314.062 440.362 313.836 440.362H307.988V448.624Z" fill="#3E1BC9"></path> </svg> 