<?xml version="1.0" encoding="UTF-8"?> <svg xmlns="http://www.w3.org/2000/svg" width="600" height="775" viewBox="0 0 600 775" fill="none"> <rect width="600" height="775" rx="20" fill="#F9F9F9"></rect> <path d="M129.614 73L122.457 48.52H126.758L131.637 66.2L136.499 48.554L140.8 48.52L145.679 66.2L150.541 48.52H154.842L147.702 73H143.656L138.641 55.592L133.66 73H129.614ZM167.305 73.51C164.857 73.51 162.761 72.9773 161.015 71.912C159.27 70.8353 157.927 69.3393 156.986 67.424C156.057 65.5087 155.592 63.2873 155.592 60.76C155.592 58.2327 156.057 56.0113 156.986 54.096C157.927 52.1807 159.27 50.6903 161.015 49.625C162.761 48.5483 164.857 48.01 167.305 48.01C169.753 48.01 171.85 48.5483 173.595 49.625C175.352 50.6903 176.695 52.1807 177.624 54.096C178.565 56.0113 179.035 58.2327 179.035 60.76C179.035 63.2873 178.565 65.5087 177.624 67.424C176.695 69.3393 175.352 70.8353 173.595 71.912C171.85 72.9773 169.753 73.51 167.305 73.51ZM167.305 69.651C168.949 69.6623 170.314 69.2997 171.402 68.563C172.502 67.8263 173.323 66.7893 173.867 65.452C174.423 64.1147 174.7 62.5507 174.7 60.76C174.7 58.9693 174.423 57.4167 173.867 56.102C173.323 54.776 172.502 53.7447 171.402 53.008C170.314 52.2713 168.949 51.8917 167.305 51.869C165.662 51.8577 164.296 52.2203 163.208 52.957C162.12 53.6937 161.299 54.7307 160.743 56.068C160.199 57.4053 159.927 58.9693 159.927 60.76C159.927 62.5507 160.199 64.109 160.743 65.435C161.287 66.7497 162.103 67.7753 163.191 68.512C164.291 69.2487 165.662 69.6283 167.305 69.651ZM192.279 73.51C190.33 73.51 188.613 73.1133 187.128 72.32C185.655 71.5267 184.499 70.4103 183.66 68.971C182.833 67.5317 182.419 65.843 182.419 63.905V48.554L186.567 48.52V63.803C186.567 64.721 186.72 65.5427 187.026 66.268C187.343 66.9933 187.768 67.611 188.301 68.121C188.834 68.6197 189.446 68.9993 190.137 69.26C190.828 69.5207 191.542 69.651 192.279 69.651C193.038 69.651 193.758 69.5207 194.438 69.26C195.129 68.988 195.741 68.6027 196.274 68.104C196.807 67.594 197.226 66.9763 197.532 66.251C197.838 65.5257 197.991 64.7097 197.991 63.803V48.52H202.139V63.905C202.139 65.843 201.72 67.5317 200.881 68.971C200.054 70.4103 198.898 71.5267 197.413 72.32C195.94 73.1133 194.228 73.51 192.279 73.51ZM207.23 73V48.52H211.327V69.158H222.139V73H207.23ZM225.019 73V48.52H232.822C233.026 48.52 233.428 48.5257 234.029 48.537C234.641 48.5483 235.23 48.588 235.797 48.656C237.735 48.9053 239.372 49.5967 240.71 50.73C242.058 51.852 243.078 53.2857 243.77 55.031C244.461 56.7763 244.807 58.686 244.807 60.76C244.807 62.834 244.461 64.7437 243.77 66.489C243.078 68.2343 242.058 69.6737 240.71 70.807C239.372 71.929 237.735 72.6147 235.797 72.864C235.241 72.932 234.658 72.9717 234.046 72.983C233.434 72.9943 233.026 73 232.822 73H225.019ZM229.184 69.141H232.822C233.162 69.141 233.592 69.1297 234.114 69.107C234.646 69.0843 235.117 69.0333 235.525 68.954C236.681 68.7387 237.621 68.223 238.347 67.407C239.072 66.591 239.605 65.5993 239.945 64.432C240.296 63.2647 240.472 62.0407 240.472 60.76C240.472 59.434 240.296 58.1873 239.945 57.02C239.593 55.8527 239.049 54.8723 238.313 54.079C237.587 53.2857 236.658 52.7813 235.525 52.566C235.117 52.4753 234.646 52.4243 234.114 52.413C233.592 52.3903 233.162 52.379 232.822 52.379H229.184V69.141ZM261.582 73V62.97L253.252 48.52H258.029L263.656 58.278L269.266 48.52H274.043L265.73 62.97V73H261.582ZM285.409 73.51C282.961 73.51 280.864 72.9773 279.119 71.912C277.373 70.8353 276.03 69.3393 275.09 67.424C274.16 65.5087 273.696 63.2873 273.696 60.76C273.696 58.2327 274.16 56.0113 275.09 54.096C276.03 52.1807 277.373 50.6903 279.119 49.625C280.864 48.5483 282.961 48.01 285.409 48.01C287.857 48.01 289.953 48.5483 291.699 49.625C293.455 50.6903 294.798 52.1807 295.728 54.096C296.668 56.0113 297.139 58.2327 297.139 60.76C297.139 63.2873 296.668 65.5087 295.728 67.424C294.798 69.3393 293.455 70.8353 291.699 71.912C289.953 72.9773 287.857 73.51 285.409 73.51ZM285.409 69.651C287.052 69.6623 288.418 69.2997 289.506 68.563C290.605 67.8263 291.427 66.7893 291.971 65.452C292.526 64.1147 292.804 62.5507 292.804 60.76C292.804 58.9693 292.526 57.4167 291.971 56.102C291.427 54.776 290.605 53.7447 289.506 53.008C288.418 52.2713 287.052 51.8917 285.409 51.869C283.765 51.8577 282.4 52.2203 281.312 52.957C280.224 53.6937 279.402 54.7307 278.847 56.068C278.303 57.4053 278.031 58.9693 278.031 60.76C278.031 62.5507 278.303 64.109 278.847 65.435C279.391 66.7497 280.207 67.7753 281.295 68.512C282.394 69.2487 283.765 69.6283 285.409 69.651ZM310.383 73.51C308.433 73.51 306.716 73.1133 305.232 72.32C303.758 71.5267 302.602 70.4103 301.764 68.971C300.936 67.5317 300.523 65.843 300.523 63.905V48.554L304.671 48.52V63.803C304.671 64.721 304.824 65.5427 305.13 66.268C305.447 66.9933 305.872 67.611 306.405 68.121C306.937 68.6197 307.549 68.9993 308.241 69.26C308.932 69.5207 309.646 69.651 310.383 69.651C311.142 69.651 311.862 69.5207 312.542 69.26C313.233 68.988 313.845 68.6027 314.378 68.104C314.91 67.594 315.33 66.9763 315.636 66.251C315.942 65.5257 316.095 64.7097 316.095 63.803V48.52H320.243V63.905C320.243 65.843 319.823 67.5317 318.985 68.971C318.157 70.4103 317.001 71.5267 315.517 72.32C314.043 73.1133 312.332 73.51 310.383 73.51ZM331.8 73V48.52H341.915C342.153 48.52 342.459 48.5313 342.833 48.554C343.207 48.5653 343.553 48.5993 343.87 48.656C345.287 48.8713 346.454 49.3417 347.372 50.067C348.301 50.7923 348.987 51.7103 349.429 52.821C349.882 53.9203 350.109 55.1443 350.109 56.493C350.109 58.4877 349.605 60.2047 348.596 61.644C347.587 63.072 346.04 63.956 343.955 64.296L342.204 64.449H335.897V73H331.8ZM345.859 73L341.031 63.038L345.196 62.12L350.5 73H345.859ZM335.897 60.624H341.745C341.972 60.624 342.227 60.6127 342.51 60.59C342.793 60.5673 343.054 60.522 343.292 60.454C343.972 60.284 344.505 59.9837 344.89 59.553C345.287 59.1223 345.564 58.635 345.723 58.091C345.893 57.547 345.978 57.0143 345.978 56.493C345.978 55.9717 345.893 55.439 345.723 54.895C345.564 54.3397 345.287 53.8467 344.89 53.416C344.505 52.9853 343.972 52.685 343.292 52.515C343.054 52.447 342.793 52.4073 342.51 52.396C342.227 52.3733 341.972 52.362 341.745 52.362H335.897V60.624ZM352.545 73L360.263 48.52H366.264L373.982 73H369.766L362.762 51.036H363.68L356.761 73H352.545ZM356.846 67.696V63.871H369.698V67.696H356.846ZM380.912 73V52.362H372.99V48.52H392.931V52.362H385.009V73H380.912ZM395.65 73V48.52H399.747V58.822H411.341V48.52H415.421V73H411.341V62.664H399.747V73H395.65ZM420.187 73V48.52H435.997V52.362H424.284V58.397H433.957V62.239H424.284V69.158H435.997V73H420.187ZM440.075 73V48.52H450.19C450.428 48.52 450.734 48.5313 451.108 48.554C451.482 48.5653 451.828 48.5993 452.145 48.656C453.562 48.8713 454.729 49.3417 455.647 50.067C456.577 50.7923 457.262 51.7103 457.704 52.821C458.158 53.9203 458.384 55.1443 458.384 56.493C458.384 58.4877 457.88 60.2047 456.871 61.644C455.863 63.072 454.316 63.956 452.23 64.296L450.479 64.449H444.172V73H440.075ZM454.134 73L449.306 63.038L453.471 62.12L458.775 73H454.134ZM444.172 60.624H450.02C450.247 60.624 450.502 60.6127 450.785 60.59C451.069 60.5673 451.329 60.522 451.567 60.454C452.247 60.284 452.78 59.9837 453.165 59.553C453.562 59.1223 453.84 58.635 453.998 58.091C454.168 57.547 454.253 57.0143 454.253 56.493C454.253 55.9717 454.168 55.439 453.998 54.895C453.84 54.3397 453.562 53.8467 453.165 53.416C452.78 52.9853 452.247 52.685 451.567 52.515C451.329 52.447 451.069 52.4073 450.785 52.396C450.502 52.3733 450.247 52.362 450.02 52.362H444.172V60.624ZM466.958 66.353C466.958 65.571 467.031 64.8173 467.179 64.092C467.337 63.3553 467.592 62.6753 467.944 62.052C468.25 61.4513 468.59 60.9753 468.964 60.624C469.338 60.2613 469.757 59.9043 470.222 59.553C470.686 59.1903 471.202 58.7087 471.769 58.108C472.233 57.598 472.539 57.0937 472.687 56.595C472.834 56.085 472.908 55.541 472.908 54.963C472.908 54.589 472.868 54.2377 472.789 53.909C472.709 53.5803 472.568 53.297 472.364 53.059C472.046 52.6397 471.638 52.345 471.14 52.175C470.641 51.9937 470.108 51.903 469.542 51.903C469.077 51.903 468.629 51.9653 468.199 52.09C467.779 52.2033 467.422 52.3847 467.128 52.634C466.788 52.906 466.538 53.2403 466.38 53.637C466.221 54.0337 466.147 54.47 466.159 54.946H461.841C461.954 53.8127 462.26 52.7643 462.759 51.801C463.269 50.8263 463.937 50.05 464.765 49.472C465.411 48.996 466.136 48.639 466.941 48.401C467.757 48.163 468.573 48.044 469.389 48.044C470.635 48.044 471.808 48.2367 472.908 48.622C474.018 49.0073 474.942 49.642 475.679 50.526C476.189 51.104 476.574 51.7727 476.835 52.532C477.107 53.2913 477.243 54.062 477.243 54.844C477.243 56.0113 476.988 57.0767 476.478 58.04C475.979 59.0033 475.344 59.893 474.574 60.709C474.211 61.0943 473.865 61.4343 473.537 61.729C473.208 62.0237 472.902 62.3127 472.619 62.596C472.347 62.868 472.12 63.157 471.939 63.463C471.621 63.9957 471.434 64.449 471.378 64.823C471.321 65.1857 471.293 65.6957 471.293 66.353H466.958ZM466.992 73V68.495H471.293V73H466.992Z" fill="#3E1BC9"></path> <rect y="120" width="600" height="300" rx="20" fill="#3E1BC9"></rect> <path d="M127.992 261V240.84H131.366V257.836H140.27V261H127.992ZM142.922 261V240.84H146.296V261H142.922ZM155.025 261L148.669 240.84H152.141L157.461 257.724L162.851 240.84H166.323L159.967 261H155.025ZM168.427 261V240.84H181.447V244.004H171.801V248.974H179.767V252.138H171.801V257.836H181.447V261H168.427ZM190.691 261V240.84H194.065V261H190.691ZM198.259 261V240.84H201.675L211.027 255.05V240.84H214.443V261H211.027L201.675 246.79V261H198.259ZM222.562 261L228.918 240.84H233.86L240.216 261H236.744L230.976 242.912H231.732L226.034 261H222.562ZM226.104 256.632V253.482H236.688V256.632H226.104ZM248.353 261V240.84H260.491V244.214H251.727V249.24H258.811V252.6H251.727V261H248.353ZM261.335 261L267.691 240.84H272.633L278.989 261H275.517L269.749 242.912H270.505L264.807 261H261.335ZM264.877 256.632V253.482H275.461V256.632H264.877ZM281.521 261V240.84H284.937L294.289 255.05V240.84H297.705V261H294.289L284.937 246.79V261H281.521ZM306.462 261V244.004H299.938V240.84H316.36V244.004H309.836V261H306.462ZM316.652 261L323.008 240.84H327.95L334.306 261H330.834L325.066 242.912H325.822L320.124 261H316.652ZM320.194 256.632V253.482H330.778V256.632H320.194ZM343.752 261.42C342.277 261.42 340.947 261.163 339.762 260.65C338.586 260.137 337.615 259.404 336.85 258.452C336.094 257.491 335.613 256.352 335.408 255.036L338.908 254.504C339.207 255.699 339.818 256.623 340.742 257.276C341.675 257.929 342.749 258.256 343.962 258.256C344.681 258.256 345.357 258.144 345.992 257.92C346.627 257.696 347.14 257.369 347.532 256.94C347.933 256.511 348.134 255.983 348.134 255.358C348.134 255.078 348.087 254.821 347.994 254.588C347.901 254.345 347.761 254.131 347.574 253.944C347.397 253.757 347.163 253.589 346.874 253.44C346.594 253.281 346.267 253.146 345.894 253.034L340.686 251.494C340.238 251.363 339.753 251.191 339.23 250.976C338.717 250.752 338.227 250.449 337.76 250.066C337.303 249.674 336.925 249.179 336.626 248.582C336.337 247.975 336.192 247.229 336.192 246.342C336.192 245.045 336.519 243.957 337.172 243.08C337.835 242.193 338.721 241.531 339.832 241.092C340.952 240.653 342.193 240.439 343.556 240.448C344.937 240.457 346.169 240.695 347.252 241.162C348.335 241.619 349.24 242.287 349.968 243.164C350.696 244.041 351.209 245.101 351.508 246.342L347.882 246.972C347.733 246.263 347.443 245.661 347.014 245.166C346.594 244.662 346.076 244.279 345.46 244.018C344.853 243.757 344.205 243.617 343.514 243.598C342.842 243.589 342.217 243.691 341.638 243.906C341.069 244.111 340.607 244.41 340.252 244.802C339.907 245.194 339.734 245.651 339.734 246.174C339.734 246.669 339.883 247.075 340.182 247.392C340.481 247.7 340.849 247.947 341.288 248.134C341.736 248.311 342.189 248.461 342.646 248.582L346.258 249.59C346.753 249.721 347.308 249.898 347.924 250.122C348.54 250.346 349.133 250.659 349.702 251.06C350.271 251.461 350.738 251.989 351.102 252.642C351.475 253.295 351.662 254.126 351.662 255.134C351.662 256.179 351.443 257.099 351.004 257.892C350.575 258.676 349.991 259.329 349.254 259.852C348.517 260.375 347.672 260.767 346.72 261.028C345.777 261.289 344.788 261.42 343.752 261.42ZM358.745 261V252.74L351.885 240.84H355.819L360.453 248.876L365.073 240.84H369.007L362.161 252.74V261H358.745ZM379.702 261L373.808 240.84H377.35L381.368 255.4L385.372 240.868L388.914 240.84L392.932 255.4L396.936 240.84H400.478L394.598 261H391.266L387.136 246.664L383.034 261H379.702ZM410.742 261.42C408.726 261.42 406.999 260.981 405.562 260.104C404.125 259.217 403.019 257.985 402.244 256.408C401.479 254.831 401.096 253.001 401.096 250.92C401.096 248.839 401.479 247.009 402.244 245.432C403.019 243.855 404.125 242.627 405.562 241.75C406.999 240.863 408.726 240.42 410.742 240.42C412.758 240.42 414.485 240.863 415.922 241.75C417.369 242.627 418.475 243.855 419.24 245.432C420.015 247.009 420.402 248.839 420.402 250.92C420.402 253.001 420.015 254.831 419.24 256.408C418.475 257.985 417.369 259.217 415.922 260.104C414.485 260.981 412.758 261.42 410.742 261.42ZM410.742 258.242C412.095 258.251 413.22 257.953 414.116 257.346C415.021 256.739 415.698 255.885 416.146 254.784C416.603 253.683 416.832 252.395 416.832 250.92C416.832 249.445 416.603 248.167 416.146 247.084C415.698 245.992 415.021 245.143 414.116 244.536C413.22 243.929 412.095 243.617 410.742 243.598C409.389 243.589 408.264 243.887 407.368 244.494C406.472 245.101 405.795 245.955 405.338 247.056C404.89 248.157 404.666 249.445 404.666 250.92C404.666 252.395 404.89 253.678 405.338 254.77C405.786 255.853 406.458 256.697 407.354 257.304C408.259 257.911 409.389 258.223 410.742 258.242ZM423.189 261V240.84H431.519C431.715 240.84 431.967 240.849 432.275 240.868C432.583 240.877 432.867 240.905 433.129 240.952C434.295 241.129 435.257 241.517 436.013 242.114C436.778 242.711 437.343 243.467 437.707 244.382C438.08 245.287 438.267 246.295 438.267 247.406C438.267 249.049 437.851 250.463 437.021 251.648C436.19 252.824 434.916 253.552 433.199 253.832L431.757 253.958H426.563V261H423.189ZM434.767 261L430.791 252.796L434.221 252.04L438.589 261H434.767ZM426.563 250.808H431.379C431.565 250.808 431.775 250.799 432.009 250.78C432.242 250.761 432.457 250.724 432.653 250.668C433.213 250.528 433.651 250.281 433.969 249.926C434.295 249.571 434.524 249.17 434.655 248.722C434.795 248.274 434.865 247.835 434.865 247.406C434.865 246.977 434.795 246.538 434.655 246.09C434.524 245.633 434.295 245.227 433.969 244.872C433.651 244.517 433.213 244.27 432.653 244.13C432.457 244.074 432.242 244.041 432.009 244.032C431.775 244.013 431.565 244.004 431.379 244.004H426.563V250.808ZM441.953 261V240.84H445.327V257.836H454.231V261H441.953ZM456.603 261V240.84H463.029C463.197 240.84 463.528 240.845 464.023 240.854C464.527 240.863 465.012 240.896 465.479 240.952C467.075 241.157 468.423 241.727 469.525 242.66C470.635 243.584 471.475 244.765 472.045 246.202C472.614 247.639 472.899 249.212 472.899 250.92C472.899 252.628 472.614 254.201 472.045 255.638C471.475 257.075 470.635 258.261 469.525 259.194C468.423 260.118 467.075 260.683 465.479 260.888C465.021 260.944 464.541 260.977 464.037 260.986C463.533 260.995 463.197 261 463.029 261H456.603ZM460.033 257.822H463.029C463.309 257.822 463.663 257.813 464.093 257.794C464.531 257.775 464.919 257.733 465.255 257.668C466.207 257.491 466.981 257.066 467.579 256.394C468.176 255.722 468.615 254.905 468.895 253.944C469.184 252.983 469.329 251.975 469.329 250.92C469.329 249.828 469.184 248.801 468.895 247.84C468.605 246.879 468.157 246.071 467.551 245.418C466.953 244.765 466.188 244.349 465.255 244.172C464.919 244.097 464.531 244.055 464.093 244.046C463.663 244.027 463.309 244.018 463.029 244.018H460.033V257.822ZM121.509 300L115.615 279.84H119.157L123.175 294.4L127.179 279.868L130.721 279.84L134.739 294.4L138.743 279.84H142.285L136.405 300H133.073L128.943 285.664L124.841 300H121.509ZM144.849 300V279.84H148.223V300H144.849ZM157.261 300V283.004H150.737V279.84H167.159V283.004H160.635V300H157.261ZM169.398 300V279.84H172.772V288.324H182.32V279.84H185.68V300H182.32V291.488H172.772V300H169.398ZM195.21 300V279.84H198.248L205.22 294.12L212.192 279.84H215.23V300H212.08V287.078L205.892 300H204.548L198.374 287.078V300H195.21ZM217.763 300L224.119 279.84H229.061L235.417 300H231.945L226.177 281.912H226.933L221.235 300H217.763ZM221.305 295.632V292.482H231.889V295.632H221.305ZM245.717 300.42C244.411 300.42 243.183 300.191 242.035 299.734C240.897 299.267 239.893 298.586 239.025 297.69C238.167 296.794 237.495 295.697 237.009 294.4C236.524 293.093 236.281 291.6 236.281 289.92C236.281 287.717 236.692 285.837 237.513 284.278C238.335 282.71 239.459 281.511 240.887 280.68C242.315 279.84 243.925 279.42 245.717 279.42C248.2 279.42 250.165 279.999 251.611 281.156C253.067 282.304 254.052 283.919 254.565 286L251.121 286.546C250.739 285.351 250.113 284.399 249.245 283.69C248.377 282.971 247.271 282.612 245.927 282.612C244.574 282.593 243.449 282.887 242.553 283.494C241.657 284.101 240.981 284.955 240.523 286.056C240.075 287.157 239.851 288.445 239.851 289.92C239.851 291.395 240.075 292.678 240.523 293.77C240.971 294.853 241.643 295.697 242.539 296.304C243.445 296.911 244.574 297.223 245.927 297.242C246.945 297.251 247.836 297.069 248.601 296.696C249.367 296.313 249.992 295.739 250.477 294.974C250.963 294.199 251.289 293.233 251.457 292.076H247.901V289.43H255.041C255.06 289.579 255.074 289.799 255.083 290.088C255.093 290.377 255.097 290.55 255.097 290.606C255.097 292.51 254.719 294.204 253.963 295.688C253.217 297.163 252.143 298.32 250.743 299.16C249.343 300 247.668 300.42 245.717 300.42ZM258.189 300V279.84H261.563V300H258.189ZM274.283 300.42C272.267 300.42 270.54 299.981 269.103 299.104C267.666 298.217 266.56 296.985 265.785 295.408C265.02 293.831 264.637 292.001 264.637 289.92C264.637 287.839 265.02 286.009 265.785 284.432C266.56 282.855 267.666 281.627 269.103 280.75C270.54 279.863 272.267 279.42 274.283 279.42C276.607 279.42 278.544 280.003 280.093 281.17C281.642 282.327 282.73 283.891 283.355 285.86L279.953 286.798C279.561 285.482 278.894 284.455 277.951 283.718C277.008 282.971 275.786 282.598 274.283 282.598C272.93 282.598 271.8 282.901 270.895 283.508C269.999 284.115 269.322 284.969 268.865 286.07C268.417 287.162 268.188 288.445 268.179 289.92C268.179 291.395 268.403 292.683 268.851 293.784C269.308 294.876 269.99 295.725 270.895 296.332C271.8 296.939 272.93 297.242 274.283 297.242C275.786 297.242 277.008 296.869 277.951 296.122C278.894 295.375 279.561 294.349 279.953 293.042L283.355 293.98C282.73 295.949 281.642 297.517 280.093 298.684C278.544 299.841 276.607 300.42 274.283 300.42ZM284.482 300L290.838 279.84H295.78L302.136 300H298.664L292.896 281.912H293.652L287.954 300H284.482ZM288.024 295.632V292.482H298.608V295.632H288.024ZM304.947 300V279.84H308.321V296.836H317.225V300H304.947ZM332.334 300.42C330.318 300.42 328.591 299.981 327.154 299.104C325.716 298.217 324.61 296.985 323.836 295.408C323.07 293.831 322.688 292.001 322.688 289.92C322.688 287.839 323.07 286.009 323.836 284.432C324.61 282.855 325.716 281.627 327.154 280.75C328.591 279.863 330.318 279.42 332.334 279.42C334.658 279.42 336.594 280.003 338.144 281.17C339.693 282.327 340.78 283.891 341.406 285.86L338.004 286.798C337.612 285.482 336.944 284.455 336.002 283.718C335.059 282.971 333.836 282.598 332.334 282.598C330.98 282.598 329.851 282.901 328.946 283.508C328.05 284.115 327.373 284.969 326.916 286.07C326.468 287.162 326.239 288.445 326.23 289.92C326.23 291.395 326.454 292.683 326.902 293.784C327.359 294.876 328.04 295.725 328.946 296.332C329.851 296.939 330.98 297.242 332.334 297.242C333.836 297.242 335.059 296.869 336.002 296.122C336.944 295.375 337.612 294.349 338.004 293.042L341.406 293.98C340.78 295.949 339.693 297.517 338.144 298.684C336.594 299.841 334.658 300.42 332.334 300.42ZM344.48 300V279.84H352.81C353.006 279.84 353.258 279.849 353.566 279.868C353.874 279.877 354.158 279.905 354.42 279.952C355.586 280.129 356.548 280.517 357.304 281.114C358.069 281.711 358.634 282.467 358.998 283.382C359.371 284.287 359.558 285.295 359.558 286.406C359.558 288.049 359.142 289.463 358.312 290.648C357.481 291.824 356.207 292.552 354.49 292.832L353.048 292.958H347.854V300H344.48ZM356.058 300L352.082 291.796L355.512 291.04L359.88 300H356.058ZM347.854 289.808H352.67C352.856 289.808 353.066 289.799 353.3 289.78C353.533 289.761 353.748 289.724 353.944 289.668C354.504 289.528 354.942 289.281 355.26 288.926C355.586 288.571 355.815 288.17 355.946 287.722C356.086 287.274 356.156 286.835 356.156 286.406C356.156 285.977 356.086 285.538 355.946 285.09C355.815 284.633 355.586 284.227 355.26 283.872C354.942 283.517 354.504 283.27 353.944 283.13C353.748 283.074 353.533 283.041 353.3 283.032C353.066 283.013 352.856 283.004 352.67 283.004H347.854V289.808ZM362.964 300V279.84H375.984V283.004H366.338V287.974H374.304V291.138H366.338V296.836H375.984V300H362.964ZM377.943 300L384.299 279.84H389.241L395.597 300H392.125L386.357 281.912H387.113L381.415 300H377.943ZM381.485 295.632V292.482H392.069V295.632H381.485ZM401.304 300V283.004H394.78V279.84H411.202V283.004H404.678V300H401.304ZM421.56 300.42C419.955 300.42 418.541 300.093 417.318 299.44C416.105 298.787 415.153 297.867 414.462 296.682C413.781 295.497 413.44 294.106 413.44 292.51V279.868L416.856 279.84V292.426C416.856 293.182 416.982 293.859 417.234 294.456C417.496 295.053 417.846 295.562 418.284 295.982C418.723 296.393 419.227 296.705 419.796 296.92C420.366 297.135 420.954 297.242 421.56 297.242C422.186 297.242 422.778 297.135 423.338 296.92C423.908 296.696 424.412 296.379 424.85 295.968C425.289 295.548 425.634 295.039 425.886 294.442C426.138 293.845 426.264 293.173 426.264 292.426V279.84H429.68V292.51C429.68 294.106 429.335 295.497 428.644 296.682C427.963 297.867 427.011 298.787 425.788 299.44C424.575 300.093 423.166 300.42 421.56 300.42ZM433.593 300V279.84H441.923C442.119 279.84 442.371 279.849 442.679 279.868C442.987 279.877 443.271 279.905 443.533 279.952C444.699 280.129 445.661 280.517 446.417 281.114C447.182 281.711 447.747 282.467 448.111 283.382C448.484 284.287 448.671 285.295 448.671 286.406C448.671 288.049 448.255 289.463 447.425 290.648C446.594 291.824 445.32 292.552 443.603 292.832L442.161 292.958H436.967V300H433.593ZM445.171 300L441.195 291.796L444.625 291.04L448.993 300H445.171ZM436.967 289.808H441.783C441.969 289.808 442.179 289.799 442.413 289.78C442.646 289.761 442.861 289.724 443.057 289.668C443.617 289.528 444.055 289.281 444.373 288.926C444.699 288.571 444.928 288.17 445.059 287.722C445.199 287.274 445.269 286.835 445.269 286.406C445.269 285.977 445.199 285.538 445.059 285.09C444.928 284.633 444.699 284.227 444.373 283.872C444.055 283.517 443.617 283.27 443.057 283.13C442.861 283.074 442.646 283.041 442.413 283.032C442.179 283.013 441.969 283.004 441.783 283.004H436.967V289.808ZM452.077 300V279.84H465.097V283.004H455.451V287.974H463.417V291.138H455.451V296.836H465.097V300H452.077ZM475.727 300.42C474.252 300.42 472.922 300.163 471.737 299.65C470.561 299.137 469.59 298.404 468.825 297.452C468.069 296.491 467.588 295.352 467.383 294.036L470.883 293.504C471.181 294.699 471.793 295.623 472.717 296.276C473.65 296.929 474.723 297.256 475.937 297.256C476.655 297.256 477.332 297.144 477.967 296.92C478.601 296.696 479.115 296.369 479.507 295.94C479.908 295.511 480.109 294.983 480.109 294.358C480.109 294.078 480.062 293.821 479.969 293.588C479.875 293.345 479.735 293.131 479.549 292.944C479.371 292.757 479.138 292.589 478.849 292.44C478.569 292.281 478.242 292.146 477.869 292.034L472.661 290.494C472.213 290.363 471.727 290.191 471.205 289.976C470.691 289.752 470.201 289.449 469.735 289.066C469.277 288.674 468.899 288.179 468.601 287.582C468.311 286.975 468.167 286.229 468.167 285.342C468.167 284.045 468.493 282.957 469.147 282.08C469.809 281.193 470.696 280.531 471.807 280.092C472.927 279.653 474.168 279.439 475.531 279.448C476.912 279.457 478.144 279.695 479.227 280.162C480.309 280.619 481.215 281.287 481.943 282.164C482.671 283.041 483.184 284.101 483.483 285.342L479.857 285.972C479.707 285.263 479.418 284.661 478.989 284.166C478.569 283.662 478.051 283.279 477.435 283.018C476.828 282.757 476.179 282.617 475.489 282.598C474.817 282.589 474.191 282.691 473.613 282.906C473.043 283.111 472.581 283.41 472.227 283.802C471.881 284.194 471.709 284.651 471.709 285.174C471.709 285.669 471.858 286.075 472.157 286.392C472.455 286.7 472.824 286.947 473.263 287.134C473.711 287.311 474.163 287.461 474.621 287.582L478.233 288.59C478.727 288.721 479.283 288.898 479.899 289.122C480.515 289.346 481.107 289.659 481.677 290.06C482.246 290.461 482.713 290.989 483.077 291.642C483.45 292.295 483.637 293.126 483.637 294.134C483.637 295.179 483.417 296.099 482.979 296.892C482.549 297.676 481.966 298.329 481.229 298.852C480.491 299.375 479.647 299.767 478.695 300.028C477.752 300.289 476.763 300.42 475.727 300.42Z" fill="white"></path> <rect y="475" width="600" height="300" rx="20" fill="#5199FF"></rect> <path d="M154.093 616L160.449 595.84H165.391L171.747 616H168.275L162.507 597.912H163.263L157.565 616H154.093ZM157.635 611.632V608.482H168.219V611.632H157.635ZM179.884 616V595.84H192.022V599.214H183.258V604.24H190.342V607.6H183.258V616H179.884ZM202.66 616.42C201.055 616.42 199.641 616.093 198.418 615.44C197.205 614.787 196.253 613.867 195.562 612.682C194.881 611.497 194.54 610.106 194.54 608.51V595.868L197.956 595.84V608.426C197.956 609.182 198.082 609.859 198.334 610.456C198.595 611.053 198.945 611.562 199.384 611.982C199.823 612.393 200.327 612.705 200.896 612.92C201.465 613.135 202.053 613.242 202.66 613.242C203.285 613.242 203.878 613.135 204.438 612.92C205.007 612.696 205.511 612.379 205.95 611.968C206.389 611.548 206.734 611.039 206.986 610.442C207.238 609.845 207.364 609.173 207.364 608.426V595.84H210.78V608.51C210.78 610.106 210.435 611.497 209.744 612.682C209.063 613.867 208.111 614.787 206.888 615.44C205.675 616.093 204.265 616.42 202.66 616.42ZM219.536 616V599.004H213.012V595.84H229.434V599.004H222.91V616H219.536ZM239.793 616.42C238.188 616.42 236.774 616.093 235.551 615.44C234.338 614.787 233.386 613.867 232.695 612.682C232.014 611.497 231.673 610.106 231.673 608.51V595.868L235.089 595.84V608.426C235.089 609.182 235.215 609.859 235.467 610.456C235.728 611.053 236.078 611.562 236.517 611.982C236.956 612.393 237.46 612.705 238.029 612.92C238.598 613.135 239.186 613.242 239.793 613.242C240.418 613.242 241.011 613.135 241.571 612.92C242.14 612.696 242.644 612.379 243.083 611.968C243.522 611.548 243.867 611.039 244.119 610.442C244.371 609.845 244.497 609.173 244.497 608.426V595.84H247.913V608.51C247.913 610.106 247.568 611.497 246.877 612.682C246.196 613.867 245.244 614.787 244.021 615.44C242.808 616.093 241.398 616.42 239.793 616.42ZM251.825 616V595.84H260.155C260.351 595.84 260.603 595.849 260.911 595.868C261.219 595.877 261.504 595.905 261.765 595.952C262.932 596.129 263.893 596.517 264.649 597.114C265.415 597.711 265.979 598.467 266.343 599.382C266.717 600.287 266.903 601.295 266.903 602.406C266.903 604.049 266.488 605.463 265.657 606.648C264.827 607.824 263.553 608.552 261.835 608.832L260.393 608.958H255.199V616H251.825ZM263.403 616L259.427 607.796L262.857 607.04L267.225 616H263.403ZM255.199 605.808H260.015C260.202 605.808 260.412 605.799 260.645 605.78C260.879 605.761 261.093 605.724 261.289 605.668C261.849 605.528 262.288 605.281 262.605 604.926C262.932 604.571 263.161 604.17 263.291 603.722C263.431 603.274 263.501 602.835 263.501 602.406C263.501 601.977 263.431 601.538 263.291 601.09C263.161 600.633 262.932 600.227 262.605 599.872C262.288 599.517 261.849 599.27 261.289 599.13C261.093 599.074 260.879 599.041 260.645 599.032C260.412 599.013 260.202 599.004 260.015 599.004H255.199V605.808ZM270.59 616V595.84H273.964V616H270.59ZM285.619 616.42C284.145 616.42 282.815 616.163 281.629 615.65C280.453 615.137 279.483 614.404 278.717 613.452C277.961 612.491 277.481 611.352 277.275 610.036L280.775 609.504C281.074 610.699 281.685 611.623 282.609 612.276C283.543 612.929 284.616 613.256 285.829 613.256C286.548 613.256 287.225 613.144 287.859 612.92C288.494 612.696 289.007 612.369 289.399 611.94C289.801 611.511 290.001 610.983 290.001 610.358C290.001 610.078 289.955 609.821 289.861 609.588C289.768 609.345 289.628 609.131 289.441 608.944C289.264 608.757 289.031 608.589 288.741 608.44C288.461 608.281 288.135 608.146 287.761 608.034L282.553 606.494C282.105 606.363 281.62 606.191 281.097 605.976C280.584 605.752 280.094 605.449 279.627 605.066C279.17 604.674 278.792 604.179 278.493 603.582C278.204 602.975 278.059 602.229 278.059 601.342C278.059 600.045 278.386 598.957 279.039 598.08C279.702 597.193 280.589 596.531 281.699 596.092C282.819 595.653 284.061 595.439 285.423 595.448C286.805 595.457 288.037 595.695 289.119 596.162C290.202 596.619 291.107 597.287 291.835 598.164C292.563 599.041 293.077 600.101 293.375 601.342L289.749 601.972C289.6 601.263 289.311 600.661 288.881 600.166C288.461 599.662 287.943 599.279 287.327 599.018C286.721 598.757 286.072 598.617 285.381 598.598C284.709 598.589 284.084 598.691 283.505 598.906C282.936 599.111 282.474 599.41 282.119 599.802C281.774 600.194 281.601 600.651 281.601 601.174C281.601 601.669 281.751 602.075 282.049 602.392C282.348 602.7 282.717 602.947 283.155 603.134C283.603 603.311 284.056 603.461 284.513 603.582L288.125 604.59C288.62 604.721 289.175 604.898 289.791 605.122C290.407 605.346 291 605.659 291.569 606.06C292.139 606.461 292.605 606.989 292.969 607.642C293.343 608.295 293.529 609.126 293.529 610.134C293.529 611.179 293.31 612.099 292.871 612.892C292.442 613.676 291.859 614.329 291.121 614.852C290.384 615.375 289.539 615.767 288.587 616.028C287.645 616.289 286.655 616.42 285.619 616.42ZM301.404 616V599.004H294.88V595.84H311.302V599.004H304.778V616H301.404ZM313.82 616V595.84H317.194V616H313.82ZM329.914 616.42C327.898 616.42 326.171 615.981 324.734 615.104C323.296 614.217 322.19 612.985 321.416 611.408C320.65 609.831 320.268 608.001 320.268 605.92C320.268 603.839 320.65 602.009 321.416 600.432C322.19 598.855 323.296 597.627 324.734 596.75C326.171 595.863 327.898 595.42 329.914 595.42C332.238 595.42 334.174 596.003 335.724 597.17C337.273 598.327 338.36 599.891 338.986 601.86L335.584 602.798C335.192 601.482 334.524 600.455 333.582 599.718C332.639 598.971 331.416 598.598 329.914 598.598C328.56 598.598 327.431 598.901 326.526 599.508C325.63 600.115 324.953 600.969 324.496 602.07C324.048 603.162 323.819 604.445 323.81 605.92C323.81 607.395 324.034 608.683 324.482 609.784C324.939 610.876 325.62 611.725 326.526 612.332C327.431 612.939 328.56 613.242 329.914 613.242C331.416 613.242 332.639 612.869 333.582 612.122C334.524 611.375 335.192 610.349 335.584 609.042L338.986 609.98C338.36 611.949 337.273 613.517 335.724 614.684C334.174 615.841 332.238 616.42 329.914 616.42ZM351.921 616L346.027 595.84H349.569L353.587 610.4L357.591 595.868L361.133 595.84L365.151 610.4L369.155 595.84H372.697L366.817 616H363.485L359.355 601.664L355.253 616H351.921ZM382.961 616.42C380.945 616.42 379.218 615.981 377.781 615.104C376.343 614.217 375.237 612.985 374.463 611.408C373.697 609.831 373.315 608.001 373.315 605.92C373.315 603.839 373.697 602.009 374.463 600.432C375.237 598.855 376.343 597.627 377.781 596.75C379.218 595.863 380.945 595.42 382.961 595.42C384.977 595.42 386.703 595.863 388.141 596.75C389.587 597.627 390.693 598.855 391.459 600.432C392.233 602.009 392.621 603.839 392.621 605.92C392.621 608.001 392.233 609.831 391.459 611.408C390.693 612.985 389.587 614.217 388.141 615.104C386.703 615.981 384.977 616.42 382.961 616.42ZM382.961 613.242C384.314 613.251 385.439 612.953 386.335 612.346C387.24 611.739 387.917 610.885 388.365 609.784C388.822 608.683 389.051 607.395 389.051 605.92C389.051 604.445 388.822 603.167 388.365 602.084C387.917 600.992 387.24 600.143 386.335 599.536C385.439 598.929 384.314 598.617 382.961 598.598C381.607 598.589 380.483 598.887 379.587 599.494C378.691 600.101 378.014 600.955 377.557 602.056C377.109 603.157 376.885 604.445 376.885 605.92C376.885 607.395 377.109 608.678 377.557 609.77C378.005 610.853 378.677 611.697 379.573 612.304C380.478 612.911 381.607 613.223 382.961 613.242ZM395.407 616V595.84H403.737C403.933 595.84 404.185 595.849 404.493 595.868C404.801 595.877 405.086 595.905 405.347 595.952C406.514 596.129 407.475 596.517 408.231 597.114C408.997 597.711 409.561 598.467 409.925 599.382C410.299 600.287 410.485 601.295 410.485 602.406C410.485 604.049 410.07 605.463 409.239 606.648C408.409 607.824 407.135 608.552 405.417 608.832L403.975 608.958H398.781V616H395.407ZM406.985 616L403.009 607.796L406.439 607.04L410.807 616H406.985ZM398.781 605.808H403.597C403.784 605.808 403.994 605.799 404.227 605.78C404.461 605.761 404.675 605.724 404.871 605.668C405.431 605.528 405.87 605.281 406.187 604.926C406.514 604.571 406.743 604.17 406.873 603.722C407.013 603.274 407.083 602.835 407.083 602.406C407.083 601.977 407.013 601.538 406.873 601.09C406.743 600.633 406.514 600.227 406.187 599.872C405.87 599.517 405.431 599.27 404.871 599.13C404.675 599.074 404.461 599.041 404.227 599.032C403.994 599.013 403.784 599.004 403.597 599.004H398.781V605.808ZM414.172 616V595.84H417.546V612.836H426.45V616H414.172ZM428.821 616V595.84H435.247C435.415 595.84 435.747 595.845 436.241 595.854C436.745 595.863 437.231 595.896 437.697 595.952C439.293 596.157 440.642 596.727 441.743 597.66C442.854 598.584 443.694 599.765 444.263 601.202C444.833 602.639 445.117 604.212 445.117 605.92C445.117 607.628 444.833 609.201 444.263 610.638C443.694 612.075 442.854 613.261 441.743 614.194C440.642 615.118 439.293 615.683 437.697 615.888C437.24 615.944 436.759 615.977 436.255 615.986C435.751 615.995 435.415 616 435.247 616H428.821ZM432.251 612.822H435.247C435.527 612.822 435.882 612.813 436.311 612.794C436.75 612.775 437.137 612.733 437.473 612.668C438.425 612.491 439.2 612.066 439.797 611.394C440.395 610.722 440.833 609.905 441.113 608.944C441.403 607.983 441.547 606.975 441.547 605.92C441.547 604.828 441.403 603.801 441.113 602.84C440.824 601.879 440.376 601.071 439.769 600.418C439.172 599.765 438.407 599.349 437.473 599.172C437.137 599.097 436.75 599.055 436.311 599.046C435.882 599.027 435.527 599.018 435.247 599.018H432.251V612.822ZM96.5441 655L90.6501 634.84H94.1921L98.2101 649.4L102.214 634.868L105.756 634.84L109.774 649.4L113.778 634.84H117.32L111.44 655H108.108L103.978 640.664L99.8761 655H96.5441ZM119.885 655V634.84H123.259V655H119.885ZM132.296 655V638.004H125.772V634.84H142.194V638.004H135.67V655H132.296ZM144.433 655V634.84H147.807V643.324H157.355V634.84H160.715V655H157.355V646.488H147.807V655H144.433ZM168.845 655L175.201 634.84H180.143L186.499 655H183.027L177.259 636.912H178.015L172.317 655H168.845ZM172.387 650.632V647.482H182.971V650.632H172.387ZM189.03 655V634.84H195.456C195.624 634.84 195.956 634.845 196.45 634.854C196.954 634.863 197.44 634.896 197.906 634.952C199.502 635.157 200.851 635.727 201.952 636.66C203.063 637.584 203.903 638.765 204.472 640.202C205.042 641.639 205.326 643.212 205.326 644.92C205.326 646.628 205.042 648.201 204.472 649.638C203.903 651.075 203.063 652.261 201.952 653.194C200.851 654.118 199.502 654.683 197.906 654.888C197.449 654.944 196.968 654.977 196.464 654.986C195.96 654.995 195.624 655 195.456 655H189.03ZM192.46 651.822H195.456C195.736 651.822 196.091 651.813 196.52 651.794C196.959 651.775 197.346 651.733 197.682 651.668C198.634 651.491 199.409 651.066 200.006 650.394C200.604 649.722 201.042 648.905 201.322 647.944C201.612 646.983 201.756 645.975 201.756 644.92C201.756 643.828 201.612 642.801 201.322 641.84C201.033 640.879 200.585 640.071 199.978 639.418C199.381 638.765 198.616 638.349 197.682 638.172C197.346 638.097 196.959 638.055 196.52 638.046C196.091 638.027 195.736 638.018 195.456 638.018H192.46V651.822ZM212.324 655L205.968 634.84H209.44L214.76 651.724L220.15 634.84H223.622L217.266 655H212.324ZM222.357 655L228.713 634.84H233.655L240.011 655H236.539L230.771 636.912H231.527L225.829 655H222.357ZM225.899 650.632V647.482H236.483V650.632H225.899ZM242.542 655V634.84H245.958L255.31 649.05V634.84H258.726V655H255.31L245.958 640.79V655H242.542ZM271.166 655.42C269.15 655.42 267.423 654.981 265.986 654.104C264.548 653.217 263.442 651.985 262.668 650.408C261.902 648.831 261.52 647.001 261.52 644.92C261.52 642.839 261.902 641.009 262.668 639.432C263.442 637.855 264.548 636.627 265.986 635.75C267.423 634.863 269.15 634.42 271.166 634.42C273.49 634.42 275.426 635.003 276.976 636.17C278.525 637.327 279.612 638.891 280.238 640.86L276.836 641.798C276.444 640.482 275.776 639.455 274.834 638.718C273.891 637.971 272.668 637.598 271.166 637.598C269.812 637.598 268.683 637.901 267.778 638.508C266.882 639.115 266.205 639.969 265.748 641.07C265.3 642.162 265.071 643.445 265.062 644.92C265.062 646.395 265.286 647.683 265.734 648.784C266.191 649.876 266.872 650.725 267.778 651.332C268.683 651.939 269.812 652.242 271.166 652.242C272.668 652.242 273.891 651.869 274.834 651.122C275.776 650.375 276.444 649.349 276.836 648.042L280.238 648.98C279.612 650.949 278.525 652.517 276.976 653.684C275.426 654.841 273.49 655.42 271.166 655.42ZM283.312 655V634.84H296.332V638.004H286.686V642.974H294.652V646.138H286.686V651.836H296.332V655H283.312ZM299.69 655V634.84H306.116C306.284 634.84 306.616 634.845 307.11 634.854C307.614 634.863 308.1 634.896 308.566 634.952C310.162 635.157 311.511 635.727 312.612 636.66C313.723 637.584 314.563 638.765 315.132 640.202C315.702 641.639 315.986 643.212 315.986 644.92C315.986 646.628 315.702 648.201 315.132 649.638C314.563 651.075 313.723 652.261 312.612 653.194C311.511 654.118 310.162 654.683 308.566 654.888C308.109 654.944 307.628 654.977 307.124 654.986C306.62 654.995 306.284 655 306.116 655H299.69ZM303.12 651.822H306.116C306.396 651.822 306.751 651.813 307.18 651.794C307.619 651.775 308.006 651.733 308.342 651.668C309.294 651.491 310.069 651.066 310.666 650.394C311.264 649.722 311.702 648.905 311.982 647.944C312.272 646.983 312.416 645.975 312.416 644.92C312.416 643.828 312.272 642.801 311.982 641.84C311.693 640.879 311.245 640.071 310.638 639.418C310.041 638.765 309.276 638.349 308.342 638.172C308.006 638.097 307.619 638.055 307.18 638.046C306.751 638.027 306.396 638.018 306.116 638.018H303.12V651.822ZM329.745 655V638.004H323.221V634.84H339.643V638.004H333.119V655H329.745ZM341.882 655V634.84H354.902V638.004H345.256V642.974H353.222V646.138H345.256V651.836H354.902V655H341.882ZM366.076 655.42C364.06 655.42 362.333 654.981 360.896 654.104C359.459 653.217 358.353 651.985 357.578 650.408C356.813 648.831 356.43 647.001 356.43 644.92C356.43 642.839 356.813 641.009 357.578 639.432C358.353 637.855 359.459 636.627 360.896 635.75C362.333 634.863 364.06 634.42 366.076 634.42C368.4 634.42 370.337 635.003 371.886 636.17C373.435 637.327 374.523 638.891 375.148 640.86L371.746 641.798C371.354 640.482 370.687 639.455 369.744 638.718C368.801 637.971 367.579 637.598 366.076 637.598C364.723 637.598 363.593 637.901 362.688 638.508C361.792 639.115 361.115 639.969 360.658 641.07C360.21 642.162 359.981 643.445 359.972 644.92C359.972 646.395 360.196 647.683 360.644 648.784C361.101 649.876 361.783 650.725 362.688 651.332C363.593 651.939 364.723 652.242 366.076 652.242C367.579 652.242 368.801 651.869 369.744 651.122C370.687 650.375 371.354 649.349 371.746 648.042L375.148 648.98C374.523 650.949 373.435 652.517 371.886 653.684C370.337 654.841 368.4 655.42 366.076 655.42ZM378.222 655V634.84H381.596V643.324H391.144V634.84H394.504V655H391.144V646.488H381.596V655H378.222ZM398.429 655V634.84H401.845L411.197 649.05V634.84H414.613V655H411.197L401.845 640.79V655H398.429ZM427.052 655.42C425.036 655.42 423.31 654.981 421.872 654.104C420.435 653.217 419.329 651.985 418.554 650.408C417.789 648.831 417.406 647.001 417.406 644.92C417.406 642.839 417.789 641.009 418.554 639.432C419.329 637.855 420.435 636.627 421.872 635.75C423.31 634.863 425.036 634.42 427.052 634.42C429.068 634.42 430.795 634.863 432.232 635.75C433.679 636.627 434.785 637.855 435.55 639.432C436.325 641.009 436.712 642.839 436.712 644.92C436.712 647.001 436.325 648.831 435.55 650.408C434.785 651.985 433.679 653.217 432.232 654.104C430.795 654.981 429.068 655.42 427.052 655.42ZM427.052 652.242C428.406 652.251 429.53 651.953 430.426 651.346C431.332 650.739 432.008 649.885 432.456 648.784C432.914 647.683 433.142 646.395 433.142 644.92C433.142 643.445 432.914 642.167 432.456 641.084C432.008 639.992 431.332 639.143 430.426 638.536C429.53 637.929 428.406 637.617 427.052 637.598C425.699 637.589 424.574 637.887 423.678 638.494C422.782 639.101 422.106 639.955 421.648 641.056C421.2 642.157 420.976 643.445 420.976 644.92C420.976 646.395 421.2 647.678 421.648 648.77C422.096 649.853 422.768 650.697 423.664 651.304C424.57 651.911 425.699 652.223 427.052 652.242ZM439.779 655V634.84H443.153V651.836H452.057V655H439.779ZM462.408 655.42C460.392 655.42 458.665 654.981 457.228 654.104C455.791 653.217 454.685 651.985 453.91 650.408C453.145 648.831 452.762 647.001 452.762 644.92C452.762 642.839 453.145 641.009 453.91 639.432C454.685 637.855 455.791 636.627 457.228 635.75C458.665 634.863 460.392 634.42 462.408 634.42C464.424 634.42 466.151 634.863 467.588 635.75C469.035 636.627 470.141 637.855 470.906 639.432C471.681 641.009 472.068 642.839 472.068 644.92C472.068 647.001 471.681 648.831 470.906 650.408C470.141 651.985 469.035 653.217 467.588 654.104C466.151 654.981 464.424 655.42 462.408 655.42ZM462.408 652.242C463.761 652.251 464.886 651.953 465.782 651.346C466.687 650.739 467.364 649.885 467.812 648.784C468.269 647.683 468.498 646.395 468.498 644.92C468.498 643.445 468.269 642.167 467.812 641.084C467.364 639.992 466.687 639.143 465.782 638.536C464.886 637.929 463.761 637.617 462.408 637.598C461.055 637.589 459.93 637.887 459.034 638.494C458.138 639.101 457.461 639.955 457.004 641.056C456.556 642.157 456.332 643.445 456.332 644.92C456.332 646.395 456.556 647.678 457.004 648.77C457.452 649.853 458.124 650.697 459.02 651.304C459.925 651.911 461.055 652.223 462.408 652.242ZM483.171 655.42C481.864 655.42 480.637 655.191 479.489 654.734C478.35 654.267 477.347 653.586 476.479 652.69C475.62 651.794 474.948 650.697 474.463 649.4C473.977 648.093 473.735 646.6 473.735 644.92C473.735 642.717 474.145 640.837 474.967 639.278C475.788 637.71 476.913 636.511 478.341 635.68C479.769 634.84 481.379 634.42 483.171 634.42C485.653 634.42 487.618 634.999 489.065 636.156C490.521 637.304 491.505 638.919 492.019 641L488.575 641.546C488.192 640.351 487.567 639.399 486.699 638.69C485.831 637.971 484.725 637.612 483.381 637.612C482.027 637.593 480.903 637.887 480.007 638.494C479.111 639.101 478.434 639.955 477.977 641.056C477.529 642.157 477.305 643.445 477.305 644.92C477.305 646.395 477.529 647.678 477.977 648.77C478.425 649.853 479.097 650.697 479.993 651.304C480.898 651.911 482.027 652.223 483.381 652.242C484.398 652.251 485.289 652.069 486.055 651.696C486.82 651.313 487.445 650.739 487.931 649.974C488.416 649.199 488.743 648.233 488.911 647.076H485.355V644.43H492.495C492.513 644.579 492.527 644.799 492.537 645.088C492.546 645.377 492.551 645.55 492.551 645.606C492.551 647.51 492.173 649.204 491.417 650.688C490.67 652.163 489.597 653.32 488.197 654.16C486.797 655 485.121 655.42 483.171 655.42ZM499.415 655V646.74L492.555 634.84H496.489L501.123 642.876L505.743 634.84H509.677L502.831 646.74V655H499.415Z" fill="white"></path> <circle cx="300" cy="448" r="60" fill="#F9F9F9"></circle> <path d="M288.777 461.51C286.329 461.51 284.232 460.977 282.487 459.912C280.742 458.835 279.399 457.339 278.458 455.424C277.529 453.509 277.064 451.287 277.064 448.76C277.064 446.233 277.529 444.011 278.458 442.096C279.399 440.181 280.742 438.69 282.487 437.625C284.232 436.548 286.329 436.01 288.777 436.01C291.225 436.01 293.322 436.548 295.067 437.625C296.824 438.69 298.167 440.181 299.096 442.096C300.037 444.011 300.507 446.233 300.507 448.76C300.507 451.287 300.037 453.509 299.096 455.424C298.167 457.339 296.824 458.835 295.067 459.912C293.322 460.977 291.225 461.51 288.777 461.51ZM288.777 457.651C290.42 457.662 291.786 457.3 292.874 456.563C293.973 455.826 294.795 454.789 295.339 453.452C295.894 452.115 296.172 450.551 296.172 448.76C296.172 446.969 295.894 445.417 295.339 444.102C294.795 442.776 293.973 441.745 292.874 441.008C291.786 440.271 290.42 439.892 288.777 439.869C287.134 439.858 285.768 440.22 284.68 440.957C283.592 441.694 282.77 442.731 282.215 444.068C281.671 445.405 281.399 446.969 281.399 448.76C281.399 450.551 281.671 452.109 282.215 453.435C282.759 454.75 283.575 455.775 284.663 456.512C285.762 457.249 287.134 457.628 288.777 457.651ZM303.891 461V436.52H314.006C314.244 436.52 314.55 436.531 314.924 436.554C315.298 436.565 315.643 436.599 315.961 436.656C317.377 436.871 318.545 437.342 319.463 438.067C320.392 438.792 321.078 439.71 321.52 440.821C321.973 441.92 322.2 443.144 322.2 444.493C322.2 446.488 321.695 448.205 320.687 449.644C319.678 451.072 318.131 451.956 316.046 452.296L314.295 452.449H307.988V461H303.891ZM317.95 461L313.122 451.038L317.287 450.12L322.591 461H317.95ZM307.988 448.624H313.836C314.062 448.624 314.317 448.613 314.601 448.59C314.884 448.567 315.145 448.522 315.383 448.454C316.063 448.284 316.595 447.984 316.981 447.553C317.377 447.122 317.655 446.635 317.814 446.091C317.984 445.547 318.069 445.014 318.069 444.493C318.069 443.972 317.984 443.439 317.814 442.895C317.655 442.34 317.377 441.847 316.981 441.416C316.595 440.985 316.063 440.685 315.383 440.515C315.145 440.447 314.884 440.407 314.601 440.396C314.317 440.373 314.062 440.362 313.836 440.362H307.988V448.624Z" fill="#3E1BC9"></path> </svg> 