<?xml version="1.0" encoding="UTF-8"?> <svg xmlns="http://www.w3.org/2000/svg" width="600" height="775" viewBox="0 0 600 775" fill="none"> <rect width="600" height="775" rx="20" fill="#F9F9F9"></rect> <path d="M129.614 73L122.457 48.52H126.758L131.637 66.2L136.499 48.554L140.8 48.52L145.679 66.2L150.541 48.52H154.842L147.702 73H143.656L138.641 55.592L133.66 73H129.614ZM167.305 73.51C164.857 73.51 162.761 72.9773 161.015 71.912C159.27 70.8353 157.927 69.3393 156.986 67.424C156.057 65.5087 155.592 63.2873 155.592 60.76C155.592 58.2327 156.057 56.0113 156.986 54.096C157.927 52.1807 159.27 50.6903 161.015 49.625C162.761 48.5483 164.857 48.01 167.305 48.01C169.753 48.01 171.85 48.5483 173.595 49.625C175.352 50.6903 176.695 52.1807 177.624 54.096C178.565 56.0113 179.035 58.2327 179.035 60.76C179.035 63.2873 178.565 65.5087 177.624 67.424C176.695 69.3393 175.352 70.8353 173.595 71.912C171.85 72.9773 169.753 73.51 167.305 73.51ZM167.305 69.651C168.949 69.6623 170.314 69.2997 171.402 68.563C172.502 67.8263 173.323 66.7893 173.867 65.452C174.423 64.1147 174.7 62.5507 174.7 60.76C174.7 58.9693 174.423 57.4167 173.867 56.102C173.323 54.776 172.502 53.7447 171.402 53.008C170.314 52.2713 168.949 51.8917 167.305 51.869C165.662 51.8577 164.296 52.2203 163.208 52.957C162.12 53.6937 161.299 54.7307 160.743 56.068C160.199 57.4053 159.927 58.9693 159.927 60.76C159.927 62.5507 160.199 64.109 160.743 65.435C161.287 66.7497 162.103 67.7753 163.191 68.512C164.291 69.2487 165.662 69.6283 167.305 69.651ZM192.279 73.51C190.33 73.51 188.613 73.1133 187.128 72.32C185.655 71.5267 184.499 70.4103 183.66 68.971C182.833 67.5317 182.419 65.843 182.419 63.905V48.554L186.567 48.52V63.803C186.567 64.721 186.72 65.5427 187.026 66.268C187.343 66.9933 187.768 67.611 188.301 68.121C188.834 68.6197 189.446 68.9993 190.137 69.26C190.828 69.5207 191.542 69.651 192.279 69.651C193.038 69.651 193.758 69.5207 194.438 69.26C195.129 68.988 195.741 68.6027 196.274 68.104C196.807 67.594 197.226 66.9763 197.532 66.251C197.838 65.5257 197.991 64.7097 197.991 63.803V48.52H202.139V63.905C202.139 65.843 201.72 67.5317 200.881 68.971C200.054 70.4103 198.898 71.5267 197.413 72.32C195.94 73.1133 194.228 73.51 192.279 73.51ZM207.23 73V48.52H211.327V69.158H222.139V73H207.23ZM225.019 73V48.52H232.822C233.026 48.52 233.428 48.5257 234.029 48.537C234.641 48.5483 235.23 48.588 235.797 48.656C237.735 48.9053 239.372 49.5967 240.71 50.73C242.058 51.852 243.078 53.2857 243.77 55.031C244.461 56.7763 244.807 58.686 244.807 60.76C244.807 62.834 244.461 64.7437 243.77 66.489C243.078 68.2343 242.058 69.6737 240.71 70.807C239.372 71.929 237.735 72.6147 235.797 72.864C235.241 72.932 234.658 72.9717 234.046 72.983C233.434 72.9943 233.026 73 232.822 73H225.019ZM229.184 69.141H232.822C233.162 69.141 233.592 69.1297 234.114 69.107C234.646 69.0843 235.117 69.0333 235.525 68.954C236.681 68.7387 237.621 68.223 238.347 67.407C239.072 66.591 239.605 65.5993 239.945 64.432C240.296 63.2647 240.472 62.0407 240.472 60.76C240.472 59.434 240.296 58.1873 239.945 57.02C239.593 55.8527 239.049 54.8723 238.313 54.079C237.587 53.2857 236.658 52.7813 235.525 52.566C235.117 52.4753 234.646 52.4243 234.114 52.413C233.592 52.3903 233.162 52.379 232.822 52.379H229.184V69.141ZM261.582 73V62.97L253.252 48.52H258.029L263.656 58.278L269.266 48.52H274.043L265.73 62.97V73H261.582ZM285.409 73.51C282.961 73.51 280.864 72.9773 279.119 71.912C277.373 70.8353 276.03 69.3393 275.09 67.424C274.16 65.5087 273.696 63.2873 273.696 60.76C273.696 58.2327 274.16 56.0113 275.09 54.096C276.03 52.1807 277.373 50.6903 279.119 49.625C280.864 48.5483 282.961 48.01 285.409 48.01C287.857 48.01 289.953 48.5483 291.699 49.625C293.455 50.6903 294.798 52.1807 295.728 54.096C296.668 56.0113 297.139 58.2327 297.139 60.76C297.139 63.2873 296.668 65.5087 295.728 67.424C294.798 69.3393 293.455 70.8353 291.699 71.912C289.953 72.9773 287.857 73.51 285.409 73.51ZM285.409 69.651C287.052 69.6623 288.418 69.2997 289.506 68.563C290.605 67.8263 291.427 66.7893 291.971 65.452C292.526 64.1147 292.804 62.5507 292.804 60.76C292.804 58.9693 292.526 57.4167 291.971 56.102C291.427 54.776 290.605 53.7447 289.506 53.008C288.418 52.2713 287.052 51.8917 285.409 51.869C283.765 51.8577 282.4 52.2203 281.312 52.957C280.224 53.6937 279.402 54.7307 278.847 56.068C278.303 57.4053 278.031 58.9693 278.031 60.76C278.031 62.5507 278.303 64.109 278.847 65.435C279.391 66.7497 280.207 67.7753 281.295 68.512C282.394 69.2487 283.765 69.6283 285.409 69.651ZM310.383 73.51C308.433 73.51 306.716 73.1133 305.232 72.32C303.758 71.5267 302.602 70.4103 301.764 68.971C300.936 67.5317 300.523 65.843 300.523 63.905V48.554L304.671 48.52V63.803C304.671 64.721 304.824 65.5427 305.13 66.268C305.447 66.9933 305.872 67.611 306.405 68.121C306.937 68.6197 307.549 68.9993 308.241 69.26C308.932 69.5207 309.646 69.651 310.383 69.651C311.142 69.651 311.862 69.5207 312.542 69.26C313.233 68.988 313.845 68.6027 314.378 68.104C314.91 67.594 315.33 66.9763 315.636 66.251C315.942 65.5257 316.095 64.7097 316.095 63.803V48.52H320.243V63.905C320.243 65.843 319.823 67.5317 318.985 68.971C318.157 70.4103 317.001 71.5267 315.517 72.32C314.043 73.1133 312.332 73.51 310.383 73.51ZM331.8 73V48.52H341.915C342.153 48.52 342.459 48.5313 342.833 48.554C343.207 48.5653 343.553 48.5993 343.87 48.656C345.287 48.8713 346.454 49.3417 347.372 50.067C348.301 50.7923 348.987 51.7103 349.429 52.821C349.882 53.9203 350.109 55.1443 350.109 56.493C350.109 58.4877 349.605 60.2047 348.596 61.644C347.587 63.072 346.04 63.956 343.955 64.296L342.204 64.449H335.897V73H331.8ZM345.859 73L341.031 63.038L345.196 62.12L350.5 73H345.859ZM335.897 60.624H341.745C341.972 60.624 342.227 60.6127 342.51 60.59C342.793 60.5673 343.054 60.522 343.292 60.454C343.972 60.284 344.505 59.9837 344.89 59.553C345.287 59.1223 345.564 58.635 345.723 58.091C345.893 57.547 345.978 57.0143 345.978 56.493C345.978 55.9717 345.893 55.439 345.723 54.895C345.564 54.3397 345.287 53.8467 344.89 53.416C344.505 52.9853 343.972 52.685 343.292 52.515C343.054 52.447 342.793 52.4073 342.51 52.396C342.227 52.3733 341.972 52.362 341.745 52.362H335.897V60.624ZM352.545 73L360.263 48.52H366.264L373.982 73H369.766L362.762 51.036H363.68L356.761 73H352.545ZM356.846 67.696V63.871H369.698V67.696H356.846ZM380.912 73V52.362H372.99V48.52H392.931V52.362H385.009V73H380.912ZM395.65 73V48.52H399.747V58.822H411.341V48.52H415.421V73H411.341V62.664H399.747V73H395.65ZM420.187 73V48.52H435.997V52.362H424.284V58.397H433.957V62.239H424.284V69.158H435.997V73H420.187ZM440.075 73V48.52H450.19C450.428 48.52 450.734 48.5313 451.108 48.554C451.482 48.5653 451.828 48.5993 452.145 48.656C453.562 48.8713 454.729 49.3417 455.647 50.067C456.577 50.7923 457.262 51.7103 457.704 52.821C458.158 53.9203 458.384 55.1443 458.384 56.493C458.384 58.4877 457.88 60.2047 456.871 61.644C455.863 63.072 454.316 63.956 452.23 64.296L450.479 64.449H444.172V73H440.075ZM454.134 73L449.306 63.038L453.471 62.12L458.775 73H454.134ZM444.172 60.624H450.02C450.247 60.624 450.502 60.6127 450.785 60.59C451.069 60.5673 451.329 60.522 451.567 60.454C452.247 60.284 452.78 59.9837 453.165 59.553C453.562 59.1223 453.84 58.635 453.998 58.091C454.168 57.547 454.253 57.0143 454.253 56.493C454.253 55.9717 454.168 55.439 453.998 54.895C453.84 54.3397 453.562 53.8467 453.165 53.416C452.78 52.9853 452.247 52.685 451.567 52.515C451.329 52.447 451.069 52.4073 450.785 52.396C450.502 52.3733 450.247 52.362 450.02 52.362H444.172V60.624ZM466.958 66.353C466.958 65.571 467.031 64.8173 467.179 64.092C467.337 63.3553 467.592 62.6753 467.944 62.052C468.25 61.4513 468.59 60.9753 468.964 60.624C469.338 60.2613 469.757 59.9043 470.222 59.553C470.686 59.1903 471.202 58.7087 471.769 58.108C472.233 57.598 472.539 57.0937 472.687 56.595C472.834 56.085 472.908 55.541 472.908 54.963C472.908 54.589 472.868 54.2377 472.789 53.909C472.709 53.5803 472.568 53.297 472.364 53.059C472.046 52.6397 471.638 52.345 471.14 52.175C470.641 51.9937 470.108 51.903 469.542 51.903C469.077 51.903 468.629 51.9653 468.199 52.09C467.779 52.2033 467.422 52.3847 467.128 52.634C466.788 52.906 466.538 53.2403 466.38 53.637C466.221 54.0337 466.147 54.47 466.159 54.946H461.841C461.954 53.8127 462.26 52.7643 462.759 51.801C463.269 50.8263 463.937 50.05 464.765 49.472C465.411 48.996 466.136 48.639 466.941 48.401C467.757 48.163 468.573 48.044 469.389 48.044C470.635 48.044 471.808 48.2367 472.908 48.622C474.018 49.0073 474.942 49.642 475.679 50.526C476.189 51.104 476.574 51.7727 476.835 52.532C477.107 53.2913 477.243 54.062 477.243 54.844C477.243 56.0113 476.988 57.0767 476.478 58.04C475.979 59.0033 475.344 59.893 474.574 60.709C474.211 61.0943 473.865 61.4343 473.537 61.729C473.208 62.0237 472.902 62.3127 472.619 62.596C472.347 62.868 472.12 63.157 471.939 63.463C471.621 63.9957 471.434 64.449 471.378 64.823C471.321 65.1857 471.293 65.6957 471.293 66.353H466.958ZM466.992 73V68.495H471.293V73H466.992Z" fill="#3E1BC9"></path> <rect y="120" width="600" height="300" rx="20" fill="#3E1BC9"></rect> <path d="M136.551 261V240.84H139.925V257.836H148.829V261H136.551ZM151.48 261V240.84H154.854V261H151.48ZM163.584 261L157.228 240.84H160.7L166.02 257.724L171.41 240.84H174.882L168.526 261H163.584ZM176.985 261V240.84H190.005V244.004H180.359V248.974H188.325V252.138H180.359V257.836H190.005V261H176.985ZM199.25 261V240.84H202.624V261H199.25ZM206.817 261V240.84H210.233L219.585 255.05V240.84H223.001V261H219.585L210.233 246.79V261H206.817ZM231.121 261L237.477 240.84H242.419L248.775 261H245.303L239.535 242.912H240.291L234.593 261H231.121ZM234.663 256.632V253.482H245.247V256.632H234.663ZM261.167 261L255.273 240.84H258.815L262.833 255.4L266.837 240.868L270.379 240.84L274.397 255.4L278.401 240.84H281.943L276.063 261H272.731L268.601 246.664L264.499 261H261.167ZM292.207 261.42C290.191 261.42 288.464 260.981 287.027 260.104C285.589 259.217 284.483 257.985 283.709 256.408C282.943 254.831 282.561 253.001 282.561 250.92C282.561 248.839 282.943 247.009 283.709 245.432C284.483 243.855 285.589 242.627 287.027 241.75C288.464 240.863 290.191 240.42 292.207 240.42C294.223 240.42 295.949 240.863 297.387 241.75C298.833 242.627 299.939 243.855 300.705 245.432C301.479 247.009 301.867 248.839 301.867 250.92C301.867 253.001 301.479 254.831 300.705 256.408C299.939 257.985 298.833 259.217 297.387 260.104C295.949 260.981 294.223 261.42 292.207 261.42ZM292.207 258.242C293.56 258.251 294.685 257.953 295.581 257.346C296.486 256.739 297.163 255.885 297.611 254.784C298.068 253.683 298.297 252.395 298.297 250.92C298.297 249.445 298.068 248.167 297.611 247.084C297.163 245.992 296.486 245.143 295.581 244.536C294.685 243.929 293.56 243.617 292.207 243.598C290.853 243.589 289.729 243.887 288.833 244.494C287.937 245.101 287.26 245.955 286.803 247.056C286.355 248.157 286.131 249.445 286.131 250.92C286.131 252.395 286.355 253.678 286.803 254.77C287.251 255.853 287.923 256.697 288.819 257.304C289.724 257.911 290.853 258.223 292.207 258.242ZM304.653 261V240.84H312.983C313.179 240.84 313.431 240.849 313.739 240.868C314.047 240.877 314.332 240.905 314.593 240.952C315.76 241.129 316.721 241.517 317.477 242.114C318.243 242.711 318.807 243.467 319.171 244.382C319.545 245.287 319.731 246.295 319.731 247.406C319.731 249.049 319.316 250.463 318.485 251.648C317.655 252.824 316.381 253.552 314.663 253.832L313.221 253.958H308.027V261H304.653ZM316.231 261L312.255 252.796L315.685 252.04L320.053 261H316.231ZM308.027 250.808H312.843C313.03 250.808 313.24 250.799 313.473 250.78C313.707 250.761 313.921 250.724 314.117 250.668C314.677 250.528 315.116 250.281 315.433 249.926C315.76 249.571 315.989 249.17 316.119 248.722C316.259 248.274 316.329 247.835 316.329 247.406C316.329 246.977 316.259 246.538 316.119 246.09C315.989 245.633 315.76 245.227 315.433 244.872C315.116 244.517 314.677 244.27 314.117 244.13C313.921 244.074 313.707 244.041 313.473 244.032C313.24 244.013 313.03 244.004 312.843 244.004H308.027V250.808ZM323.418 261V240.84H326.792V257.836H335.696V261H323.418ZM338.067 261V240.84H344.493C344.661 240.84 344.993 240.845 345.487 240.854C345.991 240.863 346.477 240.896 346.943 240.952C348.539 241.157 349.888 241.727 350.989 242.66C352.1 243.584 352.94 244.765 353.509 246.202C354.079 247.639 354.363 249.212 354.363 250.92C354.363 252.628 354.079 254.201 353.509 255.638C352.94 257.075 352.1 258.261 350.989 259.194C349.888 260.118 348.539 260.683 346.943 260.888C346.486 260.944 346.005 260.977 345.501 260.986C344.997 260.995 344.661 261 344.493 261H338.067ZM341.497 257.822H344.493C344.773 257.822 345.128 257.813 345.557 257.794C345.996 257.775 346.383 257.733 346.719 257.668C347.671 257.491 348.446 257.066 349.043 256.394C349.641 255.722 350.079 254.905 350.359 253.944C350.649 252.983 350.793 251.975 350.793 250.92C350.793 249.828 350.649 248.801 350.359 247.84C350.07 246.879 349.622 246.071 349.015 245.418C348.418 244.765 347.653 244.349 346.719 244.172C346.383 244.097 345.996 244.055 345.557 244.046C345.128 244.027 344.773 244.018 344.493 244.018H341.497V257.822ZM367.534 261L361.64 240.84H365.182L369.2 255.4L373.204 240.868L376.746 240.84L380.764 255.4L384.768 240.84H388.31L382.43 261H379.098L374.968 246.664L370.866 261H367.534ZM390.595 261V240.84H393.969V249.324H403.517V240.84H406.877V261H403.517V252.488H393.969V261H390.595ZM410.802 261V240.84H423.822V244.004H414.176V248.974H422.142V252.138H414.176V257.836H423.822V261H410.802ZM427.181 261V240.84H435.511C435.707 240.84 435.959 240.849 436.267 240.868C436.575 240.877 436.859 240.905 437.121 240.952C438.287 241.129 439.249 241.517 440.005 242.114C440.77 242.711 441.335 243.467 441.699 244.382C442.072 245.287 442.259 246.295 442.259 247.406C442.259 249.049 441.843 250.463 441.013 251.648C440.182 252.824 438.908 253.552 437.191 253.832L435.749 253.958H430.555V261H427.181ZM438.759 261L434.783 252.796L438.213 252.04L442.581 261H438.759ZM430.555 250.808H435.371C435.557 250.808 435.767 250.799 436.001 250.78C436.234 250.761 436.449 250.724 436.645 250.668C437.205 250.528 437.643 250.281 437.961 249.926C438.287 249.571 438.516 249.17 438.647 248.722C438.787 248.274 438.857 247.835 438.857 247.406C438.857 246.977 438.787 246.538 438.647 246.09C438.516 245.633 438.287 245.227 437.961 244.872C437.643 244.517 437.205 244.27 436.645 244.13C436.449 244.074 436.234 244.041 436.001 244.032C435.767 244.013 435.557 244.004 435.371 244.004H430.555V250.808ZM445.665 261V240.84H458.685V244.004H449.039V248.974H457.005V252.138H449.039V257.836H458.685V261H445.665ZM158.111 300V279.84H161.485V300H158.111ZM170.523 300V283.004H163.999V279.84H180.421V283.004H173.897V300H170.523ZM182.379 284.88V279.84H185.753V284.88H182.379ZM196.027 300.42C194.553 300.42 193.223 300.163 192.037 299.65C190.861 299.137 189.891 298.404 189.125 297.452C188.369 296.491 187.889 295.352 187.683 294.036L191.183 293.504C191.482 294.699 192.093 295.623 193.017 296.276C193.951 296.929 195.024 297.256 196.237 297.256C196.956 297.256 197.633 297.144 198.267 296.92C198.902 296.696 199.415 296.369 199.807 295.94C200.209 295.511 200.409 294.983 200.409 294.358C200.409 294.078 200.363 293.821 200.269 293.588C200.176 293.345 200.036 293.131 199.849 292.944C199.672 292.757 199.439 292.589 199.149 292.44C198.869 292.281 198.543 292.146 198.169 292.034L192.961 290.494C192.513 290.363 192.028 290.191 191.505 289.976C190.992 289.752 190.502 289.449 190.035 289.066C189.578 288.674 189.2 288.179 188.901 287.582C188.612 286.975 188.467 286.229 188.467 285.342C188.467 284.045 188.794 282.957 189.447 282.08C190.11 281.193 190.997 280.531 192.107 280.092C193.227 279.653 194.469 279.439 195.831 279.448C197.213 279.457 198.445 279.695 199.527 280.162C200.61 280.619 201.515 281.287 202.243 282.164C202.971 283.041 203.485 284.101 203.783 285.342L200.157 285.972C200.008 285.263 199.719 284.661 199.289 284.166C198.869 283.662 198.351 283.279 197.735 283.018C197.129 282.757 196.48 282.617 195.789 282.598C195.117 282.589 194.492 282.691 193.913 282.906C193.344 283.111 192.882 283.41 192.527 283.802C192.182 284.194 192.009 284.651 192.009 285.174C192.009 285.669 192.159 286.075 192.457 286.392C192.756 286.7 193.125 286.947 193.563 287.134C194.011 287.311 194.464 287.461 194.921 287.582L198.533 288.59C199.028 288.721 199.583 288.898 200.199 289.122C200.815 289.346 201.408 289.659 201.977 290.06C202.547 290.461 203.013 290.989 203.377 291.642C203.751 292.295 203.937 293.126 203.937 294.134C203.937 295.179 203.718 296.099 203.279 296.892C202.85 297.676 202.267 298.329 201.529 298.852C200.792 299.375 199.947 299.767 198.995 300.028C198.053 300.289 197.063 300.42 196.027 300.42ZM211.173 300L217.529 279.84H222.471L228.827 300H225.355L219.587 281.912H220.343L214.645 300H211.173ZM214.715 295.632V292.482H225.299V295.632H214.715ZM231.638 300V279.84H235.012V296.836H243.916V300H231.638ZM248.302 300L242.408 279.84H245.95L249.968 294.4L253.972 279.868L257.514 279.84L261.532 294.4L265.536 279.84H269.078L263.198 300H259.866L255.736 285.664L251.634 300H248.302ZM267.994 300L274.35 279.84H279.292L285.648 300H282.176L276.408 281.912H277.164L271.466 300H267.994ZM271.536 295.632V292.482H282.12V295.632H271.536ZM291.411 300V291.74L284.551 279.84H288.485L293.119 287.876L297.739 279.84H301.673L294.827 291.74V300H291.411ZM310.242 300.42C308.768 300.42 307.438 300.163 306.252 299.65C305.076 299.137 304.106 298.404 303.34 297.452C302.584 296.491 302.104 295.352 301.898 294.036L305.398 293.504C305.697 294.699 306.308 295.623 307.232 296.276C308.166 296.929 309.239 297.256 310.452 297.256C311.171 297.256 311.848 297.144 312.482 296.92C313.117 296.696 313.63 296.369 314.022 295.94C314.424 295.511 314.624 294.983 314.624 294.358C314.624 294.078 314.578 293.821 314.484 293.588C314.391 293.345 314.251 293.131 314.064 292.944C313.887 292.757 313.654 292.589 313.364 292.44C313.084 292.281 312.758 292.146 312.384 292.034L307.176 290.494C306.728 290.363 306.243 290.191 305.72 289.976C305.207 289.752 304.717 289.449 304.25 289.066C303.793 288.674 303.415 288.179 303.116 287.582C302.827 286.975 302.682 286.229 302.682 285.342C302.682 284.045 303.009 282.957 303.662 282.08C304.325 281.193 305.212 280.531 306.322 280.092C307.442 279.653 308.684 279.439 310.046 279.448C311.428 279.457 312.66 279.695 313.742 280.162C314.825 280.619 315.73 281.287 316.458 282.164C317.186 283.041 317.7 284.101 317.998 285.342L314.372 285.972C314.223 285.263 313.934 284.661 313.504 284.166C313.084 283.662 312.566 283.279 311.95 283.018C311.344 282.757 310.695 282.617 310.004 282.598C309.332 282.589 308.707 282.691 308.128 282.906C307.559 283.111 307.097 283.41 306.742 283.802C306.397 284.194 306.224 284.651 306.224 285.174C306.224 285.669 306.374 286.075 306.672 286.392C306.971 286.7 307.34 286.947 307.778 287.134C308.226 287.311 308.679 287.461 309.136 287.582L312.748 288.59C313.243 288.721 313.798 288.898 314.414 289.122C315.03 289.346 315.623 289.659 316.192 290.06C316.762 290.461 317.228 290.989 317.592 291.642C317.966 292.295 318.152 293.126 318.152 294.134C318.152 295.179 317.933 296.099 317.494 296.892C317.065 297.676 316.482 298.329 315.744 298.852C315.007 299.375 314.162 299.767 313.21 300.028C312.268 300.289 311.278 300.42 310.242 300.42ZM326.788 300V279.84H333.214C333.382 279.84 333.713 279.845 334.208 279.854C334.712 279.863 335.197 279.896 335.664 279.952C337.26 280.157 338.609 280.727 339.71 281.66C340.821 282.584 341.661 283.765 342.23 285.202C342.799 286.639 343.084 288.212 343.084 289.92C343.084 291.628 342.799 293.201 342.23 294.638C341.661 296.075 340.821 297.261 339.71 298.194C338.609 299.118 337.26 299.683 335.664 299.888C335.207 299.944 334.726 299.977 334.222 299.986C333.718 299.995 333.382 300 333.214 300H326.788ZM330.218 296.822H333.214C333.494 296.822 333.849 296.813 334.278 296.794C334.717 296.775 335.104 296.733 335.44 296.668C336.392 296.491 337.167 296.066 337.764 295.394C338.361 294.722 338.8 293.905 339.08 292.944C339.369 291.983 339.514 290.975 339.514 289.92C339.514 288.828 339.369 287.801 339.08 286.84C338.791 285.879 338.343 285.071 337.736 284.418C337.139 283.765 336.373 283.349 335.44 283.172C335.104 283.097 334.717 283.055 334.278 283.046C333.849 283.027 333.494 283.018 333.214 283.018H330.218V296.822ZM344.447 300L350.803 279.84H355.745L362.101 300H358.629L352.861 281.912H353.617L347.919 300H344.447ZM347.989 295.632V292.482H358.573V295.632H347.989ZM367.864 300V291.74L361.004 279.84H364.938L369.572 287.876L374.192 279.84H378.126L371.28 291.74V300H367.864ZM385.773 300V283.004H379.249V279.84H395.671V283.004H389.147V300H385.773ZM398.189 300V279.84H401.563V300H398.189ZM405.757 300V279.84H408.795L415.767 294.12L422.739 279.84H425.777V300H422.627V287.078L416.439 300H415.095L408.921 287.078V300H405.757ZM429.71 300V279.84H442.73V283.004H433.084V287.974H441.05V291.138H433.084V296.836H442.73V300H429.71Z" fill="white"></path> <rect y="475" width="600" height="300" rx="20" fill="#9D50BB"></rect> <path d="M101.82 616L108.176 595.84H113.118L119.474 616H116.002L110.234 597.912H110.99L105.292 616H101.82ZM105.362 611.632V608.482H115.946V611.632H105.362ZM131.866 616L125.972 595.84H129.514L133.532 610.4L137.536 595.868L141.078 595.84L145.096 610.4L149.1 595.84H152.642L146.762 616H143.43L139.3 601.664L135.198 616H131.866ZM162.906 616.42C160.89 616.42 159.163 615.981 157.726 615.104C156.289 614.217 155.183 612.985 154.408 611.408C153.643 609.831 153.26 608.001 153.26 605.92C153.26 603.839 153.643 602.009 154.408 600.432C155.183 598.855 156.289 597.627 157.726 596.75C159.163 595.863 160.89 595.42 162.906 595.42C164.922 595.42 166.649 595.863 168.086 596.75C169.533 597.627 170.639 598.855 171.404 600.432C172.179 602.009 172.566 603.839 172.566 605.92C172.566 608.001 172.179 609.831 171.404 611.408C170.639 612.985 169.533 614.217 168.086 615.104C166.649 615.981 164.922 616.42 162.906 616.42ZM162.906 613.242C164.259 613.251 165.384 612.953 166.28 612.346C167.185 611.739 167.862 610.885 168.31 609.784C168.767 608.683 168.996 607.395 168.996 605.92C168.996 604.445 168.767 603.167 168.31 602.084C167.862 600.992 167.185 600.143 166.28 599.536C165.384 598.929 164.259 598.617 162.906 598.598C161.553 598.589 160.428 598.887 159.532 599.494C158.636 600.101 157.959 600.955 157.502 602.056C157.054 603.157 156.83 604.445 156.83 605.92C156.83 607.395 157.054 608.678 157.502 609.77C157.95 610.853 158.622 611.697 159.518 612.304C160.423 612.911 161.553 613.223 162.906 613.242ZM175.353 616V595.84H183.683C183.879 595.84 184.131 595.849 184.439 595.868C184.747 595.877 185.031 595.905 185.293 595.952C186.459 596.129 187.421 596.517 188.177 597.114C188.942 597.711 189.507 598.467 189.871 599.382C190.244 600.287 190.431 601.295 190.431 602.406C190.431 604.049 190.015 605.463 189.185 606.648C188.354 607.824 187.08 608.552 185.363 608.832L183.921 608.958H178.727V616H175.353ZM186.931 616L182.955 607.796L186.385 607.04L190.753 616H186.931ZM178.727 605.808H183.543C183.729 605.808 183.939 605.799 184.173 605.78C184.406 605.761 184.621 605.724 184.817 605.668C185.377 605.528 185.815 605.281 186.133 604.926C186.459 604.571 186.688 604.17 186.819 603.722C186.959 603.274 187.029 602.835 187.029 602.406C187.029 601.977 186.959 601.538 186.819 601.09C186.688 600.633 186.459 600.227 186.133 599.872C185.815 599.517 185.377 599.27 184.817 599.13C184.621 599.074 184.406 599.041 184.173 599.032C183.939 599.013 183.729 599.004 183.543 599.004H178.727V605.808ZM194.117 616V595.84H197.491V612.836H206.395V616H194.117ZM208.767 616V595.84H215.193C215.361 595.84 215.692 595.845 216.187 595.854C216.691 595.863 217.176 595.896 217.643 595.952C219.239 596.157 220.587 596.727 221.689 597.66C222.799 598.584 223.639 599.765 224.209 601.202C224.778 602.639 225.063 604.212 225.063 605.92C225.063 607.628 224.778 609.201 224.209 610.638C223.639 612.075 222.799 613.261 221.689 614.194C220.587 615.118 219.239 615.683 217.643 615.888C217.185 615.944 216.705 615.977 216.201 615.986C215.697 615.995 215.361 616 215.193 616H208.767ZM212.197 612.822H215.193C215.473 612.822 215.827 612.813 216.257 612.794C216.695 612.775 217.083 612.733 217.419 612.668C218.371 612.491 219.145 612.066 219.743 611.394C220.34 610.722 220.779 609.905 221.059 608.944C221.348 607.983 221.493 606.975 221.493 605.92C221.493 604.828 221.348 603.801 221.059 602.84C220.769 601.879 220.321 601.071 219.715 600.418C219.117 599.765 218.352 599.349 217.419 599.172C217.083 599.097 216.695 599.055 216.257 599.046C215.827 599.027 215.473 599.018 215.193 599.018H212.197V612.822ZM238.234 616L232.34 595.84H235.882L239.9 610.4L243.904 595.868L247.446 595.84L251.464 610.4L255.468 595.84H259.01L253.13 616H249.798L245.668 601.664L241.566 616H238.234ZM261.294 616V595.84H264.668V604.324H274.216V595.84H277.576V616H274.216V607.488H264.668V616H261.294ZM281.501 616V595.84H294.521V599.004H284.875V603.974H292.841V607.138H284.875V612.836H294.521V616H281.501ZM297.88 616V595.84H306.21C306.406 595.84 306.658 595.849 306.966 595.868C307.274 595.877 307.559 595.905 307.82 595.952C308.987 596.129 309.948 596.517 310.704 597.114C311.469 597.711 312.034 598.467 312.398 599.382C312.771 600.287 312.958 601.295 312.958 602.406C312.958 604.049 312.543 605.463 311.712 606.648C310.881 607.824 309.607 608.552 307.89 608.832L306.448 608.958H301.254V616H297.88ZM309.458 616L305.482 607.796L308.912 607.04L313.28 616H309.458ZM301.254 605.808H306.07C306.257 605.808 306.467 605.799 306.7 605.78C306.933 605.761 307.148 605.724 307.344 605.668C307.904 605.528 308.343 605.281 308.66 604.926C308.987 604.571 309.215 604.17 309.346 603.722C309.486 603.274 309.556 602.835 309.556 602.406C309.556 601.977 309.486 601.538 309.346 601.09C309.215 600.633 308.987 600.227 308.66 599.872C308.343 599.517 307.904 599.27 307.344 599.13C307.148 599.074 306.933 599.041 306.7 599.032C306.467 599.013 306.257 599.004 306.07 599.004H301.254V605.808ZM316.364 616V595.84H329.384V599.004H319.738V603.974H327.704V607.138H319.738V612.836H329.384V616H316.364ZM338.629 616V595.84H342.003V616H338.629ZM351.04 616V599.004H344.516V595.84H360.938V599.004H354.414V616H351.04ZM362.897 600.88V595.84H366.271V600.88H362.897ZM376.545 616.42C375.07 616.42 373.74 616.163 372.555 615.65C371.379 615.137 370.408 614.404 369.643 613.452C368.887 612.491 368.406 611.352 368.201 610.036L371.701 609.504C372 610.699 372.611 611.623 373.535 612.276C374.468 612.929 375.542 613.256 376.755 613.256C377.474 613.256 378.15 613.144 378.785 612.92C379.42 612.696 379.933 612.369 380.325 611.94C380.726 611.511 380.927 610.983 380.927 610.358C380.927 610.078 380.88 609.821 380.787 609.588C380.694 609.345 380.554 609.131 380.367 608.944C380.19 608.757 379.956 608.589 379.667 608.44C379.387 608.281 379.06 608.146 378.687 608.034L373.479 606.494C373.031 606.363 372.546 606.191 372.023 605.976C371.51 605.752 371.02 605.449 370.553 605.066C370.096 604.674 369.718 604.179 369.419 603.582C369.13 602.975 368.985 602.229 368.985 601.342C368.985 600.045 369.312 598.957 369.965 598.08C370.628 597.193 371.514 596.531 372.625 596.092C373.745 595.653 374.986 595.439 376.349 595.448C377.73 595.457 378.962 595.695 380.045 596.162C381.128 596.619 382.033 597.287 382.761 598.164C383.489 599.041 384.002 600.101 384.301 601.342L380.675 601.972C380.526 601.263 380.236 600.661 379.807 600.166C379.387 599.662 378.869 599.279 378.253 599.018C377.646 598.757 376.998 598.617 376.307 598.598C375.635 598.589 375.01 598.691 374.431 598.906C373.862 599.111 373.4 599.41 373.045 599.802C372.7 600.194 372.527 600.651 372.527 601.174C372.527 601.669 372.676 602.075 372.975 602.392C373.274 602.7 373.642 602.947 374.081 603.134C374.529 603.311 374.982 603.461 375.439 603.582L379.051 604.59C379.546 604.721 380.101 604.898 380.717 605.122C381.333 605.346 381.926 605.659 382.495 606.06C383.064 606.461 383.531 606.989 383.895 607.642C384.268 608.295 384.455 609.126 384.455 610.134C384.455 611.179 384.236 612.099 383.797 612.892C383.368 613.676 382.784 614.329 382.047 614.852C381.31 615.375 380.465 615.767 379.513 616.028C378.57 616.289 377.581 616.42 376.545 616.42ZM391.691 616L398.047 595.84H402.989L409.345 616H405.873L400.105 597.912H400.861L395.163 616H391.691ZM395.233 611.632V608.482H405.817V611.632H395.233ZM412.156 616V595.84H415.53V612.836H424.434V616H412.156ZM428.82 616L422.926 595.84H426.468L430.486 610.4L434.49 595.868L438.032 595.84L442.05 610.4L446.054 595.84H449.596L443.716 616H440.384L436.254 601.664L432.152 616H428.82ZM448.511 616L454.867 595.84H459.809L466.165 616H462.693L456.925 597.912H457.681L451.983 616H448.511ZM452.053 611.632V608.482H462.637V611.632H452.053ZM471.928 616V607.74L465.068 595.84H469.002L473.636 603.876L478.256 595.84H482.19L475.344 607.74V616H471.928ZM490.76 616.42C489.285 616.42 487.955 616.163 486.77 615.65C485.594 615.137 484.623 614.404 483.858 613.452C483.102 612.491 482.621 611.352 482.416 610.036L485.916 609.504C486.215 610.699 486.826 611.623 487.75 612.276C488.683 612.929 489.757 613.256 490.97 613.256C491.689 613.256 492.365 613.144 493 612.92C493.635 612.696 494.148 612.369 494.54 611.94C494.941 611.511 495.142 610.983 495.142 610.358C495.142 610.078 495.095 609.821 495.002 609.588C494.909 609.345 494.769 609.131 494.582 608.944C494.405 608.757 494.171 608.589 493.882 608.44C493.602 608.281 493.275 608.146 492.902 608.034L487.694 606.494C487.246 606.363 486.761 606.191 486.238 605.976C485.725 605.752 485.235 605.449 484.768 605.066C484.311 604.674 483.933 604.179 483.634 603.582C483.345 602.975 483.2 602.229 483.2 601.342C483.2 600.045 483.527 598.957 484.18 598.08C484.843 597.193 485.729 596.531 486.84 596.092C487.96 595.653 489.201 595.439 490.564 595.448C491.945 595.457 493.177 595.695 494.26 596.162C495.343 596.619 496.248 597.287 496.976 598.164C497.704 599.041 498.217 600.101 498.516 601.342L494.89 601.972C494.741 601.263 494.451 600.661 494.022 600.166C493.602 599.662 493.084 599.279 492.468 599.018C491.861 598.757 491.213 598.617 490.522 598.598C489.85 598.589 489.225 598.691 488.646 598.906C488.077 599.111 487.615 599.41 487.26 599.802C486.915 600.194 486.742 600.651 486.742 601.174C486.742 601.669 486.891 602.075 487.19 602.392C487.489 602.7 487.857 602.947 488.296 603.134C488.744 603.311 489.197 603.461 489.654 603.582L493.266 604.59C493.761 604.721 494.316 604.898 494.932 605.122C495.548 605.346 496.141 605.659 496.71 606.06C497.279 606.461 497.746 606.989 498.11 607.642C498.483 608.295 498.67 609.126 498.67 610.134C498.67 611.179 498.451 612.099 498.012 612.892C497.583 613.676 496.999 614.329 496.262 614.852C495.525 615.375 494.68 615.767 493.728 616.028C492.785 616.289 491.796 616.42 490.76 616.42ZM226.226 655V634.84H229.642L238.994 649.05V634.84H242.41V655H238.994L229.642 640.79V655H226.226ZM246.603 655V634.84H249.977V655H246.603ZM262.487 655.42C261.18 655.42 259.953 655.191 258.805 654.734C257.666 654.267 256.663 653.586 255.795 652.69C254.936 651.794 254.264 650.697 253.779 649.4C253.294 648.093 253.051 646.6 253.051 644.92C253.051 642.717 253.462 640.837 254.283 639.278C255.104 637.71 256.229 636.511 257.657 635.68C259.085 634.84 260.695 634.42 262.487 634.42C264.97 634.42 266.934 634.999 268.381 636.156C269.837 637.304 270.822 638.919 271.335 641L267.891 641.546C267.508 640.351 266.883 639.399 266.015 638.69C265.147 637.971 264.041 637.612 262.697 637.612C261.344 637.593 260.219 637.887 259.323 638.494C258.427 639.101 257.75 639.955 257.293 641.056C256.845 642.157 256.621 643.445 256.621 644.92C256.621 646.395 256.845 647.678 257.293 648.77C257.741 649.853 258.413 650.697 259.309 651.304C260.214 651.911 261.344 652.223 262.697 652.242C263.714 652.251 264.606 652.069 265.371 651.696C266.136 651.313 266.762 650.739 267.247 649.974C267.732 649.199 268.059 648.233 268.227 647.076H264.671V644.43H271.811C271.83 644.579 271.844 644.799 271.853 645.088C271.862 645.377 271.867 645.55 271.867 645.606C271.867 647.51 271.489 649.204 270.733 650.688C269.986 652.163 268.913 653.32 267.513 654.16C266.113 655 264.438 655.42 262.487 655.42ZM274.679 655V634.84H278.053V643.324H287.601V634.84H290.961V655H287.601V646.488H278.053V655H274.679ZM299.73 655V638.004H293.206V634.84H309.628V638.004H303.104V655H299.73ZM318.378 655V638.004H311.854V634.84H328.276V638.004H321.752V655H318.378ZM330.795 655V634.84H334.169V655H330.795ZM338.362 655V634.84H341.4L348.372 649.12L355.344 634.84H358.382V655H355.232V642.078L349.044 655H347.7L341.526 642.078V655H338.362ZM362.315 655V634.84H375.335V638.004H365.689V642.974H373.655V646.138H365.689V651.836H375.335V655H362.315Z" fill="white"></path> <circle cx="300" cy="448" r="60" fill="#F9F9F9"></circle> <path d="M288.777 461.51C286.329 461.51 284.232 460.977 282.487 459.912C280.742 458.835 279.399 457.339 278.458 455.424C277.529 453.509 277.064 451.287 277.064 448.76C277.064 446.233 277.529 444.011 278.458 442.096C279.399 440.181 280.742 438.69 282.487 437.625C284.232 436.548 286.329 436.01 288.777 436.01C291.225 436.01 293.322 436.548 295.067 437.625C296.824 438.69 298.167 440.181 299.096 442.096C300.037 444.011 300.507 446.233 300.507 448.76C300.507 451.287 300.037 453.509 299.096 455.424C298.167 457.339 296.824 458.835 295.067 459.912C293.322 460.977 291.225 461.51 288.777 461.51ZM288.777 457.651C290.42 457.662 291.786 457.3 292.874 456.563C293.973 455.826 294.795 454.789 295.339 453.452C295.894 452.115 296.172 450.551 296.172 448.76C296.172 446.969 295.894 445.417 295.339 444.102C294.795 442.776 293.973 441.745 292.874 441.008C291.786 440.271 290.42 439.892 288.777 439.869C287.134 439.858 285.768 440.22 284.68 440.957C283.592 441.694 282.77 442.731 282.215 444.068C281.671 445.405 281.399 446.969 281.399 448.76C281.399 450.551 281.671 452.109 282.215 453.435C282.759 454.75 283.575 455.775 284.663 456.512C285.762 457.249 287.134 457.628 288.777 457.651ZM303.891 461V436.52H314.006C314.244 436.52 314.55 436.531 314.924 436.554C315.298 436.565 315.643 436.599 315.961 436.656C317.377 436.871 318.545 437.342 319.463 438.067C320.392 438.792 321.078 439.71 321.52 440.821C321.973 441.92 322.2 443.144 322.2 444.493C322.2 446.488 321.695 448.205 320.687 449.644C319.678 451.072 318.131 451.956 316.046 452.296L314.295 452.449H307.988V461H303.891ZM317.95 461L313.122 451.038L317.287 450.12L322.591 461H317.95ZM307.988 448.624H313.836C314.062 448.624 314.317 448.613 314.601 448.59C314.884 448.567 315.145 448.522 315.383 448.454C316.063 448.284 316.595 447.984 316.981 447.553C317.377 447.122 317.655 446.635 317.814 446.091C317.984 445.547 318.069 445.014 318.069 444.493C318.069 443.972 317.984 443.439 317.814 442.895C317.655 442.34 317.377 441.847 316.981 441.416C316.595 440.985 316.063 440.685 315.383 440.515C315.145 440.447 314.884 440.407 314.601 440.396C314.317 440.373 314.062 440.362 313.836 440.362H307.988V448.624Z" fill="#3E1BC9"></path> </svg> 