<?xml version="1.0" encoding="UTF-8"?> <svg xmlns="http://www.w3.org/2000/svg" width="600" height="775" viewBox="0 0 600 775" fill="none"> <rect width="600" height="775" rx="20" fill="#F9F9F9"></rect> <path d="M129.614 73L122.457 48.52H126.758L131.637 66.2L136.499 48.554L140.8 48.52L145.679 66.2L150.541 48.52H154.842L147.702 73H143.656L138.641 55.592L133.66 73H129.614ZM167.305 73.51C164.857 73.51 162.761 72.9773 161.015 71.912C159.27 70.8353 157.927 69.3393 156.986 67.424C156.057 65.5087 155.592 63.2873 155.592 60.76C155.592 58.2327 156.057 56.0113 156.986 54.096C157.927 52.1807 159.27 50.6903 161.015 49.625C162.761 48.5483 164.857 48.01 167.305 48.01C169.753 48.01 171.85 48.5483 173.595 49.625C175.352 50.6903 176.695 52.1807 177.624 54.096C178.565 56.0113 179.035 58.2327 179.035 60.76C179.035 63.2873 178.565 65.5087 177.624 67.424C176.695 69.3393 175.352 70.8353 173.595 71.912C171.85 72.9773 169.753 73.51 167.305 73.51ZM167.305 69.651C168.949 69.6623 170.314 69.2997 171.402 68.563C172.502 67.8263 173.323 66.7893 173.867 65.452C174.423 64.1147 174.7 62.5507 174.7 60.76C174.7 58.9693 174.423 57.4167 173.867 56.102C173.323 54.776 172.502 53.7447 171.402 53.008C170.314 52.2713 168.949 51.8917 167.305 51.869C165.662 51.8577 164.296 52.2203 163.208 52.957C162.12 53.6937 161.299 54.7307 160.743 56.068C160.199 57.4053 159.927 58.9693 159.927 60.76C159.927 62.5507 160.199 64.109 160.743 65.435C161.287 66.7497 162.103 67.7753 163.191 68.512C164.291 69.2487 165.662 69.6283 167.305 69.651ZM192.279 73.51C190.33 73.51 188.613 73.1133 187.128 72.32C185.655 71.5267 184.499 70.4103 183.66 68.971C182.833 67.5317 182.419 65.843 182.419 63.905V48.554L186.567 48.52V63.803C186.567 64.721 186.72 65.5427 187.026 66.268C187.343 66.9933 187.768 67.611 188.301 68.121C188.834 68.6197 189.446 68.9993 190.137 69.26C190.828 69.5207 191.542 69.651 192.279 69.651C193.038 69.651 193.758 69.5207 194.438 69.26C195.129 68.988 195.741 68.6027 196.274 68.104C196.807 67.594 197.226 66.9763 197.532 66.251C197.838 65.5257 197.991 64.7097 197.991 63.803V48.52H202.139V63.905C202.139 65.843 201.72 67.5317 200.881 68.971C200.054 70.4103 198.898 71.5267 197.413 72.32C195.94 73.1133 194.228 73.51 192.279 73.51ZM207.23 73V48.52H211.327V69.158H222.139V73H207.23ZM225.019 73V48.52H232.822C233.026 48.52 233.428 48.5257 234.029 48.537C234.641 48.5483 235.23 48.588 235.797 48.656C237.735 48.9053 239.372 49.5967 240.71 50.73C242.058 51.852 243.078 53.2857 243.77 55.031C244.461 56.7763 244.807 58.686 244.807 60.76C244.807 62.834 244.461 64.7437 243.77 66.489C243.078 68.2343 242.058 69.6737 240.71 70.807C239.372 71.929 237.735 72.6147 235.797 72.864C235.241 72.932 234.658 72.9717 234.046 72.983C233.434 72.9943 233.026 73 232.822 73H225.019ZM229.184 69.141H232.822C233.162 69.141 233.592 69.1297 234.114 69.107C234.646 69.0843 235.117 69.0333 235.525 68.954C236.681 68.7387 237.621 68.223 238.347 67.407C239.072 66.591 239.605 65.5993 239.945 64.432C240.296 63.2647 240.472 62.0407 240.472 60.76C240.472 59.434 240.296 58.1873 239.945 57.02C239.593 55.8527 239.049 54.8723 238.313 54.079C237.587 53.2857 236.658 52.7813 235.525 52.566C235.117 52.4753 234.646 52.4243 234.114 52.413C233.592 52.3903 233.162 52.379 232.822 52.379H229.184V69.141ZM261.582 73V62.97L253.252 48.52H258.029L263.656 58.278L269.266 48.52H274.043L265.73 62.97V73H261.582ZM285.409 73.51C282.961 73.51 280.864 72.9773 279.119 71.912C277.373 70.8353 276.03 69.3393 275.09 67.424C274.16 65.5087 273.696 63.2873 273.696 60.76C273.696 58.2327 274.16 56.0113 275.09 54.096C276.03 52.1807 277.373 50.6903 279.119 49.625C280.864 48.5483 282.961 48.01 285.409 48.01C287.857 48.01 289.953 48.5483 291.699 49.625C293.455 50.6903 294.798 52.1807 295.728 54.096C296.668 56.0113 297.139 58.2327 297.139 60.76C297.139 63.2873 296.668 65.5087 295.728 67.424C294.798 69.3393 293.455 70.8353 291.699 71.912C289.953 72.9773 287.857 73.51 285.409 73.51ZM285.409 69.651C287.052 69.6623 288.418 69.2997 289.506 68.563C290.605 67.8263 291.427 66.7893 291.971 65.452C292.526 64.1147 292.804 62.5507 292.804 60.76C292.804 58.9693 292.526 57.4167 291.971 56.102C291.427 54.776 290.605 53.7447 289.506 53.008C288.418 52.2713 287.052 51.8917 285.409 51.869C283.765 51.8577 282.4 52.2203 281.312 52.957C280.224 53.6937 279.402 54.7307 278.847 56.068C278.303 57.4053 278.031 58.9693 278.031 60.76C278.031 62.5507 278.303 64.109 278.847 65.435C279.391 66.7497 280.207 67.7753 281.295 68.512C282.394 69.2487 283.765 69.6283 285.409 69.651ZM310.383 73.51C308.433 73.51 306.716 73.1133 305.232 72.32C303.758 71.5267 302.602 70.4103 301.764 68.971C300.936 67.5317 300.523 65.843 300.523 63.905V48.554L304.671 48.52V63.803C304.671 64.721 304.824 65.5427 305.13 66.268C305.447 66.9933 305.872 67.611 306.405 68.121C306.937 68.6197 307.549 68.9993 308.241 69.26C308.932 69.5207 309.646 69.651 310.383 69.651C311.142 69.651 311.862 69.5207 312.542 69.26C313.233 68.988 313.845 68.6027 314.378 68.104C314.91 67.594 315.33 66.9763 315.636 66.251C315.942 65.5257 316.095 64.7097 316.095 63.803V48.52H320.243V63.905C320.243 65.843 319.823 67.5317 318.985 68.971C318.157 70.4103 317.001 71.5267 315.517 72.32C314.043 73.1133 312.332 73.51 310.383 73.51ZM331.8 73V48.52H341.915C342.153 48.52 342.459 48.5313 342.833 48.554C343.207 48.5653 343.553 48.5993 343.87 48.656C345.287 48.8713 346.454 49.3417 347.372 50.067C348.301 50.7923 348.987 51.7103 349.429 52.821C349.882 53.9203 350.109 55.1443 350.109 56.493C350.109 58.4877 349.605 60.2047 348.596 61.644C347.587 63.072 346.04 63.956 343.955 64.296L342.204 64.449H335.897V73H331.8ZM345.859 73L341.031 63.038L345.196 62.12L350.5 73H345.859ZM335.897 60.624H341.745C341.972 60.624 342.227 60.6127 342.51 60.59C342.793 60.5673 343.054 60.522 343.292 60.454C343.972 60.284 344.505 59.9837 344.89 59.553C345.287 59.1223 345.564 58.635 345.723 58.091C345.893 57.547 345.978 57.0143 345.978 56.493C345.978 55.9717 345.893 55.439 345.723 54.895C345.564 54.3397 345.287 53.8467 344.89 53.416C344.505 52.9853 343.972 52.685 343.292 52.515C343.054 52.447 342.793 52.4073 342.51 52.396C342.227 52.3733 341.972 52.362 341.745 52.362H335.897V60.624ZM352.545 73L360.263 48.52H366.264L373.982 73H369.766L362.762 51.036H363.68L356.761 73H352.545ZM356.846 67.696V63.871H369.698V67.696H356.846ZM380.912 73V52.362H372.99V48.52H392.931V52.362H385.009V73H380.912ZM395.65 73V48.52H399.747V58.822H411.341V48.52H415.421V73H411.341V62.664H399.747V73H395.65ZM420.187 73V48.52H435.997V52.362H424.284V58.397H433.957V62.239H424.284V69.158H435.997V73H420.187ZM440.075 73V48.52H450.19C450.428 48.52 450.734 48.5313 451.108 48.554C451.482 48.5653 451.828 48.5993 452.145 48.656C453.562 48.8713 454.729 49.3417 455.647 50.067C456.577 50.7923 457.262 51.7103 457.704 52.821C458.158 53.9203 458.384 55.1443 458.384 56.493C458.384 58.4877 457.88 60.2047 456.871 61.644C455.863 63.072 454.316 63.956 452.23 64.296L450.479 64.449H444.172V73H440.075ZM454.134 73L449.306 63.038L453.471 62.12L458.775 73H454.134ZM444.172 60.624H450.02C450.247 60.624 450.502 60.6127 450.785 60.59C451.069 60.5673 451.329 60.522 451.567 60.454C452.247 60.284 452.78 59.9837 453.165 59.553C453.562 59.1223 453.84 58.635 453.998 58.091C454.168 57.547 454.253 57.0143 454.253 56.493C454.253 55.9717 454.168 55.439 453.998 54.895C453.84 54.3397 453.562 53.8467 453.165 53.416C452.78 52.9853 452.247 52.685 451.567 52.515C451.329 52.447 451.069 52.4073 450.785 52.396C450.502 52.3733 450.247 52.362 450.02 52.362H444.172V60.624ZM466.958 66.353C466.958 65.571 467.031 64.8173 467.179 64.092C467.337 63.3553 467.592 62.6753 467.944 62.052C468.25 61.4513 468.59 60.9753 468.964 60.624C469.338 60.2613 469.757 59.9043 470.222 59.553C470.686 59.1903 471.202 58.7087 471.769 58.108C472.233 57.598 472.539 57.0937 472.687 56.595C472.834 56.085 472.908 55.541 472.908 54.963C472.908 54.589 472.868 54.2377 472.789 53.909C472.709 53.5803 472.568 53.297 472.364 53.059C472.046 52.6397 471.638 52.345 471.14 52.175C470.641 51.9937 470.108 51.903 469.542 51.903C469.077 51.903 468.629 51.9653 468.199 52.09C467.779 52.2033 467.422 52.3847 467.128 52.634C466.788 52.906 466.538 53.2403 466.38 53.637C466.221 54.0337 466.147 54.47 466.159 54.946H461.841C461.954 53.8127 462.26 52.7643 462.759 51.801C463.269 50.8263 463.937 50.05 464.765 49.472C465.411 48.996 466.136 48.639 466.941 48.401C467.757 48.163 468.573 48.044 469.389 48.044C470.635 48.044 471.808 48.2367 472.908 48.622C474.018 49.0073 474.942 49.642 475.679 50.526C476.189 51.104 476.574 51.7727 476.835 52.532C477.107 53.2913 477.243 54.062 477.243 54.844C477.243 56.0113 476.988 57.0767 476.478 58.04C475.979 59.0033 475.344 59.893 474.574 60.709C474.211 61.0943 473.865 61.4343 473.537 61.729C473.208 62.0237 472.902 62.3127 472.619 62.596C472.347 62.868 472.12 63.157 471.939 63.463C471.621 63.9957 471.434 64.449 471.378 64.823C471.321 65.1857 471.293 65.6957 471.293 66.353H466.958ZM466.992 73V68.495H471.293V73H466.992Z" fill="#3E1BC9"></path> <rect y="120" width="600" height="300" rx="20" fill="#3E1BC9"></rect> <path d="M90.1553 261V240.84H93.5293V249.324H103.077V240.84H106.437V261H103.077V252.488H93.5293V261H90.1553ZM108.962 261L115.318 240.84H120.26L126.616 261H123.144L117.376 242.912H118.132L112.434 261H108.962ZM112.504 256.632V253.482H123.088V256.632H112.504ZM131.715 261L125.359 240.84H128.831L134.151 257.724L139.541 240.84H143.013L136.657 261H131.715ZM145.116 261V240.84H158.136V244.004H148.49V248.974H156.456V252.138H148.49V257.836H158.136V261H145.116ZM171.945 261V244.004H165.421V240.84H181.843V244.004H175.319V261H171.945ZM184.081 261V240.84H187.455V249.324H197.003V240.84H200.363V261H197.003V252.488H187.455V261H184.081ZM204.288 261V240.84H217.308V244.004H207.662V248.974H215.628V252.138H207.662V257.836H217.308V261H204.288ZM226.273 261V240.84H234.603C234.799 240.84 235.051 240.849 235.359 240.868C235.667 240.877 235.951 240.905 236.213 240.952C237.379 241.129 238.341 241.517 239.096 242.114C239.862 242.711 240.427 243.467 240.791 244.382C241.164 245.287 241.351 246.295 241.351 247.406C241.351 248.507 241.164 249.515 240.791 250.43C240.417 251.335 239.848 252.087 239.083 252.684C238.327 253.281 237.37 253.669 236.213 253.846C235.951 253.883 235.662 253.911 235.345 253.93C235.037 253.949 234.789 253.958 234.603 253.958H229.647V261H226.273ZM229.647 250.808H234.463C234.649 250.808 234.859 250.799 235.093 250.78C235.326 250.761 235.541 250.724 235.737 250.668C236.297 250.528 236.735 250.281 237.053 249.926C237.379 249.571 237.608 249.17 237.739 248.722C237.879 248.274 237.949 247.835 237.949 247.406C237.949 246.977 237.879 246.538 237.739 246.09C237.608 245.633 237.379 245.227 237.053 244.872C236.735 244.517 236.297 244.27 235.737 244.13C235.541 244.074 235.326 244.041 235.093 244.032C234.859 244.013 234.649 244.004 234.463 244.004H229.647V250.808ZM252.681 261.42C250.665 261.42 248.939 260.981 247.501 260.104C246.064 259.217 244.958 257.985 244.183 256.408C243.418 254.831 243.035 253.001 243.035 250.92C243.035 248.839 243.418 247.009 244.183 245.432C244.958 243.855 246.064 242.627 247.501 241.75C248.939 240.863 250.665 240.42 252.681 240.42C254.697 240.42 256.424 240.863 257.861 241.75C259.308 242.627 260.414 243.855 261.179 245.432C261.954 247.009 262.341 248.839 262.341 250.92C262.341 253.001 261.954 254.831 261.179 256.408C260.414 257.985 259.308 259.217 257.861 260.104C256.424 260.981 254.697 261.42 252.681 261.42ZM252.681 258.242C254.035 258.251 255.159 257.953 256.055 257.346C256.961 256.739 257.637 255.885 258.085 254.784C258.543 253.683 258.771 252.395 258.771 250.92C258.771 249.445 258.543 248.167 258.085 247.084C257.637 245.992 256.961 245.143 256.055 244.536C255.159 243.929 254.035 243.617 252.681 243.598C251.328 243.589 250.203 243.887 249.307 244.494C248.411 245.101 247.735 245.955 247.277 247.056C246.829 248.157 246.605 249.445 246.605 250.92C246.605 252.395 246.829 253.678 247.277 254.77C247.725 255.853 248.397 256.697 249.293 257.304C250.199 257.911 251.328 258.223 252.681 258.242ZM268.536 261L262.642 240.84H266.184L270.202 255.4L274.206 240.868L277.748 240.84L281.766 255.4L285.77 240.84H289.312L283.432 261H280.1L275.97 246.664L271.868 261H268.536ZM291.597 261V240.84H304.617V244.004H294.971V248.974H302.937V252.138H294.971V257.836H304.617V261H291.597ZM307.976 261V240.84H316.306C316.502 240.84 316.754 240.849 317.062 240.868C317.37 240.877 317.654 240.905 317.916 240.952C319.082 241.129 320.044 241.517 320.8 242.114C321.565 242.711 322.13 243.467 322.494 244.382C322.867 245.287 323.054 246.295 323.054 247.406C323.054 249.049 322.638 250.463 321.808 251.648C320.977 252.824 319.703 253.552 317.986 253.832L316.544 253.958H311.35V261H307.976ZM319.554 261L315.578 252.796L319.008 252.04L323.376 261H319.554ZM311.35 250.808H316.166C316.352 250.808 316.562 250.799 316.796 250.78C317.029 250.761 317.244 250.724 317.44 250.668C318 250.528 318.438 250.281 318.756 249.926C319.082 249.571 319.311 249.17 319.442 248.722C319.582 248.274 319.652 247.835 319.652 247.406C319.652 246.977 319.582 246.538 319.442 246.09C319.311 245.633 319.082 245.227 318.756 244.872C318.438 244.517 318 244.27 317.44 244.13C317.244 244.074 317.029 244.041 316.796 244.032C316.562 244.013 316.352 244.004 316.166 244.004H311.35V250.808ZM336.909 261V244.004H330.385V240.84H346.807V244.004H340.283V261H336.909ZM357.572 261.42C355.556 261.42 353.829 260.981 352.392 260.104C350.955 259.217 349.849 257.985 349.074 256.408C348.309 254.831 347.926 253.001 347.926 250.92C347.926 248.839 348.309 247.009 349.074 245.432C349.849 243.855 350.955 242.627 352.392 241.75C353.829 240.863 355.556 240.42 357.572 240.42C359.588 240.42 361.315 240.863 362.752 241.75C364.199 242.627 365.305 243.855 366.07 245.432C366.845 247.009 367.232 248.839 367.232 250.92C367.232 253.001 366.845 254.831 366.07 256.408C365.305 257.985 364.199 259.217 362.752 260.104C361.315 260.981 359.588 261.42 357.572 261.42ZM357.572 258.242C358.925 258.251 360.05 257.953 360.946 257.346C361.851 256.739 362.528 255.885 362.976 254.784C363.433 253.683 363.662 252.395 363.662 250.92C363.662 249.445 363.433 248.167 362.976 247.084C362.528 245.992 361.851 245.143 360.946 244.536C360.05 243.929 358.925 243.617 357.572 243.598C356.219 243.589 355.094 243.887 354.198 244.494C353.302 245.101 352.625 245.955 352.168 247.056C351.72 248.157 351.496 249.445 351.496 250.92C351.496 252.395 351.72 253.678 352.168 254.77C352.616 255.853 353.288 256.697 354.184 257.304C355.089 257.911 356.219 258.223 357.572 258.242ZM380.468 261V244.004H373.944V240.84H390.366V244.004H383.842V261H380.468ZM392.605 261V240.84H405.625V244.004H395.979V248.974H403.945V252.138H395.979V257.836H405.625V261H392.605ZM409.263 261V240.84H412.637V257.836H421.541V261H409.263ZM423.913 261V240.84H436.933V244.004H427.287V248.974H435.253V252.138H427.287V257.836H436.933V261H423.913ZM440.292 261V240.84H448.622C448.818 240.84 449.07 240.849 449.378 240.868C449.686 240.877 449.971 240.905 450.232 240.952C451.399 241.129 452.36 241.517 453.116 242.114C453.881 242.711 454.446 243.467 454.81 244.382C455.183 245.287 455.37 246.295 455.37 247.406C455.37 248.507 455.183 249.515 454.81 250.43C454.437 251.335 453.867 252.087 453.102 252.684C452.346 253.281 451.389 253.669 450.232 253.846C449.971 253.883 449.681 253.911 449.364 253.93C449.056 253.949 448.809 253.958 448.622 253.958H443.666V261H440.292ZM443.666 250.808H448.482C448.669 250.808 448.879 250.799 449.112 250.78C449.345 250.761 449.56 250.724 449.756 250.668C450.316 250.528 450.755 250.281 451.072 249.926C451.399 249.571 451.627 249.17 451.758 248.722C451.898 248.274 451.968 247.835 451.968 247.406C451.968 246.977 451.898 246.538 451.758 246.09C451.627 245.633 451.399 245.227 451.072 244.872C450.755 244.517 450.316 244.27 449.756 244.13C449.56 244.074 449.345 244.041 449.112 244.032C448.879 244.013 448.669 244.004 448.482 244.004H443.666V250.808ZM466.701 261.42C464.685 261.42 462.958 260.981 461.521 260.104C460.084 259.217 458.978 257.985 458.203 256.408C457.438 254.831 457.055 253.001 457.055 250.92C457.055 248.839 457.438 247.009 458.203 245.432C458.978 243.855 460.084 242.627 461.521 241.75C462.958 240.863 464.685 240.42 466.701 240.42C468.717 240.42 470.444 240.863 471.881 241.75C473.328 242.627 474.434 243.855 475.199 245.432C475.974 247.009 476.361 248.839 476.361 250.92C476.361 253.001 475.974 254.831 475.199 256.408C474.434 257.985 473.328 259.217 471.881 260.104C470.444 260.981 468.717 261.42 466.701 261.42ZM466.701 258.242C468.054 258.251 469.179 257.953 470.075 257.346C470.98 256.739 471.657 255.885 472.105 254.784C472.562 253.683 472.791 252.395 472.791 250.92C472.791 249.445 472.562 248.167 472.105 247.084C471.657 245.992 470.98 245.143 470.075 244.536C469.179 243.929 468.054 243.617 466.701 243.598C465.348 243.589 464.223 243.887 463.327 244.494C462.431 245.101 461.754 245.955 461.297 247.056C460.849 248.157 460.625 249.445 460.625 250.92C460.625 252.395 460.849 253.678 461.297 254.77C461.745 255.853 462.417 256.697 463.313 257.304C464.218 257.911 465.348 258.223 466.701 258.242ZM479.148 261V240.84H487.478C487.674 240.84 487.926 240.849 488.234 240.868C488.542 240.877 488.826 240.905 489.088 240.952C490.254 241.129 491.216 241.517 491.971 242.114C492.737 242.711 493.302 243.467 493.666 244.382C494.039 245.287 494.226 246.295 494.226 247.406C494.226 249.049 493.81 250.463 492.98 251.648C492.149 252.824 490.875 253.552 489.158 253.832L487.716 253.958H482.522V261H479.148ZM490.726 261L486.75 252.796L490.18 252.04L494.548 261H490.726ZM482.522 250.808H487.338C487.524 250.808 487.734 250.799 487.968 250.78C488.201 250.761 488.416 250.724 488.612 250.668C489.172 250.528 489.61 250.281 489.928 249.926C490.254 249.571 490.483 249.17 490.614 248.722C490.754 248.274 490.824 247.835 490.824 247.406C490.824 246.977 490.754 246.538 490.614 246.09C490.483 245.633 490.254 245.227 489.928 244.872C489.61 244.517 489.172 244.27 488.612 244.13C488.416 244.074 488.201 244.041 487.968 244.032C487.734 244.013 487.524 244.004 487.338 244.004H482.522V250.808ZM502.476 261V244.004H495.952V240.84H512.374V244.004H505.85V261H502.476ZM146.423 300L152.779 279.84H157.721L164.077 300H160.605L154.837 281.912H155.593L149.895 300H146.423ZM149.965 295.632V292.482H160.549V295.632H149.965ZM166.608 300V279.84H170.024L179.376 294.05V279.84H182.792V300H179.376L170.024 285.79V300H166.608ZM191.606 300V291.74L184.746 279.84H188.68L193.314 287.876L197.934 279.84H201.868L195.022 291.74V300H191.606ZM208.079 300L202.185 279.84H205.727L209.745 294.4L213.749 279.868L217.291 279.84L221.309 294.4L225.313 279.84H228.855L222.975 300H219.643L215.513 285.664L211.411 300H208.079ZM231.14 300V279.84H234.514V288.324H244.062V279.84H247.422V300H244.062V291.488H234.514V300H231.14ZM251.347 300V279.84H264.367V283.004H254.721V287.974H262.687V291.138H254.721V296.836H264.367V300H251.347ZM267.726 300V279.84H276.056C276.252 279.84 276.504 279.849 276.812 279.868C277.12 279.877 277.404 279.905 277.666 279.952C278.832 280.129 279.794 280.517 280.55 281.114C281.315 281.711 281.88 282.467 282.244 283.382C282.617 284.287 282.804 285.295 282.804 286.406C282.804 288.049 282.388 289.463 281.558 290.648C280.727 291.824 279.453 292.552 277.736 292.832L276.294 292.958H271.1V300H267.726ZM279.304 300L275.328 291.796L278.758 291.04L283.126 300H279.304ZM271.1 289.808H275.916C276.102 289.808 276.312 289.799 276.546 289.78C276.779 289.761 276.994 289.724 277.19 289.668C277.75 289.528 278.188 289.281 278.506 288.926C278.832 288.571 279.061 288.17 279.192 287.722C279.332 287.274 279.402 286.835 279.402 286.406C279.402 285.977 279.332 285.538 279.192 285.09C279.061 284.633 278.832 284.227 278.506 283.872C278.188 283.517 277.75 283.27 277.19 283.13C276.994 283.074 276.779 283.041 276.546 283.032C276.312 283.013 276.102 283.004 275.916 283.004H271.1V289.808ZM286.21 300V279.84H299.23V283.004H289.584V287.974H297.55V291.138H289.584V296.836H299.23V300H286.21ZM308.474 300V279.84H311.848V300H308.474ZM316.042 300V279.84H319.458L328.81 294.05V279.84H332.226V300H328.81L319.458 285.79V300H316.042ZM343.602 300.42C342.127 300.42 340.797 300.163 339.612 299.65C338.436 299.137 337.465 298.404 336.7 297.452C335.944 296.491 335.463 295.352 335.258 294.036L338.758 293.504C339.056 294.699 339.668 295.623 340.592 296.276C341.525 296.929 342.598 297.256 343.812 297.256C344.53 297.256 345.207 297.144 345.842 296.92C346.476 296.696 346.99 296.369 347.382 295.94C347.783 295.511 347.984 294.983 347.984 294.358C347.984 294.078 347.937 293.821 347.844 293.588C347.75 293.345 347.61 293.131 347.424 292.944C347.246 292.757 347.013 292.589 346.724 292.44C346.444 292.281 346.117 292.146 345.744 292.034L340.536 290.494C340.088 290.363 339.602 290.191 339.08 289.976C338.566 289.752 338.076 289.449 337.61 289.066C337.152 288.674 336.774 288.179 336.476 287.582C336.186 286.975 336.042 286.229 336.042 285.342C336.042 284.045 336.368 282.957 337.022 282.08C337.684 281.193 338.571 280.531 339.682 280.092C340.802 279.653 342.043 279.439 343.406 279.448C344.787 279.457 346.019 279.695 347.102 280.162C348.184 280.619 349.09 281.287 349.818 282.164C350.546 283.041 351.059 284.101 351.358 285.342L347.732 285.972C347.582 285.263 347.293 284.661 346.864 284.166C346.444 283.662 345.926 283.279 345.31 283.018C344.703 282.757 344.054 282.617 343.364 282.598C342.692 282.589 342.066 282.691 341.488 282.906C340.918 283.111 340.456 283.41 340.102 283.802C339.756 284.194 339.584 284.651 339.584 285.174C339.584 285.669 339.733 286.075 340.032 286.392C340.33 286.7 340.699 286.947 341.138 287.134C341.586 287.311 342.038 287.461 342.496 287.582L346.108 288.59C346.602 288.721 347.158 288.898 347.774 289.122C348.39 289.346 348.982 289.659 349.552 290.06C350.121 290.461 350.588 290.989 350.952 291.642C351.325 292.295 351.512 293.126 351.512 294.134C351.512 295.179 351.292 296.099 350.854 296.892C350.424 297.676 349.841 298.329 349.104 298.852C348.366 299.375 347.522 299.767 346.57 300.028C345.627 300.289 344.638 300.42 343.602 300.42ZM359.386 300V283.004H352.862V279.84H369.284V283.004H362.76V300H359.386ZM369.576 300L375.932 279.84H380.874L387.23 300H383.758L377.99 281.912H378.746L373.048 300H369.576ZM373.118 295.632V292.482H383.702V295.632H373.118ZM389.761 300V279.84H393.177L402.529 294.05V279.84H405.945V300H402.529L393.177 285.79V300H389.761ZM414.702 300V283.004H408.178V279.84H424.6V283.004H418.076V300H414.702ZM427.119 300V279.84H430.493V296.836H439.397V300H427.119ZM443.88 300V291.74L437.02 279.84H440.954L445.588 287.876L450.208 279.84H454.142L447.296 291.74V300H443.88Z" fill="white"></path> <rect y="475" width="600" height="300" rx="20" fill="#5199FF"></rect> <path d="M105.134 636V615.84H113.128C114.49 615.84 115.606 616.115 116.474 616.666C117.351 617.207 118 617.903 118.42 618.752C118.849 619.601 119.064 620.479 119.064 621.384C119.064 622.495 118.798 623.437 118.266 624.212C117.743 624.987 117.029 625.509 116.124 625.78V625.08C117.393 625.369 118.354 625.971 119.008 626.886C119.67 627.801 120.002 628.841 120.002 630.008C120.002 631.203 119.773 632.248 119.316 633.144C118.858 634.04 118.177 634.74 117.272 635.244C116.376 635.748 115.265 636 113.94 636H105.134ZM108.55 632.822H113.52C114.108 632.822 114.635 632.705 115.102 632.472C115.568 632.229 115.932 631.893 116.194 631.464C116.464 631.025 116.6 630.507 116.6 629.91C116.6 629.369 116.483 628.883 116.25 628.454C116.016 628.025 115.676 627.684 115.228 627.432C114.78 627.171 114.243 627.04 113.618 627.04H108.55V632.822ZM108.55 623.89H113.086C113.571 623.89 114.005 623.797 114.388 623.61C114.77 623.423 115.074 623.148 115.298 622.784C115.522 622.42 115.634 621.972 115.634 621.44C115.634 620.74 115.41 620.157 114.962 619.69C114.514 619.223 113.888 618.99 113.086 618.99H108.55V623.89ZM122.798 636V615.84H135.818V619.004H126.172V623.974H134.138V627.138H126.172V632.836H135.818V636H122.798ZM143.382 636L149.738 615.84H154.68L161.036 636H157.564L151.796 617.912H152.552L146.854 636H143.382ZM146.924 631.632V628.482H157.508V631.632H146.924ZM163.567 636V615.84H171.561C172.924 615.84 174.039 616.115 174.907 616.666C175.785 617.207 176.433 617.903 176.853 618.752C177.283 619.601 177.497 620.479 177.497 621.384C177.497 622.495 177.231 623.437 176.699 624.212C176.177 624.987 175.463 625.509 174.557 625.78V625.08C175.827 625.369 176.788 625.971 177.441 626.886C178.104 627.801 178.435 628.841 178.435 630.008C178.435 631.203 178.207 632.248 177.749 633.144C177.292 634.04 176.611 634.74 175.705 635.244C174.809 635.748 173.699 636 172.373 636H163.567ZM166.983 632.822H171.953C172.541 632.822 173.069 632.705 173.535 632.472C174.002 632.229 174.366 631.893 174.627 631.464C174.898 631.025 175.033 630.507 175.033 629.91C175.033 629.369 174.917 628.883 174.683 628.454C174.45 628.025 174.109 627.684 173.661 627.432C173.213 627.171 172.677 627.04 172.051 627.04H166.983V632.822ZM166.983 623.89H171.519C172.005 623.89 172.439 623.797 172.821 623.61C173.204 623.423 173.507 623.148 173.731 622.784C173.955 622.42 174.067 621.972 174.067 621.44C174.067 620.74 173.843 620.157 173.395 619.69C172.947 619.223 172.322 618.99 171.519 618.99H166.983V623.89ZM181.511 636V615.84H184.885V632.836H193.789V636H181.511ZM196.161 636V615.84H209.181V619.004H199.535V623.974H207.501V627.138H199.535V632.836H209.181V636H196.161ZM222.99 636V619.004H216.466V615.84H232.888V619.004H226.364V636H222.99ZM243.652 636.42C241.636 636.42 239.909 635.981 238.472 635.104C237.035 634.217 235.929 632.985 235.154 631.408C234.389 629.831 234.006 628.001 234.006 625.92C234.006 623.839 234.389 622.009 235.154 620.432C235.929 618.855 237.035 617.627 238.472 616.75C239.909 615.863 241.636 615.42 243.652 615.42C245.668 615.42 247.395 615.863 248.832 616.75C250.279 617.627 251.385 618.855 252.15 620.432C252.925 622.009 253.312 623.839 253.312 625.92C253.312 628.001 252.925 629.831 252.15 631.408C251.385 632.985 250.279 634.217 248.832 635.104C247.395 635.981 245.668 636.42 243.652 636.42ZM243.652 633.242C245.005 633.251 246.13 632.953 247.026 632.346C247.931 631.739 248.608 630.885 249.056 629.784C249.513 628.683 249.742 627.395 249.742 625.92C249.742 624.445 249.513 623.167 249.056 622.084C248.608 620.992 247.931 620.143 247.026 619.536C246.13 618.929 245.005 618.617 243.652 618.598C242.299 618.589 241.174 618.887 240.278 619.494C239.382 620.101 238.705 620.955 238.248 622.056C237.8 623.157 237.576 624.445 237.576 625.92C237.576 627.395 237.8 628.678 238.248 629.77C238.696 630.853 239.368 631.697 240.264 632.304C241.169 632.911 242.299 633.223 243.652 633.242ZM270.23 636.42C268.214 636.42 266.487 635.981 265.05 635.104C263.613 634.217 262.507 632.985 261.732 631.408C260.967 629.831 260.584 628.001 260.584 625.92C260.584 623.839 260.967 622.009 261.732 620.432C262.507 618.855 263.613 617.627 265.05 616.75C266.487 615.863 268.214 615.42 270.23 615.42C272.554 615.42 274.491 616.003 276.04 617.17C277.589 618.327 278.677 619.891 279.302 621.86L275.9 622.798C275.508 621.482 274.841 620.455 273.898 619.718C272.955 618.971 271.733 618.598 270.23 618.598C268.877 618.598 267.747 618.901 266.842 619.508C265.946 620.115 265.269 620.969 264.812 622.07C264.364 623.162 264.135 624.445 264.126 625.92C264.126 627.395 264.35 628.683 264.798 629.784C265.255 630.876 265.937 631.725 266.842 632.332C267.747 632.939 268.877 633.242 270.23 633.242C271.733 633.242 272.955 632.869 273.898 632.122C274.841 631.375 275.508 630.349 275.9 629.042L279.302 629.98C278.677 631.949 277.589 633.517 276.04 634.684C274.491 635.841 272.554 636.42 270.23 636.42ZM282.656 636V615.84H286.03V632.836H294.934V636H282.656ZM305.285 636.42C303.269 636.42 301.542 635.981 300.105 635.104C298.667 634.217 297.561 632.985 296.787 631.408C296.021 629.831 295.639 628.001 295.639 625.92C295.639 623.839 296.021 622.009 296.787 620.432C297.561 618.855 298.667 617.627 300.105 616.75C301.542 615.863 303.269 615.42 305.285 615.42C307.301 615.42 309.027 615.863 310.465 616.75C311.911 617.627 313.017 618.855 313.783 620.432C314.557 622.009 314.945 623.839 314.945 625.92C314.945 628.001 314.557 629.831 313.783 631.408C313.017 632.985 311.911 634.217 310.465 635.104C309.027 635.981 307.301 636.42 305.285 636.42ZM305.285 633.242C306.638 633.251 307.763 632.953 308.659 632.346C309.564 631.739 310.241 630.885 310.689 629.784C311.146 628.683 311.375 627.395 311.375 625.92C311.375 624.445 311.146 623.167 310.689 622.084C310.241 620.992 309.564 620.143 308.659 619.536C307.763 618.929 306.638 618.617 305.285 618.598C303.931 618.589 302.807 618.887 301.911 619.494C301.015 620.101 300.338 620.955 299.881 622.056C299.433 623.157 299.209 624.445 299.209 625.92C299.209 627.395 299.433 628.678 299.881 629.77C300.329 630.853 301.001 631.697 301.897 632.304C302.802 632.911 303.931 633.223 305.285 633.242ZM317.731 636V615.84H321.147L330.499 630.05V615.84H333.915V636H330.499L321.147 621.79V636H317.731ZM337.829 636V615.84H350.849V619.004H341.203V623.974H349.169V627.138H341.203V632.836H350.849V636H337.829ZM364.714 636V627.74L357.854 615.84H361.788L366.422 623.876L371.042 615.84H374.976L368.13 627.74V636H364.714ZM384.336 636.42C382.32 636.42 380.593 635.981 379.156 635.104C377.718 634.217 376.612 632.985 375.838 631.408C375.072 629.831 374.69 628.001 374.69 625.92C374.69 623.839 375.072 622.009 375.838 620.432C376.612 618.855 377.718 617.627 379.156 616.75C380.593 615.863 382.32 615.42 384.336 615.42C386.352 615.42 388.078 615.863 389.516 616.75C390.962 617.627 392.068 618.855 392.834 620.432C393.608 622.009 393.996 623.839 393.996 625.92C393.996 628.001 393.608 629.831 392.834 631.408C392.068 632.985 390.962 634.217 389.516 635.104C388.078 635.981 386.352 636.42 384.336 636.42ZM384.336 633.242C385.689 633.251 386.814 632.953 387.71 632.346C388.615 631.739 389.292 630.885 389.74 629.784C390.197 628.683 390.426 627.395 390.426 625.92C390.426 624.445 390.197 623.167 389.74 622.084C389.292 620.992 388.615 620.143 387.71 619.536C386.814 618.929 385.689 618.617 384.336 618.598C382.982 618.589 381.858 618.887 380.962 619.494C380.066 620.101 379.389 620.955 378.932 622.056C378.484 623.157 378.26 624.445 378.26 625.92C378.26 627.395 378.484 628.678 378.932 629.77C379.38 630.853 380.052 631.697 380.948 632.304C381.853 632.911 382.982 633.223 384.336 633.242ZM404.902 636.42C403.297 636.42 401.883 636.093 400.66 635.44C399.447 634.787 398.495 633.867 397.804 632.682C397.123 631.497 396.782 630.106 396.782 628.51V615.868L400.198 615.84V628.426C400.198 629.182 400.324 629.859 400.576 630.456C400.838 631.053 401.188 631.562 401.626 631.982C402.065 632.393 402.569 632.705 403.138 632.92C403.708 633.135 404.296 633.242 404.902 633.242C405.528 633.242 406.12 633.135 406.68 632.92C407.25 632.696 407.754 632.379 408.192 631.968C408.631 631.548 408.976 631.039 409.228 630.442C409.48 629.845 409.606 629.173 409.606 628.426V615.84H413.022V628.51C413.022 630.106 412.677 631.497 411.986 632.682C411.305 633.867 410.353 634.787 409.13 635.44C407.917 636.093 406.508 636.42 404.902 636.42ZM416.935 636V615.84H425.265C425.461 615.84 425.713 615.849 426.021 615.868C426.329 615.877 426.613 615.905 426.875 615.952C428.041 616.129 429.003 616.517 429.759 617.114C430.524 617.711 431.089 618.467 431.453 619.382C431.826 620.287 432.013 621.295 432.013 622.406C432.013 624.049 431.597 625.463 430.767 626.648C429.936 627.824 428.662 628.552 426.945 628.832L425.503 628.958H420.309V636H416.935ZM428.513 636L424.537 627.796L427.967 627.04L432.335 636H428.513ZM420.309 625.808H425.125C425.311 625.808 425.521 625.799 425.755 625.78C425.988 625.761 426.203 625.724 426.399 625.668C426.959 625.528 427.397 625.281 427.715 624.926C428.041 624.571 428.27 624.17 428.401 623.722C428.541 623.274 428.611 622.835 428.611 622.406C428.611 621.977 428.541 621.538 428.401 621.09C428.27 620.633 428.041 620.227 427.715 619.872C427.397 619.517 426.959 619.27 426.399 619.13C426.203 619.074 425.988 619.041 425.755 619.032C425.521 619.013 425.311 619.004 425.125 619.004H420.309V625.808ZM442.881 636.42C441.406 636.42 440.076 636.163 438.891 635.65C437.715 635.137 436.744 634.404 435.979 633.452C435.223 632.491 434.742 631.352 434.537 630.036L438.037 629.504C438.336 630.699 438.947 631.623 439.871 632.276C440.804 632.929 441.878 633.256 443.091 633.256C443.81 633.256 444.486 633.144 445.121 632.92C445.756 632.696 446.269 632.369 446.661 631.94C447.062 631.511 447.263 630.983 447.263 630.358C447.263 630.078 447.216 629.821 447.123 629.588C447.03 629.345 446.89 629.131 446.703 628.944C446.526 628.757 446.292 628.589 446.003 628.44C445.723 628.281 445.396 628.146 445.023 628.034L439.815 626.494C439.367 626.363 438.882 626.191 438.359 625.976C437.846 625.752 437.356 625.449 436.889 625.066C436.432 624.674 436.054 624.179 435.755 623.582C435.466 622.975 435.321 622.229 435.321 621.342C435.321 620.045 435.648 618.957 436.301 618.08C436.964 617.193 437.85 616.531 438.961 616.092C440.081 615.653 441.322 615.439 442.685 615.448C444.066 615.457 445.298 615.695 446.381 616.162C447.464 616.619 448.369 617.287 449.097 618.164C449.825 619.041 450.338 620.101 450.637 621.342L447.011 621.972C446.862 621.263 446.572 620.661 446.143 620.166C445.723 619.662 445.205 619.279 444.589 619.018C443.982 618.757 443.334 618.617 442.643 618.598C441.971 618.589 441.346 618.691 440.767 618.906C440.198 619.111 439.736 619.41 439.381 619.802C439.036 620.194 438.863 620.651 438.863 621.174C438.863 621.669 439.012 622.075 439.311 622.392C439.61 622.7 439.978 622.947 440.417 623.134C440.865 623.311 441.318 623.461 441.775 623.582L445.387 624.59C445.882 624.721 446.437 624.898 447.053 625.122C447.669 625.346 448.262 625.659 448.831 626.06C449.4 626.461 449.867 626.989 450.231 627.642C450.604 628.295 450.791 629.126 450.791 630.134C450.791 631.179 450.572 632.099 450.133 632.892C449.704 633.676 449.12 634.329 448.383 634.852C447.646 635.375 446.801 635.767 445.849 636.028C444.906 636.289 443.917 636.42 442.881 636.42ZM453.821 636V615.84H466.841V619.004H457.195V623.974H465.161V627.138H457.195V632.836H466.841V636H453.821ZM470.48 636V615.84H473.854V632.836H482.758V636H470.48ZM485.13 636V615.84H497.268V619.214H488.504V624.24H495.588V627.6H488.504V636H485.13Z" fill="white"></path> <circle cx="300" cy="448" r="60" fill="#F9F9F9"></circle> <path d="M288.777 461.51C286.329 461.51 284.232 460.977 282.487 459.912C280.742 458.835 279.399 457.339 278.458 455.424C277.529 453.509 277.064 451.287 277.064 448.76C277.064 446.233 277.529 444.011 278.458 442.096C279.399 440.181 280.742 438.69 282.487 437.625C284.232 436.548 286.329 436.01 288.777 436.01C291.225 436.01 293.322 436.548 295.067 437.625C296.824 438.69 298.167 440.181 299.096 442.096C300.037 444.011 300.507 446.233 300.507 448.76C300.507 451.287 300.037 453.509 299.096 455.424C298.167 457.339 296.824 458.835 295.067 459.912C293.322 460.977 291.225 461.51 288.777 461.51ZM288.777 457.651C290.42 457.662 291.786 457.3 292.874 456.563C293.973 455.826 294.795 454.789 295.339 453.452C295.894 452.115 296.172 450.551 296.172 448.76C296.172 446.969 295.894 445.417 295.339 444.102C294.795 442.776 293.973 441.745 292.874 441.008C291.786 440.271 290.42 439.892 288.777 439.869C287.134 439.858 285.768 440.22 284.68 440.957C283.592 441.694 282.77 442.731 282.215 444.068C281.671 445.405 281.399 446.969 281.399 448.76C281.399 450.551 281.671 452.109 282.215 453.435C282.759 454.75 283.575 455.775 284.663 456.512C285.762 457.249 287.134 457.628 288.777 457.651ZM303.891 461V436.52H314.006C314.244 436.52 314.55 436.531 314.924 436.554C315.298 436.565 315.643 436.599 315.961 436.656C317.377 436.871 318.545 437.342 319.463 438.067C320.392 438.792 321.078 439.71 321.52 440.821C321.973 441.92 322.2 443.144 322.2 444.493C322.2 446.488 321.695 448.205 320.687 449.644C319.678 451.072 318.131 451.956 316.046 452.296L314.295 452.449H307.988V461H303.891ZM317.95 461L313.122 451.038L317.287 450.12L322.591 461H317.95ZM307.988 448.624H313.836C314.062 448.624 314.317 448.613 314.601 448.59C314.884 448.567 315.145 448.522 315.383 448.454C316.063 448.284 316.595 447.984 316.981 447.553C317.377 447.122 317.655 446.635 317.814 446.091C317.984 445.547 318.069 445.014 318.069 444.493C318.069 443.972 317.984 443.439 317.814 442.895C317.655 442.34 317.377 441.847 316.981 441.416C316.595 440.985 316.063 440.685 315.383 440.515C315.145 440.447 314.884 440.407 314.601 440.396C314.317 440.373 314.062 440.362 313.836 440.362H307.988V448.624Z" fill="#3E1BC9"></path> </svg> 