<?xml version="1.0" encoding="UTF-8"?> <svg xmlns="http://www.w3.org/2000/svg" width="600" height="775" viewBox="0 0 600 775" fill="none"> <rect width="600" height="775" rx="20" fill="#F9F9F9"></rect> <path d="M129.614 73L122.457 48.52H126.758L131.637 66.2L136.499 48.554L140.8 48.52L145.679 66.2L150.541 48.52H154.842L147.702 73H143.656L138.641 55.592L133.66 73H129.614ZM167.305 73.51C164.857 73.51 162.761 72.9773 161.015 71.912C159.27 70.8353 157.927 69.3393 156.986 67.424C156.057 65.5087 155.592 63.2873 155.592 60.76C155.592 58.2327 156.057 56.0113 156.986 54.096C157.927 52.1807 159.27 50.6903 161.015 49.625C162.761 48.5483 164.857 48.01 167.305 48.01C169.753 48.01 171.85 48.5483 173.595 49.625C175.352 50.6903 176.695 52.1807 177.624 54.096C178.565 56.0113 179.035 58.2327 179.035 60.76C179.035 63.2873 178.565 65.5087 177.624 67.424C176.695 69.3393 175.352 70.8353 173.595 71.912C171.85 72.9773 169.753 73.51 167.305 73.51ZM167.305 69.651C168.949 69.6623 170.314 69.2997 171.402 68.563C172.502 67.8263 173.323 66.7893 173.867 65.452C174.423 64.1147 174.7 62.5507 174.7 60.76C174.7 58.9693 174.423 57.4167 173.867 56.102C173.323 54.776 172.502 53.7447 171.402 53.008C170.314 52.2713 168.949 51.8917 167.305 51.869C165.662 51.8577 164.296 52.2203 163.208 52.957C162.12 53.6937 161.299 54.7307 160.743 56.068C160.199 57.4053 159.927 58.9693 159.927 60.76C159.927 62.5507 160.199 64.109 160.743 65.435C161.287 66.7497 162.103 67.7753 163.191 68.512C164.291 69.2487 165.662 69.6283 167.305 69.651ZM192.279 73.51C190.33 73.51 188.613 73.1133 187.128 72.32C185.655 71.5267 184.499 70.4103 183.66 68.971C182.833 67.5317 182.419 65.843 182.419 63.905V48.554L186.567 48.52V63.803C186.567 64.721 186.72 65.5427 187.026 66.268C187.343 66.9933 187.768 67.611 188.301 68.121C188.834 68.6197 189.446 68.9993 190.137 69.26C190.828 69.5207 191.542 69.651 192.279 69.651C193.038 69.651 193.758 69.5207 194.438 69.26C195.129 68.988 195.741 68.6027 196.274 68.104C196.807 67.594 197.226 66.9763 197.532 66.251C197.838 65.5257 197.991 64.7097 197.991 63.803V48.52H202.139V63.905C202.139 65.843 201.72 67.5317 200.881 68.971C200.054 70.4103 198.898 71.5267 197.413 72.32C195.94 73.1133 194.228 73.51 192.279 73.51ZM207.23 73V48.52H211.327V69.158H222.139V73H207.23ZM225.019 73V48.52H232.822C233.026 48.52 233.428 48.5257 234.029 48.537C234.641 48.5483 235.23 48.588 235.797 48.656C237.735 48.9053 239.372 49.5967 240.71 50.73C242.058 51.852 243.078 53.2857 243.77 55.031C244.461 56.7763 244.807 58.686 244.807 60.76C244.807 62.834 244.461 64.7437 243.77 66.489C243.078 68.2343 242.058 69.6737 240.71 70.807C239.372 71.929 237.735 72.6147 235.797 72.864C235.241 72.932 234.658 72.9717 234.046 72.983C233.434 72.9943 233.026 73 232.822 73H225.019ZM229.184 69.141H232.822C233.162 69.141 233.592 69.1297 234.114 69.107C234.646 69.0843 235.117 69.0333 235.525 68.954C236.681 68.7387 237.621 68.223 238.347 67.407C239.072 66.591 239.605 65.5993 239.945 64.432C240.296 63.2647 240.472 62.0407 240.472 60.76C240.472 59.434 240.296 58.1873 239.945 57.02C239.593 55.8527 239.049 54.8723 238.313 54.079C237.587 53.2857 236.658 52.7813 235.525 52.566C235.117 52.4753 234.646 52.4243 234.114 52.413C233.592 52.3903 233.162 52.379 232.822 52.379H229.184V69.141ZM261.582 73V62.97L253.252 48.52H258.029L263.656 58.278L269.266 48.52H274.043L265.73 62.97V73H261.582ZM285.409 73.51C282.961 73.51 280.864 72.9773 279.119 71.912C277.373 70.8353 276.03 69.3393 275.09 67.424C274.16 65.5087 273.696 63.2873 273.696 60.76C273.696 58.2327 274.16 56.0113 275.09 54.096C276.03 52.1807 277.373 50.6903 279.119 49.625C280.864 48.5483 282.961 48.01 285.409 48.01C287.857 48.01 289.953 48.5483 291.699 49.625C293.455 50.6903 294.798 52.1807 295.728 54.096C296.668 56.0113 297.139 58.2327 297.139 60.76C297.139 63.2873 296.668 65.5087 295.728 67.424C294.798 69.3393 293.455 70.8353 291.699 71.912C289.953 72.9773 287.857 73.51 285.409 73.51ZM285.409 69.651C287.052 69.6623 288.418 69.2997 289.506 68.563C290.605 67.8263 291.427 66.7893 291.971 65.452C292.526 64.1147 292.804 62.5507 292.804 60.76C292.804 58.9693 292.526 57.4167 291.971 56.102C291.427 54.776 290.605 53.7447 289.506 53.008C288.418 52.2713 287.052 51.8917 285.409 51.869C283.765 51.8577 282.4 52.2203 281.312 52.957C280.224 53.6937 279.402 54.7307 278.847 56.068C278.303 57.4053 278.031 58.9693 278.031 60.76C278.031 62.5507 278.303 64.109 278.847 65.435C279.391 66.7497 280.207 67.7753 281.295 68.512C282.394 69.2487 283.765 69.6283 285.409 69.651ZM310.383 73.51C308.433 73.51 306.716 73.1133 305.232 72.32C303.758 71.5267 302.602 70.4103 301.764 68.971C300.936 67.5317 300.523 65.843 300.523 63.905V48.554L304.671 48.52V63.803C304.671 64.721 304.824 65.5427 305.13 66.268C305.447 66.9933 305.872 67.611 306.405 68.121C306.937 68.6197 307.549 68.9993 308.241 69.26C308.932 69.5207 309.646 69.651 310.383 69.651C311.142 69.651 311.862 69.5207 312.542 69.26C313.233 68.988 313.845 68.6027 314.378 68.104C314.91 67.594 315.33 66.9763 315.636 66.251C315.942 65.5257 316.095 64.7097 316.095 63.803V48.52H320.243V63.905C320.243 65.843 319.823 67.5317 318.985 68.971C318.157 70.4103 317.001 71.5267 315.517 72.32C314.043 73.1133 312.332 73.51 310.383 73.51ZM331.8 73V48.52H341.915C342.153 48.52 342.459 48.5313 342.833 48.554C343.207 48.5653 343.553 48.5993 343.87 48.656C345.287 48.8713 346.454 49.3417 347.372 50.067C348.301 50.7923 348.987 51.7103 349.429 52.821C349.882 53.9203 350.109 55.1443 350.109 56.493C350.109 58.4877 349.605 60.2047 348.596 61.644C347.587 63.072 346.04 63.956 343.955 64.296L342.204 64.449H335.897V73H331.8ZM345.859 73L341.031 63.038L345.196 62.12L350.5 73H345.859ZM335.897 60.624H341.745C341.972 60.624 342.227 60.6127 342.51 60.59C342.793 60.5673 343.054 60.522 343.292 60.454C343.972 60.284 344.505 59.9837 344.89 59.553C345.287 59.1223 345.564 58.635 345.723 58.091C345.893 57.547 345.978 57.0143 345.978 56.493C345.978 55.9717 345.893 55.439 345.723 54.895C345.564 54.3397 345.287 53.8467 344.89 53.416C344.505 52.9853 343.972 52.685 343.292 52.515C343.054 52.447 342.793 52.4073 342.51 52.396C342.227 52.3733 341.972 52.362 341.745 52.362H335.897V60.624ZM352.545 73L360.263 48.52H366.264L373.982 73H369.766L362.762 51.036H363.68L356.761 73H352.545ZM356.846 67.696V63.871H369.698V67.696H356.846ZM380.912 73V52.362H372.99V48.52H392.931V52.362H385.009V73H380.912ZM395.65 73V48.52H399.747V58.822H411.341V48.52H415.421V73H411.341V62.664H399.747V73H395.65ZM420.187 73V48.52H435.997V52.362H424.284V58.397H433.957V62.239H424.284V69.158H435.997V73H420.187ZM440.075 73V48.52H450.19C450.428 48.52 450.734 48.5313 451.108 48.554C451.482 48.5653 451.828 48.5993 452.145 48.656C453.562 48.8713 454.729 49.3417 455.647 50.067C456.577 50.7923 457.262 51.7103 457.704 52.821C458.158 53.9203 458.384 55.1443 458.384 56.493C458.384 58.4877 457.88 60.2047 456.871 61.644C455.863 63.072 454.316 63.956 452.23 64.296L450.479 64.449H444.172V73H440.075ZM454.134 73L449.306 63.038L453.471 62.12L458.775 73H454.134ZM444.172 60.624H450.02C450.247 60.624 450.502 60.6127 450.785 60.59C451.069 60.5673 451.329 60.522 451.567 60.454C452.247 60.284 452.78 59.9837 453.165 59.553C453.562 59.1223 453.84 58.635 453.998 58.091C454.168 57.547 454.253 57.0143 454.253 56.493C454.253 55.9717 454.168 55.439 453.998 54.895C453.84 54.3397 453.562 53.8467 453.165 53.416C452.78 52.9853 452.247 52.685 451.567 52.515C451.329 52.447 451.069 52.4073 450.785 52.396C450.502 52.3733 450.247 52.362 450.02 52.362H444.172V60.624ZM466.958 66.353C466.958 65.571 467.031 64.8173 467.179 64.092C467.337 63.3553 467.592 62.6753 467.944 62.052C468.25 61.4513 468.59 60.9753 468.964 60.624C469.338 60.2613 469.757 59.9043 470.222 59.553C470.686 59.1903 471.202 58.7087 471.769 58.108C472.233 57.598 472.539 57.0937 472.687 56.595C472.834 56.085 472.908 55.541 472.908 54.963C472.908 54.589 472.868 54.2377 472.789 53.909C472.709 53.5803 472.568 53.297 472.364 53.059C472.046 52.6397 471.638 52.345 471.14 52.175C470.641 51.9937 470.108 51.903 469.542 51.903C469.077 51.903 468.629 51.9653 468.199 52.09C467.779 52.2033 467.422 52.3847 467.128 52.634C466.788 52.906 466.538 53.2403 466.38 53.637C466.221 54.0337 466.147 54.47 466.159 54.946H461.841C461.954 53.8127 462.26 52.7643 462.759 51.801C463.269 50.8263 463.937 50.05 464.765 49.472C465.411 48.996 466.136 48.639 466.941 48.401C467.757 48.163 468.573 48.044 469.389 48.044C470.635 48.044 471.808 48.2367 472.908 48.622C474.018 49.0073 474.942 49.642 475.679 50.526C476.189 51.104 476.574 51.7727 476.835 52.532C477.107 53.2913 477.243 54.062 477.243 54.844C477.243 56.0113 476.988 57.0767 476.478 58.04C475.979 59.0033 475.344 59.893 474.574 60.709C474.211 61.0943 473.865 61.4343 473.537 61.729C473.208 62.0237 472.902 62.3127 472.619 62.596C472.347 62.868 472.12 63.157 471.939 63.463C471.621 63.9957 471.434 64.449 471.378 64.823C471.321 65.1857 471.293 65.6957 471.293 66.353H466.958ZM466.992 73V68.495H471.293V73H466.992Z" fill="#3E1BC9"></path> <rect y="120" width="600" height="300" rx="20" fill="#3E1BC9"></rect> <path d="M130.077 281V260.84H138.071C139.434 260.84 140.549 261.115 141.417 261.666C142.295 262.207 142.943 262.903 143.363 263.752C143.793 264.601 144.007 265.479 144.007 266.384C144.007 267.495 143.741 268.437 143.209 269.212C142.687 269.987 141.973 270.509 141.067 270.78V270.08C142.337 270.369 143.298 270.971 143.951 271.886C144.614 272.801 144.945 273.841 144.945 275.008C144.945 276.203 144.717 277.248 144.259 278.144C143.802 279.04 143.121 279.74 142.215 280.244C141.319 280.748 140.209 281 138.883 281H130.077ZM133.493 277.822H138.463C139.051 277.822 139.579 277.705 140.045 277.472C140.512 277.229 140.876 276.893 141.137 276.464C141.408 276.025 141.543 275.507 141.543 274.91C141.543 274.369 141.427 273.883 141.193 273.454C140.96 273.025 140.619 272.684 140.171 272.432C139.723 272.171 139.187 272.04 138.561 272.04H133.493V277.822ZM133.493 268.89H138.029C138.515 268.89 138.949 268.797 139.331 268.61C139.714 268.423 140.017 268.148 140.241 267.784C140.465 267.42 140.577 266.972 140.577 266.44C140.577 265.74 140.353 265.157 139.905 264.69C139.457 264.223 138.832 263.99 138.029 263.99H133.493V268.89ZM147.741 281V260.84H160.761V264.004H151.115V268.974H159.081V272.138H151.115V277.836H160.761V281H147.741ZM170.006 281V260.84H173.38V281H170.006ZM177.573 281V260.84H180.989L190.341 275.05V260.84H193.757V281H190.341L180.989 266.79V281H177.573ZM207.308 281.42C205.768 281.42 204.485 281.019 203.458 280.216C202.441 279.413 201.727 278.331 201.316 276.968L204.648 276.17C204.751 276.739 205.05 277.229 205.544 277.64C206.039 278.051 206.585 278.256 207.182 278.256C207.574 278.256 207.99 278.153 208.428 277.948C208.867 277.733 209.194 277.393 209.408 276.926C209.539 276.627 209.614 276.273 209.632 275.862C209.66 275.442 209.674 274.957 209.674 274.406V260.84H213.09V274.406C213.09 275.031 213.086 275.582 213.076 276.058C213.076 276.525 213.03 276.968 212.936 277.388C212.852 277.799 212.68 278.223 212.418 278.662C211.868 279.614 211.149 280.314 210.262 280.762C209.376 281.201 208.391 281.42 207.308 281.42ZM215.357 281L221.713 260.84H226.655L233.011 281H229.539L223.771 262.912H224.527L218.829 281H215.357ZM218.899 276.632V273.482H229.483V276.632H218.899ZM235.822 281V260.84H239.196V281H235.822ZM243.67 281V260.84H247.044V277.836H255.948V281H243.67ZM262.53 281V260.84H274.668V264.214H265.904V269.24H272.988V272.6H265.904V281H262.53ZM285.713 281.42C283.697 281.42 281.97 280.981 280.533 280.104C279.095 279.217 277.989 277.985 277.215 276.408C276.449 274.831 276.067 273.001 276.067 270.92C276.067 268.839 276.449 267.009 277.215 265.432C277.989 263.855 279.095 262.627 280.533 261.75C281.97 260.863 283.697 260.42 285.713 260.42C287.729 260.42 289.455 260.863 290.893 261.75C292.339 262.627 293.445 263.855 294.211 265.432C294.985 267.009 295.373 268.839 295.373 270.92C295.373 273.001 294.985 274.831 294.211 276.408C293.445 277.985 292.339 279.217 290.893 280.104C289.455 280.981 287.729 281.42 285.713 281.42ZM285.713 278.242C287.066 278.251 288.191 277.953 289.087 277.346C289.992 276.739 290.669 275.885 291.117 274.784C291.574 273.683 291.803 272.395 291.803 270.92C291.803 269.445 291.574 268.167 291.117 267.084C290.669 265.992 289.992 265.143 289.087 264.536C288.191 263.929 287.066 263.617 285.713 263.598C284.359 263.589 283.235 263.887 282.339 264.494C281.443 265.101 280.766 265.955 280.309 267.056C279.861 268.157 279.637 269.445 279.637 270.92C279.637 272.395 279.861 273.678 280.309 274.77C280.757 275.853 281.429 276.697 282.325 277.304C283.23 277.911 284.359 278.223 285.713 278.242ZM298.159 281V260.84H306.489C306.685 260.84 306.937 260.849 307.245 260.868C307.553 260.877 307.838 260.905 308.099 260.952C309.266 261.129 310.227 261.517 310.983 262.114C311.749 262.711 312.313 263.467 312.677 264.382C313.051 265.287 313.237 266.295 313.237 267.406C313.237 269.049 312.822 270.463 311.991 271.648C311.161 272.824 309.887 273.552 308.169 273.832L306.727 273.958H301.533V281H298.159ZM309.737 281L305.761 272.796L309.191 272.04L313.559 281H309.737ZM301.533 270.808H306.349C306.536 270.808 306.746 270.799 306.979 270.78C307.213 270.761 307.427 270.724 307.623 270.668C308.183 270.528 308.622 270.281 308.939 269.926C309.266 269.571 309.495 269.17 309.625 268.722C309.765 268.274 309.835 267.835 309.835 267.406C309.835 266.977 309.765 266.538 309.625 266.09C309.495 265.633 309.266 265.227 308.939 264.872C308.622 264.517 308.183 264.27 307.623 264.13C307.427 264.074 307.213 264.041 306.979 264.032C306.746 264.013 306.536 264.004 306.349 264.004H301.533V270.808ZM322.249 281V260.84H334.387V264.214H325.623V269.24H332.707V272.6H325.623V281H322.249ZM337.185 281V260.84H340.559V281H337.185ZM349.289 281L342.933 260.84H346.405L351.725 277.724L357.115 260.84H360.587L354.231 281H349.289ZM362.69 281V260.84H375.71V264.004H366.064V268.974H374.03V272.138H366.064V277.836H375.71V281H362.69ZM389.575 281V272.74L382.715 260.84H386.649L391.283 268.876L395.903 260.84H399.837L392.991 272.74V281H389.575ZM401.792 281V260.84H414.812V264.004H405.166V268.974H413.132V272.138H405.166V277.836H414.812V281H401.792ZM416.771 281L423.127 260.84H428.069L434.425 281H430.953L425.185 262.912H425.941L420.243 281H416.771ZM420.313 276.632V273.482H430.897V276.632H420.313ZM436.956 281V260.84H445.286C445.482 260.84 445.734 260.849 446.042 260.868C446.35 260.877 446.635 260.905 446.896 260.952C448.063 261.129 449.024 261.517 449.78 262.114C450.545 262.711 451.11 263.467 451.474 264.382C451.847 265.287 452.034 266.295 452.034 267.406C452.034 269.049 451.619 270.463 450.788 271.648C449.957 272.824 448.683 273.552 446.966 273.832L445.524 273.958H440.33V281H436.956ZM448.534 281L444.558 272.796L447.988 272.04L452.356 281H448.534ZM440.33 270.808H445.146C445.333 270.808 445.543 270.799 445.776 270.78C446.009 270.761 446.224 270.724 446.42 270.668C446.98 270.528 447.419 270.281 447.736 269.926C448.063 269.571 448.291 269.17 448.422 268.722C448.562 268.274 448.632 267.835 448.632 267.406C448.632 266.977 448.562 266.538 448.422 266.09C448.291 265.633 448.063 265.227 447.736 264.872C447.419 264.517 446.98 264.27 446.42 264.13C446.224 264.074 446.009 264.041 445.776 264.032C445.543 264.013 445.333 264.004 445.146 264.004H440.33V270.808ZM462.902 281.42C461.428 281.42 460.098 281.163 458.912 280.65C457.736 280.137 456.766 279.404 456 278.452C455.244 277.491 454.764 276.352 454.558 275.036L458.058 274.504C458.357 275.699 458.968 276.623 459.892 277.276C460.826 277.929 461.899 278.256 463.112 278.256C463.831 278.256 464.508 278.144 465.142 277.92C465.777 277.696 466.29 277.369 466.682 276.94C467.084 276.511 467.284 275.983 467.284 275.358C467.284 275.078 467.238 274.821 467.144 274.588C467.051 274.345 466.911 274.131 466.724 273.944C466.547 273.757 466.314 273.589 466.024 273.44C465.744 273.281 465.418 273.146 465.044 273.034L459.836 271.494C459.388 271.363 458.903 271.191 458.38 270.976C457.867 270.752 457.377 270.449 456.91 270.066C456.453 269.674 456.075 269.179 455.776 268.582C455.487 267.975 455.342 267.229 455.342 266.342C455.342 265.045 455.669 263.957 456.322 263.08C456.985 262.193 457.872 261.531 458.982 261.092C460.102 260.653 461.344 260.439 462.706 260.448C464.088 260.457 465.32 260.695 466.402 261.162C467.485 261.619 468.39 262.287 469.118 263.164C469.846 264.041 470.36 265.101 470.658 266.342L467.032 266.972C466.883 266.263 466.594 265.661 466.164 265.166C465.744 264.662 465.226 264.279 464.61 264.018C464.004 263.757 463.355 263.617 462.664 263.598C461.992 263.589 461.367 263.691 460.788 263.906C460.219 264.111 459.757 264.41 459.402 264.802C459.057 265.194 458.884 265.651 458.884 266.174C458.884 266.669 459.034 267.075 459.332 267.392C459.631 267.7 460 267.947 460.438 268.134C460.886 268.311 461.339 268.461 461.796 268.582L465.408 269.59C465.903 269.721 466.458 269.898 467.074 270.122C467.69 270.346 468.283 270.659 468.852 271.06C469.422 271.461 469.888 271.989 470.252 272.642C470.626 273.295 470.812 274.126 470.812 275.134C470.812 276.179 470.593 277.099 470.154 277.892C469.725 278.676 469.142 279.329 468.404 279.852C467.667 280.375 466.822 280.767 465.87 281.028C464.928 281.289 463.938 281.42 462.902 281.42Z" fill="white"></path> <rect y="475" width="600" height="300" rx="20" fill="#FC8F58"></rect> <path d="M111.532 636V615.84H119.526C120.889 615.84 122.004 616.115 122.872 616.666C123.75 617.207 124.398 617.903 124.818 618.752C125.248 619.601 125.462 620.479 125.462 621.384C125.462 622.495 125.196 623.437 124.664 624.212C124.142 624.987 123.428 625.509 122.522 625.78V625.08C123.792 625.369 124.753 625.971 125.406 626.886C126.069 627.801 126.4 628.841 126.4 630.008C126.4 631.203 126.172 632.248 125.714 633.144C125.257 634.04 124.576 634.74 123.67 635.244C122.774 635.748 121.664 636 120.338 636H111.532ZM114.948 632.822H119.918C120.506 632.822 121.034 632.705 121.5 632.472C121.967 632.229 122.331 631.893 122.592 631.464C122.863 631.025 122.998 630.507 122.998 629.91C122.998 629.369 122.882 628.883 122.648 628.454C122.415 628.025 122.074 627.684 121.626 627.432C121.178 627.171 120.642 627.04 120.016 627.04H114.948V632.822ZM114.948 623.89H119.484C119.97 623.89 120.404 623.797 120.786 623.61C121.169 623.423 121.472 623.148 121.696 622.784C121.92 622.42 122.032 621.972 122.032 621.44C122.032 620.74 121.808 620.157 121.36 619.69C120.912 619.223 120.287 618.99 119.484 618.99H114.948V623.89ZM129.196 636V615.84H142.216V619.004H132.57V623.974H140.536V627.138H132.57V632.836H142.216V636H129.196ZM151.461 636V615.84H154.835V636H151.461ZM159.028 636V615.84H162.444L171.796 630.05V615.84H175.212V636H171.796L162.444 621.79V636H159.028ZM183.331 636L189.687 615.84H194.629L200.985 636H197.513L191.745 617.912H192.501L186.803 636H183.331ZM186.873 631.632V628.482H197.457V631.632H186.873ZM217.648 636.42C215.632 636.42 213.905 635.981 212.468 635.104C211.031 634.217 209.925 632.985 209.15 631.408C208.385 629.831 208.002 628.001 208.002 625.92C208.002 623.839 208.385 622.009 209.15 620.432C209.925 618.855 211.031 617.627 212.468 616.75C213.905 615.863 215.632 615.42 217.648 615.42C219.972 615.42 221.909 616.003 223.458 617.17C225.007 618.327 226.095 619.891 226.72 621.86L223.318 622.798C222.926 621.482 222.259 620.455 221.316 619.718C220.373 618.971 219.151 618.598 217.648 618.598C216.295 618.598 215.165 618.901 214.26 619.508C213.364 620.115 212.687 620.969 212.23 622.07C211.782 623.162 211.553 624.445 211.544 625.92C211.544 627.395 211.768 628.683 212.216 629.784C212.673 630.876 213.355 631.725 214.26 632.332C215.165 632.939 216.295 633.242 217.648 633.242C219.151 633.242 220.373 632.869 221.316 632.122C222.259 631.375 222.926 630.349 223.318 629.042L226.72 629.98C226.095 631.949 225.007 633.517 223.458 634.684C221.909 635.841 219.972 636.42 217.648 636.42ZM238.32 636.42C236.304 636.42 234.577 635.981 233.14 635.104C231.703 634.217 230.597 632.985 229.822 631.408C229.057 629.831 228.674 628.001 228.674 625.92C228.674 623.839 229.057 622.009 229.822 620.432C230.597 618.855 231.703 617.627 233.14 616.75C234.577 615.863 236.304 615.42 238.32 615.42C240.336 615.42 242.063 615.863 243.5 616.75C244.947 617.627 246.053 618.855 246.818 620.432C247.593 622.009 247.98 623.839 247.98 625.92C247.98 628.001 247.593 629.831 246.818 631.408C246.053 632.985 244.947 634.217 243.5 635.104C242.063 635.981 240.336 636.42 238.32 636.42ZM238.32 633.242C239.673 633.251 240.798 632.953 241.694 632.346C242.599 631.739 243.276 630.885 243.724 629.784C244.181 628.683 244.41 627.395 244.41 625.92C244.41 624.445 244.181 623.167 243.724 622.084C243.276 620.992 242.599 620.143 241.694 619.536C240.798 618.929 239.673 618.617 238.32 618.598C236.967 618.589 235.842 618.887 234.946 619.494C234.05 620.101 233.373 620.955 232.916 622.056C232.468 623.157 232.244 624.445 232.244 625.92C232.244 627.395 232.468 628.678 232.916 629.77C233.364 630.853 234.036 631.697 234.932 632.304C235.837 632.911 236.967 633.223 238.32 633.242ZM250.767 636V615.84H253.805L260.777 630.12L267.749 615.84H270.787V636H267.637V623.078L261.449 636H260.105L253.931 623.078V636H250.767ZM273.32 636L279.676 615.84H284.618L290.974 636H287.502L281.734 617.912H282.49L276.792 636H273.32ZM276.862 631.632V628.482H287.446V631.632H276.862ZM299.11 636V615.84H311.248V619.214H302.484V624.24H309.568V627.6H302.484V636H299.11ZM322.293 636.42C320.277 636.42 318.55 635.981 317.113 635.104C315.675 634.217 314.569 632.985 313.795 631.408C313.029 629.831 312.647 628.001 312.647 625.92C312.647 623.839 313.029 622.009 313.795 620.432C314.569 618.855 315.675 617.627 317.113 616.75C318.55 615.863 320.277 615.42 322.293 615.42C324.309 615.42 326.035 615.863 327.473 616.75C328.919 617.627 330.025 618.855 330.791 620.432C331.565 622.009 331.953 623.839 331.953 625.92C331.953 628.001 331.565 629.831 330.791 631.408C330.025 632.985 328.919 634.217 327.473 635.104C326.035 635.981 324.309 636.42 322.293 636.42ZM322.293 633.242C323.646 633.251 324.771 632.953 325.667 632.346C326.572 631.739 327.249 630.885 327.697 629.784C328.154 628.683 328.383 627.395 328.383 625.92C328.383 624.445 328.154 623.167 327.697 622.084C327.249 620.992 326.572 620.143 325.667 619.536C324.771 618.929 323.646 618.617 322.293 618.598C320.939 618.589 319.815 618.887 318.919 619.494C318.023 620.101 317.346 620.955 316.889 622.056C316.441 623.157 316.217 624.445 316.217 625.92C316.217 627.395 316.441 628.678 316.889 629.77C317.337 630.853 318.009 631.697 318.905 632.304C319.81 632.911 320.939 633.223 322.293 633.242ZM334.739 636V615.84H343.069C343.265 615.84 343.517 615.849 343.825 615.868C344.133 615.877 344.418 615.905 344.679 615.952C345.846 616.129 346.807 616.517 347.563 617.114C348.329 617.711 348.893 618.467 349.257 619.382C349.631 620.287 349.817 621.295 349.817 622.406C349.817 624.049 349.402 625.463 348.571 626.648C347.741 627.824 346.467 628.552 344.749 628.832L343.307 628.958H338.113V636H334.739ZM346.317 636L342.341 627.796L345.771 627.04L350.139 636H346.317ZM338.113 625.808H342.929C343.116 625.808 343.326 625.799 343.559 625.78C343.793 625.761 344.007 625.724 344.203 625.668C344.763 625.528 345.202 625.281 345.519 624.926C345.846 624.571 346.075 624.17 346.205 623.722C346.345 623.274 346.415 622.835 346.415 622.406C346.415 621.977 346.345 621.538 346.205 621.09C346.075 620.633 345.846 620.227 345.519 619.872C345.202 619.517 344.763 619.27 344.203 619.13C344.007 619.074 343.793 619.041 343.559 619.032C343.326 619.013 343.116 619.004 342.929 619.004H338.113V625.808ZM357.429 636L363.785 615.84H368.727L375.083 636H371.611L365.843 617.912H366.599L360.901 636H357.429ZM360.971 631.632V628.482H371.555V631.632H360.971ZM383.22 636V615.84H389.646C389.814 615.84 390.145 615.845 390.64 615.854C391.144 615.863 391.629 615.896 392.096 615.952C393.692 616.157 395.04 616.727 396.142 617.66C397.252 618.584 398.092 619.765 398.662 621.202C399.231 622.639 399.516 624.212 399.516 625.92C399.516 627.628 399.231 629.201 398.662 630.638C398.092 632.075 397.252 633.261 396.142 634.194C395.04 635.118 393.692 635.683 392.096 635.888C391.638 635.944 391.158 635.977 390.654 635.986C390.15 635.995 389.814 636 389.646 636H383.22ZM386.65 632.822H389.646C389.926 632.822 390.28 632.813 390.71 632.794C391.148 632.775 391.536 632.733 391.872 632.668C392.824 632.491 393.598 632.066 394.196 631.394C394.793 630.722 395.232 629.905 395.512 628.944C395.801 627.983 395.946 626.975 395.946 625.92C395.946 624.828 395.801 623.801 395.512 622.84C395.222 621.879 394.774 621.071 394.168 620.418C393.57 619.765 392.805 619.349 391.872 619.172C391.536 619.097 391.148 619.055 390.71 619.046C390.28 619.027 389.926 619.018 389.646 619.018H386.65V632.822ZM402.825 636V615.84H415.845V619.004H406.199V623.974H414.165V627.138H406.199V632.836H415.845V636H402.825ZM427.019 636.42C425.003 636.42 423.277 635.981 421.839 635.104C420.402 634.217 419.296 632.985 418.521 631.408C417.756 629.831 417.373 628.001 417.373 625.92C417.373 623.839 417.756 622.009 418.521 620.432C419.296 618.855 420.402 617.627 421.839 616.75C423.277 615.863 425.003 615.42 427.019 615.42C429.343 615.42 431.28 616.003 432.829 617.17C434.379 618.327 435.466 619.891 436.091 621.86L432.689 622.798C432.297 621.482 431.63 620.455 430.687 619.718C429.745 618.971 428.522 618.598 427.019 618.598C425.666 618.598 424.537 618.901 423.631 619.508C422.735 620.115 422.059 620.969 421.601 622.07C421.153 623.162 420.925 624.445 420.915 625.92C420.915 627.395 421.139 628.683 421.587 629.784C422.045 630.876 422.726 631.725 423.631 632.332C424.537 632.939 425.666 633.242 427.019 633.242C428.522 633.242 429.745 632.869 430.687 632.122C431.63 631.375 432.297 630.349 432.689 629.042L436.091 629.98C435.466 631.949 434.379 633.517 432.829 634.684C431.28 635.841 429.343 636.42 427.019 636.42ZM437.218 636L443.574 615.84H448.516L454.872 636H451.4L445.632 617.912H446.388L440.69 636H437.218ZM440.76 631.632V628.482H451.344V631.632H440.76ZM457.403 636V615.84H463.829C463.997 615.84 464.329 615.845 464.823 615.854C465.327 615.863 465.813 615.896 466.279 615.952C467.875 616.157 469.224 616.727 470.325 617.66C471.436 618.584 472.276 619.765 472.845 621.202C473.415 622.639 473.699 624.212 473.699 625.92C473.699 627.628 473.415 629.201 472.845 630.638C472.276 632.075 471.436 633.261 470.325 634.194C469.224 635.118 467.875 635.683 466.279 635.888C465.822 635.944 465.341 635.977 464.837 635.986C464.333 635.995 463.997 636 463.829 636H457.403ZM460.833 632.822H463.829C464.109 632.822 464.464 632.813 464.893 632.794C465.332 632.775 465.719 632.733 466.055 632.668C467.007 632.491 467.782 632.066 468.379 631.394C468.977 630.722 469.415 629.905 469.695 628.944C469.985 627.983 470.129 626.975 470.129 625.92C470.129 624.828 469.985 623.801 469.695 622.84C469.406 621.879 468.958 621.071 468.351 620.418C467.754 619.765 466.989 619.349 466.055 619.172C465.719 619.097 465.332 619.055 464.893 619.046C464.464 619.027 464.109 619.018 463.829 619.018H460.833V632.822ZM477.009 636V615.84H490.029V619.004H480.383V623.974H488.349V627.138H480.383V632.836H490.029V636H477.009Z" fill="white"></path> <circle cx="300" cy="448" r="60" fill="#F9F9F9"></circle> <path d="M288.777 461.51C286.329 461.51 284.232 460.977 282.487 459.912C280.742 458.835 279.399 457.339 278.458 455.424C277.529 453.509 277.064 451.287 277.064 448.76C277.064 446.233 277.529 444.011 278.458 442.096C279.399 440.181 280.742 438.69 282.487 437.625C284.232 436.548 286.329 436.01 288.777 436.01C291.225 436.01 293.322 436.548 295.067 437.625C296.824 438.69 298.167 440.181 299.096 442.096C300.037 444.011 300.507 446.233 300.507 448.76C300.507 451.287 300.037 453.509 299.096 455.424C298.167 457.339 296.824 458.835 295.067 459.912C293.322 460.977 291.225 461.51 288.777 461.51ZM288.777 457.651C290.42 457.662 291.786 457.3 292.874 456.563C293.973 455.826 294.795 454.789 295.339 453.452C295.894 452.115 296.172 450.551 296.172 448.76C296.172 446.969 295.894 445.417 295.339 444.102C294.795 442.776 293.973 441.745 292.874 441.008C291.786 440.271 290.42 439.892 288.777 439.869C287.134 439.858 285.768 440.22 284.68 440.957C283.592 441.694 282.77 442.731 282.215 444.068C281.671 445.405 281.399 446.969 281.399 448.76C281.399 450.551 281.671 452.109 282.215 453.435C282.759 454.75 283.575 455.775 284.663 456.512C285.762 457.249 287.134 457.628 288.777 457.651ZM303.891 461V436.52H314.006C314.244 436.52 314.55 436.531 314.924 436.554C315.298 436.565 315.643 436.599 315.961 436.656C317.377 436.871 318.545 437.342 319.463 438.067C320.392 438.792 321.078 439.71 321.52 440.821C321.973 441.92 322.2 443.144 322.2 444.493C322.2 446.488 321.695 448.205 320.687 449.644C319.678 451.072 318.131 451.956 316.046 452.296L314.295 452.449H307.988V461H303.891ZM317.95 461L313.122 451.038L317.287 450.12L322.591 461H317.95ZM307.988 448.624H313.836C314.062 448.624 314.317 448.613 314.601 448.59C314.884 448.567 315.145 448.522 315.383 448.454C316.063 448.284 316.595 447.984 316.981 447.553C317.377 447.122 317.655 446.635 317.814 446.091C317.984 445.547 318.069 445.014 318.069 444.493C318.069 443.972 317.984 443.439 317.814 442.895C317.655 442.34 317.377 441.847 316.981 441.416C316.595 440.985 316.063 440.685 315.383 440.515C315.145 440.447 314.884 440.407 314.601 440.396C314.317 440.373 314.062 440.362 313.836 440.362H307.988V448.624Z" fill="#3E1BC9"></path> </svg> 