<?xml version="1.0" encoding="UTF-8"?> <svg xmlns="http://www.w3.org/2000/svg" width="600" height="775" viewBox="0 0 600 775" fill="none"> <rect width="600" height="775" rx="20" fill="#F9F9F9"></rect> <path d="M129.614 73L122.457 48.52H126.758L131.637 66.2L136.499 48.554L140.8 48.52L145.679 66.2L150.541 48.52H154.842L147.702 73H143.656L138.641 55.592L133.66 73H129.614ZM167.305 73.51C164.857 73.51 162.761 72.9773 161.015 71.912C159.27 70.8353 157.927 69.3393 156.986 67.424C156.057 65.5087 155.592 63.2873 155.592 60.76C155.592 58.2327 156.057 56.0113 156.986 54.096C157.927 52.1807 159.27 50.6903 161.015 49.625C162.761 48.5483 164.857 48.01 167.305 48.01C169.753 48.01 171.85 48.5483 173.595 49.625C175.352 50.6903 176.695 52.1807 177.624 54.096C178.565 56.0113 179.035 58.2327 179.035 60.76C179.035 63.2873 178.565 65.5087 177.624 67.424C176.695 69.3393 175.352 70.8353 173.595 71.912C171.85 72.9773 169.753 73.51 167.305 73.51ZM167.305 69.651C168.949 69.6623 170.314 69.2997 171.402 68.563C172.502 67.8263 173.323 66.7893 173.867 65.452C174.423 64.1147 174.7 62.5507 174.7 60.76C174.7 58.9693 174.423 57.4167 173.867 56.102C173.323 54.776 172.502 53.7447 171.402 53.008C170.314 52.2713 168.949 51.8917 167.305 51.869C165.662 51.8577 164.296 52.2203 163.208 52.957C162.12 53.6937 161.299 54.7307 160.743 56.068C160.199 57.4053 159.927 58.9693 159.927 60.76C159.927 62.5507 160.199 64.109 160.743 65.435C161.287 66.7497 162.103 67.7753 163.191 68.512C164.291 69.2487 165.662 69.6283 167.305 69.651ZM192.279 73.51C190.33 73.51 188.613 73.1133 187.128 72.32C185.655 71.5267 184.499 70.4103 183.66 68.971C182.833 67.5317 182.419 65.843 182.419 63.905V48.554L186.567 48.52V63.803C186.567 64.721 186.72 65.5427 187.026 66.268C187.343 66.9933 187.768 67.611 188.301 68.121C188.834 68.6197 189.446 68.9993 190.137 69.26C190.828 69.5207 191.542 69.651 192.279 69.651C193.038 69.651 193.758 69.5207 194.438 69.26C195.129 68.988 195.741 68.6027 196.274 68.104C196.807 67.594 197.226 66.9763 197.532 66.251C197.838 65.5257 197.991 64.7097 197.991 63.803V48.52H202.139V63.905C202.139 65.843 201.72 67.5317 200.881 68.971C200.054 70.4103 198.898 71.5267 197.413 72.32C195.94 73.1133 194.228 73.51 192.279 73.51ZM207.23 73V48.52H211.327V69.158H222.139V73H207.23ZM225.019 73V48.52H232.822C233.026 48.52 233.428 48.5257 234.029 48.537C234.641 48.5483 235.23 48.588 235.797 48.656C237.735 48.9053 239.372 49.5967 240.71 50.73C242.058 51.852 243.078 53.2857 243.77 55.031C244.461 56.7763 244.807 58.686 244.807 60.76C244.807 62.834 244.461 64.7437 243.77 66.489C243.078 68.2343 242.058 69.6737 240.71 70.807C239.372 71.929 237.735 72.6147 235.797 72.864C235.241 72.932 234.658 72.9717 234.046 72.983C233.434 72.9943 233.026 73 232.822 73H225.019ZM229.184 69.141H232.822C233.162 69.141 233.592 69.1297 234.114 69.107C234.646 69.0843 235.117 69.0333 235.525 68.954C236.681 68.7387 237.621 68.223 238.347 67.407C239.072 66.591 239.605 65.5993 239.945 64.432C240.296 63.2647 240.472 62.0407 240.472 60.76C240.472 59.434 240.296 58.1873 239.945 57.02C239.593 55.8527 239.049 54.8723 238.313 54.079C237.587 53.2857 236.658 52.7813 235.525 52.566C235.117 52.4753 234.646 52.4243 234.114 52.413C233.592 52.3903 233.162 52.379 232.822 52.379H229.184V69.141ZM261.582 73V62.97L253.252 48.52H258.029L263.656 58.278L269.266 48.52H274.043L265.73 62.97V73H261.582ZM285.409 73.51C282.961 73.51 280.864 72.9773 279.119 71.912C277.373 70.8353 276.03 69.3393 275.09 67.424C274.16 65.5087 273.696 63.2873 273.696 60.76C273.696 58.2327 274.16 56.0113 275.09 54.096C276.03 52.1807 277.373 50.6903 279.119 49.625C280.864 48.5483 282.961 48.01 285.409 48.01C287.857 48.01 289.953 48.5483 291.699 49.625C293.455 50.6903 294.798 52.1807 295.728 54.096C296.668 56.0113 297.139 58.2327 297.139 60.76C297.139 63.2873 296.668 65.5087 295.728 67.424C294.798 69.3393 293.455 70.8353 291.699 71.912C289.953 72.9773 287.857 73.51 285.409 73.51ZM285.409 69.651C287.052 69.6623 288.418 69.2997 289.506 68.563C290.605 67.8263 291.427 66.7893 291.971 65.452C292.526 64.1147 292.804 62.5507 292.804 60.76C292.804 58.9693 292.526 57.4167 291.971 56.102C291.427 54.776 290.605 53.7447 289.506 53.008C288.418 52.2713 287.052 51.8917 285.409 51.869C283.765 51.8577 282.4 52.2203 281.312 52.957C280.224 53.6937 279.402 54.7307 278.847 56.068C278.303 57.4053 278.031 58.9693 278.031 60.76C278.031 62.5507 278.303 64.109 278.847 65.435C279.391 66.7497 280.207 67.7753 281.295 68.512C282.394 69.2487 283.765 69.6283 285.409 69.651ZM310.383 73.51C308.433 73.51 306.716 73.1133 305.232 72.32C303.758 71.5267 302.602 70.4103 301.764 68.971C300.936 67.5317 300.523 65.843 300.523 63.905V48.554L304.671 48.52V63.803C304.671 64.721 304.824 65.5427 305.13 66.268C305.447 66.9933 305.872 67.611 306.405 68.121C306.937 68.6197 307.549 68.9993 308.241 69.26C308.932 69.5207 309.646 69.651 310.383 69.651C311.142 69.651 311.862 69.5207 312.542 69.26C313.233 68.988 313.845 68.6027 314.378 68.104C314.91 67.594 315.33 66.9763 315.636 66.251C315.942 65.5257 316.095 64.7097 316.095 63.803V48.52H320.243V63.905C320.243 65.843 319.823 67.5317 318.985 68.971C318.157 70.4103 317.001 71.5267 315.517 72.32C314.043 73.1133 312.332 73.51 310.383 73.51ZM331.8 73V48.52H341.915C342.153 48.52 342.459 48.5313 342.833 48.554C343.207 48.5653 343.553 48.5993 343.87 48.656C345.287 48.8713 346.454 49.3417 347.372 50.067C348.301 50.7923 348.987 51.7103 349.429 52.821C349.882 53.9203 350.109 55.1443 350.109 56.493C350.109 58.4877 349.605 60.2047 348.596 61.644C347.587 63.072 346.04 63.956 343.955 64.296L342.204 64.449H335.897V73H331.8ZM345.859 73L341.031 63.038L345.196 62.12L350.5 73H345.859ZM335.897 60.624H341.745C341.972 60.624 342.227 60.6127 342.51 60.59C342.793 60.5673 343.054 60.522 343.292 60.454C343.972 60.284 344.505 59.9837 344.89 59.553C345.287 59.1223 345.564 58.635 345.723 58.091C345.893 57.547 345.978 57.0143 345.978 56.493C345.978 55.9717 345.893 55.439 345.723 54.895C345.564 54.3397 345.287 53.8467 344.89 53.416C344.505 52.9853 343.972 52.685 343.292 52.515C343.054 52.447 342.793 52.4073 342.51 52.396C342.227 52.3733 341.972 52.362 341.745 52.362H335.897V60.624ZM352.545 73L360.263 48.52H366.264L373.982 73H369.766L362.762 51.036H363.68L356.761 73H352.545ZM356.846 67.696V63.871H369.698V67.696H356.846ZM380.912 73V52.362H372.99V48.52H392.931V52.362H385.009V73H380.912ZM395.65 73V48.52H399.747V58.822H411.341V48.52H415.421V73H411.341V62.664H399.747V73H395.65ZM420.187 73V48.52H435.997V52.362H424.284V58.397H433.957V62.239H424.284V69.158H435.997V73H420.187ZM440.075 73V48.52H450.19C450.428 48.52 450.734 48.5313 451.108 48.554C451.482 48.5653 451.828 48.5993 452.145 48.656C453.562 48.8713 454.729 49.3417 455.647 50.067C456.577 50.7923 457.262 51.7103 457.704 52.821C458.158 53.9203 458.384 55.1443 458.384 56.493C458.384 58.4877 457.88 60.2047 456.871 61.644C455.863 63.072 454.316 63.956 452.23 64.296L450.479 64.449H444.172V73H440.075ZM454.134 73L449.306 63.038L453.471 62.12L458.775 73H454.134ZM444.172 60.624H450.02C450.247 60.624 450.502 60.6127 450.785 60.59C451.069 60.5673 451.329 60.522 451.567 60.454C452.247 60.284 452.78 59.9837 453.165 59.553C453.562 59.1223 453.84 58.635 453.998 58.091C454.168 57.547 454.253 57.0143 454.253 56.493C454.253 55.9717 454.168 55.439 453.998 54.895C453.84 54.3397 453.562 53.8467 453.165 53.416C452.78 52.9853 452.247 52.685 451.567 52.515C451.329 52.447 451.069 52.4073 450.785 52.396C450.502 52.3733 450.247 52.362 450.02 52.362H444.172V60.624ZM466.958 66.353C466.958 65.571 467.031 64.8173 467.179 64.092C467.337 63.3553 467.592 62.6753 467.944 62.052C468.25 61.4513 468.59 60.9753 468.964 60.624C469.338 60.2613 469.757 59.9043 470.222 59.553C470.686 59.1903 471.202 58.7087 471.769 58.108C472.233 57.598 472.539 57.0937 472.687 56.595C472.834 56.085 472.908 55.541 472.908 54.963C472.908 54.589 472.868 54.2377 472.789 53.909C472.709 53.5803 472.568 53.297 472.364 53.059C472.046 52.6397 471.638 52.345 471.14 52.175C470.641 51.9937 470.108 51.903 469.542 51.903C469.077 51.903 468.629 51.9653 468.199 52.09C467.779 52.2033 467.422 52.3847 467.128 52.634C466.788 52.906 466.538 53.2403 466.38 53.637C466.221 54.0337 466.147 54.47 466.159 54.946H461.841C461.954 53.8127 462.26 52.7643 462.759 51.801C463.269 50.8263 463.937 50.05 464.765 49.472C465.411 48.996 466.136 48.639 466.941 48.401C467.757 48.163 468.573 48.044 469.389 48.044C470.635 48.044 471.808 48.2367 472.908 48.622C474.018 49.0073 474.942 49.642 475.679 50.526C476.189 51.104 476.574 51.7727 476.835 52.532C477.107 53.2913 477.243 54.062 477.243 54.844C477.243 56.0113 476.988 57.0767 476.478 58.04C475.979 59.0033 475.344 59.893 474.574 60.709C474.211 61.0943 473.865 61.4343 473.537 61.729C473.208 62.0237 472.902 62.3127 472.619 62.596C472.347 62.868 472.12 63.157 471.939 63.463C471.621 63.9957 471.434 64.449 471.378 64.823C471.321 65.1857 471.293 65.6957 471.293 66.353H466.958ZM466.992 73V68.495H471.293V73H466.992Z" fill="#3E1BC9"></path> <rect y="120" width="600" height="300" rx="20" fill="#3E1BC9"></rect> <path d="M107.906 281.42C106.432 281.42 105.102 281.163 103.916 280.65C102.74 280.137 101.77 279.404 101.004 278.452C100.248 277.491 99.7677 276.352 99.5624 275.036L103.062 274.504C103.361 275.699 103.972 276.623 104.896 277.276C105.83 277.929 106.903 278.256 108.116 278.256C108.835 278.256 109.512 278.144 110.146 277.92C110.781 277.696 111.294 277.369 111.686 276.94C112.088 276.511 112.288 275.983 112.288 275.358C112.288 275.078 112.242 274.821 112.148 274.588C112.055 274.345 111.915 274.131 111.728 273.944C111.551 273.757 111.318 273.589 111.028 273.44C110.748 273.281 110.422 273.146 110.048 273.034L104.84 271.494C104.392 271.363 103.907 271.191 103.384 270.976C102.871 270.752 102.381 270.449 101.914 270.066C101.457 269.674 101.079 269.179 100.78 268.582C100.491 267.975 100.346 267.229 100.346 266.342C100.346 265.045 100.673 263.957 101.326 263.08C101.989 262.193 102.876 261.531 103.986 261.092C105.106 260.653 106.348 260.439 107.71 260.448C109.092 260.457 110.324 260.695 111.406 261.162C112.489 261.619 113.394 262.287 114.122 263.164C114.85 264.041 115.364 265.101 115.662 266.342L112.036 266.972C111.887 266.263 111.598 265.661 111.168 265.166C110.748 264.662 110.23 264.279 109.614 264.018C109.008 263.757 108.359 263.617 107.668 263.598C106.996 263.589 106.371 263.691 105.792 263.906C105.223 264.111 104.761 264.41 104.406 264.802C104.061 265.194 103.888 265.651 103.888 266.174C103.888 266.669 104.038 267.075 104.336 267.392C104.635 267.7 105.004 267.947 105.442 268.134C105.89 268.311 106.343 268.461 106.8 268.582L110.412 269.59C110.907 269.721 111.462 269.898 112.078 270.122C112.694 270.346 113.287 270.659 113.856 271.06C114.426 271.461 114.892 271.989 115.256 272.642C115.63 273.295 115.816 274.126 115.816 275.134C115.816 276.179 115.597 277.099 115.158 277.892C114.729 278.676 114.146 279.329 113.408 279.852C112.671 280.375 111.826 280.767 110.874 281.028C109.932 281.289 108.942 281.42 107.906 281.42ZM118.847 281V260.84H127.177C127.373 260.84 127.625 260.849 127.933 260.868C128.241 260.877 128.525 260.905 128.787 260.952C129.953 261.129 130.915 261.517 131.671 262.114C132.436 262.711 133.001 263.467 133.365 264.382C133.738 265.287 133.925 266.295 133.925 267.406C133.925 268.507 133.738 269.515 133.365 270.43C132.991 271.335 132.422 272.087 131.657 272.684C130.901 273.281 129.944 273.669 128.787 273.846C128.525 273.883 128.236 273.911 127.919 273.93C127.611 273.949 127.363 273.958 127.177 273.958H122.221V281H118.847ZM122.221 270.808H127.037C127.223 270.808 127.433 270.799 127.667 270.78C127.9 270.761 128.115 270.724 128.311 270.668C128.871 270.528 129.309 270.281 129.627 269.926C129.953 269.571 130.182 269.17 130.313 268.722C130.453 268.274 130.523 267.835 130.523 267.406C130.523 266.977 130.453 266.538 130.313 266.09C130.182 265.633 129.953 265.227 129.627 264.872C129.309 264.517 128.871 264.27 128.311 264.13C128.115 264.074 127.9 264.041 127.667 264.032C127.433 264.013 127.223 264.004 127.037 264.004H122.221V270.808ZM136.73 281V260.84H149.75V264.004H140.104V268.974H148.07V272.138H140.104V277.836H149.75V281H136.73ZM153.108 281V260.84H156.524L165.876 275.05V260.84H169.292V281H165.876L156.524 266.79V281H153.108ZM173.206 281V260.84H179.632C179.8 260.84 180.131 260.845 180.626 260.854C181.13 260.863 181.615 260.896 182.082 260.952C183.678 261.157 185.027 261.727 186.128 262.66C187.239 263.584 188.079 264.765 188.648 266.202C189.217 267.639 189.502 269.212 189.502 270.92C189.502 272.628 189.217 274.201 188.648 275.638C188.079 277.075 187.239 278.261 186.128 279.194C185.027 280.118 183.678 280.683 182.082 280.888C181.625 280.944 181.144 280.977 180.64 280.986C180.136 280.995 179.8 281 179.632 281H173.206ZM176.636 277.822H179.632C179.912 277.822 180.267 277.813 180.696 277.794C181.135 277.775 181.522 277.733 181.858 277.668C182.81 277.491 183.585 277.066 184.182 276.394C184.779 275.722 185.218 274.905 185.498 273.944C185.787 272.983 185.932 271.975 185.932 270.92C185.932 269.828 185.787 268.801 185.498 267.84C185.209 266.879 184.761 266.071 184.154 265.418C183.557 264.765 182.791 264.349 181.858 264.172C181.522 264.097 181.135 264.055 180.696 264.046C180.267 264.027 179.912 264.018 179.632 264.018H176.636V277.822ZM197.017 281L203.373 260.84H208.315L214.671 281H211.199L205.431 262.912H206.187L200.489 281H197.017ZM200.559 276.632V273.482H211.143V276.632H200.559ZM227.064 281L221.17 260.84H224.712L228.73 275.4L232.734 260.868L236.276 260.84L240.294 275.4L244.298 260.84H247.84L241.96 281H238.628L234.498 266.664L230.396 281H227.064ZM250.124 281V260.84H263.144V264.004H253.498V268.974H261.464V272.138H253.498V277.836H263.144V281H250.124ZM266.503 281V260.84H279.523V264.004H269.877V268.974H277.843V272.138H269.877V277.836H279.523V281H266.503ZM282.882 281V260.84H286.256V270.192L294.306 260.84H298.45L289.784 270.724L299.038 281H294.754L286.256 271.592V281H282.882ZM306.349 281V260.84H309.723V281H306.349ZM313.917 281V260.84H317.333L326.685 275.05V260.84H330.101V281H326.685L317.333 266.79V281H313.917ZM344.464 281V264.004H337.94V260.84H354.362V264.004H347.838V281H344.464ZM356.601 281V260.84H359.975V269.324H369.523V260.84H372.883V281H369.523V272.488H359.975V281H356.601ZM376.808 281V260.84H389.828V264.004H380.182V268.974H388.148V272.138H380.182V277.836H389.828V281H376.808ZM398.792 281V260.84H410.93V264.214H402.166V269.24H409.25V272.6H402.166V281H398.792ZM421.974 281.42C419.958 281.42 418.232 280.981 416.794 280.104C415.357 279.217 414.251 277.985 413.476 276.408C412.711 274.831 412.328 273.001 412.328 270.92C412.328 268.839 412.711 267.009 413.476 265.432C414.251 263.855 415.357 262.627 416.794 261.75C418.232 260.863 419.958 260.42 421.974 260.42C423.99 260.42 425.717 260.863 427.154 261.75C428.601 262.627 429.707 263.855 430.472 265.432C431.247 267.009 431.634 268.839 431.634 270.92C431.634 273.001 431.247 274.831 430.472 276.408C429.707 277.985 428.601 279.217 427.154 280.104C425.717 280.981 423.99 281.42 421.974 281.42ZM421.974 278.242C423.328 278.251 424.452 277.953 425.348 277.346C426.254 276.739 426.93 275.885 427.378 274.784C427.836 273.683 428.064 272.395 428.064 270.92C428.064 269.445 427.836 268.167 427.378 267.084C426.93 265.992 426.254 265.143 425.348 264.536C424.452 263.929 423.328 263.617 421.974 263.598C420.621 263.589 419.496 263.887 418.6 264.494C417.704 265.101 417.028 265.955 416.57 267.056C416.122 268.157 415.898 269.445 415.898 270.92C415.898 272.395 416.122 273.678 416.57 274.77C417.018 275.853 417.69 276.697 418.586 277.304C419.492 277.911 420.621 278.223 421.974 278.242ZM434.421 281V260.84H442.751C442.947 260.84 443.199 260.849 443.507 260.868C443.815 260.877 444.1 260.905 444.361 260.952C445.528 261.129 446.489 261.517 447.245 262.114C448.01 262.711 448.575 263.467 448.939 264.382C449.312 265.287 449.499 266.295 449.499 267.406C449.499 269.049 449.084 270.463 448.253 271.648C447.422 272.824 446.148 273.552 444.431 273.832L442.989 273.958H437.795V281H434.421ZM445.999 281L442.023 272.796L445.453 272.04L449.821 281H445.999ZM437.795 270.808H442.611C442.798 270.808 443.008 270.799 443.241 270.78C443.474 270.761 443.689 270.724 443.885 270.668C444.445 270.528 444.884 270.281 445.201 269.926C445.528 269.571 445.756 269.17 445.887 268.722C446.027 268.274 446.097 267.835 446.097 267.406C446.097 266.977 446.027 266.538 445.887 266.09C445.756 265.633 445.528 265.227 445.201 264.872C444.884 264.517 444.445 264.27 443.885 264.13C443.689 264.074 443.474 264.041 443.241 264.032C443.008 264.013 442.798 264.004 442.611 264.004H437.795V270.808ZM452.905 281V260.84H465.925V264.004H456.279V268.974H464.245V272.138H456.279V277.836H465.925V281H452.905ZM476.555 281.42C475.08 281.42 473.75 281.163 472.565 280.65C471.389 280.137 470.418 279.404 469.653 278.452C468.897 277.491 468.416 276.352 468.211 275.036L471.711 274.504C472.009 275.699 472.621 276.623 473.545 277.276C474.478 277.929 475.551 278.256 476.765 278.256C477.483 278.256 478.16 278.144 478.795 277.92C479.429 277.696 479.943 277.369 480.335 276.94C480.736 276.511 480.937 275.983 480.937 275.358C480.937 275.078 480.89 274.821 480.797 274.588C480.703 274.345 480.563 274.131 480.377 273.944C480.199 273.757 479.966 273.589 479.677 273.44C479.397 273.281 479.07 273.146 478.697 273.034L473.489 271.494C473.041 271.363 472.555 271.191 472.033 270.976C471.519 270.752 471.029 270.449 470.563 270.066C470.105 269.674 469.727 269.179 469.429 268.582C469.139 267.975 468.995 267.229 468.995 266.342C468.995 265.045 469.321 263.957 469.975 263.08C470.637 262.193 471.524 261.531 472.635 261.092C473.755 260.653 474.996 260.439 476.359 260.448C477.74 260.457 478.972 260.695 480.055 261.162C481.137 261.619 482.043 262.287 482.771 263.164C483.499 264.041 484.012 265.101 484.311 266.342L480.685 266.972C480.535 266.263 480.246 265.661 479.817 265.166C479.397 264.662 478.879 264.279 478.263 264.018C477.656 263.757 477.007 263.617 476.317 263.598C475.645 263.589 475.019 263.691 474.441 263.906C473.871 264.111 473.409 264.41 473.055 264.802C472.709 265.194 472.537 265.651 472.537 266.174C472.537 266.669 472.686 267.075 472.985 267.392C473.283 267.7 473.652 267.947 474.091 268.134C474.539 268.311 474.991 268.461 475.449 268.582L479.061 269.59C479.555 269.721 480.111 269.898 480.727 270.122C481.343 270.346 481.935 270.659 482.505 271.06C483.074 271.461 483.541 271.989 483.905 272.642C484.278 273.295 484.465 274.126 484.465 275.134C484.465 276.179 484.245 277.099 483.807 277.892C483.377 278.676 482.794 279.329 482.057 279.852C481.319 280.375 480.475 280.767 479.523 281.028C478.58 281.289 477.591 281.42 476.555 281.42ZM492.339 281V264.004H485.815V260.84H502.237V264.004H495.713V281H492.339Z" fill="white"></path> <rect y="475" width="600" height="300" rx="20" fill="#E85668"></rect> <path d="M62.0346 636L68.3906 615.84H73.3326L79.6886 636H76.2166L70.4486 617.912H71.2046L65.5066 636H62.0346ZM65.5766 631.632V628.482H76.1606V631.632H65.5766ZM87.8252 636V615.84H91.2412L100.593 630.05V615.84H104.009V636H100.593L91.2412 621.79V636H87.8252ZM108.203 636V615.84H111.577V636H108.203ZM124.087 636.42C122.78 636.42 121.553 636.191 120.405 635.734C119.266 635.267 118.263 634.586 117.395 633.69C116.536 632.794 115.864 631.697 115.379 630.4C114.893 629.093 114.651 627.6 114.651 625.92C114.651 623.717 115.061 621.837 115.883 620.278C116.704 618.71 117.829 617.511 119.257 616.68C120.685 615.84 122.295 615.42 124.087 615.42C126.569 615.42 128.534 615.999 129.981 617.156C131.437 618.304 132.421 619.919 132.935 622L129.491 622.546C129.108 621.351 128.483 620.399 127.615 619.69C126.747 618.971 125.641 618.612 124.297 618.612C122.943 618.593 121.819 618.887 120.923 619.494C120.027 620.101 119.35 620.955 118.893 622.056C118.445 623.157 118.221 624.445 118.221 625.92C118.221 627.395 118.445 628.678 118.893 629.77C119.341 630.853 120.013 631.697 120.909 632.304C121.814 632.911 122.943 633.223 124.297 633.242C125.314 633.251 126.205 633.069 126.971 632.696C127.736 632.313 128.361 631.739 128.847 630.974C129.332 630.199 129.659 629.233 129.827 628.076H126.271V625.43H133.411C133.429 625.579 133.443 625.799 133.453 626.088C133.462 626.377 133.467 626.55 133.467 626.606C133.467 628.51 133.089 630.204 132.333 631.688C131.586 633.163 130.513 634.32 129.113 635.16C127.713 636 126.037 636.42 124.087 636.42ZM136.278 636V615.84H139.652V624.324H149.2V615.84H152.56V636H149.2V627.488H139.652V636H136.278ZM161.329 636V619.004H154.805V615.84H171.227V619.004H164.703V636H161.329ZM178.504 636V615.84H181.878V636H178.504ZM186.071 636V615.84H189.487L198.839 630.05V615.84H202.255V636H198.839L189.487 621.79V636H186.071ZM210.374 636L216.73 615.84H221.672L228.028 636H224.556L218.788 617.912H219.544L213.846 636H210.374ZM213.916 631.632V628.482H224.5V631.632H213.916ZM236.165 636V615.84H244.495C244.691 615.84 244.943 615.849 245.251 615.868C245.559 615.877 245.844 615.905 246.105 615.952C247.272 616.129 248.233 616.517 248.989 617.114C249.754 617.711 250.319 618.467 250.683 619.382C251.056 620.287 251.243 621.295 251.243 622.406C251.243 624.049 250.828 625.463 249.997 626.648C249.166 627.824 247.892 628.552 246.175 628.832L244.733 628.958H239.539V636H236.165ZM247.743 636L243.767 627.796L247.197 627.04L251.565 636H247.743ZM239.539 625.808H244.355C244.542 625.808 244.752 625.799 244.985 625.78C245.218 625.761 245.433 625.724 245.629 625.668C246.189 625.528 246.628 625.281 246.945 624.926C247.272 624.571 247.5 624.17 247.631 623.722C247.771 623.274 247.841 622.835 247.841 622.406C247.841 621.977 247.771 621.538 247.631 621.09C247.5 620.633 247.272 620.227 246.945 619.872C246.628 619.517 246.189 619.27 245.629 619.13C245.433 619.074 245.218 619.041 244.985 619.032C244.752 619.013 244.542 619.004 244.355 619.004H239.539V625.808ZM254.649 636V615.84H267.669V619.004H258.023V623.974H265.989V627.138H258.023V632.836H267.669V636H254.649ZM269.628 636L275.984 615.84H280.926L287.282 636H283.81L278.042 617.912H278.798L273.1 636H269.628ZM273.17 631.632V628.482H283.754V631.632H273.17ZM290.094 636V615.84H293.468V632.836H302.372V636H290.094ZM308.954 636V615.84H312.328V624.324H321.876V615.84H325.236V636H321.876V627.488H312.328V636H308.954ZM327.761 636L334.117 615.84H339.059L345.415 636H341.943L336.175 617.912H336.931L331.233 636H327.761ZM331.303 631.632V628.482H341.887V631.632H331.303ZM355.519 636.42C353.914 636.42 352.5 636.093 351.277 635.44C350.064 634.787 349.112 633.867 348.421 632.682C347.74 631.497 347.399 630.106 347.399 628.51V615.868L350.815 615.84V628.426C350.815 629.182 350.941 629.859 351.193 630.456C351.455 631.053 351.805 631.562 352.243 631.982C352.682 632.393 353.186 632.705 353.755 632.92C354.325 633.135 354.913 633.242 355.519 633.242C356.145 633.242 356.737 633.135 357.297 632.92C357.867 632.696 358.371 632.379 358.809 631.968C359.248 631.548 359.593 631.039 359.845 630.442C360.097 629.845 360.223 629.173 360.223 628.426V615.84H363.639V628.51C363.639 630.106 363.294 631.497 362.603 632.682C361.922 633.867 360.97 634.787 359.747 635.44C358.534 636.093 357.125 636.42 355.519 636.42ZM367.552 636V615.84H370.968L380.32 630.05V615.84H383.736V636H380.32L370.968 621.79V636H367.552ZM392.493 636V619.004H385.969V615.84H402.391V619.004H395.867V636H392.493ZM404.63 636V615.84H417.65V619.004H408.004V623.974H415.97V627.138H408.004V632.836H417.65V636H404.63ZM421.009 636V615.84H427.435C427.603 615.84 427.934 615.845 428.429 615.854C428.933 615.863 429.418 615.896 429.885 615.952C431.481 616.157 432.829 616.727 433.931 617.66C435.041 618.584 435.881 619.765 436.451 621.202C437.02 622.639 437.305 624.212 437.305 625.92C437.305 627.628 437.02 629.201 436.451 630.638C435.881 632.075 435.041 633.261 433.931 634.194C432.829 635.118 431.481 635.683 429.885 635.888C429.427 635.944 428.947 635.977 428.443 635.986C427.939 635.995 427.603 636 427.435 636H421.009ZM424.439 632.822H427.435C427.715 632.822 428.069 632.813 428.499 632.794C428.937 632.775 429.325 632.733 429.661 632.668C430.613 632.491 431.387 632.066 431.985 631.394C432.582 630.722 433.021 629.905 433.301 628.944C433.59 627.983 433.735 626.975 433.735 625.92C433.735 624.828 433.59 623.801 433.301 622.84C433.011 621.879 432.563 621.071 431.957 620.418C431.359 619.765 430.594 619.349 429.661 619.172C429.325 619.097 428.937 619.055 428.499 619.046C428.069 619.027 427.715 619.018 427.435 619.018H424.439V632.822ZM446.22 636V615.84H449.594V624.324H459.142V615.84H462.502V636H459.142V627.488H449.594V636H446.22ZM474.953 636.42C472.937 636.42 471.21 635.981 469.773 635.104C468.335 634.217 467.229 632.985 466.455 631.408C465.689 629.831 465.307 628.001 465.307 625.92C465.307 623.839 465.689 622.009 466.455 620.432C467.229 618.855 468.335 617.627 469.773 616.75C471.21 615.863 472.937 615.42 474.953 615.42C476.969 615.42 478.695 615.863 480.133 616.75C481.579 617.627 482.685 618.855 483.451 620.432C484.225 622.009 484.613 623.839 484.613 625.92C484.613 628.001 484.225 629.831 483.451 631.408C482.685 632.985 481.579 634.217 480.133 635.104C478.695 635.981 476.969 636.42 474.953 636.42ZM474.953 633.242C476.306 633.251 477.431 632.953 478.327 632.346C479.232 631.739 479.909 630.885 480.357 629.784C480.814 628.683 481.043 627.395 481.043 625.92C481.043 624.445 480.814 623.167 480.357 622.084C479.909 620.992 479.232 620.143 478.327 619.536C477.431 618.929 476.306 618.617 474.953 618.598C473.599 618.589 472.475 618.887 471.579 619.494C470.683 620.101 470.006 620.955 469.549 622.056C469.101 623.157 468.877 624.445 468.877 625.92C468.877 627.395 469.101 628.678 469.549 629.77C469.997 630.853 470.669 631.697 471.565 632.304C472.47 632.911 473.599 633.223 474.953 633.242ZM495.519 636.42C493.914 636.42 492.5 636.093 491.277 635.44C490.064 634.787 489.112 633.867 488.421 632.682C487.74 631.497 487.399 630.106 487.399 628.51V615.868L490.815 615.84V628.426C490.815 629.182 490.941 629.859 491.193 630.456C491.455 631.053 491.805 631.562 492.243 631.982C492.682 632.393 493.186 632.705 493.755 632.92C494.325 633.135 494.913 633.242 495.519 633.242C496.145 633.242 496.737 633.135 497.297 632.92C497.867 632.696 498.371 632.379 498.809 631.968C499.248 631.548 499.593 631.039 499.845 630.442C500.097 629.845 500.223 629.173 500.223 628.426V615.84H503.639V628.51C503.639 630.106 503.294 631.497 502.603 632.682C501.922 633.867 500.97 634.787 499.747 635.44C498.534 636.093 497.125 636.42 495.519 636.42ZM514.166 636.42C512.691 636.42 511.361 636.163 510.176 635.65C509 635.137 508.029 634.404 507.264 633.452C506.508 632.491 506.027 631.352 505.822 630.036L509.322 629.504C509.621 630.699 510.232 631.623 511.156 632.276C512.089 632.929 513.163 633.256 514.376 633.256C515.095 633.256 515.771 633.144 516.406 632.92C517.041 632.696 517.554 632.369 517.946 631.94C518.347 631.511 518.548 630.983 518.548 630.358C518.548 630.078 518.501 629.821 518.408 629.588C518.315 629.345 518.175 629.131 517.988 628.944C517.811 628.757 517.577 628.589 517.288 628.44C517.008 628.281 516.681 628.146 516.308 628.034L511.1 626.494C510.652 626.363 510.167 626.191 509.644 625.976C509.131 625.752 508.641 625.449 508.174 625.066C507.717 624.674 507.339 624.179 507.04 623.582C506.751 622.975 506.606 622.229 506.606 621.342C506.606 620.045 506.933 618.957 507.586 618.08C508.249 617.193 509.135 616.531 510.246 616.092C511.366 615.653 512.607 615.439 513.97 615.448C515.351 615.457 516.583 615.695 517.666 616.162C518.749 616.619 519.654 617.287 520.382 618.164C521.11 619.041 521.623 620.101 521.922 621.342L518.296 621.972C518.147 621.263 517.857 620.661 517.428 620.166C517.008 619.662 516.49 619.279 515.874 619.018C515.267 618.757 514.619 618.617 513.928 618.598C513.256 618.589 512.631 618.691 512.052 618.906C511.483 619.111 511.021 619.41 510.666 619.802C510.321 620.194 510.148 620.651 510.148 621.174C510.148 621.669 510.297 622.075 510.596 622.392C510.895 622.7 511.263 622.947 511.702 623.134C512.15 623.311 512.603 623.461 513.06 623.582L516.672 624.59C517.167 624.721 517.722 624.898 518.338 625.122C518.954 625.346 519.547 625.659 520.116 626.06C520.685 626.461 521.152 626.989 521.516 627.642C521.889 628.295 522.076 629.126 522.076 630.134C522.076 631.179 521.857 632.099 521.418 632.892C520.989 633.676 520.405 634.329 519.668 634.852C518.931 635.375 518.086 635.767 517.134 636.028C516.191 636.289 515.202 636.42 514.166 636.42ZM525.106 636V615.84H538.126V619.004H528.48V623.974H536.446V627.138H528.48V632.836H538.126V636H525.106Z" fill="white"></path> <circle cx="300" cy="448" r="60" fill="#F9F9F9"></circle> <path d="M288.777 461.51C286.329 461.51 284.232 460.977 282.487 459.912C280.742 458.835 279.399 457.339 278.458 455.424C277.529 453.509 277.064 451.287 277.064 448.76C277.064 446.233 277.529 444.011 278.458 442.096C279.399 440.181 280.742 438.69 282.487 437.625C284.232 436.548 286.329 436.01 288.777 436.01C291.225 436.01 293.322 436.548 295.067 437.625C296.824 438.69 298.167 440.181 299.096 442.096C300.037 444.011 300.507 446.233 300.507 448.76C300.507 451.287 300.037 453.509 299.096 455.424C298.167 457.339 296.824 458.835 295.067 459.912C293.322 460.977 291.225 461.51 288.777 461.51ZM288.777 457.651C290.42 457.662 291.786 457.3 292.874 456.563C293.973 455.826 294.795 454.789 295.339 453.452C295.894 452.115 296.172 450.551 296.172 448.76C296.172 446.969 295.894 445.417 295.339 444.102C294.795 442.776 293.973 441.745 292.874 441.008C291.786 440.271 290.42 439.892 288.777 439.869C287.134 439.858 285.768 440.22 284.68 440.957C283.592 441.694 282.77 442.731 282.215 444.068C281.671 445.405 281.399 446.969 281.399 448.76C281.399 450.551 281.671 452.109 282.215 453.435C282.759 454.75 283.575 455.775 284.663 456.512C285.762 457.249 287.134 457.628 288.777 457.651ZM303.891 461V436.52H314.006C314.244 436.52 314.55 436.531 314.924 436.554C315.298 436.565 315.643 436.599 315.961 436.656C317.377 436.871 318.545 437.342 319.463 438.067C320.392 438.792 321.078 439.71 321.52 440.821C321.973 441.92 322.2 443.144 322.2 444.493C322.2 446.488 321.695 448.205 320.687 449.644C319.678 451.072 318.131 451.956 316.046 452.296L314.295 452.449H307.988V461H303.891ZM317.95 461L313.122 451.038L317.287 450.12L322.591 461H317.95ZM307.988 448.624H313.836C314.062 448.624 314.317 448.613 314.601 448.59C314.884 448.567 315.145 448.522 315.383 448.454C316.063 448.284 316.595 447.984 316.981 447.553C317.377 447.122 317.655 446.635 317.814 446.091C317.984 445.547 318.069 445.014 318.069 444.493C318.069 443.972 317.984 443.439 317.814 442.895C317.655 442.34 317.377 441.847 316.981 441.416C316.595 440.985 316.063 440.685 315.383 440.515C315.145 440.447 314.884 440.407 314.601 440.396C314.317 440.373 314.062 440.362 313.836 440.362H307.988V448.624Z" fill="#3E1BC9"></path> </svg> 