<?xml version="1.0" encoding="UTF-8"?> <svg xmlns="http://www.w3.org/2000/svg" width="600" height="775" viewBox="0 0 600 775" fill="none"> <rect width="600" height="775" rx="20" fill="#F9F9F9"></rect> <path d="M129.614 73L122.457 48.52H126.758L131.637 66.2L136.499 48.554L140.8 48.52L145.679 66.2L150.541 48.52H154.842L147.702 73H143.656L138.641 55.592L133.66 73H129.614ZM167.305 73.51C164.857 73.51 162.761 72.9773 161.015 71.912C159.27 70.8353 157.927 69.3393 156.986 67.424C156.057 65.5087 155.592 63.2873 155.592 60.76C155.592 58.2327 156.057 56.0113 156.986 54.096C157.927 52.1807 159.27 50.6903 161.015 49.625C162.761 48.5483 164.857 48.01 167.305 48.01C169.753 48.01 171.85 48.5483 173.595 49.625C175.352 50.6903 176.695 52.1807 177.624 54.096C178.565 56.0113 179.035 58.2327 179.035 60.76C179.035 63.2873 178.565 65.5087 177.624 67.424C176.695 69.3393 175.352 70.8353 173.595 71.912C171.85 72.9773 169.753 73.51 167.305 73.51ZM167.305 69.651C168.949 69.6623 170.314 69.2997 171.402 68.563C172.502 67.8263 173.323 66.7893 173.867 65.452C174.423 64.1147 174.7 62.5507 174.7 60.76C174.7 58.9693 174.423 57.4167 173.867 56.102C173.323 54.776 172.502 53.7447 171.402 53.008C170.314 52.2713 168.949 51.8917 167.305 51.869C165.662 51.8577 164.296 52.2203 163.208 52.957C162.12 53.6937 161.299 54.7307 160.743 56.068C160.199 57.4053 159.927 58.9693 159.927 60.76C159.927 62.5507 160.199 64.109 160.743 65.435C161.287 66.7497 162.103 67.7753 163.191 68.512C164.291 69.2487 165.662 69.6283 167.305 69.651ZM192.279 73.51C190.33 73.51 188.613 73.1133 187.128 72.32C185.655 71.5267 184.499 70.4103 183.66 68.971C182.833 67.5317 182.419 65.843 182.419 63.905V48.554L186.567 48.52V63.803C186.567 64.721 186.72 65.5427 187.026 66.268C187.343 66.9933 187.768 67.611 188.301 68.121C188.834 68.6197 189.446 68.9993 190.137 69.26C190.828 69.5207 191.542 69.651 192.279 69.651C193.038 69.651 193.758 69.5207 194.438 69.26C195.129 68.988 195.741 68.6027 196.274 68.104C196.807 67.594 197.226 66.9763 197.532 66.251C197.838 65.5257 197.991 64.7097 197.991 63.803V48.52H202.139V63.905C202.139 65.843 201.72 67.5317 200.881 68.971C200.054 70.4103 198.898 71.5267 197.413 72.32C195.94 73.1133 194.228 73.51 192.279 73.51ZM207.23 73V48.52H211.327V69.158H222.139V73H207.23ZM225.019 73V48.52H232.822C233.026 48.52 233.428 48.5257 234.029 48.537C234.641 48.5483 235.23 48.588 235.797 48.656C237.735 48.9053 239.372 49.5967 240.71 50.73C242.058 51.852 243.078 53.2857 243.77 55.031C244.461 56.7763 244.807 58.686 244.807 60.76C244.807 62.834 244.461 64.7437 243.77 66.489C243.078 68.2343 242.058 69.6737 240.71 70.807C239.372 71.929 237.735 72.6147 235.797 72.864C235.241 72.932 234.658 72.9717 234.046 72.983C233.434 72.9943 233.026 73 232.822 73H225.019ZM229.184 69.141H232.822C233.162 69.141 233.592 69.1297 234.114 69.107C234.646 69.0843 235.117 69.0333 235.525 68.954C236.681 68.7387 237.621 68.223 238.347 67.407C239.072 66.591 239.605 65.5993 239.945 64.432C240.296 63.2647 240.472 62.0407 240.472 60.76C240.472 59.434 240.296 58.1873 239.945 57.02C239.593 55.8527 239.049 54.8723 238.313 54.079C237.587 53.2857 236.658 52.7813 235.525 52.566C235.117 52.4753 234.646 52.4243 234.114 52.413C233.592 52.3903 233.162 52.379 232.822 52.379H229.184V69.141ZM261.582 73V62.97L253.252 48.52H258.029L263.656 58.278L269.266 48.52H274.043L265.73 62.97V73H261.582ZM285.409 73.51C282.961 73.51 280.864 72.9773 279.119 71.912C277.373 70.8353 276.03 69.3393 275.09 67.424C274.16 65.5087 273.696 63.2873 273.696 60.76C273.696 58.2327 274.16 56.0113 275.09 54.096C276.03 52.1807 277.373 50.6903 279.119 49.625C280.864 48.5483 282.961 48.01 285.409 48.01C287.857 48.01 289.953 48.5483 291.699 49.625C293.455 50.6903 294.798 52.1807 295.728 54.096C296.668 56.0113 297.139 58.2327 297.139 60.76C297.139 63.2873 296.668 65.5087 295.728 67.424C294.798 69.3393 293.455 70.8353 291.699 71.912C289.953 72.9773 287.857 73.51 285.409 73.51ZM285.409 69.651C287.052 69.6623 288.418 69.2997 289.506 68.563C290.605 67.8263 291.427 66.7893 291.971 65.452C292.526 64.1147 292.804 62.5507 292.804 60.76C292.804 58.9693 292.526 57.4167 291.971 56.102C291.427 54.776 290.605 53.7447 289.506 53.008C288.418 52.2713 287.052 51.8917 285.409 51.869C283.765 51.8577 282.4 52.2203 281.312 52.957C280.224 53.6937 279.402 54.7307 278.847 56.068C278.303 57.4053 278.031 58.9693 278.031 60.76C278.031 62.5507 278.303 64.109 278.847 65.435C279.391 66.7497 280.207 67.7753 281.295 68.512C282.394 69.2487 283.765 69.6283 285.409 69.651ZM310.383 73.51C308.433 73.51 306.716 73.1133 305.232 72.32C303.758 71.5267 302.602 70.4103 301.764 68.971C300.936 67.5317 300.523 65.843 300.523 63.905V48.554L304.671 48.52V63.803C304.671 64.721 304.824 65.5427 305.13 66.268C305.447 66.9933 305.872 67.611 306.405 68.121C306.937 68.6197 307.549 68.9993 308.241 69.26C308.932 69.5207 309.646 69.651 310.383 69.651C311.142 69.651 311.862 69.5207 312.542 69.26C313.233 68.988 313.845 68.6027 314.378 68.104C314.91 67.594 315.33 66.9763 315.636 66.251C315.942 65.5257 316.095 64.7097 316.095 63.803V48.52H320.243V63.905C320.243 65.843 319.823 67.5317 318.985 68.971C318.157 70.4103 317.001 71.5267 315.517 72.32C314.043 73.1133 312.332 73.51 310.383 73.51ZM331.8 73V48.52H341.915C342.153 48.52 342.459 48.5313 342.833 48.554C343.207 48.5653 343.553 48.5993 343.87 48.656C345.287 48.8713 346.454 49.3417 347.372 50.067C348.301 50.7923 348.987 51.7103 349.429 52.821C349.882 53.9203 350.109 55.1443 350.109 56.493C350.109 58.4877 349.605 60.2047 348.596 61.644C347.587 63.072 346.04 63.956 343.955 64.296L342.204 64.449H335.897V73H331.8ZM345.859 73L341.031 63.038L345.196 62.12L350.5 73H345.859ZM335.897 60.624H341.745C341.972 60.624 342.227 60.6127 342.51 60.59C342.793 60.5673 343.054 60.522 343.292 60.454C343.972 60.284 344.505 59.9837 344.89 59.553C345.287 59.1223 345.564 58.635 345.723 58.091C345.893 57.547 345.978 57.0143 345.978 56.493C345.978 55.9717 345.893 55.439 345.723 54.895C345.564 54.3397 345.287 53.8467 344.89 53.416C344.505 52.9853 343.972 52.685 343.292 52.515C343.054 52.447 342.793 52.4073 342.51 52.396C342.227 52.3733 341.972 52.362 341.745 52.362H335.897V60.624ZM352.545 73L360.263 48.52H366.264L373.982 73H369.766L362.762 51.036H363.68L356.761 73H352.545ZM356.846 67.696V63.871H369.698V67.696H356.846ZM380.912 73V52.362H372.99V48.52H392.931V52.362H385.009V73H380.912ZM395.65 73V48.52H399.747V58.822H411.341V48.52H415.421V73H411.341V62.664H399.747V73H395.65ZM420.187 73V48.52H435.997V52.362H424.284V58.397H433.957V62.239H424.284V69.158H435.997V73H420.187ZM440.075 73V48.52H450.19C450.428 48.52 450.734 48.5313 451.108 48.554C451.482 48.5653 451.828 48.5993 452.145 48.656C453.562 48.8713 454.729 49.3417 455.647 50.067C456.577 50.7923 457.262 51.7103 457.704 52.821C458.158 53.9203 458.384 55.1443 458.384 56.493C458.384 58.4877 457.88 60.2047 456.871 61.644C455.863 63.072 454.316 63.956 452.23 64.296L450.479 64.449H444.172V73H440.075ZM454.134 73L449.306 63.038L453.471 62.12L458.775 73H454.134ZM444.172 60.624H450.02C450.247 60.624 450.502 60.6127 450.785 60.59C451.069 60.5673 451.329 60.522 451.567 60.454C452.247 60.284 452.78 59.9837 453.165 59.553C453.562 59.1223 453.84 58.635 453.998 58.091C454.168 57.547 454.253 57.0143 454.253 56.493C454.253 55.9717 454.168 55.439 453.998 54.895C453.84 54.3397 453.562 53.8467 453.165 53.416C452.78 52.9853 452.247 52.685 451.567 52.515C451.329 52.447 451.069 52.4073 450.785 52.396C450.502 52.3733 450.247 52.362 450.02 52.362H444.172V60.624ZM466.958 66.353C466.958 65.571 467.031 64.8173 467.179 64.092C467.337 63.3553 467.592 62.6753 467.944 62.052C468.25 61.4513 468.59 60.9753 468.964 60.624C469.338 60.2613 469.757 59.9043 470.222 59.553C470.686 59.1903 471.202 58.7087 471.769 58.108C472.233 57.598 472.539 57.0937 472.687 56.595C472.834 56.085 472.908 55.541 472.908 54.963C472.908 54.589 472.868 54.2377 472.789 53.909C472.709 53.5803 472.568 53.297 472.364 53.059C472.046 52.6397 471.638 52.345 471.14 52.175C470.641 51.9937 470.108 51.903 469.542 51.903C469.077 51.903 468.629 51.9653 468.199 52.09C467.779 52.2033 467.422 52.3847 467.128 52.634C466.788 52.906 466.538 53.2403 466.38 53.637C466.221 54.0337 466.147 54.47 466.159 54.946H461.841C461.954 53.8127 462.26 52.7643 462.759 51.801C463.269 50.8263 463.937 50.05 464.765 49.472C465.411 48.996 466.136 48.639 466.941 48.401C467.757 48.163 468.573 48.044 469.389 48.044C470.635 48.044 471.808 48.2367 472.908 48.622C474.018 49.0073 474.942 49.642 475.679 50.526C476.189 51.104 476.574 51.7727 476.835 52.532C477.107 53.2913 477.243 54.062 477.243 54.844C477.243 56.0113 476.988 57.0767 476.478 58.04C475.979 59.0033 475.344 59.893 474.574 60.709C474.211 61.0943 473.865 61.4343 473.537 61.729C473.208 62.0237 472.902 62.3127 472.619 62.596C472.347 62.868 472.12 63.157 471.939 63.463C471.621 63.9957 471.434 64.449 471.378 64.823C471.321 65.1857 471.293 65.6957 471.293 66.353H466.958ZM466.992 73V68.495H471.293V73H466.992Z" fill="#3E1BC9"></path> <rect y="120" width="600" height="300" rx="20" fill="#3E1BC9"></rect> <path d="M141.187 261V240.84H144.561V249.324H154.109V240.84H157.469V261H154.109V252.488H144.561V261H141.187ZM159.994 261L166.35 240.84H171.292L177.648 261H174.176L168.408 242.912H169.164L163.466 261H159.994ZM163.536 256.632V253.482H174.12V256.632H163.536ZM182.746 261L176.39 240.84H179.862L185.182 257.724L190.572 240.84H194.044L187.688 261H182.746ZM196.148 261V240.84H209.168V244.004H199.522V248.974H207.488V252.138H199.522V257.836H209.168V261H196.148ZM223.032 261V252.74L216.172 240.84H220.106L224.74 248.876L229.36 240.84H233.294L226.448 252.74V261H223.032ZM242.654 261.42C240.638 261.42 238.911 260.981 237.474 260.104C236.037 259.217 234.931 257.985 234.156 256.408C233.391 254.831 233.008 253.001 233.008 250.92C233.008 248.839 233.391 247.009 234.156 245.432C234.931 243.855 236.037 242.627 237.474 241.75C238.911 240.863 240.638 240.42 242.654 240.42C244.67 240.42 246.397 240.863 247.834 241.75C249.281 242.627 250.387 243.855 251.152 245.432C251.927 247.009 252.314 248.839 252.314 250.92C252.314 253.001 251.927 254.831 251.152 256.408C250.387 257.985 249.281 259.217 247.834 260.104C246.397 260.981 244.67 261.42 242.654 261.42ZM242.654 258.242C244.007 258.251 245.132 257.953 246.028 257.346C246.933 256.739 247.61 255.885 248.058 254.784C248.515 253.683 248.744 252.395 248.744 250.92C248.744 249.445 248.515 248.167 248.058 247.084C247.61 245.992 246.933 245.143 246.028 244.536C245.132 243.929 244.007 243.617 242.654 243.598C241.301 243.589 240.176 243.887 239.28 244.494C238.384 245.101 237.707 245.955 237.25 247.056C236.802 248.157 236.578 249.445 236.578 250.92C236.578 252.395 236.802 253.678 237.25 254.77C237.698 255.853 238.37 256.697 239.266 257.304C240.171 257.911 241.301 258.223 242.654 258.242ZM263.221 261.42C261.615 261.42 260.201 261.093 258.979 260.44C257.765 259.787 256.813 258.867 256.123 257.682C255.441 256.497 255.101 255.106 255.101 253.51V240.868L258.517 240.84V253.426C258.517 254.182 258.643 254.859 258.895 255.456C259.156 256.053 259.506 256.562 259.945 256.982C260.383 257.393 260.887 257.705 261.457 257.92C262.026 258.135 262.614 258.242 263.221 258.242C263.846 258.242 264.439 258.135 264.999 257.92C265.568 257.696 266.072 257.379 266.511 256.968C266.949 256.548 267.295 256.039 267.547 255.442C267.799 254.845 267.925 254.173 267.925 253.426V240.84H271.341V253.51C271.341 255.106 270.995 256.497 270.305 257.682C269.623 258.867 268.671 259.787 267.449 260.44C266.235 261.093 264.826 261.42 263.221 261.42ZM275.253 261V240.84H283.583C283.779 240.84 284.031 240.849 284.339 240.868C284.647 240.877 284.932 240.905 285.193 240.952C286.36 241.129 287.321 241.517 288.077 242.114C288.842 242.711 289.407 243.467 289.771 244.382C290.144 245.287 290.331 246.295 290.331 247.406C290.331 249.049 289.916 250.463 289.085 251.648C288.254 252.824 286.98 253.552 285.263 253.832L283.821 253.958H278.627V261H275.253ZM286.831 261L282.855 252.796L286.285 252.04L290.653 261H286.831ZM278.627 250.808H283.443C283.63 250.808 283.84 250.799 284.073 250.78C284.306 250.761 284.521 250.724 284.717 250.668C285.277 250.528 285.716 250.281 286.033 249.926C286.36 249.571 286.588 249.17 286.719 248.722C286.859 248.274 286.929 247.835 286.929 247.406C286.929 246.977 286.859 246.538 286.719 246.09C286.588 245.633 286.36 245.227 286.033 244.872C285.716 244.517 285.277 244.27 284.717 244.13C284.521 244.074 284.306 244.041 284.073 244.032C283.84 244.013 283.63 244.004 283.443 244.004H278.627V250.808ZM299.343 261V240.84H311.481V244.214H302.717V249.24H309.801V252.6H302.717V261H299.343ZM314.279 261V240.84H317.653V261H314.279ZM321.847 261V240.84H330.177C330.373 240.84 330.625 240.849 330.933 240.868C331.241 240.877 331.525 240.905 331.787 240.952C332.953 241.129 333.915 241.517 334.671 242.114C335.436 242.711 336.001 243.467 336.365 244.382C336.738 245.287 336.925 246.295 336.925 247.406C336.925 249.049 336.509 250.463 335.679 251.648C334.848 252.824 333.574 253.552 331.857 253.832L330.415 253.958H325.221V261H321.847ZM333.425 261L329.449 252.796L332.879 252.04L337.247 261H333.425ZM325.221 250.808H330.037C330.223 250.808 330.433 250.799 330.667 250.78C330.9 250.761 331.115 250.724 331.311 250.668C331.871 250.528 332.309 250.281 332.627 249.926C332.953 249.571 333.182 249.17 333.313 248.722C333.453 248.274 333.523 247.835 333.523 247.406C333.523 246.977 333.453 246.538 333.313 246.09C333.182 245.633 332.953 245.227 332.627 244.872C332.309 244.517 331.871 244.27 331.311 244.13C331.115 244.074 330.9 244.041 330.667 244.032C330.433 244.013 330.223 244.004 330.037 244.004H325.221V250.808ZM347.793 261.42C346.318 261.42 344.988 261.163 343.803 260.65C342.627 260.137 341.656 259.404 340.891 258.452C340.135 257.491 339.654 256.352 339.449 255.036L342.949 254.504C343.248 255.699 343.859 256.623 344.783 257.276C345.716 257.929 346.79 258.256 348.003 258.256C348.722 258.256 349.398 258.144 350.033 257.92C350.668 257.696 351.181 257.369 351.573 256.94C351.974 256.511 352.175 255.983 352.175 255.358C352.175 255.078 352.128 254.821 352.035 254.588C351.942 254.345 351.802 254.131 351.615 253.944C351.438 253.757 351.204 253.589 350.915 253.44C350.635 253.281 350.308 253.146 349.935 253.034L344.727 251.494C344.279 251.363 343.794 251.191 343.271 250.976C342.758 250.752 342.268 250.449 341.801 250.066C341.344 249.674 340.966 249.179 340.667 248.582C340.378 247.975 340.233 247.229 340.233 246.342C340.233 245.045 340.56 243.957 341.213 243.08C341.876 242.193 342.762 241.531 343.873 241.092C344.993 240.653 346.234 240.439 347.597 240.448C348.978 240.457 350.21 240.695 351.293 241.162C352.376 241.619 353.281 242.287 354.009 243.164C354.737 244.041 355.25 245.101 355.549 246.342L351.923 246.972C351.774 246.263 351.484 245.661 351.055 245.166C350.635 244.662 350.117 244.279 349.501 244.018C348.894 243.757 348.246 243.617 347.555 243.598C346.883 243.589 346.258 243.691 345.679 243.906C345.11 244.111 344.648 244.41 344.293 244.802C343.948 245.194 343.775 245.651 343.775 246.174C343.775 246.669 343.924 247.075 344.223 247.392C344.522 247.7 344.89 247.947 345.329 248.134C345.777 248.311 346.23 248.461 346.687 248.582L350.299 249.59C350.794 249.721 351.349 249.898 351.965 250.122C352.581 250.346 353.174 250.659 353.743 251.06C354.312 251.461 354.779 251.989 355.143 252.642C355.516 253.295 355.703 254.126 355.703 255.134C355.703 256.179 355.484 257.099 355.045 257.892C354.616 258.676 354.032 259.329 353.295 259.852C352.558 260.375 351.713 260.767 350.761 261.028C349.818 261.289 348.829 261.42 347.793 261.42ZM363.577 261V244.004H357.053V240.84H373.475V244.004H366.951V261H363.577ZM388.998 261.42C386.982 261.42 385.255 260.981 383.818 260.104C382.38 259.217 381.274 257.985 380.5 256.408C379.734 254.831 379.352 253.001 379.352 250.92C379.352 248.839 379.734 247.009 380.5 245.432C381.274 243.855 382.38 242.627 383.818 241.75C385.255 240.863 386.982 240.42 388.998 240.42C391.322 240.42 393.258 241.003 394.808 242.17C396.357 243.327 397.444 244.891 398.07 246.86L394.668 247.798C394.276 246.482 393.608 245.455 392.666 244.718C391.723 243.971 390.5 243.598 388.998 243.598C387.644 243.598 386.515 243.901 385.61 244.508C384.714 245.115 384.037 245.969 383.58 247.07C383.132 248.162 382.903 249.445 382.894 250.92C382.894 252.395 383.118 253.683 383.566 254.784C384.023 255.876 384.704 256.725 385.61 257.332C386.515 257.939 387.644 258.242 388.998 258.242C390.5 258.242 391.723 257.869 392.666 257.122C393.608 256.375 394.276 255.349 394.668 254.042L398.07 254.98C397.444 256.949 396.357 258.517 394.808 259.684C393.258 260.841 391.322 261.42 388.998 261.42ZM401.144 261V240.84H404.518V249.324H414.066V240.84H417.426V261H414.066V252.488H404.518V261H401.144ZM421.631 261V240.84H425.005V261H421.631ZM429.478 261V240.84H432.852V257.836H441.756V261H429.478ZM444.128 261V240.84H450.554C450.722 240.84 451.053 240.845 451.548 240.854C452.052 240.863 452.537 240.896 453.004 240.952C454.6 241.157 455.949 241.727 457.05 242.66C458.161 243.584 459.001 244.765 459.57 246.202C460.139 247.639 460.424 249.212 460.424 250.92C460.424 252.628 460.139 254.201 459.57 255.638C459.001 257.075 458.161 258.261 457.05 259.194C455.949 260.118 454.6 260.683 453.004 260.888C452.547 260.944 452.066 260.977 451.562 260.986C451.058 260.995 450.722 261 450.554 261H444.128ZM447.558 257.822H450.554C450.834 257.822 451.189 257.813 451.618 257.794C452.057 257.775 452.444 257.733 452.78 257.668C453.732 257.491 454.507 257.066 455.104 256.394C455.701 255.722 456.14 254.905 456.42 253.944C456.709 252.983 456.854 251.975 456.854 250.92C456.854 249.828 456.709 248.801 456.42 247.84C456.131 246.879 455.683 246.071 455.076 245.418C454.479 244.765 453.713 244.349 452.78 244.172C452.444 244.097 452.057 244.055 451.618 244.046C451.189 244.027 450.834 244.018 450.554 244.018H447.558V257.822ZM194.757 300L188.863 279.84H192.405L196.423 294.4L200.427 279.868L203.969 279.84L207.987 294.4L211.991 279.84H215.533L209.653 300H206.321L202.191 285.664L198.089 300H194.757ZM217.817 300V279.84H221.191V288.324H230.739V279.84H234.099V300H230.739V291.488H221.191V300H217.817ZM238.024 300V279.84H251.044V283.004H241.398V287.974H249.364V291.138H241.398V296.836H251.044V300H238.024ZM254.403 300V279.84H257.819L267.171 294.05V279.84H270.587V300H267.171L257.819 285.79V300H254.403ZM285.006 300V291.74L278.146 279.84H282.08L286.714 287.876L291.334 279.84H295.268L288.422 291.74V300H285.006ZM304.629 300.42C302.613 300.42 300.886 299.981 299.449 299.104C298.011 298.217 296.905 296.985 296.131 295.408C295.365 293.831 294.983 292.001 294.983 289.92C294.983 287.839 295.365 286.009 296.131 284.432C296.905 282.855 298.011 281.627 299.449 280.75C300.886 279.863 302.613 279.42 304.629 279.42C306.645 279.42 308.371 279.863 309.809 280.75C311.255 281.627 312.361 282.855 313.127 284.432C313.901 286.009 314.289 287.839 314.289 289.92C314.289 292.001 313.901 293.831 313.127 295.408C312.361 296.985 311.255 298.217 309.809 299.104C308.371 299.981 306.645 300.42 304.629 300.42ZM304.629 297.242C305.982 297.251 307.107 296.953 308.003 296.346C308.908 295.739 309.585 294.885 310.033 293.784C310.49 292.683 310.719 291.395 310.719 289.92C310.719 288.445 310.49 287.167 310.033 286.084C309.585 284.992 308.908 284.143 308.003 283.536C307.107 282.929 305.982 282.617 304.629 282.598C303.275 282.589 302.151 282.887 301.255 283.494C300.359 284.101 299.682 284.955 299.225 286.056C298.777 287.157 298.553 288.445 298.553 289.92C298.553 291.395 298.777 292.678 299.225 293.77C299.673 294.853 300.345 295.697 301.241 296.304C302.146 296.911 303.275 297.223 304.629 297.242ZM325.195 300.42C323.59 300.42 322.176 300.093 320.953 299.44C319.74 298.787 318.788 297.867 318.097 296.682C317.416 295.497 317.075 294.106 317.075 292.51V279.868L320.491 279.84V292.426C320.491 293.182 320.617 293.859 320.869 294.456C321.131 295.053 321.481 295.562 321.919 295.982C322.358 296.393 322.862 296.705 323.431 296.92C324.001 297.135 324.589 297.242 325.195 297.242C325.821 297.242 326.413 297.135 326.973 296.92C327.543 296.696 328.047 296.379 328.485 295.968C328.924 295.548 329.269 295.039 329.521 294.442C329.773 293.845 329.899 293.173 329.899 292.426V279.84H333.315V292.51C333.315 294.106 332.97 295.497 332.279 296.682C331.598 297.867 330.646 298.787 329.423 299.44C328.21 300.093 326.801 300.42 325.195 300.42ZM336.948 284.88V279.84H340.322V284.88H336.948ZM344.528 300V279.84H352.858C353.054 279.84 353.306 279.849 353.614 279.868C353.922 279.877 354.207 279.905 354.468 279.952C355.635 280.129 356.596 280.517 357.352 281.114C358.118 281.711 358.682 282.467 359.046 283.382C359.42 284.287 359.606 285.295 359.606 286.406C359.606 288.049 359.191 289.463 358.36 290.648C357.53 291.824 356.256 292.552 354.538 292.832L353.096 292.958H347.902V300H344.528ZM356.106 300L352.13 291.796L355.56 291.04L359.928 300H356.106ZM347.902 289.808H352.718C352.905 289.808 353.115 289.799 353.348 289.78C353.582 289.761 353.796 289.724 353.992 289.668C354.552 289.528 354.991 289.281 355.308 288.926C355.635 288.571 355.864 288.17 355.994 287.722C356.134 287.274 356.204 286.835 356.204 286.406C356.204 285.977 356.134 285.538 355.994 285.09C355.864 284.633 355.635 284.227 355.308 283.872C354.991 283.517 354.552 283.27 353.992 283.13C353.796 283.074 353.582 283.041 353.348 283.032C353.115 283.013 352.905 283.004 352.718 283.004H347.902V289.808ZM363.013 300V279.84H376.033V283.004H366.387V287.974H374.353V291.138H366.387V296.836H376.033V300H363.013ZM388.497 300V283.522L384.717 285.832V282.108L388.497 279.84H391.941V300H388.497ZM403.868 300.42C402.534 300.42 401.348 300.149 400.312 299.608C399.276 299.067 398.464 298.315 397.876 297.354C397.288 296.393 396.994 295.291 396.994 294.05C396.994 292.939 397.251 291.908 397.764 290.956C398.278 290.004 399.029 289.243 400.018 288.674L399.948 289.752C399.174 289.164 398.572 288.487 398.142 287.722C397.722 286.947 397.512 286.079 397.512 285.118C397.512 283.961 397.783 282.957 398.324 282.108C398.875 281.259 399.626 280.601 400.578 280.134C401.53 279.658 402.627 279.42 403.868 279.42C405.11 279.42 406.206 279.658 407.158 280.134C408.12 280.601 408.871 281.259 409.412 282.108C409.963 282.957 410.238 283.961 410.238 285.118C410.238 286.079 410.033 286.943 409.622 287.708C409.221 288.473 408.61 289.164 407.788 289.78L407.774 288.688C408.745 289.239 409.487 289.995 410 290.956C410.523 291.908 410.784 292.939 410.784 294.05C410.784 295.291 410.486 296.393 409.888 297.354C409.3 298.315 408.484 299.067 407.438 299.608C406.402 300.149 405.212 300.42 403.868 300.42ZM403.868 297.242C404.858 297.242 405.66 296.971 406.276 296.43C406.902 295.889 407.214 295.095 407.214 294.05C407.214 293.005 406.906 292.211 406.29 291.67C405.674 291.119 404.867 290.844 403.868 290.844C402.879 290.844 402.081 291.119 401.474 291.67C400.868 292.211 400.564 293.005 400.564 294.05C400.564 295.095 400.868 295.889 401.474 296.43C402.081 296.971 402.879 297.242 403.868 297.242ZM403.868 287.638C404.699 287.638 405.371 287.433 405.884 287.022C406.407 286.602 406.668 285.967 406.668 285.118C406.668 284.269 406.407 283.639 405.884 283.228C405.371 282.808 404.699 282.598 403.868 282.598C403.047 282.598 402.375 282.808 401.852 283.228C401.339 283.639 401.082 284.269 401.082 285.118C401.082 285.967 401.339 286.602 401.852 287.022C402.375 287.433 403.047 287.638 403.868 287.638Z" fill="white"></path> <rect y="475" width="600" height="300" rx="20" fill="#E85668"></rect> <path d="M191.55 636L185.656 615.84H189.198L193.216 630.4L197.22 615.868L200.762 615.84L204.78 630.4L208.784 615.84H212.326L206.446 636H203.114L198.984 621.664L194.882 636H191.55ZM214.61 636V615.84H217.984V624.324H227.532V615.84H230.892V636H227.532V627.488H217.984V636H214.61ZM234.817 636V615.84H247.837V619.004H238.191V623.974H246.157V627.138H238.191V632.836H247.837V636H234.817ZM251.196 636V615.84H254.612L263.964 630.05V615.84H267.38V636H263.964L254.612 621.79V636H251.196ZM281.799 636V627.74L274.939 615.84H278.873L283.507 623.876L288.127 615.84H292.061L285.215 627.74V636H281.799ZM301.422 636.42C299.406 636.42 297.679 635.981 296.242 635.104C294.804 634.217 293.698 632.985 292.924 631.408C292.158 629.831 291.776 628.001 291.776 625.92C291.776 623.839 292.158 622.009 292.924 620.432C293.698 618.855 294.804 617.627 296.242 616.75C297.679 615.863 299.406 615.42 301.422 615.42C303.438 615.42 305.164 615.863 306.602 616.75C308.048 617.627 309.154 618.855 309.92 620.432C310.694 622.009 311.082 623.839 311.082 625.92C311.082 628.001 310.694 629.831 309.92 631.408C309.154 632.985 308.048 634.217 306.602 635.104C305.164 635.981 303.438 636.42 301.422 636.42ZM301.422 633.242C302.775 633.251 303.9 632.953 304.796 632.346C305.701 631.739 306.378 630.885 306.826 629.784C307.283 628.683 307.512 627.395 307.512 625.92C307.512 624.445 307.283 623.167 306.826 622.084C306.378 620.992 305.701 620.143 304.796 619.536C303.9 618.929 302.775 618.617 301.422 618.598C300.068 618.589 298.944 618.887 298.048 619.494C297.152 620.101 296.475 620.955 296.018 622.056C295.57 623.157 295.346 624.445 295.346 625.92C295.346 627.395 295.57 628.678 296.018 629.77C296.466 630.853 297.138 631.697 298.034 632.304C298.939 632.911 300.068 633.223 301.422 633.242ZM321.988 636.42C320.383 636.42 318.969 636.093 317.746 635.44C316.533 634.787 315.581 633.867 314.89 632.682C314.209 631.497 313.868 630.106 313.868 628.51V615.868L317.284 615.84V628.426C317.284 629.182 317.41 629.859 317.662 630.456C317.924 631.053 318.274 631.562 318.712 631.982C319.151 632.393 319.655 632.705 320.224 632.92C320.794 633.135 321.382 633.242 321.988 633.242C322.614 633.242 323.206 633.135 323.766 632.92C324.336 632.696 324.84 632.379 325.278 631.968C325.717 631.548 326.062 631.039 326.314 630.442C326.566 629.845 326.692 629.173 326.692 628.426V615.84H330.108V628.51C330.108 630.106 329.763 631.497 329.072 632.682C328.391 633.867 327.439 634.787 326.216 635.44C325.003 636.093 323.594 636.42 321.988 636.42ZM333.741 620.88V615.84H337.115V620.88H333.741ZM341.321 636V615.84H349.651C349.847 615.84 350.099 615.849 350.407 615.868C350.715 615.877 351 615.905 351.261 615.952C352.428 616.129 353.389 616.517 354.145 617.114C354.911 617.711 355.475 618.467 355.839 619.382C356.213 620.287 356.399 621.295 356.399 622.406C356.399 624.049 355.984 625.463 355.153 626.648C354.323 627.824 353.049 628.552 351.331 628.832L349.889 628.958H344.695V636H341.321ZM352.899 636L348.923 627.796L352.353 627.04L356.721 636H352.899ZM344.695 625.808H349.511C349.698 625.808 349.908 625.799 350.141 625.78C350.375 625.761 350.589 625.724 350.785 625.668C351.345 625.528 351.784 625.281 352.101 624.926C352.428 624.571 352.657 624.17 352.787 623.722C352.927 623.274 352.997 622.835 352.997 622.406C352.997 621.977 352.927 621.538 352.787 621.09C352.657 620.633 352.428 620.227 352.101 619.872C351.784 619.517 351.345 619.27 350.785 619.13C350.589 619.074 350.375 619.041 350.141 619.032C349.908 619.013 349.698 619.004 349.511 619.004H344.695V625.808ZM359.806 636V615.84H372.826V619.004H363.18V623.974H371.146V627.138H363.18V632.836H372.826V636H359.806ZM387.768 636.42C386.741 636.42 385.785 636.21 384.898 635.79C384.011 635.361 383.246 634.773 382.602 634.026C381.967 633.279 381.51 632.411 381.23 631.422L384.478 630.554C384.609 631.095 384.847 631.562 385.192 631.954C385.547 632.346 385.957 632.649 386.424 632.864C386.9 633.079 387.39 633.186 387.894 633.186C388.547 633.186 389.145 633.027 389.686 632.71C390.227 632.393 390.657 631.968 390.974 631.436C391.291 630.895 391.45 630.297 391.45 629.644C391.45 628.991 391.287 628.398 390.96 627.866C390.643 627.325 390.213 626.9 389.672 626.592C389.131 626.275 388.538 626.116 387.894 626.116C387.119 626.116 386.475 626.256 385.962 626.536C385.458 626.816 385.071 627.115 384.8 627.432L381.916 626.508L382.532 615.84H393.48V619.004H384.338L385.598 617.814L385.15 625.234L384.534 624.478C385.057 624.002 385.663 623.647 386.354 623.414C387.045 623.181 387.712 623.064 388.356 623.064C389.616 623.064 390.731 623.353 391.702 623.932C392.682 624.501 393.447 625.281 393.998 626.27C394.558 627.259 394.838 628.384 394.838 629.644C394.838 630.904 394.511 632.047 393.858 633.074C393.205 634.091 392.341 634.903 391.268 635.51C390.204 636.117 389.037 636.42 387.768 636.42ZM405.448 636.42C404.02 636.42 402.76 636.117 401.668 635.51C400.576 634.894 399.722 634.04 399.106 632.948C398.5 631.856 398.196 630.596 398.196 629.168V622.672C398.196 621.244 398.5 619.984 399.106 618.892C399.722 617.8 400.576 616.951 401.668 616.344C402.76 615.728 404.02 615.42 405.448 615.42C406.876 615.42 408.132 615.728 409.214 616.344C410.306 616.951 411.16 617.8 411.776 618.892C412.392 619.984 412.7 621.244 412.7 622.672V629.168C412.7 630.596 412.392 631.856 411.776 632.948C411.16 634.04 410.306 634.894 409.214 635.51C408.132 636.117 406.876 636.42 405.448 636.42ZM405.448 633.214C406.158 633.214 406.802 633.046 407.38 632.71C407.959 632.365 408.416 631.907 408.752 631.338C409.088 630.759 409.256 630.115 409.256 629.406V622.42C409.256 621.701 409.088 621.057 408.752 620.488C408.416 619.909 407.959 619.452 407.38 619.116C406.802 618.771 406.158 618.598 405.448 618.598C404.739 618.598 404.095 618.771 403.516 619.116C402.938 619.452 402.48 619.909 402.144 620.488C401.808 621.057 401.64 621.701 401.64 622.42V629.406C401.64 630.115 401.808 630.759 402.144 631.338C402.48 631.907 402.938 632.365 403.516 632.71C404.095 633.046 404.739 633.214 405.448 633.214Z" fill="white"></path> <circle cx="300" cy="448" r="60" fill="#F9F9F9"></circle> <path d="M288.777 461.51C286.329 461.51 284.232 460.977 282.487 459.912C280.742 458.835 279.399 457.339 278.458 455.424C277.529 453.509 277.064 451.287 277.064 448.76C277.064 446.233 277.529 444.011 278.458 442.096C279.399 440.181 280.742 438.69 282.487 437.625C284.232 436.548 286.329 436.01 288.777 436.01C291.225 436.01 293.322 436.548 295.067 437.625C296.824 438.69 298.167 440.181 299.096 442.096C300.037 444.011 300.507 446.233 300.507 448.76C300.507 451.287 300.037 453.509 299.096 455.424C298.167 457.339 296.824 458.835 295.067 459.912C293.322 460.977 291.225 461.51 288.777 461.51ZM288.777 457.651C290.42 457.662 291.786 457.3 292.874 456.563C293.973 455.826 294.795 454.789 295.339 453.452C295.894 452.115 296.172 450.551 296.172 448.76C296.172 446.969 295.894 445.417 295.339 444.102C294.795 442.776 293.973 441.745 292.874 441.008C291.786 440.271 290.42 439.892 288.777 439.869C287.134 439.858 285.768 440.22 284.68 440.957C283.592 441.694 282.77 442.731 282.215 444.068C281.671 445.405 281.399 446.969 281.399 448.76C281.399 450.551 281.671 452.109 282.215 453.435C282.759 454.75 283.575 455.775 284.663 456.512C285.762 457.249 287.134 457.628 288.777 457.651ZM303.891 461V436.52H314.006C314.244 436.52 314.55 436.531 314.924 436.554C315.298 436.565 315.643 436.599 315.961 436.656C317.377 436.871 318.545 437.342 319.463 438.067C320.392 438.792 321.078 439.71 321.52 440.821C321.973 441.92 322.2 443.144 322.2 444.493C322.2 446.488 321.695 448.205 320.687 449.644C319.678 451.072 318.131 451.956 316.046 452.296L314.295 452.449H307.988V461H303.891ZM317.95 461L313.122 451.038L317.287 450.12L322.591 461H317.95ZM307.988 448.624H313.836C314.062 448.624 314.317 448.613 314.601 448.59C314.884 448.567 315.145 448.522 315.383 448.454C316.063 448.284 316.595 447.984 316.981 447.553C317.377 447.122 317.655 446.635 317.814 446.091C317.984 445.547 318.069 445.014 318.069 444.493C318.069 443.972 317.984 443.439 317.814 442.895C317.655 442.34 317.377 441.847 316.981 441.416C316.595 440.985 316.063 440.685 315.383 440.515C315.145 440.447 314.884 440.407 314.601 440.396C314.317 440.373 314.062 440.362 313.836 440.362H307.988V448.624Z" fill="#3E1BC9"></path> </svg> 