<?xml version="1.0" encoding="UTF-8"?> <svg xmlns="http://www.w3.org/2000/svg" width="600" height="775" viewBox="0 0 600 775" fill="none"> <rect width="600" height="775" rx="20" fill="#F9F9F9"></rect> <path d="M129.614 73L122.457 48.52H126.758L131.637 66.2L136.499 48.554L140.8 48.52L145.679 66.2L150.541 48.52H154.842L147.702 73H143.656L138.641 55.592L133.66 73H129.614ZM167.305 73.51C164.857 73.51 162.761 72.9773 161.015 71.912C159.27 70.8353 157.927 69.3393 156.986 67.424C156.057 65.5087 155.592 63.2873 155.592 60.76C155.592 58.2327 156.057 56.0113 156.986 54.096C157.927 52.1807 159.27 50.6903 161.015 49.625C162.761 48.5483 164.857 48.01 167.305 48.01C169.753 48.01 171.85 48.5483 173.595 49.625C175.352 50.6903 176.695 52.1807 177.624 54.096C178.565 56.0113 179.035 58.2327 179.035 60.76C179.035 63.2873 178.565 65.5087 177.624 67.424C176.695 69.3393 175.352 70.8353 173.595 71.912C171.85 72.9773 169.753 73.51 167.305 73.51ZM167.305 69.651C168.949 69.6623 170.314 69.2997 171.402 68.563C172.502 67.8263 173.323 66.7893 173.867 65.452C174.423 64.1147 174.7 62.5507 174.7 60.76C174.7 58.9693 174.423 57.4167 173.867 56.102C173.323 54.776 172.502 53.7447 171.402 53.008C170.314 52.2713 168.949 51.8917 167.305 51.869C165.662 51.8577 164.296 52.2203 163.208 52.957C162.12 53.6937 161.299 54.7307 160.743 56.068C160.199 57.4053 159.927 58.9693 159.927 60.76C159.927 62.5507 160.199 64.109 160.743 65.435C161.287 66.7497 162.103 67.7753 163.191 68.512C164.291 69.2487 165.662 69.6283 167.305 69.651ZM192.279 73.51C190.33 73.51 188.613 73.1133 187.128 72.32C185.655 71.5267 184.499 70.4103 183.66 68.971C182.833 67.5317 182.419 65.843 182.419 63.905V48.554L186.567 48.52V63.803C186.567 64.721 186.72 65.5427 187.026 66.268C187.343 66.9933 187.768 67.611 188.301 68.121C188.834 68.6197 189.446 68.9993 190.137 69.26C190.828 69.5207 191.542 69.651 192.279 69.651C193.038 69.651 193.758 69.5207 194.438 69.26C195.129 68.988 195.741 68.6027 196.274 68.104C196.807 67.594 197.226 66.9763 197.532 66.251C197.838 65.5257 197.991 64.7097 197.991 63.803V48.52H202.139V63.905C202.139 65.843 201.72 67.5317 200.881 68.971C200.054 70.4103 198.898 71.5267 197.413 72.32C195.94 73.1133 194.228 73.51 192.279 73.51ZM207.23 73V48.52H211.327V69.158H222.139V73H207.23ZM225.019 73V48.52H232.822C233.026 48.52 233.428 48.5257 234.029 48.537C234.641 48.5483 235.23 48.588 235.797 48.656C237.735 48.9053 239.372 49.5967 240.71 50.73C242.058 51.852 243.078 53.2857 243.77 55.031C244.461 56.7763 244.807 58.686 244.807 60.76C244.807 62.834 244.461 64.7437 243.77 66.489C243.078 68.2343 242.058 69.6737 240.71 70.807C239.372 71.929 237.735 72.6147 235.797 72.864C235.241 72.932 234.658 72.9717 234.046 72.983C233.434 72.9943 233.026 73 232.822 73H225.019ZM229.184 69.141H232.822C233.162 69.141 233.592 69.1297 234.114 69.107C234.646 69.0843 235.117 69.0333 235.525 68.954C236.681 68.7387 237.621 68.223 238.347 67.407C239.072 66.591 239.605 65.5993 239.945 64.432C240.296 63.2647 240.472 62.0407 240.472 60.76C240.472 59.434 240.296 58.1873 239.945 57.02C239.593 55.8527 239.049 54.8723 238.313 54.079C237.587 53.2857 236.658 52.7813 235.525 52.566C235.117 52.4753 234.646 52.4243 234.114 52.413C233.592 52.3903 233.162 52.379 232.822 52.379H229.184V69.141ZM261.582 73V62.97L253.252 48.52H258.029L263.656 58.278L269.266 48.52H274.043L265.73 62.97V73H261.582ZM285.409 73.51C282.961 73.51 280.864 72.9773 279.119 71.912C277.373 70.8353 276.03 69.3393 275.09 67.424C274.16 65.5087 273.696 63.2873 273.696 60.76C273.696 58.2327 274.16 56.0113 275.09 54.096C276.03 52.1807 277.373 50.6903 279.119 49.625C280.864 48.5483 282.961 48.01 285.409 48.01C287.857 48.01 289.953 48.5483 291.699 49.625C293.455 50.6903 294.798 52.1807 295.728 54.096C296.668 56.0113 297.139 58.2327 297.139 60.76C297.139 63.2873 296.668 65.5087 295.728 67.424C294.798 69.3393 293.455 70.8353 291.699 71.912C289.953 72.9773 287.857 73.51 285.409 73.51ZM285.409 69.651C287.052 69.6623 288.418 69.2997 289.506 68.563C290.605 67.8263 291.427 66.7893 291.971 65.452C292.526 64.1147 292.804 62.5507 292.804 60.76C292.804 58.9693 292.526 57.4167 291.971 56.102C291.427 54.776 290.605 53.7447 289.506 53.008C288.418 52.2713 287.052 51.8917 285.409 51.869C283.765 51.8577 282.4 52.2203 281.312 52.957C280.224 53.6937 279.402 54.7307 278.847 56.068C278.303 57.4053 278.031 58.9693 278.031 60.76C278.031 62.5507 278.303 64.109 278.847 65.435C279.391 66.7497 280.207 67.7753 281.295 68.512C282.394 69.2487 283.765 69.6283 285.409 69.651ZM310.383 73.51C308.433 73.51 306.716 73.1133 305.232 72.32C303.758 71.5267 302.602 70.4103 301.764 68.971C300.936 67.5317 300.523 65.843 300.523 63.905V48.554L304.671 48.52V63.803C304.671 64.721 304.824 65.5427 305.13 66.268C305.447 66.9933 305.872 67.611 306.405 68.121C306.937 68.6197 307.549 68.9993 308.241 69.26C308.932 69.5207 309.646 69.651 310.383 69.651C311.142 69.651 311.862 69.5207 312.542 69.26C313.233 68.988 313.845 68.6027 314.378 68.104C314.91 67.594 315.33 66.9763 315.636 66.251C315.942 65.5257 316.095 64.7097 316.095 63.803V48.52H320.243V63.905C320.243 65.843 319.823 67.5317 318.985 68.971C318.157 70.4103 317.001 71.5267 315.517 72.32C314.043 73.1133 312.332 73.51 310.383 73.51ZM331.8 73V48.52H341.915C342.153 48.52 342.459 48.5313 342.833 48.554C343.207 48.5653 343.553 48.5993 343.87 48.656C345.287 48.8713 346.454 49.3417 347.372 50.067C348.301 50.7923 348.987 51.7103 349.429 52.821C349.882 53.9203 350.109 55.1443 350.109 56.493C350.109 58.4877 349.605 60.2047 348.596 61.644C347.587 63.072 346.04 63.956 343.955 64.296L342.204 64.449H335.897V73H331.8ZM345.859 73L341.031 63.038L345.196 62.12L350.5 73H345.859ZM335.897 60.624H341.745C341.972 60.624 342.227 60.6127 342.51 60.59C342.793 60.5673 343.054 60.522 343.292 60.454C343.972 60.284 344.505 59.9837 344.89 59.553C345.287 59.1223 345.564 58.635 345.723 58.091C345.893 57.547 345.978 57.0143 345.978 56.493C345.978 55.9717 345.893 55.439 345.723 54.895C345.564 54.3397 345.287 53.8467 344.89 53.416C344.505 52.9853 343.972 52.685 343.292 52.515C343.054 52.447 342.793 52.4073 342.51 52.396C342.227 52.3733 341.972 52.362 341.745 52.362H335.897V60.624ZM352.545 73L360.263 48.52H366.264L373.982 73H369.766L362.762 51.036H363.68L356.761 73H352.545ZM356.846 67.696V63.871H369.698V67.696H356.846ZM380.912 73V52.362H372.99V48.52H392.931V52.362H385.009V73H380.912ZM395.65 73V48.52H399.747V58.822H411.341V48.52H415.421V73H411.341V62.664H399.747V73H395.65ZM420.187 73V48.52H435.997V52.362H424.284V58.397H433.957V62.239H424.284V69.158H435.997V73H420.187ZM440.075 73V48.52H450.19C450.428 48.52 450.734 48.5313 451.108 48.554C451.482 48.5653 451.828 48.5993 452.145 48.656C453.562 48.8713 454.729 49.3417 455.647 50.067C456.577 50.7923 457.262 51.7103 457.704 52.821C458.158 53.9203 458.384 55.1443 458.384 56.493C458.384 58.4877 457.88 60.2047 456.871 61.644C455.863 63.072 454.316 63.956 452.23 64.296L450.479 64.449H444.172V73H440.075ZM454.134 73L449.306 63.038L453.471 62.12L458.775 73H454.134ZM444.172 60.624H450.02C450.247 60.624 450.502 60.6127 450.785 60.59C451.069 60.5673 451.329 60.522 451.567 60.454C452.247 60.284 452.78 59.9837 453.165 59.553C453.562 59.1223 453.84 58.635 453.998 58.091C454.168 57.547 454.253 57.0143 454.253 56.493C454.253 55.9717 454.168 55.439 453.998 54.895C453.84 54.3397 453.562 53.8467 453.165 53.416C452.78 52.9853 452.247 52.685 451.567 52.515C451.329 52.447 451.069 52.4073 450.785 52.396C450.502 52.3733 450.247 52.362 450.02 52.362H444.172V60.624ZM466.958 66.353C466.958 65.571 467.031 64.8173 467.179 64.092C467.337 63.3553 467.592 62.6753 467.944 62.052C468.25 61.4513 468.59 60.9753 468.964 60.624C469.338 60.2613 469.757 59.9043 470.222 59.553C470.686 59.1903 471.202 58.7087 471.769 58.108C472.233 57.598 472.539 57.0937 472.687 56.595C472.834 56.085 472.908 55.541 472.908 54.963C472.908 54.589 472.868 54.2377 472.789 53.909C472.709 53.5803 472.568 53.297 472.364 53.059C472.046 52.6397 471.638 52.345 471.14 52.175C470.641 51.9937 470.108 51.903 469.542 51.903C469.077 51.903 468.629 51.9653 468.199 52.09C467.779 52.2033 467.422 52.3847 467.128 52.634C466.788 52.906 466.538 53.2403 466.38 53.637C466.221 54.0337 466.147 54.47 466.159 54.946H461.841C461.954 53.8127 462.26 52.7643 462.759 51.801C463.269 50.8263 463.937 50.05 464.765 49.472C465.411 48.996 466.136 48.639 466.941 48.401C467.757 48.163 468.573 48.044 469.389 48.044C470.635 48.044 471.808 48.2367 472.908 48.622C474.018 49.0073 474.942 49.642 475.679 50.526C476.189 51.104 476.574 51.7727 476.835 52.532C477.107 53.2913 477.243 54.062 477.243 54.844C477.243 56.0113 476.988 57.0767 476.478 58.04C475.979 59.0033 475.344 59.893 474.574 60.709C474.211 61.0943 473.865 61.4343 473.537 61.729C473.208 62.0237 472.902 62.3127 472.619 62.596C472.347 62.868 472.12 63.157 471.939 63.463C471.621 63.9957 471.434 64.449 471.378 64.823C471.321 65.1857 471.293 65.6957 471.293 66.353H466.958ZM466.992 73V68.495H471.293V73H466.992Z" fill="#3E1BC9"></path> <rect y="120" width="600" height="300" rx="20" fill="#3E1BC9"></rect> <path d="M91.8995 261V240.84H100.229C100.425 240.84 100.677 240.849 100.985 240.868C101.293 240.877 101.578 240.905 101.839 240.952C103.006 241.129 103.967 241.517 104.723 242.114C105.489 242.711 106.053 243.467 106.417 244.382C106.791 245.287 106.977 246.295 106.977 247.406C106.977 248.507 106.791 249.515 106.417 250.43C106.044 251.335 105.475 252.087 104.709 252.684C103.953 253.281 102.997 253.669 101.839 253.846C101.578 253.883 101.289 253.911 100.971 253.93C100.663 253.949 100.416 253.958 100.229 253.958H95.2735V261H91.8995ZM95.2735 250.808H100.089C100.276 250.808 100.486 250.799 100.719 250.78C100.953 250.761 101.167 250.724 101.363 250.668C101.923 250.528 102.362 250.281 102.679 249.926C103.006 249.571 103.235 249.17 103.365 248.722C103.505 248.274 103.575 247.835 103.575 247.406C103.575 246.977 103.505 246.538 103.365 246.09C103.235 245.633 103.006 245.227 102.679 244.872C102.362 244.517 101.923 244.27 101.363 244.13C101.167 244.074 100.953 244.041 100.719 244.032C100.486 244.013 100.276 244.004 100.089 244.004H95.2735V250.808ZM109.782 261V240.84H122.802V244.004H113.156V248.974H121.122V252.138H113.156V257.836H122.802V261H109.782ZM133.84 261.42C131.824 261.42 130.097 260.981 128.66 260.104C127.222 259.217 126.116 257.985 125.342 256.408C124.576 254.831 124.194 253.001 124.194 250.92C124.194 248.839 124.576 247.009 125.342 245.432C126.116 243.855 127.222 242.627 128.66 241.75C130.097 240.863 131.824 240.42 133.84 240.42C135.856 240.42 137.582 240.863 139.02 241.75C140.466 242.627 141.572 243.855 142.338 245.432C143.112 247.009 143.5 248.839 143.5 250.92C143.5 253.001 143.112 254.831 142.338 256.408C141.572 257.985 140.466 259.217 139.02 260.104C137.582 260.981 135.856 261.42 133.84 261.42ZM133.84 258.242C135.193 258.251 136.318 257.953 137.214 257.346C138.119 256.739 138.796 255.885 139.244 254.784C139.701 253.683 139.93 252.395 139.93 250.92C139.93 249.445 139.701 248.167 139.244 247.084C138.796 245.992 138.119 245.143 137.214 244.536C136.318 243.929 135.193 243.617 133.84 243.598C132.486 243.589 131.362 243.887 130.466 244.494C129.57 245.101 128.893 245.955 128.436 247.056C127.988 248.157 127.764 249.445 127.764 250.92C127.764 252.395 127.988 253.678 128.436 254.77C128.884 255.853 129.556 256.697 130.452 257.304C131.357 257.911 132.486 258.223 133.84 258.242ZM146.286 261V240.84H154.616C154.812 240.84 155.064 240.849 155.372 240.868C155.68 240.877 155.965 240.905 156.226 240.952C157.393 241.129 158.354 241.517 159.11 242.114C159.876 242.711 160.44 243.467 160.804 244.382C161.178 245.287 161.364 246.295 161.364 247.406C161.364 248.507 161.178 249.515 160.804 250.43C160.431 251.335 159.862 252.087 159.096 252.684C158.34 253.281 157.384 253.669 156.226 253.846C155.965 253.883 155.676 253.911 155.358 253.93C155.05 253.949 154.803 253.958 154.616 253.958H149.66V261H146.286ZM149.66 250.808H154.476C154.663 250.808 154.873 250.799 155.106 250.78C155.34 250.761 155.554 250.724 155.75 250.668C156.31 250.528 156.749 250.281 157.066 249.926C157.393 249.571 157.622 249.17 157.752 248.722C157.892 248.274 157.962 247.835 157.962 247.406C157.962 246.977 157.892 246.538 157.752 246.09C157.622 245.633 157.393 245.227 157.066 244.872C156.749 244.517 156.31 244.27 155.75 244.13C155.554 244.074 155.34 244.041 155.106 244.032C154.873 244.013 154.663 244.004 154.476 244.004H149.66V250.808ZM164.449 261V240.84H167.823V257.836H176.727V261H164.449ZM179.099 261V240.84H192.119V244.004H182.473V248.974H190.439V252.138H182.473V257.836H192.119V261H179.099ZM201.083 261V240.84H204.457V250.192L212.507 240.84H216.651L207.985 250.724L217.239 261H212.955L204.457 251.592V261H201.083ZM219.212 261V240.84H222.628L231.98 255.05V240.84H235.396V261H231.98L222.628 246.79V261H219.212ZM239.31 261V240.84H252.33V244.004H242.684V248.974H250.65V252.138H242.684V257.836H252.33V261H239.31ZM259.945 261L254.051 240.84H257.593L261.611 255.4L265.615 240.868L269.157 240.84L273.175 255.4L277.179 240.84H280.721L274.841 261H271.509L267.379 246.664L263.277 261H259.945ZM287.21 261L293.566 240.84H298.508L304.864 261H301.392L295.624 242.912H296.38L290.682 261H287.21ZM290.752 256.632V253.482H301.336V256.632H290.752ZM307.676 261V240.84H311.05V257.836H319.954V261H307.676ZM322.605 261V240.84H325.979V257.836H334.883V261H322.605ZM346.31 261V244.004H339.786V240.84H356.208V244.004H349.684V261H346.31ZM358.446 261V240.84H361.82V249.324H371.368V240.84H374.728V261H371.368V252.488H361.82V261H358.446ZM378.653 261V240.84H391.673V244.004H382.027V248.974H389.993V252.138H382.027V257.836H391.673V261H378.653ZM400.638 261V240.84H407.064C407.232 240.84 407.563 240.845 408.058 240.854C408.562 240.863 409.047 240.896 409.514 240.952C411.11 241.157 412.458 241.727 413.56 242.66C414.67 243.584 415.51 244.765 416.08 246.202C416.649 247.639 416.934 249.212 416.934 250.92C416.934 252.628 416.649 254.201 416.08 255.638C415.51 257.075 414.67 258.261 413.56 259.194C412.458 260.118 411.11 260.683 409.514 260.888C409.056 260.944 408.576 260.977 408.072 260.986C407.568 260.995 407.232 261 407.064 261H400.638ZM404.068 257.822H407.064C407.344 257.822 407.698 257.813 408.128 257.794C408.566 257.775 408.954 257.733 409.29 257.668C410.242 257.491 411.016 257.066 411.614 256.394C412.211 255.722 412.65 254.905 412.93 253.944C413.219 252.983 413.364 251.975 413.364 250.92C413.364 249.828 413.219 248.801 412.93 247.84C412.64 246.879 412.192 246.071 411.586 245.418C410.988 244.765 410.223 244.349 409.29 244.172C408.954 244.097 408.566 244.055 408.128 244.046C407.698 244.027 407.344 244.018 407.064 244.018H404.068V257.822ZM420.243 261V240.84H433.263V244.004H423.617V248.974H431.583V252.138H423.617V257.836H433.263V261H420.243ZM441.466 261V244.004H434.942V240.84H451.364V244.004H444.84V261H441.466ZM451.656 261L458.012 240.84H462.954L469.31 261H465.838L460.07 242.912H460.826L455.128 261H451.656ZM455.198 256.632V253.482H465.782V256.632H455.198ZM472.121 261V240.84H475.495V261H472.121ZM479.969 261V240.84H483.343V257.836H492.247V261H479.969ZM502.08 261.42C500.606 261.42 499.276 261.163 498.09 260.65C496.914 260.137 495.944 259.404 495.178 258.452C494.422 257.491 493.942 256.352 493.736 255.036L497.236 254.504C497.535 255.699 498.146 256.623 499.07 257.276C500.004 257.929 501.077 258.256 502.29 258.256C503.009 258.256 503.686 258.144 504.32 257.92C504.955 257.696 505.468 257.369 505.86 256.94C506.262 256.511 506.462 255.983 506.462 255.358C506.462 255.078 506.416 254.821 506.322 254.588C506.229 254.345 506.089 254.131 505.902 253.944C505.725 253.757 505.492 253.589 505.202 253.44C504.922 253.281 504.596 253.146 504.222 253.034L499.014 251.494C498.566 251.363 498.081 251.191 497.558 250.976C497.045 250.752 496.555 250.449 496.088 250.066C495.631 249.674 495.253 249.179 494.954 248.582C494.665 247.975 494.52 247.229 494.52 246.342C494.52 245.045 494.847 243.957 495.5 243.08C496.163 242.193 497.05 241.531 498.16 241.092C499.28 240.653 500.522 240.439 501.884 240.448C503.266 240.457 504.498 240.695 505.58 241.162C506.663 241.619 507.568 242.287 508.296 243.164C509.024 244.041 509.538 245.101 509.836 246.342L506.21 246.972C506.061 246.263 505.772 245.661 505.342 245.166C504.922 244.662 504.404 244.279 503.788 244.018C503.182 243.757 502.533 243.617 501.842 243.598C501.17 243.589 500.545 243.691 499.966 243.906C499.397 244.111 498.935 244.41 498.58 244.802C498.235 245.194 498.062 245.651 498.062 246.174C498.062 246.669 498.212 247.075 498.51 247.392C498.809 247.7 499.178 247.947 499.616 248.134C500.064 248.311 500.517 248.461 500.974 248.582L504.586 249.59C505.081 249.721 505.636 249.898 506.252 250.122C506.868 250.346 507.461 250.659 508.03 251.06C508.6 251.461 509.066 251.989 509.43 252.642C509.804 253.295 509.99 254.126 509.99 255.134C509.99 256.179 509.771 257.099 509.332 257.892C508.903 258.676 508.32 259.329 507.582 259.852C506.845 260.375 506 260.767 505.048 261.028C504.106 261.289 503.116 261.42 502.08 261.42ZM181.39 300.42C179.374 300.42 177.648 299.981 176.21 299.104C174.773 298.217 173.667 296.985 172.892 295.408C172.127 293.831 171.744 292.001 171.744 289.92C171.744 287.839 172.127 286.009 172.892 284.432C173.667 282.855 174.773 281.627 176.21 280.75C177.648 279.863 179.374 279.42 181.39 279.42C183.406 279.42 185.133 279.863 186.57 280.75C188.017 281.627 189.123 282.855 189.888 284.432C190.663 286.009 191.05 287.839 191.05 289.92C191.05 292.001 190.663 293.831 189.888 295.408C189.123 296.985 188.017 298.217 186.57 299.104C185.133 299.981 183.406 300.42 181.39 300.42ZM181.39 297.242C182.744 297.251 183.868 296.953 184.764 296.346C185.67 295.739 186.346 294.885 186.794 293.784C187.252 292.683 187.48 291.395 187.48 289.92C187.48 288.445 187.252 287.167 186.794 286.084C186.346 284.992 185.67 284.143 184.764 283.536C183.868 282.929 182.744 282.617 181.39 282.598C180.037 282.589 178.912 282.887 178.016 283.494C177.12 284.101 176.444 284.955 175.986 286.056C175.538 287.157 175.314 288.445 175.314 289.92C175.314 291.395 175.538 292.678 175.986 293.77C176.434 294.853 177.106 295.697 178.002 296.304C178.908 296.911 180.037 297.223 181.39 297.242ZM193.837 300V279.84H205.975V283.214H197.211V288.24H204.295V291.6H197.211V300H193.837ZM218.999 300V291.74L212.139 279.84H216.073L220.707 287.876L225.327 279.84H229.261L222.415 291.74V300H218.999ZM238.621 300.42C236.605 300.42 234.878 299.981 233.441 299.104C232.003 298.217 230.897 296.985 230.123 295.408C229.357 293.831 228.975 292.001 228.975 289.92C228.975 287.839 229.357 286.009 230.123 284.432C230.897 282.855 232.003 281.627 233.441 280.75C234.878 279.863 236.605 279.42 238.621 279.42C240.637 279.42 242.363 279.863 243.801 280.75C245.247 281.627 246.353 282.855 247.119 284.432C247.893 286.009 248.281 287.839 248.281 289.92C248.281 292.001 247.893 293.831 247.119 295.408C246.353 296.985 245.247 298.217 243.801 299.104C242.363 299.981 240.637 300.42 238.621 300.42ZM238.621 297.242C239.974 297.251 241.099 296.953 241.995 296.346C242.9 295.739 243.577 294.885 244.025 293.784C244.482 292.683 244.711 291.395 244.711 289.92C244.711 288.445 244.482 287.167 244.025 286.084C243.577 284.992 242.9 284.143 241.995 283.536C241.099 282.929 239.974 282.617 238.621 282.598C237.267 282.589 236.143 282.887 235.247 283.494C234.351 284.101 233.674 284.955 233.217 286.056C232.769 287.157 232.545 288.445 232.545 289.92C232.545 291.395 232.769 292.678 233.217 293.77C233.665 294.853 234.337 295.697 235.233 296.304C236.138 296.911 237.267 297.223 238.621 297.242ZM259.187 300.42C257.582 300.42 256.168 300.093 254.945 299.44C253.732 298.787 252.78 297.867 252.089 296.682C251.408 295.497 251.067 294.106 251.067 292.51V279.868L254.483 279.84V292.426C254.483 293.182 254.609 293.859 254.861 294.456C255.123 295.053 255.473 295.562 255.911 295.982C256.35 296.393 256.854 296.705 257.423 296.92C257.993 297.135 258.581 297.242 259.187 297.242C259.813 297.242 260.405 297.135 260.965 296.92C261.535 296.696 262.039 296.379 262.477 295.968C262.916 295.548 263.261 295.039 263.513 294.442C263.765 293.845 263.891 293.173 263.891 292.426V279.84H267.307V292.51C267.307 294.106 266.962 295.497 266.271 296.682C265.59 297.867 264.638 298.787 263.415 299.44C262.202 300.093 260.793 300.42 259.187 300.42ZM271.22 300V279.84H279.55C279.746 279.84 279.998 279.849 280.306 279.868C280.614 279.877 280.898 279.905 281.16 279.952C282.326 280.129 283.288 280.517 284.044 281.114C284.809 281.711 285.374 282.467 285.738 283.382C286.111 284.287 286.298 285.295 286.298 286.406C286.298 288.049 285.882 289.463 285.052 290.648C284.221 291.824 282.947 292.552 281.23 292.832L279.788 292.958H274.594V300H271.22ZM282.798 300L278.822 291.796L282.252 291.04L286.62 300H282.798ZM274.594 289.808H279.41C279.596 289.808 279.806 289.799 280.04 289.78C280.273 289.761 280.488 289.724 280.684 289.668C281.244 289.528 281.682 289.281 282 288.926C282.326 288.571 282.555 288.17 282.686 287.722C282.826 287.274 282.896 286.835 282.896 286.406C282.896 285.977 282.826 285.538 282.686 285.09C282.555 284.633 282.326 284.227 282 283.872C281.682 283.517 281.244 283.27 280.684 283.13C280.488 283.074 280.273 283.041 280.04 283.032C279.806 283.013 279.596 283.004 279.41 283.004H274.594V289.808ZM295.31 300V279.84H307.448V283.214H298.684V288.24H305.768V291.6H298.684V300H295.31ZM310.246 300V279.84H313.62V300H310.246ZM317.814 300V279.84H321.23L330.582 294.05V279.84H333.998V300H330.582L321.23 285.79V300H317.814ZM336.511 300L342.867 279.84H347.809L354.165 300H350.693L344.925 281.912H345.681L339.983 300H336.511ZM340.053 295.632V292.482H350.637V295.632H340.053ZM356.696 300V279.84H360.112L369.464 294.05V279.84H372.88V300H369.464L360.112 285.79V300H356.696ZM385.32 300.42C383.304 300.42 381.577 299.981 380.14 299.104C378.703 298.217 377.597 296.985 376.822 295.408C376.057 293.831 375.674 292.001 375.674 289.92C375.674 287.839 376.057 286.009 376.822 284.432C377.597 282.855 378.703 281.627 380.14 280.75C381.577 279.863 383.304 279.42 385.32 279.42C387.644 279.42 389.581 280.003 391.13 281.17C392.679 282.327 393.767 283.891 394.392 285.86L390.99 286.798C390.598 285.482 389.931 284.455 388.988 283.718C388.045 282.971 386.823 282.598 385.32 282.598C383.967 282.598 382.837 282.901 381.932 283.508C381.036 284.115 380.359 284.969 379.902 286.07C379.454 287.162 379.225 288.445 379.216 289.92C379.216 291.395 379.44 292.683 379.888 293.784C380.345 294.876 381.027 295.725 381.932 296.332C382.837 296.939 383.967 297.242 385.32 297.242C386.823 297.242 388.045 296.869 388.988 296.122C389.931 295.375 390.598 294.349 390.99 293.042L394.392 293.98C393.767 295.949 392.679 297.517 391.13 298.684C389.581 299.841 387.644 300.42 385.32 300.42ZM397.466 300V279.84H410.486V283.004H400.84V287.974H408.806V291.138H400.84V296.836H410.486V300H397.466ZM421.115 300.42C419.641 300.42 418.311 300.163 417.125 299.65C415.949 299.137 414.979 298.404 414.213 297.452C413.457 296.491 412.977 295.352 412.771 294.036L416.271 293.504C416.57 294.699 417.181 295.623 418.105 296.276C419.039 296.929 420.112 297.256 421.325 297.256C422.044 297.256 422.721 297.144 423.355 296.92C423.99 296.696 424.503 296.369 424.895 295.94C425.297 295.511 425.497 294.983 425.497 294.358C425.497 294.078 425.451 293.821 425.357 293.588C425.264 293.345 425.124 293.131 424.937 292.944C424.76 292.757 424.527 292.589 424.237 292.44C423.957 292.281 423.631 292.146 423.257 292.034L418.049 290.494C417.601 290.363 417.116 290.191 416.593 289.976C416.08 289.752 415.59 289.449 415.123 289.066C414.666 288.674 414.288 288.179 413.989 287.582C413.7 286.975 413.555 286.229 413.555 285.342C413.555 284.045 413.882 282.957 414.535 282.08C415.198 281.193 416.085 280.531 417.195 280.092C418.315 279.653 419.557 279.439 420.919 279.448C422.301 279.457 423.533 279.695 424.615 280.162C425.698 280.619 426.603 281.287 427.331 282.164C428.059 283.041 428.573 284.101 428.871 285.342L425.245 285.972C425.096 285.263 424.807 284.661 424.377 284.166C423.957 283.662 423.439 283.279 422.823 283.018C422.217 282.757 421.568 282.617 420.877 282.598C420.205 282.589 419.58 282.691 419.001 282.906C418.432 283.111 417.97 283.41 417.615 283.802C417.27 284.194 417.097 284.651 417.097 285.174C417.097 285.669 417.247 286.075 417.545 286.392C417.844 286.7 418.213 286.947 418.651 287.134C419.099 287.311 419.552 287.461 420.009 287.582L423.621 288.59C424.116 288.721 424.671 288.898 425.287 289.122C425.903 289.346 426.496 289.659 427.065 290.06C427.635 290.461 428.101 290.989 428.465 291.642C428.839 292.295 429.025 293.126 429.025 294.134C429.025 295.179 428.806 296.099 428.367 296.892C427.938 297.676 427.355 298.329 426.617 298.852C425.88 299.375 425.035 299.767 424.083 300.028C423.141 300.289 422.151 300.42 421.115 300.42Z" fill="white"></path> <rect y="475" width="600" height="300" rx="20" fill="#9D50BB"></rect> <path d="M60.7084 636L67.0644 615.84H72.0064L78.3624 636H74.8904L69.1224 617.912H69.8784L64.1804 636H60.7084ZM64.2504 631.632V628.482H74.8344V631.632H64.2504ZM81.1736 636V615.84H84.5476V632.836H93.4516V636H81.1736ZM96.1033 636V615.84H99.4773V632.836H108.381V636H96.1033ZM119.808 636V619.004H113.284V615.84H129.706V619.004H123.182V636H119.808ZM131.944 636V615.84H135.318V624.324H144.866V615.84H148.226V636H144.866V627.488H135.318V636H131.944ZM152.151 636V615.84H165.171V619.004H155.525V623.974H163.491V627.138H155.525V632.836H165.171V636H152.151ZM174.136 636V615.84H180.562C180.73 615.84 181.061 615.845 181.556 615.854C182.06 615.863 182.545 615.896 183.012 615.952C184.608 616.157 185.956 616.727 187.058 617.66C188.168 618.584 189.008 619.765 189.578 621.202C190.147 622.639 190.432 624.212 190.432 625.92C190.432 627.628 190.147 629.201 189.578 630.638C189.008 632.075 188.168 633.261 187.058 634.194C185.956 635.118 184.608 635.683 183.012 635.888C182.554 635.944 182.074 635.977 181.57 635.986C181.066 635.995 180.73 636 180.562 636H174.136ZM177.566 632.822H180.562C180.842 632.822 181.196 632.813 181.626 632.794C182.064 632.775 182.452 632.733 182.788 632.668C183.74 632.491 184.514 632.066 185.112 631.394C185.709 630.722 186.148 629.905 186.428 628.944C186.717 627.983 186.862 626.975 186.862 625.92C186.862 624.828 186.717 623.801 186.428 622.84C186.138 621.879 185.69 621.071 185.084 620.418C184.486 619.765 183.721 619.349 182.788 619.172C182.452 619.097 182.064 619.055 181.626 619.046C181.196 619.027 180.842 619.018 180.562 619.018H177.566V632.822ZM193.741 636V615.84H206.761V619.004H197.115V623.974H205.081V627.138H197.115V632.836H206.761V636H193.741ZM214.964 636V619.004H208.44V615.84H224.862V619.004H218.338V636H214.964ZM225.154 636L231.51 615.84H236.452L242.808 636H239.336L233.568 617.912H234.324L228.626 636H225.154ZM228.696 631.632V628.482H239.28V631.632H228.696ZM245.619 636V615.84H248.993V636H245.619ZM253.467 636V615.84H256.841V632.836H265.745V636H253.467ZM275.578 636.42C274.104 636.42 272.774 636.163 271.588 635.65C270.412 635.137 269.442 634.404 268.676 633.452C267.92 632.491 267.44 631.352 267.234 630.036L270.734 629.504C271.033 630.699 271.644 631.623 272.568 632.276C273.502 632.929 274.575 633.256 275.788 633.256C276.507 633.256 277.184 633.144 277.818 632.92C278.453 632.696 278.966 632.369 279.358 631.94C279.76 631.511 279.96 630.983 279.96 630.358C279.96 630.078 279.914 629.821 279.82 629.588C279.727 629.345 279.587 629.131 279.4 628.944C279.223 628.757 278.99 628.589 278.7 628.44C278.42 628.281 278.094 628.146 277.72 628.034L272.512 626.494C272.064 626.363 271.579 626.191 271.056 625.976C270.543 625.752 270.053 625.449 269.586 625.066C269.129 624.674 268.751 624.179 268.452 623.582C268.163 622.975 268.018 622.229 268.018 621.342C268.018 620.045 268.345 618.957 268.998 618.08C269.661 617.193 270.548 616.531 271.658 616.092C272.778 615.653 274.02 615.439 275.382 615.448C276.764 615.457 277.996 615.695 279.078 616.162C280.161 616.619 281.066 617.287 281.794 618.164C282.522 619.041 283.036 620.101 283.334 621.342L279.708 621.972C279.559 621.263 279.27 620.661 278.84 620.166C278.42 619.662 277.902 619.279 277.286 619.018C276.68 618.757 276.031 618.617 275.34 618.598C274.668 618.589 274.043 618.691 273.464 618.906C272.895 619.111 272.433 619.41 272.078 619.802C271.733 620.194 271.56 620.651 271.56 621.174C271.56 621.669 271.71 622.075 272.008 622.392C272.307 622.7 272.676 622.947 273.114 623.134C273.562 623.311 274.015 623.461 274.472 623.582L278.084 624.59C278.579 624.721 279.134 624.898 279.75 625.122C280.366 625.346 280.959 625.659 281.528 626.06C282.098 626.461 282.564 626.989 282.928 627.642C283.302 628.295 283.488 629.126 283.488 630.134C283.488 631.179 283.269 632.099 282.83 632.892C282.401 633.676 281.818 634.329 281.08 634.852C280.343 635.375 279.498 635.767 278.546 636.028C277.604 636.289 276.614 636.42 275.578 636.42ZM300.65 636.42C298.634 636.42 296.907 635.981 295.47 635.104C294.033 634.217 292.927 632.985 292.152 631.408C291.387 629.831 291.004 628.001 291.004 625.92C291.004 623.839 291.387 622.009 292.152 620.432C292.927 618.855 294.033 617.627 295.47 616.75C296.907 615.863 298.634 615.42 300.65 615.42C302.666 615.42 304.393 615.863 305.83 616.75C307.277 617.627 308.383 618.855 309.148 620.432C309.923 622.009 310.31 623.839 310.31 625.92C310.31 628.001 309.923 629.831 309.148 631.408C308.383 632.985 307.277 634.217 305.83 635.104C304.393 635.981 302.666 636.42 300.65 636.42ZM300.65 633.242C302.003 633.251 303.128 632.953 304.024 632.346C304.929 631.739 305.606 630.885 306.054 629.784C306.511 628.683 306.74 627.395 306.74 625.92C306.74 624.445 306.511 623.167 306.054 622.084C305.606 620.992 304.929 620.143 304.024 619.536C303.128 618.929 302.003 618.617 300.65 618.598C299.297 618.589 298.172 618.887 297.276 619.494C296.38 620.101 295.703 620.955 295.246 622.056C294.798 623.157 294.574 624.445 294.574 625.92C294.574 627.395 294.798 628.678 295.246 629.77C295.694 630.853 296.366 631.697 297.262 632.304C298.167 632.911 299.297 633.223 300.65 633.242ZM313.097 636V615.84H325.235V619.214H316.471V624.24H323.555V627.6H316.471V636H313.097ZM338.258 636V627.74L331.398 615.84H335.332L339.966 623.876L344.586 615.84H348.52L341.674 627.74V636H338.258ZM357.881 636.42C355.865 636.42 354.138 635.981 352.701 635.104C351.263 634.217 350.157 632.985 349.383 631.408C348.617 629.831 348.235 628.001 348.235 625.92C348.235 623.839 348.617 622.009 349.383 620.432C350.157 618.855 351.263 617.627 352.701 616.75C354.138 615.863 355.865 615.42 357.881 615.42C359.897 615.42 361.623 615.863 363.061 616.75C364.507 617.627 365.613 618.855 366.379 620.432C367.153 622.009 367.541 623.839 367.541 625.92C367.541 628.001 367.153 629.831 366.379 631.408C365.613 632.985 364.507 634.217 363.061 635.104C361.623 635.981 359.897 636.42 357.881 636.42ZM357.881 633.242C359.234 633.251 360.359 632.953 361.255 632.346C362.16 631.739 362.837 630.885 363.285 629.784C363.742 628.683 363.971 627.395 363.971 625.92C363.971 624.445 363.742 623.167 363.285 622.084C362.837 620.992 362.16 620.143 361.255 619.536C360.359 618.929 359.234 618.617 357.881 618.598C356.527 618.589 355.403 618.887 354.507 619.494C353.611 620.101 352.934 620.955 352.477 622.056C352.029 623.157 351.805 624.445 351.805 625.92C351.805 627.395 352.029 628.678 352.477 629.77C352.925 630.853 353.597 631.697 354.493 632.304C355.398 632.911 356.527 633.223 357.881 633.242ZM378.447 636.42C376.842 636.42 375.428 636.093 374.205 635.44C372.992 634.787 372.04 633.867 371.349 632.682C370.668 631.497 370.327 630.106 370.327 628.51V615.868L373.743 615.84V628.426C373.743 629.182 373.869 629.859 374.121 630.456C374.383 631.053 374.733 631.562 375.171 631.982C375.61 632.393 376.114 632.705 376.683 632.92C377.253 633.135 377.841 633.242 378.447 633.242C379.073 633.242 379.665 633.135 380.225 632.92C380.795 632.696 381.299 632.379 381.737 631.968C382.176 631.548 382.521 631.039 382.773 630.442C383.025 629.845 383.151 629.173 383.151 628.426V615.84H386.567V628.51C386.567 630.106 386.222 631.497 385.531 632.682C384.85 633.867 383.898 634.787 382.675 635.44C381.462 636.093 380.053 636.42 378.447 636.42ZM390.48 636V615.84H398.81C399.006 615.84 399.258 615.849 399.566 615.868C399.874 615.877 400.158 615.905 400.42 615.952C401.586 616.129 402.548 616.517 403.304 617.114C404.069 617.711 404.634 618.467 404.998 619.382C405.371 620.287 405.558 621.295 405.558 622.406C405.558 624.049 405.142 625.463 404.312 626.648C403.481 627.824 402.207 628.552 400.49 628.832L399.048 628.958H393.854V636H390.48ZM402.058 636L398.082 627.796L401.512 627.04L405.88 636H402.058ZM393.854 625.808H398.67C398.856 625.808 399.066 625.799 399.3 625.78C399.533 625.761 399.748 625.724 399.944 625.668C400.504 625.528 400.942 625.281 401.26 624.926C401.586 624.571 401.815 624.17 401.946 623.722C402.086 623.274 402.156 622.835 402.156 622.406C402.156 621.977 402.086 621.538 401.946 621.09C401.815 620.633 401.586 620.227 401.26 619.872C400.942 619.517 400.504 619.27 399.944 619.13C399.748 619.074 399.533 619.041 399.3 619.032C399.066 619.013 398.856 619.004 398.67 619.004H393.854V625.808ZM414.849 636V615.84H418.223V632.836H427.127V636H414.849ZM437.478 636.42C435.462 636.42 433.736 635.981 432.298 635.104C430.861 634.217 429.755 632.985 428.98 631.408C428.215 629.831 427.832 628.001 427.832 625.92C427.832 623.839 428.215 622.009 428.98 620.432C429.755 618.855 430.861 617.627 432.298 616.75C433.736 615.863 435.462 615.42 437.478 615.42C439.494 615.42 441.221 615.863 442.658 616.75C444.105 617.627 445.211 618.855 445.976 620.432C446.751 622.009 447.138 623.839 447.138 625.92C447.138 628.001 446.751 629.831 445.976 631.408C445.211 632.985 444.105 634.217 442.658 635.104C441.221 635.981 439.494 636.42 437.478 636.42ZM437.478 633.242C438.832 633.251 439.956 632.953 440.852 632.346C441.758 631.739 442.434 630.885 442.882 629.784C443.34 628.683 443.568 627.395 443.568 625.92C443.568 624.445 443.34 623.167 442.882 622.084C442.434 620.992 441.758 620.143 440.852 619.536C439.956 618.929 438.832 618.617 437.478 618.598C436.125 618.589 435 618.887 434.104 619.494C433.208 620.101 432.532 620.955 432.074 622.056C431.626 623.157 431.402 624.445 431.402 625.92C431.402 627.395 431.626 628.678 432.074 629.77C432.522 630.853 433.194 631.697 434.09 632.304C434.996 632.911 436.125 633.223 437.478 633.242ZM453.613 636L447.257 615.84H450.729L456.049 632.724L461.439 615.84H464.911L458.555 636H453.613ZM467.015 636V615.84H480.035V619.004H470.389V623.974H478.355V627.138H470.389V632.836H480.035V636H467.015ZM489.279 636V615.84H492.653V632.836H501.557V636H489.279ZM504.209 636V615.84H507.583V636H504.209ZM511.776 636V615.84H523.914V619.214H515.15V624.24H522.234V627.6H515.15V636H511.776ZM526.433 636V615.84H539.453V619.004H529.807V623.974H537.773V627.138H529.807V632.836H539.453V636H526.433Z" fill="white"></path> <circle cx="300" cy="448" r="60" fill="#F9F9F9"></circle> <path d="M288.777 461.51C286.329 461.51 284.232 460.977 282.487 459.912C280.742 458.835 279.399 457.339 278.458 455.424C277.529 453.509 277.064 451.287 277.064 448.76C277.064 446.233 277.529 444.011 278.458 442.096C279.399 440.181 280.742 438.69 282.487 437.625C284.232 436.548 286.329 436.01 288.777 436.01C291.225 436.01 293.322 436.548 295.067 437.625C296.824 438.69 298.167 440.181 299.096 442.096C300.037 444.011 300.507 446.233 300.507 448.76C300.507 451.287 300.037 453.509 299.096 455.424C298.167 457.339 296.824 458.835 295.067 459.912C293.322 460.977 291.225 461.51 288.777 461.51ZM288.777 457.651C290.42 457.662 291.786 457.3 292.874 456.563C293.973 455.826 294.795 454.789 295.339 453.452C295.894 452.115 296.172 450.551 296.172 448.76C296.172 446.969 295.894 445.417 295.339 444.102C294.795 442.776 293.973 441.745 292.874 441.008C291.786 440.271 290.42 439.892 288.777 439.869C287.134 439.858 285.768 440.22 284.68 440.957C283.592 441.694 282.77 442.731 282.215 444.068C281.671 445.405 281.399 446.969 281.399 448.76C281.399 450.551 281.671 452.109 282.215 453.435C282.759 454.75 283.575 455.775 284.663 456.512C285.762 457.249 287.134 457.628 288.777 457.651ZM303.891 461V436.52H314.006C314.244 436.52 314.55 436.531 314.924 436.554C315.298 436.565 315.643 436.599 315.961 436.656C317.377 436.871 318.545 437.342 319.463 438.067C320.392 438.792 321.078 439.71 321.52 440.821C321.973 441.92 322.2 443.144 322.2 444.493C322.2 446.488 321.695 448.205 320.687 449.644C319.678 451.072 318.131 451.956 316.046 452.296L314.295 452.449H307.988V461H303.891ZM317.95 461L313.122 451.038L317.287 450.12L322.591 461H317.95ZM307.988 448.624H313.836C314.062 448.624 314.317 448.613 314.601 448.59C314.884 448.567 315.145 448.522 315.383 448.454C316.063 448.284 316.595 447.984 316.981 447.553C317.377 447.122 317.655 446.635 317.814 446.091C317.984 445.547 318.069 445.014 318.069 444.493C318.069 443.972 317.984 443.439 317.814 442.895C317.655 442.34 317.377 441.847 316.981 441.416C316.595 440.985 316.063 440.685 315.383 440.515C315.145 440.447 314.884 440.407 314.601 440.396C314.317 440.373 314.062 440.362 313.836 440.362H307.988V448.624Z" fill="#3E1BC9"></path> </svg> 