<?xml version="1.0" encoding="UTF-8"?> <svg xmlns="http://www.w3.org/2000/svg" width="600" height="775" viewBox="0 0 600 775" fill="none"> <rect width="600" height="775" rx="20" fill="#F9F9F9"></rect> <path d="M129.614 73L122.457 48.52H126.758L131.637 66.2L136.499 48.554L140.8 48.52L145.679 66.2L150.541 48.52H154.842L147.702 73H143.656L138.641 55.592L133.66 73H129.614ZM167.305 73.51C164.857 73.51 162.761 72.9773 161.015 71.912C159.27 70.8353 157.927 69.3393 156.986 67.424C156.057 65.5087 155.592 63.2873 155.592 60.76C155.592 58.2327 156.057 56.0113 156.986 54.096C157.927 52.1807 159.27 50.6903 161.015 49.625C162.761 48.5483 164.857 48.01 167.305 48.01C169.753 48.01 171.85 48.5483 173.595 49.625C175.352 50.6903 176.695 52.1807 177.624 54.096C178.565 56.0113 179.035 58.2327 179.035 60.76C179.035 63.2873 178.565 65.5087 177.624 67.424C176.695 69.3393 175.352 70.8353 173.595 71.912C171.85 72.9773 169.753 73.51 167.305 73.51ZM167.305 69.651C168.949 69.6623 170.314 69.2997 171.402 68.563C172.502 67.8263 173.323 66.7893 173.867 65.452C174.423 64.1147 174.7 62.5507 174.7 60.76C174.7 58.9693 174.423 57.4167 173.867 56.102C173.323 54.776 172.502 53.7447 171.402 53.008C170.314 52.2713 168.949 51.8917 167.305 51.869C165.662 51.8577 164.296 52.2203 163.208 52.957C162.12 53.6937 161.299 54.7307 160.743 56.068C160.199 57.4053 159.927 58.9693 159.927 60.76C159.927 62.5507 160.199 64.109 160.743 65.435C161.287 66.7497 162.103 67.7753 163.191 68.512C164.291 69.2487 165.662 69.6283 167.305 69.651ZM192.279 73.51C190.33 73.51 188.613 73.1133 187.128 72.32C185.655 71.5267 184.499 70.4103 183.66 68.971C182.833 67.5317 182.419 65.843 182.419 63.905V48.554L186.567 48.52V63.803C186.567 64.721 186.72 65.5427 187.026 66.268C187.343 66.9933 187.768 67.611 188.301 68.121C188.834 68.6197 189.446 68.9993 190.137 69.26C190.828 69.5207 191.542 69.651 192.279 69.651C193.038 69.651 193.758 69.5207 194.438 69.26C195.129 68.988 195.741 68.6027 196.274 68.104C196.807 67.594 197.226 66.9763 197.532 66.251C197.838 65.5257 197.991 64.7097 197.991 63.803V48.52H202.139V63.905C202.139 65.843 201.72 67.5317 200.881 68.971C200.054 70.4103 198.898 71.5267 197.413 72.32C195.94 73.1133 194.228 73.51 192.279 73.51ZM207.23 73V48.52H211.327V69.158H222.139V73H207.23ZM225.019 73V48.52H232.822C233.026 48.52 233.428 48.5257 234.029 48.537C234.641 48.5483 235.23 48.588 235.797 48.656C237.735 48.9053 239.372 49.5967 240.71 50.73C242.058 51.852 243.078 53.2857 243.77 55.031C244.461 56.7763 244.807 58.686 244.807 60.76C244.807 62.834 244.461 64.7437 243.77 66.489C243.078 68.2343 242.058 69.6737 240.71 70.807C239.372 71.929 237.735 72.6147 235.797 72.864C235.241 72.932 234.658 72.9717 234.046 72.983C233.434 72.9943 233.026 73 232.822 73H225.019ZM229.184 69.141H232.822C233.162 69.141 233.592 69.1297 234.114 69.107C234.646 69.0843 235.117 69.0333 235.525 68.954C236.681 68.7387 237.621 68.223 238.347 67.407C239.072 66.591 239.605 65.5993 239.945 64.432C240.296 63.2647 240.472 62.0407 240.472 60.76C240.472 59.434 240.296 58.1873 239.945 57.02C239.593 55.8527 239.049 54.8723 238.313 54.079C237.587 53.2857 236.658 52.7813 235.525 52.566C235.117 52.4753 234.646 52.4243 234.114 52.413C233.592 52.3903 233.162 52.379 232.822 52.379H229.184V69.141ZM261.582 73V62.97L253.252 48.52H258.029L263.656 58.278L269.266 48.52H274.043L265.73 62.97V73H261.582ZM285.409 73.51C282.961 73.51 280.864 72.9773 279.119 71.912C277.373 70.8353 276.03 69.3393 275.09 67.424C274.16 65.5087 273.696 63.2873 273.696 60.76C273.696 58.2327 274.16 56.0113 275.09 54.096C276.03 52.1807 277.373 50.6903 279.119 49.625C280.864 48.5483 282.961 48.01 285.409 48.01C287.857 48.01 289.953 48.5483 291.699 49.625C293.455 50.6903 294.798 52.1807 295.728 54.096C296.668 56.0113 297.139 58.2327 297.139 60.76C297.139 63.2873 296.668 65.5087 295.728 67.424C294.798 69.3393 293.455 70.8353 291.699 71.912C289.953 72.9773 287.857 73.51 285.409 73.51ZM285.409 69.651C287.052 69.6623 288.418 69.2997 289.506 68.563C290.605 67.8263 291.427 66.7893 291.971 65.452C292.526 64.1147 292.804 62.5507 292.804 60.76C292.804 58.9693 292.526 57.4167 291.971 56.102C291.427 54.776 290.605 53.7447 289.506 53.008C288.418 52.2713 287.052 51.8917 285.409 51.869C283.765 51.8577 282.4 52.2203 281.312 52.957C280.224 53.6937 279.402 54.7307 278.847 56.068C278.303 57.4053 278.031 58.9693 278.031 60.76C278.031 62.5507 278.303 64.109 278.847 65.435C279.391 66.7497 280.207 67.7753 281.295 68.512C282.394 69.2487 283.765 69.6283 285.409 69.651ZM310.383 73.51C308.433 73.51 306.716 73.1133 305.232 72.32C303.758 71.5267 302.602 70.4103 301.764 68.971C300.936 67.5317 300.523 65.843 300.523 63.905V48.554L304.671 48.52V63.803C304.671 64.721 304.824 65.5427 305.13 66.268C305.447 66.9933 305.872 67.611 306.405 68.121C306.937 68.6197 307.549 68.9993 308.241 69.26C308.932 69.5207 309.646 69.651 310.383 69.651C311.142 69.651 311.862 69.5207 312.542 69.26C313.233 68.988 313.845 68.6027 314.378 68.104C314.91 67.594 315.33 66.9763 315.636 66.251C315.942 65.5257 316.095 64.7097 316.095 63.803V48.52H320.243V63.905C320.243 65.843 319.823 67.5317 318.985 68.971C318.157 70.4103 317.001 71.5267 315.517 72.32C314.043 73.1133 312.332 73.51 310.383 73.51ZM331.8 73V48.52H341.915C342.153 48.52 342.459 48.5313 342.833 48.554C343.207 48.5653 343.553 48.5993 343.87 48.656C345.287 48.8713 346.454 49.3417 347.372 50.067C348.301 50.7923 348.987 51.7103 349.429 52.821C349.882 53.9203 350.109 55.1443 350.109 56.493C350.109 58.4877 349.605 60.2047 348.596 61.644C347.587 63.072 346.04 63.956 343.955 64.296L342.204 64.449H335.897V73H331.8ZM345.859 73L341.031 63.038L345.196 62.12L350.5 73H345.859ZM335.897 60.624H341.745C341.972 60.624 342.227 60.6127 342.51 60.59C342.793 60.5673 343.054 60.522 343.292 60.454C343.972 60.284 344.505 59.9837 344.89 59.553C345.287 59.1223 345.564 58.635 345.723 58.091C345.893 57.547 345.978 57.0143 345.978 56.493C345.978 55.9717 345.893 55.439 345.723 54.895C345.564 54.3397 345.287 53.8467 344.89 53.416C344.505 52.9853 343.972 52.685 343.292 52.515C343.054 52.447 342.793 52.4073 342.51 52.396C342.227 52.3733 341.972 52.362 341.745 52.362H335.897V60.624ZM352.545 73L360.263 48.52H366.264L373.982 73H369.766L362.762 51.036H363.68L356.761 73H352.545ZM356.846 67.696V63.871H369.698V67.696H356.846ZM380.912 73V52.362H372.99V48.52H392.931V52.362H385.009V73H380.912ZM395.65 73V48.52H399.747V58.822H411.341V48.52H415.421V73H411.341V62.664H399.747V73H395.65ZM420.187 73V48.52H435.997V52.362H424.284V58.397H433.957V62.239H424.284V69.158H435.997V73H420.187ZM440.075 73V48.52H450.19C450.428 48.52 450.734 48.5313 451.108 48.554C451.482 48.5653 451.828 48.5993 452.145 48.656C453.562 48.8713 454.729 49.3417 455.647 50.067C456.577 50.7923 457.262 51.7103 457.704 52.821C458.158 53.9203 458.384 55.1443 458.384 56.493C458.384 58.4877 457.88 60.2047 456.871 61.644C455.863 63.072 454.316 63.956 452.23 64.296L450.479 64.449H444.172V73H440.075ZM454.134 73L449.306 63.038L453.471 62.12L458.775 73H454.134ZM444.172 60.624H450.02C450.247 60.624 450.502 60.6127 450.785 60.59C451.069 60.5673 451.329 60.522 451.567 60.454C452.247 60.284 452.78 59.9837 453.165 59.553C453.562 59.1223 453.84 58.635 453.998 58.091C454.168 57.547 454.253 57.0143 454.253 56.493C454.253 55.9717 454.168 55.439 453.998 54.895C453.84 54.3397 453.562 53.8467 453.165 53.416C452.78 52.9853 452.247 52.685 451.567 52.515C451.329 52.447 451.069 52.4073 450.785 52.396C450.502 52.3733 450.247 52.362 450.02 52.362H444.172V60.624ZM466.958 66.353C466.958 65.571 467.031 64.8173 467.179 64.092C467.337 63.3553 467.592 62.6753 467.944 62.052C468.25 61.4513 468.59 60.9753 468.964 60.624C469.338 60.2613 469.757 59.9043 470.222 59.553C470.686 59.1903 471.202 58.7087 471.769 58.108C472.233 57.598 472.539 57.0937 472.687 56.595C472.834 56.085 472.908 55.541 472.908 54.963C472.908 54.589 472.868 54.2377 472.789 53.909C472.709 53.5803 472.568 53.297 472.364 53.059C472.046 52.6397 471.638 52.345 471.14 52.175C470.641 51.9937 470.108 51.903 469.542 51.903C469.077 51.903 468.629 51.9653 468.199 52.09C467.779 52.2033 467.422 52.3847 467.128 52.634C466.788 52.906 466.538 53.2403 466.38 53.637C466.221 54.0337 466.147 54.47 466.159 54.946H461.841C461.954 53.8127 462.26 52.7643 462.759 51.801C463.269 50.8263 463.937 50.05 464.765 49.472C465.411 48.996 466.136 48.639 466.941 48.401C467.757 48.163 468.573 48.044 469.389 48.044C470.635 48.044 471.808 48.2367 472.908 48.622C474.018 49.0073 474.942 49.642 475.679 50.526C476.189 51.104 476.574 51.7727 476.835 52.532C477.107 53.2913 477.243 54.062 477.243 54.844C477.243 56.0113 476.988 57.0767 476.478 58.04C475.979 59.0033 475.344 59.893 474.574 60.709C474.211 61.0943 473.865 61.4343 473.537 61.729C473.208 62.0237 472.902 62.3127 472.619 62.596C472.347 62.868 472.12 63.157 471.939 63.463C471.621 63.9957 471.434 64.449 471.378 64.823C471.321 65.1857 471.293 65.6957 471.293 66.353H466.958ZM466.992 73V68.495H471.293V73H466.992Z" fill="#3E1BC9"></path> <rect y="120" width="600" height="300" rx="20" fill="#3E1BC9"></rect> <path d="M111.067 281V260.84H117.493C117.661 260.84 117.993 260.845 118.487 260.854C118.991 260.863 119.477 260.896 119.943 260.952C121.539 261.157 122.888 261.727 123.989 262.66C125.1 263.584 125.94 264.765 126.509 266.202C127.079 267.639 127.363 269.212 127.363 270.92C127.363 272.628 127.079 274.201 126.509 275.638C125.94 277.075 125.1 278.261 123.989 279.194C122.888 280.118 121.539 280.683 119.943 280.888C119.486 280.944 119.005 280.977 118.501 280.986C117.997 280.995 117.661 281 117.493 281H111.067ZM114.497 277.822H117.493C117.773 277.822 118.128 277.813 118.557 277.794C118.996 277.775 119.383 277.733 119.719 277.668C120.671 277.491 121.446 277.066 122.043 276.394C122.641 275.722 123.079 274.905 123.359 273.944C123.649 272.983 123.793 271.975 123.793 270.92C123.793 269.828 123.649 268.801 123.359 267.84C123.07 266.879 122.622 266.071 122.015 265.418C121.418 264.765 120.653 264.349 119.719 264.172C119.383 264.097 118.996 264.055 118.557 264.046C118.128 264.027 117.773 264.018 117.493 264.018H114.497V277.822ZM130.673 281V260.84H143.693V264.004H134.047V268.974H142.013V272.138H134.047V277.836H143.693V281H130.673ZM151.896 281V264.004H145.372V260.84H161.794V264.004H155.27V281H151.896ZM164.032 281V260.84H177.052V264.004H167.406V268.974H175.372V272.138H167.406V277.836H177.052V281H164.032ZM188.226 281.42C186.21 281.42 184.484 280.981 183.046 280.104C181.609 279.217 180.503 277.985 179.728 276.408C178.963 274.831 178.58 273.001 178.58 270.92C178.58 268.839 178.963 267.009 179.728 265.432C180.503 263.855 181.609 262.627 183.046 261.75C184.484 260.863 186.21 260.42 188.226 260.42C190.55 260.42 192.487 261.003 194.036 262.17C195.586 263.327 196.673 264.891 197.298 266.86L193.896 267.798C193.504 266.482 192.837 265.455 191.894 264.718C190.952 263.971 189.729 263.598 188.226 263.598C186.873 263.598 185.744 263.901 184.838 264.508C183.942 265.115 183.266 265.969 182.808 267.07C182.36 268.162 182.132 269.445 182.122 270.92C182.122 272.395 182.346 273.683 182.794 274.784C183.252 275.876 183.933 276.725 184.838 277.332C185.744 277.939 186.873 278.242 188.226 278.242C189.729 278.242 190.952 277.869 191.894 277.122C192.837 276.375 193.504 275.349 193.896 274.042L197.298 274.98C196.673 276.949 195.586 278.517 194.036 279.684C192.487 280.841 190.55 281.42 188.226 281.42ZM205.216 281V264.004H198.692V260.84H215.114V264.004H208.59V281H205.216ZM222.11 281V260.84H235.13V264.004H225.484V268.974H233.45V272.138H225.484V277.836H235.13V281H222.11ZM243.025 281L236.669 260.84H240.141L245.461 277.724L250.851 260.84H254.323L247.967 281H243.025ZM256.427 281V260.84H269.447V264.004H259.801V268.974H267.767V272.138H259.801V277.836H269.447V281H256.427ZM272.806 281V260.84H281.136C281.332 260.84 281.584 260.849 281.892 260.868C282.2 260.877 282.484 260.905 282.746 260.952C283.912 261.129 284.874 261.517 285.63 262.114C286.395 262.711 286.96 263.467 287.324 264.382C287.697 265.287 287.884 266.295 287.884 267.406C287.884 269.049 287.468 270.463 286.638 271.648C285.807 272.824 284.533 273.552 282.816 273.832L281.374 273.958H276.18V281H272.806ZM284.384 281L280.408 272.796L283.838 272.04L288.206 281H284.384ZM276.18 270.808H280.996C281.182 270.808 281.392 270.799 281.626 270.78C281.859 270.761 282.074 270.724 282.27 270.668C282.83 270.528 283.268 270.281 283.586 269.926C283.912 269.571 284.141 269.17 284.272 268.722C284.412 268.274 284.482 267.835 284.482 267.406C284.482 266.977 284.412 266.538 284.272 266.09C284.141 265.633 283.912 265.227 283.586 264.872C283.268 264.517 282.83 264.27 282.27 264.13C282.074 264.074 281.859 264.041 281.626 264.032C281.392 264.013 281.182 264.004 280.996 264.004H276.18V270.808ZM295.807 281V272.74L288.947 260.84H292.881L297.515 268.876L302.135 260.84H306.069L299.223 272.74V281H295.807ZM312.789 281V260.84H316.163V277.836H325.067V281H312.789ZM327.719 281V260.84H331.093V281H327.719ZM335.286 281V260.84H348.306V264.004H338.66V268.974H346.626V272.138H338.66V277.836H348.306V281H335.286ZM362.171 281V272.74L355.311 260.84H359.245L363.879 268.876L368.499 260.84H372.433L365.587 272.74V281H362.171ZM381.793 281.42C379.777 281.42 378.05 280.981 376.613 280.104C375.175 279.217 374.069 277.985 373.295 276.408C372.529 274.831 372.147 273.001 372.147 270.92C372.147 268.839 372.529 267.009 373.295 265.432C374.069 263.855 375.175 262.627 376.613 261.75C378.05 260.863 379.777 260.42 381.793 260.42C383.809 260.42 385.535 260.863 386.973 261.75C388.419 262.627 389.525 263.855 390.291 265.432C391.065 267.009 391.453 268.839 391.453 270.92C391.453 273.001 391.065 274.831 390.291 276.408C389.525 277.985 388.419 279.217 386.973 280.104C385.535 280.981 383.809 281.42 381.793 281.42ZM381.793 278.242C383.146 278.251 384.271 277.953 385.167 277.346C386.072 276.739 386.749 275.885 387.197 274.784C387.654 273.683 387.883 272.395 387.883 270.92C387.883 269.445 387.654 268.167 387.197 267.084C386.749 265.992 386.072 265.143 385.167 264.536C384.271 263.929 383.146 263.617 381.793 263.598C380.439 263.589 379.315 263.887 378.419 264.494C377.523 265.101 376.846 265.955 376.389 267.056C375.941 268.157 375.717 269.445 375.717 270.92C375.717 272.395 375.941 273.678 376.389 274.77C376.837 275.853 377.509 276.697 378.405 277.304C379.31 277.911 380.439 278.223 381.793 278.242ZM402.359 281.42C400.754 281.42 399.34 281.093 398.117 280.44C396.904 279.787 395.952 278.867 395.261 277.682C394.58 276.497 394.239 275.106 394.239 273.51V260.868L397.655 260.84V273.426C397.655 274.182 397.781 274.859 398.033 275.456C398.295 276.053 398.645 276.562 399.083 276.982C399.522 277.393 400.026 277.705 400.595 277.92C401.165 278.135 401.753 278.242 402.359 278.242C402.985 278.242 403.577 278.135 404.137 277.92C404.707 277.696 405.211 277.379 405.649 276.968C406.088 276.548 406.433 276.039 406.685 275.442C406.937 274.845 407.063 274.173 407.063 273.426V260.84H410.479V273.51C410.479 275.106 410.134 276.497 409.443 277.682C408.762 278.867 407.81 279.787 406.587 280.44C405.374 281.093 403.965 281.42 402.359 281.42ZM419.997 281V260.84H423.371V269.324H432.919V260.84H436.279V281H432.919V272.488H423.371V281H419.997ZM440.204 281V260.84H453.224V264.004H443.578V268.974H451.544V272.138H443.578V277.836H453.224V281H440.204ZM455.183 281L461.539 260.84H466.481L472.837 281H469.365L463.597 262.912H464.353L458.655 281H455.183ZM458.725 276.632V273.482H469.309V276.632H458.725ZM475.368 281V260.84H483.698C483.894 260.84 484.146 260.849 484.454 260.868C484.762 260.877 485.047 260.905 485.308 260.952C486.475 261.129 487.436 261.517 488.192 262.114C488.958 262.711 489.522 263.467 489.886 264.382C490.26 265.287 490.446 266.295 490.446 267.406C490.446 269.049 490.031 270.463 489.2 271.648C488.37 272.824 487.096 273.552 485.378 273.832L483.936 273.958H478.742V281H475.368ZM486.946 281L482.97 272.796L486.4 272.04L490.768 281H486.946ZM478.742 270.808H483.558C483.745 270.808 483.955 270.799 484.188 270.78C484.422 270.761 484.636 270.724 484.832 270.668C485.392 270.528 485.831 270.281 486.148 269.926C486.475 269.571 486.704 269.17 486.834 268.722C486.974 268.274 487.044 267.835 487.044 267.406C487.044 266.977 486.974 266.538 486.834 266.09C486.704 265.633 486.475 265.227 486.148 264.872C485.831 264.517 485.392 264.27 484.832 264.13C484.636 264.074 484.422 264.041 484.188 264.032C483.955 264.013 483.745 264.004 483.558 264.004H478.742V270.808Z" fill="white"></path> <rect y="475" width="600" height="300" rx="20" fill="#FC8F58"></rect> <path d="M71.4908 636.42C70.1842 636.42 68.9568 636.191 67.8088 635.734C66.6702 635.267 65.6668 634.586 64.7988 633.69C63.9402 632.794 63.2682 631.697 62.7828 630.4C62.2975 629.093 62.0548 627.6 62.0548 625.92C62.0548 623.717 62.4655 621.837 63.2868 620.278C64.1082 618.71 65.2328 617.511 66.6608 616.68C68.0888 615.84 69.6988 615.42 71.4908 615.42C73.9735 615.42 75.9382 615.999 77.3848 617.156C78.8408 618.304 79.8255 619.919 80.3388 622L76.8948 622.546C76.5122 621.351 75.8868 620.399 75.0188 619.69C74.1508 618.971 73.0448 618.612 71.7008 618.612C70.3475 618.593 69.2228 618.887 68.3268 619.494C67.4308 620.101 66.7542 620.955 66.2968 622.056C65.8488 623.157 65.6248 624.445 65.6248 625.92C65.6248 627.395 65.8488 628.678 66.2968 629.77C66.7448 630.853 67.4168 631.697 68.3128 632.304C69.2182 632.911 70.3475 633.223 71.7008 633.242C72.7182 633.251 73.6095 633.069 74.3748 632.696C75.1402 632.313 75.7655 631.739 76.2508 630.974C76.7362 630.199 77.0628 629.233 77.2308 628.076H73.6748V625.43H80.8148C80.8335 625.579 80.8475 625.799 80.8568 626.088C80.8662 626.377 80.8708 626.55 80.8708 626.606C80.8708 628.51 80.4928 630.204 79.7368 631.688C78.9902 633.163 77.9168 634.32 76.5168 635.16C75.1168 636 73.4415 636.42 71.4908 636.42ZM83.6827 636V615.84H96.7027V619.004H87.0567V623.974H95.0227V627.138H87.0567V632.836H96.7027V636H83.6827ZM104.906 636V619.004H98.3816V615.84H114.804V619.004H108.28V636H104.906ZM120.4 636L126.756 615.84H131.698L138.054 636H134.582L128.814 617.912H129.57L123.872 636H120.4ZM123.942 631.632V628.482H134.526V631.632H123.942ZM142.872 636L136.978 615.84H140.52L144.538 630.4L148.542 615.868L152.084 615.84L156.102 630.4L160.106 615.84H163.648L157.768 636H154.436L150.306 621.664L146.204 636H142.872ZM162.564 636L168.92 615.84H173.862L180.218 636H176.746L170.978 617.912H171.734L166.036 636H162.564ZM166.106 631.632V628.482H176.69V631.632H166.106ZM185.981 636V627.74L179.121 615.84H183.055L187.689 623.876L192.309 615.84H196.243L189.397 627.74V636H185.981ZM206.939 636L201.045 615.84H204.587L208.605 630.4L212.609 615.868L216.151 615.84L220.169 630.4L224.173 615.84H227.715L221.835 636H218.503L214.373 621.664L210.271 636H206.939ZM230.279 636V615.84H233.653V636H230.279ZM242.691 636V619.004H236.167V615.84H252.589V619.004H246.065V636H242.691ZM254.827 636V615.84H258.201V624.324H267.749V615.84H271.109V636H267.749V627.488H258.201V636H254.827ZM280.64 636V615.84H293.66V619.004H284.014V623.974H291.98V627.138H284.014V632.836H293.66V636H280.64ZM301.555 636L295.199 615.84H298.671L303.991 632.724L309.381 615.84H312.853L306.497 636H301.555ZM314.956 636V615.84H327.976V619.004H318.33V623.974H326.296V627.138H318.33V632.836H327.976V636H314.956ZM331.335 636V615.84H339.665C339.861 615.84 340.113 615.849 340.421 615.868C340.729 615.877 341.014 615.905 341.275 615.952C342.442 616.129 343.403 616.517 344.159 617.114C344.924 617.711 345.489 618.467 345.853 619.382C346.226 620.287 346.413 621.295 346.413 622.406C346.413 624.049 345.998 625.463 345.167 626.648C344.336 627.824 343.062 628.552 341.345 628.832L339.903 628.958H334.709V636H331.335ZM342.913 636L338.937 627.796L342.367 627.04L346.735 636H342.913ZM334.709 625.808H339.525C339.712 625.808 339.922 625.799 340.155 625.78C340.388 625.761 340.603 625.724 340.799 625.668C341.359 625.528 341.798 625.281 342.115 624.926C342.442 624.571 342.67 624.17 342.801 623.722C342.941 623.274 343.011 622.835 343.011 622.406C343.011 621.977 342.941 621.538 342.801 621.09C342.67 620.633 342.442 620.227 342.115 619.872C341.798 619.517 341.359 619.27 340.799 619.13C340.603 619.074 340.388 619.041 340.155 619.032C339.922 619.013 339.712 619.004 339.525 619.004H334.709V625.808ZM354.337 636V627.74L347.477 615.84H351.411L356.045 623.876L360.665 615.84H364.599L357.753 627.74V636H354.337ZM371.318 636V615.84H374.692V632.836H383.596V636H371.318ZM386.248 636V615.84H389.622V636H386.248ZM393.815 636V615.84H406.835V619.004H397.189V623.974H405.155V627.138H397.189V632.836H406.835V636H393.815ZM420.7 636V627.74L413.84 615.84H417.774L422.408 623.876L427.028 615.84H430.962L424.116 627.74V636H420.7ZM440.322 636.42C438.306 636.42 436.579 635.981 435.142 635.104C433.705 634.217 432.599 632.985 431.824 631.408C431.059 629.831 430.676 628.001 430.676 625.92C430.676 623.839 431.059 622.009 431.824 620.432C432.599 618.855 433.705 617.627 435.142 616.75C436.579 615.863 438.306 615.42 440.322 615.42C442.338 615.42 444.065 615.863 445.502 616.75C446.949 617.627 448.055 618.855 448.82 620.432C449.595 622.009 449.982 623.839 449.982 625.92C449.982 628.001 449.595 629.831 448.82 631.408C448.055 632.985 446.949 634.217 445.502 635.104C444.065 635.981 442.338 636.42 440.322 636.42ZM440.322 633.242C441.675 633.251 442.8 632.953 443.696 632.346C444.601 631.739 445.278 630.885 445.726 629.784C446.183 628.683 446.412 627.395 446.412 625.92C446.412 624.445 446.183 623.167 445.726 622.084C445.278 620.992 444.601 620.143 443.696 619.536C442.8 618.929 441.675 618.617 440.322 618.598C438.969 618.589 437.844 618.887 436.948 619.494C436.052 620.101 435.375 620.955 434.918 622.056C434.47 623.157 434.246 624.445 434.246 625.92C434.246 627.395 434.47 628.678 434.918 629.77C435.366 630.853 436.038 631.697 436.934 632.304C437.839 632.911 438.969 633.223 440.322 633.242ZM460.889 636.42C459.283 636.42 457.869 636.093 456.647 635.44C455.433 634.787 454.481 633.867 453.791 632.682C453.109 631.497 452.769 630.106 452.769 628.51V615.868L456.185 615.84V628.426C456.185 629.182 456.311 629.859 456.563 630.456C456.824 631.053 457.174 631.562 457.613 631.982C458.051 632.393 458.555 632.705 459.125 632.92C459.694 633.135 460.282 633.242 460.889 633.242C461.514 633.242 462.107 633.135 462.667 632.92C463.236 632.696 463.74 632.379 464.179 631.968C464.617 631.548 464.963 631.039 465.215 630.442C465.467 629.845 465.593 629.173 465.593 628.426V615.84H469.009V628.51C469.009 630.106 468.663 631.497 467.973 632.682C467.291 633.867 466.339 634.787 465.117 635.44C463.903 636.093 462.494 636.42 460.889 636.42ZM483.37 636V619.004H476.846V615.84H493.268V619.004H486.744V636H483.37ZM495.507 636V615.84H508.527V619.004H498.881V623.974H506.847V627.138H498.881V632.836H508.527V636H495.507ZM512.166 636V615.84H515.54V632.836H524.444V636H512.166ZM527.095 636V615.84H530.469V632.836H539.373V636H527.095Z" fill="white"></path> <circle cx="300" cy="448" r="60" fill="#F9F9F9"></circle> <path d="M288.777 461.51C286.329 461.51 284.232 460.977 282.487 459.912C280.742 458.835 279.399 457.339 278.458 455.424C277.529 453.509 277.064 451.287 277.064 448.76C277.064 446.233 277.529 444.011 278.458 442.096C279.399 440.181 280.742 438.69 282.487 437.625C284.232 436.548 286.329 436.01 288.777 436.01C291.225 436.01 293.322 436.548 295.067 437.625C296.824 438.69 298.167 440.181 299.096 442.096C300.037 444.011 300.507 446.233 300.507 448.76C300.507 451.287 300.037 453.509 299.096 455.424C298.167 457.339 296.824 458.835 295.067 459.912C293.322 460.977 291.225 461.51 288.777 461.51ZM288.777 457.651C290.42 457.662 291.786 457.3 292.874 456.563C293.973 455.826 294.795 454.789 295.339 453.452C295.894 452.115 296.172 450.551 296.172 448.76C296.172 446.969 295.894 445.417 295.339 444.102C294.795 442.776 293.973 441.745 292.874 441.008C291.786 440.271 290.42 439.892 288.777 439.869C287.134 439.858 285.768 440.22 284.68 440.957C283.592 441.694 282.77 442.731 282.215 444.068C281.671 445.405 281.399 446.969 281.399 448.76C281.399 450.551 281.671 452.109 282.215 453.435C282.759 454.75 283.575 455.775 284.663 456.512C285.762 457.249 287.134 457.628 288.777 457.651ZM303.891 461V436.52H314.006C314.244 436.52 314.55 436.531 314.924 436.554C315.298 436.565 315.643 436.599 315.961 436.656C317.377 436.871 318.545 437.342 319.463 438.067C320.392 438.792 321.078 439.71 321.52 440.821C321.973 441.92 322.2 443.144 322.2 444.493C322.2 446.488 321.695 448.205 320.687 449.644C319.678 451.072 318.131 451.956 316.046 452.296L314.295 452.449H307.988V461H303.891ZM317.95 461L313.122 451.038L317.287 450.12L322.591 461H317.95ZM307.988 448.624H313.836C314.062 448.624 314.317 448.613 314.601 448.59C314.884 448.567 315.145 448.522 315.383 448.454C316.063 448.284 316.595 447.984 316.981 447.553C317.377 447.122 317.655 446.635 317.814 446.091C317.984 445.547 318.069 445.014 318.069 444.493C318.069 443.972 317.984 443.439 317.814 442.895C317.655 442.34 317.377 441.847 316.981 441.416C316.595 440.985 316.063 440.685 315.383 440.515C315.145 440.447 314.884 440.407 314.601 440.396C314.317 440.373 314.062 440.362 313.836 440.362H307.988V448.624Z" fill="#3E1BC9"></path> </svg> 