<?xml version="1.0" encoding="UTF-8"?> <svg xmlns="http://www.w3.org/2000/svg" width="600" height="775" viewBox="0 0 600 775" fill="none"> <rect width="600" height="775" rx="20" fill="#F9F9F9"></rect> <path d="M129.614 73L122.457 48.52H126.758L131.637 66.2L136.499 48.554L140.8 48.52L145.679 66.2L150.541 48.52H154.842L147.702 73H143.656L138.641 55.592L133.66 73H129.614ZM167.305 73.51C164.857 73.51 162.761 72.9773 161.015 71.912C159.27 70.8353 157.927 69.3393 156.986 67.424C156.057 65.5087 155.592 63.2873 155.592 60.76C155.592 58.2327 156.057 56.0113 156.986 54.096C157.927 52.1807 159.27 50.6903 161.015 49.625C162.761 48.5483 164.857 48.01 167.305 48.01C169.753 48.01 171.85 48.5483 173.595 49.625C175.352 50.6903 176.695 52.1807 177.624 54.096C178.565 56.0113 179.035 58.2327 179.035 60.76C179.035 63.2873 178.565 65.5087 177.624 67.424C176.695 69.3393 175.352 70.8353 173.595 71.912C171.85 72.9773 169.753 73.51 167.305 73.51ZM167.305 69.651C168.949 69.6623 170.314 69.2997 171.402 68.563C172.502 67.8263 173.323 66.7893 173.867 65.452C174.423 64.1147 174.7 62.5507 174.7 60.76C174.7 58.9693 174.423 57.4167 173.867 56.102C173.323 54.776 172.502 53.7447 171.402 53.008C170.314 52.2713 168.949 51.8917 167.305 51.869C165.662 51.8577 164.296 52.2203 163.208 52.957C162.12 53.6937 161.299 54.7307 160.743 56.068C160.199 57.4053 159.927 58.9693 159.927 60.76C159.927 62.5507 160.199 64.109 160.743 65.435C161.287 66.7497 162.103 67.7753 163.191 68.512C164.291 69.2487 165.662 69.6283 167.305 69.651ZM192.279 73.51C190.33 73.51 188.613 73.1133 187.128 72.32C185.655 71.5267 184.499 70.4103 183.66 68.971C182.833 67.5317 182.419 65.843 182.419 63.905V48.554L186.567 48.52V63.803C186.567 64.721 186.72 65.5427 187.026 66.268C187.343 66.9933 187.768 67.611 188.301 68.121C188.834 68.6197 189.446 68.9993 190.137 69.26C190.828 69.5207 191.542 69.651 192.279 69.651C193.038 69.651 193.758 69.5207 194.438 69.26C195.129 68.988 195.741 68.6027 196.274 68.104C196.807 67.594 197.226 66.9763 197.532 66.251C197.838 65.5257 197.991 64.7097 197.991 63.803V48.52H202.139V63.905C202.139 65.843 201.72 67.5317 200.881 68.971C200.054 70.4103 198.898 71.5267 197.413 72.32C195.94 73.1133 194.228 73.51 192.279 73.51ZM207.23 73V48.52H211.327V69.158H222.139V73H207.23ZM225.019 73V48.52H232.822C233.026 48.52 233.428 48.5257 234.029 48.537C234.641 48.5483 235.23 48.588 235.797 48.656C237.735 48.9053 239.372 49.5967 240.71 50.73C242.058 51.852 243.078 53.2857 243.77 55.031C244.461 56.7763 244.807 58.686 244.807 60.76C244.807 62.834 244.461 64.7437 243.77 66.489C243.078 68.2343 242.058 69.6737 240.71 70.807C239.372 71.929 237.735 72.6147 235.797 72.864C235.241 72.932 234.658 72.9717 234.046 72.983C233.434 72.9943 233.026 73 232.822 73H225.019ZM229.184 69.141H232.822C233.162 69.141 233.592 69.1297 234.114 69.107C234.646 69.0843 235.117 69.0333 235.525 68.954C236.681 68.7387 237.621 68.223 238.347 67.407C239.072 66.591 239.605 65.5993 239.945 64.432C240.296 63.2647 240.472 62.0407 240.472 60.76C240.472 59.434 240.296 58.1873 239.945 57.02C239.593 55.8527 239.049 54.8723 238.313 54.079C237.587 53.2857 236.658 52.7813 235.525 52.566C235.117 52.4753 234.646 52.4243 234.114 52.413C233.592 52.3903 233.162 52.379 232.822 52.379H229.184V69.141ZM261.582 73V62.97L253.252 48.52H258.029L263.656 58.278L269.266 48.52H274.043L265.73 62.97V73H261.582ZM285.409 73.51C282.961 73.51 280.864 72.9773 279.119 71.912C277.373 70.8353 276.03 69.3393 275.09 67.424C274.16 65.5087 273.696 63.2873 273.696 60.76C273.696 58.2327 274.16 56.0113 275.09 54.096C276.03 52.1807 277.373 50.6903 279.119 49.625C280.864 48.5483 282.961 48.01 285.409 48.01C287.857 48.01 289.953 48.5483 291.699 49.625C293.455 50.6903 294.798 52.1807 295.728 54.096C296.668 56.0113 297.139 58.2327 297.139 60.76C297.139 63.2873 296.668 65.5087 295.728 67.424C294.798 69.3393 293.455 70.8353 291.699 71.912C289.953 72.9773 287.857 73.51 285.409 73.51ZM285.409 69.651C287.052 69.6623 288.418 69.2997 289.506 68.563C290.605 67.8263 291.427 66.7893 291.971 65.452C292.526 64.1147 292.804 62.5507 292.804 60.76C292.804 58.9693 292.526 57.4167 291.971 56.102C291.427 54.776 290.605 53.7447 289.506 53.008C288.418 52.2713 287.052 51.8917 285.409 51.869C283.765 51.8577 282.4 52.2203 281.312 52.957C280.224 53.6937 279.402 54.7307 278.847 56.068C278.303 57.4053 278.031 58.9693 278.031 60.76C278.031 62.5507 278.303 64.109 278.847 65.435C279.391 66.7497 280.207 67.7753 281.295 68.512C282.394 69.2487 283.765 69.6283 285.409 69.651ZM310.383 73.51C308.433 73.51 306.716 73.1133 305.232 72.32C303.758 71.5267 302.602 70.4103 301.764 68.971C300.936 67.5317 300.523 65.843 300.523 63.905V48.554L304.671 48.52V63.803C304.671 64.721 304.824 65.5427 305.13 66.268C305.447 66.9933 305.872 67.611 306.405 68.121C306.937 68.6197 307.549 68.9993 308.241 69.26C308.932 69.5207 309.646 69.651 310.383 69.651C311.142 69.651 311.862 69.5207 312.542 69.26C313.233 68.988 313.845 68.6027 314.378 68.104C314.91 67.594 315.33 66.9763 315.636 66.251C315.942 65.5257 316.095 64.7097 316.095 63.803V48.52H320.243V63.905C320.243 65.843 319.823 67.5317 318.985 68.971C318.157 70.4103 317.001 71.5267 315.517 72.32C314.043 73.1133 312.332 73.51 310.383 73.51ZM331.8 73V48.52H341.915C342.153 48.52 342.459 48.5313 342.833 48.554C343.207 48.5653 343.553 48.5993 343.87 48.656C345.287 48.8713 346.454 49.3417 347.372 50.067C348.301 50.7923 348.987 51.7103 349.429 52.821C349.882 53.9203 350.109 55.1443 350.109 56.493C350.109 58.4877 349.605 60.2047 348.596 61.644C347.587 63.072 346.04 63.956 343.955 64.296L342.204 64.449H335.897V73H331.8ZM345.859 73L341.031 63.038L345.196 62.12L350.5 73H345.859ZM335.897 60.624H341.745C341.972 60.624 342.227 60.6127 342.51 60.59C342.793 60.5673 343.054 60.522 343.292 60.454C343.972 60.284 344.505 59.9837 344.89 59.553C345.287 59.1223 345.564 58.635 345.723 58.091C345.893 57.547 345.978 57.0143 345.978 56.493C345.978 55.9717 345.893 55.439 345.723 54.895C345.564 54.3397 345.287 53.8467 344.89 53.416C344.505 52.9853 343.972 52.685 343.292 52.515C343.054 52.447 342.793 52.4073 342.51 52.396C342.227 52.3733 341.972 52.362 341.745 52.362H335.897V60.624ZM352.545 73L360.263 48.52H366.264L373.982 73H369.766L362.762 51.036H363.68L356.761 73H352.545ZM356.846 67.696V63.871H369.698V67.696H356.846ZM380.912 73V52.362H372.99V48.52H392.931V52.362H385.009V73H380.912ZM395.65 73V48.52H399.747V58.822H411.341V48.52H415.421V73H411.341V62.664H399.747V73H395.65ZM420.187 73V48.52H435.997V52.362H424.284V58.397H433.957V62.239H424.284V69.158H435.997V73H420.187ZM440.075 73V48.52H450.19C450.428 48.52 450.734 48.5313 451.108 48.554C451.482 48.5653 451.828 48.5993 452.145 48.656C453.562 48.8713 454.729 49.3417 455.647 50.067C456.577 50.7923 457.262 51.7103 457.704 52.821C458.158 53.9203 458.384 55.1443 458.384 56.493C458.384 58.4877 457.88 60.2047 456.871 61.644C455.863 63.072 454.316 63.956 452.23 64.296L450.479 64.449H444.172V73H440.075ZM454.134 73L449.306 63.038L453.471 62.12L458.775 73H454.134ZM444.172 60.624H450.02C450.247 60.624 450.502 60.6127 450.785 60.59C451.069 60.5673 451.329 60.522 451.567 60.454C452.247 60.284 452.78 59.9837 453.165 59.553C453.562 59.1223 453.84 58.635 453.998 58.091C454.168 57.547 454.253 57.0143 454.253 56.493C454.253 55.9717 454.168 55.439 453.998 54.895C453.84 54.3397 453.562 53.8467 453.165 53.416C452.78 52.9853 452.247 52.685 451.567 52.515C451.329 52.447 451.069 52.4073 450.785 52.396C450.502 52.3733 450.247 52.362 450.02 52.362H444.172V60.624ZM466.958 66.353C466.958 65.571 467.031 64.8173 467.179 64.092C467.337 63.3553 467.592 62.6753 467.944 62.052C468.25 61.4513 468.59 60.9753 468.964 60.624C469.338 60.2613 469.757 59.9043 470.222 59.553C470.686 59.1903 471.202 58.7087 471.769 58.108C472.233 57.598 472.539 57.0937 472.687 56.595C472.834 56.085 472.908 55.541 472.908 54.963C472.908 54.589 472.868 54.2377 472.789 53.909C472.709 53.5803 472.568 53.297 472.364 53.059C472.046 52.6397 471.638 52.345 471.14 52.175C470.641 51.9937 470.108 51.903 469.542 51.903C469.077 51.903 468.629 51.9653 468.199 52.09C467.779 52.2033 467.422 52.3847 467.128 52.634C466.788 52.906 466.538 53.2403 466.38 53.637C466.221 54.0337 466.147 54.47 466.159 54.946H461.841C461.954 53.8127 462.26 52.7643 462.759 51.801C463.269 50.8263 463.937 50.05 464.765 49.472C465.411 48.996 466.136 48.639 466.941 48.401C467.757 48.163 468.573 48.044 469.389 48.044C470.635 48.044 471.808 48.2367 472.908 48.622C474.018 49.0073 474.942 49.642 475.679 50.526C476.189 51.104 476.574 51.7727 476.835 52.532C477.107 53.2913 477.243 54.062 477.243 54.844C477.243 56.0113 476.988 57.0767 476.478 58.04C475.979 59.0033 475.344 59.893 474.574 60.709C474.211 61.0943 473.865 61.4343 473.537 61.729C473.208 62.0237 472.902 62.3127 472.619 62.596C472.347 62.868 472.12 63.157 471.939 63.463C471.621 63.9957 471.434 64.449 471.378 64.823C471.321 65.1857 471.293 65.6957 471.293 66.353H466.958ZM466.992 73V68.495H471.293V73H466.992Z" fill="#3E1BC9"></path> <rect y="120" width="600" height="300" rx="20" fill="#3E1BC9"></rect> <path d="M99.7911 281.42C98.3165 281.42 96.9865 281.163 95.8011 280.65C94.6251 280.137 93.6545 279.404 92.8891 278.452C92.1331 277.491 91.6525 276.352 91.4471 275.036L94.9471 274.504C95.2458 275.699 95.8571 276.623 96.7811 277.276C97.7145 277.929 98.7878 278.256 100.001 278.256C100.72 278.256 101.396 278.144 102.031 277.92C102.666 277.696 103.179 277.369 103.571 276.94C103.972 276.511 104.173 275.983 104.173 275.358C104.173 275.078 104.126 274.821 104.033 274.588C103.94 274.345 103.8 274.131 103.613 273.944C103.436 273.757 103.202 273.589 102.913 273.44C102.633 273.281 102.306 273.146 101.933 273.034L96.7251 271.494C96.2771 271.363 95.7918 271.191 95.2691 270.976C94.7558 270.752 94.2658 270.449 93.7991 270.066C93.3418 269.674 92.9638 269.179 92.6651 268.582C92.3758 267.975 92.2311 267.229 92.2311 266.342C92.2311 265.045 92.5578 263.957 93.2111 263.08C93.8738 262.193 94.7605 261.531 95.8711 261.092C96.9911 260.653 98.2325 260.439 99.5951 260.448C100.976 260.457 102.208 260.695 103.291 261.162C104.374 261.619 105.279 262.287 106.007 263.164C106.735 264.041 107.248 265.101 107.547 266.342L103.921 266.972C103.772 266.263 103.482 265.661 103.053 265.166C102.633 264.662 102.115 264.279 101.499 264.018C100.892 263.757 100.244 263.617 99.5531 263.598C98.8811 263.589 98.2558 263.691 97.6771 263.906C97.1078 264.111 96.6458 264.41 96.2911 264.802C95.9458 265.194 95.7731 265.651 95.7731 266.174C95.7731 266.669 95.9225 267.075 96.2211 267.392C96.5198 267.7 96.8885 267.947 97.3271 268.134C97.7751 268.311 98.2278 268.461 98.6851 268.582L102.297 269.59C102.792 269.721 103.347 269.898 103.963 270.122C104.579 270.346 105.172 270.659 105.741 271.06C106.31 271.461 106.777 271.989 107.141 272.642C107.514 273.295 107.701 274.126 107.701 275.134C107.701 276.179 107.482 277.099 107.043 277.892C106.614 278.676 106.03 279.329 105.293 279.852C104.556 280.375 103.711 280.767 102.759 281.028C101.816 281.289 100.827 281.42 99.7911 281.42ZM110.731 281V260.84H119.061C119.257 260.84 119.509 260.849 119.817 260.868C120.125 260.877 120.41 260.905 120.671 260.952C121.838 261.129 122.799 261.517 123.555 262.114C124.321 262.711 124.885 263.467 125.249 264.382C125.623 265.287 125.809 266.295 125.809 267.406C125.809 268.507 125.623 269.515 125.249 270.43C124.876 271.335 124.307 272.087 123.541 272.684C122.785 273.281 121.829 273.669 120.671 273.846C120.41 273.883 120.121 273.911 119.803 273.93C119.495 273.949 119.248 273.958 119.061 273.958H114.105V281H110.731ZM114.105 270.808H118.921C119.108 270.808 119.318 270.799 119.551 270.78C119.785 270.761 119.999 270.724 120.195 270.668C120.755 270.528 121.194 270.281 121.511 269.926C121.838 269.571 122.067 269.17 122.197 268.722C122.337 268.274 122.407 267.835 122.407 267.406C122.407 266.977 122.337 266.538 122.197 266.09C122.067 265.633 121.838 265.227 121.511 264.872C121.194 264.517 120.755 264.27 120.195 264.13C119.999 264.074 119.785 264.041 119.551 264.032C119.318 264.013 119.108 264.004 118.921 264.004H114.105V270.808ZM128.614 281V260.84H141.634V264.004H131.988V268.974H139.954V272.138H131.988V277.836H141.634V281H128.614ZM144.993 281V260.84H148.409L157.761 275.05V260.84H161.177V281H157.761L148.409 266.79V281H144.993ZM165.091 281V260.84H171.517C171.685 260.84 172.016 260.845 172.511 260.854C173.015 260.863 173.5 260.896 173.967 260.952C175.563 261.157 176.912 261.727 178.013 262.66C179.124 263.584 179.964 264.765 180.533 266.202C181.102 267.639 181.387 269.212 181.387 270.92C181.387 272.628 181.102 274.201 180.533 275.638C179.964 277.075 179.124 278.261 178.013 279.194C176.912 280.118 175.563 280.683 173.967 280.888C173.51 280.944 173.029 280.977 172.525 280.986C172.021 280.995 171.685 281 171.517 281H165.091ZM168.521 277.822H171.517C171.797 277.822 172.152 277.813 172.581 277.794C173.02 277.775 173.407 277.733 173.743 277.668C174.695 277.491 175.47 277.066 176.067 276.394C176.664 275.722 177.103 274.905 177.383 273.944C177.672 272.983 177.817 271.975 177.817 270.92C177.817 269.828 177.672 268.801 177.383 267.84C177.094 266.879 176.646 266.071 176.039 265.418C175.442 264.765 174.676 264.349 173.743 264.172C173.407 264.097 173.02 264.055 172.581 264.046C172.152 264.027 171.797 264.018 171.517 264.018H168.521V277.822ZM188.902 281L195.258 260.84H200.2L206.556 281H203.084L197.316 262.912H198.072L192.374 281H188.902ZM192.444 276.632V273.482H203.028V276.632H192.444ZM219.592 281V272.74L212.732 260.84H216.666L221.3 268.876L225.92 260.84H229.854L223.008 272.74V281H219.592ZM231.81 281V260.84H244.83V264.004H235.184V268.974H243.15V272.138H235.184V277.836H244.83V281H231.81ZM246.789 281L253.145 260.84H258.087L264.443 281H260.971L255.203 262.912H255.959L250.261 281H246.789ZM250.331 276.632V273.482H260.915V276.632H250.331ZM266.974 281V260.84H275.304C275.5 260.84 275.752 260.849 276.06 260.868C276.368 260.877 276.652 260.905 276.914 260.952C278.08 261.129 279.042 261.517 279.798 262.114C280.563 262.711 281.128 263.467 281.492 264.382C281.865 265.287 282.052 266.295 282.052 267.406C282.052 269.049 281.636 270.463 280.806 271.648C279.975 272.824 278.701 273.552 276.984 273.832L275.542 273.958H270.348V281H266.974ZM278.552 281L274.576 272.796L278.006 272.04L282.374 281H278.552ZM270.348 270.808H275.164C275.35 270.808 275.56 270.799 275.794 270.78C276.027 270.761 276.242 270.724 276.438 270.668C276.998 270.528 277.436 270.281 277.754 269.926C278.08 269.571 278.309 269.17 278.44 268.722C278.58 268.274 278.65 267.835 278.65 267.406C278.65 266.977 278.58 266.538 278.44 266.09C278.309 265.633 278.08 265.227 277.754 264.872C277.436 264.517 276.998 264.27 276.438 264.13C276.242 264.074 276.027 264.041 275.794 264.032C275.56 264.013 275.35 264.004 275.164 264.004H270.348V270.808ZM291.064 281V260.84H304.084V264.004H294.438V268.974H302.404V272.138H294.438V277.836H304.084V281H291.064ZM307.442 281V260.84H310.858L320.21 275.05V260.84H323.626V281H320.21L310.858 266.79V281H307.442ZM332.384 281V264.004H325.86V260.84H342.282V264.004H335.758V281H332.384ZM344.801 281V260.84H348.175V281H344.801ZM352.368 281V260.84H360.698C360.894 260.84 361.146 260.849 361.454 260.868C361.762 260.877 362.047 260.905 362.308 260.952C363.475 261.129 364.436 261.517 365.192 262.114C365.958 262.711 366.522 263.467 366.886 264.382C367.26 265.287 367.446 266.295 367.446 267.406C367.446 269.049 367.031 270.463 366.2 271.648C365.37 272.824 364.096 273.552 362.378 273.832L360.936 273.958H355.742V281H352.368ZM363.946 281L359.97 272.796L363.4 272.04L367.768 281H363.946ZM355.742 270.808H360.558C360.745 270.808 360.955 270.799 361.188 270.78C361.422 270.761 361.636 270.724 361.832 270.668C362.392 270.528 362.831 270.281 363.148 269.926C363.475 269.571 363.704 269.17 363.834 268.722C363.974 268.274 364.044 267.835 364.044 267.406C364.044 266.977 363.974 266.538 363.834 266.09C363.704 265.633 363.475 265.227 363.148 264.872C362.831 264.517 362.392 264.27 361.832 264.13C361.636 264.074 361.422 264.041 361.188 264.032C360.955 264.013 360.745 264.004 360.558 264.004H355.742V270.808ZM370.853 281V260.84H383.873V264.004H374.227V268.974H382.193V272.138H374.227V277.836H383.873V281H370.853ZM387.511 281V260.84H390.885V277.836H399.789V281H387.511ZM404.272 281V272.74L397.412 260.84H401.346L405.98 268.876L410.6 260.84H414.534L407.688 272.74V281H404.272ZM419.574 281L425.93 260.84H430.872L437.228 281H433.756L427.988 262.912H428.744L423.046 281H419.574ZM423.116 276.632V273.482H433.7V276.632H423.116ZM440.039 281V260.84H443.413V277.836H452.317V281H440.039ZM462.668 281.42C460.652 281.42 458.925 280.981 457.488 280.104C456.05 279.217 454.944 277.985 454.17 276.408C453.404 274.831 453.022 273.001 453.022 270.92C453.022 268.839 453.404 267.009 454.17 265.432C454.944 263.855 456.05 262.627 457.488 261.75C458.925 260.863 460.652 260.42 462.668 260.42C464.684 260.42 466.41 260.863 467.848 261.75C469.294 262.627 470.4 263.855 471.166 265.432C471.94 267.009 472.328 268.839 472.328 270.92C472.328 273.001 471.94 274.831 471.166 276.408C470.4 277.985 469.294 279.217 467.848 280.104C466.41 280.981 464.684 281.42 462.668 281.42ZM462.668 278.242C464.021 278.251 465.146 277.953 466.042 277.346C466.947 276.739 467.624 275.885 468.072 274.784C468.529 273.683 468.758 272.395 468.758 270.92C468.758 269.445 468.529 268.167 468.072 267.084C467.624 265.992 466.947 265.143 466.042 264.536C465.146 263.929 464.021 263.617 462.668 263.598C461.314 263.589 460.19 263.887 459.294 264.494C458.398 265.101 457.721 265.955 457.264 267.056C456.816 268.157 456.592 269.445 456.592 270.92C456.592 272.395 456.816 273.678 457.264 274.77C457.712 275.853 458.384 276.697 459.28 277.304C460.185 277.911 461.314 278.223 462.668 278.242ZM475.114 281V260.84H478.53L487.882 275.05V260.84H491.298V281H487.882L478.53 266.79V281H475.114ZM495.212 281V260.84H508.232V264.004H498.586V268.974H506.552V272.138H498.586V277.836H508.232V281H495.212Z" fill="white"></path> <rect y="475" width="600" height="300" rx="20" fill="#E85668"></rect> <path d="M129.621 636L135.977 615.84H140.919L147.275 636H143.803L138.035 617.912H138.791L133.093 636H129.621ZM133.163 631.632V628.482H143.747V631.632H133.163ZM160.311 636V627.74L153.451 615.84H157.385L162.019 623.876L166.639 615.84H170.573L163.727 627.74V636H160.311ZM172.528 636V615.84H185.548V619.004H175.902V623.974H183.868V627.138H175.902V632.836H185.548V636H172.528ZM187.507 636L193.863 615.84H198.805L205.161 636H201.689L195.921 617.912H196.677L190.979 636H187.507ZM191.049 631.632V628.482H201.633V631.632H191.049ZM207.692 636V615.84H216.022C216.218 615.84 216.47 615.849 216.778 615.868C217.086 615.877 217.371 615.905 217.632 615.952C218.799 616.129 219.76 616.517 220.516 617.114C221.282 617.711 221.846 618.467 222.21 619.382C222.584 620.287 222.77 621.295 222.77 622.406C222.77 624.049 222.355 625.463 221.524 626.648C220.694 627.824 219.42 628.552 217.702 628.832L216.26 628.958H211.066V636H207.692ZM219.27 636L215.294 627.796L218.724 627.04L223.092 636H219.27ZM211.066 625.808H215.882C216.069 625.808 216.279 625.799 216.512 625.78C216.746 625.761 216.96 625.724 217.156 625.668C217.716 625.528 218.155 625.281 218.472 624.926C218.799 624.571 219.028 624.17 219.158 623.722C219.298 623.274 219.368 622.835 219.368 622.406C219.368 621.977 219.298 621.538 219.158 621.09C219.028 620.633 218.799 620.227 218.472 619.872C218.155 619.517 217.716 619.27 217.156 619.13C216.96 619.074 216.746 619.041 216.512 619.032C216.279 619.013 216.069 619.004 215.882 619.004H211.066V625.808ZM236.038 636L230.144 615.84H233.686L237.704 630.4L241.708 615.868L245.25 615.84L249.268 630.4L253.272 615.84H256.814L250.934 636H247.602L243.472 621.664L239.37 636H236.038ZM259.379 636V615.84H262.753V636H259.379ZM271.79 636V619.004H265.266V615.84H281.688V619.004H275.164V636H271.79ZM283.927 636V615.84H287.301V624.324H296.849V615.84H300.209V636H296.849V627.488H287.301V636H283.927ZM312.66 636.42C310.644 636.42 308.917 635.981 307.48 635.104C306.042 634.217 304.936 632.985 304.162 631.408C303.396 629.831 303.014 628.001 303.014 625.92C303.014 623.839 303.396 622.009 304.162 620.432C304.936 618.855 306.042 617.627 307.48 616.75C308.917 615.863 310.644 615.42 312.66 615.42C314.676 615.42 316.402 615.863 317.84 616.75C319.286 617.627 320.392 618.855 321.158 620.432C321.932 622.009 322.32 623.839 322.32 625.92C322.32 628.001 321.932 629.831 321.158 631.408C320.392 632.985 319.286 634.217 317.84 635.104C316.402 635.981 314.676 636.42 312.66 636.42ZM312.66 633.242C314.013 633.251 315.138 632.953 316.034 632.346C316.939 631.739 317.616 630.885 318.064 629.784C318.521 628.683 318.75 627.395 318.75 625.92C318.75 624.445 318.521 623.167 318.064 622.084C317.616 620.992 316.939 620.143 316.034 619.536C315.138 618.929 314.013 618.617 312.66 618.598C311.306 618.589 310.182 618.887 309.286 619.494C308.39 620.101 307.713 620.955 307.256 622.056C306.808 623.157 306.584 624.445 306.584 625.92C306.584 627.395 306.808 628.678 307.256 629.77C307.704 630.853 308.376 631.697 309.272 632.304C310.177 632.911 311.306 633.223 312.66 633.242ZM333.226 636.42C331.621 636.42 330.207 636.093 328.984 635.44C327.771 634.787 326.819 633.867 326.128 632.682C325.447 631.497 325.106 630.106 325.106 628.51V615.868L328.522 615.84V628.426C328.522 629.182 328.648 629.859 328.9 630.456C329.162 631.053 329.512 631.562 329.95 631.982C330.389 632.393 330.893 632.705 331.462 632.92C332.032 633.135 332.62 633.242 333.226 633.242C333.852 633.242 334.444 633.135 335.004 632.92C335.574 632.696 336.078 632.379 336.516 631.968C336.955 631.548 337.3 631.039 337.552 630.442C337.804 629.845 337.93 629.173 337.93 628.426V615.84H341.346V628.51C341.346 630.106 341.001 631.497 340.31 632.682C339.629 633.867 338.677 634.787 337.454 635.44C336.241 636.093 334.832 636.42 333.226 636.42ZM350.103 636V619.004H343.579V615.84H360.001V619.004H353.477V636H350.103ZM365.597 636L371.953 615.84H376.895L383.251 636H379.779L374.011 617.912H374.767L369.069 636H365.597ZM369.139 631.632V628.482H379.723V631.632H369.139ZM391.388 636V615.84H394.762V624.324H404.31V615.84H407.67V636H404.31V627.488H394.762V636H391.388ZM420.121 636.42C418.105 636.42 416.378 635.981 414.941 635.104C413.503 634.217 412.397 632.985 411.623 631.408C410.857 629.831 410.475 628.001 410.475 625.92C410.475 623.839 410.857 622.009 411.623 620.432C412.397 618.855 413.503 617.627 414.941 616.75C416.378 615.863 418.105 615.42 420.121 615.42C422.137 615.42 423.863 615.863 425.301 616.75C426.747 617.627 427.853 618.855 428.619 620.432C429.393 622.009 429.781 623.839 429.781 625.92C429.781 628.001 429.393 629.831 428.619 631.408C427.853 632.985 426.747 634.217 425.301 635.104C423.863 635.981 422.137 636.42 420.121 636.42ZM420.121 633.242C421.474 633.251 422.599 632.953 423.495 632.346C424.4 631.739 425.077 630.885 425.525 629.784C425.982 628.683 426.211 627.395 426.211 625.92C426.211 624.445 425.982 623.167 425.525 622.084C425.077 620.992 424.4 620.143 423.495 619.536C422.599 618.929 421.474 618.617 420.121 618.598C418.767 618.589 417.643 618.887 416.747 619.494C415.851 620.101 415.174 620.955 414.717 622.056C414.269 623.157 414.045 624.445 414.045 625.92C414.045 627.395 414.269 628.678 414.717 629.77C415.165 630.853 415.837 631.697 416.733 632.304C417.638 632.911 418.767 633.223 420.121 633.242ZM432.567 636V615.84H435.605L442.577 630.12L449.549 615.84H452.587V636H449.437V623.078L443.249 636H441.905L435.731 623.078V636H432.567ZM456.521 636V615.84H469.541V619.004H459.895V623.974H467.861V627.138H459.895V632.836H469.541V636H456.521Z" fill="white"></path> <circle cx="300" cy="448" r="60" fill="#F9F9F9"></circle> <path d="M288.777 461.51C286.329 461.51 284.232 460.977 282.487 459.912C280.742 458.835 279.399 457.339 278.458 455.424C277.529 453.509 277.064 451.287 277.064 448.76C277.064 446.233 277.529 444.011 278.458 442.096C279.399 440.181 280.742 438.69 282.487 437.625C284.232 436.548 286.329 436.01 288.777 436.01C291.225 436.01 293.322 436.548 295.067 437.625C296.824 438.69 298.167 440.181 299.096 442.096C300.037 444.011 300.507 446.233 300.507 448.76C300.507 451.287 300.037 453.509 299.096 455.424C298.167 457.339 296.824 458.835 295.067 459.912C293.322 460.977 291.225 461.51 288.777 461.51ZM288.777 457.651C290.42 457.662 291.786 457.3 292.874 456.563C293.973 455.826 294.795 454.789 295.339 453.452C295.894 452.115 296.172 450.551 296.172 448.76C296.172 446.969 295.894 445.417 295.339 444.102C294.795 442.776 293.973 441.745 292.874 441.008C291.786 440.271 290.42 439.892 288.777 439.869C287.134 439.858 285.768 440.22 284.68 440.957C283.592 441.694 282.77 442.731 282.215 444.068C281.671 445.405 281.399 446.969 281.399 448.76C281.399 450.551 281.671 452.109 282.215 453.435C282.759 454.75 283.575 455.775 284.663 456.512C285.762 457.249 287.134 457.628 288.777 457.651ZM303.891 461V436.52H314.006C314.244 436.52 314.55 436.531 314.924 436.554C315.298 436.565 315.643 436.599 315.961 436.656C317.377 436.871 318.545 437.342 319.463 438.067C320.392 438.792 321.078 439.71 321.52 440.821C321.973 441.92 322.2 443.144 322.2 444.493C322.2 446.488 321.695 448.205 320.687 449.644C319.678 451.072 318.131 451.956 316.046 452.296L314.295 452.449H307.988V461H303.891ZM317.95 461L313.122 451.038L317.287 450.12L322.591 461H317.95ZM307.988 448.624H313.836C314.062 448.624 314.317 448.613 314.601 448.59C314.884 448.567 315.145 448.522 315.383 448.454C316.063 448.284 316.595 447.984 316.981 447.553C317.377 447.122 317.655 446.635 317.814 446.091C317.984 445.547 318.069 445.014 318.069 444.493C318.069 443.972 317.984 443.439 317.814 442.895C317.655 442.34 317.377 441.847 316.981 441.416C316.595 440.985 316.063 440.685 315.383 440.515C315.145 440.447 314.884 440.407 314.601 440.396C314.317 440.373 314.062 440.362 313.836 440.362H307.988V448.624Z" fill="#3E1BC9"></path> </svg> 