<?xml version="1.0" encoding="UTF-8"?> <svg xmlns="http://www.w3.org/2000/svg" width="600" height="775" viewBox="0 0 600 775" fill="none"> <rect width="600" height="775" rx="20" fill="#F9F9F9"></rect> <path d="M129.614 73L122.457 48.52H126.758L131.637 66.2L136.499 48.554L140.8 48.52L145.679 66.2L150.541 48.52H154.842L147.702 73H143.656L138.641 55.592L133.66 73H129.614ZM167.305 73.51C164.857 73.51 162.761 72.9773 161.015 71.912C159.27 70.8353 157.927 69.3393 156.986 67.424C156.057 65.5087 155.592 63.2873 155.592 60.76C155.592 58.2327 156.057 56.0113 156.986 54.096C157.927 52.1807 159.27 50.6903 161.015 49.625C162.761 48.5483 164.857 48.01 167.305 48.01C169.753 48.01 171.85 48.5483 173.595 49.625C175.352 50.6903 176.695 52.1807 177.624 54.096C178.565 56.0113 179.035 58.2327 179.035 60.76C179.035 63.2873 178.565 65.5087 177.624 67.424C176.695 69.3393 175.352 70.8353 173.595 71.912C171.85 72.9773 169.753 73.51 167.305 73.51ZM167.305 69.651C168.949 69.6623 170.314 69.2997 171.402 68.563C172.502 67.8263 173.323 66.7893 173.867 65.452C174.423 64.1147 174.7 62.5507 174.7 60.76C174.7 58.9693 174.423 57.4167 173.867 56.102C173.323 54.776 172.502 53.7447 171.402 53.008C170.314 52.2713 168.949 51.8917 167.305 51.869C165.662 51.8577 164.296 52.2203 163.208 52.957C162.12 53.6937 161.299 54.7307 160.743 56.068C160.199 57.4053 159.927 58.9693 159.927 60.76C159.927 62.5507 160.199 64.109 160.743 65.435C161.287 66.7497 162.103 67.7753 163.191 68.512C164.291 69.2487 165.662 69.6283 167.305 69.651ZM192.279 73.51C190.33 73.51 188.613 73.1133 187.128 72.32C185.655 71.5267 184.499 70.4103 183.66 68.971C182.833 67.5317 182.419 65.843 182.419 63.905V48.554L186.567 48.52V63.803C186.567 64.721 186.72 65.5427 187.026 66.268C187.343 66.9933 187.768 67.611 188.301 68.121C188.834 68.6197 189.446 68.9993 190.137 69.26C190.828 69.5207 191.542 69.651 192.279 69.651C193.038 69.651 193.758 69.5207 194.438 69.26C195.129 68.988 195.741 68.6027 196.274 68.104C196.807 67.594 197.226 66.9763 197.532 66.251C197.838 65.5257 197.991 64.7097 197.991 63.803V48.52H202.139V63.905C202.139 65.843 201.72 67.5317 200.881 68.971C200.054 70.4103 198.898 71.5267 197.413 72.32C195.94 73.1133 194.228 73.51 192.279 73.51ZM207.23 73V48.52H211.327V69.158H222.139V73H207.23ZM225.019 73V48.52H232.822C233.026 48.52 233.428 48.5257 234.029 48.537C234.641 48.5483 235.23 48.588 235.797 48.656C237.735 48.9053 239.372 49.5967 240.71 50.73C242.058 51.852 243.078 53.2857 243.77 55.031C244.461 56.7763 244.807 58.686 244.807 60.76C244.807 62.834 244.461 64.7437 243.77 66.489C243.078 68.2343 242.058 69.6737 240.71 70.807C239.372 71.929 237.735 72.6147 235.797 72.864C235.241 72.932 234.658 72.9717 234.046 72.983C233.434 72.9943 233.026 73 232.822 73H225.019ZM229.184 69.141H232.822C233.162 69.141 233.592 69.1297 234.114 69.107C234.646 69.0843 235.117 69.0333 235.525 68.954C236.681 68.7387 237.621 68.223 238.347 67.407C239.072 66.591 239.605 65.5993 239.945 64.432C240.296 63.2647 240.472 62.0407 240.472 60.76C240.472 59.434 240.296 58.1873 239.945 57.02C239.593 55.8527 239.049 54.8723 238.313 54.079C237.587 53.2857 236.658 52.7813 235.525 52.566C235.117 52.4753 234.646 52.4243 234.114 52.413C233.592 52.3903 233.162 52.379 232.822 52.379H229.184V69.141ZM261.582 73V62.97L253.252 48.52H258.029L263.656 58.278L269.266 48.52H274.043L265.73 62.97V73H261.582ZM285.409 73.51C282.961 73.51 280.864 72.9773 279.119 71.912C277.373 70.8353 276.03 69.3393 275.09 67.424C274.16 65.5087 273.696 63.2873 273.696 60.76C273.696 58.2327 274.16 56.0113 275.09 54.096C276.03 52.1807 277.373 50.6903 279.119 49.625C280.864 48.5483 282.961 48.01 285.409 48.01C287.857 48.01 289.953 48.5483 291.699 49.625C293.455 50.6903 294.798 52.1807 295.728 54.096C296.668 56.0113 297.139 58.2327 297.139 60.76C297.139 63.2873 296.668 65.5087 295.728 67.424C294.798 69.3393 293.455 70.8353 291.699 71.912C289.953 72.9773 287.857 73.51 285.409 73.51ZM285.409 69.651C287.052 69.6623 288.418 69.2997 289.506 68.563C290.605 67.8263 291.427 66.7893 291.971 65.452C292.526 64.1147 292.804 62.5507 292.804 60.76C292.804 58.9693 292.526 57.4167 291.971 56.102C291.427 54.776 290.605 53.7447 289.506 53.008C288.418 52.2713 287.052 51.8917 285.409 51.869C283.765 51.8577 282.4 52.2203 281.312 52.957C280.224 53.6937 279.402 54.7307 278.847 56.068C278.303 57.4053 278.031 58.9693 278.031 60.76C278.031 62.5507 278.303 64.109 278.847 65.435C279.391 66.7497 280.207 67.7753 281.295 68.512C282.394 69.2487 283.765 69.6283 285.409 69.651ZM310.383 73.51C308.433 73.51 306.716 73.1133 305.232 72.32C303.758 71.5267 302.602 70.4103 301.764 68.971C300.936 67.5317 300.523 65.843 300.523 63.905V48.554L304.671 48.52V63.803C304.671 64.721 304.824 65.5427 305.13 66.268C305.447 66.9933 305.872 67.611 306.405 68.121C306.937 68.6197 307.549 68.9993 308.241 69.26C308.932 69.5207 309.646 69.651 310.383 69.651C311.142 69.651 311.862 69.5207 312.542 69.26C313.233 68.988 313.845 68.6027 314.378 68.104C314.91 67.594 315.33 66.9763 315.636 66.251C315.942 65.5257 316.095 64.7097 316.095 63.803V48.52H320.243V63.905C320.243 65.843 319.823 67.5317 318.985 68.971C318.157 70.4103 317.001 71.5267 315.517 72.32C314.043 73.1133 312.332 73.51 310.383 73.51ZM331.8 73V48.52H341.915C342.153 48.52 342.459 48.5313 342.833 48.554C343.207 48.5653 343.553 48.5993 343.87 48.656C345.287 48.8713 346.454 49.3417 347.372 50.067C348.301 50.7923 348.987 51.7103 349.429 52.821C349.882 53.9203 350.109 55.1443 350.109 56.493C350.109 58.4877 349.605 60.2047 348.596 61.644C347.587 63.072 346.04 63.956 343.955 64.296L342.204 64.449H335.897V73H331.8ZM345.859 73L341.031 63.038L345.196 62.12L350.5 73H345.859ZM335.897 60.624H341.745C341.972 60.624 342.227 60.6127 342.51 60.59C342.793 60.5673 343.054 60.522 343.292 60.454C343.972 60.284 344.505 59.9837 344.89 59.553C345.287 59.1223 345.564 58.635 345.723 58.091C345.893 57.547 345.978 57.0143 345.978 56.493C345.978 55.9717 345.893 55.439 345.723 54.895C345.564 54.3397 345.287 53.8467 344.89 53.416C344.505 52.9853 343.972 52.685 343.292 52.515C343.054 52.447 342.793 52.4073 342.51 52.396C342.227 52.3733 341.972 52.362 341.745 52.362H335.897V60.624ZM352.545 73L360.263 48.52H366.264L373.982 73H369.766L362.762 51.036H363.68L356.761 73H352.545ZM356.846 67.696V63.871H369.698V67.696H356.846ZM380.912 73V52.362H372.99V48.52H392.931V52.362H385.009V73H380.912ZM395.65 73V48.52H399.747V58.822H411.341V48.52H415.421V73H411.341V62.664H399.747V73H395.65ZM420.187 73V48.52H435.997V52.362H424.284V58.397H433.957V62.239H424.284V69.158H435.997V73H420.187ZM440.075 73V48.52H450.19C450.428 48.52 450.734 48.5313 451.108 48.554C451.482 48.5653 451.828 48.5993 452.145 48.656C453.562 48.8713 454.729 49.3417 455.647 50.067C456.577 50.7923 457.262 51.7103 457.704 52.821C458.158 53.9203 458.384 55.1443 458.384 56.493C458.384 58.4877 457.88 60.2047 456.871 61.644C455.863 63.072 454.316 63.956 452.23 64.296L450.479 64.449H444.172V73H440.075ZM454.134 73L449.306 63.038L453.471 62.12L458.775 73H454.134ZM444.172 60.624H450.02C450.247 60.624 450.502 60.6127 450.785 60.59C451.069 60.5673 451.329 60.522 451.567 60.454C452.247 60.284 452.78 59.9837 453.165 59.553C453.562 59.1223 453.84 58.635 453.998 58.091C454.168 57.547 454.253 57.0143 454.253 56.493C454.253 55.9717 454.168 55.439 453.998 54.895C453.84 54.3397 453.562 53.8467 453.165 53.416C452.78 52.9853 452.247 52.685 451.567 52.515C451.329 52.447 451.069 52.4073 450.785 52.396C450.502 52.3733 450.247 52.362 450.02 52.362H444.172V60.624ZM466.958 66.353C466.958 65.571 467.031 64.8173 467.179 64.092C467.337 63.3553 467.592 62.6753 467.944 62.052C468.25 61.4513 468.59 60.9753 468.964 60.624C469.338 60.2613 469.757 59.9043 470.222 59.553C470.686 59.1903 471.202 58.7087 471.769 58.108C472.233 57.598 472.539 57.0937 472.687 56.595C472.834 56.085 472.908 55.541 472.908 54.963C472.908 54.589 472.868 54.2377 472.789 53.909C472.709 53.5803 472.568 53.297 472.364 53.059C472.046 52.6397 471.638 52.345 471.14 52.175C470.641 51.9937 470.108 51.903 469.542 51.903C469.077 51.903 468.629 51.9653 468.199 52.09C467.779 52.2033 467.422 52.3847 467.128 52.634C466.788 52.906 466.538 53.2403 466.38 53.637C466.221 54.0337 466.147 54.47 466.159 54.946H461.841C461.954 53.8127 462.26 52.7643 462.759 51.801C463.269 50.8263 463.937 50.05 464.765 49.472C465.411 48.996 466.136 48.639 466.941 48.401C467.757 48.163 468.573 48.044 469.389 48.044C470.635 48.044 471.808 48.2367 472.908 48.622C474.018 49.0073 474.942 49.642 475.679 50.526C476.189 51.104 476.574 51.7727 476.835 52.532C477.107 53.2913 477.243 54.062 477.243 54.844C477.243 56.0113 476.988 57.0767 476.478 58.04C475.979 59.0033 475.344 59.893 474.574 60.709C474.211 61.0943 473.865 61.4343 473.537 61.729C473.208 62.0237 472.902 62.3127 472.619 62.596C472.347 62.868 472.12 63.157 471.939 63.463C471.621 63.9957 471.434 64.449 471.378 64.823C471.321 65.1857 471.293 65.6957 471.293 66.353H466.958ZM466.992 73V68.495H471.293V73H466.992Z" fill="#3E1BC9"></path> <rect y="120" width="600" height="300" rx="20" fill="#3E1BC9"></rect> <path d="M123.625 281V260.84H126.999V277.836H135.903V281H123.625ZM146.254 281.42C144.238 281.42 142.511 280.981 141.074 280.104C139.636 279.217 138.53 277.985 137.756 276.408C136.99 274.831 136.608 273.001 136.608 270.92C136.608 268.839 136.99 267.009 137.756 265.432C138.53 263.855 139.636 262.627 141.074 261.75C142.511 260.863 144.238 260.42 146.254 260.42C148.27 260.42 149.996 260.863 151.434 261.75C152.88 262.627 153.986 263.855 154.752 265.432C155.526 267.009 155.914 268.839 155.914 270.92C155.914 273.001 155.526 274.831 154.752 276.408C153.986 277.985 152.88 279.217 151.434 280.104C149.996 280.981 148.27 281.42 146.254 281.42ZM146.254 278.242C147.607 278.251 148.732 277.953 149.628 277.346C150.533 276.739 151.21 275.885 151.658 274.784C152.115 273.683 152.344 272.395 152.344 270.92C152.344 269.445 152.115 268.167 151.658 267.084C151.21 265.992 150.533 265.143 149.628 264.536C148.732 263.929 147.607 263.617 146.254 263.598C144.9 263.589 143.776 263.887 142.88 264.494C141.984 265.101 141.307 265.955 140.85 267.056C140.402 268.157 140.178 269.445 140.178 270.92C140.178 272.395 140.402 273.678 140.85 274.77C141.298 275.853 141.97 276.697 142.866 277.304C143.771 277.911 144.9 278.223 146.254 278.242ZM166.162 281.42C164.688 281.42 163.358 281.163 162.172 280.65C160.996 280.137 160.026 279.404 159.26 278.452C158.504 277.491 158.024 276.352 157.818 275.036L161.318 274.504C161.617 275.699 162.228 276.623 163.152 277.276C164.086 277.929 165.159 278.256 166.372 278.256C167.091 278.256 167.768 278.144 168.402 277.92C169.037 277.696 169.55 277.369 169.942 276.94C170.344 276.511 170.544 275.983 170.544 275.358C170.544 275.078 170.498 274.821 170.404 274.588C170.311 274.345 170.171 274.131 169.984 273.944C169.807 273.757 169.574 273.589 169.284 273.44C169.004 273.281 168.678 273.146 168.304 273.034L163.096 271.494C162.648 271.363 162.163 271.191 161.64 270.976C161.127 270.752 160.637 270.449 160.17 270.066C159.713 269.674 159.335 269.179 159.036 268.582C158.747 267.975 158.602 267.229 158.602 266.342C158.602 265.045 158.929 263.957 159.582 263.08C160.245 262.193 161.132 261.531 162.242 261.092C163.362 260.653 164.604 260.439 165.966 260.448C167.348 260.457 168.58 260.695 169.662 261.162C170.745 261.619 171.65 262.287 172.378 263.164C173.106 264.041 173.62 265.101 173.918 266.342L170.292 266.972C170.143 266.263 169.854 265.661 169.424 265.166C169.004 264.662 168.486 264.279 167.87 264.018C167.264 263.757 166.615 263.617 165.924 263.598C165.252 263.589 164.627 263.691 164.048 263.906C163.479 264.111 163.017 264.41 162.662 264.802C162.317 265.194 162.144 265.651 162.144 266.174C162.144 266.669 162.294 267.075 162.592 267.392C162.891 267.7 163.26 267.947 163.698 268.134C164.146 268.311 164.599 268.461 165.056 268.582L168.668 269.59C169.163 269.721 169.718 269.898 170.334 270.122C170.95 270.346 171.543 270.659 172.112 271.06C172.682 271.461 173.148 271.989 173.512 272.642C173.886 273.295 174.072 274.126 174.072 275.134C174.072 276.179 173.853 277.099 173.414 277.892C172.985 278.676 172.402 279.329 171.664 279.852C170.927 280.375 170.082 280.767 169.13 281.028C168.188 281.289 167.198 281.42 166.162 281.42ZM177.103 281V260.84H190.123V264.004H180.477V268.974H188.443V272.138H180.477V277.836H190.123V281H177.103ZM203.931 281V264.004H197.407V260.84H213.829V264.004H207.305V281H203.931ZM216.067 281V260.84H219.441V269.324H228.989V260.84H232.349V281H228.989V272.488H219.441V281H216.067ZM236.274 281V260.84H249.294V264.004H239.648V268.974H247.614V272.138H239.648V277.836H249.294V281H236.274ZM256.859 281L263.215 260.84H268.157L274.513 281H271.041L265.273 262.912H266.029L260.331 281H256.859ZM260.401 276.632V273.482H270.985V276.632H260.401ZM277.044 281V260.84H285.038C286.401 260.84 287.516 261.115 288.384 261.666C289.261 262.207 289.91 262.903 290.33 263.752C290.759 264.601 290.974 265.479 290.974 266.384C290.974 267.495 290.708 268.437 290.176 269.212C289.653 269.987 288.939 270.509 288.034 270.78V270.08C289.303 270.369 290.265 270.971 290.918 271.886C291.581 272.801 291.912 273.841 291.912 275.008C291.912 276.203 291.683 277.248 291.226 278.144C290.769 279.04 290.087 279.74 289.182 280.244C288.286 280.748 287.175 281 285.85 281H277.044ZM280.46 277.822H285.43C286.018 277.822 286.545 277.705 287.012 277.472C287.479 277.229 287.843 276.893 288.104 276.464C288.375 276.025 288.51 275.507 288.51 274.91C288.51 274.369 288.393 273.883 288.16 273.454C287.927 273.025 287.586 272.684 287.138 272.432C286.69 272.171 286.153 272.04 285.528 272.04H280.46V277.822ZM280.46 268.89H284.996C285.481 268.89 285.915 268.797 286.298 268.61C286.681 268.423 286.984 268.148 287.208 267.784C287.432 267.42 287.544 266.972 287.544 266.44C287.544 265.74 287.32 265.157 286.872 264.69C286.424 264.223 285.799 263.99 284.996 263.99H280.46V268.89ZM294.988 281V260.84H298.362V281H294.988ZM302.836 281V260.84H306.21V277.836H315.114V281H302.836ZM317.765 281V260.84H321.139V281H317.765ZM330.177 281V264.004H323.653V260.84H340.075V264.004H333.551V281H330.177ZM348.061 281V272.74L341.201 260.84H345.135L349.769 268.876L354.389 260.84H358.323L351.477 272.74V281H348.061ZM369.607 281V264.004H363.083V260.84H379.505V264.004H372.981V281H369.607ZM390.269 281.42C388.253 281.42 386.527 280.981 385.089 280.104C383.652 279.217 382.546 277.985 381.771 276.408C381.006 274.831 380.623 273.001 380.623 270.92C380.623 268.839 381.006 267.009 381.771 265.432C382.546 263.855 383.652 262.627 385.089 261.75C386.527 260.863 388.253 260.42 390.269 260.42C392.285 260.42 394.012 260.863 395.449 261.75C396.896 262.627 398.002 263.855 398.767 265.432C399.542 267.009 399.929 268.839 399.929 270.92C399.929 273.001 399.542 274.831 398.767 276.408C398.002 277.985 396.896 279.217 395.449 280.104C394.012 280.981 392.285 281.42 390.269 281.42ZM390.269 278.242C391.623 278.251 392.747 277.953 393.643 277.346C394.549 276.739 395.225 275.885 395.673 274.784C396.131 273.683 396.359 272.395 396.359 270.92C396.359 269.445 396.131 268.167 395.673 267.084C395.225 265.992 394.549 265.143 393.643 264.536C392.747 263.929 391.623 263.617 390.269 263.598C388.916 263.589 387.791 263.887 386.895 264.494C385.999 265.101 385.323 265.955 384.865 267.056C384.417 268.157 384.193 269.445 384.193 270.92C384.193 272.395 384.417 273.678 384.865 274.77C385.313 275.853 385.985 276.697 386.881 277.304C387.787 277.911 388.916 278.223 390.269 278.242ZM408.321 281V260.84H416.651C416.847 260.84 417.099 260.849 417.407 260.868C417.715 260.877 418 260.905 418.261 260.952C419.428 261.129 420.389 261.517 421.145 262.114C421.911 262.711 422.475 263.467 422.839 264.382C423.213 265.287 423.399 266.295 423.399 267.406C423.399 269.049 422.984 270.463 422.153 271.648C421.323 272.824 420.049 273.552 418.331 273.832L416.889 273.958H411.695V281H408.321ZM419.899 281L415.923 272.796L419.353 272.04L423.721 281H419.899ZM411.695 270.808H416.511C416.698 270.808 416.908 270.799 417.141 270.78C417.375 270.761 417.589 270.724 417.785 270.668C418.345 270.528 418.784 270.281 419.101 269.926C419.428 269.571 419.657 269.17 419.787 268.722C419.927 268.274 419.997 267.835 419.997 267.406C419.997 266.977 419.927 266.538 419.787 266.09C419.657 265.633 419.428 265.227 419.101 264.872C418.784 264.517 418.345 264.27 417.785 264.13C417.589 264.074 417.375 264.041 417.141 264.032C416.908 264.013 416.698 264.004 416.511 264.004H411.695V270.808ZM426.806 281V260.84H439.826V264.004H430.18V268.974H438.146V272.138H430.18V277.836H439.826V281H426.806ZM441.785 281L448.141 260.84H453.083L459.439 281H455.967L450.199 262.912H450.955L445.257 281H441.785ZM445.327 276.632V273.482H455.911V276.632H445.327ZM461.97 281V260.84H468.396C468.564 260.84 468.895 260.845 469.39 260.854C469.894 260.863 470.379 260.896 470.846 260.952C472.442 261.157 473.79 261.727 474.892 262.66C476.002 263.584 476.842 264.765 477.412 266.202C477.981 267.639 478.266 269.212 478.266 270.92C478.266 272.628 477.981 274.201 477.412 275.638C476.842 277.075 476.002 278.261 474.892 279.194C473.79 280.118 472.442 280.683 470.846 280.888C470.388 280.944 469.908 280.977 469.404 280.986C468.9 280.995 468.564 281 468.396 281H461.97ZM465.4 277.822H468.396C468.676 277.822 469.03 277.813 469.46 277.794C469.898 277.775 470.286 277.733 470.622 277.668C471.574 277.491 472.348 277.066 472.946 276.394C473.543 275.722 473.982 274.905 474.262 273.944C474.551 272.983 474.696 271.975 474.696 270.92C474.696 269.828 474.551 268.801 474.262 267.84C473.972 266.879 473.524 266.071 472.918 265.418C472.32 264.765 471.555 264.349 470.622 264.172C470.286 264.097 469.898 264.055 469.46 264.046C469.03 264.027 468.676 264.018 468.396 264.018H465.4V277.822Z" fill="white"></path> <rect y="475" width="600" height="300" rx="20" fill="#5199FF"></rect> <path d="M115.463 636V615.84H118.837V632.836H127.741V636H115.463ZM138.091 636.42C136.075 636.42 134.349 635.981 132.911 635.104C131.474 634.217 130.368 632.985 129.593 631.408C128.828 629.831 128.445 628.001 128.445 625.92C128.445 623.839 128.828 622.009 129.593 620.432C130.368 618.855 131.474 617.627 132.911 616.75C134.349 615.863 136.075 615.42 138.091 615.42C140.107 615.42 141.834 615.863 143.271 616.75C144.718 617.627 145.824 618.855 146.589 620.432C147.364 622.009 147.751 623.839 147.751 625.92C147.751 628.001 147.364 629.831 146.589 631.408C145.824 632.985 144.718 634.217 143.271 635.104C141.834 635.981 140.107 636.42 138.091 636.42ZM138.091 633.242C139.445 633.251 140.569 632.953 141.465 632.346C142.371 631.739 143.047 630.885 143.495 629.784C143.953 628.683 144.181 627.395 144.181 625.92C144.181 624.445 143.953 623.167 143.495 622.084C143.047 620.992 142.371 620.143 141.465 619.536C140.569 618.929 139.445 618.617 138.091 618.598C136.738 618.589 135.613 618.887 134.717 619.494C133.821 620.101 133.145 620.955 132.687 622.056C132.239 623.157 132.015 624.445 132.015 625.92C132.015 627.395 132.239 628.678 132.687 629.77C133.135 630.853 133.807 631.697 134.703 632.304C135.609 632.911 136.738 633.223 138.091 633.242ZM158 636.42C156.525 636.42 155.195 636.163 154.01 635.65C152.834 635.137 151.863 634.404 151.098 633.452C150.342 632.491 149.861 631.352 149.656 630.036L153.156 629.504C153.455 630.699 154.066 631.623 154.99 632.276C155.923 632.929 156.997 633.256 158.21 633.256C158.929 633.256 159.605 633.144 160.24 632.92C160.875 632.696 161.388 632.369 161.78 631.94C162.181 631.511 162.382 630.983 162.382 630.358C162.382 630.078 162.335 629.821 162.242 629.588C162.149 629.345 162.009 629.131 161.822 628.944C161.645 628.757 161.411 628.589 161.122 628.44C160.842 628.281 160.515 628.146 160.142 628.034L154.934 626.494C154.486 626.363 154.001 626.191 153.478 625.976C152.965 625.752 152.475 625.449 152.008 625.066C151.551 624.674 151.173 624.179 150.874 623.582C150.585 622.975 150.44 622.229 150.44 621.342C150.44 620.045 150.767 618.957 151.42 618.08C152.083 617.193 152.969 616.531 154.08 616.092C155.2 615.653 156.441 615.439 157.804 615.448C159.185 615.457 160.417 615.695 161.5 616.162C162.583 616.619 163.488 617.287 164.216 618.164C164.944 619.041 165.457 620.101 165.756 621.342L162.13 621.972C161.981 621.263 161.691 620.661 161.262 620.166C160.842 619.662 160.324 619.279 159.708 619.018C159.101 618.757 158.453 618.617 157.762 618.598C157.09 618.589 156.465 618.691 155.886 618.906C155.317 619.111 154.855 619.41 154.5 619.802C154.155 620.194 153.982 620.651 153.982 621.174C153.982 621.669 154.131 622.075 154.43 622.392C154.729 622.7 155.097 622.947 155.536 623.134C155.984 623.311 156.437 623.461 156.894 623.582L160.506 624.59C161.001 624.721 161.556 624.898 162.172 625.122C162.788 625.346 163.381 625.659 163.95 626.06C164.519 626.461 164.986 626.989 165.35 627.642C165.723 628.295 165.91 629.126 165.91 630.134C165.91 631.179 165.691 632.099 165.252 632.892C164.823 633.676 164.239 634.329 163.502 634.852C162.765 635.375 161.92 635.767 160.968 636.028C160.025 636.289 159.036 636.42 158 636.42ZM168.94 636V615.84H181.96V619.004H172.314V623.974H180.28V627.138H172.314V632.836H181.96V636H168.94ZM195.769 636V619.004H189.245V615.84H205.667V619.004H199.143V636H195.769ZM207.905 636V615.84H211.279V624.324H220.827V615.84H224.187V636H220.827V627.488H211.279V636H207.905ZM228.112 636V615.84H241.132V619.004H231.486V623.974H239.452V627.138H231.486V632.836H241.132V636H228.112ZM248.697 636L255.053 615.84H259.995L266.351 636H262.879L257.111 617.912H257.867L252.169 636H248.697ZM252.239 631.632V628.482H262.823V631.632H252.239ZM268.882 636V615.84H276.876C278.239 615.84 279.354 616.115 280.222 616.666C281.099 617.207 281.748 617.903 282.168 618.752C282.597 619.601 282.812 620.479 282.812 621.384C282.812 622.495 282.546 623.437 282.014 624.212C281.491 624.987 280.777 625.509 279.872 625.78V625.08C281.141 625.369 282.103 625.971 282.756 626.886C283.419 627.801 283.75 628.841 283.75 630.008C283.75 631.203 283.521 632.248 283.064 633.144C282.607 634.04 281.925 634.74 281.02 635.244C280.124 635.748 279.013 636 277.688 636H268.882ZM272.298 632.822H277.268C277.856 632.822 278.383 632.705 278.85 632.472C279.317 632.229 279.681 631.893 279.942 631.464C280.213 631.025 280.348 630.507 280.348 629.91C280.348 629.369 280.231 628.883 279.998 628.454C279.765 628.025 279.424 627.684 278.976 627.432C278.528 627.171 277.991 627.04 277.366 627.04H272.298V632.822ZM272.298 623.89H276.834C277.319 623.89 277.753 623.797 278.136 623.61C278.519 623.423 278.822 623.148 279.046 622.784C279.27 622.42 279.382 621.972 279.382 621.44C279.382 620.74 279.158 620.157 278.71 619.69C278.262 619.223 277.637 618.99 276.834 618.99H272.298V623.89ZM286.826 636V615.84H290.2V636H286.826ZM294.674 636V615.84H298.048V632.836H306.952V636H294.674ZM309.603 636V615.84H312.977V636H309.603ZM322.015 636V619.004H315.491V615.84H331.913V619.004H325.389V636H322.015ZM339.899 636V627.74L333.039 615.84H336.973L341.607 623.876L346.227 615.84H350.161L343.315 627.74V636H339.899ZM361.445 636V619.004H354.921V615.84H371.343V619.004H364.819V636H361.445ZM382.107 636.42C380.091 636.42 378.364 635.981 376.927 635.104C375.49 634.217 374.384 632.985 373.609 631.408C372.844 629.831 372.461 628.001 372.461 625.92C372.461 623.839 372.844 622.009 373.609 620.432C374.384 618.855 375.49 617.627 376.927 616.75C378.364 615.863 380.091 615.42 382.107 615.42C384.123 615.42 385.85 615.863 387.287 616.75C388.734 617.627 389.84 618.855 390.605 620.432C391.38 622.009 391.767 623.839 391.767 625.92C391.767 628.001 391.38 629.831 390.605 631.408C389.84 632.985 388.734 634.217 387.287 635.104C385.85 635.981 384.123 636.42 382.107 636.42ZM382.107 633.242C383.46 633.251 384.585 632.953 385.481 632.346C386.386 631.739 387.063 630.885 387.511 629.784C387.968 628.683 388.197 627.395 388.197 625.92C388.197 624.445 387.968 623.167 387.511 622.084C387.063 620.992 386.386 620.143 385.481 619.536C384.585 618.929 383.46 618.617 382.107 618.598C380.754 618.589 379.629 618.887 378.733 619.494C377.837 620.101 377.16 620.955 376.703 622.056C376.255 623.157 376.031 624.445 376.031 625.92C376.031 627.395 376.255 628.678 376.703 629.77C377.151 630.853 377.823 631.697 378.719 632.304C379.624 632.911 380.754 633.223 382.107 633.242ZM407.621 636.42C406.147 636.42 404.817 636.163 403.631 635.65C402.455 635.137 401.485 634.404 400.719 633.452C399.963 632.491 399.483 631.352 399.277 630.036L402.777 629.504C403.076 630.699 403.687 631.623 404.611 632.276C405.545 632.929 406.618 633.256 407.831 633.256C408.55 633.256 409.227 633.144 409.861 632.92C410.496 632.696 411.009 632.369 411.401 631.94C411.803 631.511 412.003 630.983 412.003 630.358C412.003 630.078 411.957 629.821 411.863 629.588C411.77 629.345 411.63 629.131 411.443 628.944C411.266 628.757 411.033 628.589 410.743 628.44C410.463 628.281 410.137 628.146 409.763 628.034L404.555 626.494C404.107 626.363 403.622 626.191 403.099 625.976C402.586 625.752 402.096 625.449 401.629 625.066C401.172 624.674 400.794 624.179 400.495 623.582C400.206 622.975 400.061 622.229 400.061 621.342C400.061 620.045 400.388 618.957 401.041 618.08C401.704 617.193 402.591 616.531 403.701 616.092C404.821 615.653 406.063 615.439 407.425 615.448C408.807 615.457 410.039 615.695 411.121 616.162C412.204 616.619 413.109 617.287 413.837 618.164C414.565 619.041 415.079 620.101 415.377 621.342L411.751 621.972C411.602 621.263 411.313 620.661 410.883 620.166C410.463 619.662 409.945 619.279 409.329 619.018C408.723 618.757 408.074 618.617 407.383 618.598C406.711 618.589 406.086 618.691 405.507 618.906C404.938 619.111 404.476 619.41 404.121 619.802C403.776 620.194 403.603 620.651 403.603 621.174C403.603 621.669 403.753 622.075 404.051 622.392C404.35 622.7 404.719 622.947 405.157 623.134C405.605 623.311 406.058 623.461 406.515 623.582L410.127 624.59C410.622 624.721 411.177 624.898 411.793 625.122C412.409 625.346 413.002 625.659 413.571 626.06C414.141 626.461 414.607 626.989 414.971 627.642C415.345 628.295 415.531 629.126 415.531 630.134C415.531 631.179 415.312 632.099 414.873 632.892C414.444 633.676 413.861 634.329 413.123 634.852C412.386 635.375 411.541 635.767 410.589 636.028C409.647 636.289 408.657 636.42 407.621 636.42ZM418.562 636V615.84H426.892C427.088 615.84 427.34 615.849 427.648 615.868C427.956 615.877 428.24 615.905 428.502 615.952C429.668 616.129 430.63 616.517 431.386 617.114C432.151 617.711 432.716 618.467 433.08 619.382C433.453 620.287 433.64 621.295 433.64 622.406C433.64 623.507 433.453 624.515 433.08 625.43C432.706 626.335 432.137 627.087 431.372 627.684C430.616 628.281 429.659 628.669 428.502 628.846C428.24 628.883 427.951 628.911 427.634 628.93C427.326 628.949 427.078 628.958 426.892 628.958H421.936V636H418.562ZM421.936 625.808H426.752C426.938 625.808 427.148 625.799 427.382 625.78C427.615 625.761 427.83 625.724 428.026 625.668C428.586 625.528 429.024 625.281 429.342 624.926C429.668 624.571 429.897 624.17 430.028 623.722C430.168 623.274 430.238 622.835 430.238 622.406C430.238 621.977 430.168 621.538 430.028 621.09C429.897 620.633 429.668 620.227 429.342 619.872C429.024 619.517 428.586 619.27 428.026 619.13C427.83 619.074 427.615 619.041 427.382 619.032C427.148 619.013 426.938 619.004 426.752 619.004H421.936V625.808ZM436.444 636V615.84H449.464V619.004H439.818V623.974H447.784V627.138H439.818V632.836H449.464V636H436.444ZM451.423 636L457.779 615.84H462.721L469.077 636H465.605L459.837 617.912H460.593L454.895 636H451.423ZM454.965 631.632V628.482H465.549V631.632H454.965ZM471.608 636V615.84H474.982V625.192L483.032 615.84H487.176L478.51 625.724L487.764 636H483.48L474.982 626.592V636H471.608Z" fill="white"></path> <circle cx="300" cy="448" r="60" fill="#F9F9F9"></circle> <path d="M288.777 461.51C286.329 461.51 284.232 460.977 282.487 459.912C280.742 458.835 279.399 457.339 278.458 455.424C277.529 453.509 277.064 451.287 277.064 448.76C277.064 446.233 277.529 444.011 278.458 442.096C279.399 440.181 280.742 438.69 282.487 437.625C284.232 436.548 286.329 436.01 288.777 436.01C291.225 436.01 293.322 436.548 295.067 437.625C296.824 438.69 298.167 440.181 299.096 442.096C300.037 444.011 300.507 446.233 300.507 448.76C300.507 451.287 300.037 453.509 299.096 455.424C298.167 457.339 296.824 458.835 295.067 459.912C293.322 460.977 291.225 461.51 288.777 461.51ZM288.777 457.651C290.42 457.662 291.786 457.3 292.874 456.563C293.973 455.826 294.795 454.789 295.339 453.452C295.894 452.115 296.172 450.551 296.172 448.76C296.172 446.969 295.894 445.417 295.339 444.102C294.795 442.776 293.973 441.745 292.874 441.008C291.786 440.271 290.42 439.892 288.777 439.869C287.134 439.858 285.768 440.22 284.68 440.957C283.592 441.694 282.77 442.731 282.215 444.068C281.671 445.405 281.399 446.969 281.399 448.76C281.399 450.551 281.671 452.109 282.215 453.435C282.759 454.75 283.575 455.775 284.663 456.512C285.762 457.249 287.134 457.628 288.777 457.651ZM303.891 461V436.52H314.006C314.244 436.52 314.55 436.531 314.924 436.554C315.298 436.565 315.643 436.599 315.961 436.656C317.377 436.871 318.545 437.342 319.463 438.067C320.392 438.792 321.078 439.71 321.52 440.821C321.973 441.92 322.2 443.144 322.2 444.493C322.2 446.488 321.695 448.205 320.687 449.644C319.678 451.072 318.131 451.956 316.046 452.296L314.295 452.449H307.988V461H303.891ZM317.95 461L313.122 451.038L317.287 450.12L322.591 461H317.95ZM307.988 448.624H313.836C314.062 448.624 314.317 448.613 314.601 448.59C314.884 448.567 315.145 448.522 315.383 448.454C316.063 448.284 316.595 447.984 316.981 447.553C317.377 447.122 317.655 446.635 317.814 446.091C317.984 445.547 318.069 445.014 318.069 444.493C318.069 443.972 317.984 443.439 317.814 442.895C317.655 442.34 317.377 441.847 316.981 441.416C316.595 440.985 316.063 440.685 315.383 440.515C315.145 440.447 314.884 440.407 314.601 440.396C314.317 440.373 314.062 440.362 313.836 440.362H307.988V448.624Z" fill="#3E1BC9"></path> </svg> 