<?xml version="1.0" encoding="UTF-8"?> <svg xmlns="http://www.w3.org/2000/svg" width="600" height="775" viewBox="0 0 600 775" fill="none"> <rect width="600" height="775" rx="20" fill="#F9F9F9"></rect> <path d="M129.614 73L122.457 48.52H126.758L131.637 66.2L136.499 48.554L140.8 48.52L145.679 66.2L150.541 48.52H154.842L147.702 73H143.656L138.641 55.592L133.66 73H129.614ZM167.305 73.51C164.857 73.51 162.761 72.9773 161.015 71.912C159.27 70.8353 157.927 69.3393 156.986 67.424C156.057 65.5087 155.592 63.2873 155.592 60.76C155.592 58.2327 156.057 56.0113 156.986 54.096C157.927 52.1807 159.27 50.6903 161.015 49.625C162.761 48.5483 164.857 48.01 167.305 48.01C169.753 48.01 171.85 48.5483 173.595 49.625C175.352 50.6903 176.695 52.1807 177.624 54.096C178.565 56.0113 179.035 58.2327 179.035 60.76C179.035 63.2873 178.565 65.5087 177.624 67.424C176.695 69.3393 175.352 70.8353 173.595 71.912C171.85 72.9773 169.753 73.51 167.305 73.51ZM167.305 69.651C168.949 69.6623 170.314 69.2997 171.402 68.563C172.502 67.8263 173.323 66.7893 173.867 65.452C174.423 64.1147 174.7 62.5507 174.7 60.76C174.7 58.9693 174.423 57.4167 173.867 56.102C173.323 54.776 172.502 53.7447 171.402 53.008C170.314 52.2713 168.949 51.8917 167.305 51.869C165.662 51.8577 164.296 52.2203 163.208 52.957C162.12 53.6937 161.299 54.7307 160.743 56.068C160.199 57.4053 159.927 58.9693 159.927 60.76C159.927 62.5507 160.199 64.109 160.743 65.435C161.287 66.7497 162.103 67.7753 163.191 68.512C164.291 69.2487 165.662 69.6283 167.305 69.651ZM192.279 73.51C190.33 73.51 188.613 73.1133 187.128 72.32C185.655 71.5267 184.499 70.4103 183.66 68.971C182.833 67.5317 182.419 65.843 182.419 63.905V48.554L186.567 48.52V63.803C186.567 64.721 186.72 65.5427 187.026 66.268C187.343 66.9933 187.768 67.611 188.301 68.121C188.834 68.6197 189.446 68.9993 190.137 69.26C190.828 69.5207 191.542 69.651 192.279 69.651C193.038 69.651 193.758 69.5207 194.438 69.26C195.129 68.988 195.741 68.6027 196.274 68.104C196.807 67.594 197.226 66.9763 197.532 66.251C197.838 65.5257 197.991 64.7097 197.991 63.803V48.52H202.139V63.905C202.139 65.843 201.72 67.5317 200.881 68.971C200.054 70.4103 198.898 71.5267 197.413 72.32C195.94 73.1133 194.228 73.51 192.279 73.51ZM207.23 73V48.52H211.327V69.158H222.139V73H207.23ZM225.019 73V48.52H232.822C233.026 48.52 233.428 48.5257 234.029 48.537C234.641 48.5483 235.23 48.588 235.797 48.656C237.735 48.9053 239.372 49.5967 240.71 50.73C242.058 51.852 243.078 53.2857 243.77 55.031C244.461 56.7763 244.807 58.686 244.807 60.76C244.807 62.834 244.461 64.7437 243.77 66.489C243.078 68.2343 242.058 69.6737 240.71 70.807C239.372 71.929 237.735 72.6147 235.797 72.864C235.241 72.932 234.658 72.9717 234.046 72.983C233.434 72.9943 233.026 73 232.822 73H225.019ZM229.184 69.141H232.822C233.162 69.141 233.592 69.1297 234.114 69.107C234.646 69.0843 235.117 69.0333 235.525 68.954C236.681 68.7387 237.621 68.223 238.347 67.407C239.072 66.591 239.605 65.5993 239.945 64.432C240.296 63.2647 240.472 62.0407 240.472 60.76C240.472 59.434 240.296 58.1873 239.945 57.02C239.593 55.8527 239.049 54.8723 238.313 54.079C237.587 53.2857 236.658 52.7813 235.525 52.566C235.117 52.4753 234.646 52.4243 234.114 52.413C233.592 52.3903 233.162 52.379 232.822 52.379H229.184V69.141ZM261.582 73V62.97L253.252 48.52H258.029L263.656 58.278L269.266 48.52H274.043L265.73 62.97V73H261.582ZM285.409 73.51C282.961 73.51 280.864 72.9773 279.119 71.912C277.373 70.8353 276.03 69.3393 275.09 67.424C274.16 65.5087 273.696 63.2873 273.696 60.76C273.696 58.2327 274.16 56.0113 275.09 54.096C276.03 52.1807 277.373 50.6903 279.119 49.625C280.864 48.5483 282.961 48.01 285.409 48.01C287.857 48.01 289.953 48.5483 291.699 49.625C293.455 50.6903 294.798 52.1807 295.728 54.096C296.668 56.0113 297.139 58.2327 297.139 60.76C297.139 63.2873 296.668 65.5087 295.728 67.424C294.798 69.3393 293.455 70.8353 291.699 71.912C289.953 72.9773 287.857 73.51 285.409 73.51ZM285.409 69.651C287.052 69.6623 288.418 69.2997 289.506 68.563C290.605 67.8263 291.427 66.7893 291.971 65.452C292.526 64.1147 292.804 62.5507 292.804 60.76C292.804 58.9693 292.526 57.4167 291.971 56.102C291.427 54.776 290.605 53.7447 289.506 53.008C288.418 52.2713 287.052 51.8917 285.409 51.869C283.765 51.8577 282.4 52.2203 281.312 52.957C280.224 53.6937 279.402 54.7307 278.847 56.068C278.303 57.4053 278.031 58.9693 278.031 60.76C278.031 62.5507 278.303 64.109 278.847 65.435C279.391 66.7497 280.207 67.7753 281.295 68.512C282.394 69.2487 283.765 69.6283 285.409 69.651ZM310.383 73.51C308.433 73.51 306.716 73.1133 305.232 72.32C303.758 71.5267 302.602 70.4103 301.764 68.971C300.936 67.5317 300.523 65.843 300.523 63.905V48.554L304.671 48.52V63.803C304.671 64.721 304.824 65.5427 305.13 66.268C305.447 66.9933 305.872 67.611 306.405 68.121C306.937 68.6197 307.549 68.9993 308.241 69.26C308.932 69.5207 309.646 69.651 310.383 69.651C311.142 69.651 311.862 69.5207 312.542 69.26C313.233 68.988 313.845 68.6027 314.378 68.104C314.91 67.594 315.33 66.9763 315.636 66.251C315.942 65.5257 316.095 64.7097 316.095 63.803V48.52H320.243V63.905C320.243 65.843 319.823 67.5317 318.985 68.971C318.157 70.4103 317.001 71.5267 315.517 72.32C314.043 73.1133 312.332 73.51 310.383 73.51ZM331.8 73V48.52H341.915C342.153 48.52 342.459 48.5313 342.833 48.554C343.207 48.5653 343.553 48.5993 343.87 48.656C345.287 48.8713 346.454 49.3417 347.372 50.067C348.301 50.7923 348.987 51.7103 349.429 52.821C349.882 53.9203 350.109 55.1443 350.109 56.493C350.109 58.4877 349.605 60.2047 348.596 61.644C347.587 63.072 346.04 63.956 343.955 64.296L342.204 64.449H335.897V73H331.8ZM345.859 73L341.031 63.038L345.196 62.12L350.5 73H345.859ZM335.897 60.624H341.745C341.972 60.624 342.227 60.6127 342.51 60.59C342.793 60.5673 343.054 60.522 343.292 60.454C343.972 60.284 344.505 59.9837 344.89 59.553C345.287 59.1223 345.564 58.635 345.723 58.091C345.893 57.547 345.978 57.0143 345.978 56.493C345.978 55.9717 345.893 55.439 345.723 54.895C345.564 54.3397 345.287 53.8467 344.89 53.416C344.505 52.9853 343.972 52.685 343.292 52.515C343.054 52.447 342.793 52.4073 342.51 52.396C342.227 52.3733 341.972 52.362 341.745 52.362H335.897V60.624ZM352.545 73L360.263 48.52H366.264L373.982 73H369.766L362.762 51.036H363.68L356.761 73H352.545ZM356.846 67.696V63.871H369.698V67.696H356.846ZM380.912 73V52.362H372.99V48.52H392.931V52.362H385.009V73H380.912ZM395.65 73V48.52H399.747V58.822H411.341V48.52H415.421V73H411.341V62.664H399.747V73H395.65ZM420.187 73V48.52H435.997V52.362H424.284V58.397H433.957V62.239H424.284V69.158H435.997V73H420.187ZM440.075 73V48.52H450.19C450.428 48.52 450.734 48.5313 451.108 48.554C451.482 48.5653 451.828 48.5993 452.145 48.656C453.562 48.8713 454.729 49.3417 455.647 50.067C456.577 50.7923 457.262 51.7103 457.704 52.821C458.158 53.9203 458.384 55.1443 458.384 56.493C458.384 58.4877 457.88 60.2047 456.871 61.644C455.863 63.072 454.316 63.956 452.23 64.296L450.479 64.449H444.172V73H440.075ZM454.134 73L449.306 63.038L453.471 62.12L458.775 73H454.134ZM444.172 60.624H450.02C450.247 60.624 450.502 60.6127 450.785 60.59C451.069 60.5673 451.329 60.522 451.567 60.454C452.247 60.284 452.78 59.9837 453.165 59.553C453.562 59.1223 453.84 58.635 453.998 58.091C454.168 57.547 454.253 57.0143 454.253 56.493C454.253 55.9717 454.168 55.439 453.998 54.895C453.84 54.3397 453.562 53.8467 453.165 53.416C452.78 52.9853 452.247 52.685 451.567 52.515C451.329 52.447 451.069 52.4073 450.785 52.396C450.502 52.3733 450.247 52.362 450.02 52.362H444.172V60.624ZM466.958 66.353C466.958 65.571 467.031 64.8173 467.179 64.092C467.337 63.3553 467.592 62.6753 467.944 62.052C468.25 61.4513 468.59 60.9753 468.964 60.624C469.338 60.2613 469.757 59.9043 470.222 59.553C470.686 59.1903 471.202 58.7087 471.769 58.108C472.233 57.598 472.539 57.0937 472.687 56.595C472.834 56.085 472.908 55.541 472.908 54.963C472.908 54.589 472.868 54.2377 472.789 53.909C472.709 53.5803 472.568 53.297 472.364 53.059C472.046 52.6397 471.638 52.345 471.14 52.175C470.641 51.9937 470.108 51.903 469.542 51.903C469.077 51.903 468.629 51.9653 468.199 52.09C467.779 52.2033 467.422 52.3847 467.128 52.634C466.788 52.906 466.538 53.2403 466.38 53.637C466.221 54.0337 466.147 54.47 466.159 54.946H461.841C461.954 53.8127 462.26 52.7643 462.759 51.801C463.269 50.8263 463.937 50.05 464.765 49.472C465.411 48.996 466.136 48.639 466.941 48.401C467.757 48.163 468.573 48.044 469.389 48.044C470.635 48.044 471.808 48.2367 472.908 48.622C474.018 49.0073 474.942 49.642 475.679 50.526C476.189 51.104 476.574 51.7727 476.835 52.532C477.107 53.2913 477.243 54.062 477.243 54.844C477.243 56.0113 476.988 57.0767 476.478 58.04C475.979 59.0033 475.344 59.893 474.574 60.709C474.211 61.0943 473.865 61.4343 473.537 61.729C473.208 62.0237 472.902 62.3127 472.619 62.596C472.347 62.868 472.12 63.157 471.939 63.463C471.621 63.9957 471.434 64.449 471.378 64.823C471.321 65.1857 471.293 65.6957 471.293 66.353H466.958ZM466.992 73V68.495H471.293V73H466.992Z" fill="#3E1BC9"></path> <rect y="120" width="600" height="300" rx="20" fill="#3E1BC9"></rect> <path d="M100.212 261V240.84H108.206C109.569 240.84 110.684 241.115 111.552 241.666C112.429 242.207 113.078 242.903 113.498 243.752C113.927 244.601 114.142 245.479 114.142 246.384C114.142 247.495 113.876 248.437 113.344 249.212C112.821 249.987 112.107 250.509 111.202 250.78V250.08C112.471 250.369 113.433 250.971 114.086 251.886C114.749 252.801 115.08 253.841 115.08 255.008C115.08 256.203 114.851 257.248 114.394 258.144C113.937 259.04 113.255 259.74 112.35 260.244C111.454 260.748 110.343 261 109.018 261H100.212ZM103.628 257.822H108.598C109.186 257.822 109.713 257.705 110.18 257.472C110.647 257.229 111.011 256.893 111.272 256.464C111.543 256.025 111.678 255.507 111.678 254.91C111.678 254.369 111.561 253.883 111.328 253.454C111.095 253.025 110.754 252.684 110.306 252.432C109.858 252.171 109.321 252.04 108.696 252.04H103.628V257.822ZM103.628 248.89H108.164C108.649 248.89 109.083 248.797 109.466 248.61C109.849 248.423 110.152 248.148 110.376 247.784C110.6 247.42 110.712 246.972 110.712 246.44C110.712 245.74 110.488 245.157 110.04 244.69C109.592 244.223 108.967 243.99 108.164 243.99H103.628V248.89ZM117.876 261V240.84H130.896V244.004H121.25V248.974H129.216V252.138H121.25V257.836H130.896V261H117.876ZM138.46 261L144.816 240.84H149.758L156.114 261H152.642L146.874 242.912H147.63L141.932 261H138.46ZM142.002 256.632V253.482H152.586V256.632H142.002ZM158.926 261V240.84H162.3V257.836H171.204V261H158.926ZM175.589 261L169.695 240.84H173.237L177.255 255.4L181.259 240.868L184.801 240.84L188.819 255.4L192.823 240.84H196.365L190.485 261H187.153L183.023 246.664L178.921 261H175.589ZM195.281 261L201.637 240.84H206.579L212.935 261H209.463L203.695 242.912H204.451L198.753 261H195.281ZM198.823 256.632V253.482H209.407V256.632H198.823ZM218.698 261V252.74L211.838 240.84H215.772L220.406 248.876L225.026 240.84H228.96L222.114 252.74V261H218.698ZM237.529 261.42C236.055 261.42 234.725 261.163 233.539 260.65C232.363 260.137 231.393 259.404 230.627 258.452C229.871 257.491 229.391 256.352 229.185 255.036L232.685 254.504C232.984 255.699 233.595 256.623 234.519 257.276C235.453 257.929 236.526 258.256 237.739 258.256C238.458 258.256 239.135 258.144 239.769 257.92C240.404 257.696 240.917 257.369 241.309 256.94C241.711 256.511 241.911 255.983 241.911 255.358C241.911 255.078 241.865 254.821 241.771 254.588C241.678 254.345 241.538 254.131 241.351 253.944C241.174 253.757 240.941 253.589 240.651 253.44C240.371 253.281 240.045 253.146 239.671 253.034L234.463 251.494C234.015 251.363 233.53 251.191 233.007 250.976C232.494 250.752 232.004 250.449 231.537 250.066C231.08 249.674 230.702 249.179 230.403 248.582C230.114 247.975 229.969 247.229 229.969 246.342C229.969 245.045 230.296 243.957 230.949 243.08C231.612 242.193 232.499 241.531 233.609 241.092C234.729 240.653 235.971 240.439 237.333 240.448C238.715 240.457 239.947 240.695 241.029 241.162C242.112 241.619 243.017 242.287 243.745 243.164C244.473 244.041 244.987 245.101 245.285 246.342L241.659 246.972C241.51 246.263 241.221 245.661 240.791 245.166C240.371 244.662 239.853 244.279 239.237 244.018C238.631 243.757 237.982 243.617 237.291 243.598C236.619 243.589 235.994 243.691 235.415 243.906C234.846 244.111 234.384 244.41 234.029 244.802C233.684 245.194 233.511 245.651 233.511 246.174C233.511 246.669 233.661 247.075 233.959 247.392C234.258 247.7 234.627 247.947 235.065 248.134C235.513 248.311 235.966 248.461 236.423 248.582L240.035 249.59C240.53 249.721 241.085 249.898 241.701 250.122C242.317 250.346 242.91 250.659 243.479 251.06C244.049 251.461 244.515 251.989 244.879 252.642C245.253 253.295 245.439 254.126 245.439 255.134C245.439 256.179 245.22 257.099 244.781 257.892C244.352 258.676 243.769 259.329 243.031 259.852C242.294 260.375 241.449 260.767 240.497 261.028C239.555 261.289 238.565 261.42 237.529 261.42ZM261.537 261.42C260.063 261.42 258.733 261.163 257.547 260.65C256.371 260.137 255.401 259.404 254.635 258.452C253.879 257.491 253.399 256.352 253.193 255.036L256.693 254.504C256.992 255.699 257.603 256.623 258.527 257.276C259.461 257.929 260.534 258.256 261.747 258.256C262.466 258.256 263.143 258.144 263.777 257.92C264.412 257.696 264.925 257.369 265.317 256.94C265.719 256.511 265.919 255.983 265.919 255.358C265.919 255.078 265.873 254.821 265.779 254.588C265.686 254.345 265.546 254.131 265.359 253.944C265.182 253.757 264.949 253.589 264.659 253.44C264.379 253.281 264.053 253.146 263.679 253.034L258.471 251.494C258.023 251.363 257.538 251.191 257.015 250.976C256.502 250.752 256.012 250.449 255.545 250.066C255.088 249.674 254.71 249.179 254.411 248.582C254.122 247.975 253.977 247.229 253.977 246.342C253.977 245.045 254.304 243.957 254.957 243.08C255.62 242.193 256.507 241.531 257.617 241.092C258.737 240.653 259.979 240.439 261.341 240.448C262.723 240.457 263.955 240.695 265.037 241.162C266.12 241.619 267.025 242.287 267.753 243.164C268.481 244.041 268.995 245.101 269.293 246.342L265.667 246.972C265.518 246.263 265.229 245.661 264.799 245.166C264.379 244.662 263.861 244.279 263.245 244.018C262.639 243.757 261.99 243.617 261.299 243.598C260.627 243.589 260.002 243.691 259.423 243.906C258.854 244.111 258.392 244.41 258.037 244.802C257.692 245.194 257.519 245.651 257.519 246.174C257.519 246.669 257.669 247.075 257.967 247.392C258.266 247.7 258.635 247.947 259.073 248.134C259.521 248.311 259.974 248.461 260.431 248.582L264.043 249.59C264.538 249.721 265.093 249.898 265.709 250.122C266.325 250.346 266.918 250.659 267.487 251.06C268.057 251.461 268.523 251.989 268.887 252.642C269.261 253.295 269.447 254.126 269.447 255.134C269.447 256.179 269.228 257.099 268.789 257.892C268.36 258.676 267.777 259.329 267.039 259.852C266.302 260.375 265.457 260.767 264.505 261.028C263.563 261.289 262.573 261.42 261.537 261.42ZM277.322 261V244.004H270.798V240.84H287.22V244.004H280.696V261H277.322ZM297.578 261.42C295.973 261.42 294.559 261.093 293.336 260.44C292.123 259.787 291.171 258.867 290.48 257.682C289.799 256.497 289.458 255.106 289.458 253.51V240.868L292.874 240.84V253.426C292.874 254.182 293 254.859 293.252 255.456C293.513 256.053 293.863 256.562 294.302 256.982C294.741 257.393 295.245 257.705 295.814 257.92C296.383 258.135 296.971 258.242 297.578 258.242C298.203 258.242 298.796 258.135 299.356 257.92C299.925 257.696 300.429 257.379 300.868 256.968C301.307 256.548 301.652 256.039 301.904 255.442C302.156 254.845 302.282 254.173 302.282 253.426V240.84H305.698V253.51C305.698 255.106 305.353 256.497 304.662 257.682C303.981 258.867 303.029 259.787 301.806 260.44C300.593 261.093 299.183 261.42 297.578 261.42ZM318.136 261.42C316.12 261.42 314.394 260.981 312.956 260.104C311.519 259.217 310.413 257.985 309.638 256.408C308.873 254.831 308.49 253.001 308.49 250.92C308.49 248.839 308.873 247.009 309.638 245.432C310.413 243.855 311.519 242.627 312.956 241.75C314.394 240.863 316.12 240.42 318.136 240.42C320.46 240.42 322.397 241.003 323.946 242.17C325.496 243.327 326.583 244.891 327.208 246.86L323.806 247.798C323.414 246.482 322.747 245.455 321.804 244.718C320.862 243.971 319.639 243.598 318.136 243.598C316.783 243.598 315.654 243.901 314.748 244.508C313.852 245.115 313.176 245.969 312.718 247.07C312.27 248.162 312.042 249.445 312.032 250.92C312.032 252.395 312.256 253.683 312.704 254.784C313.162 255.876 313.843 256.725 314.748 257.332C315.654 257.939 316.783 258.242 318.136 258.242C319.639 258.242 320.862 257.869 321.804 257.122C322.747 256.375 323.414 255.349 323.806 254.042L327.208 254.98C326.583 256.949 325.496 258.517 323.946 259.684C322.397 260.841 320.46 261.42 318.136 261.42ZM330.282 261V240.84H333.656V250.192L341.706 240.84H345.85L337.184 250.724L346.438 261H342.154L333.656 251.592V261H330.282ZM353.75 261V240.84H357.124V261H353.75ZM361.317 261V240.84H364.733L374.085 255.05V240.84H377.501V261H374.085L364.733 246.79V261H361.317ZM391.865 261V244.004H385.341V240.84H401.763V244.004H395.239V261H391.865ZM404.001 261V240.84H412.331C412.527 240.84 412.779 240.849 413.087 240.868C413.395 240.877 413.68 240.905 413.941 240.952C415.108 241.129 416.069 241.517 416.825 242.114C417.59 242.711 418.155 243.467 418.519 244.382C418.892 245.287 419.079 246.295 419.079 247.406C419.079 249.049 418.664 250.463 417.833 251.648C417.002 252.824 415.728 253.552 414.011 253.832L412.569 253.958H407.375V261H404.001ZM415.579 261L411.603 252.796L415.033 252.04L419.401 261H415.579ZM407.375 250.808H412.191C412.378 250.808 412.588 250.799 412.821 250.78C413.054 250.761 413.269 250.724 413.465 250.668C414.025 250.528 414.464 250.281 414.781 249.926C415.108 249.571 415.336 249.17 415.467 248.722C415.607 248.274 415.677 247.835 415.677 247.406C415.677 246.977 415.607 246.538 415.467 246.09C415.336 245.633 415.108 245.227 414.781 244.872C414.464 244.517 414.025 244.27 413.465 244.13C413.269 244.074 413.054 244.041 412.821 244.032C412.588 244.013 412.378 244.004 412.191 244.004H407.375V250.808ZM421.085 261L427.441 240.84H432.383L438.739 261H435.267L429.499 242.912H430.255L424.557 261H421.085ZM424.627 256.632V253.482H435.211V256.632H424.627ZM441.271 261V240.84H453.409V244.214H444.645V249.24H451.729V252.6H444.645V261H441.271ZM455.927 261V240.84H468.065V244.214H459.301V249.24H466.385V252.6H459.301V261H455.927ZM470.863 261V240.84H474.237V261H470.863ZM486.957 261.42C484.941 261.42 483.214 260.981 481.777 260.104C480.339 259.217 479.233 257.985 478.459 256.408C477.693 254.831 477.311 253.001 477.311 250.92C477.311 248.839 477.693 247.009 478.459 245.432C479.233 243.855 480.339 242.627 481.777 241.75C483.214 240.863 484.941 240.42 486.957 240.42C489.281 240.42 491.217 241.003 492.767 242.17C494.316 243.327 495.403 244.891 496.029 246.86L492.627 247.798C492.235 246.482 491.567 245.455 490.625 244.718C489.682 243.971 488.459 243.598 486.957 243.598C485.603 243.598 484.474 243.901 483.569 244.508C482.673 245.115 481.996 245.969 481.539 247.07C481.091 248.162 480.862 249.445 480.853 250.92C480.853 252.395 481.077 253.683 481.525 254.784C481.982 255.876 482.663 256.725 483.569 257.332C484.474 257.939 485.603 258.242 486.957 258.242C488.459 258.242 489.682 257.869 490.625 257.122C491.567 256.375 492.235 255.349 492.627 254.042L496.029 254.98C495.403 256.949 494.316 258.517 492.767 259.684C491.217 260.841 489.281 261.42 486.957 261.42ZM64.0225 300V279.84H72.0165C73.3792 279.84 74.4945 280.115 75.3625 280.666C76.2398 281.207 76.8885 281.903 77.3085 282.752C77.7378 283.601 77.9525 284.479 77.9525 285.384C77.9525 286.495 77.6865 287.437 77.1545 288.212C76.6318 288.987 75.9178 289.509 75.0125 289.78V289.08C76.2818 289.369 77.2432 289.971 77.8965 290.886C78.5592 291.801 78.8905 292.841 78.8905 294.008C78.8905 295.203 78.6618 296.248 78.2045 297.144C77.7472 298.04 77.0658 298.74 76.1605 299.244C75.2645 299.748 74.1538 300 72.8285 300H64.0225ZM67.4385 296.822H72.4085C72.9965 296.822 73.5238 296.705 73.9905 296.472C74.4572 296.229 74.8212 295.893 75.0825 295.464C75.3532 295.025 75.4885 294.507 75.4885 293.91C75.4885 293.369 75.3718 292.883 75.1385 292.454C74.9052 292.025 74.5645 291.684 74.1165 291.432C73.6685 291.171 73.1318 291.04 72.5065 291.04H67.4385V296.822ZM67.4385 287.89H71.9745C72.4598 287.89 72.8938 287.797 73.2765 287.61C73.6592 287.423 73.9625 287.148 74.1865 286.784C74.4105 286.42 74.5225 285.972 74.5225 285.44C74.5225 284.74 74.2985 284.157 73.8505 283.69C73.4025 283.223 72.7772 282.99 71.9745 282.99H67.4385V287.89ZM89.8066 300.42C88.2012 300.42 86.7872 300.093 85.5646 299.44C84.3512 298.787 83.3992 297.867 82.7086 296.682C82.0272 295.497 81.6866 294.106 81.6866 292.51V279.868L85.1026 279.84V292.426C85.1026 293.182 85.2286 293.859 85.4806 294.456C85.7419 295.053 86.0919 295.562 86.5306 295.982C86.9692 296.393 87.4732 296.705 88.0426 296.92C88.6119 297.135 89.1999 297.242 89.8066 297.242C90.4319 297.242 91.0246 297.135 91.5846 296.92C92.1539 296.696 92.6579 296.379 93.0966 295.968C93.5352 295.548 93.8806 295.039 94.1326 294.442C94.3846 293.845 94.5106 293.173 94.5106 292.426V279.84H97.9266V292.51C97.9266 294.106 97.5812 295.497 96.8906 296.682C96.2092 297.867 95.2572 298.787 94.0346 299.44C92.8212 300.093 91.4119 300.42 89.8066 300.42ZM106.683 300V283.004H100.159V279.84H116.581V283.004H110.057V300H106.683ZM123.577 300V279.84H135.715V283.214H126.951V288.24H134.035V291.6H126.951V300H123.577ZM138.513 300V279.84H141.887V300H138.513ZM146.081 300V279.84H149.497L158.849 294.05V279.84H162.265V300H158.849L149.497 285.79V300H146.081ZM166.179 300V279.84H172.605C172.773 279.84 173.104 279.845 173.599 279.854C174.103 279.863 174.588 279.896 175.055 279.952C176.651 280.157 177.999 280.727 179.101 281.66C180.211 282.584 181.051 283.765 181.621 285.202C182.19 286.639 182.475 288.212 182.475 289.92C182.475 291.628 182.19 293.201 181.621 294.638C181.051 296.075 180.211 297.261 179.101 298.194C177.999 299.118 176.651 299.683 175.055 299.888C174.597 299.944 174.117 299.977 173.613 299.986C173.109 299.995 172.773 300 172.605 300H166.179ZM169.609 296.822H172.605C172.885 296.822 173.239 296.813 173.669 296.794C174.107 296.775 174.495 296.733 174.831 296.668C175.783 296.491 176.557 296.066 177.155 295.394C177.752 294.722 178.191 293.905 178.471 292.944C178.76 291.983 178.905 290.975 178.905 289.92C178.905 288.828 178.76 287.801 178.471 286.84C178.181 285.879 177.733 285.071 177.127 284.418C176.529 283.765 175.764 283.349 174.831 283.172C174.495 283.097 174.107 283.055 173.669 283.046C173.239 283.027 172.885 283.018 172.605 283.018H169.609V296.822ZM189.99 300L196.346 279.84H201.288L207.644 300H204.172L198.404 281.912H199.16L193.462 300H189.99ZM193.532 295.632V292.482H204.116V295.632H193.532ZM215.78 300V279.84H224.11C224.306 279.84 224.558 279.849 224.866 279.868C225.174 279.877 225.459 279.905 225.72 279.952C226.887 280.129 227.848 280.517 228.604 281.114C229.37 281.711 229.934 282.467 230.298 283.382C230.672 284.287 230.858 285.295 230.858 286.406C230.858 287.507 230.672 288.515 230.298 289.43C229.925 290.335 229.356 291.087 228.59 291.684C227.834 292.281 226.878 292.669 225.72 292.846C225.459 292.883 225.17 292.911 224.852 292.93C224.544 292.949 224.297 292.958 224.11 292.958H219.154V300H215.78ZM219.154 289.808H223.97C224.157 289.808 224.367 289.799 224.6 289.78C224.834 289.761 225.048 289.724 225.244 289.668C225.804 289.528 226.243 289.281 226.56 288.926C226.887 288.571 227.116 288.17 227.246 287.722C227.386 287.274 227.456 286.835 227.456 286.406C227.456 285.977 227.386 285.538 227.246 285.09C227.116 284.633 226.887 284.227 226.56 283.872C226.243 283.517 225.804 283.27 225.244 283.13C225.048 283.074 224.834 283.041 224.6 283.032C224.367 283.013 224.157 283.004 223.97 283.004H219.154V289.808ZM233.663 300V279.84H246.683V283.004H237.037V287.974H245.003V291.138H237.037V296.836H246.683V300H233.663ZM250.042 300V279.84H258.372C258.568 279.84 258.82 279.849 259.128 279.868C259.436 279.877 259.721 279.905 259.982 279.952C261.149 280.129 262.11 280.517 262.866 281.114C263.631 281.711 264.196 282.467 264.56 283.382C264.933 284.287 265.12 285.295 265.12 286.406C265.12 288.049 264.705 289.463 263.874 290.648C263.043 291.824 261.769 292.552 260.052 292.832L258.61 292.958H253.416V300H250.042ZM261.62 300L257.644 291.796L261.074 291.04L265.442 300H261.62ZM253.416 289.808H258.232C258.419 289.808 258.629 289.799 258.862 289.78C259.095 289.761 259.31 289.724 259.506 289.668C260.066 289.528 260.505 289.281 260.822 288.926C261.149 288.571 261.377 288.17 261.508 287.722C261.648 287.274 261.718 286.835 261.718 286.406C261.718 285.977 261.648 285.538 261.508 285.09C261.377 284.633 261.149 284.227 260.822 283.872C260.505 283.517 260.066 283.27 259.506 283.13C259.31 283.074 259.095 283.041 258.862 283.032C258.629 283.013 258.419 283.004 258.232 283.004H253.416V289.808ZM268.526 300V279.84H280.664V283.214H271.9V288.24H278.984V291.6H271.9V300H268.526ZM283.183 300V279.84H296.203V283.004H286.557V287.974H294.523V291.138H286.557V296.836H296.203V300H283.183ZM307.377 300.42C305.361 300.42 303.634 299.981 302.197 299.104C300.759 298.217 299.653 296.985 298.879 295.408C298.113 293.831 297.731 292.001 297.731 289.92C297.731 287.839 298.113 286.009 298.879 284.432C299.653 282.855 300.759 281.627 302.197 280.75C303.634 279.863 305.361 279.42 307.377 279.42C309.701 279.42 311.637 280.003 313.187 281.17C314.736 282.327 315.823 283.891 316.449 285.86L313.047 286.798C312.655 285.482 311.987 284.455 311.045 283.718C310.102 282.971 308.879 282.598 307.377 282.598C306.023 282.598 304.894 282.901 303.989 283.508C303.093 284.115 302.416 284.969 301.959 286.07C301.511 287.162 301.282 288.445 301.273 289.92C301.273 291.395 301.497 292.683 301.945 293.784C302.402 294.876 303.083 295.725 303.989 296.332C304.894 296.939 306.023 297.242 307.377 297.242C308.879 297.242 310.102 296.869 311.045 296.122C311.987 295.375 312.655 294.349 313.047 293.042L316.449 293.98C315.823 295.949 314.736 297.517 313.187 298.684C311.637 299.841 309.701 300.42 307.377 300.42ZM324.367 300V283.004H317.843V279.84H334.265V283.004H327.741V300H324.367ZM341.261 300V279.84H349.591C349.787 279.84 350.039 279.849 350.347 279.868C350.655 279.877 350.939 279.905 351.201 279.952C352.367 280.129 353.329 280.517 354.085 281.114C354.85 281.711 355.415 282.467 355.779 283.382C356.152 284.287 356.339 285.295 356.339 286.406C356.339 287.507 356.152 288.515 355.779 289.43C355.405 290.335 354.836 291.087 354.071 291.684C353.315 292.281 352.358 292.669 351.201 292.846C350.939 292.883 350.65 292.911 350.333 292.93C350.025 292.949 349.777 292.958 349.591 292.958H344.635V300H341.261ZM344.635 289.808H349.451C349.637 289.808 349.847 289.799 350.081 289.78C350.314 289.761 350.529 289.724 350.725 289.668C351.285 289.528 351.723 289.281 352.041 288.926C352.367 288.571 352.596 288.17 352.727 287.722C352.867 287.274 352.937 286.835 352.937 286.406C352.937 285.977 352.867 285.538 352.727 285.09C352.596 284.633 352.367 284.227 352.041 283.872C351.723 283.517 351.285 283.27 350.725 283.13C350.529 283.074 350.314 283.041 350.081 283.032C349.847 283.013 349.637 283.004 349.451 283.004H344.635V289.808ZM356.349 300L362.705 279.84H367.647L374.003 300H370.531L364.763 281.912H365.519L359.821 300H356.349ZM359.891 295.632V292.482H370.475V295.632H359.891ZM376.534 300V279.84H384.864C385.06 279.84 385.312 279.849 385.62 279.868C385.928 279.877 386.213 279.905 386.474 279.952C387.641 280.129 388.602 280.517 389.358 281.114C390.124 281.711 390.688 282.467 391.052 283.382C391.426 284.287 391.612 285.295 391.612 286.406C391.612 288.049 391.197 289.463 390.366 290.648C389.536 291.824 388.262 292.552 386.544 292.832L385.102 292.958H379.908V300H376.534ZM388.112 300L384.136 291.796L387.566 291.04L391.934 300H388.112ZM379.908 289.808H384.724C384.911 289.808 385.121 289.799 385.354 289.78C385.588 289.761 385.802 289.724 385.998 289.668C386.558 289.528 386.997 289.281 387.314 288.926C387.641 288.571 387.87 288.17 388 287.722C388.14 287.274 388.21 286.835 388.21 286.406C388.21 285.977 388.14 285.538 388 285.09C387.87 284.633 387.641 284.227 387.314 283.872C386.997 283.517 386.558 283.27 385.998 283.13C385.802 283.074 385.588 283.041 385.354 283.032C385.121 283.013 384.911 283.004 384.724 283.004H379.908V289.808ZM395.019 300V279.84H398.393V289.192L406.443 279.84H410.587L401.921 289.724L411.175 300H406.891L398.393 290.592V300H395.019ZM413.428 300V279.84H416.802V300H413.428ZM420.995 300V279.84H424.411L433.763 294.05V279.84H437.179V300H433.763L424.411 285.79V300H420.995ZM449.409 300.42C448.102 300.42 446.875 300.191 445.727 299.734C444.588 299.267 443.585 298.586 442.717 297.69C441.858 296.794 441.186 295.697 440.701 294.4C440.215 293.093 439.973 291.6 439.973 289.92C439.973 287.717 440.383 285.837 441.205 284.278C442.026 282.71 443.151 281.511 444.579 280.68C446.007 279.84 447.617 279.42 449.409 279.42C451.891 279.42 453.856 279.999 455.303 281.156C456.759 282.304 457.743 283.919 458.257 286L454.813 286.546C454.43 285.351 453.805 284.399 452.937 283.69C452.069 282.971 450.963 282.612 449.619 282.612C448.265 282.593 447.141 282.887 446.245 283.494C445.349 284.101 444.672 284.955 444.215 286.056C443.767 287.157 443.543 288.445 443.543 289.92C443.543 291.395 443.767 292.678 444.215 293.77C444.663 294.853 445.335 295.697 446.231 296.304C447.136 296.911 448.265 297.223 449.619 297.242C450.636 297.251 451.527 297.069 452.293 296.696C453.058 296.313 453.683 295.739 454.169 294.974C454.654 294.199 454.981 293.233 455.149 292.076H451.593V289.43H458.733C458.751 289.579 458.765 289.799 458.775 290.088C458.784 290.377 458.789 290.55 458.789 290.606C458.789 292.51 458.411 294.204 457.655 295.688C456.908 297.163 455.835 298.32 454.435 299.16C453.035 300 451.359 300.42 449.409 300.42ZM474.668 300.42C473.193 300.42 471.863 300.163 470.678 299.65C469.502 299.137 468.531 298.404 467.766 297.452C467.01 296.491 466.529 295.352 466.324 294.036L469.824 293.504C470.123 294.699 470.734 295.623 471.658 296.276C472.591 296.929 473.665 297.256 474.878 297.256C475.597 297.256 476.273 297.144 476.908 296.92C477.543 296.696 478.056 296.369 478.448 295.94C478.849 295.511 479.05 294.983 479.05 294.358C479.05 294.078 479.003 293.821 478.91 293.588C478.817 293.345 478.677 293.131 478.49 292.944C478.313 292.757 478.079 292.589 477.79 292.44C477.51 292.281 477.183 292.146 476.81 292.034L471.602 290.494C471.154 290.363 470.669 290.191 470.146 289.976C469.633 289.752 469.143 289.449 468.676 289.066C468.219 288.674 467.841 288.179 467.542 287.582C467.253 286.975 467.108 286.229 467.108 285.342C467.108 284.045 467.435 282.957 468.088 282.08C468.751 281.193 469.637 280.531 470.748 280.092C471.868 279.653 473.109 279.439 474.472 279.448C475.853 279.457 477.085 279.695 478.168 280.162C479.251 280.619 480.156 281.287 480.884 282.164C481.612 283.041 482.125 284.101 482.424 285.342L478.798 285.972C478.649 285.263 478.359 284.661 477.93 284.166C477.51 283.662 476.992 283.279 476.376 283.018C475.769 282.757 475.121 282.617 474.43 282.598C473.758 282.589 473.133 282.691 472.554 282.906C471.985 283.111 471.523 283.41 471.168 283.802C470.823 284.194 470.65 284.651 470.65 285.174C470.65 285.669 470.799 286.075 471.098 286.392C471.397 286.7 471.765 286.947 472.204 287.134C472.652 287.311 473.105 287.461 473.562 287.582L477.174 288.59C477.669 288.721 478.224 288.898 478.84 289.122C479.456 289.346 480.049 289.659 480.618 290.06C481.187 290.461 481.654 290.989 482.018 291.642C482.391 292.295 482.578 293.126 482.578 294.134C482.578 295.179 482.359 296.099 481.92 296.892C481.491 297.676 480.907 298.329 480.17 298.852C479.433 299.375 478.588 299.767 477.636 300.028C476.693 300.289 475.704 300.42 474.668 300.42ZM485.608 300V279.84H493.938C494.134 279.84 494.386 279.849 494.694 279.868C495.002 279.877 495.287 279.905 495.548 279.952C496.715 280.129 497.676 280.517 498.432 281.114C499.198 281.711 499.762 282.467 500.126 283.382C500.5 284.287 500.686 285.295 500.686 286.406C500.686 287.507 500.5 288.515 500.126 289.43C499.753 290.335 499.184 291.087 498.418 291.684C497.662 292.281 496.706 292.669 495.548 292.846C495.287 292.883 494.998 292.911 494.68 292.93C494.372 292.949 494.125 292.958 493.938 292.958H488.982V300H485.608ZM488.982 289.808H493.798C493.985 289.808 494.195 289.799 494.428 289.78C494.662 289.761 494.876 289.724 495.072 289.668C495.632 289.528 496.071 289.281 496.388 288.926C496.715 288.571 496.944 288.17 497.074 287.722C497.214 287.274 497.284 286.835 497.284 286.406C497.284 285.977 497.214 285.538 497.074 285.09C496.944 284.633 496.715 284.227 496.388 283.872C496.071 283.517 495.632 283.27 495.072 283.13C494.876 283.074 494.662 283.041 494.428 283.032C494.195 283.013 493.985 283.004 493.798 283.004H488.982V289.808ZM512.017 300.42C510.001 300.42 508.275 299.981 506.837 299.104C505.4 298.217 504.294 296.985 503.519 295.408C502.754 293.831 502.371 292.001 502.371 289.92C502.371 287.839 502.754 286.009 503.519 284.432C504.294 282.855 505.4 281.627 506.837 280.75C508.275 279.863 510.001 279.42 512.017 279.42C514.033 279.42 515.76 279.863 517.197 280.75C518.644 281.627 519.75 282.855 520.515 284.432C521.29 286.009 521.677 287.839 521.677 289.92C521.677 292.001 521.29 293.831 520.515 295.408C519.75 296.985 518.644 298.217 517.197 299.104C515.76 299.981 514.033 300.42 512.017 300.42ZM512.017 297.242C513.371 297.251 514.495 296.953 515.391 296.346C516.297 295.739 516.973 294.885 517.421 293.784C517.879 292.683 518.107 291.395 518.107 289.92C518.107 288.445 517.879 287.167 517.421 286.084C516.973 284.992 516.297 284.143 515.391 283.536C514.495 282.929 513.371 282.617 512.017 282.598C510.664 282.589 509.539 282.887 508.643 283.494C507.747 284.101 507.071 284.955 506.613 286.056C506.165 287.157 505.941 288.445 505.941 289.92C505.941 291.395 506.165 292.678 506.613 293.77C507.061 294.853 507.733 295.697 508.629 296.304C509.535 296.911 510.664 297.223 512.017 297.242ZM528.761 300V283.004H522.237V279.84H538.659V283.004H532.135V300H528.761Z" fill="white"></path> <rect y="475" width="600" height="300" rx="20" fill="#0BA360"></rect> <path d="M86.6963 616V595.84H90.1123L99.4643 610.05V595.84H102.88V616H99.4643L90.1123 601.79V616H86.6963ZM106.794 616V595.84H119.814V599.004H110.168V603.974H118.134V607.138H110.168V612.836H119.814V616H106.794ZM127.709 616L121.353 595.84H124.825L130.145 612.724L135.535 595.84H139.007L132.651 616H127.709ZM141.11 616V595.84H154.13V599.004H144.484V603.974H152.45V607.138H144.484V612.836H154.13V616H141.11ZM157.489 616V595.84H165.819C166.015 595.84 166.267 595.849 166.575 595.868C166.883 595.877 167.168 595.905 167.429 595.952C168.596 596.129 169.557 596.517 170.313 597.114C171.079 597.711 171.643 598.467 172.007 599.382C172.381 600.287 172.567 601.295 172.567 602.406C172.567 604.049 172.152 605.463 171.321 606.648C170.491 607.824 169.217 608.552 167.499 608.832L166.057 608.958H160.863V616H157.489ZM169.067 616L165.091 607.796L168.521 607.04L172.889 616H169.067ZM160.863 605.808H165.679C165.866 605.808 166.076 605.799 166.309 605.78C166.543 605.761 166.757 605.724 166.953 605.668C167.513 605.528 167.952 605.281 168.269 604.926C168.596 604.571 168.825 604.17 168.955 603.722C169.095 603.274 169.165 602.835 169.165 602.406C169.165 601.977 169.095 601.538 168.955 601.09C168.825 600.633 168.596 600.227 168.269 599.872C167.952 599.517 167.513 599.27 166.953 599.13C166.757 599.074 166.543 599.041 166.309 599.032C166.076 599.013 165.866 599.004 165.679 599.004H160.863V605.808ZM181.579 616V595.84H184.953V604.324H194.501V595.84H197.861V616H194.501V607.488H184.953V616H181.579ZM202.066 616V595.84H205.44V616H202.066ZM214.478 616V599.004H207.954V595.84H224.376V599.004H217.852V616H214.478ZM236.216 616V599.004H229.692V595.84H246.114V599.004H239.59V616H236.216ZM248.353 616V595.84H256.683C256.879 595.84 257.131 595.849 257.439 595.868C257.747 595.877 258.031 595.905 258.293 595.952C259.459 596.129 260.421 596.517 261.177 597.114C261.942 597.711 262.507 598.467 262.871 599.382C263.244 600.287 263.431 601.295 263.431 602.406C263.431 604.049 263.015 605.463 262.185 606.648C261.354 607.824 260.08 608.552 258.363 608.832L256.921 608.958H251.727V616H248.353ZM259.931 616L255.955 607.796L259.385 607.04L263.753 616H259.931ZM251.727 605.808H256.543C256.729 605.808 256.939 605.799 257.173 605.78C257.406 605.761 257.621 605.724 257.817 605.668C258.377 605.528 258.815 605.281 259.133 604.926C259.459 604.571 259.688 604.17 259.819 603.722C259.959 603.274 260.029 602.835 260.029 602.406C260.029 601.977 259.959 601.538 259.819 601.09C259.688 600.633 259.459 600.227 259.133 599.872C258.815 599.517 258.377 599.27 257.817 599.13C257.621 599.074 257.406 599.041 257.173 599.032C256.939 599.013 256.729 599.004 256.543 599.004H251.727V605.808ZM265.437 616L271.793 595.84H276.735L283.091 616H279.619L273.851 597.912H274.607L268.909 616H265.437ZM268.979 611.632V608.482H279.563V611.632H268.979ZM285.622 616V595.84H297.76V599.214H288.996V604.24H296.08V607.6H288.996V616H285.622ZM300.278 616V595.84H312.416V599.214H303.652V604.24H310.736V607.6H303.652V616H300.278ZM315.215 616V595.84H318.589V616H315.215ZM331.308 616.42C329.292 616.42 327.566 615.981 326.128 615.104C324.691 614.217 323.585 612.985 322.81 611.408C322.045 609.831 321.662 608.001 321.662 605.92C321.662 603.839 322.045 602.009 322.81 600.432C323.585 598.855 324.691 597.627 326.128 596.75C327.566 595.863 329.292 595.42 331.308 595.42C333.632 595.42 335.569 596.003 337.118 597.17C338.668 598.327 339.755 599.891 340.38 601.86L336.978 602.798C336.586 601.482 335.919 600.455 334.976 599.718C334.034 598.971 332.811 598.598 331.308 598.598C329.955 598.598 328.826 598.901 327.92 599.508C327.024 600.115 326.348 600.969 325.89 602.07C325.442 603.162 325.214 604.445 325.204 605.92C325.204 607.395 325.428 608.683 325.876 609.784C326.334 610.876 327.015 611.725 327.92 612.332C328.826 612.939 329.955 613.242 331.308 613.242C332.811 613.242 334.034 612.869 334.976 612.122C335.919 611.375 336.586 610.349 336.978 609.042L340.38 609.98C339.755 611.949 338.668 613.517 337.118 614.684C335.569 615.841 333.632 616.42 331.308 616.42ZM349.06 616V595.84H357.054C358.416 595.84 359.532 596.115 360.4 596.666C361.277 597.207 361.926 597.903 362.346 598.752C362.775 599.601 362.99 600.479 362.99 601.384C362.99 602.495 362.724 603.437 362.192 604.212C361.669 604.987 360.955 605.509 360.05 605.78V605.08C361.319 605.369 362.28 605.971 362.934 606.886C363.596 607.801 363.928 608.841 363.928 610.008C363.928 611.203 363.699 612.248 363.242 613.144C362.784 614.04 362.103 614.74 361.198 615.244C360.302 615.748 359.191 616 357.866 616H349.06ZM352.476 612.822H357.446C358.034 612.822 358.561 612.705 359.028 612.472C359.494 612.229 359.858 611.893 360.12 611.464C360.39 611.025 360.526 610.507 360.526 609.91C360.526 609.369 360.409 608.883 360.176 608.454C359.942 608.025 359.602 607.684 359.154 607.432C358.706 607.171 358.169 607.04 357.544 607.04H352.476V612.822ZM352.476 603.89H357.012C357.497 603.89 357.931 603.797 358.314 603.61C358.696 603.423 359 603.148 359.224 602.784C359.448 602.42 359.56 601.972 359.56 601.44C359.56 600.74 359.336 600.157 358.888 599.69C358.44 599.223 357.814 598.99 357.012 598.99H352.476V603.89ZM374.844 616.42C373.238 616.42 371.824 616.093 370.602 615.44C369.388 614.787 368.436 613.867 367.746 612.682C367.064 611.497 366.724 610.106 366.724 608.51V595.868L370.14 595.84V608.426C370.14 609.182 370.266 609.859 370.518 610.456C370.779 611.053 371.129 611.562 371.568 611.982C372.006 612.393 372.51 612.705 373.08 612.92C373.649 613.135 374.237 613.242 374.844 613.242C375.469 613.242 376.062 613.135 376.622 612.92C377.191 612.696 377.695 612.379 378.134 611.968C378.572 611.548 378.918 611.039 379.17 610.442C379.422 609.845 379.548 609.173 379.548 608.426V595.84H382.964V608.51C382.964 610.106 382.618 611.497 381.928 612.682C381.246 613.867 380.294 614.787 379.072 615.44C377.858 616.093 376.449 616.42 374.844 616.42ZM391.72 616V599.004H385.196V595.84H401.618V599.004H395.094V616H391.72ZM407.214 616L413.57 595.84H418.512L424.868 616H421.396L415.628 597.912H416.384L410.686 616H407.214ZM410.756 611.632V608.482H421.34V611.632H410.756ZM427.679 616V595.84H431.053V612.836H439.957V616H427.679ZM444.343 616L438.449 595.84H441.991L446.009 610.4L450.013 595.868L453.555 595.84L457.573 610.4L461.577 595.84H465.119L459.239 616H455.907L451.777 601.664L447.675 616H444.343ZM464.035 616L470.391 595.84H475.333L481.689 616H478.217L472.449 597.912H473.205L467.507 616H464.035ZM467.577 611.632V608.482H478.161V611.632H467.577ZM487.452 616V607.74L480.592 595.84H484.526L489.16 603.876L493.78 595.84H497.714L490.868 607.74V616H487.452ZM506.283 616.42C504.809 616.42 503.479 616.163 502.293 615.65C501.117 615.137 500.147 614.404 499.381 613.452C498.625 612.491 498.145 611.352 497.939 610.036L501.439 609.504C501.738 610.699 502.349 611.623 503.273 612.276C504.207 612.929 505.28 613.256 506.493 613.256C507.212 613.256 507.889 613.144 508.523 612.92C509.158 612.696 509.671 612.369 510.063 611.94C510.465 611.511 510.665 610.983 510.665 610.358C510.665 610.078 510.619 609.821 510.525 609.588C510.432 609.345 510.292 609.131 510.105 608.944C509.928 608.757 509.695 608.589 509.405 608.44C509.125 608.281 508.799 608.146 508.425 608.034L503.217 606.494C502.769 606.363 502.284 606.191 501.761 605.976C501.248 605.752 500.758 605.449 500.291 605.066C499.834 604.674 499.456 604.179 499.157 603.582C498.868 602.975 498.723 602.229 498.723 601.342C498.723 600.045 499.05 598.957 499.703 598.08C500.366 597.193 501.253 596.531 502.363 596.092C503.483 595.653 504.725 595.439 506.087 595.448C507.469 595.457 508.701 595.695 509.783 596.162C510.866 596.619 511.771 597.287 512.499 598.164C513.227 599.041 513.741 600.101 514.039 601.342L510.413 601.972C510.264 601.263 509.975 600.661 509.545 600.166C509.125 599.662 508.607 599.279 507.991 599.018C507.385 598.757 506.736 598.617 506.045 598.598C505.373 598.589 504.748 598.691 504.169 598.906C503.6 599.111 503.138 599.41 502.783 599.802C502.438 600.194 502.265 600.651 502.265 601.174C502.265 601.669 502.415 602.075 502.713 602.392C503.012 602.7 503.381 602.947 503.819 603.134C504.267 603.311 504.72 603.461 505.177 603.582L508.789 604.59C509.284 604.721 509.839 604.898 510.455 605.122C511.071 605.346 511.664 605.659 512.233 606.06C512.803 606.461 513.269 606.989 513.633 607.642C514.007 608.295 514.193 609.126 514.193 610.134C514.193 611.179 513.974 612.099 513.535 612.892C513.106 613.676 512.523 614.329 511.785 614.852C511.048 615.375 510.203 615.767 509.251 616.028C508.309 616.289 507.319 616.42 506.283 616.42ZM146.966 655V638.004H140.442V634.84H156.864V638.004H150.34V655H146.966ZM157.156 655L163.512 634.84H168.454L174.81 655H171.338L165.57 636.912H166.326L160.628 655H157.156ZM160.698 650.632V647.482H171.282V650.632H160.698ZM177.341 655V634.84H180.715V644.192L188.765 634.84H192.909L184.243 644.724L193.497 655H189.213L180.715 645.592V655H177.341ZM195.47 655V634.84H208.49V638.004H198.844V642.974H206.81V646.138H198.844V651.836H208.49V655H195.47ZM217.454 655V634.84H229.592V638.214H220.828V643.24H227.912V646.6H220.828V655H217.454ZM240.636 655.42C238.62 655.42 236.894 654.981 235.456 654.104C234.019 653.217 232.913 651.985 232.138 650.408C231.373 648.831 230.99 647.001 230.99 644.92C230.99 642.839 231.373 641.009 232.138 639.432C232.913 637.855 234.019 636.627 235.456 635.75C236.894 634.863 238.62 634.42 240.636 634.42C242.652 634.42 244.379 634.863 245.816 635.75C247.263 636.627 248.369 637.855 249.134 639.432C249.909 641.009 250.296 642.839 250.296 644.92C250.296 647.001 249.909 648.831 249.134 650.408C248.369 651.985 247.263 653.217 245.816 654.104C244.379 654.981 242.652 655.42 240.636 655.42ZM240.636 652.242C241.99 652.251 243.114 651.953 244.01 651.346C244.916 650.739 245.592 649.885 246.04 648.784C246.498 647.683 246.726 646.395 246.726 644.92C246.726 643.445 246.498 642.167 246.04 641.084C245.592 639.992 244.916 639.143 244.01 638.536C243.114 637.929 241.99 637.617 240.636 637.598C239.283 637.589 238.158 637.887 237.262 638.494C236.366 639.101 235.69 639.955 235.232 641.056C234.784 642.157 234.56 643.445 234.56 644.92C234.56 646.395 234.784 647.678 235.232 648.77C235.68 649.853 236.352 650.697 237.248 651.304C238.154 651.911 239.283 652.223 240.636 652.242ZM253.083 655V634.84H261.413C261.609 634.84 261.861 634.849 262.169 634.868C262.477 634.877 262.762 634.905 263.023 634.952C264.19 635.129 265.151 635.517 265.907 636.114C266.672 636.711 267.237 637.467 267.601 638.382C267.974 639.287 268.161 640.295 268.161 641.406C268.161 643.049 267.746 644.463 266.915 645.648C266.084 646.824 264.81 647.552 263.093 647.832L261.651 647.958H256.457V655H253.083ZM264.661 655L260.685 646.796L264.115 646.04L268.483 655H264.661ZM256.457 644.808H261.273C261.46 644.808 261.67 644.799 261.903 644.78C262.136 644.761 262.351 644.724 262.547 644.668C263.107 644.528 263.546 644.281 263.863 643.926C264.19 643.571 264.418 643.17 264.549 642.722C264.689 642.274 264.759 641.835 264.759 641.406C264.759 640.977 264.689 640.538 264.549 640.09C264.418 639.633 264.19 639.227 263.863 638.872C263.546 638.517 263.107 638.27 262.547 638.13C262.351 638.074 262.136 638.041 261.903 638.032C261.67 638.013 261.46 638.004 261.273 638.004H256.457V644.808ZM271.567 655V634.84H284.587V638.004H274.941V642.974H282.907V646.138H274.941V651.836H284.587V655H271.567ZM292.482 655L286.126 634.84H289.598L294.918 651.724L300.308 634.84H303.78L297.424 655H292.482ZM305.884 655V634.84H318.904V638.004H309.258V642.974H317.224V646.138H309.258V651.836H318.904V655H305.884ZM322.263 655V634.84H330.593C330.789 634.84 331.041 634.849 331.349 634.868C331.657 634.877 331.941 634.905 332.203 634.952C333.369 635.129 334.331 635.517 335.087 636.114C335.852 636.711 336.417 637.467 336.781 638.382C337.154 639.287 337.341 640.295 337.341 641.406C337.341 643.049 336.925 644.463 336.095 645.648C335.264 646.824 333.99 647.552 332.273 647.832L330.831 647.958H325.637V655H322.263ZM333.841 655L329.865 646.796L333.295 646.04L337.663 655H333.841ZM325.637 644.808H330.453C330.639 644.808 330.849 644.799 331.083 644.78C331.316 644.761 331.531 644.724 331.727 644.668C332.287 644.528 332.725 644.281 333.043 643.926C333.369 643.571 333.598 643.17 333.729 642.722C333.869 642.274 333.939 641.835 333.939 641.406C333.939 640.977 333.869 640.538 333.729 640.09C333.598 639.633 333.369 639.227 333.043 638.872C332.725 638.517 332.287 638.27 331.727 638.13C331.531 638.074 331.316 638.041 331.083 638.032C330.849 638.013 330.639 638.004 330.453 638.004H325.637V644.808ZM351.197 655V638.004H344.673V634.84H361.095V638.004H354.571V655H351.197ZM371.859 655.42C369.843 655.42 368.116 654.981 366.679 654.104C365.242 653.217 364.136 651.985 363.361 650.408C362.596 648.831 362.213 647.001 362.213 644.92C362.213 642.839 362.596 641.009 363.361 639.432C364.136 637.855 365.242 636.627 366.679 635.75C368.116 634.863 369.843 634.42 371.859 634.42C373.875 634.42 375.602 634.863 377.039 635.75C378.486 636.627 379.592 637.855 380.357 639.432C381.132 641.009 381.519 642.839 381.519 644.92C381.519 647.001 381.132 648.831 380.357 650.408C379.592 651.985 378.486 653.217 377.039 654.104C375.602 654.981 373.875 655.42 371.859 655.42ZM371.859 652.242C373.212 652.251 374.337 651.953 375.233 651.346C376.138 650.739 376.815 649.885 377.263 648.784C377.72 647.683 377.949 646.395 377.949 644.92C377.949 643.445 377.72 642.167 377.263 641.084C376.815 639.992 376.138 639.143 375.233 638.536C374.337 637.929 373.212 637.617 371.859 637.598C370.506 637.589 369.381 637.887 368.485 638.494C367.589 639.101 366.912 639.955 366.455 641.056C366.007 642.157 365.783 643.445 365.783 644.92C365.783 646.395 366.007 647.678 366.455 648.77C366.903 649.853 367.575 650.697 368.471 651.304C369.376 651.911 370.506 652.223 371.859 652.242ZM389.911 655V634.84H398.241C398.437 634.84 398.689 634.849 398.997 634.868C399.305 634.877 399.59 634.905 399.851 634.952C401.018 635.129 401.979 635.517 402.735 636.114C403.501 636.711 404.065 637.467 404.429 638.382C404.803 639.287 404.989 640.295 404.989 641.406C404.989 642.507 404.803 643.515 404.429 644.43C404.056 645.335 403.487 646.087 402.721 646.684C401.965 647.281 401.009 647.669 399.851 647.846C399.59 647.883 399.301 647.911 398.983 647.93C398.675 647.949 398.428 647.958 398.241 647.958H393.285V655H389.911ZM393.285 644.808H398.101C398.288 644.808 398.498 644.799 398.731 644.78C398.965 644.761 399.179 644.724 399.375 644.668C399.935 644.528 400.374 644.281 400.691 643.926C401.018 643.571 401.247 643.17 401.377 642.722C401.517 642.274 401.587 641.835 401.587 641.406C401.587 640.977 401.517 640.538 401.377 640.09C401.247 639.633 401.018 639.227 400.691 638.872C400.374 638.517 399.935 638.27 399.375 638.13C399.179 638.074 398.965 638.041 398.731 638.032C398.498 638.013 398.288 638.004 398.101 638.004H393.285V644.808ZM404.999 655L411.355 634.84H416.297L422.653 655H419.181L413.413 636.912H414.169L408.471 655H404.999ZM408.541 650.632V647.482H419.125V650.632H408.541ZM425.185 655V634.84H433.515C433.711 634.84 433.963 634.849 434.271 634.868C434.579 634.877 434.863 634.905 435.125 634.952C436.291 635.129 437.253 635.517 438.009 636.114C438.774 636.711 439.339 637.467 439.703 638.382C440.076 639.287 440.263 640.295 440.263 641.406C440.263 643.049 439.847 644.463 439.017 645.648C438.186 646.824 436.912 647.552 435.195 647.832L433.753 647.958H428.559V655H425.185ZM436.763 655L432.787 646.796L436.217 646.04L440.585 655H436.763ZM428.559 644.808H433.375C433.561 644.808 433.771 644.799 434.005 644.78C434.238 644.761 434.453 644.724 434.649 644.668C435.209 644.528 435.647 644.281 435.965 643.926C436.291 643.571 436.52 643.17 436.651 642.722C436.791 642.274 436.861 641.835 436.861 641.406C436.861 640.977 436.791 640.538 436.651 640.09C436.52 639.633 436.291 639.227 435.965 638.872C435.647 638.517 435.209 638.27 434.649 638.13C434.453 638.074 434.238 638.041 434.005 638.032C433.771 638.013 433.561 638.004 433.375 638.004H428.559V644.808ZM443.669 655V634.84H447.043V644.192L455.093 634.84H459.237L450.571 644.724L459.825 655H455.541L447.043 645.592V655H443.669Z" fill="white"></path> <circle cx="300" cy="448" r="60" fill="#F9F9F9"></circle> <path d="M288.777 461.51C286.329 461.51 284.232 460.977 282.487 459.912C280.742 458.835 279.399 457.339 278.458 455.424C277.529 453.509 277.064 451.287 277.064 448.76C277.064 446.233 277.529 444.011 278.458 442.096C279.399 440.181 280.742 438.69 282.487 437.625C284.232 436.548 286.329 436.01 288.777 436.01C291.225 436.01 293.322 436.548 295.067 437.625C296.824 438.69 298.167 440.181 299.096 442.096C300.037 444.011 300.507 446.233 300.507 448.76C300.507 451.287 300.037 453.509 299.096 455.424C298.167 457.339 296.824 458.835 295.067 459.912C293.322 460.977 291.225 461.51 288.777 461.51ZM288.777 457.651C290.42 457.662 291.786 457.3 292.874 456.563C293.973 455.826 294.795 454.789 295.339 453.452C295.894 452.115 296.172 450.551 296.172 448.76C296.172 446.969 295.894 445.417 295.339 444.102C294.795 442.776 293.973 441.745 292.874 441.008C291.786 440.271 290.42 439.892 288.777 439.869C287.134 439.858 285.768 440.22 284.68 440.957C283.592 441.694 282.77 442.731 282.215 444.068C281.671 445.405 281.399 446.969 281.399 448.76C281.399 450.551 281.671 452.109 282.215 453.435C282.759 454.75 283.575 455.775 284.663 456.512C285.762 457.249 287.134 457.628 288.777 457.651ZM303.891 461V436.52H314.006C314.244 436.52 314.55 436.531 314.924 436.554C315.298 436.565 315.643 436.599 315.961 436.656C317.377 436.871 318.545 437.342 319.463 438.067C320.392 438.792 321.078 439.71 321.52 440.821C321.973 441.92 322.2 443.144 322.2 444.493C322.2 446.488 321.695 448.205 320.687 449.644C319.678 451.072 318.131 451.956 316.046 452.296L314.295 452.449H307.988V461H303.891ZM317.95 461L313.122 451.038L317.287 450.12L322.591 461H317.95ZM307.988 448.624H313.836C314.062 448.624 314.317 448.613 314.601 448.59C314.884 448.567 315.145 448.522 315.383 448.454C316.063 448.284 316.595 447.984 316.981 447.553C317.377 447.122 317.655 446.635 317.814 446.091C317.984 445.547 318.069 445.014 318.069 444.493C318.069 443.972 317.984 443.439 317.814 442.895C317.655 442.34 317.377 441.847 316.981 441.416C316.595 440.985 316.063 440.685 315.383 440.515C315.145 440.447 314.884 440.407 314.601 440.396C314.317 440.373 314.062 440.362 313.836 440.362H307.988V448.624Z" fill="#3E1BC9"></path> </svg> 