<?xml version="1.0" encoding="UTF-8"?> <svg xmlns="http://www.w3.org/2000/svg" width="400" height="600" viewBox="0 0 400 600" fill="none"><rect width="400" height="600" rx="20" fill="#7F3CC9"></rect><path d="M47.296 84.136L60.8 101H65.952V78.6H61.536V95.464L48.032 78.6H42.88V101H47.296V84.136ZM80.4918 97.768C77.4838 97.768 75.1478 96.456 74.5398 94.12H88.2998C88.4918 93.384 88.5878 92.648 88.5878 91.944C88.5878 87.624 84.9398 84.456 80.0758 84.456C74.7318 84.456 70.1878 87.656 70.1878 93C70.1878 97.8 74.1238 101.576 80.0758 101.576C83.0198 101.576 86.0278 100.584 88.1718 99.496L86.9237 96.168C84.6518 97.352 82.6678 97.768 80.4918 97.768ZM79.8198 88.008C82.3158 88.008 83.9158 89.128 84.3318 91.016H74.6358C75.2758 89.064 77.0677 88.008 79.8198 88.008ZM94.39 85H89.75L97.302 101H101.942L109.526 85H104.822L99.638 96.232L94.39 85ZM121.179 97.768C118.171 97.768 115.835 96.456 115.227 94.12H128.987C129.179 93.384 129.275 92.648 129.275 91.944C129.275 87.624 125.627 84.456 120.763 84.456C115.419 84.456 110.875 87.656 110.875 93C110.875 97.8 114.811 101.576 120.763 101.576C123.707 101.576 126.715 100.584 128.859 99.496L127.611 96.168C125.339 97.352 123.355 97.768 121.179 97.768ZM120.507 88.008C123.003 88.008 124.603 89.128 125.019 91.016H115.323C115.963 89.064 117.755 88.008 120.507 88.008ZM142.982 84.456C140.198 84.456 137.99 86.824 137.062 88.552V85H132.838V101H137.062V93.064C137.062 90.12 139.91 88.392 142.566 88.392C143.174 88.392 144.006 88.584 144.774 88.936L145.67 85.096C144.87 84.712 143.878 84.456 142.982 84.456ZM166.436 88.424C168.964 88.424 170.276 89.992 170.276 92.264V101H174.5V91.752C174.5 87.4 172.004 84.52 167.652 84.52C164.612 84.52 162.244 86.472 161.124 88.552V77.288H156.9V101H161.124V93.064C161.124 89.896 163.78 88.424 166.436 88.424ZM184.75 91.88C181.454 91.88 178.19 93.352 178.19 96.776C178.19 99.656 180.43 101.64 183.438 101.64C186.158 101.64 188.59 100.168 190.126 98.344C190.19 100.136 191.086 101.64 193.23 101.64C194.542 101.64 196.462 101 198.222 100.04L197.358 96.776C196.43 97.256 195.598 97.608 195.118 97.608C194.67 97.608 194.35 97.32 194.35 96.84V91.08C194.35 86.696 191.79 84.36 187.406 84.36C184.878 84.36 181.518 85.352 179.534 85.992L180.59 89.832C182.926 88.968 185.358 88.232 187.022 88.232C189.038 88.232 190.126 89.352 190.126 91.016V92.872C188.75 92.392 186.478 91.88 184.75 91.88ZM184.814 98.024C183.47 98.024 182.51 97.48 182.51 96.424C182.51 95.272 183.566 94.6 184.974 94.6C186.51 94.6 188.366 94.76 190.126 95.08V95.688C188.622 97.16 186.414 98.024 184.814 98.024ZM202.859 85H198.219L205.771 101H210.411L217.995 85H213.291L208.107 96.232L202.859 85ZM229.648 97.768C226.64 97.768 224.304 96.456 223.696 94.12H237.456C237.648 93.384 237.744 92.648 237.744 91.944C237.744 87.624 234.096 84.456 229.232 84.456C223.888 84.456 219.344 87.656 219.344 93C219.344 97.8 223.28 101.576 229.232 101.576C232.176 101.576 235.184 100.584 237.328 99.496L236.08 96.168C233.808 97.352 231.824 97.768 229.648 97.768ZM228.976 88.008C231.472 88.008 233.072 89.128 233.488 91.016H223.792C224.432 89.064 226.224 88.008 228.976 88.008ZM255.265 78.6H250.849V101H255.265V78.6ZM278.867 97.768C275.859 97.768 273.523 96.456 272.915 94.12H286.675C286.867 93.384 286.963 92.648 286.963 91.944C286.963 87.624 283.315 84.456 278.451 84.456C273.107 84.456 268.563 87.656 268.563 93C268.563 97.8 272.499 101.576 278.451 101.576C281.395 101.576 284.403 100.584 286.547 99.496L285.299 96.168C283.027 97.352 281.043 97.768 278.867 97.768ZM278.195 88.008C280.691 88.008 282.291 89.128 282.707 91.016H273.011C273.651 89.064 275.443 88.008 278.195 88.008ZM292.765 85H288.125L295.677 101H300.317L307.901 85H303.197L298.013 96.232L292.765 85ZM319.554 97.768C316.546 97.768 314.21 96.456 313.602 94.12H327.362C327.554 93.384 327.65 92.648 327.65 91.944C327.65 87.624 324.002 84.456 319.138 84.456C313.794 84.456 309.25 87.656 309.25 93C309.25 97.8 313.186 101.576 319.138 101.576C322.082 101.576 325.09 100.584 327.234 99.496L325.986 96.168C323.714 97.352 321.73 97.768 319.554 97.768ZM318.882 88.008C321.378 88.008 322.978 89.128 323.394 91.016H313.698C314.338 89.064 316.13 88.008 318.882 88.008ZM341.357 84.456C338.573 84.456 336.365 86.824 335.437 88.552V85H331.213V101H335.437V93.064C335.437 90.12 338.285 88.392 340.941 88.392C341.549 88.392 342.381 88.584 343.149 88.936L344.045 85.096C343.245 84.712 342.253 84.456 341.357 84.456ZM46.592 141V117H42.4V141H46.592ZM55.624 125H51.464V141H55.624V125ZM51.016 120.392C51.016 121.8 52.136 122.92 53.544 122.92C54.952 122.92 56.072 121.8 56.072 120.392C56.072 119.016 54.952 117.896 53.544 117.896C52.136 117.896 51.016 119.016 51.016 120.392ZM69.7418 137.768C66.7338 137.768 64.3978 136.456 63.7898 134.12H77.5498C77.7418 133.384 77.8378 132.648 77.8378 131.944C77.8378 127.624 74.1898 124.456 69.3258 124.456C63.9818 124.456 59.4378 127.656 59.4378 133C59.4378 137.8 63.3738 141.576 69.3258 141.576C72.2698 141.576 75.2778 140.584 77.4218 139.496L76.1737 136.168C73.9018 137.352 71.9178 137.768 69.7418 137.768ZM69.0698 128.008C71.5658 128.008 73.1658 129.128 73.5818 131.016H63.8858C64.5258 129.064 66.3177 128.008 69.0698 128.008ZM88.408 141.544C91.672 141.544 94.232 139.656 95.288 137.448V141H99.512V117H95.288V125.576C93.688 125.064 91.48 124.424 89.752 124.424C84.376 124.424 80.344 128.36 80.344 133.16C80.344 138.344 84.024 141.544 88.408 141.544ZM89.656 137.608C86.808 137.608 84.6 136.008 84.6 133.128C84.6 130.312 86.808 128.136 89.688 128.136C91.64 128.136 93.432 128.552 95.288 129.096V132.552C95.288 135.624 92.472 137.608 89.656 137.608ZM122.265 124.456C116.921 124.456 112.313 127.496 112.313 132.84C112.313 137.64 116.473 141.576 122.265 141.576C128.057 141.576 132.217 137.64 132.217 132.84C132.217 127.496 127.609 124.456 122.265 124.456ZM122.265 128.136C125.593 128.136 127.961 129.864 127.961 132.84C127.961 135.528 125.433 137.928 122.265 137.928C119.097 137.928 116.569 135.528 116.569 132.84C116.569 129.864 118.937 128.136 122.265 128.136ZM145.499 128.424C148.027 128.424 149.339 129.992 149.339 132.264V141H153.562V131.752C153.562 127.4 151.067 124.52 146.715 124.52C143.675 124.52 141.307 126.472 140.187 128.552V125H135.963V141H140.187V133.064C140.187 129.896 142.843 128.424 145.499 128.424ZM172.875 131.88C169.579 131.88 166.315 133.352 166.315 136.776C166.315 139.656 168.555 141.64 171.563 141.64C174.283 141.64 176.715 140.168 178.251 138.344C178.315 140.136 179.211 141.64 181.355 141.64C182.667 141.64 184.587 141 186.347 140.04L185.483 136.776C184.555 137.256 183.723 137.608 183.243 137.608C182.795 137.608 182.475 137.32 182.475 136.84V131.08C182.475 126.696 179.915 124.36 175.531 124.36C173.003 124.36 169.643 125.352 167.659 125.992L168.715 129.832C171.051 128.968 173.483 128.232 175.147 128.232C177.163 128.232 178.251 129.352 178.251 131.016V132.872C176.875 132.392 174.603 131.88 172.875 131.88ZM172.939 138.024C171.595 138.024 170.635 137.48 170.635 136.424C170.635 135.272 171.691 134.6 173.099 134.6C174.635 134.6 176.491 134.76 178.251 135.08V135.688C176.747 137.16 174.539 138.024 172.939 138.024ZM204.814 141.544C208.078 141.544 210.638 139.656 211.694 137.448V141H215.918V117H211.694V125.576C210.094 125.064 207.886 124.424 206.158 124.424C200.782 124.424 196.75 128.36 196.75 133.16C196.75 138.344 200.43 141.544 204.814 141.544ZM206.062 137.608C203.214 137.608 201.006 136.008 201.006 133.128C201.006 130.312 203.214 128.136 206.094 128.136C208.046 128.136 209.838 128.552 211.694 129.096V132.552C211.694 135.624 208.878 137.608 206.062 137.608ZM226.312 131.88C223.016 131.88 219.753 133.352 219.753 136.776C219.753 139.656 221.993 141.64 225.001 141.64C227.72 141.64 230.153 140.168 231.689 138.344C231.753 140.136 232.649 141.64 234.793 141.64C236.105 141.64 238.025 141 239.785 140.04L238.921 136.776C237.993 137.256 237.161 137.608 236.681 137.608C236.233 137.608 235.913 137.32 235.913 136.84V131.08C235.913 126.696 233.353 124.36 228.969 124.36C226.441 124.36 223.081 125.352 221.097 125.992L222.153 129.832C224.489 128.968 226.921 128.232 228.585 128.232C230.601 128.232 231.689 129.352 231.689 131.016V132.872C230.313 132.392 228.041 131.88 226.312 131.88ZM226.377 138.024C225.033 138.024 224.073 137.48 224.073 136.424C224.073 135.272 225.129 134.6 226.536 134.6C228.073 134.6 229.929 134.76 231.689 135.08V135.688C230.185 137.16 227.977 138.024 226.377 138.024ZM240.421 128.68H243.461V134.888C243.461 138.92 245.605 141.544 249.573 141.544C251.269 141.544 253.541 140.808 254.885 140.104L253.957 136.488C252.933 137.128 251.525 137.64 250.277 137.64C248.613 137.64 247.685 136.456 247.685 134.728V128.68H254.341V125H247.685V120.2H244.165L243.589 125.128L240.421 125.32V128.68ZM262.312 125H258.152V141H262.312V125ZM257.704 120.392C257.704 121.8 258.824 122.92 260.232 122.92C261.64 122.92 262.76 121.8 262.76 120.392C262.76 119.016 261.64 117.896 260.232 117.896C258.824 117.896 257.704 119.016 257.704 120.392ZM276.717 128.424C279.245 128.424 280.557 129.992 280.557 132.264V141H284.781V131.752C284.781 127.4 282.285 124.52 277.933 124.52C274.893 124.52 272.525 126.472 271.405 128.552V125H267.181V141H271.405V133.064C271.405 129.896 274.061 128.424 276.717 128.424ZM295.127 138.888C294.071 138.888 293.527 138.504 293.527 137.96C293.527 137.512 293.943 137.192 294.327 137.096C295.063 137.224 295.863 137.288 296.663 137.288C301.495 137.288 305.015 134.536 305.015 130.888C305.015 129.8 304.727 128.84 304.279 128.04C305.047 127.656 305.943 127.432 307.063 127.304L306.295 123.368C304.247 123.72 302.647 124.488 301.431 125.48C300.055 124.808 298.391 124.456 296.663 124.456C292.279 124.456 288.343 126.664 288.343 130.888C288.343 132.616 289.719 134.376 291.191 135.336C290.391 135.848 289.463 136.68 289.463 137.736C289.463 138.76 290.135 139.88 290.999 140.296C289.399 140.712 287.703 142.28 287.703 143.976C287.703 147.336 291.479 149.096 297.303 149.096C302.775 149.096 306.807 147.304 306.807 143.656C306.807 140.328 302.775 138.888 297.303 138.888H295.127ZM296.631 127.944C298.903 127.944 300.631 128.936 300.631 130.76C300.631 132.264 299.063 133.512 296.631 133.512C294.327 133.512 292.599 132.36 292.599 130.76C292.599 128.936 294.327 127.944 296.631 127.944ZM297.239 142.472C300.535 142.472 302.711 142.92 302.711 144.008C302.711 145.192 300.535 145.64 297.239 145.64C293.719 145.64 291.767 145.128 291.767 143.976C291.767 143.336 292.375 142.792 293.079 142.504C293.623 142.472 296.599 142.472 297.239 142.472ZM48 171.88C44.704 171.88 41.44 173.352 41.44 176.776C41.44 179.656 43.68 181.64 46.688 181.64C49.408 181.64 51.84 180.168 53.376 178.344C53.44 180.136 54.336 181.64 56.48 181.64C57.792 181.64 59.712 181 61.472 180.04L60.608 176.776C59.68 177.256 58.848 177.608 58.368 177.608C57.92 177.608 57.6 177.32 57.6 176.84V171.08C57.6 166.696 55.04 164.36 50.656 164.36C48.128 164.36 44.768 165.352 42.784 165.992L43.84 169.832C46.176 168.968 48.608 168.232 50.272 168.232C52.288 168.232 53.376 169.352 53.376 171.016V172.872C52 172.392 49.728 171.88 48 171.88ZM48.064 178.024C46.72 178.024 45.76 177.48 45.76 176.424C45.76 175.272 46.816 174.6 48.224 174.6C49.76 174.6 51.616 174.76 53.376 175.08V175.688C51.872 177.16 49.664 178.024 48.064 178.024ZM74.9728 164.456C71.7088 164.456 69.1488 166.344 68.0928 168.552V165H63.8688V188.68H68.0928V180.456C69.6608 180.936 71.8688 181.576 73.6288 181.576C79.0048 181.576 83.0368 177.64 83.0368 172.84C83.0368 167.656 79.3568 164.456 74.9728 164.456ZM73.7248 168.392C76.5728 168.392 78.7808 169.96 78.7808 172.84C78.7808 175.528 76.4448 177.864 73.6928 177.864C71.7088 177.864 69.9167 177.448 68.0928 176.904V173.064C68.0928 170.12 70.8767 168.392 73.7248 168.392ZM97.879 164.456C94.615 164.456 92.055 166.344 90.999 168.552V165H86.775V188.68H90.999V180.456C92.567 180.936 94.775 181.576 96.535 181.576C101.911 181.576 105.943 177.64 105.943 172.84C105.943 167.656 102.263 164.456 97.879 164.456ZM96.631 168.392C99.479 168.392 101.687 169.96 101.687 172.84C101.687 175.528 99.351 177.864 96.599 177.864C94.615 177.864 92.823 177.448 90.999 176.904V173.064C90.999 170.12 93.783 168.392 96.631 168.392Z" fill="#E6D0FE"></path><path d="M44.194 260L40.54 247.4H41.872L44.986 258.29L48.262 247.4H49.738L53.014 258.29L56.128 247.4H57.46L53.806 260H52.294L49 249.056L45.706 260H44.194ZM63.1204 250.784C64.2124 250.784 65.0704 251.12 65.6944 251.792C66.3304 252.452 66.6484 253.346 66.6484 254.474V260H65.4604V254.474C65.4604 253.67 65.2444 253.046 64.8124 252.602C64.3924 252.158 63.7924 251.936 63.0124 251.936C62.1484 251.936 61.4464 252.212 60.9064 252.764C60.3664 253.304 60.0964 254.144 60.0964 255.284V260H58.9084V247.4H60.0964V252.404C60.7684 251.324 61.7764 250.784 63.1204 250.784ZM76.6855 251H77.8735V260H76.6855V258.236C75.8575 259.556 74.6455 260.216 73.0495 260.216C71.7655 260.216 70.6675 259.76 69.7555 258.848C68.8555 257.936 68.4055 256.82 68.4055 255.5C68.4055 254.18 68.8555 253.064 69.7555 252.152C70.6675 251.24 71.7655 250.784 73.0495 250.784C74.6455 250.784 75.8575 251.444 76.6855 252.764V251ZM70.6195 258.038C71.3035 258.722 72.1435 259.064 73.1395 259.064C74.1355 259.064 74.9755 258.722 75.6595 258.038C76.3435 257.342 76.6855 256.496 76.6855 255.5C76.6855 254.504 76.3435 253.664 75.6595 252.98C74.9755 252.284 74.1355 251.936 73.1395 251.936C72.1435 251.936 71.3035 252.284 70.6195 252.98C69.9355 253.664 69.5935 254.504 69.5935 255.5C69.5935 256.496 69.9355 257.342 70.6195 258.038ZM85.1589 252.152H82.5669V257.606C82.5669 258.098 82.6629 258.452 82.8549 258.668C83.0469 258.872 83.3349 258.98 83.7189 258.992C84.1029 258.992 84.5829 258.98 85.1589 258.956V260C83.8989 260.192 82.9509 260.102 82.3149 259.73C81.6909 259.358 81.3789 258.65 81.3789 257.606V252.152H79.4889V251H81.3789V248.84L82.5669 248.48V251H85.1589V252.152ZM99.3789 247.4H100.567V260H99.3789V258.236C98.5509 259.556 97.3389 260.216 95.7429 260.216C94.4589 260.216 93.3609 259.76 92.4489 258.848C91.5489 257.936 91.0989 256.82 91.0989 255.5C91.0989 254.18 91.5489 253.064 92.4489 252.152C93.3609 251.24 94.4589 250.784 95.7429 250.784C97.3389 250.784 98.5509 251.444 99.3789 252.764V247.4ZM93.3129 258.038C93.9969 258.722 94.8369 259.064 95.8329 259.064C96.8289 259.064 97.6689 258.722 98.3529 258.038C99.0369 257.342 99.3789 256.496 99.3789 255.5C99.3789 254.504 99.0369 253.664 98.3529 252.98C97.6689 252.284 96.8289 251.936 95.8329 251.936C94.8369 251.936 93.9969 252.284 93.3129 252.98C92.6289 253.664 92.2869 254.504 92.2869 255.5C92.2869 256.496 92.6289 257.342 93.3129 258.038ZM104.288 248.84C104.12 249.008 103.916 249.092 103.676 249.092C103.436 249.092 103.232 249.008 103.064 248.84C102.896 248.672 102.812 248.468 102.812 248.228C102.812 247.988 102.896 247.784 103.064 247.616C103.232 247.448 103.436 247.364 103.676 247.364C103.916 247.364 104.12 247.448 104.288 247.616C104.456 247.784 104.54 247.988 104.54 248.228C104.54 248.468 104.456 248.672 104.288 248.84ZM103.082 260V251H104.27V260H103.082ZM114.531 247.4H115.719V260H114.531V258.236C113.703 259.556 112.491 260.216 110.895 260.216C109.611 260.216 108.513 259.76 107.601 258.848C106.701 257.936 106.251 256.82 106.251 255.5C106.251 254.18 106.701 253.064 107.601 252.152C108.513 251.24 109.611 250.784 110.895 250.784C112.491 250.784 113.703 251.444 114.531 252.764V247.4ZM108.465 258.038C109.149 258.722 109.989 259.064 110.985 259.064C111.981 259.064 112.821 258.722 113.505 258.038C114.189 257.342 114.531 256.496 114.531 255.5C114.531 254.504 114.189 253.664 113.505 252.98C112.821 252.284 111.981 251.936 110.985 251.936C109.989 251.936 109.149 252.284 108.465 252.98C107.781 253.664 107.439 254.504 107.439 255.5C107.439 256.496 107.781 257.342 108.465 258.038ZM129.215 251H130.475L126.623 260.828C126.275 261.716 125.777 262.412 125.129 262.916C124.493 263.432 123.779 263.66 122.987 263.6V262.484C124.067 262.604 124.889 261.98 125.453 260.612L125.687 260.054L121.655 251H122.915L126.299 258.542L129.215 251ZM139.101 258.866C138.189 259.766 137.073 260.216 135.753 260.216C134.433 260.216 133.311 259.766 132.387 258.866C131.475 257.954 131.019 256.832 131.019 255.5C131.019 254.168 131.475 253.052 132.387 252.152C133.311 251.24 134.433 250.784 135.753 250.784C137.073 250.784 138.189 251.24 139.101 252.152C140.025 253.052 140.487 254.168 140.487 255.5C140.487 256.832 140.025 257.954 139.101 258.866ZM133.233 258.038C133.917 258.722 134.757 259.064 135.753 259.064C136.749 259.064 137.589 258.722 138.273 258.038C138.957 257.342 139.299 256.496 139.299 255.5C139.299 254.504 138.957 253.664 138.273 252.98C137.589 252.284 136.749 251.936 135.753 251.936C134.757 251.936 133.917 252.284 133.233 252.98C132.549 253.664 132.207 254.504 132.207 255.5C132.207 256.496 132.549 257.342 133.233 258.038ZM148.811 251H149.999V260H148.811V258.596C148.139 259.676 147.131 260.216 145.787 260.216C144.695 260.216 143.831 259.886 143.195 259.226C142.571 258.554 142.259 257.654 142.259 256.526V251H143.447V256.526C143.447 257.33 143.657 257.954 144.077 258.398C144.509 258.842 145.115 259.064 145.895 259.064C146.759 259.064 147.461 258.794 148.001 258.254C148.541 257.702 148.811 256.856 148.811 255.716V251ZM157.012 260V246.86H158.2V260H157.012ZM161.927 248.84C161.759 249.008 161.555 249.092 161.315 249.092C161.075 249.092 160.871 249.008 160.703 248.84C160.535 248.672 160.451 248.468 160.451 248.228C160.451 247.988 160.535 247.784 160.703 247.616C160.871 247.448 161.075 247.364 161.315 247.364C161.555 247.364 161.759 247.448 161.927 247.616C162.095 247.784 162.179 247.988 162.179 248.228C162.179 248.468 162.095 248.672 161.927 248.84ZM160.721 260V251H161.909V260H160.721ZM168.588 250.784C169.92 250.784 170.994 251.258 171.81 252.206C172.638 253.142 173.052 254.252 173.052 255.536C173.052 255.668 173.04 255.854 173.016 256.094H165.114C165.234 257.006 165.618 257.732 166.266 258.272C166.926 258.8 167.736 259.064 168.696 259.064C169.38 259.064 169.968 258.926 170.46 258.65C170.964 258.362 171.342 257.99 171.594 257.534L172.638 258.146C172.242 258.782 171.702 259.286 171.018 259.658C170.334 260.03 169.554 260.216 168.678 260.216C167.262 260.216 166.11 259.772 165.222 258.884C164.334 257.996 163.89 256.868 163.89 255.5C163.89 254.156 164.328 253.034 165.204 252.134C166.08 251.234 167.208 250.784 168.588 250.784ZM168.588 251.936C167.652 251.936 166.866 252.218 166.23 252.782C165.606 253.334 165.234 254.054 165.114 254.942H171.828C171.708 253.994 171.342 253.256 170.73 252.728C170.118 252.2 169.404 251.936 168.588 251.936ZM187.182 251H188.37V260H187.182V258.236C186.354 259.556 185.142 260.216 183.546 260.216C182.262 260.216 181.164 259.76 180.252 258.848C179.352 257.936 178.902 256.82 178.902 255.5C178.902 254.18 179.352 253.064 180.252 252.152C181.164 251.24 182.262 250.784 183.546 250.784C185.142 250.784 186.354 251.444 187.182 252.764V251ZM181.116 258.038C181.8 258.722 182.64 259.064 183.636 259.064C184.632 259.064 185.472 258.722 186.156 258.038C186.84 257.342 187.182 256.496 187.182 255.5C187.182 254.504 186.84 253.664 186.156 252.98C185.472 252.284 184.632 251.936 183.636 251.936C182.64 251.936 181.8 252.284 181.116 252.98C180.432 253.664 180.09 254.504 180.09 255.5C180.09 256.496 180.432 257.342 181.116 258.038ZM195.709 250.784C196.993 250.784 198.085 251.24 198.985 252.152C199.897 253.064 200.353 254.18 200.353 255.5C200.353 256.82 199.897 257.936 198.985 258.848C198.085 259.76 196.993 260.216 195.709 260.216C194.113 260.216 192.901 259.556 192.073 258.236V260H190.885V247.4H192.073V252.764C192.901 251.444 194.113 250.784 195.709 250.784ZM193.099 258.038C193.783 258.722 194.623 259.064 195.619 259.064C196.615 259.064 197.455 258.722 198.139 258.038C198.823 257.342 199.165 256.496 199.165 255.5C199.165 254.504 198.823 253.664 198.139 252.98C197.455 252.284 196.615 251.936 195.619 251.936C194.623 251.936 193.783 252.284 193.099 252.98C192.415 253.664 192.073 254.504 192.073 255.5C192.073 256.496 192.415 257.342 193.099 258.038ZM209.87 258.866C208.958 259.766 207.842 260.216 206.522 260.216C205.202 260.216 204.08 259.766 203.156 258.866C202.244 257.954 201.788 256.832 201.788 255.5C201.788 254.168 202.244 253.052 203.156 252.152C204.08 251.24 205.202 250.784 206.522 250.784C207.842 250.784 208.958 251.24 209.87 252.152C210.794 253.052 211.256 254.168 211.256 255.5C211.256 256.832 210.794 257.954 209.87 258.866ZM204.002 258.038C204.686 258.722 205.526 259.064 206.522 259.064C207.518 259.064 208.358 258.722 209.042 258.038C209.726 257.342 210.068 256.496 210.068 255.5C210.068 254.504 209.726 253.664 209.042 252.98C208.358 252.284 207.518 251.936 206.522 251.936C205.526 251.936 204.686 252.284 204.002 252.98C203.318 253.664 202.976 254.504 202.976 255.5C202.976 256.496 203.318 257.342 204.002 258.038ZM219.58 251H220.768V260H219.58V258.596C218.908 259.676 217.9 260.216 216.556 260.216C215.464 260.216 214.6 259.886 213.964 259.226C213.34 258.554 213.028 257.654 213.028 256.526V251H214.216V256.526C214.216 257.33 214.426 257.954 214.846 258.398C215.278 258.842 215.884 259.064 216.664 259.064C217.528 259.064 218.23 258.794 218.77 258.254C219.31 257.702 219.58 256.856 219.58 255.716V251ZM228.051 252.152H225.459V257.606C225.459 258.098 225.555 258.452 225.747 258.668C225.939 258.872 226.227 258.98 226.611 258.992C226.995 258.992 227.475 258.98 228.051 258.956V260C226.791 260.192 225.843 260.102 225.207 259.73C224.583 259.358 224.271 258.65 224.271 257.606V252.152H222.381V251H224.271V248.84L225.459 248.48V251H228.051V252.152ZM232.551 256.58C232.551 255.992 232.671 255.458 232.911 254.978C233.151 254.486 233.439 254.072 233.775 253.736C234.111 253.4 234.447 253.076 234.783 252.764C235.119 252.452 235.407 252.11 235.647 251.738C235.887 251.354 236.007 250.946 236.007 250.514C236.007 249.818 235.767 249.296 235.287 248.948C234.819 248.588 234.213 248.408 233.469 248.408C231.993 248.408 231.081 249.014 230.733 250.226L229.671 249.632C229.947 248.828 230.427 248.222 231.111 247.814C231.807 247.394 232.593 247.184 233.469 247.184C234.525 247.184 235.419 247.478 236.151 248.066C236.895 248.642 237.267 249.458 237.267 250.514C237.267 251.03 237.147 251.51 236.907 251.954C236.667 252.398 236.379 252.788 236.043 253.124C235.707 253.448 235.371 253.772 235.035 254.096C234.699 254.42 234.411 254.798 234.171 255.23C233.931 255.65 233.811 256.1 233.811 256.58H232.551ZM233.883 259.892C233.691 260.084 233.457 260.18 233.181 260.18C232.905 260.18 232.671 260.084 232.479 259.892C232.287 259.7 232.191 259.466 232.191 259.19C232.191 258.914 232.287 258.68 232.479 258.488C232.671 258.296 232.905 258.2 233.181 258.2C233.457 258.2 233.691 258.296 233.883 258.488C234.075 258.68 234.171 258.914 234.171 259.19C234.171 259.466 234.075 259.7 233.883 259.892Z" fill="#E6D0FE"></path></svg> 