<?xml version="1.0" encoding="UTF-8"?> <svg xmlns="http://www.w3.org/2000/svg" width="400" height="600" viewBox="0 0 400 600" fill="none"> <rect width="400" height="600" rx="20" fill="#7F3CC9"></rect> <path d="M49.504 488.4V490.776H46.102V501H43.618V490.776H40.234V488.4H49.504ZM56.8159 499.884C55.8919 500.796 54.7639 501.252 53.4319 501.252C52.0999 501.252 50.9719 500.796 50.0479 499.884C49.1359 498.96 48.6799 497.832 48.6799 496.5C48.6799 495.168 49.1359 494.046 50.0479 493.134C50.9719 492.21 52.0999 491.748 53.4319 491.748C54.7639 491.748 55.8919 492.21 56.8159 493.134C57.7399 494.046 58.2019 495.168 58.2019 496.5C58.2019 497.832 57.7399 498.96 56.8159 499.884ZM51.6859 498.282C52.1539 498.75 52.7359 498.984 53.4319 498.984C54.1279 498.984 54.7099 498.75 55.1779 498.282C55.6459 497.814 55.8799 497.22 55.8799 496.5C55.8799 495.78 55.6459 495.186 55.1779 494.718C54.7099 494.25 54.1279 494.016 53.4319 494.016C52.7359 494.016 52.1539 494.25 51.6859 494.718C51.2299 495.186 51.0019 495.78 51.0019 496.5C51.0019 497.22 51.2299 497.814 51.6859 498.282ZM66.4774 494.556C66.4774 494.796 66.6334 494.994 66.9454 495.15C67.2694 495.294 67.6594 495.426 68.1154 495.546C68.5714 495.654 69.0274 495.798 69.4834 495.978C69.9394 496.146 70.3234 496.434 70.6354 496.842C70.9594 497.25 71.1214 497.76 71.1214 498.372C71.1214 499.296 70.7734 500.01 70.0774 500.514C69.3934 501.006 68.5354 501.252 67.5034 501.252C65.6554 501.252 64.3954 500.538 63.7234 499.11L65.7394 497.976C66.0034 498.756 66.5914 499.146 67.5034 499.146C68.3314 499.146 68.7454 498.888 68.7454 498.372C68.7454 498.132 68.5834 497.94 68.2594 497.796C67.9474 497.64 67.5634 497.502 67.1074 497.382C66.6514 497.262 66.1954 497.112 65.7394 496.932C65.2834 496.752 64.8934 496.47 64.5694 496.086C64.2574 495.69 64.1014 495.198 64.1014 494.61C64.1014 493.722 64.4254 493.026 65.0734 492.522C65.7334 492.006 66.5494 491.748 67.5214 491.748C68.2534 491.748 68.9194 491.916 69.5194 492.252C70.1194 492.576 70.5934 493.044 70.9414 493.656L68.9614 494.736C68.6734 494.124 68.1934 493.818 67.5214 493.818C67.2214 493.818 66.9694 493.884 66.7654 494.016C66.5734 494.148 66.4774 494.328 66.4774 494.556ZM77.4991 494.232H75.4651V497.976C75.4651 498.288 75.5431 498.516 75.6991 498.66C75.8551 498.804 76.0831 498.888 76.3831 498.912C76.6831 498.924 77.0551 498.918 77.4991 498.894V501C75.9031 501.18 74.7751 501.03 74.1151 500.55C73.4671 500.07 73.1431 499.212 73.1431 497.976V494.232H71.5771V492H73.1431V490.182L75.4651 489.48V492H77.4991V494.232ZM85.695 492H88.017V501H85.695V499.938C84.999 500.814 84.021 501.252 82.761 501.252C81.561 501.252 80.529 500.796 79.665 499.884C78.813 498.96 78.387 497.832 78.387 496.5C78.387 495.168 78.813 494.046 79.665 493.134C80.529 492.21 81.561 491.748 82.761 491.748C84.021 491.748 84.999 492.186 85.695 493.062V492ZM81.411 498.336C81.879 498.804 82.473 499.038 83.193 499.038C83.913 499.038 84.507 498.804 84.975 498.336C85.455 497.856 85.695 497.244 85.695 496.5C85.695 495.756 85.455 495.15 84.975 494.682C84.507 494.202 83.913 493.962 83.193 493.962C82.473 493.962 81.879 494.202 81.411 494.682C80.943 495.15 80.709 495.756 80.709 496.5C80.709 497.244 80.943 497.856 81.411 498.336ZM90.1225 501V487.86H92.4445V501H90.1225ZM102.868 501H100.168L96.8918 496.914V501H94.5698V488.4H96.8918V495.96L99.9878 492H102.76L99.1418 496.446L102.868 501ZM108.905 496.014V494.862H117.905V496.014H108.905ZM132.668 492V501H131.48V493.152H126.296V501H125.108V492H132.668ZM140.004 491.784C141.288 491.784 142.38 492.24 143.28 493.152C144.192 494.064 144.648 495.18 144.648 496.5C144.648 497.82 144.192 498.936 143.28 499.848C142.38 500.76 141.288 501.216 140.004 501.216C138.408 501.216 137.196 500.556 136.368 499.236V504.6H135.18V492H136.368V493.764C137.196 492.444 138.408 491.784 140.004 491.784ZM137.394 499.038C138.078 499.722 138.918 500.064 139.914 500.064C140.91 500.064 141.75 499.722 142.434 499.038C143.118 498.342 143.46 497.496 143.46 496.5C143.46 495.504 143.118 494.664 142.434 493.98C141.75 493.284 140.91 492.936 139.914 492.936C138.918 492.936 138.078 493.284 137.394 493.98C136.71 494.664 136.368 495.504 136.368 496.5C136.368 497.496 136.71 498.342 137.394 499.038ZM150.781 491.784C152.113 491.784 153.187 492.258 154.003 493.206C154.831 494.142 155.245 495.252 155.245 496.536C155.245 496.668 155.233 496.854 155.209 497.094H147.307C147.427 498.006 147.811 498.732 148.459 499.272C149.119 499.8 149.929 500.064 150.889 500.064C151.573 500.064 152.161 499.926 152.653 499.65C153.157 499.362 153.535 498.99 153.787 498.534L154.831 499.146C154.435 499.782 153.895 500.286 153.211 500.658C152.527 501.03 151.747 501.216 150.871 501.216C149.455 501.216 148.303 500.772 147.415 499.884C146.527 498.996 146.083 497.868 146.083 496.5C146.083 495.156 146.521 494.034 147.397 493.134C148.273 492.234 149.401 491.784 150.781 491.784ZM150.781 492.936C149.845 492.936 149.059 493.218 148.423 493.782C147.799 494.334 147.427 495.054 147.307 495.942H154.021C153.901 494.994 153.535 494.256 152.923 493.728C152.311 493.2 151.597 492.936 150.781 492.936ZM161.329 501.216C159.973 501.216 158.845 500.766 157.945 499.866C157.045 498.954 156.595 497.832 156.595 496.5C156.595 495.168 157.045 494.052 157.945 493.152C158.845 492.24 159.973 491.784 161.329 491.784C162.217 491.784 163.015 492 163.723 492.432C164.431 492.852 164.947 493.422 165.271 494.142L164.299 494.7C164.059 494.16 163.669 493.734 163.129 493.422C162.601 493.098 162.001 492.936 161.329 492.936C160.333 492.936 159.493 493.284 158.809 493.98C158.125 494.664 157.783 495.504 157.783 496.5C157.783 497.496 158.125 498.342 158.809 499.038C159.493 499.722 160.333 500.064 161.329 500.064C162.001 500.064 162.601 499.908 163.129 499.596C163.657 499.272 164.071 498.84 164.371 498.3L165.361 498.876C164.989 499.596 164.443 500.166 163.723 500.586C163.003 501.006 162.205 501.216 161.329 501.216ZM174.271 492V501H173.083V493.152H169.015V497.166C169.015 498.666 168.727 499.698 168.151 500.262C167.587 500.826 166.807 501.072 165.811 501V499.884C166.495 499.956 166.999 499.794 167.323 499.398C167.659 499.002 167.827 498.258 167.827 497.166V492H174.271ZM180.945 491.784C182.277 491.784 183.351 492.258 184.167 493.206C184.995 494.142 185.409 495.252 185.409 496.536C185.409 496.668 185.397 496.854 185.373 497.094H177.471C177.591 498.006 177.975 498.732 178.623 499.272C179.283 499.8 180.093 500.064 181.053 500.064C181.737 500.064 182.325 499.926 182.817 499.65C183.321 499.362 183.699 498.99 183.951 498.534L184.995 499.146C184.599 499.782 184.059 500.286 183.375 500.658C182.691 501.03 181.911 501.216 181.035 501.216C179.619 501.216 178.467 500.772 177.579 499.884C176.691 498.996 176.247 497.868 176.247 496.5C176.247 495.156 176.685 494.034 177.561 493.134C178.437 492.234 179.565 491.784 180.945 491.784ZM180.945 492.936C180.009 492.936 179.223 493.218 178.587 493.782C177.963 494.334 177.591 495.054 177.471 495.942H184.185C184.065 494.994 183.699 494.256 183.087 493.728C182.475 493.2 181.761 492.936 180.945 492.936ZM194.508 499.848H195.768V503.412H194.58V501H187.236V503.412H186.048V499.848H187.146C187.757 499.044 188.063 497.91 188.063 496.446V492H194.508V499.848ZM188.586 499.848H193.32V493.152H189.252V496.446C189.252 497.826 189.03 498.96 188.586 499.848ZM204.755 499.866C203.843 500.766 202.727 501.216 201.407 501.216C200.087 501.216 198.965 500.766 198.041 499.866C197.129 498.954 196.673 497.832 196.673 496.5C196.673 495.168 197.129 494.052 198.041 493.152C198.965 492.24 200.087 491.784 201.407 491.784C202.727 491.784 203.843 492.24 204.755 493.152C205.679 494.052 206.141 495.168 206.141 496.5C206.141 497.832 205.679 498.954 204.755 499.866ZM198.887 499.038C199.571 499.722 200.411 500.064 201.407 500.064C202.403 500.064 203.243 499.722 203.927 499.038C204.611 498.342 204.953 497.496 204.953 496.5C204.953 495.504 204.611 494.664 203.927 493.98C203.243 493.284 202.403 492.936 201.407 492.936C200.411 492.936 199.571 493.284 198.887 493.98C198.203 494.664 197.861 495.504 197.861 496.5C197.861 497.496 198.203 498.342 198.887 499.038ZM213.853 496.374C214.837 496.734 215.329 497.436 215.329 498.48C215.329 499.212 215.083 499.818 214.591 500.298C214.111 500.766 213.415 501 212.503 501H208.129V492H212.143C213.019 492 213.697 492.228 214.177 492.684C214.657 493.128 214.897 493.704 214.897 494.412C214.897 495.312 214.549 495.966 213.853 496.374ZM212.143 493.152H209.317V495.888H212.143C213.187 495.888 213.709 495.42 213.709 494.484C213.709 494.064 213.571 493.74 213.295 493.512C213.031 493.272 212.647 493.152 212.143 493.152ZM212.503 499.848C213.031 499.848 213.433 499.722 213.709 499.47C213.997 499.218 214.141 498.864 214.141 498.408C214.141 497.988 213.997 497.658 213.709 497.418C213.433 497.166 213.031 497.04 212.503 497.04H209.317V499.848H212.503ZM224.869 492H226.057V501H224.869V499.236C224.041 500.556 222.829 501.216 221.233 501.216C219.949 501.216 218.851 500.76 217.939 499.848C217.039 498.936 216.589 497.82 216.589 496.5C216.589 495.18 217.039 494.064 217.939 493.152C218.851 492.24 219.949 491.784 221.233 491.784C222.829 491.784 224.041 492.444 224.869 493.764V492ZM218.803 499.038C219.487 499.722 220.327 500.064 221.323 500.064C222.319 500.064 223.159 499.722 223.843 499.038C224.527 498.342 224.869 497.496 224.869 496.5C224.869 495.504 224.527 494.664 223.843 493.98C223.159 493.284 222.319 492.936 221.323 492.936C220.327 492.936 219.487 493.284 218.803 493.98C218.119 494.664 217.777 495.504 217.777 496.5C217.777 497.496 218.119 498.342 218.803 499.038ZM235.053 492V493.152H231.867V501H230.679V493.152H227.493V492H235.053ZM240.154 495.42C240.994 495.42 241.702 495.684 242.278 496.212C242.866 496.728 243.16 497.394 243.16 498.21C243.16 499.026 242.866 499.698 242.278 500.226C241.702 500.742 240.994 501 240.154 501H236.5V492H237.688V495.42H240.154ZM240.154 499.848C240.658 499.848 241.084 499.698 241.432 499.398C241.792 499.098 241.972 498.702 241.972 498.21C241.972 497.718 241.792 497.322 241.432 497.022C241.084 496.722 240.658 496.572 240.154 496.572H237.688V499.848H240.154Z" fill="#E6D0FE" fill-opacity="0.6"></path> <path d="M47.296 84.136L60.8 101H65.952V78.6H61.536V95.464L48.032 78.6H42.88V101H47.296V84.136ZM80.4918 97.768C77.4838 97.768 75.1478 96.456 74.5398 94.12H88.2998C88.4918 93.384 88.5878 92.648 88.5878 91.944C88.5878 87.624 84.9398 84.456 80.0758 84.456C74.7318 84.456 70.1878 87.656 70.1878 93C70.1878 97.8 74.1238 101.576 80.0758 101.576C83.0198 101.576 86.0278 100.584 88.1718 99.496L86.9237 96.168C84.6518 97.352 82.6678 97.768 80.4918 97.768ZM79.8198 88.008C82.3158 88.008 83.9158 89.128 84.3318 91.016H74.6358C75.2758 89.064 77.0677 88.008 79.8198 88.008ZM94.39 85H89.75L97.302 101H101.942L109.526 85H104.822L99.638 96.232L94.39 85ZM121.179 97.768C118.171 97.768 115.835 96.456 115.227 94.12H128.987C129.179 93.384 129.275 92.648 129.275 91.944C129.275 87.624 125.627 84.456 120.763 84.456C115.419 84.456 110.875 87.656 110.875 93C110.875 97.8 114.811 101.576 120.763 101.576C123.707 101.576 126.715 100.584 128.859 99.496L127.611 96.168C125.339 97.352 123.355 97.768 121.179 97.768ZM120.507 88.008C123.003 88.008 124.603 89.128 125.019 91.016H115.323C115.963 89.064 117.755 88.008 120.507 88.008ZM142.982 84.456C140.198 84.456 137.99 86.824 137.062 88.552V85H132.838V101H137.062V93.064C137.062 90.12 139.91 88.392 142.566 88.392C143.174 88.392 144.006 88.584 144.774 88.936L145.67 85.096C144.87 84.712 143.878 84.456 142.982 84.456ZM166.436 88.424C168.964 88.424 170.276 89.992 170.276 92.264V101H174.5V91.752C174.5 87.4 172.004 84.52 167.652 84.52C164.612 84.52 162.244 86.472 161.124 88.552V77.288H156.9V101H161.124V93.064C161.124 89.896 163.78 88.424 166.436 88.424ZM184.75 91.88C181.454 91.88 178.19 93.352 178.19 96.776C178.19 99.656 180.43 101.64 183.438 101.64C186.158 101.64 188.59 100.168 190.126 98.344C190.19 100.136 191.086 101.64 193.23 101.64C194.542 101.64 196.462 101 198.222 100.04L197.358 96.776C196.43 97.256 195.598 97.608 195.118 97.608C194.67 97.608 194.35 97.32 194.35 96.84V91.08C194.35 86.696 191.79 84.36 187.406 84.36C184.878 84.36 181.518 85.352 179.534 85.992L180.59 89.832C182.926 88.968 185.358 88.232 187.022 88.232C189.038 88.232 190.126 89.352 190.126 91.016V92.872C188.75 92.392 186.478 91.88 184.75 91.88ZM184.814 98.024C183.47 98.024 182.51 97.48 182.51 96.424C182.51 95.272 183.566 94.6 184.974 94.6C186.51 94.6 188.366 94.76 190.126 95.08V95.688C188.622 97.16 186.414 98.024 184.814 98.024ZM202.859 85H198.219L205.771 101H210.411L217.995 85H213.291L208.107 96.232L202.859 85ZM229.648 97.768C226.64 97.768 224.304 96.456 223.696 94.12H237.456C237.648 93.384 237.744 92.648 237.744 91.944C237.744 87.624 234.096 84.456 229.232 84.456C223.888 84.456 219.344 87.656 219.344 93C219.344 97.8 223.28 101.576 229.232 101.576C232.176 101.576 235.184 100.584 237.328 99.496L236.08 96.168C233.808 97.352 231.824 97.768 229.648 97.768ZM228.976 88.008C231.472 88.008 233.072 89.128 233.488 91.016H223.792C224.432 89.064 226.224 88.008 228.976 88.008ZM255.265 78.6H250.849V101H255.265V78.6ZM278.867 97.768C275.859 97.768 273.523 96.456 272.915 94.12H286.675C286.867 93.384 286.963 92.648 286.963 91.944C286.963 87.624 283.315 84.456 278.451 84.456C273.107 84.456 268.563 87.656 268.563 93C268.563 97.8 272.499 101.576 278.451 101.576C281.395 101.576 284.403 100.584 286.547 99.496L285.299 96.168C283.027 97.352 281.043 97.768 278.867 97.768ZM278.195 88.008C280.691 88.008 282.291 89.128 282.707 91.016H273.011C273.651 89.064 275.443 88.008 278.195 88.008ZM292.765 85H288.125L295.677 101H300.317L307.901 85H303.197L298.013 96.232L292.765 85ZM319.554 97.768C316.546 97.768 314.21 96.456 313.602 94.12H327.362C327.554 93.384 327.65 92.648 327.65 91.944C327.65 87.624 324.002 84.456 319.138 84.456C313.794 84.456 309.25 87.656 309.25 93C309.25 97.8 313.186 101.576 319.138 101.576C322.082 101.576 325.09 100.584 327.234 99.496L325.986 96.168C323.714 97.352 321.73 97.768 319.554 97.768ZM318.882 88.008C321.378 88.008 322.978 89.128 323.394 91.016H313.698C314.338 89.064 316.13 88.008 318.882 88.008ZM341.357 84.456C338.573 84.456 336.365 86.824 335.437 88.552V85H331.213V101H335.437V93.064C335.437 90.12 338.285 88.392 340.941 88.392C341.549 88.392 342.381 88.584 343.149 88.936L344.045 85.096C343.245 84.712 342.253 84.456 341.357 84.456ZM56.544 125.576C54.656 124.936 51.68 124.392 49.152 124.392C44.608 124.392 41.376 126.376 41.376 129.512C41.376 135.752 53.28 133.64 53.28 136.168C53.28 137.288 51.68 137.928 49.376 137.928C46.912 137.928 44.416 137.16 42.304 136.232L41.056 139.56C43.232 140.712 46.208 141.64 49.216 141.64C53.12 141.64 57.44 139.624 57.44 136.04C57.44 129.8 45.536 132.008 45.536 129.352C45.536 128.392 47.2 128.072 49.312 128.072C51.36 128.072 53.344 128.488 55.424 129.288L56.544 125.576ZM59.3588 128.68H62.3988V134.888C62.3988 138.92 64.5428 141.544 68.5108 141.544C70.2068 141.544 72.4788 140.808 73.8228 140.104L72.8948 136.488C71.8708 137.128 70.4628 137.64 69.2148 137.64C67.5508 137.64 66.6228 136.456 66.6228 134.728V128.68H73.2788V125H66.6228V120.2H63.1028L62.5268 125.128L59.3588 125.32V128.68ZM82.625 131.88C79.329 131.88 76.065 133.352 76.065 136.776C76.065 139.656 78.305 141.64 81.313 141.64C84.033 141.64 86.465 140.168 88.001 138.344C88.065 140.136 88.961 141.64 91.105 141.64C92.417 141.64 94.337 141 96.097 140.04L95.233 136.776C94.305 137.256 93.473 137.608 92.993 137.608C92.545 137.608 92.225 137.32 92.225 136.84V131.08C92.225 126.696 89.665 124.36 85.281 124.36C82.753 124.36 79.393 125.352 77.409 125.992L78.465 129.832C80.801 128.968 83.233 128.232 84.897 128.232C86.913 128.232 88.001 129.352 88.001 131.016V132.872C86.625 132.392 84.353 131.88 82.625 131.88ZM82.689 138.024C81.345 138.024 80.385 137.48 80.385 136.424C80.385 135.272 81.441 134.6 82.849 134.6C84.385 134.6 86.241 134.76 88.001 135.08V135.688C86.497 137.16 84.289 138.024 82.689 138.024ZM102.686 141V117H98.4938V141H102.686ZM111.654 117H107.494V141H111.654V117ZM117.51 139.848C118.374 140.872 119.398 141.416 120.486 141.416C121.766 141.416 123.142 140.808 124.614 140.168L123.622 136.744C122.854 137.064 122.15 137.416 121.51 137.416C121.158 137.416 120.838 137.32 120.55 137.032L116.806 133.16L124.518 125H119.11L111.878 133.288L117.51 139.848ZM137.054 137.768C134.046 137.768 131.71 136.456 131.102 134.12H144.862C145.054 133.384 145.15 132.648 145.15 131.944C145.15 127.624 141.502 124.456 136.638 124.456C131.294 124.456 126.75 127.656 126.75 133C126.75 137.8 130.686 141.576 136.638 141.576C139.582 141.576 142.59 140.584 144.734 139.496L143.486 136.168C141.214 137.352 139.23 137.768 137.054 137.768ZM136.382 128.008C138.878 128.008 140.478 129.128 140.894 131.016H131.198C131.838 129.064 133.63 128.008 136.382 128.008ZM155.72 141.544C158.985 141.544 161.545 139.656 162.601 137.448V141H166.825V117H162.601V125.576C161.001 125.064 158.793 124.424 157.065 124.424C151.689 124.424 147.657 128.36 147.657 133.16C147.657 138.344 151.337 141.544 155.72 141.544ZM156.969 137.608C154.121 137.608 151.913 136.008 151.913 133.128C151.913 130.312 154.121 128.136 157.001 128.136C158.953 128.136 160.745 128.552 162.601 129.096V132.552C162.601 135.624 159.785 137.608 156.969 137.608ZM186.281 131.88C182.985 131.88 179.721 133.352 179.721 136.776C179.721 139.656 181.961 141.64 184.969 141.64C187.689 141.64 190.121 140.168 191.657 138.344C191.721 140.136 192.617 141.64 194.761 141.64C196.073 141.64 197.993 141 199.753 140.04L198.889 136.776C197.961 137.256 197.129 137.608 196.649 137.608C196.201 137.608 195.881 137.32 195.881 136.84V131.08C195.881 126.696 193.321 124.36 188.937 124.36C186.409 124.36 183.049 125.352 181.065 125.992L182.121 129.832C184.457 128.968 186.889 128.232 188.553 128.232C190.569 128.232 191.657 129.352 191.657 131.016V132.872C190.281 132.392 188.009 131.88 186.281 131.88ZM186.345 138.024C185.001 138.024 184.041 137.48 184.041 136.424C184.041 135.272 185.097 134.6 186.505 134.6C188.041 134.6 189.897 134.76 191.657 135.08V135.688C190.153 137.16 187.945 138.024 186.345 138.024ZM211.686 128.424C214.214 128.424 215.526 129.992 215.526 132.264V141H219.75V131.752C219.75 127.4 217.254 124.52 212.902 124.52C209.862 124.52 207.494 126.472 206.374 128.552V125H202.15V141H206.374V133.064C206.374 129.896 209.03 128.424 211.686 128.424ZM242.711 137.768C239.703 137.768 237.367 136.456 236.759 134.12H250.519C250.711 133.384 250.807 132.648 250.807 131.944C250.807 127.624 247.159 124.456 242.295 124.456C236.951 124.456 232.407 127.656 232.407 133C232.407 137.8 236.343 141.576 242.295 141.576C245.239 141.576 248.247 140.584 250.391 139.496L249.142 136.168C246.871 137.352 244.887 137.768 242.711 137.768ZM242.039 128.008C244.535 128.008 246.135 129.128 246.551 131.016H236.855C237.495 129.064 239.286 128.008 242.039 128.008ZM252.065 141H257.441L261.921 135.88L266.593 141H272.065L264.737 132.968L271.937 125H266.561L262.113 130.088L257.505 125H251.969L259.265 133L252.065 141ZM273.695 126.344H277.119L277.471 118.6H273.343L273.695 126.344ZM295.294 125.576C293.406 124.936 290.43 124.392 287.902 124.392C283.358 124.392 280.126 126.376 280.126 129.512C280.126 135.752 292.03 133.64 292.03 136.168C292.03 137.288 290.43 137.928 288.126 137.928C285.662 137.928 283.166 137.16 281.054 136.232L279.806 139.56C281.982 140.712 284.958 141.64 287.966 141.64C291.87 141.64 296.19 139.624 296.19 136.04C296.19 129.8 284.286 132.008 284.286 129.352C284.286 128.392 285.95 128.072 288.062 128.072C290.11 128.072 292.094 128.488 294.174 129.288L295.294 125.576ZM51.936 168.424C54.464 168.424 55.776 169.992 55.776 172.264V181H60V171.752C60 167.4 57.504 164.52 53.152 164.52C50.112 164.52 47.744 166.472 46.624 168.552V165H42.4V181H46.624V173.064C46.624 169.896 49.28 168.424 51.936 168.424ZM73.898 177.768C70.89 177.768 68.554 176.456 67.946 174.12H81.706C81.898 173.384 81.994 172.648 81.994 171.944C81.994 167.624 78.346 164.456 73.482 164.456C68.138 164.456 63.594 167.656 63.594 173C63.594 177.8 67.53 181.576 73.482 181.576C76.426 181.576 79.434 180.584 81.578 179.496L80.33 176.168C78.058 177.352 76.074 177.768 73.898 177.768ZM73.226 168.008C75.722 168.008 77.322 169.128 77.738 171.016H68.042C68.682 169.064 70.474 168.008 73.226 168.008ZM103.796 181H108.084L115.092 165H110.612L105.94 175.976L101.3 165H96.8843L92.2443 176.008L87.6043 165H83.0282L90.0363 181H94.3563L99.0923 170.056L103.796 181ZM137.535 164.456C134.271 164.456 131.711 166.344 130.655 168.552V165H126.431V188.68H130.655V180.456C132.223 180.936 134.431 181.576 136.191 181.576C141.567 181.576 145.599 177.64 145.599 172.84C145.599 167.656 141.919 164.456 137.535 164.456ZM136.287 168.392C139.135 168.392 141.343 169.96 141.343 172.84C141.343 175.528 139.007 177.864 136.255 177.864C134.271 177.864 132.479 177.448 130.655 176.904V173.064C130.655 170.12 133.439 168.392 136.287 168.392ZM154.938 171.88C151.641 171.88 148.378 173.352 148.378 176.776C148.378 179.656 150.618 181.64 153.626 181.64C156.345 181.64 158.778 180.168 160.314 178.344C160.378 180.136 161.274 181.64 163.418 181.64C164.73 181.64 166.65 181 168.41 180.04L167.546 176.776C166.618 177.256 165.786 177.608 165.306 177.608C164.858 177.608 164.538 177.32 164.538 176.84V171.08C164.538 166.696 161.978 164.36 157.594 164.36C155.066 164.36 151.706 165.352 149.722 165.992L150.778 169.832C153.114 168.968 155.546 168.232 157.21 168.232C159.226 168.232 160.314 169.352 160.314 171.016V172.872C158.938 172.392 156.666 171.88 154.938 171.88ZM155.002 178.024C153.658 178.024 152.698 177.48 152.698 176.424C152.698 175.272 153.754 174.6 155.161 174.6C156.698 174.6 158.554 174.76 160.314 175.08V175.688C158.81 177.16 156.602 178.024 155.002 178.024ZM180.95 164.456C178.166 164.456 175.958 166.824 175.03 168.552V165H170.806V181H175.03V173.064C175.03 170.12 177.878 168.392 180.534 168.392C181.142 168.392 181.974 168.584 182.742 168.936L183.638 165.096C182.838 164.712 181.846 164.456 180.95 164.456ZM184.046 168.68H187.086V174.888C187.086 178.92 189.23 181.544 193.198 181.544C194.894 181.544 197.166 180.808 198.51 180.104L197.582 176.488C196.558 177.128 195.15 177.64 193.902 177.64C192.238 177.64 191.31 176.456 191.31 174.728V168.68H197.966V165H191.31V160.2H187.79L187.214 165.128L184.046 165.32V168.68ZM211.249 168.424C213.777 168.424 215.089 169.992 215.089 172.264V181H219.312V171.752C219.312 167.4 216.817 164.52 212.465 164.52C209.425 164.52 207.057 166.472 205.937 168.552V165H201.713V181H205.937V173.064C205.937 169.896 208.593 168.424 211.249 168.424ZM233.211 177.768C230.203 177.768 227.867 176.456 227.259 174.12H241.019C241.211 173.384 241.307 172.648 241.307 171.944C241.307 167.624 237.659 164.456 232.795 164.456C227.451 164.456 222.907 167.656 222.907 173C222.907 177.8 226.843 181.576 232.795 181.576C235.739 181.576 238.747 180.584 240.891 179.496L239.642 176.168C237.371 177.352 235.387 177.768 233.211 177.768ZM232.539 168.008C235.035 168.008 236.635 169.128 237.051 171.016H227.355C227.995 169.064 229.786 168.008 232.539 168.008ZM255.013 164.456C252.229 164.456 250.021 166.824 249.093 168.552V165H244.869V181H249.093V173.064C249.093 170.12 251.941 168.392 254.597 168.392C255.205 168.392 256.037 168.584 256.805 168.936L257.701 165.096C256.901 164.712 255.909 164.456 255.013 164.456ZM277.827 164.456C272.483 164.456 267.875 167.496 267.875 172.84C267.875 177.64 272.035 181.576 277.827 181.576C283.619 181.576 287.779 177.64 287.779 172.84C287.779 167.496 283.171 164.456 277.827 164.456ZM277.827 168.136C281.155 168.136 283.523 169.864 283.523 172.84C283.523 175.528 280.995 177.928 277.827 177.928C274.659 177.928 272.131 175.528 272.131 172.84C272.131 169.864 274.499 168.136 277.827 168.136ZM301.061 168.424C303.589 168.424 304.901 169.992 304.901 172.264V181H309.125V171.752C309.125 167.4 306.629 164.52 302.277 164.52C299.237 164.52 296.869 166.472 295.749 168.552V165H291.525V181H295.749V173.064C295.749 169.896 298.405 168.424 301.061 168.424ZM56.544 205.576C54.656 204.936 51.68 204.392 49.152 204.392C44.608 204.392 41.376 206.376 41.376 209.512C41.376 215.752 53.28 213.64 53.28 216.168C53.28 217.288 51.68 217.928 49.376 217.928C46.912 217.928 44.416 217.16 42.304 216.232L41.056 219.56C43.232 220.712 46.208 221.64 49.216 221.64C53.12 221.64 57.44 219.624 57.44 216.04C57.44 209.8 45.536 212.008 45.536 209.352C45.536 208.392 47.2 208.072 49.312 208.072C51.36 208.072 53.344 208.488 55.424 209.288L56.544 205.576ZM70.0148 204.456C64.6708 204.456 60.0628 207.496 60.0628 212.84C60.0628 217.64 64.2228 221.576 70.0148 221.576C75.8068 221.576 79.9668 217.64 79.9668 212.84C79.9668 207.496 75.3588 204.456 70.0148 204.456ZM70.0148 208.136C73.3428 208.136 75.7108 209.864 75.7108 212.84C75.7108 215.528 73.1828 217.928 70.0148 217.928C66.8468 217.928 64.3188 215.528 64.3188 212.84C64.3188 209.864 66.6868 208.136 70.0148 208.136ZM92.5445 204.456C87.2005 204.456 82.6565 207.656 82.6565 213C82.6565 217.8 86.3045 221.576 92.2565 221.576C95.2645 221.576 98.0165 220.648 100.193 219.496L98.9445 216.168C96.8325 217.096 95.1365 217.768 92.8005 217.768C89.4725 217.768 86.9125 215.912 86.9125 212.84C86.9125 209.928 89.2165 208.168 92.2885 208.168C94.4645 208.168 96.3205 208.616 98.5285 209.512L99.5525 205.736C97.6325 205.064 95.2005 204.456 92.5445 204.456ZM107.624 205H103.464V221H107.624V205ZM103.016 200.392C103.016 201.8 104.136 202.92 105.544 202.92C106.952 202.92 108.072 201.8 108.072 200.392C108.072 199.016 106.952 197.896 105.544 197.896C104.136 197.896 103.016 199.016 103.016 200.392ZM118.094 211.88C114.798 211.88 111.534 213.352 111.534 216.776C111.534 219.656 113.774 221.64 116.782 221.64C119.502 221.64 121.934 220.168 123.47 218.344C123.534 220.136 124.43 221.64 126.574 221.64C127.886 221.64 129.806 221 131.566 220.04L130.702 216.776C129.774 217.256 128.942 217.608 128.462 217.608C128.014 217.608 127.694 217.32 127.694 216.84V211.08C127.694 206.696 125.134 204.36 120.75 204.36C118.222 204.36 114.862 205.352 112.878 205.992L113.934 209.832C116.27 208.968 118.702 208.232 120.366 208.232C122.382 208.232 123.47 209.352 123.47 211.016V212.872C122.094 212.392 119.822 211.88 118.094 211.88ZM118.158 218.024C116.814 218.024 115.854 217.48 115.854 216.424C115.854 215.272 116.91 214.6 118.318 214.6C119.854 214.6 121.71 214.76 123.47 215.08V215.688C121.966 217.16 119.758 218.024 118.158 218.024ZM138.155 221V197H133.963V221H138.155ZM162.265 204.52C159.481 204.52 157.305 206.504 156.249 208.392V205H152.025V221H156.249V213.032C156.249 209.96 158.617 208.424 160.825 208.424C163.161 208.424 164.409 209.992 164.409 212.104V221H168.633V213.032C168.633 209.992 171.001 208.424 173.209 208.424C175.545 208.424 176.793 209.992 176.793 212.104V221H181.017V211.592C181.017 207.368 178.809 204.52 174.649 204.52C171.961 204.52 169.401 206.504 168.121 208.424C167.225 206.024 165.273 204.52 162.265 204.52ZM194.898 217.768C191.89 217.768 189.554 216.456 188.946 214.12H202.706C202.898 213.384 202.994 212.648 202.994 211.944C202.994 207.624 199.346 204.456 194.482 204.456C189.138 204.456 184.594 207.656 184.594 213C184.594 217.8 188.53 221.576 194.482 221.576C197.426 221.576 200.434 220.584 202.578 219.496L201.33 216.168C199.058 217.352 197.074 217.768 194.898 217.768ZM194.226 208.008C196.722 208.008 198.322 209.128 198.738 211.016H189.042C189.682 209.064 191.474 208.008 194.226 208.008ZM213.564 221.544C216.828 221.544 219.388 219.656 220.444 217.448V221H224.668V197H220.444V205.576C218.844 205.064 216.636 204.424 214.908 204.424C209.532 204.424 205.5 208.36 205.5 213.16C205.5 218.344 209.18 221.544 213.564 221.544ZM214.812 217.608C211.964 217.608 209.756 216.008 209.756 213.128C209.756 210.312 211.964 208.136 214.844 208.136C216.796 208.136 218.588 208.552 220.444 209.096V212.552C220.444 215.624 217.628 217.608 214.812 217.608ZM233.687 205H229.527V221H233.687V205ZM229.079 200.392C229.079 201.8 230.199 202.92 231.607 202.92C233.015 202.92 234.135 201.8 234.135 200.392C234.135 199.016 233.015 197.896 231.607 197.896C230.199 197.896 229.079 199.016 229.079 200.392ZM244.156 211.88C240.86 211.88 237.596 213.352 237.596 216.776C237.596 219.656 239.836 221.64 242.844 221.64C245.564 221.64 247.996 220.168 249.532 218.344C249.596 220.136 250.492 221.64 252.636 221.64C253.948 221.64 255.868 221 257.628 220.04L256.764 216.776C255.836 217.256 255.004 217.608 254.524 217.608C254.076 217.608 253.756 217.32 253.756 216.84V211.08C253.756 206.696 251.196 204.36 246.812 204.36C244.284 204.36 240.924 205.352 238.94 205.992L239.996 209.832C242.332 208.968 244.764 208.232 246.428 208.232C248.444 208.232 249.532 209.352 249.532 211.016V212.872C248.156 212.392 245.884 211.88 244.156 211.88ZM244.22 218.024C242.876 218.024 241.916 217.48 241.916 216.424C241.916 215.272 242.972 214.6 244.38 214.6C245.916 214.6 247.772 214.76 249.532 215.08V215.688C248.028 217.16 245.82 218.024 244.22 218.024Z" fill="#E6D0FE"></path> </svg> 