<?xml version="1.0" encoding="UTF-8"?> <svg xmlns="http://www.w3.org/2000/svg" width="400" height="600" viewBox="0 0 400 600" fill="none"><rect width="400" height="600" rx="20" fill="#7F3CC9"></rect><path d="M40.234 486.4H49.504V488.776H46.102V499H43.618V488.776H40.234V486.4ZM56.8159 497.884C55.9039 498.796 54.7759 499.252 53.4319 499.252C52.0879 499.252 50.9599 498.796 50.0479 497.884C49.1359 496.972 48.6799 495.844 48.6799 494.5C48.6799 493.168 49.1359 492.046 50.0479 491.134C50.9719 490.21 52.0999 489.748 53.4319 489.748C54.7639 489.748 55.8919 490.21 56.8159 491.134C57.7399 492.058 58.2019 493.18 58.2019 494.5C58.2019 495.832 57.7399 496.96 56.8159 497.884ZM51.6859 496.282C52.1539 496.75 52.7359 496.984 53.4319 496.984C54.1279 496.984 54.7099 496.75 55.1779 496.282C55.6459 495.814 55.8799 495.22 55.8799 494.5C55.8799 493.78 55.6459 493.186 55.1779 492.718C54.7099 492.25 54.1279 492.016 53.4319 492.016C52.7359 492.016 52.1539 492.25 51.6859 492.718C51.2299 493.198 51.0019 493.792 51.0019 494.5C51.0019 495.208 51.2299 495.802 51.6859 496.282ZM66.4774 492.556C66.4774 492.94 67.0234 493.27 68.1154 493.546C68.4994 493.63 68.8474 493.732 69.1594 493.852C69.4714 493.96 69.7834 494.122 70.0954 494.338C70.4194 494.542 70.6714 494.818 70.8514 495.166C71.0314 495.514 71.1214 495.916 71.1214 496.372C71.1214 497.296 70.7734 498.01 70.0774 498.514C69.3814 499.006 68.5234 499.252 67.5034 499.252C65.6554 499.252 64.3954 498.538 63.7234 497.11L65.7394 495.976C66.0154 496.756 66.6034 497.146 67.5034 497.146C68.3314 497.146 68.7454 496.888 68.7454 496.372C68.7454 495.988 68.1994 495.658 67.1074 495.382C66.6994 495.274 66.3514 495.166 66.0634 495.058C65.7754 494.95 65.4634 494.794 65.1274 494.59C64.7914 494.374 64.5334 494.104 64.3534 493.78C64.1854 493.444 64.1014 493.054 64.1014 492.61C64.1014 491.722 64.4254 491.026 65.0734 490.522C65.7334 490.006 66.5494 489.748 67.5214 489.748C68.2534 489.748 68.9194 489.916 69.5194 490.252C70.1194 490.576 70.5934 491.044 70.9414 491.656L68.9614 492.736C68.6734 492.124 68.1934 491.818 67.5214 491.818C67.2214 491.818 66.9694 491.89 66.7654 492.034C66.5734 492.166 66.4774 492.34 66.4774 492.556ZM77.4991 490V492.232H75.4651V495.976C75.4651 496.288 75.5431 496.516 75.6991 496.66C75.8551 496.804 76.0831 496.888 76.3831 496.912C76.6831 496.924 77.0551 496.918 77.4991 496.894V499C75.9271 499.18 74.8051 499.036 74.1331 498.568C73.4731 498.088 73.1431 497.224 73.1431 495.976V492.232H71.5771V490H73.1431V488.182L75.4651 487.48V490H77.4991ZM85.695 491.062V490H88.017V499H85.695V497.938C84.999 498.814 84.021 499.252 82.761 499.252C81.561 499.252 80.529 498.796 79.665 497.884C78.813 496.96 78.387 495.832 78.387 494.5C78.387 493.18 78.813 492.058 79.665 491.134C80.529 490.21 81.561 489.748 82.761 489.748C84.021 489.748 84.999 490.186 85.695 491.062ZM81.411 496.336C81.879 496.804 82.473 497.038 83.193 497.038C83.913 497.038 84.507 496.804 84.975 496.336C85.455 495.856 85.695 495.244 85.695 494.5C85.695 493.756 85.455 493.15 84.975 492.682C84.507 492.202 83.913 491.962 83.193 491.962C82.473 491.962 81.879 492.202 81.411 492.682C80.943 493.15 80.709 493.756 80.709 494.5C80.709 495.244 80.943 495.856 81.411 496.336ZM92.4445 499H90.1225V485.86H92.4445V499ZM99.1418 494.446L102.868 499H100.168L96.8918 494.914V499H94.5698V486.4H96.8918V493.96L99.9878 490H102.76L99.1418 494.446ZM117.905 494.014H108.905V492.862H117.905V494.014ZM125.108 490H132.668V499H131.48V491.152H126.296V499H125.108V490ZM140.004 489.784C141.288 489.784 142.38 490.24 143.28 491.152C144.192 492.064 144.648 493.18 144.648 494.5C144.648 495.82 144.192 496.936 143.28 497.848C142.38 498.76 141.288 499.216 140.004 499.216C138.408 499.216 137.196 498.556 136.368 497.236V502.6H135.18V490H136.368V491.764C137.196 490.444 138.408 489.784 140.004 489.784ZM137.394 497.038C138.078 497.722 138.918 498.064 139.914 498.064C140.91 498.064 141.75 497.722 142.434 497.038C143.118 496.33 143.46 495.484 143.46 494.5C143.46 493.504 143.118 492.664 142.434 491.98C141.75 491.284 140.91 490.936 139.914 490.936C138.918 490.936 138.078 491.284 137.394 491.98C136.71 492.664 136.368 493.504 136.368 494.5C136.368 495.484 136.71 496.33 137.394 497.038ZM150.781 489.784C152.125 489.784 153.199 490.258 154.003 491.206C154.831 492.142 155.245 493.252 155.245 494.536C155.245 494.596 155.233 494.782 155.209 495.094H147.307C147.427 495.994 147.811 496.714 148.459 497.254C149.107 497.794 149.917 498.064 150.889 498.064C152.257 498.064 153.223 497.554 153.787 496.534L154.831 497.146C154.435 497.794 153.889 498.304 153.193 498.676C152.509 499.036 151.735 499.216 150.871 499.216C149.455 499.216 148.303 498.772 147.415 497.884C146.527 496.996 146.083 495.868 146.083 494.5C146.083 493.144 146.521 492.022 147.397 491.134C148.273 490.234 149.401 489.784 150.781 489.784ZM150.781 490.936C149.845 490.936 149.059 491.212 148.423 491.764C147.799 492.316 147.427 493.042 147.307 493.942H154.021C153.889 492.982 153.523 492.244 152.923 491.728C152.299 491.2 151.585 490.936 150.781 490.936ZM161.329 499.216C159.973 499.216 158.845 498.766 157.945 497.866C157.045 496.942 156.595 495.82 156.595 494.5C156.595 493.168 157.045 492.052 157.945 491.152C158.845 490.24 159.973 489.784 161.329 489.784C162.217 489.784 163.015 490 163.723 490.432C164.431 490.852 164.947 491.422 165.271 492.142L164.299 492.7C164.059 492.16 163.669 491.734 163.129 491.422C162.601 491.098 162.001 490.936 161.329 490.936C160.333 490.936 159.493 491.284 158.809 491.98C158.125 492.664 157.783 493.504 157.783 494.5C157.783 495.484 158.125 496.33 158.809 497.038C159.493 497.722 160.333 498.064 161.329 498.064C161.989 498.064 162.583 497.908 163.111 497.596C163.651 497.284 164.071 496.852 164.371 496.3L165.361 496.876C164.989 497.596 164.443 498.166 163.723 498.586C163.003 499.006 162.205 499.216 161.329 499.216ZM167.827 490H174.271V499H173.083V491.152H169.015V495.166C169.015 496.666 168.727 497.698 168.151 498.262C167.587 498.826 166.807 499.072 165.811 499V497.884C166.507 497.956 167.017 497.788 167.341 497.38C167.665 496.972 167.827 496.234 167.827 495.166V490ZM180.945 489.784C182.289 489.784 183.363 490.258 184.167 491.206C184.995 492.142 185.409 493.252 185.409 494.536C185.409 494.596 185.397 494.782 185.373 495.094H177.471C177.591 495.994 177.975 496.714 178.623 497.254C179.271 497.794 180.081 498.064 181.053 498.064C182.421 498.064 183.387 497.554 183.951 496.534L184.995 497.146C184.599 497.794 184.053 498.304 183.357 498.676C182.673 499.036 181.899 499.216 181.035 499.216C179.619 499.216 178.467 498.772 177.579 497.884C176.691 496.996 176.247 495.868 176.247 494.5C176.247 493.144 176.685 492.022 177.561 491.134C178.437 490.234 179.565 489.784 180.945 489.784ZM180.945 490.936C180.009 490.936 179.223 491.212 178.587 491.764C177.963 492.316 177.591 493.042 177.471 493.942H184.185C184.053 492.982 183.687 492.244 183.087 491.728C182.463 491.2 181.749 490.936 180.945 490.936ZM194.508 490V497.848H195.768V501.412H194.58V499H187.236V501.412H186.048V497.848H187.146C187.757 497.032 188.063 495.898 188.063 494.446V490H194.508ZM188.586 497.848H193.32V491.152H189.252V494.446C189.252 495.838 189.03 496.972 188.586 497.848ZM204.755 497.866C203.831 498.766 202.715 499.216 201.407 499.216C200.075 499.216 198.953 498.766 198.041 497.866C197.129 496.954 196.673 495.832 196.673 494.5C196.673 493.168 197.129 492.052 198.041 491.152C198.953 490.24 200.075 489.784 201.407 489.784C202.727 489.784 203.843 490.24 204.755 491.152C205.679 492.052 206.141 493.168 206.141 494.5C206.141 495.82 205.679 496.942 204.755 497.866ZM198.887 497.038C199.571 497.722 200.411 498.064 201.407 498.064C202.403 498.064 203.243 497.722 203.927 497.038C204.611 496.33 204.953 495.484 204.953 494.5C204.953 493.504 204.611 492.664 203.927 491.98C203.243 491.284 202.403 490.936 201.407 490.936C200.411 490.936 199.571 491.284 198.887 491.98C198.203 492.664 197.861 493.504 197.861 494.5C197.861 495.484 198.203 496.33 198.887 497.038ZM213.853 494.374C214.837 494.734 215.329 495.436 215.329 496.48C215.329 497.224 215.077 497.83 214.573 498.298C214.081 498.766 213.391 499 212.503 499H208.129V490H212.143C213.007 490 213.679 490.222 214.159 490.666C214.651 491.11 214.897 491.692 214.897 492.412C214.897 493.312 214.549 493.966 213.853 494.374ZM212.143 491.152H209.317V493.888H212.143C213.187 493.888 213.709 493.42 213.709 492.484C213.709 492.064 213.571 491.74 213.295 491.512C213.031 491.272 212.647 491.152 212.143 491.152ZM209.317 497.848H212.503C213.031 497.848 213.433 497.722 213.709 497.47C213.997 497.218 214.141 496.864 214.141 496.408C214.141 495.976 213.997 495.64 213.709 495.4C213.433 495.16 213.031 495.04 212.503 495.04H209.317V497.848ZM224.869 491.764V490H226.057V499H224.869V497.236C224.041 498.556 222.829 499.216 221.233 499.216C219.949 499.216 218.851 498.76 217.939 497.848C217.039 496.936 216.589 495.82 216.589 494.5C216.589 493.18 217.039 492.064 217.939 491.152C218.851 490.24 219.949 489.784 221.233 489.784C222.829 489.784 224.041 490.444 224.869 491.764ZM218.803 497.038C219.487 497.722 220.327 498.064 221.323 498.064C222.319 498.064 223.159 497.722 223.843 497.038C224.527 496.33 224.869 495.484 224.869 494.5C224.869 493.504 224.527 492.664 223.843 491.98C223.159 491.284 222.319 490.936 221.323 490.936C220.327 490.936 219.487 491.284 218.803 491.98C218.119 492.664 217.777 493.504 217.777 494.5C217.777 495.484 218.119 496.33 218.803 497.038ZM227.493 490H235.053V491.152H231.867V499H230.679V491.152H227.493V490ZM237.688 493.42H240.154C240.982 493.42 241.69 493.684 242.278 494.212C242.866 494.728 243.16 495.394 243.16 496.21C243.16 497.038 242.866 497.71 242.278 498.226C241.714 498.742 241.006 499 240.154 499H236.5V490H237.688V493.42ZM237.688 497.848H240.154C240.67 497.848 241.102 497.698 241.45 497.398C241.798 497.086 241.972 496.69 241.972 496.21C241.972 495.73 241.798 495.34 241.45 495.04C241.102 494.728 240.67 494.572 240.154 494.572H237.688V497.848Z" fill="#E6D0FE" fill-opacity="0.6"></path><path d="M47.296 84.136V101H42.88V78.6H48.032L61.536 95.464V78.6H65.952V101H60.8L47.296 84.136ZM80.4918 97.768C82.6678 97.768 84.6518 97.352 86.9237 96.168L88.1718 99.496C86.0278 100.584 83.0198 101.576 80.0758 101.576C74.1238 101.576 70.1878 97.8 70.1878 93C70.1878 87.656 74.7318 84.456 80.0758 84.456C84.9398 84.456 88.5878 87.624 88.5878 91.944C88.5878 92.648 88.4918 93.384 88.2998 94.12H74.5398C75.1478 96.456 77.4838 97.768 80.4918 97.768ZM79.8198 88.008C77.0677 88.008 75.2758 89.064 74.6358 91.016H84.3318C83.9158 89.128 82.3158 88.008 79.8198 88.008ZM94.39 85L99.638 96.232L104.822 85H109.526L101.942 101H97.302L89.75 85H94.39ZM121.179 97.768C123.355 97.768 125.339 97.352 127.611 96.168L128.859 99.496C126.715 100.584 123.707 101.576 120.763 101.576C114.811 101.576 110.875 97.8 110.875 93C110.875 87.656 115.419 84.456 120.763 84.456C125.627 84.456 129.275 87.624 129.275 91.944C129.275 92.648 129.179 93.384 128.987 94.12H115.227C115.835 96.456 118.171 97.768 121.179 97.768ZM120.507 88.008C117.755 88.008 115.963 89.064 115.323 91.016H125.019C124.603 89.128 123.003 88.008 120.507 88.008ZM142.982 84.456C143.878 84.456 144.87 84.712 145.67 85.096L144.774 88.936C144.006 88.584 143.174 88.392 142.566 88.392C139.91 88.392 137.062 90.12 137.062 93.064V101H132.838V85H137.062V88.552C137.99 86.824 140.198 84.456 142.982 84.456ZM166.436 88.424C163.78 88.424 161.124 89.896 161.124 93.064V101H156.9V77.288H161.124V88.552C162.244 86.472 164.612 84.52 167.652 84.52C172.004 84.52 174.5 87.4 174.5 91.752V101H170.276V92.264C170.276 89.992 168.964 88.424 166.436 88.424ZM184.75 91.88C186.478 91.88 188.75 92.392 190.126 92.872V91.016C190.126 89.352 189.038 88.232 187.022 88.232C185.358 88.232 182.926 88.968 180.59 89.832L179.534 85.992C181.518 85.352 184.878 84.36 187.406 84.36C191.79 84.36 194.35 86.696 194.35 91.08V96.84C194.35 97.32 194.67 97.608 195.118 97.608C195.598 97.608 196.43 97.256 197.358 96.776L198.222 100.04C196.462 101 194.542 101.64 193.23 101.64C191.086 101.64 190.19 100.136 190.126 98.344C188.59 100.168 186.158 101.64 183.438 101.64C180.43 101.64 178.19 99.656 178.19 96.776C178.19 93.352 181.454 91.88 184.75 91.88ZM184.814 98.024C186.414 98.024 188.622 97.16 190.126 95.688V95.08C188.366 94.76 186.51 94.6 184.974 94.6C183.566 94.6 182.51 95.272 182.51 96.424C182.51 97.48 183.47 98.024 184.814 98.024ZM202.859 85L208.107 96.232L213.291 85H217.995L210.411 101H205.771L198.219 85H202.859ZM229.648 97.768C231.824 97.768 233.808 97.352 236.08 96.168L237.328 99.496C235.184 100.584 232.176 101.576 229.232 101.576C223.28 101.576 219.344 97.8 219.344 93C219.344 87.656 223.888 84.456 229.232 84.456C234.096 84.456 237.744 87.624 237.744 91.944C237.744 92.648 237.648 93.384 237.456 94.12H223.696C224.304 96.456 226.64 97.768 229.648 97.768ZM228.976 88.008C226.224 88.008 224.432 89.064 223.792 91.016H233.488C233.072 89.128 231.472 88.008 228.976 88.008ZM255.265 78.6V101H250.849V78.6H255.265ZM278.867 97.768C281.043 97.768 283.027 97.352 285.299 96.168L286.547 99.496C284.403 100.584 281.395 101.576 278.451 101.576C272.499 101.576 268.563 97.8 268.563 93C268.563 87.656 273.107 84.456 278.451 84.456C283.315 84.456 286.963 87.624 286.963 91.944C286.963 92.648 286.867 93.384 286.675 94.12H272.915C273.523 96.456 275.859 97.768 278.867 97.768ZM278.195 88.008C275.443 88.008 273.651 89.064 273.011 91.016H282.707C282.291 89.128 280.691 88.008 278.195 88.008ZM292.765 85L298.013 96.232L303.197 85H307.901L300.317 101H295.677L288.125 85H292.765ZM319.554 97.768C321.73 97.768 323.714 97.352 325.986 96.168L327.234 99.496C325.09 100.584 322.082 101.576 319.138 101.576C313.186 101.576 309.25 97.8 309.25 93C309.25 87.656 313.794 84.456 319.138 84.456C324.002 84.456 327.65 87.624 327.65 91.944C327.65 92.648 327.554 93.384 327.362 94.12H313.602C314.21 96.456 316.546 97.768 319.554 97.768ZM318.882 88.008C316.13 88.008 314.338 89.064 313.698 91.016H323.394C322.978 89.128 321.378 88.008 318.882 88.008ZM341.357 84.456C342.253 84.456 343.245 84.712 344.045 85.096L343.149 88.936C342.381 88.584 341.549 88.392 340.941 88.392C338.285 88.392 335.437 90.12 335.437 93.064V101H331.213V85H335.437V88.552C336.365 86.824 338.573 84.456 341.357 84.456ZM56.544 125.576L55.424 129.288C53.344 128.488 51.36 128.072 49.312 128.072C47.2 128.072 45.536 128.392 45.536 129.352C45.536 132.008 57.44 129.8 57.44 136.04C57.44 139.624 53.12 141.64 49.216 141.64C46.208 141.64 43.232 140.712 41.056 139.56L42.304 136.232C44.416 137.16 46.912 137.928 49.376 137.928C51.68 137.928 53.28 137.288 53.28 136.168C53.28 133.64 41.376 135.752 41.376 129.512C41.376 126.376 44.608 124.392 49.152 124.392C51.68 124.392 54.656 124.936 56.544 125.576ZM59.3588 128.68V125.32L62.5268 125.128L63.1028 120.2H66.6228V125H73.2788V128.68H66.6228V134.728C66.6228 136.456 67.5508 137.64 69.2148 137.64C70.4628 137.64 71.8708 137.128 72.8948 136.488L73.8228 140.104C72.4788 140.808 70.2068 141.544 68.5108 141.544C64.5428 141.544 62.3988 138.92 62.3988 134.888V128.68H59.3588ZM82.625 131.88C84.353 131.88 86.625 132.392 88.001 132.872V131.016C88.001 129.352 86.913 128.232 84.897 128.232C83.233 128.232 80.801 128.968 78.465 129.832L77.409 125.992C79.393 125.352 82.753 124.36 85.281 124.36C89.665 124.36 92.225 126.696 92.225 131.08V136.84C92.225 137.32 92.545 137.608 92.993 137.608C93.473 137.608 94.305 137.256 95.233 136.776L96.097 140.04C94.337 141 92.417 141.64 91.105 141.64C88.961 141.64 88.065 140.136 88.001 138.344C86.465 140.168 84.033 141.64 81.313 141.64C78.305 141.64 76.065 139.656 76.065 136.776C76.065 133.352 79.329 131.88 82.625 131.88ZM82.689 138.024C84.289 138.024 86.497 137.16 88.001 135.688V135.08C86.241 134.76 84.385 134.6 82.849 134.6C81.441 134.6 80.385 135.272 80.385 136.424C80.385 137.48 81.345 138.024 82.689 138.024ZM102.686 141H98.4938V117H102.686V141ZM111.654 117V141H107.494V117H111.654ZM117.51 139.848L111.878 133.288L119.11 125H124.518L116.806 133.16L120.55 137.032C120.838 137.32 121.158 137.416 121.51 137.416C122.15 137.416 122.854 137.064 123.622 136.744L124.614 140.168C123.142 140.808 121.766 141.416 120.486 141.416C119.398 141.416 118.374 140.872 117.51 139.848ZM137.054 137.768C139.23 137.768 141.214 137.352 143.486 136.168L144.734 139.496C142.59 140.584 139.582 141.576 136.638 141.576C130.686 141.576 126.75 137.8 126.75 133C126.75 127.656 131.294 124.456 136.638 124.456C141.502 124.456 145.15 127.624 145.15 131.944C145.15 132.648 145.054 133.384 144.862 134.12H131.102C131.71 136.456 134.046 137.768 137.054 137.768ZM136.382 128.008C133.63 128.008 131.838 129.064 131.198 131.016H140.894C140.478 129.128 138.878 128.008 136.382 128.008ZM155.72 141.544C151.337 141.544 147.657 138.344 147.657 133.16C147.657 128.36 151.689 124.424 157.065 124.424C158.793 124.424 161.001 125.064 162.601 125.576V117H166.825V141H162.601V137.448C161.545 139.656 158.985 141.544 155.72 141.544ZM156.969 137.608C159.785 137.608 162.601 135.624 162.601 132.552V129.096C160.745 128.552 158.953 128.136 157.001 128.136C154.121 128.136 151.913 130.312 151.913 133.128C151.913 136.008 154.121 137.608 156.969 137.608ZM190.921 124.52C193.929 124.52 195.881 126.024 196.777 128.424C198.057 126.504 200.617 124.52 203.305 124.52C207.465 124.52 209.673 127.368 209.673 131.592V141H205.449V132.104C205.449 129.992 204.201 128.424 201.865 128.424C199.657 128.424 197.289 129.992 197.289 133.032V141H193.065V132.104C193.065 129.992 191.817 128.424 189.481 128.424C187.273 128.424 184.905 129.96 184.905 133.032V141H180.681V125H184.905V128.392C185.961 126.504 188.137 124.52 190.921 124.52ZM231.746 125L224.034 142.312C222.498 145.736 221.026 149 216.514 149C216.29 149 215.586 148.936 215.042 148.84L215.266 144.776C215.842 144.872 216.482 144.936 216.706 144.936C218.402 144.936 219.298 143.176 220.098 141.384C220.098 141.32 220.162 141.256 220.162 141.224L211.906 125H216.514L222.242 136.424C223.906 132.552 225.666 128.424 227.106 125H231.746ZM252.461 137.768C254.637 137.768 256.621 137.352 258.892 136.168L260.141 139.496C257.997 140.584 254.989 141.576 252.045 141.576C246.093 141.576 242.157 137.8 242.157 133C242.157 127.656 246.701 124.456 252.045 124.456C256.909 124.456 260.557 127.624 260.557 131.944C260.557 132.648 260.461 133.384 260.269 134.12H246.509C247.117 136.456 249.453 137.768 252.461 137.768ZM251.789 128.008C249.036 128.008 247.245 129.064 246.605 131.016H256.301C255.885 129.128 254.285 128.008 251.789 128.008ZM261.815 141L269.015 133L261.719 125H267.255L271.863 130.088L276.311 125H281.687L274.487 132.968L281.815 141H276.343L271.671 135.88L267.191 141H261.815ZM283.445 126.344L283.093 118.6H287.221L286.869 126.344H283.445ZM305.044 125.576L303.924 129.288C301.844 128.488 299.86 128.072 297.812 128.072C295.7 128.072 294.036 128.392 294.036 129.352C294.036 132.008 305.94 129.8 305.94 136.04C305.94 139.624 301.62 141.64 297.716 141.64C294.708 141.64 291.732 140.712 289.556 139.56L290.804 136.232C292.916 137.16 295.412 137.928 297.876 137.928C300.18 137.928 301.78 137.288 301.78 136.168C301.78 133.64 289.876 135.752 289.876 129.512C289.876 126.376 293.108 124.392 297.652 124.392C300.18 124.392 303.156 124.936 305.044 125.576ZM51.936 168.424C49.28 168.424 46.624 169.896 46.624 173.064V181H42.4V165H46.624V168.552C47.744 166.472 50.112 164.52 53.152 164.52C57.504 164.52 60 167.4 60 171.752V181H55.776V172.264C55.776 169.992 54.464 168.424 51.936 168.424ZM73.898 177.768C76.074 177.768 78.058 177.352 80.33 176.168L81.578 179.496C79.434 180.584 76.426 181.576 73.482 181.576C67.53 181.576 63.594 177.8 63.594 173C63.594 167.656 68.138 164.456 73.482 164.456C78.346 164.456 81.994 167.624 81.994 171.944C81.994 172.648 81.898 173.384 81.706 174.12H67.946C68.554 176.456 70.89 177.768 73.898 177.768ZM73.226 168.008C70.474 168.008 68.682 169.064 68.042 171.016H77.738C77.322 169.128 75.722 168.008 73.226 168.008ZM103.796 181L99.0923 170.056L94.3563 181H90.0363L83.0282 165H87.6043L92.2443 176.008L96.8843 165H101.3L105.94 175.976L110.612 165H115.092L108.084 181H103.796ZM137.535 164.456C141.919 164.456 145.599 167.656 145.599 172.84C145.599 177.64 141.567 181.576 136.191 181.576C134.431 181.576 132.223 180.936 130.655 180.456V188.68H126.431V165H130.655V168.552C131.711 166.344 134.271 164.456 137.535 164.456ZM136.287 168.392C133.439 168.392 130.655 170.12 130.655 173.064V176.904C132.479 177.448 134.271 177.864 136.255 177.864C139.007 177.864 141.343 175.528 141.343 172.84C141.343 169.96 139.135 168.392 136.287 168.392ZM154.938 171.88C156.666 171.88 158.938 172.392 160.314 172.872V171.016C160.314 169.352 159.226 168.232 157.21 168.232C155.546 168.232 153.114 168.968 150.778 169.832L149.722 165.992C151.706 165.352 155.066 164.36 157.594 164.36C161.978 164.36 164.538 166.696 164.538 171.08V176.84C164.538 177.32 164.858 177.608 165.306 177.608C165.786 177.608 166.618 177.256 167.546 176.776L168.41 180.04C166.65 181 164.73 181.64 163.418 181.64C161.274 181.64 160.378 180.136 160.314 178.344C158.778 180.168 156.345 181.64 153.626 181.64C150.618 181.64 148.378 179.656 148.378 176.776C148.378 173.352 151.641 171.88 154.938 171.88ZM155.002 178.024C156.602 178.024 158.81 177.16 160.314 175.688V175.08C158.554 174.76 156.698 174.6 155.161 174.6C153.754 174.6 152.698 175.272 152.698 176.424C152.698 177.48 153.658 178.024 155.002 178.024ZM180.95 164.456C181.846 164.456 182.838 164.712 183.638 165.096L182.742 168.936C181.974 168.584 181.142 168.392 180.534 168.392C177.878 168.392 175.03 170.12 175.03 173.064V181H170.806V165H175.03V168.552C175.958 166.824 178.166 164.456 180.95 164.456ZM184.046 168.68V165.32L187.214 165.128L187.79 160.2H191.31V165H197.966V168.68H191.31V174.728C191.31 176.456 192.238 177.64 193.902 177.64C195.15 177.64 196.558 177.128 197.582 176.488L198.51 180.104C197.166 180.808 194.894 181.544 193.198 181.544C189.23 181.544 187.086 178.92 187.086 174.888V168.68H184.046ZM211.249 168.424C208.593 168.424 205.937 169.896 205.937 173.064V181H201.713V165H205.937V168.552C207.057 166.472 209.425 164.52 212.465 164.52C216.817 164.52 219.312 167.4 219.312 171.752V181H215.089V172.264C215.089 169.992 213.777 168.424 211.249 168.424ZM233.211 177.768C235.387 177.768 237.371 177.352 239.642 176.168L240.891 179.496C238.747 180.584 235.739 181.576 232.795 181.576C226.843 181.576 222.907 177.8 222.907 173C222.907 167.656 227.451 164.456 232.795 164.456C237.659 164.456 241.307 167.624 241.307 171.944C241.307 172.648 241.211 173.384 241.019 174.12H227.259C227.867 176.456 230.203 177.768 233.211 177.768ZM232.539 168.008C229.786 168.008 227.995 169.064 227.355 171.016H237.051C236.635 169.128 235.035 168.008 232.539 168.008ZM255.013 164.456C255.909 164.456 256.901 164.712 257.701 165.096L256.805 168.936C256.037 168.584 255.205 168.392 254.597 168.392C251.941 168.392 249.093 170.12 249.093 173.064V181H244.869V165H249.093V168.552C250.021 166.824 252.229 164.456 255.013 164.456ZM277.827 164.456C283.171 164.456 287.779 167.496 287.779 172.84C287.779 177.64 283.619 181.576 277.827 181.576C272.035 181.576 267.875 177.64 267.875 172.84C267.875 167.496 272.483 164.456 277.827 164.456ZM277.827 168.136C274.499 168.136 272.131 169.864 272.131 172.84C272.131 175.528 274.659 177.928 277.827 177.928C280.995 177.928 283.523 175.528 283.523 172.84C283.523 169.864 281.155 168.136 277.827 168.136ZM301.061 168.424C298.405 168.424 295.749 169.896 295.749 173.064V181H291.525V165H295.749V168.552C296.869 166.472 299.237 164.52 302.277 164.52C306.629 164.52 309.125 167.4 309.125 171.752V181H304.901V172.264C304.901 169.992 303.589 168.424 301.061 168.424ZM56.544 205.576L55.424 209.288C53.344 208.488 51.36 208.072 49.312 208.072C47.2 208.072 45.536 208.392 45.536 209.352C45.536 212.008 57.44 209.8 57.44 216.04C57.44 219.624 53.12 221.64 49.216 221.64C46.208 221.64 43.232 220.712 41.056 219.56L42.304 216.232C44.416 217.16 46.912 217.928 49.376 217.928C51.68 217.928 53.28 217.288 53.28 216.168C53.28 213.64 41.376 215.752 41.376 209.512C41.376 206.376 44.608 204.392 49.152 204.392C51.68 204.392 54.656 204.936 56.544 205.576ZM70.0148 204.456C75.3588 204.456 79.9668 207.496 79.9668 212.84C79.9668 217.64 75.8068 221.576 70.0148 221.576C64.2228 221.576 60.0628 217.64 60.0628 212.84C60.0628 207.496 64.6708 204.456 70.0148 204.456ZM70.0148 208.136C66.6868 208.136 64.3188 209.864 64.3188 212.84C64.3188 215.528 66.8468 217.928 70.0148 217.928C73.1828 217.928 75.7108 215.528 75.7108 212.84C75.7108 209.864 73.3428 208.136 70.0148 208.136ZM92.5445 204.456C95.2005 204.456 97.6325 205.064 99.5525 205.736L98.5285 209.512C96.3205 208.616 94.4645 208.168 92.2885 208.168C89.2165 208.168 86.9125 209.928 86.9125 212.84C86.9125 215.912 89.4725 217.768 92.8005 217.768C95.1365 217.768 96.8325 217.096 98.9445 216.168L100.193 219.496C98.0165 220.648 95.2645 221.576 92.2565 221.576C86.3045 221.576 82.6565 217.8 82.6565 213C82.6565 207.656 87.2005 204.456 92.5445 204.456ZM107.624 205V221H103.464V205H107.624ZM103.016 200.392C103.016 199.016 104.136 197.896 105.544 197.896C106.952 197.896 108.072 199.016 108.072 200.392C108.072 201.8 106.952 202.92 105.544 202.92C104.136 202.92 103.016 201.8 103.016 200.392ZM118.094 211.88C119.822 211.88 122.094 212.392 123.47 212.872V211.016C123.47 209.352 122.382 208.232 120.366 208.232C118.702 208.232 116.27 208.968 113.934 209.832L112.878 205.992C114.862 205.352 118.222 204.36 120.75 204.36C125.134 204.36 127.694 206.696 127.694 211.08V216.84C127.694 217.32 128.014 217.608 128.462 217.608C128.942 217.608 129.774 217.256 130.702 216.776L131.566 220.04C129.806 221 127.886 221.64 126.574 221.64C124.43 221.64 123.534 220.136 123.47 218.344C121.934 220.168 119.502 221.64 116.782 221.64C113.774 221.64 111.534 219.656 111.534 216.776C111.534 213.352 114.798 211.88 118.094 211.88ZM118.158 218.024C119.758 218.024 121.966 217.16 123.47 215.688V215.08C121.71 214.76 119.854 214.6 118.318 214.6C116.91 214.6 115.854 215.272 115.854 216.424C115.854 217.48 116.814 218.024 118.158 218.024ZM138.155 221H133.963V197H138.155V221ZM162.265 204.52C165.273 204.52 167.225 206.024 168.121 208.424C169.401 206.504 171.961 204.52 174.649 204.52C178.809 204.52 181.017 207.368 181.017 211.592V221H176.793V212.104C176.793 209.992 175.545 208.424 173.209 208.424C171.001 208.424 168.633 209.992 168.633 213.032V221H164.409V212.104C164.409 209.992 163.161 208.424 160.825 208.424C158.617 208.424 156.249 209.96 156.249 213.032V221H152.025V205H156.249V208.392C157.305 206.504 159.481 204.52 162.265 204.52ZM194.898 217.768C197.074 217.768 199.058 217.352 201.33 216.168L202.578 219.496C200.434 220.584 197.426 221.576 194.482 221.576C188.53 221.576 184.594 217.8 184.594 213C184.594 207.656 189.138 204.456 194.482 204.456C199.346 204.456 202.994 207.624 202.994 211.944C202.994 212.648 202.898 213.384 202.706 214.12H188.946C189.554 216.456 191.89 217.768 194.898 217.768ZM194.226 208.008C191.474 208.008 189.682 209.064 189.042 211.016H198.738C198.322 209.128 196.722 208.008 194.226 208.008ZM213.564 221.544C209.18 221.544 205.5 218.344 205.5 213.16C205.5 208.36 209.532 204.424 214.908 204.424C216.636 204.424 218.844 205.064 220.444 205.576V197H224.668V221H220.444V217.448C219.388 219.656 216.828 221.544 213.564 221.544ZM214.812 217.608C217.628 217.608 220.444 215.624 220.444 212.552V209.096C218.588 208.552 216.796 208.136 214.844 208.136C211.964 208.136 209.756 210.312 209.756 213.128C209.756 216.008 211.964 217.608 214.812 217.608ZM233.687 205V221H229.527V205H233.687ZM229.079 200.392C229.079 199.016 230.199 197.896 231.607 197.896C233.015 197.896 234.135 199.016 234.135 200.392C234.135 201.8 233.015 202.92 231.607 202.92C230.199 202.92 229.079 201.8 229.079 200.392ZM244.156 211.88C245.884 211.88 248.156 212.392 249.532 212.872V211.016C249.532 209.352 248.444 208.232 246.428 208.232C244.764 208.232 242.332 208.968 239.996 209.832L238.94 205.992C240.924 205.352 244.284 204.36 246.812 204.36C251.196 204.36 253.756 206.696 253.756 211.08V216.84C253.756 217.32 254.076 217.608 254.524 217.608C255.004 217.608 255.836 217.256 256.764 216.776L257.628 220.04C255.868 221 253.948 221.64 252.636 221.64C250.492 221.64 249.596 220.136 249.532 218.344C247.996 220.168 245.564 221.64 242.844 221.64C239.836 221.64 237.596 219.656 237.596 216.776C237.596 213.352 240.86 211.88 244.156 211.88ZM244.22 218.024C245.82 218.024 248.028 217.16 249.532 215.688V215.08C247.772 214.76 245.916 214.6 244.38 214.6C242.972 214.6 241.916 215.272 241.916 216.424C241.916 217.48 242.876 218.024 244.22 218.024Z" fill="#E6D0FE"></path></svg> 