<?xml version="1.0" encoding="UTF-8"?> <svg xmlns="http://www.w3.org/2000/svg" width="400" height="600" viewBox="0 0 400 600" fill="none"> <rect width="400" height="600" rx="20" fill="#36BB71"></rect> <path d="M47.296 84.136L60.8 101H65.952V78.6H61.536V95.464L48.032 78.6H42.88V101H47.296V84.136ZM80.4918 97.768C77.4838 97.768 75.1478 96.456 74.5398 94.12H88.2998C88.4918 93.384 88.5878 92.648 88.5878 91.944C88.5878 87.624 84.9398 84.456 80.0758 84.456C74.7318 84.456 70.1878 87.656 70.1878 93C70.1878 97.8 74.1238 101.576 80.0758 101.576C83.0198 101.576 86.0278 100.584 88.1718 99.496L86.9237 96.168C84.6518 97.352 82.6678 97.768 80.4918 97.768ZM79.8198 88.008C82.3158 88.008 83.9158 89.128 84.3318 91.016H74.6358C75.2758 89.064 77.0677 88.008 79.8198 88.008ZM94.39 85H89.75L97.302 101H101.942L109.526 85H104.822L99.638 96.232L94.39 85ZM121.179 97.768C118.171 97.768 115.835 96.456 115.227 94.12H128.987C129.179 93.384 129.275 92.648 129.275 91.944C129.275 87.624 125.627 84.456 120.763 84.456C115.419 84.456 110.875 87.656 110.875 93C110.875 97.8 114.811 101.576 120.763 101.576C123.707 101.576 126.715 100.584 128.859 99.496L127.611 96.168C125.339 97.352 123.355 97.768 121.179 97.768ZM120.507 88.008C123.003 88.008 124.603 89.128 125.019 91.016H115.323C115.963 89.064 117.755 88.008 120.507 88.008ZM142.982 84.456C140.198 84.456 137.99 86.824 137.062 88.552V85H132.838V101H137.062V93.064C137.062 90.12 139.91 88.392 142.566 88.392C143.174 88.392 144.006 88.584 144.774 88.936L145.67 85.096C144.87 84.712 143.878 84.456 142.982 84.456ZM166.436 88.424C168.964 88.424 170.276 89.992 170.276 92.264V101H174.5V91.752C174.5 87.4 172.004 84.52 167.652 84.52C164.612 84.52 162.244 86.472 161.124 88.552V77.288H156.9V101H161.124V93.064C161.124 89.896 163.78 88.424 166.436 88.424ZM184.75 91.88C181.454 91.88 178.19 93.352 178.19 96.776C178.19 99.656 180.43 101.64 183.438 101.64C186.158 101.64 188.59 100.168 190.126 98.344C190.19 100.136 191.086 101.64 193.23 101.64C194.542 101.64 196.462 101 198.222 100.04L197.358 96.776C196.43 97.256 195.598 97.608 195.118 97.608C194.67 97.608 194.35 97.32 194.35 96.84V91.08C194.35 86.696 191.79 84.36 187.406 84.36C184.878 84.36 181.518 85.352 179.534 85.992L180.59 89.832C182.926 88.968 185.358 88.232 187.022 88.232C189.038 88.232 190.126 89.352 190.126 91.016V92.872C188.75 92.392 186.478 91.88 184.75 91.88ZM184.814 98.024C183.47 98.024 182.51 97.48 182.51 96.424C182.51 95.272 183.566 94.6 184.974 94.6C186.51 94.6 188.366 94.76 190.126 95.08V95.688C188.622 97.16 186.414 98.024 184.814 98.024ZM202.859 85H198.219L205.771 101H210.411L217.995 85H213.291L208.107 96.232L202.859 85ZM229.648 97.768C226.64 97.768 224.304 96.456 223.696 94.12H237.456C237.648 93.384 237.744 92.648 237.744 91.944C237.744 87.624 234.096 84.456 229.232 84.456C223.888 84.456 219.344 87.656 219.344 93C219.344 97.8 223.28 101.576 229.232 101.576C232.176 101.576 235.184 100.584 237.328 99.496L236.08 96.168C233.808 97.352 231.824 97.768 229.648 97.768ZM228.976 88.008C231.472 88.008 233.072 89.128 233.488 91.016H223.792C224.432 89.064 226.224 88.008 228.976 88.008ZM255.265 78.6H250.849V101H255.265V78.6ZM278.867 97.768C275.859 97.768 273.523 96.456 272.915 94.12H286.675C286.867 93.384 286.963 92.648 286.963 91.944C286.963 87.624 283.315 84.456 278.451 84.456C273.107 84.456 268.563 87.656 268.563 93C268.563 97.8 272.499 101.576 278.451 101.576C281.395 101.576 284.403 100.584 286.547 99.496L285.299 96.168C283.027 97.352 281.043 97.768 278.867 97.768ZM278.195 88.008C280.691 88.008 282.291 89.128 282.707 91.016H273.011C273.651 89.064 275.443 88.008 278.195 88.008ZM292.765 85H288.125L295.677 101H300.317L307.901 85H303.197L298.013 96.232L292.765 85ZM319.554 97.768C316.546 97.768 314.21 96.456 313.602 94.12H327.362C327.554 93.384 327.65 92.648 327.65 91.944C327.65 87.624 324.002 84.456 319.138 84.456C313.794 84.456 309.25 87.656 309.25 93C309.25 97.8 313.186 101.576 319.138 101.576C322.082 101.576 325.09 100.584 327.234 99.496L325.986 96.168C323.714 97.352 321.73 97.768 319.554 97.768ZM318.882 88.008C321.378 88.008 322.978 89.128 323.394 91.016H313.698C314.338 89.064 316.13 88.008 318.882 88.008ZM341.357 84.456C338.573 84.456 336.365 86.824 335.437 88.552V85H331.213V101H335.437V93.064C335.437 90.12 338.285 88.392 340.941 88.392C341.549 88.392 342.381 88.584 343.149 88.936L344.045 85.096C343.245 84.712 342.253 84.456 341.357 84.456ZM49.408 141.544C52.672 141.544 55.232 139.656 56.288 137.448V141H60.512V117H56.288V125.576C54.688 125.064 52.48 124.424 50.752 124.424C45.376 124.424 41.344 128.36 41.344 133.16C41.344 138.344 45.024 141.544 49.408 141.544ZM50.656 137.608C47.808 137.608 45.6 136.008 45.6 133.128C45.6 130.312 47.808 128.136 50.688 128.136C52.64 128.136 54.432 128.552 56.288 129.096V132.552C56.288 135.624 53.472 137.608 50.656 137.608ZM70.9062 131.88C67.6102 131.88 64.3463 133.352 64.3463 136.776C64.3463 139.656 66.5863 141.64 69.5943 141.64C72.3142 141.64 74.7463 140.168 76.2823 138.344C76.3463 140.136 77.2423 141.64 79.3863 141.64C80.6983 141.64 82.6183 141 84.3783 140.04L83.5143 136.776C82.5863 137.256 81.7543 137.608 81.2743 137.608C80.8263 137.608 80.5063 137.32 80.5063 136.84V131.08C80.5063 126.696 77.9463 124.36 73.5623 124.36C71.0343 124.36 67.6743 125.352 65.6903 125.992L66.7463 129.832C69.0823 128.968 71.5143 128.232 73.1783 128.232C75.1943 128.232 76.2823 129.352 76.2823 131.016V132.872C74.9063 132.392 72.6343 131.88 70.9062 131.88ZM70.9703 138.024C69.6263 138.024 68.6663 137.48 68.6663 136.424C68.6663 135.272 69.7223 134.6 71.1302 134.6C72.6663 134.6 74.5223 134.76 76.2823 135.08V135.688C74.7783 137.16 72.5703 138.024 70.9703 138.024ZM85.015 128.68H88.055V134.888C88.055 138.92 90.199 141.544 94.167 141.544C95.863 141.544 98.135 140.808 99.479 140.104L98.551 136.488C97.527 137.128 96.119 137.64 94.871 137.64C93.207 137.64 92.279 136.456 92.279 134.728V128.68H98.935V125H92.279V120.2H88.759L88.183 125.128L85.015 125.32V128.68ZM111.929 137.768C108.921 137.768 106.585 136.456 105.977 134.12H119.737C119.929 133.384 120.025 132.648 120.025 131.944C120.025 127.624 116.377 124.456 111.513 124.456C106.169 124.456 101.625 127.656 101.625 133C101.625 137.8 105.561 141.576 111.513 141.576C114.457 141.576 117.465 140.584 119.609 139.496L118.361 136.168C116.089 137.352 114.105 137.768 111.929 137.768ZM111.257 128.008C113.753 128.008 115.353 129.128 115.769 131.016H106.073C106.713 129.064 108.505 128.008 111.257 128.008ZM130.595 141.544C133.86 141.544 136.42 139.656 137.476 137.448V141H141.7V117H137.476V125.576C135.876 125.064 133.668 124.424 131.94 124.424C126.564 124.424 122.532 128.36 122.532 133.16C122.532 138.344 126.212 141.544 130.595 141.544ZM131.844 137.608C128.996 137.608 126.788 136.008 126.788 133.128C126.788 130.312 128.996 128.136 131.876 128.136C133.828 128.136 135.62 128.552 137.476 129.096V132.552C137.476 135.624 134.66 137.608 131.844 137.608ZM153.796 128.68H156.836V134.888C156.836 138.92 158.98 141.544 162.948 141.544C164.644 141.544 166.916 140.808 168.26 140.104L167.332 136.488C166.308 137.128 164.9 137.64 163.652 137.64C161.988 137.64 161.06 136.456 161.06 134.728V128.68H167.716V125H161.06V120.2H157.54L156.964 125.128L153.796 125.32V128.68ZM189.703 141H193.991L200.999 125H196.519L191.847 135.976L187.207 125H182.791L178.151 136.008L173.511 125H168.934L175.943 141H180.263L184.999 130.056L189.703 141ZM212.171 124.456C206.827 124.456 202.219 127.496 202.219 132.84C202.219 137.64 206.379 141.576 212.171 141.576C217.963 141.576 222.123 137.64 222.123 132.84C222.123 127.496 217.515 124.456 212.171 124.456ZM212.171 128.136C215.499 128.136 217.867 129.864 217.867 132.84C217.867 135.528 215.339 137.928 212.171 137.928C209.003 137.928 206.475 135.528 206.475 132.84C206.475 129.864 208.843 128.136 212.171 128.136ZM246.035 124.456C242.771 124.456 240.211 126.344 239.155 128.552V125H234.931V148.68H239.155V140.456C240.723 140.936 242.931 141.576 244.691 141.576C250.067 141.576 254.099 137.64 254.099 132.84C254.099 127.656 250.419 124.456 246.035 124.456ZM244.787 128.392C247.635 128.392 249.843 129.96 249.843 132.84C249.843 135.528 247.507 137.864 244.755 137.864C242.771 137.864 240.979 137.448 239.155 136.904V133.064C239.155 130.12 241.939 128.392 244.787 128.392ZM267.086 137.768C264.078 137.768 261.742 136.456 261.134 134.12H274.894C275.086 133.384 275.182 132.648 275.182 131.944C275.182 127.624 271.534 124.456 266.67 124.456C261.326 124.456 256.782 127.656 256.782 133C256.782 137.8 260.718 141.576 266.67 141.576C269.614 141.576 272.622 140.584 274.766 139.496L273.517 136.168C271.246 137.352 269.262 137.768 267.086 137.768ZM266.414 128.008C268.91 128.008 270.51 129.128 270.926 131.016H261.23C261.87 129.064 263.661 128.008 266.414 128.008ZM287.64 124.456C282.296 124.456 277.688 127.496 277.688 132.84C277.688 137.64 281.848 141.576 287.64 141.576C293.432 141.576 297.592 137.64 297.592 132.84C297.592 127.496 292.984 124.456 287.64 124.456ZM287.64 128.136C290.968 128.136 293.336 129.864 293.336 132.84C293.336 135.528 290.808 137.928 287.64 137.928C284.472 137.928 281.944 135.528 281.944 132.84C281.944 129.864 284.312 128.136 287.64 128.136ZM312.442 124.456C309.178 124.456 306.618 126.344 305.562 128.552V125H301.338V148.68H305.562V140.456C307.13 140.936 309.338 141.576 311.098 141.576C316.474 141.576 320.506 137.64 320.506 132.84C320.506 127.656 316.826 124.456 312.442 124.456ZM311.194 128.392C314.042 128.392 316.25 129.96 316.25 132.84C316.25 135.528 313.914 137.864 311.162 137.864C309.178 137.864 307.385 137.448 305.562 136.904V133.064C305.562 130.12 308.345 128.392 311.194 128.392ZM328.436 141V117H324.244V141H328.436ZM342.492 137.768C339.484 137.768 337.148 136.456 336.54 134.12H350.3C350.492 133.384 350.588 132.648 350.588 131.944C350.588 127.624 346.94 124.456 342.076 124.456C336.732 124.456 332.188 127.656 332.188 133C332.188 137.8 336.124 141.576 342.076 141.576C345.02 141.576 348.028 140.584 350.172 139.496L348.924 136.168C346.652 137.352 344.668 137.768 342.492 137.768ZM341.82 128.008C344.316 128.008 345.916 129.128 346.332 131.016H336.636C337.276 129.064 339.068 128.008 341.82 128.008ZM48 171.88C44.704 171.88 41.44 173.352 41.44 176.776C41.44 179.656 43.68 181.64 46.688 181.64C49.408 181.64 51.84 180.168 53.376 178.344C53.44 180.136 54.336 181.64 56.48 181.64C57.792 181.64 59.712 181 61.472 180.04L60.608 176.776C59.68 177.256 58.848 177.608 58.368 177.608C57.92 177.608 57.6 177.32 57.6 176.84V171.08C57.6 166.696 55.04 164.36 50.656 164.36C48.128 164.36 44.768 165.352 42.784 165.992L43.84 169.832C46.176 168.968 48.608 168.232 50.272 168.232C52.288 168.232 53.376 169.352 53.376 171.016V172.872C52 172.392 49.728 171.88 48 171.88ZM48.064 178.024C46.72 178.024 45.76 177.48 45.76 176.424C45.76 175.272 46.816 174.6 48.224 174.6C49.76 174.6 51.616 174.76 53.376 175.08V175.688C51.872 177.16 49.664 178.024 48.064 178.024ZM62.1088 168.68H65.1488V174.888C65.1488 178.92 67.2928 181.544 71.2608 181.544C72.9568 181.544 75.2288 180.808 76.5728 180.104L75.6448 176.488C74.6208 177.128 73.2128 177.64 71.9648 177.64C70.3008 177.64 69.3728 176.456 69.3728 174.728V168.68H76.0288V165H69.3728V160.2H65.8528L65.2768 165.128L62.1088 165.32V168.68ZM87.0775 168.68H90.1175V174.888C90.1175 178.92 92.2615 181.544 96.2295 181.544C97.9255 181.544 100.198 180.808 101.542 180.104L100.614 176.488C99.5895 177.128 98.1815 177.64 96.9335 177.64C95.2695 177.64 94.3415 176.456 94.3415 174.728V168.68H100.998V165H94.3415V160.2H90.8215L90.2455 165.128L87.0775 165.32V168.68ZM114.28 168.424C116.808 168.424 118.12 169.992 118.12 172.264V181H122.344V171.752C122.344 167.4 119.848 164.52 115.496 164.52C112.456 164.52 110.088 166.472 108.968 168.552V157.288H104.744V181H108.968V173.064C108.968 169.896 111.624 168.424 114.28 168.424ZM136.242 177.768C133.234 177.768 130.898 176.456 130.29 174.12H144.05C144.242 173.384 144.338 172.648 144.338 171.944C144.338 167.624 140.69 164.456 135.826 164.456C130.482 164.456 125.938 167.656 125.938 173C125.938 177.8 129.874 181.576 135.826 181.576C138.77 181.576 141.778 180.584 143.922 179.496L142.674 176.168C140.402 177.352 138.418 177.768 136.242 177.768ZM135.57 168.008C138.066 168.008 139.666 169.128 140.082 171.016H130.386C131.026 169.064 132.818 168.008 135.57 168.008ZM171.107 165.576C169.219 164.936 166.243 164.392 163.715 164.392C159.171 164.392 155.939 166.376 155.939 169.512C155.939 175.752 167.843 173.64 167.843 176.168C167.843 177.288 166.243 177.928 163.939 177.928C161.475 177.928 158.979 177.16 156.867 176.232L155.618 179.56C157.795 180.712 160.771 181.64 163.779 181.64C167.683 181.64 172.003 179.624 172.003 176.04C172.003 169.8 160.099 172.008 160.099 169.352C160.099 168.392 161.763 168.072 163.875 168.072C165.923 168.072 167.907 168.488 169.987 169.288L171.107 165.576ZM181.281 171.88C177.985 171.88 174.721 173.352 174.721 176.776C174.721 179.656 176.961 181.64 179.969 181.64C182.689 181.64 185.121 180.168 186.657 178.344C186.721 180.136 187.617 181.64 189.761 181.64C191.073 181.64 192.993 181 194.753 180.04L193.889 176.776C192.961 177.256 192.129 177.608 191.649 177.608C191.201 177.608 190.881 177.32 190.881 176.84V171.08C190.881 166.696 188.321 164.36 183.937 164.36C181.409 164.36 178.049 165.352 176.065 165.992L177.121 169.832C179.457 168.968 181.889 168.232 183.553 168.232C185.569 168.232 186.657 169.352 186.657 171.016V172.872C185.281 172.392 183.009 171.88 181.281 171.88ZM181.345 178.024C180.001 178.024 179.041 177.48 179.041 176.424C179.041 175.272 180.097 174.6 181.505 174.6C183.041 174.6 184.897 174.76 186.657 175.08V175.688C185.153 177.16 182.945 178.024 181.345 178.024ZM207.39 164.52C204.606 164.52 202.43 166.504 201.374 168.392V165H197.15V181H201.374V173.032C201.374 169.96 203.742 168.424 205.95 168.424C208.286 168.424 209.534 169.992 209.534 172.104V181H213.758V173.032C213.758 169.992 216.126 168.424 218.334 168.424C220.67 168.424 221.918 169.992 221.918 172.104V181H226.142V171.592C226.142 167.368 223.934 164.52 219.774 164.52C217.086 164.52 214.526 166.504 213.246 168.424C212.35 166.024 210.398 164.52 207.39 164.52ZM240.023 177.768C237.015 177.768 234.679 176.456 234.071 174.12H247.831C248.023 173.384 248.119 172.648 248.119 171.944C248.119 167.624 244.471 164.456 239.607 164.456C234.263 164.456 229.719 167.656 229.719 173C229.719 177.8 233.655 181.576 239.607 181.576C242.551 181.576 245.559 180.584 247.703 179.496L246.455 176.168C244.183 177.352 242.199 177.768 240.023 177.768ZM239.351 168.008C241.847 168.008 243.447 169.128 243.863 171.016H234.167C234.807 169.064 236.599 168.008 239.351 168.008ZM258.984 168.68H262.024V174.888C262.024 178.92 264.168 181.544 268.136 181.544C269.832 181.544 272.104 180.808 273.448 180.104L272.52 176.488C271.496 177.128 270.088 177.64 268.84 177.64C267.176 177.64 266.248 176.456 266.248 174.728V168.68H272.904V165H266.248V160.2H262.728L262.152 165.128L258.984 165.32V168.68ZM280.874 165H276.714V181H280.874V165ZM276.266 160.392C276.266 161.8 277.386 162.92 278.794 162.92C280.202 162.92 281.322 161.8 281.322 160.392C281.322 159.016 280.202 157.896 278.794 157.896C277.386 157.896 276.266 159.016 276.266 160.392ZM295.984 164.52C293.2 164.52 291.024 166.504 289.968 168.392V165H285.744V181H289.968V173.032C289.968 169.96 292.336 168.424 294.544 168.424C296.88 168.424 298.128 169.992 298.128 172.104V181H302.352V173.032C302.352 169.992 304.72 168.424 306.928 168.424C309.264 168.424 310.512 169.992 310.512 172.104V181H314.736V171.592C314.736 167.368 312.528 164.52 308.368 164.52C305.68 164.52 303.12 166.504 301.84 168.424C300.944 166.024 298.992 164.52 295.984 164.52ZM328.617 177.768C325.609 177.768 323.273 176.456 322.665 174.12H336.425C336.617 173.384 336.713 172.648 336.713 171.944C336.713 167.624 333.065 164.456 328.201 164.456C322.857 164.456 318.313 167.656 318.313 173C318.313 177.8 322.249 181.576 328.201 181.576C331.145 181.576 334.153 180.584 336.297 179.496L335.049 176.168C332.777 177.352 330.793 177.768 328.617 177.768ZM327.945 168.008C330.441 168.008 332.041 169.128 332.457 171.016H322.761C323.401 169.064 325.193 168.008 327.945 168.008Z" fill="#CDFFE3"></path> <path d="M46.3 247.4C48.016 247.4 49.432 248.012 50.548 249.236C51.676 250.448 52.24 251.936 52.24 253.7C52.24 255.464 51.676 256.958 50.548 258.182C49.432 259.394 48.016 260 46.3 260H41.44V247.4H46.3ZM46.3 258.812C47.68 258.812 48.808 258.32 49.684 257.336C50.572 256.352 51.016 255.14 51.016 253.7C51.016 252.26 50.572 251.048 49.684 250.064C48.808 249.08 47.68 248.588 46.3 248.588H42.7V258.812H46.3ZM55.4211 248.84C55.2531 249.008 55.0491 249.092 54.8091 249.092C54.5691 249.092 54.3651 249.008 54.1971 248.84C54.0291 248.672 53.9451 248.468 53.9451 248.228C53.9451 247.988 54.0291 247.784 54.1971 247.616C54.3651 247.448 54.5691 247.364 54.8091 247.364C55.0491 247.364 55.2531 247.448 55.4211 247.616C55.5891 247.784 55.6731 247.988 55.6731 248.228C55.6731 248.468 55.5891 248.672 55.4211 248.84ZM54.2151 260V251H55.4031V260H54.2151ZM65.6641 247.4H66.8521V260H65.6641V258.236C64.8361 259.556 63.6241 260.216 62.0281 260.216C60.7441 260.216 59.6461 259.76 58.7341 258.848C57.8341 257.936 57.3841 256.82 57.3841 255.5C57.3841 254.18 57.8341 253.064 58.7341 252.152C59.6461 251.24 60.7441 250.784 62.0281 250.784C63.6241 250.784 64.8361 251.444 65.6641 252.764V247.4ZM59.5981 258.038C60.2821 258.722 61.1221 259.064 62.1181 259.064C63.1141 259.064 63.9541 258.722 64.6381 258.038C65.3221 257.342 65.6641 256.496 65.6641 255.5C65.6641 254.504 65.3221 253.664 64.6381 252.98C63.9541 252.284 63.1141 251.936 62.1181 251.936C61.1221 251.936 60.2821 252.284 59.5981 252.98C58.9141 253.664 58.5721 254.504 58.5721 255.5C58.5721 256.496 58.9141 257.342 59.5981 258.038ZM74.8034 253.358C74.8034 253.766 74.9834 254.09 75.3434 254.33C75.7034 254.57 76.1414 254.756 76.6574 254.888C77.1734 255.02 77.6894 255.17 78.2054 255.338C78.7214 255.494 79.1594 255.764 79.5194 256.148C79.8794 256.52 80.0594 257.012 80.0594 257.624C80.0594 258.392 79.7534 259.016 79.1414 259.496C78.5414 259.976 77.7614 260.216 76.8014 260.216C75.9374 260.216 75.1994 260.024 74.5874 259.64C73.9874 259.256 73.5674 258.758 73.3274 258.146L74.3354 257.552C74.5034 258.02 74.8034 258.392 75.2354 258.668C75.6794 258.932 76.2014 259.064 76.8014 259.064C77.3894 259.064 77.8814 258.95 78.2774 258.722C78.6734 258.482 78.8714 258.116 78.8714 257.624C78.8714 257.216 78.6914 256.892 78.3314 256.652C77.9714 256.412 77.5334 256.226 77.0174 256.094C76.5014 255.962 75.9854 255.818 75.4694 255.662C74.9534 255.494 74.5154 255.224 74.1554 254.852C73.7954 254.468 73.6154 253.97 73.6154 253.358C73.6154 252.626 73.9034 252.014 74.4794 251.522C75.0674 251.03 75.8054 250.784 76.6934 250.784C77.4254 250.784 78.0674 250.952 78.6194 251.288C79.1714 251.612 79.5794 252.056 79.8434 252.62L78.8534 253.196C78.5054 252.356 77.7854 251.936 76.6934 251.936C76.1774 251.936 75.7334 252.062 75.3614 252.314C74.9894 252.554 74.8034 252.902 74.8034 253.358ZM89.3196 258.866C88.4076 259.766 87.2916 260.216 85.9716 260.216C84.6516 260.216 83.5296 259.766 82.6056 258.866C81.6936 257.954 81.2376 256.832 81.2376 255.5C81.2376 254.168 81.6936 253.052 82.6056 252.152C83.5296 251.24 84.6516 250.784 85.9716 250.784C87.2916 250.784 88.4076 251.24 89.3196 252.152C90.2436 253.052 90.7056 254.168 90.7056 255.5C90.7056 256.832 90.2436 257.954 89.3196 258.866ZM83.4516 258.038C84.1356 258.722 84.9756 259.064 85.9716 259.064C86.9676 259.064 87.8076 258.722 88.4916 258.038C89.1756 257.342 89.5176 256.496 89.5176 255.5C89.5176 254.504 89.1756 253.664 88.4916 252.98C87.8076 252.284 86.9676 251.936 85.9716 251.936C84.9756 251.936 84.1356 252.284 83.4516 252.98C82.7676 253.664 82.4256 254.504 82.4256 255.5C82.4256 256.496 82.7676 257.342 83.4516 258.038ZM102.288 250.784C103.296 250.784 104.106 251.108 104.718 251.756C105.342 252.404 105.654 253.28 105.654 254.384V260H104.466V254.384C104.466 253.604 104.262 253.004 103.854 252.584C103.458 252.152 102.93 251.936 102.27 251.936C101.526 251.936 100.92 252.188 100.452 252.692C99.9956 253.184 99.7676 253.958 99.7676 255.014V260H98.5796V254.384C98.5796 253.592 98.3876 252.986 98.0036 252.566C97.6316 252.146 97.1216 251.936 96.4736 251.936C95.7536 251.936 95.1416 252.188 94.6376 252.692C94.1336 253.196 93.8816 253.97 93.8816 255.014V260H92.6936V251H93.8816V252.314C94.5296 251.294 95.4476 250.784 96.6356 250.784C97.9316 250.784 98.8436 251.33 99.3716 252.422C100.02 251.33 100.992 250.784 102.288 250.784ZM112.109 250.784C113.441 250.784 114.515 251.258 115.331 252.206C116.159 253.142 116.573 254.252 116.573 255.536C116.573 255.668 116.561 255.854 116.537 256.094H108.635C108.755 257.006 109.139 257.732 109.787 258.272C110.447 258.8 111.257 259.064 112.217 259.064C112.901 259.064 113.489 258.926 113.981 258.65C114.485 258.362 114.863 257.99 115.115 257.534L116.159 258.146C115.763 258.782 115.223 259.286 114.539 259.658C113.855 260.03 113.075 260.216 112.199 260.216C110.783 260.216 109.631 259.772 108.743 258.884C107.855 257.996 107.411 256.868 107.411 255.5C107.411 254.156 107.849 253.034 108.725 252.134C109.601 251.234 110.729 250.784 112.109 250.784ZM112.109 251.936C111.173 251.936 110.387 252.218 109.751 252.782C109.127 253.334 108.755 254.054 108.635 254.942H115.349C115.229 253.994 114.863 253.256 114.251 252.728C113.639 252.2 112.925 251.936 112.109 251.936ZM123.287 250.784C124.571 250.784 125.663 251.24 126.563 252.152C127.475 253.064 127.931 254.18 127.931 255.5C127.931 256.82 127.475 257.936 126.563 258.848C125.663 259.76 124.571 260.216 123.287 260.216C121.691 260.216 120.479 259.556 119.651 258.236V260H118.463V247.4H119.651V252.764C120.479 251.444 121.691 250.784 123.287 250.784ZM120.677 258.038C121.361 258.722 122.201 259.064 123.197 259.064C124.193 259.064 125.033 258.722 125.717 258.038C126.401 257.342 126.743 256.496 126.743 255.5C126.743 254.504 126.401 253.664 125.717 252.98C125.033 252.284 124.193 251.936 123.197 251.936C122.201 251.936 121.361 252.284 120.677 252.98C119.993 253.664 119.651 254.504 119.651 255.5C119.651 256.496 119.993 257.342 120.677 258.038ZM137.448 258.866C136.536 259.766 135.42 260.216 134.1 260.216C132.78 260.216 131.658 259.766 130.734 258.866C129.822 257.954 129.366 256.832 129.366 255.5C129.366 254.168 129.822 253.052 130.734 252.152C131.658 251.24 132.78 250.784 134.1 250.784C135.42 250.784 136.536 251.24 137.448 252.152C138.372 253.052 138.834 254.168 138.834 255.5C138.834 256.832 138.372 257.954 137.448 258.866ZM131.58 258.038C132.264 258.722 133.104 259.064 134.1 259.064C135.096 259.064 135.936 258.722 136.62 258.038C137.304 257.342 137.646 256.496 137.646 255.5C137.646 254.504 137.304 253.664 136.62 252.98C135.936 252.284 135.096 251.936 134.1 251.936C133.104 251.936 132.264 252.284 131.58 252.98C130.896 253.664 130.554 254.504 130.554 255.5C130.554 256.496 130.896 257.342 131.58 258.038ZM148.562 247.4H149.751V260H148.562V258.236C147.735 259.556 146.523 260.216 144.927 260.216C143.643 260.216 142.545 259.76 141.633 258.848C140.733 257.936 140.283 256.82 140.283 255.5C140.283 254.18 140.733 253.064 141.633 252.152C142.545 251.24 143.643 250.784 144.927 250.784C146.523 250.784 147.735 251.444 148.562 252.764V247.4ZM142.497 258.038C143.181 258.722 144.021 259.064 145.017 259.064C146.013 259.064 146.853 258.722 147.537 258.038C148.221 257.342 148.562 256.496 148.562 255.5C148.562 254.504 148.221 253.664 147.537 252.98C146.853 252.284 146.013 251.936 145.017 251.936C144.021 251.936 143.181 252.284 142.497 252.98C141.813 253.664 141.471 254.504 141.471 255.5C141.471 256.496 141.813 257.342 142.497 258.038ZM158.746 251H160.006L156.154 260.828C155.806 261.716 155.308 262.412 154.66 262.916C154.024 263.432 153.31 263.66 152.518 263.6V262.484C153.598 262.604 154.42 261.98 154.984 260.612L155.218 260.054L151.186 251H152.446L155.83 258.542L158.746 251ZM173.484 258.866C172.572 259.766 171.456 260.216 170.136 260.216C168.816 260.216 167.694 259.766 166.77 258.866C165.858 257.954 165.402 256.832 165.402 255.5C165.402 254.168 165.858 253.052 166.77 252.152C167.694 251.24 168.816 250.784 170.136 250.784C171.456 250.784 172.572 251.24 173.484 252.152C174.408 253.052 174.87 254.168 174.87 255.5C174.87 256.832 174.408 257.954 173.484 258.866ZM167.616 258.038C168.3 258.722 169.14 259.064 170.136 259.064C171.132 259.064 171.972 258.722 172.656 258.038C173.34 257.342 173.682 256.496 173.682 255.5C173.682 254.504 173.34 253.664 172.656 252.98C171.972 252.284 171.132 251.936 170.136 251.936C169.14 251.936 168.3 252.284 167.616 252.98C166.932 253.664 166.59 254.504 166.59 255.5C166.59 256.496 166.932 257.342 167.616 258.038ZM181.006 248.336C180.13 248.264 179.476 248.414 179.044 248.786C178.624 249.158 178.414 249.776 178.414 250.64V251H181.006V252.152H178.414V260H177.226V252.152H175.696V251H177.226V250.64C177.226 249.464 177.55 248.576 178.198 247.976C178.858 247.364 179.794 247.1 181.006 247.184V248.336ZM191.542 252.152H188.95V257.606C188.95 258.098 189.046 258.452 189.238 258.668C189.43 258.872 189.718 258.98 190.102 258.992C190.486 258.992 190.966 258.98 191.542 258.956V260C190.282 260.192 189.334 260.102 188.698 259.73C188.074 259.358 187.762 258.65 187.762 257.606V252.152H185.872V251H187.762V248.84L188.95 248.48V251H191.542V252.152ZM197.734 250.784C198.826 250.784 199.684 251.12 200.308 251.792C200.944 252.452 201.262 253.346 201.262 254.474V260H200.074V254.474C200.074 253.67 199.858 253.046 199.426 252.602C199.006 252.158 198.406 251.936 197.626 251.936C196.762 251.936 196.06 252.212 195.52 252.764C194.98 253.304 194.71 254.144 194.71 255.284V260H193.522V247.4H194.71V252.404C195.382 251.324 196.39 250.784 197.734 250.784ZM207.717 250.784C209.049 250.784 210.123 251.258 210.939 252.206C211.767 253.142 212.181 254.252 212.181 255.536C212.181 255.668 212.169 255.854 212.145 256.094H204.243C204.363 257.006 204.747 257.732 205.395 258.272C206.055 258.8 206.865 259.064 207.825 259.064C208.509 259.064 209.097 258.926 209.589 258.65C210.093 258.362 210.471 257.99 210.723 257.534L211.767 258.146C211.371 258.782 210.831 259.286 210.147 259.658C209.463 260.03 208.683 260.216 207.807 260.216C206.391 260.216 205.239 259.772 204.351 258.884C203.463 257.996 203.019 256.868 203.019 255.5C203.019 254.156 203.457 253.034 204.333 252.134C205.209 251.234 206.337 250.784 207.717 250.784ZM207.717 251.936C206.781 251.936 205.995 252.218 205.359 252.782C204.735 253.334 204.363 254.054 204.243 254.942H210.957C210.837 253.994 210.471 253.256 209.859 252.728C209.247 252.2 208.533 251.936 207.717 251.936ZM223.665 250.784C224.673 250.784 225.483 251.108 226.095 251.756C226.719 252.404 227.031 253.28 227.031 254.384V260H225.843V254.384C225.843 253.604 225.639 253.004 225.231 252.584C224.835 252.152 224.307 251.936 223.647 251.936C222.903 251.936 222.297 252.188 221.829 252.692C221.373 253.184 221.145 253.958 221.145 255.014V260H219.957V254.384C219.957 253.592 219.765 252.986 219.381 252.566C219.009 252.146 218.499 251.936 217.851 251.936C217.131 251.936 216.519 252.188 216.015 252.692C215.511 253.196 215.259 253.97 215.259 255.014V260H214.071V251H215.259V252.314C215.907 251.294 216.825 250.784 218.013 250.784C219.309 250.784 220.221 251.33 220.749 252.422C221.397 251.33 222.369 250.784 223.665 250.784ZM241.1 260H239.516L235.016 255.662V260H233.828V247.4H235.016V254.978L239.3 251H240.92L236.276 255.32L241.1 260ZM246.935 250.784C248.027 250.784 248.885 251.12 249.509 251.792C250.145 252.452 250.463 253.346 250.463 254.474V260H249.275V254.474C249.275 253.67 249.059 253.046 248.627 252.602C248.207 252.158 247.607 251.936 246.827 251.936C245.963 251.936 245.261 252.212 244.721 252.764C244.181 253.304 243.911 254.144 243.911 255.284V260H242.723V251H243.911V252.404C244.583 251.324 245.591 250.784 246.935 250.784ZM260.302 258.866C259.39 259.766 258.274 260.216 256.954 260.216C255.634 260.216 254.512 259.766 253.588 258.866C252.676 257.954 252.22 256.832 252.22 255.5C252.22 254.168 252.676 253.052 253.588 252.152C254.512 251.24 255.634 250.784 256.954 250.784C258.274 250.784 259.39 251.24 260.302 252.152C261.226 253.052 261.688 254.168 261.688 255.5C261.688 256.832 261.226 257.954 260.302 258.866ZM254.434 258.038C255.118 258.722 255.958 259.064 256.954 259.064C257.95 259.064 258.79 258.722 259.474 258.038C260.158 257.342 260.5 256.496 260.5 255.5C260.5 254.504 260.158 253.664 259.474 252.98C258.79 252.284 257.95 251.936 256.954 251.936C255.958 251.936 255.118 252.284 254.434 252.98C253.75 253.664 253.408 254.504 253.408 255.5C253.408 256.496 253.75 257.342 254.434 258.038ZM274.16 251H275.384L272.612 260H271.316L268.994 252.746L266.672 260H265.376L262.604 251H263.828L266.042 258.47L268.4 251H269.588L271.946 258.47L274.16 251ZM289.416 251H290.604V260H289.416V258.236C288.588 259.556 287.376 260.216 285.78 260.216C284.496 260.216 283.398 259.76 282.486 258.848C281.586 257.936 281.136 256.82 281.136 255.5C281.136 254.18 281.586 253.064 282.486 252.152C283.398 251.24 284.496 250.784 285.78 250.784C287.376 250.784 288.588 251.444 289.416 252.764V251ZM283.35 258.038C284.034 258.722 284.874 259.064 285.87 259.064C286.866 259.064 287.706 258.722 288.39 258.038C289.074 257.342 289.416 256.496 289.416 255.5C289.416 254.504 289.074 253.664 288.39 252.98C287.706 252.284 286.866 251.936 285.87 251.936C284.874 251.936 284.034 252.284 283.35 252.98C282.666 253.664 282.324 254.504 282.324 255.5C282.324 256.496 282.666 257.342 283.35 258.038ZM297.943 250.784C299.227 250.784 300.319 251.24 301.219 252.152C302.131 253.064 302.587 254.18 302.587 255.5C302.587 256.82 302.131 257.936 301.219 258.848C300.319 259.76 299.227 260.216 297.943 260.216C296.347 260.216 295.135 259.556 294.307 258.236V260H293.119V247.4H294.307V252.764C295.135 251.444 296.347 250.784 297.943 250.784ZM295.333 258.038C296.017 258.722 296.857 259.064 297.853 259.064C298.849 259.064 299.689 258.722 300.373 258.038C301.057 257.342 301.399 256.496 301.399 255.5C301.399 254.504 301.057 253.664 300.373 252.98C299.689 252.284 298.849 251.936 297.853 251.936C296.857 251.936 296.017 252.284 295.333 252.98C294.649 253.664 294.307 254.504 294.307 255.5C294.307 256.496 294.649 257.342 295.333 258.038ZM312.105 258.866C311.193 259.766 310.077 260.216 308.757 260.216C307.437 260.216 306.315 259.766 305.391 258.866C304.479 257.954 304.023 256.832 304.023 255.5C304.023 254.168 304.479 253.052 305.391 252.152C306.315 251.24 307.437 250.784 308.757 250.784C310.077 250.784 311.193 251.24 312.105 252.152C313.029 253.052 313.491 254.168 313.491 255.5C313.491 256.832 313.029 257.954 312.105 258.866ZM306.237 258.038C306.921 258.722 307.761 259.064 308.757 259.064C309.753 259.064 310.593 258.722 311.277 258.038C311.961 257.342 312.303 256.496 312.303 255.5C312.303 254.504 311.961 253.664 311.277 252.98C310.593 252.284 309.753 251.936 308.757 251.936C307.761 251.936 306.921 252.284 306.237 252.98C305.553 253.664 305.211 254.504 305.211 255.5C305.211 256.496 305.553 257.342 306.237 258.038ZM321.815 251H323.003V260H321.815V258.596C321.143 259.676 320.135 260.216 318.791 260.216C317.699 260.216 316.835 259.886 316.199 259.226C315.575 258.554 315.263 257.654 315.263 256.526V251H316.451V256.526C316.451 257.33 316.661 257.954 317.081 258.398C317.513 258.842 318.119 259.064 318.899 259.064C319.763 259.064 320.465 258.794 321.005 258.254C321.545 257.702 321.815 256.856 321.815 255.716V251ZM330.286 252.152H327.694V257.606C327.694 258.098 327.79 258.452 327.982 258.668C328.174 258.872 328.462 258.98 328.846 258.992C329.23 258.992 329.71 258.98 330.286 258.956V260C329.026 260.192 328.078 260.102 327.442 259.73C326.818 259.358 326.506 258.65 326.506 257.606V252.152H324.616V251H326.506V248.84L327.694 248.48V251H330.286V252.152ZM49 278H50.188V287H49V285.236C48.172 286.556 46.96 287.216 45.364 287.216C44.08 287.216 42.982 286.76 42.07 285.848C41.17 284.936 40.72 283.82 40.72 282.5C40.72 281.18 41.17 280.064 42.07 279.152C42.982 278.24 44.08 277.784 45.364 277.784C46.96 277.784 48.172 278.444 49 279.764V278ZM42.934 285.038C43.618 285.722 44.458 286.064 45.454 286.064C46.45 286.064 47.29 285.722 47.974 285.038C48.658 284.342 49 283.496 49 282.5C49 281.504 48.658 280.664 47.974 279.98C47.29 279.284 46.45 278.936 45.454 278.936C44.458 278.936 43.618 279.284 42.934 279.98C42.25 280.664 41.908 281.504 41.908 282.5C41.908 283.496 42.25 284.342 42.934 285.038ZM56.9154 277.784C58.0074 277.784 58.8654 278.12 59.4894 278.792C60.1254 279.452 60.4434 280.346 60.4434 281.474V287H59.2554V281.474C59.2554 280.67 59.0394 280.046 58.6074 279.602C58.1874 279.158 57.5874 278.936 56.8074 278.936C55.9434 278.936 55.2414 279.212 54.7014 279.764C54.1614 280.304 53.8914 281.144 53.8914 282.284V287H52.7034V278H53.8914V279.404C54.5634 278.324 55.5714 277.784 56.9154 277.784ZM70.2825 285.866C69.3705 286.766 68.2545 287.216 66.9345 287.216C65.6145 287.216 64.4925 286.766 63.5685 285.866C62.6565 284.954 62.2005 283.832 62.2005 282.5C62.2005 281.168 62.6565 280.052 63.5685 279.152C64.4925 278.24 65.6145 277.784 66.9345 277.784C68.2545 277.784 69.3705 278.24 70.2825 279.152C71.2065 280.052 71.6685 281.168 71.6685 282.5C71.6685 283.832 71.2065 284.954 70.2825 285.866ZM64.4145 285.038C65.0985 285.722 65.9385 286.064 66.9345 286.064C67.9305 286.064 68.7705 285.722 69.4545 285.038C70.1385 284.342 70.4805 283.496 70.4805 282.5C70.4805 281.504 70.1385 280.664 69.4545 279.98C68.7705 279.284 67.9305 278.936 66.9345 278.936C65.9385 278.936 65.0985 279.284 64.4145 279.98C63.7305 280.664 63.3885 281.504 63.3885 282.5C63.3885 283.496 63.7305 284.342 64.4145 285.038ZM78.2507 279.152H75.6587V284.606C75.6587 285.098 75.7547 285.452 75.9467 285.668C76.1387 285.872 76.4267 285.98 76.8107 285.992C77.1947 285.992 77.6747 285.98 78.2507 285.956V287C76.9907 287.192 76.0427 287.102 75.4067 286.73C74.7827 286.358 74.4707 285.65 74.4707 284.606V279.152H72.5807V278H74.4707V275.84L75.6587 275.48V278H78.2507V279.152ZM84.4427 277.784C85.5347 277.784 86.3927 278.12 87.0167 278.792C87.6527 279.452 87.9707 280.346 87.9707 281.474V287H86.7827V281.474C86.7827 280.67 86.5667 280.046 86.1347 279.602C85.7147 279.158 85.1147 278.936 84.3347 278.936C83.4707 278.936 82.7687 279.212 82.2287 279.764C81.6887 280.304 81.4187 281.144 81.4187 282.284V287H80.2307V274.4H81.4187V279.404C82.0907 278.324 83.0987 277.784 84.4427 277.784ZM94.4258 277.784C95.7578 277.784 96.8318 278.258 97.6478 279.206C98.4758 280.142 98.8898 281.252 98.8898 282.536C98.8898 282.668 98.8778 282.854 98.8538 283.094H90.9518C91.0718 284.006 91.4558 284.732 92.1038 285.272C92.7638 285.8 93.5738 286.064 94.5338 286.064C95.2178 286.064 95.8058 285.926 96.2978 285.65C96.8018 285.362 97.1798 284.99 97.4318 284.534L98.4758 285.146C98.0798 285.782 97.5398 286.286 96.8558 286.658C96.1718 287.03 95.3918 287.216 94.5158 287.216C93.0998 287.216 91.9478 286.772 91.0598 285.884C90.1718 284.996 89.7278 283.868 89.7278 282.5C89.7278 281.156 90.1658 280.034 91.0418 279.134C91.9178 278.234 93.0458 277.784 94.4258 277.784ZM94.4258 278.936C93.4898 278.936 92.7038 279.218 92.0678 279.782C91.4438 280.334 91.0718 281.054 90.9518 281.942H97.6658C97.5458 280.994 97.1798 280.256 96.5678 279.728C95.9558 279.2 95.2418 278.936 94.4258 278.936ZM101.968 279.494C102.52 278.402 103.468 277.856 104.812 277.856V279.008C103.996 279.008 103.318 279.248 102.778 279.728C102.238 280.208 101.968 280.964 101.968 281.996V287H100.78V278H101.968V279.494ZM118.482 285.866C117.57 286.766 116.454 287.216 115.134 287.216C113.814 287.216 112.692 286.766 111.768 285.866C110.856 284.954 110.4 283.832 110.4 282.5C110.4 281.168 110.856 280.052 111.768 279.152C112.692 278.24 113.814 277.784 115.134 277.784C116.454 277.784 117.57 278.24 118.482 279.152C119.406 280.052 119.868 281.168 119.868 282.5C119.868 283.832 119.406 284.954 118.482 285.866ZM112.614 285.038C113.298 285.722 114.138 286.064 115.134 286.064C116.13 286.064 116.97 285.722 117.654 285.038C118.338 284.342 118.68 283.496 118.68 282.5C118.68 281.504 118.338 280.664 117.654 279.98C116.97 279.284 116.13 278.936 115.134 278.936C114.138 278.936 113.298 279.284 112.614 279.98C111.93 280.664 111.588 281.504 111.588 282.5C111.588 283.496 111.93 284.342 112.614 285.038ZM126.068 277.784C127.16 277.784 128.018 278.12 128.642 278.792C129.278 279.452 129.596 280.346 129.596 281.474V287H128.408V281.474C128.408 280.67 128.192 280.046 127.76 279.602C127.34 279.158 126.74 278.936 125.96 278.936C125.096 278.936 124.394 279.212 123.854 279.764C123.314 280.304 123.044 281.144 123.044 282.284V287H121.856V278H123.044V279.404C123.716 278.324 124.724 277.784 126.068 277.784ZM136.051 277.784C137.383 277.784 138.457 278.258 139.273 279.206C140.101 280.142 140.515 281.252 140.515 282.536C140.515 282.668 140.503 282.854 140.479 283.094H132.577C132.697 284.006 133.081 284.732 133.729 285.272C134.389 285.8 135.199 286.064 136.159 286.064C136.843 286.064 137.431 285.926 137.923 285.65C138.427 285.362 138.805 284.99 139.057 284.534L140.101 285.146C139.705 285.782 139.165 286.286 138.481 286.658C137.797 287.03 137.017 287.216 136.141 287.216C134.725 287.216 133.573 286.772 132.685 285.884C131.797 284.996 131.353 283.868 131.353 282.5C131.353 281.156 131.791 280.034 132.667 279.134C133.543 278.234 134.671 277.784 136.051 277.784ZM136.051 278.936C135.115 278.936 134.329 279.218 133.693 279.782C133.069 280.334 132.697 281.054 132.577 281.942H139.291C139.171 280.994 138.805 280.256 138.193 279.728C137.581 279.2 136.867 278.936 136.051 278.936ZM144.028 283.58C144.028 282.992 144.148 282.458 144.388 281.978C144.628 281.486 144.916 281.072 145.252 280.736C145.588 280.4 145.924 280.076 146.26 279.764C146.596 279.452 146.884 279.11 147.124 278.738C147.364 278.354 147.484 277.946 147.484 277.514C147.484 276.818 147.244 276.296 146.764 275.948C146.296 275.588 145.69 275.408 144.946 275.408C143.47 275.408 142.558 276.014 142.21 277.226L141.148 276.632C141.424 275.828 141.904 275.222 142.588 274.814C143.284 274.394 144.07 274.184 144.946 274.184C146.002 274.184 146.896 274.478 147.628 275.066C148.372 275.642 148.744 276.458 148.744 277.514C148.744 278.03 148.624 278.51 148.384 278.954C148.144 279.398 147.856 279.788 147.52 280.124C147.184 280.448 146.848 280.772 146.512 281.096C146.176 281.42 145.888 281.798 145.648 282.23C145.408 282.65 145.288 283.1 145.288 283.58H144.028ZM145.36 286.892C145.168 287.084 144.934 287.18 144.658 287.18C144.382 287.18 144.148 287.084 143.956 286.892C143.764 286.7 143.668 286.466 143.668 286.19C143.668 285.914 143.764 285.68 143.956 285.488C144.148 285.296 144.382 285.2 144.658 285.2C144.934 285.2 145.168 285.296 145.36 285.488C145.552 285.68 145.648 285.914 145.648 286.19C145.648 286.466 145.552 286.7 145.36 286.892Z" fill="#CDFFE3"></path> </svg> 