<?xml version="1.0" encoding="UTF-8"?> <svg xmlns="http://www.w3.org/2000/svg" width="400" height="600" viewBox="0 0 400 600" fill="none"> <rect width="400" height="600" rx="20" fill="#EEBF38"></rect> <path d="M47.296 84.136L60.8 101H65.952V78.6H61.536V95.464L48.032 78.6H42.88V101H47.296V84.136ZM80.4918 97.768C77.4838 97.768 75.1478 96.456 74.5398 94.12H88.2998C88.4918 93.384 88.5878 92.648 88.5878 91.944C88.5878 87.624 84.9398 84.456 80.0758 84.456C74.7318 84.456 70.1878 87.656 70.1878 93C70.1878 97.8 74.1238 101.576 80.0758 101.576C83.0198 101.576 86.0278 100.584 88.1718 99.496L86.9237 96.168C84.6518 97.352 82.6678 97.768 80.4918 97.768ZM79.8198 88.008C82.3158 88.008 83.9158 89.128 84.3318 91.016H74.6358C75.2758 89.064 77.0677 88.008 79.8198 88.008ZM94.39 85H89.75L97.302 101H101.942L109.526 85H104.822L99.638 96.232L94.39 85ZM121.179 97.768C118.171 97.768 115.835 96.456 115.227 94.12H128.987C129.179 93.384 129.275 92.648 129.275 91.944C129.275 87.624 125.627 84.456 120.763 84.456C115.419 84.456 110.875 87.656 110.875 93C110.875 97.8 114.811 101.576 120.763 101.576C123.707 101.576 126.715 100.584 128.859 99.496L127.611 96.168C125.339 97.352 123.355 97.768 121.179 97.768ZM120.507 88.008C123.003 88.008 124.603 89.128 125.019 91.016H115.323C115.963 89.064 117.755 88.008 120.507 88.008ZM142.982 84.456C140.198 84.456 137.99 86.824 137.062 88.552V85H132.838V101H137.062V93.064C137.062 90.12 139.91 88.392 142.566 88.392C143.174 88.392 144.006 88.584 144.774 88.936L145.67 85.096C144.87 84.712 143.878 84.456 142.982 84.456ZM166.436 88.424C168.964 88.424 170.276 89.992 170.276 92.264V101H174.5V91.752C174.5 87.4 172.004 84.52 167.652 84.52C164.612 84.52 162.244 86.472 161.124 88.552V77.288H156.9V101H161.124V93.064C161.124 89.896 163.78 88.424 166.436 88.424ZM184.75 91.88C181.454 91.88 178.19 93.352 178.19 96.776C178.19 99.656 180.43 101.64 183.438 101.64C186.158 101.64 188.59 100.168 190.126 98.344C190.19 100.136 191.086 101.64 193.23 101.64C194.542 101.64 196.462 101 198.222 100.04L197.358 96.776C196.43 97.256 195.598 97.608 195.118 97.608C194.67 97.608 194.35 97.32 194.35 96.84V91.08C194.35 86.696 191.79 84.36 187.406 84.36C184.878 84.36 181.518 85.352 179.534 85.992L180.59 89.832C182.926 88.968 185.358 88.232 187.022 88.232C189.038 88.232 190.126 89.352 190.126 91.016V92.872C188.75 92.392 186.478 91.88 184.75 91.88ZM184.814 98.024C183.47 98.024 182.51 97.48 182.51 96.424C182.51 95.272 183.566 94.6 184.974 94.6C186.51 94.6 188.366 94.76 190.126 95.08V95.688C188.622 97.16 186.414 98.024 184.814 98.024ZM202.859 85H198.219L205.771 101H210.411L217.995 85H213.291L208.107 96.232L202.859 85ZM229.648 97.768C226.64 97.768 224.304 96.456 223.696 94.12H237.456C237.648 93.384 237.744 92.648 237.744 91.944C237.744 87.624 234.096 84.456 229.232 84.456C223.888 84.456 219.344 87.656 219.344 93C219.344 97.8 223.28 101.576 229.232 101.576C232.176 101.576 235.184 100.584 237.328 99.496L236.08 96.168C233.808 97.352 231.824 97.768 229.648 97.768ZM228.976 88.008C231.472 88.008 233.072 89.128 233.488 91.016H223.792C224.432 89.064 226.224 88.008 228.976 88.008ZM255.265 78.6H250.849V101H255.265V78.6ZM278.867 97.768C275.859 97.768 273.523 96.456 272.915 94.12H286.675C286.867 93.384 286.963 92.648 286.963 91.944C286.963 87.624 283.315 84.456 278.451 84.456C273.107 84.456 268.563 87.656 268.563 93C268.563 97.8 272.499 101.576 278.451 101.576C281.395 101.576 284.403 100.584 286.547 99.496L285.299 96.168C283.027 97.352 281.043 97.768 278.867 97.768ZM278.195 88.008C280.691 88.008 282.291 89.128 282.707 91.016H273.011C273.651 89.064 275.443 88.008 278.195 88.008ZM292.765 85H288.125L295.677 101H300.317L307.901 85H303.197L298.013 96.232L292.765 85ZM319.554 97.768C316.546 97.768 314.21 96.456 313.602 94.12H327.362C327.554 93.384 327.65 92.648 327.65 91.944C327.65 87.624 324.002 84.456 319.138 84.456C313.794 84.456 309.25 87.656 309.25 93C309.25 97.8 313.186 101.576 319.138 101.576C322.082 101.576 325.09 100.584 327.234 99.496L325.986 96.168C323.714 97.352 321.73 97.768 319.554 97.768ZM318.882 88.008C321.378 88.008 322.978 89.128 323.394 91.016H313.698C314.338 89.064 316.13 88.008 318.882 88.008ZM341.357 84.456C338.573 84.456 336.365 86.824 335.437 88.552V85H331.213V101H335.437V93.064C335.437 90.12 338.285 88.392 340.941 88.392C341.549 88.392 342.381 88.584 343.149 88.936L344.045 85.096C343.245 84.712 342.253 84.456 341.357 84.456ZM40.64 128.68H43.68V134.888C43.68 138.92 45.824 141.544 49.792 141.544C51.488 141.544 53.76 140.808 55.104 140.104L54.176 136.488C53.152 137.128 51.744 137.64 50.496 137.64C48.832 137.64 47.904 136.456 47.904 134.728V128.68H54.56V125H47.904V120.2H44.384L43.808 125.128L40.64 125.32V128.68ZM67.8423 128.424C70.3703 128.424 71.6823 129.992 71.6823 132.264V141H75.9062V131.752C75.9062 127.4 73.4103 124.52 69.0583 124.52C66.0183 124.52 63.6503 126.472 62.5303 128.552V117.288H58.3063V141H62.5303V133.064C62.5303 129.896 65.1863 128.424 67.8423 128.424ZM90.7003 124.456C87.9163 124.456 85.7083 126.824 84.7803 128.552V125H80.5563V141H84.7803V133.064C84.7803 130.12 87.6283 128.392 90.2843 128.392C90.8923 128.392 91.7243 128.584 92.4923 128.936L93.3883 125.096C92.5883 124.712 91.5963 124.456 90.7003 124.456ZM104.452 124.456C99.1083 124.456 94.5003 127.496 94.5003 132.84C94.5003 137.64 98.6603 141.576 104.452 141.576C110.244 141.576 114.404 137.64 114.404 132.84C114.404 127.496 109.796 124.456 104.452 124.456ZM104.452 128.136C107.78 128.136 110.148 129.864 110.148 132.84C110.148 135.528 107.62 137.928 104.452 137.928C101.284 137.928 98.7563 135.528 98.7563 132.84C98.7563 129.864 101.124 128.136 104.452 128.136ZM136.39 141H140.678L147.686 125H143.206L138.534 135.976L133.894 125H129.478L124.838 136.008L120.198 125H115.622L122.63 141H126.95L131.686 130.056L136.39 141ZM159.499 128.424C162.027 128.424 163.339 129.992 163.339 132.264V141H167.562V131.752C167.562 127.4 165.067 124.52 160.715 124.52C157.675 124.52 155.307 126.472 154.187 128.552V125H149.963V141H154.187V133.064C154.187 129.896 156.843 128.424 159.499 128.424ZM199.515 141H203.803L210.811 125H206.331L201.659 135.976L197.019 125H192.603L187.963 136.008L183.323 125H178.747L185.755 141H190.075L194.811 130.056L199.515 141ZM218.688 131.88C215.391 131.88 212.128 133.352 212.128 136.776C212.128 139.656 214.368 141.64 217.376 141.64C220.095 141.64 222.528 140.168 224.064 138.344C224.128 140.136 225.024 141.64 227.168 141.64C228.48 141.64 230.4 141 232.16 140.04L231.296 136.776C230.368 137.256 229.536 137.608 229.056 137.608C228.608 137.608 228.288 137.32 228.288 136.84V131.08C228.288 126.696 225.728 124.36 221.344 124.36C218.816 124.36 215.456 125.352 213.472 125.992L214.528 129.832C216.864 128.968 219.296 128.232 220.96 128.232C222.976 128.232 224.064 129.352 224.064 131.016V132.872C222.688 132.392 220.416 131.88 218.688 131.88ZM218.752 138.024C217.408 138.024 216.448 137.48 216.448 136.424C216.448 135.272 217.504 134.6 218.911 134.6C220.448 134.6 222.304 134.76 224.064 135.08V135.688C222.56 137.16 220.352 138.024 218.752 138.024ZM232.796 128.68H235.836V134.888C235.836 138.92 237.98 141.544 241.948 141.544C243.644 141.544 245.916 140.808 247.26 140.104L246.332 136.488C245.308 137.128 243.9 137.64 242.652 137.64C240.988 137.64 240.06 136.456 240.06 134.728V128.68H246.716V125H240.06V120.2H236.54L235.964 125.128L232.796 125.32V128.68ZM259.711 137.768C256.703 137.768 254.367 136.456 253.759 134.12H267.519C267.711 133.384 267.807 132.648 267.807 131.944C267.807 127.624 264.159 124.456 259.295 124.456C253.951 124.456 249.407 127.656 249.407 133C249.407 137.8 253.343 141.576 259.295 141.576C262.239 141.576 265.247 140.584 267.391 139.496L266.142 136.168C263.871 137.352 261.887 137.768 259.711 137.768ZM259.039 128.008C261.535 128.008 263.135 129.128 263.551 131.016H253.855C254.495 129.064 256.286 128.008 259.039 128.008ZM281.513 124.456C278.729 124.456 276.521 126.824 275.593 128.552V125H271.369V141H275.593V133.064C275.593 130.12 278.441 128.392 281.097 128.392C281.705 128.392 282.537 128.584 283.305 128.936L284.201 125.096C283.401 124.712 282.409 124.456 281.513 124.456ZM53.376 164.456C50.208 164.456 47.68 166.344 46.624 168.552V157H42.4V179.4C44.48 180.328 48.832 181.576 52.032 181.576C57.28 181.576 61.312 177.64 61.312 172.84C61.312 167.656 57.632 164.456 53.376 164.456ZM52.128 168.392C54.912 168.392 57.056 169.96 57.056 172.84C57.056 175.528 54.72 177.864 52.096 177.864C50.144 177.864 48.48 177.544 46.624 176.936V173.064C46.624 170.12 49.44 168.392 52.128 168.392ZM73.9523 164.456C68.6083 164.456 64.0003 167.496 64.0003 172.84C64.0003 177.64 68.1603 181.576 73.9523 181.576C79.7443 181.576 83.9043 177.64 83.9043 172.84C83.9043 167.496 79.2963 164.456 73.9523 164.456ZM73.9523 168.136C77.2803 168.136 79.6483 169.864 79.6483 172.84C79.6483 175.528 77.1203 177.928 73.9523 177.928C70.7843 177.928 68.2563 175.528 68.2563 172.84C68.2563 169.864 70.6243 168.136 73.9523 168.136ZM97.89 164.52C95.106 164.52 92.93 166.504 91.874 168.392V165H87.65V181H91.874V173.032C91.874 169.96 94.242 168.424 96.45 168.424C98.786 168.424 100.034 169.992 100.034 172.104V181H104.258V173.032C104.258 169.992 106.626 168.424 108.834 168.424C111.17 168.424 112.418 169.992 112.418 172.104V181H116.642V171.592C116.642 167.368 114.434 164.52 110.274 164.52C107.586 164.52 105.026 166.504 103.746 168.424C102.85 166.024 100.898 164.52 97.89 164.52ZM132.251 164.456C129.083 164.456 126.555 166.344 125.499 168.552V157H121.275V179.4C123.355 180.328 127.707 181.576 130.907 181.576C136.155 181.576 140.187 177.64 140.187 172.84C140.187 167.656 136.507 164.456 132.251 164.456ZM131.003 168.392C133.787 168.392 135.931 169.96 135.931 172.84C135.931 175.528 133.595 177.864 130.971 177.864C129.019 177.864 127.355 177.544 125.499 176.936V173.064C125.499 170.12 128.315 168.392 131.003 168.392ZM158.075 165.576C156.187 164.936 153.211 164.392 150.683 164.392C146.139 164.392 142.907 166.376 142.907 169.512C142.907 175.752 154.811 173.64 154.811 176.168C154.811 177.288 153.211 177.928 150.907 177.928C148.443 177.928 145.947 177.16 143.835 176.232L142.587 179.56C144.763 180.712 147.739 181.64 150.747 181.64C154.651 181.64 158.971 179.624 158.971 176.04C158.971 169.8 147.067 172.008 147.067 169.352C147.067 168.392 148.731 168.072 150.843 168.072C152.891 168.072 154.875 168.488 156.955 169.288L158.075 165.576ZM179.105 160.424C180.481 160.424 181.985 160.872 183.457 161.512L184.481 157.64C182.977 157.128 181.057 156.68 179.233 156.68C175.297 156.68 172.577 159.08 172.577 162.76V165H169.953V168.68H172.609V181H176.769V168.68H183.873V165H176.609V162.952C176.609 161.224 177.569 160.424 179.105 160.424ZM196.669 164.456C193.885 164.456 191.677 166.824 190.749 168.552V165H186.525V181H190.749V173.064C190.749 170.12 193.597 168.392 196.253 168.392C196.861 168.392 197.693 168.584 198.461 168.936L199.357 165.096C198.557 164.712 197.565 164.456 196.669 164.456ZM210.421 164.456C205.077 164.456 200.469 167.496 200.469 172.84C200.469 177.64 204.629 181.576 210.421 181.576C216.213 181.576 220.373 177.64 220.373 172.84C220.373 167.496 215.765 164.456 210.421 164.456ZM210.421 168.136C213.749 168.136 216.117 169.864 216.117 172.84C216.117 175.528 213.589 177.928 210.421 177.928C207.253 177.928 204.725 175.528 204.725 172.84C204.725 169.864 207.093 168.136 210.421 168.136ZM234.359 164.52C231.575 164.52 229.399 166.504 228.343 168.392V165H224.119V181H228.343V173.032C228.343 169.96 230.711 168.424 232.919 168.424C235.255 168.424 236.503 169.992 236.503 172.104V181H240.727V173.032C240.727 169.992 243.095 168.424 245.303 168.424C247.639 168.424 248.887 169.992 248.887 172.104V181H253.111V171.592C253.111 167.368 250.903 164.52 246.743 164.52C244.055 164.52 241.495 166.504 240.215 168.424C239.319 166.024 237.367 164.52 234.359 164.52ZM272.406 171.88C269.11 171.88 265.846 173.352 265.846 176.776C265.846 179.656 268.086 181.64 271.094 181.64C273.814 181.64 276.246 180.168 277.782 178.344C277.846 180.136 278.742 181.64 280.886 181.64C282.198 181.64 284.118 181 285.878 180.04L285.014 176.776C284.086 177.256 283.254 177.608 282.774 177.608C282.326 177.608 282.006 177.32 282.006 176.84V171.08C282.006 166.696 279.446 164.36 275.062 164.36C272.534 164.36 269.174 165.352 267.19 165.992L268.246 169.832C270.582 168.968 273.014 168.232 274.678 168.232C276.694 168.232 277.782 169.352 277.782 171.016V172.872C276.406 172.392 274.134 171.88 272.406 171.88ZM272.47 178.024C271.126 178.024 270.166 177.48 270.166 176.424C270.166 175.272 271.222 174.6 272.63 174.6C274.166 174.6 276.022 174.76 277.782 175.08V175.688C276.278 177.16 274.07 178.024 272.47 178.024ZM53.376 204.456C50.208 204.456 47.68 206.344 46.624 208.552V197H42.4V219.4C44.48 220.328 48.832 221.576 52.032 221.576C57.28 221.576 61.312 217.64 61.312 212.84C61.312 207.656 57.632 204.456 53.376 204.456ZM52.128 208.392C54.912 208.392 57.056 209.96 57.056 212.84C57.056 215.528 54.72 217.864 52.096 217.864C50.144 217.864 48.48 217.544 46.624 216.936V213.064C46.624 210.12 49.44 208.392 52.128 208.392ZM70.6562 211.88C67.3602 211.88 64.0963 213.352 64.0963 216.776C64.0963 219.656 66.3363 221.64 69.3443 221.64C72.0642 221.64 74.4963 220.168 76.0323 218.344C76.0963 220.136 76.9923 221.64 79.1363 221.64C80.4483 221.64 82.3683 221 84.1283 220.04L83.2643 216.776C82.3363 217.256 81.5043 217.608 81.0243 217.608C80.5763 217.608 80.2563 217.32 80.2563 216.84V211.08C80.2563 206.696 77.6963 204.36 73.3123 204.36C70.7843 204.36 67.4243 205.352 65.4403 205.992L66.4963 209.832C68.8323 208.968 71.2643 208.232 72.9283 208.232C74.9443 208.232 76.0323 209.352 76.0323 211.016V212.872C74.6563 212.392 72.3843 211.88 70.6562 211.88ZM70.7203 218.024C69.3763 218.024 68.4163 217.48 68.4163 216.424C68.4163 215.272 69.4723 214.6 70.8802 214.6C72.4163 214.6 74.2723 214.76 76.0323 215.08V215.688C74.5283 217.16 72.3203 218.024 70.7203 218.024ZM90.717 221V197H86.525V221H90.717ZM104.357 204.456C99.013 204.456 94.469 207.656 94.469 213C94.469 217.8 98.117 221.576 104.069 221.576C107.077 221.576 109.829 220.648 112.005 219.496L110.757 216.168C108.645 217.096 106.949 217.768 104.613 217.768C101.285 217.768 98.725 215.912 98.725 212.84C98.725 209.928 101.029 208.168 104.101 208.168C106.277 208.168 108.133 208.616 110.341 209.512L111.365 205.736C109.445 205.064 107.013 204.456 104.357 204.456ZM124.109 204.456C118.765 204.456 114.157 207.496 114.157 212.84C114.157 217.64 118.317 221.576 124.109 221.576C129.901 221.576 134.061 217.64 134.061 212.84C134.061 207.496 129.453 204.456 124.109 204.456ZM124.109 208.136C127.437 208.136 129.805 209.864 129.805 212.84C129.805 215.528 127.277 217.928 124.109 217.928C120.941 217.928 118.413 215.528 118.413 212.84C118.413 209.864 120.781 208.136 124.109 208.136ZM147.342 208.424C149.87 208.424 151.182 209.992 151.182 212.264V221H155.406V211.752C155.406 207.4 152.91 204.52 148.558 204.52C145.518 204.52 143.15 206.472 142.03 208.552V205H137.806V221H142.03V213.064C142.03 209.896 144.686 208.424 147.342 208.424ZM177.496 205H172.856C171.416 208.424 169.656 212.552 167.992 216.424L162.264 205H157.656L165.912 221.224C165.912 221.256 165.848 221.32 165.848 221.384C165.048 223.176 164.152 224.936 162.456 224.936C162.232 224.936 161.592 224.872 161.016 224.776L160.792 228.84C161.336 228.936 162.04 229 162.264 229C166.776 229 168.248 225.736 169.784 222.312L177.496 205ZM193.187 205H189.027V221H193.187V205ZM188.579 200.392C188.579 201.8 189.699 202.92 191.107 202.92C192.515 202.92 193.635 201.8 193.635 200.392C193.635 199.016 192.515 197.896 191.107 197.896C189.699 197.896 188.579 199.016 188.579 200.392ZM207.592 208.424C210.12 208.424 211.432 209.992 211.432 212.264V221H215.656V211.752C215.656 207.4 213.16 204.52 208.808 204.52C205.768 204.52 203.4 206.472 202.28 208.552V205H198.056V221H202.28V213.064C202.28 209.896 204.936 208.424 207.592 208.424ZM227.609 208.68H230.649V214.888C230.649 218.92 232.793 221.544 236.761 221.544C238.457 221.544 240.729 220.808 242.073 220.104L241.145 216.488C240.121 217.128 238.713 217.64 237.465 217.64C235.801 217.64 234.873 216.456 234.873 214.728V208.68H241.529V205H234.873V200.2H231.353L230.777 205.128L227.609 205.32V208.68ZM254.811 208.424C257.339 208.424 258.651 209.992 258.651 212.264V221H262.875V211.752C262.875 207.4 260.379 204.52 256.027 204.52C252.987 204.52 250.619 206.472 249.499 208.552V197.288H245.275V221H249.499V213.064C249.499 209.896 252.155 208.424 254.811 208.424ZM276.773 217.768C273.765 217.768 271.429 216.456 270.821 214.12H284.581C284.773 213.384 284.869 212.648 284.869 211.944C284.869 207.624 281.221 204.456 276.357 204.456C271.013 204.456 266.469 207.656 266.469 213C266.469 217.8 270.405 221.576 276.357 221.576C279.301 221.576 282.309 220.584 284.453 219.496L283.205 216.168C280.933 217.352 278.949 217.768 276.773 217.768ZM276.101 208.008C278.597 208.008 280.197 209.128 280.613 211.016H270.917C271.557 209.064 273.349 208.008 276.101 208.008ZM51.232 244.456C45.888 244.456 41.344 247.656 41.344 253C41.344 257.8 44.992 261.576 50.944 261.576C53.952 261.576 56.704 260.648 58.88 259.496L57.632 256.168C55.52 257.096 53.824 257.768 51.488 257.768C48.16 257.768 45.6 255.912 45.6 252.84C45.6 249.928 47.904 248.168 50.976 248.168C53.152 248.168 55.008 248.616 57.216 249.512L58.24 245.736C56.32 245.064 53.888 244.456 51.232 244.456ZM71.6235 248.424C74.1515 248.424 75.4635 249.992 75.4635 252.264V261H79.6875V251.752C79.6875 247.4 77.1915 244.52 72.8395 244.52C69.7995 244.52 67.4315 246.472 66.3115 248.552V237.288H62.0875V261H66.3115V253.064C66.3115 249.896 68.9675 248.424 71.6235 248.424ZM88.5615 245H84.4015V261H88.5615V245ZM83.9535 240.392C83.9535 241.8 85.0735 242.92 86.4815 242.92C87.8895 242.92 89.0095 241.8 89.0095 240.392C89.0095 239.016 87.8895 237.896 86.4815 237.896C85.0735 237.896 83.9535 239.016 83.9535 240.392ZM97.6233 261V237H93.4313V261H97.6233ZM109.439 261.544C112.703 261.544 115.263 259.656 116.319 257.448V261H120.543V237H116.319V245.576C114.719 245.064 112.511 244.424 110.783 244.424C105.407 244.424 101.375 248.36 101.375 253.16C101.375 258.344 105.055 261.544 109.439 261.544ZM110.687 257.608C107.839 257.608 105.631 256.008 105.631 253.128C105.631 250.312 107.839 248.136 110.719 248.136C112.671 248.136 114.463 248.552 116.319 249.096V252.552C116.319 255.624 113.503 257.608 110.687 257.608ZM134.874 248.424C137.402 248.424 138.714 249.992 138.714 252.264V261H142.938V251.752C142.938 247.4 140.442 244.52 136.09 244.52C133.05 244.52 130.682 246.472 129.562 248.552V237.288H125.338V261H129.562V253.064C129.562 249.896 132.218 248.424 134.874 248.424ZM156.484 244.456C151.14 244.456 146.532 247.496 146.532 252.84C146.532 257.64 150.692 261.576 156.484 261.576C162.276 261.576 166.436 257.64 166.436 252.84C166.436 247.496 161.828 244.456 156.484 244.456ZM156.484 248.136C159.812 248.136 162.18 249.864 162.18 252.84C162.18 255.528 159.652 257.928 156.484 257.928C153.316 257.928 150.788 255.528 150.788 252.84C150.788 249.864 153.156 248.136 156.484 248.136ZM179.077 244.456C173.733 244.456 169.125 247.496 169.125 252.84C169.125 257.64 173.285 261.576 179.077 261.576C184.869 261.576 189.029 257.64 189.029 252.84C189.029 247.496 184.421 244.456 179.077 244.456ZM179.077 248.136C182.405 248.136 184.773 249.864 184.773 252.84C184.773 255.528 182.245 257.928 179.077 257.928C175.909 257.928 173.381 255.528 173.381 252.84C173.381 249.864 175.749 248.136 179.077 248.136ZM199.783 261.544C203.047 261.544 205.607 259.656 206.663 257.448V261H210.887V237H206.663V245.576C205.063 245.064 202.855 244.424 201.127 244.424C195.751 244.424 191.719 248.36 191.719 253.16C191.719 258.344 195.399 261.544 199.783 261.544ZM201.031 257.608C198.183 257.608 195.975 256.008 195.975 253.128C195.975 250.312 198.183 248.136 201.063 248.136C203.015 248.136 204.807 248.552 206.663 249.096V252.552C206.663 255.624 203.847 257.608 201.031 257.608Z" fill="#FFFAED"></path> </svg> 