<?xml version="1.0" encoding="UTF-8"?> <svg xmlns="http://www.w3.org/2000/svg" width="400" height="600" viewBox="0 0 400 600" fill="none"><rect width="400" height="600" rx="20" fill="#EEBF38"></rect><path d="M47.296 84.136V101H42.88V78.6H48.032L61.536 95.464V78.6H65.952V101H60.8L47.296 84.136ZM80.4918 97.768C82.6678 97.768 84.6518 97.352 86.9237 96.168L88.1718 99.496C86.0278 100.584 83.0198 101.576 80.0758 101.576C74.1238 101.576 70.1878 97.8 70.1878 93C70.1878 87.656 74.7318 84.456 80.0758 84.456C84.9398 84.456 88.5878 87.624 88.5878 91.944C88.5878 92.648 88.4918 93.384 88.2998 94.12H74.5398C75.1478 96.456 77.4838 97.768 80.4918 97.768ZM79.8198 88.008C77.0677 88.008 75.2758 89.064 74.6358 91.016H84.3318C83.9158 89.128 82.3158 88.008 79.8198 88.008ZM94.39 85L99.638 96.232L104.822 85H109.526L101.942 101H97.302L89.75 85H94.39ZM121.179 97.768C123.355 97.768 125.339 97.352 127.611 96.168L128.859 99.496C126.715 100.584 123.707 101.576 120.763 101.576C114.811 101.576 110.875 97.8 110.875 93C110.875 87.656 115.419 84.456 120.763 84.456C125.627 84.456 129.275 87.624 129.275 91.944C129.275 92.648 129.179 93.384 128.987 94.12H115.227C115.835 96.456 118.171 97.768 121.179 97.768ZM120.507 88.008C117.755 88.008 115.963 89.064 115.323 91.016H125.019C124.603 89.128 123.003 88.008 120.507 88.008ZM142.982 84.456C143.878 84.456 144.87 84.712 145.67 85.096L144.774 88.936C144.006 88.584 143.174 88.392 142.566 88.392C139.91 88.392 137.062 90.12 137.062 93.064V101H132.838V85H137.062V88.552C137.99 86.824 140.198 84.456 142.982 84.456ZM166.436 88.424C163.78 88.424 161.124 89.896 161.124 93.064V101H156.9V77.288H161.124V88.552C162.244 86.472 164.612 84.52 167.652 84.52C172.004 84.52 174.5 87.4 174.5 91.752V101H170.276V92.264C170.276 89.992 168.964 88.424 166.436 88.424ZM184.75 91.88C186.478 91.88 188.75 92.392 190.126 92.872V91.016C190.126 89.352 189.038 88.232 187.022 88.232C185.358 88.232 182.926 88.968 180.59 89.832L179.534 85.992C181.518 85.352 184.878 84.36 187.406 84.36C191.79 84.36 194.35 86.696 194.35 91.08V96.84C194.35 97.32 194.67 97.608 195.118 97.608C195.598 97.608 196.43 97.256 197.358 96.776L198.222 100.04C196.462 101 194.542 101.64 193.23 101.64C191.086 101.64 190.19 100.136 190.126 98.344C188.59 100.168 186.158 101.64 183.438 101.64C180.43 101.64 178.19 99.656 178.19 96.776C178.19 93.352 181.454 91.88 184.75 91.88ZM184.814 98.024C186.414 98.024 188.622 97.16 190.126 95.688V95.08C188.366 94.76 186.51 94.6 184.974 94.6C183.566 94.6 182.51 95.272 182.51 96.424C182.51 97.48 183.47 98.024 184.814 98.024ZM202.859 85L208.107 96.232L213.291 85H217.995L210.411 101H205.771L198.219 85H202.859ZM229.648 97.768C231.824 97.768 233.808 97.352 236.08 96.168L237.328 99.496C235.184 100.584 232.176 101.576 229.232 101.576C223.28 101.576 219.344 97.8 219.344 93C219.344 87.656 223.888 84.456 229.232 84.456C234.096 84.456 237.744 87.624 237.744 91.944C237.744 92.648 237.648 93.384 237.456 94.12H223.696C224.304 96.456 226.64 97.768 229.648 97.768ZM228.976 88.008C226.224 88.008 224.432 89.064 223.792 91.016H233.488C233.072 89.128 231.472 88.008 228.976 88.008ZM255.265 78.6V101H250.849V78.6H255.265ZM278.867 97.768C281.043 97.768 283.027 97.352 285.299 96.168L286.547 99.496C284.403 100.584 281.395 101.576 278.451 101.576C272.499 101.576 268.563 97.8 268.563 93C268.563 87.656 273.107 84.456 278.451 84.456C283.315 84.456 286.963 87.624 286.963 91.944C286.963 92.648 286.867 93.384 286.675 94.12H272.915C273.523 96.456 275.859 97.768 278.867 97.768ZM278.195 88.008C275.443 88.008 273.651 89.064 273.011 91.016H282.707C282.291 89.128 280.691 88.008 278.195 88.008ZM292.765 85L298.013 96.232L303.197 85H307.901L300.317 101H295.677L288.125 85H292.765ZM319.554 97.768C321.73 97.768 323.714 97.352 325.986 96.168L327.234 99.496C325.09 100.584 322.082 101.576 319.138 101.576C313.186 101.576 309.25 97.8 309.25 93C309.25 87.656 313.794 84.456 319.138 84.456C324.002 84.456 327.65 87.624 327.65 91.944C327.65 92.648 327.554 93.384 327.362 94.12H313.602C314.21 96.456 316.546 97.768 319.554 97.768ZM318.882 88.008C316.13 88.008 314.338 89.064 313.698 91.016H323.394C322.978 89.128 321.378 88.008 318.882 88.008ZM341.357 84.456C342.253 84.456 343.245 84.712 344.045 85.096L343.149 88.936C342.381 88.584 341.549 88.392 340.941 88.392C338.285 88.392 335.437 90.12 335.437 93.064V101H331.213V85H335.437V88.552C336.365 86.824 338.573 84.456 341.357 84.456ZM40.64 128.68V125.32L43.808 125.128L44.384 120.2H47.904V125H54.56V128.68H47.904V134.728C47.904 136.456 48.832 137.64 50.496 137.64C51.744 137.64 53.152 137.128 54.176 136.488L55.104 140.104C53.76 140.808 51.488 141.544 49.792 141.544C45.824 141.544 43.68 138.92 43.68 134.888V128.68H40.64ZM67.8423 128.424C65.1863 128.424 62.5303 129.896 62.5303 133.064V141H58.3063V117.288H62.5303V128.552C63.6503 126.472 66.0183 124.52 69.0583 124.52C73.4103 124.52 75.9062 127.4 75.9062 131.752V141H71.6823V132.264C71.6823 129.992 70.3703 128.424 67.8423 128.424ZM90.7003 124.456C91.5963 124.456 92.5883 124.712 93.3883 125.096L92.4923 128.936C91.7243 128.584 90.8923 128.392 90.2843 128.392C87.6283 128.392 84.7803 130.12 84.7803 133.064V141H80.5563V125H84.7803V128.552C85.7083 126.824 87.9163 124.456 90.7003 124.456ZM104.452 124.456C109.796 124.456 114.404 127.496 114.404 132.84C114.404 137.64 110.244 141.576 104.452 141.576C98.6603 141.576 94.5003 137.64 94.5003 132.84C94.5003 127.496 99.1083 124.456 104.452 124.456ZM104.452 128.136C101.124 128.136 98.7563 129.864 98.7563 132.84C98.7563 135.528 101.284 137.928 104.452 137.928C107.62 137.928 110.148 135.528 110.148 132.84C110.148 129.864 107.78 128.136 104.452 128.136ZM136.39 141L131.686 130.056L126.95 141H122.63L115.622 125H120.198L124.838 136.008L129.478 125H133.894L138.534 135.976L143.206 125H147.686L140.678 141H136.39ZM159.499 128.424C156.843 128.424 154.187 129.896 154.187 133.064V141H149.963V125H154.187V128.552C155.307 126.472 157.675 124.52 160.715 124.52C165.067 124.52 167.562 127.4 167.562 131.752V141H163.339V132.264C163.339 129.992 162.027 128.424 159.499 128.424ZM199.515 141L194.811 130.056L190.075 141H185.755L178.747 125H183.323L187.963 136.008L192.603 125H197.019L201.659 135.976L206.331 125H210.811L203.803 141H199.515ZM218.688 131.88C220.416 131.88 222.688 132.392 224.064 132.872V131.016C224.064 129.352 222.976 128.232 220.96 128.232C219.296 128.232 216.864 128.968 214.528 129.832L213.472 125.992C215.456 125.352 218.816 124.36 221.344 124.36C225.728 124.36 228.288 126.696 228.288 131.08V136.84C228.288 137.32 228.608 137.608 229.056 137.608C229.536 137.608 230.368 137.256 231.296 136.776L232.16 140.04C230.4 141 228.48 141.64 227.168 141.64C225.024 141.64 224.128 140.136 224.064 138.344C222.528 140.168 220.095 141.64 217.376 141.64C214.368 141.64 212.128 139.656 212.128 136.776C212.128 133.352 215.391 131.88 218.688 131.88ZM218.752 138.024C220.352 138.024 222.56 137.16 224.064 135.688V135.08C222.304 134.76 220.448 134.6 218.911 134.6C217.504 134.6 216.448 135.272 216.448 136.424C216.448 137.48 217.408 138.024 218.752 138.024ZM232.796 128.68V125.32L235.964 125.128L236.54 120.2H240.06V125H246.716V128.68H240.06V134.728C240.06 136.456 240.988 137.64 242.652 137.64C243.9 137.64 245.308 137.128 246.332 136.488L247.26 140.104C245.916 140.808 243.644 141.544 241.948 141.544C237.98 141.544 235.836 138.92 235.836 134.888V128.68H232.796ZM259.711 137.768C261.887 137.768 263.871 137.352 266.142 136.168L267.391 139.496C265.247 140.584 262.239 141.576 259.295 141.576C253.343 141.576 249.407 137.8 249.407 133C249.407 127.656 253.951 124.456 259.295 124.456C264.159 124.456 267.807 127.624 267.807 131.944C267.807 132.648 267.711 133.384 267.519 134.12H253.759C254.367 136.456 256.703 137.768 259.711 137.768ZM259.039 128.008C256.286 128.008 254.495 129.064 253.855 131.016H263.551C263.135 129.128 261.535 128.008 259.039 128.008ZM281.513 124.456C282.409 124.456 283.401 124.712 284.201 125.096L283.305 128.936C282.537 128.584 281.705 128.392 281.097 128.392C278.441 128.392 275.593 130.12 275.593 133.064V141H271.369V125H275.593V128.552C276.521 126.824 278.729 124.456 281.513 124.456ZM53.376 164.456C57.632 164.456 61.312 167.656 61.312 172.84C61.312 177.64 57.28 181.576 52.032 181.576C48.832 181.576 44.48 180.328 42.4 179.4V157H46.624V168.552C47.68 166.344 50.208 164.456 53.376 164.456ZM52.128 168.392C49.44 168.392 46.624 170.12 46.624 173.064V176.936C48.48 177.544 50.144 177.864 52.096 177.864C54.72 177.864 57.056 175.528 57.056 172.84C57.056 169.96 54.912 168.392 52.128 168.392ZM73.9523 164.456C79.2963 164.456 83.9043 167.496 83.9043 172.84C83.9043 177.64 79.7443 181.576 73.9523 181.576C68.1603 181.576 64.0003 177.64 64.0003 172.84C64.0003 167.496 68.6083 164.456 73.9523 164.456ZM73.9523 168.136C70.6243 168.136 68.2563 169.864 68.2563 172.84C68.2563 175.528 70.7843 177.928 73.9523 177.928C77.1203 177.928 79.6483 175.528 79.6483 172.84C79.6483 169.864 77.2803 168.136 73.9523 168.136ZM97.89 164.52C100.898 164.52 102.85 166.024 103.746 168.424C105.026 166.504 107.586 164.52 110.274 164.52C114.434 164.52 116.642 167.368 116.642 171.592V181H112.418V172.104C112.418 169.992 111.17 168.424 108.834 168.424C106.626 168.424 104.258 169.992 104.258 173.032V181H100.034V172.104C100.034 169.992 98.786 168.424 96.45 168.424C94.242 168.424 91.874 169.96 91.874 173.032V181H87.65V165H91.874V168.392C92.93 166.504 95.106 164.52 97.89 164.52ZM132.251 164.456C136.507 164.456 140.187 167.656 140.187 172.84C140.187 177.64 136.155 181.576 130.907 181.576C127.707 181.576 123.355 180.328 121.275 179.4V157H125.499V168.552C126.555 166.344 129.083 164.456 132.251 164.456ZM131.003 168.392C128.315 168.392 125.499 170.12 125.499 173.064V176.936C127.355 177.544 129.019 177.864 130.971 177.864C133.595 177.864 135.931 175.528 135.931 172.84C135.931 169.96 133.787 168.392 131.003 168.392ZM158.075 165.576L156.955 169.288C154.875 168.488 152.891 168.072 150.843 168.072C148.731 168.072 147.067 168.392 147.067 169.352C147.067 172.008 158.971 169.8 158.971 176.04C158.971 179.624 154.651 181.64 150.747 181.64C147.739 181.64 144.763 180.712 142.587 179.56L143.835 176.232C145.947 177.16 148.443 177.928 150.907 177.928C153.211 177.928 154.811 177.288 154.811 176.168C154.811 173.64 142.907 175.752 142.907 169.512C142.907 166.376 146.139 164.392 150.683 164.392C153.211 164.392 156.187 164.936 158.075 165.576ZM179.105 160.424C177.569 160.424 176.609 161.224 176.609 162.952V165H183.873V168.68H176.769V181H172.609V168.68H169.953V165H172.577V162.76C172.577 159.08 175.297 156.68 179.233 156.68C181.057 156.68 182.977 157.128 184.481 157.64L183.457 161.512C181.985 160.872 180.481 160.424 179.105 160.424ZM196.669 164.456C197.565 164.456 198.557 164.712 199.357 165.096L198.461 168.936C197.693 168.584 196.861 168.392 196.253 168.392C193.597 168.392 190.749 170.12 190.749 173.064V181H186.525V165H190.749V168.552C191.677 166.824 193.885 164.456 196.669 164.456ZM210.421 164.456C215.765 164.456 220.373 167.496 220.373 172.84C220.373 177.64 216.213 181.576 210.421 181.576C204.629 181.576 200.469 177.64 200.469 172.84C200.469 167.496 205.077 164.456 210.421 164.456ZM210.421 168.136C207.093 168.136 204.725 169.864 204.725 172.84C204.725 175.528 207.253 177.928 210.421 177.928C213.589 177.928 216.117 175.528 216.117 172.84C216.117 169.864 213.749 168.136 210.421 168.136ZM234.359 164.52C237.367 164.52 239.319 166.024 240.215 168.424C241.495 166.504 244.055 164.52 246.743 164.52C250.903 164.52 253.111 167.368 253.111 171.592V181H248.887V172.104C248.887 169.992 247.639 168.424 245.303 168.424C243.095 168.424 240.727 169.992 240.727 173.032V181H236.503V172.104C236.503 169.992 235.255 168.424 232.919 168.424C230.711 168.424 228.343 169.96 228.343 173.032V181H224.119V165H228.343V168.392C229.399 166.504 231.575 164.52 234.359 164.52ZM272.406 171.88C274.134 171.88 276.406 172.392 277.782 172.872V171.016C277.782 169.352 276.694 168.232 274.678 168.232C273.014 168.232 270.582 168.968 268.246 169.832L267.19 165.992C269.174 165.352 272.534 164.36 275.062 164.36C279.446 164.36 282.006 166.696 282.006 171.08V176.84C282.006 177.32 282.326 177.608 282.774 177.608C283.254 177.608 284.086 177.256 285.014 176.776L285.878 180.04C284.118 181 282.198 181.64 280.886 181.64C278.742 181.64 277.846 180.136 277.782 178.344C276.246 180.168 273.814 181.64 271.094 181.64C268.086 181.64 265.846 179.656 265.846 176.776C265.846 173.352 269.11 171.88 272.406 171.88ZM272.47 178.024C274.07 178.024 276.278 177.16 277.782 175.688V175.08C276.022 174.76 274.166 174.6 272.63 174.6C271.222 174.6 270.166 175.272 270.166 176.424C270.166 177.48 271.126 178.024 272.47 178.024ZM53.376 204.456C57.632 204.456 61.312 207.656 61.312 212.84C61.312 217.64 57.28 221.576 52.032 221.576C48.832 221.576 44.48 220.328 42.4 219.4V197H46.624V208.552C47.68 206.344 50.208 204.456 53.376 204.456ZM52.128 208.392C49.44 208.392 46.624 210.12 46.624 213.064V216.936C48.48 217.544 50.144 217.864 52.096 217.864C54.72 217.864 57.056 215.528 57.056 212.84C57.056 209.96 54.912 208.392 52.128 208.392ZM70.6562 211.88C72.3843 211.88 74.6563 212.392 76.0323 212.872V211.016C76.0323 209.352 74.9443 208.232 72.9283 208.232C71.2643 208.232 68.8323 208.968 66.4963 209.832L65.4403 205.992C67.4243 205.352 70.7843 204.36 73.3123 204.36C77.6963 204.36 80.2563 206.696 80.2563 211.08V216.84C80.2563 217.32 80.5763 217.608 81.0243 217.608C81.5043 217.608 82.3363 217.256 83.2643 216.776L84.1283 220.04C82.3683 221 80.4483 221.64 79.1363 221.64C76.9923 221.64 76.0963 220.136 76.0323 218.344C74.4963 220.168 72.0642 221.64 69.3443 221.64C66.3363 221.64 64.0963 219.656 64.0963 216.776C64.0963 213.352 67.3602 211.88 70.6562 211.88ZM70.7203 218.024C72.3203 218.024 74.5283 217.16 76.0323 215.688V215.08C74.2723 214.76 72.4163 214.6 70.8802 214.6C69.4723 214.6 68.4163 215.272 68.4163 216.424C68.4163 217.48 69.3763 218.024 70.7203 218.024ZM90.717 221H86.525V197H90.717V221ZM104.357 204.456C107.013 204.456 109.445 205.064 111.365 205.736L110.341 209.512C108.133 208.616 106.277 208.168 104.101 208.168C101.029 208.168 98.725 209.928 98.725 212.84C98.725 215.912 101.285 217.768 104.613 217.768C106.949 217.768 108.645 217.096 110.757 216.168L112.005 219.496C109.829 220.648 107.077 221.576 104.069 221.576C98.117 221.576 94.469 217.8 94.469 213C94.469 207.656 99.013 204.456 104.357 204.456ZM124.109 204.456C129.453 204.456 134.061 207.496 134.061 212.84C134.061 217.64 129.901 221.576 124.109 221.576C118.317 221.576 114.157 217.64 114.157 212.84C114.157 207.496 118.765 204.456 124.109 204.456ZM124.109 208.136C120.781 208.136 118.413 209.864 118.413 212.84C118.413 215.528 120.941 217.928 124.109 217.928C127.277 217.928 129.805 215.528 129.805 212.84C129.805 209.864 127.437 208.136 124.109 208.136ZM147.342 208.424C144.686 208.424 142.03 209.896 142.03 213.064V221H137.806V205H142.03V208.552C143.15 206.472 145.518 204.52 148.558 204.52C152.91 204.52 155.406 207.4 155.406 211.752V221H151.182V212.264C151.182 209.992 149.87 208.424 147.342 208.424ZM177.496 205L169.784 222.312C168.248 225.736 166.776 229 162.264 229C162.04 229 161.336 228.936 160.792 228.84L161.016 224.776C161.592 224.872 162.232 224.936 162.456 224.936C164.152 224.936 165.048 223.176 165.848 221.384C165.848 221.32 165.912 221.256 165.912 221.224L157.656 205H162.264L167.992 216.424C169.656 212.552 171.416 208.424 172.856 205H177.496ZM193.187 205V221H189.027V205H193.187ZM188.579 200.392C188.579 199.016 189.699 197.896 191.107 197.896C192.515 197.896 193.635 199.016 193.635 200.392C193.635 201.8 192.515 202.92 191.107 202.92C189.699 202.92 188.579 201.8 188.579 200.392ZM207.592 208.424C204.936 208.424 202.28 209.896 202.28 213.064V221H198.056V205H202.28V208.552C203.4 206.472 205.768 204.52 208.808 204.52C213.16 204.52 215.656 207.4 215.656 211.752V221H211.432V212.264C211.432 209.992 210.12 208.424 207.592 208.424ZM239.609 204.52C242.617 204.52 244.569 206.024 245.465 208.424C246.745 206.504 249.305 204.52 251.993 204.52C256.153 204.52 258.361 207.368 258.361 211.592V221H254.137V212.104C254.137 209.992 252.889 208.424 250.553 208.424C248.345 208.424 245.977 209.992 245.977 213.032V221H241.753V212.104C241.753 209.992 240.505 208.424 238.169 208.424C235.961 208.424 233.593 209.96 233.593 213.032V221H229.369V205H233.593V208.392C234.649 206.504 236.825 204.52 239.609 204.52ZM280.434 205L272.722 222.312C271.186 225.736 269.714 229 265.202 229C264.978 229 264.274 228.936 263.73 228.84L263.954 224.776C264.53 224.872 265.17 224.936 265.394 224.936C267.09 224.936 267.986 223.176 268.786 221.384C268.786 221.32 268.85 221.256 268.85 221.224L260.594 205H265.202L270.93 216.424C272.594 212.552 274.354 208.424 275.794 205H280.434ZM51.232 244.456C53.888 244.456 56.32 245.064 58.24 245.736L57.216 249.512C55.008 248.616 53.152 248.168 50.976 248.168C47.904 248.168 45.6 249.928 45.6 252.84C45.6 255.912 48.16 257.768 51.488 257.768C53.824 257.768 55.52 257.096 57.632 256.168L58.88 259.496C56.704 260.648 53.952 261.576 50.944 261.576C44.992 261.576 41.344 257.8 41.344 253C41.344 247.656 45.888 244.456 51.232 244.456ZM71.6235 248.424C68.9675 248.424 66.3115 249.896 66.3115 253.064V261H62.0875V237.288H66.3115V248.552C67.4315 246.472 69.7995 244.52 72.8395 244.52C77.1915 244.52 79.6875 247.4 79.6875 251.752V261H75.4635V252.264C75.4635 249.992 74.1515 248.424 71.6235 248.424ZM88.5615 245V261H84.4015V245H88.5615ZM83.9535 240.392C83.9535 239.016 85.0735 237.896 86.4815 237.896C87.8895 237.896 89.0095 239.016 89.0095 240.392C89.0095 241.8 87.8895 242.92 86.4815 242.92C85.0735 242.92 83.9535 241.8 83.9535 240.392ZM97.6233 261H93.4313V237H97.6233V261ZM109.439 261.544C105.055 261.544 101.375 258.344 101.375 253.16C101.375 248.36 105.407 244.424 110.783 244.424C112.511 244.424 114.719 245.064 116.319 245.576V237H120.543V261H116.319V257.448C115.263 259.656 112.703 261.544 109.439 261.544ZM110.687 257.608C113.503 257.608 116.319 255.624 116.319 252.552V249.096C114.463 248.552 112.671 248.136 110.719 248.136C107.839 248.136 105.631 250.312 105.631 253.128C105.631 256.008 107.839 257.608 110.687 257.608ZM134.874 248.424C132.218 248.424 129.562 249.896 129.562 253.064V261H125.338V237.288H129.562V248.552C130.682 246.472 133.05 244.52 136.09 244.52C140.442 244.52 142.938 247.4 142.938 251.752V261H138.714V252.264C138.714 249.992 137.402 248.424 134.874 248.424ZM156.484 244.456C161.828 244.456 166.436 247.496 166.436 252.84C166.436 257.64 162.276 261.576 156.484 261.576C150.692 261.576 146.532 257.64 146.532 252.84C146.532 247.496 151.14 244.456 156.484 244.456ZM156.484 248.136C153.156 248.136 150.788 249.864 150.788 252.84C150.788 255.528 153.316 257.928 156.484 257.928C159.652 257.928 162.18 255.528 162.18 252.84C162.18 249.864 159.812 248.136 156.484 248.136ZM179.077 244.456C184.421 244.456 189.029 247.496 189.029 252.84C189.029 257.64 184.869 261.576 179.077 261.576C173.285 261.576 169.125 257.64 169.125 252.84C169.125 247.496 173.733 244.456 179.077 244.456ZM179.077 248.136C175.749 248.136 173.381 249.864 173.381 252.84C173.381 255.528 175.909 257.928 179.077 257.928C182.245 257.928 184.773 255.528 184.773 252.84C184.773 249.864 182.405 248.136 179.077 248.136ZM199.783 261.544C195.399 261.544 191.719 258.344 191.719 253.16C191.719 248.36 195.751 244.424 201.127 244.424C202.855 244.424 205.063 245.064 206.663 245.576V237H210.887V261H206.663V257.448C205.607 259.656 203.047 261.544 199.783 261.544ZM201.031 257.608C203.847 257.608 206.663 255.624 206.663 252.552V249.096C204.807 248.552 203.015 248.136 201.063 248.136C198.183 248.136 195.975 250.312 195.975 253.128C195.975 256.008 198.183 257.608 201.031 257.608Z" fill="#FFFAED"></path></svg> 