<?xml version="1.0" encoding="UTF-8"?> <svg xmlns="http://www.w3.org/2000/svg" width="400" height="600" viewBox="0 0 400 600" fill="none"> <rect width="400" height="600" rx="20" fill="#106BD0"></rect> <path d="M51.772 499.362C50.5 500.622 48.952 501.252 47.128 501.252C45.304 501.252 43.756 500.622 42.484 499.362C41.224 498.09 40.594 496.536 40.594 494.7C40.594 492.864 41.224 491.316 42.484 490.056C43.756 488.784 45.304 488.148 47.128 488.148C48.952 488.148 50.5 488.784 51.772 490.056C53.044 491.316 53.68 492.864 53.68 494.7C53.68 496.536 53.044 498.09 51.772 499.362ZM44.23 497.67C45.01 498.438 45.976 498.822 47.128 498.822C48.28 498.822 49.246 498.438 50.026 497.67C50.806 496.89 51.196 495.9 51.196 494.7C51.196 493.5 50.806 492.51 50.026 491.73C49.246 490.95 48.28 490.56 47.128 490.56C45.976 490.56 45.01 490.95 44.23 491.73C43.45 492.51 43.06 493.5 43.06 494.7C43.06 495.9 43.45 496.89 44.23 497.67ZM61.3458 492H63.6678V501H61.3458V499.992C60.7818 500.832 59.8878 501.252 58.6638 501.252C57.6798 501.252 56.8638 500.922 56.2158 500.262C55.5798 499.602 55.2618 498.69 55.2618 497.526V492H57.5838V497.238C57.5838 497.838 57.7458 498.3 58.0698 498.624C58.3938 498.936 58.8258 499.092 59.3658 499.092C59.9658 499.092 60.4458 498.906 60.8058 498.534C61.1658 498.162 61.3458 497.604 61.3458 496.86V492ZM70.9424 494.232H68.9084V497.976C68.9084 498.288 68.9864 498.516 69.1424 498.66C69.2984 498.804 69.5264 498.888 69.8264 498.912C70.1264 498.924 70.4984 498.918 70.9424 498.894V501C69.3464 501.18 68.2184 501.03 67.5584 500.55C66.9104 500.07 66.5864 499.212 66.5864 497.976V494.232H65.0204V492H66.5864V490.182L68.9084 489.48V492H70.9424V494.232ZM84.8882 499.884C83.9642 500.796 82.8362 501.252 81.5042 501.252C80.1722 501.252 79.0442 500.796 78.1202 499.884C77.2082 498.96 76.7522 497.832 76.7522 496.5C76.7522 495.168 77.2082 494.046 78.1202 493.134C79.0442 492.21 80.1722 491.748 81.5042 491.748C82.8362 491.748 83.9642 492.21 84.8882 493.134C85.8122 494.046 86.2742 495.168 86.2742 496.5C86.2742 497.832 85.8122 498.96 84.8882 499.884ZM79.7582 498.282C80.2262 498.75 80.8082 498.984 81.5042 498.984C82.2002 498.984 82.7822 498.75 83.2502 498.282C83.7182 497.814 83.9522 497.22 83.9522 496.5C83.9522 495.78 83.7182 495.186 83.2502 494.718C82.7822 494.25 82.2002 494.016 81.5042 494.016C80.8082 494.016 80.2262 494.25 79.7582 494.718C79.3022 495.186 79.0742 495.78 79.0742 496.5C79.0742 497.22 79.3022 497.814 79.7582 498.282ZM92.4685 490.38C91.1965 490.284 90.5605 490.794 90.5605 491.91V492H92.4685V494.232H90.5605V501H88.2385V494.232H86.9425V492H88.2385V491.91C88.2385 490.638 88.5925 489.672 89.3005 489.012C90.0085 488.352 91.0645 488.064 92.4685 488.148V490.38ZM103.181 494.232H101.147V497.976C101.147 498.288 101.225 498.516 101.381 498.66C101.537 498.804 101.765 498.888 102.065 498.912C102.365 498.924 102.737 498.918 103.181 498.894V501C101.585 501.18 100.457 501.03 99.7967 500.55C99.1487 500.07 98.8247 499.212 98.8247 497.976V494.232H97.2587V492H98.8247V490.182L101.147 489.48V492H103.181V494.232ZM109.822 491.748C110.806 491.748 111.616 492.078 112.252 492.738C112.9 493.398 113.224 494.31 113.224 495.474V501H110.902V495.762C110.902 495.162 110.74 494.706 110.416 494.394C110.092 494.07 109.66 493.908 109.12 493.908C108.52 493.908 108.04 494.094 107.68 494.466C107.32 494.838 107.14 495.396 107.14 496.14V501H104.818V488.4H107.14V493.008C107.704 492.168 108.598 491.748 109.822 491.748ZM117.169 497.454C117.481 498.582 118.327 499.146 119.707 499.146C120.595 499.146 121.267 498.846 121.723 498.246L123.595 499.326C122.707 500.61 121.399 501.252 119.671 501.252C118.183 501.252 116.989 500.802 116.089 499.902C115.189 499.002 114.739 497.868 114.739 496.5C114.739 495.144 115.183 494.016 116.071 493.116C116.959 492.204 118.099 491.748 119.491 491.748C120.811 491.748 121.897 492.204 122.749 493.116C123.613 494.028 124.045 495.156 124.045 496.5C124.045 496.8 124.015 497.118 123.955 497.454H117.169ZM117.133 495.654H121.723C121.591 495.042 121.315 494.586 120.895 494.286C120.487 493.986 120.019 493.836 119.491 493.836C118.867 493.836 118.351 493.998 117.943 494.322C117.535 494.634 117.265 495.078 117.133 495.654ZM135.404 491.748C136.616 491.748 137.648 492.21 138.5 493.134C139.364 494.046 139.796 495.168 139.796 496.5C139.796 497.832 139.364 498.96 138.5 499.884C137.648 500.796 136.616 501.252 135.404 501.252C134.144 501.252 133.172 500.814 132.488 499.938V501H130.166V488.4H132.488V493.062C133.172 492.186 134.144 491.748 135.404 491.748ZM133.19 498.336C133.658 498.804 134.252 499.038 134.972 499.038C135.692 499.038 136.286 498.804 136.754 498.336C137.234 497.856 137.474 497.244 137.474 496.5C137.474 495.756 137.234 495.15 136.754 494.682C136.286 494.202 135.692 493.962 134.972 493.962C134.252 493.962 133.658 494.202 133.19 494.682C132.722 495.15 132.488 495.756 132.488 496.5C132.488 497.244 132.722 497.856 133.19 498.336ZM141.433 501V487.86H143.755V501H141.433ZM151.82 492H154.142V501H151.82V499.992C151.256 500.832 150.362 501.252 149.138 501.252C148.154 501.252 147.338 500.922 146.69 500.262C146.054 499.602 145.736 498.69 145.736 497.526V492H148.058V497.238C148.058 497.838 148.22 498.3 148.544 498.624C148.868 498.936 149.3 499.092 149.84 499.092C150.44 499.092 150.92 498.906 151.28 498.534C151.64 498.162 151.82 497.604 151.82 496.86V492ZM158.231 497.454C158.543 498.582 159.389 499.146 160.769 499.146C161.657 499.146 162.329 498.846 162.785 498.246L164.657 499.326C163.769 500.61 162.461 501.252 160.733 501.252C159.245 501.252 158.051 500.802 157.151 499.902C156.251 499.002 155.801 497.868 155.801 496.5C155.801 495.144 156.245 494.016 157.133 493.116C158.021 492.204 159.161 491.748 160.553 491.748C161.873 491.748 162.959 492.204 163.811 493.116C164.675 494.028 165.107 495.156 165.107 496.5C165.107 496.8 165.077 497.118 165.017 497.454H158.231ZM158.195 495.654H162.785C162.653 495.042 162.377 494.586 161.957 494.286C161.549 493.986 161.081 493.836 160.553 493.836C159.929 493.836 159.413 493.998 159.005 494.322C158.597 494.634 158.327 495.078 158.195 495.654ZM171.336 496.68V494.448H180.606V496.68H171.336ZM193.9 492H195.088V501H193.9V497.076H188.716V501H187.528V492H188.716V495.924H193.9V492ZM204.152 492H205.16V501H203.972V494.07L198.608 501H197.6V492H198.788V498.93L204.152 492ZM216.366 501.216C215.01 501.216 213.882 500.766 212.982 499.866C212.082 498.954 211.632 497.832 211.632 496.5C211.632 495.168 212.082 494.052 212.982 493.152C213.882 492.24 215.01 491.784 216.366 491.784C217.254 491.784 218.052 492 218.76 492.432C219.468 492.852 219.984 493.422 220.308 494.142L219.336 494.7C219.096 494.16 218.706 493.734 218.166 493.422C217.638 493.098 217.038 492.936 216.366 492.936C215.37 492.936 214.53 493.284 213.846 493.98C213.162 494.664 212.82 495.504 212.82 496.5C212.82 497.496 213.162 498.342 213.846 499.038C214.53 499.722 215.37 500.064 216.366 500.064C217.038 500.064 217.638 499.908 218.166 499.596C218.694 499.272 219.108 498.84 219.408 498.3L220.398 498.876C220.026 499.596 219.48 500.166 218.76 500.586C218.04 501.006 217.242 501.216 216.366 501.216ZM233.084 492V493.152H229.898V501H228.71V493.152H225.524V492H233.084ZM241.722 499.866C240.81 500.766 239.694 501.216 238.374 501.216C237.054 501.216 235.932 500.766 235.008 499.866C234.096 498.954 233.64 497.832 233.64 496.5C233.64 495.168 234.096 494.052 235.008 493.152C235.932 492.24 237.054 491.784 238.374 491.784C239.694 491.784 240.81 492.24 241.722 493.152C242.646 494.052 243.108 495.168 243.108 496.5C243.108 497.832 242.646 498.954 241.722 499.866ZM235.854 499.038C236.538 499.722 237.378 500.064 238.374 500.064C239.37 500.064 240.21 499.722 240.894 499.038C241.578 498.342 241.92 497.496 241.92 496.5C241.92 495.504 241.578 494.664 240.894 493.98C240.21 493.284 239.37 492.936 238.374 492.936C237.378 492.936 236.538 493.284 235.854 493.98C235.17 494.664 234.828 495.504 234.828 496.5C234.828 497.496 235.17 498.342 235.854 499.038ZM250.856 492V493.152H246.284V501H245.096V492H250.856ZM259.493 499.866C258.581 500.766 257.465 501.216 256.145 501.216C254.825 501.216 253.703 500.766 252.779 499.866C251.867 498.954 251.411 497.832 251.411 496.5C251.411 495.168 251.867 494.052 252.779 493.152C253.703 492.24 254.825 491.784 256.145 491.784C257.465 491.784 258.581 492.24 259.493 493.152C260.417 494.052 260.879 495.168 260.879 496.5C260.879 497.832 260.417 498.954 259.493 499.866ZM253.625 499.038C254.309 499.722 255.149 500.064 256.145 500.064C257.141 500.064 257.981 499.722 258.665 499.038C259.349 498.342 259.691 497.496 259.691 496.5C259.691 495.504 259.349 494.664 258.665 493.98C257.981 493.284 257.141 492.936 256.145 492.936C255.149 492.936 254.309 493.284 253.625 493.98C252.941 494.664 252.599 495.504 252.599 496.5C252.599 497.496 252.941 498.342 253.625 499.038ZM264.127 499.47L263.047 503.52H261.967L262.687 499.47H264.127ZM277.343 492H278.531V501H277.343V497.076H272.159V501H270.971V492H272.159V495.924H277.343V492ZM287.595 492H288.603V501H287.415V494.07L282.051 501H281.043V492H282.231V498.93L287.595 492ZM299.809 501.216C298.453 501.216 297.325 500.766 296.425 499.866C295.525 498.954 295.075 497.832 295.075 496.5C295.075 495.168 295.525 494.052 296.425 493.152C297.325 492.24 298.453 491.784 299.809 491.784C300.697 491.784 301.495 492 302.203 492.432C302.911 492.852 303.427 493.422 303.751 494.142L302.779 494.7C302.539 494.16 302.149 493.734 301.609 493.422C301.081 493.098 300.481 492.936 299.809 492.936C298.813 492.936 297.973 493.284 297.289 493.98C296.605 494.664 296.263 495.504 296.263 496.5C296.263 497.496 296.605 498.342 297.289 499.038C297.973 499.722 298.813 500.064 299.809 500.064C300.481 500.064 301.081 499.908 301.609 499.596C302.137 499.272 302.551 498.84 302.851 498.3L303.841 498.876C303.469 499.596 302.923 500.166 302.203 500.586C301.483 501.006 300.685 501.216 299.809 501.216ZM314.241 501.216C312.885 501.216 311.757 500.766 310.857 499.866C309.957 498.954 309.507 497.832 309.507 496.5C309.507 495.168 309.957 494.052 310.857 493.152C311.757 492.24 312.885 491.784 314.241 491.784C315.129 491.784 315.927 492 316.635 492.432C317.343 492.852 317.859 493.422 318.183 494.142L317.211 494.7C316.971 494.16 316.581 493.734 316.041 493.422C315.513 493.098 314.913 492.936 314.241 492.936C313.245 492.936 312.405 493.284 311.721 493.98C311.037 494.664 310.695 495.504 310.695 496.5C310.695 497.496 311.037 498.342 311.721 499.038C312.405 499.722 313.245 500.064 314.241 500.064C314.913 500.064 315.513 499.908 316.041 499.596C316.569 499.272 316.983 498.84 317.283 498.3L318.273 498.876C317.901 499.596 317.355 500.166 316.635 500.586C315.915 501.006 315.117 501.216 314.241 501.216ZM324.049 491.784C325.381 491.784 326.455 492.258 327.271 493.206C328.099 494.142 328.513 495.252 328.513 496.536C328.513 496.668 328.501 496.854 328.477 497.094H320.575C320.695 498.006 321.079 498.732 321.727 499.272C322.387 499.8 323.197 500.064 324.157 500.064C324.841 500.064 325.429 499.926 325.921 499.65C326.425 499.362 326.803 498.99 327.055 498.534L328.099 499.146C327.703 499.782 327.163 500.286 326.479 500.658C325.795 501.03 325.015 501.216 324.139 501.216C322.723 501.216 321.571 500.772 320.683 499.884C319.795 498.996 319.351 497.868 319.351 496.5C319.351 495.156 319.789 494.034 320.665 493.134C321.541 492.234 322.669 491.784 324.049 491.784ZM324.049 492.936C323.113 492.936 322.327 493.218 321.691 493.782C321.067 494.334 320.695 495.054 320.575 495.942H327.289C327.169 494.994 326.803 494.256 326.191 493.728C325.579 493.2 324.865 492.936 324.049 492.936ZM336.163 492V493.152H331.591V501H330.403V492H336.163ZM344.8 499.866C343.888 500.766 342.772 501.216 341.452 501.216C340.132 501.216 339.01 500.766 338.086 499.866C337.174 498.954 336.718 497.832 336.718 496.5C336.718 495.168 337.174 494.052 338.086 493.152C339.01 492.24 340.132 491.784 341.452 491.784C342.772 491.784 343.888 492.24 344.8 493.152C345.724 494.052 346.186 495.168 346.186 496.5C346.186 497.832 345.724 498.954 344.8 499.866ZM338.932 499.038C339.616 499.722 340.456 500.064 341.452 500.064C342.448 500.064 343.288 499.722 343.972 499.038C344.656 498.342 344.998 497.496 344.998 496.5C344.998 495.504 344.656 494.664 343.972 493.98C343.288 493.284 342.448 492.936 341.452 492.936C340.456 492.936 339.616 493.284 338.932 493.98C338.248 494.664 337.906 495.504 337.906 496.5C337.906 497.496 338.248 498.342 338.932 499.038ZM349.605 493.512C349.413 493.704 349.179 493.8 348.903 493.8C348.627 493.8 348.393 493.704 348.201 493.512C348.009 493.32 347.913 493.086 347.913 492.81C347.913 492.534 348.009 492.3 348.201 492.108C348.393 491.916 348.627 491.82 348.903 491.82C349.179 491.82 349.413 491.916 349.605 492.108C349.797 492.3 349.893 492.534 349.893 492.81C349.893 493.086 349.797 493.32 349.605 493.512ZM349.803 499.47L348.723 503.52H347.643L348.363 499.47H349.803ZM48.532 524H46.948L42.448 519.662V524H41.26V515H42.448V518.978L46.732 515H48.352L43.708 519.32L48.532 524ZM56.998 515H58.186V524H56.998V522.236C56.17 523.556 54.958 524.216 53.362 524.216C52.078 524.216 50.98 523.76 50.068 522.848C49.168 521.936 48.718 520.82 48.718 519.5C48.718 518.18 49.168 517.064 50.068 516.152C50.98 515.24 52.078 514.784 53.362 514.784C54.958 514.784 56.17 515.444 56.998 516.764V515ZM50.932 522.038C51.616 522.722 52.456 523.064 53.452 523.064C54.448 523.064 55.288 522.722 55.972 522.038C56.656 521.342 56.998 520.496 56.998 519.5C56.998 518.504 56.656 517.664 55.972 516.98C55.288 516.284 54.448 515.936 53.452 515.936C52.456 515.936 51.616 516.284 50.932 516.98C50.248 517.664 49.906 518.504 49.906 519.5C49.906 520.496 50.248 521.342 50.932 522.038ZM67.9734 524H66.3894L61.8894 519.662V524H60.7014V515H61.8894V518.978L66.1734 515H67.7934L63.1494 519.32L67.9734 524ZM79.8559 515V516.152H75.2839V524H74.0959V515H79.8559ZM86.127 514.784C87.411 514.784 88.503 515.24 89.403 516.152C90.315 517.064 90.771 518.18 90.771 519.5C90.771 520.82 90.315 521.936 89.403 522.848C88.503 523.76 87.411 524.216 86.127 524.216C84.531 524.216 83.319 523.556 82.491 522.236V527.6H81.303V515H82.491V516.764C83.319 515.444 84.531 514.784 86.127 514.784ZM83.517 522.038C84.201 522.722 85.041 523.064 86.037 523.064C87.033 523.064 87.873 522.722 88.557 522.038C89.241 521.342 89.583 520.496 89.583 519.5C89.583 518.504 89.241 517.664 88.557 516.98C87.873 516.284 87.033 515.936 86.037 515.936C85.041 515.936 84.201 516.284 83.517 516.98C82.833 517.664 82.491 518.504 82.491 519.5C82.491 520.496 82.833 521.342 83.517 522.038ZM100.288 522.866C99.3763 523.766 98.2603 524.216 96.9403 524.216C95.6203 524.216 94.4983 523.766 93.5743 522.866C92.6623 521.954 92.2063 520.832 92.2063 519.5C92.2063 518.168 92.6623 517.052 93.5743 516.152C94.4983 515.24 95.6203 514.784 96.9403 514.784C98.2603 514.784 99.3763 515.24 100.288 516.152C101.212 517.052 101.674 518.168 101.674 519.5C101.674 520.832 101.212 521.954 100.288 522.866ZM94.4203 522.038C95.1043 522.722 95.9443 523.064 96.9403 523.064C97.9363 523.064 98.7763 522.722 99.4603 522.038C100.144 521.342 100.486 520.496 100.486 519.5C100.486 518.504 100.144 517.664 99.4603 516.98C98.7763 516.284 97.9363 515.936 96.9403 515.936C95.9443 515.936 95.1043 516.284 94.4203 516.98C93.7363 517.664 93.3943 518.504 93.3943 519.5C93.3943 520.496 93.7363 521.342 94.4203 522.038ZM112.482 515V524H111.294V516.818L108.144 521.93H108L104.85 516.818V524H103.662V515H105.03L108.072 519.932L111.114 515H112.482ZM123.694 524.216C122.338 524.216 121.21 523.766 120.31 522.866C119.41 521.954 118.96 520.832 118.96 519.5C118.96 518.168 119.41 517.052 120.31 516.152C121.21 515.24 122.338 514.784 123.694 514.784C124.582 514.784 125.38 515 126.088 515.432C126.796 515.852 127.312 516.422 127.636 517.142L126.664 517.7C126.424 517.16 126.034 516.734 125.494 516.422C124.966 516.098 124.366 515.936 123.694 515.936C122.698 515.936 121.858 516.284 121.174 516.98C120.49 517.664 120.148 518.504 120.148 519.5C120.148 520.496 120.49 521.342 121.174 522.038C121.858 522.722 122.698 523.064 123.694 523.064C124.366 523.064 124.966 522.908 125.494 522.596C126.022 522.272 126.436 521.84 126.736 521.3L127.726 521.876C127.354 522.596 126.808 523.166 126.088 523.586C125.368 524.006 124.57 524.216 123.694 524.216ZM134.256 514.784C135.54 514.784 136.632 515.24 137.532 516.152C138.444 517.064 138.9 518.18 138.9 519.5C138.9 520.82 138.444 521.936 137.532 522.848C136.632 523.76 135.54 524.216 134.256 524.216C132.66 524.216 131.448 523.556 130.62 522.236V527.6H129.432V515H130.62V516.764C131.448 515.444 132.66 514.784 134.256 514.784ZM131.646 522.038C132.33 522.722 133.17 523.064 134.166 523.064C135.162 523.064 136.002 522.722 136.686 522.038C137.37 521.342 137.712 520.496 137.712 519.5C137.712 518.504 137.37 517.664 136.686 516.98C136.002 516.284 135.162 515.936 134.166 515.936C133.17 515.936 132.33 516.284 131.646 516.98C130.962 517.664 130.62 518.504 130.62 519.5C130.62 520.496 130.962 521.342 131.646 522.038ZM145.033 514.784C146.365 514.784 147.439 515.258 148.255 516.206C149.083 517.142 149.497 518.252 149.497 519.536C149.497 519.668 149.485 519.854 149.461 520.094H141.559C141.679 521.006 142.063 521.732 142.711 522.272C143.371 522.8 144.181 523.064 145.141 523.064C145.825 523.064 146.413 522.926 146.905 522.65C147.409 522.362 147.787 521.99 148.039 521.534L149.083 522.146C148.687 522.782 148.147 523.286 147.463 523.658C146.779 524.03 145.999 524.216 145.123 524.216C143.707 524.216 142.555 523.772 141.667 522.884C140.779 521.996 140.335 520.868 140.335 519.5C140.335 518.156 140.773 517.034 141.649 516.134C142.525 515.234 143.653 514.784 145.033 514.784ZM145.033 515.936C144.097 515.936 143.311 516.218 142.675 516.782C142.051 517.334 141.679 518.054 141.559 518.942H148.273C148.153 517.994 147.787 517.256 147.175 516.728C146.563 516.2 145.849 515.936 145.033 515.936ZM158.595 522.848H159.855V526.412H158.667V524H151.323V526.412H150.135V522.848H151.233C151.845 522.044 152.151 520.91 152.151 519.446V515H158.595V522.848ZM152.673 522.848H157.407V516.152H153.339V519.446C153.339 520.826 153.117 521.96 152.673 522.848ZM168.205 515H169.213V524H168.025V517.07L162.661 524H161.653V515H162.841V521.93L168.205 515ZM182.705 515V524H181.517V520.544H179.969L177.197 524H175.685L178.529 520.508C177.809 520.4 177.215 520.1 176.747 519.608C176.279 519.116 176.045 518.51 176.045 517.79C176.045 516.974 176.333 516.308 176.909 515.792C177.497 515.264 178.211 515 179.051 515H182.705ZM179.051 519.428H181.517V516.152H179.051C178.547 516.152 178.115 516.302 177.755 516.602C177.407 516.902 177.233 517.298 177.233 517.79C177.233 518.282 177.407 518.678 177.755 518.978C178.115 519.278 178.547 519.428 179.051 519.428ZM189.419 524.216C188.063 524.216 186.935 523.766 186.035 522.866C185.135 521.954 184.685 520.832 184.685 519.5C184.685 518.168 185.135 517.052 186.035 516.152C186.935 515.24 188.063 514.784 189.419 514.784C190.307 514.784 191.105 515 191.813 515.432C192.521 515.852 193.037 516.422 193.361 517.142L192.389 517.7C192.149 517.16 191.759 516.734 191.219 516.422C190.691 516.098 190.091 515.936 189.419 515.936C188.423 515.936 187.583 516.284 186.899 516.98C186.215 517.664 185.873 518.504 185.873 519.5C185.873 520.496 186.215 521.342 186.899 522.038C187.583 522.722 188.423 523.064 189.419 523.064C190.091 523.064 190.691 522.908 191.219 522.596C191.747 522.272 192.161 521.84 192.461 521.3L193.451 521.876C193.079 522.596 192.533 523.166 191.813 523.586C191.093 524.006 190.295 524.216 189.419 524.216ZM201.528 515H202.716V524H201.528V520.076H196.344V524H195.156V515H196.344V518.924H201.528V515ZM212.771 522.866C211.859 523.766 210.743 524.216 209.423 524.216C208.103 524.216 206.981 523.766 206.057 522.866C205.145 521.954 204.689 520.832 204.689 519.5C204.689 518.168 205.145 517.052 206.057 516.152C206.981 515.24 208.103 514.784 209.423 514.784C210.743 514.784 211.859 515.24 212.771 516.152C213.695 517.052 214.157 518.168 214.157 519.5C214.157 520.832 213.695 521.954 212.771 522.866ZM206.903 522.038C207.587 522.722 208.427 523.064 209.423 523.064C210.419 523.064 211.259 522.722 211.943 522.038C212.627 521.342 212.969 520.496 212.969 519.5C212.969 518.504 212.627 517.664 211.943 516.98C211.259 516.284 210.419 515.936 209.423 515.936C208.427 515.936 207.587 516.284 206.903 516.98C206.219 517.664 205.877 518.504 205.877 519.5C205.877 520.496 206.219 521.342 206.903 522.038ZM221.905 515V516.152H217.333V524H216.145V515H221.905ZM230.542 522.866C229.63 523.766 228.514 524.216 227.194 524.216C225.874 524.216 224.752 523.766 223.828 522.866C222.916 521.954 222.46 520.832 222.46 519.5C222.46 518.168 222.916 517.052 223.828 516.152C224.752 515.24 225.874 514.784 227.194 514.784C228.514 514.784 229.63 515.24 230.542 516.152C231.466 517.052 231.928 518.168 231.928 519.5C231.928 520.832 231.466 521.954 230.542 522.866ZM224.674 522.038C225.358 522.722 226.198 523.064 227.194 523.064C228.19 523.064 229.03 522.722 229.714 522.038C230.398 521.342 230.74 520.496 230.74 519.5C230.74 518.504 230.398 517.664 229.714 516.98C229.03 516.284 228.19 515.936 227.194 515.936C226.198 515.936 225.358 516.284 224.674 516.98C223.99 517.664 223.648 518.504 223.648 519.5C223.648 520.496 223.99 521.342 224.674 522.038ZM244.788 515H245.976V524H244.788V520.076H239.604V524H238.416V515H239.604V518.924H244.788V515ZM252.647 514.784C253.979 514.784 255.053 515.258 255.869 516.206C256.697 517.142 257.111 518.252 257.111 519.536C257.111 519.668 257.099 519.854 257.075 520.094H249.173C249.293 521.006 249.677 521.732 250.325 522.272C250.985 522.8 251.795 523.064 252.755 523.064C253.439 523.064 254.027 522.926 254.519 522.65C255.023 522.362 255.401 521.99 255.653 521.534L256.697 522.146C256.301 522.782 255.761 523.286 255.077 523.658C254.393 524.03 253.613 524.216 252.737 524.216C251.321 524.216 250.169 523.772 249.281 522.884C248.393 521.996 247.949 520.868 247.949 519.5C247.949 518.156 248.387 517.034 249.263 516.134C250.139 515.234 251.267 514.784 252.647 514.784ZM252.647 515.936C251.711 515.936 250.925 516.218 250.289 516.782C249.665 517.334 249.293 518.054 249.173 518.942H255.887C255.767 517.994 255.401 517.256 254.789 516.728C254.177 516.2 253.463 515.936 252.647 515.936ZM262.996 524.216C261.7 524.216 260.62 523.79 259.756 522.938C258.892 522.074 258.46 520.958 258.46 519.59C258.46 518.054 258.688 516.878 259.144 516.062C259.6 515.234 260.524 514.484 261.916 513.812C262.18 513.68 262.528 513.524 262.96 513.344C263.404 513.164 263.734 513.02 263.95 512.912C264.178 512.804 264.424 512.666 264.688 512.498C264.952 512.318 265.15 512.12 265.282 511.904C265.414 511.688 265.498 511.43 265.534 511.13L266.47 511.67C266.422 511.958 266.326 512.228 266.182 512.48C266.038 512.732 265.888 512.936 265.732 513.092C265.588 513.248 265.354 513.422 265.03 513.614C264.718 513.794 264.472 513.926 264.292 514.01C264.124 514.082 263.824 514.208 263.392 514.388C262.972 514.568 262.69 514.688 262.546 514.748C261.706 515.108 261.088 515.486 260.692 515.882C260.296 516.266 260.014 516.77 259.846 517.394C260.254 516.854 260.77 516.458 261.394 516.206C262.03 515.942 262.648 515.81 263.248 515.81C264.448 515.81 265.438 516.206 266.218 516.998C267.01 517.778 267.406 518.78 267.406 520.004C267.406 521.216 266.986 522.224 266.146 523.028C265.318 523.82 264.268 524.216 262.996 524.216ZM262.996 523.028C263.932 523.028 264.7 522.746 265.3 522.182C265.912 521.606 266.218 520.88 266.218 520.004C266.218 519.116 265.93 518.39 265.354 517.826C264.79 517.25 264.034 516.962 263.086 516.962C262.234 516.962 261.46 517.232 260.764 517.772C260.068 518.3 259.72 519.008 259.72 519.896C259.72 520.808 260.032 521.558 260.656 522.146C261.292 522.734 262.072 523.028 262.996 523.028ZM276.953 515H278.141V524H276.953V522.236C276.125 523.556 274.913 524.216 273.317 524.216C272.033 524.216 270.935 523.76 270.023 522.848C269.123 521.936 268.673 520.82 268.673 519.5C268.673 518.18 269.123 517.064 270.023 516.152C270.935 515.24 272.033 514.784 273.317 514.784C274.913 514.784 276.125 515.444 276.953 516.764V515ZM270.887 522.038C271.571 522.722 272.411 523.064 273.407 523.064C274.403 523.064 275.243 522.722 275.927 522.038C276.611 521.342 276.953 520.496 276.953 519.5C276.953 518.504 276.611 517.664 275.927 516.98C275.243 516.284 274.403 515.936 273.407 515.936C272.411 515.936 271.571 516.284 270.887 516.98C270.203 517.664 269.861 518.504 269.861 519.5C269.861 520.496 270.203 521.342 270.887 522.038Z" fill="#CDE4FD" fill-opacity="0.6"></path> <path d="M47.296 84.136L60.8 101H65.952V78.6H61.536V95.464L48.032 78.6H42.88V101H47.296V84.136ZM80.4918 97.768C77.4838 97.768 75.1478 96.456 74.5398 94.12H88.2998C88.4918 93.384 88.5878 92.648 88.5878 91.944C88.5878 87.624 84.9398 84.456 80.0758 84.456C74.7318 84.456 70.1878 87.656 70.1878 93C70.1878 97.8 74.1238 101.576 80.0758 101.576C83.0198 101.576 86.0278 100.584 88.1718 99.496L86.9237 96.168C84.6518 97.352 82.6678 97.768 80.4918 97.768ZM79.8198 88.008C82.3158 88.008 83.9158 89.128 84.3318 91.016H74.6358C75.2758 89.064 77.0677 88.008 79.8198 88.008ZM94.39 85H89.75L97.302 101H101.942L109.526 85H104.822L99.638 96.232L94.39 85ZM121.179 97.768C118.171 97.768 115.835 96.456 115.227 94.12H128.987C129.179 93.384 129.275 92.648 129.275 91.944C129.275 87.624 125.627 84.456 120.763 84.456C115.419 84.456 110.875 87.656 110.875 93C110.875 97.8 114.811 101.576 120.763 101.576C123.707 101.576 126.715 100.584 128.859 99.496L127.611 96.168C125.339 97.352 123.355 97.768 121.179 97.768ZM120.507 88.008C123.003 88.008 124.603 89.128 125.019 91.016H115.323C115.963 89.064 117.755 88.008 120.507 88.008ZM142.982 84.456C140.198 84.456 137.99 86.824 137.062 88.552V85H132.838V101H137.062V93.064C137.062 90.12 139.91 88.392 142.566 88.392C143.174 88.392 144.006 88.584 144.774 88.936L145.67 85.096C144.87 84.712 143.878 84.456 142.982 84.456ZM166.436 88.424C168.964 88.424 170.276 89.992 170.276 92.264V101H174.5V91.752C174.5 87.4 172.004 84.52 167.652 84.52C164.612 84.52 162.244 86.472 161.124 88.552V77.288H156.9V101H161.124V93.064C161.124 89.896 163.78 88.424 166.436 88.424ZM184.75 91.88C181.454 91.88 178.19 93.352 178.19 96.776C178.19 99.656 180.43 101.64 183.438 101.64C186.158 101.64 188.59 100.168 190.126 98.344C190.19 100.136 191.086 101.64 193.23 101.64C194.542 101.64 196.462 101 198.222 100.04L197.358 96.776C196.43 97.256 195.598 97.608 195.118 97.608C194.67 97.608 194.35 97.32 194.35 96.84V91.08C194.35 86.696 191.79 84.36 187.406 84.36C184.878 84.36 181.518 85.352 179.534 85.992L180.59 89.832C182.926 88.968 185.358 88.232 187.022 88.232C189.038 88.232 190.126 89.352 190.126 91.016V92.872C188.75 92.392 186.478 91.88 184.75 91.88ZM184.814 98.024C183.47 98.024 182.51 97.48 182.51 96.424C182.51 95.272 183.566 94.6 184.974 94.6C186.51 94.6 188.366 94.76 190.126 95.08V95.688C188.622 97.16 186.414 98.024 184.814 98.024ZM202.859 85H198.219L205.771 101H210.411L217.995 85H213.291L208.107 96.232L202.859 85ZM229.648 97.768C226.64 97.768 224.304 96.456 223.696 94.12H237.456C237.648 93.384 237.744 92.648 237.744 91.944C237.744 87.624 234.096 84.456 229.232 84.456C223.888 84.456 219.344 87.656 219.344 93C219.344 97.8 223.28 101.576 229.232 101.576C232.176 101.576 235.184 100.584 237.328 99.496L236.08 96.168C233.808 97.352 231.824 97.768 229.648 97.768ZM228.976 88.008C231.472 88.008 233.072 89.128 233.488 91.016H223.792C224.432 89.064 226.224 88.008 228.976 88.008ZM255.265 78.6H250.849V101H255.265V78.6ZM278.867 97.768C275.859 97.768 273.523 96.456 272.915 94.12H286.675C286.867 93.384 286.963 92.648 286.963 91.944C286.963 87.624 283.315 84.456 278.451 84.456C273.107 84.456 268.563 87.656 268.563 93C268.563 97.8 272.499 101.576 278.451 101.576C281.395 101.576 284.403 100.584 286.547 99.496L285.299 96.168C283.027 97.352 281.043 97.768 278.867 97.768ZM278.195 88.008C280.691 88.008 282.291 89.128 282.707 91.016H273.011C273.651 89.064 275.443 88.008 278.195 88.008ZM292.765 85H288.125L295.677 101H300.317L307.901 85H303.197L298.013 96.232L292.765 85ZM319.554 97.768C316.546 97.768 314.21 96.456 313.602 94.12H327.362C327.554 93.384 327.65 92.648 327.65 91.944C327.65 87.624 324.002 84.456 319.138 84.456C313.794 84.456 309.25 87.656 309.25 93C309.25 97.8 313.186 101.576 319.138 101.576C322.082 101.576 325.09 100.584 327.234 99.496L325.986 96.168C323.714 97.352 321.73 97.768 319.554 97.768ZM318.882 88.008C321.378 88.008 322.978 89.128 323.394 91.016H313.698C314.338 89.064 316.13 88.008 318.882 88.008ZM341.357 84.456C338.573 84.456 336.365 86.824 335.437 88.552V85H331.213V101H335.437V93.064C335.437 90.12 338.285 88.392 340.941 88.392C341.549 88.392 342.381 88.584 343.149 88.936L344.045 85.096C343.245 84.712 342.253 84.456 341.357 84.456ZM40.64 128.68H43.68V134.888C43.68 138.92 45.824 141.544 49.792 141.544C51.488 141.544 53.76 140.808 55.104 140.104L54.176 136.488C53.152 137.128 51.744 137.64 50.496 137.64C48.832 137.64 47.904 136.456 47.904 134.728V128.68H54.56V125H47.904V120.2H44.384L43.808 125.128L40.64 125.32V128.68ZM67.5543 137.768C64.5463 137.768 62.2103 136.456 61.6023 134.12H75.3623C75.5543 133.384 75.6503 132.648 75.6503 131.944C75.6503 127.624 72.0023 124.456 67.1383 124.456C61.7943 124.456 57.2503 127.656 57.2503 133C57.2503 137.8 61.1863 141.576 67.1383 141.576C70.0823 141.576 73.0903 140.584 75.2343 139.496L73.9862 136.168C71.7143 137.352 69.7303 137.768 67.5543 137.768ZM66.8823 128.008C69.3783 128.008 70.9783 129.128 71.3943 131.016H61.6983C62.3383 129.064 64.1302 128.008 66.8823 128.008ZM76.9085 141H82.2845L86.7645 135.88L91.4365 141H96.9085L89.5805 132.968L96.7805 125H91.4045L86.9565 130.088L82.3485 125H76.8125L84.1085 133L76.9085 141ZM97.5463 128.68H100.586V134.888C100.586 138.92 102.73 141.544 106.698 141.544C108.394 141.544 110.666 140.808 112.01 140.104L111.082 136.488C110.058 137.128 108.65 137.64 107.402 137.64C105.738 137.64 104.81 136.456 104.81 134.728V128.68H111.466V125H104.81V120.2H101.29L100.714 125.128L97.5463 125.32V128.68ZM124.461 137.768C121.453 137.768 119.117 136.456 118.509 134.12H132.269C132.461 133.384 132.557 132.648 132.557 131.944C132.557 127.624 128.909 124.456 124.045 124.456C118.701 124.456 114.157 127.656 114.157 133C114.157 137.8 118.093 141.576 124.045 141.576C126.989 141.576 129.997 140.584 132.141 139.496L130.892 136.168C128.621 137.352 126.637 137.768 124.461 137.768ZM123.789 128.008C126.285 128.008 127.885 129.128 128.301 131.016H118.605C119.245 129.064 121.036 128.008 123.789 128.008ZM143.127 141.544C146.391 141.544 148.951 139.656 150.007 137.448V141H154.231V117H150.007V125.576C148.407 125.064 146.199 124.424 144.471 124.424C139.095 124.424 135.063 128.36 135.063 133.16C135.063 138.344 138.743 141.544 143.127 141.544ZM144.375 137.608C141.527 137.608 139.319 136.008 139.319 133.128C139.319 130.312 141.527 128.136 144.407 128.136C146.359 128.136 148.151 128.552 150.007 129.096V132.552C150.007 135.624 147.191 137.608 144.375 137.608ZM173.688 131.88C170.391 131.88 167.128 133.352 167.128 136.776C167.128 139.656 169.368 141.64 172.376 141.64C175.095 141.64 177.528 140.168 179.064 138.344C179.128 140.136 180.024 141.64 182.168 141.64C183.48 141.64 185.4 141 187.16 140.04L186.296 136.776C185.368 137.256 184.536 137.608 184.056 137.608C183.608 137.608 183.288 137.32 183.288 136.84V131.08C183.288 126.696 180.728 124.36 176.344 124.36C173.816 124.36 170.456 125.352 168.472 125.992L169.528 129.832C171.864 128.968 174.296 128.232 175.96 128.232C177.976 128.232 179.064 129.352 179.064 131.016V132.872C177.688 132.392 175.416 131.88 173.688 131.88ZM173.752 138.024C172.408 138.024 171.448 137.48 171.448 136.424C171.448 135.272 172.504 134.6 173.911 134.6C175.448 134.6 177.304 134.76 179.064 135.08V135.688C177.56 137.16 175.352 138.024 173.752 138.024ZM199.092 128.424C201.62 128.424 202.932 129.992 202.932 132.264V141H207.156V131.752C207.156 127.4 204.66 124.52 200.308 124.52C197.268 124.52 194.9 126.472 193.78 128.552V125H189.556V141H193.78V133.064C193.78 129.896 196.436 128.424 199.092 128.424ZM230.117 137.768C227.109 137.768 224.773 136.456 224.165 134.12H237.925C238.117 133.384 238.213 132.648 238.213 131.944C238.213 127.624 234.565 124.456 229.701 124.456C224.357 124.456 219.813 127.656 219.813 133C219.813 137.8 223.749 141.576 229.701 141.576C232.645 141.576 235.653 140.584 237.797 139.496L236.549 136.168C234.277 137.352 232.293 137.768 230.117 137.768ZM229.445 128.008C231.941 128.008 233.541 129.128 233.957 131.016H224.261C224.901 129.064 226.693 128.008 229.445 128.008ZM239.471 141H244.847L249.327 135.88L253.999 141H259.471L252.143 132.968L259.343 125H253.967L249.519 130.088L244.911 125H239.375L246.671 133L239.471 141ZM279.827 124.456C274.483 124.456 269.875 127.496 269.875 132.84C269.875 137.64 274.035 141.576 279.827 141.576C285.619 141.576 289.779 137.64 289.779 132.84C289.779 127.496 285.171 124.456 279.827 124.456ZM279.827 128.136C283.155 128.136 285.523 129.864 285.523 132.84C285.523 135.528 282.995 137.928 279.827 137.928C276.659 137.928 274.131 135.528 274.131 132.84C274.131 129.864 276.499 128.136 279.827 128.136ZM300.085 141.512C302.997 141.512 305.461 139.752 306.613 137.48V141H310.837V125H306.613V132.744C306.613 136.136 304.341 137.608 301.653 137.608C299.125 137.608 297.589 136.328 297.589 133.736V125H293.365V134.28C293.365 138.632 295.797 141.512 300.085 141.512ZM313.89 128.68H316.93V134.888C316.93 138.92 319.074 141.544 323.042 141.544C324.738 141.544 327.01 140.808 328.354 140.104L327.426 136.488C326.402 137.128 324.994 137.64 323.746 137.64C322.082 137.64 321.154 136.456 321.154 134.728V128.68H327.81V125H321.154V120.2H317.634L317.058 125.128L313.89 125.32V128.68ZM51.296 164.456C45.952 164.456 41.344 167.496 41.344 172.84C41.344 177.64 45.504 181.576 51.296 181.576C57.088 181.576 61.248 177.64 61.248 172.84C61.248 167.496 56.64 164.456 51.296 164.456ZM51.296 168.136C54.624 168.136 56.992 169.864 56.992 172.84C56.992 175.528 54.464 177.928 51.296 177.928C48.128 177.928 45.6 175.528 45.6 172.84C45.6 169.864 47.968 168.136 51.296 168.136ZM72.3858 160.424C73.7618 160.424 75.2658 160.872 76.7378 161.512L77.7618 157.64C76.2578 157.128 74.3378 156.68 72.5138 156.68C68.5778 156.68 65.8578 159.08 65.8578 162.76V165H63.2338V168.68H65.8898V181H70.0498V168.68H77.1538V165H69.8898V162.952C69.8898 161.224 70.8498 160.424 72.3858 160.424ZM87.1088 168.68H90.1488V174.888C90.1488 178.92 92.2928 181.544 96.2608 181.544C97.9568 181.544 100.229 180.808 101.573 180.104L100.645 176.488C99.6208 177.128 98.2128 177.64 96.9648 177.64C95.3008 177.64 94.3728 176.456 94.3728 174.728V168.68H101.029V165H94.3728V160.2H90.8528L90.2768 165.128L87.1088 165.32V168.68ZM114.311 168.424C116.839 168.424 118.151 169.992 118.151 172.264V181H122.375V171.752C122.375 167.4 119.879 164.52 115.527 164.52C112.487 164.52 110.119 166.472 108.999 168.552V157.288H104.775V181H108.999V173.064C108.999 169.896 111.655 168.424 114.311 168.424ZM136.273 177.768C133.265 177.768 130.929 176.456 130.321 174.12H144.081C144.273 173.384 144.369 172.648 144.369 171.944C144.369 167.624 140.721 164.456 135.857 164.456C130.513 164.456 125.969 167.656 125.969 173C125.969 177.8 129.905 181.576 135.857 181.576C138.801 181.576 141.809 180.584 143.953 179.496L142.705 176.168C140.433 177.352 138.449 177.768 136.273 177.768ZM135.601 168.008C138.097 168.008 139.697 169.128 140.113 171.016H130.417C131.057 169.064 132.849 168.008 135.601 168.008ZM167.97 164.456C164.802 164.456 162.274 166.344 161.218 168.552V157H156.994V179.4C159.074 180.328 163.426 181.576 166.626 181.576C171.874 181.576 175.906 177.64 175.906 172.84C175.906 167.656 172.226 164.456 167.97 164.456ZM166.722 168.392C169.506 168.392 171.65 169.96 171.65 172.84C171.65 175.528 169.314 177.864 166.69 177.864C164.738 177.864 163.074 177.544 161.218 176.936V173.064C161.218 170.12 164.034 168.392 166.722 168.392ZM183.842 181V157H179.65V181H183.842ZM195.21 181.512C198.122 181.512 200.586 179.752 201.738 177.48V181H205.962V165H201.738V172.744C201.738 176.136 199.466 177.608 196.778 177.608C194.25 177.608 192.714 176.328 192.714 173.736V165H188.49V174.28C188.49 178.632 190.922 181.512 195.21 181.512ZM220.023 177.768C217.015 177.768 214.679 176.456 214.071 174.12H227.831C228.023 173.384 228.119 172.648 228.119 171.944C228.119 167.624 224.471 164.456 219.607 164.456C214.263 164.456 209.719 167.656 209.719 173C209.719 177.8 213.655 181.576 219.607 181.576C222.551 181.576 225.559 180.584 227.703 179.496L226.455 176.168C224.183 177.352 222.199 177.768 220.023 177.768ZM219.351 168.008C221.847 168.008 223.447 169.128 223.863 171.016H214.167C214.807 169.064 216.599 168.008 219.351 168.008Z" fill="#CDE4FD"></path> <path d="M46.3 247.4C48.016 247.4 49.432 248.012 50.548 249.236C51.676 250.448 52.24 251.936 52.24 253.7C52.24 255.464 51.676 256.958 50.548 258.182C49.432 259.394 48.016 260 46.3 260H41.44V247.4H46.3ZM46.3 258.812C47.68 258.812 48.808 258.32 49.684 257.336C50.572 256.352 51.016 255.14 51.016 253.7C51.016 252.26 50.572 251.048 49.684 250.064C48.808 249.08 47.68 248.588 46.3 248.588H42.7V258.812H46.3ZM55.4211 248.84C55.2531 249.008 55.0491 249.092 54.8091 249.092C54.5691 249.092 54.3651 249.008 54.1971 248.84C54.0291 248.672 53.9451 248.468 53.9451 248.228C53.9451 247.988 54.0291 247.784 54.1971 247.616C54.3651 247.448 54.5691 247.364 54.8091 247.364C55.0491 247.364 55.2531 247.448 55.4211 247.616C55.5891 247.784 55.6731 247.988 55.6731 248.228C55.6731 248.468 55.5891 248.672 55.4211 248.84ZM54.2151 260V251H55.4031V260H54.2151ZM65.6641 247.4H66.8521V260H65.6641V258.236C64.8361 259.556 63.6241 260.216 62.0281 260.216C60.7441 260.216 59.6461 259.76 58.7341 258.848C57.8341 257.936 57.3841 256.82 57.3841 255.5C57.3841 254.18 57.8341 253.064 58.7341 252.152C59.6461 251.24 60.7441 250.784 62.0281 250.784C63.6241 250.784 64.8361 251.444 65.6641 252.764V247.4ZM59.5981 258.038C60.2821 258.722 61.1221 259.064 62.1181 259.064C63.1141 259.064 63.9541 258.722 64.6381 258.038C65.3221 257.342 65.6641 256.496 65.6641 255.5C65.6641 254.504 65.3221 253.664 64.6381 252.98C63.9541 252.284 63.1141 251.936 62.1181 251.936C61.1221 251.936 60.2821 252.284 59.5981 252.98C58.9141 253.664 58.5721 254.504 58.5721 255.5C58.5721 256.496 58.9141 257.342 59.5981 258.038ZM80.3474 251H81.6074L77.7554 260.828C77.4074 261.716 76.9094 262.412 76.2614 262.916C75.6254 263.432 74.9114 263.66 74.1194 263.6V262.484C75.1994 262.604 76.0214 261.98 76.5854 260.612L76.8194 260.054L72.7874 251H74.0474L77.4314 258.542L80.3474 251ZM90.2336 258.866C89.3216 259.766 88.2056 260.216 86.8856 260.216C85.5656 260.216 84.4436 259.766 83.5196 258.866C82.6076 257.954 82.1516 256.832 82.1516 255.5C82.1516 254.168 82.6076 253.052 83.5196 252.152C84.4436 251.24 85.5656 250.784 86.8856 250.784C88.2056 250.784 89.3216 251.24 90.2336 252.152C91.1576 253.052 91.6196 254.168 91.6196 255.5C91.6196 256.832 91.1576 257.954 90.2336 258.866ZM84.3656 258.038C85.0496 258.722 85.8896 259.064 86.8856 259.064C87.8816 259.064 88.7216 258.722 89.4056 258.038C90.0896 257.342 90.4316 256.496 90.4316 255.5C90.4316 254.504 90.0896 253.664 89.4056 252.98C88.7216 252.284 87.8816 251.936 86.8856 251.936C85.8896 251.936 85.0496 252.284 84.3656 252.98C83.6816 253.664 83.3396 254.504 83.3396 255.5C83.3396 256.496 83.6816 257.342 84.3656 258.038ZM99.9437 251H101.132V260H99.9437V258.596C99.2717 259.676 98.2637 260.216 96.9197 260.216C95.8277 260.216 94.9637 259.886 94.3277 259.226C93.7037 258.554 93.3917 257.654 93.3917 256.526V251H94.5797V256.526C94.5797 257.33 94.7897 257.954 95.2097 258.398C95.6417 258.842 96.2477 259.064 97.0277 259.064C97.8917 259.064 98.5937 258.794 99.1337 258.254C99.6737 257.702 99.9437 256.856 99.9437 255.716V251ZM109.333 252.494C109.885 251.402 110.833 250.856 112.177 250.856V252.008C111.361 252.008 110.683 252.248 110.143 252.728C109.603 253.208 109.333 253.964 109.333 254.996V260H108.145V251H109.333V252.494ZM117.418 250.784C118.75 250.784 119.824 251.258 120.64 252.206C121.468 253.142 121.882 254.252 121.882 255.536C121.882 255.668 121.87 255.854 121.846 256.094H113.944C114.064 257.006 114.448 257.732 115.096 258.272C115.756 258.8 116.566 259.064 117.526 259.064C118.21 259.064 118.798 258.926 119.29 258.65C119.794 258.362 120.172 257.99 120.424 257.534L121.468 258.146C121.072 258.782 120.532 259.286 119.848 259.658C119.164 260.03 118.384 260.216 117.508 260.216C116.092 260.216 114.94 259.772 114.052 258.884C113.164 257.996 112.72 256.868 112.72 255.5C112.72 254.156 113.158 253.034 114.034 252.134C114.91 251.234 116.038 250.784 117.418 250.784ZM117.418 251.936C116.482 251.936 115.696 252.218 115.06 252.782C114.436 253.334 114.064 254.054 113.944 254.942H120.658C120.538 253.994 120.172 253.256 119.56 252.728C118.948 252.2 118.234 251.936 117.418 251.936ZM131.512 251H132.7V259.64C132.7 260.936 132.256 261.956 131.368 262.7C130.48 263.444 129.418 263.816 128.182 263.816C126.07 263.816 124.648 263.084 123.916 261.62L124.96 261.026C125.5 262.118 126.574 262.664 128.182 262.664C129.214 262.664 130.024 262.388 130.612 261.836C131.212 261.296 131.512 260.564 131.512 259.64V258.236C130.684 259.556 129.472 260.216 127.876 260.216C126.592 260.216 125.494 259.76 124.582 258.848C123.682 257.936 123.232 256.82 123.232 255.5C123.232 254.18 123.682 253.064 124.582 252.152C125.494 251.24 126.592 250.784 127.876 250.784C129.472 250.784 130.684 251.444 131.512 252.764V251ZM125.446 258.038C126.13 258.722 126.97 259.064 127.966 259.064C128.962 259.064 129.802 258.722 130.486 258.038C131.17 257.342 131.512 256.496 131.512 255.5C131.512 254.504 131.17 253.664 130.486 252.98C129.802 252.284 128.962 251.936 127.966 251.936C126.97 251.936 126.13 252.284 125.446 252.98C124.762 253.664 124.42 254.504 124.42 255.5C124.42 256.496 124.762 257.342 125.446 258.038ZM136.403 252.494C136.955 251.402 137.903 250.856 139.247 250.856V252.008C138.431 252.008 137.753 252.248 137.213 252.728C136.673 253.208 136.403 253.964 136.403 254.996V260H135.215V251H136.403V252.494ZM144.488 250.784C145.82 250.784 146.894 251.258 147.71 252.206C148.538 253.142 148.952 254.252 148.952 255.536C148.952 255.668 148.94 255.854 148.916 256.094H141.014C141.134 257.006 141.518 257.732 142.166 258.272C142.826 258.8 143.636 259.064 144.596 259.064C145.28 259.064 145.868 258.926 146.36 258.65C146.864 258.362 147.242 257.99 147.494 257.534L148.538 258.146C148.142 258.782 147.602 259.286 146.918 259.658C146.234 260.03 145.454 260.216 144.578 260.216C143.162 260.216 142.01 259.772 141.122 258.884C140.234 257.996 139.79 256.868 139.79 255.5C139.79 254.156 140.228 253.034 141.104 252.134C141.98 251.234 143.108 250.784 144.488 250.784ZM144.488 251.936C143.552 251.936 142.766 252.218 142.13 252.782C141.506 253.334 141.134 254.054 141.014 254.942H147.728C147.608 253.994 147.242 253.256 146.63 252.728C146.018 252.2 145.304 251.936 144.488 251.936ZM155.348 252.152H152.756V257.606C152.756 258.098 152.852 258.452 153.044 258.668C153.236 258.872 153.524 258.98 153.908 258.992C154.292 258.992 154.772 258.98 155.348 258.956V260C154.088 260.192 153.14 260.102 152.504 259.73C151.88 259.358 151.568 258.65 151.568 257.606V252.152H149.678V251H151.568V248.84L152.756 248.48V251H155.348V252.152ZM169.568 251H170.756V260H169.568V258.236C168.74 259.556 167.528 260.216 165.932 260.216C164.648 260.216 163.55 259.76 162.638 258.848C161.738 257.936 161.288 256.82 161.288 255.5C161.288 254.18 161.738 253.064 162.638 252.152C163.55 251.24 164.648 250.784 165.932 250.784C167.528 250.784 168.74 251.444 169.568 252.764V251ZM163.502 258.038C164.186 258.722 165.026 259.064 166.022 259.064C167.018 259.064 167.858 258.722 168.542 258.038C169.226 257.342 169.568 256.496 169.568 255.5C169.568 254.504 169.226 253.664 168.542 252.98C167.858 252.284 167.018 251.936 166.022 251.936C165.026 251.936 164.186 252.284 163.502 252.98C162.818 253.664 162.476 254.504 162.476 255.5C162.476 256.496 162.818 257.342 163.502 258.038ZM178.096 250.784C179.38 250.784 180.472 251.24 181.372 252.152C182.284 253.064 182.74 254.18 182.74 255.5C182.74 256.82 182.284 257.936 181.372 258.848C180.472 259.76 179.38 260.216 178.096 260.216C176.5 260.216 175.288 259.556 174.46 258.236V260H173.272V247.4H174.46V252.764C175.288 251.444 176.5 250.784 178.096 250.784ZM175.486 258.038C176.17 258.722 177.01 259.064 178.006 259.064C179.002 259.064 179.842 258.722 180.526 258.038C181.21 257.342 181.552 256.496 181.552 255.5C181.552 254.504 181.21 253.664 180.526 252.98C179.842 252.284 179.002 251.936 178.006 251.936C177.01 251.936 176.17 252.284 175.486 252.98C174.802 253.664 174.46 254.504 174.46 255.5C174.46 256.496 174.802 257.342 175.486 258.038ZM192.257 258.866C191.345 259.766 190.229 260.216 188.909 260.216C187.589 260.216 186.467 259.766 185.543 258.866C184.631 257.954 184.175 256.832 184.175 255.5C184.175 254.168 184.631 253.052 185.543 252.152C186.467 251.24 187.589 250.784 188.909 250.784C190.229 250.784 191.345 251.24 192.257 252.152C193.181 253.052 193.643 254.168 193.643 255.5C193.643 256.832 193.181 257.954 192.257 258.866ZM186.389 258.038C187.073 258.722 187.913 259.064 188.909 259.064C189.905 259.064 190.745 258.722 191.429 258.038C192.113 257.342 192.455 256.496 192.455 255.5C192.455 254.504 192.113 253.664 191.429 252.98C190.745 252.284 189.905 251.936 188.909 251.936C187.913 251.936 187.073 252.284 186.389 252.98C185.705 253.664 185.363 254.504 185.363 255.5C185.363 256.496 185.705 257.342 186.389 258.038ZM201.967 251H203.155V260H201.967V258.596C201.295 259.676 200.287 260.216 198.943 260.216C197.851 260.216 196.987 259.886 196.351 259.226C195.727 258.554 195.415 257.654 195.415 256.526V251H196.603V256.526C196.603 257.33 196.813 257.954 197.233 258.398C197.665 258.842 198.271 259.064 199.051 259.064C199.915 259.064 200.617 258.794 201.157 258.254C201.697 257.702 201.967 256.856 201.967 255.716V251ZM210.438 252.152H207.846V257.606C207.846 258.098 207.942 258.452 208.134 258.668C208.326 258.872 208.614 258.98 208.998 258.992C209.382 258.992 209.862 258.98 210.438 258.956V260C209.178 260.192 208.23 260.102 207.594 259.73C206.97 259.358 206.658 258.65 206.658 257.606V252.152H204.768V251H206.658V248.84L207.846 248.48V251H210.438V252.152ZM218.124 248.84C217.956 249.008 217.752 249.092 217.512 249.092C217.272 249.092 217.068 249.008 216.9 248.84C216.732 248.672 216.648 248.468 216.648 248.228C216.648 247.988 216.732 247.784 216.9 247.616C217.068 247.448 217.272 247.364 217.512 247.364C217.752 247.364 217.956 247.448 218.124 247.616C218.292 247.784 218.376 247.988 218.376 248.228C218.376 248.468 218.292 248.672 218.124 248.84ZM216.918 260V251H218.106V260H216.918ZM225.397 252.152H222.805V257.606C222.805 258.098 222.901 258.452 223.093 258.668C223.285 258.872 223.573 258.98 223.957 258.992C224.341 258.992 224.821 258.98 225.397 258.956V260C224.137 260.192 223.189 260.102 222.553 259.73C221.929 259.358 221.617 258.65 221.617 257.606V252.152H219.727V251H221.617V248.84L222.805 248.48V251H225.397V252.152ZM229.897 256.58C229.897 255.992 230.017 255.458 230.257 254.978C230.497 254.486 230.785 254.072 231.121 253.736C231.457 253.4 231.793 253.076 232.129 252.764C232.465 252.452 232.753 252.11 232.993 251.738C233.233 251.354 233.353 250.946 233.353 250.514C233.353 249.818 233.113 249.296 232.633 248.948C232.165 248.588 231.559 248.408 230.815 248.408C229.339 248.408 228.427 249.014 228.079 250.226L227.017 249.632C227.293 248.828 227.773 248.222 228.457 247.814C229.153 247.394 229.939 247.184 230.815 247.184C231.871 247.184 232.765 247.478 233.497 248.066C234.241 248.642 234.613 249.458 234.613 250.514C234.613 251.03 234.493 251.51 234.253 251.954C234.013 252.398 233.725 252.788 233.389 253.124C233.053 253.448 232.717 253.772 232.381 254.096C232.045 254.42 231.757 254.798 231.517 255.23C231.277 255.65 231.157 256.1 231.157 256.58H229.897ZM231.229 259.892C231.037 260.084 230.803 260.18 230.527 260.18C230.251 260.18 230.017 260.084 229.825 259.892C229.633 259.7 229.537 259.466 229.537 259.19C229.537 258.914 229.633 258.68 229.825 258.488C230.017 258.296 230.251 258.2 230.527 258.2C230.803 258.2 231.037 258.296 231.229 258.488C231.421 258.68 231.517 258.914 231.517 259.19C231.517 259.466 231.421 259.7 231.229 259.892Z" fill="#CDE4FD"></path> </svg> 