<?xml version="1.0" encoding="UTF-8"?> <svg xmlns="http://www.w3.org/2000/svg" width="400" height="600" viewBox="0 0 400 600" fill="none"><rect width="400" height="600" rx="20" fill="#106BD0"></rect><path d="M51.772 497.362C50.5 498.622 48.952 499.252 47.128 499.252C45.304 499.252 43.756 498.622 42.484 497.362C41.224 496.078 40.594 494.524 40.594 492.7C40.594 490.864 41.224 489.316 42.484 488.056C43.756 486.784 45.304 486.148 47.128 486.148C48.952 486.148 50.5 486.784 51.772 488.056C53.044 489.316 53.68 490.864 53.68 492.7C53.68 494.536 53.044 496.09 51.772 497.362ZM44.23 495.67C44.998 496.438 45.964 496.822 47.128 496.822C48.292 496.822 49.258 496.438 50.026 495.67C50.806 494.89 51.196 493.9 51.196 492.7C51.196 491.5 50.806 490.51 50.026 489.73C49.246 488.95 48.28 488.56 47.128 488.56C45.976 488.56 45.01 488.95 44.23 489.73C43.45 490.51 43.06 491.5 43.06 492.7C43.06 493.9 43.45 494.89 44.23 495.67ZM61.3458 494.86V490H63.6678V499H61.3458V497.992C60.7938 498.832 59.8998 499.252 58.6638 499.252C57.6798 499.252 56.8638 498.922 56.2158 498.262C55.5798 497.59 55.2618 496.678 55.2618 495.526V490H57.5838V495.238C57.5838 495.826 57.7398 496.282 58.0518 496.606C58.3758 496.93 58.8138 497.092 59.3658 497.092C59.9778 497.092 60.4578 496.906 60.8058 496.534C61.1658 496.15 61.3458 495.592 61.3458 494.86ZM70.9424 490V492.232H68.9084V495.976C68.9084 496.288 68.9864 496.516 69.1424 496.66C69.2984 496.804 69.5264 496.888 69.8264 496.912C70.1264 496.924 70.4984 496.918 70.9424 496.894V499C69.3704 499.18 68.2484 499.036 67.5764 498.568C66.9164 498.088 66.5864 497.224 66.5864 495.976V492.232H65.0204V490H66.5864V488.182L68.9084 487.48V490H70.9424ZM84.8882 497.884C83.9762 498.796 82.8482 499.252 81.5042 499.252C80.1602 499.252 79.0322 498.796 78.1202 497.884C77.2082 496.972 76.7522 495.844 76.7522 494.5C76.7522 493.168 77.2082 492.046 78.1202 491.134C79.0442 490.21 80.1722 489.748 81.5042 489.748C82.8362 489.748 83.9642 490.21 84.8882 491.134C85.8122 492.058 86.2742 493.18 86.2742 494.5C86.2742 495.832 85.8122 496.96 84.8882 497.884ZM79.7582 496.282C80.2262 496.75 80.8082 496.984 81.5042 496.984C82.2002 496.984 82.7822 496.75 83.2502 496.282C83.7182 495.814 83.9522 495.22 83.9522 494.5C83.9522 493.78 83.7182 493.186 83.2502 492.718C82.7822 492.25 82.2002 492.016 81.5042 492.016C80.8082 492.016 80.2262 492.25 79.7582 492.718C79.3022 493.198 79.0742 493.792 79.0742 494.5C79.0742 495.208 79.3022 495.802 79.7582 496.282ZM92.4685 486.148V488.38C91.1965 488.296 90.5605 488.806 90.5605 489.91V490H92.4685V492.232H90.5605V499H88.2385V492.232H86.9425V490H88.2385V489.91C88.2385 488.626 88.5925 487.66 89.3005 487.012C90.0205 486.352 91.0765 486.064 92.4685 486.148ZM103.181 490V492.232H101.147V495.976C101.147 496.288 101.225 496.516 101.381 496.66C101.537 496.804 101.765 496.888 102.065 496.912C102.365 496.924 102.737 496.918 103.181 496.894V499C101.609 499.18 100.487 499.036 99.8147 498.568C99.1547 498.088 98.8247 497.224 98.8247 495.976V492.232H97.2587V490H98.8247V488.182L101.147 487.48V490H103.181ZM109.822 489.748C110.818 489.748 111.628 490.078 112.252 490.738C112.9 491.41 113.224 492.322 113.224 493.474V499H110.902V493.762C110.902 493.174 110.74 492.718 110.416 492.394C110.104 492.07 109.672 491.908 109.12 491.908C108.508 491.908 108.022 492.1 107.662 492.484C107.314 492.856 107.14 493.408 107.14 494.14V499H104.818V486.4H107.14V491.008C107.692 490.168 108.586 489.748 109.822 489.748ZM123.955 495.454H117.169C117.469 496.582 118.315 497.146 119.707 497.146C120.595 497.146 121.267 496.846 121.723 496.246L123.595 497.326C122.707 498.61 121.399 499.252 119.671 499.252C118.183 499.252 116.989 498.802 116.089 497.902C115.189 497.002 114.739 495.868 114.739 494.5C114.739 493.156 115.183 492.028 116.071 491.116C116.947 490.204 118.087 489.748 119.491 489.748C120.823 489.748 121.909 490.204 122.749 491.116C123.613 492.028 124.045 493.156 124.045 494.5C124.045 494.752 124.015 495.07 123.955 495.454ZM117.133 493.654H121.723C121.591 493.066 121.321 492.616 120.913 492.304C120.517 491.992 120.043 491.836 119.491 491.836C118.867 491.836 118.351 491.998 117.943 492.322C117.535 492.634 117.265 493.078 117.133 493.654ZM135.404 489.748C136.616 489.748 137.648 490.21 138.5 491.134C139.364 492.058 139.796 493.18 139.796 494.5C139.796 495.844 139.364 496.972 138.5 497.884C137.66 498.796 136.628 499.252 135.404 499.252C134.144 499.252 133.172 498.814 132.488 497.938V499H130.166V486.4H132.488V491.062C133.172 490.186 134.144 489.748 135.404 489.748ZM133.19 496.336C133.658 496.804 134.252 497.038 134.972 497.038C135.692 497.038 136.286 496.804 136.754 496.336C137.234 495.856 137.474 495.244 137.474 494.5C137.474 493.756 137.234 493.15 136.754 492.682C136.286 492.202 135.692 491.962 134.972 491.962C134.252 491.962 133.658 492.202 133.19 492.682C132.722 493.15 132.488 493.756 132.488 494.5C132.488 495.244 132.722 495.856 133.19 496.336ZM143.755 499H141.433V485.86H143.755V499ZM151.82 494.86V490H154.142V499H151.82V497.992C151.268 498.832 150.374 499.252 149.138 499.252C148.154 499.252 147.338 498.922 146.69 498.262C146.054 497.59 145.736 496.678 145.736 495.526V490H148.058V495.238C148.058 495.826 148.214 496.282 148.526 496.606C148.85 496.93 149.288 497.092 149.84 497.092C150.452 497.092 150.932 496.906 151.28 496.534C151.64 496.15 151.82 495.592 151.82 494.86ZM165.017 495.454H158.231C158.531 496.582 159.377 497.146 160.769 497.146C161.657 497.146 162.329 496.846 162.785 496.246L164.657 497.326C163.769 498.61 162.461 499.252 160.733 499.252C159.245 499.252 158.051 498.802 157.151 497.902C156.251 497.002 155.801 495.868 155.801 494.5C155.801 493.156 156.245 492.028 157.133 491.116C158.009 490.204 159.149 489.748 160.553 489.748C161.885 489.748 162.971 490.204 163.811 491.116C164.675 492.028 165.107 493.156 165.107 494.5C165.107 494.752 165.077 495.07 165.017 495.454ZM158.195 493.654H162.785C162.653 493.066 162.383 492.616 161.975 492.304C161.579 491.992 161.105 491.836 160.553 491.836C159.929 491.836 159.413 491.998 159.005 492.322C158.597 492.634 158.327 493.078 158.195 493.654ZM180.606 494.68H171.336V492.448H180.606V494.68ZM193.9 493.924V490H195.088V499H193.9V495.076H188.716V499H187.528V490H188.716V493.924H193.9ZM198.788 496.93L204.152 490H205.16V499H203.972V492.07L198.608 499H197.6V490H198.788V496.93ZM216.366 499.216C215.01 499.216 213.882 498.766 212.982 497.866C212.082 496.942 211.632 495.82 211.632 494.5C211.632 493.168 212.082 492.052 212.982 491.152C213.882 490.24 215.01 489.784 216.366 489.784C217.254 489.784 218.052 490 218.76 490.432C219.468 490.852 219.984 491.422 220.308 492.142L219.336 492.7C219.096 492.16 218.706 491.734 218.166 491.422C217.638 491.098 217.038 490.936 216.366 490.936C215.37 490.936 214.53 491.284 213.846 491.98C213.162 492.664 212.82 493.504 212.82 494.5C212.82 495.484 213.162 496.33 213.846 497.038C214.53 497.722 215.37 498.064 216.366 498.064C217.026 498.064 217.62 497.908 218.148 497.596C218.688 497.284 219.108 496.852 219.408 496.3L220.398 496.876C220.026 497.596 219.48 498.166 218.76 498.586C218.04 499.006 217.242 499.216 216.366 499.216ZM225.524 490H233.084V491.152H229.898V499H228.71V491.152H225.524V490ZM241.722 497.866C240.798 498.766 239.682 499.216 238.374 499.216C237.042 499.216 235.92 498.766 235.008 497.866C234.096 496.954 233.64 495.832 233.64 494.5C233.64 493.168 234.096 492.052 235.008 491.152C235.92 490.24 237.042 489.784 238.374 489.784C239.694 489.784 240.81 490.24 241.722 491.152C242.646 492.052 243.108 493.168 243.108 494.5C243.108 495.82 242.646 496.942 241.722 497.866ZM235.854 497.038C236.538 497.722 237.378 498.064 238.374 498.064C239.37 498.064 240.21 497.722 240.894 497.038C241.578 496.33 241.92 495.484 241.92 494.5C241.92 493.504 241.578 492.664 240.894 491.98C240.21 491.284 239.37 490.936 238.374 490.936C237.378 490.936 236.538 491.284 235.854 491.98C235.17 492.664 234.828 493.504 234.828 494.5C234.828 495.484 235.17 496.33 235.854 497.038ZM245.096 490H250.856V491.152H246.284V499H245.096V490ZM259.493 497.866C258.569 498.766 257.453 499.216 256.145 499.216C254.813 499.216 253.691 498.766 252.779 497.866C251.867 496.954 251.411 495.832 251.411 494.5C251.411 493.168 251.867 492.052 252.779 491.152C253.691 490.24 254.813 489.784 256.145 489.784C257.465 489.784 258.581 490.24 259.493 491.152C260.417 492.052 260.879 493.168 260.879 494.5C260.879 495.82 260.417 496.942 259.493 497.866ZM253.625 497.038C254.309 497.722 255.149 498.064 256.145 498.064C257.141 498.064 257.981 497.722 258.665 497.038C259.349 496.33 259.691 495.484 259.691 494.5C259.691 493.504 259.349 492.664 258.665 491.98C257.981 491.284 257.141 490.936 256.145 490.936C255.149 490.936 254.309 491.284 253.625 491.98C252.941 492.664 252.599 493.504 252.599 494.5C252.599 495.484 252.941 496.33 253.625 497.038ZM262.687 497.47H264.127L263.047 501.52H261.967L262.687 497.47ZM277.343 493.924V490H278.531V499H277.343V495.076H272.159V499H270.971V490H272.159V493.924H277.343ZM282.231 496.93L287.595 490H288.603V499H287.415V492.07L282.051 499H281.043V490H282.231V496.93ZM299.809 499.216C298.453 499.216 297.325 498.766 296.425 497.866C295.525 496.942 295.075 495.82 295.075 494.5C295.075 493.168 295.525 492.052 296.425 491.152C297.325 490.24 298.453 489.784 299.809 489.784C300.697 489.784 301.495 490 302.203 490.432C302.911 490.852 303.427 491.422 303.751 492.142L302.779 492.7C302.539 492.16 302.149 491.734 301.609 491.422C301.081 491.098 300.481 490.936 299.809 490.936C298.813 490.936 297.973 491.284 297.289 491.98C296.605 492.664 296.263 493.504 296.263 494.5C296.263 495.484 296.605 496.33 297.289 497.038C297.973 497.722 298.813 498.064 299.809 498.064C300.469 498.064 301.063 497.908 301.591 497.596C302.131 497.284 302.551 496.852 302.851 496.3L303.841 496.876C303.469 497.596 302.923 498.166 302.203 498.586C301.483 499.006 300.685 499.216 299.809 499.216ZM314.241 499.216C312.885 499.216 311.757 498.766 310.857 497.866C309.957 496.942 309.507 495.82 309.507 494.5C309.507 493.168 309.957 492.052 310.857 491.152C311.757 490.24 312.885 489.784 314.241 489.784C315.129 489.784 315.927 490 316.635 490.432C317.343 490.852 317.859 491.422 318.183 492.142L317.211 492.7C316.971 492.16 316.581 491.734 316.041 491.422C315.513 491.098 314.913 490.936 314.241 490.936C313.245 490.936 312.405 491.284 311.721 491.98C311.037 492.664 310.695 493.504 310.695 494.5C310.695 495.484 311.037 496.33 311.721 497.038C312.405 497.722 313.245 498.064 314.241 498.064C314.901 498.064 315.495 497.908 316.023 497.596C316.563 497.284 316.983 496.852 317.283 496.3L318.273 496.876C317.901 497.596 317.355 498.166 316.635 498.586C315.915 499.006 315.117 499.216 314.241 499.216ZM324.049 489.784C325.393 489.784 326.467 490.258 327.271 491.206C328.099 492.142 328.513 493.252 328.513 494.536C328.513 494.596 328.501 494.782 328.477 495.094H320.575C320.695 495.994 321.079 496.714 321.727 497.254C322.375 497.794 323.185 498.064 324.157 498.064C325.525 498.064 326.491 497.554 327.055 496.534L328.099 497.146C327.703 497.794 327.157 498.304 326.461 498.676C325.777 499.036 325.003 499.216 324.139 499.216C322.723 499.216 321.571 498.772 320.683 497.884C319.795 496.996 319.351 495.868 319.351 494.5C319.351 493.144 319.789 492.022 320.665 491.134C321.541 490.234 322.669 489.784 324.049 489.784ZM324.049 490.936C323.113 490.936 322.327 491.212 321.691 491.764C321.067 492.316 320.695 493.042 320.575 493.942H327.289C327.157 492.982 326.791 492.244 326.191 491.728C325.567 491.2 324.853 490.936 324.049 490.936ZM330.403 490H336.163V491.152H331.591V499H330.403V490ZM344.8 497.866C343.876 498.766 342.76 499.216 341.452 499.216C340.12 499.216 338.998 498.766 338.086 497.866C337.174 496.954 336.718 495.832 336.718 494.5C336.718 493.168 337.174 492.052 338.086 491.152C338.998 490.24 340.12 489.784 341.452 489.784C342.772 489.784 343.888 490.24 344.8 491.152C345.724 492.052 346.186 493.168 346.186 494.5C346.186 495.82 345.724 496.942 344.8 497.866ZM338.932 497.038C339.616 497.722 340.456 498.064 341.452 498.064C342.448 498.064 343.288 497.722 343.972 497.038C344.656 496.33 344.998 495.484 344.998 494.5C344.998 493.504 344.656 492.664 343.972 491.98C343.288 491.284 342.448 490.936 341.452 490.936C340.456 490.936 339.616 491.284 338.932 491.98C338.248 492.664 337.906 493.504 337.906 494.5C337.906 495.484 338.248 496.33 338.932 497.038ZM349.893 490.81C349.893 491.086 349.797 491.32 349.605 491.512C349.413 491.704 349.179 491.8 348.903 491.8C348.627 491.8 348.393 491.704 348.201 491.512C348.009 491.32 347.913 491.086 347.913 490.81C347.913 490.534 348.009 490.3 348.201 490.108C348.393 489.916 348.627 489.82 348.903 489.82C349.179 489.82 349.413 489.916 349.605 490.108C349.797 490.3 349.893 490.534 349.893 490.81ZM348.363 497.47H349.803L348.723 501.52H347.643L348.363 497.47ZM43.708 517.32L48.532 522H46.948L42.448 517.662V522H41.26V513H42.448V516.978L46.732 513H48.352L43.708 517.32ZM56.998 514.764V513H58.186V522H56.998V520.236C56.17 521.556 54.958 522.216 53.362 522.216C52.078 522.216 50.98 521.76 50.068 520.848C49.168 519.936 48.718 518.82 48.718 517.5C48.718 516.18 49.168 515.064 50.068 514.152C50.98 513.24 52.078 512.784 53.362 512.784C54.958 512.784 56.17 513.444 56.998 514.764ZM50.932 520.038C51.616 520.722 52.456 521.064 53.452 521.064C54.448 521.064 55.288 520.722 55.972 520.038C56.656 519.33 56.998 518.484 56.998 517.5C56.998 516.504 56.656 515.664 55.972 514.98C55.288 514.284 54.448 513.936 53.452 513.936C52.456 513.936 51.616 514.284 50.932 514.98C50.248 515.664 49.906 516.504 49.906 517.5C49.906 518.484 50.248 519.33 50.932 520.038ZM63.1494 517.32L67.9734 522H66.3894L61.8894 517.662V522H60.7014V513H61.8894V516.978L66.1734 513H67.7934L63.1494 517.32ZM74.0959 513H79.8559V514.152H75.2839V522H74.0959V513ZM86.127 512.784C87.411 512.784 88.503 513.24 89.403 514.152C90.315 515.064 90.771 516.18 90.771 517.5C90.771 518.82 90.315 519.936 89.403 520.848C88.503 521.76 87.411 522.216 86.127 522.216C84.531 522.216 83.319 521.556 82.491 520.236V525.6H81.303V513H82.491V514.764C83.319 513.444 84.531 512.784 86.127 512.784ZM83.517 520.038C84.201 520.722 85.041 521.064 86.037 521.064C87.033 521.064 87.873 520.722 88.557 520.038C89.241 519.33 89.583 518.484 89.583 517.5C89.583 516.504 89.241 515.664 88.557 514.98C87.873 514.284 87.033 513.936 86.037 513.936C85.041 513.936 84.201 514.284 83.517 514.98C82.833 515.664 82.491 516.504 82.491 517.5C82.491 518.484 82.833 519.33 83.517 520.038ZM100.288 520.866C99.3643 521.766 98.2483 522.216 96.9403 522.216C95.6083 522.216 94.4863 521.766 93.5743 520.866C92.6623 519.954 92.2063 518.832 92.2063 517.5C92.2063 516.168 92.6623 515.052 93.5743 514.152C94.4863 513.24 95.6083 512.784 96.9403 512.784C98.2603 512.784 99.3763 513.24 100.288 514.152C101.212 515.052 101.674 516.168 101.674 517.5C101.674 518.82 101.212 519.942 100.288 520.866ZM94.4203 520.038C95.1043 520.722 95.9443 521.064 96.9403 521.064C97.9363 521.064 98.7763 520.722 99.4603 520.038C100.144 519.33 100.486 518.484 100.486 517.5C100.486 516.504 100.144 515.664 99.4603 514.98C98.7763 514.284 97.9363 513.936 96.9403 513.936C95.9443 513.936 95.1043 514.284 94.4203 514.98C93.7363 515.664 93.3943 516.504 93.3943 517.5C93.3943 518.484 93.7363 519.33 94.4203 520.038ZM111.114 513H112.482V522H111.294V514.818L108.144 519.93H108L104.85 514.818V522H103.662V513H105.03L108.072 517.932L111.114 513ZM123.694 522.216C122.338 522.216 121.21 521.766 120.31 520.866C119.41 519.942 118.96 518.82 118.96 517.5C118.96 516.168 119.41 515.052 120.31 514.152C121.21 513.24 122.338 512.784 123.694 512.784C124.582 512.784 125.38 513 126.088 513.432C126.796 513.852 127.312 514.422 127.636 515.142L126.664 515.7C126.424 515.16 126.034 514.734 125.494 514.422C124.966 514.098 124.366 513.936 123.694 513.936C122.698 513.936 121.858 514.284 121.174 514.98C120.49 515.664 120.148 516.504 120.148 517.5C120.148 518.484 120.49 519.33 121.174 520.038C121.858 520.722 122.698 521.064 123.694 521.064C124.354 521.064 124.948 520.908 125.476 520.596C126.016 520.284 126.436 519.852 126.736 519.3L127.726 519.876C127.354 520.596 126.808 521.166 126.088 521.586C125.368 522.006 124.57 522.216 123.694 522.216ZM134.256 512.784C135.54 512.784 136.632 513.24 137.532 514.152C138.444 515.064 138.9 516.18 138.9 517.5C138.9 518.82 138.444 519.936 137.532 520.848C136.632 521.76 135.54 522.216 134.256 522.216C132.66 522.216 131.448 521.556 130.62 520.236V525.6H129.432V513H130.62V514.764C131.448 513.444 132.66 512.784 134.256 512.784ZM131.646 520.038C132.33 520.722 133.17 521.064 134.166 521.064C135.162 521.064 136.002 520.722 136.686 520.038C137.37 519.33 137.712 518.484 137.712 517.5C137.712 516.504 137.37 515.664 136.686 514.98C136.002 514.284 135.162 513.936 134.166 513.936C133.17 513.936 132.33 514.284 131.646 514.98C130.962 515.664 130.62 516.504 130.62 517.5C130.62 518.484 130.962 519.33 131.646 520.038ZM145.033 512.784C146.377 512.784 147.451 513.258 148.255 514.206C149.083 515.142 149.497 516.252 149.497 517.536C149.497 517.596 149.485 517.782 149.461 518.094H141.559C141.679 518.994 142.063 519.714 142.711 520.254C143.359 520.794 144.169 521.064 145.141 521.064C146.509 521.064 147.475 520.554 148.039 519.534L149.083 520.146C148.687 520.794 148.141 521.304 147.445 521.676C146.761 522.036 145.987 522.216 145.123 522.216C143.707 522.216 142.555 521.772 141.667 520.884C140.779 519.996 140.335 518.868 140.335 517.5C140.335 516.144 140.773 515.022 141.649 514.134C142.525 513.234 143.653 512.784 145.033 512.784ZM145.033 513.936C144.097 513.936 143.311 514.212 142.675 514.764C142.051 515.316 141.679 516.042 141.559 516.942H148.273C148.141 515.982 147.775 515.244 147.175 514.728C146.551 514.2 145.837 513.936 145.033 513.936ZM158.595 513V520.848H159.855V524.412H158.667V522H151.323V524.412H150.135V520.848H151.233C151.845 520.032 152.151 518.898 152.151 517.446V513H158.595ZM152.673 520.848H157.407V514.152H153.339V517.446C153.339 518.838 153.117 519.972 152.673 520.848ZM162.841 519.93L168.205 513H169.213V522H168.025V515.07L162.661 522H161.653V513H162.841V519.93ZM179.051 513H182.705V522H181.517V518.544H179.969L177.197 522H175.685L178.529 518.508C177.797 518.4 177.197 518.1 176.729 517.608C176.273 517.104 176.045 516.498 176.045 515.79C176.045 514.986 176.333 514.32 176.909 513.792C177.509 513.264 178.223 513 179.051 513ZM179.051 517.428H181.517V514.152H179.051C178.535 514.152 178.103 514.308 177.755 514.62C177.407 514.92 177.233 515.31 177.233 515.79C177.233 516.27 177.407 516.666 177.755 516.978C178.103 517.278 178.535 517.428 179.051 517.428ZM189.419 522.216C188.063 522.216 186.935 521.766 186.035 520.866C185.135 519.942 184.685 518.82 184.685 517.5C184.685 516.168 185.135 515.052 186.035 514.152C186.935 513.24 188.063 512.784 189.419 512.784C190.307 512.784 191.105 513 191.813 513.432C192.521 513.852 193.037 514.422 193.361 515.142L192.389 515.7C192.149 515.16 191.759 514.734 191.219 514.422C190.691 514.098 190.091 513.936 189.419 513.936C188.423 513.936 187.583 514.284 186.899 514.98C186.215 515.664 185.873 516.504 185.873 517.5C185.873 518.484 186.215 519.33 186.899 520.038C187.583 520.722 188.423 521.064 189.419 521.064C190.079 521.064 190.673 520.908 191.201 520.596C191.741 520.284 192.161 519.852 192.461 519.3L193.451 519.876C193.079 520.596 192.533 521.166 191.813 521.586C191.093 522.006 190.295 522.216 189.419 522.216ZM201.528 516.924V513H202.716V522H201.528V518.076H196.344V522H195.156V513H196.344V516.924H201.528ZM212.771 520.866C211.847 521.766 210.731 522.216 209.423 522.216C208.091 522.216 206.969 521.766 206.057 520.866C205.145 519.954 204.689 518.832 204.689 517.5C204.689 516.168 205.145 515.052 206.057 514.152C206.969 513.24 208.091 512.784 209.423 512.784C210.743 512.784 211.859 513.24 212.771 514.152C213.695 515.052 214.157 516.168 214.157 517.5C214.157 518.82 213.695 519.942 212.771 520.866ZM206.903 520.038C207.587 520.722 208.427 521.064 209.423 521.064C210.419 521.064 211.259 520.722 211.943 520.038C212.627 519.33 212.969 518.484 212.969 517.5C212.969 516.504 212.627 515.664 211.943 514.98C211.259 514.284 210.419 513.936 209.423 513.936C208.427 513.936 207.587 514.284 206.903 514.98C206.219 515.664 205.877 516.504 205.877 517.5C205.877 518.484 206.219 519.33 206.903 520.038ZM216.145 513H221.905V514.152H217.333V522H216.145V513ZM230.542 520.866C229.618 521.766 228.502 522.216 227.194 522.216C225.862 522.216 224.74 521.766 223.828 520.866C222.916 519.954 222.46 518.832 222.46 517.5C222.46 516.168 222.916 515.052 223.828 514.152C224.74 513.24 225.862 512.784 227.194 512.784C228.514 512.784 229.63 513.24 230.542 514.152C231.466 515.052 231.928 516.168 231.928 517.5C231.928 518.82 231.466 519.942 230.542 520.866ZM224.674 520.038C225.358 520.722 226.198 521.064 227.194 521.064C228.19 521.064 229.03 520.722 229.714 520.038C230.398 519.33 230.74 518.484 230.74 517.5C230.74 516.504 230.398 515.664 229.714 514.98C229.03 514.284 228.19 513.936 227.194 513.936C226.198 513.936 225.358 514.284 224.674 514.98C223.99 515.664 223.648 516.504 223.648 517.5C223.648 518.484 223.99 519.33 224.674 520.038ZM244.788 516.924V513H245.976V522H244.788V518.076H239.604V522H238.416V513H239.604V516.924H244.788ZM252.647 512.784C253.991 512.784 255.065 513.258 255.869 514.206C256.697 515.142 257.111 516.252 257.111 517.536C257.111 517.596 257.099 517.782 257.075 518.094H249.173C249.293 518.994 249.677 519.714 250.325 520.254C250.973 520.794 251.783 521.064 252.755 521.064C254.123 521.064 255.089 520.554 255.653 519.534L256.697 520.146C256.301 520.794 255.755 521.304 255.059 521.676C254.375 522.036 253.601 522.216 252.737 522.216C251.321 522.216 250.169 521.772 249.281 520.884C248.393 519.996 247.949 518.868 247.949 517.5C247.949 516.144 248.387 515.022 249.263 514.134C250.139 513.234 251.267 512.784 252.647 512.784ZM252.647 513.936C251.711 513.936 250.925 514.212 250.289 514.764C249.665 515.316 249.293 516.042 249.173 516.942H255.887C255.755 515.982 255.389 515.244 254.789 514.728C254.165 514.2 253.451 513.936 252.647 513.936ZM262.996 522.216C261.712 522.216 260.632 521.79 259.756 520.938C258.892 520.074 258.46 518.958 258.46 517.59C258.46 516.054 258.688 514.878 259.144 514.062C259.6 513.234 260.524 512.484 261.916 511.812C262.36 511.608 262.708 511.452 262.96 511.344C263.38 511.176 263.71 511.032 263.95 510.912C264.994 510.432 265.522 509.838 265.534 509.13L266.47 509.67C266.41 509.97 266.314 510.24 266.182 510.48C266.026 510.744 265.87 510.954 265.714 511.11C265.57 511.266 265.342 511.434 265.03 511.614C264.826 511.734 264.58 511.866 264.292 512.01L263.392 512.388L262.546 512.748C261.718 513.108 261.1 513.486 260.692 513.882C260.296 514.266 260.014 514.77 259.846 515.394C260.23 514.878 260.734 514.488 261.358 514.224C261.982 513.948 262.612 513.81 263.248 513.81C264.448 513.81 265.438 514.206 266.218 514.998C267.01 515.778 267.406 516.78 267.406 518.004C267.406 519.216 266.986 520.224 266.146 521.028C265.318 521.82 264.268 522.216 262.996 522.216ZM260.656 520.146C261.28 520.734 262.06 521.028 262.996 521.028C263.932 521.028 264.7 520.746 265.3 520.182C265.912 519.606 266.218 518.88 266.218 518.004C266.218 517.116 265.93 516.39 265.354 515.826C264.79 515.25 264.034 514.962 263.086 514.962C262.234 514.962 261.46 515.232 260.764 515.772C260.068 516.288 259.72 516.996 259.72 517.896C259.72 518.808 260.032 519.558 260.656 520.146ZM276.953 514.764V513H278.141V522H276.953V520.236C276.125 521.556 274.913 522.216 273.317 522.216C272.033 522.216 270.935 521.76 270.023 520.848C269.123 519.936 268.673 518.82 268.673 517.5C268.673 516.18 269.123 515.064 270.023 514.152C270.935 513.24 272.033 512.784 273.317 512.784C274.913 512.784 276.125 513.444 276.953 514.764ZM270.887 520.038C271.571 520.722 272.411 521.064 273.407 521.064C274.403 521.064 275.243 520.722 275.927 520.038C276.611 519.33 276.953 518.484 276.953 517.5C276.953 516.504 276.611 515.664 275.927 514.98C275.243 514.284 274.403 513.936 273.407 513.936C272.411 513.936 271.571 514.284 270.887 514.98C270.203 515.664 269.861 516.504 269.861 517.5C269.861 518.484 270.203 519.33 270.887 520.038Z" fill="#CDE4FD" fill-opacity="0.6"></path><path d="M47.296 84.136V101H42.88V78.6H48.032L61.536 95.464V78.6H65.952V101H60.8L47.296 84.136ZM80.4918 97.768C82.6678 97.768 84.6518 97.352 86.9237 96.168L88.1718 99.496C86.0278 100.584 83.0198 101.576 80.0758 101.576C74.1238 101.576 70.1878 97.8 70.1878 93C70.1878 87.656 74.7318 84.456 80.0758 84.456C84.9398 84.456 88.5878 87.624 88.5878 91.944C88.5878 92.648 88.4918 93.384 88.2998 94.12H74.5398C75.1478 96.456 77.4838 97.768 80.4918 97.768ZM79.8198 88.008C77.0677 88.008 75.2758 89.064 74.6358 91.016H84.3318C83.9158 89.128 82.3158 88.008 79.8198 88.008ZM94.39 85L99.638 96.232L104.822 85H109.526L101.942 101H97.302L89.75 85H94.39ZM121.179 97.768C123.355 97.768 125.339 97.352 127.611 96.168L128.859 99.496C126.715 100.584 123.707 101.576 120.763 101.576C114.811 101.576 110.875 97.8 110.875 93C110.875 87.656 115.419 84.456 120.763 84.456C125.627 84.456 129.275 87.624 129.275 91.944C129.275 92.648 129.179 93.384 128.987 94.12H115.227C115.835 96.456 118.171 97.768 121.179 97.768ZM120.507 88.008C117.755 88.008 115.963 89.064 115.323 91.016H125.019C124.603 89.128 123.003 88.008 120.507 88.008ZM142.982 84.456C143.878 84.456 144.87 84.712 145.67 85.096L144.774 88.936C144.006 88.584 143.174 88.392 142.566 88.392C139.91 88.392 137.062 90.12 137.062 93.064V101H132.838V85H137.062V88.552C137.99 86.824 140.198 84.456 142.982 84.456ZM166.436 88.424C163.78 88.424 161.124 89.896 161.124 93.064V101H156.9V77.288H161.124V88.552C162.244 86.472 164.612 84.52 167.652 84.52C172.004 84.52 174.5 87.4 174.5 91.752V101H170.276V92.264C170.276 89.992 168.964 88.424 166.436 88.424ZM184.75 91.88C186.478 91.88 188.75 92.392 190.126 92.872V91.016C190.126 89.352 189.038 88.232 187.022 88.232C185.358 88.232 182.926 88.968 180.59 89.832L179.534 85.992C181.518 85.352 184.878 84.36 187.406 84.36C191.79 84.36 194.35 86.696 194.35 91.08V96.84C194.35 97.32 194.67 97.608 195.118 97.608C195.598 97.608 196.43 97.256 197.358 96.776L198.222 100.04C196.462 101 194.542 101.64 193.23 101.64C191.086 101.64 190.19 100.136 190.126 98.344C188.59 100.168 186.158 101.64 183.438 101.64C180.43 101.64 178.19 99.656 178.19 96.776C178.19 93.352 181.454 91.88 184.75 91.88ZM184.814 98.024C186.414 98.024 188.622 97.16 190.126 95.688V95.08C188.366 94.76 186.51 94.6 184.974 94.6C183.566 94.6 182.51 95.272 182.51 96.424C182.51 97.48 183.47 98.024 184.814 98.024ZM202.859 85L208.107 96.232L213.291 85H217.995L210.411 101H205.771L198.219 85H202.859ZM229.648 97.768C231.824 97.768 233.808 97.352 236.08 96.168L237.328 99.496C235.184 100.584 232.176 101.576 229.232 101.576C223.28 101.576 219.344 97.8 219.344 93C219.344 87.656 223.888 84.456 229.232 84.456C234.096 84.456 237.744 87.624 237.744 91.944C237.744 92.648 237.648 93.384 237.456 94.12H223.696C224.304 96.456 226.64 97.768 229.648 97.768ZM228.976 88.008C226.224 88.008 224.432 89.064 223.792 91.016H233.488C233.072 89.128 231.472 88.008 228.976 88.008ZM255.265 78.6V101H250.849V78.6H255.265ZM278.867 97.768C281.043 97.768 283.027 97.352 285.299 96.168L286.547 99.496C284.403 100.584 281.395 101.576 278.451 101.576C272.499 101.576 268.563 97.8 268.563 93C268.563 87.656 273.107 84.456 278.451 84.456C283.315 84.456 286.963 87.624 286.963 91.944C286.963 92.648 286.867 93.384 286.675 94.12H272.915C273.523 96.456 275.859 97.768 278.867 97.768ZM278.195 88.008C275.443 88.008 273.651 89.064 273.011 91.016H282.707C282.291 89.128 280.691 88.008 278.195 88.008ZM292.765 85L298.013 96.232L303.197 85H307.901L300.317 101H295.677L288.125 85H292.765ZM319.554 97.768C321.73 97.768 323.714 97.352 325.986 96.168L327.234 99.496C325.09 100.584 322.082 101.576 319.138 101.576C313.186 101.576 309.25 97.8 309.25 93C309.25 87.656 313.794 84.456 319.138 84.456C324.002 84.456 327.65 87.624 327.65 91.944C327.65 92.648 327.554 93.384 327.362 94.12H313.602C314.21 96.456 316.546 97.768 319.554 97.768ZM318.882 88.008C316.13 88.008 314.338 89.064 313.698 91.016H323.394C322.978 89.128 321.378 88.008 318.882 88.008ZM341.357 84.456C342.253 84.456 343.245 84.712 344.045 85.096L343.149 88.936C342.381 88.584 341.549 88.392 340.941 88.392C338.285 88.392 335.437 90.12 335.437 93.064V101H331.213V85H335.437V88.552C336.365 86.824 338.573 84.456 341.357 84.456ZM40.64 128.68V125.32L43.808 125.128L44.384 120.2H47.904V125H54.56V128.68H47.904V134.728C47.904 136.456 48.832 137.64 50.496 137.64C51.744 137.64 53.152 137.128 54.176 136.488L55.104 140.104C53.76 140.808 51.488 141.544 49.792 141.544C45.824 141.544 43.68 138.92 43.68 134.888V128.68H40.64ZM67.5543 137.768C69.7303 137.768 71.7143 137.352 73.9862 136.168L75.2343 139.496C73.0903 140.584 70.0823 141.576 67.1383 141.576C61.1863 141.576 57.2503 137.8 57.2503 133C57.2503 127.656 61.7943 124.456 67.1383 124.456C72.0023 124.456 75.6503 127.624 75.6503 131.944C75.6503 132.648 75.5543 133.384 75.3623 134.12H61.6023C62.2103 136.456 64.5463 137.768 67.5543 137.768ZM66.8823 128.008C64.1302 128.008 62.3383 129.064 61.6983 131.016H71.3943C70.9783 129.128 69.3783 128.008 66.8823 128.008ZM76.9085 141L84.1085 133L76.8125 125H82.3485L86.9565 130.088L91.4045 125H96.7805L89.5805 132.968L96.9085 141H91.4365L86.7645 135.88L82.2845 141H76.9085ZM97.5463 128.68V125.32L100.714 125.128L101.29 120.2H104.81V125H111.466V128.68H104.81V134.728C104.81 136.456 105.738 137.64 107.402 137.64C108.65 137.64 110.058 137.128 111.082 136.488L112.01 140.104C110.666 140.808 108.394 141.544 106.698 141.544C102.73 141.544 100.586 138.92 100.586 134.888V128.68H97.5463ZM124.461 137.768C126.637 137.768 128.621 137.352 130.892 136.168L132.141 139.496C129.997 140.584 126.989 141.576 124.045 141.576C118.093 141.576 114.157 137.8 114.157 133C114.157 127.656 118.701 124.456 124.045 124.456C128.909 124.456 132.557 127.624 132.557 131.944C132.557 132.648 132.461 133.384 132.269 134.12H118.509C119.117 136.456 121.453 137.768 124.461 137.768ZM123.789 128.008C121.036 128.008 119.245 129.064 118.605 131.016H128.301C127.885 129.128 126.285 128.008 123.789 128.008ZM143.127 141.544C138.743 141.544 135.063 138.344 135.063 133.16C135.063 128.36 139.095 124.424 144.471 124.424C146.199 124.424 148.407 125.064 150.007 125.576V117H154.231V141H150.007V137.448C148.951 139.656 146.391 141.544 143.127 141.544ZM144.375 137.608C147.191 137.608 150.007 135.624 150.007 132.552V129.096C148.151 128.552 146.359 128.136 144.407 128.136C141.527 128.136 139.319 130.312 139.319 133.128C139.319 136.008 141.527 137.608 144.375 137.608ZM173.688 131.88C175.416 131.88 177.688 132.392 179.064 132.872V131.016C179.064 129.352 177.976 128.232 175.96 128.232C174.296 128.232 171.864 128.968 169.528 129.832L168.472 125.992C170.456 125.352 173.816 124.36 176.344 124.36C180.728 124.36 183.288 126.696 183.288 131.08V136.84C183.288 137.32 183.608 137.608 184.056 137.608C184.536 137.608 185.368 137.256 186.296 136.776L187.16 140.04C185.4 141 183.48 141.64 182.168 141.64C180.024 141.64 179.128 140.136 179.064 138.344C177.528 140.168 175.095 141.64 172.376 141.64C169.368 141.64 167.128 139.656 167.128 136.776C167.128 133.352 170.391 131.88 173.688 131.88ZM173.752 138.024C175.352 138.024 177.56 137.16 179.064 135.688V135.08C177.304 134.76 175.448 134.6 173.911 134.6C172.504 134.6 171.448 135.272 171.448 136.424C171.448 137.48 172.408 138.024 173.752 138.024ZM199.092 128.424C196.436 128.424 193.78 129.896 193.78 133.064V141H189.556V125H193.78V128.552C194.9 126.472 197.268 124.52 200.308 124.52C204.66 124.52 207.156 127.4 207.156 131.752V141H202.932V132.264C202.932 129.992 201.62 128.424 199.092 128.424ZM230.117 137.768C232.293 137.768 234.277 137.352 236.549 136.168L237.797 139.496C235.653 140.584 232.645 141.576 229.701 141.576C223.749 141.576 219.813 137.8 219.813 133C219.813 127.656 224.357 124.456 229.701 124.456C234.565 124.456 238.213 127.624 238.213 131.944C238.213 132.648 238.117 133.384 237.925 134.12H224.165C224.773 136.456 227.109 137.768 230.117 137.768ZM229.445 128.008C226.693 128.008 224.901 129.064 224.261 131.016H233.957C233.541 129.128 231.941 128.008 229.445 128.008ZM239.471 141L246.671 133L239.375 125H244.911L249.519 130.088L253.967 125H259.343L252.143 132.968L259.471 141H253.999L249.327 135.88L244.847 141H239.471ZM279.827 124.456C285.171 124.456 289.779 127.496 289.779 132.84C289.779 137.64 285.619 141.576 279.827 141.576C274.035 141.576 269.875 137.64 269.875 132.84C269.875 127.496 274.483 124.456 279.827 124.456ZM279.827 128.136C276.499 128.136 274.131 129.864 274.131 132.84C274.131 135.528 276.659 137.928 279.827 137.928C282.995 137.928 285.523 135.528 285.523 132.84C285.523 129.864 283.155 128.136 279.827 128.136ZM300.085 141.512C295.797 141.512 293.365 138.632 293.365 134.28V125H297.589V133.736C297.589 136.328 299.125 137.608 301.653 137.608C304.341 137.608 306.613 136.136 306.613 132.744V125H310.837V141H306.613V137.48C305.461 139.752 302.997 141.512 300.085 141.512ZM313.89 128.68V125.32L317.058 125.128L317.634 120.2H321.154V125H327.81V128.68H321.154V134.728C321.154 136.456 322.082 137.64 323.746 137.64C324.994 137.64 326.402 137.128 327.426 136.488L328.354 140.104C327.01 140.808 324.738 141.544 323.042 141.544C319.074 141.544 316.93 138.92 316.93 134.888V128.68H313.89ZM51.296 164.456C56.64 164.456 61.248 167.496 61.248 172.84C61.248 177.64 57.088 181.576 51.296 181.576C45.504 181.576 41.344 177.64 41.344 172.84C41.344 167.496 45.952 164.456 51.296 164.456ZM51.296 168.136C47.968 168.136 45.6 169.864 45.6 172.84C45.6 175.528 48.128 177.928 51.296 177.928C54.464 177.928 56.992 175.528 56.992 172.84C56.992 169.864 54.624 168.136 51.296 168.136ZM72.3858 160.424C70.8498 160.424 69.8898 161.224 69.8898 162.952V165H77.1538V168.68H70.0498V181H65.8898V168.68H63.2338V165H65.8578V162.76C65.8578 159.08 68.5778 156.68 72.5138 156.68C74.3378 156.68 76.2578 157.128 77.7618 157.64L76.7378 161.512C75.2658 160.872 73.7618 160.424 72.3858 160.424ZM87.1088 168.68V165.32L90.2768 165.128L90.8528 160.2H94.3728V165H101.029V168.68H94.3728V174.728C94.3728 176.456 95.3008 177.64 96.9648 177.64C98.2128 177.64 99.6208 177.128 100.645 176.488L101.573 180.104C100.229 180.808 97.9568 181.544 96.2608 181.544C92.2928 181.544 90.1488 178.92 90.1488 174.888V168.68H87.1088ZM114.311 168.424C111.655 168.424 108.999 169.896 108.999 173.064V181H104.775V157.288H108.999V168.552C110.119 166.472 112.487 164.52 115.527 164.52C119.879 164.52 122.375 167.4 122.375 171.752V181H118.151V172.264C118.151 169.992 116.839 168.424 114.311 168.424ZM136.273 177.768C138.449 177.768 140.433 177.352 142.705 176.168L143.953 179.496C141.809 180.584 138.801 181.576 135.857 181.576C129.905 181.576 125.969 177.8 125.969 173C125.969 167.656 130.513 164.456 135.857 164.456C140.721 164.456 144.369 167.624 144.369 171.944C144.369 172.648 144.273 173.384 144.081 174.12H130.321C130.929 176.456 133.265 177.768 136.273 177.768ZM135.601 168.008C132.849 168.008 131.057 169.064 130.417 171.016H140.113C139.697 169.128 138.097 168.008 135.601 168.008ZM167.97 164.456C172.226 164.456 175.906 167.656 175.906 172.84C175.906 177.64 171.874 181.576 166.626 181.576C163.426 181.576 159.074 180.328 156.994 179.4V157H161.218V168.552C162.274 166.344 164.802 164.456 167.97 164.456ZM166.722 168.392C164.034 168.392 161.218 170.12 161.218 173.064V176.936C163.074 177.544 164.738 177.864 166.69 177.864C169.314 177.864 171.65 175.528 171.65 172.84C171.65 169.96 169.506 168.392 166.722 168.392ZM183.842 181H179.65V157H183.842V181ZM195.21 181.512C190.922 181.512 188.49 178.632 188.49 174.28V165H192.714V173.736C192.714 176.328 194.25 177.608 196.778 177.608C199.466 177.608 201.738 176.136 201.738 172.744V165H205.962V181H201.738V177.48C200.586 179.752 198.122 181.512 195.21 181.512ZM220.023 177.768C222.199 177.768 224.183 177.352 226.455 176.168L227.703 179.496C225.559 180.584 222.551 181.576 219.607 181.576C213.655 181.576 209.719 177.8 209.719 173C209.719 167.656 214.263 164.456 219.607 164.456C224.471 164.456 228.119 167.624 228.119 171.944C228.119 172.648 228.023 173.384 227.831 174.12H214.071C214.679 176.456 217.015 177.768 220.023 177.768ZM219.351 168.008C216.599 168.008 214.807 169.064 214.167 171.016H223.863C223.447 169.128 221.847 168.008 219.351 168.008Z" fill="#CDE4FD"></path><path d="M41.44 245.4H46.3C48.016 245.4 49.432 246.012 50.548 247.236C51.676 248.436 52.24 249.924 52.24 251.7C52.24 253.476 51.676 254.97 50.548 256.182C49.432 257.394 48.016 258 46.3 258H41.44V245.4ZM42.7 256.812H46.3C47.68 256.812 48.808 256.32 49.684 255.336C50.572 254.34 51.016 253.128 51.016 251.7C51.016 250.272 50.572 249.06 49.684 248.064C48.808 247.08 47.68 246.588 46.3 246.588H42.7V256.812ZM55.6731 246.228C55.6731 246.468 55.5891 246.672 55.4211 246.84C55.2531 247.008 55.0491 247.092 54.8091 247.092C54.5691 247.092 54.3651 247.008 54.1971 246.84C54.0291 246.672 53.9451 246.468 53.9451 246.228C53.9451 245.988 54.0291 245.784 54.1971 245.616C54.3651 245.448 54.5691 245.364 54.8091 245.364C55.0491 245.364 55.2531 245.448 55.4211 245.616C55.5891 245.784 55.6731 245.988 55.6731 246.228ZM55.4031 258H54.2151V249H55.4031V258ZM65.6641 250.764V245.4H66.8521V258H65.6641V256.236C64.8361 257.556 63.6241 258.216 62.0281 258.216C60.7441 258.216 59.6461 257.76 58.7341 256.848C57.8341 255.936 57.3841 254.82 57.3841 253.5C57.3841 252.18 57.8341 251.064 58.7341 250.152C59.6461 249.24 60.7441 248.784 62.0281 248.784C63.6241 248.784 64.8361 249.444 65.6641 250.764ZM59.5981 256.038C60.2821 256.722 61.1221 257.064 62.1181 257.064C63.1141 257.064 63.9541 256.722 64.6381 256.038C65.3221 255.33 65.6641 254.484 65.6641 253.5C65.6641 252.504 65.3221 251.664 64.6381 250.98C63.9541 250.284 63.1141 249.936 62.1181 249.936C61.1221 249.936 60.2821 250.284 59.5981 250.98C58.9141 251.664 58.5721 252.504 58.5721 253.5C58.5721 254.484 58.9141 255.33 59.5981 256.038ZM77.4314 256.542L80.3474 249H81.6074L77.7554 258.828C77.3954 259.74 76.8914 260.442 76.2434 260.934C75.6074 261.438 74.8994 261.66 74.1194 261.6V260.484C75.1994 260.616 76.0214 259.992 76.5854 258.612L76.8194 258.054L72.7874 249H74.0474L77.4314 256.542ZM90.2336 256.866C89.3096 257.766 88.1936 258.216 86.8856 258.216C85.5536 258.216 84.4316 257.766 83.5196 256.866C82.6076 255.954 82.1516 254.832 82.1516 253.5C82.1516 252.168 82.6076 251.052 83.5196 250.152C84.4316 249.24 85.5536 248.784 86.8856 248.784C88.2056 248.784 89.3216 249.24 90.2336 250.152C91.1576 251.052 91.6196 252.168 91.6196 253.5C91.6196 254.82 91.1576 255.942 90.2336 256.866ZM84.3656 256.038C85.0496 256.722 85.8896 257.064 86.8856 257.064C87.8816 257.064 88.7216 256.722 89.4056 256.038C90.0896 255.33 90.4316 254.484 90.4316 253.5C90.4316 252.504 90.0896 251.664 89.4056 250.98C88.7216 250.284 87.8816 249.936 86.8856 249.936C85.8896 249.936 85.0496 250.284 84.3656 250.98C83.6816 251.664 83.3396 252.504 83.3396 253.5C83.3396 254.484 83.6816 255.33 84.3656 256.038ZM99.9437 253.716V249H101.132V258H99.9437V256.596C99.2717 257.676 98.2637 258.216 96.9197 258.216C95.8397 258.216 94.9817 257.886 94.3457 257.226C93.7097 256.554 93.3917 255.654 93.3917 254.526V249H94.5797V254.526C94.5797 255.33 94.7897 255.954 95.2097 256.398C95.6417 256.842 96.2477 257.064 97.0277 257.064C97.9277 257.064 98.6357 256.782 99.1517 256.218C99.6797 255.654 99.9437 254.82 99.9437 253.716ZM109.333 249V250.494C109.885 249.402 110.833 248.856 112.177 248.856V250.008C111.313 250.008 110.623 250.26 110.107 250.764C109.591 251.256 109.333 252 109.333 252.996V258H108.145V249H109.333ZM117.418 248.784C118.762 248.784 119.836 249.258 120.64 250.206C121.468 251.142 121.882 252.252 121.882 253.536C121.882 253.596 121.87 253.782 121.846 254.094H113.944C114.064 254.994 114.448 255.714 115.096 256.254C115.744 256.794 116.554 257.064 117.526 257.064C118.894 257.064 119.86 256.554 120.424 255.534L121.468 256.146C121.072 256.794 120.526 257.304 119.83 257.676C119.146 258.036 118.372 258.216 117.508 258.216C116.092 258.216 114.94 257.772 114.052 256.884C113.164 255.996 112.72 254.868 112.72 253.5C112.72 252.144 113.158 251.022 114.034 250.134C114.91 249.234 116.038 248.784 117.418 248.784ZM117.418 249.936C116.482 249.936 115.696 250.212 115.06 250.764C114.436 251.316 114.064 252.042 113.944 252.942H120.658C120.526 251.982 120.16 251.244 119.56 250.728C118.936 250.2 118.222 249.936 117.418 249.936ZM131.512 250.764V249H132.7V257.64C132.7 258.936 132.256 259.956 131.368 260.7C130.48 261.444 129.418 261.816 128.182 261.816C126.082 261.816 124.66 261.084 123.916 259.62L124.96 259.026C125.5 260.118 126.574 260.664 128.182 260.664C129.214 260.664 130.024 260.394 130.612 259.854C131.212 259.314 131.512 258.576 131.512 257.64V256.236C130.684 257.556 129.472 258.216 127.876 258.216C126.592 258.216 125.494 257.76 124.582 256.848C123.682 255.936 123.232 254.82 123.232 253.5C123.232 252.18 123.682 251.064 124.582 250.152C125.494 249.24 126.592 248.784 127.876 248.784C129.472 248.784 130.684 249.444 131.512 250.764ZM125.446 256.038C126.13 256.722 126.97 257.064 127.966 257.064C128.962 257.064 129.802 256.722 130.486 256.038C131.17 255.33 131.512 254.484 131.512 253.5C131.512 252.504 131.17 251.664 130.486 250.98C129.802 250.284 128.962 249.936 127.966 249.936C126.97 249.936 126.13 250.284 125.446 250.98C124.762 251.664 124.42 252.504 124.42 253.5C124.42 254.484 124.762 255.33 125.446 256.038ZM136.403 249V250.494C136.955 249.402 137.903 248.856 139.247 248.856V250.008C138.383 250.008 137.693 250.26 137.177 250.764C136.661 251.256 136.403 252 136.403 252.996V258H135.215V249H136.403ZM144.488 248.784C145.832 248.784 146.906 249.258 147.71 250.206C148.538 251.142 148.952 252.252 148.952 253.536C148.952 253.596 148.94 253.782 148.916 254.094H141.014C141.134 254.994 141.518 255.714 142.166 256.254C142.814 256.794 143.624 257.064 144.596 257.064C145.964 257.064 146.93 256.554 147.494 255.534L148.538 256.146C148.142 256.794 147.596 257.304 146.9 257.676C146.216 258.036 145.442 258.216 144.578 258.216C143.162 258.216 142.01 257.772 141.122 256.884C140.234 255.996 139.79 254.868 139.79 253.5C139.79 252.144 140.228 251.022 141.104 250.134C141.98 249.234 143.108 248.784 144.488 248.784ZM144.488 249.936C143.552 249.936 142.766 250.212 142.13 250.764C141.506 251.316 141.134 252.042 141.014 252.942H147.728C147.596 251.982 147.23 251.244 146.63 250.728C146.006 250.2 145.292 249.936 144.488 249.936ZM155.348 249V250.152H152.756V255.606C152.756 256.098 152.852 256.452 153.044 256.668C153.236 256.872 153.524 256.98 153.908 256.992C154.292 256.992 154.772 256.98 155.348 256.956V258C154.064 258.192 153.11 258.102 152.486 257.73C151.874 257.346 151.568 256.638 151.568 255.606V250.152H149.678V249H151.568V246.84L152.756 246.48V249H155.348ZM163.286 246.228C163.286 246.468 163.202 246.672 163.034 246.84C162.866 247.008 162.662 247.092 162.422 247.092C162.182 247.092 161.978 247.008 161.81 246.84C161.642 246.672 161.558 246.468 161.558 246.228C161.558 245.988 161.642 245.784 161.81 245.616C161.978 245.448 162.182 245.364 162.422 245.364C162.662 245.364 162.866 245.448 163.034 245.616C163.202 245.784 163.286 245.988 163.286 246.228ZM163.016 258H161.828V249H163.016V258ZM170.307 249V250.152H167.715V255.606C167.715 256.098 167.811 256.452 168.003 256.668C168.195 256.872 168.483 256.98 168.867 256.992C169.251 256.992 169.731 256.98 170.307 256.956V258C169.023 258.192 168.069 258.102 167.445 257.73C166.833 257.346 166.527 256.638 166.527 255.606V250.152H164.637V249H166.527V246.84L167.715 246.48V249H170.307ZM176.067 254.58H174.807C174.807 253.5 175.215 252.552 176.031 251.736C176.127 251.64 176.319 251.454 176.607 251.178C176.907 250.902 177.123 250.692 177.255 250.548C177.387 250.404 177.549 250.212 177.741 249.972C177.933 249.72 178.065 249.48 178.137 249.252C178.221 249.012 178.263 248.766 178.263 248.514C178.263 247.842 178.029 247.326 177.561 246.966C177.105 246.594 176.493 246.408 175.725 246.408C174.249 246.408 173.337 247.014 172.989 248.226L171.927 247.632C172.203 246.852 172.677 246.252 173.349 245.832C174.033 245.4 174.825 245.184 175.725 245.184C176.781 245.184 177.675 245.478 178.407 246.066C179.151 246.642 179.523 247.458 179.523 248.514C179.523 249.438 179.115 250.308 178.299 251.124C178.251 251.16 178.107 251.292 177.867 251.52C177.639 251.736 177.489 251.886 177.417 251.97C177.345 252.042 177.213 252.18 177.021 252.384C176.829 252.588 176.697 252.756 176.625 252.888C176.553 253.02 176.463 253.188 176.355 253.392C176.247 253.584 176.169 253.782 176.121 253.986C176.085 254.178 176.067 254.376 176.067 254.58ZM176.427 257.19C176.427 257.466 176.331 257.7 176.139 257.892C175.947 258.084 175.713 258.18 175.437 258.18C175.161 258.18 174.927 258.084 174.735 257.892C174.543 257.7 174.447 257.466 174.447 257.19C174.447 256.914 174.543 256.68 174.735 256.488C174.927 256.296 175.161 256.2 175.437 256.2C175.713 256.2 175.947 256.296 176.139 256.488C176.331 256.68 176.427 256.914 176.427 257.19Z" fill="#CDE4FD"></path></svg> 