<?xml version="1.0" encoding="UTF-8"?> <svg xmlns="http://www.w3.org/2000/svg" width="400" height="600" viewBox="0 0 400 600" fill="none"><rect width="400" height="600" rx="20" fill="#7F3CC9"></rect><path d="M47.296 84.136L60.8 101H65.952V78.6H61.536V95.464L48.032 78.6H42.88V101H47.296V84.136ZM80.4918 97.768C77.4838 97.768 75.1478 96.456 74.5398 94.12H88.2998C88.4918 93.384 88.5878 92.648 88.5878 91.944C88.5878 87.624 84.9398 84.456 80.0758 84.456C74.7318 84.456 70.1878 87.656 70.1878 93C70.1878 97.8 74.1238 101.576 80.0758 101.576C83.0198 101.576 86.0278 100.584 88.1718 99.496L86.9237 96.168C84.6518 97.352 82.6678 97.768 80.4918 97.768ZM79.8198 88.008C82.3158 88.008 83.9158 89.128 84.3318 91.016H74.6358C75.2758 89.064 77.0677 88.008 79.8198 88.008ZM94.39 85H89.75L97.302 101H101.942L109.526 85H104.822L99.638 96.232L94.39 85ZM121.179 97.768C118.171 97.768 115.835 96.456 115.227 94.12H128.987C129.179 93.384 129.275 92.648 129.275 91.944C129.275 87.624 125.627 84.456 120.763 84.456C115.419 84.456 110.875 87.656 110.875 93C110.875 97.8 114.811 101.576 120.763 101.576C123.707 101.576 126.715 100.584 128.859 99.496L127.611 96.168C125.339 97.352 123.355 97.768 121.179 97.768ZM120.507 88.008C123.003 88.008 124.603 89.128 125.019 91.016H115.323C115.963 89.064 117.755 88.008 120.507 88.008ZM142.982 84.456C140.198 84.456 137.99 86.824 137.062 88.552V85H132.838V101H137.062V93.064C137.062 90.12 139.91 88.392 142.566 88.392C143.174 88.392 144.006 88.584 144.774 88.936L145.67 85.096C144.87 84.712 143.878 84.456 142.982 84.456ZM166.436 88.424C168.964 88.424 170.276 89.992 170.276 92.264V101H174.5V91.752C174.5 87.4 172.004 84.52 167.652 84.52C164.612 84.52 162.244 86.472 161.124 88.552V77.288H156.9V101H161.124V93.064C161.124 89.896 163.78 88.424 166.436 88.424ZM184.75 91.88C181.454 91.88 178.19 93.352 178.19 96.776C178.19 99.656 180.43 101.64 183.438 101.64C186.158 101.64 188.59 100.168 190.126 98.344C190.19 100.136 191.086 101.64 193.23 101.64C194.542 101.64 196.462 101 198.222 100.04L197.358 96.776C196.43 97.256 195.598 97.608 195.118 97.608C194.67 97.608 194.35 97.32 194.35 96.84V91.08C194.35 86.696 191.79 84.36 187.406 84.36C184.878 84.36 181.518 85.352 179.534 85.992L180.59 89.832C182.926 88.968 185.358 88.232 187.022 88.232C189.038 88.232 190.126 89.352 190.126 91.016V92.872C188.75 92.392 186.478 91.88 184.75 91.88ZM184.814 98.024C183.47 98.024 182.51 97.48 182.51 96.424C182.51 95.272 183.566 94.6 184.974 94.6C186.51 94.6 188.366 94.76 190.126 95.08V95.688C188.622 97.16 186.414 98.024 184.814 98.024ZM202.859 85H198.219L205.771 101H210.411L217.995 85H213.291L208.107 96.232L202.859 85ZM229.648 97.768C226.64 97.768 224.304 96.456 223.696 94.12H237.456C237.648 93.384 237.744 92.648 237.744 91.944C237.744 87.624 234.096 84.456 229.232 84.456C223.888 84.456 219.344 87.656 219.344 93C219.344 97.8 223.28 101.576 229.232 101.576C232.176 101.576 235.184 100.584 237.328 99.496L236.08 96.168C233.808 97.352 231.824 97.768 229.648 97.768ZM228.976 88.008C231.472 88.008 233.072 89.128 233.488 91.016H223.792C224.432 89.064 226.224 88.008 228.976 88.008ZM255.265 78.6H250.849V101H255.265V78.6ZM278.867 97.768C275.859 97.768 273.523 96.456 272.915 94.12H286.675C286.867 93.384 286.963 92.648 286.963 91.944C286.963 87.624 283.315 84.456 278.451 84.456C273.107 84.456 268.563 87.656 268.563 93C268.563 97.8 272.499 101.576 278.451 101.576C281.395 101.576 284.403 100.584 286.547 99.496L285.299 96.168C283.027 97.352 281.043 97.768 278.867 97.768ZM278.195 88.008C280.691 88.008 282.291 89.128 282.707 91.016H273.011C273.651 89.064 275.443 88.008 278.195 88.008ZM292.765 85H288.125L295.677 101H300.317L307.901 85H303.197L298.013 96.232L292.765 85ZM319.554 97.768C316.546 97.768 314.21 96.456 313.602 94.12H327.362C327.554 93.384 327.65 92.648 327.65 91.944C327.65 87.624 324.002 84.456 319.138 84.456C313.794 84.456 309.25 87.656 309.25 93C309.25 97.8 313.186 101.576 319.138 101.576C322.082 101.576 325.09 100.584 327.234 99.496L325.986 96.168C323.714 97.352 321.73 97.768 319.554 97.768ZM318.882 88.008C321.378 88.008 322.978 89.128 323.394 91.016H313.698C314.338 89.064 316.13 88.008 318.882 88.008ZM341.357 84.456C338.573 84.456 336.365 86.824 335.437 88.552V85H331.213V101H335.437V93.064C335.437 90.12 338.285 88.392 340.941 88.392C341.549 88.392 342.381 88.584 343.149 88.936L344.045 85.096C343.245 84.712 342.253 84.456 341.357 84.456ZM51.936 128.424C54.464 128.424 55.776 129.992 55.776 132.264V141H60V131.752C60 127.4 57.504 124.52 53.152 124.52C50.112 124.52 47.744 126.472 46.624 128.552V117.288H42.4V141H46.624V133.064C46.624 129.896 49.28 128.424 51.936 128.424ZM70.25 131.88C66.954 131.88 63.69 133.352 63.69 136.776C63.69 139.656 65.93 141.64 68.938 141.64C71.658 141.64 74.09 140.168 75.626 138.344C75.69 140.136 76.586 141.64 78.73 141.64C80.042 141.64 81.962 141 83.722 140.04L82.858 136.776C81.93 137.256 81.098 137.608 80.618 137.608C80.17 137.608 79.85 137.32 79.85 136.84V131.08C79.85 126.696 77.29 124.36 72.906 124.36C70.378 124.36 67.018 125.352 65.034 125.992L66.09 129.832C68.426 128.968 70.858 128.232 72.522 128.232C74.538 128.232 75.626 129.352 75.626 131.016V132.872C74.25 132.392 71.978 131.88 70.25 131.88ZM70.314 138.024C68.97 138.024 68.01 137.48 68.01 136.424C68.01 135.272 69.066 134.6 70.474 134.6C72.01 134.6 73.866 134.76 75.626 135.08V135.688C74.122 137.16 71.914 138.024 70.314 138.024ZM93.1267 141.544C96.3908 141.544 98.9508 139.656 100.007 137.448V141H104.231V117H100.007V125.576C98.4068 125.064 96.1988 124.424 94.4708 124.424C89.0948 124.424 85.0628 128.36 85.0628 133.16C85.0628 138.344 88.7428 141.544 93.1267 141.544ZM94.3748 137.608C91.5268 137.608 89.3188 136.008 89.3188 133.128C89.3188 130.312 91.5268 128.136 94.4068 128.136C96.3588 128.136 98.1508 128.552 100.007 129.096V132.552C100.007 135.624 97.1908 137.608 94.3748 137.608ZM123.688 131.88C120.391 131.88 117.128 133.352 117.128 136.776C117.128 139.656 119.368 141.64 122.376 141.64C125.095 141.64 127.528 140.168 129.064 138.344C129.128 140.136 130.024 141.64 132.168 141.64C133.48 141.64 135.4 141 137.16 140.04L136.296 136.776C135.368 137.256 134.536 137.608 134.056 137.608C133.608 137.608 133.288 137.32 133.288 136.84V131.08C133.288 126.696 130.728 124.36 126.344 124.36C123.816 124.36 120.456 125.352 118.472 125.992L119.528 129.832C121.864 128.968 124.296 128.232 125.96 128.232C127.976 128.232 129.064 129.352 129.064 131.016V132.872C127.688 132.392 125.416 131.88 123.688 131.88ZM123.752 138.024C122.408 138.024 121.448 137.48 121.448 136.424C121.448 135.272 122.504 134.6 123.911 134.6C125.448 134.6 127.304 134.76 129.064 135.08V135.688C127.56 137.16 125.352 138.024 123.752 138.024ZM154.315 138.888C153.259 138.888 152.715 138.504 152.715 137.96C152.715 137.512 153.131 137.192 153.515 137.096C154.251 137.224 155.051 137.288 155.851 137.288C160.683 137.288 164.203 134.536 164.203 130.888C164.203 129.8 163.915 128.84 163.467 128.04C164.235 127.656 165.131 127.432 166.251 127.304L165.483 123.368C163.435 123.72 161.835 124.488 160.619 125.48C159.243 124.808 157.579 124.456 155.851 124.456C151.467 124.456 147.531 126.664 147.531 130.888C147.531 132.616 148.907 134.376 150.379 135.336C149.579 135.848 148.651 136.68 148.651 137.736C148.651 138.76 149.323 139.88 150.187 140.296C148.587 140.712 146.891 142.28 146.891 143.976C146.891 147.336 150.667 149.096 156.491 149.096C161.963 149.096 165.995 147.304 165.995 143.656C165.995 140.328 161.963 138.888 156.491 138.888H154.315ZM155.819 127.944C158.091 127.944 159.819 128.936 159.819 130.76C159.819 132.264 158.251 133.512 155.819 133.512C153.515 133.512 151.787 132.36 151.787 130.76C151.787 128.936 153.515 127.944 155.819 127.944ZM156.427 142.472C159.723 142.472 161.899 142.92 161.899 144.008C161.899 145.192 159.723 145.64 156.427 145.64C152.907 145.64 150.955 145.128 150.955 143.976C150.955 143.336 151.563 142.792 152.267 142.504C152.811 142.472 155.787 142.472 156.427 142.472ZM175.366 141.512C178.278 141.512 180.742 139.752 181.894 137.48V141H186.118V125H181.894V132.744C181.894 136.136 179.622 137.608 176.934 137.608C174.406 137.608 172.87 136.328 172.87 133.736V125H168.646V134.28C168.646 138.632 171.078 141.512 175.366 141.512ZM195.155 125H190.995V141H195.155V125ZM190.547 120.392C190.547 121.8 191.667 122.92 193.075 122.92C194.483 122.92 195.603 121.8 195.603 120.392C195.603 119.016 194.483 117.896 193.075 117.896C191.667 117.896 190.547 119.016 190.547 120.392ZM204.217 141V117H200.025V141H204.217ZM207.265 128.68H210.305V134.888C210.305 138.92 212.449 141.544 216.417 141.544C218.113 141.544 220.385 140.808 221.729 140.104L220.801 136.488C219.777 137.128 218.369 137.64 217.121 137.64C215.457 137.64 214.529 136.456 214.529 134.728V128.68H221.185V125H214.529V120.2H211.009L210.433 125.128L207.265 125.32V128.68ZM242.371 125H237.731C236.291 128.424 234.531 132.552 232.867 136.424L227.139 125H222.531L230.787 141.224C230.787 141.256 230.723 141.32 230.723 141.384C229.923 143.176 229.027 144.936 227.331 144.936C227.107 144.936 226.467 144.872 225.891 144.776L225.667 148.84C226.211 148.936 226.915 149 227.139 149C231.651 149 233.123 145.736 234.659 142.312L242.371 125ZM53.504 164.456C50.24 164.456 47.68 166.344 46.624 168.552V165H42.4V188.68H46.624V180.456C48.192 180.936 50.4 181.576 52.16 181.576C57.536 181.576 61.568 177.64 61.568 172.84C61.568 167.656 57.888 164.456 53.504 164.456ZM52.256 168.392C55.104 168.392 57.312 169.96 57.312 172.84C57.312 175.528 54.976 177.864 52.224 177.864C50.24 177.864 48.448 177.448 46.624 176.904V173.064C46.624 170.12 49.408 168.392 52.256 168.392ZM69.4983 181V157H65.3063V181H69.4983ZM79.9062 171.88C76.6102 171.88 73.3463 173.352 73.3463 176.776C73.3463 179.656 75.5863 181.64 78.5943 181.64C81.3142 181.64 83.7463 180.168 85.2823 178.344C85.3463 180.136 86.2423 181.64 88.3863 181.64C89.6983 181.64 91.6183 181 93.3783 180.04L92.5143 176.776C91.5863 177.256 90.7543 177.608 90.2743 177.608C89.8263 177.608 89.5063 177.32 89.5063 176.84V171.08C89.5063 166.696 86.9463 164.36 82.5623 164.36C80.0343 164.36 76.6743 165.352 74.6903 165.992L75.7463 169.832C78.0823 168.968 80.5143 168.232 82.1783 168.232C84.1943 168.232 85.2823 169.352 85.2823 171.016V172.872C83.9063 172.392 81.6343 171.88 79.9062 171.88ZM79.9703 178.024C78.6263 178.024 77.6663 177.48 77.6663 176.424C77.6663 175.272 78.7223 174.6 80.1302 174.6C81.6663 174.6 83.5223 174.76 85.2823 175.08V175.688C83.7783 177.16 81.5703 178.024 79.9703 178.024ZM113.215 165H108.575C107.135 168.424 105.375 172.552 103.711 176.424L97.983 165H93.375L101.631 181.224C101.631 181.256 101.567 181.32 101.567 181.384C100.767 183.176 99.871 184.936 98.175 184.936C97.951 184.936 97.311 184.872 96.735 184.776L96.511 188.84C97.055 188.936 97.759 189 97.983 189C102.495 189 103.967 185.736 105.503 182.312L113.215 165ZM119.811 181V157H115.619V181H119.811ZM128.843 165H124.683V181H128.843V165ZM124.235 160.392C124.235 161.8 125.355 162.92 126.763 162.92C128.171 162.92 129.291 161.8 129.291 160.392C129.291 159.016 128.171 157.896 126.763 157.896C125.355 157.896 124.235 159.016 124.235 160.392ZM147.857 165.576C145.969 164.936 142.993 164.392 140.465 164.392C135.921 164.392 132.689 166.376 132.689 169.512C132.689 175.752 144.593 173.64 144.593 176.168C144.593 177.288 142.993 177.928 140.689 177.928C138.225 177.928 135.729 177.16 133.617 176.232L132.368 179.56C134.545 180.712 137.521 181.64 140.529 181.64C144.433 181.64 148.753 179.624 148.753 176.04C148.753 169.8 136.849 172.008 136.849 169.352C136.849 168.392 138.513 168.072 140.625 168.072C142.673 168.072 144.657 168.488 146.737 169.288L147.857 165.576ZM150.671 168.68H153.711V174.888C153.711 178.92 155.855 181.544 159.823 181.544C161.519 181.544 163.791 180.808 165.135 180.104L164.207 176.488C163.183 177.128 161.775 177.64 160.527 177.64C158.863 177.64 157.935 176.456 157.935 174.728V168.68H164.591V165H157.935V160.2H154.415L153.839 165.128L150.671 165.32V168.68Z" fill="#E6D0FE"></path><path d="M46.3 247.4C48.016 247.4 49.432 248.012 50.548 249.236C51.676 250.448 52.24 251.936 52.24 253.7C52.24 255.464 51.676 256.958 50.548 258.182C49.432 259.394 48.016 260 46.3 260H41.44V247.4H46.3ZM46.3 258.812C47.68 258.812 48.808 258.32 49.684 257.336C50.572 256.352 51.016 255.14 51.016 253.7C51.016 252.26 50.572 251.048 49.684 250.064C48.808 249.08 47.68 248.588 46.3 248.588H42.7V258.812H46.3ZM55.4211 248.84C55.2531 249.008 55.0491 249.092 54.8091 249.092C54.5691 249.092 54.3651 249.008 54.1971 248.84C54.0291 248.672 53.9451 248.468 53.9451 248.228C53.9451 247.988 54.0291 247.784 54.1971 247.616C54.3651 247.448 54.5691 247.364 54.8091 247.364C55.0491 247.364 55.2531 247.448 55.4211 247.616C55.5891 247.784 55.6731 247.988 55.6731 248.228C55.6731 248.468 55.5891 248.672 55.4211 248.84ZM54.2151 260V251H55.4031V260H54.2151ZM65.6641 247.4H66.8521V260H65.6641V258.236C64.8361 259.556 63.6241 260.216 62.0281 260.216C60.7441 260.216 59.6461 259.76 58.7341 258.848C57.8341 257.936 57.3841 256.82 57.3841 255.5C57.3841 254.18 57.8341 253.064 58.7341 252.152C59.6461 251.24 60.7441 250.784 62.0281 250.784C63.6241 250.784 64.8361 251.444 65.6641 252.764V247.4ZM59.5981 258.038C60.2821 258.722 61.1221 259.064 62.1181 259.064C63.1141 259.064 63.9541 258.722 64.6381 258.038C65.3221 257.342 65.6641 256.496 65.6641 255.5C65.6641 254.504 65.3221 253.664 64.6381 252.98C63.9541 252.284 63.1141 251.936 62.1181 251.936C61.1221 251.936 60.2821 252.284 59.5981 252.98C58.9141 253.664 58.5721 254.504 58.5721 255.5C58.5721 256.496 58.9141 257.342 59.5981 258.038ZM80.3474 251H81.6074L77.7554 260.828C77.4074 261.716 76.9094 262.412 76.2614 262.916C75.6254 263.432 74.9114 263.66 74.1194 263.6V262.484C75.1994 262.604 76.0214 261.98 76.5854 260.612L76.8194 260.054L72.7874 251H74.0474L77.4314 258.542L80.3474 251ZM90.2336 258.866C89.3216 259.766 88.2056 260.216 86.8856 260.216C85.5656 260.216 84.4436 259.766 83.5196 258.866C82.6076 257.954 82.1516 256.832 82.1516 255.5C82.1516 254.168 82.6076 253.052 83.5196 252.152C84.4436 251.24 85.5656 250.784 86.8856 250.784C88.2056 250.784 89.3216 251.24 90.2336 252.152C91.1576 253.052 91.6196 254.168 91.6196 255.5C91.6196 256.832 91.1576 257.954 90.2336 258.866ZM84.3656 258.038C85.0496 258.722 85.8896 259.064 86.8856 259.064C87.8816 259.064 88.7216 258.722 89.4056 258.038C90.0896 257.342 90.4316 256.496 90.4316 255.5C90.4316 254.504 90.0896 253.664 89.4056 252.98C88.7216 252.284 87.8816 251.936 86.8856 251.936C85.8896 251.936 85.0496 252.284 84.3656 252.98C83.6816 253.664 83.3396 254.504 83.3396 255.5C83.3396 256.496 83.6816 257.342 84.3656 258.038ZM99.9437 251H101.132V260H99.9437V258.596C99.2717 259.676 98.2637 260.216 96.9197 260.216C95.8277 260.216 94.9637 259.886 94.3277 259.226C93.7037 258.554 93.3917 257.654 93.3917 256.526V251H94.5797V256.526C94.5797 257.33 94.7897 257.954 95.2097 258.398C95.6417 258.842 96.2477 259.064 97.0277 259.064C97.8917 259.064 98.5937 258.794 99.1337 258.254C99.6737 257.702 99.9437 256.856 99.9437 255.716V251ZM109.081 253.358C109.081 253.766 109.261 254.09 109.621 254.33C109.981 254.57 110.419 254.756 110.935 254.888C111.451 255.02 111.967 255.17 112.483 255.338C112.999 255.494 113.437 255.764 113.797 256.148C114.157 256.52 114.337 257.012 114.337 257.624C114.337 258.392 114.031 259.016 113.419 259.496C112.819 259.976 112.039 260.216 111.079 260.216C110.215 260.216 109.477 260.024 108.865 259.64C108.265 259.256 107.845 258.758 107.605 258.146L108.613 257.552C108.781 258.02 109.081 258.392 109.513 258.668C109.957 258.932 110.479 259.064 111.079 259.064C111.667 259.064 112.159 258.95 112.555 258.722C112.951 258.482 113.149 258.116 113.149 257.624C113.149 257.216 112.969 256.892 112.609 256.652C112.249 256.412 111.811 256.226 111.295 256.094C110.779 255.962 110.263 255.818 109.747 255.662C109.231 255.494 108.793 255.224 108.433 254.852C108.073 254.468 107.893 253.97 107.893 253.358C107.893 252.626 108.181 252.014 108.757 251.522C109.345 251.03 110.083 250.784 110.971 250.784C111.703 250.784 112.345 250.952 112.897 251.288C113.449 251.612 113.857 252.056 114.121 252.62L113.131 253.196C112.783 252.356 112.063 251.936 110.971 251.936C110.455 251.936 110.011 252.062 109.639 252.314C109.267 252.554 109.081 252.902 109.081 253.358ZM120.443 250.784C121.535 250.784 122.393 251.12 123.017 251.792C123.653 252.452 123.971 253.346 123.971 254.474V260H122.783V254.474C122.783 253.67 122.567 253.046 122.135 252.602C121.715 252.158 121.115 251.936 120.335 251.936C119.471 251.936 118.769 252.212 118.229 252.764C117.689 253.304 117.419 254.144 117.419 255.284V260H116.231V247.4H117.419V252.404C118.091 251.324 119.099 250.784 120.443 250.784ZM134.008 251H135.196V260H134.008V258.236C133.18 259.556 131.968 260.216 130.372 260.216C129.088 260.216 127.99 259.76 127.078 258.848C126.178 257.936 125.728 256.82 125.728 255.5C125.728 254.18 126.178 253.064 127.078 252.152C127.99 251.24 129.088 250.784 130.372 250.784C131.968 250.784 133.18 251.444 134.008 252.764V251ZM127.942 258.038C128.626 258.722 129.466 259.064 130.462 259.064C131.458 259.064 132.298 258.722 132.982 258.038C133.666 257.342 134.008 256.496 134.008 255.5C134.008 254.504 133.666 253.664 132.982 252.98C132.298 252.284 131.458 251.936 130.462 251.936C129.466 251.936 128.626 252.284 127.942 252.98C127.258 253.664 126.916 254.504 126.916 255.5C126.916 256.496 127.258 257.342 127.942 258.038ZM138.899 252.494C139.451 251.402 140.399 250.856 141.743 250.856V252.008C140.927 252.008 140.249 252.248 139.709 252.728C139.169 253.208 138.899 253.964 138.899 254.996V260H137.711V251H138.899V252.494ZM146.984 250.784C148.316 250.784 149.39 251.258 150.206 252.206C151.034 253.142 151.448 254.252 151.448 255.536C151.448 255.668 151.436 255.854 151.412 256.094H143.51C143.63 257.006 144.014 257.732 144.662 258.272C145.322 258.8 146.132 259.064 147.092 259.064C147.776 259.064 148.364 258.926 148.856 258.65C149.36 258.362 149.738 257.99 149.99 257.534L151.034 258.146C150.638 258.782 150.098 259.286 149.414 259.658C148.73 260.03 147.95 260.216 147.074 260.216C145.658 260.216 144.506 259.772 143.618 258.884C142.73 257.996 142.286 256.868 142.286 255.5C142.286 254.156 142.724 253.034 143.6 252.134C144.476 251.234 145.604 250.784 146.984 250.784ZM146.984 251.936C146.048 251.936 145.262 252.218 144.626 252.782C144.002 253.334 143.63 254.054 143.51 254.942H150.224C150.104 253.994 149.738 253.256 149.126 252.728C148.514 252.2 147.8 251.936 146.984 251.936ZM162.608 252.152H160.016V257.606C160.016 258.098 160.112 258.452 160.304 258.668C160.496 258.872 160.784 258.98 161.168 258.992C161.552 258.992 162.032 258.98 162.608 258.956V260C161.348 260.192 160.4 260.102 159.764 259.73C159.14 259.358 158.828 258.65 158.828 257.606V252.152H156.938V251H158.828V248.84L160.016 248.48V251H162.608V252.152ZM168.8 250.784C169.892 250.784 170.75 251.12 171.374 251.792C172.01 252.452 172.328 253.346 172.328 254.474V260H171.14V254.474C171.14 253.67 170.924 253.046 170.492 252.602C170.072 252.158 169.472 251.936 168.692 251.936C167.828 251.936 167.126 252.212 166.586 252.764C166.046 253.304 165.776 254.144 165.776 255.284V260H164.588V247.4H165.776V252.404C166.448 251.324 167.456 250.784 168.8 250.784ZM178.783 250.784C180.115 250.784 181.189 251.258 182.005 252.206C182.833 253.142 183.247 254.252 183.247 255.536C183.247 255.668 183.235 255.854 183.211 256.094H175.309C175.429 257.006 175.813 257.732 176.461 258.272C177.121 258.8 177.931 259.064 178.891 259.064C179.575 259.064 180.163 258.926 180.655 258.65C181.159 258.362 181.537 257.99 181.789 257.534L182.833 258.146C182.437 258.782 181.897 259.286 181.213 259.658C180.529 260.03 179.749 260.216 178.873 260.216C177.457 260.216 176.305 259.772 175.417 258.884C174.529 257.996 174.085 256.868 174.085 255.5C174.085 254.156 174.523 253.034 175.399 252.134C176.275 251.234 177.403 250.784 178.783 250.784ZM178.783 251.936C177.847 251.936 177.061 252.218 176.425 252.782C175.801 253.334 175.429 254.054 175.309 254.942H182.023C181.903 253.994 181.537 253.256 180.925 252.728C180.313 252.2 179.599 251.936 178.783 251.936ZM185.721 253.358C185.721 253.766 185.901 254.09 186.261 254.33C186.621 254.57 187.059 254.756 187.575 254.888C188.091 255.02 188.607 255.17 189.123 255.338C189.639 255.494 190.077 255.764 190.437 256.148C190.797 256.52 190.977 257.012 190.977 257.624C190.977 258.392 190.671 259.016 190.059 259.496C189.459 259.976 188.679 260.216 187.719 260.216C186.855 260.216 186.117 260.024 185.505 259.64C184.905 259.256 184.485 258.758 184.245 258.146L185.253 257.552C185.421 258.02 185.721 258.392 186.153 258.668C186.597 258.932 187.119 259.064 187.719 259.064C188.307 259.064 188.799 258.95 189.195 258.722C189.591 258.482 189.789 258.116 189.789 257.624C189.789 257.216 189.609 256.892 189.249 256.652C188.889 256.412 188.451 256.226 187.935 256.094C187.419 255.962 186.903 255.818 186.387 255.662C185.871 255.494 185.433 255.224 185.073 254.852C184.713 254.468 184.533 253.97 184.533 253.358C184.533 252.626 184.821 252.014 185.397 251.522C185.985 251.03 186.723 250.784 187.611 250.784C188.343 250.784 188.985 250.952 189.537 251.288C190.089 251.612 190.497 252.056 190.761 252.62L189.771 253.196C189.423 252.356 188.703 251.936 187.611 251.936C187.095 251.936 186.651 252.062 186.279 252.314C185.907 252.554 185.721 252.902 185.721 253.358ZM196.854 250.784C198.186 250.784 199.26 251.258 200.076 252.206C200.904 253.142 201.318 254.252 201.318 255.536C201.318 255.668 201.306 255.854 201.282 256.094H193.38C193.5 257.006 193.884 257.732 194.532 258.272C195.192 258.8 196.002 259.064 196.962 259.064C197.646 259.064 198.234 258.926 198.726 258.65C199.23 258.362 199.608 257.99 199.86 257.534L200.904 258.146C200.508 258.782 199.968 259.286 199.284 259.658C198.6 260.03 197.82 260.216 196.944 260.216C195.528 260.216 194.376 259.772 193.488 258.884C192.6 257.996 192.156 256.868 192.156 255.5C192.156 254.156 192.594 253.034 193.47 252.134C194.346 251.234 195.474 250.784 196.854 250.784ZM196.854 251.936C195.918 251.936 195.132 252.218 194.496 252.782C193.872 253.334 193.5 254.054 193.38 254.942H200.094C199.974 253.994 199.608 253.256 198.996 252.728C198.384 252.2 197.67 251.936 196.854 251.936ZM208.643 253.358C208.643 253.766 208.823 254.09 209.183 254.33C209.543 254.57 209.981 254.756 210.497 254.888C211.013 255.02 211.529 255.17 212.045 255.338C212.561 255.494 212.999 255.764 213.359 256.148C213.719 256.52 213.899 257.012 213.899 257.624C213.899 258.392 213.593 259.016 212.981 259.496C212.381 259.976 211.601 260.216 210.641 260.216C209.777 260.216 209.039 260.024 208.427 259.64C207.827 259.256 207.407 258.758 207.167 258.146L208.175 257.552C208.343 258.02 208.643 258.392 209.075 258.668C209.519 258.932 210.041 259.064 210.641 259.064C211.229 259.064 211.721 258.95 212.117 258.722C212.513 258.482 212.711 258.116 212.711 257.624C212.711 257.216 212.531 256.892 212.171 256.652C211.811 256.412 211.373 256.226 210.857 256.094C210.341 255.962 209.825 255.818 209.309 255.662C208.793 255.494 208.355 255.224 207.995 254.852C207.635 254.468 207.455 253.97 207.455 253.358C207.455 252.626 207.743 252.014 208.319 251.522C208.907 251.03 209.645 250.784 210.533 250.784C211.265 250.784 211.907 250.952 212.459 251.288C213.011 251.612 213.419 252.056 213.683 252.62L212.693 253.196C212.345 252.356 211.625 251.936 210.533 251.936C210.017 251.936 209.573 252.062 209.201 252.314C208.829 252.554 208.643 252.902 208.643 253.358ZM223.159 258.866C222.247 259.766 221.131 260.216 219.811 260.216C218.491 260.216 217.369 259.766 216.445 258.866C215.533 257.954 215.077 256.832 215.077 255.5C215.077 254.168 215.533 253.052 216.445 252.152C217.369 251.24 218.491 250.784 219.811 250.784C221.131 250.784 222.247 251.24 223.159 252.152C224.083 253.052 224.545 254.168 224.545 255.5C224.545 256.832 224.083 257.954 223.159 258.866ZM217.291 258.038C217.975 258.722 218.815 259.064 219.811 259.064C220.807 259.064 221.647 258.722 222.331 258.038C223.015 257.342 223.357 256.496 223.357 255.5C223.357 254.504 223.015 253.664 222.331 252.98C221.647 252.284 220.807 251.936 219.811 251.936C218.815 251.936 217.975 252.284 217.291 252.98C216.607 253.664 216.265 254.504 216.265 255.5C216.265 256.496 216.607 257.342 217.291 258.038ZM230.745 250.784C231.837 250.784 232.695 251.12 233.319 251.792C233.955 252.452 234.273 253.346 234.273 254.474V260H233.085V254.474C233.085 253.67 232.869 253.046 232.437 252.602C232.017 252.158 231.417 251.936 230.637 251.936C229.773 251.936 229.071 252.212 228.531 252.764C227.991 253.304 227.721 254.144 227.721 255.284V260H226.533V251H227.721V252.404C228.393 251.324 229.401 250.784 230.745 250.784ZM244.311 251H245.499V259.64C245.499 260.936 245.055 261.956 244.167 262.7C243.279 263.444 242.217 263.816 240.981 263.816C238.869 263.816 237.447 263.084 236.715 261.62L237.759 261.026C238.299 262.118 239.373 262.664 240.981 262.664C242.013 262.664 242.823 262.388 243.411 261.836C244.011 261.296 244.311 260.564 244.311 259.64V258.236C243.483 259.556 242.271 260.216 240.675 260.216C239.391 260.216 238.293 259.76 237.381 258.848C236.481 257.936 236.031 256.82 236.031 255.5C236.031 254.18 236.481 253.064 237.381 252.152C238.293 251.24 239.391 250.784 240.675 250.784C242.271 250.784 243.483 251.444 244.311 252.764V251ZM238.245 258.038C238.929 258.722 239.769 259.064 240.765 259.064C241.761 259.064 242.601 258.722 243.285 258.038C243.969 257.342 244.311 256.496 244.311 255.5C244.311 254.504 243.969 253.664 243.285 252.98C242.601 252.284 241.761 251.936 240.765 251.936C239.769 251.936 238.929 252.284 238.245 252.98C237.561 253.664 237.219 254.504 237.219 255.5C237.219 256.496 237.561 257.342 238.245 258.038ZM248.95 253.358C248.95 253.766 249.13 254.09 249.49 254.33C249.85 254.57 250.288 254.756 250.804 254.888C251.32 255.02 251.836 255.17 252.352 255.338C252.868 255.494 253.306 255.764 253.666 256.148C254.026 256.52 254.206 257.012 254.206 257.624C254.206 258.392 253.9 259.016 253.288 259.496C252.688 259.976 251.908 260.216 250.948 260.216C250.084 260.216 249.346 260.024 248.734 259.64C248.134 259.256 247.714 258.758 247.474 258.146L248.482 257.552C248.65 258.02 248.95 258.392 249.382 258.668C249.826 258.932 250.348 259.064 250.948 259.064C251.536 259.064 252.028 258.95 252.424 258.722C252.82 258.482 253.018 258.116 253.018 257.624C253.018 257.216 252.838 256.892 252.478 256.652C252.118 256.412 251.68 256.226 251.164 256.094C250.648 255.962 250.132 255.818 249.616 255.662C249.1 255.494 248.662 255.224 248.302 254.852C247.942 254.468 247.762 253.97 247.762 253.358C247.762 252.626 248.05 252.014 248.626 251.522C249.214 251.03 249.952 250.784 250.84 250.784C251.572 250.784 252.214 250.952 252.766 251.288C253.318 251.612 253.726 252.056 253.99 252.62L253 253.196C252.652 252.356 251.932 251.936 250.84 251.936C250.324 251.936 249.88 252.062 249.508 252.314C249.136 252.554 248.95 252.902 248.95 253.358ZM271.524 251H272.748L269.976 260H268.68L266.358 252.746L264.036 260H262.74L259.968 251H261.192L263.406 258.47L265.764 251H266.952L269.31 258.47L271.524 251ZM275.745 248.84C275.577 249.008 275.373 249.092 275.133 249.092C274.893 249.092 274.689 249.008 274.521 248.84C274.353 248.672 274.269 248.468 274.269 248.228C274.269 247.988 274.353 247.784 274.521 247.616C274.689 247.448 274.893 247.364 275.133 247.364C275.373 247.364 275.577 247.448 275.745 247.616C275.913 247.784 275.997 247.988 275.997 248.228C275.997 248.468 275.913 248.672 275.745 248.84ZM274.539 260V251H275.727V260H274.539ZM283.018 252.152H280.426V257.606C280.426 258.098 280.522 258.452 280.714 258.668C280.906 258.872 281.194 258.98 281.578 258.992C281.962 258.992 282.442 258.98 283.018 258.956V260C281.758 260.192 280.81 260.102 280.174 259.73C279.55 259.358 279.238 258.65 279.238 257.606V252.152H277.348V251H279.238V248.84L280.426 248.48V251H283.018V252.152ZM289.21 250.784C290.302 250.784 291.16 251.12 291.784 251.792C292.42 252.452 292.738 253.346 292.738 254.474V260H291.55V254.474C291.55 253.67 291.334 253.046 290.902 252.602C290.482 252.158 289.882 251.936 289.102 251.936C288.238 251.936 287.536 252.212 286.996 252.764C286.456 253.304 286.186 254.144 286.186 255.284V260H284.998V247.4H286.186V252.404C286.858 251.324 287.866 250.784 289.21 250.784ZM49 278H50.188V287H49V285.236C48.172 286.556 46.96 287.216 45.364 287.216C44.08 287.216 42.982 286.76 42.07 285.848C41.17 284.936 40.72 283.82 40.72 282.5C40.72 281.18 41.17 280.064 42.07 279.152C42.982 278.24 44.08 277.784 45.364 277.784C46.96 277.784 48.172 278.444 49 279.764V278ZM42.934 285.038C43.618 285.722 44.458 286.064 45.454 286.064C46.45 286.064 47.29 285.722 47.974 285.038C48.658 284.342 49 283.496 49 282.5C49 281.504 48.658 280.664 47.974 279.98C47.29 279.284 46.45 278.936 45.454 278.936C44.458 278.936 43.618 279.284 42.934 279.98C42.25 280.664 41.908 281.504 41.908 282.5C41.908 283.496 42.25 284.342 42.934 285.038ZM56.9154 277.784C58.0074 277.784 58.8654 278.12 59.4894 278.792C60.1254 279.452 60.4434 280.346 60.4434 281.474V287H59.2554V281.474C59.2554 280.67 59.0394 280.046 58.6074 279.602C58.1874 279.158 57.5874 278.936 56.8074 278.936C55.9434 278.936 55.2414 279.212 54.7014 279.764C54.1614 280.304 53.8914 281.144 53.8914 282.284V287H52.7034V278H53.8914V279.404C54.5634 278.324 55.5714 277.784 56.9154 277.784ZM69.0447 278H70.3047L66.4527 287.828C66.1047 288.716 65.6067 289.412 64.9587 289.916C64.3227 290.432 63.6087 290.66 62.8167 290.6V289.484C63.8967 289.604 64.7187 288.98 65.2827 287.612L65.5167 287.054L61.4847 278H62.7447L66.1287 285.542L69.0447 278ZM76.5645 277.784C77.8485 277.784 78.9405 278.24 79.8405 279.152C80.7525 280.064 81.2085 281.18 81.2085 282.5C81.2085 283.82 80.7525 284.936 79.8405 285.848C78.9405 286.76 77.8485 287.216 76.5645 287.216C74.9685 287.216 73.7565 286.556 72.9285 285.236V287H71.7405V274.4H72.9285V279.764C73.7565 278.444 74.9685 277.784 76.5645 277.784ZM73.9545 285.038C74.6385 285.722 75.4785 286.064 76.4745 286.064C77.4705 286.064 78.3105 285.722 78.9945 285.038C79.6785 284.342 80.0205 283.496 80.0205 282.5C80.0205 281.504 79.6785 280.664 78.9945 279.98C78.3105 279.284 77.4705 278.936 76.4745 278.936C75.4785 278.936 74.6385 279.284 73.9545 279.98C73.2705 280.664 72.9285 281.504 72.9285 282.5C72.9285 283.496 73.2705 284.342 73.9545 285.038ZM90.7258 285.866C89.8138 286.766 88.6978 287.216 87.3778 287.216C86.0578 287.216 84.9358 286.766 84.0118 285.866C83.0998 284.954 82.6438 283.832 82.6438 282.5C82.6438 281.168 83.0998 280.052 84.0118 279.152C84.9358 278.24 86.0578 277.784 87.3778 277.784C88.6978 277.784 89.8138 278.24 90.7258 279.152C91.6498 280.052 92.1118 281.168 92.1118 282.5C92.1118 283.832 91.6498 284.954 90.7258 285.866ZM84.8578 285.038C85.5418 285.722 86.3818 286.064 87.3778 286.064C88.3738 286.064 89.2138 285.722 89.8978 285.038C90.5818 284.342 90.9238 283.496 90.9238 282.5C90.9238 281.504 90.5818 280.664 89.8978 279.98C89.2138 279.284 88.3738 278.936 87.3778 278.936C86.3818 278.936 85.5418 279.284 84.8578 279.98C84.1738 280.664 83.8318 281.504 83.8318 282.5C83.8318 283.496 84.1738 284.342 84.8578 285.038ZM101.84 274.4H103.028V287H101.84V285.236C101.012 286.556 99.7998 287.216 98.2038 287.216C96.9198 287.216 95.8218 286.76 94.9098 285.848C94.0098 284.936 93.5598 283.82 93.5598 282.5C93.5598 281.18 94.0098 280.064 94.9098 279.152C95.8218 278.24 96.9198 277.784 98.2038 277.784C99.7998 277.784 101.012 278.444 101.84 279.764V274.4ZM95.7738 285.038C96.4578 285.722 97.2978 286.064 98.2938 286.064C99.2898 286.064 100.13 285.722 100.814 285.038C101.498 284.342 101.84 283.496 101.84 282.5C101.84 281.504 101.498 280.664 100.814 279.98C100.13 279.284 99.2898 278.936 98.2938 278.936C97.2978 278.936 96.4578 279.284 95.7738 279.98C95.0898 280.664 94.7478 281.504 94.7478 282.5C94.7478 283.496 95.0898 284.342 95.7738 285.038ZM112.023 278H113.283L109.431 287.828C109.083 288.716 108.585 289.412 107.937 289.916C107.301 290.432 106.587 290.66 105.795 290.6V289.484C106.875 289.604 107.697 288.98 108.261 287.612L108.495 287.054L104.463 278H105.723L109.107 285.542L112.023 278ZM117.063 283.58C117.063 282.992 117.183 282.458 117.423 281.978C117.663 281.486 117.951 281.072 118.287 280.736C118.623 280.4 118.959 280.076 119.295 279.764C119.631 279.452 119.919 279.11 120.159 278.738C120.399 278.354 120.519 277.946 120.519 277.514C120.519 276.818 120.279 276.296 119.799 275.948C119.331 275.588 118.725 275.408 117.981 275.408C116.505 275.408 115.593 276.014 115.245 277.226L114.183 276.632C114.459 275.828 114.939 275.222 115.623 274.814C116.319 274.394 117.105 274.184 117.981 274.184C119.037 274.184 119.931 274.478 120.663 275.066C121.407 275.642 121.779 276.458 121.779 277.514C121.779 278.03 121.659 278.51 121.419 278.954C121.179 279.398 120.891 279.788 120.555 280.124C120.219 280.448 119.883 280.772 119.547 281.096C119.211 281.42 118.923 281.798 118.683 282.23C118.443 282.65 118.323 283.1 118.323 283.58H117.063ZM118.395 286.892C118.203 287.084 117.969 287.18 117.693 287.18C117.417 287.18 117.183 287.084 116.991 286.892C116.799 286.7 116.703 286.466 116.703 286.19C116.703 285.914 116.799 285.68 116.991 285.488C117.183 285.296 117.417 285.2 117.693 285.2C117.969 285.2 118.203 285.296 118.395 285.488C118.587 285.68 118.683 285.914 118.683 286.19C118.683 286.466 118.587 286.7 118.395 286.892Z" fill="#E6D0FE"></path></svg> 