<?xml version="1.0" encoding="UTF-8"?> <svg xmlns="http://www.w3.org/2000/svg" width="400" height="600" viewBox="0 0 400 600" fill="none"> <rect width="400" height="600" rx="20" fill="#E7497E"></rect> <path d="M47.296 84.136L60.8 101H65.952V78.6H61.536V95.464L48.032 78.6H42.88V101H47.296V84.136ZM80.4918 97.768C77.4838 97.768 75.1478 96.456 74.5398 94.12H88.2998C88.4918 93.384 88.5878 92.648 88.5878 91.944C88.5878 87.624 84.9398 84.456 80.0758 84.456C74.7318 84.456 70.1878 87.656 70.1878 93C70.1878 97.8 74.1238 101.576 80.0758 101.576C83.0198 101.576 86.0278 100.584 88.1718 99.496L86.9237 96.168C84.6518 97.352 82.6678 97.768 80.4918 97.768ZM79.8198 88.008C82.3158 88.008 83.9158 89.128 84.3318 91.016H74.6358C75.2758 89.064 77.0677 88.008 79.8198 88.008ZM94.39 85H89.75L97.302 101H101.942L109.526 85H104.822L99.638 96.232L94.39 85ZM121.179 97.768C118.171 97.768 115.835 96.456 115.227 94.12H128.987C129.179 93.384 129.275 92.648 129.275 91.944C129.275 87.624 125.627 84.456 120.763 84.456C115.419 84.456 110.875 87.656 110.875 93C110.875 97.8 114.811 101.576 120.763 101.576C123.707 101.576 126.715 100.584 128.859 99.496L127.611 96.168C125.339 97.352 123.355 97.768 121.179 97.768ZM120.507 88.008C123.003 88.008 124.603 89.128 125.019 91.016H115.323C115.963 89.064 117.755 88.008 120.507 88.008ZM142.982 84.456C140.198 84.456 137.99 86.824 137.062 88.552V85H132.838V101H137.062V93.064C137.062 90.12 139.91 88.392 142.566 88.392C143.174 88.392 144.006 88.584 144.774 88.936L145.67 85.096C144.87 84.712 143.878 84.456 142.982 84.456ZM166.436 88.424C168.964 88.424 170.276 89.992 170.276 92.264V101H174.5V91.752C174.5 87.4 172.004 84.52 167.652 84.52C164.612 84.52 162.244 86.472 161.124 88.552V77.288H156.9V101H161.124V93.064C161.124 89.896 163.78 88.424 166.436 88.424ZM184.75 91.88C181.454 91.88 178.19 93.352 178.19 96.776C178.19 99.656 180.43 101.64 183.438 101.64C186.158 101.64 188.59 100.168 190.126 98.344C190.19 100.136 191.086 101.64 193.23 101.64C194.542 101.64 196.462 101 198.222 100.04L197.358 96.776C196.43 97.256 195.598 97.608 195.118 97.608C194.67 97.608 194.35 97.32 194.35 96.84V91.08C194.35 86.696 191.79 84.36 187.406 84.36C184.878 84.36 181.518 85.352 179.534 85.992L180.59 89.832C182.926 88.968 185.358 88.232 187.022 88.232C189.038 88.232 190.126 89.352 190.126 91.016V92.872C188.75 92.392 186.478 91.88 184.75 91.88ZM184.814 98.024C183.47 98.024 182.51 97.48 182.51 96.424C182.51 95.272 183.566 94.6 184.974 94.6C186.51 94.6 188.366 94.76 190.126 95.08V95.688C188.622 97.16 186.414 98.024 184.814 98.024ZM202.859 85H198.219L205.771 101H210.411L217.995 85H213.291L208.107 96.232L202.859 85ZM229.648 97.768C226.64 97.768 224.304 96.456 223.696 94.12H237.456C237.648 93.384 237.744 92.648 237.744 91.944C237.744 87.624 234.096 84.456 229.232 84.456C223.888 84.456 219.344 87.656 219.344 93C219.344 97.8 223.28 101.576 229.232 101.576C232.176 101.576 235.184 100.584 237.328 99.496L236.08 96.168C233.808 97.352 231.824 97.768 229.648 97.768ZM228.976 88.008C231.472 88.008 233.072 89.128 233.488 91.016H223.792C224.432 89.064 226.224 88.008 228.976 88.008ZM255.265 78.6H250.849V101H255.265V78.6ZM278.867 97.768C275.859 97.768 273.523 96.456 272.915 94.12H286.675C286.867 93.384 286.963 92.648 286.963 91.944C286.963 87.624 283.315 84.456 278.451 84.456C273.107 84.456 268.563 87.656 268.563 93C268.563 97.8 272.499 101.576 278.451 101.576C281.395 101.576 284.403 100.584 286.547 99.496L285.299 96.168C283.027 97.352 281.043 97.768 278.867 97.768ZM278.195 88.008C280.691 88.008 282.291 89.128 282.707 91.016H273.011C273.651 89.064 275.443 88.008 278.195 88.008ZM292.765 85H288.125L295.677 101H300.317L307.901 85H303.197L298.013 96.232L292.765 85ZM319.554 97.768C316.546 97.768 314.21 96.456 313.602 94.12H327.362C327.554 93.384 327.65 92.648 327.65 91.944C327.65 87.624 324.002 84.456 319.138 84.456C313.794 84.456 309.25 87.656 309.25 93C309.25 97.8 313.186 101.576 319.138 101.576C322.082 101.576 325.09 100.584 327.234 99.496L325.986 96.168C323.714 97.352 321.73 97.768 319.554 97.768ZM318.882 88.008C321.378 88.008 322.978 89.128 323.394 91.016H313.698C314.338 89.064 316.13 88.008 318.882 88.008ZM341.357 84.456C338.573 84.456 336.365 86.824 335.437 88.552V85H331.213V101H335.437V93.064C335.437 90.12 338.285 88.392 340.941 88.392C341.549 88.392 342.381 88.584 343.149 88.936L344.045 85.096C343.245 84.712 342.253 84.456 341.357 84.456ZM49.792 120.424C51.168 120.424 52.672 120.872 54.144 121.512L55.168 117.64C53.664 117.128 51.744 116.68 49.92 116.68C45.984 116.68 43.264 119.08 43.264 122.76V125H40.64V128.68H43.296V141H47.456V128.68H54.56V125H47.296V122.952C47.296 121.224 48.256 120.424 49.792 120.424ZM61.4045 141V117H57.2125V141H61.4045ZM70.4365 125H66.2765V141H70.4365V125ZM65.8285 120.392C65.8285 121.8 66.9485 122.92 68.3565 122.92C69.7645 122.92 70.8845 121.8 70.8845 120.392C70.8845 119.016 69.7645 117.896 68.3565 117.896C66.9485 117.896 65.8285 119.016 65.8285 120.392ZM85.4503 124.456C82.6663 124.456 80.4583 126.824 79.5303 128.552V125H75.3063V141H79.5303V133.064C79.5303 130.12 82.3783 128.392 85.0343 128.392C85.6423 128.392 86.4743 128.584 87.2423 128.936L88.1383 125.096C87.3383 124.712 86.3463 124.456 85.4503 124.456ZM88.5463 128.68H91.5863V134.888C91.5863 138.92 93.7303 141.544 97.6983 141.544C99.3943 141.544 101.666 140.808 103.01 140.104L102.082 136.488C101.058 137.128 99.6503 137.64 98.4023 137.64C96.7383 137.64 95.8103 136.456 95.8103 134.728V128.68H102.466V125H95.8103V120.2H92.2903L91.7143 125.128L88.5463 125.32V128.68ZM115.461 137.768C112.453 137.768 110.117 136.456 109.509 134.12H123.269C123.461 133.384 123.557 132.648 123.557 131.944C123.557 127.624 119.909 124.456 115.045 124.456C109.701 124.456 105.157 127.656 105.157 133C105.157 137.8 109.093 141.576 115.045 141.576C117.989 141.576 120.997 140.584 123.141 139.496L121.892 136.168C119.621 137.352 117.637 137.768 115.461 137.768ZM114.789 128.008C117.285 128.008 118.885 129.128 119.301 131.016H109.605C110.245 129.064 112.036 128.008 114.789 128.008ZM134.127 141.544C137.391 141.544 139.951 139.656 141.007 137.448V141H145.231V117H141.007V125.576C139.407 125.064 137.199 124.424 135.471 124.424C130.095 124.424 126.063 128.36 126.063 133.16C126.063 138.344 129.743 141.544 134.127 141.544ZM135.375 137.608C132.527 137.608 130.319 136.008 130.319 133.128C130.319 130.312 132.527 128.136 135.407 128.136C137.359 128.136 139.151 128.552 141.007 129.096V132.552C141.007 135.624 138.191 137.608 135.375 137.608ZM177.328 141H181.616L188.624 125H184.144L179.472 135.976L174.832 125H170.416L165.776 136.008L161.136 125H156.559L163.568 141H167.888L172.624 130.056L177.328 141ZM195.124 125H190.964V141H195.124V125ZM190.516 120.392C190.516 121.8 191.636 122.92 193.044 122.92C194.452 122.92 195.572 121.8 195.572 120.392C195.572 119.016 194.452 117.896 193.044 117.896C191.636 117.896 190.516 119.016 190.516 120.392ZM198.234 128.68H201.274V134.888C201.274 138.92 203.418 141.544 207.386 141.544C209.082 141.544 211.354 140.808 212.698 140.104L211.77 136.488C210.746 137.128 209.338 137.64 208.09 137.64C206.426 137.64 205.498 136.456 205.498 134.728V128.68H212.154V125H205.498V120.2H201.978L201.402 125.128L198.234 125.32V128.68ZM225.436 128.424C227.964 128.424 229.276 129.992 229.276 132.264V141H233.5V131.752C233.5 127.4 231.004 124.52 226.652 124.52C223.612 124.52 221.244 126.472 220.124 128.552V117.288H215.9V141H220.124V133.064C220.124 129.896 222.78 128.424 225.436 128.424ZM56.544 165.576C54.656 164.936 51.68 164.392 49.152 164.392C44.608 164.392 41.376 166.376 41.376 169.512C41.376 175.752 53.28 173.64 53.28 176.168C53.28 177.288 51.68 177.928 49.376 177.928C46.912 177.928 44.416 177.16 42.304 176.232L41.056 179.56C43.232 180.712 46.208 181.64 49.216 181.64C53.12 181.64 57.44 179.624 57.44 176.04C57.44 169.8 45.536 172.008 45.536 169.352C45.536 168.392 47.2 168.072 49.312 168.072C51.36 168.072 53.344 168.488 55.424 169.288L56.544 165.576ZM70.0148 164.456C64.6708 164.456 60.0628 167.496 60.0628 172.84C60.0628 177.64 64.2228 181.576 70.0148 181.576C75.8068 181.576 79.9668 177.64 79.9668 172.84C79.9668 167.496 75.3588 164.456 70.0148 164.456ZM70.0148 168.136C73.3428 168.136 75.7108 169.864 75.7108 172.84C75.7108 175.528 73.1828 177.928 70.0148 177.928C66.8468 177.928 64.3188 175.528 64.3188 172.84C64.3188 169.864 66.6868 168.136 70.0148 168.136ZM93.9525 164.52C91.1685 164.52 88.9925 166.504 87.9365 168.392V165H83.7125V181H87.9365V173.032C87.9365 169.96 90.3045 168.424 92.5125 168.424C94.8485 168.424 96.0965 169.992 96.0965 172.104V181H100.321V173.032C100.321 169.992 102.689 168.424 104.897 168.424C107.233 168.424 108.481 169.992 108.481 172.104V181H112.705V171.592C112.705 167.368 110.497 164.52 106.337 164.52C103.649 164.52 101.089 166.504 99.8085 168.424C98.9125 166.024 96.9605 164.52 93.9525 164.52ZM126.586 177.768C123.578 177.768 121.242 176.456 120.634 174.12H134.394C134.586 173.384 134.682 172.648 134.682 171.944C134.682 167.624 131.034 164.456 126.17 164.456C120.826 164.456 116.282 167.656 116.282 173C116.282 177.8 120.218 181.576 126.17 181.576C129.114 181.576 132.122 180.584 134.266 179.496L133.017 176.168C130.746 177.352 128.762 177.768 126.586 177.768ZM125.914 168.008C128.41 168.008 130.01 169.128 130.426 171.016H120.73C121.37 169.064 123.161 168.008 125.914 168.008ZM149.22 164.456C146.052 164.456 143.524 166.344 142.468 168.552V157H138.244V179.4C140.324 180.328 144.676 181.576 147.876 181.576C153.124 181.576 157.156 177.64 157.156 172.84C157.156 167.656 153.476 164.456 149.22 164.456ZM147.972 168.392C150.756 168.392 152.9 169.96 152.9 172.84C152.9 175.528 150.564 177.864 147.94 177.864C145.988 177.864 144.324 177.544 142.468 176.936V173.064C142.468 170.12 145.284 168.392 147.972 168.392ZM169.796 164.456C164.452 164.456 159.844 167.496 159.844 172.84C159.844 177.64 164.004 181.576 169.796 181.576C175.588 181.576 179.748 177.64 179.748 172.84C179.748 167.496 175.14 164.456 169.796 164.456ZM169.796 168.136C173.124 168.136 175.492 169.864 175.492 172.84C175.492 175.528 172.964 177.928 169.796 177.928C166.628 177.928 164.1 175.528 164.1 172.84C164.1 169.864 166.468 168.136 169.796 168.136ZM190.502 181.544C193.766 181.544 196.326 179.656 197.382 177.448V181H201.606V157H197.382V165.576C195.782 165.064 193.574 164.424 191.846 164.424C186.47 164.424 182.438 168.36 182.438 173.16C182.438 178.344 186.118 181.544 190.502 181.544ZM191.75 177.608C188.902 177.608 186.694 176.008 186.694 173.128C186.694 170.312 188.902 168.136 191.782 168.136C193.734 168.136 195.526 168.552 197.382 169.096V172.552C197.382 175.624 194.566 177.608 191.75 177.608ZM223.84 165H219.2C217.76 168.424 216 172.552 214.336 176.424L208.608 165H204L212.256 181.224C212.256 181.256 212.192 181.32 212.192 181.384C211.392 183.176 210.496 184.936 208.8 184.936C208.576 184.936 207.936 184.872 207.36 184.776L207.136 188.84C207.68 188.936 208.384 189 208.608 189C213.12 189 214.592 185.736 216.128 182.312L223.84 165ZM246.282 164.456C243.114 164.456 240.586 166.344 239.53 168.552V157H235.306V179.4C237.386 180.328 241.738 181.576 244.938 181.576C250.186 181.576 254.218 177.64 254.218 172.84C254.218 167.656 250.538 164.456 246.282 164.456ZM245.034 168.392C247.818 168.392 249.962 169.96 249.962 172.84C249.962 175.528 247.626 177.864 245.002 177.864C243.05 177.864 241.386 177.544 239.53 176.936V173.064C239.53 170.12 242.346 168.392 245.034 168.392ZM267.211 177.768C264.203 177.768 261.867 176.456 261.259 174.12H275.019C275.211 173.384 275.307 172.648 275.307 171.944C275.307 167.624 271.659 164.456 266.795 164.456C261.451 164.456 256.907 167.656 256.907 173C256.907 177.8 260.843 181.576 266.795 181.576C269.739 181.576 272.747 180.584 274.891 179.496L273.642 176.168C271.371 177.352 269.387 177.768 267.211 177.768ZM266.539 168.008C269.035 168.008 270.635 169.128 271.051 171.016H261.355C261.995 169.064 263.786 168.008 266.539 168.008ZM283.093 165H278.933V181H283.093V165ZM278.485 160.392C278.485 161.8 279.605 162.92 281.013 162.92C282.421 162.92 283.541 161.8 283.541 160.392C283.541 159.016 282.421 157.896 281.013 157.896C279.605 157.896 278.485 159.016 278.485 160.392ZM297.499 168.424C300.027 168.424 301.339 169.992 301.339 172.264V181H305.562V171.752C305.562 167.4 303.067 164.52 298.715 164.52C295.675 164.52 293.307 166.472 292.187 168.552V165H287.963V181H292.187V173.064C292.187 169.896 294.843 168.424 297.499 168.424ZM315.909 178.888C314.853 178.888 314.309 178.504 314.309 177.96C314.309 177.512 314.725 177.192 315.109 177.096C315.845 177.224 316.645 177.288 317.445 177.288C322.277 177.288 325.797 174.536 325.797 170.888C325.797 169.8 325.509 168.84 325.061 168.04C325.829 167.656 326.725 167.432 327.845 167.304L327.077 163.368C325.029 163.72 323.429 164.488 322.213 165.48C320.837 164.808 319.173 164.456 317.445 164.456C313.061 164.456 309.125 166.664 309.125 170.888C309.125 172.616 310.501 174.376 311.973 175.336C311.173 175.848 310.245 176.68 310.245 177.736C310.245 178.76 310.917 179.88 311.781 180.296C310.181 180.712 308.485 182.28 308.485 183.976C308.485 187.336 312.261 189.096 318.085 189.096C323.557 189.096 327.589 187.304 327.589 183.656C327.589 180.328 323.557 178.888 318.085 178.888H315.909ZM317.413 167.944C319.685 167.944 321.413 168.936 321.413 170.76C321.413 172.264 319.845 173.512 317.413 173.512C315.109 173.512 313.381 172.36 313.381 170.76C313.381 168.936 315.109 167.944 317.413 167.944ZM318.021 182.472C321.317 182.472 323.493 182.92 323.493 184.008C323.493 185.192 321.317 185.64 318.021 185.64C314.501 185.64 312.549 185.128 312.549 183.976C312.549 183.336 313.157 182.792 313.861 182.504C314.405 182.472 317.381 182.472 318.021 182.472ZM46.624 205H42.464V221H46.624V205ZM42.016 200.392C42.016 201.8 43.136 202.92 44.544 202.92C45.952 202.92 47.072 201.8 47.072 200.392C47.072 199.016 45.952 197.896 44.544 197.896C43.136 197.896 42.016 199.016 42.016 200.392ZM61.0298 208.424C63.5578 208.424 64.8698 209.992 64.8698 212.264V221H69.0938V211.752C69.0938 207.4 66.5978 204.52 62.2458 204.52C59.2058 204.52 56.8378 206.472 55.7178 208.552V205H51.4938V221H55.7178V213.064C55.7178 209.896 58.3738 208.424 61.0298 208.424ZM88.4062 211.88C85.1102 211.88 81.8463 213.352 81.8463 216.776C81.8463 219.656 84.0863 221.64 87.0943 221.64C89.8142 221.64 92.2463 220.168 93.7823 218.344C93.8463 220.136 94.7423 221.64 96.8863 221.64C98.1983 221.64 100.118 221 101.878 220.04L101.014 216.776C100.086 217.256 99.2543 217.608 98.7743 217.608C98.3263 217.608 98.0063 217.32 98.0063 216.84V211.08C98.0063 206.696 95.4463 204.36 91.0623 204.36C88.5343 204.36 85.1743 205.352 83.1903 205.992L84.2463 209.832C86.5823 208.968 89.0143 208.232 90.6783 208.232C92.6943 208.232 93.7823 209.352 93.7823 211.016V212.872C92.4063 212.392 90.1343 211.88 88.4062 211.88ZM88.4703 218.024C87.1263 218.024 86.1663 217.48 86.1663 216.424C86.1663 215.272 87.2223 214.6 88.6302 214.6C90.1663 214.6 92.0223 214.76 93.7823 215.08V215.688C92.2783 217.16 90.0703 218.024 88.4703 218.024ZM123.482 204.456C120.698 204.456 118.49 206.824 117.562 208.552V205H113.338V221H117.562V213.064C117.562 210.12 120.41 208.392 123.066 208.392C123.674 208.392 124.506 208.584 125.274 208.936L126.17 205.096C125.37 204.712 124.378 204.456 123.482 204.456ZM137.586 217.768C134.578 217.768 132.242 216.456 131.634 214.12H145.394C145.586 213.384 145.682 212.648 145.682 211.944C145.682 207.624 142.034 204.456 137.17 204.456C131.826 204.456 127.282 207.656 127.282 213C127.282 217.8 131.218 221.576 137.17 221.576C140.114 221.576 143.122 220.584 145.266 219.496L144.017 216.168C141.746 217.352 139.762 217.768 137.586 217.768ZM136.914 208.008C139.41 208.008 141.01 209.128 141.426 211.016H131.73C132.37 209.064 134.161 208.008 136.914 208.008ZM153.436 221V197H149.244V221H153.436ZM163.844 211.88C160.548 211.88 157.284 213.352 157.284 216.776C157.284 219.656 159.524 221.64 162.532 221.64C165.252 221.64 167.684 220.168 169.22 218.344C169.284 220.136 170.18 221.64 172.324 221.64C173.636 221.64 175.556 221 177.316 220.04L176.452 216.776C175.524 217.256 174.692 217.608 174.212 217.608C173.764 217.608 173.444 217.32 173.444 216.84V211.08C173.444 206.696 170.884 204.36 166.5 204.36C163.972 204.36 160.612 205.352 158.628 205.992L159.684 209.832C162.02 208.968 164.452 208.232 166.116 208.232C168.132 208.232 169.22 209.352 169.22 211.016V212.872C167.844 212.392 165.572 211.88 163.844 211.88ZM163.908 218.024C162.564 218.024 161.604 217.48 161.604 216.424C161.604 215.272 162.66 214.6 164.068 214.6C165.604 214.6 167.46 214.76 169.22 215.08V215.688C167.716 217.16 165.508 218.024 163.908 218.024ZM177.953 208.68H180.993V214.888C180.993 218.92 183.137 221.544 187.105 221.544C188.801 221.544 191.073 220.808 192.417 220.104L191.489 216.488C190.465 217.128 189.057 217.64 187.809 217.64C186.145 217.64 185.217 216.456 185.217 214.728V208.68H191.873V205H185.217V200.2H181.697L181.121 205.128L177.953 205.32V208.68ZM199.843 205H195.683V221H199.843V205ZM195.235 200.392C195.235 201.8 196.355 202.92 197.763 202.92C199.171 202.92 200.291 201.8 200.291 200.392C200.291 199.016 199.171 197.896 197.763 197.896C196.355 197.896 195.235 199.016 195.235 200.392ZM213.609 204.456C208.265 204.456 203.657 207.496 203.657 212.84C203.657 217.64 207.817 221.576 213.609 221.576C219.401 221.576 223.561 217.64 223.561 212.84C223.561 207.496 218.953 204.456 213.609 204.456ZM213.609 208.136C216.937 208.136 219.305 209.864 219.305 212.84C219.305 215.528 216.777 217.928 213.609 217.928C210.441 217.928 207.913 215.528 207.913 212.84C207.913 209.864 210.281 208.136 213.609 208.136ZM236.842 208.424C239.37 208.424 240.682 209.992 240.682 212.264V221H244.906V211.752C244.906 207.4 242.41 204.52 238.058 204.52C235.018 204.52 232.65 206.472 231.53 208.552V205H227.306V221H231.53V213.064C231.53 209.896 234.186 208.424 236.842 208.424ZM263.7 205.576C261.812 204.936 258.836 204.392 256.308 204.392C251.764 204.392 248.532 206.376 248.532 209.512C248.532 215.752 260.436 213.64 260.436 216.168C260.436 217.288 258.836 217.928 256.532 217.928C254.068 217.928 251.572 217.16 249.46 216.232L248.212 219.56C250.388 220.712 253.364 221.64 256.372 221.64C260.276 221.64 264.596 219.624 264.596 216.04C264.596 209.8 252.692 212.008 252.692 209.352C252.692 208.392 254.356 208.072 256.468 208.072C258.516 208.072 260.5 208.488 262.58 209.288L263.7 205.576ZM277.811 208.424C280.339 208.424 281.651 209.992 281.651 212.264V221H285.875V211.752C285.875 207.4 283.379 204.52 279.027 204.52C275.987 204.52 273.619 206.472 272.499 208.552V197.288H268.275V221H272.499V213.064C272.499 209.896 275.155 208.424 277.811 208.424ZM294.749 205H290.589V221H294.749V205ZM290.141 200.392C290.141 201.8 291.261 202.92 292.669 202.92C294.077 202.92 295.197 201.8 295.197 200.392C295.197 199.016 294.077 197.896 292.669 197.896C291.261 197.896 290.141 199.016 290.141 200.392ZM310.723 204.456C307.459 204.456 304.899 206.344 303.843 208.552V205H299.619V228.68H303.843V220.456C305.411 220.936 307.619 221.576 309.379 221.576C314.755 221.576 318.787 217.64 318.787 212.84C318.787 207.656 315.107 204.456 310.723 204.456ZM309.475 208.392C312.323 208.392 314.531 209.96 314.531 212.84C314.531 215.528 312.195 217.864 309.443 217.864C307.459 217.864 305.667 217.448 303.843 216.904V213.064C303.843 210.12 306.627 208.392 309.475 208.392Z" fill="#FFC2D7"></path> </svg> 