<?xml version="1.0" encoding="UTF-8"?> <svg xmlns="http://www.w3.org/2000/svg" width="400" height="600" viewBox="0 0 400 600" fill="none"> <rect width="400" height="600" rx="20" fill="#EEBF38"></rect> <path d="M49.504 488.4V490.776H46.102V501H43.618V490.776H40.234V488.4H49.504ZM56.8159 499.884C55.8919 500.796 54.7639 501.252 53.4319 501.252C52.0999 501.252 50.9719 500.796 50.0479 499.884C49.1359 498.96 48.6799 497.832 48.6799 496.5C48.6799 495.168 49.1359 494.046 50.0479 493.134C50.9719 492.21 52.0999 491.748 53.4319 491.748C54.7639 491.748 55.8919 492.21 56.8159 493.134C57.7399 494.046 58.2019 495.168 58.2019 496.5C58.2019 497.832 57.7399 498.96 56.8159 499.884ZM51.6859 498.282C52.1539 498.75 52.7359 498.984 53.4319 498.984C54.1279 498.984 54.7099 498.75 55.1779 498.282C55.6459 497.814 55.8799 497.22 55.8799 496.5C55.8799 495.78 55.6459 495.186 55.1779 494.718C54.7099 494.25 54.1279 494.016 53.4319 494.016C52.7359 494.016 52.1539 494.25 51.6859 494.718C51.2299 495.186 51.0019 495.78 51.0019 496.5C51.0019 497.22 51.2299 497.814 51.6859 498.282ZM66.6574 493.548C66.8734 492.972 67.2274 492.54 67.7194 492.252C68.2234 491.964 68.7814 491.82 69.3934 491.82V494.412C68.6854 494.328 68.0494 494.472 67.4854 494.844C66.9334 495.216 66.6574 495.834 66.6574 496.698V501H64.3354V492H66.6574V493.548ZM72.3795 497.454C72.6915 498.582 73.5375 499.146 74.9175 499.146C75.8055 499.146 76.4775 498.846 76.9335 498.246L78.8055 499.326C77.9175 500.61 76.6095 501.252 74.8815 501.252C73.3935 501.252 72.1995 500.802 71.2995 499.902C70.3995 499.002 69.9495 497.868 69.9495 496.5C69.9495 495.144 70.3935 494.016 71.2815 493.116C72.1695 492.204 73.3095 491.748 74.7015 491.748C76.0215 491.748 77.1075 492.204 77.9595 493.116C78.8235 494.028 79.2555 495.156 79.2555 496.5C79.2555 496.8 79.2255 497.118 79.1655 497.454H72.3795ZM72.3435 495.654H76.9335C76.8015 495.042 76.5255 494.586 76.1055 494.286C75.6975 493.986 75.2295 493.836 74.7015 493.836C74.0775 493.836 73.5615 493.998 73.1535 494.322C72.7455 494.634 72.4755 495.078 72.3435 495.654ZM82.6669 494.556C82.6669 494.796 82.8229 494.994 83.1349 495.15C83.4589 495.294 83.8489 495.426 84.3049 495.546C84.7609 495.654 85.2169 495.798 85.6729 495.978C86.1289 496.146 86.5129 496.434 86.8249 496.842C87.1489 497.25 87.3109 497.76 87.3109 498.372C87.3109 499.296 86.9629 500.01 86.2669 500.514C85.5829 501.006 84.7249 501.252 83.6929 501.252C81.8449 501.252 80.5849 500.538 79.9129 499.11L81.9289 497.976C82.1929 498.756 82.7809 499.146 83.6929 499.146C84.5209 499.146 84.9349 498.888 84.9349 498.372C84.9349 498.132 84.7729 497.94 84.4489 497.796C84.1369 497.64 83.7529 497.502 83.2969 497.382C82.8409 497.262 82.3849 497.112 81.9289 496.932C81.4729 496.752 81.0829 496.47 80.7589 496.086C80.4469 495.69 80.2909 495.198 80.2909 494.61C80.2909 493.722 80.6149 493.026 81.2629 492.522C81.9229 492.006 82.7389 491.748 83.7109 491.748C84.4429 491.748 85.1089 491.916 85.7089 492.252C86.3089 492.576 86.7829 493.044 87.1309 493.656L85.1509 494.736C84.8629 494.124 84.3829 493.818 83.7109 493.818C83.4109 493.818 83.1589 493.884 82.9549 494.016C82.7629 494.148 82.6669 494.328 82.6669 494.556ZM92.9651 501.252C91.6091 501.252 90.4751 500.796 89.5631 499.884C88.6631 498.972 88.2131 497.844 88.2131 496.5C88.2131 495.156 88.6631 494.028 89.5631 493.116C90.4751 492.204 91.6091 491.748 92.9651 491.748C93.8411 491.748 94.6391 491.958 95.3591 492.378C96.0791 492.798 96.6251 493.362 96.9971 494.07L94.9991 495.24C94.8191 494.868 94.5431 494.574 94.1711 494.358C93.8111 494.142 93.4031 494.034 92.9471 494.034C92.2511 494.034 91.6751 494.268 91.2191 494.736C90.7631 495.192 90.5351 495.78 90.5351 496.5C90.5351 497.208 90.7631 497.796 91.2191 498.264C91.6751 498.72 92.2511 498.948 92.9471 498.948C93.4151 498.948 93.8291 498.846 94.1891 498.642C94.5611 498.426 94.8371 498.132 95.0171 497.76L97.0331 498.912C96.6371 499.62 96.0791 500.19 95.3591 500.622C94.6391 501.042 93.8411 501.252 92.9651 501.252ZM104.272 492H106.594V501H104.272V499.992C103.708 500.832 102.814 501.252 101.59 501.252C100.606 501.252 99.7895 500.922 99.1415 500.262C98.5055 499.602 98.1875 498.69 98.1875 497.526V492H100.51V497.238C100.51 497.838 100.672 498.3 100.996 498.624C101.32 498.936 101.752 499.092 102.292 499.092C102.892 499.092 103.372 498.906 103.732 498.534C104.092 498.162 104.272 497.604 104.272 496.86V492ZM110.682 497.454C110.994 498.582 111.84 499.146 113.22 499.146C114.108 499.146 114.78 498.846 115.236 498.246L117.108 499.326C116.22 500.61 114.912 501.252 113.184 501.252C111.696 501.252 110.502 500.802 109.602 499.902C108.702 499.002 108.252 497.868 108.252 496.5C108.252 495.144 108.696 494.016 109.584 493.116C110.472 492.204 111.612 491.748 113.004 491.748C114.324 491.748 115.41 492.204 116.262 493.116C117.126 494.028 117.558 495.156 117.558 496.5C117.558 496.8 117.528 497.118 117.468 497.454H110.682ZM110.646 495.654H115.236C115.104 495.042 114.828 494.586 114.408 494.286C114 493.986 113.532 493.836 113.004 493.836C112.38 493.836 111.864 493.998 111.456 494.322C111.048 494.634 110.778 495.078 110.646 495.654ZM125.821 494.556C125.821 494.796 125.977 494.994 126.289 495.15C126.613 495.294 127.003 495.426 127.459 495.546C127.915 495.654 128.371 495.798 128.827 495.978C129.283 496.146 129.667 496.434 129.979 496.842C130.303 497.25 130.465 497.76 130.465 498.372C130.465 499.296 130.117 500.01 129.421 500.514C128.737 501.006 127.879 501.252 126.847 501.252C124.999 501.252 123.739 500.538 123.067 499.11L125.083 497.976C125.347 498.756 125.935 499.146 126.847 499.146C127.675 499.146 128.089 498.888 128.089 498.372C128.089 498.132 127.927 497.94 127.603 497.796C127.291 497.64 126.907 497.502 126.451 497.382C125.995 497.262 125.539 497.112 125.083 496.932C124.627 496.752 124.237 496.47 123.913 496.086C123.601 495.69 123.445 495.198 123.445 494.61C123.445 493.722 123.769 493.026 124.417 492.522C125.077 492.006 125.893 491.748 126.865 491.748C127.597 491.748 128.263 491.916 128.863 492.252C129.463 492.576 129.937 493.044 130.285 493.656L128.305 494.736C128.017 494.124 127.537 493.818 126.865 493.818C126.565 493.818 126.313 493.884 126.109 494.016C125.917 494.148 125.821 494.328 125.821 494.556ZM139.503 499.884C138.579 500.796 137.451 501.252 136.119 501.252C134.787 501.252 133.659 500.796 132.735 499.884C131.823 498.96 131.367 497.832 131.367 496.5C131.367 495.168 131.823 494.046 132.735 493.134C133.659 492.21 134.787 491.748 136.119 491.748C137.451 491.748 138.579 492.21 139.503 493.134C140.427 494.046 140.889 495.168 140.889 496.5C140.889 497.832 140.427 498.96 139.503 499.884ZM134.373 498.282C134.841 498.75 135.423 498.984 136.119 498.984C136.815 498.984 137.397 498.75 137.865 498.282C138.333 497.814 138.567 497.22 138.567 496.5C138.567 495.78 138.333 495.186 137.865 494.718C137.397 494.25 136.815 494.016 136.119 494.016C135.423 494.016 134.841 494.25 134.373 494.718C133.917 495.186 133.689 495.78 133.689 496.5C133.689 497.22 133.917 497.814 134.373 498.282ZM152.477 491.748C153.509 491.748 154.331 492.084 154.943 492.756C155.567 493.428 155.879 494.328 155.879 495.456V501H153.557V495.618C153.557 495.078 153.425 494.658 153.161 494.358C152.897 494.058 152.525 493.908 152.045 493.908C151.517 493.908 151.103 494.082 150.803 494.43C150.515 494.778 150.371 495.282 150.371 495.942V501H148.049V495.618C148.049 495.078 147.917 494.658 147.653 494.358C147.389 494.058 147.017 493.908 146.537 493.908C146.021 493.908 145.607 494.082 145.295 494.43C144.995 494.778 144.845 495.282 144.845 495.942V501H142.523V492H144.845V492.954C145.385 492.15 146.219 491.748 147.347 491.748C148.451 491.748 149.267 492.18 149.795 493.044C150.395 492.18 151.289 491.748 152.477 491.748ZM159.813 497.454C160.125 498.582 160.971 499.146 162.351 499.146C163.239 499.146 163.911 498.846 164.367 498.246L166.239 499.326C165.351 500.61 164.043 501.252 162.315 501.252C160.827 501.252 159.633 500.802 158.733 499.902C157.833 499.002 157.383 497.868 157.383 496.5C157.383 495.144 157.827 494.016 158.715 493.116C159.603 492.204 160.743 491.748 162.135 491.748C163.455 491.748 164.541 492.204 165.393 493.116C166.257 494.028 166.689 495.156 166.689 496.5C166.689 496.8 166.659 497.118 166.599 497.454H159.813ZM159.777 495.654H164.367C164.235 495.042 163.959 494.586 163.539 494.286C163.131 493.986 162.663 493.836 162.135 493.836C161.511 493.836 160.995 493.998 160.587 494.322C160.179 494.634 159.909 495.078 159.777 495.654ZM173.548 491.748C174.76 491.748 175.792 492.21 176.644 493.134C177.508 494.046 177.94 495.168 177.94 496.5C177.94 497.832 177.508 498.96 176.644 499.884C175.792 500.796 174.76 501.252 173.548 501.252C172.288 501.252 171.316 500.814 170.632 499.938V501H168.31V488.4H170.632V493.062C171.316 492.186 172.288 491.748 173.548 491.748ZM171.334 498.336C171.802 498.804 172.396 499.038 173.116 499.038C173.836 499.038 174.43 498.804 174.898 498.336C175.378 497.856 175.618 497.244 175.618 496.5C175.618 495.756 175.378 495.15 174.898 494.682C174.43 494.202 173.836 493.962 173.116 493.962C172.396 493.962 171.802 494.202 171.334 494.682C170.866 495.15 170.632 495.756 170.632 496.5C170.632 497.244 170.866 497.856 171.334 498.336ZM187.246 499.884C186.322 500.796 185.194 501.252 183.862 501.252C182.53 501.252 181.402 500.796 180.478 499.884C179.566 498.96 179.11 497.832 179.11 496.5C179.11 495.168 179.566 494.046 180.478 493.134C181.402 492.21 182.53 491.748 183.862 491.748C185.194 491.748 186.322 492.21 187.246 493.134C188.17 494.046 188.632 495.168 188.632 496.5C188.632 497.832 188.17 498.96 187.246 499.884ZM182.116 498.282C182.584 498.75 183.166 498.984 183.862 498.984C184.558 498.984 185.14 498.75 185.608 498.282C186.076 497.814 186.31 497.22 186.31 496.5C186.31 495.78 186.076 495.186 185.608 494.718C185.14 494.25 184.558 494.016 183.862 494.016C183.166 494.016 182.584 494.25 182.116 494.718C181.66 495.186 181.432 495.78 181.432 496.5C181.432 497.22 181.66 497.814 182.116 498.282ZM197.087 488.4H199.409V501H197.087V499.938C196.403 500.814 195.431 501.252 194.171 501.252C192.959 501.252 191.921 500.796 191.057 499.884C190.205 498.96 189.779 497.832 189.779 496.5C189.779 495.168 190.205 494.046 191.057 493.134C191.921 492.21 192.959 491.748 194.171 491.748C195.431 491.748 196.403 492.186 197.087 493.062V488.4ZM192.803 498.336C193.283 498.804 193.883 499.038 194.603 499.038C195.323 499.038 195.917 498.804 196.385 498.336C196.853 497.856 197.087 497.244 197.087 496.5C197.087 495.756 196.853 495.15 196.385 494.682C195.917 494.202 195.323 493.962 194.603 493.962C193.883 493.962 193.283 494.202 192.803 494.682C192.335 495.15 192.101 495.756 192.101 496.5C192.101 497.244 192.335 497.856 192.803 498.336ZM207.401 492H209.885L206.609 501C206.141 502.296 205.517 503.232 204.737 503.808C203.969 504.396 203.009 504.66 201.857 504.6V502.44C202.481 502.452 202.973 502.32 203.333 502.044C203.705 501.768 203.999 501.324 204.215 500.712L200.525 492H203.063L205.403 498.048L207.401 492ZM215.868 496.014V494.862H224.868V496.014H215.868ZM236.265 501.216C234.909 501.216 233.781 500.766 232.881 499.866C231.981 498.954 231.531 497.832 231.531 496.5C231.531 495.168 231.981 494.052 232.881 493.152C233.781 492.24 234.909 491.784 236.265 491.784C237.153 491.784 237.951 492 238.659 492.432C239.367 492.852 239.883 493.422 240.207 494.142L239.235 494.7C238.995 494.16 238.605 493.734 238.065 493.422C237.537 493.098 236.937 492.936 236.265 492.936C235.269 492.936 234.429 493.284 233.745 493.98C233.061 494.664 232.719 495.504 232.719 496.5C232.719 497.496 233.061 498.342 233.745 499.038C234.429 499.722 235.269 500.064 236.265 500.064C236.937 500.064 237.537 499.908 238.065 499.596C238.593 499.272 239.007 498.84 239.307 498.3L240.297 498.876C239.925 499.596 239.379 500.166 238.659 500.586C237.939 501.006 237.141 501.216 236.265 501.216ZM249.562 492V501H248.374V493.152H243.19V501H242.002V492H249.562ZM259.814 492H261.002V501H259.814V499.236C258.986 500.556 257.774 501.216 256.178 501.216C254.894 501.216 253.796 500.76 252.884 499.848C251.984 498.936 251.534 497.82 251.534 496.5C251.534 495.18 251.984 494.064 252.884 493.152C253.796 492.24 254.894 491.784 256.178 491.784C257.774 491.784 258.986 492.444 259.814 493.764V492ZM253.748 499.038C254.432 499.722 255.272 500.064 256.268 500.064C257.264 500.064 258.104 499.722 258.788 499.038C259.472 498.342 259.814 497.496 259.814 496.5C259.814 495.504 259.472 494.664 258.788 493.98C258.104 493.284 257.264 492.936 256.268 492.936C255.272 492.936 254.432 493.284 253.748 493.98C253.064 494.664 252.722 495.504 252.722 496.5C252.722 497.496 253.064 498.342 253.748 499.038ZM267.712 501.216C266.356 501.216 265.228 500.766 264.328 499.866C263.428 498.954 262.978 497.832 262.978 496.5C262.978 495.168 263.428 494.052 264.328 493.152C265.228 492.24 266.356 491.784 267.712 491.784C268.6 491.784 269.398 492 270.106 492.432C270.814 492.852 271.33 493.422 271.654 494.142L270.682 494.7C270.442 494.16 270.052 493.734 269.512 493.422C268.984 493.098 268.384 492.936 267.712 492.936C266.716 492.936 265.876 493.284 265.192 493.98C264.508 494.664 264.166 495.504 264.166 496.5C264.166 497.496 264.508 498.342 265.192 499.038C265.876 499.722 266.716 500.064 267.712 500.064C268.384 500.064 268.984 499.908 269.512 499.596C270.04 499.272 270.454 498.84 270.754 498.3L271.744 498.876C271.372 499.596 270.826 500.166 270.106 500.586C269.386 501.006 268.588 501.216 267.712 501.216ZM281.102 492H282.29V501H281.102V499.236C280.274 500.556 279.062 501.216 277.466 501.216C276.182 501.216 275.084 500.76 274.172 499.848C273.272 498.936 272.822 497.82 272.822 496.5C272.822 495.18 273.272 494.064 274.172 493.152C275.084 492.24 276.182 491.784 277.466 491.784C279.062 491.784 280.274 492.444 281.102 493.764V492ZM275.036 499.038C275.72 499.722 276.56 500.064 277.556 500.064C278.552 500.064 279.392 499.722 280.076 499.038C280.76 498.342 281.102 497.496 281.102 496.5C281.102 495.504 280.76 494.664 280.076 493.98C279.392 493.284 278.552 492.936 277.556 492.936C276.56 492.936 275.72 493.284 275.036 493.98C274.352 494.664 274.01 495.504 274.01 496.5C274.01 497.496 274.352 498.342 275.036 499.038ZM291.285 492V493.152H288.099V501H286.911V493.152H283.725V492H291.285ZM296.387 495.42C297.227 495.42 297.935 495.684 298.511 496.212C299.099 496.728 299.393 497.394 299.393 498.21C299.393 499.026 299.099 499.698 298.511 500.226C297.935 500.742 297.227 501 296.387 501H292.733V492H293.921V495.42H296.387ZM296.387 499.848C296.891 499.848 297.317 499.698 297.665 499.398C298.025 499.098 298.205 498.702 298.205 498.21C298.205 497.718 298.025 497.322 297.665 497.022C297.317 496.722 296.891 496.572 296.387 496.572H293.921V499.848H296.387ZM312.96 501H311.376L306.876 496.662V501H305.688V492H306.876V495.978L311.16 492H312.78L308.136 496.32L312.96 501ZM321.228 499.866C320.316 500.766 319.2 501.216 317.88 501.216C316.56 501.216 315.438 500.766 314.514 499.866C313.602 498.954 313.146 497.832 313.146 496.5C313.146 495.168 313.602 494.052 314.514 493.152C315.438 492.24 316.56 491.784 317.88 491.784C319.2 491.784 320.316 492.24 321.228 493.152C322.152 494.052 322.614 495.168 322.614 496.5C322.614 497.832 322.152 498.954 321.228 499.866ZM315.36 499.038C316.044 499.722 316.884 500.064 317.88 500.064C318.876 500.064 319.716 499.722 320.4 499.038C321.084 498.342 321.426 497.496 321.426 496.5C321.426 495.504 321.084 494.664 320.4 493.98C319.716 493.284 318.876 492.936 317.88 492.936C316.884 492.936 316.044 493.284 315.36 493.98C314.676 494.664 314.334 495.504 314.334 496.5C314.334 497.496 314.676 498.342 315.36 499.038ZM330.362 492V493.152H325.79V501H324.602V492H330.362ZM338.999 499.866C338.087 500.766 336.971 501.216 335.651 501.216C334.331 501.216 333.209 500.766 332.285 499.866C331.373 498.954 330.917 497.832 330.917 496.5C330.917 495.168 331.373 494.052 332.285 493.152C333.209 492.24 334.331 491.784 335.651 491.784C336.971 491.784 338.087 492.24 338.999 493.152C339.923 494.052 340.385 495.168 340.385 496.5C340.385 497.832 339.923 498.954 338.999 499.866ZM333.131 499.038C333.815 499.722 334.655 500.064 335.651 500.064C336.647 500.064 337.487 499.722 338.171 499.038C338.855 498.342 339.197 497.496 339.197 496.5C339.197 495.504 338.855 494.664 338.171 493.98C337.487 493.284 336.647 492.936 335.651 492.936C334.655 492.936 333.815 493.284 333.131 493.98C332.447 494.664 332.105 495.504 332.105 496.5C332.105 497.496 332.447 498.342 333.131 499.038ZM342.553 496.014V494.862H349.033V496.014H342.553ZM47.74 515V516.152H44.554V524H43.366V516.152H40.18V515H47.74ZM56.3782 522.866C55.4662 523.766 54.3502 524.216 53.0302 524.216C51.7102 524.216 50.5882 523.766 49.6642 522.866C48.7522 521.954 48.2962 520.832 48.2962 519.5C48.2962 518.168 48.7522 517.052 49.6642 516.152C50.5882 515.24 51.7102 514.784 53.0302 514.784C54.3502 514.784 55.4662 515.24 56.3782 516.152C57.3022 517.052 57.7642 518.168 57.7642 519.5C57.7642 520.832 57.3022 521.954 56.3782 522.866ZM50.5102 522.038C51.1942 522.722 52.0342 523.064 53.0302 523.064C54.0262 523.064 54.8662 522.722 55.5502 522.038C56.2342 521.342 56.5762 520.496 56.5762 519.5C56.5762 518.504 56.2342 517.664 55.5502 516.98C54.8662 516.284 54.0262 515.936 53.0302 515.936C52.0342 515.936 51.1942 516.284 50.5102 516.98C49.8262 517.664 49.4842 518.504 49.4842 519.5C49.4842 520.496 49.8262 521.342 50.5102 522.038Z" fill="#FFF5D7" fill-opacity="0.6"></path> <path d="M47.296 84.136L60.8 101H65.952V78.6H61.536V95.464L48.032 78.6H42.88V101H47.296V84.136ZM80.4918 97.768C77.4838 97.768 75.1478 96.456 74.5398 94.12H88.2998C88.4918 93.384 88.5878 92.648 88.5878 91.944C88.5878 87.624 84.9398 84.456 80.0758 84.456C74.7318 84.456 70.1878 87.656 70.1878 93C70.1878 97.8 74.1238 101.576 80.0758 101.576C83.0198 101.576 86.0278 100.584 88.1718 99.496L86.9237 96.168C84.6518 97.352 82.6678 97.768 80.4918 97.768ZM79.8198 88.008C82.3158 88.008 83.9158 89.128 84.3318 91.016H74.6358C75.2758 89.064 77.0677 88.008 79.8198 88.008ZM94.39 85H89.75L97.302 101H101.942L109.526 85H104.822L99.638 96.232L94.39 85ZM121.179 97.768C118.171 97.768 115.835 96.456 115.227 94.12H128.987C129.179 93.384 129.275 92.648 129.275 91.944C129.275 87.624 125.627 84.456 120.763 84.456C115.419 84.456 110.875 87.656 110.875 93C110.875 97.8 114.811 101.576 120.763 101.576C123.707 101.576 126.715 100.584 128.859 99.496L127.611 96.168C125.339 97.352 123.355 97.768 121.179 97.768ZM120.507 88.008C123.003 88.008 124.603 89.128 125.019 91.016H115.323C115.963 89.064 117.755 88.008 120.507 88.008ZM142.982 84.456C140.198 84.456 137.99 86.824 137.062 88.552V85H132.838V101H137.062V93.064C137.062 90.12 139.91 88.392 142.566 88.392C143.174 88.392 144.006 88.584 144.774 88.936L145.67 85.096C144.87 84.712 143.878 84.456 142.982 84.456ZM166.436 88.424C168.964 88.424 170.276 89.992 170.276 92.264V101H174.5V91.752C174.5 87.4 172.004 84.52 167.652 84.52C164.612 84.52 162.244 86.472 161.124 88.552V77.288H156.9V101H161.124V93.064C161.124 89.896 163.78 88.424 166.436 88.424ZM184.75 91.88C181.454 91.88 178.19 93.352 178.19 96.776C178.19 99.656 180.43 101.64 183.438 101.64C186.158 101.64 188.59 100.168 190.126 98.344C190.19 100.136 191.086 101.64 193.23 101.64C194.542 101.64 196.462 101 198.222 100.04L197.358 96.776C196.43 97.256 195.598 97.608 195.118 97.608C194.67 97.608 194.35 97.32 194.35 96.84V91.08C194.35 86.696 191.79 84.36 187.406 84.36C184.878 84.36 181.518 85.352 179.534 85.992L180.59 89.832C182.926 88.968 185.358 88.232 187.022 88.232C189.038 88.232 190.126 89.352 190.126 91.016V92.872C188.75 92.392 186.478 91.88 184.75 91.88ZM184.814 98.024C183.47 98.024 182.51 97.48 182.51 96.424C182.51 95.272 183.566 94.6 184.974 94.6C186.51 94.6 188.366 94.76 190.126 95.08V95.688C188.622 97.16 186.414 98.024 184.814 98.024ZM202.859 85H198.219L205.771 101H210.411L217.995 85H213.291L208.107 96.232L202.859 85ZM229.648 97.768C226.64 97.768 224.304 96.456 223.696 94.12H237.456C237.648 93.384 237.744 92.648 237.744 91.944C237.744 87.624 234.096 84.456 229.232 84.456C223.888 84.456 219.344 87.656 219.344 93C219.344 97.8 223.28 101.576 229.232 101.576C232.176 101.576 235.184 100.584 237.328 99.496L236.08 96.168C233.808 97.352 231.824 97.768 229.648 97.768ZM228.976 88.008C231.472 88.008 233.072 89.128 233.488 91.016H223.792C224.432 89.064 226.224 88.008 228.976 88.008ZM255.265 78.6H250.849V101H255.265V78.6ZM278.867 97.768C275.859 97.768 273.523 96.456 272.915 94.12H286.675C286.867 93.384 286.963 92.648 286.963 91.944C286.963 87.624 283.315 84.456 278.451 84.456C273.107 84.456 268.563 87.656 268.563 93C268.563 97.8 272.499 101.576 278.451 101.576C281.395 101.576 284.403 100.584 286.547 99.496L285.299 96.168C283.027 97.352 281.043 97.768 278.867 97.768ZM278.195 88.008C280.691 88.008 282.291 89.128 282.707 91.016H273.011C273.651 89.064 275.443 88.008 278.195 88.008ZM292.765 85H288.125L295.677 101H300.317L307.901 85H303.197L298.013 96.232L292.765 85ZM319.554 97.768C316.546 97.768 314.21 96.456 313.602 94.12H327.362C327.554 93.384 327.65 92.648 327.65 91.944C327.65 87.624 324.002 84.456 319.138 84.456C313.794 84.456 309.25 87.656 309.25 93C309.25 97.8 313.186 101.576 319.138 101.576C322.082 101.576 325.09 100.584 327.234 99.496L325.986 96.168C323.714 97.352 321.73 97.768 319.554 97.768ZM318.882 88.008C321.378 88.008 322.978 89.128 323.394 91.016H313.698C314.338 89.064 316.13 88.008 318.882 88.008ZM341.357 84.456C338.573 84.456 336.365 86.824 335.437 88.552V85H331.213V101H335.437V93.064C335.437 90.12 338.285 88.392 340.941 88.392C341.549 88.392 342.381 88.584 343.149 88.936L344.045 85.096C343.245 84.712 342.253 84.456 341.357 84.456ZM46.624 125H42.464V141H46.624V125ZM42.016 120.392C42.016 121.8 43.136 122.92 44.544 122.92C45.952 122.92 47.072 121.8 47.072 120.392C47.072 119.016 45.952 117.896 44.544 117.896C43.136 117.896 42.016 119.016 42.016 120.392ZM61.7338 124.52C58.9498 124.52 56.7738 126.504 55.7178 128.392V125H51.4938V141H55.7178V133.032C55.7178 129.96 58.0858 128.424 60.2938 128.424C62.6298 128.424 63.8778 129.992 63.8778 132.104V141H68.1018V133.032C68.1018 129.992 70.4698 128.424 72.6778 128.424C75.0138 128.424 76.2618 129.992 76.2618 132.104V141H80.4858V131.592C80.4858 127.368 78.2778 124.52 74.1178 124.52C71.4298 124.52 68.8698 126.504 67.5898 128.424C66.6938 126.024 64.7418 124.52 61.7338 124.52ZM90.7188 131.88C87.4227 131.88 84.1588 133.352 84.1588 136.776C84.1588 139.656 86.3988 141.64 89.4068 141.64C92.1267 141.64 94.5588 140.168 96.0948 138.344C96.1588 140.136 97.0548 141.64 99.1988 141.64C100.511 141.64 102.431 141 104.191 140.04L103.327 136.776C102.399 137.256 101.567 137.608 101.087 137.608C100.639 137.608 100.319 137.32 100.319 136.84V131.08C100.319 126.696 97.7588 124.36 93.3748 124.36C90.8468 124.36 87.4868 125.352 85.5028 125.992L86.5588 129.832C88.8948 128.968 91.3268 128.232 92.9908 128.232C95.0068 128.232 96.0948 129.352 96.0948 131.016V132.872C94.7188 132.392 92.4468 131.88 90.7188 131.88ZM90.7828 138.024C89.4388 138.024 88.4788 137.48 88.4788 136.424C88.4788 135.272 89.5348 134.6 90.9427 134.6C92.4788 134.6 94.3348 134.76 96.0948 135.08V135.688C94.5908 137.16 92.3828 138.024 90.7828 138.024ZM112.284 138.888C111.228 138.888 110.684 138.504 110.684 137.96C110.684 137.512 111.1 137.192 111.484 137.096C112.22 137.224 113.02 137.288 113.82 137.288C118.652 137.288 122.172 134.536 122.172 130.888C122.172 129.8 121.884 128.84 121.436 128.04C122.204 127.656 123.1 127.432 124.22 127.304L123.452 123.368C121.404 123.72 119.804 124.488 118.588 125.48C117.212 124.808 115.548 124.456 113.82 124.456C109.436 124.456 105.5 126.664 105.5 130.888C105.5 132.616 106.876 134.376 108.348 135.336C107.548 135.848 106.62 136.68 106.62 137.736C106.62 138.76 107.292 139.88 108.156 140.296C106.556 140.712 104.86 142.28 104.86 143.976C104.86 147.336 108.636 149.096 114.46 149.096C119.932 149.096 123.964 147.304 123.964 143.656C123.964 140.328 119.932 138.888 114.46 138.888H112.284ZM113.788 127.944C116.06 127.944 117.788 128.936 117.788 130.76C117.788 132.264 116.22 133.512 113.788 133.512C111.484 133.512 109.756 132.36 109.756 130.76C109.756 128.936 111.484 127.944 113.788 127.944ZM114.396 142.472C117.692 142.472 119.868 142.92 119.868 144.008C119.868 145.192 117.692 145.64 114.396 145.64C110.876 145.64 108.924 145.128 108.924 143.976C108.924 143.336 109.532 142.792 110.236 142.504C110.78 142.472 113.756 142.472 114.396 142.472ZM130.999 125H126.839V141H130.999V125ZM126.391 120.392C126.391 121.8 127.511 122.92 128.919 122.92C130.327 122.92 131.447 121.8 131.447 120.392C131.447 119.016 130.327 117.896 128.919 117.896C127.511 117.896 126.391 119.016 126.391 120.392ZM145.405 128.424C147.933 128.424 149.245 129.992 149.245 132.264V141H153.469V131.752C153.469 127.4 150.973 124.52 146.621 124.52C143.581 124.52 141.213 126.472 140.093 128.552V125H135.869V141H140.093V133.064C140.093 129.896 142.749 128.424 145.405 128.424ZM167.367 137.768C164.359 137.768 162.023 136.456 161.415 134.12H175.175C175.367 133.384 175.463 132.648 175.463 131.944C175.463 127.624 171.815 124.456 166.951 124.456C161.607 124.456 157.063 127.656 157.063 133C157.063 137.8 160.999 141.576 166.951 141.576C169.895 141.576 172.903 140.584 175.047 139.496L173.799 136.168C171.527 137.352 169.543 137.768 167.367 137.768ZM166.695 128.008C169.191 128.008 170.791 129.128 171.207 131.016H161.511C162.151 129.064 163.943 128.008 166.695 128.008ZM186.033 141.544C189.297 141.544 191.857 139.656 192.913 137.448V141H197.137V117H192.913V125.576C191.313 125.064 189.105 124.424 187.377 124.424C182.001 124.424 177.969 128.36 177.969 133.16C177.969 138.344 181.649 141.544 186.033 141.544ZM187.281 137.608C184.433 137.608 182.225 136.008 182.225 133.128C182.225 130.312 184.433 128.136 187.313 128.136C189.265 128.136 191.057 128.552 192.913 129.096V132.552C192.913 135.624 190.097 137.608 187.281 137.608ZM220.53 128.424C223.058 128.424 224.37 129.992 224.37 132.264V141H228.594V131.752C228.594 127.4 226.098 124.52 221.746 124.52C218.706 124.52 216.338 126.472 215.218 128.552V117.288H210.994V141H215.218V133.064C215.218 129.896 217.874 128.424 220.53 128.424ZM242.14 124.456C236.796 124.456 232.188 127.496 232.188 132.84C232.188 137.64 236.348 141.576 242.14 141.576C247.932 141.576 252.092 137.64 252.092 132.84C252.092 127.496 247.484 124.456 242.14 124.456ZM242.14 128.136C245.468 128.136 247.836 129.864 247.836 132.84C247.836 135.528 245.308 137.928 242.14 137.928C238.972 137.928 236.444 135.528 236.444 132.84C236.444 129.864 238.812 128.136 242.14 128.136ZM274.078 141H278.366L285.374 125H280.894L276.222 135.976L271.582 125H267.166L262.526 136.008L257.886 125H253.309L260.318 141H264.638L269.374 130.056L274.078 141ZM301.609 118.6H297.193V141H301.609V118.6ZM51.936 168.424C54.464 168.424 55.776 169.992 55.776 172.264V181H60V171.752C60 167.4 57.504 164.52 53.152 164.52C50.112 164.52 47.744 166.472 46.624 168.552V157.288H42.4V181H46.624V173.064C46.624 169.896 49.28 168.424 51.936 168.424ZM73.898 177.768C70.89 177.768 68.554 176.456 67.946 174.12H81.706C81.898 173.384 81.994 172.648 81.994 171.944C81.994 167.624 78.346 164.456 73.482 164.456C68.138 164.456 63.594 167.656 63.594 173C63.594 177.8 67.53 181.576 73.482 181.576C76.426 181.576 79.434 180.584 81.578 179.496L80.33 176.168C78.058 177.352 76.074 177.768 73.898 177.768ZM73.226 168.008C75.722 168.008 77.322 169.128 77.738 171.016H68.042C68.682 169.064 70.474 168.008 73.226 168.008ZM95.7003 164.456C92.9163 164.456 90.7083 166.824 89.7803 168.552V165H85.5563V181H89.7803V173.064C89.7803 170.12 92.6283 168.392 95.2843 168.392C95.8923 168.392 96.7243 168.584 97.4923 168.936L98.3883 165.096C97.5883 164.712 96.5963 164.456 95.7003 164.456ZM109.452 164.456C104.108 164.456 99.5003 167.496 99.5003 172.84C99.5003 177.64 103.66 181.576 109.452 181.576C115.244 181.576 119.404 177.64 119.404 172.84C119.404 167.496 114.796 164.456 109.452 164.456ZM109.452 168.136C112.78 168.136 115.148 169.864 115.148 172.84C115.148 175.528 112.62 177.928 109.452 177.928C106.284 177.928 103.756 175.528 103.756 172.84C103.756 169.864 106.124 168.136 109.452 168.136ZM127.374 165H123.214V181H127.374V165ZM122.766 160.392C122.766 161.8 123.886 162.92 125.294 162.92C126.702 162.92 127.822 161.8 127.822 160.392C127.822 159.016 126.702 157.896 125.294 157.896C123.886 157.896 122.766 159.016 122.766 160.392ZM141.076 164.456C135.732 164.456 131.188 167.656 131.188 173C131.188 177.8 134.836 181.576 140.788 181.576C143.796 181.576 146.548 180.648 148.724 179.496L147.476 176.168C145.364 177.096 143.668 177.768 141.332 177.768C138.004 177.768 135.444 175.912 135.444 172.84C135.444 169.928 137.748 168.168 140.82 168.168C142.996 168.168 144.852 168.616 147.06 169.512L148.084 165.736C146.164 165.064 143.732 164.456 141.076 164.456ZM157.531 171.88C154.235 171.88 150.971 173.352 150.971 176.776C150.971 179.656 153.211 181.64 156.219 181.64C158.939 181.64 161.371 180.168 162.907 178.344C162.971 180.136 163.867 181.64 166.011 181.64C167.323 181.64 169.243 181 171.003 180.04L170.139 176.776C169.211 177.256 168.379 177.608 167.899 177.608C167.451 177.608 167.131 177.32 167.131 176.84V171.08C167.131 166.696 164.571 164.36 160.187 164.36C157.659 164.36 154.299 165.352 152.315 165.992L153.371 169.832C155.707 168.968 158.139 168.232 159.803 168.232C161.819 168.232 162.907 169.352 162.907 171.016V172.872C161.531 172.392 159.259 171.88 157.531 171.88ZM157.595 178.024C156.251 178.024 155.291 177.48 155.291 176.424C155.291 175.272 156.347 174.6 157.755 174.6C159.291 174.6 161.147 174.76 162.907 175.08V175.688C161.403 177.16 159.195 178.024 157.595 178.024ZM177.592 181V157H173.4V181H177.592ZM186.592 181V157H182.4V181H186.592ZM208.84 165H204.2C202.76 168.424 201 172.552 199.336 176.424L193.608 165H189L197.256 181.224C197.256 181.256 197.192 181.32 197.192 181.384C196.392 183.176 195.496 184.936 193.8 184.936C193.576 184.936 192.936 184.872 192.36 184.776L192.136 188.84C192.68 188.936 193.384 189 193.608 189C198.12 189 199.592 185.736 201.128 182.312L208.84 165ZM230.45 164.456C227.666 164.456 225.458 166.824 224.53 168.552V165H220.306V181H224.53V173.064C224.53 170.12 227.378 168.392 230.034 168.392C230.642 168.392 231.474 168.584 232.242 168.936L233.138 165.096C232.338 164.712 231.346 164.456 230.45 164.456ZM244.554 177.768C241.546 177.768 239.21 176.456 238.602 174.12H252.362C252.554 173.384 252.65 172.648 252.65 171.944C252.65 167.624 249.002 164.456 244.138 164.456C238.794 164.456 234.25 167.656 234.25 173C234.25 177.8 238.186 181.576 244.138 181.576C247.082 181.576 250.09 180.584 252.234 179.496L250.986 176.168C248.714 177.352 246.73 177.768 244.554 177.768ZM243.882 168.008C246.378 168.008 247.978 169.128 248.394 171.016H238.698C239.338 169.064 241.13 168.008 243.882 168.008ZM270.357 165.576C268.469 164.936 265.493 164.392 262.965 164.392C258.421 164.392 255.189 166.376 255.189 169.512C255.189 175.752 267.093 173.64 267.093 176.168C267.093 177.288 265.493 177.928 263.189 177.928C260.725 177.928 258.229 177.16 256.117 176.232L254.868 179.56C257.045 180.712 260.021 181.64 263.029 181.64C266.933 181.64 271.253 179.624 271.253 176.04C271.253 169.8 259.349 172.008 259.349 169.352C259.349 168.392 261.013 168.072 263.125 168.072C265.173 168.072 267.157 168.488 269.237 169.288L270.357 165.576ZM283.763 164.456C278.419 164.456 273.875 167.656 273.875 173C273.875 177.8 277.523 181.576 283.475 181.576C286.483 181.576 289.235 180.648 291.411 179.496L290.163 176.168C288.051 177.096 286.355 177.768 284.019 177.768C280.691 177.768 278.131 175.912 278.131 172.84C278.131 169.928 280.435 168.168 283.507 168.168C285.683 168.168 287.539 168.616 289.747 169.512L290.771 165.736C288.851 165.064 286.419 164.456 283.763 164.456ZM301.179 181.512C304.091 181.512 306.555 179.752 307.707 177.48V181H311.931V165H307.707V172.744C307.707 176.136 305.435 177.608 302.747 177.608C300.219 177.608 298.683 176.328 298.683 173.736V165H294.459V174.28C294.459 178.632 296.891 181.512 301.179 181.512ZM325.992 177.768C322.984 177.768 320.648 176.456 320.04 174.12H333.8C333.992 173.384 334.088 172.648 334.088 171.944C334.088 167.624 330.44 164.456 325.576 164.456C320.232 164.456 315.688 167.656 315.688 173C315.688 177.8 319.624 181.576 325.576 181.576C328.52 181.576 331.528 180.584 333.672 179.496L332.424 176.168C330.152 177.352 328.168 177.768 325.992 177.768ZM325.32 168.008C327.816 168.008 329.416 169.128 329.832 171.016H320.136C320.776 169.064 322.568 168.008 325.32 168.008ZM56.544 205.576C54.656 204.936 51.68 204.392 49.152 204.392C44.608 204.392 41.376 206.376 41.376 209.512C41.376 215.752 53.28 213.64 53.28 216.168C53.28 217.288 51.68 217.928 49.376 217.928C46.912 217.928 44.416 217.16 42.304 216.232L41.056 219.56C43.232 220.712 46.208 221.64 49.216 221.64C53.12 221.64 57.44 219.624 57.44 216.04C57.44 209.8 45.536 212.008 45.536 209.352C45.536 208.392 47.2 208.072 49.312 208.072C51.36 208.072 53.344 208.488 55.424 209.288L56.544 205.576ZM70.0148 204.456C64.6708 204.456 60.0628 207.496 60.0628 212.84C60.0628 217.64 64.2228 221.576 70.0148 221.576C75.8068 221.576 79.9668 217.64 79.9668 212.84C79.9668 207.496 75.3588 204.456 70.0148 204.456ZM70.0148 208.136C73.3428 208.136 75.7108 209.864 75.7108 212.84C75.7108 215.528 73.1828 217.928 70.0148 217.928C66.8468 217.928 64.3188 215.528 64.3188 212.84C64.3188 209.864 66.6868 208.136 70.0148 208.136ZM93.9525 204.52C91.1685 204.52 88.9925 206.504 87.9365 208.392V205H83.7125V221H87.9365V213.032C87.9365 209.96 90.3045 208.424 92.5125 208.424C94.8485 208.424 96.0965 209.992 96.0965 212.104V221H100.321V213.032C100.321 209.992 102.689 208.424 104.897 208.424C107.233 208.424 108.481 209.992 108.481 212.104V221H112.705V211.592C112.705 207.368 110.497 204.52 106.337 204.52C103.649 204.52 101.089 206.504 99.8085 208.424C98.9125 206.024 96.9605 204.52 93.9525 204.52ZM126.586 217.768C123.578 217.768 121.242 216.456 120.634 214.12H134.394C134.586 213.384 134.682 212.648 134.682 211.944C134.682 207.624 131.034 204.456 126.17 204.456C120.826 204.456 116.282 207.656 116.282 213C116.282 217.8 120.218 221.576 126.17 221.576C129.114 221.576 132.122 220.584 134.266 219.496L133.017 216.168C130.746 217.352 128.762 217.768 126.586 217.768ZM125.914 208.008C128.41 208.008 130.01 209.128 130.426 211.016H120.73C121.37 209.064 123.161 208.008 125.914 208.008ZM149.22 204.456C146.052 204.456 143.524 206.344 142.468 208.552V197H138.244V219.4C140.324 220.328 144.676 221.576 147.876 221.576C153.124 221.576 157.156 217.64 157.156 212.84C157.156 207.656 153.476 204.456 149.22 204.456ZM147.972 208.392C150.756 208.392 152.9 209.96 152.9 212.84C152.9 215.528 150.564 217.864 147.94 217.864C145.988 217.864 144.324 217.544 142.468 216.936V213.064C142.468 210.12 145.284 208.392 147.972 208.392ZM169.796 204.456C164.452 204.456 159.844 207.496 159.844 212.84C159.844 217.64 164.004 221.576 169.796 221.576C175.588 221.576 179.748 217.64 179.748 212.84C179.748 207.496 175.14 204.456 169.796 204.456ZM169.796 208.136C173.124 208.136 175.492 209.864 175.492 212.84C175.492 215.528 172.964 217.928 169.796 217.928C166.628 217.928 164.1 215.528 164.1 212.84C164.1 209.864 166.468 208.136 169.796 208.136ZM190.502 221.544C193.766 221.544 196.326 219.656 197.382 217.448V221H201.606V197H197.382V205.576C195.782 205.064 193.574 204.424 191.846 204.424C186.47 204.424 182.438 208.36 182.438 213.16C182.438 218.344 186.118 221.544 190.502 221.544ZM191.75 217.608C188.902 217.608 186.694 216.008 186.694 213.128C186.694 210.312 188.902 208.136 191.782 208.136C193.734 208.136 195.526 208.552 197.382 209.096V212.552C197.382 215.624 194.566 217.608 191.75 217.608ZM223.84 205H219.2C217.76 208.424 216 212.552 214.336 216.424L208.608 205H204L212.256 221.224C212.256 221.256 212.192 221.32 212.192 221.384C211.392 223.176 210.496 224.936 208.8 224.936C208.576 224.936 207.936 224.872 207.36 224.776L207.136 228.84C207.68 228.936 208.384 229 208.608 229C213.12 229 214.592 225.736 216.128 222.312L223.84 205Z" fill="#FFFAED"></path> </svg> 