<?xml version="1.0" encoding="UTF-8"?> <svg xmlns="http://www.w3.org/2000/svg" width="400" height="600" viewBox="0 0 400 600" fill="none"><rect width="400" height="600" rx="20" fill="#E7497E"></rect><path d="M49.27 501L48.514 498.732H43.492L42.736 501H40.054L44.464 488.4H47.542L51.97 501H49.27ZM44.284 496.41H47.74L46.012 491.262L44.284 496.41ZM59.7333 492H62.0013V500.568C62.0013 501.96 61.5393 503.022 60.6153 503.754C59.7033 504.486 58.5993 504.852 57.3033 504.852C56.3313 504.852 55.4733 504.666 54.7293 504.294C53.9973 503.922 53.4333 503.376 53.0373 502.656L55.0173 501.522C55.4733 502.362 56.2593 502.782 57.3753 502.782C58.1073 502.782 58.6833 502.59 59.1033 502.206C59.5233 501.822 59.7333 501.276 59.7333 500.568V499.596C59.0493 500.508 58.0893 500.964 56.8533 500.964C55.5813 500.964 54.5133 500.52 53.6493 499.632C52.7973 498.732 52.3713 497.64 52.3713 496.356C52.3713 495.084 52.8033 493.998 53.6673 493.098C54.5313 492.198 55.5933 491.748 56.8533 491.748C58.0893 491.748 59.0493 492.204 59.7333 493.116V492ZM55.3953 498.138C55.8753 498.594 56.4813 498.822 57.2133 498.822C57.9453 498.822 58.5453 498.594 59.0133 498.138C59.4933 497.67 59.7333 497.076 59.7333 496.356C59.7333 495.648 59.4933 495.066 59.0133 494.61C58.5453 494.142 57.9453 493.908 57.2133 493.908C56.4813 493.908 55.8753 494.142 55.3953 494.61C54.9273 495.066 54.6933 495.648 54.6933 496.356C54.6933 497.076 54.9273 497.67 55.3953 498.138ZM66.0689 497.454C66.3809 498.582 67.2269 499.146 68.6069 499.146C69.4949 499.146 70.1669 498.846 70.6229 498.246L72.4949 499.326C71.6069 500.61 70.2989 501.252 68.5709 501.252C67.0829 501.252 65.8889 500.802 64.9889 499.902C64.0889 499.002 63.6389 497.868 63.6389 496.5C63.6389 495.144 64.0829 494.016 64.9709 493.116C65.8589 492.204 66.9989 491.748 68.3909 491.748C69.7109 491.748 70.7969 492.204 71.6489 493.116C72.5129 494.028 72.9449 495.156 72.9449 496.5C72.9449 496.8 72.9149 497.118 72.8549 497.454H66.0689ZM66.0329 495.654H70.6229C70.4909 495.042 70.2149 494.586 69.7949 494.286C69.3869 493.986 68.9189 493.836 68.3909 493.836C67.7669 493.836 67.2509 493.998 66.8429 494.322C66.4349 494.634 66.1649 495.078 66.0329 495.654ZM85.9599 492H88.2279V500.568C88.2279 501.96 87.7659 503.022 86.8419 503.754C85.9299 504.486 84.8259 504.852 83.5299 504.852C82.5579 504.852 81.6999 504.666 80.9559 504.294C80.2239 503.922 79.6599 503.376 79.2639 502.656L81.2439 501.522C81.6999 502.362 82.4859 502.782 83.6019 502.782C84.3339 502.782 84.9099 502.59 85.3299 502.206C85.7499 501.822 85.9599 501.276 85.9599 500.568V499.596C85.2759 500.508 84.3159 500.964 83.0799 500.964C81.8079 500.964 80.7399 500.52 79.8759 499.632C79.0239 498.732 78.5979 497.64 78.5979 496.356C78.5979 495.084 79.0299 493.998 79.8939 493.098C80.7579 492.198 81.8199 491.748 83.0799 491.748C84.3159 491.748 85.2759 492.204 85.9599 493.116V492ZM81.6219 498.138C82.1019 498.594 82.7079 498.822 83.4399 498.822C84.1719 498.822 84.7719 498.594 85.2399 498.138C85.7199 497.67 85.9599 497.076 85.9599 496.356C85.9599 495.648 85.7199 495.066 85.2399 494.61C84.7719 494.142 84.1719 493.908 83.4399 493.908C82.7079 493.908 82.1019 494.142 81.6219 494.61C81.1539 495.066 80.9199 495.648 80.9199 496.356C80.9199 497.076 81.1539 497.67 81.6219 498.138ZM97.1735 492H99.4955V501H97.1735V499.938C96.4775 500.814 95.4995 501.252 94.2395 501.252C93.0395 501.252 92.0075 500.796 91.1435 499.884C90.2915 498.96 89.8655 497.832 89.8655 496.5C89.8655 495.168 90.2915 494.046 91.1435 493.134C92.0075 492.21 93.0395 491.748 94.2395 491.748C95.4995 491.748 96.4775 492.186 97.1735 493.062V492ZM92.8895 498.336C93.3575 498.804 93.9515 499.038 94.6715 499.038C95.3915 499.038 95.9855 498.804 96.4535 498.336C96.9335 497.856 97.1735 497.244 97.1735 496.5C97.1735 495.756 96.9335 495.15 96.4535 494.682C95.9855 494.202 95.3915 493.962 94.6715 493.962C93.9515 493.962 93.3575 494.202 92.8895 494.682C92.4215 495.15 92.1875 495.756 92.1875 496.5C92.1875 497.244 92.4215 497.856 92.8895 498.336ZM106.839 491.748C108.051 491.748 109.083 492.21 109.935 493.134C110.799 494.046 111.231 495.168 111.231 496.5C111.231 497.832 110.799 498.96 109.935 499.884C109.083 500.796 108.051 501.252 106.839 501.252C105.579 501.252 104.607 500.814 103.923 499.938V504.6H101.601V492H103.923V493.062C104.607 492.186 105.579 491.748 106.839 491.748ZM104.625 498.336C105.093 498.804 105.687 499.038 106.407 499.038C107.127 499.038 107.721 498.804 108.189 498.336C108.669 497.856 108.909 497.244 108.909 496.5C108.909 495.756 108.669 495.15 108.189 494.682C107.721 494.202 107.127 493.962 106.407 493.962C105.687 493.962 105.093 494.202 104.625 494.682C104.157 495.15 103.923 495.756 103.923 496.5C103.923 497.244 104.157 497.856 104.625 498.336ZM117.747 496.014V494.862H126.747V496.014H117.747ZM138.773 491.784C140.057 491.784 141.149 492.24 142.049 493.152C142.961 494.064 143.417 495.18 143.417 496.5C143.417 497.82 142.961 498.936 142.049 499.848C141.149 500.76 140.057 501.216 138.773 501.216C137.177 501.216 135.965 500.556 135.137 499.236V504.6H133.949V492H135.137V493.764C135.965 492.444 137.177 491.784 138.773 491.784ZM136.163 499.038C136.847 499.722 137.687 500.064 138.683 500.064C139.679 500.064 140.519 499.722 141.203 499.038C141.887 498.342 142.229 497.496 142.229 496.5C142.229 495.504 141.887 494.664 141.203 493.98C140.519 493.284 139.679 492.936 138.683 492.936C137.687 492.936 136.847 493.284 136.163 493.98C135.479 494.664 135.137 495.504 135.137 496.5C135.137 497.496 135.479 498.342 136.163 499.038ZM153.133 492H154.321V501H153.133V499.236C152.305 500.556 151.093 501.216 149.497 501.216C148.213 501.216 147.115 500.76 146.203 499.848C145.303 498.936 144.853 497.82 144.853 496.5C144.853 495.18 145.303 494.064 146.203 493.152C147.115 492.24 148.213 491.784 149.497 491.784C151.093 491.784 152.305 492.444 153.133 493.764V492ZM147.067 499.038C147.751 499.722 148.591 500.064 149.587 500.064C150.583 500.064 151.423 499.722 152.107 499.038C152.791 498.342 153.133 497.496 153.133 496.5C153.133 495.504 152.791 494.664 152.107 493.98C151.423 493.284 150.583 492.936 149.587 492.936C148.591 492.936 147.751 493.284 147.067 493.98C146.383 494.664 146.041 495.504 146.041 496.5C146.041 497.496 146.383 498.342 147.067 499.038ZM161.48 496.374C162.524 496.77 163.046 497.49 163.046 498.534C163.046 499.278 162.752 499.914 162.164 500.442C161.588 500.958 160.76 501.216 159.68 501.216C157.868 501.216 156.68 500.496 156.116 499.056L157.124 498.462C157.496 499.53 158.348 500.064 159.68 500.064C160.376 500.064 160.91 499.914 161.282 499.614C161.666 499.314 161.858 498.93 161.858 498.462C161.858 498.042 161.702 497.7 161.39 497.436C161.078 497.172 160.658 497.04 160.13 497.04H158.816V495.888H159.77C160.286 495.888 160.688 495.762 160.976 495.51C161.276 495.246 161.426 494.886 161.426 494.43C161.426 493.998 161.252 493.644 160.904 493.368C160.556 493.08 160.088 492.936 159.5 492.936C158.372 492.936 157.622 493.386 157.25 494.286L156.26 493.71C156.86 492.426 157.94 491.784 159.5 491.784C160.448 491.784 161.204 492.036 161.768 492.54C162.332 493.032 162.614 493.638 162.614 494.358C162.614 495.282 162.236 495.954 161.48 496.374ZM171.224 492H172.412V501H171.224V497.076H166.04V501H164.852V492H166.04V495.924H171.224V492ZM181.476 492H182.484V501H181.296V494.07L175.932 501H174.924V492H176.112V498.93L181.476 492ZM192.376 499.848H193.816V503.412H192.628V501H184.996V492H186.184V499.848H191.188V492H192.376V499.848ZM203.002 492H204.19V501H203.002V499.236C202.174 500.556 200.962 501.216 199.366 501.216C198.082 501.216 196.984 500.76 196.072 499.848C195.172 498.936 194.722 497.82 194.722 496.5C194.722 495.18 195.172 494.064 196.072 493.152C196.984 492.24 198.082 491.784 199.366 491.784C200.962 491.784 202.174 492.444 203.002 493.764V492ZM196.936 499.038C197.62 499.722 198.46 500.064 199.456 500.064C200.452 500.064 201.292 499.722 201.976 499.038C202.66 498.342 203.002 497.496 203.002 496.5C203.002 495.504 202.66 494.664 201.976 493.98C201.292 493.284 200.452 492.936 199.456 492.936C198.46 492.936 197.62 493.284 196.936 493.98C196.252 494.664 195.91 495.504 195.91 496.5C195.91 497.496 196.252 498.342 196.936 499.038ZM216.929 496.374C217.913 496.734 218.405 497.436 218.405 498.48C218.405 499.212 218.159 499.818 217.667 500.298C217.187 500.766 216.491 501 215.579 501H211.205V492H215.219C216.095 492 216.773 492.228 217.253 492.684C217.733 493.128 217.973 493.704 217.973 494.412C217.973 495.312 217.625 495.966 216.929 496.374ZM215.219 493.152H212.393V495.888H215.219C216.263 495.888 216.785 495.42 216.785 494.484C216.785 494.064 216.647 493.74 216.371 493.512C216.107 493.272 215.723 493.152 215.219 493.152ZM215.579 499.848C216.107 499.848 216.509 499.722 216.785 499.47C217.073 499.218 217.217 498.864 217.217 498.408C217.217 497.988 217.073 497.658 216.785 497.418C216.509 497.166 216.107 497.04 215.579 497.04H212.393V499.848H215.579ZM230.429 496.374C231.413 496.734 231.905 497.436 231.905 498.48C231.905 499.212 231.659 499.818 231.167 500.298C230.687 500.766 229.991 501 229.079 501H224.705V492H228.719C229.595 492 230.273 492.228 230.753 492.684C231.233 493.128 231.473 493.704 231.473 494.412C231.473 495.312 231.125 495.966 230.429 496.374ZM228.719 493.152H225.893V495.888H228.719C229.763 495.888 230.285 495.42 230.285 494.484C230.285 494.064 230.147 493.74 229.871 493.512C229.607 493.272 229.223 493.152 228.719 493.152ZM229.079 499.848C229.607 499.848 230.009 499.722 230.285 499.47C230.573 499.218 230.717 498.864 230.717 498.408C230.717 497.988 230.573 497.658 230.285 497.418C230.009 497.166 229.607 497.04 229.079 497.04H225.893V499.848H229.079ZM241.247 499.866C240.335 500.766 239.219 501.216 237.899 501.216C236.579 501.216 235.457 500.766 234.533 499.866C233.621 498.954 233.165 497.832 233.165 496.5C233.165 495.168 233.621 494.052 234.533 493.152C235.457 492.24 236.579 491.784 237.899 491.784C239.219 491.784 240.335 492.24 241.247 493.152C242.171 494.052 242.633 495.168 242.633 496.5C242.633 497.832 242.171 498.954 241.247 499.866ZM235.379 499.038C236.063 499.722 236.903 500.064 237.899 500.064C238.895 500.064 239.735 499.722 240.419 499.038C241.103 498.342 241.445 497.496 241.445 496.5C241.445 495.504 241.103 494.664 240.419 493.98C239.735 493.284 238.895 492.936 237.899 492.936C236.903 492.936 236.063 493.284 235.379 493.98C234.695 494.664 234.353 495.504 234.353 496.5C234.353 497.496 234.695 498.342 235.379 499.038ZM248.914 496.374C249.958 496.77 250.48 497.49 250.48 498.534C250.48 499.278 250.186 499.914 249.598 500.442C249.022 500.958 248.194 501.216 247.114 501.216C245.302 501.216 244.114 500.496 243.55 499.056L244.558 498.462C244.93 499.53 245.782 500.064 247.114 500.064C247.81 500.064 248.344 499.914 248.716 499.614C249.1 499.314 249.292 498.93 249.292 498.462C249.292 498.042 249.136 497.7 248.824 497.436C248.512 497.172 248.092 497.04 247.564 497.04H246.25V495.888H247.204C247.72 495.888 248.122 495.762 248.41 495.51C248.71 495.246 248.86 494.886 248.86 494.43C248.86 493.998 248.686 493.644 248.338 493.368C247.99 493.08 247.522 492.936 246.934 492.936C245.806 492.936 245.056 493.386 244.684 494.286L243.694 493.71C244.294 492.426 245.374 491.784 246.934 491.784C247.882 491.784 248.638 492.036 249.202 492.54C249.766 493.032 250.048 493.638 250.048 494.358C250.048 495.282 249.67 495.954 248.914 496.374ZM257.109 491.784C258.393 491.784 259.485 492.24 260.385 493.152C261.297 494.064 261.753 495.18 261.753 496.5C261.753 497.82 261.297 498.936 260.385 499.848C259.485 500.76 258.393 501.216 257.109 501.216C255.513 501.216 254.301 500.556 253.473 499.236V504.6H252.285V492H253.473V493.764C254.301 492.444 255.513 491.784 257.109 491.784ZM254.499 499.038C255.183 499.722 256.023 500.064 257.019 500.064C258.015 500.064 258.855 499.722 259.539 499.038C260.223 498.342 260.565 497.496 260.565 496.5C260.565 495.504 260.223 494.664 259.539 493.98C258.855 493.284 258.015 492.936 257.019 492.936C256.023 492.936 255.183 493.284 254.499 493.98C253.815 494.664 253.473 495.504 253.473 496.5C253.473 497.496 253.815 498.342 254.499 499.038ZM271.469 492H272.657V501H271.469V499.236C270.641 500.556 269.429 501.216 267.833 501.216C266.549 501.216 265.451 500.76 264.539 499.848C263.639 498.936 263.189 497.82 263.189 496.5C263.189 495.18 263.639 494.064 264.539 493.152C265.451 492.24 266.549 491.784 267.833 491.784C269.429 491.784 270.641 492.444 271.469 493.764V492ZM265.403 499.038C266.087 499.722 266.927 500.064 267.923 500.064C268.919 500.064 269.759 499.722 270.443 499.038C271.127 498.342 271.469 497.496 271.469 496.5C271.469 495.504 271.127 494.664 270.443 493.98C269.759 493.284 268.919 492.936 267.923 492.936C266.927 492.936 266.087 493.284 265.403 493.98C264.719 494.664 264.377 495.504 264.377 496.5C264.377 497.496 264.719 498.342 265.403 499.038ZM279.366 501.216C278.01 501.216 276.882 500.766 275.982 499.866C275.082 498.954 274.632 497.832 274.632 496.5C274.632 495.168 275.082 494.052 275.982 493.152C276.882 492.24 278.01 491.784 279.366 491.784C280.254 491.784 281.052 492 281.76 492.432C282.468 492.852 282.984 493.422 283.308 494.142L282.336 494.7C282.096 494.16 281.706 493.734 281.166 493.422C280.638 493.098 280.038 492.936 279.366 492.936C278.37 492.936 277.53 493.284 276.846 493.98C276.162 494.664 275.82 495.504 275.82 496.5C275.82 497.496 276.162 498.342 276.846 499.038C277.53 499.722 278.37 500.064 279.366 500.064C280.038 500.064 280.638 499.908 281.166 499.596C281.694 499.272 282.108 498.84 282.408 498.3L283.398 498.876C283.026 499.596 282.48 500.166 281.76 500.586C281.04 501.006 280.242 501.216 279.366 501.216ZM291.408 492V493.152H288.222V501H287.034V493.152H283.848V492H291.408ZM296.662 491.784C297.994 491.784 299.068 492.258 299.884 493.206C300.712 494.142 301.126 495.252 301.126 496.536C301.126 496.668 301.114 496.854 301.09 497.094H293.188C293.308 498.006 293.692 498.732 294.34 499.272C295 499.8 295.81 500.064 296.77 500.064C297.454 500.064 298.042 499.926 298.534 499.65C299.038 499.362 299.416 498.99 299.668 498.534L300.712 499.146C300.316 499.782 299.776 500.286 299.092 500.658C298.408 501.03 297.628 501.216 296.752 501.216C295.336 501.216 294.184 500.772 293.296 499.884C292.408 498.996 291.964 497.868 291.964 496.5C291.964 495.156 292.402 494.034 293.278 493.134C294.154 492.234 295.282 491.784 296.662 491.784ZM296.662 492.936C295.726 492.936 294.94 493.218 294.304 493.782C293.68 494.334 293.308 495.054 293.188 495.942H299.902C299.782 494.994 299.416 494.256 298.804 493.728C298.192 493.2 297.478 492.936 296.662 492.936Z" fill="#FFC2D7" fill-opacity="0.6"></path><path d="M47.296 84.136V101H42.88V78.6H48.032L61.536 95.464V78.6H65.952V101H60.8L47.296 84.136ZM80.4918 97.768C82.7318 97.768 84.8758 97.2347 86.9237 96.168L88.1718 99.496C85.4411 100.883 82.7424 101.576 80.0758 101.576C77.1531 101.576 74.7744 100.765 72.9398 99.144C71.1051 97.5013 70.1878 95.4533 70.1878 93C70.1878 90.4187 71.1371 88.3493 73.0358 86.792C74.9558 85.2347 77.3024 84.456 80.0758 84.456C82.5078 84.456 84.5344 85.1707 86.1558 86.6C87.7771 88.008 88.5878 89.7893 88.5878 91.944C88.5878 92.648 88.4918 93.3733 88.2998 94.12H74.5398C74.8384 95.272 75.5211 96.168 76.5878 96.808C77.6544 97.448 78.9558 97.768 80.4918 97.768ZM79.8198 88.008C77.0251 88.008 75.2971 89.0107 74.6358 91.016H84.3318C84.1184 90.056 83.6171 89.32 82.8278 88.808C82.0598 88.2747 81.0571 88.008 79.8198 88.008ZM94.39 85L99.638 96.232L104.822 85H109.526L101.942 101H97.302L89.75 85H94.39ZM121.179 97.768C123.419 97.768 125.563 97.2347 127.611 96.168L128.859 99.496C126.129 100.883 123.43 101.576 120.763 101.576C117.841 101.576 115.462 100.765 113.627 99.144C111.793 97.5013 110.875 95.4533 110.875 93C110.875 90.4187 111.825 88.3493 113.723 86.792C115.643 85.2347 117.99 84.456 120.763 84.456C123.195 84.456 125.222 85.1707 126.843 86.6C128.465 88.008 129.275 89.7893 129.275 91.944C129.275 92.648 129.179 93.3733 128.987 94.12H115.227C115.526 95.272 116.209 96.168 117.275 96.808C118.342 97.448 119.643 97.768 121.179 97.768ZM120.507 88.008C117.713 88.008 115.985 89.0107 115.323 91.016H125.019C124.806 90.056 124.305 89.32 123.515 88.808C122.747 88.2747 121.745 88.008 120.507 88.008ZM142.982 84.456C143.878 84.456 144.774 84.6693 145.67 85.096L144.774 88.936C143.984 88.5733 143.248 88.392 142.566 88.392C141.136 88.392 139.856 88.8293 138.726 89.704C137.616 90.5573 137.062 91.6773 137.062 93.064V101H132.838V85H137.062V88.552C137.616 87.5067 138.427 86.568 139.494 85.736C140.56 84.8827 141.723 84.456 142.982 84.456ZM166.436 88.424C164.985 88.424 163.737 88.8293 162.692 89.64C161.647 90.4293 161.124 91.5707 161.124 93.064V101H156.9V77.288H161.124V88.552C161.743 87.4213 162.628 86.472 163.78 85.704C164.932 84.9147 166.223 84.52 167.652 84.52C169.807 84.52 171.481 85.1813 172.676 86.504C173.892 87.8053 174.5 89.5547 174.5 91.752V101H170.276V92.264C170.276 91.0907 169.945 90.1627 169.284 89.48C168.623 88.776 167.673 88.424 166.436 88.424ZM184.75 91.88C186.435 91.88 188.227 92.2107 190.126 92.872V91.016C190.126 90.1627 189.849 89.4907 189.294 89C188.761 88.488 188.003 88.232 187.022 88.232C185.614 88.232 183.47 88.7653 180.59 89.832L179.534 85.992C182.905 84.904 185.529 84.36 187.406 84.36C189.625 84.36 191.331 84.936 192.526 86.088C193.742 87.24 194.35 88.904 194.35 91.08V96.84C194.35 97.352 194.606 97.608 195.118 97.608C195.545 97.608 196.291 97.3307 197.358 96.776L198.222 100.04C196.259 101.107 194.595 101.64 193.23 101.64C192.227 101.64 191.47 101.341 190.958 100.744C190.446 100.125 190.169 99.3253 190.126 98.344C189.315 99.3253 188.323 100.125 187.15 100.744C185.977 101.341 184.739 101.64 183.438 101.64C181.923 101.64 180.665 101.192 179.662 100.296C178.681 99.3787 178.19 98.2053 178.19 96.776C178.19 95.176 178.83 93.96 180.11 93.128C181.39 92.296 182.937 91.88 184.75 91.88ZM184.814 98.024C185.646 98.024 186.553 97.8107 187.534 97.384C188.537 96.9573 189.401 96.392 190.126 95.688V95.08C188.377 94.76 186.659 94.6 184.974 94.6C184.249 94.6 183.651 94.7707 183.182 95.112C182.734 95.432 182.51 95.8693 182.51 96.424C182.51 96.936 182.713 97.3307 183.118 97.608C183.545 97.8853 184.11 98.024 184.814 98.024ZM202.859 85L208.107 96.232L213.291 85H217.995L210.411 101H205.771L198.219 85H202.859ZM229.648 97.768C231.888 97.768 234.032 97.2347 236.08 96.168L237.328 99.496C234.597 100.883 231.899 101.576 229.232 101.576C226.309 101.576 223.931 100.765 222.096 99.144C220.261 97.5013 219.344 95.4533 219.344 93C219.344 90.4187 220.293 88.3493 222.192 86.792C224.112 85.2347 226.459 84.456 229.232 84.456C231.664 84.456 233.691 85.1707 235.312 86.6C236.933 88.008 237.744 89.7893 237.744 91.944C237.744 92.648 237.648 93.3733 237.456 94.12H223.696C223.995 95.272 224.677 96.168 225.744 96.808C226.811 97.448 228.112 97.768 229.648 97.768ZM228.976 88.008C226.181 88.008 224.453 89.0107 223.792 91.016H233.488C233.275 90.056 232.773 89.32 231.984 88.808C231.216 88.2747 230.213 88.008 228.976 88.008ZM255.265 78.6V101H250.849V78.6H255.265ZM278.867 97.768C281.107 97.768 283.251 97.2347 285.299 96.168L286.547 99.496C283.816 100.883 281.117 101.576 278.451 101.576C275.528 101.576 273.149 100.765 271.315 99.144C269.48 97.5013 268.563 95.4533 268.563 93C268.563 90.4187 269.512 88.3493 271.411 86.792C273.331 85.2347 275.677 84.456 278.451 84.456C280.883 84.456 282.909 85.1707 284.531 86.6C286.152 88.008 286.963 89.7893 286.963 91.944C286.963 92.648 286.867 93.3733 286.675 94.12H272.915C273.213 95.272 273.896 96.168 274.963 96.808C276.029 97.448 277.331 97.768 278.867 97.768ZM278.195 88.008C275.4 88.008 273.672 89.0107 273.011 91.016H282.707C282.493 90.056 281.992 89.32 281.203 88.808C280.435 88.2747 279.432 88.008 278.195 88.008ZM292.765 85L298.013 96.232L303.197 85H307.901L300.317 101H295.677L288.125 85H292.765ZM319.554 97.768C321.794 97.768 323.938 97.2347 325.986 96.168L327.234 99.496C324.504 100.883 321.805 101.576 319.138 101.576C316.216 101.576 313.837 100.765 312.002 99.144C310.168 97.5013 309.25 95.4533 309.25 93C309.25 90.4187 310.2 88.3493 312.098 86.792C314.018 85.2347 316.365 84.456 319.138 84.456C321.57 84.456 323.597 85.1707 325.218 86.6C326.84 88.008 327.65 89.7893 327.65 91.944C327.65 92.648 327.554 93.3733 327.362 94.12H313.602C313.901 95.272 314.584 96.168 315.65 96.808C316.717 97.448 318.018 97.768 319.554 97.768ZM318.882 88.008C316.088 88.008 314.36 89.0107 313.698 91.016H323.394C323.181 90.056 322.68 89.32 321.89 88.808C321.122 88.2747 320.12 88.008 318.882 88.008ZM341.357 84.456C342.253 84.456 343.149 84.6693 344.045 85.096L343.149 88.936C342.359 88.5733 341.623 88.392 340.941 88.392C339.511 88.392 338.231 88.8293 337.101 89.704C335.991 90.5573 335.437 91.6773 335.437 93.064V101H331.213V85H335.437V88.552C335.991 87.5067 336.802 86.568 337.869 85.736C338.935 84.8827 340.098 84.456 341.357 84.456ZM51.936 128.424C50.4853 128.424 49.2373 128.829 48.192 129.64C47.1467 130.429 46.624 131.571 46.624 133.064V141H42.4V117.288H46.624V128.552C47.2427 127.421 48.128 126.472 49.28 125.704C50.432 124.915 51.7227 124.52 53.152 124.52C55.3067 124.52 56.9813 125.181 58.176 126.504C59.392 127.805 60 129.555 60 131.752V141H55.776V132.264C55.776 131.091 55.4453 130.163 54.784 129.48C54.1227 128.776 53.1733 128.424 51.936 128.424ZM70.25 131.88C71.9353 131.88 73.7273 132.211 75.626 132.872V131.016C75.626 130.163 75.3487 129.491 74.794 129C74.2607 128.488 73.5033 128.232 72.522 128.232C71.114 128.232 68.97 128.765 66.09 129.832L65.034 125.992C68.4047 124.904 71.0287 124.36 72.906 124.36C75.1247 124.36 76.8313 124.936 78.026 126.088C79.242 127.24 79.85 128.904 79.85 131.08V136.84C79.85 137.352 80.106 137.608 80.618 137.608C81.0447 137.608 81.7913 137.331 82.858 136.776L83.722 140.04C81.7593 141.107 80.0953 141.64 78.73 141.64C77.7273 141.64 76.97 141.341 76.458 140.744C75.946 140.125 75.6687 139.325 75.626 138.344C74.8153 139.325 73.8233 140.125 72.65 140.744C71.4767 141.341 70.2393 141.64 68.938 141.64C67.4233 141.64 66.1647 141.192 65.162 140.296C64.1807 139.379 63.69 138.205 63.69 136.776C63.69 135.176 64.33 133.96 65.61 133.128C66.89 132.296 68.4367 131.88 70.25 131.88ZM70.314 138.024C71.146 138.024 72.0527 137.811 73.034 137.384C74.0367 136.957 74.9007 136.392 75.626 135.688V135.08C73.8767 134.76 72.1593 134.6 70.474 134.6C69.7487 134.6 69.1513 134.771 68.682 135.112C68.234 135.432 68.01 135.869 68.01 136.424C68.01 136.936 68.2127 137.331 68.618 137.608C69.0447 137.885 69.61 138.024 70.314 138.024ZM93.1267 141.544C90.8654 141.544 88.9561 140.776 87.3988 139.24C85.8414 137.704 85.0628 135.677 85.0628 133.16C85.0628 130.728 85.9588 128.669 87.7508 126.984C89.5641 125.277 91.8041 124.424 94.4708 124.424C95.7508 124.424 97.5961 124.808 100.007 125.576V117H104.231V141H100.007V137.448C99.4521 138.621 98.5561 139.603 97.3188 140.392C96.0814 141.16 94.6841 141.544 93.1267 141.544ZM90.7268 136.424C91.6868 137.213 92.9028 137.608 94.3748 137.608C95.8468 137.608 97.1481 137.139 98.2788 136.2C99.4308 135.24 100.007 134.024 100.007 132.552V129.096C97.8308 128.456 95.9641 128.136 94.4068 128.136C92.9774 128.136 91.7721 128.616 90.7908 129.576C89.8094 130.536 89.3188 131.72 89.3188 133.128C89.3188 134.536 89.7881 135.635 90.7268 136.424ZM123.688 131.88C125.373 131.88 127.165 132.211 129.064 132.872V131.016C129.064 130.163 128.786 129.491 128.232 129C127.698 128.488 126.941 128.232 125.96 128.232C124.552 128.232 122.408 128.765 119.528 129.832L118.472 125.992C121.842 124.904 124.466 124.36 126.344 124.36C128.562 124.36 130.269 124.936 131.464 126.088C132.68 127.24 133.288 128.904 133.288 131.08V136.84C133.288 137.352 133.544 137.608 134.056 137.608C134.482 137.608 135.229 137.331 136.296 136.776L137.16 140.04C135.197 141.107 133.533 141.64 132.168 141.64C131.165 141.64 130.408 141.341 129.896 140.744C129.384 140.125 129.106 139.325 129.064 138.344C128.253 139.325 127.261 140.125 126.088 140.744C124.914 141.341 123.677 141.64 122.376 141.64C120.861 141.64 119.602 141.192 118.6 140.296C117.618 139.379 117.128 138.205 117.128 136.776C117.128 135.176 117.768 133.96 119.048 133.128C120.328 132.296 121.874 131.88 123.688 131.88ZM123.752 138.024C124.584 138.024 125.49 137.811 126.472 137.384C127.474 136.957 128.338 136.392 129.064 135.688V135.08C127.314 134.76 125.597 134.6 123.911 134.6C123.186 134.6 122.589 134.771 122.12 135.112C121.672 135.432 121.448 135.869 121.448 136.424C121.448 136.936 121.65 137.331 122.056 137.608C122.482 137.885 123.048 138.024 123.752 138.024ZM159.723 124.456C161.984 124.456 163.893 125.224 165.451 126.76C167.008 128.296 167.787 130.323 167.787 132.84C167.787 135.272 166.88 137.341 165.067 139.048C163.275 140.733 161.045 141.576 158.379 141.576C157.12 141.576 155.275 141.203 152.843 140.456V148.68H148.619V125H152.843V128.552C153.397 127.379 154.293 126.408 155.531 125.64C156.768 124.851 158.165 124.456 159.723 124.456ZM158.475 128.392C156.96 128.392 155.637 128.819 154.507 129.672C153.397 130.525 152.843 131.656 152.843 133.064V136.904C154.997 137.544 156.864 137.864 158.443 137.864C159.808 137.864 160.992 137.363 161.995 136.36C163.019 135.357 163.531 134.184 163.531 132.84C163.531 131.453 163.051 130.365 162.091 129.576C161.152 128.787 159.947 128.392 158.475 128.392ZM177.125 131.88C178.81 131.88 180.602 132.211 182.501 132.872V131.016C182.501 130.163 182.224 129.491 181.669 129C181.136 128.488 180.378 128.232 179.397 128.232C177.989 128.232 175.845 128.765 172.965 129.832L171.909 125.992C175.28 124.904 177.904 124.36 179.781 124.36C182 124.36 183.706 124.936 184.901 126.088C186.117 127.24 186.725 128.904 186.725 131.08V136.84C186.725 137.352 186.981 137.608 187.493 137.608C187.92 137.608 188.666 137.331 189.733 136.776L190.597 140.04C188.634 141.107 186.97 141.64 185.605 141.64C184.602 141.64 183.845 141.341 183.333 140.744C182.821 140.125 182.544 139.325 182.501 138.344C181.69 139.325 180.698 140.125 179.525 140.744C178.352 141.341 177.114 141.64 175.813 141.64C174.298 141.64 173.04 141.192 172.037 140.296C171.056 139.379 170.565 138.205 170.565 136.776C170.565 135.176 171.205 133.96 172.485 133.128C173.765 132.296 175.312 131.88 177.125 131.88ZM177.189 138.024C178.021 138.024 178.928 137.811 179.909 137.384C180.912 136.957 181.776 136.392 182.501 135.688V135.08C180.752 134.76 179.034 134.6 177.349 134.6C176.624 134.6 176.026 134.771 175.557 135.112C175.109 135.432 174.885 135.869 174.885 136.424C174.885 136.936 175.088 137.331 175.493 137.608C175.92 137.885 176.485 138.024 177.189 138.024ZM203.138 124.456C204.034 124.456 204.93 124.669 205.826 125.096L204.93 128.936C204.14 128.573 203.404 128.392 202.722 128.392C201.292 128.392 200.012 128.829 198.882 129.704C197.772 130.557 197.218 131.677 197.218 133.064V141H192.994V125H197.218V128.552C197.772 127.507 198.583 126.568 199.65 125.736C200.716 124.883 201.879 124.456 203.138 124.456ZM206.234 128.68V125.32L209.402 125.128L209.978 120.2H213.498V125H220.154V128.68H213.498V134.728C213.498 135.603 213.722 136.307 214.17 136.84C214.639 137.373 215.279 137.64 216.09 137.64C217.306 137.64 218.532 137.256 219.77 136.488L220.698 140.104C218.863 141.064 217.092 141.544 215.386 141.544C213.423 141.544 211.908 140.947 210.842 139.752C209.796 138.557 209.274 136.936 209.274 134.888V128.68H206.234ZM233.436 128.424C231.985 128.424 230.737 128.829 229.692 129.64C228.647 130.429 228.124 131.571 228.124 133.064V141H223.9V125H228.124V128.552C228.743 127.421 229.628 126.472 230.78 125.704C231.932 124.915 233.223 124.52 234.652 124.52C236.807 124.52 238.481 125.181 239.676 126.504C240.892 127.805 241.5 129.555 241.5 131.752V141H237.276V132.264C237.276 131.091 236.945 130.163 236.284 129.48C235.623 128.776 234.673 128.424 233.436 128.424ZM255.398 137.768C257.638 137.768 259.782 137.235 261.83 136.168L263.078 139.496C260.347 140.883 257.649 141.576 254.982 141.576C252.059 141.576 249.681 140.765 247.846 139.144C246.011 137.501 245.094 135.453 245.094 133C245.094 130.419 246.043 128.349 247.942 126.792C249.862 125.235 252.209 124.456 254.982 124.456C257.414 124.456 259.441 125.171 261.062 126.6C262.683 128.008 263.494 129.789 263.494 131.944C263.494 132.648 263.398 133.373 263.206 134.12H249.446C249.745 135.272 250.427 136.168 251.494 136.808C252.561 137.448 253.862 137.768 255.398 137.768ZM254.726 128.008C251.931 128.008 250.203 129.011 249.542 131.016H259.238C259.025 130.056 258.523 129.32 257.734 128.808C256.966 128.275 255.963 128.008 254.726 128.008ZM277.2 124.456C278.096 124.456 278.992 124.669 279.888 125.096L278.992 128.936C278.203 128.573 277.467 128.392 276.784 128.392C275.355 128.392 274.075 128.829 272.944 129.704C271.835 130.557 271.28 131.677 271.28 133.064V141H267.056V125H271.28V128.552C271.835 127.507 272.646 126.568 273.712 125.736C274.779 124.883 275.942 124.456 277.2 124.456ZM60.64 181L55.936 170.056L51.2 181H46.88L39.872 165H44.448L49.088 176.008L53.728 165H58.144L62.784 175.976L67.456 165H71.936L64.928 181H60.64ZM78.4365 165V181H74.2765V165H78.4365ZM73.8285 160.392C73.8285 159.709 74.0738 159.123 74.5645 158.632C75.0552 158.141 75.6525 157.896 76.3565 157.896C77.0605 157.896 77.6578 158.141 78.1485 158.632C78.6392 159.123 78.8845 159.709 78.8845 160.392C78.8845 161.096 78.6392 161.693 78.1485 162.184C77.6578 162.675 77.0605 162.92 76.3565 162.92C75.6525 162.92 75.0552 162.675 74.5645 162.184C74.0738 161.693 73.8285 161.096 73.8285 160.392ZM81.5463 168.68V165.32L84.7143 165.128L85.2903 160.2H88.8103V165H95.4663V168.68H88.8103V174.728C88.8103 175.603 89.0343 176.307 89.4823 176.84C89.9516 177.373 90.5916 177.64 91.4023 177.64C92.6183 177.64 93.8449 177.256 95.0823 176.488L96.0103 180.104C94.1756 181.064 92.4049 181.544 90.6983 181.544C88.7356 181.544 87.2209 180.947 86.1543 179.752C85.1089 178.557 84.5863 176.936 84.5863 174.888V168.68H81.5463ZM108.749 168.424C107.298 168.424 106.05 168.829 105.005 169.64C103.959 170.429 103.437 171.571 103.437 173.064V181H99.2125V157.288H103.437V168.552C104.055 167.421 104.941 166.472 106.093 165.704C107.245 164.915 108.535 164.52 109.965 164.52C112.119 164.52 113.794 165.181 114.989 166.504C116.205 167.805 116.812 169.555 116.812 171.752V181H112.589V172.264C112.589 171.091 112.258 170.163 111.597 169.48C110.935 168.776 109.986 168.424 108.749 168.424ZM136.125 171.88C137.81 171.88 139.602 172.211 141.501 172.872V171.016C141.501 170.163 141.224 169.491 140.669 169C140.136 168.488 139.378 168.232 138.397 168.232C136.989 168.232 134.845 168.765 131.965 169.832L130.909 165.992C134.28 164.904 136.904 164.36 138.781 164.36C141 164.36 142.706 164.936 143.901 166.088C145.117 167.24 145.725 168.904 145.725 171.08V176.84C145.725 177.352 145.981 177.608 146.493 177.608C146.92 177.608 147.666 177.331 148.733 176.776L149.597 180.04C147.634 181.107 145.97 181.64 144.605 181.64C143.602 181.64 142.845 181.341 142.333 180.744C141.821 180.125 141.544 179.325 141.501 178.344C140.69 179.325 139.698 180.125 138.525 180.744C137.352 181.341 136.114 181.64 134.813 181.64C133.298 181.64 132.04 181.192 131.037 180.296C130.056 179.379 129.565 178.205 129.565 176.776C129.565 175.176 130.205 173.96 131.485 173.128C132.765 172.296 134.312 171.88 136.125 171.88ZM136.189 178.024C137.021 178.024 137.928 177.811 138.909 177.384C139.912 176.957 140.776 176.392 141.501 175.688V175.08C139.752 174.76 138.034 174.6 136.349 174.6C135.624 174.6 135.026 174.771 134.557 175.112C134.109 175.432 133.885 175.869 133.885 176.424C133.885 176.936 134.088 177.331 134.493 177.608C134.92 177.885 135.485 178.024 136.189 178.024ZM174.816 158.6L176.032 163.176L165.28 181H160.32L171.488 162.824H159.296V158.6H174.816ZM179.54 172.264V169.064H185.556V163.048H188.756V169.064H194.804V172.264H188.756V178.312H185.556V172.264H179.54ZM226.746 165L219.034 182.312C218.629 183.208 218.309 183.891 218.074 184.36C217.84 184.829 217.488 185.405 217.018 186.088C216.57 186.792 216.112 187.315 215.642 187.656C215.194 188.019 214.608 188.328 213.882 188.584C213.178 188.861 212.389 189 211.514 189C211.13 189 210.64 188.947 210.042 188.84L210.266 184.776C210.906 184.883 211.386 184.936 211.706 184.936C212.474 184.936 213.104 184.627 213.594 184.008C214.085 183.389 214.586 182.515 215.098 181.384C215.098 181.363 215.109 181.331 215.13 181.288L215.162 181.224L206.906 165H211.514L217.242 176.424C219.098 172.115 220.72 168.307 222.106 165H226.746ZM238.398 177.768C240.638 177.768 242.782 177.235 244.83 176.168L246.078 179.496C243.347 180.883 240.649 181.576 237.982 181.576C235.059 181.576 232.681 180.765 230.846 179.144C229.011 177.501 228.094 175.453 228.094 173C228.094 170.419 229.043 168.349 230.942 166.792C232.862 165.235 235.209 164.456 237.982 164.456C240.414 164.456 242.441 165.171 244.062 166.6C245.683 168.008 246.494 169.789 246.494 171.944C246.494 172.648 246.398 173.373 246.206 174.12H232.446C232.745 175.272 233.427 176.168 234.494 176.808C235.561 177.448 236.862 177.768 238.398 177.768ZM237.726 168.008C234.931 168.008 233.203 169.011 232.542 171.016H242.238C242.025 170.056 241.523 169.32 240.734 168.808C239.966 168.275 238.963 168.008 237.726 168.008ZM255.656 171.88C257.342 171.88 259.134 172.211 261.032 172.872V171.016C261.032 170.163 260.755 169.491 260.2 169C259.667 168.488 258.91 168.232 257.928 168.232C256.52 168.232 254.376 168.765 251.496 169.832L250.44 165.992C253.811 164.904 256.435 164.36 258.312 164.36C260.531 164.36 262.238 164.936 263.432 166.088C264.648 167.24 265.256 168.904 265.256 171.08V176.84C265.256 177.352 265.512 177.608 266.024 177.608C266.451 177.608 267.198 177.331 268.264 176.776L269.128 180.04C267.166 181.107 265.502 181.64 264.136 181.64C263.134 181.64 262.376 181.341 261.864 180.744C261.352 180.125 261.075 179.325 261.032 178.344C260.222 179.325 259.23 180.125 258.056 180.744C256.883 181.341 255.646 181.64 254.344 181.64C252.83 181.64 251.571 181.192 250.568 180.296C249.587 179.379 249.096 178.205 249.096 176.776C249.096 175.176 249.736 173.96 251.016 173.128C252.296 172.296 253.843 171.88 255.656 171.88ZM255.72 178.024C256.552 178.024 257.459 177.811 258.44 177.384C259.443 176.957 260.307 176.392 261.032 175.688V175.08C259.283 174.76 257.566 174.6 255.88 174.6C255.155 174.6 254.558 174.771 254.088 175.112C253.64 175.432 253.416 175.869 253.416 176.424C253.416 176.936 253.619 177.331 254.024 177.608C254.451 177.885 255.016 178.024 255.72 178.024ZM281.669 164.456C282.565 164.456 283.461 164.669 284.357 165.096L283.461 168.936C282.672 168.573 281.936 168.392 281.253 168.392C279.824 168.392 278.544 168.829 277.413 169.704C276.304 170.557 275.749 171.677 275.749 173.064V181H271.525V165H275.749V168.552C276.304 167.507 277.114 166.568 278.181 165.736C279.248 164.883 280.41 164.456 281.669 164.456ZM301.188 171.88C302.873 171.88 304.665 172.211 306.564 172.872V171.016C306.564 170.163 306.286 169.491 305.732 169C305.198 168.488 304.441 168.232 303.46 168.232C302.052 168.232 299.908 168.765 297.028 169.832L295.972 165.992C299.342 164.904 301.966 164.36 303.844 164.36C306.062 164.36 307.769 164.936 308.964 166.088C310.18 167.24 310.788 168.904 310.788 171.08V176.84C310.788 177.352 311.044 177.608 311.556 177.608C311.982 177.608 312.729 177.331 313.796 176.776L314.66 180.04C312.697 181.107 311.033 181.64 309.668 181.64C308.665 181.64 307.908 181.341 307.396 180.744C306.884 180.125 306.606 179.325 306.564 178.344C305.753 179.325 304.761 180.125 303.588 180.744C302.414 181.341 301.177 181.64 299.876 181.64C298.361 181.64 297.102 181.192 296.1 180.296C295.118 179.379 294.628 178.205 294.628 176.776C294.628 175.176 295.268 173.96 296.548 173.128C297.828 172.296 299.374 171.88 301.188 171.88ZM301.252 178.024C302.084 178.024 302.99 177.811 303.972 177.384C304.974 176.957 305.838 176.392 306.564 175.688V175.08C304.814 174.76 303.097 174.6 301.411 174.6C300.686 174.6 300.089 174.771 299.62 175.112C299.172 175.432 298.948 175.869 298.948 176.424C298.948 176.936 299.15 177.331 299.556 177.608C299.982 177.885 300.548 178.024 301.252 178.024ZM322.752 178.888H324.928C327.808 178.888 330.112 179.283 331.84 180.072C333.568 180.861 334.432 182.056 334.432 183.656C334.432 185.427 333.558 186.771 331.808 187.688C330.08 188.627 327.787 189.096 324.928 189.096C321.963 189.096 319.616 188.648 317.888 187.752C316.182 186.877 315.328 185.619 315.328 183.976C315.328 183.165 315.659 182.397 316.32 181.672C317.003 180.968 317.771 180.509 318.624 180.296C318.198 180.083 317.835 179.731 317.536 179.24C317.238 178.749 317.088 178.248 317.088 177.736C317.088 176.883 317.664 176.083 318.816 175.336C318.027 174.824 317.355 174.163 316.8 173.352C316.246 172.52 315.968 171.699 315.968 170.888C315.968 168.861 316.768 167.283 318.368 166.152C319.99 165.021 321.963 164.456 324.288 164.456C326.059 164.456 327.648 164.797 329.056 165.48C330.379 164.392 332 163.688 333.92 163.368L334.688 167.304C333.558 167.432 332.63 167.677 331.904 168.04C332.395 168.915 332.64 169.864 332.64 170.888C332.64 172.723 331.851 174.248 330.272 175.464C328.694 176.68 326.699 177.288 324.288 177.288C323.456 177.288 322.678 177.224 321.952 177.096C321.419 177.224 321.152 177.512 321.152 177.96C321.152 178.579 321.686 178.888 322.752 178.888ZM324.256 167.944C323.062 167.944 322.091 168.189 321.344 168.68C320.598 169.171 320.224 169.864 320.224 170.76C320.224 171.549 320.608 172.211 321.376 172.744C322.144 173.256 323.104 173.512 324.256 173.512C325.451 173.512 326.411 173.245 327.136 172.712C327.883 172.179 328.256 171.528 328.256 170.76C328.256 169.864 327.883 169.171 327.136 168.68C326.39 168.189 325.43 167.944 324.256 167.944ZM324.864 182.472C322.454 182.472 321.067 182.483 320.704 182.504C319.83 182.867 319.392 183.357 319.392 183.976C319.392 185.085 321.216 185.64 324.864 185.64C328.512 185.64 330.336 185.096 330.336 184.008C330.336 182.984 328.512 182.472 324.864 182.472ZM346.492 177.768C348.732 177.768 350.876 177.235 352.924 176.168L354.172 179.496C351.441 180.883 348.742 181.576 346.076 181.576C343.153 181.576 340.774 180.765 338.94 179.144C337.105 177.501 336.188 175.453 336.188 173C336.188 170.419 337.137 168.349 339.036 166.792C340.956 165.235 343.302 164.456 346.076 164.456C348.508 164.456 350.534 165.171 352.156 166.6C353.777 168.008 354.588 169.789 354.588 171.944C354.588 172.648 354.492 173.373 354.3 174.12H340.54C340.838 175.272 341.521 176.168 342.588 176.808C343.654 177.448 344.956 177.768 346.492 177.768ZM345.82 168.008C343.025 168.008 341.297 169.011 340.636 171.016H350.332C350.118 170.056 349.617 169.32 348.828 168.808C348.06 168.275 347.057 168.008 345.82 168.008ZM48.096 218.888H50.272C53.152 218.888 55.456 219.283 57.184 220.072C58.912 220.861 59.776 222.056 59.776 223.656C59.776 225.427 58.9013 226.771 57.152 227.688C55.424 228.627 53.1307 229.096 50.272 229.096C47.3067 229.096 44.96 228.648 43.232 227.752C41.5253 226.877 40.672 225.619 40.672 223.976C40.672 223.165 41.0027 222.397 41.664 221.672C42.3467 220.968 43.1147 220.509 43.968 220.296C43.5413 220.083 43.1787 219.731 42.88 219.24C42.5813 218.749 42.432 218.248 42.432 217.736C42.432 216.883 43.008 216.083 44.16 215.336C43.3707 214.824 42.6987 214.163 42.144 213.352C41.5893 212.52 41.312 211.699 41.312 210.888C41.312 208.861 42.112 207.283 43.712 206.152C45.3333 205.021 47.3067 204.456 49.632 204.456C51.4027 204.456 52.992 204.797 54.4 205.48C55.7227 204.392 57.344 203.688 59.264 203.368L60.032 207.304C58.9013 207.432 57.9733 207.677 57.248 208.04C57.7387 208.915 57.984 209.864 57.984 210.888C57.984 212.723 57.1947 214.248 55.616 215.464C54.0373 216.68 52.0427 217.288 49.632 217.288C48.8 217.288 48.0213 217.224 47.296 217.096C46.7627 217.224 46.496 217.512 46.496 217.96C46.496 218.579 47.0293 218.888 48.096 218.888ZM49.6 207.944C48.4053 207.944 47.4347 208.189 46.688 208.68C45.9413 209.171 45.568 209.864 45.568 210.76C45.568 211.549 45.952 212.211 46.72 212.744C47.488 213.256 48.448 213.512 49.6 213.512C50.7947 213.512 51.7547 213.245 52.48 212.712C53.2267 212.179 53.6 211.528 53.6 210.76C53.6 209.864 53.2267 209.171 52.48 208.68C51.7333 208.189 50.7733 207.944 49.6 207.944ZM50.208 222.472C47.7973 222.472 46.4107 222.483 46.048 222.504C45.1733 222.867 44.736 223.357 44.736 223.976C44.736 225.085 46.56 225.64 50.208 225.64C53.856 225.64 55.68 225.096 55.68 224.008C55.68 222.984 53.856 222.472 50.208 222.472ZM68.1875 211.88C69.8728 211.88 71.6648 212.211 73.5635 212.872V211.016C73.5635 210.163 73.2862 209.491 72.7315 209C72.1982 208.488 71.4408 208.232 70.4595 208.232C69.0515 208.232 66.9075 208.765 64.0275 209.832L62.9715 205.992C66.3422 204.904 68.9662 204.36 70.8435 204.36C73.0622 204.36 74.7688 204.936 75.9635 206.088C77.1795 207.24 77.7875 208.904 77.7875 211.08V216.84C77.7875 217.352 78.0435 217.608 78.5555 217.608C78.9822 217.608 79.7288 217.331 80.7955 216.776L81.6595 220.04C79.6968 221.107 78.0328 221.64 76.6675 221.64C75.6648 221.64 74.9075 221.341 74.3955 220.744C73.8835 220.125 73.6062 219.325 73.5635 218.344C72.7528 219.325 71.7608 220.125 70.5875 220.744C69.4142 221.341 68.1768 221.64 66.8755 221.64C65.3608 221.64 64.1022 221.192 63.0995 220.296C62.1182 219.379 61.6275 218.205 61.6275 216.776C61.6275 215.176 62.2675 213.96 63.5475 213.128C64.8275 212.296 66.3742 211.88 68.1875 211.88ZM68.2515 218.024C69.0835 218.024 69.9902 217.811 70.9715 217.384C71.9742 216.957 72.8382 216.392 73.5635 215.688V215.08C71.8142 214.76 70.0968 214.6 68.4115 214.6C67.6862 214.6 67.0888 214.771 66.6195 215.112C66.1715 215.432 65.9475 215.869 65.9475 216.424C65.9475 216.936 66.1502 217.331 66.5555 217.608C66.9822 217.885 67.5475 218.024 68.2515 218.024ZM95.1603 204.456C97.4216 204.456 99.3309 205.224 100.888 206.76C102.446 208.296 103.224 210.323 103.224 212.84C103.224 215.272 102.318 217.341 100.504 219.048C98.7123 220.733 96.4829 221.576 93.8163 221.576C92.5576 221.576 90.7123 221.203 88.2803 220.456V228.68H84.0563V205H88.2803V208.552C88.8349 207.379 89.7309 206.408 90.9683 205.64C92.2056 204.851 93.6029 204.456 95.1603 204.456ZM93.9123 208.392C92.3976 208.392 91.0749 208.819 89.9443 209.672C88.8349 210.525 88.2803 211.656 88.2803 213.064V216.904C90.4349 217.544 92.3016 217.864 93.8803 217.864C95.2456 217.864 96.4296 217.363 97.4323 216.36C98.4563 215.357 98.9683 214.184 98.9683 212.84C98.9683 211.453 98.4883 210.365 97.5283 209.576C96.5896 208.787 95.3843 208.392 93.9123 208.392Z" fill="#FFC2D7"></path><path d="M46.3 287.4C48.016 287.4 49.432 288.012 50.548 289.236C51.676 290.448 52.24 291.936 52.24 293.7C52.24 295.464 51.676 296.958 50.548 298.182C49.432 299.394 48.016 300 46.3 300H41.44V287.4H46.3ZM46.3 298.812C47.68 298.812 48.808 298.32 49.684 297.336C50.572 296.352 51.016 295.14 51.016 293.7C51.016 292.26 50.572 291.048 49.684 290.064C48.808 289.08 47.68 288.588 46.3 288.588H42.7V298.812H46.3ZM55.4211 288.84C55.2531 289.008 55.0491 289.092 54.8091 289.092C54.5691 289.092 54.3651 289.008 54.1971 288.84C54.0291 288.672 53.9451 288.468 53.9451 288.228C53.9451 287.988 54.0291 287.784 54.1971 287.616C54.3651 287.448 54.5691 287.364 54.8091 287.364C55.0491 287.364 55.2531 287.448 55.4211 287.616C55.5891 287.784 55.6731 287.988 55.6731 288.228C55.6731 288.468 55.5891 288.672 55.4211 288.84ZM54.2151 300V291H55.4031V300H54.2151ZM65.6641 287.4H66.8521V300H65.6641V298.236C64.8361 299.556 63.6241 300.216 62.0281 300.216C60.7441 300.216 59.6461 299.76 58.7341 298.848C57.8341 297.936 57.3841 296.82 57.3841 295.5C57.3841 294.18 57.8341 293.064 58.7341 292.152C59.6461 291.24 60.7441 290.784 62.0281 290.784C63.6241 290.784 64.8361 291.444 65.6641 292.764V287.4ZM59.5981 298.038C60.2821 298.722 61.1221 299.064 62.1181 299.064C63.1141 299.064 63.9541 298.722 64.6381 298.038C65.3221 297.342 65.6641 296.496 65.6641 295.5C65.6641 294.504 65.3221 293.664 64.6381 292.98C63.9541 292.284 63.1141 291.936 62.1181 291.936C61.1221 291.936 60.2821 292.284 59.5981 292.98C58.9141 293.664 58.5721 294.504 58.5721 295.5C58.5721 296.496 58.9141 297.342 59.5981 298.038ZM80.3474 291H81.6074L77.7554 300.828C77.4074 301.716 76.9094 302.412 76.2614 302.916C75.6254 303.432 74.9114 303.66 74.1194 303.6V302.484C75.1994 302.604 76.0214 301.98 76.5854 300.612L76.8194 300.054L72.7874 291H74.0474L77.4314 298.542L80.3474 291ZM90.2336 298.866C89.3216 299.766 88.2056 300.216 86.8856 300.216C85.5656 300.216 84.4436 299.766 83.5196 298.866C82.6076 297.954 82.1516 296.832 82.1516 295.5C82.1516 294.168 82.6076 293.052 83.5196 292.152C84.4436 291.24 85.5656 290.784 86.8856 290.784C88.2056 290.784 89.3216 291.24 90.2336 292.152C91.1576 293.052 91.6196 294.168 91.6196 295.5C91.6196 296.832 91.1576 297.954 90.2336 298.866ZM84.3656 298.038C85.0496 298.722 85.8896 299.064 86.8856 299.064C87.8816 299.064 88.7216 298.722 89.4056 298.038C90.0896 297.342 90.4316 296.496 90.4316 295.5C90.4316 294.504 90.0896 293.664 89.4056 292.98C88.7216 292.284 87.8816 291.936 86.8856 291.936C85.8896 291.936 85.0496 292.284 84.3656 292.98C83.6816 293.664 83.3396 294.504 83.3396 295.5C83.3396 296.496 83.6816 297.342 84.3656 298.038ZM99.9437 291H101.132V300H99.9437V298.596C99.2717 299.676 98.2637 300.216 96.9197 300.216C95.8277 300.216 94.9637 299.886 94.3277 299.226C93.7037 298.554 93.3917 297.654 93.3917 296.526V291H94.5797V296.526C94.5797 297.33 94.7897 297.954 95.2097 298.398C95.6417 298.842 96.2477 299.064 97.0277 299.064C97.8917 299.064 98.5937 298.794 99.1337 298.254C99.6737 297.702 99.9437 296.856 99.9437 295.716V291ZM112.645 288.336C111.769 288.264 111.115 288.414 110.683 288.786C110.263 289.158 110.053 289.776 110.053 290.64V291H112.645V292.152H110.053V300H108.865V292.152H107.335V291H108.865V290.64C108.865 289.464 109.189 288.576 109.837 287.976C110.497 287.364 111.433 287.1 112.645 287.184V288.336ZM117.523 290.784C118.855 290.784 119.929 291.258 120.745 292.206C121.573 293.142 121.987 294.252 121.987 295.536C121.987 295.668 121.975 295.854 121.951 296.094H114.049C114.169 297.006 114.553 297.732 115.201 298.272C115.861 298.8 116.671 299.064 117.631 299.064C118.315 299.064 118.903 298.926 119.395 298.65C119.899 298.362 120.277 297.99 120.529 297.534L121.573 298.146C121.177 298.782 120.637 299.286 119.953 299.658C119.269 300.03 118.489 300.216 117.613 300.216C116.197 300.216 115.045 299.772 114.157 298.884C113.269 297.996 112.825 296.868 112.825 295.5C112.825 294.156 113.263 293.034 114.139 292.134C115.015 291.234 116.143 290.784 117.523 290.784ZM117.523 291.936C116.587 291.936 115.801 292.218 115.165 292.782C114.541 293.334 114.169 294.054 114.049 294.942H120.763C120.643 293.994 120.277 293.256 119.665 292.728C119.053 292.2 118.339 291.936 117.523 291.936ZM128.035 290.784C129.367 290.784 130.441 291.258 131.257 292.206C132.085 293.142 132.499 294.252 132.499 295.536C132.499 295.668 132.487 295.854 132.463 296.094H124.561C124.681 297.006 125.065 297.732 125.713 298.272C126.373 298.8 127.183 299.064 128.143 299.064C128.827 299.064 129.415 298.926 129.907 298.65C130.411 298.362 130.789 297.99 131.041 297.534L132.085 298.146C131.689 298.782 131.149 299.286 130.465 299.658C129.781 300.03 129.001 300.216 128.125 300.216C126.709 300.216 125.557 299.772 124.669 298.884C123.781 297.996 123.337 296.868 123.337 295.5C123.337 294.156 123.775 293.034 124.651 292.134C125.527 291.234 126.655 290.784 128.035 290.784ZM128.035 291.936C127.099 291.936 126.313 292.218 125.677 292.782C125.053 293.334 124.681 294.054 124.561 294.942H131.275C131.155 293.994 130.789 293.256 130.177 292.728C129.565 292.2 128.851 291.936 128.035 291.936ZM134.389 300V286.86H135.577V300H134.389ZM147.368 292.152H144.776V297.606C144.776 298.098 144.872 298.452 145.064 298.668C145.256 298.872 145.544 298.98 145.928 298.992C146.312 298.992 146.792 298.98 147.368 298.956V300C146.108 300.192 145.16 300.102 144.524 299.73C143.9 299.358 143.588 298.65 143.588 297.606V292.152H141.698V291H143.588V288.84L144.776 288.48V291H147.368V292.152ZM153.56 290.784C154.652 290.784 155.51 291.12 156.134 291.792C156.77 292.452 157.088 293.346 157.088 294.474V300H155.9V294.474C155.9 293.67 155.684 293.046 155.252 292.602C154.832 292.158 154.232 291.936 153.452 291.936C152.588 291.936 151.886 292.212 151.346 292.764C150.806 293.304 150.536 294.144 150.536 295.284V300H149.348V287.4H150.536V292.404C151.208 291.324 152.216 290.784 153.56 290.784ZM163.543 290.784C164.875 290.784 165.949 291.258 166.765 292.206C167.593 293.142 168.007 294.252 168.007 295.536C168.007 295.668 167.995 295.854 167.971 296.094H160.069C160.189 297.006 160.573 297.732 161.221 298.272C161.881 298.8 162.691 299.064 163.651 299.064C164.335 299.064 164.923 298.926 165.415 298.65C165.919 298.362 166.297 297.99 166.549 297.534L167.593 298.146C167.197 298.782 166.657 299.286 165.973 299.658C165.289 300.03 164.509 300.216 163.633 300.216C162.217 300.216 161.065 299.772 160.177 298.884C159.289 297.996 158.845 296.868 158.845 295.5C158.845 294.156 159.283 293.034 160.159 292.134C161.035 291.234 162.163 290.784 163.543 290.784ZM163.543 291.936C162.607 291.936 161.821 292.218 161.185 292.782C160.561 293.334 160.189 294.054 160.069 294.942H166.783C166.663 293.994 166.297 293.256 165.685 292.728C165.073 292.2 164.359 291.936 163.543 291.936ZM182.137 291H183.325V300H182.137V298.236C181.309 299.556 180.097 300.216 178.501 300.216C177.217 300.216 176.119 299.76 175.207 298.848C174.307 297.936 173.857 296.82 173.857 295.5C173.857 294.18 174.307 293.064 175.207 292.152C176.119 291.24 177.217 290.784 178.501 290.784C180.097 290.784 181.309 291.444 182.137 292.764V291ZM176.071 298.038C176.755 298.722 177.595 299.064 178.591 299.064C179.587 299.064 180.427 298.722 181.111 298.038C181.795 297.342 182.137 296.496 182.137 295.5C182.137 294.504 181.795 293.664 181.111 292.98C180.427 292.284 179.587 291.936 178.591 291.936C177.595 291.936 176.755 292.284 176.071 292.98C175.387 293.664 175.045 294.504 175.045 295.5C175.045 296.496 175.387 297.342 176.071 298.038ZM193.58 291H194.768V299.64C194.768 300.936 194.324 301.956 193.436 302.7C192.548 303.444 191.486 303.816 190.25 303.816C188.138 303.816 186.716 303.084 185.984 301.62L187.028 301.026C187.568 302.118 188.642 302.664 190.25 302.664C191.282 302.664 192.092 302.388 192.68 301.836C193.28 301.296 193.58 300.564 193.58 299.64V298.236C192.752 299.556 191.54 300.216 189.944 300.216C188.66 300.216 187.562 299.76 186.65 298.848C185.75 297.936 185.3 296.82 185.3 295.5C185.3 294.18 185.75 293.064 186.65 292.152C187.562 291.24 188.66 290.784 189.944 290.784C191.54 290.784 192.752 291.444 193.58 292.764V291ZM187.514 298.038C188.198 298.722 189.038 299.064 190.034 299.064C191.03 299.064 191.87 298.722 192.554 298.038C193.238 297.342 193.58 296.496 193.58 295.5C193.58 294.504 193.238 293.664 192.554 292.98C191.87 292.284 191.03 291.936 190.034 291.936C189.038 291.936 188.198 292.284 187.514 292.98C186.83 293.664 186.488 294.504 186.488 295.5C186.488 296.496 186.83 297.342 187.514 298.038ZM201.441 290.784C202.773 290.784 203.847 291.258 204.663 292.206C205.491 293.142 205.905 294.252 205.905 295.536C205.905 295.668 205.893 295.854 205.869 296.094H197.967C198.087 297.006 198.471 297.732 199.119 298.272C199.779 298.8 200.589 299.064 201.549 299.064C202.233 299.064 202.821 298.926 203.313 298.65C203.817 298.362 204.195 297.99 204.447 297.534L205.491 298.146C205.095 298.782 204.555 299.286 203.871 299.658C203.187 300.03 202.407 300.216 201.531 300.216C200.115 300.216 198.963 299.772 198.075 298.884C197.187 297.996 196.743 296.868 196.743 295.5C196.743 294.156 197.181 293.034 198.057 292.134C198.933 291.234 200.061 290.784 201.441 290.784ZM201.441 291.936C200.505 291.936 199.719 292.218 199.083 292.782C198.459 293.334 198.087 294.054 197.967 294.942H204.681C204.561 293.994 204.195 293.256 203.583 292.728C202.971 292.2 202.257 291.936 201.441 291.936ZM220.035 291H221.223V299.64C221.223 300.936 220.779 301.956 219.891 302.7C219.003 303.444 217.941 303.816 216.705 303.816C214.593 303.816 213.171 303.084 212.439 301.62L213.483 301.026C214.023 302.118 215.097 302.664 216.705 302.664C217.737 302.664 218.547 302.388 219.135 301.836C219.735 301.296 220.035 300.564 220.035 299.64V298.236C219.207 299.556 217.995 300.216 216.399 300.216C215.115 300.216 214.017 299.76 213.105 298.848C212.205 297.936 211.755 296.82 211.755 295.5C211.755 294.18 212.205 293.064 213.105 292.152C214.017 291.24 215.115 290.784 216.399 290.784C217.995 290.784 219.207 291.444 220.035 292.764V291ZM213.969 298.038C214.653 298.722 215.493 299.064 216.489 299.064C217.485 299.064 218.325 298.722 219.009 298.038C219.693 297.342 220.035 296.496 220.035 295.5C220.035 294.504 219.693 293.664 219.009 292.98C218.325 292.284 217.485 291.936 216.489 291.936C215.493 291.936 214.653 292.284 213.969 292.98C213.285 293.664 212.943 294.504 212.943 295.5C212.943 296.496 213.285 297.342 213.969 298.038ZM231.479 291H232.667V300H231.479V298.236C230.651 299.556 229.439 300.216 227.843 300.216C226.559 300.216 225.461 299.76 224.549 298.848C223.649 297.936 223.199 296.82 223.199 295.5C223.199 294.18 223.649 293.064 224.549 292.152C225.461 291.24 226.559 290.784 227.843 290.784C229.439 290.784 230.651 291.444 231.479 292.764V291ZM225.413 298.038C226.097 298.722 226.937 299.064 227.933 299.064C228.929 299.064 229.769 298.722 230.453 298.038C231.137 297.342 231.479 296.496 231.479 295.5C231.479 294.504 231.137 293.664 230.453 292.98C229.769 292.284 228.929 291.936 227.933 291.936C226.937 291.936 226.097 292.284 225.413 292.98C224.729 293.664 224.387 294.504 224.387 295.5C224.387 296.496 224.729 297.342 225.413 298.038ZM240.006 290.784C241.29 290.784 242.382 291.24 243.282 292.152C244.194 293.064 244.65 294.18 244.65 295.5C244.65 296.82 244.194 297.936 243.282 298.848C242.382 299.76 241.29 300.216 240.006 300.216C238.41 300.216 237.198 299.556 236.37 298.236V303.6H235.182V291H236.37V292.764C237.198 291.444 238.41 290.784 240.006 290.784ZM237.396 298.038C238.08 298.722 238.92 299.064 239.916 299.064C240.912 299.064 241.752 298.722 242.436 298.038C243.12 297.342 243.462 296.496 243.462 295.5C243.462 294.504 243.12 293.664 242.436 292.98C241.752 292.284 240.912 291.936 239.916 291.936C238.92 291.936 238.08 292.284 237.396 292.98C236.712 293.664 236.37 294.504 236.37 295.5C236.37 296.496 236.712 297.342 237.396 298.038ZM247.88 296.58C247.88 295.992 248 295.458 248.24 294.978C248.48 294.486 248.768 294.072 249.104 293.736C249.44 293.4 249.776 293.076 250.112 292.764C250.448 292.452 250.736 292.11 250.976 291.738C251.216 291.354 251.336 290.946 251.336 290.514C251.336 289.818 251.096 289.296 250.616 288.948C250.148 288.588 249.542 288.408 248.798 288.408C247.322 288.408 246.41 289.014 246.062 290.226L245 289.632C245.276 288.828 245.756 288.222 246.44 287.814C247.136 287.394 247.922 287.184 248.798 287.184C249.854 287.184 250.748 287.478 251.48 288.066C252.224 288.642 252.596 289.458 252.596 290.514C252.596 291.03 252.476 291.51 252.236 291.954C251.996 292.398 251.708 292.788 251.372 293.124C251.036 293.448 250.7 293.772 250.364 294.096C250.028 294.42 249.74 294.798 249.5 295.23C249.26 295.65 249.14 296.1 249.14 296.58H247.88ZM249.212 299.892C249.02 300.084 248.786 300.18 248.51 300.18C248.234 300.18 248 300.084 247.808 299.892C247.616 299.7 247.52 299.466 247.52 299.19C247.52 298.914 247.616 298.68 247.808 298.488C248 298.296 248.234 298.2 248.51 298.2C248.786 298.2 249.02 298.296 249.212 298.488C249.404 298.68 249.5 298.914 249.5 299.19C249.5 299.466 249.404 299.7 249.212 299.892ZM262.374 300L258.72 287.4H260.052L263.166 298.29L266.442 287.4H267.918L271.194 298.29L274.308 287.4H275.64L271.986 300H270.474L267.18 289.056L263.886 300H262.374ZM281.3 290.784C282.392 290.784 283.25 291.12 283.874 291.792C284.51 292.452 284.828 293.346 284.828 294.474V300H283.64V294.474C283.64 293.67 283.424 293.046 282.992 292.602C282.572 292.158 281.972 291.936 281.192 291.936C280.328 291.936 279.626 292.212 279.086 292.764C278.546 293.304 278.276 294.144 278.276 295.284V300H277.088V287.4H278.276V292.404C278.948 291.324 279.956 290.784 281.3 290.784ZM291.283 290.784C292.615 290.784 293.689 291.258 294.505 292.206C295.333 293.142 295.747 294.252 295.747 295.536C295.747 295.668 295.735 295.854 295.711 296.094H287.809C287.929 297.006 288.313 297.732 288.961 298.272C289.621 298.8 290.431 299.064 291.391 299.064C292.075 299.064 292.663 298.926 293.155 298.65C293.659 298.362 294.037 297.99 294.289 297.534L295.333 298.146C294.937 298.782 294.397 299.286 293.713 299.658C293.029 300.03 292.249 300.216 291.373 300.216C289.957 300.216 288.805 299.772 287.917 298.884C287.029 297.996 286.585 296.868 286.585 295.5C286.585 294.156 287.023 293.034 287.899 292.134C288.775 291.234 289.903 290.784 291.283 290.784ZM291.283 291.936C290.347 291.936 289.561 292.218 288.925 292.782C288.301 293.334 287.929 294.054 287.809 294.942H294.523C294.403 293.994 294.037 293.256 293.425 292.728C292.813 292.2 292.099 291.936 291.283 291.936ZM301.849 290.784C302.941 290.784 303.799 291.12 304.423 291.792C305.059 292.452 305.377 293.346 305.377 294.474V300H304.189V294.474C304.189 293.67 303.973 293.046 303.541 292.602C303.121 292.158 302.521 291.936 301.741 291.936C300.877 291.936 300.175 292.212 299.635 292.764C299.095 293.304 298.825 294.144 298.825 295.284V300H297.637V291H298.825V292.404C299.497 291.324 300.505 290.784 301.849 290.784ZM309.473 296.58C309.473 295.992 309.593 295.458 309.833 294.978C310.073 294.486 310.361 294.072 310.697 293.736C311.033 293.4 311.369 293.076 311.705 292.764C312.041 292.452 312.329 292.11 312.569 291.738C312.809 291.354 312.929 290.946 312.929 290.514C312.929 289.818 312.689 289.296 312.209 288.948C311.741 288.588 311.135 288.408 310.391 288.408C308.915 288.408 308.003 289.014 307.655 290.226L306.593 289.632C306.869 288.828 307.349 288.222 308.033 287.814C308.729 287.394 309.515 287.184 310.391 287.184C311.447 287.184 312.341 287.478 313.073 288.066C313.817 288.642 314.189 289.458 314.189 290.514C314.189 291.03 314.069 291.51 313.829 291.954C313.589 292.398 313.301 292.788 312.965 293.124C312.629 293.448 312.293 293.772 311.957 294.096C311.621 294.42 311.333 294.798 311.093 295.23C310.853 295.65 310.733 296.1 310.733 296.58H309.473ZM310.805 299.892C310.613 300.084 310.379 300.18 310.103 300.18C309.827 300.18 309.593 300.084 309.401 299.892C309.209 299.7 309.113 299.466 309.113 299.19C309.113 298.914 309.209 298.68 309.401 298.488C309.593 298.296 309.827 298.2 310.103 298.2C310.379 298.2 310.613 298.296 310.805 298.488C310.997 298.68 311.093 298.914 311.093 299.19C311.093 299.466 310.997 299.7 310.805 299.892Z" fill="#FFC2D7"></path></svg> 