<?xml version="1.0" encoding="UTF-8"?> <svg xmlns="http://www.w3.org/2000/svg" width="400" height="600" viewBox="0 0 400 600" fill="none"><rect width="400" height="600" rx="20" fill="#7F3CC9"></rect><path d="M49.504 488.4V490.776H46.102V501H43.618V490.776H40.234V488.4H49.504ZM56.8159 499.884C55.8919 500.796 54.7639 501.252 53.4319 501.252C52.0999 501.252 50.9719 500.796 50.0479 499.884C49.1359 498.96 48.6799 497.832 48.6799 496.5C48.6799 495.168 49.1359 494.046 50.0479 493.134C50.9719 492.21 52.0999 491.748 53.4319 491.748C54.7639 491.748 55.8919 492.21 56.8159 493.134C57.7399 494.046 58.2019 495.168 58.2019 496.5C58.2019 497.832 57.7399 498.96 56.8159 499.884ZM51.6859 498.282C52.1539 498.75 52.7359 498.984 53.4319 498.984C54.1279 498.984 54.7099 498.75 55.1779 498.282C55.6459 497.814 55.8799 497.22 55.8799 496.5C55.8799 495.78 55.6459 495.186 55.1779 494.718C54.7099 494.25 54.1279 494.016 53.4319 494.016C52.7359 494.016 52.1539 494.25 51.6859 494.718C51.2299 495.186 51.0019 495.78 51.0019 496.5C51.0019 497.22 51.2299 497.814 51.6859 498.282ZM66.6574 493.548C66.8734 492.972 67.2274 492.54 67.7194 492.252C68.2234 491.964 68.7814 491.82 69.3934 491.82V494.412C68.6854 494.328 68.0494 494.472 67.4854 494.844C66.9334 495.216 66.6574 495.834 66.6574 496.698V501H64.3354V492H66.6574V493.548ZM78.0855 499.884C77.1615 500.796 76.0335 501.252 74.7015 501.252C73.3695 501.252 72.2415 500.796 71.3175 499.884C70.4055 498.96 69.9495 497.832 69.9495 496.5C69.9495 495.168 70.4055 494.046 71.3175 493.134C72.2415 492.21 73.3695 491.748 74.7015 491.748C76.0335 491.748 77.1615 492.21 78.0855 493.134C79.0095 494.046 79.4715 495.168 79.4715 496.5C79.4715 497.832 79.0095 498.96 78.0855 499.884ZM72.9555 498.282C73.4235 498.75 74.0055 498.984 74.7015 498.984C75.3975 498.984 75.9795 498.75 76.4475 498.282C76.9155 497.814 77.1495 497.22 77.1495 496.5C77.1495 495.78 76.9155 495.186 76.4475 494.718C75.9795 494.25 75.3975 494.016 74.7015 494.016C74.0055 494.016 73.4235 494.25 72.9555 494.718C72.4995 495.186 72.2715 495.78 72.2715 496.5C72.2715 497.22 72.4995 497.814 72.9555 498.282ZM87.945 492H90.267V501H87.945V499.938C87.249 500.814 86.271 501.252 85.011 501.252C83.811 501.252 82.779 500.796 81.915 499.884C81.063 498.96 80.637 497.832 80.637 496.5C80.637 495.168 81.063 494.046 81.915 493.134C82.779 492.21 83.811 491.748 85.011 491.748C86.271 491.748 87.249 492.186 87.945 493.062V492ZM83.661 498.336C84.129 498.804 84.723 499.038 85.443 499.038C86.163 499.038 86.757 498.804 87.225 498.336C87.705 497.856 87.945 497.244 87.945 496.5C87.945 495.756 87.705 495.15 87.225 494.682C86.757 494.202 86.163 493.962 85.443 493.962C84.723 493.962 84.129 494.202 83.661 494.682C83.193 495.15 82.959 495.756 82.959 496.5C82.959 497.244 83.193 497.856 83.661 498.336ZM94.4442 494.556C94.4442 494.796 94.6002 494.994 94.9122 495.15C95.2362 495.294 95.6262 495.426 96.0822 495.546C96.5382 495.654 96.9942 495.798 97.4502 495.978C97.9062 496.146 98.2902 496.434 98.6022 496.842C98.9262 497.25 99.0882 497.76 99.0882 498.372C99.0882 499.296 98.7402 500.01 98.0442 500.514C97.3602 501.006 96.5022 501.252 95.4702 501.252C93.6222 501.252 92.3622 500.538 91.6902 499.11L93.7062 497.976C93.9702 498.756 94.5582 499.146 95.4702 499.146C96.2982 499.146 96.7122 498.888 96.7122 498.372C96.7122 498.132 96.5502 497.94 96.2262 497.796C95.9142 497.64 95.5302 497.502 95.0742 497.382C94.6182 497.262 94.1622 497.112 93.7062 496.932C93.2502 496.752 92.8602 496.47 92.5362 496.086C92.2242 495.69 92.0682 495.198 92.0682 494.61C92.0682 493.722 92.3922 493.026 93.0402 492.522C93.7002 492.006 94.5162 491.748 95.4882 491.748C96.2202 491.748 96.8862 491.916 97.4862 492.252C98.0862 492.576 98.5602 493.044 98.9082 493.656L96.9282 494.736C96.6402 494.124 96.1602 493.818 95.4882 493.818C95.1882 493.818 94.9362 493.884 94.7322 494.016C94.5402 494.148 94.4442 494.328 94.4442 494.556ZM105.466 494.232H103.432V497.976C103.432 498.288 103.51 498.516 103.666 498.66C103.822 498.804 104.05 498.888 104.35 498.912C104.65 498.924 105.022 498.918 105.466 498.894V501C103.87 501.18 102.742 501.03 102.082 500.55C101.434 500.07 101.11 499.212 101.11 497.976V494.232H99.5439V492H101.11V490.182L103.432 489.48V492H105.466V494.232ZM116.892 494.232H114.858V497.976C114.858 498.288 114.936 498.516 115.092 498.66C115.248 498.804 115.476 498.888 115.776 498.912C116.076 498.924 116.448 498.918 116.892 498.894V501C115.296 501.18 114.168 501.03 113.508 500.55C112.86 500.07 112.536 499.212 112.536 497.976V494.232H110.97V492H112.536V490.182L114.858 489.48V492H116.892V494.232ZM123.533 491.748C124.517 491.748 125.327 492.078 125.963 492.738C126.611 493.398 126.935 494.31 126.935 495.474V501H124.613V495.762C124.613 495.162 124.451 494.706 124.127 494.394C123.803 494.07 123.371 493.908 122.831 493.908C122.231 493.908 121.751 494.094 121.391 494.466C121.031 494.838 120.851 495.396 120.851 496.14V501H118.529V488.4H120.851V493.008C121.415 492.168 122.309 491.748 123.533 491.748ZM130.879 497.454C131.191 498.582 132.037 499.146 133.417 499.146C134.305 499.146 134.977 498.846 135.433 498.246L137.305 499.326C136.417 500.61 135.109 501.252 133.381 501.252C131.893 501.252 130.699 500.802 129.799 499.902C128.899 499.002 128.449 497.868 128.449 496.5C128.449 495.144 128.893 494.016 129.781 493.116C130.669 492.204 131.809 491.748 133.201 491.748C134.521 491.748 135.607 492.204 136.459 493.116C137.323 494.028 137.755 495.156 137.755 496.5C137.755 496.8 137.725 497.118 137.665 497.454H130.879ZM130.843 495.654H135.433C135.301 495.042 135.025 494.586 134.605 494.286C134.197 493.986 133.729 493.836 133.201 493.836C132.577 493.836 132.061 493.998 131.653 494.322C131.245 494.634 130.975 495.078 130.843 495.654ZM145.838 497.454C146.15 498.582 146.996 499.146 148.376 499.146C149.264 499.146 149.936 498.846 150.392 498.246L152.264 499.326C151.376 500.61 150.068 501.252 148.34 501.252C146.852 501.252 145.658 500.802 144.758 499.902C143.858 499.002 143.408 497.868 143.408 496.5C143.408 495.144 143.852 494.016 144.74 493.116C145.628 492.204 146.768 491.748 148.16 491.748C149.48 491.748 150.566 492.204 151.418 493.116C152.282 494.028 152.714 495.156 152.714 496.5C152.714 496.8 152.684 497.118 152.624 497.454H145.838ZM145.802 495.654H150.392C150.26 495.042 149.984 494.586 149.564 494.286C149.156 493.986 148.688 493.836 148.16 493.836C147.536 493.836 147.02 493.998 146.612 494.322C146.204 494.634 145.934 495.078 145.802 495.654ZM162.124 501H159.442L157.498 498.264L155.536 501H152.854L156.148 496.41L152.998 492H155.68L157.498 494.538L159.316 492H161.98L158.83 496.392L162.124 501ZM164.612 497.454C164.924 498.582 165.77 499.146 167.15 499.146C168.038 499.146 168.71 498.846 169.166 498.246L171.038 499.326C170.15 500.61 168.842 501.252 167.114 501.252C165.626 501.252 164.432 500.802 163.532 499.902C162.632 499.002 162.182 497.868 162.182 496.5C162.182 495.144 162.626 494.016 163.514 493.116C164.402 492.204 165.542 491.748 166.934 491.748C168.254 491.748 169.34 492.204 170.192 493.116C171.056 494.028 171.488 495.156 171.488 496.5C171.488 496.8 171.458 497.118 171.398 497.454H164.612ZM164.576 495.654H169.166C169.034 495.042 168.758 494.586 168.338 494.286C167.93 493.986 167.462 493.836 166.934 493.836C166.31 493.836 165.794 493.998 165.386 494.322C164.978 494.634 164.708 495.078 164.576 495.654ZM174.899 494.556C174.899 494.796 175.055 494.994 175.367 495.15C175.691 495.294 176.081 495.426 176.537 495.546C176.993 495.654 177.449 495.798 177.905 495.978C178.361 496.146 178.745 496.434 179.057 496.842C179.381 497.25 179.543 497.76 179.543 498.372C179.543 499.296 179.195 500.01 178.499 500.514C177.815 501.006 176.957 501.252 175.925 501.252C174.077 501.252 172.817 500.538 172.145 499.11L174.161 497.976C174.425 498.756 175.013 499.146 175.925 499.146C176.753 499.146 177.167 498.888 177.167 498.372C177.167 498.132 177.005 497.94 176.681 497.796C176.369 497.64 175.985 497.502 175.529 497.382C175.073 497.262 174.617 497.112 174.161 496.932C173.705 496.752 173.315 496.47 172.991 496.086C172.679 495.69 172.523 495.198 172.523 494.61C172.523 493.722 172.847 493.026 173.495 492.522C174.155 492.006 174.971 491.748 175.943 491.748C176.675 491.748 177.341 491.916 177.941 492.252C178.541 492.576 179.015 493.044 179.363 493.656L177.383 494.736C177.095 494.124 176.615 493.818 175.943 493.818C175.643 493.818 175.391 493.884 175.187 494.016C174.995 494.148 174.899 494.328 174.899 494.556ZM186.003 496.014V494.862H195.003V496.014H186.003ZM209.747 499.866C208.835 500.766 207.719 501.216 206.399 501.216C205.079 501.216 203.957 500.766 203.033 499.866C202.121 498.954 201.665 497.832 201.665 496.5C201.665 495.168 202.121 494.052 203.033 493.152C203.957 492.24 205.079 491.784 206.399 491.784C207.719 491.784 208.835 492.24 209.747 493.152C210.671 494.052 211.133 495.168 211.133 496.5C211.133 497.832 210.671 498.954 209.747 499.866ZM203.879 499.038C204.563 499.722 205.403 500.064 206.399 500.064C207.395 500.064 208.235 499.722 208.919 499.038C209.603 498.342 209.945 497.496 209.945 496.5C209.945 495.504 209.603 494.664 208.919 493.98C208.235 493.284 207.395 492.936 206.399 492.936C205.403 492.936 204.563 493.284 203.879 493.98C203.195 494.664 202.853 495.504 202.853 496.5C202.853 497.496 203.195 498.342 203.879 499.038ZM217.117 501.216C215.821 501.216 214.741 500.79 213.877 499.938C213.013 499.074 212.581 497.958 212.581 496.59C212.581 495.054 212.809 493.878 213.265 493.062C213.721 492.234 214.645 491.484 216.037 490.812C216.301 490.68 216.649 490.524 217.081 490.344C217.525 490.164 217.855 490.02 218.071 489.912C218.299 489.804 218.545 489.666 218.809 489.498C219.073 489.318 219.271 489.12 219.403 488.904C219.535 488.688 219.619 488.43 219.655 488.13L220.591 488.67C220.543 488.958 220.447 489.228 220.303 489.48C220.159 489.732 220.009 489.936 219.853 490.092C219.709 490.248 219.475 490.422 219.151 490.614C218.839 490.794 218.593 490.926 218.413 491.01C218.245 491.082 217.945 491.208 217.513 491.388C217.093 491.568 216.811 491.688 216.667 491.748C215.827 492.108 215.209 492.486 214.813 492.882C214.417 493.266 214.135 493.77 213.967 494.394C214.375 493.854 214.891 493.458 215.515 493.206C216.151 492.942 216.769 492.81 217.369 492.81C218.569 492.81 219.559 493.206 220.339 493.998C221.131 494.778 221.527 495.78 221.527 497.004C221.527 498.216 221.107 499.224 220.267 500.028C219.439 500.82 218.389 501.216 217.117 501.216ZM217.117 500.028C218.053 500.028 218.821 499.746 219.421 499.182C220.033 498.606 220.339 497.88 220.339 497.004C220.339 496.116 220.051 495.39 219.475 494.826C218.911 494.25 218.155 493.962 217.207 493.962C216.355 493.962 215.581 494.232 214.885 494.772C214.189 495.3 213.841 496.008 213.841 496.896C213.841 497.808 214.153 498.558 214.777 499.146C215.413 499.734 216.193 500.028 217.117 500.028ZM227.528 501.216C226.172 501.216 225.044 500.766 224.144 499.866C223.244 498.954 222.794 497.832 222.794 496.5C222.794 495.168 223.244 494.052 224.144 493.152C225.044 492.24 226.172 491.784 227.528 491.784C228.416 491.784 229.214 492 229.922 492.432C230.63 492.852 231.146 493.422 231.47 494.142L230.498 494.7C230.258 494.16 229.868 493.734 229.328 493.422C228.8 493.098 228.2 492.936 227.528 492.936C226.532 492.936 225.692 493.284 225.008 493.98C224.324 494.664 223.982 495.504 223.982 496.5C223.982 497.496 224.324 498.342 225.008 499.038C225.692 499.722 226.532 500.064 227.528 500.064C228.2 500.064 228.8 499.908 229.328 499.596C229.856 499.272 230.27 498.84 230.57 498.3L231.56 498.876C231.188 499.596 230.642 500.166 229.922 500.586C229.202 501.006 228.404 501.216 227.528 501.216ZM239.394 492H240.654L236.802 501.828C236.454 502.716 235.956 503.412 235.308 503.916C234.672 504.432 233.958 504.66 233.166 504.6V503.484C234.246 503.604 235.068 502.98 235.632 501.612L235.866 501.054L231.834 492H233.094L236.478 499.542L239.394 492ZM252.426 501H250.986L247.314 496.662V501H246.126V496.662L242.454 501H241.014L245.046 496.32L241.194 492H242.634L246.126 495.996V492H247.314V495.996L250.806 492H252.246L248.394 496.32L252.426 501ZM261.603 499.848H262.863V503.412H261.675V501H254.331V503.412H253.143V499.848H254.241C254.853 499.044 255.159 497.91 255.159 496.446V492H261.603V499.848ZM255.681 499.848H260.415V493.152H256.347V496.446C256.347 497.826 256.125 498.96 255.681 499.848ZM272.049 492H273.237V501H272.049V499.236C271.221 500.556 270.009 501.216 268.413 501.216C267.129 501.216 266.031 500.76 265.119 499.848C264.219 498.936 263.769 497.82 263.769 496.5C263.769 495.18 264.219 494.064 265.119 493.152C266.031 492.24 267.129 491.784 268.413 491.784C270.009 491.784 271.221 492.444 272.049 493.764V492ZM265.983 499.038C266.667 499.722 267.507 500.064 268.503 500.064C269.499 500.064 270.339 499.722 271.023 499.038C271.707 498.342 272.049 497.496 272.049 496.5C272.049 495.504 271.707 494.664 271.023 493.98C270.339 493.284 269.499 492.936 268.503 492.936C267.507 492.936 266.667 493.284 265.983 493.98C265.299 494.664 264.957 495.504 264.957 496.5C264.957 497.496 265.299 498.342 265.983 499.038ZM282.232 492V493.152H279.046V501H277.858V493.152H274.672V492H282.232ZM287.334 495.42C288.174 495.42 288.882 495.684 289.458 496.212C290.046 496.728 290.34 497.394 290.34 498.21C290.34 499.026 290.046 499.698 289.458 500.226C288.882 500.742 288.174 501 287.334 501H283.68V492H284.868V495.42H287.334ZM287.334 499.848C287.838 499.848 288.264 499.698 288.612 499.398C288.972 499.098 289.152 498.702 289.152 498.21C289.152 497.718 288.972 497.322 288.612 497.022C288.264 496.722 287.838 496.572 287.334 496.572H284.868V499.848H287.334ZM45.256 524.216C43.96 524.216 42.88 523.79 42.016 522.938C41.152 522.074 40.72 520.958 40.72 519.59C40.72 518.054 40.948 516.878 41.404 516.062C41.86 515.234 42.784 514.484 44.176 513.812C44.44 513.68 44.788 513.524 45.22 513.344C45.664 513.164 45.994 513.02 46.21 512.912C46.438 512.804 46.684 512.666 46.948 512.498C47.212 512.318 47.41 512.12 47.542 511.904C47.674 511.688 47.758 511.43 47.794 511.13L48.73 511.67C48.682 511.958 48.586 512.228 48.442 512.48C48.298 512.732 48.148 512.936 47.992 513.092C47.848 513.248 47.614 513.422 47.29 513.614C46.978 513.794 46.732 513.926 46.552 514.01C46.384 514.082 46.084 514.208 45.652 514.388C45.232 514.568 44.95 514.688 44.806 514.748C43.966 515.108 43.348 515.486 42.952 515.882C42.556 516.266 42.274 516.77 42.106 517.394C42.514 516.854 43.03 516.458 43.654 516.206C44.29 515.942 44.908 515.81 45.508 515.81C46.708 515.81 47.698 516.206 48.478 516.998C49.27 517.778 49.666 518.78 49.666 520.004C49.666 521.216 49.246 522.224 48.406 523.028C47.578 523.82 46.528 524.216 45.256 524.216ZM45.256 523.028C46.192 523.028 46.96 522.746 47.56 522.182C48.172 521.606 48.478 520.88 48.478 520.004C48.478 519.116 48.19 518.39 47.614 517.826C47.05 517.25 46.294 516.962 45.346 516.962C44.494 516.962 43.72 517.232 43.024 517.772C42.328 518.3 41.98 519.008 41.98 519.896C41.98 520.808 42.292 521.558 42.916 522.146C43.552 522.734 44.332 523.028 45.256 523.028ZM55.1269 518.42C55.9669 518.42 56.6749 518.684 57.2509 519.212C57.8389 519.728 58.1329 520.394 58.1329 521.21C58.1329 522.026 57.8389 522.698 57.2509 523.226C56.6749 523.742 55.9669 524 55.1269 524H51.4729V515H52.6609V518.42H55.1269ZM59.3929 515H60.5809V524H59.3929V515ZM55.1269 522.848C55.6309 522.848 56.0569 522.698 56.4049 522.398C56.7649 522.098 56.9449 521.702 56.9449 521.21C56.9449 520.718 56.7649 520.322 56.4049 520.022C56.0569 519.722 55.6309 519.572 55.1269 519.572H52.6609V522.848H55.1269ZM68.8336 519.374C69.8176 519.734 70.3096 520.436 70.3096 521.48C70.3096 522.212 70.0636 522.818 69.5716 523.298C69.0916 523.766 68.3956 524 67.4836 524H63.1096V515H67.1236C67.9996 515 68.6776 515.228 69.1576 515.684C69.6376 516.128 69.8776 516.704 69.8776 517.412C69.8776 518.312 69.5296 518.966 68.8336 519.374ZM67.1236 516.152H64.2976V518.888H67.1236C68.1676 518.888 68.6896 518.42 68.6896 517.484C68.6896 517.064 68.5516 516.74 68.2756 516.512C68.0116 516.272 67.6276 516.152 67.1236 516.152ZM67.4836 522.848C68.0116 522.848 68.4136 522.722 68.6896 522.47C68.9776 522.218 69.1216 521.864 69.1216 521.408C69.1216 520.988 68.9776 520.658 68.6896 520.418C68.4136 520.166 68.0116 520.04 67.4836 520.04H64.2976V522.848H67.4836ZM82.9816 515H84.1696V524H72.1096V515H73.2976V522.848H77.5456V515H78.7336V522.848H82.9816V515ZM93.2339 515H94.2419V524H93.0539V517.07L87.6899 524H86.6819V515H87.8699V521.93L93.2339 515ZM104.314 524H102.892L100.084 520.292L97.2761 524H95.8541L99.3821 519.338L96.0881 515H97.5101L100.084 518.402L102.658 515H104.08L100.804 519.338L104.314 524ZM116.154 519.374C117.138 519.734 117.63 520.436 117.63 521.48C117.63 522.212 117.384 522.818 116.892 523.298C116.412 523.766 115.716 524 114.804 524H110.43V515H114.444C115.32 515 115.998 515.228 116.478 515.684C116.958 516.128 117.198 516.704 117.198 517.412C117.198 518.312 116.85 518.966 116.154 519.374ZM114.444 516.152H111.618V518.888H114.444C115.488 518.888 116.01 518.42 116.01 517.484C116.01 517.064 115.872 516.74 115.596 516.512C115.332 516.272 114.948 516.152 114.444 516.152ZM114.804 522.848C115.332 522.848 115.734 522.722 116.01 522.47C116.298 522.218 116.442 521.864 116.442 521.408C116.442 520.988 116.298 520.658 116.01 520.418C115.734 520.166 115.332 520.04 114.804 520.04H111.618V522.848H114.804ZM130.302 515H131.49V524H130.302V520.076H125.118V524H123.93V515H125.118V518.924H130.302V515ZM138.16 514.784C139.492 514.784 140.566 515.258 141.382 516.206C142.21 517.142 142.624 518.252 142.624 519.536C142.624 519.668 142.612 519.854 142.588 520.094H134.686C134.806 521.006 135.19 521.732 135.838 522.272C136.498 522.8 137.308 523.064 138.268 523.064C138.952 523.064 139.54 522.926 140.032 522.65C140.536 522.362 140.914 521.99 141.166 521.534L142.21 522.146C141.814 522.782 141.274 523.286 140.59 523.658C139.906 524.03 139.126 524.216 138.25 524.216C136.834 524.216 135.682 523.772 134.794 522.884C133.906 521.996 133.462 520.868 133.462 519.5C133.462 518.156 133.9 517.034 134.776 516.134C135.652 515.234 136.78 514.784 138.16 514.784ZM138.16 515.936C137.224 515.936 136.438 516.218 135.802 516.782C135.178 517.334 134.806 518.054 134.686 518.942H141.4C141.28 517.994 140.914 517.256 140.302 516.728C139.69 516.2 138.976 515.936 138.16 515.936ZM150.274 515V516.152H145.702V524H144.514V515H150.274ZM159.109 515H160.297V524H159.109V522.236C158.281 523.556 157.069 524.216 155.473 524.216C154.189 524.216 153.091 523.76 152.179 522.848C151.279 521.936 150.829 520.82 150.829 519.5C150.829 518.18 151.279 517.064 152.179 516.152C153.091 515.24 154.189 514.784 155.473 514.784C157.069 514.784 158.281 515.444 159.109 516.764V515ZM153.043 522.038C153.727 522.722 154.567 523.064 155.563 523.064C156.559 523.064 157.399 522.722 158.083 522.038C158.767 521.342 159.109 520.496 159.109 519.5C159.109 518.504 158.767 517.664 158.083 516.98C157.399 516.284 156.559 515.936 155.563 515.936C154.567 515.936 153.727 516.284 153.043 516.98C152.359 517.664 152.017 518.504 152.017 519.5C152.017 520.496 152.359 521.342 153.043 522.038ZM169.293 515V516.152H166.107V524H164.919V516.152H161.733V515H169.293ZM177.292 515H178.3V524H177.112V517.07L171.748 524H170.74V515H171.928V521.93L177.292 515ZM186.537 519.374C187.521 519.734 188.013 520.436 188.013 521.48C188.013 522.212 187.767 522.818 187.275 523.298C186.795 523.766 186.099 524 185.187 524H180.813V515H184.827C185.703 515 186.381 515.228 186.861 515.684C187.341 516.128 187.581 516.704 187.581 517.412C187.581 518.312 187.233 518.966 186.537 519.374ZM184.827 516.152H182.001V518.888H184.827C185.871 518.888 186.393 518.42 186.393 517.484C186.393 517.064 186.255 516.74 185.979 516.512C185.715 516.272 185.331 516.152 184.827 516.152ZM185.187 522.848C185.715 522.848 186.117 522.722 186.393 522.47C186.681 522.218 186.825 521.864 186.825 521.408C186.825 520.988 186.681 520.658 186.393 520.418C186.117 520.166 185.715 520.04 185.187 520.04H182.001V522.848H185.187ZM196.185 515H197.373V524H196.185V520.076H191.001V524H189.813V515H191.001V518.924H196.185V515ZM207.427 522.866C206.515 523.766 205.399 524.216 204.079 524.216C202.759 524.216 201.637 523.766 200.713 522.866C199.801 521.954 199.345 520.832 199.345 519.5C199.345 518.168 199.801 517.052 200.713 516.152C201.637 515.24 202.759 514.784 204.079 514.784C205.399 514.784 206.515 515.24 207.427 516.152C208.351 517.052 208.813 518.168 208.813 519.5C208.813 520.832 208.351 521.954 207.427 522.866ZM201.559 522.038C202.243 522.722 203.083 523.064 204.079 523.064C205.075 523.064 205.915 522.722 206.599 522.038C207.283 521.342 207.625 520.496 207.625 519.5C207.625 518.504 207.283 517.664 206.599 516.98C205.915 516.284 205.075 515.936 204.079 515.936C203.083 515.936 202.243 516.284 201.559 516.98C200.875 517.664 200.533 518.504 200.533 519.5C200.533 520.496 200.875 521.342 201.559 522.038ZM219.621 515V524H218.433V516.818L215.283 521.93H215.139L211.989 516.818V524H210.801V515H212.169L215.211 519.932L218.253 515H219.621ZM233.911 524H232.327L227.827 519.662V524H226.639V515H227.827V518.978L232.111 515H233.731L229.087 519.32L233.911 524ZM242.913 515V524H241.725V516.152H237.657V520.166C237.657 521.666 237.369 522.698 236.793 523.262C236.229 523.826 235.449 524.072 234.453 524V522.884C235.137 522.956 235.641 522.794 235.965 522.398C236.301 522.002 236.469 521.258 236.469 520.166V515H242.913ZM253.116 514.784C254.436 514.784 255.552 515.24 256.464 516.152C257.388 517.052 257.85 518.168 257.85 519.5C257.85 520.832 257.388 521.954 256.464 522.866C255.552 523.766 254.436 524.216 253.116 524.216C251.904 524.216 250.86 523.826 249.984 523.046C249.12 522.254 248.622 521.264 248.49 520.076H246.618V524H245.43V515H246.618V518.924H248.49C248.622 517.736 249.12 516.752 249.984 515.972C250.86 515.18 251.904 514.784 253.116 514.784ZM250.596 522.038C251.28 522.722 252.12 523.064 253.116 523.064C254.112 523.064 254.952 522.722 255.636 522.038C256.32 521.342 256.662 520.496 256.662 519.5C256.662 518.504 256.32 517.664 255.636 516.98C254.952 516.284 254.112 515.936 253.116 515.936C252.12 515.936 251.28 516.284 250.596 516.98C249.912 517.664 249.57 518.504 249.57 519.5C249.57 520.496 249.912 521.342 250.596 522.038ZM265.483 515H266.671V524H265.483V520.58C264.787 520.94 263.929 521.12 262.909 521.12C261.733 521.12 260.833 520.85 260.209 520.31C259.597 519.758 259.291 518.948 259.291 517.88V515H260.479V517.88C260.479 518.636 260.677 519.182 261.073 519.518C261.469 519.842 262.069 520.004 262.873 520.004C263.809 520.004 264.679 519.83 265.483 519.482V515ZM273.354 514.784C274.686 514.784 275.76 515.258 276.576 516.206C277.404 517.142 277.818 518.252 277.818 519.536C277.818 519.668 277.806 519.854 277.782 520.094H269.88C270 521.006 270.384 521.732 271.032 522.272C271.692 522.8 272.502 523.064 273.462 523.064C274.146 523.064 274.734 522.926 275.226 522.65C275.73 522.362 276.108 521.99 276.36 521.534L277.404 522.146C277.008 522.782 276.468 523.286 275.784 523.658C275.1 524.03 274.32 524.216 273.444 524.216C272.028 524.216 270.876 523.772 269.988 522.884C269.1 521.996 268.656 520.868 268.656 519.5C268.656 518.156 269.094 517.034 269.97 516.134C270.846 515.234 271.974 514.784 273.354 514.784ZM273.354 515.936C272.418 515.936 271.632 516.218 270.996 516.782C270.372 517.334 270 518.054 269.88 518.942H276.594C276.474 517.994 276.108 517.256 275.496 516.728C274.884 516.2 274.17 515.936 273.354 515.936ZM280.967 522.47L279.887 526.52H278.807L279.527 522.47H280.967ZM41.08 538.45L42.16 534.4H43.24L42.52 538.45H41.08ZM43.6 538.45L44.68 534.4H45.76L45.04 538.45H43.6ZM55.6579 538V547H54.4699V539.152H49.2859V547H48.0979V538H55.6579ZM62.9942 537.784C64.2782 537.784 65.3702 538.24 66.2702 539.152C67.1822 540.064 67.6382 541.18 67.6382 542.5C67.6382 543.82 67.1822 544.936 66.2702 545.848C65.3702 546.76 64.2782 547.216 62.9942 547.216C61.3982 547.216 60.1862 546.556 59.3582 545.236V550.6H58.1702V538H59.3582V539.764C60.1862 538.444 61.3982 537.784 62.9942 537.784ZM60.3842 545.038C61.0682 545.722 61.9082 546.064 62.9042 546.064C63.9002 546.064 64.7402 545.722 65.4242 545.038C66.1082 544.342 66.4502 543.496 66.4502 542.5C66.4502 541.504 66.1082 540.664 65.4242 539.98C64.7402 539.284 63.9002 538.936 62.9042 538.936C61.9082 538.936 61.0682 539.284 60.3842 539.98C59.7002 540.664 59.3582 541.504 59.3582 542.5C59.3582 543.496 59.7002 544.342 60.3842 545.038ZM77.1555 545.866C76.2435 546.766 75.1275 547.216 73.8075 547.216C72.4875 547.216 71.3655 546.766 70.4415 545.866C69.5295 544.954 69.0735 543.832 69.0735 542.5C69.0735 541.168 69.5295 540.052 70.4415 539.152C71.3655 538.24 72.4875 537.784 73.8075 537.784C75.1275 537.784 76.2435 538.24 77.1555 539.152C78.0795 540.052 78.5415 541.168 78.5415 542.5C78.5415 543.832 78.0795 544.954 77.1555 545.866ZM71.2875 545.038C71.9715 545.722 72.8115 546.064 73.8075 546.064C74.8035 546.064 75.6435 545.722 76.3275 545.038C77.0115 544.342 77.3535 543.496 77.3535 542.5C77.3535 541.504 77.0115 540.664 76.3275 539.98C75.6435 539.284 74.8035 538.936 73.8075 538.936C72.8115 538.936 71.9715 539.284 71.2875 539.98C70.6035 540.664 70.2615 541.504 70.2615 542.5C70.2615 543.496 70.6035 544.342 71.2875 545.038ZM90.3208 547H88.8808L85.2088 542.662V547H84.0208V542.662L80.3488 547H78.9088L82.9408 542.32L79.0888 538H80.5288L84.0208 541.996V538H85.2088V541.996L88.7008 538H90.1408L86.2888 542.32L90.3208 547ZM98.957 538H100.145V547H98.957V545.236C98.129 546.556 96.917 547.216 95.321 547.216C94.037 547.216 92.939 546.76 92.027 545.848C91.127 544.936 90.677 543.82 90.677 542.5C90.677 541.18 91.127 540.064 92.027 539.152C92.939 538.24 94.037 537.784 95.321 537.784C96.917 537.784 98.129 538.444 98.957 539.764V538ZM92.891 545.038C93.575 545.722 94.415 546.064 95.411 546.064C96.407 546.064 97.247 545.722 97.931 545.038C98.615 544.342 98.957 543.496 98.957 542.5C98.957 541.504 98.615 540.664 97.931 539.98C97.247 539.284 96.407 538.936 95.411 538.936C94.415 538.936 93.575 539.284 92.891 539.98C92.207 540.664 91.865 541.504 91.865 542.5C91.865 543.496 92.207 544.342 92.891 545.038ZM107.484 537.784C108.768 537.784 109.86 538.24 110.76 539.152C111.672 540.064 112.128 541.18 112.128 542.5C112.128 543.82 111.672 544.936 110.76 545.848C109.86 546.76 108.768 547.216 107.484 547.216C105.888 547.216 104.676 546.556 103.848 545.236V550.6H102.66V538H103.848V539.764C104.676 538.444 105.888 537.784 107.484 537.784ZM104.874 545.038C105.558 545.722 106.398 546.064 107.394 546.064C108.39 546.064 109.23 545.722 109.914 545.038C110.598 544.342 110.94 543.496 110.94 542.5C110.94 541.504 110.598 540.664 109.914 539.98C109.23 539.284 108.39 538.936 107.394 538.936C106.398 538.936 105.558 539.284 104.874 539.98C104.19 540.664 103.848 541.504 103.848 542.5C103.848 543.496 104.19 544.342 104.874 545.038ZM120.656 538H121.664V547H120.476V540.07L115.112 547H114.104V538H115.292V544.93L120.656 538ZM129.9 542.374C130.884 542.734 131.376 543.436 131.376 544.48C131.376 545.212 131.13 545.818 130.638 546.298C130.158 546.766 129.462 547 128.55 547H124.176V538H128.19C129.066 538 129.744 538.228 130.224 538.684C130.704 539.128 130.944 539.704 130.944 540.412C130.944 541.312 130.596 541.966 129.9 542.374ZM128.19 539.152H125.364V541.888H128.19C129.234 541.888 129.756 541.42 129.756 540.484C129.756 540.064 129.618 539.74 129.342 539.512C129.078 539.272 128.694 539.152 128.19 539.152ZM128.55 545.848C129.078 545.848 129.48 545.722 129.756 545.47C130.044 545.218 130.188 544.864 130.188 544.408C130.188 543.988 130.044 543.658 129.756 543.418C129.48 543.166 129.078 543.04 128.55 543.04H125.364V545.848H128.55ZM140.916 538H142.104V547H140.916V545.236C140.088 546.556 138.876 547.216 137.28 547.216C135.996 547.216 134.898 546.76 133.986 545.848C133.086 544.936 132.636 543.82 132.636 542.5C132.636 541.18 133.086 540.064 133.986 539.152C134.898 538.24 135.996 537.784 137.28 537.784C138.876 537.784 140.088 538.444 140.916 539.764V538ZM134.85 545.038C135.534 545.722 136.374 546.064 137.37 546.064C138.366 546.064 139.206 545.722 139.89 545.038C140.574 544.342 140.916 543.496 140.916 542.5C140.916 541.504 140.574 540.664 139.89 539.98C139.206 539.284 138.366 538.936 137.37 538.936C136.374 538.936 135.534 539.284 134.85 539.98C134.166 540.664 133.824 541.504 133.824 542.5C133.824 543.496 134.166 544.342 134.85 545.038ZM151.099 538V539.152H147.913V547H146.725V539.152H143.539V538H151.099ZM156.201 541.42C157.041 541.42 157.749 541.684 158.325 542.212C158.913 542.728 159.207 543.394 159.207 544.21C159.207 545.026 158.913 545.698 158.325 546.226C157.749 546.742 157.041 547 156.201 547H152.547V538H153.735V541.42H156.201ZM156.201 545.848C156.705 545.848 157.131 545.698 157.479 545.398C157.839 545.098 158.019 544.702 158.019 544.21C158.019 543.718 157.839 543.322 157.479 543.022C157.131 542.722 156.705 542.572 156.201 542.572H153.735V545.848H156.201ZM162.982 534.4L161.902 538.45H160.822L161.542 534.4H162.982ZM165.502 534.4L164.422 538.45H163.342L164.062 534.4H165.502Z" fill="#E6D0FE" fill-opacity="0.6"></path><path d="M47.296 84.136L60.8 101H65.952V78.6H61.536V95.464L48.032 78.6H42.88V101H47.296V84.136ZM80.4918 97.768C77.4838 97.768 75.1478 96.456 74.5398 94.12H88.2998C88.4918 93.384 88.5878 92.648 88.5878 91.944C88.5878 87.624 84.9398 84.456 80.0758 84.456C74.7318 84.456 70.1878 87.656 70.1878 93C70.1878 97.8 74.1238 101.576 80.0758 101.576C83.0198 101.576 86.0278 100.584 88.1718 99.496L86.9237 96.168C84.6518 97.352 82.6678 97.768 80.4918 97.768ZM79.8198 88.008C82.3158 88.008 83.9158 89.128 84.3318 91.016H74.6358C75.2758 89.064 77.0677 88.008 79.8198 88.008ZM94.39 85H89.75L97.302 101H101.942L109.526 85H104.822L99.638 96.232L94.39 85ZM121.179 97.768C118.171 97.768 115.835 96.456 115.227 94.12H128.987C129.179 93.384 129.275 92.648 129.275 91.944C129.275 87.624 125.627 84.456 120.763 84.456C115.419 84.456 110.875 87.656 110.875 93C110.875 97.8 114.811 101.576 120.763 101.576C123.707 101.576 126.715 100.584 128.859 99.496L127.611 96.168C125.339 97.352 123.355 97.768 121.179 97.768ZM120.507 88.008C123.003 88.008 124.603 89.128 125.019 91.016H115.323C115.963 89.064 117.755 88.008 120.507 88.008ZM142.982 84.456C140.198 84.456 137.99 86.824 137.062 88.552V85H132.838V101H137.062V93.064C137.062 90.12 139.91 88.392 142.566 88.392C143.174 88.392 144.006 88.584 144.774 88.936L145.67 85.096C144.87 84.712 143.878 84.456 142.982 84.456ZM166.436 88.424C168.964 88.424 170.276 89.992 170.276 92.264V101H174.5V91.752C174.5 87.4 172.004 84.52 167.652 84.52C164.612 84.52 162.244 86.472 161.124 88.552V77.288H156.9V101H161.124V93.064C161.124 89.896 163.78 88.424 166.436 88.424ZM184.75 91.88C181.454 91.88 178.19 93.352 178.19 96.776C178.19 99.656 180.43 101.64 183.438 101.64C186.158 101.64 188.59 100.168 190.126 98.344C190.19 100.136 191.086 101.64 193.23 101.64C194.542 101.64 196.462 101 198.222 100.04L197.358 96.776C196.43 97.256 195.598 97.608 195.118 97.608C194.67 97.608 194.35 97.32 194.35 96.84V91.08C194.35 86.696 191.79 84.36 187.406 84.36C184.878 84.36 181.518 85.352 179.534 85.992L180.59 89.832C182.926 88.968 185.358 88.232 187.022 88.232C189.038 88.232 190.126 89.352 190.126 91.016V92.872C188.75 92.392 186.478 91.88 184.75 91.88ZM184.814 98.024C183.47 98.024 182.51 97.48 182.51 96.424C182.51 95.272 183.566 94.6 184.974 94.6C186.51 94.6 188.366 94.76 190.126 95.08V95.688C188.622 97.16 186.414 98.024 184.814 98.024ZM202.859 85H198.219L205.771 101H210.411L217.995 85H213.291L208.107 96.232L202.859 85ZM229.648 97.768C226.64 97.768 224.304 96.456 223.696 94.12H237.456C237.648 93.384 237.744 92.648 237.744 91.944C237.744 87.624 234.096 84.456 229.232 84.456C223.888 84.456 219.344 87.656 219.344 93C219.344 97.8 223.28 101.576 229.232 101.576C232.176 101.576 235.184 100.584 237.328 99.496L236.08 96.168C233.808 97.352 231.824 97.768 229.648 97.768ZM228.976 88.008C231.472 88.008 233.072 89.128 233.488 91.016H223.792C224.432 89.064 226.224 88.008 228.976 88.008ZM255.265 78.6H250.849V101H255.265V78.6ZM278.867 97.768C275.859 97.768 273.523 96.456 272.915 94.12H286.675C286.867 93.384 286.963 92.648 286.963 91.944C286.963 87.624 283.315 84.456 278.451 84.456C273.107 84.456 268.563 87.656 268.563 93C268.563 97.8 272.499 101.576 278.451 101.576C281.395 101.576 284.403 100.584 286.547 99.496L285.299 96.168C283.027 97.352 281.043 97.768 278.867 97.768ZM278.195 88.008C280.691 88.008 282.291 89.128 282.707 91.016H273.011C273.651 89.064 275.443 88.008 278.195 88.008ZM292.765 85H288.125L295.677 101H300.317L307.901 85H303.197L298.013 96.232L292.765 85ZM319.554 97.768C316.546 97.768 314.21 96.456 313.602 94.12H327.362C327.554 93.384 327.65 92.648 327.65 91.944C327.65 87.624 324.002 84.456 319.138 84.456C313.794 84.456 309.25 87.656 309.25 93C309.25 97.8 313.186 101.576 319.138 101.576C322.082 101.576 325.09 100.584 327.234 99.496L325.986 96.168C323.714 97.352 321.73 97.768 319.554 97.768ZM318.882 88.008C321.378 88.008 322.978 89.128 323.394 91.016H313.698C314.338 89.064 316.13 88.008 318.882 88.008ZM341.357 84.456C338.573 84.456 336.365 86.824 335.437 88.552V85H331.213V101H335.437V93.064C335.437 90.12 338.285 88.392 340.941 88.392C341.549 88.392 342.381 88.584 343.149 88.936L344.045 85.096C343.245 84.712 342.253 84.456 341.357 84.456ZM52.544 124.456C49.76 124.456 47.552 126.824 46.624 128.552V125H42.4V141H46.624V133.064C46.624 130.12 49.472 128.392 52.128 128.392C52.736 128.392 53.568 128.584 54.336 128.936L55.232 125.096C54.432 124.712 53.44 124.456 52.544 124.456ZM66.296 124.456C60.952 124.456 56.344 127.496 56.344 132.84C56.344 137.64 60.504 141.576 66.296 141.576C72.088 141.576 76.248 137.64 76.248 132.84C76.248 127.496 71.64 124.456 66.296 124.456ZM66.296 128.136C69.624 128.136 71.992 129.864 71.992 132.84C71.992 135.528 69.464 137.928 66.296 137.928C63.128 137.928 60.6 135.528 60.6 132.84C60.6 129.864 62.968 128.136 66.296 128.136ZM85.5938 131.88C82.2977 131.88 79.0338 133.352 79.0338 136.776C79.0338 139.656 81.2738 141.64 84.2818 141.64C87.0017 141.64 89.4338 140.168 90.9698 138.344C91.0338 140.136 91.9298 141.64 94.0738 141.64C95.3858 141.64 97.3058 141 99.0658 140.04L98.2018 136.776C97.2738 137.256 96.4418 137.608 95.9618 137.608C95.5138 137.608 95.1938 137.32 95.1938 136.84V131.08C95.1938 126.696 92.6338 124.36 88.2498 124.36C85.7218 124.36 82.3618 125.352 80.3778 125.992L81.4338 129.832C83.7698 128.968 86.2018 128.232 87.8658 128.232C89.8818 128.232 90.9698 129.352 90.9698 131.016V132.872C89.5938 132.392 87.3218 131.88 85.5938 131.88ZM85.6578 138.024C84.3138 138.024 83.3538 137.48 83.3538 136.424C83.3538 135.272 84.4098 134.6 85.8177 134.6C87.3538 134.6 89.2098 134.76 90.9698 135.08V135.688C89.4658 137.16 87.2578 138.024 85.6578 138.024ZM115.607 125.576C113.719 124.936 110.743 124.392 108.215 124.392C103.671 124.392 100.439 126.376 100.439 129.512C100.439 135.752 112.343 133.64 112.343 136.168C112.343 137.288 110.743 137.928 108.439 137.928C105.975 137.928 103.479 137.16 101.367 136.232L100.118 139.56C102.295 140.712 105.271 141.64 108.279 141.64C112.183 141.64 116.503 139.624 116.503 136.04C116.503 129.8 104.599 132.008 104.599 129.352C104.599 128.392 106.263 128.072 108.375 128.072C110.423 128.072 112.407 128.488 114.487 129.288L115.607 125.576ZM118.421 128.68H121.461V134.888C121.461 138.92 123.605 141.544 127.573 141.544C129.269 141.544 131.541 140.808 132.885 140.104L131.957 136.488C130.933 137.128 129.525 137.64 128.277 137.64C126.613 137.64 125.685 136.456 125.685 134.728V128.68H132.341V125H125.685V120.2H122.165L121.589 125.128L118.421 125.32V128.68ZM145.336 137.768C142.328 137.768 139.992 136.456 139.384 134.12H153.144C153.336 133.384 153.432 132.648 153.432 131.944C153.432 127.624 149.784 124.456 144.92 124.456C139.576 124.456 135.032 127.656 135.032 133C135.032 137.8 138.968 141.576 144.92 141.576C147.864 141.576 150.872 140.584 153.016 139.496L151.767 136.168C149.496 137.352 147.512 137.768 145.336 137.768ZM144.664 128.008C147.16 128.008 148.76 129.128 149.176 131.016H139.48C140.12 129.064 141.911 128.008 144.664 128.008ZM164.002 141.544C167.266 141.544 169.826 139.656 170.882 137.448V141H175.106V117H170.882V125.576C169.282 125.064 167.074 124.424 165.346 124.424C159.97 124.424 155.938 128.36 155.938 133.16C155.938 138.344 159.618 141.544 164.002 141.544ZM165.25 137.608C162.402 137.608 160.194 136.008 160.194 133.128C160.194 130.312 162.402 128.136 165.282 128.136C167.234 128.136 169.026 128.552 170.882 129.096V132.552C170.882 135.624 168.066 137.608 165.25 137.608ZM199.203 124.52C196.419 124.52 194.243 126.504 193.187 128.392V125H188.963V141H193.187V133.032C193.187 129.96 195.555 128.424 197.763 128.424C200.099 128.424 201.347 129.992 201.347 132.104V141H205.571V133.032C205.571 129.992 207.939 128.424 210.147 128.424C212.483 128.424 213.731 129.992 213.731 132.104V141H217.955V131.592C217.955 127.368 215.747 124.52 211.587 124.52C208.899 124.52 206.339 126.504 205.059 128.424C204.163 126.024 202.211 124.52 199.203 124.52ZM240.028 125H235.388C233.948 128.424 232.188 132.552 230.524 136.424L224.796 125H220.188L228.444 141.224C228.444 141.256 228.38 141.32 228.38 141.384C227.58 143.176 226.684 144.936 224.988 144.936C224.764 144.936 224.124 144.872 223.548 144.776L223.324 148.84C223.868 148.936 224.572 149 224.796 149C229.308 149 230.78 145.736 232.316 142.312L240.028 125ZM260.742 137.768C257.734 137.768 255.398 136.456 254.79 134.12H268.55C268.742 133.384 268.838 132.648 268.838 131.944C268.838 127.624 265.19 124.456 260.326 124.456C254.982 124.456 250.438 127.656 250.438 133C250.438 137.8 254.374 141.576 260.326 141.576C263.27 141.576 266.278 140.584 268.422 139.496L267.174 136.168C264.902 137.352 262.918 137.768 260.742 137.768ZM260.07 128.008C262.566 128.008 264.166 129.128 264.582 131.016H254.886C255.526 129.064 257.318 128.008 260.07 128.008ZM270.096 141H275.472L279.952 135.88L284.624 141H290.096L282.768 132.968L289.968 125H284.592L280.144 130.088L275.536 125H270L277.296 133L270.096 141ZM301.742 137.768C298.734 137.768 296.398 136.456 295.79 134.12H309.55C309.742 133.384 309.838 132.648 309.838 131.944C309.838 127.624 306.19 124.456 301.326 124.456C295.982 124.456 291.438 127.656 291.438 133C291.438 137.8 295.374 141.576 301.326 141.576C304.27 141.576 307.278 140.584 309.422 139.496L308.174 136.168C305.902 137.352 303.918 137.768 301.742 137.768ZM301.07 128.008C303.566 128.008 305.166 129.128 305.582 131.016H295.886C296.526 129.064 298.318 128.008 301.07 128.008ZM327.544 125.576C325.656 124.936 322.68 124.392 320.152 124.392C315.608 124.392 312.376 126.376 312.376 129.512C312.376 135.752 324.28 133.64 324.28 136.168C324.28 137.288 322.68 137.928 320.376 137.928C317.912 137.928 315.416 137.16 313.304 136.232L312.056 139.56C314.232 140.712 317.208 141.64 320.216 141.64C324.12 141.64 328.44 139.624 328.44 136.04C328.44 129.8 316.536 132.008 316.536 129.352C316.536 128.392 318.2 128.072 320.312 128.072C322.36 128.072 324.344 128.488 326.424 129.288L327.544 125.576Z" fill="#E6D0FE"></path></svg> 