<?xml version="1.0" encoding="UTF-8"?> <svg xmlns="http://www.w3.org/2000/svg" width="400" height="600" viewBox="0 0 400 600" fill="none"><rect width="400" height="600" rx="20" fill="#E7497E"></rect><path d="M47.296 84.136V101H42.88V78.6H48.032L61.536 95.464V78.6H65.952V101H60.8L47.296 84.136ZM80.4918 97.768C82.6678 97.768 84.6518 97.352 86.9237 96.168L88.1718 99.496C86.0278 100.584 83.0198 101.576 80.0758 101.576C74.1238 101.576 70.1878 97.8 70.1878 93C70.1878 87.656 74.7318 84.456 80.0758 84.456C84.9398 84.456 88.5878 87.624 88.5878 91.944C88.5878 92.648 88.4918 93.384 88.2998 94.12H74.5398C75.1478 96.456 77.4838 97.768 80.4918 97.768ZM79.8198 88.008C77.0677 88.008 75.2758 89.064 74.6358 91.016H84.3318C83.9158 89.128 82.3158 88.008 79.8198 88.008ZM94.39 85L99.638 96.232L104.822 85H109.526L101.942 101H97.302L89.75 85H94.39ZM121.179 97.768C123.355 97.768 125.339 97.352 127.611 96.168L128.859 99.496C126.715 100.584 123.707 101.576 120.763 101.576C114.811 101.576 110.875 97.8 110.875 93C110.875 87.656 115.419 84.456 120.763 84.456C125.627 84.456 129.275 87.624 129.275 91.944C129.275 92.648 129.179 93.384 128.987 94.12H115.227C115.835 96.456 118.171 97.768 121.179 97.768ZM120.507 88.008C117.755 88.008 115.963 89.064 115.323 91.016H125.019C124.603 89.128 123.003 88.008 120.507 88.008ZM142.982 84.456C143.878 84.456 144.87 84.712 145.67 85.096L144.774 88.936C144.006 88.584 143.174 88.392 142.566 88.392C139.91 88.392 137.062 90.12 137.062 93.064V101H132.838V85H137.062V88.552C137.99 86.824 140.198 84.456 142.982 84.456ZM166.436 88.424C163.78 88.424 161.124 89.896 161.124 93.064V101H156.9V77.288H161.124V88.552C162.244 86.472 164.612 84.52 167.652 84.52C172.004 84.52 174.5 87.4 174.5 91.752V101H170.276V92.264C170.276 89.992 168.964 88.424 166.436 88.424ZM184.75 91.88C186.478 91.88 188.75 92.392 190.126 92.872V91.016C190.126 89.352 189.038 88.232 187.022 88.232C185.358 88.232 182.926 88.968 180.59 89.832L179.534 85.992C181.518 85.352 184.878 84.36 187.406 84.36C191.79 84.36 194.35 86.696 194.35 91.08V96.84C194.35 97.32 194.67 97.608 195.118 97.608C195.598 97.608 196.43 97.256 197.358 96.776L198.222 100.04C196.462 101 194.542 101.64 193.23 101.64C191.086 101.64 190.19 100.136 190.126 98.344C188.59 100.168 186.158 101.64 183.438 101.64C180.43 101.64 178.19 99.656 178.19 96.776C178.19 93.352 181.454 91.88 184.75 91.88ZM184.814 98.024C186.414 98.024 188.622 97.16 190.126 95.688V95.08C188.366 94.76 186.51 94.6 184.974 94.6C183.566 94.6 182.51 95.272 182.51 96.424C182.51 97.48 183.47 98.024 184.814 98.024ZM202.859 85L208.107 96.232L213.291 85H217.995L210.411 101H205.771L198.219 85H202.859ZM229.648 97.768C231.824 97.768 233.808 97.352 236.08 96.168L237.328 99.496C235.184 100.584 232.176 101.576 229.232 101.576C223.28 101.576 219.344 97.8 219.344 93C219.344 87.656 223.888 84.456 229.232 84.456C234.096 84.456 237.744 87.624 237.744 91.944C237.744 92.648 237.648 93.384 237.456 94.12H223.696C224.304 96.456 226.64 97.768 229.648 97.768ZM228.976 88.008C226.224 88.008 224.432 89.064 223.792 91.016H233.488C233.072 89.128 231.472 88.008 228.976 88.008ZM255.265 78.6V101H250.849V78.6H255.265ZM278.867 97.768C281.043 97.768 283.027 97.352 285.299 96.168L286.547 99.496C284.403 100.584 281.395 101.576 278.451 101.576C272.499 101.576 268.563 97.8 268.563 93C268.563 87.656 273.107 84.456 278.451 84.456C283.315 84.456 286.963 87.624 286.963 91.944C286.963 92.648 286.867 93.384 286.675 94.12H272.915C273.523 96.456 275.859 97.768 278.867 97.768ZM278.195 88.008C275.443 88.008 273.651 89.064 273.011 91.016H282.707C282.291 89.128 280.691 88.008 278.195 88.008ZM292.765 85L298.013 96.232L303.197 85H307.901L300.317 101H295.677L288.125 85H292.765ZM319.554 97.768C321.73 97.768 323.714 97.352 325.986 96.168L327.234 99.496C325.09 100.584 322.082 101.576 319.138 101.576C313.186 101.576 309.25 97.8 309.25 93C309.25 87.656 313.794 84.456 319.138 84.456C324.002 84.456 327.65 87.624 327.65 91.944C327.65 92.648 327.554 93.384 327.362 94.12H313.602C314.21 96.456 316.546 97.768 319.554 97.768ZM318.882 88.008C316.13 88.008 314.338 89.064 313.698 91.016H323.394C322.978 89.128 321.378 88.008 318.882 88.008ZM341.357 84.456C342.253 84.456 343.245 84.712 344.045 85.096L343.149 88.936C342.381 88.584 341.549 88.392 340.941 88.392C338.285 88.392 335.437 90.12 335.437 93.064V101H331.213V85H335.437V88.552C336.365 86.824 338.573 84.456 341.357 84.456ZM53.376 124.456C57.632 124.456 61.312 127.656 61.312 132.84C61.312 137.64 57.28 141.576 52.032 141.576C48.832 141.576 44.48 140.328 42.4 139.4V117H46.624V128.552C47.68 126.344 50.208 124.456 53.376 124.456ZM52.128 128.392C49.44 128.392 46.624 130.12 46.624 133.064V136.936C48.48 137.544 50.144 137.864 52.096 137.864C54.72 137.864 57.056 135.528 57.056 132.84C57.056 129.96 54.912 128.392 52.128 128.392ZM69.2483 141H65.0563V117H69.2483V141ZM79.6562 131.88C81.3843 131.88 83.6563 132.392 85.0323 132.872V131.016C85.0323 129.352 83.9443 128.232 81.9283 128.232C80.2643 128.232 77.8323 128.968 75.4963 129.832L74.4403 125.992C76.4243 125.352 79.7843 124.36 82.3123 124.36C86.6963 124.36 89.2563 126.696 89.2563 131.08V136.84C89.2563 137.32 89.5763 137.608 90.0243 137.608C90.5043 137.608 91.3363 137.256 92.2643 136.776L93.1283 140.04C91.3683 141 89.4483 141.64 88.1363 141.64C85.9923 141.64 85.0963 140.136 85.0323 138.344C83.4963 140.168 81.0642 141.64 78.3443 141.64C75.3363 141.64 73.0963 139.656 73.0963 136.776C73.0963 133.352 76.3602 131.88 79.6562 131.88ZM79.7203 138.024C81.3203 138.024 83.5283 137.16 85.0323 135.688V135.08C83.2723 134.76 81.4163 134.6 79.8802 134.6C78.4723 134.6 77.4163 135.272 77.4163 136.424C77.4163 137.48 78.3763 138.024 79.7203 138.024ZM105.765 124.52C108.773 124.52 110.725 126.024 111.621 128.424C112.901 126.504 115.461 124.52 118.149 124.52C122.309 124.52 124.517 127.368 124.517 131.592V141H120.293V132.104C120.293 129.992 119.045 128.424 116.709 128.424C114.501 128.424 112.133 129.992 112.133 133.032V141H107.909V132.104C107.909 129.992 106.661 128.424 104.325 128.424C102.117 128.424 99.749 129.96 99.749 133.032V141H95.525V125H99.749V128.392C100.805 126.504 102.981 124.52 105.765 124.52ZM138.398 137.768C140.574 137.768 142.558 137.352 144.83 136.168L146.078 139.496C143.934 140.584 140.926 141.576 137.982 141.576C132.03 141.576 128.094 137.8 128.094 133C128.094 127.656 132.638 124.456 137.982 124.456C142.846 124.456 146.494 127.624 146.494 131.944C146.494 132.648 146.398 133.384 146.206 134.12H132.446C133.054 136.456 135.39 137.768 138.398 137.768ZM137.726 128.008C134.974 128.008 133.182 129.064 132.542 131.016H142.238C141.822 129.128 140.222 128.008 137.726 128.008ZM157.064 141.544C152.68 141.544 149 138.344 149 133.16C149 128.36 153.032 124.424 158.408 124.424C160.136 124.424 162.344 125.064 163.944 125.576V117H168.168V141H163.944V137.448C162.888 139.656 160.328 141.544 157.064 141.544ZM158.312 137.608C161.128 137.608 163.944 135.624 163.944 132.552V129.096C162.088 128.552 160.296 128.136 158.344 128.136C155.464 128.136 153.256 130.312 153.256 133.128C153.256 136.008 155.464 137.608 158.312 137.608ZM192.265 124.52C195.273 124.52 197.225 126.024 198.121 128.424C199.401 126.504 201.961 124.52 204.649 124.52C208.809 124.52 211.017 127.368 211.017 131.592V141H206.793V132.104C206.793 129.992 205.545 128.424 203.209 128.424C201.001 128.424 198.633 129.992 198.633 133.032V141H194.409V132.104C194.409 129.992 193.161 128.424 190.825 128.424C188.617 128.424 186.249 129.96 186.249 133.032V141H182.025V125H186.249V128.392C187.305 126.504 189.481 124.52 192.265 124.52ZM233.09 125L225.378 142.312C223.842 145.736 222.37 149 217.858 149C217.634 149 216.93 148.936 216.386 148.84L216.61 144.776C217.186 144.872 217.826 144.936 218.05 144.936C219.746 144.936 220.642 143.176 221.442 141.384C221.442 141.32 221.506 141.256 221.506 141.224L213.25 125H217.858L223.586 136.424C225.25 132.552 227.01 128.424 228.45 125H233.09ZM249.638 125.576L248.518 129.288C246.438 128.488 244.454 128.072 242.406 128.072C240.294 128.072 238.63 128.392 238.63 129.352C238.63 132.008 250.534 129.8 250.534 136.04C250.534 139.624 246.214 141.64 242.31 141.64C239.302 141.64 236.326 140.712 234.15 139.56L235.398 136.232C237.51 137.16 240.006 137.928 242.47 137.928C244.774 137.928 246.374 137.288 246.374 136.168C246.374 133.64 234.47 135.752 234.47 129.512C234.47 126.376 237.702 124.392 242.246 124.392C244.774 124.392 247.75 124.936 249.638 125.576ZM263.461 137.768C265.637 137.768 267.621 137.352 269.892 136.168L271.141 139.496C268.997 140.584 265.989 141.576 263.045 141.576C257.093 141.576 253.157 137.8 253.157 133C253.157 127.656 257.701 124.456 263.045 124.456C267.909 124.456 271.557 127.624 271.557 131.944C271.557 132.648 271.461 133.384 271.269 134.12H257.509C258.117 136.456 260.453 137.768 263.461 137.768ZM262.789 128.008C260.036 128.008 258.245 129.064 257.605 131.016H267.301C266.885 129.128 265.285 128.008 262.789 128.008ZM279.311 141H275.119V117H279.311V141ZM291.511 120.424C289.975 120.424 289.015 121.224 289.015 122.952V125H296.279V128.68H289.175V141H285.015V128.68H282.359V125H284.983V122.76C284.983 119.08 287.703 116.68 291.639 116.68C293.463 116.68 295.383 117.128 296.887 117.64L295.863 121.512C294.391 120.872 292.887 120.424 291.511 120.424ZM315.386 120.424C313.85 120.424 312.89 121.224 312.89 122.952V125H320.154V128.68H313.05V141H308.89V128.68H306.234V125H308.858V122.76C308.858 119.08 311.578 116.68 315.514 116.68C317.338 116.68 319.258 117.128 320.762 117.64L319.738 121.512C318.266 120.872 316.762 120.424 315.386 120.424ZM331.702 124.456C337.046 124.456 341.654 127.496 341.654 132.84C341.654 137.64 337.494 141.576 331.702 141.576C325.91 141.576 321.75 137.64 321.75 132.84C321.75 127.496 326.358 124.456 331.702 124.456ZM331.702 128.136C328.374 128.136 326.006 129.864 326.006 132.84C326.006 135.528 328.534 137.928 331.702 137.928C334.87 137.928 337.398 135.528 337.398 132.84C337.398 129.864 335.03 128.136 331.702 128.136ZM355.544 124.456C356.44 124.456 357.432 124.712 358.232 125.096L357.336 128.936C356.568 128.584 355.736 128.392 355.128 128.392C352.472 128.392 349.624 130.12 349.624 133.064V141H345.4V125H349.624V128.552C350.552 126.824 352.76 124.456 355.544 124.456ZM60.64 181L55.936 170.056L51.2 181H46.88L39.872 165H44.448L49.088 176.008L53.728 165H58.144L62.784 175.976L67.456 165H71.936L64.928 181H60.64ZM79.8125 171.88C81.5405 171.88 83.8125 172.392 85.1885 172.872V171.016C85.1885 169.352 84.1005 168.232 82.0845 168.232C80.4205 168.232 77.9885 168.968 75.6525 169.832L74.5965 165.992C76.5805 165.352 79.9405 164.36 82.4685 164.36C86.8525 164.36 89.4125 166.696 89.4125 171.08V176.84C89.4125 177.32 89.7325 177.608 90.1805 177.608C90.6605 177.608 91.4925 177.256 92.4205 176.776L93.2845 180.04C91.5245 181 89.6045 181.64 88.2925 181.64C86.1485 181.64 85.2525 180.136 85.1885 178.344C83.6525 180.168 81.2205 181.64 78.5005 181.64C75.4925 181.64 73.2525 179.656 73.2525 176.776C73.2525 173.352 76.5165 171.88 79.8125 171.88ZM79.8765 178.024C81.4765 178.024 83.6845 177.16 85.1885 175.688V175.08C83.4285 174.76 81.5725 174.6 80.0365 174.6C78.6285 174.6 77.5725 175.272 77.5725 176.424C77.5725 177.48 78.5325 178.024 79.8765 178.024ZM109.825 165.576L108.705 169.288C106.625 168.488 104.641 168.072 102.593 168.072C100.481 168.072 98.8173 168.392 98.8173 169.352C98.8173 172.008 110.721 169.8 110.721 176.04C110.721 179.624 106.401 181.64 102.497 181.64C99.4893 181.64 96.5133 180.712 94.3372 179.56L95.5853 176.232C97.6973 177.16 100.193 177.928 102.657 177.928C104.961 177.928 106.561 177.288 106.561 176.168C106.561 173.64 94.6573 175.752 94.6573 169.512C94.6573 166.376 97.8893 164.392 102.433 164.392C104.961 164.392 107.937 164.936 109.825 165.576ZM112.64 168.68V165.32L115.808 165.128L116.384 160.2H119.904V165H126.56V168.68H119.904V174.728C119.904 176.456 120.832 177.64 122.496 177.64C123.744 177.64 125.152 177.128 126.176 176.488L127.104 180.104C125.76 180.808 123.488 181.544 121.792 181.544C117.824 181.544 115.68 178.92 115.68 174.888V168.68H112.64ZM134.53 165V181H130.37V165H134.53ZM129.922 160.392C129.922 159.016 131.042 157.896 132.45 157.896C133.858 157.896 134.978 159.016 134.978 160.392C134.978 161.8 133.858 162.92 132.45 162.92C131.042 162.92 129.922 161.8 129.922 160.392ZM148.936 168.424C146.28 168.424 143.624 169.896 143.624 173.064V181H139.4V165H143.624V168.552C144.744 166.472 147.112 164.52 150.152 164.52C154.504 164.52 157 167.4 157 171.752V181H152.776V172.264C152.776 169.992 151.464 168.424 148.936 168.424ZM167.346 178.888H169.522C174.994 178.888 179.026 180.328 179.026 183.656C179.026 187.304 174.994 189.096 169.522 189.096C163.698 189.096 159.922 187.336 159.922 183.976C159.922 182.28 161.618 180.712 163.218 180.296C162.354 179.88 161.682 178.76 161.682 177.736C161.682 176.68 162.61 175.848 163.41 175.336C161.938 174.376 160.562 172.616 160.562 170.888C160.562 166.664 164.498 164.456 168.882 164.456C170.61 164.456 172.274 164.808 173.65 165.48C174.866 164.488 176.466 163.72 178.514 163.368L179.282 167.304C178.162 167.432 177.266 167.656 176.498 168.04C176.946 168.84 177.234 169.8 177.234 170.888C177.234 174.536 173.714 177.288 168.882 177.288C168.082 177.288 167.282 177.224 166.546 177.096C166.162 177.192 165.746 177.512 165.746 177.96C165.746 178.504 166.29 178.888 167.346 178.888ZM168.85 167.944C166.546 167.944 164.818 168.936 164.818 170.76C164.818 172.36 166.546 173.512 168.85 173.512C171.282 173.512 172.85 172.264 172.85 170.76C172.85 168.936 171.122 167.944 168.85 167.944ZM169.458 182.472C168.818 182.472 165.842 182.472 165.298 182.504C164.594 182.792 163.986 183.336 163.986 183.976C163.986 185.128 165.938 185.64 169.458 185.64C172.754 185.64 174.93 185.192 174.93 184.008C174.93 182.92 172.754 182.472 169.458 182.472ZM189.14 168.68V165.32L192.308 165.128L192.884 160.2H196.404V165H203.06V168.68H196.404V174.728C196.404 176.456 197.332 177.64 198.996 177.64C200.244 177.64 201.652 177.128 202.676 176.488L203.604 180.104C202.26 180.808 199.988 181.544 198.292 181.544C194.324 181.544 192.18 178.92 192.18 174.888V168.68H189.14ZM211.03 165V181H206.87V165H211.03ZM206.422 160.392C206.422 159.016 207.542 157.896 208.95 157.896C210.358 157.896 211.478 159.016 211.478 160.392C211.478 161.8 210.358 162.92 208.95 162.92C207.542 162.92 206.422 161.8 206.422 160.392ZM226.14 164.52C229.148 164.52 231.1 166.024 231.996 168.424C233.276 166.504 235.836 164.52 238.524 164.52C242.684 164.52 244.892 167.368 244.892 171.592V181H240.668V172.104C240.668 169.992 239.42 168.424 237.084 168.424C234.876 168.424 232.508 169.992 232.508 173.032V181H228.284V172.104C228.284 169.992 227.036 168.424 224.7 168.424C222.492 168.424 220.124 169.96 220.124 173.032V181H215.9V165H220.124V168.392C221.18 166.504 223.356 164.52 226.14 164.52ZM258.773 177.768C260.949 177.768 262.933 177.352 265.205 176.168L266.453 179.496C264.309 180.584 261.301 181.576 258.357 181.576C252.405 181.576 248.469 177.8 248.469 173C248.469 167.656 253.013 164.456 258.357 164.456C263.221 164.456 266.869 167.624 266.869 171.944C266.869 172.648 266.773 173.384 266.581 174.12H252.821C253.429 176.456 255.765 177.768 258.773 177.768ZM258.101 168.008C255.349 168.008 253.557 169.064 252.917 171.016H262.613C262.197 169.128 260.597 168.008 258.101 168.008Z" fill="#FFC2D7"></path><path d="M49.54 250.926V245.4H50.8V258H49.54V252.114H42.7V258H41.44V245.4H42.7V250.926H49.54ZM61.0364 256.866C60.1124 257.766 58.9964 258.216 57.6884 258.216C56.3564 258.216 55.2344 257.766 54.3224 256.866C53.4104 255.954 52.9544 254.832 52.9544 253.5C52.9544 252.168 53.4104 251.052 54.3224 250.152C55.2344 249.24 56.3564 248.784 57.6884 248.784C59.0084 248.784 60.1244 249.24 61.0364 250.152C61.9604 251.052 62.4224 252.168 62.4224 253.5C62.4224 254.82 61.9604 255.942 61.0364 256.866ZM55.1684 256.038C55.8524 256.722 56.6924 257.064 57.6884 257.064C58.6844 257.064 59.5244 256.722 60.2084 256.038C60.8924 255.33 61.2344 254.484 61.2344 253.5C61.2344 252.504 60.8924 251.664 60.2084 250.98C59.5244 250.284 58.6844 249.936 57.6884 249.936C56.6924 249.936 55.8524 250.284 55.1684 250.98C54.4844 251.664 54.1424 252.504 54.1424 253.5C54.1424 254.484 54.4844 255.33 55.1684 256.038ZM72.6808 256.47L74.8948 249H76.1188L73.3468 258H72.0508L69.7288 250.746L67.4068 258H66.1108L63.3388 249H64.5628L66.7768 256.47L69.1348 249H70.3228L72.6808 256.47ZM90.1504 250.764V245.4H91.3384V258H90.1504V256.236C89.3224 257.556 88.1104 258.216 86.5144 258.216C85.2304 258.216 84.1324 257.76 83.2204 256.848C82.3204 255.936 81.8704 254.82 81.8704 253.5C81.8704 252.18 82.3204 251.064 83.2204 250.152C84.1324 249.24 85.2304 248.784 86.5144 248.784C88.1104 248.784 89.3224 249.444 90.1504 250.764ZM84.0844 256.038C84.7684 256.722 85.6084 257.064 86.6044 257.064C87.6004 257.064 88.4404 256.722 89.1244 256.038C89.8084 255.33 90.1504 254.484 90.1504 253.5C90.1504 252.504 89.8084 251.664 89.1244 250.98C88.4404 250.284 87.6004 249.936 86.6044 249.936C85.6084 249.936 84.7684 250.284 84.0844 250.98C83.4004 251.664 83.0584 252.504 83.0584 253.5C83.0584 254.484 83.4004 255.33 84.0844 256.038ZM95.3118 246.228C95.3118 246.468 95.2278 246.672 95.0598 246.84C94.8918 247.008 94.6878 247.092 94.4478 247.092C94.2078 247.092 94.0038 247.008 93.8358 246.84C93.6678 246.672 93.5838 246.468 93.5838 246.228C93.5838 245.988 93.6678 245.784 93.8358 245.616C94.0038 245.448 94.2078 245.364 94.4478 245.364C94.6878 245.364 94.8918 245.448 95.0598 245.616C95.2278 245.784 95.3118 245.988 95.3118 246.228ZM95.0418 258H93.8538V249H95.0418V258ZM105.303 250.764V245.4H106.491V258H105.303V256.236C104.475 257.556 103.263 258.216 101.667 258.216C100.383 258.216 99.2847 257.76 98.3727 256.848C97.4727 255.936 97.0227 254.82 97.0227 253.5C97.0227 252.18 97.4727 251.064 98.3727 250.152C99.2847 249.24 100.383 248.784 101.667 248.784C103.263 248.784 104.475 249.444 105.303 250.764ZM99.2367 256.038C99.9207 256.722 100.761 257.064 101.757 257.064C102.753 257.064 103.593 256.722 104.277 256.038C104.961 255.33 105.303 254.484 105.303 253.5C105.303 252.504 104.961 251.664 104.277 250.98C103.593 250.284 102.753 249.936 101.757 249.936C100.761 249.936 99.9207 250.284 99.2367 250.98C98.5527 251.664 98.2107 252.504 98.2107 253.5C98.2107 254.484 98.5527 255.33 99.2367 256.038ZM117.07 256.542L119.986 249H121.246L117.394 258.828C117.034 259.74 116.53 260.442 115.882 260.934C115.246 261.438 114.538 261.66 113.758 261.6V260.484C114.838 260.616 115.66 259.992 116.224 258.612L116.458 258.054L112.426 249H113.686L117.07 256.542ZM129.872 256.866C128.948 257.766 127.832 258.216 126.524 258.216C125.192 258.216 124.07 257.766 123.158 256.866C122.246 255.954 121.79 254.832 121.79 253.5C121.79 252.168 122.246 251.052 123.158 250.152C124.07 249.24 125.192 248.784 126.524 248.784C127.844 248.784 128.96 249.24 129.872 250.152C130.796 251.052 131.258 252.168 131.258 253.5C131.258 254.82 130.796 255.942 129.872 256.866ZM124.004 256.038C124.688 256.722 125.528 257.064 126.524 257.064C127.52 257.064 128.36 256.722 129.044 256.038C129.728 255.33 130.07 254.484 130.07 253.5C130.07 252.504 129.728 251.664 129.044 250.98C128.36 250.284 127.52 249.936 126.524 249.936C125.528 249.936 124.688 250.284 124.004 250.98C123.32 251.664 122.978 252.504 122.978 253.5C122.978 254.484 123.32 255.33 124.004 256.038ZM139.582 253.716V249H140.77V258H139.582V256.596C138.91 257.676 137.902 258.216 136.558 258.216C135.478 258.216 134.62 257.886 133.984 257.226C133.348 256.554 133.03 255.654 133.03 254.526V249H134.218V254.526C134.218 255.33 134.428 255.954 134.848 256.398C135.28 256.842 135.886 257.064 136.666 257.064C137.566 257.064 138.274 256.782 138.79 256.218C139.318 255.654 139.582 254.82 139.582 253.716ZM156.405 256.47L158.619 249H159.843L157.071 258H155.775L153.453 250.746L151.131 258H149.835L147.063 249H148.287L150.501 256.47L152.859 249H154.047L156.405 256.47ZM169.023 250.764V249H170.211V258H169.023V256.236C168.195 257.556 166.983 258.216 165.387 258.216C164.103 258.216 163.005 257.76 162.093 256.848C161.193 255.936 160.743 254.82 160.743 253.5C160.743 252.18 161.193 251.064 162.093 250.152C163.005 249.24 164.103 248.784 165.387 248.784C166.983 248.784 168.195 249.444 169.023 250.764ZM162.957 256.038C163.641 256.722 164.481 257.064 165.477 257.064C166.473 257.064 167.313 256.722 167.997 256.038C168.681 255.33 169.023 254.484 169.023 253.5C169.023 252.504 168.681 251.664 167.997 250.98C167.313 250.284 166.473 249.936 165.477 249.936C164.481 249.936 163.641 250.284 162.957 250.98C162.273 251.664 161.931 252.504 161.931 253.5C161.931 254.484 162.273 255.33 162.957 256.038ZM173.663 251.358C173.663 252.054 174.281 252.564 175.517 252.888C175.865 252.972 176.093 253.032 176.201 253.068C176.309 253.092 176.519 253.158 176.831 253.266C177.155 253.362 177.377 253.446 177.497 253.518C177.629 253.59 177.809 253.704 178.037 253.86C178.265 254.004 178.427 254.154 178.523 254.31C178.619 254.454 178.709 254.646 178.793 254.886C178.877 255.114 178.919 255.36 178.919 255.624C178.919 256.392 178.613 257.016 178.001 257.496C177.413 257.976 176.633 258.216 175.661 258.216C174.821 258.216 174.095 258.03 173.483 257.658C172.871 257.274 172.439 256.77 172.187 256.146L173.195 255.552C173.363 256.02 173.663 256.392 174.095 256.668C174.539 256.932 175.061 257.064 175.661 257.064C176.273 257.064 176.771 256.944 177.155 256.704C177.539 256.464 177.731 256.104 177.731 255.624C177.731 254.928 177.113 254.418 175.877 254.094C175.529 254.01 175.301 253.956 175.193 253.932C175.085 253.896 174.869 253.83 174.545 253.734C174.233 253.626 174.011 253.536 173.879 253.464C173.759 253.392 173.585 253.284 173.357 253.14C173.129 252.984 172.967 252.834 172.871 252.69C172.775 252.534 172.685 252.342 172.601 252.114C172.517 251.874 172.475 251.622 172.475 251.358C172.475 250.626 172.763 250.014 173.339 249.522C173.939 249.03 174.677 248.784 175.553 248.784C176.273 248.784 176.909 248.946 177.461 249.27C178.025 249.594 178.439 250.044 178.703 250.62L177.713 251.196C177.377 250.356 176.657 249.936 175.553 249.936C175.013 249.936 174.563 250.062 174.203 250.314C173.843 250.566 173.663 250.914 173.663 251.358ZM185.319 249V250.152H182.727V255.606C182.727 256.098 182.823 256.452 183.015 256.668C183.207 256.872 183.495 256.98 183.879 256.992C184.263 256.992 184.743 256.98 185.319 256.956V258C184.035 258.192 183.081 258.102 182.457 257.73C181.845 257.346 181.539 256.638 181.539 255.606V250.152H179.649V249H181.539V246.84L182.727 246.48V249H185.319ZM190.912 248.784C192.256 248.784 193.33 249.258 194.134 250.206C194.962 251.142 195.376 252.252 195.376 253.536C195.376 253.596 195.364 253.782 195.34 254.094H187.438C187.558 254.994 187.942 255.714 188.59 256.254C189.238 256.794 190.048 257.064 191.02 257.064C192.388 257.064 193.354 256.554 193.918 255.534L194.962 256.146C194.566 256.794 194.02 257.304 193.324 257.676C192.64 258.036 191.866 258.216 191.002 258.216C189.586 258.216 188.434 257.772 187.546 256.884C186.658 255.996 186.214 254.868 186.214 253.5C186.214 252.144 186.652 251.022 187.528 250.134C188.404 249.234 189.532 248.784 190.912 248.784ZM190.912 249.936C189.976 249.936 189.19 250.212 188.554 250.764C187.93 251.316 187.558 252.042 187.438 252.942H194.152C194.02 251.982 193.654 251.244 193.054 250.728C192.43 250.2 191.716 249.936 190.912 249.936ZM206.536 249V250.152H203.944V255.606C203.944 256.098 204.04 256.452 204.232 256.668C204.424 256.872 204.712 256.98 205.096 256.992C205.48 256.992 205.96 256.98 206.536 256.956V258C205.252 258.192 204.298 258.102 203.674 257.73C203.062 257.346 202.756 256.638 202.756 255.606V250.152H200.866V249H202.756V246.84L203.944 246.48V249H206.536ZM212.728 248.784C213.808 248.784 214.666 249.12 215.302 249.792C215.938 250.452 216.256 251.346 216.256 252.474V258H215.068V252.474C215.068 251.67 214.852 251.046 214.42 250.602C214 250.158 213.4 249.936 212.62 249.936C211.72 249.936 211.006 250.218 210.478 250.782C209.962 251.346 209.704 252.18 209.704 253.284V258H208.516V245.4H209.704V250.404C210.376 249.324 211.384 248.784 212.728 248.784ZM222.711 248.784C224.055 248.784 225.129 249.258 225.933 250.206C226.761 251.142 227.175 252.252 227.175 253.536C227.175 253.596 227.163 253.782 227.139 254.094H219.237C219.357 254.994 219.741 255.714 220.389 256.254C221.037 256.794 221.847 257.064 222.819 257.064C224.187 257.064 225.153 256.554 225.717 255.534L226.761 256.146C226.365 256.794 225.819 257.304 225.123 257.676C224.439 258.036 223.665 258.216 222.801 258.216C221.385 258.216 220.233 257.772 219.345 256.884C218.457 255.996 218.013 254.868 218.013 253.5C218.013 252.144 218.451 251.022 219.327 250.134C220.203 249.234 221.331 248.784 222.711 248.784ZM222.711 249.936C221.775 249.936 220.989 250.212 220.353 250.764C219.729 251.316 219.357 252.042 219.237 252.942H225.951C225.819 251.982 225.453 251.244 224.853 250.728C224.229 250.2 223.515 249.936 222.711 249.936ZM238.335 249V250.152H235.743V255.606C235.743 256.098 235.839 256.452 236.031 256.668C236.223 256.872 236.511 256.98 236.895 256.992C237.279 256.992 237.759 256.98 238.335 256.956V258C237.051 258.192 236.097 258.102 235.473 257.73C234.861 257.346 234.555 256.638 234.555 255.606V250.152H232.665V249H234.555V246.84L235.743 246.48V249H238.335ZM241.773 246.228C241.773 246.468 241.689 246.672 241.521 246.84C241.353 247.008 241.149 247.092 240.909 247.092C240.669 247.092 240.465 247.008 240.297 246.84C240.129 246.672 240.045 246.468 240.045 246.228C240.045 245.988 240.129 245.784 240.297 245.616C240.465 245.448 240.669 245.364 240.909 245.364C241.149 245.364 241.353 245.448 241.521 245.616C241.689 245.784 241.773 245.988 241.773 246.228ZM241.503 258H240.315V249H241.503V258ZM253.618 248.784C254.638 248.784 255.454 249.108 256.066 249.756C256.678 250.404 256.984 251.28 256.984 252.384V258H255.796V252.384C255.796 251.616 255.598 251.016 255.202 250.584C254.806 250.152 254.272 249.936 253.6 249.936C252.82 249.936 252.208 250.194 251.764 250.71C251.32 251.226 251.098 251.994 251.098 253.014V258H249.91V252.384C249.91 251.604 249.724 251.004 249.352 250.584C248.98 250.152 248.464 249.936 247.804 249.936C247.048 249.936 246.424 250.2 245.932 250.728C245.452 251.256 245.212 252.018 245.212 253.014V258H244.024V249H245.212V250.314C245.86 249.294 246.778 248.784 247.966 248.784C249.274 248.784 250.186 249.33 250.702 250.422C251.35 249.33 252.322 248.784 253.618 248.784ZM263.439 248.784C264.783 248.784 265.857 249.258 266.661 250.206C267.489 251.142 267.903 252.252 267.903 253.536C267.903 253.596 267.891 253.782 267.867 254.094H259.965C260.085 254.994 260.469 255.714 261.117 256.254C261.765 256.794 262.575 257.064 263.547 257.064C264.915 257.064 265.881 256.554 266.445 255.534L267.489 256.146C267.093 256.794 266.547 257.304 265.851 257.676C265.167 258.036 264.393 258.216 263.529 258.216C262.113 258.216 260.961 257.772 260.073 256.884C259.185 255.996 258.741 254.868 258.741 253.5C258.741 252.144 259.179 251.022 260.055 250.134C260.931 249.234 262.059 248.784 263.439 248.784ZM263.439 249.936C262.503 249.936 261.717 250.212 261.081 250.764C260.457 251.316 260.085 252.042 259.965 252.942H266.679C266.547 251.982 266.181 251.244 265.581 250.728C264.957 250.2 264.243 249.936 263.439 249.936ZM272.677 254.58H271.417C271.417 253.5 271.825 252.552 272.641 251.736C272.737 251.64 272.929 251.454 273.217 251.178C273.517 250.902 273.733 250.692 273.865 250.548C273.997 250.404 274.159 250.212 274.351 249.972C274.543 249.72 274.675 249.48 274.747 249.252C274.831 249.012 274.873 248.766 274.873 248.514C274.873 247.842 274.639 247.326 274.171 246.966C273.715 246.594 273.103 246.408 272.335 246.408C270.859 246.408 269.947 247.014 269.599 248.226L268.537 247.632C268.813 246.852 269.287 246.252 269.959 245.832C270.643 245.4 271.435 245.184 272.335 245.184C273.391 245.184 274.285 245.478 275.017 246.066C275.761 246.642 276.133 247.458 276.133 248.514C276.133 249.438 275.725 250.308 274.909 251.124C274.861 251.16 274.717 251.292 274.477 251.52C274.249 251.736 274.099 251.886 274.027 251.97C273.955 252.042 273.823 252.18 273.631 252.384C273.439 252.588 273.307 252.756 273.235 252.888C273.163 253.02 273.073 253.188 272.965 253.392C272.857 253.584 272.779 253.782 272.731 253.986C272.695 254.178 272.677 254.376 272.677 254.58ZM273.037 257.19C273.037 257.466 272.941 257.7 272.749 257.892C272.557 258.084 272.323 258.18 272.047 258.18C271.771 258.18 271.537 258.084 271.345 257.892C271.153 257.7 271.057 257.466 271.057 257.19C271.057 256.914 271.153 256.68 271.345 256.488C271.537 256.296 271.771 256.2 272.047 256.2C272.323 256.2 272.557 256.296 272.749 256.488C272.941 256.68 273.037 256.914 273.037 257.19Z" fill="#FFC2D7"></path></svg> 