<?xml version="1.0" encoding="UTF-8"?> <svg xmlns="http://www.w3.org/2000/svg" width="400" height="600" viewBox="0 0 400 600" fill="none"> <rect width="400" height="600" rx="20" fill="#E7497E"></rect> <path d="M47.296 84.136L60.8 101H65.952V78.6H61.536V95.464L48.032 78.6H42.88V101H47.296V84.136ZM80.4918 97.768C77.4838 97.768 75.1478 96.456 74.5398 94.12H88.2998C88.4918 93.384 88.5878 92.648 88.5878 91.944C88.5878 87.624 84.9398 84.456 80.0758 84.456C74.7318 84.456 70.1878 87.656 70.1878 93C70.1878 97.8 74.1238 101.576 80.0758 101.576C83.0198 101.576 86.0278 100.584 88.1718 99.496L86.9237 96.168C84.6518 97.352 82.6678 97.768 80.4918 97.768ZM79.8198 88.008C82.3158 88.008 83.9158 89.128 84.3318 91.016H74.6358C75.2758 89.064 77.0677 88.008 79.8198 88.008ZM94.39 85H89.75L97.302 101H101.942L109.526 85H104.822L99.638 96.232L94.39 85ZM121.179 97.768C118.171 97.768 115.835 96.456 115.227 94.12H128.987C129.179 93.384 129.275 92.648 129.275 91.944C129.275 87.624 125.627 84.456 120.763 84.456C115.419 84.456 110.875 87.656 110.875 93C110.875 97.8 114.811 101.576 120.763 101.576C123.707 101.576 126.715 100.584 128.859 99.496L127.611 96.168C125.339 97.352 123.355 97.768 121.179 97.768ZM120.507 88.008C123.003 88.008 124.603 89.128 125.019 91.016H115.323C115.963 89.064 117.755 88.008 120.507 88.008ZM142.982 84.456C140.198 84.456 137.99 86.824 137.062 88.552V85H132.838V101H137.062V93.064C137.062 90.12 139.91 88.392 142.566 88.392C143.174 88.392 144.006 88.584 144.774 88.936L145.67 85.096C144.87 84.712 143.878 84.456 142.982 84.456ZM166.436 88.424C168.964 88.424 170.276 89.992 170.276 92.264V101H174.5V91.752C174.5 87.4 172.004 84.52 167.652 84.52C164.612 84.52 162.244 86.472 161.124 88.552V77.288H156.9V101H161.124V93.064C161.124 89.896 163.78 88.424 166.436 88.424ZM184.75 91.88C181.454 91.88 178.19 93.352 178.19 96.776C178.19 99.656 180.43 101.64 183.438 101.64C186.158 101.64 188.59 100.168 190.126 98.344C190.19 100.136 191.086 101.64 193.23 101.64C194.542 101.64 196.462 101 198.222 100.04L197.358 96.776C196.43 97.256 195.598 97.608 195.118 97.608C194.67 97.608 194.35 97.32 194.35 96.84V91.08C194.35 86.696 191.79 84.36 187.406 84.36C184.878 84.36 181.518 85.352 179.534 85.992L180.59 89.832C182.926 88.968 185.358 88.232 187.022 88.232C189.038 88.232 190.126 89.352 190.126 91.016V92.872C188.75 92.392 186.478 91.88 184.75 91.88ZM184.814 98.024C183.47 98.024 182.51 97.48 182.51 96.424C182.51 95.272 183.566 94.6 184.974 94.6C186.51 94.6 188.366 94.76 190.126 95.08V95.688C188.622 97.16 186.414 98.024 184.814 98.024ZM202.859 85H198.219L205.771 101H210.411L217.995 85H213.291L208.107 96.232L202.859 85ZM229.648 97.768C226.64 97.768 224.304 96.456 223.696 94.12H237.456C237.648 93.384 237.744 92.648 237.744 91.944C237.744 87.624 234.096 84.456 229.232 84.456C223.888 84.456 219.344 87.656 219.344 93C219.344 97.8 223.28 101.576 229.232 101.576C232.176 101.576 235.184 100.584 237.328 99.496L236.08 96.168C233.808 97.352 231.824 97.768 229.648 97.768ZM228.976 88.008C231.472 88.008 233.072 89.128 233.488 91.016H223.792C224.432 89.064 226.224 88.008 228.976 88.008ZM255.265 78.6H250.849V101H255.265V78.6ZM278.867 97.768C275.859 97.768 273.523 96.456 272.915 94.12H286.675C286.867 93.384 286.963 92.648 286.963 91.944C286.963 87.624 283.315 84.456 278.451 84.456C273.107 84.456 268.563 87.656 268.563 93C268.563 97.8 272.499 101.576 278.451 101.576C281.395 101.576 284.403 100.584 286.547 99.496L285.299 96.168C283.027 97.352 281.043 97.768 278.867 97.768ZM278.195 88.008C280.691 88.008 282.291 89.128 282.707 91.016H273.011C273.651 89.064 275.443 88.008 278.195 88.008ZM292.765 85H288.125L295.677 101H300.317L307.901 85H303.197L298.013 96.232L292.765 85ZM319.554 97.768C316.546 97.768 314.21 96.456 313.602 94.12H327.362C327.554 93.384 327.65 92.648 327.65 91.944C327.65 87.624 324.002 84.456 319.138 84.456C313.794 84.456 309.25 87.656 309.25 93C309.25 97.8 313.186 101.576 319.138 101.576C322.082 101.576 325.09 100.584 327.234 99.496L325.986 96.168C323.714 97.352 321.73 97.768 319.554 97.768ZM318.882 88.008C321.378 88.008 322.978 89.128 323.394 91.016H313.698C314.338 89.064 316.13 88.008 318.882 88.008ZM341.357 84.456C338.573 84.456 336.365 86.824 335.437 88.552V85H331.213V101H335.437V93.064C335.437 90.12 338.285 88.392 340.941 88.392C341.549 88.392 342.381 88.584 343.149 88.936L344.045 85.096C343.245 84.712 342.253 84.456 341.357 84.456ZM53.376 124.456C50.208 124.456 47.68 126.344 46.624 128.552V117H42.4V139.4C44.48 140.328 48.832 141.576 52.032 141.576C57.28 141.576 61.312 137.64 61.312 132.84C61.312 127.656 57.632 124.456 53.376 124.456ZM52.128 128.392C54.912 128.392 57.056 129.96 57.056 132.84C57.056 135.528 54.72 137.864 52.096 137.864C50.144 137.864 48.48 137.544 46.624 136.936V133.064C46.624 130.12 49.44 128.392 52.128 128.392ZM69.2483 141V117H65.0563V141H69.2483ZM79.6562 131.88C76.3602 131.88 73.0963 133.352 73.0963 136.776C73.0963 139.656 75.3363 141.64 78.3443 141.64C81.0642 141.64 83.4963 140.168 85.0323 138.344C85.0963 140.136 85.9923 141.64 88.1363 141.64C89.4483 141.64 91.3683 141 93.1283 140.04L92.2643 136.776C91.3363 137.256 90.5043 137.608 90.0243 137.608C89.5763 137.608 89.2563 137.32 89.2563 136.84V131.08C89.2563 126.696 86.6963 124.36 82.3123 124.36C79.7843 124.36 76.4243 125.352 74.4403 125.992L75.4963 129.832C77.8323 128.968 80.2643 128.232 81.9283 128.232C83.9443 128.232 85.0323 129.352 85.0323 131.016V132.872C83.6563 132.392 81.3843 131.88 79.6562 131.88ZM79.7203 138.024C78.3763 138.024 77.4163 137.48 77.4163 136.424C77.4163 135.272 78.4723 134.6 79.8802 134.6C81.4163 134.6 83.2723 134.76 85.0323 135.08V135.688C83.5283 137.16 81.3203 138.024 79.7203 138.024ZM105.765 124.52C102.981 124.52 100.805 126.504 99.749 128.392V125H95.525V141H99.749V133.032C99.749 129.96 102.117 128.424 104.325 128.424C106.661 128.424 107.909 129.992 107.909 132.104V141H112.133V133.032C112.133 129.992 114.501 128.424 116.709 128.424C119.045 128.424 120.293 129.992 120.293 132.104V141H124.517V131.592C124.517 127.368 122.309 124.52 118.149 124.52C115.461 124.52 112.901 126.504 111.621 128.424C110.725 126.024 108.773 124.52 105.765 124.52ZM138.398 137.768C135.39 137.768 133.054 136.456 132.446 134.12H146.206C146.398 133.384 146.494 132.648 146.494 131.944C146.494 127.624 142.846 124.456 137.982 124.456C132.638 124.456 128.094 127.656 128.094 133C128.094 137.8 132.03 141.576 137.982 141.576C140.926 141.576 143.934 140.584 146.078 139.496L144.83 136.168C142.558 137.352 140.574 137.768 138.398 137.768ZM137.726 128.008C140.222 128.008 141.822 129.128 142.238 131.016H132.542C133.182 129.064 134.974 128.008 137.726 128.008ZM157.064 141.544C160.328 141.544 162.888 139.656 163.944 137.448V141H168.168V117H163.944V125.576C162.344 125.064 160.136 124.424 158.408 124.424C153.032 124.424 149 128.36 149 133.16C149 138.344 152.68 141.544 157.064 141.544ZM158.312 137.608C155.464 137.608 153.256 136.008 153.256 133.128C153.256 130.312 155.464 128.136 158.344 128.136C160.296 128.136 162.088 128.552 163.944 129.096V132.552C163.944 135.624 161.128 137.608 158.312 137.608ZM192.265 124.52C189.481 124.52 187.305 126.504 186.249 128.392V125H182.025V141H186.249V133.032C186.249 129.96 188.617 128.424 190.825 128.424C193.161 128.424 194.409 129.992 194.409 132.104V141H198.633V133.032C198.633 129.992 201.001 128.424 203.209 128.424C205.545 128.424 206.793 129.992 206.793 132.104V141H211.017V131.592C211.017 127.368 208.809 124.52 204.649 124.52C201.961 124.52 199.401 126.504 198.121 128.424C197.225 126.024 195.273 124.52 192.265 124.52ZM233.09 125H228.45C227.01 128.424 225.25 132.552 223.586 136.424L217.858 125H213.25L221.506 141.224C221.506 141.256 221.442 141.32 221.442 141.384C220.642 143.176 219.746 144.936 218.05 144.936C217.826 144.936 217.186 144.872 216.61 144.776L216.386 148.84C216.93 148.936 217.634 149 217.858 149C222.37 149 223.842 145.736 225.378 142.312L233.09 125ZM249.638 125.576C247.75 124.936 244.774 124.392 242.246 124.392C237.702 124.392 234.47 126.376 234.47 129.512C234.47 135.752 246.374 133.64 246.374 136.168C246.374 137.288 244.774 137.928 242.47 137.928C240.006 137.928 237.51 137.16 235.398 136.232L234.15 139.56C236.326 140.712 239.302 141.64 242.31 141.64C246.214 141.64 250.534 139.624 250.534 136.04C250.534 129.8 238.63 132.008 238.63 129.352C238.63 128.392 240.294 128.072 242.406 128.072C244.454 128.072 246.438 128.488 248.518 129.288L249.638 125.576ZM263.461 137.768C260.453 137.768 258.117 136.456 257.509 134.12H271.269C271.461 133.384 271.557 132.648 271.557 131.944C271.557 127.624 267.909 124.456 263.045 124.456C257.701 124.456 253.157 127.656 253.157 133C253.157 137.8 257.093 141.576 263.045 141.576C265.989 141.576 268.997 140.584 271.141 139.496L269.892 136.168C267.621 137.352 265.637 137.768 263.461 137.768ZM262.789 128.008C265.285 128.008 266.885 129.128 267.301 131.016H257.605C258.245 129.064 260.036 128.008 262.789 128.008ZM279.311 141V117H275.119V141H279.311ZM291.511 120.424C292.887 120.424 294.391 120.872 295.863 121.512L296.887 117.64C295.383 117.128 293.463 116.68 291.639 116.68C287.703 116.68 284.983 119.08 284.983 122.76V125H282.359V128.68H285.015V141H289.175V128.68H296.279V125H289.015V122.952C289.015 121.224 289.975 120.424 291.511 120.424ZM315.386 120.424C316.762 120.424 318.266 120.872 319.738 121.512L320.762 117.64C319.258 117.128 317.338 116.68 315.514 116.68C311.578 116.68 308.858 119.08 308.858 122.76V125H306.234V128.68H308.89V141H313.05V128.68H320.154V125H312.89V122.952C312.89 121.224 313.85 120.424 315.386 120.424ZM331.702 124.456C326.358 124.456 321.75 127.496 321.75 132.84C321.75 137.64 325.91 141.576 331.702 141.576C337.494 141.576 341.654 137.64 341.654 132.84C341.654 127.496 337.046 124.456 331.702 124.456ZM331.702 128.136C335.03 128.136 337.398 129.864 337.398 132.84C337.398 135.528 334.87 137.928 331.702 137.928C328.534 137.928 326.006 135.528 326.006 132.84C326.006 129.864 328.374 128.136 331.702 128.136ZM355.544 124.456C352.76 124.456 350.552 126.824 349.624 128.552V125H345.4V141H349.624V133.064C349.624 130.12 352.472 128.392 355.128 128.392C355.736 128.392 356.568 128.584 357.336 128.936L358.232 125.096C357.432 124.712 356.44 124.456 355.544 124.456ZM60.64 181H64.928L71.936 165H67.456L62.784 175.976L58.144 165H53.728L49.088 176.008L44.448 165H39.872L46.88 181H51.2L55.936 170.056L60.64 181ZM79.8125 171.88C76.5165 171.88 73.2525 173.352 73.2525 176.776C73.2525 179.656 75.4925 181.64 78.5005 181.64C81.2205 181.64 83.6525 180.168 85.1885 178.344C85.2525 180.136 86.1485 181.64 88.2925 181.64C89.6045 181.64 91.5245 181 93.2845 180.04L92.4205 176.776C91.4925 177.256 90.6605 177.608 90.1805 177.608C89.7325 177.608 89.4125 177.32 89.4125 176.84V171.08C89.4125 166.696 86.8525 164.36 82.4685 164.36C79.9405 164.36 76.5805 165.352 74.5965 165.992L75.6525 169.832C77.9885 168.968 80.4205 168.232 82.0845 168.232C84.1005 168.232 85.1885 169.352 85.1885 171.016V172.872C83.8125 172.392 81.5405 171.88 79.8125 171.88ZM79.8765 178.024C78.5325 178.024 77.5725 177.48 77.5725 176.424C77.5725 175.272 78.6285 174.6 80.0365 174.6C81.5725 174.6 83.4285 174.76 85.1885 175.08V175.688C83.6845 177.16 81.4765 178.024 79.8765 178.024ZM109.825 165.576C107.937 164.936 104.961 164.392 102.433 164.392C97.8893 164.392 94.6573 166.376 94.6573 169.512C94.6573 175.752 106.561 173.64 106.561 176.168C106.561 177.288 104.961 177.928 102.657 177.928C100.193 177.928 97.6973 177.16 95.5853 176.232L94.3372 179.56C96.5133 180.712 99.4893 181.64 102.497 181.64C106.401 181.64 110.721 179.624 110.721 176.04C110.721 169.8 98.8173 172.008 98.8173 169.352C98.8173 168.392 100.481 168.072 102.593 168.072C104.641 168.072 106.625 168.488 108.705 169.288L109.825 165.576ZM112.64 168.68H115.68V174.888C115.68 178.92 117.824 181.544 121.792 181.544C123.488 181.544 125.76 180.808 127.104 180.104L126.176 176.488C125.152 177.128 123.744 177.64 122.496 177.64C120.832 177.64 119.904 176.456 119.904 174.728V168.68H126.56V165H119.904V160.2H116.384L115.808 165.128L112.64 165.32V168.68ZM134.53 165H130.37V181H134.53V165ZM129.922 160.392C129.922 161.8 131.042 162.92 132.45 162.92C133.858 162.92 134.978 161.8 134.978 160.392C134.978 159.016 133.858 157.896 132.45 157.896C131.042 157.896 129.922 159.016 129.922 160.392ZM148.936 168.424C151.464 168.424 152.776 169.992 152.776 172.264V181H157V171.752C157 167.4 154.504 164.52 150.152 164.52C147.112 164.52 144.744 166.472 143.624 168.552V165H139.4V181H143.624V173.064C143.624 169.896 146.28 168.424 148.936 168.424ZM167.346 178.888C166.29 178.888 165.746 178.504 165.746 177.96C165.746 177.512 166.162 177.192 166.546 177.096C167.282 177.224 168.082 177.288 168.882 177.288C173.714 177.288 177.234 174.536 177.234 170.888C177.234 169.8 176.946 168.84 176.498 168.04C177.266 167.656 178.162 167.432 179.282 167.304L178.514 163.368C176.466 163.72 174.866 164.488 173.65 165.48C172.274 164.808 170.61 164.456 168.882 164.456C164.498 164.456 160.562 166.664 160.562 170.888C160.562 172.616 161.938 174.376 163.41 175.336C162.61 175.848 161.682 176.68 161.682 177.736C161.682 178.76 162.354 179.88 163.218 180.296C161.618 180.712 159.922 182.28 159.922 183.976C159.922 187.336 163.698 189.096 169.522 189.096C174.994 189.096 179.026 187.304 179.026 183.656C179.026 180.328 174.994 178.888 169.522 178.888H167.346ZM168.85 167.944C171.122 167.944 172.85 168.936 172.85 170.76C172.85 172.264 171.282 173.512 168.85 173.512C166.546 173.512 164.818 172.36 164.818 170.76C164.818 168.936 166.546 167.944 168.85 167.944ZM169.458 182.472C172.754 182.472 174.93 182.92 174.93 184.008C174.93 185.192 172.754 185.64 169.458 185.64C165.938 185.64 163.986 185.128 163.986 183.976C163.986 183.336 164.594 182.792 165.298 182.504C165.842 182.472 168.818 182.472 169.458 182.472ZM189.14 168.68H192.18V174.888C192.18 178.92 194.324 181.544 198.292 181.544C199.988 181.544 202.26 180.808 203.604 180.104L202.676 176.488C201.652 177.128 200.244 177.64 198.996 177.64C197.332 177.64 196.404 176.456 196.404 174.728V168.68H203.06V165H196.404V160.2H192.884L192.308 165.128L189.14 165.32V168.68ZM211.03 165H206.87V181H211.03V165ZM206.422 160.392C206.422 161.8 207.542 162.92 208.95 162.92C210.358 162.92 211.478 161.8 211.478 160.392C211.478 159.016 210.358 157.896 208.95 157.896C207.542 157.896 206.422 159.016 206.422 160.392ZM226.14 164.52C223.356 164.52 221.18 166.504 220.124 168.392V165H215.9V181H220.124V173.032C220.124 169.96 222.492 168.424 224.7 168.424C227.036 168.424 228.284 169.992 228.284 172.104V181H232.508V173.032C232.508 169.992 234.876 168.424 237.084 168.424C239.42 168.424 240.668 169.992 240.668 172.104V181H244.892V171.592C244.892 167.368 242.684 164.52 238.524 164.52C235.836 164.52 233.276 166.504 231.996 168.424C231.1 166.024 229.148 164.52 226.14 164.52ZM258.773 177.768C255.765 177.768 253.429 176.456 252.821 174.12H266.581C266.773 173.384 266.869 172.648 266.869 171.944C266.869 167.624 263.221 164.456 258.357 164.456C253.013 164.456 248.469 167.656 248.469 173C248.469 177.8 252.405 181.576 258.357 181.576C261.301 181.576 264.309 180.584 266.453 179.496L265.205 176.168C262.933 177.352 260.949 177.768 258.773 177.768ZM258.101 168.008C260.597 168.008 262.197 169.128 262.613 171.016H252.917C253.557 169.064 255.349 168.008 258.101 168.008Z" fill="#FFA4C2"></path> <path d="M49.54 247.4H50.8V260H49.54V254.114H42.7V260H41.44V247.4H42.7V252.926H49.54V247.4ZM61.0364 258.866C60.1244 259.766 59.0084 260.216 57.6884 260.216C56.3684 260.216 55.2464 259.766 54.3224 258.866C53.4104 257.954 52.9544 256.832 52.9544 255.5C52.9544 254.168 53.4104 253.052 54.3224 252.152C55.2464 251.24 56.3684 250.784 57.6884 250.784C59.0084 250.784 60.1244 251.24 61.0364 252.152C61.9604 253.052 62.4224 254.168 62.4224 255.5C62.4224 256.832 61.9604 257.954 61.0364 258.866ZM55.1684 258.038C55.8524 258.722 56.6924 259.064 57.6884 259.064C58.6844 259.064 59.5244 258.722 60.2084 258.038C60.8924 257.342 61.2344 256.496 61.2344 255.5C61.2344 254.504 60.8924 253.664 60.2084 252.98C59.5244 252.284 58.6844 251.936 57.6884 251.936C56.6924 251.936 55.8524 252.284 55.1684 252.98C54.4844 253.664 54.1424 254.504 54.1424 255.5C54.1424 256.496 54.4844 257.342 55.1684 258.038ZM74.8948 251H76.1188L73.3468 260H72.0508L69.7288 252.746L67.4068 260H66.1108L63.3388 251H64.5628L66.7768 258.47L69.1348 251H70.3228L72.6808 258.47L74.8948 251ZM90.1504 247.4H91.3384V260H90.1504V258.236C89.3224 259.556 88.1104 260.216 86.5144 260.216C85.2304 260.216 84.1324 259.76 83.2204 258.848C82.3204 257.936 81.8704 256.82 81.8704 255.5C81.8704 254.18 82.3204 253.064 83.2204 252.152C84.1324 251.24 85.2304 250.784 86.5144 250.784C88.1104 250.784 89.3224 251.444 90.1504 252.764V247.4ZM84.0844 258.038C84.7684 258.722 85.6084 259.064 86.6044 259.064C87.6004 259.064 88.4404 258.722 89.1244 258.038C89.8084 257.342 90.1504 256.496 90.1504 255.5C90.1504 254.504 89.8084 253.664 89.1244 252.98C88.4404 252.284 87.6004 251.936 86.6044 251.936C85.6084 251.936 84.7684 252.284 84.0844 252.98C83.4004 253.664 83.0584 254.504 83.0584 255.5C83.0584 256.496 83.4004 257.342 84.0844 258.038ZM95.0598 248.84C94.8918 249.008 94.6878 249.092 94.4478 249.092C94.2078 249.092 94.0038 249.008 93.8358 248.84C93.6678 248.672 93.5838 248.468 93.5838 248.228C93.5838 247.988 93.6678 247.784 93.8358 247.616C94.0038 247.448 94.2078 247.364 94.4478 247.364C94.6878 247.364 94.8918 247.448 95.0598 247.616C95.2278 247.784 95.3118 247.988 95.3118 248.228C95.3118 248.468 95.2278 248.672 95.0598 248.84ZM93.8538 260V251H95.0418V260H93.8538ZM105.303 247.4H106.491V260H105.303V258.236C104.475 259.556 103.263 260.216 101.667 260.216C100.383 260.216 99.2847 259.76 98.3727 258.848C97.4727 257.936 97.0227 256.82 97.0227 255.5C97.0227 254.18 97.4727 253.064 98.3727 252.152C99.2847 251.24 100.383 250.784 101.667 250.784C103.263 250.784 104.475 251.444 105.303 252.764V247.4ZM99.2367 258.038C99.9207 258.722 100.761 259.064 101.757 259.064C102.753 259.064 103.593 258.722 104.277 258.038C104.961 257.342 105.303 256.496 105.303 255.5C105.303 254.504 104.961 253.664 104.277 252.98C103.593 252.284 102.753 251.936 101.757 251.936C100.761 251.936 99.9207 252.284 99.2367 252.98C98.5527 253.664 98.2107 254.504 98.2107 255.5C98.2107 256.496 98.5527 257.342 99.2367 258.038ZM119.986 251H121.246L117.394 260.828C117.046 261.716 116.548 262.412 115.9 262.916C115.264 263.432 114.55 263.66 113.758 263.6V262.484C114.838 262.604 115.66 261.98 116.224 260.612L116.458 260.054L112.426 251H113.686L117.07 258.542L119.986 251ZM129.872 258.866C128.96 259.766 127.844 260.216 126.524 260.216C125.204 260.216 124.082 259.766 123.158 258.866C122.246 257.954 121.79 256.832 121.79 255.5C121.79 254.168 122.246 253.052 123.158 252.152C124.082 251.24 125.204 250.784 126.524 250.784C127.844 250.784 128.96 251.24 129.872 252.152C130.796 253.052 131.258 254.168 131.258 255.5C131.258 256.832 130.796 257.954 129.872 258.866ZM124.004 258.038C124.688 258.722 125.528 259.064 126.524 259.064C127.52 259.064 128.36 258.722 129.044 258.038C129.728 257.342 130.07 256.496 130.07 255.5C130.07 254.504 129.728 253.664 129.044 252.98C128.36 252.284 127.52 251.936 126.524 251.936C125.528 251.936 124.688 252.284 124.004 252.98C123.32 253.664 122.978 254.504 122.978 255.5C122.978 256.496 123.32 257.342 124.004 258.038ZM139.582 251H140.77V260H139.582V258.596C138.91 259.676 137.902 260.216 136.558 260.216C135.466 260.216 134.602 259.886 133.966 259.226C133.342 258.554 133.03 257.654 133.03 256.526V251H134.218V256.526C134.218 257.33 134.428 257.954 134.848 258.398C135.28 258.842 135.886 259.064 136.666 259.064C137.53 259.064 138.232 258.794 138.772 258.254C139.312 257.702 139.582 256.856 139.582 255.716V251ZM158.619 251H159.843L157.071 260H155.775L153.453 252.746L151.131 260H149.835L147.063 251H148.287L150.501 258.47L152.859 251H154.047L156.405 258.47L158.619 251ZM169.023 251H170.211V260H169.023V258.236C168.195 259.556 166.983 260.216 165.387 260.216C164.103 260.216 163.005 259.76 162.093 258.848C161.193 257.936 160.743 256.82 160.743 255.5C160.743 254.18 161.193 253.064 162.093 252.152C163.005 251.24 164.103 250.784 165.387 250.784C166.983 250.784 168.195 251.444 169.023 252.764V251ZM162.957 258.038C163.641 258.722 164.481 259.064 165.477 259.064C166.473 259.064 167.313 258.722 167.997 258.038C168.681 257.342 169.023 256.496 169.023 255.5C169.023 254.504 168.681 253.664 167.997 252.98C167.313 252.284 166.473 251.936 165.477 251.936C164.481 251.936 163.641 252.284 162.957 252.98C162.273 253.664 161.931 254.504 161.931 255.5C161.931 256.496 162.273 257.342 162.957 258.038ZM173.663 253.358C173.663 253.766 173.843 254.09 174.203 254.33C174.563 254.57 175.001 254.756 175.517 254.888C176.033 255.02 176.549 255.17 177.065 255.338C177.581 255.494 178.019 255.764 178.379 256.148C178.739 256.52 178.919 257.012 178.919 257.624C178.919 258.392 178.613 259.016 178.001 259.496C177.401 259.976 176.621 260.216 175.661 260.216C174.797 260.216 174.059 260.024 173.447 259.64C172.847 259.256 172.427 258.758 172.187 258.146L173.195 257.552C173.363 258.02 173.663 258.392 174.095 258.668C174.539 258.932 175.061 259.064 175.661 259.064C176.249 259.064 176.741 258.95 177.137 258.722C177.533 258.482 177.731 258.116 177.731 257.624C177.731 257.216 177.551 256.892 177.191 256.652C176.831 256.412 176.393 256.226 175.877 256.094C175.361 255.962 174.845 255.818 174.329 255.662C173.813 255.494 173.375 255.224 173.015 254.852C172.655 254.468 172.475 253.97 172.475 253.358C172.475 252.626 172.763 252.014 173.339 251.522C173.927 251.03 174.665 250.784 175.553 250.784C176.285 250.784 176.927 250.952 177.479 251.288C178.031 251.612 178.439 252.056 178.703 252.62L177.713 253.196C177.365 252.356 176.645 251.936 175.553 251.936C175.037 251.936 174.593 252.062 174.221 252.314C173.849 252.554 173.663 252.902 173.663 253.358ZM185.319 252.152H182.727V257.606C182.727 258.098 182.823 258.452 183.015 258.668C183.207 258.872 183.495 258.98 183.879 258.992C184.263 258.992 184.743 258.98 185.319 258.956V260C184.059 260.192 183.111 260.102 182.475 259.73C181.851 259.358 181.539 258.65 181.539 257.606V252.152H179.649V251H181.539V248.84L182.727 248.48V251H185.319V252.152ZM190.912 250.784C192.244 250.784 193.318 251.258 194.134 252.206C194.962 253.142 195.376 254.252 195.376 255.536C195.376 255.668 195.364 255.854 195.34 256.094H187.438C187.558 257.006 187.942 257.732 188.59 258.272C189.25 258.8 190.06 259.064 191.02 259.064C191.704 259.064 192.292 258.926 192.784 258.65C193.288 258.362 193.666 257.99 193.918 257.534L194.962 258.146C194.566 258.782 194.026 259.286 193.342 259.658C192.658 260.03 191.878 260.216 191.002 260.216C189.586 260.216 188.434 259.772 187.546 258.884C186.658 257.996 186.214 256.868 186.214 255.5C186.214 254.156 186.652 253.034 187.528 252.134C188.404 251.234 189.532 250.784 190.912 250.784ZM190.912 251.936C189.976 251.936 189.19 252.218 188.554 252.782C187.93 253.334 187.558 254.054 187.438 254.942H194.152C194.032 253.994 193.666 253.256 193.054 252.728C192.442 252.2 191.728 251.936 190.912 251.936ZM206.536 252.152H203.944V257.606C203.944 258.098 204.04 258.452 204.232 258.668C204.424 258.872 204.712 258.98 205.096 258.992C205.48 258.992 205.96 258.98 206.536 258.956V260C205.276 260.192 204.328 260.102 203.692 259.73C203.068 259.358 202.756 258.65 202.756 257.606V252.152H200.866V251H202.756V248.84L203.944 248.48V251H206.536V252.152ZM212.728 250.784C213.82 250.784 214.678 251.12 215.302 251.792C215.938 252.452 216.256 253.346 216.256 254.474V260H215.068V254.474C215.068 253.67 214.852 253.046 214.42 252.602C214 252.158 213.4 251.936 212.62 251.936C211.756 251.936 211.054 252.212 210.514 252.764C209.974 253.304 209.704 254.144 209.704 255.284V260H208.516V247.4H209.704V252.404C210.376 251.324 211.384 250.784 212.728 250.784ZM222.711 250.784C224.043 250.784 225.117 251.258 225.933 252.206C226.761 253.142 227.175 254.252 227.175 255.536C227.175 255.668 227.163 255.854 227.139 256.094H219.237C219.357 257.006 219.741 257.732 220.389 258.272C221.049 258.8 221.859 259.064 222.819 259.064C223.503 259.064 224.091 258.926 224.583 258.65C225.087 258.362 225.465 257.99 225.717 257.534L226.761 258.146C226.365 258.782 225.825 259.286 225.141 259.658C224.457 260.03 223.677 260.216 222.801 260.216C221.385 260.216 220.233 259.772 219.345 258.884C218.457 257.996 218.013 256.868 218.013 255.5C218.013 254.156 218.451 253.034 219.327 252.134C220.203 251.234 221.331 250.784 222.711 250.784ZM222.711 251.936C221.775 251.936 220.989 252.218 220.353 252.782C219.729 253.334 219.357 254.054 219.237 254.942H225.951C225.831 253.994 225.465 253.256 224.853 252.728C224.241 252.2 223.527 251.936 222.711 251.936ZM238.335 252.152H235.743V257.606C235.743 258.098 235.839 258.452 236.031 258.668C236.223 258.872 236.511 258.98 236.895 258.992C237.279 258.992 237.759 258.98 238.335 258.956V260C237.075 260.192 236.127 260.102 235.491 259.73C234.867 259.358 234.555 258.65 234.555 257.606V252.152H232.665V251H234.555V248.84L235.743 248.48V251H238.335V252.152ZM241.521 248.84C241.353 249.008 241.149 249.092 240.909 249.092C240.669 249.092 240.465 249.008 240.297 248.84C240.129 248.672 240.045 248.468 240.045 248.228C240.045 247.988 240.129 247.784 240.297 247.616C240.465 247.448 240.669 247.364 240.909 247.364C241.149 247.364 241.353 247.448 241.521 247.616C241.689 247.784 241.773 247.988 241.773 248.228C241.773 248.468 241.689 248.672 241.521 248.84ZM240.315 260V251H241.503V260H240.315ZM253.618 250.784C254.626 250.784 255.436 251.108 256.048 251.756C256.672 252.404 256.984 253.28 256.984 254.384V260H255.796V254.384C255.796 253.604 255.592 253.004 255.184 252.584C254.788 252.152 254.26 251.936 253.6 251.936C252.856 251.936 252.25 252.188 251.782 252.692C251.326 253.184 251.098 253.958 251.098 255.014V260H249.91V254.384C249.91 253.592 249.718 252.986 249.334 252.566C248.962 252.146 248.452 251.936 247.804 251.936C247.084 251.936 246.472 252.188 245.968 252.692C245.464 253.196 245.212 253.97 245.212 255.014V260H244.024V251H245.212V252.314C245.86 251.294 246.778 250.784 247.966 250.784C249.262 250.784 250.174 251.33 250.702 252.422C251.35 251.33 252.322 250.784 253.618 250.784ZM263.439 250.784C264.771 250.784 265.845 251.258 266.661 252.206C267.489 253.142 267.903 254.252 267.903 255.536C267.903 255.668 267.891 255.854 267.867 256.094H259.965C260.085 257.006 260.469 257.732 261.117 258.272C261.777 258.8 262.587 259.064 263.547 259.064C264.231 259.064 264.819 258.926 265.311 258.65C265.815 258.362 266.193 257.99 266.445 257.534L267.489 258.146C267.093 258.782 266.553 259.286 265.869 259.658C265.185 260.03 264.405 260.216 263.529 260.216C262.113 260.216 260.961 259.772 260.073 258.884C259.185 257.996 258.741 256.868 258.741 255.5C258.741 254.156 259.179 253.034 260.055 252.134C260.931 251.234 262.059 250.784 263.439 250.784ZM263.439 251.936C262.503 251.936 261.717 252.218 261.081 252.782C260.457 253.334 260.085 254.054 259.965 254.942H266.679C266.559 253.994 266.193 253.256 265.581 252.728C264.969 252.2 264.255 251.936 263.439 251.936ZM271.417 256.58C271.417 255.992 271.537 255.458 271.777 254.978C272.017 254.486 272.305 254.072 272.641 253.736C272.977 253.4 273.313 253.076 273.649 252.764C273.985 252.452 274.273 252.11 274.513 251.738C274.753 251.354 274.873 250.946 274.873 250.514C274.873 249.818 274.633 249.296 274.153 248.948C273.685 248.588 273.079 248.408 272.335 248.408C270.859 248.408 269.947 249.014 269.599 250.226L268.537 249.632C268.813 248.828 269.293 248.222 269.977 247.814C270.673 247.394 271.459 247.184 272.335 247.184C273.391 247.184 274.285 247.478 275.017 248.066C275.761 248.642 276.133 249.458 276.133 250.514C276.133 251.03 276.013 251.51 275.773 251.954C275.533 252.398 275.245 252.788 274.909 253.124C274.573 253.448 274.237 253.772 273.901 254.096C273.565 254.42 273.277 254.798 273.037 255.23C272.797 255.65 272.677 256.1 272.677 256.58H271.417ZM272.749 259.892C272.557 260.084 272.323 260.18 272.047 260.18C271.771 260.18 271.537 260.084 271.345 259.892C271.153 259.7 271.057 259.466 271.057 259.19C271.057 258.914 271.153 258.68 271.345 258.488C271.537 258.296 271.771 258.2 272.047 258.2C272.323 258.2 272.557 258.296 272.749 258.488C272.941 258.68 273.037 258.914 273.037 259.19C273.037 259.466 272.941 259.7 272.749 259.892Z" fill="#FFC2D7"></path> </svg> 