<?xml version="1.0" encoding="UTF-8"?> <svg xmlns="http://www.w3.org/2000/svg" width="400" height="600" viewBox="0 0 400 600" fill="none"><rect width="400" height="600" rx="20" fill="#36BB71"></rect><path d="M47.296 84.136V101H42.88V78.6H48.032L61.536 95.464V78.6H65.952V101H60.8L47.296 84.136ZM80.4918 97.768C82.6678 97.768 84.6518 97.352 86.9237 96.168L88.1718 99.496C86.0278 100.584 83.0198 101.576 80.0758 101.576C74.1238 101.576 70.1878 97.8 70.1878 93C70.1878 87.656 74.7318 84.456 80.0758 84.456C84.9398 84.456 88.5878 87.624 88.5878 91.944C88.5878 92.648 88.4918 93.384 88.2998 94.12H74.5398C75.1478 96.456 77.4838 97.768 80.4918 97.768ZM79.8198 88.008C77.0677 88.008 75.2758 89.064 74.6358 91.016H84.3318C83.9158 89.128 82.3158 88.008 79.8198 88.008ZM94.39 85L99.638 96.232L104.822 85H109.526L101.942 101H97.302L89.75 85H94.39ZM121.179 97.768C123.355 97.768 125.339 97.352 127.611 96.168L128.859 99.496C126.715 100.584 123.707 101.576 120.763 101.576C114.811 101.576 110.875 97.8 110.875 93C110.875 87.656 115.419 84.456 120.763 84.456C125.627 84.456 129.275 87.624 129.275 91.944C129.275 92.648 129.179 93.384 128.987 94.12H115.227C115.835 96.456 118.171 97.768 121.179 97.768ZM120.507 88.008C117.755 88.008 115.963 89.064 115.323 91.016H125.019C124.603 89.128 123.003 88.008 120.507 88.008ZM142.982 84.456C143.878 84.456 144.87 84.712 145.67 85.096L144.774 88.936C144.006 88.584 143.174 88.392 142.566 88.392C139.91 88.392 137.062 90.12 137.062 93.064V101H132.838V85H137.062V88.552C137.99 86.824 140.198 84.456 142.982 84.456ZM166.436 88.424C163.78 88.424 161.124 89.896 161.124 93.064V101H156.9V77.288H161.124V88.552C162.244 86.472 164.612 84.52 167.652 84.52C172.004 84.52 174.5 87.4 174.5 91.752V101H170.276V92.264C170.276 89.992 168.964 88.424 166.436 88.424ZM184.75 91.88C186.478 91.88 188.75 92.392 190.126 92.872V91.016C190.126 89.352 189.038 88.232 187.022 88.232C185.358 88.232 182.926 88.968 180.59 89.832L179.534 85.992C181.518 85.352 184.878 84.36 187.406 84.36C191.79 84.36 194.35 86.696 194.35 91.08V96.84C194.35 97.32 194.67 97.608 195.118 97.608C195.598 97.608 196.43 97.256 197.358 96.776L198.222 100.04C196.462 101 194.542 101.64 193.23 101.64C191.086 101.64 190.19 100.136 190.126 98.344C188.59 100.168 186.158 101.64 183.438 101.64C180.43 101.64 178.19 99.656 178.19 96.776C178.19 93.352 181.454 91.88 184.75 91.88ZM184.814 98.024C186.414 98.024 188.622 97.16 190.126 95.688V95.08C188.366 94.76 186.51 94.6 184.974 94.6C183.566 94.6 182.51 95.272 182.51 96.424C182.51 97.48 183.47 98.024 184.814 98.024ZM202.859 85L208.107 96.232L213.291 85H217.995L210.411 101H205.771L198.219 85H202.859ZM229.648 97.768C231.824 97.768 233.808 97.352 236.08 96.168L237.328 99.496C235.184 100.584 232.176 101.576 229.232 101.576C223.28 101.576 219.344 97.8 219.344 93C219.344 87.656 223.888 84.456 229.232 84.456C234.096 84.456 237.744 87.624 237.744 91.944C237.744 92.648 237.648 93.384 237.456 94.12H223.696C224.304 96.456 226.64 97.768 229.648 97.768ZM228.976 88.008C226.224 88.008 224.432 89.064 223.792 91.016H233.488C233.072 89.128 231.472 88.008 228.976 88.008ZM255.265 78.6V101H250.849V78.6H255.265ZM278.867 97.768C281.043 97.768 283.027 97.352 285.299 96.168L286.547 99.496C284.403 100.584 281.395 101.576 278.451 101.576C272.499 101.576 268.563 97.8 268.563 93C268.563 87.656 273.107 84.456 278.451 84.456C283.315 84.456 286.963 87.624 286.963 91.944C286.963 92.648 286.867 93.384 286.675 94.12H272.915C273.523 96.456 275.859 97.768 278.867 97.768ZM278.195 88.008C275.443 88.008 273.651 89.064 273.011 91.016H282.707C282.291 89.128 280.691 88.008 278.195 88.008ZM292.765 85L298.013 96.232L303.197 85H307.901L300.317 101H295.677L288.125 85H292.765ZM319.554 97.768C321.73 97.768 323.714 97.352 325.986 96.168L327.234 99.496C325.09 100.584 322.082 101.576 319.138 101.576C313.186 101.576 309.25 97.8 309.25 93C309.25 87.656 313.794 84.456 319.138 84.456C324.002 84.456 327.65 87.624 327.65 91.944C327.65 92.648 327.554 93.384 327.362 94.12H313.602C314.21 96.456 316.546 97.768 319.554 97.768ZM318.882 88.008C316.13 88.008 314.338 89.064 313.698 91.016H323.394C322.978 89.128 321.378 88.008 318.882 88.008ZM341.357 84.456C342.253 84.456 343.245 84.712 344.045 85.096L343.149 88.936C342.381 88.584 341.549 88.392 340.941 88.392C338.285 88.392 335.437 90.12 335.437 93.064V101H331.213V85H335.437V88.552C336.365 86.824 338.573 84.456 341.357 84.456ZM53.376 124.456C57.632 124.456 61.312 127.656 61.312 132.84C61.312 137.64 57.28 141.576 52.032 141.576C48.832 141.576 44.48 140.328 42.4 139.4V117H46.624V128.552C47.68 126.344 50.208 124.456 53.376 124.456ZM52.128 128.392C49.44 128.392 46.624 130.12 46.624 133.064V136.936C48.48 137.544 50.144 137.864 52.096 137.864C54.72 137.864 57.056 135.528 57.056 132.84C57.056 129.96 54.912 128.392 52.128 128.392ZM75.2003 124.456C76.0963 124.456 77.0883 124.712 77.8883 125.096L76.9923 128.936C76.2243 128.584 75.3923 128.392 74.7843 128.392C72.1283 128.392 69.2803 130.12 69.2803 133.064V141H65.0563V125H69.2803V128.552C70.2083 126.824 72.4163 124.456 75.2003 124.456ZM88.9523 124.456C94.2963 124.456 98.9043 127.496 98.9043 132.84C98.9043 137.64 94.7443 141.576 88.9523 141.576C83.1603 141.576 79.0003 137.64 79.0003 132.84C79.0003 127.496 83.6083 124.456 88.9523 124.456ZM88.9523 128.136C85.6243 128.136 83.2563 129.864 83.2563 132.84C83.2563 135.528 85.7843 137.928 88.9523 137.928C92.1203 137.928 94.6483 135.528 94.6483 132.84C94.6483 129.864 92.2803 128.136 88.9523 128.136ZM106.81 117V141H102.65V117H106.81ZM112.666 139.848L107.034 133.288L114.266 125H119.674L111.962 133.16L115.706 137.032C115.994 137.32 116.314 137.416 116.666 137.416C117.306 137.416 118.01 137.064 118.778 136.744L119.77 140.168C118.298 140.808 116.922 141.416 115.642 141.416C114.554 141.416 113.53 140.872 112.666 139.848ZM132.211 137.768C134.387 137.768 136.371 137.352 138.642 136.168L139.891 139.496C137.747 140.584 134.739 141.576 131.795 141.576C125.843 141.576 121.907 137.8 121.907 133C121.907 127.656 126.451 124.456 131.795 124.456C136.659 124.456 140.307 127.624 140.307 131.944C140.307 132.648 140.211 133.384 140.019 134.12H126.259C126.867 136.456 129.203 137.768 132.211 137.768ZM131.539 128.008C128.786 128.008 126.995 129.064 126.355 131.016H136.051C135.635 129.128 134.035 128.008 131.539 128.008ZM153.405 128.424C150.749 128.424 148.093 129.896 148.093 133.064V141H143.869V125H148.093V128.552C149.213 126.472 151.581 124.52 154.621 124.52C158.973 124.52 161.469 127.4 161.469 131.752V141H157.245V132.264C157.245 129.992 155.933 128.424 153.405 128.424ZM173.421 128.68V125.32L176.589 125.128L177.165 120.2H180.685V125H187.341V128.68H180.685V134.728C180.685 136.456 181.613 137.64 183.277 137.64C184.525 137.64 185.933 137.128 186.957 136.488L187.885 140.104C186.541 140.808 184.269 141.544 182.573 141.544C178.605 141.544 176.461 138.92 176.461 134.888V128.68H173.421ZM200.624 128.424C197.968 128.424 195.312 129.896 195.312 133.064V141H191.088V117.288H195.312V128.552C196.432 126.472 198.8 124.52 201.84 124.52C206.192 124.52 208.688 127.4 208.688 131.752V141H204.464V132.264C204.464 129.992 203.152 128.424 200.624 128.424ZM222.586 137.768C224.762 137.768 226.746 137.352 229.017 136.168L230.266 139.496C228.122 140.584 225.114 141.576 222.17 141.576C216.218 141.576 212.282 137.8 212.282 133C212.282 127.656 216.826 124.456 222.17 124.456C227.034 124.456 230.682 127.624 230.682 131.944C230.682 132.648 230.586 133.384 230.394 134.12H216.634C217.242 136.456 219.578 137.768 222.586 137.768ZM221.914 128.008C219.161 128.008 217.37 129.064 216.73 131.016H226.426C226.01 129.128 224.41 128.008 221.914 128.008ZM247.498 141H243.306V117H247.498V141ZM257.906 131.88C259.634 131.88 261.906 132.392 263.282 132.872V131.016C263.282 129.352 262.194 128.232 260.178 128.232C258.514 128.232 256.082 128.968 253.746 129.832L252.69 125.992C254.674 125.352 258.034 124.36 260.562 124.36C264.946 124.36 267.506 126.696 267.506 131.08V136.84C267.506 137.32 267.826 137.608 268.274 137.608C268.754 137.608 269.586 137.256 270.514 136.776L271.378 140.04C269.618 141 267.698 141.64 266.386 141.64C264.242 141.64 263.346 140.136 263.282 138.344C261.746 140.168 259.314 141.64 256.594 141.64C253.586 141.64 251.346 139.656 251.346 136.776C251.346 133.352 254.61 131.88 257.906 131.88ZM257.97 138.024C259.57 138.024 261.778 137.16 263.282 135.688V135.08C261.522 134.76 259.666 134.6 258.13 134.6C256.722 134.6 255.666 135.272 255.666 136.424C255.666 137.48 256.626 138.024 257.97 138.024ZM292.015 141L287.311 130.056L282.575 141H278.255L271.247 125H275.823L280.463 136.008L285.103 125H289.519L294.159 135.976L298.831 125H303.311L296.303 141H292.015Z" fill="#CDFFE3"></path><path d="M45.706 218H44.194L40.54 205.4H41.872L44.986 216.29L48.262 205.4H49.738L53.014 216.29L56.128 205.4H57.46L53.806 218H52.294L49 207.056L45.706 218ZM62.3457 208.784C63.6897 208.784 64.7637 209.258 65.5677 210.206C66.3957 211.142 66.8097 212.252 66.8097 213.536C66.8097 213.596 66.7977 213.782 66.7737 214.094H58.8717C58.9917 214.994 59.3757 215.714 60.0237 216.254C60.6717 216.794 61.4817 217.064 62.4537 217.064C63.8217 217.064 64.7877 216.554 65.3517 215.534L66.3957 216.146C65.9997 216.794 65.4537 217.304 64.7577 217.676C64.0737 218.036 63.2997 218.216 62.4357 218.216C61.0197 218.216 59.8677 217.772 58.9797 216.884C58.0917 215.996 57.6477 214.868 57.6477 213.5C57.6477 212.144 58.0857 211.022 58.9617 210.134C59.8377 209.234 60.9657 208.784 62.3457 208.784ZM62.3457 209.936C61.4097 209.936 60.6237 210.212 59.9877 210.764C59.3637 211.316 58.9917 212.042 58.8717 212.942H65.5857C65.4537 211.982 65.0877 211.244 64.4877 210.728C63.8637 210.2 63.1497 209.936 62.3457 209.936ZM69.8875 209V210.494C70.4395 209.402 71.3875 208.856 72.7315 208.856V210.008C71.8675 210.008 71.1775 210.26 70.6615 210.764C70.1455 211.256 69.8875 212 69.8875 212.996V218H68.6995V209H69.8875ZM77.9727 208.784C79.3167 208.784 80.3907 209.258 81.1947 210.206C82.0227 211.142 82.4367 212.252 82.4367 213.536C82.4367 213.596 82.4247 213.782 82.4007 214.094H74.4987C74.6187 214.994 75.0027 215.714 75.6507 216.254C76.2987 216.794 77.1087 217.064 78.0807 217.064C79.4487 217.064 80.4147 216.554 80.9787 215.534L82.0227 216.146C81.6267 216.794 81.0807 217.304 80.3847 217.676C79.7007 218.036 78.9267 218.216 78.0627 218.216C76.6467 218.216 75.4947 217.772 74.6067 216.884C73.7187 215.996 73.2747 214.868 73.2747 213.5C73.2747 212.144 73.7127 211.022 74.5887 210.134C75.4647 209.234 76.5927 208.784 77.9727 208.784ZM77.9727 209.936C77.0367 209.936 76.2507 210.212 75.6147 210.764C74.9907 211.316 74.6187 212.042 74.4987 212.942H81.2127C81.0807 211.982 80.7147 211.244 80.1147 210.728C79.4907 210.2 78.7767 209.936 77.9727 209.936ZM92.3904 216.542L95.3064 209H96.5664L92.7144 218.828C92.3544 219.74 91.8504 220.442 91.2024 220.934C90.5664 221.438 89.8584 221.66 89.0784 221.6V220.484C90.1584 220.616 90.9804 219.992 91.5444 218.612L91.7784 218.054L87.7464 209H89.0064L92.3904 216.542ZM105.193 216.866C104.269 217.766 103.153 218.216 101.845 218.216C100.513 218.216 99.3906 217.766 98.4786 216.866C97.5666 215.954 97.1106 214.832 97.1106 213.5C97.1106 212.168 97.5666 211.052 98.4786 210.152C99.3906 209.24 100.513 208.784 101.845 208.784C103.165 208.784 104.281 209.24 105.193 210.152C106.117 211.052 106.579 212.168 106.579 213.5C106.579 214.82 106.117 215.942 105.193 216.866ZM99.3246 216.038C100.009 216.722 100.849 217.064 101.845 217.064C102.841 217.064 103.681 216.722 104.365 216.038C105.049 215.33 105.391 214.484 105.391 213.5C105.391 212.504 105.049 211.664 104.365 210.98C103.681 210.284 102.841 209.936 101.845 209.936C100.849 209.936 100.009 210.284 99.3246 210.98C98.6406 211.664 98.2986 212.504 98.2986 213.5C98.2986 214.484 98.6406 215.33 99.3246 216.038ZM114.903 213.716V209H116.091V218H114.903V216.596C114.231 217.676 113.223 218.216 111.879 218.216C110.799 218.216 109.941 217.886 109.305 217.226C108.669 216.554 108.351 215.654 108.351 214.526V209H109.539V214.526C109.539 215.33 109.749 215.954 110.169 216.398C110.601 216.842 111.207 217.064 111.987 217.064C112.887 217.064 113.595 216.782 114.111 216.218C114.639 215.654 114.903 214.82 114.903 213.716ZM127.298 218.216C125.942 218.216 124.814 217.766 123.914 216.866C123.014 215.942 122.564 214.82 122.564 213.5C122.564 212.168 123.014 211.052 123.914 210.152C124.814 209.24 125.942 208.784 127.298 208.784C128.186 208.784 128.984 209 129.692 209.432C130.4 209.852 130.916 210.422 131.24 211.142L130.268 211.7C130.028 211.16 129.638 210.734 129.098 210.422C128.57 210.098 127.97 209.936 127.298 209.936C126.302 209.936 125.462 210.284 124.778 210.98C124.094 211.664 123.752 212.504 123.752 213.5C123.752 214.484 124.094 215.33 124.778 216.038C125.462 216.722 126.302 217.064 127.298 217.064C127.958 217.064 128.552 216.908 129.08 216.596C129.62 216.284 130.04 215.852 130.34 215.3L131.33 215.876C130.958 216.596 130.412 217.166 129.692 217.586C128.972 218.006 128.174 218.216 127.298 218.216ZM140.688 210.764V209H141.876V218H140.688V216.236C139.86 217.556 138.648 218.216 137.052 218.216C135.768 218.216 134.67 217.76 133.758 216.848C132.858 215.936 132.408 214.82 132.408 213.5C132.408 212.18 132.858 211.064 133.758 210.152C134.67 209.24 135.768 208.784 137.052 208.784C138.648 208.784 139.86 209.444 140.688 210.764ZM134.622 216.038C135.306 216.722 136.146 217.064 137.142 217.064C138.138 217.064 138.978 216.722 139.662 216.038C140.346 215.33 140.688 214.484 140.688 213.5C140.688 212.504 140.346 211.664 139.662 210.98C138.978 210.284 138.138 209.936 137.142 209.936C136.146 209.936 135.306 210.284 134.622 210.98C133.938 211.664 133.596 212.504 133.596 213.5C133.596 214.484 133.938 215.33 134.622 216.038ZM150.727 213.716V209H151.915V218H150.727V216.596C150.055 217.676 149.047 218.216 147.703 218.216C146.623 218.216 145.765 217.886 145.129 217.226C144.493 216.554 144.175 215.654 144.175 214.526V209H145.363V214.526C145.363 215.33 145.573 215.954 145.993 216.398C146.425 216.842 147.031 217.064 147.811 217.064C148.711 217.064 149.419 216.782 149.935 216.218C150.463 215.654 150.727 214.82 150.727 213.716ZM162.168 210.764V209H163.356V217.64C163.356 218.936 162.912 219.956 162.024 220.7C161.136 221.444 160.074 221.816 158.838 221.816C156.738 221.816 155.316 221.084 154.572 219.62L155.616 219.026C156.156 220.118 157.23 220.664 158.838 220.664C159.87 220.664 160.68 220.394 161.268 219.854C161.868 219.314 162.168 218.576 162.168 217.64V216.236C161.34 217.556 160.128 218.216 158.532 218.216C157.248 218.216 156.15 217.76 155.238 216.848C154.338 215.936 153.888 214.82 153.888 213.5C153.888 212.18 154.338 211.064 155.238 210.152C156.15 209.24 157.248 208.784 158.532 208.784C160.128 208.784 161.34 209.444 162.168 210.764ZM156.102 216.038C156.786 216.722 157.626 217.064 158.622 217.064C159.618 217.064 160.458 216.722 161.142 216.038C161.826 215.33 162.168 214.484 162.168 213.5C162.168 212.504 161.826 211.664 161.142 210.98C160.458 210.284 159.618 209.936 158.622 209.936C157.626 209.936 156.786 210.284 156.102 210.98C155.418 211.664 155.076 212.504 155.076 213.5C155.076 214.484 155.418 215.33 156.102 216.038ZM170.083 208.784C171.163 208.784 172.021 209.12 172.657 209.792C173.293 210.452 173.611 211.346 173.611 212.474V218H172.423V212.474C172.423 211.67 172.207 211.046 171.775 210.602C171.355 210.158 170.755 209.936 169.975 209.936C169.075 209.936 168.361 210.218 167.833 210.782C167.317 211.346 167.059 212.18 167.059 213.284V218H165.871V205.4H167.059V210.404C167.731 209.324 168.739 208.784 170.083 208.784ZM180.678 209V210.152H178.086V215.606C178.086 216.098 178.182 216.452 178.374 216.668C178.566 216.872 178.854 216.98 179.238 216.992C179.622 216.992 180.102 216.98 180.678 216.956V218C179.394 218.192 178.44 218.102 177.816 217.73C177.204 217.346 176.898 216.638 176.898 215.606V210.152H175.008V209H176.898V206.84L178.086 206.48V209H180.678ZM191.982 208.784C193.266 208.784 194.358 209.24 195.258 210.152C196.17 211.064 196.626 212.18 196.626 213.5C196.626 214.82 196.17 215.936 195.258 216.848C194.358 217.76 193.266 218.216 191.982 218.216C190.386 218.216 189.174 217.556 188.346 216.236V218H187.158V205.4H188.346V210.764C189.174 209.444 190.386 208.784 191.982 208.784ZM189.372 216.038C190.056 216.722 190.896 217.064 191.892 217.064C192.888 217.064 193.728 216.722 194.412 216.038C195.096 215.33 195.438 214.484 195.438 213.5C195.438 212.504 195.096 211.664 194.412 210.98C193.728 210.284 192.888 209.936 191.892 209.936C190.896 209.936 190.056 210.284 189.372 210.98C188.688 211.664 188.346 212.504 188.346 213.5C188.346 214.484 188.688 215.33 189.372 216.038ZM201.814 216.542L204.73 209H205.99L202.138 218.828C201.778 219.74 201.274 220.442 200.626 220.934C199.99 221.438 199.282 221.66 198.502 221.6V220.484C199.582 220.616 200.404 219.992 200.968 218.612L201.202 218.054L197.17 209H198.43L201.814 216.542ZM216.696 209V210.152H214.104V215.606C214.104 216.098 214.2 216.452 214.392 216.668C214.584 216.872 214.872 216.98 215.256 216.992C215.64 216.992 216.12 216.98 216.696 216.956V218C215.412 218.192 214.458 218.102 213.834 217.73C213.222 217.346 212.916 216.638 212.916 215.606V210.152H211.026V209H212.916V206.84L214.104 206.48V209H216.696ZM222.888 208.784C223.968 208.784 224.826 209.12 225.462 209.792C226.098 210.452 226.416 211.346 226.416 212.474V218H225.228V212.474C225.228 211.67 225.012 211.046 224.58 210.602C224.16 210.158 223.56 209.936 222.78 209.936C221.88 209.936 221.166 210.218 220.638 210.782C220.122 211.346 219.864 212.18 219.864 213.284V218H218.676V205.4H219.864V210.404C220.536 209.324 221.544 208.784 222.888 208.784ZM232.871 208.784C234.215 208.784 235.289 209.258 236.093 210.206C236.921 211.142 237.335 212.252 237.335 213.536C237.335 213.596 237.323 213.782 237.299 214.094H229.397C229.517 214.994 229.901 215.714 230.549 216.254C231.197 216.794 232.007 217.064 232.979 217.064C234.347 217.064 235.313 216.554 235.877 215.534L236.921 216.146C236.525 216.794 235.979 217.304 235.283 217.676C234.599 218.036 233.825 218.216 232.961 218.216C231.545 218.216 230.393 217.772 229.505 216.884C228.617 215.996 228.173 214.868 228.173 213.5C228.173 212.144 228.611 211.022 229.487 210.134C230.363 209.234 231.491 208.784 232.871 208.784ZM232.871 209.936C231.935 209.936 231.149 210.212 230.513 210.764C229.889 211.316 229.517 212.042 229.397 212.942H236.111C235.979 211.982 235.613 211.244 235.013 210.728C234.389 210.2 233.675 209.936 232.871 209.936ZM248.549 208.784C249.833 208.784 250.925 209.24 251.825 210.152C252.737 211.064 253.193 212.18 253.193 213.5C253.193 214.82 252.737 215.936 251.825 216.848C250.925 217.76 249.833 218.216 248.549 218.216C246.953 218.216 245.741 217.556 244.913 216.236V221.6H243.725V209H244.913V210.764C245.741 209.444 246.953 208.784 248.549 208.784ZM245.939 216.038C246.623 216.722 247.463 217.064 248.459 217.064C249.455 217.064 250.295 216.722 250.979 216.038C251.663 215.33 252.005 214.484 252.005 213.5C252.005 212.504 251.663 211.664 250.979 210.98C250.295 210.284 249.455 209.936 248.459 209.936C247.463 209.936 246.623 210.284 245.939 210.98C245.255 211.664 244.913 212.504 244.913 213.5C244.913 214.484 245.255 215.33 245.939 216.038ZM262.71 216.866C261.786 217.766 260.67 218.216 259.362 218.216C258.03 218.216 256.908 217.766 255.996 216.866C255.084 215.954 254.628 214.832 254.628 213.5C254.628 212.168 255.084 211.052 255.996 210.152C256.908 209.24 258.03 208.784 259.362 208.784C260.682 208.784 261.798 209.24 262.71 210.152C263.634 211.052 264.096 212.168 264.096 213.5C264.096 214.82 263.634 215.942 262.71 216.866ZM256.842 216.038C257.526 216.722 258.366 217.064 259.362 217.064C260.358 217.064 261.198 216.722 261.882 216.038C262.566 215.33 262.908 214.484 262.908 213.5C262.908 212.504 262.566 211.664 261.882 210.98C261.198 210.284 260.358 209.936 259.362 209.936C258.366 209.936 257.526 210.284 256.842 210.98C256.158 211.664 255.816 212.504 255.816 213.5C255.816 214.484 256.158 215.33 256.842 216.038ZM267.272 218H266.084V204.86H267.272V218ZM271.251 206.228C271.251 206.468 271.167 206.672 270.999 206.84C270.831 207.008 270.627 207.092 270.387 207.092C270.147 207.092 269.943 207.008 269.775 206.84C269.607 206.672 269.523 206.468 269.523 206.228C269.523 205.988 269.607 205.784 269.775 205.616C269.943 205.448 270.147 205.364 270.387 205.364C270.627 205.364 270.831 205.448 270.999 205.616C271.167 205.784 271.251 205.988 271.251 206.228ZM270.981 218H269.793V209H270.981V218ZM277.696 218.216C276.34 218.216 275.212 217.766 274.312 216.866C273.412 215.942 272.962 214.82 272.962 213.5C272.962 212.168 273.412 211.052 274.312 210.152C275.212 209.24 276.34 208.784 277.696 208.784C278.584 208.784 279.382 209 280.09 209.432C280.798 209.852 281.314 210.422 281.638 211.142L280.666 211.7C280.426 211.16 280.036 210.734 279.496 210.422C278.968 210.098 278.368 209.936 277.696 209.936C276.7 209.936 275.86 210.284 275.176 210.98C274.492 211.664 274.15 212.504 274.15 213.5C274.15 214.484 274.492 215.33 275.176 216.038C275.86 216.722 276.7 217.064 277.696 217.064C278.356 217.064 278.95 216.908 279.478 216.596C280.018 216.284 280.438 215.852 280.738 215.3L281.728 215.876C281.356 216.596 280.81 217.166 280.09 217.586C279.37 218.006 278.572 218.216 277.696 218.216ZM287.504 208.784C288.848 208.784 289.922 209.258 290.726 210.206C291.554 211.142 291.968 212.252 291.968 213.536C291.968 213.596 291.956 213.782 291.932 214.094H284.03C284.15 214.994 284.534 215.714 285.182 216.254C285.83 216.794 286.64 217.064 287.612 217.064C288.98 217.064 289.946 216.554 290.51 215.534L291.554 216.146C291.158 216.794 290.612 217.304 289.916 217.676C289.232 218.036 288.458 218.216 287.594 218.216C286.178 218.216 285.026 217.772 284.138 216.884C283.25 215.996 282.806 214.868 282.806 213.5C282.806 212.144 283.244 211.022 284.12 210.134C284.996 209.234 286.124 208.784 287.504 208.784ZM287.504 209.936C286.568 209.936 285.782 210.212 285.146 210.764C284.522 211.316 284.15 212.042 284.03 212.942H290.744C290.612 211.982 290.246 211.244 289.646 210.728C289.022 210.2 288.308 209.936 287.504 209.936ZM296.741 214.58H295.481C295.481 213.5 295.889 212.552 296.705 211.736C296.801 211.64 296.993 211.454 297.281 211.178C297.581 210.902 297.797 210.692 297.929 210.548C298.061 210.404 298.223 210.212 298.415 209.972C298.607 209.72 298.739 209.48 298.811 209.252C298.895 209.012 298.937 208.766 298.937 208.514C298.937 207.842 298.703 207.326 298.235 206.966C297.779 206.594 297.167 206.408 296.399 206.408C294.923 206.408 294.011 207.014 293.663 208.226L292.601 207.632C292.877 206.852 293.351 206.252 294.023 205.832C294.707 205.4 295.499 205.184 296.399 205.184C297.455 205.184 298.349 205.478 299.081 206.066C299.825 206.642 300.197 207.458 300.197 208.514C300.197 209.438 299.789 210.308 298.973 211.124C298.925 211.16 298.781 211.292 298.541 211.52C298.313 211.736 298.163 211.886 298.091 211.97C298.019 212.042 297.887 212.18 297.695 212.384C297.503 212.588 297.371 212.756 297.299 212.888C297.227 213.02 297.137 213.188 297.029 213.392C296.921 213.584 296.843 213.782 296.795 213.986C296.759 214.178 296.741 214.376 296.741 214.58ZM297.101 217.19C297.101 217.466 297.005 217.7 296.813 217.892C296.621 218.084 296.387 218.18 296.111 218.18C295.835 218.18 295.601 218.084 295.409 217.892C295.217 217.7 295.121 217.466 295.121 217.19C295.121 216.914 295.217 216.68 295.409 216.488C295.601 216.296 295.835 216.2 296.111 216.2C296.387 216.2 296.621 216.296 296.813 216.488C297.005 216.68 297.101 216.914 297.101 217.19Z" fill="#CDFFE3"></path></svg> 