<?xml version="1.0" encoding="UTF-8"?> <svg xmlns="http://www.w3.org/2000/svg" width="400" height="600" viewBox="0 0 400 600" fill="none"> <rect width="400" height="600" rx="20" fill="#36BB71"></rect> <path d="M47.296 84.136L60.8 101H65.952V78.6H61.536V95.464L48.032 78.6H42.88V101H47.296V84.136ZM80.4918 97.768C77.4838 97.768 75.1478 96.456 74.5398 94.12H88.2998C88.4918 93.384 88.5878 92.648 88.5878 91.944C88.5878 87.624 84.9398 84.456 80.0758 84.456C74.7318 84.456 70.1878 87.656 70.1878 93C70.1878 97.8 74.1238 101.576 80.0758 101.576C83.0198 101.576 86.0278 100.584 88.1718 99.496L86.9237 96.168C84.6518 97.352 82.6678 97.768 80.4918 97.768ZM79.8198 88.008C82.3158 88.008 83.9158 89.128 84.3318 91.016H74.6358C75.2758 89.064 77.0677 88.008 79.8198 88.008ZM94.39 85H89.75L97.302 101H101.942L109.526 85H104.822L99.638 96.232L94.39 85ZM121.179 97.768C118.171 97.768 115.835 96.456 115.227 94.12H128.987C129.179 93.384 129.275 92.648 129.275 91.944C129.275 87.624 125.627 84.456 120.763 84.456C115.419 84.456 110.875 87.656 110.875 93C110.875 97.8 114.811 101.576 120.763 101.576C123.707 101.576 126.715 100.584 128.859 99.496L127.611 96.168C125.339 97.352 123.355 97.768 121.179 97.768ZM120.507 88.008C123.003 88.008 124.603 89.128 125.019 91.016H115.323C115.963 89.064 117.755 88.008 120.507 88.008ZM142.982 84.456C140.198 84.456 137.99 86.824 137.062 88.552V85H132.838V101H137.062V93.064C137.062 90.12 139.91 88.392 142.566 88.392C143.174 88.392 144.006 88.584 144.774 88.936L145.67 85.096C144.87 84.712 143.878 84.456 142.982 84.456ZM166.436 88.424C168.964 88.424 170.276 89.992 170.276 92.264V101H174.5V91.752C174.5 87.4 172.004 84.52 167.652 84.52C164.612 84.52 162.244 86.472 161.124 88.552V77.288H156.9V101H161.124V93.064C161.124 89.896 163.78 88.424 166.436 88.424ZM184.75 91.88C181.454 91.88 178.19 93.352 178.19 96.776C178.19 99.656 180.43 101.64 183.438 101.64C186.158 101.64 188.59 100.168 190.126 98.344C190.19 100.136 191.086 101.64 193.23 101.64C194.542 101.64 196.462 101 198.222 100.04L197.358 96.776C196.43 97.256 195.598 97.608 195.118 97.608C194.67 97.608 194.35 97.32 194.35 96.84V91.08C194.35 86.696 191.79 84.36 187.406 84.36C184.878 84.36 181.518 85.352 179.534 85.992L180.59 89.832C182.926 88.968 185.358 88.232 187.022 88.232C189.038 88.232 190.126 89.352 190.126 91.016V92.872C188.75 92.392 186.478 91.88 184.75 91.88ZM184.814 98.024C183.47 98.024 182.51 97.48 182.51 96.424C182.51 95.272 183.566 94.6 184.974 94.6C186.51 94.6 188.366 94.76 190.126 95.08V95.688C188.622 97.16 186.414 98.024 184.814 98.024ZM202.859 85H198.219L205.771 101H210.411L217.995 85H213.291L208.107 96.232L202.859 85ZM229.648 97.768C226.64 97.768 224.304 96.456 223.696 94.12H237.456C237.648 93.384 237.744 92.648 237.744 91.944C237.744 87.624 234.096 84.456 229.232 84.456C223.888 84.456 219.344 87.656 219.344 93C219.344 97.8 223.28 101.576 229.232 101.576C232.176 101.576 235.184 100.584 237.328 99.496L236.08 96.168C233.808 97.352 231.824 97.768 229.648 97.768ZM228.976 88.008C231.472 88.008 233.072 89.128 233.488 91.016H223.792C224.432 89.064 226.224 88.008 228.976 88.008ZM255.265 78.6H250.849V101H255.265V78.6ZM278.867 97.768C275.859 97.768 273.523 96.456 272.915 94.12H286.675C286.867 93.384 286.963 92.648 286.963 91.944C286.963 87.624 283.315 84.456 278.451 84.456C273.107 84.456 268.563 87.656 268.563 93C268.563 97.8 272.499 101.576 278.451 101.576C281.395 101.576 284.403 100.584 286.547 99.496L285.299 96.168C283.027 97.352 281.043 97.768 278.867 97.768ZM278.195 88.008C280.691 88.008 282.291 89.128 282.707 91.016H273.011C273.651 89.064 275.443 88.008 278.195 88.008ZM292.765 85H288.125L295.677 101H300.317L307.901 85H303.197L298.013 96.232L292.765 85ZM319.554 97.768C316.546 97.768 314.21 96.456 313.602 94.12H327.362C327.554 93.384 327.65 92.648 327.65 91.944C327.65 87.624 324.002 84.456 319.138 84.456C313.794 84.456 309.25 87.656 309.25 93C309.25 97.8 313.186 101.576 319.138 101.576C322.082 101.576 325.09 100.584 327.234 99.496L325.986 96.168C323.714 97.352 321.73 97.768 319.554 97.768ZM318.882 88.008C321.378 88.008 322.978 89.128 323.394 91.016H313.698C314.338 89.064 316.13 88.008 318.882 88.008ZM341.357 84.456C338.573 84.456 336.365 86.824 335.437 88.552V85H331.213V101H335.437V93.064C335.437 90.12 338.285 88.392 340.941 88.392C341.549 88.392 342.381 88.584 343.149 88.936L344.045 85.096C343.245 84.712 342.253 84.456 341.357 84.456ZM53.376 124.456C50.208 124.456 47.68 126.344 46.624 128.552V117H42.4V139.4C44.48 140.328 48.832 141.576 52.032 141.576C57.28 141.576 61.312 137.64 61.312 132.84C61.312 127.656 57.632 124.456 53.376 124.456ZM52.128 128.392C54.912 128.392 57.056 129.96 57.056 132.84C57.056 135.528 54.72 137.864 52.096 137.864C50.144 137.864 48.48 137.544 46.624 136.936V133.064C46.624 130.12 49.44 128.392 52.128 128.392ZM75.2003 124.456C72.4163 124.456 70.2083 126.824 69.2803 128.552V125H65.0563V141H69.2803V133.064C69.2803 130.12 72.1283 128.392 74.7843 128.392C75.3923 128.392 76.2243 128.584 76.9923 128.936L77.8883 125.096C77.0883 124.712 76.0963 124.456 75.2003 124.456ZM88.9523 124.456C83.6083 124.456 79.0003 127.496 79.0003 132.84C79.0003 137.64 83.1603 141.576 88.9523 141.576C94.7443 141.576 98.9043 137.64 98.9043 132.84C98.9043 127.496 94.2963 124.456 88.9523 124.456ZM88.9523 128.136C92.2803 128.136 94.6483 129.864 94.6483 132.84C94.6483 135.528 92.1203 137.928 88.9523 137.928C85.7843 137.928 83.2563 135.528 83.2563 132.84C83.2563 129.864 85.6243 128.136 88.9523 128.136ZM106.81 117H102.65V141H106.81V117ZM112.666 139.848C113.53 140.872 114.554 141.416 115.642 141.416C116.922 141.416 118.298 140.808 119.77 140.168L118.778 136.744C118.01 137.064 117.306 137.416 116.666 137.416C116.314 137.416 115.994 137.32 115.706 137.032L111.962 133.16L119.674 125H114.266L107.034 133.288L112.666 139.848ZM132.211 137.768C129.203 137.768 126.867 136.456 126.259 134.12H140.019C140.211 133.384 140.307 132.648 140.307 131.944C140.307 127.624 136.659 124.456 131.795 124.456C126.451 124.456 121.907 127.656 121.907 133C121.907 137.8 125.843 141.576 131.795 141.576C134.739 141.576 137.747 140.584 139.891 139.496L138.642 136.168C136.371 137.352 134.387 137.768 132.211 137.768ZM131.539 128.008C134.035 128.008 135.635 129.128 136.051 131.016H126.355C126.995 129.064 128.786 128.008 131.539 128.008ZM153.405 128.424C155.933 128.424 157.245 129.992 157.245 132.264V141H161.469V131.752C161.469 127.4 158.973 124.52 154.621 124.52C151.581 124.52 149.213 126.472 148.093 128.552V125H143.869V141H148.093V133.064C148.093 129.896 150.749 128.424 153.405 128.424ZM173.421 128.68H176.461V134.888C176.461 138.92 178.605 141.544 182.573 141.544C184.269 141.544 186.541 140.808 187.885 140.104L186.957 136.488C185.933 137.128 184.525 137.64 183.277 137.64C181.613 137.64 180.685 136.456 180.685 134.728V128.68H187.341V125H180.685V120.2H177.165L176.589 125.128L173.421 125.32V128.68ZM200.624 128.424C203.152 128.424 204.464 129.992 204.464 132.264V141H208.688V131.752C208.688 127.4 206.192 124.52 201.84 124.52C198.8 124.52 196.432 126.472 195.312 128.552V117.288H191.088V141H195.312V133.064C195.312 129.896 197.968 128.424 200.624 128.424ZM222.586 137.768C219.578 137.768 217.242 136.456 216.634 134.12H230.394C230.586 133.384 230.682 132.648 230.682 131.944C230.682 127.624 227.034 124.456 222.17 124.456C216.826 124.456 212.282 127.656 212.282 133C212.282 137.8 216.218 141.576 222.17 141.576C225.114 141.576 228.122 140.584 230.266 139.496L229.017 136.168C226.746 137.352 224.762 137.768 222.586 137.768ZM221.914 128.008C224.41 128.008 226.01 129.128 226.426 131.016H216.73C217.37 129.064 219.161 128.008 221.914 128.008ZM247.498 141V117H243.306V141H247.498ZM257.906 131.88C254.61 131.88 251.346 133.352 251.346 136.776C251.346 139.656 253.586 141.64 256.594 141.64C259.314 141.64 261.746 140.168 263.282 138.344C263.346 140.136 264.242 141.64 266.386 141.64C267.698 141.64 269.618 141 271.378 140.04L270.514 136.776C269.586 137.256 268.754 137.608 268.274 137.608C267.826 137.608 267.506 137.32 267.506 136.84V131.08C267.506 126.696 264.946 124.36 260.562 124.36C258.034 124.36 254.674 125.352 252.69 125.992L253.746 129.832C256.082 128.968 258.514 128.232 260.178 128.232C262.194 128.232 263.282 129.352 263.282 131.016V132.872C261.906 132.392 259.634 131.88 257.906 131.88ZM257.97 138.024C256.626 138.024 255.666 137.48 255.666 136.424C255.666 135.272 256.722 134.6 258.13 134.6C259.666 134.6 261.522 134.76 263.282 135.08V135.688C261.778 137.16 259.57 138.024 257.97 138.024ZM292.015 141H296.303L303.311 125H298.831L294.159 135.976L289.519 125H285.103L280.463 136.008L275.823 125H271.247L278.255 141H282.575L287.311 130.056L292.015 141Z" fill="#CDFFE3"></path> <path d="M44.194 220L40.54 207.4H41.872L44.986 218.29L48.262 207.4H49.738L53.014 218.29L56.128 207.4H57.46L53.806 220H52.294L49 209.056L45.706 220H44.194ZM62.3457 210.784C63.6777 210.784 64.7517 211.258 65.5677 212.206C66.3957 213.142 66.8097 214.252 66.8097 215.536C66.8097 215.668 66.7977 215.854 66.7737 216.094H58.8717C58.9917 217.006 59.3757 217.732 60.0237 218.272C60.6837 218.8 61.4937 219.064 62.4537 219.064C63.1377 219.064 63.7257 218.926 64.2177 218.65C64.7217 218.362 65.0997 217.99 65.3517 217.534L66.3957 218.146C65.9997 218.782 65.4597 219.286 64.7757 219.658C64.0917 220.03 63.3117 220.216 62.4357 220.216C61.0197 220.216 59.8677 219.772 58.9797 218.884C58.0917 217.996 57.6477 216.868 57.6477 215.5C57.6477 214.156 58.0857 213.034 58.9617 212.134C59.8377 211.234 60.9657 210.784 62.3457 210.784ZM62.3457 211.936C61.4097 211.936 60.6237 212.218 59.9877 212.782C59.3637 213.334 58.9917 214.054 58.8717 214.942H65.5857C65.4657 213.994 65.0997 213.256 64.4877 212.728C63.8757 212.2 63.1617 211.936 62.3457 211.936ZM69.8875 212.494C70.4395 211.402 71.3875 210.856 72.7315 210.856V212.008C71.9155 212.008 71.2375 212.248 70.6975 212.728C70.1575 213.208 69.8875 213.964 69.8875 214.996V220H68.6995V211H69.8875V212.494ZM77.9727 210.784C79.3047 210.784 80.3787 211.258 81.1947 212.206C82.0227 213.142 82.4367 214.252 82.4367 215.536C82.4367 215.668 82.4247 215.854 82.4007 216.094H74.4987C74.6187 217.006 75.0027 217.732 75.6507 218.272C76.3107 218.8 77.1207 219.064 78.0807 219.064C78.7647 219.064 79.3527 218.926 79.8447 218.65C80.3487 218.362 80.7267 217.99 80.9787 217.534L82.0227 218.146C81.6267 218.782 81.0867 219.286 80.4027 219.658C79.7187 220.03 78.9387 220.216 78.0627 220.216C76.6467 220.216 75.4947 219.772 74.6067 218.884C73.7187 217.996 73.2747 216.868 73.2747 215.5C73.2747 214.156 73.7127 213.034 74.5887 212.134C75.4647 211.234 76.5927 210.784 77.9727 210.784ZM77.9727 211.936C77.0367 211.936 76.2507 212.218 75.6147 212.782C74.9907 213.334 74.6187 214.054 74.4987 214.942H81.2127C81.0927 213.994 80.7267 213.256 80.1147 212.728C79.5027 212.2 78.7887 211.936 77.9727 211.936ZM95.3064 211H96.5664L92.7144 220.828C92.3664 221.716 91.8684 222.412 91.2204 222.916C90.5844 223.432 89.8704 223.66 89.0784 223.6V222.484C90.1584 222.604 90.9804 221.98 91.5444 220.612L91.7784 220.054L87.7464 211H89.0064L92.3904 218.542L95.3064 211ZM105.193 218.866C104.281 219.766 103.165 220.216 101.845 220.216C100.525 220.216 99.4026 219.766 98.4786 218.866C97.5666 217.954 97.1106 216.832 97.1106 215.5C97.1106 214.168 97.5666 213.052 98.4786 212.152C99.4026 211.24 100.525 210.784 101.845 210.784C103.165 210.784 104.281 211.24 105.193 212.152C106.117 213.052 106.579 214.168 106.579 215.5C106.579 216.832 106.117 217.954 105.193 218.866ZM99.3246 218.038C100.009 218.722 100.849 219.064 101.845 219.064C102.841 219.064 103.681 218.722 104.365 218.038C105.049 217.342 105.391 216.496 105.391 215.5C105.391 214.504 105.049 213.664 104.365 212.98C103.681 212.284 102.841 211.936 101.845 211.936C100.849 211.936 100.009 212.284 99.3246 212.98C98.6406 213.664 98.2986 214.504 98.2986 215.5C98.2986 216.496 98.6406 217.342 99.3246 218.038ZM114.903 211H116.091V220H114.903V218.596C114.231 219.676 113.223 220.216 111.879 220.216C110.787 220.216 109.923 219.886 109.287 219.226C108.663 218.554 108.351 217.654 108.351 216.526V211H109.539V216.526C109.539 217.33 109.749 217.954 110.169 218.398C110.601 218.842 111.207 219.064 111.987 219.064C112.851 219.064 113.553 218.794 114.093 218.254C114.633 217.702 114.903 216.856 114.903 215.716V211ZM127.298 220.216C125.942 220.216 124.814 219.766 123.914 218.866C123.014 217.954 122.564 216.832 122.564 215.5C122.564 214.168 123.014 213.052 123.914 212.152C124.814 211.24 125.942 210.784 127.298 210.784C128.186 210.784 128.984 211 129.692 211.432C130.4 211.852 130.916 212.422 131.24 213.142L130.268 213.7C130.028 213.16 129.638 212.734 129.098 212.422C128.57 212.098 127.97 211.936 127.298 211.936C126.302 211.936 125.462 212.284 124.778 212.98C124.094 213.664 123.752 214.504 123.752 215.5C123.752 216.496 124.094 217.342 124.778 218.038C125.462 218.722 126.302 219.064 127.298 219.064C127.97 219.064 128.57 218.908 129.098 218.596C129.626 218.272 130.04 217.84 130.34 217.3L131.33 217.876C130.958 218.596 130.412 219.166 129.692 219.586C128.972 220.006 128.174 220.216 127.298 220.216ZM140.688 211H141.876V220H140.688V218.236C139.86 219.556 138.648 220.216 137.052 220.216C135.768 220.216 134.67 219.76 133.758 218.848C132.858 217.936 132.408 216.82 132.408 215.5C132.408 214.18 132.858 213.064 133.758 212.152C134.67 211.24 135.768 210.784 137.052 210.784C138.648 210.784 139.86 211.444 140.688 212.764V211ZM134.622 218.038C135.306 218.722 136.146 219.064 137.142 219.064C138.138 219.064 138.978 218.722 139.662 218.038C140.346 217.342 140.688 216.496 140.688 215.5C140.688 214.504 140.346 213.664 139.662 212.98C138.978 212.284 138.138 211.936 137.142 211.936C136.146 211.936 135.306 212.284 134.622 212.98C133.938 213.664 133.596 214.504 133.596 215.5C133.596 216.496 133.938 217.342 134.622 218.038ZM150.727 211H151.915V220H150.727V218.596C150.055 219.676 149.047 220.216 147.703 220.216C146.611 220.216 145.747 219.886 145.111 219.226C144.487 218.554 144.175 217.654 144.175 216.526V211H145.363V216.526C145.363 217.33 145.573 217.954 145.993 218.398C146.425 218.842 147.031 219.064 147.811 219.064C148.675 219.064 149.377 218.794 149.917 218.254C150.457 217.702 150.727 216.856 150.727 215.716V211ZM162.168 211H163.356V219.64C163.356 220.936 162.912 221.956 162.024 222.7C161.136 223.444 160.074 223.816 158.838 223.816C156.726 223.816 155.304 223.084 154.572 221.62L155.616 221.026C156.156 222.118 157.23 222.664 158.838 222.664C159.87 222.664 160.68 222.388 161.268 221.836C161.868 221.296 162.168 220.564 162.168 219.64V218.236C161.34 219.556 160.128 220.216 158.532 220.216C157.248 220.216 156.15 219.76 155.238 218.848C154.338 217.936 153.888 216.82 153.888 215.5C153.888 214.18 154.338 213.064 155.238 212.152C156.15 211.24 157.248 210.784 158.532 210.784C160.128 210.784 161.34 211.444 162.168 212.764V211ZM156.102 218.038C156.786 218.722 157.626 219.064 158.622 219.064C159.618 219.064 160.458 218.722 161.142 218.038C161.826 217.342 162.168 216.496 162.168 215.5C162.168 214.504 161.826 213.664 161.142 212.98C160.458 212.284 159.618 211.936 158.622 211.936C157.626 211.936 156.786 212.284 156.102 212.98C155.418 213.664 155.076 214.504 155.076 215.5C155.076 216.496 155.418 217.342 156.102 218.038ZM170.083 210.784C171.175 210.784 172.033 211.12 172.657 211.792C173.293 212.452 173.611 213.346 173.611 214.474V220H172.423V214.474C172.423 213.67 172.207 213.046 171.775 212.602C171.355 212.158 170.755 211.936 169.975 211.936C169.111 211.936 168.409 212.212 167.869 212.764C167.329 213.304 167.059 214.144 167.059 215.284V220H165.871V207.4H167.059V212.404C167.731 211.324 168.739 210.784 170.083 210.784ZM180.678 212.152H178.086V217.606C178.086 218.098 178.182 218.452 178.374 218.668C178.566 218.872 178.854 218.98 179.238 218.992C179.622 218.992 180.102 218.98 180.678 218.956V220C179.418 220.192 178.47 220.102 177.834 219.73C177.21 219.358 176.898 218.65 176.898 217.606V212.152H175.008V211H176.898V208.84L178.086 208.48V211H180.678V212.152ZM191.982 210.784C193.266 210.784 194.358 211.24 195.258 212.152C196.17 213.064 196.626 214.18 196.626 215.5C196.626 216.82 196.17 217.936 195.258 218.848C194.358 219.76 193.266 220.216 191.982 220.216C190.386 220.216 189.174 219.556 188.346 218.236V220H187.158V207.4H188.346V212.764C189.174 211.444 190.386 210.784 191.982 210.784ZM189.372 218.038C190.056 218.722 190.896 219.064 191.892 219.064C192.888 219.064 193.728 218.722 194.412 218.038C195.096 217.342 195.438 216.496 195.438 215.5C195.438 214.504 195.096 213.664 194.412 212.98C193.728 212.284 192.888 211.936 191.892 211.936C190.896 211.936 190.056 212.284 189.372 212.98C188.688 213.664 188.346 214.504 188.346 215.5C188.346 216.496 188.688 217.342 189.372 218.038ZM204.73 211H205.99L202.138 220.828C201.79 221.716 201.292 222.412 200.644 222.916C200.008 223.432 199.294 223.66 198.502 223.6V222.484C199.582 222.604 200.404 221.98 200.968 220.612L201.202 220.054L197.17 211H198.43L201.814 218.542L204.73 211ZM216.75 210.784C218.034 210.784 219.126 211.24 220.026 212.152C220.938 213.064 221.394 214.18 221.394 215.5C221.394 216.82 220.938 217.936 220.026 218.848C219.126 219.76 218.034 220.216 216.75 220.216C215.154 220.216 213.942 219.556 213.114 218.236V223.6H211.926V211H213.114V212.764C213.942 211.444 215.154 210.784 216.75 210.784ZM214.14 218.038C214.824 218.722 215.664 219.064 216.66 219.064C217.656 219.064 218.496 218.722 219.18 218.038C219.864 217.342 220.206 216.496 220.206 215.5C220.206 214.504 219.864 213.664 219.18 212.98C218.496 212.284 217.656 211.936 216.66 211.936C215.664 211.936 214.824 212.284 214.14 212.98C213.456 213.664 213.114 214.504 213.114 215.5C213.114 216.496 213.456 217.342 214.14 218.038ZM230.911 218.866C229.999 219.766 228.883 220.216 227.563 220.216C226.243 220.216 225.121 219.766 224.197 218.866C223.285 217.954 222.829 216.832 222.829 215.5C222.829 214.168 223.285 213.052 224.197 212.152C225.121 211.24 226.243 210.784 227.563 210.784C228.883 210.784 229.999 211.24 230.911 212.152C231.835 213.052 232.297 214.168 232.297 215.5C232.297 216.832 231.835 217.954 230.911 218.866ZM225.043 218.038C225.727 218.722 226.567 219.064 227.563 219.064C228.559 219.064 229.399 218.722 230.083 218.038C230.767 217.342 231.109 216.496 231.109 215.5C231.109 214.504 230.767 213.664 230.083 212.98C229.399 212.284 228.559 211.936 227.563 211.936C226.567 211.936 225.727 212.284 225.043 212.98C224.359 213.664 224.017 214.504 224.017 215.5C224.017 216.496 224.359 217.342 225.043 218.038ZM234.285 220V206.86H235.473V220H234.285ZM239.2 208.84C239.032 209.008 238.828 209.092 238.588 209.092C238.348 209.092 238.144 209.008 237.976 208.84C237.808 208.672 237.724 208.468 237.724 208.228C237.724 207.988 237.808 207.784 237.976 207.616C238.144 207.448 238.348 207.364 238.588 207.364C238.828 207.364 239.032 207.448 239.2 207.616C239.368 207.784 239.452 207.988 239.452 208.228C239.452 208.468 239.368 208.672 239.2 208.84ZM237.994 220V211H239.182V220H237.994ZM245.897 220.216C244.541 220.216 243.413 219.766 242.513 218.866C241.613 217.954 241.163 216.832 241.163 215.5C241.163 214.168 241.613 213.052 242.513 212.152C243.413 211.24 244.541 210.784 245.897 210.784C246.785 210.784 247.583 211 248.291 211.432C248.999 211.852 249.515 212.422 249.839 213.142L248.867 213.7C248.627 213.16 248.237 212.734 247.697 212.422C247.169 212.098 246.569 211.936 245.897 211.936C244.901 211.936 244.061 212.284 243.377 212.98C242.693 213.664 242.351 214.504 242.351 215.5C242.351 216.496 242.693 217.342 243.377 218.038C244.061 218.722 244.901 219.064 245.897 219.064C246.569 219.064 247.169 218.908 247.697 218.596C248.225 218.272 248.639 217.84 248.939 217.3L249.929 217.876C249.557 218.596 249.011 219.166 248.291 219.586C247.571 220.006 246.773 220.216 245.897 220.216ZM255.705 210.784C257.037 210.784 258.111 211.258 258.927 212.206C259.755 213.142 260.169 214.252 260.169 215.536C260.169 215.668 260.157 215.854 260.133 216.094H252.231C252.351 217.006 252.735 217.732 253.383 218.272C254.043 218.8 254.853 219.064 255.813 219.064C256.497 219.064 257.085 218.926 257.577 218.65C258.081 218.362 258.459 217.99 258.711 217.534L259.755 218.146C259.359 218.782 258.819 219.286 258.135 219.658C257.451 220.03 256.671 220.216 255.795 220.216C254.379 220.216 253.227 219.772 252.339 218.884C251.451 217.996 251.007 216.868 251.007 215.5C251.007 214.156 251.445 213.034 252.321 212.134C253.197 211.234 254.325 210.784 255.705 210.784ZM255.705 211.936C254.769 211.936 253.983 212.218 253.347 212.782C252.723 213.334 252.351 214.054 252.231 214.942H258.945C258.825 213.994 258.459 213.256 257.847 212.728C257.235 212.2 256.521 211.936 255.705 211.936ZM263.682 216.58C263.682 215.992 263.802 215.458 264.042 214.978C264.282 214.486 264.57 214.072 264.906 213.736C265.242 213.4 265.578 213.076 265.914 212.764C266.25 212.452 266.538 212.11 266.778 211.738C267.018 211.354 267.138 210.946 267.138 210.514C267.138 209.818 266.898 209.296 266.418 208.948C265.95 208.588 265.344 208.408 264.6 208.408C263.124 208.408 262.212 209.014 261.864 210.226L260.802 209.632C261.078 208.828 261.558 208.222 262.242 207.814C262.938 207.394 263.724 207.184 264.6 207.184C265.656 207.184 266.55 207.478 267.282 208.066C268.026 208.642 268.398 209.458 268.398 210.514C268.398 211.03 268.278 211.51 268.038 211.954C267.798 212.398 267.51 212.788 267.174 213.124C266.838 213.448 266.502 213.772 266.166 214.096C265.83 214.42 265.542 214.798 265.302 215.23C265.062 215.65 264.942 216.1 264.942 216.58H263.682ZM265.014 219.892C264.822 220.084 264.588 220.18 264.312 220.18C264.036 220.18 263.802 220.084 263.61 219.892C263.418 219.7 263.322 219.466 263.322 219.19C263.322 218.914 263.418 218.68 263.61 218.488C263.802 218.296 264.036 218.2 264.312 218.2C264.588 218.2 264.822 218.296 265.014 218.488C265.206 218.68 265.302 218.914 265.302 219.19C265.302 219.466 265.206 219.7 265.014 219.892Z" fill="#CDFFE3"></path> </svg> 