<?xml version="1.0" encoding="UTF-8"?> <svg xmlns="http://www.w3.org/2000/svg" width="400" height="600" viewBox="0 0 400 600" fill="none"> <rect width="400" height="600" rx="20" fill="#EEBF38"></rect> <path d="M47.296 84.136L60.8 101H65.952V78.6H61.536V95.464L48.032 78.6H42.88V101H47.296V84.136ZM80.4918 97.768C77.4838 97.768 75.1478 96.456 74.5398 94.12H88.2998C88.4918 93.384 88.5878 92.648 88.5878 91.944C88.5878 87.624 84.9398 84.456 80.0758 84.456C74.7318 84.456 70.1878 87.656 70.1878 93C70.1878 97.8 74.1238 101.576 80.0758 101.576C83.0198 101.576 86.0278 100.584 88.1718 99.496L86.9237 96.168C84.6518 97.352 82.6678 97.768 80.4918 97.768ZM79.8198 88.008C82.3158 88.008 83.9158 89.128 84.3318 91.016H74.6358C75.2758 89.064 77.0677 88.008 79.8198 88.008ZM94.39 85H89.75L97.302 101H101.942L109.526 85H104.822L99.638 96.232L94.39 85ZM121.179 97.768C118.171 97.768 115.835 96.456 115.227 94.12H128.987C129.179 93.384 129.275 92.648 129.275 91.944C129.275 87.624 125.627 84.456 120.763 84.456C115.419 84.456 110.875 87.656 110.875 93C110.875 97.8 114.811 101.576 120.763 101.576C123.707 101.576 126.715 100.584 128.859 99.496L127.611 96.168C125.339 97.352 123.355 97.768 121.179 97.768ZM120.507 88.008C123.003 88.008 124.603 89.128 125.019 91.016H115.323C115.963 89.064 117.755 88.008 120.507 88.008ZM142.982 84.456C140.198 84.456 137.99 86.824 137.062 88.552V85H132.838V101H137.062V93.064C137.062 90.12 139.91 88.392 142.566 88.392C143.174 88.392 144.006 88.584 144.774 88.936L145.67 85.096C144.87 84.712 143.878 84.456 142.982 84.456ZM166.436 88.424C168.964 88.424 170.276 89.992 170.276 92.264V101H174.5V91.752C174.5 87.4 172.004 84.52 167.652 84.52C164.612 84.52 162.244 86.472 161.124 88.552V77.288H156.9V101H161.124V93.064C161.124 89.896 163.78 88.424 166.436 88.424ZM184.75 91.88C181.454 91.88 178.19 93.352 178.19 96.776C178.19 99.656 180.43 101.64 183.438 101.64C186.158 101.64 188.59 100.168 190.126 98.344C190.19 100.136 191.086 101.64 193.23 101.64C194.542 101.64 196.462 101 198.222 100.04L197.358 96.776C196.43 97.256 195.598 97.608 195.118 97.608C194.67 97.608 194.35 97.32 194.35 96.84V91.08C194.35 86.696 191.79 84.36 187.406 84.36C184.878 84.36 181.518 85.352 179.534 85.992L180.59 89.832C182.926 88.968 185.358 88.232 187.022 88.232C189.038 88.232 190.126 89.352 190.126 91.016V92.872C188.75 92.392 186.478 91.88 184.75 91.88ZM184.814 98.024C183.47 98.024 182.51 97.48 182.51 96.424C182.51 95.272 183.566 94.6 184.974 94.6C186.51 94.6 188.366 94.76 190.126 95.08V95.688C188.622 97.16 186.414 98.024 184.814 98.024ZM202.859 85H198.219L205.771 101H210.411L217.995 85H213.291L208.107 96.232L202.859 85ZM229.648 97.768C226.64 97.768 224.304 96.456 223.696 94.12H237.456C237.648 93.384 237.744 92.648 237.744 91.944C237.744 87.624 234.096 84.456 229.232 84.456C223.888 84.456 219.344 87.656 219.344 93C219.344 97.8 223.28 101.576 229.232 101.576C232.176 101.576 235.184 100.584 237.328 99.496L236.08 96.168C233.808 97.352 231.824 97.768 229.648 97.768ZM228.976 88.008C231.472 88.008 233.072 89.128 233.488 91.016H223.792C224.432 89.064 226.224 88.008 228.976 88.008ZM255.265 78.6H250.849V101H255.265V78.6ZM278.867 97.768C275.859 97.768 273.523 96.456 272.915 94.12H286.675C286.867 93.384 286.963 92.648 286.963 91.944C286.963 87.624 283.315 84.456 278.451 84.456C273.107 84.456 268.563 87.656 268.563 93C268.563 97.8 272.499 101.576 278.451 101.576C281.395 101.576 284.403 100.584 286.547 99.496L285.299 96.168C283.027 97.352 281.043 97.768 278.867 97.768ZM278.195 88.008C280.691 88.008 282.291 89.128 282.707 91.016H273.011C273.651 89.064 275.443 88.008 278.195 88.008ZM292.765 85H288.125L295.677 101H300.317L307.901 85H303.197L298.013 96.232L292.765 85ZM319.554 97.768C316.546 97.768 314.21 96.456 313.602 94.12H327.362C327.554 93.384 327.65 92.648 327.65 91.944C327.65 87.624 324.002 84.456 319.138 84.456C313.794 84.456 309.25 87.656 309.25 93C309.25 97.8 313.186 101.576 319.138 101.576C322.082 101.576 325.09 100.584 327.234 99.496L325.986 96.168C323.714 97.352 321.73 97.768 319.554 97.768ZM318.882 88.008C321.378 88.008 322.978 89.128 323.394 91.016H313.698C314.338 89.064 316.13 88.008 318.882 88.008ZM341.357 84.456C338.573 84.456 336.365 86.824 335.437 88.552V85H331.213V101H335.437V93.064C335.437 90.12 338.285 88.392 340.941 88.392C341.549 88.392 342.381 88.584 343.149 88.936L344.045 85.096C343.245 84.712 342.253 84.456 341.357 84.456ZM53.376 124.456C50.208 124.456 47.68 126.344 46.624 128.552V117H42.4V139.4C44.48 140.328 48.832 141.576 52.032 141.576C57.28 141.576 61.312 137.64 61.312 132.84C61.312 127.656 57.632 124.456 53.376 124.456ZM52.128 128.392C54.912 128.392 57.056 129.96 57.056 132.84C57.056 135.528 54.72 137.864 52.096 137.864C50.144 137.864 48.48 137.544 46.624 136.936V133.064C46.624 130.12 49.44 128.392 52.128 128.392ZM74.3043 137.768C71.2963 137.768 68.9603 136.456 68.3523 134.12H82.1123C82.3043 133.384 82.4003 132.648 82.4003 131.944C82.4003 127.624 78.7523 124.456 73.8883 124.456C68.5443 124.456 64.0003 127.656 64.0003 133C64.0003 137.8 67.9363 141.576 73.8883 141.576C76.8323 141.576 79.8403 140.584 81.9843 139.496L80.7362 136.168C78.4643 137.352 76.4803 137.768 74.3043 137.768ZM73.6323 128.008C76.1283 128.008 77.7283 129.128 78.1443 131.016H68.4483C69.0883 129.064 70.8802 128.008 73.6323 128.008ZM95.2105 137.768C92.2025 137.768 89.8665 136.456 89.2585 134.12H103.019C103.211 133.384 103.307 132.648 103.307 131.944C103.307 127.624 99.6585 124.456 94.7945 124.456C89.4505 124.456 84.9065 127.656 84.9065 133C84.9065 137.8 88.8425 141.576 94.7945 141.576C97.7385 141.576 100.747 140.584 102.891 139.496L101.642 136.168C99.3705 137.352 97.3865 137.768 95.2105 137.768ZM94.5385 128.008C97.0345 128.008 98.6345 129.128 99.0505 131.016H89.3545C89.9945 129.064 91.7865 128.008 94.5385 128.008ZM116.405 128.424C118.933 128.424 120.245 129.992 120.245 132.264V141H124.469V131.752C124.469 127.4 121.973 124.52 117.621 124.52C114.581 124.52 112.213 126.472 111.093 128.552V125H106.869V141H111.093V133.064C111.093 129.896 113.749 128.424 116.405 128.424ZM143.781 131.88C140.485 131.88 137.221 133.352 137.221 136.776C137.221 139.656 139.461 141.64 142.469 141.64C145.189 141.64 147.621 140.168 149.157 138.344C149.221 140.136 150.117 141.64 152.261 141.64C153.573 141.64 155.493 141 157.253 140.04L156.389 136.776C155.461 137.256 154.629 137.608 154.149 137.608C153.701 137.608 153.381 137.32 153.381 136.84V131.08C153.381 126.696 150.821 124.36 146.437 124.36C143.909 124.36 140.549 125.352 138.565 125.992L139.621 129.832C141.957 128.968 144.389 128.232 146.053 128.232C148.069 128.232 149.157 129.352 149.157 131.016V132.872C147.781 132.392 145.509 131.88 143.781 131.88ZM143.845 138.024C142.501 138.024 141.541 137.48 141.541 136.424C141.541 135.272 142.597 134.6 144.005 134.6C145.541 134.6 147.397 134.76 149.157 135.08V135.688C147.653 137.16 145.445 138.024 143.845 138.024ZM157.89 128.68H160.93V134.888C160.93 138.92 163.074 141.544 167.042 141.544C168.738 141.544 171.01 140.808 172.354 140.104L171.426 136.488C170.402 137.128 168.994 137.64 167.746 137.64C166.082 137.64 165.154 136.456 165.154 134.728V128.68H171.81V125H165.154V120.2H161.634L161.058 125.128L157.89 125.32V128.68ZM56.544 165.576C54.656 164.936 51.68 164.392 49.152 164.392C44.608 164.392 41.376 166.376 41.376 169.512C41.376 175.752 53.28 173.64 53.28 176.168C53.28 177.288 51.68 177.928 49.376 177.928C46.912 177.928 44.416 177.16 42.304 176.232L41.056 179.56C43.232 180.712 46.208 181.64 49.216 181.64C53.12 181.64 57.44 179.624 57.44 176.04C57.44 169.8 45.536 172.008 45.536 169.352C45.536 168.392 47.2 168.072 49.312 168.072C51.36 168.072 53.344 168.488 55.424 169.288L56.544 165.576ZM70.0148 164.456C64.6708 164.456 60.0628 167.496 60.0628 172.84C60.0628 177.64 64.2228 181.576 70.0148 181.576C75.8068 181.576 79.9668 177.64 79.9668 172.84C79.9668 167.496 75.3588 164.456 70.0148 164.456ZM70.0148 168.136C73.3428 168.136 75.7108 169.864 75.7108 172.84C75.7108 175.528 73.1828 177.928 70.0148 177.928C66.8468 177.928 64.3188 175.528 64.3188 172.84C64.3188 169.864 66.6868 168.136 70.0148 168.136ZM93.9525 164.52C91.1685 164.52 88.9925 166.504 87.9365 168.392V165H83.7125V181H87.9365V173.032C87.9365 169.96 90.3045 168.424 92.5125 168.424C94.8485 168.424 96.0965 169.992 96.0965 172.104V181H100.321V173.032C100.321 169.992 102.689 168.424 104.897 168.424C107.233 168.424 108.481 169.992 108.481 172.104V181H112.705V171.592C112.705 167.368 110.497 164.52 106.337 164.52C103.649 164.52 101.089 166.504 99.8085 168.424C98.9125 166.024 96.9605 164.52 93.9525 164.52ZM126.586 177.768C123.578 177.768 121.242 176.456 120.634 174.12H134.394C134.586 173.384 134.682 172.648 134.682 171.944C134.682 167.624 131.034 164.456 126.17 164.456C120.826 164.456 116.282 167.656 116.282 173C116.282 177.8 120.218 181.576 126.17 181.576C129.114 181.576 132.122 180.584 134.266 179.496L133.017 176.168C130.746 177.352 128.762 177.768 126.586 177.768ZM125.914 168.008C128.41 168.008 130.01 169.128 130.426 171.016H120.73C121.37 169.064 123.161 168.008 125.914 168.008ZM149.22 164.456C146.052 164.456 143.524 166.344 142.468 168.552V157H138.244V179.4C140.324 180.328 144.676 181.576 147.876 181.576C153.124 181.576 157.156 177.64 157.156 172.84C157.156 167.656 153.476 164.456 149.22 164.456ZM147.972 168.392C150.756 168.392 152.9 169.96 152.9 172.84C152.9 175.528 150.564 177.864 147.94 177.864C145.988 177.864 144.324 177.544 142.468 176.936V173.064C142.468 170.12 145.284 168.392 147.972 168.392ZM169.796 164.456C164.452 164.456 159.844 167.496 159.844 172.84C159.844 177.64 164.004 181.576 169.796 181.576C175.588 181.576 179.748 177.64 179.748 172.84C179.748 167.496 175.14 164.456 169.796 164.456ZM169.796 168.136C173.124 168.136 175.492 169.864 175.492 172.84C175.492 175.528 172.964 177.928 169.796 177.928C166.628 177.928 164.1 175.528 164.1 172.84C164.1 169.864 166.468 168.136 169.796 168.136ZM190.502 181.544C193.766 181.544 196.326 179.656 197.382 177.448V181H201.606V157H197.382V165.576C195.782 165.064 193.574 164.424 191.846 164.424C186.47 164.424 182.438 168.36 182.438 173.16C182.438 178.344 186.118 181.544 190.502 181.544ZM191.75 177.608C188.902 177.608 186.694 176.008 186.694 173.128C186.694 170.312 188.902 168.136 191.782 168.136C193.734 168.136 195.526 168.552 197.382 169.096V172.552C197.382 175.624 194.566 177.608 191.75 177.608ZM223.84 165H219.2C217.76 168.424 216 172.552 214.336 176.424L208.608 165H204L212.256 181.224C212.256 181.256 212.192 181.32 212.192 181.384C211.392 183.176 210.496 184.936 208.8 184.936C208.576 184.936 207.936 184.872 207.36 184.776L207.136 188.84C207.68 188.936 208.384 189 208.608 189C213.12 189 214.592 185.736 216.128 182.312L223.84 165ZM225.86 158.792C225.86 159.912 226.66 160.84 227.748 161.064C227.62 162.504 226.852 163.656 225.732 164.616L227.428 166.568C229.604 164.936 231.044 161.992 231.044 159.688C231.044 157.928 230.244 156.36 228.388 156.36C226.98 156.36 225.86 157.448 225.86 158.792ZM249.388 165.576C247.5 164.936 244.524 164.392 241.996 164.392C237.452 164.392 234.22 166.376 234.22 169.512C234.22 175.752 246.124 173.64 246.124 176.168C246.124 177.288 244.524 177.928 242.22 177.928C239.756 177.928 237.26 177.16 235.148 176.232L233.9 179.56C236.076 180.712 239.052 181.64 242.06 181.64C245.964 181.64 250.284 179.624 250.284 176.04C250.284 169.8 238.38 172.008 238.38 169.352C238.38 168.392 240.044 168.072 242.156 168.072C244.204 168.072 246.188 168.488 248.268 169.288L249.388 165.576ZM53.376 204.456C50.208 204.456 47.68 206.344 46.624 208.552V197H42.4V219.4C44.48 220.328 48.832 221.576 52.032 221.576C57.28 221.576 61.312 217.64 61.312 212.84C61.312 207.656 57.632 204.456 53.376 204.456ZM52.128 208.392C54.912 208.392 57.056 209.96 57.056 212.84C57.056 215.528 54.72 217.864 52.096 217.864C50.144 217.864 48.48 217.544 46.624 216.936V213.064C46.624 210.12 49.44 208.392 52.128 208.392ZM69.2803 205H65.1203V221H69.2803V205ZM64.6723 200.392C64.6723 201.8 65.7923 202.92 67.2003 202.92C68.6083 202.92 69.7283 201.8 69.7283 200.392C69.7283 199.016 68.6083 197.896 67.2003 197.896C65.7923 197.896 64.6723 199.016 64.6723 200.392ZM84.294 204.456C81.51 204.456 79.302 206.824 78.374 208.552V205H74.15V221H78.374V213.064C78.374 210.12 81.222 208.392 83.878 208.392C84.486 208.392 85.318 208.584 86.086 208.936L86.982 205.096C86.182 204.712 85.19 204.456 84.294 204.456ZM87.39 208.68H90.43V214.888C90.43 218.92 92.574 221.544 96.542 221.544C98.238 221.544 100.51 220.808 101.854 220.104L100.926 216.488C99.902 217.128 98.494 217.64 97.246 217.64C95.582 217.64 94.654 216.456 94.654 214.728V208.68H101.31V205H94.654V200.2H91.134L90.558 205.128L87.39 205.32V208.68ZM114.592 208.424C117.12 208.424 118.432 209.992 118.432 212.264V221H122.656V211.752C122.656 207.4 120.16 204.52 115.808 204.52C112.768 204.52 110.4 206.472 109.28 208.552V197.288H105.056V221H109.28V213.064C109.28 209.896 111.936 208.424 114.592 208.424ZM134.314 221.544C137.578 221.544 140.138 219.656 141.194 217.448V221H145.418V197H141.194V205.576C139.594 205.064 137.386 204.424 135.658 204.424C130.282 204.424 126.25 208.36 126.25 213.16C126.25 218.344 129.93 221.544 134.314 221.544ZM135.562 217.608C132.714 217.608 130.506 216.008 130.506 213.128C130.506 210.312 132.714 208.136 135.594 208.136C137.546 208.136 139.338 208.552 141.194 209.096V212.552C141.194 215.624 138.378 217.608 135.562 217.608ZM155.812 211.88C152.516 211.88 149.253 213.352 149.253 216.776C149.253 219.656 151.493 221.64 154.501 221.64C157.22 221.64 159.653 220.168 161.189 218.344C161.253 220.136 162.149 221.64 164.293 221.64C165.605 221.64 167.525 221 169.285 220.04L168.421 216.776C167.493 217.256 166.661 217.608 166.181 217.608C165.733 217.608 165.413 217.32 165.413 216.84V211.08C165.413 206.696 162.853 204.36 158.469 204.36C155.941 204.36 152.581 205.352 150.597 205.992L151.653 209.832C153.989 208.968 156.421 208.232 158.085 208.232C160.101 208.232 161.189 209.352 161.189 211.016V212.872C159.813 212.392 157.541 211.88 155.812 211.88ZM155.877 218.024C154.533 218.024 153.573 217.48 153.573 216.424C153.573 215.272 154.629 214.6 156.036 214.6C157.573 214.6 159.429 214.76 161.189 215.08V215.688C159.685 217.16 157.477 218.024 155.877 218.024ZM189.121 205H184.481C183.041 208.424 181.281 212.552 179.617 216.424L173.889 205H169.281L177.537 221.224C177.537 221.256 177.473 221.32 177.473 221.384C176.673 223.176 175.777 224.936 174.081 224.936C173.857 224.936 173.217 224.872 172.641 224.776L172.417 228.84C172.961 228.936 173.665 229 173.889 229C178.401 229 179.873 225.736 181.409 222.312L189.121 205ZM211.692 204.456C208.428 204.456 205.868 206.344 204.812 208.552V205H200.588V228.68H204.812V220.456C206.38 220.936 208.588 221.576 210.348 221.576C215.724 221.576 219.756 217.64 219.756 212.84C219.756 207.656 216.076 204.456 211.692 204.456ZM210.444 208.392C213.292 208.392 215.5 209.96 215.5 212.84C215.5 215.528 213.164 217.864 210.412 217.864C208.428 217.864 206.635 217.448 204.812 216.904V213.064C204.812 210.12 207.595 208.392 210.444 208.392ZM229.094 211.88C225.798 211.88 222.534 213.352 222.534 216.776C222.534 219.656 224.774 221.64 227.782 221.64C230.502 221.64 232.934 220.168 234.47 218.344C234.534 220.136 235.43 221.64 237.574 221.64C238.886 221.64 240.806 221 242.566 220.04L241.702 216.776C240.774 217.256 239.942 217.608 239.462 217.608C239.014 217.608 238.694 217.32 238.694 216.84V211.08C238.694 206.696 236.134 204.36 231.75 204.36C229.222 204.36 225.862 205.352 223.878 205.992L224.934 209.832C227.27 208.968 229.702 208.232 231.366 208.232C233.382 208.232 234.47 209.352 234.47 211.016V212.872C233.094 212.392 230.822 211.88 229.094 211.88ZM229.158 218.024C227.814 218.024 226.854 217.48 226.854 216.424C226.854 215.272 227.91 214.6 229.318 214.6C230.854 214.6 232.71 214.76 234.47 215.08V215.688C232.966 217.16 230.758 218.024 229.158 218.024ZM255.107 204.456C252.323 204.456 250.115 206.824 249.187 208.552V205H244.963V221H249.187V213.064C249.187 210.12 252.035 208.392 254.691 208.392C255.299 208.392 256.131 208.584 256.899 208.936L257.795 205.096C256.995 204.712 256.003 204.456 255.107 204.456ZM258.203 208.68H261.243V214.888C261.243 218.92 263.387 221.544 267.355 221.544C269.051 221.544 271.323 220.808 272.667 220.104L271.739 216.488C270.715 217.128 269.307 217.64 268.059 217.64C266.395 217.64 265.467 216.456 265.467 214.728V208.68H272.123V205H265.467V200.2H261.947L261.371 205.128L258.203 205.32V208.68ZM293.309 205H288.669C287.229 208.424 285.469 212.552 283.805 216.424L278.077 205H273.469L281.725 221.224C281.725 221.256 281.661 221.32 281.661 221.384C280.861 223.176 279.965 224.936 278.269 224.936C278.045 224.936 277.405 224.872 276.829 224.776L276.605 228.84C277.149 228.936 277.853 229 278.077 229C282.589 229 284.061 225.736 285.597 222.312L293.309 205ZM60.64 261H64.928L71.936 245H67.456L62.784 255.976L58.144 245H53.728L49.088 256.008L44.448 245H39.872L46.88 261H51.2L55.936 250.056L60.64 261ZM83.7485 248.424C86.2765 248.424 87.5885 249.992 87.5885 252.264V261H91.8125V251.752C91.8125 247.4 89.3165 244.52 84.9645 244.52C81.9245 244.52 79.5565 246.472 78.4365 248.552V237.288H74.2125V261H78.4365V253.064C78.4365 249.896 81.0925 248.424 83.7485 248.424ZM105.359 244.456C100.015 244.456 95.4065 247.496 95.4065 252.84C95.4065 257.64 99.5665 261.576 105.359 261.576C111.151 261.576 115.311 257.64 115.311 252.84C115.311 247.496 110.703 244.456 105.359 244.456ZM105.359 248.136C108.687 248.136 111.055 249.864 111.055 252.84C111.055 255.528 108.527 257.928 105.359 257.928C102.191 257.928 99.6625 255.528 99.6625 252.84C99.6625 249.864 102.031 248.136 105.359 248.136ZM133.015 238.6H128.599V261H133.015V238.6ZM154.377 261.544C157.641 261.544 160.201 259.656 161.257 257.448V261H165.481V237H161.257V245.576C159.657 245.064 157.449 244.424 155.721 244.424C150.345 244.424 146.313 248.36 146.313 253.16C146.313 258.344 149.993 261.544 154.377 261.544ZM155.625 257.608C152.777 257.608 150.569 256.008 150.569 253.128C150.569 250.312 152.777 248.136 155.657 248.136C157.609 248.136 159.401 248.552 161.257 249.096V252.552C161.257 255.624 158.441 257.608 155.625 257.608ZM174.499 245H170.339V261H174.499V245ZM169.891 240.392C169.891 241.8 171.011 242.92 172.419 242.92C173.827 242.92 174.947 241.8 174.947 240.392C174.947 239.016 173.827 237.896 172.419 237.896C171.011 237.896 169.891 239.016 169.891 240.392ZM186.377 261.544C189.641 261.544 192.201 259.656 193.257 257.448V261H197.481V237H193.257V245.576C191.657 245.064 189.449 244.424 187.721 244.424C182.345 244.424 178.313 248.36 178.313 253.16C178.313 258.344 181.993 261.544 186.377 261.544ZM187.625 257.608C184.777 257.608 182.569 256.008 182.569 253.128C182.569 250.312 184.777 248.136 187.657 248.136C189.609 248.136 191.401 248.552 193.257 249.096V252.552C193.257 255.624 190.441 257.608 187.625 257.608ZM211.811 248.424C214.339 248.424 215.651 249.992 215.651 252.264V261H219.875V251.752C219.875 247.4 217.379 244.52 213.027 244.52C209.987 244.52 207.619 246.472 206.499 248.552V245H202.275V261H206.499V253.064C206.499 249.896 209.155 248.424 211.811 248.424ZM224.141 238.792C224.141 239.912 224.941 240.84 226.029 241.064C225.901 242.504 225.133 243.656 224.013 244.616L225.709 246.568C227.885 244.936 229.325 241.992 229.325 239.688C229.325 237.928 228.525 236.36 226.669 236.36C225.261 236.36 224.141 237.448 224.141 238.792ZM231.765 248.68H234.805V254.888C234.805 258.92 236.949 261.544 240.917 261.544C242.613 261.544 244.885 260.808 246.229 260.104L245.301 256.488C244.277 257.128 242.869 257.64 241.621 257.64C239.957 257.64 239.029 256.456 239.029 254.728V248.68H245.685V245H239.029V240.2H235.509L234.933 245.128L231.765 245.32V248.68ZM46.56 277H42.4V301H46.56V277ZM52.416 299.848C53.28 300.872 54.304 301.416 55.392 301.416C56.672 301.416 58.048 300.808 59.52 300.168L58.528 296.744C57.76 297.064 57.056 297.416 56.416 297.416C56.064 297.416 55.744 297.32 55.456 297.032L51.712 293.16L59.424 285H54.016L46.784 293.288L52.416 299.848ZM72.2485 288.424C74.7765 288.424 76.0885 289.992 76.0885 292.264V301H80.3125V291.752C80.3125 287.4 77.8165 284.52 73.4645 284.52C70.4245 284.52 68.0565 286.472 66.9365 288.552V285H62.7125V301H66.9365V293.064C66.9365 289.896 69.5925 288.424 72.2485 288.424ZM93.8585 284.456C88.5145 284.456 83.9065 287.496 83.9065 292.84C83.9065 297.64 88.0665 301.576 93.8585 301.576C99.6505 301.576 103.811 297.64 103.811 292.84C103.811 287.496 99.2025 284.456 93.8585 284.456ZM93.8585 288.136C97.1865 288.136 99.5545 289.864 99.5545 292.84C99.5545 295.528 97.0265 297.928 93.8585 297.928C90.6905 297.928 88.1625 295.528 88.1625 292.84C88.1625 289.864 90.5305 288.136 93.8585 288.136ZM125.796 301H130.084L137.092 285H132.612L127.94 295.976L123.3 285H118.884L114.244 296.008L109.604 285H105.028L112.036 301H116.356L121.092 290.056L125.796 301Z" fill="#FFFAED"></path> <path d="M49.54 367.4H50.8V380H49.54V374.114H42.7V380H41.44V367.4H42.7V372.926H49.54V367.4ZM61.0364 378.866C60.1244 379.766 59.0084 380.216 57.6884 380.216C56.3684 380.216 55.2464 379.766 54.3224 378.866C53.4104 377.954 52.9544 376.832 52.9544 375.5C52.9544 374.168 53.4104 373.052 54.3224 372.152C55.2464 371.24 56.3684 370.784 57.6884 370.784C59.0084 370.784 60.1244 371.24 61.0364 372.152C61.9604 373.052 62.4224 374.168 62.4224 375.5C62.4224 376.832 61.9604 377.954 61.0364 378.866ZM55.1684 378.038C55.8524 378.722 56.6924 379.064 57.6884 379.064C58.6844 379.064 59.5244 378.722 60.2084 378.038C60.8924 377.342 61.2344 376.496 61.2344 375.5C61.2344 374.504 60.8924 373.664 60.2084 372.98C59.5244 372.284 58.6844 371.936 57.6884 371.936C56.6924 371.936 55.8524 372.284 55.1684 372.98C54.4844 373.664 54.1424 374.504 54.1424 375.5C54.1424 376.496 54.4844 377.342 55.1684 378.038ZM74.8948 371H76.1188L73.3468 380H72.0508L69.7288 372.746L67.4068 380H66.1108L63.3388 371H64.5628L66.7768 378.47L69.1348 371H70.3228L72.6808 378.47L74.8948 371ZM90.1504 367.4H91.3384V380H90.1504V378.236C89.3224 379.556 88.1104 380.216 86.5144 380.216C85.2304 380.216 84.1324 379.76 83.2204 378.848C82.3204 377.936 81.8704 376.82 81.8704 375.5C81.8704 374.18 82.3204 373.064 83.2204 372.152C84.1324 371.24 85.2304 370.784 86.5144 370.784C88.1104 370.784 89.3224 371.444 90.1504 372.764V367.4ZM84.0844 378.038C84.7684 378.722 85.6084 379.064 86.6044 379.064C87.6004 379.064 88.4404 378.722 89.1244 378.038C89.8084 377.342 90.1504 376.496 90.1504 375.5C90.1504 374.504 89.8084 373.664 89.1244 372.98C88.4404 372.284 87.6004 371.936 86.6044 371.936C85.6084 371.936 84.7684 372.284 84.0844 372.98C83.4004 373.664 83.0584 374.504 83.0584 375.5C83.0584 376.496 83.4004 377.342 84.0844 378.038ZM95.0598 368.84C94.8918 369.008 94.6878 369.092 94.4478 369.092C94.2078 369.092 94.0038 369.008 93.8358 368.84C93.6678 368.672 93.5838 368.468 93.5838 368.228C93.5838 367.988 93.6678 367.784 93.8358 367.616C94.0038 367.448 94.2078 367.364 94.4478 367.364C94.6878 367.364 94.8918 367.448 95.0598 367.616C95.2278 367.784 95.3118 367.988 95.3118 368.228C95.3118 368.468 95.2278 368.672 95.0598 368.84ZM93.8538 380V371H95.0418V380H93.8538ZM105.303 367.4H106.491V380H105.303V378.236C104.475 379.556 103.263 380.216 101.667 380.216C100.383 380.216 99.2847 379.76 98.3727 378.848C97.4727 377.936 97.0227 376.82 97.0227 375.5C97.0227 374.18 97.4727 373.064 98.3727 372.152C99.2847 371.24 100.383 370.784 101.667 370.784C103.263 370.784 104.475 371.444 105.303 372.764V367.4ZM99.2367 378.038C99.9207 378.722 100.761 379.064 101.757 379.064C102.753 379.064 103.593 378.722 104.277 378.038C104.961 377.342 105.303 376.496 105.303 375.5C105.303 374.504 104.961 373.664 104.277 372.98C103.593 372.284 102.753 371.936 101.757 371.936C100.761 371.936 99.9207 372.284 99.2367 372.98C98.5527 373.664 98.2107 374.504 98.2107 375.5C98.2107 376.496 98.5527 377.342 99.2367 378.038ZM119.986 371H121.246L117.394 380.828C117.046 381.716 116.548 382.412 115.9 382.916C115.264 383.432 114.55 383.66 113.758 383.6V382.484C114.838 382.604 115.66 381.98 116.224 380.612L116.458 380.054L112.426 371H113.686L117.07 378.542L119.986 371ZM129.872 378.866C128.96 379.766 127.844 380.216 126.524 380.216C125.204 380.216 124.082 379.766 123.158 378.866C122.246 377.954 121.79 376.832 121.79 375.5C121.79 374.168 122.246 373.052 123.158 372.152C124.082 371.24 125.204 370.784 126.524 370.784C127.844 370.784 128.96 371.24 129.872 372.152C130.796 373.052 131.258 374.168 131.258 375.5C131.258 376.832 130.796 377.954 129.872 378.866ZM124.004 378.038C124.688 378.722 125.528 379.064 126.524 379.064C127.52 379.064 128.36 378.722 129.044 378.038C129.728 377.342 130.07 376.496 130.07 375.5C130.07 374.504 129.728 373.664 129.044 372.98C128.36 372.284 127.52 371.936 126.524 371.936C125.528 371.936 124.688 372.284 124.004 372.98C123.32 373.664 122.978 374.504 122.978 375.5C122.978 376.496 123.32 377.342 124.004 378.038ZM139.582 371H140.77V380H139.582V378.596C138.91 379.676 137.902 380.216 136.558 380.216C135.466 380.216 134.602 379.886 133.966 379.226C133.342 378.554 133.03 377.654 133.03 376.526V371H134.218V376.526C134.218 377.33 134.428 377.954 134.848 378.398C135.28 378.842 135.886 379.064 136.666 379.064C137.53 379.064 138.232 378.794 138.772 378.254C139.312 377.702 139.582 376.856 139.582 375.716V371ZM155.523 371H156.711V379.64C156.711 380.936 156.267 381.956 155.379 382.7C154.491 383.444 153.429 383.816 152.193 383.816C150.081 383.816 148.659 383.084 147.927 381.62L148.971 381.026C149.511 382.118 150.585 382.664 152.193 382.664C153.225 382.664 154.035 382.388 154.623 381.836C155.223 381.296 155.523 380.564 155.523 379.64V378.236C154.695 379.556 153.483 380.216 151.887 380.216C150.603 380.216 149.505 379.76 148.593 378.848C147.693 377.936 147.243 376.82 147.243 375.5C147.243 374.18 147.693 373.064 148.593 372.152C149.505 371.24 150.603 370.784 151.887 370.784C153.483 370.784 154.695 371.444 155.523 372.764V371ZM149.457 378.038C150.141 378.722 150.981 379.064 151.977 379.064C152.973 379.064 153.813 378.722 154.497 378.038C155.181 377.342 155.523 376.496 155.523 375.5C155.523 374.504 155.181 373.664 154.497 372.98C153.813 372.284 152.973 371.936 151.977 371.936C150.981 371.936 150.141 372.284 149.457 372.98C148.773 373.664 148.431 374.504 148.431 375.5C148.431 376.496 148.773 377.342 149.457 378.038ZM163.385 370.784C164.717 370.784 165.791 371.258 166.607 372.206C167.435 373.142 167.849 374.252 167.849 375.536C167.849 375.668 167.837 375.854 167.813 376.094H159.911C160.031 377.006 160.415 377.732 161.063 378.272C161.723 378.8 162.533 379.064 163.493 379.064C164.177 379.064 164.765 378.926 165.257 378.65C165.761 378.362 166.139 377.99 166.391 377.534L167.435 378.146C167.039 378.782 166.499 379.286 165.815 379.658C165.131 380.03 164.351 380.216 163.475 380.216C162.059 380.216 160.907 379.772 160.019 378.884C159.131 377.996 158.687 376.868 158.687 375.5C158.687 374.156 159.125 373.034 160.001 372.134C160.877 371.234 162.005 370.784 163.385 370.784ZM163.385 371.936C162.449 371.936 161.663 372.218 161.027 372.782C160.403 373.334 160.031 374.054 159.911 374.942H166.625C166.505 373.994 166.139 373.256 165.527 372.728C164.915 372.2 164.201 371.936 163.385 371.936ZM174.245 372.152H171.653V377.606C171.653 378.098 171.749 378.452 171.941 378.668C172.133 378.872 172.421 378.98 172.805 378.992C173.189 378.992 173.669 378.98 174.245 378.956V380C172.985 380.192 172.037 380.102 171.401 379.73C170.777 379.358 170.465 378.65 170.465 377.606V372.152H168.575V371H170.465V368.84L171.653 368.48V371H174.245V372.152ZM185.495 372.152H182.903V377.606C182.903 378.098 182.999 378.452 183.191 378.668C183.383 378.872 183.671 378.98 184.055 378.992C184.439 378.992 184.919 378.98 185.495 378.956V380C184.235 380.192 183.287 380.102 182.651 379.73C182.027 379.358 181.715 378.65 181.715 377.606V372.152H179.825V371H181.715V368.84L182.903 368.48V371H185.495V372.152ZM191.687 370.784C192.779 370.784 193.637 371.12 194.261 371.792C194.897 372.452 195.215 373.346 195.215 374.474V380H194.027V374.474C194.027 373.67 193.811 373.046 193.379 372.602C192.959 372.158 192.359 371.936 191.579 371.936C190.715 371.936 190.013 372.212 189.473 372.764C188.933 373.304 188.663 374.144 188.663 375.284V380H187.475V367.4H188.663V372.404C189.335 371.324 190.343 370.784 191.687 370.784ZM201.67 370.784C203.002 370.784 204.076 371.258 204.892 372.206C205.72 373.142 206.134 374.252 206.134 375.536C206.134 375.668 206.122 375.854 206.098 376.094H198.196C198.316 377.006 198.7 377.732 199.348 378.272C200.008 378.8 200.818 379.064 201.778 379.064C202.462 379.064 203.05 378.926 203.542 378.65C204.046 378.362 204.424 377.99 204.676 377.534L205.72 378.146C205.324 378.782 204.784 379.286 204.1 379.658C203.416 380.03 202.636 380.216 201.76 380.216C200.344 380.216 199.192 379.772 198.304 378.884C197.416 377.996 196.972 376.868 196.972 375.5C196.972 374.156 197.41 373.034 198.286 372.134C199.162 371.234 200.29 370.784 201.67 370.784ZM201.67 371.936C200.734 371.936 199.948 372.218 199.312 372.782C198.688 373.334 198.316 374.054 198.196 374.942H204.91C204.79 373.994 204.424 373.256 203.812 372.728C203.2 372.2 202.486 371.936 201.67 371.936ZM209.212 372.494C209.764 371.402 210.712 370.856 212.056 370.856V372.008C211.24 372.008 210.562 372.248 210.022 372.728C209.482 373.208 209.212 373.964 209.212 374.996V380H208.024V371H209.212V372.494ZM217.297 370.784C218.629 370.784 219.703 371.258 220.519 372.206C221.347 373.142 221.761 374.252 221.761 375.536C221.761 375.668 221.749 375.854 221.725 376.094H213.823C213.943 377.006 214.327 377.732 214.975 378.272C215.635 378.8 216.445 379.064 217.405 379.064C218.089 379.064 218.677 378.926 219.169 378.65C219.673 378.362 220.051 377.99 220.303 377.534L221.347 378.146C220.951 378.782 220.411 379.286 219.727 379.658C219.043 380.03 218.263 380.216 217.387 380.216C215.971 380.216 214.819 379.772 213.931 378.884C213.043 377.996 212.599 376.868 212.599 375.5C212.599 374.156 213.037 373.034 213.913 372.134C214.789 371.234 215.917 370.784 217.297 370.784ZM217.297 371.936C216.361 371.936 215.575 372.218 214.939 372.782C214.315 373.334 213.943 374.054 213.823 374.942H220.537C220.417 373.994 220.051 373.256 219.439 372.728C218.827 372.2 218.113 371.936 217.297 371.936ZM225.274 376.58C225.274 375.992 225.394 375.458 225.634 374.978C225.874 374.486 226.162 374.072 226.498 373.736C226.834 373.4 227.17 373.076 227.506 372.764C227.842 372.452 228.13 372.11 228.37 371.738C228.61 371.354 228.73 370.946 228.73 370.514C228.73 369.818 228.49 369.296 228.01 368.948C227.542 368.588 226.936 368.408 226.192 368.408C224.716 368.408 223.804 369.014 223.456 370.226L222.394 369.632C222.67 368.828 223.15 368.222 223.834 367.814C224.53 367.394 225.316 367.184 226.192 367.184C227.248 367.184 228.142 367.478 228.874 368.066C229.618 368.642 229.99 369.458 229.99 370.514C229.99 371.03 229.87 371.51 229.63 371.954C229.39 372.398 229.102 372.788 228.766 373.124C228.43 373.448 228.094 373.772 227.758 374.096C227.422 374.42 227.134 374.798 226.894 375.23C226.654 375.65 226.534 376.1 226.534 376.58H225.274ZM226.606 379.892C226.414 380.084 226.18 380.18 225.904 380.18C225.628 380.18 225.394 380.084 225.202 379.892C225.01 379.7 224.914 379.466 224.914 379.19C224.914 378.914 225.01 378.68 225.202 378.488C225.394 378.296 225.628 378.2 225.904 378.2C226.18 378.2 226.414 378.296 226.606 378.488C226.798 378.68 226.894 378.914 226.894 379.19C226.894 379.466 226.798 379.7 226.606 379.892Z" fill="#FFFAED"></path> </svg> 