<?xml version="1.0" encoding="UTF-8"?> <svg xmlns="http://www.w3.org/2000/svg" width="400" height="600" viewBox="0 0 400 600" fill="none"><rect width="400" height="600" rx="20" fill="#E84773"></rect><path d="M45.472 499.252C44.236 499.252 43.192 498.976 42.34 498.424C41.488 497.872 40.882 497.11 40.522 496.138L42.646 494.896C43.138 496.18 44.104 496.822 45.544 496.822C46.216 496.822 46.72 496.702 47.056 496.462C47.392 496.222 47.56 495.898 47.56 495.49C47.56 495.046 47.362 494.704 46.966 494.464C46.57 494.212 45.862 493.942 44.842 493.654C43.738 493.318 42.868 492.928 42.232 492.484C41.44 491.896 41.044 491.032 41.044 489.892C41.044 488.74 41.446 487.834 42.25 487.174C43.054 486.49 44.032 486.148 45.184 486.148C46.192 486.148 47.086 486.394 47.866 486.886C48.646 487.378 49.252 488.074 49.684 488.974L47.596 490.18C47.092 489.1 46.288 488.56 45.184 488.56C44.68 488.56 44.278 488.68 43.978 488.92C43.678 489.148 43.528 489.448 43.528 489.82C43.528 490.216 43.69 490.54 44.014 490.792C44.374 491.044 45.01 491.308 45.922 491.584L46.786 491.872C46.942 491.92 47.212 492.022 47.596 492.178C47.956 492.31 48.22 492.436 48.388 492.556C48.976 492.916 49.372 493.288 49.576 493.672C49.888 494.176 50.044 494.77 50.044 495.454C50.044 496.618 49.618 497.542 48.766 498.226C47.914 498.91 46.816 499.252 45.472 499.252ZM56.5601 489.748C57.5561 489.748 58.3661 490.078 58.9901 490.738C59.6381 491.41 59.9621 492.322 59.9621 493.474V499H57.6401V493.762C57.6401 493.174 57.4781 492.718 57.1541 492.394C56.8421 492.07 56.4101 491.908 55.8581 491.908C55.2461 491.908 54.7601 492.1 54.4001 492.484C54.0521 492.856 53.8781 493.408 53.8781 494.14V499H51.5561V490H53.8781V491.008C54.4301 490.168 55.3241 489.748 56.5601 489.748ZM69.6128 497.884C68.7008 498.796 67.5728 499.252 66.2288 499.252C64.8848 499.252 63.7568 498.796 62.8448 497.884C61.9328 496.972 61.4768 495.844 61.4768 494.5C61.4768 493.168 61.9328 492.046 62.8448 491.134C63.7688 490.21 64.8968 489.748 66.2288 489.748C67.5608 489.748 68.6888 490.21 69.6128 491.134C70.5368 492.058 70.9988 493.18 70.9988 494.5C70.9988 495.832 70.5368 496.96 69.6128 497.884ZM64.4828 496.282C64.9508 496.75 65.5328 496.984 66.2288 496.984C66.9248 496.984 67.5068 496.75 67.9748 496.282C68.4428 495.814 68.6768 495.22 68.6768 494.5C68.6768 493.78 68.4428 493.186 67.9748 492.718C67.5068 492.25 66.9248 492.016 66.2288 492.016C65.5328 492.016 64.9508 492.25 64.4828 492.718C64.0268 493.198 63.7988 493.792 63.7988 494.5C63.7988 495.208 64.0268 495.802 64.4828 496.282ZM80.3003 497.884C79.3883 498.796 78.2603 499.252 76.9163 499.252C75.5723 499.252 74.4443 498.796 73.5323 497.884C72.6203 496.972 72.1643 495.844 72.1643 494.5C72.1643 493.168 72.6203 492.046 73.5323 491.134C74.4563 490.21 75.5843 489.748 76.9163 489.748C78.2483 489.748 79.3763 490.21 80.3003 491.134C81.2243 492.058 81.6863 493.18 81.6863 494.5C81.6863 495.832 81.2243 496.96 80.3003 497.884ZM75.1703 496.282C75.6383 496.75 76.2203 496.984 76.9163 496.984C77.6123 496.984 78.1943 496.75 78.6623 496.282C79.1303 495.814 79.3643 495.22 79.3643 494.5C79.3643 493.78 79.1303 493.186 78.6623 492.718C78.1943 492.25 77.6123 492.016 76.9163 492.016C76.2203 492.016 75.6383 492.25 75.1703 492.718C74.7143 493.198 74.4863 493.792 74.4863 494.5C74.4863 495.208 74.7143 495.802 75.1703 496.282ZM88.5578 489.748C89.7698 489.748 90.8018 490.21 91.6538 491.134C92.5178 492.058 92.9498 493.18 92.9498 494.5C92.9498 495.844 92.5178 496.972 91.6538 497.884C90.8138 498.796 89.7818 499.252 88.5578 499.252C87.2978 499.252 86.3258 498.814 85.6418 497.938V502.6H83.3198V490H85.6418V491.062C86.3258 490.186 87.2978 489.748 88.5578 489.748ZM86.3438 496.336C86.8118 496.804 87.4058 497.038 88.1258 497.038C88.8458 497.038 89.4398 496.804 89.9078 496.336C90.3878 495.856 90.6278 495.244 90.6278 494.5C90.6278 493.756 90.3878 493.15 89.9078 492.682C89.4398 492.202 88.8458 491.962 88.1258 491.962C87.4058 491.962 86.8118 492.202 86.3438 492.682C85.8758 493.15 85.6418 493.756 85.6418 494.5C85.6418 495.244 85.8758 495.856 86.3438 496.336ZM104.235 490V492.232H102.201V495.976C102.201 496.288 102.279 496.516 102.435 496.66C102.591 496.804 102.819 496.888 103.119 496.912C103.419 496.924 103.791 496.918 104.235 496.894V499C102.663 499.18 101.541 499.036 100.869 498.568C100.209 498.088 99.8794 497.224 99.8794 495.976V492.232H98.3134V490H99.8794V488.182L102.201 487.48V490H104.235ZM110.877 489.748C111.873 489.748 112.683 490.078 113.307 490.738C113.955 491.41 114.279 492.322 114.279 493.474V499H111.957V493.762C111.957 493.174 111.795 492.718 111.471 492.394C111.159 492.07 110.727 491.908 110.175 491.908C109.563 491.908 109.077 492.1 108.717 492.484C108.369 492.856 108.195 493.408 108.195 494.14V499H105.873V486.4H108.195V491.008C108.747 490.168 109.641 489.748 110.877 489.748ZM118.583 490V491.548C118.787 490.984 119.135 490.558 119.627 490.27C120.119 489.97 120.683 489.82 121.319 489.82V492.412C120.611 492.316 119.975 492.46 119.411 492.844C118.859 493.216 118.583 493.834 118.583 494.698V499H116.261V490H118.583ZM130.011 497.884C129.099 498.796 127.971 499.252 126.627 499.252C125.283 499.252 124.155 498.796 123.243 497.884C122.331 496.972 121.875 495.844 121.875 494.5C121.875 493.168 122.331 492.046 123.243 491.134C124.167 490.21 125.295 489.748 126.627 489.748C127.959 489.748 129.087 490.21 130.011 491.134C130.935 492.058 131.397 493.18 131.397 494.5C131.397 495.832 130.935 496.96 130.011 497.884ZM124.881 496.282C125.349 496.75 125.931 496.984 126.627 496.984C127.323 496.984 127.905 496.75 128.373 496.282C128.841 495.814 129.075 495.22 129.075 494.5C129.075 493.78 128.841 493.186 128.373 492.718C127.905 492.25 127.323 492.016 126.627 492.016C125.931 492.016 125.349 492.25 124.881 492.718C124.425 493.198 124.197 493.792 124.197 494.5C124.197 495.208 124.425 495.802 124.881 496.282ZM138.971 494.86V490H141.293V499H138.971V497.992C138.419 498.832 137.525 499.252 136.289 499.252C135.305 499.252 134.489 498.922 133.841 498.262C133.205 497.59 132.887 496.678 132.887 495.526V490H135.209V495.238C135.209 495.826 135.365 496.282 135.677 496.606C136.001 496.93 136.439 497.092 136.991 497.092C137.603 497.092 138.083 496.906 138.431 496.534C138.791 496.15 138.971 495.592 138.971 494.86ZM150.313 491.116V490H152.581V498.568C152.581 499.948 152.119 501.01 151.195 501.754C150.283 502.486 149.179 502.852 147.883 502.852C145.843 502.852 144.421 502.12 143.617 500.656L145.597 499.522C146.041 500.362 146.827 500.782 147.955 500.782C148.687 500.782 149.263 500.59 149.683 500.206C150.103 499.822 150.313 499.276 150.313 498.568V497.596C149.629 498.508 148.669 498.964 147.433 498.964C146.161 498.964 145.093 498.52 144.229 497.632C143.377 496.72 142.951 495.628 142.951 494.356C142.951 493.084 143.383 491.998 144.247 491.098C145.111 490.198 146.173 489.748 147.433 489.748C148.669 489.748 149.629 490.204 150.313 491.116ZM149.593 496.138C150.073 495.67 150.313 495.076 150.313 494.356C150.313 493.636 150.073 493.054 149.593 492.61C149.125 492.142 148.525 491.908 147.793 491.908C147.073 491.908 146.467 492.142 145.975 492.61C145.507 493.054 145.273 493.636 145.273 494.356C145.273 495.076 145.507 495.67 145.975 496.138C146.455 496.594 147.061 496.822 147.793 496.822C148.525 496.822 149.125 496.594 149.593 496.138ZM159.691 489.748C160.687 489.748 161.497 490.078 162.121 490.738C162.769 491.41 163.093 492.322 163.093 493.474V499H160.771V493.762C160.771 493.174 160.609 492.718 160.285 492.394C159.973 492.07 159.541 491.908 158.989 491.908C158.377 491.908 157.891 492.1 157.531 492.484C157.183 492.856 157.009 493.408 157.009 494.14V499H154.687V486.4H157.009V491.008C157.561 490.168 158.455 489.748 159.691 489.748ZM176.416 491.062V490H178.738V499H176.416V497.938C175.72 498.814 174.742 499.252 173.482 499.252C172.282 499.252 171.25 498.796 170.386 497.884C169.534 496.96 169.108 495.832 169.108 494.5C169.108 493.18 169.534 492.058 170.386 491.134C171.25 490.21 172.282 489.748 173.482 489.748C174.742 489.748 175.72 490.186 176.416 491.062ZM172.132 496.336C172.6 496.804 173.194 497.038 173.914 497.038C174.634 497.038 175.228 496.804 175.696 496.336C176.176 495.856 176.416 495.244 176.416 494.5C176.416 493.756 176.176 493.15 175.696 492.682C175.228 492.202 174.634 491.962 173.914 491.962C173.194 491.962 172.6 492.202 172.132 492.682C171.664 493.15 171.43 493.756 171.43 494.5C171.43 495.244 171.664 495.856 172.132 496.336ZM190.581 489.748C191.793 489.748 192.825 490.21 193.677 491.134C194.541 492.058 194.973 493.18 194.973 494.5C194.973 495.844 194.541 496.972 193.677 497.884C192.837 498.796 191.805 499.252 190.581 499.252C189.321 499.252 188.349 498.814 187.665 497.938V502.6H185.343V490H187.665V491.062C188.349 490.186 189.321 489.748 190.581 489.748ZM188.367 496.336C188.835 496.804 189.429 497.038 190.149 497.038C190.869 497.038 191.463 496.804 191.931 496.336C192.411 495.856 192.651 495.244 192.651 494.5C192.651 493.756 192.411 493.15 191.931 492.682C191.463 492.202 190.869 491.962 190.149 491.962C189.429 491.962 188.835 492.202 188.367 492.682C187.899 493.15 187.665 493.756 187.665 494.5C187.665 495.244 187.899 495.856 188.367 496.336ZM201.615 489.748C202.611 489.748 203.421 490.078 204.045 490.738C204.693 491.41 205.017 492.322 205.017 493.474V499H202.695V493.762C202.695 493.174 202.533 492.718 202.209 492.394C201.897 492.07 201.465 491.908 200.913 491.908C200.301 491.908 199.815 492.1 199.455 492.484C199.107 492.856 198.933 493.408 198.933 494.14V499H196.611V486.4H198.933V491.008C199.485 490.168 200.379 489.748 201.615 489.748ZM214.668 497.884C213.756 498.796 212.628 499.252 211.284 499.252C209.94 499.252 208.812 498.796 207.9 497.884C206.988 496.972 206.531 495.844 206.531 494.5C206.531 493.168 206.988 492.046 207.9 491.134C208.824 490.21 209.952 489.748 211.284 489.748C212.616 489.748 213.744 490.21 214.668 491.134C215.592 492.058 216.054 493.18 216.054 494.5C216.054 495.832 215.592 496.96 214.668 497.884ZM209.538 496.282C210.006 496.75 210.588 496.984 211.284 496.984C211.98 496.984 212.562 496.75 213.03 496.282C213.498 495.814 213.732 495.22 213.732 494.5C213.732 493.78 213.498 493.186 213.03 492.718C212.562 492.25 211.98 492.016 211.284 492.016C210.588 492.016 210.006 492.25 209.538 492.718C209.082 493.198 208.854 493.792 208.854 494.5C208.854 495.208 209.082 495.802 209.538 496.282ZM222.691 489.748C223.687 489.748 224.497 490.078 225.121 490.738C225.769 491.41 226.093 492.322 226.093 493.474V499H223.771V493.762C223.771 493.174 223.609 492.718 223.285 492.394C222.973 492.07 222.541 491.908 221.989 491.908C221.377 491.908 220.891 492.1 220.531 492.484C220.183 492.856 220.009 493.408 220.009 494.14V499H217.687V490H220.009V491.008C220.561 490.168 221.455 489.748 222.691 489.748ZM236.824 495.454H230.038C230.338 496.582 231.184 497.146 232.576 497.146C233.464 497.146 234.136 496.846 234.592 496.246L236.464 497.326C235.576 498.61 234.268 499.252 232.54 499.252C231.052 499.252 229.858 498.802 228.958 497.902C228.058 497.002 227.608 495.868 227.608 494.5C227.608 493.156 228.052 492.028 228.94 491.116C229.816 490.204 230.956 489.748 232.36 489.748C233.692 489.748 234.778 490.204 235.618 491.116C236.482 492.028 236.914 493.156 236.914 494.5C236.914 494.752 236.884 495.07 236.824 495.454ZM230.002 493.654H234.592C234.46 493.066 234.19 492.616 233.782 492.304C233.386 491.992 232.912 491.836 232.36 491.836C231.736 491.836 231.22 491.998 230.812 492.322C230.404 492.634 230.134 493.078 230.002 493.654ZM252.413 494.014H243.413V492.862H252.413V494.014ZM262.063 494.32L266.887 499H265.303L260.803 494.662V499H259.615V490H260.803V493.978L265.087 490H266.707L262.063 494.32ZM275.156 497.866C274.232 498.766 273.116 499.216 271.808 499.216C270.476 499.216 269.354 498.766 268.442 497.866C267.53 496.954 267.074 495.832 267.074 494.5C267.074 493.168 267.53 492.052 268.442 491.152C269.354 490.24 270.476 489.784 271.808 489.784C273.128 489.784 274.244 490.24 275.156 491.152C276.08 492.052 276.542 493.168 276.542 494.5C276.542 495.82 276.08 496.942 275.156 497.866ZM269.288 497.038C269.972 497.722 270.812 498.064 271.808 498.064C272.804 498.064 273.644 497.722 274.328 497.038C275.012 496.33 275.354 495.484 275.354 494.5C275.354 493.504 275.012 492.664 274.328 491.98C273.644 491.284 272.804 490.936 271.808 490.936C270.812 490.936 269.972 491.284 269.288 491.98C268.604 492.664 268.262 493.504 268.262 494.5C268.262 495.484 268.604 496.33 269.288 497.038ZM278.53 490H286.09V499H284.902V491.152H279.718V499H278.53V490ZM296.342 491.764V490H297.53V499H296.342V497.236C295.514 498.556 294.302 499.216 292.706 499.216C291.422 499.216 290.324 498.76 289.412 497.848C288.512 496.936 288.062 495.82 288.062 494.5C288.062 493.18 288.512 492.064 289.412 491.152C290.324 490.24 291.422 489.784 292.706 489.784C294.302 489.784 295.514 490.444 296.342 491.764ZM290.276 497.038C290.96 497.722 291.8 498.064 292.796 498.064C293.792 498.064 294.632 497.722 295.316 497.038C296 496.33 296.342 495.484 296.342 494.5C296.342 493.504 296 492.664 295.316 491.98C294.632 491.284 293.792 490.936 292.796 490.936C291.8 490.936 290.96 491.284 290.276 491.98C289.592 492.664 289.25 493.504 289.25 494.5C289.25 495.484 289.592 496.33 290.276 497.038ZM298.965 490H306.525V491.152H303.339V499H302.151V491.152H298.965V490ZM309.161 493.42H311.627C312.455 493.42 313.163 493.684 313.751 494.212C314.339 494.728 314.633 495.394 314.633 496.21C314.633 497.038 314.339 497.71 313.751 498.226C313.187 498.742 312.479 499 311.627 499H307.973V490H309.161V493.42ZM309.161 497.848H311.627C312.143 497.848 312.575 497.698 312.923 497.398C313.271 497.086 313.445 496.69 313.445 496.21C313.445 495.73 313.271 495.34 312.923 495.04C312.575 494.728 312.143 494.572 311.627 494.572H309.161V497.848ZM320.534 499.216C319.178 499.216 318.05 498.766 317.15 497.866C316.25 496.942 315.8 495.82 315.8 494.5C315.8 493.168 316.25 492.052 317.15 491.152C318.05 490.24 319.178 489.784 320.534 489.784C321.422 489.784 322.22 490 322.928 490.432C323.636 490.852 324.152 491.422 324.476 492.142L323.504 492.7C323.264 492.16 322.874 491.734 322.334 491.422C321.806 491.098 321.206 490.936 320.534 490.936C319.538 490.936 318.698 491.284 318.014 491.98C317.33 492.664 316.988 493.504 316.988 494.5C316.988 495.484 317.33 496.33 318.014 497.038C318.698 497.722 319.538 498.064 320.534 498.064C321.194 498.064 321.788 497.908 322.316 497.596C322.856 497.284 323.276 496.852 323.576 496.3L324.566 496.876C324.194 497.596 323.648 498.166 322.928 498.586C322.208 499.006 321.41 499.216 320.534 499.216ZM328.922 490H332.576V499H331.388V495.544H329.84L327.068 499H325.556L328.4 495.508C327.668 495.4 327.068 495.1 326.6 494.608C326.144 494.104 325.916 493.498 325.916 492.79C325.916 491.986 326.204 491.32 326.78 490.792C327.38 490.264 328.094 490 328.922 490ZM328.922 494.428H331.388V491.152H328.922C328.406 491.152 327.974 491.308 327.626 491.62C327.278 491.92 327.104 492.31 327.104 492.79C327.104 493.27 327.278 493.666 327.626 493.978C327.974 494.278 328.406 494.428 328.922 494.428ZM345.32 494.374C346.304 494.734 346.796 495.436 346.796 496.48C346.796 497.224 346.544 497.83 346.04 498.298C345.548 498.766 344.858 499 343.97 499H339.596V490H343.61C344.474 490 345.146 490.222 345.626 490.666C346.118 491.11 346.364 491.692 346.364 492.412C346.364 493.312 346.016 493.966 345.32 494.374ZM343.61 491.152H340.784V493.888H343.61C344.654 493.888 345.176 493.42 345.176 492.484C345.176 492.064 345.038 491.74 344.762 491.512C344.498 491.272 344.114 491.152 343.61 491.152ZM340.784 497.848H343.97C344.498 497.848 344.9 497.722 345.176 497.47C345.464 497.218 345.608 496.864 345.608 496.408C345.608 495.976 345.464 495.64 345.176 495.4C344.9 495.16 344.498 495.04 343.97 495.04H340.784V497.848ZM40.18 513H47.74V514.152H44.554V522H43.366V514.152H40.18V513ZM52.9942 512.784C54.3382 512.784 55.4122 513.258 56.2162 514.206C57.0442 515.142 57.4582 516.252 57.4582 517.536C57.4582 517.596 57.4462 517.782 57.4222 518.094H49.5202C49.6402 518.994 50.0242 519.714 50.6722 520.254C51.3202 520.794 52.1302 521.064 53.1022 521.064C54.4702 521.064 55.4362 520.554 56.0002 519.534L57.0442 520.146C56.6482 520.794 56.1022 521.304 55.4062 521.676C54.7222 522.036 53.9482 522.216 53.0842 522.216C51.6682 522.216 50.5162 521.772 49.6282 520.884C48.7402 519.996 48.2962 518.868 48.2962 517.5C48.2962 516.144 48.7342 515.022 49.6102 514.134C50.4862 513.234 51.6142 512.784 52.9942 512.784ZM52.9942 513.936C52.0582 513.936 51.2722 514.212 50.6362 514.764C50.0122 515.316 49.6402 516.042 49.5202 516.942H56.2342C56.1022 515.982 55.7362 515.244 55.1362 514.728C54.5122 514.2 53.7982 513.936 52.9942 513.936ZM59.9323 513H66.3763V522H65.1883V514.152H61.1203V518.166C61.1203 519.666 60.8323 520.698 60.2563 521.262C59.6923 521.826 58.9123 522.072 57.9163 522V520.884C58.6123 520.956 59.1223 520.788 59.4463 520.38C59.7703 519.972 59.9323 519.234 59.9323 518.166V513ZM73.0508 512.784C74.3948 512.784 75.4688 513.258 76.2728 514.206C77.1008 515.142 77.5148 516.252 77.5148 517.536C77.5148 517.596 77.5028 517.782 77.4788 518.094H69.5768C69.6968 518.994 70.0808 519.714 70.7288 520.254C71.3768 520.794 72.1868 521.064 73.1588 521.064C74.5268 521.064 75.4928 520.554 76.0568 519.534L77.1008 520.146C76.7048 520.794 76.1588 521.304 75.4628 521.676C74.7788 522.036 74.0048 522.216 73.1408 522.216C71.7248 522.216 70.5728 521.772 69.6848 520.884C68.7968 519.996 68.3528 518.868 68.3528 517.5C68.3528 516.144 68.7908 515.022 69.6668 514.134C70.5428 513.234 71.6708 512.784 73.0508 512.784ZM73.0508 513.936C72.1148 513.936 71.3288 514.212 70.6928 514.764C70.0688 515.316 69.6968 516.042 69.5768 516.942H76.2908C76.1588 515.982 75.7928 515.244 75.1928 514.728C74.5688 514.2 73.8548 513.936 73.0508 513.936ZM84.7685 522.198V525.6H83.5805V522.198C82.1525 522.066 81.0125 521.568 80.1605 520.704C79.2965 519.816 78.8645 518.748 78.8645 517.5C78.8645 516.252 79.2965 515.184 80.1605 514.296C81.0125 513.432 82.1525 512.934 83.5805 512.802V509.4H84.7685V512.802C86.1965 512.934 87.3365 513.432 88.1885 514.296C89.0525 515.184 89.4845 516.252 89.4845 517.5C89.4845 518.748 89.0525 519.816 88.1885 520.704C87.3365 521.568 86.1965 522.066 84.7685 522.198ZM83.5805 521.028V513.972C82.5125 514.08 81.6545 514.458 81.0065 515.106C80.3705 515.754 80.0525 516.552 80.0525 517.5C80.0525 518.448 80.3705 519.246 81.0065 519.894C81.6545 520.542 82.5125 520.92 83.5805 521.028ZM84.7685 513.972V521.028C85.8365 520.92 86.6885 520.542 87.3245 519.894C87.9725 519.246 88.2965 518.448 88.2965 517.5C88.2965 516.552 87.9725 515.754 87.3245 515.106C86.6885 514.458 85.8365 514.08 84.7685 513.972ZM99.0051 520.866C98.0811 521.766 96.9651 522.216 95.6571 522.216C94.3251 522.216 93.2031 521.766 92.2911 520.866C91.3791 519.954 90.9231 518.832 90.9231 517.5C90.9231 516.168 91.3791 515.052 92.2911 514.152C93.2031 513.24 94.3251 512.784 95.6571 512.784C96.9771 512.784 98.0931 513.24 99.0051 514.152C99.9291 515.052 100.391 516.168 100.391 517.5C100.391 518.82 99.9291 519.942 99.0051 520.866ZM93.1371 520.038C93.8211 520.722 94.6611 521.064 95.6571 521.064C96.6531 521.064 97.4931 520.722 98.1771 520.038C98.8611 519.33 99.2031 518.484 99.2031 517.5C99.2031 516.504 98.8611 515.664 98.1771 514.98C97.4931 514.284 96.6531 513.936 95.6571 513.936C94.6611 513.936 93.8211 514.284 93.1371 514.98C92.4531 515.664 92.1111 516.504 92.1111 517.5C92.1111 518.484 92.4531 519.33 93.1371 520.038ZM108.751 516.924V513H109.939V522H108.751V518.076H103.567V522H102.379V513H103.567V516.924H108.751ZM116.609 512.784C117.953 512.784 119.027 513.258 119.831 514.206C120.659 515.142 121.073 516.252 121.073 517.536C121.073 517.596 121.061 517.782 121.037 518.094H113.135C113.255 518.994 113.639 519.714 114.287 520.254C114.935 520.794 115.745 521.064 116.717 521.064C118.085 521.064 119.051 520.554 119.615 519.534L120.659 520.146C120.263 520.794 119.717 521.304 119.021 521.676C118.337 522.036 117.563 522.216 116.699 522.216C115.283 522.216 114.131 521.772 113.243 520.884C112.355 519.996 111.911 518.868 111.911 517.5C111.911 516.144 112.349 515.022 113.225 514.134C114.101 513.234 115.229 512.784 116.609 512.784ZM116.609 513.936C115.673 513.936 114.887 514.212 114.251 514.764C113.627 515.316 113.255 516.042 113.135 516.942H119.849C119.717 515.982 119.351 515.244 118.751 514.728C118.127 514.2 117.413 513.936 116.609 513.936Z" fill="#FF97BA"></path><path d="M47.296 84.136V101H42.88V78.6H48.032L61.536 95.464V78.6H65.952V101H60.8L47.296 84.136ZM80.4918 97.768C82.6678 97.768 84.6518 97.352 86.9237 96.168L88.1718 99.496C86.0278 100.584 83.0198 101.576 80.0758 101.576C74.1238 101.576 70.1878 97.8 70.1878 93C70.1878 87.656 74.7318 84.456 80.0758 84.456C84.9398 84.456 88.5878 87.624 88.5878 91.944C88.5878 92.648 88.4918 93.384 88.2998 94.12H74.5398C75.1478 96.456 77.4838 97.768 80.4918 97.768ZM79.8198 88.008C77.0677 88.008 75.2758 89.064 74.6358 91.016H84.3318C83.9158 89.128 82.3158 88.008 79.8198 88.008ZM94.39 85L99.638 96.232L104.822 85H109.526L101.942 101H97.302L89.75 85H94.39ZM121.179 97.768C123.355 97.768 125.339 97.352 127.611 96.168L128.859 99.496C126.715 100.584 123.707 101.576 120.763 101.576C114.811 101.576 110.875 97.8 110.875 93C110.875 87.656 115.419 84.456 120.763 84.456C125.627 84.456 129.275 87.624 129.275 91.944C129.275 92.648 129.179 93.384 128.987 94.12H115.227C115.835 96.456 118.171 97.768 121.179 97.768ZM120.507 88.008C117.755 88.008 115.963 89.064 115.323 91.016H125.019C124.603 89.128 123.003 88.008 120.507 88.008ZM142.982 84.456C143.878 84.456 144.87 84.712 145.67 85.096L144.774 88.936C144.006 88.584 143.174 88.392 142.566 88.392C139.91 88.392 137.062 90.12 137.062 93.064V101H132.838V85H137.062V88.552C137.99 86.824 140.198 84.456 142.982 84.456ZM166.436 88.424C163.78 88.424 161.124 89.896 161.124 93.064V101H156.9V77.288H161.124V88.552C162.244 86.472 164.612 84.52 167.652 84.52C172.004 84.52 174.5 87.4 174.5 91.752V101H170.276V92.264C170.276 89.992 168.964 88.424 166.436 88.424ZM184.75 91.88C186.478 91.88 188.75 92.392 190.126 92.872V91.016C190.126 89.352 189.038 88.232 187.022 88.232C185.358 88.232 182.926 88.968 180.59 89.832L179.534 85.992C181.518 85.352 184.878 84.36 187.406 84.36C191.79 84.36 194.35 86.696 194.35 91.08V96.84C194.35 97.32 194.67 97.608 195.118 97.608C195.598 97.608 196.43 97.256 197.358 96.776L198.222 100.04C196.462 101 194.542 101.64 193.23 101.64C191.086 101.64 190.19 100.136 190.126 98.344C188.59 100.168 186.158 101.64 183.438 101.64C180.43 101.64 178.19 99.656 178.19 96.776C178.19 93.352 181.454 91.88 184.75 91.88ZM184.814 98.024C186.414 98.024 188.622 97.16 190.126 95.688V95.08C188.366 94.76 186.51 94.6 184.974 94.6C183.566 94.6 182.51 95.272 182.51 96.424C182.51 97.48 183.47 98.024 184.814 98.024ZM202.859 85L208.107 96.232L213.291 85H217.995L210.411 101H205.771L198.219 85H202.859ZM229.648 97.768C231.824 97.768 233.808 97.352 236.08 96.168L237.328 99.496C235.184 100.584 232.176 101.576 229.232 101.576C223.28 101.576 219.344 97.8 219.344 93C219.344 87.656 223.888 84.456 229.232 84.456C234.096 84.456 237.744 87.624 237.744 91.944C237.744 92.648 237.648 93.384 237.456 94.12H223.696C224.304 96.456 226.64 97.768 229.648 97.768ZM228.976 88.008C226.224 88.008 224.432 89.064 223.792 91.016H233.488C233.072 89.128 231.472 88.008 228.976 88.008ZM255.265 78.6V101H250.849V78.6H255.265ZM278.867 97.768C281.043 97.768 283.027 97.352 285.299 96.168L286.547 99.496C284.403 100.584 281.395 101.576 278.451 101.576C272.499 101.576 268.563 97.8 268.563 93C268.563 87.656 273.107 84.456 278.451 84.456C283.315 84.456 286.963 87.624 286.963 91.944C286.963 92.648 286.867 93.384 286.675 94.12H272.915C273.523 96.456 275.859 97.768 278.867 97.768ZM278.195 88.008C275.443 88.008 273.651 89.064 273.011 91.016H282.707C282.291 89.128 280.691 88.008 278.195 88.008ZM292.765 85L298.013 96.232L303.197 85H307.901L300.317 101H295.677L288.125 85H292.765ZM319.554 97.768C321.73 97.768 323.714 97.352 325.986 96.168L327.234 99.496C325.09 100.584 322.082 101.576 319.138 101.576C313.186 101.576 309.25 97.8 309.25 93C309.25 87.656 313.794 84.456 319.138 84.456C324.002 84.456 327.65 87.624 327.65 91.944C327.65 92.648 327.554 93.384 327.362 94.12H313.602C314.21 96.456 316.546 97.768 319.554 97.768ZM318.882 88.008C316.13 88.008 314.338 89.064 313.698 91.016H323.394C322.978 89.128 321.378 88.008 318.882 88.008ZM341.357 84.456C342.253 84.456 343.245 84.712 344.045 85.096L343.149 88.936C342.381 88.584 341.549 88.392 340.941 88.392C338.285 88.392 335.437 90.12 335.437 93.064V101H331.213V85H335.437V88.552C336.365 86.824 338.573 84.456 341.357 84.456ZM56.544 125.576L55.424 129.288C53.344 128.488 51.36 128.072 49.312 128.072C47.2 128.072 45.536 128.392 45.536 129.352C45.536 132.008 57.44 129.8 57.44 136.04C57.44 139.624 53.12 141.64 49.216 141.64C46.208 141.64 43.232 140.712 41.056 139.56L42.304 136.232C44.416 137.16 46.912 137.928 49.376 137.928C51.68 137.928 53.28 137.288 53.28 136.168C53.28 133.64 41.376 135.752 41.376 129.512C41.376 126.376 44.608 124.392 49.152 124.392C51.68 124.392 54.656 124.936 56.544 125.576ZM70.6548 128.424C67.9988 128.424 65.3428 129.896 65.3428 133.064V141H61.1188V125H65.3428V128.552C66.4628 126.472 68.8308 124.52 71.8708 124.52C76.2228 124.52 78.7188 127.4 78.7188 131.752V141H74.4948V132.264C74.4948 129.992 73.1828 128.424 70.6548 128.424ZM92.2648 124.456C97.6088 124.456 102.217 127.496 102.217 132.84C102.217 137.64 98.0568 141.576 92.2648 141.576C86.4728 141.576 82.3128 137.64 82.3128 132.84C82.3128 127.496 86.9208 124.456 92.2648 124.456ZM92.2648 128.136C88.9368 128.136 86.5688 129.864 86.5688 132.84C86.5688 135.528 89.0968 137.928 92.2648 137.928C95.4328 137.928 97.9608 135.528 97.9608 132.84C97.9608 129.864 95.5928 128.136 92.2648 128.136ZM114.859 124.456C120.203 124.456 124.811 127.496 124.811 132.84C124.811 137.64 120.651 141.576 114.859 141.576C109.067 141.576 104.907 137.64 104.907 132.84C104.907 127.496 109.515 124.456 114.859 124.456ZM114.859 128.136C111.531 128.136 109.163 129.864 109.163 132.84C109.163 135.528 111.691 137.928 114.859 137.928C118.027 137.928 120.555 135.528 120.555 132.84C120.555 129.864 118.187 128.136 114.859 128.136ZM139.66 124.456C144.044 124.456 147.724 127.656 147.724 132.84C147.724 137.64 143.692 141.576 138.316 141.576C136.556 141.576 134.348 140.936 132.78 140.456V148.68H128.556V125H132.78V128.552C133.836 126.344 136.396 124.456 139.66 124.456ZM138.412 128.392C135.564 128.392 132.78 130.12 132.78 133.064V136.904C134.604 137.448 136.396 137.864 138.38 137.864C141.132 137.864 143.468 135.528 143.468 132.84C143.468 129.96 141.26 128.392 138.412 128.392ZM160.711 137.768C162.887 137.768 164.871 137.352 167.142 136.168L168.391 139.496C166.247 140.584 163.239 141.576 160.295 141.576C154.343 141.576 150.407 137.8 150.407 133C150.407 127.656 154.951 124.456 160.295 124.456C165.159 124.456 168.807 127.624 168.807 131.944C168.807 132.648 168.711 133.384 168.519 134.12H154.759C155.367 136.456 157.703 137.768 160.711 137.768ZM160.039 128.008C157.286 128.008 155.495 129.064 154.855 131.016H164.551C164.135 129.128 162.535 128.008 160.039 128.008ZM179.377 141.544C174.993 141.544 171.313 138.344 171.313 133.16C171.313 128.36 175.345 124.424 180.721 124.424C182.449 124.424 184.657 125.064 186.257 125.576V117H190.481V141H186.257V137.448C185.201 139.656 182.641 141.544 179.377 141.544ZM180.625 137.608C183.441 137.608 186.257 135.624 186.257 132.552V129.096C184.401 128.552 182.609 128.136 180.657 128.136C177.777 128.136 175.569 130.312 175.569 133.128C175.569 136.008 177.777 137.608 180.625 137.608ZM202.578 128.68V125.32L205.746 125.128L206.322 120.2H209.842V125H216.498V128.68H209.842V134.728C209.842 136.456 210.77 137.64 212.434 137.64C213.682 137.64 215.09 137.128 216.114 136.488L217.042 140.104C215.698 140.808 213.426 141.544 211.73 141.544C207.762 141.544 205.618 138.92 205.618 134.888V128.68H202.578ZM229.78 128.424C227.124 128.424 224.468 129.896 224.468 133.064V141H220.244V117.288H224.468V128.552C225.588 126.472 227.956 124.52 230.996 124.52C235.348 124.52 237.844 127.4 237.844 131.752V141H233.62V132.264C233.62 129.992 232.308 128.424 229.78 128.424ZM252.638 124.456C253.534 124.456 254.526 124.712 255.326 125.096L254.43 128.936C253.662 128.584 252.83 128.392 252.222 128.392C249.566 128.392 246.718 130.12 246.718 133.064V141H242.494V125H246.718V128.552C247.646 126.824 249.854 124.456 252.638 124.456ZM266.39 124.456C271.734 124.456 276.342 127.496 276.342 132.84C276.342 137.64 272.182 141.576 266.39 141.576C260.598 141.576 256.438 137.64 256.438 132.84C256.438 127.496 261.046 124.456 266.39 124.456ZM266.39 128.136C263.062 128.136 260.694 129.864 260.694 132.84C260.694 135.528 263.222 137.928 266.39 137.928C269.558 137.928 272.086 135.528 272.086 132.84C272.086 129.864 269.718 128.136 266.39 128.136ZM286.648 141.512C282.36 141.512 279.928 138.632 279.928 134.28V125H284.152V133.736C284.152 136.328 285.688 137.608 288.216 137.608C290.904 137.608 293.176 136.136 293.176 132.744V125H297.4V141H293.176V137.48C292.024 139.752 289.56 141.512 286.648 141.512ZM307.909 138.888H310.085C315.557 138.888 319.589 140.328 319.589 143.656C319.589 147.304 315.557 149.096 310.085 149.096C304.261 149.096 300.485 147.336 300.485 143.976C300.485 142.28 302.181 140.712 303.781 140.296C302.917 139.88 302.245 138.76 302.245 137.736C302.245 136.68 303.173 135.848 303.973 135.336C302.501 134.376 301.125 132.616 301.125 130.888C301.125 126.664 305.061 124.456 309.445 124.456C311.173 124.456 312.837 124.808 314.213 125.48C315.429 124.488 317.029 123.72 319.077 123.368L319.845 127.304C318.725 127.432 317.829 127.656 317.061 128.04C317.509 128.84 317.797 129.8 317.797 130.888C317.797 134.536 314.277 137.288 309.445 137.288C308.645 137.288 307.845 137.224 307.109 137.096C306.725 137.192 306.309 137.512 306.309 137.96C306.309 138.504 306.853 138.888 307.909 138.888ZM309.413 127.944C307.109 127.944 305.381 128.936 305.381 130.76C305.381 132.36 307.109 133.512 309.413 133.512C311.845 133.512 313.413 132.264 313.413 130.76C313.413 128.936 311.685 127.944 309.413 127.944ZM310.021 142.472C309.381 142.472 306.405 142.472 305.861 142.504C305.157 142.792 304.549 143.336 304.549 143.976C304.549 145.128 306.501 145.64 310.021 145.64C313.317 145.64 315.493 145.192 315.493 144.008C315.493 142.92 313.317 142.472 310.021 142.472ZM331.936 128.424C329.28 128.424 326.624 129.896 326.624 133.064V141H322.4V117.288H326.624V128.552C327.744 126.472 330.112 124.52 333.152 124.52C337.504 124.52 340 127.4 340 131.752V141H335.776V132.264C335.776 129.992 334.464 128.424 331.936 128.424ZM52.64 164.52C55.648 164.52 57.6 166.024 58.496 168.424C59.776 166.504 62.336 164.52 65.024 164.52C69.184 164.52 71.392 167.368 71.392 171.592V181H67.168V172.104C67.168 169.992 65.92 168.424 63.584 168.424C61.376 168.424 59.008 169.992 59.008 173.032V181H54.784V172.104C54.784 169.992 53.536 168.424 51.2 168.424C48.992 168.424 46.624 169.96 46.624 173.032V181H42.4V165H46.624V168.392C47.68 166.504 49.856 164.52 52.64 164.52ZM93.465 165L85.753 182.312C84.217 185.736 82.745 189 78.233 189C78.009 189 77.305 188.936 76.761 188.84L76.985 184.776C77.561 184.872 78.201 184.936 78.425 184.936C80.121 184.936 81.017 183.176 81.817 181.384C81.817 181.32 81.881 181.256 81.881 181.224L73.625 165H78.233L83.961 176.424C85.625 172.552 87.385 168.424 88.825 165H93.465ZM116.035 164.456C120.419 164.456 124.099 167.656 124.099 172.84C124.099 177.64 120.067 181.576 114.691 181.576C112.931 181.576 110.723 180.936 109.155 180.456V188.68H104.931V165H109.155V168.552C110.211 166.344 112.771 164.456 116.035 164.456ZM114.787 168.392C111.939 168.392 109.155 170.12 109.155 173.064V176.904C110.979 177.448 112.771 177.864 114.755 177.864C117.507 177.864 119.843 175.528 119.843 172.84C119.843 169.96 117.635 168.392 114.787 168.392ZM133.438 171.88C135.166 171.88 137.438 172.392 138.814 172.872V171.016C138.814 169.352 137.726 168.232 135.71 168.232C134.046 168.232 131.614 168.968 129.278 169.832L128.222 165.992C130.206 165.352 133.566 164.36 136.094 164.36C140.478 164.36 143.038 166.696 143.038 171.08V176.84C143.038 177.32 143.358 177.608 143.806 177.608C144.286 177.608 145.118 177.256 146.046 176.776L146.91 180.04C145.15 181 143.23 181.64 141.918 181.64C139.774 181.64 138.878 180.136 138.814 178.344C137.278 180.168 134.845 181.64 132.126 181.64C129.118 181.64 126.878 179.656 126.878 176.776C126.878 173.352 130.141 171.88 133.438 171.88ZM133.502 178.024C135.102 178.024 137.31 177.16 138.814 175.688V175.08C137.054 174.76 135.198 174.6 133.661 174.6C132.254 174.6 131.198 175.272 131.198 176.424C131.198 177.48 132.158 178.024 133.502 178.024ZM159.45 164.456C160.346 164.456 161.338 164.712 162.138 165.096L161.242 168.936C160.474 168.584 159.642 168.392 159.034 168.392C156.378 168.392 153.53 170.12 153.53 173.064V181H149.306V165H153.53V168.552C154.458 166.824 156.666 164.456 159.45 164.456ZM162.546 168.68V165.32L165.714 165.128L166.29 160.2H169.81V165H176.466V168.68H169.81V174.728C169.81 176.456 170.738 177.64 172.402 177.64C173.65 177.64 175.058 177.128 176.082 176.488L177.01 180.104C175.666 180.808 173.394 181.544 171.698 181.544C167.73 181.544 165.586 178.92 165.586 174.888V168.68H162.546ZM189.749 168.424C187.093 168.424 184.437 169.896 184.437 173.064V181H180.213V165H184.437V168.552C185.557 166.472 187.925 164.52 190.965 164.52C195.317 164.52 197.812 167.4 197.812 171.752V181H193.589V172.264C193.589 169.992 192.277 168.424 189.749 168.424ZM211.711 177.768C213.887 177.768 215.871 177.352 218.142 176.168L219.391 179.496C217.247 180.584 214.239 181.576 211.295 181.576C205.343 181.576 201.407 177.8 201.407 173C201.407 167.656 205.951 164.456 211.295 164.456C216.159 164.456 219.807 167.624 219.807 171.944C219.807 172.648 219.711 173.384 219.519 174.12H205.759C206.367 176.456 208.703 177.768 211.711 177.768ZM211.039 168.008C208.286 168.008 206.495 169.064 205.855 171.016H215.551C215.135 169.128 213.535 168.008 211.039 168.008ZM233.513 164.456C234.409 164.456 235.401 164.712 236.201 165.096L235.305 168.936C234.537 168.584 233.705 168.392 233.097 168.392C230.441 168.392 227.593 170.12 227.593 173.064V181H223.369V165H227.593V168.552C228.521 166.824 230.729 164.456 233.513 164.456ZM237.985 158.792C237.985 157.448 239.105 156.36 240.513 156.36C242.369 156.36 243.169 157.928 243.169 159.688C243.169 161.992 241.729 164.936 239.553 166.568L237.857 164.616C238.977 163.656 239.745 162.504 239.873 161.064C238.785 160.84 237.985 159.912 237.985 158.792ZM261.513 165.576L260.393 169.288C258.313 168.488 256.329 168.072 254.281 168.072C252.169 168.072 250.505 168.392 250.505 169.352C250.505 172.008 262.409 169.8 262.409 176.04C262.409 179.624 258.089 181.64 254.185 181.64C251.177 181.64 248.201 180.712 246.025 179.56L247.273 176.232C249.385 177.16 251.881 177.928 254.345 177.928C256.649 177.928 258.249 177.288 258.249 176.168C258.249 173.64 246.345 175.752 246.345 169.512C246.345 166.376 249.577 164.392 254.121 164.392C256.649 164.392 259.625 164.936 261.513 165.576ZM53.504 204.456C57.888 204.456 61.568 207.656 61.568 212.84C61.568 217.64 57.536 221.576 52.16 221.576C50.4 221.576 48.192 220.936 46.624 220.456V228.68H42.4V205H46.624V208.552C47.68 206.344 50.24 204.456 53.504 204.456ZM52.256 208.392C49.408 208.392 46.624 210.12 46.624 213.064V216.904C48.448 217.448 50.24 217.864 52.224 217.864C54.976 217.864 57.312 215.528 57.312 212.84C57.312 209.96 55.104 208.392 52.256 208.392ZM74.8423 208.424C72.1863 208.424 69.5303 209.896 69.5303 213.064V221H65.3063V197.288H69.5303V208.552C70.6503 206.472 73.0183 204.52 76.0583 204.52C80.4103 204.52 82.9062 207.4 82.9062 211.752V221H78.6823V212.264C78.6823 209.992 77.3703 208.424 74.8423 208.424ZM96.4523 204.456C101.796 204.456 106.404 207.496 106.404 212.84C106.404 217.64 102.244 221.576 96.4523 221.576C90.6603 221.576 86.5003 217.64 86.5003 212.84C86.5003 207.496 91.1083 204.456 96.4523 204.456ZM96.4523 208.136C93.1243 208.136 90.7563 209.864 90.7563 212.84C90.7563 215.528 93.2843 217.928 96.4523 217.928C99.6203 217.928 102.148 215.528 102.148 212.84C102.148 209.864 99.7803 208.136 96.4523 208.136ZM119.686 208.424C117.03 208.424 114.374 209.896 114.374 213.064V221H110.15V205H114.374V208.552C115.494 206.472 117.862 204.52 120.902 204.52C125.254 204.52 127.75 207.4 127.75 211.752V221H123.526V212.264C123.526 209.992 122.214 208.424 119.686 208.424ZM141.648 217.768C143.824 217.768 145.808 217.352 148.08 216.168L149.328 219.496C147.184 220.584 144.176 221.576 141.232 221.576C135.28 221.576 131.344 217.8 131.344 213C131.344 207.656 135.888 204.456 141.232 204.456C146.096 204.456 149.744 207.624 149.744 211.944C149.744 212.648 149.648 213.384 149.456 214.12H135.696C136.304 216.456 138.64 217.768 141.648 217.768ZM140.976 208.008C138.224 208.008 136.432 209.064 135.792 211.016H145.488C145.072 209.128 143.472 208.008 140.976 208.008Z" fill="#FFC2D7"></path><path d="M41.44 285.4H46.3C48.016 285.4 49.432 286.012 50.548 287.236C51.676 288.436 52.24 289.924 52.24 291.7C52.24 293.476 51.676 294.97 50.548 296.182C49.432 297.394 48.016 298 46.3 298H41.44V285.4ZM42.7 296.812H46.3C47.68 296.812 48.808 296.32 49.684 295.336C50.572 294.34 51.016 293.128 51.016 291.7C51.016 290.272 50.572 289.06 49.684 288.064C48.808 287.08 47.68 286.588 46.3 286.588H42.7V296.812ZM55.6731 286.228C55.6731 286.468 55.5891 286.672 55.4211 286.84C55.2531 287.008 55.0491 287.092 54.8091 287.092C54.5691 287.092 54.3651 287.008 54.1971 286.84C54.0291 286.672 53.9451 286.468 53.9451 286.228C53.9451 285.988 54.0291 285.784 54.1971 285.616C54.3651 285.448 54.5691 285.364 54.8091 285.364C55.0491 285.364 55.2531 285.448 55.4211 285.616C55.5891 285.784 55.6731 285.988 55.6731 286.228ZM55.4031 298H54.2151V289H55.4031V298ZM65.6641 290.764V285.4H66.8521V298H65.6641V296.236C64.8361 297.556 63.6241 298.216 62.0281 298.216C60.7441 298.216 59.6461 297.76 58.7341 296.848C57.8341 295.936 57.3841 294.82 57.3841 293.5C57.3841 292.18 57.8341 291.064 58.7341 290.152C59.6461 289.24 60.7441 288.784 62.0281 288.784C63.6241 288.784 64.8361 289.444 65.6641 290.764ZM59.5981 296.038C60.2821 296.722 61.1221 297.064 62.1181 297.064C63.1141 297.064 63.9541 296.722 64.6381 296.038C65.3221 295.33 65.6641 294.484 65.6641 293.5C65.6641 292.504 65.3221 291.664 64.6381 290.98C63.9541 290.284 63.1141 289.936 62.1181 289.936C61.1221 289.936 60.2821 290.284 59.5981 290.98C58.9141 291.664 58.5721 292.504 58.5721 293.5C58.5721 294.484 58.9141 295.33 59.5981 296.038ZM77.4314 296.542L80.3474 289H81.6074L77.7554 298.828C77.3954 299.74 76.8914 300.442 76.2434 300.934C75.6074 301.438 74.8994 301.66 74.1194 301.6V300.484C75.1994 300.616 76.0214 299.992 76.5854 298.612L76.8194 298.054L72.7874 289H74.0474L77.4314 296.542ZM90.2336 296.866C89.3096 297.766 88.1936 298.216 86.8856 298.216C85.5536 298.216 84.4316 297.766 83.5196 296.866C82.6076 295.954 82.1516 294.832 82.1516 293.5C82.1516 292.168 82.6076 291.052 83.5196 290.152C84.4316 289.24 85.5536 288.784 86.8856 288.784C88.2056 288.784 89.3216 289.24 90.2336 290.152C91.1576 291.052 91.6196 292.168 91.6196 293.5C91.6196 294.82 91.1576 295.942 90.2336 296.866ZM84.3656 296.038C85.0496 296.722 85.8896 297.064 86.8856 297.064C87.8816 297.064 88.7216 296.722 89.4056 296.038C90.0896 295.33 90.4316 294.484 90.4316 293.5C90.4316 292.504 90.0896 291.664 89.4056 290.98C88.7216 290.284 87.8816 289.936 86.8856 289.936C85.8896 289.936 85.0496 290.284 84.3656 290.98C83.6816 291.664 83.3396 292.504 83.3396 293.5C83.3396 294.484 83.6816 295.33 84.3656 296.038ZM99.9437 293.716V289H101.132V298H99.9437V296.596C99.2717 297.676 98.2637 298.216 96.9197 298.216C95.8397 298.216 94.9817 297.886 94.3457 297.226C93.7097 296.554 93.3917 295.654 93.3917 294.526V289H94.5797V294.526C94.5797 295.33 94.7897 295.954 95.2097 296.398C95.6417 296.842 96.2477 297.064 97.0277 297.064C97.9277 297.064 98.6357 296.782 99.1517 296.218C99.6797 295.654 99.9437 294.82 99.9437 293.716ZM115.885 290.764V285.4H117.073V298H115.885V296.236C115.057 297.556 113.845 298.216 112.249 298.216C110.965 298.216 109.867 297.76 108.955 296.848C108.055 295.936 107.605 294.82 107.605 293.5C107.605 292.18 108.055 291.064 108.955 290.152C109.867 289.24 110.965 288.784 112.249 288.784C113.845 288.784 115.057 289.444 115.885 290.764ZM109.819 296.038C110.503 296.722 111.343 297.064 112.339 297.064C113.335 297.064 114.175 296.722 114.859 296.038C115.543 295.33 115.885 294.484 115.885 293.5C115.885 292.504 115.543 291.664 114.859 290.98C114.175 290.284 113.335 289.936 112.339 289.936C111.343 289.936 110.503 290.284 109.819 290.98C109.135 291.664 108.793 292.504 108.793 293.5C108.793 294.484 109.135 295.33 109.819 296.038ZM127.13 296.866C126.206 297.766 125.09 298.216 123.782 298.216C122.45 298.216 121.328 297.766 120.416 296.866C119.504 295.954 119.048 294.832 119.048 293.5C119.048 292.168 119.504 291.052 120.416 290.152C121.328 289.24 122.45 288.784 123.782 288.784C125.102 288.784 126.218 289.24 127.13 290.152C128.054 291.052 128.516 292.168 128.516 293.5C128.516 294.82 128.054 295.942 127.13 296.866ZM121.262 296.038C121.946 296.722 122.786 297.064 123.782 297.064C124.778 297.064 125.618 296.722 126.302 296.038C126.986 295.33 127.328 294.484 127.328 293.5C127.328 292.504 126.986 291.664 126.302 290.98C125.618 290.284 124.778 289.936 123.782 289.936C122.786 289.936 121.946 290.284 121.262 290.98C120.578 291.664 120.236 292.504 120.236 293.5C120.236 294.484 120.578 295.33 121.262 296.038ZM136.462 286.228C136.462 286.468 136.378 286.672 136.21 286.84C136.042 287.008 135.838 287.092 135.598 287.092C135.358 287.092 135.154 287.008 134.986 286.84C134.818 286.672 134.734 286.468 134.734 286.228C134.734 285.988 134.818 285.784 134.986 285.616C135.154 285.448 135.358 285.364 135.598 285.364C135.838 285.364 136.042 285.448 136.21 285.616C136.378 285.784 136.462 285.988 136.462 286.228ZM136.192 298H135.004V289H136.192V298ZM143.483 289V290.152H140.891V295.606C140.891 296.098 140.987 296.452 141.179 296.668C141.371 296.872 141.659 296.98 142.043 296.992C142.427 296.992 142.907 296.98 143.483 296.956V298C142.199 298.192 141.245 298.102 140.621 297.73C140.009 297.346 139.703 296.638 139.703 295.606V290.152H137.813V289H139.703V286.84L140.891 286.48V289H143.483ZM154.787 288.784C156.071 288.784 157.163 289.24 158.063 290.152C158.975 291.064 159.431 292.18 159.431 293.5C159.431 294.82 158.975 295.936 158.063 296.848C157.163 297.76 156.071 298.216 154.787 298.216C153.191 298.216 151.979 297.556 151.151 296.236V298H149.963V285.4H151.151V290.764C151.979 289.444 153.191 288.784 154.787 288.784ZM152.177 296.038C152.861 296.722 153.701 297.064 154.697 297.064C155.693 297.064 156.533 296.722 157.217 296.038C157.901 295.33 158.243 294.484 158.243 293.5C158.243 292.504 157.901 291.664 157.217 290.98C156.533 290.284 155.693 289.936 154.697 289.936C153.701 289.936 152.861 290.284 152.177 290.98C151.493 291.664 151.151 292.504 151.151 293.5C151.151 294.484 151.493 295.33 152.177 296.038ZM165.564 288.784C166.908 288.784 167.982 289.258 168.786 290.206C169.614 291.142 170.028 292.252 170.028 293.536C170.028 293.596 170.016 293.782 169.992 294.094H162.09C162.21 294.994 162.594 295.714 163.242 296.254C163.89 296.794 164.7 297.064 165.672 297.064C167.04 297.064 168.006 296.554 168.57 295.534L169.614 296.146C169.218 296.794 168.672 297.304 167.976 297.676C167.292 298.036 166.518 298.216 165.654 298.216C164.238 298.216 163.086 297.772 162.198 296.884C161.31 295.996 160.866 294.868 160.866 293.5C160.866 292.144 161.304 291.022 162.18 290.134C163.056 289.234 164.184 288.784 165.564 288.784ZM165.564 289.936C164.628 289.936 163.842 290.212 163.206 290.764C162.582 291.316 162.21 292.042 162.09 292.942H168.804C168.672 291.982 168.306 291.244 167.706 290.728C167.082 290.2 166.368 289.936 165.564 289.936ZM176.112 298.216C174.756 298.216 173.628 297.766 172.728 296.866C171.828 295.942 171.378 294.82 171.378 293.5C171.378 292.168 171.828 291.052 172.728 290.152C173.628 289.24 174.756 288.784 176.112 288.784C177 288.784 177.798 289 178.506 289.432C179.214 289.852 179.73 290.422 180.054 291.142L179.082 291.7C178.842 291.16 178.452 290.734 177.912 290.422C177.384 290.098 176.784 289.936 176.112 289.936C175.116 289.936 174.276 290.284 173.592 290.98C172.908 291.664 172.566 292.504 172.566 293.5C172.566 294.484 172.908 295.33 173.592 296.038C174.276 296.722 175.116 297.064 176.112 297.064C176.772 297.064 177.366 296.908 177.894 296.596C178.434 296.284 178.854 295.852 179.154 295.3L180.144 295.876C179.772 296.596 179.226 297.166 178.506 297.586C177.786 298.006 176.988 298.216 176.112 298.216ZM189.502 290.764V289H190.69V298H189.502V296.236C188.674 297.556 187.462 298.216 185.866 298.216C184.582 298.216 183.484 297.76 182.572 296.848C181.672 295.936 181.222 294.82 181.222 293.5C181.222 292.18 181.672 291.064 182.572 290.152C183.484 289.24 184.582 288.784 185.866 288.784C187.462 288.784 188.674 289.444 189.502 290.764ZM183.436 296.038C184.12 296.722 184.96 297.064 185.956 297.064C186.952 297.064 187.792 296.722 188.476 296.038C189.16 295.33 189.502 294.484 189.502 293.5C189.502 292.504 189.16 291.664 188.476 290.98C187.792 290.284 186.952 289.936 185.956 289.936C184.96 289.936 184.12 290.284 183.436 290.98C182.752 291.664 182.41 292.504 182.41 293.5C182.41 294.484 182.752 295.33 183.436 296.038ZM199.541 293.716V289H200.729V298H199.541V296.596C198.869 297.676 197.861 298.216 196.517 298.216C195.437 298.216 194.579 297.886 193.943 297.226C193.307 296.554 192.989 295.654 192.989 294.526V289H194.177V294.526C194.177 295.33 194.387 295.954 194.807 296.398C195.239 296.842 195.845 297.064 196.625 297.064C197.525 297.064 198.233 296.782 198.749 296.218C199.277 295.654 199.541 294.82 199.541 293.716ZM204.178 291.358C204.178 292.054 204.796 292.564 206.032 292.888C206.38 292.972 206.608 293.032 206.716 293.068C206.824 293.092 207.034 293.158 207.346 293.266C207.67 293.362 207.892 293.446 208.012 293.518C208.144 293.59 208.324 293.704 208.552 293.86C208.78 294.004 208.942 294.154 209.038 294.31C209.134 294.454 209.224 294.646 209.308 294.886C209.392 295.114 209.434 295.36 209.434 295.624C209.434 296.392 209.128 297.016 208.516 297.496C207.928 297.976 207.148 298.216 206.176 298.216C205.336 298.216 204.61 298.03 203.998 297.658C203.386 297.274 202.954 296.77 202.702 296.146L203.71 295.552C203.878 296.02 204.178 296.392 204.61 296.668C205.054 296.932 205.576 297.064 206.176 297.064C206.788 297.064 207.286 296.944 207.67 296.704C208.054 296.464 208.246 296.104 208.246 295.624C208.246 294.928 207.628 294.418 206.392 294.094C206.044 294.01 205.816 293.956 205.708 293.932C205.6 293.896 205.384 293.83 205.06 293.734C204.748 293.626 204.526 293.536 204.394 293.464C204.274 293.392 204.1 293.284 203.872 293.14C203.644 292.984 203.482 292.834 203.386 292.69C203.29 292.534 203.2 292.342 203.116 292.114C203.032 291.874 202.99 291.622 202.99 291.358C202.99 290.626 203.278 290.014 203.854 289.522C204.454 289.03 205.192 288.784 206.068 288.784C206.788 288.784 207.424 288.946 207.976 289.27C208.54 289.594 208.954 290.044 209.218 290.62L208.228 291.196C207.892 290.356 207.172 289.936 206.068 289.936C205.528 289.936 205.078 290.062 204.718 290.314C204.358 290.566 204.178 290.914 204.178 291.358ZM215.311 288.784C216.655 288.784 217.729 289.258 218.533 290.206C219.361 291.142 219.775 292.252 219.775 293.536C219.775 293.596 219.763 293.782 219.739 294.094H211.837C211.957 294.994 212.341 295.714 212.989 296.254C213.637 296.794 214.447 297.064 215.419 297.064C216.787 297.064 217.753 296.554 218.317 295.534L219.361 296.146C218.965 296.794 218.419 297.304 217.723 297.676C217.039 298.036 216.265 298.216 215.401 298.216C213.985 298.216 212.833 297.772 211.945 296.884C211.057 295.996 210.613 294.868 210.613 293.5C210.613 292.144 211.051 291.022 211.927 290.134C212.803 289.234 213.931 288.784 215.311 288.784ZM215.311 289.936C214.375 289.936 213.589 290.212 212.953 290.764C212.329 291.316 211.957 292.042 211.837 292.942H218.551C218.419 291.982 218.053 291.244 217.453 290.728C216.829 290.2 216.115 289.936 215.311 289.936ZM229.728 296.542L232.644 289H233.904L230.052 298.828C229.692 299.74 229.188 300.442 228.54 300.934C227.904 301.438 227.196 301.66 226.416 301.6V300.484C227.496 300.616 228.318 299.992 228.882 298.612L229.116 298.054L225.084 289H226.344L229.728 296.542ZM242.531 296.866C241.607 297.766 240.491 298.216 239.183 298.216C237.851 298.216 236.729 297.766 235.817 296.866C234.905 295.954 234.449 294.832 234.449 293.5C234.449 292.168 234.905 291.052 235.817 290.152C236.729 289.24 237.851 288.784 239.183 288.784C240.503 288.784 241.619 289.24 242.531 290.152C243.455 291.052 243.917 292.168 243.917 293.5C243.917 294.82 243.455 295.942 242.531 296.866ZM236.663 296.038C237.347 296.722 238.187 297.064 239.183 297.064C240.179 297.064 241.019 296.722 241.703 296.038C242.387 295.33 242.729 294.484 242.729 293.5C242.729 292.504 242.387 291.664 241.703 290.98C241.019 290.284 240.179 289.936 239.183 289.936C238.187 289.936 237.347 290.284 236.663 290.98C235.979 291.664 235.637 292.504 235.637 293.5C235.637 294.484 235.979 295.33 236.663 296.038ZM252.241 293.716V289H253.429V298H252.241V296.596C251.569 297.676 250.561 298.216 249.217 298.216C248.137 298.216 247.279 297.886 246.643 297.226C246.007 296.554 245.689 295.654 245.689 294.526V289H246.877V294.526C246.877 295.33 247.087 295.954 247.507 296.398C247.939 296.842 248.545 297.064 249.325 297.064C250.225 297.064 250.933 296.782 251.449 296.218C251.977 295.654 252.241 294.82 252.241 293.716ZM261.378 291.358C261.378 292.054 261.996 292.564 263.232 292.888C263.58 292.972 263.808 293.032 263.916 293.068C264.024 293.092 264.234 293.158 264.546 293.266C264.87 293.362 265.092 293.446 265.212 293.518C265.344 293.59 265.524 293.704 265.752 293.86C265.98 294.004 266.142 294.154 266.238 294.31C266.334 294.454 266.424 294.646 266.508 294.886C266.592 295.114 266.634 295.36 266.634 295.624C266.634 296.392 266.328 297.016 265.716 297.496C265.128 297.976 264.348 298.216 263.376 298.216C262.536 298.216 261.81 298.03 261.198 297.658C260.586 297.274 260.154 296.77 259.902 296.146L260.91 295.552C261.078 296.02 261.378 296.392 261.81 296.668C262.254 296.932 262.776 297.064 263.376 297.064C263.988 297.064 264.486 296.944 264.87 296.704C265.254 296.464 265.446 296.104 265.446 295.624C265.446 294.928 264.828 294.418 263.592 294.094C263.244 294.01 263.016 293.956 262.908 293.932C262.8 293.896 262.584 293.83 262.26 293.734C261.948 293.626 261.726 293.536 261.594 293.464C261.474 293.392 261.3 293.284 261.072 293.14C260.844 292.984 260.682 292.834 260.586 292.69C260.49 292.534 260.4 292.342 260.316 292.114C260.232 291.874 260.19 291.622 260.19 291.358C260.19 290.626 260.478 290.014 261.054 289.522C261.654 289.03 262.392 288.784 263.268 288.784C263.988 288.784 264.624 288.946 265.176 289.27C265.74 289.594 266.154 290.044 266.418 290.62L265.428 291.196C265.092 290.356 264.372 289.936 263.268 289.936C262.728 289.936 262.278 290.062 261.918 290.314C261.558 290.566 261.378 290.914 261.378 291.358ZM274.864 293.716V289H276.052V298H274.864V296.596C274.192 297.676 273.184 298.216 271.84 298.216C270.76 298.216 269.902 297.886 269.266 297.226C268.63 296.554 268.312 295.654 268.312 294.526V289H269.5V294.526C269.5 295.33 269.71 295.954 270.13 296.398C270.562 296.842 271.168 297.064 271.948 297.064C272.848 297.064 273.556 296.782 274.072 296.218C274.6 295.654 274.864 294.82 274.864 293.716ZM279.501 291.358C279.501 292.054 280.119 292.564 281.355 292.888C281.703 292.972 281.931 293.032 282.039 293.068C282.147 293.092 282.357 293.158 282.669 293.266C282.993 293.362 283.215 293.446 283.335 293.518C283.467 293.59 283.647 293.704 283.875 293.86C284.103 294.004 284.265 294.154 284.361 294.31C284.457 294.454 284.547 294.646 284.631 294.886C284.715 295.114 284.757 295.36 284.757 295.624C284.757 296.392 284.451 297.016 283.839 297.496C283.251 297.976 282.471 298.216 281.499 298.216C280.659 298.216 279.933 298.03 279.321 297.658C278.709 297.274 278.277 296.77 278.025 296.146L279.033 295.552C279.201 296.02 279.501 296.392 279.933 296.668C280.377 296.932 280.899 297.064 281.499 297.064C282.111 297.064 282.609 296.944 282.993 296.704C283.377 296.464 283.569 296.104 283.569 295.624C283.569 294.928 282.951 294.418 281.715 294.094C281.367 294.01 281.139 293.956 281.031 293.932C280.923 293.896 280.707 293.83 280.383 293.734C280.071 293.626 279.849 293.536 279.717 293.464C279.597 293.392 279.423 293.284 279.195 293.14C278.967 292.984 278.805 292.834 278.709 292.69C278.613 292.534 278.523 292.342 278.439 292.114C278.355 291.874 278.313 291.622 278.313 291.358C278.313 290.626 278.601 290.014 279.177 289.522C279.777 289.03 280.515 288.784 281.391 288.784C282.111 288.784 282.747 288.946 283.299 289.27C283.863 289.594 284.277 290.044 284.541 290.62L283.551 291.196C283.215 290.356 282.495 289.936 281.391 289.936C280.851 289.936 280.401 290.062 280.041 290.314C279.681 290.566 279.501 290.914 279.501 291.358ZM291.563 288.784C292.847 288.784 293.939 289.24 294.839 290.152C295.751 291.064 296.207 292.18 296.207 293.5C296.207 294.82 295.751 295.936 294.839 296.848C293.939 297.76 292.847 298.216 291.563 298.216C289.967 298.216 288.755 297.556 287.927 296.236V301.6H286.739V289H287.927V290.764C288.755 289.444 289.967 288.784 291.563 288.784ZM288.953 296.038C289.637 296.722 290.477 297.064 291.473 297.064C292.469 297.064 293.309 296.722 293.993 296.038C294.677 295.33 295.019 294.484 295.019 293.5C295.019 292.504 294.677 291.664 293.993 290.98C293.309 290.284 292.469 289.936 291.473 289.936C290.477 289.936 289.637 290.284 288.953 290.98C288.269 291.664 287.927 292.504 287.927 293.5C287.927 294.484 288.269 295.33 288.953 296.038ZM302.34 288.784C303.684 288.784 304.758 289.258 305.562 290.206C306.39 291.142 306.804 292.252 306.804 293.536C306.804 293.596 306.792 293.782 306.768 294.094H298.866C298.986 294.994 299.37 295.714 300.018 296.254C300.666 296.794 301.476 297.064 302.448 297.064C303.816 297.064 304.782 296.554 305.346 295.534L306.39 296.146C305.994 296.794 305.448 297.304 304.752 297.676C304.068 298.036 303.294 298.216 302.43 298.216C301.014 298.216 299.862 297.772 298.974 296.884C298.086 295.996 297.642 294.868 297.642 293.5C297.642 292.144 298.08 291.022 298.956 290.134C299.832 289.234 300.96 288.784 302.34 288.784ZM302.34 289.936C301.404 289.936 300.618 290.212 299.982 290.764C299.358 291.316 298.986 292.042 298.866 292.942H305.58C305.448 291.982 305.082 291.244 304.482 290.728C303.858 290.2 303.144 289.936 302.34 289.936ZM312.888 298.216C311.532 298.216 310.404 297.766 309.504 296.866C308.604 295.942 308.154 294.82 308.154 293.5C308.154 292.168 308.604 291.052 309.504 290.152C310.404 289.24 311.532 288.784 312.888 288.784C313.776 288.784 314.574 289 315.282 289.432C315.99 289.852 316.506 290.422 316.83 291.142L315.858 291.7C315.618 291.16 315.228 290.734 314.688 290.422C314.16 290.098 313.56 289.936 312.888 289.936C311.892 289.936 311.052 290.284 310.368 290.98C309.684 291.664 309.342 292.504 309.342 293.5C309.342 294.484 309.684 295.33 310.368 296.038C311.052 296.722 311.892 297.064 312.888 297.064C313.548 297.064 314.142 296.908 314.67 296.596C315.21 296.284 315.63 295.852 315.93 295.3L316.92 295.876C316.548 296.596 316.002 297.166 315.282 297.586C314.562 298.006 313.764 298.216 312.888 298.216ZM323.395 289V290.152H320.803V295.606C320.803 296.098 320.899 296.452 321.091 296.668C321.283 296.872 321.571 296.98 321.955 296.992C322.339 296.992 322.819 296.98 323.395 296.956V298C322.111 298.192 321.157 298.102 320.533 297.73C319.921 297.346 319.615 296.638 319.615 295.606V290.152H317.725V289H319.615V286.84L320.803 286.48V289H323.395ZM328.988 288.784C330.332 288.784 331.406 289.258 332.21 290.206C333.038 291.142 333.452 292.252 333.452 293.536C333.452 293.596 333.44 293.782 333.416 294.094H325.514C325.634 294.994 326.018 295.714 326.666 296.254C327.314 296.794 328.124 297.064 329.096 297.064C330.464 297.064 331.43 296.554 331.994 295.534L333.038 296.146C332.642 296.794 332.096 297.304 331.4 297.676C330.716 298.036 329.942 298.216 329.078 298.216C327.662 298.216 326.51 297.772 325.622 296.884C324.734 295.996 324.29 294.868 324.29 293.5C324.29 292.144 324.728 291.022 325.604 290.134C326.48 289.234 327.608 288.784 328.988 288.784ZM328.988 289.936C328.052 289.936 327.266 290.212 326.63 290.764C326.006 291.316 325.634 292.042 325.514 292.942H332.228C332.096 291.982 331.73 291.244 331.13 290.728C330.506 290.2 329.792 289.936 328.988 289.936ZM343.082 290.764V285.4H344.27V298H343.082V296.236C342.254 297.556 341.042 298.216 339.446 298.216C338.162 298.216 337.064 297.76 336.152 296.848C335.252 295.936 334.802 294.82 334.802 293.5C334.802 292.18 335.252 291.064 336.152 290.152C337.064 289.24 338.162 288.784 339.446 288.784C341.042 288.784 342.254 289.444 343.082 290.764ZM337.016 296.038C337.7 296.722 338.54 297.064 339.536 297.064C340.532 297.064 341.372 296.722 342.056 296.038C342.74 295.33 343.082 294.484 343.082 293.5C343.082 292.504 342.74 291.664 342.056 290.98C341.372 290.284 340.532 289.936 339.536 289.936C338.54 289.936 337.7 290.284 337.016 290.98C336.332 291.664 335.99 292.504 335.99 293.5C335.99 294.484 336.332 295.33 337.016 296.038ZM44.824 323.542L47.74 316H49L45.148 325.828C44.788 326.74 44.284 327.442 43.636 327.934C43 328.438 42.292 328.66 41.512 328.6V327.484C42.592 327.616 43.414 326.992 43.978 325.612L44.212 325.054L40.18 316H41.44L44.824 323.542ZM57.6262 323.866C56.7022 324.766 55.5862 325.216 54.2782 325.216C52.9462 325.216 51.8242 324.766 50.9122 323.866C50.0002 322.954 49.5442 321.832 49.5442 320.5C49.5442 319.168 50.0002 318.052 50.9122 317.152C51.8242 316.24 52.9462 315.784 54.2782 315.784C55.5982 315.784 56.7142 316.24 57.6262 317.152C58.5502 318.052 59.0122 319.168 59.0122 320.5C59.0122 321.82 58.5502 322.942 57.6262 323.866ZM51.7582 323.038C52.4422 323.722 53.2822 324.064 54.2782 324.064C55.2742 324.064 56.1142 323.722 56.7982 323.038C57.4822 322.33 57.8242 321.484 57.8242 320.5C57.8242 319.504 57.4822 318.664 56.7982 317.98C56.1142 317.284 55.2742 316.936 54.2782 316.936C53.2822 316.936 52.4422 317.284 51.7582 317.98C51.0742 318.664 50.7322 319.504 50.7322 320.5C50.7322 321.484 51.0742 322.33 51.7582 323.038ZM67.3362 320.716V316H68.5242V325H67.3362V323.596C66.6642 324.676 65.6562 325.216 64.3122 325.216C63.2322 325.216 62.3742 324.886 61.7382 324.226C61.1022 323.554 60.7842 322.654 60.7842 321.526V316H61.9722V321.526C61.9722 322.33 62.1822 322.954 62.6022 323.398C63.0342 323.842 63.6402 324.064 64.4202 324.064C65.3202 324.064 66.0282 323.782 66.5442 323.218C67.0722 322.654 67.3362 321.82 67.3362 320.716ZM72.2253 316V317.494C72.7773 316.402 73.7253 315.856 75.0693 315.856V317.008C74.2053 317.008 73.5153 317.26 72.9993 317.764C72.4833 318.256 72.2253 319 72.2253 319.996V325H71.0373V316H72.2253ZM86.0215 315.784C87.3055 315.784 88.3975 316.24 89.2975 317.152C90.2095 318.064 90.6655 319.18 90.6655 320.5C90.6655 321.82 90.2095 322.936 89.2975 323.848C88.3975 324.76 87.3055 325.216 86.0215 325.216C84.4255 325.216 83.2135 324.556 82.3855 323.236V328.6H81.1975V316H82.3855V317.764C83.2135 316.444 84.4255 315.784 86.0215 315.784ZM83.4115 323.038C84.0955 323.722 84.9355 324.064 85.9315 324.064C86.9275 324.064 87.7675 323.722 88.4515 323.038C89.1355 322.33 89.4775 321.484 89.4775 320.5C89.4775 319.504 89.1355 318.664 88.4515 317.98C87.7675 317.284 86.9275 316.936 85.9315 316.936C84.9355 316.936 84.0955 317.284 83.4115 317.98C82.7275 318.664 82.3855 319.504 82.3855 320.5C82.3855 321.484 82.7275 322.33 83.4115 323.038ZM100.381 317.764V316H101.569V325H100.381V323.236C99.5529 324.556 98.3409 325.216 96.7449 325.216C95.4609 325.216 94.3629 324.76 93.4509 323.848C92.5509 322.936 92.1009 321.82 92.1009 320.5C92.1009 319.18 92.5509 318.064 93.4509 317.152C94.3629 316.24 95.4609 315.784 96.7449 315.784C98.3409 315.784 99.5529 316.444 100.381 317.764ZM94.3149 323.038C94.9989 323.722 95.8389 324.064 96.8349 324.064C97.8309 324.064 98.6709 323.722 99.3549 323.038C100.039 322.33 100.381 321.484 100.381 320.5C100.381 319.504 100.039 318.664 99.3549 317.98C98.6709 317.284 97.8309 316.936 96.8349 316.936C95.8389 316.936 94.9989 317.284 94.3149 317.98C93.6309 318.664 93.2889 319.504 93.2889 320.5C93.2889 321.484 93.6309 322.33 94.3149 323.038ZM105.272 316V317.494C105.824 316.402 106.772 315.856 108.116 315.856V317.008C107.252 317.008 106.562 317.26 106.046 317.764C105.53 318.256 105.272 319 105.272 319.996V325H104.084V316H105.272ZM114.69 316V317.152H112.098V322.606C112.098 323.098 112.194 323.452 112.386 323.668C112.578 323.872 112.866 323.98 113.25 323.992C113.634 323.992 114.114 323.98 114.69 323.956V325C113.406 325.192 112.452 325.102 111.828 324.73C111.216 324.346 110.91 323.638 110.91 322.606V317.152H109.02V316H110.91V313.84L112.098 313.48V316H114.69ZM120.882 315.784C121.962 315.784 122.82 316.12 123.456 316.792C124.092 317.452 124.41 318.346 124.41 319.474V325H123.222V319.474C123.222 318.67 123.006 318.046 122.574 317.602C122.154 317.158 121.554 316.936 120.774 316.936C119.874 316.936 119.16 317.218 118.632 317.782C118.116 318.346 117.858 319.18 117.858 320.284V325H116.67V316H117.858V317.404C118.53 316.324 119.538 315.784 120.882 315.784ZM130.865 315.784C132.209 315.784 133.283 316.258 134.087 317.206C134.915 318.142 135.329 319.252 135.329 320.536C135.329 320.596 135.317 320.782 135.293 321.094H127.391C127.511 321.994 127.895 322.714 128.543 323.254C129.191 323.794 130.001 324.064 130.973 324.064C132.341 324.064 133.307 323.554 133.871 322.534L134.915 323.146C134.519 323.794 133.973 324.304 133.277 324.676C132.593 325.036 131.819 325.216 130.955 325.216C129.539 325.216 128.387 324.772 127.499 323.884C126.611 322.996 126.167 321.868 126.167 320.5C126.167 319.144 126.605 318.022 127.481 317.134C128.357 316.234 129.485 315.784 130.865 315.784ZM130.865 316.936C129.929 316.936 129.143 317.212 128.507 317.764C127.883 318.316 127.511 319.042 127.391 319.942H134.105C133.973 318.982 133.607 318.244 133.007 317.728C132.383 317.2 131.669 316.936 130.865 316.936ZM138.407 316V317.494C138.959 316.402 139.907 315.856 141.251 315.856V317.008C140.387 317.008 139.697 317.26 139.181 317.764C138.665 318.256 138.407 319 138.407 319.996V325H137.219V316H138.407ZM156.001 323.47L158.215 316H159.439L156.667 325H155.371L153.049 317.746L150.727 325H149.431L146.659 316H147.883L150.097 323.47L152.455 316H153.643L156.001 323.47ZM168.619 317.764V316H169.807V325H168.619V323.236C167.791 324.556 166.579 325.216 164.983 325.216C163.699 325.216 162.601 324.76 161.689 323.848C160.789 322.936 160.339 321.82 160.339 320.5C160.339 319.18 160.789 318.064 161.689 317.152C162.601 316.24 163.699 315.784 164.983 315.784C166.579 315.784 167.791 316.444 168.619 317.764ZM162.553 323.038C163.237 323.722 164.077 324.064 165.073 324.064C166.069 324.064 166.909 323.722 167.593 323.038C168.277 322.33 168.619 321.484 168.619 320.5C168.619 319.504 168.277 318.664 167.593 317.98C166.909 317.284 166.069 316.936 165.073 316.936C164.077 316.936 163.237 317.284 162.553 317.98C161.869 318.664 161.527 319.504 161.527 320.5C161.527 321.484 161.869 322.33 162.553 323.038ZM173.259 318.358C173.259 319.054 173.877 319.564 175.113 319.888C175.461 319.972 175.689 320.032 175.797 320.068C175.905 320.092 176.115 320.158 176.427 320.266C176.751 320.362 176.973 320.446 177.093 320.518C177.225 320.59 177.405 320.704 177.633 320.86C177.861 321.004 178.023 321.154 178.119 321.31C178.215 321.454 178.305 321.646 178.389 321.886C178.473 322.114 178.515 322.36 178.515 322.624C178.515 323.392 178.209 324.016 177.597 324.496C177.009 324.976 176.229 325.216 175.257 325.216C174.417 325.216 173.691 325.03 173.079 324.658C172.467 324.274 172.035 323.77 171.783 323.146L172.791 322.552C172.959 323.02 173.259 323.392 173.691 323.668C174.135 323.932 174.657 324.064 175.257 324.064C175.869 324.064 176.367 323.944 176.751 323.704C177.135 323.464 177.327 323.104 177.327 322.624C177.327 321.928 176.709 321.418 175.473 321.094C175.125 321.01 174.897 320.956 174.789 320.932C174.681 320.896 174.465 320.83 174.141 320.734C173.829 320.626 173.607 320.536 173.475 320.464C173.355 320.392 173.181 320.284 172.953 320.14C172.725 319.984 172.563 319.834 172.467 319.69C172.371 319.534 172.281 319.342 172.197 319.114C172.113 318.874 172.071 318.622 172.071 318.358C172.071 317.626 172.359 317.014 172.935 316.522C173.535 316.03 174.273 315.784 175.149 315.784C175.869 315.784 176.505 315.946 177.057 316.27C177.621 316.594 178.035 317.044 178.299 317.62L177.309 318.196C176.973 317.356 176.253 316.936 175.149 316.936C174.609 316.936 174.159 317.062 173.799 317.314C173.439 317.566 173.259 317.914 173.259 318.358ZM189.19 325.216C187.834 325.216 186.706 324.766 185.806 323.866C184.906 322.942 184.456 321.82 184.456 320.5C184.456 319.168 184.906 318.052 185.806 317.152C186.706 316.24 187.834 315.784 189.19 315.784C190.078 315.784 190.876 316 191.584 316.432C192.292 316.852 192.808 317.422 193.132 318.142L192.16 318.7C191.92 318.16 191.53 317.734 190.99 317.422C190.462 317.098 189.862 316.936 189.19 316.936C188.194 316.936 187.354 317.284 186.67 317.98C185.986 318.664 185.644 319.504 185.644 320.5C185.644 321.484 185.986 322.33 186.67 323.038C187.354 323.722 188.194 324.064 189.19 324.064C189.85 324.064 190.444 323.908 190.972 323.596C191.512 323.284 191.932 322.852 192.232 322.3L193.222 322.876C192.85 323.596 192.304 324.166 191.584 324.586C190.864 325.006 190.066 325.216 189.19 325.216ZM199.14 315.784C200.22 315.784 201.078 316.12 201.714 316.792C202.35 317.452 202.668 318.346 202.668 319.474V325H201.48V319.474C201.48 318.67 201.264 318.046 200.832 317.602C200.412 317.158 199.812 316.936 199.032 316.936C198.132 316.936 197.418 317.218 196.89 317.782C196.374 318.346 196.116 319.18 196.116 320.284V325H194.928V312.4H196.116V317.404C196.788 316.324 197.796 315.784 199.14 315.784ZM209.123 315.784C210.467 315.784 211.541 316.258 212.345 317.206C213.173 318.142 213.587 319.252 213.587 320.536C213.587 320.596 213.575 320.782 213.551 321.094H205.649C205.769 321.994 206.153 322.714 206.801 323.254C207.449 323.794 208.259 324.064 209.231 324.064C210.599 324.064 211.565 323.554 212.129 322.534L213.173 323.146C212.777 323.794 212.231 324.304 211.535 324.676C210.851 325.036 210.077 325.216 209.213 325.216C207.797 325.216 206.645 324.772 205.757 323.884C204.869 322.996 204.425 321.868 204.425 320.5C204.425 319.144 204.863 318.022 205.739 317.134C206.615 316.234 207.743 315.784 209.123 315.784ZM209.123 316.936C208.187 316.936 207.401 317.212 206.765 317.764C206.141 318.316 205.769 319.042 205.649 319.942H212.363C212.231 318.982 211.865 318.244 211.265 317.728C210.641 317.2 209.927 316.936 209.123 316.936ZM223.217 317.764V316H224.405V325H223.217V323.236C222.389 324.556 221.177 325.216 219.581 325.216C218.297 325.216 217.199 324.76 216.287 323.848C215.387 322.936 214.937 321.82 214.937 320.5C214.937 319.18 215.387 318.064 216.287 317.152C217.199 316.24 218.297 315.784 219.581 315.784C221.177 315.784 222.389 316.444 223.217 317.764ZM217.151 323.038C217.835 323.722 218.675 324.064 219.671 324.064C220.667 324.064 221.507 323.722 222.191 323.038C222.875 322.33 223.217 321.484 223.217 320.5C223.217 319.504 222.875 318.664 222.191 317.98C221.507 317.284 220.667 316.936 219.671 316.936C218.675 316.936 217.835 317.284 217.151 317.98C216.467 318.664 216.125 319.504 216.125 320.5C216.125 321.484 216.467 322.33 217.151 323.038ZM231.69 316V317.152H229.098V322.606C229.098 323.098 229.194 323.452 229.386 323.668C229.578 323.872 229.866 323.98 230.25 323.992C230.634 323.992 231.114 323.98 231.69 323.956V325C230.406 325.192 229.452 325.102 228.828 324.73C228.216 324.346 227.91 323.638 227.91 322.606V317.152H226.02V316H227.91V313.84L229.098 313.48V316H231.69ZM235.128 313.228C235.128 313.468 235.044 313.672 234.876 313.84C234.708 314.008 234.504 314.092 234.264 314.092C234.024 314.092 233.82 314.008 233.652 313.84C233.484 313.672 233.4 313.468 233.4 313.228C233.4 312.988 233.484 312.784 233.652 312.616C233.82 312.448 234.024 312.364 234.264 312.364C234.504 312.364 234.708 312.448 234.876 312.616C235.044 312.784 235.128 312.988 235.128 313.228ZM234.858 325H233.67V316H234.858V325ZM241.591 315.784C242.671 315.784 243.529 316.12 244.165 316.792C244.801 317.452 245.119 318.346 245.119 319.474V325H243.931V319.474C243.931 318.67 243.715 318.046 243.283 317.602C242.863 317.158 242.263 316.936 241.483 316.936C240.583 316.936 239.869 317.218 239.341 317.782C238.825 318.346 238.567 319.18 238.567 320.284V325H237.379V316H238.567V317.404C239.239 316.324 240.247 315.784 241.591 315.784ZM255.156 317.764V316H256.344V324.64C256.344 325.936 255.9 326.956 255.012 327.7C254.124 328.444 253.062 328.816 251.826 328.816C249.726 328.816 248.304 328.084 247.56 326.62L248.604 326.026C249.144 327.118 250.218 327.664 251.826 327.664C252.858 327.664 253.668 327.394 254.256 326.854C254.856 326.314 255.156 325.576 255.156 324.64V323.236C254.328 324.556 253.116 325.216 251.52 325.216C250.236 325.216 249.138 324.76 248.226 323.848C247.326 322.936 246.876 321.82 246.876 320.5C246.876 319.18 247.326 318.064 248.226 317.152C249.138 316.24 250.236 315.784 251.52 315.784C253.116 315.784 254.328 316.444 255.156 317.764ZM249.09 323.038C249.774 323.722 250.614 324.064 251.61 324.064C252.606 324.064 253.446 323.722 254.13 323.038C254.814 322.33 255.156 321.484 255.156 320.5C255.156 319.504 254.814 318.664 254.13 317.98C253.446 317.284 252.606 316.936 251.61 316.936C250.614 316.936 249.774 317.284 249.09 317.98C248.406 318.664 248.064 319.504 248.064 320.5C248.064 321.484 248.406 322.33 249.09 323.038ZM270.902 323.866C269.978 324.766 268.862 325.216 267.554 325.216C266.222 325.216 265.1 324.766 264.188 323.866C263.276 322.954 262.82 321.832 262.82 320.5C262.82 319.168 263.276 318.052 264.188 317.152C265.1 316.24 266.222 315.784 267.554 315.784C268.874 315.784 269.99 316.24 270.902 317.152C271.826 318.052 272.288 319.168 272.288 320.5C272.288 321.82 271.826 322.942 270.902 323.866ZM265.034 323.038C265.718 323.722 266.558 324.064 267.554 324.064C268.55 324.064 269.39 323.722 270.074 323.038C270.758 322.33 271.1 321.484 271.1 320.5C271.1 319.504 270.758 318.664 270.074 317.98C269.39 317.284 268.55 316.936 267.554 316.936C266.558 316.936 265.718 317.284 265.034 317.98C264.35 318.664 264.008 319.504 264.008 320.5C264.008 321.484 264.35 322.33 265.034 323.038ZM275.464 316V317.494C276.016 316.402 276.964 315.856 278.308 315.856V317.008C277.444 317.008 276.754 317.26 276.238 317.764C275.722 318.256 275.464 319 275.464 319.996V325H274.276V316H275.464ZM285.624 325H284.436V311.86H285.624V325ZM291.709 323.542L294.625 316H295.885L292.033 325.828C291.673 326.74 291.169 327.442 290.521 327.934C289.885 328.438 289.177 328.66 288.397 328.6V327.484C289.477 327.616 290.299 326.992 290.863 325.612L291.097 325.054L287.065 316H288.325L291.709 323.542ZM298.779 313.228C298.779 313.468 298.695 313.672 298.527 313.84C298.359 314.008 298.155 314.092 297.915 314.092C297.675 314.092 297.471 314.008 297.303 313.84C297.135 313.672 297.051 313.468 297.051 313.228C297.051 312.988 297.135 312.784 297.303 312.616C297.471 312.448 297.675 312.364 297.915 312.364C298.155 312.364 298.359 312.448 298.527 312.616C298.695 312.784 298.779 312.988 298.779 313.228ZM298.509 325H297.321V316H298.509V325ZM305.242 315.784C306.322 315.784 307.18 316.12 307.816 316.792C308.452 317.452 308.77 318.346 308.77 319.474V325H307.582V319.474C307.582 318.67 307.366 318.046 306.934 317.602C306.514 317.158 305.914 316.936 305.134 316.936C304.234 316.936 303.52 317.218 302.992 317.782C302.476 318.346 302.218 319.18 302.218 320.284V325H301.03V316H302.218V317.404C302.89 316.324 303.898 315.784 305.242 315.784ZM318.807 317.764V316H319.995V324.64C319.995 325.936 319.551 326.956 318.663 327.7C317.775 328.444 316.713 328.816 315.477 328.816C313.377 328.816 311.955 328.084 311.211 326.62L312.255 326.026C312.795 327.118 313.869 327.664 315.477 327.664C316.509 327.664 317.319 327.394 317.907 326.854C318.507 326.314 318.807 325.576 318.807 324.64V323.236C317.979 324.556 316.767 325.216 315.171 325.216C313.887 325.216 312.789 324.76 311.877 323.848C310.977 322.936 310.527 321.82 310.527 320.5C310.527 319.18 310.977 318.064 311.877 317.152C312.789 316.24 313.887 315.784 315.171 315.784C316.767 315.784 317.979 316.444 318.807 317.764ZM312.741 323.038C313.425 323.722 314.265 324.064 315.261 324.064C316.257 324.064 317.097 323.722 317.781 323.038C318.465 322.33 318.807 321.484 318.807 320.5C318.807 319.504 318.465 318.664 317.781 317.98C317.097 317.284 316.257 316.936 315.261 316.936C314.265 316.936 313.425 317.284 312.741 317.98C312.057 318.664 311.715 319.504 311.715 320.5C311.715 321.484 312.057 322.33 312.741 323.038ZM326.29 321.58H325.03C325.03 320.5 325.438 319.552 326.254 318.736C326.35 318.64 326.542 318.454 326.83 318.178C327.13 317.902 327.346 317.692 327.478 317.548C327.61 317.404 327.772 317.212 327.964 316.972C328.156 316.72 328.288 316.48 328.36 316.252C328.444 316.012 328.486 315.766 328.486 315.514C328.486 314.842 328.252 314.326 327.784 313.966C327.328 313.594 326.716 313.408 325.948 313.408C324.472 313.408 323.56 314.014 323.212 315.226L322.15 314.632C322.426 313.852 322.9 313.252 323.572 312.832C324.256 312.4 325.048 312.184 325.948 312.184C327.004 312.184 327.898 312.478 328.63 313.066C329.374 313.642 329.746 314.458 329.746 315.514C329.746 316.438 329.338 317.308 328.522 318.124C328.474 318.16 328.33 318.292 328.09 318.52C327.862 318.736 327.712 318.886 327.64 318.97C327.568 319.042 327.436 319.18 327.244 319.384C327.052 319.588 326.92 319.756 326.848 319.888C326.776 320.02 326.686 320.188 326.578 320.392C326.47 320.584 326.392 320.782 326.344 320.986C326.308 321.178 326.29 321.376 326.29 321.58ZM326.65 324.19C326.65 324.466 326.554 324.7 326.362 324.892C326.17 325.084 325.936 325.18 325.66 325.18C325.384 325.18 325.15 325.084 324.958 324.892C324.766 324.7 324.67 324.466 324.67 324.19C324.67 323.914 324.766 323.68 324.958 323.488C325.15 323.296 325.384 323.2 325.66 323.2C325.936 323.2 326.17 323.296 326.362 323.488C326.554 323.68 326.65 323.914 326.65 324.19Z" fill="#FFC2D7"></path></svg> 