<?xml version="1.0" encoding="UTF-8"?> <svg xmlns="http://www.w3.org/2000/svg" width="400" height="600" viewBox="0 0 400 600" fill="none"> <rect width="400" height="600" rx="20" fill="#E84773"></rect> <path d="M45.472 501.252C44.224 501.252 43.174 500.976 42.322 500.424C41.47 499.86 40.87 499.098 40.522 498.138L42.646 496.896C43.138 498.18 44.104 498.822 45.544 498.822C46.24 498.822 46.75 498.696 47.074 498.444C47.398 498.192 47.56 497.874 47.56 497.49C47.56 497.046 47.362 496.704 46.966 496.464C46.57 496.212 45.862 495.942 44.842 495.654C44.278 495.486 43.798 495.318 43.402 495.15C43.018 494.982 42.628 494.76 42.232 494.484C41.848 494.196 41.554 493.836 41.35 493.404C41.146 492.972 41.044 492.468 41.044 491.892C41.044 490.752 41.446 489.846 42.25 489.174C43.066 488.49 44.044 488.148 45.184 488.148C46.204 488.148 47.098 488.4 47.866 488.904C48.646 489.396 49.252 490.086 49.684 490.974L47.596 492.18C47.092 491.1 46.288 490.56 45.184 490.56C44.668 490.56 44.26 490.68 43.96 490.92C43.672 491.148 43.528 491.448 43.528 491.82C43.528 492.216 43.69 492.54 44.014 492.792C44.35 493.032 44.986 493.296 45.922 493.584C46.306 493.704 46.594 493.8 46.786 493.872C46.99 493.932 47.26 494.034 47.596 494.178C47.944 494.31 48.208 494.436 48.388 494.556C48.58 494.676 48.796 494.838 49.036 495.042C49.276 495.246 49.456 495.456 49.576 495.672C49.708 495.888 49.816 496.152 49.9 496.464C49.996 496.764 50.044 497.094 50.044 497.454C50.044 498.618 49.618 499.542 48.766 500.226C47.926 500.91 46.828 501.252 45.472 501.252ZM56.5601 491.748C57.5441 491.748 58.3541 492.078 58.9901 492.738C59.6381 493.398 59.9621 494.31 59.9621 495.474V501H57.6401V495.762C57.6401 495.162 57.4781 494.706 57.1541 494.394C56.8301 494.07 56.3981 493.908 55.8581 493.908C55.2581 493.908 54.7781 494.094 54.4181 494.466C54.0581 494.838 53.8781 495.396 53.8781 496.14V501H51.5561V492H53.8781V493.008C54.4421 492.168 55.3361 491.748 56.5601 491.748ZM69.6128 499.884C68.6888 500.796 67.5608 501.252 66.2288 501.252C64.8968 501.252 63.7688 500.796 62.8448 499.884C61.9328 498.96 61.4768 497.832 61.4768 496.5C61.4768 495.168 61.9328 494.046 62.8448 493.134C63.7688 492.21 64.8968 491.748 66.2288 491.748C67.5608 491.748 68.6888 492.21 69.6128 493.134C70.5368 494.046 70.9988 495.168 70.9988 496.5C70.9988 497.832 70.5368 498.96 69.6128 499.884ZM64.4828 498.282C64.9508 498.75 65.5328 498.984 66.2288 498.984C66.9248 498.984 67.5068 498.75 67.9748 498.282C68.4428 497.814 68.6768 497.22 68.6768 496.5C68.6768 495.78 68.4428 495.186 67.9748 494.718C67.5068 494.25 66.9248 494.016 66.2288 494.016C65.5328 494.016 64.9508 494.25 64.4828 494.718C64.0268 495.186 63.7988 495.78 63.7988 496.5C63.7988 497.22 64.0268 497.814 64.4828 498.282ZM80.3003 499.884C79.3763 500.796 78.2483 501.252 76.9163 501.252C75.5843 501.252 74.4563 500.796 73.5323 499.884C72.6203 498.96 72.1643 497.832 72.1643 496.5C72.1643 495.168 72.6203 494.046 73.5323 493.134C74.4563 492.21 75.5843 491.748 76.9163 491.748C78.2483 491.748 79.3763 492.21 80.3003 493.134C81.2243 494.046 81.6863 495.168 81.6863 496.5C81.6863 497.832 81.2243 498.96 80.3003 499.884ZM75.1703 498.282C75.6383 498.75 76.2203 498.984 76.9163 498.984C77.6123 498.984 78.1943 498.75 78.6623 498.282C79.1303 497.814 79.3643 497.22 79.3643 496.5C79.3643 495.78 79.1303 495.186 78.6623 494.718C78.1943 494.25 77.6123 494.016 76.9163 494.016C76.2203 494.016 75.6383 494.25 75.1703 494.718C74.7143 495.186 74.4863 495.78 74.4863 496.5C74.4863 497.22 74.7143 497.814 75.1703 498.282ZM88.5578 491.748C89.7698 491.748 90.8018 492.21 91.6538 493.134C92.5178 494.046 92.9498 495.168 92.9498 496.5C92.9498 497.832 92.5178 498.96 91.6538 499.884C90.8018 500.796 89.7698 501.252 88.5578 501.252C87.2978 501.252 86.3258 500.814 85.6418 499.938V504.6H83.3198V492H85.6418V493.062C86.3258 492.186 87.2978 491.748 88.5578 491.748ZM86.3438 498.336C86.8118 498.804 87.4058 499.038 88.1258 499.038C88.8458 499.038 89.4398 498.804 89.9078 498.336C90.3878 497.856 90.6278 497.244 90.6278 496.5C90.6278 495.756 90.3878 495.15 89.9078 494.682C89.4398 494.202 88.8458 493.962 88.1258 493.962C87.4058 493.962 86.8118 494.202 86.3438 494.682C85.8758 495.15 85.6418 495.756 85.6418 496.5C85.6418 497.244 85.8758 497.856 86.3438 498.336ZM104.235 494.232H102.201V497.976C102.201 498.288 102.279 498.516 102.435 498.66C102.591 498.804 102.819 498.888 103.119 498.912C103.419 498.924 103.791 498.918 104.235 498.894V501C102.639 501.18 101.511 501.03 100.851 500.55C100.203 500.07 99.8794 499.212 99.8794 497.976V494.232H98.3134V492H99.8794V490.182L102.201 489.48V492H104.235V494.232ZM110.877 491.748C111.861 491.748 112.671 492.078 113.307 492.738C113.955 493.398 114.279 494.31 114.279 495.474V501H111.957V495.762C111.957 495.162 111.795 494.706 111.471 494.394C111.147 494.07 110.715 493.908 110.175 493.908C109.575 493.908 109.095 494.094 108.735 494.466C108.375 494.838 108.195 495.396 108.195 496.14V501H105.873V488.4H108.195V493.008C108.759 492.168 109.653 491.748 110.877 491.748ZM118.583 493.548C118.799 492.972 119.153 492.54 119.645 492.252C120.149 491.964 120.707 491.82 121.319 491.82V494.412C120.611 494.328 119.975 494.472 119.411 494.844C118.859 495.216 118.583 495.834 118.583 496.698V501H116.261V492H118.583V493.548ZM130.011 499.884C129.087 500.796 127.959 501.252 126.627 501.252C125.295 501.252 124.167 500.796 123.243 499.884C122.331 498.96 121.875 497.832 121.875 496.5C121.875 495.168 122.331 494.046 123.243 493.134C124.167 492.21 125.295 491.748 126.627 491.748C127.959 491.748 129.087 492.21 130.011 493.134C130.935 494.046 131.397 495.168 131.397 496.5C131.397 497.832 130.935 498.96 130.011 499.884ZM124.881 498.282C125.349 498.75 125.931 498.984 126.627 498.984C127.323 498.984 127.905 498.75 128.373 498.282C128.841 497.814 129.075 497.22 129.075 496.5C129.075 495.78 128.841 495.186 128.373 494.718C127.905 494.25 127.323 494.016 126.627 494.016C125.931 494.016 125.349 494.25 124.881 494.718C124.425 495.186 124.197 495.78 124.197 496.5C124.197 497.22 124.425 497.814 124.881 498.282ZM138.971 492H141.293V501H138.971V499.992C138.407 500.832 137.513 501.252 136.289 501.252C135.305 501.252 134.489 500.922 133.841 500.262C133.205 499.602 132.887 498.69 132.887 497.526V492H135.209V497.238C135.209 497.838 135.371 498.3 135.695 498.624C136.019 498.936 136.451 499.092 136.991 499.092C137.591 499.092 138.071 498.906 138.431 498.534C138.791 498.162 138.971 497.604 138.971 496.86V492ZM150.313 492H152.581V500.568C152.581 501.96 152.119 503.022 151.195 503.754C150.283 504.486 149.179 504.852 147.883 504.852C146.911 504.852 146.053 504.666 145.309 504.294C144.577 503.922 144.013 503.376 143.617 502.656L145.597 501.522C146.053 502.362 146.839 502.782 147.955 502.782C148.687 502.782 149.263 502.59 149.683 502.206C150.103 501.822 150.313 501.276 150.313 500.568V499.596C149.629 500.508 148.669 500.964 147.433 500.964C146.161 500.964 145.093 500.52 144.229 499.632C143.377 498.732 142.951 497.64 142.951 496.356C142.951 495.084 143.383 493.998 144.247 493.098C145.111 492.198 146.173 491.748 147.433 491.748C148.669 491.748 149.629 492.204 150.313 493.116V492ZM145.975 498.138C146.455 498.594 147.061 498.822 147.793 498.822C148.525 498.822 149.125 498.594 149.593 498.138C150.073 497.67 150.313 497.076 150.313 496.356C150.313 495.648 150.073 495.066 149.593 494.61C149.125 494.142 148.525 493.908 147.793 493.908C147.061 493.908 146.455 494.142 145.975 494.61C145.507 495.066 145.273 495.648 145.273 496.356C145.273 497.076 145.507 497.67 145.975 498.138ZM159.691 491.748C160.675 491.748 161.485 492.078 162.121 492.738C162.769 493.398 163.093 494.31 163.093 495.474V501H160.771V495.762C160.771 495.162 160.609 494.706 160.285 494.394C159.961 494.07 159.529 493.908 158.989 493.908C158.389 493.908 157.909 494.094 157.549 494.466C157.189 494.838 157.009 495.396 157.009 496.14V501H154.687V488.4H157.009V493.008C157.573 492.168 158.467 491.748 159.691 491.748ZM176.416 492H178.738V501H176.416V499.938C175.72 500.814 174.742 501.252 173.482 501.252C172.282 501.252 171.25 500.796 170.386 499.884C169.534 498.96 169.108 497.832 169.108 496.5C169.108 495.168 169.534 494.046 170.386 493.134C171.25 492.21 172.282 491.748 173.482 491.748C174.742 491.748 175.72 492.186 176.416 493.062V492ZM172.132 498.336C172.6 498.804 173.194 499.038 173.914 499.038C174.634 499.038 175.228 498.804 175.696 498.336C176.176 497.856 176.416 497.244 176.416 496.5C176.416 495.756 176.176 495.15 175.696 494.682C175.228 494.202 174.634 493.962 173.914 493.962C173.194 493.962 172.6 494.202 172.132 494.682C171.664 495.15 171.43 495.756 171.43 496.5C171.43 497.244 171.664 497.856 172.132 498.336ZM190.581 491.748C191.793 491.748 192.825 492.21 193.677 493.134C194.541 494.046 194.973 495.168 194.973 496.5C194.973 497.832 194.541 498.96 193.677 499.884C192.825 500.796 191.793 501.252 190.581 501.252C189.321 501.252 188.349 500.814 187.665 499.938V504.6H185.343V492H187.665V493.062C188.349 492.186 189.321 491.748 190.581 491.748ZM188.367 498.336C188.835 498.804 189.429 499.038 190.149 499.038C190.869 499.038 191.463 498.804 191.931 498.336C192.411 497.856 192.651 497.244 192.651 496.5C192.651 495.756 192.411 495.15 191.931 494.682C191.463 494.202 190.869 493.962 190.149 493.962C189.429 493.962 188.835 494.202 188.367 494.682C187.899 495.15 187.665 495.756 187.665 496.5C187.665 497.244 187.899 497.856 188.367 498.336ZM201.615 491.748C202.599 491.748 203.409 492.078 204.045 492.738C204.693 493.398 205.017 494.31 205.017 495.474V501H202.695V495.762C202.695 495.162 202.533 494.706 202.209 494.394C201.885 494.07 201.453 493.908 200.913 493.908C200.313 493.908 199.833 494.094 199.473 494.466C199.113 494.838 198.933 495.396 198.933 496.14V501H196.611V488.4H198.933V493.008C199.497 492.168 200.391 491.748 201.615 491.748ZM214.668 499.884C213.744 500.796 212.616 501.252 211.284 501.252C209.952 501.252 208.824 500.796 207.9 499.884C206.988 498.96 206.531 497.832 206.531 496.5C206.531 495.168 206.988 494.046 207.9 493.134C208.824 492.21 209.952 491.748 211.284 491.748C212.616 491.748 213.744 492.21 214.668 493.134C215.592 494.046 216.054 495.168 216.054 496.5C216.054 497.832 215.592 498.96 214.668 499.884ZM209.538 498.282C210.006 498.75 210.588 498.984 211.284 498.984C211.98 498.984 212.562 498.75 213.03 498.282C213.498 497.814 213.732 497.22 213.732 496.5C213.732 495.78 213.498 495.186 213.03 494.718C212.562 494.25 211.98 494.016 211.284 494.016C210.588 494.016 210.006 494.25 209.538 494.718C209.082 495.186 208.854 495.78 208.854 496.5C208.854 497.22 209.082 497.814 209.538 498.282ZM222.691 491.748C223.675 491.748 224.485 492.078 225.121 492.738C225.769 493.398 226.093 494.31 226.093 495.474V501H223.771V495.762C223.771 495.162 223.609 494.706 223.285 494.394C222.961 494.07 222.529 493.908 221.989 493.908C221.389 493.908 220.909 494.094 220.549 494.466C220.189 494.838 220.009 495.396 220.009 496.14V501H217.687V492H220.009V493.008C220.573 492.168 221.467 491.748 222.691 491.748ZM230.038 497.454C230.35 498.582 231.196 499.146 232.576 499.146C233.464 499.146 234.136 498.846 234.592 498.246L236.464 499.326C235.576 500.61 234.268 501.252 232.54 501.252C231.052 501.252 229.858 500.802 228.958 499.902C228.058 499.002 227.608 497.868 227.608 496.5C227.608 495.144 228.052 494.016 228.94 493.116C229.828 492.204 230.968 491.748 232.36 491.748C233.68 491.748 234.766 492.204 235.618 493.116C236.482 494.028 236.914 495.156 236.914 496.5C236.914 496.8 236.884 497.118 236.824 497.454H230.038ZM230.002 495.654H234.592C234.46 495.042 234.184 494.586 233.764 494.286C233.356 493.986 232.888 493.836 232.36 493.836C231.736 493.836 231.22 493.998 230.812 494.322C230.404 494.634 230.134 495.078 230.002 495.654ZM243.413 496.014V494.862H252.413V496.014H243.413ZM266.887 501H265.303L260.803 496.662V501H259.615V492H260.803V495.978L265.087 492H266.707L262.063 496.32L266.887 501ZM275.156 499.866C274.244 500.766 273.128 501.216 271.808 501.216C270.488 501.216 269.366 500.766 268.442 499.866C267.53 498.954 267.074 497.832 267.074 496.5C267.074 495.168 267.53 494.052 268.442 493.152C269.366 492.24 270.488 491.784 271.808 491.784C273.128 491.784 274.244 492.24 275.156 493.152C276.08 494.052 276.542 495.168 276.542 496.5C276.542 497.832 276.08 498.954 275.156 499.866ZM269.288 499.038C269.972 499.722 270.812 500.064 271.808 500.064C272.804 500.064 273.644 499.722 274.328 499.038C275.012 498.342 275.354 497.496 275.354 496.5C275.354 495.504 275.012 494.664 274.328 493.98C273.644 493.284 272.804 492.936 271.808 492.936C270.812 492.936 269.972 493.284 269.288 493.98C268.604 494.664 268.262 495.504 268.262 496.5C268.262 497.496 268.604 498.342 269.288 499.038ZM286.09 492V501H284.902V493.152H279.718V501H278.53V492H286.09ZM296.342 492H297.53V501H296.342V499.236C295.514 500.556 294.302 501.216 292.706 501.216C291.422 501.216 290.324 500.76 289.412 499.848C288.512 498.936 288.062 497.82 288.062 496.5C288.062 495.18 288.512 494.064 289.412 493.152C290.324 492.24 291.422 491.784 292.706 491.784C294.302 491.784 295.514 492.444 296.342 493.764V492ZM290.276 499.038C290.96 499.722 291.8 500.064 292.796 500.064C293.792 500.064 294.632 499.722 295.316 499.038C296 498.342 296.342 497.496 296.342 496.5C296.342 495.504 296 494.664 295.316 493.98C294.632 493.284 293.792 492.936 292.796 492.936C291.8 492.936 290.96 493.284 290.276 493.98C289.592 494.664 289.25 495.504 289.25 496.5C289.25 497.496 289.592 498.342 290.276 499.038ZM306.525 492V493.152H303.339V501H302.151V493.152H298.965V492H306.525ZM311.627 495.42C312.467 495.42 313.175 495.684 313.751 496.212C314.339 496.728 314.633 497.394 314.633 498.21C314.633 499.026 314.339 499.698 313.751 500.226C313.175 500.742 312.467 501 311.627 501H307.973V492H309.161V495.42H311.627ZM311.627 499.848C312.131 499.848 312.557 499.698 312.905 499.398C313.265 499.098 313.445 498.702 313.445 498.21C313.445 497.718 313.265 497.322 312.905 497.022C312.557 496.722 312.131 496.572 311.627 496.572H309.161V499.848H311.627ZM320.534 501.216C319.178 501.216 318.05 500.766 317.15 499.866C316.25 498.954 315.8 497.832 315.8 496.5C315.8 495.168 316.25 494.052 317.15 493.152C318.05 492.24 319.178 491.784 320.534 491.784C321.422 491.784 322.22 492 322.928 492.432C323.636 492.852 324.152 493.422 324.476 494.142L323.504 494.7C323.264 494.16 322.874 493.734 322.334 493.422C321.806 493.098 321.206 492.936 320.534 492.936C319.538 492.936 318.698 493.284 318.014 493.98C317.33 494.664 316.988 495.504 316.988 496.5C316.988 497.496 317.33 498.342 318.014 499.038C318.698 499.722 319.538 500.064 320.534 500.064C321.206 500.064 321.806 499.908 322.334 499.596C322.862 499.272 323.276 498.84 323.576 498.3L324.566 498.876C324.194 499.596 323.648 500.166 322.928 500.586C322.208 501.006 321.41 501.216 320.534 501.216ZM332.576 492V501H331.388V497.544H329.84L327.068 501H325.556L328.4 497.508C327.68 497.4 327.086 497.1 326.618 496.608C326.15 496.116 325.916 495.51 325.916 494.79C325.916 493.974 326.204 493.308 326.78 492.792C327.368 492.264 328.082 492 328.922 492H332.576ZM328.922 496.428H331.388V493.152H328.922C328.418 493.152 327.986 493.302 327.626 493.602C327.278 493.902 327.104 494.298 327.104 494.79C327.104 495.282 327.278 495.678 327.626 495.978C327.986 496.278 328.418 496.428 328.922 496.428ZM345.32 496.374C346.304 496.734 346.796 497.436 346.796 498.48C346.796 499.212 346.55 499.818 346.058 500.298C345.578 500.766 344.882 501 343.97 501H339.596V492H343.61C344.486 492 345.164 492.228 345.644 492.684C346.124 493.128 346.364 493.704 346.364 494.412C346.364 495.312 346.016 495.966 345.32 496.374ZM343.61 493.152H340.784V495.888H343.61C344.654 495.888 345.176 495.42 345.176 494.484C345.176 494.064 345.038 493.74 344.762 493.512C344.498 493.272 344.114 493.152 343.61 493.152ZM343.97 499.848C344.498 499.848 344.9 499.722 345.176 499.47C345.464 499.218 345.608 498.864 345.608 498.408C345.608 497.988 345.464 497.658 345.176 497.418C344.9 497.166 344.498 497.04 343.97 497.04H340.784V499.848H343.97ZM47.74 515V516.152H44.554V524H43.366V516.152H40.18V515H47.74ZM52.9942 514.784C54.3262 514.784 55.4002 515.258 56.2162 516.206C57.0442 517.142 57.4582 518.252 57.4582 519.536C57.4582 519.668 57.4462 519.854 57.4222 520.094H49.5202C49.6402 521.006 50.0242 521.732 50.6722 522.272C51.3322 522.8 52.1422 523.064 53.1022 523.064C53.7862 523.064 54.3742 522.926 54.8662 522.65C55.3702 522.362 55.7482 521.99 56.0002 521.534L57.0442 522.146C56.6482 522.782 56.1082 523.286 55.4242 523.658C54.7402 524.03 53.9602 524.216 53.0842 524.216C51.6682 524.216 50.5162 523.772 49.6282 522.884C48.7402 521.996 48.2962 520.868 48.2962 519.5C48.2962 518.156 48.7342 517.034 49.6102 516.134C50.4862 515.234 51.6142 514.784 52.9942 514.784ZM52.9942 515.936C52.0582 515.936 51.2722 516.218 50.6362 516.782C50.0122 517.334 49.6402 518.054 49.5202 518.942H56.2342C56.1142 517.994 55.7482 517.256 55.1362 516.728C54.5242 516.2 53.8102 515.936 52.9942 515.936ZM66.3763 515V524H65.1883V516.152H61.1203V520.166C61.1203 521.666 60.8323 522.698 60.2563 523.262C59.6923 523.826 58.9123 524.072 57.9163 524V522.884C58.6003 522.956 59.1043 522.794 59.4283 522.398C59.7643 522.002 59.9323 521.258 59.9323 520.166V515H66.3763ZM73.0508 514.784C74.3828 514.784 75.4568 515.258 76.2728 516.206C77.1008 517.142 77.5148 518.252 77.5148 519.536C77.5148 519.668 77.5028 519.854 77.4788 520.094H69.5768C69.6968 521.006 70.0808 521.732 70.7288 522.272C71.3888 522.8 72.1988 523.064 73.1588 523.064C73.8428 523.064 74.4308 522.926 74.9228 522.65C75.4268 522.362 75.8048 521.99 76.0568 521.534L77.1008 522.146C76.7048 522.782 76.1648 523.286 75.4808 523.658C74.7968 524.03 74.0168 524.216 73.1408 524.216C71.7248 524.216 70.5728 523.772 69.6848 522.884C68.7968 521.996 68.3528 520.868 68.3528 519.5C68.3528 518.156 68.7908 517.034 69.6668 516.134C70.5428 515.234 71.6708 514.784 73.0508 514.784ZM73.0508 515.936C72.1148 515.936 71.3288 516.218 70.6928 516.782C70.0688 517.334 69.6968 518.054 69.5768 518.942H76.2908C76.1708 517.994 75.8048 517.256 75.1928 516.728C74.5808 516.2 73.8668 515.936 73.0508 515.936ZM88.1885 516.296C89.0525 517.172 89.4845 518.24 89.4845 519.5C89.4845 520.76 89.0525 521.828 88.1885 522.704C87.3245 523.58 86.1845 524.078 84.7685 524.198V527.6H83.5805V524.198C82.1645 524.078 81.0245 523.58 80.1605 522.704C79.2965 521.828 78.8645 520.76 78.8645 519.5C78.8645 518.24 79.2965 517.172 80.1605 516.296C81.0245 515.42 82.1645 514.922 83.5805 514.802V511.4H84.7685V514.802C86.1845 514.922 87.3245 515.42 88.1885 516.296ZM81.0065 517.124C80.3705 517.772 80.0525 518.564 80.0525 519.5C80.0525 520.436 80.3705 521.234 81.0065 521.894C81.6425 522.542 82.5005 522.92 83.5805 523.028V515.972C82.5005 516.08 81.6425 516.464 81.0065 517.124ZM84.7685 523.028C85.8485 522.92 86.7065 522.542 87.3425 521.894C87.9785 521.234 88.2965 520.436 88.2965 519.5C88.2965 518.564 87.9785 517.772 87.3425 517.124C86.7065 516.464 85.8485 516.08 84.7685 515.972V523.028ZM99.0051 522.866C98.0931 523.766 96.9771 524.216 95.6571 524.216C94.3371 524.216 93.2151 523.766 92.2911 522.866C91.3791 521.954 90.9231 520.832 90.9231 519.5C90.9231 518.168 91.3791 517.052 92.2911 516.152C93.2151 515.24 94.3371 514.784 95.6571 514.784C96.9771 514.784 98.0931 515.24 99.0051 516.152C99.9291 517.052 100.391 518.168 100.391 519.5C100.391 520.832 99.9291 521.954 99.0051 522.866ZM93.1371 522.038C93.8211 522.722 94.6611 523.064 95.6571 523.064C96.6531 523.064 97.4931 522.722 98.1771 522.038C98.8611 521.342 99.2031 520.496 99.2031 519.5C99.2031 518.504 98.8611 517.664 98.1771 516.98C97.4931 516.284 96.6531 515.936 95.6571 515.936C94.6611 515.936 93.8211 516.284 93.1371 516.98C92.4531 517.664 92.1111 518.504 92.1111 519.5C92.1111 520.496 92.4531 521.342 93.1371 522.038ZM108.751 515H109.939V524H108.751V520.076H103.567V524H102.379V515H103.567V518.924H108.751V515ZM116.609 514.784C117.941 514.784 119.015 515.258 119.831 516.206C120.659 517.142 121.073 518.252 121.073 519.536C121.073 519.668 121.061 519.854 121.037 520.094H113.135C113.255 521.006 113.639 521.732 114.287 522.272C114.947 522.8 115.757 523.064 116.717 523.064C117.401 523.064 117.989 522.926 118.481 522.65C118.985 522.362 119.363 521.99 119.615 521.534L120.659 522.146C120.263 522.782 119.723 523.286 119.039 523.658C118.355 524.03 117.575 524.216 116.699 524.216C115.283 524.216 114.131 523.772 113.243 522.884C112.355 521.996 111.911 520.868 111.911 519.5C111.911 518.156 112.349 517.034 113.225 516.134C114.101 515.234 115.229 514.784 116.609 514.784ZM116.609 515.936C115.673 515.936 114.887 516.218 114.251 516.782C113.627 517.334 113.255 518.054 113.135 518.942H119.849C119.729 517.994 119.363 517.256 118.751 516.728C118.139 516.2 117.425 515.936 116.609 515.936Z" fill="#FF97BA"></path> <path d="M47.296 84.136L60.8 101H65.952V78.6H61.536V95.464L48.032 78.6H42.88V101H47.296V84.136ZM80.4918 97.768C77.4838 97.768 75.1478 96.456 74.5398 94.12H88.2998C88.4918 93.384 88.5878 92.648 88.5878 91.944C88.5878 87.624 84.9398 84.456 80.0758 84.456C74.7318 84.456 70.1878 87.656 70.1878 93C70.1878 97.8 74.1238 101.576 80.0758 101.576C83.0198 101.576 86.0278 100.584 88.1718 99.496L86.9237 96.168C84.6518 97.352 82.6678 97.768 80.4918 97.768ZM79.8198 88.008C82.3158 88.008 83.9158 89.128 84.3318 91.016H74.6358C75.2758 89.064 77.0677 88.008 79.8198 88.008ZM94.39 85H89.75L97.302 101H101.942L109.526 85H104.822L99.638 96.232L94.39 85ZM121.179 97.768C118.171 97.768 115.835 96.456 115.227 94.12H128.987C129.179 93.384 129.275 92.648 129.275 91.944C129.275 87.624 125.627 84.456 120.763 84.456C115.419 84.456 110.875 87.656 110.875 93C110.875 97.8 114.811 101.576 120.763 101.576C123.707 101.576 126.715 100.584 128.859 99.496L127.611 96.168C125.339 97.352 123.355 97.768 121.179 97.768ZM120.507 88.008C123.003 88.008 124.603 89.128 125.019 91.016H115.323C115.963 89.064 117.755 88.008 120.507 88.008ZM142.982 84.456C140.198 84.456 137.99 86.824 137.062 88.552V85H132.838V101H137.062V93.064C137.062 90.12 139.91 88.392 142.566 88.392C143.174 88.392 144.006 88.584 144.774 88.936L145.67 85.096C144.87 84.712 143.878 84.456 142.982 84.456ZM166.436 88.424C168.964 88.424 170.276 89.992 170.276 92.264V101H174.5V91.752C174.5 87.4 172.004 84.52 167.652 84.52C164.612 84.52 162.244 86.472 161.124 88.552V77.288H156.9V101H161.124V93.064C161.124 89.896 163.78 88.424 166.436 88.424ZM184.75 91.88C181.454 91.88 178.19 93.352 178.19 96.776C178.19 99.656 180.43 101.64 183.438 101.64C186.158 101.64 188.59 100.168 190.126 98.344C190.19 100.136 191.086 101.64 193.23 101.64C194.542 101.64 196.462 101 198.222 100.04L197.358 96.776C196.43 97.256 195.598 97.608 195.118 97.608C194.67 97.608 194.35 97.32 194.35 96.84V91.08C194.35 86.696 191.79 84.36 187.406 84.36C184.878 84.36 181.518 85.352 179.534 85.992L180.59 89.832C182.926 88.968 185.358 88.232 187.022 88.232C189.038 88.232 190.126 89.352 190.126 91.016V92.872C188.75 92.392 186.478 91.88 184.75 91.88ZM184.814 98.024C183.47 98.024 182.51 97.48 182.51 96.424C182.51 95.272 183.566 94.6 184.974 94.6C186.51 94.6 188.366 94.76 190.126 95.08V95.688C188.622 97.16 186.414 98.024 184.814 98.024ZM202.859 85H198.219L205.771 101H210.411L217.995 85H213.291L208.107 96.232L202.859 85ZM229.648 97.768C226.64 97.768 224.304 96.456 223.696 94.12H237.456C237.648 93.384 237.744 92.648 237.744 91.944C237.744 87.624 234.096 84.456 229.232 84.456C223.888 84.456 219.344 87.656 219.344 93C219.344 97.8 223.28 101.576 229.232 101.576C232.176 101.576 235.184 100.584 237.328 99.496L236.08 96.168C233.808 97.352 231.824 97.768 229.648 97.768ZM228.976 88.008C231.472 88.008 233.072 89.128 233.488 91.016H223.792C224.432 89.064 226.224 88.008 228.976 88.008ZM255.265 78.6H250.849V101H255.265V78.6ZM278.867 97.768C275.859 97.768 273.523 96.456 272.915 94.12H286.675C286.867 93.384 286.963 92.648 286.963 91.944C286.963 87.624 283.315 84.456 278.451 84.456C273.107 84.456 268.563 87.656 268.563 93C268.563 97.8 272.499 101.576 278.451 101.576C281.395 101.576 284.403 100.584 286.547 99.496L285.299 96.168C283.027 97.352 281.043 97.768 278.867 97.768ZM278.195 88.008C280.691 88.008 282.291 89.128 282.707 91.016H273.011C273.651 89.064 275.443 88.008 278.195 88.008ZM292.765 85H288.125L295.677 101H300.317L307.901 85H303.197L298.013 96.232L292.765 85ZM319.554 97.768C316.546 97.768 314.21 96.456 313.602 94.12H327.362C327.554 93.384 327.65 92.648 327.65 91.944C327.65 87.624 324.002 84.456 319.138 84.456C313.794 84.456 309.25 87.656 309.25 93C309.25 97.8 313.186 101.576 319.138 101.576C322.082 101.576 325.09 100.584 327.234 99.496L325.986 96.168C323.714 97.352 321.73 97.768 319.554 97.768ZM318.882 88.008C321.378 88.008 322.978 89.128 323.394 91.016H313.698C314.338 89.064 316.13 88.008 318.882 88.008ZM341.357 84.456C338.573 84.456 336.365 86.824 335.437 88.552V85H331.213V101H335.437V93.064C335.437 90.12 338.285 88.392 340.941 88.392C341.549 88.392 342.381 88.584 343.149 88.936L344.045 85.096C343.245 84.712 342.253 84.456 341.357 84.456ZM56.544 125.576C54.656 124.936 51.68 124.392 49.152 124.392C44.608 124.392 41.376 126.376 41.376 129.512C41.376 135.752 53.28 133.64 53.28 136.168C53.28 137.288 51.68 137.928 49.376 137.928C46.912 137.928 44.416 137.16 42.304 136.232L41.056 139.56C43.232 140.712 46.208 141.64 49.216 141.64C53.12 141.64 57.44 139.624 57.44 136.04C57.44 129.8 45.536 132.008 45.536 129.352C45.536 128.392 47.2 128.072 49.312 128.072C51.36 128.072 53.344 128.488 55.424 129.288L56.544 125.576ZM70.6548 128.424C73.1828 128.424 74.4948 129.992 74.4948 132.264V141H78.7188V131.752C78.7188 127.4 76.2228 124.52 71.8708 124.52C68.8308 124.52 66.4628 126.472 65.3428 128.552V125H61.1188V141H65.3428V133.064C65.3428 129.896 67.9988 128.424 70.6548 128.424ZM92.2648 124.456C86.9208 124.456 82.3128 127.496 82.3128 132.84C82.3128 137.64 86.4728 141.576 92.2648 141.576C98.0568 141.576 102.217 137.64 102.217 132.84C102.217 127.496 97.6088 124.456 92.2648 124.456ZM92.2648 128.136C95.5928 128.136 97.9608 129.864 97.9608 132.84C97.9608 135.528 95.4328 137.928 92.2648 137.928C89.0968 137.928 86.5688 135.528 86.5688 132.84C86.5688 129.864 88.9368 128.136 92.2648 128.136ZM114.859 124.456C109.515 124.456 104.907 127.496 104.907 132.84C104.907 137.64 109.067 141.576 114.859 141.576C120.651 141.576 124.811 137.64 124.811 132.84C124.811 127.496 120.203 124.456 114.859 124.456ZM114.859 128.136C118.187 128.136 120.555 129.864 120.555 132.84C120.555 135.528 118.027 137.928 114.859 137.928C111.691 137.928 109.163 135.528 109.163 132.84C109.163 129.864 111.531 128.136 114.859 128.136ZM139.66 124.456C136.396 124.456 133.836 126.344 132.78 128.552V125H128.556V148.68H132.78V140.456C134.348 140.936 136.556 141.576 138.316 141.576C143.692 141.576 147.724 137.64 147.724 132.84C147.724 127.656 144.044 124.456 139.66 124.456ZM138.412 128.392C141.26 128.392 143.468 129.96 143.468 132.84C143.468 135.528 141.132 137.864 138.38 137.864C136.396 137.864 134.604 137.448 132.78 136.904V133.064C132.78 130.12 135.564 128.392 138.412 128.392ZM160.711 137.768C157.703 137.768 155.367 136.456 154.759 134.12H168.519C168.711 133.384 168.807 132.648 168.807 131.944C168.807 127.624 165.159 124.456 160.295 124.456C154.951 124.456 150.407 127.656 150.407 133C150.407 137.8 154.343 141.576 160.295 141.576C163.239 141.576 166.247 140.584 168.391 139.496L167.142 136.168C164.871 137.352 162.887 137.768 160.711 137.768ZM160.039 128.008C162.535 128.008 164.135 129.128 164.551 131.016H154.855C155.495 129.064 157.286 128.008 160.039 128.008ZM179.377 141.544C182.641 141.544 185.201 139.656 186.257 137.448V141H190.481V117H186.257V125.576C184.657 125.064 182.449 124.424 180.721 124.424C175.345 124.424 171.313 128.36 171.313 133.16C171.313 138.344 174.993 141.544 179.377 141.544ZM180.625 137.608C177.777 137.608 175.569 136.008 175.569 133.128C175.569 130.312 177.777 128.136 180.657 128.136C182.609 128.136 184.401 128.552 186.257 129.096V132.552C186.257 135.624 183.441 137.608 180.625 137.608ZM202.578 128.68H205.618V134.888C205.618 138.92 207.762 141.544 211.73 141.544C213.426 141.544 215.698 140.808 217.042 140.104L216.114 136.488C215.09 137.128 213.682 137.64 212.434 137.64C210.77 137.64 209.842 136.456 209.842 134.728V128.68H216.498V125H209.842V120.2H206.322L205.746 125.128L202.578 125.32V128.68ZM229.78 128.424C232.308 128.424 233.62 129.992 233.62 132.264V141H237.844V131.752C237.844 127.4 235.348 124.52 230.996 124.52C227.956 124.52 225.588 126.472 224.468 128.552V117.288H220.244V141H224.468V133.064C224.468 129.896 227.124 128.424 229.78 128.424ZM252.638 124.456C249.854 124.456 247.646 126.824 246.718 128.552V125H242.494V141H246.718V133.064C246.718 130.12 249.566 128.392 252.222 128.392C252.83 128.392 253.662 128.584 254.43 128.936L255.326 125.096C254.526 124.712 253.534 124.456 252.638 124.456ZM266.39 124.456C261.046 124.456 256.438 127.496 256.438 132.84C256.438 137.64 260.598 141.576 266.39 141.576C272.182 141.576 276.342 137.64 276.342 132.84C276.342 127.496 271.734 124.456 266.39 124.456ZM266.39 128.136C269.718 128.136 272.086 129.864 272.086 132.84C272.086 135.528 269.558 137.928 266.39 137.928C263.222 137.928 260.694 135.528 260.694 132.84C260.694 129.864 263.062 128.136 266.39 128.136ZM286.648 141.512C289.56 141.512 292.024 139.752 293.176 137.48V141H297.4V125H293.176V132.744C293.176 136.136 290.904 137.608 288.216 137.608C285.688 137.608 284.152 136.328 284.152 133.736V125H279.928V134.28C279.928 138.632 282.36 141.512 286.648 141.512ZM307.909 138.888C306.853 138.888 306.309 138.504 306.309 137.96C306.309 137.512 306.725 137.192 307.109 137.096C307.845 137.224 308.645 137.288 309.445 137.288C314.277 137.288 317.797 134.536 317.797 130.888C317.797 129.8 317.509 128.84 317.061 128.04C317.829 127.656 318.725 127.432 319.845 127.304L319.077 123.368C317.029 123.72 315.429 124.488 314.213 125.48C312.837 124.808 311.173 124.456 309.445 124.456C305.061 124.456 301.125 126.664 301.125 130.888C301.125 132.616 302.501 134.376 303.973 135.336C303.173 135.848 302.245 136.68 302.245 137.736C302.245 138.76 302.917 139.88 303.781 140.296C302.181 140.712 300.485 142.28 300.485 143.976C300.485 147.336 304.261 149.096 310.085 149.096C315.557 149.096 319.589 147.304 319.589 143.656C319.589 140.328 315.557 138.888 310.085 138.888H307.909ZM309.413 127.944C311.685 127.944 313.413 128.936 313.413 130.76C313.413 132.264 311.845 133.512 309.413 133.512C307.109 133.512 305.381 132.36 305.381 130.76C305.381 128.936 307.109 127.944 309.413 127.944ZM310.021 142.472C313.317 142.472 315.493 142.92 315.493 144.008C315.493 145.192 313.317 145.64 310.021 145.64C306.501 145.64 304.549 145.128 304.549 143.976C304.549 143.336 305.157 142.792 305.861 142.504C306.405 142.472 309.381 142.472 310.021 142.472ZM331.936 128.424C334.464 128.424 335.776 129.992 335.776 132.264V141H340V131.752C340 127.4 337.504 124.52 333.152 124.52C330.112 124.52 327.744 126.472 326.624 128.552V117.288H322.4V141H326.624V133.064C326.624 129.896 329.28 128.424 331.936 128.424ZM52.64 164.52C49.856 164.52 47.68 166.504 46.624 168.392V165H42.4V181H46.624V173.032C46.624 169.96 48.992 168.424 51.2 168.424C53.536 168.424 54.784 169.992 54.784 172.104V181H59.008V173.032C59.008 169.992 61.376 168.424 63.584 168.424C65.92 168.424 67.168 169.992 67.168 172.104V181H71.392V171.592C71.392 167.368 69.184 164.52 65.024 164.52C62.336 164.52 59.776 166.504 58.496 168.424C57.6 166.024 55.648 164.52 52.64 164.52ZM93.465 165H88.825C87.385 168.424 85.625 172.552 83.961 176.424L78.233 165H73.625L81.881 181.224C81.881 181.256 81.817 181.32 81.817 181.384C81.017 183.176 80.121 184.936 78.425 184.936C78.201 184.936 77.561 184.872 76.985 184.776L76.761 188.84C77.305 188.936 78.009 189 78.233 189C82.745 189 84.217 185.736 85.753 182.312L93.465 165ZM116.035 164.456C112.771 164.456 110.211 166.344 109.155 168.552V165H104.931V188.68H109.155V180.456C110.723 180.936 112.931 181.576 114.691 181.576C120.067 181.576 124.099 177.64 124.099 172.84C124.099 167.656 120.419 164.456 116.035 164.456ZM114.787 168.392C117.635 168.392 119.843 169.96 119.843 172.84C119.843 175.528 117.507 177.864 114.755 177.864C112.771 177.864 110.979 177.448 109.155 176.904V173.064C109.155 170.12 111.939 168.392 114.787 168.392ZM133.438 171.88C130.141 171.88 126.878 173.352 126.878 176.776C126.878 179.656 129.118 181.64 132.126 181.64C134.845 181.64 137.278 180.168 138.814 178.344C138.878 180.136 139.774 181.64 141.918 181.64C143.23 181.64 145.15 181 146.91 180.04L146.046 176.776C145.118 177.256 144.286 177.608 143.806 177.608C143.358 177.608 143.038 177.32 143.038 176.84V171.08C143.038 166.696 140.478 164.36 136.094 164.36C133.566 164.36 130.206 165.352 128.222 165.992L129.278 169.832C131.614 168.968 134.046 168.232 135.71 168.232C137.726 168.232 138.814 169.352 138.814 171.016V172.872C137.438 172.392 135.166 171.88 133.438 171.88ZM133.502 178.024C132.158 178.024 131.198 177.48 131.198 176.424C131.198 175.272 132.254 174.6 133.661 174.6C135.198 174.6 137.054 174.76 138.814 175.08V175.688C137.31 177.16 135.102 178.024 133.502 178.024ZM159.45 164.456C156.666 164.456 154.458 166.824 153.53 168.552V165H149.306V181H153.53V173.064C153.53 170.12 156.378 168.392 159.034 168.392C159.642 168.392 160.474 168.584 161.242 168.936L162.138 165.096C161.338 164.712 160.346 164.456 159.45 164.456ZM162.546 168.68H165.586V174.888C165.586 178.92 167.73 181.544 171.698 181.544C173.394 181.544 175.666 180.808 177.01 180.104L176.082 176.488C175.058 177.128 173.65 177.64 172.402 177.64C170.738 177.64 169.81 176.456 169.81 174.728V168.68H176.466V165H169.81V160.2H166.29L165.714 165.128L162.546 165.32V168.68ZM189.749 168.424C192.277 168.424 193.589 169.992 193.589 172.264V181H197.812V171.752C197.812 167.4 195.317 164.52 190.965 164.52C187.925 164.52 185.557 166.472 184.437 168.552V165H180.213V181H184.437V173.064C184.437 169.896 187.093 168.424 189.749 168.424ZM211.711 177.768C208.703 177.768 206.367 176.456 205.759 174.12H219.519C219.711 173.384 219.807 172.648 219.807 171.944C219.807 167.624 216.159 164.456 211.295 164.456C205.951 164.456 201.407 167.656 201.407 173C201.407 177.8 205.343 181.576 211.295 181.576C214.239 181.576 217.247 180.584 219.391 179.496L218.142 176.168C215.871 177.352 213.887 177.768 211.711 177.768ZM211.039 168.008C213.535 168.008 215.135 169.128 215.551 171.016H205.855C206.495 169.064 208.286 168.008 211.039 168.008ZM233.513 164.456C230.729 164.456 228.521 166.824 227.593 168.552V165H223.369V181H227.593V173.064C227.593 170.12 230.441 168.392 233.097 168.392C233.705 168.392 234.537 168.584 235.305 168.936L236.201 165.096C235.401 164.712 234.409 164.456 233.513 164.456ZM237.985 158.792C237.985 159.912 238.785 160.84 239.873 161.064C239.745 162.504 238.977 163.656 237.857 164.616L239.553 166.568C241.729 164.936 243.169 161.992 243.169 159.688C243.169 157.928 242.369 156.36 240.513 156.36C239.105 156.36 237.985 157.448 237.985 158.792ZM261.513 165.576C259.625 164.936 256.649 164.392 254.121 164.392C249.577 164.392 246.345 166.376 246.345 169.512C246.345 175.752 258.249 173.64 258.249 176.168C258.249 177.288 256.649 177.928 254.345 177.928C251.881 177.928 249.385 177.16 247.273 176.232L246.025 179.56C248.201 180.712 251.177 181.64 254.185 181.64C258.089 181.64 262.409 179.624 262.409 176.04C262.409 169.8 250.505 172.008 250.505 169.352C250.505 168.392 252.169 168.072 254.281 168.072C256.329 168.072 258.313 168.488 260.393 169.288L261.513 165.576ZM53.504 204.456C50.24 204.456 47.68 206.344 46.624 208.552V205H42.4V228.68H46.624V220.456C48.192 220.936 50.4 221.576 52.16 221.576C57.536 221.576 61.568 217.64 61.568 212.84C61.568 207.656 57.888 204.456 53.504 204.456ZM52.256 208.392C55.104 208.392 57.312 209.96 57.312 212.84C57.312 215.528 54.976 217.864 52.224 217.864C50.24 217.864 48.448 217.448 46.624 216.904V213.064C46.624 210.12 49.408 208.392 52.256 208.392ZM74.8423 208.424C77.3703 208.424 78.6823 209.992 78.6823 212.264V221H82.9062V211.752C82.9062 207.4 80.4103 204.52 76.0583 204.52C73.0183 204.52 70.6503 206.472 69.5303 208.552V197.288H65.3063V221H69.5303V213.064C69.5303 209.896 72.1863 208.424 74.8423 208.424ZM96.4523 204.456C91.1083 204.456 86.5003 207.496 86.5003 212.84C86.5003 217.64 90.6603 221.576 96.4523 221.576C102.244 221.576 106.404 217.64 106.404 212.84C106.404 207.496 101.796 204.456 96.4523 204.456ZM96.4523 208.136C99.7803 208.136 102.148 209.864 102.148 212.84C102.148 215.528 99.6203 217.928 96.4523 217.928C93.2843 217.928 90.7563 215.528 90.7563 212.84C90.7563 209.864 93.1243 208.136 96.4523 208.136ZM119.686 208.424C122.214 208.424 123.526 209.992 123.526 212.264V221H127.75V211.752C127.75 207.4 125.254 204.52 120.902 204.52C117.862 204.52 115.494 206.472 114.374 208.552V205H110.15V221H114.374V213.064C114.374 209.896 117.03 208.424 119.686 208.424ZM141.648 217.768C138.64 217.768 136.304 216.456 135.696 214.12H149.456C149.648 213.384 149.744 212.648 149.744 211.944C149.744 207.624 146.096 204.456 141.232 204.456C135.888 204.456 131.344 207.656 131.344 213C131.344 217.8 135.28 221.576 141.232 221.576C144.176 221.576 147.184 220.584 149.328 219.496L148.08 216.168C145.808 217.352 143.824 217.768 141.648 217.768ZM140.976 208.008C143.472 208.008 145.072 209.128 145.488 211.016H135.792C136.432 209.064 138.224 208.008 140.976 208.008Z" fill="#FFC2D7"></path> <path d="M46.3 287.4C48.016 287.4 49.432 288.012 50.548 289.236C51.676 290.448 52.24 291.936 52.24 293.7C52.24 295.464 51.676 296.958 50.548 298.182C49.432 299.394 48.016 300 46.3 300H41.44V287.4H46.3ZM46.3 298.812C47.68 298.812 48.808 298.32 49.684 297.336C50.572 296.352 51.016 295.14 51.016 293.7C51.016 292.26 50.572 291.048 49.684 290.064C48.808 289.08 47.68 288.588 46.3 288.588H42.7V298.812H46.3ZM55.4211 288.84C55.2531 289.008 55.0491 289.092 54.8091 289.092C54.5691 289.092 54.3651 289.008 54.1971 288.84C54.0291 288.672 53.9451 288.468 53.9451 288.228C53.9451 287.988 54.0291 287.784 54.1971 287.616C54.3651 287.448 54.5691 287.364 54.8091 287.364C55.0491 287.364 55.2531 287.448 55.4211 287.616C55.5891 287.784 55.6731 287.988 55.6731 288.228C55.6731 288.468 55.5891 288.672 55.4211 288.84ZM54.2151 300V291H55.4031V300H54.2151ZM65.6641 287.4H66.8521V300H65.6641V298.236C64.8361 299.556 63.6241 300.216 62.0281 300.216C60.7441 300.216 59.6461 299.76 58.7341 298.848C57.8341 297.936 57.3841 296.82 57.3841 295.5C57.3841 294.18 57.8341 293.064 58.7341 292.152C59.6461 291.24 60.7441 290.784 62.0281 290.784C63.6241 290.784 64.8361 291.444 65.6641 292.764V287.4ZM59.5981 298.038C60.2821 298.722 61.1221 299.064 62.1181 299.064C63.1141 299.064 63.9541 298.722 64.6381 298.038C65.3221 297.342 65.6641 296.496 65.6641 295.5C65.6641 294.504 65.3221 293.664 64.6381 292.98C63.9541 292.284 63.1141 291.936 62.1181 291.936C61.1221 291.936 60.2821 292.284 59.5981 292.98C58.9141 293.664 58.5721 294.504 58.5721 295.5C58.5721 296.496 58.9141 297.342 59.5981 298.038ZM80.3474 291H81.6074L77.7554 300.828C77.4074 301.716 76.9094 302.412 76.2614 302.916C75.6254 303.432 74.9114 303.66 74.1194 303.6V302.484C75.1994 302.604 76.0214 301.98 76.5854 300.612L76.8194 300.054L72.7874 291H74.0474L77.4314 298.542L80.3474 291ZM90.2336 298.866C89.3216 299.766 88.2056 300.216 86.8856 300.216C85.5656 300.216 84.4436 299.766 83.5196 298.866C82.6076 297.954 82.1516 296.832 82.1516 295.5C82.1516 294.168 82.6076 293.052 83.5196 292.152C84.4436 291.24 85.5656 290.784 86.8856 290.784C88.2056 290.784 89.3216 291.24 90.2336 292.152C91.1576 293.052 91.6196 294.168 91.6196 295.5C91.6196 296.832 91.1576 297.954 90.2336 298.866ZM84.3656 298.038C85.0496 298.722 85.8896 299.064 86.8856 299.064C87.8816 299.064 88.7216 298.722 89.4056 298.038C90.0896 297.342 90.4316 296.496 90.4316 295.5C90.4316 294.504 90.0896 293.664 89.4056 292.98C88.7216 292.284 87.8816 291.936 86.8856 291.936C85.8896 291.936 85.0496 292.284 84.3656 292.98C83.6816 293.664 83.3396 294.504 83.3396 295.5C83.3396 296.496 83.6816 297.342 84.3656 298.038ZM99.9437 291H101.132V300H99.9437V298.596C99.2717 299.676 98.2637 300.216 96.9197 300.216C95.8277 300.216 94.9637 299.886 94.3277 299.226C93.7037 298.554 93.3917 297.654 93.3917 296.526V291H94.5797V296.526C94.5797 297.33 94.7897 297.954 95.2097 298.398C95.6417 298.842 96.2477 299.064 97.0277 299.064C97.8917 299.064 98.5937 298.794 99.1337 298.254C99.6737 297.702 99.9437 296.856 99.9437 295.716V291ZM115.885 287.4H117.073V300H115.885V298.236C115.057 299.556 113.845 300.216 112.249 300.216C110.965 300.216 109.867 299.76 108.955 298.848C108.055 297.936 107.605 296.82 107.605 295.5C107.605 294.18 108.055 293.064 108.955 292.152C109.867 291.24 110.965 290.784 112.249 290.784C113.845 290.784 115.057 291.444 115.885 292.764V287.4ZM109.819 298.038C110.503 298.722 111.343 299.064 112.339 299.064C113.335 299.064 114.175 298.722 114.859 298.038C115.543 297.342 115.885 296.496 115.885 295.5C115.885 294.504 115.543 293.664 114.859 292.98C114.175 292.284 113.335 291.936 112.339 291.936C111.343 291.936 110.503 292.284 109.819 292.98C109.135 293.664 108.793 294.504 108.793 295.5C108.793 296.496 109.135 297.342 109.819 298.038ZM127.13 298.866C126.218 299.766 125.102 300.216 123.782 300.216C122.462 300.216 121.34 299.766 120.416 298.866C119.504 297.954 119.048 296.832 119.048 295.5C119.048 294.168 119.504 293.052 120.416 292.152C121.34 291.24 122.462 290.784 123.782 290.784C125.102 290.784 126.218 291.24 127.13 292.152C128.054 293.052 128.516 294.168 128.516 295.5C128.516 296.832 128.054 297.954 127.13 298.866ZM121.262 298.038C121.946 298.722 122.786 299.064 123.782 299.064C124.778 299.064 125.618 298.722 126.302 298.038C126.986 297.342 127.328 296.496 127.328 295.5C127.328 294.504 126.986 293.664 126.302 292.98C125.618 292.284 124.778 291.936 123.782 291.936C122.786 291.936 121.946 292.284 121.262 292.98C120.578 293.664 120.236 294.504 120.236 295.5C120.236 296.496 120.578 297.342 121.262 298.038ZM136.21 288.84C136.042 289.008 135.838 289.092 135.598 289.092C135.358 289.092 135.154 289.008 134.986 288.84C134.818 288.672 134.734 288.468 134.734 288.228C134.734 287.988 134.818 287.784 134.986 287.616C135.154 287.448 135.358 287.364 135.598 287.364C135.838 287.364 136.042 287.448 136.21 287.616C136.378 287.784 136.462 287.988 136.462 288.228C136.462 288.468 136.378 288.672 136.21 288.84ZM135.004 300V291H136.192V300H135.004ZM143.483 292.152H140.891V297.606C140.891 298.098 140.987 298.452 141.179 298.668C141.371 298.872 141.659 298.98 142.043 298.992C142.427 298.992 142.907 298.98 143.483 298.956V300C142.223 300.192 141.275 300.102 140.639 299.73C140.015 299.358 139.703 298.65 139.703 297.606V292.152H137.813V291H139.703V288.84L140.891 288.48V291H143.483V292.152ZM154.787 290.784C156.071 290.784 157.163 291.24 158.063 292.152C158.975 293.064 159.431 294.18 159.431 295.5C159.431 296.82 158.975 297.936 158.063 298.848C157.163 299.76 156.071 300.216 154.787 300.216C153.191 300.216 151.979 299.556 151.151 298.236V300H149.963V287.4H151.151V292.764C151.979 291.444 153.191 290.784 154.787 290.784ZM152.177 298.038C152.861 298.722 153.701 299.064 154.697 299.064C155.693 299.064 156.533 298.722 157.217 298.038C157.901 297.342 158.243 296.496 158.243 295.5C158.243 294.504 157.901 293.664 157.217 292.98C156.533 292.284 155.693 291.936 154.697 291.936C153.701 291.936 152.861 292.284 152.177 292.98C151.493 293.664 151.151 294.504 151.151 295.5C151.151 296.496 151.493 297.342 152.177 298.038ZM165.564 290.784C166.896 290.784 167.97 291.258 168.786 292.206C169.614 293.142 170.028 294.252 170.028 295.536C170.028 295.668 170.016 295.854 169.992 296.094H162.09C162.21 297.006 162.594 297.732 163.242 298.272C163.902 298.8 164.712 299.064 165.672 299.064C166.356 299.064 166.944 298.926 167.436 298.65C167.94 298.362 168.318 297.99 168.57 297.534L169.614 298.146C169.218 298.782 168.678 299.286 167.994 299.658C167.31 300.03 166.53 300.216 165.654 300.216C164.238 300.216 163.086 299.772 162.198 298.884C161.31 297.996 160.866 296.868 160.866 295.5C160.866 294.156 161.304 293.034 162.18 292.134C163.056 291.234 164.184 290.784 165.564 290.784ZM165.564 291.936C164.628 291.936 163.842 292.218 163.206 292.782C162.582 293.334 162.21 294.054 162.09 294.942H168.804C168.684 293.994 168.318 293.256 167.706 292.728C167.094 292.2 166.38 291.936 165.564 291.936ZM176.112 300.216C174.756 300.216 173.628 299.766 172.728 298.866C171.828 297.954 171.378 296.832 171.378 295.5C171.378 294.168 171.828 293.052 172.728 292.152C173.628 291.24 174.756 290.784 176.112 290.784C177 290.784 177.798 291 178.506 291.432C179.214 291.852 179.73 292.422 180.054 293.142L179.082 293.7C178.842 293.16 178.452 292.734 177.912 292.422C177.384 292.098 176.784 291.936 176.112 291.936C175.116 291.936 174.276 292.284 173.592 292.98C172.908 293.664 172.566 294.504 172.566 295.5C172.566 296.496 172.908 297.342 173.592 298.038C174.276 298.722 175.116 299.064 176.112 299.064C176.784 299.064 177.384 298.908 177.912 298.596C178.44 298.272 178.854 297.84 179.154 297.3L180.144 297.876C179.772 298.596 179.226 299.166 178.506 299.586C177.786 300.006 176.988 300.216 176.112 300.216ZM189.502 291H190.69V300H189.502V298.236C188.674 299.556 187.462 300.216 185.866 300.216C184.582 300.216 183.484 299.76 182.572 298.848C181.672 297.936 181.222 296.82 181.222 295.5C181.222 294.18 181.672 293.064 182.572 292.152C183.484 291.24 184.582 290.784 185.866 290.784C187.462 290.784 188.674 291.444 189.502 292.764V291ZM183.436 298.038C184.12 298.722 184.96 299.064 185.956 299.064C186.952 299.064 187.792 298.722 188.476 298.038C189.16 297.342 189.502 296.496 189.502 295.5C189.502 294.504 189.16 293.664 188.476 292.98C187.792 292.284 186.952 291.936 185.956 291.936C184.96 291.936 184.12 292.284 183.436 292.98C182.752 293.664 182.41 294.504 182.41 295.5C182.41 296.496 182.752 297.342 183.436 298.038ZM199.541 291H200.729V300H199.541V298.596C198.869 299.676 197.861 300.216 196.517 300.216C195.425 300.216 194.561 299.886 193.925 299.226C193.301 298.554 192.989 297.654 192.989 296.526V291H194.177V296.526C194.177 297.33 194.387 297.954 194.807 298.398C195.239 298.842 195.845 299.064 196.625 299.064C197.489 299.064 198.191 298.794 198.731 298.254C199.271 297.702 199.541 296.856 199.541 295.716V291ZM204.178 293.358C204.178 293.766 204.358 294.09 204.718 294.33C205.078 294.57 205.516 294.756 206.032 294.888C206.548 295.02 207.064 295.17 207.58 295.338C208.096 295.494 208.534 295.764 208.894 296.148C209.254 296.52 209.434 297.012 209.434 297.624C209.434 298.392 209.128 299.016 208.516 299.496C207.916 299.976 207.136 300.216 206.176 300.216C205.312 300.216 204.574 300.024 203.962 299.64C203.362 299.256 202.942 298.758 202.702 298.146L203.71 297.552C203.878 298.02 204.178 298.392 204.61 298.668C205.054 298.932 205.576 299.064 206.176 299.064C206.764 299.064 207.256 298.95 207.652 298.722C208.048 298.482 208.246 298.116 208.246 297.624C208.246 297.216 208.066 296.892 207.706 296.652C207.346 296.412 206.908 296.226 206.392 296.094C205.876 295.962 205.36 295.818 204.844 295.662C204.328 295.494 203.89 295.224 203.53 294.852C203.17 294.468 202.99 293.97 202.99 293.358C202.99 292.626 203.278 292.014 203.854 291.522C204.442 291.03 205.18 290.784 206.068 290.784C206.8 290.784 207.442 290.952 207.994 291.288C208.546 291.612 208.954 292.056 209.218 292.62L208.228 293.196C207.88 292.356 207.16 291.936 206.068 291.936C205.552 291.936 205.108 292.062 204.736 292.314C204.364 292.554 204.178 292.902 204.178 293.358ZM215.311 290.784C216.643 290.784 217.717 291.258 218.533 292.206C219.361 293.142 219.775 294.252 219.775 295.536C219.775 295.668 219.763 295.854 219.739 296.094H211.837C211.957 297.006 212.341 297.732 212.989 298.272C213.649 298.8 214.459 299.064 215.419 299.064C216.103 299.064 216.691 298.926 217.183 298.65C217.687 298.362 218.065 297.99 218.317 297.534L219.361 298.146C218.965 298.782 218.425 299.286 217.741 299.658C217.057 300.03 216.277 300.216 215.401 300.216C213.985 300.216 212.833 299.772 211.945 298.884C211.057 297.996 210.613 296.868 210.613 295.5C210.613 294.156 211.051 293.034 211.927 292.134C212.803 291.234 213.931 290.784 215.311 290.784ZM215.311 291.936C214.375 291.936 213.589 292.218 212.953 292.782C212.329 293.334 211.957 294.054 211.837 294.942H218.551C218.431 293.994 218.065 293.256 217.453 292.728C216.841 292.2 216.127 291.936 215.311 291.936ZM227.1 293.358C227.1 293.766 227.28 294.09 227.64 294.33C228 294.57 228.438 294.756 228.954 294.888C229.47 295.02 229.986 295.17 230.502 295.338C231.018 295.494 231.456 295.764 231.816 296.148C232.176 296.52 232.356 297.012 232.356 297.624C232.356 298.392 232.05 299.016 231.438 299.496C230.838 299.976 230.058 300.216 229.098 300.216C228.234 300.216 227.496 300.024 226.884 299.64C226.284 299.256 225.864 298.758 225.624 298.146L226.632 297.552C226.8 298.02 227.1 298.392 227.532 298.668C227.976 298.932 228.498 299.064 229.098 299.064C229.686 299.064 230.178 298.95 230.574 298.722C230.97 298.482 231.168 298.116 231.168 297.624C231.168 297.216 230.988 296.892 230.628 296.652C230.268 296.412 229.83 296.226 229.314 296.094C228.798 295.962 228.282 295.818 227.766 295.662C227.25 295.494 226.812 295.224 226.452 294.852C226.092 294.468 225.912 293.97 225.912 293.358C225.912 292.626 226.2 292.014 226.776 291.522C227.364 291.03 228.102 290.784 228.99 290.784C229.722 290.784 230.364 290.952 230.916 291.288C231.468 291.612 231.876 292.056 232.14 292.62L231.15 293.196C230.802 292.356 230.082 291.936 228.99 291.936C228.474 291.936 228.03 292.062 227.658 292.314C227.286 292.554 227.1 292.902 227.1 293.358ZM240.586 291H241.774V300H240.586V298.596C239.914 299.676 238.906 300.216 237.562 300.216C236.47 300.216 235.606 299.886 234.97 299.226C234.346 298.554 234.034 297.654 234.034 296.526V291H235.222V296.526C235.222 297.33 235.432 297.954 235.852 298.398C236.284 298.842 236.89 299.064 237.67 299.064C238.534 299.064 239.236 298.794 239.776 298.254C240.316 297.702 240.586 296.856 240.586 295.716V291ZM245.223 293.358C245.223 293.766 245.403 294.09 245.763 294.33C246.123 294.57 246.561 294.756 247.077 294.888C247.593 295.02 248.109 295.17 248.625 295.338C249.141 295.494 249.579 295.764 249.939 296.148C250.299 296.52 250.479 297.012 250.479 297.624C250.479 298.392 250.173 299.016 249.561 299.496C248.961 299.976 248.181 300.216 247.221 300.216C246.357 300.216 245.619 300.024 245.007 299.64C244.407 299.256 243.987 298.758 243.747 298.146L244.755 297.552C244.923 298.02 245.223 298.392 245.655 298.668C246.099 298.932 246.621 299.064 247.221 299.064C247.809 299.064 248.301 298.95 248.697 298.722C249.093 298.482 249.291 298.116 249.291 297.624C249.291 297.216 249.111 296.892 248.751 296.652C248.391 296.412 247.953 296.226 247.437 296.094C246.921 295.962 246.405 295.818 245.889 295.662C245.373 295.494 244.935 295.224 244.575 294.852C244.215 294.468 244.035 293.97 244.035 293.358C244.035 292.626 244.323 292.014 244.899 291.522C245.487 291.03 246.225 290.784 247.113 290.784C247.845 290.784 248.487 290.952 249.039 291.288C249.591 291.612 249.999 292.056 250.263 292.62L249.273 293.196C248.925 292.356 248.205 291.936 247.113 291.936C246.597 291.936 246.153 292.062 245.781 292.314C245.409 292.554 245.223 292.902 245.223 293.358ZM257.285 290.784C258.569 290.784 259.661 291.24 260.561 292.152C261.473 293.064 261.929 294.18 261.929 295.5C261.929 296.82 261.473 297.936 260.561 298.848C259.661 299.76 258.569 300.216 257.285 300.216C255.689 300.216 254.477 299.556 253.649 298.236V303.6H252.461V291H253.649V292.764C254.477 291.444 255.689 290.784 257.285 290.784ZM254.675 298.038C255.359 298.722 256.199 299.064 257.195 299.064C258.191 299.064 259.031 298.722 259.715 298.038C260.399 297.342 260.741 296.496 260.741 295.5C260.741 294.504 260.399 293.664 259.715 292.98C259.031 292.284 258.191 291.936 257.195 291.936C256.199 291.936 255.359 292.284 254.675 292.98C253.991 293.664 253.649 294.504 253.649 295.5C253.649 296.496 253.991 297.342 254.675 298.038ZM268.063 290.784C269.395 290.784 270.469 291.258 271.285 292.206C272.113 293.142 272.527 294.252 272.527 295.536C272.527 295.668 272.515 295.854 272.491 296.094H264.589C264.709 297.006 265.093 297.732 265.741 298.272C266.401 298.8 267.211 299.064 268.171 299.064C268.855 299.064 269.443 298.926 269.935 298.65C270.439 298.362 270.817 297.99 271.069 297.534L272.113 298.146C271.717 298.782 271.177 299.286 270.493 299.658C269.809 300.03 269.029 300.216 268.153 300.216C266.737 300.216 265.585 299.772 264.697 298.884C263.809 297.996 263.365 296.868 263.365 295.5C263.365 294.156 263.803 293.034 264.679 292.134C265.555 291.234 266.683 290.784 268.063 290.784ZM268.063 291.936C267.127 291.936 266.341 292.218 265.705 292.782C265.081 293.334 264.709 294.054 264.589 294.942H271.303C271.183 293.994 270.817 293.256 270.205 292.728C269.593 292.2 268.879 291.936 268.063 291.936ZM278.61 300.216C277.254 300.216 276.126 299.766 275.226 298.866C274.326 297.954 273.876 296.832 273.876 295.5C273.876 294.168 274.326 293.052 275.226 292.152C276.126 291.24 277.254 290.784 278.61 290.784C279.498 290.784 280.296 291 281.004 291.432C281.712 291.852 282.228 292.422 282.552 293.142L281.58 293.7C281.34 293.16 280.95 292.734 280.41 292.422C279.882 292.098 279.282 291.936 278.61 291.936C277.614 291.936 276.774 292.284 276.09 292.98C275.406 293.664 275.064 294.504 275.064 295.5C275.064 296.496 275.406 297.342 276.09 298.038C276.774 298.722 277.614 299.064 278.61 299.064C279.282 299.064 279.882 298.908 280.41 298.596C280.938 298.272 281.352 297.84 281.652 297.3L282.642 297.876C282.27 298.596 281.724 299.166 281.004 299.586C280.284 300.006 279.486 300.216 278.61 300.216ZM289.118 292.152H286.526V297.606C286.526 298.098 286.622 298.452 286.814 298.668C287.006 298.872 287.294 298.98 287.678 298.992C288.062 298.992 288.542 298.98 289.118 298.956V300C287.858 300.192 286.91 300.102 286.274 299.73C285.65 299.358 285.338 298.65 285.338 297.606V292.152H283.448V291H285.338V288.84L286.526 288.48V291H289.118V292.152ZM294.711 290.784C296.043 290.784 297.117 291.258 297.933 292.206C298.761 293.142 299.175 294.252 299.175 295.536C299.175 295.668 299.163 295.854 299.139 296.094H291.237C291.357 297.006 291.741 297.732 292.389 298.272C293.049 298.8 293.859 299.064 294.819 299.064C295.503 299.064 296.091 298.926 296.583 298.65C297.087 298.362 297.465 297.99 297.717 297.534L298.761 298.146C298.365 298.782 297.825 299.286 297.141 299.658C296.457 300.03 295.677 300.216 294.801 300.216C293.385 300.216 292.233 299.772 291.345 298.884C290.457 297.996 290.013 296.868 290.013 295.5C290.013 294.156 290.451 293.034 291.327 292.134C292.203 291.234 293.331 290.784 294.711 290.784ZM294.711 291.936C293.775 291.936 292.989 292.218 292.353 292.782C291.729 293.334 291.357 294.054 291.237 294.942H297.951C297.831 293.994 297.465 293.256 296.853 292.728C296.241 292.2 295.527 291.936 294.711 291.936ZM308.805 287.4H309.993V300H308.805V298.236C307.977 299.556 306.765 300.216 305.169 300.216C303.885 300.216 302.787 299.76 301.875 298.848C300.975 297.936 300.525 296.82 300.525 295.5C300.525 294.18 300.975 293.064 301.875 292.152C302.787 291.24 303.885 290.784 305.169 290.784C306.765 290.784 307.977 291.444 308.805 292.764V287.4ZM302.739 298.038C303.423 298.722 304.263 299.064 305.259 299.064C306.255 299.064 307.095 298.722 307.779 298.038C308.463 297.342 308.805 296.496 308.805 295.5C308.805 294.504 308.463 293.664 307.779 292.98C307.095 292.284 306.255 291.936 305.259 291.936C304.263 291.936 303.423 292.284 302.739 292.98C302.055 293.664 301.713 294.504 301.713 295.5C301.713 296.496 302.055 297.342 302.739 298.038ZM323.488 291H324.748L320.896 300.828C320.548 301.716 320.05 302.412 319.402 302.916C318.766 303.432 318.052 303.66 317.26 303.6V302.484C318.34 302.604 319.162 301.98 319.726 300.612L319.96 300.054L315.928 291H317.188L320.572 298.542L323.488 291ZM333.374 298.866C332.462 299.766 331.346 300.216 330.026 300.216C328.706 300.216 327.584 299.766 326.66 298.866C325.748 297.954 325.292 296.832 325.292 295.5C325.292 294.168 325.748 293.052 326.66 292.152C327.584 291.24 328.706 290.784 330.026 290.784C331.346 290.784 332.462 291.24 333.374 292.152C334.298 293.052 334.76 294.168 334.76 295.5C334.76 296.832 334.298 297.954 333.374 298.866ZM327.506 298.038C328.19 298.722 329.03 299.064 330.026 299.064C331.022 299.064 331.862 298.722 332.546 298.038C333.23 297.342 333.572 296.496 333.572 295.5C333.572 294.504 333.23 293.664 332.546 292.98C331.862 292.284 331.022 291.936 330.026 291.936C329.03 291.936 328.19 292.284 327.506 292.98C326.822 293.664 326.48 294.504 326.48 295.5C326.48 296.496 326.822 297.342 327.506 298.038ZM343.084 291H344.272V300H343.084V298.596C342.412 299.676 341.404 300.216 340.06 300.216C338.968 300.216 338.104 299.886 337.468 299.226C336.844 298.554 336.532 297.654 336.532 296.526V291H337.72V296.526C337.72 297.33 337.93 297.954 338.35 298.398C338.782 298.842 339.388 299.064 340.168 299.064C341.032 299.064 341.734 298.794 342.274 298.254C342.814 297.702 343.084 296.856 343.084 295.716V291ZM347.973 292.494C348.525 291.402 349.473 290.856 350.817 290.856V292.008C350.001 292.008 349.323 292.248 348.783 292.728C348.243 293.208 347.973 293.964 347.973 294.996V300H346.785V291H347.973V292.494ZM46.084 317.784C47.368 317.784 48.46 318.24 49.36 319.152C50.272 320.064 50.728 321.18 50.728 322.5C50.728 323.82 50.272 324.936 49.36 325.848C48.46 326.76 47.368 327.216 46.084 327.216C44.488 327.216 43.276 326.556 42.448 325.236V330.6H41.26V318H42.448V319.764C43.276 318.444 44.488 317.784 46.084 317.784ZM43.474 325.038C44.158 325.722 44.998 326.064 45.994 326.064C46.99 326.064 47.83 325.722 48.514 325.038C49.198 324.342 49.54 323.496 49.54 322.5C49.54 321.504 49.198 320.664 48.514 319.98C47.83 319.284 46.99 318.936 45.994 318.936C44.998 318.936 44.158 319.284 43.474 319.98C42.79 320.664 42.448 321.504 42.448 322.5C42.448 323.496 42.79 324.342 43.474 325.038ZM60.4434 318H61.6314V327H60.4434V325.236C59.6154 326.556 58.4034 327.216 56.8074 327.216C55.5234 327.216 54.4254 326.76 53.5134 325.848C52.6134 324.936 52.1634 323.82 52.1634 322.5C52.1634 321.18 52.6134 320.064 53.5134 319.152C54.4254 318.24 55.5234 317.784 56.8074 317.784C58.4034 317.784 59.6154 318.444 60.4434 319.764V318ZM54.3774 325.038C55.0614 325.722 55.9014 326.064 56.8974 326.064C57.8934 326.064 58.7334 325.722 59.4174 325.038C60.1014 324.342 60.4434 323.496 60.4434 322.5C60.4434 321.504 60.1014 320.664 59.4174 319.98C58.7334 319.284 57.8934 318.936 56.8974 318.936C55.9014 318.936 55.0614 319.284 54.3774 319.98C53.6934 320.664 53.3514 321.504 53.3514 322.5C53.3514 323.496 53.6934 324.342 54.3774 325.038ZM65.3347 319.494C65.8867 318.402 66.8347 317.856 68.1787 317.856V319.008C67.3627 319.008 66.6847 319.248 66.1447 319.728C65.6047 320.208 65.3347 320.964 65.3347 321.996V327H64.1467V318H65.3347V319.494ZM74.7527 319.152H72.1607V324.606C72.1607 325.098 72.2567 325.452 72.4487 325.668C72.6407 325.872 72.9287 325.98 73.3127 325.992C73.6967 325.992 74.1767 325.98 74.7527 325.956V327C73.4927 327.192 72.5447 327.102 71.9087 326.73C71.2847 326.358 70.9727 325.65 70.9727 324.606V319.152H69.0827V318H70.9727V315.84L72.1607 315.48V318H74.7527V319.152ZM80.9447 317.784C82.0367 317.784 82.8947 318.12 83.5187 318.792C84.1547 319.452 84.4727 320.346 84.4727 321.474V327H83.2847V321.474C83.2847 320.67 83.0687 320.046 82.6367 319.602C82.2167 319.158 81.6167 318.936 80.8367 318.936C79.9727 318.936 79.2707 319.212 78.7307 319.764C78.1907 320.304 77.9207 321.144 77.9207 322.284V327H76.7327V318H77.9207V319.404C78.5927 318.324 79.6007 317.784 80.9447 317.784ZM90.9278 317.784C92.2598 317.784 93.3338 318.258 94.1498 319.206C94.9778 320.142 95.3918 321.252 95.3918 322.536C95.3918 322.668 95.3798 322.854 95.3558 323.094H87.4538C87.5738 324.006 87.9578 324.732 88.6058 325.272C89.2658 325.8 90.0758 326.064 91.0358 326.064C91.7198 326.064 92.3078 325.926 92.7998 325.65C93.3038 325.362 93.6818 324.99 93.9338 324.534L94.9778 325.146C94.5818 325.782 94.0418 326.286 93.3578 326.658C92.6738 327.03 91.8938 327.216 91.0178 327.216C89.6018 327.216 88.4498 326.772 87.5618 325.884C86.6738 324.996 86.2298 323.868 86.2298 322.5C86.2298 321.156 86.6678 320.034 87.5438 319.134C88.4198 318.234 89.5478 317.784 90.9278 317.784ZM90.9278 318.936C89.9918 318.936 89.2058 319.218 88.5698 319.782C87.9458 320.334 87.5738 321.054 87.4538 321.942H94.1678C94.0478 320.994 93.6818 320.256 93.0698 319.728C92.4578 319.2 91.7438 318.936 90.9278 318.936ZM98.4695 319.494C99.0215 318.402 99.9695 317.856 101.313 317.856V319.008C100.497 319.008 99.8195 319.248 99.2795 319.728C98.7395 320.208 98.4695 320.964 98.4695 321.996V327H97.2815V318H98.4695V319.494ZM111.636 327.216C110.28 327.216 109.152 326.766 108.252 325.866C107.352 324.954 106.902 323.832 106.902 322.5C106.902 321.168 107.352 320.052 108.252 319.152C109.152 318.24 110.28 317.784 111.636 317.784C112.524 317.784 113.322 318 114.03 318.432C114.738 318.852 115.254 319.422 115.578 320.142L114.606 320.7C114.366 320.16 113.976 319.734 113.436 319.422C112.908 319.098 112.308 318.936 111.636 318.936C110.64 318.936 109.8 319.284 109.116 319.98C108.432 320.664 108.09 321.504 108.09 322.5C108.09 323.496 108.432 324.342 109.116 325.038C109.8 325.722 110.64 326.064 111.636 326.064C112.308 326.064 112.908 325.908 113.436 325.596C113.964 325.272 114.378 324.84 114.678 324.3L115.668 324.876C115.296 325.596 114.75 326.166 114.03 326.586C113.31 327.006 112.512 327.216 111.636 327.216ZM121.585 317.784C122.677 317.784 123.535 318.12 124.159 318.792C124.795 319.452 125.113 320.346 125.113 321.474V327H123.925V321.474C123.925 320.67 123.709 320.046 123.277 319.602C122.857 319.158 122.257 318.936 121.477 318.936C120.613 318.936 119.911 319.212 119.371 319.764C118.831 320.304 118.561 321.144 118.561 322.284V327H117.373V314.4H118.561V319.404C119.233 318.324 120.241 317.784 121.585 317.784ZM131.568 317.784C132.9 317.784 133.974 318.258 134.79 319.206C135.618 320.142 136.032 321.252 136.032 322.536C136.032 322.668 136.02 322.854 135.996 323.094H128.094C128.214 324.006 128.598 324.732 129.246 325.272C129.906 325.8 130.716 326.064 131.676 326.064C132.36 326.064 132.948 325.926 133.44 325.65C133.944 325.362 134.322 324.99 134.574 324.534L135.618 325.146C135.222 325.782 134.682 326.286 133.998 326.658C133.314 327.03 132.534 327.216 131.658 327.216C130.242 327.216 129.09 326.772 128.202 325.884C127.314 324.996 126.87 323.868 126.87 322.5C126.87 321.156 127.308 320.034 128.184 319.134C129.06 318.234 130.188 317.784 131.568 317.784ZM131.568 318.936C130.632 318.936 129.846 319.218 129.21 319.782C128.586 320.334 128.214 321.054 128.094 321.942H134.808C134.688 320.994 134.322 320.256 133.71 319.728C133.098 319.2 132.384 318.936 131.568 318.936ZM145.662 318H146.85V327H145.662V325.236C144.834 326.556 143.622 327.216 142.026 327.216C140.742 327.216 139.644 326.76 138.732 325.848C137.832 324.936 137.382 323.82 137.382 322.5C137.382 321.18 137.832 320.064 138.732 319.152C139.644 318.24 140.742 317.784 142.026 317.784C143.622 317.784 144.834 318.444 145.662 319.764V318ZM139.596 325.038C140.28 325.722 141.12 326.064 142.116 326.064C143.112 326.064 143.952 325.722 144.636 325.038C145.32 324.342 145.662 323.496 145.662 322.5C145.662 321.504 145.32 320.664 144.636 319.98C143.952 319.284 143.112 318.936 142.116 318.936C141.12 318.936 140.28 319.284 139.596 319.98C138.912 320.664 138.57 321.504 138.57 322.5C138.57 323.496 138.912 324.342 139.596 325.038ZM154.135 319.152H151.543V324.606C151.543 325.098 151.639 325.452 151.831 325.668C152.023 325.872 152.311 325.98 152.695 325.992C153.079 325.992 153.559 325.98 154.135 325.956V327C152.875 327.192 151.927 327.102 151.291 326.73C150.667 326.358 150.355 325.65 150.355 324.606V319.152H148.465V318H150.355V315.84L151.543 315.48V318H154.135V319.152ZM157.321 315.84C157.153 316.008 156.949 316.092 156.709 316.092C156.469 316.092 156.265 316.008 156.097 315.84C155.929 315.672 155.845 315.468 155.845 315.228C155.845 314.988 155.929 314.784 156.097 314.616C156.265 314.448 156.469 314.364 156.709 314.364C156.949 314.364 157.153 314.448 157.321 314.616C157.489 314.784 157.573 314.988 157.573 315.228C157.573 315.468 157.489 315.672 157.321 315.84ZM156.115 327V318H157.303V327H156.115ZM164.036 317.784C165.128 317.784 165.986 318.12 166.61 318.792C167.246 319.452 167.564 320.346 167.564 321.474V327H166.376V321.474C166.376 320.67 166.16 320.046 165.728 319.602C165.308 319.158 164.708 318.936 163.928 318.936C163.064 318.936 162.362 319.212 161.822 319.764C161.282 320.304 161.012 321.144 161.012 322.284V327H159.824V318H161.012V319.404C161.684 318.324 162.692 317.784 164.036 317.784ZM177.602 318H178.79V326.64C178.79 327.936 178.346 328.956 177.458 329.7C176.57 330.444 175.508 330.816 174.272 330.816C172.16 330.816 170.738 330.084 170.006 328.62L171.05 328.026C171.59 329.118 172.664 329.664 174.272 329.664C175.304 329.664 176.114 329.388 176.702 328.836C177.302 328.296 177.602 327.564 177.602 326.64V325.236C176.774 326.556 175.562 327.216 173.966 327.216C172.682 327.216 171.584 326.76 170.672 325.848C169.772 324.936 169.322 323.82 169.322 322.5C169.322 321.18 169.772 320.064 170.672 319.152C171.584 318.24 172.682 317.784 173.966 317.784C175.562 317.784 176.774 318.444 177.602 319.764V318ZM171.536 325.038C172.22 325.722 173.06 326.064 174.056 326.064C175.052 326.064 175.892 325.722 176.576 325.038C177.26 324.342 177.602 323.496 177.602 322.5C177.602 321.504 177.26 320.664 176.576 319.98C175.892 319.284 175.052 318.936 174.056 318.936C173.06 318.936 172.22 319.284 171.536 319.98C170.852 320.664 170.51 321.504 170.51 322.5C170.51 323.496 170.852 324.342 171.536 325.038ZM193.347 325.866C192.435 326.766 191.319 327.216 189.999 327.216C188.679 327.216 187.557 326.766 186.633 325.866C185.721 324.954 185.265 323.832 185.265 322.5C185.265 321.168 185.721 320.052 186.633 319.152C187.557 318.24 188.679 317.784 189.999 317.784C191.319 317.784 192.435 318.24 193.347 319.152C194.271 320.052 194.733 321.168 194.733 322.5C194.733 323.832 194.271 324.954 193.347 325.866ZM187.479 325.038C188.163 325.722 189.003 326.064 189.999 326.064C190.995 326.064 191.835 325.722 192.519 325.038C193.203 324.342 193.545 323.496 193.545 322.5C193.545 321.504 193.203 320.664 192.519 319.98C191.835 319.284 190.995 318.936 189.999 318.936C189.003 318.936 188.163 319.284 187.479 319.98C186.795 320.664 186.453 321.504 186.453 322.5C186.453 323.496 186.795 324.342 187.479 325.038ZM197.909 319.494C198.461 318.402 199.409 317.856 200.753 317.856V319.008C199.937 319.008 199.259 319.248 198.719 319.728C198.179 320.208 197.909 320.964 197.909 321.996V327H196.721V318H197.909V319.494ZM206.881 327V313.86H208.069V327H206.881ZM217.07 318H218.33L214.478 327.828C214.13 328.716 213.632 329.412 212.984 329.916C212.348 330.432 211.634 330.66 210.842 330.6V329.484C211.922 329.604 212.744 328.98 213.308 327.612L213.542 327.054L209.51 318H210.77L214.154 325.542L217.07 318ZM220.972 315.84C220.804 316.008 220.6 316.092 220.36 316.092C220.12 316.092 219.916 316.008 219.748 315.84C219.58 315.672 219.496 315.468 219.496 315.228C219.496 314.988 219.58 314.784 219.748 314.616C219.916 314.448 220.12 314.364 220.36 314.364C220.6 314.364 220.804 314.448 220.972 314.616C221.14 314.784 221.224 314.988 221.224 315.228C221.224 315.468 221.14 315.672 220.972 315.84ZM219.766 327V318H220.954V327H219.766ZM227.687 317.784C228.779 317.784 229.637 318.12 230.261 318.792C230.897 319.452 231.215 320.346 231.215 321.474V327H230.027V321.474C230.027 320.67 229.811 320.046 229.379 319.602C228.959 319.158 228.359 318.936 227.579 318.936C226.715 318.936 226.013 319.212 225.473 319.764C224.933 320.304 224.663 321.144 224.663 322.284V327H223.475V318H224.663V319.404C225.335 318.324 226.343 317.784 227.687 317.784ZM241.252 318H242.44V326.64C242.44 327.936 241.996 328.956 241.108 329.7C240.22 330.444 239.158 330.816 237.922 330.816C235.81 330.816 234.388 330.084 233.656 328.62L234.7 328.026C235.24 329.118 236.314 329.664 237.922 329.664C238.954 329.664 239.764 329.388 240.352 328.836C240.952 328.296 241.252 327.564 241.252 326.64V325.236C240.424 326.556 239.212 327.216 237.616 327.216C236.332 327.216 235.234 326.76 234.322 325.848C233.422 324.936 232.972 323.82 232.972 322.5C232.972 321.18 233.422 320.064 234.322 319.152C235.234 318.24 236.332 317.784 237.616 317.784C239.212 317.784 240.424 318.444 241.252 319.764V318ZM235.186 325.038C235.87 325.722 236.71 326.064 237.706 326.064C238.702 326.064 239.542 325.722 240.226 325.038C240.91 324.342 241.252 323.496 241.252 322.5C241.252 321.504 240.91 320.664 240.226 319.98C239.542 319.284 238.702 318.936 237.706 318.936C236.71 318.936 235.87 319.284 235.186 319.98C234.502 320.664 234.16 321.504 234.16 322.5C234.16 323.496 234.502 324.342 235.186 325.038ZM247.475 323.58C247.475 322.992 247.595 322.458 247.835 321.978C248.075 321.486 248.363 321.072 248.699 320.736C249.035 320.4 249.371 320.076 249.707 319.764C250.043 319.452 250.331 319.11 250.571 318.738C250.811 318.354 250.931 317.946 250.931 317.514C250.931 316.818 250.691 316.296 250.211 315.948C249.743 315.588 249.137 315.408 248.393 315.408C246.917 315.408 246.005 316.014 245.657 317.226L244.595 316.632C244.871 315.828 245.351 315.222 246.035 314.814C246.731 314.394 247.517 314.184 248.393 314.184C249.449 314.184 250.343 314.478 251.075 315.066C251.819 315.642 252.191 316.458 252.191 317.514C252.191 318.03 252.071 318.51 251.831 318.954C251.591 319.398 251.303 319.788 250.967 320.124C250.631 320.448 250.295 320.772 249.959 321.096C249.623 321.42 249.335 321.798 249.095 322.23C248.855 322.65 248.735 323.1 248.735 323.58H247.475ZM248.807 326.892C248.615 327.084 248.381 327.18 248.105 327.18C247.829 327.18 247.595 327.084 247.403 326.892C247.211 326.7 247.115 326.466 247.115 326.19C247.115 325.914 247.211 325.68 247.403 325.488C247.595 325.296 247.829 325.2 248.105 325.2C248.381 325.2 248.615 325.296 248.807 325.488C248.999 325.68 249.095 325.914 249.095 326.19C249.095 326.466 248.999 326.7 248.807 326.892Z" fill="#FFC2D7"></path> </svg> 