<?xml version="1.0" encoding="UTF-8"?> <svg xmlns="http://www.w3.org/2000/svg" width="400" height="600" viewBox="0 0 400 600" fill="none"> <rect width="400" height="600" rx="20" fill="#7F3CC9"></rect> <path d="M49.504 488.4V490.776H46.102V501H43.618V490.776H40.234V488.4H49.504ZM56.8159 499.884C55.8919 500.796 54.7639 501.252 53.4319 501.252C52.0999 501.252 50.9719 500.796 50.0479 499.884C49.1359 498.96 48.6799 497.832 48.6799 496.5C48.6799 495.168 49.1359 494.046 50.0479 493.134C50.9719 492.21 52.0999 491.748 53.4319 491.748C54.7639 491.748 55.8919 492.21 56.8159 493.134C57.7399 494.046 58.2019 495.168 58.2019 496.5C58.2019 497.832 57.7399 498.96 56.8159 499.884ZM51.6859 498.282C52.1539 498.75 52.7359 498.984 53.4319 498.984C54.1279 498.984 54.7099 498.75 55.1779 498.282C55.6459 497.814 55.8799 497.22 55.8799 496.5C55.8799 495.78 55.6459 495.186 55.1779 494.718C54.7099 494.25 54.1279 494.016 53.4319 494.016C52.7359 494.016 52.1539 494.25 51.6859 494.718C51.2299 495.186 51.0019 495.78 51.0019 496.5C51.0019 497.22 51.2299 497.814 51.6859 498.282ZM71.2294 492H73.4974V500.568C73.4974 501.96 73.0354 503.022 72.1114 503.754C71.1994 504.486 70.0954 504.852 68.7994 504.852C67.8274 504.852 66.9694 504.666 66.2254 504.294C65.4934 503.922 64.9294 503.376 64.5334 502.656L66.5134 501.522C66.9694 502.362 67.7554 502.782 68.8714 502.782C69.6034 502.782 70.1794 502.59 70.5994 502.206C71.0194 501.822 71.2294 501.276 71.2294 500.568V499.596C70.5454 500.508 69.5854 500.964 68.3494 500.964C67.0774 500.964 66.0094 500.52 65.1454 499.632C64.2934 498.732 63.8674 497.64 63.8674 496.356C63.8674 495.084 64.2994 493.998 65.1634 493.098C66.0274 492.198 67.0894 491.748 68.3494 491.748C69.5854 491.748 70.5454 492.204 71.2294 493.116V492ZM66.8914 498.138C67.3714 498.594 67.9774 498.822 68.7094 498.822C69.4414 498.822 70.0414 498.594 70.5094 498.138C70.9894 497.67 71.2294 497.076 71.2294 496.356C71.2294 495.648 70.9894 495.066 70.5094 494.61C70.0414 494.142 69.4414 493.908 68.7094 493.908C67.9774 493.908 67.3714 494.142 66.8914 494.61C66.4234 495.066 66.1894 495.648 66.1894 496.356C66.1894 497.076 66.4234 497.67 66.8914 498.138ZM83.271 499.884C82.347 500.796 81.219 501.252 79.887 501.252C78.555 501.252 77.427 500.796 76.503 499.884C75.591 498.96 75.135 497.832 75.135 496.5C75.135 495.168 75.591 494.046 76.503 493.134C77.427 492.21 78.555 491.748 79.887 491.748C81.219 491.748 82.347 492.21 83.271 493.134C84.195 494.046 84.657 495.168 84.657 496.5C84.657 497.832 84.195 498.96 83.271 499.884ZM78.141 498.282C78.609 498.75 79.191 498.984 79.887 498.984C80.583 498.984 81.165 498.75 81.633 498.282C82.101 497.814 82.335 497.22 82.335 496.5C82.335 495.78 82.101 495.186 81.633 494.718C81.165 494.25 80.583 494.016 79.887 494.016C79.191 494.016 78.609 494.25 78.141 494.718C77.685 495.186 77.457 495.78 77.457 496.5C77.457 497.22 77.685 497.814 78.141 498.282ZM92.9325 494.556C92.9325 494.796 93.0885 494.994 93.4005 495.15C93.7245 495.294 94.1145 495.426 94.5705 495.546C95.0265 495.654 95.4825 495.798 95.9385 495.978C96.3945 496.146 96.7785 496.434 97.0905 496.842C97.4145 497.25 97.5765 497.76 97.5765 498.372C97.5765 499.296 97.2285 500.01 96.5325 500.514C95.8485 501.006 94.9905 501.252 93.9585 501.252C92.1105 501.252 90.8505 500.538 90.1785 499.11L92.1945 497.976C92.4585 498.756 93.0465 499.146 93.9585 499.146C94.7865 499.146 95.2005 498.888 95.2005 498.372C95.2005 498.132 95.0385 497.94 94.7145 497.796C94.4025 497.64 94.0185 497.502 93.5625 497.382C93.1065 497.262 92.6505 497.112 92.1945 496.932C91.7385 496.752 91.3485 496.47 91.0245 496.086C90.7125 495.69 90.5565 495.198 90.5565 494.61C90.5565 493.722 90.8805 493.026 91.5285 492.522C92.1885 492.006 93.0045 491.748 93.9765 491.748C94.7085 491.748 95.3745 491.916 95.9745 492.252C96.5745 492.576 97.0485 493.044 97.3965 493.656L95.4165 494.736C95.1285 494.124 94.6485 493.818 93.9765 493.818C93.6765 493.818 93.4245 493.884 93.2205 494.016C93.0285 494.148 92.9325 494.328 92.9325 494.556ZM107.368 501H104.668L101.392 496.914V501H99.0698V488.4H101.392V495.96L104.488 492H107.26L103.642 496.446L107.368 501ZM109.679 490.92C109.295 490.92 108.959 490.782 108.671 490.506C108.395 490.218 108.257 489.882 108.257 489.498C108.257 489.114 108.395 488.778 108.671 488.49C108.959 488.202 109.295 488.058 109.679 488.058C110.075 488.058 110.411 488.202 110.687 488.49C110.975 488.778 111.119 489.114 111.119 489.498C111.119 489.882 110.975 490.218 110.687 490.506C110.411 490.782 110.075 490.92 109.679 490.92ZM108.527 501V492H110.849V501H108.527ZM117.978 491.748C118.962 491.748 119.772 492.078 120.408 492.738C121.056 493.398 121.38 494.31 121.38 495.474V501H119.058V495.762C119.058 495.162 118.896 494.706 118.572 494.394C118.248 494.07 117.816 493.908 117.276 493.908C116.676 493.908 116.196 494.094 115.836 494.466C115.476 494.838 115.296 495.396 115.296 496.14V501H112.974V492H115.296V493.008C115.86 492.168 116.754 491.748 117.978 491.748ZM128.367 491.748C129.351 491.748 130.161 492.078 130.797 492.738C131.445 493.398 131.769 494.31 131.769 495.474V501H129.447V495.762C129.447 495.162 129.285 494.706 128.961 494.394C128.637 494.07 128.205 493.908 127.665 493.908C127.065 493.908 126.585 494.094 126.225 494.466C125.865 494.838 125.685 495.396 125.685 496.14V501H123.363V492H125.685V493.008C126.249 492.168 127.143 491.748 128.367 491.748ZM139.426 492H141.91L138.634 501C138.166 502.296 137.542 503.232 136.762 503.808C135.994 504.396 135.034 504.66 133.882 504.6V502.44C134.506 502.452 134.998 502.32 135.358 502.044C135.73 501.768 136.024 501.324 136.24 500.712L132.55 492H135.088L137.428 498.048L139.426 492ZM154.337 488.4H156.659V501H154.337V499.938C153.653 500.814 152.681 501.252 151.421 501.252C150.209 501.252 149.171 500.796 148.307 499.884C147.455 498.96 147.029 497.832 147.029 496.5C147.029 495.168 147.455 494.046 148.307 493.134C149.171 492.21 150.209 491.748 151.421 491.748C152.681 491.748 153.653 492.186 154.337 493.062V488.4ZM150.053 498.336C150.533 498.804 151.133 499.038 151.853 499.038C152.573 499.038 153.167 498.804 153.635 498.336C154.103 497.856 154.337 497.244 154.337 496.5C154.337 495.756 154.103 495.15 153.635 494.682C153.167 494.202 152.573 493.962 151.853 493.962C151.133 493.962 150.533 494.202 150.053 494.682C149.585 495.15 149.351 495.756 149.351 496.5C149.351 497.244 149.585 497.856 150.053 498.336ZM159.935 490.92C159.551 490.92 159.215 490.782 158.927 490.506C158.651 490.218 158.513 489.882 158.513 489.498C158.513 489.114 158.651 488.778 158.927 488.49C159.215 488.202 159.551 488.058 159.935 488.058C160.331 488.058 160.667 488.202 160.943 488.49C161.231 488.778 161.375 489.114 161.375 489.498C161.375 489.882 161.231 490.218 160.943 490.506C160.667 490.782 160.331 490.92 159.935 490.92ZM158.783 501V492H161.105V501H158.783ZM168.468 491.748C169.68 491.748 170.712 492.21 171.564 493.134C172.428 494.046 172.86 495.168 172.86 496.5C172.86 497.832 172.428 498.96 171.564 499.884C170.712 500.796 169.68 501.252 168.468 501.252C167.208 501.252 166.236 500.814 165.552 499.938V504.6H163.23V492H165.552V493.062C166.236 492.186 167.208 491.748 168.468 491.748ZM166.254 498.336C166.722 498.804 167.316 499.038 168.036 499.038C168.756 499.038 169.35 498.804 169.818 498.336C170.298 497.856 170.538 497.244 170.538 496.5C170.538 495.756 170.298 495.15 169.818 494.682C169.35 494.202 168.756 493.962 168.036 493.962C167.316 493.962 166.722 494.202 166.254 494.682C165.786 495.15 165.552 495.756 165.552 496.5C165.552 497.244 165.786 497.856 166.254 498.336ZM179.736 491.748C180.948 491.748 181.98 492.21 182.832 493.134C183.696 494.046 184.128 495.168 184.128 496.5C184.128 497.832 183.696 498.96 182.832 499.884C181.98 500.796 180.948 501.252 179.736 501.252C178.476 501.252 177.504 500.814 176.82 499.938V504.6H174.498V492H176.82V493.062C177.504 492.186 178.476 491.748 179.736 491.748ZM177.522 498.336C177.99 498.804 178.584 499.038 179.304 499.038C180.024 499.038 180.618 498.804 181.086 498.336C181.566 497.856 181.806 497.244 181.806 496.5C181.806 495.756 181.566 495.15 181.086 494.682C180.618 494.202 180.024 493.962 179.304 493.962C178.584 493.962 177.99 494.202 177.522 494.682C177.054 495.15 176.82 495.756 176.82 496.5C176.82 497.244 177.054 497.856 177.522 498.336ZM186.917 490.92C186.533 490.92 186.197 490.782 185.909 490.506C185.633 490.218 185.495 489.882 185.495 489.498C185.495 489.114 185.633 488.778 185.909 488.49C186.197 488.202 186.533 488.058 186.917 488.058C187.313 488.058 187.649 488.202 187.925 488.49C188.213 488.778 188.357 489.114 188.357 489.498C188.357 489.882 188.213 490.218 187.925 490.506C187.649 490.782 187.313 490.92 186.917 490.92ZM185.765 501V492H188.087V501H185.765ZM195.216 491.748C196.2 491.748 197.01 492.078 197.646 492.738C198.294 493.398 198.618 494.31 198.618 495.474V501H196.296V495.762C196.296 495.162 196.134 494.706 195.81 494.394C195.486 494.07 195.054 493.908 194.514 493.908C193.914 493.908 193.434 494.094 193.074 494.466C192.714 494.838 192.534 495.396 192.534 496.14V501H190.212V492H192.534V493.008C193.098 492.168 193.992 491.748 195.216 491.748ZM207.495 492H209.763V500.568C209.763 501.96 209.301 503.022 208.377 503.754C207.465 504.486 206.361 504.852 205.065 504.852C204.093 504.852 203.235 504.666 202.491 504.294C201.759 503.922 201.195 503.376 200.799 502.656L202.779 501.522C203.235 502.362 204.021 502.782 205.137 502.782C205.869 502.782 206.445 502.59 206.865 502.206C207.285 501.822 207.495 501.276 207.495 500.568V499.596C206.811 500.508 205.851 500.964 204.615 500.964C203.343 500.964 202.275 500.52 201.411 499.632C200.559 498.732 200.133 497.64 200.133 496.356C200.133 495.084 200.565 493.998 201.429 493.098C202.293 492.198 203.355 491.748 204.615 491.748C205.851 491.748 206.811 492.204 207.495 493.116V492ZM203.157 498.138C203.637 498.594 204.243 498.822 204.975 498.822C205.707 498.822 206.307 498.594 206.775 498.138C207.255 497.67 207.495 497.076 207.495 496.356C207.495 495.648 207.255 495.066 206.775 494.61C206.307 494.142 205.707 493.908 204.975 493.908C204.243 493.908 203.637 494.142 203.157 494.61C202.689 495.066 202.455 495.648 202.455 496.356C202.455 497.076 202.689 497.67 203.157 498.138ZM216.747 496.014V494.862H225.747V496.014H216.747ZM240.221 501H238.637L234.137 496.662V501H232.949V492H234.137V495.978L238.421 492H240.041L235.397 496.32L240.221 501ZM247.972 492H249.232L245.38 501.828C245.032 502.716 244.534 503.412 243.886 503.916C243.25 504.432 242.536 504.66 241.744 504.6V503.484C242.824 503.604 243.646 502.98 244.21 501.612L244.444 501.054L240.412 492H241.672L245.056 499.542L247.972 492ZM258.228 492V501H257.04V493.152H251.856V501H250.668V492H258.228ZM268.48 492H269.668V501H268.48V499.236C267.652 500.556 266.44 501.216 264.844 501.216C263.56 501.216 262.462 500.76 261.55 499.848C260.65 498.936 260.2 497.82 260.2 496.5C260.2 495.18 260.65 494.064 261.55 493.152C262.462 492.24 263.56 491.784 264.844 491.784C266.44 491.784 267.652 492.444 268.48 493.764V492ZM262.414 499.038C263.098 499.722 263.938 500.064 264.934 500.064C265.93 500.064 266.77 499.722 267.454 499.038C268.138 498.342 268.48 497.496 268.48 496.5C268.48 495.504 268.138 494.664 267.454 493.98C266.77 493.284 265.93 492.936 264.934 492.936C263.938 492.936 263.098 493.284 262.414 493.98C261.73 494.664 261.388 495.504 261.388 496.5C261.388 497.496 261.73 498.342 262.414 499.038ZM278.664 492V493.152H275.478V501H274.29V493.152H271.104V492H278.664ZM283.766 495.42C284.606 495.42 285.314 495.684 285.89 496.212C286.478 496.728 286.772 497.394 286.772 498.21C286.772 499.026 286.478 499.698 285.89 500.226C285.314 500.742 284.606 501 283.766 501H280.112V492H281.3V495.42H283.766ZM283.766 499.848C284.27 499.848 284.696 499.698 285.044 499.398C285.404 499.098 285.584 498.702 285.584 498.21C285.584 497.718 285.404 497.322 285.044 497.022C284.696 496.722 284.27 496.572 283.766 496.572H281.3V499.848H283.766ZM292.673 501.216C291.317 501.216 290.189 500.766 289.289 499.866C288.389 498.954 287.939 497.832 287.939 496.5C287.939 495.168 288.389 494.052 289.289 493.152C290.189 492.24 291.317 491.784 292.673 491.784C293.561 491.784 294.359 492 295.067 492.432C295.775 492.852 296.291 493.422 296.615 494.142L295.643 494.7C295.403 494.16 295.013 493.734 294.473 493.422C293.945 493.098 293.345 492.936 292.673 492.936C291.677 492.936 290.837 493.284 290.153 493.98C289.469 494.664 289.127 495.504 289.127 496.5C289.127 497.496 289.469 498.342 290.153 499.038C290.837 499.722 291.677 500.064 292.673 500.064C293.345 500.064 293.945 499.908 294.473 499.596C295.001 499.272 295.415 498.84 295.715 498.3L296.705 498.876C296.333 499.596 295.787 500.166 295.067 500.586C294.347 501.006 293.549 501.216 292.673 501.216ZM304.715 492V501H303.527V497.544H301.979L299.207 501H297.695L300.539 497.508C299.819 497.4 299.225 497.1 298.757 496.608C298.289 496.116 298.055 495.51 298.055 494.79C298.055 493.974 298.343 493.308 298.919 492.792C299.507 492.264 300.221 492 301.061 492H304.715ZM301.061 496.428H303.527V493.152H301.061C300.557 493.152 300.125 493.302 299.765 493.602C299.417 493.902 299.243 494.298 299.243 494.79C299.243 495.282 299.417 495.678 299.765 495.978C300.125 496.278 300.557 496.428 301.061 496.428ZM47.02 515V516.152H42.448V524H41.26V515H47.02ZM55.6575 522.866C54.7455 523.766 53.6295 524.216 52.3095 524.216C50.9895 524.216 49.8675 523.766 48.9435 522.866C48.0315 521.954 47.5755 520.832 47.5755 519.5C47.5755 518.168 48.0315 517.052 48.9435 516.152C49.8675 515.24 50.9895 514.784 52.3095 514.784C53.6295 514.784 54.7455 515.24 55.6575 516.152C56.5815 517.052 57.0435 518.168 57.0435 519.5C57.0435 520.832 56.5815 521.954 55.6575 522.866ZM49.7895 522.038C50.4735 522.722 51.3135 523.064 52.3095 523.064C53.3055 523.064 54.1455 522.722 54.8295 522.038C55.5135 521.342 55.8555 520.496 55.8555 519.5C55.8555 518.504 55.5135 517.664 54.8295 516.98C54.1455 516.284 53.3055 515.936 52.3095 515.936C51.3135 515.936 50.4735 516.284 49.7895 516.98C49.1055 517.664 48.7635 518.504 48.7635 519.5C48.7635 520.496 49.1055 521.342 49.7895 522.038ZM66.0599 515V524H64.8719V516.152H60.8039V520.166C60.8039 521.666 60.5159 522.698 59.9399 523.262C59.3759 523.826 58.5959 524.072 57.5999 524V522.884C58.2839 522.956 58.7879 522.794 59.1119 522.398C59.4479 522.002 59.6159 521.258 59.6159 520.166V515H66.0599ZM72.2304 518.42C73.0704 518.42 73.7784 518.684 74.3544 519.212C74.9424 519.728 75.2364 520.394 75.2364 521.21C75.2364 522.026 74.9424 522.698 74.3544 523.226C73.7784 523.742 73.0704 524 72.2304 524H68.5764V515H69.7644V518.42H72.2304ZM76.4964 515H77.6844V524H76.4964V515ZM72.2304 522.848C72.7344 522.848 73.1604 522.698 73.5084 522.398C73.8684 522.098 74.0484 521.702 74.0484 521.21C74.0484 520.718 73.8684 520.322 73.5084 520.022C73.1604 519.722 72.7344 519.572 72.2304 519.572H69.7644V522.848H72.2304ZM91.0851 515H92.2731V524H80.2131V515H81.4011V522.848H85.6491V515H86.8371V522.848H91.0851V515ZM102.327 522.866C101.415 523.766 100.299 524.216 98.9794 524.216C97.6594 524.216 96.5374 523.766 95.6134 522.866C94.7014 521.954 94.2454 520.832 94.2454 519.5C94.2454 518.168 94.7014 517.052 95.6134 516.152C96.5374 515.24 97.6594 514.784 98.9794 514.784C100.299 514.784 101.415 515.24 102.327 516.152C103.251 517.052 103.713 518.168 103.713 519.5C103.713 520.832 103.251 521.954 102.327 522.866ZM96.4594 522.038C97.1434 522.722 97.9834 523.064 98.9794 523.064C99.9754 523.064 100.815 522.722 101.499 522.038C102.183 521.342 102.525 520.496 102.525 519.5C102.525 518.504 102.183 517.664 101.499 516.98C100.815 516.284 99.9754 515.936 98.9794 515.936C97.9834 515.936 97.1434 516.284 96.4594 516.98C95.7754 517.664 95.4334 518.504 95.4334 519.5C95.4334 520.496 95.7754 521.342 96.4594 522.038ZM114.521 515V524H113.333V516.818L110.183 521.93H110.039L106.889 516.818V524H105.701V515H107.069L110.111 519.932L113.153 515H114.521Z" fill="#E6D0FE" fill-opacity="0.6"></path> <path d="M47.296 84.136L60.8 101H65.952V78.6H61.536V95.464L48.032 78.6H42.88V101H47.296V84.136ZM80.4918 97.768C77.4838 97.768 75.1478 96.456 74.5398 94.12H88.2998C88.4918 93.384 88.5878 92.648 88.5878 91.944C88.5878 87.624 84.9398 84.456 80.0758 84.456C74.7318 84.456 70.1878 87.656 70.1878 93C70.1878 97.8 74.1238 101.576 80.0758 101.576C83.0198 101.576 86.0278 100.584 88.1718 99.496L86.9237 96.168C84.6518 97.352 82.6678 97.768 80.4918 97.768ZM79.8198 88.008C82.3158 88.008 83.9158 89.128 84.3318 91.016H74.6358C75.2758 89.064 77.0677 88.008 79.8198 88.008ZM94.39 85H89.75L97.302 101H101.942L109.526 85H104.822L99.638 96.232L94.39 85ZM121.179 97.768C118.171 97.768 115.835 96.456 115.227 94.12H128.987C129.179 93.384 129.275 92.648 129.275 91.944C129.275 87.624 125.627 84.456 120.763 84.456C115.419 84.456 110.875 87.656 110.875 93C110.875 97.8 114.811 101.576 120.763 101.576C123.707 101.576 126.715 100.584 128.859 99.496L127.611 96.168C125.339 97.352 123.355 97.768 121.179 97.768ZM120.507 88.008C123.003 88.008 124.603 89.128 125.019 91.016H115.323C115.963 89.064 117.755 88.008 120.507 88.008ZM142.982 84.456C140.198 84.456 137.99 86.824 137.062 88.552V85H132.838V101H137.062V93.064C137.062 90.12 139.91 88.392 142.566 88.392C143.174 88.392 144.006 88.584 144.774 88.936L145.67 85.096C144.87 84.712 143.878 84.456 142.982 84.456ZM166.436 88.424C168.964 88.424 170.276 89.992 170.276 92.264V101H174.5V91.752C174.5 87.4 172.004 84.52 167.652 84.52C164.612 84.52 162.244 86.472 161.124 88.552V77.288H156.9V101H161.124V93.064C161.124 89.896 163.78 88.424 166.436 88.424ZM184.75 91.88C181.454 91.88 178.19 93.352 178.19 96.776C178.19 99.656 180.43 101.64 183.438 101.64C186.158 101.64 188.59 100.168 190.126 98.344C190.19 100.136 191.086 101.64 193.23 101.64C194.542 101.64 196.462 101 198.222 100.04L197.358 96.776C196.43 97.256 195.598 97.608 195.118 97.608C194.67 97.608 194.35 97.32 194.35 96.84V91.08C194.35 86.696 191.79 84.36 187.406 84.36C184.878 84.36 181.518 85.352 179.534 85.992L180.59 89.832C182.926 88.968 185.358 88.232 187.022 88.232C189.038 88.232 190.126 89.352 190.126 91.016V92.872C188.75 92.392 186.478 91.88 184.75 91.88ZM184.814 98.024C183.47 98.024 182.51 97.48 182.51 96.424C182.51 95.272 183.566 94.6 184.974 94.6C186.51 94.6 188.366 94.76 190.126 95.08V95.688C188.622 97.16 186.414 98.024 184.814 98.024ZM202.859 85H198.219L205.771 101H210.411L217.995 85H213.291L208.107 96.232L202.859 85ZM229.648 97.768C226.64 97.768 224.304 96.456 223.696 94.12H237.456C237.648 93.384 237.744 92.648 237.744 91.944C237.744 87.624 234.096 84.456 229.232 84.456C223.888 84.456 219.344 87.656 219.344 93C219.344 97.8 223.28 101.576 229.232 101.576C232.176 101.576 235.184 100.584 237.328 99.496L236.08 96.168C233.808 97.352 231.824 97.768 229.648 97.768ZM228.976 88.008C231.472 88.008 233.072 89.128 233.488 91.016H223.792C224.432 89.064 226.224 88.008 228.976 88.008ZM255.265 78.6H250.849V101H255.265V78.6ZM278.867 97.768C275.859 97.768 273.523 96.456 272.915 94.12H286.675C286.867 93.384 286.963 92.648 286.963 91.944C286.963 87.624 283.315 84.456 278.451 84.456C273.107 84.456 268.563 87.656 268.563 93C268.563 97.8 272.499 101.576 278.451 101.576C281.395 101.576 284.403 100.584 286.547 99.496L285.299 96.168C283.027 97.352 281.043 97.768 278.867 97.768ZM278.195 88.008C280.691 88.008 282.291 89.128 282.707 91.016H273.011C273.651 89.064 275.443 88.008 278.195 88.008ZM292.765 85H288.125L295.677 101H300.317L307.901 85H303.197L298.013 96.232L292.765 85ZM319.554 97.768C316.546 97.768 314.21 96.456 313.602 94.12H327.362C327.554 93.384 327.65 92.648 327.65 91.944C327.65 87.624 324.002 84.456 319.138 84.456C313.794 84.456 309.25 87.656 309.25 93C309.25 97.8 313.186 101.576 319.138 101.576C322.082 101.576 325.09 100.584 327.234 99.496L325.986 96.168C323.714 97.352 321.73 97.768 319.554 97.768ZM318.882 88.008C321.378 88.008 322.978 89.128 323.394 91.016H313.698C314.338 89.064 316.13 88.008 318.882 88.008ZM341.357 84.456C338.573 84.456 336.365 86.824 335.437 88.552V85H331.213V101H335.437V93.064C335.437 90.12 338.285 88.392 340.941 88.392C341.549 88.392 342.381 88.584 343.149 88.936L344.045 85.096C343.245 84.712 342.253 84.456 341.357 84.456ZM48.096 138.888C47.04 138.888 46.496 138.504 46.496 137.96C46.496 137.512 46.912 137.192 47.296 137.096C48.032 137.224 48.832 137.288 49.632 137.288C54.464 137.288 57.984 134.536 57.984 130.888C57.984 129.8 57.696 128.84 57.248 128.04C58.016 127.656 58.912 127.432 60.032 127.304L59.264 123.368C57.216 123.72 55.616 124.488 54.4 125.48C53.024 124.808 51.36 124.456 49.632 124.456C45.248 124.456 41.312 126.664 41.312 130.888C41.312 132.616 42.688 134.376 44.16 135.336C43.36 135.848 42.432 136.68 42.432 137.736C42.432 138.76 43.104 139.88 43.968 140.296C42.368 140.712 40.672 142.28 40.672 143.976C40.672 147.336 44.448 149.096 50.272 149.096C55.744 149.096 59.776 147.304 59.776 143.656C59.776 140.328 55.744 138.888 50.272 138.888H48.096ZM49.6 127.944C51.872 127.944 53.6 128.936 53.6 130.76C53.6 132.264 52.032 133.512 49.6 133.512C47.296 133.512 45.568 132.36 45.568 130.76C45.568 128.936 47.296 127.944 49.6 127.944ZM50.208 142.472C53.504 142.472 55.68 142.92 55.68 144.008C55.68 145.192 53.504 145.64 50.208 145.64C46.688 145.64 44.736 145.128 44.736 143.976C44.736 143.336 45.344 142.792 46.048 142.504C46.592 142.472 49.568 142.472 50.208 142.472ZM71.4835 124.456C66.1395 124.456 61.5315 127.496 61.5315 132.84C61.5315 137.64 65.6915 141.576 71.4835 141.576C77.2755 141.576 81.4355 137.64 81.4355 132.84C81.4355 127.496 76.8275 124.456 71.4835 124.456ZM71.4835 128.136C74.8115 128.136 77.1795 129.864 77.1795 132.84C77.1795 135.528 74.6515 137.928 71.4835 137.928C68.3155 137.928 65.7875 135.528 65.7875 132.84C65.7875 129.864 68.1555 128.136 71.4835 128.136ZM94.7173 128.424C97.2453 128.424 98.5573 129.992 98.5573 132.264V141H102.781V131.752C102.781 127.4 100.285 124.52 95.9333 124.52C92.8933 124.52 90.5253 126.472 89.4053 128.552V125H85.1813V141H89.4053V133.064C89.4053 129.896 92.0613 128.424 94.7173 128.424ZM116.679 137.768C113.671 137.768 111.335 136.456 110.727 134.12H124.487C124.679 133.384 124.775 132.648 124.775 131.944C124.775 127.624 121.127 124.456 116.263 124.456C110.919 124.456 106.375 127.656 106.375 133C106.375 137.8 110.311 141.576 116.263 141.576C119.207 141.576 122.215 140.584 124.359 139.496L123.111 136.168C120.839 137.352 118.855 137.768 116.679 137.768ZM116.007 128.008C118.503 128.008 120.103 129.128 120.519 131.016H110.823C111.463 129.064 113.255 128.008 116.007 128.008ZM151.544 125.576C149.656 124.936 146.68 124.392 144.152 124.392C139.608 124.392 136.376 126.376 136.376 129.512C136.376 135.752 148.28 133.64 148.28 136.168C148.28 137.288 146.68 137.928 144.376 137.928C141.912 137.928 139.416 137.16 137.304 136.232L136.056 139.56C138.232 140.712 141.208 141.64 144.216 141.64C148.12 141.64 152.44 139.624 152.44 136.04C152.44 129.8 140.536 132.008 140.536 129.352C140.536 128.392 142.2 128.072 144.312 128.072C146.36 128.072 148.344 128.488 150.424 129.288L151.544 125.576ZM160.279 117H156.119V141H160.279V117ZM166.135 139.848C166.999 140.872 168.023 141.416 169.111 141.416C170.391 141.416 171.767 140.808 173.239 140.168L172.247 136.744C171.479 137.064 170.775 137.416 170.135 137.416C169.783 137.416 169.463 137.32 169.175 137.032L165.431 133.16L173.143 125H167.735L160.503 133.288L166.135 139.848ZM180.655 125H176.495V141H180.655V125ZM176.047 120.392C176.047 121.8 177.167 122.92 178.575 122.92C179.983 122.92 181.103 121.8 181.103 120.392C181.103 119.016 179.983 117.896 178.575 117.896C177.167 117.896 176.047 119.016 176.047 120.392ZM195.061 128.424C197.589 128.424 198.901 129.992 198.901 132.264V141H203.125V131.752C203.125 127.4 200.629 124.52 196.277 124.52C193.237 124.52 190.869 126.472 189.749 128.552V125H185.525V141H189.749V133.064C189.749 129.896 192.405 128.424 195.061 128.424ZM217.311 128.424C219.839 128.424 221.151 129.992 221.151 132.264V141H225.375V131.752C225.375 127.4 222.879 124.52 218.527 124.52C215.487 124.52 213.119 126.472 211.999 128.552V125H207.775V141H211.999V133.064C211.999 129.896 214.655 128.424 217.311 128.424ZM247.465 125H242.825C241.385 128.424 239.625 132.552 237.961 136.424L232.233 125H227.625L235.881 141.224C235.881 141.256 235.817 141.32 235.817 141.384C235.017 143.176 234.121 144.936 232.425 144.936C232.201 144.936 231.561 144.872 230.985 144.776L230.761 148.84C231.305 148.936 232.009 149 232.233 149C236.745 149 238.217 145.736 239.753 142.312L247.465 125ZM49.408 181.544C52.672 181.544 55.232 179.656 56.288 177.448V181H60.512V157H56.288V165.576C54.688 165.064 52.48 164.424 50.752 164.424C45.376 164.424 41.344 168.36 41.344 173.16C41.344 178.344 45.024 181.544 49.408 181.544ZM50.656 177.608C47.808 177.608 45.6 176.008 45.6 173.128C45.6 170.312 47.808 168.136 50.688 168.136C52.64 168.136 54.432 168.552 56.288 169.096V172.552C56.288 175.624 53.472 177.608 50.656 177.608ZM69.5303 165H65.3703V181H69.5303V165ZM64.9223 160.392C64.9223 161.8 66.0423 162.92 67.4503 162.92C68.8583 162.92 69.9783 161.8 69.9783 160.392C69.9783 159.016 68.8583 157.896 67.4503 157.896C66.0423 157.896 64.9223 159.016 64.9223 160.392ZM85.504 164.456C82.24 164.456 79.68 166.344 78.624 168.552V165H74.4V188.68H78.624V180.456C80.192 180.936 82.4 181.576 84.16 181.576C89.536 181.576 93.568 177.64 93.568 172.84C93.568 167.656 89.888 164.456 85.504 164.456ZM84.256 168.392C87.104 168.392 89.312 169.96 89.312 172.84C89.312 175.528 86.976 177.864 84.224 177.864C82.24 177.864 80.448 177.448 78.624 176.904V173.064C78.624 170.12 81.408 168.392 84.256 168.392ZM108.41 164.456C105.146 164.456 102.586 166.344 101.53 168.552V165H97.3063V188.68H101.53V180.456C103.098 180.936 105.306 181.576 107.066 181.576C112.442 181.576 116.474 177.64 116.474 172.84C116.474 167.656 112.794 164.456 108.41 164.456ZM107.162 168.392C110.01 168.392 112.218 169.96 112.218 172.84C112.218 175.528 109.882 177.864 107.13 177.864C105.146 177.864 103.354 177.448 101.53 176.904V173.064C101.53 170.12 104.314 168.392 107.162 168.392ZM124.437 165H120.277V181H124.437V165ZM119.829 160.392C119.829 161.8 120.949 162.92 122.357 162.92C123.765 162.92 124.885 161.8 124.885 160.392C124.885 159.016 123.765 157.896 122.357 157.896C120.949 157.896 119.829 159.016 119.829 160.392ZM138.842 168.424C141.37 168.424 142.682 169.992 142.682 172.264V181H146.906V171.752C146.906 167.4 144.41 164.52 140.058 164.52C137.018 164.52 134.65 166.472 133.53 168.552V165H129.306V181H133.53V173.064C133.53 169.896 136.186 168.424 138.842 168.424ZM157.252 178.888C156.196 178.888 155.652 178.504 155.652 177.96C155.652 177.512 156.068 177.192 156.452 177.096C157.188 177.224 157.988 177.288 158.788 177.288C163.62 177.288 167.14 174.536 167.14 170.888C167.14 169.8 166.852 168.84 166.404 168.04C167.172 167.656 168.068 167.432 169.188 167.304L168.42 163.368C166.372 163.72 164.772 164.488 163.556 165.48C162.18 164.808 160.516 164.456 158.788 164.456C154.404 164.456 150.468 166.664 150.468 170.888C150.468 172.616 151.844 174.376 153.316 175.336C152.516 175.848 151.588 176.68 151.588 177.736C151.588 178.76 152.26 179.88 153.124 180.296C151.524 180.712 149.828 182.28 149.828 183.976C149.828 187.336 153.604 189.096 159.428 189.096C164.9 189.096 168.932 187.304 168.932 183.656C168.932 180.328 164.9 178.888 159.428 178.888H157.252ZM158.756 167.944C161.028 167.944 162.756 168.936 162.756 170.76C162.756 172.264 161.188 173.512 158.756 173.512C156.452 173.512 154.724 172.36 154.724 170.76C154.724 168.936 156.452 167.944 158.756 167.944ZM159.364 182.472C162.66 182.472 164.836 182.92 164.836 184.008C164.836 185.192 162.66 185.64 159.364 185.64C155.844 185.64 153.892 185.128 153.892 183.976C153.892 183.336 154.5 182.792 155.204 182.504C155.748 182.472 158.724 182.472 159.364 182.472Z" fill="#E6D0FE"></path> </svg> 