<?xml version="1.0" encoding="UTF-8"?> <svg xmlns="http://www.w3.org/2000/svg" width="400" height="600" viewBox="0 0 400 600" fill="none"><rect width="400" height="600" rx="20" fill="#36BB71"></rect><path d="M49.504 488.4V490.776H46.102V501H43.618V490.776H40.234V488.4H49.504ZM56.8159 499.884C55.8919 500.796 54.7639 501.252 53.4319 501.252C52.0999 501.252 50.9719 500.796 50.0479 499.884C49.1359 498.96 48.6799 497.832 48.6799 496.5C48.6799 495.168 49.1359 494.046 50.0479 493.134C50.9719 492.21 52.0999 491.748 53.4319 491.748C54.7639 491.748 55.8919 492.21 56.8159 493.134C57.7399 494.046 58.2019 495.168 58.2019 496.5C58.2019 497.832 57.7399 498.96 56.8159 499.884ZM51.6859 498.282C52.1539 498.75 52.7359 498.984 53.4319 498.984C54.1279 498.984 54.7099 498.75 55.1779 498.282C55.6459 497.814 55.8799 497.22 55.8799 496.5C55.8799 495.78 55.6459 495.186 55.1779 494.718C54.7099 494.25 54.1279 494.016 53.4319 494.016C52.7359 494.016 52.1539 494.25 51.6859 494.718C51.2299 495.186 51.0019 495.78 51.0019 496.5C51.0019 497.22 51.2299 497.814 51.6859 498.282ZM69.5734 491.748C70.7854 491.748 71.8174 492.21 72.6694 493.134C73.5334 494.046 73.9654 495.168 73.9654 496.5C73.9654 497.832 73.5334 498.96 72.6694 499.884C71.8174 500.796 70.7854 501.252 69.5734 501.252C68.3134 501.252 67.3414 500.814 66.6574 499.938V504.6H64.3354V492H66.6574V493.062C67.3414 492.186 68.3134 491.748 69.5734 491.748ZM67.3594 498.336C67.8274 498.804 68.4214 499.038 69.1414 499.038C69.8614 499.038 70.4554 498.804 70.9234 498.336C71.4034 497.856 71.6434 497.244 71.6434 496.5C71.6434 495.756 71.4034 495.15 70.9234 494.682C70.4554 494.202 69.8614 493.962 69.1414 493.962C68.4214 493.962 67.8274 494.202 67.3594 494.682C66.8914 495.15 66.6574 495.756 66.6574 496.5C66.6574 497.244 66.8914 497.856 67.3594 498.336ZM82.443 492H84.765V501H82.443V499.938C81.747 500.814 80.769 501.252 79.509 501.252C78.309 501.252 77.277 500.796 76.413 499.884C75.561 498.96 75.135 497.832 75.135 496.5C75.135 495.168 75.561 494.046 76.413 493.134C77.277 492.21 78.309 491.748 79.509 491.748C80.769 491.748 81.747 492.186 82.443 493.062V492ZM78.159 498.336C78.627 498.804 79.221 499.038 79.941 499.038C80.661 499.038 81.255 498.804 81.723 498.336C82.203 497.856 82.443 497.244 82.443 496.5C82.443 495.756 82.203 495.15 81.723 494.682C81.255 494.202 80.661 493.962 79.941 493.962C79.221 493.962 78.627 494.202 78.159 494.682C77.691 495.15 77.457 495.756 77.457 496.5C77.457 497.244 77.691 497.856 78.159 498.336ZM88.9423 494.556C88.9423 494.796 89.0983 494.994 89.4103 495.15C89.7343 495.294 90.1243 495.426 90.5803 495.546C91.0363 495.654 91.4923 495.798 91.9483 495.978C92.4043 496.146 92.7883 496.434 93.1003 496.842C93.4243 497.25 93.5863 497.76 93.5863 498.372C93.5863 499.296 93.2383 500.01 92.5423 500.514C91.8583 501.006 91.0003 501.252 89.9683 501.252C88.1203 501.252 86.8603 500.538 86.1883 499.11L88.2043 497.976C88.4683 498.756 89.0563 499.146 89.9683 499.146C90.7963 499.146 91.2103 498.888 91.2103 498.372C91.2103 498.132 91.0483 497.94 90.7243 497.796C90.4123 497.64 90.0283 497.502 89.5723 497.382C89.1163 497.262 88.6603 497.112 88.2043 496.932C87.7483 496.752 87.3583 496.47 87.0343 496.086C86.7223 495.69 86.5663 495.198 86.5663 494.61C86.5663 493.722 86.8903 493.026 87.5383 492.522C88.1983 492.006 89.0143 491.748 89.9863 491.748C90.7183 491.748 91.3843 491.916 91.9843 492.252C92.5843 492.576 93.0583 493.044 93.4063 493.656L91.4263 494.736C91.1383 494.124 90.6583 493.818 89.9863 493.818C89.6863 493.818 89.4343 493.884 89.2303 494.016C89.0383 494.148 88.9423 494.328 88.9423 494.556ZM96.747 494.556C96.747 494.796 96.903 494.994 97.215 495.15C97.539 495.294 97.929 495.426 98.385 495.546C98.841 495.654 99.297 495.798 99.753 495.978C100.209 496.146 100.593 496.434 100.905 496.842C101.229 497.25 101.391 497.76 101.391 498.372C101.391 499.296 101.043 500.01 100.347 500.514C99.663 501.006 98.805 501.252 97.773 501.252C95.925 501.252 94.665 500.538 93.993 499.11L96.009 497.976C96.273 498.756 96.861 499.146 97.773 499.146C98.601 499.146 99.015 498.888 99.015 498.372C99.015 498.132 98.853 497.94 98.529 497.796C98.217 497.64 97.833 497.502 97.377 497.382C96.921 497.262 96.465 497.112 96.009 496.932C95.553 496.752 95.163 496.47 94.839 496.086C94.527 495.69 94.371 495.198 94.371 494.61C94.371 493.722 94.695 493.026 95.343 492.522C96.003 492.006 96.819 491.748 97.791 491.748C98.523 491.748 99.189 491.916 99.789 492.252C100.389 492.576 100.863 493.044 101.211 493.656L99.231 494.736C98.943 494.124 98.463 493.818 97.791 493.818C97.491 493.818 97.239 493.884 97.035 494.016C96.843 494.148 96.747 494.328 96.747 494.556ZM115.14 499.884C114.216 500.796 113.088 501.252 111.756 501.252C110.424 501.252 109.296 500.796 108.372 499.884C107.46 498.96 107.004 497.832 107.004 496.5C107.004 495.168 107.46 494.046 108.372 493.134C109.296 492.21 110.424 491.748 111.756 491.748C113.088 491.748 114.216 492.21 115.14 493.134C116.064 494.046 116.526 495.168 116.526 496.5C116.526 497.832 116.064 498.96 115.14 499.884ZM110.01 498.282C110.478 498.75 111.06 498.984 111.756 498.984C112.452 498.984 113.034 498.75 113.502 498.282C113.97 497.814 114.204 497.22 114.204 496.5C114.204 495.78 113.97 495.186 113.502 494.718C113.034 494.25 112.452 494.016 111.756 494.016C111.06 494.016 110.478 494.25 110.01 494.718C109.554 495.186 109.326 495.78 109.326 496.5C109.326 497.22 109.554 497.814 110.01 498.282ZM124.1 492H126.422V501H124.1V499.992C123.536 500.832 122.642 501.252 121.418 501.252C120.434 501.252 119.618 500.922 118.97 500.262C118.334 499.602 118.016 498.69 118.016 497.526V492H120.338V497.238C120.338 497.838 120.5 498.3 120.824 498.624C121.148 498.936 121.58 499.092 122.12 499.092C122.72 499.092 123.2 498.906 123.56 498.534C123.92 498.162 124.1 497.604 124.1 496.86V492ZM133.696 494.232H131.662V497.976C131.662 498.288 131.74 498.516 131.896 498.66C132.052 498.804 132.28 498.888 132.58 498.912C132.88 498.924 133.252 498.918 133.696 498.894V501C132.1 501.18 130.972 501.03 130.312 500.55C129.664 500.07 129.34 499.212 129.34 497.976V494.232H127.774V492H129.34V490.182L131.662 489.48V492H133.696V494.232ZM140.352 496.014V494.862H149.352V496.014H140.352ZM164.115 492V501H162.927V493.152H157.743V501H156.555V492H164.115ZM174.367 492H175.555V501H174.367V499.236C173.539 500.556 172.327 501.216 170.731 501.216C169.447 501.216 168.349 500.76 167.437 499.848C166.537 498.936 166.087 497.82 166.087 496.5C166.087 495.18 166.537 494.064 167.437 493.152C168.349 492.24 169.447 491.784 170.731 491.784C172.327 491.784 173.539 492.444 174.367 493.764V492ZM168.301 499.038C168.985 499.722 169.825 500.064 170.821 500.064C171.817 500.064 172.657 499.722 173.341 499.038C174.025 498.342 174.367 497.496 174.367 496.5C174.367 495.504 174.025 494.664 173.341 493.98C172.657 493.284 171.817 492.936 170.821 492.936C169.825 492.936 168.985 493.284 168.301 493.98C167.617 494.664 167.275 495.504 167.275 496.5C167.275 497.496 167.617 498.342 168.301 499.038ZM185.631 499.848H186.891V503.412H185.703V501H178.359V503.412H177.171V499.848H178.269C178.881 499.044 179.187 497.91 179.187 496.446V492H185.631V499.848ZM179.709 499.848H184.443V493.152H180.375V496.446C180.375 497.826 180.153 498.96 179.709 499.848ZM196.076 492H197.264V501H196.076V499.236C195.248 500.556 194.036 501.216 192.44 501.216C191.156 501.216 190.058 500.76 189.146 499.848C188.246 498.936 187.796 497.82 187.796 496.5C187.796 495.18 188.246 494.064 189.146 493.152C190.058 492.24 191.156 491.784 192.44 491.784C194.036 491.784 195.248 492.444 196.076 493.764V492ZM190.01 499.038C190.694 499.722 191.534 500.064 192.53 500.064C193.526 500.064 194.366 499.722 195.05 499.038C195.734 498.342 196.076 497.496 196.076 496.5C196.076 495.504 195.734 494.664 195.05 493.98C194.366 493.284 193.526 492.936 192.53 492.936C191.534 492.936 190.694 493.284 190.01 493.98C189.326 494.664 188.984 495.504 188.984 496.5C188.984 497.496 189.326 498.342 190.01 499.038ZM206.26 492V493.152H203.074V501H201.886V493.152H198.7V492H206.26ZM211.361 495.42C212.201 495.42 212.909 495.684 213.485 496.212C214.073 496.728 214.367 497.394 214.367 498.21C214.367 499.026 214.073 499.698 213.485 500.226C212.909 500.742 212.201 501 211.361 501H207.707V492H208.895V495.42H211.361ZM211.361 499.848C211.865 499.848 212.291 499.698 212.639 499.398C212.999 499.098 213.179 498.702 213.179 498.21C213.179 497.718 212.999 497.322 212.639 497.022C212.291 496.722 211.865 496.572 211.361 496.572H208.895V499.848H211.361ZM226.386 496.374C227.37 496.734 227.862 497.436 227.862 498.48C227.862 499.212 227.616 499.818 227.124 500.298C226.644 500.766 225.948 501 225.036 501H220.662V492H224.676C225.552 492 226.23 492.228 226.71 492.684C227.19 493.128 227.43 493.704 227.43 494.412C227.43 495.312 227.082 495.966 226.386 496.374ZM224.676 493.152H221.85V495.888H224.676C225.72 495.888 226.242 495.42 226.242 494.484C226.242 494.064 226.104 493.74 225.828 493.512C225.564 493.272 225.18 493.152 224.676 493.152ZM225.036 499.848C225.564 499.848 225.966 499.722 226.242 499.47C226.53 499.218 226.674 498.864 226.674 498.408C226.674 497.988 226.53 497.658 226.242 497.418C225.966 497.166 225.564 497.04 225.036 497.04H221.85V499.848H225.036ZM241.704 499.866C240.792 500.766 239.676 501.216 238.356 501.216C237.036 501.216 235.914 500.766 234.99 499.866C234.078 498.954 233.622 497.832 233.622 496.5C233.622 495.168 234.078 494.052 234.99 493.152C235.914 492.24 237.036 491.784 238.356 491.784C239.676 491.784 240.792 492.24 241.704 493.152C242.628 494.052 243.09 495.168 243.09 496.5C243.09 497.832 242.628 498.954 241.704 499.866ZM235.836 499.038C236.52 499.722 237.36 500.064 238.356 500.064C239.352 500.064 240.192 499.722 240.876 499.038C241.56 498.342 241.902 497.496 241.902 496.5C241.902 495.504 241.56 494.664 240.876 493.98C240.192 493.284 239.352 492.936 238.356 492.936C237.36 492.936 236.52 493.284 235.836 493.98C235.152 494.664 234.81 495.504 234.81 496.5C234.81 497.496 235.152 498.342 235.836 499.038ZM249.074 501.216C247.778 501.216 246.698 500.79 245.834 499.938C244.97 499.074 244.538 497.958 244.538 496.59C244.538 495.054 244.766 493.878 245.222 493.062C245.678 492.234 246.602 491.484 247.994 490.812C248.258 490.68 248.606 490.524 249.038 490.344C249.482 490.164 249.812 490.02 250.028 489.912C250.256 489.804 250.502 489.666 250.766 489.498C251.03 489.318 251.228 489.12 251.36 488.904C251.492 488.688 251.576 488.43 251.612 488.13L252.548 488.67C252.5 488.958 252.404 489.228 252.26 489.48C252.116 489.732 251.966 489.936 251.81 490.092C251.666 490.248 251.432 490.422 251.108 490.614C250.796 490.794 250.55 490.926 250.37 491.01C250.202 491.082 249.902 491.208 249.47 491.388C249.05 491.568 248.768 491.688 248.624 491.748C247.784 492.108 247.166 492.486 246.77 492.882C246.374 493.266 246.092 493.77 245.924 494.394C246.332 493.854 246.848 493.458 247.472 493.206C248.108 492.942 248.726 492.81 249.326 492.81C250.526 492.81 251.516 493.206 252.296 493.998C253.088 494.778 253.484 495.78 253.484 497.004C253.484 498.216 253.064 499.224 252.224 500.028C251.396 500.82 250.346 501.216 249.074 501.216ZM249.074 500.028C250.01 500.028 250.778 499.746 251.378 499.182C251.99 498.606 252.296 497.88 252.296 497.004C252.296 496.116 252.008 495.39 251.432 494.826C250.868 494.25 250.112 493.962 249.164 493.962C248.312 493.962 247.538 494.232 246.842 494.772C246.146 495.3 245.798 496.008 245.798 496.896C245.798 497.808 246.11 498.558 246.734 499.146C247.37 499.734 248.15 500.028 249.074 500.028ZM264.111 492V501H262.923V493.818L259.773 498.93H259.629L256.479 493.818V501H255.291V492H256.659L259.701 496.932L262.743 492H264.111ZM274.171 499.866C273.259 500.766 272.143 501.216 270.823 501.216C269.503 501.216 268.381 500.766 267.457 499.866C266.545 498.954 266.089 497.832 266.089 496.5C266.089 495.168 266.545 494.052 267.457 493.152C268.381 492.24 269.503 491.784 270.823 491.784C272.143 491.784 273.259 492.24 274.171 493.152C275.095 494.052 275.557 495.168 275.557 496.5C275.557 497.832 275.095 498.954 274.171 499.866ZM268.303 499.038C268.987 499.722 269.827 500.064 270.823 500.064C271.819 500.064 272.659 499.722 273.343 499.038C274.027 498.342 274.369 497.496 274.369 496.5C274.369 495.504 274.027 494.664 273.343 493.98C272.659 493.284 271.819 492.936 270.823 492.936C269.827 492.936 268.987 493.284 268.303 493.98C267.619 494.664 267.277 495.504 267.277 496.5C267.277 497.496 267.619 498.342 268.303 499.038ZM282.369 491.784C283.653 491.784 284.745 492.24 285.645 493.152C286.557 494.064 287.013 495.18 287.013 496.5C287.013 497.82 286.557 498.936 285.645 499.848C284.745 500.76 283.653 501.216 282.369 501.216C280.773 501.216 279.561 500.556 278.733 499.236V504.6H277.545V492H278.733V493.764C279.561 492.444 280.773 491.784 282.369 491.784ZM279.759 499.038C280.443 499.722 281.283 500.064 282.279 500.064C283.275 500.064 284.115 499.722 284.799 499.038C285.483 498.342 285.825 497.496 285.825 496.5C285.825 495.504 285.483 494.664 284.799 493.98C284.115 493.284 283.275 492.936 282.279 492.936C281.283 492.936 280.443 493.284 279.759 493.98C279.075 494.664 278.733 495.504 278.733 496.5C278.733 497.496 279.075 498.342 279.759 499.038ZM296.531 499.866C295.619 500.766 294.503 501.216 293.183 501.216C291.863 501.216 290.741 500.766 289.817 499.866C288.905 498.954 288.449 497.832 288.449 496.5C288.449 495.168 288.905 494.052 289.817 493.152C290.741 492.24 291.863 491.784 293.183 491.784C294.503 491.784 295.619 492.24 296.531 493.152C297.455 494.052 297.917 495.168 297.917 496.5C297.917 497.832 297.455 498.954 296.531 499.866ZM290.663 499.038C291.347 499.722 292.187 500.064 293.183 500.064C294.179 500.064 295.019 499.722 295.703 499.038C296.387 498.342 296.729 497.496 296.729 496.5C296.729 495.504 296.387 494.664 295.703 493.98C295.019 493.284 294.179 492.936 293.183 492.936C292.187 492.936 291.347 493.284 290.663 493.98C289.979 494.664 289.637 495.504 289.637 496.5C289.637 497.496 289.979 498.342 290.663 499.038ZM307.177 501H305.593L301.093 496.662V501H299.905V492H301.093V495.978L305.377 492H306.997L302.353 496.32L307.177 501Z" fill="#CDFFE3" fill-opacity="0.6"></path><path d="M47.296 84.136L60.8 101H65.952V78.6H61.536V95.464L48.032 78.6H42.88V101H47.296V84.136ZM80.4918 97.768C77.4838 97.768 75.1478 96.456 74.5398 94.12H88.2998C88.4918 93.384 88.5878 92.648 88.5878 91.944C88.5878 87.624 84.9398 84.456 80.0758 84.456C74.7318 84.456 70.1878 87.656 70.1878 93C70.1878 97.8 74.1238 101.576 80.0758 101.576C83.0198 101.576 86.0278 100.584 88.1718 99.496L86.9237 96.168C84.6518 97.352 82.6678 97.768 80.4918 97.768ZM79.8198 88.008C82.3158 88.008 83.9158 89.128 84.3318 91.016H74.6358C75.2758 89.064 77.0677 88.008 79.8198 88.008ZM94.39 85H89.75L97.302 101H101.942L109.526 85H104.822L99.638 96.232L94.39 85ZM121.179 97.768C118.171 97.768 115.835 96.456 115.227 94.12H128.987C129.179 93.384 129.275 92.648 129.275 91.944C129.275 87.624 125.627 84.456 120.763 84.456C115.419 84.456 110.875 87.656 110.875 93C110.875 97.8 114.811 101.576 120.763 101.576C123.707 101.576 126.715 100.584 128.859 99.496L127.611 96.168C125.339 97.352 123.355 97.768 121.179 97.768ZM120.507 88.008C123.003 88.008 124.603 89.128 125.019 91.016H115.323C115.963 89.064 117.755 88.008 120.507 88.008ZM142.982 84.456C140.198 84.456 137.99 86.824 137.062 88.552V85H132.838V101H137.062V93.064C137.062 90.12 139.91 88.392 142.566 88.392C143.174 88.392 144.006 88.584 144.774 88.936L145.67 85.096C144.87 84.712 143.878 84.456 142.982 84.456ZM166.436 88.424C168.964 88.424 170.276 89.992 170.276 92.264V101H174.5V91.752C174.5 87.4 172.004 84.52 167.652 84.52C164.612 84.52 162.244 86.472 161.124 88.552V77.288H156.9V101H161.124V93.064C161.124 89.896 163.78 88.424 166.436 88.424ZM184.75 91.88C181.454 91.88 178.19 93.352 178.19 96.776C178.19 99.656 180.43 101.64 183.438 101.64C186.158 101.64 188.59 100.168 190.126 98.344C190.19 100.136 191.086 101.64 193.23 101.64C194.542 101.64 196.462 101 198.222 100.04L197.358 96.776C196.43 97.256 195.598 97.608 195.118 97.608C194.67 97.608 194.35 97.32 194.35 96.84V91.08C194.35 86.696 191.79 84.36 187.406 84.36C184.878 84.36 181.518 85.352 179.534 85.992L180.59 89.832C182.926 88.968 185.358 88.232 187.022 88.232C189.038 88.232 190.126 89.352 190.126 91.016V92.872C188.75 92.392 186.478 91.88 184.75 91.88ZM184.814 98.024C183.47 98.024 182.51 97.48 182.51 96.424C182.51 95.272 183.566 94.6 184.974 94.6C186.51 94.6 188.366 94.76 190.126 95.08V95.688C188.622 97.16 186.414 98.024 184.814 98.024ZM202.859 85H198.219L205.771 101H210.411L217.995 85H213.291L208.107 96.232L202.859 85ZM229.648 97.768C226.64 97.768 224.304 96.456 223.696 94.12H237.456C237.648 93.384 237.744 92.648 237.744 91.944C237.744 87.624 234.096 84.456 229.232 84.456C223.888 84.456 219.344 87.656 219.344 93C219.344 97.8 223.28 101.576 229.232 101.576C232.176 101.576 235.184 100.584 237.328 99.496L236.08 96.168C233.808 97.352 231.824 97.768 229.648 97.768ZM228.976 88.008C231.472 88.008 233.072 89.128 233.488 91.016H223.792C224.432 89.064 226.224 88.008 228.976 88.008ZM255.265 78.6H250.849V101H255.265V78.6ZM278.867 97.768C275.859 97.768 273.523 96.456 272.915 94.12H286.675C286.867 93.384 286.963 92.648 286.963 91.944C286.963 87.624 283.315 84.456 278.451 84.456C273.107 84.456 268.563 87.656 268.563 93C268.563 97.8 272.499 101.576 278.451 101.576C281.395 101.576 284.403 100.584 286.547 99.496L285.299 96.168C283.027 97.352 281.043 97.768 278.867 97.768ZM278.195 88.008C280.691 88.008 282.291 89.128 282.707 91.016H273.011C273.651 89.064 275.443 88.008 278.195 88.008ZM292.765 85H288.125L295.677 101H300.317L307.901 85H303.197L298.013 96.232L292.765 85ZM319.554 97.768C316.546 97.768 314.21 96.456 313.602 94.12H327.362C327.554 93.384 327.65 92.648 327.65 91.944C327.65 87.624 324.002 84.456 319.138 84.456C313.794 84.456 309.25 87.656 309.25 93C309.25 97.8 313.186 101.576 319.138 101.576C322.082 101.576 325.09 100.584 327.234 99.496L325.986 96.168C323.714 97.352 321.73 97.768 319.554 97.768ZM318.882 88.008C321.378 88.008 322.978 89.128 323.394 91.016H313.698C314.338 89.064 316.13 88.008 318.882 88.008ZM341.357 84.456C338.573 84.456 336.365 86.824 335.437 88.552V85H331.213V101H335.437V93.064C335.437 90.12 338.285 88.392 340.941 88.392C341.549 88.392 342.381 88.584 343.149 88.936L344.045 85.096C343.245 84.712 342.253 84.456 341.357 84.456ZM53.504 124.456C50.24 124.456 47.68 126.344 46.624 128.552V125H42.4V148.68H46.624V140.456C48.192 140.936 50.4 141.576 52.16 141.576C57.536 141.576 61.568 137.64 61.568 132.84C61.568 127.656 57.888 124.456 53.504 124.456ZM52.256 128.392C55.104 128.392 57.312 129.96 57.312 132.84C57.312 135.528 54.976 137.864 52.224 137.864C50.24 137.864 48.448 137.448 46.624 136.904V133.064C46.624 130.12 49.408 128.392 52.256 128.392ZM70.9062 131.88C67.6102 131.88 64.3463 133.352 64.3463 136.776C64.3463 139.656 66.5863 141.64 69.5943 141.64C72.3142 141.64 74.7463 140.168 76.2823 138.344C76.3463 140.136 77.2423 141.64 79.3863 141.64C80.6983 141.64 82.6183 141 84.3783 140.04L83.5143 136.776C82.5863 137.256 81.7543 137.608 81.2743 137.608C80.8263 137.608 80.5063 137.32 80.5063 136.84V131.08C80.5063 126.696 77.9463 124.36 73.5623 124.36C71.0343 124.36 67.6743 125.352 65.6903 125.992L66.7463 129.832C69.0823 128.968 71.5143 128.232 73.1783 128.232C75.1943 128.232 76.2823 129.352 76.2823 131.016V132.872C74.9063 132.392 72.6343 131.88 70.9062 131.88ZM70.9703 138.024C69.6263 138.024 68.6663 137.48 68.6663 136.424C68.6663 135.272 69.7223 134.6 71.1302 134.6C72.6663 134.6 74.5223 134.76 76.2823 135.08V135.688C74.7783 137.16 72.5703 138.024 70.9703 138.024ZM100.919 125.576C99.031 124.936 96.055 124.392 93.527 124.392C88.983 124.392 85.751 126.376 85.751 129.512C85.751 135.752 97.655 133.64 97.655 136.168C97.655 137.288 96.055 137.928 93.751 137.928C91.287 137.928 88.791 137.16 86.679 136.232L85.431 139.56C87.607 140.712 90.583 141.64 93.591 141.64C97.495 141.64 101.815 139.624 101.815 136.04C101.815 129.8 89.911 132.008 89.911 129.352C89.911 128.392 91.575 128.072 93.687 128.072C95.735 128.072 97.719 128.488 99.799 129.288L100.919 125.576ZM119.638 125.576C117.75 124.936 114.774 124.392 112.246 124.392C107.702 124.392 104.47 126.376 104.47 129.512C104.47 135.752 116.374 133.64 116.374 136.168C116.374 137.288 114.774 137.928 112.47 137.928C110.006 137.928 107.51 137.16 105.398 136.232L104.15 139.56C106.326 140.712 109.302 141.64 112.31 141.64C116.214 141.64 120.534 139.624 120.534 136.04C120.534 129.8 108.63 132.008 108.63 129.352C108.63 128.392 110.294 128.072 112.406 128.072C114.454 128.072 116.438 128.488 118.518 129.288L119.638 125.576ZM133.461 137.768C130.453 137.768 128.117 136.456 127.509 134.12H141.269C141.461 133.384 141.557 132.648 141.557 131.944C141.557 127.624 137.909 124.456 133.045 124.456C127.701 124.456 123.157 127.656 123.157 133C123.157 137.8 127.093 141.576 133.045 141.576C135.989 141.576 138.997 140.584 141.141 139.496L139.892 136.168C137.621 137.352 135.637 137.768 133.461 137.768ZM132.789 128.008C135.285 128.008 136.885 129.128 137.301 131.016H127.605C128.245 129.064 130.036 128.008 132.789 128.008ZM152.127 141.544C155.391 141.544 157.951 139.656 159.007 137.448V141H163.231V117H159.007V125.576C157.407 125.064 155.199 124.424 153.471 124.424C148.095 124.424 144.063 128.36 144.063 133.16C144.063 138.344 147.743 141.544 152.127 141.544ZM153.375 137.608C150.527 137.608 148.319 136.008 148.319 133.128C148.319 130.312 150.527 128.136 153.407 128.136C155.359 128.136 157.151 128.552 159.007 129.096V132.552C159.007 135.624 156.191 137.608 153.375 137.608ZM185.984 124.456C180.64 124.456 176.032 127.496 176.032 132.84C176.032 137.64 180.192 141.576 185.984 141.576C191.776 141.576 195.936 137.64 195.936 132.84C195.936 127.496 191.328 124.456 185.984 124.456ZM185.984 128.136C189.312 128.136 191.68 129.864 191.68 132.84C191.68 135.528 189.152 137.928 185.984 137.928C182.816 137.928 180.288 135.528 180.288 132.84C180.288 129.864 182.656 128.136 185.984 128.136ZM206.241 141.512C209.153 141.512 211.617 139.752 212.769 137.48V141H216.993V125H212.769V132.744C212.769 136.136 210.497 137.608 207.809 137.608C205.281 137.608 203.745 136.328 203.745 133.736V125H199.521V134.28C199.521 138.632 201.953 141.512 206.241 141.512ZM220.046 128.68H223.086V134.888C223.086 138.92 225.23 141.544 229.198 141.544C230.894 141.544 233.166 140.808 234.51 140.104L233.582 136.488C232.558 137.128 231.15 137.64 229.902 137.64C228.238 137.64 227.31 136.456 227.31 134.728V128.68H233.966V125H227.31V120.2H223.79L223.214 125.128L220.046 125.32V128.68Z" fill="#CDFFE3"></path></svg> 