<?xml version="1.0" encoding="UTF-8"?> <svg xmlns="http://www.w3.org/2000/svg" width="400" height="600" viewBox="0 0 400 600" fill="none"> <rect width="400" height="600" rx="20" fill="#EEBF38"></rect> <path d="M49.504 488.4V490.776H46.102V501H43.618V490.776H40.234V488.4H49.504ZM56.8159 499.884C55.8919 500.796 54.7639 501.252 53.4319 501.252C52.0999 501.252 50.9719 500.796 50.0479 499.884C49.1359 498.96 48.6799 497.832 48.6799 496.5C48.6799 495.168 49.1359 494.046 50.0479 493.134C50.9719 492.21 52.0999 491.748 53.4319 491.748C54.7639 491.748 55.8919 492.21 56.8159 493.134C57.7399 494.046 58.2019 495.168 58.2019 496.5C58.2019 497.832 57.7399 498.96 56.8159 499.884ZM51.6859 498.282C52.1539 498.75 52.7359 498.984 53.4319 498.984C54.1279 498.984 54.7099 498.75 55.1779 498.282C55.6459 497.814 55.8799 497.22 55.8799 496.5C55.8799 495.78 55.6459 495.186 55.1779 494.718C54.7099 494.25 54.1279 494.016 53.4319 494.016C52.7359 494.016 52.1539 494.25 51.6859 494.718C51.2299 495.186 51.0019 495.78 51.0019 496.5C51.0019 497.22 51.2299 497.814 51.6859 498.282ZM66.4774 494.556C66.4774 494.796 66.6334 494.994 66.9454 495.15C67.2694 495.294 67.6594 495.426 68.1154 495.546C68.5714 495.654 69.0274 495.798 69.4834 495.978C69.9394 496.146 70.3234 496.434 70.6354 496.842C70.9594 497.25 71.1214 497.76 71.1214 498.372C71.1214 499.296 70.7734 500.01 70.0774 500.514C69.3934 501.006 68.5354 501.252 67.5034 501.252C65.6554 501.252 64.3954 500.538 63.7234 499.11L65.7394 497.976C66.0034 498.756 66.5914 499.146 67.5034 499.146C68.3314 499.146 68.7454 498.888 68.7454 498.372C68.7454 498.132 68.5834 497.94 68.2594 497.796C67.9474 497.64 67.5634 497.502 67.1074 497.382C66.6514 497.262 66.1954 497.112 65.7394 496.932C65.2834 496.752 64.8934 496.47 64.5694 496.086C64.2574 495.69 64.1014 495.198 64.1014 494.61C64.1014 493.722 64.4254 493.026 65.0734 492.522C65.7334 492.006 66.5494 491.748 67.5214 491.748C68.2534 491.748 68.9194 491.916 69.5194 492.252C70.1194 492.576 70.5934 493.044 70.9414 493.656L68.9614 494.736C68.6734 494.124 68.1934 493.818 67.5214 493.818C67.2214 493.818 66.9694 493.884 66.7654 494.016C66.5734 494.148 66.4774 494.328 66.4774 494.556ZM78.5547 492H80.8767V501H78.5547V499.992C77.9907 500.832 77.0967 501.252 75.8727 501.252C74.8887 501.252 74.0727 500.922 73.4247 500.262C72.7887 499.602 72.4707 498.69 72.4707 497.526V492H74.7927V497.238C74.7927 497.838 74.9547 498.3 75.2787 498.624C75.6027 498.936 76.0347 499.092 76.5747 499.092C77.1747 499.092 77.6547 498.906 78.0147 498.534C78.3747 498.162 78.5547 497.604 78.5547 496.86V492ZM87.2874 501.252C85.9314 501.252 84.7974 500.796 83.8854 499.884C82.9854 498.972 82.5354 497.844 82.5354 496.5C82.5354 495.156 82.9854 494.028 83.8854 493.116C84.7974 492.204 85.9314 491.748 87.2874 491.748C88.1634 491.748 88.9614 491.958 89.6814 492.378C90.4014 492.798 90.9474 493.362 91.3194 494.07L89.3214 495.24C89.1414 494.868 88.8654 494.574 88.4934 494.358C88.1334 494.142 87.7254 494.034 87.2694 494.034C86.5734 494.034 85.9974 494.268 85.5414 494.736C85.0854 495.192 84.8574 495.78 84.8574 496.5C84.8574 497.208 85.0854 497.796 85.5414 498.264C85.9974 498.72 86.5734 498.948 87.2694 498.948C87.7374 498.948 88.1514 498.846 88.5114 498.642C88.8834 498.426 89.1594 498.132 89.3394 497.76L91.3554 498.912C90.9594 499.62 90.4014 500.19 89.6814 500.622C88.9614 501.042 88.1634 501.252 87.2874 501.252ZM100.881 501H98.1815L94.9055 496.914V501H92.5835V488.4H94.9055V495.96L98.0015 492H100.773L97.1555 496.446L100.881 501ZM112.481 492H114.803V501H112.481V499.992C111.917 500.832 111.023 501.252 109.799 501.252C108.815 501.252 107.999 500.922 107.351 500.262C106.715 499.602 106.397 498.69 106.397 497.526V492H108.719V497.238C108.719 497.838 108.881 498.3 109.205 498.624C109.529 498.936 109.961 499.092 110.501 499.092C111.101 499.092 111.581 498.906 111.941 498.534C112.301 498.162 112.481 497.604 112.481 496.86V492ZM122.167 491.748C123.379 491.748 124.411 492.21 125.263 493.134C126.127 494.046 126.559 495.168 126.559 496.5C126.559 497.832 126.127 498.96 125.263 499.884C124.411 500.796 123.379 501.252 122.167 501.252C120.907 501.252 119.935 500.814 119.251 499.938V504.6H116.929V492H119.251V493.062C119.935 492.186 120.907 491.748 122.167 491.748ZM119.953 498.336C120.421 498.804 121.015 499.038 121.735 499.038C122.455 499.038 123.049 498.804 123.517 498.336C123.997 497.856 124.237 497.244 124.237 496.5C124.237 495.756 123.997 495.15 123.517 494.682C123.049 494.202 122.455 493.962 121.735 493.962C121.015 493.962 120.421 494.202 119.953 494.682C119.485 495.15 119.251 495.756 119.251 496.5C119.251 497.244 119.485 497.856 119.953 498.336ZM137.845 494.232H135.811V497.976C135.811 498.288 135.889 498.516 136.045 498.66C136.201 498.804 136.429 498.888 136.729 498.912C137.029 498.924 137.401 498.918 137.845 498.894V501C136.249 501.18 135.121 501.03 134.461 500.55C133.813 500.07 133.489 499.212 133.489 497.976V494.232H131.923V492H133.489V490.182L135.811 489.48V492H137.845V494.232ZM146.869 499.884C145.945 500.796 144.817 501.252 143.485 501.252C142.153 501.252 141.025 500.796 140.101 499.884C139.189 498.96 138.733 497.832 138.733 496.5C138.733 495.168 139.189 494.046 140.101 493.134C141.025 492.21 142.153 491.748 143.485 491.748C144.817 491.748 145.945 492.21 146.869 493.134C147.793 494.046 148.255 495.168 148.255 496.5C148.255 497.832 147.793 498.96 146.869 499.884ZM141.739 498.282C142.207 498.75 142.789 498.984 143.485 498.984C144.181 498.984 144.763 498.75 145.231 498.282C145.699 497.814 145.933 497.22 145.933 496.5C145.933 495.78 145.699 495.186 145.231 494.718C144.763 494.25 144.181 494.016 143.485 494.016C142.789 494.016 142.207 494.25 141.739 494.718C141.283 495.186 141.055 495.78 141.055 496.5C141.055 497.22 141.283 497.814 141.739 498.282ZM156.53 494.556C156.53 494.796 156.686 494.994 156.998 495.15C157.322 495.294 157.712 495.426 158.168 495.546C158.624 495.654 159.08 495.798 159.536 495.978C159.992 496.146 160.376 496.434 160.688 496.842C161.012 497.25 161.174 497.76 161.174 498.372C161.174 499.296 160.826 500.01 160.13 500.514C159.446 501.006 158.588 501.252 157.556 501.252C155.708 501.252 154.448 500.538 153.776 499.11L155.792 497.976C156.056 498.756 156.644 499.146 157.556 499.146C158.384 499.146 158.798 498.888 158.798 498.372C158.798 498.132 158.636 497.94 158.312 497.796C158 497.64 157.616 497.502 157.16 497.382C156.704 497.262 156.248 497.112 155.792 496.932C155.336 496.752 154.946 496.47 154.622 496.086C154.31 495.69 154.154 495.198 154.154 494.61C154.154 493.722 154.478 493.026 155.126 492.522C155.786 492.006 156.602 491.748 157.574 491.748C158.306 491.748 158.972 491.916 159.572 492.252C160.172 492.576 160.646 493.044 160.994 493.656L159.014 494.736C158.726 494.124 158.246 493.818 157.574 493.818C157.274 493.818 157.022 493.884 156.818 494.016C156.626 494.148 156.53 494.328 156.53 494.556ZM170.212 499.884C169.288 500.796 168.16 501.252 166.828 501.252C165.496 501.252 164.368 500.796 163.444 499.884C162.532 498.96 162.076 497.832 162.076 496.5C162.076 495.168 162.532 494.046 163.444 493.134C164.368 492.21 165.496 491.748 166.828 491.748C168.16 491.748 169.288 492.21 170.212 493.134C171.136 494.046 171.598 495.168 171.598 496.5C171.598 497.832 171.136 498.96 170.212 499.884ZM165.082 498.282C165.55 498.75 166.132 498.984 166.828 498.984C167.524 498.984 168.106 498.75 168.574 498.282C169.042 497.814 169.276 497.22 169.276 496.5C169.276 495.78 169.042 495.186 168.574 494.718C168.106 494.25 167.524 494.016 166.828 494.016C166.132 494.016 165.55 494.25 165.082 494.718C164.626 495.186 164.398 495.78 164.398 496.5C164.398 497.22 164.626 497.814 165.082 498.282ZM183.186 491.748C184.218 491.748 185.04 492.084 185.652 492.756C186.276 493.428 186.588 494.328 186.588 495.456V501H184.266V495.618C184.266 495.078 184.134 494.658 183.87 494.358C183.606 494.058 183.234 493.908 182.754 493.908C182.226 493.908 181.812 494.082 181.512 494.43C181.224 494.778 181.08 495.282 181.08 495.942V501H178.758V495.618C178.758 495.078 178.626 494.658 178.362 494.358C178.098 494.058 177.726 493.908 177.246 493.908C176.73 493.908 176.316 494.082 176.004 494.43C175.704 494.778 175.554 495.282 175.554 495.942V501H173.232V492H175.554V492.954C176.094 492.15 176.928 491.748 178.056 491.748C179.16 491.748 179.976 492.18 180.504 493.044C181.104 492.18 181.998 491.748 183.186 491.748ZM190.522 497.454C190.834 498.582 191.68 499.146 193.06 499.146C193.948 499.146 194.62 498.846 195.076 498.246L196.948 499.326C196.06 500.61 194.752 501.252 193.024 501.252C191.536 501.252 190.342 500.802 189.442 499.902C188.542 499.002 188.092 497.868 188.092 496.5C188.092 495.144 188.536 494.016 189.424 493.116C190.312 492.204 191.452 491.748 192.844 491.748C194.164 491.748 195.25 492.204 196.102 493.116C196.966 494.028 197.398 495.156 197.398 496.5C197.398 496.8 197.368 497.118 197.308 497.454H190.522ZM190.486 495.654H195.076C194.944 495.042 194.668 494.586 194.248 494.286C193.84 493.986 193.372 493.836 192.844 493.836C192.22 493.836 191.704 493.998 191.296 494.322C190.888 494.634 190.618 495.078 190.486 495.654ZM204.257 491.748C205.469 491.748 206.501 492.21 207.353 493.134C208.217 494.046 208.649 495.168 208.649 496.5C208.649 497.832 208.217 498.96 207.353 499.884C206.501 500.796 205.469 501.252 204.257 501.252C202.997 501.252 202.025 500.814 201.341 499.938V501H199.019V488.4H201.341V493.062C202.025 492.186 202.997 491.748 204.257 491.748ZM202.043 498.336C202.511 498.804 203.105 499.038 203.825 499.038C204.545 499.038 205.139 498.804 205.607 498.336C206.087 497.856 206.327 497.244 206.327 496.5C206.327 495.756 206.087 495.15 205.607 494.682C205.139 494.202 204.545 493.962 203.825 493.962C203.105 493.962 202.511 494.202 202.043 494.682C201.575 495.15 201.341 495.756 201.341 496.5C201.341 497.244 201.575 497.856 202.043 498.336ZM217.955 499.884C217.031 500.796 215.903 501.252 214.571 501.252C213.239 501.252 212.111 500.796 211.187 499.884C210.275 498.96 209.819 497.832 209.819 496.5C209.819 495.168 210.275 494.046 211.187 493.134C212.111 492.21 213.239 491.748 214.571 491.748C215.903 491.748 217.031 492.21 217.955 493.134C218.879 494.046 219.341 495.168 219.341 496.5C219.341 497.832 218.879 498.96 217.955 499.884ZM212.825 498.282C213.293 498.75 213.875 498.984 214.571 498.984C215.267 498.984 215.849 498.75 216.317 498.282C216.785 497.814 217.019 497.22 217.019 496.5C217.019 495.78 216.785 495.186 216.317 494.718C215.849 494.25 215.267 494.016 214.571 494.016C213.875 494.016 213.293 494.25 212.825 494.718C212.369 495.186 212.141 495.78 212.141 496.5C212.141 497.22 212.369 497.814 212.825 498.282ZM227.796 488.4H230.118V501H227.796V499.938C227.112 500.814 226.14 501.252 224.88 501.252C223.668 501.252 222.63 500.796 221.766 499.884C220.914 498.96 220.488 497.832 220.488 496.5C220.488 495.168 220.914 494.046 221.766 493.134C222.63 492.21 223.668 491.748 224.88 491.748C226.14 491.748 227.112 492.186 227.796 493.062V488.4ZM223.512 498.336C223.992 498.804 224.592 499.038 225.312 499.038C226.032 499.038 226.626 498.804 227.094 498.336C227.562 497.856 227.796 497.244 227.796 496.5C227.796 495.756 227.562 495.15 227.094 494.682C226.626 494.202 226.032 493.962 225.312 493.962C224.592 493.962 223.992 494.202 223.512 494.682C223.044 495.15 222.81 495.756 222.81 496.5C222.81 497.244 223.044 497.856 223.512 498.336ZM238.11 492H240.594L237.318 501C236.85 502.296 236.226 503.232 235.446 503.808C234.678 504.396 233.718 504.66 232.566 504.6V502.44C233.19 502.452 233.682 502.32 234.042 502.044C234.414 501.768 234.708 501.324 234.924 500.712L231.234 492H233.772L236.112 498.048L238.11 492ZM246.577 496.014V494.862H255.577V496.014H246.577ZM48.82 515V524H47.632V516.152H42.448V524H41.26V515H48.82ZM58.8743 522.866C57.9623 523.766 56.8463 524.216 55.5263 524.216C54.2063 524.216 53.0843 523.766 52.1603 522.866C51.2483 521.954 50.7923 520.832 50.7923 519.5C50.7923 518.168 51.2483 517.052 52.1603 516.152C53.0843 515.24 54.2063 514.784 55.5263 514.784C56.8463 514.784 57.9623 515.24 58.8743 516.152C59.7983 517.052 60.2603 518.168 60.2603 519.5C60.2603 520.832 59.7983 521.954 58.8743 522.866ZM53.0063 522.038C53.6903 522.722 54.5303 523.064 55.5263 523.064C56.5223 523.064 57.3623 522.722 58.0463 522.038C58.7303 521.342 59.0723 520.496 59.0723 519.5C59.0723 518.504 58.7303 517.664 58.0463 516.98C57.3623 516.284 56.5223 515.936 55.5263 515.936C54.5303 515.936 53.6903 516.284 53.0063 516.98C52.3223 517.664 51.9803 518.504 51.9803 519.5C51.9803 520.496 52.3223 521.342 53.0063 522.038ZM69.4567 522.848H70.7167V526.412H69.5287V524H62.1847V526.412H60.9967V522.848H62.0947C62.7067 522.044 63.0127 520.91 63.0127 519.446V515H69.4567V522.848ZM63.5347 522.848H68.2687V516.152H64.2007V519.446C64.2007 520.826 63.9787 521.96 63.5347 522.848ZM79.8939 515V524H78.7059V516.152H74.6379V520.166C74.6379 521.666 74.3499 522.698 73.7739 523.262C73.2099 523.826 72.4299 524.072 71.4339 524V522.884C72.1179 522.956 72.6219 522.794 72.9459 522.398C73.2819 522.002 73.4499 521.258 73.4499 520.166V515H79.8939ZM88.9624 515H89.9704V524H88.7824V517.07L83.4184 524H82.4104V515H83.5984V521.93L88.9624 515ZM97.1267 519.374C98.1707 519.77 98.6927 520.49 98.6927 521.534C98.6927 522.278 98.3987 522.914 97.8107 523.442C97.2347 523.958 96.4067 524.216 95.3267 524.216C93.5147 524.216 92.3267 523.496 91.7627 522.056L92.7707 521.462C93.1427 522.53 93.9947 523.064 95.3267 523.064C96.0227 523.064 96.5567 522.914 96.9287 522.614C97.3127 522.314 97.5047 521.93 97.5047 521.462C97.5047 521.042 97.3487 520.7 97.0367 520.436C96.7247 520.172 96.3047 520.04 95.7767 520.04H94.4627V518.888H95.4167C95.9327 518.888 96.3347 518.762 96.6227 518.51C96.9227 518.246 97.0727 517.886 97.0727 517.43C97.0727 516.998 96.8987 516.644 96.5507 516.368C96.2027 516.08 95.7347 515.936 95.1467 515.936C94.0187 515.936 93.2687 516.386 92.8967 517.286L91.9067 516.71C92.5067 515.426 93.5867 514.784 95.1467 514.784C96.0947 514.784 96.8507 515.036 97.4147 515.54C97.9787 516.032 98.2607 516.638 98.2607 517.358C98.2607 518.282 97.8827 518.954 97.1267 519.374ZM104.152 518.42C104.992 518.42 105.7 518.684 106.276 519.212C106.864 519.728 107.158 520.394 107.158 521.21C107.158 522.026 106.864 522.698 106.276 523.226C105.7 523.742 104.992 524 104.152 524H100.498V515H101.686V518.42H104.152ZM108.418 515H109.606V524H108.418V515ZM104.152 522.848C104.656 522.848 105.082 522.698 105.43 522.398C105.79 522.098 105.97 521.702 105.97 521.21C105.97 520.718 105.79 520.322 105.43 520.022C105.082 519.722 104.656 519.572 104.152 519.572H101.686V522.848H104.152ZM117.859 519.374C118.843 519.734 119.335 520.436 119.335 521.48C119.335 522.212 119.089 522.818 118.597 523.298C118.117 523.766 117.421 524 116.509 524H112.135V515H116.149C117.025 515 117.703 515.228 118.183 515.684C118.663 516.128 118.903 516.704 118.903 517.412C118.903 518.312 118.555 518.966 117.859 519.374ZM116.149 516.152H113.323V518.888H116.149C117.193 518.888 117.715 518.42 117.715 517.484C117.715 517.064 117.577 516.74 117.301 516.512C117.037 516.272 116.653 516.152 116.149 516.152ZM116.509 522.848C117.037 522.848 117.439 522.722 117.715 522.47C118.003 522.218 118.147 521.864 118.147 521.408C118.147 520.988 118.003 520.658 117.715 520.418C117.439 520.166 117.037 520.04 116.509 520.04H113.323V522.848H116.509ZM128.875 515H130.063V524H128.875V522.236C128.047 523.556 126.835 524.216 125.239 524.216C123.955 524.216 122.857 523.76 121.945 522.848C121.045 521.936 120.595 520.82 120.595 519.5C120.595 518.18 121.045 517.064 121.945 516.152C122.857 515.24 123.955 514.784 125.239 514.784C126.835 514.784 128.047 515.444 128.875 516.764V515ZM122.809 522.038C123.493 522.722 124.333 523.064 125.329 523.064C126.325 523.064 127.165 522.722 127.849 522.038C128.533 521.342 128.875 520.496 128.875 519.5C128.875 518.504 128.533 517.664 127.849 516.98C127.165 516.284 126.325 515.936 125.329 515.936C124.333 515.936 123.493 516.284 122.809 516.98C122.125 517.664 121.783 518.504 121.783 519.5C121.783 520.496 122.125 521.342 122.809 522.038ZM139.058 515V516.152H135.872V524H134.684V516.152H131.498V515H139.058ZM144.16 518.42C145 518.42 145.708 518.684 146.284 519.212C146.872 519.728 147.166 520.394 147.166 521.21C147.166 522.026 146.872 522.698 146.284 523.226C145.708 523.742 145 524 144.16 524H140.506V515H141.694V518.42H144.16ZM144.16 522.848C144.664 522.848 145.09 522.698 145.438 522.398C145.798 522.098 145.978 521.702 145.978 521.21C145.978 520.718 145.798 520.322 145.438 520.022C145.09 519.722 144.664 519.572 144.16 519.572H141.694V522.848H144.16ZM153.067 524.216C151.711 524.216 150.583 523.766 149.683 522.866C148.783 521.954 148.333 520.832 148.333 519.5C148.333 518.168 148.783 517.052 149.683 516.152C150.583 515.24 151.711 514.784 153.067 514.784C153.955 514.784 154.753 515 155.461 515.432C156.169 515.852 156.685 516.422 157.009 517.142L156.037 517.7C155.797 517.16 155.407 516.734 154.867 516.422C154.339 516.098 153.739 515.936 153.067 515.936C152.071 515.936 151.231 516.284 150.547 516.98C149.863 517.664 149.521 518.504 149.521 519.5C149.521 520.496 149.863 521.342 150.547 522.038C151.231 522.722 152.071 523.064 153.067 523.064C153.739 523.064 154.339 522.908 154.867 522.596C155.395 522.272 155.809 521.84 156.109 521.3L157.099 521.876C156.727 522.596 156.181 523.166 155.461 523.586C154.741 524.006 153.943 524.216 153.067 524.216ZM165.109 515V524H163.921V520.544H162.373L159.601 524H158.089L160.933 520.508C160.213 520.4 159.619 520.1 159.151 519.608C158.683 519.116 158.449 518.51 158.449 517.79C158.449 516.974 158.737 516.308 159.313 515.792C159.901 515.264 160.615 515 161.455 515H165.109ZM161.455 519.428H163.921V516.152H161.455C160.951 516.152 160.519 516.302 160.159 516.602C159.811 516.902 159.637 517.298 159.637 517.79C159.637 518.282 159.811 518.678 160.159 518.978C160.519 519.278 160.951 519.428 161.455 519.428ZM179.401 524H177.817L173.317 519.662V524H172.129V515H173.317V518.978L177.601 515H179.221L174.577 519.32L179.401 524ZM192.796 524H191.212L186.712 519.662V524H185.524V515H186.712V518.978L190.996 515H192.616L187.972 519.32L192.796 524ZM201.064 522.866C200.152 523.766 199.036 524.216 197.716 524.216C196.396 524.216 195.274 523.766 194.35 522.866C193.438 521.954 192.982 520.832 192.982 519.5C192.982 518.168 193.438 517.052 194.35 516.152C195.274 515.24 196.396 514.784 197.716 514.784C199.036 514.784 200.152 515.24 201.064 516.152C201.988 517.052 202.45 518.168 202.45 519.5C202.45 520.832 201.988 521.954 201.064 522.866ZM195.196 522.038C195.88 522.722 196.72 523.064 197.716 523.064C198.712 523.064 199.552 522.722 200.236 522.038C200.92 521.342 201.262 520.496 201.262 519.5C201.262 518.504 200.92 517.664 200.236 516.98C199.552 516.284 198.712 515.936 197.716 515.936C196.72 515.936 195.88 516.284 195.196 516.98C194.512 517.664 194.17 518.504 194.17 519.5C194.17 520.496 194.512 521.342 195.196 522.038ZM213.258 515V524H212.07V516.818L208.92 521.93H208.776L205.626 516.818V524H204.438V515H205.806L208.848 519.932L211.89 515H213.258ZM222.256 515H223.516L219.664 524.828C219.316 525.716 218.818 526.412 218.17 526.916C217.534 527.432 216.82 527.66 216.028 527.6V526.484C217.108 526.604 217.93 525.98 218.494 524.612L218.728 524.054L214.696 515H215.956L219.34 522.542L222.256 515ZM224.78 519.014V517.862H231.26V519.014H224.78ZM239.886 515V516.152H236.7V524H235.512V516.152H232.326V515H239.886ZM248.525 522.866C247.613 523.766 246.497 524.216 245.177 524.216C243.857 524.216 242.735 523.766 241.811 522.866C240.899 521.954 240.443 520.832 240.443 519.5C240.443 518.168 240.899 517.052 241.811 516.152C242.735 515.24 243.857 514.784 245.177 514.784C246.497 514.784 247.613 515.24 248.525 516.152C249.449 517.052 249.911 518.168 249.911 519.5C249.911 520.832 249.449 521.954 248.525 522.866ZM242.657 522.038C243.341 522.722 244.181 523.064 245.177 523.064C246.173 523.064 247.013 522.722 247.697 522.038C248.381 521.342 248.723 520.496 248.723 519.5C248.723 518.504 248.381 517.664 247.697 516.98C247.013 516.284 246.173 515.936 245.177 515.936C244.181 515.936 243.341 516.284 242.657 516.98C241.973 517.664 241.631 518.504 241.631 519.5C241.631 520.496 241.973 521.342 242.657 522.038Z" fill="#FFF5D7" fill-opacity="0.6"></path> <path d="M47.296 84.136L60.8 101H65.952V78.6H61.536V95.464L48.032 78.6H42.88V101H47.296V84.136ZM80.4918 97.768C77.4838 97.768 75.1478 96.456 74.5398 94.12H88.2998C88.4918 93.384 88.5878 92.648 88.5878 91.944C88.5878 87.624 84.9398 84.456 80.0758 84.456C74.7318 84.456 70.1878 87.656 70.1878 93C70.1878 97.8 74.1238 101.576 80.0758 101.576C83.0198 101.576 86.0278 100.584 88.1718 99.496L86.9237 96.168C84.6518 97.352 82.6678 97.768 80.4918 97.768ZM79.8198 88.008C82.3158 88.008 83.9158 89.128 84.3318 91.016H74.6358C75.2758 89.064 77.0677 88.008 79.8198 88.008ZM94.39 85H89.75L97.302 101H101.942L109.526 85H104.822L99.638 96.232L94.39 85ZM121.179 97.768C118.171 97.768 115.835 96.456 115.227 94.12H128.987C129.179 93.384 129.275 92.648 129.275 91.944C129.275 87.624 125.627 84.456 120.763 84.456C115.419 84.456 110.875 87.656 110.875 93C110.875 97.8 114.811 101.576 120.763 101.576C123.707 101.576 126.715 100.584 128.859 99.496L127.611 96.168C125.339 97.352 123.355 97.768 121.179 97.768ZM120.507 88.008C123.003 88.008 124.603 89.128 125.019 91.016H115.323C115.963 89.064 117.755 88.008 120.507 88.008ZM142.982 84.456C140.198 84.456 137.99 86.824 137.062 88.552V85H132.838V101H137.062V93.064C137.062 90.12 139.91 88.392 142.566 88.392C143.174 88.392 144.006 88.584 144.774 88.936L145.67 85.096C144.87 84.712 143.878 84.456 142.982 84.456ZM166.436 88.424C168.964 88.424 170.276 89.992 170.276 92.264V101H174.5V91.752C174.5 87.4 172.004 84.52 167.652 84.52C164.612 84.52 162.244 86.472 161.124 88.552V77.288H156.9V101H161.124V93.064C161.124 89.896 163.78 88.424 166.436 88.424ZM184.75 91.88C181.454 91.88 178.19 93.352 178.19 96.776C178.19 99.656 180.43 101.64 183.438 101.64C186.158 101.64 188.59 100.168 190.126 98.344C190.19 100.136 191.086 101.64 193.23 101.64C194.542 101.64 196.462 101 198.222 100.04L197.358 96.776C196.43 97.256 195.598 97.608 195.118 97.608C194.67 97.608 194.35 97.32 194.35 96.84V91.08C194.35 86.696 191.79 84.36 187.406 84.36C184.878 84.36 181.518 85.352 179.534 85.992L180.59 89.832C182.926 88.968 185.358 88.232 187.022 88.232C189.038 88.232 190.126 89.352 190.126 91.016V92.872C188.75 92.392 186.478 91.88 184.75 91.88ZM184.814 98.024C183.47 98.024 182.51 97.48 182.51 96.424C182.51 95.272 183.566 94.6 184.974 94.6C186.51 94.6 188.366 94.76 190.126 95.08V95.688C188.622 97.16 186.414 98.024 184.814 98.024ZM202.859 85H198.219L205.771 101H210.411L217.995 85H213.291L208.107 96.232L202.859 85ZM229.648 97.768C226.64 97.768 224.304 96.456 223.696 94.12H237.456C237.648 93.384 237.744 92.648 237.744 91.944C237.744 87.624 234.096 84.456 229.232 84.456C223.888 84.456 219.344 87.656 219.344 93C219.344 97.8 223.28 101.576 229.232 101.576C232.176 101.576 235.184 100.584 237.328 99.496L236.08 96.168C233.808 97.352 231.824 97.768 229.648 97.768ZM228.976 88.008C231.472 88.008 233.072 89.128 233.488 91.016H223.792C224.432 89.064 226.224 88.008 228.976 88.008ZM255.265 78.6H250.849V101H255.265V78.6ZM278.867 97.768C275.859 97.768 273.523 96.456 272.915 94.12H286.675C286.867 93.384 286.963 92.648 286.963 91.944C286.963 87.624 283.315 84.456 278.451 84.456C273.107 84.456 268.563 87.656 268.563 93C268.563 97.8 272.499 101.576 278.451 101.576C281.395 101.576 284.403 100.584 286.547 99.496L285.299 96.168C283.027 97.352 281.043 97.768 278.867 97.768ZM278.195 88.008C280.691 88.008 282.291 89.128 282.707 91.016H273.011C273.651 89.064 275.443 88.008 278.195 88.008ZM292.765 85H288.125L295.677 101H300.317L307.901 85H303.197L298.013 96.232L292.765 85ZM319.554 97.768C316.546 97.768 314.21 96.456 313.602 94.12H327.362C327.554 93.384 327.65 92.648 327.65 91.944C327.65 87.624 324.002 84.456 319.138 84.456C313.794 84.456 309.25 87.656 309.25 93C309.25 97.8 313.186 101.576 319.138 101.576C322.082 101.576 325.09 100.584 327.234 99.496L325.986 96.168C323.714 97.352 321.73 97.768 319.554 97.768ZM318.882 88.008C321.378 88.008 322.978 89.128 323.394 91.016H313.698C314.338 89.064 316.13 88.008 318.882 88.008ZM341.357 84.456C338.573 84.456 336.365 86.824 335.437 88.552V85H331.213V101H335.437V93.064C335.437 90.12 338.285 88.392 340.941 88.392C341.549 88.392 342.381 88.584 343.149 88.936L344.045 85.096C343.245 84.712 342.253 84.456 341.357 84.456ZM56.544 125.576C54.656 124.936 51.68 124.392 49.152 124.392C44.608 124.392 41.376 126.376 41.376 129.512C41.376 135.752 53.28 133.64 53.28 136.168C53.28 137.288 51.68 137.928 49.376 137.928C46.912 137.928 44.416 137.16 42.304 136.232L41.056 139.56C43.232 140.712 46.208 141.64 49.216 141.64C53.12 141.64 57.44 139.624 57.44 136.04C57.44 129.8 45.536 132.008 45.536 129.352C45.536 128.392 47.2 128.072 49.312 128.072C51.36 128.072 53.344 128.488 55.424 129.288L56.544 125.576ZM67.6788 141.512C70.5908 141.512 73.0548 139.752 74.2068 137.48V141H78.4308V125H74.2068V132.744C74.2068 136.136 71.9348 137.608 69.2468 137.608C66.7188 137.608 65.1828 136.328 65.1828 133.736V125H60.9588V134.28C60.9588 138.632 63.3908 141.512 67.6788 141.512ZM92.0758 124.456C86.7318 124.456 82.1878 127.656 82.1878 133C82.1878 137.8 85.8358 141.576 91.7878 141.576C94.7958 141.576 97.5478 140.648 99.7238 139.496L98.4757 136.168C96.3638 137.096 94.6678 137.768 92.3318 137.768C89.0038 137.768 86.4438 135.912 86.4438 132.84C86.4438 129.928 88.7478 128.168 91.8198 128.168C93.9958 128.168 95.8518 128.616 98.0598 129.512L99.0838 125.736C97.1638 125.064 94.7318 124.456 92.0758 124.456ZM107.091 117H102.931V141H107.091V117ZM112.947 139.848C113.811 140.872 114.835 141.416 115.923 141.416C117.203 141.416 118.579 140.808 120.051 140.168L119.059 136.744C118.291 137.064 117.587 137.416 116.947 137.416C116.595 137.416 116.275 137.32 115.987 137.032L112.243 133.16L119.955 125H114.547L107.315 133.288L112.947 139.848ZM132.492 137.768C129.484 137.768 127.148 136.456 126.54 134.12H140.3C140.492 133.384 140.588 132.648 140.588 131.944C140.588 127.624 136.94 124.456 132.076 124.456C126.732 124.456 122.188 127.656 122.188 133C122.188 137.8 126.124 141.576 132.076 141.576C135.02 141.576 138.028 140.584 140.172 139.496L138.924 136.168C136.652 137.352 134.668 137.768 132.492 137.768ZM131.82 128.008C134.316 128.008 135.916 129.128 136.332 131.016H126.636C127.276 129.064 129.068 128.008 131.82 128.008ZM151.158 141.544C154.422 141.544 156.982 139.656 158.038 137.448V141H162.262V117H158.038V125.576C156.438 125.064 154.23 124.424 152.502 124.424C147.126 124.424 143.094 128.36 143.094 133.16C143.094 138.344 146.774 141.544 151.158 141.544ZM152.406 137.608C149.558 137.608 147.35 136.008 147.35 133.128C147.35 130.312 149.558 128.136 152.438 128.136C154.39 128.136 156.182 128.552 158.038 129.096V132.552C158.038 135.624 155.222 137.608 152.406 137.608ZM182.679 141.512C185.591 141.512 188.055 139.752 189.207 137.48V141H193.431V125H189.207V132.744C189.207 136.136 186.935 137.608 184.247 137.608C181.719 137.608 180.183 136.328 180.183 133.736V125H175.959V134.28C175.959 138.632 178.391 141.512 182.679 141.512ZM209.348 124.456C206.084 124.456 203.524 126.344 202.468 128.552V125H198.244V148.68H202.468V140.456C204.036 140.936 206.244 141.576 208.004 141.576C213.38 141.576 217.412 137.64 217.412 132.84C217.412 127.656 213.732 124.456 209.348 124.456ZM208.1 128.392C210.948 128.392 213.156 129.96 213.156 132.84C213.156 135.528 210.82 137.864 208.068 137.864C206.084 137.864 204.292 137.448 202.468 136.904V133.064C202.468 130.12 205.252 128.392 208.1 128.392ZM228.453 128.68H231.493V134.888C231.493 138.92 233.637 141.544 237.605 141.544C239.301 141.544 241.573 140.808 242.917 140.104L241.989 136.488C240.965 137.128 239.557 137.64 238.309 137.64C236.645 137.64 235.717 136.456 235.717 134.728V128.68H242.373V125H235.717V120.2H232.197L231.621 125.128L228.453 125.32V128.68ZM255.015 124.456C249.671 124.456 245.063 127.496 245.063 132.84C245.063 137.64 249.223 141.576 255.015 141.576C260.807 141.576 264.967 137.64 264.967 132.84C264.967 127.496 260.359 124.456 255.015 124.456ZM255.015 128.136C258.343 128.136 260.711 129.864 260.711 132.84C260.711 135.528 258.183 137.928 255.015 137.928C251.847 137.928 249.319 135.528 249.319 132.84C249.319 129.864 251.687 128.136 255.015 128.136ZM56.544 165.576C54.656 164.936 51.68 164.392 49.152 164.392C44.608 164.392 41.376 166.376 41.376 169.512C41.376 175.752 53.28 173.64 53.28 176.168C53.28 177.288 51.68 177.928 49.376 177.928C46.912 177.928 44.416 177.16 42.304 176.232L41.056 179.56C43.232 180.712 46.208 181.64 49.216 181.64C53.12 181.64 57.44 179.624 57.44 176.04C57.44 169.8 45.536 172.008 45.536 169.352C45.536 168.392 47.2 168.072 49.312 168.072C51.36 168.072 53.344 168.488 55.424 169.288L56.544 165.576ZM70.0148 164.456C64.6708 164.456 60.0628 167.496 60.0628 172.84C60.0628 177.64 64.2228 181.576 70.0148 181.576C75.8068 181.576 79.9668 177.64 79.9668 172.84C79.9668 167.496 75.3588 164.456 70.0148 164.456ZM70.0148 168.136C73.3428 168.136 75.7108 169.864 75.7108 172.84C75.7108 175.528 73.1828 177.928 70.0148 177.928C66.8468 177.928 64.3188 175.528 64.3188 172.84C64.3188 169.864 66.6868 168.136 70.0148 168.136ZM93.9525 164.52C91.1685 164.52 88.9925 166.504 87.9365 168.392V165H83.7125V181H87.9365V173.032C87.9365 169.96 90.3045 168.424 92.5125 168.424C94.8485 168.424 96.0965 169.992 96.0965 172.104V181H100.321V173.032C100.321 169.992 102.689 168.424 104.897 168.424C107.233 168.424 108.481 169.992 108.481 172.104V181H112.705V171.592C112.705 167.368 110.497 164.52 106.337 164.52C103.649 164.52 101.089 166.504 99.8085 168.424C98.9125 166.024 96.9605 164.52 93.9525 164.52ZM126.586 177.768C123.578 177.768 121.242 176.456 120.634 174.12H134.394C134.586 173.384 134.682 172.648 134.682 171.944C134.682 167.624 131.034 164.456 126.17 164.456C120.826 164.456 116.282 167.656 116.282 173C116.282 177.8 120.218 181.576 126.17 181.576C129.114 181.576 132.122 180.584 134.266 179.496L133.017 176.168C130.746 177.352 128.762 177.768 126.586 177.768ZM125.914 168.008C128.41 168.008 130.01 169.128 130.426 171.016H120.73C121.37 169.064 123.161 168.008 125.914 168.008ZM149.22 164.456C146.052 164.456 143.524 166.344 142.468 168.552V157H138.244V179.4C140.324 180.328 144.676 181.576 147.876 181.576C153.124 181.576 157.156 177.64 157.156 172.84C157.156 167.656 153.476 164.456 149.22 164.456ZM147.972 168.392C150.756 168.392 152.9 169.96 152.9 172.84C152.9 175.528 150.564 177.864 147.94 177.864C145.988 177.864 144.324 177.544 142.468 176.936V173.064C142.468 170.12 145.284 168.392 147.972 168.392ZM169.796 164.456C164.452 164.456 159.844 167.496 159.844 172.84C159.844 177.64 164.004 181.576 169.796 181.576C175.588 181.576 179.748 177.64 179.748 172.84C179.748 167.496 175.14 164.456 169.796 164.456ZM169.796 168.136C173.124 168.136 175.492 169.864 175.492 172.84C175.492 175.528 172.964 177.928 169.796 177.928C166.628 177.928 164.1 175.528 164.1 172.84C164.1 169.864 166.468 168.136 169.796 168.136ZM190.502 181.544C193.766 181.544 196.326 179.656 197.382 177.448V181H201.606V157H197.382V165.576C195.782 165.064 193.574 164.424 191.846 164.424C186.47 164.424 182.438 168.36 182.438 173.16C182.438 178.344 186.118 181.544 190.502 181.544ZM191.75 177.608C188.902 177.608 186.694 176.008 186.694 173.128C186.694 170.312 188.902 168.136 191.782 168.136C193.734 168.136 195.526 168.552 197.382 169.096V172.552C197.382 175.624 194.566 177.608 191.75 177.608ZM223.84 165H219.2C217.76 168.424 216 172.552 214.336 176.424L208.608 165H204L212.256 181.224C212.256 181.256 212.192 181.32 212.192 181.384C211.392 183.176 210.496 184.936 208.8 184.936C208.576 184.936 207.936 184.872 207.36 184.776L207.136 188.84C207.68 188.936 208.384 189 208.608 189C213.12 189 214.592 185.736 216.128 182.312L223.84 165ZM233.546 168.68H236.586V174.888C236.586 178.92 238.73 181.544 242.698 181.544C244.394 181.544 246.666 180.808 248.01 180.104L247.082 176.488C246.058 177.128 244.65 177.64 243.402 177.64C241.738 177.64 240.81 176.456 240.81 174.728V168.68H247.466V165H240.81V160.2H237.29L236.714 165.128L233.546 165.32V168.68ZM260.109 164.456C254.765 164.456 250.157 167.496 250.157 172.84C250.157 177.64 254.317 181.576 260.109 181.576C265.901 181.576 270.061 177.64 270.061 172.84C270.061 167.496 265.453 164.456 260.109 164.456ZM260.109 168.136C263.437 168.136 265.805 169.864 265.805 172.84C265.805 175.528 263.277 177.928 260.109 177.928C256.941 177.928 254.413 175.528 254.413 172.84C254.413 169.864 256.781 168.136 260.109 168.136ZM288.565 178.888C287.509 178.888 286.965 178.504 286.965 177.96C286.965 177.512 287.381 177.192 287.765 177.096C288.501 177.224 289.301 177.288 290.101 177.288C294.933 177.288 298.453 174.536 298.453 170.888C298.453 169.8 298.165 168.84 297.717 168.04C298.485 167.656 299.381 167.432 300.501 167.304L299.733 163.368C297.685 163.72 296.085 164.488 294.869 165.48C293.493 164.808 291.829 164.456 290.101 164.456C285.717 164.456 281.781 166.664 281.781 170.888C281.781 172.616 283.157 174.376 284.629 175.336C283.829 175.848 282.901 176.68 282.901 177.736C282.901 178.76 283.573 179.88 284.437 180.296C282.837 180.712 281.141 182.28 281.141 183.976C281.141 187.336 284.917 189.096 290.741 189.096C296.213 189.096 300.245 187.304 300.245 183.656C300.245 180.328 296.213 178.888 290.741 178.888H288.565ZM290.069 167.944C292.341 167.944 294.069 168.936 294.069 170.76C294.069 172.264 292.501 173.512 290.069 173.512C287.765 173.512 286.037 172.36 286.037 170.76C286.037 168.936 287.765 167.944 290.069 167.944ZM290.677 182.472C293.973 182.472 296.149 182.92 296.149 184.008C296.149 185.192 293.973 185.64 290.677 185.64C287.157 185.64 285.205 185.128 285.205 183.976C285.205 183.336 285.813 182.792 286.517 182.504C287.061 182.472 290.037 182.472 290.677 182.472ZM312.304 177.768C309.296 177.768 306.96 176.456 306.352 174.12H320.112C320.304 173.384 320.4 172.648 320.4 171.944C320.4 167.624 316.752 164.456 311.888 164.456C306.544 164.456 302 167.656 302 173C302 177.8 305.936 181.576 311.888 181.576C314.832 181.576 317.84 180.584 319.984 179.496L318.736 176.168C316.464 177.352 314.48 177.768 312.304 177.768ZM311.632 168.008C314.128 168.008 315.728 169.128 316.144 171.016H306.448C307.088 169.064 308.88 168.008 311.632 168.008ZM322.203 168.68H325.243V174.888C325.243 178.92 327.387 181.544 331.355 181.544C333.051 181.544 335.323 180.808 336.667 180.104L335.739 176.488C334.715 177.128 333.307 177.64 332.059 177.64C330.395 177.64 329.467 176.456 329.467 174.728V168.68H336.123V165H329.467V160.2H325.947L325.371 165.128L322.203 165.32V168.68ZM56.544 205.576C54.656 204.936 51.68 204.392 49.152 204.392C44.608 204.392 41.376 206.376 41.376 209.512C41.376 215.752 53.28 213.64 53.28 216.168C53.28 217.288 51.68 217.928 49.376 217.928C46.912 217.928 44.416 217.16 42.304 216.232L41.056 219.56C43.232 220.712 46.208 221.64 49.216 221.64C53.12 221.64 57.44 219.624 57.44 216.04C57.44 209.8 45.536 212.008 45.536 209.352C45.536 208.392 47.2 208.072 49.312 208.072C51.36 208.072 53.344 208.488 55.424 209.288L56.544 205.576ZM70.0148 204.456C64.6708 204.456 60.0628 207.496 60.0628 212.84C60.0628 217.64 64.2228 221.576 70.0148 221.576C75.8068 221.576 79.9668 217.64 79.9668 212.84C79.9668 207.496 75.3588 204.456 70.0148 204.456ZM70.0148 208.136C73.3428 208.136 75.7108 209.864 75.7108 212.84C75.7108 215.528 73.1828 217.928 70.0148 217.928C66.8468 217.928 64.3188 215.528 64.3188 212.84C64.3188 209.864 66.6868 208.136 70.0148 208.136ZM93.9525 204.52C91.1685 204.52 88.9925 206.504 87.9365 208.392V205H83.7125V221H87.9365V213.032C87.9365 209.96 90.3045 208.424 92.5125 208.424C94.8485 208.424 96.0965 209.992 96.0965 212.104V221H100.321V213.032C100.321 209.992 102.689 208.424 104.897 208.424C107.233 208.424 108.481 209.992 108.481 212.104V221H112.705V211.592C112.705 207.368 110.497 204.52 106.337 204.52C103.649 204.52 101.089 206.504 99.8085 208.424C98.9125 206.024 96.9605 204.52 93.9525 204.52ZM126.586 217.768C123.578 217.768 121.242 216.456 120.634 214.12H134.394C134.586 213.384 134.682 212.648 134.682 211.944C134.682 207.624 131.034 204.456 126.17 204.456C120.826 204.456 116.282 207.656 116.282 213C116.282 217.8 120.218 221.576 126.17 221.576C129.114 221.576 132.122 220.584 134.266 219.496L133.017 216.168C130.746 217.352 128.762 217.768 126.586 217.768ZM125.914 208.008C128.41 208.008 130.01 209.128 130.426 211.016H120.73C121.37 209.064 123.161 208.008 125.914 208.008ZM136.484 208.68H139.524V214.888C139.524 218.92 141.668 221.544 145.636 221.544C147.332 221.544 149.604 220.808 150.948 220.104L150.02 216.488C148.996 217.128 147.588 217.64 146.34 217.64C144.676 217.64 143.748 216.456 143.748 214.728V208.68H150.404V205H143.748V200.2H140.228L139.652 205.128L136.484 205.32V208.68ZM163.686 208.424C166.214 208.424 167.526 209.992 167.526 212.264V221H171.75V211.752C171.75 207.4 169.254 204.52 164.902 204.52C161.862 204.52 159.494 206.472 158.374 208.552V197.288H154.15V221H158.374V213.064C158.374 209.896 161.03 208.424 163.686 208.424ZM180.624 205H176.464V221H180.624V205ZM176.016 200.392C176.016 201.8 177.136 202.92 178.544 202.92C179.952 202.92 181.072 201.8 181.072 200.392C181.072 199.016 179.952 197.896 178.544 197.896C177.136 197.896 176.016 199.016 176.016 200.392ZM195.03 208.424C197.558 208.424 198.87 209.992 198.87 212.264V221H203.094V211.752C203.094 207.4 200.598 204.52 196.246 204.52C193.206 204.52 190.838 206.472 189.718 208.552V205H185.494V221H189.718V213.064C189.718 209.896 192.374 208.424 195.03 208.424ZM213.44 218.888C212.384 218.888 211.84 218.504 211.84 217.96C211.84 217.512 212.256 217.192 212.64 217.096C213.376 217.224 214.176 217.288 214.976 217.288C219.808 217.288 223.328 214.536 223.328 210.888C223.328 209.8 223.04 208.84 222.592 208.04C223.36 207.656 224.256 207.432 225.376 207.304L224.608 203.368C222.56 203.72 220.96 204.488 219.744 205.48C218.368 204.808 216.704 204.456 214.976 204.456C210.592 204.456 206.656 206.664 206.656 210.888C206.656 212.616 208.032 214.376 209.504 215.336C208.704 215.848 207.776 216.68 207.776 217.736C207.776 218.76 208.448 219.88 209.312 220.296C207.712 220.712 206.016 222.28 206.016 223.976C206.016 227.336 209.792 229.096 215.616 229.096C221.088 229.096 225.12 227.304 225.12 223.656C225.12 220.328 221.088 218.888 215.616 218.888H213.44ZM214.944 207.944C217.216 207.944 218.944 208.936 218.944 210.76C218.944 212.264 217.376 213.512 214.944 213.512C212.64 213.512 210.912 212.36 210.912 210.76C210.912 208.936 212.64 207.944 214.944 207.944ZM215.552 222.472C218.848 222.472 221.024 222.92 221.024 224.008C221.024 225.192 218.848 225.64 215.552 225.64C212.032 225.64 210.08 225.128 210.08 223.976C210.08 223.336 210.688 222.792 211.392 222.504C211.936 222.472 214.912 222.472 215.552 222.472Z" fill="#FFFAED"></path> </svg> 