<?xml version="1.0" encoding="UTF-8"?> <svg xmlns="http://www.w3.org/2000/svg" width="400" height="600" viewBox="0 0 400 600" fill="none"><rect width="400" height="600" rx="20" fill="#E7497E"></rect><path d="M47.296 84.136L60.8 101H65.952V78.6H61.536V95.464L48.032 78.6H42.88V101H47.296V84.136ZM80.4918 97.768C77.4838 97.768 75.1478 96.456 74.5398 94.12H88.2998C88.4918 93.384 88.5878 92.648 88.5878 91.944C88.5878 87.624 84.9398 84.456 80.0758 84.456C74.7318 84.456 70.1878 87.656 70.1878 93C70.1878 97.8 74.1238 101.576 80.0758 101.576C83.0198 101.576 86.0278 100.584 88.1718 99.496L86.9237 96.168C84.6518 97.352 82.6678 97.768 80.4918 97.768ZM79.8198 88.008C82.3158 88.008 83.9158 89.128 84.3318 91.016H74.6358C75.2758 89.064 77.0677 88.008 79.8198 88.008ZM94.39 85H89.75L97.302 101H101.942L109.526 85H104.822L99.638 96.232L94.39 85ZM121.179 97.768C118.171 97.768 115.835 96.456 115.227 94.12H128.987C129.179 93.384 129.275 92.648 129.275 91.944C129.275 87.624 125.627 84.456 120.763 84.456C115.419 84.456 110.875 87.656 110.875 93C110.875 97.8 114.811 101.576 120.763 101.576C123.707 101.576 126.715 100.584 128.859 99.496L127.611 96.168C125.339 97.352 123.355 97.768 121.179 97.768ZM120.507 88.008C123.003 88.008 124.603 89.128 125.019 91.016H115.323C115.963 89.064 117.755 88.008 120.507 88.008ZM142.982 84.456C140.198 84.456 137.99 86.824 137.062 88.552V85H132.838V101H137.062V93.064C137.062 90.12 139.91 88.392 142.566 88.392C143.174 88.392 144.006 88.584 144.774 88.936L145.67 85.096C144.87 84.712 143.878 84.456 142.982 84.456ZM166.436 88.424C168.964 88.424 170.276 89.992 170.276 92.264V101H174.5V91.752C174.5 87.4 172.004 84.52 167.652 84.52C164.612 84.52 162.244 86.472 161.124 88.552V77.288H156.9V101H161.124V93.064C161.124 89.896 163.78 88.424 166.436 88.424ZM184.75 91.88C181.454 91.88 178.19 93.352 178.19 96.776C178.19 99.656 180.43 101.64 183.438 101.64C186.158 101.64 188.59 100.168 190.126 98.344C190.19 100.136 191.086 101.64 193.23 101.64C194.542 101.64 196.462 101 198.222 100.04L197.358 96.776C196.43 97.256 195.598 97.608 195.118 97.608C194.67 97.608 194.35 97.32 194.35 96.84V91.08C194.35 86.696 191.79 84.36 187.406 84.36C184.878 84.36 181.518 85.352 179.534 85.992L180.59 89.832C182.926 88.968 185.358 88.232 187.022 88.232C189.038 88.232 190.126 89.352 190.126 91.016V92.872C188.75 92.392 186.478 91.88 184.75 91.88ZM184.814 98.024C183.47 98.024 182.51 97.48 182.51 96.424C182.51 95.272 183.566 94.6 184.974 94.6C186.51 94.6 188.366 94.76 190.126 95.08V95.688C188.622 97.16 186.414 98.024 184.814 98.024ZM202.859 85H198.219L205.771 101H210.411L217.995 85H213.291L208.107 96.232L202.859 85ZM229.648 97.768C226.64 97.768 224.304 96.456 223.696 94.12H237.456C237.648 93.384 237.744 92.648 237.744 91.944C237.744 87.624 234.096 84.456 229.232 84.456C223.888 84.456 219.344 87.656 219.344 93C219.344 97.8 223.28 101.576 229.232 101.576C232.176 101.576 235.184 100.584 237.328 99.496L236.08 96.168C233.808 97.352 231.824 97.768 229.648 97.768ZM228.976 88.008C231.472 88.008 233.072 89.128 233.488 91.016H223.792C224.432 89.064 226.224 88.008 228.976 88.008ZM255.265 78.6H250.849V101H255.265V78.6ZM278.867 97.768C275.859 97.768 273.523 96.456 272.915 94.12H286.675C286.867 93.384 286.963 92.648 286.963 91.944C286.963 87.624 283.315 84.456 278.451 84.456C273.107 84.456 268.563 87.656 268.563 93C268.563 97.8 272.499 101.576 278.451 101.576C281.395 101.576 284.403 100.584 286.547 99.496L285.299 96.168C283.027 97.352 281.043 97.768 278.867 97.768ZM278.195 88.008C280.691 88.008 282.291 89.128 282.707 91.016H273.011C273.651 89.064 275.443 88.008 278.195 88.008ZM292.765 85H288.125L295.677 101H300.317L307.901 85H303.197L298.013 96.232L292.765 85ZM319.554 97.768C316.546 97.768 314.21 96.456 313.602 94.12H327.362C327.554 93.384 327.65 92.648 327.65 91.944C327.65 87.624 324.002 84.456 319.138 84.456C313.794 84.456 309.25 87.656 309.25 93C309.25 97.8 313.186 101.576 319.138 101.576C322.082 101.576 325.09 100.584 327.234 99.496L325.986 96.168C323.714 97.352 321.73 97.768 319.554 97.768ZM318.882 88.008C321.378 88.008 322.978 89.128 323.394 91.016H313.698C314.338 89.064 316.13 88.008 318.882 88.008ZM341.357 84.456C338.573 84.456 336.365 86.824 335.437 88.552V85H331.213V101H335.437V93.064C335.437 90.12 338.285 88.392 340.941 88.392C341.549 88.392 342.381 88.584 343.149 88.936L344.045 85.096C343.245 84.712 342.253 84.456 341.357 84.456ZM48 131.88C44.704 131.88 41.44 133.352 41.44 136.776C41.44 139.656 43.68 141.64 46.688 141.64C49.408 141.64 51.84 140.168 53.376 138.344C53.44 140.136 54.336 141.64 56.48 141.64C57.792 141.64 59.712 141 61.472 140.04L60.608 136.776C59.68 137.256 58.848 137.608 58.368 137.608C57.92 137.608 57.6 137.32 57.6 136.84V131.08C57.6 126.696 55.04 124.36 50.656 124.36C48.128 124.36 44.768 125.352 42.784 125.992L43.84 129.832C46.176 128.968 48.608 128.232 50.272 128.232C52.288 128.232 53.376 129.352 53.376 131.016V132.872C52 132.392 49.728 131.88 48 131.88ZM48.064 138.024C46.72 138.024 45.76 137.48 45.76 136.424C45.76 135.272 46.816 134.6 48.224 134.6C49.76 134.6 51.616 134.76 53.376 135.08V135.688C51.872 137.16 49.664 138.024 48.064 138.024ZM78.0128 125.576C76.1248 124.936 73.1488 124.392 70.6208 124.392C66.0768 124.392 62.8448 126.376 62.8448 129.512C62.8448 135.752 74.7488 133.64 74.7488 136.168C74.7488 137.288 73.1488 137.928 70.8448 137.928C68.3808 137.928 65.8848 137.16 63.7728 136.232L62.5247 139.56C64.7008 140.712 67.6768 141.64 70.6848 141.64C74.5888 141.64 78.9088 139.624 78.9088 136.04C78.9088 129.8 67.0048 132.008 67.0048 129.352C67.0048 128.392 68.6688 128.072 70.7808 128.072C72.8288 128.072 74.8128 128.488 76.8928 129.288L78.0128 125.576ZM86.7475 117H82.5875V141H86.7475V117ZM92.6035 139.848C93.4675 140.872 94.4915 141.416 95.5795 141.416C96.8595 141.416 98.2355 140.808 99.7075 140.168L98.7155 136.744C97.9475 137.064 97.2435 137.416 96.6035 137.416C96.2515 137.416 95.9315 137.32 95.6435 137.032L91.8995 133.16L99.6115 125H94.2035L86.9715 133.288L92.6035 139.848ZM112.148 137.768C109.14 137.768 106.804 136.456 106.196 134.12H119.956C120.148 133.384 120.244 132.648 120.244 131.944C120.244 127.624 116.596 124.456 111.732 124.456C106.388 124.456 101.844 127.656 101.844 133C101.844 137.8 105.78 141.576 111.732 141.576C114.676 141.576 117.684 140.584 119.828 139.496L118.58 136.168C116.308 137.352 114.324 137.768 112.148 137.768ZM111.476 128.008C113.972 128.008 115.572 129.128 115.988 131.016H106.292C106.932 129.064 108.724 128.008 111.476 128.008ZM130.814 141.544C134.078 141.544 136.638 139.656 137.694 137.448V141H141.918V117H137.694V125.576C136.094 125.064 133.886 124.424 132.158 124.424C126.782 124.424 122.75 128.36 122.75 133.16C122.75 138.344 126.43 141.544 130.814 141.544ZM132.062 137.608C129.214 137.608 127.006 136.008 127.006 133.128C127.006 130.312 129.214 128.136 132.094 128.136C134.046 128.136 135.838 128.552 137.694 129.096V132.552C137.694 135.624 134.878 137.608 132.062 137.608ZM161.375 131.88C158.079 131.88 154.815 133.352 154.815 136.776C154.815 139.656 157.055 141.64 160.063 141.64C162.783 141.64 165.215 140.168 166.751 138.344C166.815 140.136 167.711 141.64 169.855 141.64C171.167 141.64 173.087 141 174.847 140.04L173.983 136.776C173.055 137.256 172.223 137.608 171.743 137.608C171.295 137.608 170.975 137.32 170.975 136.84V131.08C170.975 126.696 168.415 124.36 164.031 124.36C161.503 124.36 158.143 125.352 156.159 125.992L157.215 129.832C159.551 128.968 161.983 128.232 163.647 128.232C165.663 128.232 166.751 129.352 166.751 131.016V132.872C165.375 132.392 163.103 131.88 161.375 131.88ZM161.439 138.024C160.095 138.024 159.135 137.48 159.135 136.424C159.135 135.272 160.191 134.6 161.599 134.6C163.135 134.6 164.991 134.76 166.751 135.08V135.688C165.247 137.16 163.039 138.024 161.439 138.024ZM193.698 120.424C195.074 120.424 196.578 120.872 198.05 121.512L199.074 117.64C197.57 117.128 195.65 116.68 193.826 116.68C189.89 116.68 187.17 119.08 187.17 122.76V125H184.546V128.68H187.202V141H191.362V128.68H198.466V125H191.202V122.952C191.202 121.224 192.162 120.424 193.698 120.424ZM211.263 124.456C208.479 124.456 206.271 126.824 205.343 128.552V125H201.119V141H205.343V133.064C205.343 130.12 208.191 128.392 210.847 128.392C211.455 128.392 212.287 128.584 213.055 128.936L213.951 125.096C213.151 124.712 212.159 124.456 211.263 124.456ZM220.343 125H216.183V141H220.343V125ZM215.735 120.392C215.735 121.8 216.855 122.92 218.263 122.92C219.671 122.92 220.791 121.8 220.791 120.392C220.791 119.016 219.671 117.896 218.263 117.896C216.855 117.896 215.735 119.016 215.735 120.392ZM234.461 137.768C231.453 137.768 229.117 136.456 228.509 134.12H242.269C242.461 133.384 242.557 132.648 242.557 131.944C242.557 127.624 238.909 124.456 234.045 124.456C228.701 124.456 224.157 127.656 224.157 133C224.157 137.8 228.093 141.576 234.045 141.576C236.989 141.576 239.997 140.584 242.141 139.496L240.892 136.168C238.621 137.352 236.637 137.768 234.461 137.768ZM233.789 128.008C236.285 128.008 237.885 129.128 238.301 131.016H228.605C229.245 129.064 231.036 128.008 233.789 128.008ZM255.655 128.424C258.183 128.424 259.495 129.992 259.495 132.264V141H263.719V131.752C263.719 127.4 261.223 124.52 256.871 124.52C253.831 124.52 251.463 126.472 250.343 128.552V125H246.119V141H250.343V133.064C250.343 129.896 252.999 128.424 255.655 128.424ZM275.377 141.544C278.641 141.544 281.201 139.656 282.257 137.448V141H286.481V117H282.257V125.576C280.657 125.064 278.449 124.424 276.721 124.424C271.345 124.424 267.313 128.36 267.313 133.16C267.313 138.344 270.993 141.544 275.377 141.544ZM276.625 137.608C273.777 137.608 271.569 136.008 271.569 133.128C271.569 130.312 273.777 128.136 276.657 128.136C278.609 128.136 280.401 128.552 282.257 129.096V132.552C282.257 135.624 279.441 137.608 276.625 137.608ZM292.491 141L299.339 118.6H295.691L288.843 141H292.491ZM53.504 164.456C50.24 164.456 47.68 166.344 46.624 168.552V165H42.4V188.68H46.624V180.456C48.192 180.936 50.4 181.576 52.16 181.576C57.536 181.576 61.568 177.64 61.568 172.84C61.568 167.656 57.888 164.456 53.504 164.456ZM52.256 168.392C55.104 168.392 57.312 169.96 57.312 172.84C57.312 175.528 54.976 177.864 52.224 177.864C50.24 177.864 48.448 177.448 46.624 176.904V173.064C46.624 170.12 49.408 168.392 52.256 168.392ZM70.9062 171.88C67.6102 171.88 64.3463 173.352 64.3463 176.776C64.3463 179.656 66.5863 181.64 69.5943 181.64C72.3142 181.64 74.7463 180.168 76.2823 178.344C76.3463 180.136 77.2423 181.64 79.3863 181.64C80.6983 181.64 82.6183 181 84.3783 180.04L83.5143 176.776C82.5863 177.256 81.7543 177.608 81.2743 177.608C80.8263 177.608 80.5063 177.32 80.5063 176.84V171.08C80.5063 166.696 77.9463 164.36 73.5623 164.36C71.0343 164.36 67.6743 165.352 65.6903 165.992L66.7463 169.832C69.0823 168.968 71.5143 168.232 73.1783 168.232C75.1943 168.232 76.2823 169.352 76.2823 171.016V172.872C74.9063 172.392 72.6343 171.88 70.9062 171.88ZM70.9703 178.024C69.6263 178.024 68.6663 177.48 68.6663 176.424C68.6663 175.272 69.7223 174.6 71.1302 174.6C72.6663 174.6 74.5223 174.76 76.2823 175.08V175.688C74.7783 177.16 72.5703 178.024 70.9703 178.024ZM96.919 164.456C94.135 164.456 91.927 166.824 90.999 168.552V165H86.775V181H90.999V173.064C90.999 170.12 93.847 168.392 96.503 168.392C97.111 168.392 97.943 168.584 98.711 168.936L99.607 165.096C98.807 164.712 97.815 164.456 96.919 164.456ZM100.015 168.68H103.055V174.888C103.055 178.92 105.199 181.544 109.167 181.544C110.863 181.544 113.135 180.808 114.479 180.104L113.551 176.488C112.527 177.128 111.119 177.64 109.871 177.64C108.207 177.64 107.279 176.456 107.279 174.728V168.68H113.935V165H107.279V160.2H103.759L103.183 165.128L100.015 165.32V168.68ZM127.217 168.424C129.745 168.424 131.057 169.992 131.057 172.264V181H135.281V171.752C135.281 167.4 132.785 164.52 128.433 164.52C125.393 164.52 123.025 166.472 121.905 168.552V165H117.681V181H121.905V173.064C121.905 169.896 124.561 168.424 127.217 168.424ZM149.179 177.768C146.171 177.768 143.835 176.456 143.227 174.12H156.987C157.179 173.384 157.275 172.648 157.275 171.944C157.275 167.624 153.627 164.456 148.763 164.456C143.419 164.456 138.875 167.656 138.875 173C138.875 177.8 142.811 181.576 148.763 181.576C151.707 181.576 154.715 180.584 156.859 179.496L155.611 176.168C153.339 177.352 151.355 177.768 149.179 177.768ZM148.507 168.008C151.003 168.008 152.603 169.128 153.019 171.016H143.323C143.963 169.064 145.755 168.008 148.507 168.008ZM170.982 164.456C168.198 164.456 165.99 166.824 165.062 168.552V165H160.838V181H165.062V173.064C165.062 170.12 167.91 168.392 170.566 168.392C171.174 168.392 172.006 168.584 172.774 168.936L173.67 165.096C172.87 164.712 171.878 164.456 170.982 164.456ZM183.14 168.68H186.18V174.888C186.18 178.92 188.324 181.544 192.292 181.544C193.988 181.544 196.26 180.808 197.604 180.104L196.676 176.488C195.652 177.128 194.244 177.64 192.996 177.64C191.332 177.64 190.404 176.456 190.404 174.728V168.68H197.06V165H190.404V160.2H186.884L186.308 165.128L183.14 165.32V168.68ZM209.702 164.456C204.358 164.456 199.75 167.496 199.75 172.84C199.75 177.64 203.91 181.576 209.702 181.576C215.494 181.576 219.654 177.64 219.654 172.84C219.654 167.496 215.046 164.456 209.702 164.456ZM209.702 168.136C213.03 168.136 215.398 169.864 215.398 172.84C215.398 175.528 212.87 177.928 209.702 177.928C206.534 177.928 204.006 175.528 204.006 172.84C204.006 169.864 206.374 168.136 209.702 168.136ZM241.711 177.768C238.703 177.768 236.367 176.456 235.759 174.12H249.519C249.711 173.384 249.807 172.648 249.807 171.944C249.807 167.624 246.159 164.456 241.295 164.456C235.951 164.456 231.407 167.656 231.407 173C231.407 177.8 235.343 181.576 241.295 181.576C244.239 181.576 247.247 180.584 249.391 179.496L248.142 176.168C245.871 177.352 243.887 177.768 241.711 177.768ZM241.039 168.008C243.535 168.008 245.135 169.128 245.551 171.016H235.855C236.495 169.064 238.286 168.008 241.039 168.008ZM267.513 165.576C265.625 164.936 262.649 164.392 260.121 164.392C255.577 164.392 252.345 166.376 252.345 169.512C252.345 175.752 264.249 173.64 264.249 176.168C264.249 177.288 262.649 177.928 260.345 177.928C257.881 177.928 255.385 177.16 253.273 176.232L252.025 179.56C254.201 180.712 257.177 181.64 260.185 181.64C264.089 181.64 268.409 179.624 268.409 176.04C268.409 169.8 256.505 172.008 256.505 169.352C256.505 168.392 258.169 168.072 260.281 168.072C262.329 168.072 264.313 168.488 266.393 169.288L267.513 165.576ZM280.92 164.456C275.576 164.456 271.032 167.656 271.032 173C271.032 177.8 274.68 181.576 280.632 181.576C283.64 181.576 286.392 180.648 288.568 179.496L287.319 176.168C285.208 177.096 283.512 177.768 281.176 177.768C277.848 177.768 275.288 175.912 275.288 172.84C275.288 169.928 277.592 168.168 280.664 168.168C282.84 168.168 284.696 168.616 286.904 169.512L287.928 165.736C286.008 165.064 283.576 164.456 280.92 164.456ZM300.671 164.456C295.327 164.456 290.719 167.496 290.719 172.84C290.719 177.64 294.879 181.576 300.671 181.576C306.463 181.576 310.623 177.64 310.623 172.84C310.623 167.496 306.015 164.456 300.671 164.456ZM300.671 168.136C303.999 168.136 306.367 169.864 306.367 172.84C306.367 175.528 303.839 177.928 300.671 177.928C297.503 177.928 294.975 175.528 294.975 172.84C294.975 169.864 297.343 168.136 300.671 168.136ZM324.513 164.456C321.729 164.456 319.521 166.824 318.593 168.552V165H314.369V181H318.593V173.064C318.593 170.12 321.441 168.392 324.097 168.392C324.705 168.392 325.537 168.584 326.305 168.936L327.201 165.096C326.401 164.712 325.409 164.456 324.513 164.456ZM327.609 168.68H330.649V174.888C330.649 178.92 332.793 181.544 336.761 181.544C338.457 181.544 340.729 180.808 342.073 180.104L341.145 176.488C340.121 177.128 338.713 177.64 337.465 177.64C335.801 177.64 334.873 176.456 334.873 174.728V168.68H341.529V165H334.873V160.2H331.353L330.777 165.128L327.609 165.32V168.68ZM52.64 204.52C49.856 204.52 47.68 206.504 46.624 208.392V205H42.4V221H46.624V213.032C46.624 209.96 48.992 208.424 51.2 208.424C53.536 208.424 54.784 209.992 54.784 212.104V221H59.008V213.032C59.008 209.992 61.376 208.424 63.584 208.424C65.92 208.424 67.168 209.992 67.168 212.104V221H71.392V211.592C71.392 207.368 69.184 204.52 65.024 204.52C62.336 204.52 59.776 206.504 58.496 208.424C57.6 206.024 55.648 204.52 52.64 204.52ZM85.273 217.768C82.265 217.768 79.929 216.456 79.321 214.12H93.081C93.273 213.384 93.369 212.648 93.369 211.944C93.369 207.624 89.721 204.456 84.857 204.456C79.513 204.456 74.969 207.656 74.969 213C74.969 217.8 78.905 221.576 84.857 221.576C87.801 221.576 90.809 220.584 92.953 219.496L91.705 216.168C89.433 217.352 87.449 217.768 85.273 217.768ZM84.601 208.008C87.097 208.008 88.697 209.128 89.113 211.016H79.417C80.057 209.064 81.849 208.008 84.601 208.008ZM104.234 208.68H107.274V214.888C107.274 218.92 109.418 221.544 113.386 221.544C115.082 221.544 117.354 220.808 118.698 220.104L117.77 216.488C116.746 217.128 115.338 217.64 114.09 217.64C112.426 217.64 111.498 216.456 111.498 214.728V208.68H118.154V205H111.498V200.2H107.978L107.402 205.128L104.234 205.32V208.68ZM130.796 204.456C125.452 204.456 120.844 207.496 120.844 212.84C120.844 217.64 125.004 221.576 130.796 221.576C136.588 221.576 140.748 217.64 140.748 212.84C140.748 207.496 136.14 204.456 130.796 204.456ZM130.796 208.136C134.124 208.136 136.492 209.864 136.492 212.84C136.492 215.528 133.964 217.928 130.796 217.928C127.628 217.928 125.1 215.528 125.1 212.84C125.1 209.864 127.468 208.136 130.796 208.136ZM159.156 211.88C155.86 211.88 152.596 213.352 152.596 216.776C152.596 219.656 154.836 221.64 157.844 221.64C160.564 221.64 162.996 220.168 164.532 218.344C164.596 220.136 165.492 221.64 167.636 221.64C168.948 221.64 170.868 221 172.628 220.04L171.764 216.776C170.836 217.256 170.004 217.608 169.524 217.608C169.076 217.608 168.756 217.32 168.756 216.84V211.08C168.756 206.696 166.196 204.36 161.812 204.36C159.284 204.36 155.924 205.352 153.94 205.992L154.996 209.832C157.332 208.968 159.764 208.232 161.428 208.232C163.444 208.232 164.532 209.352 164.532 211.016V212.872C163.156 212.392 160.884 211.88 159.156 211.88ZM159.22 218.024C157.876 218.024 156.916 217.48 156.916 216.424C156.916 215.272 157.972 214.6 159.38 214.6C160.916 214.6 162.772 214.76 164.532 215.08V215.688C163.028 217.16 160.82 218.024 159.22 218.024ZM194.232 204.456C191.448 204.456 189.24 206.824 188.312 208.552V205H184.088V221H188.312V213.064C188.312 210.12 191.16 208.392 193.816 208.392C194.424 208.392 195.256 208.584 196.024 208.936L196.92 205.096C196.12 204.712 195.128 204.456 194.232 204.456ZM208.336 217.768C205.328 217.768 202.992 216.456 202.384 214.12H216.144C216.336 213.384 216.432 212.648 216.432 211.944C216.432 207.624 212.784 204.456 207.92 204.456C202.576 204.456 198.032 207.656 198.032 213C198.032 217.8 201.968 221.576 207.92 221.576C210.864 221.576 213.872 220.584 216.016 219.496L214.767 216.168C212.496 217.352 210.512 217.768 208.336 217.768ZM207.664 208.008C210.16 208.008 211.76 209.128 212.176 211.016H202.48C203.12 209.064 204.911 208.008 207.664 208.008ZM234.138 205.576C232.25 204.936 229.274 204.392 226.746 204.392C222.202 204.392 218.97 206.376 218.97 209.512C218.97 215.752 230.874 213.64 230.874 216.168C230.874 217.288 229.274 217.928 226.97 217.928C224.506 217.928 222.01 217.16 219.898 216.232L218.65 219.56C220.826 220.712 223.802 221.64 226.81 221.64C230.714 221.64 235.034 219.624 235.034 216.04C235.034 209.8 223.13 212.008 223.13 209.352C223.13 208.392 224.794 208.072 226.906 208.072C228.954 208.072 230.938 208.488 233.018 209.288L234.138 205.576ZM236.953 208.68H239.993V214.888C239.993 218.92 242.137 221.544 246.105 221.544C247.801 221.544 250.073 220.808 251.417 220.104L250.489 216.488C249.465 217.128 248.057 217.64 246.809 217.64C245.145 217.64 244.217 216.456 244.217 214.728V208.68H250.873V205H244.217V200.2H240.697L240.121 205.128L236.953 205.32V208.68ZM264.763 204.456C261.979 204.456 259.771 206.824 258.843 208.552V205H254.619V221H258.843V213.064C258.843 210.12 261.691 208.392 264.347 208.392C264.955 208.392 265.787 208.584 266.555 208.936L267.451 205.096C266.651 204.712 265.659 204.456 264.763 204.456ZM278.515 204.456C273.171 204.456 268.563 207.496 268.563 212.84C268.563 217.64 272.723 221.576 278.515 221.576C284.307 221.576 288.467 217.64 288.467 212.84C288.467 207.496 283.859 204.456 278.515 204.456ZM278.515 208.136C281.843 208.136 284.211 209.864 284.211 212.84C284.211 215.528 281.683 217.928 278.515 217.928C275.347 217.928 272.819 215.528 272.819 212.84C272.819 209.864 275.187 208.136 278.515 208.136ZM301.109 204.456C295.765 204.456 291.157 207.496 291.157 212.84C291.157 217.64 295.317 221.576 301.109 221.576C306.901 221.576 311.061 217.64 311.061 212.84C311.061 207.496 306.453 204.456 301.109 204.456ZM301.109 208.136C304.437 208.136 306.805 209.864 306.805 212.84C306.805 215.528 304.277 217.928 301.109 217.928C297.941 217.928 295.413 215.528 295.413 212.84C295.413 209.864 297.781 208.136 301.109 208.136ZM325.046 204.52C322.262 204.52 320.086 206.504 319.03 208.392V205H314.806V221H319.03V213.032C319.03 209.96 321.398 208.424 323.606 208.424C325.942 208.424 327.19 209.992 327.19 212.104V221H331.414V213.032C331.414 209.992 333.782 208.424 335.99 208.424C338.326 208.424 339.574 209.992 339.574 212.104V221H343.798V211.592C343.798 207.368 341.59 204.52 337.43 204.52C334.742 204.52 332.182 206.504 330.902 208.424C330.006 206.024 328.054 204.52 325.046 204.52ZM48 251.88C44.704 251.88 41.44 253.352 41.44 256.776C41.44 259.656 43.68 261.64 46.688 261.64C49.408 261.64 51.84 260.168 53.376 258.344C53.44 260.136 54.336 261.64 56.48 261.64C57.792 261.64 59.712 261 61.472 260.04L60.608 256.776C59.68 257.256 58.848 257.608 58.368 257.608C57.92 257.608 57.6 257.32 57.6 256.84V251.08C57.6 246.696 55.04 244.36 50.656 244.36C48.128 244.36 44.768 245.352 42.784 245.992L43.84 249.832C46.176 248.968 48.608 248.232 50.272 248.232C52.288 248.232 53.376 249.352 53.376 251.016V252.872C52 252.392 49.728 251.88 48 251.88ZM48.064 258.024C46.72 258.024 45.76 257.48 45.76 256.424C45.76 255.272 46.816 254.6 48.224 254.6C49.76 254.6 51.616 254.76 53.376 255.08V255.688C51.872 257.16 49.664 258.024 48.064 258.024ZM71.2608 240.424C72.6368 240.424 74.1408 240.872 75.6128 241.512L76.6368 237.64C75.1328 237.128 73.2128 236.68 71.3888 236.68C67.4528 236.68 64.7328 239.08 64.7328 242.76V245H62.1088V248.68H64.7648V261H68.9248V248.68H76.0288V245H68.7648V242.952C68.7648 241.224 69.7248 240.424 71.2608 240.424ZM76.9213 248.68H79.9613V254.888C79.9613 258.92 82.1053 261.544 86.0733 261.544C87.7693 261.544 90.0413 260.808 91.3853 260.104L90.4573 256.488C89.4333 257.128 88.0253 257.64 86.7773 257.64C85.1133 257.64 84.1853 256.456 84.1853 254.728V248.68H90.8413V245H84.1853V240.2H80.6653L80.0893 245.128L76.9213 245.32V248.68ZM103.836 257.768C100.828 257.768 98.4915 256.456 97.8835 254.12H111.644C111.836 253.384 111.932 252.648 111.932 251.944C111.932 247.624 108.284 244.456 103.42 244.456C98.0755 244.456 93.5315 247.656 93.5315 253C93.5315 257.8 97.4675 261.576 103.42 261.576C106.364 261.576 109.372 260.584 111.516 259.496L110.267 256.168C107.996 257.352 106.012 257.768 103.836 257.768ZM103.164 248.008C105.66 248.008 107.26 249.128 107.676 251.016H97.9795C98.6195 249.064 100.411 248.008 103.164 248.008ZM125.638 244.456C122.854 244.456 120.646 246.824 119.718 248.552V245H115.494V261H119.718V253.064C119.718 250.12 122.566 248.392 125.222 248.392C125.83 248.392 126.662 248.584 127.43 248.936L128.326 245.096C127.526 244.712 126.534 244.456 125.638 244.456ZM157.796 261H162.084L169.092 245H164.612L159.94 255.976L155.3 245H150.884L146.244 256.008L141.604 245H137.028L144.036 261H148.356L153.092 250.056L157.796 261ZM176.969 251.88C173.673 251.88 170.409 253.352 170.409 256.776C170.409 259.656 172.649 261.64 175.657 261.64C178.377 261.64 180.809 260.168 182.345 258.344C182.409 260.136 183.305 261.64 185.449 261.64C186.761 261.64 188.681 261 190.441 260.04L189.577 256.776C188.649 257.256 187.817 257.608 187.337 257.608C186.889 257.608 186.569 257.32 186.569 256.84V251.08C186.569 246.696 184.009 244.36 179.625 244.36C177.097 244.36 173.737 245.352 171.753 245.992L172.809 249.832C175.145 248.968 177.577 248.232 179.241 248.232C181.257 248.232 182.345 249.352 182.345 251.016V252.872C180.969 252.392 178.697 251.88 176.969 251.88ZM177.033 258.024C175.689 258.024 174.729 257.48 174.729 256.424C174.729 255.272 175.785 254.6 177.193 254.6C178.729 254.6 180.585 254.76 182.345 255.08V255.688C180.841 257.16 178.633 258.024 177.033 258.024ZM191.078 248.68H194.118V254.888C194.118 258.92 196.262 261.544 200.23 261.544C201.926 261.544 204.198 260.808 205.542 260.104L204.614 256.488C203.59 257.128 202.182 257.64 200.934 257.64C199.27 257.64 198.342 256.456 198.342 254.728V248.68H204.998V245H198.342V240.2H194.822L194.246 245.128L191.078 245.32V248.68ZM217.576 244.456C212.232 244.456 207.688 247.656 207.688 253C207.688 257.8 211.336 261.576 217.288 261.576C220.296 261.576 223.048 260.648 225.224 259.496L223.976 256.168C221.864 257.096 220.168 257.768 217.832 257.768C214.504 257.768 211.944 255.912 211.944 252.84C211.944 249.928 214.248 248.168 217.32 248.168C219.496 248.168 221.352 248.616 223.56 249.512L224.584 245.736C222.664 245.064 220.232 244.456 217.576 244.456ZM237.967 248.424C240.495 248.424 241.807 249.992 241.807 252.264V261H246.031V251.752C246.031 247.4 243.535 244.52 239.183 244.52C236.143 244.52 233.775 246.472 232.655 248.552V237.288H228.431V261H232.655V253.064C232.655 249.896 235.311 248.424 237.967 248.424ZM254.905 245H250.745V261H254.905V245ZM250.297 240.392C250.297 241.8 251.417 242.92 252.825 242.92C254.233 242.92 255.353 241.8 255.353 240.392C255.353 239.016 254.233 237.896 252.825 237.896C251.417 237.896 250.297 239.016 250.297 240.392ZM269.311 248.424C271.839 248.424 273.151 249.992 273.151 252.264V261H277.375V251.752C277.375 247.4 274.879 244.52 270.527 244.52C267.487 244.52 265.119 246.472 263.999 248.552V245H259.775V261H263.999V253.064C263.999 249.896 266.655 248.424 269.311 248.424ZM287.721 258.888C286.665 258.888 286.121 258.504 286.121 257.96C286.121 257.512 286.537 257.192 286.921 257.096C287.657 257.224 288.457 257.288 289.257 257.288C294.089 257.288 297.609 254.536 297.609 250.888C297.609 249.8 297.321 248.84 296.873 248.04C297.641 247.656 298.537 247.432 299.657 247.304L298.889 243.368C296.841 243.72 295.241 244.488 294.025 245.48C292.649 244.808 290.985 244.456 289.257 244.456C284.873 244.456 280.937 246.664 280.937 250.888C280.937 252.616 282.313 254.376 283.785 255.336C282.985 255.848 282.057 256.68 282.057 257.736C282.057 258.76 282.729 259.88 283.593 260.296C281.993 260.712 280.297 262.28 280.297 263.976C280.297 267.336 284.073 269.096 289.897 269.096C295.369 269.096 299.401 267.304 299.401 263.656C299.401 260.328 295.369 258.888 289.897 258.888H287.721ZM289.225 247.944C291.497 247.944 293.225 248.936 293.225 250.76C293.225 252.264 291.657 253.512 289.225 253.512C286.921 253.512 285.193 252.36 285.193 250.76C285.193 248.936 286.921 247.944 289.225 247.944ZM289.833 262.472C293.129 262.472 295.305 262.92 295.305 264.008C295.305 265.192 293.129 265.64 289.833 265.64C286.313 265.64 284.361 265.128 284.361 263.976C284.361 263.336 284.969 262.792 285.673 262.504C286.217 262.472 289.193 262.472 289.833 262.472ZM51.936 288.424C54.464 288.424 55.776 289.992 55.776 292.264V301H60V291.752C60 287.4 57.504 284.52 53.152 284.52C50.112 284.52 47.744 286.472 46.624 288.552V277.288H42.4V301H46.624V293.064C46.624 289.896 49.28 288.424 51.936 288.424ZM73.546 284.456C68.202 284.456 63.594 287.496 63.594 292.84C63.594 297.64 67.754 301.576 73.546 301.576C79.338 301.576 83.498 297.64 83.498 292.84C83.498 287.496 78.89 284.456 73.546 284.456ZM73.546 288.136C76.874 288.136 79.242 289.864 79.242 292.84C79.242 295.528 76.714 297.928 73.546 297.928C70.378 297.928 67.85 295.528 67.85 292.84C67.85 289.864 70.218 288.136 73.546 288.136ZM97.3878 284.456C94.6038 284.456 92.3958 286.824 91.4678 288.552V285H87.2438V301H91.4678V293.064C91.4678 290.12 94.3158 288.392 96.9718 288.392C97.5798 288.392 98.4118 288.584 99.1798 288.936L100.076 285.096C99.2758 284.712 98.2838 284.456 97.3878 284.456ZM112.388 284.456C109.604 284.456 107.396 286.824 106.468 288.552V285H102.244V301H106.468V293.064C106.468 290.12 109.316 288.392 111.972 288.392C112.58 288.392 113.412 288.584 114.18 288.936L115.076 285.096C114.276 284.712 113.284 284.456 112.388 284.456ZM126.14 284.456C120.796 284.456 116.188 287.496 116.188 292.84C116.188 297.64 120.348 301.576 126.14 301.576C131.932 301.576 136.092 297.64 136.092 292.84C136.092 287.496 131.484 284.456 126.14 284.456ZM126.14 288.136C129.468 288.136 131.836 289.864 131.836 292.84C131.836 295.528 129.308 297.928 126.14 297.928C122.972 297.928 120.444 295.528 120.444 292.84C120.444 289.864 122.812 288.136 126.14 288.136ZM149.982 284.456C147.198 284.456 144.99 286.824 144.062 288.552V285H139.838V301H144.062V293.064C144.062 290.12 146.91 288.392 149.566 288.392C150.174 288.392 151.006 288.584 151.774 288.936L152.67 285.096C151.87 284.712 150.878 284.456 149.982 284.456ZM168.982 285.576C167.094 284.936 164.118 284.392 161.59 284.392C157.046 284.392 153.814 286.376 153.814 289.512C153.814 295.752 165.718 293.64 165.718 296.168C165.718 297.288 164.118 297.928 161.814 297.928C159.35 297.928 156.854 297.16 154.742 296.232L153.493 299.56C155.67 300.712 158.646 301.64 161.654 301.64C165.558 301.64 169.878 299.624 169.878 296.04C169.878 289.8 157.974 292.008 157.974 289.352C157.974 288.392 159.638 288.072 161.75 288.072C163.798 288.072 165.782 288.488 167.862 289.288L168.982 285.576Z" fill="#FFC2D7"></path></svg> 