<?xml version="1.0" encoding="UTF-8"?> <svg xmlns="http://www.w3.org/2000/svg" width="400" height="600" viewBox="0 0 400 600" fill="none"> <rect width="400" height="600" rx="20" fill="#36BB71"></rect> <path d="M49.504 488.4V490.776H46.102V501H43.618V490.776H40.234V488.4H49.504ZM56.8159 499.884C55.8919 500.796 54.7639 501.252 53.4319 501.252C52.0999 501.252 50.9719 500.796 50.0479 499.884C49.1359 498.96 48.6799 497.832 48.6799 496.5C48.6799 495.168 49.1359 494.046 50.0479 493.134C50.9719 492.21 52.0999 491.748 53.4319 491.748C54.7639 491.748 55.8919 492.21 56.8159 493.134C57.7399 494.046 58.2019 495.168 58.2019 496.5C58.2019 497.832 57.7399 498.96 56.8159 499.884ZM51.6859 498.282C52.1539 498.75 52.7359 498.984 53.4319 498.984C54.1279 498.984 54.7099 498.75 55.1779 498.282C55.6459 497.814 55.8799 497.22 55.8799 496.5C55.8799 495.78 55.6459 495.186 55.1779 494.718C54.7099 494.25 54.1279 494.016 53.4319 494.016C52.7359 494.016 52.1539 494.25 51.6859 494.718C51.2299 495.186 51.0019 495.78 51.0019 496.5C51.0019 497.22 51.2299 497.814 51.6859 498.282ZM71.2294 492H73.4974V500.568C73.4974 501.96 73.0354 503.022 72.1114 503.754C71.1994 504.486 70.0954 504.852 68.7994 504.852C67.8274 504.852 66.9694 504.666 66.2254 504.294C65.4934 503.922 64.9294 503.376 64.5334 502.656L66.5134 501.522C66.9694 502.362 67.7554 502.782 68.8714 502.782C69.6034 502.782 70.1794 502.59 70.5994 502.206C71.0194 501.822 71.2294 501.276 71.2294 500.568V499.596C70.5454 500.508 69.5854 500.964 68.3494 500.964C67.0774 500.964 66.0094 500.52 65.1454 499.632C64.2934 498.732 63.8674 497.64 63.8674 496.356C63.8674 495.084 64.2994 493.998 65.1634 493.098C66.0274 492.198 67.0894 491.748 68.3494 491.748C69.5854 491.748 70.5454 492.204 71.2294 493.116V492ZM66.8914 498.138C67.3714 498.594 67.9774 498.822 68.7094 498.822C69.4414 498.822 70.0414 498.594 70.5094 498.138C70.9894 497.67 71.2294 497.076 71.2294 496.356C71.2294 495.648 70.9894 495.066 70.5094 494.61C70.0414 494.142 69.4414 493.908 68.7094 493.908C67.9774 493.908 67.3714 494.142 66.8914 494.61C66.4234 495.066 66.1894 495.648 66.1894 496.356C66.1894 497.076 66.4234 497.67 66.8914 498.138ZM80.607 491.748C81.591 491.748 82.401 492.078 83.037 492.738C83.685 493.398 84.009 494.31 84.009 495.474V501H81.687V495.762C81.687 495.162 81.525 494.706 81.201 494.394C80.877 494.07 80.445 493.908 79.905 493.908C79.305 493.908 78.825 494.094 78.465 494.466C78.105 494.838 77.925 495.396 77.925 496.14V501H75.603V488.4H77.925V493.008C78.489 492.168 79.383 491.748 80.607 491.748ZM93.6597 499.884C92.7357 500.796 91.6077 501.252 90.2757 501.252C88.9437 501.252 87.8157 500.796 86.8917 499.884C85.9797 498.96 85.5237 497.832 85.5237 496.5C85.5237 495.168 85.9797 494.046 86.8917 493.134C87.8157 492.21 88.9437 491.748 90.2757 491.748C91.6077 491.748 92.7357 492.21 93.6597 493.134C94.5837 494.046 95.0457 495.168 95.0457 496.5C95.0457 497.832 94.5837 498.96 93.6597 499.884ZM88.5297 498.282C88.9977 498.75 89.5797 498.984 90.2757 498.984C90.9717 498.984 91.5537 498.75 92.0217 498.282C92.4897 497.814 92.7237 497.22 92.7237 496.5C92.7237 495.78 92.4897 495.186 92.0217 494.718C91.5537 494.25 90.9717 494.016 90.2757 494.016C89.5797 494.016 88.9977 494.25 88.5297 494.718C88.0737 495.186 87.8457 495.78 87.8457 496.5C87.8457 497.22 88.0737 497.814 88.5297 498.282ZM98.6278 494.556C98.6278 494.796 98.7838 494.994 99.0958 495.15C99.4198 495.294 99.8098 495.426 100.266 495.546C100.722 495.654 101.178 495.798 101.634 495.978C102.09 496.146 102.474 496.434 102.786 496.842C103.11 497.25 103.272 497.76 103.272 498.372C103.272 499.296 102.924 500.01 102.228 500.514C101.544 501.006 100.686 501.252 99.6538 501.252C97.8058 501.252 96.5458 500.538 95.8738 499.11L97.8898 497.976C98.1538 498.756 98.7418 499.146 99.6538 499.146C100.482 499.146 100.896 498.888 100.896 498.372C100.896 498.132 100.734 497.94 100.41 497.796C100.098 497.64 99.7138 497.502 99.2578 497.382C98.8018 497.262 98.3458 497.112 97.8898 496.932C97.4338 496.752 97.0438 496.47 96.7198 496.086C96.4078 495.69 96.2518 495.198 96.2518 494.61C96.2518 493.722 96.5758 493.026 97.2238 492.522C97.8838 492.006 98.6998 491.748 99.6718 491.748C100.404 491.748 101.07 491.916 101.67 492.252C102.27 492.576 102.744 493.044 103.092 493.656L101.112 494.736C100.824 494.124 100.344 493.818 99.6718 493.818C99.3718 493.818 99.1198 493.884 98.9158 494.016C98.7238 494.148 98.6278 494.328 98.6278 494.556ZM109.649 494.232H107.615V497.976C107.615 498.288 107.693 498.516 107.849 498.66C108.005 498.804 108.233 498.888 108.533 498.912C108.833 498.924 109.205 498.918 109.649 498.894V501C108.053 501.18 106.925 501.03 106.265 500.55C105.617 500.07 105.293 499.212 105.293 497.976V494.232H103.727V492H105.293V490.182L107.615 489.48V492H109.649V494.232ZM118.069 494.556C118.069 494.796 118.225 494.994 118.537 495.15C118.861 495.294 119.251 495.426 119.707 495.546C120.163 495.654 120.619 495.798 121.075 495.978C121.531 496.146 121.915 496.434 122.227 496.842C122.551 497.25 122.713 497.76 122.713 498.372C122.713 499.296 122.365 500.01 121.669 500.514C120.985 501.006 120.127 501.252 119.095 501.252C117.247 501.252 115.987 500.538 115.315 499.11L117.331 497.976C117.595 498.756 118.183 499.146 119.095 499.146C119.923 499.146 120.337 498.888 120.337 498.372C120.337 498.132 120.175 497.94 119.851 497.796C119.539 497.64 119.155 497.502 118.699 497.382C118.243 497.262 117.787 497.112 117.331 496.932C116.875 496.752 116.485 496.47 116.161 496.086C115.849 495.69 115.693 495.198 115.693 494.61C115.693 493.722 116.017 493.026 116.665 492.522C117.325 492.006 118.141 491.748 119.113 491.748C119.845 491.748 120.511 491.916 121.111 492.252C121.711 492.576 122.185 493.044 122.533 493.656L120.553 494.736C120.265 494.124 119.785 493.818 119.113 493.818C118.813 493.818 118.561 493.884 118.357 494.016C118.165 494.148 118.069 494.328 118.069 494.556ZM131.751 499.884C130.827 500.796 129.699 501.252 128.367 501.252C127.035 501.252 125.907 500.796 124.983 499.884C124.071 498.96 123.615 497.832 123.615 496.5C123.615 495.168 124.071 494.046 124.983 493.134C125.907 492.21 127.035 491.748 128.367 491.748C129.699 491.748 130.827 492.21 131.751 493.134C132.675 494.046 133.137 495.168 133.137 496.5C133.137 497.832 132.675 498.96 131.751 499.884ZM126.621 498.282C127.089 498.75 127.671 498.984 128.367 498.984C129.063 498.984 129.645 498.75 130.113 498.282C130.581 497.814 130.815 497.22 130.815 496.5C130.815 495.78 130.581 495.186 130.113 494.718C129.645 494.25 129.063 494.016 128.367 494.016C127.671 494.016 127.089 494.25 126.621 494.718C126.165 495.186 125.937 495.78 125.937 496.5C125.937 497.22 126.165 497.814 126.621 498.282ZM144.725 491.748C145.757 491.748 146.579 492.084 147.191 492.756C147.815 493.428 148.127 494.328 148.127 495.456V501H145.805V495.618C145.805 495.078 145.673 494.658 145.409 494.358C145.145 494.058 144.773 493.908 144.293 493.908C143.765 493.908 143.351 494.082 143.051 494.43C142.763 494.778 142.619 495.282 142.619 495.942V501H140.297V495.618C140.297 495.078 140.165 494.658 139.901 494.358C139.637 494.058 139.265 493.908 138.785 493.908C138.269 493.908 137.855 494.082 137.543 494.43C137.243 494.778 137.093 495.282 137.093 495.942V501H134.771V492H137.093V492.954C137.633 492.15 138.467 491.748 139.595 491.748C140.699 491.748 141.515 492.18 142.043 493.044C142.643 492.18 143.537 491.748 144.725 491.748ZM152.061 497.454C152.373 498.582 153.219 499.146 154.599 499.146C155.487 499.146 156.159 498.846 156.615 498.246L158.487 499.326C157.599 500.61 156.291 501.252 154.563 501.252C153.075 501.252 151.881 500.802 150.981 499.902C150.081 499.002 149.631 497.868 149.631 496.5C149.631 495.144 150.075 494.016 150.963 493.116C151.851 492.204 152.991 491.748 154.383 491.748C155.703 491.748 156.789 492.204 157.641 493.116C158.505 494.028 158.937 495.156 158.937 496.5C158.937 496.8 158.907 497.118 158.847 497.454H152.061ZM152.025 495.654H156.615C156.483 495.042 156.207 494.586 155.787 494.286C155.379 493.986 154.911 493.836 154.383 493.836C153.759 493.836 153.243 493.998 152.835 494.322C152.427 494.634 152.157 495.078 152.025 495.654ZM168.156 499.884C167.232 500.796 166.104 501.252 164.772 501.252C163.44 501.252 162.312 500.796 161.388 499.884C160.476 498.96 160.02 497.832 160.02 496.5C160.02 495.168 160.476 494.046 161.388 493.134C162.312 492.21 163.44 491.748 164.772 491.748C166.104 491.748 167.232 492.21 168.156 493.134C169.08 494.046 169.542 495.168 169.542 496.5C169.542 497.832 169.08 498.96 168.156 499.884ZM163.026 498.282C163.494 498.75 164.076 498.984 164.772 498.984C165.468 498.984 166.05 498.75 166.518 498.282C166.986 497.814 167.22 497.22 167.22 496.5C167.22 495.78 166.986 495.186 166.518 494.718C166.05 494.25 165.468 494.016 164.772 494.016C164.076 494.016 163.494 494.25 163.026 494.718C162.57 495.186 162.342 495.78 162.342 496.5C162.342 497.22 162.57 497.814 163.026 498.282ZM176.179 491.748C177.163 491.748 177.973 492.078 178.609 492.738C179.257 493.398 179.581 494.31 179.581 495.474V501H177.259V495.762C177.259 495.162 177.097 494.706 176.773 494.394C176.449 494.07 176.017 493.908 175.477 493.908C174.877 493.908 174.397 494.094 174.037 494.466C173.677 494.838 173.497 495.396 173.497 496.14V501H171.175V492H173.497V493.008C174.061 492.168 174.955 491.748 176.179 491.748ZM183.526 497.454C183.838 498.582 184.684 499.146 186.064 499.146C186.952 499.146 187.624 498.846 188.08 498.246L189.952 499.326C189.064 500.61 187.756 501.252 186.028 501.252C184.54 501.252 183.346 500.802 182.446 499.902C181.546 499.002 181.096 497.868 181.096 496.5C181.096 495.144 181.54 494.016 182.428 493.116C183.316 492.204 184.456 491.748 185.848 491.748C187.168 491.748 188.254 492.204 189.106 493.116C189.97 494.028 190.402 495.156 190.402 496.5C190.402 496.8 190.372 497.118 190.312 497.454H183.526ZM183.49 495.654H188.08C187.948 495.042 187.672 494.586 187.252 494.286C186.844 493.986 186.376 493.836 185.848 493.836C185.224 493.836 184.708 493.998 184.3 494.322C183.892 494.634 183.622 495.078 183.49 495.654ZM196.901 496.014V494.862H205.901V496.014H196.901ZM219.656 492H220.664V501H219.476V494.07L214.112 501H213.104V492H214.292V498.93L219.656 492ZM228.936 492V493.152H224.364V501H223.176V492H228.936ZM236.755 492H237.943V501H236.755V497.076H231.571V501H230.383V492H231.571V495.924H236.755V492ZM247.997 499.866C247.085 500.766 245.969 501.216 244.649 501.216C243.329 501.216 242.207 500.766 241.283 499.866C240.371 498.954 239.915 497.832 239.915 496.5C239.915 495.168 240.371 494.052 241.283 493.152C242.207 492.24 243.329 491.784 244.649 491.784C245.969 491.784 247.085 492.24 247.997 493.152C248.921 494.052 249.383 495.168 249.383 496.5C249.383 497.832 248.921 498.954 247.997 499.866ZM242.129 499.038C242.813 499.722 243.653 500.064 244.649 500.064C245.645 500.064 246.485 499.722 247.169 499.038C247.853 498.342 248.195 497.496 248.195 496.5C248.195 495.504 247.853 494.664 247.169 493.98C246.485 493.284 245.645 492.936 244.649 492.936C243.653 492.936 242.813 493.284 242.129 493.98C241.445 494.664 241.103 495.504 241.103 496.5C241.103 497.496 241.445 498.342 242.129 499.038ZM256.195 491.784C257.479 491.784 258.571 492.24 259.471 493.152C260.383 494.064 260.839 495.18 260.839 496.5C260.839 497.82 260.383 498.936 259.471 499.848C258.571 500.76 257.479 501.216 256.195 501.216C254.599 501.216 253.387 500.556 252.559 499.236V504.6H251.371V492H252.559V493.764C253.387 492.444 254.599 491.784 256.195 491.784ZM253.585 499.038C254.269 499.722 255.109 500.064 256.105 500.064C257.101 500.064 257.941 499.722 258.625 499.038C259.309 498.342 259.651 497.496 259.651 496.5C259.651 495.504 259.309 494.664 258.625 493.98C257.941 493.284 257.101 492.936 256.105 492.936C255.109 492.936 254.269 493.284 253.585 493.98C252.901 494.664 252.559 495.504 252.559 496.5C252.559 497.496 252.901 498.342 253.585 499.038ZM269.367 492H270.375V501H269.187V494.07L263.823 501H262.815V492H264.003V498.93L269.367 492ZM277.711 491.784C278.995 491.784 280.087 492.24 280.987 493.152C281.899 494.064 282.355 495.18 282.355 496.5C282.355 497.82 281.899 498.936 280.987 499.848C280.087 500.76 278.995 501.216 277.711 501.216C276.115 501.216 274.903 500.556 274.075 499.236V504.6H272.887V492H274.075V493.764C274.903 492.444 276.115 491.784 277.711 491.784ZM275.101 499.038C275.785 499.722 276.625 500.064 277.621 500.064C278.617 500.064 279.457 499.722 280.141 499.038C280.825 498.342 281.167 497.496 281.167 496.5C281.167 495.504 280.825 494.664 280.141 493.98C279.457 493.284 278.617 492.936 277.621 492.936C276.625 492.936 275.785 493.284 275.101 493.98C274.417 494.664 274.075 495.504 274.075 496.5C274.075 497.496 274.417 498.342 275.101 499.038ZM291.872 499.866C290.96 500.766 289.844 501.216 288.524 501.216C287.204 501.216 286.082 500.766 285.158 499.866C284.246 498.954 283.79 497.832 283.79 496.5C283.79 495.168 284.246 494.052 285.158 493.152C286.082 492.24 287.204 491.784 288.524 491.784C289.844 491.784 290.96 492.24 291.872 493.152C292.796 494.052 293.258 495.168 293.258 496.5C293.258 497.832 292.796 498.954 291.872 499.866ZM286.004 499.038C286.688 499.722 287.528 500.064 288.524 500.064C289.52 500.064 290.36 499.722 291.044 499.038C291.728 498.342 292.07 497.496 292.07 496.5C292.07 495.504 291.728 494.664 291.044 493.98C290.36 493.284 289.52 492.936 288.524 492.936C287.528 492.936 286.688 493.284 286.004 493.98C285.32 494.664 284.978 495.504 284.978 496.5C284.978 497.496 285.32 498.342 286.004 499.038ZM300.97 496.374C301.954 496.734 302.446 497.436 302.446 498.48C302.446 499.212 302.2 499.818 301.708 500.298C301.228 500.766 300.532 501 299.62 501H295.246V492H299.26C300.136 492 300.814 492.228 301.294 492.684C301.774 493.128 302.014 493.704 302.014 494.412C302.014 495.312 301.666 495.966 300.97 496.374ZM299.26 493.152H296.434V495.888H299.26C300.304 495.888 300.826 495.42 300.826 494.484C300.826 494.064 300.688 493.74 300.412 493.512C300.148 493.272 299.764 493.152 299.26 493.152ZM299.62 499.848C300.148 499.848 300.55 499.722 300.826 499.47C301.114 499.218 301.258 498.864 301.258 498.408C301.258 497.988 301.114 497.658 300.826 497.418C300.55 497.166 300.148 497.04 299.62 497.04H296.434V499.848H299.62ZM311.986 492H313.174V501H311.986V499.236C311.158 500.556 309.946 501.216 308.35 501.216C307.066 501.216 305.968 500.76 305.056 499.848C304.156 498.936 303.706 497.82 303.706 496.5C303.706 495.18 304.156 494.064 305.056 493.152C305.968 492.24 307.066 491.784 308.35 491.784C309.946 491.784 311.158 492.444 311.986 493.764V492ZM305.92 499.038C306.604 499.722 307.444 500.064 308.44 500.064C309.436 500.064 310.276 499.722 310.96 499.038C311.644 498.342 311.986 497.496 311.986 496.5C311.986 495.504 311.644 494.664 310.96 493.98C310.276 493.284 309.436 492.936 308.44 492.936C307.444 492.936 306.604 493.284 305.92 493.98C305.236 494.664 304.894 495.504 304.894 496.5C304.894 497.496 305.236 498.342 305.92 499.038ZM322.17 492V493.152H318.984V501H317.796V493.152H314.61V492H322.17ZM327.271 495.42C328.111 495.42 328.819 495.684 329.395 496.212C329.983 496.728 330.277 497.394 330.277 498.21C330.277 499.026 329.983 499.698 329.395 500.226C328.819 500.742 328.111 501 327.271 501H323.617V492H324.805V495.42H327.271ZM327.271 499.848C327.775 499.848 328.201 499.698 328.549 499.398C328.909 499.098 329.089 498.702 329.089 498.21C329.089 497.718 328.909 497.322 328.549 497.022C328.201 496.722 327.775 496.572 327.271 496.572H324.805V499.848H327.271ZM47.092 515H48.28V524H47.092V520.58C46.396 520.94 45.538 521.12 44.518 521.12C43.342 521.12 42.442 520.85 41.818 520.31C41.206 519.758 40.9 518.948 40.9 517.88V515H42.088V517.88C42.088 518.636 42.286 519.182 42.682 519.518C43.078 519.842 43.678 520.004 44.482 520.004C45.418 520.004 46.288 519.83 47.092 519.482V515ZM54.4589 518.42C55.2989 518.42 56.0069 518.684 56.5829 519.212C57.1709 519.728 57.4649 520.394 57.4649 521.21C57.4649 522.026 57.1709 522.698 56.5829 523.226C56.0069 523.742 55.2989 524 54.4589 524H50.8049V515H51.9929V518.42H54.4589ZM54.4589 522.848C54.9629 522.848 55.3889 522.698 55.7369 522.398C56.0969 522.098 56.2769 521.702 56.2769 521.21C56.2769 520.718 56.0969 520.322 55.7369 520.022C55.3889 519.722 54.9629 519.572 54.4589 519.572H51.9929V522.848H54.4589ZM65.812 515H66.82V524H65.632V517.07L60.268 524H59.26V515H60.448V521.93L65.812 515ZM69.5123 519.014V517.862H75.9923V519.014H69.5123ZM84.6189 515V516.152H81.4329V524H80.2449V516.152H77.0589V515H84.6189ZM93.2571 522.866C92.3451 523.766 91.2291 524.216 89.9091 524.216C88.5891 524.216 87.4671 523.766 86.5431 522.866C85.6311 521.954 85.1751 520.832 85.1751 519.5C85.1751 518.168 85.6311 517.052 86.5431 516.152C87.4671 515.24 88.5891 514.784 89.9091 514.784C91.2291 514.784 92.3451 515.24 93.2571 516.152C94.1811 517.052 94.6431 518.168 94.6431 519.5C94.6431 520.832 94.1811 521.954 93.2571 522.866ZM87.3891 522.038C88.0731 522.722 88.9131 523.064 89.9091 523.064C90.9051 523.064 91.7451 522.722 92.4291 522.038C93.1131 521.342 93.4551 520.496 93.4551 519.5C93.4551 518.504 93.1131 517.664 92.4291 516.98C91.7451 516.284 90.9051 515.936 89.9091 515.936C88.9131 515.936 88.0731 516.284 87.3891 516.98C86.7051 517.664 86.3631 518.504 86.3631 519.5C86.3631 520.496 86.7051 521.342 87.3891 522.038ZM105.325 524.216C103.969 524.216 102.841 523.766 101.941 522.866C101.041 521.954 100.591 520.832 100.591 519.5C100.591 518.168 101.041 517.052 101.941 516.152C102.841 515.24 103.969 514.784 105.325 514.784C106.213 514.784 107.011 515 107.719 515.432C108.427 515.852 108.943 516.422 109.267 517.142L108.295 517.7C108.055 517.16 107.665 516.734 107.125 516.422C106.597 516.098 105.997 515.936 105.325 515.936C104.329 515.936 103.489 516.284 102.805 516.98C102.121 517.664 101.779 518.504 101.779 519.5C101.779 520.496 102.121 521.342 102.805 522.038C103.489 522.722 104.329 523.064 105.325 523.064C105.997 523.064 106.597 522.908 107.125 522.596C107.653 522.272 108.067 521.84 108.367 521.3L109.357 521.876C108.985 522.596 108.439 523.166 107.719 523.586C106.999 524.006 106.201 524.216 105.325 524.216ZM118.517 522.866C117.605 523.766 116.489 524.216 115.169 524.216C113.849 524.216 112.727 523.766 111.803 522.866C110.891 521.954 110.435 520.832 110.435 519.5C110.435 518.168 110.891 517.052 111.803 516.152C112.727 515.24 113.849 514.784 115.169 514.784C116.489 514.784 117.605 515.24 118.517 516.152C119.441 517.052 119.903 518.168 119.903 519.5C119.903 520.832 119.441 521.954 118.517 522.866ZM112.649 522.038C113.333 522.722 114.173 523.064 115.169 523.064C116.165 523.064 117.005 522.722 117.689 522.038C118.373 521.342 118.715 520.496 118.715 519.5C118.715 518.504 118.373 517.664 117.689 516.98C117.005 516.284 116.165 515.936 115.169 515.936C114.173 515.936 113.333 516.284 112.649 516.98C111.965 517.664 111.623 518.504 111.623 519.5C111.623 520.496 111.965 521.342 112.649 522.038ZM129.433 522.866C128.521 523.766 127.405 524.216 126.085 524.216C124.765 524.216 123.643 523.766 122.719 522.866C121.807 521.954 121.351 520.832 121.351 519.5C121.351 518.168 121.807 517.052 122.719 516.152C123.643 515.24 124.765 514.784 126.085 514.784C127.405 514.784 128.521 515.24 129.433 516.152C130.357 517.052 130.819 518.168 130.819 519.5C130.819 520.832 130.357 521.954 129.433 522.866ZM123.565 522.038C124.249 522.722 125.089 523.064 126.085 523.064C127.081 523.064 127.921 522.722 128.605 522.038C129.289 521.342 129.631 520.496 129.631 519.5C129.631 518.504 129.289 517.664 128.605 516.98C127.921 516.284 127.081 515.936 126.085 515.936C125.089 515.936 124.249 516.284 123.565 516.98C122.881 517.664 122.539 518.504 122.539 519.5C122.539 520.496 122.881 521.342 123.565 522.038ZM136.803 524.216C135.507 524.216 134.427 523.79 133.563 522.938C132.699 522.074 132.267 520.958 132.267 519.59C132.267 518.054 132.495 516.878 132.951 516.062C133.407 515.234 134.331 514.484 135.723 513.812C135.987 513.68 136.335 513.524 136.767 513.344C137.211 513.164 137.541 513.02 137.757 512.912C137.985 512.804 138.231 512.666 138.495 512.498C138.759 512.318 138.957 512.12 139.089 511.904C139.221 511.688 139.305 511.43 139.341 511.13L140.277 511.67C140.229 511.958 140.133 512.228 139.989 512.48C139.845 512.732 139.695 512.936 139.539 513.092C139.395 513.248 139.161 513.422 138.837 513.614C138.525 513.794 138.279 513.926 138.099 514.01C137.931 514.082 137.631 514.208 137.199 514.388C136.779 514.568 136.497 514.688 136.353 514.748C135.513 515.108 134.895 515.486 134.499 515.882C134.103 516.266 133.821 516.77 133.653 517.394C134.061 516.854 134.577 516.458 135.201 516.206C135.837 515.942 136.455 515.81 137.055 515.81C138.255 515.81 139.245 516.206 140.025 516.998C140.817 517.778 141.213 518.78 141.213 520.004C141.213 521.216 140.793 522.224 139.953 523.028C139.125 523.82 138.075 524.216 136.803 524.216ZM136.803 523.028C137.739 523.028 138.507 522.746 139.107 522.182C139.719 521.606 140.025 520.88 140.025 520.004C140.025 519.116 139.737 518.39 139.161 517.826C138.597 517.25 137.841 516.962 136.893 516.962C136.041 516.962 135.267 517.232 134.571 517.772C133.875 518.3 133.527 519.008 133.527 519.896C133.527 520.808 133.839 521.558 134.463 522.146C135.099 522.734 135.879 523.028 136.803 523.028ZM155.08 522.848H156.34V526.412H155.152V524H143.02V515H144.208V522.848H148.456V515H149.644V522.848H153.892V515H155.08V522.848ZM161.943 514.784C163.275 514.784 164.349 515.258 165.165 516.206C165.993 517.142 166.407 518.252 166.407 519.536C166.407 519.668 166.395 519.854 166.371 520.094H158.469C158.589 521.006 158.973 521.732 159.621 522.272C160.281 522.8 161.091 523.064 162.051 523.064C162.735 523.064 163.323 522.926 163.815 522.65C164.319 522.362 164.697 521.99 164.949 521.534L165.993 522.146C165.597 522.782 165.057 523.286 164.373 523.658C163.689 524.03 162.909 524.216 162.033 524.216C160.617 524.216 159.465 523.772 158.577 522.884C157.689 521.996 157.245 520.868 157.245 519.5C157.245 518.156 157.683 517.034 158.559 516.134C159.435 515.234 160.563 514.784 161.943 514.784ZM161.943 515.936C161.007 515.936 160.221 516.218 159.585 516.782C158.961 517.334 158.589 518.054 158.469 518.942H165.183C165.063 517.994 164.697 517.256 164.085 516.728C163.473 516.2 162.759 515.936 161.943 515.936ZM174.669 515H175.857V524H174.669V520.076H169.485V524H168.297V515H169.485V518.924H174.669V515ZM184.921 515H185.929V524H184.741V517.07L179.377 524H178.369V515H179.557V521.93L184.921 515ZM194.922 515V524H193.734V520.544H192.186L189.414 524H187.902L190.746 520.508C190.026 520.4 189.432 520.1 188.964 519.608C188.496 519.116 188.262 518.51 188.262 517.79C188.262 516.974 188.55 516.308 189.126 515.792C189.714 515.264 190.428 515 191.268 515H194.922ZM191.268 519.428H193.734V516.152H191.268C190.764 516.152 190.332 516.302 189.972 516.602C189.624 516.902 189.45 517.298 189.45 517.79C189.45 518.282 189.624 518.678 189.972 518.978C190.332 519.278 190.764 519.428 191.268 519.428Z" fill="#CDFFE3" fill-opacity="0.6"></path> <path d="M47.296 84.136L60.8 101H65.952V78.6H61.536V95.464L48.032 78.6H42.88V101H47.296V84.136ZM80.4918 97.768C77.4838 97.768 75.1478 96.456 74.5398 94.12H88.2998C88.4918 93.384 88.5878 92.648 88.5878 91.944C88.5878 87.624 84.9398 84.456 80.0758 84.456C74.7318 84.456 70.1878 87.656 70.1878 93C70.1878 97.8 74.1238 101.576 80.0758 101.576C83.0198 101.576 86.0278 100.584 88.1718 99.496L86.9237 96.168C84.6518 97.352 82.6678 97.768 80.4918 97.768ZM79.8198 88.008C82.3158 88.008 83.9158 89.128 84.3318 91.016H74.6358C75.2758 89.064 77.0677 88.008 79.8198 88.008ZM94.39 85H89.75L97.302 101H101.942L109.526 85H104.822L99.638 96.232L94.39 85ZM121.179 97.768C118.171 97.768 115.835 96.456 115.227 94.12H128.987C129.179 93.384 129.275 92.648 129.275 91.944C129.275 87.624 125.627 84.456 120.763 84.456C115.419 84.456 110.875 87.656 110.875 93C110.875 97.8 114.811 101.576 120.763 101.576C123.707 101.576 126.715 100.584 128.859 99.496L127.611 96.168C125.339 97.352 123.355 97.768 121.179 97.768ZM120.507 88.008C123.003 88.008 124.603 89.128 125.019 91.016H115.323C115.963 89.064 117.755 88.008 120.507 88.008ZM142.982 84.456C140.198 84.456 137.99 86.824 137.062 88.552V85H132.838V101H137.062V93.064C137.062 90.12 139.91 88.392 142.566 88.392C143.174 88.392 144.006 88.584 144.774 88.936L145.67 85.096C144.87 84.712 143.878 84.456 142.982 84.456ZM166.436 88.424C168.964 88.424 170.276 89.992 170.276 92.264V101H174.5V91.752C174.5 87.4 172.004 84.52 167.652 84.52C164.612 84.52 162.244 86.472 161.124 88.552V77.288H156.9V101H161.124V93.064C161.124 89.896 163.78 88.424 166.436 88.424ZM184.75 91.88C181.454 91.88 178.19 93.352 178.19 96.776C178.19 99.656 180.43 101.64 183.438 101.64C186.158 101.64 188.59 100.168 190.126 98.344C190.19 100.136 191.086 101.64 193.23 101.64C194.542 101.64 196.462 101 198.222 100.04L197.358 96.776C196.43 97.256 195.598 97.608 195.118 97.608C194.67 97.608 194.35 97.32 194.35 96.84V91.08C194.35 86.696 191.79 84.36 187.406 84.36C184.878 84.36 181.518 85.352 179.534 85.992L180.59 89.832C182.926 88.968 185.358 88.232 187.022 88.232C189.038 88.232 190.126 89.352 190.126 91.016V92.872C188.75 92.392 186.478 91.88 184.75 91.88ZM184.814 98.024C183.47 98.024 182.51 97.48 182.51 96.424C182.51 95.272 183.566 94.6 184.974 94.6C186.51 94.6 188.366 94.76 190.126 95.08V95.688C188.622 97.16 186.414 98.024 184.814 98.024ZM202.859 85H198.219L205.771 101H210.411L217.995 85H213.291L208.107 96.232L202.859 85ZM229.648 97.768C226.64 97.768 224.304 96.456 223.696 94.12H237.456C237.648 93.384 237.744 92.648 237.744 91.944C237.744 87.624 234.096 84.456 229.232 84.456C223.888 84.456 219.344 87.656 219.344 93C219.344 97.8 223.28 101.576 229.232 101.576C232.176 101.576 235.184 100.584 237.328 99.496L236.08 96.168C233.808 97.352 231.824 97.768 229.648 97.768ZM228.976 88.008C231.472 88.008 233.072 89.128 233.488 91.016H223.792C224.432 89.064 226.224 88.008 228.976 88.008ZM255.265 78.6H250.849V101H255.265V78.6ZM278.867 97.768C275.859 97.768 273.523 96.456 272.915 94.12H286.675C286.867 93.384 286.963 92.648 286.963 91.944C286.963 87.624 283.315 84.456 278.451 84.456C273.107 84.456 268.563 87.656 268.563 93C268.563 97.8 272.499 101.576 278.451 101.576C281.395 101.576 284.403 100.584 286.547 99.496L285.299 96.168C283.027 97.352 281.043 97.768 278.867 97.768ZM278.195 88.008C280.691 88.008 282.291 89.128 282.707 91.016H273.011C273.651 89.064 275.443 88.008 278.195 88.008ZM292.765 85H288.125L295.677 101H300.317L307.901 85H303.197L298.013 96.232L292.765 85ZM319.554 97.768C316.546 97.768 314.21 96.456 313.602 94.12H327.362C327.554 93.384 327.65 92.648 327.65 91.944C327.65 87.624 324.002 84.456 319.138 84.456C313.794 84.456 309.25 87.656 309.25 93C309.25 97.8 313.186 101.576 319.138 101.576C322.082 101.576 325.09 100.584 327.234 99.496L325.986 96.168C323.714 97.352 321.73 97.768 319.554 97.768ZM318.882 88.008C321.378 88.008 322.978 89.128 323.394 91.016H313.698C314.338 89.064 316.13 88.008 318.882 88.008ZM341.357 84.456C338.573 84.456 336.365 86.824 335.437 88.552V85H331.213V101H335.437V93.064C335.437 90.12 338.285 88.392 340.941 88.392C341.549 88.392 342.381 88.584 343.149 88.936L344.045 85.096C343.245 84.712 342.253 84.456 341.357 84.456ZM48.096 138.888C47.04 138.888 46.496 138.504 46.496 137.96C46.496 137.512 46.912 137.192 47.296 137.096C48.032 137.224 48.832 137.288 49.632 137.288C54.464 137.288 57.984 134.536 57.984 130.888C57.984 129.8 57.696 128.84 57.248 128.04C58.016 127.656 58.912 127.432 60.032 127.304L59.264 123.368C57.216 123.72 55.616 124.488 54.4 125.48C53.024 124.808 51.36 124.456 49.632 124.456C45.248 124.456 41.312 126.664 41.312 130.888C41.312 132.616 42.688 134.376 44.16 135.336C43.36 135.848 42.432 136.68 42.432 137.736C42.432 138.76 43.104 139.88 43.968 140.296C42.368 140.712 40.672 142.28 40.672 143.976C40.672 147.336 44.448 149.096 50.272 149.096C55.744 149.096 59.776 147.304 59.776 143.656C59.776 140.328 55.744 138.888 50.272 138.888H48.096ZM49.6 127.944C51.872 127.944 53.6 128.936 53.6 130.76C53.6 132.264 52.032 133.512 49.6 133.512C47.296 133.512 45.568 132.36 45.568 130.76C45.568 128.936 47.296 127.944 49.6 127.944ZM50.208 142.472C53.504 142.472 55.68 142.92 55.68 144.008C55.68 145.192 53.504 145.64 50.208 145.64C46.688 145.64 44.736 145.128 44.736 143.976C44.736 143.336 45.344 142.792 46.048 142.504C46.592 142.472 49.568 142.472 50.208 142.472ZM72.1235 128.424C74.6515 128.424 75.9635 129.992 75.9635 132.264V141H80.1875V131.752C80.1875 127.4 77.6915 124.52 73.3395 124.52C70.2995 124.52 67.9315 126.472 66.8115 128.552V117.288H62.5875V141H66.8115V133.064C66.8115 129.896 69.4675 128.424 72.1235 128.424ZM93.7335 124.456C88.3895 124.456 83.7815 127.496 83.7815 132.84C83.7815 137.64 87.9415 141.576 93.7335 141.576C99.5255 141.576 103.686 137.64 103.686 132.84C103.686 127.496 99.0775 124.456 93.7335 124.456ZM93.7335 128.136C97.0615 128.136 99.4295 129.864 99.4295 132.84C99.4295 135.528 96.9015 137.928 93.7335 137.928C90.5655 137.928 88.0375 135.528 88.0375 132.84C88.0375 129.864 90.4055 128.136 93.7335 128.136ZM121.575 125.576C119.687 124.936 116.711 124.392 114.183 124.392C109.639 124.392 106.407 126.376 106.407 129.512C106.407 135.752 118.311 133.64 118.311 136.168C118.311 137.288 116.711 137.928 114.407 137.928C111.943 137.928 109.447 137.16 107.335 136.232L106.087 139.56C108.263 140.712 111.239 141.64 114.247 141.64C118.151 141.64 122.471 139.624 122.471 136.04C122.471 129.8 110.567 132.008 110.567 129.352C110.567 128.392 112.231 128.072 114.343 128.072C116.391 128.072 118.375 128.488 120.455 129.288L121.575 125.576ZM124.39 128.68H127.43V134.888C127.43 138.92 129.574 141.544 133.542 141.544C135.238 141.544 137.51 140.808 138.854 140.104L137.926 136.488C136.902 137.128 135.494 137.64 134.246 137.64C132.582 137.64 131.654 136.456 131.654 134.728V128.68H138.31V125H131.654V120.2H128.134L127.558 125.128L124.39 125.32V128.68ZM151.304 137.768C148.296 137.768 145.96 136.456 145.352 134.12H159.112C159.304 133.384 159.4 132.648 159.4 131.944C159.4 127.624 155.752 124.456 150.888 124.456C145.544 124.456 141 127.656 141 133C141 137.8 144.936 141.576 150.888 141.576C153.832 141.576 156.84 140.584 158.984 139.496L157.736 136.168C155.464 137.352 153.48 137.768 151.304 137.768ZM150.632 128.008C153.128 128.008 154.728 129.128 155.144 131.016H145.448C146.088 129.064 147.88 128.008 150.632 128.008ZM169.97 141.544C173.235 141.544 175.795 139.656 176.851 137.448V141H181.075V117H176.851V125.576C175.251 125.064 173.043 124.424 171.315 124.424C165.939 124.424 161.907 128.36 161.907 133.16C161.907 138.344 165.587 141.544 169.97 141.544ZM171.219 137.608C168.371 137.608 166.163 136.008 166.163 133.128C166.163 130.312 168.371 128.136 171.251 128.136C173.203 128.136 174.995 128.552 176.851 129.096V132.552C176.851 135.624 174.035 137.608 171.219 137.608ZM209.075 125.576C207.187 124.936 204.211 124.392 201.683 124.392C197.139 124.392 193.907 126.376 193.907 129.512C193.907 135.752 205.811 133.64 205.811 136.168C205.811 137.288 204.211 137.928 201.907 137.928C199.443 137.928 196.947 137.16 194.835 136.232L193.587 139.56C195.763 140.712 198.739 141.64 201.747 141.64C205.651 141.64 209.971 139.624 209.971 136.04C209.971 129.8 198.067 132.008 198.067 129.352C198.067 128.392 199.731 128.072 201.843 128.072C203.891 128.072 205.875 128.488 207.955 129.288L209.075 125.576ZM222.546 124.456C217.202 124.456 212.594 127.496 212.594 132.84C212.594 137.64 216.754 141.576 222.546 141.576C228.338 141.576 232.498 137.64 232.498 132.84C232.498 127.496 227.89 124.456 222.546 124.456ZM222.546 128.136C225.874 128.136 228.242 129.864 228.242 132.84C228.242 135.528 225.714 137.928 222.546 137.928C219.378 137.928 216.85 135.528 216.85 132.84C216.85 129.864 219.218 128.136 222.546 128.136ZM246.484 124.52C243.7 124.52 241.524 126.504 240.468 128.392V125H236.244V141H240.468V133.032C240.468 129.96 242.836 128.424 245.044 128.424C247.38 128.424 248.628 129.992 248.628 132.104V141H252.852V133.032C252.852 129.992 255.22 128.424 257.428 128.424C259.764 128.424 261.012 129.992 261.012 132.104V141H265.236V131.592C265.236 127.368 263.028 124.52 258.868 124.52C256.18 124.52 253.62 126.504 252.34 128.424C251.444 126.024 249.492 124.52 246.484 124.52ZM279.117 137.768C276.109 137.768 273.773 136.456 273.165 134.12H286.925C287.117 133.384 287.213 132.648 287.213 131.944C287.213 127.624 283.565 124.456 278.701 124.456C273.357 124.456 268.813 127.656 268.813 133C268.813 137.8 272.749 141.576 278.701 141.576C281.645 141.576 284.653 140.584 286.797 139.496L285.549 136.168C283.277 137.352 281.293 137.768 279.117 137.768ZM278.445 128.008C280.941 128.008 282.541 129.128 282.957 131.016H273.261C273.901 129.064 275.693 128.008 278.445 128.008ZM299.671 124.456C294.327 124.456 289.719 127.496 289.719 132.84C289.719 137.64 293.879 141.576 299.671 141.576C305.463 141.576 309.623 137.64 309.623 132.84C309.623 127.496 305.015 124.456 299.671 124.456ZM299.671 128.136C302.999 128.136 305.367 129.864 305.367 132.84C305.367 135.528 302.839 137.928 299.671 137.928C296.503 137.928 293.975 135.528 293.975 132.84C293.975 129.864 296.343 128.136 299.671 128.136ZM322.905 128.424C325.433 128.424 326.745 129.992 326.745 132.264V141H330.969V131.752C330.969 127.4 328.473 124.52 324.121 124.52C321.081 124.52 318.713 126.472 317.593 128.552V125H313.369V141H317.593V133.064C317.593 129.896 320.249 128.424 322.905 128.424ZM344.867 137.768C341.859 137.768 339.523 136.456 338.915 134.12H352.675C352.867 133.384 352.963 132.648 352.963 131.944C352.963 127.624 349.315 124.456 344.451 124.456C339.107 124.456 334.563 127.656 334.563 133C334.563 137.8 338.499 141.576 344.451 141.576C347.395 141.576 350.403 140.584 352.547 139.496L351.299 136.168C349.027 137.352 347.043 137.768 344.867 137.768ZM344.195 128.008C346.691 128.008 348.291 129.128 348.707 131.016H339.011C339.651 129.064 341.443 128.008 344.195 128.008Z" fill="#CDFFE3"></path> </svg> 