<?xml version="1.0" encoding="UTF-8"?> <svg xmlns="http://www.w3.org/2000/svg" width="400" height="600" viewBox="0 0 400 600" fill="none"><rect width="400" height="600" rx="20" fill="#36BB71"></rect><path d="M40.234 486.4H49.504V488.776H46.102V499H43.618V488.776H40.234V486.4ZM56.8159 497.884C55.9039 498.796 54.7759 499.252 53.4319 499.252C52.0879 499.252 50.9599 498.796 50.0479 497.884C49.1359 496.972 48.6799 495.844 48.6799 494.5C48.6799 493.168 49.1359 492.046 50.0479 491.134C50.9719 490.21 52.0999 489.748 53.4319 489.748C54.7639 489.748 55.8919 490.21 56.8159 491.134C57.7399 492.058 58.2019 493.18 58.2019 494.5C58.2019 495.832 57.7399 496.96 56.8159 497.884ZM51.6859 496.282C52.1539 496.75 52.7359 496.984 53.4319 496.984C54.1279 496.984 54.7099 496.75 55.1779 496.282C55.6459 495.814 55.8799 495.22 55.8799 494.5C55.8799 493.78 55.6459 493.186 55.1779 492.718C54.7099 492.25 54.1279 492.016 53.4319 492.016C52.7359 492.016 52.1539 492.25 51.6859 492.718C51.2299 493.198 51.0019 493.792 51.0019 494.5C51.0019 495.208 51.2299 495.802 51.6859 496.282ZM71.2294 491.116V490H73.4974V498.568C73.4974 499.948 73.0354 501.01 72.1114 501.754C71.1994 502.486 70.0954 502.852 68.7994 502.852C66.7594 502.852 65.3374 502.12 64.5334 500.656L66.5134 499.522C66.9574 500.362 67.7434 500.782 68.8714 500.782C69.6034 500.782 70.1794 500.59 70.5994 500.206C71.0194 499.822 71.2294 499.276 71.2294 498.568V497.596C70.5454 498.508 69.5854 498.964 68.3494 498.964C67.0774 498.964 66.0094 498.52 65.1454 497.632C64.2934 496.72 63.8674 495.628 63.8674 494.356C63.8674 493.084 64.2994 491.998 65.1634 491.098C66.0274 490.198 67.0894 489.748 68.3494 489.748C69.5854 489.748 70.5454 490.204 71.2294 491.116ZM70.5094 496.138C70.9894 495.67 71.2294 495.076 71.2294 494.356C71.2294 493.636 70.9894 493.054 70.5094 492.61C70.0414 492.142 69.4414 491.908 68.7094 491.908C67.9894 491.908 67.3834 492.142 66.8914 492.61C66.4234 493.054 66.1894 493.636 66.1894 494.356C66.1894 495.076 66.4234 495.67 66.8914 496.138C67.3714 496.594 67.9774 496.822 68.7094 496.822C69.4414 496.822 70.0414 496.594 70.5094 496.138ZM80.607 489.748C81.603 489.748 82.413 490.078 83.037 490.738C83.685 491.41 84.009 492.322 84.009 493.474V499H81.687V493.762C81.687 493.174 81.525 492.718 81.201 492.394C80.889 492.07 80.457 491.908 79.905 491.908C79.293 491.908 78.807 492.1 78.447 492.484C78.099 492.856 77.925 493.408 77.925 494.14V499H75.603V486.4H77.925V491.008C78.477 490.168 79.371 489.748 80.607 489.748ZM93.6597 497.884C92.7477 498.796 91.6197 499.252 90.2757 499.252C88.9317 499.252 87.8037 498.796 86.8917 497.884C85.9797 496.972 85.5237 495.844 85.5237 494.5C85.5237 493.168 85.9797 492.046 86.8917 491.134C87.8157 490.21 88.9437 489.748 90.2757 489.748C91.6077 489.748 92.7357 490.21 93.6597 491.134C94.5837 492.058 95.0457 493.18 95.0457 494.5C95.0457 495.832 94.5837 496.96 93.6597 497.884ZM88.5297 496.282C88.9977 496.75 89.5797 496.984 90.2757 496.984C90.9717 496.984 91.5537 496.75 92.0217 496.282C92.4897 495.814 92.7237 495.22 92.7237 494.5C92.7237 493.78 92.4897 493.186 92.0217 492.718C91.5537 492.25 90.9717 492.016 90.2757 492.016C89.5797 492.016 88.9977 492.25 88.5297 492.718C88.0737 493.198 87.8457 493.792 87.8457 494.5C87.8457 495.208 88.0737 495.802 88.5297 496.282ZM98.6278 492.556C98.6278 492.94 99.1738 493.27 100.266 493.546C100.65 493.63 100.998 493.732 101.31 493.852C101.622 493.96 101.934 494.122 102.246 494.338C102.57 494.542 102.822 494.818 103.002 495.166C103.182 495.514 103.272 495.916 103.272 496.372C103.272 497.296 102.924 498.01 102.228 498.514C101.532 499.006 100.674 499.252 99.6538 499.252C97.8058 499.252 96.5458 498.538 95.8738 497.11L97.8898 495.976C98.1658 496.756 98.7538 497.146 99.6538 497.146C100.482 497.146 100.896 496.888 100.896 496.372C100.896 495.988 100.35 495.658 99.2578 495.382C98.8498 495.274 98.5018 495.166 98.2138 495.058C97.9258 494.95 97.6138 494.794 97.2778 494.59C96.9418 494.374 96.6838 494.104 96.5038 493.78C96.3358 493.444 96.2518 493.054 96.2518 492.61C96.2518 491.722 96.5758 491.026 97.2238 490.522C97.8838 490.006 98.6998 489.748 99.6718 489.748C100.404 489.748 101.07 489.916 101.67 490.252C102.27 490.576 102.744 491.044 103.092 491.656L101.112 492.736C100.824 492.124 100.344 491.818 99.6718 491.818C99.3718 491.818 99.1198 491.89 98.9158 492.034C98.7238 492.166 98.6278 492.34 98.6278 492.556ZM109.649 490V492.232H107.615V495.976C107.615 496.288 107.693 496.516 107.849 496.66C108.005 496.804 108.233 496.888 108.533 496.912C108.833 496.924 109.205 496.918 109.649 496.894V499C108.077 499.18 106.955 499.036 106.283 498.568C105.623 498.088 105.293 497.224 105.293 495.976V492.232H103.727V490H105.293V488.182L107.615 487.48V490H109.649ZM118.069 492.556C118.069 492.94 118.615 493.27 119.707 493.546C120.091 493.63 120.439 493.732 120.751 493.852C121.063 493.96 121.375 494.122 121.687 494.338C122.011 494.542 122.263 494.818 122.443 495.166C122.623 495.514 122.713 495.916 122.713 496.372C122.713 497.296 122.365 498.01 121.669 498.514C120.973 499.006 120.115 499.252 119.095 499.252C117.247 499.252 115.987 498.538 115.315 497.11L117.331 495.976C117.607 496.756 118.195 497.146 119.095 497.146C119.923 497.146 120.337 496.888 120.337 496.372C120.337 495.988 119.791 495.658 118.699 495.382C118.291 495.274 117.943 495.166 117.655 495.058C117.367 494.95 117.055 494.794 116.719 494.59C116.383 494.374 116.125 494.104 115.945 493.78C115.777 493.444 115.693 493.054 115.693 492.61C115.693 491.722 116.017 491.026 116.665 490.522C117.325 490.006 118.141 489.748 119.113 489.748C119.845 489.748 120.511 489.916 121.111 490.252C121.711 490.576 122.185 491.044 122.533 491.656L120.553 492.736C120.265 492.124 119.785 491.818 119.113 491.818C118.813 491.818 118.561 491.89 118.357 492.034C118.165 492.166 118.069 492.34 118.069 492.556ZM131.751 497.884C130.839 498.796 129.711 499.252 128.367 499.252C127.023 499.252 125.895 498.796 124.983 497.884C124.071 496.972 123.615 495.844 123.615 494.5C123.615 493.168 124.071 492.046 124.983 491.134C125.907 490.21 127.035 489.748 128.367 489.748C129.699 489.748 130.827 490.21 131.751 491.134C132.675 492.058 133.137 493.18 133.137 494.5C133.137 495.832 132.675 496.96 131.751 497.884ZM126.621 496.282C127.089 496.75 127.671 496.984 128.367 496.984C129.063 496.984 129.645 496.75 130.113 496.282C130.581 495.814 130.815 495.22 130.815 494.5C130.815 493.78 130.581 493.186 130.113 492.718C129.645 492.25 129.063 492.016 128.367 492.016C127.671 492.016 127.089 492.25 126.621 492.718C126.165 493.198 125.937 493.792 125.937 494.5C125.937 495.208 126.165 495.802 126.621 496.282ZM144.725 489.748C145.757 489.748 146.579 490.084 147.191 490.756C147.815 491.428 148.127 492.328 148.127 493.456V499H145.805V493.618C145.805 493.078 145.673 492.658 145.409 492.358C145.145 492.058 144.773 491.908 144.293 491.908C143.765 491.908 143.351 492.082 143.051 492.43C142.763 492.778 142.619 493.282 142.619 493.942V499H140.297V493.618C140.297 493.078 140.165 492.658 139.901 492.358C139.637 492.058 139.265 491.908 138.785 491.908C138.269 491.908 137.855 492.088 137.543 492.448C137.243 492.796 137.093 493.294 137.093 493.942V499H134.771V490H137.093V490.954C137.633 490.15 138.467 489.748 139.595 489.748C140.711 489.748 141.527 490.18 142.043 491.044C142.631 490.18 143.525 489.748 144.725 489.748ZM158.847 495.454H152.061C152.361 496.582 153.207 497.146 154.599 497.146C155.487 497.146 156.159 496.846 156.615 496.246L158.487 497.326C157.599 498.61 156.291 499.252 154.563 499.252C153.075 499.252 151.881 498.802 150.981 497.902C150.081 497.002 149.631 495.868 149.631 494.5C149.631 493.156 150.075 492.028 150.963 491.116C151.839 490.204 152.979 489.748 154.383 489.748C155.715 489.748 156.801 490.204 157.641 491.116C158.505 492.028 158.937 493.156 158.937 494.5C158.937 494.752 158.907 495.07 158.847 495.454ZM152.025 493.654H156.615C156.483 493.066 156.213 492.616 155.805 492.304C155.409 491.992 154.935 491.836 154.383 491.836C153.759 491.836 153.243 491.998 152.835 492.322C152.427 492.634 152.157 493.078 152.025 493.654ZM168.156 497.884C167.244 498.796 166.116 499.252 164.772 499.252C163.428 499.252 162.3 498.796 161.388 497.884C160.476 496.972 160.02 495.844 160.02 494.5C160.02 493.168 160.476 492.046 161.388 491.134C162.312 490.21 163.44 489.748 164.772 489.748C166.104 489.748 167.232 490.21 168.156 491.134C169.08 492.058 169.542 493.18 169.542 494.5C169.542 495.832 169.08 496.96 168.156 497.884ZM163.026 496.282C163.494 496.75 164.076 496.984 164.772 496.984C165.468 496.984 166.05 496.75 166.518 496.282C166.986 495.814 167.22 495.22 167.22 494.5C167.22 493.78 166.986 493.186 166.518 492.718C166.05 492.25 165.468 492.016 164.772 492.016C164.076 492.016 163.494 492.25 163.026 492.718C162.57 493.198 162.342 493.792 162.342 494.5C162.342 495.208 162.57 495.802 163.026 496.282ZM176.179 489.748C177.175 489.748 177.985 490.078 178.609 490.738C179.257 491.41 179.581 492.322 179.581 493.474V499H177.259V493.762C177.259 493.174 177.097 492.718 176.773 492.394C176.461 492.07 176.029 491.908 175.477 491.908C174.865 491.908 174.379 492.1 174.019 492.484C173.671 492.856 173.497 493.408 173.497 494.14V499H171.175V490H173.497V491.008C174.049 490.168 174.943 489.748 176.179 489.748ZM190.312 495.454H183.526C183.826 496.582 184.672 497.146 186.064 497.146C186.952 497.146 187.624 496.846 188.08 496.246L189.952 497.326C189.064 498.61 187.756 499.252 186.028 499.252C184.54 499.252 183.346 498.802 182.446 497.902C181.546 497.002 181.096 495.868 181.096 494.5C181.096 493.156 181.54 492.028 182.428 491.116C183.304 490.204 184.444 489.748 185.848 489.748C187.18 489.748 188.266 490.204 189.106 491.116C189.97 492.028 190.402 493.156 190.402 494.5C190.402 494.752 190.372 495.07 190.312 495.454ZM183.49 493.654H188.08C187.948 493.066 187.678 492.616 187.27 492.304C186.874 491.992 186.4 491.836 185.848 491.836C185.224 491.836 184.708 491.998 184.3 492.322C183.892 492.634 183.622 493.078 183.49 493.654ZM205.901 494.014H196.901V492.862H205.901V494.014ZM214.292 496.93L219.656 490H220.664V499H219.476V492.07L214.112 499H213.104V490H214.292V496.93ZM223.176 490H228.936V491.152H224.364V499H223.176V490ZM236.755 493.924V490H237.943V499H236.755V495.076H231.571V499H230.383V490H231.571V493.924H236.755ZM247.997 497.866C247.073 498.766 245.957 499.216 244.649 499.216C243.317 499.216 242.195 498.766 241.283 497.866C240.371 496.954 239.915 495.832 239.915 494.5C239.915 493.168 240.371 492.052 241.283 491.152C242.195 490.24 243.317 489.784 244.649 489.784C245.969 489.784 247.085 490.24 247.997 491.152C248.921 492.052 249.383 493.168 249.383 494.5C249.383 495.82 248.921 496.942 247.997 497.866ZM242.129 497.038C242.813 497.722 243.653 498.064 244.649 498.064C245.645 498.064 246.485 497.722 247.169 497.038C247.853 496.33 248.195 495.484 248.195 494.5C248.195 493.504 247.853 492.664 247.169 491.98C246.485 491.284 245.645 490.936 244.649 490.936C243.653 490.936 242.813 491.284 242.129 491.98C241.445 492.664 241.103 493.504 241.103 494.5C241.103 495.484 241.445 496.33 242.129 497.038ZM256.195 489.784C257.479 489.784 258.571 490.24 259.471 491.152C260.383 492.064 260.839 493.18 260.839 494.5C260.839 495.82 260.383 496.936 259.471 497.848C258.571 498.76 257.479 499.216 256.195 499.216C254.599 499.216 253.387 498.556 252.559 497.236V502.6H251.371V490H252.559V491.764C253.387 490.444 254.599 489.784 256.195 489.784ZM253.585 497.038C254.269 497.722 255.109 498.064 256.105 498.064C257.101 498.064 257.941 497.722 258.625 497.038C259.309 496.33 259.651 495.484 259.651 494.5C259.651 493.504 259.309 492.664 258.625 491.98C257.941 491.284 257.101 490.936 256.105 490.936C255.109 490.936 254.269 491.284 253.585 491.98C252.901 492.664 252.559 493.504 252.559 494.5C252.559 495.484 252.901 496.33 253.585 497.038ZM264.003 496.93L269.367 490H270.375V499H269.187V492.07L263.823 499H262.815V490H264.003V496.93ZM277.711 489.784C278.995 489.784 280.087 490.24 280.987 491.152C281.899 492.064 282.355 493.18 282.355 494.5C282.355 495.82 281.899 496.936 280.987 497.848C280.087 498.76 278.995 499.216 277.711 499.216C276.115 499.216 274.903 498.556 274.075 497.236V502.6H272.887V490H274.075V491.764C274.903 490.444 276.115 489.784 277.711 489.784ZM275.101 497.038C275.785 497.722 276.625 498.064 277.621 498.064C278.617 498.064 279.457 497.722 280.141 497.038C280.825 496.33 281.167 495.484 281.167 494.5C281.167 493.504 280.825 492.664 280.141 491.98C279.457 491.284 278.617 490.936 277.621 490.936C276.625 490.936 275.785 491.284 275.101 491.98C274.417 492.664 274.075 493.504 274.075 494.5C274.075 495.484 274.417 496.33 275.101 497.038ZM291.872 497.866C290.948 498.766 289.832 499.216 288.524 499.216C287.192 499.216 286.07 498.766 285.158 497.866C284.246 496.954 283.79 495.832 283.79 494.5C283.79 493.168 284.246 492.052 285.158 491.152C286.07 490.24 287.192 489.784 288.524 489.784C289.844 489.784 290.96 490.24 291.872 491.152C292.796 492.052 293.258 493.168 293.258 494.5C293.258 495.82 292.796 496.942 291.872 497.866ZM286.004 497.038C286.688 497.722 287.528 498.064 288.524 498.064C289.52 498.064 290.36 497.722 291.044 497.038C291.728 496.33 292.07 495.484 292.07 494.5C292.07 493.504 291.728 492.664 291.044 491.98C290.36 491.284 289.52 490.936 288.524 490.936C287.528 490.936 286.688 491.284 286.004 491.98C285.32 492.664 284.978 493.504 284.978 494.5C284.978 495.484 285.32 496.33 286.004 497.038ZM300.97 494.374C301.954 494.734 302.446 495.436 302.446 496.48C302.446 497.224 302.194 497.83 301.69 498.298C301.198 498.766 300.508 499 299.62 499H295.246V490H299.26C300.124 490 300.796 490.222 301.276 490.666C301.768 491.11 302.014 491.692 302.014 492.412C302.014 493.312 301.666 493.966 300.97 494.374ZM299.26 491.152H296.434V493.888H299.26C300.304 493.888 300.826 493.42 300.826 492.484C300.826 492.064 300.688 491.74 300.412 491.512C300.148 491.272 299.764 491.152 299.26 491.152ZM296.434 497.848H299.62C300.148 497.848 300.55 497.722 300.826 497.47C301.114 497.218 301.258 496.864 301.258 496.408C301.258 495.976 301.114 495.64 300.826 495.4C300.55 495.16 300.148 495.04 299.62 495.04H296.434V497.848ZM311.986 491.764V490H313.174V499H311.986V497.236C311.158 498.556 309.946 499.216 308.35 499.216C307.066 499.216 305.968 498.76 305.056 497.848C304.156 496.936 303.706 495.82 303.706 494.5C303.706 493.18 304.156 492.064 305.056 491.152C305.968 490.24 307.066 489.784 308.35 489.784C309.946 489.784 311.158 490.444 311.986 491.764ZM305.92 497.038C306.604 497.722 307.444 498.064 308.44 498.064C309.436 498.064 310.276 497.722 310.96 497.038C311.644 496.33 311.986 495.484 311.986 494.5C311.986 493.504 311.644 492.664 310.96 491.98C310.276 491.284 309.436 490.936 308.44 490.936C307.444 490.936 306.604 491.284 305.92 491.98C305.236 492.664 304.894 493.504 304.894 494.5C304.894 495.484 305.236 496.33 305.92 497.038ZM314.61 490H322.17V491.152H318.984V499H317.796V491.152H314.61V490ZM324.805 493.42H327.271C328.099 493.42 328.807 493.684 329.395 494.212C329.983 494.728 330.277 495.394 330.277 496.21C330.277 497.038 329.983 497.71 329.395 498.226C328.831 498.742 328.123 499 327.271 499H323.617V490H324.805V493.42ZM324.805 497.848H327.271C327.787 497.848 328.219 497.698 328.567 497.398C328.915 497.086 329.089 496.69 329.089 496.21C329.089 495.73 328.915 495.34 328.567 495.04C328.219 494.728 327.787 494.572 327.271 494.572H324.805V497.848ZM47.092 517.482V513H48.28V522H47.092V518.58C46.396 518.94 45.538 519.12 44.518 519.12C43.33 519.12 42.43 518.85 41.818 518.31C41.206 517.758 40.9 516.948 40.9 515.88V513H42.088V515.88C42.088 516.624 42.28 517.164 42.664 517.5C43.06 517.836 43.666 518.004 44.482 518.004C45.394 518.004 46.264 517.83 47.092 517.482ZM51.9929 516.42H54.4589C55.2869 516.42 55.9949 516.684 56.5829 517.212C57.1709 517.728 57.4649 518.394 57.4649 519.21C57.4649 520.038 57.1709 520.71 56.5829 521.226C56.0189 521.742 55.3109 522 54.4589 522H50.8049V513H51.9929V516.42ZM51.9929 520.848H54.4589C54.9749 520.848 55.4069 520.698 55.7549 520.398C56.1029 520.086 56.2769 519.69 56.2769 519.21C56.2769 518.73 56.1029 518.34 55.7549 518.04C55.4069 517.728 54.9749 517.572 54.4589 517.572H51.9929V520.848ZM60.448 519.93L65.812 513H66.82V522H65.632V515.07L60.268 522H59.26V513H60.448V519.93ZM75.9923 517.014H69.5123V515.862H75.9923V517.014ZM77.0589 513H84.6189V514.152H81.4329V522H80.2449V514.152H77.0589V513ZM93.2571 520.866C92.3331 521.766 91.2171 522.216 89.9091 522.216C88.5771 522.216 87.4551 521.766 86.5431 520.866C85.6311 519.954 85.1751 518.832 85.1751 517.5C85.1751 516.168 85.6311 515.052 86.5431 514.152C87.4551 513.24 88.5771 512.784 89.9091 512.784C91.2291 512.784 92.3451 513.24 93.2571 514.152C94.1811 515.052 94.6431 516.168 94.6431 517.5C94.6431 518.82 94.1811 519.942 93.2571 520.866ZM87.3891 520.038C88.0731 520.722 88.9131 521.064 89.9091 521.064C90.9051 521.064 91.7451 520.722 92.4291 520.038C93.1131 519.33 93.4551 518.484 93.4551 517.5C93.4551 516.504 93.1131 515.664 92.4291 514.98C91.7451 514.284 90.9051 513.936 89.9091 513.936C88.9131 513.936 88.0731 514.284 87.3891 514.98C86.7051 515.664 86.3631 516.504 86.3631 517.5C86.3631 518.484 86.7051 519.33 87.3891 520.038ZM105.325 522.216C103.969 522.216 102.841 521.766 101.941 520.866C101.041 519.942 100.591 518.82 100.591 517.5C100.591 516.168 101.041 515.052 101.941 514.152C102.841 513.24 103.969 512.784 105.325 512.784C106.213 512.784 107.011 513 107.719 513.432C108.427 513.852 108.943 514.422 109.267 515.142L108.295 515.7C108.055 515.16 107.665 514.734 107.125 514.422C106.597 514.098 105.997 513.936 105.325 513.936C104.329 513.936 103.489 514.284 102.805 514.98C102.121 515.664 101.779 516.504 101.779 517.5C101.779 518.484 102.121 519.33 102.805 520.038C103.489 520.722 104.329 521.064 105.325 521.064C105.985 521.064 106.579 520.908 107.107 520.596C107.647 520.284 108.067 519.852 108.367 519.3L109.357 519.876C108.985 520.596 108.439 521.166 107.719 521.586C106.999 522.006 106.201 522.216 105.325 522.216ZM118.517 520.866C117.593 521.766 116.477 522.216 115.169 522.216C113.837 522.216 112.715 521.766 111.803 520.866C110.891 519.954 110.435 518.832 110.435 517.5C110.435 516.168 110.891 515.052 111.803 514.152C112.715 513.24 113.837 512.784 115.169 512.784C116.489 512.784 117.605 513.24 118.517 514.152C119.441 515.052 119.903 516.168 119.903 517.5C119.903 518.82 119.441 519.942 118.517 520.866ZM112.649 520.038C113.333 520.722 114.173 521.064 115.169 521.064C116.165 521.064 117.005 520.722 117.689 520.038C118.373 519.33 118.715 518.484 118.715 517.5C118.715 516.504 118.373 515.664 117.689 514.98C117.005 514.284 116.165 513.936 115.169 513.936C114.173 513.936 113.333 514.284 112.649 514.98C111.965 515.664 111.623 516.504 111.623 517.5C111.623 518.484 111.965 519.33 112.649 520.038ZM129.433 520.866C128.509 521.766 127.393 522.216 126.085 522.216C124.753 522.216 123.631 521.766 122.719 520.866C121.807 519.954 121.351 518.832 121.351 517.5C121.351 516.168 121.807 515.052 122.719 514.152C123.631 513.24 124.753 512.784 126.085 512.784C127.405 512.784 128.521 513.24 129.433 514.152C130.357 515.052 130.819 516.168 130.819 517.5C130.819 518.82 130.357 519.942 129.433 520.866ZM123.565 520.038C124.249 520.722 125.089 521.064 126.085 521.064C127.081 521.064 127.921 520.722 128.605 520.038C129.289 519.33 129.631 518.484 129.631 517.5C129.631 516.504 129.289 515.664 128.605 514.98C127.921 514.284 127.081 513.936 126.085 513.936C125.089 513.936 124.249 514.284 123.565 514.98C122.881 515.664 122.539 516.504 122.539 517.5C122.539 518.484 122.881 519.33 123.565 520.038ZM136.803 522.216C135.519 522.216 134.439 521.79 133.563 520.938C132.699 520.074 132.267 518.958 132.267 517.59C132.267 516.054 132.495 514.878 132.951 514.062C133.407 513.234 134.331 512.484 135.723 511.812C136.167 511.608 136.515 511.452 136.767 511.344C137.187 511.176 137.517 511.032 137.757 510.912C138.801 510.432 139.329 509.838 139.341 509.13L140.277 509.67C140.217 509.97 140.121 510.24 139.989 510.48C139.833 510.744 139.677 510.954 139.521 511.11C139.377 511.266 139.149 511.434 138.837 511.614C138.633 511.734 138.387 511.866 138.099 512.01L137.199 512.388L136.353 512.748C135.525 513.108 134.907 513.486 134.499 513.882C134.103 514.266 133.821 514.77 133.653 515.394C134.037 514.878 134.541 514.488 135.165 514.224C135.789 513.948 136.419 513.81 137.055 513.81C138.255 513.81 139.245 514.206 140.025 514.998C140.817 515.778 141.213 516.78 141.213 518.004C141.213 519.216 140.793 520.224 139.953 521.028C139.125 521.82 138.075 522.216 136.803 522.216ZM134.463 520.146C135.087 520.734 135.867 521.028 136.803 521.028C137.739 521.028 138.507 520.746 139.107 520.182C139.719 519.606 140.025 518.88 140.025 518.004C140.025 517.116 139.737 516.39 139.161 515.826C138.597 515.25 137.841 514.962 136.893 514.962C136.041 514.962 135.267 515.232 134.571 515.772C133.875 516.288 133.527 516.996 133.527 517.896C133.527 518.808 133.839 519.558 134.463 520.146ZM155.08 513V520.848H156.34V524.412H155.152V522H143.02V513H144.208V520.848H148.456V513H149.644V520.848H153.892V513H155.08ZM161.943 512.784C163.287 512.784 164.361 513.258 165.165 514.206C165.993 515.142 166.407 516.252 166.407 517.536C166.407 517.596 166.395 517.782 166.371 518.094H158.469C158.589 518.994 158.973 519.714 159.621 520.254C160.269 520.794 161.079 521.064 162.051 521.064C163.419 521.064 164.385 520.554 164.949 519.534L165.993 520.146C165.597 520.794 165.051 521.304 164.355 521.676C163.671 522.036 162.897 522.216 162.033 522.216C160.617 522.216 159.465 521.772 158.577 520.884C157.689 519.996 157.245 518.868 157.245 517.5C157.245 516.144 157.683 515.022 158.559 514.134C159.435 513.234 160.563 512.784 161.943 512.784ZM161.943 513.936C161.007 513.936 160.221 514.212 159.585 514.764C158.961 515.316 158.589 516.042 158.469 516.942H165.183C165.051 515.982 164.685 515.244 164.085 514.728C163.461 514.2 162.747 513.936 161.943 513.936ZM174.669 516.924V513H175.857V522H174.669V518.076H169.485V522H168.297V513H169.485V516.924H174.669ZM179.557 519.93L184.921 513H185.929V522H184.741V515.07L179.377 522H178.369V513H179.557V519.93ZM191.268 513H194.922V522H193.734V518.544H192.186L189.414 522H187.902L190.746 518.508C190.014 518.4 189.414 518.1 188.946 517.608C188.49 517.104 188.262 516.498 188.262 515.79C188.262 514.986 188.55 514.32 189.126 513.792C189.726 513.264 190.44 513 191.268 513ZM191.268 517.428H193.734V514.152H191.268C190.752 514.152 190.32 514.308 189.972 514.62C189.624 514.92 189.45 515.31 189.45 515.79C189.45 516.27 189.624 516.666 189.972 516.978C190.32 517.278 190.752 517.428 191.268 517.428Z" fill="#CDFFE3" fill-opacity="0.6"></path><path d="M47.296 84.136V101H42.88V78.6H48.032L61.536 95.464V78.6H65.952V101H60.8L47.296 84.136ZM80.4918 97.768C82.6678 97.768 84.6518 97.352 86.9237 96.168L88.1718 99.496C86.0278 100.584 83.0198 101.576 80.0758 101.576C74.1238 101.576 70.1878 97.8 70.1878 93C70.1878 87.656 74.7318 84.456 80.0758 84.456C84.9398 84.456 88.5878 87.624 88.5878 91.944C88.5878 92.648 88.4918 93.384 88.2998 94.12H74.5398C75.1478 96.456 77.4838 97.768 80.4918 97.768ZM79.8198 88.008C77.0677 88.008 75.2758 89.064 74.6358 91.016H84.3318C83.9158 89.128 82.3158 88.008 79.8198 88.008ZM94.39 85L99.638 96.232L104.822 85H109.526L101.942 101H97.302L89.75 85H94.39ZM121.179 97.768C123.355 97.768 125.339 97.352 127.611 96.168L128.859 99.496C126.715 100.584 123.707 101.576 120.763 101.576C114.811 101.576 110.875 97.8 110.875 93C110.875 87.656 115.419 84.456 120.763 84.456C125.627 84.456 129.275 87.624 129.275 91.944C129.275 92.648 129.179 93.384 128.987 94.12H115.227C115.835 96.456 118.171 97.768 121.179 97.768ZM120.507 88.008C117.755 88.008 115.963 89.064 115.323 91.016H125.019C124.603 89.128 123.003 88.008 120.507 88.008ZM142.982 84.456C143.878 84.456 144.87 84.712 145.67 85.096L144.774 88.936C144.006 88.584 143.174 88.392 142.566 88.392C139.91 88.392 137.062 90.12 137.062 93.064V101H132.838V85H137.062V88.552C137.99 86.824 140.198 84.456 142.982 84.456ZM166.436 88.424C163.78 88.424 161.124 89.896 161.124 93.064V101H156.9V77.288H161.124V88.552C162.244 86.472 164.612 84.52 167.652 84.52C172.004 84.52 174.5 87.4 174.5 91.752V101H170.276V92.264C170.276 89.992 168.964 88.424 166.436 88.424ZM184.75 91.88C186.478 91.88 188.75 92.392 190.126 92.872V91.016C190.126 89.352 189.038 88.232 187.022 88.232C185.358 88.232 182.926 88.968 180.59 89.832L179.534 85.992C181.518 85.352 184.878 84.36 187.406 84.36C191.79 84.36 194.35 86.696 194.35 91.08V96.84C194.35 97.32 194.67 97.608 195.118 97.608C195.598 97.608 196.43 97.256 197.358 96.776L198.222 100.04C196.462 101 194.542 101.64 193.23 101.64C191.086 101.64 190.19 100.136 190.126 98.344C188.59 100.168 186.158 101.64 183.438 101.64C180.43 101.64 178.19 99.656 178.19 96.776C178.19 93.352 181.454 91.88 184.75 91.88ZM184.814 98.024C186.414 98.024 188.622 97.16 190.126 95.688V95.08C188.366 94.76 186.51 94.6 184.974 94.6C183.566 94.6 182.51 95.272 182.51 96.424C182.51 97.48 183.47 98.024 184.814 98.024ZM202.859 85L208.107 96.232L213.291 85H217.995L210.411 101H205.771L198.219 85H202.859ZM229.648 97.768C231.824 97.768 233.808 97.352 236.08 96.168L237.328 99.496C235.184 100.584 232.176 101.576 229.232 101.576C223.28 101.576 219.344 97.8 219.344 93C219.344 87.656 223.888 84.456 229.232 84.456C234.096 84.456 237.744 87.624 237.744 91.944C237.744 92.648 237.648 93.384 237.456 94.12H223.696C224.304 96.456 226.64 97.768 229.648 97.768ZM228.976 88.008C226.224 88.008 224.432 89.064 223.792 91.016H233.488C233.072 89.128 231.472 88.008 228.976 88.008ZM255.265 78.6V101H250.849V78.6H255.265ZM278.867 97.768C281.043 97.768 283.027 97.352 285.299 96.168L286.547 99.496C284.403 100.584 281.395 101.576 278.451 101.576C272.499 101.576 268.563 97.8 268.563 93C268.563 87.656 273.107 84.456 278.451 84.456C283.315 84.456 286.963 87.624 286.963 91.944C286.963 92.648 286.867 93.384 286.675 94.12H272.915C273.523 96.456 275.859 97.768 278.867 97.768ZM278.195 88.008C275.443 88.008 273.651 89.064 273.011 91.016H282.707C282.291 89.128 280.691 88.008 278.195 88.008ZM292.765 85L298.013 96.232L303.197 85H307.901L300.317 101H295.677L288.125 85H292.765ZM319.554 97.768C321.73 97.768 323.714 97.352 325.986 96.168L327.234 99.496C325.09 100.584 322.082 101.576 319.138 101.576C313.186 101.576 309.25 97.8 309.25 93C309.25 87.656 313.794 84.456 319.138 84.456C324.002 84.456 327.65 87.624 327.65 91.944C327.65 92.648 327.554 93.384 327.362 94.12H313.602C314.21 96.456 316.546 97.768 319.554 97.768ZM318.882 88.008C316.13 88.008 314.338 89.064 313.698 91.016H323.394C322.978 89.128 321.378 88.008 318.882 88.008ZM341.357 84.456C342.253 84.456 343.245 84.712 344.045 85.096L343.149 88.936C342.381 88.584 341.549 88.392 340.941 88.392C338.285 88.392 335.437 90.12 335.437 93.064V101H331.213V85H335.437V88.552C336.365 86.824 338.573 84.456 341.357 84.456ZM53.376 124.456C57.632 124.456 61.312 127.656 61.312 132.84C61.312 137.64 57.28 141.576 52.032 141.576C48.832 141.576 44.48 140.328 42.4 139.4V117H46.624V128.552C47.68 126.344 50.208 124.456 53.376 124.456ZM52.128 128.392C49.44 128.392 46.624 130.12 46.624 133.064V136.936C48.48 137.544 50.144 137.864 52.096 137.864C54.72 137.864 57.056 135.528 57.056 132.84C57.056 129.96 54.912 128.392 52.128 128.392ZM74.3043 137.768C76.4803 137.768 78.4643 137.352 80.7362 136.168L81.9843 139.496C79.8403 140.584 76.8323 141.576 73.8883 141.576C67.9363 141.576 64.0003 137.8 64.0003 133C64.0003 127.656 68.5443 124.456 73.8883 124.456C78.7523 124.456 82.4003 127.624 82.4003 131.944C82.4003 132.648 82.3043 133.384 82.1123 134.12H68.3523C68.9603 136.456 71.2963 137.768 74.3043 137.768ZM73.6323 128.008C70.8802 128.008 69.0883 129.064 68.4483 131.016H78.1443C77.7283 129.128 76.1283 128.008 73.6323 128.008ZM95.2105 137.768C97.3865 137.768 99.3705 137.352 101.642 136.168L102.891 139.496C100.747 140.584 97.7385 141.576 94.7945 141.576C88.8425 141.576 84.9065 137.8 84.9065 133C84.9065 127.656 89.4505 124.456 94.7945 124.456C99.6585 124.456 103.307 127.624 103.307 131.944C103.307 132.648 103.211 133.384 103.019 134.12H89.2585C89.8665 136.456 92.2025 137.768 95.2105 137.768ZM94.5385 128.008C91.7865 128.008 89.9945 129.064 89.3545 131.016H99.0505C98.6345 129.128 97.0345 128.008 94.5385 128.008ZM116.405 128.424C113.749 128.424 111.093 129.896 111.093 133.064V141H106.869V125H111.093V128.552C112.213 126.472 114.581 124.52 117.621 124.52C121.973 124.52 124.469 127.4 124.469 131.752V141H120.245V132.264C120.245 129.992 118.933 128.424 116.405 128.424ZM143.877 138.888H146.053C151.525 138.888 155.557 140.328 155.557 143.656C155.557 147.304 151.525 149.096 146.053 149.096C140.229 149.096 136.453 147.336 136.453 143.976C136.453 142.28 138.149 140.712 139.749 140.296C138.885 139.88 138.213 138.76 138.213 137.736C138.213 136.68 139.141 135.848 139.941 135.336C138.469 134.376 137.093 132.616 137.093 130.888C137.093 126.664 141.029 124.456 145.413 124.456C147.141 124.456 148.805 124.808 150.181 125.48C151.397 124.488 152.997 123.72 155.045 123.368L155.813 127.304C154.693 127.432 153.797 127.656 153.029 128.04C153.477 128.84 153.765 129.8 153.765 130.888C153.765 134.536 150.245 137.288 145.413 137.288C144.613 137.288 143.813 137.224 143.077 137.096C142.693 137.192 142.277 137.512 142.277 137.96C142.277 138.504 142.821 138.888 143.877 138.888ZM145.381 127.944C143.077 127.944 141.349 128.936 141.349 130.76C141.349 132.36 143.077 133.512 145.381 133.512C147.813 133.512 149.381 132.264 149.381 130.76C149.381 128.936 147.653 127.944 145.381 127.944ZM145.989 142.472C145.349 142.472 142.373 142.472 141.829 142.504C141.125 142.792 140.517 143.336 140.517 143.976C140.517 145.128 142.469 145.64 145.989 145.64C149.285 145.64 151.461 145.192 151.461 144.008C151.461 142.92 149.285 142.472 145.989 142.472ZM167.905 128.424C165.249 128.424 162.593 129.896 162.593 133.064V141H158.369V117.288H162.593V128.552C163.713 126.472 166.081 124.52 169.121 124.52C173.473 124.52 175.969 127.4 175.969 131.752V141H171.745V132.264C171.745 129.992 170.433 128.424 167.905 128.424ZM189.515 124.456C194.859 124.456 199.467 127.496 199.467 132.84C199.467 137.64 195.307 141.576 189.515 141.576C183.723 141.576 179.563 137.64 179.563 132.84C179.563 127.496 184.171 124.456 189.515 124.456ZM189.515 128.136C186.187 128.136 183.819 129.864 183.819 132.84C183.819 135.528 186.347 137.928 189.515 137.928C192.683 137.928 195.211 135.528 195.211 132.84C195.211 129.864 192.843 128.136 189.515 128.136ZM217.357 125.576L216.237 129.288C214.157 128.488 212.173 128.072 210.125 128.072C208.013 128.072 206.349 128.392 206.349 129.352C206.349 132.008 218.253 129.8 218.253 136.04C218.253 139.624 213.933 141.64 210.029 141.64C207.021 141.64 204.045 140.712 201.868 139.56L203.117 136.232C205.229 137.16 207.725 137.928 210.189 137.928C212.493 137.928 214.093 137.288 214.093 136.168C214.093 133.64 202.189 135.752 202.189 129.512C202.189 126.376 205.421 124.392 209.965 124.392C212.493 124.392 215.469 124.936 217.357 125.576ZM220.171 128.68V125.32L223.339 125.128L223.915 120.2H227.435V125H234.091V128.68H227.435V134.728C227.435 136.456 228.363 137.64 230.027 137.64C231.275 137.64 232.683 137.128 233.707 136.488L234.635 140.104C233.291 140.808 231.019 141.544 229.323 141.544C225.355 141.544 223.211 138.92 223.211 134.888V128.68H220.171ZM247.086 137.768C249.262 137.768 251.246 137.352 253.517 136.168L254.766 139.496C252.622 140.584 249.614 141.576 246.67 141.576C240.718 141.576 236.782 137.8 236.782 133C236.782 127.656 241.326 124.456 246.67 124.456C251.534 124.456 255.182 127.624 255.182 131.944C255.182 132.648 255.086 133.384 254.894 134.12H241.134C241.742 136.456 244.078 137.768 247.086 137.768ZM246.414 128.008C243.661 128.008 241.87 129.064 241.23 131.016H250.926C250.51 129.128 248.91 128.008 246.414 128.008ZM265.752 141.544C261.368 141.544 257.688 138.344 257.688 133.16C257.688 128.36 261.72 124.424 267.096 124.424C268.824 124.424 271.032 125.064 272.632 125.576V117H276.856V141H272.632V137.448C271.576 139.656 269.016 141.544 265.752 141.544ZM267 137.608C269.816 137.608 272.632 135.624 272.632 132.552V129.096C270.776 128.552 268.984 128.136 267.032 128.136C264.152 128.136 261.944 130.312 261.944 133.128C261.944 136.008 264.152 137.608 267 137.608ZM299.609 124.456C304.953 124.456 309.561 127.496 309.561 132.84C309.561 137.64 305.401 141.576 299.609 141.576C293.817 141.576 289.657 137.64 289.657 132.84C289.657 127.496 294.265 124.456 299.609 124.456ZM299.609 128.136C296.281 128.136 293.913 129.864 293.913 132.84C293.913 135.528 296.441 137.928 299.609 137.928C302.777 137.928 305.305 135.528 305.305 132.84C305.305 129.864 302.937 128.136 299.609 128.136ZM323.45 124.456C324.346 124.456 325.338 124.712 326.138 125.096L325.242 128.936C324.474 128.584 323.642 128.392 323.034 128.392C320.378 128.392 317.53 130.12 317.53 133.064V141H313.306V125H317.53V128.552C318.458 126.824 320.666 124.456 323.45 124.456ZM48.096 178.888H50.272C55.744 178.888 59.776 180.328 59.776 183.656C59.776 187.304 55.744 189.096 50.272 189.096C44.448 189.096 40.672 187.336 40.672 183.976C40.672 182.28 42.368 180.712 43.968 180.296C43.104 179.88 42.432 178.76 42.432 177.736C42.432 176.68 43.36 175.848 44.16 175.336C42.688 174.376 41.312 172.616 41.312 170.888C41.312 166.664 45.248 164.456 49.632 164.456C51.36 164.456 53.024 164.808 54.4 165.48C55.616 164.488 57.216 163.72 59.264 163.368L60.032 167.304C58.912 167.432 58.016 167.656 57.248 168.04C57.696 168.84 57.984 169.8 57.984 170.888C57.984 174.536 54.464 177.288 49.632 177.288C48.832 177.288 48.032 177.224 47.296 177.096C46.912 177.192 46.496 177.512 46.496 177.96C46.496 178.504 47.04 178.888 48.096 178.888ZM49.6 167.944C47.296 167.944 45.568 168.936 45.568 170.76C45.568 172.36 47.296 173.512 49.6 173.512C52.032 173.512 53.6 172.264 53.6 170.76C53.6 168.936 51.872 167.944 49.6 167.944ZM50.208 182.472C49.568 182.472 46.592 182.472 46.048 182.504C45.344 182.792 44.736 183.336 44.736 183.976C44.736 185.128 46.688 185.64 50.208 185.64C53.504 185.64 55.68 185.192 55.68 184.008C55.68 182.92 53.504 182.472 50.208 182.472ZM72.1235 168.424C69.4675 168.424 66.8115 169.896 66.8115 173.064V181H62.5875V157.288H66.8115V168.552C67.9315 166.472 70.2995 164.52 73.3395 164.52C77.6915 164.52 80.1875 167.4 80.1875 171.752V181H75.9635V172.264C75.9635 169.992 74.6515 168.424 72.1235 168.424ZM93.7335 164.456C99.0775 164.456 103.686 167.496 103.686 172.84C103.686 177.64 99.5255 181.576 93.7335 181.576C87.9415 181.576 83.7815 177.64 83.7815 172.84C83.7815 167.496 88.3895 164.456 93.7335 164.456ZM93.7335 168.136C90.4055 168.136 88.0375 169.864 88.0375 172.84C88.0375 175.528 90.5655 177.928 93.7335 177.928C96.9015 177.928 99.4295 175.528 99.4295 172.84C99.4295 169.864 97.0615 168.136 93.7335 168.136ZM121.575 165.576L120.455 169.288C118.375 168.488 116.391 168.072 114.343 168.072C112.231 168.072 110.567 168.392 110.567 169.352C110.567 172.008 122.471 169.8 122.471 176.04C122.471 179.624 118.151 181.64 114.247 181.64C111.239 181.64 108.263 180.712 106.087 179.56L107.335 176.232C109.447 177.16 111.943 177.928 114.407 177.928C116.711 177.928 118.311 177.288 118.311 176.168C118.311 173.64 106.407 175.752 106.407 169.512C106.407 166.376 109.639 164.392 114.183 164.392C116.711 164.392 119.687 164.936 121.575 165.576ZM124.39 168.68V165.32L127.558 165.128L128.134 160.2H131.654V165H138.31V168.68H131.654V174.728C131.654 176.456 132.582 177.64 134.246 177.64C135.494 177.64 136.902 177.128 137.926 176.488L138.854 180.104C137.51 180.808 135.238 181.544 133.542 181.544C129.574 181.544 127.43 178.92 127.43 174.888V168.68H124.39ZM151.304 177.768C153.48 177.768 155.464 177.352 157.736 176.168L158.984 179.496C156.84 180.584 153.832 181.576 150.888 181.576C144.936 181.576 141 177.8 141 173C141 167.656 145.544 164.456 150.888 164.456C155.752 164.456 159.4 167.624 159.4 171.944C159.4 172.648 159.304 173.384 159.112 174.12H145.352C145.96 176.456 148.296 177.768 151.304 177.768ZM150.632 168.008C147.88 168.008 146.088 169.064 145.448 171.016H155.144C154.728 169.128 153.128 168.008 150.632 168.008ZM169.97 181.544C165.587 181.544 161.907 178.344 161.907 173.16C161.907 168.36 165.939 164.424 171.315 164.424C173.043 164.424 175.251 165.064 176.851 165.576V157H181.075V181H176.851V177.448C175.795 179.656 173.235 181.544 169.97 181.544ZM171.219 177.608C174.035 177.608 176.851 175.624 176.851 172.552V169.096C174.995 168.552 173.203 168.136 171.251 168.136C168.371 168.136 166.163 170.312 166.163 173.128C166.163 176.008 168.371 177.608 171.219 177.608ZM209.075 165.576L207.955 169.288C205.875 168.488 203.891 168.072 201.843 168.072C199.731 168.072 198.067 168.392 198.067 169.352C198.067 172.008 209.971 169.8 209.971 176.04C209.971 179.624 205.651 181.64 201.747 181.64C198.739 181.64 195.763 180.712 193.587 179.56L194.835 176.232C196.947 177.16 199.443 177.928 201.907 177.928C204.211 177.928 205.811 177.288 205.811 176.168C205.811 173.64 193.907 175.752 193.907 169.512C193.907 166.376 197.139 164.392 201.683 164.392C204.211 164.392 207.187 164.936 209.075 165.576ZM222.546 164.456C227.89 164.456 232.498 167.496 232.498 172.84C232.498 177.64 228.338 181.576 222.546 181.576C216.754 181.576 212.594 177.64 212.594 172.84C212.594 167.496 217.202 164.456 222.546 164.456ZM222.546 168.136C219.218 168.136 216.85 169.864 216.85 172.84C216.85 175.528 219.378 177.928 222.546 177.928C225.714 177.928 228.242 175.528 228.242 172.84C228.242 169.864 225.874 168.136 222.546 168.136ZM246.484 164.52C249.492 164.52 251.444 166.024 252.34 168.424C253.62 166.504 256.18 164.52 258.868 164.52C263.028 164.52 265.236 167.368 265.236 171.592V181H261.012V172.104C261.012 169.992 259.764 168.424 257.428 168.424C255.22 168.424 252.852 169.992 252.852 173.032V181H248.628V172.104C248.628 169.992 247.38 168.424 245.044 168.424C242.836 168.424 240.468 169.96 240.468 173.032V181H236.244V165H240.468V168.392C241.524 166.504 243.7 164.52 246.484 164.52ZM279.117 177.768C281.293 177.768 283.277 177.352 285.549 176.168L286.797 179.496C284.653 180.584 281.645 181.576 278.701 181.576C272.749 181.576 268.813 177.8 268.813 173C268.813 167.656 273.357 164.456 278.701 164.456C283.565 164.456 287.213 167.624 287.213 171.944C287.213 172.648 287.117 173.384 286.925 174.12H273.165C273.773 176.456 276.109 177.768 279.117 177.768ZM278.445 168.008C275.693 168.008 273.901 169.064 273.261 171.016H282.957C282.541 169.128 280.941 168.008 278.445 168.008ZM299.671 164.456C305.015 164.456 309.623 167.496 309.623 172.84C309.623 177.64 305.463 181.576 299.671 181.576C293.879 181.576 289.719 177.64 289.719 172.84C289.719 167.496 294.327 164.456 299.671 164.456ZM299.671 168.136C296.343 168.136 293.975 169.864 293.975 172.84C293.975 175.528 296.503 177.928 299.671 177.928C302.839 177.928 305.367 175.528 305.367 172.84C305.367 169.864 302.999 168.136 299.671 168.136ZM322.905 168.424C320.249 168.424 317.593 169.896 317.593 173.064V181H313.369V165H317.593V168.552C318.713 166.472 321.081 164.52 324.121 164.52C328.473 164.52 330.969 167.4 330.969 171.752V181H326.745V172.264C326.745 169.992 325.433 168.424 322.905 168.424ZM344.867 177.768C347.043 177.768 349.027 177.352 351.299 176.168L352.547 179.496C350.403 180.584 347.395 181.576 344.451 181.576C338.499 181.576 334.563 177.8 334.563 173C334.563 167.656 339.107 164.456 344.451 164.456C349.315 164.456 352.963 167.624 352.963 171.944C352.963 172.648 352.867 173.384 352.675 174.12H338.915C339.523 176.456 341.859 177.768 344.867 177.768ZM344.195 168.008C341.443 168.008 339.651 169.064 339.011 171.016H348.707C348.291 169.128 346.691 168.008 344.195 168.008Z" fill="#CDFFE3"></path></svg> 