<?xml version="1.0" encoding="UTF-8"?> <svg xmlns="http://www.w3.org/2000/svg" width="400" height="600" viewBox="0 0 400 600" fill="none"> <rect width="400" height="600" rx="20" fill="#EEBF38"></rect> <path d="M47.296 84.136L60.8 101H65.952V78.6H61.536V95.464L48.032 78.6H42.88V101H47.296V84.136ZM80.4918 97.768C77.4838 97.768 75.1478 96.456 74.5398 94.12H88.2998C88.4918 93.384 88.5878 92.648 88.5878 91.944C88.5878 87.624 84.9398 84.456 80.0758 84.456C74.7318 84.456 70.1878 87.656 70.1878 93C70.1878 97.8 74.1238 101.576 80.0758 101.576C83.0198 101.576 86.0278 100.584 88.1718 99.496L86.9237 96.168C84.6518 97.352 82.6678 97.768 80.4918 97.768ZM79.8198 88.008C82.3158 88.008 83.9158 89.128 84.3318 91.016H74.6358C75.2758 89.064 77.0677 88.008 79.8198 88.008ZM94.39 85H89.75L97.302 101H101.942L109.526 85H104.822L99.638 96.232L94.39 85ZM121.179 97.768C118.171 97.768 115.835 96.456 115.227 94.12H128.987C129.179 93.384 129.275 92.648 129.275 91.944C129.275 87.624 125.627 84.456 120.763 84.456C115.419 84.456 110.875 87.656 110.875 93C110.875 97.8 114.811 101.576 120.763 101.576C123.707 101.576 126.715 100.584 128.859 99.496L127.611 96.168C125.339 97.352 123.355 97.768 121.179 97.768ZM120.507 88.008C123.003 88.008 124.603 89.128 125.019 91.016H115.323C115.963 89.064 117.755 88.008 120.507 88.008ZM142.982 84.456C140.198 84.456 137.99 86.824 137.062 88.552V85H132.838V101H137.062V93.064C137.062 90.12 139.91 88.392 142.566 88.392C143.174 88.392 144.006 88.584 144.774 88.936L145.67 85.096C144.87 84.712 143.878 84.456 142.982 84.456ZM166.436 88.424C168.964 88.424 170.276 89.992 170.276 92.264V101H174.5V91.752C174.5 87.4 172.004 84.52 167.652 84.52C164.612 84.52 162.244 86.472 161.124 88.552V77.288H156.9V101H161.124V93.064C161.124 89.896 163.78 88.424 166.436 88.424ZM184.75 91.88C181.454 91.88 178.19 93.352 178.19 96.776C178.19 99.656 180.43 101.64 183.438 101.64C186.158 101.64 188.59 100.168 190.126 98.344C190.19 100.136 191.086 101.64 193.23 101.64C194.542 101.64 196.462 101 198.222 100.04L197.358 96.776C196.43 97.256 195.598 97.608 195.118 97.608C194.67 97.608 194.35 97.32 194.35 96.84V91.08C194.35 86.696 191.79 84.36 187.406 84.36C184.878 84.36 181.518 85.352 179.534 85.992L180.59 89.832C182.926 88.968 185.358 88.232 187.022 88.232C189.038 88.232 190.126 89.352 190.126 91.016V92.872C188.75 92.392 186.478 91.88 184.75 91.88ZM184.814 98.024C183.47 98.024 182.51 97.48 182.51 96.424C182.51 95.272 183.566 94.6 184.974 94.6C186.51 94.6 188.366 94.76 190.126 95.08V95.688C188.622 97.16 186.414 98.024 184.814 98.024ZM202.859 85H198.219L205.771 101H210.411L217.995 85H213.291L208.107 96.232L202.859 85ZM229.648 97.768C226.64 97.768 224.304 96.456 223.696 94.12H237.456C237.648 93.384 237.744 92.648 237.744 91.944C237.744 87.624 234.096 84.456 229.232 84.456C223.888 84.456 219.344 87.656 219.344 93C219.344 97.8 223.28 101.576 229.232 101.576C232.176 101.576 235.184 100.584 237.328 99.496L236.08 96.168C233.808 97.352 231.824 97.768 229.648 97.768ZM228.976 88.008C231.472 88.008 233.072 89.128 233.488 91.016H223.792C224.432 89.064 226.224 88.008 228.976 88.008ZM255.265 78.6H250.849V101H255.265V78.6ZM278.867 97.768C275.859 97.768 273.523 96.456 272.915 94.12H286.675C286.867 93.384 286.963 92.648 286.963 91.944C286.963 87.624 283.315 84.456 278.451 84.456C273.107 84.456 268.563 87.656 268.563 93C268.563 97.8 272.499 101.576 278.451 101.576C281.395 101.576 284.403 100.584 286.547 99.496L285.299 96.168C283.027 97.352 281.043 97.768 278.867 97.768ZM278.195 88.008C280.691 88.008 282.291 89.128 282.707 91.016H273.011C273.651 89.064 275.443 88.008 278.195 88.008ZM292.765 85H288.125L295.677 101H300.317L307.901 85H303.197L298.013 96.232L292.765 85ZM319.554 97.768C316.546 97.768 314.21 96.456 313.602 94.12H327.362C327.554 93.384 327.65 92.648 327.65 91.944C327.65 87.624 324.002 84.456 319.138 84.456C313.794 84.456 309.25 87.656 309.25 93C309.25 97.8 313.186 101.576 319.138 101.576C322.082 101.576 325.09 100.584 327.234 99.496L325.986 96.168C323.714 97.352 321.73 97.768 319.554 97.768ZM318.882 88.008C321.378 88.008 322.978 89.128 323.394 91.016H313.698C314.338 89.064 316.13 88.008 318.882 88.008ZM341.357 84.456C338.573 84.456 336.365 86.824 335.437 88.552V85H331.213V101H335.437V93.064C335.437 90.12 338.285 88.392 340.941 88.392C341.549 88.392 342.381 88.584 343.149 88.936L344.045 85.096C343.245 84.712 342.253 84.456 341.357 84.456ZM56.544 125.576C54.656 124.936 51.68 124.392 49.152 124.392C44.608 124.392 41.376 126.376 41.376 129.512C41.376 135.752 53.28 133.64 53.28 136.168C53.28 137.288 51.68 137.928 49.376 137.928C46.912 137.928 44.416 137.16 42.304 136.232L41.056 139.56C43.232 140.712 46.208 141.64 49.216 141.64C53.12 141.64 57.44 139.624 57.44 136.04C57.44 129.8 45.536 132.008 45.536 129.352C45.536 128.392 47.2 128.072 49.312 128.072C51.36 128.072 53.344 128.488 55.424 129.288L56.544 125.576ZM79.3588 141H83.6468L90.6548 125H86.1748L81.5028 135.976L76.8628 125H72.4468L67.8068 136.008L63.1668 125H58.5907L65.5988 141H69.9188L74.6548 130.056L79.3588 141ZM99.4913 141.512C102.403 141.512 104.867 139.752 106.019 137.48V141H110.243V125H106.019V132.744C106.019 136.136 103.747 137.608 101.059 137.608C98.5312 137.608 96.9953 136.328 96.9953 133.736V125H92.7713V134.28C92.7713 138.632 95.2033 141.512 99.4913 141.512ZM125.296 124.52C122.512 124.52 120.336 126.504 119.28 128.392V125H115.056V141H119.28V133.032C119.28 129.96 121.648 128.424 123.856 128.424C126.192 128.424 127.44 129.992 127.44 132.104V141H131.664V133.032C131.664 129.992 134.032 128.424 136.24 128.424C138.576 128.424 139.824 129.992 139.824 132.104V141H144.048V131.592C144.048 127.368 141.84 124.52 137.68 124.52C134.992 124.52 132.432 126.504 131.152 128.424C130.256 126.024 128.304 124.52 125.296 124.52ZM161.968 125H157.808V141H161.968V125ZM157.36 120.392C157.36 121.8 158.48 122.92 159.888 122.92C161.296 122.92 162.416 121.8 162.416 120.392C162.416 119.016 161.296 117.896 159.888 117.896C158.48 117.896 157.36 119.016 157.36 120.392ZM176.374 128.424C178.902 128.424 180.214 129.992 180.214 132.264V141H184.438V131.752C184.438 127.4 181.942 124.52 177.59 124.52C174.55 124.52 172.182 126.472 171.062 128.552V125H166.838V141H171.062V133.064C171.062 129.896 173.718 128.424 176.374 128.424ZM203.75 131.88C200.454 131.88 197.19 133.352 197.19 136.776C197.19 139.656 199.43 141.64 202.438 141.64C205.158 141.64 207.59 140.168 209.126 138.344C209.19 140.136 210.086 141.64 212.23 141.64C213.542 141.64 215.462 141 217.222 140.04L216.358 136.776C215.43 137.256 214.598 137.608 214.118 137.608C213.67 137.608 213.35 137.32 213.35 136.84V131.08C213.35 126.696 210.79 124.36 206.406 124.36C203.878 124.36 200.518 125.352 198.534 125.992L199.59 129.832C201.926 128.968 204.358 128.232 206.022 128.232C208.038 128.232 209.126 129.352 209.126 131.016V132.872C207.75 132.392 205.478 131.88 203.75 131.88ZM203.814 138.024C202.47 138.024 201.51 137.48 201.51 136.424C201.51 135.272 202.566 134.6 203.974 134.6C205.51 134.6 207.366 134.76 209.126 135.08V135.688C207.622 137.16 205.414 138.024 203.814 138.024ZM242.825 125.576C240.937 124.936 237.961 124.392 235.433 124.392C230.889 124.392 227.657 126.376 227.657 129.512C227.657 135.752 239.561 133.64 239.561 136.168C239.561 137.288 237.961 137.928 235.657 137.928C233.193 137.928 230.697 137.16 228.585 136.232L227.337 139.56C229.513 140.712 232.489 141.64 235.497 141.64C239.401 141.64 243.721 139.624 243.721 136.04C243.721 129.8 231.817 132.008 231.817 129.352C231.817 128.392 233.481 128.072 235.593 128.072C237.641 128.072 239.625 128.488 241.705 129.288L242.825 125.576ZM256.648 137.768C253.64 137.768 251.304 136.456 250.696 134.12H264.456C264.648 133.384 264.744 132.648 264.744 131.944C264.744 127.624 261.096 124.456 256.232 124.456C250.888 124.456 246.344 127.656 246.344 133C246.344 137.8 250.28 141.576 256.232 141.576C259.176 141.576 262.184 140.584 264.328 139.496L263.08 136.168C260.808 137.352 258.824 137.768 256.648 137.768ZM255.976 128.008C258.472 128.008 260.072 129.128 260.488 131.016H250.792C251.432 129.064 253.224 128.008 255.976 128.008ZM273.906 131.88C270.61 131.88 267.346 133.352 267.346 136.776C267.346 139.656 269.586 141.64 272.594 141.64C275.314 141.64 277.746 140.168 279.282 138.344C279.346 140.136 280.242 141.64 282.386 141.64C283.698 141.64 285.618 141 287.378 140.04L286.514 136.776C285.586 137.256 284.754 137.608 284.274 137.608C283.826 137.608 283.506 137.32 283.506 136.84V131.08C283.506 126.696 280.946 124.36 276.562 124.36C274.034 124.36 270.674 125.352 268.69 125.992L269.746 129.832C272.082 128.968 274.514 128.232 276.178 128.232C278.194 128.232 279.282 129.352 279.282 131.016V132.872C277.906 132.392 275.634 131.88 273.906 131.88ZM273.97 138.024C272.626 138.024 271.666 137.48 271.666 136.424C271.666 135.272 272.722 134.6 274.13 134.6C275.666 134.6 277.522 134.76 279.282 135.08V135.688C277.778 137.16 275.57 138.024 273.97 138.024ZM290.991 141L297.839 118.6H294.191L287.343 141H290.991ZM51.296 164.456C45.952 164.456 41.344 167.496 41.344 172.84C41.344 177.64 45.504 181.576 51.296 181.576C57.088 181.576 61.248 177.64 61.248 172.84C61.248 167.496 56.64 164.456 51.296 164.456ZM51.296 168.136C54.624 168.136 56.992 169.864 56.992 172.84C56.992 175.528 54.464 177.928 51.296 177.928C48.128 177.928 45.6 175.528 45.6 172.84C45.6 169.864 47.968 168.136 51.296 168.136ZM73.8258 164.456C68.4818 164.456 63.9378 167.656 63.9378 173C63.9378 177.8 67.5858 181.576 73.5378 181.576C76.5458 181.576 79.2978 180.648 81.4738 179.496L80.2257 176.168C78.1138 177.096 76.4178 177.768 74.0818 177.768C70.7538 177.768 68.1938 175.912 68.1938 172.84C68.1938 169.928 70.4978 168.168 73.5698 168.168C75.7458 168.168 77.6018 168.616 79.8098 169.512L80.8338 165.736C78.9138 165.064 76.4818 164.456 73.8258 164.456ZM93.9293 177.768C90.9213 177.768 88.5853 176.456 87.9773 174.12H101.737C101.929 173.384 102.025 172.648 102.025 171.944C102.025 167.624 98.3773 164.456 93.5133 164.456C88.1693 164.456 83.6253 167.656 83.6253 173C83.6253 177.8 87.5613 181.576 93.5133 181.576C96.4573 181.576 99.4653 180.584 101.609 179.496L100.361 176.168C98.0893 177.352 96.1053 177.768 93.9293 177.768ZM93.2573 168.008C95.7533 168.008 97.3533 169.128 97.7693 171.016H88.0733C88.7133 169.064 90.5052 168.008 93.2573 168.008ZM111.188 171.88C107.891 171.88 104.628 173.352 104.628 176.776C104.628 179.656 106.868 181.64 109.876 181.64C112.595 181.64 115.028 180.168 116.564 178.344C116.628 180.136 117.524 181.64 119.668 181.64C120.98 181.64 122.9 181 124.66 180.04L123.796 176.776C122.868 177.256 122.036 177.608 121.556 177.608C121.108 177.608 120.788 177.32 120.788 176.84V171.08C120.788 166.696 118.228 164.36 113.844 164.36C111.316 164.36 107.956 165.352 105.972 165.992L107.028 169.832C109.364 168.968 111.796 168.232 113.46 168.232C115.476 168.232 116.564 169.352 116.564 171.016V172.872C115.188 172.392 112.916 171.88 111.188 171.88ZM111.252 178.024C109.908 178.024 108.948 177.48 108.948 176.424C108.948 175.272 110.004 174.6 111.411 174.6C112.948 174.6 114.804 174.76 116.564 175.08V175.688C115.06 177.16 112.852 178.024 111.252 178.024ZM136.592 168.424C139.12 168.424 140.432 169.992 140.432 172.264V181H144.656V171.752C144.656 167.4 142.16 164.52 137.808 164.52C134.768 164.52 132.4 166.472 131.28 168.552V165H127.056V181H131.28V173.064C131.28 169.896 133.936 168.424 136.592 168.424ZM163.969 171.88C160.673 171.88 157.409 173.352 157.409 176.776C157.409 179.656 159.649 181.64 162.657 181.64C165.377 181.64 167.809 180.168 169.345 178.344C169.409 180.136 170.305 181.64 172.449 181.64C173.761 181.64 175.681 181 177.441 180.04L176.577 176.776C175.649 177.256 174.817 177.608 174.337 177.608C173.889 177.608 173.569 177.32 173.569 176.84V171.08C173.569 166.696 171.009 164.36 166.625 164.36C164.097 164.36 160.737 165.352 158.753 165.992L159.809 169.832C162.145 168.968 164.577 168.232 166.241 168.232C168.257 168.232 169.345 169.352 169.345 171.016V172.872C167.969 172.392 165.697 171.88 163.969 171.88ZM164.033 178.024C162.689 178.024 161.729 177.48 161.729 176.424C161.729 175.272 162.785 174.6 164.193 174.6C165.729 174.6 167.585 174.76 169.345 175.08V175.688C167.841 177.16 165.633 178.024 164.033 178.024ZM178.078 168.68H181.118V174.888C181.118 178.92 183.262 181.544 187.23 181.544C188.926 181.544 191.198 180.808 192.542 180.104L191.614 176.488C190.59 177.128 189.182 177.64 187.934 177.64C186.27 177.64 185.342 176.456 185.342 174.728V168.68H191.998V165H185.342V160.2H181.822L181.246 165.128L178.078 165.32V168.68ZM214.342 168.424C216.87 168.424 218.182 169.992 218.182 172.264V181H222.406V171.752C222.406 167.4 219.91 164.52 215.558 164.52C212.518 164.52 210.15 166.472 209.03 168.552V165H204.806V181H209.03V173.064C209.03 169.896 211.686 168.424 214.342 168.424ZM231.28 165H227.12V181H231.28V165ZM226.672 160.392C226.672 161.8 227.792 162.92 229.2 162.92C230.608 162.92 231.728 161.8 231.728 160.392C231.728 159.016 230.608 157.896 229.2 157.896C227.792 157.896 226.672 159.016 226.672 160.392ZM241.846 178.888C240.79 178.888 240.246 178.504 240.246 177.96C240.246 177.512 240.662 177.192 241.046 177.096C241.782 177.224 242.582 177.288 243.382 177.288C248.214 177.288 251.734 174.536 251.734 170.888C251.734 169.8 251.446 168.84 250.998 168.04C251.766 167.656 252.662 167.432 253.782 167.304L253.014 163.368C250.966 163.72 249.366 164.488 248.15 165.48C246.774 164.808 245.11 164.456 243.382 164.456C238.998 164.456 235.062 166.664 235.062 170.888C235.062 172.616 236.438 174.376 237.91 175.336C237.11 175.848 236.182 176.68 236.182 177.736C236.182 178.76 236.854 179.88 237.718 180.296C236.118 180.712 234.422 182.28 234.422 183.976C234.422 187.336 238.198 189.096 244.022 189.096C249.494 189.096 253.526 187.304 253.526 183.656C253.526 180.328 249.494 178.888 244.022 178.888H241.846ZM243.35 167.944C245.622 167.944 247.35 168.936 247.35 170.76C247.35 172.264 245.782 173.512 243.35 173.512C241.046 173.512 239.318 172.36 239.318 170.76C239.318 168.936 241.046 167.944 243.35 167.944ZM243.958 182.472C247.254 182.472 249.43 182.92 249.43 184.008C249.43 185.192 247.254 185.64 243.958 185.64C240.438 185.64 238.486 185.128 238.486 183.976C238.486 183.336 239.094 182.792 239.798 182.504C240.342 182.472 243.318 182.472 243.958 182.472ZM265.874 168.424C268.402 168.424 269.714 169.992 269.714 172.264V181H273.938V171.752C273.938 167.4 271.442 164.52 267.09 164.52C264.05 164.52 261.682 166.472 260.562 168.552V157.288H256.338V181H260.562V173.064C260.562 169.896 263.218 168.424 265.874 168.424ZM276.828 168.68H279.868V174.888C279.868 178.92 282.012 181.544 285.98 181.544C287.676 181.544 289.948 180.808 291.292 180.104L290.364 176.488C289.34 177.128 287.932 177.64 286.684 177.64C285.02 177.64 284.092 176.456 284.092 174.728V168.68H290.748V165H284.092V160.2H280.572L279.996 165.128L276.828 165.32V168.68Z" fill="#FFFAED"></path> </svg> 