<?xml version="1.0" encoding="UTF-8"?> <svg xmlns="http://www.w3.org/2000/svg" width="400" height="600" viewBox="0 0 400 600" fill="none"><rect width="400" height="600" rx="20" fill="#EEBF38"></rect><path d="M47.296 84.136V101H42.88V78.6H48.032L61.536 95.464V78.6H65.952V101H60.8L47.296 84.136ZM80.4918 97.768C82.6678 97.768 84.6518 97.352 86.9237 96.168L88.1718 99.496C86.0278 100.584 83.0198 101.576 80.0758 101.576C74.1238 101.576 70.1878 97.8 70.1878 93C70.1878 87.656 74.7318 84.456 80.0758 84.456C84.9398 84.456 88.5878 87.624 88.5878 91.944C88.5878 92.648 88.4918 93.384 88.2998 94.12H74.5398C75.1478 96.456 77.4838 97.768 80.4918 97.768ZM79.8198 88.008C77.0677 88.008 75.2758 89.064 74.6358 91.016H84.3318C83.9158 89.128 82.3158 88.008 79.8198 88.008ZM94.39 85L99.638 96.232L104.822 85H109.526L101.942 101H97.302L89.75 85H94.39ZM121.179 97.768C123.355 97.768 125.339 97.352 127.611 96.168L128.859 99.496C126.715 100.584 123.707 101.576 120.763 101.576C114.811 101.576 110.875 97.8 110.875 93C110.875 87.656 115.419 84.456 120.763 84.456C125.627 84.456 129.275 87.624 129.275 91.944C129.275 92.648 129.179 93.384 128.987 94.12H115.227C115.835 96.456 118.171 97.768 121.179 97.768ZM120.507 88.008C117.755 88.008 115.963 89.064 115.323 91.016H125.019C124.603 89.128 123.003 88.008 120.507 88.008ZM142.982 84.456C143.878 84.456 144.87 84.712 145.67 85.096L144.774 88.936C144.006 88.584 143.174 88.392 142.566 88.392C139.91 88.392 137.062 90.12 137.062 93.064V101H132.838V85H137.062V88.552C137.99 86.824 140.198 84.456 142.982 84.456ZM166.436 88.424C163.78 88.424 161.124 89.896 161.124 93.064V101H156.9V77.288H161.124V88.552C162.244 86.472 164.612 84.52 167.652 84.52C172.004 84.52 174.5 87.4 174.5 91.752V101H170.276V92.264C170.276 89.992 168.964 88.424 166.436 88.424ZM184.75 91.88C186.478 91.88 188.75 92.392 190.126 92.872V91.016C190.126 89.352 189.038 88.232 187.022 88.232C185.358 88.232 182.926 88.968 180.59 89.832L179.534 85.992C181.518 85.352 184.878 84.36 187.406 84.36C191.79 84.36 194.35 86.696 194.35 91.08V96.84C194.35 97.32 194.67 97.608 195.118 97.608C195.598 97.608 196.43 97.256 197.358 96.776L198.222 100.04C196.462 101 194.542 101.64 193.23 101.64C191.086 101.64 190.19 100.136 190.126 98.344C188.59 100.168 186.158 101.64 183.438 101.64C180.43 101.64 178.19 99.656 178.19 96.776C178.19 93.352 181.454 91.88 184.75 91.88ZM184.814 98.024C186.414 98.024 188.622 97.16 190.126 95.688V95.08C188.366 94.76 186.51 94.6 184.974 94.6C183.566 94.6 182.51 95.272 182.51 96.424C182.51 97.48 183.47 98.024 184.814 98.024ZM202.859 85L208.107 96.232L213.291 85H217.995L210.411 101H205.771L198.219 85H202.859ZM229.648 97.768C231.824 97.768 233.808 97.352 236.08 96.168L237.328 99.496C235.184 100.584 232.176 101.576 229.232 101.576C223.28 101.576 219.344 97.8 219.344 93C219.344 87.656 223.888 84.456 229.232 84.456C234.096 84.456 237.744 87.624 237.744 91.944C237.744 92.648 237.648 93.384 237.456 94.12H223.696C224.304 96.456 226.64 97.768 229.648 97.768ZM228.976 88.008C226.224 88.008 224.432 89.064 223.792 91.016H233.488C233.072 89.128 231.472 88.008 228.976 88.008ZM255.265 78.6V101H250.849V78.6H255.265ZM278.867 97.768C281.043 97.768 283.027 97.352 285.299 96.168L286.547 99.496C284.403 100.584 281.395 101.576 278.451 101.576C272.499 101.576 268.563 97.8 268.563 93C268.563 87.656 273.107 84.456 278.451 84.456C283.315 84.456 286.963 87.624 286.963 91.944C286.963 92.648 286.867 93.384 286.675 94.12H272.915C273.523 96.456 275.859 97.768 278.867 97.768ZM278.195 88.008C275.443 88.008 273.651 89.064 273.011 91.016H282.707C282.291 89.128 280.691 88.008 278.195 88.008ZM292.765 85L298.013 96.232L303.197 85H307.901L300.317 101H295.677L288.125 85H292.765ZM319.554 97.768C321.73 97.768 323.714 97.352 325.986 96.168L327.234 99.496C325.09 100.584 322.082 101.576 319.138 101.576C313.186 101.576 309.25 97.8 309.25 93C309.25 87.656 313.794 84.456 319.138 84.456C324.002 84.456 327.65 87.624 327.65 91.944C327.65 92.648 327.554 93.384 327.362 94.12H313.602C314.21 96.456 316.546 97.768 319.554 97.768ZM318.882 88.008C316.13 88.008 314.338 89.064 313.698 91.016H323.394C322.978 89.128 321.378 88.008 318.882 88.008ZM341.357 84.456C342.253 84.456 343.245 84.712 344.045 85.096L343.149 88.936C342.381 88.584 341.549 88.392 340.941 88.392C338.285 88.392 335.437 90.12 335.437 93.064V101H331.213V85H335.437V88.552C336.365 86.824 338.573 84.456 341.357 84.456ZM56.544 125.576L55.424 129.288C53.344 128.488 51.36 128.072 49.312 128.072C47.2 128.072 45.536 128.392 45.536 129.352C45.536 132.008 57.44 129.8 57.44 136.04C57.44 139.624 53.12 141.64 49.216 141.64C46.208 141.64 43.232 140.712 41.056 139.56L42.304 136.232C44.416 137.16 46.912 137.928 49.376 137.928C51.68 137.928 53.28 137.288 53.28 136.168C53.28 133.64 41.376 135.752 41.376 129.512C41.376 126.376 44.608 124.392 49.152 124.392C51.68 124.392 54.656 124.936 56.544 125.576ZM79.3588 141L74.6548 130.056L69.9188 141H65.5988L58.5907 125H63.1668L67.8068 136.008L72.4468 125H76.8628L81.5028 135.976L86.1748 125H90.6548L83.6468 141H79.3588ZM99.4913 141.512C95.2033 141.512 92.7713 138.632 92.7713 134.28V125H96.9953V133.736C96.9953 136.328 98.5312 137.608 101.059 137.608C103.747 137.608 106.019 136.136 106.019 132.744V125H110.243V141H106.019V137.48C104.867 139.752 102.403 141.512 99.4913 141.512ZM125.296 124.52C128.304 124.52 130.256 126.024 131.152 128.424C132.432 126.504 134.992 124.52 137.68 124.52C141.84 124.52 144.048 127.368 144.048 131.592V141H139.824V132.104C139.824 129.992 138.576 128.424 136.24 128.424C134.032 128.424 131.664 129.992 131.664 133.032V141H127.44V132.104C127.44 129.992 126.192 128.424 123.856 128.424C121.648 128.424 119.28 129.96 119.28 133.032V141H115.056V125H119.28V128.392C120.336 126.504 122.512 124.52 125.296 124.52ZM161.968 125V141H157.808V125H161.968ZM157.36 120.392C157.36 119.016 158.48 117.896 159.888 117.896C161.296 117.896 162.416 119.016 162.416 120.392C162.416 121.8 161.296 122.92 159.888 122.92C158.48 122.92 157.36 121.8 157.36 120.392ZM176.374 128.424C173.718 128.424 171.062 129.896 171.062 133.064V141H166.838V125H171.062V128.552C172.182 126.472 174.55 124.52 177.59 124.52C181.942 124.52 184.438 127.4 184.438 131.752V141H180.214V132.264C180.214 129.992 178.902 128.424 176.374 128.424ZM196.39 128.68V125.32L199.558 125.128L200.134 120.2H203.654V125H210.31V128.68H203.654V134.728C203.654 136.456 204.582 137.64 206.246 137.64C207.494 137.64 208.902 137.128 209.926 136.488L210.854 140.104C209.51 140.808 207.238 141.544 205.542 141.544C201.574 141.544 199.43 138.92 199.43 134.888V128.68H196.39ZM223.592 128.424C220.936 128.424 218.28 129.896 218.28 133.064V141H214.056V117.288H218.28V128.552C219.4 126.472 221.768 124.52 224.808 124.52C229.16 124.52 231.656 127.4 231.656 131.752V141H227.432V132.264C227.432 129.992 226.12 128.424 223.592 128.424ZM245.554 137.768C247.73 137.768 249.714 137.352 251.986 136.168L253.234 139.496C251.09 140.584 248.082 141.576 245.138 141.576C239.186 141.576 235.25 137.8 235.25 133C235.25 127.656 239.794 124.456 245.138 124.456C250.002 124.456 253.65 127.624 253.65 131.944C253.65 132.648 253.554 133.384 253.362 134.12H239.602C240.21 136.456 242.546 137.768 245.554 137.768ZM244.882 128.008C242.13 128.008 240.338 129.064 239.698 131.016H249.394C248.978 129.128 247.378 128.008 244.882 128.008ZM280.419 125.576L279.299 129.288C277.219 128.488 275.235 128.072 273.187 128.072C271.075 128.072 269.411 128.392 269.411 129.352C269.411 132.008 281.315 129.8 281.315 136.04C281.315 139.624 276.995 141.64 273.091 141.64C270.083 141.64 267.107 140.712 264.931 139.56L266.179 136.232C268.291 137.16 270.787 137.928 273.251 137.928C275.555 137.928 277.155 137.288 277.155 136.168C277.155 133.64 265.251 135.752 265.251 129.512C265.251 126.376 268.483 124.392 273.027 124.392C275.555 124.392 278.531 124.936 280.419 125.576ZM294.242 137.768C296.418 137.768 298.402 137.352 300.674 136.168L301.922 139.496C299.778 140.584 296.77 141.576 293.826 141.576C287.874 141.576 283.938 137.8 283.938 133C283.938 127.656 288.482 124.456 293.826 124.456C298.69 124.456 302.338 127.624 302.338 131.944C302.338 132.648 302.242 133.384 302.05 134.12H288.29C288.898 136.456 291.234 137.768 294.242 137.768ZM293.57 128.008C290.818 128.008 289.026 129.064 288.386 131.016H298.082C297.666 129.128 296.066 128.008 293.57 128.008ZM311.5 131.88C313.228 131.88 315.5 132.392 316.876 132.872V131.016C316.876 129.352 315.788 128.232 313.772 128.232C312.108 128.232 309.676 128.968 307.34 129.832L306.284 125.992C308.268 125.352 311.628 124.36 314.156 124.36C318.54 124.36 321.1 126.696 321.1 131.08V136.84C321.1 137.32 321.42 137.608 321.868 137.608C322.348 137.608 323.18 137.256 324.108 136.776L324.972 140.04C323.212 141 321.292 141.64 319.98 141.64C317.836 141.64 316.94 140.136 316.876 138.344C315.34 140.168 312.908 141.64 310.188 141.64C307.18 141.64 304.94 139.656 304.94 136.776C304.94 133.352 308.204 131.88 311.5 131.88ZM311.564 138.024C313.164 138.024 315.372 137.16 316.876 135.688V135.08C315.116 134.76 313.26 134.6 311.724 134.6C310.316 134.6 309.26 135.272 309.26 136.424C309.26 137.48 310.22 138.024 311.564 138.024ZM328.585 141H324.937L331.785 118.6H335.433L328.585 141ZM51.296 164.456C56.64 164.456 61.248 167.496 61.248 172.84C61.248 177.64 57.088 181.576 51.296 181.576C45.504 181.576 41.344 177.64 41.344 172.84C41.344 167.496 45.952 164.456 51.296 164.456ZM51.296 168.136C47.968 168.136 45.6 169.864 45.6 172.84C45.6 175.528 48.128 177.928 51.296 177.928C54.464 177.928 56.992 175.528 56.992 172.84C56.992 169.864 54.624 168.136 51.296 168.136ZM73.8258 164.456C76.4818 164.456 78.9138 165.064 80.8338 165.736L79.8098 169.512C77.6018 168.616 75.7458 168.168 73.5698 168.168C70.4978 168.168 68.1938 169.928 68.1938 172.84C68.1938 175.912 70.7538 177.768 74.0818 177.768C76.4178 177.768 78.1138 177.096 80.2257 176.168L81.4738 179.496C79.2978 180.648 76.5458 181.576 73.5378 181.576C67.5858 181.576 63.9378 177.8 63.9378 173C63.9378 167.656 68.4818 164.456 73.8258 164.456ZM93.9293 177.768C96.1053 177.768 98.0893 177.352 100.361 176.168L101.609 179.496C99.4653 180.584 96.4573 181.576 93.5133 181.576C87.5613 181.576 83.6253 177.8 83.6253 173C83.6253 167.656 88.1693 164.456 93.5133 164.456C98.3773 164.456 102.025 167.624 102.025 171.944C102.025 172.648 101.929 173.384 101.737 174.12H87.9773C88.5853 176.456 90.9213 177.768 93.9293 177.768ZM93.2573 168.008C90.5052 168.008 88.7133 169.064 88.0733 171.016H97.7693C97.3533 169.128 95.7533 168.008 93.2573 168.008ZM111.188 171.88C112.916 171.88 115.188 172.392 116.564 172.872V171.016C116.564 169.352 115.476 168.232 113.46 168.232C111.796 168.232 109.364 168.968 107.028 169.832L105.972 165.992C107.956 165.352 111.316 164.36 113.844 164.36C118.228 164.36 120.788 166.696 120.788 171.08V176.84C120.788 177.32 121.108 177.608 121.556 177.608C122.036 177.608 122.868 177.256 123.796 176.776L124.66 180.04C122.9 181 120.98 181.64 119.668 181.64C117.524 181.64 116.628 180.136 116.564 178.344C115.028 180.168 112.595 181.64 109.876 181.64C106.868 181.64 104.628 179.656 104.628 176.776C104.628 173.352 107.891 171.88 111.188 171.88ZM111.252 178.024C112.852 178.024 115.06 177.16 116.564 175.688V175.08C114.804 174.76 112.948 174.6 111.411 174.6C110.004 174.6 108.948 175.272 108.948 176.424C108.948 177.48 109.908 178.024 111.252 178.024ZM136.592 168.424C133.936 168.424 131.28 169.896 131.28 173.064V181H127.056V165H131.28V168.552C132.4 166.472 134.768 164.52 137.808 164.52C142.16 164.52 144.656 167.4 144.656 171.752V181H140.432V172.264C140.432 169.992 139.12 168.424 136.592 168.424ZM163.969 171.88C165.697 171.88 167.969 172.392 169.345 172.872V171.016C169.345 169.352 168.257 168.232 166.241 168.232C164.577 168.232 162.145 168.968 159.809 169.832L158.753 165.992C160.737 165.352 164.097 164.36 166.625 164.36C171.009 164.36 173.569 166.696 173.569 171.08V176.84C173.569 177.32 173.889 177.608 174.337 177.608C174.817 177.608 175.649 177.256 176.577 176.776L177.441 180.04C175.681 181 173.761 181.64 172.449 181.64C170.305 181.64 169.409 180.136 169.345 178.344C167.809 180.168 165.377 181.64 162.657 181.64C159.649 181.64 157.409 179.656 157.409 176.776C157.409 173.352 160.673 171.88 163.969 171.88ZM164.033 178.024C165.633 178.024 167.841 177.16 169.345 175.688V175.08C167.585 174.76 165.729 174.6 164.193 174.6C162.785 174.6 161.729 175.272 161.729 176.424C161.729 177.48 162.689 178.024 164.033 178.024ZM178.078 168.68V165.32L181.246 165.128L181.822 160.2H185.342V165H191.998V168.68H185.342V174.728C185.342 176.456 186.27 177.64 187.934 177.64C189.182 177.64 190.59 177.128 191.614 176.488L192.542 180.104C191.198 180.808 188.926 181.544 187.23 181.544C183.262 181.544 181.118 178.92 181.118 174.888V168.68H178.078ZM214.342 168.424C211.686 168.424 209.03 169.896 209.03 173.064V181H204.806V165H209.03V168.552C210.15 166.472 212.518 164.52 215.558 164.52C219.91 164.52 222.406 167.4 222.406 171.752V181H218.182V172.264C218.182 169.992 216.87 168.424 214.342 168.424ZM231.28 165V181H227.12V165H231.28ZM226.672 160.392C226.672 159.016 227.792 157.896 229.2 157.896C230.608 157.896 231.728 159.016 231.728 160.392C231.728 161.8 230.608 162.92 229.2 162.92C227.792 162.92 226.672 161.8 226.672 160.392ZM241.846 178.888H244.022C249.494 178.888 253.526 180.328 253.526 183.656C253.526 187.304 249.494 189.096 244.022 189.096C238.198 189.096 234.422 187.336 234.422 183.976C234.422 182.28 236.118 180.712 237.718 180.296C236.854 179.88 236.182 178.76 236.182 177.736C236.182 176.68 237.11 175.848 237.91 175.336C236.438 174.376 235.062 172.616 235.062 170.888C235.062 166.664 238.998 164.456 243.382 164.456C245.11 164.456 246.774 164.808 248.15 165.48C249.366 164.488 250.966 163.72 253.014 163.368L253.782 167.304C252.662 167.432 251.766 167.656 250.998 168.04C251.446 168.84 251.734 169.8 251.734 170.888C251.734 174.536 248.214 177.288 243.382 177.288C242.582 177.288 241.782 177.224 241.046 177.096C240.662 177.192 240.246 177.512 240.246 177.96C240.246 178.504 240.79 178.888 241.846 178.888ZM243.35 167.944C241.046 167.944 239.318 168.936 239.318 170.76C239.318 172.36 241.046 173.512 243.35 173.512C245.782 173.512 247.35 172.264 247.35 170.76C247.35 168.936 245.622 167.944 243.35 167.944ZM243.958 182.472C243.318 182.472 240.342 182.472 239.798 182.504C239.094 182.792 238.486 183.336 238.486 183.976C238.486 185.128 240.438 185.64 243.958 185.64C247.254 185.64 249.43 185.192 249.43 184.008C249.43 182.92 247.254 182.472 243.958 182.472ZM265.874 168.424C263.218 168.424 260.562 169.896 260.562 173.064V181H256.338V157.288H260.562V168.552C261.682 166.472 264.05 164.52 267.09 164.52C271.442 164.52 273.938 167.4 273.938 171.752V181H269.714V172.264C269.714 169.992 268.402 168.424 265.874 168.424ZM276.828 168.68V165.32L279.996 165.128L280.572 160.2H284.092V165H290.748V168.68H284.092V174.728C284.092 176.456 285.02 177.64 286.684 177.64C287.932 177.64 289.34 177.128 290.364 176.488L291.292 180.104C289.948 180.808 287.676 181.544 285.98 181.544C282.012 181.544 279.868 178.92 279.868 174.888V168.68H276.828Z" fill="#FFFAED"></path></svg> 