<?xml version="1.0" encoding="UTF-8"?> <svg xmlns="http://www.w3.org/2000/svg" width="400" height="600" viewBox="0 0 400 600" fill="none"> <rect width="400" height="600" rx="20" fill="#7F3CC9"></rect> <path d="M48.784 494.466C49.888 495.102 50.44 496.062 50.44 497.346C50.44 498.414 50.062 499.29 49.306 499.974C48.55 500.658 47.62 501 46.516 501H41.17V488.4H46.138C47.218 488.4 48.124 488.736 48.856 489.408C49.6 490.068 49.972 490.914 49.972 491.946C49.972 492.99 49.576 493.83 48.784 494.466ZM46.138 490.722H43.654V493.494H46.138C46.522 493.494 46.84 493.362 47.092 493.098C47.356 492.834 47.488 492.504 47.488 492.108C47.488 491.712 47.362 491.382 47.11 491.118C46.858 490.854 46.534 490.722 46.138 490.722ZM46.516 498.678C46.936 498.678 47.284 498.54 47.56 498.264C47.836 497.976 47.974 497.616 47.974 497.184C47.974 496.764 47.836 496.416 47.56 496.14C47.284 495.852 46.936 495.708 46.516 495.708H43.654V498.678H46.516ZM51.9604 501V487.86H54.2824V501H51.9604ZM57.5597 490.92C57.1757 490.92 56.8397 490.782 56.5517 490.506C56.2757 490.218 56.1377 489.882 56.1377 489.498C56.1377 489.114 56.2757 488.778 56.5517 488.49C56.8397 488.202 57.1757 488.058 57.5597 488.058C57.9557 488.058 58.2917 488.202 58.5677 488.49C58.8557 488.778 58.9997 489.114 58.9997 489.498C58.9997 489.882 58.8557 490.218 58.5677 490.506C58.2917 490.782 57.9557 490.92 57.5597 490.92ZM56.4077 501V492H58.7297V501H56.4077ZM65.859 491.748C66.843 491.748 67.653 492.078 68.289 492.738C68.937 493.398 69.261 494.31 69.261 495.474V501H66.939V495.762C66.939 495.162 66.777 494.706 66.453 494.394C66.129 494.07 65.697 493.908 65.157 493.908C64.557 493.908 64.077 494.094 63.717 494.466C63.357 494.838 63.177 495.396 63.177 496.14V501H60.855V492H63.177V493.008C63.741 492.168 64.635 491.748 65.859 491.748ZM78.0656 488.4H80.3876V501H78.0656V499.938C77.3816 500.814 76.4096 501.252 75.1496 501.252C73.9376 501.252 72.8996 500.796 72.0356 499.884C71.1836 498.96 70.7576 497.832 70.7576 496.5C70.7576 495.168 71.1836 494.046 72.0356 493.134C72.8996 492.21 73.9376 491.748 75.1496 491.748C76.4096 491.748 77.3816 492.186 78.0656 493.062V488.4ZM73.7816 498.336C74.2616 498.804 74.8616 499.038 75.5816 499.038C76.3016 499.038 76.8956 498.804 77.3636 498.336C77.8316 497.856 78.0656 497.244 78.0656 496.5C78.0656 495.756 77.8316 495.15 77.3636 494.682C76.8956 494.202 76.3016 493.962 75.5816 493.962C74.8616 493.962 74.2616 494.202 73.7816 494.682C73.3136 495.15 73.0796 495.756 73.0796 496.5C73.0796 497.244 73.3136 497.856 73.7816 498.336ZM93.8332 488.4H96.1552V501H93.8332V499.938C93.1492 500.814 92.1772 501.252 90.9172 501.252C89.7052 501.252 88.6672 500.796 87.8032 499.884C86.9512 498.96 86.5252 497.832 86.5252 496.5C86.5252 495.168 86.9512 494.046 87.8032 493.134C88.6672 492.21 89.7052 491.748 90.9172 491.748C92.1772 491.748 93.1492 492.186 93.8332 493.062V488.4ZM89.5492 498.336C90.0292 498.804 90.6292 499.038 91.3492 499.038C92.0692 499.038 92.6632 498.804 93.1312 498.336C93.5992 497.856 93.8332 497.244 93.8332 496.5C93.8332 495.756 93.5992 495.15 93.1312 494.682C92.6632 494.202 92.0692 493.962 91.3492 493.962C90.6292 493.962 90.0292 494.202 89.5492 494.682C89.0812 495.15 88.8472 495.756 88.8472 496.5C88.8472 497.244 89.0812 497.856 89.5492 498.336ZM105.119 492H107.441V501H105.119V499.938C104.423 500.814 103.445 501.252 102.185 501.252C100.985 501.252 99.9528 500.796 99.0888 499.884C98.2368 498.96 97.8108 497.832 97.8108 496.5C97.8108 495.168 98.2368 494.046 99.0888 493.134C99.9528 492.21 100.985 491.748 102.185 491.748C103.445 491.748 104.423 492.186 105.119 493.062V492ZM100.835 498.336C101.303 498.804 101.897 499.038 102.617 499.038C103.337 499.038 103.931 498.804 104.399 498.336C104.879 497.856 105.119 497.244 105.119 496.5C105.119 495.756 104.879 495.15 104.399 494.682C103.931 494.202 103.337 493.962 102.617 493.962C101.897 493.962 101.303 494.202 100.835 494.682C100.367 495.15 100.133 495.756 100.133 496.5C100.133 497.244 100.367 497.856 100.835 498.336ZM114.694 494.232H112.66V497.976C112.66 498.288 112.738 498.516 112.894 498.66C113.05 498.804 113.278 498.888 113.578 498.912C113.878 498.924 114.25 498.918 114.694 498.894V501C113.098 501.18 111.97 501.03 111.31 500.55C110.662 500.07 110.338 499.212 110.338 497.976V494.232H108.772V492H110.338V490.182L112.66 489.48V492H114.694V494.232ZM118.012 497.454C118.324 498.582 119.17 499.146 120.55 499.146C121.438 499.146 122.11 498.846 122.566 498.246L124.438 499.326C123.55 500.61 122.242 501.252 120.514 501.252C119.026 501.252 117.832 500.802 116.932 499.902C116.032 499.002 115.582 497.868 115.582 496.5C115.582 495.144 116.026 494.016 116.914 493.116C117.802 492.204 118.942 491.748 120.334 491.748C121.654 491.748 122.74 492.204 123.592 493.116C124.456 494.028 124.888 495.156 124.888 496.5C124.888 496.8 124.858 497.118 124.798 497.454H118.012ZM117.976 495.654H122.566C122.434 495.042 122.158 494.586 121.738 494.286C121.33 493.986 120.862 493.836 120.334 493.836C119.71 493.836 119.194 493.998 118.786 494.322C118.378 494.634 118.108 495.078 117.976 495.654ZM131.387 496.014V494.862H140.387V496.014H131.387ZM151.784 501.216C150.428 501.216 149.3 500.766 148.4 499.866C147.5 498.954 147.05 497.832 147.05 496.5C147.05 495.168 147.5 494.052 148.4 493.152C149.3 492.24 150.428 491.784 151.784 491.784C152.672 491.784 153.47 492 154.178 492.432C154.886 492.852 155.402 493.422 155.726 494.142L154.754 494.7C154.514 494.16 154.124 493.734 153.584 493.422C153.056 493.098 152.456 492.936 151.784 492.936C150.788 492.936 149.948 493.284 149.264 493.98C148.58 494.664 148.238 495.504 148.238 496.5C148.238 497.496 148.58 498.342 149.264 499.038C149.948 499.722 150.788 500.064 151.784 500.064C152.456 500.064 153.056 499.908 153.584 499.596C154.112 499.272 154.526 498.84 154.826 498.3L155.816 498.876C155.444 499.596 154.898 500.166 154.178 500.586C153.458 501.006 152.66 501.216 151.784 501.216ZM163.246 496.374C164.23 496.734 164.722 497.436 164.722 498.48C164.722 499.212 164.476 499.818 163.984 500.298C163.504 500.766 162.808 501 161.896 501H157.522V492H161.536C162.412 492 163.09 492.228 163.57 492.684C164.05 493.128 164.29 493.704 164.29 494.412C164.29 495.312 163.942 495.966 163.246 496.374ZM161.536 493.152H158.71V495.888H161.536C162.58 495.888 163.102 495.42 163.102 494.484C163.102 494.064 162.964 493.74 162.688 493.512C162.424 493.272 162.04 493.152 161.536 493.152ZM161.896 499.848C162.424 499.848 162.826 499.722 163.102 499.47C163.39 499.218 163.534 498.864 163.534 498.408C163.534 497.988 163.39 497.658 163.102 497.418C162.826 497.166 162.424 497.04 161.896 497.04H158.71V499.848H161.896ZM173.074 492H174.082V501H172.894V494.07L167.53 501H166.522V492H167.71V498.93L173.074 492ZM184.154 499.848H185.414V503.412H184.226V501H176.882V503.412H175.694V499.848H176.792C177.404 499.044 177.71 497.91 177.71 496.446V492H184.154V499.848ZM178.232 499.848H182.966V493.152H178.898V496.446C178.898 497.826 178.676 498.96 178.232 499.848ZM194.6 492H195.788V501H194.6V499.236C193.772 500.556 192.56 501.216 190.964 501.216C189.68 501.216 188.582 500.76 187.67 499.848C186.77 498.936 186.32 497.82 186.32 496.5C186.32 495.18 186.77 494.064 187.67 493.152C188.582 492.24 189.68 491.784 190.964 491.784C192.56 491.784 193.772 492.444 194.6 493.764V492ZM188.534 499.038C189.218 499.722 190.058 500.064 191.054 500.064C192.05 500.064 192.89 499.722 193.574 499.038C194.258 498.342 194.6 497.496 194.6 496.5C194.6 495.504 194.258 494.664 193.574 493.98C192.89 493.284 192.05 492.936 191.054 492.936C190.058 492.936 189.218 493.284 188.534 493.98C187.85 494.664 187.508 495.504 187.508 496.5C187.508 497.496 187.85 498.342 188.534 499.038ZM204.675 492H205.863V501H204.675V497.076H199.491V501H198.303V492H199.491V495.924H204.675V492ZM214.927 492H215.935V501H214.747V494.07L209.383 501H208.375V492H209.563V498.93L214.927 492ZM222.606 491.784C223.938 491.784 225.012 492.258 225.828 493.206C226.656 494.142 227.07 495.252 227.07 496.536C227.07 496.668 227.058 496.854 227.034 497.094H219.132C219.252 498.006 219.636 498.732 220.284 499.272C220.944 499.8 221.754 500.064 222.714 500.064C223.398 500.064 223.986 499.926 224.478 499.65C224.982 499.362 225.36 498.99 225.612 498.534L226.656 499.146C226.26 499.782 225.72 500.286 225.036 500.658C224.352 501.03 223.572 501.216 222.696 501.216C221.28 501.216 220.128 500.772 219.24 499.884C218.352 498.996 217.908 497.868 217.908 496.5C217.908 495.156 218.346 494.034 219.222 493.134C220.098 492.234 221.226 491.784 222.606 491.784ZM222.606 492.936C221.67 492.936 220.884 493.218 220.248 493.782C219.624 494.334 219.252 495.054 219.132 495.942H225.846C225.726 494.994 225.36 494.256 224.748 493.728C224.136 493.2 223.422 492.936 222.606 492.936ZM239.183 496.374C240.167 496.734 240.659 497.436 240.659 498.48C240.659 499.212 240.413 499.818 239.921 500.298C239.441 500.766 238.745 501 237.833 501H233.459V492H237.473C238.349 492 239.027 492.228 239.507 492.684C239.987 493.128 240.227 493.704 240.227 494.412C240.227 495.312 239.879 495.966 239.183 496.374ZM237.473 493.152H234.647V495.888H237.473C238.517 495.888 239.039 495.42 239.039 494.484C239.039 494.064 238.901 493.74 238.625 493.512C238.361 493.272 237.977 493.152 237.473 493.152ZM237.833 499.848C238.361 499.848 238.763 499.722 239.039 499.47C239.327 499.218 239.471 498.864 239.471 498.408C239.471 497.988 239.327 497.658 239.039 497.418C238.763 497.166 238.361 497.04 237.833 497.04H234.647V499.848H237.833ZM246.653 501.216C245.297 501.216 244.169 500.766 243.269 499.866C242.369 498.954 241.919 497.832 241.919 496.5C241.919 495.168 242.369 494.052 243.269 493.152C244.169 492.24 245.297 491.784 246.653 491.784C247.541 491.784 248.339 492 249.047 492.432C249.755 492.852 250.271 493.422 250.595 494.142L249.623 494.7C249.383 494.16 248.993 493.734 248.453 493.422C247.925 493.098 247.325 492.936 246.653 492.936C245.657 492.936 244.817 493.284 244.133 493.98C243.449 494.664 243.107 495.504 243.107 496.5C243.107 497.496 243.449 498.342 244.133 499.038C244.817 499.722 245.657 500.064 246.653 500.064C247.325 500.064 247.925 499.908 248.453 499.596C248.981 499.272 249.395 498.84 249.695 498.3L250.685 498.876C250.313 499.596 249.767 500.166 249.047 500.586C248.327 501.006 247.529 501.216 246.653 501.216ZM259.595 492V501H258.407V493.152H254.339V497.166C254.339 498.666 254.051 499.698 253.475 500.262C252.911 500.826 252.131 501.072 251.135 501V499.884C251.819 499.956 252.323 499.794 252.647 499.398C252.983 499.002 253.151 498.258 253.151 497.166V492H259.595ZM266.27 491.784C267.602 491.784 268.676 492.258 269.492 493.206C270.32 494.142 270.734 495.252 270.734 496.536C270.734 496.668 270.722 496.854 270.698 497.094H262.796C262.916 498.006 263.3 498.732 263.948 499.272C264.608 499.8 265.418 500.064 266.378 500.064C267.062 500.064 267.65 499.926 268.142 499.65C268.646 499.362 269.024 498.99 269.276 498.534L270.32 499.146C269.924 499.782 269.384 500.286 268.7 500.658C268.016 501.03 267.236 501.216 266.36 501.216C264.944 501.216 263.792 500.772 262.904 499.884C262.016 498.996 261.572 497.868 261.572 496.5C261.572 495.156 262.01 494.034 262.886 493.134C263.762 492.234 264.89 491.784 266.27 491.784ZM266.27 492.936C265.334 492.936 264.548 493.218 263.912 493.782C263.288 494.334 262.916 495.054 262.796 495.942H269.51C269.39 494.994 269.024 494.256 268.412 493.728C267.8 493.2 267.086 492.936 266.27 492.936ZM280.183 492V501H278.995V493.152H273.811V501H272.623V492H280.183ZM289.176 492H290.436L286.584 501.828C286.236 502.716 285.738 503.412 285.09 503.916C284.454 504.432 283.74 504.66 282.948 504.6V503.484C284.028 503.604 284.85 502.98 285.414 501.612L285.648 501.054L281.616 492H282.876L286.26 499.542L289.176 492ZM299.557 491.784C300.877 491.784 301.993 492.24 302.905 493.152C303.829 494.052 304.291 495.168 304.291 496.5C304.291 497.832 303.829 498.954 302.905 499.866C301.993 500.766 300.877 501.216 299.557 501.216C298.345 501.216 297.301 500.826 296.425 500.046C295.561 499.254 295.063 498.264 294.931 497.076H293.059V501H291.871V492H293.059V495.924H294.931C295.063 494.736 295.561 493.752 296.425 492.972C297.301 492.18 298.345 491.784 299.557 491.784ZM297.037 499.038C297.721 499.722 298.561 500.064 299.557 500.064C300.553 500.064 301.393 499.722 302.077 499.038C302.761 498.342 303.103 497.496 303.103 496.5C303.103 495.504 302.761 494.664 302.077 493.98C301.393 493.284 300.553 492.936 299.557 492.936C298.561 492.936 297.721 493.284 297.037 493.98C296.353 494.664 296.011 495.504 296.011 496.5C296.011 497.496 296.353 498.342 297.037 499.038Z" fill="#E6D0FE" fill-opacity="0.6"></path> <path d="M47.296 84.136L60.8 101H65.952V78.6H61.536V95.464L48.032 78.6H42.88V101H47.296V84.136ZM80.4918 97.768C77.4838 97.768 75.1478 96.456 74.5398 94.12H88.2998C88.4918 93.384 88.5878 92.648 88.5878 91.944C88.5878 87.624 84.9398 84.456 80.0758 84.456C74.7318 84.456 70.1878 87.656 70.1878 93C70.1878 97.8 74.1238 101.576 80.0758 101.576C83.0198 101.576 86.0278 100.584 88.1718 99.496L86.9237 96.168C84.6518 97.352 82.6678 97.768 80.4918 97.768ZM79.8198 88.008C82.3158 88.008 83.9158 89.128 84.3318 91.016H74.6358C75.2758 89.064 77.0677 88.008 79.8198 88.008ZM94.39 85H89.75L97.302 101H101.942L109.526 85H104.822L99.638 96.232L94.39 85ZM121.179 97.768C118.171 97.768 115.835 96.456 115.227 94.12H128.987C129.179 93.384 129.275 92.648 129.275 91.944C129.275 87.624 125.627 84.456 120.763 84.456C115.419 84.456 110.875 87.656 110.875 93C110.875 97.8 114.811 101.576 120.763 101.576C123.707 101.576 126.715 100.584 128.859 99.496L127.611 96.168C125.339 97.352 123.355 97.768 121.179 97.768ZM120.507 88.008C123.003 88.008 124.603 89.128 125.019 91.016H115.323C115.963 89.064 117.755 88.008 120.507 88.008ZM142.982 84.456C140.198 84.456 137.99 86.824 137.062 88.552V85H132.838V101H137.062V93.064C137.062 90.12 139.91 88.392 142.566 88.392C143.174 88.392 144.006 88.584 144.774 88.936L145.67 85.096C144.87 84.712 143.878 84.456 142.982 84.456ZM166.436 88.424C168.964 88.424 170.276 89.992 170.276 92.264V101H174.5V91.752C174.5 87.4 172.004 84.52 167.652 84.52C164.612 84.52 162.244 86.472 161.124 88.552V77.288H156.9V101H161.124V93.064C161.124 89.896 163.78 88.424 166.436 88.424ZM184.75 91.88C181.454 91.88 178.19 93.352 178.19 96.776C178.19 99.656 180.43 101.64 183.438 101.64C186.158 101.64 188.59 100.168 190.126 98.344C190.19 100.136 191.086 101.64 193.23 101.64C194.542 101.64 196.462 101 198.222 100.04L197.358 96.776C196.43 97.256 195.598 97.608 195.118 97.608C194.67 97.608 194.35 97.32 194.35 96.84V91.08C194.35 86.696 191.79 84.36 187.406 84.36C184.878 84.36 181.518 85.352 179.534 85.992L180.59 89.832C182.926 88.968 185.358 88.232 187.022 88.232C189.038 88.232 190.126 89.352 190.126 91.016V92.872C188.75 92.392 186.478 91.88 184.75 91.88ZM184.814 98.024C183.47 98.024 182.51 97.48 182.51 96.424C182.51 95.272 183.566 94.6 184.974 94.6C186.51 94.6 188.366 94.76 190.126 95.08V95.688C188.622 97.16 186.414 98.024 184.814 98.024ZM202.859 85H198.219L205.771 101H210.411L217.995 85H213.291L208.107 96.232L202.859 85ZM229.648 97.768C226.64 97.768 224.304 96.456 223.696 94.12H237.456C237.648 93.384 237.744 92.648 237.744 91.944C237.744 87.624 234.096 84.456 229.232 84.456C223.888 84.456 219.344 87.656 219.344 93C219.344 97.8 223.28 101.576 229.232 101.576C232.176 101.576 235.184 100.584 237.328 99.496L236.08 96.168C233.808 97.352 231.824 97.768 229.648 97.768ZM228.976 88.008C231.472 88.008 233.072 89.128 233.488 91.016H223.792C224.432 89.064 226.224 88.008 228.976 88.008ZM255.265 78.6H250.849V101H255.265V78.6ZM278.867 97.768C275.859 97.768 273.523 96.456 272.915 94.12H286.675C286.867 93.384 286.963 92.648 286.963 91.944C286.963 87.624 283.315 84.456 278.451 84.456C273.107 84.456 268.563 87.656 268.563 93C268.563 97.8 272.499 101.576 278.451 101.576C281.395 101.576 284.403 100.584 286.547 99.496L285.299 96.168C283.027 97.352 281.043 97.768 278.867 97.768ZM278.195 88.008C280.691 88.008 282.291 89.128 282.707 91.016H273.011C273.651 89.064 275.443 88.008 278.195 88.008ZM292.765 85H288.125L295.677 101H300.317L307.901 85H303.197L298.013 96.232L292.765 85ZM319.554 97.768C316.546 97.768 314.21 96.456 313.602 94.12H327.362C327.554 93.384 327.65 92.648 327.65 91.944C327.65 87.624 324.002 84.456 319.138 84.456C313.794 84.456 309.25 87.656 309.25 93C309.25 97.8 313.186 101.576 319.138 101.576C322.082 101.576 325.09 100.584 327.234 99.496L325.986 96.168C323.714 97.352 321.73 97.768 319.554 97.768ZM318.882 88.008C321.378 88.008 322.978 89.128 323.394 91.016H313.698C314.338 89.064 316.13 88.008 318.882 88.008ZM341.357 84.456C338.573 84.456 336.365 86.824 335.437 88.552V85H331.213V101H335.437V93.064C335.437 90.12 338.285 88.392 340.941 88.392C341.549 88.392 342.381 88.584 343.149 88.936L344.045 85.096C343.245 84.712 342.253 84.456 341.357 84.456ZM48.096 138.888C47.04 138.888 46.496 138.504 46.496 137.96C46.496 137.512 46.912 137.192 47.296 137.096C48.032 137.224 48.832 137.288 49.632 137.288C54.464 137.288 57.984 134.536 57.984 130.888C57.984 129.8 57.696 128.84 57.248 128.04C58.016 127.656 58.912 127.432 60.032 127.304L59.264 123.368C57.216 123.72 55.616 124.488 54.4 125.48C53.024 124.808 51.36 124.456 49.632 124.456C45.248 124.456 41.312 126.664 41.312 130.888C41.312 132.616 42.688 134.376 44.16 135.336C43.36 135.848 42.432 136.68 42.432 137.736C42.432 138.76 43.104 139.88 43.968 140.296C42.368 140.712 40.672 142.28 40.672 143.976C40.672 147.336 44.448 149.096 50.272 149.096C55.744 149.096 59.776 147.304 59.776 143.656C59.776 140.328 55.744 138.888 50.272 138.888H48.096ZM49.6 127.944C51.872 127.944 53.6 128.936 53.6 130.76C53.6 132.264 52.032 133.512 49.6 133.512C47.296 133.512 45.568 132.36 45.568 130.76C45.568 128.936 47.296 127.944 49.6 127.944ZM50.208 142.472C53.504 142.472 55.68 142.92 55.68 144.008C55.68 145.192 53.504 145.64 50.208 145.64C46.688 145.64 44.736 145.128 44.736 143.976C44.736 143.336 45.344 142.792 46.048 142.504C46.592 142.472 49.568 142.472 50.208 142.472ZM71.4835 124.456C66.1395 124.456 61.5315 127.496 61.5315 132.84C61.5315 137.64 65.6915 141.576 71.4835 141.576C77.2755 141.576 81.4355 137.64 81.4355 132.84C81.4355 127.496 76.8275 124.456 71.4835 124.456ZM71.4835 128.136C74.8115 128.136 77.1795 129.864 77.1795 132.84C77.1795 135.528 74.6515 137.928 71.4835 137.928C68.3155 137.928 65.7875 135.528 65.7875 132.84C65.7875 129.864 68.1555 128.136 71.4835 128.136ZM94.7173 128.424C97.2453 128.424 98.5573 129.992 98.5573 132.264V141H102.781V131.752C102.781 127.4 100.285 124.52 95.9333 124.52C92.8933 124.52 90.5253 126.472 89.4053 128.552V125H85.1813V141H89.4053V133.064C89.4053 129.896 92.0613 128.424 94.7173 128.424ZM116.679 137.768C113.671 137.768 111.335 136.456 110.727 134.12H124.487C124.679 133.384 124.775 132.648 124.775 131.944C124.775 127.624 121.127 124.456 116.263 124.456C110.919 124.456 106.375 127.656 106.375 133C106.375 137.8 110.311 141.576 116.263 141.576C119.207 141.576 122.215 140.584 124.359 139.496L123.111 136.168C120.839 137.352 118.855 137.768 116.679 137.768ZM116.007 128.008C118.503 128.008 120.103 129.128 120.519 131.016H110.823C111.463 129.064 113.255 128.008 116.007 128.008ZM146.296 124.456C140.952 124.456 136.344 127.496 136.344 132.84C136.344 137.64 140.504 141.576 146.296 141.576C152.088 141.576 156.248 137.64 156.248 132.84C156.248 127.496 151.64 124.456 146.296 124.456ZM146.296 128.136C149.624 128.136 151.992 129.864 151.992 132.84C151.992 135.528 149.464 137.928 146.296 137.928C143.128 137.928 140.6 135.528 140.6 132.84C140.6 129.864 142.968 128.136 146.296 128.136ZM169.53 128.424C172.058 128.424 173.37 129.992 173.37 132.264V141H177.594V131.752C177.594 127.4 175.098 124.52 170.746 124.52C167.706 124.52 165.338 126.472 164.218 128.552V125H159.994V141H164.218V133.064C164.218 129.896 166.874 128.424 169.53 128.424ZM196.906 131.88C193.61 131.88 190.346 133.352 190.346 136.776C190.346 139.656 192.586 141.64 195.594 141.64C198.314 141.64 200.746 140.168 202.282 138.344C202.346 140.136 203.242 141.64 205.386 141.64C206.698 141.64 208.618 141 210.378 140.04L209.514 136.776C208.586 137.256 207.754 137.608 207.274 137.608C206.826 137.608 206.506 137.32 206.506 136.84V131.08C206.506 126.696 203.946 124.36 199.562 124.36C197.034 124.36 193.674 125.352 191.69 125.992L192.746 129.832C195.082 128.968 197.514 128.232 199.178 128.232C201.194 128.232 202.282 129.352 202.282 131.016V132.872C200.906 132.392 198.634 131.88 196.906 131.88ZM196.97 138.024C195.626 138.024 194.666 137.48 194.666 136.424C194.666 135.272 195.722 134.6 197.13 134.6C198.666 134.6 200.522 134.76 202.282 135.08V135.688C200.778 137.16 198.57 138.024 196.97 138.024ZM232.814 124.456C229.646 124.456 227.118 126.344 226.062 128.552V117H221.838V139.4C223.918 140.328 228.27 141.576 231.47 141.576C236.718 141.576 240.75 137.64 240.75 132.84C240.75 127.656 237.069 124.456 232.814 124.456ZM231.566 128.392C234.35 128.392 236.494 129.96 236.494 132.84C236.494 135.528 234.158 137.864 231.534 137.864C229.582 137.864 227.918 137.544 226.062 136.936V133.064C226.062 130.12 228.878 128.392 231.566 128.392ZM248.686 141V117H244.494V141H248.686ZM257.718 125H253.558V141H257.718V125ZM253.11 120.392C253.11 121.8 254.23 122.92 255.638 122.92C257.046 122.92 258.166 121.8 258.166 120.392C258.166 119.016 257.046 117.896 255.638 117.896C254.23 117.896 253.11 119.016 253.11 120.392ZM272.124 128.424C274.652 128.424 275.964 129.992 275.964 132.264V141H280.188V131.752C280.188 127.4 277.692 124.52 273.34 124.52C270.3 124.52 267.932 126.472 266.812 128.552V125H262.588V141H266.812V133.064C266.812 129.896 269.468 128.424 272.124 128.424ZM291.845 141.544C295.11 141.544 297.67 139.656 298.726 137.448V141H302.95V117H298.726V125.576C297.126 125.064 294.918 124.424 293.19 124.424C287.814 124.424 283.782 128.36 283.782 133.16C283.782 138.344 287.462 141.544 291.845 141.544ZM293.094 137.608C290.246 137.608 288.038 136.008 288.038 133.128C288.038 130.312 290.246 128.136 293.126 128.136C295.078 128.136 296.87 128.552 298.726 129.096V132.552C298.726 135.624 295.91 137.608 293.094 137.608ZM49.408 181.544C52.672 181.544 55.232 179.656 56.288 177.448V181H60.512V157H56.288V165.576C54.688 165.064 52.48 164.424 50.752 164.424C45.376 164.424 41.344 168.36 41.344 173.16C41.344 178.344 45.024 181.544 49.408 181.544ZM50.656 177.608C47.808 177.608 45.6 176.008 45.6 173.128C45.6 170.312 47.808 168.136 50.688 168.136C52.64 168.136 54.432 168.552 56.288 169.096V172.552C56.288 175.624 53.472 177.608 50.656 177.608ZM70.9062 171.88C67.6102 171.88 64.3463 173.352 64.3463 176.776C64.3463 179.656 66.5863 181.64 69.5943 181.64C72.3142 181.64 74.7463 180.168 76.2823 178.344C76.3463 180.136 77.2423 181.64 79.3863 181.64C80.6983 181.64 82.6183 181 84.3783 180.04L83.5143 176.776C82.5863 177.256 81.7543 177.608 81.2743 177.608C80.8263 177.608 80.5063 177.32 80.5063 176.84V171.08C80.5063 166.696 77.9463 164.36 73.5623 164.36C71.0343 164.36 67.6743 165.352 65.6903 165.992L66.7463 169.832C69.0823 168.968 71.5143 168.232 73.1783 168.232C75.1943 168.232 76.2823 169.352 76.2823 171.016V172.872C74.9063 172.392 72.6343 171.88 70.9062 171.88ZM70.9703 178.024C69.6263 178.024 68.6663 177.48 68.6663 176.424C68.6663 175.272 69.7223 174.6 71.1302 174.6C72.6663 174.6 74.5223 174.76 76.2823 175.08V175.688C74.7783 177.16 72.5703 178.024 70.9703 178.024ZM85.015 168.68H88.055V174.888C88.055 178.92 90.199 181.544 94.167 181.544C95.863 181.544 98.135 180.808 99.479 180.104L98.551 176.488C97.527 177.128 96.119 177.64 94.871 177.64C93.207 177.64 92.279 176.456 92.279 174.728V168.68H98.935V165H92.279V160.2H88.759L88.183 165.128L85.015 165.32V168.68ZM111.929 177.768C108.921 177.768 106.585 176.456 105.977 174.12H119.737C119.929 173.384 120.025 172.648 120.025 171.944C120.025 167.624 116.377 164.456 111.513 164.456C106.169 164.456 101.625 167.656 101.625 173C101.625 177.8 105.561 181.576 111.513 181.576C114.457 181.576 117.465 180.584 119.609 179.496L118.361 176.168C116.089 177.352 114.105 177.768 111.929 177.768ZM111.257 168.008C113.753 168.008 115.353 169.128 115.769 171.016H106.073C106.713 169.064 108.505 168.008 111.257 168.008Z" fill="#E6D0FE"></path> <path d="M49.54 247.4H50.8V260H49.54V254.114H42.7V260H41.44V247.4H42.7V252.926H49.54V247.4ZM61.0364 258.866C60.1244 259.766 59.0084 260.216 57.6884 260.216C56.3684 260.216 55.2464 259.766 54.3224 258.866C53.4104 257.954 52.9544 256.832 52.9544 255.5C52.9544 254.168 53.4104 253.052 54.3224 252.152C55.2464 251.24 56.3684 250.784 57.6884 250.784C59.0084 250.784 60.1244 251.24 61.0364 252.152C61.9604 253.052 62.4224 254.168 62.4224 255.5C62.4224 256.832 61.9604 257.954 61.0364 258.866ZM55.1684 258.038C55.8524 258.722 56.6924 259.064 57.6884 259.064C58.6844 259.064 59.5244 258.722 60.2084 258.038C60.8924 257.342 61.2344 256.496 61.2344 255.5C61.2344 254.504 60.8924 253.664 60.2084 252.98C59.5244 252.284 58.6844 251.936 57.6884 251.936C56.6924 251.936 55.8524 252.284 55.1684 252.98C54.4844 253.664 54.1424 254.504 54.1424 255.5C54.1424 256.496 54.4844 257.342 55.1684 258.038ZM74.8948 251H76.1188L73.3468 260H72.0508L69.7288 252.746L67.4068 260H66.1108L63.3388 251H64.5628L66.7768 258.47L69.1348 251H70.3228L72.6808 258.47L74.8948 251ZM90.1504 247.4H91.3384V260H90.1504V258.236C89.3224 259.556 88.1104 260.216 86.5144 260.216C85.2304 260.216 84.1324 259.76 83.2204 258.848C82.3204 257.936 81.8704 256.82 81.8704 255.5C81.8704 254.18 82.3204 253.064 83.2204 252.152C84.1324 251.24 85.2304 250.784 86.5144 250.784C88.1104 250.784 89.3224 251.444 90.1504 252.764V247.4ZM84.0844 258.038C84.7684 258.722 85.6084 259.064 86.6044 259.064C87.6004 259.064 88.4404 258.722 89.1244 258.038C89.8084 257.342 90.1504 256.496 90.1504 255.5C90.1504 254.504 89.8084 253.664 89.1244 252.98C88.4404 252.284 87.6004 251.936 86.6044 251.936C85.6084 251.936 84.7684 252.284 84.0844 252.98C83.4004 253.664 83.0584 254.504 83.0584 255.5C83.0584 256.496 83.4004 257.342 84.0844 258.038ZM95.0598 248.84C94.8918 249.008 94.6878 249.092 94.4478 249.092C94.2078 249.092 94.0038 249.008 93.8358 248.84C93.6678 248.672 93.5838 248.468 93.5838 248.228C93.5838 247.988 93.6678 247.784 93.8358 247.616C94.0038 247.448 94.2078 247.364 94.4478 247.364C94.6878 247.364 94.8918 247.448 95.0598 247.616C95.2278 247.784 95.3118 247.988 95.3118 248.228C95.3118 248.468 95.2278 248.672 95.0598 248.84ZM93.8538 260V251H95.0418V260H93.8538ZM105.303 247.4H106.491V260H105.303V258.236C104.475 259.556 103.263 260.216 101.667 260.216C100.383 260.216 99.2847 259.76 98.3727 258.848C97.4727 257.936 97.0227 256.82 97.0227 255.5C97.0227 254.18 97.4727 253.064 98.3727 252.152C99.2847 251.24 100.383 250.784 101.667 250.784C103.263 250.784 104.475 251.444 105.303 252.764V247.4ZM99.2367 258.038C99.9207 258.722 100.761 259.064 101.757 259.064C102.753 259.064 103.593 258.722 104.277 258.038C104.961 257.342 105.303 256.496 105.303 255.5C105.303 254.504 104.961 253.664 104.277 252.98C103.593 252.284 102.753 251.936 101.757 251.936C100.761 251.936 99.9207 252.284 99.2367 252.98C98.5527 253.664 98.2107 254.504 98.2107 255.5C98.2107 256.496 98.5527 257.342 99.2367 258.038ZM114.712 248.84C114.544 249.008 114.34 249.092 114.1 249.092C113.86 249.092 113.656 249.008 113.488 248.84C113.32 248.672 113.236 248.468 113.236 248.228C113.236 247.988 113.32 247.784 113.488 247.616C113.656 247.448 113.86 247.364 114.1 247.364C114.34 247.364 114.544 247.448 114.712 247.616C114.88 247.784 114.964 247.988 114.964 248.228C114.964 248.468 114.88 248.672 114.712 248.84ZM113.506 260V251H114.694V260H113.506ZM121.985 252.152H119.393V257.606C119.393 258.098 119.489 258.452 119.681 258.668C119.873 258.872 120.161 258.98 120.545 258.992C120.929 258.992 121.409 258.98 121.985 258.956V260C120.725 260.192 119.777 260.102 119.141 259.73C118.517 259.358 118.205 258.65 118.205 257.606V252.152H116.315V251H118.205V248.84L119.393 248.48V251H121.985V252.152ZM136.205 251H137.393V259.64C137.393 260.936 136.949 261.956 136.061 262.7C135.173 263.444 134.111 263.816 132.875 263.816C130.763 263.816 129.341 263.084 128.609 261.62L129.653 261.026C130.193 262.118 131.267 262.664 132.875 262.664C133.907 262.664 134.717 262.388 135.305 261.836C135.905 261.296 136.205 260.564 136.205 259.64V258.236C135.377 259.556 134.165 260.216 132.569 260.216C131.285 260.216 130.187 259.76 129.275 258.848C128.375 257.936 127.925 256.82 127.925 255.5C127.925 254.18 128.375 253.064 129.275 252.152C130.187 251.24 131.285 250.784 132.569 250.784C134.165 250.784 135.377 251.444 136.205 252.764V251ZM130.139 258.038C130.823 258.722 131.663 259.064 132.659 259.064C133.655 259.064 134.495 258.722 135.179 258.038C135.863 257.342 136.205 256.496 136.205 255.5C136.205 254.504 135.863 253.664 135.179 252.98C134.495 252.284 133.655 251.936 132.659 251.936C131.663 251.936 130.823 252.284 130.139 252.98C129.455 253.664 129.113 254.504 129.113 255.5C129.113 256.496 129.455 257.342 130.139 258.038ZM147.45 258.866C146.538 259.766 145.422 260.216 144.102 260.216C142.782 260.216 141.66 259.766 140.736 258.866C139.824 257.954 139.368 256.832 139.368 255.5C139.368 254.168 139.824 253.052 140.736 252.152C141.66 251.24 142.782 250.784 144.102 250.784C145.422 250.784 146.538 251.24 147.45 252.152C148.374 253.052 148.836 254.168 148.836 255.5C148.836 256.832 148.374 257.954 147.45 258.866ZM141.582 258.038C142.266 258.722 143.106 259.064 144.102 259.064C145.098 259.064 145.938 258.722 146.622 258.038C147.306 257.342 147.648 256.496 147.648 255.5C147.648 254.504 147.306 253.664 146.622 252.98C145.938 252.284 145.098 251.936 144.102 251.936C143.106 251.936 142.266 252.284 141.582 252.98C140.898 253.664 140.556 254.504 140.556 255.5C140.556 256.496 140.898 257.342 141.582 258.038ZM152.079 256.58C152.079 255.992 152.199 255.458 152.439 254.978C152.679 254.486 152.967 254.072 153.303 253.736C153.639 253.4 153.975 253.076 154.311 252.764C154.647 252.452 154.935 252.11 155.175 251.738C155.415 251.354 155.535 250.946 155.535 250.514C155.535 249.818 155.295 249.296 154.815 248.948C154.347 248.588 153.741 248.408 152.997 248.408C151.521 248.408 150.609 249.014 150.261 250.226L149.199 249.632C149.475 248.828 149.955 248.222 150.639 247.814C151.335 247.394 152.121 247.184 152.997 247.184C154.053 247.184 154.947 247.478 155.679 248.066C156.423 248.642 156.795 249.458 156.795 250.514C156.795 251.03 156.675 251.51 156.435 251.954C156.195 252.398 155.907 252.788 155.571 253.124C155.235 253.448 154.899 253.772 154.563 254.096C154.227 254.42 153.939 254.798 153.699 255.23C153.459 255.65 153.339 256.1 153.339 256.58H152.079ZM153.411 259.892C153.219 260.084 152.985 260.18 152.709 260.18C152.433 260.18 152.199 260.084 152.007 259.892C151.815 259.7 151.719 259.466 151.719 259.19C151.719 258.914 151.815 258.68 152.007 258.488C152.199 258.296 152.433 258.2 152.709 258.2C152.985 258.2 153.219 258.296 153.411 258.488C153.603 258.68 153.699 258.914 153.699 259.19C153.699 259.466 153.603 259.7 153.411 259.892Z" fill="#E6D0FE"></path> <path d="M46.3 284.4C48.016 284.4 49.432 285.012 50.548 286.236C51.676 287.448 52.24 288.936 52.24 290.7C52.24 292.464 51.676 293.958 50.548 295.182C49.432 296.394 48.016 297 46.3 297H41.44V284.4H46.3ZM46.3 295.812C47.68 295.812 48.808 295.32 49.684 294.336C50.572 293.352 51.016 292.14 51.016 290.7C51.016 289.26 50.572 288.048 49.684 287.064C48.808 286.08 47.68 285.588 46.3 285.588H42.7V295.812H46.3ZM55.4211 285.84C55.2531 286.008 55.0491 286.092 54.8091 286.092C54.5691 286.092 54.3651 286.008 54.1971 285.84C54.0291 285.672 53.9451 285.468 53.9451 285.228C53.9451 284.988 54.0291 284.784 54.1971 284.616C54.3651 284.448 54.5691 284.364 54.8091 284.364C55.0491 284.364 55.2531 284.448 55.4211 284.616C55.5891 284.784 55.6731 284.988 55.6731 285.228C55.6731 285.468 55.5891 285.672 55.4211 285.84ZM54.2151 297V288H55.4031V297H54.2151ZM65.6641 284.4H66.8521V297H65.6641V295.236C64.8361 296.556 63.6241 297.216 62.0281 297.216C60.7441 297.216 59.6461 296.76 58.7341 295.848C57.8341 294.936 57.3841 293.82 57.3841 292.5C57.3841 291.18 57.8341 290.064 58.7341 289.152C59.6461 288.24 60.7441 287.784 62.0281 287.784C63.6241 287.784 64.8361 288.444 65.6641 289.764V284.4ZM59.5981 295.038C60.2821 295.722 61.1221 296.064 62.1181 296.064C63.1141 296.064 63.9541 295.722 64.6381 295.038C65.3221 294.342 65.6641 293.496 65.6641 292.5C65.6641 291.504 65.3221 290.664 64.6381 289.98C63.9541 289.284 63.1141 288.936 62.1181 288.936C61.1221 288.936 60.2821 289.284 59.5981 289.98C58.9141 290.664 58.5721 291.504 58.5721 292.5C58.5721 293.496 58.9141 294.342 59.5981 295.038ZM80.3474 288H81.6074L77.7554 297.828C77.4074 298.716 76.9094 299.412 76.2614 299.916C75.6254 300.432 74.9114 300.66 74.1194 300.6V299.484C75.1994 299.604 76.0214 298.98 76.5854 297.612L76.8194 297.054L72.7874 288H74.0474L77.4314 295.542L80.3474 288ZM90.2336 295.866C89.3216 296.766 88.2056 297.216 86.8856 297.216C85.5656 297.216 84.4436 296.766 83.5196 295.866C82.6076 294.954 82.1516 293.832 82.1516 292.5C82.1516 291.168 82.6076 290.052 83.5196 289.152C84.4436 288.24 85.5656 287.784 86.8856 287.784C88.2056 287.784 89.3216 288.24 90.2336 289.152C91.1576 290.052 91.6196 291.168 91.6196 292.5C91.6196 293.832 91.1576 294.954 90.2336 295.866ZM84.3656 295.038C85.0496 295.722 85.8896 296.064 86.8856 296.064C87.8816 296.064 88.7216 295.722 89.4056 295.038C90.0896 294.342 90.4316 293.496 90.4316 292.5C90.4316 291.504 90.0896 290.664 89.4056 289.98C88.7216 289.284 87.8816 288.936 86.8856 288.936C85.8896 288.936 85.0496 289.284 84.3656 289.98C83.6816 290.664 83.3396 291.504 83.3396 292.5C83.3396 293.496 83.6816 294.342 84.3656 295.038ZM99.9437 288H101.132V297H99.9437V295.596C99.2717 296.676 98.2637 297.216 96.9197 297.216C95.8277 297.216 94.9637 296.886 94.3277 296.226C93.7037 295.554 93.3917 294.654 93.3917 293.526V288H94.5797V293.526C94.5797 294.33 94.7897 294.954 95.2097 295.398C95.6417 295.842 96.2477 296.064 97.0277 296.064C97.8917 296.064 98.5937 295.794 99.1337 295.254C99.6737 294.702 99.9437 293.856 99.9437 292.716V288ZM117.739 287.784C118.747 287.784 119.557 288.108 120.169 288.756C120.793 289.404 121.105 290.28 121.105 291.384V297H119.917V291.384C119.917 290.604 119.713 290.004 119.305 289.584C118.909 289.152 118.381 288.936 117.721 288.936C116.977 288.936 116.371 289.188 115.903 289.692C115.447 290.184 115.219 290.958 115.219 292.014V297H114.031V291.384C114.031 290.592 113.839 289.986 113.455 289.566C113.083 289.146 112.573 288.936 111.925 288.936C111.205 288.936 110.593 289.188 110.089 289.692C109.585 290.196 109.333 290.97 109.333 292.014V297H108.145V288H109.333V289.314C109.981 288.294 110.899 287.784 112.087 287.784C113.383 287.784 114.295 288.33 114.823 289.422C115.471 288.33 116.443 287.784 117.739 287.784ZM127.561 287.784C128.893 287.784 129.967 288.258 130.783 289.206C131.611 290.142 132.025 291.252 132.025 292.536C132.025 292.668 132.013 292.854 131.989 293.094H124.087C124.207 294.006 124.591 294.732 125.239 295.272C125.899 295.8 126.709 296.064 127.669 296.064C128.353 296.064 128.941 295.926 129.433 295.65C129.937 295.362 130.315 294.99 130.567 294.534L131.611 295.146C131.215 295.782 130.675 296.286 129.991 296.658C129.307 297.03 128.527 297.216 127.651 297.216C126.235 297.216 125.083 296.772 124.195 295.884C123.307 294.996 122.863 293.868 122.863 292.5C122.863 291.156 123.301 290.034 124.177 289.134C125.053 288.234 126.181 287.784 127.561 287.784ZM127.561 288.936C126.625 288.936 125.839 289.218 125.203 289.782C124.579 290.334 124.207 291.054 124.087 291.942H130.801C130.681 290.994 130.315 290.256 129.703 289.728C129.091 289.2 128.377 288.936 127.561 288.936ZM138.072 287.784C139.404 287.784 140.478 288.258 141.294 289.206C142.122 290.142 142.536 291.252 142.536 292.536C142.536 292.668 142.524 292.854 142.5 293.094H134.598C134.718 294.006 135.102 294.732 135.75 295.272C136.41 295.8 137.22 296.064 138.18 296.064C138.864 296.064 139.452 295.926 139.944 295.65C140.448 295.362 140.826 294.99 141.078 294.534L142.122 295.146C141.726 295.782 141.186 296.286 140.502 296.658C139.818 297.03 139.038 297.216 138.162 297.216C136.746 297.216 135.594 296.772 134.706 295.884C133.818 294.996 133.374 293.868 133.374 292.5C133.374 291.156 133.812 290.034 134.688 289.134C135.564 288.234 136.692 287.784 138.072 287.784ZM138.072 288.936C137.136 288.936 136.35 289.218 135.714 289.782C135.09 290.334 134.718 291.054 134.598 291.942H141.312C141.192 290.994 140.826 290.256 140.214 289.728C139.602 289.2 138.888 288.936 138.072 288.936ZM148.932 289.152H146.34V294.606C146.34 295.098 146.436 295.452 146.628 295.668C146.82 295.872 147.108 295.98 147.492 295.992C147.876 295.992 148.356 295.98 148.932 295.956V297C147.672 297.192 146.724 297.102 146.088 296.73C145.464 296.358 145.152 295.65 145.152 294.606V289.152H143.262V288H145.152V285.84L146.34 285.48V288H148.932V289.152ZM163.152 288H164.34V297H163.152V295.236C162.324 296.556 161.112 297.216 159.516 297.216C158.232 297.216 157.134 296.76 156.222 295.848C155.322 294.936 154.872 293.82 154.872 292.5C154.872 291.18 155.322 290.064 156.222 289.152C157.134 288.24 158.232 287.784 159.516 287.784C161.112 287.784 162.324 288.444 163.152 289.764V288ZM157.086 295.038C157.77 295.722 158.61 296.064 159.606 296.064C160.602 296.064 161.442 295.722 162.126 295.038C162.81 294.342 163.152 293.496 163.152 292.5C163.152 291.504 162.81 290.664 162.126 289.98C161.442 289.284 160.602 288.936 159.606 288.936C158.61 288.936 157.77 289.284 157.086 289.98C156.402 290.664 156.06 291.504 156.06 292.5C156.06 293.496 156.402 294.342 157.086 295.038ZM174.596 288H175.784V296.64C175.784 297.936 175.34 298.956 174.452 299.7C173.564 300.444 172.502 300.816 171.266 300.816C169.154 300.816 167.732 300.084 167 298.62L168.044 298.026C168.584 299.118 169.658 299.664 171.266 299.664C172.298 299.664 173.108 299.388 173.696 298.836C174.296 298.296 174.596 297.564 174.596 296.64V295.236C173.768 296.556 172.556 297.216 170.96 297.216C169.676 297.216 168.578 296.76 167.666 295.848C166.766 294.936 166.316 293.82 166.316 292.5C166.316 291.18 166.766 290.064 167.666 289.152C168.578 288.24 169.676 287.784 170.96 287.784C172.556 287.784 173.768 288.444 174.596 289.764V288ZM168.53 295.038C169.214 295.722 170.054 296.064 171.05 296.064C172.046 296.064 172.886 295.722 173.57 295.038C174.254 294.342 174.596 293.496 174.596 292.5C174.596 291.504 174.254 290.664 173.57 289.98C172.886 289.284 172.046 288.936 171.05 288.936C170.054 288.936 169.214 289.284 168.53 289.98C167.846 290.664 167.504 291.504 167.504 292.5C167.504 293.496 167.846 294.342 168.53 295.038ZM186.039 288H187.227V297H186.039V295.236C185.211 296.556 183.999 297.216 182.403 297.216C181.119 297.216 180.021 296.76 179.109 295.848C178.209 294.936 177.759 293.82 177.759 292.5C177.759 291.18 178.209 290.064 179.109 289.152C180.021 288.24 181.119 287.784 182.403 287.784C183.999 287.784 185.211 288.444 186.039 289.764V288ZM179.973 295.038C180.657 295.722 181.497 296.064 182.493 296.064C183.489 296.064 184.329 295.722 185.013 295.038C185.697 294.342 186.039 293.496 186.039 292.5C186.039 291.504 185.697 290.664 185.013 289.98C184.329 289.284 183.489 288.936 182.493 288.936C181.497 288.936 180.657 289.284 179.973 289.98C179.289 290.664 178.947 291.504 178.947 292.5C178.947 293.496 179.289 294.342 179.973 295.038ZM190.948 285.84C190.78 286.008 190.576 286.092 190.336 286.092C190.096 286.092 189.892 286.008 189.724 285.84C189.556 285.672 189.472 285.468 189.472 285.228C189.472 284.988 189.556 284.784 189.724 284.616C189.892 284.448 190.096 284.364 190.336 284.364C190.576 284.364 190.78 284.448 190.948 284.616C191.116 284.784 191.2 284.988 191.2 285.228C191.2 285.468 191.116 285.672 190.948 285.84ZM189.742 297V288H190.93V297H189.742ZM197.663 287.784C198.755 287.784 199.613 288.12 200.237 288.792C200.873 289.452 201.191 290.346 201.191 291.474V297H200.003V291.474C200.003 290.67 199.787 290.046 199.355 289.602C198.935 289.158 198.335 288.936 197.555 288.936C196.691 288.936 195.989 289.212 195.449 289.764C194.909 290.304 194.639 291.144 194.639 292.284V297H193.451V288H194.639V289.404C195.311 288.324 196.319 287.784 197.663 287.784ZM205.288 293.58C205.288 292.992 205.408 292.458 205.648 291.978C205.888 291.486 206.176 291.072 206.512 290.736C206.848 290.4 207.184 290.076 207.52 289.764C207.856 289.452 208.144 289.11 208.384 288.738C208.624 288.354 208.744 287.946 208.744 287.514C208.744 286.818 208.504 286.296 208.024 285.948C207.556 285.588 206.95 285.408 206.206 285.408C204.73 285.408 203.818 286.014 203.47 287.226L202.408 286.632C202.684 285.828 203.164 285.222 203.848 284.814C204.544 284.394 205.33 284.184 206.206 284.184C207.262 284.184 208.156 284.478 208.888 285.066C209.632 285.642 210.004 286.458 210.004 287.514C210.004 288.03 209.884 288.51 209.644 288.954C209.404 289.398 209.116 289.788 208.78 290.124C208.444 290.448 208.108 290.772 207.772 291.096C207.436 291.42 207.148 291.798 206.908 292.23C206.668 292.65 206.548 293.1 206.548 293.58H205.288ZM206.62 296.892C206.428 297.084 206.194 297.18 205.918 297.18C205.642 297.18 205.408 297.084 205.216 296.892C205.024 296.7 204.928 296.466 204.928 296.19C204.928 295.914 205.024 295.68 205.216 295.488C205.408 295.296 205.642 295.2 205.918 295.2C206.194 295.2 206.428 295.296 206.62 295.488C206.812 295.68 206.908 295.914 206.908 296.19C206.908 296.466 206.812 296.7 206.62 296.892Z" fill="#E6D0FE"></path> </svg> 