<?xml version="1.0" encoding="UTF-8"?> <svg xmlns="http://www.w3.org/2000/svg" width="400" height="600" viewBox="0 0 400 600" fill="none"><rect width="400" height="600" rx="20" fill="#36BB71"></rect><path d="M46.174 488.4C47.902 488.4 49.342 489.006 50.494 490.218C51.658 491.43 52.24 492.924 52.24 494.7C52.24 496.476 51.658 497.97 50.494 499.182C49.342 500.394 47.902 501 46.174 501H41.17V488.4H46.174ZM46.174 498.624C47.266 498.624 48.154 498.264 48.838 497.544C49.522 496.812 49.864 495.864 49.864 494.7C49.864 493.536 49.522 492.594 48.838 491.874C48.154 491.142 47.266 490.776 46.174 490.776H43.654V498.624H46.174ZM55.046 490.92C54.662 490.92 54.326 490.782 54.038 490.506C53.762 490.218 53.624 489.882 53.624 489.498C53.624 489.114 53.762 488.778 54.038 488.49C54.326 488.202 54.662 488.058 55.046 488.058C55.442 488.058 55.778 488.202 56.054 488.49C56.342 488.778 56.486 489.114 56.486 489.498C56.486 489.882 56.342 490.218 56.054 490.506C55.778 490.782 55.442 490.92 55.046 490.92ZM53.894 501V492H56.216V501H53.894ZM63.3453 491.748C64.3293 491.748 65.1393 492.078 65.7753 492.738C66.4233 493.398 66.7473 494.31 66.7473 495.474V501H64.4253V495.762C64.4253 495.162 64.2633 494.706 63.9393 494.394C63.6153 494.07 63.1833 493.908 62.6433 493.908C62.0433 493.908 61.5633 494.094 61.2033 494.466C60.8433 494.838 60.6633 495.396 60.6633 496.14V501H58.3413V492H60.6633V493.008C61.2273 492.168 62.1213 491.748 63.3453 491.748ZM70.692 497.454C71.004 498.582 71.85 499.146 73.23 499.146C74.118 499.146 74.79 498.846 75.246 498.246L77.118 499.326C76.23 500.61 74.922 501.252 73.194 501.252C71.706 501.252 70.512 500.802 69.612 499.902C68.712 499.002 68.262 497.868 68.262 496.5C68.262 495.144 68.706 494.016 69.594 493.116C70.482 492.204 71.622 491.748 73.014 491.748C74.334 491.748 75.42 492.204 76.272 493.116C77.136 494.028 77.568 495.156 77.568 496.5C77.568 496.8 77.538 497.118 77.478 497.454H70.692ZM70.656 495.654H75.246C75.114 495.042 74.838 494.586 74.418 494.286C74.01 493.986 73.542 493.836 73.014 493.836C72.39 493.836 71.874 493.998 71.466 494.322C71.058 494.634 70.788 495.078 70.656 495.654ZM90.529 492H92.851V501H90.529V499.938C89.833 500.814 88.855 501.252 87.595 501.252C86.395 501.252 85.363 500.796 84.499 499.884C83.647 498.96 83.221 497.832 83.221 496.5C83.221 495.168 83.647 494.046 84.499 493.134C85.363 492.21 86.395 491.748 87.595 491.748C88.855 491.748 89.833 492.186 90.529 493.062V492ZM86.245 498.336C86.713 498.804 87.307 499.038 88.027 499.038C88.747 499.038 89.341 498.804 89.809 498.336C90.289 497.856 90.529 497.244 90.529 496.5C90.529 495.756 90.289 495.15 89.809 494.682C89.341 494.202 88.747 493.962 88.027 493.962C87.307 493.962 86.713 494.202 86.245 494.682C85.777 495.15 85.543 495.756 85.543 496.5C85.543 497.244 85.777 497.856 86.245 498.336ZM99.9605 491.748C100.945 491.748 101.755 492.078 102.391 492.738C103.039 493.398 103.363 494.31 103.363 495.474V501H101.041V495.762C101.041 495.162 100.879 494.706 100.555 494.394C100.231 494.07 99.7985 493.908 99.2585 493.908C98.6585 493.908 98.1785 494.094 97.8185 494.466C97.4585 494.838 97.2785 495.396 97.2785 496.14V501H94.9565V492H97.2785V493.008C97.8425 492.168 98.7365 491.748 99.9605 491.748ZM112.167 488.4H114.489V501H112.167V499.938C111.483 500.814 110.511 501.252 109.251 501.252C108.039 501.252 107.001 500.796 106.137 499.884C105.285 498.96 104.859 497.832 104.859 496.5C104.859 495.168 105.285 494.046 106.137 493.134C107.001 492.21 108.039 491.748 109.251 491.748C110.511 491.748 111.483 492.186 112.167 493.062V488.4ZM107.883 498.336C108.363 498.804 108.963 499.038 109.683 499.038C110.403 499.038 110.997 498.804 111.465 498.336C111.933 497.856 112.167 497.244 112.167 496.5C112.167 495.756 111.933 495.15 111.465 494.682C110.997 494.202 110.403 493.962 109.683 493.962C108.963 493.962 108.363 494.202 107.883 494.682C107.415 495.15 107.181 495.756 107.181 496.5C107.181 497.244 107.415 497.856 107.883 498.336ZM127.935 488.4H130.257V501H127.935V499.938C127.251 500.814 126.279 501.252 125.019 501.252C123.807 501.252 122.769 500.796 121.905 499.884C121.053 498.96 120.627 497.832 120.627 496.5C120.627 495.168 121.053 494.046 121.905 493.134C122.769 492.21 123.807 491.748 125.019 491.748C126.279 491.748 127.251 492.186 127.935 493.062V488.4ZM123.651 498.336C124.131 498.804 124.731 499.038 125.451 499.038C126.171 499.038 126.765 498.804 127.233 498.336C127.701 497.856 127.935 497.244 127.935 496.5C127.935 495.756 127.701 495.15 127.233 494.682C126.765 494.202 126.171 493.962 125.451 493.962C124.731 493.962 124.131 494.202 123.651 494.682C123.183 495.15 122.949 495.756 122.949 496.5C122.949 497.244 123.183 497.856 123.651 498.336ZM139.22 492H141.542V501H139.22V499.938C138.524 500.814 137.546 501.252 136.286 501.252C135.086 501.252 134.054 500.796 133.19 499.884C132.338 498.96 131.912 497.832 131.912 496.5C131.912 495.168 132.338 494.046 133.19 493.134C134.054 492.21 135.086 491.748 136.286 491.748C137.546 491.748 138.524 492.186 139.22 493.062V492ZM134.936 498.336C135.404 498.804 135.998 499.038 136.718 499.038C137.438 499.038 138.032 498.804 138.5 498.336C138.98 497.856 139.22 497.244 139.22 496.5C139.22 495.756 138.98 495.15 138.5 494.682C138.032 494.202 137.438 493.962 136.718 493.962C135.998 493.962 135.404 494.202 134.936 494.682C134.468 495.15 134.234 495.756 134.234 496.5C134.234 497.244 134.468 497.856 134.936 498.336ZM145.72 494.556C145.72 494.796 145.876 494.994 146.188 495.15C146.512 495.294 146.902 495.426 147.358 495.546C147.814 495.654 148.27 495.798 148.726 495.978C149.182 496.146 149.566 496.434 149.878 496.842C150.202 497.25 150.364 497.76 150.364 498.372C150.364 499.296 150.016 500.01 149.32 500.514C148.636 501.006 147.778 501.252 146.746 501.252C144.898 501.252 143.638 500.538 142.966 499.11L144.982 497.976C145.246 498.756 145.834 499.146 146.746 499.146C147.574 499.146 147.988 498.888 147.988 498.372C147.988 498.132 147.826 497.94 147.502 497.796C147.19 497.64 146.806 497.502 146.35 497.382C145.894 497.262 145.438 497.112 144.982 496.932C144.526 496.752 144.136 496.47 143.812 496.086C143.5 495.69 143.344 495.198 143.344 494.61C143.344 493.722 143.668 493.026 144.316 492.522C144.976 492.006 145.792 491.748 146.764 491.748C147.496 491.748 148.162 491.916 148.762 492.252C149.362 492.576 149.836 493.044 150.184 493.656L148.204 494.736C147.916 494.124 147.436 493.818 146.764 493.818C146.464 493.818 146.212 493.884 146.008 494.016C145.816 494.148 145.72 494.328 145.72 494.556ZM156.861 491.748C157.845 491.748 158.655 492.078 159.291 492.738C159.939 493.398 160.263 494.31 160.263 495.474V501H157.941V495.762C157.941 495.162 157.779 494.706 157.455 494.394C157.131 494.07 156.699 493.908 156.159 493.908C155.559 493.908 155.079 494.094 154.719 494.466C154.359 494.838 154.179 495.396 154.179 496.14V501H151.857V488.4H154.179V493.008C154.743 492.168 155.637 491.748 156.861 491.748ZM167.124 496.014V494.862H176.124V496.014H167.124ZM195.386 492V501H194.198V493.152H189.014V501H187.826V492H195.386ZM205.441 499.866C204.529 500.766 203.413 501.216 202.093 501.216C200.773 501.216 199.651 500.766 198.727 499.866C197.815 498.954 197.359 497.832 197.359 496.5C197.359 495.168 197.815 494.052 198.727 493.152C199.651 492.24 200.773 491.784 202.093 491.784C203.413 491.784 204.529 492.24 205.441 493.152C206.365 494.052 206.827 495.168 206.827 496.5C206.827 497.832 206.365 498.954 205.441 499.866ZM199.573 499.038C200.257 499.722 201.097 500.064 202.093 500.064C203.089 500.064 203.929 499.722 204.613 499.038C205.297 498.342 205.639 497.496 205.639 496.5C205.639 495.504 205.297 494.664 204.613 493.98C203.929 493.284 203.089 492.936 202.093 492.936C201.097 492.936 200.257 493.284 199.573 493.98C198.889 494.664 198.547 495.504 198.547 496.5C198.547 497.496 198.889 498.342 199.573 499.038ZM212.973 491.784C214.305 491.784 215.379 492.258 216.195 493.206C217.023 494.142 217.437 495.252 217.437 496.536C217.437 496.668 217.425 496.854 217.401 497.094H209.499C209.619 498.006 210.003 498.732 210.651 499.272C211.311 499.8 212.121 500.064 213.081 500.064C213.765 500.064 214.353 499.926 214.845 499.65C215.349 499.362 215.727 498.99 215.979 498.534L217.023 499.146C216.627 499.782 216.087 500.286 215.403 500.658C214.719 501.03 213.939 501.216 213.063 501.216C211.647 501.216 210.495 500.772 209.607 499.884C208.719 498.996 208.275 497.868 208.275 496.5C208.275 495.156 208.713 494.034 209.589 493.134C210.465 492.234 211.593 491.784 212.973 491.784ZM212.973 492.936C212.037 492.936 211.251 493.218 210.615 493.782C209.991 494.334 209.619 495.054 209.499 495.942H216.213C216.093 494.994 215.727 494.256 215.115 493.728C214.503 493.2 213.789 492.936 212.973 492.936ZM223.52 501.216C222.164 501.216 221.036 500.766 220.136 499.866C219.236 498.954 218.786 497.832 218.786 496.5C218.786 495.168 219.236 494.052 220.136 493.152C221.036 492.24 222.164 491.784 223.52 491.784C224.408 491.784 225.206 492 225.914 492.432C226.622 492.852 227.138 493.422 227.462 494.142L226.49 494.7C226.25 494.16 225.86 493.734 225.32 493.422C224.792 493.098 224.192 492.936 223.52 492.936C222.524 492.936 221.684 493.284 221 493.98C220.316 494.664 219.974 495.504 219.974 496.5C219.974 497.496 220.316 498.342 221 499.038C221.684 499.722 222.524 500.064 223.52 500.064C224.192 500.064 224.792 499.908 225.32 499.596C225.848 499.272 226.262 498.84 226.562 498.3L227.552 498.876C227.18 499.596 226.634 500.166 225.914 500.586C225.194 501.006 224.396 501.216 223.52 501.216ZM235.562 492V493.152H232.376V501H231.188V493.152H228.002V492H235.562ZM240.664 495.42C241.504 495.42 242.212 495.684 242.788 496.212C243.376 496.728 243.67 497.394 243.67 498.21C243.67 499.026 243.376 499.698 242.788 500.226C242.212 500.742 241.504 501 240.664 501H237.01V492H238.198V495.42H240.664ZM240.664 499.848C241.168 499.848 241.594 499.698 241.942 499.398C242.302 499.098 242.482 498.702 242.482 498.21C242.482 497.718 242.302 497.322 241.942 497.022C241.594 496.722 241.168 496.572 240.664 496.572H238.198V499.848H240.664ZM255.689 496.374C256.673 496.734 257.165 497.436 257.165 498.48C257.165 499.212 256.919 499.818 256.427 500.298C255.947 500.766 255.251 501 254.339 501H249.965V492H253.979C254.855 492 255.533 492.228 256.013 492.684C256.493 493.128 256.733 493.704 256.733 494.412C256.733 495.312 256.385 495.966 255.689 496.374ZM253.979 493.152H251.153V495.888H253.979C255.023 495.888 255.545 495.42 255.545 494.484C255.545 494.064 255.407 493.74 255.131 493.512C254.867 493.272 254.483 493.152 253.979 493.152ZM254.339 499.848C254.867 499.848 255.269 499.722 255.545 499.47C255.833 499.218 255.977 498.864 255.977 498.408C255.977 497.988 255.833 497.658 255.545 497.418C255.269 497.166 254.867 497.04 254.339 497.04H251.153V499.848H254.339ZM268.289 491.784C269.573 491.784 270.665 492.24 271.565 493.152C272.477 494.064 272.933 495.18 272.933 496.5C272.933 497.82 272.477 498.936 271.565 499.848C270.665 500.76 269.573 501.216 268.289 501.216C266.693 501.216 265.481 500.556 264.653 499.236V504.6H263.465V492H264.653V493.764C265.481 492.444 266.693 491.784 268.289 491.784ZM265.679 499.038C266.363 499.722 267.203 500.064 268.199 500.064C269.195 500.064 270.035 499.722 270.719 499.038C271.403 498.342 271.745 497.496 271.745 496.5C271.745 495.504 271.403 494.664 270.719 493.98C270.035 493.284 269.195 492.936 268.199 492.936C267.203 492.936 266.363 493.284 265.679 493.98C264.995 494.664 264.653 495.504 264.653 496.5C264.653 497.496 264.995 498.342 265.679 499.038ZM279.066 491.784C280.398 491.784 281.472 492.258 282.288 493.206C283.116 494.142 283.53 495.252 283.53 496.536C283.53 496.668 283.518 496.854 283.494 497.094H275.592C275.712 498.006 276.096 498.732 276.744 499.272C277.404 499.8 278.214 500.064 279.174 500.064C279.858 500.064 280.446 499.926 280.938 499.65C281.442 499.362 281.82 498.99 282.072 498.534L283.116 499.146C282.72 499.782 282.18 500.286 281.496 500.658C280.812 501.03 280.032 501.216 279.156 501.216C277.74 501.216 276.588 500.772 275.7 499.884C274.812 498.996 274.368 497.868 274.368 496.5C274.368 495.156 274.806 494.034 275.682 493.134C276.558 492.234 277.686 491.784 279.066 491.784ZM279.066 492.936C278.13 492.936 277.344 493.218 276.708 493.782C276.084 494.334 275.712 495.054 275.592 495.942H282.306C282.186 494.994 281.82 494.256 281.208 493.728C280.596 493.2 279.882 492.936 279.066 492.936ZM289.614 501.216C288.258 501.216 287.13 500.766 286.23 499.866C285.33 498.954 284.88 497.832 284.88 496.5C284.88 495.168 285.33 494.052 286.23 493.152C287.13 492.24 288.258 491.784 289.614 491.784C290.502 491.784 291.3 492 292.008 492.432C292.716 492.852 293.232 493.422 293.556 494.142L292.584 494.7C292.344 494.16 291.954 493.734 291.414 493.422C290.886 493.098 290.286 492.936 289.614 492.936C288.618 492.936 287.778 493.284 287.094 493.98C286.41 494.664 286.068 495.504 286.068 496.5C286.068 497.496 286.41 498.342 287.094 499.038C287.778 499.722 288.618 500.064 289.614 500.064C290.286 500.064 290.886 499.908 291.414 499.596C291.942 499.272 292.356 498.84 292.656 498.3L293.646 498.876C293.274 499.596 292.728 500.166 292.008 500.586C291.288 501.006 290.49 501.216 289.614 501.216ZM301.656 492V493.152H298.47V501H297.282V493.152H294.096V492H301.656ZM310.294 499.866C309.382 500.766 308.266 501.216 306.946 501.216C305.626 501.216 304.504 500.766 303.58 499.866C302.668 498.954 302.212 497.832 302.212 496.5C302.212 495.168 302.668 494.052 303.58 493.152C304.504 492.24 305.626 491.784 306.946 491.784C308.266 491.784 309.382 492.24 310.294 493.152C311.218 494.052 311.68 495.168 311.68 496.5C311.68 497.832 311.218 498.954 310.294 499.866ZM304.426 499.038C305.11 499.722 305.95 500.064 306.946 500.064C307.942 500.064 308.782 499.722 309.466 499.038C310.15 498.342 310.492 497.496 310.492 496.5C310.492 495.504 310.15 494.664 309.466 493.98C308.782 493.284 307.942 492.936 306.946 492.936C305.95 492.936 305.11 493.284 304.426 493.98C303.742 494.664 303.4 495.504 303.4 496.5C303.4 497.496 303.742 498.342 304.426 499.038ZM318.492 491.784C319.776 491.784 320.868 492.24 321.768 493.152C322.68 494.064 323.136 495.18 323.136 496.5C323.136 497.82 322.68 498.936 321.768 499.848C320.868 500.76 319.776 501.216 318.492 501.216C316.896 501.216 315.684 500.556 314.856 499.236V504.6H313.668V492H314.856V493.764C315.684 492.444 316.896 491.784 318.492 491.784ZM315.882 499.038C316.566 499.722 317.406 500.064 318.402 500.064C319.398 500.064 320.238 499.722 320.922 499.038C321.606 498.342 321.948 497.496 321.948 496.5C321.948 495.504 321.606 494.664 320.922 493.98C320.238 493.284 319.398 492.936 318.402 492.936C317.406 492.936 316.566 493.284 315.882 493.98C315.198 494.664 314.856 495.504 314.856 496.5C314.856 497.496 315.198 498.342 315.882 499.038ZM332.852 492H334.04V501H332.852V499.236C332.024 500.556 330.812 501.216 329.216 501.216C327.932 501.216 326.834 500.76 325.922 499.848C325.022 498.936 324.572 497.82 324.572 496.5C324.572 495.18 325.022 494.064 325.922 493.152C326.834 492.24 327.932 491.784 329.216 491.784C330.812 491.784 332.024 492.444 332.852 493.764V492ZM326.786 499.038C327.47 499.722 328.31 500.064 329.306 500.064C330.302 500.064 331.142 499.722 331.826 499.038C332.51 498.342 332.852 497.496 332.852 496.5C332.852 495.504 332.51 494.664 331.826 493.98C331.142 493.284 330.302 492.936 329.306 492.936C328.31 492.936 327.47 493.284 326.786 493.98C326.102 494.664 325.76 495.504 325.76 496.5C325.76 497.496 326.102 498.342 326.786 499.038ZM342.927 492H344.115V501H342.927V497.076H337.743V501H336.555V492H337.743V495.924H342.927V492ZM350.785 491.784C352.117 491.784 353.191 492.258 354.007 493.206C354.835 494.142 355.249 495.252 355.249 496.536C355.249 496.668 355.237 496.854 355.213 497.094H347.311C347.431 498.006 347.815 498.732 348.463 499.272C349.123 499.8 349.933 500.064 350.893 500.064C351.577 500.064 352.165 499.926 352.657 499.65C353.161 499.362 353.539 498.99 353.791 498.534L354.835 499.146C354.439 499.782 353.899 500.286 353.215 500.658C352.531 501.03 351.751 501.216 350.875 501.216C349.459 501.216 348.307 500.772 347.419 499.884C346.531 498.996 346.087 497.868 346.087 496.5C346.087 495.156 346.525 494.034 347.401 493.134C348.277 492.234 349.405 491.784 350.785 491.784ZM350.785 492.936C349.849 492.936 349.063 493.218 348.427 493.782C347.803 494.334 347.431 495.054 347.311 495.942H354.025C353.905 494.994 353.539 494.256 352.927 493.728C352.315 493.2 351.601 492.936 350.785 492.936ZM47.812 515H48.82V524H47.632V517.07L42.268 524H41.26V515H42.448V521.93L47.812 515ZM60.0263 524.216C58.6703 524.216 57.5423 523.766 56.6423 522.866C55.7423 521.954 55.2923 520.832 55.2923 519.5C55.2923 518.168 55.7423 517.052 56.6423 516.152C57.5423 515.24 58.6703 514.784 60.0263 514.784C60.9143 514.784 61.7123 515 62.4203 515.432C63.1283 515.852 63.6443 516.422 63.9683 517.142L62.9963 517.7C62.7563 517.16 62.3663 516.734 61.8263 516.422C61.2983 516.098 60.6983 515.936 60.0263 515.936C59.0303 515.936 58.1903 516.284 57.5063 516.98C56.8223 517.664 56.4803 518.504 56.4803 519.5C56.4803 520.496 56.8223 521.342 57.5063 522.038C58.1903 522.722 59.0303 523.064 60.0263 523.064C60.6983 523.064 61.2983 522.908 61.8263 522.596C62.3543 522.272 62.7683 521.84 63.0683 521.3L64.0583 521.876C63.6863 522.596 63.1403 523.166 62.4203 523.586C61.7003 524.006 60.9023 524.216 60.0263 524.216ZM69.672 524.216C68.376 524.216 67.296 523.79 66.432 522.938C65.568 522.074 65.136 520.958 65.136 519.59C65.136 518.054 65.364 516.878 65.82 516.062C66.276 515.234 67.2 514.484 68.592 513.812C68.856 513.68 69.204 513.524 69.636 513.344C70.08 513.164 70.41 513.02 70.626 512.912C70.854 512.804 71.1 512.666 71.364 512.498C71.628 512.318 71.826 512.12 71.958 511.904C72.09 511.688 72.174 511.43 72.21 511.13L73.146 511.67C73.098 511.958 73.002 512.228 72.858 512.48C72.714 512.732 72.564 512.936 72.408 513.092C72.264 513.248 72.03 513.422 71.706 513.614C71.394 513.794 71.148 513.926 70.968 514.01C70.8 514.082 70.5 514.208 70.068 514.388C69.648 514.568 69.366 514.688 69.222 514.748C68.382 515.108 67.764 515.486 67.368 515.882C66.972 516.266 66.69 516.77 66.522 517.394C66.93 516.854 67.446 516.458 68.07 516.206C68.706 515.942 69.324 515.81 69.924 515.81C71.124 515.81 72.114 516.206 72.894 516.998C73.686 517.778 74.082 518.78 74.082 520.004C74.082 521.216 73.662 522.224 72.822 523.028C71.994 523.82 70.944 524.216 69.672 524.216ZM69.672 523.028C70.608 523.028 71.376 522.746 71.976 522.182C72.588 521.606 72.894 520.88 72.894 520.004C72.894 519.116 72.606 518.39 72.03 517.826C71.466 517.25 70.71 516.962 69.762 516.962C68.91 516.962 68.136 517.232 67.44 517.772C66.744 518.3 66.396 519.008 66.396 519.896C66.396 520.808 66.708 521.558 67.332 522.146C67.968 522.734 68.748 523.028 69.672 523.028ZM80.0469 514.784C81.3789 514.784 82.4529 515.258 83.2689 516.206C84.0969 517.142 84.5109 518.252 84.5109 519.536C84.5109 519.668 84.4989 519.854 84.4749 520.094H76.5729C76.6929 521.006 77.0769 521.732 77.7249 522.272C78.3849 522.8 79.1949 523.064 80.1549 523.064C80.8389 523.064 81.4269 522.926 81.9189 522.65C82.4229 522.362 82.8009 521.99 83.0529 521.534L84.0969 522.146C83.7009 522.782 83.1609 523.286 82.4769 523.658C81.7929 524.03 81.0129 524.216 80.1369 524.216C78.7209 524.216 77.5689 523.772 76.6809 522.884C75.7929 521.996 75.3489 520.868 75.3489 519.5C75.3489 518.156 75.7869 517.034 76.6629 516.134C77.5389 515.234 78.6669 514.784 80.0469 514.784ZM80.0469 515.936C79.1109 515.936 78.3249 516.218 77.6889 516.782C77.0649 517.334 76.6929 518.054 76.5729 518.942H83.2869C83.1669 517.994 82.8009 517.256 82.1889 516.728C81.5769 516.2 80.8629 515.936 80.0469 515.936ZM96.3677 524H94.9277L91.2557 519.662V524H90.0677V519.662L86.3957 524H84.9557L88.9877 519.32L85.1357 515H86.5757L90.0677 518.996V515H91.2557V518.996L94.7477 515H96.1877L92.3357 519.32L96.3677 524ZM105.004 515H106.192V524H105.004V522.236C104.176 523.556 102.964 524.216 101.368 524.216C100.084 524.216 98.9859 523.76 98.0739 522.848C97.1739 521.936 96.7239 520.82 96.7239 519.5C96.7239 518.18 97.1739 517.064 98.0739 516.152C98.9859 515.24 100.084 514.784 101.368 514.784C102.964 514.784 104.176 515.444 105.004 516.764V515ZM98.9379 522.038C99.6219 522.722 100.462 523.064 101.458 523.064C102.454 523.064 103.294 522.722 103.978 522.038C104.662 521.342 105.004 520.496 105.004 519.5C105.004 518.504 104.662 517.664 103.978 516.98C103.294 516.284 102.454 515.936 101.458 515.936C100.462 515.936 99.6219 516.284 98.9379 516.98C98.2539 517.664 97.9119 518.504 97.9119 519.5C97.9119 520.496 98.2539 521.342 98.9379 522.038ZM115.187 515V516.152H112.001V524H110.813V516.152H107.627V515H115.187ZM120.289 518.42C121.129 518.42 121.837 518.684 122.413 519.212C123.001 519.728 123.295 520.394 123.295 521.21C123.295 522.026 123.001 522.698 122.413 523.226C121.837 523.742 121.129 524 120.289 524H116.635V515H117.823V518.42H120.289ZM120.289 522.848C120.793 522.848 121.219 522.698 121.567 522.398C121.927 522.098 122.107 521.702 122.107 521.21C122.107 520.718 121.927 520.322 121.567 520.022C121.219 519.722 120.793 519.572 120.289 519.572H117.823V522.848H120.289ZM126.894 522.47L125.814 526.52H124.734L125.454 522.47H126.894ZM140.111 515H141.299V524H140.111V520.076H134.927V524H133.739V515H134.927V518.924H140.111V515ZM147.969 514.784C149.301 514.784 150.375 515.258 151.191 516.206C152.019 517.142 152.433 518.252 152.433 519.536C152.433 519.668 152.421 519.854 152.397 520.094H144.495C144.615 521.006 144.999 521.732 145.647 522.272C146.307 522.8 147.117 523.064 148.077 523.064C148.761 523.064 149.349 522.926 149.841 522.65C150.345 522.362 150.723 521.99 150.975 521.534L152.019 522.146C151.623 522.782 151.083 523.286 150.399 523.658C149.715 524.03 148.935 524.216 148.059 524.216C146.643 524.216 145.491 523.772 144.603 522.884C143.715 521.996 143.271 520.868 143.271 519.5C143.271 518.156 143.709 517.034 144.585 516.134C145.461 515.234 146.589 514.784 147.969 514.784ZM147.969 515.936C147.033 515.936 146.247 516.218 145.611 516.782C144.987 517.334 144.615 518.054 144.495 518.942H151.209C151.089 517.994 150.723 517.256 150.111 516.728C149.499 516.2 148.785 515.936 147.969 515.936ZM163.467 519.374C164.511 519.77 165.033 520.49 165.033 521.534C165.033 522.278 164.739 522.914 164.151 523.442C163.575 523.958 162.747 524.216 161.667 524.216C159.855 524.216 158.667 523.496 158.103 522.056L159.111 521.462C159.483 522.53 160.335 523.064 161.667 523.064C162.363 523.064 162.897 522.914 163.269 522.614C163.653 522.314 163.845 521.93 163.845 521.462C163.845 521.042 163.689 520.7 163.377 520.436C163.065 520.172 162.645 520.04 162.117 520.04H160.803V518.888H161.757C162.273 518.888 162.675 518.762 162.963 518.51C163.263 518.246 163.413 517.886 163.413 517.43C163.413 516.998 163.239 516.644 162.891 516.368C162.543 516.08 162.075 515.936 161.487 515.936C160.359 515.936 159.609 516.386 159.237 517.286L158.247 516.71C158.847 515.426 159.927 514.784 161.487 514.784C162.435 514.784 163.191 515.036 163.755 515.54C164.319 516.032 164.601 516.638 164.601 517.358C164.601 518.282 164.223 518.954 163.467 519.374ZM174.578 515H175.766V524H174.578V522.236C173.75 523.556 172.538 524.216 170.942 524.216C169.658 524.216 168.56 523.76 167.648 522.848C166.748 521.936 166.298 520.82 166.298 519.5C166.298 518.18 166.748 517.064 167.648 516.152C168.56 515.24 169.658 514.784 170.942 514.784C172.538 514.784 173.75 515.444 174.578 516.764V515ZM168.512 522.038C169.196 522.722 170.036 523.064 171.032 523.064C172.028 523.064 172.868 522.722 173.552 522.038C174.236 521.342 174.578 520.496 174.578 519.5C174.578 518.504 174.236 517.664 173.552 516.98C172.868 516.284 172.028 515.936 171.032 515.936C170.036 515.936 169.196 516.284 168.512 516.98C167.828 517.664 167.486 518.504 167.486 519.5C167.486 520.496 167.828 521.342 168.512 522.038ZM185.841 515V524H184.653V516.152H179.469V524H178.281V515H185.841ZM195.734 515V524H194.546V516.152H190.478V520.166C190.478 521.666 190.19 522.698 189.614 523.262C189.05 523.826 188.27 524.072 187.274 524V522.884C187.958 522.956 188.462 522.794 188.786 522.398C189.122 522.002 189.29 521.258 189.29 520.166V515H195.734ZM205.99 515H207.178V524H205.99V522.236C205.162 523.556 203.95 524.216 202.354 524.216C201.07 524.216 199.972 523.76 199.06 522.848C198.16 521.936 197.71 520.82 197.71 519.5C197.71 518.18 198.16 517.064 199.06 516.152C199.972 515.24 201.07 514.784 202.354 514.784C203.95 514.784 205.162 515.444 205.99 516.764V515ZM199.924 522.038C200.608 522.722 201.448 523.064 202.444 523.064C203.44 523.064 204.28 522.722 204.964 522.038C205.648 521.342 205.99 520.496 205.99 519.5C205.99 518.504 205.648 517.664 204.964 516.98C204.28 516.284 203.44 515.936 202.444 515.936C201.448 515.936 200.608 516.284 199.924 516.98C199.24 517.664 198.898 518.504 198.898 519.5C198.898 520.496 199.24 521.342 199.924 522.038ZM216.174 515V516.152H212.988V524H211.8V516.152H208.614V515H216.174ZM224.173 515H225.181V524H223.993V517.07L218.629 524H217.621V515H218.809V521.93L224.173 515ZM233.418 519.374C234.402 519.734 234.894 520.436 234.894 521.48C234.894 522.212 234.648 522.818 234.156 523.298C233.676 523.766 232.98 524 232.068 524H227.694V515H231.708C232.584 515 233.262 515.228 233.742 515.684C234.222 516.128 234.462 516.704 234.462 517.412C234.462 518.312 234.114 518.966 233.418 519.374ZM231.708 516.152H228.882V518.888H231.708C232.752 518.888 233.274 518.42 233.274 517.484C233.274 517.064 233.136 516.74 232.86 516.512C232.596 516.272 232.212 516.152 231.708 516.152ZM232.068 522.848C232.596 522.848 232.998 522.722 233.274 522.47C233.562 522.218 233.706 521.864 233.706 521.408C233.706 520.988 233.562 520.658 233.274 520.418C232.998 520.166 232.596 520.04 232.068 520.04H228.882V522.848H232.068Z" fill="#CDFFE3" fill-opacity="0.6"></path><path d="M47.296 84.136L60.8 101H65.952V78.6H61.536V95.464L48.032 78.6H42.88V101H47.296V84.136ZM80.4918 97.768C77.4838 97.768 75.1478 96.456 74.5398 94.12H88.2998C88.4918 93.384 88.5878 92.648 88.5878 91.944C88.5878 87.624 84.9398 84.456 80.0758 84.456C74.7318 84.456 70.1878 87.656 70.1878 93C70.1878 97.8 74.1238 101.576 80.0758 101.576C83.0198 101.576 86.0278 100.584 88.1718 99.496L86.9237 96.168C84.6518 97.352 82.6678 97.768 80.4918 97.768ZM79.8198 88.008C82.3158 88.008 83.9158 89.128 84.3318 91.016H74.6358C75.2758 89.064 77.0677 88.008 79.8198 88.008ZM94.39 85H89.75L97.302 101H101.942L109.526 85H104.822L99.638 96.232L94.39 85ZM121.179 97.768C118.171 97.768 115.835 96.456 115.227 94.12H128.987C129.179 93.384 129.275 92.648 129.275 91.944C129.275 87.624 125.627 84.456 120.763 84.456C115.419 84.456 110.875 87.656 110.875 93C110.875 97.8 114.811 101.576 120.763 101.576C123.707 101.576 126.715 100.584 128.859 99.496L127.611 96.168C125.339 97.352 123.355 97.768 121.179 97.768ZM120.507 88.008C123.003 88.008 124.603 89.128 125.019 91.016H115.323C115.963 89.064 117.755 88.008 120.507 88.008ZM142.982 84.456C140.198 84.456 137.99 86.824 137.062 88.552V85H132.838V101H137.062V93.064C137.062 90.12 139.91 88.392 142.566 88.392C143.174 88.392 144.006 88.584 144.774 88.936L145.67 85.096C144.87 84.712 143.878 84.456 142.982 84.456ZM166.436 88.424C168.964 88.424 170.276 89.992 170.276 92.264V101H174.5V91.752C174.5 87.4 172.004 84.52 167.652 84.52C164.612 84.52 162.244 86.472 161.124 88.552V77.288H156.9V101H161.124V93.064C161.124 89.896 163.78 88.424 166.436 88.424ZM184.75 91.88C181.454 91.88 178.19 93.352 178.19 96.776C178.19 99.656 180.43 101.64 183.438 101.64C186.158 101.64 188.59 100.168 190.126 98.344C190.19 100.136 191.086 101.64 193.23 101.64C194.542 101.64 196.462 101 198.222 100.04L197.358 96.776C196.43 97.256 195.598 97.608 195.118 97.608C194.67 97.608 194.35 97.32 194.35 96.84V91.08C194.35 86.696 191.79 84.36 187.406 84.36C184.878 84.36 181.518 85.352 179.534 85.992L180.59 89.832C182.926 88.968 185.358 88.232 187.022 88.232C189.038 88.232 190.126 89.352 190.126 91.016V92.872C188.75 92.392 186.478 91.88 184.75 91.88ZM184.814 98.024C183.47 98.024 182.51 97.48 182.51 96.424C182.51 95.272 183.566 94.6 184.974 94.6C186.51 94.6 188.366 94.76 190.126 95.08V95.688C188.622 97.16 186.414 98.024 184.814 98.024ZM202.859 85H198.219L205.771 101H210.411L217.995 85H213.291L208.107 96.232L202.859 85ZM229.648 97.768C226.64 97.768 224.304 96.456 223.696 94.12H237.456C237.648 93.384 237.744 92.648 237.744 91.944C237.744 87.624 234.096 84.456 229.232 84.456C223.888 84.456 219.344 87.656 219.344 93C219.344 97.8 223.28 101.576 229.232 101.576C232.176 101.576 235.184 100.584 237.328 99.496L236.08 96.168C233.808 97.352 231.824 97.768 229.648 97.768ZM228.976 88.008C231.472 88.008 233.072 89.128 233.488 91.016H223.792C224.432 89.064 226.224 88.008 228.976 88.008ZM255.265 78.6H250.849V101H255.265V78.6ZM278.867 97.768C275.859 97.768 273.523 96.456 272.915 94.12H286.675C286.867 93.384 286.963 92.648 286.963 91.944C286.963 87.624 283.315 84.456 278.451 84.456C273.107 84.456 268.563 87.656 268.563 93C268.563 97.8 272.499 101.576 278.451 101.576C281.395 101.576 284.403 100.584 286.547 99.496L285.299 96.168C283.027 97.352 281.043 97.768 278.867 97.768ZM278.195 88.008C280.691 88.008 282.291 89.128 282.707 91.016H273.011C273.651 89.064 275.443 88.008 278.195 88.008ZM292.765 85H288.125L295.677 101H300.317L307.901 85H303.197L298.013 96.232L292.765 85ZM319.554 97.768C316.546 97.768 314.21 96.456 313.602 94.12H327.362C327.554 93.384 327.65 92.648 327.65 91.944C327.65 87.624 324.002 84.456 319.138 84.456C313.794 84.456 309.25 87.656 309.25 93C309.25 97.8 313.186 101.576 319.138 101.576C322.082 101.576 325.09 100.584 327.234 99.496L325.986 96.168C323.714 97.352 321.73 97.768 319.554 97.768ZM318.882 88.008C321.378 88.008 322.978 89.128 323.394 91.016H313.698C314.338 89.064 316.13 88.008 318.882 88.008ZM341.357 84.456C338.573 84.456 336.365 86.824 335.437 88.552V85H331.213V101H335.437V93.064C335.437 90.12 338.285 88.392 340.941 88.392C341.549 88.392 342.381 88.584 343.149 88.936L344.045 85.096C343.245 84.712 342.253 84.456 341.357 84.456ZM49.408 141.544C52.672 141.544 55.232 139.656 56.288 137.448V141H60.512V117H56.288V125.576C54.688 125.064 52.48 124.424 50.752 124.424C45.376 124.424 41.344 128.36 41.344 133.16C41.344 138.344 45.024 141.544 49.408 141.544ZM50.656 137.608C47.808 137.608 45.6 136.008 45.6 133.128C45.6 130.312 47.808 128.136 50.688 128.136C52.64 128.136 54.432 128.552 56.288 129.096V132.552C56.288 135.624 53.472 137.608 50.656 137.608ZM69.5303 125H65.3703V141H69.5303V125ZM64.9223 120.392C64.9223 121.8 66.0423 122.92 67.4503 122.92C68.8583 122.92 69.9783 121.8 69.9783 120.392C69.9783 119.016 68.8583 117.896 67.4503 117.896C66.0423 117.896 64.9223 119.016 64.9223 120.392ZM83.936 128.424C86.464 128.424 87.776 129.992 87.776 132.264V141H92V131.752C92 127.4 89.504 124.52 85.152 124.52C82.112 124.52 79.744 126.472 78.624 128.552V125H74.4V141H78.624V133.064C78.624 129.896 81.28 128.424 83.936 128.424ZM105.898 137.768C102.89 137.768 100.554 136.456 99.946 134.12H113.706C113.898 133.384 113.994 132.648 113.994 131.944C113.994 127.624 110.346 124.456 105.482 124.456C100.138 124.456 95.594 127.656 95.594 133C95.594 137.8 99.53 141.576 105.482 141.576C108.426 141.576 111.434 140.584 113.578 139.496L112.33 136.168C110.058 137.352 108.074 137.768 105.898 137.768ZM105.226 128.008C107.722 128.008 109.322 129.128 109.738 131.016H100.042C100.682 129.064 102.474 128.008 105.226 128.008ZM124.564 141.544C127.828 141.544 130.388 139.656 131.444 137.448V141H135.668V117H131.444V125.576C129.844 125.064 127.636 124.424 125.908 124.424C120.532 124.424 116.5 128.36 116.5 133.16C116.5 138.344 120.18 141.544 124.564 141.544ZM125.812 137.608C122.964 137.608 120.756 136.008 120.756 133.128C120.756 130.312 122.964 128.136 125.844 128.136C127.796 128.136 129.588 128.552 131.444 129.096V132.552C131.444 135.624 128.628 137.608 125.812 137.608ZM155.125 131.88C151.829 131.88 148.565 133.352 148.565 136.776C148.565 139.656 150.805 141.64 153.813 141.64C156.533 141.64 158.965 140.168 160.501 138.344C160.565 140.136 161.461 141.64 163.605 141.64C164.917 141.64 166.837 141 168.597 140.04L167.733 136.776C166.805 137.256 165.973 137.608 165.493 137.608C165.045 137.608 164.725 137.32 164.725 136.84V131.08C164.725 126.696 162.165 124.36 157.781 124.36C155.253 124.36 151.893 125.352 149.909 125.992L150.965 129.832C153.301 128.968 155.733 128.232 157.397 128.232C159.413 128.232 160.501 129.352 160.501 131.016V132.872C159.125 132.392 156.853 131.88 155.125 131.88ZM155.189 138.024C153.845 138.024 152.885 137.48 152.885 136.424C152.885 135.272 153.941 134.6 155.349 134.6C156.885 134.6 158.741 134.76 160.501 135.08V135.688C158.997 137.16 156.789 138.024 155.189 138.024ZM180.53 128.424C183.058 128.424 184.37 129.992 184.37 132.264V141H188.594V131.752C188.594 127.4 186.098 124.52 181.746 124.52C178.706 124.52 176.338 126.472 175.218 128.552V125H170.994V141H175.218V133.064C175.218 129.896 177.874 128.424 180.53 128.424ZM200.252 141.544C203.516 141.544 206.076 139.656 207.132 137.448V141H211.356V117H207.132V125.576C205.532 125.064 203.324 124.424 201.596 124.424C196.22 124.424 192.188 128.36 192.188 133.16C192.188 138.344 195.868 141.544 200.252 141.544ZM201.5 137.608C198.652 137.608 196.444 136.008 196.444 133.128C196.444 130.312 198.652 128.136 201.532 128.136C203.484 128.136 205.276 128.552 207.132 129.096V132.552C207.132 135.624 204.316 137.608 201.5 137.608ZM232.22 141.544C235.485 141.544 238.045 139.656 239.101 137.448V141H243.325V117H239.101V125.576C237.501 125.064 235.293 124.424 233.565 124.424C228.189 124.424 224.157 128.36 224.157 133.16C224.157 138.344 227.837 141.544 232.22 141.544ZM233.469 137.608C230.621 137.608 228.413 136.008 228.413 133.128C228.413 130.312 230.621 128.136 233.501 128.136C235.453 128.136 237.245 128.552 239.101 129.096V132.552C239.101 135.624 236.285 137.608 233.469 137.608ZM253.719 131.88C250.423 131.88 247.159 133.352 247.159 136.776C247.159 139.656 249.399 141.64 252.407 141.64C255.127 141.64 257.559 140.168 259.095 138.344C259.159 140.136 260.055 141.64 262.199 141.64C263.511 141.64 265.431 141 267.191 140.04L266.327 136.776C265.399 137.256 264.567 137.608 264.087 137.608C263.639 137.608 263.319 137.32 263.319 136.84V131.08C263.319 126.696 260.759 124.36 256.375 124.36C253.847 124.36 250.487 125.352 248.503 125.992L249.559 129.832C251.895 128.968 254.327 128.232 255.991 128.232C258.007 128.232 259.095 129.352 259.095 131.016V132.872C257.719 132.392 255.447 131.88 253.719 131.88ZM253.783 138.024C252.439 138.024 251.479 137.48 251.479 136.424C251.479 135.272 252.535 134.6 253.943 134.6C255.479 134.6 257.335 134.76 259.095 135.08V135.688C257.591 137.16 255.383 138.024 253.783 138.024ZM283.732 125.576C281.844 124.936 278.868 124.392 276.34 124.392C271.796 124.392 268.564 126.376 268.564 129.512C268.564 135.752 280.468 133.64 280.468 136.168C280.468 137.288 278.868 137.928 276.564 137.928C274.1 137.928 271.604 137.16 269.492 136.232L268.243 139.56C270.42 140.712 273.396 141.64 276.404 141.64C280.308 141.64 284.628 139.624 284.628 136.04C284.628 129.8 272.724 132.008 272.724 129.352C272.724 128.392 274.388 128.072 276.5 128.072C278.548 128.072 280.532 128.488 282.612 129.288L283.732 125.576ZM297.842 128.424C300.37 128.424 301.682 129.992 301.682 132.264V141H305.906V131.752C305.906 127.4 303.41 124.52 299.058 124.52C296.018 124.52 293.65 126.472 292.53 128.552V117.288H288.306V141H292.53V133.064C292.53 129.896 295.186 128.424 297.842 128.424ZM319.804 137.768C316.796 137.768 314.46 136.456 313.852 134.12H327.612C327.804 133.384 327.9 132.648 327.9 131.944C327.9 127.624 324.252 124.456 319.388 124.456C314.044 124.456 309.5 127.656 309.5 133C309.5 137.8 313.436 141.576 319.388 141.576C322.332 141.576 325.34 140.584 327.484 139.496L326.236 136.168C323.964 137.352 321.98 137.768 319.804 137.768ZM319.132 128.008C321.628 128.008 323.228 129.128 323.644 131.016H313.948C314.588 129.064 316.38 128.008 319.132 128.008ZM338.47 141.544C341.735 141.544 344.295 139.656 345.351 137.448V141H349.575V117H345.351V125.576C343.751 125.064 341.543 124.424 339.815 124.424C334.439 124.424 330.407 128.36 330.407 133.16C330.407 138.344 334.087 141.544 338.47 141.544ZM339.719 137.608C336.871 137.608 334.663 136.008 334.663 133.128C334.663 130.312 336.871 128.136 339.751 128.136C341.703 128.136 343.495 128.552 345.351 129.096V132.552C345.351 135.624 342.535 137.608 339.719 137.608Z" fill="#CDFFE3"></path><path d="M44.194 220L40.54 207.4H41.872L44.986 218.29L48.262 207.4H49.738L53.014 218.29L56.128 207.4H57.46L53.806 220H52.294L49 209.056L45.706 220H44.194ZM63.1204 210.784C64.2124 210.784 65.0704 211.12 65.6944 211.792C66.3304 212.452 66.6484 213.346 66.6484 214.474V220H65.4604V214.474C65.4604 213.67 65.2444 213.046 64.8124 212.602C64.3924 212.158 63.7924 211.936 63.0124 211.936C62.1484 211.936 61.4464 212.212 60.9064 212.764C60.3664 213.304 60.0964 214.144 60.0964 215.284V220H58.9084V207.4H60.0964V212.404C60.7684 211.324 61.7764 210.784 63.1204 210.784ZM75.2498 211H76.5098L72.6578 220.828C72.3098 221.716 71.8118 222.412 71.1638 222.916C70.5278 223.432 69.8138 223.66 69.0218 223.6V222.484C70.1018 222.604 70.9238 221.98 71.4878 220.612L71.7218 220.054L67.6898 211H68.9498L72.3338 218.542L75.2498 211ZM90.1855 207.4H91.3735V220H90.1855V218.236C89.3575 219.556 88.1455 220.216 86.5495 220.216C85.2655 220.216 84.1675 219.76 83.2555 218.848C82.3555 217.936 81.9055 216.82 81.9055 215.5C81.9055 214.18 82.3555 213.064 83.2555 212.152C84.1675 211.24 85.2655 210.784 86.5495 210.784C88.1455 210.784 89.3575 211.444 90.1855 212.764V207.4ZM84.1195 218.038C84.8035 218.722 85.6435 219.064 86.6395 219.064C87.6355 219.064 88.4755 218.722 89.1595 218.038C89.8435 217.342 90.1855 216.496 90.1855 215.5C90.1855 214.504 89.8435 213.664 89.1595 212.98C88.4755 212.284 87.6355 211.936 86.6395 211.936C85.6435 211.936 84.8035 212.284 84.1195 212.98C83.4355 213.664 83.0935 214.504 83.0935 215.5C83.0935 216.496 83.4355 217.342 84.1195 218.038ZM95.0949 208.84C94.9269 209.008 94.7229 209.092 94.4829 209.092C94.2429 209.092 94.0389 209.008 93.8709 208.84C93.7029 208.672 93.6189 208.468 93.6189 208.228C93.6189 207.988 93.7029 207.784 93.8709 207.616C94.0389 207.448 94.2429 207.364 94.4829 207.364C94.7229 207.364 94.9269 207.448 95.0949 207.616C95.2629 207.784 95.3469 207.988 95.3469 208.228C95.3469 208.468 95.2629 208.672 95.0949 208.84ZM93.8889 220V211H95.0769V220H93.8889ZM105.338 207.4H106.526V220H105.338V218.236C104.51 219.556 103.298 220.216 101.702 220.216C100.418 220.216 99.3199 219.76 98.4079 218.848C97.5079 217.936 97.0579 216.82 97.0579 215.5C97.0579 214.18 97.5079 213.064 98.4079 212.152C99.3199 211.24 100.418 210.784 101.702 210.784C103.298 210.784 104.51 211.444 105.338 212.764V207.4ZM99.2719 218.038C99.9559 218.722 100.796 219.064 101.792 219.064C102.788 219.064 103.628 218.722 104.312 218.038C104.996 217.342 105.338 216.496 105.338 215.5C105.338 214.504 104.996 213.664 104.312 212.98C103.628 212.284 102.788 211.936 101.792 211.936C100.796 211.936 99.9559 212.284 99.2719 212.98C98.5879 213.664 98.2459 214.504 98.2459 215.5C98.2459 216.496 98.5879 217.342 99.2719 218.038ZM120.021 211H121.281L117.429 220.828C117.081 221.716 116.583 222.412 115.935 222.916C115.299 223.432 114.585 223.66 113.793 223.6V222.484C114.873 222.604 115.695 221.98 116.259 220.612L116.493 220.054L112.461 211H113.721L117.105 218.542L120.021 211ZM129.907 218.866C128.995 219.766 127.879 220.216 126.559 220.216C125.239 220.216 124.117 219.766 123.193 218.866C122.281 217.954 121.825 216.832 121.825 215.5C121.825 214.168 122.281 213.052 123.193 212.152C124.117 211.24 125.239 210.784 126.559 210.784C127.879 210.784 128.995 211.24 129.907 212.152C130.831 213.052 131.293 214.168 131.293 215.5C131.293 216.832 130.831 217.954 129.907 218.866ZM124.039 218.038C124.723 218.722 125.563 219.064 126.559 219.064C127.555 219.064 128.395 218.722 129.079 218.038C129.763 217.342 130.105 216.496 130.105 215.5C130.105 214.504 129.763 213.664 129.079 212.98C128.395 212.284 127.555 211.936 126.559 211.936C125.563 211.936 124.723 212.284 124.039 212.98C123.355 213.664 123.013 214.504 123.013 215.5C123.013 216.496 123.355 217.342 124.039 218.038ZM139.617 211H140.805V220H139.617V218.596C138.945 219.676 137.937 220.216 136.593 220.216C135.501 220.216 134.637 219.886 134.001 219.226C133.377 218.554 133.065 217.654 133.065 216.526V211H134.253V216.526C134.253 217.33 134.463 217.954 134.883 218.398C135.315 218.842 135.921 219.064 136.701 219.064C137.565 219.064 138.267 218.794 138.807 218.254C139.347 217.702 139.617 216.856 139.617 215.716V211ZM155.559 207.4H156.747V220H155.559V218.236C154.731 219.556 153.519 220.216 151.923 220.216C150.639 220.216 149.541 219.76 148.629 218.848C147.729 217.936 147.279 216.82 147.279 215.5C147.279 214.18 147.729 213.064 148.629 212.152C149.541 211.24 150.639 210.784 151.923 210.784C153.519 210.784 154.731 211.444 155.559 212.764V207.4ZM149.493 218.038C150.177 218.722 151.017 219.064 152.013 219.064C153.009 219.064 153.849 218.722 154.533 218.038C155.217 217.342 155.559 216.496 155.559 215.5C155.559 214.504 155.217 213.664 154.533 212.98C153.849 212.284 153.009 211.936 152.013 211.936C151.017 211.936 150.177 212.284 149.493 212.98C148.809 213.664 148.467 214.504 148.467 215.5C148.467 216.496 148.809 217.342 149.493 218.038ZM166.804 218.866C165.892 219.766 164.776 220.216 163.456 220.216C162.136 220.216 161.014 219.766 160.09 218.866C159.178 217.954 158.722 216.832 158.722 215.5C158.722 214.168 159.178 213.052 160.09 212.152C161.014 211.24 162.136 210.784 163.456 210.784C164.776 210.784 165.892 211.24 166.804 212.152C167.728 213.052 168.19 214.168 168.19 215.5C168.19 216.832 167.728 217.954 166.804 218.866ZM160.936 218.038C161.62 218.722 162.46 219.064 163.456 219.064C164.452 219.064 165.292 218.722 165.976 218.038C166.66 217.342 167.002 216.496 167.002 215.5C167.002 214.504 166.66 213.664 165.976 212.98C165.292 212.284 164.452 211.936 163.456 211.936C162.46 211.936 161.62 212.284 160.936 212.98C160.252 213.664 159.91 214.504 159.91 215.5C159.91 216.496 160.252 217.342 160.936 218.038ZM175.884 208.84C175.716 209.008 175.512 209.092 175.272 209.092C175.032 209.092 174.828 209.008 174.66 208.84C174.492 208.672 174.408 208.468 174.408 208.228C174.408 207.988 174.492 207.784 174.66 207.616C174.828 207.448 175.032 207.364 175.272 207.364C175.512 207.364 175.716 207.448 175.884 207.616C176.052 207.784 176.136 207.988 176.136 208.228C176.136 208.468 176.052 208.672 175.884 208.84ZM174.678 220V211H175.866V220H174.678ZM183.157 212.152H180.565V217.606C180.565 218.098 180.661 218.452 180.853 218.668C181.045 218.872 181.333 218.98 181.717 218.992C182.101 218.992 182.581 218.98 183.157 218.956V220C181.897 220.192 180.949 220.102 180.313 219.73C179.689 219.358 179.377 218.65 179.377 217.606V212.152H177.487V211H179.377V208.84L180.565 208.48V211H183.157V212.152ZM187.657 216.58C187.657 215.992 187.777 215.458 188.017 214.978C188.257 214.486 188.545 214.072 188.881 213.736C189.217 213.4 189.553 213.076 189.889 212.764C190.225 212.452 190.513 212.11 190.753 211.738C190.993 211.354 191.113 210.946 191.113 210.514C191.113 209.818 190.873 209.296 190.393 208.948C189.925 208.588 189.319 208.408 188.575 208.408C187.099 208.408 186.187 209.014 185.839 210.226L184.777 209.632C185.053 208.828 185.533 208.222 186.217 207.814C186.913 207.394 187.699 207.184 188.575 207.184C189.631 207.184 190.525 207.478 191.257 208.066C192.001 208.642 192.373 209.458 192.373 210.514C192.373 211.03 192.253 211.51 192.013 211.954C191.773 212.398 191.485 212.788 191.149 213.124C190.813 213.448 190.477 213.772 190.141 214.096C189.805 214.42 189.517 214.798 189.277 215.23C189.037 215.65 188.917 216.1 188.917 216.58H187.657ZM188.989 219.892C188.797 220.084 188.563 220.18 188.287 220.18C188.011 220.18 187.777 220.084 187.585 219.892C187.393 219.7 187.297 219.466 187.297 219.19C187.297 218.914 187.393 218.68 187.585 218.488C187.777 218.296 188.011 218.2 188.287 218.2C188.563 218.2 188.797 218.296 188.989 218.488C189.181 218.68 189.277 218.914 189.277 219.19C189.277 219.466 189.181 219.7 188.989 219.892Z" fill="#CDFFE3"></path></svg> 