<?xml version="1.0" encoding="UTF-8"?> <svg xmlns="http://www.w3.org/2000/svg" width="400" height="600" viewBox="0 0 400 600" fill="none"> <rect width="400" height="600" rx="20" fill="#EEBF38"></rect> <path d="M49.504 488.4V490.776H46.102V501H43.618V490.776H40.234V488.4H49.504ZM56.8159 499.884C55.8919 500.796 54.7639 501.252 53.4319 501.252C52.0999 501.252 50.9719 500.796 50.0479 499.884C49.1359 498.96 48.6799 497.832 48.6799 496.5C48.6799 495.168 49.1359 494.046 50.0479 493.134C50.9719 492.21 52.0999 491.748 53.4319 491.748C54.7639 491.748 55.8919 492.21 56.8159 493.134C57.7399 494.046 58.2019 495.168 58.2019 496.5C58.2019 497.832 57.7399 498.96 56.8159 499.884ZM51.6859 498.282C52.1539 498.75 52.7359 498.984 53.4319 498.984C54.1279 498.984 54.7099 498.75 55.1779 498.282C55.6459 497.814 55.8799 497.22 55.8799 496.5C55.8799 495.78 55.6459 495.186 55.1779 494.718C54.7099 494.25 54.1279 494.016 53.4319 494.016C52.7359 494.016 52.1539 494.25 51.6859 494.718C51.2299 495.186 51.0019 495.78 51.0019 496.5C51.0019 497.22 51.2299 497.814 51.6859 498.282ZM74.2894 491.748C75.3214 491.748 76.1434 492.084 76.7554 492.756C77.3794 493.428 77.6914 494.328 77.6914 495.456V501H75.3694V495.618C75.3694 495.078 75.2374 494.658 74.9734 494.358C74.7094 494.058 74.3374 493.908 73.8574 493.908C73.3294 493.908 72.9154 494.082 72.6154 494.43C72.3274 494.778 72.1834 495.282 72.1834 495.942V501H69.8614V495.618C69.8614 495.078 69.7294 494.658 69.4654 494.358C69.2014 494.058 68.8294 493.908 68.3494 493.908C67.8334 493.908 67.4194 494.082 67.1074 494.43C66.8074 494.778 66.6574 495.282 66.6574 495.942V501H64.3354V492H66.6574V492.954C67.1974 492.15 68.0314 491.748 69.1594 491.748C70.2634 491.748 71.0794 492.18 71.6074 493.044C72.2074 492.18 73.1014 491.748 74.2894 491.748ZM86.5036 492H88.8256V501H86.5036V499.938C85.8076 500.814 84.8296 501.252 83.5696 501.252C82.3696 501.252 81.3376 500.796 80.4736 499.884C79.6216 498.96 79.1956 497.832 79.1956 496.5C79.1956 495.168 79.6216 494.046 80.4736 493.134C81.3376 492.21 82.3696 491.748 83.5696 491.748C84.8296 491.748 85.8076 492.186 86.5036 493.062V492ZM82.2196 498.336C82.6876 498.804 83.2816 499.038 84.0016 499.038C84.7216 499.038 85.3156 498.804 85.7836 498.336C86.2636 497.856 86.5036 497.244 86.5036 496.5C86.5036 495.756 86.2636 495.15 85.7836 494.682C85.3156 494.202 84.7216 493.962 84.0016 493.962C83.2816 493.962 82.6876 494.202 82.2196 494.682C81.7516 495.15 81.5176 495.756 81.5176 496.5C81.5176 497.244 81.7516 497.856 82.2196 498.336ZM99.2291 501H96.5291L93.2531 496.914V501H90.9311V488.4H93.2531V495.96L96.3491 492H99.1211L95.5031 496.446L99.2291 501ZM101.7 497.454C102.012 498.582 102.858 499.146 104.238 499.146C105.126 499.146 105.798 498.846 106.254 498.246L108.126 499.326C107.238 500.61 105.93 501.252 104.202 501.252C102.714 501.252 101.52 500.802 100.62 499.902C99.7198 499.002 99.2698 497.868 99.2698 496.5C99.2698 495.144 99.7138 494.016 100.602 493.116C101.49 492.204 102.63 491.748 104.022 491.748C105.342 491.748 106.428 492.204 107.28 493.116C108.144 494.028 108.576 495.156 108.576 496.5C108.576 496.8 108.546 497.118 108.486 497.454H101.7ZM101.664 495.654H106.254C106.122 495.042 105.846 494.586 105.426 494.286C105.018 493.986 104.55 493.836 104.022 493.836C103.398 493.836 102.882 493.998 102.474 494.322C102.066 494.634 101.796 495.078 101.664 495.654ZM121.537 492H123.859V501H121.537V499.938C120.841 500.814 119.863 501.252 118.603 501.252C117.403 501.252 116.371 500.796 115.507 499.884C114.655 498.96 114.229 497.832 114.229 496.5C114.229 495.168 114.655 494.046 115.507 493.134C116.371 492.21 117.403 491.748 118.603 491.748C119.863 491.748 120.841 492.186 121.537 493.062V492ZM117.253 498.336C117.721 498.804 118.315 499.038 119.035 499.038C119.755 499.038 120.349 498.804 120.817 498.336C121.297 497.856 121.537 497.244 121.537 496.5C121.537 495.756 121.297 495.15 120.817 494.682C120.349 494.202 119.755 493.962 119.035 493.962C118.315 493.962 117.721 494.202 117.253 494.682C116.785 495.15 116.551 495.756 116.551 496.5C116.551 497.244 116.785 497.856 117.253 498.336ZM135.306 490.38C134.034 490.284 133.398 490.794 133.398 491.91V492H135.306V494.232H133.398V501H131.076V494.232H129.78V492H131.076V491.91C131.076 490.638 131.43 489.672 132.138 489.012C132.846 488.352 133.902 488.064 135.306 488.148V490.38ZM143.705 499.884C142.781 500.796 141.653 501.252 140.321 501.252C138.989 501.252 137.861 500.796 136.937 499.884C136.025 498.96 135.569 497.832 135.569 496.5C135.569 495.168 136.025 494.046 136.937 493.134C137.861 492.21 138.989 491.748 140.321 491.748C141.653 491.748 142.781 492.21 143.705 493.134C144.629 494.046 145.091 495.168 145.091 496.5C145.091 497.832 144.629 498.96 143.705 499.884ZM138.575 498.282C139.043 498.75 139.625 498.984 140.321 498.984C141.017 498.984 141.599 498.75 142.067 498.282C142.535 497.814 142.769 497.22 142.769 496.5C142.769 495.78 142.535 495.186 142.067 494.718C141.599 494.25 141.017 494.016 140.321 494.016C139.625 494.016 139.043 494.25 138.575 494.718C138.119 495.186 137.891 495.78 137.891 496.5C137.891 497.22 138.119 497.814 138.575 498.282ZM149.046 493.548C149.262 492.972 149.616 492.54 150.108 492.252C150.612 491.964 151.17 491.82 151.782 491.82V494.412C151.074 494.328 150.438 494.472 149.874 494.844C149.322 495.216 149.046 495.834 149.046 496.698V501H146.724V492H149.046V493.548ZM158.534 494.232H156.5V497.976C156.5 498.288 156.578 498.516 156.734 498.66C156.89 498.804 157.118 498.888 157.418 498.912C157.718 498.924 158.09 498.918 158.534 498.894V501C156.938 501.18 155.81 501.03 155.15 500.55C154.502 500.07 154.178 499.212 154.178 497.976V494.232H152.612V492H154.178V490.182L156.5 489.48V492H158.534V494.232ZM166.252 492H168.574V501H166.252V499.992C165.688 500.832 164.794 501.252 163.57 501.252C162.586 501.252 161.77 500.922 161.122 500.262C160.486 499.602 160.168 498.69 160.168 497.526V492H162.49V497.238C162.49 497.838 162.652 498.3 162.976 498.624C163.3 498.936 163.732 499.092 164.272 499.092C164.872 499.092 165.352 498.906 165.712 498.534C166.072 498.162 166.252 497.604 166.252 496.86V492ZM175.705 491.748C176.689 491.748 177.499 492.078 178.135 492.738C178.783 493.398 179.107 494.31 179.107 495.474V501H176.785V495.762C176.785 495.162 176.623 494.706 176.299 494.394C175.975 494.07 175.543 493.908 175.003 493.908C174.403 493.908 173.923 494.094 173.563 494.466C173.203 494.838 173.023 495.396 173.023 496.14V501H170.701V492H173.023V493.008C173.587 492.168 174.481 491.748 175.705 491.748ZM183.051 497.454C183.363 498.582 184.209 499.146 185.589 499.146C186.477 499.146 187.149 498.846 187.605 498.246L189.477 499.326C188.589 500.61 187.281 501.252 185.553 501.252C184.065 501.252 182.871 500.802 181.971 499.902C181.071 499.002 180.621 497.868 180.621 496.5C180.621 495.144 181.065 494.016 181.953 493.116C182.841 492.204 183.981 491.748 185.373 491.748C186.693 491.748 187.779 492.204 188.631 493.116C189.495 494.028 189.927 495.156 189.927 496.5C189.927 496.8 189.897 497.118 189.837 497.454H183.051ZM183.015 495.654H187.605C187.473 495.042 187.197 494.586 186.777 494.286C186.369 493.986 185.901 493.836 185.373 493.836C184.749 493.836 184.233 493.998 183.825 494.322C183.417 494.634 183.147 495.078 183.015 495.654ZM202.888 492H205.21V501H202.888V499.938C202.192 500.814 201.214 501.252 199.954 501.252C198.754 501.252 197.722 500.796 196.858 499.884C196.006 498.96 195.58 497.832 195.58 496.5C195.58 495.168 196.006 494.046 196.858 493.134C197.722 492.21 198.754 491.748 199.954 491.748C201.214 491.748 202.192 492.186 202.888 493.062V492ZM198.604 498.336C199.072 498.804 199.666 499.038 200.386 499.038C201.106 499.038 201.7 498.804 202.168 498.336C202.648 497.856 202.888 497.244 202.888 496.5C202.888 495.756 202.648 495.15 202.168 494.682C201.7 494.202 201.106 493.962 200.386 493.962C199.666 493.962 199.072 494.202 198.604 494.682C198.136 495.15 197.902 495.756 197.902 496.5C197.902 497.244 198.136 497.856 198.604 498.336ZM211.6 501.252C210.244 501.252 209.11 500.796 208.198 499.884C207.298 498.972 206.848 497.844 206.848 496.5C206.848 495.156 207.298 494.028 208.198 493.116C209.11 492.204 210.244 491.748 211.6 491.748C212.476 491.748 213.274 491.958 213.994 492.378C214.714 492.798 215.26 493.362 215.632 494.07L213.634 495.24C213.454 494.868 213.178 494.574 212.806 494.358C212.446 494.142 212.038 494.034 211.582 494.034C210.886 494.034 210.31 494.268 209.854 494.736C209.398 495.192 209.17 495.78 209.17 496.5C209.17 497.208 209.398 497.796 209.854 498.264C210.31 498.72 210.886 498.948 211.582 498.948C212.05 498.948 212.464 498.846 212.824 498.642C213.196 498.426 213.472 498.132 213.652 497.76L215.668 498.912C215.272 499.62 214.714 500.19 213.994 500.622C213.274 501.042 212.476 501.252 211.6 501.252ZM221.039 501.252C219.683 501.252 218.549 500.796 217.637 499.884C216.737 498.972 216.287 497.844 216.287 496.5C216.287 495.156 216.737 494.028 217.637 493.116C218.549 492.204 219.683 491.748 221.039 491.748C221.915 491.748 222.713 491.958 223.433 492.378C224.153 492.798 224.699 493.362 225.071 494.07L223.073 495.24C222.893 494.868 222.617 494.574 222.245 494.358C221.885 494.142 221.477 494.034 221.021 494.034C220.325 494.034 219.749 494.268 219.293 494.736C218.837 495.192 218.609 495.78 218.609 496.5C218.609 497.208 218.837 497.796 219.293 498.264C219.749 498.72 220.325 498.948 221.021 498.948C221.489 498.948 221.903 498.846 222.263 498.642C222.635 498.426 222.911 498.132 223.091 497.76L225.107 498.912C224.711 499.62 224.153 500.19 223.433 500.622C222.713 501.042 221.915 501.252 221.039 501.252ZM227.487 490.92C227.103 490.92 226.767 490.782 226.479 490.506C226.203 490.218 226.065 489.882 226.065 489.498C226.065 489.114 226.203 488.778 226.479 488.49C226.767 488.202 227.103 488.058 227.487 488.058C227.883 488.058 228.219 488.202 228.495 488.49C228.783 488.778 228.927 489.114 228.927 489.498C228.927 489.882 228.783 490.218 228.495 490.506C228.219 490.782 227.883 490.92 227.487 490.92ZM226.335 501V492H228.657V501H226.335ZM237.605 488.4H239.927V501H237.605V499.938C236.921 500.814 235.949 501.252 234.689 501.252C233.477 501.252 232.439 500.796 231.575 499.884C230.723 498.96 230.297 497.832 230.297 496.5C230.297 495.168 230.723 494.046 231.575 493.134C232.439 492.21 233.477 491.748 234.689 491.748C235.949 491.748 236.921 492.186 237.605 493.062V488.4ZM233.321 498.336C233.801 498.804 234.401 499.038 235.121 499.038C235.841 499.038 236.435 498.804 236.903 498.336C237.371 497.856 237.605 497.244 237.605 496.5C237.605 495.756 237.371 495.15 236.903 494.682C236.435 494.202 235.841 493.962 235.121 493.962C234.401 493.962 233.801 494.202 233.321 494.682C232.853 495.15 232.619 495.756 232.619 496.5C232.619 497.244 232.853 497.856 233.321 498.336ZM244.012 497.454C244.324 498.582 245.17 499.146 246.55 499.146C247.438 499.146 248.11 498.846 248.566 498.246L250.438 499.326C249.55 500.61 248.242 501.252 246.514 501.252C245.026 501.252 243.832 500.802 242.932 499.902C242.032 499.002 241.582 497.868 241.582 496.5C241.582 495.144 242.026 494.016 242.914 493.116C243.802 492.204 244.942 491.748 246.334 491.748C247.654 491.748 248.74 492.204 249.592 493.116C250.456 494.028 250.888 495.156 250.888 496.5C250.888 496.8 250.858 497.118 250.798 497.454H244.012ZM243.976 495.654H248.566C248.434 495.042 248.158 494.586 247.738 494.286C247.33 493.986 246.862 493.836 246.334 493.836C245.71 493.836 245.194 493.998 244.786 494.322C244.378 494.634 244.108 495.078 243.976 495.654ZM257.513 491.748C258.497 491.748 259.307 492.078 259.943 492.738C260.591 493.398 260.915 494.31 260.915 495.474V501H258.593V495.762C258.593 495.162 258.431 494.706 258.107 494.394C257.783 494.07 257.351 493.908 256.811 493.908C256.211 493.908 255.731 494.094 255.371 494.466C255.011 494.838 254.831 495.396 254.831 496.14V501H252.509V492H254.831V493.008C255.395 492.168 256.289 491.748 257.513 491.748ZM268.046 494.232H266.012V497.976C266.012 498.288 266.09 498.516 266.246 498.66C266.402 498.804 266.63 498.888 266.93 498.912C267.23 498.924 267.602 498.918 268.046 498.894V501C266.45 501.18 265.322 501.03 264.662 500.55C264.014 500.07 263.69 499.212 263.69 497.976V494.232H262.124V492H263.69V490.182L266.012 489.48V492H268.046V494.232ZM276.242 492H278.564V501H276.242V499.938C275.546 500.814 274.568 501.252 273.308 501.252C272.108 501.252 271.076 500.796 270.212 499.884C269.36 498.96 268.934 497.832 268.934 496.5C268.934 495.168 269.36 494.046 270.212 493.134C271.076 492.21 272.108 491.748 273.308 491.748C274.568 491.748 275.546 492.186 276.242 493.062V492ZM271.958 498.336C272.426 498.804 273.02 499.038 273.74 499.038C274.46 499.038 275.054 498.804 275.522 498.336C276.002 497.856 276.242 497.244 276.242 496.5C276.242 495.756 276.002 495.15 275.522 494.682C275.054 494.202 274.46 493.962 273.74 493.962C273.02 493.962 272.426 494.202 271.958 494.682C271.49 495.15 271.256 495.756 271.256 496.5C271.256 497.244 271.49 497.856 271.958 498.336ZM280.669 501V487.86H282.991V501H280.669ZM285.117 501V487.86H287.439V501H285.117ZM295.432 492H297.916L294.64 501C294.172 502.296 293.548 503.232 292.768 503.808C292 504.396 291.04 504.66 289.888 504.6V502.44C290.512 502.452 291.004 502.32 291.364 502.044C291.736 501.768 292.03 501.324 292.246 500.712L288.556 492H291.094L293.434 498.048L295.432 492ZM303.899 496.014V494.862H312.899V496.014H303.899ZM45.454 524.216C44.098 524.216 42.97 523.766 42.07 522.866C41.17 521.954 40.72 520.832 40.72 519.5C40.72 518.168 41.17 517.052 42.07 516.152C42.97 515.24 44.098 514.784 45.454 514.784C46.342 514.784 47.14 515 47.848 515.432C48.556 515.852 49.072 516.422 49.396 517.142L48.424 517.7C48.184 517.16 47.794 516.734 47.254 516.422C46.726 516.098 46.126 515.936 45.454 515.936C44.458 515.936 43.618 516.284 42.934 516.98C42.25 517.664 41.908 518.504 41.908 519.5C41.908 520.496 42.25 521.342 42.934 522.038C43.618 522.722 44.458 523.064 45.454 523.064C46.126 523.064 46.726 522.908 47.254 522.596C47.782 522.272 48.196 521.84 48.496 521.3L49.486 521.876C49.114 522.596 48.568 523.166 47.848 523.586C47.128 524.006 46.33 524.216 45.454 524.216ZM58.3959 515V524H57.2079V516.152H53.1399V520.166C53.1399 521.666 52.8519 522.698 52.2759 523.262C51.7119 523.826 50.9319 524.072 49.9359 524V522.884C50.6199 522.956 51.1239 522.794 51.4479 522.398C51.7839 522.002 51.9519 521.258 51.9519 520.166V515H58.3959ZM67.3923 515H68.6523L64.8003 524.828C64.4523 525.716 63.9543 526.412 63.3063 526.916C62.6703 527.432 61.9563 527.66 61.1643 527.6V526.484C62.2443 526.604 63.0663 525.98 63.6303 524.612L63.8643 524.054L59.8323 515H61.0923L64.4763 522.542L67.3923 515ZM75.9201 515H77.1081V524H75.9201V520.58C75.2241 520.94 74.3661 521.12 73.3461 521.12C72.1701 521.12 71.2701 520.85 70.6461 520.31C70.0341 519.758 69.7281 518.948 69.7281 517.88V515H70.9161V517.88C70.9161 518.636 71.1141 519.182 71.5101 519.518C71.9061 519.842 72.5061 520.004 73.3101 520.004C74.2461 520.004 75.1161 519.83 75.9201 519.482V515ZM87.373 515H88.561V524H87.373V522.236C86.545 523.556 85.333 524.216 83.737 524.216C82.453 524.216 81.355 523.76 80.443 522.848C79.543 521.936 79.093 520.82 79.093 519.5C79.093 518.18 79.543 517.064 80.443 516.152C81.355 515.24 82.453 514.784 83.737 514.784C85.333 514.784 86.545 515.444 87.373 516.764V515ZM81.307 522.038C81.991 522.722 82.831 523.064 83.827 523.064C84.823 523.064 85.663 522.722 86.347 522.038C87.031 521.342 87.373 520.496 87.373 519.5C87.373 518.504 87.031 517.664 86.347 516.98C85.663 516.284 84.823 515.936 83.827 515.936C82.831 515.936 81.991 516.284 81.307 516.98C80.623 517.664 80.281 518.504 80.281 519.5C80.281 520.496 80.623 521.342 81.307 522.038ZM92.5164 513.56V512.516H97.1964V513.56H92.5164ZM97.6284 515H98.6364V524H97.4484V517.07L92.0844 524H91.0764V515H92.2644V521.93L97.6284 515ZM107.521 515H108.709V524H107.521V520.076H102.337V524H101.149V515H102.337V518.924H107.521V515ZM118.763 522.866C117.851 523.766 116.735 524.216 115.415 524.216C114.095 524.216 112.973 523.766 112.049 522.866C111.137 521.954 110.681 520.832 110.681 519.5C110.681 518.168 111.137 517.052 112.049 516.152C112.973 515.24 114.095 514.784 115.415 514.784C116.735 514.784 117.851 515.24 118.763 516.152C119.687 517.052 120.149 518.168 120.149 519.5C120.149 520.832 119.687 521.954 118.763 522.866ZM112.895 522.038C113.579 522.722 114.419 523.064 115.415 523.064C116.411 523.064 117.251 522.722 117.935 522.038C118.619 521.342 118.961 520.496 118.961 519.5C118.961 518.504 118.619 517.664 117.935 516.98C117.251 516.284 116.411 515.936 115.415 515.936C114.419 515.936 113.579 516.284 112.895 516.98C112.211 517.664 111.869 518.504 111.869 519.5C111.869 520.496 112.211 521.342 112.895 522.038ZM131.461 514.784C132.745 514.784 133.837 515.24 134.737 516.152C135.649 517.064 136.105 518.18 136.105 519.5C136.105 520.82 135.649 521.936 134.737 522.848C133.837 523.76 132.745 524.216 131.461 524.216C129.865 524.216 128.653 523.556 127.825 522.236V527.6H126.637V515H127.825V516.764C128.653 515.444 129.865 514.784 131.461 514.784ZM128.851 522.038C129.535 522.722 130.375 523.064 131.371 523.064C132.367 523.064 133.207 522.722 133.891 522.038C134.575 521.342 134.917 520.496 134.917 519.5C134.917 518.504 134.575 517.664 133.891 516.98C133.207 516.284 132.367 515.936 131.371 515.936C130.375 515.936 129.535 516.284 128.851 516.98C128.167 517.664 127.825 518.504 127.825 519.5C127.825 520.496 128.167 521.342 128.851 522.038ZM145.82 515H147.008V524H145.82V522.236C144.992 523.556 143.78 524.216 142.184 524.216C140.9 524.216 139.802 523.76 138.89 522.848C137.99 521.936 137.54 520.82 137.54 519.5C137.54 518.18 137.99 517.064 138.89 516.152C139.802 515.24 140.9 514.784 142.184 514.784C143.78 514.784 144.992 515.444 145.82 516.764V515ZM139.754 522.038C140.438 522.722 141.278 523.064 142.274 523.064C143.27 523.064 144.11 522.722 144.794 522.038C145.478 521.342 145.82 520.496 145.82 519.5C145.82 518.504 145.478 517.664 144.794 516.98C144.11 516.284 143.27 515.936 142.274 515.936C141.278 515.936 140.438 516.284 139.754 516.98C139.07 517.664 138.728 518.504 138.728 519.5C138.728 520.496 139.07 521.342 139.754 522.038ZM154.168 519.374C155.212 519.77 155.734 520.49 155.734 521.534C155.734 522.278 155.44 522.914 154.852 523.442C154.276 523.958 153.448 524.216 152.368 524.216C150.556 524.216 149.368 523.496 148.804 522.056L149.812 521.462C150.184 522.53 151.036 523.064 152.368 523.064C153.064 523.064 153.598 522.914 153.97 522.614C154.354 522.314 154.546 521.93 154.546 521.462C154.546 521.042 154.39 520.7 154.078 520.436C153.766 520.172 153.346 520.04 152.818 520.04H151.504V518.888H152.458C152.974 518.888 153.376 518.762 153.664 518.51C153.964 518.246 154.114 517.886 154.114 517.43C154.114 516.998 153.94 516.644 153.592 516.368C153.244 516.08 152.776 515.936 152.188 515.936C151.06 515.936 150.31 516.386 149.938 517.286L148.948 516.71C149.548 515.426 150.628 514.784 152.188 514.784C153.136 514.784 153.892 515.036 154.456 515.54C155.02 516.032 155.302 516.638 155.302 517.358C155.302 518.282 154.924 518.954 154.168 519.374ZM161.535 524.216C160.239 524.216 159.159 523.79 158.295 522.938C157.431 522.074 156.999 520.958 156.999 519.59C156.999 518.054 157.227 516.878 157.683 516.062C158.139 515.234 159.063 514.484 160.455 513.812C160.719 513.68 161.067 513.524 161.499 513.344C161.943 513.164 162.273 513.02 162.489 512.912C162.717 512.804 162.963 512.666 163.227 512.498C163.491 512.318 163.689 512.12 163.821 511.904C163.953 511.688 164.037 511.43 164.073 511.13L165.009 511.67C164.961 511.958 164.865 512.228 164.721 512.48C164.577 512.732 164.427 512.936 164.271 513.092C164.127 513.248 163.893 513.422 163.569 513.614C163.257 513.794 163.011 513.926 162.831 514.01C162.663 514.082 162.363 514.208 161.931 514.388C161.511 514.568 161.229 514.688 161.085 514.748C160.245 515.108 159.627 515.486 159.231 515.882C158.835 516.266 158.553 516.77 158.385 517.394C158.793 516.854 159.309 516.458 159.933 516.206C160.569 515.942 161.187 515.81 161.787 515.81C162.987 515.81 163.977 516.206 164.757 516.998C165.549 517.778 165.945 518.78 165.945 520.004C165.945 521.216 165.525 522.224 164.685 523.028C163.857 523.82 162.807 524.216 161.535 524.216ZM161.535 523.028C162.471 523.028 163.239 522.746 163.839 522.182C164.451 521.606 164.757 520.88 164.757 520.004C164.757 519.116 164.469 518.39 163.893 517.826C163.329 517.25 162.573 516.962 161.625 516.962C160.773 516.962 159.999 517.232 159.303 517.772C158.607 518.3 158.259 519.008 158.259 519.896C158.259 520.808 158.571 521.558 159.195 522.146C159.831 522.734 160.611 523.028 161.535 523.028ZM175.294 522.866C174.382 523.766 173.266 524.216 171.946 524.216C170.626 524.216 169.504 523.766 168.58 522.866C167.668 521.954 167.212 520.832 167.212 519.5C167.212 518.168 167.668 517.052 168.58 516.152C169.504 515.24 170.626 514.784 171.946 514.784C173.266 514.784 174.382 515.24 175.294 516.152C176.218 517.052 176.68 518.168 176.68 519.5C176.68 520.832 176.218 521.954 175.294 522.866ZM169.426 522.038C170.11 522.722 170.95 523.064 171.946 523.064C172.942 523.064 173.782 522.722 174.466 522.038C175.15 521.342 175.492 520.496 175.492 519.5C175.492 518.504 175.15 517.664 174.466 516.98C173.782 516.284 172.942 515.936 171.946 515.936C170.95 515.936 170.11 516.284 169.426 516.98C168.742 517.664 168.4 518.504 168.4 519.5C168.4 520.496 168.742 521.342 169.426 522.038ZM184.428 515V516.152H179.856V524H178.668V515H184.428ZM193.264 515H194.452V524H193.264V522.236C192.436 523.556 191.224 524.216 189.628 524.216C188.344 524.216 187.246 523.76 186.334 522.848C185.434 521.936 184.984 520.82 184.984 519.5C184.984 518.18 185.434 517.064 186.334 516.152C187.246 515.24 188.344 514.784 189.628 514.784C191.224 514.784 192.436 515.444 193.264 516.764V515ZM187.198 522.038C187.882 522.722 188.722 523.064 189.718 523.064C190.714 523.064 191.554 522.722 192.238 522.038C192.922 521.342 193.264 520.496 193.264 519.5C193.264 518.504 192.922 517.664 192.238 516.98C191.554 516.284 190.714 515.936 189.718 515.936C188.722 515.936 187.882 516.284 187.198 516.98C186.514 517.664 186.172 518.504 186.172 519.5C186.172 520.496 186.514 521.342 187.198 522.038ZM203.447 515V516.152H200.261V524H199.073V516.152H195.887V515H203.447ZM208.701 514.784C210.033 514.784 211.107 515.258 211.923 516.206C212.751 517.142 213.165 518.252 213.165 519.536C213.165 519.668 213.153 519.854 213.129 520.094H205.227C205.347 521.006 205.731 521.732 206.379 522.272C207.039 522.8 207.849 523.064 208.809 523.064C209.493 523.064 210.081 522.926 210.573 522.65C211.077 522.362 211.455 521.99 211.707 521.534L212.751 522.146C212.355 522.782 211.815 523.286 211.131 523.658C210.447 524.03 209.667 524.216 208.791 524.216C207.375 524.216 206.223 523.772 205.335 522.884C204.447 521.996 204.003 520.868 204.003 519.5C204.003 518.156 204.441 517.034 205.317 516.134C206.193 515.234 207.321 514.784 208.701 514.784ZM208.701 515.936C207.765 515.936 206.979 516.218 206.343 516.782C205.719 517.334 205.347 518.054 205.227 518.942H211.941C211.821 517.994 211.455 517.256 210.843 516.728C210.231 516.2 209.517 515.936 208.701 515.936ZM221.183 515V516.152H217.997V524H216.809V516.152H213.623V515H221.183ZM226.285 518.42C227.125 518.42 227.833 518.684 228.409 519.212C228.997 519.728 229.291 520.394 229.291 521.21C229.291 522.026 228.997 522.698 228.409 523.226C227.833 523.742 227.125 524 226.285 524H222.631V515H223.819V518.42H226.285ZM226.285 522.848C226.789 522.848 227.215 522.698 227.563 522.398C227.923 522.098 228.103 521.702 228.103 521.21C228.103 520.718 227.923 520.322 227.563 520.022C227.215 519.722 226.789 519.572 226.285 519.572H223.819V522.848H226.285Z" fill="#FFFAED"></path> <path d="M47.296 84.136L60.8 101H65.952V78.6H61.536V95.464L48.032 78.6H42.88V101H47.296V84.136ZM80.4918 97.768C77.4838 97.768 75.1478 96.456 74.5398 94.12H88.2998C88.4918 93.384 88.5878 92.648 88.5878 91.944C88.5878 87.624 84.9398 84.456 80.0758 84.456C74.7318 84.456 70.1878 87.656 70.1878 93C70.1878 97.8 74.1238 101.576 80.0758 101.576C83.0198 101.576 86.0278 100.584 88.1718 99.496L86.9237 96.168C84.6518 97.352 82.6678 97.768 80.4918 97.768ZM79.8198 88.008C82.3158 88.008 83.9158 89.128 84.3318 91.016H74.6358C75.2758 89.064 77.0677 88.008 79.8198 88.008ZM94.39 85H89.75L97.302 101H101.942L109.526 85H104.822L99.638 96.232L94.39 85ZM121.179 97.768C118.171 97.768 115.835 96.456 115.227 94.12H128.987C129.179 93.384 129.275 92.648 129.275 91.944C129.275 87.624 125.627 84.456 120.763 84.456C115.419 84.456 110.875 87.656 110.875 93C110.875 97.8 114.811 101.576 120.763 101.576C123.707 101.576 126.715 100.584 128.859 99.496L127.611 96.168C125.339 97.352 123.355 97.768 121.179 97.768ZM120.507 88.008C123.003 88.008 124.603 89.128 125.019 91.016H115.323C115.963 89.064 117.755 88.008 120.507 88.008ZM142.982 84.456C140.198 84.456 137.99 86.824 137.062 88.552V85H132.838V101H137.062V93.064C137.062 90.12 139.91 88.392 142.566 88.392C143.174 88.392 144.006 88.584 144.774 88.936L145.67 85.096C144.87 84.712 143.878 84.456 142.982 84.456ZM166.436 88.424C168.964 88.424 170.276 89.992 170.276 92.264V101H174.5V91.752C174.5 87.4 172.004 84.52 167.652 84.52C164.612 84.52 162.244 86.472 161.124 88.552V77.288H156.9V101H161.124V93.064C161.124 89.896 163.78 88.424 166.436 88.424ZM184.75 91.88C181.454 91.88 178.19 93.352 178.19 96.776C178.19 99.656 180.43 101.64 183.438 101.64C186.158 101.64 188.59 100.168 190.126 98.344C190.19 100.136 191.086 101.64 193.23 101.64C194.542 101.64 196.462 101 198.222 100.04L197.358 96.776C196.43 97.256 195.598 97.608 195.118 97.608C194.67 97.608 194.35 97.32 194.35 96.84V91.08C194.35 86.696 191.79 84.36 187.406 84.36C184.878 84.36 181.518 85.352 179.534 85.992L180.59 89.832C182.926 88.968 185.358 88.232 187.022 88.232C189.038 88.232 190.126 89.352 190.126 91.016V92.872C188.75 92.392 186.478 91.88 184.75 91.88ZM184.814 98.024C183.47 98.024 182.51 97.48 182.51 96.424C182.51 95.272 183.566 94.6 184.974 94.6C186.51 94.6 188.366 94.76 190.126 95.08V95.688C188.622 97.16 186.414 98.024 184.814 98.024ZM202.859 85H198.219L205.771 101H210.411L217.995 85H213.291L208.107 96.232L202.859 85ZM229.648 97.768C226.64 97.768 224.304 96.456 223.696 94.12H237.456C237.648 93.384 237.744 92.648 237.744 91.944C237.744 87.624 234.096 84.456 229.232 84.456C223.888 84.456 219.344 87.656 219.344 93C219.344 97.8 223.28 101.576 229.232 101.576C232.176 101.576 235.184 100.584 237.328 99.496L236.08 96.168C233.808 97.352 231.824 97.768 229.648 97.768ZM228.976 88.008C231.472 88.008 233.072 89.128 233.488 91.016H223.792C224.432 89.064 226.224 88.008 228.976 88.008ZM255.265 78.6H250.849V101H255.265V78.6ZM278.867 97.768C275.859 97.768 273.523 96.456 272.915 94.12H286.675C286.867 93.384 286.963 92.648 286.963 91.944C286.963 87.624 283.315 84.456 278.451 84.456C273.107 84.456 268.563 87.656 268.563 93C268.563 97.8 272.499 101.576 278.451 101.576C281.395 101.576 284.403 100.584 286.547 99.496L285.299 96.168C283.027 97.352 281.043 97.768 278.867 97.768ZM278.195 88.008C280.691 88.008 282.291 89.128 282.707 91.016H273.011C273.651 89.064 275.443 88.008 278.195 88.008ZM292.765 85H288.125L295.677 101H300.317L307.901 85H303.197L298.013 96.232L292.765 85ZM319.554 97.768C316.546 97.768 314.21 96.456 313.602 94.12H327.362C327.554 93.384 327.65 92.648 327.65 91.944C327.65 87.624 324.002 84.456 319.138 84.456C313.794 84.456 309.25 87.656 309.25 93C309.25 97.8 313.186 101.576 319.138 101.576C322.082 101.576 325.09 100.584 327.234 99.496L325.986 96.168C323.714 97.352 321.73 97.768 319.554 97.768ZM318.882 88.008C321.378 88.008 322.978 89.128 323.394 91.016H313.698C314.338 89.064 316.13 88.008 318.882 88.008ZM341.357 84.456C338.573 84.456 336.365 86.824 335.437 88.552V85H331.213V101H335.437V93.064C335.437 90.12 338.285 88.392 340.941 88.392C341.549 88.392 342.381 88.584 343.149 88.936L344.045 85.096C343.245 84.712 342.253 84.456 341.357 84.456ZM49.408 141.544C52.672 141.544 55.232 139.656 56.288 137.448V141H60.512V117H56.288V125.576C54.688 125.064 52.48 124.424 50.752 124.424C45.376 124.424 41.344 128.36 41.344 133.16C41.344 138.344 45.024 141.544 49.408 141.544ZM50.656 137.608C47.808 137.608 45.6 136.008 45.6 133.128C45.6 130.312 47.808 128.136 50.688 128.136C52.64 128.136 54.432 128.552 56.288 129.096V132.552C56.288 135.624 53.472 137.608 50.656 137.608ZM75.4503 124.456C72.6663 124.456 70.4583 126.824 69.5303 128.552V125H65.3063V141H69.5303V133.064C69.5303 130.12 72.3783 128.392 75.0343 128.392C75.6423 128.392 76.4743 128.584 77.2423 128.936L78.1383 125.096C77.3383 124.712 76.3463 124.456 75.4503 124.456ZM89.5543 137.768C86.5463 137.768 84.2103 136.456 83.6023 134.12H97.3623C97.5543 133.384 97.6503 132.648 97.6503 131.944C97.6503 127.624 94.0023 124.456 89.1383 124.456C83.7943 124.456 79.2503 127.656 79.2503 133C79.2503 137.8 83.1863 141.576 89.1383 141.576C92.0823 141.576 95.0903 140.584 97.2343 139.496L95.9862 136.168C93.7143 137.352 91.7303 137.768 89.5543 137.768ZM88.8823 128.008C91.3783 128.008 92.9783 129.128 93.3943 131.016H83.6983C84.3383 129.064 86.1302 128.008 88.8823 128.008ZM106.812 131.88C103.516 131.88 100.253 133.352 100.253 136.776C100.253 139.656 102.493 141.64 105.501 141.64C108.22 141.64 110.653 140.168 112.189 138.344C112.253 140.136 113.149 141.64 115.293 141.64C116.605 141.64 118.525 141 120.285 140.04L119.421 136.776C118.493 137.256 117.661 137.608 117.181 137.608C116.733 137.608 116.413 137.32 116.413 136.84V131.08C116.413 126.696 113.853 124.36 109.469 124.36C106.941 124.36 103.581 125.352 101.597 125.992L102.653 129.832C104.989 128.968 107.421 128.232 109.085 128.232C111.101 128.232 112.189 129.352 112.189 131.016V132.872C110.813 132.392 108.541 131.88 106.812 131.88ZM106.877 138.024C105.533 138.024 104.573 137.48 104.573 136.424C104.573 135.272 105.629 134.6 107.036 134.6C108.573 134.6 110.429 134.76 112.189 135.08V135.688C110.685 137.16 108.477 138.024 106.877 138.024ZM132.921 124.52C130.137 124.52 127.961 126.504 126.905 128.392V125H122.681V141H126.905V133.032C126.905 129.96 129.273 128.424 131.481 128.424C133.817 128.424 135.065 129.992 135.065 132.104V141H139.289V133.032C139.289 129.992 141.657 128.424 143.865 128.424C146.201 128.424 147.449 129.992 147.449 132.104V141H151.673V131.592C151.673 127.368 149.465 124.52 145.305 124.52C142.617 124.52 140.057 126.504 138.777 128.424C137.881 126.024 135.929 124.52 132.921 124.52ZM165.554 137.768C162.546 137.768 160.21 136.456 159.602 134.12H173.362C173.554 133.384 173.65 132.648 173.65 131.944C173.65 127.624 170.002 124.456 165.138 124.456C159.794 124.456 155.25 127.656 155.25 133C155.25 137.8 159.186 141.576 165.138 141.576C168.082 141.576 171.09 140.584 173.234 139.496L171.986 136.168C169.714 137.352 167.73 137.768 165.554 137.768ZM164.882 128.008C167.378 128.008 168.978 129.128 169.394 131.016H159.698C160.338 129.064 162.13 128.008 164.882 128.008ZM184.22 141.544C187.485 141.544 190.045 139.656 191.101 137.448V141H195.325V117H191.101V125.576C189.501 125.064 187.293 124.424 185.565 124.424C180.189 124.424 176.157 128.36 176.157 133.16C176.157 138.344 179.837 141.544 184.22 141.544ZM185.469 137.608C182.621 137.608 180.413 136.008 180.413 133.128C180.413 130.312 182.621 128.136 185.501 128.136C187.453 128.136 189.245 128.552 191.101 129.096V132.552C191.101 135.624 188.285 137.608 185.469 137.608ZM214.781 131.88C211.485 131.88 208.221 133.352 208.221 136.776C208.221 139.656 210.461 141.64 213.469 141.64C216.189 141.64 218.621 140.168 220.157 138.344C220.221 140.136 221.117 141.64 223.261 141.64C224.573 141.64 226.493 141 228.253 140.04L227.389 136.776C226.461 137.256 225.629 137.608 225.149 137.608C224.701 137.608 224.381 137.32 224.381 136.84V131.08C224.381 126.696 221.821 124.36 217.437 124.36C214.909 124.36 211.549 125.352 209.565 125.992L210.621 129.832C212.957 128.968 215.389 128.232 217.053 128.232C219.069 128.232 220.157 129.352 220.157 131.016V132.872C218.781 132.392 216.509 131.88 214.781 131.88ZM214.845 138.024C213.501 138.024 212.541 137.48 212.541 136.424C212.541 135.272 213.597 134.6 215.005 134.6C216.541 134.6 218.397 134.76 220.157 135.08V135.688C218.653 137.16 216.445 138.024 214.845 138.024ZM241.626 124.456C238.458 124.456 235.93 126.344 234.874 128.552V117H230.65V139.4C232.73 140.328 237.082 141.576 240.282 141.576C245.53 141.576 249.562 137.64 249.562 132.84C249.562 127.656 245.882 124.456 241.626 124.456ZM240.378 128.392C243.162 128.392 245.306 129.96 245.306 132.84C245.306 135.528 242.97 137.864 240.346 137.864C238.394 137.864 236.73 137.544 234.874 136.936V133.064C234.874 130.12 237.69 128.392 240.378 128.392ZM262.202 124.456C256.858 124.456 252.25 127.496 252.25 132.84C252.25 137.64 256.41 141.576 262.202 141.576C267.994 141.576 272.154 137.64 272.154 132.84C272.154 127.496 267.546 124.456 262.202 124.456ZM262.202 128.136C265.53 128.136 267.898 129.864 267.898 132.84C267.898 135.528 265.37 137.928 262.202 137.928C259.034 137.928 256.506 135.528 256.506 132.84C256.506 129.864 258.874 128.136 262.202 128.136ZM282.46 141.512C285.372 141.512 287.836 139.752 288.988 137.48V141H293.212V125H288.988V132.744C288.988 136.136 286.716 137.608 284.028 137.608C281.5 137.608 279.964 136.328 279.964 133.736V125H275.74V134.28C275.74 138.632 278.172 141.512 282.46 141.512ZM296.265 128.68H299.305V134.888C299.305 138.92 301.449 141.544 305.417 141.544C307.113 141.544 309.385 140.808 310.729 140.104L309.801 136.488C308.777 137.128 307.369 137.64 306.121 137.64C304.457 137.64 303.529 136.456 303.529 134.728V128.68H310.185V125H303.529V120.2H300.009L299.433 125.128L296.265 125.32V128.68ZM52.64 164.52C49.856 164.52 47.68 166.504 46.624 168.392V165H42.4V181H46.624V173.032C46.624 169.96 48.992 168.424 51.2 168.424C53.536 168.424 54.784 169.992 54.784 172.104V181H59.008V173.032C59.008 169.992 61.376 168.424 63.584 168.424C65.92 168.424 67.168 169.992 67.168 172.104V181H71.392V171.592C71.392 167.368 69.184 164.52 65.024 164.52C62.336 164.52 59.776 166.504 58.496 168.424C57.6 166.024 55.648 164.52 52.64 164.52ZM81.625 171.88C78.329 171.88 75.065 173.352 75.065 176.776C75.065 179.656 77.305 181.64 80.313 181.64C83.033 181.64 85.465 180.168 87.001 178.344C87.065 180.136 87.961 181.64 90.105 181.64C91.417 181.64 93.337 181 95.097 180.04L94.233 176.776C93.305 177.256 92.473 177.608 91.993 177.608C91.545 177.608 91.225 177.32 91.225 176.84V171.08C91.225 166.696 88.665 164.36 84.281 164.36C81.753 164.36 78.393 165.352 76.409 165.992L77.465 169.832C79.801 168.968 82.233 168.232 83.897 168.232C85.913 168.232 87.001 169.352 87.001 171.016V172.872C85.625 172.392 83.353 171.88 81.625 171.88ZM81.689 178.024C80.345 178.024 79.385 177.48 79.385 176.424C79.385 175.272 80.441 174.6 81.849 174.6C83.385 174.6 85.241 174.76 87.001 175.08V175.688C85.497 177.16 83.289 178.024 81.689 178.024ZM101.654 157H97.4938V181H101.654V157ZM107.51 179.848C108.374 180.872 109.398 181.416 110.486 181.416C111.766 181.416 113.142 180.808 114.614 180.168L113.622 176.744C112.854 177.064 112.15 177.416 111.51 177.416C111.158 177.416 110.838 177.32 110.55 177.032L106.806 173.16L114.518 165H109.11L101.878 173.288L107.51 179.848ZM122.03 165H117.87V181H122.03V165ZM117.422 160.392C117.422 161.8 118.542 162.92 119.95 162.92C121.358 162.92 122.478 161.8 122.478 160.392C122.478 159.016 121.358 157.896 119.95 157.896C118.542 157.896 117.422 159.016 117.422 160.392ZM136.436 168.424C138.964 168.424 140.276 169.992 140.276 172.264V181H144.5V171.752C144.5 167.4 142.004 164.52 137.652 164.52C134.612 164.52 132.244 166.472 131.124 168.552V165H126.9V181H131.124V173.064C131.124 169.896 133.78 168.424 136.436 168.424ZM154.846 178.888C153.79 178.888 153.246 178.504 153.246 177.96C153.246 177.512 153.662 177.192 154.046 177.096C154.782 177.224 155.582 177.288 156.382 177.288C161.214 177.288 164.734 174.536 164.734 170.888C164.734 169.8 164.446 168.84 163.998 168.04C164.766 167.656 165.662 167.432 166.782 167.304L166.014 163.368C163.966 163.72 162.366 164.488 161.15 165.48C159.774 164.808 158.11 164.456 156.382 164.456C151.998 164.456 148.062 166.664 148.062 170.888C148.062 172.616 149.438 174.376 150.91 175.336C150.11 175.848 149.182 176.68 149.182 177.736C149.182 178.76 149.854 179.88 150.718 180.296C149.118 180.712 147.422 182.28 147.422 183.976C147.422 187.336 151.198 189.096 157.022 189.096C162.494 189.096 166.526 187.304 166.526 183.656C166.526 180.328 162.494 178.888 157.022 178.888H154.846ZM156.35 167.944C158.622 167.944 160.35 168.936 160.35 170.76C160.35 172.264 158.782 173.512 156.35 173.512C154.046 173.512 152.318 172.36 152.318 170.76C152.318 168.936 154.046 167.944 156.35 167.944ZM156.958 182.472C160.254 182.472 162.43 182.92 162.43 184.008C162.43 185.192 160.254 185.64 156.958 185.64C153.438 185.64 151.486 185.128 151.486 183.976C151.486 183.336 152.094 182.792 152.798 182.504C153.342 182.472 156.318 182.472 156.958 182.472ZM184 171.88C180.704 171.88 177.44 173.352 177.44 176.776C177.44 179.656 179.68 181.64 182.688 181.64C185.408 181.64 187.84 180.168 189.376 178.344C189.44 180.136 190.336 181.64 192.48 181.64C193.792 181.64 195.712 181 197.472 180.04L196.608 176.776C195.68 177.256 194.848 177.608 194.368 177.608C193.92 177.608 193.6 177.32 193.6 176.84V171.08C193.6 166.696 191.04 164.36 186.656 164.36C184.128 164.36 180.768 165.352 178.784 165.992L179.84 169.832C182.176 168.968 184.608 168.232 186.272 168.232C188.288 168.232 189.376 169.352 189.376 171.016V172.872C188 172.392 185.728 171.88 184 171.88ZM184.064 178.024C182.72 178.024 181.76 177.48 181.76 176.424C181.76 175.272 182.816 174.6 184.224 174.6C185.76 174.6 187.616 174.76 189.376 175.08V175.688C187.872 177.16 185.664 178.024 184.064 178.024ZM216.323 160.424C217.699 160.424 219.203 160.872 220.675 161.512L221.699 157.64C220.195 157.128 218.275 156.68 216.451 156.68C212.515 156.68 209.795 159.08 209.795 162.76V165H207.171V168.68H209.827V181H213.987V168.68H221.091V165H213.827V162.952C213.827 161.224 214.787 160.424 216.323 160.424ZM232.64 164.456C227.296 164.456 222.688 167.496 222.688 172.84C222.688 177.64 226.848 181.576 232.64 181.576C238.432 181.576 242.592 177.64 242.592 172.84C242.592 167.496 237.984 164.456 232.64 164.456ZM232.64 168.136C235.968 168.136 238.336 169.864 238.336 172.84C238.336 175.528 235.808 177.928 232.64 177.928C229.472 177.928 226.944 175.528 226.944 172.84C226.944 169.864 229.312 168.136 232.64 168.136ZM256.482 164.456C253.698 164.456 251.49 166.824 250.562 168.552V165H246.338V181H250.562V173.064C250.562 170.12 253.41 168.392 256.066 168.392C256.674 168.392 257.506 168.584 258.274 168.936L259.17 165.096C258.37 164.712 257.378 164.456 256.482 164.456ZM259.578 168.68H262.618V174.888C262.618 178.92 264.762 181.544 268.73 181.544C270.426 181.544 272.698 180.808 274.042 180.104L273.114 176.488C272.09 177.128 270.682 177.64 269.434 177.64C267.77 177.64 266.842 176.456 266.842 174.728V168.68H273.498V165H266.842V160.2H263.322L262.746 165.128L259.578 165.32V168.68ZM283.804 181.512C286.716 181.512 289.18 179.752 290.332 177.48V181H294.556V165H290.332V172.744C290.332 176.136 288.06 177.608 285.372 177.608C282.844 177.608 281.308 176.328 281.308 173.736V165H277.084V174.28C277.084 178.632 279.516 181.512 283.804 181.512ZM308.905 168.424C311.433 168.424 312.745 169.992 312.745 172.264V181H316.969V171.752C316.969 167.4 314.473 164.52 310.121 164.52C307.081 164.52 304.713 166.472 303.593 168.552V165H299.369V181H303.593V173.064C303.593 169.896 306.249 168.424 308.905 168.424ZM330.867 177.768C327.859 177.768 325.523 176.456 324.915 174.12H338.675C338.867 173.384 338.963 172.648 338.963 171.944C338.963 167.624 335.315 164.456 330.451 164.456C325.107 164.456 320.563 167.656 320.563 173C320.563 177.8 324.499 181.576 330.451 181.576C333.395 181.576 336.403 180.584 338.547 179.496L337.299 176.168C335.027 177.352 333.043 177.768 330.867 177.768ZM330.195 168.008C332.691 168.008 334.291 169.128 334.707 171.016H325.011C325.651 169.064 327.443 168.008 330.195 168.008ZM48 211.88C44.704 211.88 41.44 213.352 41.44 216.776C41.44 219.656 43.68 221.64 46.688 221.64C49.408 221.64 51.84 220.168 53.376 218.344C53.44 220.136 54.336 221.64 56.48 221.64C57.792 221.64 59.712 221 61.472 220.04L60.608 216.776C59.68 217.256 58.848 217.608 58.368 217.608C57.92 217.608 57.6 217.32 57.6 216.84V211.08C57.6 206.696 55.04 204.36 50.656 204.36C48.128 204.36 44.768 205.352 42.784 205.992L43.84 209.832C46.176 208.968 48.608 208.232 50.272 208.232C52.288 208.232 53.376 209.352 53.376 211.016V212.872C52 212.392 49.728 211.88 48 211.88ZM48.064 218.024C46.72 218.024 45.76 217.48 45.76 216.424C45.76 215.272 46.816 214.6 48.224 214.6C49.76 214.6 51.616 214.76 53.376 215.08V215.688C51.872 217.16 49.664 218.024 48.064 218.024ZM72.7008 204.456C67.3568 204.456 62.8128 207.656 62.8128 213C62.8128 217.8 66.4608 221.576 72.4128 221.576C75.4208 221.576 78.1728 220.648 80.3488 219.496L79.1007 216.168C76.9888 217.096 75.2928 217.768 72.9568 217.768C69.6288 217.768 67.0688 215.912 67.0688 212.84C67.0688 209.928 69.3728 208.168 72.4448 208.168C74.6208 208.168 76.4768 208.616 78.6848 209.512L79.7088 205.736C77.7888 205.064 75.3568 204.456 72.7008 204.456ZM92.3883 204.456C87.0443 204.456 82.5003 207.656 82.5003 213C82.5003 217.8 86.1483 221.576 92.1003 221.576C95.1083 221.576 97.8603 220.648 100.036 219.496L98.7882 216.168C96.6763 217.096 94.9803 217.768 92.6443 217.768C89.3163 217.768 86.7563 215.912 86.7563 212.84C86.7563 209.928 89.0603 208.168 92.1323 208.168C94.3083 208.168 96.1643 208.616 98.3723 209.512L99.3963 205.736C97.4763 205.064 95.0443 204.456 92.3883 204.456ZM107.468 205H103.308V221H107.468V205ZM102.86 200.392C102.86 201.8 103.98 202.92 105.388 202.92C106.796 202.92 107.916 201.8 107.916 200.392C107.916 199.016 106.796 197.896 105.388 197.896C103.98 197.896 102.86 199.016 102.86 200.392ZM119.345 221.544C122.61 221.544 125.17 219.656 126.226 217.448V221H130.45V197H126.226V205.576C124.626 205.064 122.418 204.424 120.69 204.424C115.314 204.424 111.282 208.36 111.282 213.16C111.282 218.344 114.962 221.544 119.345 221.544ZM120.594 217.608C117.746 217.608 115.538 216.008 115.538 213.128C115.538 210.312 117.746 208.136 120.626 208.136C122.578 208.136 124.37 208.552 126.226 209.096V212.552C126.226 215.624 123.41 217.608 120.594 217.608ZM144.492 217.768C141.484 217.768 139.148 216.456 138.54 214.12H152.3C152.492 213.384 152.588 212.648 152.588 211.944C152.588 207.624 148.94 204.456 144.076 204.456C138.732 204.456 134.188 207.656 134.188 213C134.188 217.8 138.124 221.576 144.076 221.576C147.02 221.576 150.028 220.584 152.172 219.496L150.924 216.168C148.652 217.352 146.668 217.768 144.492 217.768ZM143.82 208.008C146.316 208.008 147.916 209.128 148.332 211.016H138.636C139.276 209.064 141.068 208.008 143.82 208.008ZM165.686 208.424C168.214 208.424 169.526 209.992 169.526 212.264V221H173.75V211.752C173.75 207.4 171.254 204.52 166.902 204.52C163.862 204.52 161.494 206.472 160.374 208.552V205H156.15V221H160.374V213.064C160.374 209.896 163.03 208.424 165.686 208.424ZM176.64 208.68H179.68V214.888C179.68 218.92 181.824 221.544 185.792 221.544C187.488 221.544 189.76 220.808 191.104 220.104L190.176 216.488C189.152 217.128 187.744 217.64 186.496 217.64C184.832 217.64 183.904 216.456 183.904 214.728V208.68H190.56V205H183.904V200.2H180.384L179.808 205.128L176.64 205.32V208.68ZM199.906 211.88C196.61 211.88 193.346 213.352 193.346 216.776C193.346 219.656 195.586 221.64 198.594 221.64C201.314 221.64 203.746 220.168 205.282 218.344C205.346 220.136 206.242 221.64 208.386 221.64C209.698 221.64 211.618 221 213.378 220.04L212.514 216.776C211.586 217.256 210.754 217.608 210.274 217.608C209.826 217.608 209.506 217.32 209.506 216.84V211.08C209.506 206.696 206.946 204.36 202.562 204.36C200.034 204.36 196.674 205.352 194.69 205.992L195.746 209.832C198.082 208.968 200.514 208.232 202.178 208.232C204.194 208.232 205.282 209.352 205.282 211.016V212.872C203.906 212.392 201.634 211.88 199.906 211.88ZM199.97 218.024C198.626 218.024 197.666 217.48 197.666 216.424C197.666 215.272 198.722 214.6 200.13 214.6C201.666 214.6 203.522 214.76 205.282 215.08V215.688C203.778 217.16 201.57 218.024 199.97 218.024ZM219.967 221V197H215.775V221H219.967ZM228.967 221V197H224.775V221H228.967ZM251.215 205H246.575C245.135 208.424 243.375 212.552 241.711 216.424L235.983 205H231.375L239.631 221.224C239.631 221.256 239.567 221.32 239.567 221.384C238.767 223.176 237.871 224.936 236.175 224.936C235.951 224.936 235.311 224.872 234.735 224.776L234.511 228.84C235.055 228.936 235.759 229 235.983 229C240.495 229 241.967 225.736 243.503 222.312L251.215 205ZM43.114 277.636C43.114 275.134 43.996 272.272 45.148 270.67C45.148 270.67 44.086 269.95 44.086 269.932C42.664 271.84 41.44 274.63 41.44 277.636C41.44 280.642 42.664 283.432 44.086 285.34C44.086 285.322 45.148 284.602 45.148 284.602C43.996 283 43.114 280.138 43.114 277.636ZM46.5827 275.368H48.2207V283H49.8947V275.368H53.8907V274H49.8047V272.758C49.8047 271.48 50.4887 270.814 51.5507 270.814C52.2347 270.814 53.1527 270.994 53.8187 271.282L54.2147 269.806C53.5127 269.572 52.4507 269.356 51.6047 269.356C49.4807 269.356 48.2027 270.67 48.2027 272.686V274H46.5827V275.368ZM60.5006 273.712C57.6746 273.712 55.2446 275.386 55.2446 278.392C55.2446 281.11 57.4406 283.306 60.5006 283.306C63.5606 283.306 65.7566 281.11 65.7566 278.392C65.7566 275.386 63.3266 273.712 60.5006 273.712ZM60.5006 275.08C62.5706 275.08 64.0286 276.268 64.0286 278.392C64.0286 280.3 62.4626 281.938 60.5006 281.938C58.5386 281.938 56.9726 280.3 56.9726 278.392C56.9726 276.268 58.4306 275.08 60.5006 275.08ZM73.6132 273.766C71.9212 273.766 70.5532 274.792 69.8332 275.944V274H68.1412V283H69.8332V278.806C69.8332 276.538 71.8312 275.332 73.5952 275.332C73.9912 275.332 74.4052 275.422 74.7112 275.53L75.0532 274.036C74.6572 273.892 74.0812 273.766 73.6132 273.766ZM86.6732 283.288C88.1492 283.288 89.8952 282.73 90.9932 282.244L90.4712 280.93C89.2472 281.47 88.0592 281.794 86.7272 281.794C84.8732 281.794 83.3612 280.606 83.1992 278.734H91.0472C91.0652 278.518 91.0832 278.23 91.0832 278.032C91.0832 275.512 89.2652 273.712 86.6552 273.712C83.8292 273.712 81.4712 275.386 81.4712 278.392C81.4712 281.218 83.6132 283.288 86.6732 283.288ZM83.3072 277.384C83.6672 275.836 84.8912 275.08 86.5292 275.08C88.0232 275.08 89.1572 275.89 89.3552 277.384H83.3072ZM92.2837 283H94.4617L97.4317 279.616L100.528 283H102.706L98.5657 278.464L102.634 274H100.456L97.5397 277.33L94.5157 274H92.2837L96.3877 278.482L92.2837 283ZM110.758 281.578C110.758 282.496 111.172 283.288 112.216 283.288C112.54 283.288 113.152 283.18 113.44 283.036L114.736 282.424L114.43 281.092L113.476 281.542C113.242 281.65 113.026 281.722 112.864 281.722C112.612 281.722 112.468 281.56 112.468 281.218V277.42C112.468 274.99 111.244 273.712 108.904 273.712C107.446 273.712 105.646 274.18 104.566 274.504L104.98 276.016C106.222 275.602 107.572 275.188 108.67 275.188C110.128 275.188 110.758 276.07 110.758 277.366V278.626C109.948 278.356 108.526 277.996 107.446 277.996C105.592 277.996 104.062 278.986 104.062 280.804C104.062 282.334 105.304 283.288 106.852 283.288C108.436 283.288 109.84 282.424 110.758 281.362V281.578ZM107.284 281.794C106.51 281.794 105.79 281.434 105.79 280.66C105.79 279.796 106.528 279.364 107.608 279.364C108.706 279.364 109.894 279.544 110.758 279.76V279.832C110.128 280.966 108.616 281.794 107.284 281.794ZM128.566 273.766C127.054 273.766 125.524 274.756 124.696 276.106C124.282 274.648 123.202 273.766 121.528 273.766C119.89 273.766 118.594 274.756 117.874 275.872V274H116.182V283H117.874V278.752C117.874 276.574 119.53 275.278 121.096 275.278C122.554 275.278 123.202 276.322 123.202 277.798V283H124.912V278.914C124.912 276.646 126.532 275.278 128.134 275.278C129.592 275.278 130.24 276.322 130.24 277.798V283H131.95V277.654C131.95 275.296 130.78 273.766 128.566 273.766ZM140.289 273.712C138.453 273.712 137.031 274.666 136.455 275.836V274H134.745V287.32H136.455V282.766C137.265 283.018 138.417 283.324 139.461 283.324C142.521 283.324 144.825 281.11 144.825 278.392C144.825 275.476 142.755 273.712 140.289 273.712ZM139.821 275.206C141.765 275.206 143.097 276.34 143.097 278.392C143.097 280.3 141.459 281.956 139.497 281.956C138.309 281.956 137.319 281.722 136.455 281.452V278.518C136.455 276.412 138.057 275.206 139.821 275.206ZM148.9 283V269.5H147.208V283H148.9ZM156.476 283.288C157.952 283.288 159.698 282.73 160.796 282.244L160.274 280.93C159.05 281.47 157.862 281.794 156.53 281.794C154.676 281.794 153.164 280.606 153.002 278.734H160.85C160.868 278.518 160.886 278.23 160.886 278.032C160.886 275.512 159.068 273.712 156.458 273.712C153.632 273.712 151.274 275.386 151.274 278.392C151.274 281.218 153.416 283.288 156.476 283.288ZM153.11 277.384C153.47 275.836 154.694 275.08 156.332 275.08C157.826 275.08 158.96 275.89 159.158 277.384H153.11ZM163.022 282.082C163.022 282.73 163.544 283.234 164.192 283.234C164.138 284.134 163.814 284.8 163.04 285.466L163.652 286.222C164.822 285.304 165.434 283.792 165.434 282.604C165.434 281.74 165.092 280.93 164.192 280.93C163.544 280.93 163.022 281.434 163.022 282.082ZM175.181 274H173.489V283H175.181V274ZM173.219 271.498C173.219 272.11 173.723 272.596 174.335 272.596C174.947 272.596 175.451 272.11 175.451 271.498C175.451 270.886 174.947 270.4 174.335 270.4C173.723 270.4 173.219 270.886 173.219 271.498ZM183.851 273.712C182.105 273.712 180.557 274.792 179.837 275.944V274H178.145V283H179.837V278.824C179.837 276.592 181.655 275.224 183.419 275.224C185.039 275.224 185.885 276.322 185.885 277.87V283H187.595V277.726C187.595 275.296 186.245 273.712 183.851 273.712ZM196.085 273.712C194.339 273.712 192.791 274.792 192.071 275.944V269.662H190.379V283H192.071V278.824C192.071 276.592 193.889 275.224 195.653 275.224C197.273 275.224 198.119 276.322 198.119 277.87V283H199.829V277.726C199.829 275.296 198.479 273.712 196.085 273.712ZM207.312 283.288C208.788 283.288 210.534 282.73 211.632 282.244L211.11 280.93C209.886 281.47 208.698 281.794 207.366 281.794C205.512 281.794 204 280.606 203.838 278.734H211.686C211.704 278.518 211.722 278.23 211.722 278.032C211.722 275.512 209.904 273.712 207.294 273.712C204.468 273.712 202.11 275.386 202.11 278.392C202.11 281.218 204.252 283.288 207.312 283.288ZM203.946 277.384C204.306 275.836 205.53 275.08 207.168 275.08C208.662 275.08 209.796 275.89 209.994 277.384H203.946ZM219.564 273.766C217.872 273.766 216.504 274.792 215.784 275.944V274H214.092V283H215.784V278.806C215.784 276.538 217.782 275.332 219.546 275.332C219.942 275.332 220.356 275.422 220.662 275.53L221.004 274.036C220.608 273.892 220.032 273.766 219.564 273.766ZM224.312 274H222.62V283H224.312V274ZM222.35 271.498C222.35 272.11 222.854 272.596 223.466 272.596C224.078 272.596 224.582 272.11 224.582 271.498C224.582 270.886 224.078 270.4 223.466 270.4C222.854 270.4 222.35 270.886 222.35 271.498ZM226.16 275.368H228.068V279.634C228.068 281.848 229.13 283.288 231.272 283.288C232.244 283.288 233.27 282.946 233.9 282.622L233.54 281.236C233.09 281.488 232.388 281.776 231.704 281.776C230.318 281.776 229.76 280.858 229.76 279.49V275.368H233.468V274H229.76V271.3H228.428L228.104 274.054L226.16 274.18V275.368ZM242.492 276.16C242.492 275.386 243.644 275.062 244.598 275.062C245.822 275.062 247.208 275.404 248.486 275.962L248.882 274.522C247.82 274.108 246.2 273.712 244.652 273.712C242.69 273.712 240.818 274.72 240.818 276.304C240.818 278.356 243.14 278.842 245.048 279.13C246.362 279.328 247.55 279.598 247.55 280.498C247.55 281.542 246.2 281.848 245.012 281.848C243.68 281.848 242.258 281.452 241.088 280.948L240.692 282.334C241.718 282.802 243.572 283.288 245.048 283.288C247.046 283.288 249.26 282.298 249.26 280.372C249.26 278.5 247.262 277.924 245.498 277.672C243.932 277.456 242.492 277.24 242.492 276.16ZM256.356 273.712C253.53 273.712 251.1 275.386 251.1 278.392C251.1 281.11 253.296 283.306 256.356 283.306C259.416 283.306 261.612 281.11 261.612 278.392C261.612 275.386 259.182 273.712 256.356 273.712ZM256.356 275.08C258.426 275.08 259.884 276.268 259.884 278.392C259.884 280.3 258.318 281.938 256.356 281.938C254.394 281.938 252.828 280.3 252.828 278.392C252.828 276.268 254.286 275.08 256.356 275.08ZM276.381 273.766C274.869 273.766 273.339 274.756 272.511 276.106C272.097 274.648 271.017 273.766 269.343 273.766C267.705 273.766 266.409 274.756 265.689 275.872V274H263.997V283H265.689V278.752C265.689 276.574 267.345 275.278 268.911 275.278C270.369 275.278 271.017 276.322 271.017 277.798V283H272.727V278.914C272.727 276.646 274.347 275.278 275.949 275.278C277.407 275.278 278.055 276.322 278.055 277.798V283H279.765V277.654C279.765 275.296 278.595 273.766 276.381 273.766ZM287.257 283.288C288.733 283.288 290.479 282.73 291.577 282.244L291.055 280.93C289.831 281.47 288.643 281.794 287.311 281.794C285.457 281.794 283.945 280.606 283.783 278.734H291.631C291.649 278.518 291.667 278.23 291.667 278.032C291.667 275.512 289.849 273.712 287.239 273.712C284.413 273.712 282.055 275.386 282.055 278.392C282.055 281.218 284.197 283.288 287.257 283.288ZM283.891 277.384C284.251 275.836 285.475 275.08 287.113 275.08C288.607 275.08 289.741 275.89 289.939 277.384H283.891ZM53.824 295.766C52.312 295.766 50.782 296.756 49.954 298.106C49.54 296.648 48.46 295.766 46.786 295.766C45.148 295.766 43.852 296.756 43.132 297.872V296H41.44V305H43.132V300.752C43.132 298.574 44.788 297.278 46.354 297.278C47.812 297.278 48.46 298.322 48.46 299.798V305H50.17V300.914C50.17 298.646 51.79 297.278 53.392 297.278C54.85 297.278 55.498 298.322 55.498 299.798V305H57.208V299.654C57.208 297.296 56.038 295.766 53.824 295.766ZM64.7545 295.712C61.9285 295.712 59.4985 297.386 59.4985 300.392C59.4985 303.11 61.6945 305.306 64.7545 305.306C67.8145 305.306 70.0105 303.11 70.0105 300.392C70.0105 297.386 67.5805 295.712 64.7545 295.712ZM64.7545 297.08C66.8245 297.08 68.2825 298.268 68.2825 300.392C68.2825 302.3 66.7165 303.938 64.7545 303.938C62.7925 303.938 61.2265 302.3 61.2265 300.392C61.2265 298.268 62.6845 297.08 64.7545 297.08ZM78.1011 295.712C76.3551 295.712 74.8071 296.792 74.0871 297.944V296H72.3951V305H74.0871V300.824C74.0871 298.592 75.9051 297.224 77.6691 297.224C79.2891 297.224 80.1351 298.322 80.1351 299.87V305H81.8451V299.726C81.8451 297.296 80.4951 295.712 78.1011 295.712ZM89.3275 305.288C90.8035 305.288 92.5495 304.73 93.6475 304.244L93.1255 302.93C91.9015 303.47 90.7135 303.794 89.3815 303.794C87.5275 303.794 86.0155 302.606 85.8535 300.734H93.7015C93.7195 300.518 93.7375 300.23 93.7375 300.032C93.7375 297.512 91.9195 295.712 89.3095 295.712C86.4835 295.712 84.1255 297.386 84.1255 300.392C84.1255 303.218 86.2675 305.288 89.3275 305.288ZM85.9615 299.384C86.3215 297.836 87.5455 297.08 89.1835 297.08C90.6775 297.08 91.8115 297.89 92.0095 299.384H85.9615ZM105.216 296H103.362L100.266 303.218L96.63 296H94.758L99.438 305.162L99.33 305.414C98.79 306.674 98.196 307.88 96.864 307.88C96.72 307.88 96.576 307.862 96.432 307.844L96.342 309.464C96.45 309.482 96.612 309.5 96.738 309.5C99.222 309.5 100.05 307.592 100.932 305.63L105.216 296ZM111.059 297.368H112.697V305H114.371V297.368H118.367V296H114.281V294.758C114.281 293.48 114.965 292.814 116.027 292.814C116.711 292.814 117.629 292.994 118.295 293.282L118.691 291.806C117.989 291.572 116.927 291.356 116.081 291.356C113.957 291.356 112.679 292.67 112.679 294.686V296H111.059V297.368ZM125.697 295.766C124.005 295.766 122.637 296.792 121.917 297.944V296H120.225V305H121.917V300.806C121.917 298.538 123.915 297.332 125.679 297.332C126.075 297.332 126.489 297.422 126.795 297.53L127.137 296.036C126.741 295.892 126.165 295.766 125.697 295.766ZM133.415 295.712C130.589 295.712 128.159 297.386 128.159 300.392C128.159 303.11 130.355 305.306 133.415 305.306C136.475 305.306 138.671 303.11 138.671 300.392C138.671 297.386 136.241 295.712 133.415 295.712ZM133.415 297.08C135.485 297.08 136.943 298.268 136.943 300.392C136.943 302.3 135.377 303.938 133.415 303.938C131.453 303.938 129.887 302.3 129.887 300.392C129.887 298.268 131.345 297.08 133.415 297.08ZM153.439 295.766C151.927 295.766 150.397 296.756 149.569 298.106C149.155 296.648 148.075 295.766 146.401 295.766C144.763 295.766 143.467 296.756 142.747 297.872V296H141.055V305H142.747V300.752C142.747 298.574 144.403 297.278 145.969 297.278C147.427 297.278 148.075 298.322 148.075 299.798V305H149.785V300.914C149.785 298.646 151.405 297.278 153.007 297.278C154.465 297.278 155.113 298.322 155.113 299.798V305H156.823V299.654C156.823 297.296 155.653 295.766 153.439 295.766ZM171.35 303.578C171.35 304.496 171.764 305.288 172.808 305.288C173.132 305.288 173.744 305.18 174.032 305.036L175.328 304.424L175.022 303.092L174.068 303.542C173.834 303.65 173.618 303.722 173.456 303.722C173.204 303.722 173.06 303.56 173.06 303.218V299.42C173.06 296.99 171.836 295.712 169.496 295.712C168.038 295.712 166.238 296.18 165.158 296.504L165.572 298.016C166.814 297.602 168.164 297.188 169.262 297.188C170.72 297.188 171.35 298.07 171.35 299.366V300.626C170.54 300.356 169.118 299.996 168.038 299.996C166.184 299.996 164.654 300.986 164.654 302.804C164.654 304.334 165.896 305.288 167.444 305.288C169.028 305.288 170.432 304.424 171.35 303.362V303.578ZM167.876 303.794C167.102 303.794 166.382 303.434 166.382 302.66C166.382 301.796 167.12 301.364 168.2 301.364C169.298 301.364 170.486 301.544 171.35 301.76V301.832C170.72 302.966 169.208 303.794 167.876 303.794ZM182.48 295.712C180.734 295.712 179.186 296.792 178.466 297.944V296H176.774V305H178.466V300.824C178.466 298.592 180.284 297.224 182.048 297.224C183.668 297.224 184.514 298.322 184.514 299.87V305H186.224V299.726C186.224 297.296 184.874 295.712 182.48 295.712ZM198.023 305.288C199.733 305.288 201.245 304.226 201.983 303.092V305H203.675V296H201.983V300.446C201.785 302.534 200.111 303.776 198.455 303.776C196.853 303.776 196.025 302.678 196.025 301.13V296H194.315V301.274C194.315 303.704 195.665 305.288 198.023 305.288ZM212.257 295.712C210.511 295.712 208.963 296.792 208.243 297.944V296H206.551V305H208.243V300.824C208.243 298.592 210.061 297.224 211.825 297.224C213.445 297.224 214.291 298.322 214.291 299.87V305H216.001V299.726C216.001 297.296 214.651 295.712 212.257 295.712ZM220.478 291.5H218.786V305H220.478V291.5ZM227.876 304.622L227.48 303.254C227.12 303.434 226.67 303.614 226.382 303.614C226.094 303.614 225.86 303.488 225.608 303.254L222.818 300.572L227.606 296H225.554L220.712 300.698L224.348 304.352C224.852 304.856 225.356 305.162 226.004 305.162C226.526 305.162 227.066 304.982 227.876 304.622ZM235.654 295.712C233.908 295.712 232.36 296.792 231.64 297.944V296H229.948V305H231.64V300.824C231.64 298.592 233.458 297.224 235.222 297.224C236.842 297.224 237.688 298.322 237.688 299.87V305H239.398V299.726C239.398 297.296 238.048 295.712 235.654 295.712ZM246.934 295.712C244.108 295.712 241.678 297.386 241.678 300.392C241.678 303.11 243.874 305.306 246.934 305.306C249.994 305.306 252.19 303.11 252.19 300.392C252.19 297.386 249.76 295.712 246.934 295.712ZM246.934 297.08C249.004 297.08 250.462 298.268 250.462 300.392C250.462 302.3 248.896 303.938 246.934 303.938C244.972 303.938 243.406 302.3 243.406 300.392C243.406 298.268 244.864 297.08 246.934 297.08ZM264.655 305H266.347L269.947 296H268.111L265.483 303.038L262.477 296H260.767L257.761 303.056L255.151 296H253.315L256.915 305H258.607L261.613 298.034L264.655 305ZM277.279 295.712C275.533 295.712 273.985 296.792 273.265 297.944V296H271.573V305H273.265V300.824C273.265 298.592 275.083 297.224 276.847 297.224C278.467 297.224 279.313 298.322 279.313 299.87V305H281.023V299.726C281.023 297.296 279.673 295.712 277.279 295.712ZM294.676 295.766C292.984 295.766 291.616 296.792 290.896 297.944V296H289.204V305H290.896V300.806C290.896 298.538 292.894 297.332 294.658 297.332C295.054 297.332 295.468 297.422 295.774 297.53L296.116 296.036C295.72 295.892 295.144 295.766 294.676 295.766ZM299.423 296H297.731V305H299.423V296ZM297.461 293.498C297.461 294.11 297.965 294.596 298.577 294.596C299.189 294.596 299.693 294.11 299.693 293.498C299.693 292.886 299.189 292.4 298.577 292.4C297.965 292.4 297.461 292.886 297.461 293.498ZM307.031 305.288C308.507 305.288 310.055 304.802 311.081 304.334L310.685 302.948C309.515 303.452 308.453 303.776 307.121 303.776C305.159 303.776 303.611 302.3 303.611 300.392C303.611 298.268 305.015 297.08 306.977 297.08C308.201 297.08 309.317 297.476 310.595 297.98L310.991 296.522C310.001 296.18 308.489 295.712 307.031 295.712C304.205 295.712 301.883 297.386 301.883 300.392C301.883 303.218 303.971 305.288 307.031 305.288ZM318.939 295.712C317.193 295.712 315.645 296.792 314.925 297.944V291.662H313.233V305H314.925V300.824C314.925 298.592 316.743 297.224 318.507 297.224C320.127 297.224 320.973 298.322 320.973 299.87V305H322.683V299.726C322.683 297.296 321.333 295.712 318.939 295.712ZM45.058 327.288C46.768 327.288 48.28 326.226 49.018 325.092V327H50.71V318H49.018V322.446C48.82 324.534 47.146 325.776 45.49 325.776C43.888 325.776 43.06 324.678 43.06 323.13V318H41.35V323.274C41.35 325.704 42.7 327.288 45.058 327.288ZM59.2925 317.712C57.5465 317.712 55.9985 318.792 55.2785 319.944V318H53.5865V327H55.2785V322.824C55.2785 320.592 57.0965 319.224 58.8605 319.224C60.4805 319.224 61.3265 320.322 61.3265 321.87V327H63.0365V321.726C63.0365 319.296 61.6865 317.712 59.2925 317.712ZM70.4649 327.288C71.9409 327.288 73.4889 326.802 74.5149 326.334L74.1189 324.948C72.9489 325.452 71.8869 325.776 70.5549 325.776C68.5929 325.776 67.0449 324.3 67.0449 322.392C67.0449 320.268 68.4489 319.08 70.4109 319.08C71.6349 319.08 72.7509 319.476 74.0289 319.98L74.4249 318.522C73.4349 318.18 71.9229 317.712 70.4649 317.712C67.6389 317.712 65.3169 319.386 65.3169 322.392C65.3169 325.218 67.4049 327.288 70.4649 327.288ZM78.3586 327V313.5H76.6666V327H78.3586ZM85.9349 327.288C87.4109 327.288 89.1569 326.73 90.2549 326.244L89.7329 324.93C88.5089 325.47 87.3209 325.794 85.9889 325.794C84.1349 325.794 82.6229 324.606 82.4609 322.734H90.3089C90.3269 322.518 90.3449 322.23 90.3449 322.032C90.3449 319.512 88.5269 317.712 85.9169 317.712C83.0909 317.712 80.7329 319.386 80.7329 322.392C80.7329 325.218 82.8749 327.288 85.9349 327.288ZM82.5689 321.384C82.9289 319.836 84.1529 319.08 85.7909 319.08C87.2849 319.08 88.4189 319.89 88.6169 321.384H82.5689ZM94.3894 321.636C94.3894 324.138 93.5074 327 92.3554 328.602C92.3554 328.602 93.4174 329.322 93.4174 329.34C94.8394 327.432 96.0634 324.642 96.0634 321.636C96.0634 318.63 94.8394 315.84 93.4174 313.932C93.4174 313.95 92.3554 314.67 92.3554 314.67C93.5074 316.272 94.3894 319.134 94.3894 321.636Z" fill="#FFFAED"></path> <path d="M49.54 389.4H50.8V402H49.54V396.114H42.7V402H41.44V389.4H42.7V394.926H49.54V389.4ZM61.0364 400.866C60.1244 401.766 59.0084 402.216 57.6884 402.216C56.3684 402.216 55.2464 401.766 54.3224 400.866C53.4104 399.954 52.9544 398.832 52.9544 397.5C52.9544 396.168 53.4104 395.052 54.3224 394.152C55.2464 393.24 56.3684 392.784 57.6884 392.784C59.0084 392.784 60.1244 393.24 61.0364 394.152C61.9604 395.052 62.4224 396.168 62.4224 397.5C62.4224 398.832 61.9604 399.954 61.0364 400.866ZM55.1684 400.038C55.8524 400.722 56.6924 401.064 57.6884 401.064C58.6844 401.064 59.5244 400.722 60.2084 400.038C60.8924 399.342 61.2344 398.496 61.2344 397.5C61.2344 396.504 60.8924 395.664 60.2084 394.98C59.5244 394.284 58.6844 393.936 57.6884 393.936C56.6924 393.936 55.8524 394.284 55.1684 394.98C54.4844 395.664 54.1424 396.504 54.1424 397.5C54.1424 398.496 54.4844 399.342 55.1684 400.038ZM74.8948 393H76.1188L73.3468 402H72.0508L69.7288 394.746L67.4068 402H66.1108L63.3388 393H64.5628L66.7768 400.47L69.1348 393H70.3228L72.6808 400.47L74.8948 393ZM90.1504 389.4H91.3384V402H90.1504V400.236C89.3224 401.556 88.1104 402.216 86.5144 402.216C85.2304 402.216 84.1324 401.76 83.2204 400.848C82.3204 399.936 81.8704 398.82 81.8704 397.5C81.8704 396.18 82.3204 395.064 83.2204 394.152C84.1324 393.24 85.2304 392.784 86.5144 392.784C88.1104 392.784 89.3224 393.444 90.1504 394.764V389.4ZM84.0844 400.038C84.7684 400.722 85.6084 401.064 86.6044 401.064C87.6004 401.064 88.4404 400.722 89.1244 400.038C89.8084 399.342 90.1504 398.496 90.1504 397.5C90.1504 396.504 89.8084 395.664 89.1244 394.98C88.4404 394.284 87.6004 393.936 86.6044 393.936C85.6084 393.936 84.7684 394.284 84.0844 394.98C83.4004 395.664 83.0584 396.504 83.0584 397.5C83.0584 398.496 83.4004 399.342 84.0844 400.038ZM95.0598 390.84C94.8918 391.008 94.6878 391.092 94.4478 391.092C94.2078 391.092 94.0038 391.008 93.8358 390.84C93.6678 390.672 93.5838 390.468 93.5838 390.228C93.5838 389.988 93.6678 389.784 93.8358 389.616C94.0038 389.448 94.2078 389.364 94.4478 389.364C94.6878 389.364 94.8918 389.448 95.0598 389.616C95.2278 389.784 95.3118 389.988 95.3118 390.228C95.3118 390.468 95.2278 390.672 95.0598 390.84ZM93.8538 402V393H95.0418V402H93.8538ZM105.303 389.4H106.491V402H105.303V400.236C104.475 401.556 103.263 402.216 101.667 402.216C100.383 402.216 99.2847 401.76 98.3727 400.848C97.4727 399.936 97.0227 398.82 97.0227 397.5C97.0227 396.18 97.4727 395.064 98.3727 394.152C99.2847 393.24 100.383 392.784 101.667 392.784C103.263 392.784 104.475 393.444 105.303 394.764V389.4ZM99.2367 400.038C99.9207 400.722 100.761 401.064 101.757 401.064C102.753 401.064 103.593 400.722 104.277 400.038C104.961 399.342 105.303 398.496 105.303 397.5C105.303 396.504 104.961 395.664 104.277 394.98C103.593 394.284 102.753 393.936 101.757 393.936C100.761 393.936 99.9207 394.284 99.2367 394.98C98.5527 395.664 98.2107 396.504 98.2107 397.5C98.2107 398.496 98.5527 399.342 99.2367 400.038ZM119.986 393H121.246L117.394 402.828C117.046 403.716 116.548 404.412 115.9 404.916C115.264 405.432 114.55 405.66 113.758 405.6V404.484C114.838 404.604 115.66 403.98 116.224 402.612L116.458 402.054L112.426 393H113.686L117.07 400.542L119.986 393ZM129.872 400.866C128.96 401.766 127.844 402.216 126.524 402.216C125.204 402.216 124.082 401.766 123.158 400.866C122.246 399.954 121.79 398.832 121.79 397.5C121.79 396.168 122.246 395.052 123.158 394.152C124.082 393.24 125.204 392.784 126.524 392.784C127.844 392.784 128.96 393.24 129.872 394.152C130.796 395.052 131.258 396.168 131.258 397.5C131.258 398.832 130.796 399.954 129.872 400.866ZM124.004 400.038C124.688 400.722 125.528 401.064 126.524 401.064C127.52 401.064 128.36 400.722 129.044 400.038C129.728 399.342 130.07 398.496 130.07 397.5C130.07 396.504 129.728 395.664 129.044 394.98C128.36 394.284 127.52 393.936 126.524 393.936C125.528 393.936 124.688 394.284 124.004 394.98C123.32 395.664 122.978 396.504 122.978 397.5C122.978 398.496 123.32 399.342 124.004 400.038ZM139.582 393H140.77V402H139.582V400.596C138.91 401.676 137.902 402.216 136.558 402.216C135.466 402.216 134.602 401.886 133.966 401.226C133.342 400.554 133.03 399.654 133.03 398.526V393H134.218V398.526C134.218 399.33 134.428 399.954 134.848 400.398C135.28 400.842 135.886 401.064 136.666 401.064C137.53 401.064 138.232 400.794 138.772 400.254C139.312 399.702 139.582 398.856 139.582 397.716V393ZM148.989 390.84C148.821 391.008 148.617 391.092 148.377 391.092C148.137 391.092 147.933 391.008 147.765 390.84C147.597 390.672 147.513 390.468 147.513 390.228C147.513 389.988 147.597 389.784 147.765 389.616C147.933 389.448 148.137 389.364 148.377 389.364C148.617 389.364 148.821 389.448 148.989 389.616C149.157 389.784 149.241 389.988 149.241 390.228C149.241 390.468 149.157 390.672 148.989 390.84ZM147.783 402V393H148.971V402H147.783ZM161.086 392.784C162.094 392.784 162.904 393.108 163.516 393.756C164.14 394.404 164.452 395.28 164.452 396.384V402H163.264V396.384C163.264 395.604 163.06 395.004 162.652 394.584C162.256 394.152 161.728 393.936 161.068 393.936C160.324 393.936 159.718 394.188 159.25 394.692C158.794 395.184 158.566 395.958 158.566 397.014V402H157.378V396.384C157.378 395.592 157.186 394.986 156.802 394.566C156.43 394.146 155.92 393.936 155.272 393.936C154.552 393.936 153.94 394.188 153.436 394.692C152.932 395.196 152.68 395.97 152.68 397.014V402H151.492V393H152.68V394.314C153.328 393.294 154.246 392.784 155.434 392.784C156.73 392.784 157.642 393.33 158.17 394.422C158.818 393.33 159.79 392.784 161.086 392.784ZM174.49 393H175.678V402H174.49V400.236C173.662 401.556 172.45 402.216 170.854 402.216C169.57 402.216 168.472 401.76 167.56 400.848C166.66 399.936 166.21 398.82 166.21 397.5C166.21 396.18 166.66 395.064 167.56 394.152C168.472 393.24 169.57 392.784 170.854 392.784C172.45 392.784 173.662 393.444 174.49 394.764V393ZM168.424 400.038C169.108 400.722 169.948 401.064 170.944 401.064C171.94 401.064 172.78 400.722 173.464 400.038C174.148 399.342 174.49 398.496 174.49 397.5C174.49 396.504 174.148 395.664 173.464 394.98C172.78 394.284 171.94 393.936 170.944 393.936C169.948 393.936 169.108 394.284 168.424 394.98C167.74 395.664 167.398 396.504 167.398 397.5C167.398 398.496 167.74 399.342 168.424 400.038ZM185.934 393H187.122V401.64C187.122 402.936 186.678 403.956 185.79 404.7C184.902 405.444 183.84 405.816 182.604 405.816C180.492 405.816 179.07 405.084 178.338 403.62L179.382 403.026C179.922 404.118 180.996 404.664 182.604 404.664C183.636 404.664 184.446 404.388 185.034 403.836C185.634 403.296 185.934 402.564 185.934 401.64V400.236C185.106 401.556 183.894 402.216 182.298 402.216C181.014 402.216 179.916 401.76 179.004 400.848C178.104 399.936 177.654 398.82 177.654 397.5C177.654 396.18 178.104 395.064 179.004 394.152C179.916 393.24 181.014 392.784 182.298 392.784C183.894 392.784 185.106 393.444 185.934 394.764V393ZM179.868 400.038C180.552 400.722 181.392 401.064 182.388 401.064C183.384 401.064 184.224 400.722 184.908 400.038C185.592 399.342 185.934 398.496 185.934 397.5C185.934 396.504 185.592 395.664 184.908 394.98C184.224 394.284 183.384 393.936 182.388 393.936C181.392 393.936 180.552 394.284 179.868 394.98C179.184 395.664 178.842 396.504 178.842 397.5C178.842 398.496 179.184 399.342 179.868 400.038ZM190.843 390.84C190.675 391.008 190.471 391.092 190.231 391.092C189.991 391.092 189.787 391.008 189.619 390.84C189.451 390.672 189.367 390.468 189.367 390.228C189.367 389.988 189.451 389.784 189.619 389.616C189.787 389.448 189.991 389.364 190.231 389.364C190.471 389.364 190.675 389.448 190.843 389.616C191.011 389.784 191.095 389.988 191.095 390.228C191.095 390.468 191.011 390.672 190.843 390.84ZM189.637 402V393H190.825V402H189.637ZM197.558 392.784C198.65 392.784 199.508 393.12 200.132 393.792C200.768 394.452 201.086 395.346 201.086 396.474V402H199.898V396.474C199.898 395.67 199.682 395.046 199.25 394.602C198.83 394.158 198.23 393.936 197.45 393.936C196.586 393.936 195.884 394.212 195.344 394.764C194.804 395.304 194.534 396.144 194.534 397.284V402H193.346V393H194.534V394.404C195.206 393.324 196.214 392.784 197.558 392.784ZM207.541 392.784C208.873 392.784 209.947 393.258 210.763 394.206C211.591 395.142 212.005 396.252 212.005 397.536C212.005 397.668 211.993 397.854 211.969 398.094H204.067C204.187 399.006 204.571 399.732 205.219 400.272C205.879 400.8 206.689 401.064 207.649 401.064C208.333 401.064 208.921 400.926 209.413 400.65C209.917 400.362 210.295 399.99 210.547 399.534L211.591 400.146C211.195 400.782 210.655 401.286 209.971 401.658C209.287 402.03 208.507 402.216 207.631 402.216C206.215 402.216 205.063 401.772 204.175 400.884C203.287 399.996 202.843 398.868 202.843 397.5C202.843 396.156 203.281 395.034 204.157 394.134C205.033 393.234 206.161 392.784 207.541 392.784ZM207.541 393.936C206.605 393.936 205.819 394.218 205.183 394.782C204.559 395.334 204.187 396.054 204.067 396.942H210.781C210.661 395.994 210.295 395.256 209.683 394.728C209.071 394.2 208.357 393.936 207.541 393.936ZM219.601 390.84C219.433 391.008 219.229 391.092 218.989 391.092C218.749 391.092 218.545 391.008 218.377 390.84C218.209 390.672 218.125 390.468 218.125 390.228C218.125 389.988 218.209 389.784 218.377 389.616C218.545 389.448 218.749 389.364 218.989 389.364C219.229 389.364 219.433 389.448 219.601 389.616C219.769 389.784 219.853 389.988 219.853 390.228C219.853 390.468 219.769 390.672 219.601 390.84ZM218.395 402V393H219.583V402H218.395ZM226.874 394.152H224.282V399.606C224.282 400.098 224.378 400.452 224.57 400.668C224.762 400.872 225.05 400.98 225.434 400.992C225.818 400.992 226.298 400.98 226.874 400.956V402C225.614 402.192 224.666 402.102 224.03 401.73C223.406 401.358 223.094 400.65 223.094 399.606V394.152H221.204V393H223.094V390.84L224.282 390.48V393H226.874V394.152ZM231.374 398.58C231.374 397.992 231.494 397.458 231.734 396.978C231.974 396.486 232.262 396.072 232.598 395.736C232.934 395.4 233.27 395.076 233.606 394.764C233.942 394.452 234.23 394.11 234.47 393.738C234.71 393.354 234.83 392.946 234.83 392.514C234.83 391.818 234.59 391.296 234.11 390.948C233.642 390.588 233.036 390.408 232.292 390.408C230.816 390.408 229.904 391.014 229.556 392.226L228.494 391.632C228.77 390.828 229.25 390.222 229.934 389.814C230.63 389.394 231.416 389.184 232.292 389.184C233.348 389.184 234.242 389.478 234.974 390.066C235.718 390.642 236.09 391.458 236.09 392.514C236.09 393.03 235.97 393.51 235.73 393.954C235.49 394.398 235.202 394.788 234.866 395.124C234.53 395.448 234.194 395.772 233.858 396.096C233.522 396.42 233.234 396.798 232.994 397.23C232.754 397.65 232.634 398.1 232.634 398.58H231.374ZM232.706 401.892C232.514 402.084 232.28 402.18 232.004 402.18C231.728 402.18 231.494 402.084 231.302 401.892C231.11 401.7 231.014 401.466 231.014 401.19C231.014 400.914 231.11 400.68 231.302 400.488C231.494 400.296 231.728 400.2 232.004 400.2C232.28 400.2 232.514 400.296 232.706 400.488C232.898 400.68 232.994 400.914 232.994 401.19C232.994 401.466 232.898 401.7 232.706 401.892Z" fill="#FFFAED"></path> </svg> 