<?xml version="1.0" encoding="UTF-8"?> <svg xmlns="http://www.w3.org/2000/svg" width="400" height="600" viewBox="0 0 400 600" fill="none"><rect width="400" height="600" rx="20" fill="#EEBF38"></rect><path d="M40.234 486.4H49.504V488.776H46.102V499H43.618V488.776H40.234V486.4ZM56.8159 497.884C55.9039 498.796 54.7759 499.252 53.4319 499.252C52.0879 499.252 50.9599 498.796 50.0479 497.884C49.1359 496.972 48.6799 495.844 48.6799 494.5C48.6799 493.168 49.1359 492.046 50.0479 491.134C50.9719 490.21 52.0999 489.748 53.4319 489.748C54.7639 489.748 55.8919 490.21 56.8159 491.134C57.7399 492.058 58.2019 493.18 58.2019 494.5C58.2019 495.832 57.7399 496.96 56.8159 497.884ZM51.6859 496.282C52.1539 496.75 52.7359 496.984 53.4319 496.984C54.1279 496.984 54.7099 496.75 55.1779 496.282C55.6459 495.814 55.8799 495.22 55.8799 494.5C55.8799 493.78 55.6459 493.186 55.1779 492.718C54.7099 492.25 54.1279 492.016 53.4319 492.016C52.7359 492.016 52.1539 492.25 51.6859 492.718C51.2299 493.198 51.0019 493.792 51.0019 494.5C51.0019 495.208 51.2299 495.802 51.6859 496.282ZM74.2894 489.748C75.3214 489.748 76.1434 490.084 76.7554 490.756C77.3794 491.428 77.6914 492.328 77.6914 493.456V499H75.3694V493.618C75.3694 493.078 75.2374 492.658 74.9734 492.358C74.7094 492.058 74.3374 491.908 73.8574 491.908C73.3294 491.908 72.9154 492.082 72.6154 492.43C72.3274 492.778 72.1834 493.282 72.1834 493.942V499H69.8614V493.618C69.8614 493.078 69.7294 492.658 69.4654 492.358C69.2014 492.058 68.8294 491.908 68.3494 491.908C67.8334 491.908 67.4194 492.088 67.1074 492.448C66.8074 492.796 66.6574 493.294 66.6574 493.942V499H64.3354V490H66.6574V490.954C67.1974 490.15 68.0314 489.748 69.1594 489.748C70.2754 489.748 71.0914 490.18 71.6074 491.044C72.1954 490.18 73.0894 489.748 74.2894 489.748ZM86.5036 491.062V490H88.8256V499H86.5036V497.938C85.8076 498.814 84.8296 499.252 83.5696 499.252C82.3696 499.252 81.3376 498.796 80.4736 497.884C79.6216 496.96 79.1956 495.832 79.1956 494.5C79.1956 493.18 79.6216 492.058 80.4736 491.134C81.3376 490.21 82.3696 489.748 83.5696 489.748C84.8296 489.748 85.8076 490.186 86.5036 491.062ZM82.2196 496.336C82.6876 496.804 83.2816 497.038 84.0016 497.038C84.7216 497.038 85.3156 496.804 85.7836 496.336C86.2636 495.856 86.5036 495.244 86.5036 494.5C86.5036 493.756 86.2636 493.15 85.7836 492.682C85.3156 492.202 84.7216 491.962 84.0016 491.962C83.2816 491.962 82.6876 492.202 82.2196 492.682C81.7516 493.15 81.5176 493.756 81.5176 494.5C81.5176 495.244 81.7516 495.856 82.2196 496.336ZM95.5031 494.446L99.2291 499H96.5291L93.2531 494.914V499H90.9311V486.4H93.2531V493.96L96.3491 490H99.1211L95.5031 494.446ZM108.486 495.454H101.7C102 496.582 102.846 497.146 104.238 497.146C105.126 497.146 105.798 496.846 106.254 496.246L108.126 497.326C107.238 498.61 105.93 499.252 104.202 499.252C102.714 499.252 101.52 498.802 100.62 497.902C99.7198 497.002 99.2698 495.868 99.2698 494.5C99.2698 493.156 99.7138 492.028 100.602 491.116C101.478 490.204 102.618 489.748 104.022 489.748C105.354 489.748 106.44 490.204 107.28 491.116C108.144 492.028 108.576 493.156 108.576 494.5C108.576 494.752 108.546 495.07 108.486 495.454ZM101.664 493.654H106.254C106.122 493.066 105.852 492.616 105.444 492.304C105.048 491.992 104.574 491.836 104.022 491.836C103.398 491.836 102.882 491.998 102.474 492.322C102.066 492.634 101.796 493.078 101.664 493.654ZM121.537 491.062V490H123.859V499H121.537V497.938C120.841 498.814 119.863 499.252 118.603 499.252C117.403 499.252 116.371 498.796 115.507 497.884C114.655 496.96 114.229 495.832 114.229 494.5C114.229 493.18 114.655 492.058 115.507 491.134C116.371 490.21 117.403 489.748 118.603 489.748C119.863 489.748 120.841 490.186 121.537 491.062ZM117.253 496.336C117.721 496.804 118.315 497.038 119.035 497.038C119.755 497.038 120.349 496.804 120.817 496.336C121.297 495.856 121.537 495.244 121.537 494.5C121.537 493.756 121.297 493.15 120.817 492.682C120.349 492.202 119.755 491.962 119.035 491.962C118.315 491.962 117.721 492.202 117.253 492.682C116.785 493.15 116.551 493.756 116.551 494.5C116.551 495.244 116.785 495.856 117.253 496.336ZM135.306 486.148V488.38C134.034 488.296 133.398 488.806 133.398 489.91V490H135.306V492.232H133.398V499H131.076V492.232H129.78V490H131.076V489.91C131.076 488.626 131.43 487.66 132.138 487.012C132.858 486.352 133.914 486.064 135.306 486.148ZM143.705 497.884C142.793 498.796 141.665 499.252 140.321 499.252C138.977 499.252 137.849 498.796 136.937 497.884C136.025 496.972 135.569 495.844 135.569 494.5C135.569 493.168 136.025 492.046 136.937 491.134C137.861 490.21 138.989 489.748 140.321 489.748C141.653 489.748 142.781 490.21 143.705 491.134C144.629 492.058 145.091 493.18 145.091 494.5C145.091 495.832 144.629 496.96 143.705 497.884ZM138.575 496.282C139.043 496.75 139.625 496.984 140.321 496.984C141.017 496.984 141.599 496.75 142.067 496.282C142.535 495.814 142.769 495.22 142.769 494.5C142.769 493.78 142.535 493.186 142.067 492.718C141.599 492.25 141.017 492.016 140.321 492.016C139.625 492.016 139.043 492.25 138.575 492.718C138.119 493.198 137.891 493.792 137.891 494.5C137.891 495.208 138.119 495.802 138.575 496.282ZM149.046 490V491.548C149.25 490.984 149.598 490.558 150.09 490.27C150.582 489.97 151.146 489.82 151.782 489.82V492.412C151.074 492.316 150.438 492.46 149.874 492.844C149.322 493.216 149.046 493.834 149.046 494.698V499H146.724V490H149.046ZM158.534 490V492.232H156.5V495.976C156.5 496.288 156.578 496.516 156.734 496.66C156.89 496.804 157.118 496.888 157.418 496.912C157.718 496.924 158.09 496.918 158.534 496.894V499C156.962 499.18 155.84 499.036 155.168 498.568C154.508 498.088 154.178 497.224 154.178 495.976V492.232H152.612V490H154.178V488.182L156.5 487.48V490H158.534ZM166.252 494.86V490H168.574V499H166.252V497.992C165.7 498.832 164.806 499.252 163.57 499.252C162.586 499.252 161.77 498.922 161.122 498.262C160.486 497.59 160.168 496.678 160.168 495.526V490H162.49V495.238C162.49 495.826 162.646 496.282 162.958 496.606C163.282 496.93 163.72 497.092 164.272 497.092C164.884 497.092 165.364 496.906 165.712 496.534C166.072 496.15 166.252 495.592 166.252 494.86ZM175.705 489.748C176.701 489.748 177.511 490.078 178.135 490.738C178.783 491.41 179.107 492.322 179.107 493.474V499H176.785V493.762C176.785 493.174 176.623 492.718 176.299 492.394C175.987 492.07 175.555 491.908 175.003 491.908C174.391 491.908 173.905 492.1 173.545 492.484C173.197 492.856 173.023 493.408 173.023 494.14V499H170.701V490H173.023V491.008C173.575 490.168 174.469 489.748 175.705 489.748ZM189.837 495.454H183.051C183.351 496.582 184.197 497.146 185.589 497.146C186.477 497.146 187.149 496.846 187.605 496.246L189.477 497.326C188.589 498.61 187.281 499.252 185.553 499.252C184.065 499.252 182.871 498.802 181.971 497.902C181.071 497.002 180.621 495.868 180.621 494.5C180.621 493.156 181.065 492.028 181.953 491.116C182.829 490.204 183.969 489.748 185.373 489.748C186.705 489.748 187.791 490.204 188.631 491.116C189.495 492.028 189.927 493.156 189.927 494.5C189.927 494.752 189.897 495.07 189.837 495.454ZM183.015 493.654H187.605C187.473 493.066 187.203 492.616 186.795 492.304C186.399 491.992 185.925 491.836 185.373 491.836C184.749 491.836 184.233 491.998 183.825 492.322C183.417 492.634 183.147 493.078 183.015 493.654ZM202.888 491.062V490H205.21V499H202.888V497.938C202.192 498.814 201.214 499.252 199.954 499.252C198.754 499.252 197.722 498.796 196.858 497.884C196.006 496.96 195.58 495.832 195.58 494.5C195.58 493.18 196.006 492.058 196.858 491.134C197.722 490.21 198.754 489.748 199.954 489.748C201.214 489.748 202.192 490.186 202.888 491.062ZM198.604 496.336C199.072 496.804 199.666 497.038 200.386 497.038C201.106 497.038 201.7 496.804 202.168 496.336C202.648 495.856 202.888 495.244 202.888 494.5C202.888 493.756 202.648 493.15 202.168 492.682C201.7 492.202 201.106 491.962 200.386 491.962C199.666 491.962 199.072 492.202 198.604 492.682C198.136 493.15 197.902 493.756 197.902 494.5C197.902 495.244 198.136 495.856 198.604 496.336ZM211.6 499.252C210.244 499.252 209.11 498.796 208.198 497.884C207.298 496.972 206.848 495.844 206.848 494.5C206.848 493.156 207.298 492.028 208.198 491.116C209.11 490.204 210.244 489.748 211.6 489.748C212.476 489.748 213.274 489.958 213.994 490.378C214.714 490.798 215.26 491.362 215.632 492.07L213.634 493.24C213.454 492.868 213.178 492.574 212.806 492.358C212.446 492.142 212.038 492.034 211.582 492.034C210.886 492.034 210.31 492.268 209.854 492.736C209.398 493.192 209.17 493.78 209.17 494.5C209.17 495.196 209.398 495.784 209.854 496.264C210.31 496.72 210.886 496.948 211.582 496.948C212.05 496.948 212.464 496.846 212.824 496.642C213.196 496.426 213.472 496.132 213.652 495.76L215.668 496.912C215.272 497.632 214.708 498.202 213.976 498.622C213.256 499.042 212.464 499.252 211.6 499.252ZM221.039 499.252C219.683 499.252 218.549 498.796 217.637 497.884C216.737 496.972 216.287 495.844 216.287 494.5C216.287 493.156 216.737 492.028 217.637 491.116C218.549 490.204 219.683 489.748 221.039 489.748C221.915 489.748 222.713 489.958 223.433 490.378C224.153 490.798 224.699 491.362 225.071 492.07L223.073 493.24C222.893 492.868 222.617 492.574 222.245 492.358C221.885 492.142 221.477 492.034 221.021 492.034C220.325 492.034 219.749 492.268 219.293 492.736C218.837 493.192 218.609 493.78 218.609 494.5C218.609 495.196 218.837 495.784 219.293 496.264C219.749 496.72 220.325 496.948 221.021 496.948C221.489 496.948 221.903 496.846 222.263 496.642C222.635 496.426 222.911 496.132 223.091 495.76L225.107 496.912C224.711 497.632 224.147 498.202 223.415 498.622C222.695 499.042 221.903 499.252 221.039 499.252ZM227.487 488.92C227.103 488.92 226.767 488.782 226.479 488.506C226.203 488.218 226.065 487.882 226.065 487.498C226.065 487.114 226.203 486.778 226.479 486.49C226.767 486.202 227.103 486.058 227.487 486.058C227.883 486.058 228.219 486.202 228.495 486.49C228.783 486.778 228.927 487.114 228.927 487.498C228.927 487.882 228.783 488.218 228.495 488.506C228.219 488.782 227.883 488.92 227.487 488.92ZM228.657 499H226.335V490H228.657V499ZM237.605 491.062V486.4H239.927V499H237.605V497.938C236.921 498.814 235.949 499.252 234.689 499.252C233.477 499.252 232.439 498.796 231.575 497.884C230.723 496.96 230.297 495.832 230.297 494.5C230.297 493.18 230.723 492.058 231.575 491.134C232.439 490.21 233.477 489.748 234.689 489.748C235.949 489.748 236.921 490.186 237.605 491.062ZM233.321 496.336C233.813 496.804 234.413 497.038 235.121 497.038C235.841 497.038 236.435 496.804 236.903 496.336C237.371 495.856 237.605 495.244 237.605 494.5C237.605 493.756 237.371 493.15 236.903 492.682C236.435 492.202 235.841 491.962 235.121 491.962C234.401 491.962 233.801 492.202 233.321 492.682C232.853 493.15 232.619 493.756 232.619 494.5C232.619 495.244 232.853 495.856 233.321 496.336ZM250.798 495.454H244.012C244.312 496.582 245.158 497.146 246.55 497.146C247.438 497.146 248.11 496.846 248.566 496.246L250.438 497.326C249.55 498.61 248.242 499.252 246.514 499.252C245.026 499.252 243.832 498.802 242.932 497.902C242.032 497.002 241.582 495.868 241.582 494.5C241.582 493.156 242.026 492.028 242.914 491.116C243.79 490.204 244.93 489.748 246.334 489.748C247.666 489.748 248.752 490.204 249.592 491.116C250.456 492.028 250.888 493.156 250.888 494.5C250.888 494.752 250.858 495.07 250.798 495.454ZM243.976 493.654H248.566C248.434 493.066 248.164 492.616 247.756 492.304C247.36 491.992 246.886 491.836 246.334 491.836C245.71 491.836 245.194 491.998 244.786 492.322C244.378 492.634 244.108 493.078 243.976 493.654ZM257.513 489.748C258.509 489.748 259.319 490.078 259.943 490.738C260.591 491.41 260.915 492.322 260.915 493.474V499H258.593V493.762C258.593 493.174 258.431 492.718 258.107 492.394C257.795 492.07 257.363 491.908 256.811 491.908C256.199 491.908 255.713 492.1 255.353 492.484C255.005 492.856 254.831 493.408 254.831 494.14V499H252.509V490H254.831V491.008C255.383 490.168 256.277 489.748 257.513 489.748ZM268.046 490V492.232H266.012V495.976C266.012 496.288 266.09 496.516 266.246 496.66C266.402 496.804 266.63 496.888 266.93 496.912C267.23 496.924 267.602 496.918 268.046 496.894V499C266.474 499.18 265.352 499.036 264.68 498.568C264.02 498.088 263.69 497.224 263.69 495.976V492.232H262.124V490H263.69V488.182L266.012 487.48V490H268.046ZM276.242 491.062V490H278.564V499H276.242V497.938C275.546 498.814 274.568 499.252 273.308 499.252C272.108 499.252 271.076 498.796 270.212 497.884C269.36 496.96 268.934 495.832 268.934 494.5C268.934 493.18 269.36 492.058 270.212 491.134C271.076 490.21 272.108 489.748 273.308 489.748C274.568 489.748 275.546 490.186 276.242 491.062ZM271.958 496.336C272.426 496.804 273.02 497.038 273.74 497.038C274.46 497.038 275.054 496.804 275.522 496.336C276.002 495.856 276.242 495.244 276.242 494.5C276.242 493.756 276.002 493.15 275.522 492.682C275.054 492.202 274.46 491.962 273.74 491.962C273.02 491.962 272.426 492.202 271.958 492.682C271.49 493.15 271.256 493.756 271.256 494.5C271.256 495.244 271.49 495.856 271.958 496.336ZM282.991 499H280.669V485.86H282.991V499ZM287.439 499H285.117V485.86H287.439V499ZM293.434 496.048L295.432 490H297.916L294.64 499C294.172 500.296 293.548 501.232 292.768 501.808C292 502.396 291.04 502.66 289.888 502.6V500.44C290.5 500.452 290.992 500.32 291.364 500.044C291.736 499.768 292.03 499.324 292.246 498.712L288.556 490H291.094L293.434 496.048ZM312.899 494.014H303.899V492.862H312.899V494.014ZM45.454 522.216C44.098 522.216 42.97 521.766 42.07 520.866C41.17 519.942 40.72 518.82 40.72 517.5C40.72 516.168 41.17 515.052 42.07 514.152C42.97 513.24 44.098 512.784 45.454 512.784C46.342 512.784 47.14 513 47.848 513.432C48.556 513.852 49.072 514.422 49.396 515.142L48.424 515.7C48.184 515.16 47.794 514.734 47.254 514.422C46.726 514.098 46.126 513.936 45.454 513.936C44.458 513.936 43.618 514.284 42.934 514.98C42.25 515.664 41.908 516.504 41.908 517.5C41.908 518.484 42.25 519.33 42.934 520.038C43.618 520.722 44.458 521.064 45.454 521.064C46.114 521.064 46.708 520.908 47.236 520.596C47.776 520.284 48.196 519.852 48.496 519.3L49.486 519.876C49.114 520.596 48.568 521.166 47.848 521.586C47.128 522.006 46.33 522.216 45.454 522.216ZM51.9519 513H58.3959V522H57.2079V514.152H53.1399V518.166C53.1399 519.666 52.8519 520.698 52.2759 521.262C51.7119 521.826 50.9319 522.072 49.9359 522V520.884C50.6319 520.956 51.1419 520.788 51.4659 520.38C51.7899 519.972 51.9519 519.234 51.9519 518.166V513ZM64.4763 520.542L67.3923 513H68.6523L64.8003 522.828C64.4403 523.74 63.9363 524.442 63.2883 524.934C62.6523 525.438 61.9443 525.66 61.1643 525.6V524.484C62.2443 524.616 63.0663 523.992 63.6303 522.612L63.8643 522.054L59.8323 513H61.0923L64.4763 520.542ZM75.9201 517.482V513H77.1081V522H75.9201V518.58C75.2241 518.94 74.3661 519.12 73.3461 519.12C72.1581 519.12 71.2581 518.85 70.6461 518.31C70.0341 517.758 69.7281 516.948 69.7281 515.88V513H70.9161V515.88C70.9161 516.624 71.1081 517.164 71.4921 517.5C71.8881 517.836 72.4941 518.004 73.3101 518.004C74.2221 518.004 75.0921 517.83 75.9201 517.482ZM87.373 514.764V513H88.561V522H87.373V520.236C86.545 521.556 85.333 522.216 83.737 522.216C82.453 522.216 81.355 521.76 80.443 520.848C79.543 519.936 79.093 518.82 79.093 517.5C79.093 516.18 79.543 515.064 80.443 514.152C81.355 513.24 82.453 512.784 83.737 512.784C85.333 512.784 86.545 513.444 87.373 514.764ZM81.307 520.038C81.991 520.722 82.831 521.064 83.827 521.064C84.823 521.064 85.663 520.722 86.347 520.038C87.031 519.33 87.373 518.484 87.373 517.5C87.373 516.504 87.031 515.664 86.347 514.98C85.663 514.284 84.823 513.936 83.827 513.936C82.831 513.936 81.991 514.284 81.307 514.98C80.623 515.664 80.281 516.504 80.281 517.5C80.281 518.484 80.623 519.33 81.307 520.038ZM97.1964 511.56H92.5164V510.516H97.1964V511.56ZM92.2644 519.93L97.6284 513H98.6364V522H97.4484V515.07L92.0844 522H91.0764V513H92.2644V519.93ZM107.521 516.924V513H108.709V522H107.521V518.076H102.337V522H101.149V513H102.337V516.924H107.521ZM118.763 520.866C117.839 521.766 116.723 522.216 115.415 522.216C114.083 522.216 112.961 521.766 112.049 520.866C111.137 519.954 110.681 518.832 110.681 517.5C110.681 516.168 111.137 515.052 112.049 514.152C112.961 513.24 114.083 512.784 115.415 512.784C116.735 512.784 117.851 513.24 118.763 514.152C119.687 515.052 120.149 516.168 120.149 517.5C120.149 518.82 119.687 519.942 118.763 520.866ZM112.895 520.038C113.579 520.722 114.419 521.064 115.415 521.064C116.411 521.064 117.251 520.722 117.935 520.038C118.619 519.33 118.961 518.484 118.961 517.5C118.961 516.504 118.619 515.664 117.935 514.98C117.251 514.284 116.411 513.936 115.415 513.936C114.419 513.936 113.579 514.284 112.895 514.98C112.211 515.664 111.869 516.504 111.869 517.5C111.869 518.484 112.211 519.33 112.895 520.038ZM131.461 512.784C132.745 512.784 133.837 513.24 134.737 514.152C135.649 515.064 136.105 516.18 136.105 517.5C136.105 518.82 135.649 519.936 134.737 520.848C133.837 521.76 132.745 522.216 131.461 522.216C129.865 522.216 128.653 521.556 127.825 520.236V525.6H126.637V513H127.825V514.764C128.653 513.444 129.865 512.784 131.461 512.784ZM128.851 520.038C129.535 520.722 130.375 521.064 131.371 521.064C132.367 521.064 133.207 520.722 133.891 520.038C134.575 519.33 134.917 518.484 134.917 517.5C134.917 516.504 134.575 515.664 133.891 514.98C133.207 514.284 132.367 513.936 131.371 513.936C130.375 513.936 129.535 514.284 128.851 514.98C128.167 515.664 127.825 516.504 127.825 517.5C127.825 518.484 128.167 519.33 128.851 520.038ZM145.82 514.764V513H147.008V522H145.82V520.236C144.992 521.556 143.78 522.216 142.184 522.216C140.9 522.216 139.802 521.76 138.89 520.848C137.99 519.936 137.54 518.82 137.54 517.5C137.54 516.18 137.99 515.064 138.89 514.152C139.802 513.24 140.9 512.784 142.184 512.784C143.78 512.784 144.992 513.444 145.82 514.764ZM139.754 520.038C140.438 520.722 141.278 521.064 142.274 521.064C143.27 521.064 144.11 520.722 144.794 520.038C145.478 519.33 145.82 518.484 145.82 517.5C145.82 516.504 145.478 515.664 144.794 514.98C144.11 514.284 143.27 513.936 142.274 513.936C141.278 513.936 140.438 514.284 139.754 514.98C139.07 515.664 138.728 516.504 138.728 517.5C138.728 518.484 139.07 519.33 139.754 520.038ZM154.168 517.374C155.212 517.77 155.734 518.49 155.734 519.534C155.734 520.29 155.44 520.926 154.852 521.442C154.288 521.958 153.46 522.216 152.368 522.216C150.544 522.216 149.356 521.496 148.804 520.056L149.812 519.462C150.196 520.53 151.048 521.064 152.368 521.064C153.052 521.064 153.586 520.92 153.97 520.632C154.354 520.332 154.546 519.942 154.546 519.462C154.546 519.03 154.39 518.688 154.078 518.436C153.766 518.172 153.346 518.04 152.818 518.04H151.504V516.888H152.458C152.974 516.888 153.376 516.762 153.664 516.51C153.964 516.246 154.114 515.886 154.114 515.43C154.114 514.998 153.934 514.644 153.574 514.368C153.226 514.08 152.764 513.936 152.188 513.936C151.072 513.936 150.322 514.386 149.938 515.286L148.948 514.71C149.548 513.426 150.628 512.784 152.188 512.784C153.148 512.784 153.904 513.036 154.456 513.54C155.02 514.032 155.302 514.638 155.302 515.358C155.302 516.282 154.924 516.954 154.168 517.374ZM161.535 522.216C160.251 522.216 159.171 521.79 158.295 520.938C157.431 520.074 156.999 518.958 156.999 517.59C156.999 516.054 157.227 514.878 157.683 514.062C158.139 513.234 159.063 512.484 160.455 511.812C160.899 511.608 161.247 511.452 161.499 511.344C161.919 511.176 162.249 511.032 162.489 510.912C163.533 510.432 164.061 509.838 164.073 509.13L165.009 509.67C164.949 509.97 164.853 510.24 164.721 510.48C164.565 510.744 164.409 510.954 164.253 511.11C164.109 511.266 163.881 511.434 163.569 511.614C163.365 511.734 163.119 511.866 162.831 512.01L161.931 512.388L161.085 512.748C160.257 513.108 159.639 513.486 159.231 513.882C158.835 514.266 158.553 514.77 158.385 515.394C158.769 514.878 159.273 514.488 159.897 514.224C160.521 513.948 161.151 513.81 161.787 513.81C162.987 513.81 163.977 514.206 164.757 514.998C165.549 515.778 165.945 516.78 165.945 518.004C165.945 519.216 165.525 520.224 164.685 521.028C163.857 521.82 162.807 522.216 161.535 522.216ZM159.195 520.146C159.819 520.734 160.599 521.028 161.535 521.028C162.471 521.028 163.239 520.746 163.839 520.182C164.451 519.606 164.757 518.88 164.757 518.004C164.757 517.116 164.469 516.39 163.893 515.826C163.329 515.25 162.573 514.962 161.625 514.962C160.773 514.962 159.999 515.232 159.303 515.772C158.607 516.288 158.259 516.996 158.259 517.896C158.259 518.808 158.571 519.558 159.195 520.146ZM175.294 520.866C174.37 521.766 173.254 522.216 171.946 522.216C170.614 522.216 169.492 521.766 168.58 520.866C167.668 519.954 167.212 518.832 167.212 517.5C167.212 516.168 167.668 515.052 168.58 514.152C169.492 513.24 170.614 512.784 171.946 512.784C173.266 512.784 174.382 513.24 175.294 514.152C176.218 515.052 176.68 516.168 176.68 517.5C176.68 518.82 176.218 519.942 175.294 520.866ZM169.426 520.038C170.11 520.722 170.95 521.064 171.946 521.064C172.942 521.064 173.782 520.722 174.466 520.038C175.15 519.33 175.492 518.484 175.492 517.5C175.492 516.504 175.15 515.664 174.466 514.98C173.782 514.284 172.942 513.936 171.946 513.936C170.95 513.936 170.11 514.284 169.426 514.98C168.742 515.664 168.4 516.504 168.4 517.5C168.4 518.484 168.742 519.33 169.426 520.038ZM178.668 513H184.428V514.152H179.856V522H178.668V513ZM193.264 514.764V513H194.452V522H193.264V520.236C192.436 521.556 191.224 522.216 189.628 522.216C188.344 522.216 187.246 521.76 186.334 520.848C185.434 519.936 184.984 518.82 184.984 517.5C184.984 516.18 185.434 515.064 186.334 514.152C187.246 513.24 188.344 512.784 189.628 512.784C191.224 512.784 192.436 513.444 193.264 514.764ZM187.198 520.038C187.882 520.722 188.722 521.064 189.718 521.064C190.714 521.064 191.554 520.722 192.238 520.038C192.922 519.33 193.264 518.484 193.264 517.5C193.264 516.504 192.922 515.664 192.238 514.98C191.554 514.284 190.714 513.936 189.718 513.936C188.722 513.936 187.882 514.284 187.198 514.98C186.514 515.664 186.172 516.504 186.172 517.5C186.172 518.484 186.514 519.33 187.198 520.038ZM195.887 513H203.447V514.152H200.261V522H199.073V514.152H195.887V513ZM208.701 512.784C210.045 512.784 211.119 513.258 211.923 514.206C212.751 515.142 213.165 516.252 213.165 517.536C213.165 517.596 213.153 517.782 213.129 518.094H205.227C205.347 518.994 205.731 519.714 206.379 520.254C207.027 520.794 207.837 521.064 208.809 521.064C210.177 521.064 211.143 520.554 211.707 519.534L212.751 520.146C212.355 520.794 211.809 521.304 211.113 521.676C210.429 522.036 209.655 522.216 208.791 522.216C207.375 522.216 206.223 521.772 205.335 520.884C204.447 519.996 204.003 518.868 204.003 517.5C204.003 516.144 204.441 515.022 205.317 514.134C206.193 513.234 207.321 512.784 208.701 512.784ZM208.701 513.936C207.765 513.936 206.979 514.212 206.343 514.764C205.719 515.316 205.347 516.042 205.227 516.942H211.941C211.809 515.982 211.443 515.244 210.843 514.728C210.219 514.2 209.505 513.936 208.701 513.936ZM213.623 513H221.183V514.152H217.997V522H216.809V514.152H213.623V513ZM223.819 516.42H226.285C227.113 516.42 227.821 516.684 228.409 517.212C228.997 517.728 229.291 518.394 229.291 519.21C229.291 520.038 228.997 520.71 228.409 521.226C227.845 521.742 227.137 522 226.285 522H222.631V513H223.819V516.42ZM223.819 520.848H226.285C226.801 520.848 227.233 520.698 227.581 520.398C227.929 520.086 228.103 519.69 228.103 519.21C228.103 518.73 227.929 518.34 227.581 518.04C227.233 517.728 226.801 517.572 226.285 517.572H223.819V520.848Z" fill="#FFFAED"></path><path d="M47.296 84.136V101H42.88V78.6H48.032L61.536 95.464V78.6H65.952V101H60.8L47.296 84.136ZM80.4918 97.768C82.6678 97.768 84.6518 97.352 86.9237 96.168L88.1718 99.496C86.0278 100.584 83.0198 101.576 80.0758 101.576C74.1238 101.576 70.1878 97.8 70.1878 93C70.1878 87.656 74.7318 84.456 80.0758 84.456C84.9398 84.456 88.5878 87.624 88.5878 91.944C88.5878 92.648 88.4918 93.384 88.2998 94.12H74.5398C75.1478 96.456 77.4838 97.768 80.4918 97.768ZM79.8198 88.008C77.0677 88.008 75.2758 89.064 74.6358 91.016H84.3318C83.9158 89.128 82.3158 88.008 79.8198 88.008ZM94.39 85L99.638 96.232L104.822 85H109.526L101.942 101H97.302L89.75 85H94.39ZM121.179 97.768C123.355 97.768 125.339 97.352 127.611 96.168L128.859 99.496C126.715 100.584 123.707 101.576 120.763 101.576C114.811 101.576 110.875 97.8 110.875 93C110.875 87.656 115.419 84.456 120.763 84.456C125.627 84.456 129.275 87.624 129.275 91.944C129.275 92.648 129.179 93.384 128.987 94.12H115.227C115.835 96.456 118.171 97.768 121.179 97.768ZM120.507 88.008C117.755 88.008 115.963 89.064 115.323 91.016H125.019C124.603 89.128 123.003 88.008 120.507 88.008ZM142.982 84.456C143.878 84.456 144.87 84.712 145.67 85.096L144.774 88.936C144.006 88.584 143.174 88.392 142.566 88.392C139.91 88.392 137.062 90.12 137.062 93.064V101H132.838V85H137.062V88.552C137.99 86.824 140.198 84.456 142.982 84.456ZM166.436 88.424C163.78 88.424 161.124 89.896 161.124 93.064V101H156.9V77.288H161.124V88.552C162.244 86.472 164.612 84.52 167.652 84.52C172.004 84.52 174.5 87.4 174.5 91.752V101H170.276V92.264C170.276 89.992 168.964 88.424 166.436 88.424ZM184.75 91.88C186.478 91.88 188.75 92.392 190.126 92.872V91.016C190.126 89.352 189.038 88.232 187.022 88.232C185.358 88.232 182.926 88.968 180.59 89.832L179.534 85.992C181.518 85.352 184.878 84.36 187.406 84.36C191.79 84.36 194.35 86.696 194.35 91.08V96.84C194.35 97.32 194.67 97.608 195.118 97.608C195.598 97.608 196.43 97.256 197.358 96.776L198.222 100.04C196.462 101 194.542 101.64 193.23 101.64C191.086 101.64 190.19 100.136 190.126 98.344C188.59 100.168 186.158 101.64 183.438 101.64C180.43 101.64 178.19 99.656 178.19 96.776C178.19 93.352 181.454 91.88 184.75 91.88ZM184.814 98.024C186.414 98.024 188.622 97.16 190.126 95.688V95.08C188.366 94.76 186.51 94.6 184.974 94.6C183.566 94.6 182.51 95.272 182.51 96.424C182.51 97.48 183.47 98.024 184.814 98.024ZM202.859 85L208.107 96.232L213.291 85H217.995L210.411 101H205.771L198.219 85H202.859ZM229.648 97.768C231.824 97.768 233.808 97.352 236.08 96.168L237.328 99.496C235.184 100.584 232.176 101.576 229.232 101.576C223.28 101.576 219.344 97.8 219.344 93C219.344 87.656 223.888 84.456 229.232 84.456C234.096 84.456 237.744 87.624 237.744 91.944C237.744 92.648 237.648 93.384 237.456 94.12H223.696C224.304 96.456 226.64 97.768 229.648 97.768ZM228.976 88.008C226.224 88.008 224.432 89.064 223.792 91.016H233.488C233.072 89.128 231.472 88.008 228.976 88.008ZM255.265 78.6V101H250.849V78.6H255.265ZM278.867 97.768C281.043 97.768 283.027 97.352 285.299 96.168L286.547 99.496C284.403 100.584 281.395 101.576 278.451 101.576C272.499 101.576 268.563 97.8 268.563 93C268.563 87.656 273.107 84.456 278.451 84.456C283.315 84.456 286.963 87.624 286.963 91.944C286.963 92.648 286.867 93.384 286.675 94.12H272.915C273.523 96.456 275.859 97.768 278.867 97.768ZM278.195 88.008C275.443 88.008 273.651 89.064 273.011 91.016H282.707C282.291 89.128 280.691 88.008 278.195 88.008ZM292.765 85L298.013 96.232L303.197 85H307.901L300.317 101H295.677L288.125 85H292.765ZM319.554 97.768C321.73 97.768 323.714 97.352 325.986 96.168L327.234 99.496C325.09 100.584 322.082 101.576 319.138 101.576C313.186 101.576 309.25 97.8 309.25 93C309.25 87.656 313.794 84.456 319.138 84.456C324.002 84.456 327.65 87.624 327.65 91.944C327.65 92.648 327.554 93.384 327.362 94.12H313.602C314.21 96.456 316.546 97.768 319.554 97.768ZM318.882 88.008C316.13 88.008 314.338 89.064 313.698 91.016H323.394C322.978 89.128 321.378 88.008 318.882 88.008ZM341.357 84.456C342.253 84.456 343.245 84.712 344.045 85.096L343.149 88.936C342.381 88.584 341.549 88.392 340.941 88.392C338.285 88.392 335.437 90.12 335.437 93.064V101H331.213V85H335.437V88.552C336.365 86.824 338.573 84.456 341.357 84.456ZM49.408 141.544C45.024 141.544 41.344 138.344 41.344 133.16C41.344 128.36 45.376 124.424 50.752 124.424C52.48 124.424 54.688 125.064 56.288 125.576V117H60.512V141H56.288V137.448C55.232 139.656 52.672 141.544 49.408 141.544ZM50.656 137.608C53.472 137.608 56.288 135.624 56.288 132.552V129.096C54.432 128.552 52.64 128.136 50.688 128.136C47.808 128.136 45.6 130.312 45.6 133.128C45.6 136.008 47.808 137.608 50.656 137.608ZM75.4503 124.456C76.3463 124.456 77.3383 124.712 78.1383 125.096L77.2423 128.936C76.4743 128.584 75.6423 128.392 75.0343 128.392C72.3783 128.392 69.5303 130.12 69.5303 133.064V141H65.3063V125H69.5303V128.552C70.4583 126.824 72.6663 124.456 75.4503 124.456ZM89.5543 137.768C91.7303 137.768 93.7143 137.352 95.9862 136.168L97.2343 139.496C95.0903 140.584 92.0823 141.576 89.1383 141.576C83.1863 141.576 79.2503 137.8 79.2503 133C79.2503 127.656 83.7943 124.456 89.1383 124.456C94.0023 124.456 97.6503 127.624 97.6503 131.944C97.6503 132.648 97.5543 133.384 97.3623 134.12H83.6023C84.2103 136.456 86.5463 137.768 89.5543 137.768ZM88.8823 128.008C86.1302 128.008 84.3383 129.064 83.6983 131.016H93.3943C92.9783 129.128 91.3783 128.008 88.8823 128.008ZM106.812 131.88C108.541 131.88 110.813 132.392 112.189 132.872V131.016C112.189 129.352 111.101 128.232 109.085 128.232C107.421 128.232 104.989 128.968 102.653 129.832L101.597 125.992C103.581 125.352 106.941 124.36 109.469 124.36C113.853 124.36 116.413 126.696 116.413 131.08V136.84C116.413 137.32 116.733 137.608 117.181 137.608C117.661 137.608 118.493 137.256 119.421 136.776L120.285 140.04C118.525 141 116.605 141.64 115.293 141.64C113.149 141.64 112.253 140.136 112.189 138.344C110.653 140.168 108.22 141.64 105.501 141.64C102.493 141.64 100.253 139.656 100.253 136.776C100.253 133.352 103.516 131.88 106.812 131.88ZM106.877 138.024C108.477 138.024 110.685 137.16 112.189 135.688V135.08C110.429 134.76 108.573 134.6 107.036 134.6C105.629 134.6 104.573 135.272 104.573 136.424C104.573 137.48 105.533 138.024 106.877 138.024ZM132.921 124.52C135.929 124.52 137.881 126.024 138.777 128.424C140.057 126.504 142.617 124.52 145.305 124.52C149.465 124.52 151.673 127.368 151.673 131.592V141H147.449V132.104C147.449 129.992 146.201 128.424 143.865 128.424C141.657 128.424 139.289 129.992 139.289 133.032V141H135.065V132.104C135.065 129.992 133.817 128.424 131.481 128.424C129.273 128.424 126.905 129.96 126.905 133.032V141H122.681V125H126.905V128.392C127.961 126.504 130.137 124.52 132.921 124.52ZM165.554 137.768C167.73 137.768 169.714 137.352 171.986 136.168L173.234 139.496C171.09 140.584 168.082 141.576 165.138 141.576C159.186 141.576 155.25 137.8 155.25 133C155.25 127.656 159.794 124.456 165.138 124.456C170.002 124.456 173.65 127.624 173.65 131.944C173.65 132.648 173.554 133.384 173.362 134.12H159.602C160.21 136.456 162.546 137.768 165.554 137.768ZM164.882 128.008C162.13 128.008 160.338 129.064 159.698 131.016H169.394C168.978 129.128 167.378 128.008 164.882 128.008ZM184.22 141.544C179.837 141.544 176.157 138.344 176.157 133.16C176.157 128.36 180.189 124.424 185.565 124.424C187.293 124.424 189.501 125.064 191.101 125.576V117H195.325V141H191.101V137.448C190.045 139.656 187.485 141.544 184.22 141.544ZM185.469 137.608C188.285 137.608 191.101 135.624 191.101 132.552V129.096C189.245 128.552 187.453 128.136 185.501 128.136C182.621 128.136 180.413 130.312 180.413 133.128C180.413 136.008 182.621 137.608 185.469 137.608ZM214.781 131.88C216.509 131.88 218.781 132.392 220.157 132.872V131.016C220.157 129.352 219.069 128.232 217.053 128.232C215.389 128.232 212.957 128.968 210.621 129.832L209.565 125.992C211.549 125.352 214.909 124.36 217.437 124.36C221.821 124.36 224.381 126.696 224.381 131.08V136.84C224.381 137.32 224.701 137.608 225.149 137.608C225.629 137.608 226.461 137.256 227.389 136.776L228.253 140.04C226.493 141 224.573 141.64 223.261 141.64C221.117 141.64 220.221 140.136 220.157 138.344C218.621 140.168 216.189 141.64 213.469 141.64C210.461 141.64 208.221 139.656 208.221 136.776C208.221 133.352 211.485 131.88 214.781 131.88ZM214.845 138.024C216.445 138.024 218.653 137.16 220.157 135.688V135.08C218.397 134.76 216.541 134.6 215.005 134.6C213.597 134.6 212.541 135.272 212.541 136.424C212.541 137.48 213.501 138.024 214.845 138.024ZM241.626 124.456C245.882 124.456 249.562 127.656 249.562 132.84C249.562 137.64 245.53 141.576 240.282 141.576C237.082 141.576 232.73 140.328 230.65 139.4V117H234.874V128.552C235.93 126.344 238.458 124.456 241.626 124.456ZM240.378 128.392C237.69 128.392 234.874 130.12 234.874 133.064V136.936C236.73 137.544 238.394 137.864 240.346 137.864C242.97 137.864 245.306 135.528 245.306 132.84C245.306 129.96 243.162 128.392 240.378 128.392ZM262.202 124.456C267.546 124.456 272.154 127.496 272.154 132.84C272.154 137.64 267.994 141.576 262.202 141.576C256.41 141.576 252.25 137.64 252.25 132.84C252.25 127.496 256.858 124.456 262.202 124.456ZM262.202 128.136C258.874 128.136 256.506 129.864 256.506 132.84C256.506 135.528 259.034 137.928 262.202 137.928C265.37 137.928 267.898 135.528 267.898 132.84C267.898 129.864 265.53 128.136 262.202 128.136ZM282.46 141.512C278.172 141.512 275.74 138.632 275.74 134.28V125H279.964V133.736C279.964 136.328 281.5 137.608 284.028 137.608C286.716 137.608 288.988 136.136 288.988 132.744V125H293.212V141H288.988V137.48C287.836 139.752 285.372 141.512 282.46 141.512ZM296.265 128.68V125.32L299.433 125.128L300.009 120.2H303.529V125H310.185V128.68H303.529V134.728C303.529 136.456 304.457 137.64 306.121 137.64C307.369 137.64 308.777 137.128 309.801 136.488L310.729 140.104C309.385 140.808 307.113 141.544 305.417 141.544C301.449 141.544 299.305 138.92 299.305 134.888V128.68H296.265ZM52.64 164.52C55.648 164.52 57.6 166.024 58.496 168.424C59.776 166.504 62.336 164.52 65.024 164.52C69.184 164.52 71.392 167.368 71.392 171.592V181H67.168V172.104C67.168 169.992 65.92 168.424 63.584 168.424C61.376 168.424 59.008 169.992 59.008 173.032V181H54.784V172.104C54.784 169.992 53.536 168.424 51.2 168.424C48.992 168.424 46.624 169.96 46.624 173.032V181H42.4V165H46.624V168.392C47.68 166.504 49.856 164.52 52.64 164.52ZM81.625 171.88C83.353 171.88 85.625 172.392 87.001 172.872V171.016C87.001 169.352 85.913 168.232 83.897 168.232C82.233 168.232 79.801 168.968 77.465 169.832L76.409 165.992C78.393 165.352 81.753 164.36 84.281 164.36C88.665 164.36 91.225 166.696 91.225 171.08V176.84C91.225 177.32 91.545 177.608 91.993 177.608C92.473 177.608 93.305 177.256 94.233 176.776L95.097 180.04C93.337 181 91.417 181.64 90.105 181.64C87.961 181.64 87.065 180.136 87.001 178.344C85.465 180.168 83.033 181.64 80.313 181.64C77.305 181.64 75.065 179.656 75.065 176.776C75.065 173.352 78.329 171.88 81.625 171.88ZM81.689 178.024C83.289 178.024 85.497 177.16 87.001 175.688V175.08C85.241 174.76 83.385 174.6 81.849 174.6C80.441 174.6 79.385 175.272 79.385 176.424C79.385 177.48 80.345 178.024 81.689 178.024ZM101.654 157V181H97.4938V157H101.654ZM107.51 179.848L101.878 173.288L109.11 165H114.518L106.806 173.16L110.55 177.032C110.838 177.32 111.158 177.416 111.51 177.416C112.15 177.416 112.854 177.064 113.622 176.744L114.614 180.168C113.142 180.808 111.766 181.416 110.486 181.416C109.398 181.416 108.374 180.872 107.51 179.848ZM122.03 165V181H117.87V165H122.03ZM117.422 160.392C117.422 159.016 118.542 157.896 119.95 157.896C121.358 157.896 122.478 159.016 122.478 160.392C122.478 161.8 121.358 162.92 119.95 162.92C118.542 162.92 117.422 161.8 117.422 160.392ZM136.436 168.424C133.78 168.424 131.124 169.896 131.124 173.064V181H126.9V165H131.124V168.552C132.244 166.472 134.612 164.52 137.652 164.52C142.004 164.52 144.5 167.4 144.5 171.752V181H140.276V172.264C140.276 169.992 138.964 168.424 136.436 168.424ZM154.846 178.888H157.022C162.494 178.888 166.526 180.328 166.526 183.656C166.526 187.304 162.494 189.096 157.022 189.096C151.198 189.096 147.422 187.336 147.422 183.976C147.422 182.28 149.118 180.712 150.718 180.296C149.854 179.88 149.182 178.76 149.182 177.736C149.182 176.68 150.11 175.848 150.91 175.336C149.438 174.376 148.062 172.616 148.062 170.888C148.062 166.664 151.998 164.456 156.382 164.456C158.11 164.456 159.774 164.808 161.15 165.48C162.366 164.488 163.966 163.72 166.014 163.368L166.782 167.304C165.662 167.432 164.766 167.656 163.998 168.04C164.446 168.84 164.734 169.8 164.734 170.888C164.734 174.536 161.214 177.288 156.382 177.288C155.582 177.288 154.782 177.224 154.046 177.096C153.662 177.192 153.246 177.512 153.246 177.96C153.246 178.504 153.79 178.888 154.846 178.888ZM156.35 167.944C154.046 167.944 152.318 168.936 152.318 170.76C152.318 172.36 154.046 173.512 156.35 173.512C158.782 173.512 160.35 172.264 160.35 170.76C160.35 168.936 158.622 167.944 156.35 167.944ZM156.958 182.472C156.318 182.472 153.342 182.472 152.798 182.504C152.094 182.792 151.486 183.336 151.486 183.976C151.486 185.128 153.438 185.64 156.958 185.64C160.254 185.64 162.43 185.192 162.43 184.008C162.43 182.92 160.254 182.472 156.958 182.472ZM184 171.88C185.728 171.88 188 172.392 189.376 172.872V171.016C189.376 169.352 188.288 168.232 186.272 168.232C184.608 168.232 182.176 168.968 179.84 169.832L178.784 165.992C180.768 165.352 184.128 164.36 186.656 164.36C191.04 164.36 193.6 166.696 193.6 171.08V176.84C193.6 177.32 193.92 177.608 194.368 177.608C194.848 177.608 195.68 177.256 196.608 176.776L197.472 180.04C195.712 181 193.792 181.64 192.48 181.64C190.336 181.64 189.44 180.136 189.376 178.344C187.84 180.168 185.408 181.64 182.688 181.64C179.68 181.64 177.44 179.656 177.44 176.776C177.44 173.352 180.704 171.88 184 171.88ZM184.064 178.024C185.664 178.024 187.872 177.16 189.376 175.688V175.08C187.616 174.76 185.76 174.6 184.224 174.6C182.816 174.6 181.76 175.272 181.76 176.424C181.76 177.48 182.72 178.024 184.064 178.024ZM216.323 160.424C214.787 160.424 213.827 161.224 213.827 162.952V165H221.091V168.68H213.987V181H209.827V168.68H207.171V165H209.795V162.76C209.795 159.08 212.515 156.68 216.451 156.68C218.275 156.68 220.195 157.128 221.699 157.64L220.675 161.512C219.203 160.872 217.699 160.424 216.323 160.424ZM232.64 164.456C237.984 164.456 242.592 167.496 242.592 172.84C242.592 177.64 238.432 181.576 232.64 181.576C226.848 181.576 222.688 177.64 222.688 172.84C222.688 167.496 227.296 164.456 232.64 164.456ZM232.64 168.136C229.312 168.136 226.944 169.864 226.944 172.84C226.944 175.528 229.472 177.928 232.64 177.928C235.808 177.928 238.336 175.528 238.336 172.84C238.336 169.864 235.968 168.136 232.64 168.136ZM256.482 164.456C257.378 164.456 258.37 164.712 259.17 165.096L258.274 168.936C257.506 168.584 256.674 168.392 256.066 168.392C253.41 168.392 250.562 170.12 250.562 173.064V181H246.338V165H250.562V168.552C251.49 166.824 253.698 164.456 256.482 164.456ZM259.578 168.68V165.32L262.746 165.128L263.322 160.2H266.842V165H273.498V168.68H266.842V174.728C266.842 176.456 267.77 177.64 269.434 177.64C270.682 177.64 272.09 177.128 273.114 176.488L274.042 180.104C272.698 180.808 270.426 181.544 268.73 181.544C264.762 181.544 262.618 178.92 262.618 174.888V168.68H259.578ZM283.804 181.512C279.516 181.512 277.084 178.632 277.084 174.28V165H281.308V173.736C281.308 176.328 282.844 177.608 285.372 177.608C288.06 177.608 290.332 176.136 290.332 172.744V165H294.556V181H290.332V177.48C289.18 179.752 286.716 181.512 283.804 181.512ZM308.905 168.424C306.249 168.424 303.593 169.896 303.593 173.064V181H299.369V165H303.593V168.552C304.713 166.472 307.081 164.52 310.121 164.52C314.473 164.52 316.969 167.4 316.969 171.752V181H312.745V172.264C312.745 169.992 311.433 168.424 308.905 168.424ZM330.867 177.768C333.043 177.768 335.027 177.352 337.299 176.168L338.547 179.496C336.403 180.584 333.395 181.576 330.451 181.576C324.499 181.576 320.563 177.8 320.563 173C320.563 167.656 325.107 164.456 330.451 164.456C335.315 164.456 338.963 167.624 338.963 171.944C338.963 172.648 338.867 173.384 338.675 174.12H324.915C325.523 176.456 327.859 177.768 330.867 177.768ZM330.195 168.008C327.443 168.008 325.651 169.064 325.011 171.016H334.707C334.291 169.128 332.691 168.008 330.195 168.008ZM48 211.88C49.728 211.88 52 212.392 53.376 212.872V211.016C53.376 209.352 52.288 208.232 50.272 208.232C48.608 208.232 46.176 208.968 43.84 209.832L42.784 205.992C44.768 205.352 48.128 204.36 50.656 204.36C55.04 204.36 57.6 206.696 57.6 211.08V216.84C57.6 217.32 57.92 217.608 58.368 217.608C58.848 217.608 59.68 217.256 60.608 216.776L61.472 220.04C59.712 221 57.792 221.64 56.48 221.64C54.336 221.64 53.44 220.136 53.376 218.344C51.84 220.168 49.408 221.64 46.688 221.64C43.68 221.64 41.44 219.656 41.44 216.776C41.44 213.352 44.704 211.88 48 211.88ZM48.064 218.024C49.664 218.024 51.872 217.16 53.376 215.688V215.08C51.616 214.76 49.76 214.6 48.224 214.6C46.816 214.6 45.76 215.272 45.76 216.424C45.76 217.48 46.72 218.024 48.064 218.024ZM72.7008 204.456C75.3568 204.456 77.7888 205.064 79.7088 205.736L78.6848 209.512C76.4768 208.616 74.6208 208.168 72.4448 208.168C69.3728 208.168 67.0688 209.928 67.0688 212.84C67.0688 215.912 69.6288 217.768 72.9568 217.768C75.2928 217.768 76.9888 217.096 79.1007 216.168L80.3488 219.496C78.1728 220.648 75.4208 221.576 72.4128 221.576C66.4608 221.576 62.8128 217.8 62.8128 213C62.8128 207.656 67.3568 204.456 72.7008 204.456ZM92.3883 204.456C95.0443 204.456 97.4763 205.064 99.3963 205.736L98.3723 209.512C96.1643 208.616 94.3083 208.168 92.1323 208.168C89.0603 208.168 86.7563 209.928 86.7563 212.84C86.7563 215.912 89.3163 217.768 92.6443 217.768C94.9803 217.768 96.6763 217.096 98.7882 216.168L100.036 219.496C97.8603 220.648 95.1083 221.576 92.1003 221.576C86.1483 221.576 82.5003 217.8 82.5003 213C82.5003 207.656 87.0443 204.456 92.3883 204.456ZM107.468 205V221H103.308V205H107.468ZM102.86 200.392C102.86 199.016 103.98 197.896 105.388 197.896C106.796 197.896 107.916 199.016 107.916 200.392C107.916 201.8 106.796 202.92 105.388 202.92C103.98 202.92 102.86 201.8 102.86 200.392ZM119.345 221.544C114.962 221.544 111.282 218.344 111.282 213.16C111.282 208.36 115.314 204.424 120.69 204.424C122.418 204.424 124.626 205.064 126.226 205.576V197H130.45V221H126.226V217.448C125.17 219.656 122.61 221.544 119.345 221.544ZM120.594 217.608C123.41 217.608 126.226 215.624 126.226 212.552V209.096C124.37 208.552 122.578 208.136 120.626 208.136C117.746 208.136 115.538 210.312 115.538 213.128C115.538 216.008 117.746 217.608 120.594 217.608ZM144.492 217.768C146.668 217.768 148.652 217.352 150.924 216.168L152.172 219.496C150.028 220.584 147.02 221.576 144.076 221.576C138.124 221.576 134.188 217.8 134.188 213C134.188 207.656 138.732 204.456 144.076 204.456C148.94 204.456 152.588 207.624 152.588 211.944C152.588 212.648 152.492 213.384 152.3 214.12H138.54C139.148 216.456 141.484 217.768 144.492 217.768ZM143.82 208.008C141.068 208.008 139.276 209.064 138.636 211.016H148.332C147.916 209.128 146.316 208.008 143.82 208.008ZM165.686 208.424C163.03 208.424 160.374 209.896 160.374 213.064V221H156.15V205H160.374V208.552C161.494 206.472 163.862 204.52 166.902 204.52C171.254 204.52 173.75 207.4 173.75 211.752V221H169.526V212.264C169.526 209.992 168.214 208.424 165.686 208.424ZM176.64 208.68V205.32L179.808 205.128L180.384 200.2H183.904V205H190.56V208.68H183.904V214.728C183.904 216.456 184.832 217.64 186.496 217.64C187.744 217.64 189.152 217.128 190.176 216.488L191.104 220.104C189.76 220.808 187.488 221.544 185.792 221.544C181.824 221.544 179.68 218.92 179.68 214.888V208.68H176.64ZM199.906 211.88C201.634 211.88 203.906 212.392 205.282 212.872V211.016C205.282 209.352 204.194 208.232 202.178 208.232C200.514 208.232 198.082 208.968 195.746 209.832L194.69 205.992C196.674 205.352 200.034 204.36 202.562 204.36C206.946 204.36 209.506 206.696 209.506 211.08V216.84C209.506 217.32 209.826 217.608 210.274 217.608C210.754 217.608 211.586 217.256 212.514 216.776L213.378 220.04C211.618 221 209.698 221.64 208.386 221.64C206.242 221.64 205.346 220.136 205.282 218.344C203.746 220.168 201.314 221.64 198.594 221.64C195.586 221.64 193.346 219.656 193.346 216.776C193.346 213.352 196.61 211.88 199.906 211.88ZM199.97 218.024C201.57 218.024 203.778 217.16 205.282 215.688V215.08C203.522 214.76 201.666 214.6 200.13 214.6C198.722 214.6 197.666 215.272 197.666 216.424C197.666 217.48 198.626 218.024 199.97 218.024ZM219.967 221H215.775V197H219.967V221ZM228.967 221H224.775V197H228.967V221ZM251.215 205L243.503 222.312C241.967 225.736 240.495 229 235.983 229C235.759 229 235.055 228.936 234.511 228.84L234.735 224.776C235.311 224.872 235.951 224.936 236.175 224.936C237.871 224.936 238.767 223.176 239.567 221.384C239.567 221.32 239.631 221.256 239.631 221.224L231.375 205H235.983L241.711 216.424C243.375 212.552 245.135 208.424 246.575 205H251.215ZM43.114 277.636C43.114 280.138 43.996 283 45.148 284.602C45.148 284.602 44.086 285.322 44.086 285.34C42.664 283.432 41.44 280.642 41.44 277.636C41.44 274.63 42.664 271.84 44.086 269.932C44.086 269.95 45.148 270.67 45.148 270.67C43.996 272.272 43.114 275.134 43.114 277.636ZM46.5827 275.368V274H48.2027V272.686C48.2027 270.67 49.4807 269.356 51.6047 269.356C52.4507 269.356 53.5127 269.572 54.2147 269.806L53.8187 271.282C53.1527 270.994 52.2347 270.814 51.5507 270.814C50.4887 270.814 49.8047 271.48 49.8047 272.758V274H53.8907V275.368H49.8947V283H48.2207V275.368H46.5827ZM60.5006 273.712C63.3266 273.712 65.7566 275.386 65.7566 278.392C65.7566 281.11 63.5606 283.306 60.5006 283.306C57.4406 283.306 55.2446 281.11 55.2446 278.392C55.2446 275.386 57.6746 273.712 60.5006 273.712ZM60.5006 275.08C58.4306 275.08 56.9726 276.268 56.9726 278.392C56.9726 280.3 58.5386 281.938 60.5006 281.938C62.4626 281.938 64.0286 280.3 64.0286 278.392C64.0286 276.268 62.5706 275.08 60.5006 275.08ZM73.6132 273.766C74.0812 273.766 74.6572 273.892 75.0532 274.036L74.7112 275.53C74.4052 275.422 73.9912 275.332 73.5952 275.332C71.8312 275.332 69.8332 276.538 69.8332 278.806V283H68.1412V274H69.8332V275.944C70.5532 274.792 71.9212 273.766 73.6132 273.766ZM86.6732 283.288C83.6132 283.288 81.4712 281.218 81.4712 278.392C81.4712 275.386 83.8292 273.712 86.6552 273.712C89.2652 273.712 91.0832 275.512 91.0832 278.032C91.0832 278.23 91.0652 278.518 91.0472 278.734H83.1992C83.3612 280.606 84.8732 281.794 86.7272 281.794C88.0592 281.794 89.2472 281.47 90.4712 280.93L90.9932 282.244C89.8952 282.73 88.1492 283.288 86.6732 283.288ZM83.3072 277.384H89.3552C89.1572 275.89 88.0232 275.08 86.5292 275.08C84.8912 275.08 83.6672 275.836 83.3072 277.384ZM92.2837 283L96.3877 278.482L92.2837 274H94.5157L97.5397 277.33L100.456 274H102.634L98.5657 278.464L102.706 283H100.528L97.4317 279.616L94.4617 283H92.2837ZM110.758 281.578V281.362C109.84 282.424 108.436 283.288 106.852 283.288C105.304 283.288 104.062 282.334 104.062 280.804C104.062 278.986 105.592 277.996 107.446 277.996C108.526 277.996 109.948 278.356 110.758 278.626V277.366C110.758 276.07 110.128 275.188 108.67 275.188C107.572 275.188 106.222 275.602 104.98 276.016L104.566 274.504C105.646 274.18 107.446 273.712 108.904 273.712C111.244 273.712 112.468 274.99 112.468 277.42V281.218C112.468 281.56 112.612 281.722 112.864 281.722C113.026 281.722 113.242 281.65 113.476 281.542L114.43 281.092L114.736 282.424L113.44 283.036C113.152 283.18 112.54 283.288 112.216 283.288C111.172 283.288 110.758 282.496 110.758 281.578ZM107.284 281.794C108.616 281.794 110.128 280.966 110.758 279.832V279.76C109.894 279.544 108.706 279.364 107.608 279.364C106.528 279.364 105.79 279.796 105.79 280.66C105.79 281.434 106.51 281.794 107.284 281.794ZM128.566 273.766C130.78 273.766 131.95 275.296 131.95 277.654V283H130.24V277.798C130.24 276.322 129.592 275.278 128.134 275.278C126.532 275.278 124.912 276.646 124.912 278.914V283H123.202V277.798C123.202 276.322 122.554 275.278 121.096 275.278C119.53 275.278 117.874 276.574 117.874 278.752V283H116.182V274H117.874V275.872C118.594 274.756 119.89 273.766 121.528 273.766C123.202 273.766 124.282 274.648 124.696 276.106C125.524 274.756 127.054 273.766 128.566 273.766ZM140.289 273.712C142.755 273.712 144.825 275.476 144.825 278.392C144.825 281.11 142.521 283.324 139.461 283.324C138.417 283.324 137.265 283.018 136.455 282.766V287.32H134.745V274H136.455V275.836C137.031 274.666 138.453 273.712 140.289 273.712ZM139.821 275.206C138.057 275.206 136.455 276.412 136.455 278.518V281.452C137.319 281.722 138.309 281.956 139.497 281.956C141.459 281.956 143.097 280.3 143.097 278.392C143.097 276.34 141.765 275.206 139.821 275.206ZM148.9 283H147.208V269.5H148.9V283ZM156.476 283.288C153.416 283.288 151.274 281.218 151.274 278.392C151.274 275.386 153.632 273.712 156.458 273.712C159.068 273.712 160.886 275.512 160.886 278.032C160.886 278.23 160.868 278.518 160.85 278.734H153.002C153.164 280.606 154.676 281.794 156.53 281.794C157.862 281.794 159.05 281.47 160.274 280.93L160.796 282.244C159.698 282.73 157.952 283.288 156.476 283.288ZM153.11 277.384H159.158C158.96 275.89 157.826 275.08 156.332 275.08C154.694 275.08 153.47 275.836 153.11 277.384ZM163.022 282.082C163.022 281.434 163.544 280.93 164.192 280.93C165.092 280.93 165.434 281.74 165.434 282.604C165.434 283.792 164.822 285.304 163.652 286.222L163.04 285.466C163.814 284.8 164.138 284.134 164.192 283.234C163.544 283.234 163.022 282.73 163.022 282.082ZM175.181 274V283H173.489V274H175.181ZM173.219 271.498C173.219 270.886 173.723 270.4 174.335 270.4C174.947 270.4 175.451 270.886 175.451 271.498C175.451 272.11 174.947 272.596 174.335 272.596C173.723 272.596 173.219 272.11 173.219 271.498ZM183.851 273.712C186.245 273.712 187.595 275.296 187.595 277.726V283H185.885V277.87C185.885 276.322 185.039 275.224 183.419 275.224C181.655 275.224 179.837 276.592 179.837 278.824V283H178.145V274H179.837V275.944C180.557 274.792 182.105 273.712 183.851 273.712ZM196.085 273.712C198.479 273.712 199.829 275.296 199.829 277.726V283H198.119V277.87C198.119 276.322 197.273 275.224 195.653 275.224C193.889 275.224 192.071 276.592 192.071 278.824V283H190.379V269.662H192.071V275.944C192.791 274.792 194.339 273.712 196.085 273.712ZM207.312 283.288C204.252 283.288 202.11 281.218 202.11 278.392C202.11 275.386 204.468 273.712 207.294 273.712C209.904 273.712 211.722 275.512 211.722 278.032C211.722 278.23 211.704 278.518 211.686 278.734H203.838C204 280.606 205.512 281.794 207.366 281.794C208.698 281.794 209.886 281.47 211.11 280.93L211.632 282.244C210.534 282.73 208.788 283.288 207.312 283.288ZM203.946 277.384H209.994C209.796 275.89 208.662 275.08 207.168 275.08C205.53 275.08 204.306 275.836 203.946 277.384ZM219.564 273.766C220.032 273.766 220.608 273.892 221.004 274.036L220.662 275.53C220.356 275.422 219.942 275.332 219.546 275.332C217.782 275.332 215.784 276.538 215.784 278.806V283H214.092V274H215.784V275.944C216.504 274.792 217.872 273.766 219.564 273.766ZM224.312 274V283H222.62V274H224.312ZM222.35 271.498C222.35 270.886 222.854 270.4 223.466 270.4C224.078 270.4 224.582 270.886 224.582 271.498C224.582 272.11 224.078 272.596 223.466 272.596C222.854 272.596 222.35 272.11 222.35 271.498ZM226.16 275.368V274.18L228.104 274.054L228.428 271.3H229.76V274H233.468V275.368H229.76V279.49C229.76 280.858 230.318 281.776 231.704 281.776C232.388 281.776 233.09 281.488 233.54 281.236L233.9 282.622C233.27 282.946 232.244 283.288 231.272 283.288C229.13 283.288 228.068 281.848 228.068 279.634V275.368H226.16ZM237.654 274V283H235.962V274H237.654ZM235.692 271.498C235.692 270.886 236.196 270.4 236.808 270.4C237.42 270.4 237.924 270.886 237.924 271.498C237.924 272.11 237.42 272.596 236.808 272.596C236.196 272.596 235.692 272.11 235.692 271.498ZM246.324 273.712C248.718 273.712 250.068 275.296 250.068 277.726V283H248.358V277.87C248.358 276.322 247.512 275.224 245.892 275.224C244.128 275.224 242.31 276.592 242.31 278.824V283H240.618V274H242.31V275.944C243.03 274.792 244.578 273.712 246.324 273.712ZM255.948 281.992H257.226C260.304 281.992 262.356 283 262.356 284.746C262.356 286.546 260.304 287.5 257.226 287.5C253.986 287.5 252.06 286.528 252.06 284.764C252.06 283.774 252.708 283.054 253.824 282.604C253.338 282.262 253.068 281.776 253.068 281.254C253.068 280.66 253.41 280.192 254.004 279.814C252.996 279.202 252.384 278.266 252.384 277.204C252.384 275.008 254.49 273.856 256.848 273.856C257.946 273.856 258.99 274.108 259.8 274.594C260.43 273.982 261.276 273.46 262.482 273.262L262.77 274.774C261.888 274.864 261.24 275.116 260.754 275.458C261.096 275.944 261.312 276.52 261.312 277.204C261.312 279.094 259.44 280.534 256.848 280.534C256.362 280.534 255.444 280.444 255.174 280.444C254.85 280.552 254.58 280.804 254.58 281.182C254.58 281.704 255.048 281.992 255.948 281.992ZM256.848 275.188C255.3 275.188 254.148 275.89 254.148 277.204C254.148 278.374 255.3 279.202 256.848 279.202C258.468 279.202 259.548 278.32 259.548 277.204C259.548 275.89 258.396 275.188 256.848 275.188ZM257.19 283.45H254.94C254.238 283.648 253.716 284.188 253.716 284.782C253.716 285.772 255.03 286.096 257.19 286.096C259.35 286.096 260.664 285.772 260.664 284.764C260.664 283.792 259.368 283.45 257.19 283.45ZM270.828 276.16C270.828 277.24 272.268 277.456 273.834 277.672C275.598 277.924 277.596 278.5 277.596 280.372C277.596 282.298 275.382 283.288 273.384 283.288C271.908 283.288 270.054 282.802 269.028 282.334L269.424 280.948C270.594 281.452 272.016 281.848 273.348 281.848C274.536 281.848 275.886 281.542 275.886 280.498C275.886 279.598 274.698 279.328 273.384 279.13C271.476 278.842 269.154 278.356 269.154 276.304C269.154 274.72 271.026 273.712 272.988 273.712C274.536 273.712 276.156 274.108 277.218 274.522L276.822 275.962C275.544 275.404 274.158 275.062 272.934 275.062C271.98 275.062 270.828 275.386 270.828 276.16ZM284.692 273.712C287.518 273.712 289.948 275.386 289.948 278.392C289.948 281.11 287.752 283.306 284.692 283.306C281.632 283.306 279.436 281.11 279.436 278.392C279.436 275.386 281.866 273.712 284.692 273.712ZM284.692 275.08C282.622 275.08 281.164 276.268 281.164 278.392C281.164 280.3 282.73 281.938 284.692 281.938C286.654 281.938 288.22 280.3 288.22 278.392C288.22 276.268 286.762 275.08 284.692 275.08ZM304.717 273.766C306.931 273.766 308.101 275.296 308.101 277.654V283H306.391V277.798C306.391 276.322 305.743 275.278 304.285 275.278C302.683 275.278 301.063 276.646 301.063 278.914V283H299.353V277.798C299.353 276.322 298.705 275.278 297.247 275.278C295.681 275.278 294.025 276.574 294.025 278.752V283H292.333V274H294.025V275.872C294.745 274.756 296.041 273.766 297.679 273.766C299.353 273.766 300.433 274.648 300.847 276.106C301.675 274.756 303.205 273.766 304.717 273.766ZM315.593 283.288C312.533 283.288 310.391 281.218 310.391 278.392C310.391 275.386 312.749 273.712 315.575 273.712C318.185 273.712 320.003 275.512 320.003 278.032C320.003 278.23 319.985 278.518 319.967 278.734H312.119C312.281 280.606 313.793 281.794 315.647 281.794C316.979 281.794 318.167 281.47 319.391 280.93L319.913 282.244C318.815 282.73 317.069 283.288 315.593 283.288ZM312.227 277.384H318.275C318.077 275.89 316.943 275.08 315.449 275.08C313.811 275.08 312.587 275.836 312.227 277.384ZM53.824 295.766C56.038 295.766 57.208 297.296 57.208 299.654V305H55.498V299.798C55.498 298.322 54.85 297.278 53.392 297.278C51.79 297.278 50.17 298.646 50.17 300.914V305H48.46V299.798C48.46 298.322 47.812 297.278 46.354 297.278C44.788 297.278 43.132 298.574 43.132 300.752V305H41.44V296H43.132V297.872C43.852 296.756 45.148 295.766 46.786 295.766C48.46 295.766 49.54 296.648 49.954 298.106C50.782 296.756 52.312 295.766 53.824 295.766ZM64.7545 295.712C67.5805 295.712 70.0105 297.386 70.0105 300.392C70.0105 303.11 67.8145 305.306 64.7545 305.306C61.6945 305.306 59.4985 303.11 59.4985 300.392C59.4985 297.386 61.9285 295.712 64.7545 295.712ZM64.7545 297.08C62.6845 297.08 61.2265 298.268 61.2265 300.392C61.2265 302.3 62.7925 303.938 64.7545 303.938C66.7165 303.938 68.2825 302.3 68.2825 300.392C68.2825 298.268 66.8245 297.08 64.7545 297.08ZM78.1011 295.712C80.4951 295.712 81.8451 297.296 81.8451 299.726V305H80.1351V299.87C80.1351 298.322 79.2891 297.224 77.6691 297.224C75.9051 297.224 74.0871 298.592 74.0871 300.824V305H72.3951V296H74.0871V297.944C74.8071 296.792 76.3551 295.712 78.1011 295.712ZM89.3275 305.288C86.2675 305.288 84.1255 303.218 84.1255 300.392C84.1255 297.386 86.4835 295.712 89.3095 295.712C91.9195 295.712 93.7375 297.512 93.7375 300.032C93.7375 300.23 93.7195 300.518 93.7015 300.734H85.8535C86.0155 302.606 87.5275 303.794 89.3815 303.794C90.7135 303.794 91.9015 303.47 93.1255 302.93L93.6475 304.244C92.5495 304.73 90.8035 305.288 89.3275 305.288ZM85.9615 299.384H92.0095C91.8115 297.89 90.6775 297.08 89.1835 297.08C87.5455 297.08 86.3215 297.836 85.9615 299.384ZM105.216 296L100.932 305.63C100.05 307.592 99.222 309.5 96.738 309.5C96.612 309.5 96.45 309.482 96.342 309.464L96.432 307.844C96.576 307.862 96.72 307.88 96.864 307.88C98.196 307.88 98.79 306.674 99.33 305.414L99.438 305.162L94.758 296H96.63L100.266 303.218L103.362 296H105.216ZM111.059 297.368V296H112.679V294.686C112.679 292.67 113.957 291.356 116.081 291.356C116.927 291.356 117.989 291.572 118.691 291.806L118.295 293.282C117.629 292.994 116.711 292.814 116.027 292.814C114.965 292.814 114.281 293.48 114.281 294.758V296H118.367V297.368H114.371V305H112.697V297.368H111.059ZM125.697 295.766C126.165 295.766 126.741 295.892 127.137 296.036L126.795 297.53C126.489 297.422 126.075 297.332 125.679 297.332C123.915 297.332 121.917 298.538 121.917 300.806V305H120.225V296H121.917V297.944C122.637 296.792 124.005 295.766 125.697 295.766ZM133.415 295.712C136.241 295.712 138.671 297.386 138.671 300.392C138.671 303.11 136.475 305.306 133.415 305.306C130.355 305.306 128.159 303.11 128.159 300.392C128.159 297.386 130.589 295.712 133.415 295.712ZM133.415 297.08C131.345 297.08 129.887 298.268 129.887 300.392C129.887 302.3 131.453 303.938 133.415 303.938C135.377 303.938 136.943 302.3 136.943 300.392C136.943 298.268 135.485 297.08 133.415 297.08ZM153.439 295.766C155.653 295.766 156.823 297.296 156.823 299.654V305H155.113V299.798C155.113 298.322 154.465 297.278 153.007 297.278C151.405 297.278 149.785 298.646 149.785 300.914V305H148.075V299.798C148.075 298.322 147.427 297.278 145.969 297.278C144.403 297.278 142.747 298.574 142.747 300.752V305H141.055V296H142.747V297.872C143.467 296.756 144.763 295.766 146.401 295.766C148.075 295.766 149.155 296.648 149.569 298.106C150.397 296.756 151.927 295.766 153.439 295.766ZM171.35 303.578V303.362C170.432 304.424 169.028 305.288 167.444 305.288C165.896 305.288 164.654 304.334 164.654 302.804C164.654 300.986 166.184 299.996 168.038 299.996C169.118 299.996 170.54 300.356 171.35 300.626V299.366C171.35 298.07 170.72 297.188 169.262 297.188C168.164 297.188 166.814 297.602 165.572 298.016L165.158 296.504C166.238 296.18 168.038 295.712 169.496 295.712C171.836 295.712 173.06 296.99 173.06 299.42V303.218C173.06 303.56 173.204 303.722 173.456 303.722C173.618 303.722 173.834 303.65 174.068 303.542L175.022 303.092L175.328 304.424L174.032 305.036C173.744 305.18 173.132 305.288 172.808 305.288C171.764 305.288 171.35 304.496 171.35 303.578ZM167.876 303.794C169.208 303.794 170.72 302.966 171.35 301.832V301.76C170.486 301.544 169.298 301.364 168.2 301.364C167.12 301.364 166.382 301.796 166.382 302.66C166.382 303.434 167.102 303.794 167.876 303.794ZM182.48 295.712C184.874 295.712 186.224 297.296 186.224 299.726V305H184.514V299.87C184.514 298.322 183.668 297.224 182.048 297.224C180.284 297.224 178.466 298.592 178.466 300.824V305H176.774V296H178.466V297.944C179.186 296.792 180.734 295.712 182.48 295.712ZM198.023 305.288C195.665 305.288 194.315 303.704 194.315 301.274V296H196.025V301.13C196.025 302.678 196.853 303.776 198.455 303.776C200.111 303.776 201.785 302.534 201.983 300.446V296H203.675V305H201.983V303.092C201.245 304.226 199.733 305.288 198.023 305.288ZM212.257 295.712C214.651 295.712 216.001 297.296 216.001 299.726V305H214.291V299.87C214.291 298.322 213.445 297.224 211.825 297.224C210.061 297.224 208.243 298.592 208.243 300.824V305H206.551V296H208.243V297.944C208.963 296.792 210.511 295.712 212.257 295.712ZM220.478 291.5V305H218.786V291.5H220.478ZM227.876 304.622C227.066 304.982 226.526 305.162 226.004 305.162C225.356 305.162 224.852 304.856 224.348 304.352L220.712 300.698L225.554 296H227.606L222.818 300.572L225.608 303.254C225.86 303.488 226.094 303.614 226.382 303.614C226.67 303.614 227.12 303.434 227.48 303.254L227.876 304.622ZM235.654 295.712C238.048 295.712 239.398 297.296 239.398 299.726V305H237.688V299.87C237.688 298.322 236.842 297.224 235.222 297.224C233.458 297.224 231.64 298.592 231.64 300.824V305H229.948V296H231.64V297.944C232.36 296.792 233.908 295.712 235.654 295.712ZM246.934 295.712C249.76 295.712 252.19 297.386 252.19 300.392C252.19 303.11 249.994 305.306 246.934 305.306C243.874 305.306 241.678 303.11 241.678 300.392C241.678 297.386 244.108 295.712 246.934 295.712ZM246.934 297.08C244.864 297.08 243.406 298.268 243.406 300.392C243.406 302.3 244.972 303.938 246.934 303.938C248.896 303.938 250.462 302.3 250.462 300.392C250.462 298.268 249.004 297.08 246.934 297.08ZM264.655 305L261.613 298.034L258.607 305H256.915L253.315 296H255.151L257.761 303.056L260.767 296H262.477L265.483 303.038L268.111 296H269.947L266.347 305H264.655ZM277.279 295.712C279.673 295.712 281.023 297.296 281.023 299.726V305H279.313V299.87C279.313 298.322 278.467 297.224 276.847 297.224C275.083 297.224 273.265 298.592 273.265 300.824V305H271.573V296H273.265V297.944C273.985 296.792 275.533 295.712 277.279 295.712ZM294.676 295.766C295.144 295.766 295.72 295.892 296.116 296.036L295.774 297.53C295.468 297.422 295.054 297.332 294.658 297.332C292.894 297.332 290.896 298.538 290.896 300.806V305H289.204V296H290.896V297.944C291.616 296.792 292.984 295.766 294.676 295.766ZM299.423 296V305H297.731V296H299.423ZM297.461 293.498C297.461 292.886 297.965 292.4 298.577 292.4C299.189 292.4 299.693 292.886 299.693 293.498C299.693 294.11 299.189 294.596 298.577 294.596C297.965 294.596 297.461 294.11 297.461 293.498ZM307.031 305.288C303.971 305.288 301.883 303.218 301.883 300.392C301.883 297.386 304.205 295.712 307.031 295.712C308.489 295.712 310.001 296.18 310.991 296.522L310.595 297.98C309.317 297.476 308.201 297.08 306.977 297.08C305.015 297.08 303.611 298.268 303.611 300.392C303.611 302.3 305.159 303.776 307.121 303.776C308.453 303.776 309.515 303.452 310.685 302.948L311.081 304.334C310.055 304.802 308.507 305.288 307.031 305.288ZM318.939 295.712C321.333 295.712 322.683 297.296 322.683 299.726V305H320.973V299.87C320.973 298.322 320.127 297.224 318.507 297.224C316.743 297.224 314.925 298.592 314.925 300.824V305H313.233V291.662H314.925V297.944C315.645 296.792 317.193 295.712 318.939 295.712ZM45.058 327.288C42.7 327.288 41.35 325.704 41.35 323.274V318H43.06V323.13C43.06 324.678 43.888 325.776 45.49 325.776C47.146 325.776 48.82 324.534 49.018 322.446V318H50.71V327H49.018V325.092C48.28 326.226 46.768 327.288 45.058 327.288ZM59.2925 317.712C61.6865 317.712 63.0365 319.296 63.0365 321.726V327H61.3265V321.87C61.3265 320.322 60.4805 319.224 58.8605 319.224C57.0965 319.224 55.2785 320.592 55.2785 322.824V327H53.5865V318H55.2785V319.944C55.9985 318.792 57.5465 317.712 59.2925 317.712ZM70.4649 327.288C67.4049 327.288 65.3169 325.218 65.3169 322.392C65.3169 319.386 67.6389 317.712 70.4649 317.712C71.9229 317.712 73.4349 318.18 74.4249 318.522L74.0289 319.98C72.7509 319.476 71.6349 319.08 70.4109 319.08C68.4489 319.08 67.0449 320.268 67.0449 322.392C67.0449 324.3 68.5929 325.776 70.5549 325.776C71.8869 325.776 72.9489 325.452 74.1189 324.948L74.5149 326.334C73.4889 326.802 71.9409 327.288 70.4649 327.288ZM78.3586 327H76.6666V313.5H78.3586V327ZM85.9349 327.288C82.8749 327.288 80.7329 325.218 80.7329 322.392C80.7329 319.386 83.0909 317.712 85.9169 317.712C88.5269 317.712 90.3449 319.512 90.3449 322.032C90.3449 322.23 90.3269 322.518 90.3089 322.734H82.4609C82.6229 324.606 84.1349 325.794 85.9889 325.794C87.3209 325.794 88.5089 325.47 89.7329 324.93L90.2549 326.244C89.1569 326.73 87.4109 327.288 85.9349 327.288ZM82.5689 321.384H88.6169C88.4189 319.89 87.2849 319.08 85.7909 319.08C84.1529 319.08 82.9289 319.836 82.5689 321.384ZM94.3894 321.636C94.3894 319.134 93.5074 316.272 92.3554 314.67C92.3554 314.67 93.4174 313.95 93.4174 313.932C94.8394 315.84 96.0634 318.63 96.0634 321.636C96.0634 324.642 94.8394 327.432 93.4174 329.34C93.4174 329.322 92.3554 328.602 92.3554 328.602C93.5074 327 94.3894 324.138 94.3894 321.636Z" fill="#FFFAED"></path><path d="M49.54 392.926V387.4H50.8V400H49.54V394.114H42.7V400H41.44V387.4H42.7V392.926H49.54ZM61.0364 398.866C60.1124 399.766 58.9964 400.216 57.6884 400.216C56.3564 400.216 55.2344 399.766 54.3224 398.866C53.4104 397.954 52.9544 396.832 52.9544 395.5C52.9544 394.168 53.4104 393.052 54.3224 392.152C55.2344 391.24 56.3564 390.784 57.6884 390.784C59.0084 390.784 60.1244 391.24 61.0364 392.152C61.9604 393.052 62.4224 394.168 62.4224 395.5C62.4224 396.82 61.9604 397.942 61.0364 398.866ZM55.1684 398.038C55.8524 398.722 56.6924 399.064 57.6884 399.064C58.6844 399.064 59.5244 398.722 60.2084 398.038C60.8924 397.33 61.2344 396.484 61.2344 395.5C61.2344 394.504 60.8924 393.664 60.2084 392.98C59.5244 392.284 58.6844 391.936 57.6884 391.936C56.6924 391.936 55.8524 392.284 55.1684 392.98C54.4844 393.664 54.1424 394.504 54.1424 395.5C54.1424 396.484 54.4844 397.33 55.1684 398.038ZM72.6808 398.47L74.8948 391H76.1188L73.3468 400H72.0508L69.7288 392.746L67.4068 400H66.1108L63.3388 391H64.5628L66.7768 398.47L69.1348 391H70.3228L72.6808 398.47ZM90.1504 392.764V387.4H91.3384V400H90.1504V398.236C89.3224 399.556 88.1104 400.216 86.5144 400.216C85.2304 400.216 84.1324 399.76 83.2204 398.848C82.3204 397.936 81.8704 396.82 81.8704 395.5C81.8704 394.18 82.3204 393.064 83.2204 392.152C84.1324 391.24 85.2304 390.784 86.5144 390.784C88.1104 390.784 89.3224 391.444 90.1504 392.764ZM84.0844 398.038C84.7684 398.722 85.6084 399.064 86.6044 399.064C87.6004 399.064 88.4404 398.722 89.1244 398.038C89.8084 397.33 90.1504 396.484 90.1504 395.5C90.1504 394.504 89.8084 393.664 89.1244 392.98C88.4404 392.284 87.6004 391.936 86.6044 391.936C85.6084 391.936 84.7684 392.284 84.0844 392.98C83.4004 393.664 83.0584 394.504 83.0584 395.5C83.0584 396.484 83.4004 397.33 84.0844 398.038ZM95.3118 388.228C95.3118 388.468 95.2278 388.672 95.0598 388.84C94.8918 389.008 94.6878 389.092 94.4478 389.092C94.2078 389.092 94.0038 389.008 93.8358 388.84C93.6678 388.672 93.5838 388.468 93.5838 388.228C93.5838 387.988 93.6678 387.784 93.8358 387.616C94.0038 387.448 94.2078 387.364 94.4478 387.364C94.6878 387.364 94.8918 387.448 95.0598 387.616C95.2278 387.784 95.3118 387.988 95.3118 388.228ZM95.0418 400H93.8538V391H95.0418V400ZM105.303 392.764V387.4H106.491V400H105.303V398.236C104.475 399.556 103.263 400.216 101.667 400.216C100.383 400.216 99.2847 399.76 98.3727 398.848C97.4727 397.936 97.0227 396.82 97.0227 395.5C97.0227 394.18 97.4727 393.064 98.3727 392.152C99.2847 391.24 100.383 390.784 101.667 390.784C103.263 390.784 104.475 391.444 105.303 392.764ZM99.2367 398.038C99.9207 398.722 100.761 399.064 101.757 399.064C102.753 399.064 103.593 398.722 104.277 398.038C104.961 397.33 105.303 396.484 105.303 395.5C105.303 394.504 104.961 393.664 104.277 392.98C103.593 392.284 102.753 391.936 101.757 391.936C100.761 391.936 99.9207 392.284 99.2367 392.98C98.5527 393.664 98.2107 394.504 98.2107 395.5C98.2107 396.484 98.5527 397.33 99.2367 398.038ZM117.07 398.542L119.986 391H121.246L117.394 400.828C117.034 401.74 116.53 402.442 115.882 402.934C115.246 403.438 114.538 403.66 113.758 403.6V402.484C114.838 402.616 115.66 401.992 116.224 400.612L116.458 400.054L112.426 391H113.686L117.07 398.542ZM129.872 398.866C128.948 399.766 127.832 400.216 126.524 400.216C125.192 400.216 124.07 399.766 123.158 398.866C122.246 397.954 121.79 396.832 121.79 395.5C121.79 394.168 122.246 393.052 123.158 392.152C124.07 391.24 125.192 390.784 126.524 390.784C127.844 390.784 128.96 391.24 129.872 392.152C130.796 393.052 131.258 394.168 131.258 395.5C131.258 396.82 130.796 397.942 129.872 398.866ZM124.004 398.038C124.688 398.722 125.528 399.064 126.524 399.064C127.52 399.064 128.36 398.722 129.044 398.038C129.728 397.33 130.07 396.484 130.07 395.5C130.07 394.504 129.728 393.664 129.044 392.98C128.36 392.284 127.52 391.936 126.524 391.936C125.528 391.936 124.688 392.284 124.004 392.98C123.32 393.664 122.978 394.504 122.978 395.5C122.978 396.484 123.32 397.33 124.004 398.038ZM139.582 395.716V391H140.77V400H139.582V398.596C138.91 399.676 137.902 400.216 136.558 400.216C135.478 400.216 134.62 399.886 133.984 399.226C133.348 398.554 133.03 397.654 133.03 396.526V391H134.218V396.526C134.218 397.33 134.428 397.954 134.848 398.398C135.28 398.842 135.886 399.064 136.666 399.064C137.566 399.064 138.274 398.782 138.79 398.218C139.318 397.654 139.582 396.82 139.582 395.716ZM149.241 388.228C149.241 388.468 149.157 388.672 148.989 388.84C148.821 389.008 148.617 389.092 148.377 389.092C148.137 389.092 147.933 389.008 147.765 388.84C147.597 388.672 147.513 388.468 147.513 388.228C147.513 387.988 147.597 387.784 147.765 387.616C147.933 387.448 148.137 387.364 148.377 387.364C148.617 387.364 148.821 387.448 148.989 387.616C149.157 387.784 149.241 387.988 149.241 388.228ZM148.971 400H147.783V391H148.971V400ZM161.086 390.784C162.106 390.784 162.922 391.108 163.534 391.756C164.146 392.404 164.452 393.28 164.452 394.384V400H163.264V394.384C163.264 393.616 163.066 393.016 162.67 392.584C162.274 392.152 161.74 391.936 161.068 391.936C160.288 391.936 159.676 392.194 159.232 392.71C158.788 393.226 158.566 393.994 158.566 395.014V400H157.378V394.384C157.378 393.604 157.192 393.004 156.82 392.584C156.448 392.152 155.932 391.936 155.272 391.936C154.516 391.936 153.892 392.2 153.4 392.728C152.92 393.256 152.68 394.018 152.68 395.014V400H151.492V391H152.68V392.314C153.328 391.294 154.246 390.784 155.434 390.784C156.742 390.784 157.654 391.33 158.17 392.422C158.818 391.33 159.79 390.784 161.086 390.784ZM174.49 392.764V391H175.678V400H174.49V398.236C173.662 399.556 172.45 400.216 170.854 400.216C169.57 400.216 168.472 399.76 167.56 398.848C166.66 397.936 166.21 396.82 166.21 395.5C166.21 394.18 166.66 393.064 167.56 392.152C168.472 391.24 169.57 390.784 170.854 390.784C172.45 390.784 173.662 391.444 174.49 392.764ZM168.424 398.038C169.108 398.722 169.948 399.064 170.944 399.064C171.94 399.064 172.78 398.722 173.464 398.038C174.148 397.33 174.49 396.484 174.49 395.5C174.49 394.504 174.148 393.664 173.464 392.98C172.78 392.284 171.94 391.936 170.944 391.936C169.948 391.936 169.108 392.284 168.424 392.98C167.74 393.664 167.398 394.504 167.398 395.5C167.398 396.484 167.74 397.33 168.424 398.038ZM185.934 392.764V391H187.122V399.64C187.122 400.936 186.678 401.956 185.79 402.7C184.902 403.444 183.84 403.816 182.604 403.816C180.504 403.816 179.082 403.084 178.338 401.62L179.382 401.026C179.922 402.118 180.996 402.664 182.604 402.664C183.636 402.664 184.446 402.394 185.034 401.854C185.634 401.314 185.934 400.576 185.934 399.64V398.236C185.106 399.556 183.894 400.216 182.298 400.216C181.014 400.216 179.916 399.76 179.004 398.848C178.104 397.936 177.654 396.82 177.654 395.5C177.654 394.18 178.104 393.064 179.004 392.152C179.916 391.24 181.014 390.784 182.298 390.784C183.894 390.784 185.106 391.444 185.934 392.764ZM179.868 398.038C180.552 398.722 181.392 399.064 182.388 399.064C183.384 399.064 184.224 398.722 184.908 398.038C185.592 397.33 185.934 396.484 185.934 395.5C185.934 394.504 185.592 393.664 184.908 392.98C184.224 392.284 183.384 391.936 182.388 391.936C181.392 391.936 180.552 392.284 179.868 392.98C179.184 393.664 178.842 394.504 178.842 395.5C178.842 396.484 179.184 397.33 179.868 398.038ZM191.095 388.228C191.095 388.468 191.011 388.672 190.843 388.84C190.675 389.008 190.471 389.092 190.231 389.092C189.991 389.092 189.787 389.008 189.619 388.84C189.451 388.672 189.367 388.468 189.367 388.228C189.367 387.988 189.451 387.784 189.619 387.616C189.787 387.448 189.991 387.364 190.231 387.364C190.471 387.364 190.675 387.448 190.843 387.616C191.011 387.784 191.095 387.988 191.095 388.228ZM190.825 400H189.637V391H190.825V400ZM197.558 390.784C198.638 390.784 199.496 391.12 200.132 391.792C200.768 392.452 201.086 393.346 201.086 394.474V400H199.898V394.474C199.898 393.67 199.682 393.046 199.25 392.602C198.83 392.158 198.23 391.936 197.45 391.936C196.55 391.936 195.836 392.218 195.308 392.782C194.792 393.346 194.534 394.18 194.534 395.284V400H193.346V391H194.534V392.404C195.206 391.324 196.214 390.784 197.558 390.784ZM207.541 390.784C208.885 390.784 209.959 391.258 210.763 392.206C211.591 393.142 212.005 394.252 212.005 395.536C212.005 395.596 211.993 395.782 211.969 396.094H204.067C204.187 396.994 204.571 397.714 205.219 398.254C205.867 398.794 206.677 399.064 207.649 399.064C209.017 399.064 209.983 398.554 210.547 397.534L211.591 398.146C211.195 398.794 210.649 399.304 209.953 399.676C209.269 400.036 208.495 400.216 207.631 400.216C206.215 400.216 205.063 399.772 204.175 398.884C203.287 397.996 202.843 396.868 202.843 395.5C202.843 394.144 203.281 393.022 204.157 392.134C205.033 391.234 206.161 390.784 207.541 390.784ZM207.541 391.936C206.605 391.936 205.819 392.212 205.183 392.764C204.559 393.316 204.187 394.042 204.067 394.942H210.781C210.649 393.982 210.283 393.244 209.683 392.728C209.059 392.2 208.345 391.936 207.541 391.936ZM219.853 388.228C219.853 388.468 219.769 388.672 219.601 388.84C219.433 389.008 219.229 389.092 218.989 389.092C218.749 389.092 218.545 389.008 218.377 388.84C218.209 388.672 218.125 388.468 218.125 388.228C218.125 387.988 218.209 387.784 218.377 387.616C218.545 387.448 218.749 387.364 218.989 387.364C219.229 387.364 219.433 387.448 219.601 387.616C219.769 387.784 219.853 387.988 219.853 388.228ZM219.583 400H218.395V391H219.583V400ZM226.874 391V392.152H224.282V397.606C224.282 398.098 224.378 398.452 224.57 398.668C224.762 398.872 225.05 398.98 225.434 398.992C225.818 398.992 226.298 398.98 226.874 398.956V400C225.59 400.192 224.636 400.102 224.012 399.73C223.4 399.346 223.094 398.638 223.094 397.606V392.152H221.204V391H223.094V388.84L224.282 388.48V391H226.874ZM232.634 396.58H231.374C231.374 395.5 231.782 394.552 232.598 393.736C232.694 393.64 232.886 393.454 233.174 393.178C233.474 392.902 233.69 392.692 233.822 392.548C233.954 392.404 234.116 392.212 234.308 391.972C234.5 391.72 234.632 391.48 234.704 391.252C234.788 391.012 234.83 390.766 234.83 390.514C234.83 389.842 234.596 389.326 234.128 388.966C233.672 388.594 233.06 388.408 232.292 388.408C230.816 388.408 229.904 389.014 229.556 390.226L228.494 389.632C228.77 388.852 229.244 388.252 229.916 387.832C230.6 387.4 231.392 387.184 232.292 387.184C233.348 387.184 234.242 387.478 234.974 388.066C235.718 388.642 236.09 389.458 236.09 390.514C236.09 391.438 235.682 392.308 234.866 393.124C234.818 393.16 234.674 393.292 234.434 393.52C234.206 393.736 234.056 393.886 233.984 393.97C233.912 394.042 233.78 394.18 233.588 394.384C233.396 394.588 233.264 394.756 233.192 394.888C233.12 395.02 233.03 395.188 232.922 395.392C232.814 395.584 232.736 395.782 232.688 395.986C232.652 396.178 232.634 396.376 232.634 396.58ZM232.994 399.19C232.994 399.466 232.898 399.7 232.706 399.892C232.514 400.084 232.28 400.18 232.004 400.18C231.728 400.18 231.494 400.084 231.302 399.892C231.11 399.7 231.014 399.466 231.014 399.19C231.014 398.914 231.11 398.68 231.302 398.488C231.494 398.296 231.728 398.2 232.004 398.2C232.28 398.2 232.514 398.296 232.706 398.488C232.898 398.68 232.994 398.914 232.994 399.19Z" fill="#FFFAED"></path></svg> 