<?xml version="1.0" encoding="UTF-8"?> <svg xmlns="http://www.w3.org/2000/svg" width="400" height="600" viewBox="0 0 400 600" fill="none"><rect width="400" height="600" rx="20" fill="#EEBF38"></rect><path d="M49.504 488.4V490.776H46.102V501H43.618V490.776H40.234V488.4H49.504ZM56.8159 499.884C55.8919 500.796 54.7639 501.252 53.4319 501.252C52.0999 501.252 50.9719 500.796 50.0479 499.884C49.1359 498.96 48.6799 497.832 48.6799 496.5C48.6799 495.168 49.1359 494.046 50.0479 493.134C50.9719 492.21 52.0999 491.748 53.4319 491.748C54.7639 491.748 55.8919 492.21 56.8159 493.134C57.7399 494.046 58.2019 495.168 58.2019 496.5C58.2019 497.832 57.7399 498.96 56.8159 499.884ZM51.6859 498.282C52.1539 498.75 52.7359 498.984 53.4319 498.984C54.1279 498.984 54.7099 498.75 55.1779 498.282C55.6459 497.814 55.8799 497.22 55.8799 496.5C55.8799 495.78 55.6459 495.186 55.1779 494.718C54.7099 494.25 54.1279 494.016 53.4319 494.016C52.7359 494.016 52.1539 494.25 51.6859 494.718C51.2299 495.186 51.0019 495.78 51.0019 496.5C51.0019 497.22 51.2299 497.814 51.6859 498.282ZM71.2294 492H73.4974V500.568C73.4974 501.96 73.0354 503.022 72.1114 503.754C71.1994 504.486 70.0954 504.852 68.7994 504.852C67.8274 504.852 66.9694 504.666 66.2254 504.294C65.4934 503.922 64.9294 503.376 64.5334 502.656L66.5134 501.522C66.9694 502.362 67.7554 502.782 68.8714 502.782C69.6034 502.782 70.1794 502.59 70.5994 502.206C71.0194 501.822 71.2294 501.276 71.2294 500.568V499.596C70.5454 500.508 69.5854 500.964 68.3494 500.964C67.0774 500.964 66.0094 500.52 65.1454 499.632C64.2934 498.732 63.8674 497.64 63.8674 496.356C63.8674 495.084 64.2994 493.998 65.1634 493.098C66.0274 492.198 67.0894 491.748 68.3494 491.748C69.5854 491.748 70.5454 492.204 71.2294 493.116V492ZM66.8914 498.138C67.3714 498.594 67.9774 498.822 68.7094 498.822C69.4414 498.822 70.0414 498.594 70.5094 498.138C70.9894 497.67 71.2294 497.076 71.2294 496.356C71.2294 495.648 70.9894 495.066 70.5094 494.61C70.0414 494.142 69.4414 493.908 68.7094 493.908C67.9774 493.908 67.3714 494.142 66.8914 494.61C66.4234 495.066 66.1894 495.648 66.1894 496.356C66.1894 497.076 66.4234 497.67 66.8914 498.138ZM83.271 499.884C82.347 500.796 81.219 501.252 79.887 501.252C78.555 501.252 77.427 500.796 76.503 499.884C75.591 498.96 75.135 497.832 75.135 496.5C75.135 495.168 75.591 494.046 76.503 493.134C77.427 492.21 78.555 491.748 79.887 491.748C81.219 491.748 82.347 492.21 83.271 493.134C84.195 494.046 84.657 495.168 84.657 496.5C84.657 497.832 84.195 498.96 83.271 499.884ZM78.141 498.282C78.609 498.75 79.191 498.984 79.887 498.984C80.583 498.984 81.165 498.75 81.633 498.282C82.101 497.814 82.335 497.22 82.335 496.5C82.335 495.78 82.101 495.186 81.633 494.718C81.165 494.25 80.583 494.016 79.887 494.016C79.191 494.016 78.609 494.25 78.141 494.718C77.685 495.186 77.457 495.78 77.457 496.5C77.457 497.22 77.685 497.814 78.141 498.282ZM95.9025 488.4C97.6305 488.4 99.0705 489.006 100.223 490.218C101.387 491.43 101.969 492.924 101.969 494.7C101.969 496.476 101.387 497.97 100.223 499.182C99.0705 500.394 97.6305 501 95.9025 501H90.8985V488.4H95.9025ZM95.9025 498.624C96.9945 498.624 97.8825 498.264 98.5665 497.544C99.2505 496.812 99.5925 495.864 99.5925 494.7C99.5925 493.536 99.2505 492.594 98.5665 491.874C97.8825 491.142 96.9945 490.776 95.9025 490.776H93.3825V498.624H95.9025ZM109.65 492H111.972V501H109.65V499.992C109.086 500.832 108.192 501.252 106.968 501.252C105.984 501.252 105.168 500.922 104.52 500.262C103.884 499.602 103.566 498.69 103.566 497.526V492H105.888V497.238C105.888 497.838 106.05 498.3 106.374 498.624C106.698 498.936 107.13 499.092 107.67 499.092C108.27 499.092 108.75 498.906 109.11 498.534C109.47 498.162 109.65 497.604 109.65 496.86V492ZM119.247 494.232H117.213V497.976C117.213 498.288 117.291 498.516 117.447 498.66C117.603 498.804 117.831 498.888 118.131 498.912C118.431 498.924 118.803 498.918 119.247 498.894V501C117.651 501.18 116.523 501.03 115.863 500.55C115.215 500.07 114.891 499.212 114.891 497.976V494.232H113.325V492H114.891V490.182L117.213 489.48V492H119.247V494.232ZM124.887 501.252C123.531 501.252 122.397 500.796 121.485 499.884C120.585 498.972 120.135 497.844 120.135 496.5C120.135 495.156 120.585 494.028 121.485 493.116C122.397 492.204 123.531 491.748 124.887 491.748C125.763 491.748 126.561 491.958 127.281 492.378C128.001 492.798 128.547 493.362 128.919 494.07L126.921 495.24C126.741 494.868 126.465 494.574 126.093 494.358C125.733 494.142 125.325 494.034 124.869 494.034C124.173 494.034 123.597 494.268 123.141 494.736C122.685 495.192 122.457 495.78 122.457 496.5C122.457 497.208 122.685 497.796 123.141 498.264C123.597 498.72 124.173 498.948 124.869 498.948C125.337 498.948 125.751 498.846 126.111 498.642C126.483 498.426 126.759 498.132 126.939 497.76L128.955 498.912C128.559 499.62 128.001 500.19 127.281 500.622C126.561 501.042 125.763 501.252 124.887 501.252ZM135.187 491.748C136.171 491.748 136.981 492.078 137.617 492.738C138.265 493.398 138.589 494.31 138.589 495.474V501H136.267V495.762C136.267 495.162 136.105 494.706 135.781 494.394C135.457 494.07 135.025 493.908 134.485 493.908C133.885 493.908 133.405 494.094 133.045 494.466C132.685 494.838 132.505 495.396 132.505 496.14V501H130.183V488.4H132.505V493.008C133.069 492.168 133.963 491.748 135.187 491.748ZM145.45 496.014V494.862H154.45V496.014H145.45ZM168.925 501H167.341L162.841 496.662V501H161.653V492H162.841V495.978L167.125 492H168.745L164.101 496.32L168.925 501ZM177.391 492H178.579V501H177.391V499.236C176.563 500.556 175.351 501.216 173.755 501.216C172.471 501.216 171.373 500.76 170.461 499.848C169.561 498.936 169.111 497.82 169.111 496.5C169.111 495.18 169.561 494.064 170.461 493.152C171.373 492.24 172.471 491.784 173.755 491.784C175.351 491.784 176.563 492.444 177.391 493.764V492ZM171.325 499.038C172.009 499.722 172.849 500.064 173.845 500.064C174.841 500.064 175.681 499.722 176.365 499.038C177.049 498.342 177.391 497.496 177.391 496.5C177.391 495.504 177.049 494.664 176.365 493.98C175.681 493.284 174.841 492.936 173.845 492.936C172.849 492.936 172.009 493.284 171.325 493.98C170.641 494.664 170.299 495.504 170.299 496.5C170.299 497.496 170.641 498.342 171.325 499.038ZM191.606 501H190.166L186.494 496.662V501H185.306V496.662L181.634 501H180.194L184.226 496.32L180.374 492H181.814L185.306 495.996V492H186.494V495.996L189.986 492H191.426L187.574 496.32L191.606 501ZM200.783 499.848H202.043V503.412H200.855V501H193.511V503.412H192.323V499.848H193.421C194.033 499.044 194.339 497.91 194.339 496.446V492H200.783V499.848ZM194.861 499.848H199.595V493.152H195.527V496.446C195.527 497.826 195.305 498.96 194.861 499.848ZM211.031 499.866C210.119 500.766 209.003 501.216 207.683 501.216C206.363 501.216 205.241 500.766 204.317 499.866C203.405 498.954 202.949 497.832 202.949 496.5C202.949 495.168 203.405 494.052 204.317 493.152C205.241 492.24 206.363 491.784 207.683 491.784C209.003 491.784 210.119 492.24 211.031 493.152C211.955 494.052 212.417 495.168 212.417 496.5C212.417 497.832 211.955 498.954 211.031 499.866ZM205.163 499.038C205.847 499.722 206.687 500.064 207.683 500.064C208.679 500.064 209.519 499.722 210.203 499.038C210.887 498.342 211.229 497.496 211.229 496.5C211.229 495.504 210.887 494.664 210.203 493.98C209.519 493.284 208.679 492.936 207.683 492.936C206.687 492.936 205.847 493.284 205.163 493.98C204.479 494.664 204.137 495.504 204.137 496.5C204.137 497.496 204.479 498.342 205.163 499.038ZM223.225 492V501H222.037V493.818L218.887 498.93H218.743L215.593 493.818V501H214.405V492H215.773L218.815 496.932L221.857 492H223.225ZM232.222 492H233.482L229.63 501.828C229.282 502.716 228.784 503.412 228.136 503.916C227.5 504.432 226.786 504.66 225.994 504.6V503.484C227.074 503.604 227.896 502.98 228.46 501.612L228.694 501.054L224.662 492H225.922L229.306 499.542L232.222 492ZM246.978 492V501H245.79V493.152H240.606V501H239.418V492H246.978ZM256.87 492V501H255.682V493.152H251.614V497.166C251.614 498.666 251.326 499.698 250.75 500.262C250.186 500.826 249.406 501.072 248.41 501V499.884C249.094 499.956 249.598 499.794 249.922 499.398C250.258 499.002 250.426 498.258 250.426 497.166V492H256.87ZM267.127 492H268.315V501H267.127V499.236C266.299 500.556 265.087 501.216 263.491 501.216C262.207 501.216 261.109 500.76 260.197 499.848C259.297 498.936 258.847 497.82 258.847 496.5C258.847 495.18 259.297 494.064 260.197 493.152C261.109 492.24 262.207 491.784 263.491 491.784C265.087 491.784 266.299 492.444 267.127 493.764V492ZM261.061 499.038C261.745 499.722 262.585 500.064 263.581 500.064C264.577 500.064 265.417 499.722 266.101 499.038C266.785 498.342 267.127 497.496 267.127 496.5C267.127 495.504 266.785 494.664 266.101 493.98C265.417 493.284 264.577 492.936 263.581 492.936C262.585 492.936 261.745 493.284 261.061 493.98C260.377 494.664 260.035 495.504 260.035 496.5C260.035 497.496 260.377 498.342 261.061 499.038ZM277.31 492V493.152H274.124V501H272.936V493.152H269.75V492H277.31ZM285.31 492H286.318V501H285.13V494.07L279.766 501H278.758V492H279.946V498.93L285.31 492ZM295.31 492V493.152H292.124V501H290.936V493.152H287.75V492H295.31ZM300.412 495.42C301.252 495.42 301.96 495.684 302.536 496.212C303.124 496.728 303.418 497.394 303.418 498.21C303.418 499.026 303.124 499.698 302.536 500.226C301.96 500.742 301.252 501 300.412 501H296.758V492H297.946V495.42H300.412ZM300.412 499.848C300.916 499.848 301.342 499.698 301.69 499.398C302.05 499.098 302.23 498.702 302.23 498.21C302.23 497.718 302.05 497.322 301.69 497.022C301.342 496.722 300.916 496.572 300.412 496.572H297.946V499.848H300.412ZM314.357 496.374C315.401 496.77 315.923 497.49 315.923 498.534C315.923 499.278 315.629 499.914 315.041 500.442C314.465 500.958 313.637 501.216 312.557 501.216C310.745 501.216 309.557 500.496 308.993 499.056L310.001 498.462C310.373 499.53 311.225 500.064 312.557 500.064C313.253 500.064 313.787 499.914 314.159 499.614C314.543 499.314 314.735 498.93 314.735 498.462C314.735 498.042 314.579 497.7 314.267 497.436C313.955 497.172 313.535 497.04 313.007 497.04H311.693V495.888H312.647C313.163 495.888 313.565 495.762 313.853 495.51C314.153 495.246 314.303 494.886 314.303 494.43C314.303 493.998 314.129 493.644 313.781 493.368C313.433 493.08 312.965 492.936 312.377 492.936C311.249 492.936 310.499 493.386 310.127 494.286L309.137 493.71C309.737 492.426 310.817 491.784 312.377 491.784C313.325 491.784 314.081 492.036 314.645 492.54C315.209 493.032 315.491 493.638 315.491 494.358C315.491 495.282 315.113 495.954 314.357 496.374ZM325.469 492H326.657V501H325.469V499.236C324.641 500.556 323.429 501.216 321.833 501.216C320.549 501.216 319.451 500.76 318.539 499.848C317.639 498.936 317.189 497.82 317.189 496.5C317.189 495.18 317.639 494.064 318.539 493.152C319.451 492.24 320.549 491.784 321.833 491.784C323.429 491.784 324.641 492.444 325.469 493.764V492ZM319.403 499.038C320.087 499.722 320.927 500.064 321.923 500.064C322.919 500.064 323.759 499.722 324.443 499.038C325.127 498.342 325.469 497.496 325.469 496.5C325.469 495.504 325.127 494.664 324.443 493.98C323.759 493.284 322.919 492.936 321.923 492.936C320.927 492.936 320.087 493.284 319.403 493.98C318.719 494.664 318.377 495.504 318.377 496.5C318.377 497.496 318.719 498.342 319.403 499.038ZM45.454 524.216C44.098 524.216 42.97 523.766 42.07 522.866C41.17 521.954 40.72 520.832 40.72 519.5C40.72 518.168 41.17 517.052 42.07 516.152C42.97 515.24 44.098 514.784 45.454 514.784C46.342 514.784 47.14 515 47.848 515.432C48.556 515.852 49.072 516.422 49.396 517.142L48.424 517.7C48.184 517.16 47.794 516.734 47.254 516.422C46.726 516.098 46.126 515.936 45.454 515.936C44.458 515.936 43.618 516.284 42.934 516.98C42.25 517.664 41.908 518.504 41.908 519.5C41.908 520.496 42.25 521.342 42.934 522.038C43.618 522.722 44.458 523.064 45.454 523.064C46.126 523.064 46.726 522.908 47.254 522.596C47.782 522.272 48.196 521.84 48.496 521.3L49.486 521.876C49.114 522.596 48.568 523.166 47.848 523.586C47.128 524.006 46.33 524.216 45.454 524.216ZM55.2618 514.784C56.5938 514.784 57.6678 515.258 58.4838 516.206C59.3118 517.142 59.7258 518.252 59.7258 519.536C59.7258 519.668 59.7138 519.854 59.6898 520.094H51.7878C51.9078 521.006 52.2918 521.732 52.9398 522.272C53.5998 522.8 54.4098 523.064 55.3698 523.064C56.0538 523.064 56.6418 522.926 57.1338 522.65C57.6378 522.362 58.0158 521.99 58.2678 521.534L59.3118 522.146C58.9158 522.782 58.3758 523.286 57.6918 523.658C57.0078 524.03 56.2278 524.216 55.3518 524.216C53.9358 524.216 52.7838 523.772 51.8958 522.884C51.0078 521.996 50.5638 520.868 50.5638 519.5C50.5638 518.156 51.0018 517.034 51.8778 516.134C52.7538 515.234 53.8818 514.784 55.2618 514.784ZM55.2618 515.936C54.3258 515.936 53.5398 516.218 52.9038 516.782C52.2798 517.334 51.9078 518.054 51.7878 518.942H58.5018C58.3818 517.994 58.0158 517.256 57.4038 516.728C56.7918 516.2 56.0778 515.936 55.2618 515.936ZM65.6115 524.216C64.3155 524.216 63.2355 523.79 62.3715 522.938C61.5075 522.074 61.0755 520.958 61.0755 519.59C61.0755 518.054 61.3035 516.878 61.7595 516.062C62.2155 515.234 63.1395 514.484 64.5315 513.812C64.7955 513.68 65.1435 513.524 65.5755 513.344C66.0195 513.164 66.3495 513.02 66.5655 512.912C66.7935 512.804 67.0395 512.666 67.3035 512.498C67.5675 512.318 67.7655 512.12 67.8975 511.904C68.0295 511.688 68.1135 511.43 68.1495 511.13L69.0855 511.67C69.0375 511.958 68.9415 512.228 68.7975 512.48C68.6535 512.732 68.5035 512.936 68.3475 513.092C68.2035 513.248 67.9695 513.422 67.6455 513.614C67.3335 513.794 67.0875 513.926 66.9075 514.01C66.7395 514.082 66.4395 514.208 66.0075 514.388C65.5875 514.568 65.3055 514.688 65.1615 514.748C64.3215 515.108 63.7035 515.486 63.3075 515.882C62.9115 516.266 62.6295 516.77 62.4615 517.394C62.8695 516.854 63.3855 516.458 64.0095 516.206C64.6455 515.942 65.2635 515.81 65.8635 515.81C67.0635 515.81 68.0535 516.206 68.8335 516.998C69.6255 517.778 70.0215 518.78 70.0215 520.004C70.0215 521.216 69.6015 522.224 68.7615 523.028C67.9335 523.82 66.8835 524.216 65.6115 524.216ZM65.6115 523.028C66.5475 523.028 67.3155 522.746 67.9155 522.182C68.5275 521.606 68.8335 520.88 68.8335 520.004C68.8335 519.116 68.5455 518.39 67.9695 517.826C67.4055 517.25 66.6495 516.962 65.7015 516.962C64.8495 516.962 64.0755 517.232 63.3795 517.772C62.6835 518.3 62.3355 519.008 62.3355 519.896C62.3355 520.808 62.6475 521.558 63.2715 522.146C63.9075 522.734 64.6875 523.028 65.6115 523.028ZM77.9568 515V524H76.7688V520.544H75.2208L72.4488 524H70.9368L73.7808 520.508C73.0608 520.4 72.4668 520.1 71.9988 519.608C71.5308 519.116 71.2968 518.51 71.2968 517.79C71.2968 516.974 71.5848 516.308 72.1608 515.792C72.7488 515.264 73.4628 515 74.3028 515H77.9568ZM74.3028 519.428H76.7688V516.152H74.3028C73.7988 516.152 73.3668 516.302 73.0068 516.602C72.6588 516.902 72.4848 517.298 72.4848 517.79C72.4848 518.282 72.6588 518.678 73.0068 518.978C73.3668 519.278 73.7988 519.428 74.3028 519.428Z" fill="#FFF5D7" fill-opacity="0.6"></path><path d="M47.296 84.136V101H42.88V78.6H48.032L61.536 95.464V78.6H65.952V101H60.8L47.296 84.136ZM80.4918 97.768C82.7318 97.768 84.8758 97.2347 86.9237 96.168L88.1718 99.496C85.4411 100.883 82.7424 101.576 80.0758 101.576C77.1531 101.576 74.7744 100.765 72.9398 99.144C71.1051 97.5013 70.1878 95.4533 70.1878 93C70.1878 90.4187 71.1371 88.3493 73.0358 86.792C74.9558 85.2347 77.3024 84.456 80.0758 84.456C82.5078 84.456 84.5344 85.1707 86.1558 86.6C87.7771 88.008 88.5878 89.7893 88.5878 91.944C88.5878 92.648 88.4918 93.3733 88.2998 94.12H74.5398C74.8384 95.272 75.5211 96.168 76.5878 96.808C77.6544 97.448 78.9558 97.768 80.4918 97.768ZM79.8198 88.008C77.0251 88.008 75.2971 89.0107 74.6358 91.016H84.3318C84.1184 90.056 83.6171 89.32 82.8278 88.808C82.0598 88.2747 81.0571 88.008 79.8198 88.008ZM94.39 85L99.638 96.232L104.822 85H109.526L101.942 101H97.302L89.75 85H94.39ZM121.179 97.768C123.419 97.768 125.563 97.2347 127.611 96.168L128.859 99.496C126.129 100.883 123.43 101.576 120.763 101.576C117.841 101.576 115.462 100.765 113.627 99.144C111.793 97.5013 110.875 95.4533 110.875 93C110.875 90.4187 111.825 88.3493 113.723 86.792C115.643 85.2347 117.99 84.456 120.763 84.456C123.195 84.456 125.222 85.1707 126.843 86.6C128.465 88.008 129.275 89.7893 129.275 91.944C129.275 92.648 129.179 93.3733 128.987 94.12H115.227C115.526 95.272 116.209 96.168 117.275 96.808C118.342 97.448 119.643 97.768 121.179 97.768ZM120.507 88.008C117.713 88.008 115.985 89.0107 115.323 91.016H125.019C124.806 90.056 124.305 89.32 123.515 88.808C122.747 88.2747 121.745 88.008 120.507 88.008ZM142.982 84.456C143.878 84.456 144.774 84.6693 145.67 85.096L144.774 88.936C143.984 88.5733 143.248 88.392 142.566 88.392C141.136 88.392 139.856 88.8293 138.726 89.704C137.616 90.5573 137.062 91.6773 137.062 93.064V101H132.838V85H137.062V88.552C137.616 87.5067 138.427 86.568 139.494 85.736C140.56 84.8827 141.723 84.456 142.982 84.456ZM166.436 88.424C164.985 88.424 163.737 88.8293 162.692 89.64C161.647 90.4293 161.124 91.5707 161.124 93.064V101H156.9V77.288H161.124V88.552C161.743 87.4213 162.628 86.472 163.78 85.704C164.932 84.9147 166.223 84.52 167.652 84.52C169.807 84.52 171.481 85.1813 172.676 86.504C173.892 87.8053 174.5 89.5547 174.5 91.752V101H170.276V92.264C170.276 91.0907 169.945 90.1627 169.284 89.48C168.623 88.776 167.673 88.424 166.436 88.424ZM184.75 91.88C186.435 91.88 188.227 92.2107 190.126 92.872V91.016C190.126 90.1627 189.849 89.4907 189.294 89C188.761 88.488 188.003 88.232 187.022 88.232C185.614 88.232 183.47 88.7653 180.59 89.832L179.534 85.992C182.905 84.904 185.529 84.36 187.406 84.36C189.625 84.36 191.331 84.936 192.526 86.088C193.742 87.24 194.35 88.904 194.35 91.08V96.84C194.35 97.352 194.606 97.608 195.118 97.608C195.545 97.608 196.291 97.3307 197.358 96.776L198.222 100.04C196.259 101.107 194.595 101.64 193.23 101.64C192.227 101.64 191.47 101.341 190.958 100.744C190.446 100.125 190.169 99.3253 190.126 98.344C189.315 99.3253 188.323 100.125 187.15 100.744C185.977 101.341 184.739 101.64 183.438 101.64C181.923 101.64 180.665 101.192 179.662 100.296C178.681 99.3787 178.19 98.2053 178.19 96.776C178.19 95.176 178.83 93.96 180.11 93.128C181.39 92.296 182.937 91.88 184.75 91.88ZM184.814 98.024C185.646 98.024 186.553 97.8107 187.534 97.384C188.537 96.9573 189.401 96.392 190.126 95.688V95.08C188.377 94.76 186.659 94.6 184.974 94.6C184.249 94.6 183.651 94.7707 183.182 95.112C182.734 95.432 182.51 95.8693 182.51 96.424C182.51 96.936 182.713 97.3307 183.118 97.608C183.545 97.8853 184.11 98.024 184.814 98.024ZM202.859 85L208.107 96.232L213.291 85H217.995L210.411 101H205.771L198.219 85H202.859ZM229.648 97.768C231.888 97.768 234.032 97.2347 236.08 96.168L237.328 99.496C234.597 100.883 231.899 101.576 229.232 101.576C226.309 101.576 223.931 100.765 222.096 99.144C220.261 97.5013 219.344 95.4533 219.344 93C219.344 90.4187 220.293 88.3493 222.192 86.792C224.112 85.2347 226.459 84.456 229.232 84.456C231.664 84.456 233.691 85.1707 235.312 86.6C236.933 88.008 237.744 89.7893 237.744 91.944C237.744 92.648 237.648 93.3733 237.456 94.12H223.696C223.995 95.272 224.677 96.168 225.744 96.808C226.811 97.448 228.112 97.768 229.648 97.768ZM228.976 88.008C226.181 88.008 224.453 89.0107 223.792 91.016H233.488C233.275 90.056 232.773 89.32 231.984 88.808C231.216 88.2747 230.213 88.008 228.976 88.008ZM255.265 78.6V101H250.849V78.6H255.265ZM278.867 97.768C281.107 97.768 283.251 97.2347 285.299 96.168L286.547 99.496C283.816 100.883 281.117 101.576 278.451 101.576C275.528 101.576 273.149 100.765 271.315 99.144C269.48 97.5013 268.563 95.4533 268.563 93C268.563 90.4187 269.512 88.3493 271.411 86.792C273.331 85.2347 275.677 84.456 278.451 84.456C280.883 84.456 282.909 85.1707 284.531 86.6C286.152 88.008 286.963 89.7893 286.963 91.944C286.963 92.648 286.867 93.3733 286.675 94.12H272.915C273.213 95.272 273.896 96.168 274.963 96.808C276.029 97.448 277.331 97.768 278.867 97.768ZM278.195 88.008C275.4 88.008 273.672 89.0107 273.011 91.016H282.707C282.493 90.056 281.992 89.32 281.203 88.808C280.435 88.2747 279.432 88.008 278.195 88.008ZM292.765 85L298.013 96.232L303.197 85H307.901L300.317 101H295.677L288.125 85H292.765ZM319.554 97.768C321.794 97.768 323.938 97.2347 325.986 96.168L327.234 99.496C324.504 100.883 321.805 101.576 319.138 101.576C316.216 101.576 313.837 100.765 312.002 99.144C310.168 97.5013 309.25 95.4533 309.25 93C309.25 90.4187 310.2 88.3493 312.098 86.792C314.018 85.2347 316.365 84.456 319.138 84.456C321.57 84.456 323.597 85.1707 325.218 86.6C326.84 88.008 327.65 89.7893 327.65 91.944C327.65 92.648 327.554 93.3733 327.362 94.12H313.602C313.901 95.272 314.584 96.168 315.65 96.808C316.717 97.448 318.018 97.768 319.554 97.768ZM318.882 88.008C316.088 88.008 314.36 89.0107 313.698 91.016H323.394C323.181 90.056 322.68 89.32 321.89 88.808C321.122 88.2747 320.12 88.008 318.882 88.008ZM341.357 84.456C342.253 84.456 343.149 84.6693 344.045 85.096L343.149 88.936C342.359 88.5733 341.623 88.392 340.941 88.392C339.511 88.392 338.231 88.8293 337.101 89.704C335.991 90.5573 335.437 91.6773 335.437 93.064V101H331.213V85H335.437V88.552C335.991 87.5067 336.802 86.568 337.869 85.736C338.935 84.8827 340.098 84.456 341.357 84.456ZM48 131.88C49.6853 131.88 51.4773 132.211 53.376 132.872V131.016C53.376 130.163 53.0987 129.491 52.544 129C52.0107 128.488 51.2533 128.232 50.272 128.232C48.864 128.232 46.72 128.765 43.84 129.832L42.784 125.992C46.1547 124.904 48.7787 124.36 50.656 124.36C52.8747 124.36 54.5813 124.936 55.776 126.088C56.992 127.24 57.6 128.904 57.6 131.08V136.84C57.6 137.352 57.856 137.608 58.368 137.608C58.7947 137.608 59.5413 137.331 60.608 136.776L61.472 140.04C59.5093 141.107 57.8453 141.64 56.48 141.64C55.4773 141.64 54.72 141.341 54.208 140.744C53.696 140.125 53.4187 139.325 53.376 138.344C52.5653 139.325 51.5733 140.125 50.4 140.744C49.2267 141.341 47.9893 141.64 46.688 141.64C45.1733 141.64 43.9147 141.192 42.912 140.296C41.9307 139.379 41.44 138.205 41.44 136.776C41.44 135.176 42.08 133.96 43.36 133.128C44.64 132.296 46.1867 131.88 48 131.88ZM48.064 138.024C48.896 138.024 49.8027 137.811 50.784 137.384C51.7867 136.957 52.6507 136.392 53.376 135.688V135.08C51.6267 134.76 49.9093 134.6 48.224 134.6C47.4987 134.6 46.9013 134.771 46.432 135.112C45.984 135.432 45.76 135.869 45.76 136.424C45.76 136.936 45.9627 137.331 46.368 137.608C46.7947 137.885 47.36 138.024 48.064 138.024ZM78.0128 125.576L76.8928 129.288C74.7808 128.477 72.7434 128.072 70.7808 128.072C68.2634 128.072 67.0048 128.499 67.0048 129.352C67.0048 129.821 67.4101 130.184 68.2208 130.44C69.0528 130.696 70.0448 130.909 71.1968 131.08C72.3701 131.251 73.5328 131.475 74.6848 131.752C75.8581 132.008 76.8501 132.499 77.6608 133.224C78.4928 133.949 78.9088 134.888 78.9088 136.04C78.9088 137.725 78.0661 139.08 76.3808 140.104C74.6954 141.128 72.7968 141.64 70.6848 141.64C67.8688 141.64 65.1488 140.947 62.5247 139.56L63.7728 136.232C66.3541 137.363 68.7114 137.928 70.8448 137.928C72.0181 137.928 72.9568 137.779 73.6608 137.48C74.3861 137.16 74.7488 136.723 74.7488 136.168C74.7488 135.72 74.3328 135.379 73.5008 135.144C72.6901 134.888 71.6981 134.675 70.5248 134.504C69.3728 134.333 68.2101 134.109 67.0368 133.832C65.8848 133.555 64.8928 133.053 64.0608 132.328C63.2501 131.603 62.8448 130.664 62.8448 129.512C62.8448 127.955 63.5594 126.717 64.9888 125.8C66.4394 124.861 68.3168 124.392 70.6208 124.392C73.2234 124.392 75.6874 124.787 78.0128 125.576ZM86.7475 117V141H82.5875V117H86.7475ZM92.6035 139.848L86.9715 133.288L94.2035 125H99.6115L91.8995 133.16L95.6435 137.032C95.8995 137.288 96.2195 137.416 96.6035 137.416C96.9448 137.416 97.6488 137.192 98.7155 136.744L99.7075 140.168C97.7875 141 96.4115 141.416 95.5795 141.416C94.4702 141.416 93.4782 140.893 92.6035 139.848ZM112.148 137.768C114.388 137.768 116.532 137.235 118.58 136.168L119.828 139.496C117.097 140.883 114.399 141.576 111.732 141.576C108.809 141.576 106.431 140.765 104.596 139.144C102.761 137.501 101.844 135.453 101.844 133C101.844 130.419 102.793 128.349 104.692 126.792C106.612 125.235 108.959 124.456 111.732 124.456C114.164 124.456 116.191 125.171 117.812 126.6C119.433 128.008 120.244 129.789 120.244 131.944C120.244 132.648 120.148 133.373 119.956 134.12H106.196C106.495 135.272 107.177 136.168 108.244 136.808C109.311 137.448 110.612 137.768 112.148 137.768ZM111.476 128.008C108.681 128.008 106.953 129.011 106.292 131.016H115.988C115.775 130.056 115.273 129.32 114.484 128.808C113.716 128.275 112.713 128.008 111.476 128.008ZM130.814 141.544C128.553 141.544 126.644 140.776 125.086 139.24C123.529 137.704 122.75 135.677 122.75 133.16C122.75 130.728 123.646 128.669 125.438 126.984C127.252 125.277 129.492 124.424 132.158 124.424C133.438 124.424 135.284 124.808 137.694 125.576V117H141.918V141H137.694V137.448C137.14 138.621 136.244 139.603 135.006 140.392C133.769 141.16 132.372 141.544 130.814 141.544ZM128.414 136.424C129.374 137.213 130.59 137.608 132.062 137.608C133.534 137.608 134.836 137.139 135.966 136.2C137.118 135.24 137.694 134.024 137.694 132.552V129.096C135.518 128.456 133.652 128.136 132.094 128.136C130.665 128.136 129.46 128.616 128.478 129.576C127.497 130.536 127.006 131.72 127.006 133.128C127.006 134.536 127.476 135.635 128.414 136.424ZM154.015 128.68V125.32L157.183 125.128L157.759 120.2H161.279V125H167.935V128.68H161.279V134.728C161.279 135.603 161.503 136.307 161.951 136.84C162.42 137.373 163.06 137.64 163.871 137.64C165.087 137.64 166.314 137.256 167.551 136.488L168.479 140.104C166.644 141.064 164.874 141.544 163.167 141.544C161.204 141.544 159.69 140.947 158.623 139.752C157.578 138.557 157.055 136.936 157.055 134.888V128.68H154.015ZM173.505 126.728C175.425 125.213 177.783 124.456 180.577 124.456C183.372 124.456 185.729 125.213 187.649 126.728C189.569 128.221 190.529 130.259 190.529 132.84C190.529 135.272 189.58 137.341 187.681 139.048C185.804 140.733 183.436 141.576 180.577 141.576C177.719 141.576 175.34 140.733 173.441 139.048C171.564 137.341 170.625 135.272 170.625 132.84C170.625 130.259 171.585 128.221 173.505 126.728ZM184.705 129.416C183.66 128.563 182.284 128.136 180.577 128.136C178.871 128.136 177.495 128.563 176.449 129.416C175.404 130.248 174.881 131.389 174.881 132.84C174.881 134.205 175.436 135.4 176.545 136.424C177.676 137.427 179.02 137.928 180.577 137.928C182.135 137.928 183.468 137.427 184.577 136.424C185.708 135.4 186.273 134.205 186.273 132.84C186.273 131.389 185.751 130.248 184.705 129.416ZM209.034 138.888H211.21C214.09 138.888 216.394 139.283 218.122 140.072C219.85 140.861 220.714 142.056 220.714 143.656C220.714 145.427 219.839 146.771 218.09 147.688C216.362 148.627 214.068 149.096 211.21 149.096C208.244 149.096 205.898 148.648 204.17 147.752C202.463 146.877 201.61 145.619 201.61 143.976C201.61 143.165 201.94 142.397 202.602 141.672C203.284 140.968 204.052 140.509 204.906 140.296C204.479 140.083 204.116 139.731 203.818 139.24C203.519 138.749 203.37 138.248 203.37 137.736C203.37 136.883 203.946 136.083 205.098 135.336C204.308 134.824 203.636 134.163 203.082 133.352C202.527 132.52 202.25 131.699 202.25 130.888C202.25 128.861 203.05 127.283 204.65 126.152C206.271 125.021 208.244 124.456 210.57 124.456C212.34 124.456 213.93 124.797 215.338 125.48C216.66 124.392 218.282 123.688 220.202 123.368L220.97 127.304C219.839 127.432 218.911 127.677 218.186 128.04C218.676 128.915 218.922 129.864 218.922 130.888C218.922 132.723 218.132 134.248 216.554 135.464C214.975 136.68 212.98 137.288 210.57 137.288C209.738 137.288 208.959 137.224 208.234 137.096C207.7 137.224 207.434 137.512 207.434 137.96C207.434 138.579 207.967 138.888 209.034 138.888ZM210.538 127.944C209.343 127.944 208.372 128.189 207.626 128.68C206.879 129.171 206.506 129.864 206.506 130.76C206.506 131.549 206.89 132.211 207.658 132.744C208.426 133.256 209.386 133.512 210.538 133.512C211.732 133.512 212.692 133.245 213.418 132.712C214.164 132.179 214.538 131.528 214.538 130.76C214.538 129.864 214.164 129.171 213.418 128.68C212.671 128.189 211.711 127.944 210.538 127.944ZM211.146 142.472C208.735 142.472 207.348 142.483 206.986 142.504C206.111 142.867 205.674 143.357 205.674 143.976C205.674 145.085 207.498 145.64 211.146 145.64C214.794 145.64 216.618 145.096 216.618 144.008C216.618 142.984 214.794 142.472 211.146 142.472ZM225.349 126.728C227.269 125.213 229.626 124.456 232.421 124.456C235.216 124.456 237.573 125.213 239.493 126.728C241.413 128.221 242.373 130.259 242.373 132.84C242.373 135.272 241.424 137.341 239.525 139.048C237.648 140.733 235.28 141.576 232.421 141.576C229.562 141.576 227.184 140.733 225.285 139.048C223.408 137.341 222.469 135.272 222.469 132.84C222.469 130.259 223.429 128.221 225.349 126.728ZM236.549 129.416C235.504 128.563 234.128 128.136 232.421 128.136C230.714 128.136 229.338 128.563 228.293 129.416C227.248 130.248 226.725 131.389 226.725 132.84C226.725 134.205 227.28 135.4 228.389 136.424C229.52 137.427 230.864 137.928 232.421 137.928C233.978 137.928 235.312 137.427 236.421 136.424C237.552 135.4 238.117 134.205 238.117 132.84C238.117 131.389 237.594 130.248 236.549 129.416ZM42.88 181V158.6H53.44C55.9147 158.6 58.1333 159.005 60.096 159.816C62.0587 160.605 63.648 161.853 64.864 163.56C66.08 165.245 66.688 167.251 66.688 169.576C66.688 172.84 65.4613 175.56 63.008 177.736C60.576 179.912 57.3867 181 53.44 181H42.88ZM53.44 162.536H47.296V177.064H53.44C55.8933 177.064 57.9627 176.381 59.648 175.016C61.3333 173.651 62.176 171.827 62.176 169.544C62.176 167.304 61.3333 165.576 59.648 164.36C57.984 163.144 55.9147 162.536 53.44 162.536ZM77.5538 181.512C75.4418 181.512 73.7884 180.861 72.5938 179.56C71.4204 178.259 70.8338 176.499 70.8338 174.28V165H75.0578V173.736C75.0578 175.016 75.4098 175.987 76.1138 176.648C76.8391 177.288 77.8418 177.608 79.1218 177.608C80.5724 177.608 81.7564 177.203 82.6738 176.392C83.6124 175.56 84.0818 174.344 84.0818 172.744V165H88.3058V181H84.0818V177.48C83.4844 178.653 82.5991 179.624 81.4258 180.392C80.2524 181.139 78.9618 181.512 77.5538 181.512ZM91.3588 168.68V165.32L94.5268 165.128L95.1028 160.2H98.6228V165H105.279V168.68H98.6228V174.728C98.6228 175.603 98.8468 176.307 99.2948 176.84C99.7641 177.373 100.404 177.64 101.215 177.64C102.431 177.64 103.657 177.256 104.895 176.488L105.823 180.104C103.988 181.064 102.217 181.544 100.511 181.544C98.5481 181.544 97.0334 180.947 95.9668 179.752C94.9214 178.557 94.3988 176.936 94.3988 174.888V168.68H91.3588ZM117.857 164.456C120.097 164.456 122.433 164.883 124.865 165.736L123.841 169.512C121.622 168.616 119.542 168.168 117.601 168.168C116.022 168.168 114.732 168.595 113.729 169.448C112.726 170.28 112.225 171.411 112.225 172.84C112.225 174.333 112.78 175.528 113.889 176.424C114.998 177.32 116.406 177.768 118.113 177.768C119.18 177.768 120.15 177.64 121.025 177.384C121.921 177.128 122.998 176.723 124.257 176.168L125.505 179.496C122.881 180.883 120.236 181.576 117.569 181.576C114.668 181.576 112.342 180.765 110.593 179.144C108.844 177.501 107.969 175.453 107.969 173C107.969 170.419 108.918 168.349 110.817 166.792C112.737 165.235 115.084 164.456 117.857 164.456ZM138.249 168.424C136.798 168.424 135.55 168.829 134.505 169.64C133.459 170.429 132.937 171.571 132.937 173.064V181H128.713V157.288H132.937V168.552C133.555 167.421 134.441 166.472 135.593 165.704C136.745 164.915 138.035 164.52 139.465 164.52C141.619 164.52 143.294 165.181 144.489 166.504C145.705 167.805 146.312 169.555 146.312 171.752V181H142.089V172.264C142.089 171.091 141.758 170.163 141.097 169.48C140.435 168.776 139.486 168.424 138.249 168.424ZM161.849 166.728C163.769 165.213 166.126 164.456 168.921 164.456C171.716 164.456 174.073 165.213 175.993 166.728C177.913 168.221 178.873 170.259 178.873 172.84C178.873 175.272 177.924 177.341 176.025 179.048C174.148 180.733 171.78 181.576 168.921 181.576C166.062 181.576 163.684 180.733 161.785 179.048C159.908 177.341 158.969 175.272 158.969 172.84C158.969 170.259 159.929 168.221 161.849 166.728ZM173.049 169.416C172.004 168.563 170.628 168.136 168.921 168.136C167.214 168.136 165.838 168.563 164.793 169.416C163.748 170.248 163.225 171.389 163.225 172.84C163.225 174.205 163.78 175.4 164.889 176.424C166.02 177.427 167.364 177.928 168.921 177.928C170.478 177.928 171.812 177.427 172.921 176.424C174.052 175.4 174.617 174.205 174.617 172.84C174.617 171.389 174.094 170.248 173.049 169.416ZM192.155 168.424C190.704 168.424 189.456 168.829 188.411 169.64C187.365 170.429 186.843 171.571 186.843 173.064V181H182.619V165H186.843V168.552C187.461 167.421 188.347 166.472 189.499 165.704C190.651 164.915 191.941 164.52 193.371 164.52C195.525 164.52 197.2 165.181 198.395 166.504C199.611 167.805 200.219 169.555 200.219 171.752V181H195.995V172.264C195.995 171.091 195.664 170.163 195.003 169.48C194.341 168.776 193.392 168.424 192.155 168.424ZM219.531 171.88C221.217 171.88 223.009 172.211 224.907 172.872V171.016C224.907 170.163 224.63 169.491 224.075 169C223.542 168.488 222.785 168.232 221.803 168.232C220.395 168.232 218.251 168.765 215.371 169.832L214.315 165.992C217.686 164.904 220.31 164.36 222.187 164.36C224.406 164.36 226.113 164.936 227.307 166.088C228.523 167.24 229.131 168.904 229.131 171.08V176.84C229.131 177.352 229.387 177.608 229.899 177.608C230.326 177.608 231.073 177.331 232.139 176.776L233.003 180.04C231.041 181.107 229.377 181.64 228.011 181.64C227.009 181.64 226.251 181.341 225.739 180.744C225.227 180.125 224.95 179.325 224.907 178.344C224.097 179.325 223.105 180.125 221.931 180.744C220.758 181.341 219.521 181.64 218.219 181.64C216.705 181.64 215.446 181.192 214.443 180.296C213.462 179.379 212.971 178.205 212.971 176.776C212.971 175.176 213.611 173.96 214.891 173.128C216.171 172.296 217.718 171.88 219.531 171.88ZM219.595 178.024C220.427 178.024 221.334 177.811 222.315 177.384C223.318 176.957 224.182 176.392 224.907 175.688V175.08C223.158 174.76 221.441 174.6 219.755 174.6C219.03 174.6 218.433 174.771 217.963 175.112C217.515 175.432 217.291 175.869 217.291 176.424C217.291 176.936 217.494 177.331 217.899 177.608C218.326 177.885 218.891 178.024 219.595 178.024ZM251.855 160.424C250.191 160.424 249.359 161.267 249.359 162.952V165H256.623V168.68H249.519V181H245.359V168.68H242.703V165H245.327V162.76C245.327 160.925 245.935 159.453 247.151 158.344C248.388 157.235 249.999 156.68 251.983 156.68C253.604 156.68 255.353 157 257.231 157.64L256.207 161.512C254.543 160.787 253.092 160.424 251.855 160.424ZM263.499 165V181H259.339V165H263.499ZM258.891 160.392C258.891 159.709 259.136 159.123 259.627 158.632C260.118 158.141 260.715 157.896 261.419 157.896C262.123 157.896 262.72 158.141 263.211 158.632C263.702 159.123 263.947 159.709 263.947 160.392C263.947 161.096 263.702 161.693 263.211 162.184C262.72 162.675 262.123 162.92 261.419 162.92C260.715 162.92 260.118 162.675 259.627 162.184C259.136 161.693 258.891 161.096 258.891 160.392ZM278.513 164.456C279.409 164.456 280.305 164.669 281.201 165.096L280.305 168.936C279.515 168.573 278.779 168.392 278.097 168.392C276.667 168.392 275.387 168.829 274.257 169.704C273.147 170.557 272.593 171.677 272.593 173.064V181H268.369V165H272.593V168.552C273.147 167.507 273.958 166.568 275.025 165.736C276.091 164.883 277.254 164.456 278.513 164.456ZM297.513 165.576L296.393 169.288C294.281 168.477 292.243 168.072 290.281 168.072C287.763 168.072 286.505 168.499 286.505 169.352C286.505 169.821 286.91 170.184 287.721 170.44C288.553 170.696 289.545 170.909 290.697 171.08C291.87 171.251 293.033 171.475 294.185 171.752C295.358 172.008 296.35 172.499 297.161 173.224C297.993 173.949 298.409 174.888 298.409 176.04C298.409 177.725 297.566 179.08 295.881 180.104C294.195 181.128 292.297 181.64 290.185 181.64C287.369 181.64 284.649 180.947 282.025 179.56L283.273 176.232C285.854 177.363 288.211 177.928 290.345 177.928C291.518 177.928 292.457 177.779 293.161 177.48C293.886 177.16 294.249 176.723 294.249 176.168C294.249 175.72 293.833 175.379 293.001 175.144C292.19 174.888 291.198 174.675 290.025 174.504C288.873 174.333 287.71 174.109 286.537 173.832C285.385 173.555 284.393 173.053 283.561 172.328C282.75 171.603 282.345 170.664 282.345 169.512C282.345 167.955 283.059 166.717 284.489 165.8C285.939 164.861 287.817 164.392 290.121 164.392C292.723 164.392 295.187 164.787 297.513 165.576ZM300.328 168.68V165.32L303.496 165.128L304.072 160.2H307.592V165H314.248V168.68H307.592V174.728C307.592 175.603 307.816 176.307 308.264 176.84C308.733 177.373 309.373 177.64 310.184 177.64C311.4 177.64 312.626 177.256 313.864 176.488L314.792 180.104C312.957 181.064 311.186 181.544 309.48 181.544C307.517 181.544 306.002 180.947 304.936 179.752C303.89 178.557 303.368 176.936 303.368 174.888V168.68H300.328ZM49.408 221.544C47.1467 221.544 45.2373 220.776 43.68 219.24C42.1227 217.704 41.344 215.677 41.344 213.16C41.344 210.728 42.24 208.669 44.032 206.984C45.8453 205.277 48.0853 204.424 50.752 204.424C52.032 204.424 53.8773 204.808 56.288 205.576V197H60.512V221H56.288V217.448C55.7333 218.621 54.8373 219.603 53.6 220.392C52.3627 221.16 50.9653 221.544 49.408 221.544ZM47.008 216.424C47.968 217.213 49.184 217.608 50.656 217.608C52.128 217.608 53.4293 217.139 54.56 216.2C55.712 215.24 56.288 214.024 56.288 212.552V209.096C54.112 208.456 52.2453 208.136 50.688 208.136C49.2587 208.136 48.0533 208.616 47.072 209.576C46.0907 210.536 45.6 211.72 45.6 213.128C45.6 214.536 46.0693 215.635 47.008 216.424ZM70.9062 211.88C72.5916 211.88 74.3836 212.211 76.2823 212.872V211.016C76.2823 210.163 76.0049 209.491 75.4503 209C74.9169 208.488 74.1596 208.232 73.1783 208.232C71.7703 208.232 69.6263 208.765 66.7463 209.832L65.6903 205.992C69.0609 204.904 71.6849 204.36 73.5623 204.36C75.7809 204.36 77.4876 204.936 78.6823 206.088C79.8983 207.24 80.5063 208.904 80.5063 211.08V216.84C80.5063 217.352 80.7623 217.608 81.2743 217.608C81.7009 217.608 82.4476 217.331 83.5143 216.776L84.3783 220.04C82.4156 221.107 80.7516 221.64 79.3863 221.64C78.3836 221.64 77.6263 221.341 77.1143 220.744C76.6023 220.125 76.3249 219.325 76.2823 218.344C75.4716 219.325 74.4796 220.125 73.3063 220.744C72.1329 221.341 70.8956 221.64 69.5943 221.64C68.0796 221.64 66.8209 221.192 65.8183 220.296C64.8369 219.379 64.3463 218.205 64.3463 216.776C64.3463 215.176 64.9863 213.96 66.2663 213.128C67.5463 212.296 69.0929 211.88 70.9062 211.88ZM70.9703 218.024C71.8023 218.024 72.7089 217.811 73.6903 217.384C74.6929 216.957 75.5569 216.392 76.2823 215.688V215.08C74.5329 214.76 72.8156 214.6 71.1302 214.6C70.4049 214.6 69.8076 214.771 69.3383 215.112C68.8903 215.432 68.6663 215.869 68.6663 216.424C68.6663 216.936 68.8689 217.331 69.2743 217.608C69.7009 217.885 70.2663 218.024 70.9703 218.024ZM85.015 208.68V205.32L88.183 205.128L88.759 200.2H92.279V205H98.935V208.68H92.279V214.728C92.279 215.603 92.503 216.307 92.951 216.84C93.4203 217.373 94.0603 217.64 94.871 217.64C96.087 217.64 97.3137 217.256 98.551 216.488L99.479 220.104C97.6443 221.064 95.8737 221.544 94.167 221.544C92.2043 221.544 90.6897 220.947 89.623 219.752C88.5777 218.557 88.055 216.936 88.055 214.888V208.68H85.015ZM111.929 217.768C114.169 217.768 116.313 217.235 118.361 216.168L119.609 219.496C116.879 220.883 114.18 221.576 111.513 221.576C108.591 221.576 106.212 220.765 104.377 219.144C102.543 217.501 101.625 215.453 101.625 213C101.625 210.419 102.575 208.349 104.473 206.792C106.393 205.235 108.74 204.456 111.513 204.456C113.945 204.456 115.972 205.171 117.593 206.6C119.215 208.008 120.025 209.789 120.025 211.944C120.025 212.648 119.929 213.373 119.737 214.12H105.977C106.276 215.272 106.959 216.168 108.025 216.808C109.092 217.448 110.393 217.768 111.929 217.768ZM111.257 208.008C108.463 208.008 106.735 209.011 106.073 211.016H115.769C115.556 210.056 115.055 209.32 114.265 208.808C113.497 208.275 112.495 208.008 111.257 208.008Z" fill="#FFFAED"></path><path d="M46.3 287.4C48.016 287.4 49.432 288.012 50.548 289.236C51.676 290.448 52.24 291.936 52.24 293.7C52.24 295.464 51.676 296.958 50.548 298.182C49.432 299.394 48.016 300 46.3 300H41.44V287.4H46.3ZM46.3 298.812C47.68 298.812 48.808 298.32 49.684 297.336C50.572 296.352 51.016 295.14 51.016 293.7C51.016 292.26 50.572 291.048 49.684 290.064C48.808 289.08 47.68 288.588 46.3 288.588H42.7V298.812H46.3ZM61.7571 298.866C60.8451 299.766 59.7291 300.216 58.4091 300.216C57.0891 300.216 55.9671 299.766 55.0431 298.866C54.1311 297.954 53.6751 296.832 53.6751 295.5C53.6751 294.168 54.1311 293.052 55.0431 292.152C55.9671 291.24 57.0891 290.784 58.4091 290.784C59.7291 290.784 60.8451 291.24 61.7571 292.152C62.6811 293.052 63.1431 294.168 63.1431 295.5C63.1431 296.832 62.6811 297.954 61.7571 298.866ZM55.8891 298.038C56.5731 298.722 57.4131 299.064 58.4091 299.064C59.4051 299.064 60.2451 298.722 60.9291 298.038C61.6131 297.342 61.9551 296.496 61.9551 295.5C61.9551 294.504 61.6131 293.664 60.9291 292.98C60.2451 292.284 59.4051 291.936 58.4091 291.936C57.4131 291.936 56.5731 292.284 55.8891 292.98C55.2051 293.664 54.8631 294.504 54.8631 295.5C54.8631 296.496 55.2051 297.342 55.8891 298.038ZM76.1111 291H77.3711L73.5191 300.828C73.1711 301.716 72.6731 302.412 72.0251 302.916C71.3891 303.432 70.6751 303.66 69.8831 303.6V302.484C70.9631 302.604 71.7851 301.98 72.3491 300.612L72.5831 300.054L68.5511 291H69.8111L73.1951 298.542L76.1111 291ZM85.9973 298.866C85.0853 299.766 83.9693 300.216 82.6493 300.216C81.3293 300.216 80.2073 299.766 79.2833 298.866C78.3713 297.954 77.9153 296.832 77.9153 295.5C77.9153 294.168 78.3713 293.052 79.2833 292.152C80.2073 291.24 81.3293 290.784 82.6493 290.784C83.9693 290.784 85.0853 291.24 85.9973 292.152C86.9213 293.052 87.3833 294.168 87.3833 295.5C87.3833 296.832 86.9213 297.954 85.9973 298.866ZM80.1293 298.038C80.8133 298.722 81.6533 299.064 82.6493 299.064C83.6453 299.064 84.4853 298.722 85.1693 298.038C85.8533 297.342 86.1953 296.496 86.1953 295.5C86.1953 294.504 85.8533 293.664 85.1693 292.98C84.4853 292.284 83.6453 291.936 82.6493 291.936C81.6533 291.936 80.8133 292.284 80.1293 292.98C79.4453 293.664 79.1033 294.504 79.1033 295.5C79.1033 296.496 79.4453 297.342 80.1293 298.038ZM95.7073 291H96.8953V300H95.7073V298.596C95.0353 299.676 94.0273 300.216 92.6833 300.216C91.5913 300.216 90.7273 299.886 90.0913 299.226C89.4673 298.554 89.1553 297.654 89.1553 296.526V291H90.3433V296.526C90.3433 297.33 90.5533 297.954 90.9733 298.398C91.4053 298.842 92.0113 299.064 92.7913 299.064C93.6553 299.064 94.3573 298.794 94.8973 298.254C95.4373 297.702 95.7073 296.856 95.7073 295.716V291ZM111.648 291H112.836V300H111.648V298.236C110.82 299.556 109.608 300.216 108.012 300.216C106.728 300.216 105.63 299.76 104.718 298.848C103.818 297.936 103.368 296.82 103.368 295.5C103.368 294.18 103.818 293.064 104.718 292.152C105.63 291.24 106.728 290.784 108.012 290.784C109.608 290.784 110.82 291.444 111.648 292.764V291ZM105.582 298.038C106.266 298.722 107.106 299.064 108.102 299.064C109.098 299.064 109.938 298.722 110.622 298.038C111.306 297.342 111.648 296.496 111.648 295.5C111.648 294.504 111.306 293.664 110.622 292.98C109.938 292.284 109.098 291.936 108.102 291.936C107.106 291.936 106.266 292.284 105.582 292.98C104.898 293.664 104.556 294.504 104.556 295.5C104.556 296.496 104.898 297.342 105.582 298.038ZM115.352 300V286.86H116.54V300H115.352ZM129.897 291H131.121L128.349 300H127.053L124.731 292.746L122.409 300H121.113L118.341 291H119.565L121.779 298.47L124.137 291H125.325L127.683 298.47L129.897 291ZM140.301 291H141.489V300H140.301V298.236C139.473 299.556 138.261 300.216 136.665 300.216C135.381 300.216 134.283 299.76 133.371 298.848C132.471 297.936 132.021 296.82 132.021 295.5C132.021 294.18 132.471 293.064 133.371 292.152C134.283 291.24 135.381 290.784 136.665 290.784C138.261 290.784 139.473 291.444 140.301 292.764V291ZM134.235 298.038C134.919 298.722 135.759 299.064 136.755 299.064C137.751 299.064 138.591 298.722 139.275 298.038C139.959 297.342 140.301 296.496 140.301 295.5C140.301 294.504 139.959 293.664 139.275 292.98C138.591 292.284 137.751 291.936 136.755 291.936C135.759 291.936 134.919 292.284 134.235 292.98C133.551 293.664 133.209 294.504 133.209 295.5C133.209 296.496 133.551 297.342 134.235 298.038ZM150.484 291H151.744L147.892 300.828C147.544 301.716 147.046 302.412 146.398 302.916C145.762 303.432 145.048 303.66 144.256 303.6V302.484C145.336 302.604 146.158 301.98 146.722 300.612L146.956 300.054L142.924 291H144.184L147.568 298.542L150.484 291ZM153.571 293.358C153.571 293.766 153.751 294.09 154.111 294.33C154.471 294.57 154.909 294.756 155.425 294.888C155.941 295.02 156.457 295.17 156.973 295.338C157.489 295.494 157.927 295.764 158.287 296.148C158.647 296.52 158.827 297.012 158.827 297.624C158.827 298.392 158.521 299.016 157.909 299.496C157.309 299.976 156.529 300.216 155.569 300.216C154.705 300.216 153.967 300.024 153.355 299.64C152.755 299.256 152.335 298.758 152.095 298.146L153.103 297.552C153.271 298.02 153.571 298.392 154.003 298.668C154.447 298.932 154.969 299.064 155.569 299.064C156.157 299.064 156.649 298.95 157.045 298.722C157.441 298.482 157.639 298.116 157.639 297.624C157.639 297.216 157.459 296.892 157.099 296.652C156.739 296.412 156.301 296.226 155.785 296.094C155.269 295.962 154.753 295.818 154.237 295.662C153.721 295.494 153.283 295.224 152.923 294.852C152.563 294.468 152.383 293.97 152.383 293.358C152.383 292.626 152.671 292.014 153.247 291.522C153.835 291.03 154.573 290.784 155.461 290.784C156.193 290.784 156.835 290.952 157.387 291.288C157.939 291.612 158.347 292.056 158.611 292.62L157.621 293.196C157.273 292.356 156.553 291.936 155.461 291.936C154.945 291.936 154.501 292.062 154.129 292.314C153.757 292.554 153.571 292.902 153.571 293.358ZM173.049 287.4H174.237V300H173.049V298.236C172.221 299.556 171.009 300.216 169.413 300.216C168.129 300.216 167.031 299.76 166.119 298.848C165.219 297.936 164.769 296.82 164.769 295.5C164.769 294.18 165.219 293.064 166.119 292.152C167.031 291.24 168.129 290.784 169.413 290.784C171.009 290.784 172.221 291.444 173.049 292.764V287.4ZM166.983 298.038C167.667 298.722 168.507 299.064 169.503 299.064C170.499 299.064 171.339 298.722 172.023 298.038C172.707 297.342 173.049 296.496 173.049 295.5C173.049 294.504 172.707 293.664 172.023 292.98C171.339 292.284 170.499 291.936 169.503 291.936C168.507 291.936 167.667 292.284 166.983 292.98C166.299 293.664 165.957 294.504 165.957 295.5C165.957 296.496 166.299 297.342 166.983 298.038ZM184.294 298.866C183.382 299.766 182.266 300.216 180.946 300.216C179.626 300.216 178.504 299.766 177.58 298.866C176.668 297.954 176.212 296.832 176.212 295.5C176.212 294.168 176.668 293.052 177.58 292.152C178.504 291.24 179.626 290.784 180.946 290.784C182.266 290.784 183.382 291.24 184.294 292.152C185.218 293.052 185.68 294.168 185.68 295.5C185.68 296.832 185.218 297.954 184.294 298.866ZM178.426 298.038C179.11 298.722 179.95 299.064 180.946 299.064C181.942 299.064 182.782 298.722 183.466 298.038C184.15 297.342 184.492 296.496 184.492 295.5C184.492 294.504 184.15 293.664 183.466 292.98C182.782 292.284 181.942 291.936 180.946 291.936C179.95 291.936 179.11 292.284 178.426 292.98C177.742 293.664 177.4 294.504 177.4 295.5C177.4 296.496 177.742 297.342 178.426 298.038ZM193.374 288.84C193.206 289.008 193.002 289.092 192.762 289.092C192.522 289.092 192.318 289.008 192.15 288.84C191.982 288.672 191.898 288.468 191.898 288.228C191.898 287.988 191.982 287.784 192.15 287.616C192.318 287.448 192.522 287.364 192.762 287.364C193.002 287.364 193.206 287.448 193.374 287.616C193.542 287.784 193.626 287.988 193.626 288.228C193.626 288.468 193.542 288.672 193.374 288.84ZM192.168 300V291H193.356V300H192.168ZM200.647 292.152H198.055V297.606C198.055 298.098 198.151 298.452 198.343 298.668C198.535 298.872 198.823 298.98 199.207 298.992C199.591 298.992 200.071 298.98 200.647 298.956V300C199.387 300.192 198.439 300.102 197.803 299.73C197.179 299.358 196.867 298.65 196.867 297.606V292.152H194.977V291H196.867V288.84L198.055 288.48V291H200.647V292.152ZM214.669 298.866C213.757 299.766 212.641 300.216 211.321 300.216C210.001 300.216 208.879 299.766 207.955 298.866C207.043 297.954 206.587 296.832 206.587 295.5C206.587 294.168 207.043 293.052 207.955 292.152C208.879 291.24 210.001 290.784 211.321 290.784C212.641 290.784 213.757 291.24 214.669 292.152C215.593 293.052 216.055 294.168 216.055 295.5C216.055 296.832 215.593 297.954 214.669 298.866ZM208.801 298.038C209.485 298.722 210.325 299.064 211.321 299.064C212.317 299.064 213.157 298.722 213.841 298.038C214.525 297.342 214.867 296.496 214.867 295.5C214.867 294.504 214.525 293.664 213.841 292.98C213.157 292.284 212.317 291.936 211.321 291.936C210.325 291.936 209.485 292.284 208.801 292.98C208.117 293.664 207.775 294.504 207.775 295.5C207.775 296.496 208.117 297.342 208.801 298.038ZM222.255 290.784C223.347 290.784 224.205 291.12 224.829 291.792C225.465 292.452 225.783 293.346 225.783 294.474V300H224.595V294.474C224.595 293.67 224.379 293.046 223.947 292.602C223.527 292.158 222.927 291.936 222.147 291.936C221.283 291.936 220.581 292.212 220.041 292.764C219.501 293.304 219.231 294.144 219.231 295.284V300H218.043V291H219.231V292.404C219.903 291.324 220.911 290.784 222.255 290.784ZM240.32 291H241.508V300H240.32V298.236C239.492 299.556 238.28 300.216 236.684 300.216C235.4 300.216 234.302 299.76 233.39 298.848C232.49 297.936 232.04 296.82 232.04 295.5C232.04 294.18 232.49 293.064 233.39 292.152C234.302 291.24 235.4 290.784 236.684 290.784C238.28 290.784 239.492 291.444 240.32 292.764V291ZM234.254 298.038C234.938 298.722 235.778 299.064 236.774 299.064C237.77 299.064 238.61 298.722 239.294 298.038C239.978 297.342 240.32 296.496 240.32 295.5C240.32 294.504 239.978 293.664 239.294 292.98C238.61 292.284 237.77 291.936 236.774 291.936C235.778 291.936 234.938 292.284 234.254 292.98C233.57 293.664 233.228 294.504 233.228 295.5C233.228 296.496 233.57 297.342 234.254 298.038ZM255.292 291V300H254.104V292.152H250.432V300H249.244V292.152H247.714V291H249.244V290.64C249.244 288.336 250.504 287.184 253.024 287.184C253.528 287.184 254.104 287.256 254.752 287.4V288.48C254.188 288.384 253.612 288.336 253.024 288.336C252.124 288.336 251.464 288.51 251.044 288.858C250.636 289.206 250.432 289.8 250.432 290.64V291H255.292ZM258.993 292.494C259.545 291.402 260.493 290.856 261.837 290.856V292.008C261.021 292.008 260.343 292.248 259.803 292.728C259.263 293.208 258.993 293.964 258.993 294.996V300H257.805V291H258.993V292.494ZM264.05 293.358C264.05 293.766 264.23 294.09 264.59 294.33C264.95 294.57 265.388 294.756 265.904 294.888C266.42 295.02 266.936 295.17 267.452 295.338C267.968 295.494 268.406 295.764 268.766 296.148C269.126 296.52 269.306 297.012 269.306 297.624C269.306 298.392 269 299.016 268.388 299.496C267.788 299.976 267.008 300.216 266.048 300.216C265.184 300.216 264.446 300.024 263.834 299.64C263.234 299.256 262.814 298.758 262.574 298.146L263.582 297.552C263.75 298.02 264.05 298.392 264.482 298.668C264.926 298.932 265.448 299.064 266.048 299.064C266.636 299.064 267.128 298.95 267.524 298.722C267.92 298.482 268.118 298.116 268.118 297.624C268.118 297.216 267.938 296.892 267.578 296.652C267.218 296.412 266.78 296.226 266.264 296.094C265.748 295.962 265.232 295.818 264.716 295.662C264.2 295.494 263.762 295.224 263.402 294.852C263.042 294.468 262.862 293.97 262.862 293.358C262.862 292.626 263.15 292.014 263.726 291.522C264.314 291.03 265.052 290.784 265.94 290.784C266.672 290.784 267.314 290.952 267.866 291.288C268.418 291.612 268.826 292.056 269.09 292.62L268.1 293.196C267.752 292.356 267.032 291.936 265.94 291.936C265.424 291.936 264.98 292.062 264.608 292.314C264.236 292.554 264.05 292.902 264.05 293.358ZM275.706 292.152H273.114V297.606C273.114 298.098 273.21 298.452 273.402 298.668C273.594 298.872 273.882 298.98 274.266 298.992C274.65 298.992 275.13 298.98 275.706 298.956V300C274.446 300.192 273.498 300.102 272.862 299.73C272.238 299.358 271.926 298.65 271.926 297.606V292.152H270.036V291H271.926V288.84L273.114 288.48V291H275.706V292.152ZM289.926 287.4H291.114V300H289.926V298.236C289.098 299.556 287.886 300.216 286.29 300.216C285.006 300.216 283.908 299.76 282.996 298.848C282.096 297.936 281.646 296.82 281.646 295.5C281.646 294.18 282.096 293.064 282.996 292.152C283.908 291.24 285.006 290.784 286.29 290.784C287.886 290.784 289.098 291.444 289.926 292.764V287.4ZM283.86 298.038C284.544 298.722 285.384 299.064 286.38 299.064C287.376 299.064 288.216 298.722 288.9 298.038C289.584 297.342 289.926 296.496 289.926 295.5C289.926 294.504 289.584 293.664 288.9 292.98C288.216 292.284 287.376 291.936 286.38 291.936C285.384 291.936 284.544 292.284 283.86 292.98C283.176 293.664 282.834 294.504 282.834 295.5C282.834 296.496 283.176 297.342 283.86 298.038ZM301.369 291H302.557V300H301.369V298.236C300.541 299.556 299.329 300.216 297.733 300.216C296.449 300.216 295.351 299.76 294.439 298.848C293.539 297.936 293.089 296.82 293.089 295.5C293.089 294.18 293.539 293.064 294.439 292.152C295.351 291.24 296.449 290.784 297.733 290.784C299.329 290.784 300.541 291.444 301.369 292.764V291ZM295.303 298.038C295.987 298.722 296.827 299.064 297.823 299.064C298.819 299.064 299.659 298.722 300.343 298.038C301.027 297.342 301.369 296.496 301.369 295.5C301.369 294.504 301.027 293.664 300.343 292.98C299.659 292.284 298.819 291.936 297.823 291.936C296.827 291.936 295.987 292.284 295.303 292.98C294.619 293.664 294.277 294.504 294.277 295.5C294.277 296.496 294.619 297.342 295.303 298.038ZM309.843 292.152H307.251V297.606C307.251 298.098 307.347 298.452 307.539 298.668C307.731 298.872 308.019 298.98 308.403 298.992C308.787 298.992 309.267 298.98 309.843 298.956V300C308.583 300.192 307.635 300.102 306.999 299.73C306.375 299.358 306.062 298.65 306.062 297.606V292.152H304.173V291H306.062V288.84L307.251 288.48V291H309.843V292.152ZM315.436 290.784C316.768 290.784 317.842 291.258 318.658 292.206C319.486 293.142 319.9 294.252 319.9 295.536C319.9 295.668 319.888 295.854 319.864 296.094H311.962C312.082 297.006 312.466 297.732 313.114 298.272C313.774 298.8 314.584 299.064 315.544 299.064C316.228 299.064 316.816 298.926 317.308 298.65C317.812 298.362 318.19 297.99 318.442 297.534L319.486 298.146C319.09 298.782 318.55 299.286 317.866 299.658C317.182 300.03 316.402 300.216 315.526 300.216C314.11 300.216 312.958 299.772 312.07 298.884C311.182 297.996 310.738 296.868 310.738 295.5C310.738 294.156 311.176 293.034 312.052 292.134C312.928 291.234 314.056 290.784 315.436 290.784ZM315.436 291.936C314.5 291.936 313.714 292.218 313.078 292.782C312.454 293.334 312.082 294.054 311.962 294.942H318.676C318.556 293.994 318.19 293.256 317.578 292.728C316.966 292.2 316.252 291.936 315.436 291.936ZM323.413 296.58C323.413 295.992 323.533 295.458 323.773 294.978C324.013 294.486 324.301 294.072 324.637 293.736C324.973 293.4 325.309 293.076 325.645 292.764C325.981 292.452 326.269 292.11 326.509 291.738C326.749 291.354 326.869 290.946 326.869 290.514C326.869 289.818 326.629 289.296 326.149 288.948C325.681 288.588 325.075 288.408 324.331 288.408C322.855 288.408 321.943 289.014 321.595 290.226L320.533 289.632C320.809 288.828 321.289 288.222 321.973 287.814C322.669 287.394 323.455 287.184 324.331 287.184C325.387 287.184 326.281 287.478 327.013 288.066C327.757 288.642 328.129 289.458 328.129 290.514C328.129 291.03 328.009 291.51 327.769 291.954C327.529 292.398 327.241 292.788 326.905 293.124C326.569 293.448 326.233 293.772 325.897 294.096C325.561 294.42 325.273 294.798 325.033 295.23C324.793 295.65 324.673 296.1 324.673 296.58H323.413ZM324.745 299.892C324.553 300.084 324.319 300.18 324.043 300.18C323.767 300.18 323.533 300.084 323.341 299.892C323.149 299.7 323.053 299.466 323.053 299.19C323.053 298.914 323.149 298.68 323.341 298.488C323.533 298.296 323.767 298.2 324.043 298.2C324.319 298.2 324.553 298.296 324.745 298.488C324.937 298.68 325.033 298.914 325.033 299.19C325.033 299.466 324.937 299.7 324.745 299.892Z" fill="#FFFAED"></path></svg> 