<?xml version="1.0" encoding="UTF-8"?> <svg xmlns="http://www.w3.org/2000/svg" width="400" height="600" viewBox="0 0 400 600" fill="none"> <rect width="400" height="600" rx="20" fill="#E7497E"></rect> <path d="M47.296 84.136L60.8 101H65.952V78.6H61.536V95.464L48.032 78.6H42.88V101H47.296V84.136ZM80.4918 97.768C77.4838 97.768 75.1478 96.456 74.5398 94.12H88.2998C88.4918 93.384 88.5878 92.648 88.5878 91.944C88.5878 87.624 84.9398 84.456 80.0758 84.456C74.7318 84.456 70.1878 87.656 70.1878 93C70.1878 97.8 74.1238 101.576 80.0758 101.576C83.0198 101.576 86.0278 100.584 88.1718 99.496L86.9237 96.168C84.6518 97.352 82.6678 97.768 80.4918 97.768ZM79.8198 88.008C82.3158 88.008 83.9158 89.128 84.3318 91.016H74.6358C75.2758 89.064 77.0677 88.008 79.8198 88.008ZM94.39 85H89.75L97.302 101H101.942L109.526 85H104.822L99.638 96.232L94.39 85ZM121.179 97.768C118.171 97.768 115.835 96.456 115.227 94.12H128.987C129.179 93.384 129.275 92.648 129.275 91.944C129.275 87.624 125.627 84.456 120.763 84.456C115.419 84.456 110.875 87.656 110.875 93C110.875 97.8 114.811 101.576 120.763 101.576C123.707 101.576 126.715 100.584 128.859 99.496L127.611 96.168C125.339 97.352 123.355 97.768 121.179 97.768ZM120.507 88.008C123.003 88.008 124.603 89.128 125.019 91.016H115.323C115.963 89.064 117.755 88.008 120.507 88.008ZM142.982 84.456C140.198 84.456 137.99 86.824 137.062 88.552V85H132.838V101H137.062V93.064C137.062 90.12 139.91 88.392 142.566 88.392C143.174 88.392 144.006 88.584 144.774 88.936L145.67 85.096C144.87 84.712 143.878 84.456 142.982 84.456ZM166.436 88.424C168.964 88.424 170.276 89.992 170.276 92.264V101H174.5V91.752C174.5 87.4 172.004 84.52 167.652 84.52C164.612 84.52 162.244 86.472 161.124 88.552V77.288H156.9V101H161.124V93.064C161.124 89.896 163.78 88.424 166.436 88.424ZM184.75 91.88C181.454 91.88 178.19 93.352 178.19 96.776C178.19 99.656 180.43 101.64 183.438 101.64C186.158 101.64 188.59 100.168 190.126 98.344C190.19 100.136 191.086 101.64 193.23 101.64C194.542 101.64 196.462 101 198.222 100.04L197.358 96.776C196.43 97.256 195.598 97.608 195.118 97.608C194.67 97.608 194.35 97.32 194.35 96.84V91.08C194.35 86.696 191.79 84.36 187.406 84.36C184.878 84.36 181.518 85.352 179.534 85.992L180.59 89.832C182.926 88.968 185.358 88.232 187.022 88.232C189.038 88.232 190.126 89.352 190.126 91.016V92.872C188.75 92.392 186.478 91.88 184.75 91.88ZM184.814 98.024C183.47 98.024 182.51 97.48 182.51 96.424C182.51 95.272 183.566 94.6 184.974 94.6C186.51 94.6 188.366 94.76 190.126 95.08V95.688C188.622 97.16 186.414 98.024 184.814 98.024ZM202.859 85H198.219L205.771 101H210.411L217.995 85H213.291L208.107 96.232L202.859 85ZM229.648 97.768C226.64 97.768 224.304 96.456 223.696 94.12H237.456C237.648 93.384 237.744 92.648 237.744 91.944C237.744 87.624 234.096 84.456 229.232 84.456C223.888 84.456 219.344 87.656 219.344 93C219.344 97.8 223.28 101.576 229.232 101.576C232.176 101.576 235.184 100.584 237.328 99.496L236.08 96.168C233.808 97.352 231.824 97.768 229.648 97.768ZM228.976 88.008C231.472 88.008 233.072 89.128 233.488 91.016H223.792C224.432 89.064 226.224 88.008 228.976 88.008ZM255.265 78.6H250.849V101H255.265V78.6ZM278.867 97.768C275.859 97.768 273.523 96.456 272.915 94.12H286.675C286.867 93.384 286.963 92.648 286.963 91.944C286.963 87.624 283.315 84.456 278.451 84.456C273.107 84.456 268.563 87.656 268.563 93C268.563 97.8 272.499 101.576 278.451 101.576C281.395 101.576 284.403 100.584 286.547 99.496L285.299 96.168C283.027 97.352 281.043 97.768 278.867 97.768ZM278.195 88.008C280.691 88.008 282.291 89.128 282.707 91.016H273.011C273.651 89.064 275.443 88.008 278.195 88.008ZM292.765 85H288.125L295.677 101H300.317L307.901 85H303.197L298.013 96.232L292.765 85ZM319.554 97.768C316.546 97.768 314.21 96.456 313.602 94.12H327.362C327.554 93.384 327.65 92.648 327.65 91.944C327.65 87.624 324.002 84.456 319.138 84.456C313.794 84.456 309.25 87.656 309.25 93C309.25 97.8 313.186 101.576 319.138 101.576C322.082 101.576 325.09 100.584 327.234 99.496L325.986 96.168C323.714 97.352 321.73 97.768 319.554 97.768ZM318.882 88.008C321.378 88.008 322.978 89.128 323.394 91.016H313.698C314.338 89.064 316.13 88.008 318.882 88.008ZM341.357 84.456C338.573 84.456 336.365 86.824 335.437 88.552V85H331.213V101H335.437V93.064C335.437 90.12 338.285 88.392 340.941 88.392C341.549 88.392 342.381 88.584 343.149 88.936L344.045 85.096C343.245 84.712 342.253 84.456 341.357 84.456ZM56.544 125.576C54.656 124.936 51.68 124.392 49.152 124.392C44.608 124.392 41.376 126.376 41.376 129.512C41.376 135.752 53.28 133.64 53.28 136.168C53.28 137.288 51.68 137.928 49.376 137.928C46.912 137.928 44.416 137.16 42.304 136.232L41.056 139.56C43.232 140.712 46.208 141.64 49.216 141.64C53.12 141.64 57.44 139.624 57.44 136.04C57.44 129.8 45.536 132.008 45.536 129.352C45.536 128.392 47.2 128.072 49.312 128.072C51.36 128.072 53.344 128.488 55.424 129.288L56.544 125.576ZM72.2228 124.456C68.9588 124.456 66.3988 126.344 65.3428 128.552V125H61.1188V148.68H65.3428V140.456C66.9108 140.936 69.1188 141.576 70.8788 141.576C76.2548 141.576 80.2868 137.64 80.2868 132.84C80.2868 127.656 76.6068 124.456 72.2228 124.456ZM70.9748 128.392C73.8228 128.392 76.0308 129.96 76.0308 132.84C76.0308 135.528 73.6948 137.864 70.9428 137.864C68.9588 137.864 67.1667 137.448 65.3428 136.904V133.064C65.3428 130.12 68.1267 128.392 70.9748 128.392ZM93.273 137.768C90.265 137.768 87.929 136.456 87.321 134.12H101.081C101.273 133.384 101.369 132.648 101.369 131.944C101.369 127.624 97.721 124.456 92.857 124.456C87.513 124.456 82.969 127.656 82.969 133C82.969 137.8 86.905 141.576 92.857 141.576C95.801 141.576 98.809 140.584 100.953 139.496L99.705 136.168C97.433 137.352 95.449 137.768 93.273 137.768ZM92.601 128.008C95.097 128.008 96.697 129.128 97.113 131.016H87.417C88.057 129.064 89.849 128.008 92.601 128.008ZM114.467 128.424C116.995 128.424 118.307 129.992 118.307 132.264V141H122.531V131.752C122.531 127.4 120.035 124.52 115.683 124.52C112.643 124.52 110.275 126.472 109.155 128.552V125H104.931V141H109.155V133.064C109.155 129.896 111.811 128.424 114.467 128.424ZM125.421 128.68H128.461V134.888C128.461 138.92 130.605 141.544 134.573 141.544C136.269 141.544 138.541 140.808 139.885 140.104L138.957 136.488C137.933 137.128 136.525 137.64 135.277 137.64C133.613 137.64 132.685 136.456 132.685 134.728V128.68H139.341V125H132.685V120.2H129.165L128.589 125.128L125.421 125.32V128.68ZM150.39 128.68H153.43V134.888C153.43 138.92 155.574 141.544 159.542 141.544C161.238 141.544 163.51 140.808 164.854 140.104L163.926 136.488C162.902 137.128 161.494 137.64 160.246 137.64C158.582 137.64 157.654 136.456 157.654 134.728V128.68H164.31V125H157.654V120.2H154.134L153.558 125.128L150.39 125.32V128.68ZM177.592 128.424C180.12 128.424 181.432 129.992 181.432 132.264V141H185.656V131.752C185.656 127.4 183.16 124.52 178.808 124.52C175.768 124.52 173.4 126.472 172.28 128.552V117.288H168.056V141H172.28V133.064C172.28 129.896 174.936 128.424 177.592 128.424ZM199.554 137.768C196.546 137.768 194.21 136.456 193.602 134.12H207.362C207.554 133.384 207.65 132.648 207.65 131.944C207.65 127.624 204.002 124.456 199.138 124.456C193.794 124.456 189.25 127.656 189.25 133C189.25 137.8 193.186 141.576 199.138 141.576C202.082 141.576 205.09 140.584 207.234 139.496L205.986 136.168C203.714 137.352 201.73 137.768 199.554 137.768ZM198.882 128.008C201.378 128.008 202.978 129.128 203.394 131.016H193.698C194.338 129.064 196.13 128.008 198.882 128.008ZM238.515 141H242.803L249.811 125H245.331L240.659 135.976L236.019 125H231.603L226.963 136.008L222.323 125H217.747L224.755 141H229.075L233.811 130.056L238.515 141ZM261.624 128.424C264.152 128.424 265.464 129.992 265.464 132.264V141H269.688V131.752C269.688 127.4 267.192 124.52 262.84 124.52C259.8 124.52 257.432 126.472 256.312 128.552V117.288H252.088V141H256.312V133.064C256.312 129.896 258.968 128.424 261.624 128.424ZM283.234 124.456C277.89 124.456 273.282 127.496 273.282 132.84C273.282 137.64 277.442 141.576 283.234 141.576C289.026 141.576 293.186 137.64 293.186 132.84C293.186 127.496 288.578 124.456 283.234 124.456ZM283.234 128.136C286.562 128.136 288.93 129.864 288.93 132.84C288.93 135.528 286.402 137.928 283.234 137.928C280.066 137.928 277.538 135.528 277.538 132.84C277.538 129.864 279.906 128.136 283.234 128.136ZM301.123 141V117H296.931V141H301.123ZM315.179 137.768C312.171 137.768 309.835 136.456 309.227 134.12H322.987C323.179 133.384 323.275 132.648 323.275 131.944C323.275 127.624 319.627 124.456 314.763 124.456C309.419 124.456 304.875 127.656 304.875 133C304.875 137.8 308.811 141.576 314.763 141.576C317.707 141.576 320.715 140.584 322.859 139.496L321.611 136.168C319.339 137.352 317.355 137.768 315.179 137.768ZM314.507 128.008C317.003 128.008 318.603 129.128 319.019 131.016H309.323C309.963 129.064 311.755 128.008 314.507 128.008ZM51.936 168.424C54.464 168.424 55.776 169.992 55.776 172.264V181H60V171.752C60 167.4 57.504 164.52 53.152 164.52C50.112 164.52 47.744 166.472 46.624 168.552V165H42.4V181H46.624V173.064C46.624 169.896 49.28 168.424 51.936 168.424ZM68.874 165H64.714V181H68.874V165ZM64.266 160.392C64.266 161.8 65.386 162.92 66.794 162.92C68.202 162.92 69.322 161.8 69.322 160.392C69.322 159.016 68.202 157.896 66.794 157.896C65.386 157.896 64.266 159.016 64.266 160.392ZM79.4398 178.888C78.3838 178.888 77.8398 178.504 77.8398 177.96C77.8398 177.512 78.2558 177.192 78.6398 177.096C79.3758 177.224 80.1758 177.288 80.9758 177.288C85.8078 177.288 89.3278 174.536 89.3278 170.888C89.3278 169.8 89.0398 168.84 88.5918 168.04C89.3598 167.656 90.2558 167.432 91.3758 167.304L90.6078 163.368C88.5598 163.72 86.9598 164.488 85.7438 165.48C84.3678 164.808 82.7038 164.456 80.9758 164.456C76.5918 164.456 72.6558 166.664 72.6558 170.888C72.6558 172.616 74.0318 174.376 75.5038 175.336C74.7038 175.848 73.7758 176.68 73.7758 177.736C73.7758 178.76 74.4478 179.88 75.3118 180.296C73.7118 180.712 72.0158 182.28 72.0158 183.976C72.0158 187.336 75.7918 189.096 81.6158 189.096C87.0878 189.096 91.1198 187.304 91.1198 183.656C91.1198 180.328 87.0878 178.888 81.6158 178.888H79.4398ZM80.9438 167.944C83.2158 167.944 84.9438 168.936 84.9438 170.76C84.9438 172.264 83.3758 173.512 80.9438 173.512C78.6398 173.512 76.9118 172.36 76.9118 170.76C76.9118 168.936 78.6398 167.944 80.9438 167.944ZM81.5518 182.472C84.8478 182.472 87.0238 182.92 87.0238 184.008C87.0238 185.192 84.8478 185.64 81.5518 185.64C78.0318 185.64 76.0798 185.128 76.0798 183.976C76.0798 183.336 76.6878 182.792 77.3918 182.504C77.9358 182.472 80.9118 182.472 81.5518 182.472ZM103.467 168.424C105.995 168.424 107.307 169.992 107.307 172.264V181H111.531V171.752C111.531 167.4 109.035 164.52 104.683 164.52C101.643 164.52 99.2753 166.472 98.1553 168.552V157.288H93.9313V181H98.1553V173.064C98.1553 169.896 100.811 168.424 103.467 168.424ZM114.421 168.68H117.461V174.888C117.461 178.92 119.605 181.544 123.573 181.544C125.269 181.544 127.541 180.808 128.885 180.104L127.957 176.488C126.933 177.128 125.525 177.64 124.277 177.64C122.613 177.64 121.685 176.456 121.685 174.728V168.68H128.341V165H121.685V160.2H118.165L117.589 165.128L114.421 165.32V168.68ZM139.39 168.68H142.43V174.888C142.43 178.92 144.574 181.544 148.542 181.544C150.238 181.544 152.51 180.808 153.854 180.104L152.926 176.488C151.902 177.128 150.494 177.64 149.246 177.64C147.582 177.64 146.654 176.456 146.654 174.728V168.68H153.31V165H146.654V160.2H143.134L142.558 165.128L139.39 165.32V168.68ZM162.656 171.88C159.36 171.88 156.096 173.352 156.096 176.776C156.096 179.656 158.336 181.64 161.344 181.64C164.064 181.64 166.496 180.168 168.032 178.344C168.096 180.136 168.992 181.64 171.136 181.64C172.448 181.64 174.368 181 176.128 180.04L175.264 176.776C174.336 177.256 173.504 177.608 173.024 177.608C172.576 177.608 172.256 177.32 172.256 176.84V171.08C172.256 166.696 169.696 164.36 165.312 164.36C162.784 164.36 159.424 165.352 157.44 165.992L158.496 169.832C160.832 168.968 163.264 168.232 164.928 168.232C166.944 168.232 168.032 169.352 168.032 171.016V172.872C166.656 172.392 164.384 171.88 162.656 171.88ZM162.72 178.024C161.376 178.024 160.416 177.48 160.416 176.424C160.416 175.272 161.472 174.6 162.88 174.6C164.416 174.6 166.272 174.76 168.032 175.08V175.688C166.528 177.16 164.32 178.024 162.72 178.024ZM182.717 181V157H178.525V181H182.717ZM191.685 157H187.525V181H191.685V157ZM197.541 179.848C198.405 180.872 199.429 181.416 200.517 181.416C201.797 181.416 203.173 180.808 204.645 180.168L203.653 176.744C202.885 177.064 202.181 177.416 201.541 177.416C201.189 177.416 200.869 177.32 200.581 177.032L196.837 173.16L204.549 165H199.141L191.909 173.288L197.541 179.848ZM212.062 165H207.902V181H212.062V165ZM207.454 160.392C207.454 161.8 208.574 162.92 209.982 162.92C211.39 162.92 212.51 161.8 212.51 160.392C212.51 159.016 211.39 157.896 209.982 157.896C208.574 157.896 207.454 159.016 207.454 160.392ZM226.467 168.424C228.995 168.424 230.307 169.992 230.307 172.264V181H234.531V171.752C234.531 167.4 232.035 164.52 227.683 164.52C224.643 164.52 222.275 166.472 221.155 168.552V165H216.931V181H221.155V173.064C221.155 169.896 223.811 168.424 226.467 168.424ZM244.877 178.888C243.821 178.888 243.277 178.504 243.277 177.96C243.277 177.512 243.693 177.192 244.077 177.096C244.813 177.224 245.613 177.288 246.413 177.288C251.245 177.288 254.765 174.536 254.765 170.888C254.765 169.8 254.477 168.84 254.029 168.04C254.797 167.656 255.693 167.432 256.813 167.304L256.045 163.368C253.997 163.72 252.397 164.488 251.181 165.48C249.805 164.808 248.141 164.456 246.413 164.456C242.029 164.456 238.093 166.664 238.093 170.888C238.093 172.616 239.469 174.376 240.941 175.336C240.141 175.848 239.213 176.68 239.213 177.736C239.213 178.76 239.885 179.88 240.749 180.296C239.149 180.712 237.453 182.28 237.453 183.976C237.453 187.336 241.229 189.096 247.053 189.096C252.525 189.096 256.557 187.304 256.557 183.656C256.557 180.328 252.525 178.888 247.053 178.888H244.877ZM246.381 167.944C248.653 167.944 250.381 168.936 250.381 170.76C250.381 172.264 248.813 173.512 246.381 173.512C244.077 173.512 242.349 172.36 242.349 170.76C242.349 168.936 244.077 167.944 246.381 167.944ZM246.989 182.472C250.285 182.472 252.461 182.92 252.461 184.008C252.461 185.192 250.285 185.64 246.989 185.64C243.469 185.64 241.517 185.128 241.517 183.976C241.517 183.336 242.125 182.792 242.829 182.504C243.373 182.472 246.349 182.472 246.989 182.472ZM266.671 168.68H269.711V174.888C269.711 178.92 271.855 181.544 275.823 181.544C277.519 181.544 279.791 180.808 281.135 180.104L280.207 176.488C279.183 177.128 277.775 177.64 276.527 177.64C274.863 177.64 273.935 176.456 273.935 174.728V168.68H280.591V165H273.935V160.2H270.415L269.839 165.128L266.671 165.32V168.68ZM293.234 164.456C287.89 164.456 283.282 167.496 283.282 172.84C283.282 177.64 287.442 181.576 293.234 181.576C299.026 181.576 303.186 177.64 303.186 172.84C303.186 167.496 298.578 164.456 293.234 164.456ZM293.234 168.136C296.562 168.136 298.93 169.864 298.93 172.84C298.93 175.528 296.402 177.928 293.234 177.928C290.066 177.928 287.538 175.528 287.538 172.84C287.538 169.864 289.906 168.136 293.234 168.136ZM321.594 171.88C318.298 171.88 315.034 173.352 315.034 176.776C315.034 179.656 317.274 181.64 320.282 181.64C323.002 181.64 325.434 180.168 326.97 178.344C327.034 180.136 327.93 181.64 330.074 181.64C331.386 181.64 333.306 181 335.066 180.04L334.202 176.776C333.274 177.256 332.442 177.608 331.962 177.608C331.514 177.608 331.194 177.32 331.194 176.84V171.08C331.194 166.696 328.634 164.36 324.25 164.36C321.722 164.36 318.362 165.352 316.378 165.992L317.434 169.832C319.77 168.968 322.202 168.232 323.866 168.232C325.882 168.232 326.97 169.352 326.97 171.016V172.872C325.594 172.392 323.322 171.88 321.594 171.88ZM321.658 178.024C320.314 178.024 319.354 177.48 319.354 176.424C319.354 175.272 320.41 174.6 321.818 174.6C323.354 174.6 325.21 174.76 326.97 175.08V175.688C325.466 177.16 323.258 178.024 321.658 178.024ZM51.232 204.456C45.888 204.456 41.344 207.656 41.344 213C41.344 217.8 44.992 221.576 50.944 221.576C53.952 221.576 56.704 220.648 58.88 219.496L57.632 216.168C55.52 217.096 53.824 217.768 51.488 217.768C48.16 217.768 45.6 215.912 45.6 212.84C45.6 209.928 47.904 208.168 50.976 208.168C53.152 208.168 55.008 208.616 57.216 209.512L58.24 205.736C56.32 205.064 53.888 204.456 51.232 204.456ZM66.2795 221V197H62.0875V221H66.2795ZM79.9835 204.456C74.6395 204.456 70.0315 207.496 70.0315 212.84C70.0315 217.64 74.1915 221.576 79.9835 221.576C85.7755 221.576 89.9355 217.64 89.9355 212.84C89.9355 207.496 85.3275 204.456 79.9835 204.456ZM79.9835 208.136C83.3115 208.136 85.6795 209.864 85.6795 212.84C85.6795 215.528 83.1515 217.928 79.9835 217.928C76.8155 217.928 74.2875 215.528 74.2875 212.84C74.2875 209.864 76.6555 208.136 79.9835 208.136ZM107.825 205.576C105.937 204.936 102.961 204.392 100.433 204.392C95.8893 204.392 92.6573 206.376 92.6573 209.512C92.6573 215.752 104.561 213.64 104.561 216.168C104.561 217.288 102.961 217.928 100.657 217.928C98.1933 217.928 95.6973 217.16 93.5853 216.232L92.3372 219.56C94.5133 220.712 97.4893 221.64 100.497 221.64C104.401 221.64 108.721 219.624 108.721 216.04C108.721 209.8 96.8173 212.008 96.8173 209.352C96.8173 208.392 98.4813 208.072 100.593 208.072C102.641 208.072 104.625 208.488 106.705 209.288L107.825 205.576ZM121.648 217.768C118.64 217.768 116.304 216.456 115.696 214.12H129.456C129.648 213.384 129.744 212.648 129.744 211.944C129.744 207.624 126.096 204.456 121.232 204.456C115.888 204.456 111.344 207.656 111.344 213C111.344 217.8 115.28 221.576 121.232 221.576C124.176 221.576 127.184 220.584 129.328 219.496L128.08 216.168C125.808 217.352 123.824 217.768 121.648 217.768ZM120.976 208.008C123.472 208.008 125.072 209.128 125.488 211.016H115.792C116.432 209.064 118.224 208.008 120.976 208.008ZM149.761 200.424C151.137 200.424 152.641 200.872 154.113 201.512L155.137 197.64C153.633 197.128 151.713 196.68 149.889 196.68C145.953 196.68 143.233 199.08 143.233 202.76V205H140.609V208.68H143.265V221H147.425V208.68H154.529V205H147.265V202.952C147.265 201.224 148.225 200.424 149.761 200.424ZM167.325 204.456C164.541 204.456 162.333 206.824 161.405 208.552V205H157.181V221H161.405V213.064C161.405 210.12 164.253 208.392 166.909 208.392C167.517 208.392 168.349 208.584 169.117 208.936L170.013 205.096C169.213 204.712 168.221 204.456 167.325 204.456ZM176.405 205H172.245V221H176.405V205ZM171.797 200.392C171.797 201.8 172.917 202.92 174.325 202.92C175.733 202.92 176.853 201.8 176.853 200.392C176.853 199.016 175.733 197.896 174.325 197.896C172.917 197.896 171.797 199.016 171.797 200.392ZM190.523 217.768C187.515 217.768 185.179 216.456 184.571 214.12H198.331C198.523 213.384 198.619 212.648 198.619 211.944C198.619 207.624 194.971 204.456 190.107 204.456C184.763 204.456 180.219 207.656 180.219 213C180.219 217.8 184.155 221.576 190.107 221.576C193.051 221.576 196.059 220.584 198.203 219.496L196.955 216.168C194.683 217.352 192.699 217.768 190.523 217.768ZM189.851 208.008C192.347 208.008 193.947 209.128 194.363 211.016H184.667C185.307 209.064 187.099 208.008 189.851 208.008ZM211.717 208.424C214.245 208.424 215.557 209.992 215.557 212.264V221H219.781V211.752C219.781 207.4 217.285 204.52 212.933 204.52C209.893 204.52 207.525 206.472 206.405 208.552V205H202.181V221H206.405V213.064C206.405 209.896 209.061 208.424 211.717 208.424ZM231.439 221.544C234.703 221.544 237.263 219.656 238.319 217.448V221H242.543V197H238.319V205.576C236.719 205.064 234.511 204.424 232.783 204.424C227.407 204.424 223.375 208.36 223.375 213.16C223.375 218.344 227.055 221.544 231.439 221.544ZM232.687 217.608C229.839 217.608 227.631 216.008 227.631 213.128C227.631 210.312 229.839 208.136 232.719 208.136C234.671 208.136 236.463 208.552 238.319 209.096V212.552C238.319 215.624 235.503 217.608 232.687 217.608Z" fill="#FFC2D7"></path> </svg> 