<?xml version="1.0" encoding="UTF-8"?> <svg xmlns="http://www.w3.org/2000/svg" width="400" height="600" viewBox="0 0 400 600" fill="none"> <rect width="400" height="600" rx="20" fill="#36BB71"></rect> <path d="M47.296 84.136L60.8 101H65.952V78.6H61.536V95.464L48.032 78.6H42.88V101H47.296V84.136ZM80.4918 97.768C77.4838 97.768 75.1478 96.456 74.5398 94.12H88.2998C88.4918 93.384 88.5878 92.648 88.5878 91.944C88.5878 87.624 84.9398 84.456 80.0758 84.456C74.7318 84.456 70.1878 87.656 70.1878 93C70.1878 97.8 74.1238 101.576 80.0758 101.576C83.0198 101.576 86.0278 100.584 88.1718 99.496L86.9237 96.168C84.6518 97.352 82.6678 97.768 80.4918 97.768ZM79.8198 88.008C82.3158 88.008 83.9158 89.128 84.3318 91.016H74.6358C75.2758 89.064 77.0677 88.008 79.8198 88.008ZM94.39 85H89.75L97.302 101H101.942L109.526 85H104.822L99.638 96.232L94.39 85ZM121.179 97.768C118.171 97.768 115.835 96.456 115.227 94.12H128.987C129.179 93.384 129.275 92.648 129.275 91.944C129.275 87.624 125.627 84.456 120.763 84.456C115.419 84.456 110.875 87.656 110.875 93C110.875 97.8 114.811 101.576 120.763 101.576C123.707 101.576 126.715 100.584 128.859 99.496L127.611 96.168C125.339 97.352 123.355 97.768 121.179 97.768ZM120.507 88.008C123.003 88.008 124.603 89.128 125.019 91.016H115.323C115.963 89.064 117.755 88.008 120.507 88.008ZM142.982 84.456C140.198 84.456 137.99 86.824 137.062 88.552V85H132.838V101H137.062V93.064C137.062 90.12 139.91 88.392 142.566 88.392C143.174 88.392 144.006 88.584 144.774 88.936L145.67 85.096C144.87 84.712 143.878 84.456 142.982 84.456ZM166.436 88.424C168.964 88.424 170.276 89.992 170.276 92.264V101H174.5V91.752C174.5 87.4 172.004 84.52 167.652 84.52C164.612 84.52 162.244 86.472 161.124 88.552V77.288H156.9V101H161.124V93.064C161.124 89.896 163.78 88.424 166.436 88.424ZM184.75 91.88C181.454 91.88 178.19 93.352 178.19 96.776C178.19 99.656 180.43 101.64 183.438 101.64C186.158 101.64 188.59 100.168 190.126 98.344C190.19 100.136 191.086 101.64 193.23 101.64C194.542 101.64 196.462 101 198.222 100.04L197.358 96.776C196.43 97.256 195.598 97.608 195.118 97.608C194.67 97.608 194.35 97.32 194.35 96.84V91.08C194.35 86.696 191.79 84.36 187.406 84.36C184.878 84.36 181.518 85.352 179.534 85.992L180.59 89.832C182.926 88.968 185.358 88.232 187.022 88.232C189.038 88.232 190.126 89.352 190.126 91.016V92.872C188.75 92.392 186.478 91.88 184.75 91.88ZM184.814 98.024C183.47 98.024 182.51 97.48 182.51 96.424C182.51 95.272 183.566 94.6 184.974 94.6C186.51 94.6 188.366 94.76 190.126 95.08V95.688C188.622 97.16 186.414 98.024 184.814 98.024ZM202.859 85H198.219L205.771 101H210.411L217.995 85H213.291L208.107 96.232L202.859 85ZM229.648 97.768C226.64 97.768 224.304 96.456 223.696 94.12H237.456C237.648 93.384 237.744 92.648 237.744 91.944C237.744 87.624 234.096 84.456 229.232 84.456C223.888 84.456 219.344 87.656 219.344 93C219.344 97.8 223.28 101.576 229.232 101.576C232.176 101.576 235.184 100.584 237.328 99.496L236.08 96.168C233.808 97.352 231.824 97.768 229.648 97.768ZM228.976 88.008C231.472 88.008 233.072 89.128 233.488 91.016H223.792C224.432 89.064 226.224 88.008 228.976 88.008ZM255.265 78.6H250.849V101H255.265V78.6ZM278.867 97.768C275.859 97.768 273.523 96.456 272.915 94.12H286.675C286.867 93.384 286.963 92.648 286.963 91.944C286.963 87.624 283.315 84.456 278.451 84.456C273.107 84.456 268.563 87.656 268.563 93C268.563 97.8 272.499 101.576 278.451 101.576C281.395 101.576 284.403 100.584 286.547 99.496L285.299 96.168C283.027 97.352 281.043 97.768 278.867 97.768ZM278.195 88.008C280.691 88.008 282.291 89.128 282.707 91.016H273.011C273.651 89.064 275.443 88.008 278.195 88.008ZM292.765 85H288.125L295.677 101H300.317L307.901 85H303.197L298.013 96.232L292.765 85ZM319.554 97.768C316.546 97.768 314.21 96.456 313.602 94.12H327.362C327.554 93.384 327.65 92.648 327.65 91.944C327.65 87.624 324.002 84.456 319.138 84.456C313.794 84.456 309.25 87.656 309.25 93C309.25 97.8 313.186 101.576 319.138 101.576C322.082 101.576 325.09 100.584 327.234 99.496L325.986 96.168C323.714 97.352 321.73 97.768 319.554 97.768ZM318.882 88.008C321.378 88.008 322.978 89.128 323.394 91.016H313.698C314.338 89.064 316.13 88.008 318.882 88.008ZM341.357 84.456C338.573 84.456 336.365 86.824 335.437 88.552V85H331.213V101H335.437V93.064C335.437 90.12 338.285 88.392 340.941 88.392C341.549 88.392 342.381 88.584 343.149 88.936L344.045 85.096C343.245 84.712 342.253 84.456 341.357 84.456ZM49.792 120.424C51.168 120.424 52.672 120.872 54.144 121.512L55.168 117.64C53.664 117.128 51.744 116.68 49.92 116.68C45.984 116.68 43.264 119.08 43.264 122.76V125H40.64V128.68H43.296V141H47.456V128.68H54.56V125H47.296V122.952C47.296 121.224 48.256 120.424 49.792 120.424ZM61.4365 125H57.2765V141H61.4365V125ZM56.8285 120.392C56.8285 121.8 57.9485 122.92 59.3565 122.92C60.7645 122.92 61.8845 121.8 61.8845 120.392C61.8845 119.016 60.7645 117.896 59.3565 117.896C57.9485 117.896 56.8285 119.016 56.8285 120.392ZM70.4983 141V117H66.3063V141H70.4983ZM85.5463 124.52C82.7623 124.52 80.5863 126.504 79.5303 128.392V125H75.3063V141H79.5303V133.032C79.5303 129.96 81.8983 128.424 84.1063 128.424C86.4423 128.424 87.6903 129.992 87.6903 132.104V141H91.9143V133.032C91.9143 129.992 94.2823 128.424 96.4903 128.424C98.8263 128.424 100.074 129.992 100.074 132.104V141H104.298V131.592C104.298 127.368 102.09 124.52 97.9303 124.52C95.2423 124.52 92.6823 126.504 91.4023 128.424C90.5063 126.024 88.5543 124.52 85.5463 124.52ZM118.179 137.768C115.171 137.768 112.835 136.456 112.227 134.12H125.987C126.179 133.384 126.275 132.648 126.275 131.944C126.275 127.624 122.627 124.456 117.763 124.456C112.419 124.456 107.875 127.656 107.875 133C107.875 137.8 111.811 141.576 117.763 141.576C120.707 141.576 123.715 140.584 125.859 139.496L124.611 136.168C122.339 137.352 120.355 137.768 118.179 137.768ZM117.507 128.008C120.003 128.008 121.603 129.128 122.019 131.016H112.323C112.963 129.064 114.755 128.008 117.507 128.008ZM136.845 141.544C140.11 141.544 142.67 139.656 143.726 137.448V141H147.95V117H143.726V125.576C142.126 125.064 139.918 124.424 138.19 124.424C132.814 124.424 128.782 128.36 128.782 133.16C128.782 138.344 132.462 141.544 136.845 141.544ZM138.094 137.608C135.246 137.608 133.038 136.008 133.038 133.128C133.038 130.312 135.246 128.136 138.126 128.136C140.078 128.136 141.87 128.552 143.726 129.096V132.552C143.726 135.624 140.91 137.608 138.094 137.608ZM166.03 125H161.87V141H166.03V125ZM161.422 120.392C161.422 121.8 162.542 122.92 163.95 122.92C165.358 122.92 166.478 121.8 166.478 120.392C166.478 119.016 165.358 117.896 163.95 117.896C162.542 117.896 161.422 119.016 161.422 120.392ZM180.436 128.424C182.964 128.424 184.276 129.992 184.276 132.264V141H188.5V131.752C188.5 127.4 186.004 124.52 181.652 124.52C178.612 124.52 176.244 126.472 175.124 128.552V125H170.9V141H175.124V133.064C175.124 129.896 177.78 128.424 180.436 128.424ZM207.812 131.88C204.516 131.88 201.253 133.352 201.253 136.776C201.253 139.656 203.493 141.64 206.501 141.64C209.22 141.64 211.653 140.168 213.189 138.344C213.253 140.136 214.149 141.64 216.293 141.64C217.605 141.64 219.525 141 221.285 140.04L220.421 136.776C219.493 137.256 218.661 137.608 218.181 137.608C217.733 137.608 217.413 137.32 217.413 136.84V131.08C217.413 126.696 214.853 124.36 210.469 124.36C207.941 124.36 204.581 125.352 202.597 125.992L203.653 129.832C205.989 128.968 208.421 128.232 210.085 128.232C212.101 128.232 213.189 129.352 213.189 131.016V132.872C211.813 132.392 209.541 131.88 207.812 131.88ZM207.877 138.024C206.533 138.024 205.573 137.48 205.573 136.424C205.573 135.272 206.629 134.6 208.036 134.6C209.573 134.6 211.429 134.76 213.189 135.08V135.688C211.685 137.16 209.477 138.024 207.877 138.024ZM230.689 141.544C233.953 141.544 236.513 139.656 237.569 137.448V141H241.793V117H237.569V125.576C235.969 125.064 233.761 124.424 232.033 124.424C226.657 124.424 222.625 128.36 222.625 133.16C222.625 138.344 226.305 141.544 230.689 141.544ZM231.937 137.608C229.089 137.608 226.881 136.008 226.881 133.128C226.881 130.312 229.089 128.136 231.969 128.136C233.921 128.136 235.713 128.552 237.569 129.096V132.552C237.569 135.624 234.753 137.608 231.937 137.608ZM248.828 125H244.188L251.74 141H256.38L263.964 125H259.26L254.076 136.232L248.828 125ZM275.617 137.768C272.609 137.768 270.273 136.456 269.665 134.12H283.425C283.617 133.384 283.713 132.648 283.713 131.944C283.713 127.624 280.065 124.456 275.201 124.456C269.857 124.456 265.313 127.656 265.313 133C265.313 137.8 269.249 141.576 275.201 141.576C278.145 141.576 281.153 140.584 283.297 139.496L282.049 136.168C279.777 137.352 277.793 137.768 275.617 137.768ZM274.945 128.008C277.441 128.008 279.041 129.128 279.457 131.016H269.761C270.401 129.064 272.193 128.008 274.945 128.008ZM297.419 124.456C294.635 124.456 292.427 126.824 291.499 128.552V125H287.275V141H291.499V133.064C291.499 130.12 294.347 128.392 297.003 128.392C297.611 128.392 298.443 128.584 299.211 128.936L300.107 125.096C299.307 124.712 298.315 124.456 297.419 124.456ZM300.515 128.68H303.555V134.888C303.555 138.92 305.699 141.544 309.667 141.544C311.363 141.544 313.635 140.808 314.979 140.104L314.051 136.488C313.027 137.128 311.619 137.64 310.371 137.64C308.707 137.64 307.779 136.456 307.779 134.728V128.68H314.435V125H307.779V120.2H304.259L303.683 125.128L300.515 125.32V128.68ZM332.325 125.576C330.437 124.936 327.461 124.392 324.933 124.392C320.389 124.392 317.157 126.376 317.157 129.512C317.157 135.752 329.061 133.64 329.061 136.168C329.061 137.288 327.461 137.928 325.157 137.928C322.693 137.928 320.197 137.16 318.085 136.232L316.837 139.56C319.013 140.712 321.989 141.64 324.997 141.64C328.901 141.64 333.221 139.624 333.221 136.04C333.221 129.8 321.317 132.008 321.317 129.352C321.317 128.392 322.981 128.072 325.093 128.072C327.141 128.072 329.125 128.488 331.205 129.288L332.325 125.576ZM336.068 139.016C336.068 140.2 336.868 141.16 337.956 141.48C337.764 142.376 337.092 143.304 335.844 144.392L337.7 146.728C340.132 144.808 341.348 141.992 341.348 139.848C341.348 138.184 340.676 136.424 338.692 136.424C337.252 136.424 336.068 137.544 336.068 139.016ZM40.64 168.68H43.68V174.888C43.68 178.92 45.824 181.544 49.792 181.544C51.488 181.544 53.76 180.808 55.104 180.104L54.176 176.488C53.152 177.128 51.744 177.64 50.496 177.64C48.832 177.64 47.904 176.456 47.904 174.728V168.68H54.56V165H47.904V160.2H44.384L43.808 165.128L40.64 165.32V168.68ZM60.5463 165H55.9062L63.4583 181H68.0983L75.6823 165H70.9783L65.7943 176.232L60.5463 165ZM101.294 165.576C99.406 164.936 96.43 164.392 93.902 164.392C89.358 164.392 86.126 166.376 86.126 169.512C86.126 175.752 98.03 173.64 98.03 176.168C98.03 177.288 96.43 177.928 94.126 177.928C91.662 177.928 89.166 177.16 87.054 176.232L85.806 179.56C87.982 180.712 90.958 181.64 93.966 181.64C97.87 181.64 102.19 179.624 102.19 176.04C102.19 169.8 90.286 172.008 90.286 169.352C90.286 168.392 91.95 168.072 94.062 168.072C96.11 168.072 98.094 168.488 100.174 169.288L101.294 165.576ZM115.405 168.424C117.933 168.424 119.245 169.992 119.245 172.264V181H123.469V171.752C123.469 167.4 120.973 164.52 116.621 164.52C113.581 164.52 111.213 166.472 110.093 168.552V157.288H105.869V181H110.093V173.064C110.093 169.896 112.749 168.424 115.405 168.424ZM137.015 164.456C131.671 164.456 127.063 167.496 127.063 172.84C127.063 177.64 131.223 181.576 137.015 181.576C142.807 181.576 146.967 177.64 146.967 172.84C146.967 167.496 142.359 164.456 137.015 164.456ZM137.015 168.136C140.343 168.136 142.711 169.864 142.711 172.84C142.711 175.528 140.183 177.928 137.015 177.928C133.847 177.928 131.319 175.528 131.319 172.84C131.319 169.864 133.687 168.136 137.015 168.136ZM168.953 181H173.241L180.249 165H175.769L171.097 175.976L166.457 165H162.041L157.401 176.008L152.761 165H148.184L155.193 181H159.513L164.249 170.056L168.953 181ZM196.669 165.576C194.781 164.936 191.805 164.392 189.277 164.392C184.733 164.392 181.501 166.376 181.501 169.512C181.501 175.752 193.405 173.64 193.405 176.168C193.405 177.288 191.805 177.928 189.501 177.928C187.037 177.928 184.541 177.16 182.429 176.232L181.181 179.56C183.357 180.712 186.333 181.64 189.341 181.64C193.245 181.64 197.565 179.624 197.565 176.04C197.565 169.8 185.661 172.008 185.661 169.352C185.661 168.392 187.325 168.072 189.437 168.072C191.485 168.072 193.469 168.488 195.549 169.288L196.669 165.576ZM219.202 164.456C213.858 164.456 209.25 167.496 209.25 172.84C209.25 177.64 213.41 181.576 219.202 181.576C224.994 181.576 229.154 177.64 229.154 172.84C229.154 167.496 224.546 164.456 219.202 164.456ZM219.202 168.136C222.53 168.136 224.898 169.864 224.898 172.84C224.898 175.528 222.37 177.928 219.202 177.928C216.034 177.928 213.506 175.528 213.506 172.84C213.506 169.864 215.874 168.136 219.202 168.136ZM243.044 164.456C240.26 164.456 238.052 166.824 237.124 168.552V165H232.9V181H237.124V173.064C237.124 170.12 239.972 168.392 242.628 168.392C243.236 168.392 244.068 168.584 244.836 168.936L245.732 165.096C244.932 164.712 243.94 164.456 243.044 164.456ZM264.355 160.424C265.731 160.424 267.235 160.872 268.707 161.512L269.731 157.64C268.227 157.128 266.307 156.68 264.483 156.68C260.547 156.68 257.827 159.08 257.827 162.76V165H255.203V168.68H257.859V181H262.019V168.68H269.123V165H261.859V162.952C261.859 161.224 262.819 160.424 264.355 160.424ZM275.999 165H271.839V181H275.999V165ZM271.391 160.392C271.391 161.8 272.511 162.92 273.919 162.92C275.327 162.92 276.447 161.8 276.447 160.392C276.447 159.016 275.327 157.896 273.919 157.896C272.511 157.896 271.391 159.016 271.391 160.392ZM285.061 181V157H280.869V181H285.061ZM300.109 164.52C297.325 164.52 295.149 166.504 294.093 168.392V165H289.869V181H294.093V173.032C294.093 169.96 296.461 168.424 298.669 168.424C301.005 168.424 302.253 169.992 302.253 172.104V181H306.477V173.032C306.477 169.992 308.845 168.424 311.053 168.424C313.389 168.424 314.637 169.992 314.637 172.104V181H318.861V171.592C318.861 167.368 316.653 164.52 312.493 164.52C309.805 164.52 307.245 166.504 305.965 168.424C305.069 166.024 303.117 164.52 300.109 164.52ZM337.638 165.576C335.75 164.936 332.774 164.392 330.246 164.392C325.702 164.392 322.47 166.376 322.47 169.512C322.47 175.752 334.374 173.64 334.374 176.168C334.374 177.288 332.774 177.928 330.47 177.928C328.006 177.928 325.51 177.16 323.398 176.232L322.15 179.56C324.326 180.712 327.302 181.64 330.31 181.64C334.214 181.64 338.534 179.624 338.534 176.04C338.534 169.8 326.63 172.008 326.63 169.352C326.63 168.392 328.294 168.072 330.406 168.072C332.454 168.072 334.438 168.488 336.518 169.288L337.638 165.576Z" fill="#CDFFE3"></path> </svg> 