<?xml version="1.0" encoding="UTF-8"?> <svg xmlns="http://www.w3.org/2000/svg" width="400" height="600" viewBox="0 0 400 600" fill="none"><rect width="400" height="600" rx="20" fill="#36BB71"></rect><path d="M47.296 84.136V101H42.88V78.6H48.032L61.536 95.464V78.6H65.952V101H60.8L47.296 84.136ZM80.4918 97.768C82.7318 97.768 84.8758 97.2347 86.9237 96.168L88.1718 99.496C85.4411 100.883 82.7424 101.576 80.0758 101.576C77.1531 101.576 74.7744 100.765 72.9398 99.144C71.1051 97.5013 70.1878 95.4533 70.1878 93C70.1878 90.4187 71.1371 88.3493 73.0358 86.792C74.9558 85.2347 77.3024 84.456 80.0758 84.456C82.5078 84.456 84.5344 85.1707 86.1558 86.6C87.7771 88.008 88.5878 89.7893 88.5878 91.944C88.5878 92.648 88.4918 93.3733 88.2998 94.12H74.5398C74.8384 95.272 75.5211 96.168 76.5878 96.808C77.6544 97.448 78.9558 97.768 80.4918 97.768ZM79.8198 88.008C77.0251 88.008 75.2971 89.0107 74.6358 91.016H84.3318C84.1184 90.056 83.6171 89.32 82.8278 88.808C82.0598 88.2747 81.0571 88.008 79.8198 88.008ZM94.39 85L99.638 96.232L104.822 85H109.526L101.942 101H97.302L89.75 85H94.39ZM121.179 97.768C123.419 97.768 125.563 97.2347 127.611 96.168L128.859 99.496C126.129 100.883 123.43 101.576 120.763 101.576C117.841 101.576 115.462 100.765 113.627 99.144C111.793 97.5013 110.875 95.4533 110.875 93C110.875 90.4187 111.825 88.3493 113.723 86.792C115.643 85.2347 117.99 84.456 120.763 84.456C123.195 84.456 125.222 85.1707 126.843 86.6C128.465 88.008 129.275 89.7893 129.275 91.944C129.275 92.648 129.179 93.3733 128.987 94.12H115.227C115.526 95.272 116.209 96.168 117.275 96.808C118.342 97.448 119.643 97.768 121.179 97.768ZM120.507 88.008C117.713 88.008 115.985 89.0107 115.323 91.016H125.019C124.806 90.056 124.305 89.32 123.515 88.808C122.747 88.2747 121.745 88.008 120.507 88.008ZM142.982 84.456C143.878 84.456 144.774 84.6693 145.67 85.096L144.774 88.936C143.984 88.5733 143.248 88.392 142.566 88.392C141.136 88.392 139.856 88.8293 138.726 89.704C137.616 90.5573 137.062 91.6773 137.062 93.064V101H132.838V85H137.062V88.552C137.616 87.5067 138.427 86.568 139.494 85.736C140.56 84.8827 141.723 84.456 142.982 84.456ZM166.436 88.424C164.985 88.424 163.737 88.8293 162.692 89.64C161.647 90.4293 161.124 91.5707 161.124 93.064V101H156.9V77.288H161.124V88.552C161.743 87.4213 162.628 86.472 163.78 85.704C164.932 84.9147 166.223 84.52 167.652 84.52C169.807 84.52 171.481 85.1813 172.676 86.504C173.892 87.8053 174.5 89.5547 174.5 91.752V101H170.276V92.264C170.276 91.0907 169.945 90.1627 169.284 89.48C168.623 88.776 167.673 88.424 166.436 88.424ZM184.75 91.88C186.435 91.88 188.227 92.2107 190.126 92.872V91.016C190.126 90.1627 189.849 89.4907 189.294 89C188.761 88.488 188.003 88.232 187.022 88.232C185.614 88.232 183.47 88.7653 180.59 89.832L179.534 85.992C182.905 84.904 185.529 84.36 187.406 84.36C189.625 84.36 191.331 84.936 192.526 86.088C193.742 87.24 194.35 88.904 194.35 91.08V96.84C194.35 97.352 194.606 97.608 195.118 97.608C195.545 97.608 196.291 97.3307 197.358 96.776L198.222 100.04C196.259 101.107 194.595 101.64 193.23 101.64C192.227 101.64 191.47 101.341 190.958 100.744C190.446 100.125 190.169 99.3253 190.126 98.344C189.315 99.3253 188.323 100.125 187.15 100.744C185.977 101.341 184.739 101.64 183.438 101.64C181.923 101.64 180.665 101.192 179.662 100.296C178.681 99.3787 178.19 98.2053 178.19 96.776C178.19 95.176 178.83 93.96 180.11 93.128C181.39 92.296 182.937 91.88 184.75 91.88ZM184.814 98.024C185.646 98.024 186.553 97.8107 187.534 97.384C188.537 96.9573 189.401 96.392 190.126 95.688V95.08C188.377 94.76 186.659 94.6 184.974 94.6C184.249 94.6 183.651 94.7707 183.182 95.112C182.734 95.432 182.51 95.8693 182.51 96.424C182.51 96.936 182.713 97.3307 183.118 97.608C183.545 97.8853 184.11 98.024 184.814 98.024ZM202.859 85L208.107 96.232L213.291 85H217.995L210.411 101H205.771L198.219 85H202.859ZM229.648 97.768C231.888 97.768 234.032 97.2347 236.08 96.168L237.328 99.496C234.597 100.883 231.899 101.576 229.232 101.576C226.309 101.576 223.931 100.765 222.096 99.144C220.261 97.5013 219.344 95.4533 219.344 93C219.344 90.4187 220.293 88.3493 222.192 86.792C224.112 85.2347 226.459 84.456 229.232 84.456C231.664 84.456 233.691 85.1707 235.312 86.6C236.933 88.008 237.744 89.7893 237.744 91.944C237.744 92.648 237.648 93.3733 237.456 94.12H223.696C223.995 95.272 224.677 96.168 225.744 96.808C226.811 97.448 228.112 97.768 229.648 97.768ZM228.976 88.008C226.181 88.008 224.453 89.0107 223.792 91.016H233.488C233.275 90.056 232.773 89.32 231.984 88.808C231.216 88.2747 230.213 88.008 228.976 88.008ZM255.265 78.6V101H250.849V78.6H255.265ZM278.867 97.768C281.107 97.768 283.251 97.2347 285.299 96.168L286.547 99.496C283.816 100.883 281.117 101.576 278.451 101.576C275.528 101.576 273.149 100.765 271.315 99.144C269.48 97.5013 268.563 95.4533 268.563 93C268.563 90.4187 269.512 88.3493 271.411 86.792C273.331 85.2347 275.677 84.456 278.451 84.456C280.883 84.456 282.909 85.1707 284.531 86.6C286.152 88.008 286.963 89.7893 286.963 91.944C286.963 92.648 286.867 93.3733 286.675 94.12H272.915C273.213 95.272 273.896 96.168 274.963 96.808C276.029 97.448 277.331 97.768 278.867 97.768ZM278.195 88.008C275.4 88.008 273.672 89.0107 273.011 91.016H282.707C282.493 90.056 281.992 89.32 281.203 88.808C280.435 88.2747 279.432 88.008 278.195 88.008ZM292.765 85L298.013 96.232L303.197 85H307.901L300.317 101H295.677L288.125 85H292.765ZM319.554 97.768C321.794 97.768 323.938 97.2347 325.986 96.168L327.234 99.496C324.504 100.883 321.805 101.576 319.138 101.576C316.216 101.576 313.837 100.765 312.002 99.144C310.168 97.5013 309.25 95.4533 309.25 93C309.25 90.4187 310.2 88.3493 312.098 86.792C314.018 85.2347 316.365 84.456 319.138 84.456C321.57 84.456 323.597 85.1707 325.218 86.6C326.84 88.008 327.65 89.7893 327.65 91.944C327.65 92.648 327.554 93.3733 327.362 94.12H313.602C313.901 95.272 314.584 96.168 315.65 96.808C316.717 97.448 318.018 97.768 319.554 97.768ZM318.882 88.008C316.088 88.008 314.36 89.0107 313.698 91.016H323.394C323.181 90.056 322.68 89.32 321.89 88.808C321.122 88.2747 320.12 88.008 318.882 88.008ZM341.357 84.456C342.253 84.456 343.149 84.6693 344.045 85.096L343.149 88.936C342.359 88.5733 341.623 88.392 340.941 88.392C339.511 88.392 338.231 88.8293 337.101 89.704C335.991 90.5573 335.437 91.6773 335.437 93.064V101H331.213V85H335.437V88.552C335.991 87.5067 336.802 86.568 337.869 85.736C338.935 84.8827 340.098 84.456 341.357 84.456ZM48 131.88C49.6853 131.88 51.4773 132.211 53.376 132.872V131.016C53.376 130.163 53.0987 129.491 52.544 129C52.0107 128.488 51.2533 128.232 50.272 128.232C48.864 128.232 46.72 128.765 43.84 129.832L42.784 125.992C46.1547 124.904 48.7787 124.36 50.656 124.36C52.8747 124.36 54.5813 124.936 55.776 126.088C56.992 127.24 57.6 128.904 57.6 131.08V136.84C57.6 137.352 57.856 137.608 58.368 137.608C58.7947 137.608 59.5413 137.331 60.608 136.776L61.472 140.04C59.5093 141.107 57.8453 141.64 56.48 141.64C55.4773 141.64 54.72 141.341 54.208 140.744C53.696 140.125 53.4187 139.325 53.376 138.344C52.5653 139.325 51.5733 140.125 50.4 140.744C49.2267 141.341 47.9893 141.64 46.688 141.64C45.1733 141.64 43.9147 141.192 42.912 140.296C41.9307 139.379 41.44 138.205 41.44 136.776C41.44 135.176 42.08 133.96 43.36 133.128C44.64 132.296 46.1867 131.88 48 131.88ZM48.064 138.024C48.896 138.024 49.8027 137.811 50.784 137.384C51.7867 136.957 52.6507 136.392 53.376 135.688V135.08C51.6267 134.76 49.9093 134.6 48.224 134.6C47.4987 134.6 46.9013 134.771 46.432 135.112C45.984 135.432 45.76 135.869 45.76 136.424C45.76 136.936 45.9627 137.331 46.368 137.608C46.7947 137.885 47.36 138.024 48.064 138.024ZM74.9728 124.456C77.2341 124.456 79.1434 125.224 80.7008 126.76C82.2581 128.296 83.0368 130.323 83.0368 132.84C83.0368 135.272 82.1301 137.341 80.3168 139.048C78.5248 140.733 76.2954 141.576 73.6288 141.576C72.3701 141.576 70.5248 141.203 68.0928 140.456V148.68H63.8688V125H68.0928V128.552C68.6474 127.379 69.5434 126.408 70.7808 125.64C72.0181 124.851 73.4154 124.456 74.9728 124.456ZM73.7248 128.392C72.2101 128.392 70.8874 128.819 69.7568 129.672C68.6474 130.525 68.0928 131.656 68.0928 133.064V136.904C70.2474 137.544 72.1141 137.864 73.6928 137.864C75.0581 137.864 76.2421 137.363 77.2448 136.36C78.2688 135.357 78.7808 134.184 78.7808 132.84C78.7808 131.453 78.3008 130.365 77.3408 129.576C76.4021 128.787 75.1968 128.392 73.7248 128.392ZM97.879 124.456C100.14 124.456 102.05 125.224 103.607 126.76C105.164 128.296 105.943 130.323 105.943 132.84C105.943 135.272 105.036 137.341 103.223 139.048C101.431 140.733 99.2017 141.576 96.535 141.576C95.2763 141.576 93.431 141.203 90.999 140.456V148.68H86.775V125H90.999V128.552C91.5537 127.379 92.4497 126.408 93.687 125.64C94.9243 124.851 96.3217 124.456 97.879 124.456ZM96.631 128.392C95.1163 128.392 93.7937 128.819 92.663 129.672C91.5537 130.525 90.999 131.656 90.999 133.064V136.904C93.1537 137.544 95.0203 137.864 96.599 137.864C97.9643 137.864 99.1483 137.363 100.151 136.36C101.175 135.357 101.687 134.184 101.687 132.84C101.687 131.453 101.207 130.365 100.247 129.576C99.3083 128.787 98.103 128.392 96.631 128.392ZM118.929 137.768C121.169 137.768 123.313 137.235 125.361 136.168L126.609 139.496C123.879 140.883 121.18 141.576 118.513 141.576C115.591 141.576 113.212 140.765 111.377 139.144C109.543 137.501 108.625 135.453 108.625 133C108.625 130.419 109.575 128.349 111.473 126.792C113.393 125.235 115.74 124.456 118.513 124.456C120.945 124.456 122.972 125.171 124.593 126.6C126.215 128.008 127.025 129.789 127.025 131.944C127.025 132.648 126.929 133.373 126.737 134.12H112.977C113.276 135.272 113.959 136.168 115.025 136.808C116.092 137.448 117.393 137.768 118.929 137.768ZM118.257 128.008C115.463 128.008 113.735 129.011 113.073 131.016H122.769C122.556 130.056 122.055 129.32 121.265 128.808C120.497 128.275 119.495 128.008 118.257 128.008ZM136.188 131.88C137.873 131.88 139.665 132.211 141.564 132.872V131.016C141.564 130.163 141.286 129.491 140.732 129C140.198 128.488 139.441 128.232 138.46 128.232C137.052 128.232 134.908 128.765 132.028 129.832L130.972 125.992C134.342 124.904 136.966 124.36 138.844 124.36C141.062 124.36 142.769 124.936 143.964 126.088C145.18 127.24 145.788 128.904 145.788 131.08V136.84C145.788 137.352 146.044 137.608 146.556 137.608C146.982 137.608 147.729 137.331 148.796 136.776L149.66 140.04C147.697 141.107 146.033 141.64 144.668 141.64C143.665 141.64 142.908 141.341 142.396 140.744C141.884 140.125 141.606 139.325 141.564 138.344C140.753 139.325 139.761 140.125 138.588 140.744C137.414 141.341 136.177 141.64 134.876 141.64C133.361 141.64 132.102 141.192 131.1 140.296C130.118 139.379 129.628 138.205 129.628 136.776C129.628 135.176 130.268 133.96 131.548 133.128C132.828 132.296 134.374 131.88 136.188 131.88ZM136.252 138.024C137.084 138.024 137.99 137.811 138.972 137.384C139.974 136.957 140.838 136.392 141.564 135.688V135.08C139.814 134.76 138.097 134.6 136.411 134.6C135.686 134.6 135.089 134.771 134.62 135.112C134.172 135.432 133.948 135.869 133.948 136.424C133.948 136.936 134.15 137.331 134.556 137.608C134.982 137.885 135.548 138.024 136.252 138.024ZM162.2 124.456C163.096 124.456 163.992 124.669 164.888 125.096L163.992 128.936C163.203 128.573 162.467 128.392 161.784 128.392C160.355 128.392 159.075 128.829 157.944 129.704C156.835 130.557 156.28 131.677 156.28 133.064V141H152.056V125H156.28V128.552C156.835 127.507 157.646 126.568 158.712 125.736C159.779 124.883 160.942 124.456 162.2 124.456ZM176.304 137.768C178.544 137.768 180.688 137.235 182.736 136.168L183.984 139.496C181.254 140.883 178.555 141.576 175.888 141.576C172.966 141.576 170.587 140.765 168.752 139.144C166.918 137.501 166 135.453 166 133C166 130.419 166.95 128.349 168.848 126.792C170.768 125.235 173.115 124.456 175.888 124.456C178.32 124.456 180.347 125.171 181.968 126.6C183.59 128.008 184.4 129.789 184.4 131.944C184.4 132.648 184.304 133.373 184.112 134.12H170.352C170.651 135.272 171.334 136.168 172.4 136.808C173.467 137.448 174.768 137.768 176.304 137.768ZM175.632 128.008C172.838 128.008 171.11 129.011 170.448 131.016H180.144C179.931 130.056 179.43 129.32 178.64 128.808C177.872 128.275 176.87 128.008 175.632 128.008ZM194.97 141.544C192.709 141.544 190.8 140.776 189.243 139.24C187.685 137.704 186.907 135.677 186.907 133.16C186.907 130.728 187.803 128.669 189.595 126.984C191.408 125.277 193.648 124.424 196.315 124.424C197.595 124.424 199.44 124.808 201.851 125.576V117H206.075V141H201.851V137.448C201.296 138.621 200.4 139.603 199.163 140.392C197.925 141.16 196.528 141.544 194.97 141.544ZM192.571 136.424C193.531 137.213 194.747 137.608 196.219 137.608C197.691 137.608 198.992 137.139 200.123 136.2C201.275 135.24 201.851 134.024 201.851 132.552V129.096C199.675 128.456 197.808 128.136 196.251 128.136C194.821 128.136 193.616 128.616 192.635 129.576C191.653 130.536 191.163 131.72 191.163 133.128C191.163 134.536 191.632 135.635 192.571 136.424ZM224.155 125V141H219.995V125H224.155ZM219.547 120.392C219.547 119.709 219.793 119.123 220.283 118.632C220.774 118.141 221.371 117.896 222.075 117.896C222.779 117.896 223.377 118.141 223.867 118.632C224.358 119.123 224.603 119.709 224.603 120.392C224.603 121.096 224.358 121.693 223.867 122.184C223.377 122.675 222.779 122.92 222.075 122.92C221.371 122.92 220.774 122.675 220.283 122.184C219.793 121.693 219.547 121.096 219.547 120.392ZM238.561 128.424C237.11 128.424 235.862 128.829 234.817 129.64C233.772 130.429 233.249 131.571 233.249 133.064V141H229.025V125H233.249V128.552C233.868 127.421 234.753 126.472 235.905 125.704C237.057 124.915 238.348 124.52 239.777 124.52C241.932 124.52 243.606 125.181 244.801 126.504C246.017 127.805 246.625 129.555 246.625 131.752V141H242.401V132.264C242.401 131.091 242.07 130.163 241.409 129.48C240.748 128.776 239.798 128.424 238.561 128.424ZM48 171.88C49.6853 171.88 51.4773 172.211 53.376 172.872V171.016C53.376 170.163 53.0987 169.491 52.544 169C52.0107 168.488 51.2533 168.232 50.272 168.232C48.864 168.232 46.72 168.765 43.84 169.832L42.784 165.992C46.1547 164.904 48.7787 164.36 50.656 164.36C52.8747 164.36 54.5813 164.936 55.776 166.088C56.992 167.24 57.6 168.904 57.6 171.08V176.84C57.6 177.352 57.856 177.608 58.368 177.608C58.7947 177.608 59.5413 177.331 60.608 176.776L61.472 180.04C59.5093 181.107 57.8453 181.64 56.48 181.64C55.4773 181.64 54.72 181.341 54.208 180.744C53.696 180.125 53.4187 179.325 53.376 178.344C52.5653 179.325 51.5733 180.125 50.4 180.744C49.2267 181.341 47.9893 181.64 46.688 181.64C45.1733 181.64 43.9147 181.192 42.912 180.296C41.9307 179.379 41.44 178.205 41.44 176.776C41.44 175.176 42.08 173.96 43.36 173.128C44.64 172.296 46.1867 171.88 48 171.88ZM48.064 178.024C48.896 178.024 49.8027 177.811 50.784 177.384C51.7867 176.957 52.6507 176.392 53.376 175.688V175.08C51.6267 174.76 49.9093 174.6 48.224 174.6C47.4987 174.6 46.9013 174.771 46.432 175.112C45.984 175.432 45.76 175.869 45.76 176.424C45.76 176.936 45.9627 177.331 46.368 177.608C46.7947 177.885 47.36 178.024 48.064 178.024ZM70.8767 181.544C68.6154 181.544 66.7061 180.776 65.1488 179.24C63.5914 177.704 62.8128 175.677 62.8128 173.16C62.8128 170.728 63.7088 168.669 65.5008 166.984C67.3141 165.277 69.5541 164.424 72.2208 164.424C73.5008 164.424 75.3461 164.808 77.7568 165.576V157H81.9808V181H77.7568V177.448C77.2021 178.621 76.3061 179.603 75.0688 180.392C73.8314 181.16 72.4341 181.544 70.8767 181.544ZM68.4768 176.424C69.4368 177.213 70.6528 177.608 72.1248 177.608C73.5968 177.608 74.8981 177.139 76.0288 176.2C77.1808 175.24 77.7568 174.024 77.7568 172.552V169.096C75.5808 168.456 73.7141 168.136 72.1568 168.136C70.7274 168.136 69.5221 168.616 68.5408 169.576C67.5594 170.536 67.0688 171.72 67.0688 173.128C67.0688 174.536 67.5381 175.635 68.4768 176.424ZM89.015 165L94.263 176.232L99.447 165H104.151L96.567 181H91.927L84.375 165H89.015ZM115.804 177.768C118.044 177.768 120.188 177.235 122.236 176.168L123.484 179.496C120.754 180.883 118.055 181.576 115.388 181.576C112.466 181.576 110.087 180.765 108.252 179.144C106.418 177.501 105.5 175.453 105.5 173C105.5 170.419 106.45 168.349 108.348 166.792C110.268 165.235 112.615 164.456 115.388 164.456C117.82 164.456 119.847 165.171 121.468 166.6C123.09 168.008 123.9 169.789 123.9 171.944C123.9 172.648 123.804 173.373 123.612 174.12H109.852C110.151 175.272 110.834 176.168 111.9 176.808C112.967 177.448 114.268 177.768 115.804 177.768ZM115.132 168.008C112.338 168.008 110.61 169.011 109.948 171.016H119.644C119.431 170.056 118.93 169.32 118.14 168.808C117.372 168.275 116.37 168.008 115.132 168.008ZM137.607 164.456C138.503 164.456 139.399 164.669 140.295 165.096L139.399 168.936C138.609 168.573 137.873 168.392 137.191 168.392C135.761 168.392 134.481 168.829 133.351 169.704C132.241 170.557 131.687 171.677 131.687 173.064V181H127.463V165H131.687V168.552C132.241 167.507 133.052 166.568 134.119 165.736C135.185 164.883 136.348 164.456 137.607 164.456ZM140.703 168.68V165.32L143.871 165.128L144.447 160.2H147.967V165H154.623V168.68H147.967V174.728C147.967 175.603 148.191 176.307 148.639 176.84C149.108 177.373 149.748 177.64 150.559 177.64C151.775 177.64 153.001 177.256 154.239 176.488L155.167 180.104C153.332 181.064 151.561 181.544 149.855 181.544C147.892 181.544 146.377 180.947 145.311 179.752C144.265 178.557 143.743 176.936 143.743 174.888V168.68H140.703ZM172.513 165.576L171.393 169.288C169.281 168.477 167.243 168.072 165.281 168.072C162.763 168.072 161.505 168.499 161.505 169.352C161.505 169.821 161.91 170.184 162.721 170.44C163.553 170.696 164.545 170.909 165.697 171.08C166.87 171.251 168.033 171.475 169.185 171.752C170.358 172.008 171.35 172.499 172.161 173.224C172.993 173.949 173.409 174.888 173.409 176.04C173.409 177.725 172.566 179.08 170.881 180.104C169.195 181.128 167.297 181.64 165.185 181.64C162.369 181.64 159.649 180.947 157.025 179.56L158.273 176.232C160.854 177.363 163.211 177.928 165.345 177.928C166.518 177.928 167.457 177.779 168.161 177.48C168.886 177.16 169.249 176.723 169.249 176.168C169.249 175.72 168.833 175.379 168.001 175.144C167.19 174.888 166.198 174.675 165.025 174.504C163.873 174.333 162.71 174.109 161.537 173.832C160.385 173.555 159.393 173.053 158.561 172.328C157.75 171.603 157.345 170.664 157.345 169.512C157.345 167.955 158.059 166.717 159.489 165.8C160.939 164.861 162.817 164.392 165.121 164.392C167.723 164.392 170.187 164.787 172.513 165.576ZM176.256 179.016C176.256 178.291 176.512 177.683 177.024 177.192C177.536 176.68 178.154 176.424 178.88 176.424C179.797 176.424 180.469 176.755 180.896 177.416C181.322 178.077 181.536 178.888 181.536 179.848C181.536 180.979 181.216 182.173 180.576 183.432C179.936 184.712 179.04 185.811 177.888 186.728L176.032 184.392C177.248 183.325 177.952 182.355 178.144 181.48C177.589 181.309 177.13 181 176.768 180.552C176.426 180.104 176.256 179.592 176.256 179.016ZM192.828 168.68V165.32L195.996 165.128L196.572 160.2H200.092V165H206.748V168.68H200.092V174.728C200.092 175.603 200.316 176.307 200.764 176.84C201.233 177.373 201.873 177.64 202.684 177.64C203.9 177.64 205.126 177.256 206.364 176.488L207.292 180.104C205.457 181.064 203.686 181.544 201.98 181.544C200.017 181.544 198.502 180.947 197.436 179.752C196.39 178.557 195.868 176.936 195.868 174.888V168.68H192.828ZM212.734 165L217.982 176.232L223.166 165H227.87L220.286 181H215.646L208.094 165H212.734ZM253.482 165.576L252.362 169.288C250.25 168.477 248.212 168.072 246.25 168.072C243.732 168.072 242.474 168.499 242.474 169.352C242.474 169.821 242.879 170.184 243.69 170.44C244.522 170.696 245.514 170.909 246.666 171.08C247.839 171.251 249.002 171.475 250.154 171.752C251.327 172.008 252.319 172.499 253.13 173.224C253.962 173.949 254.378 174.888 254.378 176.04C254.378 177.725 253.535 179.08 251.85 180.104C250.164 181.128 248.266 181.64 246.154 181.64C243.338 181.64 240.618 180.947 237.993 179.56L239.242 176.232C241.823 177.363 244.18 177.928 246.314 177.928C247.487 177.928 248.426 177.779 249.13 177.48C249.855 177.16 250.218 176.723 250.218 176.168C250.218 175.72 249.802 175.379 248.97 175.144C248.159 174.888 247.167 174.675 245.994 174.504C244.842 174.333 243.679 174.109 242.506 173.832C241.354 173.555 240.362 173.053 239.53 172.328C238.719 171.603 238.314 170.664 238.314 169.512C238.314 167.955 239.028 166.717 240.458 165.8C241.908 164.861 243.786 164.392 246.09 164.392C248.692 164.392 251.156 164.787 253.482 165.576ZM267.592 168.424C266.142 168.424 264.894 168.829 263.848 169.64C262.803 170.429 262.28 171.571 262.28 173.064V181H258.056V157.288H262.28V168.552C262.899 167.421 263.784 166.472 264.936 165.704C266.088 164.915 267.379 164.52 268.808 164.52C270.963 164.52 272.638 165.181 273.832 166.504C275.048 167.805 275.656 169.555 275.656 171.752V181H271.432V172.264C271.432 171.091 271.102 170.163 270.44 169.48C269.779 168.776 268.83 168.424 267.592 168.424ZM282.13 166.728C284.05 165.213 286.408 164.456 289.202 164.456C291.997 164.456 294.354 165.213 296.274 166.728C298.194 168.221 299.154 170.259 299.154 172.84C299.154 175.272 298.205 177.341 296.306 179.048C294.429 180.733 292.061 181.576 289.202 181.576C286.344 181.576 283.965 180.733 282.066 179.048C280.189 177.341 279.25 175.272 279.25 172.84C279.25 170.259 280.21 168.221 282.13 166.728ZM293.33 169.416C292.285 168.563 290.909 168.136 289.202 168.136C287.496 168.136 286.12 168.563 285.074 169.416C284.029 170.248 283.506 171.389 283.506 172.84C283.506 174.205 284.061 175.4 285.17 176.424C286.301 177.427 287.645 177.928 289.202 177.928C290.76 177.928 292.093 177.427 293.202 176.424C294.333 175.4 294.898 174.205 294.898 172.84C294.898 171.389 294.376 170.248 293.33 169.416ZM321.14 181L316.436 170.056L311.7 181H307.38L300.372 165H304.948L309.588 176.008L314.228 165H318.644L323.284 175.976L327.956 165H332.436L325.428 181H321.14ZM348.857 165.576L347.737 169.288C345.625 168.477 343.587 168.072 341.625 168.072C339.107 168.072 337.849 168.499 337.849 169.352C337.849 169.821 338.254 170.184 339.065 170.44C339.897 170.696 340.889 170.909 342.041 171.08C343.214 171.251 344.377 171.475 345.529 171.752C346.702 172.008 347.694 172.499 348.505 173.224C349.337 173.949 349.753 174.888 349.753 176.04C349.753 177.725 348.91 179.08 347.225 180.104C345.539 181.128 343.641 181.64 341.529 181.64C338.713 181.64 335.993 180.947 333.368 179.56L334.617 176.232C337.198 177.363 339.555 177.928 341.689 177.928C342.862 177.928 343.801 177.779 344.505 177.48C345.23 177.16 345.593 176.723 345.593 176.168C345.593 175.72 345.177 175.379 344.345 175.144C343.534 174.888 342.542 174.675 341.369 174.504C340.217 174.333 339.054 174.109 337.881 173.832C336.729 173.555 335.737 173.053 334.905 172.328C334.094 171.603 333.689 170.664 333.689 169.512C333.689 167.955 334.403 166.717 335.833 165.8C337.283 164.861 339.161 164.392 341.465 164.392C344.067 164.392 346.531 164.787 348.857 165.576ZM44.224 206.728C46.144 205.213 48.5013 204.456 51.296 204.456C54.0907 204.456 56.448 205.213 58.368 206.728C60.288 208.221 61.248 210.259 61.248 212.84C61.248 215.272 60.2987 217.341 58.4 219.048C56.5227 220.733 54.1547 221.576 51.296 221.576C48.4373 221.576 46.0587 220.733 44.16 219.048C42.2827 217.341 41.344 215.272 41.344 212.84C41.344 210.259 42.304 208.221 44.224 206.728ZM55.424 209.416C54.3787 208.563 53.0027 208.136 51.296 208.136C49.5893 208.136 48.2133 208.563 47.168 209.416C46.1227 210.248 45.6 211.389 45.6 212.84C45.6 214.205 46.1547 215.4 47.264 216.424C48.3947 217.427 49.7387 217.928 51.296 217.928C52.8533 217.928 54.1867 217.427 55.296 216.424C56.4267 215.4 56.992 214.205 56.992 212.84C56.992 211.389 56.4693 210.248 55.424 209.416ZM75.1378 204.456C76.0338 204.456 76.9298 204.669 77.8258 205.096L76.9298 208.936C76.1404 208.573 75.4044 208.392 74.7218 208.392C73.2924 208.392 72.0124 208.829 70.8818 209.704C69.7724 210.557 69.2178 211.677 69.2178 213.064V221H64.9938V205H69.2178V208.552C69.7724 207.507 70.5831 206.568 71.6498 205.736C72.7164 204.883 73.8791 204.456 75.1378 204.456ZM96.4483 200.424C94.7843 200.424 93.9523 201.267 93.9523 202.952V205H101.216V208.68H94.1123V221H89.9523V208.68H87.2963V205H89.9203V202.76C89.9203 200.925 90.5283 199.453 91.7443 198.344C92.9816 197.235 94.5923 196.68 96.5763 196.68C98.1976 196.68 99.9469 197 101.824 197.64L100.8 201.512C99.1363 200.787 97.6856 200.424 96.4483 200.424ZM108.093 205V221H103.933V205H108.093ZM103.485 200.392C103.485 199.709 103.73 199.123 104.221 198.632C104.711 198.141 105.309 197.896 106.013 197.896C106.717 197.896 107.314 198.141 107.805 198.632C108.295 199.123 108.541 199.709 108.541 200.392C108.541 201.096 108.295 201.693 107.805 202.184C107.314 202.675 106.717 202.92 106.013 202.92C105.309 202.92 104.711 202.675 104.221 202.184C103.73 201.693 103.485 201.096 103.485 200.392ZM117.155 221H112.963V197H117.155V221ZM132.203 204.52C135.125 204.52 137.077 205.821 138.059 208.424C138.763 207.379 139.712 206.472 140.907 205.704C142.101 204.915 143.328 204.52 144.587 204.52C146.635 204.52 148.203 205.16 149.291 206.44C150.4 207.72 150.955 209.437 150.955 211.592V221H146.731V212.104C146.731 211.016 146.411 210.131 145.771 209.448C145.152 208.765 144.277 208.424 143.147 208.424C141.952 208.424 140.885 208.84 139.947 209.672C139.029 210.483 138.571 211.603 138.571 213.032V221H134.347V212.104C134.347 211.016 134.027 210.131 133.387 209.448C132.768 208.765 131.893 208.424 130.763 208.424C129.547 208.424 128.48 208.829 127.562 209.64C126.645 210.451 126.187 211.581 126.187 213.032V221H121.963V205H126.187V208.392C126.784 207.325 127.605 206.419 128.651 205.672C129.717 204.904 130.901 204.52 132.203 204.52ZM169.732 205.576L168.612 209.288C166.5 208.477 164.462 208.072 162.5 208.072C159.982 208.072 158.724 208.499 158.724 209.352C158.724 209.821 159.129 210.184 159.94 210.44C160.772 210.696 161.764 210.909 162.916 211.08C164.089 211.251 165.252 211.475 166.404 211.752C167.577 212.008 168.569 212.499 169.38 213.224C170.212 213.949 170.628 214.888 170.628 216.04C170.628 217.725 169.785 219.08 168.1 220.104C166.414 221.128 164.516 221.64 162.404 221.64C159.588 221.64 156.868 220.947 154.243 219.56L155.492 216.232C158.073 217.363 160.43 217.928 162.564 217.928C163.737 217.928 164.676 217.779 165.38 217.48C166.105 217.16 166.468 216.723 166.468 216.168C166.468 215.72 166.052 215.379 165.22 215.144C164.409 214.888 163.417 214.675 162.244 214.504C161.092 214.333 159.929 214.109 158.756 213.832C157.604 213.555 156.612 213.053 155.78 212.328C154.969 211.603 154.564 210.664 154.564 209.512C154.564 207.955 155.278 206.717 156.708 205.8C158.158 204.861 160.036 204.392 162.34 204.392C164.942 204.392 167.406 204.787 169.732 205.576Z" fill="#CDFFE3"></path></svg> 