<?xml version="1.0" encoding="UTF-8"?> <svg xmlns="http://www.w3.org/2000/svg" width="400" height="600" viewBox="0 0 400 600" fill="none"> <rect width="400" height="600" rx="20" fill="#EEBF38"></rect> <path d="M47.296 84.136L60.8 101H65.952V78.6H61.536V95.464L48.032 78.6H42.88V101H47.296V84.136ZM80.4918 97.768C77.4838 97.768 75.1478 96.456 74.5398 94.12H88.2998C88.4918 93.384 88.5878 92.648 88.5878 91.944C88.5878 87.624 84.9398 84.456 80.0758 84.456C74.7318 84.456 70.1878 87.656 70.1878 93C70.1878 97.8 74.1238 101.576 80.0758 101.576C83.0198 101.576 86.0278 100.584 88.1718 99.496L86.9237 96.168C84.6518 97.352 82.6678 97.768 80.4918 97.768ZM79.8198 88.008C82.3158 88.008 83.9158 89.128 84.3318 91.016H74.6358C75.2758 89.064 77.0677 88.008 79.8198 88.008ZM94.39 85H89.75L97.302 101H101.942L109.526 85H104.822L99.638 96.232L94.39 85ZM121.179 97.768C118.171 97.768 115.835 96.456 115.227 94.12H128.987C129.179 93.384 129.275 92.648 129.275 91.944C129.275 87.624 125.627 84.456 120.763 84.456C115.419 84.456 110.875 87.656 110.875 93C110.875 97.8 114.811 101.576 120.763 101.576C123.707 101.576 126.715 100.584 128.859 99.496L127.611 96.168C125.339 97.352 123.355 97.768 121.179 97.768ZM120.507 88.008C123.003 88.008 124.603 89.128 125.019 91.016H115.323C115.963 89.064 117.755 88.008 120.507 88.008ZM142.982 84.456C140.198 84.456 137.99 86.824 137.062 88.552V85H132.838V101H137.062V93.064C137.062 90.12 139.91 88.392 142.566 88.392C143.174 88.392 144.006 88.584 144.774 88.936L145.67 85.096C144.87 84.712 143.878 84.456 142.982 84.456ZM166.436 88.424C168.964 88.424 170.276 89.992 170.276 92.264V101H174.5V91.752C174.5 87.4 172.004 84.52 167.652 84.52C164.612 84.52 162.244 86.472 161.124 88.552V77.288H156.9V101H161.124V93.064C161.124 89.896 163.78 88.424 166.436 88.424ZM184.75 91.88C181.454 91.88 178.19 93.352 178.19 96.776C178.19 99.656 180.43 101.64 183.438 101.64C186.158 101.64 188.59 100.168 190.126 98.344C190.19 100.136 191.086 101.64 193.23 101.64C194.542 101.64 196.462 101 198.222 100.04L197.358 96.776C196.43 97.256 195.598 97.608 195.118 97.608C194.67 97.608 194.35 97.32 194.35 96.84V91.08C194.35 86.696 191.79 84.36 187.406 84.36C184.878 84.36 181.518 85.352 179.534 85.992L180.59 89.832C182.926 88.968 185.358 88.232 187.022 88.232C189.038 88.232 190.126 89.352 190.126 91.016V92.872C188.75 92.392 186.478 91.88 184.75 91.88ZM184.814 98.024C183.47 98.024 182.51 97.48 182.51 96.424C182.51 95.272 183.566 94.6 184.974 94.6C186.51 94.6 188.366 94.76 190.126 95.08V95.688C188.622 97.16 186.414 98.024 184.814 98.024ZM202.859 85H198.219L205.771 101H210.411L217.995 85H213.291L208.107 96.232L202.859 85ZM229.648 97.768C226.64 97.768 224.304 96.456 223.696 94.12H237.456C237.648 93.384 237.744 92.648 237.744 91.944C237.744 87.624 234.096 84.456 229.232 84.456C223.888 84.456 219.344 87.656 219.344 93C219.344 97.8 223.28 101.576 229.232 101.576C232.176 101.576 235.184 100.584 237.328 99.496L236.08 96.168C233.808 97.352 231.824 97.768 229.648 97.768ZM228.976 88.008C231.472 88.008 233.072 89.128 233.488 91.016H223.792C224.432 89.064 226.224 88.008 228.976 88.008ZM255.265 78.6H250.849V101H255.265V78.6ZM278.867 97.768C275.859 97.768 273.523 96.456 272.915 94.12H286.675C286.867 93.384 286.963 92.648 286.963 91.944C286.963 87.624 283.315 84.456 278.451 84.456C273.107 84.456 268.563 87.656 268.563 93C268.563 97.8 272.499 101.576 278.451 101.576C281.395 101.576 284.403 100.584 286.547 99.496L285.299 96.168C283.027 97.352 281.043 97.768 278.867 97.768ZM278.195 88.008C280.691 88.008 282.291 89.128 282.707 91.016H273.011C273.651 89.064 275.443 88.008 278.195 88.008ZM292.765 85H288.125L295.677 101H300.317L307.901 85H303.197L298.013 96.232L292.765 85ZM319.554 97.768C316.546 97.768 314.21 96.456 313.602 94.12H327.362C327.554 93.384 327.65 92.648 327.65 91.944C327.65 87.624 324.002 84.456 319.138 84.456C313.794 84.456 309.25 87.656 309.25 93C309.25 97.8 313.186 101.576 319.138 101.576C322.082 101.576 325.09 100.584 327.234 99.496L325.986 96.168C323.714 97.352 321.73 97.768 319.554 97.768ZM318.882 88.008C321.378 88.008 322.978 89.128 323.394 91.016H313.698C314.338 89.064 316.13 88.008 318.882 88.008ZM341.357 84.456C338.573 84.456 336.365 86.824 335.437 88.552V85H331.213V101H335.437V93.064C335.437 90.12 338.285 88.392 340.941 88.392C341.549 88.392 342.381 88.584 343.149 88.936L344.045 85.096C343.245 84.712 342.253 84.456 341.357 84.456ZM53.376 124.456C50.208 124.456 47.68 126.344 46.624 128.552V117H42.4V139.4C44.48 140.328 48.832 141.576 52.032 141.576C57.28 141.576 61.312 137.64 61.312 132.84C61.312 127.656 57.632 124.456 53.376 124.456ZM52.128 128.392C54.912 128.392 57.056 129.96 57.056 132.84C57.056 135.528 54.72 137.864 52.096 137.864C50.144 137.864 48.48 137.544 46.624 136.936V133.064C46.624 130.12 49.44 128.392 52.128 128.392ZM74.3043 137.768C71.2963 137.768 68.9603 136.456 68.3523 134.12H82.1123C82.3043 133.384 82.4003 132.648 82.4003 131.944C82.4003 127.624 78.7523 124.456 73.8883 124.456C68.5443 124.456 64.0003 127.656 64.0003 133C64.0003 137.8 67.9363 141.576 73.8883 141.576C76.8323 141.576 79.8403 140.584 81.9843 139.496L80.7362 136.168C78.4643 137.352 76.4803 137.768 74.3043 137.768ZM73.6323 128.008C76.1283 128.008 77.7283 129.128 78.1443 131.016H68.4483C69.0883 129.064 70.8802 128.008 73.6323 128.008ZM95.2105 137.768C92.2025 137.768 89.8665 136.456 89.2585 134.12H103.019C103.211 133.384 103.307 132.648 103.307 131.944C103.307 127.624 99.6585 124.456 94.7945 124.456C89.4505 124.456 84.9065 127.656 84.9065 133C84.9065 137.8 88.8425 141.576 94.7945 141.576C97.7385 141.576 100.747 140.584 102.891 139.496L101.642 136.168C99.3705 137.352 97.3865 137.768 95.2105 137.768ZM94.5385 128.008C97.0345 128.008 98.6345 129.128 99.0505 131.016H89.3545C89.9945 129.064 91.7865 128.008 94.5385 128.008ZM116.405 128.424C118.933 128.424 120.245 129.992 120.245 132.264V141H124.469V131.752C124.469 127.4 121.973 124.52 117.621 124.52C114.581 124.52 112.213 126.472 111.093 128.552V125H106.869V141H111.093V133.064C111.093 129.896 113.749 128.424 116.405 128.424ZM49.408 181.544C52.672 181.544 55.232 179.656 56.288 177.448V181H60.512V157H56.288V165.576C54.688 165.064 52.48 164.424 50.752 164.424C45.376 164.424 41.344 168.36 41.344 173.16C41.344 178.344 45.024 181.544 49.408 181.544ZM50.656 177.608C47.808 177.608 45.6 176.008 45.6 173.128C45.6 170.312 47.808 168.136 50.688 168.136C52.64 168.136 54.432 168.552 56.288 169.096V172.552C56.288 175.624 53.472 177.608 50.656 177.608ZM69.5303 165H65.3703V181H69.5303V165ZM64.9223 160.392C64.9223 161.8 66.0423 162.92 67.4503 162.92C68.8583 162.92 69.9783 161.8 69.9783 160.392C69.9783 159.016 68.8583 157.896 67.4503 157.896C66.0423 157.896 64.9223 159.016 64.9223 160.392ZM88.544 165.576C86.656 164.936 83.68 164.392 81.152 164.392C76.608 164.392 73.376 166.376 73.376 169.512C73.376 175.752 85.28 173.64 85.28 176.168C85.28 177.288 83.68 177.928 81.376 177.928C78.912 177.928 76.416 177.16 74.304 176.232L73.056 179.56C75.232 180.712 78.208 181.64 81.216 181.64C85.12 181.64 89.44 179.624 89.44 176.04C89.44 169.8 77.536 172.008 77.536 169.352C77.536 168.392 79.2 168.072 81.312 168.072C83.36 168.072 85.344 168.488 87.424 169.288L88.544 165.576ZM98.7188 171.88C95.4227 171.88 92.1588 173.352 92.1588 176.776C92.1588 179.656 94.3988 181.64 97.4068 181.64C100.127 181.64 102.559 180.168 104.095 178.344C104.159 180.136 105.055 181.64 107.199 181.64C108.511 181.64 110.431 181 112.191 180.04L111.327 176.776C110.399 177.256 109.567 177.608 109.087 177.608C108.639 177.608 108.319 177.32 108.319 176.84V171.08C108.319 166.696 105.759 164.36 101.375 164.36C98.8468 164.36 95.4868 165.352 93.5028 165.992L94.5588 169.832C96.8948 168.968 99.3268 168.232 100.991 168.232C103.007 168.232 104.095 169.352 104.095 171.016V172.872C102.719 172.392 100.447 171.88 98.7188 171.88ZM98.7828 178.024C97.4388 178.024 96.4788 177.48 96.4788 176.424C96.4788 175.272 97.5348 174.6 98.9427 174.6C100.479 174.6 102.335 174.76 104.095 175.08V175.688C102.591 177.16 100.383 178.024 98.7828 178.024ZM125.692 164.456C122.428 164.456 119.868 166.344 118.812 168.552V165H114.588V188.68H118.812V180.456C120.38 180.936 122.588 181.576 124.348 181.576C129.724 181.576 133.756 177.64 133.756 172.84C133.756 167.656 130.076 164.456 125.692 164.456ZM124.444 168.392C127.292 168.392 129.5 169.96 129.5 172.84C129.5 175.528 127.164 177.864 124.412 177.864C122.428 177.864 120.635 177.448 118.812 176.904V173.064C118.812 170.12 121.595 168.392 124.444 168.392ZM148.598 164.456C145.334 164.456 142.774 166.344 141.718 168.552V165H137.494V188.68H141.718V180.456C143.286 180.936 145.494 181.576 147.254 181.576C152.63 181.576 156.662 177.64 156.662 172.84C156.662 167.656 152.982 164.456 148.598 164.456ZM147.35 168.392C150.198 168.392 152.406 169.96 152.406 172.84C152.406 175.528 150.07 177.864 147.318 177.864C145.334 177.864 143.542 177.448 141.718 176.904V173.064C141.718 170.12 144.502 168.392 147.35 168.392ZM169.296 164.456C163.952 164.456 159.344 167.496 159.344 172.84C159.344 177.64 163.504 181.576 169.296 181.576C175.088 181.576 179.248 177.64 179.248 172.84C179.248 167.496 174.64 164.456 169.296 164.456ZM169.296 168.136C172.624 168.136 174.992 169.864 174.992 172.84C174.992 175.528 172.464 177.928 169.296 177.928C166.128 177.928 163.6 175.528 163.6 172.84C163.6 169.864 165.968 168.136 169.296 168.136ZM187.218 165H183.058V181H187.218V165ZM182.61 160.392C182.61 161.8 183.73 162.92 185.138 162.92C186.546 162.92 187.666 161.8 187.666 160.392C187.666 159.016 186.546 157.896 185.138 157.896C183.73 157.896 182.61 159.016 182.61 160.392ZM201.624 168.424C204.152 168.424 205.464 169.992 205.464 172.264V181H209.688V171.752C209.688 167.4 207.192 164.52 202.84 164.52C199.8 164.52 197.432 166.472 196.312 168.552V165H192.088V181H196.312V173.064C196.312 169.896 198.968 168.424 201.624 168.424ZM212.578 168.68H215.618V174.888C215.618 178.92 217.762 181.544 221.73 181.544C223.426 181.544 225.698 180.808 227.042 180.104L226.114 176.488C225.09 177.128 223.682 177.64 222.434 177.64C220.77 177.64 219.842 176.456 219.842 174.728V168.68H226.498V165H219.842V160.2H216.322L215.746 165.128L212.578 165.32V168.68ZM239.492 177.768C236.484 177.768 234.148 176.456 233.54 174.12H247.3C247.492 173.384 247.588 172.648 247.588 171.944C247.588 167.624 243.94 164.456 239.076 164.456C233.732 164.456 229.188 167.656 229.188 173C229.188 177.8 233.124 181.576 239.076 181.576C242.02 181.576 245.028 180.584 247.172 179.496L245.924 176.168C243.652 177.352 241.668 177.768 239.492 177.768ZM238.82 168.008C241.316 168.008 242.916 169.128 243.332 171.016H233.636C234.276 169.064 236.068 168.008 238.82 168.008ZM258.158 181.544C261.422 181.544 263.982 179.656 265.038 177.448V181H269.262V157H265.038V165.576C263.438 165.064 261.23 164.424 259.502 164.424C254.126 164.424 250.094 168.36 250.094 173.16C250.094 178.344 253.774 181.544 258.158 181.544ZM259.406 177.608C256.558 177.608 254.35 176.008 254.35 173.128C254.35 170.312 256.558 168.136 259.438 168.136C261.39 168.136 263.182 168.552 265.038 169.096V172.552C265.038 175.624 262.222 177.608 259.406 177.608ZM301.359 181H305.647L312.655 165H308.175L303.503 175.976L298.863 165H294.447L289.807 176.008L285.167 165H280.591L287.599 181H291.919L296.655 170.056L301.359 181ZM319.155 165H314.995V181H319.155V165ZM314.547 160.392C314.547 161.8 315.667 162.92 317.075 162.92C318.483 162.92 319.603 161.8 319.603 160.392C319.603 159.016 318.483 157.896 317.075 157.896C315.667 157.896 314.547 159.016 314.547 160.392ZM322.265 168.68H325.305V174.888C325.305 178.92 327.449 181.544 331.417 181.544C333.113 181.544 335.385 180.808 336.729 180.104L335.801 176.488C334.777 177.128 333.369 177.64 332.121 177.64C330.457 177.64 329.529 176.456 329.529 174.728V168.68H336.185V165H329.529V160.2H326.009L325.433 165.128L322.265 165.32V168.68ZM349.467 168.424C351.995 168.424 353.307 169.992 353.307 172.264V181H357.531V171.752C357.531 167.4 355.035 164.52 350.683 164.52C347.643 164.52 345.275 166.472 344.155 168.552V157.288H339.931V181H344.155V173.064C344.155 169.896 346.811 168.424 349.467 168.424ZM48 211.88C44.704 211.88 41.44 213.352 41.44 216.776C41.44 219.656 43.68 221.64 46.688 221.64C49.408 221.64 51.84 220.168 53.376 218.344C53.44 220.136 54.336 221.64 56.48 221.64C57.792 221.64 59.712 221 61.472 220.04L60.608 216.776C59.68 217.256 58.848 217.608 58.368 217.608C57.92 217.608 57.6 217.32 57.6 216.84V211.08C57.6 206.696 55.04 204.36 50.656 204.36C48.128 204.36 44.768 205.352 42.784 205.992L43.84 209.832C46.176 208.968 48.608 208.232 50.272 208.232C52.288 208.232 53.376 209.352 53.376 211.016V212.872C52 212.392 49.728 211.88 48 211.88ZM48.064 218.024C46.72 218.024 45.76 217.48 45.76 216.424C45.76 215.272 46.816 214.6 48.224 214.6C49.76 214.6 51.616 214.76 53.376 215.08V215.688C51.872 217.16 49.664 218.024 48.064 218.024ZM83.9073 204.456C80.7393 204.456 78.2113 206.344 77.1553 208.552V197H72.9313V219.4C75.0113 220.328 79.3633 221.576 82.5633 221.576C87.8113 221.576 91.8433 217.64 91.8433 212.84C91.8433 207.656 88.1632 204.456 83.9073 204.456ZM82.6593 208.392C85.4433 208.392 87.5873 209.96 87.5873 212.84C87.5873 215.528 85.2513 217.864 82.6273 217.864C80.6753 217.864 79.0113 217.544 77.1553 216.936V213.064C77.1553 210.12 79.9713 208.392 82.6593 208.392ZM99.8115 205H95.6515V221H99.8115V205ZM95.2035 200.392C95.2035 201.8 96.3235 202.92 97.7315 202.92C99.1395 202.92 100.26 201.8 100.26 200.392C100.26 199.016 99.1395 197.896 97.7315 197.896C96.3235 197.896 95.2035 199.016 95.2035 200.392ZM114.825 204.456C112.041 204.456 109.833 206.824 108.905 208.552V205H104.681V221H108.905V213.064C108.905 210.12 111.753 208.392 114.409 208.392C115.017 208.392 115.849 208.584 116.617 208.936L117.513 205.096C116.713 204.712 115.721 204.456 114.825 204.456ZM117.921 208.68H120.961V214.888C120.961 218.92 123.105 221.544 127.073 221.544C128.769 221.544 131.041 220.808 132.385 220.104L131.457 216.488C130.433 217.128 129.025 217.64 127.777 217.64C126.113 217.64 125.185 216.456 125.185 214.728V208.68H131.841V205H125.185V200.2H121.665L121.089 205.128L117.921 205.32V208.68ZM145.124 208.424C147.652 208.424 148.964 209.992 148.964 212.264V221H153.188V211.752C153.188 207.4 150.692 204.52 146.34 204.52C143.3 204.52 140.932 206.472 139.812 208.552V197.288H135.588V221H139.812V213.064C139.812 209.896 142.468 208.424 145.124 208.424ZM164.845 221.544C168.11 221.544 170.67 219.656 171.726 217.448V221H175.95V197H171.726V205.576C170.126 205.064 167.918 204.424 166.19 204.424C160.814 204.424 156.782 208.36 156.782 213.16C156.782 218.344 160.462 221.544 164.845 221.544ZM166.094 217.608C163.246 217.608 161.038 216.008 161.038 213.128C161.038 210.312 163.246 208.136 166.126 208.136C168.078 208.136 169.87 208.552 171.726 209.096V212.552C171.726 215.624 168.91 217.608 166.094 217.608ZM186.344 211.88C183.048 211.88 179.784 213.352 179.784 216.776C179.784 219.656 182.024 221.64 185.032 221.64C187.752 221.64 190.184 220.168 191.72 218.344C191.784 220.136 192.68 221.64 194.824 221.64C196.136 221.64 198.056 221 199.816 220.04L198.952 216.776C198.024 217.256 197.192 217.608 196.712 217.608C196.264 217.608 195.944 217.32 195.944 216.84V211.08C195.944 206.696 193.384 204.36 189 204.36C186.472 204.36 183.112 205.352 181.128 205.992L182.184 209.832C184.52 208.968 186.952 208.232 188.616 208.232C190.632 208.232 191.72 209.352 191.72 211.016V212.872C190.344 212.392 188.072 211.88 186.344 211.88ZM186.408 218.024C185.064 218.024 184.104 217.48 184.104 216.424C184.104 215.272 185.16 214.6 186.568 214.6C188.104 214.6 189.96 214.76 191.72 215.08V215.688C190.216 217.16 188.008 218.024 186.408 218.024ZM219.653 205H215.013C213.573 208.424 211.813 212.552 210.149 216.424L204.421 205H199.812L208.069 221.224C208.069 221.256 208.005 221.32 208.005 221.384C207.205 223.176 206.309 224.936 204.613 224.936C204.389 224.936 203.749 224.872 203.173 224.776L202.949 228.84C203.493 228.936 204.197 229 204.421 229C208.933 229 210.405 225.736 211.941 222.312L219.653 205ZM236.815 218.888C235.759 218.888 235.215 218.504 235.215 217.96C235.215 217.512 235.631 217.192 236.015 217.096C236.751 217.224 237.551 217.288 238.351 217.288C243.183 217.288 246.703 214.536 246.703 210.888C246.703 209.8 246.415 208.84 245.967 208.04C246.735 207.656 247.631 207.432 248.751 207.304L247.983 203.368C245.935 203.72 244.335 204.488 243.119 205.48C241.743 204.808 240.079 204.456 238.351 204.456C233.967 204.456 230.031 206.664 230.031 210.888C230.031 212.616 231.407 214.376 232.879 215.336C232.079 215.848 231.151 216.68 231.151 217.736C231.151 218.76 231.823 219.88 232.687 220.296C231.087 220.712 229.391 222.28 229.391 223.976C229.391 227.336 233.167 229.096 238.991 229.096C244.463 229.096 248.495 227.304 248.495 223.656C248.495 220.328 244.463 218.888 238.991 218.888H236.815ZM238.319 207.944C240.591 207.944 242.319 208.936 242.319 210.76C242.319 212.264 240.751 213.512 238.319 213.512C236.015 213.512 234.287 212.36 234.287 210.76C234.287 208.936 236.015 207.944 238.319 207.944ZM238.927 222.472C242.223 222.472 244.399 222.92 244.399 224.008C244.399 225.192 242.223 225.64 238.927 225.64C235.407 225.64 233.455 225.128 233.455 223.976C233.455 223.336 234.063 222.792 234.767 222.504C235.311 222.472 238.287 222.472 238.927 222.472ZM255.53 205H251.37V221H255.53V205ZM250.922 200.392C250.922 201.8 252.042 202.92 253.45 202.92C254.858 202.92 255.978 201.8 255.978 200.392C255.978 199.016 254.858 197.896 253.45 197.896C252.042 197.896 250.922 199.016 250.922 200.392ZM267.792 200.424C269.168 200.424 270.672 200.872 272.144 201.512L273.168 197.64C271.664 197.128 269.744 196.68 267.92 196.68C263.984 196.68 261.264 199.08 261.264 202.76V205H258.64V208.68H261.296V221H265.456V208.68H272.56V205H265.296V202.952C265.296 201.224 266.256 200.424 267.792 200.424ZM273.453 208.68H276.493V214.888C276.493 218.92 278.637 221.544 282.605 221.544C284.301 221.544 286.573 220.808 287.917 220.104L286.989 216.488C285.965 217.128 284.557 217.64 283.309 217.64C281.645 217.64 280.717 216.456 280.717 214.728V208.68H287.373V205H280.717V200.2H277.197L276.621 205.128L273.453 205.32V208.68Z" fill="#FFFAED"></path> <path d="M44.194 300L40.54 287.4H41.872L44.986 298.29L48.262 287.4H49.738L53.014 298.29L56.128 287.4H57.46L53.806 300H52.294L49 289.056L45.706 300H44.194ZM63.1204 290.784C64.2124 290.784 65.0704 291.12 65.6944 291.792C66.3304 292.452 66.6484 293.346 66.6484 294.474V300H65.4604V294.474C65.4604 293.67 65.2444 293.046 64.8124 292.602C64.3924 292.158 63.7924 291.936 63.0124 291.936C62.1484 291.936 61.4464 292.212 60.9064 292.764C60.3664 293.304 60.0964 294.144 60.0964 295.284V300H58.9084V287.4H60.0964V292.404C60.7684 291.324 61.7764 290.784 63.1204 290.784ZM76.6855 291H77.8735V300H76.6855V298.236C75.8575 299.556 74.6455 300.216 73.0495 300.216C71.7655 300.216 70.6675 299.76 69.7555 298.848C68.8555 297.936 68.4055 296.82 68.4055 295.5C68.4055 294.18 68.8555 293.064 69.7555 292.152C70.6675 291.24 71.7655 290.784 73.0495 290.784C74.6455 290.784 75.8575 291.444 76.6855 292.764V291ZM70.6195 298.038C71.3035 298.722 72.1435 299.064 73.1395 299.064C74.1355 299.064 74.9755 298.722 75.6595 298.038C76.3435 297.342 76.6855 296.496 76.6855 295.5C76.6855 294.504 76.3435 293.664 75.6595 292.98C74.9755 292.284 74.1355 291.936 73.1395 291.936C72.1435 291.936 71.3035 292.284 70.6195 292.98C69.9355 293.664 69.5935 294.504 69.5935 295.5C69.5935 296.496 69.9355 297.342 70.6195 298.038ZM85.1589 292.152H82.5669V297.606C82.5669 298.098 82.6629 298.452 82.8549 298.668C83.0469 298.872 83.3349 298.98 83.7189 298.992C84.1029 298.992 84.5829 298.98 85.1589 298.956V300C83.8989 300.192 82.9509 300.102 82.3149 299.73C81.6909 299.358 81.3789 298.65 81.3789 297.606V292.152H79.4889V291H81.3789V288.84L82.5669 288.48V291H85.1589V292.152ZM102.475 291H103.699L100.927 300H99.6309L97.3089 292.746L94.9869 300H93.6909L90.9189 291H92.1429L94.3569 298.47L96.7149 291H97.9029L100.261 298.47L102.475 291ZM112.879 291H114.067V300H112.879V298.236C112.051 299.556 110.839 300.216 109.243 300.216C107.959 300.216 106.861 299.76 105.949 298.848C105.049 297.936 104.599 296.82 104.599 295.5C104.599 294.18 105.049 293.064 105.949 292.152C106.861 291.24 107.959 290.784 109.243 290.784C110.839 290.784 112.051 291.444 112.879 292.764V291ZM106.813 298.038C107.497 298.722 108.337 299.064 109.333 299.064C110.329 299.064 111.169 298.722 111.853 298.038C112.537 297.342 112.879 296.496 112.879 295.5C112.879 294.504 112.537 293.664 111.853 292.98C111.169 292.284 110.329 291.936 109.333 291.936C108.337 291.936 107.497 292.284 106.813 292.98C106.129 293.664 105.787 294.504 105.787 295.5C105.787 296.496 106.129 297.342 106.813 298.038ZM117.518 293.358C117.518 293.766 117.698 294.09 118.058 294.33C118.418 294.57 118.856 294.756 119.372 294.888C119.888 295.02 120.404 295.17 120.92 295.338C121.436 295.494 121.874 295.764 122.234 296.148C122.594 296.52 122.774 297.012 122.774 297.624C122.774 298.392 122.468 299.016 121.856 299.496C121.256 299.976 120.476 300.216 119.516 300.216C118.652 300.216 117.914 300.024 117.302 299.64C116.702 299.256 116.282 298.758 116.042 298.146L117.05 297.552C117.218 298.02 117.518 298.392 117.95 298.668C118.394 298.932 118.916 299.064 119.516 299.064C120.104 299.064 120.596 298.95 120.992 298.722C121.388 298.482 121.586 298.116 121.586 297.624C121.586 297.216 121.406 296.892 121.046 296.652C120.686 296.412 120.248 296.226 119.732 296.094C119.216 295.962 118.7 295.818 118.184 295.662C117.668 295.494 117.23 295.224 116.87 294.852C116.51 294.468 116.33 293.97 116.33 293.358C116.33 292.626 116.618 292.014 117.194 291.522C117.782 291.03 118.52 290.784 119.408 290.784C120.14 290.784 120.782 290.952 121.334 291.288C121.886 291.612 122.294 292.056 122.558 292.62L121.568 293.196C121.22 292.356 120.5 291.936 119.408 291.936C118.892 291.936 118.448 292.062 118.076 292.314C117.704 292.554 117.518 292.902 117.518 293.358ZM136.996 291H138.184V300H136.996V298.236C136.168 299.556 134.956 300.216 133.36 300.216C132.076 300.216 130.978 299.76 130.066 298.848C129.166 297.936 128.716 296.82 128.716 295.5C128.716 294.18 129.166 293.064 130.066 292.152C130.978 291.24 132.076 290.784 133.36 290.784C134.956 290.784 136.168 291.444 136.996 292.764V291ZM130.93 298.038C131.614 298.722 132.454 299.064 133.45 299.064C134.446 299.064 135.286 298.722 135.97 298.038C136.654 297.342 136.996 296.496 136.996 295.5C136.996 294.504 136.654 293.664 135.97 292.98C135.286 292.284 134.446 291.936 133.45 291.936C132.454 291.936 131.614 292.284 130.93 292.98C130.246 293.664 129.904 294.504 129.904 295.5C129.904 296.496 130.246 297.342 130.93 298.038ZM152.939 291H154.127V299.64C154.127 300.936 153.683 301.956 152.795 302.7C151.907 303.444 150.845 303.816 149.609 303.816C147.497 303.816 146.075 303.084 145.343 301.62L146.387 301.026C146.927 302.118 148.001 302.664 149.609 302.664C150.641 302.664 151.451 302.388 152.039 301.836C152.639 301.296 152.939 300.564 152.939 299.64V298.236C152.111 299.556 150.899 300.216 149.303 300.216C148.019 300.216 146.921 299.76 146.009 298.848C145.109 297.936 144.659 296.82 144.659 295.5C144.659 294.18 145.109 293.064 146.009 292.152C146.921 291.24 148.019 290.784 149.303 290.784C150.899 290.784 152.111 291.444 152.939 292.764V291ZM146.873 298.038C147.557 298.722 148.397 299.064 149.393 299.064C150.389 299.064 151.229 298.722 151.913 298.038C152.597 297.342 152.939 296.496 152.939 295.5C152.939 294.504 152.597 293.664 151.913 292.98C151.229 292.284 150.389 291.936 149.393 291.936C148.397 291.936 147.557 292.284 146.873 292.98C146.189 293.664 145.847 294.504 145.847 295.5C145.847 296.496 146.189 297.342 146.873 298.038ZM157.849 288.84C157.681 289.008 157.477 289.092 157.237 289.092C156.997 289.092 156.793 289.008 156.625 288.84C156.457 288.672 156.373 288.468 156.373 288.228C156.373 287.988 156.457 287.784 156.625 287.616C156.793 287.448 156.997 287.364 157.237 287.364C157.477 287.364 157.681 287.448 157.849 287.616C158.017 287.784 158.101 287.988 158.101 288.228C158.101 288.468 158.017 288.672 157.849 288.84ZM156.643 300V291H157.831V300H156.643ZM164.852 288.336C163.976 288.264 163.322 288.414 162.89 288.786C162.47 289.158 162.26 289.776 162.26 290.64V291H164.852V292.152H162.26V300H161.072V292.152H159.542V291H161.072V290.64C161.072 289.464 161.396 288.576 162.044 287.976C162.704 287.364 163.64 287.1 164.852 287.184V288.336ZM171.239 292.152H168.647V297.606C168.647 298.098 168.743 298.452 168.935 298.668C169.127 298.872 169.415 298.98 169.799 298.992C170.183 298.992 170.663 298.98 171.239 298.956V300C169.979 300.192 169.031 300.102 168.395 299.73C167.771 299.358 167.459 298.65 167.459 297.606V292.152H165.569V291H167.459V288.84L168.647 288.48V291H171.239V292.152ZM175.739 296.58C175.739 295.992 175.859 295.458 176.099 294.978C176.339 294.486 176.627 294.072 176.963 293.736C177.299 293.4 177.635 293.076 177.971 292.764C178.307 292.452 178.595 292.11 178.835 291.738C179.075 291.354 179.195 290.946 179.195 290.514C179.195 289.818 178.955 289.296 178.475 288.948C178.007 288.588 177.401 288.408 176.657 288.408C175.181 288.408 174.269 289.014 173.921 290.226L172.859 289.632C173.135 288.828 173.615 288.222 174.299 287.814C174.995 287.394 175.781 287.184 176.657 287.184C177.713 287.184 178.607 287.478 179.339 288.066C180.083 288.642 180.455 289.458 180.455 290.514C180.455 291.03 180.335 291.51 180.095 291.954C179.855 292.398 179.567 292.788 179.231 293.124C178.895 293.448 178.559 293.772 178.223 294.096C177.887 294.42 177.599 294.798 177.359 295.23C177.119 295.65 176.999 296.1 176.999 296.58H175.739ZM177.071 299.892C176.879 300.084 176.645 300.18 176.369 300.18C176.093 300.18 175.859 300.084 175.667 299.892C175.475 299.7 175.379 299.466 175.379 299.19C175.379 298.914 175.475 298.68 175.667 298.488C175.859 298.296 176.093 298.2 176.369 298.2C176.645 298.2 176.879 298.296 177.071 298.488C177.263 298.68 177.359 298.914 177.359 299.19C177.359 299.466 177.263 299.7 177.071 299.892Z" fill="#FFFAED"></path> <path d="M46.3 324.4C48.016 324.4 49.432 325.012 50.548 326.236C51.676 327.448 52.24 328.936 52.24 330.7C52.24 332.464 51.676 333.958 50.548 335.182C49.432 336.394 48.016 337 46.3 337H41.44V324.4H46.3ZM46.3 335.812C47.68 335.812 48.808 335.32 49.684 334.336C50.572 333.352 51.016 332.14 51.016 330.7C51.016 329.26 50.572 328.048 49.684 327.064C48.808 326.08 47.68 325.588 46.3 325.588H42.7V335.812H46.3ZM55.4211 325.84C55.2531 326.008 55.0491 326.092 54.8091 326.092C54.5691 326.092 54.3651 326.008 54.1971 325.84C54.0291 325.672 53.9451 325.468 53.9451 325.228C53.9451 324.988 54.0291 324.784 54.1971 324.616C54.3651 324.448 54.5691 324.364 54.8091 324.364C55.0491 324.364 55.2531 324.448 55.4211 324.616C55.5891 324.784 55.6731 324.988 55.6731 325.228C55.6731 325.468 55.5891 325.672 55.4211 325.84ZM54.2151 337V328H55.4031V337H54.2151ZM65.6641 324.4H66.8521V337H65.6641V335.236C64.8361 336.556 63.6241 337.216 62.0281 337.216C60.7441 337.216 59.6461 336.76 58.7341 335.848C57.8341 334.936 57.3841 333.82 57.3841 332.5C57.3841 331.18 57.8341 330.064 58.7341 329.152C59.6461 328.24 60.7441 327.784 62.0281 327.784C63.6241 327.784 64.8361 328.444 65.6641 329.764V324.4ZM59.5981 335.038C60.2821 335.722 61.1221 336.064 62.1181 336.064C63.1141 336.064 63.9541 335.722 64.6381 335.038C65.3221 334.342 65.6641 333.496 65.6641 332.5C65.6641 331.504 65.3221 330.664 64.6381 329.98C63.9541 329.284 63.1141 328.936 62.1181 328.936C61.1221 328.936 60.2821 329.284 59.5981 329.98C58.9141 330.664 58.5721 331.504 58.5721 332.5C58.5721 333.496 58.9141 334.342 59.5981 335.038ZM80.3474 328H81.6074L77.7554 337.828C77.4074 338.716 76.9094 339.412 76.2614 339.916C75.6254 340.432 74.9114 340.66 74.1194 340.6V339.484C75.1994 339.604 76.0214 338.98 76.5854 337.612L76.8194 337.054L72.7874 328H74.0474L77.4314 335.542L80.3474 328ZM90.2336 335.866C89.3216 336.766 88.2056 337.216 86.8856 337.216C85.5656 337.216 84.4436 336.766 83.5196 335.866C82.6076 334.954 82.1516 333.832 82.1516 332.5C82.1516 331.168 82.6076 330.052 83.5196 329.152C84.4436 328.24 85.5656 327.784 86.8856 327.784C88.2056 327.784 89.3216 328.24 90.2336 329.152C91.1576 330.052 91.6196 331.168 91.6196 332.5C91.6196 333.832 91.1576 334.954 90.2336 335.866ZM84.3656 335.038C85.0496 335.722 85.8896 336.064 86.8856 336.064C87.8816 336.064 88.7216 335.722 89.4056 335.038C90.0896 334.342 90.4316 333.496 90.4316 332.5C90.4316 331.504 90.0896 330.664 89.4056 329.98C88.7216 329.284 87.8816 328.936 86.8856 328.936C85.8896 328.936 85.0496 329.284 84.3656 329.98C83.6816 330.664 83.3396 331.504 83.3396 332.5C83.3396 333.496 83.6816 334.342 84.3656 335.038ZM99.9437 328H101.132V337H99.9437V335.596C99.2717 336.676 98.2637 337.216 96.9197 337.216C95.8277 337.216 94.9637 336.886 94.3277 336.226C93.7037 335.554 93.3917 334.654 93.3917 333.526V328H94.5797V333.526C94.5797 334.33 94.7897 334.954 95.2097 335.398C95.6417 335.842 96.2477 336.064 97.0277 336.064C97.8917 336.064 98.5937 335.794 99.1337 335.254C99.6737 334.702 99.9437 333.856 99.9437 332.716V328ZM109.081 330.358C109.081 330.766 109.261 331.09 109.621 331.33C109.981 331.57 110.419 331.756 110.935 331.888C111.451 332.02 111.967 332.17 112.483 332.338C112.999 332.494 113.437 332.764 113.797 333.148C114.157 333.52 114.337 334.012 114.337 334.624C114.337 335.392 114.031 336.016 113.419 336.496C112.819 336.976 112.039 337.216 111.079 337.216C110.215 337.216 109.477 337.024 108.865 336.64C108.265 336.256 107.845 335.758 107.605 335.146L108.613 334.552C108.781 335.02 109.081 335.392 109.513 335.668C109.957 335.932 110.479 336.064 111.079 336.064C111.667 336.064 112.159 335.95 112.555 335.722C112.951 335.482 113.149 335.116 113.149 334.624C113.149 334.216 112.969 333.892 112.609 333.652C112.249 333.412 111.811 333.226 111.295 333.094C110.779 332.962 110.263 332.818 109.747 332.662C109.231 332.494 108.793 332.224 108.433 331.852C108.073 331.468 107.893 330.97 107.893 330.358C107.893 329.626 108.181 329.014 108.757 328.522C109.345 328.03 110.083 327.784 110.971 327.784C111.703 327.784 112.345 327.952 112.897 328.288C113.449 328.612 113.857 329.056 114.121 329.62L113.131 330.196C112.783 329.356 112.063 328.936 110.971 328.936C110.455 328.936 110.011 329.062 109.639 329.314C109.267 329.554 109.081 329.902 109.081 330.358ZM120.443 327.784C121.535 327.784 122.393 328.12 123.017 328.792C123.653 329.452 123.971 330.346 123.971 331.474V337H122.783V331.474C122.783 330.67 122.567 330.046 122.135 329.602C121.715 329.158 121.115 328.936 120.335 328.936C119.471 328.936 118.769 329.212 118.229 329.764C117.689 330.304 117.419 331.144 117.419 332.284V337H116.231V324.4H117.419V329.404C118.091 328.324 119.099 327.784 120.443 327.784ZM133.81 335.866C132.898 336.766 131.782 337.216 130.462 337.216C129.142 337.216 128.02 336.766 127.096 335.866C126.184 334.954 125.728 333.832 125.728 332.5C125.728 331.168 126.184 330.052 127.096 329.152C128.02 328.24 129.142 327.784 130.462 327.784C131.782 327.784 132.898 328.24 133.81 329.152C134.734 330.052 135.196 331.168 135.196 332.5C135.196 333.832 134.734 334.954 133.81 335.866ZM127.942 335.038C128.626 335.722 129.466 336.064 130.462 336.064C131.458 336.064 132.298 335.722 132.982 335.038C133.666 334.342 134.008 333.496 134.008 332.5C134.008 331.504 133.666 330.664 132.982 329.98C132.298 329.284 131.458 328.936 130.462 328.936C129.466 328.936 128.626 329.284 127.942 329.98C127.258 330.664 126.916 331.504 126.916 332.5C126.916 333.496 127.258 334.342 127.942 335.038ZM147.668 328H148.892L146.12 337H144.824L142.502 329.746L140.18 337H138.884L136.112 328H137.336L139.55 335.47L141.908 328H143.096L145.454 335.47L147.668 328ZM161.664 328H162.924L159.072 337.828C158.724 338.716 158.226 339.412 157.578 339.916C156.942 340.432 156.228 340.66 155.436 340.6V339.484C156.516 339.604 157.338 338.98 157.902 337.612L158.136 337.054L154.104 328H155.364L158.748 335.542L161.664 328ZM171.55 335.866C170.638 336.766 169.522 337.216 168.202 337.216C166.882 337.216 165.76 336.766 164.836 335.866C163.924 334.954 163.468 333.832 163.468 332.5C163.468 331.168 163.924 330.052 164.836 329.152C165.76 328.24 166.882 327.784 168.202 327.784C169.522 327.784 170.638 328.24 171.55 329.152C172.474 330.052 172.936 331.168 172.936 332.5C172.936 333.832 172.474 334.954 171.55 335.866ZM165.682 335.038C166.366 335.722 167.206 336.064 168.202 336.064C169.198 336.064 170.038 335.722 170.722 335.038C171.406 334.342 171.748 333.496 171.748 332.5C171.748 331.504 171.406 330.664 170.722 329.98C170.038 329.284 169.198 328.936 168.202 328.936C167.206 328.936 166.366 329.284 165.682 329.98C164.998 330.664 164.656 331.504 164.656 332.5C164.656 333.496 164.998 334.342 165.682 335.038ZM181.26 328H182.448V337H181.26V335.596C180.588 336.676 179.58 337.216 178.236 337.216C177.144 337.216 176.28 336.886 175.644 336.226C175.02 335.554 174.708 334.654 174.708 333.526V328H175.896V333.526C175.896 334.33 176.106 334.954 176.526 335.398C176.958 335.842 177.564 336.064 178.344 336.064C179.208 336.064 179.91 335.794 180.45 335.254C180.99 334.702 181.26 333.856 181.26 332.716V328ZM186.149 329.494C186.701 328.402 187.649 327.856 188.993 327.856V329.008C188.177 329.008 187.499 329.248 186.959 329.728C186.419 330.208 186.149 330.964 186.149 331.996V337H184.961V328H186.149V329.494ZM202.861 324.4H204.049V337H202.861V335.236C202.033 336.556 200.821 337.216 199.225 337.216C197.941 337.216 196.843 336.76 195.931 335.848C195.031 334.936 194.581 333.82 194.581 332.5C194.581 331.18 195.031 330.064 195.931 329.152C196.843 328.24 197.941 327.784 199.225 327.784C200.821 327.784 202.033 328.444 202.861 329.764V324.4ZM196.795 335.038C197.479 335.722 198.319 336.064 199.315 336.064C200.311 336.064 201.151 335.722 201.835 335.038C202.519 334.342 202.861 333.496 202.861 332.5C202.861 331.504 202.519 330.664 201.835 329.98C201.151 329.284 200.311 328.936 199.315 328.936C198.319 328.936 197.479 329.284 196.795 329.98C196.111 330.664 195.769 331.504 195.769 332.5C195.769 333.496 196.111 334.342 196.795 335.038ZM207.771 325.84C207.603 326.008 207.399 326.092 207.159 326.092C206.919 326.092 206.715 326.008 206.547 325.84C206.379 325.672 206.295 325.468 206.295 325.228C206.295 324.988 206.379 324.784 206.547 324.616C206.715 324.448 206.919 324.364 207.159 324.364C207.399 324.364 207.603 324.448 207.771 324.616C207.939 324.784 208.023 324.988 208.023 325.228C208.023 325.468 207.939 325.672 207.771 325.84ZM206.565 337V328H207.753V337H206.565ZM211.21 330.358C211.21 330.766 211.39 331.09 211.75 331.33C212.11 331.57 212.548 331.756 213.064 331.888C213.58 332.02 214.096 332.17 214.612 332.338C215.128 332.494 215.566 332.764 215.926 333.148C216.286 333.52 216.466 334.012 216.466 334.624C216.466 335.392 216.16 336.016 215.548 336.496C214.948 336.976 214.168 337.216 213.208 337.216C212.344 337.216 211.606 337.024 210.994 336.64C210.394 336.256 209.974 335.758 209.734 335.146L210.742 334.552C210.91 335.02 211.21 335.392 211.642 335.668C212.086 335.932 212.608 336.064 213.208 336.064C213.796 336.064 214.288 335.95 214.684 335.722C215.08 335.482 215.278 335.116 215.278 334.624C215.278 334.216 215.098 333.892 214.738 333.652C214.378 333.412 213.94 333.226 213.424 333.094C212.908 332.962 212.392 332.818 211.876 332.662C211.36 332.494 210.922 332.224 210.562 331.852C210.202 331.468 210.022 330.97 210.022 330.358C210.022 329.626 210.31 329.014 210.886 328.522C211.474 328.03 212.212 327.784 213.1 327.784C213.832 327.784 214.474 327.952 215.026 328.288C215.578 328.612 215.986 329.056 216.25 329.62L215.26 330.196C214.912 329.356 214.192 328.936 213.1 328.936C212.584 328.936 212.14 329.062 211.768 329.314C211.396 329.554 211.21 329.902 211.21 330.358ZM225.924 328H227.112V337H225.924V335.236C225.096 336.556 223.884 337.216 222.288 337.216C221.004 337.216 219.906 336.76 218.994 335.848C218.094 334.936 217.644 333.82 217.644 332.5C217.644 331.18 218.094 330.064 218.994 329.152C219.906 328.24 221.004 327.784 222.288 327.784C223.884 327.784 225.096 328.444 225.924 329.764V328ZM219.858 335.038C220.542 335.722 221.382 336.064 222.378 336.064C223.374 336.064 224.214 335.722 224.898 335.038C225.582 334.342 225.924 333.496 225.924 332.5C225.924 331.504 225.582 330.664 224.898 329.98C224.214 329.284 223.374 328.936 222.378 328.936C221.382 328.936 220.542 329.284 219.858 329.98C219.174 330.664 218.832 331.504 218.832 332.5C218.832 333.496 219.174 334.342 219.858 335.038ZM234.451 327.784C235.735 327.784 236.827 328.24 237.727 329.152C238.639 330.064 239.095 331.18 239.095 332.5C239.095 333.82 238.639 334.936 237.727 335.848C236.827 336.76 235.735 337.216 234.451 337.216C232.855 337.216 231.643 336.556 230.815 335.236V340.6H229.627V328H230.815V329.764C231.643 328.444 232.855 327.784 234.451 327.784ZM231.841 335.038C232.525 335.722 233.365 336.064 234.361 336.064C235.357 336.064 236.197 335.722 236.881 335.038C237.565 334.342 237.907 333.496 237.907 332.5C237.907 331.504 237.565 330.664 236.881 329.98C236.197 329.284 235.357 328.936 234.361 328.936C233.365 328.936 232.525 329.284 231.841 329.98C231.157 330.664 230.815 331.504 230.815 332.5C230.815 333.496 231.157 334.342 231.841 335.038ZM245.895 327.784C247.179 327.784 248.271 328.24 249.171 329.152C250.083 330.064 250.539 331.18 250.539 332.5C250.539 333.82 250.083 334.936 249.171 335.848C248.271 336.76 247.179 337.216 245.895 337.216C244.299 337.216 243.087 336.556 242.259 335.236V340.6H241.071V328H242.259V329.764C243.087 328.444 244.299 327.784 245.895 327.784ZM243.285 335.038C243.969 335.722 244.809 336.064 245.805 336.064C246.801 336.064 247.641 335.722 248.325 335.038C249.009 334.342 249.351 333.496 249.351 332.5C249.351 331.504 249.009 330.664 248.325 329.98C247.641 329.284 246.801 328.936 245.805 328.936C244.809 328.936 243.969 329.284 243.285 329.98C242.601 330.664 242.259 331.504 242.259 332.5C242.259 333.496 242.601 334.342 243.285 335.038ZM260.056 335.866C259.144 336.766 258.028 337.216 256.708 337.216C255.388 337.216 254.266 336.766 253.342 335.866C252.43 334.954 251.974 333.832 251.974 332.5C251.974 331.168 252.43 330.052 253.342 329.152C254.266 328.24 255.388 327.784 256.708 327.784C258.028 327.784 259.144 328.24 260.056 329.152C260.98 330.052 261.442 331.168 261.442 332.5C261.442 333.832 260.98 334.954 260.056 335.866ZM254.188 335.038C254.872 335.722 255.712 336.064 256.708 336.064C257.704 336.064 258.544 335.722 259.228 335.038C259.912 334.342 260.254 333.496 260.254 332.5C260.254 331.504 259.912 330.664 259.228 329.98C258.544 329.284 257.704 328.936 256.708 328.936C255.712 328.936 254.872 329.284 254.188 329.98C253.504 330.664 253.162 331.504 253.162 332.5C253.162 333.496 253.504 334.342 254.188 335.038ZM264.636 325.84C264.468 326.008 264.264 326.092 264.024 326.092C263.784 326.092 263.58 326.008 263.412 325.84C263.244 325.672 263.16 325.468 263.16 325.228C263.16 324.988 263.244 324.784 263.412 324.616C263.58 324.448 263.784 324.364 264.024 324.364C264.264 324.364 264.468 324.448 264.636 324.616C264.804 324.784 264.888 324.988 264.888 325.228C264.888 325.468 264.804 325.672 264.636 325.84ZM263.43 337V328H264.618V337H263.43ZM271.351 327.784C272.443 327.784 273.301 328.12 273.925 328.792C274.561 329.452 274.879 330.346 274.879 331.474V337H273.691V331.474C273.691 330.67 273.475 330.046 273.043 329.602C272.623 329.158 272.023 328.936 271.243 328.936C270.379 328.936 269.677 329.212 269.137 329.764C268.597 330.304 268.327 331.144 268.327 332.284V337H267.139V328H268.327V329.404C268.999 328.324 270.007 327.784 271.351 327.784ZM281.946 329.152H279.354V334.606C279.354 335.098 279.45 335.452 279.642 335.668C279.834 335.872 280.122 335.98 280.506 335.992C280.89 335.992 281.37 335.98 281.946 335.956V337C280.686 337.192 279.738 337.102 279.102 336.73C278.478 336.358 278.166 335.65 278.166 334.606V329.152H276.276V328H278.166V325.84L279.354 325.48V328H281.946V329.152ZM293.52 327.784C294.528 327.784 295.338 328.108 295.95 328.756C296.574 329.404 296.886 330.28 296.886 331.384V337H295.698V331.384C295.698 330.604 295.494 330.004 295.086 329.584C294.69 329.152 294.162 328.936 293.502 328.936C292.758 328.936 292.152 329.188 291.684 329.692C291.228 330.184 291 330.958 291 332.014V337H289.812V331.384C289.812 330.592 289.62 329.986 289.236 329.566C288.864 329.146 288.354 328.936 287.706 328.936C286.986 328.936 286.374 329.188 285.87 329.692C285.366 330.196 285.114 330.97 285.114 332.014V337H283.926V328H285.114V329.314C285.762 328.294 286.68 327.784 287.868 327.784C289.164 327.784 290.076 328.33 290.604 329.422C291.252 328.33 292.224 327.784 293.52 327.784ZM303.342 327.784C304.674 327.784 305.748 328.258 306.564 329.206C307.392 330.142 307.806 331.252 307.806 332.536C307.806 332.668 307.794 332.854 307.77 333.094H299.868C299.988 334.006 300.372 334.732 301.02 335.272C301.68 335.8 302.49 336.064 303.45 336.064C304.134 336.064 304.722 335.926 305.214 335.65C305.718 335.362 306.096 334.99 306.348 334.534L307.392 335.146C306.996 335.782 306.456 336.286 305.772 336.658C305.088 337.03 304.308 337.216 303.432 337.216C302.016 337.216 300.864 336.772 299.976 335.884C299.088 334.996 298.644 333.868 298.644 332.5C298.644 331.156 299.082 330.034 299.958 329.134C300.834 328.234 301.962 327.784 303.342 327.784ZM303.342 328.936C302.406 328.936 301.62 329.218 300.984 329.782C300.36 330.334 299.988 331.054 299.868 331.942H306.582C306.462 330.994 306.096 330.256 305.484 329.728C304.872 329.2 304.158 328.936 303.342 328.936ZM313.908 327.784C315 327.784 315.858 328.12 316.482 328.792C317.118 329.452 317.436 330.346 317.436 331.474V337H316.248V331.474C316.248 330.67 316.032 330.046 315.6 329.602C315.18 329.158 314.58 328.936 313.8 328.936C312.936 328.936 312.234 329.212 311.694 329.764C311.154 330.304 310.884 331.144 310.884 332.284V337H309.696V328H310.884V329.404C311.556 328.324 312.564 327.784 313.908 327.784ZM324.503 329.152H321.911V334.606C321.911 335.098 322.007 335.452 322.199 335.668C322.391 335.872 322.679 335.98 323.063 335.992C323.447 335.992 323.927 335.98 324.503 335.956V337C323.243 337.192 322.295 337.102 321.659 336.73C321.035 336.358 320.723 335.65 320.723 334.606V329.152H318.833V328H320.723V325.84L321.911 325.48V328H324.503V329.152ZM329.003 333.58C329.003 332.992 329.123 332.458 329.363 331.978C329.603 331.486 329.891 331.072 330.227 330.736C330.563 330.4 330.899 330.076 331.235 329.764C331.571 329.452 331.859 329.11 332.099 328.738C332.339 328.354 332.459 327.946 332.459 327.514C332.459 326.818 332.219 326.296 331.739 325.948C331.271 325.588 330.665 325.408 329.921 325.408C328.445 325.408 327.533 326.014 327.185 327.226L326.123 326.632C326.399 325.828 326.879 325.222 327.563 324.814C328.259 324.394 329.045 324.184 329.921 324.184C330.977 324.184 331.871 324.478 332.603 325.066C333.347 325.642 333.719 326.458 333.719 327.514C333.719 328.03 333.599 328.51 333.359 328.954C333.119 329.398 332.831 329.788 332.495 330.124C332.159 330.448 331.823 330.772 331.487 331.096C331.151 331.42 330.863 331.798 330.623 332.23C330.383 332.65 330.263 333.1 330.263 333.58H329.003ZM330.335 336.892C330.143 337.084 329.909 337.18 329.633 337.18C329.357 337.18 329.123 337.084 328.931 336.892C328.739 336.7 328.643 336.466 328.643 336.19C328.643 335.914 328.739 335.68 328.931 335.488C329.123 335.296 329.357 335.2 329.633 335.2C329.909 335.2 330.143 335.296 330.335 335.488C330.527 335.68 330.623 335.914 330.623 336.19C330.623 336.466 330.527 336.7 330.335 336.892Z" fill="#FFFAED"></path> </svg> 