<?xml version="1.0" encoding="UTF-8"?> <svg xmlns="http://www.w3.org/2000/svg" width="400" height="600" viewBox="0 0 400 600" fill="none"><rect width="400" height="600" rx="20" fill="#7F3CC9"></rect><path d="M49.504 488.4V490.776H46.102V501H43.618V490.776H40.234V488.4H49.504ZM56.8159 499.884C55.8919 500.796 54.7639 501.252 53.4319 501.252C52.0999 501.252 50.9719 500.796 50.0479 499.884C49.1359 498.96 48.6799 497.832 48.6799 496.5C48.6799 495.168 49.1359 494.046 50.0479 493.134C50.9719 492.21 52.0999 491.748 53.4319 491.748C54.7639 491.748 55.8919 492.21 56.8159 493.134C57.7399 494.046 58.2019 495.168 58.2019 496.5C58.2019 497.832 57.7399 498.96 56.8159 499.884ZM51.6859 498.282C52.1539 498.75 52.7359 498.984 53.4319 498.984C54.1279 498.984 54.7099 498.75 55.1779 498.282C55.6459 497.814 55.8799 497.22 55.8799 496.5C55.8799 495.78 55.6459 495.186 55.1779 494.718C54.7099 494.25 54.1279 494.016 53.4319 494.016C52.7359 494.016 52.1539 494.25 51.6859 494.718C51.2299 495.186 51.0019 495.78 51.0019 496.5C51.0019 497.22 51.2299 497.814 51.6859 498.282ZM69.5734 491.748C70.7854 491.748 71.8174 492.21 72.6694 493.134C73.5334 494.046 73.9654 495.168 73.9654 496.5C73.9654 497.832 73.5334 498.96 72.6694 499.884C71.8174 500.796 70.7854 501.252 69.5734 501.252C68.3134 501.252 67.3414 500.814 66.6574 499.938V501H64.3354V488.4H66.6574V493.062C67.3414 492.186 68.3134 491.748 69.5734 491.748ZM67.3594 498.336C67.8274 498.804 68.4214 499.038 69.1414 499.038C69.8614 499.038 70.4554 498.804 70.9234 498.336C71.4034 497.856 71.6434 497.244 71.6434 496.5C71.6434 495.756 71.4034 495.15 70.9234 494.682C70.4554 494.202 69.8614 493.962 69.1414 493.962C68.4214 493.962 67.8274 494.202 67.3594 494.682C66.8914 495.15 66.6574 495.756 66.6574 496.5C66.6574 497.244 66.8914 497.856 67.3594 498.336ZM75.603 501V487.86H77.925V501H75.603ZM86.8903 492H89.2123V501H86.8903V499.938C86.1943 500.814 85.2163 501.252 83.9563 501.252C82.7563 501.252 81.7243 500.796 80.8603 499.884C80.0083 498.96 79.5823 497.832 79.5823 496.5C79.5823 495.168 80.0083 494.046 80.8603 493.134C81.7243 492.21 82.7563 491.748 83.9563 491.748C85.2163 491.748 86.1943 492.186 86.8903 493.062V492ZM82.6063 498.336C83.0743 498.804 83.6683 499.038 84.3883 499.038C85.1083 499.038 85.7023 498.804 86.1703 498.336C86.6503 497.856 86.8903 497.244 86.8903 496.5C86.8903 495.756 86.6503 495.15 86.1703 494.682C85.7023 494.202 85.1083 493.962 84.3883 493.962C83.6683 493.962 83.0743 494.202 82.6063 494.682C82.1383 495.15 81.9043 495.756 81.9043 496.5C81.9043 497.244 82.1383 497.856 82.6063 498.336ZM95.6019 501.252C94.2459 501.252 93.1119 500.796 92.1999 499.884C91.2999 498.972 90.8499 497.844 90.8499 496.5C90.8499 495.156 91.2999 494.028 92.1999 493.116C93.1119 492.204 94.2459 491.748 95.6019 491.748C96.4779 491.748 97.2759 491.958 97.9959 492.378C98.7159 492.798 99.2619 493.362 99.6339 494.07L97.6359 495.24C97.4559 494.868 97.1799 494.574 96.8079 494.358C96.4479 494.142 96.0399 494.034 95.5839 494.034C94.8879 494.034 94.3119 494.268 93.8559 494.736C93.3999 495.192 93.1719 495.78 93.1719 496.5C93.1719 497.208 93.3999 497.796 93.8559 498.264C94.3119 498.72 94.8879 498.948 95.5839 498.948C96.0519 498.948 96.4659 498.846 96.8259 498.642C97.1979 498.426 97.4739 498.132 97.6539 497.76L99.6699 498.912C99.2739 499.62 98.7159 500.19 97.9959 500.622C97.2759 501.042 96.4779 501.252 95.6019 501.252ZM109.196 501H106.496L103.22 496.914V501H100.898V488.4H103.22V495.96L106.316 492H109.088L105.47 496.446L109.196 501ZM120.309 491.748C121.341 491.748 122.163 492.084 122.775 492.756C123.399 493.428 123.711 494.328 123.711 495.456V501H121.389V495.618C121.389 495.078 121.257 494.658 120.993 494.358C120.729 494.058 120.357 493.908 119.877 493.908C119.349 493.908 118.935 494.082 118.635 494.43C118.347 494.778 118.203 495.282 118.203 495.942V501H115.881V495.618C115.881 495.078 115.749 494.658 115.485 494.358C115.221 494.058 114.849 493.908 114.369 493.908C113.853 493.908 113.439 494.082 113.127 494.43C112.827 494.778 112.677 495.282 112.677 495.942V501H110.355V492H112.677V492.954C113.217 492.15 114.051 491.748 115.179 491.748C116.283 491.748 117.099 492.18 117.627 493.044C118.227 492.18 119.121 491.748 120.309 491.748ZM132.523 492H134.845V501H132.523V499.938C131.827 500.814 130.849 501.252 129.589 501.252C128.389 501.252 127.357 500.796 126.493 499.884C125.641 498.96 125.215 497.832 125.215 496.5C125.215 495.168 125.641 494.046 126.493 493.134C127.357 492.21 128.389 491.748 129.589 491.748C130.849 491.748 131.827 492.186 132.523 493.062V492ZM128.239 498.336C128.707 498.804 129.301 499.038 130.021 499.038C130.741 499.038 131.335 498.804 131.803 498.336C132.283 497.856 132.523 497.244 132.523 496.5C132.523 495.756 132.283 495.15 131.803 494.682C131.335 494.202 130.741 493.962 130.021 493.962C129.301 493.962 128.707 494.202 128.239 494.682C127.771 495.15 127.537 495.756 127.537 496.5C127.537 497.244 127.771 497.856 128.239 498.336ZM138.103 490.92C137.719 490.92 137.383 490.782 137.095 490.506C136.819 490.218 136.681 489.882 136.681 489.498C136.681 489.114 136.819 488.778 137.095 488.49C137.383 488.202 137.719 488.058 138.103 488.058C138.499 488.058 138.835 488.202 139.111 488.49C139.399 488.778 139.543 489.114 139.543 489.498C139.543 489.882 139.399 490.218 139.111 490.506C138.835 490.782 138.499 490.92 138.103 490.92ZM136.951 501V492H139.273V501H136.951ZM141.398 501V487.86H143.72V501H141.398ZM150.723 496.014V494.862H159.723V496.014H150.723ZM177.798 492H178.986V501H166.926V492H168.114V499.848H172.362V492H173.55V499.848H177.798V492ZM189.238 492H190.426V501H189.238V499.236C188.41 500.556 187.198 501.216 185.602 501.216C184.318 501.216 183.22 500.76 182.308 499.848C181.408 498.936 180.958 497.82 180.958 496.5C180.958 495.18 181.408 494.064 182.308 493.152C183.22 492.24 184.318 491.784 185.602 491.784C187.198 491.784 188.41 492.444 189.238 493.764V492ZM183.172 499.038C183.856 499.722 184.696 500.064 185.692 500.064C186.688 500.064 187.528 499.722 188.212 499.038C188.896 498.342 189.238 497.496 189.238 496.5C189.238 495.504 188.896 494.664 188.212 493.98C187.528 493.284 186.688 492.936 185.692 492.936C184.696 492.936 183.856 493.284 183.172 493.98C182.488 494.664 182.146 495.504 182.146 496.5C182.146 497.496 182.488 498.342 183.172 499.038ZM199.314 492H200.502V501H199.314V497.076H194.13V501H192.942V492H194.13V495.924H199.314V492ZM209.494 492V493.152H206.308V501H205.12V493.152H201.934V492H209.494ZM218.33 492H219.518V501H218.33V499.236C217.502 500.556 216.29 501.216 214.694 501.216C213.41 501.216 212.312 500.76 211.4 499.848C210.5 498.936 210.05 497.82 210.05 496.5C210.05 495.18 210.5 494.064 211.4 493.152C212.312 492.24 213.41 491.784 214.694 491.784C216.29 491.784 217.502 492.444 218.33 493.764V492ZM212.264 499.038C212.948 499.722 213.788 500.064 214.784 500.064C215.78 500.064 216.62 499.722 217.304 499.038C217.988 498.342 218.33 497.496 218.33 496.5C218.33 495.504 217.988 494.664 217.304 493.98C216.62 493.284 215.78 492.936 214.784 492.936C213.788 492.936 212.948 493.284 212.264 493.98C211.58 494.664 211.238 495.504 211.238 496.5C211.238 497.496 211.58 498.342 212.264 499.038ZM232.545 501H231.105L227.433 496.662V501H226.245V496.662L222.573 501H221.133L225.165 496.32L221.313 492H222.753L226.245 495.996V492H227.433V495.996L230.925 492H232.365L228.513 496.32L232.545 501ZM240.714 492H241.722V501H240.534V494.07L235.17 501H234.162V492H235.35V498.93L240.714 492ZM249.059 491.784C250.343 491.784 251.435 492.24 252.335 493.152C253.247 494.064 253.703 495.18 253.703 496.5C253.703 497.82 253.247 498.936 252.335 499.848C251.435 500.76 250.343 501.216 249.059 501.216C247.463 501.216 246.251 500.556 245.423 499.236V504.6H244.235V492H245.423V493.764C246.251 492.444 247.463 491.784 249.059 491.784ZM246.449 499.038C247.133 499.722 247.973 500.064 248.969 500.064C249.965 500.064 250.805 499.722 251.489 499.038C252.173 498.342 252.515 497.496 252.515 496.5C252.515 495.504 252.173 494.664 251.489 493.98C250.805 493.284 249.965 492.936 248.969 492.936C247.973 492.936 247.133 493.284 246.449 493.98C245.765 494.664 245.423 495.504 245.423 496.5C245.423 497.496 245.765 498.342 246.449 499.038ZM263.22 499.866C262.308 500.766 261.192 501.216 259.872 501.216C258.552 501.216 257.43 500.766 256.506 499.866C255.594 498.954 255.138 497.832 255.138 496.5C255.138 495.168 255.594 494.052 256.506 493.152C257.43 492.24 258.552 491.784 259.872 491.784C261.192 491.784 262.308 492.24 263.22 493.152C264.144 494.052 264.606 495.168 264.606 496.5C264.606 497.832 264.144 498.954 263.22 499.866ZM257.352 499.038C258.036 499.722 258.876 500.064 259.872 500.064C260.868 500.064 261.708 499.722 262.392 499.038C263.076 498.342 263.418 497.496 263.418 496.5C263.418 495.504 263.076 494.664 262.392 493.98C261.708 493.284 260.868 492.936 259.872 492.936C258.876 492.936 258.036 493.284 257.352 493.98C256.668 494.664 256.326 495.504 256.326 496.5C256.326 497.496 256.668 498.342 257.352 499.038ZM272.318 496.374C273.302 496.734 273.794 497.436 273.794 498.48C273.794 499.212 273.548 499.818 273.056 500.298C272.576 500.766 271.88 501 270.968 501H266.594V492H270.608C271.484 492 272.162 492.228 272.642 492.684C273.122 493.128 273.362 493.704 273.362 494.412C273.362 495.312 273.014 495.966 272.318 496.374ZM270.608 493.152H267.782V495.888H270.608C271.652 495.888 272.174 495.42 272.174 494.484C272.174 494.064 272.036 493.74 271.76 493.512C271.496 493.272 271.112 493.152 270.608 493.152ZM270.968 499.848C271.496 499.848 271.898 499.722 272.174 499.47C272.462 499.218 272.606 498.864 272.606 498.408C272.606 497.988 272.462 497.658 272.174 497.418C271.898 497.166 271.496 497.04 270.968 497.04H267.782V499.848H270.968ZM283.334 492H284.522V501H283.334V499.236C282.506 500.556 281.294 501.216 279.698 501.216C278.414 501.216 277.316 500.76 276.404 499.848C275.504 498.936 275.054 497.82 275.054 496.5C275.054 495.18 275.504 494.064 276.404 493.152C277.316 492.24 278.414 491.784 279.698 491.784C281.294 491.784 282.506 492.444 283.334 493.764V492ZM277.268 499.038C277.952 499.722 278.792 500.064 279.788 500.064C280.784 500.064 281.624 499.722 282.308 499.038C282.992 498.342 283.334 497.496 283.334 496.5C283.334 495.504 282.992 494.664 282.308 493.98C281.624 493.284 280.784 492.936 279.788 492.936C278.792 492.936 277.952 493.284 277.268 493.98C276.584 494.664 276.242 495.504 276.242 496.5C276.242 497.496 276.584 498.342 277.268 499.038ZM293.517 492V493.152H290.331V501H289.143V493.152H285.957V492H293.517ZM298.619 495.42C299.459 495.42 300.167 495.684 300.743 496.212C301.331 496.728 301.625 497.394 301.625 498.21C301.625 499.026 301.331 499.698 300.743 500.226C300.167 500.742 299.459 501 298.619 501H294.965V492H296.153V495.42H298.619ZM298.619 499.848C299.123 499.848 299.549 499.698 299.897 499.398C300.257 499.098 300.437 498.702 300.437 498.21C300.437 497.718 300.257 497.322 299.897 497.022C299.549 496.722 299.123 496.572 298.619 496.572H296.153V499.848H298.619Z" fill="#E6D0FE" fill-opacity="0.6"></path><path d="M47.296 84.136L60.8 101H65.952V78.6H61.536V95.464L48.032 78.6H42.88V101H47.296V84.136ZM80.4918 97.768C77.4838 97.768 75.1478 96.456 74.5398 94.12H88.2998C88.4918 93.384 88.5878 92.648 88.5878 91.944C88.5878 87.624 84.9398 84.456 80.0758 84.456C74.7318 84.456 70.1878 87.656 70.1878 93C70.1878 97.8 74.1238 101.576 80.0758 101.576C83.0198 101.576 86.0278 100.584 88.1718 99.496L86.9237 96.168C84.6518 97.352 82.6678 97.768 80.4918 97.768ZM79.8198 88.008C82.3158 88.008 83.9158 89.128 84.3318 91.016H74.6358C75.2758 89.064 77.0677 88.008 79.8198 88.008ZM94.39 85H89.75L97.302 101H101.942L109.526 85H104.822L99.638 96.232L94.39 85ZM121.179 97.768C118.171 97.768 115.835 96.456 115.227 94.12H128.987C129.179 93.384 129.275 92.648 129.275 91.944C129.275 87.624 125.627 84.456 120.763 84.456C115.419 84.456 110.875 87.656 110.875 93C110.875 97.8 114.811 101.576 120.763 101.576C123.707 101.576 126.715 100.584 128.859 99.496L127.611 96.168C125.339 97.352 123.355 97.768 121.179 97.768ZM120.507 88.008C123.003 88.008 124.603 89.128 125.019 91.016H115.323C115.963 89.064 117.755 88.008 120.507 88.008ZM142.982 84.456C140.198 84.456 137.99 86.824 137.062 88.552V85H132.838V101H137.062V93.064C137.062 90.12 139.91 88.392 142.566 88.392C143.174 88.392 144.006 88.584 144.774 88.936L145.67 85.096C144.87 84.712 143.878 84.456 142.982 84.456ZM166.436 88.424C168.964 88.424 170.276 89.992 170.276 92.264V101H174.5V91.752C174.5 87.4 172.004 84.52 167.652 84.52C164.612 84.52 162.244 86.472 161.124 88.552V77.288H156.9V101H161.124V93.064C161.124 89.896 163.78 88.424 166.436 88.424ZM184.75 91.88C181.454 91.88 178.19 93.352 178.19 96.776C178.19 99.656 180.43 101.64 183.438 101.64C186.158 101.64 188.59 100.168 190.126 98.344C190.19 100.136 191.086 101.64 193.23 101.64C194.542 101.64 196.462 101 198.222 100.04L197.358 96.776C196.43 97.256 195.598 97.608 195.118 97.608C194.67 97.608 194.35 97.32 194.35 96.84V91.08C194.35 86.696 191.79 84.36 187.406 84.36C184.878 84.36 181.518 85.352 179.534 85.992L180.59 89.832C182.926 88.968 185.358 88.232 187.022 88.232C189.038 88.232 190.126 89.352 190.126 91.016V92.872C188.75 92.392 186.478 91.88 184.75 91.88ZM184.814 98.024C183.47 98.024 182.51 97.48 182.51 96.424C182.51 95.272 183.566 94.6 184.974 94.6C186.51 94.6 188.366 94.76 190.126 95.08V95.688C188.622 97.16 186.414 98.024 184.814 98.024ZM202.859 85H198.219L205.771 101H210.411L217.995 85H213.291L208.107 96.232L202.859 85ZM229.648 97.768C226.64 97.768 224.304 96.456 223.696 94.12H237.456C237.648 93.384 237.744 92.648 237.744 91.944C237.744 87.624 234.096 84.456 229.232 84.456C223.888 84.456 219.344 87.656 219.344 93C219.344 97.8 223.28 101.576 229.232 101.576C232.176 101.576 235.184 100.584 237.328 99.496L236.08 96.168C233.808 97.352 231.824 97.768 229.648 97.768ZM228.976 88.008C231.472 88.008 233.072 89.128 233.488 91.016H223.792C224.432 89.064 226.224 88.008 228.976 88.008ZM255.265 78.6H250.849V101H255.265V78.6ZM278.867 97.768C275.859 97.768 273.523 96.456 272.915 94.12H286.675C286.867 93.384 286.963 92.648 286.963 91.944C286.963 87.624 283.315 84.456 278.451 84.456C273.107 84.456 268.563 87.656 268.563 93C268.563 97.8 272.499 101.576 278.451 101.576C281.395 101.576 284.403 100.584 286.547 99.496L285.299 96.168C283.027 97.352 281.043 97.768 278.867 97.768ZM278.195 88.008C280.691 88.008 282.291 89.128 282.707 91.016H273.011C273.651 89.064 275.443 88.008 278.195 88.008ZM292.765 85H288.125L295.677 101H300.317L307.901 85H303.197L298.013 96.232L292.765 85ZM319.554 97.768C316.546 97.768 314.21 96.456 313.602 94.12H327.362C327.554 93.384 327.65 92.648 327.65 91.944C327.65 87.624 324.002 84.456 319.138 84.456C313.794 84.456 309.25 87.656 309.25 93C309.25 97.8 313.186 101.576 319.138 101.576C322.082 101.576 325.09 100.584 327.234 99.496L325.986 96.168C323.714 97.352 321.73 97.768 319.554 97.768ZM318.882 88.008C321.378 88.008 322.978 89.128 323.394 91.016H313.698C314.338 89.064 316.13 88.008 318.882 88.008ZM341.357 84.456C338.573 84.456 336.365 86.824 335.437 88.552V85H331.213V101H335.437V93.064C335.437 90.12 338.285 88.392 340.941 88.392C341.549 88.392 342.381 88.584 343.149 88.936L344.045 85.096C343.245 84.712 342.253 84.456 341.357 84.456ZM53.376 124.456C50.208 124.456 47.68 126.344 46.624 128.552V117H42.4V139.4C44.48 140.328 48.832 141.576 52.032 141.576C57.28 141.576 61.312 137.64 61.312 132.84C61.312 127.656 57.632 124.456 53.376 124.456ZM52.128 128.392C54.912 128.392 57.056 129.96 57.056 132.84C57.056 135.528 54.72 137.864 52.096 137.864C50.144 137.864 48.48 137.544 46.624 136.936V133.064C46.624 130.12 49.44 128.392 52.128 128.392ZM69.2483 141V117H65.0563V141H69.2483ZM79.6562 131.88C76.3602 131.88 73.0963 133.352 73.0963 136.776C73.0963 139.656 75.3363 141.64 78.3443 141.64C81.0642 141.64 83.4963 140.168 85.0323 138.344C85.0963 140.136 85.9923 141.64 88.1363 141.64C89.4483 141.64 91.3683 141 93.1283 140.04L92.2643 136.776C91.3363 137.256 90.5043 137.608 90.0243 137.608C89.5763 137.608 89.2563 137.32 89.2563 136.84V131.08C89.2563 126.696 86.6963 124.36 82.3123 124.36C79.7843 124.36 76.4243 125.352 74.4403 125.992L75.4963 129.832C77.8323 128.968 80.2643 128.232 81.9283 128.232C83.9443 128.232 85.0323 129.352 85.0323 131.016V132.872C83.6563 132.392 81.3843 131.88 79.6562 131.88ZM79.7203 138.024C78.3763 138.024 77.4163 137.48 77.4163 136.424C77.4163 135.272 78.4723 134.6 79.8802 134.6C81.4163 134.6 83.2723 134.76 85.0323 135.08V135.688C83.5283 137.16 81.3203 138.024 79.7203 138.024ZM104.357 124.456C99.013 124.456 94.469 127.656 94.469 133C94.469 137.8 98.117 141.576 104.069 141.576C107.077 141.576 109.829 140.648 112.005 139.496L110.757 136.168C108.645 137.096 106.949 137.768 104.613 137.768C101.285 137.768 98.725 135.912 98.725 132.84C98.725 129.928 101.029 128.168 104.101 128.168C106.277 128.168 108.133 128.616 110.341 129.512L111.365 125.736C109.445 125.064 107.013 124.456 104.357 124.456ZM119.373 117H115.213V141H119.373V117ZM125.229 139.848C126.093 140.872 127.117 141.416 128.205 141.416C129.485 141.416 130.861 140.808 132.333 140.168L131.341 136.744C130.573 137.064 129.869 137.416 129.229 137.416C128.877 137.416 128.557 137.32 128.269 137.032L124.525 133.16L132.237 125H126.829L119.597 133.288L125.229 139.848ZM145.765 124.52C142.981 124.52 140.805 126.504 139.749 128.392V125H135.525V141H139.749V133.032C139.749 129.96 142.117 128.424 144.325 128.424C146.661 128.424 147.909 129.992 147.909 132.104V141H152.133V133.032C152.133 129.992 154.501 128.424 156.709 128.424C159.045 128.424 160.293 129.992 160.293 132.104V141H164.517V131.592C164.517 127.368 162.309 124.52 158.149 124.52C155.461 124.52 152.901 126.504 151.621 128.424C150.725 126.024 148.773 124.52 145.765 124.52ZM174.75 131.88C171.454 131.88 168.19 133.352 168.19 136.776C168.19 139.656 170.43 141.64 173.438 141.64C176.158 141.64 178.59 140.168 180.126 138.344C180.19 140.136 181.086 141.64 183.23 141.64C184.542 141.64 186.462 141 188.222 140.04L187.358 136.776C186.43 137.256 185.598 137.608 185.118 137.608C184.67 137.608 184.35 137.32 184.35 136.84V131.08C184.35 126.696 181.79 124.36 177.406 124.36C174.878 124.36 171.518 125.352 169.534 125.992L170.59 129.832C172.926 128.968 175.358 128.232 177.022 128.232C179.038 128.232 180.126 129.352 180.126 131.016V132.872C178.75 132.392 176.478 131.88 174.75 131.88ZM174.814 138.024C173.47 138.024 172.51 137.48 172.51 136.424C172.51 135.272 173.566 134.6 174.974 134.6C176.51 134.6 178.366 134.76 180.126 135.08V135.688C178.622 137.16 176.414 138.024 174.814 138.024ZM194.843 125H190.683V141H194.843V125ZM190.235 120.392C190.235 121.8 191.355 122.92 192.763 122.92C194.171 122.92 195.291 121.8 195.291 120.392C195.291 119.016 194.171 117.896 192.763 117.896C191.355 117.896 190.235 119.016 190.235 120.392ZM203.905 141V117H199.713V141H203.905ZM217.961 137.768C214.953 137.768 212.617 136.456 212.009 134.12H225.769C225.961 133.384 226.057 132.648 226.057 131.944C226.057 127.624 222.409 124.456 217.545 124.456C212.201 124.456 207.657 127.656 207.657 133C207.657 137.8 211.593 141.576 217.545 141.576C220.489 141.576 223.497 140.584 225.641 139.496L224.392 136.168C222.121 137.352 220.137 137.768 217.961 137.768ZM217.289 128.008C219.785 128.008 221.385 129.128 221.801 131.016H212.105C212.745 129.064 214.536 128.008 217.289 128.008ZM236.627 141.544C239.891 141.544 242.451 139.656 243.507 137.448V141H247.731V117H243.507V125.576C241.907 125.064 239.699 124.424 237.971 124.424C232.595 124.424 228.563 128.36 228.563 133.16C228.563 138.344 232.243 141.544 236.627 141.544ZM237.875 137.608C235.027 137.608 232.819 136.008 232.819 133.128C232.819 130.312 235.027 128.136 237.907 128.136C239.859 128.136 241.651 128.552 243.507 129.096V132.552C243.507 135.624 240.691 137.608 237.875 137.608ZM56.544 165.576C54.656 164.936 51.68 164.392 49.152 164.392C44.608 164.392 41.376 166.376 41.376 169.512C41.376 175.752 53.28 173.64 53.28 176.168C53.28 177.288 51.68 177.928 49.376 177.928C46.912 177.928 44.416 177.16 42.304 176.232L41.056 179.56C43.232 180.712 46.208 181.64 49.216 181.64C53.12 181.64 57.44 179.624 57.44 176.04C57.44 169.8 45.536 172.008 45.536 169.352C45.536 168.392 47.2 168.072 49.312 168.072C51.36 168.072 53.344 168.488 55.424 169.288L56.544 165.576ZM70.0148 164.456C64.6708 164.456 60.0628 167.496 60.0628 172.84C60.0628 177.64 64.2228 181.576 70.0148 181.576C75.8068 181.576 79.9668 177.64 79.9668 172.84C79.9668 167.496 75.3588 164.456 70.0148 164.456ZM70.0148 168.136C73.3428 168.136 75.7108 169.864 75.7108 172.84C75.7108 175.528 73.1828 177.928 70.0148 177.928C66.8468 177.928 64.3188 175.528 64.3188 172.84C64.3188 169.864 66.6868 168.136 70.0148 168.136ZM93.9525 164.52C91.1685 164.52 88.9925 166.504 87.9365 168.392V165H83.7125V181H87.9365V173.032C87.9365 169.96 90.3045 168.424 92.5125 168.424C94.8485 168.424 96.0965 169.992 96.0965 172.104V181H100.321V173.032C100.321 169.992 102.689 168.424 104.897 168.424C107.233 168.424 108.481 169.992 108.481 172.104V181H112.705V171.592C112.705 167.368 110.497 164.52 106.337 164.52C103.649 164.52 101.089 166.504 99.8085 168.424C98.9125 166.024 96.9605 164.52 93.9525 164.52ZM126.586 177.768C123.578 177.768 121.242 176.456 120.634 174.12H134.394C134.586 173.384 134.682 172.648 134.682 171.944C134.682 167.624 131.034 164.456 126.17 164.456C120.826 164.456 116.282 167.656 116.282 173C116.282 177.8 120.218 181.576 126.17 181.576C129.114 181.576 132.122 180.584 134.266 179.496L133.017 176.168C130.746 177.352 128.762 177.768 126.586 177.768ZM125.914 168.008C128.41 168.008 130.01 169.128 130.426 171.016H120.73C121.37 169.064 123.161 168.008 125.914 168.008ZM149.22 164.456C146.052 164.456 143.524 166.344 142.468 168.552V157H138.244V179.4C140.324 180.328 144.676 181.576 147.876 181.576C153.124 181.576 157.156 177.64 157.156 172.84C157.156 167.656 153.476 164.456 149.22 164.456ZM147.972 168.392C150.756 168.392 152.9 169.96 152.9 172.84C152.9 175.528 150.564 177.864 147.94 177.864C145.988 177.864 144.324 177.544 142.468 176.936V173.064C142.468 170.12 145.284 168.392 147.972 168.392ZM169.796 164.456C164.452 164.456 159.844 167.496 159.844 172.84C159.844 177.64 164.004 181.576 169.796 181.576C175.588 181.576 179.748 177.64 179.748 172.84C179.748 167.496 175.14 164.456 169.796 164.456ZM169.796 168.136C173.124 168.136 175.492 169.864 175.492 172.84C175.492 175.528 172.964 177.928 169.796 177.928C166.628 177.928 164.1 175.528 164.1 172.84C164.1 169.864 166.468 168.136 169.796 168.136ZM190.502 181.544C193.766 181.544 196.326 179.656 197.382 177.448V181H201.606V157H197.382V165.576C195.782 165.064 193.574 164.424 191.846 164.424C186.47 164.424 182.438 168.36 182.438 173.16C182.438 178.344 186.118 181.544 190.502 181.544ZM191.75 177.608C188.902 177.608 186.694 176.008 186.694 173.128C186.694 170.312 188.902 168.136 191.782 168.136C193.734 168.136 195.526 168.552 197.382 169.096V172.552C197.382 175.624 194.566 177.608 191.75 177.608ZM223.84 165H219.2C217.76 168.424 216 172.552 214.336 176.424L208.608 165H204L212.256 181.224C212.256 181.256 212.192 181.32 212.192 181.384C211.392 183.176 210.496 184.936 208.8 184.936C208.576 184.936 207.936 184.872 207.36 184.776L207.136 188.84C207.68 188.936 208.384 189 208.608 189C213.12 189 214.592 185.736 216.128 182.312L223.84 165Z" fill="#E6D0FE"></path><path d="M49.54 247.4H50.8V260H49.54V254.114H42.7V260H41.44V247.4H42.7V252.926H49.54V247.4ZM61.0364 258.866C60.1244 259.766 59.0084 260.216 57.6884 260.216C56.3684 260.216 55.2464 259.766 54.3224 258.866C53.4104 257.954 52.9544 256.832 52.9544 255.5C52.9544 254.168 53.4104 253.052 54.3224 252.152C55.2464 251.24 56.3684 250.784 57.6884 250.784C59.0084 250.784 60.1244 251.24 61.0364 252.152C61.9604 253.052 62.4224 254.168 62.4224 255.5C62.4224 256.832 61.9604 257.954 61.0364 258.866ZM55.1684 258.038C55.8524 258.722 56.6924 259.064 57.6884 259.064C58.6844 259.064 59.5244 258.722 60.2084 258.038C60.8924 257.342 61.2344 256.496 61.2344 255.5C61.2344 254.504 60.8924 253.664 60.2084 252.98C59.5244 252.284 58.6844 251.936 57.6884 251.936C56.6924 251.936 55.8524 252.284 55.1684 252.98C54.4844 253.664 54.1424 254.504 54.1424 255.5C54.1424 256.496 54.4844 257.342 55.1684 258.038ZM74.8948 251H76.1188L73.3468 260H72.0508L69.7288 252.746L67.4068 260H66.1108L63.3388 251H64.5628L66.7768 258.47L69.1348 251H70.3228L72.6808 258.47L74.8948 251ZM90.1504 247.4H91.3384V260H90.1504V258.236C89.3224 259.556 88.1104 260.216 86.5144 260.216C85.2304 260.216 84.1324 259.76 83.2204 258.848C82.3204 257.936 81.8704 256.82 81.8704 255.5C81.8704 254.18 82.3204 253.064 83.2204 252.152C84.1324 251.24 85.2304 250.784 86.5144 250.784C88.1104 250.784 89.3224 251.444 90.1504 252.764V247.4ZM84.0844 258.038C84.7684 258.722 85.6084 259.064 86.6044 259.064C87.6004 259.064 88.4404 258.722 89.1244 258.038C89.8084 257.342 90.1504 256.496 90.1504 255.5C90.1504 254.504 89.8084 253.664 89.1244 252.98C88.4404 252.284 87.6004 251.936 86.6044 251.936C85.6084 251.936 84.7684 252.284 84.0844 252.98C83.4004 253.664 83.0584 254.504 83.0584 255.5C83.0584 256.496 83.4004 257.342 84.0844 258.038ZM95.0598 248.84C94.8918 249.008 94.6878 249.092 94.4478 249.092C94.2078 249.092 94.0038 249.008 93.8358 248.84C93.6678 248.672 93.5838 248.468 93.5838 248.228C93.5838 247.988 93.6678 247.784 93.8358 247.616C94.0038 247.448 94.2078 247.364 94.4478 247.364C94.6878 247.364 94.8918 247.448 95.0598 247.616C95.2278 247.784 95.3118 247.988 95.3118 248.228C95.3118 248.468 95.2278 248.672 95.0598 248.84ZM93.8538 260V251H95.0418V260H93.8538ZM105.303 247.4H106.491V260H105.303V258.236C104.475 259.556 103.263 260.216 101.667 260.216C100.383 260.216 99.2847 259.76 98.3727 258.848C97.4727 257.936 97.0227 256.82 97.0227 255.5C97.0227 254.18 97.4727 253.064 98.3727 252.152C99.2847 251.24 100.383 250.784 101.667 250.784C103.263 250.784 104.475 251.444 105.303 252.764V247.4ZM99.2367 258.038C99.9207 258.722 100.761 259.064 101.757 259.064C102.753 259.064 103.593 258.722 104.277 258.038C104.961 257.342 105.303 256.496 105.303 255.5C105.303 254.504 104.961 253.664 104.277 252.98C103.593 252.284 102.753 251.936 101.757 251.936C100.761 251.936 99.9207 252.284 99.2367 252.98C98.5527 253.664 98.2107 254.504 98.2107 255.5C98.2107 256.496 98.5527 257.342 99.2367 258.038ZM119.986 251H121.246L117.394 260.828C117.046 261.716 116.548 262.412 115.9 262.916C115.264 263.432 114.55 263.66 113.758 263.6V262.484C114.838 262.604 115.66 261.98 116.224 260.612L116.458 260.054L112.426 251H113.686L117.07 258.542L119.986 251ZM129.872 258.866C128.96 259.766 127.844 260.216 126.524 260.216C125.204 260.216 124.082 259.766 123.158 258.866C122.246 257.954 121.79 256.832 121.79 255.5C121.79 254.168 122.246 253.052 123.158 252.152C124.082 251.24 125.204 250.784 126.524 250.784C127.844 250.784 128.96 251.24 129.872 252.152C130.796 253.052 131.258 254.168 131.258 255.5C131.258 256.832 130.796 257.954 129.872 258.866ZM124.004 258.038C124.688 258.722 125.528 259.064 126.524 259.064C127.52 259.064 128.36 258.722 129.044 258.038C129.728 257.342 130.07 256.496 130.07 255.5C130.07 254.504 129.728 253.664 129.044 252.98C128.36 252.284 127.52 251.936 126.524 251.936C125.528 251.936 124.688 252.284 124.004 252.98C123.32 253.664 122.978 254.504 122.978 255.5C122.978 256.496 123.32 257.342 124.004 258.038ZM139.582 251H140.77V260H139.582V258.596C138.91 259.676 137.902 260.216 136.558 260.216C135.466 260.216 134.602 259.886 133.966 259.226C133.342 258.554 133.03 257.654 133.03 256.526V251H134.218V256.526C134.218 257.33 134.428 257.954 134.848 258.398C135.28 258.842 135.886 259.064 136.666 259.064C137.53 259.064 138.232 258.794 138.772 258.254C139.312 257.702 139.582 256.856 139.582 255.716V251ZM152.607 250.784C153.891 250.784 154.983 251.24 155.883 252.152C156.795 253.064 157.251 254.18 157.251 255.5C157.251 256.82 156.795 257.936 155.883 258.848C154.983 259.76 153.891 260.216 152.607 260.216C151.011 260.216 149.799 259.556 148.971 258.236V260H147.783V247.4H148.971V252.764C149.799 251.444 151.011 250.784 152.607 250.784ZM149.997 258.038C150.681 258.722 151.521 259.064 152.517 259.064C153.513 259.064 154.353 258.722 155.037 258.038C155.721 257.342 156.063 256.496 156.063 255.5C156.063 254.504 155.721 253.664 155.037 252.98C154.353 252.284 153.513 251.936 152.517 251.936C151.521 251.936 150.681 252.284 149.997 252.98C149.313 253.664 148.971 254.504 148.971 255.5C148.971 256.496 149.313 257.342 149.997 258.038ZM159.227 260V246.86H160.415V260H159.227ZM170.676 251H171.864V260H170.676V258.236C169.848 259.556 168.636 260.216 167.04 260.216C165.756 260.216 164.658 259.76 163.746 258.848C162.846 257.936 162.396 256.82 162.396 255.5C162.396 254.18 162.846 253.064 163.746 252.152C164.658 251.24 165.756 250.784 167.04 250.784C168.636 250.784 169.848 251.444 170.676 252.764V251ZM164.61 258.038C165.294 258.722 166.134 259.064 167.13 259.064C168.126 259.064 168.966 258.722 169.65 258.038C170.334 257.342 170.676 256.496 170.676 255.5C170.676 254.504 170.334 253.664 169.65 252.98C168.966 252.284 168.126 251.936 167.13 251.936C166.134 251.936 165.294 252.284 164.61 252.98C163.926 253.664 163.584 254.504 163.584 255.5C163.584 256.496 163.926 257.342 164.61 258.038ZM178.573 260.216C177.217 260.216 176.089 259.766 175.189 258.866C174.289 257.954 173.839 256.832 173.839 255.5C173.839 254.168 174.289 253.052 175.189 252.152C176.089 251.24 177.217 250.784 178.573 250.784C179.461 250.784 180.259 251 180.967 251.432C181.675 251.852 182.191 252.422 182.515 253.142L181.543 253.7C181.303 253.16 180.913 252.734 180.373 252.422C179.845 252.098 179.245 251.936 178.573 251.936C177.577 251.936 176.737 252.284 176.053 252.98C175.369 253.664 175.027 254.504 175.027 255.5C175.027 256.496 175.369 257.342 176.053 258.038C176.737 258.722 177.577 259.064 178.573 259.064C179.245 259.064 179.845 258.908 180.373 258.596C180.901 258.272 181.315 257.84 181.615 257.3L182.605 257.876C182.233 258.596 181.687 259.166 180.967 259.586C180.247 260.006 179.449 260.216 178.573 260.216ZM191.583 260H189.999L185.499 255.662V260H184.311V247.4H185.499V254.978L189.783 251H191.403L186.759 255.32L191.583 260ZM202.799 250.784C203.807 250.784 204.617 251.108 205.229 251.756C205.853 252.404 206.165 253.28 206.165 254.384V260H204.977V254.384C204.977 253.604 204.773 253.004 204.365 252.584C203.969 252.152 203.441 251.936 202.781 251.936C202.037 251.936 201.431 252.188 200.963 252.692C200.507 253.184 200.279 253.958 200.279 255.014V260H199.091V254.384C199.091 253.592 198.899 252.986 198.515 252.566C198.143 252.146 197.633 251.936 196.985 251.936C196.265 251.936 195.653 252.188 195.149 252.692C194.645 253.196 194.393 253.97 194.393 255.014V260H193.205V251H194.393V252.314C195.041 251.294 195.959 250.784 197.147 250.784C198.443 250.784 199.355 251.33 199.883 252.422C200.531 251.33 201.503 250.784 202.799 250.784ZM216.203 251H217.391V260H216.203V258.236C215.375 259.556 214.163 260.216 212.567 260.216C211.283 260.216 210.185 259.76 209.273 258.848C208.373 257.936 207.923 256.82 207.923 255.5C207.923 254.18 208.373 253.064 209.273 252.152C210.185 251.24 211.283 250.784 212.567 250.784C214.163 250.784 215.375 251.444 216.203 252.764V251ZM210.137 258.038C210.821 258.722 211.661 259.064 212.657 259.064C213.653 259.064 214.493 258.722 215.177 258.038C215.861 257.342 216.203 256.496 216.203 255.5C216.203 254.504 215.861 253.664 215.177 252.98C214.493 252.284 213.653 251.936 212.657 251.936C211.661 251.936 210.821 252.284 210.137 252.98C209.453 253.664 209.111 254.504 209.111 255.5C209.111 256.496 209.453 257.342 210.137 258.038ZM221.112 248.84C220.944 249.008 220.74 249.092 220.5 249.092C220.26 249.092 220.056 249.008 219.888 248.84C219.72 248.672 219.636 248.468 219.636 248.228C219.636 247.988 219.72 247.784 219.888 247.616C220.056 247.448 220.26 247.364 220.5 247.364C220.74 247.364 220.944 247.448 221.112 247.616C221.28 247.784 221.364 247.988 221.364 248.228C221.364 248.468 221.28 248.672 221.112 248.84ZM219.906 260V251H221.094V260H219.906ZM223.615 260V246.86H224.803V260H223.615ZM229.844 256.58C229.844 255.992 229.964 255.458 230.204 254.978C230.444 254.486 230.732 254.072 231.068 253.736C231.404 253.4 231.74 253.076 232.076 252.764C232.412 252.452 232.7 252.11 232.94 251.738C233.18 251.354 233.3 250.946 233.3 250.514C233.3 249.818 233.06 249.296 232.58 248.948C232.112 248.588 231.506 248.408 230.762 248.408C229.286 248.408 228.374 249.014 228.026 250.226L226.964 249.632C227.24 248.828 227.72 248.222 228.404 247.814C229.1 247.394 229.886 247.184 230.762 247.184C231.818 247.184 232.712 247.478 233.444 248.066C234.188 248.642 234.56 249.458 234.56 250.514C234.56 251.03 234.44 251.51 234.2 251.954C233.96 252.398 233.672 252.788 233.336 253.124C233 253.448 232.664 253.772 232.328 254.096C231.992 254.42 231.704 254.798 231.464 255.23C231.224 255.65 231.104 256.1 231.104 256.58H229.844ZM231.176 259.892C230.984 260.084 230.75 260.18 230.474 260.18C230.198 260.18 229.964 260.084 229.772 259.892C229.58 259.7 229.484 259.466 229.484 259.19C229.484 258.914 229.58 258.68 229.772 258.488C229.964 258.296 230.198 258.2 230.474 258.2C230.75 258.2 230.984 258.296 231.176 258.488C231.368 258.68 231.464 258.914 231.464 259.19C231.464 259.466 231.368 259.7 231.176 259.892Z" fill="#E6D0FE"></path></svg> 