<?xml version="1.0" encoding="UTF-8"?> <svg xmlns="http://www.w3.org/2000/svg" width="400" height="600" viewBox="0 0 400 600" fill="none"> <rect width="400" height="600" rx="20" fill="#7F3CC9"></rect> <path d="M47.296 84.136L60.8 101H65.952V78.6H61.536V95.464L48.032 78.6H42.88V101H47.296V84.136ZM80.4918 97.768C77.4838 97.768 75.1478 96.456 74.5398 94.12H88.2998C88.4918 93.384 88.5878 92.648 88.5878 91.944C88.5878 87.624 84.9398 84.456 80.0758 84.456C74.7318 84.456 70.1878 87.656 70.1878 93C70.1878 97.8 74.1238 101.576 80.0758 101.576C83.0198 101.576 86.0278 100.584 88.1718 99.496L86.9237 96.168C84.6518 97.352 82.6678 97.768 80.4918 97.768ZM79.8198 88.008C82.3158 88.008 83.9158 89.128 84.3318 91.016H74.6358C75.2758 89.064 77.0677 88.008 79.8198 88.008ZM94.39 85H89.75L97.302 101H101.942L109.526 85H104.822L99.638 96.232L94.39 85ZM121.179 97.768C118.171 97.768 115.835 96.456 115.227 94.12H128.987C129.179 93.384 129.275 92.648 129.275 91.944C129.275 87.624 125.627 84.456 120.763 84.456C115.419 84.456 110.875 87.656 110.875 93C110.875 97.8 114.811 101.576 120.763 101.576C123.707 101.576 126.715 100.584 128.859 99.496L127.611 96.168C125.339 97.352 123.355 97.768 121.179 97.768ZM120.507 88.008C123.003 88.008 124.603 89.128 125.019 91.016H115.323C115.963 89.064 117.755 88.008 120.507 88.008ZM142.982 84.456C140.198 84.456 137.99 86.824 137.062 88.552V85H132.838V101H137.062V93.064C137.062 90.12 139.91 88.392 142.566 88.392C143.174 88.392 144.006 88.584 144.774 88.936L145.67 85.096C144.87 84.712 143.878 84.456 142.982 84.456ZM166.436 88.424C168.964 88.424 170.276 89.992 170.276 92.264V101H174.5V91.752C174.5 87.4 172.004 84.52 167.652 84.52C164.612 84.52 162.244 86.472 161.124 88.552V77.288H156.9V101H161.124V93.064C161.124 89.896 163.78 88.424 166.436 88.424ZM184.75 91.88C181.454 91.88 178.19 93.352 178.19 96.776C178.19 99.656 180.43 101.64 183.438 101.64C186.158 101.64 188.59 100.168 190.126 98.344C190.19 100.136 191.086 101.64 193.23 101.64C194.542 101.64 196.462 101 198.222 100.04L197.358 96.776C196.43 97.256 195.598 97.608 195.118 97.608C194.67 97.608 194.35 97.32 194.35 96.84V91.08C194.35 86.696 191.79 84.36 187.406 84.36C184.878 84.36 181.518 85.352 179.534 85.992L180.59 89.832C182.926 88.968 185.358 88.232 187.022 88.232C189.038 88.232 190.126 89.352 190.126 91.016V92.872C188.75 92.392 186.478 91.88 184.75 91.88ZM184.814 98.024C183.47 98.024 182.51 97.48 182.51 96.424C182.51 95.272 183.566 94.6 184.974 94.6C186.51 94.6 188.366 94.76 190.126 95.08V95.688C188.622 97.16 186.414 98.024 184.814 98.024ZM202.859 85H198.219L205.771 101H210.411L217.995 85H213.291L208.107 96.232L202.859 85ZM229.648 97.768C226.64 97.768 224.304 96.456 223.696 94.12H237.456C237.648 93.384 237.744 92.648 237.744 91.944C237.744 87.624 234.096 84.456 229.232 84.456C223.888 84.456 219.344 87.656 219.344 93C219.344 97.8 223.28 101.576 229.232 101.576C232.176 101.576 235.184 100.584 237.328 99.496L236.08 96.168C233.808 97.352 231.824 97.768 229.648 97.768ZM228.976 88.008C231.472 88.008 233.072 89.128 233.488 91.016H223.792C224.432 89.064 226.224 88.008 228.976 88.008ZM255.265 78.6H250.849V101H255.265V78.6ZM278.867 97.768C275.859 97.768 273.523 96.456 272.915 94.12H286.675C286.867 93.384 286.963 92.648 286.963 91.944C286.963 87.624 283.315 84.456 278.451 84.456C273.107 84.456 268.563 87.656 268.563 93C268.563 97.8 272.499 101.576 278.451 101.576C281.395 101.576 284.403 100.584 286.547 99.496L285.299 96.168C283.027 97.352 281.043 97.768 278.867 97.768ZM278.195 88.008C280.691 88.008 282.291 89.128 282.707 91.016H273.011C273.651 89.064 275.443 88.008 278.195 88.008ZM292.765 85H288.125L295.677 101H300.317L307.901 85H303.197L298.013 96.232L292.765 85ZM319.554 97.768C316.546 97.768 314.21 96.456 313.602 94.12H327.362C327.554 93.384 327.65 92.648 327.65 91.944C327.65 87.624 324.002 84.456 319.138 84.456C313.794 84.456 309.25 87.656 309.25 93C309.25 97.8 313.186 101.576 319.138 101.576C322.082 101.576 325.09 100.584 327.234 99.496L325.986 96.168C323.714 97.352 321.73 97.768 319.554 97.768ZM318.882 88.008C321.378 88.008 322.978 89.128 323.394 91.016H313.698C314.338 89.064 316.13 88.008 318.882 88.008ZM341.357 84.456C338.573 84.456 336.365 86.824 335.437 88.552V85H331.213V101H335.437V93.064C335.437 90.12 338.285 88.392 340.941 88.392C341.549 88.392 342.381 88.584 343.149 88.936L344.045 85.096C343.245 84.712 342.253 84.456 341.357 84.456ZM48.096 138.888C47.04 138.888 46.496 138.504 46.496 137.96C46.496 137.512 46.912 137.192 47.296 137.096C48.032 137.224 48.832 137.288 49.632 137.288C54.464 137.288 57.984 134.536 57.984 130.888C57.984 129.8 57.696 128.84 57.248 128.04C58.016 127.656 58.912 127.432 60.032 127.304L59.264 123.368C57.216 123.72 55.616 124.488 54.4 125.48C53.024 124.808 51.36 124.456 49.632 124.456C45.248 124.456 41.312 126.664 41.312 130.888C41.312 132.616 42.688 134.376 44.16 135.336C43.36 135.848 42.432 136.68 42.432 137.736C42.432 138.76 43.104 139.88 43.968 140.296C42.368 140.712 40.672 142.28 40.672 143.976C40.672 147.336 44.448 149.096 50.272 149.096C55.744 149.096 59.776 147.304 59.776 143.656C59.776 140.328 55.744 138.888 50.272 138.888H48.096ZM49.6 127.944C51.872 127.944 53.6 128.936 53.6 130.76C53.6 132.264 52.032 133.512 49.6 133.512C47.296 133.512 45.568 132.36 45.568 130.76C45.568 128.936 47.296 127.944 49.6 127.944ZM50.208 142.472C53.504 142.472 55.68 142.92 55.68 144.008C55.68 145.192 53.504 145.64 50.208 145.64C46.688 145.64 44.736 145.128 44.736 143.976C44.736 143.336 45.344 142.792 46.048 142.504C46.592 142.472 49.568 142.472 50.208 142.472ZM71.4835 124.456C66.1395 124.456 61.5315 127.496 61.5315 132.84C61.5315 137.64 65.6915 141.576 71.4835 141.576C77.2755 141.576 81.4355 137.64 81.4355 132.84C81.4355 127.496 76.8275 124.456 71.4835 124.456ZM71.4835 128.136C74.8115 128.136 77.1795 129.864 77.1795 132.84C77.1795 135.528 74.6515 137.928 71.4835 137.928C68.3155 137.928 65.7875 135.528 65.7875 132.84C65.7875 129.864 68.1555 128.136 71.4835 128.136ZM94.7173 128.424C97.2453 128.424 98.5573 129.992 98.5573 132.264V141H102.781V131.752C102.781 127.4 100.285 124.52 95.9333 124.52C92.8933 124.52 90.5253 126.472 89.4053 128.552V125H85.1813V141H89.4053V133.064C89.4053 129.896 92.0613 128.424 94.7173 128.424ZM116.679 137.768C113.671 137.768 111.335 136.456 110.727 134.12H124.487C124.679 133.384 124.775 132.648 124.775 131.944C124.775 127.624 121.127 124.456 116.263 124.456C110.919 124.456 106.375 127.656 106.375 133C106.375 137.8 110.311 141.576 116.263 141.576C119.207 141.576 122.215 140.584 124.359 139.496L123.111 136.168C120.839 137.352 118.855 137.768 116.679 137.768ZM116.007 128.008C118.503 128.008 120.103 129.128 120.519 131.016H110.823C111.463 129.064 113.255 128.008 116.007 128.008ZM146.296 124.456C140.952 124.456 136.344 127.496 136.344 132.84C136.344 137.64 140.504 141.576 146.296 141.576C152.088 141.576 156.248 137.64 156.248 132.84C156.248 127.496 151.64 124.456 146.296 124.456ZM146.296 128.136C149.624 128.136 151.992 129.864 151.992 132.84C151.992 135.528 149.464 137.928 146.296 137.928C143.128 137.928 140.6 135.528 140.6 132.84C140.6 129.864 142.968 128.136 146.296 128.136ZM166.554 141.512C169.466 141.512 171.93 139.752 173.082 137.48V141H177.306V125H173.082V132.744C173.082 136.136 170.81 137.608 168.122 137.608C165.594 137.608 164.058 136.328 164.058 133.736V125H159.834V134.28C159.834 138.632 162.266 141.512 166.554 141.512ZM180.359 128.68H183.399V134.888C183.399 138.92 185.543 141.544 189.511 141.544C191.207 141.544 193.479 140.808 194.823 140.104L193.895 136.488C192.871 137.128 191.463 137.64 190.215 137.64C188.551 137.64 187.623 136.456 187.623 134.728V128.68H194.279V125H187.623V120.2H184.103L183.527 125.128L180.359 125.32V128.68ZM225.328 141H229.616L236.624 125H232.144L227.472 135.976L222.832 125H218.416L213.776 136.008L209.136 125H204.559L211.568 141H215.888L220.624 130.056L225.328 141ZM243.124 125H238.964V141H243.124V125ZM238.516 120.392C238.516 121.8 239.636 122.92 241.044 122.92C242.452 122.92 243.572 121.8 243.572 120.392C243.572 119.016 242.452 117.896 241.044 117.896C239.636 117.896 238.516 119.016 238.516 120.392ZM246.234 128.68H249.274V134.888C249.274 138.92 251.418 141.544 255.386 141.544C257.082 141.544 259.354 140.808 260.698 140.104L259.77 136.488C258.746 137.128 257.338 137.64 256.09 137.64C254.426 137.64 253.498 136.456 253.498 134.728V128.68H260.154V125H253.498V120.2H249.978L249.402 125.128L246.234 125.32V128.68ZM273.436 128.424C275.964 128.424 277.276 129.992 277.276 132.264V141H281.5V131.752C281.5 127.4 279.004 124.52 274.652 124.52C271.612 124.52 269.244 126.472 268.124 128.552V117.288H263.9V141H268.124V133.064C268.124 129.896 270.78 128.424 273.436 128.424ZM48 171.88C44.704 171.88 41.44 173.352 41.44 176.776C41.44 179.656 43.68 181.64 46.688 181.64C49.408 181.64 51.84 180.168 53.376 178.344C53.44 180.136 54.336 181.64 56.48 181.64C57.792 181.64 59.712 181 61.472 180.04L60.608 176.776C59.68 177.256 58.848 177.608 58.368 177.608C57.92 177.608 57.6 177.32 57.6 176.84V171.08C57.6 166.696 55.04 164.36 50.656 164.36C48.128 164.36 44.768 165.352 42.784 165.992L43.84 169.832C46.176 168.968 48.608 168.232 50.272 168.232C52.288 168.232 53.376 169.352 53.376 171.016V172.872C52 172.392 49.728 171.88 48 171.88ZM48.064 178.024C46.72 178.024 45.76 177.48 45.76 176.424C45.76 175.272 46.816 174.6 48.224 174.6C49.76 174.6 51.616 174.76 53.376 175.08V175.688C51.872 177.16 49.664 178.024 48.064 178.024ZM80.3233 160.424C81.6993 160.424 83.2033 160.872 84.6753 161.512L85.6993 157.64C84.1953 157.128 82.2753 156.68 80.4513 156.68C76.5153 156.68 73.7953 159.08 73.7953 162.76V165H71.1713V168.68H73.8273V181H77.9873V168.68H85.0913V165H77.8273V162.952C77.8273 161.224 78.7873 160.424 80.3233 160.424ZM97.8878 164.456C95.1038 164.456 92.8958 166.824 91.9678 168.552V165H87.7438V181H91.9678V173.064C91.9678 170.12 94.8158 168.392 97.4718 168.392C98.0798 168.392 98.9118 168.584 99.6798 168.936L100.576 165.096C99.7758 164.712 98.7838 164.456 97.8878 164.456ZM106.968 165H102.808V181H106.968V165ZM102.36 160.392C102.36 161.8 103.48 162.92 104.888 162.92C106.296 162.92 107.416 161.8 107.416 160.392C107.416 159.016 106.296 157.896 104.888 157.896C103.48 157.896 102.36 159.016 102.36 160.392ZM121.086 177.768C118.078 177.768 115.742 176.456 115.134 174.12H128.894C129.086 173.384 129.182 172.648 129.182 171.944C129.182 167.624 125.534 164.456 120.67 164.456C115.326 164.456 110.782 167.656 110.782 173C110.782 177.8 114.718 181.576 120.67 181.576C123.614 181.576 126.622 180.584 128.766 179.496L127.517 176.168C125.246 177.352 123.262 177.768 121.086 177.768ZM120.414 168.008C122.91 168.008 124.51 169.128 124.926 171.016H115.23C115.87 169.064 117.661 168.008 120.414 168.008ZM142.28 168.424C144.808 168.424 146.12 169.992 146.12 172.264V181H150.344V171.752C150.344 167.4 147.848 164.52 143.496 164.52C140.456 164.52 138.088 166.472 136.968 168.552V165H132.744V181H136.968V173.064C136.968 169.896 139.624 168.424 142.28 168.424ZM162.002 181.544C165.266 181.544 167.826 179.656 168.882 177.448V181H173.106V157H168.882V165.576C167.282 165.064 165.074 164.424 163.346 164.424C157.97 164.424 153.938 168.36 153.938 173.16C153.938 178.344 157.618 181.544 162.002 181.544ZM163.25 177.608C160.402 177.608 158.194 176.008 158.194 173.128C158.194 170.312 160.402 168.136 163.282 168.136C165.234 168.136 167.026 168.552 168.882 169.096V172.552C168.882 175.624 166.066 177.608 163.25 177.608ZM177.132 166.344H180.556L180.908 158.6H176.78L177.132 166.344ZM198.732 165.576C196.844 164.936 193.868 164.392 191.34 164.392C186.796 164.392 183.564 166.376 183.564 169.512C183.564 175.752 195.468 173.64 195.468 176.168C195.468 177.288 193.868 177.928 191.564 177.928C189.1 177.928 186.604 177.16 184.492 176.232L183.243 179.56C185.42 180.712 188.396 181.64 191.404 181.64C195.308 181.64 199.628 179.624 199.628 176.04C199.628 169.8 187.724 172.008 187.724 169.352C187.724 168.392 189.388 168.072 191.5 168.072C193.548 168.072 195.532 168.488 197.612 169.288L198.732 165.576ZM221.617 177.768C218.609 177.768 216.273 176.456 215.665 174.12H229.425C229.617 173.384 229.713 172.648 229.713 171.944C229.713 167.624 226.065 164.456 221.201 164.456C215.857 164.456 211.313 167.656 211.313 173C211.313 177.8 215.249 181.576 221.201 181.576C224.145 181.576 227.153 180.584 229.297 179.496L228.049 176.168C225.777 177.352 223.793 177.768 221.617 177.768ZM220.945 168.008C223.441 168.008 225.041 169.128 225.457 171.016H215.761C216.401 169.064 218.193 168.008 220.945 168.008ZM230.971 181H236.347L240.827 175.88L245.499 181H250.971L243.643 172.968L250.843 165H245.467L241.019 170.088L236.411 165H230.875L238.171 173L230.971 181Z" fill="#E6D0FE"></path> <path d="M44.194 260L40.54 247.4H41.872L44.986 258.29L48.262 247.4H49.738L53.014 258.29L56.128 247.4H57.46L53.806 260H52.294L49 249.056L45.706 260H44.194ZM65.9277 251H67.1157V260H65.9277V258.236C65.0997 259.556 63.8877 260.216 62.2917 260.216C61.0077 260.216 59.9097 259.76 58.9977 258.848C58.0977 257.936 57.6477 256.82 57.6477 255.5C57.6477 254.18 58.0977 253.064 58.9977 252.152C59.9097 251.24 61.0077 250.784 62.2917 250.784C63.8877 250.784 65.0997 251.444 65.9277 252.764V251ZM59.8617 258.038C60.5457 258.722 61.3857 259.064 62.3817 259.064C63.3777 259.064 64.2177 258.722 64.9017 258.038C65.5857 257.342 65.9277 256.496 65.9277 255.5C65.9277 254.504 65.5857 253.664 64.9017 252.98C64.2177 252.284 63.3777 251.936 62.3817 251.936C61.3857 251.936 60.5457 252.284 59.8617 252.98C59.1777 253.664 58.8357 254.504 58.8357 255.5C58.8357 256.496 59.1777 257.342 59.8617 258.038ZM70.5671 253.358C70.5671 253.766 70.7471 254.09 71.1071 254.33C71.4671 254.57 71.9051 254.756 72.4211 254.888C72.9371 255.02 73.4531 255.17 73.9691 255.338C74.4851 255.494 74.9231 255.764 75.2831 256.148C75.6431 256.52 75.8231 257.012 75.8231 257.624C75.8231 258.392 75.5171 259.016 74.9051 259.496C74.3051 259.976 73.5251 260.216 72.5651 260.216C71.7011 260.216 70.9631 260.024 70.3511 259.64C69.7511 259.256 69.3311 258.758 69.0911 258.146L70.0991 257.552C70.2671 258.02 70.5671 258.392 70.9991 258.668C71.4431 258.932 71.9651 259.064 72.5651 259.064C73.1531 259.064 73.6451 258.95 74.0411 258.722C74.4371 258.482 74.6351 258.116 74.6351 257.624C74.6351 257.216 74.4551 256.892 74.0951 256.652C73.7351 256.412 73.2971 256.226 72.7811 256.094C72.2651 255.962 71.7491 255.818 71.2331 255.662C70.7171 255.494 70.2791 255.224 69.9191 254.852C69.5591 254.468 69.3791 253.97 69.3791 253.358C69.3791 252.626 69.6671 252.014 70.2431 251.522C70.8311 251.03 71.5691 250.784 72.4571 250.784C73.1891 250.784 73.8311 250.952 74.3831 251.288C74.9351 251.612 75.3431 252.056 75.6071 252.62L74.6171 253.196C74.2691 252.356 73.5491 251.936 72.4571 251.936C71.9411 251.936 71.4971 252.062 71.1251 252.314C70.7531 252.554 70.5671 252.902 70.5671 253.358ZM83.5109 248.84C83.3429 249.008 83.1389 249.092 82.8989 249.092C82.6589 249.092 82.4549 249.008 82.2869 248.84C82.1189 248.672 82.0349 248.468 82.0349 248.228C82.0349 247.988 82.1189 247.784 82.2869 247.616C82.4549 247.448 82.6589 247.364 82.8989 247.364C83.1389 247.364 83.3429 247.448 83.5109 247.616C83.6789 247.784 83.7629 247.988 83.7629 248.228C83.7629 248.468 83.6789 248.672 83.5109 248.84ZM82.3049 260V251H83.4929V260H82.3049ZM90.7839 252.152H88.1919V257.606C88.1919 258.098 88.2879 258.452 88.4799 258.668C88.6719 258.872 88.9599 258.98 89.3439 258.992C89.7279 258.992 90.2079 258.98 90.7839 258.956V260C89.5239 260.192 88.5759 260.102 87.9399 259.73C87.3159 259.358 87.0039 258.65 87.0039 257.606V252.152H85.1139V251H87.0039V248.84L88.1919 248.48V251H90.7839V252.152ZM105.004 251H106.192V260H105.004V258.236C104.176 259.556 102.964 260.216 101.368 260.216C100.084 260.216 98.9859 259.76 98.0739 258.848C97.1739 257.936 96.7239 256.82 96.7239 255.5C96.7239 254.18 97.1739 253.064 98.0739 252.152C98.9859 251.24 100.084 250.784 101.368 250.784C102.964 250.784 104.176 251.444 105.004 252.764V251ZM98.9379 258.038C99.6219 258.722 100.462 259.064 101.458 259.064C102.454 259.064 103.294 258.722 103.978 258.038C104.662 257.342 105.004 256.496 105.004 255.5C105.004 254.504 104.662 253.664 103.978 252.98C103.294 252.284 102.454 251.936 101.458 251.936C100.462 251.936 99.6219 252.284 98.9379 252.98C98.2539 253.664 97.9119 254.504 97.9119 255.5C97.9119 256.496 98.2539 257.342 98.9379 258.038ZM120.947 247.4H122.135V260H120.947V258.236C120.119 259.556 118.907 260.216 117.311 260.216C116.027 260.216 114.929 259.76 114.017 258.848C113.117 257.936 112.667 256.82 112.667 255.5C112.667 254.18 113.117 253.064 114.017 252.152C114.929 251.24 116.027 250.784 117.311 250.784C118.907 250.784 120.119 251.444 120.947 252.764V247.4ZM114.881 258.038C115.565 258.722 116.405 259.064 117.401 259.064C118.397 259.064 119.237 258.722 119.921 258.038C120.605 257.342 120.947 256.496 120.947 255.5C120.947 254.504 120.605 253.664 119.921 252.98C119.237 252.284 118.397 251.936 117.401 251.936C116.405 251.936 115.565 252.284 114.881 252.98C114.197 253.664 113.855 254.504 113.855 255.5C113.855 256.496 114.197 257.342 114.881 258.038ZM132.391 251H133.579V260H132.391V258.236C131.563 259.556 130.351 260.216 128.755 260.216C127.471 260.216 126.373 259.76 125.461 258.848C124.561 257.936 124.111 256.82 124.111 255.5C124.111 254.18 124.561 253.064 125.461 252.152C126.373 251.24 127.471 250.784 128.755 250.784C130.351 250.784 131.563 251.444 132.391 252.764V251ZM126.325 258.038C127.009 258.722 127.849 259.064 128.845 259.064C129.841 259.064 130.681 258.722 131.365 258.038C132.049 257.342 132.391 256.496 132.391 255.5C132.391 254.504 132.049 253.664 131.365 252.98C130.681 252.284 129.841 251.936 128.845 251.936C127.849 251.936 127.009 252.284 126.325 252.98C125.641 253.664 125.299 254.504 125.299 255.5C125.299 256.496 125.641 257.342 126.325 258.038ZM140.864 252.152H138.272V257.606C138.272 258.098 138.368 258.452 138.56 258.668C138.752 258.872 139.04 258.98 139.424 258.992C139.808 258.992 140.288 258.98 140.864 258.956V260C139.604 260.192 138.656 260.102 138.02 259.73C137.396 259.358 137.084 258.65 137.084 257.606V252.152H135.194V251H137.084V248.84L138.272 248.48V251H140.864V252.152ZM146.457 250.784C147.789 250.784 148.863 251.258 149.679 252.206C150.507 253.142 150.921 254.252 150.921 255.536C150.921 255.668 150.909 255.854 150.885 256.094H142.983C143.103 257.006 143.487 257.732 144.135 258.272C144.795 258.8 145.605 259.064 146.565 259.064C147.249 259.064 147.837 258.926 148.329 258.65C148.833 258.362 149.211 257.99 149.463 257.534L150.507 258.146C150.111 258.782 149.571 259.286 148.887 259.658C148.203 260.03 147.423 260.216 146.547 260.216C145.131 260.216 143.979 259.772 143.091 258.884C142.203 257.996 141.759 256.868 141.759 255.5C141.759 254.156 142.197 253.034 143.073 252.134C143.949 251.234 145.077 250.784 146.457 250.784ZM146.457 251.936C145.521 251.936 144.735 252.218 144.099 252.782C143.475 253.334 143.103 254.054 142.983 254.942H149.697C149.577 253.994 149.211 253.256 148.599 252.728C147.987 252.2 147.273 251.936 146.457 251.936ZM154.434 256.58C154.434 255.992 154.554 255.458 154.794 254.978C155.034 254.486 155.322 254.072 155.658 253.736C155.994 253.4 156.33 253.076 156.666 252.764C157.002 252.452 157.29 252.11 157.53 251.738C157.77 251.354 157.89 250.946 157.89 250.514C157.89 249.818 157.65 249.296 157.17 248.948C156.702 248.588 156.096 248.408 155.352 248.408C153.876 248.408 152.964 249.014 152.616 250.226L151.554 249.632C151.83 248.828 152.31 248.222 152.994 247.814C153.69 247.394 154.476 247.184 155.352 247.184C156.408 247.184 157.302 247.478 158.034 248.066C158.778 248.642 159.15 249.458 159.15 250.514C159.15 251.03 159.03 251.51 158.79 251.954C158.55 252.398 158.262 252.788 157.926 253.124C157.59 253.448 157.254 253.772 156.918 254.096C156.582 254.42 156.294 254.798 156.054 255.23C155.814 255.65 155.694 256.1 155.694 256.58H154.434ZM155.766 259.892C155.574 260.084 155.34 260.18 155.064 260.18C154.788 260.18 154.554 260.084 154.362 259.892C154.17 259.7 154.074 259.466 154.074 259.19C154.074 258.914 154.17 258.68 154.362 258.488C154.554 258.296 154.788 258.2 155.064 258.2C155.34 258.2 155.574 258.296 155.766 258.488C155.958 258.68 156.054 258.914 156.054 259.19C156.054 259.466 155.958 259.7 155.766 259.892Z" fill="#E6D0FE"></path> <path d="M46.3 284.4C48.016 284.4 49.432 285.012 50.548 286.236C51.676 287.448 52.24 288.936 52.24 290.7C52.24 292.464 51.676 293.958 50.548 295.182C49.432 296.394 48.016 297 46.3 297H41.44V284.4H46.3ZM46.3 295.812C47.68 295.812 48.808 295.32 49.684 294.336C50.572 293.352 51.016 292.14 51.016 290.7C51.016 289.26 50.572 288.048 49.684 287.064C48.808 286.08 47.68 285.588 46.3 285.588H42.7V295.812H46.3ZM55.4211 285.84C55.2531 286.008 55.0491 286.092 54.8091 286.092C54.5691 286.092 54.3651 286.008 54.1971 285.84C54.0291 285.672 53.9451 285.468 53.9451 285.228C53.9451 284.988 54.0291 284.784 54.1971 284.616C54.3651 284.448 54.5691 284.364 54.8091 284.364C55.0491 284.364 55.2531 284.448 55.4211 284.616C55.5891 284.784 55.6731 284.988 55.6731 285.228C55.6731 285.468 55.5891 285.672 55.4211 285.84ZM54.2151 297V288H55.4031V297H54.2151ZM65.6641 284.4H66.8521V297H65.6641V295.236C64.8361 296.556 63.6241 297.216 62.0281 297.216C60.7441 297.216 59.6461 296.76 58.7341 295.848C57.8341 294.936 57.3841 293.82 57.3841 292.5C57.3841 291.18 57.8341 290.064 58.7341 289.152C59.6461 288.24 60.7441 287.784 62.0281 287.784C63.6241 287.784 64.8361 288.444 65.6641 289.764V284.4ZM59.5981 295.038C60.2821 295.722 61.1221 296.064 62.1181 296.064C63.1141 296.064 63.9541 295.722 64.6381 295.038C65.3221 294.342 65.6641 293.496 65.6641 292.5C65.6641 291.504 65.3221 290.664 64.6381 289.98C63.9541 289.284 63.1141 288.936 62.1181 288.936C61.1221 288.936 60.2821 289.284 59.5981 289.98C58.9141 290.664 58.5721 291.504 58.5721 292.5C58.5721 293.496 58.9141 294.342 59.5981 295.038ZM80.3474 288H81.6074L77.7554 297.828C77.4074 298.716 76.9094 299.412 76.2614 299.916C75.6254 300.432 74.9114 300.66 74.1194 300.6V299.484C75.1994 299.604 76.0214 298.98 76.5854 297.612L76.8194 297.054L72.7874 288H74.0474L77.4314 295.542L80.3474 288ZM90.2336 295.866C89.3216 296.766 88.2056 297.216 86.8856 297.216C85.5656 297.216 84.4436 296.766 83.5196 295.866C82.6076 294.954 82.1516 293.832 82.1516 292.5C82.1516 291.168 82.6076 290.052 83.5196 289.152C84.4436 288.24 85.5656 287.784 86.8856 287.784C88.2056 287.784 89.3216 288.24 90.2336 289.152C91.1576 290.052 91.6196 291.168 91.6196 292.5C91.6196 293.832 91.1576 294.954 90.2336 295.866ZM84.3656 295.038C85.0496 295.722 85.8896 296.064 86.8856 296.064C87.8816 296.064 88.7216 295.722 89.4056 295.038C90.0896 294.342 90.4316 293.496 90.4316 292.5C90.4316 291.504 90.0896 290.664 89.4056 289.98C88.7216 289.284 87.8816 288.936 86.8856 288.936C85.8896 288.936 85.0496 289.284 84.3656 289.98C83.6816 290.664 83.3396 291.504 83.3396 292.5C83.3396 293.496 83.6816 294.342 84.3656 295.038ZM99.9437 288H101.132V297H99.9437V295.596C99.2717 296.676 98.2637 297.216 96.9197 297.216C95.8277 297.216 94.9637 296.886 94.3277 296.226C93.7037 295.554 93.3917 294.654 93.3917 293.526V288H94.5797V293.526C94.5797 294.33 94.7897 294.954 95.2097 295.398C95.6417 295.842 96.2477 296.064 97.0277 296.064C97.8917 296.064 98.5937 295.794 99.1337 295.254C99.6737 294.702 99.9437 293.856 99.9437 292.716V288ZM104.833 289.494C105.385 288.402 106.333 287.856 107.677 287.856V289.008C106.861 289.008 106.183 289.248 105.643 289.728C105.103 290.208 104.833 290.964 104.833 291.996V297H103.645V288H104.833V289.494ZM118.305 285.336C117.429 285.264 116.775 285.414 116.343 285.786C115.923 286.158 115.713 286.776 115.713 287.64V288H118.305V289.152H115.713V297H114.525V289.152H112.995V288H114.525V287.64C114.525 286.464 114.849 285.576 115.497 284.976C116.157 284.364 117.093 284.1 118.305 284.184V285.336ZM120.759 289.494C121.311 288.402 122.259 287.856 123.603 287.856V289.008C122.787 289.008 122.109 289.248 121.569 289.728C121.029 290.208 120.759 290.964 120.759 291.996V297H119.571V288H120.759V289.494ZM126.437 285.84C126.269 286.008 126.065 286.092 125.825 286.092C125.585 286.092 125.381 286.008 125.213 285.84C125.045 285.672 124.961 285.468 124.961 285.228C124.961 284.988 125.045 284.784 125.213 284.616C125.381 284.448 125.585 284.364 125.825 284.364C126.065 284.364 126.269 284.448 126.437 284.616C126.605 284.784 126.689 284.988 126.689 285.228C126.689 285.468 126.605 285.672 126.437 285.84ZM125.231 297V288H126.419V297H125.231ZM133.098 287.784C134.43 287.784 135.504 288.258 136.32 289.206C137.148 290.142 137.562 291.252 137.562 292.536C137.562 292.668 137.55 292.854 137.526 293.094H129.624C129.744 294.006 130.128 294.732 130.776 295.272C131.436 295.8 132.246 296.064 133.206 296.064C133.89 296.064 134.478 295.926 134.97 295.65C135.474 295.362 135.852 294.99 136.104 294.534L137.148 295.146C136.752 295.782 136.212 296.286 135.528 296.658C134.844 297.03 134.064 297.216 133.188 297.216C131.772 297.216 130.62 296.772 129.732 295.884C128.844 294.996 128.4 293.868 128.4 292.5C128.4 291.156 128.838 290.034 129.714 289.134C130.59 288.234 131.718 287.784 133.098 287.784ZM133.098 288.936C132.162 288.936 131.376 289.218 130.74 289.782C130.116 290.334 129.744 291.054 129.624 291.942H136.338C136.218 290.994 135.852 290.256 135.24 289.728C134.628 289.2 133.914 288.936 133.098 288.936ZM143.663 287.784C144.755 287.784 145.613 288.12 146.237 288.792C146.873 289.452 147.191 290.346 147.191 291.474V297H146.003V291.474C146.003 290.67 145.787 290.046 145.355 289.602C144.935 289.158 144.335 288.936 143.555 288.936C142.691 288.936 141.989 289.212 141.449 289.764C140.909 290.304 140.639 291.144 140.639 292.284V297H139.451V288H140.639V289.404C141.311 288.324 142.319 287.784 143.663 287.784ZM157.229 284.4H158.417V297H157.229V295.236C156.401 296.556 155.189 297.216 153.593 297.216C152.309 297.216 151.211 296.76 150.299 295.848C149.399 294.936 148.949 293.82 148.949 292.5C148.949 291.18 149.399 290.064 150.299 289.152C151.211 288.24 152.309 287.784 153.593 287.784C155.189 287.784 156.401 288.444 157.229 289.764V284.4ZM151.163 295.038C151.847 295.722 152.687 296.064 153.683 296.064C154.679 296.064 155.519 295.722 156.203 295.038C156.887 294.342 157.229 293.496 157.229 292.5C157.229 291.504 156.887 290.664 156.203 289.98C155.519 289.284 154.679 288.936 153.683 288.936C152.687 288.936 151.847 289.284 151.163 289.98C150.479 290.664 150.137 291.504 150.137 292.5C150.137 293.496 150.479 294.342 151.163 295.038ZM172.704 297H171.12L166.62 292.662V297H165.432V284.4H166.62V291.978L170.904 288H172.524L167.88 292.32L172.704 297ZM178.538 287.784C179.63 287.784 180.488 288.12 181.112 288.792C181.748 289.452 182.066 290.346 182.066 291.474V297H180.878V291.474C180.878 290.67 180.662 290.046 180.23 289.602C179.81 289.158 179.21 288.936 178.43 288.936C177.566 288.936 176.864 289.212 176.324 289.764C175.784 290.304 175.514 291.144 175.514 292.284V297H174.326V288H175.514V289.404C176.186 288.324 177.194 287.784 178.538 287.784ZM191.906 295.866C190.994 296.766 189.878 297.216 188.558 297.216C187.238 297.216 186.116 296.766 185.192 295.866C184.28 294.954 183.824 293.832 183.824 292.5C183.824 291.168 184.28 290.052 185.192 289.152C186.116 288.24 187.238 287.784 188.558 287.784C189.878 287.784 190.994 288.24 191.906 289.152C192.83 290.052 193.292 291.168 193.292 292.5C193.292 293.832 192.83 294.954 191.906 295.866ZM186.038 295.038C186.722 295.722 187.562 296.064 188.558 296.064C189.554 296.064 190.394 295.722 191.078 295.038C191.762 294.342 192.104 293.496 192.104 292.5C192.104 291.504 191.762 290.664 191.078 289.98C190.394 289.284 189.554 288.936 188.558 288.936C187.562 288.936 186.722 289.284 186.038 289.98C185.354 290.664 185.012 291.504 185.012 292.5C185.012 293.496 185.354 294.342 186.038 295.038ZM205.764 288H206.988L204.216 297H202.92L200.598 289.746L198.276 297H196.98L194.208 288H195.432L197.646 295.47L200.004 288H201.192L203.55 295.47L205.764 288ZM221.02 288H222.208V297H221.02V295.236C220.192 296.556 218.98 297.216 217.384 297.216C216.1 297.216 215.002 296.76 214.09 295.848C213.19 294.936 212.74 293.82 212.74 292.5C212.74 291.18 213.19 290.064 214.09 289.152C215.002 288.24 216.1 287.784 217.384 287.784C218.98 287.784 220.192 288.444 221.02 289.764V288ZM214.954 295.038C215.638 295.722 216.478 296.064 217.474 296.064C218.47 296.064 219.31 295.722 219.994 295.038C220.678 294.342 221.02 293.496 221.02 292.5C221.02 291.504 220.678 290.664 219.994 289.98C219.31 289.284 218.47 288.936 217.474 288.936C216.478 288.936 215.638 289.284 214.954 289.98C214.27 290.664 213.928 291.504 213.928 292.5C213.928 293.496 214.27 294.342 214.954 295.038ZM229.547 287.784C230.831 287.784 231.923 288.24 232.823 289.152C233.735 290.064 234.191 291.18 234.191 292.5C234.191 293.82 233.735 294.936 232.823 295.848C231.923 296.76 230.831 297.216 229.547 297.216C227.951 297.216 226.739 296.556 225.911 295.236V297H224.723V284.4H225.911V289.764C226.739 288.444 227.951 287.784 229.547 287.784ZM226.937 295.038C227.621 295.722 228.461 296.064 229.457 296.064C230.453 296.064 231.293 295.722 231.977 295.038C232.661 294.342 233.003 293.496 233.003 292.5C233.003 291.504 232.661 290.664 231.977 289.98C231.293 289.284 230.453 288.936 229.457 288.936C228.461 288.936 227.621 289.284 226.937 289.98C226.253 290.664 225.911 291.504 225.911 292.5C225.911 293.496 226.253 294.342 226.937 295.038ZM243.708 295.866C242.796 296.766 241.68 297.216 240.36 297.216C239.04 297.216 237.918 296.766 236.994 295.866C236.082 294.954 235.626 293.832 235.626 292.5C235.626 291.168 236.082 290.052 236.994 289.152C237.918 288.24 239.04 287.784 240.36 287.784C241.68 287.784 242.796 288.24 243.708 289.152C244.632 290.052 245.094 291.168 245.094 292.5C245.094 293.832 244.632 294.954 243.708 295.866ZM237.84 295.038C238.524 295.722 239.364 296.064 240.36 296.064C241.356 296.064 242.196 295.722 242.88 295.038C243.564 294.342 243.906 293.496 243.906 292.5C243.906 291.504 243.564 290.664 242.88 289.98C242.196 289.284 241.356 288.936 240.36 288.936C239.364 288.936 238.524 289.284 237.84 289.98C237.156 290.664 236.814 291.504 236.814 292.5C236.814 293.496 237.156 294.342 237.84 295.038ZM253.418 288H254.606V297H253.418V295.596C252.746 296.676 251.738 297.216 250.394 297.216C249.302 297.216 248.438 296.886 247.802 296.226C247.178 295.554 246.866 294.654 246.866 293.526V288H248.054V293.526C248.054 294.33 248.264 294.954 248.684 295.398C249.116 295.842 249.722 296.064 250.502 296.064C251.366 296.064 252.068 295.794 252.608 295.254C253.148 294.702 253.418 293.856 253.418 292.716V288ZM261.889 289.152H259.297V294.606C259.297 295.098 259.393 295.452 259.585 295.668C259.777 295.872 260.065 295.98 260.449 295.992C260.833 295.992 261.313 295.98 261.889 295.956V297C260.629 297.192 259.681 297.102 259.045 296.73C258.421 296.358 258.109 295.65 258.109 294.606V289.152H256.219V288H258.109V285.84L259.297 285.48V288H261.889V289.152ZM269.575 285.84C269.407 286.008 269.203 286.092 268.963 286.092C268.723 286.092 268.519 286.008 268.351 285.84C268.183 285.672 268.099 285.468 268.099 285.228C268.099 284.988 268.183 284.784 268.351 284.616C268.519 284.448 268.723 284.364 268.963 284.364C269.203 284.364 269.407 284.448 269.575 284.616C269.743 284.784 269.827 284.988 269.827 285.228C269.827 285.468 269.743 285.672 269.575 285.84ZM268.369 297V288H269.557V297H268.369ZM276.848 289.152H274.256V294.606C274.256 295.098 274.352 295.452 274.544 295.668C274.736 295.872 275.024 295.98 275.408 295.992C275.792 295.992 276.272 295.98 276.848 295.956V297C275.588 297.192 274.64 297.102 274.004 296.73C273.38 296.358 273.068 295.65 273.068 294.606V289.152H271.178V288H273.068V285.84L274.256 285.48V288H276.848V289.152ZM281.348 293.58C281.348 292.992 281.468 292.458 281.708 291.978C281.948 291.486 282.236 291.072 282.572 290.736C282.908 290.4 283.244 290.076 283.58 289.764C283.916 289.452 284.204 289.11 284.444 288.738C284.684 288.354 284.804 287.946 284.804 287.514C284.804 286.818 284.564 286.296 284.084 285.948C283.616 285.588 283.01 285.408 282.266 285.408C280.79 285.408 279.878 286.014 279.53 287.226L278.468 286.632C278.744 285.828 279.224 285.222 279.908 284.814C280.604 284.394 281.39 284.184 282.266 284.184C283.322 284.184 284.216 284.478 284.948 285.066C285.692 285.642 286.064 286.458 286.064 287.514C286.064 288.03 285.944 288.51 285.704 288.954C285.464 289.398 285.176 289.788 284.84 290.124C284.504 290.448 284.168 290.772 283.832 291.096C283.496 291.42 283.208 291.798 282.968 292.23C282.728 292.65 282.608 293.1 282.608 293.58H281.348ZM282.68 296.892C282.488 297.084 282.254 297.18 281.978 297.18C281.702 297.18 281.468 297.084 281.276 296.892C281.084 296.7 280.988 296.466 280.988 296.19C280.988 295.914 281.084 295.68 281.276 295.488C281.468 295.296 281.702 295.2 281.978 295.2C282.254 295.2 282.488 295.296 282.68 295.488C282.872 295.68 282.968 295.914 282.968 296.19C282.968 296.466 282.872 296.7 282.68 296.892Z" fill="#E6D0FE"></path> </svg> 