<?xml version="1.0" encoding="UTF-8"?> <svg xmlns="http://www.w3.org/2000/svg" width="400" height="600" viewBox="0 0 400 600" fill="none"><rect width="400" height="600" rx="20" fill="#7F3CC9"></rect><path d="M47.296 84.136V101H42.88V78.6H48.032L61.536 95.464V78.6H65.952V101H60.8L47.296 84.136ZM80.4918 97.768C82.6678 97.768 84.6518 97.352 86.9237 96.168L88.1718 99.496C86.0278 100.584 83.0198 101.576 80.0758 101.576C74.1238 101.576 70.1878 97.8 70.1878 93C70.1878 87.656 74.7318 84.456 80.0758 84.456C84.9398 84.456 88.5878 87.624 88.5878 91.944C88.5878 92.648 88.4918 93.384 88.2998 94.12H74.5398C75.1478 96.456 77.4838 97.768 80.4918 97.768ZM79.8198 88.008C77.0677 88.008 75.2758 89.064 74.6358 91.016H84.3318C83.9158 89.128 82.3158 88.008 79.8198 88.008ZM94.39 85L99.638 96.232L104.822 85H109.526L101.942 101H97.302L89.75 85H94.39ZM121.179 97.768C123.355 97.768 125.339 97.352 127.611 96.168L128.859 99.496C126.715 100.584 123.707 101.576 120.763 101.576C114.811 101.576 110.875 97.8 110.875 93C110.875 87.656 115.419 84.456 120.763 84.456C125.627 84.456 129.275 87.624 129.275 91.944C129.275 92.648 129.179 93.384 128.987 94.12H115.227C115.835 96.456 118.171 97.768 121.179 97.768ZM120.507 88.008C117.755 88.008 115.963 89.064 115.323 91.016H125.019C124.603 89.128 123.003 88.008 120.507 88.008ZM142.982 84.456C143.878 84.456 144.87 84.712 145.67 85.096L144.774 88.936C144.006 88.584 143.174 88.392 142.566 88.392C139.91 88.392 137.062 90.12 137.062 93.064V101H132.838V85H137.062V88.552C137.99 86.824 140.198 84.456 142.982 84.456ZM166.436 88.424C163.78 88.424 161.124 89.896 161.124 93.064V101H156.9V77.288H161.124V88.552C162.244 86.472 164.612 84.52 167.652 84.52C172.004 84.52 174.5 87.4 174.5 91.752V101H170.276V92.264C170.276 89.992 168.964 88.424 166.436 88.424ZM184.75 91.88C186.478 91.88 188.75 92.392 190.126 92.872V91.016C190.126 89.352 189.038 88.232 187.022 88.232C185.358 88.232 182.926 88.968 180.59 89.832L179.534 85.992C181.518 85.352 184.878 84.36 187.406 84.36C191.79 84.36 194.35 86.696 194.35 91.08V96.84C194.35 97.32 194.67 97.608 195.118 97.608C195.598 97.608 196.43 97.256 197.358 96.776L198.222 100.04C196.462 101 194.542 101.64 193.23 101.64C191.086 101.64 190.19 100.136 190.126 98.344C188.59 100.168 186.158 101.64 183.438 101.64C180.43 101.64 178.19 99.656 178.19 96.776C178.19 93.352 181.454 91.88 184.75 91.88ZM184.814 98.024C186.414 98.024 188.622 97.16 190.126 95.688V95.08C188.366 94.76 186.51 94.6 184.974 94.6C183.566 94.6 182.51 95.272 182.51 96.424C182.51 97.48 183.47 98.024 184.814 98.024ZM202.859 85L208.107 96.232L213.291 85H217.995L210.411 101H205.771L198.219 85H202.859ZM229.648 97.768C231.824 97.768 233.808 97.352 236.08 96.168L237.328 99.496C235.184 100.584 232.176 101.576 229.232 101.576C223.28 101.576 219.344 97.8 219.344 93C219.344 87.656 223.888 84.456 229.232 84.456C234.096 84.456 237.744 87.624 237.744 91.944C237.744 92.648 237.648 93.384 237.456 94.12H223.696C224.304 96.456 226.64 97.768 229.648 97.768ZM228.976 88.008C226.224 88.008 224.432 89.064 223.792 91.016H233.488C233.072 89.128 231.472 88.008 228.976 88.008ZM255.265 78.6V101H250.849V78.6H255.265ZM278.867 97.768C281.043 97.768 283.027 97.352 285.299 96.168L286.547 99.496C284.403 100.584 281.395 101.576 278.451 101.576C272.499 101.576 268.563 97.8 268.563 93C268.563 87.656 273.107 84.456 278.451 84.456C283.315 84.456 286.963 87.624 286.963 91.944C286.963 92.648 286.867 93.384 286.675 94.12H272.915C273.523 96.456 275.859 97.768 278.867 97.768ZM278.195 88.008C275.443 88.008 273.651 89.064 273.011 91.016H282.707C282.291 89.128 280.691 88.008 278.195 88.008ZM292.765 85L298.013 96.232L303.197 85H307.901L300.317 101H295.677L288.125 85H292.765ZM319.554 97.768C321.73 97.768 323.714 97.352 325.986 96.168L327.234 99.496C325.09 100.584 322.082 101.576 319.138 101.576C313.186 101.576 309.25 97.8 309.25 93C309.25 87.656 313.794 84.456 319.138 84.456C324.002 84.456 327.65 87.624 327.65 91.944C327.65 92.648 327.554 93.384 327.362 94.12H313.602C314.21 96.456 316.546 97.768 319.554 97.768ZM318.882 88.008C316.13 88.008 314.338 89.064 313.698 91.016H323.394C322.978 89.128 321.378 88.008 318.882 88.008ZM341.357 84.456C342.253 84.456 343.245 84.712 344.045 85.096L343.149 88.936C342.381 88.584 341.549 88.392 340.941 88.392C338.285 88.392 335.437 90.12 335.437 93.064V101H331.213V85H335.437V88.552C336.365 86.824 338.573 84.456 341.357 84.456ZM48.096 138.888H50.272C55.744 138.888 59.776 140.328 59.776 143.656C59.776 147.304 55.744 149.096 50.272 149.096C44.448 149.096 40.672 147.336 40.672 143.976C40.672 142.28 42.368 140.712 43.968 140.296C43.104 139.88 42.432 138.76 42.432 137.736C42.432 136.68 43.36 135.848 44.16 135.336C42.688 134.376 41.312 132.616 41.312 130.888C41.312 126.664 45.248 124.456 49.632 124.456C51.36 124.456 53.024 124.808 54.4 125.48C55.616 124.488 57.216 123.72 59.264 123.368L60.032 127.304C58.912 127.432 58.016 127.656 57.248 128.04C57.696 128.84 57.984 129.8 57.984 130.888C57.984 134.536 54.464 137.288 49.632 137.288C48.832 137.288 48.032 137.224 47.296 137.096C46.912 137.192 46.496 137.512 46.496 137.96C46.496 138.504 47.04 138.888 48.096 138.888ZM49.6 127.944C47.296 127.944 45.568 128.936 45.568 130.76C45.568 132.36 47.296 133.512 49.6 133.512C52.032 133.512 53.6 132.264 53.6 130.76C53.6 128.936 51.872 127.944 49.6 127.944ZM50.208 142.472C49.568 142.472 46.592 142.472 46.048 142.504C45.344 142.792 44.736 143.336 44.736 143.976C44.736 145.128 46.688 145.64 50.208 145.64C53.504 145.64 55.68 145.192 55.68 144.008C55.68 142.92 53.504 142.472 50.208 142.472ZM71.4835 124.456C76.8275 124.456 81.4355 127.496 81.4355 132.84C81.4355 137.64 77.2755 141.576 71.4835 141.576C65.6915 141.576 61.5315 137.64 61.5315 132.84C61.5315 127.496 66.1395 124.456 71.4835 124.456ZM71.4835 128.136C68.1555 128.136 65.7875 129.864 65.7875 132.84C65.7875 135.528 68.3155 137.928 71.4835 137.928C74.6515 137.928 77.1795 135.528 77.1795 132.84C77.1795 129.864 74.8115 128.136 71.4835 128.136ZM94.7173 128.424C92.0613 128.424 89.4053 129.896 89.4053 133.064V141H85.1813V125H89.4053V128.552C90.5253 126.472 92.8933 124.52 95.9333 124.52C100.285 124.52 102.781 127.4 102.781 131.752V141H98.5573V132.264C98.5573 129.992 97.2453 128.424 94.7173 128.424ZM116.679 137.768C118.855 137.768 120.839 137.352 123.111 136.168L124.359 139.496C122.215 140.584 119.207 141.576 116.263 141.576C110.311 141.576 106.375 137.8 106.375 133C106.375 127.656 110.919 124.456 116.263 124.456C121.127 124.456 124.775 127.624 124.775 131.944C124.775 132.648 124.679 133.384 124.487 134.12H110.727C111.335 136.456 113.671 137.768 116.679 137.768ZM116.007 128.008C113.255 128.008 111.463 129.064 110.823 131.016H120.519C120.103 129.128 118.503 128.008 116.007 128.008ZM146.296 124.456C151.64 124.456 156.248 127.496 156.248 132.84C156.248 137.64 152.088 141.576 146.296 141.576C140.504 141.576 136.344 137.64 136.344 132.84C136.344 127.496 140.952 124.456 146.296 124.456ZM146.296 128.136C142.968 128.136 140.6 129.864 140.6 132.84C140.6 135.528 143.128 137.928 146.296 137.928C149.464 137.928 151.992 135.528 151.992 132.84C151.992 129.864 149.624 128.136 146.296 128.136ZM166.554 141.512C162.266 141.512 159.834 138.632 159.834 134.28V125H164.058V133.736C164.058 136.328 165.594 137.608 168.122 137.608C170.81 137.608 173.082 136.136 173.082 132.744V125H177.306V141H173.082V137.48C171.93 139.752 169.466 141.512 166.554 141.512ZM180.359 128.68V125.32L183.527 125.128L184.103 120.2H187.623V125H194.279V128.68H187.623V134.728C187.623 136.456 188.551 137.64 190.215 137.64C191.463 137.64 192.871 137.128 193.895 136.488L194.823 140.104C193.479 140.808 191.207 141.544 189.511 141.544C185.543 141.544 183.399 138.92 183.399 134.888V128.68H180.359ZM225.328 141L220.624 130.056L215.888 141H211.568L204.559 125H209.136L213.776 136.008L218.416 125H222.832L227.472 135.976L232.144 125H236.624L229.616 141H225.328ZM243.124 125V141H238.964V125H243.124ZM238.516 120.392C238.516 119.016 239.636 117.896 241.044 117.896C242.452 117.896 243.572 119.016 243.572 120.392C243.572 121.8 242.452 122.92 241.044 122.92C239.636 122.92 238.516 121.8 238.516 120.392ZM246.234 128.68V125.32L249.402 125.128L249.978 120.2H253.498V125H260.154V128.68H253.498V134.728C253.498 136.456 254.426 137.64 256.09 137.64C257.338 137.64 258.746 137.128 259.77 136.488L260.698 140.104C259.354 140.808 257.082 141.544 255.386 141.544C251.418 141.544 249.274 138.92 249.274 134.888V128.68H246.234ZM273.436 128.424C270.78 128.424 268.124 129.896 268.124 133.064V141H263.9V117.288H268.124V128.552C269.244 126.472 271.612 124.52 274.652 124.52C279.004 124.52 281.5 127.4 281.5 131.752V141H277.276V132.264C277.276 129.992 275.964 128.424 273.436 128.424ZM52.64 164.52C55.648 164.52 57.6 166.024 58.496 168.424C59.776 166.504 62.336 164.52 65.024 164.52C69.184 164.52 71.392 167.368 71.392 171.592V181H67.168V172.104C67.168 169.992 65.92 168.424 63.584 168.424C61.376 168.424 59.008 169.992 59.008 173.032V181H54.784V172.104C54.784 169.992 53.536 168.424 51.2 168.424C48.992 168.424 46.624 169.96 46.624 173.032V181H42.4V165H46.624V168.392C47.68 166.504 49.856 164.52 52.64 164.52ZM93.465 165L85.753 182.312C84.217 185.736 82.745 189 78.233 189C78.009 189 77.305 188.936 76.761 188.84L76.985 184.776C77.561 184.872 78.201 184.936 78.425 184.936C80.121 184.936 81.017 183.176 81.817 181.384C81.817 181.32 81.881 181.256 81.881 181.224L73.625 165H78.233L83.961 176.424C85.625 172.552 87.385 168.424 88.825 165H93.465ZM112.323 160.424C110.787 160.424 109.827 161.224 109.827 162.952V165H117.091V168.68H109.987V181H105.827V168.68H103.171V165H105.795V162.76C105.795 159.08 108.515 156.68 112.451 156.68C114.275 156.68 116.195 157.128 117.699 157.64L116.675 161.512C115.203 160.872 113.699 160.424 112.323 160.424ZM129.888 164.456C130.784 164.456 131.776 164.712 132.576 165.096L131.68 168.936C130.912 168.584 130.08 168.392 129.472 168.392C126.816 168.392 123.968 170.12 123.968 173.064V181H119.744V165H123.968V168.552C124.896 166.824 127.104 164.456 129.888 164.456ZM138.968 165V181H134.808V165H138.968ZM134.36 160.392C134.36 159.016 135.48 157.896 136.888 157.896C138.296 157.896 139.416 159.016 139.416 160.392C139.416 161.8 138.296 162.92 136.888 162.92C135.48 162.92 134.36 161.8 134.36 160.392ZM153.086 177.768C155.262 177.768 157.246 177.352 159.517 176.168L160.766 179.496C158.622 180.584 155.614 181.576 152.67 181.576C146.718 181.576 142.782 177.8 142.782 173C142.782 167.656 147.326 164.456 152.67 164.456C157.534 164.456 161.182 167.624 161.182 171.944C161.182 172.648 161.086 173.384 160.894 174.12H147.134C147.742 176.456 150.078 177.768 153.086 177.768ZM152.414 168.008C149.661 168.008 147.87 169.064 147.23 171.016H156.926C156.51 169.128 154.91 168.008 152.414 168.008ZM174.28 168.424C171.624 168.424 168.968 169.896 168.968 173.064V181H164.744V165H168.968V168.552C170.088 166.472 172.456 164.52 175.496 164.52C179.848 164.52 182.344 167.4 182.344 171.752V181H178.12V172.264C178.12 169.992 176.808 168.424 174.28 168.424ZM194.002 181.544C189.618 181.544 185.938 178.344 185.938 173.16C185.938 168.36 189.97 164.424 195.346 164.424C197.074 164.424 199.282 165.064 200.882 165.576V157H205.106V181H200.882V177.448C199.826 179.656 197.266 181.544 194.002 181.544ZM195.25 177.608C198.066 177.608 200.882 175.624 200.882 172.552V169.096C199.026 168.552 197.234 168.136 195.282 168.136C192.402 168.136 190.194 170.312 190.194 173.128C190.194 176.008 192.402 177.608 195.25 177.608ZM209.132 166.344L208.78 158.6H212.908L212.556 166.344H209.132ZM230.732 165.576L229.612 169.288C227.532 168.488 225.548 168.072 223.5 168.072C221.388 168.072 219.724 168.392 219.724 169.352C219.724 172.008 231.628 169.8 231.628 176.04C231.628 179.624 227.308 181.64 223.404 181.64C220.396 181.64 217.42 180.712 215.243 179.56L216.492 176.232C218.604 177.16 221.1 177.928 223.564 177.928C225.868 177.928 227.468 177.288 227.468 176.168C227.468 173.64 215.564 175.752 215.564 169.512C215.564 166.376 218.796 164.392 223.34 164.392C225.868 164.392 228.844 164.936 230.732 165.576ZM253.617 177.768C255.793 177.768 257.777 177.352 260.049 176.168L261.297 179.496C259.153 180.584 256.145 181.576 253.201 181.576C247.249 181.576 243.313 177.8 243.313 173C243.313 167.656 247.857 164.456 253.201 164.456C258.065 164.456 261.713 167.624 261.713 171.944C261.713 172.648 261.617 173.384 261.425 174.12H247.665C248.273 176.456 250.609 177.768 253.617 177.768ZM252.945 168.008C250.193 168.008 248.401 169.064 247.761 171.016H257.457C257.041 169.128 255.441 168.008 252.945 168.008ZM262.971 181L270.171 173L262.875 165H268.411L273.019 170.088L277.467 165H282.843L275.643 172.968L282.971 181H277.499L272.827 175.88L268.347 181H262.971Z" fill="#E6D0FE"></path><path d="M45.706 258H44.194L40.54 245.4H41.872L44.986 256.29L48.262 245.4H49.738L53.014 256.29L56.128 245.4H57.46L53.806 258H52.294L49 247.056L45.706 258ZM65.9277 250.764V249H67.1157V258H65.9277V256.236C65.0997 257.556 63.8877 258.216 62.2917 258.216C61.0077 258.216 59.9097 257.76 58.9977 256.848C58.0977 255.936 57.6477 254.82 57.6477 253.5C57.6477 252.18 58.0977 251.064 58.9977 250.152C59.9097 249.24 61.0077 248.784 62.2917 248.784C63.8877 248.784 65.0997 249.444 65.9277 250.764ZM59.8617 256.038C60.5457 256.722 61.3857 257.064 62.3817 257.064C63.3777 257.064 64.2177 256.722 64.9017 256.038C65.5857 255.33 65.9277 254.484 65.9277 253.5C65.9277 252.504 65.5857 251.664 64.9017 250.98C64.2177 250.284 63.3777 249.936 62.3817 249.936C61.3857 249.936 60.5457 250.284 59.8617 250.98C59.1777 251.664 58.8357 252.504 58.8357 253.5C58.8357 254.484 59.1777 255.33 59.8617 256.038ZM70.5671 251.358C70.5671 252.054 71.1851 252.564 72.4211 252.888C72.7691 252.972 72.9971 253.032 73.1051 253.068C73.2131 253.092 73.4231 253.158 73.7351 253.266C74.0591 253.362 74.2811 253.446 74.4011 253.518C74.5331 253.59 74.7131 253.704 74.9411 253.86C75.1691 254.004 75.3311 254.154 75.4271 254.31C75.5231 254.454 75.6131 254.646 75.6971 254.886C75.7811 255.114 75.8231 255.36 75.8231 255.624C75.8231 256.392 75.5171 257.016 74.9051 257.496C74.3171 257.976 73.5371 258.216 72.5651 258.216C71.7251 258.216 70.9991 258.03 70.3871 257.658C69.7751 257.274 69.3431 256.77 69.0911 256.146L70.0991 255.552C70.2671 256.02 70.5671 256.392 70.9991 256.668C71.4431 256.932 71.9651 257.064 72.5651 257.064C73.1771 257.064 73.6751 256.944 74.0591 256.704C74.4431 256.464 74.6351 256.104 74.6351 255.624C74.6351 254.928 74.0171 254.418 72.7811 254.094C72.4331 254.01 72.2051 253.956 72.0971 253.932C71.9891 253.896 71.7731 253.83 71.4491 253.734C71.1371 253.626 70.9151 253.536 70.7831 253.464C70.6631 253.392 70.4891 253.284 70.2611 253.14C70.0331 252.984 69.8711 252.834 69.7751 252.69C69.6791 252.534 69.5891 252.342 69.5051 252.114C69.4211 251.874 69.3791 251.622 69.3791 251.358C69.3791 250.626 69.6671 250.014 70.2431 249.522C70.8431 249.03 71.5811 248.784 72.4571 248.784C73.1771 248.784 73.8131 248.946 74.3651 249.27C74.9291 249.594 75.3431 250.044 75.6071 250.62L74.6171 251.196C74.2811 250.356 73.5611 249.936 72.4571 249.936C71.9171 249.936 71.4671 250.062 71.1071 250.314C70.7471 250.566 70.5671 250.914 70.5671 251.358ZM83.7629 246.228C83.7629 246.468 83.6789 246.672 83.5109 246.84C83.3429 247.008 83.1389 247.092 82.8989 247.092C82.6589 247.092 82.4549 247.008 82.2869 246.84C82.1189 246.672 82.0349 246.468 82.0349 246.228C82.0349 245.988 82.1189 245.784 82.2869 245.616C82.4549 245.448 82.6589 245.364 82.8989 245.364C83.1389 245.364 83.3429 245.448 83.5109 245.616C83.6789 245.784 83.7629 245.988 83.7629 246.228ZM83.4929 258H82.3049V249H83.4929V258ZM90.7839 249V250.152H88.1919V255.606C88.1919 256.098 88.2879 256.452 88.4799 256.668C88.6719 256.872 88.9599 256.98 89.3439 256.992C89.7279 256.992 90.2079 256.98 90.7839 256.956V258C89.4999 258.192 88.5459 258.102 87.9219 257.73C87.3099 257.346 87.0039 256.638 87.0039 255.606V250.152H85.1139V249H87.0039V246.84L88.1919 246.48V249H90.7839ZM105.004 250.764V249H106.192V258H105.004V256.236C104.176 257.556 102.964 258.216 101.368 258.216C100.084 258.216 98.9859 257.76 98.0739 256.848C97.1739 255.936 96.7239 254.82 96.7239 253.5C96.7239 252.18 97.1739 251.064 98.0739 250.152C98.9859 249.24 100.084 248.784 101.368 248.784C102.964 248.784 104.176 249.444 105.004 250.764ZM98.9379 256.038C99.6219 256.722 100.462 257.064 101.458 257.064C102.454 257.064 103.294 256.722 103.978 256.038C104.662 255.33 105.004 254.484 105.004 253.5C105.004 252.504 104.662 251.664 103.978 250.98C103.294 250.284 102.454 249.936 101.458 249.936C100.462 249.936 99.6219 250.284 98.9379 250.98C98.2539 251.664 97.9119 252.504 97.9119 253.5C97.9119 254.484 98.2539 255.33 98.9379 256.038ZM120.947 250.764V245.4H122.135V258H120.947V256.236C120.119 257.556 118.907 258.216 117.311 258.216C116.027 258.216 114.929 257.76 114.017 256.848C113.117 255.936 112.667 254.82 112.667 253.5C112.667 252.18 113.117 251.064 114.017 250.152C114.929 249.24 116.027 248.784 117.311 248.784C118.907 248.784 120.119 249.444 120.947 250.764ZM114.881 256.038C115.565 256.722 116.405 257.064 117.401 257.064C118.397 257.064 119.237 256.722 119.921 256.038C120.605 255.33 120.947 254.484 120.947 253.5C120.947 252.504 120.605 251.664 119.921 250.98C119.237 250.284 118.397 249.936 117.401 249.936C116.405 249.936 115.565 250.284 114.881 250.98C114.197 251.664 113.855 252.504 113.855 253.5C113.855 254.484 114.197 255.33 114.881 256.038ZM132.391 250.764V249H133.579V258H132.391V256.236C131.563 257.556 130.351 258.216 128.755 258.216C127.471 258.216 126.373 257.76 125.461 256.848C124.561 255.936 124.111 254.82 124.111 253.5C124.111 252.18 124.561 251.064 125.461 250.152C126.373 249.24 127.471 248.784 128.755 248.784C130.351 248.784 131.563 249.444 132.391 250.764ZM126.325 256.038C127.009 256.722 127.849 257.064 128.845 257.064C129.841 257.064 130.681 256.722 131.365 256.038C132.049 255.33 132.391 254.484 132.391 253.5C132.391 252.504 132.049 251.664 131.365 250.98C130.681 250.284 129.841 249.936 128.845 249.936C127.849 249.936 127.009 250.284 126.325 250.98C125.641 251.664 125.299 252.504 125.299 253.5C125.299 254.484 125.641 255.33 126.325 256.038ZM140.864 249V250.152H138.272V255.606C138.272 256.098 138.368 256.452 138.56 256.668C138.752 256.872 139.04 256.98 139.424 256.992C139.808 256.992 140.288 256.98 140.864 256.956V258C139.58 258.192 138.626 258.102 138.002 257.73C137.39 257.346 137.084 256.638 137.084 255.606V250.152H135.194V249H137.084V246.84L138.272 246.48V249H140.864ZM146.457 248.784C147.801 248.784 148.875 249.258 149.679 250.206C150.507 251.142 150.921 252.252 150.921 253.536C150.921 253.596 150.909 253.782 150.885 254.094H142.983C143.103 254.994 143.487 255.714 144.135 256.254C144.783 256.794 145.593 257.064 146.565 257.064C147.933 257.064 148.899 256.554 149.463 255.534L150.507 256.146C150.111 256.794 149.565 257.304 148.869 257.676C148.185 258.036 147.411 258.216 146.547 258.216C145.131 258.216 143.979 257.772 143.091 256.884C142.203 255.996 141.759 254.868 141.759 253.5C141.759 252.144 142.197 251.022 143.073 250.134C143.949 249.234 145.077 248.784 146.457 248.784ZM146.457 249.936C145.521 249.936 144.735 250.212 144.099 250.764C143.475 251.316 143.103 252.042 142.983 252.942H149.697C149.565 251.982 149.199 251.244 148.599 250.728C147.975 250.2 147.261 249.936 146.457 249.936ZM155.694 254.58H154.434C154.434 253.5 154.842 252.552 155.658 251.736C155.754 251.64 155.946 251.454 156.234 251.178C156.534 250.902 156.75 250.692 156.882 250.548C157.014 250.404 157.176 250.212 157.368 249.972C157.56 249.72 157.692 249.48 157.764 249.252C157.848 249.012 157.89 248.766 157.89 248.514C157.89 247.842 157.656 247.326 157.188 246.966C156.732 246.594 156.12 246.408 155.352 246.408C153.876 246.408 152.964 247.014 152.616 248.226L151.554 247.632C151.83 246.852 152.304 246.252 152.976 245.832C153.66 245.4 154.452 245.184 155.352 245.184C156.408 245.184 157.302 245.478 158.034 246.066C158.778 246.642 159.15 247.458 159.15 248.514C159.15 249.438 158.742 250.308 157.926 251.124C157.878 251.16 157.734 251.292 157.494 251.52C157.266 251.736 157.116 251.886 157.044 251.97C156.972 252.042 156.84 252.18 156.648 252.384C156.456 252.588 156.324 252.756 156.252 252.888C156.18 253.02 156.09 253.188 155.982 253.392C155.874 253.584 155.796 253.782 155.748 253.986C155.712 254.178 155.694 254.376 155.694 254.58ZM156.054 257.19C156.054 257.466 155.958 257.7 155.766 257.892C155.574 258.084 155.34 258.18 155.064 258.18C154.788 258.18 154.554 258.084 154.362 257.892C154.17 257.7 154.074 257.466 154.074 257.19C154.074 256.914 154.17 256.68 154.362 256.488C154.554 256.296 154.788 256.2 155.064 256.2C155.34 256.2 155.574 256.296 155.766 256.488C155.958 256.68 156.054 256.914 156.054 257.19Z" fill="#E6D0FE"></path><path d="M41.44 282.4H46.3C48.016 282.4 49.432 283.012 50.548 284.236C51.676 285.436 52.24 286.924 52.24 288.7C52.24 290.476 51.676 291.97 50.548 293.182C49.432 294.394 48.016 295 46.3 295H41.44V282.4ZM42.7 293.812H46.3C47.68 293.812 48.808 293.32 49.684 292.336C50.572 291.34 51.016 290.128 51.016 288.7C51.016 287.272 50.572 286.06 49.684 285.064C48.808 284.08 47.68 283.588 46.3 283.588H42.7V293.812ZM55.6731 283.228C55.6731 283.468 55.5891 283.672 55.4211 283.84C55.2531 284.008 55.0491 284.092 54.8091 284.092C54.5691 284.092 54.3651 284.008 54.1971 283.84C54.0291 283.672 53.9451 283.468 53.9451 283.228C53.9451 282.988 54.0291 282.784 54.1971 282.616C54.3651 282.448 54.5691 282.364 54.8091 282.364C55.0491 282.364 55.2531 282.448 55.4211 282.616C55.5891 282.784 55.6731 282.988 55.6731 283.228ZM55.4031 295H54.2151V286H55.4031V295ZM65.6641 287.764V282.4H66.8521V295H65.6641V293.236C64.8361 294.556 63.6241 295.216 62.0281 295.216C60.7441 295.216 59.6461 294.76 58.7341 293.848C57.8341 292.936 57.3841 291.82 57.3841 290.5C57.3841 289.18 57.8341 288.064 58.7341 287.152C59.6461 286.24 60.7441 285.784 62.0281 285.784C63.6241 285.784 64.8361 286.444 65.6641 287.764ZM59.5981 293.038C60.2821 293.722 61.1221 294.064 62.1181 294.064C63.1141 294.064 63.9541 293.722 64.6381 293.038C65.3221 292.33 65.6641 291.484 65.6641 290.5C65.6641 289.504 65.3221 288.664 64.6381 287.98C63.9541 287.284 63.1141 286.936 62.1181 286.936C61.1221 286.936 60.2821 287.284 59.5981 287.98C58.9141 288.664 58.5721 289.504 58.5721 290.5C58.5721 291.484 58.9141 292.33 59.5981 293.038ZM77.4314 293.542L80.3474 286H81.6074L77.7554 295.828C77.3954 296.74 76.8914 297.442 76.2434 297.934C75.6074 298.438 74.8994 298.66 74.1194 298.6V297.484C75.1994 297.616 76.0214 296.992 76.5854 295.612L76.8194 295.054L72.7874 286H74.0474L77.4314 293.542ZM90.2336 293.866C89.3096 294.766 88.1936 295.216 86.8856 295.216C85.5536 295.216 84.4316 294.766 83.5196 293.866C82.6076 292.954 82.1516 291.832 82.1516 290.5C82.1516 289.168 82.6076 288.052 83.5196 287.152C84.4316 286.24 85.5536 285.784 86.8856 285.784C88.2056 285.784 89.3216 286.24 90.2336 287.152C91.1576 288.052 91.6196 289.168 91.6196 290.5C91.6196 291.82 91.1576 292.942 90.2336 293.866ZM84.3656 293.038C85.0496 293.722 85.8896 294.064 86.8856 294.064C87.8816 294.064 88.7216 293.722 89.4056 293.038C90.0896 292.33 90.4316 291.484 90.4316 290.5C90.4316 289.504 90.0896 288.664 89.4056 287.98C88.7216 287.284 87.8816 286.936 86.8856 286.936C85.8896 286.936 85.0496 287.284 84.3656 287.98C83.6816 288.664 83.3396 289.504 83.3396 290.5C83.3396 291.484 83.6816 292.33 84.3656 293.038ZM99.9437 290.716V286H101.132V295H99.9437V293.596C99.2717 294.676 98.2637 295.216 96.9197 295.216C95.8397 295.216 94.9817 294.886 94.3457 294.226C93.7097 293.554 93.3917 292.654 93.3917 291.526V286H94.5797V291.526C94.5797 292.33 94.7897 292.954 95.2097 293.398C95.6417 293.842 96.2477 294.064 97.0277 294.064C97.9277 294.064 98.6357 293.782 99.1517 293.218C99.6797 292.654 99.9437 291.82 99.9437 290.716ZM104.833 286V287.494C105.385 286.402 106.333 285.856 107.677 285.856V287.008C106.813 287.008 106.123 287.26 105.607 287.764C105.091 288.256 104.833 289 104.833 289.996V295H103.645V286H104.833ZM118.305 282.184V283.336C117.429 283.264 116.775 283.414 116.343 283.786C115.923 284.158 115.713 284.776 115.713 285.64V286H118.305V287.152H115.713V295H114.525V287.152H112.995V286H114.525V285.64C114.525 284.452 114.849 283.558 115.497 282.958C116.157 282.358 117.093 282.1 118.305 282.184ZM120.759 286V287.494C121.311 286.402 122.259 285.856 123.603 285.856V287.008C122.739 287.008 122.049 287.26 121.533 287.764C121.017 288.256 120.759 289 120.759 289.996V295H119.571V286H120.759ZM126.689 283.228C126.689 283.468 126.605 283.672 126.437 283.84C126.269 284.008 126.065 284.092 125.825 284.092C125.585 284.092 125.381 284.008 125.213 283.84C125.045 283.672 124.961 283.468 124.961 283.228C124.961 282.988 125.045 282.784 125.213 282.616C125.381 282.448 125.585 282.364 125.825 282.364C126.065 282.364 126.269 282.448 126.437 282.616C126.605 282.784 126.689 282.988 126.689 283.228ZM126.419 295H125.231V286H126.419V295ZM133.098 285.784C134.442 285.784 135.516 286.258 136.32 287.206C137.148 288.142 137.562 289.252 137.562 290.536C137.562 290.596 137.55 290.782 137.526 291.094H129.624C129.744 291.994 130.128 292.714 130.776 293.254C131.424 293.794 132.234 294.064 133.206 294.064C134.574 294.064 135.54 293.554 136.104 292.534L137.148 293.146C136.752 293.794 136.206 294.304 135.51 294.676C134.826 295.036 134.052 295.216 133.188 295.216C131.772 295.216 130.62 294.772 129.732 293.884C128.844 292.996 128.4 291.868 128.4 290.5C128.4 289.144 128.838 288.022 129.714 287.134C130.59 286.234 131.718 285.784 133.098 285.784ZM133.098 286.936C132.162 286.936 131.376 287.212 130.74 287.764C130.116 288.316 129.744 289.042 129.624 289.942H136.338C136.206 288.982 135.84 288.244 135.24 287.728C134.616 287.2 133.902 286.936 133.098 286.936ZM143.663 285.784C144.743 285.784 145.601 286.12 146.237 286.792C146.873 287.452 147.191 288.346 147.191 289.474V295H146.003V289.474C146.003 288.67 145.787 288.046 145.355 287.602C144.935 287.158 144.335 286.936 143.555 286.936C142.655 286.936 141.941 287.218 141.413 287.782C140.897 288.346 140.639 289.18 140.639 290.284V295H139.451V286H140.639V287.404C141.311 286.324 142.319 285.784 143.663 285.784ZM157.229 287.764V282.4H158.417V295H157.229V293.236C156.401 294.556 155.189 295.216 153.593 295.216C152.309 295.216 151.211 294.76 150.299 293.848C149.399 292.936 148.949 291.82 148.949 290.5C148.949 289.18 149.399 288.064 150.299 287.152C151.211 286.24 152.309 285.784 153.593 285.784C155.189 285.784 156.401 286.444 157.229 287.764ZM151.163 293.038C151.847 293.722 152.687 294.064 153.683 294.064C154.679 294.064 155.519 293.722 156.203 293.038C156.887 292.33 157.229 291.484 157.229 290.5C157.229 289.504 156.887 288.664 156.203 287.98C155.519 287.284 154.679 286.936 153.683 286.936C152.687 286.936 151.847 287.284 151.163 287.98C150.479 288.664 150.137 289.504 150.137 290.5C150.137 291.484 150.479 292.33 151.163 293.038ZM167.88 290.32L172.704 295H171.12L166.62 290.662V295H165.432V282.4H166.62V289.978L170.904 286H172.524L167.88 290.32ZM178.538 285.784C179.618 285.784 180.476 286.12 181.112 286.792C181.748 287.452 182.066 288.346 182.066 289.474V295H180.878V289.474C180.878 288.67 180.662 288.046 180.23 287.602C179.81 287.158 179.21 286.936 178.43 286.936C177.53 286.936 176.816 287.218 176.288 287.782C175.772 288.346 175.514 289.18 175.514 290.284V295H174.326V286H175.514V287.404C176.186 286.324 177.194 285.784 178.538 285.784ZM191.906 293.866C190.982 294.766 189.866 295.216 188.558 295.216C187.226 295.216 186.104 294.766 185.192 293.866C184.28 292.954 183.824 291.832 183.824 290.5C183.824 289.168 184.28 288.052 185.192 287.152C186.104 286.24 187.226 285.784 188.558 285.784C189.878 285.784 190.994 286.24 191.906 287.152C192.83 288.052 193.292 289.168 193.292 290.5C193.292 291.82 192.83 292.942 191.906 293.866ZM186.038 293.038C186.722 293.722 187.562 294.064 188.558 294.064C189.554 294.064 190.394 293.722 191.078 293.038C191.762 292.33 192.104 291.484 192.104 290.5C192.104 289.504 191.762 288.664 191.078 287.98C190.394 287.284 189.554 286.936 188.558 286.936C187.562 286.936 186.722 287.284 186.038 287.98C185.354 288.664 185.012 289.504 185.012 290.5C185.012 291.484 185.354 292.33 186.038 293.038ZM203.55 293.47L205.764 286H206.988L204.216 295H202.92L200.598 287.746L198.276 295H196.98L194.208 286H195.432L197.646 293.47L200.004 286H201.192L203.55 293.47ZM221.02 287.764V286H222.208V295H221.02V293.236C220.192 294.556 218.98 295.216 217.384 295.216C216.1 295.216 215.002 294.76 214.09 293.848C213.19 292.936 212.74 291.82 212.74 290.5C212.74 289.18 213.19 288.064 214.09 287.152C215.002 286.24 216.1 285.784 217.384 285.784C218.98 285.784 220.192 286.444 221.02 287.764ZM214.954 293.038C215.638 293.722 216.478 294.064 217.474 294.064C218.47 294.064 219.31 293.722 219.994 293.038C220.678 292.33 221.02 291.484 221.02 290.5C221.02 289.504 220.678 288.664 219.994 287.98C219.31 287.284 218.47 286.936 217.474 286.936C216.478 286.936 215.638 287.284 214.954 287.98C214.27 288.664 213.928 289.504 213.928 290.5C213.928 291.484 214.27 292.33 214.954 293.038ZM229.547 285.784C230.831 285.784 231.923 286.24 232.823 287.152C233.735 288.064 234.191 289.18 234.191 290.5C234.191 291.82 233.735 292.936 232.823 293.848C231.923 294.76 230.831 295.216 229.547 295.216C227.951 295.216 226.739 294.556 225.911 293.236V295H224.723V282.4H225.911V287.764C226.739 286.444 227.951 285.784 229.547 285.784ZM226.937 293.038C227.621 293.722 228.461 294.064 229.457 294.064C230.453 294.064 231.293 293.722 231.977 293.038C232.661 292.33 233.003 291.484 233.003 290.5C233.003 289.504 232.661 288.664 231.977 287.98C231.293 287.284 230.453 286.936 229.457 286.936C228.461 286.936 227.621 287.284 226.937 287.98C226.253 288.664 225.911 289.504 225.911 290.5C225.911 291.484 226.253 292.33 226.937 293.038ZM243.708 293.866C242.784 294.766 241.668 295.216 240.36 295.216C239.028 295.216 237.906 294.766 236.994 293.866C236.082 292.954 235.626 291.832 235.626 290.5C235.626 289.168 236.082 288.052 236.994 287.152C237.906 286.24 239.028 285.784 240.36 285.784C241.68 285.784 242.796 286.24 243.708 287.152C244.632 288.052 245.094 289.168 245.094 290.5C245.094 291.82 244.632 292.942 243.708 293.866ZM237.84 293.038C238.524 293.722 239.364 294.064 240.36 294.064C241.356 294.064 242.196 293.722 242.88 293.038C243.564 292.33 243.906 291.484 243.906 290.5C243.906 289.504 243.564 288.664 242.88 287.98C242.196 287.284 241.356 286.936 240.36 286.936C239.364 286.936 238.524 287.284 237.84 287.98C237.156 288.664 236.814 289.504 236.814 290.5C236.814 291.484 237.156 292.33 237.84 293.038ZM253.418 290.716V286H254.606V295H253.418V293.596C252.746 294.676 251.738 295.216 250.394 295.216C249.314 295.216 248.456 294.886 247.82 294.226C247.184 293.554 246.866 292.654 246.866 291.526V286H248.054V291.526C248.054 292.33 248.264 292.954 248.684 293.398C249.116 293.842 249.722 294.064 250.502 294.064C251.402 294.064 252.11 293.782 252.626 293.218C253.154 292.654 253.418 291.82 253.418 290.716ZM261.889 286V287.152H259.297V292.606C259.297 293.098 259.393 293.452 259.585 293.668C259.777 293.872 260.065 293.98 260.449 293.992C260.833 293.992 261.313 293.98 261.889 293.956V295C260.605 295.192 259.651 295.102 259.027 294.73C258.415 294.346 258.109 293.638 258.109 292.606V287.152H256.219V286H258.109V283.84L259.297 283.48V286H261.889ZM269.827 283.228C269.827 283.468 269.743 283.672 269.575 283.84C269.407 284.008 269.203 284.092 268.963 284.092C268.723 284.092 268.519 284.008 268.351 283.84C268.183 283.672 268.099 283.468 268.099 283.228C268.099 282.988 268.183 282.784 268.351 282.616C268.519 282.448 268.723 282.364 268.963 282.364C269.203 282.364 269.407 282.448 269.575 282.616C269.743 282.784 269.827 282.988 269.827 283.228ZM269.557 295H268.369V286H269.557V295ZM276.848 286V287.152H274.256V292.606C274.256 293.098 274.352 293.452 274.544 293.668C274.736 293.872 275.024 293.98 275.408 293.992C275.792 293.992 276.272 293.98 276.848 293.956V295C275.564 295.192 274.61 295.102 273.986 294.73C273.374 294.346 273.068 293.638 273.068 292.606V287.152H271.178V286H273.068V283.84L274.256 283.48V286H276.848ZM282.608 291.58H281.348C281.348 290.5 281.756 289.552 282.572 288.736C282.668 288.64 282.86 288.454 283.148 288.178C283.448 287.902 283.664 287.692 283.796 287.548C283.928 287.404 284.09 287.212 284.282 286.972C284.474 286.72 284.606 286.48 284.678 286.252C284.762 286.012 284.804 285.766 284.804 285.514C284.804 284.842 284.57 284.326 284.102 283.966C283.646 283.594 283.034 283.408 282.266 283.408C280.79 283.408 279.878 284.014 279.53 285.226L278.468 284.632C278.744 283.852 279.218 283.252 279.89 282.832C280.574 282.4 281.366 282.184 282.266 282.184C283.322 282.184 284.216 282.478 284.948 283.066C285.692 283.642 286.064 284.458 286.064 285.514C286.064 286.438 285.656 287.308 284.84 288.124C284.792 288.16 284.648 288.292 284.408 288.52C284.18 288.736 284.03 288.886 283.958 288.97C283.886 289.042 283.754 289.18 283.562 289.384C283.37 289.588 283.238 289.756 283.166 289.888C283.094 290.02 283.004 290.188 282.896 290.392C282.788 290.584 282.71 290.782 282.662 290.986C282.626 291.178 282.608 291.376 282.608 291.58ZM282.968 294.19C282.968 294.466 282.872 294.7 282.68 294.892C282.488 295.084 282.254 295.18 281.978 295.18C281.702 295.18 281.468 295.084 281.276 294.892C281.084 294.7 280.988 294.466 280.988 294.19C280.988 293.914 281.084 293.68 281.276 293.488C281.468 293.296 281.702 293.2 281.978 293.2C282.254 293.2 282.488 293.296 282.68 293.488C282.872 293.68 282.968 293.914 282.968 294.19Z" fill="#E6D0FE"></path></svg> 