<?xml version="1.0" encoding="UTF-8"?> <svg xmlns="http://www.w3.org/2000/svg" width="400" height="600" viewBox="0 0 400 600" fill="none"> <rect width="400" height="600" rx="20" fill="#E7497E"></rect> <path d="M47.296 84.136L60.8 101H65.952V78.6H61.536V95.464L48.032 78.6H42.88V101H47.296V84.136ZM80.4918 97.768C77.4838 97.768 75.1478 96.456 74.5398 94.12H88.2998C88.4918 93.384 88.5878 92.648 88.5878 91.944C88.5878 87.624 84.9398 84.456 80.0758 84.456C74.7318 84.456 70.1878 87.656 70.1878 93C70.1878 97.8 74.1238 101.576 80.0758 101.576C83.0198 101.576 86.0278 100.584 88.1718 99.496L86.9237 96.168C84.6518 97.352 82.6678 97.768 80.4918 97.768ZM79.8198 88.008C82.3158 88.008 83.9158 89.128 84.3318 91.016H74.6358C75.2758 89.064 77.0677 88.008 79.8198 88.008ZM94.39 85H89.75L97.302 101H101.942L109.526 85H104.822L99.638 96.232L94.39 85ZM121.179 97.768C118.171 97.768 115.835 96.456 115.227 94.12H128.987C129.179 93.384 129.275 92.648 129.275 91.944C129.275 87.624 125.627 84.456 120.763 84.456C115.419 84.456 110.875 87.656 110.875 93C110.875 97.8 114.811 101.576 120.763 101.576C123.707 101.576 126.715 100.584 128.859 99.496L127.611 96.168C125.339 97.352 123.355 97.768 121.179 97.768ZM120.507 88.008C123.003 88.008 124.603 89.128 125.019 91.016H115.323C115.963 89.064 117.755 88.008 120.507 88.008ZM142.982 84.456C140.198 84.456 137.99 86.824 137.062 88.552V85H132.838V101H137.062V93.064C137.062 90.12 139.91 88.392 142.566 88.392C143.174 88.392 144.006 88.584 144.774 88.936L145.67 85.096C144.87 84.712 143.878 84.456 142.982 84.456ZM166.436 88.424C168.964 88.424 170.276 89.992 170.276 92.264V101H174.5V91.752C174.5 87.4 172.004 84.52 167.652 84.52C164.612 84.52 162.244 86.472 161.124 88.552V77.288H156.9V101H161.124V93.064C161.124 89.896 163.78 88.424 166.436 88.424ZM184.75 91.88C181.454 91.88 178.19 93.352 178.19 96.776C178.19 99.656 180.43 101.64 183.438 101.64C186.158 101.64 188.59 100.168 190.126 98.344C190.19 100.136 191.086 101.64 193.23 101.64C194.542 101.64 196.462 101 198.222 100.04L197.358 96.776C196.43 97.256 195.598 97.608 195.118 97.608C194.67 97.608 194.35 97.32 194.35 96.84V91.08C194.35 86.696 191.79 84.36 187.406 84.36C184.878 84.36 181.518 85.352 179.534 85.992L180.59 89.832C182.926 88.968 185.358 88.232 187.022 88.232C189.038 88.232 190.126 89.352 190.126 91.016V92.872C188.75 92.392 186.478 91.88 184.75 91.88ZM184.814 98.024C183.47 98.024 182.51 97.48 182.51 96.424C182.51 95.272 183.566 94.6 184.974 94.6C186.51 94.6 188.366 94.76 190.126 95.08V95.688C188.622 97.16 186.414 98.024 184.814 98.024ZM202.859 85H198.219L205.771 101H210.411L217.995 85H213.291L208.107 96.232L202.859 85ZM229.648 97.768C226.64 97.768 224.304 96.456 223.696 94.12H237.456C237.648 93.384 237.744 92.648 237.744 91.944C237.744 87.624 234.096 84.456 229.232 84.456C223.888 84.456 219.344 87.656 219.344 93C219.344 97.8 223.28 101.576 229.232 101.576C232.176 101.576 235.184 100.584 237.328 99.496L236.08 96.168C233.808 97.352 231.824 97.768 229.648 97.768ZM228.976 88.008C231.472 88.008 233.072 89.128 233.488 91.016H223.792C224.432 89.064 226.224 88.008 228.976 88.008ZM255.265 78.6H250.849V101H255.265V78.6ZM278.867 97.768C275.859 97.768 273.523 96.456 272.915 94.12H286.675C286.867 93.384 286.963 92.648 286.963 91.944C286.963 87.624 283.315 84.456 278.451 84.456C273.107 84.456 268.563 87.656 268.563 93C268.563 97.8 272.499 101.576 278.451 101.576C281.395 101.576 284.403 100.584 286.547 99.496L285.299 96.168C283.027 97.352 281.043 97.768 278.867 97.768ZM278.195 88.008C280.691 88.008 282.291 89.128 282.707 91.016H273.011C273.651 89.064 275.443 88.008 278.195 88.008ZM292.765 85H288.125L295.677 101H300.317L307.901 85H303.197L298.013 96.232L292.765 85ZM319.554 97.768C316.546 97.768 314.21 96.456 313.602 94.12H327.362C327.554 93.384 327.65 92.648 327.65 91.944C327.65 87.624 324.002 84.456 319.138 84.456C313.794 84.456 309.25 87.656 309.25 93C309.25 97.8 313.186 101.576 319.138 101.576C322.082 101.576 325.09 100.584 327.234 99.496L325.986 96.168C323.714 97.352 321.73 97.768 319.554 97.768ZM318.882 88.008C321.378 88.008 322.978 89.128 323.394 91.016H313.698C314.338 89.064 316.13 88.008 318.882 88.008ZM341.357 84.456C338.573 84.456 336.365 86.824 335.437 88.552V85H331.213V101H335.437V93.064C335.437 90.12 338.285 88.392 340.941 88.392C341.549 88.392 342.381 88.584 343.149 88.936L344.045 85.096C343.245 84.712 342.253 84.456 341.357 84.456ZM49.408 141.544C52.672 141.544 55.232 139.656 56.288 137.448V141H60.512V117H56.288V125.576C54.688 125.064 52.48 124.424 50.752 124.424C45.376 124.424 41.344 128.36 41.344 133.16C41.344 138.344 45.024 141.544 49.408 141.544ZM50.656 137.608C47.808 137.608 45.6 136.008 45.6 133.128C45.6 130.312 47.808 128.136 50.688 128.136C52.64 128.136 54.432 128.552 56.288 129.096V132.552C56.288 135.624 53.472 137.608 50.656 137.608ZM75.4503 124.456C72.6663 124.456 70.4583 126.824 69.5303 128.552V125H65.3063V141H69.5303V133.064C69.5303 130.12 72.3783 128.392 75.0343 128.392C75.6423 128.392 76.4743 128.584 77.2423 128.936L78.1383 125.096C77.3383 124.712 76.3463 124.456 75.4503 124.456ZM89.2023 124.456C83.8583 124.456 79.2503 127.496 79.2503 132.84C79.2503 137.64 83.4103 141.576 89.2023 141.576C94.9943 141.576 99.1543 137.64 99.1543 132.84C99.1543 127.496 94.5463 124.456 89.2023 124.456ZM89.2023 128.136C92.5303 128.136 94.8983 129.864 94.8983 132.84C94.8983 135.528 92.3703 137.928 89.2023 137.928C86.0343 137.928 83.5063 135.528 83.5063 132.84C83.5063 129.864 85.8743 128.136 89.2023 128.136ZM114.004 124.456C110.74 124.456 108.18 126.344 107.124 128.552V125H102.9V148.68H107.124V140.456C108.692 140.936 110.9 141.576 112.66 141.576C118.036 141.576 122.068 137.64 122.068 132.84C122.068 127.656 118.388 124.456 114.004 124.456ZM112.756 128.392C115.604 128.392 117.812 129.96 117.812 132.84C117.812 135.528 115.476 137.864 112.724 137.864C110.74 137.864 108.948 137.448 107.124 136.904V133.064C107.124 130.12 109.908 128.392 112.756 128.392ZM136.91 124.456C133.646 124.456 131.086 126.344 130.03 128.552V125H125.806V148.68H130.03V140.456C131.598 140.936 133.806 141.576 135.566 141.576C140.942 141.576 144.974 137.64 144.974 132.84C144.974 127.656 141.294 124.456 136.91 124.456ZM135.662 128.392C138.51 128.392 140.718 129.96 140.718 132.84C140.718 135.528 138.382 137.864 135.63 137.864C133.646 137.864 131.854 137.448 130.03 136.904V133.064C130.03 130.12 132.814 128.392 135.662 128.392ZM157.961 137.768C154.953 137.768 152.617 136.456 152.009 134.12H165.769C165.961 133.384 166.057 132.648 166.057 131.944C166.057 127.624 162.409 124.456 157.545 124.456C152.201 124.456 147.657 127.656 147.657 133C147.657 137.8 151.593 141.576 157.545 141.576C160.489 141.576 163.497 140.584 165.641 139.496L164.392 136.168C162.121 137.352 160.137 137.768 157.961 137.768ZM157.289 128.008C159.785 128.008 161.385 129.128 161.801 131.016H152.105C152.745 129.064 154.536 128.008 157.289 128.008ZM176.627 141.544C179.891 141.544 182.451 139.656 183.507 137.448V141H187.731V117H183.507V125.576C181.907 125.064 179.699 124.424 177.971 124.424C172.595 124.424 168.563 128.36 168.563 133.16C168.563 138.344 172.243 141.544 176.627 141.544ZM177.875 137.608C175.027 137.608 172.819 136.008 172.819 133.128C172.819 130.312 175.027 128.136 177.907 128.136C179.859 128.136 181.651 128.552 183.507 129.096V132.552C183.507 135.624 180.691 137.608 177.875 137.608ZM56.544 165.576C54.656 164.936 51.68 164.392 49.152 164.392C44.608 164.392 41.376 166.376 41.376 169.512C41.376 175.752 53.28 173.64 53.28 176.168C53.28 177.288 51.68 177.928 49.376 177.928C46.912 177.928 44.416 177.16 42.304 176.232L41.056 179.56C43.232 180.712 46.208 181.64 49.216 181.64C53.12 181.64 57.44 179.624 57.44 176.04C57.44 169.8 45.536 172.008 45.536 169.352C45.536 168.392 47.2 168.072 49.312 168.072C51.36 168.072 53.344 168.488 55.424 169.288L56.544 165.576ZM70.0148 164.456C64.6708 164.456 60.0628 167.496 60.0628 172.84C60.0628 177.64 64.2228 181.576 70.0148 181.576C75.8068 181.576 79.9668 177.64 79.9668 172.84C79.9668 167.496 75.3588 164.456 70.0148 164.456ZM70.0148 168.136C73.3428 168.136 75.7108 169.864 75.7108 172.84C75.7108 175.528 73.1828 177.928 70.0148 177.928C66.8468 177.928 64.3188 175.528 64.3188 172.84C64.3188 169.864 66.6868 168.136 70.0148 168.136ZM93.9525 164.52C91.1685 164.52 88.9925 166.504 87.9365 168.392V165H83.7125V181H87.9365V173.032C87.9365 169.96 90.3045 168.424 92.5125 168.424C94.8485 168.424 96.0965 169.992 96.0965 172.104V181H100.321V173.032C100.321 169.992 102.689 168.424 104.897 168.424C107.233 168.424 108.481 169.992 108.481 172.104V181H112.705V171.592C112.705 167.368 110.497 164.52 106.337 164.52C103.649 164.52 101.089 166.504 99.8085 168.424C98.9125 166.024 96.9605 164.52 93.9525 164.52ZM126.586 177.768C123.578 177.768 121.242 176.456 120.634 174.12H134.394C134.586 173.384 134.682 172.648 134.682 171.944C134.682 167.624 131.034 164.456 126.17 164.456C120.826 164.456 116.282 167.656 116.282 173C116.282 177.8 120.218 181.576 126.17 181.576C129.114 181.576 132.122 180.584 134.266 179.496L133.017 176.168C130.746 177.352 128.762 177.768 126.586 177.768ZM125.914 168.008C128.41 168.008 130.01 169.128 130.426 171.016H120.73C121.37 169.064 123.161 168.008 125.914 168.008ZM136.484 168.68H139.524V174.888C139.524 178.92 141.668 181.544 145.636 181.544C147.332 181.544 149.604 180.808 150.948 180.104L150.02 176.488C148.996 177.128 147.588 177.64 146.34 177.64C144.676 177.64 143.748 176.456 143.748 174.728V168.68H150.404V165H143.748V160.2H140.228L139.652 165.128L136.484 165.32V168.68ZM163.686 168.424C166.214 168.424 167.526 169.992 167.526 172.264V181H171.75V171.752C171.75 167.4 169.254 164.52 164.902 164.52C161.862 164.52 159.494 166.472 158.374 168.552V157.288H154.15V181H158.374V173.064C158.374 169.896 161.03 168.424 163.686 168.424ZM180.624 165H176.464V181H180.624V165ZM176.016 160.392C176.016 161.8 177.136 162.92 178.544 162.92C179.952 162.92 181.072 161.8 181.072 160.392C181.072 159.016 179.952 157.896 178.544 157.896C177.136 157.896 176.016 159.016 176.016 160.392ZM195.03 168.424C197.558 168.424 198.87 169.992 198.87 172.264V181H203.094V171.752C203.094 167.4 200.598 164.52 196.246 164.52C193.206 164.52 190.838 166.472 189.718 168.552V165H185.494V181H189.718V173.064C189.718 169.896 192.374 168.424 195.03 168.424ZM213.44 178.888C212.384 178.888 211.84 178.504 211.84 177.96C211.84 177.512 212.256 177.192 212.64 177.096C213.376 177.224 214.176 177.288 214.976 177.288C219.808 177.288 223.328 174.536 223.328 170.888C223.328 169.8 223.04 168.84 222.592 168.04C223.36 167.656 224.256 167.432 225.376 167.304L224.608 163.368C222.56 163.72 220.96 164.488 219.744 165.48C218.368 164.808 216.704 164.456 214.976 164.456C210.592 164.456 206.656 166.664 206.656 170.888C206.656 172.616 208.032 174.376 209.504 175.336C208.704 175.848 207.776 176.68 207.776 177.736C207.776 178.76 208.448 179.88 209.312 180.296C207.712 180.712 206.016 182.28 206.016 183.976C206.016 187.336 209.792 189.096 215.616 189.096C221.088 189.096 225.12 187.304 225.12 183.656C225.12 180.328 221.088 178.888 215.616 178.888H213.44ZM214.944 167.944C217.216 167.944 218.944 168.936 218.944 170.76C218.944 172.264 217.376 173.512 214.944 173.512C212.64 173.512 210.912 172.36 210.912 170.76C210.912 168.936 212.64 167.944 214.944 167.944ZM215.552 182.472C218.848 182.472 221.024 182.92 221.024 184.008C221.024 185.192 218.848 185.64 215.552 185.64C212.032 185.64 210.08 185.128 210.08 183.976C210.08 183.336 210.688 182.792 211.392 182.504C211.936 182.472 214.912 182.472 215.552 182.472ZM241.218 165H237.058V181H241.218V165ZM236.61 160.392C236.61 161.8 237.73 162.92 239.138 162.92C240.546 162.92 241.666 161.8 241.666 160.392C241.666 159.016 240.546 157.896 239.138 157.896C237.73 157.896 236.61 159.016 236.61 160.392ZM255.624 168.424C258.152 168.424 259.464 169.992 259.464 172.264V181H263.688V171.752C263.688 167.4 261.192 164.52 256.84 164.52C253.8 164.52 251.432 166.472 250.312 168.552V165H246.088V181H250.312V173.064C250.312 169.896 252.968 168.424 255.624 168.424ZM283 171.88C279.704 171.88 276.44 173.352 276.44 176.776C276.44 179.656 278.68 181.64 281.688 181.64C284.408 181.64 286.84 180.168 288.376 178.344C288.44 180.136 289.336 181.64 291.48 181.64C292.792 181.64 294.712 181 296.472 180.04L295.608 176.776C294.68 177.256 293.848 177.608 293.368 177.608C292.92 177.608 292.6 177.32 292.6 176.84V171.08C292.6 166.696 290.04 164.36 285.656 164.36C283.128 164.36 279.768 165.352 277.784 165.992L278.84 169.832C281.176 168.968 283.608 168.232 285.272 168.232C287.288 168.232 288.376 169.352 288.376 171.016V172.872C287 172.392 284.728 171.88 283 171.88ZM283.064 178.024C281.72 178.024 280.76 177.48 280.76 176.424C280.76 175.272 281.816 174.6 283.224 174.6C284.76 174.6 286.616 174.76 288.376 175.08V175.688C286.872 177.16 284.664 178.024 283.064 178.024ZM40.64 208.68H43.68V214.888C43.68 218.92 45.824 221.544 49.792 221.544C51.488 221.544 53.76 220.808 55.104 220.104L54.176 216.488C53.152 217.128 51.744 217.64 50.496 217.64C48.832 217.64 47.904 216.456 47.904 214.728V208.68H54.56V205H47.904V200.2H44.384L43.808 205.128L40.64 205.32V208.68ZM67.2023 204.456C61.8583 204.456 57.2503 207.496 57.2503 212.84C57.2503 217.64 61.4103 221.576 67.2023 221.576C72.9943 221.576 77.1543 217.64 77.1543 212.84C77.1543 207.496 72.5463 204.456 67.2023 204.456ZM67.2023 208.136C70.5303 208.136 72.8983 209.864 72.8983 212.84C72.8983 215.528 70.3703 217.928 67.2023 217.928C64.0343 217.928 61.5063 215.528 61.5063 212.84C61.5063 209.864 63.8743 208.136 67.2023 208.136ZM85.124 205H80.964V221H85.124V205ZM80.516 200.392C80.516 201.8 81.636 202.92 83.044 202.92C84.452 202.92 85.572 201.8 85.572 200.392C85.572 199.016 84.452 197.896 83.044 197.896C81.636 197.896 80.516 199.016 80.516 200.392ZM94.1858 221V197H89.9938V221H94.1858ZM108.242 217.768C105.234 217.768 102.898 216.456 102.29 214.12H116.05C116.242 213.384 116.338 212.648 116.338 211.944C116.338 207.624 112.69 204.456 107.826 204.456C102.482 204.456 97.9378 207.656 97.9378 213C97.9378 217.8 101.874 221.576 107.826 221.576C110.77 221.576 113.778 220.584 115.922 219.496L114.674 216.168C112.402 217.352 110.418 217.768 108.242 217.768ZM107.57 208.008C110.066 208.008 111.666 209.128 112.082 211.016H102.386C103.026 209.064 104.818 208.008 107.57 208.008ZM118.14 208.68H121.18V214.888C121.18 218.92 123.324 221.544 127.292 221.544C128.988 221.544 131.26 220.808 132.604 220.104L131.676 216.488C130.652 217.128 129.244 217.64 127.996 217.64C126.332 217.64 125.404 216.456 125.404 214.728V208.68H132.06V205H125.404V200.2H121.884L121.308 205.128L118.14 205.32V208.68Z" fill="#FFC2D7"></path> <path d="M44.194 300L40.54 287.4H41.872L44.986 298.29L48.262 287.4H49.738L53.014 298.29L56.128 287.4H57.46L53.806 300H52.294L49 289.056L45.706 300H44.194ZM63.1204 290.784C64.2124 290.784 65.0704 291.12 65.6944 291.792C66.3304 292.452 66.6484 293.346 66.6484 294.474V300H65.4604V294.474C65.4604 293.67 65.2444 293.046 64.8124 292.602C64.3924 292.158 63.7924 291.936 63.0124 291.936C62.1484 291.936 61.4464 292.212 60.9064 292.764C60.3664 293.304 60.0964 294.144 60.0964 295.284V300H58.9084V287.4H60.0964V292.404C60.7684 291.324 61.7764 290.784 63.1204 290.784ZM76.6855 291H77.8735V300H76.6855V298.236C75.8575 299.556 74.6455 300.216 73.0495 300.216C71.7655 300.216 70.6675 299.76 69.7555 298.848C68.8555 297.936 68.4055 296.82 68.4055 295.5C68.4055 294.18 68.8555 293.064 69.7555 292.152C70.6675 291.24 71.7655 290.784 73.0495 290.784C74.6455 290.784 75.8575 291.444 76.6855 292.764V291ZM70.6195 298.038C71.3035 298.722 72.1435 299.064 73.1395 299.064C74.1355 299.064 74.9755 298.722 75.6595 298.038C76.3435 297.342 76.6855 296.496 76.6855 295.5C76.6855 294.504 76.3435 293.664 75.6595 292.98C74.9755 292.284 74.1355 291.936 73.1395 291.936C72.1435 291.936 71.3035 292.284 70.6195 292.98C69.9355 293.664 69.5935 294.504 69.5935 295.5C69.5935 296.496 69.9355 297.342 70.6195 298.038ZM85.1589 292.152H82.5669V297.606C82.5669 298.098 82.6629 298.452 82.8549 298.668C83.0469 298.872 83.3349 298.98 83.7189 298.992C84.1029 298.992 84.5829 298.98 85.1589 298.956V300C83.8989 300.192 82.9509 300.102 82.3149 299.73C81.6909 299.358 81.3789 298.65 81.3789 297.606V292.152H79.4889V291H81.3789V288.84L82.5669 288.48V291H85.1589V292.152ZM99.3789 287.4H100.567V300H99.3789V298.236C98.5509 299.556 97.3389 300.216 95.7429 300.216C94.4589 300.216 93.3609 299.76 92.4489 298.848C91.5489 297.936 91.0989 296.82 91.0989 295.5C91.0989 294.18 91.5489 293.064 92.4489 292.152C93.3609 291.24 94.4589 290.784 95.7429 290.784C97.3389 290.784 98.5509 291.444 99.3789 292.764V287.4ZM93.3129 298.038C93.9969 298.722 94.8369 299.064 95.8329 299.064C96.8289 299.064 97.6689 298.722 98.3529 298.038C99.0369 297.342 99.3789 296.496 99.3789 295.5C99.3789 294.504 99.0369 293.664 98.3529 292.98C97.6689 292.284 96.8289 291.936 95.8329 291.936C94.8369 291.936 93.9969 292.284 93.3129 292.98C92.6289 293.664 92.2869 294.504 92.2869 295.5C92.2869 296.496 92.6289 297.342 93.3129 298.038ZM104.288 288.84C104.12 289.008 103.916 289.092 103.676 289.092C103.436 289.092 103.232 289.008 103.064 288.84C102.896 288.672 102.812 288.468 102.812 288.228C102.812 287.988 102.896 287.784 103.064 287.616C103.232 287.448 103.436 287.364 103.676 287.364C103.916 287.364 104.12 287.448 104.288 287.616C104.456 287.784 104.54 287.988 104.54 288.228C104.54 288.468 104.456 288.672 104.288 288.84ZM103.082 300V291H104.27V300H103.082ZM114.531 287.4H115.719V300H114.531V298.236C113.703 299.556 112.491 300.216 110.895 300.216C109.611 300.216 108.513 299.76 107.601 298.848C106.701 297.936 106.251 296.82 106.251 295.5C106.251 294.18 106.701 293.064 107.601 292.152C108.513 291.24 109.611 290.784 110.895 290.784C112.491 290.784 113.703 291.444 114.531 292.764V287.4ZM108.465 298.038C109.149 298.722 109.989 299.064 110.985 299.064C111.981 299.064 112.821 298.722 113.505 298.038C114.189 297.342 114.531 296.496 114.531 295.5C114.531 294.504 114.189 293.664 113.505 292.98C112.821 292.284 111.981 291.936 110.985 291.936C109.989 291.936 109.149 292.284 108.465 292.98C107.781 293.664 107.439 294.504 107.439 295.5C107.439 296.496 107.781 297.342 108.465 298.038ZM129.215 291H130.475L126.623 300.828C126.275 301.716 125.777 302.412 125.129 302.916C124.493 303.432 123.779 303.66 122.987 303.6V302.484C124.067 302.604 124.889 301.98 125.453 300.612L125.687 300.054L121.655 291H122.915L126.299 298.542L129.215 291ZM139.101 298.866C138.189 299.766 137.073 300.216 135.753 300.216C134.433 300.216 133.311 299.766 132.387 298.866C131.475 297.954 131.019 296.832 131.019 295.5C131.019 294.168 131.475 293.052 132.387 292.152C133.311 291.24 134.433 290.784 135.753 290.784C137.073 290.784 138.189 291.24 139.101 292.152C140.025 293.052 140.487 294.168 140.487 295.5C140.487 296.832 140.025 297.954 139.101 298.866ZM133.233 298.038C133.917 298.722 134.757 299.064 135.753 299.064C136.749 299.064 137.589 298.722 138.273 298.038C138.957 297.342 139.299 296.496 139.299 295.5C139.299 294.504 138.957 293.664 138.273 292.98C137.589 292.284 136.749 291.936 135.753 291.936C134.757 291.936 133.917 292.284 133.233 292.98C132.549 293.664 132.207 294.504 132.207 295.5C132.207 296.496 132.549 297.342 133.233 298.038ZM148.811 291H149.999V300H148.811V298.596C148.139 299.676 147.131 300.216 145.787 300.216C144.695 300.216 143.831 299.886 143.195 299.226C142.571 298.554 142.259 297.654 142.259 296.526V291H143.447V296.526C143.447 297.33 143.657 297.954 144.077 298.398C144.509 298.842 145.115 299.064 145.895 299.064C146.759 299.064 147.461 298.794 148.001 298.254C148.541 297.702 148.811 296.856 148.811 295.716V291ZM164.752 287.4H165.94V300H164.752V298.236C163.924 299.556 162.712 300.216 161.116 300.216C159.832 300.216 158.734 299.76 157.822 298.848C156.922 297.936 156.472 296.82 156.472 295.5C156.472 294.18 156.922 293.064 157.822 292.152C158.734 291.24 159.832 290.784 161.116 290.784C162.712 290.784 163.924 291.444 164.752 292.764V287.4ZM158.686 298.038C159.37 298.722 160.21 299.064 161.206 299.064C162.202 299.064 163.042 298.722 163.726 298.038C164.41 297.342 164.752 296.496 164.752 295.5C164.752 294.504 164.41 293.664 163.726 292.98C163.042 292.284 162.202 291.936 161.206 291.936C160.21 291.936 159.37 292.284 158.686 292.98C158.002 293.664 157.66 294.504 157.66 295.5C157.66 296.496 158.002 297.342 158.686 298.038ZM169.643 292.494C170.195 291.402 171.143 290.856 172.487 290.856V292.008C171.671 292.008 170.993 292.248 170.453 292.728C169.913 293.208 169.643 293.964 169.643 294.996V300H168.455V291H169.643V292.494ZM181.113 298.866C180.201 299.766 179.085 300.216 177.765 300.216C176.445 300.216 175.323 299.766 174.399 298.866C173.487 297.954 173.031 296.832 173.031 295.5C173.031 294.168 173.487 293.052 174.399 292.152C175.323 291.24 176.445 290.784 177.765 290.784C179.085 290.784 180.201 291.24 181.113 292.152C182.037 293.052 182.499 294.168 182.499 295.5C182.499 296.832 182.037 297.954 181.113 298.866ZM175.245 298.038C175.929 298.722 176.769 299.064 177.765 299.064C178.761 299.064 179.601 298.722 180.285 298.038C180.969 297.342 181.311 296.496 181.311 295.5C181.311 294.504 180.969 293.664 180.285 292.98C179.601 292.284 178.761 291.936 177.765 291.936C176.769 291.936 175.929 292.284 175.245 292.98C174.561 293.664 174.219 294.504 174.219 295.5C174.219 296.496 174.561 297.342 175.245 298.038ZM189.311 290.784C190.595 290.784 191.687 291.24 192.587 292.152C193.499 293.064 193.955 294.18 193.955 295.5C193.955 296.82 193.499 297.936 192.587 298.848C191.687 299.76 190.595 300.216 189.311 300.216C187.715 300.216 186.503 299.556 185.675 298.236V303.6H184.487V291H185.675V292.764C186.503 291.444 187.715 290.784 189.311 290.784ZM186.701 298.038C187.385 298.722 188.225 299.064 189.221 299.064C190.217 299.064 191.057 298.722 191.741 298.038C192.425 297.342 192.767 296.496 192.767 295.5C192.767 294.504 192.425 293.664 191.741 292.98C191.057 292.284 190.217 291.936 189.221 291.936C188.225 291.936 187.385 292.284 186.701 292.98C186.017 293.664 185.675 294.504 185.675 295.5C185.675 296.496 186.017 297.342 186.701 298.038ZM197.184 296.58C197.184 295.992 197.304 295.458 197.544 294.978C197.784 294.486 198.072 294.072 198.408 293.736C198.744 293.4 199.08 293.076 199.416 292.764C199.752 292.452 200.04 292.11 200.28 291.738C200.52 291.354 200.64 290.946 200.64 290.514C200.64 289.818 200.4 289.296 199.92 288.948C199.452 288.588 198.846 288.408 198.102 288.408C196.626 288.408 195.714 289.014 195.366 290.226L194.304 289.632C194.58 288.828 195.06 288.222 195.744 287.814C196.44 287.394 197.226 287.184 198.102 287.184C199.158 287.184 200.052 287.478 200.784 288.066C201.528 288.642 201.9 289.458 201.9 290.514C201.9 291.03 201.78 291.51 201.54 291.954C201.3 292.398 201.012 292.788 200.676 293.124C200.34 293.448 200.004 293.772 199.668 294.096C199.332 294.42 199.044 294.798 198.804 295.23C198.564 295.65 198.444 296.1 198.444 296.58H197.184ZM198.516 299.892C198.324 300.084 198.09 300.18 197.814 300.18C197.538 300.18 197.304 300.084 197.112 299.892C196.92 299.7 196.824 299.466 196.824 299.19C196.824 298.914 196.92 298.68 197.112 298.488C197.304 298.296 197.538 298.2 197.814 298.2C198.09 298.2 198.324 298.296 198.516 298.488C198.708 298.68 198.804 298.914 198.804 299.19C198.804 299.466 198.708 299.7 198.516 299.892Z" fill="#FFC2D7"></path> </svg> 