<?xml version="1.0" encoding="UTF-8"?> <svg xmlns="http://www.w3.org/2000/svg" width="400" height="600" viewBox="0 0 400 600" fill="none"><rect width="400" height="600" rx="20" fill="#E7497E"></rect><path d="M47.296 84.136V101H42.88V78.6H48.032L61.536 95.464V78.6H65.952V101H60.8L47.296 84.136ZM80.4918 97.768C82.6678 97.768 84.6518 97.352 86.9237 96.168L88.1718 99.496C86.0278 100.584 83.0198 101.576 80.0758 101.576C74.1238 101.576 70.1878 97.8 70.1878 93C70.1878 87.656 74.7318 84.456 80.0758 84.456C84.9398 84.456 88.5878 87.624 88.5878 91.944C88.5878 92.648 88.4918 93.384 88.2998 94.12H74.5398C75.1478 96.456 77.4838 97.768 80.4918 97.768ZM79.8198 88.008C77.0677 88.008 75.2758 89.064 74.6358 91.016H84.3318C83.9158 89.128 82.3158 88.008 79.8198 88.008ZM94.39 85L99.638 96.232L104.822 85H109.526L101.942 101H97.302L89.75 85H94.39ZM121.179 97.768C123.355 97.768 125.339 97.352 127.611 96.168L128.859 99.496C126.715 100.584 123.707 101.576 120.763 101.576C114.811 101.576 110.875 97.8 110.875 93C110.875 87.656 115.419 84.456 120.763 84.456C125.627 84.456 129.275 87.624 129.275 91.944C129.275 92.648 129.179 93.384 128.987 94.12H115.227C115.835 96.456 118.171 97.768 121.179 97.768ZM120.507 88.008C117.755 88.008 115.963 89.064 115.323 91.016H125.019C124.603 89.128 123.003 88.008 120.507 88.008ZM142.982 84.456C143.878 84.456 144.87 84.712 145.67 85.096L144.774 88.936C144.006 88.584 143.174 88.392 142.566 88.392C139.91 88.392 137.062 90.12 137.062 93.064V101H132.838V85H137.062V88.552C137.99 86.824 140.198 84.456 142.982 84.456ZM166.436 88.424C163.78 88.424 161.124 89.896 161.124 93.064V101H156.9V77.288H161.124V88.552C162.244 86.472 164.612 84.52 167.652 84.52C172.004 84.52 174.5 87.4 174.5 91.752V101H170.276V92.264C170.276 89.992 168.964 88.424 166.436 88.424ZM184.75 91.88C186.478 91.88 188.75 92.392 190.126 92.872V91.016C190.126 89.352 189.038 88.232 187.022 88.232C185.358 88.232 182.926 88.968 180.59 89.832L179.534 85.992C181.518 85.352 184.878 84.36 187.406 84.36C191.79 84.36 194.35 86.696 194.35 91.08V96.84C194.35 97.32 194.67 97.608 195.118 97.608C195.598 97.608 196.43 97.256 197.358 96.776L198.222 100.04C196.462 101 194.542 101.64 193.23 101.64C191.086 101.64 190.19 100.136 190.126 98.344C188.59 100.168 186.158 101.64 183.438 101.64C180.43 101.64 178.19 99.656 178.19 96.776C178.19 93.352 181.454 91.88 184.75 91.88ZM184.814 98.024C186.414 98.024 188.622 97.16 190.126 95.688V95.08C188.366 94.76 186.51 94.6 184.974 94.6C183.566 94.6 182.51 95.272 182.51 96.424C182.51 97.48 183.47 98.024 184.814 98.024ZM202.859 85L208.107 96.232L213.291 85H217.995L210.411 101H205.771L198.219 85H202.859ZM229.648 97.768C231.824 97.768 233.808 97.352 236.08 96.168L237.328 99.496C235.184 100.584 232.176 101.576 229.232 101.576C223.28 101.576 219.344 97.8 219.344 93C219.344 87.656 223.888 84.456 229.232 84.456C234.096 84.456 237.744 87.624 237.744 91.944C237.744 92.648 237.648 93.384 237.456 94.12H223.696C224.304 96.456 226.64 97.768 229.648 97.768ZM228.976 88.008C226.224 88.008 224.432 89.064 223.792 91.016H233.488C233.072 89.128 231.472 88.008 228.976 88.008ZM255.265 78.6V101H250.849V78.6H255.265ZM278.867 97.768C281.043 97.768 283.027 97.352 285.299 96.168L286.547 99.496C284.403 100.584 281.395 101.576 278.451 101.576C272.499 101.576 268.563 97.8 268.563 93C268.563 87.656 273.107 84.456 278.451 84.456C283.315 84.456 286.963 87.624 286.963 91.944C286.963 92.648 286.867 93.384 286.675 94.12H272.915C273.523 96.456 275.859 97.768 278.867 97.768ZM278.195 88.008C275.443 88.008 273.651 89.064 273.011 91.016H282.707C282.291 89.128 280.691 88.008 278.195 88.008ZM292.765 85L298.013 96.232L303.197 85H307.901L300.317 101H295.677L288.125 85H292.765ZM319.554 97.768C321.73 97.768 323.714 97.352 325.986 96.168L327.234 99.496C325.09 100.584 322.082 101.576 319.138 101.576C313.186 101.576 309.25 97.8 309.25 93C309.25 87.656 313.794 84.456 319.138 84.456C324.002 84.456 327.65 87.624 327.65 91.944C327.65 92.648 327.554 93.384 327.362 94.12H313.602C314.21 96.456 316.546 97.768 319.554 97.768ZM318.882 88.008C316.13 88.008 314.338 89.064 313.698 91.016H323.394C322.978 89.128 321.378 88.008 318.882 88.008ZM341.357 84.456C342.253 84.456 343.245 84.712 344.045 85.096L343.149 88.936C342.381 88.584 341.549 88.392 340.941 88.392C338.285 88.392 335.437 90.12 335.437 93.064V101H331.213V85H335.437V88.552C336.365 86.824 338.573 84.456 341.357 84.456ZM48.096 138.888H50.272C55.744 138.888 59.776 140.328 59.776 143.656C59.776 147.304 55.744 149.096 50.272 149.096C44.448 149.096 40.672 147.336 40.672 143.976C40.672 142.28 42.368 140.712 43.968 140.296C43.104 139.88 42.432 138.76 42.432 137.736C42.432 136.68 43.36 135.848 44.16 135.336C42.688 134.376 41.312 132.616 41.312 130.888C41.312 126.664 45.248 124.456 49.632 124.456C51.36 124.456 53.024 124.808 54.4 125.48C55.616 124.488 57.216 123.72 59.264 123.368L60.032 127.304C58.912 127.432 58.016 127.656 57.248 128.04C57.696 128.84 57.984 129.8 57.984 130.888C57.984 134.536 54.464 137.288 49.632 137.288C48.832 137.288 48.032 137.224 47.296 137.096C46.912 137.192 46.496 137.512 46.496 137.96C46.496 138.504 47.04 138.888 48.096 138.888ZM49.6 127.944C47.296 127.944 45.568 128.936 45.568 130.76C45.568 132.36 47.296 133.512 49.6 133.512C52.032 133.512 53.6 132.264 53.6 130.76C53.6 128.936 51.872 127.944 49.6 127.944ZM50.208 142.472C49.568 142.472 46.592 142.472 46.048 142.504C45.344 142.792 44.736 143.336 44.736 143.976C44.736 145.128 46.688 145.64 50.208 145.64C53.504 145.64 55.68 145.192 55.68 144.008C55.68 142.92 53.504 142.472 50.208 142.472ZM71.4835 124.456C76.8275 124.456 81.4355 127.496 81.4355 132.84C81.4355 137.64 77.2755 141.576 71.4835 141.576C65.6915 141.576 61.5315 137.64 61.5315 132.84C61.5315 127.496 66.1395 124.456 71.4835 124.456ZM71.4835 128.136C68.1555 128.136 65.7875 129.864 65.7875 132.84C65.7875 135.528 68.3155 137.928 71.4835 137.928C74.6515 137.928 77.1795 135.528 77.1795 132.84C77.1795 129.864 74.8115 128.136 71.4835 128.136ZM83.4213 128.68V125.32L86.5893 125.128L87.1653 120.2H90.6853V125H97.3413V128.68H90.6853V134.728C90.6853 136.456 91.6133 137.64 93.2773 137.64C94.5253 137.64 95.9333 137.128 96.9573 136.488L97.8853 140.104C96.5413 140.808 94.2693 141.544 92.5733 141.544C88.6053 141.544 86.4613 138.92 86.4613 134.888V128.68H83.4213ZM99.3275 128.68V125.32L102.496 125.128L103.072 120.2H106.592V125H113.248V128.68H106.592V134.728C106.592 136.456 107.52 137.64 109.184 137.64C110.432 137.64 111.84 137.128 112.864 136.488L113.792 140.104C112.448 140.808 110.176 141.544 108.48 141.544C104.512 141.544 102.368 138.92 102.368 134.888V128.68H99.3275ZM126.242 137.768C128.418 137.768 130.402 137.352 132.674 136.168L133.922 139.496C131.778 140.584 128.77 141.576 125.826 141.576C119.874 141.576 115.938 137.8 115.938 133C115.938 127.656 120.482 124.456 125.826 124.456C130.69 124.456 134.338 127.624 134.338 131.944C134.338 132.648 134.242 133.384 134.05 134.12H120.29C120.898 136.456 123.234 137.768 126.242 137.768ZM125.57 128.008C122.818 128.008 121.026 129.064 120.386 131.016H130.082C129.666 129.128 128.066 128.008 125.57 128.008ZM147.436 128.424C144.78 128.424 142.124 129.896 142.124 133.064V141H137.9V125H142.124V128.552C143.244 126.472 145.612 124.52 148.652 124.52C153.004 124.52 155.5 127.4 155.5 131.752V141H151.276V132.264C151.276 129.992 149.964 128.424 147.436 128.424ZM173.437 125V141H169.277V125H173.437ZM168.829 120.392C168.829 119.016 169.949 117.896 171.357 117.896C172.765 117.896 173.885 119.016 173.885 120.392C173.885 121.8 172.765 122.92 171.357 122.92C169.949 122.92 168.829 121.8 168.829 120.392ZM187.842 128.424C185.186 128.424 182.53 129.896 182.53 133.064V141H178.306V125H182.53V128.552C183.65 126.472 186.018 124.52 189.058 124.52C193.41 124.52 195.906 127.4 195.906 131.752V141H191.682V132.264C191.682 129.992 190.37 128.424 187.842 128.424ZM198.796 128.68V125.32L201.964 125.128L202.54 120.2H206.06V125H212.716V128.68H206.06V134.728C206.06 136.456 206.988 137.64 208.652 137.64C209.9 137.64 211.308 137.128 212.332 136.488L213.26 140.104C211.916 140.808 209.644 141.544 207.948 141.544C203.98 141.544 201.836 138.92 201.836 134.888V128.68H198.796ZM225.359 124.456C230.703 124.456 235.311 127.496 235.311 132.84C235.311 137.64 231.151 141.576 225.359 141.576C219.567 141.576 215.407 137.64 215.407 132.84C215.407 127.496 220.015 124.456 225.359 124.456ZM225.359 128.136C222.031 128.136 219.663 129.864 219.663 132.84C219.663 135.528 222.191 137.928 225.359 137.928C228.527 137.928 231.055 135.528 231.055 132.84C231.055 129.864 228.687 128.136 225.359 128.136ZM253.719 131.88C255.447 131.88 257.719 132.392 259.095 132.872V131.016C259.095 129.352 258.007 128.232 255.991 128.232C254.327 128.232 251.895 128.968 249.559 129.832L248.503 125.992C250.487 125.352 253.847 124.36 256.375 124.36C260.759 124.36 263.319 126.696 263.319 131.08V136.84C263.319 137.32 263.639 137.608 264.087 137.608C264.567 137.608 265.399 137.256 266.327 136.776L267.191 140.04C265.431 141 263.511 141.64 262.199 141.64C260.055 141.64 259.159 140.136 259.095 138.344C257.559 140.168 255.127 141.64 252.407 141.64C249.399 141.64 247.159 139.656 247.159 136.776C247.159 133.352 250.423 131.88 253.719 131.88ZM253.783 138.024C255.383 138.024 257.591 137.16 259.095 135.688V135.08C257.335 134.76 255.479 134.6 253.943 134.6C252.535 134.6 251.479 135.272 251.479 136.424C251.479 137.48 252.439 138.024 253.783 138.024ZM287.482 124.456C290.138 124.456 292.57 125.064 294.49 125.736L293.466 129.512C291.258 128.616 289.402 128.168 287.226 128.168C284.154 128.168 281.85 129.928 281.85 132.84C281.85 135.912 284.41 137.768 287.738 137.768C290.074 137.768 291.77 137.096 293.882 136.168L295.13 139.496C292.954 140.648 290.202 141.576 287.194 141.576C281.242 141.576 277.594 137.8 277.594 133C277.594 127.656 282.138 124.456 287.482 124.456ZM303.938 131.88C305.666 131.88 307.938 132.392 309.314 132.872V131.016C309.314 129.352 308.226 128.232 306.21 128.232C304.546 128.232 302.114 128.968 299.778 129.832L298.722 125.992C300.706 125.352 304.066 124.36 306.594 124.36C310.978 124.36 313.538 126.696 313.538 131.08V136.84C313.538 137.32 313.858 137.608 314.306 137.608C314.786 137.608 315.618 137.256 316.546 136.776L317.41 140.04C315.65 141 313.73 141.64 312.418 141.64C310.274 141.64 309.378 140.136 309.314 138.344C307.778 140.168 305.345 141.64 302.626 141.64C299.618 141.64 297.378 139.656 297.378 136.776C297.378 133.352 300.641 131.88 303.938 131.88ZM304.002 138.024C305.602 138.024 307.81 137.16 309.314 135.688V135.08C307.554 134.76 305.698 134.6 304.161 134.6C302.754 134.6 301.698 135.272 301.698 136.424C301.698 137.48 302.658 138.024 304.002 138.024ZM329.95 124.456C330.846 124.456 331.838 124.712 332.638 125.096L331.742 128.936C330.974 128.584 330.142 128.392 329.534 128.392C326.878 128.392 324.03 130.12 324.03 133.064V141H319.806V125H324.03V128.552C324.958 126.824 327.166 124.456 329.95 124.456ZM51.232 164.456C53.888 164.456 56.32 165.064 58.24 165.736L57.216 169.512C55.008 168.616 53.152 168.168 50.976 168.168C47.904 168.168 45.6 169.928 45.6 172.84C45.6 175.912 48.16 177.768 51.488 177.768C53.824 177.768 55.52 177.096 57.632 176.168L58.88 179.496C56.704 180.648 53.952 181.576 50.944 181.576C44.992 181.576 41.344 177.8 41.344 173C41.344 167.656 45.888 164.456 51.232 164.456ZM72.2315 164.456C73.1275 164.456 74.1195 164.712 74.9195 165.096L74.0235 168.936C73.2555 168.584 72.4235 168.392 71.8155 168.392C69.1595 168.392 66.3115 170.12 66.3115 173.064V181H62.0875V165H66.3115V168.552C67.2395 166.824 69.4475 164.456 72.2315 164.456ZM82.6875 171.88C84.4155 171.88 86.6875 172.392 88.0635 172.872V171.016C88.0635 169.352 86.9755 168.232 84.9595 168.232C83.2955 168.232 80.8635 168.968 78.5275 169.832L77.4715 165.992C79.4555 165.352 82.8155 164.36 85.3435 164.36C89.7275 164.36 92.2875 166.696 92.2875 171.08V176.84C92.2875 177.32 92.6075 177.608 93.0555 177.608C93.5355 177.608 94.3675 177.256 95.2955 176.776L96.1595 180.04C94.3995 181 92.4795 181.64 91.1675 181.64C89.0235 181.64 88.1275 180.136 88.0635 178.344C86.5275 180.168 84.0955 181.64 81.3755 181.64C78.3675 181.64 76.1275 179.656 76.1275 176.776C76.1275 173.352 79.3915 171.88 82.6875 171.88ZM82.7515 178.024C84.3515 178.024 86.5595 177.16 88.0635 175.688V175.08C86.3035 174.76 84.4475 174.6 82.9115 174.6C81.5035 174.6 80.4475 175.272 80.4475 176.424C80.4475 177.48 81.4075 178.024 82.7515 178.024ZM112.7 165.576L111.58 169.288C109.5 168.488 107.516 168.072 105.468 168.072C103.356 168.072 101.692 168.392 101.692 169.352C101.692 172.008 113.596 169.8 113.596 176.04C113.596 179.624 109.276 181.64 105.372 181.64C102.364 181.64 99.3883 180.712 97.2122 179.56L98.4603 176.232C100.572 177.16 103.068 177.928 105.532 177.928C107.836 177.928 109.436 177.288 109.436 176.168C109.436 173.64 97.5323 175.752 97.5323 169.512C97.5323 166.376 100.764 164.392 105.308 164.392C107.836 164.392 110.812 164.936 112.7 165.576ZM126.811 168.424C124.155 168.424 121.499 169.896 121.499 173.064V181H117.275V157.288H121.499V168.552C122.619 166.472 124.987 164.52 128.027 164.52C132.379 164.52 134.875 167.4 134.875 171.752V181H130.651V172.264C130.651 169.992 129.339 168.424 126.811 168.424Z" fill="#FFC2D7"></path></svg> 