<?xml version="1.0" encoding="UTF-8"?> <svg xmlns="http://www.w3.org/2000/svg" width="400" height="600" viewBox="0 0 400 600" fill="none"><rect width="400" height="600" rx="20" fill="#E7497E"></rect><path d="M47.296 84.136L60.8 101H65.952V78.6H61.536V95.464L48.032 78.6H42.88V101H47.296V84.136ZM80.4918 97.768C77.4838 97.768 75.1478 96.456 74.5398 94.12H88.2998C88.4918 93.384 88.5878 92.648 88.5878 91.944C88.5878 87.624 84.9398 84.456 80.0758 84.456C74.7318 84.456 70.1878 87.656 70.1878 93C70.1878 97.8 74.1238 101.576 80.0758 101.576C83.0198 101.576 86.0278 100.584 88.1718 99.496L86.9237 96.168C84.6518 97.352 82.6678 97.768 80.4918 97.768ZM79.8198 88.008C82.3158 88.008 83.9158 89.128 84.3318 91.016H74.6358C75.2758 89.064 77.0677 88.008 79.8198 88.008ZM94.39 85H89.75L97.302 101H101.942L109.526 85H104.822L99.638 96.232L94.39 85ZM121.179 97.768C118.171 97.768 115.835 96.456 115.227 94.12H128.987C129.179 93.384 129.275 92.648 129.275 91.944C129.275 87.624 125.627 84.456 120.763 84.456C115.419 84.456 110.875 87.656 110.875 93C110.875 97.8 114.811 101.576 120.763 101.576C123.707 101.576 126.715 100.584 128.859 99.496L127.611 96.168C125.339 97.352 123.355 97.768 121.179 97.768ZM120.507 88.008C123.003 88.008 124.603 89.128 125.019 91.016H115.323C115.963 89.064 117.755 88.008 120.507 88.008ZM142.982 84.456C140.198 84.456 137.99 86.824 137.062 88.552V85H132.838V101H137.062V93.064C137.062 90.12 139.91 88.392 142.566 88.392C143.174 88.392 144.006 88.584 144.774 88.936L145.67 85.096C144.87 84.712 143.878 84.456 142.982 84.456ZM166.436 88.424C168.964 88.424 170.276 89.992 170.276 92.264V101H174.5V91.752C174.5 87.4 172.004 84.52 167.652 84.52C164.612 84.52 162.244 86.472 161.124 88.552V77.288H156.9V101H161.124V93.064C161.124 89.896 163.78 88.424 166.436 88.424ZM184.75 91.88C181.454 91.88 178.19 93.352 178.19 96.776C178.19 99.656 180.43 101.64 183.438 101.64C186.158 101.64 188.59 100.168 190.126 98.344C190.19 100.136 191.086 101.64 193.23 101.64C194.542 101.64 196.462 101 198.222 100.04L197.358 96.776C196.43 97.256 195.598 97.608 195.118 97.608C194.67 97.608 194.35 97.32 194.35 96.84V91.08C194.35 86.696 191.79 84.36 187.406 84.36C184.878 84.36 181.518 85.352 179.534 85.992L180.59 89.832C182.926 88.968 185.358 88.232 187.022 88.232C189.038 88.232 190.126 89.352 190.126 91.016V92.872C188.75 92.392 186.478 91.88 184.75 91.88ZM184.814 98.024C183.47 98.024 182.51 97.48 182.51 96.424C182.51 95.272 183.566 94.6 184.974 94.6C186.51 94.6 188.366 94.76 190.126 95.08V95.688C188.622 97.16 186.414 98.024 184.814 98.024ZM202.859 85H198.219L205.771 101H210.411L217.995 85H213.291L208.107 96.232L202.859 85ZM229.648 97.768C226.64 97.768 224.304 96.456 223.696 94.12H237.456C237.648 93.384 237.744 92.648 237.744 91.944C237.744 87.624 234.096 84.456 229.232 84.456C223.888 84.456 219.344 87.656 219.344 93C219.344 97.8 223.28 101.576 229.232 101.576C232.176 101.576 235.184 100.584 237.328 99.496L236.08 96.168C233.808 97.352 231.824 97.768 229.648 97.768ZM228.976 88.008C231.472 88.008 233.072 89.128 233.488 91.016H223.792C224.432 89.064 226.224 88.008 228.976 88.008ZM255.265 78.6H250.849V101H255.265V78.6ZM278.867 97.768C275.859 97.768 273.523 96.456 272.915 94.12H286.675C286.867 93.384 286.963 92.648 286.963 91.944C286.963 87.624 283.315 84.456 278.451 84.456C273.107 84.456 268.563 87.656 268.563 93C268.563 97.8 272.499 101.576 278.451 101.576C281.395 101.576 284.403 100.584 286.547 99.496L285.299 96.168C283.027 97.352 281.043 97.768 278.867 97.768ZM278.195 88.008C280.691 88.008 282.291 89.128 282.707 91.016H273.011C273.651 89.064 275.443 88.008 278.195 88.008ZM292.765 85H288.125L295.677 101H300.317L307.901 85H303.197L298.013 96.232L292.765 85ZM319.554 97.768C316.546 97.768 314.21 96.456 313.602 94.12H327.362C327.554 93.384 327.65 92.648 327.65 91.944C327.65 87.624 324.002 84.456 319.138 84.456C313.794 84.456 309.25 87.656 309.25 93C309.25 97.8 313.186 101.576 319.138 101.576C322.082 101.576 325.09 100.584 327.234 99.496L325.986 96.168C323.714 97.352 321.73 97.768 319.554 97.768ZM318.882 88.008C321.378 88.008 322.978 89.128 323.394 91.016H313.698C314.338 89.064 316.13 88.008 318.882 88.008ZM341.357 84.456C338.573 84.456 336.365 86.824 335.437 88.552V85H331.213V101H335.437V93.064C335.437 90.12 338.285 88.392 340.941 88.392C341.549 88.392 342.381 88.584 343.149 88.936L344.045 85.096C343.245 84.712 342.253 84.456 341.357 84.456ZM53.504 124.456C50.24 124.456 47.68 126.344 46.624 128.552V125H42.4V148.68H46.624V140.456C48.192 140.936 50.4 141.576 52.16 141.576C57.536 141.576 61.568 137.64 61.568 132.84C61.568 127.656 57.888 124.456 53.504 124.456ZM52.256 128.392C55.104 128.392 57.312 129.96 57.312 132.84C57.312 135.528 54.976 137.864 52.224 137.864C50.24 137.864 48.448 137.448 46.624 136.904V133.064C46.624 130.12 49.408 128.392 52.256 128.392ZM70.9062 131.88C67.6102 131.88 64.3463 133.352 64.3463 136.776C64.3463 139.656 66.5863 141.64 69.5943 141.64C72.3142 141.64 74.7463 140.168 76.2823 138.344C76.3463 140.136 77.2423 141.64 79.3863 141.64C80.6983 141.64 82.6183 141 84.3783 140.04L83.5143 136.776C82.5863 137.256 81.7543 137.608 81.2743 137.608C80.8263 137.608 80.5063 137.32 80.5063 136.84V131.08C80.5063 126.696 77.9463 124.36 73.5623 124.36C71.0343 124.36 67.6743 125.352 65.6903 125.992L66.7463 129.832C69.0823 128.968 71.5143 128.232 73.1783 128.232C75.1943 128.232 76.2823 129.352 76.2823 131.016V132.872C74.9063 132.392 72.6343 131.88 70.9062 131.88ZM70.9703 138.024C69.6263 138.024 68.6663 137.48 68.6663 136.424C68.6663 135.272 69.7223 134.6 71.1302 134.6C72.6663 134.6 74.5223 134.76 76.2823 135.08V135.688C74.7783 137.16 72.5703 138.024 70.9703 138.024ZM90.999 125H86.839V141H90.999V125ZM86.391 120.392C86.391 121.8 87.511 122.92 88.919 122.92C90.327 122.92 91.447 121.8 91.447 120.392C91.447 119.016 90.327 117.896 88.919 117.896C87.511 117.896 86.391 119.016 86.391 120.392ZM102.877 141.544C106.141 141.544 108.701 139.656 109.757 137.448V141H113.981V117H109.757V125.576C108.157 125.064 105.949 124.424 104.221 124.424C98.8448 124.424 94.8128 128.36 94.8128 133.16C94.8128 138.344 98.4928 141.544 102.877 141.544ZM104.125 137.608C101.277 137.608 99.0688 136.008 99.0688 133.128C99.0688 130.312 101.277 128.136 104.157 128.136C106.109 128.136 107.901 128.552 109.757 129.096V132.552C109.757 135.624 106.941 137.608 104.125 137.608ZM135.23 120.424C136.606 120.424 138.11 120.872 139.582 121.512L140.606 117.64C139.102 117.128 137.182 116.68 135.358 116.68C131.422 116.68 128.702 119.08 128.702 122.76V125H126.078V128.68H128.734V141H132.894V128.68H139.998V125H132.734V122.952C132.734 121.224 133.694 120.424 135.23 120.424ZM151.546 124.456C146.202 124.456 141.594 127.496 141.594 132.84C141.594 137.64 145.754 141.576 151.546 141.576C157.338 141.576 161.498 137.64 161.498 132.84C161.498 127.496 156.89 124.456 151.546 124.456ZM151.546 128.136C154.874 128.136 157.242 129.864 157.242 132.84C157.242 135.528 154.714 137.928 151.546 137.928C148.378 137.928 145.85 135.528 145.85 132.84C145.85 129.864 148.218 128.136 151.546 128.136ZM175.388 124.456C172.604 124.456 170.396 126.824 169.468 128.552V125H165.244V141H169.468V133.064C169.468 130.12 172.316 128.392 174.972 128.392C175.58 128.392 176.412 128.584 177.18 128.936L178.076 125.096C177.276 124.712 176.284 124.456 175.388 124.456ZM194.906 131.88C191.61 131.88 188.346 133.352 188.346 136.776C188.346 139.656 190.586 141.64 193.594 141.64C196.314 141.64 198.746 140.168 200.282 138.344C200.346 140.136 201.242 141.64 203.386 141.64C204.698 141.64 206.618 141 208.378 140.04L207.514 136.776C206.586 137.256 205.754 137.608 205.274 137.608C204.826 137.608 204.506 137.32 204.506 136.84V131.08C204.506 126.696 201.946 124.36 197.562 124.36C195.034 124.36 191.674 125.352 189.69 125.992L190.746 129.832C193.082 128.968 195.514 128.232 197.178 128.232C199.194 128.232 200.282 129.352 200.282 131.016V132.872C198.906 132.392 196.634 131.88 194.906 131.88ZM194.97 138.024C193.626 138.024 192.666 137.48 192.666 136.424C192.666 135.272 193.722 134.6 195.13 134.6C196.666 134.6 198.522 134.76 200.282 135.08V135.688C198.778 137.16 196.57 138.024 194.97 138.024ZM225.534 138.888C224.478 138.888 223.934 138.504 223.934 137.96C223.934 137.512 224.35 137.192 224.734 137.096C225.47 137.224 226.27 137.288 227.07 137.288C231.902 137.288 235.422 134.536 235.422 130.888C235.422 129.8 235.134 128.84 234.686 128.04C235.454 127.656 236.35 127.432 237.47 127.304L236.702 123.368C234.654 123.72 233.054 124.488 231.838 125.48C230.462 124.808 228.798 124.456 227.07 124.456C222.686 124.456 218.75 126.664 218.75 130.888C218.75 132.616 220.126 134.376 221.598 135.336C220.798 135.848 219.87 136.68 219.87 137.736C219.87 138.76 220.542 139.88 221.406 140.296C219.806 140.712 218.11 142.28 218.11 143.976C218.11 147.336 221.886 149.096 227.71 149.096C233.182 149.096 237.214 147.304 237.214 143.656C237.214 140.328 233.182 138.888 227.71 138.888H225.534ZM227.038 127.944C229.31 127.944 231.038 128.936 231.038 130.76C231.038 132.264 229.47 133.512 227.038 133.512C224.734 133.512 223.006 132.36 223.006 130.76C223.006 128.936 224.734 127.944 227.038 127.944ZM227.646 142.472C230.942 142.472 233.118 142.92 233.118 144.008C233.118 145.192 230.942 145.64 227.646 145.64C224.126 145.64 222.174 145.128 222.174 143.976C222.174 143.336 222.782 142.792 223.486 142.504C224.03 142.472 227.006 142.472 227.646 142.472ZM257.465 125H252.825C251.385 128.424 249.625 132.552 247.961 136.424L242.233 125H237.625L245.881 141.224C245.881 141.256 245.817 141.32 245.817 141.384C245.017 143.176 244.121 144.936 242.425 144.936C242.201 144.936 241.561 144.872 240.985 144.776L240.761 148.84C241.305 148.936 242.009 149 242.233 149C246.745 149 248.217 145.736 249.753 142.312L257.465 125ZM270.109 124.52C267.325 124.52 265.149 126.504 264.093 128.392V125H259.869V141H264.093V133.032C264.093 129.96 266.461 128.424 268.669 128.424C271.005 128.424 272.253 129.992 272.253 132.104V141H276.477V133.032C276.477 129.992 278.845 128.424 281.053 128.424C283.389 128.424 284.637 129.992 284.637 132.104V141H288.861V131.592C288.861 127.368 286.653 124.52 282.493 124.52C279.805 124.52 277.245 126.504 275.965 128.424C275.069 126.024 273.117 124.52 270.109 124.52ZM51.232 164.456C45.888 164.456 41.344 167.656 41.344 173C41.344 177.8 44.992 181.576 50.944 181.576C53.952 181.576 56.704 180.648 58.88 179.496L57.632 176.168C55.52 177.096 53.824 177.768 51.488 177.768C48.16 177.768 45.6 175.912 45.6 172.84C45.6 169.928 47.904 168.168 50.976 168.168C53.152 168.168 55.008 168.616 57.216 169.512L58.24 165.736C56.32 165.064 53.888 164.456 51.232 164.456ZM66.2795 181V157H62.0875V181H66.2795ZM76.6875 171.88C73.3915 171.88 70.1275 173.352 70.1275 176.776C70.1275 179.656 72.3675 181.64 75.3755 181.64C78.0955 181.64 80.5275 180.168 82.0635 178.344C82.1275 180.136 83.0235 181.64 85.1675 181.64C86.4795 181.64 88.3995 181 90.1595 180.04L89.2955 176.776C88.3675 177.256 87.5355 177.608 87.0555 177.608C86.6075 177.608 86.2875 177.32 86.2875 176.84V171.08C86.2875 166.696 83.7275 164.36 79.3435 164.36C76.8155 164.36 73.4555 165.352 71.4715 165.992L72.5275 169.832C74.8635 168.968 77.2955 168.232 78.9595 168.232C80.9755 168.232 82.0635 169.352 82.0635 171.016V172.872C80.6875 172.392 78.4155 171.88 76.6875 171.88ZM76.7515 178.024C75.4075 178.024 74.4475 177.48 74.4475 176.424C74.4475 175.272 75.5035 174.6 76.9115 174.6C78.4475 174.6 80.3035 174.76 82.0635 175.08V175.688C80.5595 177.16 78.3515 178.024 76.7515 178.024ZM106.7 165.576C104.812 164.936 101.836 164.392 99.3083 164.392C94.7643 164.392 91.5323 166.376 91.5323 169.512C91.5323 175.752 103.436 173.64 103.436 176.168C103.436 177.288 101.836 177.928 99.5323 177.928C97.0683 177.928 94.5723 177.16 92.4603 176.232L91.2122 179.56C93.3883 180.712 96.3643 181.64 99.3723 181.64C103.276 181.64 107.596 179.624 107.596 176.04C107.596 169.8 95.6923 172.008 95.6923 169.352C95.6923 168.392 97.3563 168.072 99.4683 168.072C101.516 168.072 103.5 168.488 105.58 169.288L106.7 165.576ZM125.419 165.576C123.531 164.936 120.555 164.392 118.027 164.392C113.483 164.392 110.251 166.376 110.251 169.512C110.251 175.752 122.155 173.64 122.155 176.168C122.155 177.288 120.555 177.928 118.251 177.928C115.787 177.928 113.291 177.16 111.179 176.232L109.931 179.56C112.107 180.712 115.083 181.64 118.091 181.64C121.995 181.64 126.315 179.624 126.315 176.04C126.315 169.8 114.411 172.008 114.411 169.352C114.411 168.392 116.075 168.072 118.187 168.072C120.235 168.072 122.219 168.488 124.299 169.288L125.419 165.576ZM144.656 171.88C141.36 171.88 138.096 173.352 138.096 176.776C138.096 179.656 140.336 181.64 143.344 181.64C146.064 181.64 148.496 180.168 150.032 178.344C150.096 180.136 150.992 181.64 153.136 181.64C154.448 181.64 156.368 181 158.128 180.04L157.264 176.776C156.336 177.256 155.504 177.608 155.024 177.608C154.576 177.608 154.256 177.32 154.256 176.84V171.08C154.256 166.696 151.696 164.36 147.312 164.36C144.784 164.36 141.424 165.352 139.44 165.992L140.496 169.832C142.832 168.968 145.264 168.232 146.928 168.232C148.944 168.232 150.032 169.352 150.032 171.016V172.872C148.656 172.392 146.384 171.88 144.656 171.88ZM144.72 178.024C143.376 178.024 142.416 177.48 142.416 176.424C142.416 175.272 143.472 174.6 144.88 174.6C146.416 174.6 148.272 174.76 150.032 175.08V175.688C148.528 177.16 146.32 178.024 144.72 178.024ZM170.061 168.424C172.589 168.424 173.901 169.992 173.901 172.264V181H178.125V171.752C178.125 167.4 175.629 164.52 171.277 164.52C168.237 164.52 165.869 166.472 164.749 168.552V165H160.525V181H164.749V173.064C164.749 169.896 167.405 168.424 170.061 168.424ZM189.783 181.544C193.047 181.544 195.607 179.656 196.663 177.448V181H200.887V157H196.663V165.576C195.063 165.064 192.855 164.424 191.127 164.424C185.751 164.424 181.719 168.36 181.719 173.16C181.719 178.344 185.399 181.544 189.783 181.544ZM191.031 177.608C188.183 177.608 185.975 176.008 185.975 173.128C185.975 170.312 188.183 168.136 191.063 168.136C193.015 168.136 194.807 168.552 196.663 169.096V172.552C196.663 175.624 193.847 177.608 191.031 177.608ZM224.28 168.424C226.808 168.424 228.12 169.992 228.12 172.264V181H232.344V171.752C232.344 167.4 229.848 164.52 225.496 164.52C222.456 164.52 220.088 166.472 218.968 168.552V165H214.744V181H218.968V173.064C218.968 169.896 221.624 168.424 224.28 168.424ZM245.89 164.456C240.546 164.456 235.938 167.496 235.938 172.84C235.938 177.64 240.098 181.576 245.89 181.576C251.682 181.576 255.842 177.64 255.842 172.84C255.842 167.496 251.234 164.456 245.89 164.456ZM245.89 168.136C249.218 168.136 251.586 169.864 251.586 172.84C251.586 175.528 249.058 177.928 245.89 177.928C242.722 177.928 240.194 175.528 240.194 172.84C240.194 169.864 242.562 168.136 245.89 168.136ZM257.828 168.68H260.868V174.888C260.868 178.92 263.012 181.544 266.98 181.544C268.676 181.544 270.948 180.808 272.292 180.104L271.364 176.488C270.34 177.128 268.932 177.64 267.684 177.64C266.02 177.64 265.092 176.456 265.092 174.728V168.68H271.748V165H265.092V160.2H261.572L260.996 165.128L257.828 165.32V168.68ZM48 211.88C44.704 211.88 41.44 213.352 41.44 216.776C41.44 219.656 43.68 221.64 46.688 221.64C49.408 221.64 51.84 220.168 53.376 218.344C53.44 220.136 54.336 221.64 56.48 221.64C57.792 221.64 59.712 221 61.472 220.04L60.608 216.776C59.68 217.256 58.848 217.608 58.368 217.608C57.92 217.608 57.6 217.32 57.6 216.84V211.08C57.6 206.696 55.04 204.36 50.656 204.36C48.128 204.36 44.768 205.352 42.784 205.992L43.84 209.832C46.176 208.968 48.608 208.232 50.272 208.232C52.288 208.232 53.376 209.352 53.376 211.016V212.872C52 212.392 49.728 211.88 48 211.88ZM48.064 218.024C46.72 218.024 45.76 217.48 45.76 216.424C45.76 215.272 46.816 214.6 48.224 214.6C49.76 214.6 51.616 214.76 53.376 215.08V215.688C51.872 217.16 49.664 218.024 48.064 218.024ZM62.1088 208.68H65.1488V214.888C65.1488 218.92 67.2928 221.544 71.2608 221.544C72.9568 221.544 75.2288 220.808 76.5728 220.104L75.6448 216.488C74.6208 217.128 73.2128 217.64 71.9648 217.64C70.3008 217.64 69.3728 216.456 69.3728 214.728V208.68H76.0288V205H69.3728V200.2H65.8528L65.2768 205.128L62.1088 205.32V208.68ZM78.015 208.68H81.055V214.888C81.055 218.92 83.199 221.544 87.167 221.544C88.863 221.544 91.135 220.808 92.479 220.104L91.551 216.488C90.527 217.128 89.119 217.64 87.871 217.64C86.207 217.64 85.279 216.456 85.279 214.728V208.68H91.935V205H85.279V200.2H81.759L81.183 205.128L78.015 205.32V208.68ZM104.929 217.768C101.921 217.768 99.5853 216.456 98.9773 214.12H112.737C112.929 213.384 113.025 212.648 113.025 211.944C113.025 207.624 109.377 204.456 104.513 204.456C99.1693 204.456 94.6253 207.656 94.6253 213C94.6253 217.8 98.5613 221.576 104.513 221.576C107.457 221.576 110.465 220.584 112.609 219.496L111.361 216.168C109.089 217.352 107.105 217.768 104.929 217.768ZM104.257 208.008C106.753 208.008 108.353 209.128 108.769 211.016H99.0733C99.7133 209.064 101.505 208.008 104.257 208.008ZM126.124 208.424C128.652 208.424 129.964 209.992 129.964 212.264V221H134.188V211.752C134.188 207.4 131.692 204.52 127.34 204.52C124.3 204.52 121.932 206.472 120.812 208.552V205H116.588V221H120.812V213.064C120.812 209.896 123.468 208.424 126.124 208.424ZM145.845 221.544C149.11 221.544 151.67 219.656 152.726 217.448V221H156.95V197H152.726V205.576C151.126 205.064 148.918 204.424 147.19 204.424C141.814 204.424 137.782 208.36 137.782 213.16C137.782 218.344 141.462 221.544 145.845 221.544ZM147.094 217.608C144.246 217.608 142.038 216.008 142.038 213.128C142.038 210.312 144.246 208.136 147.126 208.136C149.078 208.136 150.87 208.552 152.726 209.096V212.552C152.726 215.624 149.91 217.608 147.094 217.608ZM170.992 217.768C167.984 217.768 165.648 216.456 165.04 214.12H178.8C178.992 213.384 179.088 212.648 179.088 211.944C179.088 207.624 175.44 204.456 170.576 204.456C165.232 204.456 160.688 207.656 160.688 213C160.688 217.8 164.624 221.576 170.576 221.576C173.52 221.576 176.528 220.584 178.672 219.496L177.424 216.168C175.152 217.352 173.168 217.768 170.992 217.768ZM170.32 208.008C172.816 208.008 174.416 209.128 174.832 211.016H165.136C165.776 209.064 167.568 208.008 170.32 208.008ZM189.658 221.544C192.922 221.544 195.482 219.656 196.538 217.448V221H200.762V197H196.538V205.576C194.938 205.064 192.73 204.424 191.002 204.424C185.626 204.424 181.594 208.36 181.594 213.16C181.594 218.344 185.274 221.544 189.658 221.544ZM190.906 217.608C188.058 217.608 185.85 216.008 185.85 213.128C185.85 210.312 188.058 208.136 190.938 208.136C192.89 208.136 194.682 208.552 196.538 209.096V212.552C196.538 215.624 193.722 217.608 190.906 217.608Z" fill="#FFC2D7"></path></svg> 