<?xml version="1.0" encoding="UTF-8"?> <svg xmlns="http://www.w3.org/2000/svg" width="400" height="600" viewBox="0 0 400 600" fill="none"><rect width="400" height="600" rx="20" fill="#EEBF38"></rect><path d="M49.504 488.4V490.776H46.102V501H43.618V490.776H40.234V488.4H49.504ZM56.8159 499.884C55.8919 500.796 54.7639 501.252 53.4319 501.252C52.0999 501.252 50.9719 500.796 50.0479 499.884C49.1359 498.96 48.6799 497.832 48.6799 496.5C48.6799 495.168 49.1359 494.046 50.0479 493.134C50.9719 492.21 52.0999 491.748 53.4319 491.748C54.7639 491.748 55.8919 492.21 56.8159 493.134C57.7399 494.046 58.2019 495.168 58.2019 496.5C58.2019 497.832 57.7399 498.96 56.8159 499.884ZM51.6859 498.282C52.1539 498.75 52.7359 498.984 53.4319 498.984C54.1279 498.984 54.7099 498.75 55.1779 498.282C55.6459 497.814 55.8799 497.22 55.8799 496.5C55.8799 495.78 55.6459 495.186 55.1779 494.718C54.7099 494.25 54.1279 494.016 53.4319 494.016C52.7359 494.016 52.1539 494.25 51.6859 494.718C51.2299 495.186 51.0019 495.78 51.0019 496.5C51.0019 497.22 51.2299 497.814 51.6859 498.282ZM66.4774 494.556C66.4774 494.796 66.6334 494.994 66.9454 495.15C67.2694 495.294 67.6594 495.426 68.1154 495.546C68.5714 495.654 69.0274 495.798 69.4834 495.978C69.9394 496.146 70.3234 496.434 70.6354 496.842C70.9594 497.25 71.1214 497.76 71.1214 498.372C71.1214 499.296 70.7734 500.01 70.0774 500.514C69.3934 501.006 68.5354 501.252 67.5034 501.252C65.6554 501.252 64.3954 500.538 63.7234 499.11L65.7394 497.976C66.0034 498.756 66.5914 499.146 67.5034 499.146C68.3314 499.146 68.7454 498.888 68.7454 498.372C68.7454 498.132 68.5834 497.94 68.2594 497.796C67.9474 497.64 67.5634 497.502 67.1074 497.382C66.6514 497.262 66.1954 497.112 65.7394 496.932C65.2834 496.752 64.8934 496.47 64.5694 496.086C64.2574 495.69 64.1014 495.198 64.1014 494.61C64.1014 493.722 64.4254 493.026 65.0734 492.522C65.7334 492.006 66.5494 491.748 67.5214 491.748C68.2534 491.748 68.9194 491.916 69.5194 492.252C70.1194 492.576 70.5934 493.044 70.9414 493.656L68.9614 494.736C68.6734 494.124 68.1934 493.818 67.5214 493.818C67.2214 493.818 66.9694 493.884 66.7654 494.016C66.5734 494.148 66.4774 494.328 66.4774 494.556ZM77.4991 494.232H75.4651V497.976C75.4651 498.288 75.5431 498.516 75.6991 498.66C75.8551 498.804 76.0831 498.888 76.3831 498.912C76.6831 498.924 77.0551 498.918 77.4991 498.894V501C75.9031 501.18 74.7751 501.03 74.1151 500.55C73.4671 500.07 73.1431 499.212 73.1431 497.976V494.232H71.5771V492H73.1431V490.182L75.4651 489.48V492H77.4991V494.232ZM85.695 492H88.017V501H85.695V499.938C84.999 500.814 84.021 501.252 82.761 501.252C81.561 501.252 80.529 500.796 79.665 499.884C78.813 498.96 78.387 497.832 78.387 496.5C78.387 495.168 78.813 494.046 79.665 493.134C80.529 492.21 81.561 491.748 82.761 491.748C84.021 491.748 84.999 492.186 85.695 493.062V492ZM81.411 498.336C81.879 498.804 82.473 499.038 83.193 499.038C83.913 499.038 84.507 498.804 84.975 498.336C85.455 497.856 85.695 497.244 85.695 496.5C85.695 495.756 85.455 495.15 84.975 494.682C84.507 494.202 83.913 493.962 83.193 493.962C82.473 493.962 81.879 494.202 81.411 494.682C80.943 495.15 80.709 495.756 80.709 496.5C80.709 497.244 80.943 497.856 81.411 498.336ZM95.1265 491.748C96.1105 491.748 96.9205 492.078 97.5565 492.738C98.2045 493.398 98.5285 494.31 98.5285 495.474V501H96.2065V495.762C96.2065 495.162 96.0445 494.706 95.7205 494.394C95.3965 494.07 94.9645 493.908 94.4245 493.908C93.8245 493.908 93.3445 494.094 92.9845 494.466C92.6245 494.838 92.4445 495.396 92.4445 496.14V501H90.1225V492H92.4445V493.008C93.0085 492.168 93.9025 491.748 95.1265 491.748ZM107.333 488.4H109.655V501H107.333V499.938C106.649 500.814 105.677 501.252 104.417 501.252C103.205 501.252 102.167 500.796 101.303 499.884C100.451 498.96 100.025 497.832 100.025 496.5C100.025 495.168 100.451 494.046 101.303 493.134C102.167 492.21 103.205 491.748 104.417 491.748C105.677 491.748 106.649 492.186 107.333 493.062V488.4ZM103.049 498.336C103.529 498.804 104.129 499.038 104.849 499.038C105.569 499.038 106.163 498.804 106.631 498.336C107.099 497.856 107.333 497.244 107.333 496.5C107.333 495.756 107.099 495.15 106.631 494.682C106.163 494.202 105.569 493.962 104.849 493.962C104.129 493.962 103.529 494.202 103.049 494.682C102.581 495.15 102.347 495.756 102.347 496.5C102.347 497.244 102.581 497.856 103.049 498.336ZM118.421 494.556C118.421 494.796 118.577 494.994 118.889 495.15C119.213 495.294 119.603 495.426 120.059 495.546C120.515 495.654 120.971 495.798 121.427 495.978C121.883 496.146 122.267 496.434 122.579 496.842C122.903 497.25 123.065 497.76 123.065 498.372C123.065 499.296 122.717 500.01 122.021 500.514C121.337 501.006 120.479 501.252 119.447 501.252C117.599 501.252 116.339 500.538 115.667 499.11L117.683 497.976C117.947 498.756 118.535 499.146 119.447 499.146C120.275 499.146 120.689 498.888 120.689 498.372C120.689 498.132 120.527 497.94 120.203 497.796C119.891 497.64 119.507 497.502 119.051 497.382C118.595 497.262 118.139 497.112 117.683 496.932C117.227 496.752 116.837 496.47 116.513 496.086C116.201 495.69 116.045 495.198 116.045 494.61C116.045 493.722 116.369 493.026 117.017 492.522C117.677 492.006 118.493 491.748 119.465 491.748C120.197 491.748 120.863 491.916 121.463 492.252C122.063 492.576 122.537 493.044 122.885 493.656L120.905 494.736C120.617 494.124 120.137 493.818 119.465 493.818C119.165 493.818 118.913 493.884 118.709 494.016C118.517 494.148 118.421 494.328 118.421 494.556ZM132.103 499.884C131.179 500.796 130.051 501.252 128.719 501.252C127.387 501.252 126.259 500.796 125.335 499.884C124.423 498.96 123.967 497.832 123.967 496.5C123.967 495.168 124.423 494.046 125.335 493.134C126.259 492.21 127.387 491.748 128.719 491.748C130.051 491.748 131.179 492.21 132.103 493.134C133.027 494.046 133.489 495.168 133.489 496.5C133.489 497.832 133.027 498.96 132.103 499.884ZM126.973 498.282C127.441 498.75 128.023 498.984 128.719 498.984C129.415 498.984 129.997 498.75 130.465 498.282C130.933 497.814 131.167 497.22 131.167 496.5C131.167 495.78 130.933 495.186 130.465 494.718C129.997 494.25 129.415 494.016 128.719 494.016C128.023 494.016 127.441 494.25 126.973 494.718C126.517 495.186 126.289 495.78 126.289 496.5C126.289 497.22 126.517 497.814 126.973 498.282ZM145.077 491.748C146.109 491.748 146.931 492.084 147.543 492.756C148.167 493.428 148.479 494.328 148.479 495.456V501H146.157V495.618C146.157 495.078 146.025 494.658 145.761 494.358C145.497 494.058 145.125 493.908 144.645 493.908C144.117 493.908 143.703 494.082 143.403 494.43C143.115 494.778 142.971 495.282 142.971 495.942V501H140.649V495.618C140.649 495.078 140.517 494.658 140.253 494.358C139.989 494.058 139.617 493.908 139.137 493.908C138.621 493.908 138.207 494.082 137.895 494.43C137.595 494.778 137.445 495.282 137.445 495.942V501H135.123V492H137.445V492.954C137.985 492.15 138.819 491.748 139.947 491.748C141.051 491.748 141.867 492.18 142.395 493.044C142.995 492.18 143.889 491.748 145.077 491.748ZM152.413 497.454C152.725 498.582 153.571 499.146 154.951 499.146C155.839 499.146 156.511 498.846 156.967 498.246L158.839 499.326C157.951 500.61 156.643 501.252 154.915 501.252C153.427 501.252 152.233 500.802 151.333 499.902C150.433 499.002 149.983 497.868 149.983 496.5C149.983 495.144 150.427 494.016 151.315 493.116C152.203 492.204 153.343 491.748 154.735 491.748C156.055 491.748 157.141 492.204 157.993 493.116C158.857 494.028 159.289 495.156 159.289 496.5C159.289 496.8 159.259 497.118 159.199 497.454H152.413ZM152.377 495.654H156.967C156.835 495.042 156.559 494.586 156.139 494.286C155.731 493.986 155.263 493.836 154.735 493.836C154.111 493.836 153.595 493.998 153.187 494.322C152.779 494.634 152.509 495.078 152.377 495.654ZM166.148 491.748C167.36 491.748 168.392 492.21 169.244 493.134C170.108 494.046 170.54 495.168 170.54 496.5C170.54 497.832 170.108 498.96 169.244 499.884C168.392 500.796 167.36 501.252 166.148 501.252C164.888 501.252 163.916 500.814 163.232 499.938V501H160.91V488.4H163.232V493.062C163.916 492.186 164.888 491.748 166.148 491.748ZM163.934 498.336C164.402 498.804 164.996 499.038 165.716 499.038C166.436 499.038 167.03 498.804 167.498 498.336C167.978 497.856 168.218 497.244 168.218 496.5C168.218 495.756 167.978 495.15 167.498 494.682C167.03 494.202 166.436 493.962 165.716 493.962C164.996 493.962 164.402 494.202 163.934 494.682C163.466 495.15 163.232 495.756 163.232 496.5C163.232 497.244 163.466 497.856 163.934 498.336ZM179.845 499.884C178.921 500.796 177.793 501.252 176.461 501.252C175.129 501.252 174.001 500.796 173.077 499.884C172.165 498.96 171.709 497.832 171.709 496.5C171.709 495.168 172.165 494.046 173.077 493.134C174.001 492.21 175.129 491.748 176.461 491.748C177.793 491.748 178.921 492.21 179.845 493.134C180.769 494.046 181.231 495.168 181.231 496.5C181.231 497.832 180.769 498.96 179.845 499.884ZM174.715 498.282C175.183 498.75 175.765 498.984 176.461 498.984C177.157 498.984 177.739 498.75 178.207 498.282C178.675 497.814 178.909 497.22 178.909 496.5C178.909 495.78 178.675 495.186 178.207 494.718C177.739 494.25 177.157 494.016 176.461 494.016C175.765 494.016 175.183 494.25 174.715 494.718C174.259 495.186 174.031 495.78 174.031 496.5C174.031 497.22 174.259 497.814 174.715 498.282ZM189.687 488.4H192.009V501H189.687V499.938C189.003 500.814 188.031 501.252 186.771 501.252C185.559 501.252 184.521 500.796 183.657 499.884C182.805 498.96 182.379 497.832 182.379 496.5C182.379 495.168 182.805 494.046 183.657 493.134C184.521 492.21 185.559 491.748 186.771 491.748C188.031 491.748 189.003 492.186 189.687 493.062V488.4ZM185.403 498.336C185.883 498.804 186.483 499.038 187.203 499.038C187.923 499.038 188.517 498.804 188.985 498.336C189.453 497.856 189.687 497.244 189.687 496.5C189.687 495.756 189.453 495.15 188.985 494.682C188.517 494.202 187.923 493.962 187.203 493.962C186.483 493.962 185.883 494.202 185.403 494.682C184.935 495.15 184.701 495.756 184.701 496.5C184.701 497.244 184.935 497.856 185.403 498.336ZM200 492H202.484L199.208 501C198.74 502.296 198.116 503.232 197.336 503.808C196.568 504.396 195.608 504.66 194.456 504.6V502.44C195.08 502.452 195.572 502.32 195.932 502.044C196.304 501.768 196.598 501.324 196.814 500.712L193.124 492H195.662L198.002 498.048L200 492ZM214.029 492H216.351V501H214.029V499.992C213.465 500.832 212.571 501.252 211.347 501.252C210.363 501.252 209.547 500.922 208.899 500.262C208.263 499.602 207.945 498.69 207.945 497.526V492H210.267V497.238C210.267 497.838 210.429 498.3 210.753 498.624C211.077 498.936 211.509 499.092 212.049 499.092C212.649 499.092 213.129 498.906 213.489 498.534C213.849 498.162 214.029 497.604 214.029 496.86V492ZM223.716 491.748C224.928 491.748 225.96 492.21 226.812 493.134C227.676 494.046 228.108 495.168 228.108 496.5C228.108 497.832 227.676 498.96 226.812 499.884C225.96 500.796 224.928 501.252 223.716 501.252C222.456 501.252 221.484 500.814 220.8 499.938V504.6H218.478V492H220.8V493.062C221.484 492.186 222.456 491.748 223.716 491.748ZM221.502 498.336C221.97 498.804 222.564 499.038 223.284 499.038C224.004 499.038 224.598 498.804 225.066 498.336C225.546 497.856 225.786 497.244 225.786 496.5C225.786 495.756 225.546 495.15 225.066 494.682C224.598 494.202 224.004 493.962 223.284 493.962C222.564 493.962 221.97 494.202 221.502 494.682C221.034 495.15 220.8 495.756 220.8 496.5C220.8 497.244 221.034 497.856 221.502 498.336ZM234.624 496.014V494.862H243.624V496.014H234.624ZM250.646 492.45L251.726 488.4H252.806L252.086 492.45H250.646ZM253.166 492.45L254.246 488.4H255.326L254.606 492.45H253.166ZM265.224 499.848H266.484V503.412H265.296V501H257.952V503.412H256.764V499.848H257.862C258.474 499.044 258.78 497.91 258.78 496.446V492H265.224V499.848ZM259.302 499.848H264.036V493.152H259.968V496.446C259.968 497.826 259.746 498.96 259.302 499.848ZM274.833 492H275.841V501H274.653V494.07L269.289 501H268.281V492H269.469V498.93L274.833 492ZM284.726 492H285.914V501H284.726V497.076H279.542V501H278.354V492H279.542V495.924H284.726V492ZM296.166 492H297.354V501H296.166V499.236C295.338 500.556 294.126 501.216 292.53 501.216C291.246 501.216 290.148 500.76 289.236 499.848C288.336 498.936 287.886 497.82 287.886 496.5C287.886 495.18 288.336 494.064 289.236 493.152C290.148 492.24 291.246 491.784 292.53 491.784C294.126 491.784 295.338 492.444 296.166 493.764V492ZM290.1 499.038C290.784 499.722 291.624 500.064 292.62 500.064C293.616 500.064 294.456 499.722 295.14 499.038C295.824 498.342 296.166 497.496 296.166 496.5C296.166 495.504 295.824 494.664 295.14 493.98C294.456 493.284 293.616 492.936 292.62 492.936C291.624 492.936 290.784 493.284 290.1 493.98C289.416 494.664 289.074 495.504 289.074 496.5C289.074 497.496 289.416 498.342 290.1 499.038ZM308.689 492V501H307.501V493.818L304.351 498.93H304.207L301.057 493.818V501H299.869V492H301.237L304.279 496.932L307.321 492H308.689ZM317.759 492H318.767V501H317.579V494.07L312.215 501H311.207V492H312.395V498.93L317.759 492ZM327.76 492V493.152H324.574V501H323.386V493.152H320.2V492H327.76ZM332.861 495.42C333.701 495.42 334.409 495.684 334.985 496.212C335.573 496.728 335.867 497.394 335.867 498.21C335.867 499.026 335.573 499.698 334.985 500.226C334.409 500.742 333.701 501 332.861 501H329.207V492H330.395V495.42H332.861ZM332.861 499.848C333.365 499.848 333.791 499.698 334.139 499.398C334.499 499.098 334.679 498.702 334.679 498.21C334.679 497.718 334.499 497.322 334.139 497.022C333.791 496.722 333.365 496.572 332.861 496.572H330.395V499.848H332.861ZM339.642 488.4L338.562 492.45H337.482L338.202 488.4H339.642ZM342.162 488.4L341.082 492.45H340.002L340.722 488.4H342.162ZM48.532 524H46.948L42.448 519.662V524H41.26V515H42.448V518.978L46.732 515H48.352L43.708 519.32L48.532 524ZM56.8 522.866C55.888 523.766 54.772 524.216 53.452 524.216C52.132 524.216 51.01 523.766 50.086 522.866C49.174 521.954 48.718 520.832 48.718 519.5C48.718 518.168 49.174 517.052 50.086 516.152C51.01 515.24 52.132 514.784 53.452 514.784C54.772 514.784 55.888 515.24 56.8 516.152C57.724 517.052 58.186 518.168 58.186 519.5C58.186 520.832 57.724 521.954 56.8 522.866ZM50.932 522.038C51.616 522.722 52.456 523.064 53.452 523.064C54.448 523.064 55.288 522.722 55.972 522.038C56.656 521.342 56.998 520.496 56.998 519.5C56.998 518.504 56.656 517.664 55.972 516.98C55.288 516.284 54.448 515.936 53.452 515.936C52.456 515.936 51.616 516.284 50.932 516.98C50.248 517.664 49.906 518.504 49.906 519.5C49.906 520.496 50.248 521.342 50.932 522.038ZM65.9341 515V516.152H61.3621V524H60.1741V515H65.9341ZM74.5715 522.866C73.6595 523.766 72.5435 524.216 71.2235 524.216C69.9035 524.216 68.7815 523.766 67.8575 522.866C66.9455 521.954 66.4895 520.832 66.4895 519.5C66.4895 518.168 66.9455 517.052 67.8575 516.152C68.7815 515.24 69.9035 514.784 71.2235 514.784C72.5435 514.784 73.6595 515.24 74.5715 516.152C75.4955 517.052 75.9575 518.168 75.9575 519.5C75.9575 520.832 75.4955 521.954 74.5715 522.866ZM68.7035 522.038C69.3875 522.722 70.2275 523.064 71.2235 523.064C72.2195 523.064 73.0595 522.722 73.7435 522.038C74.4275 521.342 74.7695 520.496 74.7695 519.5C74.7695 518.504 74.4275 517.664 73.7435 516.98C73.0595 516.284 72.2195 515.936 71.2235 515.936C70.2275 515.936 69.3875 516.284 68.7035 516.98C68.0195 517.664 67.6775 518.504 67.6775 519.5C67.6775 520.496 68.0195 521.342 68.7035 522.038ZM78.1255 519.014V517.862H84.6055V519.014H78.1255ZM93.2322 515V516.152H90.0462V524H88.8582V516.152H85.6722V515H93.2322ZM101.87 522.866C100.958 523.766 99.8424 524.216 98.5224 524.216C97.2024 524.216 96.0804 523.766 95.1564 522.866C94.2444 521.954 93.7884 520.832 93.7884 519.5C93.7884 518.168 94.2444 517.052 95.1564 516.152C96.0804 515.24 97.2024 514.784 98.5224 514.784C99.8424 514.784 100.958 515.24 101.87 516.152C102.794 517.052 103.256 518.168 103.256 519.5C103.256 520.832 102.794 521.954 101.87 522.866ZM96.0024 522.038C96.6864 522.722 97.5264 523.064 98.5224 523.064C99.5184 523.064 100.358 522.722 101.042 522.038C101.726 521.342 102.068 520.496 102.068 519.5C102.068 518.504 101.726 517.664 101.042 516.98C100.358 516.284 99.5184 515.936 98.5224 515.936C97.5264 515.936 96.6864 516.284 96.0024 516.98C95.3184 517.664 94.9764 518.504 94.9764 519.5C94.9764 520.496 95.3184 521.342 96.0024 522.038Z" fill="#FFF5D7" fill-opacity="0.6"></path><path d="M47.296 84.136L60.8 101H65.952V78.6H61.536V95.464L48.032 78.6H42.88V101H47.296V84.136ZM80.4918 97.768C77.4838 97.768 75.1478 96.456 74.5398 94.12H88.2998C88.4918 93.384 88.5878 92.648 88.5878 91.944C88.5878 87.624 84.9398 84.456 80.0758 84.456C74.7318 84.456 70.1878 87.656 70.1878 93C70.1878 97.8 74.1238 101.576 80.0758 101.576C83.0198 101.576 86.0278 100.584 88.1718 99.496L86.9237 96.168C84.6518 97.352 82.6678 97.768 80.4918 97.768ZM79.8198 88.008C82.3158 88.008 83.9158 89.128 84.3318 91.016H74.6358C75.2758 89.064 77.0677 88.008 79.8198 88.008ZM94.39 85H89.75L97.302 101H101.942L109.526 85H104.822L99.638 96.232L94.39 85ZM121.179 97.768C118.171 97.768 115.835 96.456 115.227 94.12H128.987C129.179 93.384 129.275 92.648 129.275 91.944C129.275 87.624 125.627 84.456 120.763 84.456C115.419 84.456 110.875 87.656 110.875 93C110.875 97.8 114.811 101.576 120.763 101.576C123.707 101.576 126.715 100.584 128.859 99.496L127.611 96.168C125.339 97.352 123.355 97.768 121.179 97.768ZM120.507 88.008C123.003 88.008 124.603 89.128 125.019 91.016H115.323C115.963 89.064 117.755 88.008 120.507 88.008ZM142.982 84.456C140.198 84.456 137.99 86.824 137.062 88.552V85H132.838V101H137.062V93.064C137.062 90.12 139.91 88.392 142.566 88.392C143.174 88.392 144.006 88.584 144.774 88.936L145.67 85.096C144.87 84.712 143.878 84.456 142.982 84.456ZM166.436 88.424C168.964 88.424 170.276 89.992 170.276 92.264V101H174.5V91.752C174.5 87.4 172.004 84.52 167.652 84.52C164.612 84.52 162.244 86.472 161.124 88.552V77.288H156.9V101H161.124V93.064C161.124 89.896 163.78 88.424 166.436 88.424ZM184.75 91.88C181.454 91.88 178.19 93.352 178.19 96.776C178.19 99.656 180.43 101.64 183.438 101.64C186.158 101.64 188.59 100.168 190.126 98.344C190.19 100.136 191.086 101.64 193.23 101.64C194.542 101.64 196.462 101 198.222 100.04L197.358 96.776C196.43 97.256 195.598 97.608 195.118 97.608C194.67 97.608 194.35 97.32 194.35 96.84V91.08C194.35 86.696 191.79 84.36 187.406 84.36C184.878 84.36 181.518 85.352 179.534 85.992L180.59 89.832C182.926 88.968 185.358 88.232 187.022 88.232C189.038 88.232 190.126 89.352 190.126 91.016V92.872C188.75 92.392 186.478 91.88 184.75 91.88ZM184.814 98.024C183.47 98.024 182.51 97.48 182.51 96.424C182.51 95.272 183.566 94.6 184.974 94.6C186.51 94.6 188.366 94.76 190.126 95.08V95.688C188.622 97.16 186.414 98.024 184.814 98.024ZM202.859 85H198.219L205.771 101H210.411L217.995 85H213.291L208.107 96.232L202.859 85ZM229.648 97.768C226.64 97.768 224.304 96.456 223.696 94.12H237.456C237.648 93.384 237.744 92.648 237.744 91.944C237.744 87.624 234.096 84.456 229.232 84.456C223.888 84.456 219.344 87.656 219.344 93C219.344 97.8 223.28 101.576 229.232 101.576C232.176 101.576 235.184 100.584 237.328 99.496L236.08 96.168C233.808 97.352 231.824 97.768 229.648 97.768ZM228.976 88.008C231.472 88.008 233.072 89.128 233.488 91.016H223.792C224.432 89.064 226.224 88.008 228.976 88.008ZM255.265 78.6H250.849V101H255.265V78.6ZM278.867 97.768C275.859 97.768 273.523 96.456 272.915 94.12H286.675C286.867 93.384 286.963 92.648 286.963 91.944C286.963 87.624 283.315 84.456 278.451 84.456C273.107 84.456 268.563 87.656 268.563 93C268.563 97.8 272.499 101.576 278.451 101.576C281.395 101.576 284.403 100.584 286.547 99.496L285.299 96.168C283.027 97.352 281.043 97.768 278.867 97.768ZM278.195 88.008C280.691 88.008 282.291 89.128 282.707 91.016H273.011C273.651 89.064 275.443 88.008 278.195 88.008ZM292.765 85H288.125L295.677 101H300.317L307.901 85H303.197L298.013 96.232L292.765 85ZM319.554 97.768C316.546 97.768 314.21 96.456 313.602 94.12H327.362C327.554 93.384 327.65 92.648 327.65 91.944C327.65 87.624 324.002 84.456 319.138 84.456C313.794 84.456 309.25 87.656 309.25 93C309.25 97.8 313.186 101.576 319.138 101.576C322.082 101.576 325.09 100.584 327.234 99.496L325.986 96.168C323.714 97.352 321.73 97.768 319.554 97.768ZM318.882 88.008C321.378 88.008 322.978 89.128 323.394 91.016H313.698C314.338 89.064 316.13 88.008 318.882 88.008ZM341.357 84.456C338.573 84.456 336.365 86.824 335.437 88.552V85H331.213V101H335.437V93.064C335.437 90.12 338.285 88.392 340.941 88.392C341.549 88.392 342.381 88.584 343.149 88.936L344.045 85.096C343.245 84.712 342.253 84.456 341.357 84.456ZM56.544 125.576C54.656 124.936 51.68 124.392 49.152 124.392C44.608 124.392 41.376 126.376 41.376 129.512C41.376 135.752 53.28 133.64 53.28 136.168C53.28 137.288 51.68 137.928 49.376 137.928C46.912 137.928 44.416 137.16 42.304 136.232L41.056 139.56C43.232 140.712 46.208 141.64 49.216 141.64C53.12 141.64 57.44 139.624 57.44 136.04C57.44 129.8 45.536 132.008 45.536 129.352C45.536 128.392 47.2 128.072 49.312 128.072C51.36 128.072 53.344 128.488 55.424 129.288L56.544 125.576ZM59.3588 128.68H62.3988V134.888C62.3988 138.92 64.5428 141.544 68.5108 141.544C70.2068 141.544 72.4788 140.808 73.8228 140.104L72.8948 136.488C71.8708 137.128 70.4628 137.64 69.2148 137.64C67.5508 137.64 66.6228 136.456 66.6228 134.728V128.68H73.2788V125H66.6228V120.2H63.1028L62.5268 125.128L59.3588 125.32V128.68ZM85.921 124.456C80.577 124.456 75.969 127.496 75.969 132.84C75.969 137.64 80.129 141.576 85.921 141.576C91.713 141.576 95.873 137.64 95.873 132.84C95.873 127.496 91.265 124.456 85.921 124.456ZM85.921 128.136C89.249 128.136 91.617 129.864 91.617 132.84C91.617 135.528 89.089 137.928 85.921 137.928C82.753 137.928 80.225 135.528 80.225 132.84C80.225 129.864 82.593 128.136 85.921 128.136ZM108.515 124.456C103.171 124.456 98.5628 127.496 98.5628 132.84C98.5628 137.64 102.723 141.576 108.515 141.576C114.307 141.576 118.467 137.64 118.467 132.84C118.467 127.496 113.859 124.456 108.515 124.456ZM108.515 128.136C111.843 128.136 114.211 129.864 114.211 132.84C114.211 135.528 111.683 137.928 108.515 137.928C105.347 137.928 102.819 135.528 102.819 132.84C102.819 129.864 105.187 128.136 108.515 128.136ZM129.22 141.544C132.485 141.544 135.045 139.656 136.101 137.448V141H140.325V117H136.101V125.576C134.501 125.064 132.293 124.424 130.565 124.424C125.189 124.424 121.157 128.36 121.157 133.16C121.157 138.344 124.837 141.544 129.22 141.544ZM130.469 137.608C127.621 137.608 125.413 136.008 125.413 133.128C125.413 130.312 127.621 128.136 130.501 128.136C132.453 128.136 134.245 128.552 136.101 129.096V132.552C136.101 135.624 133.285 137.608 130.469 137.608ZM168.325 125.576C166.437 124.936 163.461 124.392 160.933 124.392C156.389 124.392 153.157 126.376 153.157 129.512C153.157 135.752 165.061 133.64 165.061 136.168C165.061 137.288 163.461 137.928 161.157 137.928C158.693 137.928 156.197 137.16 154.085 136.232L152.837 139.56C155.013 140.712 157.989 141.64 160.997 141.64C164.901 141.64 169.221 139.624 169.221 136.04C169.221 129.8 157.317 132.008 157.317 129.352C157.317 128.392 158.981 128.072 161.093 128.072C163.141 128.072 165.125 128.488 167.205 129.288L168.325 125.576ZM181.796 124.456C176.452 124.456 171.844 127.496 171.844 132.84C171.844 137.64 176.004 141.576 181.796 141.576C187.588 141.576 191.748 137.64 191.748 132.84C191.748 127.496 187.14 124.456 181.796 124.456ZM181.796 128.136C185.124 128.136 187.492 129.864 187.492 132.84C187.492 135.528 184.964 137.928 181.796 137.928C178.628 137.928 176.1 135.528 176.1 132.84C176.1 129.864 178.468 128.136 181.796 128.136ZM205.734 124.52C202.95 124.52 200.774 126.504 199.718 128.392V125H195.494V141H199.718V133.032C199.718 129.96 202.086 128.424 204.294 128.424C206.63 128.424 207.878 129.992 207.878 132.104V141H212.102V133.032C212.102 129.992 214.47 128.424 216.678 128.424C219.014 128.424 220.262 129.992 220.262 132.104V141H224.486V131.592C224.486 127.368 222.278 124.52 218.118 124.52C215.43 124.52 212.87 126.504 211.59 128.424C210.694 126.024 208.742 124.52 205.734 124.52ZM238.367 137.768C235.359 137.768 233.023 136.456 232.415 134.12H246.175C246.367 133.384 246.463 132.648 246.463 131.944C246.463 127.624 242.815 124.456 237.951 124.456C232.607 124.456 228.063 127.656 228.063 133C228.063 137.8 231.999 141.576 237.951 141.576C240.895 141.576 243.903 140.584 246.047 139.496L244.799 136.168C242.527 137.352 240.543 137.768 238.367 137.768ZM237.695 128.008C240.191 128.008 241.791 129.128 242.207 131.016H232.511C233.151 129.064 234.943 128.008 237.695 128.008ZM258.921 124.456C253.577 124.456 248.969 127.496 248.969 132.84C248.969 137.64 253.129 141.576 258.921 141.576C264.713 141.576 268.873 137.64 268.873 132.84C268.873 127.496 264.265 124.456 258.921 124.456ZM258.921 128.136C262.249 128.136 264.617 129.864 264.617 132.84C264.617 135.528 262.089 137.928 258.921 137.928C255.753 137.928 253.225 135.528 253.225 132.84C253.225 129.864 255.593 128.136 258.921 128.136ZM282.155 128.424C284.683 128.424 285.995 129.992 285.995 132.264V141H290.219V131.752C290.219 127.4 287.723 124.52 283.371 124.52C280.331 124.52 277.963 126.472 276.843 128.552V125H272.619V141H276.843V133.064C276.843 129.896 279.499 128.424 282.155 128.424ZM304.117 137.768C301.109 137.768 298.773 136.456 298.165 134.12H311.925C312.117 133.384 312.213 132.648 312.213 131.944C312.213 127.624 308.565 124.456 303.701 124.456C298.357 124.456 293.813 127.656 293.813 133C293.813 137.8 297.749 141.576 303.701 141.576C306.645 141.576 309.653 140.584 311.797 139.496L310.549 136.168C308.277 137.352 306.293 137.768 304.117 137.768ZM303.445 128.008C305.941 128.008 307.541 129.128 307.957 131.016H298.261C298.901 129.064 300.693 128.008 303.445 128.008ZM48.96 181.512C51.872 181.512 54.336 179.752 55.488 177.48V181H59.712V165H55.488V172.744C55.488 176.136 53.216 177.608 50.528 177.608C48 177.608 46.464 176.328 46.464 173.736V165H42.24V174.28C42.24 178.632 44.672 181.512 48.96 181.512ZM75.629 164.456C72.365 164.456 69.805 166.344 68.749 168.552V165H64.525V188.68H68.749V180.456C70.317 180.936 72.525 181.576 74.285 181.576C79.661 181.576 83.693 177.64 83.693 172.84C83.693 167.656 80.013 164.456 75.629 164.456ZM74.381 168.392C77.229 168.392 79.437 169.96 79.437 172.84C79.437 175.528 77.101 177.864 74.349 177.864C72.365 177.864 70.573 177.448 68.749 176.904V173.064C68.749 170.12 71.533 168.392 74.381 168.392ZM102.094 171.88C98.7977 171.88 95.5338 173.352 95.5338 176.776C95.5338 179.656 97.7738 181.64 100.782 181.64C103.502 181.64 105.934 180.168 107.47 178.344C107.534 180.136 108.43 181.64 110.574 181.64C111.886 181.64 113.806 181 115.566 180.04L114.702 176.776C113.774 177.256 112.942 177.608 112.462 177.608C112.014 177.608 111.694 177.32 111.694 176.84V171.08C111.694 166.696 109.134 164.36 104.75 164.36C102.222 164.36 98.8618 165.352 96.8778 165.992L97.9338 169.832C100.27 168.968 102.702 168.232 104.366 168.232C106.382 168.232 107.47 169.352 107.47 171.016V172.872C106.094 172.392 103.822 171.88 102.094 171.88ZM102.158 178.024C100.814 178.024 99.8538 177.48 99.8538 176.424C99.8538 175.272 100.91 174.6 102.318 174.6C103.854 174.6 105.71 174.76 107.47 175.08V175.688C105.966 177.16 103.758 178.024 102.158 178.024ZM125.355 160.424C126.731 160.424 128.235 160.872 129.707 161.512L130.731 157.64C129.227 157.128 127.307 156.68 125.483 156.68C121.547 156.68 118.827 159.08 118.827 162.76V165H116.203V168.68H118.859V181H123.019V168.68H130.123V165H122.859V162.952C122.859 161.224 123.819 160.424 125.355 160.424ZM131.015 168.68H134.055V174.888C134.055 178.92 136.199 181.544 140.167 181.544C141.863 181.544 144.135 180.808 145.479 180.104L144.551 176.488C143.527 177.128 142.119 177.64 140.871 177.64C139.207 177.64 138.279 176.456 138.279 174.728V168.68H144.935V165H138.279V160.2H134.759L134.183 165.128L131.015 165.32V168.68ZM157.929 177.768C154.921 177.768 152.585 176.456 151.977 174.12H165.737C165.929 173.384 166.025 172.648 166.025 171.944C166.025 167.624 162.377 164.456 157.513 164.456C152.169 164.456 147.625 167.656 147.625 173C147.625 177.8 151.561 181.576 157.513 181.576C160.457 181.576 163.465 180.584 165.609 179.496L164.361 176.168C162.089 177.352 160.105 177.768 157.929 177.768ZM157.257 168.008C159.753 168.008 161.353 169.128 161.769 171.016H152.073C152.713 169.064 154.505 168.008 157.257 168.008ZM179.732 164.456C176.948 164.456 174.74 166.824 173.812 168.552V165H169.588V181H173.812V173.064C173.812 170.12 176.66 168.392 179.316 168.392C179.924 168.392 180.756 168.584 181.524 168.936L182.42 165.096C181.62 164.712 180.628 164.456 179.732 164.456ZM199.25 171.88C195.954 171.88 192.69 173.352 192.69 176.776C192.69 179.656 194.93 181.64 197.938 181.64C200.658 181.64 203.09 180.168 204.626 178.344C204.69 180.136 205.586 181.64 207.73 181.64C209.042 181.64 210.962 181 212.722 180.04L211.858 176.776C210.93 177.256 210.098 177.608 209.618 177.608C209.17 177.608 208.85 177.32 208.85 176.84V171.08C208.85 166.696 206.29 164.36 201.906 164.36C199.378 164.36 196.018 165.352 194.034 165.992L195.09 169.832C197.426 168.968 199.858 168.232 201.522 168.232C203.538 168.232 204.626 169.352 204.626 171.016V172.872C203.25 172.392 200.978 171.88 199.25 171.88ZM199.314 178.024C197.97 178.024 197.01 177.48 197.01 176.424C197.01 175.272 198.066 174.6 199.474 174.6C201.01 174.6 202.866 174.76 204.626 175.08V175.688C203.122 177.16 200.914 178.024 199.314 178.024ZM231.189 181.544C234.453 181.544 237.013 179.656 238.069 177.448V181H242.293V157H238.069V165.576C236.469 165.064 234.261 164.424 232.533 164.424C227.157 164.424 223.125 168.36 223.125 173.16C223.125 178.344 226.805 181.544 231.189 181.544ZM232.437 177.608C229.589 177.608 227.381 176.008 227.381 173.128C227.381 170.312 229.589 168.136 232.469 168.136C234.421 168.136 236.213 168.552 238.069 169.096V172.552C238.069 175.624 235.253 177.608 232.437 177.608ZM252.688 171.88C249.391 171.88 246.128 173.352 246.128 176.776C246.128 179.656 248.368 181.64 251.376 181.64C254.095 181.64 256.528 180.168 258.064 178.344C258.128 180.136 259.024 181.64 261.168 181.64C262.48 181.64 264.4 181 266.16 180.04L265.296 176.776C264.368 177.256 263.536 177.608 263.056 177.608C262.608 177.608 262.288 177.32 262.288 176.84V171.08C262.288 166.696 259.728 164.36 255.344 164.36C252.816 164.36 249.456 165.352 247.472 165.992L248.528 169.832C250.864 168.968 253.296 168.232 254.96 168.232C256.976 168.232 258.064 169.352 258.064 171.016V172.872C256.688 172.392 254.416 171.88 252.688 171.88ZM252.752 178.024C251.408 178.024 250.448 177.48 250.448 176.424C250.448 175.272 251.504 174.6 252.911 174.6C254.448 174.6 256.304 174.76 258.064 175.08V175.688C256.56 177.16 254.352 178.024 252.752 178.024ZM266.796 168.68H269.836V174.888C269.836 178.92 271.98 181.544 275.948 181.544C277.644 181.544 279.916 180.808 281.26 180.104L280.332 176.488C279.308 177.128 277.9 177.64 276.652 177.64C274.988 177.64 274.06 176.456 274.06 174.728V168.68H280.716V165H274.06V160.2H270.54L269.964 165.128L266.796 165.32V168.68ZM293.711 177.768C290.703 177.768 288.367 176.456 287.759 174.12H301.519C301.711 173.384 301.807 172.648 301.807 171.944C301.807 167.624 298.159 164.456 293.295 164.456C287.951 164.456 283.407 167.656 283.407 173C283.407 177.8 287.343 181.576 293.295 181.576C296.239 181.576 299.247 180.584 301.391 179.496L300.142 176.168C297.871 177.352 295.887 177.768 293.711 177.768ZM293.039 168.008C295.535 168.008 297.135 169.128 297.551 171.016H287.855C288.495 169.064 290.286 168.008 293.039 168.008Z" fill="#FFFAED"></path></svg> 