<?xml version="1.0" encoding="UTF-8"?> <svg xmlns="http://www.w3.org/2000/svg" width="400" height="600" viewBox="0 0 400 600" fill="none"> <rect width="400" height="600" rx="20" fill="#36BB71"></rect> <path d="M49.504 488.4V490.776H46.102V501H43.618V490.776H40.234V488.4H49.504ZM56.8159 499.884C55.8919 500.796 54.7639 501.252 53.4319 501.252C52.0999 501.252 50.9719 500.796 50.0479 499.884C49.1359 498.96 48.6799 497.832 48.6799 496.5C48.6799 495.168 49.1359 494.046 50.0479 493.134C50.9719 492.21 52.0999 491.748 53.4319 491.748C54.7639 491.748 55.8919 492.21 56.8159 493.134C57.7399 494.046 58.2019 495.168 58.2019 496.5C58.2019 497.832 57.7399 498.96 56.8159 499.884ZM51.6859 498.282C52.1539 498.75 52.7359 498.984 53.4319 498.984C54.1279 498.984 54.7099 498.75 55.1779 498.282C55.6459 497.814 55.8799 497.22 55.8799 496.5C55.8799 495.78 55.6459 495.186 55.1779 494.718C54.7099 494.25 54.1279 494.016 53.4319 494.016C52.7359 494.016 52.1539 494.25 51.6859 494.718C51.2299 495.186 51.0019 495.78 51.0019 496.5C51.0019 497.22 51.2299 497.814 51.6859 498.282ZM69.3394 491.748C70.3234 491.748 71.1334 492.078 71.7694 492.738C72.4174 493.398 72.7414 494.31 72.7414 495.474V501H70.4194V495.762C70.4194 495.162 70.2574 494.706 69.9334 494.394C69.6094 494.07 69.1774 493.908 68.6374 493.908C68.0374 493.908 67.5574 494.094 67.1974 494.466C66.8374 494.838 66.6574 495.396 66.6574 496.14V501H64.3354V488.4H66.6574V493.008C67.2214 492.168 68.1154 491.748 69.3394 491.748ZM75.8761 490.92C75.4921 490.92 75.1561 490.782 74.8681 490.506C74.5921 490.218 74.4541 489.882 74.4541 489.498C74.4541 489.114 74.5921 488.778 74.8681 488.49C75.1561 488.202 75.4921 488.058 75.8761 488.058C76.2721 488.058 76.6081 488.202 76.8841 488.49C77.1721 488.778 77.3161 489.114 77.3161 489.498C77.3161 489.882 77.1721 490.218 76.8841 490.506C76.6081 490.782 76.2721 490.92 75.8761 490.92ZM74.7241 501V492H77.0461V501H74.7241ZM84.3194 494.232H82.2854V497.976C82.2854 498.288 82.3634 498.516 82.5194 498.66C82.6754 498.804 82.9034 498.888 83.2034 498.912C83.5034 498.924 83.8754 498.918 84.3194 498.894V501C82.7234 501.18 81.5954 501.03 80.9354 500.55C80.2874 500.07 79.9634 499.212 79.9634 497.976V494.232H78.3974V492H79.9634V490.182L82.2854 489.48V492H84.3194V494.232ZM89.9593 501.252C88.6033 501.252 87.4693 500.796 86.5573 499.884C85.6573 498.972 85.2073 497.844 85.2073 496.5C85.2073 495.156 85.6573 494.028 86.5573 493.116C87.4693 492.204 88.6033 491.748 89.9593 491.748C90.8353 491.748 91.6333 491.958 92.3533 492.378C93.0733 492.798 93.6193 493.362 93.9913 494.07L91.9933 495.24C91.8133 494.868 91.5373 494.574 91.1653 494.358C90.8053 494.142 90.3973 494.034 89.9413 494.034C89.2453 494.034 88.6693 494.268 88.2133 494.736C87.7573 495.192 87.5293 495.78 87.5293 496.5C87.5293 497.208 87.7573 497.796 88.2133 498.264C88.6693 498.72 89.2453 498.948 89.9413 498.948C90.4093 498.948 90.8233 498.846 91.1833 498.642C91.5553 498.426 91.8313 498.132 92.0113 497.76L94.0273 498.912C93.6313 499.62 93.0733 500.19 92.3533 500.622C91.6333 501.042 90.8353 501.252 89.9593 501.252ZM100.259 491.748C101.243 491.748 102.053 492.078 102.689 492.738C103.337 493.398 103.661 494.31 103.661 495.474V501H101.339V495.762C101.339 495.162 101.177 494.706 100.853 494.394C100.529 494.07 100.097 493.908 99.5574 493.908C98.9574 493.908 98.4774 494.094 98.1174 494.466C97.7574 494.838 97.5774 495.396 97.5774 496.14V501H95.2554V488.4H97.5774V493.008C98.1414 492.168 99.0354 491.748 100.259 491.748ZM110.648 491.748C111.632 491.748 112.442 492.078 113.078 492.738C113.726 493.398 114.05 494.31 114.05 495.474V501H111.728V495.762C111.728 495.162 111.566 494.706 111.242 494.394C110.918 494.07 110.486 493.908 109.946 493.908C109.346 493.908 108.866 494.094 108.506 494.466C108.146 494.838 107.966 495.396 107.966 496.14V501H105.644V488.4H107.966V493.008C108.53 492.168 109.424 491.748 110.648 491.748ZM117.185 490.92C116.801 490.92 116.465 490.782 116.177 490.506C115.901 490.218 115.763 489.882 115.763 489.498C115.763 489.114 115.901 488.778 116.177 488.49C116.465 488.202 116.801 488.058 117.185 488.058C117.581 488.058 117.917 488.202 118.193 488.49C118.481 488.778 118.625 489.114 118.625 489.498C118.625 489.882 118.481 490.218 118.193 490.506C117.917 490.782 117.581 490.92 117.185 490.92ZM116.033 501V492H118.355V501H116.033ZM128.778 501H126.078L122.802 496.914V501H120.48V488.4H122.802V495.96L125.898 492H128.67L125.052 496.446L128.778 501ZM131.249 497.454C131.561 498.582 132.407 499.146 133.787 499.146C134.675 499.146 135.347 498.846 135.803 498.246L137.675 499.326C136.787 500.61 135.479 501.252 133.751 501.252C132.263 501.252 131.069 500.802 130.169 499.902C129.269 499.002 128.819 497.868 128.819 496.5C128.819 495.144 129.263 494.016 130.151 493.116C131.039 492.204 132.179 491.748 133.571 491.748C134.891 491.748 135.977 492.204 136.829 493.116C137.693 494.028 138.125 495.156 138.125 496.5C138.125 496.8 138.095 497.118 138.035 497.454H131.249ZM131.213 495.654H135.803C135.671 495.042 135.395 494.586 134.975 494.286C134.567 493.986 134.099 493.836 133.571 493.836C132.947 493.836 132.431 493.998 132.023 494.322C131.615 494.634 131.345 495.078 131.213 495.654ZM144.624 496.014V494.862H153.624V496.014H144.624ZM166.586 492V493.152H162.014V501H160.826V492H166.586ZM175.224 499.866C174.312 500.766 173.196 501.216 171.876 501.216C170.556 501.216 169.434 500.766 168.51 499.866C167.598 498.954 167.142 497.832 167.142 496.5C167.142 495.168 167.598 494.052 168.51 493.152C169.434 492.24 170.556 491.784 171.876 491.784C173.196 491.784 174.312 492.24 175.224 493.152C176.148 494.052 176.61 495.168 176.61 496.5C176.61 497.832 176.148 498.954 175.224 499.866ZM169.356 499.038C170.04 499.722 170.88 500.064 171.876 500.064C172.872 500.064 173.712 499.722 174.396 499.038C175.08 498.342 175.422 497.496 175.422 496.5C175.422 495.504 175.08 494.664 174.396 493.98C173.712 493.284 172.872 492.936 171.876 492.936C170.88 492.936 170.04 493.284 169.356 493.98C168.672 494.664 168.33 495.504 168.33 496.5C168.33 497.496 168.672 498.342 169.356 499.038ZM185.626 492V501H184.438V493.152H180.37V497.166C180.37 498.666 180.082 499.698 179.506 500.262C178.942 500.826 178.162 501.072 177.166 501V499.884C177.85 499.956 178.354 499.794 178.678 499.398C179.014 499.002 179.182 498.258 179.182 497.166V492H185.626ZM195.685 499.866C194.773 500.766 193.657 501.216 192.337 501.216C191.017 501.216 189.895 500.766 188.971 499.866C188.059 498.954 187.603 497.832 187.603 496.5C187.603 495.168 188.059 494.052 188.971 493.152C189.895 492.24 191.017 491.784 192.337 491.784C193.657 491.784 194.773 492.24 195.685 493.152C196.609 494.052 197.071 495.168 197.071 496.5C197.071 497.832 196.609 498.954 195.685 499.866ZM189.817 499.038C190.501 499.722 191.341 500.064 192.337 500.064C193.333 500.064 194.173 499.722 194.857 499.038C195.541 498.342 195.883 497.496 195.883 496.5C195.883 495.504 195.541 494.664 194.857 493.98C194.173 493.284 193.333 492.936 192.337 492.936C191.341 492.936 190.501 493.284 189.817 493.98C189.133 494.664 188.791 495.504 188.791 496.5C188.791 497.496 189.133 498.342 189.817 499.038ZM203.253 501.216C201.897 501.216 200.769 500.766 199.869 499.866C198.969 498.954 198.519 497.832 198.519 496.5C198.519 495.168 198.969 494.052 199.869 493.152C200.769 492.24 201.897 491.784 203.253 491.784C204.141 491.784 204.939 492 205.647 492.432C206.355 492.852 206.871 493.422 207.195 494.142L206.223 494.7C205.983 494.16 205.593 493.734 205.053 493.422C204.525 493.098 203.925 492.936 203.253 492.936C202.257 492.936 201.417 493.284 200.733 493.98C200.049 494.664 199.707 495.504 199.707 496.5C199.707 497.496 200.049 498.342 200.733 499.038C201.417 499.722 202.257 500.064 203.253 500.064C203.925 500.064 204.525 499.908 205.053 499.596C205.581 499.272 205.995 498.84 206.295 498.3L207.285 498.876C206.913 499.596 206.367 500.166 205.647 500.586C204.927 501.006 204.129 501.216 203.253 501.216ZM216.445 499.866C215.533 500.766 214.417 501.216 213.097 501.216C211.777 501.216 210.655 500.766 209.731 499.866C208.819 498.954 208.363 497.832 208.363 496.5C208.363 495.168 208.819 494.052 209.731 493.152C210.655 492.24 211.777 491.784 213.097 491.784C214.417 491.784 215.533 492.24 216.445 493.152C217.369 494.052 217.831 495.168 217.831 496.5C217.831 497.832 217.369 498.954 216.445 499.866ZM210.577 499.038C211.261 499.722 212.101 500.064 213.097 500.064C214.093 500.064 214.933 499.722 215.617 499.038C216.301 498.342 216.643 497.496 216.643 496.5C216.643 495.504 216.301 494.664 215.617 493.98C214.933 493.284 214.093 492.936 213.097 492.936C212.101 492.936 211.261 493.284 210.577 493.98C209.893 494.664 209.551 495.504 209.551 496.5C209.551 497.496 209.893 498.342 210.577 499.038ZM225.543 496.374C226.527 496.734 227.019 497.436 227.019 498.48C227.019 499.212 226.773 499.818 226.281 500.298C225.801 500.766 225.105 501 224.193 501H219.819V492H223.833C224.709 492 225.387 492.228 225.867 492.684C226.347 493.128 226.587 493.704 226.587 494.412C226.587 495.312 226.239 495.966 225.543 496.374ZM223.833 493.152H221.007V495.888H223.833C224.877 495.888 225.399 495.42 225.399 494.484C225.399 494.064 225.261 493.74 224.985 493.512C224.721 493.272 224.337 493.152 223.833 493.152ZM224.193 499.848C224.721 499.848 225.123 499.722 225.399 499.47C225.687 499.218 225.831 498.864 225.831 498.408C225.831 497.988 225.687 497.658 225.399 497.418C225.123 497.166 224.721 497.04 224.193 497.04H221.007V499.848H224.193ZM236.559 492H237.747V501H236.559V499.236C235.731 500.556 234.519 501.216 232.923 501.216C231.639 501.216 230.541 500.76 229.629 499.848C228.729 498.936 228.279 497.82 228.279 496.5C228.279 495.18 228.729 494.064 229.629 493.152C230.541 492.24 231.639 491.784 232.923 491.784C234.519 491.784 235.731 492.444 236.559 493.764V492ZM230.493 499.038C231.177 499.722 232.017 500.064 233.013 500.064C234.009 500.064 234.849 499.722 235.533 499.038C236.217 498.342 236.559 497.496 236.559 496.5C236.559 495.504 236.217 494.664 235.533 493.98C234.849 493.284 234.009 492.936 233.013 492.936C232.017 492.936 231.177 493.284 230.493 493.98C229.809 494.664 229.467 495.504 229.467 496.5C229.467 497.496 229.809 498.342 230.493 499.038ZM246.742 492V493.152H243.556V501H242.368V493.152H239.182V492H246.742ZM251.844 495.42C252.684 495.42 253.392 495.684 253.968 496.212C254.556 496.728 254.85 497.394 254.85 498.21C254.85 499.026 254.556 499.698 253.968 500.226C253.392 500.742 252.684 501 251.844 501H248.19V492H249.378V495.42H251.844ZM251.844 499.848C252.348 499.848 252.774 499.698 253.122 499.398C253.482 499.098 253.662 498.702 253.662 498.21C253.662 497.718 253.482 497.322 253.122 497.022C252.774 496.722 252.348 496.572 251.844 496.572H249.378V499.848H251.844ZM267.517 492H268.705V501H267.517V497.076H262.333V501H261.145V492H262.333V495.924H267.517V492ZM278.957 492H280.145V501H278.957V499.236C278.129 500.556 276.917 501.216 275.321 501.216C274.037 501.216 272.939 500.76 272.027 499.848C271.127 498.936 270.677 497.82 270.677 496.5C270.677 495.18 271.127 494.064 272.027 493.152C272.939 492.24 274.037 491.784 275.321 491.784C276.917 491.784 278.129 492.444 278.957 493.764V492ZM272.891 499.038C273.575 499.722 274.415 500.064 275.411 500.064C276.407 500.064 277.247 499.722 277.931 499.038C278.615 498.342 278.957 497.496 278.957 496.5C278.957 495.504 278.615 494.664 277.931 493.98C277.247 493.284 276.407 492.936 275.411 492.936C274.415 492.936 273.575 493.284 272.891 493.98C272.207 494.664 271.865 495.504 271.865 496.5C271.865 497.496 272.207 498.342 272.891 499.038ZM294.72 499.848H295.98V503.412H294.792V501H287.448V503.412H286.26V499.848H287.358C287.97 499.044 288.276 497.91 288.276 496.446V492H294.72V499.848ZM288.798 499.848H293.532V493.152H289.464V496.446C289.464 497.826 289.242 498.96 288.798 499.848ZM304.968 499.866C304.056 500.766 302.94 501.216 301.62 501.216C300.3 501.216 299.178 500.766 298.254 499.866C297.342 498.954 296.886 497.832 296.886 496.5C296.886 495.168 297.342 494.052 298.254 493.152C299.178 492.24 300.3 491.784 301.62 491.784C302.94 491.784 304.056 492.24 304.968 493.152C305.892 494.052 306.354 495.168 306.354 496.5C306.354 497.832 305.892 498.954 304.968 499.866ZM299.1 499.038C299.784 499.722 300.624 500.064 301.62 500.064C302.616 500.064 303.456 499.722 304.14 499.038C304.824 498.342 305.166 497.496 305.166 496.5C305.166 495.504 304.824 494.664 304.14 493.98C303.456 493.284 302.616 492.936 301.62 492.936C300.624 492.936 299.784 493.284 299.1 493.98C298.416 494.664 298.074 495.504 298.074 496.5C298.074 497.496 298.416 498.342 299.1 499.038ZM313.166 491.784C314.45 491.784 315.542 492.24 316.442 493.152C317.354 494.064 317.81 495.18 317.81 496.5C317.81 497.82 317.354 498.936 316.442 499.848C315.542 500.76 314.45 501.216 313.166 501.216C311.57 501.216 310.358 500.556 309.53 499.236V504.6H308.342V492H309.53V493.764C310.358 492.444 311.57 491.784 313.166 491.784ZM310.556 499.038C311.24 499.722 312.08 500.064 313.076 500.064C314.072 500.064 314.912 499.722 315.596 499.038C316.28 498.342 316.622 497.496 316.622 496.5C316.622 495.504 316.28 494.664 315.596 493.98C314.912 493.284 314.072 492.936 313.076 492.936C312.08 492.936 311.24 493.284 310.556 493.98C309.872 494.664 309.53 495.504 309.53 496.5C309.53 497.496 309.872 498.342 310.556 499.038ZM327.327 499.866C326.415 500.766 325.299 501.216 323.979 501.216C322.659 501.216 321.537 500.766 320.613 499.866C319.701 498.954 319.245 497.832 319.245 496.5C319.245 495.168 319.701 494.052 320.613 493.152C321.537 492.24 322.659 491.784 323.979 491.784C325.299 491.784 326.415 492.24 327.327 493.152C328.251 494.052 328.713 495.168 328.713 496.5C328.713 497.832 328.251 498.954 327.327 499.866ZM321.459 499.038C322.143 499.722 322.983 500.064 323.979 500.064C324.975 500.064 325.815 499.722 326.499 499.038C327.183 498.342 327.525 497.496 327.525 496.5C327.525 495.504 327.183 494.664 326.499 493.98C325.815 493.284 324.975 492.936 323.979 492.936C322.983 492.936 322.143 493.284 321.459 493.98C320.775 494.664 320.433 495.504 320.433 496.5C320.433 497.496 320.775 498.342 321.459 499.038ZM336.461 492V493.152H331.889V501H330.701V492H336.461ZM341.715 491.784C343.047 491.784 344.121 492.258 344.937 493.206C345.765 494.142 346.179 495.252 346.179 496.536C346.179 496.668 346.167 496.854 346.143 497.094H338.241C338.361 498.006 338.745 498.732 339.393 499.272C340.053 499.8 340.863 500.064 341.823 500.064C342.507 500.064 343.095 499.926 343.587 499.65C344.091 499.362 344.469 498.99 344.721 498.534L345.765 499.146C345.369 499.782 344.829 500.286 344.145 500.658C343.461 501.03 342.681 501.216 341.805 501.216C340.389 501.216 339.237 500.772 338.349 499.884C337.461 498.996 337.017 497.868 337.017 496.5C337.017 495.156 337.455 494.034 338.331 493.134C339.207 492.234 340.335 491.784 341.715 491.784ZM341.715 492.936C340.779 492.936 339.993 493.218 339.357 493.782C338.733 494.334 338.361 495.054 338.241 495.942H344.955C344.835 494.994 344.469 494.256 343.857 493.728C343.245 493.2 342.531 492.936 341.715 492.936Z" fill="#CDFFE3" fill-opacity="0.6"></path> <path d="M47.296 84.136L60.8 101H65.952V78.6H61.536V95.464L48.032 78.6H42.88V101H47.296V84.136ZM80.4918 97.768C77.4838 97.768 75.1478 96.456 74.5398 94.12H88.2998C88.4918 93.384 88.5878 92.648 88.5878 91.944C88.5878 87.624 84.9398 84.456 80.0758 84.456C74.7318 84.456 70.1878 87.656 70.1878 93C70.1878 97.8 74.1238 101.576 80.0758 101.576C83.0198 101.576 86.0278 100.584 88.1718 99.496L86.9237 96.168C84.6518 97.352 82.6678 97.768 80.4918 97.768ZM79.8198 88.008C82.3158 88.008 83.9158 89.128 84.3318 91.016H74.6358C75.2758 89.064 77.0677 88.008 79.8198 88.008ZM94.39 85H89.75L97.302 101H101.942L109.526 85H104.822L99.638 96.232L94.39 85ZM121.179 97.768C118.171 97.768 115.835 96.456 115.227 94.12H128.987C129.179 93.384 129.275 92.648 129.275 91.944C129.275 87.624 125.627 84.456 120.763 84.456C115.419 84.456 110.875 87.656 110.875 93C110.875 97.8 114.811 101.576 120.763 101.576C123.707 101.576 126.715 100.584 128.859 99.496L127.611 96.168C125.339 97.352 123.355 97.768 121.179 97.768ZM120.507 88.008C123.003 88.008 124.603 89.128 125.019 91.016H115.323C115.963 89.064 117.755 88.008 120.507 88.008ZM142.982 84.456C140.198 84.456 137.99 86.824 137.062 88.552V85H132.838V101H137.062V93.064C137.062 90.12 139.91 88.392 142.566 88.392C143.174 88.392 144.006 88.584 144.774 88.936L145.67 85.096C144.87 84.712 143.878 84.456 142.982 84.456ZM166.436 88.424C168.964 88.424 170.276 89.992 170.276 92.264V101H174.5V91.752C174.5 87.4 172.004 84.52 167.652 84.52C164.612 84.52 162.244 86.472 161.124 88.552V77.288H156.9V101H161.124V93.064C161.124 89.896 163.78 88.424 166.436 88.424ZM184.75 91.88C181.454 91.88 178.19 93.352 178.19 96.776C178.19 99.656 180.43 101.64 183.438 101.64C186.158 101.64 188.59 100.168 190.126 98.344C190.19 100.136 191.086 101.64 193.23 101.64C194.542 101.64 196.462 101 198.222 100.04L197.358 96.776C196.43 97.256 195.598 97.608 195.118 97.608C194.67 97.608 194.35 97.32 194.35 96.84V91.08C194.35 86.696 191.79 84.36 187.406 84.36C184.878 84.36 181.518 85.352 179.534 85.992L180.59 89.832C182.926 88.968 185.358 88.232 187.022 88.232C189.038 88.232 190.126 89.352 190.126 91.016V92.872C188.75 92.392 186.478 91.88 184.75 91.88ZM184.814 98.024C183.47 98.024 182.51 97.48 182.51 96.424C182.51 95.272 183.566 94.6 184.974 94.6C186.51 94.6 188.366 94.76 190.126 95.08V95.688C188.622 97.16 186.414 98.024 184.814 98.024ZM202.859 85H198.219L205.771 101H210.411L217.995 85H213.291L208.107 96.232L202.859 85ZM229.648 97.768C226.64 97.768 224.304 96.456 223.696 94.12H237.456C237.648 93.384 237.744 92.648 237.744 91.944C237.744 87.624 234.096 84.456 229.232 84.456C223.888 84.456 219.344 87.656 219.344 93C219.344 97.8 223.28 101.576 229.232 101.576C232.176 101.576 235.184 100.584 237.328 99.496L236.08 96.168C233.808 97.352 231.824 97.768 229.648 97.768ZM228.976 88.008C231.472 88.008 233.072 89.128 233.488 91.016H223.792C224.432 89.064 226.224 88.008 228.976 88.008ZM255.265 78.6H250.849V101H255.265V78.6ZM278.867 97.768C275.859 97.768 273.523 96.456 272.915 94.12H286.675C286.867 93.384 286.963 92.648 286.963 91.944C286.963 87.624 283.315 84.456 278.451 84.456C273.107 84.456 268.563 87.656 268.563 93C268.563 97.8 272.499 101.576 278.451 101.576C281.395 101.576 284.403 100.584 286.547 99.496L285.299 96.168C283.027 97.352 281.043 97.768 278.867 97.768ZM278.195 88.008C280.691 88.008 282.291 89.128 282.707 91.016H273.011C273.651 89.064 275.443 88.008 278.195 88.008ZM292.765 85H288.125L295.677 101H300.317L307.901 85H303.197L298.013 96.232L292.765 85ZM319.554 97.768C316.546 97.768 314.21 96.456 313.602 94.12H327.362C327.554 93.384 327.65 92.648 327.65 91.944C327.65 87.624 324.002 84.456 319.138 84.456C313.794 84.456 309.25 87.656 309.25 93C309.25 97.8 313.186 101.576 319.138 101.576C322.082 101.576 325.09 100.584 327.234 99.496L325.986 96.168C323.714 97.352 321.73 97.768 319.554 97.768ZM318.882 88.008C321.378 88.008 322.978 89.128 323.394 91.016H313.698C314.338 89.064 316.13 88.008 318.882 88.008ZM341.357 84.456C338.573 84.456 336.365 86.824 335.437 88.552V85H331.213V101H335.437V93.064C335.437 90.12 338.285 88.392 340.941 88.392C341.549 88.392 342.381 88.584 343.149 88.936L344.045 85.096C343.245 84.712 342.253 84.456 341.357 84.456ZM51.936 128.424C54.464 128.424 55.776 129.992 55.776 132.264V141H60V131.752C60 127.4 57.504 124.52 53.152 124.52C50.112 124.52 47.744 126.472 46.624 128.552V117.288H42.4V141H46.624V133.064C46.624 129.896 49.28 128.424 51.936 128.424ZM68.874 125H64.714V141H68.874V125ZM64.266 120.392C64.266 121.8 65.386 122.92 66.794 122.92C68.202 122.92 69.322 121.8 69.322 120.392C69.322 119.016 68.202 117.896 66.794 117.896C65.386 117.896 64.266 119.016 64.266 120.392ZM71.9838 128.68H75.0238V134.888C75.0238 138.92 77.1678 141.544 81.1358 141.544C82.8318 141.544 85.1038 140.808 86.4478 140.104L85.5198 136.488C84.4958 137.128 83.0878 137.64 81.8398 137.64C80.1758 137.64 79.2478 136.456 79.2478 134.728V128.68H85.9038V125H79.2478V120.2H75.7278L75.1518 125.128L71.9838 125.32V128.68ZM98.482 124.456C93.138 124.456 88.594 127.656 88.594 133C88.594 137.8 92.242 141.576 98.194 141.576C101.202 141.576 103.954 140.648 106.13 139.496L104.882 136.168C102.77 137.096 101.074 137.768 98.738 137.768C95.41 137.768 92.85 135.912 92.85 132.84C92.85 129.928 95.154 128.168 98.226 128.168C100.402 128.168 102.258 128.616 104.466 129.512L105.49 125.736C103.57 125.064 101.138 124.456 98.482 124.456ZM118.874 128.424C121.402 128.424 122.714 129.992 122.714 132.264V141H126.938V131.752C126.938 127.4 124.442 124.52 120.09 124.52C117.05 124.52 114.682 126.472 113.562 128.552V117.288H109.338V141H113.562V133.064C113.562 129.896 116.218 128.424 118.874 128.424ZM141.124 128.424C143.652 128.424 144.964 129.992 144.964 132.264V141H149.188V131.752C149.188 127.4 146.692 124.52 142.34 124.52C139.3 124.52 136.932 126.472 135.812 128.552V117.288H131.588V141H135.812V133.064C135.812 129.896 138.468 128.424 141.124 128.424ZM158.062 125H153.902V141H158.062V125ZM153.454 120.392C153.454 121.8 154.574 122.92 155.982 122.92C157.39 122.92 158.51 121.8 158.51 120.392C158.51 119.016 157.39 117.896 155.982 117.896C154.574 117.896 153.454 119.016 153.454 120.392ZM167.091 117H162.931V141H167.091V117ZM172.947 139.848C173.811 140.872 174.835 141.416 175.923 141.416C177.203 141.416 178.579 140.808 180.051 140.168L179.059 136.744C178.291 137.064 177.587 137.416 176.947 137.416C176.595 137.416 176.275 137.32 175.987 137.032L172.243 133.16L179.955 125H174.547L167.315 133.288L172.947 139.848ZM192.492 137.768C189.484 137.768 187.148 136.456 186.54 134.12H200.3C200.492 133.384 200.588 132.648 200.588 131.944C200.588 127.624 196.94 124.456 192.076 124.456C186.732 124.456 182.188 127.656 182.188 133C182.188 137.8 186.124 141.576 192.076 141.576C195.02 141.576 198.028 140.584 200.172 139.496L198.924 136.168C196.652 137.352 194.668 137.768 192.492 137.768ZM191.82 128.008C194.316 128.008 195.916 129.128 196.332 131.016H186.636C187.276 129.064 189.068 128.008 191.82 128.008ZM211.158 141.544C214.422 141.544 216.982 139.656 218.038 137.448V141H222.262V117H218.038V125.576C216.438 125.064 214.23 124.424 212.502 124.424C207.126 124.424 203.094 128.36 203.094 133.16C203.094 138.344 206.774 141.544 211.158 141.544ZM212.406 137.608C209.558 137.608 207.35 136.008 207.35 133.128C207.35 130.312 209.558 128.136 212.438 128.136C214.39 128.136 216.182 128.552 218.038 129.096V132.552C218.038 135.624 215.222 137.608 212.406 137.608Z" fill="#CDFFE3"></path> <path d="M44.194 220L40.54 207.4H41.872L44.986 218.29L48.262 207.4H49.738L53.014 218.29L56.128 207.4H57.46L53.806 220H52.294L49 209.056L45.706 220H44.194ZM63.1204 210.784C64.2124 210.784 65.0704 211.12 65.6944 211.792C66.3304 212.452 66.6484 213.346 66.6484 214.474V220H65.4604V214.474C65.4604 213.67 65.2444 213.046 64.8124 212.602C64.3924 212.158 63.7924 211.936 63.0124 211.936C62.1484 211.936 61.4464 212.212 60.9064 212.764C60.3664 213.304 60.0964 214.144 60.0964 215.284V220H58.9084V207.4H60.0964V212.404C60.7684 211.324 61.7764 210.784 63.1204 210.784ZM73.1035 210.784C74.4355 210.784 75.5095 211.258 76.3255 212.206C77.1535 213.142 77.5675 214.252 77.5675 215.536C77.5675 215.668 77.5555 215.854 77.5315 216.094H69.6295C69.7495 217.006 70.1335 217.732 70.7815 218.272C71.4415 218.8 72.2515 219.064 73.2115 219.064C73.8955 219.064 74.4835 218.926 74.9755 218.65C75.4795 218.362 75.8575 217.99 76.1095 217.534L77.1535 218.146C76.7575 218.782 76.2175 219.286 75.5335 219.658C74.8495 220.03 74.0695 220.216 73.1935 220.216C71.7775 220.216 70.6255 219.772 69.7375 218.884C68.8495 217.996 68.4055 216.868 68.4055 215.5C68.4055 214.156 68.8435 213.034 69.7195 212.134C70.5955 211.234 71.7235 210.784 73.1035 210.784ZM73.1035 211.936C72.1675 211.936 71.3815 212.218 70.7455 212.782C70.1215 213.334 69.7495 214.054 69.6295 214.942H76.3435C76.2235 213.994 75.8575 213.256 75.2455 212.728C74.6335 212.2 73.9195 211.936 73.1035 211.936ZM80.6453 212.494C81.1973 211.402 82.1453 210.856 83.4893 210.856V212.008C82.6733 212.008 81.9953 212.248 81.4553 212.728C80.9153 213.208 80.6453 213.964 80.6453 214.996V220H79.4573V211H80.6453V212.494ZM88.7305 210.784C90.0625 210.784 91.1365 211.258 91.9525 212.206C92.7805 213.142 93.1945 214.252 93.1945 215.536C93.1945 215.668 93.1825 215.854 93.1585 216.094H85.2565C85.3765 217.006 85.7605 217.732 86.4085 218.272C87.0685 218.8 87.8785 219.064 88.8385 219.064C89.5225 219.064 90.1105 218.926 90.6025 218.65C91.1065 218.362 91.4845 217.99 91.7365 217.534L92.7805 218.146C92.3845 218.782 91.8445 219.286 91.1605 219.658C90.4765 220.03 89.6965 220.216 88.8205 220.216C87.4045 220.216 86.2525 219.772 85.3645 218.884C84.4765 217.996 84.0325 216.868 84.0325 215.5C84.0325 214.156 84.4705 213.034 85.3465 212.134C86.2225 211.234 87.3505 210.784 88.7305 210.784ZM88.7305 211.936C87.7945 211.936 87.0085 212.218 86.3725 212.782C85.7485 213.334 85.3765 214.054 85.2565 214.942H91.9705C91.8505 213.994 91.4845 213.256 90.8725 212.728C90.2605 212.2 89.5465 211.936 88.7305 211.936ZM107.324 207.4H108.512V220H107.324V218.236C106.496 219.556 105.284 220.216 103.688 220.216C102.404 220.216 101.306 219.76 100.394 218.848C99.4942 217.936 99.0442 216.82 99.0442 215.5C99.0442 214.18 99.4942 213.064 100.394 212.152C101.306 211.24 102.404 210.784 103.688 210.784C105.284 210.784 106.496 211.444 107.324 212.764V207.4ZM101.258 218.038C101.942 218.722 102.782 219.064 103.778 219.064C104.774 219.064 105.614 218.722 106.298 218.038C106.982 217.342 107.324 216.496 107.324 215.5C107.324 214.504 106.982 213.664 106.298 212.98C105.614 212.284 104.774 211.936 103.778 211.936C102.782 211.936 101.942 212.284 101.258 212.98C100.574 213.664 100.232 214.504 100.232 215.5C100.232 216.496 100.574 217.342 101.258 218.038ZM112.234 208.84C112.066 209.008 111.862 209.092 111.622 209.092C111.382 209.092 111.178 209.008 111.01 208.84C110.842 208.672 110.758 208.468 110.758 208.228C110.758 207.988 110.842 207.784 111.01 207.616C111.178 207.448 111.382 207.364 111.622 207.364C111.862 207.364 112.066 207.448 112.234 207.616C112.402 207.784 112.486 207.988 112.486 208.228C112.486 208.468 112.402 208.672 112.234 208.84ZM111.028 220V211H112.216V220H111.028ZM122.477 207.4H123.665V220H122.477V218.236C121.649 219.556 120.437 220.216 118.841 220.216C117.557 220.216 116.459 219.76 115.547 218.848C114.647 217.936 114.197 216.82 114.197 215.5C114.197 214.18 114.647 213.064 115.547 212.152C116.459 211.24 117.557 210.784 118.841 210.784C120.437 210.784 121.649 211.444 122.477 212.764V207.4ZM116.411 218.038C117.095 218.722 117.935 219.064 118.931 219.064C119.927 219.064 120.767 218.722 121.451 218.038C122.135 217.342 122.477 216.496 122.477 215.5C122.477 214.504 122.135 213.664 121.451 212.98C120.767 212.284 119.927 211.936 118.931 211.936C117.935 211.936 117.095 212.284 116.411 212.98C115.727 213.664 115.385 214.504 115.385 215.5C115.385 216.496 115.727 217.342 116.411 218.038ZM137.16 211H138.42L134.568 220.828C134.22 221.716 133.722 222.412 133.074 222.916C132.438 223.432 131.724 223.66 130.932 223.6V222.484C132.012 222.604 132.834 221.98 133.398 220.612L133.632 220.054L129.6 211H130.86L134.244 218.542L137.16 211ZM147.046 218.866C146.134 219.766 145.018 220.216 143.698 220.216C142.378 220.216 141.256 219.766 140.332 218.866C139.42 217.954 138.964 216.832 138.964 215.5C138.964 214.168 139.42 213.052 140.332 212.152C141.256 211.24 142.378 210.784 143.698 210.784C145.018 210.784 146.134 211.24 147.046 212.152C147.97 213.052 148.432 214.168 148.432 215.5C148.432 216.832 147.97 217.954 147.046 218.866ZM141.178 218.038C141.862 218.722 142.702 219.064 143.698 219.064C144.694 219.064 145.534 218.722 146.218 218.038C146.902 217.342 147.244 216.496 147.244 215.5C147.244 214.504 146.902 213.664 146.218 212.98C145.534 212.284 144.694 211.936 143.698 211.936C142.702 211.936 141.862 212.284 141.178 212.98C140.494 213.664 140.152 214.504 140.152 215.5C140.152 216.496 140.494 217.342 141.178 218.038ZM156.756 211H157.944V220H156.756V218.596C156.084 219.676 155.076 220.216 153.732 220.216C152.64 220.216 151.776 219.886 151.14 219.226C150.516 218.554 150.204 217.654 150.204 216.526V211H151.392V216.526C151.392 217.33 151.602 217.954 152.022 218.398C152.454 218.842 153.06 219.064 153.84 219.064C154.704 219.064 155.406 218.794 155.946 218.254C156.486 217.702 156.756 216.856 156.756 215.716V211ZM172.697 211H173.885V219.64C173.885 220.936 173.441 221.956 172.553 222.7C171.665 223.444 170.603 223.816 169.367 223.816C167.255 223.816 165.833 223.084 165.101 221.62L166.145 221.026C166.685 222.118 167.759 222.664 169.367 222.664C170.399 222.664 171.209 222.388 171.797 221.836C172.397 221.296 172.697 220.564 172.697 219.64V218.236C171.869 219.556 170.657 220.216 169.061 220.216C167.777 220.216 166.679 219.76 165.767 218.848C164.867 217.936 164.417 216.82 164.417 215.5C164.417 214.18 164.867 213.064 165.767 212.152C166.679 211.24 167.777 210.784 169.061 210.784C170.657 210.784 171.869 211.444 172.697 212.764V211ZM166.631 218.038C167.315 218.722 168.155 219.064 169.151 219.064C170.147 219.064 170.987 218.722 171.671 218.038C172.355 217.342 172.697 216.496 172.697 215.5C172.697 214.504 172.355 213.664 171.671 212.98C170.987 212.284 170.147 211.936 169.151 211.936C168.155 211.936 167.315 212.284 166.631 212.98C165.947 213.664 165.605 214.504 165.605 215.5C165.605 216.496 165.947 217.342 166.631 218.038ZM183.943 218.866C183.031 219.766 181.915 220.216 180.595 220.216C179.275 220.216 178.153 219.766 177.229 218.866C176.317 217.954 175.861 216.832 175.861 215.5C175.861 214.168 176.317 213.052 177.229 212.152C178.153 211.24 179.275 210.784 180.595 210.784C181.915 210.784 183.031 211.24 183.943 212.152C184.867 213.052 185.329 214.168 185.329 215.5C185.329 216.832 184.867 217.954 183.943 218.866ZM178.075 218.038C178.759 218.722 179.599 219.064 180.595 219.064C181.591 219.064 182.431 218.722 183.115 218.038C183.799 217.342 184.141 216.496 184.141 215.5C184.141 214.504 183.799 213.664 183.115 212.98C182.431 212.284 181.591 211.936 180.595 211.936C179.599 211.936 178.759 212.284 178.075 212.98C177.391 213.664 177.049 214.504 177.049 215.5C177.049 216.496 177.391 217.342 178.075 218.038ZM196.587 212.152H193.995V217.606C193.995 218.098 194.091 218.452 194.283 218.668C194.475 218.872 194.763 218.98 195.147 218.992C195.531 218.992 196.011 218.98 196.587 218.956V220C195.327 220.192 194.379 220.102 193.743 219.73C193.119 219.358 192.807 218.65 192.807 217.606V212.152H190.917V211H192.807V208.84L193.995 208.48V211H196.587V212.152ZM205.564 218.866C204.652 219.766 203.536 220.216 202.216 220.216C200.896 220.216 199.774 219.766 198.85 218.866C197.938 217.954 197.482 216.832 197.482 215.5C197.482 214.168 197.938 213.052 198.85 212.152C199.774 211.24 200.896 210.784 202.216 210.784C203.536 210.784 204.652 211.24 205.564 212.152C206.488 213.052 206.95 214.168 206.95 215.5C206.95 216.832 206.488 217.954 205.564 218.866ZM199.696 218.038C200.38 218.722 201.22 219.064 202.216 219.064C203.212 219.064 204.052 218.722 204.736 218.038C205.42 217.342 205.762 216.496 205.762 215.5C205.762 214.504 205.42 213.664 204.736 212.98C204.052 212.284 203.212 211.936 202.216 211.936C201.22 211.936 200.38 212.284 199.696 212.98C199.012 213.664 198.67 214.504 198.67 215.5C198.67 216.496 199.012 217.342 199.696 218.038ZM210.192 216.58C210.192 215.992 210.312 215.458 210.552 214.978C210.792 214.486 211.08 214.072 211.416 213.736C211.752 213.4 212.088 213.076 212.424 212.764C212.76 212.452 213.048 212.11 213.288 211.738C213.528 211.354 213.648 210.946 213.648 210.514C213.648 209.818 213.408 209.296 212.928 208.948C212.46 208.588 211.854 208.408 211.11 208.408C209.634 208.408 208.722 209.014 208.374 210.226L207.312 209.632C207.588 208.828 208.068 208.222 208.752 207.814C209.448 207.394 210.234 207.184 211.11 207.184C212.166 207.184 213.06 207.478 213.792 208.066C214.536 208.642 214.908 209.458 214.908 210.514C214.908 211.03 214.788 211.51 214.548 211.954C214.308 212.398 214.02 212.788 213.684 213.124C213.348 213.448 213.012 213.772 212.676 214.096C212.34 214.42 212.052 214.798 211.812 215.23C211.572 215.65 211.452 216.1 211.452 216.58H210.192ZM211.524 219.892C211.332 220.084 211.098 220.18 210.822 220.18C210.546 220.18 210.312 220.084 210.12 219.892C209.928 219.7 209.832 219.466 209.832 219.19C209.832 218.914 209.928 218.68 210.12 218.488C210.312 218.296 210.546 218.2 210.822 218.2C211.098 218.2 211.332 218.296 211.524 218.488C211.716 218.68 211.812 218.914 211.812 219.19C211.812 219.466 211.716 219.7 211.524 219.892Z" fill="#CDFFE3"></path> </svg> 