<?xml version="1.0" encoding="UTF-8"?> <svg xmlns="http://www.w3.org/2000/svg" width="400" height="600" viewBox="0 0 400 600" fill="none"> <rect width="400" height="600" rx="20" fill="#36BB71"></rect> <path d="M47.296 84.136L60.8 101H65.952V78.6H61.536V95.464L48.032 78.6H42.88V101H47.296V84.136ZM80.4918 97.768C77.4838 97.768 75.1478 96.456 74.5398 94.12H88.2998C88.4918 93.384 88.5878 92.648 88.5878 91.944C88.5878 87.624 84.9398 84.456 80.0758 84.456C74.7318 84.456 70.1878 87.656 70.1878 93C70.1878 97.8 74.1238 101.576 80.0758 101.576C83.0198 101.576 86.0278 100.584 88.1718 99.496L86.9237 96.168C84.6518 97.352 82.6678 97.768 80.4918 97.768ZM79.8198 88.008C82.3158 88.008 83.9158 89.128 84.3318 91.016H74.6358C75.2758 89.064 77.0677 88.008 79.8198 88.008ZM94.39 85H89.75L97.302 101H101.942L109.526 85H104.822L99.638 96.232L94.39 85ZM121.179 97.768C118.171 97.768 115.835 96.456 115.227 94.12H128.987C129.179 93.384 129.275 92.648 129.275 91.944C129.275 87.624 125.627 84.456 120.763 84.456C115.419 84.456 110.875 87.656 110.875 93C110.875 97.8 114.811 101.576 120.763 101.576C123.707 101.576 126.715 100.584 128.859 99.496L127.611 96.168C125.339 97.352 123.355 97.768 121.179 97.768ZM120.507 88.008C123.003 88.008 124.603 89.128 125.019 91.016H115.323C115.963 89.064 117.755 88.008 120.507 88.008ZM142.982 84.456C140.198 84.456 137.99 86.824 137.062 88.552V85H132.838V101H137.062V93.064C137.062 90.12 139.91 88.392 142.566 88.392C143.174 88.392 144.006 88.584 144.774 88.936L145.67 85.096C144.87 84.712 143.878 84.456 142.982 84.456ZM166.436 88.424C168.964 88.424 170.276 89.992 170.276 92.264V101H174.5V91.752C174.5 87.4 172.004 84.52 167.652 84.52C164.612 84.52 162.244 86.472 161.124 88.552V77.288H156.9V101H161.124V93.064C161.124 89.896 163.78 88.424 166.436 88.424ZM184.75 91.88C181.454 91.88 178.19 93.352 178.19 96.776C178.19 99.656 180.43 101.64 183.438 101.64C186.158 101.64 188.59 100.168 190.126 98.344C190.19 100.136 191.086 101.64 193.23 101.64C194.542 101.64 196.462 101 198.222 100.04L197.358 96.776C196.43 97.256 195.598 97.608 195.118 97.608C194.67 97.608 194.35 97.32 194.35 96.84V91.08C194.35 86.696 191.79 84.36 187.406 84.36C184.878 84.36 181.518 85.352 179.534 85.992L180.59 89.832C182.926 88.968 185.358 88.232 187.022 88.232C189.038 88.232 190.126 89.352 190.126 91.016V92.872C188.75 92.392 186.478 91.88 184.75 91.88ZM184.814 98.024C183.47 98.024 182.51 97.48 182.51 96.424C182.51 95.272 183.566 94.6 184.974 94.6C186.51 94.6 188.366 94.76 190.126 95.08V95.688C188.622 97.16 186.414 98.024 184.814 98.024ZM202.859 85H198.219L205.771 101H210.411L217.995 85H213.291L208.107 96.232L202.859 85ZM229.648 97.768C226.64 97.768 224.304 96.456 223.696 94.12H237.456C237.648 93.384 237.744 92.648 237.744 91.944C237.744 87.624 234.096 84.456 229.232 84.456C223.888 84.456 219.344 87.656 219.344 93C219.344 97.8 223.28 101.576 229.232 101.576C232.176 101.576 235.184 100.584 237.328 99.496L236.08 96.168C233.808 97.352 231.824 97.768 229.648 97.768ZM228.976 88.008C231.472 88.008 233.072 89.128 233.488 91.016H223.792C224.432 89.064 226.224 88.008 228.976 88.008ZM255.265 78.6H250.849V101H255.265V78.6ZM278.867 97.768C275.859 97.768 273.523 96.456 272.915 94.12H286.675C286.867 93.384 286.963 92.648 286.963 91.944C286.963 87.624 283.315 84.456 278.451 84.456C273.107 84.456 268.563 87.656 268.563 93C268.563 97.8 272.499 101.576 278.451 101.576C281.395 101.576 284.403 100.584 286.547 99.496L285.299 96.168C283.027 97.352 281.043 97.768 278.867 97.768ZM278.195 88.008C280.691 88.008 282.291 89.128 282.707 91.016H273.011C273.651 89.064 275.443 88.008 278.195 88.008ZM292.765 85H288.125L295.677 101H300.317L307.901 85H303.197L298.013 96.232L292.765 85ZM319.554 97.768C316.546 97.768 314.21 96.456 313.602 94.12H327.362C327.554 93.384 327.65 92.648 327.65 91.944C327.65 87.624 324.002 84.456 319.138 84.456C313.794 84.456 309.25 87.656 309.25 93C309.25 97.8 313.186 101.576 319.138 101.576C322.082 101.576 325.09 100.584 327.234 99.496L325.986 96.168C323.714 97.352 321.73 97.768 319.554 97.768ZM318.882 88.008C321.378 88.008 322.978 89.128 323.394 91.016H313.698C314.338 89.064 316.13 88.008 318.882 88.008ZM341.357 84.456C338.573 84.456 336.365 86.824 335.437 88.552V85H331.213V101H335.437V93.064C335.437 90.12 338.285 88.392 340.941 88.392C341.549 88.392 342.381 88.584 343.149 88.936L344.045 85.096C343.245 84.712 342.253 84.456 341.357 84.456ZM48.096 138.888C47.04 138.888 46.496 138.504 46.496 137.96C46.496 137.512 46.912 137.192 47.296 137.096C48.032 137.224 48.832 137.288 49.632 137.288C54.464 137.288 57.984 134.536 57.984 130.888C57.984 129.8 57.696 128.84 57.248 128.04C58.016 127.656 58.912 127.432 60.032 127.304L59.264 123.368C57.216 123.72 55.616 124.488 54.4 125.48C53.024 124.808 51.36 124.456 49.632 124.456C45.248 124.456 41.312 126.664 41.312 130.888C41.312 132.616 42.688 134.376 44.16 135.336C43.36 135.848 42.432 136.68 42.432 137.736C42.432 138.76 43.104 139.88 43.968 140.296C42.368 140.712 40.672 142.28 40.672 143.976C40.672 147.336 44.448 149.096 50.272 149.096C55.744 149.096 59.776 147.304 59.776 143.656C59.776 140.328 55.744 138.888 50.272 138.888H48.096ZM49.6 127.944C51.872 127.944 53.6 128.936 53.6 130.76C53.6 132.264 52.032 133.512 49.6 133.512C47.296 133.512 45.568 132.36 45.568 130.76C45.568 128.936 47.296 127.944 49.6 127.944ZM50.208 142.472C53.504 142.472 55.68 142.92 55.68 144.008C55.68 145.192 53.504 145.64 50.208 145.64C46.688 145.64 44.736 145.128 44.736 143.976C44.736 143.336 45.344 142.792 46.048 142.504C46.592 142.472 49.568 142.472 50.208 142.472ZM71.4835 124.456C66.1395 124.456 61.5315 127.496 61.5315 132.84C61.5315 137.64 65.6915 141.576 71.4835 141.576C77.2755 141.576 81.4355 137.64 81.4355 132.84C81.4355 127.496 76.8275 124.456 71.4835 124.456ZM71.4835 128.136C74.8115 128.136 77.1795 129.864 77.1795 132.84C77.1795 135.528 74.6515 137.928 71.4835 137.928C68.3155 137.928 65.7875 135.528 65.7875 132.84C65.7875 129.864 68.1555 128.136 71.4835 128.136ZM83.4213 128.68H86.4613V134.888C86.4613 138.92 88.6053 141.544 92.5733 141.544C94.2693 141.544 96.5413 140.808 97.8853 140.104L96.9573 136.488C95.9333 137.128 94.5253 137.64 93.2773 137.64C91.6133 137.64 90.6853 136.456 90.6853 134.728V128.68H97.3413V125H90.6853V120.2H87.1653L86.5893 125.128L83.4213 125.32V128.68ZM114.342 141V117H110.15V141H114.342ZM128.046 124.456C122.702 124.456 118.094 127.496 118.094 132.84C118.094 137.64 122.254 141.576 128.046 141.576C133.838 141.576 137.998 137.64 137.998 132.84C137.998 127.496 133.39 124.456 128.046 124.456ZM128.046 128.136C131.374 128.136 133.742 129.864 133.742 132.84C133.742 135.528 131.214 137.928 128.046 137.928C124.878 137.928 122.35 135.528 122.35 132.84C122.35 129.864 124.718 128.136 128.046 128.136ZM150.576 124.456C145.232 124.456 140.688 127.656 140.688 133C140.688 137.8 144.336 141.576 150.288 141.576C153.296 141.576 156.048 140.648 158.224 139.496L156.976 136.168C154.864 137.096 153.168 137.768 150.832 137.768C147.504 137.768 144.944 135.912 144.944 132.84C144.944 129.928 147.248 128.168 150.32 128.168C152.496 128.168 154.352 128.616 156.56 129.512L157.584 125.736C155.664 125.064 153.232 124.456 150.576 124.456ZM165.591 117H161.431V141H165.591V117ZM171.447 139.848C172.311 140.872 173.335 141.416 174.423 141.416C175.703 141.416 177.079 140.808 178.551 140.168L177.559 136.744C176.791 137.064 176.087 137.416 175.447 137.416C175.095 137.416 174.775 137.32 174.487 137.032L170.743 133.16L178.455 125H173.047L165.815 133.288L171.447 139.848ZM190.992 137.768C187.984 137.768 185.648 136.456 185.04 134.12H198.8C198.992 133.384 199.088 132.648 199.088 131.944C199.088 127.624 195.44 124.456 190.576 124.456C185.232 124.456 180.688 127.656 180.688 133C180.688 137.8 184.624 141.576 190.576 141.576C193.52 141.576 196.528 140.584 198.672 139.496L197.424 136.168C195.152 137.352 193.168 137.768 190.992 137.768ZM190.32 128.008C192.816 128.008 194.416 129.128 194.832 131.016H185.136C185.776 129.064 187.568 128.008 190.32 128.008ZM209.658 141.544C212.922 141.544 215.482 139.656 216.538 137.448V141H220.762V117H216.538V125.576C214.938 125.064 212.73 124.424 211.002 124.424C205.626 124.424 201.594 128.36 201.594 133.16C201.594 138.344 205.274 141.544 209.658 141.544ZM210.906 137.608C208.058 137.608 205.85 136.008 205.85 133.128C205.85 130.312 208.058 128.136 210.938 128.136C212.89 128.136 214.682 128.552 216.538 129.096V132.552C216.538 135.624 213.722 137.608 210.906 137.608ZM243.515 124.456C238.171 124.456 233.563 127.496 233.563 132.84C233.563 137.64 237.723 141.576 243.515 141.576C249.307 141.576 253.467 137.64 253.467 132.84C253.467 127.496 248.859 124.456 243.515 124.456ZM243.515 128.136C246.843 128.136 249.211 129.864 249.211 132.84C249.211 135.528 246.683 137.928 243.515 137.928C240.347 137.928 237.819 135.528 237.819 132.84C237.819 129.864 240.187 128.136 243.515 128.136ZM263.773 141.512C266.685 141.512 269.149 139.752 270.301 137.48V141H274.525V125H270.301V132.744C270.301 136.136 268.029 137.608 265.341 137.608C262.812 137.608 261.277 136.328 261.277 133.736V125H257.053V134.28C257.053 138.632 259.485 141.512 263.773 141.512ZM277.578 128.68H280.618V134.888C280.618 138.92 282.762 141.544 286.73 141.544C288.426 141.544 290.698 140.808 292.042 140.104L291.114 136.488C290.09 137.128 288.682 137.64 287.434 137.64C285.77 137.64 284.842 136.456 284.842 134.728V128.68H291.498V125H284.842V120.2H281.322L280.746 125.128L277.578 125.32V128.68ZM313.202 124.456C307.858 124.456 303.25 127.496 303.25 132.84C303.25 137.64 307.41 141.576 313.202 141.576C318.994 141.576 323.154 137.64 323.154 132.84C323.154 127.496 318.546 124.456 313.202 124.456ZM313.202 128.136C316.53 128.136 318.898 129.864 318.898 132.84C318.898 135.528 316.37 137.928 313.202 137.928C310.034 137.928 307.506 135.528 307.506 132.84C307.506 129.864 309.874 128.136 313.202 128.136ZM334.292 120.424C335.668 120.424 337.172 120.872 338.644 121.512L339.668 117.64C338.164 117.128 336.244 116.68 334.42 116.68C330.484 116.68 327.764 119.08 327.764 122.76V125H325.14V128.68H327.796V141H331.956V128.68H339.06V125H331.796V122.952C331.796 121.224 332.756 120.424 334.292 120.424ZM52.64 164.52C49.856 164.52 47.68 166.504 46.624 168.392V165H42.4V181H46.624V173.032C46.624 169.96 48.992 168.424 51.2 168.424C53.536 168.424 54.784 169.992 54.784 172.104V181H59.008V173.032C59.008 169.992 61.376 168.424 63.584 168.424C65.92 168.424 67.168 169.992 67.168 172.104V181H71.392V171.592C71.392 167.368 69.184 164.52 65.024 164.52C62.336 164.52 59.776 166.504 58.496 168.424C57.6 166.024 55.648 164.52 52.64 164.52ZM93.465 165H88.825C87.385 168.424 85.625 172.552 83.961 176.424L78.233 165H73.625L81.881 181.224C81.881 181.256 81.817 181.32 81.817 181.384C81.017 183.176 80.121 184.936 78.425 184.936C78.201 184.936 77.561 184.872 76.985 184.776L76.761 188.84C77.305 188.936 78.009 189 78.233 189C82.745 189 84.217 185.736 85.753 182.312L93.465 165ZM114.467 168.424C116.995 168.424 118.307 169.992 118.307 172.264V181H122.531V171.752C122.531 167.4 120.035 164.52 115.683 164.52C112.643 164.52 110.275 166.472 109.155 168.552V157.288H104.931V181H109.155V173.064C109.155 169.896 111.811 168.424 114.467 168.424ZM136.077 164.456C130.733 164.456 126.125 167.496 126.125 172.84C126.125 177.64 130.285 181.576 136.077 181.576C141.869 181.576 146.029 177.64 146.029 172.84C146.029 167.496 141.421 164.456 136.077 164.456ZM136.077 168.136C139.405 168.136 141.773 169.864 141.773 172.84C141.773 175.528 139.245 177.928 136.077 177.928C132.909 177.928 130.381 175.528 130.381 172.84C130.381 169.864 132.749 168.136 136.077 168.136ZM156.335 181.512C159.247 181.512 161.711 179.752 162.863 177.48V181H167.087V165H162.863V172.744C162.863 176.136 160.591 177.608 157.903 177.608C155.375 177.608 153.839 176.328 153.839 173.736V165H149.615V174.28C149.615 178.632 152.047 181.512 156.335 181.512ZM186.044 165.576C184.156 164.936 181.18 164.392 178.652 164.392C174.108 164.392 170.876 166.376 170.876 169.512C170.876 175.752 182.78 173.64 182.78 176.168C182.78 177.288 181.18 177.928 178.876 177.928C176.412 177.928 173.916 177.16 171.804 176.232L170.556 179.56C172.732 180.712 175.708 181.64 178.716 181.64C182.62 181.64 186.94 179.624 186.94 176.04C186.94 169.8 175.036 172.008 175.036 169.352C175.036 168.392 176.7 168.072 178.812 168.072C180.86 168.072 182.844 168.488 184.924 169.288L186.044 165.576ZM199.867 177.768C196.859 177.768 194.523 176.456 193.915 174.12H207.675C207.867 173.384 207.963 172.648 207.963 171.944C207.963 167.624 204.315 164.456 199.451 164.456C194.107 164.456 189.563 167.656 189.563 173C189.563 177.8 193.499 181.576 199.451 181.576C202.395 181.576 205.403 180.584 207.547 179.496L206.299 176.168C204.027 177.352 202.043 177.768 199.867 177.768ZM199.195 168.008C201.691 168.008 203.291 169.128 203.707 171.016H194.011C194.651 169.064 196.443 168.008 199.195 168.008Z" fill="#CDFFE3"></path> </svg> 