<?xml version="1.0" encoding="UTF-8"?> <svg xmlns="http://www.w3.org/2000/svg" width="400" height="600" viewBox="0 0 400 600" fill="none"><rect width="400" height="600" rx="20" fill="#36BB71"></rect><path d="M47.296 84.136V101H42.88V78.6H48.032L61.536 95.464V78.6H65.952V101H60.8L47.296 84.136ZM80.4918 97.768C82.6678 97.768 84.6518 97.352 86.9237 96.168L88.1718 99.496C86.0278 100.584 83.0198 101.576 80.0758 101.576C74.1238 101.576 70.1878 97.8 70.1878 93C70.1878 87.656 74.7318 84.456 80.0758 84.456C84.9398 84.456 88.5878 87.624 88.5878 91.944C88.5878 92.648 88.4918 93.384 88.2998 94.12H74.5398C75.1478 96.456 77.4838 97.768 80.4918 97.768ZM79.8198 88.008C77.0677 88.008 75.2758 89.064 74.6358 91.016H84.3318C83.9158 89.128 82.3158 88.008 79.8198 88.008ZM94.39 85L99.638 96.232L104.822 85H109.526L101.942 101H97.302L89.75 85H94.39ZM121.179 97.768C123.355 97.768 125.339 97.352 127.611 96.168L128.859 99.496C126.715 100.584 123.707 101.576 120.763 101.576C114.811 101.576 110.875 97.8 110.875 93C110.875 87.656 115.419 84.456 120.763 84.456C125.627 84.456 129.275 87.624 129.275 91.944C129.275 92.648 129.179 93.384 128.987 94.12H115.227C115.835 96.456 118.171 97.768 121.179 97.768ZM120.507 88.008C117.755 88.008 115.963 89.064 115.323 91.016H125.019C124.603 89.128 123.003 88.008 120.507 88.008ZM142.982 84.456C143.878 84.456 144.87 84.712 145.67 85.096L144.774 88.936C144.006 88.584 143.174 88.392 142.566 88.392C139.91 88.392 137.062 90.12 137.062 93.064V101H132.838V85H137.062V88.552C137.99 86.824 140.198 84.456 142.982 84.456ZM166.436 88.424C163.78 88.424 161.124 89.896 161.124 93.064V101H156.9V77.288H161.124V88.552C162.244 86.472 164.612 84.52 167.652 84.52C172.004 84.52 174.5 87.4 174.5 91.752V101H170.276V92.264C170.276 89.992 168.964 88.424 166.436 88.424ZM184.75 91.88C186.478 91.88 188.75 92.392 190.126 92.872V91.016C190.126 89.352 189.038 88.232 187.022 88.232C185.358 88.232 182.926 88.968 180.59 89.832L179.534 85.992C181.518 85.352 184.878 84.36 187.406 84.36C191.79 84.36 194.35 86.696 194.35 91.08V96.84C194.35 97.32 194.67 97.608 195.118 97.608C195.598 97.608 196.43 97.256 197.358 96.776L198.222 100.04C196.462 101 194.542 101.64 193.23 101.64C191.086 101.64 190.19 100.136 190.126 98.344C188.59 100.168 186.158 101.64 183.438 101.64C180.43 101.64 178.19 99.656 178.19 96.776C178.19 93.352 181.454 91.88 184.75 91.88ZM184.814 98.024C186.414 98.024 188.622 97.16 190.126 95.688V95.08C188.366 94.76 186.51 94.6 184.974 94.6C183.566 94.6 182.51 95.272 182.51 96.424C182.51 97.48 183.47 98.024 184.814 98.024ZM202.859 85L208.107 96.232L213.291 85H217.995L210.411 101H205.771L198.219 85H202.859ZM229.648 97.768C231.824 97.768 233.808 97.352 236.08 96.168L237.328 99.496C235.184 100.584 232.176 101.576 229.232 101.576C223.28 101.576 219.344 97.8 219.344 93C219.344 87.656 223.888 84.456 229.232 84.456C234.096 84.456 237.744 87.624 237.744 91.944C237.744 92.648 237.648 93.384 237.456 94.12H223.696C224.304 96.456 226.64 97.768 229.648 97.768ZM228.976 88.008C226.224 88.008 224.432 89.064 223.792 91.016H233.488C233.072 89.128 231.472 88.008 228.976 88.008ZM255.265 78.6V101H250.849V78.6H255.265ZM278.867 97.768C281.043 97.768 283.027 97.352 285.299 96.168L286.547 99.496C284.403 100.584 281.395 101.576 278.451 101.576C272.499 101.576 268.563 97.8 268.563 93C268.563 87.656 273.107 84.456 278.451 84.456C283.315 84.456 286.963 87.624 286.963 91.944C286.963 92.648 286.867 93.384 286.675 94.12H272.915C273.523 96.456 275.859 97.768 278.867 97.768ZM278.195 88.008C275.443 88.008 273.651 89.064 273.011 91.016H282.707C282.291 89.128 280.691 88.008 278.195 88.008ZM292.765 85L298.013 96.232L303.197 85H307.901L300.317 101H295.677L288.125 85H292.765ZM319.554 97.768C321.73 97.768 323.714 97.352 325.986 96.168L327.234 99.496C325.09 100.584 322.082 101.576 319.138 101.576C313.186 101.576 309.25 97.8 309.25 93C309.25 87.656 313.794 84.456 319.138 84.456C324.002 84.456 327.65 87.624 327.65 91.944C327.65 92.648 327.554 93.384 327.362 94.12H313.602C314.21 96.456 316.546 97.768 319.554 97.768ZM318.882 88.008C316.13 88.008 314.338 89.064 313.698 91.016H323.394C322.978 89.128 321.378 88.008 318.882 88.008ZM341.357 84.456C342.253 84.456 343.245 84.712 344.045 85.096L343.149 88.936C342.381 88.584 341.549 88.392 340.941 88.392C338.285 88.392 335.437 90.12 335.437 93.064V101H331.213V85H335.437V88.552C336.365 86.824 338.573 84.456 341.357 84.456ZM48.096 138.888H50.272C55.744 138.888 59.776 140.328 59.776 143.656C59.776 147.304 55.744 149.096 50.272 149.096C44.448 149.096 40.672 147.336 40.672 143.976C40.672 142.28 42.368 140.712 43.968 140.296C43.104 139.88 42.432 138.76 42.432 137.736C42.432 136.68 43.36 135.848 44.16 135.336C42.688 134.376 41.312 132.616 41.312 130.888C41.312 126.664 45.248 124.456 49.632 124.456C51.36 124.456 53.024 124.808 54.4 125.48C55.616 124.488 57.216 123.72 59.264 123.368L60.032 127.304C58.912 127.432 58.016 127.656 57.248 128.04C57.696 128.84 57.984 129.8 57.984 130.888C57.984 134.536 54.464 137.288 49.632 137.288C48.832 137.288 48.032 137.224 47.296 137.096C46.912 137.192 46.496 137.512 46.496 137.96C46.496 138.504 47.04 138.888 48.096 138.888ZM49.6 127.944C47.296 127.944 45.568 128.936 45.568 130.76C45.568 132.36 47.296 133.512 49.6 133.512C52.032 133.512 53.6 132.264 53.6 130.76C53.6 128.936 51.872 127.944 49.6 127.944ZM50.208 142.472C49.568 142.472 46.592 142.472 46.048 142.504C45.344 142.792 44.736 143.336 44.736 143.976C44.736 145.128 46.688 145.64 50.208 145.64C53.504 145.64 55.68 145.192 55.68 144.008C55.68 142.92 53.504 142.472 50.208 142.472ZM71.4835 124.456C76.8275 124.456 81.4355 127.496 81.4355 132.84C81.4355 137.64 77.2755 141.576 71.4835 141.576C65.6915 141.576 61.5315 137.64 61.5315 132.84C61.5315 127.496 66.1395 124.456 71.4835 124.456ZM71.4835 128.136C68.1555 128.136 65.7875 129.864 65.7875 132.84C65.7875 135.528 68.3155 137.928 71.4835 137.928C74.6515 137.928 77.1795 135.528 77.1795 132.84C77.1795 129.864 74.8115 128.136 71.4835 128.136ZM83.4213 128.68V125.32L86.5893 125.128L87.1653 120.2H90.6853V125H97.3413V128.68H90.6853V134.728C90.6853 136.456 91.6133 137.64 93.2773 137.64C94.5253 137.64 95.9333 137.128 96.9573 136.488L97.8853 140.104C96.5413 140.808 94.2693 141.544 92.5733 141.544C88.6053 141.544 86.4613 138.92 86.4613 134.888V128.68H83.4213ZM99.3275 128.68V125.32L102.496 125.128L103.072 120.2H106.592V125H113.248V128.68H106.592V134.728C106.592 136.456 107.52 137.64 109.184 137.64C110.432 137.64 111.84 137.128 112.864 136.488L113.792 140.104C112.448 140.808 110.176 141.544 108.48 141.544C104.512 141.544 102.368 138.92 102.368 134.888V128.68H99.3275ZM126.242 137.768C128.418 137.768 130.402 137.352 132.674 136.168L133.922 139.496C131.778 140.584 128.77 141.576 125.826 141.576C119.874 141.576 115.938 137.8 115.938 133C115.938 127.656 120.482 124.456 125.826 124.456C130.69 124.456 134.338 127.624 134.338 131.944C134.338 132.648 134.242 133.384 134.05 134.12H120.29C120.898 136.456 123.234 137.768 126.242 137.768ZM125.57 128.008C122.818 128.008 121.026 129.064 120.386 131.016H130.082C129.666 129.128 128.066 128.008 125.57 128.008ZM147.436 128.424C144.78 128.424 142.124 129.896 142.124 133.064V141H137.9V125H142.124V128.552C143.244 126.472 145.612 124.52 148.652 124.52C153.004 124.52 155.5 127.4 155.5 131.752V141H151.276V132.264C151.276 129.992 149.964 128.424 147.436 128.424ZM173.405 141H169.213V117H173.405V141ZM187.109 124.456C192.453 124.456 197.061 127.496 197.061 132.84C197.061 137.64 192.901 141.576 187.109 141.576C181.317 141.576 177.157 137.64 177.157 132.84C177.157 127.496 181.765 124.456 187.109 124.456ZM187.109 128.136C183.781 128.136 181.413 129.864 181.413 132.84C181.413 135.528 183.941 137.928 187.109 137.928C190.277 137.928 192.805 135.528 192.805 132.84C192.805 129.864 190.437 128.136 187.109 128.136ZM209.638 124.456C212.294 124.456 214.726 125.064 216.646 125.736L215.622 129.512C213.414 128.616 211.558 128.168 209.382 128.168C206.31 128.168 204.006 129.928 204.006 132.84C204.006 135.912 206.566 137.768 209.894 137.768C212.23 137.768 213.926 137.096 216.038 136.168L217.286 139.496C215.11 140.648 212.358 141.576 209.35 141.576C203.398 141.576 199.75 137.8 199.75 133C199.75 127.656 204.294 124.456 209.638 124.456ZM224.654 117V141H220.494V117H224.654ZM230.51 139.848L224.878 133.288L232.11 125H237.518L229.806 133.16L233.55 137.032C233.838 137.32 234.158 137.416 234.51 137.416C235.15 137.416 235.854 137.064 236.622 136.744L237.614 140.168C236.142 140.808 234.766 141.416 233.486 141.416C232.398 141.416 231.374 140.872 230.51 139.848ZM250.054 137.768C252.23 137.768 254.214 137.352 256.486 136.168L257.734 139.496C255.59 140.584 252.582 141.576 249.638 141.576C243.686 141.576 239.75 137.8 239.75 133C239.75 127.656 244.294 124.456 249.638 124.456C254.502 124.456 258.15 127.624 258.15 131.944C258.15 132.648 258.054 133.384 257.862 134.12H244.102C244.71 136.456 247.046 137.768 250.054 137.768ZM249.382 128.008C246.63 128.008 244.838 129.064 244.198 131.016H253.894C253.478 129.128 251.878 128.008 249.382 128.008ZM268.72 141.544C264.337 141.544 260.657 138.344 260.657 133.16C260.657 128.36 264.689 124.424 270.065 124.424C271.793 124.424 274.001 125.064 275.601 125.576V117H279.825V141H275.601V137.448C274.545 139.656 271.985 141.544 268.72 141.544ZM269.969 137.608C272.785 137.608 275.601 135.624 275.601 132.552V129.096C273.745 128.552 271.953 128.136 270.001 128.136C267.121 128.136 264.913 130.312 264.913 133.128C264.913 136.008 267.121 137.608 269.969 137.608ZM302.577 124.456C307.921 124.456 312.529 127.496 312.529 132.84C312.529 137.64 308.369 141.576 302.577 141.576C296.785 141.576 292.625 137.64 292.625 132.84C292.625 127.496 297.233 124.456 302.577 124.456ZM302.577 128.136C299.249 128.136 296.881 129.864 296.881 132.84C296.881 135.528 299.409 137.928 302.577 137.928C305.745 137.928 308.273 135.528 308.273 132.84C308.273 129.864 305.905 128.136 302.577 128.136ZM322.835 141.512C318.547 141.512 316.115 138.632 316.115 134.28V125H320.339V133.736C320.339 136.328 321.875 137.608 324.403 137.608C327.091 137.608 329.363 136.136 329.363 132.744V125H333.587V141H329.363V137.48C328.211 139.752 325.747 141.512 322.835 141.512ZM336.64 128.68V125.32L339.808 125.128L340.384 120.2H343.904V125H350.56V128.68H343.904V134.728C343.904 136.456 344.832 137.64 346.496 137.64C347.744 137.64 349.152 137.128 350.176 136.488L351.104 140.104C349.76 140.808 347.488 141.544 345.792 141.544C341.824 141.544 339.68 138.92 339.68 134.888V128.68H336.64ZM51.296 164.456C56.64 164.456 61.248 167.496 61.248 172.84C61.248 177.64 57.088 181.576 51.296 181.576C45.504 181.576 41.344 177.64 41.344 172.84C41.344 167.496 45.952 164.456 51.296 164.456ZM51.296 168.136C47.968 168.136 45.6 169.864 45.6 172.84C45.6 175.528 48.128 177.928 51.296 177.928C54.464 177.928 56.992 175.528 56.992 172.84C56.992 169.864 54.624 168.136 51.296 168.136ZM72.3858 160.424C70.8498 160.424 69.8898 161.224 69.8898 162.952V165H77.1538V168.68H70.0498V181H65.8898V168.68H63.2338V165H65.8578V162.76C65.8578 159.08 68.5778 156.68 72.5138 156.68C74.3378 156.68 76.2578 157.128 77.7618 157.64L76.7378 161.512C75.2658 160.872 73.7618 160.424 72.3858 160.424ZM99.1088 164.52C102.117 164.52 104.069 166.024 104.965 168.424C106.245 166.504 108.805 164.52 111.493 164.52C115.653 164.52 117.861 167.368 117.861 171.592V181H113.637V172.104C113.637 169.992 112.389 168.424 110.053 168.424C107.845 168.424 105.477 169.992 105.477 173.032V181H101.253V172.104C101.253 169.992 100.005 168.424 97.6688 168.424C95.4608 168.424 93.0928 169.96 93.0928 173.032V181H88.8688V165H93.0928V168.392C94.1488 166.504 96.3248 164.52 99.1088 164.52ZM139.934 165L132.222 182.312C130.686 185.736 129.214 189 124.702 189C124.478 189 123.774 188.936 123.23 188.84L123.454 184.776C124.03 184.872 124.67 184.936 124.894 184.936C126.59 184.936 127.486 183.176 128.286 181.384C128.286 181.32 128.35 181.256 128.35 181.224L120.094 165H124.702L130.43 176.424C132.094 172.552 133.854 168.424 135.294 165H139.934ZM160.936 168.424C158.28 168.424 155.624 169.896 155.624 173.064V181H151.4V157.288H155.624V168.552C156.744 166.472 159.112 164.52 162.152 164.52C166.504 164.52 169 167.4 169 171.752V181H164.776V172.264C164.776 169.992 163.464 168.424 160.936 168.424ZM182.546 164.456C187.89 164.456 192.498 167.496 192.498 172.84C192.498 177.64 188.338 181.576 182.546 181.576C176.754 181.576 172.594 177.64 172.594 172.84C172.594 167.496 177.202 164.456 182.546 164.456ZM182.546 168.136C179.218 168.136 176.85 169.864 176.85 172.84C176.85 175.528 179.378 177.928 182.546 177.928C185.714 177.928 188.242 175.528 188.242 172.84C188.242 169.864 185.874 168.136 182.546 168.136ZM202.804 181.512C198.516 181.512 196.084 178.632 196.084 174.28V165H200.308V173.736C200.308 176.328 201.844 177.608 204.372 177.608C207.06 177.608 209.332 176.136 209.332 172.744V165H213.556V181H209.332V177.48C208.18 179.752 205.716 181.512 202.804 181.512ZM232.513 165.576L231.393 169.288C229.313 168.488 227.329 168.072 225.281 168.072C223.169 168.072 221.505 168.392 221.505 169.352C221.505 172.008 233.409 169.8 233.409 176.04C233.409 179.624 229.089 181.64 225.185 181.64C222.177 181.64 219.201 180.712 217.025 179.56L218.273 176.232C220.385 177.16 222.881 177.928 225.345 177.928C227.649 177.928 229.249 177.288 229.249 176.168C229.249 173.64 217.345 175.752 217.345 169.512C217.345 166.376 220.577 164.392 225.121 164.392C227.649 164.392 230.625 164.936 232.513 165.576ZM246.336 177.768C248.512 177.768 250.496 177.352 252.767 176.168L254.016 179.496C251.872 180.584 248.864 181.576 245.92 181.576C239.968 181.576 236.032 177.8 236.032 173C236.032 167.656 240.576 164.456 245.92 164.456C250.784 164.456 254.432 167.624 254.432 171.944C254.432 172.648 254.336 173.384 254.144 174.12H240.384C240.992 176.456 243.328 177.768 246.336 177.768ZM245.664 168.008C242.911 168.008 241.12 169.064 240.48 171.016H250.176C249.76 169.128 248.16 168.008 245.664 168.008Z" fill="#CDFFE3"></path></svg> 