<?xml version="1.0" encoding="UTF-8"?> <svg xmlns="http://www.w3.org/2000/svg" width="400" height="600" viewBox="0 0 400 600" fill="none"><rect width="400" height="600" rx="20" fill="#E7497E"></rect><path d="M47.296 84.136V101H42.88V78.6H48.032L61.536 95.464V78.6H65.952V101H60.8L47.296 84.136ZM80.4918 97.768C82.7318 97.768 84.8758 97.2347 86.9237 96.168L88.1718 99.496C85.4411 100.883 82.7424 101.576 80.0758 101.576C77.1531 101.576 74.7744 100.765 72.9398 99.144C71.1051 97.5013 70.1878 95.4533 70.1878 93C70.1878 90.4187 71.1371 88.3493 73.0358 86.792C74.9558 85.2347 77.3024 84.456 80.0758 84.456C82.5078 84.456 84.5344 85.1707 86.1558 86.6C87.7771 88.008 88.5878 89.7893 88.5878 91.944C88.5878 92.648 88.4918 93.3733 88.2998 94.12H74.5398C74.8384 95.272 75.5211 96.168 76.5878 96.808C77.6544 97.448 78.9558 97.768 80.4918 97.768ZM79.8198 88.008C77.0251 88.008 75.2971 89.0107 74.6358 91.016H84.3318C84.1184 90.056 83.6171 89.32 82.8278 88.808C82.0598 88.2747 81.0571 88.008 79.8198 88.008ZM94.39 85L99.638 96.232L104.822 85H109.526L101.942 101H97.302L89.75 85H94.39ZM121.179 97.768C123.419 97.768 125.563 97.2347 127.611 96.168L128.859 99.496C126.129 100.883 123.43 101.576 120.763 101.576C117.841 101.576 115.462 100.765 113.627 99.144C111.793 97.5013 110.875 95.4533 110.875 93C110.875 90.4187 111.825 88.3493 113.723 86.792C115.643 85.2347 117.99 84.456 120.763 84.456C123.195 84.456 125.222 85.1707 126.843 86.6C128.465 88.008 129.275 89.7893 129.275 91.944C129.275 92.648 129.179 93.3733 128.987 94.12H115.227C115.526 95.272 116.209 96.168 117.275 96.808C118.342 97.448 119.643 97.768 121.179 97.768ZM120.507 88.008C117.713 88.008 115.985 89.0107 115.323 91.016H125.019C124.806 90.056 124.305 89.32 123.515 88.808C122.747 88.2747 121.745 88.008 120.507 88.008ZM142.982 84.456C143.878 84.456 144.774 84.6693 145.67 85.096L144.774 88.936C143.984 88.5733 143.248 88.392 142.566 88.392C141.136 88.392 139.856 88.8293 138.726 89.704C137.616 90.5573 137.062 91.6773 137.062 93.064V101H132.838V85H137.062V88.552C137.616 87.5067 138.427 86.568 139.494 85.736C140.56 84.8827 141.723 84.456 142.982 84.456ZM166.436 88.424C164.985 88.424 163.737 88.8293 162.692 89.64C161.647 90.4293 161.124 91.5707 161.124 93.064V101H156.9V77.288H161.124V88.552C161.743 87.4213 162.628 86.472 163.78 85.704C164.932 84.9147 166.223 84.52 167.652 84.52C169.807 84.52 171.481 85.1813 172.676 86.504C173.892 87.8053 174.5 89.5547 174.5 91.752V101H170.276V92.264C170.276 91.0907 169.945 90.1627 169.284 89.48C168.623 88.776 167.673 88.424 166.436 88.424ZM184.75 91.88C186.435 91.88 188.227 92.2107 190.126 92.872V91.016C190.126 90.1627 189.849 89.4907 189.294 89C188.761 88.488 188.003 88.232 187.022 88.232C185.614 88.232 183.47 88.7653 180.59 89.832L179.534 85.992C182.905 84.904 185.529 84.36 187.406 84.36C189.625 84.36 191.331 84.936 192.526 86.088C193.742 87.24 194.35 88.904 194.35 91.08V96.84C194.35 97.352 194.606 97.608 195.118 97.608C195.545 97.608 196.291 97.3307 197.358 96.776L198.222 100.04C196.259 101.107 194.595 101.64 193.23 101.64C192.227 101.64 191.47 101.341 190.958 100.744C190.446 100.125 190.169 99.3253 190.126 98.344C189.315 99.3253 188.323 100.125 187.15 100.744C185.977 101.341 184.739 101.64 183.438 101.64C181.923 101.64 180.665 101.192 179.662 100.296C178.681 99.3787 178.19 98.2053 178.19 96.776C178.19 95.176 178.83 93.96 180.11 93.128C181.39 92.296 182.937 91.88 184.75 91.88ZM184.814 98.024C185.646 98.024 186.553 97.8107 187.534 97.384C188.537 96.9573 189.401 96.392 190.126 95.688V95.08C188.377 94.76 186.659 94.6 184.974 94.6C184.249 94.6 183.651 94.7707 183.182 95.112C182.734 95.432 182.51 95.8693 182.51 96.424C182.51 96.936 182.713 97.3307 183.118 97.608C183.545 97.8853 184.11 98.024 184.814 98.024ZM202.859 85L208.107 96.232L213.291 85H217.995L210.411 101H205.771L198.219 85H202.859ZM229.648 97.768C231.888 97.768 234.032 97.2347 236.08 96.168L237.328 99.496C234.597 100.883 231.899 101.576 229.232 101.576C226.309 101.576 223.931 100.765 222.096 99.144C220.261 97.5013 219.344 95.4533 219.344 93C219.344 90.4187 220.293 88.3493 222.192 86.792C224.112 85.2347 226.459 84.456 229.232 84.456C231.664 84.456 233.691 85.1707 235.312 86.6C236.933 88.008 237.744 89.7893 237.744 91.944C237.744 92.648 237.648 93.3733 237.456 94.12H223.696C223.995 95.272 224.677 96.168 225.744 96.808C226.811 97.448 228.112 97.768 229.648 97.768ZM228.976 88.008C226.181 88.008 224.453 89.0107 223.792 91.016H233.488C233.275 90.056 232.773 89.32 231.984 88.808C231.216 88.2747 230.213 88.008 228.976 88.008ZM255.265 78.6V101H250.849V78.6H255.265ZM278.867 97.768C281.107 97.768 283.251 97.2347 285.299 96.168L286.547 99.496C283.816 100.883 281.117 101.576 278.451 101.576C275.528 101.576 273.149 100.765 271.315 99.144C269.48 97.5013 268.563 95.4533 268.563 93C268.563 90.4187 269.512 88.3493 271.411 86.792C273.331 85.2347 275.677 84.456 278.451 84.456C280.883 84.456 282.909 85.1707 284.531 86.6C286.152 88.008 286.963 89.7893 286.963 91.944C286.963 92.648 286.867 93.3733 286.675 94.12H272.915C273.213 95.272 273.896 96.168 274.963 96.808C276.029 97.448 277.331 97.768 278.867 97.768ZM278.195 88.008C275.4 88.008 273.672 89.0107 273.011 91.016H282.707C282.493 90.056 281.992 89.32 281.203 88.808C280.435 88.2747 279.432 88.008 278.195 88.008ZM292.765 85L298.013 96.232L303.197 85H307.901L300.317 101H295.677L288.125 85H292.765ZM319.554 97.768C321.794 97.768 323.938 97.2347 325.986 96.168L327.234 99.496C324.504 100.883 321.805 101.576 319.138 101.576C316.216 101.576 313.837 100.765 312.002 99.144C310.168 97.5013 309.25 95.4533 309.25 93C309.25 90.4187 310.2 88.3493 312.098 86.792C314.018 85.2347 316.365 84.456 319.138 84.456C321.57 84.456 323.597 85.1707 325.218 86.6C326.84 88.008 327.65 89.7893 327.65 91.944C327.65 92.648 327.554 93.3733 327.362 94.12H313.602C313.901 95.272 314.584 96.168 315.65 96.808C316.717 97.448 318.018 97.768 319.554 97.768ZM318.882 88.008C316.088 88.008 314.36 89.0107 313.698 91.016H323.394C323.181 90.056 322.68 89.32 321.89 88.808C321.122 88.2747 320.12 88.008 318.882 88.008ZM341.357 84.456C342.253 84.456 343.149 84.6693 344.045 85.096L343.149 88.936C342.359 88.5733 341.623 88.392 340.941 88.392C339.511 88.392 338.231 88.8293 337.101 89.704C335.991 90.5573 335.437 91.6773 335.437 93.064V101H331.213V85H335.437V88.552C335.991 87.5067 336.802 86.568 337.869 85.736C338.935 84.8827 340.098 84.456 341.357 84.456ZM60.64 141L55.936 130.056L51.2 141H46.88L39.872 125H44.448L49.088 136.008L53.728 125H58.144L62.784 135.976L67.456 125H71.936L64.928 141H60.64ZM79.8125 131.88C81.4978 131.88 83.2898 132.211 85.1885 132.872V131.016C85.1885 130.163 84.9112 129.491 84.3565 129C83.8232 128.488 83.0658 128.232 82.0845 128.232C80.6765 128.232 78.5325 128.765 75.6525 129.832L74.5965 125.992C77.9672 124.904 80.5912 124.36 82.4685 124.36C84.6872 124.36 86.3938 124.936 87.5885 126.088C88.8045 127.24 89.4125 128.904 89.4125 131.08V136.84C89.4125 137.352 89.6685 137.608 90.1805 137.608C90.6072 137.608 91.3538 137.331 92.4205 136.776L93.2845 140.04C91.3218 141.107 89.6578 141.64 88.2925 141.64C87.2898 141.64 86.5325 141.341 86.0205 140.744C85.5085 140.125 85.2312 139.325 85.1885 138.344C84.3778 139.325 83.3858 140.125 82.2125 140.744C81.0392 141.341 79.8018 141.64 78.5005 141.64C76.9858 141.64 75.7272 141.192 74.7245 140.296C73.7432 139.379 73.2525 138.205 73.2525 136.776C73.2525 135.176 73.8925 133.96 75.1725 133.128C76.4525 132.296 77.9992 131.88 79.8125 131.88ZM79.8765 138.024C80.7085 138.024 81.6152 137.811 82.5965 137.384C83.5992 136.957 84.4632 136.392 85.1885 135.688V135.08C83.4392 134.76 81.7218 134.6 80.0365 134.6C79.3112 134.6 78.7138 134.771 78.2445 135.112C77.7965 135.432 77.5725 135.869 77.5725 136.424C77.5725 136.936 77.7752 137.331 78.1805 137.608C78.6072 137.885 79.1725 138.024 79.8765 138.024ZM93.9213 128.68V125.32L97.0893 125.128L97.6653 120.2H101.185V125H107.841V128.68H101.185V134.728C101.185 135.603 101.409 136.307 101.857 136.84C102.327 137.373 102.967 137.64 103.777 137.64C104.993 137.64 106.22 137.256 107.457 136.488L108.385 140.104C106.551 141.064 104.78 141.544 103.073 141.544C101.111 141.544 99.5959 140.947 98.5293 139.752C97.4839 138.557 96.9613 136.936 96.9613 134.888V128.68H93.9213ZM120.42 124.456C122.66 124.456 124.996 124.883 127.428 125.736L126.404 129.512C124.185 128.616 122.105 128.168 120.164 128.168C118.585 128.168 117.294 128.595 116.292 129.448C115.289 130.28 114.788 131.411 114.788 132.84C114.788 134.333 115.342 135.528 116.452 136.424C117.561 137.32 118.969 137.768 120.676 137.768C121.742 137.768 122.713 137.64 123.588 137.384C124.484 137.128 125.561 136.723 126.819 136.168L128.068 139.496C125.444 140.883 122.798 141.576 120.132 141.576C117.23 141.576 114.905 140.765 113.156 139.144C111.406 137.501 110.532 135.453 110.532 133C110.532 130.419 111.481 128.349 113.38 126.792C115.3 125.235 117.646 124.456 120.42 124.456ZM140.811 128.424C139.36 128.424 138.112 128.829 137.067 129.64C136.022 130.429 135.499 131.571 135.499 133.064V141H131.275V117.288H135.499V128.552C136.118 127.421 137.003 126.472 138.155 125.704C139.307 124.915 140.598 124.52 142.027 124.52C144.182 124.52 145.856 125.181 147.051 126.504C148.267 127.805 148.875 129.555 148.875 131.752V141H144.651V132.264C144.651 131.091 144.32 130.163 143.659 129.48C142.998 128.776 142.048 128.424 140.811 128.424ZM162.773 137.768C165.013 137.768 167.157 137.235 169.205 136.168L170.453 139.496C167.722 140.883 165.024 141.576 162.357 141.576C159.434 141.576 157.056 140.765 155.221 139.144C153.386 137.501 152.469 135.453 152.469 133C152.469 130.419 153.418 128.349 155.317 126.792C157.237 125.235 159.584 124.456 162.357 124.456C164.789 124.456 166.816 125.171 168.437 126.6C170.058 128.008 170.869 129.789 170.869 131.944C170.869 132.648 170.773 133.373 170.581 134.12H156.821C157.12 135.272 157.802 136.168 158.869 136.808C159.936 137.448 161.237 137.768 162.773 137.768ZM162.101 128.008C159.306 128.008 157.578 129.011 156.917 131.016H166.613C166.4 130.056 165.898 129.32 165.109 128.808C164.341 128.275 163.338 128.008 162.101 128.008ZM181.439 141.544C179.178 141.544 177.269 140.776 175.711 139.24C174.154 137.704 173.375 135.677 173.375 133.16C173.375 130.728 174.271 128.669 176.063 126.984C177.877 125.277 180.117 124.424 182.783 124.424C184.063 124.424 185.909 124.808 188.319 125.576V117H192.543V141H188.319V137.448C187.765 138.621 186.869 139.603 185.631 140.392C184.394 141.16 182.997 141.544 181.439 141.544ZM179.039 136.424C179.999 137.213 181.215 137.608 182.687 137.608C184.159 137.608 185.461 137.139 186.591 136.2C187.743 135.24 188.319 134.024 188.319 132.552V129.096C186.143 128.456 184.277 128.136 182.719 128.136C181.29 128.136 180.085 128.616 179.103 129.576C178.122 130.536 177.631 131.72 177.631 133.128C177.631 134.536 178.101 135.635 179.039 136.424ZM216.544 124.456C217.44 124.456 218.336 124.669 219.232 125.096L218.336 128.936C217.547 128.573 216.811 128.392 216.128 128.392C214.699 128.392 213.419 128.829 212.288 129.704C211.179 130.557 210.624 131.677 210.624 133.064V141H206.4V125H210.624V128.552C211.179 127.507 211.989 126.568 213.056 125.736C214.123 124.883 215.285 124.456 216.544 124.456ZM230.648 137.768C232.888 137.768 235.032 137.235 237.08 136.168L238.328 139.496C235.597 140.883 232.899 141.576 230.232 141.576C227.309 141.576 224.931 140.765 223.096 139.144C221.261 137.501 220.344 135.453 220.344 133C220.344 130.419 221.293 128.349 223.192 126.792C225.112 125.235 227.459 124.456 230.232 124.456C232.664 124.456 234.691 125.171 236.312 126.6C237.933 128.008 238.744 129.789 238.744 131.944C238.744 132.648 238.648 133.373 238.456 134.12H224.696C224.995 135.272 225.677 136.168 226.744 136.808C227.811 137.448 229.112 137.768 230.648 137.768ZM229.976 128.008C227.181 128.008 225.453 129.011 224.792 131.016H234.488C234.275 130.056 233.773 129.32 232.984 128.808C232.216 128.275 231.213 128.008 229.976 128.008ZM251.554 137.768C253.794 137.768 255.938 137.235 257.986 136.168L259.234 139.496C256.504 140.883 253.805 141.576 251.138 141.576C248.216 141.576 245.837 140.765 244.002 139.144C242.168 137.501 241.25 135.453 241.25 133C241.25 130.419 242.2 128.349 244.098 126.792C246.018 125.235 248.365 124.456 251.138 124.456C253.57 124.456 255.597 125.171 257.218 126.6C258.84 128.008 259.65 129.789 259.65 131.944C259.65 132.648 259.554 133.373 259.362 134.12H245.602C245.901 135.272 246.584 136.168 247.65 136.808C248.717 137.448 250.018 137.768 251.554 137.768ZM250.882 128.008C248.088 128.008 246.36 129.011 245.698 131.016H255.394C255.181 130.056 254.68 129.32 253.89 128.808C253.122 128.275 252.12 128.008 250.882 128.008ZM267.405 141H263.213V117H267.405V141ZM286.357 125.576L285.237 129.288C283.125 128.477 281.087 128.072 279.125 128.072C276.607 128.072 275.349 128.499 275.349 129.352C275.349 129.821 275.754 130.184 276.565 130.44C277.397 130.696 278.389 130.909 279.541 131.08C280.714 131.251 281.877 131.475 283.029 131.752C284.202 132.008 285.194 132.499 286.005 133.224C286.837 133.949 287.253 134.888 287.253 136.04C287.253 137.725 286.41 139.08 284.725 140.104C283.039 141.128 281.141 141.64 279.029 141.64C276.213 141.64 273.493 140.947 270.868 139.56L272.117 136.232C274.698 137.363 277.055 137.928 279.189 137.928C280.362 137.928 281.301 137.779 282.005 137.48C282.73 137.16 283.093 136.723 283.093 136.168C283.093 135.72 282.677 135.379 281.845 135.144C281.034 134.888 280.042 134.675 278.869 134.504C277.717 134.333 276.554 134.109 275.381 133.832C274.229 133.555 273.237 133.053 272.405 132.328C271.594 131.603 271.189 130.664 271.189 129.512C271.189 127.955 271.903 126.717 273.333 125.8C274.783 124.861 276.661 124.392 278.965 124.392C281.567 124.392 284.031 124.787 286.357 125.576ZM301.818 126.728C303.738 125.213 306.095 124.456 308.89 124.456C311.684 124.456 314.042 125.213 315.962 126.728C317.882 128.221 318.842 130.259 318.842 132.84C318.842 135.272 317.892 137.341 315.994 139.048C314.116 140.733 311.748 141.576 308.89 141.576C306.031 141.576 303.652 140.733 301.754 139.048C299.876 137.341 298.938 135.272 298.938 132.84C298.938 130.259 299.898 128.221 301.818 126.728ZM313.018 129.416C311.972 128.563 310.596 128.136 308.89 128.136C307.183 128.136 305.807 128.563 304.762 129.416C303.716 130.248 303.194 131.389 303.194 132.84C303.194 134.205 303.748 135.4 304.858 136.424C305.988 137.427 307.332 137.928 308.89 137.928C310.447 137.928 311.78 137.427 312.89 136.424C314.02 135.4 314.586 134.205 314.586 132.84C314.586 131.389 314.063 130.248 313.018 129.416ZM332.732 124.456C333.628 124.456 334.524 124.669 335.42 125.096L334.524 128.936C333.734 128.573 332.998 128.392 332.316 128.392C330.886 128.392 329.606 128.829 328.476 129.704C327.366 130.557 326.812 131.677 326.812 133.064V141H322.588V125H326.812V128.552C327.366 127.507 328.177 126.568 329.244 125.736C330.31 124.883 331.473 124.456 332.732 124.456ZM40.224 162.536V158.6H62.176V162.536H53.408V181H48.992V162.536H40.224ZM69.0303 165V181H64.8703V165H69.0303ZM64.4223 160.392C64.4223 159.709 64.6676 159.123 65.1583 158.632C65.6489 158.141 66.2463 157.896 66.9503 157.896C67.6543 157.896 68.2516 158.141 68.7423 158.632C69.2329 159.123 69.4783 159.709 69.4783 160.392C69.4783 161.096 69.2329 161.693 68.7423 162.184C68.2516 162.675 67.6543 162.92 66.9503 162.92C66.2463 162.92 65.6489 162.675 65.1583 162.184C64.6676 161.693 64.4223 161.096 64.4223 160.392ZM78.06 157V181H73.9V157H78.06ZM83.916 179.848L78.284 173.288L85.516 165H90.924L83.212 173.16L86.956 177.032C87.212 177.288 87.532 177.416 87.916 177.416C88.2573 177.416 88.9613 177.192 90.028 176.744L91.02 180.168C89.1 181 87.724 181.416 86.892 181.416C85.7827 181.416 84.7907 180.893 83.916 179.848ZM92.0365 162.536V158.6H113.989V162.536H105.221V181H100.805V162.536H92.0365ZM114.443 166.728C116.363 165.213 118.72 164.456 121.515 164.456C124.309 164.456 126.667 165.213 128.587 166.728C130.507 168.221 131.467 170.259 131.467 172.84C131.467 175.272 130.517 177.341 128.619 179.048C126.741 180.733 124.373 181.576 121.515 181.576C118.656 181.576 116.277 180.733 114.379 179.048C112.501 177.341 111.563 175.272 111.563 172.84C111.563 170.259 112.523 168.221 114.443 166.728ZM125.643 169.416C124.597 168.563 123.221 168.136 121.515 168.136C119.808 168.136 118.432 168.563 117.387 169.416C116.341 170.248 115.819 171.389 115.819 172.84C115.819 174.205 116.373 175.4 117.483 176.424C118.613 177.427 119.957 177.928 121.515 177.928C123.072 177.928 124.405 177.427 125.515 176.424C126.645 175.4 127.211 174.205 127.211 172.84C127.211 171.389 126.688 170.248 125.643 169.416ZM139.373 157V181H135.213V157H139.373ZM145.229 179.848L139.597 173.288L146.829 165H152.237L144.525 173.16L148.269 177.032C148.525 177.288 148.845 177.416 149.229 177.416C149.57 177.416 150.274 177.192 151.341 176.744L152.333 180.168C150.413 181 149.037 181.416 148.205 181.416C147.095 181.416 146.103 180.893 145.229 179.848ZM169.669 165.576L168.549 169.288C166.437 168.477 164.4 168.072 162.437 168.072C159.92 168.072 158.661 168.499 158.661 169.352C158.661 169.821 159.066 170.184 159.877 170.44C160.709 170.696 161.701 170.909 162.853 171.08C164.026 171.251 165.189 171.475 166.341 171.752C167.514 172.008 168.506 172.499 169.317 173.224C170.149 173.949 170.565 174.888 170.565 176.04C170.565 177.725 169.722 179.08 168.037 180.104C166.352 181.128 164.453 181.64 162.341 181.64C159.525 181.64 156.805 180.947 154.181 179.56L155.429 176.232C158.01 177.363 160.368 177.928 162.501 177.928C163.674 177.928 164.613 177.779 165.317 177.48C166.042 177.16 166.405 176.723 166.405 176.168C166.405 175.72 165.989 175.379 165.157 175.144C164.346 174.888 163.354 174.675 162.181 174.504C161.029 174.333 159.866 174.109 158.693 173.832C157.541 173.555 156.549 173.053 155.717 172.328C154.906 171.603 154.501 170.664 154.501 169.512C154.501 167.955 155.216 166.717 156.645 165.8C158.096 164.861 159.973 164.392 162.277 164.392C164.88 164.392 167.344 164.787 169.669 165.576ZM193.546 164.52C196.469 164.52 198.421 165.821 199.402 168.424C200.106 167.379 201.056 166.472 202.25 165.704C203.445 164.915 204.672 164.52 205.93 164.52C207.978 164.52 209.546 165.16 210.634 166.44C211.744 167.72 212.298 169.437 212.298 171.592V181H208.074V172.104C208.074 171.016 207.754 170.131 207.114 169.448C206.496 168.765 205.621 168.424 204.49 168.424C203.296 168.424 202.229 168.84 201.29 169.672C200.373 170.483 199.914 171.603 199.914 173.032V181H195.69V172.104C195.69 171.016 195.37 170.131 194.73 169.448C194.112 168.765 193.237 168.424 192.106 168.424C190.89 168.424 189.824 168.829 188.906 169.64C187.989 170.451 187.53 171.581 187.53 173.032V181H183.306V165H187.53V168.392C188.128 167.325 188.949 166.419 189.994 165.672C191.061 164.904 192.245 164.52 193.546 164.52ZM218.755 166.728C220.675 165.213 223.033 164.456 225.827 164.456C228.622 164.456 230.979 165.213 232.899 166.728C234.819 168.221 235.779 170.259 235.779 172.84C235.779 175.272 234.83 177.341 232.931 179.048C231.054 180.733 228.686 181.576 225.827 181.576C222.969 181.576 220.59 180.733 218.691 179.048C216.814 177.341 215.875 175.272 215.875 172.84C215.875 170.259 216.835 168.221 218.755 166.728ZM229.955 169.416C228.91 168.563 227.534 168.136 225.827 168.136C224.121 168.136 222.745 168.563 221.699 169.416C220.654 170.248 220.131 171.389 220.131 172.84C220.131 174.205 220.686 175.4 221.795 176.424C222.926 177.427 224.27 177.928 225.827 177.928C227.385 177.928 228.718 177.427 229.827 176.424C230.958 175.4 231.523 174.205 231.523 172.84C231.523 171.389 231.001 170.248 229.955 169.416ZM249.669 164.456C250.565 164.456 251.461 164.669 252.357 165.096L251.461 168.936C250.672 168.573 249.936 168.392 249.253 168.392C247.824 168.392 246.544 168.829 245.413 169.704C244.304 170.557 243.749 171.677 243.749 173.064V181H239.525V165H243.749V168.552C244.304 167.507 245.114 166.568 246.181 165.736C247.248 164.883 248.41 164.456 249.669 164.456ZM263.773 177.768C266.013 177.768 268.157 177.235 270.205 176.168L271.453 179.496C268.722 180.883 266.024 181.576 263.357 181.576C260.434 181.576 258.056 180.765 256.221 179.144C254.386 177.501 253.469 175.453 253.469 173C253.469 170.419 254.418 168.349 256.317 166.792C258.237 165.235 260.584 164.456 263.357 164.456C265.789 164.456 267.816 165.171 269.437 166.6C271.058 168.008 271.869 169.789 271.869 171.944C271.869 172.648 271.773 173.373 271.581 174.12H257.821C258.12 175.272 258.802 176.168 259.869 176.808C260.936 177.448 262.237 177.768 263.773 177.768ZM263.101 168.008C260.306 168.008 258.578 169.011 257.917 171.016H267.613C267.4 170.056 266.898 169.32 266.109 168.808C265.341 168.275 264.338 168.008 263.101 168.008ZM40.64 208.68V205.32L43.808 205.128L44.384 200.2H47.904V205H54.56V208.68H47.904V214.728C47.904 215.603 48.128 216.307 48.576 216.84C49.0453 217.373 49.6853 217.64 50.496 217.64C51.712 217.64 52.9387 217.256 54.176 216.488L55.104 220.104C53.2693 221.064 51.4987 221.544 49.792 221.544C47.8293 221.544 46.3147 220.947 45.248 219.752C44.2027 218.557 43.68 216.936 43.68 214.888V208.68H40.64ZM67.8423 208.424C66.3916 208.424 65.1436 208.829 64.0983 209.64C63.0529 210.429 62.5303 211.571 62.5303 213.064V221H58.3063V197.288H62.5303V208.552C63.1489 207.421 64.0343 206.472 65.1863 205.704C66.3383 204.915 67.6289 204.52 69.0583 204.52C71.2129 204.52 72.8876 205.181 74.0823 206.504C75.2983 207.805 75.9062 209.555 75.9062 211.752V221H71.6823V212.264C71.6823 211.091 71.3516 210.163 70.6903 209.48C70.0289 208.776 69.0796 208.424 67.8423 208.424ZM86.1562 211.88C87.8416 211.88 89.6336 212.211 91.5323 212.872V211.016C91.5323 210.163 91.2549 209.491 90.7003 209C90.1669 208.488 89.4096 208.232 88.4283 208.232C87.0203 208.232 84.8763 208.765 81.9963 209.832L80.9403 205.992C84.3109 204.904 86.9349 204.36 88.8123 204.36C91.0309 204.36 92.7376 204.936 93.9323 206.088C95.1483 207.24 95.7563 208.904 95.7563 211.08V216.84C95.7563 217.352 96.0123 217.608 96.5243 217.608C96.9509 217.608 97.6976 217.331 98.7643 216.776L99.6283 220.04C97.6656 221.107 96.0016 221.64 94.6363 221.64C93.6336 221.64 92.8763 221.341 92.3643 220.744C91.8523 220.125 91.5749 219.325 91.5323 218.344C90.7216 219.325 89.7296 220.125 88.5563 220.744C87.3829 221.341 86.1456 221.64 84.8443 221.64C83.3296 221.64 82.0709 221.192 81.0683 220.296C80.0869 219.379 79.5963 218.205 79.5963 216.776C79.5963 215.176 80.2363 213.96 81.5163 213.128C82.7963 212.296 84.3429 211.88 86.1562 211.88ZM86.2203 218.024C87.0523 218.024 87.9589 217.811 88.9403 217.384C89.9429 216.957 90.8069 216.392 91.5323 215.688V215.08C89.7829 214.76 88.0656 214.6 86.3802 214.6C85.6549 214.6 85.0576 214.771 84.5883 215.112C84.1403 215.432 83.9163 215.869 83.9163 216.424C83.9163 216.936 84.1189 217.331 84.5243 217.608C84.9509 217.885 85.5163 218.024 86.2203 218.024ZM111.561 208.424C110.11 208.424 108.862 208.829 107.817 209.64C106.772 210.429 106.249 211.571 106.249 213.064V221H102.025V205H106.249V208.552C106.868 207.421 107.753 206.472 108.905 205.704C110.057 204.915 111.348 204.52 112.777 204.52C114.932 204.52 116.606 205.181 117.801 206.504C119.017 207.805 119.625 209.555 119.625 211.752V221H115.401V212.264C115.401 211.091 115.07 210.163 114.409 209.48C113.748 208.776 112.798 208.424 111.561 208.424ZM137.306 211.4V207.464H140.378C141.658 207.464 142.671 207.187 143.418 206.632C144.164 206.077 144.538 205.331 144.538 204.392C144.538 203.645 144.207 203.027 143.546 202.536C142.906 202.045 142.052 201.8 140.986 201.8C138.788 201.8 136.655 203.016 134.586 205.448L131.514 202.664C132.708 201.32 134.106 200.2 135.706 199.304C137.306 198.408 138.948 197.96 140.634 197.96C143.279 197.96 145.316 198.579 146.746 199.816C148.175 201.032 148.89 202.504 148.89 204.232C148.89 206.28 147.898 207.944 145.914 209.224C148.367 210.504 149.594 212.371 149.594 214.824C149.594 216.723 148.836 218.333 147.322 219.656C145.807 220.979 143.791 221.64 141.274 221.64C137.924 221.64 134.692 220.232 131.578 217.416L134.458 214.472C136.719 216.648 138.991 217.736 141.274 217.736C142.447 217.736 143.396 217.416 144.122 216.776C144.868 216.136 145.242 215.4 145.242 214.568C145.242 213.651 144.783 212.893 143.866 212.296C142.97 211.699 141.807 211.4 140.378 211.4H137.306ZM172.249 208.424C170.798 208.424 169.55 208.829 168.505 209.64C167.459 210.429 166.937 211.571 166.937 213.064V221H162.713V197.288H166.937V208.552C167.555 207.421 168.441 206.472 169.593 205.704C170.745 204.915 172.035 204.52 173.465 204.52C175.619 204.52 177.294 205.181 178.489 206.504C179.705 207.805 180.312 209.555 180.312 211.752V221H176.089V212.264C176.089 211.091 175.758 210.163 175.097 209.48C174.435 208.776 173.486 208.424 172.249 208.424ZM186.786 206.728C188.707 205.213 191.064 204.456 193.859 204.456C196.653 204.456 199.011 205.213 200.931 206.728C202.851 208.221 203.811 210.259 203.811 212.84C203.811 215.272 202.861 217.341 200.963 219.048C199.085 220.733 196.717 221.576 193.859 221.576C191 221.576 188.621 220.733 186.723 219.048C184.845 217.341 183.907 215.272 183.907 212.84C183.907 210.259 184.867 208.221 186.786 206.728ZM197.987 209.416C196.941 208.563 195.565 208.136 193.859 208.136C192.152 208.136 190.776 208.563 189.731 209.416C188.685 210.248 188.163 211.389 188.163 212.84C188.163 214.205 188.717 215.4 189.827 216.424C190.957 217.427 192.301 217.928 193.859 217.928C195.416 217.928 196.749 217.427 197.859 216.424C198.989 215.4 199.555 214.205 199.555 212.84C199.555 211.389 199.032 210.248 197.987 209.416ZM214.116 221.512C212.004 221.512 210.351 220.861 209.156 219.56C207.983 218.259 207.396 216.499 207.396 214.28V205H211.62V213.736C211.62 215.016 211.972 215.987 212.676 216.648C213.402 217.288 214.404 217.608 215.684 217.608C217.135 217.608 218.319 217.203 219.236 216.392C220.175 215.56 220.644 214.344 220.644 212.744V205H224.868V221H220.644V217.48C220.047 218.653 219.162 219.624 217.988 220.392C216.815 221.139 215.524 221.512 214.116 221.512ZM239.825 204.456C240.721 204.456 241.617 204.669 242.513 205.096L241.617 208.936C240.828 208.573 240.092 208.392 239.409 208.392C237.98 208.392 236.7 208.829 235.569 209.704C234.46 210.557 233.905 211.677 233.905 213.064V221H229.681V205H233.905V208.552C234.46 207.507 235.271 206.568 236.337 205.736C237.404 204.883 238.567 204.456 239.825 204.456ZM258.825 205.576L257.705 209.288C255.593 208.477 253.556 208.072 251.593 208.072C249.076 208.072 247.817 208.499 247.817 209.352C247.817 209.821 248.223 210.184 249.033 210.44C249.865 210.696 250.857 210.909 252.009 211.08C253.183 211.251 254.345 211.475 255.497 211.752C256.671 212.008 257.663 212.499 258.473 213.224C259.305 213.949 259.721 214.888 259.721 216.04C259.721 217.725 258.879 219.08 257.193 220.104C255.508 221.128 253.609 221.64 251.497 221.64C248.681 221.64 245.961 220.947 243.337 219.56L244.585 216.232C247.167 217.363 249.524 217.928 251.657 217.928C252.831 217.928 253.769 217.779 254.473 217.48C255.199 217.16 255.561 216.723 255.561 216.168C255.561 215.72 255.145 215.379 254.313 215.144C253.503 214.888 252.511 214.675 251.337 214.504C250.185 214.333 249.023 214.109 247.849 213.832C246.697 213.555 245.705 213.053 244.873 212.328C244.063 211.603 243.657 210.664 243.657 209.512C243.657 207.955 244.372 206.717 245.801 205.8C247.252 204.861 249.129 204.392 251.433 204.392C254.036 204.392 256.5 204.787 258.825 205.576ZM276.687 205V221H272.527V205H276.687ZM272.079 200.392C272.079 199.709 272.324 199.123 272.815 198.632C273.305 198.141 273.903 197.896 274.607 197.896C275.311 197.896 275.908 198.141 276.399 198.632C276.889 199.123 277.135 199.709 277.135 200.392C277.135 201.096 276.889 201.693 276.399 202.184C275.908 202.675 275.311 202.92 274.607 202.92C273.903 202.92 273.305 202.675 272.815 202.184C272.324 201.693 272.079 201.096 272.079 200.392ZM291.092 208.424C289.642 208.424 288.394 208.829 287.348 209.64C286.303 210.429 285.78 211.571 285.78 213.064V221H281.556V205H285.78V208.552C286.399 207.421 287.284 206.472 288.436 205.704C289.588 204.915 290.879 204.52 292.308 204.52C294.463 204.52 296.138 205.181 297.332 206.504C298.548 207.805 299.156 209.555 299.156 211.752V221H294.932V212.264C294.932 211.091 294.602 210.163 293.94 209.48C293.279 208.776 292.33 208.424 291.092 208.424ZM318.469 211.88C320.154 211.88 321.946 212.211 323.845 212.872V211.016C323.845 210.163 323.567 209.491 323.013 209C322.479 208.488 321.722 208.232 320.741 208.232C319.333 208.232 317.189 208.765 314.309 209.832L313.253 205.992C316.623 204.904 319.247 204.36 321.125 204.36C323.343 204.36 325.05 204.936 326.245 206.088C327.461 207.24 328.069 208.904 328.069 211.08V216.84C328.069 217.352 328.325 217.608 328.837 217.608C329.263 217.608 330.01 217.331 331.077 216.776L331.941 220.04C329.978 221.107 328.314 221.64 326.949 221.64C325.946 221.64 325.189 221.341 324.677 220.744C324.165 220.125 323.887 219.325 323.845 218.344C323.034 219.325 322.042 220.125 320.869 220.744C319.695 221.341 318.458 221.64 317.157 221.64C315.642 221.64 314.383 221.192 313.381 220.296C312.399 219.379 311.909 218.205 311.909 216.776C311.909 215.176 312.549 213.96 313.829 213.128C315.109 212.296 316.655 211.88 318.469 211.88ZM318.533 218.024C319.365 218.024 320.271 217.811 321.253 217.384C322.255 216.957 323.119 216.392 323.845 215.688V215.08C322.095 214.76 320.378 214.6 318.693 214.6C317.967 214.6 317.37 214.771 316.901 215.112C316.453 215.432 316.229 215.869 316.229 216.424C316.229 216.936 316.431 217.331 316.837 217.608C317.263 217.885 317.829 218.024 318.533 218.024ZM52.544 244.456C53.44 244.456 54.336 244.669 55.232 245.096L54.336 248.936C53.5467 248.573 52.8107 248.392 52.128 248.392C50.6987 248.392 49.4187 248.829 48.288 249.704C47.1787 250.557 46.624 251.677 46.624 253.064V261H42.4V245H46.624V248.552C47.1787 247.507 47.9893 246.568 49.056 245.736C50.1227 244.883 51.2853 244.456 52.544 244.456ZM59.224 246.728C61.144 245.213 63.5013 244.456 66.296 244.456C69.0907 244.456 71.448 245.213 73.368 246.728C75.288 248.221 76.248 250.259 76.248 252.84C76.248 255.272 75.2987 257.341 73.4 259.048C71.5227 260.733 69.1547 261.576 66.296 261.576C63.4373 261.576 61.0587 260.733 59.16 259.048C57.2827 257.341 56.344 255.272 56.344 252.84C56.344 250.259 57.304 248.221 59.224 246.728ZM70.424 249.416C69.3787 248.563 68.0027 248.136 66.296 248.136C64.5893 248.136 63.2133 248.563 62.168 249.416C61.1227 250.248 60.6 251.389 60.6 252.84C60.6 254.205 61.1547 255.4 62.264 256.424C63.3947 257.427 64.7387 257.928 66.296 257.928C67.8533 257.928 69.1867 257.427 70.296 256.424C71.4267 255.4 71.992 254.205 71.992 252.84C71.992 251.389 71.4693 250.248 70.424 249.416ZM98.2338 261L93.5298 250.056L88.7938 261H84.4738L77.4657 245H82.0418L86.6818 256.008L91.3218 245H95.7378L100.378 255.976L105.05 245H109.53L102.522 261H98.2338Z" fill="#FFC2D7"></path></svg> 