<?xml version="1.0" encoding="UTF-8"?> <svg xmlns="http://www.w3.org/2000/svg" width="400" height="600" viewBox="0 0 400 600" fill="none"> <rect width="400" height="600" rx="20" fill="#E7497E"></rect> <path d="M47.296 84.136L60.8 101H65.952V78.6H61.536V95.464L48.032 78.6H42.88V101H47.296V84.136ZM80.4918 97.768C77.4838 97.768 75.1478 96.456 74.5398 94.12H88.2998C88.4918 93.384 88.5878 92.648 88.5878 91.944C88.5878 87.624 84.9398 84.456 80.0758 84.456C74.7318 84.456 70.1878 87.656 70.1878 93C70.1878 97.8 74.1238 101.576 80.0758 101.576C83.0198 101.576 86.0278 100.584 88.1718 99.496L86.9237 96.168C84.6518 97.352 82.6678 97.768 80.4918 97.768ZM79.8198 88.008C82.3158 88.008 83.9158 89.128 84.3318 91.016H74.6358C75.2758 89.064 77.0677 88.008 79.8198 88.008ZM94.39 85H89.75L97.302 101H101.942L109.526 85H104.822L99.638 96.232L94.39 85ZM121.179 97.768C118.171 97.768 115.835 96.456 115.227 94.12H128.987C129.179 93.384 129.275 92.648 129.275 91.944C129.275 87.624 125.627 84.456 120.763 84.456C115.419 84.456 110.875 87.656 110.875 93C110.875 97.8 114.811 101.576 120.763 101.576C123.707 101.576 126.715 100.584 128.859 99.496L127.611 96.168C125.339 97.352 123.355 97.768 121.179 97.768ZM120.507 88.008C123.003 88.008 124.603 89.128 125.019 91.016H115.323C115.963 89.064 117.755 88.008 120.507 88.008ZM142.982 84.456C140.198 84.456 137.99 86.824 137.062 88.552V85H132.838V101H137.062V93.064C137.062 90.12 139.91 88.392 142.566 88.392C143.174 88.392 144.006 88.584 144.774 88.936L145.67 85.096C144.87 84.712 143.878 84.456 142.982 84.456ZM166.436 88.424C168.964 88.424 170.276 89.992 170.276 92.264V101H174.5V91.752C174.5 87.4 172.004 84.52 167.652 84.52C164.612 84.52 162.244 86.472 161.124 88.552V77.288H156.9V101H161.124V93.064C161.124 89.896 163.78 88.424 166.436 88.424ZM184.75 91.88C181.454 91.88 178.19 93.352 178.19 96.776C178.19 99.656 180.43 101.64 183.438 101.64C186.158 101.64 188.59 100.168 190.126 98.344C190.19 100.136 191.086 101.64 193.23 101.64C194.542 101.64 196.462 101 198.222 100.04L197.358 96.776C196.43 97.256 195.598 97.608 195.118 97.608C194.67 97.608 194.35 97.32 194.35 96.84V91.08C194.35 86.696 191.79 84.36 187.406 84.36C184.878 84.36 181.518 85.352 179.534 85.992L180.59 89.832C182.926 88.968 185.358 88.232 187.022 88.232C189.038 88.232 190.126 89.352 190.126 91.016V92.872C188.75 92.392 186.478 91.88 184.75 91.88ZM184.814 98.024C183.47 98.024 182.51 97.48 182.51 96.424C182.51 95.272 183.566 94.6 184.974 94.6C186.51 94.6 188.366 94.76 190.126 95.08V95.688C188.622 97.16 186.414 98.024 184.814 98.024ZM202.859 85H198.219L205.771 101H210.411L217.995 85H213.291L208.107 96.232L202.859 85ZM229.648 97.768C226.64 97.768 224.304 96.456 223.696 94.12H237.456C237.648 93.384 237.744 92.648 237.744 91.944C237.744 87.624 234.096 84.456 229.232 84.456C223.888 84.456 219.344 87.656 219.344 93C219.344 97.8 223.28 101.576 229.232 101.576C232.176 101.576 235.184 100.584 237.328 99.496L236.08 96.168C233.808 97.352 231.824 97.768 229.648 97.768ZM228.976 88.008C231.472 88.008 233.072 89.128 233.488 91.016H223.792C224.432 89.064 226.224 88.008 228.976 88.008ZM255.265 78.6H250.849V101H255.265V78.6ZM278.867 97.768C275.859 97.768 273.523 96.456 272.915 94.12H286.675C286.867 93.384 286.963 92.648 286.963 91.944C286.963 87.624 283.315 84.456 278.451 84.456C273.107 84.456 268.563 87.656 268.563 93C268.563 97.8 272.499 101.576 278.451 101.576C281.395 101.576 284.403 100.584 286.547 99.496L285.299 96.168C283.027 97.352 281.043 97.768 278.867 97.768ZM278.195 88.008C280.691 88.008 282.291 89.128 282.707 91.016H273.011C273.651 89.064 275.443 88.008 278.195 88.008ZM292.765 85H288.125L295.677 101H300.317L307.901 85H303.197L298.013 96.232L292.765 85ZM319.554 97.768C316.546 97.768 314.21 96.456 313.602 94.12H327.362C327.554 93.384 327.65 92.648 327.65 91.944C327.65 87.624 324.002 84.456 319.138 84.456C313.794 84.456 309.25 87.656 309.25 93C309.25 97.8 313.186 101.576 319.138 101.576C322.082 101.576 325.09 100.584 327.234 99.496L325.986 96.168C323.714 97.352 321.73 97.768 319.554 97.768ZM318.882 88.008C321.378 88.008 322.978 89.128 323.394 91.016H313.698C314.338 89.064 316.13 88.008 318.882 88.008ZM341.357 84.456C338.573 84.456 336.365 86.824 335.437 88.552V85H331.213V101H335.437V93.064C335.437 90.12 338.285 88.392 340.941 88.392C341.549 88.392 342.381 88.584 343.149 88.936L344.045 85.096C343.245 84.712 342.253 84.456 341.357 84.456ZM60.64 141H64.928L71.936 125H67.456L62.784 135.976L58.144 125H53.728L49.088 136.008L44.448 125H39.872L46.88 141H51.2L55.936 130.056L60.64 141ZM79.8125 131.88C76.5165 131.88 73.2525 133.352 73.2525 136.776C73.2525 139.656 75.4925 141.64 78.5005 141.64C81.2205 141.64 83.6525 140.168 85.1885 138.344C85.2525 140.136 86.1485 141.64 88.2925 141.64C89.6045 141.64 91.5245 141 93.2845 140.04L92.4205 136.776C91.4925 137.256 90.6605 137.608 90.1805 137.608C89.7325 137.608 89.4125 137.32 89.4125 136.84V131.08C89.4125 126.696 86.8525 124.36 82.4685 124.36C79.9405 124.36 76.5805 125.352 74.5965 125.992L75.6525 129.832C77.9885 128.968 80.4205 128.232 82.0845 128.232C84.1005 128.232 85.1885 129.352 85.1885 131.016V132.872C83.8125 132.392 81.5405 131.88 79.8125 131.88ZM79.8765 138.024C78.5325 138.024 77.5725 137.48 77.5725 136.424C77.5725 135.272 78.6285 134.6 80.0365 134.6C81.5725 134.6 83.4285 134.76 85.1885 135.08V135.688C83.6845 137.16 81.4765 138.024 79.8765 138.024ZM93.9213 128.68H96.9613V134.888C96.9613 138.92 99.1053 141.544 103.073 141.544C104.769 141.544 107.041 140.808 108.385 140.104L107.457 136.488C106.433 137.128 105.025 137.64 103.777 137.64C102.113 137.64 101.185 136.456 101.185 134.728V128.68H107.841V125H101.185V120.2H97.6653L97.0893 125.128L93.9213 125.32V128.68ZM120.42 124.456C115.076 124.456 110.532 127.656 110.532 133C110.532 137.8 114.18 141.576 120.132 141.576C123.14 141.576 125.892 140.648 128.068 139.496L126.819 136.168C124.708 137.096 123.012 137.768 120.676 137.768C117.348 137.768 114.788 135.912 114.788 132.84C114.788 129.928 117.092 128.168 120.164 128.168C122.34 128.168 124.196 128.616 126.404 129.512L127.428 125.736C125.508 125.064 123.076 124.456 120.42 124.456ZM140.811 128.424C143.339 128.424 144.651 129.992 144.651 132.264V141H148.875V131.752C148.875 127.4 146.379 124.52 142.027 124.52C138.987 124.52 136.619 126.472 135.499 128.552V117.288H131.275V141H135.499V133.064C135.499 129.896 138.155 128.424 140.811 128.424ZM162.773 137.768C159.765 137.768 157.429 136.456 156.821 134.12H170.581C170.773 133.384 170.869 132.648 170.869 131.944C170.869 127.624 167.221 124.456 162.357 124.456C157.013 124.456 152.469 127.656 152.469 133C152.469 137.8 156.405 141.576 162.357 141.576C165.301 141.576 168.309 140.584 170.453 139.496L169.205 136.168C166.933 137.352 164.949 137.768 162.773 137.768ZM162.101 128.008C164.597 128.008 166.197 129.128 166.613 131.016H156.917C157.557 129.064 159.349 128.008 162.101 128.008ZM181.439 141.544C184.703 141.544 187.263 139.656 188.319 137.448V141H192.543V117H188.319V125.576C186.719 125.064 184.511 124.424 182.783 124.424C177.407 124.424 173.375 128.36 173.375 133.16C173.375 138.344 177.055 141.544 181.439 141.544ZM182.687 137.608C179.839 137.608 177.631 136.008 177.631 133.128C177.631 130.312 179.839 128.136 182.719 128.136C184.671 128.136 186.463 128.552 188.319 129.096V132.552C188.319 135.624 185.503 137.608 182.687 137.608ZM216.544 124.456C213.76 124.456 211.552 126.824 210.624 128.552V125H206.4V141H210.624V133.064C210.624 130.12 213.472 128.392 216.128 128.392C216.736 128.392 217.568 128.584 218.336 128.936L219.232 125.096C218.432 124.712 217.44 124.456 216.544 124.456ZM230.648 137.768C227.64 137.768 225.304 136.456 224.696 134.12H238.456C238.648 133.384 238.744 132.648 238.744 131.944C238.744 127.624 235.096 124.456 230.232 124.456C224.888 124.456 220.344 127.656 220.344 133C220.344 137.8 224.28 141.576 230.232 141.576C233.176 141.576 236.184 140.584 238.328 139.496L237.08 136.168C234.808 137.352 232.824 137.768 230.648 137.768ZM229.976 128.008C232.472 128.008 234.072 129.128 234.488 131.016H224.792C225.432 129.064 227.224 128.008 229.976 128.008ZM251.554 137.768C248.546 137.768 246.21 136.456 245.602 134.12H259.362C259.554 133.384 259.65 132.648 259.65 131.944C259.65 127.624 256.002 124.456 251.138 124.456C245.794 124.456 241.25 127.656 241.25 133C241.25 137.8 245.186 141.576 251.138 141.576C254.082 141.576 257.09 140.584 259.234 139.496L257.986 136.168C255.714 137.352 253.73 137.768 251.554 137.768ZM250.882 128.008C253.378 128.008 254.978 129.128 255.394 131.016H245.698C246.338 129.064 248.13 128.008 250.882 128.008ZM267.405 141V117H263.213V141H267.405ZM286.357 125.576C284.469 124.936 281.493 124.392 278.965 124.392C274.421 124.392 271.189 126.376 271.189 129.512C271.189 135.752 283.093 133.64 283.093 136.168C283.093 137.288 281.493 137.928 279.189 137.928C276.725 137.928 274.229 137.16 272.117 136.232L270.868 139.56C273.045 140.712 276.021 141.64 279.029 141.64C282.933 141.64 287.253 139.624 287.253 136.04C287.253 129.8 275.349 132.008 275.349 129.352C275.349 128.392 277.013 128.072 279.125 128.072C281.173 128.072 283.157 128.488 285.237 129.288L286.357 125.576ZM308.89 124.456C303.546 124.456 298.938 127.496 298.938 132.84C298.938 137.64 303.098 141.576 308.89 141.576C314.682 141.576 318.842 137.64 318.842 132.84C318.842 127.496 314.234 124.456 308.89 124.456ZM308.89 128.136C312.218 128.136 314.586 129.864 314.586 132.84C314.586 135.528 312.058 137.928 308.89 137.928C305.722 137.928 303.194 135.528 303.194 132.84C303.194 129.864 305.562 128.136 308.89 128.136ZM332.732 124.456C329.948 124.456 327.74 126.824 326.812 128.552V125H322.588V141H326.812V133.064C326.812 130.12 329.66 128.392 332.316 128.392C332.924 128.392 333.756 128.584 334.524 128.936L335.42 125.096C334.62 124.712 333.628 124.456 332.732 124.456ZM40.64 168.68H43.68V174.888C43.68 178.92 45.824 181.544 49.792 181.544C51.488 181.544 53.76 180.808 55.104 180.104L54.176 176.488C53.152 177.128 51.744 177.64 50.496 177.64C48.832 177.64 47.904 176.456 47.904 174.728V168.68H54.56V165H47.904V160.2H44.384L43.808 165.128L40.64 165.32V168.68ZM62.5303 165H58.3703V181H62.5303V165ZM57.9223 160.392C57.9223 161.8 59.0423 162.92 60.4503 162.92C61.8583 162.92 62.9783 161.8 62.9783 160.392C62.9783 159.016 61.8583 157.896 60.4503 157.896C59.0423 157.896 57.9223 159.016 57.9223 160.392ZM71.56 157H67.4V181H71.56V157ZM77.416 179.848C78.28 180.872 79.304 181.416 80.392 181.416C81.672 181.416 83.048 180.808 84.52 180.168L83.528 176.744C82.76 177.064 82.056 177.416 81.416 177.416C81.064 177.416 80.744 177.32 80.456 177.032L76.712 173.16L84.424 165H79.016L71.784 173.288L77.416 179.848ZM95.015 168.68H98.055V174.888C98.055 178.92 100.199 181.544 104.167 181.544C105.863 181.544 108.135 180.808 109.479 180.104L108.551 176.488C107.527 177.128 106.119 177.64 104.871 177.64C103.207 177.64 102.279 176.456 102.279 174.728V168.68H108.935V165H102.279V160.2H98.759L98.183 165.128L95.015 165.32V168.68ZM121.577 164.456C116.233 164.456 111.625 167.496 111.625 172.84C111.625 177.64 115.785 181.576 121.577 181.576C127.369 181.576 131.529 177.64 131.529 172.84C131.529 167.496 126.921 164.456 121.577 164.456ZM121.577 168.136C124.905 168.136 127.273 169.864 127.273 172.84C127.273 175.528 124.745 177.928 121.577 177.928C118.409 177.928 115.881 175.528 115.881 172.84C115.881 169.864 118.249 168.136 121.577 168.136ZM139.435 157H135.275V181H139.435V157ZM145.291 179.848C146.155 180.872 147.179 181.416 148.267 181.416C149.547 181.416 150.923 180.808 152.395 180.168L151.403 176.744C150.635 177.064 149.931 177.416 149.291 177.416C148.939 177.416 148.619 177.32 148.331 177.032L144.587 173.16L152.299 165H146.891L139.659 173.288L145.291 179.848ZM169.732 165.576C167.844 164.936 164.868 164.392 162.34 164.392C157.796 164.392 154.564 166.376 154.564 169.512C154.564 175.752 166.468 173.64 166.468 176.168C166.468 177.288 164.868 177.928 162.564 177.928C160.1 177.928 157.604 177.16 155.492 176.232L154.243 179.56C156.42 180.712 159.396 181.64 162.404 181.64C166.308 181.64 170.628 179.624 170.628 176.04C170.628 169.8 158.724 172.008 158.724 169.352C158.724 168.392 160.388 168.072 162.5 168.072C164.548 168.072 166.532 168.488 168.612 169.288L169.732 165.576ZM193.609 164.52C190.825 164.52 188.649 166.504 187.593 168.392V165H183.369V181H187.593V173.032C187.593 169.96 189.961 168.424 192.169 168.424C194.505 168.424 195.753 169.992 195.753 172.104V181H199.977V173.032C199.977 169.992 202.345 168.424 204.553 168.424C206.889 168.424 208.137 169.992 208.137 172.104V181H212.361V171.592C212.361 167.368 210.153 164.52 205.993 164.52C203.305 164.52 200.745 166.504 199.465 168.424C198.569 166.024 196.617 164.52 193.609 164.52ZM225.89 164.456C220.546 164.456 215.938 167.496 215.938 172.84C215.938 177.64 220.098 181.576 225.89 181.576C231.682 181.576 235.842 177.64 235.842 172.84C235.842 167.496 231.234 164.456 225.89 164.456ZM225.89 168.136C229.218 168.136 231.586 169.864 231.586 172.84C231.586 175.528 229.058 177.928 225.89 177.928C222.722 177.928 220.194 175.528 220.194 172.84C220.194 169.864 222.562 168.136 225.89 168.136ZM249.732 164.456C246.948 164.456 244.74 166.824 243.812 168.552V165H239.588V181H243.812V173.064C243.812 170.12 246.66 168.392 249.316 168.392C249.924 168.392 250.756 168.584 251.524 168.936L252.42 165.096C251.62 164.712 250.628 164.456 249.732 164.456ZM263.836 177.768C260.828 177.768 258.492 176.456 257.884 174.12H271.644C271.836 173.384 271.932 172.648 271.932 171.944C271.932 167.624 268.284 164.456 263.42 164.456C258.076 164.456 253.532 167.656 253.532 173C253.532 177.8 257.468 181.576 263.42 181.576C266.364 181.576 269.372 180.584 271.516 179.496L270.267 176.168C267.996 177.352 266.012 177.768 263.836 177.768ZM263.164 168.008C265.66 168.008 267.26 169.128 267.676 171.016H257.98C258.62 169.064 260.411 168.008 263.164 168.008ZM40.64 208.68H43.68V214.888C43.68 218.92 45.824 221.544 49.792 221.544C51.488 221.544 53.76 220.808 55.104 220.104L54.176 216.488C53.152 217.128 51.744 217.64 50.496 217.64C48.832 217.64 47.904 216.456 47.904 214.728V208.68H54.56V205H47.904V200.2H44.384L43.808 205.128L40.64 205.32V208.68ZM67.8423 208.424C70.3703 208.424 71.6823 209.992 71.6823 212.264V221H75.9062V211.752C75.9062 207.4 73.4103 204.52 69.0583 204.52C66.0183 204.52 63.6503 206.472 62.5303 208.552V197.288H58.3063V221H62.5303V213.064C62.5303 209.896 65.1863 208.424 67.8423 208.424ZM86.1562 211.88C82.8602 211.88 79.5963 213.352 79.5963 216.776C79.5963 219.656 81.8363 221.64 84.8443 221.64C87.5642 221.64 89.9963 220.168 91.5323 218.344C91.5963 220.136 92.4923 221.64 94.6363 221.64C95.9483 221.64 97.8683 221 99.6283 220.04L98.7643 216.776C97.8363 217.256 97.0043 217.608 96.5243 217.608C96.0763 217.608 95.7563 217.32 95.7563 216.84V211.08C95.7563 206.696 93.1963 204.36 88.8123 204.36C86.2843 204.36 82.9243 205.352 80.9403 205.992L81.9963 209.832C84.3323 208.968 86.7643 208.232 88.4283 208.232C90.4443 208.232 91.5323 209.352 91.5323 211.016V212.872C90.1563 212.392 87.8843 211.88 86.1562 211.88ZM86.2203 218.024C84.8763 218.024 83.9163 217.48 83.9163 216.424C83.9163 215.272 84.9723 214.6 86.3802 214.6C87.9163 214.6 89.7723 214.76 91.5323 215.08V215.688C90.0283 217.16 87.8203 218.024 86.2203 218.024ZM111.561 208.424C114.089 208.424 115.401 209.992 115.401 212.264V221H119.625V211.752C119.625 207.4 117.129 204.52 112.777 204.52C109.737 204.52 107.369 206.472 106.249 208.552V205H102.025V221H106.249V213.064C106.249 209.896 108.905 208.424 111.561 208.424ZM137.306 211.4H140.378C143.258 211.4 145.242 212.744 145.242 214.568C145.242 216.168 143.706 217.736 141.274 217.736C138.49 217.736 136.25 216.2 134.458 214.472L131.578 217.416C134.266 219.848 137.274 221.64 141.274 221.64C146.458 221.64 149.594 218.472 149.594 214.824C149.594 212.296 148.122 210.376 145.914 209.224C147.706 208.072 148.89 206.312 148.89 204.232C148.89 201.064 146.234 197.96 140.634 197.96C137.05 197.96 133.69 200.2 131.514 202.664L134.586 205.448C136.186 203.56 138.458 201.8 140.986 201.8C143.162 201.8 144.538 202.952 144.538 204.392C144.538 206.248 142.97 207.464 140.378 207.464H137.306V211.4ZM172.249 208.424C174.777 208.424 176.089 209.992 176.089 212.264V221H180.312V211.752C180.312 207.4 177.817 204.52 173.465 204.52C170.425 204.52 168.057 206.472 166.937 208.552V197.288H162.713V221H166.937V213.064C166.937 209.896 169.593 208.424 172.249 208.424ZM193.859 204.456C188.515 204.456 183.907 207.496 183.907 212.84C183.907 217.64 188.067 221.576 193.859 221.576C199.651 221.576 203.811 217.64 203.811 212.84C203.811 207.496 199.203 204.456 193.859 204.456ZM193.859 208.136C197.187 208.136 199.555 209.864 199.555 212.84C199.555 215.528 197.027 217.928 193.859 217.928C190.691 217.928 188.163 215.528 188.163 212.84C188.163 209.864 190.531 208.136 193.859 208.136ZM214.116 221.512C217.028 221.512 219.492 219.752 220.644 217.48V221H224.868V205H220.644V212.744C220.644 216.136 218.372 217.608 215.684 217.608C213.156 217.608 211.62 216.328 211.62 213.736V205H207.396V214.28C207.396 218.632 209.828 221.512 214.116 221.512ZM239.825 204.456C237.041 204.456 234.833 206.824 233.905 208.552V205H229.681V221H233.905V213.064C233.905 210.12 236.753 208.392 239.409 208.392C240.017 208.392 240.849 208.584 241.617 208.936L242.513 205.096C241.713 204.712 240.721 204.456 239.825 204.456ZM258.825 205.576C256.937 204.936 253.961 204.392 251.433 204.392C246.889 204.392 243.657 206.376 243.657 209.512C243.657 215.752 255.561 213.64 255.561 216.168C255.561 217.288 253.961 217.928 251.657 217.928C249.193 217.928 246.697 217.16 244.585 216.232L243.337 219.56C245.513 220.712 248.489 221.64 251.497 221.64C255.401 221.64 259.721 219.624 259.721 216.04C259.721 209.8 247.817 212.008 247.817 209.352C247.817 208.392 249.481 208.072 251.593 208.072C253.641 208.072 255.625 208.488 257.705 209.288L258.825 205.576ZM276.687 205H272.527V221H276.687V205ZM272.079 200.392C272.079 201.8 273.199 202.92 274.607 202.92C276.015 202.92 277.135 201.8 277.135 200.392C277.135 199.016 276.015 197.896 274.607 197.896C273.199 197.896 272.079 199.016 272.079 200.392ZM291.092 208.424C293.62 208.424 294.932 209.992 294.932 212.264V221H299.156V211.752C299.156 207.4 296.66 204.52 292.308 204.52C289.268 204.52 286.9 206.472 285.78 208.552V205H281.556V221H285.78V213.064C285.78 209.896 288.436 208.424 291.092 208.424ZM318.469 211.88C315.173 211.88 311.909 213.352 311.909 216.776C311.909 219.656 314.149 221.64 317.157 221.64C319.877 221.64 322.309 220.168 323.845 218.344C323.909 220.136 324.805 221.64 326.949 221.64C328.261 221.64 330.181 221 331.941 220.04L331.077 216.776C330.149 217.256 329.317 217.608 328.837 217.608C328.389 217.608 328.069 217.32 328.069 216.84V211.08C328.069 206.696 325.509 204.36 321.125 204.36C318.597 204.36 315.237 205.352 313.253 205.992L314.309 209.832C316.645 208.968 319.077 208.232 320.741 208.232C322.757 208.232 323.845 209.352 323.845 211.016V212.872C322.469 212.392 320.197 211.88 318.469 211.88ZM318.533 218.024C317.189 218.024 316.229 217.48 316.229 216.424C316.229 215.272 317.285 214.6 318.693 214.6C320.229 214.6 322.085 214.76 323.845 215.08V215.688C322.341 217.16 320.133 218.024 318.533 218.024ZM52.544 244.456C49.76 244.456 47.552 246.824 46.624 248.552V245H42.4V261H46.624V253.064C46.624 250.12 49.472 248.392 52.128 248.392C52.736 248.392 53.568 248.584 54.336 248.936L55.232 245.096C54.432 244.712 53.44 244.456 52.544 244.456ZM66.296 244.456C60.952 244.456 56.344 247.496 56.344 252.84C56.344 257.64 60.504 261.576 66.296 261.576C72.088 261.576 76.248 257.64 76.248 252.84C76.248 247.496 71.64 244.456 66.296 244.456ZM66.296 248.136C69.624 248.136 71.992 249.864 71.992 252.84C71.992 255.528 69.464 257.928 66.296 257.928C63.128 257.928 60.6 255.528 60.6 252.84C60.6 249.864 62.968 248.136 66.296 248.136ZM98.2338 261H102.522L109.53 245H105.05L100.378 255.976L95.7378 245H91.3218L86.6818 256.008L82.0418 245H77.4657L84.4738 261H88.7938L93.5298 250.056L98.2338 261Z" fill="#FFC2D7"></path> </svg> 