<?xml version="1.0" encoding="UTF-8"?> <svg xmlns="http://www.w3.org/2000/svg" width="400" height="600" viewBox="0 0 400 600" fill="none"> <rect width="400" height="600" rx="20" fill="#106BD0"></rect> <path d="M47.296 84.136L60.8 101H65.952V78.6H61.536V95.464L48.032 78.6H42.88V101H47.296V84.136ZM80.4918 97.768C77.4838 97.768 75.1478 96.456 74.5398 94.12H88.2998C88.4918 93.384 88.5878 92.648 88.5878 91.944C88.5878 87.624 84.9398 84.456 80.0758 84.456C74.7318 84.456 70.1878 87.656 70.1878 93C70.1878 97.8 74.1238 101.576 80.0758 101.576C83.0198 101.576 86.0278 100.584 88.1718 99.496L86.9237 96.168C84.6518 97.352 82.6678 97.768 80.4918 97.768ZM79.8198 88.008C82.3158 88.008 83.9158 89.128 84.3318 91.016H74.6358C75.2758 89.064 77.0677 88.008 79.8198 88.008ZM94.39 85H89.75L97.302 101H101.942L109.526 85H104.822L99.638 96.232L94.39 85ZM121.179 97.768C118.171 97.768 115.835 96.456 115.227 94.12H128.987C129.179 93.384 129.275 92.648 129.275 91.944C129.275 87.624 125.627 84.456 120.763 84.456C115.419 84.456 110.875 87.656 110.875 93C110.875 97.8 114.811 101.576 120.763 101.576C123.707 101.576 126.715 100.584 128.859 99.496L127.611 96.168C125.339 97.352 123.355 97.768 121.179 97.768ZM120.507 88.008C123.003 88.008 124.603 89.128 125.019 91.016H115.323C115.963 89.064 117.755 88.008 120.507 88.008ZM142.982 84.456C140.198 84.456 137.99 86.824 137.062 88.552V85H132.838V101H137.062V93.064C137.062 90.12 139.91 88.392 142.566 88.392C143.174 88.392 144.006 88.584 144.774 88.936L145.67 85.096C144.87 84.712 143.878 84.456 142.982 84.456ZM166.436 88.424C168.964 88.424 170.276 89.992 170.276 92.264V101H174.5V91.752C174.5 87.4 172.004 84.52 167.652 84.52C164.612 84.52 162.244 86.472 161.124 88.552V77.288H156.9V101H161.124V93.064C161.124 89.896 163.78 88.424 166.436 88.424ZM184.75 91.88C181.454 91.88 178.19 93.352 178.19 96.776C178.19 99.656 180.43 101.64 183.438 101.64C186.158 101.64 188.59 100.168 190.126 98.344C190.19 100.136 191.086 101.64 193.23 101.64C194.542 101.64 196.462 101 198.222 100.04L197.358 96.776C196.43 97.256 195.598 97.608 195.118 97.608C194.67 97.608 194.35 97.32 194.35 96.84V91.08C194.35 86.696 191.79 84.36 187.406 84.36C184.878 84.36 181.518 85.352 179.534 85.992L180.59 89.832C182.926 88.968 185.358 88.232 187.022 88.232C189.038 88.232 190.126 89.352 190.126 91.016V92.872C188.75 92.392 186.478 91.88 184.75 91.88ZM184.814 98.024C183.47 98.024 182.51 97.48 182.51 96.424C182.51 95.272 183.566 94.6 184.974 94.6C186.51 94.6 188.366 94.76 190.126 95.08V95.688C188.622 97.16 186.414 98.024 184.814 98.024ZM202.859 85H198.219L205.771 101H210.411L217.995 85H213.291L208.107 96.232L202.859 85ZM229.648 97.768C226.64 97.768 224.304 96.456 223.696 94.12H237.456C237.648 93.384 237.744 92.648 237.744 91.944C237.744 87.624 234.096 84.456 229.232 84.456C223.888 84.456 219.344 87.656 219.344 93C219.344 97.8 223.28 101.576 229.232 101.576C232.176 101.576 235.184 100.584 237.328 99.496L236.08 96.168C233.808 97.352 231.824 97.768 229.648 97.768ZM228.976 88.008C231.472 88.008 233.072 89.128 233.488 91.016H223.792C224.432 89.064 226.224 88.008 228.976 88.008ZM255.265 78.6H250.849V101H255.265V78.6ZM278.867 97.768C275.859 97.768 273.523 96.456 272.915 94.12H286.675C286.867 93.384 286.963 92.648 286.963 91.944C286.963 87.624 283.315 84.456 278.451 84.456C273.107 84.456 268.563 87.656 268.563 93C268.563 97.8 272.499 101.576 278.451 101.576C281.395 101.576 284.403 100.584 286.547 99.496L285.299 96.168C283.027 97.352 281.043 97.768 278.867 97.768ZM278.195 88.008C280.691 88.008 282.291 89.128 282.707 91.016H273.011C273.651 89.064 275.443 88.008 278.195 88.008ZM292.765 85H288.125L295.677 101H300.317L307.901 85H303.197L298.013 96.232L292.765 85ZM319.554 97.768C316.546 97.768 314.21 96.456 313.602 94.12H327.362C327.554 93.384 327.65 92.648 327.65 91.944C327.65 87.624 324.002 84.456 319.138 84.456C313.794 84.456 309.25 87.656 309.25 93C309.25 97.8 313.186 101.576 319.138 101.576C322.082 101.576 325.09 100.584 327.234 99.496L325.986 96.168C323.714 97.352 321.73 97.768 319.554 97.768ZM318.882 88.008C321.378 88.008 322.978 89.128 323.394 91.016H313.698C314.338 89.064 316.13 88.008 318.882 88.008ZM341.357 84.456C338.573 84.456 336.365 86.824 335.437 88.552V85H331.213V101H335.437V93.064C335.437 90.12 338.285 88.392 340.941 88.392C341.549 88.392 342.381 88.584 343.149 88.936L344.045 85.096C343.245 84.712 342.253 84.456 341.357 84.456ZM51.936 128.424C54.464 128.424 55.776 129.992 55.776 132.264V141H60V131.752C60 127.4 57.504 124.52 53.152 124.52C50.112 124.52 47.744 126.472 46.624 128.552V117.288H42.4V141H46.624V133.064C46.624 129.896 49.28 128.424 51.936 128.424ZM70.25 131.88C66.954 131.88 63.69 133.352 63.69 136.776C63.69 139.656 65.93 141.64 68.938 141.64C71.658 141.64 74.09 140.168 75.626 138.344C75.69 140.136 76.586 141.64 78.73 141.64C80.042 141.64 81.962 141 83.722 140.04L82.858 136.776C81.93 137.256 81.098 137.608 80.618 137.608C80.17 137.608 79.85 137.32 79.85 136.84V131.08C79.85 126.696 77.29 124.36 72.906 124.36C70.378 124.36 67.018 125.352 65.034 125.992L66.09 129.832C68.426 128.968 70.858 128.232 72.522 128.232C74.538 128.232 75.626 129.352 75.626 131.016V132.872C74.25 132.392 71.978 131.88 70.25 131.88ZM70.314 138.024C68.97 138.024 68.01 137.48 68.01 136.424C68.01 135.272 69.066 134.6 70.474 134.6C72.01 134.6 73.866 134.76 75.626 135.08V135.688C74.122 137.16 71.914 138.024 70.314 138.024ZM93.1267 141.544C96.3908 141.544 98.9508 139.656 100.007 137.448V141H104.231V117H100.007V125.576C98.4068 125.064 96.1988 124.424 94.4708 124.424C89.0948 124.424 85.0628 128.36 85.0628 133.16C85.0628 138.344 88.7428 141.544 93.1267 141.544ZM94.3748 137.608C91.5268 137.608 89.3188 136.008 89.3188 133.128C89.3188 130.312 91.5268 128.136 94.4068 128.136C96.3588 128.136 98.1508 128.552 100.007 129.096V132.552C100.007 135.624 97.1908 137.608 94.3748 137.608ZM123.688 131.88C120.391 131.88 117.128 133.352 117.128 136.776C117.128 139.656 119.368 141.64 122.376 141.64C125.095 141.64 127.528 140.168 129.064 138.344C129.128 140.136 130.024 141.64 132.168 141.64C133.48 141.64 135.4 141 137.16 140.04L136.296 136.776C135.368 137.256 134.536 137.608 134.056 137.608C133.608 137.608 133.288 137.32 133.288 136.84V131.08C133.288 126.696 130.728 124.36 126.344 124.36C123.816 124.36 120.456 125.352 118.472 125.992L119.528 129.832C121.864 128.968 124.296 128.232 125.96 128.232C127.976 128.232 129.064 129.352 129.064 131.016V132.872C127.688 132.392 125.416 131.88 123.688 131.88ZM123.752 138.024C122.408 138.024 121.448 137.48 121.448 136.424C121.448 135.272 122.504 134.6 123.911 134.6C125.448 134.6 127.304 134.76 129.064 135.08V135.688C127.56 137.16 125.352 138.024 123.752 138.024ZM158.763 124.456C155.979 124.456 153.771 126.824 152.843 128.552V125H148.619V141H152.843V133.064C152.843 130.12 155.691 128.392 158.347 128.392C158.955 128.392 159.787 128.584 160.555 128.936L161.451 125.096C160.651 124.712 159.659 124.456 158.763 124.456ZM172.515 124.456C167.171 124.456 162.563 127.496 162.563 132.84C162.563 137.64 166.723 141.576 172.515 141.576C178.307 141.576 182.467 137.64 182.467 132.84C182.467 127.496 177.859 124.456 172.515 124.456ZM172.515 128.136C175.843 128.136 178.211 129.864 178.211 132.84C178.211 135.528 175.683 137.928 172.515 137.928C169.347 137.928 166.819 135.528 166.819 132.84C166.819 129.864 169.187 128.136 172.515 128.136ZM196.453 124.52C193.669 124.52 191.493 126.504 190.437 128.392V125H186.213V141H190.437V133.032C190.437 129.96 192.805 128.424 195.013 128.424C197.349 128.424 198.597 129.992 198.597 132.104V141H202.821V133.032C202.821 129.992 205.189 128.424 207.397 128.424C209.733 128.424 210.981 129.992 210.981 132.104V141H215.205V131.592C215.205 127.368 212.997 124.52 208.837 124.52C206.149 124.52 203.589 126.504 202.309 128.424C201.413 126.024 199.461 124.52 196.453 124.52ZM225.438 131.88C222.141 131.88 218.878 133.352 218.878 136.776C218.878 139.656 221.118 141.64 224.126 141.64C226.845 141.64 229.278 140.168 230.814 138.344C230.878 140.136 231.774 141.64 233.918 141.64C235.23 141.64 237.15 141 238.91 140.04L238.046 136.776C237.118 137.256 236.286 137.608 235.806 137.608C235.358 137.608 235.038 137.32 235.038 136.84V131.08C235.038 126.696 232.478 124.36 228.094 124.36C225.566 124.36 222.206 125.352 220.222 125.992L221.278 129.832C223.614 128.968 226.046 128.232 227.71 128.232C229.726 128.232 230.814 129.352 230.814 131.016V132.872C229.438 132.392 227.166 131.88 225.438 131.88ZM225.502 138.024C224.158 138.024 223.198 137.48 223.198 136.424C223.198 135.272 224.254 134.6 225.661 134.6C227.198 134.6 229.054 134.76 230.814 135.08V135.688C229.31 137.16 227.102 138.024 225.502 138.024ZM250.842 128.424C253.37 128.424 254.682 129.992 254.682 132.264V141H258.906V131.752C258.906 127.4 256.41 124.52 252.058 124.52C249.018 124.52 246.65 126.472 245.53 128.552V125H241.306V141H245.53V133.064C245.53 129.896 248.186 128.424 250.842 128.424ZM272.388 124.456C267.044 124.456 262.5 127.656 262.5 133C262.5 137.8 266.148 141.576 272.1 141.576C275.108 141.576 277.86 140.648 280.036 139.496L278.788 136.168C276.676 137.096 274.98 137.768 272.644 137.768C269.316 137.768 266.756 135.912 266.756 132.84C266.756 129.928 269.06 128.168 272.132 128.168C274.308 128.168 276.164 128.616 278.372 129.512L279.396 125.736C277.476 125.064 275.044 124.456 272.388 124.456ZM292.492 137.768C289.484 137.768 287.148 136.456 286.54 134.12H300.3C300.492 133.384 300.588 132.648 300.588 131.944C300.588 127.624 296.94 124.456 292.076 124.456C286.732 124.456 282.188 127.656 282.188 133C282.188 137.8 286.124 141.576 292.076 141.576C295.02 141.576 298.028 140.584 300.172 139.496L298.924 136.168C296.652 137.352 294.668 137.768 292.492 137.768ZM291.82 128.008C294.316 128.008 295.916 129.128 296.332 131.016H286.636C287.276 129.064 289.068 128.008 291.82 128.008ZM60.64 181H64.928L71.936 165H67.456L62.784 175.976L58.144 165H53.728L49.088 176.008L44.448 165H39.872L46.88 181H51.2L55.936 170.056L60.64 181ZM78.4365 165H74.2765V181H78.4365V165ZM73.8285 160.392C73.8285 161.8 74.9485 162.92 76.3565 162.92C77.7645 162.92 78.8845 161.8 78.8845 160.392C78.8845 159.016 77.7645 157.896 76.3565 157.896C74.9485 157.896 73.8285 159.016 73.8285 160.392ZM81.5463 168.68H84.5863V174.888C84.5863 178.92 86.7303 181.544 90.6983 181.544C92.3943 181.544 94.6663 180.808 96.0103 180.104L95.0823 176.488C94.0583 177.128 92.6503 177.64 91.4023 177.64C89.7383 177.64 88.8103 176.456 88.8103 174.728V168.68H95.4663V165H88.8103V160.2H85.2903L84.7143 165.128L81.5463 165.32V168.68ZM108.749 168.424C111.277 168.424 112.589 169.992 112.589 172.264V181H116.812V171.752C116.812 167.4 114.317 164.52 109.965 164.52C106.925 164.52 104.557 166.472 103.437 168.552V157.288H99.2125V181H103.437V173.064C103.437 169.896 106.093 168.424 108.749 168.424ZM136.125 171.88C132.829 171.88 129.565 173.352 129.565 176.776C129.565 179.656 131.805 181.64 134.813 181.64C137.533 181.64 139.965 180.168 141.501 178.344C141.565 180.136 142.461 181.64 144.605 181.64C145.917 181.64 147.837 181 149.597 180.04L148.733 176.776C147.805 177.256 146.973 177.608 146.493 177.608C146.045 177.608 145.725 177.32 145.725 176.84V171.08C145.725 166.696 143.165 164.36 138.781 164.36C136.253 164.36 132.893 165.352 130.909 165.992L131.965 169.832C134.301 168.968 136.733 168.232 138.397 168.232C140.413 168.232 141.501 169.352 141.501 171.016V172.872C140.125 172.392 137.853 171.88 136.125 171.88ZM136.189 178.024C134.845 178.024 133.885 177.48 133.885 176.424C133.885 175.272 134.941 174.6 136.349 174.6C137.885 174.6 139.741 174.76 141.501 175.08V175.688C139.997 177.16 137.789 178.024 136.189 178.024ZM168.448 160.424C169.824 160.424 171.328 160.872 172.8 161.512L173.824 157.64C172.32 157.128 170.4 156.68 168.576 156.68C164.64 156.68 161.92 159.08 161.92 162.76V165H159.296V168.68H161.952V181H166.112V168.68H173.216V165H165.952V162.952C165.952 161.224 166.912 160.424 168.448 160.424ZM184.765 164.456C179.421 164.456 174.813 167.496 174.813 172.84C174.813 177.64 178.973 181.576 184.765 181.576C190.557 181.576 194.717 177.64 194.717 172.84C194.717 167.496 190.109 164.456 184.765 164.456ZM184.765 168.136C188.093 168.136 190.461 169.864 190.461 172.84C190.461 175.528 187.933 177.928 184.765 177.928C181.597 177.928 179.069 175.528 179.069 172.84C179.069 169.864 181.437 168.136 184.765 168.136ZM208.607 164.456C205.823 164.456 203.615 166.824 202.687 168.552V165H198.463V181H202.687V173.064C202.687 170.12 205.535 168.392 208.191 168.392C208.799 168.392 209.631 168.584 210.399 168.936L211.295 165.096C210.495 164.712 209.503 164.456 208.607 164.456ZM222.711 177.768C219.703 177.768 217.367 176.456 216.759 174.12H230.519C230.711 173.384 230.807 172.648 230.807 171.944C230.807 167.624 227.159 164.456 222.295 164.456C216.951 164.456 212.407 167.656 212.407 173C212.407 177.8 216.343 181.576 222.295 181.576C225.239 181.576 228.247 180.584 230.391 179.496L229.142 176.168C226.871 177.352 224.887 177.768 222.711 177.768ZM222.039 168.008C224.535 168.008 226.135 169.128 226.551 171.016H216.855C217.495 169.064 219.286 168.008 222.039 168.008ZM238.593 165H234.433V181H238.593V165ZM233.985 160.392C233.985 161.8 235.105 162.92 236.513 162.92C237.921 162.92 239.041 161.8 239.041 160.392C239.041 159.016 237.921 157.896 236.513 157.896C235.105 157.896 233.985 159.016 233.985 160.392ZM249.159 178.888C248.103 178.888 247.559 178.504 247.559 177.96C247.559 177.512 247.975 177.192 248.359 177.096C249.095 177.224 249.895 177.288 250.695 177.288C255.527 177.288 259.047 174.536 259.047 170.888C259.047 169.8 258.759 168.84 258.311 168.04C259.079 167.656 259.975 167.432 261.095 167.304L260.327 163.368C258.279 163.72 256.679 164.488 255.463 165.48C254.087 164.808 252.423 164.456 250.695 164.456C246.311 164.456 242.375 166.664 242.375 170.888C242.375 172.616 243.751 174.376 245.223 175.336C244.423 175.848 243.495 176.68 243.495 177.736C243.495 178.76 244.167 179.88 245.031 180.296C243.431 180.712 241.735 182.28 241.735 183.976C241.735 187.336 245.511 189.096 251.335 189.096C256.807 189.096 260.839 187.304 260.839 183.656C260.839 180.328 256.807 178.888 251.335 178.888H249.159ZM250.663 167.944C252.935 167.944 254.663 168.936 254.663 170.76C254.663 172.264 253.095 173.512 250.663 173.512C248.359 173.512 246.631 172.36 246.631 170.76C246.631 168.936 248.359 167.944 250.663 167.944ZM251.271 182.472C254.567 182.472 256.743 182.92 256.743 184.008C256.743 185.192 254.567 185.64 251.271 185.64C247.751 185.64 245.799 185.128 245.799 183.976C245.799 183.336 246.407 182.792 247.111 182.504C247.655 182.472 250.631 182.472 251.271 182.472ZM273.186 168.424C275.714 168.424 277.026 169.992 277.026 172.264V181H281.25V171.752C281.25 167.4 278.754 164.52 274.402 164.52C271.362 164.52 268.994 166.472 267.874 168.552V165H263.65V181H267.874V173.064C267.874 169.896 270.53 168.424 273.186 168.424ZM295.148 177.768C292.14 177.768 289.804 176.456 289.196 174.12H302.956C303.148 173.384 303.244 172.648 303.244 171.944C303.244 167.624 299.596 164.456 294.732 164.456C289.388 164.456 284.844 167.656 284.844 173C284.844 177.8 288.78 181.576 294.732 181.576C297.676 181.576 300.684 180.584 302.828 179.496L301.58 176.168C299.308 177.352 297.324 177.768 295.148 177.768ZM294.476 168.008C296.972 168.008 298.572 169.128 298.988 171.016H289.292C289.932 169.064 291.724 168.008 294.476 168.008ZM316.95 164.456C314.166 164.456 311.958 166.824 311.03 168.552V165H306.806V181H311.03V173.064C311.03 170.12 313.878 168.392 316.534 168.392C317.142 168.392 317.974 168.584 318.742 168.936L319.638 165.096C318.838 164.712 317.846 164.456 316.95 164.456Z" fill="#CDE4FD"></path> <path d="M49.54 247.4H50.8V260H49.54V254.114H42.7V260H41.44V247.4H42.7V252.926H49.54V247.4ZM61.0364 258.866C60.1244 259.766 59.0084 260.216 57.6884 260.216C56.3684 260.216 55.2464 259.766 54.3224 258.866C53.4104 257.954 52.9544 256.832 52.9544 255.5C52.9544 254.168 53.4104 253.052 54.3224 252.152C55.2464 251.24 56.3684 250.784 57.6884 250.784C59.0084 250.784 60.1244 251.24 61.0364 252.152C61.9604 253.052 62.4224 254.168 62.4224 255.5C62.4224 256.832 61.9604 257.954 61.0364 258.866ZM55.1684 258.038C55.8524 258.722 56.6924 259.064 57.6884 259.064C58.6844 259.064 59.5244 258.722 60.2084 258.038C60.8924 257.342 61.2344 256.496 61.2344 255.5C61.2344 254.504 60.8924 253.664 60.2084 252.98C59.5244 252.284 58.6844 251.936 57.6884 251.936C56.6924 251.936 55.8524 252.284 55.1684 252.98C54.4844 253.664 54.1424 254.504 54.1424 255.5C54.1424 256.496 54.4844 257.342 55.1684 258.038ZM74.8948 251H76.1188L73.3468 260H72.0508L69.7288 252.746L67.4068 260H66.1108L63.3388 251H64.5628L66.7768 258.47L69.1348 251H70.3228L72.6808 258.47L74.8948 251ZM90.1504 247.4H91.3384V260H90.1504V258.236C89.3224 259.556 88.1104 260.216 86.5144 260.216C85.2304 260.216 84.1324 259.76 83.2204 258.848C82.3204 257.936 81.8704 256.82 81.8704 255.5C81.8704 254.18 82.3204 253.064 83.2204 252.152C84.1324 251.24 85.2304 250.784 86.5144 250.784C88.1104 250.784 89.3224 251.444 90.1504 252.764V247.4ZM84.0844 258.038C84.7684 258.722 85.6084 259.064 86.6044 259.064C87.6004 259.064 88.4404 258.722 89.1244 258.038C89.8084 257.342 90.1504 256.496 90.1504 255.5C90.1504 254.504 89.8084 253.664 89.1244 252.98C88.4404 252.284 87.6004 251.936 86.6044 251.936C85.6084 251.936 84.7684 252.284 84.0844 252.98C83.4004 253.664 83.0584 254.504 83.0584 255.5C83.0584 256.496 83.4004 257.342 84.0844 258.038ZM95.0598 248.84C94.8918 249.008 94.6878 249.092 94.4478 249.092C94.2078 249.092 94.0038 249.008 93.8358 248.84C93.6678 248.672 93.5838 248.468 93.5838 248.228C93.5838 247.988 93.6678 247.784 93.8358 247.616C94.0038 247.448 94.2078 247.364 94.4478 247.364C94.6878 247.364 94.8918 247.448 95.0598 247.616C95.2278 247.784 95.3118 247.988 95.3118 248.228C95.3118 248.468 95.2278 248.672 95.0598 248.84ZM93.8538 260V251H95.0418V260H93.8538ZM105.303 247.4H106.491V260H105.303V258.236C104.475 259.556 103.263 260.216 101.667 260.216C100.383 260.216 99.2847 259.76 98.3727 258.848C97.4727 257.936 97.0227 256.82 97.0227 255.5C97.0227 254.18 97.4727 253.064 98.3727 252.152C99.2847 251.24 100.383 250.784 101.667 250.784C103.263 250.784 104.475 251.444 105.303 252.764V247.4ZM99.2367 258.038C99.9207 258.722 100.761 259.064 101.757 259.064C102.753 259.064 103.593 258.722 104.277 258.038C104.961 257.342 105.303 256.496 105.303 255.5C105.303 254.504 104.961 253.664 104.277 252.98C103.593 252.284 102.753 251.936 101.757 251.936C100.761 251.936 99.9207 252.284 99.2367 252.98C98.5527 253.664 98.2107 254.504 98.2107 255.5C98.2107 256.496 98.5527 257.342 99.2367 258.038ZM119.986 251H121.246L117.394 260.828C117.046 261.716 116.548 262.412 115.9 262.916C115.264 263.432 114.55 263.66 113.758 263.6V262.484C114.838 262.604 115.66 261.98 116.224 260.612L116.458 260.054L112.426 251H113.686L117.07 258.542L119.986 251ZM129.872 258.866C128.96 259.766 127.844 260.216 126.524 260.216C125.204 260.216 124.082 259.766 123.158 258.866C122.246 257.954 121.79 256.832 121.79 255.5C121.79 254.168 122.246 253.052 123.158 252.152C124.082 251.24 125.204 250.784 126.524 250.784C127.844 250.784 128.96 251.24 129.872 252.152C130.796 253.052 131.258 254.168 131.258 255.5C131.258 256.832 130.796 257.954 129.872 258.866ZM124.004 258.038C124.688 258.722 125.528 259.064 126.524 259.064C127.52 259.064 128.36 258.722 129.044 258.038C129.728 257.342 130.07 256.496 130.07 255.5C130.07 254.504 129.728 253.664 129.044 252.98C128.36 252.284 127.52 251.936 126.524 251.936C125.528 251.936 124.688 252.284 124.004 252.98C123.32 253.664 122.978 254.504 122.978 255.5C122.978 256.496 123.32 257.342 124.004 258.038ZM139.582 251H140.77V260H139.582V258.596C138.91 259.676 137.902 260.216 136.558 260.216C135.466 260.216 134.602 259.886 133.966 259.226C133.342 258.554 133.03 257.654 133.03 256.526V251H134.218V256.526C134.218 257.33 134.428 257.954 134.848 258.398C135.28 258.842 135.886 259.064 136.666 259.064C137.53 259.064 138.232 258.794 138.772 258.254C139.312 257.702 139.582 256.856 139.582 255.716V251ZM157.377 250.784C158.385 250.784 159.195 251.108 159.807 251.756C160.431 252.404 160.743 253.28 160.743 254.384V260H159.555V254.384C159.555 253.604 159.351 253.004 158.943 252.584C158.547 252.152 158.019 251.936 157.359 251.936C156.615 251.936 156.009 252.188 155.541 252.692C155.085 253.184 154.857 253.958 154.857 255.014V260H153.669V254.384C153.669 253.592 153.477 252.986 153.093 252.566C152.721 252.146 152.211 251.936 151.563 251.936C150.843 251.936 150.231 252.188 149.727 252.692C149.223 253.196 148.971 253.97 148.971 255.014V260H147.783V251H148.971V252.314C149.619 251.294 150.537 250.784 151.725 250.784C153.021 250.784 153.933 251.33 154.461 252.422C155.109 251.33 156.081 250.784 157.377 250.784ZM167.199 250.784C168.531 250.784 169.605 251.258 170.421 252.206C171.249 253.142 171.663 254.252 171.663 255.536C171.663 255.668 171.651 255.854 171.627 256.094H163.725C163.845 257.006 164.229 257.732 164.877 258.272C165.537 258.8 166.347 259.064 167.307 259.064C167.991 259.064 168.579 258.926 169.071 258.65C169.575 258.362 169.953 257.99 170.205 257.534L171.249 258.146C170.853 258.782 170.313 259.286 169.629 259.658C168.945 260.03 168.165 260.216 167.289 260.216C165.873 260.216 164.721 259.772 163.833 258.884C162.945 257.996 162.501 256.868 162.501 255.5C162.501 254.156 162.939 253.034 163.815 252.134C164.691 251.234 165.819 250.784 167.199 250.784ZM167.199 251.936C166.263 251.936 165.477 252.218 164.841 252.782C164.217 253.334 163.845 254.054 163.725 254.942H170.439C170.319 253.994 169.953 253.256 169.341 252.728C168.729 252.2 168.015 251.936 167.199 251.936ZM177.711 250.784C179.043 250.784 180.117 251.258 180.933 252.206C181.761 253.142 182.175 254.252 182.175 255.536C182.175 255.668 182.163 255.854 182.139 256.094H174.237C174.357 257.006 174.741 257.732 175.389 258.272C176.049 258.8 176.859 259.064 177.819 259.064C178.503 259.064 179.091 258.926 179.583 258.65C180.087 258.362 180.465 257.99 180.717 257.534L181.761 258.146C181.365 258.782 180.825 259.286 180.141 259.658C179.457 260.03 178.677 260.216 177.801 260.216C176.385 260.216 175.233 259.772 174.345 258.884C173.457 257.996 173.013 256.868 173.013 255.5C173.013 254.156 173.451 253.034 174.327 252.134C175.203 251.234 176.331 250.784 177.711 250.784ZM177.711 251.936C176.775 251.936 175.989 252.218 175.353 252.782C174.729 253.334 174.357 254.054 174.237 254.942H180.951C180.831 253.994 180.465 253.256 179.853 252.728C179.241 252.2 178.527 251.936 177.711 251.936ZM188.571 252.152H185.979V257.606C185.979 258.098 186.075 258.452 186.267 258.668C186.459 258.872 186.747 258.98 187.131 258.992C187.515 258.992 187.995 258.98 188.571 258.956V260C187.311 260.192 186.363 260.102 185.727 259.73C185.103 259.358 184.791 258.65 184.791 257.606V252.152H182.901V251H184.791V248.84L185.979 248.48V251H188.571V252.152ZM193.071 256.58C193.071 255.992 193.191 255.458 193.431 254.978C193.671 254.486 193.959 254.072 194.295 253.736C194.631 253.4 194.967 253.076 195.303 252.764C195.639 252.452 195.927 252.11 196.167 251.738C196.407 251.354 196.527 250.946 196.527 250.514C196.527 249.818 196.287 249.296 195.807 248.948C195.339 248.588 194.733 248.408 193.989 248.408C192.513 248.408 191.601 249.014 191.253 250.226L190.191 249.632C190.467 248.828 190.947 248.222 191.631 247.814C192.327 247.394 193.113 247.184 193.989 247.184C195.045 247.184 195.939 247.478 196.671 248.066C197.415 248.642 197.787 249.458 197.787 250.514C197.787 251.03 197.667 251.51 197.427 251.954C197.187 252.398 196.899 252.788 196.563 253.124C196.227 253.448 195.891 253.772 195.555 254.096C195.219 254.42 194.931 254.798 194.691 255.23C194.451 255.65 194.331 256.1 194.331 256.58H193.071ZM194.403 259.892C194.211 260.084 193.977 260.18 193.701 260.18C193.425 260.18 193.191 260.084 192.999 259.892C192.807 259.7 192.711 259.466 192.711 259.19C192.711 258.914 192.807 258.68 192.999 258.488C193.191 258.296 193.425 258.2 193.701 258.2C193.977 258.2 194.211 258.296 194.403 258.488C194.595 258.68 194.691 258.914 194.691 259.19C194.691 259.466 194.595 259.7 194.403 259.892Z" fill="#CDE4FD"></path> <path d="M44.194 297L40.54 284.4H41.872L44.986 295.29L48.262 284.4H49.738L53.014 295.29L56.128 284.4H57.46L53.806 297H52.294L49 286.056L45.706 297H44.194ZM63.1204 287.784C64.2124 287.784 65.0704 288.12 65.6944 288.792C66.3304 289.452 66.6484 290.346 66.6484 291.474V297H65.4604V291.474C65.4604 290.67 65.2444 290.046 64.8124 289.602C64.3924 289.158 63.7924 288.936 63.0124 288.936C62.1484 288.936 61.4464 289.212 60.9064 289.764C60.3664 290.304 60.0964 291.144 60.0964 292.284V297H58.9084V284.4H60.0964V289.404C60.7684 288.324 61.7764 287.784 63.1204 287.784ZM70.1515 285.84C69.9835 286.008 69.7795 286.092 69.5395 286.092C69.2995 286.092 69.0955 286.008 68.9275 285.84C68.7595 285.672 68.6755 285.468 68.6755 285.228C68.6755 284.988 68.7595 284.784 68.9275 284.616C69.0955 284.448 69.2995 284.364 69.5395 284.364C69.7795 284.364 69.9835 284.448 70.1515 284.616C70.3195 284.784 70.4035 284.988 70.4035 285.228C70.4035 285.468 70.3195 285.672 70.1515 285.84ZM68.9455 297V288H70.1335V297H68.9455ZM76.8485 297.216C75.4925 297.216 74.3645 296.766 73.4645 295.866C72.5645 294.954 72.1145 293.832 72.1145 292.5C72.1145 291.168 72.5645 290.052 73.4645 289.152C74.3645 288.24 75.4925 287.784 76.8485 287.784C77.7365 287.784 78.5345 288 79.2425 288.432C79.9505 288.852 80.4665 289.422 80.7905 290.142L79.8185 290.7C79.5785 290.16 79.1885 289.734 78.6485 289.422C78.1205 289.098 77.5205 288.936 76.8485 288.936C75.8525 288.936 75.0125 289.284 74.3285 289.98C73.6445 290.664 73.3025 291.504 73.3025 292.5C73.3025 293.496 73.6445 294.342 74.3285 295.038C75.0125 295.722 75.8525 296.064 76.8485 296.064C77.5205 296.064 78.1205 295.908 78.6485 295.596C79.1765 295.272 79.5905 294.84 79.8905 294.3L80.8805 294.876C80.5085 295.596 79.9625 296.166 79.2425 296.586C78.5225 297.006 77.7245 297.216 76.8485 297.216ZM86.7982 287.784C87.8902 287.784 88.7482 288.12 89.3722 288.792C90.0082 289.452 90.3262 290.346 90.3262 291.474V297H89.1382V291.474C89.1382 290.67 88.9222 290.046 88.4902 289.602C88.0702 289.158 87.4702 288.936 86.6902 288.936C85.8262 288.936 85.1242 289.212 84.5842 289.764C84.0442 290.304 83.7742 291.144 83.7742 292.284V297H82.5862V284.4H83.7742V289.404C84.4462 288.324 85.4542 287.784 86.7982 287.784ZM101.317 297.216C99.9613 297.216 98.8333 296.766 97.9333 295.866C97.0333 294.954 96.5833 293.832 96.5833 292.5C96.5833 291.168 97.0333 290.052 97.9333 289.152C98.8333 288.24 99.9613 287.784 101.317 287.784C102.205 287.784 103.003 288 103.711 288.432C104.419 288.852 104.935 289.422 105.259 290.142L104.287 290.7C104.047 290.16 103.657 289.734 103.117 289.422C102.589 289.098 101.989 288.936 101.317 288.936C100.321 288.936 99.4813 289.284 98.7973 289.98C98.1133 290.664 97.7713 291.504 97.7713 292.5C97.7713 293.496 98.1133 294.342 98.7973 295.038C99.4813 295.722 100.321 296.064 101.317 296.064C101.989 296.064 102.589 295.908 103.117 295.596C103.645 295.272 104.059 294.84 104.359 294.3L105.349 294.876C104.977 295.596 104.431 296.166 103.711 296.586C102.991 297.006 102.193 297.216 101.317 297.216ZM114.509 295.866C113.597 296.766 112.481 297.216 111.161 297.216C109.841 297.216 108.719 296.766 107.795 295.866C106.883 294.954 106.427 293.832 106.427 292.5C106.427 291.168 106.883 290.052 107.795 289.152C108.719 288.24 109.841 287.784 111.161 287.784C112.481 287.784 113.597 288.24 114.509 289.152C115.433 290.052 115.895 291.168 115.895 292.5C115.895 293.832 115.433 294.954 114.509 295.866ZM108.641 295.038C109.325 295.722 110.165 296.064 111.161 296.064C112.157 296.064 112.997 295.722 113.681 295.038C114.365 294.342 114.707 293.496 114.707 292.5C114.707 291.504 114.365 290.664 113.681 289.98C112.997 289.284 112.157 288.936 111.161 288.936C110.165 288.936 109.325 289.284 108.641 289.98C107.957 290.664 107.615 291.504 107.615 292.5C107.615 293.496 107.957 294.342 108.641 295.038ZM124.219 288H125.407V297H124.219V295.596C123.547 296.676 122.539 297.216 121.195 297.216C120.103 297.216 119.239 296.886 118.603 296.226C117.979 295.554 117.667 294.654 117.667 293.526V288H118.855V293.526C118.855 294.33 119.065 294.954 119.485 295.398C119.917 295.842 120.523 296.064 121.303 296.064C122.167 296.064 122.869 295.794 123.409 295.254C123.949 294.702 124.219 293.856 124.219 292.716V288ZM132.132 287.784C133.224 287.784 134.082 288.12 134.706 288.792C135.342 289.452 135.66 290.346 135.66 291.474V297H134.472V291.474C134.472 290.67 134.256 290.046 133.824 289.602C133.404 289.158 132.804 288.936 132.024 288.936C131.16 288.936 130.458 289.212 129.918 289.764C129.378 290.304 129.108 291.144 129.108 292.284V297H127.92V288H129.108V289.404C129.78 288.324 130.788 287.784 132.132 287.784ZM142.727 289.152H140.135V294.606C140.135 295.098 140.231 295.452 140.423 295.668C140.615 295.872 140.903 295.98 141.287 295.992C141.671 295.992 142.151 295.98 142.727 295.956V297C141.467 297.192 140.519 297.102 139.883 296.73C139.259 296.358 138.947 295.65 138.947 294.606V289.152H137.057V288H138.947V285.84L140.135 285.48V288H142.727V289.152ZM145.895 289.494C146.447 288.402 147.395 287.856 148.739 287.856V289.008C147.923 289.008 147.245 289.248 146.705 289.728C146.165 290.208 145.895 290.964 145.895 291.996V297H144.707V288H145.895V289.494ZM157.023 288H158.283L154.431 297.828C154.083 298.716 153.585 299.412 152.937 299.916C152.301 300.432 151.587 300.66 150.795 300.6V299.484C151.875 299.604 152.697 298.98 153.261 297.612L153.495 297.054L149.463 288H150.723L154.107 295.542L157.023 288ZM171.959 284.4H173.147V297H171.959V295.236C171.131 296.556 169.919 297.216 168.323 297.216C167.039 297.216 165.941 296.76 165.029 295.848C164.129 294.936 163.679 293.82 163.679 292.5C163.679 291.18 164.129 290.064 165.029 289.152C165.941 288.24 167.039 287.784 168.323 287.784C169.919 287.784 171.131 288.444 171.959 289.764V284.4ZM165.893 295.038C166.577 295.722 167.417 296.064 168.413 296.064C169.409 296.064 170.249 295.722 170.933 295.038C171.617 294.342 171.959 293.496 171.959 292.5C171.959 291.504 171.617 290.664 170.933 289.98C170.249 289.284 169.409 288.936 168.413 288.936C167.417 288.936 166.577 289.284 165.893 289.98C165.209 290.664 164.867 291.504 164.867 292.5C164.867 293.496 165.209 294.342 165.893 295.038ZM176.868 285.84C176.7 286.008 176.496 286.092 176.256 286.092C176.016 286.092 175.812 286.008 175.644 285.84C175.476 285.672 175.392 285.468 175.392 285.228C175.392 284.988 175.476 284.784 175.644 284.616C175.812 284.448 176.016 284.364 176.256 284.364C176.496 284.364 176.7 284.448 176.868 284.616C177.036 284.784 177.12 284.988 177.12 285.228C177.12 285.468 177.036 285.672 176.868 285.84ZM175.662 297V288H176.85V297H175.662ZM187.111 284.4H188.299V297H187.111V295.236C186.283 296.556 185.071 297.216 183.475 297.216C182.191 297.216 181.093 296.76 180.181 295.848C179.281 294.936 178.831 293.82 178.831 292.5C178.831 291.18 179.281 290.064 180.181 289.152C181.093 288.24 182.191 287.784 183.475 287.784C185.071 287.784 186.283 288.444 187.111 289.764V284.4ZM181.045 295.038C181.729 295.722 182.569 296.064 183.565 296.064C184.561 296.064 185.401 295.722 186.085 295.038C186.769 294.342 187.111 293.496 187.111 292.5C187.111 291.504 186.769 290.664 186.085 289.98C185.401 289.284 184.561 288.936 183.565 288.936C182.569 288.936 181.729 289.284 181.045 289.98C180.361 290.664 180.019 291.504 180.019 292.5C180.019 293.496 180.361 294.342 181.045 295.038ZM199.527 287.784C200.619 287.784 201.477 288.12 202.101 288.792C202.737 289.452 203.055 290.346 203.055 291.474V297H201.867V291.474C201.867 290.67 201.651 290.046 201.219 289.602C200.799 289.158 200.199 288.936 199.419 288.936C198.555 288.936 197.853 289.212 197.313 289.764C196.773 290.304 196.503 291.144 196.503 292.284V297H195.315V284.4H196.503V289.404C197.175 288.324 198.183 287.784 199.527 287.784ZM209.51 287.784C210.842 287.784 211.916 288.258 212.732 289.206C213.56 290.142 213.974 291.252 213.974 292.536C213.974 292.668 213.962 292.854 213.938 293.094H206.036C206.156 294.006 206.54 294.732 207.188 295.272C207.848 295.8 208.658 296.064 209.618 296.064C210.302 296.064 210.89 295.926 211.382 295.65C211.886 295.362 212.264 294.99 212.516 294.534L213.56 295.146C213.164 295.782 212.624 296.286 211.94 296.658C211.256 297.03 210.476 297.216 209.6 297.216C208.184 297.216 207.032 296.772 206.144 295.884C205.256 294.996 204.812 293.868 204.812 292.5C204.812 291.156 205.25 290.034 206.126 289.134C207.002 288.234 208.13 287.784 209.51 287.784ZM209.51 288.936C208.574 288.936 207.788 289.218 207.152 289.782C206.528 290.334 206.156 291.054 206.036 291.942H212.75C212.63 290.994 212.264 290.256 211.652 289.728C211.04 289.2 210.326 288.936 209.51 288.936ZM216.224 298.8H215.324L222.524 282.6H223.424L216.224 298.8ZM226.344 290.358C226.344 290.766 226.524 291.09 226.884 291.33C227.244 291.57 227.682 291.756 228.198 291.888C228.714 292.02 229.23 292.17 229.746 292.338C230.262 292.494 230.7 292.764 231.06 293.148C231.42 293.52 231.6 294.012 231.6 294.624C231.6 295.392 231.294 296.016 230.682 296.496C230.082 296.976 229.302 297.216 228.342 297.216C227.478 297.216 226.74 297.024 226.128 296.64C225.528 296.256 225.108 295.758 224.868 295.146L225.876 294.552C226.044 295.02 226.344 295.392 226.776 295.668C227.22 295.932 227.742 296.064 228.342 296.064C228.93 296.064 229.422 295.95 229.818 295.722C230.214 295.482 230.412 295.116 230.412 294.624C230.412 294.216 230.232 293.892 229.872 293.652C229.512 293.412 229.074 293.226 228.558 293.094C228.042 292.962 227.526 292.818 227.01 292.662C226.494 292.494 226.056 292.224 225.696 291.852C225.336 291.468 225.156 290.97 225.156 290.358C225.156 289.626 225.444 289.014 226.02 288.522C226.608 288.03 227.346 287.784 228.234 287.784C228.966 287.784 229.608 287.952 230.16 288.288C230.712 288.612 231.12 289.056 231.384 289.62L230.394 290.196C230.046 289.356 229.326 288.936 228.234 288.936C227.718 288.936 227.274 289.062 226.902 289.314C226.53 289.554 226.344 289.902 226.344 290.358ZM237.706 287.784C238.798 287.784 239.656 288.12 240.28 288.792C240.916 289.452 241.234 290.346 241.234 291.474V297H240.046V291.474C240.046 290.67 239.83 290.046 239.398 289.602C238.978 289.158 238.378 288.936 237.598 288.936C236.734 288.936 236.032 289.212 235.492 289.764C234.952 290.304 234.682 291.144 234.682 292.284V297H233.494V284.4H234.682V289.404C235.354 288.324 236.362 287.784 237.706 287.784ZM247.689 287.784C249.021 287.784 250.095 288.258 250.911 289.206C251.739 290.142 252.153 291.252 252.153 292.536C252.153 292.668 252.141 292.854 252.117 293.094H244.215C244.335 294.006 244.719 294.732 245.367 295.272C246.027 295.8 246.837 296.064 247.797 296.064C248.481 296.064 249.069 295.926 249.561 295.65C250.065 295.362 250.443 294.99 250.695 294.534L251.739 295.146C251.343 295.782 250.803 296.286 250.119 296.658C249.435 297.03 248.655 297.216 247.779 297.216C246.363 297.216 245.211 296.772 244.323 295.884C243.435 294.996 242.991 293.868 242.991 292.5C242.991 291.156 243.429 290.034 244.305 289.134C245.181 288.234 246.309 287.784 247.689 287.784ZM247.689 288.936C246.753 288.936 245.967 289.218 245.331 289.782C244.707 290.334 244.335 291.054 244.215 291.942H250.929C250.809 290.994 250.443 290.256 249.831 289.728C249.219 289.2 248.505 288.936 247.689 288.936ZM262.737 297.216C261.381 297.216 260.253 296.766 259.353 295.866C258.453 294.954 258.003 293.832 258.003 292.5C258.003 291.168 258.453 290.052 259.353 289.152C260.253 288.24 261.381 287.784 262.737 287.784C263.625 287.784 264.423 288 265.131 288.432C265.839 288.852 266.355 289.422 266.679 290.142L265.707 290.7C265.467 290.16 265.077 289.734 264.537 289.422C264.009 289.098 263.409 288.936 262.737 288.936C261.741 288.936 260.901 289.284 260.217 289.98C259.533 290.664 259.191 291.504 259.191 292.5C259.191 293.496 259.533 294.342 260.217 295.038C260.901 295.722 261.741 296.064 262.737 296.064C263.409 296.064 264.009 295.908 264.537 295.596C265.065 295.272 265.479 294.84 265.779 294.3L266.769 294.876C266.397 295.596 265.851 296.166 265.131 296.586C264.411 297.006 263.613 297.216 262.737 297.216ZM275.929 295.866C275.017 296.766 273.901 297.216 272.581 297.216C271.261 297.216 270.139 296.766 269.215 295.866C268.303 294.954 267.847 293.832 267.847 292.5C267.847 291.168 268.303 290.052 269.215 289.152C270.139 288.24 271.261 287.784 272.581 287.784C273.901 287.784 275.017 288.24 275.929 289.152C276.853 290.052 277.315 291.168 277.315 292.5C277.315 293.832 276.853 294.954 275.929 295.866ZM270.061 295.038C270.745 295.722 271.585 296.064 272.581 296.064C273.577 296.064 274.417 295.722 275.101 295.038C275.785 294.342 276.127 293.496 276.127 292.5C276.127 291.504 275.785 290.664 275.101 289.98C274.417 289.284 273.577 288.936 272.581 288.936C271.585 288.936 270.745 289.284 270.061 289.98C269.377 290.664 269.035 291.504 269.035 292.5C269.035 293.496 269.377 294.342 270.061 295.038ZM288.897 287.784C289.905 287.784 290.715 288.108 291.327 288.756C291.951 289.404 292.263 290.28 292.263 291.384V297H291.075V291.384C291.075 290.604 290.871 290.004 290.463 289.584C290.067 289.152 289.539 288.936 288.879 288.936C288.135 288.936 287.529 289.188 287.061 289.692C286.605 290.184 286.377 290.958 286.377 292.014V297H285.189V291.384C285.189 290.592 284.997 289.986 284.613 289.566C284.241 289.146 283.731 288.936 283.083 288.936C282.363 288.936 281.751 289.188 281.247 289.692C280.743 290.196 280.491 290.97 280.491 292.014V297H279.303V288H280.491V289.314C281.139 288.294 282.057 287.784 283.245 287.784C284.541 287.784 285.453 288.33 285.981 289.422C286.629 288.33 287.601 287.784 288.897 287.784ZM298.719 287.784C300.051 287.784 301.125 288.258 301.941 289.206C302.769 290.142 303.183 291.252 303.183 292.536C303.183 292.668 303.171 292.854 303.147 293.094H295.245C295.365 294.006 295.749 294.732 296.397 295.272C297.057 295.8 297.867 296.064 298.827 296.064C299.511 296.064 300.099 295.926 300.591 295.65C301.095 295.362 301.473 294.99 301.725 294.534L302.769 295.146C302.373 295.782 301.833 296.286 301.149 296.658C300.465 297.03 299.685 297.216 298.809 297.216C297.393 297.216 296.241 296.772 295.353 295.884C294.465 294.996 294.021 293.868 294.021 292.5C294.021 291.156 294.459 290.034 295.335 289.134C296.211 288.234 297.339 287.784 298.719 287.784ZM298.719 288.936C297.783 288.936 296.997 289.218 296.361 289.782C295.737 290.334 295.365 291.054 295.245 291.942H301.959C301.839 290.994 301.473 290.256 300.861 289.728C300.249 289.2 299.535 288.936 298.719 288.936ZM314.073 285.336C313.197 285.264 312.543 285.414 312.111 285.786C311.691 286.158 311.481 286.776 311.481 287.64V288H314.073V289.152H311.481V297H310.293V289.152H308.763V288H310.293V287.64C310.293 286.464 310.617 285.576 311.265 284.976C311.925 284.364 312.861 284.1 314.073 284.184V285.336ZM316.526 289.494C317.078 288.402 318.026 287.856 319.37 287.856V289.008C318.554 289.008 317.876 289.248 317.336 289.728C316.796 290.208 316.526 290.964 316.526 291.996V297H315.338V288H316.526V289.494ZM327.995 295.866C327.083 296.766 325.967 297.216 324.647 297.216C323.327 297.216 322.205 296.766 321.281 295.866C320.369 294.954 319.913 293.832 319.913 292.5C319.913 291.168 320.369 290.052 321.281 289.152C322.205 288.24 323.327 287.784 324.647 287.784C325.967 287.784 327.083 288.24 327.995 289.152C328.919 290.052 329.381 291.168 329.381 292.5C329.381 293.832 328.919 294.954 327.995 295.866ZM322.127 295.038C322.811 295.722 323.651 296.064 324.647 296.064C325.643 296.064 326.483 295.722 327.167 295.038C327.851 294.342 328.193 293.496 328.193 292.5C328.193 291.504 327.851 290.664 327.167 289.98C326.483 289.284 325.643 288.936 324.647 288.936C323.651 288.936 322.811 289.284 322.127 289.98C321.443 290.664 321.101 291.504 321.101 292.5C321.101 293.496 321.443 294.342 322.127 295.038ZM340.963 287.784C341.971 287.784 342.781 288.108 343.393 288.756C344.017 289.404 344.329 290.28 344.329 291.384V297H343.141V291.384C343.141 290.604 342.937 290.004 342.529 289.584C342.133 289.152 341.605 288.936 340.945 288.936C340.201 288.936 339.595 289.188 339.127 289.692C338.671 290.184 338.443 290.958 338.443 292.014V297H337.255V291.384C337.255 290.592 337.063 289.986 336.679 289.566C336.307 289.146 335.797 288.936 335.149 288.936C334.429 288.936 333.817 289.188 333.313 289.692C332.809 290.196 332.557 290.97 332.557 292.014V297H331.369V288H332.557V289.314C333.205 288.294 334.123 287.784 335.311 287.784C336.607 287.784 337.519 288.33 338.047 289.422C338.695 288.33 339.667 287.784 340.963 287.784ZM348.426 293.58C348.426 292.992 348.546 292.458 348.786 291.978C349.026 291.486 349.314 291.072 349.65 290.736C349.986 290.4 350.322 290.076 350.658 289.764C350.994 289.452 351.282 289.11 351.522 288.738C351.762 288.354 351.882 287.946 351.882 287.514C351.882 286.818 351.642 286.296 351.162 285.948C350.694 285.588 350.088 285.408 349.344 285.408C347.868 285.408 346.956 286.014 346.608 287.226L345.546 286.632C345.822 285.828 346.302 285.222 346.986 284.814C347.682 284.394 348.468 284.184 349.344 284.184C350.4 284.184 351.294 284.478 352.026 285.066C352.77 285.642 353.142 286.458 353.142 287.514C353.142 288.03 353.022 288.51 352.782 288.954C352.542 289.398 352.254 289.788 351.918 290.124C351.582 290.448 351.246 290.772 350.91 291.096C350.574 291.42 350.286 291.798 350.046 292.23C349.806 292.65 349.686 293.1 349.686 293.58H348.426ZM349.758 296.892C349.566 297.084 349.332 297.18 349.056 297.18C348.78 297.18 348.546 297.084 348.354 296.892C348.162 296.7 348.066 296.466 348.066 296.19C348.066 295.914 348.162 295.68 348.354 295.488C348.546 295.296 348.78 295.2 349.056 295.2C349.332 295.2 349.566 295.296 349.758 295.488C349.95 295.68 350.046 295.914 350.046 296.19C350.046 296.466 349.95 296.7 349.758 296.892Z" fill="#CDE4FD"></path> </svg> 