<?xml version="1.0" encoding="UTF-8"?> <svg xmlns="http://www.w3.org/2000/svg" width="400" height="600" viewBox="0 0 400 600" fill="none"><rect width="400" height="600" rx="20" fill="#36BB71"></rect><path d="M47.296 84.136L60.8 101H65.952V78.6H61.536V95.464L48.032 78.6H42.88V101H47.296V84.136ZM80.4918 97.768C77.4838 97.768 75.1478 96.456 74.5398 94.12H88.2998C88.4918 93.384 88.5878 92.648 88.5878 91.944C88.5878 87.624 84.9398 84.456 80.0758 84.456C74.7318 84.456 70.1878 87.656 70.1878 93C70.1878 97.8 74.1238 101.576 80.0758 101.576C83.0198 101.576 86.0278 100.584 88.1718 99.496L86.9237 96.168C84.6518 97.352 82.6678 97.768 80.4918 97.768ZM79.8198 88.008C82.3158 88.008 83.9158 89.128 84.3318 91.016H74.6358C75.2758 89.064 77.0677 88.008 79.8198 88.008ZM94.39 85H89.75L97.302 101H101.942L109.526 85H104.822L99.638 96.232L94.39 85ZM121.179 97.768C118.171 97.768 115.835 96.456 115.227 94.12H128.987C129.179 93.384 129.275 92.648 129.275 91.944C129.275 87.624 125.627 84.456 120.763 84.456C115.419 84.456 110.875 87.656 110.875 93C110.875 97.8 114.811 101.576 120.763 101.576C123.707 101.576 126.715 100.584 128.859 99.496L127.611 96.168C125.339 97.352 123.355 97.768 121.179 97.768ZM120.507 88.008C123.003 88.008 124.603 89.128 125.019 91.016H115.323C115.963 89.064 117.755 88.008 120.507 88.008ZM142.982 84.456C140.198 84.456 137.99 86.824 137.062 88.552V85H132.838V101H137.062V93.064C137.062 90.12 139.91 88.392 142.566 88.392C143.174 88.392 144.006 88.584 144.774 88.936L145.67 85.096C144.87 84.712 143.878 84.456 142.982 84.456ZM166.436 88.424C168.964 88.424 170.276 89.992 170.276 92.264V101H174.5V91.752C174.5 87.4 172.004 84.52 167.652 84.52C164.612 84.52 162.244 86.472 161.124 88.552V77.288H156.9V101H161.124V93.064C161.124 89.896 163.78 88.424 166.436 88.424ZM184.75 91.88C181.454 91.88 178.19 93.352 178.19 96.776C178.19 99.656 180.43 101.64 183.438 101.64C186.158 101.64 188.59 100.168 190.126 98.344C190.19 100.136 191.086 101.64 193.23 101.64C194.542 101.64 196.462 101 198.222 100.04L197.358 96.776C196.43 97.256 195.598 97.608 195.118 97.608C194.67 97.608 194.35 97.32 194.35 96.84V91.08C194.35 86.696 191.79 84.36 187.406 84.36C184.878 84.36 181.518 85.352 179.534 85.992L180.59 89.832C182.926 88.968 185.358 88.232 187.022 88.232C189.038 88.232 190.126 89.352 190.126 91.016V92.872C188.75 92.392 186.478 91.88 184.75 91.88ZM184.814 98.024C183.47 98.024 182.51 97.48 182.51 96.424C182.51 95.272 183.566 94.6 184.974 94.6C186.51 94.6 188.366 94.76 190.126 95.08V95.688C188.622 97.16 186.414 98.024 184.814 98.024ZM202.859 85H198.219L205.771 101H210.411L217.995 85H213.291L208.107 96.232L202.859 85ZM229.648 97.768C226.64 97.768 224.304 96.456 223.696 94.12H237.456C237.648 93.384 237.744 92.648 237.744 91.944C237.744 87.624 234.096 84.456 229.232 84.456C223.888 84.456 219.344 87.656 219.344 93C219.344 97.8 223.28 101.576 229.232 101.576C232.176 101.576 235.184 100.584 237.328 99.496L236.08 96.168C233.808 97.352 231.824 97.768 229.648 97.768ZM228.976 88.008C231.472 88.008 233.072 89.128 233.488 91.016H223.792C224.432 89.064 226.224 88.008 228.976 88.008ZM255.265 78.6H250.849V101H255.265V78.6ZM278.867 97.768C275.859 97.768 273.523 96.456 272.915 94.12H286.675C286.867 93.384 286.963 92.648 286.963 91.944C286.963 87.624 283.315 84.456 278.451 84.456C273.107 84.456 268.563 87.656 268.563 93C268.563 97.8 272.499 101.576 278.451 101.576C281.395 101.576 284.403 100.584 286.547 99.496L285.299 96.168C283.027 97.352 281.043 97.768 278.867 97.768ZM278.195 88.008C280.691 88.008 282.291 89.128 282.707 91.016H273.011C273.651 89.064 275.443 88.008 278.195 88.008ZM292.765 85H288.125L295.677 101H300.317L307.901 85H303.197L298.013 96.232L292.765 85ZM319.554 97.768C316.546 97.768 314.21 96.456 313.602 94.12H327.362C327.554 93.384 327.65 92.648 327.65 91.944C327.65 87.624 324.002 84.456 319.138 84.456C313.794 84.456 309.25 87.656 309.25 93C309.25 97.8 313.186 101.576 319.138 101.576C322.082 101.576 325.09 100.584 327.234 99.496L325.986 96.168C323.714 97.352 321.73 97.768 319.554 97.768ZM318.882 88.008C321.378 88.008 322.978 89.128 323.394 91.016H313.698C314.338 89.064 316.13 88.008 318.882 88.008ZM341.357 84.456C338.573 84.456 336.365 86.824 335.437 88.552V85H331.213V101H335.437V93.064C335.437 90.12 338.285 88.392 340.941 88.392C341.549 88.392 342.381 88.584 343.149 88.936L344.045 85.096C343.245 84.712 342.253 84.456 341.357 84.456ZM53.376 124.456C50.208 124.456 47.68 126.344 46.624 128.552V117H42.4V139.4C44.48 140.328 48.832 141.576 52.032 141.576C57.28 141.576 61.312 137.64 61.312 132.84C61.312 127.656 57.632 124.456 53.376 124.456ZM52.128 128.392C54.912 128.392 57.056 129.96 57.056 132.84C57.056 135.528 54.72 137.864 52.096 137.864C50.144 137.864 48.48 137.544 46.624 136.936V133.064C46.624 130.12 49.44 128.392 52.128 128.392ZM74.3043 137.768C71.2963 137.768 68.9603 136.456 68.3523 134.12H82.1123C82.3043 133.384 82.4003 132.648 82.4003 131.944C82.4003 127.624 78.7523 124.456 73.8883 124.456C68.5443 124.456 64.0003 127.656 64.0003 133C64.0003 137.8 67.9363 141.576 73.8883 141.576C76.8323 141.576 79.8403 140.584 81.9843 139.496L80.7362 136.168C78.4643 137.352 76.4803 137.768 74.3043 137.768ZM73.6323 128.008C76.1283 128.008 77.7283 129.128 78.1443 131.016H68.4483C69.0883 129.064 70.8802 128.008 73.6323 128.008ZM95.2105 137.768C92.2025 137.768 89.8665 136.456 89.2585 134.12H103.019C103.211 133.384 103.307 132.648 103.307 131.944C103.307 127.624 99.6585 124.456 94.7945 124.456C89.4505 124.456 84.9065 127.656 84.9065 133C84.9065 137.8 88.8425 141.576 94.7945 141.576C97.7385 141.576 100.747 140.584 102.891 139.496L101.642 136.168C99.3705 137.352 97.3865 137.768 95.2105 137.768ZM94.5385 128.008C97.0345 128.008 98.6345 129.128 99.0505 131.016H89.3545C89.9945 129.064 91.7865 128.008 94.5385 128.008ZM116.405 128.424C118.933 128.424 120.245 129.992 120.245 132.264V141H124.469V131.752C124.469 127.4 121.973 124.52 117.621 124.52C114.581 124.52 112.213 126.472 111.093 128.552V125H106.869V141H111.093V133.064C111.093 129.896 113.749 128.424 116.405 128.424ZM145.573 120.424C146.949 120.424 148.453 120.872 149.925 121.512L150.949 117.64C149.445 117.128 147.525 116.68 145.701 116.68C141.765 116.68 139.045 119.08 139.045 122.76V125H136.421V128.68H139.077V141H143.237V128.68H150.341V125H143.077V122.952C143.077 121.224 144.037 120.424 145.573 120.424ZM157.218 125H153.058V141H157.218V125ZM152.61 120.392C152.61 121.8 153.73 122.92 155.138 122.92C156.546 122.92 157.666 121.8 157.666 120.392C157.666 119.016 156.546 117.896 155.138 117.896C153.73 117.896 152.61 119.016 152.61 120.392ZM172.232 124.456C169.448 124.456 167.24 126.824 166.312 128.552V125H162.088V141H166.312V133.064C166.312 130.12 169.16 128.392 171.816 128.392C172.424 128.392 173.256 128.584 174.024 128.936L174.92 125.096C174.12 124.712 173.128 124.456 172.232 124.456ZM186.336 137.768C183.328 137.768 180.992 136.456 180.384 134.12H194.144C194.336 133.384 194.432 132.648 194.432 131.944C194.432 127.624 190.784 124.456 185.92 124.456C180.576 124.456 176.032 127.656 176.032 133C176.032 137.8 179.968 141.576 185.92 141.576C188.864 141.576 191.872 140.584 194.016 139.496L192.767 136.168C190.496 137.352 188.512 137.768 186.336 137.768ZM185.664 128.008C188.16 128.008 189.76 129.128 190.176 131.016H180.48C181.12 129.064 182.911 128.008 185.664 128.008ZM205.002 141.544C208.266 141.544 210.826 139.656 211.882 137.448V141H216.106V117H211.882V125.576C210.282 125.064 208.074 124.424 206.346 124.424C200.97 124.424 196.938 128.36 196.938 133.16C196.938 138.344 200.618 141.544 205.002 141.544ZM206.25 137.608C203.402 137.608 201.194 136.008 201.194 133.128C201.194 130.312 203.402 128.136 206.282 128.136C208.234 128.136 210.026 128.552 211.882 129.096V132.552C211.882 135.624 209.066 137.608 206.25 137.608ZM237.355 120.424C238.731 120.424 240.235 120.872 241.707 121.512L242.731 117.64C241.227 117.128 239.307 116.68 237.483 116.68C233.547 116.68 230.827 119.08 230.827 122.76V125H228.203V128.68H230.859V141H235.019V128.68H242.123V125H234.859V122.952C234.859 121.224 235.819 120.424 237.355 120.424ZM254.919 124.456C252.135 124.456 249.927 126.824 248.999 128.552V125H244.775V141H248.999V133.064C248.999 130.12 251.847 128.392 254.503 128.392C255.111 128.392 255.943 128.584 256.711 128.936L257.607 125.096C256.807 124.712 255.815 124.456 254.919 124.456ZM268.671 124.456C263.327 124.456 258.719 127.496 258.719 132.84C258.719 137.64 262.879 141.576 268.671 141.576C274.463 141.576 278.623 137.64 278.623 132.84C278.623 127.496 274.015 124.456 268.671 124.456ZM268.671 128.136C271.999 128.136 274.367 129.864 274.367 132.84C274.367 135.528 271.839 137.928 268.671 137.928C265.503 137.928 262.975 135.528 262.975 132.84C262.975 129.864 265.343 128.136 268.671 128.136ZM292.609 124.52C289.825 124.52 287.649 126.504 286.593 128.392V125H282.369V141H286.593V133.032C286.593 129.96 288.961 128.424 291.169 128.424C293.505 128.424 294.753 129.992 294.753 132.104V141H298.977V133.032C298.977 129.992 301.345 128.424 303.553 128.424C305.889 128.424 307.137 129.992 307.137 132.104V141H311.361V131.592C311.361 127.368 309.153 124.52 304.993 124.52C302.305 124.52 299.745 126.504 298.465 128.424C297.569 126.024 295.617 124.52 292.609 124.52ZM60.64 181H64.928L71.936 165H67.456L62.784 175.976L58.144 165H53.728L49.088 176.008L44.448 165H39.872L46.88 181H51.2L55.936 170.056L60.64 181ZM83.1085 164.456C77.7645 164.456 73.1565 167.496 73.1565 172.84C73.1565 177.64 77.3165 181.576 83.1085 181.576C88.9005 181.576 93.0605 177.64 93.0605 172.84C93.0605 167.496 88.4525 164.456 83.1085 164.456ZM83.1085 168.136C86.4365 168.136 88.8045 169.864 88.8045 172.84C88.8045 175.528 86.2765 177.928 83.1085 177.928C79.9405 177.928 77.4125 175.528 77.4125 172.84C77.4125 169.864 79.7805 168.136 83.1085 168.136ZM106.95 164.456C104.166 164.456 101.958 166.824 101.03 168.552V165H96.8063V181H101.03V173.064C101.03 170.12 103.878 168.392 106.534 168.392C107.142 168.392 107.974 168.584 108.742 168.936L109.638 165.096C108.838 164.712 107.846 164.456 106.95 164.456ZM115.966 157H111.806V181H115.966V157ZM121.822 179.848C122.686 180.872 123.71 181.416 124.798 181.416C126.078 181.416 127.454 180.808 128.926 180.168L127.934 176.744C127.166 177.064 126.462 177.416 125.822 177.416C125.47 177.416 125.15 177.32 124.862 177.032L121.118 173.16L128.83 165H123.422L116.19 173.288L121.822 179.848Z" fill="#CDFFE3"></path></svg> 