<?xml version="1.0" encoding="UTF-8"?> <svg xmlns="http://www.w3.org/2000/svg" width="400" height="600" viewBox="0 0 400 600" fill="none"><rect width="400" height="600" rx="20" fill="#106BD0"></rect><path d="M48.784 494.466C49.888 495.102 50.44 496.062 50.44 497.346C50.44 498.414 50.062 499.29 49.306 499.974C48.55 500.658 47.62 501 46.516 501H41.17V488.4H46.138C47.218 488.4 48.124 488.736 48.856 489.408C49.6 490.068 49.972 490.914 49.972 491.946C49.972 492.99 49.576 493.83 48.784 494.466ZM46.138 490.722H43.654V493.494H46.138C46.522 493.494 46.84 493.362 47.092 493.098C47.356 492.834 47.488 492.504 47.488 492.108C47.488 491.712 47.362 491.382 47.11 491.118C46.858 490.854 46.534 490.722 46.138 490.722ZM46.516 498.678C46.936 498.678 47.284 498.54 47.56 498.264C47.836 497.976 47.974 497.616 47.974 497.184C47.974 496.764 47.836 496.416 47.56 496.14C47.284 495.852 46.936 495.708 46.516 495.708H43.654V498.678H46.516ZM54.0631 497.454C54.3751 498.582 55.2211 499.146 56.6011 499.146C57.4891 499.146 58.1611 498.846 58.6171 498.246L60.4891 499.326C59.6011 500.61 58.2931 501.252 56.5651 501.252C55.0771 501.252 53.8831 500.802 52.9831 499.902C52.0831 499.002 51.6331 497.868 51.6331 496.5C51.6331 495.144 52.0771 494.016 52.9651 493.116C53.8531 492.204 54.9931 491.748 56.3851 491.748C57.7051 491.748 58.7911 492.204 59.6431 493.116C60.5071 494.028 60.9391 495.156 60.9391 496.5C60.9391 496.8 60.9091 497.118 60.8491 497.454H54.0631ZM54.0271 495.654H58.6171C58.4851 495.042 58.2091 494.586 57.7891 494.286C57.3811 493.986 56.9131 493.836 56.3851 493.836C55.7611 493.836 55.2451 493.998 54.8371 494.322C54.4291 494.634 54.1591 495.078 54.0271 495.654ZM64.3505 494.556C64.3505 494.796 64.5065 494.994 64.8185 495.15C65.1425 495.294 65.5325 495.426 65.9885 495.546C66.4445 495.654 66.9005 495.798 67.3565 495.978C67.8125 496.146 68.1965 496.434 68.5085 496.842C68.8325 497.25 68.9945 497.76 68.9945 498.372C68.9945 499.296 68.6465 500.01 67.9505 500.514C67.2665 501.006 66.4085 501.252 65.3765 501.252C63.5285 501.252 62.2685 500.538 61.5965 499.11L63.6125 497.976C63.8765 498.756 64.4645 499.146 65.3765 499.146C66.2045 499.146 66.6185 498.888 66.6185 498.372C66.6185 498.132 66.4565 497.94 66.1325 497.796C65.8205 497.64 65.4365 497.502 64.9805 497.382C64.5245 497.262 64.0685 497.112 63.6125 496.932C63.1565 496.752 62.7665 496.47 62.4425 496.086C62.1305 495.69 61.9745 495.198 61.9745 494.61C61.9745 493.722 62.2985 493.026 62.9465 492.522C63.6065 492.006 64.4225 491.748 65.3945 491.748C66.1265 491.748 66.7925 491.916 67.3925 492.252C67.9925 492.576 68.4665 493.044 68.8145 493.656L66.8345 494.736C66.5465 494.124 66.0665 493.818 65.3945 493.818C65.0945 493.818 64.8425 493.884 64.6385 494.016C64.4465 494.148 64.3505 494.328 64.3505 494.556ZM75.3721 494.232H73.3381V497.976C73.3381 498.288 73.4161 498.516 73.5721 498.66C73.7281 498.804 73.9561 498.888 74.2561 498.912C74.5561 498.924 74.9281 498.918 75.3721 498.894V501C73.7761 501.18 72.6481 501.03 71.9881 500.55C71.3401 500.07 71.0161 499.212 71.0161 497.976V494.232H69.4501V492H71.0161V490.182L73.3381 489.48V492H75.3721V494.232ZM91.6039 491.748C92.6359 491.748 93.4579 492.084 94.0699 492.756C94.6939 493.428 95.0059 494.328 95.0059 495.456V501H92.6839V495.618C92.6839 495.078 92.5519 494.658 92.2879 494.358C92.0239 494.058 91.6519 493.908 91.1719 493.908C90.6439 493.908 90.2299 494.082 89.9299 494.43C89.6419 494.778 89.4979 495.282 89.4979 495.942V501H87.1759V495.618C87.1759 495.078 87.0439 494.658 86.7799 494.358C86.5159 494.058 86.1439 493.908 85.6639 493.908C85.1479 493.908 84.7339 494.082 84.4219 494.43C84.1219 494.778 83.9719 495.282 83.9719 495.942V501H81.6499V492H83.9719V492.954C84.5119 492.15 85.3459 491.748 86.4739 491.748C87.5779 491.748 88.3939 492.18 88.9219 493.044C89.5219 492.18 90.4159 491.748 91.6039 491.748ZM103.818 492H106.14V501H103.818V499.938C103.122 500.814 102.144 501.252 100.884 501.252C99.684 501.252 98.652 500.796 97.788 499.884C96.936 498.96 96.51 497.832 96.51 496.5C96.51 495.168 96.936 494.046 97.788 493.134C98.652 492.21 99.684 491.748 100.884 491.748C102.144 491.748 103.122 492.186 103.818 493.062V492ZM99.534 498.336C100.002 498.804 100.596 499.038 101.316 499.038C102.036 499.038 102.63 498.804 103.098 498.336C103.578 497.856 103.818 497.244 103.818 496.5C103.818 495.756 103.578 495.15 103.098 494.682C102.63 494.202 102.036 493.962 101.316 493.962C100.596 493.962 100.002 494.202 99.534 494.682C99.066 495.15 98.832 495.756 98.832 496.5C98.832 497.244 99.066 497.856 99.534 498.336ZM113.25 491.748C114.234 491.748 115.044 492.078 115.68 492.738C116.328 493.398 116.652 494.31 116.652 495.474V501H114.33V495.762C114.33 495.162 114.168 494.706 113.844 494.394C113.52 494.07 113.088 493.908 112.548 493.908C111.948 493.908 111.468 494.094 111.108 494.466C110.748 494.838 110.568 495.396 110.568 496.14V501H108.246V492H110.568V493.008C111.132 492.168 112.026 491.748 113.25 491.748ZM123.242 496.68V494.448H132.512V496.68H123.242ZM150.306 492H151.494V501H139.434V492H140.622V499.848H144.87V492H146.058V499.848H150.306V492ZM161.746 492H162.934V501H161.746V499.236C160.918 500.556 159.706 501.216 158.11 501.216C156.826 501.216 155.728 500.76 154.816 499.848C153.916 498.936 153.466 497.82 153.466 496.5C153.466 495.18 153.916 494.064 154.816 493.152C155.728 492.24 156.826 491.784 158.11 491.784C159.706 491.784 160.918 492.444 161.746 493.764V492ZM155.68 499.038C156.364 499.722 157.204 500.064 158.2 500.064C159.196 500.064 160.036 499.722 160.72 499.038C161.404 498.342 161.746 497.496 161.746 496.5C161.746 495.504 161.404 494.664 160.72 493.98C160.036 493.284 159.196 492.936 158.2 492.936C157.204 492.936 156.364 493.284 155.68 493.98C154.996 494.664 154.654 495.504 154.654 496.5C154.654 497.496 154.996 498.342 155.68 499.038ZM174.233 493.296C175.097 494.172 175.529 495.24 175.529 496.5C175.529 497.76 175.097 498.828 174.233 499.704C173.369 500.58 172.229 501.078 170.813 501.198V504.6H169.625V501.198C168.209 501.078 167.069 500.58 166.205 499.704C165.341 498.828 164.909 497.76 164.909 496.5C164.909 495.24 165.341 494.172 166.205 493.296C167.069 492.42 168.209 491.922 169.625 491.802V488.4H170.813V491.802C172.229 491.922 173.369 492.42 174.233 493.296ZM167.051 494.124C166.415 494.772 166.097 495.564 166.097 496.5C166.097 497.436 166.415 498.234 167.051 498.894C167.687 499.542 168.545 499.92 169.625 500.028V492.972C168.545 493.08 167.687 493.464 167.051 494.124ZM170.813 500.028C171.893 499.92 172.751 499.542 173.387 498.894C174.023 498.234 174.341 497.436 174.341 496.5C174.341 495.564 174.023 494.772 173.387 494.124C172.751 493.464 171.893 493.08 170.813 492.972V500.028ZM181.666 491.784C182.998 491.784 184.072 492.258 184.888 493.206C185.716 494.142 186.13 495.252 186.13 496.536C186.13 496.668 186.118 496.854 186.094 497.094H178.192C178.312 498.006 178.696 498.732 179.344 499.272C180.004 499.8 180.814 500.064 181.774 500.064C182.458 500.064 183.046 499.926 183.538 499.65C184.042 499.362 184.42 498.99 184.672 498.534L185.716 499.146C185.32 499.782 184.78 500.286 184.096 500.658C183.412 501.03 182.632 501.216 181.756 501.216C180.34 501.216 179.188 500.772 178.3 499.884C177.412 498.996 176.968 497.868 176.968 496.5C176.968 495.156 177.406 494.034 178.282 493.134C179.158 492.234 180.286 491.784 181.666 491.784ZM181.666 492.936C180.73 492.936 179.944 493.218 179.308 493.782C178.684 494.334 178.312 495.054 178.192 495.942H184.906C184.786 494.994 184.42 494.256 183.808 493.728C183.196 493.2 182.482 492.936 181.666 492.936ZM192.844 491.784C194.128 491.784 195.22 492.24 196.12 493.152C197.032 494.064 197.488 495.18 197.488 496.5C197.488 497.82 197.032 498.936 196.12 499.848C195.22 500.76 194.128 501.216 192.844 501.216C191.248 501.216 190.036 500.556 189.208 499.236V504.6H188.02V492H189.208V493.764C190.036 492.444 191.248 491.784 192.844 491.784ZM190.234 499.038C190.918 499.722 191.758 500.064 192.754 500.064C193.75 500.064 194.59 499.722 195.274 499.038C195.958 498.342 196.3 497.496 196.3 496.5C196.3 495.504 195.958 494.664 195.274 493.98C194.59 493.284 193.75 492.936 192.754 492.936C191.758 492.936 190.918 493.284 190.234 493.98C189.55 494.664 189.208 495.504 189.208 496.5C189.208 497.496 189.55 498.342 190.234 499.038ZM205.763 502.8C204.443 500.16 203.783 497.46 203.783 494.7C203.783 491.94 204.443 489.24 205.763 486.6H206.951C205.631 489.24 204.971 491.94 204.971 494.7C204.971 497.46 205.631 500.16 206.951 502.8H205.763ZM212.938 501.216C211.582 501.216 210.454 500.766 209.554 499.866C208.654 498.954 208.204 497.832 208.204 496.5C208.204 495.168 208.654 494.052 209.554 493.152C210.454 492.24 211.582 491.784 212.938 491.784C213.826 491.784 214.624 492 215.332 492.432C216.04 492.852 216.556 493.422 216.88 494.142L215.908 494.7C215.668 494.16 215.278 493.734 214.738 493.422C214.21 493.098 213.61 492.936 212.938 492.936C211.942 492.936 211.102 493.284 210.418 493.98C209.734 494.664 209.392 495.504 209.392 496.5C209.392 497.496 209.734 498.342 210.418 499.038C211.102 499.722 211.942 500.064 212.938 500.064C213.61 500.064 214.21 499.908 214.738 499.596C215.266 499.272 215.68 498.84 215.98 498.3L216.97 498.876C216.598 499.596 216.052 500.166 215.332 500.586C214.612 501.006 213.814 501.216 212.938 501.216ZM224.4 496.374C225.384 496.734 225.876 497.436 225.876 498.48C225.876 499.212 225.63 499.818 225.138 500.298C224.658 500.766 223.962 501 223.05 501H218.676V492H222.69C223.566 492 224.244 492.228 224.724 492.684C225.204 493.128 225.444 493.704 225.444 494.412C225.444 495.312 225.096 495.966 224.4 496.374ZM222.69 493.152H219.864V495.888H222.69C223.734 495.888 224.256 495.42 224.256 494.484C224.256 494.064 224.118 493.74 223.842 493.512C223.578 493.272 223.194 493.152 222.69 493.152ZM223.05 499.848C223.578 499.848 223.98 499.722 224.256 499.47C224.544 499.218 224.688 498.864 224.688 498.408C224.688 497.988 224.544 497.658 224.256 497.418C223.98 497.166 223.578 497.04 223.05 497.04H219.864V499.848H223.05ZM234.228 492H235.236V501H234.048V494.07L228.684 501H227.676V492H228.864V498.93L234.228 492ZM245.308 499.848H246.568V503.412H245.38V501H238.036V503.412H236.848V499.848H237.946C238.558 499.044 238.864 497.91 238.864 496.446V492H245.308V499.848ZM239.386 499.848H244.12V493.152H240.052V496.446C240.052 497.826 239.83 498.96 239.386 499.848ZM252.172 491.784C253.504 491.784 254.578 492.258 255.394 493.206C256.222 494.142 256.636 495.252 256.636 496.536C256.636 496.668 256.624 496.854 256.6 497.094H248.698C248.818 498.006 249.202 498.732 249.85 499.272C250.51 499.8 251.32 500.064 252.28 500.064C252.964 500.064 253.552 499.926 254.044 499.65C254.548 499.362 254.926 498.99 255.178 498.534L256.222 499.146C255.826 499.782 255.286 500.286 254.602 500.658C253.918 501.03 253.138 501.216 252.262 501.216C250.846 501.216 249.694 500.772 248.806 499.884C247.918 498.996 247.474 497.868 247.474 496.5C247.474 495.156 247.912 494.034 248.788 493.134C249.664 492.234 250.792 491.784 252.172 491.784ZM252.172 492.936C251.236 492.936 250.45 493.218 249.814 493.782C249.19 494.334 248.818 495.054 248.698 495.942H255.412C255.292 494.994 254.926 494.256 254.314 493.728C253.702 493.2 252.988 492.936 252.172 492.936ZM264.654 492V493.152H261.468V501H260.28V493.152H257.094V492H264.654ZM269.908 491.784C271.24 491.784 272.314 492.258 273.13 493.206C273.958 494.142 274.372 495.252 274.372 496.536C274.372 496.668 274.36 496.854 274.336 497.094H266.434C266.554 498.006 266.938 498.732 267.586 499.272C268.246 499.8 269.056 500.064 270.016 500.064C270.7 500.064 271.288 499.926 271.78 499.65C272.284 499.362 272.662 498.99 272.914 498.534L273.958 499.146C273.562 499.782 273.022 500.286 272.338 500.658C271.654 501.03 270.874 501.216 269.998 501.216C268.582 501.216 267.43 500.772 266.542 499.884C265.654 498.996 265.21 497.868 265.21 496.5C265.21 495.156 265.648 494.034 266.524 493.134C267.4 492.234 268.528 491.784 269.908 491.784ZM269.908 492.936C268.972 492.936 268.186 493.218 267.55 493.782C266.926 494.334 266.554 495.054 266.434 495.942H273.148C273.028 494.994 272.662 494.256 272.05 493.728C271.438 493.2 270.724 492.936 269.908 492.936ZM283.29 492V501H282.102V493.152H278.034V497.166C278.034 498.666 277.746 499.698 277.17 500.262C276.606 500.826 275.826 501.072 274.83 501V499.884C275.514 499.956 276.018 499.794 276.342 499.398C276.678 499.002 276.846 498.258 276.846 497.166V492H283.29ZM289.461 495.42C290.301 495.42 291.009 495.684 291.585 496.212C292.173 496.728 292.467 497.394 292.467 498.21C292.467 499.026 292.173 499.698 291.585 500.226C291.009 500.742 290.301 501 289.461 501H285.807V492H286.995V495.42H289.461ZM289.461 499.848C289.965 499.848 290.391 499.698 290.739 499.398C291.099 499.098 291.279 498.702 291.279 498.21C291.279 497.718 291.099 497.322 290.739 497.022C290.391 496.722 289.965 496.572 289.461 496.572H286.995V499.848H289.461ZM294.73 502.8H293.542C294.862 500.16 295.522 497.46 295.522 494.7C295.522 491.94 294.862 489.24 293.542 486.6H294.73C296.05 489.24 296.71 491.94 296.71 494.7C296.71 497.46 296.05 500.16 294.73 502.8ZM48.784 517.466C49.888 518.102 50.44 519.062 50.44 520.346C50.44 521.414 50.062 522.29 49.306 522.974C48.55 523.658 47.62 524 46.516 524H41.17V511.4H46.138C47.218 511.4 48.124 511.736 48.856 512.408C49.6 513.068 49.972 513.914 49.972 514.946C49.972 515.99 49.576 516.83 48.784 517.466ZM46.138 513.722H43.654V516.494H46.138C46.522 516.494 46.84 516.362 47.092 516.098C47.356 515.834 47.488 515.504 47.488 515.108C47.488 514.712 47.362 514.382 47.11 514.118C46.858 513.854 46.534 513.722 46.138 513.722ZM46.516 521.678C46.936 521.678 47.284 521.54 47.56 521.264C47.836 520.976 47.974 520.616 47.974 520.184C47.974 519.764 47.836 519.416 47.56 519.14C47.284 518.852 46.936 518.708 46.516 518.708H43.654V521.678H46.516ZM54.2824 516.548C54.4984 515.972 54.8524 515.54 55.3444 515.252C55.8484 514.964 56.4064 514.82 57.0184 514.82V517.412C56.3104 517.328 55.6744 517.472 55.1104 517.844C54.5584 518.216 54.2824 518.834 54.2824 519.698V524H51.9604V515H54.2824V516.548ZM59.5285 513.92C59.1445 513.92 58.8085 513.782 58.5205 513.506C58.2445 513.218 58.1065 512.882 58.1065 512.498C58.1065 512.114 58.2445 511.778 58.5205 511.49C58.8085 511.202 59.1445 511.058 59.5285 511.058C59.9245 511.058 60.2605 511.202 60.5365 511.49C60.8245 511.778 60.9685 512.114 60.9685 512.498C60.9685 512.882 60.8245 513.218 60.5365 513.506C60.2605 513.782 59.9245 513.92 59.5285 513.92ZM58.3765 524V515H60.6985V524H58.3765ZM69.6457 511.4H71.9677V524H69.6457V522.938C68.9617 523.814 67.9897 524.252 66.7297 524.252C65.5177 524.252 64.4797 523.796 63.6157 522.884C62.7637 521.96 62.3377 520.832 62.3377 519.5C62.3377 518.168 62.7637 517.046 63.6157 516.134C64.4797 515.21 65.5177 514.748 66.7297 514.748C67.9897 514.748 68.9617 515.186 69.6457 516.062V511.4ZM65.3617 521.336C65.8417 521.804 66.4417 522.038 67.1617 522.038C67.8817 522.038 68.4757 521.804 68.9437 521.336C69.4117 520.856 69.6457 520.244 69.6457 519.5C69.6457 518.756 69.4117 518.15 68.9437 517.682C68.4757 517.202 67.8817 516.962 67.1617 516.962C66.4417 516.962 65.8417 517.202 65.3617 517.682C64.8937 518.15 64.6597 518.756 64.6597 519.5C64.6597 520.244 64.8937 520.856 65.3617 521.336ZM76.0533 520.454C76.3653 521.582 77.2113 522.146 78.5913 522.146C79.4793 522.146 80.1513 521.846 80.6073 521.246L82.4793 522.326C81.5913 523.61 80.2833 524.252 78.5553 524.252C77.0673 524.252 75.8733 523.802 74.9733 522.902C74.0733 522.002 73.6233 520.868 73.6233 519.5C73.6233 518.144 74.0673 517.016 74.9553 516.116C75.8433 515.204 76.9833 514.748 78.3753 514.748C79.6953 514.748 80.7813 515.204 81.6333 516.116C82.4973 517.028 82.9293 518.156 82.9293 519.5C82.9293 519.8 82.8993 520.118 82.8393 520.454H76.0533ZM76.0173 518.654H80.6073C80.4753 518.042 80.1993 517.586 79.7793 517.286C79.3713 516.986 78.9033 516.836 78.3753 516.836C77.7513 516.836 77.2353 516.998 76.8273 517.322C76.4193 517.634 76.1493 518.078 76.0173 518.654ZM86.3407 517.556C86.3407 517.796 86.4967 517.994 86.8087 518.15C87.1327 518.294 87.5227 518.426 87.9787 518.546C88.4347 518.654 88.8907 518.798 89.3467 518.978C89.8027 519.146 90.1867 519.434 90.4987 519.842C90.8227 520.25 90.9847 520.76 90.9847 521.372C90.9847 522.296 90.6367 523.01 89.9407 523.514C89.2567 524.006 88.3987 524.252 87.3667 524.252C85.5187 524.252 84.2587 523.538 83.5867 522.11L85.6027 520.976C85.8667 521.756 86.4547 522.146 87.3667 522.146C88.1947 522.146 88.6087 521.888 88.6087 521.372C88.6087 521.132 88.4467 520.94 88.1227 520.796C87.8107 520.64 87.4267 520.502 86.9707 520.382C86.5147 520.262 86.0587 520.112 85.6027 519.932C85.1467 519.752 84.7567 519.47 84.4327 519.086C84.1207 518.69 83.9647 518.198 83.9647 517.61C83.9647 516.722 84.2887 516.026 84.9367 515.522C85.5967 515.006 86.4127 514.748 87.3847 514.748C88.1167 514.748 88.7827 514.916 89.3827 515.252C89.9827 515.576 90.4567 516.044 90.8047 516.656L88.8247 517.736C88.5367 517.124 88.0567 516.818 87.3847 516.818C87.0847 516.818 86.8327 516.884 86.6287 517.016C86.4367 517.148 86.3407 517.328 86.3407 517.556ZM102.52 514.748C103.552 514.748 104.374 515.084 104.986 515.756C105.61 516.428 105.922 517.328 105.922 518.456V524H103.6V518.618C103.6 518.078 103.468 517.658 103.204 517.358C102.94 517.058 102.568 516.908 102.088 516.908C101.56 516.908 101.146 517.082 100.846 517.43C100.558 517.778 100.414 518.282 100.414 518.942V524H98.0919V518.618C98.0919 518.078 97.9599 517.658 97.6959 517.358C97.4319 517.058 97.0599 516.908 96.5799 516.908C96.0639 516.908 95.6499 517.082 95.3379 517.43C95.0379 517.778 94.8879 518.282 94.8879 518.942V524H92.5659V515H94.8879V515.954C95.4279 515.15 96.2619 514.748 97.3899 514.748C98.4939 514.748 99.3099 515.18 99.8379 516.044C100.438 515.18 101.332 514.748 102.52 514.748ZM114.734 515H117.056V524H114.734V522.938C114.038 523.814 113.06 524.252 111.8 524.252C110.6 524.252 109.568 523.796 108.704 522.884C107.852 521.96 107.426 520.832 107.426 519.5C107.426 518.168 107.852 517.046 108.704 516.134C109.568 515.21 110.6 514.748 111.8 514.748C113.06 514.748 114.038 515.186 114.734 516.062V515ZM110.45 521.336C110.918 521.804 111.512 522.038 112.232 522.038C112.952 522.038 113.546 521.804 114.014 521.336C114.494 520.856 114.734 520.244 114.734 519.5C114.734 518.756 114.494 518.15 114.014 517.682C113.546 517.202 112.952 516.962 112.232 516.962C111.512 516.962 110.918 517.202 110.45 517.682C109.982 518.15 109.748 518.756 109.748 519.5C109.748 520.244 109.982 520.856 110.45 521.336ZM120.314 513.92C119.93 513.92 119.594 513.782 119.306 513.506C119.03 513.218 118.892 512.882 118.892 512.498C118.892 512.114 119.03 511.778 119.306 511.49C119.594 511.202 119.93 511.058 120.314 511.058C120.71 511.058 121.046 511.202 121.322 511.49C121.61 511.778 121.754 512.114 121.754 512.498C121.754 512.882 121.61 513.218 121.322 513.506C121.046 513.782 120.71 513.92 120.314 513.92ZM119.162 524V515H121.484V524H119.162ZM130.431 511.4H132.753V524H130.431V522.938C129.747 523.814 128.775 524.252 127.515 524.252C126.303 524.252 125.265 523.796 124.401 522.884C123.549 521.96 123.123 520.832 123.123 519.5C123.123 518.168 123.549 517.046 124.401 516.134C125.265 515.21 126.303 514.748 127.515 514.748C128.775 514.748 129.747 515.186 130.431 516.062V511.4ZM126.147 521.336C126.627 521.804 127.227 522.038 127.947 522.038C128.667 522.038 129.261 521.804 129.729 521.336C130.197 520.856 130.431 520.244 130.431 519.5C130.431 518.756 130.197 518.15 129.729 517.682C129.261 517.202 128.667 516.962 127.947 516.962C127.227 516.962 126.627 517.202 126.147 517.682C125.679 518.15 125.445 518.756 125.445 519.5C125.445 520.244 125.679 520.856 126.147 521.336ZM139.754 519.014V517.862H148.754V519.014H139.754ZM163.517 515V524H162.329V516.152H157.145V524H155.957V515H163.517ZM173.572 522.866C172.66 523.766 171.544 524.216 170.224 524.216C168.904 524.216 167.782 523.766 166.858 522.866C165.946 521.954 165.49 520.832 165.49 519.5C165.49 518.168 165.946 517.052 166.858 516.152C167.782 515.24 168.904 514.784 170.224 514.784C171.544 514.784 172.66 515.24 173.572 516.152C174.496 517.052 174.958 518.168 174.958 519.5C174.958 520.832 174.496 521.954 173.572 522.866ZM167.704 522.038C168.388 522.722 169.228 523.064 170.224 523.064C171.22 523.064 172.06 522.722 172.744 522.038C173.428 521.342 173.77 520.496 173.77 519.5C173.77 518.504 173.428 517.664 172.744 516.98C172.06 516.284 171.22 515.936 170.224 515.936C169.228 515.936 168.388 516.284 167.704 516.98C167.02 517.664 166.678 518.504 166.678 519.5C166.678 520.496 167.02 521.342 167.704 522.038ZM184.154 522.848H185.414V526.412H184.226V524H176.882V526.412H175.694V522.848H176.792C177.404 522.044 177.71 520.91 177.71 519.446V515H184.154V522.848ZM178.232 522.848H182.966V516.152H178.898V519.446C178.898 520.826 178.676 521.96 178.232 522.848ZM192.035 514.784C193.319 514.784 194.411 515.24 195.311 516.152C196.223 517.064 196.679 518.18 196.679 519.5C196.679 520.82 196.223 521.936 195.311 522.848C194.411 523.76 193.319 524.216 192.035 524.216C190.439 524.216 189.227 523.556 188.399 522.236V527.6H187.211V515H188.399V516.764C189.227 515.444 190.439 514.784 192.035 514.784ZM189.425 522.038C190.109 522.722 190.949 523.064 191.945 523.064C192.941 523.064 193.781 522.722 194.465 522.038C195.149 521.342 195.491 520.496 195.491 519.5C195.491 518.504 195.149 517.664 194.465 516.98C193.781 516.284 192.941 515.936 191.945 515.936C190.949 515.936 190.109 516.284 189.425 516.98C188.741 517.664 188.399 518.504 188.399 519.5C188.399 520.496 188.741 521.342 189.425 522.038ZM204.783 515H206.043L202.191 524.828C201.843 525.716 201.345 526.412 200.697 526.916C200.061 527.432 199.347 527.66 198.555 527.6V526.484C199.635 526.604 200.457 525.98 201.021 524.612L201.255 524.054L197.223 515H198.483L201.867 522.542L204.783 515ZM217.815 524H216.375L212.703 519.662V524H211.515V519.662L207.843 524H206.403L210.435 519.32L206.583 515H208.023L211.515 518.996V515H212.703V518.996L216.195 515H217.635L213.783 519.32L217.815 524ZM226.704 524H225.12L220.62 519.662V524H219.432V515H220.62V518.978L224.904 515H226.524L221.88 519.32L226.704 524ZM235.17 515H236.358V524H235.17V522.236C234.342 523.556 233.13 524.216 231.534 524.216C230.25 524.216 229.152 523.76 228.24 522.848C227.34 521.936 226.89 520.82 226.89 519.5C226.89 518.18 227.34 517.064 228.24 516.152C229.152 515.24 230.25 514.784 231.534 514.784C233.13 514.784 234.342 515.444 235.17 516.764V515ZM229.104 522.038C229.788 522.722 230.628 523.064 231.624 523.064C232.62 523.064 233.46 522.722 234.144 522.038C234.828 521.342 235.17 520.496 235.17 519.5C235.17 518.504 234.828 517.664 234.144 516.98C233.46 516.284 232.62 515.936 231.624 515.936C230.628 515.936 229.788 516.284 229.104 516.98C228.42 517.664 228.078 518.504 228.078 519.5C228.078 520.496 228.42 521.342 229.104 522.038ZM249.745 515H250.933V524H249.745V520.076H244.561V524H243.373V515H244.561V518.924H249.745V515ZM257.604 514.784C258.936 514.784 260.01 515.258 260.826 516.206C261.654 517.142 262.068 518.252 262.068 519.536C262.068 519.668 262.056 519.854 262.032 520.094H254.13C254.25 521.006 254.634 521.732 255.282 522.272C255.942 522.8 256.752 523.064 257.712 523.064C258.396 523.064 258.984 522.926 259.476 522.65C259.98 522.362 260.358 521.99 260.61 521.534L261.654 522.146C261.258 522.782 260.718 523.286 260.034 523.658C259.35 524.03 258.57 524.216 257.694 524.216C256.278 524.216 255.126 523.772 254.238 522.884C253.35 521.996 252.906 520.868 252.906 519.5C252.906 518.156 253.344 517.034 254.22 516.134C255.096 515.234 256.224 514.784 257.604 514.784ZM257.604 515.936C256.668 515.936 255.882 516.218 255.246 516.782C254.622 517.334 254.25 518.054 254.13 518.942H260.844C260.724 517.994 260.358 517.256 259.746 516.728C259.134 516.2 258.42 515.936 257.604 515.936ZM269.681 519.374C270.665 519.734 271.157 520.436 271.157 521.48C271.157 522.212 270.911 522.818 270.419 523.298C269.939 523.766 269.243 524 268.331 524H263.957V515H267.971C268.847 515 269.525 515.228 270.005 515.684C270.485 516.128 270.725 516.704 270.725 517.412C270.725 518.312 270.377 518.966 269.681 519.374ZM267.971 516.152H265.145V518.888H267.971C269.015 518.888 269.537 518.42 269.537 517.484C269.537 517.064 269.399 516.74 269.123 516.512C268.859 516.272 268.475 516.152 267.971 516.152ZM268.331 522.848C268.859 522.848 269.261 522.722 269.537 522.47C269.825 522.218 269.969 521.864 269.969 521.408C269.969 520.988 269.825 520.658 269.537 520.418C269.261 520.166 268.859 520.04 268.331 520.04H265.145V522.848H268.331ZM277.115 514.784C278.447 514.784 279.521 515.258 280.337 516.206C281.165 517.142 281.579 518.252 281.579 519.536C281.579 519.668 281.567 519.854 281.543 520.094H273.641C273.761 521.006 274.145 521.732 274.793 522.272C275.453 522.8 276.263 523.064 277.223 523.064C277.907 523.064 278.495 522.926 278.987 522.65C279.491 522.362 279.869 521.99 280.121 521.534L281.165 522.146C280.769 522.782 280.229 523.286 279.545 523.658C278.861 524.03 278.081 524.216 277.205 524.216C275.789 524.216 274.637 523.772 273.749 522.884C272.861 521.996 272.417 520.868 272.417 519.5C272.417 518.156 272.855 517.034 273.731 516.134C274.607 515.234 275.735 514.784 277.115 514.784ZM277.115 515.936C276.179 515.936 275.393 516.218 274.757 516.782C274.133 517.334 273.761 518.054 273.641 518.942H280.355C280.235 517.994 279.869 517.256 279.257 516.728C278.645 516.2 277.931 515.936 277.115 515.936ZM287.663 524.216C286.307 524.216 285.179 523.766 284.279 522.866C283.379 521.954 282.929 520.832 282.929 519.5C282.929 518.168 283.379 517.052 284.279 516.152C285.179 515.24 286.307 514.784 287.663 514.784C288.551 514.784 289.349 515 290.057 515.432C290.765 515.852 291.281 516.422 291.605 517.142L290.633 517.7C290.393 517.16 290.003 516.734 289.463 516.422C288.935 516.098 288.335 515.936 287.663 515.936C286.667 515.936 285.827 516.284 285.143 516.98C284.459 517.664 284.117 518.504 284.117 519.5C284.117 520.496 284.459 521.342 285.143 522.038C285.827 522.722 286.667 523.064 287.663 523.064C288.335 523.064 288.935 522.908 289.463 522.596C289.991 522.272 290.405 521.84 290.705 521.3L291.695 521.876C291.323 522.596 290.777 523.166 290.057 523.586C289.337 524.006 288.539 524.216 287.663 524.216ZM299.705 515V516.152H296.519V524H295.331V516.152H292.145V515H299.705ZM304.807 518.42C305.647 518.42 306.355 518.684 306.931 519.212C307.519 519.728 307.813 520.394 307.813 521.21C307.813 522.026 307.519 522.698 306.931 523.226C306.355 523.742 305.647 524 304.807 524H301.153V515H302.341V518.42H304.807ZM309.073 515H310.261V524H309.073V515ZM304.807 522.848C305.311 522.848 305.737 522.698 306.085 522.398C306.445 522.098 306.625 521.702 306.625 521.21C306.625 520.718 306.445 520.322 306.085 520.022C305.737 519.722 305.311 519.572 304.807 519.572H302.341V522.848H304.807Z" fill="#CDE4FD" fill-opacity="0.6"></path><path d="M47.296 84.136L60.8 101H65.952V78.6H61.536V95.464L48.032 78.6H42.88V101H47.296V84.136ZM80.4918 97.768C77.4838 97.768 75.1478 96.456 74.5398 94.12H88.2998C88.4918 93.384 88.5878 92.648 88.5878 91.944C88.5878 87.624 84.9398 84.456 80.0758 84.456C74.7318 84.456 70.1878 87.656 70.1878 93C70.1878 97.8 74.1238 101.576 80.0758 101.576C83.0198 101.576 86.0278 100.584 88.1718 99.496L86.9237 96.168C84.6518 97.352 82.6678 97.768 80.4918 97.768ZM79.8198 88.008C82.3158 88.008 83.9158 89.128 84.3318 91.016H74.6358C75.2758 89.064 77.0677 88.008 79.8198 88.008ZM94.39 85H89.75L97.302 101H101.942L109.526 85H104.822L99.638 96.232L94.39 85ZM121.179 97.768C118.171 97.768 115.835 96.456 115.227 94.12H128.987C129.179 93.384 129.275 92.648 129.275 91.944C129.275 87.624 125.627 84.456 120.763 84.456C115.419 84.456 110.875 87.656 110.875 93C110.875 97.8 114.811 101.576 120.763 101.576C123.707 101.576 126.715 100.584 128.859 99.496L127.611 96.168C125.339 97.352 123.355 97.768 121.179 97.768ZM120.507 88.008C123.003 88.008 124.603 89.128 125.019 91.016H115.323C115.963 89.064 117.755 88.008 120.507 88.008ZM142.982 84.456C140.198 84.456 137.99 86.824 137.062 88.552V85H132.838V101H137.062V93.064C137.062 90.12 139.91 88.392 142.566 88.392C143.174 88.392 144.006 88.584 144.774 88.936L145.67 85.096C144.87 84.712 143.878 84.456 142.982 84.456ZM166.436 88.424C168.964 88.424 170.276 89.992 170.276 92.264V101H174.5V91.752C174.5 87.4 172.004 84.52 167.652 84.52C164.612 84.52 162.244 86.472 161.124 88.552V77.288H156.9V101H161.124V93.064C161.124 89.896 163.78 88.424 166.436 88.424ZM184.75 91.88C181.454 91.88 178.19 93.352 178.19 96.776C178.19 99.656 180.43 101.64 183.438 101.64C186.158 101.64 188.59 100.168 190.126 98.344C190.19 100.136 191.086 101.64 193.23 101.64C194.542 101.64 196.462 101 198.222 100.04L197.358 96.776C196.43 97.256 195.598 97.608 195.118 97.608C194.67 97.608 194.35 97.32 194.35 96.84V91.08C194.35 86.696 191.79 84.36 187.406 84.36C184.878 84.36 181.518 85.352 179.534 85.992L180.59 89.832C182.926 88.968 185.358 88.232 187.022 88.232C189.038 88.232 190.126 89.352 190.126 91.016V92.872C188.75 92.392 186.478 91.88 184.75 91.88ZM184.814 98.024C183.47 98.024 182.51 97.48 182.51 96.424C182.51 95.272 183.566 94.6 184.974 94.6C186.51 94.6 188.366 94.76 190.126 95.08V95.688C188.622 97.16 186.414 98.024 184.814 98.024ZM202.859 85H198.219L205.771 101H210.411L217.995 85H213.291L208.107 96.232L202.859 85ZM229.648 97.768C226.64 97.768 224.304 96.456 223.696 94.12H237.456C237.648 93.384 237.744 92.648 237.744 91.944C237.744 87.624 234.096 84.456 229.232 84.456C223.888 84.456 219.344 87.656 219.344 93C219.344 97.8 223.28 101.576 229.232 101.576C232.176 101.576 235.184 100.584 237.328 99.496L236.08 96.168C233.808 97.352 231.824 97.768 229.648 97.768ZM228.976 88.008C231.472 88.008 233.072 89.128 233.488 91.016H223.792C224.432 89.064 226.224 88.008 228.976 88.008ZM255.265 78.6H250.849V101H255.265V78.6ZM278.867 97.768C275.859 97.768 273.523 96.456 272.915 94.12H286.675C286.867 93.384 286.963 92.648 286.963 91.944C286.963 87.624 283.315 84.456 278.451 84.456C273.107 84.456 268.563 87.656 268.563 93C268.563 97.8 272.499 101.576 278.451 101.576C281.395 101.576 284.403 100.584 286.547 99.496L285.299 96.168C283.027 97.352 281.043 97.768 278.867 97.768ZM278.195 88.008C280.691 88.008 282.291 89.128 282.707 91.016H273.011C273.651 89.064 275.443 88.008 278.195 88.008ZM292.765 85H288.125L295.677 101H300.317L307.901 85H303.197L298.013 96.232L292.765 85ZM319.554 97.768C316.546 97.768 314.21 96.456 313.602 94.12H327.362C327.554 93.384 327.65 92.648 327.65 91.944C327.65 87.624 324.002 84.456 319.138 84.456C313.794 84.456 309.25 87.656 309.25 93C309.25 97.8 313.186 101.576 319.138 101.576C322.082 101.576 325.09 100.584 327.234 99.496L325.986 96.168C323.714 97.352 321.73 97.768 319.554 97.768ZM318.882 88.008C321.378 88.008 322.978 89.128 323.394 91.016H313.698C314.338 89.064 316.13 88.008 318.882 88.008ZM341.357 84.456C338.573 84.456 336.365 86.824 335.437 88.552V85H331.213V101H335.437V93.064C335.437 90.12 338.285 88.392 340.941 88.392C341.549 88.392 342.381 88.584 343.149 88.936L344.045 85.096C343.245 84.712 342.253 84.456 341.357 84.456ZM53.376 124.456C50.208 124.456 47.68 126.344 46.624 128.552V117H42.4V139.4C44.48 140.328 48.832 141.576 52.032 141.576C57.28 141.576 61.312 137.64 61.312 132.84C61.312 127.656 57.632 124.456 53.376 124.456ZM52.128 128.392C54.912 128.392 57.056 129.96 57.056 132.84C57.056 135.528 54.72 137.864 52.096 137.864C50.144 137.864 48.48 137.544 46.624 136.936V133.064C46.624 130.12 49.44 128.392 52.128 128.392ZM74.3043 137.768C71.2963 137.768 68.9603 136.456 68.3523 134.12H82.1123C82.3043 133.384 82.4003 132.648 82.4003 131.944C82.4003 127.624 78.7523 124.456 73.8883 124.456C68.5443 124.456 64.0003 127.656 64.0003 133C64.0003 137.8 67.9363 141.576 73.8883 141.576C76.8323 141.576 79.8403 140.584 81.9843 139.496L80.7362 136.168C78.4643 137.352 76.4803 137.768 74.3043 137.768ZM73.6323 128.008C76.1283 128.008 77.7283 129.128 78.1443 131.016H68.4483C69.0883 129.064 70.8802 128.008 73.6323 128.008ZM95.2105 137.768C92.2025 137.768 89.8665 136.456 89.2585 134.12H103.019C103.211 133.384 103.307 132.648 103.307 131.944C103.307 127.624 99.6585 124.456 94.7945 124.456C89.4505 124.456 84.9065 127.656 84.9065 133C84.9065 137.8 88.8425 141.576 94.7945 141.576C97.7385 141.576 100.747 140.584 102.891 139.496L101.642 136.168C99.3705 137.352 97.3865 137.768 95.2105 137.768ZM94.5385 128.008C97.0345 128.008 98.6345 129.128 99.0505 131.016H89.3545C89.9945 129.064 91.7865 128.008 94.5385 128.008ZM116.405 128.424C118.933 128.424 120.245 129.992 120.245 132.264V141H124.469V131.752C124.469 127.4 121.973 124.52 117.621 124.52C114.581 124.52 112.213 126.472 111.093 128.552V125H106.869V141H111.093V133.064C111.093 129.896 113.749 128.424 116.405 128.424ZM143.781 131.88C140.485 131.88 137.221 133.352 137.221 136.776C137.221 139.656 139.461 141.64 142.469 141.64C145.189 141.64 147.621 140.168 149.157 138.344C149.221 140.136 150.117 141.64 152.261 141.64C153.573 141.64 155.493 141 157.253 140.04L156.389 136.776C155.461 137.256 154.629 137.608 154.149 137.608C153.701 137.608 153.381 137.32 153.381 136.84V131.08C153.381 126.696 150.821 124.36 146.437 124.36C143.909 124.36 140.549 125.352 138.565 125.992L139.621 129.832C141.957 128.968 144.389 128.232 146.053 128.232C148.069 128.232 149.157 129.352 149.157 131.016V132.872C147.781 132.392 145.509 131.88 143.781 131.88ZM143.845 138.024C142.501 138.024 141.541 137.48 141.541 136.424C141.541 135.272 142.597 134.6 144.005 134.6C145.541 134.6 147.397 134.76 149.157 135.08V135.688C147.653 137.16 145.445 138.024 143.845 138.024ZM179.689 124.456C176.521 124.456 173.993 126.344 172.937 128.552V117H168.713V139.4C170.793 140.328 175.145 141.576 178.345 141.576C183.593 141.576 187.625 137.64 187.625 132.84C187.625 127.656 183.944 124.456 179.689 124.456ZM178.441 128.392C181.225 128.392 183.369 129.96 183.369 132.84C183.369 135.528 181.033 137.864 178.409 137.864C176.457 137.864 174.793 137.544 172.937 136.936V133.064C172.937 130.12 175.753 128.392 178.441 128.392ZM200.617 137.768C197.609 137.768 195.273 136.456 194.665 134.12H208.425C208.617 133.384 208.713 132.648 208.713 131.944C208.713 127.624 205.065 124.456 200.201 124.456C194.857 124.456 190.313 127.656 190.313 133C190.313 137.8 194.249 141.576 200.201 141.576C203.145 141.576 206.153 140.584 208.297 139.496L207.049 136.168C204.777 137.352 202.793 137.768 200.617 137.768ZM199.945 128.008C202.441 128.008 204.041 129.128 204.457 131.016H194.761C195.401 129.064 197.193 128.008 199.945 128.008ZM226.419 125.576C224.531 124.936 221.555 124.392 219.027 124.392C214.483 124.392 211.251 126.376 211.251 129.512C211.251 135.752 223.155 133.64 223.155 136.168C223.155 137.288 221.555 137.928 219.251 137.928C216.787 137.928 214.291 137.16 212.179 136.232L210.931 139.56C213.107 140.712 216.083 141.64 219.091 141.64C222.995 141.64 227.315 139.624 227.315 136.04C227.315 129.8 215.411 132.008 215.411 129.352C215.411 128.392 217.075 128.072 219.187 128.072C221.235 128.072 223.219 128.488 225.299 129.288L226.419 125.576ZM229.234 128.68H232.274V134.888C232.274 138.92 234.418 141.544 238.386 141.544C240.082 141.544 242.354 140.808 243.698 140.104L242.77 136.488C241.746 137.128 240.338 137.64 239.09 137.64C237.426 137.64 236.498 136.456 236.498 134.728V128.68H243.154V125H236.498V120.2H232.978L232.402 125.128L229.234 125.32V128.68ZM266.203 124.52C263.419 124.52 261.243 126.504 260.187 128.392V125H255.963V141H260.187V133.032C260.187 129.96 262.555 128.424 264.763 128.424C267.099 128.424 268.347 129.992 268.347 132.104V141H272.571V133.032C272.571 129.992 274.939 128.424 277.147 128.424C279.483 128.424 280.731 129.992 280.731 132.104V141H284.955V131.592C284.955 127.368 282.747 124.52 278.587 124.52C275.899 124.52 273.339 126.504 272.059 128.424C271.163 126.024 269.211 124.52 266.203 124.52ZM295.188 131.88C291.891 131.88 288.628 133.352 288.628 136.776C288.628 139.656 290.868 141.64 293.876 141.64C296.595 141.64 299.028 140.168 300.564 138.344C300.628 140.136 301.524 141.64 303.668 141.64C304.98 141.64 306.9 141 308.66 140.04L307.796 136.776C306.868 137.256 306.036 137.608 305.556 137.608C305.108 137.608 304.788 137.32 304.788 136.84V131.08C304.788 126.696 302.228 124.36 297.844 124.36C295.316 124.36 291.956 125.352 289.972 125.992L291.028 129.832C293.364 128.968 295.796 128.232 297.46 128.232C299.476 128.232 300.564 129.352 300.564 131.016V132.872C299.188 132.392 296.916 131.88 295.188 131.88ZM295.252 138.024C293.908 138.024 292.948 137.48 292.948 136.424C292.948 135.272 294.004 134.6 295.411 134.6C296.948 134.6 298.804 134.76 300.564 135.08V135.688C299.06 137.16 296.852 138.024 295.252 138.024ZM320.592 128.424C323.12 128.424 324.432 129.992 324.432 132.264V141H328.656V131.752C328.656 127.4 326.16 124.52 321.808 124.52C318.768 124.52 316.4 126.472 315.28 128.552V125H311.056V141H315.28V133.064C315.28 129.896 317.936 128.424 320.592 128.424ZM51.296 164.456C45.952 164.456 41.344 167.496 41.344 172.84C41.344 177.64 45.504 181.576 51.296 181.576C57.088 181.576 61.248 177.64 61.248 172.84C61.248 167.496 56.64 164.456 51.296 164.456ZM51.296 168.136C54.624 168.136 56.992 169.864 56.992 172.84C56.992 175.528 54.464 177.928 51.296 177.928C48.128 177.928 45.6 175.528 45.6 172.84C45.6 169.864 47.968 168.136 51.296 168.136ZM75.1378 164.456C72.3538 164.456 70.1458 166.824 69.2178 168.552V165H64.9938V181H69.2178V173.064C69.2178 170.12 72.0658 168.392 74.7218 168.392C75.3298 168.392 76.1618 168.584 76.9298 168.936L77.8258 165.096C77.0258 164.712 76.0338 164.456 75.1378 164.456ZM100.032 164.456C96.8643 164.456 94.3363 166.344 93.2803 168.552V157H89.0563V179.4C91.1363 180.328 95.4883 181.576 98.6883 181.576C103.936 181.576 107.968 177.64 107.968 172.84C107.968 167.656 104.288 164.456 100.032 164.456ZM98.7843 168.392C101.568 168.392 103.712 169.96 103.712 172.84C103.712 175.528 101.376 177.864 98.7523 177.864C96.8003 177.864 95.1363 177.544 93.2803 176.936V173.064C93.2803 170.12 96.0963 168.392 98.7843 168.392ZM121.857 164.456C119.073 164.456 116.865 166.824 115.937 168.552V165H111.713V181H115.937V173.064C115.937 170.12 118.785 168.392 121.441 168.392C122.049 168.392 122.881 168.584 123.649 168.936L124.545 165.096C123.745 164.712 122.753 164.456 121.857 164.456ZM130.937 165H126.777V181H130.937V165ZM126.329 160.392C126.329 161.8 127.449 162.92 128.857 162.92C130.265 162.92 131.385 161.8 131.385 160.392C131.385 159.016 130.265 157.896 128.857 157.896C127.449 157.896 126.329 159.016 126.329 160.392ZM142.814 181.544C146.078 181.544 148.638 179.656 149.694 177.448V181H153.918V157H149.694V165.576C148.094 165.064 145.886 164.424 144.158 164.424C138.782 164.424 134.75 168.36 134.75 173.16C134.75 178.344 138.43 181.544 142.814 181.544ZM144.062 177.608C141.214 177.608 139.006 176.008 139.006 173.128C139.006 170.312 141.214 168.136 144.094 168.136C146.046 168.136 147.838 168.552 149.694 169.096V172.552C149.694 175.624 146.878 177.608 144.062 177.608ZM167.961 177.768C164.953 177.768 162.617 176.456 162.009 174.12H175.769C175.961 173.384 176.057 172.648 176.057 171.944C176.057 167.624 172.409 164.456 167.545 164.456C162.201 164.456 157.657 167.656 157.657 173C157.657 177.8 161.593 181.576 167.545 181.576C170.489 181.576 173.497 180.584 175.641 179.496L174.392 176.168C172.121 177.352 170.137 177.768 167.961 177.768ZM167.289 168.008C169.785 168.008 171.385 169.128 171.801 171.016H162.105C162.745 169.064 164.536 168.008 167.289 168.008ZM193.763 165.576C191.875 164.936 188.899 164.392 186.371 164.392C181.827 164.392 178.595 166.376 178.595 169.512C178.595 175.752 190.499 173.64 190.499 176.168C190.499 177.288 188.899 177.928 186.595 177.928C184.131 177.928 181.635 177.16 179.523 176.232L178.275 179.56C180.451 180.712 183.427 181.64 186.435 181.64C190.339 181.64 194.659 179.624 194.659 176.04C194.659 169.8 182.755 172.008 182.755 169.352C182.755 168.392 184.419 168.072 186.531 168.072C188.579 168.072 190.563 168.488 192.643 169.288L193.763 165.576ZM208.578 164.52C205.794 164.52 203.618 166.504 202.562 168.392V165H198.338V181H202.562V173.032C202.562 169.96 204.93 168.424 207.138 168.424C209.474 168.424 210.722 169.992 210.722 172.104V181H214.946V173.032C214.946 169.992 217.314 168.424 219.522 168.424C221.858 168.424 223.106 169.992 223.106 172.104V181H227.33V171.592C227.33 167.368 225.122 164.52 220.962 164.52C218.274 164.52 215.714 166.504 214.434 168.424C213.538 166.024 211.586 164.52 208.578 164.52ZM237.562 171.88C234.266 171.88 231.003 173.352 231.003 176.776C231.003 179.656 233.243 181.64 236.251 181.64C238.97 181.64 241.403 180.168 242.939 178.344C243.003 180.136 243.899 181.64 246.043 181.64C247.355 181.64 249.275 181 251.035 180.04L250.171 176.776C249.243 177.256 248.411 177.608 247.931 177.608C247.483 177.608 247.163 177.32 247.163 176.84V171.08C247.163 166.696 244.603 164.36 240.219 164.36C237.691 164.36 234.331 165.352 232.347 165.992L233.403 169.832C235.739 168.968 238.171 168.232 239.835 168.232C241.851 168.232 242.939 169.352 242.939 171.016V172.872C241.563 172.392 239.291 171.88 237.562 171.88ZM237.627 178.024C236.283 178.024 235.323 177.48 235.323 176.424C235.323 175.272 236.379 174.6 237.786 174.6C239.323 174.6 241.179 174.76 242.939 175.08V175.688C241.435 177.16 239.227 178.024 237.627 178.024ZM257.655 165H253.495V181H257.655V165ZM253.047 160.392C253.047 161.8 254.167 162.92 255.575 162.92C256.983 162.92 258.103 161.8 258.103 160.392C258.103 159.016 256.983 157.896 255.575 157.896C254.167 157.896 253.047 159.016 253.047 160.392ZM269.533 181.544C272.797 181.544 275.357 179.656 276.413 177.448V181H280.637V157H276.413V165.576C274.813 165.064 272.605 164.424 270.877 164.424C265.501 164.424 261.469 168.36 261.469 173.16C261.469 178.344 265.149 181.544 269.533 181.544ZM270.781 177.608C267.933 177.608 265.725 176.008 265.725 173.128C265.725 170.312 267.933 168.136 270.813 168.136C272.765 168.136 274.557 168.552 276.413 169.096V172.552C276.413 175.624 273.597 177.608 270.781 177.608ZM300.094 171.88C296.798 171.88 293.534 173.352 293.534 176.776C293.534 179.656 295.774 181.64 298.782 181.64C301.502 181.64 303.934 180.168 305.47 178.344C305.534 180.136 306.43 181.64 308.574 181.64C309.886 181.64 311.806 181 313.566 180.04L312.702 176.776C311.774 177.256 310.942 177.608 310.462 177.608C310.014 177.608 309.694 177.32 309.694 176.84V171.08C309.694 166.696 307.134 164.36 302.75 164.36C300.222 164.36 296.862 165.352 294.878 165.992L295.934 169.832C298.27 168.968 300.702 168.232 302.366 168.232C304.382 168.232 305.47 169.352 305.47 171.016V172.872C304.094 172.392 301.822 171.88 300.094 171.88ZM300.158 178.024C298.814 178.024 297.854 177.48 297.854 176.424C297.854 175.272 298.91 174.6 300.318 174.6C301.854 174.6 303.71 174.76 305.47 175.08V175.688C303.966 177.16 301.758 178.024 300.158 178.024ZM314.203 168.68H317.243V174.888C317.243 178.92 319.387 181.544 323.355 181.544C325.051 181.544 327.323 180.808 328.667 180.104L327.739 176.488C326.715 177.128 325.307 177.64 324.059 177.64C322.395 177.64 321.467 176.456 321.467 174.728V168.68H328.123V165H321.467V160.2H317.947L317.371 165.128L314.203 165.32V168.68ZM48 211.88C44.704 211.88 41.44 213.352 41.44 216.776C41.44 219.656 43.68 221.64 46.688 221.64C49.408 221.64 51.84 220.168 53.376 218.344C53.44 220.136 54.336 221.64 56.48 221.64C57.792 221.64 59.712 221 61.472 220.04L60.608 216.776C59.68 217.256 58.848 217.608 58.368 217.608C57.92 217.608 57.6 217.32 57.6 216.84V211.08C57.6 206.696 55.04 204.36 50.656 204.36C48.128 204.36 44.768 205.352 42.784 205.992L43.84 209.832C46.176 208.968 48.608 208.232 50.272 208.232C52.288 208.232 53.376 209.352 53.376 211.016V212.872C52 212.392 49.728 211.88 48 211.88ZM48.064 218.024C46.72 218.024 45.76 217.48 45.76 216.424C45.76 215.272 46.816 214.6 48.224 214.6C49.76 214.6 51.616 214.76 53.376 215.08V215.688C51.872 217.16 49.664 218.024 48.064 218.024ZM91.1713 221H95.4593L102.467 205H97.9873L93.3153 215.976L88.6753 205H84.2593L79.6193 216.008L74.9793 205H70.4032L77.4113 221H81.7313L86.4673 210.056L91.1713 221ZM113.992 217.768C110.984 217.768 108.648 216.456 108.04 214.12H121.8C121.992 213.384 122.088 212.648 122.088 211.944C122.088 207.624 118.44 204.456 113.576 204.456C108.232 204.456 103.688 207.656 103.688 213C103.688 217.8 107.624 221.576 113.576 221.576C116.52 221.576 119.528 220.584 121.672 219.496L120.424 216.168C118.152 217.352 116.168 217.768 113.992 217.768ZM113.32 208.008C115.816 208.008 117.416 209.128 117.832 211.016H108.136C108.776 209.064 110.568 208.008 113.32 208.008ZM132.658 221.544C135.922 221.544 138.482 219.656 139.538 217.448V221H143.762V197H139.538V205.576C137.938 205.064 135.73 204.424 134.002 204.424C128.626 204.424 124.594 208.36 124.594 213.16C124.594 218.344 128.274 221.544 132.658 221.544ZM133.906 217.608C131.058 217.608 128.85 216.008 128.85 213.128C128.85 210.312 131.058 208.136 133.938 208.136C135.89 208.136 137.682 208.552 139.538 209.096V212.552C139.538 215.624 136.722 217.608 133.906 217.608ZM155.564 221.544C158.828 221.544 161.388 219.656 162.444 217.448V221H166.668V197H162.444V205.576C160.844 205.064 158.636 204.424 156.908 204.424C151.532 204.424 147.5 208.36 147.5 213.16C147.5 218.344 151.18 221.544 155.564 221.544ZM156.812 217.608C153.964 217.608 151.756 216.008 151.756 213.128C151.756 210.312 153.964 208.136 156.844 208.136C158.796 208.136 160.588 208.552 162.444 209.096V212.552C162.444 215.624 159.628 217.608 156.812 217.608ZM175.687 205H171.527V221H175.687V205ZM171.079 200.392C171.079 201.8 172.199 202.92 173.607 202.92C175.015 202.92 176.135 201.8 176.135 200.392C176.135 199.016 175.015 197.896 173.607 197.896C172.199 197.896 171.079 199.016 171.079 200.392ZM190.092 208.424C192.62 208.424 193.932 209.992 193.932 212.264V221H198.156V211.752C198.156 207.4 195.66 204.52 191.308 204.52C188.268 204.52 185.9 206.472 184.78 208.552V205H180.556V221H184.78V213.064C184.78 209.896 187.436 208.424 190.092 208.424ZM208.502 218.888C207.446 218.888 206.902 218.504 206.902 217.96C206.902 217.512 207.318 217.192 207.702 217.096C208.438 217.224 209.238 217.288 210.038 217.288C214.87 217.288 218.39 214.536 218.39 210.888C218.39 209.8 218.102 208.84 217.654 208.04C218.422 207.656 219.318 207.432 220.438 207.304L219.67 203.368C217.622 203.72 216.022 204.488 214.806 205.48C213.43 204.808 211.766 204.456 210.038 204.456C205.654 204.456 201.718 206.664 201.718 210.888C201.718 212.616 203.094 214.376 204.566 215.336C203.766 215.848 202.838 216.68 202.838 217.736C202.838 218.76 203.51 219.88 204.374 220.296C202.774 220.712 201.078 222.28 201.078 223.976C201.078 227.336 204.854 229.096 210.678 229.096C216.15 229.096 220.182 227.304 220.182 223.656C220.182 220.328 216.15 218.888 210.678 218.888H208.502ZM210.006 207.944C212.278 207.944 214.006 208.936 214.006 210.76C214.006 212.264 212.438 213.512 210.006 213.512C207.702 213.512 205.974 212.36 205.974 210.76C205.974 208.936 207.702 207.944 210.006 207.944ZM210.614 222.472C213.91 222.472 216.086 222.92 216.086 224.008C216.086 225.192 213.91 225.64 210.614 225.64C207.094 225.64 205.142 225.128 205.142 223.976C205.142 223.336 205.75 222.792 206.454 222.504C206.998 222.472 209.974 222.472 210.614 222.472Z" fill="#CDE4FD"></path></svg> 