<?xml version="1.0" encoding="UTF-8"?> <svg xmlns="http://www.w3.org/2000/svg" width="400" height="600" viewBox="0 0 400 600" fill="none"> <rect width="400" height="600" rx="20" fill="#7F3CC9"></rect> <path d="M47.296 84.136L60.8 101H65.952V78.6H61.536V95.464L48.032 78.6H42.88V101H47.296V84.136ZM80.4918 97.768C77.4838 97.768 75.1478 96.456 74.5398 94.12H88.2998C88.4918 93.384 88.5878 92.648 88.5878 91.944C88.5878 87.624 84.9398 84.456 80.0758 84.456C74.7318 84.456 70.1878 87.656 70.1878 93C70.1878 97.8 74.1238 101.576 80.0758 101.576C83.0198 101.576 86.0278 100.584 88.1718 99.496L86.9237 96.168C84.6518 97.352 82.6678 97.768 80.4918 97.768ZM79.8198 88.008C82.3158 88.008 83.9158 89.128 84.3318 91.016H74.6358C75.2758 89.064 77.0677 88.008 79.8198 88.008ZM94.39 85H89.75L97.302 101H101.942L109.526 85H104.822L99.638 96.232L94.39 85ZM121.179 97.768C118.171 97.768 115.835 96.456 115.227 94.12H128.987C129.179 93.384 129.275 92.648 129.275 91.944C129.275 87.624 125.627 84.456 120.763 84.456C115.419 84.456 110.875 87.656 110.875 93C110.875 97.8 114.811 101.576 120.763 101.576C123.707 101.576 126.715 100.584 128.859 99.496L127.611 96.168C125.339 97.352 123.355 97.768 121.179 97.768ZM120.507 88.008C123.003 88.008 124.603 89.128 125.019 91.016H115.323C115.963 89.064 117.755 88.008 120.507 88.008ZM142.982 84.456C140.198 84.456 137.99 86.824 137.062 88.552V85H132.838V101H137.062V93.064C137.062 90.12 139.91 88.392 142.566 88.392C143.174 88.392 144.006 88.584 144.774 88.936L145.67 85.096C144.87 84.712 143.878 84.456 142.982 84.456ZM166.436 88.424C168.964 88.424 170.276 89.992 170.276 92.264V101H174.5V91.752C174.5 87.4 172.004 84.52 167.652 84.52C164.612 84.52 162.244 86.472 161.124 88.552V77.288H156.9V101H161.124V93.064C161.124 89.896 163.78 88.424 166.436 88.424ZM184.75 91.88C181.454 91.88 178.19 93.352 178.19 96.776C178.19 99.656 180.43 101.64 183.438 101.64C186.158 101.64 188.59 100.168 190.126 98.344C190.19 100.136 191.086 101.64 193.23 101.64C194.542 101.64 196.462 101 198.222 100.04L197.358 96.776C196.43 97.256 195.598 97.608 195.118 97.608C194.67 97.608 194.35 97.32 194.35 96.84V91.08C194.35 86.696 191.79 84.36 187.406 84.36C184.878 84.36 181.518 85.352 179.534 85.992L180.59 89.832C182.926 88.968 185.358 88.232 187.022 88.232C189.038 88.232 190.126 89.352 190.126 91.016V92.872C188.75 92.392 186.478 91.88 184.75 91.88ZM184.814 98.024C183.47 98.024 182.51 97.48 182.51 96.424C182.51 95.272 183.566 94.6 184.974 94.6C186.51 94.6 188.366 94.76 190.126 95.08V95.688C188.622 97.16 186.414 98.024 184.814 98.024ZM202.859 85H198.219L205.771 101H210.411L217.995 85H213.291L208.107 96.232L202.859 85ZM229.648 97.768C226.64 97.768 224.304 96.456 223.696 94.12H237.456C237.648 93.384 237.744 92.648 237.744 91.944C237.744 87.624 234.096 84.456 229.232 84.456C223.888 84.456 219.344 87.656 219.344 93C219.344 97.8 223.28 101.576 229.232 101.576C232.176 101.576 235.184 100.584 237.328 99.496L236.08 96.168C233.808 97.352 231.824 97.768 229.648 97.768ZM228.976 88.008C231.472 88.008 233.072 89.128 233.488 91.016H223.792C224.432 89.064 226.224 88.008 228.976 88.008ZM255.265 78.6H250.849V101H255.265V78.6ZM278.867 97.768C275.859 97.768 273.523 96.456 272.915 94.12H286.675C286.867 93.384 286.963 92.648 286.963 91.944C286.963 87.624 283.315 84.456 278.451 84.456C273.107 84.456 268.563 87.656 268.563 93C268.563 97.8 272.499 101.576 278.451 101.576C281.395 101.576 284.403 100.584 286.547 99.496L285.299 96.168C283.027 97.352 281.043 97.768 278.867 97.768ZM278.195 88.008C280.691 88.008 282.291 89.128 282.707 91.016H273.011C273.651 89.064 275.443 88.008 278.195 88.008ZM292.765 85H288.125L295.677 101H300.317L307.901 85H303.197L298.013 96.232L292.765 85ZM319.554 97.768C316.546 97.768 314.21 96.456 313.602 94.12H327.362C327.554 93.384 327.65 92.648 327.65 91.944C327.65 87.624 324.002 84.456 319.138 84.456C313.794 84.456 309.25 87.656 309.25 93C309.25 97.8 313.186 101.576 319.138 101.576C322.082 101.576 325.09 100.584 327.234 99.496L325.986 96.168C323.714 97.352 321.73 97.768 319.554 97.768ZM318.882 88.008C321.378 88.008 322.978 89.128 323.394 91.016H313.698C314.338 89.064 316.13 88.008 318.882 88.008ZM341.357 84.456C338.573 84.456 336.365 86.824 335.437 88.552V85H331.213V101H335.437V93.064C335.437 90.12 338.285 88.392 340.941 88.392C341.549 88.392 342.381 88.584 343.149 88.936L344.045 85.096C343.245 84.712 342.253 84.456 341.357 84.456ZM46.592 141V117H42.4V141H46.592ZM55.624 125H51.464V141H55.624V125ZM51.016 120.392C51.016 121.8 52.136 122.92 53.544 122.92C54.952 122.92 56.072 121.8 56.072 120.392C56.072 119.016 54.952 117.896 53.544 117.896C52.136 117.896 51.016 119.016 51.016 120.392ZM69.3258 124.456C63.9818 124.456 59.4378 127.656 59.4378 133C59.4378 137.8 63.0858 141.576 69.0378 141.576C72.0458 141.576 74.7978 140.648 76.9738 139.496L75.7257 136.168C73.6138 137.096 71.9178 137.768 69.5818 137.768C66.2538 137.768 63.6938 135.912 63.6938 132.84C63.6938 129.928 65.9978 128.168 69.0698 128.168C71.2458 128.168 73.1018 128.616 75.3098 129.512L76.3338 125.736C74.4138 125.064 71.9818 124.456 69.3258 124.456ZM84.3413 117H80.1813V141H84.3413V117ZM90.1973 139.848C91.0613 140.872 92.0853 141.416 93.1733 141.416C94.4533 141.416 95.8293 140.808 97.3013 140.168L96.3093 136.744C95.5413 137.064 94.8373 137.416 94.1973 137.416C93.8453 137.416 93.5253 137.32 93.2373 137.032L89.4933 133.16L97.2053 125H91.7973L84.5653 133.288L90.1973 139.848ZM109.742 137.768C106.734 137.768 104.398 136.456 103.79 134.12H117.55C117.742 133.384 117.838 132.648 117.838 131.944C117.838 127.624 114.19 124.456 109.326 124.456C103.982 124.456 99.4378 127.656 99.4378 133C99.4378 137.8 103.374 141.576 109.326 141.576C112.27 141.576 115.278 140.584 117.422 139.496L116.174 136.168C113.902 137.352 111.918 137.768 109.742 137.768ZM109.07 128.008C111.566 128.008 113.166 129.128 113.582 131.016H103.886C104.526 129.064 106.318 128.008 109.07 128.008ZM128.408 141.544C131.672 141.544 134.232 139.656 135.288 137.448V141H139.512V117H135.288V125.576C133.688 125.064 131.48 124.424 129.752 124.424C124.376 124.424 120.344 128.36 120.344 133.16C120.344 138.344 124.024 141.544 128.408 141.544ZM129.656 137.608C126.808 137.608 124.6 136.008 124.6 133.128C124.6 130.312 126.808 128.136 129.688 128.136C131.64 128.136 133.432 128.552 135.288 129.096V132.552C135.288 135.624 132.472 137.608 129.656 137.608ZM160.761 120.424C162.137 120.424 163.641 120.872 165.113 121.512L166.137 117.64C164.633 117.128 162.713 116.68 160.889 116.68C156.953 116.68 154.233 119.08 154.233 122.76V125H151.609V128.68H154.265V141H158.425V128.68H165.529V125H158.265V122.952C158.265 121.224 159.225 120.424 160.761 120.424ZM178.325 124.456C175.541 124.456 173.333 126.824 172.405 128.552V125H168.181V141H172.405V133.064C172.405 130.12 175.253 128.392 177.909 128.392C178.517 128.392 179.349 128.584 180.117 128.936L181.013 125.096C180.213 124.712 179.221 124.456 178.325 124.456ZM192.077 124.456C186.733 124.456 182.125 127.496 182.125 132.84C182.125 137.64 186.285 141.576 192.077 141.576C197.869 141.576 202.029 137.64 202.029 132.84C202.029 127.496 197.421 124.456 192.077 124.456ZM192.077 128.136C195.405 128.136 197.773 129.864 197.773 132.84C197.773 135.528 195.245 137.928 192.077 137.928C188.909 137.928 186.381 135.528 186.381 132.84C186.381 129.864 188.749 128.136 192.077 128.136ZM204.463 141H220.527V137.32H209.135L220.111 129.16V125H205.007V128.68H215.439L204.463 136.84V141ZM233.304 137.768C230.296 137.768 227.96 136.456 227.352 134.12H241.112C241.304 133.384 241.4 132.648 241.4 131.944C241.4 127.624 237.752 124.456 232.888 124.456C227.544 124.456 223 127.656 223 133C223 137.8 226.936 141.576 232.888 141.576C235.832 141.576 238.84 140.584 240.984 139.496L239.736 136.168C237.464 137.352 235.48 137.768 233.304 137.768ZM232.632 128.008C235.128 128.008 236.728 129.128 237.144 131.016H227.448C228.088 129.064 229.88 128.008 232.632 128.008ZM254.499 128.424C257.027 128.424 258.339 129.992 258.339 132.264V141H262.562V131.752C262.562 127.4 260.067 124.52 255.715 124.52C252.675 124.52 250.307 126.472 249.187 128.552V125H244.963V141H249.187V133.064C249.187 129.896 251.843 128.424 254.499 128.424ZM56.544 165.576C54.656 164.936 51.68 164.392 49.152 164.392C44.608 164.392 41.376 166.376 41.376 169.512C41.376 175.752 53.28 173.64 53.28 176.168C53.28 177.288 51.68 177.928 49.376 177.928C46.912 177.928 44.416 177.16 42.304 176.232L41.056 179.56C43.232 180.712 46.208 181.64 49.216 181.64C53.12 181.64 57.44 179.624 57.44 176.04C57.44 169.8 45.536 172.008 45.536 169.352C45.536 168.392 47.2 168.072 49.312 168.072C51.36 168.072 53.344 168.488 55.424 169.288L56.544 165.576ZM79.3588 181H83.6468L90.6548 165H86.1748L81.5028 175.976L76.8628 165H72.4468L67.8068 176.008L63.1668 165H58.5907L65.5988 181H69.9188L74.6548 170.056L79.3588 181ZM97.1553 165H92.9953V181H97.1553V165ZM92.5473 160.392C92.5473 161.8 93.6673 162.92 95.0753 162.92C96.4833 162.92 97.6033 161.8 97.6033 160.392C97.6033 159.016 96.4833 157.896 95.0753 157.896C93.6673 157.896 92.5473 159.016 92.5473 160.392ZM111.561 168.424C114.089 168.424 115.401 169.992 115.401 172.264V181H119.625V171.752C119.625 167.4 117.129 164.52 112.777 164.52C109.737 164.52 107.369 166.472 106.249 168.552V165H102.025V181H106.249V173.064C106.249 169.896 108.905 168.424 111.561 168.424ZM129.971 178.888C128.915 178.888 128.371 178.504 128.371 177.96C128.371 177.512 128.787 177.192 129.171 177.096C129.907 177.224 130.707 177.288 131.507 177.288C136.339 177.288 139.859 174.536 139.859 170.888C139.859 169.8 139.571 168.84 139.123 168.04C139.891 167.656 140.787 167.432 141.907 167.304L141.139 163.368C139.091 163.72 137.491 164.488 136.275 165.48C134.899 164.808 133.235 164.456 131.507 164.456C127.123 164.456 123.187 166.664 123.187 170.888C123.187 172.616 124.563 174.376 126.035 175.336C125.235 175.848 124.307 176.68 124.307 177.736C124.307 178.76 124.979 179.88 125.843 180.296C124.243 180.712 122.547 182.28 122.547 183.976C122.547 187.336 126.323 189.096 132.147 189.096C137.619 189.096 141.651 187.304 141.651 183.656C141.651 180.328 137.619 178.888 132.147 178.888H129.971ZM131.475 167.944C133.747 167.944 135.475 168.936 135.475 170.76C135.475 172.264 133.907 173.512 131.475 173.512C129.171 173.512 127.443 172.36 127.443 170.76C127.443 168.936 129.171 167.944 131.475 167.944ZM132.083 182.472C135.379 182.472 137.555 182.92 137.555 184.008C137.555 185.192 135.379 185.64 132.083 185.64C128.563 185.64 126.611 185.128 126.611 183.976C126.611 183.336 127.219 182.792 127.923 182.504C128.467 182.472 131.443 182.472 132.083 182.472ZM158.607 165.576C156.719 164.936 153.743 164.392 151.215 164.392C146.671 164.392 143.439 166.376 143.439 169.512C143.439 175.752 155.343 173.64 155.343 176.168C155.343 177.288 153.743 177.928 151.439 177.928C148.975 177.928 146.479 177.16 144.367 176.232L143.118 179.56C145.295 180.712 148.271 181.64 151.279 181.64C155.183 181.64 159.503 179.624 159.503 176.04C159.503 169.8 147.599 172.008 147.599 169.352C147.599 168.392 149.263 168.072 151.375 168.072C153.423 168.072 155.407 168.488 157.487 169.288L158.607 165.576Z" fill="#E6D0FE"></path> </svg> 