<?xml version="1.0" encoding="UTF-8"?> <svg xmlns="http://www.w3.org/2000/svg" width="400" height="600" viewBox="0 0 400 600" fill="none"><rect width="400" height="600" rx="20" fill="#106BD0"></rect><path d="M47.296 84.136L60.8 101H65.952V78.6H61.536V95.464L48.032 78.6H42.88V101H47.296V84.136ZM80.4918 97.768C77.4838 97.768 75.1478 96.456 74.5398 94.12H88.2998C88.4918 93.384 88.5878 92.648 88.5878 91.944C88.5878 87.624 84.9398 84.456 80.0758 84.456C74.7318 84.456 70.1878 87.656 70.1878 93C70.1878 97.8 74.1238 101.576 80.0758 101.576C83.0198 101.576 86.0278 100.584 88.1718 99.496L86.9237 96.168C84.6518 97.352 82.6678 97.768 80.4918 97.768ZM79.8198 88.008C82.3158 88.008 83.9158 89.128 84.3318 91.016H74.6358C75.2758 89.064 77.0677 88.008 79.8198 88.008ZM94.39 85H89.75L97.302 101H101.942L109.526 85H104.822L99.638 96.232L94.39 85ZM121.179 97.768C118.171 97.768 115.835 96.456 115.227 94.12H128.987C129.179 93.384 129.275 92.648 129.275 91.944C129.275 87.624 125.627 84.456 120.763 84.456C115.419 84.456 110.875 87.656 110.875 93C110.875 97.8 114.811 101.576 120.763 101.576C123.707 101.576 126.715 100.584 128.859 99.496L127.611 96.168C125.339 97.352 123.355 97.768 121.179 97.768ZM120.507 88.008C123.003 88.008 124.603 89.128 125.019 91.016H115.323C115.963 89.064 117.755 88.008 120.507 88.008ZM142.982 84.456C140.198 84.456 137.99 86.824 137.062 88.552V85H132.838V101H137.062V93.064C137.062 90.12 139.91 88.392 142.566 88.392C143.174 88.392 144.006 88.584 144.774 88.936L145.67 85.096C144.87 84.712 143.878 84.456 142.982 84.456ZM166.436 88.424C168.964 88.424 170.276 89.992 170.276 92.264V101H174.5V91.752C174.5 87.4 172.004 84.52 167.652 84.52C164.612 84.52 162.244 86.472 161.124 88.552V77.288H156.9V101H161.124V93.064C161.124 89.896 163.78 88.424 166.436 88.424ZM184.75 91.88C181.454 91.88 178.19 93.352 178.19 96.776C178.19 99.656 180.43 101.64 183.438 101.64C186.158 101.64 188.59 100.168 190.126 98.344C190.19 100.136 191.086 101.64 193.23 101.64C194.542 101.64 196.462 101 198.222 100.04L197.358 96.776C196.43 97.256 195.598 97.608 195.118 97.608C194.67 97.608 194.35 97.32 194.35 96.84V91.08C194.35 86.696 191.79 84.36 187.406 84.36C184.878 84.36 181.518 85.352 179.534 85.992L180.59 89.832C182.926 88.968 185.358 88.232 187.022 88.232C189.038 88.232 190.126 89.352 190.126 91.016V92.872C188.75 92.392 186.478 91.88 184.75 91.88ZM184.814 98.024C183.47 98.024 182.51 97.48 182.51 96.424C182.51 95.272 183.566 94.6 184.974 94.6C186.51 94.6 188.366 94.76 190.126 95.08V95.688C188.622 97.16 186.414 98.024 184.814 98.024ZM202.859 85H198.219L205.771 101H210.411L217.995 85H213.291L208.107 96.232L202.859 85ZM229.648 97.768C226.64 97.768 224.304 96.456 223.696 94.12H237.456C237.648 93.384 237.744 92.648 237.744 91.944C237.744 87.624 234.096 84.456 229.232 84.456C223.888 84.456 219.344 87.656 219.344 93C219.344 97.8 223.28 101.576 229.232 101.576C232.176 101.576 235.184 100.584 237.328 99.496L236.08 96.168C233.808 97.352 231.824 97.768 229.648 97.768ZM228.976 88.008C231.472 88.008 233.072 89.128 233.488 91.016H223.792C224.432 89.064 226.224 88.008 228.976 88.008ZM255.265 78.6H250.849V101H255.265V78.6ZM278.867 97.768C275.859 97.768 273.523 96.456 272.915 94.12H286.675C286.867 93.384 286.963 92.648 286.963 91.944C286.963 87.624 283.315 84.456 278.451 84.456C273.107 84.456 268.563 87.656 268.563 93C268.563 97.8 272.499 101.576 278.451 101.576C281.395 101.576 284.403 100.584 286.547 99.496L285.299 96.168C283.027 97.352 281.043 97.768 278.867 97.768ZM278.195 88.008C280.691 88.008 282.291 89.128 282.707 91.016H273.011C273.651 89.064 275.443 88.008 278.195 88.008ZM292.765 85H288.125L295.677 101H300.317L307.901 85H303.197L298.013 96.232L292.765 85ZM319.554 97.768C316.546 97.768 314.21 96.456 313.602 94.12H327.362C327.554 93.384 327.65 92.648 327.65 91.944C327.65 87.624 324.002 84.456 319.138 84.456C313.794 84.456 309.25 87.656 309.25 93C309.25 97.8 313.186 101.576 319.138 101.576C322.082 101.576 325.09 100.584 327.234 99.496L325.986 96.168C323.714 97.352 321.73 97.768 319.554 97.768ZM318.882 88.008C321.378 88.008 322.978 89.128 323.394 91.016H313.698C314.338 89.064 316.13 88.008 318.882 88.008ZM341.357 84.456C338.573 84.456 336.365 86.824 335.437 88.552V85H331.213V101H335.437V93.064C335.437 90.12 338.285 88.392 340.941 88.392C341.549 88.392 342.381 88.584 343.149 88.936L344.045 85.096C343.245 84.712 342.253 84.456 341.357 84.456ZM49.792 120.424C51.168 120.424 52.672 120.872 54.144 121.512L55.168 117.64C53.664 117.128 51.744 116.68 49.92 116.68C45.984 116.68 43.264 119.08 43.264 122.76V125H40.64V128.68H43.296V141H47.456V128.68H54.56V125H47.296V122.952C47.296 121.224 48.256 120.424 49.792 120.424ZM66.1085 124.456C60.7645 124.456 56.1565 127.496 56.1565 132.84C56.1565 137.64 60.3165 141.576 66.1085 141.576C71.9005 141.576 76.0605 137.64 76.0605 132.84C76.0605 127.496 71.4525 124.456 66.1085 124.456ZM66.1085 128.136C69.4365 128.136 71.8045 129.864 71.8045 132.84C71.8045 135.528 69.2765 137.928 66.1085 137.928C62.9405 137.928 60.4125 135.528 60.4125 132.84C60.4125 129.864 62.7805 128.136 66.1085 128.136ZM86.3663 141.512C89.2783 141.512 91.7423 139.752 92.8943 137.48V141H97.1183V125H92.8943V132.744C92.8943 136.136 90.6223 137.608 87.9343 137.608C85.4062 137.608 83.8703 136.328 83.8703 133.736V125H79.6463V134.28C79.6463 138.632 82.0783 141.512 86.3663 141.512ZM107.627 138.888C106.571 138.888 106.027 138.504 106.027 137.96C106.027 137.512 106.443 137.192 106.827 137.096C107.563 137.224 108.363 137.288 109.163 137.288C113.995 137.288 117.515 134.536 117.515 130.888C117.515 129.8 117.227 128.84 116.779 128.04C117.547 127.656 118.443 127.432 119.563 127.304L118.795 123.368C116.747 123.72 115.147 124.488 113.931 125.48C112.555 124.808 110.891 124.456 109.163 124.456C104.779 124.456 100.843 126.664 100.843 130.888C100.843 132.616 102.219 134.376 103.691 135.336C102.891 135.848 101.963 136.68 101.963 137.736C101.963 138.76 102.635 139.88 103.499 140.296C101.899 140.712 100.203 142.28 100.203 143.976C100.203 147.336 103.979 149.096 109.803 149.096C115.275 149.096 119.307 147.304 119.307 143.656C119.307 140.328 115.275 138.888 109.803 138.888H107.627ZM109.131 127.944C111.403 127.944 113.131 128.936 113.131 130.76C113.131 132.264 111.563 133.512 109.131 133.512C106.827 133.512 105.099 132.36 105.099 130.76C105.099 128.936 106.827 127.944 109.131 127.944ZM109.739 142.472C113.035 142.472 115.211 142.92 115.211 144.008C115.211 145.192 113.035 145.64 109.739 145.64C106.219 145.64 104.267 145.128 104.267 143.976C104.267 143.336 104.875 142.792 105.579 142.504C106.123 142.472 109.099 142.472 109.739 142.472ZM131.655 128.424C134.183 128.424 135.495 129.992 135.495 132.264V141H139.719V131.752C139.719 127.4 137.223 124.52 132.871 124.52C129.831 124.52 127.463 126.472 126.343 128.552V117.288H122.119V141H126.343V133.064C126.343 129.896 128.999 128.424 131.655 128.424ZM142.609 128.68H145.649V134.888C145.649 138.92 147.793 141.544 151.761 141.544C153.457 141.544 155.729 140.808 157.073 140.104L156.145 136.488C155.121 137.128 153.713 137.64 152.465 137.64C150.801 137.64 149.873 136.456 149.873 134.728V128.68H156.529V125H149.873V120.2H146.353L145.777 125.128L142.609 125.32V128.68Z" fill="#CDE4FD"></path></svg> 