<?xml version="1.0" encoding="UTF-8"?> <svg xmlns="http://www.w3.org/2000/svg" width="400" height="600" viewBox="0 0 400 600" fill="none"> <rect width="400" height="600" rx="20" fill="#EEBF38"></rect> <path d="M47.296 84.136L60.8 101H65.952V78.6H61.536V95.464L48.032 78.6H42.88V101H47.296V84.136ZM80.4918 97.768C77.4838 97.768 75.1478 96.456 74.5398 94.12H88.2998C88.4918 93.384 88.5878 92.648 88.5878 91.944C88.5878 87.624 84.9398 84.456 80.0758 84.456C74.7318 84.456 70.1878 87.656 70.1878 93C70.1878 97.8 74.1238 101.576 80.0758 101.576C83.0198 101.576 86.0278 100.584 88.1718 99.496L86.9237 96.168C84.6518 97.352 82.6678 97.768 80.4918 97.768ZM79.8198 88.008C82.3158 88.008 83.9158 89.128 84.3318 91.016H74.6358C75.2758 89.064 77.0677 88.008 79.8198 88.008ZM94.39 85H89.75L97.302 101H101.942L109.526 85H104.822L99.638 96.232L94.39 85ZM121.179 97.768C118.171 97.768 115.835 96.456 115.227 94.12H128.987C129.179 93.384 129.275 92.648 129.275 91.944C129.275 87.624 125.627 84.456 120.763 84.456C115.419 84.456 110.875 87.656 110.875 93C110.875 97.8 114.811 101.576 120.763 101.576C123.707 101.576 126.715 100.584 128.859 99.496L127.611 96.168C125.339 97.352 123.355 97.768 121.179 97.768ZM120.507 88.008C123.003 88.008 124.603 89.128 125.019 91.016H115.323C115.963 89.064 117.755 88.008 120.507 88.008ZM142.982 84.456C140.198 84.456 137.99 86.824 137.062 88.552V85H132.838V101H137.062V93.064C137.062 90.12 139.91 88.392 142.566 88.392C143.174 88.392 144.006 88.584 144.774 88.936L145.67 85.096C144.87 84.712 143.878 84.456 142.982 84.456ZM166.436 88.424C168.964 88.424 170.276 89.992 170.276 92.264V101H174.5V91.752C174.5 87.4 172.004 84.52 167.652 84.52C164.612 84.52 162.244 86.472 161.124 88.552V77.288H156.9V101H161.124V93.064C161.124 89.896 163.78 88.424 166.436 88.424ZM184.75 91.88C181.454 91.88 178.19 93.352 178.19 96.776C178.19 99.656 180.43 101.64 183.438 101.64C186.158 101.64 188.59 100.168 190.126 98.344C190.19 100.136 191.086 101.64 193.23 101.64C194.542 101.64 196.462 101 198.222 100.04L197.358 96.776C196.43 97.256 195.598 97.608 195.118 97.608C194.67 97.608 194.35 97.32 194.35 96.84V91.08C194.35 86.696 191.79 84.36 187.406 84.36C184.878 84.36 181.518 85.352 179.534 85.992L180.59 89.832C182.926 88.968 185.358 88.232 187.022 88.232C189.038 88.232 190.126 89.352 190.126 91.016V92.872C188.75 92.392 186.478 91.88 184.75 91.88ZM184.814 98.024C183.47 98.024 182.51 97.48 182.51 96.424C182.51 95.272 183.566 94.6 184.974 94.6C186.51 94.6 188.366 94.76 190.126 95.08V95.688C188.622 97.16 186.414 98.024 184.814 98.024ZM202.859 85H198.219L205.771 101H210.411L217.995 85H213.291L208.107 96.232L202.859 85ZM229.648 97.768C226.64 97.768 224.304 96.456 223.696 94.12H237.456C237.648 93.384 237.744 92.648 237.744 91.944C237.744 87.624 234.096 84.456 229.232 84.456C223.888 84.456 219.344 87.656 219.344 93C219.344 97.8 223.28 101.576 229.232 101.576C232.176 101.576 235.184 100.584 237.328 99.496L236.08 96.168C233.808 97.352 231.824 97.768 229.648 97.768ZM228.976 88.008C231.472 88.008 233.072 89.128 233.488 91.016H223.792C224.432 89.064 226.224 88.008 228.976 88.008ZM255.265 78.6H250.849V101H255.265V78.6ZM278.867 97.768C275.859 97.768 273.523 96.456 272.915 94.12H286.675C286.867 93.384 286.963 92.648 286.963 91.944C286.963 87.624 283.315 84.456 278.451 84.456C273.107 84.456 268.563 87.656 268.563 93C268.563 97.8 272.499 101.576 278.451 101.576C281.395 101.576 284.403 100.584 286.547 99.496L285.299 96.168C283.027 97.352 281.043 97.768 278.867 97.768ZM278.195 88.008C280.691 88.008 282.291 89.128 282.707 91.016H273.011C273.651 89.064 275.443 88.008 278.195 88.008ZM292.765 85H288.125L295.677 101H300.317L307.901 85H303.197L298.013 96.232L292.765 85ZM319.554 97.768C316.546 97.768 314.21 96.456 313.602 94.12H327.362C327.554 93.384 327.65 92.648 327.65 91.944C327.65 87.624 324.002 84.456 319.138 84.456C313.794 84.456 309.25 87.656 309.25 93C309.25 97.8 313.186 101.576 319.138 101.576C322.082 101.576 325.09 100.584 327.234 99.496L325.986 96.168C323.714 97.352 321.73 97.768 319.554 97.768ZM318.882 88.008C321.378 88.008 322.978 89.128 323.394 91.016H313.698C314.338 89.064 316.13 88.008 318.882 88.008ZM341.357 84.456C338.573 84.456 336.365 86.824 335.437 88.552V85H331.213V101H335.437V93.064C335.437 90.12 338.285 88.392 340.941 88.392C341.549 88.392 342.381 88.584 343.149 88.936L344.045 85.096C343.245 84.712 342.253 84.456 341.357 84.456ZM49.408 141.544C52.672 141.544 55.232 139.656 56.288 137.448V141H60.512V117H56.288V125.576C54.688 125.064 52.48 124.424 50.752 124.424C45.376 124.424 41.344 128.36 41.344 133.16C41.344 138.344 45.024 141.544 49.408 141.544ZM50.656 137.608C47.808 137.608 45.6 136.008 45.6 133.128C45.6 130.312 47.808 128.136 50.688 128.136C52.64 128.136 54.432 128.552 56.288 129.096V132.552C56.288 135.624 53.472 137.608 50.656 137.608ZM70.9062 131.88C67.6102 131.88 64.3463 133.352 64.3463 136.776C64.3463 139.656 66.5863 141.64 69.5943 141.64C72.3142 141.64 74.7463 140.168 76.2823 138.344C76.3463 140.136 77.2423 141.64 79.3863 141.64C80.6983 141.64 82.6183 141 84.3783 140.04L83.5143 136.776C82.5863 137.256 81.7543 137.608 81.2743 137.608C80.8263 137.608 80.5063 137.32 80.5063 136.84V131.08C80.5063 126.696 77.9463 124.36 73.5623 124.36C71.0343 124.36 67.6743 125.352 65.6903 125.992L66.7463 129.832C69.0823 128.968 71.5143 128.232 73.1783 128.232C75.1943 128.232 76.2823 129.352 76.2823 131.016V132.872C74.9063 132.392 72.6343 131.88 70.9062 131.88ZM70.9703 138.024C69.6263 138.024 68.6663 137.48 68.6663 136.424C68.6663 135.272 69.7223 134.6 71.1302 134.6C72.6663 134.6 74.5223 134.76 76.2823 135.08V135.688C74.7783 137.16 72.5703 138.024 70.9703 138.024ZM96.311 128.424C98.839 128.424 100.151 129.992 100.151 132.264V141H104.375V131.752C104.375 127.4 101.879 124.52 97.527 124.52C94.487 124.52 92.119 126.472 90.999 128.552V125H86.775V141H90.999V133.064C90.999 129.896 93.655 128.424 96.311 128.424ZM117.857 124.456C112.513 124.456 107.969 127.656 107.969 133C107.969 137.8 111.617 141.576 117.569 141.576C120.577 141.576 123.329 140.648 125.505 139.496L124.257 136.168C122.145 137.096 120.449 137.768 118.113 137.768C114.785 137.768 112.225 135.912 112.225 132.84C112.225 129.928 114.529 128.168 117.601 128.168C119.777 128.168 121.633 128.616 123.841 129.512L124.865 125.736C122.945 125.064 120.513 124.456 117.857 124.456ZM137.961 137.768C134.953 137.768 132.617 136.456 132.009 134.12H145.769C145.961 133.384 146.057 132.648 146.057 131.944C146.057 127.624 142.409 124.456 137.545 124.456C132.201 124.456 127.657 127.656 127.657 133C127.657 137.8 131.593 141.576 137.545 141.576C140.489 141.576 143.497 140.584 145.641 139.496L144.392 136.168C142.121 137.352 140.137 137.768 137.961 137.768ZM137.289 128.008C139.785 128.008 141.385 129.128 141.801 131.016H132.105C132.745 129.064 134.536 128.008 137.289 128.008ZM156.627 141.544C159.891 141.544 162.451 139.656 163.507 137.448V141H167.731V117H163.507V125.576C161.907 125.064 159.699 124.424 157.971 124.424C152.595 124.424 148.563 128.36 148.563 133.16C148.563 138.344 152.243 141.544 156.627 141.544ZM157.875 137.608C155.027 137.608 152.819 136.008 152.819 133.128C152.819 130.312 155.027 128.136 157.907 128.136C159.859 128.136 161.651 128.552 163.507 129.096V132.552C163.507 135.624 160.691 137.608 157.875 137.608ZM190.484 124.456C185.14 124.456 180.532 127.496 180.532 132.84C180.532 137.64 184.692 141.576 190.484 141.576C196.276 141.576 200.436 137.64 200.436 132.84C200.436 127.496 195.828 124.456 190.484 124.456ZM190.484 128.136C193.812 128.136 196.18 129.864 196.18 132.84C196.18 135.528 193.652 137.928 190.484 137.928C187.316 137.928 184.788 135.528 184.788 132.84C184.788 129.864 187.156 128.136 190.484 128.136ZM213.717 128.424C216.245 128.424 217.557 129.992 217.557 132.264V141H221.781V131.752C221.781 127.4 219.285 124.52 214.933 124.52C211.893 124.52 209.525 126.472 208.405 128.552V125H204.181V141H208.405V133.064C208.405 129.896 211.061 128.424 213.717 128.424ZM241.094 131.88C237.798 131.88 234.534 133.352 234.534 136.776C234.534 139.656 236.774 141.64 239.782 141.64C242.502 141.64 244.934 140.168 246.47 138.344C246.534 140.136 247.43 141.64 249.574 141.64C250.886 141.64 252.806 141 254.566 140.04L253.702 136.776C252.774 137.256 251.942 137.608 251.462 137.608C251.014 137.608 250.694 137.32 250.694 136.84V131.08C250.694 126.696 248.134 124.36 243.75 124.36C241.222 124.36 237.862 125.352 235.878 125.992L236.934 129.832C239.27 128.968 241.702 128.232 243.366 128.232C245.382 128.232 246.47 129.352 246.47 131.016V132.872C245.094 132.392 242.822 131.88 241.094 131.88ZM241.158 138.024C239.814 138.024 238.854 137.48 238.854 136.424C238.854 135.272 239.91 134.6 241.318 134.6C242.854 134.6 244.71 134.76 246.47 135.08V135.688C244.966 137.16 242.758 138.024 241.158 138.024ZM277.001 124.456C273.833 124.456 271.305 126.344 270.249 128.552V117H266.025V139.4C268.105 140.328 272.457 141.576 275.657 141.576C280.905 141.576 284.937 137.64 284.937 132.84C284.937 127.656 281.257 124.456 277.001 124.456ZM275.753 128.392C278.537 128.392 280.681 129.96 280.681 132.84C280.681 135.528 278.345 137.864 275.721 137.864C273.769 137.864 272.105 137.544 270.249 136.936V133.064C270.249 130.12 273.065 128.392 275.753 128.392ZM294.281 131.88C290.985 131.88 287.721 133.352 287.721 136.776C287.721 139.656 289.961 141.64 292.969 141.64C295.689 141.64 298.121 140.168 299.657 138.344C299.721 140.136 300.617 141.64 302.761 141.64C304.073 141.64 305.993 141 307.753 140.04L306.889 136.776C305.961 137.256 305.129 137.608 304.649 137.608C304.201 137.608 303.881 137.32 303.881 136.84V131.08C303.881 126.696 301.321 124.36 296.937 124.36C294.409 124.36 291.049 125.352 289.065 125.992L290.121 129.832C292.457 128.968 294.889 128.232 296.553 128.232C298.569 128.232 299.657 129.352 299.657 131.016V132.872C298.281 132.392 296.009 131.88 294.281 131.88ZM294.345 138.024C293.001 138.024 292.041 137.48 292.041 136.424C292.041 135.272 293.097 134.6 294.505 134.6C296.041 134.6 297.897 134.76 299.657 135.08V135.688C298.153 137.16 295.945 138.024 294.345 138.024ZM320.294 124.456C317.51 124.456 315.302 126.824 314.374 128.552V125H310.15V141H314.374V133.064C314.374 130.12 317.222 128.392 319.878 128.392C320.486 128.392 321.318 128.584 322.086 128.936L322.982 125.096C322.182 124.712 321.19 124.456 320.294 124.456ZM51.232 164.456C45.888 164.456 41.344 167.656 41.344 173C41.344 177.8 44.992 181.576 50.944 181.576C53.952 181.576 56.704 180.648 58.88 179.496L57.632 176.168C55.52 177.096 53.824 177.768 51.488 177.768C48.16 177.768 45.6 175.912 45.6 172.84C45.6 169.928 47.904 168.168 50.976 168.168C53.152 168.168 55.008 168.616 57.216 169.512L58.24 165.736C56.32 165.064 53.888 164.456 51.232 164.456ZM70.9835 164.456C65.6395 164.456 61.0315 167.496 61.0315 172.84C61.0315 177.64 65.1915 181.576 70.9835 181.576C76.7755 181.576 80.9355 177.64 80.9355 172.84C80.9355 167.496 76.3275 164.456 70.9835 164.456ZM70.9835 168.136C74.3115 168.136 76.6795 169.864 76.6795 172.84C76.6795 175.528 74.1515 177.928 70.9835 177.928C67.8155 177.928 65.2875 175.528 65.2875 172.84C65.2875 169.864 67.6555 168.136 70.9835 168.136ZM91.2413 181.512C94.1533 181.512 96.6173 179.752 97.7693 177.48V181H101.993V165H97.7693V172.744C97.7693 176.136 95.4973 177.608 92.8093 177.608C90.2812 177.608 88.7453 176.328 88.7453 173.736V165H84.5213V174.28C84.5213 178.632 86.9533 181.512 91.2413 181.512ZM116.342 168.424C118.87 168.424 120.182 169.992 120.182 172.264V181H124.406V171.752C124.406 167.4 121.91 164.52 117.558 164.52C114.518 164.52 112.15 166.472 111.03 168.552V165H106.806V181H111.03V173.064C111.03 169.896 113.686 168.424 116.342 168.424ZM127.296 168.68H130.336V174.888C130.336 178.92 132.48 181.544 136.448 181.544C138.144 181.544 140.416 180.808 141.76 180.104L140.832 176.488C139.808 177.128 138.4 177.64 137.152 177.64C135.488 177.64 134.56 176.456 134.56 174.728V168.68H141.216V165H134.56V160.2H131.04L130.464 165.128L127.296 165.32V168.68ZM154.211 177.768C151.203 177.768 148.867 176.456 148.259 174.12H162.019C162.211 173.384 162.307 172.648 162.307 171.944C162.307 167.624 158.659 164.456 153.795 164.456C148.451 164.456 143.907 167.656 143.907 173C143.907 177.8 147.843 181.576 153.795 181.576C156.739 181.576 159.747 180.584 161.891 179.496L160.642 176.168C158.371 177.352 156.387 177.768 154.211 177.768ZM153.539 168.008C156.035 168.008 157.635 169.128 158.051 171.016H148.355C148.995 169.064 150.786 168.008 153.539 168.008ZM176.013 164.456C173.229 164.456 171.021 166.824 170.093 168.552V165H165.869V181H170.093V173.064C170.093 170.12 172.941 168.392 175.597 168.392C176.205 168.392 177.037 168.584 177.805 168.936L178.701 165.096C177.901 164.712 176.909 164.456 176.013 164.456Z" fill="#FFFAED"></path> </svg> 