<?xml version="1.0" encoding="UTF-8"?> <svg xmlns="http://www.w3.org/2000/svg" width="400" height="600" viewBox="0 0 400 600" fill="none"> <rect width="400" height="600" rx="20" fill="#36BB71"></rect> <path d="M47.296 84.136L60.8 101H65.952V78.6H61.536V95.464L48.032 78.6H42.88V101H47.296V84.136ZM80.4918 97.768C77.4838 97.768 75.1478 96.456 74.5398 94.12H88.2998C88.4918 93.384 88.5878 92.648 88.5878 91.944C88.5878 87.624 84.9398 84.456 80.0758 84.456C74.7318 84.456 70.1878 87.656 70.1878 93C70.1878 97.8 74.1238 101.576 80.0758 101.576C83.0198 101.576 86.0278 100.584 88.1718 99.496L86.9237 96.168C84.6518 97.352 82.6678 97.768 80.4918 97.768ZM79.8198 88.008C82.3158 88.008 83.9158 89.128 84.3318 91.016H74.6358C75.2758 89.064 77.0677 88.008 79.8198 88.008ZM94.39 85H89.75L97.302 101H101.942L109.526 85H104.822L99.638 96.232L94.39 85ZM121.179 97.768C118.171 97.768 115.835 96.456 115.227 94.12H128.987C129.179 93.384 129.275 92.648 129.275 91.944C129.275 87.624 125.627 84.456 120.763 84.456C115.419 84.456 110.875 87.656 110.875 93C110.875 97.8 114.811 101.576 120.763 101.576C123.707 101.576 126.715 100.584 128.859 99.496L127.611 96.168C125.339 97.352 123.355 97.768 121.179 97.768ZM120.507 88.008C123.003 88.008 124.603 89.128 125.019 91.016H115.323C115.963 89.064 117.755 88.008 120.507 88.008ZM142.982 84.456C140.198 84.456 137.99 86.824 137.062 88.552V85H132.838V101H137.062V93.064C137.062 90.12 139.91 88.392 142.566 88.392C143.174 88.392 144.006 88.584 144.774 88.936L145.67 85.096C144.87 84.712 143.878 84.456 142.982 84.456ZM166.436 88.424C168.964 88.424 170.276 89.992 170.276 92.264V101H174.5V91.752C174.5 87.4 172.004 84.52 167.652 84.52C164.612 84.52 162.244 86.472 161.124 88.552V77.288H156.9V101H161.124V93.064C161.124 89.896 163.78 88.424 166.436 88.424ZM184.75 91.88C181.454 91.88 178.19 93.352 178.19 96.776C178.19 99.656 180.43 101.64 183.438 101.64C186.158 101.64 188.59 100.168 190.126 98.344C190.19 100.136 191.086 101.64 193.23 101.64C194.542 101.64 196.462 101 198.222 100.04L197.358 96.776C196.43 97.256 195.598 97.608 195.118 97.608C194.67 97.608 194.35 97.32 194.35 96.84V91.08C194.35 86.696 191.79 84.36 187.406 84.36C184.878 84.36 181.518 85.352 179.534 85.992L180.59 89.832C182.926 88.968 185.358 88.232 187.022 88.232C189.038 88.232 190.126 89.352 190.126 91.016V92.872C188.75 92.392 186.478 91.88 184.75 91.88ZM184.814 98.024C183.47 98.024 182.51 97.48 182.51 96.424C182.51 95.272 183.566 94.6 184.974 94.6C186.51 94.6 188.366 94.76 190.126 95.08V95.688C188.622 97.16 186.414 98.024 184.814 98.024ZM202.859 85H198.219L205.771 101H210.411L217.995 85H213.291L208.107 96.232L202.859 85ZM229.648 97.768C226.64 97.768 224.304 96.456 223.696 94.12H237.456C237.648 93.384 237.744 92.648 237.744 91.944C237.744 87.624 234.096 84.456 229.232 84.456C223.888 84.456 219.344 87.656 219.344 93C219.344 97.8 223.28 101.576 229.232 101.576C232.176 101.576 235.184 100.584 237.328 99.496L236.08 96.168C233.808 97.352 231.824 97.768 229.648 97.768ZM228.976 88.008C231.472 88.008 233.072 89.128 233.488 91.016H223.792C224.432 89.064 226.224 88.008 228.976 88.008ZM255.265 78.6H250.849V101H255.265V78.6ZM278.867 97.768C275.859 97.768 273.523 96.456 272.915 94.12H286.675C286.867 93.384 286.963 92.648 286.963 91.944C286.963 87.624 283.315 84.456 278.451 84.456C273.107 84.456 268.563 87.656 268.563 93C268.563 97.8 272.499 101.576 278.451 101.576C281.395 101.576 284.403 100.584 286.547 99.496L285.299 96.168C283.027 97.352 281.043 97.768 278.867 97.768ZM278.195 88.008C280.691 88.008 282.291 89.128 282.707 91.016H273.011C273.651 89.064 275.443 88.008 278.195 88.008ZM292.765 85H288.125L295.677 101H300.317L307.901 85H303.197L298.013 96.232L292.765 85ZM319.554 97.768C316.546 97.768 314.21 96.456 313.602 94.12H327.362C327.554 93.384 327.65 92.648 327.65 91.944C327.65 87.624 324.002 84.456 319.138 84.456C313.794 84.456 309.25 87.656 309.25 93C309.25 97.8 313.186 101.576 319.138 101.576C322.082 101.576 325.09 100.584 327.234 99.496L325.986 96.168C323.714 97.352 321.73 97.768 319.554 97.768ZM318.882 88.008C321.378 88.008 322.978 89.128 323.394 91.016H313.698C314.338 89.064 316.13 88.008 318.882 88.008ZM341.357 84.456C338.573 84.456 336.365 86.824 335.437 88.552V85H331.213V101H335.437V93.064C335.437 90.12 338.285 88.392 340.941 88.392C341.549 88.392 342.381 88.584 343.149 88.936L344.045 85.096C343.245 84.712 342.253 84.456 341.357 84.456ZM53.376 124.456C50.208 124.456 47.68 126.344 46.624 128.552V117H42.4V139.4C44.48 140.328 48.832 141.576 52.032 141.576C57.28 141.576 61.312 137.64 61.312 132.84C61.312 127.656 57.632 124.456 53.376 124.456ZM52.128 128.392C54.912 128.392 57.056 129.96 57.056 132.84C57.056 135.528 54.72 137.864 52.096 137.864C50.144 137.864 48.48 137.544 46.624 136.936V133.064C46.624 130.12 49.44 128.392 52.128 128.392ZM74.3043 137.768C71.2963 137.768 68.9603 136.456 68.3523 134.12H82.1123C82.3043 133.384 82.4003 132.648 82.4003 131.944C82.4003 127.624 78.7523 124.456 73.8883 124.456C68.5443 124.456 64.0003 127.656 64.0003 133C64.0003 137.8 67.9363 141.576 73.8883 141.576C76.8323 141.576 79.8403 140.584 81.9843 139.496L80.7362 136.168C78.4643 137.352 76.4803 137.768 74.3043 137.768ZM73.6323 128.008C76.1283 128.008 77.7283 129.128 78.1443 131.016H68.4483C69.0883 129.064 70.8802 128.008 73.6323 128.008ZM95.2105 137.768C92.2025 137.768 89.8665 136.456 89.2585 134.12H103.019C103.211 133.384 103.307 132.648 103.307 131.944C103.307 127.624 99.6585 124.456 94.7945 124.456C89.4505 124.456 84.9065 127.656 84.9065 133C84.9065 137.8 88.8425 141.576 94.7945 141.576C97.7385 141.576 100.747 140.584 102.891 139.496L101.642 136.168C99.3705 137.352 97.3865 137.768 95.2105 137.768ZM94.5385 128.008C97.0345 128.008 98.6345 129.128 99.0505 131.016H89.3545C89.9945 129.064 91.7865 128.008 94.5385 128.008ZM116.405 128.424C118.933 128.424 120.245 129.992 120.245 132.264V141H124.469V131.752C124.469 127.4 121.973 124.52 117.621 124.52C114.581 124.52 112.213 126.472 111.093 128.552V125H106.869V141H111.093V133.064C111.093 129.896 113.749 128.424 116.405 128.424ZM148.325 124.456C145.541 124.456 143.333 126.824 142.405 128.552V125H138.181V141H142.405V133.064C142.405 130.12 145.253 128.392 147.909 128.392C148.517 128.392 149.349 128.584 150.117 128.936L151.013 125.096C150.213 124.712 149.221 124.456 148.325 124.456ZM162.077 124.456C156.733 124.456 152.125 127.496 152.125 132.84C152.125 137.64 156.285 141.576 162.077 141.576C167.869 141.576 172.029 137.64 172.029 132.84C172.029 127.496 167.421 124.456 162.077 124.456ZM162.077 128.136C165.405 128.136 167.773 129.864 167.773 132.84C167.773 135.528 165.245 137.928 162.077 137.928C158.909 137.928 156.381 135.528 156.381 132.84C156.381 129.864 158.749 128.136 162.077 128.136ZM186.751 124.456C183.583 124.456 181.055 126.344 179.999 128.552V117H175.775V139.4C177.855 140.328 182.207 141.576 185.407 141.576C190.655 141.576 194.687 137.64 194.687 132.84C194.687 127.656 191.007 124.456 186.751 124.456ZM185.503 128.392C188.287 128.392 190.431 129.96 190.431 132.84C190.431 135.528 188.095 137.864 185.471 137.864C183.519 137.864 181.855 137.544 179.999 136.936V133.064C179.999 130.12 182.815 128.392 185.503 128.392ZM209.407 124.456C206.239 124.456 203.711 126.344 202.655 128.552V117H198.431V139.4C200.511 140.328 204.863 141.576 208.063 141.576C213.311 141.576 217.343 137.64 217.343 132.84C217.343 127.656 213.663 124.456 209.407 124.456ZM208.159 128.392C210.943 128.392 213.087 129.96 213.087 132.84C213.087 135.528 210.751 137.864 208.127 137.864C206.175 137.864 204.511 137.544 202.655 136.936V133.064C202.655 130.12 205.471 128.392 208.159 128.392ZM230.336 137.768C227.328 137.768 224.992 136.456 224.384 134.12H238.144C238.336 133.384 238.432 132.648 238.432 131.944C238.432 127.624 234.784 124.456 229.92 124.456C224.576 124.456 220.032 127.656 220.032 133C220.032 137.8 223.968 141.576 229.92 141.576C232.864 141.576 235.872 140.584 238.016 139.496L236.767 136.168C234.496 137.352 232.512 137.768 230.336 137.768ZM229.664 128.008C232.16 128.008 233.76 129.128 234.176 131.016H224.48C225.12 129.064 226.911 128.008 229.664 128.008ZM249.002 141.544C252.266 141.544 254.826 139.656 255.882 137.448V141H260.106V117H255.882V125.576C254.282 125.064 252.074 124.424 250.346 124.424C244.97 124.424 240.938 128.36 240.938 133.16C240.938 138.344 244.618 141.544 249.002 141.544ZM250.25 137.608C247.402 137.608 245.194 136.008 245.194 133.128C245.194 130.312 247.402 128.136 250.282 128.136C252.234 128.136 254.026 128.552 255.882 129.096V132.552C255.882 135.624 253.066 137.608 250.25 137.608Z" fill="#CDFFE3"></path> <path d="M44.194 220L40.54 207.4H41.872L44.986 218.29L48.262 207.4H49.738L53.014 218.29L56.128 207.4H57.46L53.806 220H52.294L49 209.056L45.706 220H44.194ZM63.1204 210.784C64.2124 210.784 65.0704 211.12 65.6944 211.792C66.3304 212.452 66.6484 213.346 66.6484 214.474V220H65.4604V214.474C65.4604 213.67 65.2444 213.046 64.8124 212.602C64.3924 212.158 63.7924 211.936 63.0124 211.936C62.1484 211.936 61.4464 212.212 60.9064 212.764C60.3664 213.304 60.0964 214.144 60.0964 215.284V220H58.9084V207.4H60.0964V212.404C60.7684 211.324 61.7764 210.784 63.1204 210.784ZM76.6855 211H77.8735V220H76.6855V218.236C75.8575 219.556 74.6455 220.216 73.0495 220.216C71.7655 220.216 70.6675 219.76 69.7555 218.848C68.8555 217.936 68.4055 216.82 68.4055 215.5C68.4055 214.18 68.8555 213.064 69.7555 212.152C70.6675 211.24 71.7655 210.784 73.0495 210.784C74.6455 210.784 75.8575 211.444 76.6855 212.764V211ZM70.6195 218.038C71.3035 218.722 72.1435 219.064 73.1395 219.064C74.1355 219.064 74.9755 218.722 75.6595 218.038C76.3435 217.342 76.6855 216.496 76.6855 215.5C76.6855 214.504 76.3435 213.664 75.6595 212.98C74.9755 212.284 74.1355 211.936 73.1395 211.936C72.1435 211.936 71.3035 212.284 70.6195 212.98C69.9355 213.664 69.5935 214.504 69.5935 215.5C69.5935 216.496 69.9355 217.342 70.6195 218.038ZM85.1589 212.152H82.5669V217.606C82.5669 218.098 82.6629 218.452 82.8549 218.668C83.0469 218.872 83.3349 218.98 83.7189 218.992C84.1029 218.992 84.5829 218.98 85.1589 218.956V220C83.8989 220.192 82.9509 220.102 82.3149 219.73C81.6909 219.358 81.3789 218.65 81.3789 217.606V212.152H79.4889V211H81.3789V208.84L82.5669 208.48V211H85.1589V212.152ZM102.475 211H103.699L100.927 220H99.6309L97.3089 212.746L94.9869 220H93.6909L90.9189 211H92.1429L94.3569 218.47L96.7149 211H97.9029L100.261 218.47L102.475 211ZM112.879 211H114.067V220H112.879V218.236C112.051 219.556 110.839 220.216 109.243 220.216C107.959 220.216 106.861 219.76 105.949 218.848C105.049 217.936 104.599 216.82 104.599 215.5C104.599 214.18 105.049 213.064 105.949 212.152C106.861 211.24 107.959 210.784 109.243 210.784C110.839 210.784 112.051 211.444 112.879 212.764V211ZM106.813 218.038C107.497 218.722 108.337 219.064 109.333 219.064C110.329 219.064 111.169 218.722 111.853 218.038C112.537 217.342 112.879 216.496 112.879 215.5C112.879 214.504 112.537 213.664 111.853 212.98C111.169 212.284 110.329 211.936 109.333 211.936C108.337 211.936 107.497 212.284 106.813 212.98C106.129 213.664 105.787 214.504 105.787 215.5C105.787 216.496 106.129 217.342 106.813 218.038ZM117.518 213.358C117.518 213.766 117.698 214.09 118.058 214.33C118.418 214.57 118.856 214.756 119.372 214.888C119.888 215.02 120.404 215.17 120.92 215.338C121.436 215.494 121.874 215.764 122.234 216.148C122.594 216.52 122.774 217.012 122.774 217.624C122.774 218.392 122.468 219.016 121.856 219.496C121.256 219.976 120.476 220.216 119.516 220.216C118.652 220.216 117.914 220.024 117.302 219.64C116.702 219.256 116.282 218.758 116.042 218.146L117.05 217.552C117.218 218.02 117.518 218.392 117.95 218.668C118.394 218.932 118.916 219.064 119.516 219.064C120.104 219.064 120.596 218.95 120.992 218.722C121.388 218.482 121.586 218.116 121.586 217.624C121.586 217.216 121.406 216.892 121.046 216.652C120.686 216.412 120.248 216.226 119.732 216.094C119.216 215.962 118.7 215.818 118.184 215.662C117.668 215.494 117.23 215.224 116.87 214.852C116.51 214.468 116.33 213.97 116.33 213.358C116.33 212.626 116.618 212.014 117.194 211.522C117.782 211.03 118.52 210.784 119.408 210.784C120.14 210.784 120.782 210.952 121.334 211.288C121.886 211.612 122.294 212.056 122.558 212.62L121.568 213.196C121.22 212.356 120.5 211.936 119.408 211.936C118.892 211.936 118.448 212.062 118.076 212.314C117.704 212.554 117.518 212.902 117.518 213.358ZM130.192 213.358C130.192 213.766 130.372 214.09 130.732 214.33C131.092 214.57 131.53 214.756 132.046 214.888C132.562 215.02 133.078 215.17 133.594 215.338C134.11 215.494 134.548 215.764 134.908 216.148C135.268 216.52 135.448 217.012 135.448 217.624C135.448 218.392 135.142 219.016 134.53 219.496C133.93 219.976 133.15 220.216 132.19 220.216C131.326 220.216 130.588 220.024 129.976 219.64C129.376 219.256 128.956 218.758 128.716 218.146L129.724 217.552C129.892 218.02 130.192 218.392 130.624 218.668C131.068 218.932 131.59 219.064 132.19 219.064C132.778 219.064 133.27 218.95 133.666 218.722C134.062 218.482 134.26 218.116 134.26 217.624C134.26 217.216 134.08 216.892 133.72 216.652C133.36 216.412 132.922 216.226 132.406 216.094C131.89 215.962 131.374 215.818 130.858 215.662C130.342 215.494 129.904 215.224 129.544 214.852C129.184 214.468 129.004 213.97 129.004 213.358C129.004 212.626 129.292 212.014 129.868 211.522C130.456 211.03 131.194 210.784 132.082 210.784C132.814 210.784 133.456 210.952 134.008 211.288C134.56 211.612 134.968 212.056 135.232 212.62L134.242 213.196C133.894 212.356 133.174 211.936 132.082 211.936C131.566 211.936 131.122 212.062 130.75 212.314C130.378 212.554 130.192 212.902 130.192 213.358ZM141.848 212.152H139.256V217.606C139.256 218.098 139.352 218.452 139.544 218.668C139.736 218.872 140.024 218.98 140.408 218.992C140.792 218.992 141.272 218.98 141.848 218.956V220C140.588 220.192 139.64 220.102 139.004 219.73C138.38 219.358 138.068 218.65 138.068 217.606V212.152H136.178V211H138.068V208.84L139.256 208.48V211H141.848V212.152ZM150.825 218.866C149.913 219.766 148.797 220.216 147.477 220.216C146.157 220.216 145.035 219.766 144.111 218.866C143.199 217.954 142.743 216.832 142.743 215.5C142.743 214.168 143.199 213.052 144.111 212.152C145.035 211.24 146.157 210.784 147.477 210.784C148.797 210.784 149.913 211.24 150.825 212.152C151.749 213.052 152.211 214.168 152.211 215.5C152.211 216.832 151.749 217.954 150.825 218.866ZM144.957 218.038C145.641 218.722 146.481 219.064 147.477 219.064C148.473 219.064 149.313 218.722 149.997 218.038C150.681 217.342 151.023 216.496 151.023 215.5C151.023 214.504 150.681 213.664 149.997 212.98C149.313 212.284 148.473 211.936 147.477 211.936C146.481 211.936 145.641 212.284 144.957 212.98C144.273 213.664 143.931 214.504 143.931 215.5C143.931 216.496 144.273 217.342 144.957 218.038ZM154.199 220V206.86H155.387V220H154.199ZM162.066 210.784C163.398 210.784 164.472 211.258 165.288 212.206C166.116 213.142 166.53 214.252 166.53 215.536C166.53 215.668 166.518 215.854 166.494 216.094H158.592C158.712 217.006 159.096 217.732 159.744 218.272C160.404 218.8 161.214 219.064 162.174 219.064C162.858 219.064 163.446 218.926 163.938 218.65C164.442 218.362 164.82 217.99 165.072 217.534L166.116 218.146C165.72 218.782 165.18 219.286 164.496 219.658C163.812 220.03 163.032 220.216 162.156 220.216C160.74 220.216 159.588 219.772 158.7 218.884C157.812 217.996 157.368 216.868 157.368 215.5C157.368 214.156 157.806 213.034 158.682 212.134C159.558 211.234 160.686 210.784 162.066 210.784ZM162.066 211.936C161.13 211.936 160.344 212.218 159.708 212.782C159.084 213.334 158.712 214.054 158.592 214.942H165.306C165.186 213.994 164.82 213.256 164.208 212.728C163.596 212.2 162.882 211.936 162.066 211.936ZM172.632 210.784C173.724 210.784 174.582 211.12 175.206 211.792C175.842 212.452 176.16 213.346 176.16 214.474V220H174.972V214.474C174.972 213.67 174.756 213.046 174.324 212.602C173.904 212.158 173.304 211.936 172.524 211.936C171.66 211.936 170.958 212.212 170.418 212.764C169.878 213.304 169.608 214.144 169.608 215.284V220H168.42V211H169.608V212.404C170.28 211.324 171.288 210.784 172.632 210.784ZM180.257 216.58C180.257 215.992 180.377 215.458 180.617 214.978C180.857 214.486 181.145 214.072 181.481 213.736C181.817 213.4 182.153 213.076 182.489 212.764C182.825 212.452 183.113 212.11 183.353 211.738C183.593 211.354 183.713 210.946 183.713 210.514C183.713 209.818 183.473 209.296 182.993 208.948C182.525 208.588 181.919 208.408 181.175 208.408C179.699 208.408 178.787 209.014 178.439 210.226L177.377 209.632C177.653 208.828 178.133 208.222 178.817 207.814C179.513 207.394 180.299 207.184 181.175 207.184C182.231 207.184 183.125 207.478 183.857 208.066C184.601 208.642 184.973 209.458 184.973 210.514C184.973 211.03 184.853 211.51 184.613 211.954C184.373 212.398 184.085 212.788 183.749 213.124C183.413 213.448 183.077 213.772 182.741 214.096C182.405 214.42 182.117 214.798 181.877 215.23C181.637 215.65 181.517 216.1 181.517 216.58H180.257ZM181.589 219.892C181.397 220.084 181.163 220.18 180.887 220.18C180.611 220.18 180.377 220.084 180.185 219.892C179.993 219.7 179.897 219.466 179.897 219.19C179.897 218.914 179.993 218.68 180.185 218.488C180.377 218.296 180.611 218.2 180.887 218.2C181.163 218.2 181.397 218.296 181.589 218.488C181.781 218.68 181.877 218.914 181.877 219.19C181.877 219.466 181.781 219.7 181.589 219.892Z" fill="#CDFFE3"></path> <path d="M46.3 244.4C48.016 244.4 49.432 245.012 50.548 246.236C51.676 247.448 52.24 248.936 52.24 250.7C52.24 252.464 51.676 253.958 50.548 255.182C49.432 256.394 48.016 257 46.3 257H41.44V244.4H46.3ZM46.3 255.812C47.68 255.812 48.808 255.32 49.684 254.336C50.572 253.352 51.016 252.14 51.016 250.7C51.016 249.26 50.572 248.048 49.684 247.064C48.808 246.08 47.68 245.588 46.3 245.588H42.7V255.812H46.3ZM55.4211 245.84C55.2531 246.008 55.0491 246.092 54.8091 246.092C54.5691 246.092 54.3651 246.008 54.1971 245.84C54.0291 245.672 53.9451 245.468 53.9451 245.228C53.9451 244.988 54.0291 244.784 54.1971 244.616C54.3651 244.448 54.5691 244.364 54.8091 244.364C55.0491 244.364 55.2531 244.448 55.4211 244.616C55.5891 244.784 55.6731 244.988 55.6731 245.228C55.6731 245.468 55.5891 245.672 55.4211 245.84ZM54.2151 257V248H55.4031V257H54.2151ZM65.6641 244.4H66.8521V257H65.6641V255.236C64.8361 256.556 63.6241 257.216 62.0281 257.216C60.7441 257.216 59.6461 256.76 58.7341 255.848C57.8341 254.936 57.3841 253.82 57.3841 252.5C57.3841 251.18 57.8341 250.064 58.7341 249.152C59.6461 248.24 60.7441 247.784 62.0281 247.784C63.6241 247.784 64.8361 248.444 65.6641 249.764V244.4ZM59.5981 255.038C60.2821 255.722 61.1221 256.064 62.1181 256.064C63.1141 256.064 63.9541 255.722 64.6381 255.038C65.3221 254.342 65.6641 253.496 65.6641 252.5C65.6641 251.504 65.3221 250.664 64.6381 249.98C63.9541 249.284 63.1141 248.936 62.1181 248.936C61.1221 248.936 60.2821 249.284 59.5981 249.98C58.9141 250.664 58.5721 251.504 58.5721 252.5C58.5721 253.496 58.9141 254.342 59.5981 255.038ZM80.3474 248H81.6074L77.7554 257.828C77.4074 258.716 76.9094 259.412 76.2614 259.916C75.6254 260.432 74.9114 260.66 74.1194 260.6V259.484C75.1994 259.604 76.0214 258.98 76.5854 257.612L76.8194 257.054L72.7874 248H74.0474L77.4314 255.542L80.3474 248ZM90.2336 255.866C89.3216 256.766 88.2056 257.216 86.8856 257.216C85.5656 257.216 84.4436 256.766 83.5196 255.866C82.6076 254.954 82.1516 253.832 82.1516 252.5C82.1516 251.168 82.6076 250.052 83.5196 249.152C84.4436 248.24 85.5656 247.784 86.8856 247.784C88.2056 247.784 89.3216 248.24 90.2336 249.152C91.1576 250.052 91.6196 251.168 91.6196 252.5C91.6196 253.832 91.1576 254.954 90.2336 255.866ZM84.3656 255.038C85.0496 255.722 85.8896 256.064 86.8856 256.064C87.8816 256.064 88.7216 255.722 89.4056 255.038C90.0896 254.342 90.4316 253.496 90.4316 252.5C90.4316 251.504 90.0896 250.664 89.4056 249.98C88.7216 249.284 87.8816 248.936 86.8856 248.936C85.8896 248.936 85.0496 249.284 84.3656 249.98C83.6816 250.664 83.3396 251.504 83.3396 252.5C83.3396 253.496 83.6816 254.342 84.3656 255.038ZM99.9437 248H101.132V257H99.9437V255.596C99.2717 256.676 98.2637 257.216 96.9197 257.216C95.8277 257.216 94.9637 256.886 94.3277 256.226C93.7037 255.554 93.3917 254.654 93.3917 253.526V248H94.5797V253.526C94.5797 254.33 94.7897 254.954 95.2097 255.398C95.6417 255.842 96.2477 256.064 97.0277 256.064C97.8917 256.064 98.5937 255.794 99.1337 255.254C99.6737 254.702 99.9437 253.856 99.9437 252.716V248ZM115.885 248H117.073V256.64C117.073 257.936 116.629 258.956 115.741 259.7C114.853 260.444 113.791 260.816 112.555 260.816C110.443 260.816 109.021 260.084 108.289 258.62L109.333 258.026C109.873 259.118 110.947 259.664 112.555 259.664C113.587 259.664 114.397 259.388 114.985 258.836C115.585 258.296 115.885 257.564 115.885 256.64V255.236C115.057 256.556 113.845 257.216 112.249 257.216C110.965 257.216 109.867 256.76 108.955 255.848C108.055 254.936 107.605 253.82 107.605 252.5C107.605 251.18 108.055 250.064 108.955 249.152C109.867 248.24 110.965 247.784 112.249 247.784C113.845 247.784 115.057 248.444 115.885 249.764V248ZM109.819 255.038C110.503 255.722 111.343 256.064 112.339 256.064C113.335 256.064 114.175 255.722 114.859 255.038C115.543 254.342 115.885 253.496 115.885 252.5C115.885 251.504 115.543 250.664 114.859 249.98C114.175 249.284 113.335 248.936 112.339 248.936C111.343 248.936 110.503 249.284 109.819 249.98C109.135 250.664 108.793 251.504 108.793 252.5C108.793 253.496 109.135 254.342 109.819 255.038ZM123.746 247.784C125.078 247.784 126.152 248.258 126.968 249.206C127.796 250.142 128.21 251.252 128.21 252.536C128.21 252.668 128.198 252.854 128.174 253.094H120.272C120.392 254.006 120.776 254.732 121.424 255.272C122.084 255.8 122.894 256.064 123.854 256.064C124.538 256.064 125.126 255.926 125.618 255.65C126.122 255.362 126.5 254.99 126.752 254.534L127.796 255.146C127.4 255.782 126.86 256.286 126.176 256.658C125.492 257.03 124.712 257.216 123.836 257.216C122.42 257.216 121.268 256.772 120.38 255.884C119.492 254.996 119.048 253.868 119.048 252.5C119.048 251.156 119.486 250.034 120.362 249.134C121.238 248.234 122.366 247.784 123.746 247.784ZM123.746 248.936C122.81 248.936 122.024 249.218 121.388 249.782C120.764 250.334 120.392 251.054 120.272 251.942H126.986C126.866 250.994 126.5 250.256 125.888 249.728C125.276 249.2 124.562 248.936 123.746 248.936ZM134.606 249.152H132.014V254.606C132.014 255.098 132.11 255.452 132.302 255.668C132.494 255.872 132.782 255.98 133.166 255.992C133.55 255.992 134.03 255.98 134.606 255.956V257C133.346 257.192 132.398 257.102 131.762 256.73C131.138 256.358 130.826 255.65 130.826 254.606V249.152H128.936V248H130.826V245.84L132.014 245.48V248H134.606V249.152ZM142.292 245.84C142.124 246.008 141.92 246.092 141.68 246.092C141.44 246.092 141.236 246.008 141.068 245.84C140.9 245.672 140.816 245.468 140.816 245.228C140.816 244.988 140.9 244.784 141.068 244.616C141.236 244.448 141.44 244.364 141.68 244.364C141.92 244.364 142.124 244.448 142.292 244.616C142.46 244.784 142.544 244.988 142.544 245.228C142.544 245.468 142.46 245.672 142.292 245.84ZM141.086 257V248H142.274V257H141.086ZM149.565 249.152H146.973V254.606C146.973 255.098 147.069 255.452 147.261 255.668C147.453 255.872 147.741 255.98 148.125 255.992C148.509 255.992 148.989 255.98 149.565 255.956V257C148.305 257.192 147.357 257.102 146.721 256.73C146.097 256.358 145.785 255.65 145.785 254.606V249.152H143.895V248H145.785V245.84L146.973 245.48V248H149.565V249.152ZM160.869 247.784C162.153 247.784 163.245 248.24 164.145 249.152C165.057 250.064 165.513 251.18 165.513 252.5C165.513 253.82 165.057 254.936 164.145 255.848C163.245 256.76 162.153 257.216 160.869 257.216C159.273 257.216 158.061 256.556 157.233 255.236V257H156.045V244.4H157.233V249.764C158.061 248.444 159.273 247.784 160.869 247.784ZM158.259 255.038C158.943 255.722 159.783 256.064 160.779 256.064C161.775 256.064 162.615 255.722 163.299 255.038C163.983 254.342 164.325 253.496 164.325 252.5C164.325 251.504 163.983 250.664 163.299 249.98C162.615 249.284 161.775 248.936 160.779 248.936C159.783 248.936 158.943 249.284 158.259 249.98C157.575 250.664 157.233 251.504 157.233 252.5C157.233 253.496 157.575 254.342 158.259 255.038ZM175.229 248H176.417V257H175.229V255.236C174.401 256.556 173.189 257.216 171.593 257.216C170.309 257.216 169.211 256.76 168.299 255.848C167.399 254.936 166.949 253.82 166.949 252.5C166.949 251.18 167.399 250.064 168.299 249.152C169.211 248.24 170.309 247.784 171.593 247.784C173.189 247.784 174.401 248.444 175.229 249.764V248ZM169.163 255.038C169.847 255.722 170.687 256.064 171.683 256.064C172.679 256.064 173.519 255.722 174.203 255.038C174.887 254.342 175.229 253.496 175.229 252.5C175.229 251.504 174.887 250.664 174.203 249.98C173.519 249.284 172.679 248.936 171.683 248.936C170.687 248.936 169.847 249.284 169.163 249.98C168.479 250.664 168.137 251.504 168.137 252.5C168.137 253.496 168.479 254.342 169.163 255.038ZM183.126 257.216C181.77 257.216 180.642 256.766 179.742 255.866C178.842 254.954 178.392 253.832 178.392 252.5C178.392 251.168 178.842 250.052 179.742 249.152C180.642 248.24 181.77 247.784 183.126 247.784C184.014 247.784 184.812 248 185.52 248.432C186.228 248.852 186.744 249.422 187.068 250.142L186.096 250.7C185.856 250.16 185.466 249.734 184.926 249.422C184.398 249.098 183.798 248.936 183.126 248.936C182.13 248.936 181.29 249.284 180.606 249.98C179.922 250.664 179.58 251.504 179.58 252.5C179.58 253.496 179.922 254.342 180.606 255.038C181.29 255.722 182.13 256.064 183.126 256.064C183.798 256.064 184.398 255.908 184.926 255.596C185.454 255.272 185.868 254.84 186.168 254.3L187.158 254.876C186.786 255.596 186.24 256.166 185.52 256.586C184.8 257.006 184.002 257.216 183.126 257.216ZM196.136 257H194.552L190.052 252.662V257H188.864V244.4H190.052V251.978L194.336 248H195.956L191.312 252.32L196.136 257ZM200.278 253.58C200.278 252.992 200.398 252.458 200.638 251.978C200.878 251.486 201.166 251.072 201.502 250.736C201.838 250.4 202.174 250.076 202.51 249.764C202.846 249.452 203.134 249.11 203.374 248.738C203.614 248.354 203.734 247.946 203.734 247.514C203.734 246.818 203.494 246.296 203.014 245.948C202.546 245.588 201.94 245.408 201.196 245.408C199.72 245.408 198.808 246.014 198.46 247.226L197.398 246.632C197.674 245.828 198.154 245.222 198.838 244.814C199.534 244.394 200.32 244.184 201.196 244.184C202.252 244.184 203.146 244.478 203.878 245.066C204.622 245.642 204.994 246.458 204.994 247.514C204.994 248.03 204.874 248.51 204.634 248.954C204.394 249.398 204.106 249.788 203.77 250.124C203.434 250.448 203.098 250.772 202.762 251.096C202.426 251.42 202.138 251.798 201.898 252.23C201.658 252.65 201.538 253.1 201.538 253.58H200.278ZM201.61 256.892C201.418 257.084 201.184 257.18 200.908 257.18C200.632 257.18 200.398 257.084 200.206 256.892C200.014 256.7 199.918 256.466 199.918 256.19C199.918 255.914 200.014 255.68 200.206 255.488C200.398 255.296 200.632 255.2 200.908 255.2C201.184 255.2 201.418 255.296 201.61 255.488C201.802 255.68 201.898 255.914 201.898 256.19C201.898 256.466 201.802 256.7 201.61 256.892ZM216.878 244.4C218.594 244.4 220.01 245.012 221.126 246.236C222.254 247.448 222.818 248.936 222.818 250.7C222.818 252.464 222.254 253.958 221.126 255.182C220.01 256.394 218.594 257 216.878 257H212.018V244.4H216.878ZM216.878 255.812C218.258 255.812 219.386 255.32 220.262 254.336C221.15 253.352 221.594 252.14 221.594 250.7C221.594 249.26 221.15 248.048 220.262 247.064C219.386 246.08 218.258 245.588 216.878 245.588H213.278V255.812H216.878ZM225.999 245.84C225.831 246.008 225.627 246.092 225.387 246.092C225.147 246.092 224.943 246.008 224.775 245.84C224.607 245.672 224.523 245.468 224.523 245.228C224.523 244.988 224.607 244.784 224.775 244.616C224.943 244.448 225.147 244.364 225.387 244.364C225.627 244.364 225.831 244.448 225.999 244.616C226.167 244.784 226.251 244.988 226.251 245.228C226.251 245.468 226.167 245.672 225.999 245.84ZM224.793 257V248H225.981V257H224.793ZM236.242 244.4H237.43V257H236.242V255.236C235.414 256.556 234.202 257.216 232.606 257.216C231.322 257.216 230.224 256.76 229.312 255.848C228.412 254.936 227.962 253.82 227.962 252.5C227.962 251.18 228.412 250.064 229.312 249.152C230.224 248.24 231.322 247.784 232.606 247.784C234.202 247.784 235.414 248.444 236.242 249.764V244.4ZM230.176 255.038C230.86 255.722 231.7 256.064 232.696 256.064C233.692 256.064 234.532 255.722 235.216 255.038C235.9 254.342 236.242 253.496 236.242 252.5C236.242 251.504 235.9 250.664 235.216 249.98C234.532 249.284 233.692 248.936 232.696 248.936C231.7 248.936 230.86 249.284 230.176 249.98C229.492 250.664 229.15 251.504 229.15 252.5C229.15 253.496 229.492 254.342 230.176 255.038ZM249.27 247.784C250.554 247.784 251.646 248.24 252.546 249.152C253.458 250.064 253.914 251.18 253.914 252.5C253.914 253.82 253.458 254.936 252.546 255.848C251.646 256.76 250.554 257.216 249.27 257.216C247.674 257.216 246.462 256.556 245.634 255.236V260.6H244.446V248H245.634V249.764C246.462 248.444 247.674 247.784 249.27 247.784ZM246.66 255.038C247.344 255.722 248.184 256.064 249.18 256.064C250.176 256.064 251.016 255.722 251.7 255.038C252.384 254.342 252.726 253.496 252.726 252.5C252.726 251.504 252.384 250.664 251.7 249.98C251.016 249.284 250.176 248.936 249.18 248.936C248.184 248.936 247.344 249.284 246.66 249.98C245.976 250.664 245.634 251.504 245.634 252.5C245.634 253.496 245.976 254.342 246.66 255.038ZM263.431 255.866C262.519 256.766 261.403 257.216 260.083 257.216C258.763 257.216 257.641 256.766 256.717 255.866C255.805 254.954 255.349 253.832 255.349 252.5C255.349 251.168 255.805 250.052 256.717 249.152C257.641 248.24 258.763 247.784 260.083 247.784C261.403 247.784 262.519 248.24 263.431 249.152C264.355 250.052 264.817 251.168 264.817 252.5C264.817 253.832 264.355 254.954 263.431 255.866ZM257.563 255.038C258.247 255.722 259.087 256.064 260.083 256.064C261.079 256.064 261.919 255.722 262.603 255.038C263.287 254.342 263.629 253.496 263.629 252.5C263.629 251.504 263.287 250.664 262.603 249.98C261.919 249.284 261.079 248.936 260.083 248.936C259.087 248.936 258.247 249.284 257.563 249.98C256.879 250.664 256.537 251.504 256.537 252.5C256.537 253.496 256.879 254.342 257.563 255.038ZM266.805 257V243.86H267.993V257H266.805ZM271.72 245.84C271.552 246.008 271.348 246.092 271.108 246.092C270.868 246.092 270.664 246.008 270.496 245.84C270.328 245.672 270.244 245.468 270.244 245.228C270.244 244.988 270.328 244.784 270.496 244.616C270.664 244.448 270.868 244.364 271.108 244.364C271.348 244.364 271.552 244.448 271.72 244.616C271.888 244.784 271.972 244.988 271.972 245.228C271.972 245.468 271.888 245.672 271.72 245.84ZM270.514 257V248H271.702V257H270.514ZM278.417 257.216C277.061 257.216 275.933 256.766 275.033 255.866C274.133 254.954 273.683 253.832 273.683 252.5C273.683 251.168 274.133 250.052 275.033 249.152C275.933 248.24 277.061 247.784 278.417 247.784C279.305 247.784 280.103 248 280.811 248.432C281.519 248.852 282.035 249.422 282.359 250.142L281.387 250.7C281.147 250.16 280.757 249.734 280.217 249.422C279.689 249.098 279.089 248.936 278.417 248.936C277.421 248.936 276.581 249.284 275.897 249.98C275.213 250.664 274.871 251.504 274.871 252.5C274.871 253.496 275.213 254.342 275.897 255.038C276.581 255.722 277.421 256.064 278.417 256.064C279.089 256.064 279.689 255.908 280.217 255.596C280.745 255.272 281.159 254.84 281.459 254.3L282.449 254.876C282.077 255.596 281.531 256.166 280.811 256.586C280.091 257.006 279.293 257.216 278.417 257.216ZM288.225 247.784C289.557 247.784 290.631 248.258 291.447 249.206C292.275 250.142 292.689 251.252 292.689 252.536C292.689 252.668 292.677 252.854 292.653 253.094H284.751C284.871 254.006 285.255 254.732 285.903 255.272C286.563 255.8 287.373 256.064 288.333 256.064C289.017 256.064 289.605 255.926 290.097 255.65C290.601 255.362 290.979 254.99 291.231 254.534L292.275 255.146C291.879 255.782 291.339 256.286 290.655 256.658C289.971 257.03 289.191 257.216 288.315 257.216C286.899 257.216 285.747 256.772 284.859 255.884C283.971 254.996 283.527 253.868 283.527 252.5C283.527 251.156 283.965 250.034 284.841 249.134C285.717 248.234 286.845 247.784 288.225 247.784ZM288.225 248.936C287.289 248.936 286.503 249.218 285.867 249.782C285.243 250.334 284.871 251.054 284.751 251.942H291.465C291.345 250.994 290.979 250.256 290.367 249.728C289.755 249.2 289.041 248.936 288.225 248.936ZM303.29 247.784C304.382 247.784 305.24 248.12 305.864 248.792C306.5 249.452 306.818 250.346 306.818 251.474V257H305.63V251.474C305.63 250.67 305.414 250.046 304.982 249.602C304.562 249.158 303.962 248.936 303.182 248.936C302.318 248.936 301.616 249.212 301.076 249.764C300.536 250.304 300.266 251.144 300.266 252.284V257H299.078V244.4H300.266V249.404C300.938 248.324 301.946 247.784 303.29 247.784ZM313.273 247.784C314.605 247.784 315.679 248.258 316.495 249.206C317.323 250.142 317.737 251.252 317.737 252.536C317.737 252.668 317.725 252.854 317.701 253.094H309.799C309.919 254.006 310.303 254.732 310.951 255.272C311.611 255.8 312.421 256.064 313.381 256.064C314.065 256.064 314.653 255.926 315.145 255.65C315.649 255.362 316.027 254.99 316.279 254.534L317.323 255.146C316.927 255.782 316.387 256.286 315.703 256.658C315.019 257.03 314.239 257.216 313.363 257.216C311.947 257.216 310.795 256.772 309.907 255.884C309.019 254.996 308.575 253.868 308.575 252.5C308.575 251.156 309.013 250.034 309.889 249.134C310.765 248.234 311.893 247.784 313.273 247.784ZM313.273 248.936C312.337 248.936 311.551 249.218 310.915 249.782C310.291 250.334 309.919 251.054 309.799 251.942H316.513C316.393 250.994 316.027 250.256 315.415 249.728C314.803 249.2 314.089 248.936 313.273 248.936ZM319.627 257V243.86H320.815V257H319.627ZM328.16 247.784C329.444 247.784 330.536 248.24 331.436 249.152C332.348 250.064 332.804 251.18 332.804 252.5C332.804 253.82 332.348 254.936 331.436 255.848C330.536 256.76 329.444 257.216 328.16 257.216C326.564 257.216 325.352 256.556 324.524 255.236V260.6H323.336V248H324.524V249.764C325.352 248.444 326.564 247.784 328.16 247.784ZM325.55 255.038C326.234 255.722 327.074 256.064 328.07 256.064C329.066 256.064 329.906 255.722 330.59 255.038C331.274 254.342 331.616 253.496 331.616 252.5C331.616 251.504 331.274 250.664 330.59 249.98C329.906 249.284 329.066 248.936 328.07 248.936C327.074 248.936 326.234 249.284 325.55 249.98C324.866 250.664 324.524 251.504 324.524 252.5C324.524 253.496 324.866 254.342 325.55 255.038ZM336.034 253.58C336.034 252.992 336.154 252.458 336.394 251.978C336.634 251.486 336.922 251.072 337.258 250.736C337.594 250.4 337.93 250.076 338.266 249.764C338.602 249.452 338.89 249.11 339.13 248.738C339.37 248.354 339.49 247.946 339.49 247.514C339.49 246.818 339.25 246.296 338.77 245.948C338.302 245.588 337.696 245.408 336.952 245.408C335.476 245.408 334.564 246.014 334.216 247.226L333.154 246.632C333.43 245.828 333.91 245.222 334.594 244.814C335.29 244.394 336.076 244.184 336.952 244.184C338.008 244.184 338.902 244.478 339.634 245.066C340.378 245.642 340.75 246.458 340.75 247.514C340.75 248.03 340.63 248.51 340.39 248.954C340.15 249.398 339.862 249.788 339.526 250.124C339.19 250.448 338.854 250.772 338.518 251.096C338.182 251.42 337.894 251.798 337.654 252.23C337.414 252.65 337.294 253.1 337.294 253.58H336.034ZM337.366 256.892C337.174 257.084 336.94 257.18 336.664 257.18C336.388 257.18 336.154 257.084 335.962 256.892C335.77 256.7 335.674 256.466 335.674 256.19C335.674 255.914 335.77 255.68 335.962 255.488C336.154 255.296 336.388 255.2 336.664 255.2C336.94 255.2 337.174 255.296 337.366 255.488C337.558 255.68 337.654 255.914 337.654 256.19C337.654 256.466 337.558 256.7 337.366 256.892Z" fill="#CDFFE3"></path> </svg> 