<?xml version="1.0" encoding="UTF-8"?> <svg xmlns="http://www.w3.org/2000/svg" width="400" height="600" viewBox="0 0 400 600" fill="none"> <rect width="400" height="600" rx="20" fill="#106BD0"></rect> <path d="M47.296 84.136L60.8 101H65.952V78.6H61.536V95.464L48.032 78.6H42.88V101H47.296V84.136ZM80.4918 97.768C77.4838 97.768 75.1478 96.456 74.5398 94.12H88.2998C88.4918 93.384 88.5878 92.648 88.5878 91.944C88.5878 87.624 84.9398 84.456 80.0758 84.456C74.7318 84.456 70.1878 87.656 70.1878 93C70.1878 97.8 74.1238 101.576 80.0758 101.576C83.0198 101.576 86.0278 100.584 88.1718 99.496L86.9237 96.168C84.6518 97.352 82.6678 97.768 80.4918 97.768ZM79.8198 88.008C82.3158 88.008 83.9158 89.128 84.3318 91.016H74.6358C75.2758 89.064 77.0677 88.008 79.8198 88.008ZM94.39 85H89.75L97.302 101H101.942L109.526 85H104.822L99.638 96.232L94.39 85ZM121.179 97.768C118.171 97.768 115.835 96.456 115.227 94.12H128.987C129.179 93.384 129.275 92.648 129.275 91.944C129.275 87.624 125.627 84.456 120.763 84.456C115.419 84.456 110.875 87.656 110.875 93C110.875 97.8 114.811 101.576 120.763 101.576C123.707 101.576 126.715 100.584 128.859 99.496L127.611 96.168C125.339 97.352 123.355 97.768 121.179 97.768ZM120.507 88.008C123.003 88.008 124.603 89.128 125.019 91.016H115.323C115.963 89.064 117.755 88.008 120.507 88.008ZM142.982 84.456C140.198 84.456 137.99 86.824 137.062 88.552V85H132.838V101H137.062V93.064C137.062 90.12 139.91 88.392 142.566 88.392C143.174 88.392 144.006 88.584 144.774 88.936L145.67 85.096C144.87 84.712 143.878 84.456 142.982 84.456ZM166.436 88.424C168.964 88.424 170.276 89.992 170.276 92.264V101H174.5V91.752C174.5 87.4 172.004 84.52 167.652 84.52C164.612 84.52 162.244 86.472 161.124 88.552V77.288H156.9V101H161.124V93.064C161.124 89.896 163.78 88.424 166.436 88.424ZM184.75 91.88C181.454 91.88 178.19 93.352 178.19 96.776C178.19 99.656 180.43 101.64 183.438 101.64C186.158 101.64 188.59 100.168 190.126 98.344C190.19 100.136 191.086 101.64 193.23 101.64C194.542 101.64 196.462 101 198.222 100.04L197.358 96.776C196.43 97.256 195.598 97.608 195.118 97.608C194.67 97.608 194.35 97.32 194.35 96.84V91.08C194.35 86.696 191.79 84.36 187.406 84.36C184.878 84.36 181.518 85.352 179.534 85.992L180.59 89.832C182.926 88.968 185.358 88.232 187.022 88.232C189.038 88.232 190.126 89.352 190.126 91.016V92.872C188.75 92.392 186.478 91.88 184.75 91.88ZM184.814 98.024C183.47 98.024 182.51 97.48 182.51 96.424C182.51 95.272 183.566 94.6 184.974 94.6C186.51 94.6 188.366 94.76 190.126 95.08V95.688C188.622 97.16 186.414 98.024 184.814 98.024ZM202.859 85H198.219L205.771 101H210.411L217.995 85H213.291L208.107 96.232L202.859 85ZM229.648 97.768C226.64 97.768 224.304 96.456 223.696 94.12H237.456C237.648 93.384 237.744 92.648 237.744 91.944C237.744 87.624 234.096 84.456 229.232 84.456C223.888 84.456 219.344 87.656 219.344 93C219.344 97.8 223.28 101.576 229.232 101.576C232.176 101.576 235.184 100.584 237.328 99.496L236.08 96.168C233.808 97.352 231.824 97.768 229.648 97.768ZM228.976 88.008C231.472 88.008 233.072 89.128 233.488 91.016H223.792C224.432 89.064 226.224 88.008 228.976 88.008ZM255.265 78.6H250.849V101H255.265V78.6ZM278.867 97.768C275.859 97.768 273.523 96.456 272.915 94.12H286.675C286.867 93.384 286.963 92.648 286.963 91.944C286.963 87.624 283.315 84.456 278.451 84.456C273.107 84.456 268.563 87.656 268.563 93C268.563 97.8 272.499 101.576 278.451 101.576C281.395 101.576 284.403 100.584 286.547 99.496L285.299 96.168C283.027 97.352 281.043 97.768 278.867 97.768ZM278.195 88.008C280.691 88.008 282.291 89.128 282.707 91.016H273.011C273.651 89.064 275.443 88.008 278.195 88.008ZM292.765 85H288.125L295.677 101H300.317L307.901 85H303.197L298.013 96.232L292.765 85ZM319.554 97.768C316.546 97.768 314.21 96.456 313.602 94.12H327.362C327.554 93.384 327.65 92.648 327.65 91.944C327.65 87.624 324.002 84.456 319.138 84.456C313.794 84.456 309.25 87.656 309.25 93C309.25 97.8 313.186 101.576 319.138 101.576C322.082 101.576 325.09 100.584 327.234 99.496L325.986 96.168C323.714 97.352 321.73 97.768 319.554 97.768ZM318.882 88.008C321.378 88.008 322.978 89.128 323.394 91.016H313.698C314.338 89.064 316.13 88.008 318.882 88.008ZM341.357 84.456C338.573 84.456 336.365 86.824 335.437 88.552V85H331.213V101H335.437V93.064C335.437 90.12 338.285 88.392 340.941 88.392C341.549 88.392 342.381 88.584 343.149 88.936L344.045 85.096C343.245 84.712 342.253 84.456 341.357 84.456ZM52.64 124.52C49.856 124.52 47.68 126.504 46.624 128.392V125H42.4V141H46.624V133.032C46.624 129.96 48.992 128.424 51.2 128.424C53.536 128.424 54.784 129.992 54.784 132.104V141H59.008V133.032C59.008 129.992 61.376 128.424 63.584 128.424C65.92 128.424 67.168 129.992 67.168 132.104V141H71.392V131.592C71.392 127.368 69.184 124.52 65.024 124.52C62.336 124.52 59.776 126.504 58.496 128.424C57.6 126.024 55.648 124.52 52.64 124.52ZM80.249 125H76.089V141H80.249V125ZM75.641 120.392C75.641 121.8 76.761 122.92 78.169 122.92C79.577 122.92 80.697 121.8 80.697 120.392C80.697 119.016 79.577 117.896 78.169 117.896C76.761 117.896 75.641 119.016 75.641 120.392ZM99.2628 125.576C97.3748 124.936 94.3988 124.392 91.8708 124.392C87.3268 124.392 84.0948 126.376 84.0948 129.512C84.0948 135.752 95.9988 133.64 95.9988 136.168C95.9988 137.288 94.3988 137.928 92.0948 137.928C89.6308 137.928 87.1348 137.16 85.0228 136.232L83.7747 139.56C85.9508 140.712 88.9268 141.64 91.9348 141.64C95.8388 141.64 100.159 139.624 100.159 136.04C100.159 129.8 88.2548 132.008 88.2548 129.352C88.2548 128.392 89.9188 128.072 92.0308 128.072C94.0788 128.072 96.0628 128.488 98.1428 129.288L99.2628 125.576ZM117.982 125.576C116.094 124.936 113.118 124.392 110.59 124.392C106.046 124.392 102.814 126.376 102.814 129.512C102.814 135.752 114.718 133.64 114.718 136.168C114.718 137.288 113.118 137.928 110.814 137.928C108.35 137.928 105.854 137.16 103.742 136.232L102.493 139.56C104.67 140.712 107.646 141.64 110.654 141.64C114.558 141.64 118.878 139.624 118.878 136.04C118.878 129.8 106.974 132.008 106.974 129.352C106.974 128.392 108.638 128.072 110.75 128.072C112.798 128.072 114.782 128.488 116.862 129.288L117.982 125.576ZM131.804 137.768C128.796 137.768 126.46 136.456 125.852 134.12H139.612C139.804 133.384 139.9 132.648 139.9 131.944C139.9 127.624 136.252 124.456 131.388 124.456C126.044 124.456 121.5 127.656 121.5 133C121.5 137.8 125.436 141.576 131.388 141.576C134.332 141.576 137.34 140.584 139.484 139.496L138.236 136.168C135.964 137.352 133.98 137.768 131.804 137.768ZM131.132 128.008C133.628 128.008 135.228 129.128 135.644 131.016H125.948C126.588 129.064 128.38 128.008 131.132 128.008ZM150.47 141.544C153.735 141.544 156.295 139.656 157.351 137.448V141H161.575V117H157.351V125.576C155.751 125.064 153.543 124.424 151.815 124.424C146.439 124.424 142.407 128.36 142.407 133.16C142.407 138.344 146.087 141.544 150.47 141.544ZM151.719 137.608C148.871 137.608 146.663 136.008 146.663 133.128C146.663 130.312 148.871 128.136 151.751 128.136C153.703 128.136 155.495 128.552 157.351 129.096V132.552C157.351 135.624 154.535 137.608 151.719 137.608ZM173.671 128.68H176.711V134.888C176.711 138.92 178.855 141.544 182.823 141.544C184.519 141.544 186.791 140.808 188.135 140.104L187.207 136.488C186.183 137.128 184.775 137.64 183.527 137.64C181.863 137.64 180.935 136.456 180.935 134.728V128.68H187.591V125H180.935V120.2H177.415L176.839 125.128L173.671 125.32V128.68ZM200.874 128.424C203.402 128.424 204.714 129.992 204.714 132.264V141H208.938V131.752C208.938 127.4 206.442 124.52 202.09 124.52C199.05 124.52 196.682 126.472 195.562 128.552V117.288H191.338V141H195.562V133.064C195.562 129.896 198.218 128.424 200.874 128.424ZM222.836 137.768C219.828 137.768 217.492 136.456 216.884 134.12H230.644C230.836 133.384 230.932 132.648 230.932 131.944C230.932 127.624 227.284 124.456 222.42 124.456C217.076 124.456 212.532 127.656 212.532 133C212.532 137.8 216.468 141.576 222.42 141.576C225.364 141.576 228.372 140.584 230.516 139.496L229.267 136.168C226.996 137.352 225.012 137.768 222.836 137.768ZM222.164 128.008C224.66 128.008 226.26 129.128 226.676 131.016H216.98C217.62 129.064 219.411 128.008 222.164 128.008ZM241.796 128.68H244.836V134.888C244.836 138.92 246.98 141.544 250.948 141.544C252.644 141.544 254.916 140.808 256.26 140.104L255.332 136.488C254.308 137.128 252.9 137.64 251.652 137.64C249.988 137.64 249.06 136.456 249.06 134.728V128.68H255.716V125H249.06V120.2H245.54L244.964 125.128L241.796 125.32V128.68ZM269.607 124.456C266.823 124.456 264.615 126.824 263.687 128.552V125H259.463V141H263.687V133.064C263.687 130.12 266.535 128.392 269.191 128.392C269.799 128.392 270.631 128.584 271.399 128.936L272.295 125.096C271.495 124.712 270.503 124.456 269.607 124.456ZM280.062 131.88C276.766 131.88 273.503 133.352 273.503 136.776C273.503 139.656 275.743 141.64 278.751 141.64C281.47 141.64 283.903 140.168 285.439 138.344C285.503 140.136 286.399 141.64 288.543 141.64C289.855 141.64 291.775 141 293.535 140.04L292.671 136.776C291.743 137.256 290.911 137.608 290.431 137.608C289.983 137.608 289.663 137.32 289.663 136.84V131.08C289.663 126.696 287.103 124.36 282.719 124.36C280.191 124.36 276.831 125.352 274.847 125.992L275.903 129.832C278.239 128.968 280.671 128.232 282.335 128.232C284.351 128.232 285.439 129.352 285.439 131.016V132.872C284.063 132.392 281.791 131.88 280.062 131.88ZM280.127 138.024C278.783 138.024 277.823 137.48 277.823 136.424C277.823 135.272 278.879 134.6 280.286 134.6C281.823 134.6 283.679 134.76 285.439 135.08V135.688C283.935 137.16 281.727 138.024 280.127 138.024ZM300.155 125H295.995V141H300.155V125ZM295.547 120.392C295.547 121.8 296.667 122.92 298.075 122.92C299.483 122.92 300.603 121.8 300.603 120.392C300.603 119.016 299.483 117.896 298.075 117.896C296.667 117.896 295.547 119.016 295.547 120.392ZM314.561 128.424C317.089 128.424 318.401 129.992 318.401 132.264V141H322.625V131.752C322.625 127.4 320.129 124.52 315.777 124.52C312.737 124.52 310.369 126.472 309.249 128.552V125H305.025V141H309.249V133.064C309.249 129.896 311.905 128.424 314.561 128.424ZM51.296 164.456C45.952 164.456 41.344 167.496 41.344 172.84C41.344 177.64 45.504 181.576 51.296 181.576C57.088 181.576 61.248 177.64 61.248 172.84C61.248 167.496 56.64 164.456 51.296 164.456ZM51.296 168.136C54.624 168.136 56.992 169.864 56.992 172.84C56.992 175.528 54.464 177.928 51.296 177.928C48.128 177.928 45.6 175.528 45.6 172.84C45.6 169.864 47.968 168.136 51.296 168.136ZM75.1378 164.456C72.3538 164.456 70.1458 166.824 69.2178 168.552V165H64.9938V181H69.2178V173.064C69.2178 170.12 72.0658 168.392 74.7218 168.392C75.3298 168.392 76.1618 168.584 76.9298 168.936L77.8258 165.096C77.0258 164.712 76.0338 164.456 75.1378 164.456ZM96.4483 160.424C97.8243 160.424 99.3283 160.872 100.8 161.512L101.824 157.64C100.32 157.128 98.4003 156.68 96.5763 156.68C92.6403 156.68 89.9203 159.08 89.9203 162.76V165H87.2963V168.68H89.9523V181H94.1123V168.68H101.216V165H93.9523V162.952C93.9523 161.224 94.9123 160.424 96.4483 160.424ZM108.061 181V157H103.869V181H108.061ZM117.093 165H112.933V181H117.093V165ZM112.485 160.392C112.485 161.8 113.605 162.92 115.013 162.92C116.421 162.92 117.541 161.8 117.541 160.392C117.541 159.016 116.421 157.896 115.013 157.896C113.605 157.896 112.485 159.016 112.485 160.392ZM127.659 178.888C126.603 178.888 126.059 178.504 126.059 177.96C126.059 177.512 126.475 177.192 126.859 177.096C127.595 177.224 128.395 177.288 129.195 177.288C134.027 177.288 137.547 174.536 137.547 170.888C137.547 169.8 137.259 168.84 136.811 168.04C137.579 167.656 138.475 167.432 139.595 167.304L138.827 163.368C136.779 163.72 135.179 164.488 133.963 165.48C132.587 164.808 130.923 164.456 129.195 164.456C124.811 164.456 120.875 166.664 120.875 170.888C120.875 172.616 122.251 174.376 123.723 175.336C122.923 175.848 121.995 176.68 121.995 177.736C121.995 178.76 122.667 179.88 123.531 180.296C121.931 180.712 120.235 182.28 120.235 183.976C120.235 187.336 124.011 189.096 129.835 189.096C135.307 189.096 139.339 187.304 139.339 183.656C139.339 180.328 135.307 178.888 129.835 178.888H127.659ZM129.163 167.944C131.435 167.944 133.163 168.936 133.163 170.76C133.163 172.264 131.595 173.512 129.163 173.512C126.859 173.512 125.131 172.36 125.131 170.76C125.131 168.936 126.859 167.944 129.163 167.944ZM129.771 182.472C133.067 182.472 135.243 182.92 135.243 184.008C135.243 185.192 133.067 185.64 129.771 185.64C126.251 185.64 124.299 185.128 124.299 183.976C124.299 183.336 124.907 182.792 125.611 182.504C126.155 182.472 129.131 182.472 129.771 182.472ZM151.686 168.424C154.214 168.424 155.526 169.992 155.526 172.264V181H159.75V171.752C159.75 167.4 157.254 164.52 152.902 164.52C149.862 164.52 147.494 166.472 146.374 168.552V157.288H142.15V181H146.374V173.064C146.374 169.896 149.03 168.424 151.686 168.424ZM162.64 168.68H165.68V174.888C165.68 178.92 167.824 181.544 171.792 181.544C173.488 181.544 175.76 180.808 177.104 180.104L176.176 176.488C175.152 177.128 173.744 177.64 172.496 177.64C170.832 177.64 169.904 176.456 169.904 174.728V168.68H176.56V165H169.904V160.2H166.384L165.808 165.128L162.64 165.32V168.68Z" fill="#CDE4FD"></path> </svg> 