<?xml version="1.0" encoding="UTF-8"?> <svg xmlns="http://www.w3.org/2000/svg" width="400" height="600" viewBox="0 0 400 600" fill="none"><rect width="400" height="600" rx="20" fill="#106BD0"></rect><path d="M47.296 84.136V101H42.88V78.6H48.032L61.536 95.464V78.6H65.952V101H60.8L47.296 84.136ZM80.4918 97.768C82.7318 97.768 84.8758 97.2347 86.9237 96.168L88.1718 99.496C85.4411 100.883 82.7424 101.576 80.0758 101.576C77.1531 101.576 74.7744 100.765 72.9398 99.144C71.1051 97.5013 70.1878 95.4533 70.1878 93C70.1878 90.4187 71.1371 88.3493 73.0358 86.792C74.9558 85.2347 77.3024 84.456 80.0758 84.456C82.5078 84.456 84.5344 85.1707 86.1558 86.6C87.7771 88.008 88.5878 89.7893 88.5878 91.944C88.5878 92.648 88.4918 93.3733 88.2998 94.12H74.5398C74.8384 95.272 75.5211 96.168 76.5878 96.808C77.6544 97.448 78.9558 97.768 80.4918 97.768ZM79.8198 88.008C77.0251 88.008 75.2971 89.0107 74.6358 91.016H84.3318C84.1184 90.056 83.6171 89.32 82.8278 88.808C82.0598 88.2747 81.0571 88.008 79.8198 88.008ZM94.39 85L99.638 96.232L104.822 85H109.526L101.942 101H97.302L89.75 85H94.39ZM121.179 97.768C123.419 97.768 125.563 97.2347 127.611 96.168L128.859 99.496C126.129 100.883 123.43 101.576 120.763 101.576C117.841 101.576 115.462 100.765 113.627 99.144C111.793 97.5013 110.875 95.4533 110.875 93C110.875 90.4187 111.825 88.3493 113.723 86.792C115.643 85.2347 117.99 84.456 120.763 84.456C123.195 84.456 125.222 85.1707 126.843 86.6C128.465 88.008 129.275 89.7893 129.275 91.944C129.275 92.648 129.179 93.3733 128.987 94.12H115.227C115.526 95.272 116.209 96.168 117.275 96.808C118.342 97.448 119.643 97.768 121.179 97.768ZM120.507 88.008C117.713 88.008 115.985 89.0107 115.323 91.016H125.019C124.806 90.056 124.305 89.32 123.515 88.808C122.747 88.2747 121.745 88.008 120.507 88.008ZM142.982 84.456C143.878 84.456 144.774 84.6693 145.67 85.096L144.774 88.936C143.984 88.5733 143.248 88.392 142.566 88.392C141.136 88.392 139.856 88.8293 138.726 89.704C137.616 90.5573 137.062 91.6773 137.062 93.064V101H132.838V85H137.062V88.552C137.616 87.5067 138.427 86.568 139.494 85.736C140.56 84.8827 141.723 84.456 142.982 84.456ZM166.436 88.424C164.985 88.424 163.737 88.8293 162.692 89.64C161.647 90.4293 161.124 91.5707 161.124 93.064V101H156.9V77.288H161.124V88.552C161.743 87.4213 162.628 86.472 163.78 85.704C164.932 84.9147 166.223 84.52 167.652 84.52C169.807 84.52 171.481 85.1813 172.676 86.504C173.892 87.8053 174.5 89.5547 174.5 91.752V101H170.276V92.264C170.276 91.0907 169.945 90.1627 169.284 89.48C168.623 88.776 167.673 88.424 166.436 88.424ZM184.75 91.88C186.435 91.88 188.227 92.2107 190.126 92.872V91.016C190.126 90.1627 189.849 89.4907 189.294 89C188.761 88.488 188.003 88.232 187.022 88.232C185.614 88.232 183.47 88.7653 180.59 89.832L179.534 85.992C182.905 84.904 185.529 84.36 187.406 84.36C189.625 84.36 191.331 84.936 192.526 86.088C193.742 87.24 194.35 88.904 194.35 91.08V96.84C194.35 97.352 194.606 97.608 195.118 97.608C195.545 97.608 196.291 97.3307 197.358 96.776L198.222 100.04C196.259 101.107 194.595 101.64 193.23 101.64C192.227 101.64 191.47 101.341 190.958 100.744C190.446 100.125 190.169 99.3253 190.126 98.344C189.315 99.3253 188.323 100.125 187.15 100.744C185.977 101.341 184.739 101.64 183.438 101.64C181.923 101.64 180.665 101.192 179.662 100.296C178.681 99.3787 178.19 98.2053 178.19 96.776C178.19 95.176 178.83 93.96 180.11 93.128C181.39 92.296 182.937 91.88 184.75 91.88ZM184.814 98.024C185.646 98.024 186.553 97.8107 187.534 97.384C188.537 96.9573 189.401 96.392 190.126 95.688V95.08C188.377 94.76 186.659 94.6 184.974 94.6C184.249 94.6 183.651 94.7707 183.182 95.112C182.734 95.432 182.51 95.8693 182.51 96.424C182.51 96.936 182.713 97.3307 183.118 97.608C183.545 97.8853 184.11 98.024 184.814 98.024ZM202.859 85L208.107 96.232L213.291 85H217.995L210.411 101H205.771L198.219 85H202.859ZM229.648 97.768C231.888 97.768 234.032 97.2347 236.08 96.168L237.328 99.496C234.597 100.883 231.899 101.576 229.232 101.576C226.309 101.576 223.931 100.765 222.096 99.144C220.261 97.5013 219.344 95.4533 219.344 93C219.344 90.4187 220.293 88.3493 222.192 86.792C224.112 85.2347 226.459 84.456 229.232 84.456C231.664 84.456 233.691 85.1707 235.312 86.6C236.933 88.008 237.744 89.7893 237.744 91.944C237.744 92.648 237.648 93.3733 237.456 94.12H223.696C223.995 95.272 224.677 96.168 225.744 96.808C226.811 97.448 228.112 97.768 229.648 97.768ZM228.976 88.008C226.181 88.008 224.453 89.0107 223.792 91.016H233.488C233.275 90.056 232.773 89.32 231.984 88.808C231.216 88.2747 230.213 88.008 228.976 88.008ZM255.265 78.6V101H250.849V78.6H255.265ZM278.867 97.768C281.107 97.768 283.251 97.2347 285.299 96.168L286.547 99.496C283.816 100.883 281.117 101.576 278.451 101.576C275.528 101.576 273.149 100.765 271.315 99.144C269.48 97.5013 268.563 95.4533 268.563 93C268.563 90.4187 269.512 88.3493 271.411 86.792C273.331 85.2347 275.677 84.456 278.451 84.456C280.883 84.456 282.909 85.1707 284.531 86.6C286.152 88.008 286.963 89.7893 286.963 91.944C286.963 92.648 286.867 93.3733 286.675 94.12H272.915C273.213 95.272 273.896 96.168 274.963 96.808C276.029 97.448 277.331 97.768 278.867 97.768ZM278.195 88.008C275.4 88.008 273.672 89.0107 273.011 91.016H282.707C282.493 90.056 281.992 89.32 281.203 88.808C280.435 88.2747 279.432 88.008 278.195 88.008ZM292.765 85L298.013 96.232L303.197 85H307.901L300.317 101H295.677L288.125 85H292.765ZM319.554 97.768C321.794 97.768 323.938 97.2347 325.986 96.168L327.234 99.496C324.504 100.883 321.805 101.576 319.138 101.576C316.216 101.576 313.837 100.765 312.002 99.144C310.168 97.5013 309.25 95.4533 309.25 93C309.25 90.4187 310.2 88.3493 312.098 86.792C314.018 85.2347 316.365 84.456 319.138 84.456C321.57 84.456 323.597 85.1707 325.218 86.6C326.84 88.008 327.65 89.7893 327.65 91.944C327.65 92.648 327.554 93.3733 327.362 94.12H313.602C313.901 95.272 314.584 96.168 315.65 96.808C316.717 97.448 318.018 97.768 319.554 97.768ZM318.882 88.008C316.088 88.008 314.36 89.0107 313.698 91.016H323.394C323.181 90.056 322.68 89.32 321.89 88.808C321.122 88.2747 320.12 88.008 318.882 88.008ZM341.357 84.456C342.253 84.456 343.149 84.6693 344.045 85.096L343.149 88.936C342.359 88.5733 341.623 88.392 340.941 88.392C339.511 88.392 338.231 88.8293 337.101 89.704C335.991 90.5573 335.437 91.6773 335.437 93.064V101H331.213V85H335.437V88.552C335.991 87.5067 336.802 86.568 337.869 85.736C338.935 84.8827 340.098 84.456 341.357 84.456ZM52.64 124.52C55.5627 124.52 57.5147 125.821 58.496 128.424C59.2 127.379 60.1493 126.472 61.344 125.704C62.5387 124.915 63.7653 124.52 65.024 124.52C67.072 124.52 68.64 125.16 69.728 126.44C70.8373 127.72 71.392 129.437 71.392 131.592V141H67.168V132.104C67.168 131.016 66.848 130.131 66.208 129.448C65.5893 128.765 64.7147 128.424 63.584 128.424C62.3893 128.424 61.3227 128.84 60.384 129.672C59.4667 130.483 59.008 131.603 59.008 133.032V141H54.784V132.104C54.784 131.016 54.464 130.131 53.824 129.448C53.2053 128.765 52.3307 128.424 51.2 128.424C49.984 128.424 48.9173 128.829 48 129.64C47.0827 130.451 46.624 131.581 46.624 133.032V141H42.4V125H46.624V128.392C47.2213 127.325 48.0427 126.419 49.088 125.672C50.1547 124.904 51.3387 124.52 52.64 124.52ZM80.249 125V141H76.089V125H80.249ZM75.641 120.392C75.641 119.709 75.8863 119.123 76.377 118.632C76.8677 118.141 77.465 117.896 78.169 117.896C78.873 117.896 79.4703 118.141 79.961 118.632C80.4517 119.123 80.697 119.709 80.697 120.392C80.697 121.096 80.4517 121.693 79.961 122.184C79.4703 122.675 78.873 122.92 78.169 122.92C77.465 122.92 76.8677 122.675 76.377 122.184C75.8863 121.693 75.641 121.096 75.641 120.392ZM99.2628 125.576L98.1428 129.288C96.0308 128.477 93.9934 128.072 92.0308 128.072C89.5134 128.072 88.2548 128.499 88.2548 129.352C88.2548 129.821 88.6601 130.184 89.4708 130.44C90.3028 130.696 91.2948 130.909 92.4468 131.08C93.6201 131.251 94.7828 131.475 95.9348 131.752C97.1081 132.008 98.1001 132.499 98.9108 133.224C99.7428 133.949 100.159 134.888 100.159 136.04C100.159 137.725 99.3161 139.08 97.6308 140.104C95.9454 141.128 94.0468 141.64 91.9348 141.64C89.1188 141.64 86.3988 140.947 83.7747 139.56L85.0228 136.232C87.6041 137.363 89.9614 137.928 92.0948 137.928C93.2681 137.928 94.2068 137.779 94.9108 137.48C95.6361 137.16 95.9988 136.723 95.9988 136.168C95.9988 135.72 95.5828 135.379 94.7508 135.144C93.9401 134.888 92.9481 134.675 91.7748 134.504C90.6228 134.333 89.4601 134.109 88.2868 133.832C87.1348 133.555 86.1428 133.053 85.3108 132.328C84.5001 131.603 84.0948 130.664 84.0948 129.512C84.0948 127.955 84.8094 126.717 86.2388 125.8C87.6894 124.861 89.5668 124.392 91.8708 124.392C94.4734 124.392 96.9374 124.787 99.2628 125.576ZM117.982 125.576L116.862 129.288C114.75 128.477 112.712 128.072 110.75 128.072C108.232 128.072 106.974 128.499 106.974 129.352C106.974 129.821 107.379 130.184 108.19 130.44C109.022 130.696 110.014 130.909 111.166 131.08C112.339 131.251 113.502 131.475 114.654 131.752C115.827 132.008 116.819 132.499 117.63 133.224C118.462 133.949 118.878 134.888 118.878 136.04C118.878 137.725 118.035 139.08 116.35 140.104C114.664 141.128 112.766 141.64 110.654 141.64C107.838 141.64 105.118 140.947 102.493 139.56L103.742 136.232C106.323 137.363 108.68 137.928 110.814 137.928C111.987 137.928 112.926 137.779 113.63 137.48C114.355 137.16 114.718 136.723 114.718 136.168C114.718 135.72 114.302 135.379 113.47 135.144C112.659 134.888 111.667 134.675 110.494 134.504C109.342 134.333 108.179 134.109 107.006 133.832C105.854 133.555 104.862 133.053 104.03 132.328C103.219 131.603 102.814 130.664 102.814 129.512C102.814 127.955 103.528 126.717 104.958 125.8C106.408 124.861 108.286 124.392 110.59 124.392C113.192 124.392 115.656 124.787 117.982 125.576ZM131.804 137.768C134.044 137.768 136.188 137.235 138.236 136.168L139.484 139.496C136.754 140.883 134.055 141.576 131.388 141.576C128.466 141.576 126.087 140.765 124.252 139.144C122.418 137.501 121.5 135.453 121.5 133C121.5 130.419 122.45 128.349 124.348 126.792C126.268 125.235 128.615 124.456 131.388 124.456C133.82 124.456 135.847 125.171 137.468 126.6C139.09 128.008 139.9 129.789 139.9 131.944C139.9 132.648 139.804 133.373 139.612 134.12H125.852C126.151 135.272 126.834 136.168 127.9 136.808C128.967 137.448 130.268 137.768 131.804 137.768ZM131.132 128.008C128.338 128.008 126.61 129.011 125.948 131.016H135.644C135.431 130.056 134.93 129.32 134.14 128.808C133.372 128.275 132.37 128.008 131.132 128.008ZM150.47 141.544C148.209 141.544 146.3 140.776 144.743 139.24C143.185 137.704 142.407 135.677 142.407 133.16C142.407 130.728 143.303 128.669 145.095 126.984C146.908 125.277 149.148 124.424 151.815 124.424C153.095 124.424 154.94 124.808 157.351 125.576V117H161.575V141H157.351V137.448C156.796 138.621 155.9 139.603 154.663 140.392C153.425 141.16 152.028 141.544 150.47 141.544ZM148.071 136.424C149.031 137.213 150.247 137.608 151.719 137.608C153.191 137.608 154.492 137.139 155.623 136.2C156.775 135.24 157.351 134.024 157.351 132.552V129.096C155.175 128.456 153.308 128.136 151.751 128.136C150.321 128.136 149.116 128.616 148.135 129.576C147.153 130.536 146.663 131.72 146.663 133.128C146.663 134.536 147.132 135.635 148.071 136.424ZM173.671 128.68V125.32L176.839 125.128L177.415 120.2H180.935V125H187.591V128.68H180.935V134.728C180.935 135.603 181.159 136.307 181.607 136.84C182.077 137.373 182.717 137.64 183.527 137.64C184.743 137.64 185.97 137.256 187.207 136.488L188.135 140.104C186.301 141.064 184.53 141.544 182.823 141.544C180.861 141.544 179.346 140.947 178.279 139.752C177.234 138.557 176.711 136.936 176.711 134.888V128.68H173.671ZM200.874 128.424C199.423 128.424 198.175 128.829 197.13 129.64C196.084 130.429 195.562 131.571 195.562 133.064V141H191.338V117.288H195.562V128.552C196.18 127.421 197.066 126.472 198.218 125.704C199.37 124.915 200.66 124.52 202.09 124.52C204.244 124.52 205.919 125.181 207.114 126.504C208.33 127.805 208.938 129.555 208.938 131.752V141H204.714V132.264C204.714 131.091 204.383 130.163 203.722 129.48C203.06 128.776 202.111 128.424 200.874 128.424ZM222.836 137.768C225.076 137.768 227.22 137.235 229.267 136.168L230.516 139.496C227.785 140.883 225.086 141.576 222.42 141.576C219.497 141.576 217.118 140.765 215.284 139.144C213.449 137.501 212.532 135.453 212.532 133C212.532 130.419 213.481 128.349 215.38 126.792C217.3 125.235 219.646 124.456 222.42 124.456C224.852 124.456 226.878 125.171 228.5 126.6C230.121 128.008 230.932 129.789 230.932 131.944C230.932 132.648 230.836 133.373 230.644 134.12H216.884C217.182 135.272 217.865 136.168 218.932 136.808C219.998 137.448 221.3 137.768 222.836 137.768ZM222.164 128.008C219.369 128.008 217.641 129.011 216.98 131.016H226.676C226.462 130.056 225.961 129.32 225.172 128.808C224.404 128.275 223.401 128.008 222.164 128.008ZM241.796 128.68V125.32L244.964 125.128L245.54 120.2H249.06V125H255.716V128.68H249.06V134.728C249.06 135.603 249.284 136.307 249.732 136.84C250.202 137.373 250.842 137.64 251.652 137.64C252.868 137.64 254.095 137.256 255.332 136.488L256.26 140.104C254.426 141.064 252.655 141.544 250.948 141.544C248.986 141.544 247.471 140.947 246.404 139.752C245.359 138.557 244.836 136.936 244.836 134.888V128.68H241.796ZM269.607 124.456C270.503 124.456 271.399 124.669 272.295 125.096L271.399 128.936C270.609 128.573 269.873 128.392 269.191 128.392C267.761 128.392 266.481 128.829 265.351 129.704C264.241 130.557 263.687 131.677 263.687 133.064V141H259.463V125H263.687V128.552C264.241 127.507 265.052 126.568 266.119 125.736C267.185 124.883 268.348 124.456 269.607 124.456ZM280.062 131.88C281.748 131.88 283.54 132.211 285.439 132.872V131.016C285.439 130.163 285.161 129.491 284.607 129C284.073 128.488 283.316 128.232 282.335 128.232C280.927 128.232 278.783 128.765 275.903 129.832L274.847 125.992C278.217 124.904 280.841 124.36 282.719 124.36C284.937 124.36 286.644 124.936 287.839 126.088C289.055 127.24 289.663 128.904 289.663 131.08V136.84C289.663 137.352 289.919 137.608 290.431 137.608C290.857 137.608 291.604 137.331 292.671 136.776L293.535 140.04C291.572 141.107 289.908 141.64 288.543 141.64C287.54 141.64 286.783 141.341 286.271 140.744C285.759 140.125 285.481 139.325 285.439 138.344C284.628 139.325 283.636 140.125 282.463 140.744C281.289 141.341 280.052 141.64 278.751 141.64C277.236 141.64 275.977 141.192 274.975 140.296C273.993 139.379 273.503 138.205 273.503 136.776C273.503 135.176 274.143 133.96 275.423 133.128C276.703 132.296 278.249 131.88 280.062 131.88ZM280.127 138.024C280.959 138.024 281.865 137.811 282.847 137.384C283.849 136.957 284.713 136.392 285.439 135.688V135.08C283.689 134.76 281.972 134.6 280.286 134.6C279.561 134.6 278.964 134.771 278.495 135.112C278.047 135.432 277.823 135.869 277.823 136.424C277.823 136.936 278.025 137.331 278.431 137.608C278.857 137.885 279.423 138.024 280.127 138.024ZM300.155 125V141H295.995V125H300.155ZM295.547 120.392C295.547 119.709 295.793 119.123 296.283 118.632C296.774 118.141 297.371 117.896 298.075 117.896C298.779 117.896 299.377 118.141 299.867 118.632C300.358 119.123 300.603 119.709 300.603 120.392C300.603 121.096 300.358 121.693 299.867 122.184C299.377 122.675 298.779 122.92 298.075 122.92C297.371 122.92 296.774 122.675 296.283 122.184C295.793 121.693 295.547 121.096 295.547 120.392ZM314.561 128.424C313.11 128.424 311.862 128.829 310.817 129.64C309.772 130.429 309.249 131.571 309.249 133.064V141H305.025V125H309.249V128.552C309.868 127.421 310.753 126.472 311.905 125.704C313.057 124.915 314.348 124.52 315.777 124.52C317.932 124.52 319.606 125.181 320.801 126.504C322.017 127.805 322.625 129.555 322.625 131.752V141H318.401V132.264C318.401 131.091 318.07 130.163 317.409 129.48C316.748 128.776 315.798 128.424 314.561 128.424ZM44.224 166.728C46.144 165.213 48.5013 164.456 51.296 164.456C54.0907 164.456 56.448 165.213 58.368 166.728C60.288 168.221 61.248 170.259 61.248 172.84C61.248 175.272 60.2987 177.341 58.4 179.048C56.5227 180.733 54.1547 181.576 51.296 181.576C48.4373 181.576 46.0587 180.733 44.16 179.048C42.2827 177.341 41.344 175.272 41.344 172.84C41.344 170.259 42.304 168.221 44.224 166.728ZM55.424 169.416C54.3787 168.563 53.0027 168.136 51.296 168.136C49.5893 168.136 48.2133 168.563 47.168 169.416C46.1227 170.248 45.6 171.389 45.6 172.84C45.6 174.205 46.1547 175.4 47.264 176.424C48.3947 177.427 49.7387 177.928 51.296 177.928C52.8533 177.928 54.1867 177.427 55.296 176.424C56.4267 175.4 56.992 174.205 56.992 172.84C56.992 171.389 56.4693 170.248 55.424 169.416ZM75.1378 164.456C76.0338 164.456 76.9298 164.669 77.8258 165.096L76.9298 168.936C76.1404 168.573 75.4044 168.392 74.7218 168.392C73.2924 168.392 72.0124 168.829 70.8818 169.704C69.7724 170.557 69.2178 171.677 69.2178 173.064V181H64.9938V165H69.2178V168.552C69.7724 167.507 70.5831 166.568 71.6498 165.736C72.7164 164.883 73.8791 164.456 75.1378 164.456ZM96.4483 160.424C94.7843 160.424 93.9523 161.267 93.9523 162.952V165H101.216V168.68H94.1123V181H89.9523V168.68H87.2963V165H89.9203V162.76C89.9203 160.925 90.5283 159.453 91.7443 158.344C92.9816 157.235 94.5923 156.68 96.5763 156.68C98.1976 156.68 99.9469 157 101.824 157.64L100.8 161.512C99.1363 160.787 97.6856 160.424 96.4483 160.424ZM108.061 181H103.869V157H108.061V181ZM117.093 165V181H112.933V165H117.093ZM112.485 160.392C112.485 159.709 112.73 159.123 113.221 158.632C113.711 158.141 114.309 157.896 115.013 157.896C115.717 157.896 116.314 158.141 116.805 158.632C117.295 159.123 117.541 159.709 117.541 160.392C117.541 161.096 117.295 161.693 116.805 162.184C116.314 162.675 115.717 162.92 115.013 162.92C114.309 162.92 113.711 162.675 113.221 162.184C112.73 161.693 112.485 161.096 112.485 160.392ZM127.659 178.888H129.835C132.715 178.888 135.019 179.283 136.747 180.072C138.475 180.861 139.339 182.056 139.339 183.656C139.339 185.427 138.464 186.771 136.715 187.688C134.987 188.627 132.693 189.096 129.835 189.096C126.869 189.096 124.523 188.648 122.795 187.752C121.088 186.877 120.235 185.619 120.235 183.976C120.235 183.165 120.565 182.397 121.227 181.672C121.909 180.968 122.677 180.509 123.531 180.296C123.104 180.083 122.741 179.731 122.443 179.24C122.144 178.749 121.995 178.248 121.995 177.736C121.995 176.883 122.571 176.083 123.723 175.336C122.933 174.824 122.261 174.163 121.707 173.352C121.152 172.52 120.875 171.699 120.875 170.888C120.875 168.861 121.675 167.283 123.275 166.152C124.896 165.021 126.869 164.456 129.195 164.456C130.965 164.456 132.555 164.797 133.963 165.48C135.285 164.392 136.907 163.688 138.827 163.368L139.595 167.304C138.464 167.432 137.536 167.677 136.811 168.04C137.301 168.915 137.547 169.864 137.547 170.888C137.547 172.723 136.757 174.248 135.179 175.464C133.6 176.68 131.605 177.288 129.195 177.288C128.363 177.288 127.584 177.224 126.859 177.096C126.325 177.224 126.059 177.512 126.059 177.96C126.059 178.579 126.592 178.888 127.659 178.888ZM129.163 167.944C127.968 167.944 126.997 168.189 126.251 168.68C125.504 169.171 125.131 169.864 125.131 170.76C125.131 171.549 125.515 172.211 126.283 172.744C127.051 173.256 128.011 173.512 129.163 173.512C130.357 173.512 131.317 173.245 132.043 172.712C132.789 172.179 133.163 171.528 133.163 170.76C133.163 169.864 132.789 169.171 132.043 168.68C131.296 168.189 130.336 167.944 129.163 167.944ZM129.771 182.472C127.36 182.472 125.973 182.483 125.611 182.504C124.736 182.867 124.299 183.357 124.299 183.976C124.299 185.085 126.123 185.64 129.771 185.64C133.419 185.64 135.243 185.096 135.243 184.008C135.243 182.984 133.419 182.472 129.771 182.472ZM151.686 168.424C150.235 168.424 148.987 168.829 147.942 169.64C146.897 170.429 146.374 171.571 146.374 173.064V181H142.15V157.288H146.374V168.552C146.993 167.421 147.878 166.472 149.03 165.704C150.182 164.915 151.473 164.52 152.902 164.52C155.057 164.52 156.731 165.181 157.926 166.504C159.142 167.805 159.75 169.555 159.75 171.752V181H155.526V172.264C155.526 171.091 155.195 170.163 154.534 169.48C153.873 168.776 152.923 168.424 151.686 168.424ZM162.64 168.68V165.32L165.808 165.128L166.384 160.2H169.904V165H176.56V168.68H169.904V174.728C169.904 175.603 170.128 176.307 170.576 176.84C171.045 177.373 171.685 177.64 172.496 177.64C173.712 177.64 174.939 177.256 176.176 176.488L177.104 180.104C175.269 181.064 173.499 181.544 171.792 181.544C169.829 181.544 168.315 180.947 167.248 179.752C166.203 178.557 165.68 176.936 165.68 174.888V168.68H162.64Z" fill="#CDE4FD"></path></svg> 