<?xml version="1.0" encoding="UTF-8"?> <svg xmlns="http://www.w3.org/2000/svg" width="400" height="600" viewBox="0 0 400 600" fill="none"> <rect width="400" height="600" rx="20" fill="#36BB71"></rect> <path d="M47.296 84.136L60.8 101H65.952V78.6H61.536V95.464L48.032 78.6H42.88V101H47.296V84.136ZM80.4918 97.768C77.4838 97.768 75.1478 96.456 74.5398 94.12H88.2998C88.4918 93.384 88.5878 92.648 88.5878 91.944C88.5878 87.624 84.9398 84.456 80.0758 84.456C74.7318 84.456 70.1878 87.656 70.1878 93C70.1878 97.8 74.1238 101.576 80.0758 101.576C83.0198 101.576 86.0278 100.584 88.1718 99.496L86.9237 96.168C84.6518 97.352 82.6678 97.768 80.4918 97.768ZM79.8198 88.008C82.3158 88.008 83.9158 89.128 84.3318 91.016H74.6358C75.2758 89.064 77.0677 88.008 79.8198 88.008ZM94.39 85H89.75L97.302 101H101.942L109.526 85H104.822L99.638 96.232L94.39 85ZM121.179 97.768C118.171 97.768 115.835 96.456 115.227 94.12H128.987C129.179 93.384 129.275 92.648 129.275 91.944C129.275 87.624 125.627 84.456 120.763 84.456C115.419 84.456 110.875 87.656 110.875 93C110.875 97.8 114.811 101.576 120.763 101.576C123.707 101.576 126.715 100.584 128.859 99.496L127.611 96.168C125.339 97.352 123.355 97.768 121.179 97.768ZM120.507 88.008C123.003 88.008 124.603 89.128 125.019 91.016H115.323C115.963 89.064 117.755 88.008 120.507 88.008ZM142.982 84.456C140.198 84.456 137.99 86.824 137.062 88.552V85H132.838V101H137.062V93.064C137.062 90.12 139.91 88.392 142.566 88.392C143.174 88.392 144.006 88.584 144.774 88.936L145.67 85.096C144.87 84.712 143.878 84.456 142.982 84.456ZM166.436 88.424C168.964 88.424 170.276 89.992 170.276 92.264V101H174.5V91.752C174.5 87.4 172.004 84.52 167.652 84.52C164.612 84.52 162.244 86.472 161.124 88.552V77.288H156.9V101H161.124V93.064C161.124 89.896 163.78 88.424 166.436 88.424ZM184.75 91.88C181.454 91.88 178.19 93.352 178.19 96.776C178.19 99.656 180.43 101.64 183.438 101.64C186.158 101.64 188.59 100.168 190.126 98.344C190.19 100.136 191.086 101.64 193.23 101.64C194.542 101.64 196.462 101 198.222 100.04L197.358 96.776C196.43 97.256 195.598 97.608 195.118 97.608C194.67 97.608 194.35 97.32 194.35 96.84V91.08C194.35 86.696 191.79 84.36 187.406 84.36C184.878 84.36 181.518 85.352 179.534 85.992L180.59 89.832C182.926 88.968 185.358 88.232 187.022 88.232C189.038 88.232 190.126 89.352 190.126 91.016V92.872C188.75 92.392 186.478 91.88 184.75 91.88ZM184.814 98.024C183.47 98.024 182.51 97.48 182.51 96.424C182.51 95.272 183.566 94.6 184.974 94.6C186.51 94.6 188.366 94.76 190.126 95.08V95.688C188.622 97.16 186.414 98.024 184.814 98.024ZM202.859 85H198.219L205.771 101H210.411L217.995 85H213.291L208.107 96.232L202.859 85ZM229.648 97.768C226.64 97.768 224.304 96.456 223.696 94.12H237.456C237.648 93.384 237.744 92.648 237.744 91.944C237.744 87.624 234.096 84.456 229.232 84.456C223.888 84.456 219.344 87.656 219.344 93C219.344 97.8 223.28 101.576 229.232 101.576C232.176 101.576 235.184 100.584 237.328 99.496L236.08 96.168C233.808 97.352 231.824 97.768 229.648 97.768ZM228.976 88.008C231.472 88.008 233.072 89.128 233.488 91.016H223.792C224.432 89.064 226.224 88.008 228.976 88.008ZM255.265 78.6H250.849V101H255.265V78.6ZM278.867 97.768C275.859 97.768 273.523 96.456 272.915 94.12H286.675C286.867 93.384 286.963 92.648 286.963 91.944C286.963 87.624 283.315 84.456 278.451 84.456C273.107 84.456 268.563 87.656 268.563 93C268.563 97.8 272.499 101.576 278.451 101.576C281.395 101.576 284.403 100.584 286.547 99.496L285.299 96.168C283.027 97.352 281.043 97.768 278.867 97.768ZM278.195 88.008C280.691 88.008 282.291 89.128 282.707 91.016H273.011C273.651 89.064 275.443 88.008 278.195 88.008ZM292.765 85H288.125L295.677 101H300.317L307.901 85H303.197L298.013 96.232L292.765 85ZM319.554 97.768C316.546 97.768 314.21 96.456 313.602 94.12H327.362C327.554 93.384 327.65 92.648 327.65 91.944C327.65 87.624 324.002 84.456 319.138 84.456C313.794 84.456 309.25 87.656 309.25 93C309.25 97.8 313.186 101.576 319.138 101.576C322.082 101.576 325.09 100.584 327.234 99.496L325.986 96.168C323.714 97.352 321.73 97.768 319.554 97.768ZM318.882 88.008C321.378 88.008 322.978 89.128 323.394 91.016H313.698C314.338 89.064 316.13 88.008 318.882 88.008ZM341.357 84.456C338.573 84.456 336.365 86.824 335.437 88.552V85H331.213V101H335.437V93.064C335.437 90.12 338.285 88.392 340.941 88.392C341.549 88.392 342.381 88.584 343.149 88.936L344.045 85.096C343.245 84.712 342.253 84.456 341.357 84.456ZM40.64 128.68H43.68V134.888C43.68 138.92 45.824 141.544 49.792 141.544C51.488 141.544 53.76 140.808 55.104 140.104L54.176 136.488C53.152 137.128 51.744 137.64 50.496 137.64C48.832 137.64 47.904 136.456 47.904 134.728V128.68H54.56V125H47.904V120.2H44.384L43.808 125.128L40.64 125.32V128.68ZM68.4503 124.456C65.6663 124.456 63.4583 126.824 62.5303 128.552V125H58.3063V141H62.5303V133.064C62.5303 130.12 65.3783 128.392 68.0343 128.392C68.6423 128.392 69.4743 128.584 70.2423 128.936L71.1383 125.096C70.3383 124.712 69.3463 124.456 68.4503 124.456ZM77.5303 125H73.3703V141H77.5303V125ZM72.9223 120.392C72.9223 121.8 74.0423 122.92 75.4503 122.92C76.8583 122.92 77.9783 121.8 77.9783 120.392C77.9783 119.016 76.8583 117.896 75.4503 117.896C74.0423 117.896 72.9223 119.016 72.9223 120.392ZM91.648 137.768C88.64 137.768 86.304 136.456 85.696 134.12H99.456C99.648 133.384 99.744 132.648 99.744 131.944C99.744 127.624 96.096 124.456 91.232 124.456C85.888 124.456 81.344 127.656 81.344 133C81.344 137.8 85.28 141.576 91.232 141.576C94.176 141.576 97.184 140.584 99.328 139.496L98.08 136.168C95.808 137.352 93.824 137.768 91.648 137.768ZM90.976 128.008C93.472 128.008 95.072 129.128 95.488 131.016H85.792C86.432 129.064 88.224 128.008 90.976 128.008ZM110.314 141.544C113.578 141.544 116.138 139.656 117.194 137.448V141H121.418V117H117.194V125.576C115.594 125.064 113.386 124.424 111.658 124.424C106.282 124.424 102.25 128.36 102.25 133.16C102.25 138.344 105.93 141.544 110.314 141.544ZM111.562 137.608C108.714 137.608 106.506 136.008 106.506 133.128C106.506 130.312 108.714 128.136 111.594 128.136C113.546 128.136 115.338 128.552 117.194 129.096V132.552C117.194 135.624 114.378 137.608 111.562 137.608ZM144.171 124.456C138.827 124.456 134.219 127.496 134.219 132.84C134.219 137.64 138.379 141.576 144.171 141.576C149.963 141.576 154.123 137.64 154.123 132.84C154.123 127.496 149.515 124.456 144.171 124.456ZM144.171 128.136C147.499 128.136 149.867 129.864 149.867 132.84C149.867 135.528 147.339 137.928 144.171 137.928C141.003 137.928 138.475 135.528 138.475 132.84C138.475 129.864 140.843 128.136 144.171 128.136ZM175.309 125H170.669C169.229 128.424 167.469 132.552 165.805 136.424L160.077 125H155.469L163.725 141.224C163.725 141.256 163.661 141.32 163.661 141.384C162.861 143.176 161.965 144.936 160.269 144.936C160.045 144.936 159.405 144.872 158.829 144.776L158.605 148.84C159.149 148.936 159.853 149 160.077 149C164.589 149 166.061 145.736 167.597 142.312L175.309 125ZM191.857 125.576C189.969 124.936 186.993 124.392 184.465 124.392C179.921 124.392 176.689 126.376 176.689 129.512C176.689 135.752 188.593 133.64 188.593 136.168C188.593 137.288 186.993 137.928 184.689 137.928C182.225 137.928 179.729 137.16 177.617 136.232L176.368 139.56C178.545 140.712 181.521 141.64 184.529 141.64C188.433 141.64 192.753 139.624 192.753 136.04C192.753 129.8 180.849 132.008 180.849 129.352C180.849 128.392 182.513 128.072 184.625 128.072C186.673 128.072 188.657 128.488 190.737 129.288L191.857 125.576ZM194.671 128.68H197.711V134.888C197.711 138.92 199.855 141.544 203.823 141.544C205.519 141.544 207.791 140.808 209.135 140.104L208.207 136.488C207.183 137.128 205.775 137.64 204.527 137.64C202.863 137.64 201.935 136.456 201.935 134.728V128.68H208.591V125H201.935V120.2H198.415L197.839 125.128L194.671 125.32V128.68ZM221.586 137.768C218.578 137.768 216.242 136.456 215.634 134.12H229.394C229.586 133.384 229.682 132.648 229.682 131.944C229.682 127.624 226.034 124.456 221.17 124.456C215.826 124.456 211.282 127.656 211.282 133C211.282 137.8 215.218 141.576 221.17 141.576C224.114 141.576 227.122 140.584 229.266 139.496L228.017 136.168C225.746 137.352 223.762 137.768 221.586 137.768ZM220.914 128.008C223.41 128.008 225.01 129.128 225.426 131.016H215.73C216.37 129.064 218.161 128.008 220.914 128.008ZM243.388 124.456C240.604 124.456 238.396 126.824 237.468 128.552V125H233.244V141H237.468V133.064C237.468 130.12 240.316 128.392 242.972 128.392C243.58 128.392 244.412 128.584 245.18 128.936L246.076 125.096C245.276 124.712 244.284 124.456 243.388 124.456ZM262.388 125.576C260.5 124.936 257.524 124.392 254.996 124.392C250.452 124.392 247.22 126.376 247.22 129.512C247.22 135.752 259.124 133.64 259.124 136.168C259.124 137.288 257.524 137.928 255.22 137.928C252.756 137.928 250.26 137.16 248.148 136.232L246.9 139.56C249.076 140.712 252.052 141.64 255.06 141.64C258.964 141.64 263.284 139.624 263.284 136.04C263.284 129.8 251.38 132.008 251.38 129.352C251.38 128.392 253.044 128.072 255.156 128.072C257.204 128.072 259.188 128.488 261.268 129.288L262.388 125.576Z" fill="#CDFFE3"></path> <path d="M46.3 207.4C48.016 207.4 49.432 208.012 50.548 209.236C51.676 210.448 52.24 211.936 52.24 213.7C52.24 215.464 51.676 216.958 50.548 218.182C49.432 219.394 48.016 220 46.3 220H41.44V207.4H46.3ZM46.3 218.812C47.68 218.812 48.808 218.32 49.684 217.336C50.572 216.352 51.016 215.14 51.016 213.7C51.016 212.26 50.572 211.048 49.684 210.064C48.808 209.08 47.68 208.588 46.3 208.588H42.7V218.812H46.3ZM55.4211 208.84C55.2531 209.008 55.0491 209.092 54.8091 209.092C54.5691 209.092 54.3651 209.008 54.1971 208.84C54.0291 208.672 53.9451 208.468 53.9451 208.228C53.9451 207.988 54.0291 207.784 54.1971 207.616C54.3651 207.448 54.5691 207.364 54.8091 207.364C55.0491 207.364 55.2531 207.448 55.4211 207.616C55.5891 207.784 55.6731 207.988 55.6731 208.228C55.6731 208.468 55.5891 208.672 55.4211 208.84ZM54.2151 220V211H55.4031V220H54.2151ZM65.6641 207.4H66.8521V220H65.6641V218.236C64.8361 219.556 63.6241 220.216 62.0281 220.216C60.7441 220.216 59.6461 219.76 58.7341 218.848C57.8341 217.936 57.3841 216.82 57.3841 215.5C57.3841 214.18 57.8341 213.064 58.7341 212.152C59.6461 211.24 60.7441 210.784 62.0281 210.784C63.6241 210.784 64.8361 211.444 65.6641 212.764V207.4ZM59.5981 218.038C60.2821 218.722 61.1221 219.064 62.1181 219.064C63.1141 219.064 63.9541 218.722 64.6381 218.038C65.3221 217.342 65.6641 216.496 65.6641 215.5C65.6641 214.504 65.3221 213.664 64.6381 212.98C63.9541 212.284 63.1141 211.936 62.1181 211.936C61.1221 211.936 60.2821 212.284 59.5981 212.98C58.9141 213.664 58.5721 214.504 58.5721 215.5C58.5721 216.496 58.9141 217.342 59.5981 218.038ZM80.3474 211H81.6074L77.7554 220.828C77.4074 221.716 76.9094 222.412 76.2614 222.916C75.6254 223.432 74.9114 223.66 74.1194 223.6V222.484C75.1994 222.604 76.0214 221.98 76.5854 220.612L76.8194 220.054L72.7874 211H74.0474L77.4314 218.542L80.3474 211ZM90.2336 218.866C89.3216 219.766 88.2056 220.216 86.8856 220.216C85.5656 220.216 84.4436 219.766 83.5196 218.866C82.6076 217.954 82.1516 216.832 82.1516 215.5C82.1516 214.168 82.6076 213.052 83.5196 212.152C84.4436 211.24 85.5656 210.784 86.8856 210.784C88.2056 210.784 89.3216 211.24 90.2336 212.152C91.1576 213.052 91.6196 214.168 91.6196 215.5C91.6196 216.832 91.1576 217.954 90.2336 218.866ZM84.3656 218.038C85.0496 218.722 85.8896 219.064 86.8856 219.064C87.8816 219.064 88.7216 218.722 89.4056 218.038C90.0896 217.342 90.4316 216.496 90.4316 215.5C90.4316 214.504 90.0896 213.664 89.4056 212.98C88.7216 212.284 87.8816 211.936 86.8856 211.936C85.8896 211.936 85.0496 212.284 84.3656 212.98C83.6816 213.664 83.3396 214.504 83.3396 215.5C83.3396 216.496 83.6816 217.342 84.3656 218.038ZM99.9437 211H101.132V220H99.9437V218.596C99.2717 219.676 98.2637 220.216 96.9197 220.216C95.8277 220.216 94.9637 219.886 94.3277 219.226C93.7037 218.554 93.3917 217.654 93.3917 216.526V211H94.5797V216.526C94.5797 217.33 94.7897 217.954 95.2097 218.398C95.6417 218.842 96.2477 219.064 97.0277 219.064C97.8917 219.064 98.5937 218.794 99.1337 218.254C99.6737 217.702 99.9437 216.856 99.9437 215.716V211ZM108.145 220V206.86H109.333V220H108.145ZM113.06 208.84C112.892 209.008 112.688 209.092 112.448 209.092C112.208 209.092 112.004 209.008 111.836 208.84C111.668 208.672 111.584 208.468 111.584 208.228C111.584 207.988 111.668 207.784 111.836 207.616C112.004 207.448 112.208 207.364 112.448 207.364C112.688 207.364 112.892 207.448 113.06 207.616C113.228 207.784 113.312 207.988 113.312 208.228C113.312 208.468 113.228 208.672 113.06 208.84ZM111.854 220V211H113.042V220H111.854ZM122.835 220H121.251L116.751 215.662V220H115.563V207.4H116.751V214.978L121.035 211H122.655L118.011 215.32L122.835 220ZM127.719 210.784C129.051 210.784 130.125 211.258 130.941 212.206C131.769 213.142 132.183 214.252 132.183 215.536C132.183 215.668 132.171 215.854 132.147 216.094H124.245C124.365 217.006 124.749 217.732 125.397 218.272C126.057 218.8 126.867 219.064 127.827 219.064C128.511 219.064 129.099 218.926 129.591 218.65C130.095 218.362 130.473 217.99 130.725 217.534L131.769 218.146C131.373 218.782 130.833 219.286 130.149 219.658C129.465 220.03 128.685 220.216 127.809 220.216C126.393 220.216 125.241 219.772 124.353 218.884C123.465 217.996 123.021 216.868 123.021 215.5C123.021 214.156 123.459 213.034 124.335 212.134C125.211 211.234 126.339 210.784 127.719 210.784ZM127.719 211.936C126.783 211.936 125.997 212.218 125.361 212.782C124.737 213.334 124.365 214.054 124.245 214.942H130.959C130.839 213.994 130.473 213.256 129.861 212.728C129.249 212.2 128.535 211.936 127.719 211.936ZM139.779 208.84C139.611 209.008 139.407 209.092 139.167 209.092C138.927 209.092 138.723 209.008 138.555 208.84C138.387 208.672 138.303 208.468 138.303 208.228C138.303 207.988 138.387 207.784 138.555 207.616C138.723 207.448 138.927 207.364 139.167 207.364C139.407 207.364 139.611 207.448 139.779 207.616C139.947 207.784 140.031 207.988 140.031 208.228C140.031 208.468 139.947 208.672 139.779 208.84ZM138.573 220V211H139.761V220H138.573ZM147.051 212.152H144.459V217.606C144.459 218.098 144.555 218.452 144.747 218.668C144.939 218.872 145.227 218.98 145.611 218.992C145.995 218.992 146.475 218.98 147.051 218.956V220C145.791 220.192 144.843 220.102 144.207 219.73C143.583 219.358 143.271 218.65 143.271 217.606V212.152H141.381V211H143.271V208.84L144.459 208.48V211H147.051V212.152ZM151.551 216.58C151.551 215.992 151.671 215.458 151.911 214.978C152.151 214.486 152.439 214.072 152.775 213.736C153.111 213.4 153.447 213.076 153.783 212.764C154.119 212.452 154.407 212.11 154.647 211.738C154.887 211.354 155.007 210.946 155.007 210.514C155.007 209.818 154.767 209.296 154.287 208.948C153.819 208.588 153.213 208.408 152.469 208.408C150.993 208.408 150.081 209.014 149.733 210.226L148.671 209.632C148.947 208.828 149.427 208.222 150.111 207.814C150.807 207.394 151.593 207.184 152.469 207.184C153.525 207.184 154.419 207.478 155.151 208.066C155.895 208.642 156.267 209.458 156.267 210.514C156.267 211.03 156.147 211.51 155.907 211.954C155.667 212.398 155.379 212.788 155.043 213.124C154.707 213.448 154.371 213.772 154.035 214.096C153.699 214.42 153.411 214.798 153.171 215.23C152.931 215.65 152.811 216.1 152.811 216.58H151.551ZM152.883 219.892C152.691 220.084 152.457 220.18 152.181 220.18C151.905 220.18 151.671 220.084 151.479 219.892C151.287 219.7 151.191 219.466 151.191 219.19C151.191 218.914 151.287 218.68 151.479 218.488C151.671 218.296 151.905 218.2 152.181 218.2C152.457 218.2 152.691 218.296 152.883 218.488C153.075 218.68 153.171 218.914 153.171 219.19C153.171 219.466 153.075 219.7 152.883 219.892Z" fill="#CDFFE3"></path> </svg> 