<?xml version="1.0" encoding="UTF-8"?> <svg xmlns="http://www.w3.org/2000/svg" width="400" height="600" viewBox="0 0 400 600" fill="none"><rect width="400" height="600" rx="20" fill="#EEBF38"></rect><path d="M47.296 84.136V101H42.88V78.6H48.032L61.536 95.464V78.6H65.952V101H60.8L47.296 84.136ZM80.4918 97.768C82.6678 97.768 84.6518 97.352 86.9237 96.168L88.1718 99.496C86.0278 100.584 83.0198 101.576 80.0758 101.576C74.1238 101.576 70.1878 97.8 70.1878 93C70.1878 87.656 74.7318 84.456 80.0758 84.456C84.9398 84.456 88.5878 87.624 88.5878 91.944C88.5878 92.648 88.4918 93.384 88.2998 94.12H74.5398C75.1478 96.456 77.4838 97.768 80.4918 97.768ZM79.8198 88.008C77.0677 88.008 75.2758 89.064 74.6358 91.016H84.3318C83.9158 89.128 82.3158 88.008 79.8198 88.008ZM94.39 85L99.638 96.232L104.822 85H109.526L101.942 101H97.302L89.75 85H94.39ZM121.179 97.768C123.355 97.768 125.339 97.352 127.611 96.168L128.859 99.496C126.715 100.584 123.707 101.576 120.763 101.576C114.811 101.576 110.875 97.8 110.875 93C110.875 87.656 115.419 84.456 120.763 84.456C125.627 84.456 129.275 87.624 129.275 91.944C129.275 92.648 129.179 93.384 128.987 94.12H115.227C115.835 96.456 118.171 97.768 121.179 97.768ZM120.507 88.008C117.755 88.008 115.963 89.064 115.323 91.016H125.019C124.603 89.128 123.003 88.008 120.507 88.008ZM142.982 84.456C143.878 84.456 144.87 84.712 145.67 85.096L144.774 88.936C144.006 88.584 143.174 88.392 142.566 88.392C139.91 88.392 137.062 90.12 137.062 93.064V101H132.838V85H137.062V88.552C137.99 86.824 140.198 84.456 142.982 84.456ZM166.436 88.424C163.78 88.424 161.124 89.896 161.124 93.064V101H156.9V77.288H161.124V88.552C162.244 86.472 164.612 84.52 167.652 84.52C172.004 84.52 174.5 87.4 174.5 91.752V101H170.276V92.264C170.276 89.992 168.964 88.424 166.436 88.424ZM184.75 91.88C186.478 91.88 188.75 92.392 190.126 92.872V91.016C190.126 89.352 189.038 88.232 187.022 88.232C185.358 88.232 182.926 88.968 180.59 89.832L179.534 85.992C181.518 85.352 184.878 84.36 187.406 84.36C191.79 84.36 194.35 86.696 194.35 91.08V96.84C194.35 97.32 194.67 97.608 195.118 97.608C195.598 97.608 196.43 97.256 197.358 96.776L198.222 100.04C196.462 101 194.542 101.64 193.23 101.64C191.086 101.64 190.19 100.136 190.126 98.344C188.59 100.168 186.158 101.64 183.438 101.64C180.43 101.64 178.19 99.656 178.19 96.776C178.19 93.352 181.454 91.88 184.75 91.88ZM184.814 98.024C186.414 98.024 188.622 97.16 190.126 95.688V95.08C188.366 94.76 186.51 94.6 184.974 94.6C183.566 94.6 182.51 95.272 182.51 96.424C182.51 97.48 183.47 98.024 184.814 98.024ZM202.859 85L208.107 96.232L213.291 85H217.995L210.411 101H205.771L198.219 85H202.859ZM229.648 97.768C231.824 97.768 233.808 97.352 236.08 96.168L237.328 99.496C235.184 100.584 232.176 101.576 229.232 101.576C223.28 101.576 219.344 97.8 219.344 93C219.344 87.656 223.888 84.456 229.232 84.456C234.096 84.456 237.744 87.624 237.744 91.944C237.744 92.648 237.648 93.384 237.456 94.12H223.696C224.304 96.456 226.64 97.768 229.648 97.768ZM228.976 88.008C226.224 88.008 224.432 89.064 223.792 91.016H233.488C233.072 89.128 231.472 88.008 228.976 88.008ZM255.265 78.6V101H250.849V78.6H255.265ZM278.867 97.768C281.043 97.768 283.027 97.352 285.299 96.168L286.547 99.496C284.403 100.584 281.395 101.576 278.451 101.576C272.499 101.576 268.563 97.8 268.563 93C268.563 87.656 273.107 84.456 278.451 84.456C283.315 84.456 286.963 87.624 286.963 91.944C286.963 92.648 286.867 93.384 286.675 94.12H272.915C273.523 96.456 275.859 97.768 278.867 97.768ZM278.195 88.008C275.443 88.008 273.651 89.064 273.011 91.016H282.707C282.291 89.128 280.691 88.008 278.195 88.008ZM292.765 85L298.013 96.232L303.197 85H307.901L300.317 101H295.677L288.125 85H292.765ZM319.554 97.768C321.73 97.768 323.714 97.352 325.986 96.168L327.234 99.496C325.09 100.584 322.082 101.576 319.138 101.576C313.186 101.576 309.25 97.8 309.25 93C309.25 87.656 313.794 84.456 319.138 84.456C324.002 84.456 327.65 87.624 327.65 91.944C327.65 92.648 327.554 93.384 327.362 94.12H313.602C314.21 96.456 316.546 97.768 319.554 97.768ZM318.882 88.008C316.13 88.008 314.338 89.064 313.698 91.016H323.394C322.978 89.128 321.378 88.008 318.882 88.008ZM341.357 84.456C342.253 84.456 343.245 84.712 344.045 85.096L343.149 88.936C342.381 88.584 341.549 88.392 340.941 88.392C338.285 88.392 335.437 90.12 335.437 93.064V101H331.213V85H335.437V88.552C336.365 86.824 338.573 84.456 341.357 84.456ZM46.592 141H42.4V117H46.592V141ZM60.296 124.456C65.64 124.456 70.248 127.496 70.248 132.84C70.248 137.64 66.088 141.576 60.296 141.576C54.504 141.576 50.344 137.64 50.344 132.84C50.344 127.496 54.952 124.456 60.296 124.456ZM60.296 128.136C56.968 128.136 54.6 129.864 54.6 132.84C54.6 135.528 57.128 137.928 60.296 137.928C63.464 137.928 65.992 135.528 65.992 132.84C65.992 129.864 63.624 128.136 60.296 128.136ZM88.1378 125.576L87.0178 129.288C84.9378 128.488 82.9538 128.072 80.9058 128.072C78.7938 128.072 77.1298 128.392 77.1298 129.352C77.1298 132.008 89.0338 129.8 89.0338 136.04C89.0338 139.624 84.7138 141.64 80.8098 141.64C77.8018 141.64 74.8258 140.712 72.6497 139.56L73.8978 136.232C76.0098 137.16 78.5058 137.928 80.9698 137.928C83.2738 137.928 84.8738 137.288 84.8738 136.168C84.8738 133.64 72.9698 135.752 72.9698 129.512C72.9698 126.376 76.2018 124.392 80.7458 124.392C83.2738 124.392 86.2498 124.936 88.1378 125.576ZM90.9525 128.68V125.32L94.1205 125.128L94.6965 120.2H98.2165V125H104.873V128.68H98.2165V134.728C98.2165 136.456 99.1445 137.64 100.809 137.64C102.057 137.64 103.465 137.128 104.489 136.488L105.417 140.104C104.073 140.808 101.801 141.544 100.105 141.544C96.1365 141.544 93.9925 138.92 93.9925 134.888V128.68H90.9525ZM127.921 124.52C130.929 124.52 132.881 126.024 133.777 128.424C135.057 126.504 137.617 124.52 140.305 124.52C144.465 124.52 146.673 127.368 146.673 131.592V141H142.449V132.104C142.449 129.992 141.201 128.424 138.865 128.424C136.657 128.424 134.289 129.992 134.289 133.032V141H130.065V132.104C130.065 129.992 128.817 128.424 126.481 128.424C124.273 128.424 121.905 129.96 121.905 133.032V141H117.681V125H121.905V128.392C122.961 126.504 125.137 124.52 127.921 124.52ZM168.746 125L161.034 142.312C159.498 145.736 158.026 149 153.514 149C153.29 149 152.586 148.936 152.042 148.84L152.266 144.776C152.842 144.872 153.482 144.936 153.706 144.936C155.402 144.936 156.298 143.176 157.098 141.384C157.098 141.32 157.162 141.256 157.162 141.224L148.906 125H153.514L159.242 136.424C160.906 132.552 162.666 128.424 164.106 125H168.746ZM191.317 124.456C195.701 124.456 199.381 127.656 199.381 132.84C199.381 137.64 195.349 141.576 189.973 141.576C188.213 141.576 186.005 140.936 184.437 140.456V148.68H180.213V125H184.437V128.552C185.493 126.344 188.053 124.456 191.317 124.456ZM190.069 128.392C187.22 128.392 184.437 130.12 184.437 133.064V136.904C186.26 137.448 188.053 137.864 190.037 137.864C192.789 137.864 195.125 135.528 195.125 132.84C195.125 129.96 192.917 128.392 190.069 128.392ZM208.719 131.88C210.447 131.88 212.719 132.392 214.095 132.872V131.016C214.095 129.352 213.007 128.232 210.991 128.232C209.327 128.232 206.895 128.968 204.559 129.832L203.503 125.992C205.487 125.352 208.847 124.36 211.375 124.36C215.759 124.36 218.319 126.696 218.319 131.08V136.84C218.319 137.32 218.639 137.608 219.087 137.608C219.567 137.608 220.399 137.256 221.327 136.776L222.191 140.04C220.431 141 218.511 141.64 217.199 141.64C215.055 141.64 214.159 140.136 214.095 138.344C212.559 140.168 210.127 141.64 207.407 141.64C204.399 141.64 202.159 139.656 202.159 136.776C202.159 133.352 205.423 131.88 208.719 131.88ZM208.783 138.024C210.383 138.024 212.591 137.16 214.095 135.688V135.08C212.335 134.76 210.479 134.6 208.943 134.6C207.535 134.6 206.479 135.272 206.479 136.424C206.479 137.48 207.439 138.024 208.783 138.024ZM238.732 125.576L237.612 129.288C235.532 128.488 233.548 128.072 231.5 128.072C229.388 128.072 227.724 128.392 227.724 129.352C227.724 132.008 239.628 129.8 239.628 136.04C239.628 139.624 235.308 141.64 231.404 141.64C228.396 141.64 225.42 140.712 223.243 139.56L224.492 136.232C226.604 137.16 229.1 137.928 231.564 137.928C233.868 137.928 235.468 137.288 235.468 136.168C235.468 133.64 223.564 135.752 223.564 129.512C223.564 126.376 226.796 124.392 231.34 124.392C233.868 124.392 236.844 124.936 238.732 125.576ZM257.45 125.576L256.33 129.288C254.25 128.488 252.266 128.072 250.218 128.072C248.106 128.072 246.442 128.392 246.442 129.352C246.442 132.008 258.346 129.8 258.346 136.04C258.346 139.624 254.026 141.64 250.122 141.64C247.114 141.64 244.138 140.712 241.962 139.56L243.21 136.232C245.322 137.16 247.818 137.928 250.282 137.928C252.586 137.928 254.186 137.288 254.186 136.168C254.186 133.64 242.282 135.752 242.282 129.512C242.282 126.376 245.514 124.392 250.058 124.392C252.586 124.392 255.562 124.936 257.45 125.576ZM273.129 124.456C277.513 124.456 281.193 127.656 281.193 132.84C281.193 137.64 277.161 141.576 271.785 141.576C270.025 141.576 267.817 140.936 266.249 140.456V148.68H262.025V125H266.249V128.552C267.305 126.344 269.865 124.456 273.129 124.456ZM271.881 128.392C269.033 128.392 266.249 130.12 266.249 133.064V136.904C268.073 137.448 269.865 137.864 271.849 137.864C274.601 137.864 276.937 135.528 276.937 132.84C276.937 129.96 274.729 128.392 271.881 128.392ZM293.827 124.456C299.171 124.456 303.779 127.496 303.779 132.84C303.779 137.64 299.619 141.576 293.827 141.576C288.035 141.576 283.875 137.64 283.875 132.84C283.875 127.496 288.483 124.456 293.827 124.456ZM293.827 128.136C290.499 128.136 288.131 129.864 288.131 132.84C288.131 135.528 290.659 137.928 293.827 137.928C296.995 137.928 299.523 135.528 299.523 132.84C299.523 129.864 297.155 128.136 293.827 128.136ZM317.669 124.456C318.565 124.456 319.557 124.712 320.357 125.096L319.461 128.936C318.693 128.584 317.861 128.392 317.253 128.392C314.597 128.392 311.749 130.12 311.749 133.064V141H307.525V125H311.749V128.552C312.677 126.824 314.885 124.456 317.669 124.456ZM320.765 128.68V125.32L323.933 125.128L324.509 120.2H328.029V125H334.685V128.68H328.029V134.728C328.029 136.456 328.957 137.64 330.621 137.64C331.869 137.64 333.277 137.128 334.301 136.488L335.229 140.104C333.885 140.808 331.613 141.544 329.917 141.544C325.949 141.544 323.805 138.92 323.805 134.888V128.68H320.765Z" fill="white"></path><path d="M41.44 205.4H46.3C48.016 205.4 49.432 206.012 50.548 207.236C51.676 208.436 52.24 209.924 52.24 211.7C52.24 213.476 51.676 214.97 50.548 216.182C49.432 217.394 48.016 218 46.3 218H41.44V205.4ZM42.7 216.812H46.3C47.68 216.812 48.808 216.32 49.684 215.336C50.572 214.34 51.016 213.128 51.016 211.7C51.016 210.272 50.572 209.06 49.684 208.064C48.808 207.08 47.68 206.588 46.3 206.588H42.7V216.812ZM55.6731 206.228C55.6731 206.468 55.5891 206.672 55.4211 206.84C55.2531 207.008 55.0491 207.092 54.8091 207.092C54.5691 207.092 54.3651 207.008 54.1971 206.84C54.0291 206.672 53.9451 206.468 53.9451 206.228C53.9451 205.988 54.0291 205.784 54.1971 205.616C54.3651 205.448 54.5691 205.364 54.8091 205.364C55.0491 205.364 55.2531 205.448 55.4211 205.616C55.5891 205.784 55.6731 205.988 55.6731 206.228ZM55.4031 218H54.2151V209H55.4031V218ZM65.6641 210.764V205.4H66.8521V218H65.6641V216.236C64.8361 217.556 63.6241 218.216 62.0281 218.216C60.7441 218.216 59.6461 217.76 58.7341 216.848C57.8341 215.936 57.3841 214.82 57.3841 213.5C57.3841 212.18 57.8341 211.064 58.7341 210.152C59.6461 209.24 60.7441 208.784 62.0281 208.784C63.6241 208.784 64.8361 209.444 65.6641 210.764ZM59.5981 216.038C60.2821 216.722 61.1221 217.064 62.1181 217.064C63.1141 217.064 63.9541 216.722 64.6381 216.038C65.3221 215.33 65.6641 214.484 65.6641 213.5C65.6641 212.504 65.3221 211.664 64.6381 210.98C63.9541 210.284 63.1141 209.936 62.1181 209.936C61.1221 209.936 60.2821 210.284 59.5981 210.98C58.9141 211.664 58.5721 212.504 58.5721 213.5C58.5721 214.484 58.9141 215.33 59.5981 216.038ZM77.4314 216.542L80.3474 209H81.6074L77.7554 218.828C77.3954 219.74 76.8914 220.442 76.2434 220.934C75.6074 221.438 74.8994 221.66 74.1194 221.6V220.484C75.1994 220.616 76.0214 219.992 76.5854 218.612L76.8194 218.054L72.7874 209H74.0474L77.4314 216.542ZM90.2336 216.866C89.3096 217.766 88.1936 218.216 86.8856 218.216C85.5536 218.216 84.4316 217.766 83.5196 216.866C82.6076 215.954 82.1516 214.832 82.1516 213.5C82.1516 212.168 82.6076 211.052 83.5196 210.152C84.4316 209.24 85.5536 208.784 86.8856 208.784C88.2056 208.784 89.3216 209.24 90.2336 210.152C91.1576 211.052 91.6196 212.168 91.6196 213.5C91.6196 214.82 91.1576 215.942 90.2336 216.866ZM84.3656 216.038C85.0496 216.722 85.8896 217.064 86.8856 217.064C87.8816 217.064 88.7216 216.722 89.4056 216.038C90.0896 215.33 90.4316 214.484 90.4316 213.5C90.4316 212.504 90.0896 211.664 89.4056 210.98C88.7216 210.284 87.8816 209.936 86.8856 209.936C85.8896 209.936 85.0496 210.284 84.3656 210.98C83.6816 211.664 83.3396 212.504 83.3396 213.5C83.3396 214.484 83.6816 215.33 84.3656 216.038ZM99.9437 213.716V209H101.132V218H99.9437V216.596C99.2717 217.676 98.2637 218.216 96.9197 218.216C95.8397 218.216 94.9817 217.886 94.3457 217.226C93.7097 216.554 93.3917 215.654 93.3917 214.526V209H94.5797V214.526C94.5797 215.33 94.7897 215.954 95.2097 216.398C95.6417 216.842 96.2477 217.064 97.0277 217.064C97.9277 217.064 98.6357 216.782 99.1517 216.218C99.6797 215.654 99.9437 214.82 99.9437 213.716ZM110.053 209H114.913V218H113.725V210.152H110.053V218H108.865V210.152H107.335V209H108.865V208.64C108.865 206.336 110.125 205.184 112.645 205.184C113.149 205.184 113.725 205.256 114.373 205.4V206.48C113.773 206.384 113.197 206.336 112.645 206.336C111.733 206.336 111.073 206.516 110.665 206.876C110.257 207.224 110.053 207.812 110.053 208.64V209ZM121.638 208.784C122.718 208.784 123.576 209.12 124.212 209.792C124.848 210.452 125.166 211.346 125.166 212.474V218H123.978V212.474C123.978 211.67 123.762 211.046 123.33 210.602C122.91 210.158 122.31 209.936 121.53 209.936C120.63 209.936 119.916 210.218 119.388 210.782C118.872 211.346 118.614 212.18 118.614 213.284V218H117.426V209H118.614V210.404C119.286 209.324 120.294 208.784 121.638 208.784ZM135.203 210.764V205.4H136.391V218H135.203V216.236C134.375 217.556 133.163 218.216 131.567 218.216C130.283 218.216 129.185 217.76 128.273 216.848C127.373 215.936 126.923 214.82 126.923 213.5C126.923 212.18 127.373 211.064 128.273 210.152C129.185 209.24 130.283 208.784 131.567 208.784C133.163 208.784 134.375 209.444 135.203 210.764ZM129.137 216.038C129.821 216.722 130.661 217.064 131.657 217.064C132.653 217.064 133.493 216.722 134.177 216.038C134.861 215.33 135.203 214.484 135.203 213.5C135.203 212.504 134.861 211.664 134.177 210.98C133.493 210.284 132.653 209.936 131.657 209.936C130.661 209.936 129.821 210.284 129.137 210.98C128.453 211.664 128.111 212.504 128.111 213.5C128.111 214.484 128.453 215.33 129.137 216.038ZM144.864 206.228C144.864 206.468 144.78 206.672 144.612 206.84C144.444 207.008 144.24 207.092 144 207.092C143.76 207.092 143.556 207.008 143.388 206.84C143.22 206.672 143.136 206.468 143.136 206.228C143.136 205.988 143.22 205.784 143.388 205.616C143.556 205.448 143.76 205.364 144 205.364C144.24 205.364 144.444 205.448 144.612 205.616C144.78 205.784 144.864 205.988 144.864 206.228ZM144.594 218H143.406V209H144.594V218ZM151.885 209V210.152H149.293V215.606C149.293 216.098 149.389 216.452 149.581 216.668C149.773 216.872 150.061 216.98 150.445 216.992C150.829 216.992 151.309 216.98 151.885 216.956V218C150.601 218.192 149.647 218.102 149.023 217.73C148.411 217.346 148.105 216.638 148.105 215.606V210.152H146.215V209H148.105V206.84L149.293 206.48V209H151.885ZM157.645 214.58H156.385C156.385 213.5 156.793 212.552 157.609 211.736C157.705 211.64 157.897 211.454 158.185 211.178C158.485 210.902 158.701 210.692 158.833 210.548C158.965 210.404 159.127 210.212 159.319 209.972C159.511 209.72 159.643 209.48 159.715 209.252C159.799 209.012 159.841 208.766 159.841 208.514C159.841 207.842 159.607 207.326 159.139 206.966C158.683 206.594 158.071 206.408 157.303 206.408C155.827 206.408 154.915 207.014 154.567 208.226L153.505 207.632C153.781 206.852 154.255 206.252 154.927 205.832C155.611 205.4 156.403 205.184 157.303 205.184C158.359 205.184 159.253 205.478 159.985 206.066C160.729 206.642 161.101 207.458 161.101 208.514C161.101 209.438 160.693 210.308 159.877 211.124C159.829 211.16 159.685 211.292 159.445 211.52C159.217 211.736 159.067 211.886 158.995 211.97C158.923 212.042 158.791 212.18 158.599 212.384C158.407 212.588 158.275 212.756 158.203 212.888C158.131 213.02 158.041 213.188 157.933 213.392C157.825 213.584 157.747 213.782 157.699 213.986C157.663 214.178 157.645 214.376 157.645 214.58ZM158.005 217.19C158.005 217.466 157.909 217.7 157.717 217.892C157.525 218.084 157.291 218.18 157.015 218.18C156.739 218.18 156.505 218.084 156.313 217.892C156.121 217.7 156.025 217.466 156.025 217.19C156.025 216.914 156.121 216.68 156.313 216.488C156.505 216.296 156.739 216.2 157.015 216.2C157.291 216.2 157.525 216.296 157.717 216.488C157.909 216.68 158.005 216.914 158.005 217.19Z" fill="#FFFAED"></path></svg> 