<?xml version="1.0" encoding="UTF-8"?> <svg xmlns="http://www.w3.org/2000/svg" width="400" height="600" viewBox="0 0 400 600" fill="none"> <rect width="400" height="600" rx="20" fill="#36BB71"></rect> <path d="M47.296 84.136L60.8 101H65.952V78.6H61.536V95.464L48.032 78.6H42.88V101H47.296V84.136ZM80.4918 97.768C77.4838 97.768 75.1478 96.456 74.5398 94.12H88.2998C88.4918 93.384 88.5878 92.648 88.5878 91.944C88.5878 87.624 84.9398 84.456 80.0758 84.456C74.7318 84.456 70.1878 87.656 70.1878 93C70.1878 97.8 74.1238 101.576 80.0758 101.576C83.0198 101.576 86.0278 100.584 88.1718 99.496L86.9237 96.168C84.6518 97.352 82.6678 97.768 80.4918 97.768ZM79.8198 88.008C82.3158 88.008 83.9158 89.128 84.3318 91.016H74.6358C75.2758 89.064 77.0677 88.008 79.8198 88.008ZM94.39 85H89.75L97.302 101H101.942L109.526 85H104.822L99.638 96.232L94.39 85ZM121.179 97.768C118.171 97.768 115.835 96.456 115.227 94.12H128.987C129.179 93.384 129.275 92.648 129.275 91.944C129.275 87.624 125.627 84.456 120.763 84.456C115.419 84.456 110.875 87.656 110.875 93C110.875 97.8 114.811 101.576 120.763 101.576C123.707 101.576 126.715 100.584 128.859 99.496L127.611 96.168C125.339 97.352 123.355 97.768 121.179 97.768ZM120.507 88.008C123.003 88.008 124.603 89.128 125.019 91.016H115.323C115.963 89.064 117.755 88.008 120.507 88.008ZM142.982 84.456C140.198 84.456 137.99 86.824 137.062 88.552V85H132.838V101H137.062V93.064C137.062 90.12 139.91 88.392 142.566 88.392C143.174 88.392 144.006 88.584 144.774 88.936L145.67 85.096C144.87 84.712 143.878 84.456 142.982 84.456ZM166.436 88.424C168.964 88.424 170.276 89.992 170.276 92.264V101H174.5V91.752C174.5 87.4 172.004 84.52 167.652 84.52C164.612 84.52 162.244 86.472 161.124 88.552V77.288H156.9V101H161.124V93.064C161.124 89.896 163.78 88.424 166.436 88.424ZM184.75 91.88C181.454 91.88 178.19 93.352 178.19 96.776C178.19 99.656 180.43 101.64 183.438 101.64C186.158 101.64 188.59 100.168 190.126 98.344C190.19 100.136 191.086 101.64 193.23 101.64C194.542 101.64 196.462 101 198.222 100.04L197.358 96.776C196.43 97.256 195.598 97.608 195.118 97.608C194.67 97.608 194.35 97.32 194.35 96.84V91.08C194.35 86.696 191.79 84.36 187.406 84.36C184.878 84.36 181.518 85.352 179.534 85.992L180.59 89.832C182.926 88.968 185.358 88.232 187.022 88.232C189.038 88.232 190.126 89.352 190.126 91.016V92.872C188.75 92.392 186.478 91.88 184.75 91.88ZM184.814 98.024C183.47 98.024 182.51 97.48 182.51 96.424C182.51 95.272 183.566 94.6 184.974 94.6C186.51 94.6 188.366 94.76 190.126 95.08V95.688C188.622 97.16 186.414 98.024 184.814 98.024ZM202.859 85H198.219L205.771 101H210.411L217.995 85H213.291L208.107 96.232L202.859 85ZM229.648 97.768C226.64 97.768 224.304 96.456 223.696 94.12H237.456C237.648 93.384 237.744 92.648 237.744 91.944C237.744 87.624 234.096 84.456 229.232 84.456C223.888 84.456 219.344 87.656 219.344 93C219.344 97.8 223.28 101.576 229.232 101.576C232.176 101.576 235.184 100.584 237.328 99.496L236.08 96.168C233.808 97.352 231.824 97.768 229.648 97.768ZM228.976 88.008C231.472 88.008 233.072 89.128 233.488 91.016H223.792C224.432 89.064 226.224 88.008 228.976 88.008ZM255.265 78.6H250.849V101H255.265V78.6ZM278.867 97.768C275.859 97.768 273.523 96.456 272.915 94.12H286.675C286.867 93.384 286.963 92.648 286.963 91.944C286.963 87.624 283.315 84.456 278.451 84.456C273.107 84.456 268.563 87.656 268.563 93C268.563 97.8 272.499 101.576 278.451 101.576C281.395 101.576 284.403 100.584 286.547 99.496L285.299 96.168C283.027 97.352 281.043 97.768 278.867 97.768ZM278.195 88.008C280.691 88.008 282.291 89.128 282.707 91.016H273.011C273.651 89.064 275.443 88.008 278.195 88.008ZM292.765 85H288.125L295.677 101H300.317L307.901 85H303.197L298.013 96.232L292.765 85ZM319.554 97.768C316.546 97.768 314.21 96.456 313.602 94.12H327.362C327.554 93.384 327.65 92.648 327.65 91.944C327.65 87.624 324.002 84.456 319.138 84.456C313.794 84.456 309.25 87.656 309.25 93C309.25 97.8 313.186 101.576 319.138 101.576C322.082 101.576 325.09 100.584 327.234 99.496L325.986 96.168C323.714 97.352 321.73 97.768 319.554 97.768ZM318.882 88.008C321.378 88.008 322.978 89.128 323.394 91.016H313.698C314.338 89.064 316.13 88.008 318.882 88.008ZM341.357 84.456C338.573 84.456 336.365 86.824 335.437 88.552V85H331.213V101H335.437V93.064C335.437 90.12 338.285 88.392 340.941 88.392C341.549 88.392 342.381 88.584 343.149 88.936L344.045 85.096C343.245 84.712 342.253 84.456 341.357 84.456ZM51.936 128.424C54.464 128.424 55.776 129.992 55.776 132.264V141H60V131.752C60 127.4 57.504 124.52 53.152 124.52C50.112 124.52 47.744 126.472 46.624 128.552V117.288H42.4V141H46.624V133.064C46.624 129.896 49.28 128.424 51.936 128.424ZM70.25 131.88C66.954 131.88 63.69 133.352 63.69 136.776C63.69 139.656 65.93 141.64 68.938 141.64C71.658 141.64 74.09 140.168 75.626 138.344C75.69 140.136 76.586 141.64 78.73 141.64C80.042 141.64 81.962 141 83.722 140.04L82.858 136.776C81.93 137.256 81.098 137.608 80.618 137.608C80.17 137.608 79.85 137.32 79.85 136.84V131.08C79.85 126.696 77.29 124.36 72.906 124.36C70.378 124.36 67.018 125.352 65.034 125.992L66.09 129.832C68.426 128.968 70.858 128.232 72.522 128.232C74.538 128.232 75.626 129.352 75.626 131.016V132.872C74.25 132.392 71.978 131.88 70.25 131.88ZM70.314 138.024C68.97 138.024 68.01 137.48 68.01 136.424C68.01 135.272 69.066 134.6 70.474 134.6C72.01 134.6 73.866 134.76 75.626 135.08V135.688C74.122 137.16 71.914 138.024 70.314 138.024ZM93.1267 141.544C96.3908 141.544 98.9508 139.656 100.007 137.448V141H104.231V117H100.007V125.576C98.4068 125.064 96.1988 124.424 94.4708 124.424C89.0948 124.424 85.0628 128.36 85.0628 133.16C85.0628 138.344 88.7428 141.544 93.1267 141.544ZM94.3748 137.608C91.5268 137.608 89.3188 136.008 89.3188 133.128C89.3188 130.312 91.5268 128.136 94.4068 128.136C96.3588 128.136 98.1508 128.552 100.007 129.096V132.552C100.007 135.624 97.1908 137.608 94.3748 137.608ZM123.688 131.88C120.391 131.88 117.128 133.352 117.128 136.776C117.128 139.656 119.368 141.64 122.376 141.64C125.095 141.64 127.528 140.168 129.064 138.344C129.128 140.136 130.024 141.64 132.168 141.64C133.48 141.64 135.4 141 137.16 140.04L136.296 136.776C135.368 137.256 134.536 137.608 134.056 137.608C133.608 137.608 133.288 137.32 133.288 136.84V131.08C133.288 126.696 130.728 124.36 126.344 124.36C123.816 124.36 120.456 125.352 118.472 125.992L119.528 129.832C121.864 128.968 124.296 128.232 125.96 128.232C127.976 128.232 129.064 129.352 129.064 131.016V132.872C127.688 132.392 125.416 131.88 123.688 131.88ZM123.752 138.024C122.408 138.024 121.448 137.48 121.448 136.424C121.448 135.272 122.504 134.6 123.911 134.6C125.448 134.6 127.304 134.76 129.064 135.08V135.688C127.56 137.16 125.352 138.024 123.752 138.024ZM158.155 128.424C160.683 128.424 161.995 129.992 161.995 132.264V141H166.219V131.752C166.219 127.4 163.723 124.52 159.371 124.52C156.331 124.52 153.963 126.472 152.843 128.552V117.288H148.619V141H152.843V133.064C152.843 129.896 155.499 128.424 158.155 128.424ZM179.765 124.456C174.421 124.456 169.813 127.496 169.813 132.84C169.813 137.64 173.973 141.576 179.765 141.576C185.557 141.576 189.717 137.64 189.717 132.84C189.717 127.496 185.109 124.456 179.765 124.456ZM179.765 128.136C183.093 128.136 185.461 129.864 185.461 132.84C185.461 135.528 182.933 137.928 179.765 137.928C176.597 137.928 174.069 135.528 174.069 132.84C174.069 129.864 176.437 128.136 179.765 128.136ZM197.655 141V117H193.463V141H197.655ZM206.687 125H202.527V141H206.687V125ZM202.079 120.392C202.079 121.8 203.199 122.92 204.607 122.92C206.015 122.92 207.135 121.8 207.135 120.392C207.135 119.016 206.015 117.896 204.607 117.896C203.199 117.896 202.079 119.016 202.079 120.392ZM218.564 141.544C221.828 141.544 224.388 139.656 225.444 137.448V141H229.668V117H225.444V125.576C223.844 125.064 221.636 124.424 219.908 124.424C214.532 124.424 210.5 128.36 210.5 133.16C210.5 138.344 214.18 141.544 218.564 141.544ZM219.812 137.608C216.964 137.608 214.756 136.008 214.756 133.128C214.756 130.312 216.964 128.136 219.844 128.136C221.796 128.136 223.588 128.552 225.444 129.096V132.552C225.444 135.624 222.628 137.608 219.812 137.608ZM240.062 131.88C236.766 131.88 233.503 133.352 233.503 136.776C233.503 139.656 235.743 141.64 238.751 141.64C241.47 141.64 243.903 140.168 245.439 138.344C245.503 140.136 246.399 141.64 248.543 141.64C249.855 141.64 251.775 141 253.535 140.04L252.671 136.776C251.743 137.256 250.911 137.608 250.431 137.608C249.983 137.608 249.663 137.32 249.663 136.84V131.08C249.663 126.696 247.103 124.36 242.719 124.36C240.191 124.36 236.831 125.352 234.847 125.992L235.903 129.832C238.239 128.968 240.671 128.232 242.335 128.232C244.351 128.232 245.439 129.352 245.439 131.016V132.872C244.063 132.392 241.791 131.88 240.062 131.88ZM240.127 138.024C238.783 138.024 237.823 137.48 237.823 136.424C237.823 135.272 238.879 134.6 240.286 134.6C241.823 134.6 243.679 134.76 245.439 135.08V135.688C243.935 137.16 241.727 138.024 240.127 138.024ZM273.371 125H268.731C267.291 128.424 265.531 132.552 263.867 136.424L258.139 125H253.531L261.787 141.224C261.787 141.256 261.723 141.32 261.723 141.384C260.923 143.176 260.027 144.936 258.331 144.936C258.107 144.936 257.467 144.872 256.891 144.776L256.667 148.84C257.211 148.936 257.915 149 258.139 149C262.651 149 264.123 145.736 265.659 142.312L273.371 125ZM52.544 164.456C49.76 164.456 47.552 166.824 46.624 168.552V165H42.4V181H46.624V173.064C46.624 170.12 49.472 168.392 52.128 168.392C52.736 168.392 53.568 168.584 54.336 168.936L55.232 165.096C54.432 164.712 53.44 164.456 52.544 164.456ZM66.296 164.456C60.952 164.456 56.344 167.496 56.344 172.84C56.344 177.64 60.504 181.576 66.296 181.576C72.088 181.576 76.248 177.64 76.248 172.84C76.248 167.496 71.64 164.456 66.296 164.456ZM66.296 168.136C69.624 168.136 71.992 169.864 71.992 172.84C71.992 175.528 69.464 177.928 66.296 177.928C63.128 177.928 60.6 175.528 60.6 172.84C60.6 169.864 62.968 168.136 66.296 168.136ZM90.2338 164.52C87.4498 164.52 85.2738 166.504 84.2178 168.392V165H79.9938V181H84.2178V173.032C84.2178 169.96 86.5858 168.424 88.7938 168.424C91.1298 168.424 92.3778 169.992 92.3778 172.104V181H96.6018V173.032C96.6018 169.992 98.9698 168.424 101.178 168.424C103.514 168.424 104.762 169.992 104.762 172.104V181H108.986V171.592C108.986 167.368 106.778 164.52 102.618 164.52C99.9298 164.52 97.3698 166.504 96.0898 168.424C95.1938 166.024 93.2418 164.52 90.2338 164.52ZM119.219 171.88C115.923 171.88 112.659 173.352 112.659 176.776C112.659 179.656 114.899 181.64 117.907 181.64C120.627 181.64 123.059 180.168 124.595 178.344C124.659 180.136 125.555 181.64 127.699 181.64C129.011 181.64 130.931 181 132.691 180.04L131.827 176.776C130.899 177.256 130.067 177.608 129.587 177.608C129.139 177.608 128.819 177.32 128.819 176.84V171.08C128.819 166.696 126.259 164.36 121.875 164.36C119.347 164.36 115.987 165.352 114.003 165.992L115.059 169.832C117.395 168.968 119.827 168.232 121.491 168.232C123.507 168.232 124.595 169.352 124.595 171.016V172.872C123.219 172.392 120.947 171.88 119.219 171.88ZM119.283 178.024C117.939 178.024 116.979 177.48 116.979 176.424C116.979 175.272 118.035 174.6 119.443 174.6C120.979 174.6 122.835 174.76 124.595 175.08V175.688C123.091 177.16 120.883 178.024 119.283 178.024ZM144.624 168.424C147.152 168.424 148.464 169.992 148.464 172.264V181H152.688V171.752C152.688 167.4 150.192 164.52 145.84 164.52C142.8 164.52 140.432 166.472 139.312 168.552V165H135.088V181H139.312V173.064C139.312 169.896 141.968 168.424 144.624 168.424ZM166.17 164.456C160.826 164.456 156.282 167.656 156.282 173C156.282 177.8 159.93 181.576 165.882 181.576C168.89 181.576 171.642 180.648 173.818 179.496L172.569 176.168C170.458 177.096 168.762 177.768 166.426 177.768C163.098 177.768 160.538 175.912 160.538 172.84C160.538 169.928 162.842 168.168 165.914 168.168C168.09 168.168 169.946 168.616 172.154 169.512L173.178 165.736C171.258 165.064 168.826 164.456 166.17 164.456ZM186.273 177.768C183.265 177.768 180.929 176.456 180.321 174.12H194.081C194.273 173.384 194.369 172.648 194.369 171.944C194.369 167.624 190.721 164.456 185.857 164.456C180.513 164.456 175.969 167.656 175.969 173C175.969 177.8 179.905 181.576 185.857 181.576C188.801 181.576 191.809 180.584 193.953 179.496L192.705 176.168C190.433 177.352 188.449 177.768 186.273 177.768ZM185.601 168.008C188.097 168.008 189.697 169.128 190.113 171.016H180.417C181.057 169.064 182.849 168.008 185.601 168.008Z" fill="#CDFFE3"></path> <path d="M46.3 247.4C48.016 247.4 49.432 248.012 50.548 249.236C51.676 250.448 52.24 251.936 52.24 253.7C52.24 255.464 51.676 256.958 50.548 258.182C49.432 259.394 48.016 260 46.3 260H41.44V247.4H46.3ZM46.3 258.812C47.68 258.812 48.808 258.32 49.684 257.336C50.572 256.352 51.016 255.14 51.016 253.7C51.016 252.26 50.572 251.048 49.684 250.064C48.808 249.08 47.68 248.588 46.3 248.588H42.7V258.812H46.3ZM55.4211 248.84C55.2531 249.008 55.0491 249.092 54.8091 249.092C54.5691 249.092 54.3651 249.008 54.1971 248.84C54.0291 248.672 53.9451 248.468 53.9451 248.228C53.9451 247.988 54.0291 247.784 54.1971 247.616C54.3651 247.448 54.5691 247.364 54.8091 247.364C55.0491 247.364 55.2531 247.448 55.4211 247.616C55.5891 247.784 55.6731 247.988 55.6731 248.228C55.6731 248.468 55.5891 248.672 55.4211 248.84ZM54.2151 260V251H55.4031V260H54.2151ZM65.6641 247.4H66.8521V260H65.6641V258.236C64.8361 259.556 63.6241 260.216 62.0281 260.216C60.7441 260.216 59.6461 259.76 58.7341 258.848C57.8341 257.936 57.3841 256.82 57.3841 255.5C57.3841 254.18 57.8341 253.064 58.7341 252.152C59.6461 251.24 60.7441 250.784 62.0281 250.784C63.6241 250.784 64.8361 251.444 65.6641 252.764V247.4ZM59.5981 258.038C60.2821 258.722 61.1221 259.064 62.1181 259.064C63.1141 259.064 63.9541 258.722 64.6381 258.038C65.3221 257.342 65.6641 256.496 65.6641 255.5C65.6641 254.504 65.3221 253.664 64.6381 252.98C63.9541 252.284 63.1141 251.936 62.1181 251.936C61.1221 251.936 60.2821 252.284 59.5981 252.98C58.9141 253.664 58.5721 254.504 58.5721 255.5C58.5721 256.496 58.9141 257.342 59.5981 258.038ZM80.3474 251H81.6074L77.7554 260.828C77.4074 261.716 76.9094 262.412 76.2614 262.916C75.6254 263.432 74.9114 263.66 74.1194 263.6V262.484C75.1994 262.604 76.0214 261.98 76.5854 260.612L76.8194 260.054L72.7874 251H74.0474L77.4314 258.542L80.3474 251ZM90.2336 258.866C89.3216 259.766 88.2056 260.216 86.8856 260.216C85.5656 260.216 84.4436 259.766 83.5196 258.866C82.6076 257.954 82.1516 256.832 82.1516 255.5C82.1516 254.168 82.6076 253.052 83.5196 252.152C84.4436 251.24 85.5656 250.784 86.8856 250.784C88.2056 250.784 89.3216 251.24 90.2336 252.152C91.1576 253.052 91.6196 254.168 91.6196 255.5C91.6196 256.832 91.1576 257.954 90.2336 258.866ZM84.3656 258.038C85.0496 258.722 85.8896 259.064 86.8856 259.064C87.8816 259.064 88.7216 258.722 89.4056 258.038C90.0896 257.342 90.4316 256.496 90.4316 255.5C90.4316 254.504 90.0896 253.664 89.4056 252.98C88.7216 252.284 87.8816 251.936 86.8856 251.936C85.8896 251.936 85.0496 252.284 84.3656 252.98C83.6816 253.664 83.3396 254.504 83.3396 255.5C83.3396 256.496 83.6816 257.342 84.3656 258.038ZM99.9437 251H101.132V260H99.9437V258.596C99.2717 259.676 98.2637 260.216 96.9197 260.216C95.8277 260.216 94.9637 259.886 94.3277 259.226C93.7037 258.554 93.3917 257.654 93.3917 256.526V251H94.5797V256.526C94.5797 257.33 94.7897 257.954 95.2097 258.398C95.6417 258.842 96.2477 259.064 97.0277 259.064C97.8917 259.064 98.5937 258.794 99.1337 258.254C99.6737 257.702 99.9437 256.856 99.9437 255.716V251ZM115.417 260H113.833L109.333 255.662V260H108.145V247.4H109.333V254.978L113.617 251H115.237L110.593 255.32L115.417 260ZM120.301 250.784C121.633 250.784 122.707 251.258 123.523 252.206C124.351 253.142 124.765 254.252 124.765 255.536C124.765 255.668 124.753 255.854 124.729 256.094H116.827C116.947 257.006 117.331 257.732 117.979 258.272C118.639 258.8 119.449 259.064 120.409 259.064C121.093 259.064 121.681 258.926 122.173 258.65C122.677 258.362 123.055 257.99 123.307 257.534L124.351 258.146C123.955 258.782 123.415 259.286 122.731 259.658C122.047 260.03 121.267 260.216 120.391 260.216C118.975 260.216 117.823 259.772 116.935 258.884C116.047 257.996 115.603 256.868 115.603 255.5C115.603 254.156 116.041 253.034 116.917 252.134C117.793 251.234 118.921 250.784 120.301 250.784ZM120.301 251.936C119.365 251.936 118.579 252.218 117.943 252.782C117.319 253.334 116.947 254.054 116.827 254.942H123.541C123.421 253.994 123.055 253.256 122.443 252.728C121.831 252.2 121.117 251.936 120.301 251.936ZM130.813 250.784C132.145 250.784 133.219 251.258 134.035 252.206C134.863 253.142 135.277 254.252 135.277 255.536C135.277 255.668 135.265 255.854 135.241 256.094H127.339C127.459 257.006 127.843 257.732 128.491 258.272C129.151 258.8 129.961 259.064 130.921 259.064C131.605 259.064 132.193 258.926 132.685 258.65C133.189 258.362 133.567 257.99 133.819 257.534L134.863 258.146C134.467 258.782 133.927 259.286 133.243 259.658C132.559 260.03 131.779 260.216 130.903 260.216C129.487 260.216 128.335 259.772 127.447 258.884C126.559 257.996 126.115 256.868 126.115 255.5C126.115 254.156 126.553 253.034 127.429 252.134C128.305 251.234 129.433 250.784 130.813 250.784ZM130.813 251.936C129.877 251.936 129.091 252.218 128.455 252.782C127.831 253.334 127.459 254.054 127.339 254.942H134.053C133.933 253.994 133.567 253.256 132.955 252.728C132.343 252.2 131.629 251.936 130.813 251.936ZM141.99 250.784C143.274 250.784 144.366 251.24 145.266 252.152C146.178 253.064 146.634 254.18 146.634 255.5C146.634 256.82 146.178 257.936 145.266 258.848C144.366 259.76 143.274 260.216 141.99 260.216C140.394 260.216 139.182 259.556 138.354 258.236V263.6H137.166V251H138.354V252.764C139.182 251.444 140.394 250.784 141.99 250.784ZM139.38 258.038C140.064 258.722 140.904 259.064 141.9 259.064C142.896 259.064 143.736 258.722 144.42 258.038C145.104 257.342 145.446 256.496 145.446 255.5C145.446 254.504 145.104 253.664 144.42 252.98C143.736 252.284 142.896 251.936 141.9 251.936C140.904 251.936 140.064 252.284 139.38 252.98C138.696 253.664 138.354 254.504 138.354 255.5C138.354 256.496 138.696 257.342 139.38 258.038ZM160.85 247.4H162.038V260H160.85V258.236C160.022 259.556 158.81 260.216 157.214 260.216C155.93 260.216 154.832 259.76 153.92 258.848C153.02 257.936 152.57 256.82 152.57 255.5C152.57 254.18 153.02 253.064 153.92 252.152C154.832 251.24 155.93 250.784 157.214 250.784C158.81 250.784 160.022 251.444 160.85 252.764V247.4ZM154.784 258.038C155.468 258.722 156.308 259.064 157.304 259.064C158.3 259.064 159.14 258.722 159.824 258.038C160.508 257.342 160.85 256.496 160.85 255.5C160.85 254.504 160.508 253.664 159.824 252.98C159.14 252.284 158.3 251.936 157.304 251.936C156.308 251.936 155.468 252.284 154.784 252.98C154.1 253.664 153.758 254.504 153.758 255.5C153.758 256.496 154.1 257.342 154.784 258.038ZM172.293 251H173.481V260H172.293V258.236C171.465 259.556 170.253 260.216 168.657 260.216C167.373 260.216 166.275 259.76 165.363 258.848C164.463 257.936 164.013 256.82 164.013 255.5C164.013 254.18 164.463 253.064 165.363 252.152C166.275 251.24 167.373 250.784 168.657 250.784C170.253 250.784 171.465 251.444 172.293 252.764V251ZM166.227 258.038C166.911 258.722 167.751 259.064 168.747 259.064C169.743 259.064 170.583 258.722 171.267 258.038C171.951 257.342 172.293 256.496 172.293 255.5C172.293 254.504 171.951 253.664 171.267 252.98C170.583 252.284 169.743 251.936 168.747 251.936C167.751 251.936 166.911 252.284 166.227 252.98C165.543 253.664 165.201 254.504 165.201 255.5C165.201 256.496 165.543 257.342 166.227 258.038ZM180.766 252.152H178.174V257.606C178.174 258.098 178.27 258.452 178.462 258.668C178.654 258.872 178.942 258.98 179.326 258.992C179.71 258.992 180.19 258.98 180.766 258.956V260C179.506 260.192 178.558 260.102 177.922 259.73C177.298 259.358 176.986 258.65 176.986 257.606V252.152H175.096V251H176.986V248.84L178.174 248.48V251H180.766V252.152ZM183.952 248.84C183.784 249.008 183.58 249.092 183.34 249.092C183.1 249.092 182.896 249.008 182.728 248.84C182.56 248.672 182.476 248.468 182.476 248.228C182.476 247.988 182.56 247.784 182.728 247.616C182.896 247.448 183.1 247.364 183.34 247.364C183.58 247.364 183.784 247.448 183.952 247.616C184.12 247.784 184.204 247.988 184.204 248.228C184.204 248.468 184.12 248.672 183.952 248.84ZM182.746 260V251H183.934V260H182.746ZM190.667 250.784C191.759 250.784 192.617 251.12 193.241 251.792C193.877 252.452 194.195 253.346 194.195 254.474V260H193.007V254.474C193.007 253.67 192.791 253.046 192.359 252.602C191.939 252.158 191.339 251.936 190.559 251.936C189.695 251.936 188.993 252.212 188.453 252.764C187.913 253.304 187.643 254.144 187.643 255.284V260H186.455V251H187.643V252.404C188.315 251.324 189.323 250.784 190.667 250.784ZM204.232 251H205.42V259.64C205.42 260.936 204.976 261.956 204.088 262.7C203.2 263.444 202.138 263.816 200.902 263.816C198.79 263.816 197.368 263.084 196.636 261.62L197.68 261.026C198.22 262.118 199.294 262.664 200.902 262.664C201.934 262.664 202.744 262.388 203.332 261.836C203.932 261.296 204.232 260.564 204.232 259.64V258.236C203.404 259.556 202.192 260.216 200.596 260.216C199.312 260.216 198.214 259.76 197.302 258.848C196.402 257.936 195.952 256.82 195.952 255.5C195.952 254.18 196.402 253.064 197.302 252.152C198.214 251.24 199.312 250.784 200.596 250.784C202.192 250.784 203.404 251.444 204.232 252.764V251ZM198.166 258.038C198.85 258.722 199.69 259.064 200.686 259.064C201.682 259.064 202.522 258.722 203.206 258.038C203.89 257.342 204.232 256.496 204.232 255.5C204.232 254.504 203.89 253.664 203.206 252.98C202.522 252.284 201.682 251.936 200.686 251.936C199.69 251.936 198.85 252.284 198.166 252.98C197.482 253.664 197.14 254.504 197.14 255.5C197.14 256.496 197.482 257.342 198.166 258.038ZM220.176 251H221.364V260H220.176V258.236C219.348 259.556 218.136 260.216 216.54 260.216C215.256 260.216 214.158 259.76 213.246 258.848C212.346 257.936 211.896 256.82 211.896 255.5C211.896 254.18 212.346 253.064 213.246 252.152C214.158 251.24 215.256 250.784 216.54 250.784C218.136 250.784 219.348 251.444 220.176 252.764V251ZM214.11 258.038C214.794 258.722 215.634 259.064 216.63 259.064C217.626 259.064 218.466 258.722 219.15 258.038C219.834 257.342 220.176 256.496 220.176 255.5C220.176 254.504 219.834 253.664 219.15 252.98C218.466 252.284 217.626 251.936 216.63 251.936C215.634 251.936 214.794 252.284 214.11 252.98C213.426 253.664 213.084 254.504 213.084 255.5C213.084 256.496 213.426 257.342 214.11 258.038ZM228.379 248.336C227.503 248.264 226.849 248.414 226.417 248.786C225.997 249.158 225.787 249.776 225.787 250.64V251H228.379V252.152H225.787V260H224.599V252.152H223.069V251H224.599V250.64C224.599 249.464 224.923 248.576 225.571 247.976C226.231 247.364 227.167 247.1 228.379 247.184V248.336ZM234.766 252.152H232.174V257.606C232.174 258.098 232.27 258.452 232.462 258.668C232.654 258.872 232.942 258.98 233.326 258.992C233.71 258.992 234.19 258.98 234.766 258.956V260C233.506 260.192 232.558 260.102 231.922 259.73C231.298 259.358 230.986 258.65 230.986 257.606V252.152H229.096V251H230.986V248.84L232.174 248.48V251H234.766V252.152ZM240.359 250.784C241.691 250.784 242.765 251.258 243.581 252.206C244.409 253.142 244.823 254.252 244.823 255.536C244.823 255.668 244.811 255.854 244.787 256.094H236.885C237.005 257.006 237.389 257.732 238.037 258.272C238.697 258.8 239.507 259.064 240.467 259.064C241.151 259.064 241.739 258.926 242.231 258.65C242.735 258.362 243.113 257.99 243.365 257.534L244.409 258.146C244.013 258.782 243.473 259.286 242.789 259.658C242.105 260.03 241.325 260.216 240.449 260.216C239.033 260.216 237.881 259.772 236.993 258.884C236.105 257.996 235.661 256.868 235.661 255.5C235.661 254.156 236.099 253.034 236.975 252.134C237.851 251.234 238.979 250.784 240.359 250.784ZM240.359 251.936C239.423 251.936 238.637 252.218 238.001 252.782C237.377 253.334 237.005 254.054 236.885 254.942H243.599C243.479 253.994 243.113 253.256 242.501 252.728C241.889 252.2 241.175 251.936 240.359 251.936ZM247.901 252.494C248.453 251.402 249.401 250.856 250.745 250.856V252.008C249.929 252.008 249.251 252.248 248.711 252.728C248.171 253.208 247.901 253.964 247.901 254.996V260H246.713V251H247.901V252.494ZM261.643 252.152H259.051V257.606C259.051 258.098 259.147 258.452 259.339 258.668C259.531 258.872 259.819 258.98 260.203 258.992C260.587 258.992 261.067 258.98 261.643 258.956V260C260.383 260.192 259.435 260.102 258.799 259.73C258.175 259.358 257.863 258.65 257.863 257.606V252.152H255.973V251H257.863V248.84L259.051 248.48V251H261.643V252.152ZM267.835 250.784C268.927 250.784 269.785 251.12 270.409 251.792C271.045 252.452 271.363 253.346 271.363 254.474V260H270.175V254.474C270.175 253.67 269.959 253.046 269.527 252.602C269.107 252.158 268.507 251.936 267.727 251.936C266.863 251.936 266.161 252.212 265.621 252.764C265.081 253.304 264.811 254.144 264.811 255.284V260H263.623V247.4H264.811V252.404C265.483 251.324 266.491 250.784 267.835 250.784ZM277.818 250.784C279.15 250.784 280.224 251.258 281.04 252.206C281.868 253.142 282.282 254.252 282.282 255.536C282.282 255.668 282.27 255.854 282.246 256.094H274.344C274.464 257.006 274.848 257.732 275.496 258.272C276.156 258.8 276.966 259.064 277.926 259.064C278.61 259.064 279.198 258.926 279.69 258.65C280.194 258.362 280.572 257.99 280.824 257.534L281.868 258.146C281.472 258.782 280.932 259.286 280.248 259.658C279.564 260.03 278.784 260.216 277.908 260.216C276.492 260.216 275.34 259.772 274.452 258.884C273.564 257.996 273.12 256.868 273.12 255.5C273.12 254.156 273.558 253.034 274.434 252.134C275.31 251.234 276.438 250.784 277.818 250.784ZM277.818 251.936C276.882 251.936 276.096 252.218 275.46 252.782C274.836 253.334 274.464 254.054 274.344 254.942H281.058C280.938 253.994 280.572 253.256 279.96 252.728C279.348 252.2 278.634 251.936 277.818 251.936ZM45.472 277.784C46.564 277.784 47.422 278.12 48.046 278.792C48.682 279.452 49 280.346 49 281.474V287H47.812V281.474C47.812 280.67 47.596 280.046 47.164 279.602C46.744 279.158 46.144 278.936 45.364 278.936C44.5 278.936 43.798 279.212 43.258 279.764C42.718 280.304 42.448 281.144 42.448 282.284V287H41.26V274.4H42.448V279.404C43.12 278.324 44.128 277.784 45.472 277.784ZM58.8391 285.866C57.9271 286.766 56.8111 287.216 55.4911 287.216C54.1711 287.216 53.0491 286.766 52.1251 285.866C51.2131 284.954 50.7571 283.832 50.7571 282.5C50.7571 281.168 51.2131 280.052 52.1251 279.152C53.0491 278.24 54.1711 277.784 55.4911 277.784C56.8111 277.784 57.9271 278.24 58.8391 279.152C59.7631 280.052 60.2251 281.168 60.2251 282.5C60.2251 283.832 59.7631 284.954 58.8391 285.866ZM52.9711 285.038C53.6551 285.722 54.4951 286.064 55.4911 286.064C56.4871 286.064 57.3271 285.722 58.0111 285.038C58.6951 284.342 59.0371 283.496 59.0371 282.5C59.0371 281.504 58.6951 280.664 58.0111 279.98C57.3271 279.284 56.4871 278.936 55.4911 278.936C54.4951 278.936 53.6551 279.284 52.9711 279.98C52.2871 280.664 51.9451 281.504 51.9451 282.5C51.9451 283.496 52.2871 284.342 52.9711 285.038ZM62.2131 287V273.86H63.4011V287H62.2131ZM67.1281 275.84C66.9601 276.008 66.7561 276.092 66.5161 276.092C66.2761 276.092 66.0721 276.008 65.9041 275.84C65.7361 275.672 65.6521 275.468 65.6521 275.228C65.6521 274.988 65.7361 274.784 65.9041 274.616C66.0721 274.448 66.2761 274.364 66.5161 274.364C66.7561 274.364 66.9601 274.448 67.1281 274.616C67.2961 274.784 67.3801 274.988 67.3801 275.228C67.3801 275.468 67.2961 275.672 67.1281 275.84ZM65.9221 287V278H67.1101V287H65.9221ZM77.3711 274.4H78.5591V287H77.3711V285.236C76.5431 286.556 75.3311 287.216 73.7351 287.216C72.4511 287.216 71.3531 286.76 70.4411 285.848C69.5411 284.936 69.0911 283.82 69.0911 282.5C69.0911 281.18 69.5411 280.064 70.4411 279.152C71.3531 278.24 72.4511 277.784 73.7351 277.784C75.3311 277.784 76.5431 278.444 77.3711 279.764V274.4ZM71.3051 285.038C71.9891 285.722 72.8291 286.064 73.8251 286.064C74.8211 286.064 75.6611 285.722 76.3451 285.038C77.0291 284.342 77.3711 283.496 77.3711 282.5C77.3711 281.504 77.0291 280.664 76.3451 279.98C75.6611 279.284 74.8211 278.936 73.8251 278.936C72.8291 278.936 71.9891 279.284 71.3051 279.98C70.6211 280.664 70.2791 281.504 70.2791 282.5C70.2791 283.496 70.6211 284.342 71.3051 285.038ZM88.8145 278H90.0025V287H88.8145V285.236C87.9865 286.556 86.7745 287.216 85.1785 287.216C83.8945 287.216 82.7965 286.76 81.8845 285.848C80.9845 284.936 80.5345 283.82 80.5345 282.5C80.5345 281.18 80.9845 280.064 81.8845 279.152C82.7965 278.24 83.8945 277.784 85.1785 277.784C86.7745 277.784 87.9865 278.444 88.8145 279.764V278ZM82.7485 285.038C83.4325 285.722 84.2725 286.064 85.2685 286.064C86.2645 286.064 87.1045 285.722 87.7885 285.038C88.4725 284.342 88.8145 283.496 88.8145 282.5C88.8145 281.504 88.4725 280.664 87.7885 279.98C87.1045 279.284 86.2645 278.936 85.2685 278.936C84.2725 278.936 83.4325 279.284 82.7485 279.98C82.0645 280.664 81.7225 281.504 81.7225 282.5C81.7225 283.496 82.0645 284.342 82.7485 285.038ZM98.9978 278H100.258L96.4058 287.828C96.0578 288.716 95.5598 289.412 94.9118 289.916C94.2758 290.432 93.5618 290.66 92.7698 290.6V289.484C93.8498 289.604 94.6718 288.98 95.2358 287.612L95.4698 287.054L91.4378 278H92.6978L96.0818 285.542L98.9978 278ZM102.085 280.358C102.085 280.766 102.265 281.09 102.625 281.33C102.985 281.57 103.423 281.756 103.939 281.888C104.455 282.02 104.971 282.17 105.487 282.338C106.003 282.494 106.441 282.764 106.801 283.148C107.161 283.52 107.341 284.012 107.341 284.624C107.341 285.392 107.035 286.016 106.423 286.496C105.823 286.976 105.043 287.216 104.083 287.216C103.219 287.216 102.481 287.024 101.869 286.64C101.269 286.256 100.849 285.758 100.609 285.146L101.617 284.552C101.785 285.02 102.085 285.392 102.517 285.668C102.961 285.932 103.483 286.064 104.083 286.064C104.671 286.064 105.163 285.95 105.559 285.722C105.955 285.482 106.153 285.116 106.153 284.624C106.153 284.216 105.973 283.892 105.613 283.652C105.253 283.412 104.815 283.226 104.299 283.094C103.783 282.962 103.267 282.818 102.751 282.662C102.235 282.494 101.797 282.224 101.437 281.852C101.077 281.468 100.897 280.97 100.897 280.358C100.897 279.626 101.185 279.014 101.761 278.522C102.349 278.03 103.087 277.784 103.975 277.784C104.707 277.784 105.349 277.952 105.901 278.288C106.453 278.612 106.861 279.056 107.125 279.62L106.135 280.196C105.787 279.356 105.067 278.936 103.975 278.936C103.459 278.936 103.015 279.062 102.643 279.314C102.271 279.554 102.085 279.902 102.085 280.358ZM110.77 283.58C110.77 282.992 110.89 282.458 111.13 281.978C111.37 281.486 111.658 281.072 111.994 280.736C112.33 280.4 112.666 280.076 113.002 279.764C113.338 279.452 113.626 279.11 113.866 278.738C114.106 278.354 114.226 277.946 114.226 277.514C114.226 276.818 113.986 276.296 113.506 275.948C113.038 275.588 112.432 275.408 111.688 275.408C110.212 275.408 109.3 276.014 108.952 277.226L107.89 276.632C108.166 275.828 108.646 275.222 109.33 274.814C110.026 274.394 110.812 274.184 111.688 274.184C112.744 274.184 113.638 274.478 114.37 275.066C115.114 275.642 115.486 276.458 115.486 277.514C115.486 278.03 115.366 278.51 115.126 278.954C114.886 279.398 114.598 279.788 114.262 280.124C113.926 280.448 113.59 280.772 113.254 281.096C112.918 281.42 112.63 281.798 112.39 282.23C112.15 282.65 112.03 283.1 112.03 283.58H110.77ZM112.102 286.892C111.91 287.084 111.676 287.18 111.4 287.18C111.124 287.18 110.89 287.084 110.698 286.892C110.506 286.7 110.41 286.466 110.41 286.19C110.41 285.914 110.506 285.68 110.698 285.488C110.89 285.296 111.124 285.2 111.4 285.2C111.676 285.2 111.91 285.296 112.102 285.488C112.294 285.68 112.39 285.914 112.39 286.19C112.39 286.466 112.294 286.7 112.102 286.892Z" fill="#CDFFE3"></path> </svg> 