<?xml version="1.0" encoding="UTF-8"?> <svg xmlns="http://www.w3.org/2000/svg" width="400" height="600" viewBox="0 0 400 600" fill="none"><rect width="400" height="600" rx="20" fill="#106BD0"></rect><path d="M47.296 83.136V100H42.88V77.6H48.032L61.536 94.464V77.6H65.952V100H60.8L47.296 83.136ZM80.4918 96.768C82.7318 96.768 84.8758 96.2347 86.9237 95.168L88.1718 98.496C85.4411 99.8827 82.7424 100.576 80.0758 100.576C77.1531 100.576 74.7744 99.7653 72.9398 98.144C71.1051 96.5013 70.1878 94.4533 70.1878 92C70.1878 89.4187 71.1371 87.3493 73.0358 85.792C74.9558 84.2347 77.3024 83.456 80.0758 83.456C82.5078 83.456 84.5344 84.1707 86.1558 85.6C87.7771 87.008 88.5878 88.7893 88.5878 90.944C88.5878 91.648 88.4918 92.3733 88.2998 93.12H74.5398C74.8384 94.272 75.5211 95.168 76.5878 95.808C77.6544 96.448 78.9558 96.768 80.4918 96.768ZM79.8198 87.008C77.0251 87.008 75.2971 88.0107 74.6358 90.016H84.3318C84.1184 89.056 83.6171 88.32 82.8278 87.808C82.0598 87.2747 81.0571 87.008 79.8198 87.008ZM94.39 84L99.638 95.232L104.822 84H109.526L101.942 100H97.302L89.75 84H94.39ZM121.179 96.768C123.419 96.768 125.563 96.2347 127.611 95.168L128.859 98.496C126.129 99.8827 123.43 100.576 120.763 100.576C117.841 100.576 115.462 99.7653 113.627 98.144C111.793 96.5013 110.875 94.4533 110.875 92C110.875 89.4187 111.825 87.3493 113.723 85.792C115.643 84.2347 117.99 83.456 120.763 83.456C123.195 83.456 125.222 84.1707 126.843 85.6C128.465 87.008 129.275 88.7893 129.275 90.944C129.275 91.648 129.179 92.3733 128.987 93.12H115.227C115.526 94.272 116.209 95.168 117.275 95.808C118.342 96.448 119.643 96.768 121.179 96.768ZM120.507 87.008C117.713 87.008 115.985 88.0107 115.323 90.016H125.019C124.806 89.056 124.305 88.32 123.515 87.808C122.747 87.2747 121.745 87.008 120.507 87.008ZM142.982 83.456C143.878 83.456 144.774 83.6693 145.67 84.096L144.774 87.936C143.984 87.5733 143.248 87.392 142.566 87.392C141.136 87.392 139.856 87.8293 138.726 88.704C137.616 89.5573 137.062 90.6773 137.062 92.064V100H132.838V84H137.062V87.552C137.616 86.5067 138.427 85.568 139.494 84.736C140.56 83.8827 141.723 83.456 142.982 83.456ZM166.436 87.424C164.985 87.424 163.737 87.8293 162.692 88.64C161.647 89.4293 161.124 90.5707 161.124 92.064V100H156.9V76.288H161.124V87.552C161.743 86.4213 162.628 85.472 163.78 84.704C164.932 83.9147 166.223 83.52 167.652 83.52C169.807 83.52 171.481 84.1813 172.676 85.504C173.892 86.8053 174.5 88.5547 174.5 90.752V100H170.276V91.264C170.276 90.0907 169.945 89.1627 169.284 88.48C168.623 87.776 167.673 87.424 166.436 87.424ZM184.75 90.88C186.435 90.88 188.227 91.2107 190.126 91.872V90.016C190.126 89.1627 189.849 88.4907 189.294 88C188.761 87.488 188.003 87.232 187.022 87.232C185.614 87.232 183.47 87.7653 180.59 88.832L179.534 84.992C182.905 83.904 185.529 83.36 187.406 83.36C189.625 83.36 191.331 83.936 192.526 85.088C193.742 86.24 194.35 87.904 194.35 90.08V95.84C194.35 96.352 194.606 96.608 195.118 96.608C195.545 96.608 196.291 96.3307 197.358 95.776L198.222 99.04C196.259 100.107 194.595 100.64 193.23 100.64C192.227 100.64 191.47 100.341 190.958 99.744C190.446 99.1253 190.169 98.3253 190.126 97.344C189.315 98.3253 188.323 99.1253 187.15 99.744C185.977 100.341 184.739 100.64 183.438 100.64C181.923 100.64 180.665 100.192 179.662 99.296C178.681 98.3787 178.19 97.2053 178.19 95.776C178.19 94.176 178.83 92.96 180.11 92.128C181.39 91.296 182.937 90.88 184.75 90.88ZM184.814 97.024C185.646 97.024 186.553 96.8107 187.534 96.384C188.537 95.9573 189.401 95.392 190.126 94.688V94.08C188.377 93.76 186.659 93.6 184.974 93.6C184.249 93.6 183.651 93.7707 183.182 94.112C182.734 94.432 182.51 94.8693 182.51 95.424C182.51 95.936 182.713 96.3307 183.118 96.608C183.545 96.8853 184.11 97.024 184.814 97.024ZM202.859 84L208.107 95.232L213.291 84H217.995L210.411 100H205.771L198.219 84H202.859ZM229.648 96.768C231.888 96.768 234.032 96.2347 236.08 95.168L237.328 98.496C234.597 99.8827 231.899 100.576 229.232 100.576C226.309 100.576 223.931 99.7653 222.096 98.144C220.261 96.5013 219.344 94.4533 219.344 92C219.344 89.4187 220.293 87.3493 222.192 85.792C224.112 84.2347 226.459 83.456 229.232 83.456C231.664 83.456 233.691 84.1707 235.312 85.6C236.933 87.008 237.744 88.7893 237.744 90.944C237.744 91.648 237.648 92.3733 237.456 93.12H223.696C223.995 94.272 224.677 95.168 225.744 95.808C226.811 96.448 228.112 96.768 229.648 96.768ZM228.976 87.008C226.181 87.008 224.453 88.0107 223.792 90.016H233.488C233.275 89.056 232.773 88.32 231.984 87.808C231.216 87.2747 230.213 87.008 228.976 87.008ZM255.265 77.6V100H250.849V77.6H255.265ZM278.867 96.768C281.107 96.768 283.251 96.2347 285.299 95.168L286.547 98.496C283.816 99.8827 281.117 100.576 278.451 100.576C275.528 100.576 273.149 99.7653 271.315 98.144C269.48 96.5013 268.563 94.4533 268.563 92C268.563 89.4187 269.512 87.3493 271.411 85.792C273.331 84.2347 275.677 83.456 278.451 83.456C280.883 83.456 282.909 84.1707 284.531 85.6C286.152 87.008 286.963 88.7893 286.963 90.944C286.963 91.648 286.867 92.3733 286.675 93.12H272.915C273.213 94.272 273.896 95.168 274.963 95.808C276.029 96.448 277.331 96.768 278.867 96.768ZM278.195 87.008C275.4 87.008 273.672 88.0107 273.011 90.016H282.707C282.493 89.056 281.992 88.32 281.203 87.808C280.435 87.2747 279.432 87.008 278.195 87.008ZM292.765 84L298.013 95.232L303.197 84H307.901L300.317 100H295.677L288.125 84H292.765ZM319.554 96.768C321.794 96.768 323.938 96.2347 325.986 95.168L327.234 98.496C324.504 99.8827 321.805 100.576 319.138 100.576C316.216 100.576 313.837 99.7653 312.002 98.144C310.168 96.5013 309.25 94.4533 309.25 92C309.25 89.4187 310.2 87.3493 312.098 85.792C314.018 84.2347 316.365 83.456 319.138 83.456C321.57 83.456 323.597 84.1707 325.218 85.6C326.84 87.008 327.65 88.7893 327.65 90.944C327.65 91.648 327.554 92.3733 327.362 93.12H313.602C313.901 94.272 314.584 95.168 315.65 95.808C316.717 96.448 318.018 96.768 319.554 96.768ZM318.882 87.008C316.088 87.008 314.36 88.0107 313.698 90.016H323.394C323.181 89.056 322.68 88.32 321.89 87.808C321.122 87.2747 320.12 87.008 318.882 87.008ZM341.357 83.456C342.253 83.456 343.149 83.6693 344.045 84.096L343.149 87.936C342.359 87.5733 341.623 87.392 340.941 87.392C339.511 87.392 338.231 87.8293 337.101 88.704C335.991 89.5573 335.437 90.6773 335.437 92.064V100H331.213V84H335.437V87.552C335.991 86.5067 336.802 85.568 337.869 84.736C338.935 83.8827 340.098 83.456 341.357 83.456ZM60.64 138L55.936 127.056L51.2 138H46.88L39.872 122H44.448L49.088 133.008L53.728 122H58.144L62.784 132.976L67.456 122H71.936L64.928 138H60.64ZM76.0365 123.728C77.9565 122.213 80.3138 121.456 83.1085 121.456C85.9032 121.456 88.2605 122.213 90.1805 123.728C92.1005 125.221 93.0605 127.259 93.0605 129.84C93.0605 132.272 92.1112 134.341 90.2125 136.048C88.3352 137.733 85.9672 138.576 83.1085 138.576C80.2498 138.576 77.8712 137.733 75.9725 136.048C74.0952 134.341 73.1565 132.272 73.1565 129.84C73.1565 127.259 74.1165 125.221 76.0365 123.728ZM87.2365 126.416C86.1912 125.563 84.8152 125.136 83.1085 125.136C81.4018 125.136 80.0258 125.563 78.9805 126.416C77.9352 127.248 77.4125 128.389 77.4125 129.84C77.4125 131.205 77.9672 132.4 79.0765 133.424C80.2072 134.427 81.5512 134.928 83.1085 134.928C84.6658 134.928 85.9992 134.427 87.1085 133.424C88.2392 132.4 88.8045 131.205 88.8045 129.84C88.8045 128.389 88.2818 127.248 87.2365 126.416ZM100.966 114V138H96.8063V114H100.966ZM106.822 136.848L101.19 130.288L108.422 122H113.83L106.118 130.16L109.862 134.032C110.118 134.288 110.438 134.416 110.822 134.416C111.164 134.416 111.868 134.192 112.934 133.744L113.926 137.168C112.006 138 110.63 138.416 109.798 138.416C108.689 138.416 107.697 137.893 106.822 136.848ZM126.367 134.768C128.607 134.768 130.751 134.235 132.799 133.168L134.047 136.496C131.316 137.883 128.617 138.576 125.951 138.576C123.028 138.576 120.649 137.765 118.815 136.144C116.98 134.501 116.063 132.453 116.063 130C116.063 127.419 117.012 125.349 118.911 123.792C120.831 122.235 123.177 121.456 125.951 121.456C128.383 121.456 130.409 122.171 132.031 123.6C133.652 125.008 134.463 126.789 134.463 128.944C134.463 129.648 134.367 130.373 134.175 131.12H120.415C120.713 132.272 121.396 133.168 122.463 133.808C123.529 134.448 124.831 134.768 126.367 134.768ZM125.695 125.008C122.9 125.008 121.172 126.011 120.511 128.016H130.207C129.993 127.056 129.492 126.32 128.703 125.808C127.935 125.275 126.932 125.008 125.695 125.008ZM147.561 125.424C146.11 125.424 144.862 125.829 143.817 126.64C142.772 127.429 142.249 128.571 142.249 130.064V138H138.025V122H142.249V125.552C142.868 124.421 143.753 123.472 144.905 122.704C146.057 121.915 147.348 121.52 148.777 121.52C150.932 121.52 152.606 122.181 153.801 123.504C155.017 124.805 155.625 126.555 155.625 128.752V138H151.401V129.264C151.401 128.091 151.07 127.163 150.409 126.48C149.748 125.776 148.798 125.424 147.561 125.424ZM175.898 138.512C173.786 138.512 172.132 137.861 170.938 136.56C169.764 135.259 169.178 133.499 169.178 131.28V122H173.402V130.736C173.402 132.016 173.754 132.987 174.458 133.648C175.183 134.288 176.186 134.608 177.466 134.608C178.916 134.608 180.1 134.203 181.018 133.392C181.956 132.56 182.426 131.344 182.426 129.744V122H186.65V138H182.426V134.48C181.828 135.653 180.943 136.624 179.77 137.392C178.596 138.139 177.306 138.512 175.898 138.512ZM202.567 121.456C204.828 121.456 206.737 122.224 208.295 123.76C209.852 125.296 210.631 127.323 210.631 129.84C210.631 132.272 209.724 134.341 207.911 136.048C206.119 137.733 203.889 138.576 201.223 138.576C199.964 138.576 198.119 138.203 195.687 137.456V145.68H191.463V122H195.687V125.552C196.241 124.379 197.137 123.408 198.375 122.64C199.612 121.851 201.009 121.456 202.567 121.456ZM201.319 125.392C199.804 125.392 198.481 125.819 197.351 126.672C196.241 127.525 195.687 128.656 195.687 130.064V133.904C197.841 134.544 199.708 134.864 201.287 134.864C202.652 134.864 203.836 134.363 204.839 133.36C205.863 132.357 206.375 131.184 206.375 129.84C206.375 128.453 205.895 127.365 204.935 126.576C203.996 125.787 202.791 125.392 201.319 125.392ZM227.655 122V138H223.495V122H227.655ZM223.047 117.392C223.047 116.709 223.293 116.123 223.783 115.632C224.274 115.141 224.871 114.896 225.575 114.896C226.279 114.896 226.877 115.141 227.367 115.632C227.858 116.123 228.103 116.709 228.103 117.392C228.103 118.096 227.858 118.693 227.367 119.184C226.877 119.675 226.279 119.92 225.575 119.92C224.871 119.92 224.274 119.675 223.783 119.184C223.293 118.693 223.047 118.096 223.047 117.392ZM242.061 125.424C240.61 125.424 239.362 125.829 238.317 126.64C237.272 127.429 236.749 128.571 236.749 130.064V138H232.525V122H236.749V125.552C237.368 124.421 238.253 123.472 239.405 122.704C240.557 121.915 241.848 121.52 243.277 121.52C245.432 121.52 247.106 122.181 248.301 123.504C249.517 124.805 250.125 126.555 250.125 128.752V138H245.901V129.264C245.901 128.091 245.57 127.163 244.909 126.48C244.248 125.776 243.298 125.424 242.061 125.424ZM269.438 128.88C271.123 128.88 272.915 129.211 274.814 129.872V128.016C274.814 127.163 274.536 126.491 273.982 126C273.448 125.488 272.691 125.232 271.71 125.232C270.302 125.232 268.158 125.765 265.278 126.832L264.222 122.992C267.592 121.904 270.216 121.36 272.094 121.36C274.312 121.36 276.019 121.936 277.214 123.088C278.43 124.24 279.038 125.904 279.038 128.08V133.84C279.038 134.352 279.294 134.608 279.806 134.608C280.232 134.608 280.979 134.331 282.046 133.776L282.91 137.04C280.947 138.107 279.283 138.64 277.918 138.64C276.915 138.64 276.158 138.341 275.646 137.744C275.134 137.125 274.856 136.325 274.814 135.344C274.003 136.325 273.011 137.125 271.838 137.744C270.664 138.341 269.427 138.64 268.126 138.64C266.611 138.64 265.352 138.192 264.35 137.296C263.368 136.379 262.878 135.205 262.878 133.776C262.878 132.176 263.518 130.96 264.798 130.128C266.078 129.296 267.624 128.88 269.438 128.88ZM269.502 135.024C270.334 135.024 271.24 134.811 272.222 134.384C273.224 133.957 274.088 133.392 274.814 132.688V132.08C273.064 131.76 271.347 131.6 269.661 131.6C268.936 131.6 268.339 131.771 267.87 132.112C267.422 132.432 267.198 132.869 267.198 133.424C267.198 133.936 267.4 134.331 267.806 134.608C268.232 134.885 268.798 135.024 269.502 135.024ZM294.842 125.424C293.392 125.424 292.144 125.829 291.098 126.64C290.053 127.429 289.53 128.571 289.53 130.064V138H285.306V122H289.53V125.552C290.149 124.421 291.034 123.472 292.186 122.704C293.338 121.915 294.629 121.52 296.058 121.52C298.213 121.52 299.888 122.181 301.082 123.504C302.298 124.805 302.906 126.555 302.906 128.752V138H298.682V129.264C298.682 128.091 298.352 127.163 297.69 126.48C297.029 125.776 296.08 125.424 294.842 125.424ZM48.96 176.512C46.848 176.512 45.1947 175.861 44 174.56C42.8267 173.259 42.24 171.499 42.24 169.28V160H46.464V168.736C46.464 170.016 46.816 170.987 47.52 171.648C48.2453 172.288 49.248 172.608 50.528 172.608C51.9787 172.608 53.1627 172.203 54.08 171.392C55.0187 170.56 55.488 169.344 55.488 167.744V160H59.712V176H55.488V172.48C54.8907 173.653 54.0053 174.624 52.832 175.392C51.6587 176.139 50.368 176.512 48.96 176.512ZM74.061 163.424C72.6103 163.424 71.3623 163.829 70.317 164.64C69.2717 165.429 68.749 166.571 68.749 168.064V176H64.525V160H68.749V163.552C69.3677 162.421 70.253 161.472 71.405 160.704C72.557 159.915 73.8477 159.52 75.277 159.52C77.4317 159.52 79.1063 160.181 80.301 161.504C81.517 162.805 82.125 164.555 82.125 166.752V176H77.901V167.264C77.901 166.091 77.5703 165.163 76.909 164.48C76.2477 163.776 75.2983 163.424 74.061 163.424ZM90.935 152V176H86.775V152H90.935ZM96.791 174.848L91.159 168.288L98.391 160H103.799L96.087 168.16L99.831 172.032C100.087 172.288 100.407 172.416 100.791 172.416C101.132 172.416 101.836 172.192 102.903 171.744L103.895 175.168C101.975 176 100.599 176.416 99.767 176.416C98.6577 176.416 97.6657 175.893 96.791 174.848ZM116.624 163.424C115.173 163.424 113.925 163.829 112.88 164.64C111.834 165.429 111.312 166.571 111.312 168.064V176H107.088V160H111.312V163.552C111.93 162.421 112.816 161.472 113.968 160.704C115.12 159.915 116.41 159.52 117.84 159.52C119.994 159.52 121.669 160.181 122.864 161.504C124.08 162.805 124.688 164.555 124.688 166.752V176H120.464V167.264C120.464 166.091 120.133 165.163 119.472 164.48C118.81 163.776 117.861 163.424 116.624 163.424ZM131.161 161.728C133.082 160.213 135.439 159.456 138.234 159.456C141.028 159.456 143.386 160.213 145.306 161.728C147.226 163.221 148.186 165.259 148.186 167.84C148.186 170.272 147.236 172.341 145.338 174.048C143.46 175.733 141.092 176.576 138.234 176.576C135.375 176.576 132.996 175.733 131.098 174.048C129.22 172.341 128.282 170.272 128.282 167.84C128.282 165.259 129.242 163.221 131.161 161.728ZM142.362 164.416C141.316 163.563 139.94 163.136 138.234 163.136C136.527 163.136 135.151 163.563 134.106 164.416C133.06 165.248 132.538 166.389 132.538 167.84C132.538 169.205 133.092 170.4 134.202 171.424C135.332 172.427 136.676 172.928 138.234 172.928C139.791 172.928 141.124 172.427 142.234 171.424C143.364 170.4 143.93 169.205 143.93 167.84C143.93 166.389 143.407 165.248 142.362 164.416ZM170.171 176L165.467 165.056L160.731 176H156.411L149.403 160H153.979L158.619 171.008L163.259 160H167.675L172.315 170.976L176.987 160H181.467L174.459 176H170.171ZM193.28 163.424C191.829 163.424 190.581 163.829 189.536 164.64C188.49 165.429 187.968 166.571 187.968 168.064V176H183.744V160H187.968V163.552C188.586 162.421 189.472 161.472 190.624 160.704C191.776 159.915 193.066 159.52 194.496 159.52C196.65 159.52 198.325 160.181 199.52 161.504C200.736 162.805 201.344 164.555 201.344 166.752V176H197.12V167.264C197.12 166.091 196.789 165.163 196.128 164.48C195.466 163.776 194.517 163.424 193.28 163.424ZM226.16 159.456C228.422 159.456 230.331 160.224 231.888 161.76C233.446 163.296 234.224 165.323 234.224 167.84C234.224 170.272 233.318 172.341 231.504 174.048C229.712 175.733 227.483 176.576 224.816 176.576C223.558 176.576 221.712 176.203 219.28 175.456V183.68H215.056V160H219.28V163.552C219.835 162.379 220.731 161.408 221.968 160.64C223.206 159.851 224.603 159.456 226.16 159.456ZM224.912 163.392C223.398 163.392 222.075 163.819 220.944 164.672C219.835 165.525 219.28 166.656 219.28 168.064V171.904C221.435 172.544 223.302 172.864 224.88 172.864C226.246 172.864 227.43 172.363 228.432 171.36C229.456 170.357 229.968 169.184 229.968 167.84C229.968 166.453 229.488 165.365 228.528 164.576C227.59 163.787 226.384 163.392 224.912 163.392ZM242.155 176H237.963V152H242.155V176ZM252.562 166.88C254.248 166.88 256.04 167.211 257.939 167.872V166.016C257.939 165.163 257.661 164.491 257.107 164C256.573 163.488 255.816 163.232 254.835 163.232C253.427 163.232 251.283 163.765 248.403 164.832L247.347 160.992C250.717 159.904 253.341 159.36 255.219 159.36C257.437 159.36 259.144 159.936 260.339 161.088C261.555 162.24 262.163 163.904 262.163 166.08V171.84C262.163 172.352 262.419 172.608 262.931 172.608C263.357 172.608 264.104 172.331 265.171 171.776L266.035 175.04C264.072 176.107 262.408 176.64 261.043 176.64C260.04 176.64 259.283 176.341 258.771 175.744C258.259 175.125 257.981 174.325 257.939 173.344C257.128 174.325 256.136 175.125 254.963 175.744C253.789 176.341 252.552 176.64 251.251 176.64C249.736 176.64 248.477 176.192 247.475 175.296C246.493 174.379 246.003 173.205 246.003 171.776C246.003 170.176 246.643 168.96 247.923 168.128C249.203 167.296 250.749 166.88 252.562 166.88ZM252.627 173.024C253.459 173.024 254.365 172.811 255.347 172.384C256.349 171.957 257.213 171.392 257.939 170.688V170.08C256.189 169.76 254.472 169.6 252.786 169.6C252.061 169.6 251.464 169.771 250.995 170.112C250.547 170.432 250.323 170.869 250.323 171.424C250.323 171.936 250.525 172.331 250.931 172.608C251.357 172.885 251.923 173.024 252.627 173.024ZM277.263 159.456C279.503 159.456 281.839 159.883 284.271 160.736L283.247 164.512C281.029 163.616 278.949 163.168 277.007 163.168C275.429 163.168 274.138 163.595 273.135 164.448C272.133 165.28 271.631 166.411 271.631 167.84C271.631 169.333 272.186 170.528 273.295 171.424C274.405 172.32 275.813 172.768 277.519 172.768C278.586 172.768 279.557 172.64 280.431 172.384C281.327 172.128 282.405 171.723 283.663 171.168L284.911 174.496C282.287 175.883 279.642 176.576 276.975 176.576C274.074 176.576 271.749 175.765 269.999 174.144C268.25 172.501 267.375 170.453 267.375 168C267.375 165.419 268.325 163.349 270.223 161.792C272.143 160.235 274.49 159.456 277.263 159.456ZM297.367 172.768C299.607 172.768 301.751 172.235 303.799 171.168L305.047 174.496C302.316 175.883 299.617 176.576 296.951 176.576C294.028 176.576 291.649 175.765 289.815 174.144C287.98 172.501 287.063 170.453 287.063 168C287.063 165.419 288.012 163.349 289.911 161.792C291.831 160.235 294.177 159.456 296.951 159.456C299.383 159.456 301.409 160.171 303.031 161.6C304.652 163.008 305.463 164.789 305.463 166.944C305.463 167.648 305.367 168.373 305.175 169.12H291.415C291.713 170.272 292.396 171.168 293.463 171.808C294.529 172.448 295.831 172.768 297.367 172.768ZM296.695 163.008C293.9 163.008 292.172 164.011 291.511 166.016H301.207C300.993 165.056 300.492 164.32 299.703 163.808C298.935 163.275 297.932 163.008 296.695 163.008Z" fill="#CDE4FD"></path></svg> 