<?xml version="1.0" encoding="UTF-8"?> <svg xmlns="http://www.w3.org/2000/svg" width="400" height="600" viewBox="0 0 400 600" fill="none"> <rect width="400" height="600" rx="20" fill="#E7497E"></rect> <path d="M53.5 488.4V501H51.034V492.828L47.488 498.678H47.2L43.654 492.846V501H41.17V488.4H43.726L47.344 494.358L50.944 488.4H53.5ZM62.5797 492H64.9017V501H62.5797V499.938C61.8837 500.814 60.9057 501.252 59.6457 501.252C58.4457 501.252 57.4137 500.796 56.5497 499.884C55.6977 498.96 55.2717 497.832 55.2717 496.5C55.2717 495.168 55.6977 494.046 56.5497 493.134C57.4137 492.21 58.4457 491.748 59.6457 491.748C60.9057 491.748 61.8837 492.186 62.5797 493.062V492ZM58.2957 498.336C58.7637 498.804 59.3577 499.038 60.0777 499.038C60.7977 499.038 61.3917 498.804 61.8597 498.336C62.3397 497.856 62.5797 497.244 62.5797 496.5C62.5797 495.756 62.3397 495.15 61.8597 494.682C61.3917 494.202 60.7977 493.962 60.0777 493.962C59.3577 493.962 58.7637 494.202 58.2957 494.682C57.8277 495.15 57.5937 495.756 57.5937 496.5C57.5937 497.244 57.8277 497.856 58.2957 498.336ZM75.3053 501H72.6053L69.3293 496.914V501H67.0073V488.4H69.3293V495.96L72.4253 492H75.1973L71.5793 496.446L75.3053 501ZM77.776 497.454C78.088 498.582 78.934 499.146 80.314 499.146C81.202 499.146 81.874 498.846 82.33 498.246L84.202 499.326C83.314 500.61 82.006 501.252 80.278 501.252C78.79 501.252 77.596 500.802 76.696 499.902C75.796 499.002 75.346 497.868 75.346 496.5C75.346 495.144 75.79 494.016 76.678 493.116C77.566 492.204 78.706 491.748 80.098 491.748C81.418 491.748 82.504 492.204 83.356 493.116C84.22 494.028 84.652 495.156 84.652 496.5C84.652 496.8 84.622 497.118 84.562 497.454H77.776ZM77.74 495.654H82.33C82.198 495.042 81.922 494.586 81.502 494.286C81.094 493.986 80.626 493.836 80.098 493.836C79.474 493.836 78.958 493.998 78.55 494.322C78.142 494.634 77.872 495.078 77.74 495.654ZM97.6129 492H99.9349V501H97.6129V499.938C96.9169 500.814 95.9389 501.252 94.6789 501.252C93.4789 501.252 92.4469 500.796 91.5829 499.884C90.7309 498.96 90.3049 497.832 90.3049 496.5C90.3049 495.168 90.7309 494.046 91.5829 493.134C92.4469 492.21 93.4789 491.748 94.6789 491.748C95.9389 491.748 96.9169 492.186 97.6129 493.062V492ZM93.3289 498.336C93.7969 498.804 94.3909 499.038 95.1109 499.038C95.8309 499.038 96.4249 498.804 96.8929 498.336C97.3729 497.856 97.6129 497.244 97.6129 496.5C97.6129 495.756 97.3729 495.15 96.8929 494.682C96.4249 494.202 95.8309 493.962 95.1109 493.962C94.3909 493.962 93.7969 494.202 93.3289 494.682C92.8609 495.15 92.6269 495.756 92.6269 496.5C92.6269 497.244 92.8609 497.856 93.3289 498.336ZM108.683 494.556C108.683 494.796 108.839 494.994 109.151 495.15C109.475 495.294 109.865 495.426 110.321 495.546C110.777 495.654 111.233 495.798 111.689 495.978C112.145 496.146 112.529 496.434 112.841 496.842C113.165 497.25 113.327 497.76 113.327 498.372C113.327 499.296 112.979 500.01 112.283 500.514C111.599 501.006 110.741 501.252 109.709 501.252C107.861 501.252 106.601 500.538 105.929 499.11L107.945 497.976C108.209 498.756 108.797 499.146 109.709 499.146C110.537 499.146 110.951 498.888 110.951 498.372C110.951 498.132 110.789 497.94 110.465 497.796C110.153 497.64 109.769 497.502 109.313 497.382C108.857 497.262 108.401 497.112 107.945 496.932C107.489 496.752 107.099 496.47 106.775 496.086C106.463 495.69 106.307 495.198 106.307 494.61C106.307 493.722 106.631 493.026 107.279 492.522C107.939 492.006 108.755 491.748 109.727 491.748C110.459 491.748 111.125 491.916 111.725 492.252C112.325 492.576 112.799 493.044 113.147 493.656L111.167 494.736C110.879 494.124 110.399 493.818 109.727 493.818C109.427 493.818 109.175 493.884 108.971 494.016C108.779 494.148 108.683 494.328 108.683 494.556ZM118.981 501.252C117.625 501.252 116.491 500.796 115.579 499.884C114.679 498.972 114.229 497.844 114.229 496.5C114.229 495.156 114.679 494.028 115.579 493.116C116.491 492.204 117.625 491.748 118.981 491.748C119.857 491.748 120.655 491.958 121.375 492.378C122.095 492.798 122.641 493.362 123.013 494.07L121.015 495.24C120.835 494.868 120.559 494.574 120.187 494.358C119.827 494.142 119.419 494.034 118.963 494.034C118.267 494.034 117.691 494.268 117.235 494.736C116.779 495.192 116.551 495.78 116.551 496.5C116.551 497.208 116.779 497.796 117.235 498.264C117.691 498.72 118.267 498.948 118.963 498.948C119.431 498.948 119.845 498.846 120.205 498.642C120.577 498.426 120.853 498.132 121.033 497.76L123.049 498.912C122.653 499.62 122.095 500.19 121.375 500.622C120.655 501.042 119.857 501.252 118.981 501.252ZM126.098 497.454C126.41 498.582 127.256 499.146 128.636 499.146C129.524 499.146 130.196 498.846 130.652 498.246L132.524 499.326C131.636 500.61 130.328 501.252 128.6 501.252C127.112 501.252 125.918 500.802 125.018 499.902C124.118 499.002 123.668 497.868 123.668 496.5C123.668 495.144 124.112 494.016 125 493.116C125.888 492.204 127.028 491.748 128.42 491.748C129.74 491.748 130.826 492.204 131.678 493.116C132.542 494.028 132.974 495.156 132.974 496.5C132.974 496.8 132.944 497.118 132.884 497.454H126.098ZM126.062 495.654H130.652C130.52 495.042 130.244 494.586 129.824 494.286C129.416 493.986 128.948 493.836 128.42 493.836C127.796 493.836 127.28 493.998 126.872 494.322C126.464 494.634 126.194 495.078 126.062 495.654ZM139.599 491.748C140.583 491.748 141.393 492.078 142.029 492.738C142.677 493.398 143.001 494.31 143.001 495.474V501H140.679V495.762C140.679 495.162 140.517 494.706 140.193 494.394C139.869 494.07 139.437 493.908 138.897 493.908C138.297 493.908 137.817 494.094 137.457 494.466C137.097 494.838 136.917 495.396 136.917 496.14V501H134.595V492H136.917V493.008C137.481 492.168 138.375 491.748 139.599 491.748ZM146.946 497.454C147.258 498.582 148.104 499.146 149.484 499.146C150.372 499.146 151.044 498.846 151.5 498.246L153.372 499.326C152.484 500.61 151.176 501.252 149.448 501.252C147.96 501.252 146.766 500.802 145.866 499.902C144.966 499.002 144.516 497.868 144.516 496.5C144.516 495.144 144.96 494.016 145.848 493.116C146.736 492.204 147.876 491.748 149.268 491.748C150.588 491.748 151.674 492.204 152.526 493.116C153.39 494.028 153.822 495.156 153.822 496.5C153.822 496.8 153.792 497.118 153.732 497.454H146.946ZM146.91 495.654H151.5C151.368 495.042 151.092 494.586 150.672 494.286C150.264 493.986 149.796 493.836 149.268 493.836C148.644 493.836 148.128 493.998 147.72 494.322C147.312 494.634 147.042 495.078 146.91 495.654ZM160.321 496.014V494.862H169.321V496.014H160.321ZM183.004 492H184.264L180.412 501.828C180.064 502.716 179.566 503.412 178.918 503.916C178.282 504.432 177.568 504.66 176.776 504.6V503.484C177.856 503.604 178.678 502.98 179.242 501.612L179.476 501.054L175.444 492H176.704L180.088 499.542L183.004 492ZM189.542 501.216C188.186 501.216 187.058 500.766 186.158 499.866C185.258 498.954 184.808 497.832 184.808 496.5C184.808 495.168 185.258 494.052 186.158 493.152C187.058 492.24 188.186 491.784 189.542 491.784C190.43 491.784 191.228 492 191.936 492.432C192.644 492.852 193.16 493.422 193.484 494.142L192.512 494.7C192.272 494.16 191.882 493.734 191.342 493.422C190.814 493.098 190.214 492.936 189.542 492.936C188.546 492.936 187.706 493.284 187.022 493.98C186.338 494.664 185.996 495.504 185.996 496.5C185.996 497.496 186.338 498.342 187.022 499.038C187.706 499.722 188.546 500.064 189.542 500.064C190.214 500.064 190.814 499.908 191.342 499.596C191.87 499.272 192.284 498.84 192.584 498.3L193.574 498.876C193.202 499.596 192.656 500.166 191.936 500.586C191.216 501.006 190.418 501.216 189.542 501.216ZM201.584 492V493.152H198.398V501H197.21V493.152H194.024V492H201.584ZM207.855 491.784C209.139 491.784 210.231 492.24 211.131 493.152C212.043 494.064 212.499 495.18 212.499 496.5C212.499 497.82 212.043 498.936 211.131 499.848C210.231 500.76 209.139 501.216 207.855 501.216C206.259 501.216 205.047 500.556 204.219 499.236V504.6H203.031V492H204.219V493.764C205.047 492.444 206.259 491.784 207.855 491.784ZM205.245 499.038C205.929 499.722 206.769 500.064 207.765 500.064C208.761 500.064 209.601 499.722 210.285 499.038C210.969 498.342 211.311 497.496 211.311 496.5C211.311 495.504 210.969 494.664 210.285 493.98C209.601 493.284 208.761 492.936 207.765 492.936C206.769 492.936 205.929 493.284 205.245 493.98C204.561 494.664 204.219 495.504 204.219 496.5C204.219 497.496 204.561 498.342 205.245 499.038ZM222.215 492H223.403V501H222.215V499.236C221.387 500.556 220.175 501.216 218.579 501.216C217.295 501.216 216.197 500.76 215.285 499.848C214.385 498.936 213.935 497.82 213.935 496.5C213.935 495.18 214.385 494.064 215.285 493.152C216.197 492.24 217.295 491.784 218.579 491.784C220.175 491.784 221.387 492.444 222.215 493.764V492ZM216.149 499.038C216.833 499.722 217.673 500.064 218.669 500.064C219.665 500.064 220.505 499.722 221.189 499.038C221.873 498.342 222.215 497.496 222.215 496.5C222.215 495.504 221.873 494.664 221.189 493.98C220.505 493.284 219.665 492.936 218.669 492.936C217.673 492.936 216.833 493.284 216.149 493.98C215.465 494.664 215.123 495.504 215.123 496.5C215.123 497.496 215.465 498.342 216.149 499.038ZM232.47 492H233.478V501H232.29V494.07L226.926 501H225.918V492H227.106V498.93L232.47 492ZM241.714 496.374C242.698 496.734 243.19 497.436 243.19 498.48C243.19 499.212 242.944 499.818 242.452 500.298C241.972 500.766 241.276 501 240.364 501H235.99V492H240.004C240.88 492 241.558 492.228 242.038 492.684C242.518 493.128 242.758 493.704 242.758 494.412C242.758 495.312 242.41 495.966 241.714 496.374ZM240.004 493.152H237.178V495.888H240.004C241.048 495.888 241.57 495.42 241.57 494.484C241.57 494.064 241.432 493.74 241.156 493.512C240.892 493.272 240.508 493.152 240.004 493.152ZM240.364 499.848C240.892 499.848 241.294 499.722 241.57 499.47C241.858 499.218 242.002 498.864 242.002 498.408C242.002 497.988 241.858 497.658 241.57 497.418C241.294 497.166 240.892 497.04 240.364 497.04H237.178V499.848H240.364ZM252.73 492H253.918V501H252.73V499.236C251.902 500.556 250.69 501.216 249.094 501.216C247.81 501.216 246.712 500.76 245.8 499.848C244.9 498.936 244.45 497.82 244.45 496.5C244.45 495.18 244.9 494.064 245.8 493.152C246.712 492.24 247.81 491.784 249.094 491.784C250.69 491.784 251.902 492.444 252.73 493.764V492ZM246.664 499.038C247.348 499.722 248.188 500.064 249.184 500.064C250.18 500.064 251.02 499.722 251.704 499.038C252.388 498.342 252.73 497.496 252.73 496.5C252.73 495.504 252.388 494.664 251.704 493.98C251.02 493.284 250.18 492.936 249.184 492.936C248.188 492.936 247.348 493.284 246.664 493.98C245.98 494.664 245.638 495.504 245.638 496.5C245.638 497.496 245.98 498.342 246.664 499.038ZM262.914 492V493.152H259.728V501H258.54V493.152H255.354V492H262.914ZM268.016 495.42C268.856 495.42 269.564 495.684 270.14 496.212C270.728 496.728 271.022 497.394 271.022 498.21C271.022 499.026 270.728 499.698 270.14 500.226C269.564 500.742 268.856 501 268.016 501H264.362V492H265.55V495.42H268.016ZM268.016 499.848C268.52 499.848 268.946 499.698 269.294 499.398C269.654 499.098 269.834 498.702 269.834 498.21C269.834 497.718 269.654 497.322 269.294 497.022C268.946 496.722 268.52 496.572 268.016 496.572H265.55V499.848H268.016ZM281.511 501.216C280.155 501.216 279.027 500.766 278.127 499.866C277.227 498.954 276.777 497.832 276.777 496.5C276.777 495.168 277.227 494.052 278.127 493.152C279.027 492.24 280.155 491.784 281.511 491.784C282.399 491.784 283.197 492 283.905 492.432C284.613 492.852 285.129 493.422 285.453 494.142L284.481 494.7C284.241 494.16 283.851 493.734 283.311 493.422C282.783 493.098 282.183 492.936 281.511 492.936C280.515 492.936 279.675 493.284 278.991 493.98C278.307 494.664 277.965 495.504 277.965 496.5C277.965 497.496 278.307 498.342 278.991 499.038C279.675 499.722 280.515 500.064 281.511 500.064C282.183 500.064 282.783 499.908 283.311 499.596C283.839 499.272 284.253 498.84 284.553 498.3L285.543 498.876C285.171 499.596 284.625 500.166 283.905 500.586C283.185 501.006 282.387 501.216 281.511 501.216ZM294.628 499.848H296.068V503.412H294.88V501H287.248V492H288.436V499.848H293.44V492H294.628V499.848ZM301.672 491.784C303.004 491.784 304.078 492.258 304.894 493.206C305.722 494.142 306.136 495.252 306.136 496.536C306.136 496.668 306.124 496.854 306.1 497.094H298.198C298.318 498.006 298.702 498.732 299.35 499.272C300.01 499.8 300.82 500.064 301.78 500.064C302.464 500.064 303.052 499.926 303.544 499.65C304.048 499.362 304.426 498.99 304.678 498.534L305.722 499.146C305.326 499.782 304.786 500.286 304.102 500.658C303.418 501.03 302.638 501.216 301.762 501.216C300.346 501.216 299.194 500.772 298.306 499.884C297.418 498.996 296.974 497.868 296.974 496.5C296.974 495.156 297.412 494.034 298.288 493.134C299.164 492.234 300.292 491.784 301.672 491.784ZM301.672 492.936C300.736 492.936 299.95 493.218 299.314 493.782C298.69 494.334 298.318 495.054 298.198 495.942H304.912C304.792 494.994 304.426 494.256 303.814 493.728C303.202 493.2 302.488 492.936 301.672 492.936ZM314.398 492H315.586V501H314.398V497.076H309.214V501H308.026V492H309.214V495.924H314.398V492ZM324.578 492H325.838L321.986 501.828C321.638 502.716 321.14 503.412 320.492 503.916C319.856 504.432 319.142 504.66 318.35 504.6V503.484C319.43 503.604 320.252 502.98 320.816 501.612L321.05 501.054L317.018 492H318.278L321.662 499.542L324.578 492ZM329.056 493.512C328.864 493.704 328.63 493.8 328.354 493.8C328.078 493.8 327.844 493.704 327.652 493.512C327.46 493.32 327.364 493.086 327.364 492.81C327.364 492.534 327.46 492.3 327.652 492.108C327.844 491.916 328.078 491.82 328.354 491.82C328.63 491.82 328.864 491.916 329.056 492.108C329.248 492.3 329.344 492.534 329.344 492.81C329.344 493.086 329.248 493.32 329.056 493.512ZM329.254 499.47L328.174 503.52H327.094L327.814 499.47H329.254ZM45.904 519.374C46.948 519.77 47.47 520.49 47.47 521.534C47.47 522.278 47.176 522.914 46.588 523.442C46.012 523.958 45.184 524.216 44.104 524.216C42.292 524.216 41.104 523.496 40.54 522.056L41.548 521.462C41.92 522.53 42.772 523.064 44.104 523.064C44.8 523.064 45.334 522.914 45.706 522.614C46.09 522.314 46.282 521.93 46.282 521.462C46.282 521.042 46.126 520.7 45.814 520.436C45.502 520.172 45.082 520.04 44.554 520.04H43.24V518.888H44.194C44.71 518.888 45.112 518.762 45.4 518.51C45.7 518.246 45.85 517.886 45.85 517.43C45.85 516.998 45.676 516.644 45.328 516.368C44.98 516.08 44.512 515.936 43.924 515.936C42.796 515.936 42.046 516.386 41.674 517.286L40.684 516.71C41.284 515.426 42.364 514.784 43.924 514.784C44.872 514.784 45.628 515.036 46.192 515.54C46.756 516.032 47.038 516.638 47.038 517.358C47.038 518.282 46.66 518.954 45.904 519.374ZM57.0156 515H58.2036V524H57.0156V522.236C56.1876 523.556 54.9756 524.216 53.3796 524.216C52.0956 524.216 50.9976 523.76 50.0856 522.848C49.1856 521.936 48.7356 520.82 48.7356 519.5C48.7356 518.18 49.1856 517.064 50.0856 516.152C50.9976 515.24 52.0956 514.784 53.3796 514.784C54.9756 514.784 56.1876 515.444 57.0156 516.764V515ZM50.9496 522.038C51.6336 522.722 52.4736 523.064 53.4696 523.064C54.4656 523.064 55.3056 522.722 55.9896 522.038C56.6736 521.342 57.0156 520.496 57.0156 519.5C57.0156 518.504 56.6736 517.664 55.9896 516.98C55.3056 516.284 54.4656 515.936 53.4696 515.936C52.4736 515.936 51.6336 516.284 50.9496 516.98C50.2656 517.664 49.9236 518.504 49.9236 519.5C49.9236 520.496 50.2656 521.342 50.9496 522.038ZM67.991 524H66.407L61.907 519.662V524H60.719V515H61.907V518.978L66.191 515H67.811L63.167 519.32L67.991 524ZM76.457 515H77.645V524H76.457V522.236C75.629 523.556 74.417 524.216 72.821 524.216C71.537 524.216 70.439 523.76 69.527 522.848C68.627 521.936 68.177 520.82 68.177 519.5C68.177 518.18 68.627 517.064 69.527 516.152C70.439 515.24 71.537 514.784 72.821 514.784C74.417 514.784 75.629 515.444 76.457 516.764V515ZM70.391 522.038C71.075 522.722 71.915 523.064 72.911 523.064C73.907 523.064 74.747 522.722 75.431 522.038C76.115 521.342 76.457 520.496 76.457 519.5C76.457 518.504 76.115 517.664 75.431 516.98C74.747 516.284 73.907 515.936 72.911 515.936C71.915 515.936 71.075 516.284 70.391 516.98C69.707 517.664 69.365 518.504 69.365 519.5C69.365 520.496 69.707 521.342 70.391 522.038ZM86.6404 515V516.152H83.4544V524H82.2664V516.152H79.0804V515H86.6404ZM91.7421 518.42C92.5821 518.42 93.2901 518.684 93.8661 519.212C94.4541 519.728 94.7481 520.394 94.7481 521.21C94.7481 522.026 94.4541 522.698 93.8661 523.226C93.2901 523.742 92.5821 524 91.7421 524H88.0881V515H89.2761V518.42H91.7421ZM96.0081 515H97.1961V524H96.0081V515ZM91.7421 522.848C92.2461 522.848 92.6721 522.698 93.0201 522.398C93.3801 522.098 93.5601 521.702 93.5601 521.21C93.5601 520.718 93.3801 520.322 93.0201 520.022C92.6721 519.722 92.2461 519.572 91.7421 519.572H89.2761V522.848H91.7421ZM105.449 519.374C106.433 519.734 106.925 520.436 106.925 521.48C106.925 522.212 106.679 522.818 106.187 523.298C105.707 523.766 105.011 524 104.099 524H99.7248V515H103.739C104.615 515 105.293 515.228 105.773 515.684C106.253 516.128 106.493 516.704 106.493 517.412C106.493 518.312 106.145 518.966 105.449 519.374ZM103.739 516.152H100.913V518.888H103.739C104.783 518.888 105.305 518.42 105.305 517.484C105.305 517.064 105.167 516.74 104.891 516.512C104.627 516.272 104.243 516.152 103.739 516.152ZM104.099 522.848C104.627 522.848 105.029 522.722 105.305 522.47C105.593 522.218 105.737 521.864 105.737 521.408C105.737 520.988 105.593 520.658 105.305 520.418C105.029 520.166 104.627 520.04 104.099 520.04H100.913V522.848H104.099ZM116.465 515H117.653V524H116.465V522.236C115.637 523.556 114.425 524.216 112.829 524.216C111.545 524.216 110.447 523.76 109.535 522.848C108.635 521.936 108.185 520.82 108.185 519.5C108.185 518.18 108.635 517.064 109.535 516.152C110.447 515.24 111.545 514.784 112.829 514.784C114.425 514.784 115.637 515.444 116.465 516.764V515ZM110.399 522.038C111.083 522.722 111.923 523.064 112.919 523.064C113.915 523.064 114.755 522.722 115.439 522.038C116.123 521.342 116.465 520.496 116.465 519.5C116.465 518.504 116.123 517.664 115.439 516.98C114.755 516.284 113.915 515.936 112.919 515.936C111.923 515.936 111.083 516.284 110.399 516.98C109.715 517.664 109.373 518.504 109.373 519.5C109.373 520.496 109.715 521.342 110.399 522.038ZM126.648 515V516.152H123.462V524H122.274V516.152H119.088V515H126.648ZM131.75 518.42C132.59 518.42 133.298 518.684 133.874 519.212C134.462 519.728 134.756 520.394 134.756 521.21C134.756 522.026 134.462 522.698 133.874 523.226C133.298 523.742 132.59 524 131.75 524H128.096V515H129.284V518.42H131.75ZM131.75 522.848C132.254 522.848 132.68 522.698 133.028 522.398C133.388 522.098 133.568 521.702 133.568 521.21C133.568 520.718 133.388 520.322 133.028 520.022C132.68 519.722 132.254 519.572 131.75 519.572H129.284V522.848H131.75ZM145.245 524.216C143.889 524.216 142.761 523.766 141.861 522.866C140.961 521.954 140.511 520.832 140.511 519.5C140.511 518.168 140.961 517.052 141.861 516.152C142.761 515.24 143.889 514.784 145.245 514.784C146.133 514.784 146.931 515 147.639 515.432C148.347 515.852 148.863 516.422 149.187 517.142L148.215 517.7C147.975 517.16 147.585 516.734 147.045 516.422C146.517 516.098 145.917 515.936 145.245 515.936C144.249 515.936 143.409 516.284 142.725 516.98C142.041 517.664 141.699 518.504 141.699 519.5C141.699 520.496 142.041 521.342 142.725 522.038C143.409 522.722 144.249 523.064 145.245 523.064C145.917 523.064 146.517 522.908 147.045 522.596C147.573 522.272 147.987 521.84 148.287 521.3L149.277 521.876C148.905 522.596 148.359 523.166 147.639 523.586C146.919 524.006 146.121 524.216 145.245 524.216ZM158.255 524H156.671L152.171 519.662V524H150.983V515H152.171V518.978L156.455 515H158.075L153.431 519.32L158.255 524ZM166.721 515H167.909V524H166.721V522.236C165.893 523.556 164.681 524.216 163.085 524.216C161.801 524.216 160.703 523.76 159.791 522.848C158.891 521.936 158.441 520.82 158.441 519.5C158.441 518.18 158.891 517.064 159.791 516.152C160.703 515.24 161.801 514.784 163.085 514.784C164.681 514.784 165.893 515.444 166.721 516.764V515ZM160.655 522.038C161.339 522.722 162.179 523.064 163.175 523.064C164.171 523.064 165.011 522.722 165.695 522.038C166.379 521.342 166.721 520.496 166.721 519.5C166.721 518.504 166.379 517.664 165.695 516.98C165.011 516.284 164.171 515.936 163.175 515.936C162.179 515.936 161.339 516.284 160.655 516.98C159.971 517.664 159.629 518.504 159.629 519.5C159.629 520.496 159.971 521.342 160.655 522.038ZM176.796 515H177.984V524H176.796V520.076H171.612V524H170.424V515H171.612V518.924H176.796V515ZM188.056 522.848H189.316V526.412H188.128V524H180.784V526.412H179.596V522.848H180.694C181.306 522.044 181.612 520.91 181.612 519.446V515H188.056V522.848ZM182.134 522.848H186.868V516.152H182.8V519.446C182.8 520.826 182.578 521.96 182.134 522.848ZM198.502 515H199.69V524H198.502V522.236C197.674 523.556 196.462 524.216 194.866 524.216C193.582 524.216 192.484 523.76 191.572 522.848C190.672 521.936 190.222 520.82 190.222 519.5C190.222 518.18 190.672 517.064 191.572 516.152C192.484 515.24 193.582 514.784 194.866 514.784C196.462 514.784 197.674 515.444 198.502 516.764V515ZM192.436 522.038C193.12 522.722 193.96 523.064 194.956 523.064C195.952 523.064 196.792 522.722 197.476 522.038C198.16 521.342 198.502 520.496 198.502 519.5C198.502 518.504 198.16 517.664 197.476 516.98C196.792 516.284 195.952 515.936 194.956 515.936C193.96 515.936 193.12 516.284 192.436 516.98C191.752 517.664 191.41 518.504 191.41 519.5C191.41 520.496 191.752 521.342 192.436 522.038ZM209.585 515V524H208.397V516.152H204.329V520.166C204.329 521.666 204.041 522.698 203.465 523.262C202.901 523.826 202.121 524.072 201.125 524V522.884C201.809 522.956 202.313 522.794 202.637 522.398C202.973 522.002 203.141 521.258 203.141 520.166V515H209.585Z" fill="#FFC2D7" fill-opacity="0.6"></path> <path d="M47.296 84.136L60.8 101H65.952V78.6H61.536V95.464L48.032 78.6H42.88V101H47.296V84.136ZM80.4918 97.768C77.4838 97.768 75.1478 96.456 74.5398 94.12H88.2998C88.4918 93.384 88.5878 92.648 88.5878 91.944C88.5878 87.624 84.9398 84.456 80.0758 84.456C74.7318 84.456 70.1878 87.656 70.1878 93C70.1878 97.8 74.1238 101.576 80.0758 101.576C83.0198 101.576 86.0278 100.584 88.1718 99.496L86.9237 96.168C84.6518 97.352 82.6678 97.768 80.4918 97.768ZM79.8198 88.008C82.3158 88.008 83.9158 89.128 84.3318 91.016H74.6358C75.2758 89.064 77.0677 88.008 79.8198 88.008ZM94.39 85H89.75L97.302 101H101.942L109.526 85H104.822L99.638 96.232L94.39 85ZM121.179 97.768C118.171 97.768 115.835 96.456 115.227 94.12H128.987C129.179 93.384 129.275 92.648 129.275 91.944C129.275 87.624 125.627 84.456 120.763 84.456C115.419 84.456 110.875 87.656 110.875 93C110.875 97.8 114.811 101.576 120.763 101.576C123.707 101.576 126.715 100.584 128.859 99.496L127.611 96.168C125.339 97.352 123.355 97.768 121.179 97.768ZM120.507 88.008C123.003 88.008 124.603 89.128 125.019 91.016H115.323C115.963 89.064 117.755 88.008 120.507 88.008ZM142.982 84.456C140.198 84.456 137.99 86.824 137.062 88.552V85H132.838V101H137.062V93.064C137.062 90.12 139.91 88.392 142.566 88.392C143.174 88.392 144.006 88.584 144.774 88.936L145.67 85.096C144.87 84.712 143.878 84.456 142.982 84.456ZM166.436 88.424C168.964 88.424 170.276 89.992 170.276 92.264V101H174.5V91.752C174.5 87.4 172.004 84.52 167.652 84.52C164.612 84.52 162.244 86.472 161.124 88.552V77.288H156.9V101H161.124V93.064C161.124 89.896 163.78 88.424 166.436 88.424ZM184.75 91.88C181.454 91.88 178.19 93.352 178.19 96.776C178.19 99.656 180.43 101.64 183.438 101.64C186.158 101.64 188.59 100.168 190.126 98.344C190.19 100.136 191.086 101.64 193.23 101.64C194.542 101.64 196.462 101 198.222 100.04L197.358 96.776C196.43 97.256 195.598 97.608 195.118 97.608C194.67 97.608 194.35 97.32 194.35 96.84V91.08C194.35 86.696 191.79 84.36 187.406 84.36C184.878 84.36 181.518 85.352 179.534 85.992L180.59 89.832C182.926 88.968 185.358 88.232 187.022 88.232C189.038 88.232 190.126 89.352 190.126 91.016V92.872C188.75 92.392 186.478 91.88 184.75 91.88ZM184.814 98.024C183.47 98.024 182.51 97.48 182.51 96.424C182.51 95.272 183.566 94.6 184.974 94.6C186.51 94.6 188.366 94.76 190.126 95.08V95.688C188.622 97.16 186.414 98.024 184.814 98.024ZM202.859 85H198.219L205.771 101H210.411L217.995 85H213.291L208.107 96.232L202.859 85ZM229.648 97.768C226.64 97.768 224.304 96.456 223.696 94.12H237.456C237.648 93.384 237.744 92.648 237.744 91.944C237.744 87.624 234.096 84.456 229.232 84.456C223.888 84.456 219.344 87.656 219.344 93C219.344 97.8 223.28 101.576 229.232 101.576C232.176 101.576 235.184 100.584 237.328 99.496L236.08 96.168C233.808 97.352 231.824 97.768 229.648 97.768ZM228.976 88.008C231.472 88.008 233.072 89.128 233.488 91.016H223.792C224.432 89.064 226.224 88.008 228.976 88.008ZM255.265 78.6H250.849V101H255.265V78.6ZM278.867 97.768C275.859 97.768 273.523 96.456 272.915 94.12H286.675C286.867 93.384 286.963 92.648 286.963 91.944C286.963 87.624 283.315 84.456 278.451 84.456C273.107 84.456 268.563 87.656 268.563 93C268.563 97.8 272.499 101.576 278.451 101.576C281.395 101.576 284.403 100.584 286.547 99.496L285.299 96.168C283.027 97.352 281.043 97.768 278.867 97.768ZM278.195 88.008C280.691 88.008 282.291 89.128 282.707 91.016H273.011C273.651 89.064 275.443 88.008 278.195 88.008ZM292.765 85H288.125L295.677 101H300.317L307.901 85H303.197L298.013 96.232L292.765 85ZM319.554 97.768C316.546 97.768 314.21 96.456 313.602 94.12H327.362C327.554 93.384 327.65 92.648 327.65 91.944C327.65 87.624 324.002 84.456 319.138 84.456C313.794 84.456 309.25 87.656 309.25 93C309.25 97.8 313.186 101.576 319.138 101.576C322.082 101.576 325.09 100.584 327.234 99.496L325.986 96.168C323.714 97.352 321.73 97.768 319.554 97.768ZM318.882 88.008C321.378 88.008 322.978 89.128 323.394 91.016H313.698C314.338 89.064 316.13 88.008 318.882 88.008ZM341.357 84.456C338.573 84.456 336.365 86.824 335.437 88.552V85H331.213V101H335.437V93.064C335.437 90.12 338.285 88.392 340.941 88.392C341.549 88.392 342.381 88.584 343.149 88.936L344.045 85.096C343.245 84.712 342.253 84.456 341.357 84.456ZM52.64 124.52C49.856 124.52 47.68 126.504 46.624 128.392V125H42.4V141H46.624V133.032C46.624 129.96 48.992 128.424 51.2 128.424C53.536 128.424 54.784 129.992 54.784 132.104V141H59.008V133.032C59.008 129.992 61.376 128.424 63.584 128.424C65.92 128.424 67.168 129.992 67.168 132.104V141H71.392V131.592C71.392 127.368 69.184 124.52 65.024 124.52C62.336 124.52 59.776 126.504 58.496 128.424C57.6 126.024 55.648 124.52 52.64 124.52ZM81.625 131.88C78.329 131.88 75.065 133.352 75.065 136.776C75.065 139.656 77.305 141.64 80.313 141.64C83.033 141.64 85.465 140.168 87.001 138.344C87.065 140.136 87.961 141.64 90.105 141.64C91.417 141.64 93.337 141 95.097 140.04L94.233 136.776C93.305 137.256 92.473 137.608 91.993 137.608C91.545 137.608 91.225 137.32 91.225 136.84V131.08C91.225 126.696 88.665 124.36 84.281 124.36C81.753 124.36 78.393 125.352 76.409 125.992L77.465 129.832C79.801 128.968 82.233 128.232 83.897 128.232C85.913 128.232 87.001 129.352 87.001 131.016V132.872C85.625 132.392 83.353 131.88 81.625 131.88ZM81.689 138.024C80.345 138.024 79.385 137.48 79.385 136.424C79.385 135.272 80.441 134.6 81.849 134.6C83.385 134.6 85.241 134.76 87.001 135.08V135.688C85.497 137.16 83.289 138.024 81.689 138.024ZM104.502 141.544C107.766 141.544 110.326 139.656 111.382 137.448V141H115.606V117H111.382V125.576C109.782 125.064 107.574 124.424 105.846 124.424C100.47 124.424 96.4378 128.36 96.4378 133.16C96.4378 138.344 100.118 141.544 104.502 141.544ZM105.75 137.608C102.902 137.608 100.694 136.008 100.694 133.128C100.694 130.312 102.902 128.136 105.782 128.136C107.734 128.136 109.526 128.552 111.382 129.096V132.552C111.382 135.624 108.566 137.608 105.75 137.608ZM129.648 137.768C126.64 137.768 124.304 136.456 123.696 134.12H137.456C137.648 133.384 137.744 132.648 137.744 131.944C137.744 127.624 134.096 124.456 129.232 124.456C123.888 124.456 119.344 127.656 119.344 133C119.344 137.8 123.28 141.576 129.232 141.576C132.176 141.576 135.184 140.584 137.328 139.496L136.08 136.168C133.808 137.352 131.824 137.768 129.648 137.768ZM128.976 128.008C131.472 128.008 133.072 129.128 133.488 131.016H123.792C124.432 129.064 126.224 128.008 128.976 128.008ZM155.969 131.88C152.673 131.88 149.409 133.352 149.409 136.776C149.409 139.656 151.649 141.64 154.657 141.64C157.377 141.64 159.809 140.168 161.345 138.344C161.409 140.136 162.305 141.64 164.449 141.64C165.761 141.64 167.681 141 169.441 140.04L168.577 136.776C167.649 137.256 166.817 137.608 166.337 137.608C165.889 137.608 165.569 137.32 165.569 136.84V131.08C165.569 126.696 163.009 124.36 158.625 124.36C156.097 124.36 152.737 125.352 150.753 125.992L151.809 129.832C154.145 128.968 156.577 128.232 158.241 128.232C160.257 128.232 161.345 129.352 161.345 131.016V132.872C159.969 132.392 157.697 131.88 155.969 131.88ZM156.033 138.024C154.689 138.024 153.729 137.48 153.729 136.424C153.729 135.272 154.785 134.6 156.193 134.6C157.729 134.6 159.585 134.76 161.345 135.08V135.688C159.841 137.16 157.633 138.024 156.033 138.024ZM195.044 125.576C193.156 124.936 190.18 124.392 187.652 124.392C183.108 124.392 179.876 126.376 179.876 129.512C179.876 135.752 191.78 133.64 191.78 136.168C191.78 137.288 190.18 137.928 187.876 137.928C185.412 137.928 182.916 137.16 180.804 136.232L179.556 139.56C181.732 140.712 184.708 141.64 187.716 141.64C191.62 141.64 195.94 139.624 195.94 136.04C195.94 129.8 184.036 132.008 184.036 129.352C184.036 128.392 185.7 128.072 187.812 128.072C189.86 128.072 191.844 128.488 193.924 129.288L195.044 125.576ZM208.451 124.456C203.107 124.456 198.563 127.656 198.563 133C198.563 137.8 202.211 141.576 208.163 141.576C211.171 141.576 213.923 140.648 216.099 139.496L214.851 136.168C212.739 137.096 211.043 137.768 208.707 137.768C205.379 137.768 202.819 135.912 202.819 132.84C202.819 129.928 205.123 128.168 208.195 128.168C210.371 128.168 212.227 128.616 214.435 129.512L215.459 125.736C213.539 125.064 211.107 124.456 208.451 124.456ZM228.554 137.768C225.546 137.768 223.21 136.456 222.602 134.12H236.362C236.554 133.384 236.65 132.648 236.65 131.944C236.65 127.624 233.002 124.456 228.138 124.456C222.794 124.456 218.25 127.656 218.25 133C218.25 137.8 222.186 141.576 228.138 141.576C231.082 141.576 234.09 140.584 236.234 139.496L234.986 136.168C232.714 137.352 230.73 137.768 228.554 137.768ZM227.882 128.008C230.378 128.008 231.978 129.128 232.394 131.016H222.698C223.338 129.064 225.13 128.008 227.882 128.008ZM249.749 128.424C252.277 128.424 253.589 129.992 253.589 132.264V141H257.812V131.752C257.812 127.4 255.317 124.52 250.965 124.52C247.925 124.52 245.557 126.472 244.437 128.552V125H240.213V141H244.437V133.064C244.437 129.896 247.093 128.424 249.749 128.424ZM271.711 137.768C268.703 137.768 266.367 136.456 265.759 134.12H279.519C279.711 133.384 279.807 132.648 279.807 131.944C279.807 127.624 276.159 124.456 271.295 124.456C265.951 124.456 261.407 127.656 261.407 133C261.407 137.8 265.343 141.576 271.295 141.576C274.239 141.576 277.247 140.584 279.391 139.496L278.142 136.168C275.871 137.352 273.887 137.768 271.711 137.768ZM271.039 128.008C273.535 128.008 275.135 129.128 275.551 131.016H265.855C266.495 129.064 268.286 128.008 271.039 128.008ZM296.655 125H292.495V141H296.655V125ZM292.047 120.392C292.047 121.8 293.167 122.92 294.575 122.92C295.983 122.92 297.103 121.8 297.103 120.392C297.103 119.016 295.983 117.896 294.575 117.896C293.167 117.896 292.047 119.016 292.047 120.392ZM311.061 128.424C313.589 128.424 314.901 129.992 314.901 132.264V141H319.125V131.752C319.125 127.4 316.629 124.52 312.277 124.52C309.237 124.52 306.869 126.472 305.749 128.552V125H301.525V141H305.749V133.064C305.749 129.896 308.405 128.424 311.061 128.424ZM338.438 131.88C335.141 131.88 331.878 133.352 331.878 136.776C331.878 139.656 334.118 141.64 337.126 141.64C339.845 141.64 342.278 140.168 343.814 138.344C343.878 140.136 344.774 141.64 346.918 141.64C348.23 141.64 350.15 141 351.91 140.04L351.046 136.776C350.118 137.256 349.286 137.608 348.806 137.608C348.358 137.608 348.038 137.32 348.038 136.84V131.08C348.038 126.696 345.478 124.36 341.094 124.36C338.566 124.36 335.206 125.352 333.222 125.992L334.278 129.832C336.614 128.968 339.046 128.232 340.71 128.232C342.726 128.232 343.814 129.352 343.814 131.016V132.872C342.438 132.392 340.166 131.88 338.438 131.88ZM338.502 138.024C337.158 138.024 336.198 137.48 336.198 136.424C336.198 135.272 337.254 134.6 338.661 134.6C340.198 134.6 342.054 134.76 343.814 135.08V135.688C342.31 137.16 340.102 138.024 338.502 138.024ZM53.504 164.456C50.24 164.456 47.68 166.344 46.624 168.552V165H42.4V188.68H46.624V180.456C48.192 180.936 50.4 181.576 52.16 181.576C57.536 181.576 61.568 177.64 61.568 172.84C61.568 167.656 57.888 164.456 53.504 164.456ZM52.256 168.392C55.104 168.392 57.312 169.96 57.312 172.84C57.312 175.528 54.976 177.864 52.224 177.864C50.24 177.864 48.448 177.448 46.624 176.904V173.064C46.624 170.12 49.408 168.392 52.256 168.392ZM71.8663 181.512C74.7783 181.512 77.2423 179.752 78.3943 177.48V181H82.6183V165H78.3943V172.744C78.3943 176.136 76.1223 177.608 73.4343 177.608C70.9062 177.608 69.3703 176.328 69.3703 173.736V165H65.1463V174.28C65.1463 178.632 67.5783 181.512 71.8663 181.512ZM98.4073 164.456C95.2393 164.456 92.7113 166.344 91.6553 168.552V157H87.4313V179.4C89.5113 180.328 93.8633 181.576 97.0633 181.576C102.311 181.576 106.343 177.64 106.343 172.84C106.343 167.656 102.663 164.456 98.4073 164.456ZM97.1593 168.392C99.9433 168.392 102.087 169.96 102.087 172.84C102.087 175.528 99.7513 177.864 97.1273 177.864C95.1753 177.864 93.5113 177.544 91.6553 176.936V173.064C91.6553 170.12 94.4713 168.392 97.1593 168.392ZM114.28 181V157H110.088V181H114.28ZM123.312 165H119.152V181H123.312V165ZM118.704 160.392C118.704 161.8 119.824 162.92 121.232 162.92C122.64 162.92 123.76 161.8 123.76 160.392C123.76 159.016 122.64 157.896 121.232 157.896C119.824 157.896 118.704 159.016 118.704 160.392ZM137.013 164.456C131.669 164.456 127.125 167.656 127.125 173C127.125 177.8 130.773 181.576 136.725 181.576C139.733 181.576 142.485 180.648 144.661 179.496L143.413 176.168C141.301 177.096 139.605 177.768 137.269 177.768C133.941 177.768 131.381 175.912 131.381 172.84C131.381 169.928 133.685 168.168 136.757 168.168C138.933 168.168 140.789 168.616 142.997 169.512L144.021 165.736C142.101 165.064 139.669 164.456 137.013 164.456ZM168.035 164.456C164.771 164.456 162.211 166.344 161.155 168.552V165H156.931V188.68H161.155V180.456C162.723 180.936 164.931 181.576 166.691 181.576C172.067 181.576 176.099 177.64 176.099 172.84C176.099 167.656 172.419 164.456 168.035 164.456ZM166.787 168.392C169.635 168.392 171.843 169.96 171.843 172.84C171.843 175.528 169.507 177.864 166.755 177.864C164.771 177.864 162.979 177.448 161.155 176.904V173.064C161.155 170.12 163.939 168.392 166.787 168.392ZM184.03 181V157H179.838V181H184.03ZM194.438 171.88C191.141 171.88 187.878 173.352 187.878 176.776C187.878 179.656 190.118 181.64 193.126 181.64C195.845 181.64 198.278 180.168 199.814 178.344C199.878 180.136 200.774 181.64 202.918 181.64C204.23 181.64 206.15 181 207.91 180.04L207.046 176.776C206.118 177.256 205.286 177.608 204.806 177.608C204.358 177.608 204.038 177.32 204.038 176.84V171.08C204.038 166.696 201.478 164.36 197.094 164.36C194.566 164.36 191.206 165.352 189.222 165.992L190.278 169.832C192.614 168.968 195.046 168.232 196.71 168.232C198.726 168.232 199.814 169.352 199.814 171.016V172.872C198.438 172.392 196.166 171.88 194.438 171.88ZM194.502 178.024C193.158 178.024 192.198 177.48 192.198 176.424C192.198 175.272 193.254 174.6 194.661 174.6C196.198 174.6 198.054 174.76 199.814 175.08V175.688C198.31 177.16 196.102 178.024 194.502 178.024ZM219.138 164.456C213.794 164.456 209.25 167.656 209.25 173C209.25 177.8 212.898 181.576 218.85 181.576C221.858 181.576 224.61 180.648 226.786 179.496L225.538 176.168C223.426 177.096 221.73 177.768 219.394 177.768C216.066 177.768 213.506 175.912 213.506 172.84C213.506 169.928 215.81 168.168 218.882 168.168C221.058 168.168 222.914 168.616 225.122 169.512L226.146 165.736C224.226 165.064 221.794 164.456 219.138 164.456ZM239.242 177.768C236.234 177.768 233.898 176.456 233.29 174.12H247.05C247.242 173.384 247.338 172.648 247.338 171.944C247.338 167.624 243.69 164.456 238.826 164.456C233.482 164.456 228.938 167.656 228.938 173C228.938 177.8 232.874 181.576 238.826 181.576C241.77 181.576 244.778 180.584 246.922 179.496L245.674 176.168C243.402 177.352 241.418 177.768 239.242 177.768ZM238.57 168.008C241.066 168.008 242.666 169.128 243.082 171.016H233.386C234.026 169.064 235.818 168.008 238.57 168.008Z" fill="#FFC2D7"></path> <path d="M44.194 260L40.54 247.4H41.872L44.986 258.29L48.262 247.4H49.738L53.014 258.29L56.128 247.4H57.46L53.806 260H52.294L49 249.056L45.706 260H44.194ZM63.1204 250.784C64.2124 250.784 65.0704 251.12 65.6944 251.792C66.3304 252.452 66.6484 253.346 66.6484 254.474V260H65.4604V254.474C65.4604 253.67 65.2444 253.046 64.8124 252.602C64.3924 252.158 63.7924 251.936 63.0124 251.936C62.1484 251.936 61.4464 252.212 60.9064 252.764C60.3664 253.304 60.0964 254.144 60.0964 255.284V260H58.9084V247.4H60.0964V252.404C60.7684 251.324 61.7764 250.784 63.1204 250.784ZM76.6855 251H77.8735V260H76.6855V258.236C75.8575 259.556 74.6455 260.216 73.0495 260.216C71.7655 260.216 70.6675 259.76 69.7555 258.848C68.8555 257.936 68.4055 256.82 68.4055 255.5C68.4055 254.18 68.8555 253.064 69.7555 252.152C70.6675 251.24 71.7655 250.784 73.0495 250.784C74.6455 250.784 75.8575 251.444 76.6855 252.764V251ZM70.6195 258.038C71.3035 258.722 72.1435 259.064 73.1395 259.064C74.1355 259.064 74.9755 258.722 75.6595 258.038C76.3435 257.342 76.6855 256.496 76.6855 255.5C76.6855 254.504 76.3435 253.664 75.6595 252.98C74.9755 252.284 74.1355 251.936 73.1395 251.936C72.1435 251.936 71.3035 252.284 70.6195 252.98C69.9355 253.664 69.5935 254.504 69.5935 255.5C69.5935 256.496 69.9355 257.342 70.6195 258.038ZM85.1589 252.152H82.5669V257.606C82.5669 258.098 82.6629 258.452 82.8549 258.668C83.0469 258.872 83.3349 258.98 83.7189 258.992C84.1029 258.992 84.5829 258.98 85.1589 258.956V260C83.8989 260.192 82.9509 260.102 82.3149 259.73C81.6909 259.358 81.3789 258.65 81.3789 257.606V252.152H79.4889V251H81.3789V248.84L82.5669 248.48V251H85.1589V252.152ZM102.475 251H103.699L100.927 260H99.6309L97.3089 252.746L94.9869 260H93.6909L90.9189 251H92.1429L94.3569 258.47L96.7149 251H97.9029L100.261 258.47L102.475 251ZM112.879 251H114.067V260H112.879V258.236C112.051 259.556 110.839 260.216 109.243 260.216C107.959 260.216 106.861 259.76 105.949 258.848C105.049 257.936 104.599 256.82 104.599 255.5C104.599 254.18 105.049 253.064 105.949 252.152C106.861 251.24 107.959 250.784 109.243 250.784C110.839 250.784 112.051 251.444 112.879 252.764V251ZM106.813 258.038C107.497 258.722 108.337 259.064 109.333 259.064C110.329 259.064 111.169 258.722 111.853 258.038C112.537 257.342 112.879 256.496 112.879 255.5C112.879 254.504 112.537 253.664 111.853 252.98C111.169 252.284 110.329 251.936 109.333 251.936C108.337 251.936 107.497 252.284 106.813 252.98C106.129 253.664 105.787 254.504 105.787 255.5C105.787 256.496 106.129 257.342 106.813 258.038ZM117.518 253.358C117.518 253.766 117.698 254.09 118.058 254.33C118.418 254.57 118.856 254.756 119.372 254.888C119.888 255.02 120.404 255.17 120.92 255.338C121.436 255.494 121.874 255.764 122.234 256.148C122.594 256.52 122.774 257.012 122.774 257.624C122.774 258.392 122.468 259.016 121.856 259.496C121.256 259.976 120.476 260.216 119.516 260.216C118.652 260.216 117.914 260.024 117.302 259.64C116.702 259.256 116.282 258.758 116.042 258.146L117.05 257.552C117.218 258.02 117.518 258.392 117.95 258.668C118.394 258.932 118.916 259.064 119.516 259.064C120.104 259.064 120.596 258.95 120.992 258.722C121.388 258.482 121.586 258.116 121.586 257.624C121.586 257.216 121.406 256.892 121.046 256.652C120.686 256.412 120.248 256.226 119.732 256.094C119.216 255.962 118.7 255.818 118.184 255.662C117.668 255.494 117.23 255.224 116.87 254.852C116.51 254.468 116.33 253.97 116.33 253.358C116.33 252.626 116.618 252.014 117.194 251.522C117.782 251.03 118.52 250.784 119.408 250.784C120.14 250.784 120.782 250.952 121.334 251.288C121.886 251.612 122.294 252.056 122.558 252.62L121.568 253.196C121.22 252.356 120.5 251.936 119.408 251.936C118.892 251.936 118.448 252.062 118.076 252.314C117.704 252.554 117.518 252.902 117.518 253.358ZM134.026 252.152H131.434V257.606C131.434 258.098 131.53 258.452 131.722 258.668C131.914 258.872 132.202 258.98 132.586 258.992C132.97 258.992 133.45 258.98 134.026 258.956V260C132.766 260.192 131.818 260.102 131.182 259.73C130.558 259.358 130.246 258.65 130.246 257.606V252.152H128.356V251H130.246V248.84L131.434 248.48V251H134.026V252.152ZM140.218 250.784C141.31 250.784 142.168 251.12 142.792 251.792C143.428 252.452 143.746 253.346 143.746 254.474V260H142.558V254.474C142.558 253.67 142.342 253.046 141.91 252.602C141.49 252.158 140.89 251.936 140.11 251.936C139.246 251.936 138.544 252.212 138.004 252.764C137.464 253.304 137.194 254.144 137.194 255.284V260H136.006V247.4H137.194V252.404C137.866 251.324 138.874 250.784 140.218 250.784ZM150.201 250.784C151.533 250.784 152.607 251.258 153.423 252.206C154.251 253.142 154.665 254.252 154.665 255.536C154.665 255.668 154.653 255.854 154.629 256.094H146.727C146.847 257.006 147.231 257.732 147.879 258.272C148.539 258.8 149.349 259.064 150.309 259.064C150.993 259.064 151.581 258.926 152.073 258.65C152.577 258.362 152.955 257.99 153.207 257.534L154.251 258.146C153.855 258.782 153.315 259.286 152.631 259.658C151.947 260.03 151.167 260.216 150.291 260.216C148.875 260.216 147.723 259.772 146.835 258.884C145.947 257.996 145.503 256.868 145.503 255.5C145.503 254.156 145.941 253.034 146.817 252.134C147.693 251.234 148.821 250.784 150.201 250.784ZM150.201 251.936C149.265 251.936 148.479 252.218 147.843 252.782C147.219 253.334 146.847 254.054 146.727 254.942H153.441C153.321 253.994 152.955 253.256 152.343 252.728C151.731 252.2 151.017 251.936 150.201 251.936ZM162.243 252.494C162.795 251.402 163.743 250.856 165.087 250.856V252.008C164.271 252.008 163.593 252.248 163.053 252.728C162.513 253.208 162.243 253.964 162.243 254.996V260H161.055V251H162.243V252.494ZM170.328 250.784C171.66 250.784 172.734 251.258 173.55 252.206C174.378 253.142 174.792 254.252 174.792 255.536C174.792 255.668 174.78 255.854 174.756 256.094H166.854C166.974 257.006 167.358 257.732 168.006 258.272C168.666 258.8 169.476 259.064 170.436 259.064C171.12 259.064 171.708 258.926 172.2 258.65C172.704 258.362 173.082 257.99 173.334 257.534L174.378 258.146C173.982 258.782 173.442 259.286 172.758 259.658C172.074 260.03 171.294 260.216 170.418 260.216C169.002 260.216 167.85 259.772 166.962 258.884C166.074 257.996 165.63 256.868 165.63 255.5C165.63 254.156 166.068 253.034 166.944 252.134C167.82 251.234 168.948 250.784 170.328 250.784ZM170.328 251.936C169.392 251.936 168.606 252.218 167.97 252.782C167.346 253.334 166.974 254.054 166.854 254.942H173.568C173.448 253.994 173.082 253.256 172.47 252.728C171.858 252.2 171.144 251.936 170.328 251.936ZM184.422 251H185.61V260H184.422V258.236C183.594 259.556 182.382 260.216 180.786 260.216C179.502 260.216 178.404 259.76 177.492 258.848C176.592 257.936 176.142 256.82 176.142 255.5C176.142 254.18 176.592 253.064 177.492 252.152C178.404 251.24 179.502 250.784 180.786 250.784C182.382 250.784 183.594 251.444 184.422 252.764V251ZM178.356 258.038C179.04 258.722 179.88 259.064 180.876 259.064C181.872 259.064 182.712 258.722 183.396 258.038C184.08 257.342 184.422 256.496 184.422 255.5C184.422 254.504 184.08 253.664 183.396 252.98C182.712 252.284 181.872 251.936 180.876 251.936C179.88 251.936 179.04 252.284 178.356 252.98C177.672 253.664 177.33 254.504 177.33 255.5C177.33 256.496 177.672 257.342 178.356 258.038ZM189.061 253.358C189.061 253.766 189.241 254.09 189.601 254.33C189.961 254.57 190.399 254.756 190.915 254.888C191.431 255.02 191.947 255.17 192.463 255.338C192.979 255.494 193.417 255.764 193.777 256.148C194.137 256.52 194.317 257.012 194.317 257.624C194.317 258.392 194.011 259.016 193.399 259.496C192.799 259.976 192.019 260.216 191.059 260.216C190.195 260.216 189.457 260.024 188.845 259.64C188.245 259.256 187.825 258.758 187.585 258.146L188.593 257.552C188.761 258.02 189.061 258.392 189.493 258.668C189.937 258.932 190.459 259.064 191.059 259.064C191.647 259.064 192.139 258.95 192.535 258.722C192.931 258.482 193.129 258.116 193.129 257.624C193.129 257.216 192.949 256.892 192.589 256.652C192.229 256.412 191.791 256.226 191.275 256.094C190.759 255.962 190.243 255.818 189.727 255.662C189.211 255.494 188.773 255.224 188.413 254.852C188.053 254.468 187.873 253.97 187.873 253.358C187.873 252.626 188.161 252.014 188.737 251.522C189.325 251.03 190.063 250.784 190.951 250.784C191.683 250.784 192.325 250.952 192.877 251.288C193.429 251.612 193.837 252.056 194.101 252.62L193.111 253.196C192.763 252.356 192.043 251.936 190.951 251.936C190.435 251.936 189.991 252.062 189.619 252.314C189.247 252.554 189.061 252.902 189.061 253.358ZM203.577 258.866C202.665 259.766 201.549 260.216 200.229 260.216C198.909 260.216 197.787 259.766 196.863 258.866C195.951 257.954 195.495 256.832 195.495 255.5C195.495 254.168 195.951 253.052 196.863 252.152C197.787 251.24 198.909 250.784 200.229 250.784C201.549 250.784 202.665 251.24 203.577 252.152C204.501 253.052 204.963 254.168 204.963 255.5C204.963 256.832 204.501 257.954 203.577 258.866ZM197.709 258.038C198.393 258.722 199.233 259.064 200.229 259.064C201.225 259.064 202.065 258.722 202.749 258.038C203.433 257.342 203.775 256.496 203.775 255.5C203.775 254.504 203.433 253.664 202.749 252.98C202.065 252.284 201.225 251.936 200.229 251.936C199.233 251.936 198.393 252.284 197.709 252.98C197.025 253.664 196.683 254.504 196.683 255.5C196.683 256.496 197.025 257.342 197.709 258.038ZM211.163 250.784C212.255 250.784 213.113 251.12 213.737 251.792C214.373 252.452 214.691 253.346 214.691 254.474V260H213.503V254.474C213.503 253.67 213.287 253.046 212.855 252.602C212.435 252.158 211.835 251.936 211.055 251.936C210.191 251.936 209.489 252.212 208.949 252.764C208.409 253.304 208.139 254.144 208.139 255.284V260H206.951V251H208.139V252.404C208.811 251.324 209.819 250.784 211.163 250.784ZM218.788 256.58C218.788 255.992 218.908 255.458 219.148 254.978C219.388 254.486 219.676 254.072 220.012 253.736C220.348 253.4 220.684 253.076 221.02 252.764C221.356 252.452 221.644 252.11 221.884 251.738C222.124 251.354 222.244 250.946 222.244 250.514C222.244 249.818 222.004 249.296 221.524 248.948C221.056 248.588 220.45 248.408 219.706 248.408C218.23 248.408 217.318 249.014 216.97 250.226L215.908 249.632C216.184 248.828 216.664 248.222 217.348 247.814C218.044 247.394 218.83 247.184 219.706 247.184C220.762 247.184 221.656 247.478 222.388 248.066C223.132 248.642 223.504 249.458 223.504 250.514C223.504 251.03 223.384 251.51 223.144 251.954C222.904 252.398 222.616 252.788 222.28 253.124C221.944 253.448 221.608 253.772 221.272 254.096C220.936 254.42 220.648 254.798 220.408 255.23C220.168 255.65 220.048 256.1 220.048 256.58H218.788ZM220.12 259.892C219.928 260.084 219.694 260.18 219.418 260.18C219.142 260.18 218.908 260.084 218.716 259.892C218.524 259.7 218.428 259.466 218.428 259.19C218.428 258.914 218.524 258.68 218.716 258.488C218.908 258.296 219.142 258.2 219.418 258.2C219.694 258.2 219.928 258.296 220.12 258.488C220.312 258.68 220.408 258.914 220.408 259.19C220.408 259.466 220.312 259.7 220.12 259.892Z" fill="#FFC2D7"></path> <path d="M46.3 284.4C48.016 284.4 49.432 285.012 50.548 286.236C51.676 287.448 52.24 288.936 52.24 290.7C52.24 292.464 51.676 293.958 50.548 295.182C49.432 296.394 48.016 297 46.3 297H41.44V284.4H46.3ZM46.3 295.812C47.68 295.812 48.808 295.32 49.684 294.336C50.572 293.352 51.016 292.14 51.016 290.7C51.016 289.26 50.572 288.048 49.684 287.064C48.808 286.08 47.68 285.588 46.3 285.588H42.7V295.812H46.3ZM55.4211 285.84C55.2531 286.008 55.0491 286.092 54.8091 286.092C54.5691 286.092 54.3651 286.008 54.1971 285.84C54.0291 285.672 53.9451 285.468 53.9451 285.228C53.9451 284.988 54.0291 284.784 54.1971 284.616C54.3651 284.448 54.5691 284.364 54.8091 284.364C55.0491 284.364 55.2531 284.448 55.4211 284.616C55.5891 284.784 55.6731 284.988 55.6731 285.228C55.6731 285.468 55.5891 285.672 55.4211 285.84ZM54.2151 297V288H55.4031V297H54.2151ZM65.6641 284.4H66.8521V297H65.6641V295.236C64.8361 296.556 63.6241 297.216 62.0281 297.216C60.7441 297.216 59.6461 296.76 58.7341 295.848C57.8341 294.936 57.3841 293.82 57.3841 292.5C57.3841 291.18 57.8341 290.064 58.7341 289.152C59.6461 288.24 60.7441 287.784 62.0281 287.784C63.6241 287.784 64.8361 288.444 65.6641 289.764V284.4ZM59.5981 295.038C60.2821 295.722 61.1221 296.064 62.1181 296.064C63.1141 296.064 63.9541 295.722 64.6381 295.038C65.3221 294.342 65.6641 293.496 65.6641 292.5C65.6641 291.504 65.3221 290.664 64.6381 289.98C63.9541 289.284 63.1141 288.936 62.1181 288.936C61.1221 288.936 60.2821 289.284 59.5981 289.98C58.9141 290.664 58.5721 291.504 58.5721 292.5C58.5721 293.496 58.9141 294.342 59.5981 295.038ZM80.3474 288H81.6074L77.7554 297.828C77.4074 298.716 76.9094 299.412 76.2614 299.916C75.6254 300.432 74.9114 300.66 74.1194 300.6V299.484C75.1994 299.604 76.0214 298.98 76.5854 297.612L76.8194 297.054L72.7874 288H74.0474L77.4314 295.542L80.3474 288ZM90.2336 295.866C89.3216 296.766 88.2056 297.216 86.8856 297.216C85.5656 297.216 84.4436 296.766 83.5196 295.866C82.6076 294.954 82.1516 293.832 82.1516 292.5C82.1516 291.168 82.6076 290.052 83.5196 289.152C84.4436 288.24 85.5656 287.784 86.8856 287.784C88.2056 287.784 89.3216 288.24 90.2336 289.152C91.1576 290.052 91.6196 291.168 91.6196 292.5C91.6196 293.832 91.1576 294.954 90.2336 295.866ZM84.3656 295.038C85.0496 295.722 85.8896 296.064 86.8856 296.064C87.8816 296.064 88.7216 295.722 89.4056 295.038C90.0896 294.342 90.4316 293.496 90.4316 292.5C90.4316 291.504 90.0896 290.664 89.4056 289.98C88.7216 289.284 87.8816 288.936 86.8856 288.936C85.8896 288.936 85.0496 289.284 84.3656 289.98C83.6816 290.664 83.3396 291.504 83.3396 292.5C83.3396 293.496 83.6816 294.342 84.3656 295.038ZM99.9437 288H101.132V297H99.9437V295.596C99.2717 296.676 98.2637 297.216 96.9197 297.216C95.8277 297.216 94.9637 296.886 94.3277 296.226C93.7037 295.554 93.3917 294.654 93.3917 293.526V288H94.5797V293.526C94.5797 294.33 94.7897 294.954 95.2097 295.398C95.6417 295.842 96.2477 296.064 97.0277 296.064C97.8917 296.064 98.5937 295.794 99.1337 295.254C99.6737 294.702 99.9437 293.856 99.9437 292.716V288ZM112.645 285.336C111.769 285.264 111.115 285.414 110.683 285.786C110.263 286.158 110.053 286.776 110.053 287.64V288H112.645V289.152H110.053V297H108.865V289.152H107.335V288H108.865V287.64C108.865 286.464 109.189 285.576 109.837 284.976C110.497 284.364 111.433 284.1 112.645 284.184V285.336ZM117.523 287.784C118.855 287.784 119.929 288.258 120.745 289.206C121.573 290.142 121.987 291.252 121.987 292.536C121.987 292.668 121.975 292.854 121.951 293.094H114.049C114.169 294.006 114.553 294.732 115.201 295.272C115.861 295.8 116.671 296.064 117.631 296.064C118.315 296.064 118.903 295.926 119.395 295.65C119.899 295.362 120.277 294.99 120.529 294.534L121.573 295.146C121.177 295.782 120.637 296.286 119.953 296.658C119.269 297.03 118.489 297.216 117.613 297.216C116.197 297.216 115.045 296.772 114.157 295.884C113.269 294.996 112.825 293.868 112.825 292.5C112.825 291.156 113.263 290.034 114.139 289.134C115.015 288.234 116.143 287.784 117.523 287.784ZM117.523 288.936C116.587 288.936 115.801 289.218 115.165 289.782C114.541 290.334 114.169 291.054 114.049 291.942H120.763C120.643 290.994 120.277 290.256 119.665 289.728C119.053 289.2 118.339 288.936 117.523 288.936ZM128.035 287.784C129.367 287.784 130.441 288.258 131.257 289.206C132.085 290.142 132.499 291.252 132.499 292.536C132.499 292.668 132.487 292.854 132.463 293.094H124.561C124.681 294.006 125.065 294.732 125.713 295.272C126.373 295.8 127.183 296.064 128.143 296.064C128.827 296.064 129.415 295.926 129.907 295.65C130.411 295.362 130.789 294.99 131.041 294.534L132.085 295.146C131.689 295.782 131.149 296.286 130.465 296.658C129.781 297.03 129.001 297.216 128.125 297.216C126.709 297.216 125.557 296.772 124.669 295.884C123.781 294.996 123.337 293.868 123.337 292.5C123.337 291.156 123.775 290.034 124.651 289.134C125.527 288.234 126.655 287.784 128.035 287.784ZM128.035 288.936C127.099 288.936 126.313 289.218 125.677 289.782C125.053 290.334 124.681 291.054 124.561 291.942H131.275C131.155 290.994 130.789 290.256 130.177 289.728C129.565 289.2 128.851 288.936 128.035 288.936ZM134.389 297V283.86H135.577V297H134.389ZM143.534 290.358C143.534 290.766 143.714 291.09 144.074 291.33C144.434 291.57 144.872 291.756 145.388 291.888C145.904 292.02 146.42 292.17 146.936 292.338C147.452 292.494 147.89 292.764 148.25 293.148C148.61 293.52 148.79 294.012 148.79 294.624C148.79 295.392 148.484 296.016 147.872 296.496C147.272 296.976 146.492 297.216 145.532 297.216C144.668 297.216 143.93 297.024 143.318 296.64C142.718 296.256 142.298 295.758 142.058 295.146L143.066 294.552C143.234 295.02 143.534 295.392 143.966 295.668C144.41 295.932 144.932 296.064 145.532 296.064C146.12 296.064 146.612 295.95 147.008 295.722C147.404 295.482 147.602 295.116 147.602 294.624C147.602 294.216 147.422 293.892 147.062 293.652C146.702 293.412 146.264 293.226 145.748 293.094C145.232 292.962 144.716 292.818 144.2 292.662C143.684 292.494 143.246 292.224 142.886 291.852C142.526 291.468 142.346 290.97 142.346 290.358C142.346 289.626 142.634 289.014 143.21 288.522C143.798 288.03 144.536 287.784 145.424 287.784C146.156 287.784 146.798 287.952 147.35 288.288C147.902 288.612 148.31 289.056 148.574 289.62L147.584 290.196C147.236 289.356 146.516 288.936 145.424 288.936C144.908 288.936 144.464 289.062 144.092 289.314C143.72 289.554 143.534 289.902 143.534 290.358ZM154.896 287.784C155.988 287.784 156.846 288.12 157.47 288.792C158.106 289.452 158.424 290.346 158.424 291.474V297H157.236V291.474C157.236 290.67 157.02 290.046 156.588 289.602C156.168 289.158 155.568 288.936 154.788 288.936C153.924 288.936 153.222 289.212 152.682 289.764C152.142 290.304 151.872 291.144 151.872 292.284V297H150.684V284.4H151.872V289.404C152.544 288.324 153.552 287.784 154.896 287.784ZM168.461 288H169.649V297H168.461V295.236C167.633 296.556 166.421 297.216 164.825 297.216C163.541 297.216 162.443 296.76 161.531 295.848C160.631 294.936 160.181 293.82 160.181 292.5C160.181 291.18 160.631 290.064 161.531 289.152C162.443 288.24 163.541 287.784 164.825 287.784C166.421 287.784 167.633 288.444 168.461 289.764V288ZM162.395 295.038C163.079 295.722 163.919 296.064 164.915 296.064C165.911 296.064 166.751 295.722 167.435 295.038C168.119 294.342 168.461 293.496 168.461 292.5C168.461 291.504 168.119 290.664 167.435 289.98C166.751 289.284 165.911 288.936 164.915 288.936C163.919 288.936 163.079 289.284 162.395 289.98C161.711 290.664 161.369 291.504 161.369 292.5C161.369 293.496 161.711 294.342 162.395 295.038ZM181.758 287.784C182.766 287.784 183.576 288.108 184.188 288.756C184.812 289.404 185.124 290.28 185.124 291.384V297H183.936V291.384C183.936 290.604 183.732 290.004 183.324 289.584C182.928 289.152 182.4 288.936 181.74 288.936C180.996 288.936 180.39 289.188 179.922 289.692C179.466 290.184 179.238 290.958 179.238 292.014V297H178.05V291.384C178.05 290.592 177.858 289.986 177.474 289.566C177.102 289.146 176.592 288.936 175.944 288.936C175.224 288.936 174.612 289.188 174.108 289.692C173.604 290.196 173.352 290.97 173.352 292.014V297H172.164V288H173.352V289.314C174 288.294 174.918 287.784 176.106 287.784C177.402 287.784 178.314 288.33 178.842 289.422C179.49 288.33 180.462 287.784 181.758 287.784ZM191.58 287.784C192.912 287.784 193.986 288.258 194.802 289.206C195.63 290.142 196.044 291.252 196.044 292.536C196.044 292.668 196.032 292.854 196.008 293.094H188.106C188.226 294.006 188.61 294.732 189.258 295.272C189.918 295.8 190.728 296.064 191.688 296.064C192.372 296.064 192.96 295.926 193.452 295.65C193.956 295.362 194.334 294.99 194.586 294.534L195.63 295.146C195.234 295.782 194.694 296.286 194.01 296.658C193.326 297.03 192.546 297.216 191.67 297.216C190.254 297.216 189.102 296.772 188.214 295.884C187.326 294.996 186.882 293.868 186.882 292.5C186.882 291.156 187.32 290.034 188.196 289.134C189.072 288.234 190.2 287.784 191.58 287.784ZM191.58 288.936C190.644 288.936 189.858 289.218 189.222 289.782C188.598 290.334 188.226 291.054 188.106 291.942H194.82C194.7 290.994 194.334 290.256 193.722 289.728C193.11 289.2 192.396 288.936 191.58 288.936ZM210.174 288H211.362V297H210.174V295.236C209.346 296.556 208.134 297.216 206.538 297.216C205.254 297.216 204.156 296.76 203.244 295.848C202.344 294.936 201.894 293.82 201.894 292.5C201.894 291.18 202.344 290.064 203.244 289.152C204.156 288.24 205.254 287.784 206.538 287.784C208.134 287.784 209.346 288.444 210.174 289.764V288ZM204.108 295.038C204.792 295.722 205.632 296.064 206.628 296.064C207.624 296.064 208.464 295.722 209.148 295.038C209.832 294.342 210.174 293.496 210.174 292.5C210.174 291.504 209.832 290.664 209.148 289.98C208.464 289.284 207.624 288.936 206.628 288.936C205.632 288.936 204.792 289.284 204.108 289.98C203.424 290.664 203.082 291.504 203.082 292.5C203.082 293.496 203.424 294.342 204.108 295.038ZM218.377 285.336C217.501 285.264 216.847 285.414 216.415 285.786C215.995 286.158 215.785 286.776 215.785 287.64V288H218.377V289.152H215.785V297H214.597V289.152H213.067V288H214.597V287.64C214.597 286.464 214.921 285.576 215.569 284.976C216.229 284.364 217.165 284.1 218.377 284.184V285.336ZM224.764 289.152H222.172V294.606C222.172 295.098 222.268 295.452 222.46 295.668C222.652 295.872 222.94 295.98 223.324 295.992C223.708 295.992 224.188 295.98 224.764 295.956V297C223.504 297.192 222.556 297.102 221.92 296.73C221.296 296.358 220.984 295.65 220.984 294.606V289.152H219.094V288H220.984V285.84L222.172 285.48V288H224.764V289.152ZM230.357 287.784C231.689 287.784 232.763 288.258 233.579 289.206C234.407 290.142 234.821 291.252 234.821 292.536C234.821 292.668 234.809 292.854 234.785 293.094H226.883C227.003 294.006 227.387 294.732 228.035 295.272C228.695 295.8 229.505 296.064 230.465 296.064C231.149 296.064 231.737 295.926 232.229 295.65C232.733 295.362 233.111 294.99 233.363 294.534L234.407 295.146C234.011 295.782 233.471 296.286 232.787 296.658C232.103 297.03 231.323 297.216 230.447 297.216C229.031 297.216 227.879 296.772 226.991 295.884C226.103 294.996 225.659 293.868 225.659 292.5C225.659 291.156 226.097 290.034 226.973 289.134C227.849 288.234 228.977 287.784 230.357 287.784ZM230.357 288.936C229.421 288.936 228.635 289.218 227.999 289.782C227.375 290.334 227.003 291.054 226.883 291.942H233.597C233.477 290.994 233.111 290.256 232.499 289.728C231.887 289.2 231.173 288.936 230.357 288.936ZM237.899 289.494C238.451 288.402 239.399 287.856 240.743 287.856V289.008C239.927 289.008 239.249 289.248 238.709 289.728C238.169 290.208 237.899 290.964 237.899 291.996V297H236.711V288H237.899V289.494ZM248.077 285.84C247.909 286.008 247.705 286.092 247.465 286.092C247.225 286.092 247.021 286.008 246.853 285.84C246.685 285.672 246.601 285.468 246.601 285.228C246.601 284.988 246.685 284.784 246.853 284.616C247.021 284.448 247.225 284.364 247.465 284.364C247.705 284.364 247.909 284.448 248.077 284.616C248.245 284.784 248.329 284.988 248.329 285.228C248.329 285.468 248.245 285.672 248.077 285.84ZM246.871 297V288H248.059V297H246.871ZM255.35 289.152H252.758V294.606C252.758 295.098 252.854 295.452 253.046 295.668C253.238 295.872 253.526 295.98 253.91 295.992C254.294 295.992 254.774 295.98 255.35 295.956V297C254.09 297.192 253.142 297.102 252.506 296.73C251.882 296.358 251.57 295.65 251.57 294.606V289.152H249.68V288H251.57V285.84L252.758 285.48V288H255.35V289.152ZM259.85 293.58C259.85 292.992 259.97 292.458 260.21 291.978C260.45 291.486 260.738 291.072 261.074 290.736C261.41 290.4 261.746 290.076 262.082 289.764C262.418 289.452 262.706 289.11 262.946 288.738C263.186 288.354 263.306 287.946 263.306 287.514C263.306 286.818 263.066 286.296 262.586 285.948C262.118 285.588 261.512 285.408 260.768 285.408C259.292 285.408 258.38 286.014 258.032 287.226L256.97 286.632C257.246 285.828 257.726 285.222 258.41 284.814C259.106 284.394 259.892 284.184 260.768 284.184C261.824 284.184 262.718 284.478 263.45 285.066C264.194 285.642 264.566 286.458 264.566 287.514C264.566 288.03 264.446 288.51 264.206 288.954C263.966 289.398 263.678 289.788 263.342 290.124C263.006 290.448 262.67 290.772 262.334 291.096C261.998 291.42 261.71 291.798 261.47 292.23C261.23 292.65 261.11 293.1 261.11 293.58H259.85ZM261.182 296.892C260.99 297.084 260.756 297.18 260.48 297.18C260.204 297.18 259.97 297.084 259.778 296.892C259.586 296.7 259.49 296.466 259.49 296.19C259.49 295.914 259.586 295.68 259.778 295.488C259.97 295.296 260.204 295.2 260.48 295.2C260.756 295.2 260.99 295.296 261.182 295.488C261.374 295.68 261.47 295.914 261.47 296.19C261.47 296.466 261.374 296.7 261.182 296.892Z" fill="#FFC2D7"></path> </svg> 