<?xml version="1.0" encoding="UTF-8"?> <svg xmlns="http://www.w3.org/2000/svg" width="400" height="600" viewBox="0 0 400 600" fill="none"><rect width="400" height="600" rx="20" fill="#7F3CC9"></rect><path d="M49.504 488.4V490.776H46.102V501H43.618V490.776H40.234V488.4H49.504ZM56.8159 499.884C55.8919 500.796 54.7639 501.252 53.4319 501.252C52.0999 501.252 50.9719 500.796 50.0479 499.884C49.1359 498.96 48.6799 497.832 48.6799 496.5C48.6799 495.168 49.1359 494.046 50.0479 493.134C50.9719 492.21 52.0999 491.748 53.4319 491.748C54.7639 491.748 55.8919 492.21 56.8159 493.134C57.7399 494.046 58.2019 495.168 58.2019 496.5C58.2019 497.832 57.7399 498.96 56.8159 499.884ZM51.6859 498.282C52.1539 498.75 52.7359 498.984 53.4319 498.984C54.1279 498.984 54.7099 498.75 55.1779 498.282C55.6459 497.814 55.8799 497.22 55.8799 496.5C55.8799 495.78 55.6459 495.186 55.1779 494.718C54.7099 494.25 54.1279 494.016 53.4319 494.016C52.7359 494.016 52.1539 494.25 51.6859 494.718C51.2299 495.186 51.0019 495.78 51.0019 496.5C51.0019 497.22 51.2299 497.814 51.6859 498.282ZM66.4774 494.556C66.4774 494.796 66.6334 494.994 66.9454 495.15C67.2694 495.294 67.6594 495.426 68.1154 495.546C68.5714 495.654 69.0274 495.798 69.4834 495.978C69.9394 496.146 70.3234 496.434 70.6354 496.842C70.9594 497.25 71.1214 497.76 71.1214 498.372C71.1214 499.296 70.7734 500.01 70.0774 500.514C69.3934 501.006 68.5354 501.252 67.5034 501.252C65.6554 501.252 64.3954 500.538 63.7234 499.11L65.7394 497.976C66.0034 498.756 66.5914 499.146 67.5034 499.146C68.3314 499.146 68.7454 498.888 68.7454 498.372C68.7454 498.132 68.5834 497.94 68.2594 497.796C67.9474 497.64 67.5634 497.502 67.1074 497.382C66.6514 497.262 66.1954 497.112 65.7394 496.932C65.2834 496.752 64.8934 496.47 64.5694 496.086C64.2574 495.69 64.1014 495.198 64.1014 494.61C64.1014 493.722 64.4254 493.026 65.0734 492.522C65.7334 492.006 66.5494 491.748 67.5214 491.748C68.2534 491.748 68.9194 491.916 69.5194 492.252C70.1194 492.576 70.5934 493.044 70.9414 493.656L68.9614 494.736C68.6734 494.124 68.1934 493.818 67.5214 493.818C67.2214 493.818 66.9694 493.884 66.7654 494.016C66.5734 494.148 66.4774 494.328 66.4774 494.556ZM77.6187 491.748C78.6027 491.748 79.4127 492.078 80.0487 492.738C80.6967 493.398 81.0207 494.31 81.0207 495.474V501H78.6987V495.762C78.6987 495.162 78.5367 494.706 78.2127 494.394C77.8887 494.07 77.4567 493.908 76.9167 493.908C76.3167 493.908 75.8367 494.094 75.4767 494.466C75.1167 494.838 74.9367 495.396 74.9367 496.14V501H72.6147V488.4H74.9367V493.008C75.5007 492.168 76.3947 491.748 77.6187 491.748ZM90.6714 499.884C89.7474 500.796 88.6194 501.252 87.2874 501.252C85.9554 501.252 84.8274 500.796 83.9034 499.884C82.9914 498.96 82.5354 497.832 82.5354 496.5C82.5354 495.168 82.9914 494.046 83.9034 493.134C84.8274 492.21 85.9554 491.748 87.2874 491.748C88.6194 491.748 89.7474 492.21 90.6714 493.134C91.5954 494.046 92.0574 495.168 92.0574 496.5C92.0574 497.832 91.5954 498.96 90.6714 499.884ZM85.5414 498.282C86.0094 498.75 86.5914 498.984 87.2874 498.984C87.9834 498.984 88.5654 498.75 89.0334 498.282C89.5014 497.814 89.7354 497.22 89.7354 496.5C89.7354 495.78 89.5014 495.186 89.0334 494.718C88.5654 494.25 87.9834 494.016 87.2874 494.016C86.5914 494.016 86.0094 494.25 85.5414 494.718C85.0854 495.186 84.8574 495.78 84.8574 496.5C84.8574 497.22 85.0854 497.814 85.5414 498.282ZM98.9289 491.748C100.141 491.748 101.173 492.21 102.025 493.134C102.889 494.046 103.321 495.168 103.321 496.5C103.321 497.832 102.889 498.96 102.025 499.884C101.173 500.796 100.141 501.252 98.9289 501.252C97.6689 501.252 96.6969 500.814 96.0129 499.938V504.6H93.6909V492H96.0129V493.062C96.6969 492.186 97.6689 491.748 98.9289 491.748ZM96.7149 498.336C97.1829 498.804 97.7769 499.038 98.4969 499.038C99.2169 499.038 99.8109 498.804 100.279 498.336C100.759 497.856 100.999 497.244 100.999 496.5C100.999 495.756 100.759 495.15 100.279 494.682C99.8109 494.202 99.2169 493.962 98.4969 493.962C97.7769 493.962 97.1829 494.202 96.7149 494.682C96.2469 495.15 96.0129 495.756 96.0129 496.5C96.0129 497.244 96.2469 497.856 96.7149 498.336ZM104.958 501V487.86H107.28V501H104.958ZM110.558 490.92C110.174 490.92 109.838 490.782 109.55 490.506C109.274 490.218 109.136 489.882 109.136 489.498C109.136 489.114 109.274 488.778 109.55 488.49C109.838 488.202 110.174 488.058 110.558 488.058C110.954 488.058 111.29 488.202 111.566 488.49C111.854 488.778 111.998 489.114 111.998 489.498C111.998 489.882 111.854 490.218 111.566 490.506C111.29 490.782 110.954 490.92 110.558 490.92ZM109.406 501V492H111.728V501H109.406ZM118.695 490.38C117.423 490.284 116.787 490.794 116.787 491.91V492H118.695V494.232H116.787V501H114.465V494.232H113.169V492H114.465V491.91C114.465 490.638 114.819 489.672 115.527 489.012C116.235 488.352 117.291 488.064 118.695 488.148V490.38ZM125.189 494.232H123.155V497.976C123.155 498.288 123.233 498.516 123.389 498.66C123.545 498.804 123.773 498.888 124.073 498.912C124.373 498.924 124.745 498.918 125.189 498.894V501C123.593 501.18 122.465 501.03 121.805 500.55C121.157 500.07 120.833 499.212 120.833 497.976V494.232H119.267V492H120.833V490.182L123.155 489.48V492H125.189V494.232ZM131.844 496.014V494.862H140.844V496.014H131.844ZM155.319 501H153.735L149.235 496.662V501H148.047V492H149.235V495.978L153.519 492H155.139L150.495 496.32L155.319 501ZM161.766 491.784C163.05 491.784 164.142 492.24 165.042 493.152C165.954 494.064 166.41 495.18 166.41 496.5C166.41 497.82 165.954 498.936 165.042 499.848C164.142 500.76 163.05 501.216 161.766 501.216C160.17 501.216 158.958 500.556 158.13 499.236V504.6H156.942V492H158.13V493.764C158.958 492.444 160.17 491.784 161.766 491.784ZM159.156 499.038C159.84 499.722 160.68 500.064 161.676 500.064C162.672 500.064 163.512 499.722 164.196 499.038C164.88 498.342 165.222 497.496 165.222 496.5C165.222 495.504 164.88 494.664 164.196 493.98C163.512 493.284 162.672 492.936 161.676 492.936C160.68 492.936 159.84 493.284 159.156 493.98C158.472 494.664 158.13 495.504 158.13 496.5C158.13 497.496 158.472 498.342 159.156 499.038ZM176.125 492H177.313V501H176.125V499.236C175.297 500.556 174.085 501.216 172.489 501.216C171.205 501.216 170.107 500.76 169.195 499.848C168.295 498.936 167.845 497.82 167.845 496.5C167.845 495.18 168.295 494.064 169.195 493.152C170.107 492.24 171.205 491.784 172.489 491.784C174.085 491.784 175.297 492.444 176.125 493.764V492ZM170.059 499.038C170.743 499.722 171.583 500.064 172.579 500.064C173.575 500.064 174.415 499.722 175.099 499.038C175.783 498.342 176.125 497.496 176.125 496.5C176.125 495.504 175.783 494.664 175.099 493.98C174.415 493.284 173.575 492.936 172.579 492.936C171.583 492.936 170.743 493.284 170.059 493.98C169.375 494.664 169.033 495.504 169.033 496.5C169.033 497.496 169.375 498.342 170.059 499.038ZM184.022 501.216C182.666 501.216 181.538 500.766 180.638 499.866C179.738 498.954 179.288 497.832 179.288 496.5C179.288 495.168 179.738 494.052 180.638 493.152C181.538 492.24 182.666 491.784 184.022 491.784C184.91 491.784 185.708 492 186.416 492.432C187.124 492.852 187.64 493.422 187.964 494.142L186.992 494.7C186.752 494.16 186.362 493.734 185.822 493.422C185.294 493.098 184.694 492.936 184.022 492.936C183.026 492.936 182.186 493.284 181.502 493.98C180.818 494.664 180.476 495.504 180.476 496.5C180.476 497.496 180.818 498.342 181.502 499.038C182.186 499.722 183.026 500.064 184.022 500.064C184.694 500.064 185.294 499.908 185.822 499.596C186.35 499.272 186.764 498.84 187.064 498.3L188.054 498.876C187.682 499.596 187.136 500.166 186.416 500.586C185.696 501.006 184.898 501.216 184.022 501.216ZM196.064 492V493.152H192.878V501H191.69V493.152H188.504V492H196.064ZM201.166 495.42C202.006 495.42 202.714 495.684 203.29 496.212C203.878 496.728 204.172 497.394 204.172 498.21C204.172 499.026 203.878 499.698 203.29 500.226C202.714 500.742 202.006 501 201.166 501H197.512V492H198.7V495.42H201.166ZM201.166 499.848C201.67 499.848 202.096 499.698 202.444 499.398C202.804 499.098 202.984 498.702 202.984 498.21C202.984 497.718 202.804 497.322 202.444 497.022C202.096 496.722 201.67 496.572 201.166 496.572H198.7V499.848H201.166ZM217.019 492H218.027V501H216.839V494.07L211.475 501H210.467V492H211.655V498.93L217.019 492ZM225.183 496.374C226.227 496.77 226.749 497.49 226.749 498.534C226.749 499.278 226.455 499.914 225.867 500.442C225.291 500.958 224.463 501.216 223.383 501.216C221.571 501.216 220.383 500.496 219.819 499.056L220.827 498.462C221.199 499.53 222.051 500.064 223.383 500.064C224.079 500.064 224.613 499.914 224.985 499.614C225.369 499.314 225.561 498.93 225.561 498.462C225.561 498.042 225.405 497.7 225.093 497.436C224.781 497.172 224.361 497.04 223.833 497.04H222.519V495.888H223.473C223.989 495.888 224.391 495.762 224.679 495.51C224.979 495.246 225.129 494.886 225.129 494.43C225.129 493.998 224.955 493.644 224.607 493.368C224.259 493.08 223.791 492.936 223.203 492.936C222.075 492.936 221.325 493.386 220.953 494.286L219.963 493.71C220.563 492.426 221.643 491.784 223.203 491.784C224.151 491.784 224.907 492.036 225.471 492.54C226.035 493.032 226.317 493.638 226.317 494.358C226.317 495.282 225.939 495.954 225.183 496.374ZM241.875 492V501H240.687V493.818L237.537 498.93H237.393L234.243 493.818V501H233.055V492H234.423L237.465 496.932L240.507 492H241.875ZM252.133 492H253.321V501H252.133V499.236C251.305 500.556 250.093 501.216 248.497 501.216C247.213 501.216 246.115 500.76 245.203 499.848C244.303 498.936 243.853 497.82 243.853 496.5C243.853 495.18 244.303 494.064 245.203 493.152C246.115 492.24 247.213 491.784 248.497 491.784C250.093 491.784 251.305 492.444 252.133 493.764V492ZM246.067 499.038C246.751 499.722 247.591 500.064 248.587 500.064C249.583 500.064 250.423 499.722 251.107 499.038C251.791 498.342 252.133 497.496 252.133 496.5C252.133 495.504 251.791 494.664 251.107 493.98C250.423 493.284 249.583 492.936 248.587 492.936C247.591 492.936 246.751 493.284 246.067 493.98C245.383 494.664 245.041 495.504 245.041 496.5C245.041 497.496 245.383 498.342 246.067 499.038ZM261.596 492V493.152H257.024V501H255.836V492H261.596ZM270.432 492H271.62V501H270.432V499.236C269.604 500.556 268.392 501.216 266.796 501.216C265.512 501.216 264.414 500.76 263.502 499.848C262.602 498.936 262.152 497.82 262.152 496.5C262.152 495.18 262.602 494.064 263.502 493.152C264.414 492.24 265.512 491.784 266.796 491.784C268.392 491.784 269.604 492.444 270.432 493.764V492ZM264.366 499.038C265.05 499.722 265.89 500.064 266.886 500.064C267.882 500.064 268.722 499.722 269.406 499.038C270.09 498.342 270.432 497.496 270.432 496.5C270.432 495.504 270.09 494.664 269.406 493.98C268.722 493.284 267.882 492.936 266.886 492.936C265.89 492.936 265.05 493.284 264.366 493.98C263.682 494.664 263.34 495.504 263.34 496.5C263.34 497.496 263.682 498.342 264.366 499.038ZM278.779 496.374C279.823 496.77 280.345 497.49 280.345 498.534C280.345 499.278 280.051 499.914 279.463 500.442C278.887 500.958 278.059 501.216 276.979 501.216C275.167 501.216 273.979 500.496 273.415 499.056L274.423 498.462C274.795 499.53 275.647 500.064 276.979 500.064C277.675 500.064 278.209 499.914 278.581 499.614C278.965 499.314 279.157 498.93 279.157 498.462C279.157 498.042 279.001 497.7 278.689 497.436C278.377 497.172 277.957 497.04 277.429 497.04H276.115V495.888H277.069C277.585 495.888 277.987 495.762 278.275 495.51C278.575 495.246 278.725 494.886 278.725 494.43C278.725 493.998 278.551 493.644 278.203 493.368C277.855 493.08 277.387 492.936 276.799 492.936C275.671 492.936 274.921 493.386 274.549 494.286L273.559 493.71C274.159 492.426 275.239 491.784 276.799 491.784C277.747 491.784 278.503 492.036 279.067 492.54C279.631 493.032 279.913 493.638 279.913 494.358C279.913 495.282 279.535 495.954 278.779 496.374ZM288.703 492H289.711V501H288.523V494.07L283.159 501H282.151V492H283.339V498.93L288.703 492ZM298.595 492H299.783V501H298.595V497.076H293.411V501H292.223V492H293.411V495.924H298.595V492ZM310.035 492H311.223V501H310.035V499.236C309.207 500.556 307.995 501.216 306.399 501.216C305.115 501.216 304.017 500.76 303.105 499.848C302.205 498.936 301.755 497.82 301.755 496.5C301.755 495.18 302.205 494.064 303.105 493.152C304.017 492.24 305.115 491.784 306.399 491.784C307.995 491.784 309.207 492.444 310.035 493.764V492ZM303.969 499.038C304.653 499.722 305.493 500.064 306.489 500.064C307.485 500.064 308.325 499.722 309.009 499.038C309.693 498.342 310.035 497.496 310.035 496.5C310.035 495.504 309.693 494.664 309.009 493.98C308.325 493.284 307.485 492.936 306.489 492.936C305.493 492.936 304.653 493.284 303.969 493.98C303.285 494.664 302.943 495.504 302.943 496.5C302.943 497.496 303.285 498.342 303.969 499.038Z" fill="#E6D0FE" fill-opacity="0.6"></path><path d="M47.296 84.136L60.8 101H65.952V78.6H61.536V95.464L48.032 78.6H42.88V101H47.296V84.136ZM80.4918 97.768C77.4838 97.768 75.1478 96.456 74.5398 94.12H88.2998C88.4918 93.384 88.5878 92.648 88.5878 91.944C88.5878 87.624 84.9398 84.456 80.0758 84.456C74.7318 84.456 70.1878 87.656 70.1878 93C70.1878 97.8 74.1238 101.576 80.0758 101.576C83.0198 101.576 86.0278 100.584 88.1718 99.496L86.9237 96.168C84.6518 97.352 82.6678 97.768 80.4918 97.768ZM79.8198 88.008C82.3158 88.008 83.9158 89.128 84.3318 91.016H74.6358C75.2758 89.064 77.0677 88.008 79.8198 88.008ZM94.39 85H89.75L97.302 101H101.942L109.526 85H104.822L99.638 96.232L94.39 85ZM121.179 97.768C118.171 97.768 115.835 96.456 115.227 94.12H128.987C129.179 93.384 129.275 92.648 129.275 91.944C129.275 87.624 125.627 84.456 120.763 84.456C115.419 84.456 110.875 87.656 110.875 93C110.875 97.8 114.811 101.576 120.763 101.576C123.707 101.576 126.715 100.584 128.859 99.496L127.611 96.168C125.339 97.352 123.355 97.768 121.179 97.768ZM120.507 88.008C123.003 88.008 124.603 89.128 125.019 91.016H115.323C115.963 89.064 117.755 88.008 120.507 88.008ZM142.982 84.456C140.198 84.456 137.99 86.824 137.062 88.552V85H132.838V101H137.062V93.064C137.062 90.12 139.91 88.392 142.566 88.392C143.174 88.392 144.006 88.584 144.774 88.936L145.67 85.096C144.87 84.712 143.878 84.456 142.982 84.456ZM166.436 88.424C168.964 88.424 170.276 89.992 170.276 92.264V101H174.5V91.752C174.5 87.4 172.004 84.52 167.652 84.52C164.612 84.52 162.244 86.472 161.124 88.552V77.288H156.9V101H161.124V93.064C161.124 89.896 163.78 88.424 166.436 88.424ZM184.75 91.88C181.454 91.88 178.19 93.352 178.19 96.776C178.19 99.656 180.43 101.64 183.438 101.64C186.158 101.64 188.59 100.168 190.126 98.344C190.19 100.136 191.086 101.64 193.23 101.64C194.542 101.64 196.462 101 198.222 100.04L197.358 96.776C196.43 97.256 195.598 97.608 195.118 97.608C194.67 97.608 194.35 97.32 194.35 96.84V91.08C194.35 86.696 191.79 84.36 187.406 84.36C184.878 84.36 181.518 85.352 179.534 85.992L180.59 89.832C182.926 88.968 185.358 88.232 187.022 88.232C189.038 88.232 190.126 89.352 190.126 91.016V92.872C188.75 92.392 186.478 91.88 184.75 91.88ZM184.814 98.024C183.47 98.024 182.51 97.48 182.51 96.424C182.51 95.272 183.566 94.6 184.974 94.6C186.51 94.6 188.366 94.76 190.126 95.08V95.688C188.622 97.16 186.414 98.024 184.814 98.024ZM202.859 85H198.219L205.771 101H210.411L217.995 85H213.291L208.107 96.232L202.859 85ZM229.648 97.768C226.64 97.768 224.304 96.456 223.696 94.12H237.456C237.648 93.384 237.744 92.648 237.744 91.944C237.744 87.624 234.096 84.456 229.232 84.456C223.888 84.456 219.344 87.656 219.344 93C219.344 97.8 223.28 101.576 229.232 101.576C232.176 101.576 235.184 100.584 237.328 99.496L236.08 96.168C233.808 97.352 231.824 97.768 229.648 97.768ZM228.976 88.008C231.472 88.008 233.072 89.128 233.488 91.016H223.792C224.432 89.064 226.224 88.008 228.976 88.008ZM255.265 78.6H250.849V101H255.265V78.6ZM278.867 97.768C275.859 97.768 273.523 96.456 272.915 94.12H286.675C286.867 93.384 286.963 92.648 286.963 91.944C286.963 87.624 283.315 84.456 278.451 84.456C273.107 84.456 268.563 87.656 268.563 93C268.563 97.8 272.499 101.576 278.451 101.576C281.395 101.576 284.403 100.584 286.547 99.496L285.299 96.168C283.027 97.352 281.043 97.768 278.867 97.768ZM278.195 88.008C280.691 88.008 282.291 89.128 282.707 91.016H273.011C273.651 89.064 275.443 88.008 278.195 88.008ZM292.765 85H288.125L295.677 101H300.317L307.901 85H303.197L298.013 96.232L292.765 85ZM319.554 97.768C316.546 97.768 314.21 96.456 313.602 94.12H327.362C327.554 93.384 327.65 92.648 327.65 91.944C327.65 87.624 324.002 84.456 319.138 84.456C313.794 84.456 309.25 87.656 309.25 93C309.25 97.8 313.186 101.576 319.138 101.576C322.082 101.576 325.09 100.584 327.234 99.496L325.986 96.168C323.714 97.352 321.73 97.768 319.554 97.768ZM318.882 88.008C321.378 88.008 322.978 89.128 323.394 91.016H313.698C314.338 89.064 316.13 88.008 318.882 88.008ZM341.357 84.456C338.573 84.456 336.365 86.824 335.437 88.552V85H331.213V101H335.437V93.064C335.437 90.12 338.285 88.392 340.941 88.392C341.549 88.392 342.381 88.584 343.149 88.936L344.045 85.096C343.245 84.712 342.253 84.456 341.357 84.456ZM56.544 125.576C54.656 124.936 51.68 124.392 49.152 124.392C44.608 124.392 41.376 126.376 41.376 129.512C41.376 135.752 53.28 133.64 53.28 136.168C53.28 137.288 51.68 137.928 49.376 137.928C46.912 137.928 44.416 137.16 42.304 136.232L41.056 139.56C43.232 140.712 46.208 141.64 49.216 141.64C53.12 141.64 57.44 139.624 57.44 136.04C57.44 129.8 45.536 132.008 45.536 129.352C45.536 128.392 47.2 128.072 49.312 128.072C51.36 128.072 53.344 128.488 55.424 129.288L56.544 125.576ZM70.6548 128.424C73.1828 128.424 74.4948 129.992 74.4948 132.264V141H78.7188V131.752C78.7188 127.4 76.2228 124.52 71.8708 124.52C68.8308 124.52 66.4628 126.472 65.3428 128.552V117.288H61.1188V141H65.3428V133.064C65.3428 129.896 67.9988 128.424 70.6548 128.424ZM92.2648 124.456C86.9208 124.456 82.3128 127.496 82.3128 132.84C82.3128 137.64 86.4728 141.576 92.2648 141.576C98.0568 141.576 102.217 137.64 102.217 132.84C102.217 127.496 97.6088 124.456 92.2648 124.456ZM92.2648 128.136C95.5928 128.136 97.9608 129.864 97.9608 132.84C97.9608 135.528 95.4328 137.928 92.2648 137.928C89.0968 137.928 86.5688 135.528 86.5688 132.84C86.5688 129.864 88.9368 128.136 92.2648 128.136ZM117.067 124.456C113.803 124.456 111.243 126.344 110.187 128.552V125H105.963V148.68H110.187V140.456C111.755 140.936 113.963 141.576 115.723 141.576C121.099 141.576 125.131 137.64 125.131 132.84C125.131 127.656 121.451 124.456 117.067 124.456ZM115.819 128.392C118.667 128.392 120.875 129.96 120.875 132.84C120.875 135.528 118.539 137.864 115.787 137.864C113.803 137.864 112.01 137.448 110.187 136.904V133.064C110.187 130.12 112.97 128.392 115.819 128.392ZM133.061 141V117H128.869V141H133.061ZM142.093 125H137.933V141H142.093V125ZM137.485 120.392C137.485 121.8 138.605 122.92 140.013 122.92C141.421 122.92 142.541 121.8 142.541 120.392C142.541 119.016 141.421 117.896 140.013 117.896C138.605 117.896 137.485 119.016 137.485 120.392ZM154.355 120.424C155.731 120.424 157.235 120.872 158.707 121.512L159.731 117.64C158.227 117.128 156.307 116.68 154.483 116.68C150.547 116.68 147.827 119.08 147.827 122.76V125H145.203V128.68H147.859V141H152.019V128.68H159.123V125H151.859V122.952C151.859 121.224 152.819 120.424 154.355 120.424ZM160.015 128.68H163.055V134.888C163.055 138.92 165.199 141.544 169.167 141.544C170.863 141.544 173.135 140.808 174.479 140.104L173.551 136.488C172.527 137.128 171.119 137.64 169.871 137.64C168.207 137.64 167.279 136.456 167.279 134.728V128.68H173.935V125H167.279V120.2H163.759L163.183 125.128L160.015 125.32V128.68ZM186.929 137.768C183.921 137.768 181.585 136.456 180.977 134.12H194.737C194.929 133.384 195.025 132.648 195.025 131.944C195.025 127.624 191.377 124.456 186.513 124.456C181.169 124.456 176.625 127.656 176.625 133C176.625 137.8 180.561 141.576 186.513 141.576C189.457 141.576 192.465 140.584 194.609 139.496L193.361 136.168C191.089 137.352 189.105 137.768 186.929 137.768ZM186.257 128.008C188.753 128.008 190.353 129.128 190.769 131.016H181.073C181.713 129.064 183.505 128.008 186.257 128.008ZM205.595 141.544C208.86 141.544 211.42 139.656 212.476 137.448V141H216.7V117H212.476V125.576C210.876 125.064 208.668 124.424 206.94 124.424C201.564 124.424 197.532 128.36 197.532 133.16C197.532 138.344 201.212 141.544 205.595 141.544ZM206.844 137.608C203.996 137.608 201.788 136.008 201.788 133.128C201.788 130.312 203.996 128.136 206.876 128.136C208.828 128.136 210.62 128.552 212.476 129.096V132.552C212.476 135.624 209.66 137.608 206.844 137.608Z" fill="#E6D0FE"></path><path d="M44.194 220L40.54 207.4H41.872L44.986 218.29L48.262 207.4H49.738L53.014 218.29L56.128 207.4H57.46L53.806 220H52.294L49 209.056L45.706 220H44.194ZM63.1204 210.784C64.2124 210.784 65.0704 211.12 65.6944 211.792C66.3304 212.452 66.6484 213.346 66.6484 214.474V220H65.4604V214.474C65.4604 213.67 65.2444 213.046 64.8124 212.602C64.3924 212.158 63.7924 211.936 63.0124 211.936C62.1484 211.936 61.4464 212.212 60.9064 212.764C60.3664 213.304 60.0964 214.144 60.0964 215.284V220H58.9084V207.4H60.0964V212.404C60.7684 211.324 61.7764 210.784 63.1204 210.784ZM76.6855 211H77.8735V220H76.6855V218.236C75.8575 219.556 74.6455 220.216 73.0495 220.216C71.7655 220.216 70.6675 219.76 69.7555 218.848C68.8555 217.936 68.4055 216.82 68.4055 215.5C68.4055 214.18 68.8555 213.064 69.7555 212.152C70.6675 211.24 71.7655 210.784 73.0495 210.784C74.6455 210.784 75.8575 211.444 76.6855 212.764V211ZM70.6195 218.038C71.3035 218.722 72.1435 219.064 73.1395 219.064C74.1355 219.064 74.9755 218.722 75.6595 218.038C76.3435 217.342 76.6855 216.496 76.6855 215.5C76.6855 214.504 76.3435 213.664 75.6595 212.98C74.9755 212.284 74.1355 211.936 73.1395 211.936C72.1435 211.936 71.3035 212.284 70.6195 212.98C69.9355 213.664 69.5935 214.504 69.5935 215.5C69.5935 216.496 69.9355 217.342 70.6195 218.038ZM85.1589 212.152H82.5669V217.606C82.5669 218.098 82.6629 218.452 82.8549 218.668C83.0469 218.872 83.3349 218.98 83.7189 218.992C84.1029 218.992 84.5829 218.98 85.1589 218.956V220C83.8989 220.192 82.9509 220.102 82.3149 219.73C81.6909 219.358 81.3789 218.65 81.3789 217.606V212.152H79.4889V211H81.3789V208.84L82.5669 208.48V211H85.1589V212.152ZM99.3789 207.4H100.567V220H99.3789V218.236C98.5509 219.556 97.3389 220.216 95.7429 220.216C94.4589 220.216 93.3609 219.76 92.4489 218.848C91.5489 217.936 91.0989 216.82 91.0989 215.5C91.0989 214.18 91.5489 213.064 92.4489 212.152C93.3609 211.24 94.4589 210.784 95.7429 210.784C97.3389 210.784 98.5509 211.444 99.3789 212.764V207.4ZM93.3129 218.038C93.9969 218.722 94.8369 219.064 95.8329 219.064C96.8289 219.064 97.6689 218.722 98.3529 218.038C99.0369 217.342 99.3789 216.496 99.3789 215.5C99.3789 214.504 99.0369 213.664 98.3529 212.98C97.6689 212.284 96.8289 211.936 95.8329 211.936C94.8369 211.936 93.9969 212.284 93.3129 212.98C92.6289 213.664 92.2869 214.504 92.2869 215.5C92.2869 216.496 92.6289 217.342 93.3129 218.038ZM104.288 208.84C104.12 209.008 103.916 209.092 103.676 209.092C103.436 209.092 103.232 209.008 103.064 208.84C102.896 208.672 102.812 208.468 102.812 208.228C102.812 207.988 102.896 207.784 103.064 207.616C103.232 207.448 103.436 207.364 103.676 207.364C103.916 207.364 104.12 207.448 104.288 207.616C104.456 207.784 104.54 207.988 104.54 208.228C104.54 208.468 104.456 208.672 104.288 208.84ZM103.082 220V211H104.27V220H103.082ZM114.531 207.4H115.719V220H114.531V218.236C113.703 219.556 112.491 220.216 110.895 220.216C109.611 220.216 108.513 219.76 107.601 218.848C106.701 217.936 106.251 216.82 106.251 215.5C106.251 214.18 106.701 213.064 107.601 212.152C108.513 211.24 109.611 210.784 110.895 210.784C112.491 210.784 113.703 211.444 114.531 212.764V207.4ZM108.465 218.038C109.149 218.722 109.989 219.064 110.985 219.064C111.981 219.064 112.821 218.722 113.505 218.038C114.189 217.342 114.531 216.496 114.531 215.5C114.531 214.504 114.189 213.664 113.505 212.98C112.821 212.284 111.981 211.936 110.985 211.936C109.989 211.936 109.149 212.284 108.465 212.98C107.781 213.664 107.439 214.504 107.439 215.5C107.439 216.496 107.781 217.342 108.465 218.038ZM129.215 211H130.475L126.623 220.828C126.275 221.716 125.777 222.412 125.129 222.916C124.493 223.432 123.779 223.66 122.987 223.6V222.484C124.067 222.604 124.889 221.98 125.453 220.612L125.687 220.054L121.655 211H122.915L126.299 218.542L129.215 211ZM139.101 218.866C138.189 219.766 137.073 220.216 135.753 220.216C134.433 220.216 133.311 219.766 132.387 218.866C131.475 217.954 131.019 216.832 131.019 215.5C131.019 214.168 131.475 213.052 132.387 212.152C133.311 211.24 134.433 210.784 135.753 210.784C137.073 210.784 138.189 211.24 139.101 212.152C140.025 213.052 140.487 214.168 140.487 215.5C140.487 216.832 140.025 217.954 139.101 218.866ZM133.233 218.038C133.917 218.722 134.757 219.064 135.753 219.064C136.749 219.064 137.589 218.722 138.273 218.038C138.957 217.342 139.299 216.496 139.299 215.5C139.299 214.504 138.957 213.664 138.273 212.98C137.589 212.284 136.749 211.936 135.753 211.936C134.757 211.936 133.917 212.284 133.233 212.98C132.549 213.664 132.207 214.504 132.207 215.5C132.207 216.496 132.549 217.342 133.233 218.038ZM148.811 211H149.999V220H148.811V218.596C148.139 219.676 147.131 220.216 145.787 220.216C144.695 220.216 143.831 219.886 143.195 219.226C142.571 218.554 142.259 217.654 142.259 216.526V211H143.447V216.526C143.447 217.33 143.657 217.954 144.077 218.398C144.509 218.842 145.115 219.064 145.895 219.064C146.759 219.064 147.461 218.794 148.001 218.254C148.541 217.702 148.811 216.856 148.811 215.716V211ZM157.948 213.358C157.948 213.766 158.128 214.09 158.488 214.33C158.848 214.57 159.286 214.756 159.802 214.888C160.318 215.02 160.834 215.17 161.35 215.338C161.866 215.494 162.304 215.764 162.664 216.148C163.024 216.52 163.204 217.012 163.204 217.624C163.204 218.392 162.898 219.016 162.286 219.496C161.686 219.976 160.906 220.216 159.946 220.216C159.082 220.216 158.344 220.024 157.732 219.64C157.132 219.256 156.712 218.758 156.472 218.146L157.48 217.552C157.648 218.02 157.948 218.392 158.38 218.668C158.824 218.932 159.346 219.064 159.946 219.064C160.534 219.064 161.026 218.95 161.422 218.722C161.818 218.482 162.016 218.116 162.016 217.624C162.016 217.216 161.836 216.892 161.476 216.652C161.116 216.412 160.678 216.226 160.162 216.094C159.646 215.962 159.13 215.818 158.614 215.662C158.098 215.494 157.66 215.224 157.3 214.852C156.94 214.468 156.76 213.97 156.76 213.358C156.76 212.626 157.048 212.014 157.624 211.522C158.212 211.03 158.95 210.784 159.838 210.784C160.57 210.784 161.212 210.952 161.764 211.288C162.316 211.612 162.724 212.056 162.988 212.62L161.998 213.196C161.65 212.356 160.93 211.936 159.838 211.936C159.322 211.936 158.878 212.062 158.506 212.314C158.134 212.554 157.948 212.902 157.948 213.358ZM169.604 212.152H167.012V217.606C167.012 218.098 167.108 218.452 167.3 218.668C167.492 218.872 167.78 218.98 168.164 218.992C168.548 218.992 169.028 218.98 169.604 218.956V220C168.344 220.192 167.396 220.102 166.76 219.73C166.136 219.358 165.824 218.65 165.824 217.606V212.152H163.934V211H165.824V208.84L167.012 208.48V211H169.604V212.152ZM175.197 210.784C176.529 210.784 177.603 211.258 178.419 212.206C179.247 213.142 179.661 214.252 179.661 215.536C179.661 215.668 179.649 215.854 179.625 216.094H171.723C171.843 217.006 172.227 217.732 172.875 218.272C173.535 218.8 174.345 219.064 175.305 219.064C175.989 219.064 176.577 218.926 177.069 218.65C177.573 218.362 177.951 217.99 178.203 217.534L179.247 218.146C178.851 218.782 178.311 219.286 177.627 219.658C176.943 220.03 176.163 220.216 175.287 220.216C173.871 220.216 172.719 219.772 171.831 218.884C170.943 217.996 170.499 216.868 170.499 215.5C170.499 214.156 170.937 213.034 171.813 212.134C172.689 211.234 173.817 210.784 175.197 210.784ZM175.197 211.936C174.261 211.936 173.475 212.218 172.839 212.782C172.215 213.334 171.843 214.054 171.723 214.942H178.437C178.317 213.994 177.951 213.256 177.339 212.728C176.727 212.2 176.013 211.936 175.197 211.936ZM189.291 211H190.479V220H189.291V218.236C188.463 219.556 187.251 220.216 185.655 220.216C184.371 220.216 183.273 219.76 182.361 218.848C181.461 217.936 181.011 216.82 181.011 215.5C181.011 214.18 181.461 213.064 182.361 212.152C183.273 211.24 184.371 210.784 185.655 210.784C187.251 210.784 188.463 211.444 189.291 212.764V211ZM183.225 218.038C183.909 218.722 184.749 219.064 185.745 219.064C186.741 219.064 187.581 218.722 188.265 218.038C188.949 217.342 189.291 216.496 189.291 215.5C189.291 214.504 188.949 213.664 188.265 212.98C187.581 212.284 186.741 211.936 185.745 211.936C184.749 211.936 183.909 212.284 183.225 212.98C182.541 213.664 182.199 214.504 182.199 215.5C182.199 216.496 182.541 217.342 183.225 218.038ZM192.994 220V206.86H194.182V220H192.994ZM199.223 216.58C199.223 215.992 199.343 215.458 199.583 214.978C199.823 214.486 200.111 214.072 200.447 213.736C200.783 213.4 201.119 213.076 201.455 212.764C201.791 212.452 202.079 212.11 202.319 211.738C202.559 211.354 202.679 210.946 202.679 210.514C202.679 209.818 202.439 209.296 201.959 208.948C201.491 208.588 200.885 208.408 200.141 208.408C198.665 208.408 197.753 209.014 197.405 210.226L196.343 209.632C196.619 208.828 197.099 208.222 197.783 207.814C198.479 207.394 199.265 207.184 200.141 207.184C201.197 207.184 202.091 207.478 202.823 208.066C203.567 208.642 203.939 209.458 203.939 210.514C203.939 211.03 203.819 211.51 203.579 211.954C203.339 212.398 203.051 212.788 202.715 213.124C202.379 213.448 202.043 213.772 201.707 214.096C201.371 214.42 201.083 214.798 200.843 215.23C200.603 215.65 200.483 216.1 200.483 216.58H199.223ZM200.555 219.892C200.363 220.084 200.129 220.18 199.853 220.18C199.577 220.18 199.343 220.084 199.151 219.892C198.959 219.7 198.863 219.466 198.863 219.19C198.863 218.914 198.959 218.68 199.151 218.488C199.343 218.296 199.577 218.2 199.853 218.2C200.129 218.2 200.363 218.296 200.555 218.488C200.747 218.68 200.843 218.914 200.843 219.19C200.843 219.466 200.747 219.7 200.555 219.892Z" fill="#E6D0FE"></path><path d="M44.194 257L40.54 244.4H41.872L44.986 255.29L48.262 244.4H49.738L53.014 255.29L56.128 244.4H57.46L53.806 257H52.294L49 246.056L45.706 257H44.194ZM63.1204 247.784C64.2124 247.784 65.0704 248.12 65.6944 248.792C66.3304 249.452 66.6484 250.346 66.6484 251.474V257H65.4604V251.474C65.4604 250.67 65.2444 250.046 64.8124 249.602C64.3924 249.158 63.7924 248.936 63.0124 248.936C62.1484 248.936 61.4464 249.212 60.9064 249.764C60.3664 250.304 60.0964 251.144 60.0964 252.284V257H58.9084V244.4H60.0964V249.404C60.7684 248.324 61.7764 247.784 63.1204 247.784ZM73.1035 247.784C74.4355 247.784 75.5095 248.258 76.3255 249.206C77.1535 250.142 77.5675 251.252 77.5675 252.536C77.5675 252.668 77.5555 252.854 77.5315 253.094H69.6295C69.7495 254.006 70.1335 254.732 70.7815 255.272C71.4415 255.8 72.2515 256.064 73.2115 256.064C73.8955 256.064 74.4835 255.926 74.9755 255.65C75.4795 255.362 75.8575 254.99 76.1095 254.534L77.1535 255.146C76.7575 255.782 76.2175 256.286 75.5335 256.658C74.8495 257.03 74.0695 257.216 73.1935 257.216C71.7775 257.216 70.6255 256.772 69.7375 255.884C68.8495 254.996 68.4055 253.868 68.4055 252.5C68.4055 251.156 68.8435 250.034 69.7195 249.134C70.5955 248.234 71.7235 247.784 73.1035 247.784ZM73.1035 248.936C72.1675 248.936 71.3815 249.218 70.7455 249.782C70.1215 250.334 69.7495 251.054 69.6295 251.942H76.3435C76.2235 250.994 75.8575 250.256 75.2455 249.728C74.6335 249.2 73.9195 248.936 73.1035 248.936ZM83.6693 247.784C84.7613 247.784 85.6193 248.12 86.2433 248.792C86.8793 249.452 87.1973 250.346 87.1973 251.474V257H86.0093V251.474C86.0093 250.67 85.7933 250.046 85.3613 249.602C84.9413 249.158 84.3413 248.936 83.5613 248.936C82.6973 248.936 81.9953 249.212 81.4553 249.764C80.9153 250.304 80.6453 251.144 80.6453 252.284V257H79.4573V248H80.6453V249.404C81.3173 248.324 82.3253 247.784 83.6693 247.784ZM101.734 244.4H102.922V257H101.734V255.236C100.906 256.556 99.6944 257.216 98.0984 257.216C96.8144 257.216 95.7164 256.76 94.8044 255.848C93.9044 254.936 93.4544 253.82 93.4544 252.5C93.4544 251.18 93.9044 250.064 94.8044 249.152C95.7164 248.24 96.8144 247.784 98.0984 247.784C99.6944 247.784 100.906 248.444 101.734 249.764V244.4ZM95.6684 255.038C96.3524 255.722 97.1924 256.064 98.1884 256.064C99.1844 256.064 100.024 255.722 100.708 255.038C101.392 254.342 101.734 253.496 101.734 252.5C101.734 251.504 101.392 250.664 100.708 249.98C100.024 249.284 99.1844 248.936 98.1884 248.936C97.1924 248.936 96.3524 249.284 95.6684 249.98C94.9844 250.664 94.6424 251.504 94.6424 252.5C94.6424 253.496 94.9844 254.342 95.6684 255.038ZM106.644 245.84C106.476 246.008 106.272 246.092 106.032 246.092C105.792 246.092 105.588 246.008 105.42 245.84C105.252 245.672 105.168 245.468 105.168 245.228C105.168 244.988 105.252 244.784 105.42 244.616C105.588 244.448 105.792 244.364 106.032 244.364C106.272 244.364 106.476 244.448 106.644 244.616C106.812 244.784 106.896 244.988 106.896 245.228C106.896 245.468 106.812 245.672 106.644 245.84ZM105.438 257V248H106.626V257H105.438ZM116.887 244.4H118.075V257H116.887V255.236C116.059 256.556 114.847 257.216 113.251 257.216C111.967 257.216 110.869 256.76 109.957 255.848C109.057 254.936 108.607 253.82 108.607 252.5C108.607 251.18 109.057 250.064 109.957 249.152C110.869 248.24 111.967 247.784 113.251 247.784C114.847 247.784 116.059 248.444 116.887 249.764V244.4ZM110.821 255.038C111.505 255.722 112.345 256.064 113.341 256.064C114.337 256.064 115.177 255.722 115.861 255.038C116.545 254.342 116.887 253.496 116.887 252.5C116.887 251.504 116.545 250.664 115.861 249.98C115.177 249.284 114.337 248.936 113.341 248.936C112.345 248.936 111.505 249.284 110.821 249.98C110.137 250.664 109.795 251.504 109.795 252.5C109.795 253.496 110.137 254.342 110.821 255.038ZM131.57 248H132.83L128.978 257.828C128.63 258.716 128.132 259.412 127.484 259.916C126.848 260.432 126.134 260.66 125.342 260.6V259.484C126.422 259.604 127.244 258.98 127.808 257.612L128.042 257.054L124.01 248H125.27L128.654 255.542L131.57 248ZM141.456 255.866C140.544 256.766 139.428 257.216 138.108 257.216C136.788 257.216 135.666 256.766 134.742 255.866C133.83 254.954 133.374 253.832 133.374 252.5C133.374 251.168 133.83 250.052 134.742 249.152C135.666 248.24 136.788 247.784 138.108 247.784C139.428 247.784 140.544 248.24 141.456 249.152C142.38 250.052 142.842 251.168 142.842 252.5C142.842 253.832 142.38 254.954 141.456 255.866ZM135.588 255.038C136.272 255.722 137.112 256.064 138.108 256.064C139.104 256.064 139.944 255.722 140.628 255.038C141.312 254.342 141.654 253.496 141.654 252.5C141.654 251.504 141.312 250.664 140.628 249.98C139.944 249.284 139.104 248.936 138.108 248.936C137.112 248.936 136.272 249.284 135.588 249.98C134.904 250.664 134.562 251.504 134.562 252.5C134.562 253.496 134.904 254.342 135.588 255.038ZM151.166 248H152.354V257H151.166V255.596C150.494 256.676 149.486 257.216 148.142 257.216C147.05 257.216 146.186 256.886 145.55 256.226C144.926 255.554 144.614 254.654 144.614 253.526V248H145.802V253.526C145.802 254.33 146.012 254.954 146.432 255.398C146.864 255.842 147.47 256.064 148.25 256.064C149.114 256.064 149.816 255.794 150.356 255.254C150.896 254.702 151.166 253.856 151.166 252.716V248ZM160.303 250.358C160.303 250.766 160.483 251.09 160.843 251.33C161.203 251.57 161.641 251.756 162.157 251.888C162.673 252.02 163.189 252.17 163.705 252.338C164.221 252.494 164.659 252.764 165.019 253.148C165.379 253.52 165.559 254.012 165.559 254.624C165.559 255.392 165.253 256.016 164.641 256.496C164.041 256.976 163.261 257.216 162.301 257.216C161.437 257.216 160.699 257.024 160.087 256.64C159.487 256.256 159.067 255.758 158.827 255.146L159.835 254.552C160.003 255.02 160.303 255.392 160.735 255.668C161.179 255.932 161.701 256.064 162.301 256.064C162.889 256.064 163.381 255.95 163.777 255.722C164.173 255.482 164.371 255.116 164.371 254.624C164.371 254.216 164.191 253.892 163.831 253.652C163.471 253.412 163.033 253.226 162.517 253.094C162.001 252.962 161.485 252.818 160.969 252.662C160.453 252.494 160.015 252.224 159.655 251.852C159.295 251.468 159.115 250.97 159.115 250.358C159.115 249.626 159.403 249.014 159.979 248.522C160.567 248.03 161.305 247.784 162.193 247.784C162.925 247.784 163.567 247.952 164.119 248.288C164.671 248.612 165.079 249.056 165.343 249.62L164.353 250.196C164.005 249.356 163.285 248.936 162.193 248.936C161.677 248.936 161.233 249.062 160.861 249.314C160.489 249.554 160.303 249.902 160.303 250.358ZM171.665 247.784C172.757 247.784 173.615 248.12 174.239 248.792C174.875 249.452 175.193 250.346 175.193 251.474V257H174.005V251.474C174.005 250.67 173.789 250.046 173.357 249.602C172.937 249.158 172.337 248.936 171.557 248.936C170.693 248.936 169.991 249.212 169.451 249.764C168.911 250.304 168.641 251.144 168.641 252.284V257H167.453V244.4H168.641V249.404C169.313 248.324 170.321 247.784 171.665 247.784ZM185.032 255.866C184.12 256.766 183.004 257.216 181.684 257.216C180.364 257.216 179.242 256.766 178.318 255.866C177.406 254.954 176.95 253.832 176.95 252.5C176.95 251.168 177.406 250.052 178.318 249.152C179.242 248.24 180.364 247.784 181.684 247.784C183.004 247.784 184.12 248.24 185.032 249.152C185.956 250.052 186.418 251.168 186.418 252.5C186.418 253.832 185.956 254.954 185.032 255.866ZM179.164 255.038C179.848 255.722 180.688 256.064 181.684 256.064C182.68 256.064 183.52 255.722 184.204 255.038C184.888 254.342 185.23 253.496 185.23 252.5C185.23 251.504 184.888 250.664 184.204 249.98C183.52 249.284 182.68 248.936 181.684 248.936C180.688 248.936 179.848 249.284 179.164 249.98C178.48 250.664 178.138 251.504 178.138 252.5C178.138 253.496 178.48 254.342 179.164 255.038ZM193.23 247.784C194.514 247.784 195.606 248.24 196.506 249.152C197.418 250.064 197.874 251.18 197.874 252.5C197.874 253.82 197.418 254.936 196.506 255.848C195.606 256.76 194.514 257.216 193.23 257.216C191.634 257.216 190.422 256.556 189.594 255.236V260.6H188.406V248H189.594V249.764C190.422 248.444 191.634 247.784 193.23 247.784ZM190.62 255.038C191.304 255.722 192.144 256.064 193.14 256.064C194.136 256.064 194.976 255.722 195.66 255.038C196.344 254.342 196.686 253.496 196.686 252.5C196.686 251.504 196.344 250.664 195.66 249.98C194.976 249.284 194.136 248.936 193.14 248.936C192.144 248.936 191.304 249.284 190.62 249.98C189.936 250.664 189.594 251.504 189.594 252.5C189.594 253.496 189.936 254.342 190.62 255.038ZM199.85 257V243.86H201.038V257H199.85ZM204.765 245.84C204.597 246.008 204.393 246.092 204.153 246.092C203.913 246.092 203.709 246.008 203.541 245.84C203.373 245.672 203.289 245.468 203.289 245.228C203.289 244.988 203.373 244.784 203.541 244.616C203.709 244.448 203.913 244.364 204.153 244.364C204.393 244.364 204.597 244.448 204.765 244.616C204.933 244.784 205.017 244.988 205.017 245.228C205.017 245.468 204.933 245.672 204.765 245.84ZM203.559 257V248H204.747V257H203.559ZM211.768 245.336C210.892 245.264 210.238 245.414 209.806 245.786C209.386 246.158 209.176 246.776 209.176 247.64V248H211.768V249.152H209.176V257H207.988V249.152H206.458V248H207.988V247.64C207.988 246.464 208.312 245.576 208.96 244.976C209.62 244.364 210.556 244.1 211.768 244.184V245.336ZM218.155 249.152H215.563V254.606C215.563 255.098 215.659 255.452 215.851 255.668C216.043 255.872 216.331 255.98 216.715 255.992C217.099 255.992 217.579 255.98 218.155 255.956V257C216.895 257.192 215.947 257.102 215.311 256.73C214.687 256.358 214.375 255.65 214.375 254.606V249.152H212.485V248H214.375V245.84L215.563 245.48V248H218.155V249.152ZM222.655 253.58C222.655 252.992 222.775 252.458 223.015 251.978C223.255 251.486 223.543 251.072 223.879 250.736C224.215 250.4 224.551 250.076 224.887 249.764C225.223 249.452 225.511 249.11 225.751 248.738C225.991 248.354 226.111 247.946 226.111 247.514C226.111 246.818 225.871 246.296 225.391 245.948C224.923 245.588 224.317 245.408 223.573 245.408C222.097 245.408 221.185 246.014 220.837 247.226L219.775 246.632C220.051 245.828 220.531 245.222 221.215 244.814C221.911 244.394 222.697 244.184 223.573 244.184C224.629 244.184 225.523 244.478 226.255 245.066C226.999 245.642 227.371 246.458 227.371 247.514C227.371 248.03 227.251 248.51 227.011 248.954C226.771 249.398 226.483 249.788 226.147 250.124C225.811 250.448 225.475 250.772 225.139 251.096C224.803 251.42 224.515 251.798 224.275 252.23C224.035 252.65 223.915 253.1 223.915 253.58H222.655ZM223.987 256.892C223.795 257.084 223.561 257.18 223.285 257.18C223.009 257.18 222.775 257.084 222.583 256.892C222.391 256.7 222.295 256.466 222.295 256.19C222.295 255.914 222.391 255.68 222.583 255.488C222.775 255.296 223.009 255.2 223.285 255.2C223.561 255.2 223.795 255.296 223.987 255.488C224.179 255.68 224.275 255.914 224.275 256.19C224.275 256.466 224.179 256.7 223.987 256.892Z" fill="#E6D0FE"></path></svg> 