<?xml version="1.0" encoding="UTF-8"?> <svg xmlns="http://www.w3.org/2000/svg" width="400" height="600" viewBox="0 0 400 600" fill="none"> <rect width="400" height="600" rx="20" fill="#36BB71"></rect> <path d="M49.504 488.4V490.776H46.102V501H43.618V490.776H40.234V488.4H49.504ZM56.8159 499.884C55.8919 500.796 54.7639 501.252 53.4319 501.252C52.0999 501.252 50.9719 500.796 50.0479 499.884C49.1359 498.96 48.6799 497.832 48.6799 496.5C48.6799 495.168 49.1359 494.046 50.0479 493.134C50.9719 492.21 52.0999 491.748 53.4319 491.748C54.7639 491.748 55.8919 492.21 56.8159 493.134C57.7399 494.046 58.2019 495.168 58.2019 496.5C58.2019 497.832 57.7399 498.96 56.8159 499.884ZM51.6859 498.282C52.1539 498.75 52.7359 498.984 53.4319 498.984C54.1279 498.984 54.7099 498.75 55.1779 498.282C55.6459 497.814 55.8799 497.22 55.8799 496.5C55.8799 495.78 55.6459 495.186 55.1779 494.718C54.7099 494.25 54.1279 494.016 53.4319 494.016C52.7359 494.016 52.1539 494.25 51.6859 494.718C51.2299 495.186 51.0019 495.78 51.0019 496.5C51.0019 497.22 51.2299 497.814 51.6859 498.282ZM68.6194 501.252C67.2634 501.252 66.1294 500.796 65.2174 499.884C64.3174 498.972 63.8674 497.844 63.8674 496.5C63.8674 495.156 64.3174 494.028 65.2174 493.116C66.1294 492.204 67.2634 491.748 68.6194 491.748C69.4954 491.748 70.2934 491.958 71.0134 492.378C71.7334 492.798 72.2794 493.362 72.6514 494.07L70.6534 495.24C70.4734 494.868 70.1974 494.574 69.8254 494.358C69.4654 494.142 69.0574 494.034 68.6014 494.034C67.9054 494.034 67.3294 494.268 66.8734 494.736C66.4174 495.192 66.1894 495.78 66.1894 496.5C66.1894 497.208 66.4174 497.796 66.8734 498.264C67.3294 498.72 67.9054 498.948 68.6014 498.948C69.0694 498.948 69.4834 498.846 69.8434 498.642C70.2154 498.426 70.4914 498.132 70.6714 497.76L72.6874 498.912C72.2914 499.62 71.7334 500.19 71.0134 500.622C70.2934 501.042 69.4954 501.252 68.6194 501.252ZM81.4429 499.884C80.5189 500.796 79.3909 501.252 78.0589 501.252C76.7269 501.252 75.5989 500.796 74.6749 499.884C73.7629 498.96 73.3069 497.832 73.3069 496.5C73.3069 495.168 73.7629 494.046 74.6749 493.134C75.5989 492.21 76.7269 491.748 78.0589 491.748C79.3909 491.748 80.5189 492.21 81.4429 493.134C82.3669 494.046 82.8289 495.168 82.8289 496.5C82.8289 497.832 82.3669 498.96 81.4429 499.884ZM76.3129 498.282C76.7809 498.75 77.3629 498.984 78.0589 498.984C78.7549 498.984 79.3369 498.75 79.8049 498.282C80.2729 497.814 80.5069 497.22 80.5069 496.5C80.5069 495.78 80.2729 495.186 79.8049 494.718C79.3369 494.25 78.7549 494.016 78.0589 494.016C77.3629 494.016 76.7809 494.25 76.3129 494.718C75.8569 495.186 75.6289 495.78 75.6289 496.5C75.6289 497.22 75.8569 497.814 76.3129 498.282ZM89.4664 491.748C90.4504 491.748 91.2604 492.078 91.8964 492.738C92.5444 493.398 92.8684 494.31 92.8684 495.474V501H90.5464V495.762C90.5464 495.162 90.3844 494.706 90.0604 494.394C89.7364 494.07 89.3044 493.908 88.7644 493.908C88.1644 493.908 87.6844 494.094 87.3244 494.466C86.9644 494.838 86.7844 495.396 86.7844 496.14V501H84.4624V492H86.7844V493.008C87.3484 492.168 88.2424 491.748 89.4664 491.748ZM99.6931 490.38C98.4211 490.284 97.7851 490.794 97.7851 491.91V492H99.6931V494.232H97.7851V501H95.4631V494.232H94.1671V492H95.4631V491.91C95.4631 490.638 95.8171 489.672 96.5251 489.012C97.2331 488.352 98.2891 488.064 99.6931 488.148V490.38ZM102.385 497.454C102.697 498.582 103.543 499.146 104.923 499.146C105.811 499.146 106.483 498.846 106.939 498.246L108.811 499.326C107.923 500.61 106.615 501.252 104.887 501.252C103.399 501.252 102.205 500.802 101.305 499.902C100.405 499.002 99.9553 497.868 99.9553 496.5C99.9553 495.144 100.399 494.016 101.287 493.116C102.175 492.204 103.315 491.748 104.707 491.748C106.027 491.748 107.113 492.204 107.965 493.116C108.829 494.028 109.261 495.156 109.261 496.5C109.261 496.8 109.231 497.118 109.171 497.454H102.385ZM102.349 495.654H106.939C106.807 495.042 106.531 494.586 106.111 494.286C105.703 493.986 105.235 493.836 104.707 493.836C104.083 493.836 103.567 493.998 103.159 494.322C102.751 494.634 102.481 495.078 102.349 495.654ZM112.673 494.556C112.673 494.796 112.829 494.994 113.141 495.15C113.465 495.294 113.855 495.426 114.311 495.546C114.767 495.654 115.223 495.798 115.679 495.978C116.135 496.146 116.519 496.434 116.831 496.842C117.155 497.25 117.317 497.76 117.317 498.372C117.317 499.296 116.969 500.01 116.273 500.514C115.589 501.006 114.731 501.252 113.699 501.252C111.851 501.252 110.591 500.538 109.919 499.11L111.935 497.976C112.199 498.756 112.787 499.146 113.699 499.146C114.527 499.146 114.941 498.888 114.941 498.372C114.941 498.132 114.779 497.94 114.455 497.796C114.143 497.64 113.759 497.502 113.303 497.382C112.847 497.262 112.391 497.112 111.935 496.932C111.479 496.752 111.089 496.47 110.765 496.086C110.453 495.69 110.297 495.198 110.297 494.61C110.297 493.722 110.621 493.026 111.269 492.522C111.929 492.006 112.745 491.748 113.717 491.748C114.449 491.748 115.115 491.916 115.715 492.252C116.315 492.576 116.789 493.044 117.137 493.656L115.157 494.736C114.869 494.124 114.389 493.818 113.717 493.818C113.417 493.818 113.165 493.884 112.961 494.016C112.769 494.148 112.673 494.328 112.673 494.556ZM120.477 494.556C120.477 494.796 120.633 494.994 120.945 495.15C121.269 495.294 121.659 495.426 122.115 495.546C122.571 495.654 123.027 495.798 123.483 495.978C123.939 496.146 124.323 496.434 124.635 496.842C124.959 497.25 125.121 497.76 125.121 498.372C125.121 499.296 124.773 500.01 124.077 500.514C123.393 501.006 122.535 501.252 121.503 501.252C119.655 501.252 118.395 500.538 117.723 499.11L119.739 497.976C120.003 498.756 120.591 499.146 121.503 499.146C122.331 499.146 122.745 498.888 122.745 498.372C122.745 498.132 122.583 497.94 122.259 497.796C121.947 497.64 121.563 497.502 121.107 497.382C120.651 497.262 120.195 497.112 119.739 496.932C119.283 496.752 118.893 496.47 118.569 496.086C118.257 495.69 118.101 495.198 118.101 494.61C118.101 493.722 118.425 493.026 119.073 492.522C119.733 492.006 120.549 491.748 121.521 491.748C122.253 491.748 122.919 491.916 123.519 492.252C124.119 492.576 124.593 493.044 124.941 493.656L122.961 494.736C122.673 494.124 122.193 493.818 121.521 493.818C121.221 493.818 120.969 493.884 120.765 494.016C120.573 494.148 120.477 494.328 120.477 494.556ZM137.071 492H139.555L136.279 501C135.811 502.296 135.187 503.232 134.407 503.808C133.639 504.396 132.679 504.66 131.527 504.6V502.44C132.151 502.452 132.643 502.32 133.003 502.044C133.375 501.768 133.669 501.324 133.885 500.712L130.195 492H132.733L135.073 498.048L137.071 492ZM147.976 499.884C147.052 500.796 145.924 501.252 144.592 501.252C143.26 501.252 142.132 500.796 141.208 499.884C140.296 498.96 139.84 497.832 139.84 496.5C139.84 495.168 140.296 494.046 141.208 493.134C142.132 492.21 143.26 491.748 144.592 491.748C145.924 491.748 147.052 492.21 147.976 493.134C148.9 494.046 149.362 495.168 149.362 496.5C149.362 497.832 148.9 498.96 147.976 499.884ZM142.846 498.282C143.314 498.75 143.896 498.984 144.592 498.984C145.288 498.984 145.87 498.75 146.338 498.282C146.806 497.814 147.04 497.22 147.04 496.5C147.04 495.78 146.806 495.186 146.338 494.718C145.87 494.25 145.288 494.016 144.592 494.016C143.896 494.016 143.314 494.25 142.846 494.718C142.39 495.186 142.162 495.78 142.162 496.5C142.162 497.22 142.39 497.814 142.846 498.282ZM156.936 492H159.258V501H156.936V499.992C156.372 500.832 155.478 501.252 154.254 501.252C153.27 501.252 152.454 500.922 151.806 500.262C151.17 499.602 150.852 498.69 150.852 497.526V492H153.174V497.238C153.174 497.838 153.336 498.3 153.66 498.624C153.984 498.936 154.416 499.092 154.956 499.092C155.556 499.092 156.036 498.906 156.396 498.534C156.756 498.162 156.936 497.604 156.936 496.86V492ZM163.706 493.548C163.922 492.972 164.276 492.54 164.768 492.252C165.272 491.964 165.83 491.82 166.442 491.82V494.412C165.734 494.328 165.098 494.472 164.534 494.844C163.982 495.216 163.706 495.834 163.706 496.698V501H161.384V492H163.706V493.548ZM172.3 501V487.86H174.622V501H172.3ZM184.416 499.884C183.492 500.796 182.364 501.252 181.032 501.252C179.7 501.252 178.572 500.796 177.648 499.884C176.736 498.96 176.28 497.832 176.28 496.5C176.28 495.168 176.736 494.046 177.648 493.134C178.572 492.21 179.7 491.748 181.032 491.748C182.364 491.748 183.492 492.21 184.416 493.134C185.34 494.046 185.802 495.168 185.802 496.5C185.802 497.832 185.34 498.96 184.416 499.884ZM179.286 498.282C179.754 498.75 180.336 498.984 181.032 498.984C181.728 498.984 182.31 498.75 182.778 498.282C183.246 497.814 183.48 497.22 183.48 496.5C183.48 495.78 183.246 495.186 182.778 494.718C182.31 494.25 181.728 494.016 181.032 494.016C180.336 494.016 179.754 494.25 179.286 494.718C178.83 495.186 178.602 495.78 178.602 496.5C178.602 497.22 178.83 497.814 179.286 498.282ZM193.005 492H195.561L192.141 501H189.495L186.075 492H188.631L190.809 498.3L193.005 492ZM198.292 497.454C198.604 498.582 199.45 499.146 200.83 499.146C201.718 499.146 202.39 498.846 202.846 498.246L204.718 499.326C203.83 500.61 202.522 501.252 200.794 501.252C199.306 501.252 198.112 500.802 197.212 499.902C196.312 499.002 195.862 497.868 195.862 496.5C195.862 495.144 196.306 494.016 197.194 493.116C198.082 492.204 199.222 491.748 200.614 491.748C201.934 491.748 203.02 492.204 203.872 493.116C204.736 494.028 205.168 495.156 205.168 496.5C205.168 496.8 205.138 497.118 205.078 497.454H198.292ZM198.256 495.654H202.846C202.714 495.042 202.438 494.586 202.018 494.286C201.61 493.986 201.142 493.836 200.614 493.836C199.99 493.836 199.474 493.998 199.066 494.322C198.658 494.634 198.388 495.078 198.256 495.654ZM211.667 496.014V494.862H220.667V496.014H211.667ZM235.429 492V501H234.241V493.152H229.057V501H227.869V492H235.429ZM242.766 491.784C244.05 491.784 245.142 492.24 246.042 493.152C246.954 494.064 247.41 495.18 247.41 496.5C247.41 497.82 246.954 498.936 246.042 499.848C245.142 500.76 244.05 501.216 242.766 501.216C241.17 501.216 239.958 500.556 239.13 499.236V504.6H237.942V492H239.13V493.764C239.958 492.444 241.17 491.784 242.766 491.784ZM240.156 499.038C240.84 499.722 241.68 500.064 242.676 500.064C243.672 500.064 244.512 499.722 245.196 499.038C245.88 498.342 246.222 497.496 246.222 496.5C246.222 495.504 245.88 494.664 245.196 493.98C244.512 493.284 243.672 492.936 242.676 492.936C241.68 492.936 240.84 493.284 240.156 493.98C239.472 494.664 239.13 495.504 239.13 496.5C239.13 497.496 239.472 498.342 240.156 499.038ZM255.937 492H256.945V501H255.757V494.07L250.393 501H249.385V492H250.573V498.93L255.937 492ZM264.101 496.374C265.145 496.77 265.667 497.49 265.667 498.534C265.667 499.278 265.373 499.914 264.785 500.442C264.209 500.958 263.381 501.216 262.301 501.216C260.489 501.216 259.301 500.496 258.737 499.056L259.745 498.462C260.117 499.53 260.969 500.064 262.301 500.064C262.997 500.064 263.531 499.914 263.903 499.614C264.287 499.314 264.479 498.93 264.479 498.462C264.479 498.042 264.323 497.7 264.011 497.436C263.699 497.172 263.279 497.04 262.751 497.04H261.437V495.888H262.391C262.907 495.888 263.309 495.762 263.597 495.51C263.897 495.246 264.047 494.886 264.047 494.43C264.047 493.998 263.873 493.644 263.525 493.368C263.177 493.08 262.709 492.936 262.121 492.936C260.993 492.936 260.243 493.386 259.871 494.286L258.881 493.71C259.481 492.426 260.561 491.784 262.121 491.784C263.069 491.784 263.825 492.036 264.389 492.54C264.953 493.032 265.235 493.638 265.235 494.358C265.235 495.282 264.857 495.954 264.101 496.374ZM273.845 492H275.033V501H273.845V497.076H268.661V501H267.473V492H268.661V495.924H273.845V492ZM285.285 492H286.473V501H285.285V499.236C284.457 500.556 283.245 501.216 281.649 501.216C280.365 501.216 279.267 500.76 278.355 499.848C277.455 498.936 277.005 497.82 277.005 496.5C277.005 495.18 277.455 494.064 278.355 493.152C279.267 492.24 280.365 491.784 281.649 491.784C283.245 491.784 284.457 492.444 285.285 493.764V492ZM279.219 499.038C279.903 499.722 280.743 500.064 281.739 500.064C282.735 500.064 283.575 499.722 284.259 499.038C284.943 498.342 285.285 497.496 285.285 496.5C285.285 495.504 284.943 494.664 284.259 493.98C283.575 493.284 282.735 492.936 281.739 492.936C280.743 492.936 279.903 493.284 279.219 493.98C278.535 494.664 278.193 495.504 278.193 496.5C278.193 497.496 278.535 498.342 279.219 499.038ZM295.469 492V493.152H292.283V501H291.095V493.152H287.909V492H295.469ZM300.57 495.42C301.41 495.42 302.118 495.684 302.694 496.212C303.282 496.728 303.576 497.394 303.576 498.21C303.576 499.026 303.282 499.698 302.694 500.226C302.118 500.742 301.41 501 300.57 501H296.916V492H298.104V495.42H300.57ZM300.57 499.848C301.074 499.848 301.5 499.698 301.848 499.398C302.208 499.098 302.388 498.702 302.388 498.21C302.388 497.718 302.208 497.322 301.848 497.022C301.5 496.722 301.074 496.572 300.57 496.572H298.104V499.848H300.57ZM309.477 501.216C308.121 501.216 306.993 500.766 306.093 499.866C305.193 498.954 304.743 497.832 304.743 496.5C304.743 495.168 305.193 494.052 306.093 493.152C306.993 492.24 308.121 491.784 309.477 491.784C310.365 491.784 311.163 492 311.871 492.432C312.579 492.852 313.095 493.422 313.419 494.142L312.447 494.7C312.207 494.16 311.817 493.734 311.277 493.422C310.749 493.098 310.149 492.936 309.477 492.936C308.481 492.936 307.641 493.284 306.957 493.98C306.273 494.664 305.931 495.504 305.931 496.5C305.931 497.496 306.273 498.342 306.957 499.038C307.641 499.722 308.481 500.064 309.477 500.064C310.149 500.064 310.749 499.908 311.277 499.596C311.805 499.272 312.219 498.84 312.519 498.3L313.509 498.876C313.137 499.596 312.591 500.166 311.871 500.586C311.151 501.006 310.353 501.216 309.477 501.216ZM321.519 492V501H320.331V497.544H318.783L316.011 501H314.499L317.343 497.508C316.623 497.4 316.029 497.1 315.561 496.608C315.093 496.116 314.859 495.51 314.859 494.79C314.859 493.974 315.147 493.308 315.723 492.792C316.311 492.264 317.025 492 317.865 492H321.519ZM317.865 496.428H320.331V493.152H317.865C317.361 493.152 316.929 493.302 316.569 493.602C316.221 493.902 316.047 494.298 316.047 494.79C316.047 495.282 316.221 495.678 316.569 495.978C316.929 496.278 317.361 496.428 317.865 496.428ZM334.263 496.374C335.247 496.734 335.739 497.436 335.739 498.48C335.739 499.212 335.493 499.818 335.001 500.298C334.521 500.766 333.825 501 332.913 501H328.539V492H332.553C333.429 492 334.107 492.228 334.587 492.684C335.067 493.128 335.307 493.704 335.307 494.412C335.307 495.312 334.959 495.966 334.263 496.374ZM332.553 493.152H329.727V495.888H332.553C333.597 495.888 334.119 495.42 334.119 494.484C334.119 494.064 333.981 493.74 333.705 493.512C333.441 493.272 333.057 493.152 332.553 493.152ZM332.913 499.848C333.441 499.848 333.843 499.722 334.119 499.47C334.407 499.218 334.551 498.864 334.551 498.408C334.551 497.988 334.407 497.658 334.119 497.418C333.843 497.166 333.441 497.04 332.913 497.04H329.727V499.848H332.913ZM48.64 515V524H47.452V516.152H43.384V520.166C43.384 521.666 43.096 522.698 42.52 523.262C41.956 523.826 41.176 524.072 40.18 524V522.884C40.864 522.956 41.368 522.794 41.692 522.398C42.028 522.002 42.196 521.258 42.196 520.166V515H48.64ZM58.8425 514.784C60.1625 514.784 61.2785 515.24 62.1905 516.152C63.1145 517.052 63.5765 518.168 63.5765 519.5C63.5765 520.832 63.1145 521.954 62.1905 522.866C61.2785 523.766 60.1625 524.216 58.8425 524.216C57.6305 524.216 56.5865 523.826 55.7105 523.046C54.8465 522.254 54.3485 521.264 54.2165 520.076H52.3445V524H51.1565V515H52.3445V518.924H54.2165C54.3485 517.736 54.8465 516.752 55.7105 515.972C56.5865 515.18 57.6305 514.784 58.8425 514.784ZM56.3225 522.038C57.0065 522.722 57.8465 523.064 58.8425 523.064C59.8385 523.064 60.6785 522.722 61.3625 522.038C62.0465 521.342 62.3885 520.496 62.3885 519.5C62.3885 518.504 62.0465 517.664 61.3625 516.98C60.6785 516.284 59.8385 515.936 58.8425 515.936C57.8465 515.936 57.0065 516.284 56.3225 516.98C55.6385 517.664 55.2965 518.504 55.2965 519.5C55.2965 520.496 55.6385 521.342 56.3225 522.038ZM69.549 524.216C68.253 524.216 67.173 523.79 66.309 522.938C65.445 522.074 65.013 520.958 65.013 519.59C65.013 518.054 65.241 516.878 65.697 516.062C66.153 515.234 67.077 514.484 68.469 513.812C68.733 513.68 69.081 513.524 69.513 513.344C69.957 513.164 70.287 513.02 70.503 512.912C70.731 512.804 70.977 512.666 71.241 512.498C71.505 512.318 71.703 512.12 71.835 511.904C71.967 511.688 72.051 511.43 72.087 511.13L73.023 511.67C72.975 511.958 72.879 512.228 72.735 512.48C72.591 512.732 72.441 512.936 72.285 513.092C72.141 513.248 71.907 513.422 71.583 513.614C71.271 513.794 71.025 513.926 70.845 514.01C70.677 514.082 70.377 514.208 69.945 514.388C69.525 514.568 69.243 514.688 69.099 514.748C68.259 515.108 67.641 515.486 67.245 515.882C66.849 516.266 66.567 516.77 66.399 517.394C66.807 516.854 67.323 516.458 67.947 516.206C68.583 515.942 69.201 515.81 69.801 515.81C71.001 515.81 71.991 516.206 72.771 516.998C73.563 517.778 73.959 518.78 73.959 520.004C73.959 521.216 73.539 522.224 72.699 523.028C71.871 523.82 70.821 524.216 69.549 524.216ZM69.549 523.028C70.485 523.028 71.253 522.746 71.853 522.182C72.465 521.606 72.771 520.88 72.771 520.004C72.771 519.116 72.483 518.39 71.907 517.826C71.343 517.25 70.587 516.962 69.639 516.962C68.787 516.962 68.013 517.232 67.317 517.772C66.621 518.3 66.273 519.008 66.273 519.896C66.273 520.808 66.585 521.558 67.209 522.146C67.845 522.734 68.625 523.028 69.549 523.028ZM81.4899 519.374C82.4739 519.734 82.9659 520.436 82.9659 521.48C82.9659 522.212 82.7199 522.818 82.2279 523.298C81.7479 523.766 81.0519 524 80.1399 524H75.7659V515H79.7799C80.6559 515 81.3339 515.228 81.8139 515.684C82.2939 516.128 82.5339 516.704 82.5339 517.412C82.5339 518.312 82.1859 518.966 81.4899 519.374ZM79.7799 516.152H76.9539V518.888H79.7799C80.8239 518.888 81.3459 518.42 81.3459 517.484C81.3459 517.064 81.2079 516.74 80.9319 516.512C80.6679 516.272 80.2839 516.152 79.7799 516.152ZM80.1399 522.848C80.6679 522.848 81.0699 522.722 81.3459 522.47C81.6339 522.218 81.7779 521.864 81.7779 521.408C81.7779 520.988 81.6339 520.658 81.3459 520.418C81.0699 520.166 80.6679 520.04 80.1399 520.04H76.9539V522.848H80.1399ZM91.3179 515H92.3259V524H91.1379V517.07L85.7739 524H84.7659V515H85.9539V521.93L91.3179 515Z" fill="#99FBC4"></path> <path d="M47.296 84.136V101H42.88V78.6H48.032L61.536 95.464V78.6H65.952V101H60.8L47.296 84.136ZM80.4918 97.768C82.6678 97.768 84.6518 97.352 86.9237 96.168L88.1718 99.496C86.0278 100.584 83.0198 101.576 80.0758 101.576C74.1238 101.576 70.1878 97.8 70.1878 93C70.1878 87.656 74.7318 84.456 80.0758 84.456C84.9398 84.456 88.5878 87.624 88.5878 91.944C88.5878 92.648 88.4918 93.384 88.2998 94.12H74.5398C75.1478 96.456 77.4838 97.768 80.4918 97.768ZM79.8198 88.008C77.0677 88.008 75.2758 89.064 74.6358 91.016H84.3318C83.9158 89.128 82.3158 88.008 79.8198 88.008ZM94.39 85L99.638 96.232L104.822 85H109.526L101.942 101H97.302L89.75 85H94.39ZM121.179 97.768C123.355 97.768 125.339 97.352 127.611 96.168L128.859 99.496C126.715 100.584 123.707 101.576 120.763 101.576C114.811 101.576 110.875 97.8 110.875 93C110.875 87.656 115.419 84.456 120.763 84.456C125.627 84.456 129.275 87.624 129.275 91.944C129.275 92.648 129.179 93.384 128.987 94.12H115.227C115.835 96.456 118.171 97.768 121.179 97.768ZM120.507 88.008C117.755 88.008 115.963 89.064 115.323 91.016H125.019C124.603 89.128 123.003 88.008 120.507 88.008ZM142.982 84.456C143.878 84.456 144.87 84.712 145.67 85.096L144.774 88.936C144.006 88.584 143.174 88.392 142.566 88.392C139.91 88.392 137.062 90.12 137.062 93.064V101H132.838V85H137.062V88.552C137.99 86.824 140.198 84.456 142.982 84.456ZM166.436 88.424C163.78 88.424 161.124 89.896 161.124 93.064V101H156.9V77.288H161.124V88.552C162.244 86.472 164.612 84.52 167.652 84.52C172.004 84.52 174.5 87.4 174.5 91.752V101H170.276V92.264C170.276 89.992 168.964 88.424 166.436 88.424ZM184.75 91.88C186.478 91.88 188.75 92.392 190.126 92.872V91.016C190.126 89.352 189.038 88.232 187.022 88.232C185.358 88.232 182.926 88.968 180.59 89.832L179.534 85.992C181.518 85.352 184.878 84.36 187.406 84.36C191.79 84.36 194.35 86.696 194.35 91.08V96.84C194.35 97.32 194.67 97.608 195.118 97.608C195.598 97.608 196.43 97.256 197.358 96.776L198.222 100.04C196.462 101 194.542 101.64 193.23 101.64C191.086 101.64 190.19 100.136 190.126 98.344C188.59 100.168 186.158 101.64 183.438 101.64C180.43 101.64 178.19 99.656 178.19 96.776C178.19 93.352 181.454 91.88 184.75 91.88ZM184.814 98.024C186.414 98.024 188.622 97.16 190.126 95.688V95.08C188.366 94.76 186.51 94.6 184.974 94.6C183.566 94.6 182.51 95.272 182.51 96.424C182.51 97.48 183.47 98.024 184.814 98.024ZM202.859 85L208.107 96.232L213.291 85H217.995L210.411 101H205.771L198.219 85H202.859ZM229.648 97.768C231.824 97.768 233.808 97.352 236.08 96.168L237.328 99.496C235.184 100.584 232.176 101.576 229.232 101.576C223.28 101.576 219.344 97.8 219.344 93C219.344 87.656 223.888 84.456 229.232 84.456C234.096 84.456 237.744 87.624 237.744 91.944C237.744 92.648 237.648 93.384 237.456 94.12H223.696C224.304 96.456 226.64 97.768 229.648 97.768ZM228.976 88.008C226.224 88.008 224.432 89.064 223.792 91.016H233.488C233.072 89.128 231.472 88.008 228.976 88.008ZM255.265 78.6V101H250.849V78.6H255.265ZM278.867 97.768C281.043 97.768 283.027 97.352 285.299 96.168L286.547 99.496C284.403 100.584 281.395 101.576 278.451 101.576C272.499 101.576 268.563 97.8 268.563 93C268.563 87.656 273.107 84.456 278.451 84.456C283.315 84.456 286.963 87.624 286.963 91.944C286.963 92.648 286.867 93.384 286.675 94.12H272.915C273.523 96.456 275.859 97.768 278.867 97.768ZM278.195 88.008C275.443 88.008 273.651 89.064 273.011 91.016H282.707C282.291 89.128 280.691 88.008 278.195 88.008ZM292.765 85L298.013 96.232L303.197 85H307.901L300.317 101H295.677L288.125 85H292.765ZM319.554 97.768C321.73 97.768 323.714 97.352 325.986 96.168L327.234 99.496C325.09 100.584 322.082 101.576 319.138 101.576C313.186 101.576 309.25 97.8 309.25 93C309.25 87.656 313.794 84.456 319.138 84.456C324.002 84.456 327.65 87.624 327.65 91.944C327.65 92.648 327.554 93.384 327.362 94.12H313.602C314.21 96.456 316.546 97.768 319.554 97.768ZM318.882 88.008C316.13 88.008 314.338 89.064 313.698 91.016H323.394C322.978 89.128 321.378 88.008 318.882 88.008ZM341.357 84.456C342.253 84.456 343.245 84.712 344.045 85.096L343.149 88.936C342.381 88.584 341.549 88.392 340.941 88.392C338.285 88.392 335.437 90.12 335.437 93.064V101H331.213V85H335.437V88.552C336.365 86.824 338.573 84.456 341.357 84.456ZM51.232 124.456C53.888 124.456 56.32 125.064 58.24 125.736L57.216 129.512C55.008 128.616 53.152 128.168 50.976 128.168C47.904 128.168 45.6 129.928 45.6 132.84C45.6 135.912 48.16 137.768 51.488 137.768C53.824 137.768 55.52 137.096 57.632 136.168L58.88 139.496C56.704 140.648 53.952 141.576 50.944 141.576C44.992 141.576 41.344 137.8 41.344 133C41.344 127.656 45.888 124.456 51.232 124.456ZM70.9835 124.456C76.3275 124.456 80.9355 127.496 80.9355 132.84C80.9355 137.64 76.7755 141.576 70.9835 141.576C65.1915 141.576 61.0315 137.64 61.0315 132.84C61.0315 127.496 65.6395 124.456 70.9835 124.456ZM70.9835 128.136C67.6555 128.136 65.2875 129.864 65.2875 132.84C65.2875 135.528 67.8155 137.928 70.9835 137.928C74.1515 137.928 76.6795 135.528 76.6795 132.84C76.6795 129.864 74.3115 128.136 70.9835 128.136ZM94.2173 128.424C91.5613 128.424 88.9053 129.896 88.9053 133.064V141H84.6813V125H88.9053V128.552C90.0253 126.472 92.3933 124.52 95.4333 124.52C99.7853 124.52 102.281 127.4 102.281 131.752V141H98.0573V132.264C98.0573 129.992 96.7453 128.424 94.2173 128.424ZM114.323 120.424C112.787 120.424 111.827 121.224 111.827 122.952V125H119.091V128.68H111.987V141H107.827V128.68H105.171V125H107.795V122.76C107.795 119.08 110.515 116.68 114.451 116.68C116.275 116.68 118.195 117.128 119.699 117.64L118.675 121.512C117.203 120.872 115.699 120.424 114.323 120.424ZM130.992 137.768C133.168 137.768 135.152 137.352 137.424 136.168L138.672 139.496C136.528 140.584 133.52 141.576 130.576 141.576C124.624 141.576 120.688 137.8 120.688 133C120.688 127.656 125.232 124.456 130.576 124.456C135.44 124.456 139.088 127.624 139.088 131.944C139.088 132.648 138.992 133.384 138.8 134.12H125.04C125.648 136.456 127.984 137.768 130.992 137.768ZM130.32 128.008C127.568 128.008 125.776 129.064 125.136 131.016H134.832C134.416 129.128 132.816 128.008 130.32 128.008ZM156.794 125.576L155.674 129.288C153.594 128.488 151.61 128.072 149.562 128.072C147.45 128.072 145.786 128.392 145.786 129.352C145.786 132.008 157.69 129.8 157.69 136.04C157.69 139.624 153.37 141.64 149.466 141.64C146.458 141.64 143.482 140.712 141.306 139.56L142.554 136.232C144.666 137.16 147.162 137.928 149.626 137.928C151.93 137.928 153.53 137.288 153.53 136.168C153.53 133.64 141.626 135.752 141.626 129.512C141.626 126.376 144.858 124.392 149.402 124.392C151.93 124.392 154.906 124.936 156.794 125.576ZM175.513 125.576L174.393 129.288C172.313 128.488 170.329 128.072 168.281 128.072C166.169 128.072 164.505 128.392 164.505 129.352C164.505 132.008 176.409 129.8 176.409 136.04C176.409 139.624 172.089 141.64 168.185 141.64C165.177 141.64 162.201 140.712 160.025 139.56L161.273 136.232C163.385 137.16 165.881 137.928 168.345 137.928C170.649 137.928 172.249 137.288 172.249 136.168C172.249 133.64 160.345 135.752 160.345 129.512C160.345 126.376 163.577 124.392 168.121 124.392C170.649 124.392 173.625 124.936 175.513 125.576ZM189.336 137.768C191.512 137.768 193.496 137.352 195.767 136.168L197.016 139.496C194.872 140.584 191.864 141.576 188.92 141.576C182.968 141.576 179.032 137.8 179.032 133C179.032 127.656 183.576 124.456 188.92 124.456C193.784 124.456 197.432 127.624 197.432 131.944C197.432 132.648 197.336 133.384 197.144 134.12H183.384C183.992 136.456 186.328 137.768 189.336 137.768ZM188.664 128.008C185.911 128.008 184.12 129.064 183.48 131.016H193.176C192.76 129.128 191.16 128.008 188.664 128.008ZM208.002 141.544C203.618 141.544 199.938 138.344 199.938 133.16C199.938 128.36 203.97 124.424 209.346 124.424C211.074 124.424 213.282 125.064 214.882 125.576V117H219.106V141H214.882V137.448C213.826 139.656 211.266 141.544 208.002 141.544ZM209.25 137.608C212.066 137.608 214.882 135.624 214.882 132.552V129.096C213.026 128.552 211.234 128.136 209.282 128.136C206.402 128.136 204.194 130.312 204.194 133.128C204.194 136.008 206.402 137.608 209.25 137.608ZM250.403 125L242.691 142.312C241.155 145.736 239.683 149 235.171 149C234.947 149 234.243 148.936 233.699 148.84L233.923 144.776C234.499 144.872 235.139 144.936 235.363 144.936C237.059 144.936 237.955 143.176 238.755 141.384C238.755 141.32 238.819 141.256 238.819 141.224L230.562 125H235.171L240.899 136.424C242.563 132.552 244.323 128.424 245.763 125H250.403ZM261.702 124.456C267.046 124.456 271.654 127.496 271.654 132.84C271.654 137.64 267.494 141.576 261.702 141.576C255.91 141.576 251.75 137.64 251.75 132.84C251.75 127.496 256.358 124.456 261.702 124.456ZM261.702 128.136C258.374 128.136 256.006 129.864 256.006 132.84C256.006 135.528 258.534 137.928 261.702 137.928C264.87 137.928 267.398 135.528 267.398 132.84C267.398 129.864 265.03 128.136 261.702 128.136ZM281.96 141.512C277.672 141.512 275.24 138.632 275.24 134.28V125H279.464V133.736C279.464 136.328 281 137.608 283.528 137.608C286.216 137.608 288.488 136.136 288.488 132.744V125H292.712V141H288.488V137.48C287.336 139.752 284.872 141.512 281.96 141.512ZM307.669 124.456C308.565 124.456 309.557 124.712 310.357 125.096L309.461 128.936C308.693 128.584 307.861 128.392 307.253 128.392C304.597 128.392 301.749 130.12 301.749 133.064V141H297.525V125H301.749V128.552C302.677 126.824 304.885 124.456 307.669 124.456ZM46.592 181H42.4V157H46.592V181ZM60.296 164.456C65.64 164.456 70.248 167.496 70.248 172.84C70.248 177.64 66.088 181.576 60.296 181.576C54.504 181.576 50.344 177.64 50.344 172.84C50.344 167.496 54.952 164.456 60.296 164.456ZM60.296 168.136C56.968 168.136 54.6 169.864 54.6 172.84C54.6 175.528 57.128 177.928 60.296 177.928C63.464 177.928 65.992 175.528 65.992 172.84C65.992 169.864 63.624 168.136 60.296 168.136ZM76.2338 165L81.4818 176.232L86.6658 165H91.3698L83.7858 181H79.1458L71.5938 165H76.2338ZM103.023 177.768C105.199 177.768 107.183 177.352 109.455 176.168L110.703 179.496C108.559 180.584 105.551 181.576 102.607 181.576C96.655 181.576 92.719 177.8 92.719 173C92.719 167.656 97.263 164.456 102.607 164.456C107.471 164.456 111.119 167.624 111.119 171.944C111.119 172.648 111.023 173.384 110.831 174.12H97.071C97.679 176.456 100.015 177.768 103.023 177.768ZM102.351 168.008C99.599 168.008 97.807 169.064 97.167 171.016H106.863C106.447 169.128 104.847 168.008 102.351 168.008ZM121.984 168.68V165.32L125.152 165.128L125.728 160.2H129.248V165H135.904V168.68H129.248V174.728C129.248 176.456 130.176 177.64 131.84 177.64C133.088 177.64 134.496 177.128 135.52 176.488L136.448 180.104C135.104 180.808 132.832 181.544 131.136 181.544C127.168 181.544 125.024 178.92 125.024 174.888V168.68H121.984ZM148.546 164.456C153.89 164.456 158.498 167.496 158.498 172.84C158.498 177.64 154.338 181.576 148.546 181.576C142.754 181.576 138.594 177.64 138.594 172.84C138.594 167.496 143.202 164.456 148.546 164.456ZM148.546 168.136C145.218 168.136 142.85 169.864 142.85 172.84C142.85 175.528 145.378 177.928 148.546 177.928C151.714 177.928 154.242 175.528 154.242 172.84C154.242 169.864 151.874 168.136 148.546 168.136ZM176.906 171.88C178.634 171.88 180.906 172.392 182.282 172.872V171.016C182.282 169.352 181.194 168.232 179.178 168.232C177.514 168.232 175.082 168.968 172.746 169.832L171.69 165.992C173.674 165.352 177.034 164.36 179.562 164.36C183.946 164.36 186.506 166.696 186.506 171.08V176.84C186.506 177.32 186.826 177.608 187.274 177.608C187.754 177.608 188.586 177.256 189.514 176.776L190.378 180.04C188.618 181 186.698 181.64 185.386 181.64C183.242 181.64 182.346 180.136 182.282 178.344C180.746 180.168 178.314 181.64 175.594 181.64C172.586 181.64 170.346 179.656 170.346 176.776C170.346 173.352 173.61 171.88 176.906 171.88ZM176.97 178.024C178.57 178.024 180.778 177.16 182.282 175.688V175.08C180.522 174.76 178.666 174.6 177.13 174.6C175.722 174.6 174.666 175.272 174.666 176.424C174.666 177.48 175.626 178.024 176.97 178.024ZM212.942 164.456C217.326 164.456 221.006 167.656 221.006 172.84C221.006 177.64 216.974 181.576 211.598 181.576C209.838 181.576 207.63 180.936 206.062 180.456V188.68H201.838V165H206.062V168.552C207.118 166.344 209.678 164.456 212.942 164.456ZM211.694 168.392C208.845 168.392 206.062 170.12 206.062 173.064V176.904C207.885 177.448 209.678 177.864 211.662 177.864C214.414 177.864 216.75 175.528 216.75 172.84C216.75 169.96 214.542 168.392 211.694 168.392ZM230.344 171.88C232.072 171.88 234.344 172.392 235.72 172.872V171.016C235.72 169.352 234.632 168.232 232.616 168.232C230.952 168.232 228.52 168.968 226.184 169.832L225.128 165.992C227.112 165.352 230.472 164.36 233 164.36C237.384 164.36 239.944 166.696 239.944 171.08V176.84C239.944 177.32 240.264 177.608 240.712 177.608C241.192 177.608 242.024 177.256 242.952 176.776L243.816 180.04C242.056 181 240.136 181.64 238.824 181.64C236.68 181.64 235.784 180.136 235.72 178.344C234.184 180.168 231.752 181.64 229.032 181.64C226.024 181.64 223.784 179.656 223.784 176.776C223.784 173.352 227.048 171.88 230.344 171.88ZM230.408 178.024C232.008 178.024 234.216 177.16 235.72 175.688V175.08C233.96 174.76 232.104 174.6 230.568 174.6C229.16 174.6 228.104 175.272 228.104 176.424C228.104 177.48 229.064 178.024 230.408 178.024ZM256.357 164.456C257.253 164.456 258.245 164.712 259.045 165.096L258.149 168.936C257.381 168.584 256.549 168.392 255.941 168.392C253.285 168.392 250.437 170.12 250.437 173.064V181H246.213V165H250.437V168.552C251.365 166.824 253.573 164.456 256.357 164.456ZM259.453 168.68V165.32L262.621 165.128L263.197 160.2H266.717V165H273.373V168.68H266.717V174.728C266.717 176.456 267.645 177.64 269.309 177.64C270.557 177.64 271.965 177.128 272.989 176.488L273.917 180.104C272.573 180.808 270.301 181.544 268.605 181.544C264.637 181.544 262.493 178.92 262.493 174.888V168.68H259.453ZM286.655 168.424C283.999 168.424 281.343 169.896 281.343 173.064V181H277.119V165H281.343V168.552C282.463 166.472 284.831 164.52 287.871 164.52C292.223 164.52 294.719 167.4 294.719 171.752V181H290.495V172.264C290.495 169.992 289.183 168.424 286.655 168.424ZM308.617 177.768C310.793 177.768 312.777 177.352 315.049 176.168L316.297 179.496C314.153 180.584 311.145 181.576 308.201 181.576C302.249 181.576 298.313 177.8 298.313 173C298.313 167.656 302.857 164.456 308.201 164.456C313.065 164.456 316.713 167.624 316.713 171.944C316.713 172.648 316.617 173.384 316.425 174.12H302.665C303.273 176.456 305.609 177.768 308.617 177.768ZM307.945 168.008C305.193 168.008 303.401 169.064 302.761 171.016H312.457C312.041 169.128 310.441 168.008 307.945 168.008ZM330.419 164.456C331.315 164.456 332.307 164.712 333.107 165.096L332.211 168.936C331.443 168.584 330.611 168.392 330.003 168.392C327.347 168.392 324.499 170.12 324.499 173.064V181H320.275V165H324.499V168.552C325.427 166.824 327.635 164.456 330.419 164.456ZM59.84 205L52.128 222.312C50.592 225.736 49.12 229 44.608 229C44.384 229 43.68 228.936 43.136 228.84L43.36 224.776C43.936 224.872 44.576 224.936 44.8 224.936C46.496 224.936 47.392 223.176 48.192 221.384C48.192 221.32 48.256 221.256 48.256 221.224L40 205H44.608L50.336 216.424C52 212.552 53.76 208.424 55.2 205H59.84ZM71.1398 204.456C76.4838 204.456 81.0918 207.496 81.0918 212.84C81.0918 217.64 76.9318 221.576 71.1398 221.576C65.3478 221.576 61.1878 217.64 61.1878 212.84C61.1878 207.496 65.7958 204.456 71.1398 204.456ZM71.1398 208.136C67.8118 208.136 65.4438 209.864 65.4438 212.84C65.4438 215.528 67.9718 217.928 71.1398 217.928C74.3078 217.928 76.8358 215.528 76.8358 212.84C76.8358 209.864 74.4678 208.136 71.1398 208.136ZM91.3975 221.512C87.1095 221.512 84.6775 218.632 84.6775 214.28V205H88.9015V213.736C88.9015 216.328 90.4375 217.608 92.9655 217.608C95.6535 217.608 97.9255 216.136 97.9255 212.744V205H102.15V221H97.9255V217.48C96.7735 219.752 94.3095 221.512 91.3975 221.512ZM120.185 197V221H116.025V197H120.185ZM126.041 219.848L120.409 213.288L127.641 205H133.049L125.337 213.16L129.081 217.032C129.369 217.32 129.689 217.416 130.041 217.416C130.681 217.416 131.385 217.064 132.153 216.744L133.145 220.168C131.673 220.808 130.297 221.416 129.017 221.416C127.929 221.416 126.905 220.872 126.041 219.848ZM145.874 208.424C143.218 208.424 140.562 209.896 140.562 213.064V221H136.338V205H140.562V208.552C141.682 206.472 144.05 204.52 147.09 204.52C151.442 204.52 153.938 207.4 153.938 211.752V221H149.714V212.264C149.714 209.992 148.402 208.424 145.874 208.424ZM167.836 217.768C170.012 217.768 171.996 217.352 174.267 216.168L175.516 219.496C173.372 220.584 170.364 221.576 167.42 221.576C161.468 221.576 157.532 217.8 157.532 213C157.532 207.656 162.076 204.456 167.42 204.456C172.284 204.456 175.932 207.624 175.932 211.944C175.932 212.648 175.836 213.384 175.644 214.12H161.884C162.492 216.456 164.828 217.768 167.836 217.768ZM167.164 208.008C164.411 208.008 162.62 209.064 161.98 211.016H171.676C171.26 209.128 169.66 208.008 167.164 208.008ZM197.734 221L193.03 210.056L188.294 221H183.974L176.966 205H181.542L186.182 216.008L190.822 205H195.238L199.878 215.976L204.55 205H209.03L202.022 221H197.734ZM224.561 221H220.369V197H224.561V221ZM238.617 217.768C240.793 217.768 242.777 217.352 245.049 216.168L246.297 219.496C244.153 220.584 241.145 221.576 238.201 221.576C232.249 221.576 228.313 217.8 228.313 213C228.313 207.656 232.857 204.456 238.201 204.456C243.065 204.456 246.713 207.624 246.713 211.944C246.713 212.648 246.617 213.384 246.425 214.12H232.665C233.273 216.456 235.609 217.768 238.617 217.768ZM237.945 208.008C235.193 208.008 233.401 209.064 232.761 211.016H242.457C242.041 209.128 240.441 208.008 237.945 208.008ZM264.419 205.576L263.299 209.288C261.219 208.488 259.235 208.072 257.187 208.072C255.075 208.072 253.411 208.392 253.411 209.352C253.411 212.008 265.315 209.8 265.315 216.04C265.315 219.624 260.995 221.64 257.091 221.64C254.083 221.64 251.107 220.712 248.931 219.56L250.179 216.232C252.291 217.16 254.787 217.928 257.251 217.928C259.555 217.928 261.155 217.288 261.155 216.168C261.155 213.64 249.251 215.752 249.251 209.512C249.251 206.376 252.483 204.392 257.027 204.392C259.555 204.392 262.531 204.936 264.419 205.576ZM283.138 205.576L282.018 209.288C279.938 208.488 277.954 208.072 275.906 208.072C273.794 208.072 272.13 208.392 272.13 209.352C272.13 212.008 284.034 209.8 284.034 216.04C284.034 219.624 279.714 221.64 275.81 221.64C272.802 221.64 269.826 220.712 267.65 219.56L268.898 216.232C271.01 217.16 273.506 217.928 275.97 217.928C278.274 217.928 279.874 217.288 279.874 216.168C279.874 213.64 267.97 215.752 267.97 209.512C267.97 206.376 271.202 204.392 275.746 204.392C278.274 204.392 281.25 204.936 283.138 205.576ZM40.64 248.68V245.32L43.808 245.128L44.384 240.2H47.904V245H54.56V248.68H47.904V254.728C47.904 256.456 48.832 257.64 50.496 257.64C51.744 257.64 53.152 257.128 54.176 256.488L55.104 260.104C53.76 260.808 51.488 261.544 49.792 261.544C45.824 261.544 43.68 258.92 43.68 254.888V248.68H40.64ZM67.8423 248.424C65.1863 248.424 62.5303 249.896 62.5303 253.064V261H58.3063V237.288H62.5303V248.552C63.6503 246.472 66.0183 244.52 69.0583 244.52C73.4103 244.52 75.9062 247.4 75.9062 251.752V261H71.6823V252.264C71.6823 249.992 70.3703 248.424 67.8423 248.424ZM86.1562 251.88C87.8843 251.88 90.1563 252.392 91.5323 252.872V251.016C91.5323 249.352 90.4443 248.232 88.4283 248.232C86.7643 248.232 84.3323 248.968 81.9963 249.832L80.9403 245.992C82.9243 245.352 86.2843 244.36 88.8123 244.36C93.1963 244.36 95.7563 246.696 95.7563 251.08V256.84C95.7563 257.32 96.0763 257.608 96.5243 257.608C97.0043 257.608 97.8363 257.256 98.7643 256.776L99.6283 260.04C97.8683 261 95.9483 261.64 94.6363 261.64C92.4923 261.64 91.5963 260.136 91.5323 258.344C89.9963 260.168 87.5642 261.64 84.8443 261.64C81.8363 261.64 79.5963 259.656 79.5963 256.776C79.5963 253.352 82.8602 251.88 86.1562 251.88ZM86.2203 258.024C87.8203 258.024 90.0283 257.16 91.5323 255.688V255.08C89.7723 254.76 87.9163 254.6 86.3802 254.6C84.9723 254.6 83.9163 255.272 83.9163 256.424C83.9163 257.48 84.8763 258.024 86.2203 258.024ZM111.561 248.424C108.905 248.424 106.249 249.896 106.249 253.064V261H102.025V245H106.249V248.552C107.369 246.472 109.737 244.52 112.777 244.52C117.129 244.52 119.625 247.4 119.625 251.752V261H115.401V252.264C115.401 249.992 114.089 248.424 111.561 248.424ZM138.938 251.88C140.666 251.88 142.938 252.392 144.314 252.872V251.016C144.314 249.352 143.226 248.232 141.21 248.232C139.546 248.232 137.114 248.968 134.778 249.832L133.722 245.992C135.706 245.352 139.066 244.36 141.594 244.36C145.978 244.36 148.538 246.696 148.538 251.08V256.84C148.538 257.32 148.858 257.608 149.306 257.608C149.786 257.608 150.618 257.256 151.546 256.776L152.41 260.04C150.65 261 148.73 261.64 147.418 261.64C145.274 261.64 144.378 260.136 144.314 258.344C142.778 260.168 140.345 261.64 137.626 261.64C134.618 261.64 132.378 259.656 132.378 256.776C132.378 253.352 135.641 251.88 138.938 251.88ZM139.002 258.024C140.602 258.024 142.81 257.16 144.314 255.688V255.08C142.554 254.76 140.698 254.6 139.161 254.6C137.754 254.6 136.698 255.272 136.698 256.424C136.698 257.48 137.658 258.024 139.002 258.024ZM174.109 244.52C177.117 244.52 179.069 246.024 179.965 248.424C181.245 246.504 183.805 244.52 186.493 244.52C190.653 244.52 192.861 247.368 192.861 251.592V261H188.637V252.104C188.637 249.992 187.389 248.424 185.053 248.424C182.845 248.424 180.477 249.992 180.477 253.032V261H176.253V252.104C176.253 249.992 175.005 248.424 172.669 248.424C170.461 248.424 168.093 249.96 168.093 253.032V261H163.869V245H168.093V248.392C169.149 246.504 171.325 244.52 174.109 244.52ZM206.39 244.456C211.734 244.456 216.342 247.496 216.342 252.84C216.342 257.64 212.182 261.576 206.39 261.576C200.598 261.576 196.438 257.64 196.438 252.84C196.438 247.496 201.046 244.456 206.39 244.456ZM206.39 248.136C203.062 248.136 200.694 249.864 200.694 252.84C200.694 255.528 203.222 257.928 206.39 257.928C209.558 257.928 212.086 255.528 212.086 252.84C212.086 249.864 209.718 248.136 206.39 248.136ZM229.624 248.424C226.968 248.424 224.312 249.896 224.312 253.064V261H220.088V245H224.312V248.552C225.432 246.472 227.8 244.52 230.84 244.52C235.192 244.52 237.688 247.4 237.688 251.752V261H233.464V252.264C233.464 249.992 232.152 248.424 229.624 248.424ZM240.578 248.68V245.32L243.746 245.128L244.322 240.2H247.842V245H254.498V248.68H247.842V254.728C247.842 256.456 248.77 257.64 250.434 257.64C251.682 257.64 253.09 257.128 254.114 256.488L255.042 260.104C253.698 260.808 251.426 261.544 249.73 261.544C245.762 261.544 243.618 258.92 243.618 254.888V248.68H240.578ZM267.78 248.424C265.124 248.424 262.468 249.896 262.468 253.064V261H258.244V237.288H262.468V248.552C263.588 246.472 265.956 244.52 268.996 244.52C273.348 244.52 275.844 247.4 275.844 251.752V261H271.62V252.264C271.62 249.992 270.308 248.424 267.78 248.424Z" fill="#C7FFE0"></path> </svg> 