<?xml version="1.0" encoding="UTF-8"?> <svg xmlns="http://www.w3.org/2000/svg" width="400" height="600" viewBox="0 0 400 600" fill="none"> <rect width="400" height="600" rx="20" fill="#EEBF38"></rect> <path d="M47.296 84.136V101H42.88V78.6H48.032L61.536 95.464V78.6H65.952V101H60.8L47.296 84.136ZM80.4918 97.768C82.6678 97.768 84.6518 97.352 86.9237 96.168L88.1718 99.496C86.0278 100.584 83.0198 101.576 80.0758 101.576C74.1238 101.576 70.1878 97.8 70.1878 93C70.1878 87.656 74.7318 84.456 80.0758 84.456C84.9398 84.456 88.5878 87.624 88.5878 91.944C88.5878 92.648 88.4918 93.384 88.2998 94.12H74.5398C75.1478 96.456 77.4838 97.768 80.4918 97.768ZM79.8198 88.008C77.0677 88.008 75.2758 89.064 74.6358 91.016H84.3318C83.9158 89.128 82.3158 88.008 79.8198 88.008ZM94.39 85L99.638 96.232L104.822 85H109.526L101.942 101H97.302L89.75 85H94.39ZM121.179 97.768C123.355 97.768 125.339 97.352 127.611 96.168L128.859 99.496C126.715 100.584 123.707 101.576 120.763 101.576C114.811 101.576 110.875 97.8 110.875 93C110.875 87.656 115.419 84.456 120.763 84.456C125.627 84.456 129.275 87.624 129.275 91.944C129.275 92.648 129.179 93.384 128.987 94.12H115.227C115.835 96.456 118.171 97.768 121.179 97.768ZM120.507 88.008C117.755 88.008 115.963 89.064 115.323 91.016H125.019C124.603 89.128 123.003 88.008 120.507 88.008ZM142.982 84.456C143.878 84.456 144.87 84.712 145.67 85.096L144.774 88.936C144.006 88.584 143.174 88.392 142.566 88.392C139.91 88.392 137.062 90.12 137.062 93.064V101H132.838V85H137.062V88.552C137.99 86.824 140.198 84.456 142.982 84.456ZM166.436 88.424C163.78 88.424 161.124 89.896 161.124 93.064V101H156.9V77.288H161.124V88.552C162.244 86.472 164.612 84.52 167.652 84.52C172.004 84.52 174.5 87.4 174.5 91.752V101H170.276V92.264C170.276 89.992 168.964 88.424 166.436 88.424ZM184.75 91.88C186.478 91.88 188.75 92.392 190.126 92.872V91.016C190.126 89.352 189.038 88.232 187.022 88.232C185.358 88.232 182.926 88.968 180.59 89.832L179.534 85.992C181.518 85.352 184.878 84.36 187.406 84.36C191.79 84.36 194.35 86.696 194.35 91.08V96.84C194.35 97.32 194.67 97.608 195.118 97.608C195.598 97.608 196.43 97.256 197.358 96.776L198.222 100.04C196.462 101 194.542 101.64 193.23 101.64C191.086 101.64 190.19 100.136 190.126 98.344C188.59 100.168 186.158 101.64 183.438 101.64C180.43 101.64 178.19 99.656 178.19 96.776C178.19 93.352 181.454 91.88 184.75 91.88ZM184.814 98.024C186.414 98.024 188.622 97.16 190.126 95.688V95.08C188.366 94.76 186.51 94.6 184.974 94.6C183.566 94.6 182.51 95.272 182.51 96.424C182.51 97.48 183.47 98.024 184.814 98.024ZM202.859 85L208.107 96.232L213.291 85H217.995L210.411 101H205.771L198.219 85H202.859ZM229.648 97.768C231.824 97.768 233.808 97.352 236.08 96.168L237.328 99.496C235.184 100.584 232.176 101.576 229.232 101.576C223.28 101.576 219.344 97.8 219.344 93C219.344 87.656 223.888 84.456 229.232 84.456C234.096 84.456 237.744 87.624 237.744 91.944C237.744 92.648 237.648 93.384 237.456 94.12H223.696C224.304 96.456 226.64 97.768 229.648 97.768ZM228.976 88.008C226.224 88.008 224.432 89.064 223.792 91.016H233.488C233.072 89.128 231.472 88.008 228.976 88.008ZM255.265 78.6V101H250.849V78.6H255.265ZM278.867 97.768C281.043 97.768 283.027 97.352 285.299 96.168L286.547 99.496C284.403 100.584 281.395 101.576 278.451 101.576C272.499 101.576 268.563 97.8 268.563 93C268.563 87.656 273.107 84.456 278.451 84.456C283.315 84.456 286.963 87.624 286.963 91.944C286.963 92.648 286.867 93.384 286.675 94.12H272.915C273.523 96.456 275.859 97.768 278.867 97.768ZM278.195 88.008C275.443 88.008 273.651 89.064 273.011 91.016H282.707C282.291 89.128 280.691 88.008 278.195 88.008ZM292.765 85L298.013 96.232L303.197 85H307.901L300.317 101H295.677L288.125 85H292.765ZM319.554 97.768C321.73 97.768 323.714 97.352 325.986 96.168L327.234 99.496C325.09 100.584 322.082 101.576 319.138 101.576C313.186 101.576 309.25 97.8 309.25 93C309.25 87.656 313.794 84.456 319.138 84.456C324.002 84.456 327.65 87.624 327.65 91.944C327.65 92.648 327.554 93.384 327.362 94.12H313.602C314.21 96.456 316.546 97.768 319.554 97.768ZM318.882 88.008C316.13 88.008 314.338 89.064 313.698 91.016H323.394C322.978 89.128 321.378 88.008 318.882 88.008ZM341.357 84.456C342.253 84.456 343.245 84.712 344.045 85.096L343.149 88.936C342.381 88.584 341.549 88.392 340.941 88.392C338.285 88.392 335.437 90.12 335.437 93.064V101H331.213V85H335.437V88.552C336.365 86.824 338.573 84.456 341.357 84.456ZM56.544 125.576L55.424 129.288C53.344 128.488 51.36 128.072 49.312 128.072C47.2 128.072 45.536 128.392 45.536 129.352C45.536 132.008 57.44 129.8 57.44 136.04C57.44 139.624 53.12 141.64 49.216 141.64C46.208 141.64 43.232 140.712 41.056 139.56L42.304 136.232C44.416 137.16 46.912 137.928 49.376 137.928C51.68 137.928 53.28 137.288 53.28 136.168C53.28 133.64 41.376 135.752 41.376 129.512C41.376 126.376 44.608 124.392 49.152 124.392C51.68 124.392 54.656 124.936 56.544 125.576ZM59.3588 128.68V125.32L62.5268 125.128L63.1028 120.2H66.6228V125H73.2788V128.68H66.6228V134.728C66.6228 136.456 67.5508 137.64 69.2148 137.64C70.4628 137.64 71.8708 137.128 72.8948 136.488L73.8228 140.104C72.4788 140.808 70.2068 141.544 68.5108 141.544C64.5428 141.544 62.3988 138.92 62.3988 134.888V128.68H59.3588ZM82.625 131.88C84.353 131.88 86.625 132.392 88.001 132.872V131.016C88.001 129.352 86.913 128.232 84.897 128.232C83.233 128.232 80.801 128.968 78.465 129.832L77.409 125.992C79.393 125.352 82.753 124.36 85.281 124.36C89.665 124.36 92.225 126.696 92.225 131.08V136.84C92.225 137.32 92.545 137.608 92.993 137.608C93.473 137.608 94.305 137.256 95.233 136.776L96.097 140.04C94.337 141 92.417 141.64 91.105 141.64C88.961 141.64 88.065 140.136 88.001 138.344C86.465 140.168 84.033 141.64 81.313 141.64C78.305 141.64 76.065 139.656 76.065 136.776C76.065 133.352 79.329 131.88 82.625 131.88ZM82.689 138.024C84.289 138.024 86.497 137.16 88.001 135.688V135.08C86.241 134.76 84.385 134.6 82.849 134.6C81.441 134.6 80.385 135.272 80.385 136.424C80.385 137.48 81.345 138.024 82.689 138.024ZM115.934 125L108.222 142.312C106.686 145.736 105.214 149 100.702 149C100.478 149 99.7738 148.936 99.2298 148.84L99.4538 144.776C100.03 144.872 100.67 144.936 100.894 144.936C102.59 144.936 103.486 143.176 104.286 141.384C104.286 141.32 104.35 141.256 104.35 141.224L96.0938 125H100.702L106.43 136.424C108.094 132.552 109.854 128.424 111.294 125H115.934ZM127.586 137.768C129.762 137.768 131.746 137.352 134.017 136.168L135.266 139.496C133.122 140.584 130.114 141.576 127.17 141.576C121.218 141.576 117.282 137.8 117.282 133C117.282 127.656 121.826 124.456 127.17 124.456C132.034 124.456 135.682 127.624 135.682 131.944C135.682 132.648 135.586 133.384 135.394 134.12H121.634C122.242 136.456 124.578 137.768 127.586 137.768ZM126.914 128.008C124.161 128.008 122.37 129.064 121.73 131.016H131.426C131.01 129.128 129.41 128.008 126.914 128.008ZM146.252 141.544C141.868 141.544 138.188 138.344 138.188 133.16C138.188 128.36 142.22 124.424 147.596 124.424C149.324 124.424 151.532 125.064 153.132 125.576V117H157.356V141H153.132V137.448C152.076 139.656 149.516 141.544 146.252 141.544ZM147.5 137.608C150.316 137.608 153.132 135.624 153.132 132.552V129.096C151.276 128.552 149.484 128.136 147.532 128.136C144.652 128.136 142.444 130.312 142.444 133.128C142.444 136.008 144.652 137.608 147.5 137.608ZM185.875 131.88C187.603 131.88 189.875 132.392 191.251 132.872V131.016C191.251 129.352 190.163 128.232 188.147 128.232C186.483 128.232 184.051 128.968 181.715 129.832L180.659 125.992C182.643 125.352 186.003 124.36 188.531 124.36C192.915 124.36 195.475 126.696 195.475 131.08V136.84C195.475 137.32 195.795 137.608 196.243 137.608C196.723 137.608 197.555 137.256 198.483 136.776L199.347 140.04C197.587 141 195.667 141.64 194.355 141.64C192.211 141.64 191.315 140.136 191.251 138.344C189.715 140.168 187.283 141.64 184.563 141.64C181.555 141.64 179.315 139.656 179.315 136.776C179.315 133.352 182.579 131.88 185.875 131.88ZM185.939 138.024C187.539 138.024 189.747 137.16 191.251 135.688V135.08C189.491 134.76 187.635 134.6 186.099 134.6C184.691 134.6 183.635 135.272 183.635 136.424C183.635 137.48 184.595 138.024 185.939 138.024ZM219.984 141L215.28 130.056L210.544 141H206.224L199.216 125H203.792L208.432 136.008L213.072 125H217.488L222.128 135.976L226.8 125H231.28L224.272 141H219.984ZM239.156 131.88C240.884 131.88 243.156 132.392 244.532 132.872V131.016C244.532 129.352 243.444 128.232 241.428 128.232C239.764 128.232 237.332 128.968 234.996 129.832L233.94 125.992C235.924 125.352 239.284 124.36 241.812 124.36C246.196 124.36 248.756 126.696 248.756 131.08V136.84C248.756 137.32 249.076 137.608 249.524 137.608C250.004 137.608 250.836 137.256 251.764 136.776L252.628 140.04C250.868 141 248.948 141.64 247.636 141.64C245.492 141.64 244.596 140.136 244.532 138.344C242.996 140.168 240.564 141.64 237.844 141.64C234.836 141.64 232.596 139.656 232.596 136.776C232.596 133.352 235.86 131.88 239.156 131.88ZM239.22 138.024C240.82 138.024 243.028 137.16 244.532 135.688V135.08C242.772 134.76 240.916 134.6 239.38 134.6C237.972 134.6 236.916 135.272 236.916 136.424C236.916 137.48 237.876 138.024 239.22 138.024ZM259.185 117V141H255.025V117H259.185ZM265.041 139.848L259.409 133.288L266.641 125H272.049L264.337 133.16L268.081 137.032C268.369 137.32 268.689 137.416 269.041 137.416C269.681 137.416 270.385 137.064 271.153 136.744L272.145 140.168C270.673 140.808 269.297 141.416 268.017 141.416C266.929 141.416 265.905 140.872 265.041 139.848ZM284.586 137.768C286.762 137.768 288.746 137.352 291.017 136.168L292.266 139.496C290.122 140.584 287.114 141.576 284.17 141.576C278.218 141.576 274.282 137.8 274.282 133C274.282 127.656 278.826 124.456 284.17 124.456C289.034 124.456 292.682 127.624 292.682 131.944C292.682 132.648 292.586 133.384 292.394 134.12H278.634C279.242 136.456 281.578 137.768 284.586 137.768ZM283.914 128.008C281.161 128.008 279.37 129.064 278.73 131.016H288.426C288.01 129.128 286.41 128.008 283.914 128.008ZM52.64 164.52C55.648 164.52 57.6 166.024 58.496 168.424C59.776 166.504 62.336 164.52 65.024 164.52C69.184 164.52 71.392 167.368 71.392 171.592V181H67.168V172.104C67.168 169.992 65.92 168.424 63.584 168.424C61.376 168.424 59.008 169.992 59.008 173.032V181H54.784V172.104C54.784 169.992 53.536 168.424 51.2 168.424C48.992 168.424 46.624 169.96 46.624 173.032V181H42.4V165H46.624V168.392C47.68 166.504 49.856 164.52 52.64 164.52ZM84.921 164.456C90.265 164.456 94.873 167.496 94.873 172.84C94.873 177.64 90.713 181.576 84.921 181.576C79.129 181.576 74.969 177.64 74.969 172.84C74.969 167.496 79.577 164.456 84.921 164.456ZM84.921 168.136C81.593 168.136 79.225 169.864 79.225 172.84C79.225 175.528 81.753 177.928 84.921 177.928C88.089 177.928 90.617 175.528 90.617 172.84C90.617 169.864 88.249 168.136 84.921 168.136ZM108.763 164.456C109.659 164.456 110.651 164.712 111.451 165.096L110.555 168.936C109.787 168.584 108.955 168.392 108.347 168.392C105.691 168.392 102.843 170.12 102.843 173.064V181H98.6188V165H102.843V168.552C103.771 166.824 105.979 164.456 108.763 164.456ZM122.867 177.768C125.043 177.768 127.027 177.352 129.299 176.168L130.547 179.496C128.403 180.584 125.395 181.576 122.451 181.576C116.499 181.576 112.563 177.8 112.563 173C112.563 167.656 117.107 164.456 122.451 164.456C127.315 164.456 130.963 167.624 130.963 171.944C130.963 172.648 130.867 173.384 130.675 174.12H116.915C117.523 176.456 119.859 177.768 122.867 177.768ZM122.195 168.008C119.443 168.008 117.651 169.064 117.011 171.016H126.707C126.291 169.128 124.691 168.008 122.195 168.008ZM141.828 168.68V165.32L144.996 165.128L145.572 160.2H149.092V165H155.748V168.68H149.092V174.728C149.092 176.456 150.02 177.64 151.684 177.64C152.932 177.64 154.34 177.128 155.364 176.488L156.292 180.104C154.948 180.808 152.676 181.544 150.98 181.544C147.012 181.544 144.868 178.92 144.868 174.888V168.68H141.828ZM169.03 168.424C166.374 168.424 163.718 169.896 163.718 173.064V181H159.494V157.288H163.718V168.552C164.838 166.472 167.206 164.52 170.246 164.52C174.598 164.52 177.094 167.4 177.094 171.752V181H172.87V172.264C172.87 169.992 171.558 168.424 169.03 168.424ZM187.344 171.88C189.072 171.88 191.344 172.392 192.72 172.872V171.016C192.72 169.352 191.632 168.232 189.616 168.232C187.952 168.232 185.52 168.968 183.184 169.832L182.128 165.992C184.112 165.352 187.472 164.36 190 164.36C194.384 164.36 196.944 166.696 196.944 171.08V176.84C196.944 177.32 197.264 177.608 197.712 177.608C198.192 177.608 199.024 177.256 199.952 176.776L200.816 180.04C199.056 181 197.136 181.64 195.824 181.64C193.68 181.64 192.784 180.136 192.72 178.344C191.184 180.168 188.752 181.64 186.032 181.64C183.024 181.64 180.784 179.656 180.784 176.776C180.784 173.352 184.048 171.88 187.344 171.88ZM187.408 178.024C189.008 178.024 191.216 177.16 192.72 175.688V175.08C190.96 174.76 189.104 174.6 187.568 174.6C186.16 174.6 185.104 175.272 185.104 176.424C185.104 177.48 186.064 178.024 187.408 178.024ZM212.749 168.424C210.093 168.424 207.437 169.896 207.437 173.064V181H203.213V165H207.437V168.552C208.557 166.472 210.925 164.52 213.965 164.52C218.317 164.52 220.812 167.4 220.812 171.752V181H216.589V172.264C216.589 169.992 215.277 168.424 212.749 168.424ZM242.461 161.8C239.933 161.8 237.597 163.56 235.997 165.448L232.925 162.664C235.101 160.2 238.525 157.96 242.109 157.96C247.773 157.96 250.493 161.064 250.493 164.488C250.493 168.328 247.229 171.144 243.997 173.416L239.133 176.776H250.237V181H234.045L233.117 176.552L241.373 170.632C244.061 168.68 246.077 166.728 246.077 164.584C246.077 163.016 244.861 161.8 242.461 161.8ZM252.898 176.168V172.232L263.81 158.44L263.842 158.568C263.81 158.536 263.81 158.472 263.81 158.44H268.738V172.328H271.842V176.168H268.738V181H264.45V176.168H252.898ZM257.538 172.328H264.45V163.592L257.538 172.328ZM51.936 208.424C49.28 208.424 46.624 209.896 46.624 213.064V221H42.4V197.288H46.624V208.552C47.744 206.472 50.112 204.52 53.152 204.52C57.504 204.52 60 207.4 60 211.752V221H55.776V212.264C55.776 209.992 54.464 208.424 51.936 208.424ZM73.546 204.456C78.89 204.456 83.498 207.496 83.498 212.84C83.498 217.64 79.338 221.576 73.546 221.576C67.754 221.576 63.594 217.64 63.594 212.84C63.594 207.496 68.202 204.456 73.546 204.456ZM73.546 208.136C70.218 208.136 67.85 209.864 67.85 212.84C67.85 215.528 70.378 217.928 73.546 217.928C76.714 217.928 79.242 215.528 79.242 212.84C79.242 209.864 76.874 208.136 73.546 208.136ZM93.8038 221.512C89.5158 221.512 87.0838 218.632 87.0838 214.28V205H91.3078V213.736C91.3078 216.328 92.8438 217.608 95.3718 217.608C98.0598 217.608 100.332 216.136 100.332 212.744V205H104.556V221H100.332V217.48C99.1798 219.752 96.7158 221.512 93.8038 221.512ZM119.513 204.456C120.409 204.456 121.401 204.712 122.201 205.096L121.305 208.936C120.537 208.584 119.705 208.392 119.097 208.392C116.441 208.392 113.593 210.12 113.593 213.064V221H109.369V205H113.593V208.552C114.521 206.824 116.729 204.456 119.513 204.456ZM138.513 205.576L137.393 209.288C135.313 208.488 133.329 208.072 131.281 208.072C129.169 208.072 127.505 208.392 127.505 209.352C127.505 212.008 139.409 209.8 139.409 216.04C139.409 219.624 135.089 221.64 131.185 221.64C128.177 221.64 125.201 220.712 123.025 219.56L124.273 216.232C126.385 217.16 128.881 217.928 131.345 217.928C133.649 217.928 135.249 217.288 135.249 216.168C135.249 213.64 123.345 215.752 123.345 209.512C123.345 206.376 126.577 204.392 131.121 204.392C133.649 204.392 136.625 204.936 138.513 205.576Z" fill="white"></path> <path d="M44.194 300L40.54 287.4H41.872L44.986 298.29L48.262 287.4H49.738L53.014 298.29L56.128 287.4H57.46L53.806 300H52.294L49 289.056L45.706 300H44.194ZM63.1204 290.784C64.2124 290.784 65.0704 291.12 65.6944 291.792C66.3304 292.452 66.6484 293.346 66.6484 294.474V300H65.4604V294.474C65.4604 293.67 65.2444 293.046 64.8124 292.602C64.3924 292.158 63.7924 291.936 63.0124 291.936C62.1484 291.936 61.4464 292.212 60.9064 292.764C60.3664 293.304 60.0964 294.144 60.0964 295.284V300H58.9084V287.4H60.0964V292.404C60.7684 291.324 61.7764 290.784 63.1204 290.784ZM75.2498 291H76.5098L72.6578 300.828C72.3098 301.716 71.8118 302.412 71.1638 302.916C70.5278 303.432 69.8138 303.66 69.0218 303.6V302.484C70.1018 302.604 70.9238 301.98 71.4878 300.612L71.7218 300.054L67.6898 291H68.9498L72.3338 298.542L75.2498 291ZM80.2898 296.58C80.2898 295.992 80.4098 295.458 80.6498 294.978C80.8898 294.486 81.1778 294.072 81.5138 293.736C81.8498 293.4 82.1858 293.076 82.5218 292.764C82.8578 292.452 83.1458 292.11 83.3858 291.738C83.6258 291.354 83.7458 290.946 83.7458 290.514C83.7458 289.818 83.5058 289.296 83.0258 288.948C82.5578 288.588 81.9518 288.408 81.2078 288.408C79.7318 288.408 78.8198 289.014 78.4718 290.226L77.4098 289.632C77.6858 288.828 78.1658 288.222 78.8498 287.814C79.5458 287.394 80.3318 287.184 81.2078 287.184C82.2638 287.184 83.1578 287.478 83.8898 288.066C84.6338 288.642 85.0058 289.458 85.0058 290.514C85.0058 291.03 84.8858 291.51 84.6458 291.954C84.4058 292.398 84.1178 292.788 83.7818 293.124C83.4458 293.448 83.1098 293.772 82.7738 294.096C82.4378 294.42 82.1498 294.798 81.9098 295.23C81.6698 295.65 81.5498 296.1 81.5498 296.58H80.2898ZM81.6218 299.892C81.4298 300.084 81.1958 300.18 80.9198 300.18C80.6438 300.18 80.4098 300.084 80.2178 299.892C80.0258 299.7 79.9298 299.466 79.9298 299.19C79.9298 298.914 80.0258 298.68 80.2178 298.488C80.4098 298.296 80.6438 298.2 80.9198 298.2C81.1958 298.2 81.4298 298.296 81.6218 298.488C81.8138 298.68 81.9098 298.914 81.9098 299.19C81.9098 299.466 81.8138 299.7 81.6218 299.892ZM94.7838 300L91.1298 287.4H92.4618L95.5758 298.29L98.8518 287.4H100.328L103.604 298.29L106.718 287.4H108.05L104.396 300H102.884L99.5898 289.056L96.2958 300H94.7838ZM113.71 290.784C114.802 290.784 115.66 291.12 116.284 291.792C116.92 292.452 117.238 293.346 117.238 294.474V300H116.05V294.474C116.05 293.67 115.834 293.046 115.402 292.602C114.982 292.158 114.382 291.936 113.602 291.936C112.738 291.936 112.036 292.212 111.496 292.764C110.956 293.304 110.686 294.144 110.686 295.284V300H109.498V287.4H110.686V292.404C111.358 291.324 112.366 290.784 113.71 290.784ZM127.275 291H128.463V300H127.275V298.236C126.447 299.556 125.235 300.216 123.639 300.216C122.355 300.216 121.257 299.76 120.345 298.848C119.445 297.936 118.995 296.82 118.995 295.5C118.995 294.18 119.445 293.064 120.345 292.152C121.257 291.24 122.355 290.784 123.639 290.784C125.235 290.784 126.447 291.444 127.275 292.764V291ZM121.209 298.038C121.893 298.722 122.733 299.064 123.729 299.064C124.725 299.064 125.565 298.722 126.249 298.038C126.933 297.342 127.275 296.496 127.275 295.5C127.275 294.504 126.933 293.664 126.249 292.98C125.565 292.284 124.725 291.936 123.729 291.936C122.733 291.936 121.893 292.284 121.209 292.98C120.525 293.664 120.183 294.504 120.183 295.5C120.183 296.496 120.525 297.342 121.209 298.038ZM135.749 292.152H133.157V297.606C133.157 298.098 133.253 298.452 133.445 298.668C133.637 298.872 133.925 298.98 134.309 298.992C134.693 298.992 135.173 298.98 135.749 298.956V300C134.489 300.192 133.541 300.102 132.905 299.73C132.281 299.358 131.969 298.65 131.969 297.606V292.152H130.079V291H131.969V288.84L133.157 288.48V291H135.749V292.152ZM149.969 287.4H151.157V300H149.969V298.236C149.141 299.556 147.929 300.216 146.333 300.216C145.049 300.216 143.951 299.76 143.039 298.848C142.139 297.936 141.689 296.82 141.689 295.5C141.689 294.18 142.139 293.064 143.039 292.152C143.951 291.24 145.049 290.784 146.333 290.784C147.929 290.784 149.141 291.444 149.969 292.764V287.4ZM143.903 298.038C144.587 298.722 145.427 299.064 146.423 299.064C147.419 299.064 148.259 298.722 148.943 298.038C149.627 297.342 149.969 296.496 149.969 295.5C149.969 294.504 149.627 293.664 148.943 292.98C148.259 292.284 147.419 291.936 146.423 291.936C145.427 291.936 144.587 292.284 143.903 292.98C143.219 293.664 142.877 294.504 142.877 295.5C142.877 296.496 143.219 297.342 143.903 298.038ZM154.878 288.84C154.71 289.008 154.506 289.092 154.266 289.092C154.026 289.092 153.822 289.008 153.654 288.84C153.486 288.672 153.402 288.468 153.402 288.228C153.402 287.988 153.486 287.784 153.654 287.616C153.822 287.448 154.026 287.364 154.266 287.364C154.506 287.364 154.71 287.448 154.878 287.616C155.046 287.784 155.13 287.988 155.13 288.228C155.13 288.468 155.046 288.672 154.878 288.84ZM153.672 300V291H154.86V300H153.672ZM165.121 287.4H166.309V300H165.121V298.236C164.293 299.556 163.081 300.216 161.485 300.216C160.201 300.216 159.103 299.76 158.191 298.848C157.291 297.936 156.841 296.82 156.841 295.5C156.841 294.18 157.291 293.064 158.191 292.152C159.103 291.24 160.201 290.784 161.485 290.784C163.081 290.784 164.293 291.444 165.121 292.764V287.4ZM159.055 298.038C159.739 298.722 160.579 299.064 161.575 299.064C162.571 299.064 163.411 298.722 164.095 298.038C164.779 297.342 165.121 296.496 165.121 295.5C165.121 294.504 164.779 293.664 164.095 292.98C163.411 292.284 162.571 291.936 161.575 291.936C160.579 291.936 159.739 292.284 159.055 292.98C158.371 293.664 158.029 294.504 158.029 295.5C158.029 296.496 158.371 297.342 159.055 298.038ZM179.804 291H181.064L177.212 300.828C176.864 301.716 176.366 302.412 175.718 302.916C175.082 303.432 174.368 303.66 173.576 303.6V302.484C174.656 302.604 175.478 301.98 176.042 300.612L176.276 300.054L172.244 291H173.504L176.888 298.542L179.804 291ZM189.691 298.866C188.779 299.766 187.663 300.216 186.343 300.216C185.023 300.216 183.901 299.766 182.977 298.866C182.065 297.954 181.609 296.832 181.609 295.5C181.609 294.168 182.065 293.052 182.977 292.152C183.901 291.24 185.023 290.784 186.343 290.784C187.663 290.784 188.779 291.24 189.691 292.152C190.615 293.052 191.077 294.168 191.077 295.5C191.077 296.832 190.615 297.954 189.691 298.866ZM183.823 298.038C184.507 298.722 185.347 299.064 186.343 299.064C187.339 299.064 188.179 298.722 188.863 298.038C189.547 297.342 189.889 296.496 189.889 295.5C189.889 294.504 189.547 293.664 188.863 292.98C188.179 292.284 187.339 291.936 186.343 291.936C185.347 291.936 184.507 292.284 183.823 292.98C183.139 293.664 182.797 294.504 182.797 295.5C182.797 296.496 183.139 297.342 183.823 298.038ZM199.401 291H200.589V300H199.401V298.596C198.729 299.676 197.721 300.216 196.377 300.216C195.285 300.216 194.421 299.886 193.785 299.226C193.161 298.554 192.849 297.654 192.849 296.526V291H194.037V296.526C194.037 297.33 194.247 297.954 194.667 298.398C195.099 298.842 195.705 299.064 196.485 299.064C197.349 299.064 198.051 298.794 198.591 298.254C199.131 297.702 199.401 296.856 199.401 295.716V291ZM215.342 287.4H216.53V300H215.342V298.236C214.514 299.556 213.302 300.216 211.706 300.216C210.422 300.216 209.324 299.76 208.412 298.848C207.512 297.936 207.062 296.82 207.062 295.5C207.062 294.18 207.512 293.064 208.412 292.152C209.324 291.24 210.422 290.784 211.706 290.784C213.302 290.784 214.514 291.444 215.342 292.764V287.4ZM209.276 298.038C209.96 298.722 210.8 299.064 211.796 299.064C212.792 299.064 213.632 298.722 214.316 298.038C215 297.342 215.342 296.496 215.342 295.5C215.342 294.504 215 293.664 214.316 292.98C213.632 292.284 212.792 291.936 211.796 291.936C210.8 291.936 209.96 292.284 209.276 292.98C208.592 293.664 208.25 294.504 208.25 295.5C208.25 296.496 208.592 297.342 209.276 298.038ZM226.587 298.866C225.675 299.766 224.559 300.216 223.239 300.216C221.919 300.216 220.797 299.766 219.873 298.866C218.961 297.954 218.505 296.832 218.505 295.5C218.505 294.168 218.961 293.052 219.873 292.152C220.797 291.24 221.919 290.784 223.239 290.784C224.559 290.784 225.675 291.24 226.587 292.152C227.511 293.052 227.973 294.168 227.973 295.5C227.973 296.832 227.511 297.954 226.587 298.866ZM220.719 298.038C221.403 298.722 222.243 299.064 223.239 299.064C224.235 299.064 225.075 298.722 225.759 298.038C226.443 297.342 226.785 296.496 226.785 295.5C226.785 294.504 226.443 293.664 225.759 292.98C225.075 292.284 224.235 291.936 223.239 291.936C222.243 291.936 221.403 292.284 220.719 292.98C220.035 293.664 219.693 294.504 219.693 295.5C219.693 296.496 220.035 297.342 220.719 298.038ZM231.216 296.58C231.216 295.992 231.336 295.458 231.576 294.978C231.816 294.486 232.104 294.072 232.44 293.736C232.776 293.4 233.112 293.076 233.448 292.764C233.784 292.452 234.072 292.11 234.312 291.738C234.552 291.354 234.672 290.946 234.672 290.514C234.672 289.818 234.432 289.296 233.952 288.948C233.484 288.588 232.878 288.408 232.134 288.408C230.658 288.408 229.746 289.014 229.398 290.226L228.336 289.632C228.612 288.828 229.092 288.222 229.776 287.814C230.472 287.394 231.258 287.184 232.134 287.184C233.19 287.184 234.084 287.478 234.816 288.066C235.56 288.642 235.932 289.458 235.932 290.514C235.932 291.03 235.812 291.51 235.572 291.954C235.332 292.398 235.044 292.788 234.708 293.124C234.372 293.448 234.036 293.772 233.7 294.096C233.364 294.42 233.076 294.798 232.836 295.23C232.596 295.65 232.476 296.1 232.476 296.58H231.216ZM232.548 299.892C232.356 300.084 232.122 300.18 231.846 300.18C231.57 300.18 231.336 300.084 231.144 299.892C230.952 299.7 230.856 299.466 230.856 299.19C230.856 298.914 230.952 298.68 231.144 298.488C231.336 298.296 231.57 298.2 231.846 298.2C232.122 298.2 232.356 298.296 232.548 298.488C232.74 298.68 232.836 298.914 232.836 299.19C232.836 299.466 232.74 299.7 232.548 299.892Z" fill="white"></path> </svg> 