<?xml version="1.0" encoding="UTF-8"?> <svg xmlns="http://www.w3.org/2000/svg" width="400" height="600" viewBox="0 0 400 600" fill="none"> <rect width="400" height="600" rx="20" fill="#E7497E"></rect> <path d="M47.296 84.136L60.8 101H65.952V78.6H61.536V95.464L48.032 78.6H42.88V101H47.296V84.136ZM80.4918 97.768C77.4838 97.768 75.1478 96.456 74.5398 94.12H88.2998C88.4918 93.384 88.5878 92.648 88.5878 91.944C88.5878 87.624 84.9398 84.456 80.0758 84.456C74.7318 84.456 70.1878 87.656 70.1878 93C70.1878 97.8 74.1238 101.576 80.0758 101.576C83.0198 101.576 86.0278 100.584 88.1718 99.496L86.9237 96.168C84.6518 97.352 82.6678 97.768 80.4918 97.768ZM79.8198 88.008C82.3158 88.008 83.9158 89.128 84.3318 91.016H74.6358C75.2758 89.064 77.0677 88.008 79.8198 88.008ZM94.39 85H89.75L97.302 101H101.942L109.526 85H104.822L99.638 96.232L94.39 85ZM121.179 97.768C118.171 97.768 115.835 96.456 115.227 94.12H128.987C129.179 93.384 129.275 92.648 129.275 91.944C129.275 87.624 125.627 84.456 120.763 84.456C115.419 84.456 110.875 87.656 110.875 93C110.875 97.8 114.811 101.576 120.763 101.576C123.707 101.576 126.715 100.584 128.859 99.496L127.611 96.168C125.339 97.352 123.355 97.768 121.179 97.768ZM120.507 88.008C123.003 88.008 124.603 89.128 125.019 91.016H115.323C115.963 89.064 117.755 88.008 120.507 88.008ZM142.982 84.456C140.198 84.456 137.99 86.824 137.062 88.552V85H132.838V101H137.062V93.064C137.062 90.12 139.91 88.392 142.566 88.392C143.174 88.392 144.006 88.584 144.774 88.936L145.67 85.096C144.87 84.712 143.878 84.456 142.982 84.456ZM166.436 88.424C168.964 88.424 170.276 89.992 170.276 92.264V101H174.5V91.752C174.5 87.4 172.004 84.52 167.652 84.52C164.612 84.52 162.244 86.472 161.124 88.552V77.288H156.9V101H161.124V93.064C161.124 89.896 163.78 88.424 166.436 88.424ZM184.75 91.88C181.454 91.88 178.19 93.352 178.19 96.776C178.19 99.656 180.43 101.64 183.438 101.64C186.158 101.64 188.59 100.168 190.126 98.344C190.19 100.136 191.086 101.64 193.23 101.64C194.542 101.64 196.462 101 198.222 100.04L197.358 96.776C196.43 97.256 195.598 97.608 195.118 97.608C194.67 97.608 194.35 97.32 194.35 96.84V91.08C194.35 86.696 191.79 84.36 187.406 84.36C184.878 84.36 181.518 85.352 179.534 85.992L180.59 89.832C182.926 88.968 185.358 88.232 187.022 88.232C189.038 88.232 190.126 89.352 190.126 91.016V92.872C188.75 92.392 186.478 91.88 184.75 91.88ZM184.814 98.024C183.47 98.024 182.51 97.48 182.51 96.424C182.51 95.272 183.566 94.6 184.974 94.6C186.51 94.6 188.366 94.76 190.126 95.08V95.688C188.622 97.16 186.414 98.024 184.814 98.024ZM202.859 85H198.219L205.771 101H210.411L217.995 85H213.291L208.107 96.232L202.859 85ZM229.648 97.768C226.64 97.768 224.304 96.456 223.696 94.12H237.456C237.648 93.384 237.744 92.648 237.744 91.944C237.744 87.624 234.096 84.456 229.232 84.456C223.888 84.456 219.344 87.656 219.344 93C219.344 97.8 223.28 101.576 229.232 101.576C232.176 101.576 235.184 100.584 237.328 99.496L236.08 96.168C233.808 97.352 231.824 97.768 229.648 97.768ZM228.976 88.008C231.472 88.008 233.072 89.128 233.488 91.016H223.792C224.432 89.064 226.224 88.008 228.976 88.008ZM255.265 78.6H250.849V101H255.265V78.6ZM278.867 97.768C275.859 97.768 273.523 96.456 272.915 94.12H286.675C286.867 93.384 286.963 92.648 286.963 91.944C286.963 87.624 283.315 84.456 278.451 84.456C273.107 84.456 268.563 87.656 268.563 93C268.563 97.8 272.499 101.576 278.451 101.576C281.395 101.576 284.403 100.584 286.547 99.496L285.299 96.168C283.027 97.352 281.043 97.768 278.867 97.768ZM278.195 88.008C280.691 88.008 282.291 89.128 282.707 91.016H273.011C273.651 89.064 275.443 88.008 278.195 88.008ZM292.765 85H288.125L295.677 101H300.317L307.901 85H303.197L298.013 96.232L292.765 85ZM319.554 97.768C316.546 97.768 314.21 96.456 313.602 94.12H327.362C327.554 93.384 327.65 92.648 327.65 91.944C327.65 87.624 324.002 84.456 319.138 84.456C313.794 84.456 309.25 87.656 309.25 93C309.25 97.8 313.186 101.576 319.138 101.576C322.082 101.576 325.09 100.584 327.234 99.496L325.986 96.168C323.714 97.352 321.73 97.768 319.554 97.768ZM318.882 88.008C321.378 88.008 322.978 89.128 323.394 91.016H313.698C314.338 89.064 316.13 88.008 318.882 88.008ZM341.357 84.456C338.573 84.456 336.365 86.824 335.437 88.552V85H331.213V101H335.437V93.064C335.437 90.12 338.285 88.392 340.941 88.392C341.549 88.392 342.381 88.584 343.149 88.936L344.045 85.096C343.245 84.712 342.253 84.456 341.357 84.456ZM48.096 138.888C47.04 138.888 46.496 138.504 46.496 137.96C46.496 137.512 46.912 137.192 47.296 137.096C48.032 137.224 48.832 137.288 49.632 137.288C54.464 137.288 57.984 134.536 57.984 130.888C57.984 129.8 57.696 128.84 57.248 128.04C58.016 127.656 58.912 127.432 60.032 127.304L59.264 123.368C57.216 123.72 55.616 124.488 54.4 125.48C53.024 124.808 51.36 124.456 49.632 124.456C45.248 124.456 41.312 126.664 41.312 130.888C41.312 132.616 42.688 134.376 44.16 135.336C43.36 135.848 42.432 136.68 42.432 137.736C42.432 138.76 43.104 139.88 43.968 140.296C42.368 140.712 40.672 142.28 40.672 143.976C40.672 147.336 44.448 149.096 50.272 149.096C55.744 149.096 59.776 147.304 59.776 143.656C59.776 140.328 55.744 138.888 50.272 138.888H48.096ZM49.6 127.944C51.872 127.944 53.6 128.936 53.6 130.76C53.6 132.264 52.032 133.512 49.6 133.512C47.296 133.512 45.568 132.36 45.568 130.76C45.568 128.936 47.296 127.944 49.6 127.944ZM50.208 142.472C53.504 142.472 55.68 142.92 55.68 144.008C55.68 145.192 53.504 145.64 50.208 145.64C46.688 145.64 44.736 145.128 44.736 143.976C44.736 143.336 45.344 142.792 46.048 142.504C46.592 142.472 49.568 142.472 50.208 142.472ZM71.4835 124.456C66.1395 124.456 61.5315 127.496 61.5315 132.84C61.5315 137.64 65.6915 141.576 71.4835 141.576C77.2755 141.576 81.4355 137.64 81.4355 132.84C81.4355 127.496 76.8275 124.456 71.4835 124.456ZM71.4835 128.136C74.8115 128.136 77.1795 129.864 77.1795 132.84C77.1795 135.528 74.6515 137.928 71.4835 137.928C68.3155 137.928 65.7875 135.528 65.7875 132.84C65.7875 129.864 68.1555 128.136 71.4835 128.136ZM83.4213 128.68H86.4613V134.888C86.4613 138.92 88.6053 141.544 92.5733 141.544C94.2693 141.544 96.5413 140.808 97.8853 140.104L96.9573 136.488C95.9333 137.128 94.5253 137.64 93.2773 137.64C91.6133 137.64 90.6853 136.456 90.6853 134.728V128.68H97.3413V125H90.6853V120.2H87.1653L86.5893 125.128L83.4213 125.32V128.68ZM114.374 125H110.214V141H114.374V125ZM109.766 120.392C109.766 121.8 110.886 122.92 112.294 122.92C113.702 122.92 114.822 121.8 114.822 120.392C114.822 119.016 113.702 117.896 112.294 117.896C110.886 117.896 109.766 119.016 109.766 120.392ZM128.78 128.424C131.308 128.424 132.62 129.992 132.62 132.264V141H136.844V131.752C136.844 127.4 134.348 124.52 129.996 124.52C126.956 124.52 124.588 126.472 123.468 128.552V125H119.244V141H123.468V133.064C123.468 129.896 126.124 128.424 128.78 128.424ZM139.734 128.68H142.774V134.888C142.774 138.92 144.918 141.544 148.886 141.544C150.582 141.544 152.854 140.808 154.198 140.104L153.27 136.488C152.246 137.128 150.838 137.64 149.59 137.64C147.926 137.64 146.998 136.456 146.998 134.728V128.68H153.654V125H146.998V120.2H143.478L142.902 125.128L139.734 125.32V128.68ZM166.296 124.456C160.952 124.456 156.344 127.496 156.344 132.84C156.344 137.64 160.504 141.576 166.296 141.576C172.088 141.576 176.248 137.64 176.248 132.84C176.248 127.496 171.64 124.456 166.296 124.456ZM166.296 128.136C169.624 128.136 171.992 129.864 171.992 132.84C171.992 135.528 169.464 137.928 166.296 137.928C163.128 137.928 160.6 135.528 160.6 132.84C160.6 129.864 162.968 128.136 166.296 128.136ZM194.656 131.88C191.36 131.88 188.096 133.352 188.096 136.776C188.096 139.656 190.336 141.64 193.344 141.64C196.064 141.64 198.496 140.168 200.032 138.344C200.096 140.136 200.992 141.64 203.136 141.64C204.448 141.64 206.368 141 208.128 140.04L207.264 136.776C206.336 137.256 205.504 137.608 205.024 137.608C204.576 137.608 204.256 137.32 204.256 136.84V131.08C204.256 126.696 201.696 124.36 197.312 124.36C194.784 124.36 191.424 125.352 189.44 125.992L190.496 129.832C192.832 128.968 195.264 128.232 196.928 128.232C198.944 128.232 200.032 129.352 200.032 131.016V132.872C198.656 132.392 196.384 131.88 194.656 131.88ZM194.72 138.024C193.376 138.024 192.416 137.48 192.416 136.424C192.416 135.272 193.472 134.6 194.88 134.6C196.416 134.6 198.272 134.76 200.032 135.08V135.688C198.528 137.16 196.32 138.024 194.72 138.024ZM228.42 124.456C223.076 124.456 218.532 127.656 218.532 133C218.532 137.8 222.18 141.576 228.132 141.576C231.14 141.576 233.892 140.648 236.068 139.496L234.819 136.168C232.708 137.096 231.012 137.768 228.676 137.768C225.348 137.768 222.788 135.912 222.788 132.84C222.788 129.928 225.092 128.168 228.164 128.168C230.34 128.168 232.196 128.616 234.404 129.512L235.428 125.736C233.508 125.064 231.076 124.456 228.42 124.456ZM244.875 131.88C241.579 131.88 238.315 133.352 238.315 136.776C238.315 139.656 240.555 141.64 243.563 141.64C246.283 141.64 248.715 140.168 250.251 138.344C250.315 140.136 251.211 141.64 253.355 141.64C254.667 141.64 256.587 141 258.347 140.04L257.483 136.776C256.555 137.256 255.723 137.608 255.243 137.608C254.795 137.608 254.475 137.32 254.475 136.84V131.08C254.475 126.696 251.915 124.36 247.531 124.36C245.003 124.36 241.643 125.352 239.659 125.992L240.715 129.832C243.051 128.968 245.483 128.232 247.147 128.232C249.163 128.232 250.251 129.352 250.251 131.016V132.872C248.875 132.392 246.603 131.88 244.875 131.88ZM244.939 138.024C243.595 138.024 242.635 137.48 242.635 136.424C242.635 135.272 243.691 134.6 245.099 134.6C246.635 134.6 248.491 134.76 250.251 135.08V135.688C248.747 137.16 246.539 138.024 244.939 138.024ZM270.888 124.456C268.104 124.456 265.896 126.824 264.968 128.552V125H260.744V141H264.968V133.064C264.968 130.12 267.816 128.392 270.472 128.392C271.08 128.392 271.912 128.584 272.68 128.936L273.576 125.096C272.776 124.712 271.784 124.456 270.888 124.456ZM51.232 164.456C45.888 164.456 41.344 167.656 41.344 173C41.344 177.8 44.992 181.576 50.944 181.576C53.952 181.576 56.704 180.648 58.88 179.496L57.632 176.168C55.52 177.096 53.824 177.768 51.488 177.768C48.16 177.768 45.6 175.912 45.6 172.84C45.6 169.928 47.904 168.168 50.976 168.168C53.152 168.168 55.008 168.616 57.216 169.512L58.24 165.736C56.32 165.064 53.888 164.456 51.232 164.456ZM72.2315 164.456C69.4475 164.456 67.2395 166.824 66.3115 168.552V165H62.0875V181H66.3115V173.064C66.3115 170.12 69.1595 168.392 71.8155 168.392C72.4235 168.392 73.2555 168.584 74.0235 168.936L74.9195 165.096C74.1195 164.712 73.1275 164.456 72.2315 164.456ZM82.6875 171.88C79.3915 171.88 76.1275 173.352 76.1275 176.776C76.1275 179.656 78.3675 181.64 81.3755 181.64C84.0955 181.64 86.5275 180.168 88.0635 178.344C88.1275 180.136 89.0235 181.64 91.1675 181.64C92.4795 181.64 94.3995 181 96.1595 180.04L95.2955 176.776C94.3675 177.256 93.5355 177.608 93.0555 177.608C92.6075 177.608 92.2875 177.32 92.2875 176.84V171.08C92.2875 166.696 89.7275 164.36 85.3435 164.36C82.8155 164.36 79.4555 165.352 77.4715 165.992L78.5275 169.832C80.8635 168.968 83.2955 168.232 84.9595 168.232C86.9755 168.232 88.0635 169.352 88.0635 171.016V172.872C86.6875 172.392 84.4155 171.88 82.6875 171.88ZM82.7515 178.024C81.4075 178.024 80.4475 177.48 80.4475 176.424C80.4475 175.272 81.5035 174.6 82.9115 174.6C84.4475 174.6 86.3035 174.76 88.0635 175.08V175.688C86.5595 177.16 84.3515 178.024 82.7515 178.024ZM112.7 165.576C110.812 164.936 107.836 164.392 105.308 164.392C100.764 164.392 97.5323 166.376 97.5323 169.512C97.5323 175.752 109.436 173.64 109.436 176.168C109.436 177.288 107.836 177.928 105.532 177.928C103.068 177.928 100.572 177.16 98.4603 176.232L97.2122 179.56C99.3883 180.712 102.364 181.64 105.372 181.64C109.276 181.64 113.596 179.624 113.596 176.04C113.596 169.8 101.692 172.008 101.692 169.352C101.692 168.392 103.356 168.072 105.468 168.072C107.516 168.072 109.5 168.488 111.58 169.288L112.7 165.576ZM126.811 168.424C129.339 168.424 130.651 169.992 130.651 172.264V181H134.875V171.752C134.875 167.4 132.379 164.52 128.027 164.52C124.987 164.52 122.619 166.472 121.499 168.552V157.288H117.275V181H121.499V173.064C121.499 169.896 124.155 168.424 126.811 168.424Z" fill="#FFC2D7"></path> </svg> 