<?xml version="1.0" encoding="UTF-8"?> <svg xmlns="http://www.w3.org/2000/svg" width="400" height="600" viewBox="0 0 400 600" fill="none"><rect width="400" height="600" rx="20" fill="#EEBF38"></rect><path d="M49.504 488.4V490.776H46.102V501H43.618V490.776H40.234V488.4H49.504ZM56.8159 499.884C55.8919 500.796 54.7639 501.252 53.4319 501.252C52.0999 501.252 50.9719 500.796 50.0479 499.884C49.1359 498.96 48.6799 497.832 48.6799 496.5C48.6799 495.168 49.1359 494.046 50.0479 493.134C50.9719 492.21 52.0999 491.748 53.4319 491.748C54.7639 491.748 55.8919 492.21 56.8159 493.134C57.7399 494.046 58.2019 495.168 58.2019 496.5C58.2019 497.832 57.7399 498.96 56.8159 499.884ZM51.6859 498.282C52.1539 498.75 52.7359 498.984 53.4319 498.984C54.1279 498.984 54.7099 498.75 55.1779 498.282C55.6459 497.814 55.8799 497.22 55.8799 496.5C55.8799 495.78 55.6459 495.186 55.1779 494.718C54.7099 494.25 54.1279 494.016 53.4319 494.016C52.7359 494.016 52.1539 494.25 51.6859 494.718C51.2299 495.186 51.0019 495.78 51.0019 496.5C51.0019 497.22 51.2299 497.814 51.6859 498.282ZM68.6194 501.252C67.2634 501.252 66.1294 500.796 65.2174 499.884C64.3174 498.972 63.8674 497.844 63.8674 496.5C63.8674 495.156 64.3174 494.028 65.2174 493.116C66.1294 492.204 67.2634 491.748 68.6194 491.748C69.4954 491.748 70.2934 491.958 71.0134 492.378C71.7334 492.798 72.2794 493.362 72.6514 494.07L70.6534 495.24C70.4734 494.868 70.1974 494.574 69.8254 494.358C69.4654 494.142 69.0574 494.034 68.6014 494.034C67.9054 494.034 67.3294 494.268 66.8734 494.736C66.4174 495.192 66.1894 495.78 66.1894 496.5C66.1894 497.208 66.4174 497.796 66.8734 498.264C67.3294 498.72 67.9054 498.948 68.6014 498.948C69.0694 498.948 69.4834 498.846 69.8434 498.642C70.2154 498.426 70.4914 498.132 70.6714 497.76L72.6874 498.912C72.2914 499.62 71.7334 500.19 71.0134 500.622C70.2934 501.042 69.4954 501.252 68.6194 501.252ZM81.4429 499.884C80.5189 500.796 79.3909 501.252 78.0589 501.252C76.7269 501.252 75.5989 500.796 74.6749 499.884C73.7629 498.96 73.3069 497.832 73.3069 496.5C73.3069 495.168 73.7629 494.046 74.6749 493.134C75.5989 492.21 76.7269 491.748 78.0589 491.748C79.3909 491.748 80.5189 492.21 81.4429 493.134C82.3669 494.046 82.8289 495.168 82.8289 496.5C82.8289 497.832 82.3669 498.96 81.4429 499.884ZM76.3129 498.282C76.7809 498.75 77.3629 498.984 78.0589 498.984C78.7549 498.984 79.3369 498.75 79.8049 498.282C80.2729 497.814 80.5069 497.22 80.5069 496.5C80.5069 495.78 80.2729 495.186 79.8049 494.718C79.3369 494.25 78.7549 494.016 78.0589 494.016C77.3629 494.016 76.7809 494.25 76.3129 494.718C75.8569 495.186 75.6289 495.78 75.6289 496.5C75.6289 497.22 75.8569 497.814 76.3129 498.282ZM94.4164 491.748C95.4484 491.748 96.2704 492.084 96.8824 492.756C97.5064 493.428 97.8184 494.328 97.8184 495.456V501H95.4964V495.618C95.4964 495.078 95.3644 494.658 95.1004 494.358C94.8364 494.058 94.4644 493.908 93.9844 493.908C93.4564 493.908 93.0424 494.082 92.7424 494.43C92.4544 494.778 92.3104 495.282 92.3104 495.942V501H89.9884V495.618C89.9884 495.078 89.8564 494.658 89.5924 494.358C89.3284 494.058 88.9564 493.908 88.4764 493.908C87.9604 493.908 87.5464 494.082 87.2344 494.43C86.9344 494.778 86.7844 495.282 86.7844 495.942V501H84.4624V492H86.7844V492.954C87.3244 492.15 88.1584 491.748 89.2864 491.748C90.3904 491.748 91.2064 492.18 91.7344 493.044C92.3344 492.18 93.2284 491.748 94.4164 491.748ZM101.753 497.454C102.065 498.582 102.911 499.146 104.291 499.146C105.179 499.146 105.851 498.846 106.307 498.246L108.179 499.326C107.291 500.61 105.983 501.252 104.255 501.252C102.767 501.252 101.573 500.802 100.673 499.902C99.7725 499.002 99.3225 497.868 99.3225 496.5C99.3225 495.144 99.7665 494.016 100.655 493.116C101.543 492.204 102.683 491.748 104.075 491.748C105.395 491.748 106.481 492.204 107.333 493.116C108.197 494.028 108.629 495.156 108.629 496.5C108.629 496.8 108.599 497.118 108.539 497.454H101.753ZM101.717 495.654H106.307C106.175 495.042 105.899 494.586 105.479 494.286C105.071 493.986 104.603 493.836 104.075 493.836C103.451 493.836 102.935 493.998 102.527 494.322C102.119 494.634 101.849 495.078 101.717 495.654ZM121.59 492H123.912V501H121.59V499.938C120.894 500.814 119.916 501.252 118.656 501.252C117.456 501.252 116.424 500.796 115.56 499.884C114.708 498.96 114.281 497.832 114.281 496.5C114.281 495.168 114.708 494.046 115.56 493.134C116.424 492.21 117.456 491.748 118.656 491.748C119.916 491.748 120.894 492.186 121.59 493.062V492ZM117.306 498.336C117.774 498.804 118.368 499.038 119.088 499.038C119.808 499.038 120.402 498.804 120.87 498.336C121.35 497.856 121.59 497.244 121.59 496.5C121.59 495.756 121.35 495.15 120.87 494.682C120.402 494.202 119.808 493.962 119.088 493.962C118.368 493.962 117.774 494.202 117.306 494.682C116.838 495.15 116.604 495.756 116.604 496.5C116.604 497.244 116.838 497.856 117.306 498.336ZM130.301 501.252C128.945 501.252 127.811 500.796 126.899 499.884C125.999 498.972 125.549 497.844 125.549 496.5C125.549 495.156 125.999 494.028 126.899 493.116C127.811 492.204 128.945 491.748 130.301 491.748C131.177 491.748 131.975 491.958 132.695 492.378C133.415 492.798 133.961 493.362 134.333 494.07L132.335 495.24C132.155 494.868 131.879 494.574 131.507 494.358C131.147 494.142 130.739 494.034 130.283 494.034C129.587 494.034 129.011 494.268 128.555 494.736C128.099 495.192 127.871 495.78 127.871 496.5C127.871 497.208 128.099 497.796 128.555 498.264C129.011 498.72 129.587 498.948 130.283 498.948C130.751 498.948 131.165 498.846 131.525 498.642C131.897 498.426 132.173 498.132 132.353 497.76L134.369 498.912C133.973 499.62 133.415 500.19 132.695 500.622C131.975 501.042 131.177 501.252 130.301 501.252ZM137.989 493.548C138.205 492.972 138.559 492.54 139.051 492.252C139.555 491.964 140.113 491.82 140.725 491.82V494.412C140.017 494.328 139.381 494.472 138.817 494.844C138.265 495.216 137.989 495.834 137.989 496.698V501H135.667V492H137.989V493.548ZM149.418 499.884C148.494 500.796 147.366 501.252 146.034 501.252C144.702 501.252 143.574 500.796 142.65 499.884C141.738 498.96 141.281 497.832 141.281 496.5C141.281 495.168 141.738 494.046 142.65 493.134C143.574 492.21 144.702 491.748 146.034 491.748C147.366 491.748 148.494 492.21 149.418 493.134C150.342 494.046 150.804 495.168 150.804 496.5C150.804 497.832 150.342 498.96 149.418 499.884ZM144.288 498.282C144.756 498.75 145.338 498.984 146.034 498.984C146.73 498.984 147.312 498.75 147.78 498.282C148.248 497.814 148.482 497.22 148.482 496.5C148.482 495.78 148.248 495.186 147.78 494.718C147.312 494.25 146.73 494.016 146.034 494.016C145.338 494.016 144.756 494.25 144.288 494.718C143.832 495.186 143.604 495.78 143.604 496.5C143.604 497.22 143.832 497.814 144.288 498.282ZM154.386 494.556C154.386 494.796 154.542 494.994 154.854 495.15C155.178 495.294 155.568 495.426 156.024 495.546C156.48 495.654 156.936 495.798 157.392 495.978C157.848 496.146 158.232 496.434 158.544 496.842C158.868 497.25 159.03 497.76 159.03 498.372C159.03 499.296 158.682 500.01 157.986 500.514C157.302 501.006 156.444 501.252 155.412 501.252C153.564 501.252 152.304 500.538 151.632 499.11L153.648 497.976C153.912 498.756 154.5 499.146 155.412 499.146C156.24 499.146 156.654 498.888 156.654 498.372C156.654 498.132 156.492 497.94 156.168 497.796C155.856 497.64 155.472 497.502 155.016 497.382C154.56 497.262 154.104 497.112 153.648 496.932C153.192 496.752 152.802 496.47 152.478 496.086C152.166 495.69 152.01 495.198 152.01 494.61C152.01 493.722 152.334 493.026 152.982 492.522C153.642 492.006 154.458 491.748 155.43 491.748C156.162 491.748 156.828 491.916 157.428 492.252C158.028 492.576 158.502 493.044 158.85 493.656L156.87 494.736C156.582 494.124 156.102 493.818 155.43 493.818C155.13 493.818 154.878 493.884 154.674 494.016C154.482 494.148 154.386 494.328 154.386 494.556ZM162.19 494.556C162.19 494.796 162.346 494.994 162.658 495.15C162.982 495.294 163.372 495.426 163.828 495.546C164.284 495.654 164.74 495.798 165.196 495.978C165.652 496.146 166.036 496.434 166.348 496.842C166.672 497.25 166.834 497.76 166.834 498.372C166.834 499.296 166.486 500.01 165.79 500.514C165.106 501.006 164.248 501.252 163.216 501.252C161.368 501.252 160.108 500.538 159.436 499.11L161.452 497.976C161.716 498.756 162.304 499.146 163.216 499.146C164.044 499.146 164.458 498.888 164.458 498.372C164.458 498.132 164.296 497.94 163.972 497.796C163.66 497.64 163.276 497.502 162.82 497.382C162.364 497.262 161.908 497.112 161.452 496.932C160.996 496.752 160.606 496.47 160.282 496.086C159.97 495.69 159.814 495.198 159.814 494.61C159.814 493.722 160.138 493.026 160.786 492.522C161.446 492.006 162.262 491.748 163.234 491.748C163.966 491.748 164.632 491.916 165.232 492.252C165.832 492.576 166.306 493.044 166.654 493.656L164.674 494.736C164.386 494.124 163.906 493.818 163.234 493.818C162.934 493.818 162.682 493.884 162.478 494.016C162.286 494.148 162.19 494.328 162.19 494.556ZM175.058 494.556C175.058 494.796 175.214 494.994 175.526 495.15C175.85 495.294 176.24 495.426 176.696 495.546C177.152 495.654 177.608 495.798 178.064 495.978C178.52 496.146 178.904 496.434 179.216 496.842C179.54 497.25 179.702 497.76 179.702 498.372C179.702 499.296 179.354 500.01 178.658 500.514C177.974 501.006 177.116 501.252 176.084 501.252C174.236 501.252 172.976 500.538 172.304 499.11L174.32 497.976C174.584 498.756 175.172 499.146 176.084 499.146C176.912 499.146 177.326 498.888 177.326 498.372C177.326 498.132 177.164 497.94 176.84 497.796C176.528 497.64 176.144 497.502 175.688 497.382C175.232 497.262 174.776 497.112 174.32 496.932C173.864 496.752 173.474 496.47 173.15 496.086C172.838 495.69 172.682 495.198 172.682 494.61C172.682 493.722 173.006 493.026 173.654 492.522C174.314 492.006 175.13 491.748 176.102 491.748C176.834 491.748 177.5 491.916 178.1 492.252C178.7 492.576 179.174 493.044 179.522 493.656L177.542 494.736C177.254 494.124 176.774 493.818 176.102 493.818C175.802 493.818 175.55 493.884 175.346 494.016C175.154 494.148 175.058 494.328 175.058 494.556ZM188.74 499.884C187.816 500.796 186.688 501.252 185.356 501.252C184.024 501.252 182.896 500.796 181.972 499.884C181.06 498.96 180.604 497.832 180.604 496.5C180.604 495.168 181.06 494.046 181.972 493.134C182.896 492.21 184.024 491.748 185.356 491.748C186.688 491.748 187.816 492.21 188.74 493.134C189.664 494.046 190.126 495.168 190.126 496.5C190.126 497.832 189.664 498.96 188.74 499.884ZM183.61 498.282C184.078 498.75 184.66 498.984 185.356 498.984C186.052 498.984 186.634 498.75 187.102 498.282C187.57 497.814 187.804 497.22 187.804 496.5C187.804 495.78 187.57 495.186 187.102 494.718C186.634 494.25 186.052 494.016 185.356 494.016C184.66 494.016 184.078 494.25 183.61 494.718C183.154 495.186 182.926 495.78 182.926 496.5C182.926 497.22 183.154 497.814 183.61 498.282ZM201.713 491.748C202.745 491.748 203.567 492.084 204.179 492.756C204.803 493.428 205.115 494.328 205.115 495.456V501H202.793V495.618C202.793 495.078 202.661 494.658 202.397 494.358C202.133 494.058 201.761 493.908 201.281 493.908C200.753 493.908 200.339 494.082 200.039 494.43C199.751 494.778 199.607 495.282 199.607 495.942V501H197.285V495.618C197.285 495.078 197.153 494.658 196.889 494.358C196.625 494.058 196.253 493.908 195.773 493.908C195.257 493.908 194.843 494.082 194.531 494.43C194.231 494.778 194.081 495.282 194.081 495.942V501H191.759V492H194.081V492.954C194.621 492.15 195.455 491.748 196.583 491.748C197.687 491.748 198.503 492.18 199.031 493.044C199.631 492.18 200.525 491.748 201.713 491.748ZM209.049 497.454C209.361 498.582 210.207 499.146 211.587 499.146C212.475 499.146 213.147 498.846 213.603 498.246L215.475 499.326C214.587 500.61 213.279 501.252 211.551 501.252C210.063 501.252 208.869 500.802 207.969 499.902C207.069 499.002 206.619 497.868 206.619 496.5C206.619 495.144 207.063 494.016 207.951 493.116C208.839 492.204 209.979 491.748 211.371 491.748C212.691 491.748 213.777 492.204 214.629 493.116C215.493 494.028 215.925 495.156 215.925 496.5C215.925 496.8 215.895 497.118 215.835 497.454H209.049ZM209.013 495.654H213.603C213.471 495.042 213.195 494.586 212.775 494.286C212.367 493.986 211.899 493.836 211.371 493.836C210.747 493.836 210.231 493.998 209.823 494.322C209.415 494.634 209.145 495.078 209.013 495.654ZM222.784 491.748C223.996 491.748 225.028 492.21 225.88 493.134C226.744 494.046 227.176 495.168 227.176 496.5C227.176 497.832 226.744 498.96 225.88 499.884C225.028 500.796 223.996 501.252 222.784 501.252C221.524 501.252 220.552 500.814 219.868 499.938V501H217.546V488.4H219.868V493.062C220.552 492.186 221.524 491.748 222.784 491.748ZM220.57 498.336C221.038 498.804 221.632 499.038 222.352 499.038C223.072 499.038 223.666 498.804 224.134 498.336C224.614 497.856 224.854 497.244 224.854 496.5C224.854 495.756 224.614 495.15 224.134 494.682C223.666 494.202 223.072 493.962 222.352 493.962C221.632 493.962 221.038 494.202 220.57 494.682C220.102 495.15 219.868 495.756 219.868 496.5C219.868 497.244 220.102 497.856 220.57 498.336ZM236.482 499.884C235.558 500.796 234.43 501.252 233.098 501.252C231.766 501.252 230.638 500.796 229.714 499.884C228.802 498.96 228.346 497.832 228.346 496.5C228.346 495.168 228.802 494.046 229.714 493.134C230.638 492.21 231.766 491.748 233.098 491.748C234.43 491.748 235.558 492.21 236.482 493.134C237.406 494.046 237.868 495.168 237.868 496.5C237.868 497.832 237.406 498.96 236.482 499.884ZM231.352 498.282C231.82 498.75 232.402 498.984 233.098 498.984C233.794 498.984 234.376 498.75 234.844 498.282C235.312 497.814 235.546 497.22 235.546 496.5C235.546 495.78 235.312 495.186 234.844 494.718C234.376 494.25 233.794 494.016 233.098 494.016C232.402 494.016 231.82 494.25 231.352 494.718C230.896 495.186 230.668 495.78 230.668 496.5C230.668 497.22 230.896 497.814 231.352 498.282ZM246.323 488.4H248.645V501H246.323V499.938C245.639 500.814 244.667 501.252 243.407 501.252C242.195 501.252 241.157 500.796 240.293 499.884C239.441 498.96 239.015 497.832 239.015 496.5C239.015 495.168 239.441 494.046 240.293 493.134C241.157 492.21 242.195 491.748 243.407 491.748C244.667 491.748 245.639 492.186 246.323 493.062V488.4ZM242.039 498.336C242.519 498.804 243.119 499.038 243.839 499.038C244.559 499.038 245.153 498.804 245.621 498.336C246.089 497.856 246.323 497.244 246.323 496.5C246.323 495.756 246.089 495.15 245.621 494.682C245.153 494.202 244.559 493.962 243.839 493.962C243.119 493.962 242.519 494.202 242.039 494.682C241.571 495.15 241.337 495.756 241.337 496.5C241.337 497.244 241.571 497.856 242.039 498.336ZM256.637 492H259.121L255.845 501C255.377 502.296 254.753 503.232 253.973 503.808C253.205 504.396 252.245 504.66 251.093 504.6V502.44C251.717 502.452 252.209 502.32 252.569 502.044C252.941 501.768 253.235 501.324 253.451 500.712L249.761 492H252.299L254.639 498.048L256.637 492ZM269.604 496.014V494.862H278.604V496.014H269.604ZM46.984 519.374C47.968 519.734 48.46 520.436 48.46 521.48C48.46 522.212 48.214 522.818 47.722 523.298C47.242 523.766 46.546 524 45.634 524H41.26V515H45.274C46.15 515 46.828 515.228 47.308 515.684C47.788 516.128 48.028 516.704 48.028 517.412C48.028 518.312 47.68 518.966 46.984 519.374ZM45.274 516.152H42.448V518.888H45.274C46.318 518.888 46.84 518.42 46.84 517.484C46.84 517.064 46.702 516.74 46.426 516.512C46.162 516.272 45.778 516.152 45.274 516.152ZM45.634 522.848C46.162 522.848 46.564 522.722 46.84 522.47C47.128 522.218 47.272 521.864 47.272 521.408C47.272 520.988 47.128 520.658 46.84 520.418C46.564 520.166 46.162 520.04 45.634 520.04H42.448V522.848H45.634ZM54.454 524.216C53.098 524.216 51.97 523.766 51.07 522.866C50.17 521.954 49.72 520.832 49.72 519.5C49.72 518.168 50.17 517.052 51.07 516.152C51.97 515.24 53.098 514.784 54.454 514.784C55.342 514.784 56.14 515 56.848 515.432C57.556 515.852 58.072 516.422 58.396 517.142L57.424 517.7C57.184 517.16 56.794 516.734 56.254 516.422C55.726 516.098 55.126 515.936 54.454 515.936C53.458 515.936 52.618 516.284 51.934 516.98C51.25 517.664 50.908 518.504 50.908 519.5C50.908 520.496 51.25 521.342 51.934 522.038C52.618 522.722 53.458 523.064 54.454 523.064C55.126 523.064 55.726 522.908 56.254 522.596C56.782 522.272 57.196 521.84 57.496 521.3L58.486 521.876C58.114 522.596 57.568 523.166 56.848 523.586C56.128 524.006 55.33 524.216 54.454 524.216ZM66.4959 515V516.152H63.3099V524H62.1219V516.152H58.9359V515H66.4959ZM72.7676 514.784C74.0516 514.784 75.1436 515.24 76.0436 516.152C76.9556 517.064 77.4116 518.18 77.4116 519.5C77.4116 520.82 76.9556 521.936 76.0436 522.848C75.1436 523.76 74.0516 524.216 72.7676 524.216C71.1716 524.216 69.9596 523.556 69.1316 522.236V527.6H67.9436V515H69.1316V516.764C69.9596 515.444 71.1716 514.784 72.7676 514.784ZM70.1576 522.038C70.8416 522.722 71.6816 523.064 72.6776 523.064C73.6736 523.064 74.5136 522.722 75.1976 522.038C75.8816 521.342 76.2236 520.496 76.2236 519.5C76.2236 518.504 75.8816 517.664 75.1976 516.98C74.5136 516.284 73.6736 515.936 72.6776 515.936C71.6816 515.936 70.8416 516.284 70.1576 516.98C69.4736 517.664 69.1316 518.504 69.1316 519.5C69.1316 520.496 69.4736 521.342 70.1576 522.038ZM83.545 514.784C84.877 514.784 85.951 515.258 86.767 516.206C87.595 517.142 88.009 518.252 88.009 519.536C88.009 519.668 87.997 519.854 87.973 520.094H80.071C80.191 521.006 80.575 521.732 81.223 522.272C81.883 522.8 82.693 523.064 83.653 523.064C84.337 523.064 84.925 522.926 85.417 522.65C85.921 522.362 86.299 521.99 86.551 521.534L87.595 522.146C87.199 522.782 86.659 523.286 85.975 523.658C85.291 524.03 84.511 524.216 83.635 524.216C82.219 524.216 81.067 523.772 80.179 522.884C79.291 521.996 78.847 520.868 78.847 519.5C78.847 518.156 79.285 517.034 80.161 516.134C81.037 515.234 82.165 514.784 83.545 514.784ZM83.545 515.936C82.609 515.936 81.823 516.218 81.187 516.782C80.563 517.334 80.191 518.054 80.071 518.942H86.785C86.665 517.994 86.299 517.256 85.687 516.728C85.075 516.2 84.361 515.936 83.545 515.936ZM96.0271 515V516.152H92.8411V524H91.6531V516.152H88.4671V515H96.0271ZM104.027 515H105.035V524H103.847V517.07L98.4828 524H97.4748V515H98.6628V521.93L104.027 515ZM114.027 515V516.152H110.841V524H109.653V516.152H106.467V515H114.027ZM119.129 518.42C119.969 518.42 120.677 518.684 121.253 519.212C121.841 519.728 122.135 520.394 122.135 521.21C122.135 522.026 121.841 522.698 121.253 523.226C120.677 523.742 119.969 524 119.129 524H115.475V515H116.663V518.42H119.129ZM119.129 522.848C119.633 522.848 120.059 522.698 120.407 522.398C120.767 522.098 120.947 521.702 120.947 521.21C120.947 520.718 120.767 520.322 120.407 520.022C120.059 519.722 119.633 519.572 119.129 519.572H116.663V522.848H119.129ZM125.734 522.47L124.654 526.52H123.574L124.294 522.47H125.734ZM138.95 515H140.138V524H138.95V520.076H133.766V524H132.578V515H133.766V518.924H138.95V515ZM150.391 515H151.579V524H150.391V522.236C149.563 523.556 148.351 524.216 146.755 524.216C145.471 524.216 144.373 523.76 143.461 522.848C142.561 521.936 142.111 520.82 142.111 519.5C142.111 518.18 142.561 517.064 143.461 516.152C144.373 515.24 145.471 514.784 146.755 514.784C148.351 514.784 149.563 515.444 150.391 516.764V515ZM144.325 522.038C145.009 522.722 145.849 523.064 146.845 523.064C147.841 523.064 148.681 522.722 149.365 522.038C150.049 521.342 150.391 520.496 150.391 519.5C150.391 518.504 150.049 517.664 149.365 516.98C148.681 516.284 147.841 515.936 146.845 515.936C145.849 515.936 145.009 516.284 144.325 516.98C143.641 517.664 143.299 518.504 143.299 519.5C143.299 520.496 143.641 521.342 144.325 522.038ZM160.574 515V516.152H157.388V524H156.2V516.152H153.014V515H160.574ZM169.564 522.866C168.652 523.766 167.536 524.216 166.216 524.216C164.896 524.216 163.774 523.766 162.85 522.866C161.938 521.954 161.482 520.832 161.482 519.5C161.482 518.168 161.938 517.052 162.85 516.152C163.774 515.24 164.896 514.784 166.216 514.784C167.536 514.784 168.652 515.24 169.564 516.152C170.488 517.052 170.95 518.168 170.95 519.5C170.95 520.832 170.488 521.954 169.564 522.866ZM163.696 522.038C164.38 522.722 165.22 523.064 166.216 523.064C167.212 523.064 168.052 522.722 168.736 522.038C169.42 521.342 169.762 520.496 169.762 519.5C169.762 518.504 169.42 517.664 168.736 516.98C168.052 516.284 167.212 515.936 166.216 515.936C165.22 515.936 164.38 516.284 163.696 516.98C163.012 517.664 162.67 518.504 162.67 519.5C162.67 520.496 163.012 521.342 163.696 522.038ZM179.966 515V524H178.778V516.152H174.71V520.166C174.71 521.666 174.422 522.698 173.846 523.262C173.282 523.826 172.502 524.072 171.506 524V522.884C172.19 522.956 172.694 522.794 173.018 522.398C173.354 522.002 173.522 521.258 173.522 520.166V515H179.966ZM189.755 524H188.171L183.671 519.662V524H182.483V515H183.671V518.978L187.955 515H189.575L184.931 519.32L189.755 524ZM197.749 515H198.937V524H197.749V520.076H192.565V524H191.377V515H192.565V518.924H197.749V515ZM207.929 515H209.189L205.337 524.828C204.989 525.716 204.491 526.412 203.843 526.916C203.207 527.432 202.493 527.66 201.701 527.6V526.484C202.781 526.604 203.603 525.98 204.167 524.612L204.401 524.054L200.369 515H201.629L205.013 522.542L207.929 515ZM217.105 515V516.152H213.919V524H212.731V516.152H209.545V515H217.105ZM222.207 518.42C223.047 518.42 223.755 518.684 224.331 519.212C224.919 519.728 225.213 520.394 225.213 521.21C225.213 522.026 224.919 522.698 224.331 523.226C223.755 523.742 223.047 524 222.207 524H218.553V515H219.741V518.42H222.207ZM222.207 522.848C222.711 522.848 223.137 522.698 223.485 522.398C223.845 522.098 224.025 521.702 224.025 521.21C224.025 520.718 223.845 520.322 223.485 520.022C223.137 519.722 222.711 519.572 222.207 519.572H219.741V522.848H222.207ZM231.114 524.216C229.758 524.216 228.63 523.766 227.73 522.866C226.83 521.954 226.38 520.832 226.38 519.5C226.38 518.168 226.83 517.052 227.73 516.152C228.63 515.24 229.758 514.784 231.114 514.784C232.002 514.784 232.8 515 233.508 515.432C234.216 515.852 234.732 516.422 235.056 517.142L234.084 517.7C233.844 517.16 233.454 516.734 232.914 516.422C232.386 516.098 231.786 515.936 231.114 515.936C230.118 515.936 229.278 516.284 228.594 516.98C227.91 517.664 227.568 518.504 227.568 519.5C227.568 520.496 227.91 521.342 228.594 522.038C229.278 522.722 230.118 523.064 231.114 523.064C231.786 523.064 232.386 522.908 232.914 522.596C233.442 522.272 233.856 521.84 234.156 521.3L235.146 521.876C234.774 522.596 234.228 523.166 233.508 523.586C232.788 524.006 231.99 524.216 231.114 524.216ZM243.156 515V524H241.968V520.544H240.42L237.648 524H236.136L238.98 520.508C238.26 520.4 237.666 520.1 237.198 519.608C236.73 519.116 236.496 518.51 236.496 517.79C236.496 516.974 236.784 516.308 237.36 515.792C237.948 515.264 238.662 515 239.502 515H243.156ZM239.502 519.428H241.968V516.152H239.502C238.998 516.152 238.566 516.302 238.206 516.602C237.858 516.902 237.684 517.298 237.684 517.79C237.684 518.282 237.858 518.678 238.206 518.978C238.566 519.278 238.998 519.428 239.502 519.428ZM256.548 515H257.736V524H256.548V520.076H251.364V524H250.176V515H251.364V518.924H256.548V515ZM267.988 515H269.176V524H267.988V522.236C267.16 523.556 265.948 524.216 264.352 524.216C263.068 524.216 261.97 523.76 261.058 522.848C260.158 521.936 259.708 520.82 259.708 519.5C259.708 518.18 260.158 517.064 261.058 516.152C261.97 515.24 263.068 514.784 264.352 514.784C265.948 514.784 267.16 515.444 267.988 516.764V515ZM261.922 522.038C262.606 522.722 263.446 523.064 264.442 523.064C265.438 523.064 266.278 522.722 266.962 522.038C267.646 521.342 267.988 520.496 267.988 519.5C267.988 518.504 267.646 517.664 266.962 516.98C266.278 516.284 265.438 515.936 264.442 515.936C263.446 515.936 262.606 516.284 261.922 516.98C261.238 517.664 260.896 518.504 260.896 519.5C260.896 520.496 261.238 521.342 261.922 522.038ZM283.464 524H281.88L277.38 519.662V524H276.192V515H277.38V518.978L281.664 515H283.284L278.64 519.32L283.464 524ZM291.732 522.866C290.82 523.766 289.704 524.216 288.384 524.216C287.064 524.216 285.942 523.766 285.018 522.866C284.106 521.954 283.65 520.832 283.65 519.5C283.65 518.168 284.106 517.052 285.018 516.152C285.942 515.24 287.064 514.784 288.384 514.784C289.704 514.784 290.82 515.24 291.732 516.152C292.656 517.052 293.118 518.168 293.118 519.5C293.118 520.832 292.656 521.954 291.732 522.866ZM285.864 522.038C286.548 522.722 287.388 523.064 288.384 523.064C289.38 523.064 290.22 522.722 290.904 522.038C291.588 521.342 291.93 520.496 291.93 519.5C291.93 518.504 291.588 517.664 290.904 516.98C290.22 516.284 289.38 515.936 288.384 515.936C287.388 515.936 286.548 516.284 285.864 516.98C285.18 517.664 284.838 518.504 284.838 519.5C284.838 520.496 285.18 521.342 285.864 522.038ZM300.866 515V516.152H296.294V524H295.106V515H300.866ZM309.503 522.866C308.591 523.766 307.475 524.216 306.155 524.216C304.835 524.216 303.713 523.766 302.789 522.866C301.877 521.954 301.421 520.832 301.421 519.5C301.421 518.168 301.877 517.052 302.789 516.152C303.713 515.24 304.835 514.784 306.155 514.784C307.475 514.784 308.591 515.24 309.503 516.152C310.427 517.052 310.889 518.168 310.889 519.5C310.889 520.832 310.427 521.954 309.503 522.866ZM303.635 522.038C304.319 522.722 305.159 523.064 306.155 523.064C307.151 523.064 307.991 522.722 308.675 522.038C309.359 521.342 309.701 520.496 309.701 519.5C309.701 518.504 309.359 517.664 308.675 516.98C307.991 516.284 307.151 515.936 306.155 515.936C305.159 515.936 304.319 516.284 303.635 516.98C302.951 517.664 302.609 518.504 302.609 519.5C302.609 520.496 302.951 521.342 303.635 522.038ZM313.057 519.014V517.862H319.537V519.014H313.057ZM328.164 515V516.152H324.978V524H323.79V516.152H320.604V515H328.164ZM336.802 522.866C335.89 523.766 334.774 524.216 333.454 524.216C332.134 524.216 331.012 523.766 330.088 522.866C329.176 521.954 328.72 520.832 328.72 519.5C328.72 518.168 329.176 517.052 330.088 516.152C331.012 515.24 332.134 514.784 333.454 514.784C334.774 514.784 335.89 515.24 336.802 516.152C337.726 517.052 338.188 518.168 338.188 519.5C338.188 520.832 337.726 521.954 336.802 522.866ZM330.934 522.038C331.618 522.722 332.458 523.064 333.454 523.064C334.45 523.064 335.29 522.722 335.974 522.038C336.658 521.342 337 520.496 337 519.5C337 518.504 336.658 517.664 335.974 516.98C335.29 516.284 334.45 515.936 333.454 515.936C332.458 515.936 331.618 516.284 330.934 516.98C330.25 517.664 329.908 518.504 329.908 519.5C329.908 520.496 330.25 521.342 330.934 522.038Z" fill="#FFF5D7" fill-opacity="0.6"></path><path d="M47.296 84.136L60.8 101H65.952V78.6H61.536V95.464L48.032 78.6H42.88V101H47.296V84.136ZM80.4918 97.768C77.4838 97.768 75.1478 96.456 74.5398 94.12H88.2998C88.4918 93.384 88.5878 92.648 88.5878 91.944C88.5878 87.624 84.9398 84.456 80.0758 84.456C74.7318 84.456 70.1878 87.656 70.1878 93C70.1878 97.8 74.1238 101.576 80.0758 101.576C83.0198 101.576 86.0278 100.584 88.1718 99.496L86.9237 96.168C84.6518 97.352 82.6678 97.768 80.4918 97.768ZM79.8198 88.008C82.3158 88.008 83.9158 89.128 84.3318 91.016H74.6358C75.2758 89.064 77.0677 88.008 79.8198 88.008ZM94.39 85H89.75L97.302 101H101.942L109.526 85H104.822L99.638 96.232L94.39 85ZM121.179 97.768C118.171 97.768 115.835 96.456 115.227 94.12H128.987C129.179 93.384 129.275 92.648 129.275 91.944C129.275 87.624 125.627 84.456 120.763 84.456C115.419 84.456 110.875 87.656 110.875 93C110.875 97.8 114.811 101.576 120.763 101.576C123.707 101.576 126.715 100.584 128.859 99.496L127.611 96.168C125.339 97.352 123.355 97.768 121.179 97.768ZM120.507 88.008C123.003 88.008 124.603 89.128 125.019 91.016H115.323C115.963 89.064 117.755 88.008 120.507 88.008ZM142.982 84.456C140.198 84.456 137.99 86.824 137.062 88.552V85H132.838V101H137.062V93.064C137.062 90.12 139.91 88.392 142.566 88.392C143.174 88.392 144.006 88.584 144.774 88.936L145.67 85.096C144.87 84.712 143.878 84.456 142.982 84.456ZM166.436 88.424C168.964 88.424 170.276 89.992 170.276 92.264V101H174.5V91.752C174.5 87.4 172.004 84.52 167.652 84.52C164.612 84.52 162.244 86.472 161.124 88.552V77.288H156.9V101H161.124V93.064C161.124 89.896 163.78 88.424 166.436 88.424ZM184.75 91.88C181.454 91.88 178.19 93.352 178.19 96.776C178.19 99.656 180.43 101.64 183.438 101.64C186.158 101.64 188.59 100.168 190.126 98.344C190.19 100.136 191.086 101.64 193.23 101.64C194.542 101.64 196.462 101 198.222 100.04L197.358 96.776C196.43 97.256 195.598 97.608 195.118 97.608C194.67 97.608 194.35 97.32 194.35 96.84V91.08C194.35 86.696 191.79 84.36 187.406 84.36C184.878 84.36 181.518 85.352 179.534 85.992L180.59 89.832C182.926 88.968 185.358 88.232 187.022 88.232C189.038 88.232 190.126 89.352 190.126 91.016V92.872C188.75 92.392 186.478 91.88 184.75 91.88ZM184.814 98.024C183.47 98.024 182.51 97.48 182.51 96.424C182.51 95.272 183.566 94.6 184.974 94.6C186.51 94.6 188.366 94.76 190.126 95.08V95.688C188.622 97.16 186.414 98.024 184.814 98.024ZM202.859 85H198.219L205.771 101H210.411L217.995 85H213.291L208.107 96.232L202.859 85ZM229.648 97.768C226.64 97.768 224.304 96.456 223.696 94.12H237.456C237.648 93.384 237.744 92.648 237.744 91.944C237.744 87.624 234.096 84.456 229.232 84.456C223.888 84.456 219.344 87.656 219.344 93C219.344 97.8 223.28 101.576 229.232 101.576C232.176 101.576 235.184 100.584 237.328 99.496L236.08 96.168C233.808 97.352 231.824 97.768 229.648 97.768ZM228.976 88.008C231.472 88.008 233.072 89.128 233.488 91.016H223.792C224.432 89.064 226.224 88.008 228.976 88.008ZM255.265 78.6H250.849V101H255.265V78.6ZM278.867 97.768C275.859 97.768 273.523 96.456 272.915 94.12H286.675C286.867 93.384 286.963 92.648 286.963 91.944C286.963 87.624 283.315 84.456 278.451 84.456C273.107 84.456 268.563 87.656 268.563 93C268.563 97.8 272.499 101.576 278.451 101.576C281.395 101.576 284.403 100.584 286.547 99.496L285.299 96.168C283.027 97.352 281.043 97.768 278.867 97.768ZM278.195 88.008C280.691 88.008 282.291 89.128 282.707 91.016H273.011C273.651 89.064 275.443 88.008 278.195 88.008ZM292.765 85H288.125L295.677 101H300.317L307.901 85H303.197L298.013 96.232L292.765 85ZM319.554 97.768C316.546 97.768 314.21 96.456 313.602 94.12H327.362C327.554 93.384 327.65 92.648 327.65 91.944C327.65 87.624 324.002 84.456 319.138 84.456C313.794 84.456 309.25 87.656 309.25 93C309.25 97.8 313.186 101.576 319.138 101.576C322.082 101.576 325.09 100.584 327.234 99.496L325.986 96.168C323.714 97.352 321.73 97.768 319.554 97.768ZM318.882 88.008C321.378 88.008 322.978 89.128 323.394 91.016H313.698C314.338 89.064 316.13 88.008 318.882 88.008ZM341.357 84.456C338.573 84.456 336.365 86.824 335.437 88.552V85H331.213V101H335.437V93.064C335.437 90.12 338.285 88.392 340.941 88.392C341.549 88.392 342.381 88.584 343.149 88.936L344.045 85.096C343.245 84.712 342.253 84.456 341.357 84.456ZM51.232 124.456C45.888 124.456 41.344 127.656 41.344 133C41.344 137.8 44.992 141.576 50.944 141.576C53.952 141.576 56.704 140.648 58.88 139.496L57.632 136.168C55.52 137.096 53.824 137.768 51.488 137.768C48.16 137.768 45.6 135.912 45.6 132.84C45.6 129.928 47.904 128.168 50.976 128.168C53.152 128.168 55.008 128.616 57.216 129.512L58.24 125.736C56.32 125.064 53.888 124.456 51.232 124.456ZM72.2315 124.456C69.4475 124.456 67.2395 126.824 66.3115 128.552V125H62.0875V141H66.3115V133.064C66.3115 130.12 69.1595 128.392 71.8155 128.392C72.4235 128.392 73.2555 128.584 74.0235 128.936L74.9195 125.096C74.1195 124.712 73.1275 124.456 72.2315 124.456ZM85.9835 124.456C80.6395 124.456 76.0315 127.496 76.0315 132.84C76.0315 137.64 80.1915 141.576 85.9835 141.576C91.7755 141.576 95.9355 137.64 95.9355 132.84C95.9355 127.496 91.3275 124.456 85.9835 124.456ZM85.9835 128.136C89.3115 128.136 91.6795 129.864 91.6795 132.84C91.6795 135.528 89.1515 137.928 85.9835 137.928C82.8155 137.928 80.2875 135.528 80.2875 132.84C80.2875 129.864 82.6555 128.136 85.9835 128.136ZM113.825 125.576C111.937 124.936 108.961 124.392 106.433 124.392C101.889 124.392 98.6573 126.376 98.6573 129.512C98.6573 135.752 110.561 133.64 110.561 136.168C110.561 137.288 108.961 137.928 106.657 137.928C104.193 137.928 101.697 137.16 99.5853 136.232L98.3372 139.56C100.513 140.712 103.489 141.64 106.497 141.64C110.401 141.64 114.721 139.624 114.721 136.04C114.721 129.8 102.817 132.008 102.817 129.352C102.817 128.392 104.481 128.072 106.593 128.072C108.641 128.072 110.625 128.488 112.705 129.288L113.825 125.576ZM132.544 125.576C130.656 124.936 127.68 124.392 125.152 124.392C120.608 124.392 117.376 126.376 117.376 129.512C117.376 135.752 129.28 133.64 129.28 136.168C129.28 137.288 127.68 137.928 125.376 137.928C122.912 137.928 120.416 137.16 118.304 136.232L117.056 139.56C119.232 140.712 122.208 141.64 125.216 141.64C129.12 141.64 133.44 139.624 133.44 136.04C133.44 129.8 121.536 132.008 121.536 129.352C121.536 128.392 123.2 128.072 125.312 128.072C127.36 128.072 129.344 128.488 131.424 129.288L132.544 125.576ZM146.367 137.768C143.359 137.768 141.023 136.456 140.415 134.12H154.175C154.367 133.384 154.463 132.648 154.463 131.944C154.463 127.624 150.815 124.456 145.951 124.456C140.607 124.456 136.063 127.656 136.063 133C136.063 137.8 139.999 141.576 145.951 141.576C148.895 141.576 151.903 140.584 154.047 139.496L152.799 136.168C150.527 137.352 148.543 137.768 146.367 137.768ZM145.695 128.008C148.191 128.008 149.791 129.128 150.207 131.016H140.511C141.151 129.064 142.943 128.008 145.695 128.008ZM165.033 141.544C168.297 141.544 170.857 139.656 171.913 137.448V141H176.137V117H171.913V125.576C170.313 125.064 168.105 124.424 166.377 124.424C161.001 124.424 156.969 128.36 156.969 133.16C156.969 138.344 160.649 141.544 165.033 141.544ZM166.281 137.608C163.433 137.608 161.225 136.008 161.225 133.128C161.225 130.312 163.433 128.136 166.313 128.136C168.265 128.136 170.057 128.552 171.913 129.096V132.552C171.913 135.624 169.097 137.608 166.281 137.608ZM188.234 128.68H191.274V134.888C191.274 138.92 193.418 141.544 197.386 141.544C199.082 141.544 201.354 140.808 202.698 140.104L201.77 136.488C200.746 137.128 199.338 137.64 198.09 137.64C196.426 137.64 195.498 136.456 195.498 134.728V128.68H202.154V125H195.498V120.2H191.978L191.402 125.128L188.234 125.32V128.68ZM215.436 128.424C217.964 128.424 219.276 129.992 219.276 132.264V141H223.5V131.752C223.5 127.4 221.004 124.52 216.652 124.52C213.612 124.52 211.244 126.472 210.124 128.552V117.288H205.9V141H210.124V133.064C210.124 129.896 212.78 128.424 215.436 128.424ZM237.398 137.768C234.39 137.768 232.054 136.456 231.446 134.12H245.206C245.398 133.384 245.494 132.648 245.494 131.944C245.494 127.624 241.846 124.456 236.982 124.456C231.638 124.456 227.094 127.656 227.094 133C227.094 137.8 231.03 141.576 236.982 141.576C239.926 141.576 242.934 140.584 245.078 139.496L243.83 136.168C241.558 137.352 239.574 137.768 237.398 137.768ZM236.726 128.008C239.222 128.008 240.822 129.128 241.238 131.016H231.542C232.182 129.064 233.974 128.008 236.726 128.008ZM268.263 124.456C265.479 124.456 263.271 126.824 262.343 128.552V125H258.119V141H262.343V133.064C262.343 130.12 265.191 128.392 267.847 128.392C268.455 128.392 269.287 128.584 270.055 128.936L270.951 125.096C270.151 124.712 269.159 124.456 268.263 124.456ZM282.015 124.456C276.671 124.456 272.063 127.496 272.063 132.84C272.063 137.64 276.223 141.576 282.015 141.576C287.807 141.576 291.967 137.64 291.967 132.84C291.967 127.496 287.359 124.456 282.015 124.456ZM282.015 128.136C285.343 128.136 287.711 129.864 287.711 132.84C287.711 135.528 285.183 137.928 282.015 137.928C278.847 137.928 276.319 135.528 276.319 132.84C276.319 129.864 278.687 128.136 282.015 128.136ZM301.312 131.88C298.016 131.88 294.753 133.352 294.753 136.776C294.753 139.656 296.993 141.64 300.001 141.64C302.72 141.64 305.153 140.168 306.689 138.344C306.753 140.136 307.649 141.64 309.793 141.64C311.105 141.64 313.025 141 314.785 140.04L313.921 136.776C312.993 137.256 312.161 137.608 311.681 137.608C311.233 137.608 310.913 137.32 310.913 136.84V131.08C310.913 126.696 308.353 124.36 303.969 124.36C301.441 124.36 298.081 125.352 296.097 125.992L297.153 129.832C299.489 128.968 301.921 128.232 303.585 128.232C305.601 128.232 306.689 129.352 306.689 131.016V132.872C305.313 132.392 303.041 131.88 301.312 131.88ZM301.377 138.024C300.033 138.024 299.073 137.48 299.073 136.424C299.073 135.272 300.129 134.6 301.536 134.6C303.073 134.6 304.929 134.76 306.689 135.08V135.688C305.185 137.16 302.977 138.024 301.377 138.024ZM324.189 141.544C327.453 141.544 330.013 139.656 331.069 137.448V141H335.293V117H331.069V125.576C329.469 125.064 327.261 124.424 325.533 124.424C320.157 124.424 316.125 128.36 316.125 133.16C316.125 138.344 319.805 141.544 324.189 141.544ZM325.437 137.608C322.589 137.608 320.381 136.008 320.381 133.128C320.381 130.312 322.589 128.136 325.469 128.136C327.421 128.136 329.213 128.552 331.069 129.096V132.552C331.069 135.624 328.253 137.608 325.437 137.608ZM51.296 164.456C45.952 164.456 41.344 167.496 41.344 172.84C41.344 177.64 45.504 181.576 51.296 181.576C57.088 181.576 61.248 177.64 61.248 172.84C61.248 167.496 56.64 164.456 51.296 164.456ZM51.296 168.136C54.624 168.136 56.992 169.864 56.992 172.84C56.992 175.528 54.464 177.928 51.296 177.928C48.128 177.928 45.6 175.528 45.6 172.84C45.6 169.864 47.968 168.136 51.296 168.136ZM75.1378 164.456C72.3538 164.456 70.1458 166.824 69.2178 168.552V165H64.9938V181H69.2178V173.064C69.2178 170.12 72.0658 168.392 74.7218 168.392C75.3298 168.392 76.1618 168.584 76.9298 168.936L77.8258 165.096C77.0258 164.712 76.0338 164.456 75.1378 164.456ZM97.8883 164.456C92.5443 164.456 88.0003 167.656 88.0003 173C88.0003 177.8 91.6483 181.576 97.6003 181.576C100.608 181.576 103.36 180.648 105.536 179.496L104.288 176.168C102.176 177.096 100.48 177.768 98.1443 177.768C94.8163 177.768 92.2563 175.912 92.2563 172.84C92.2563 169.928 94.5603 168.168 97.6323 168.168C99.8083 168.168 101.664 168.616 103.872 169.512L104.896 165.736C102.976 165.064 100.544 164.456 97.8883 164.456ZM118.28 168.424C120.808 168.424 122.12 169.992 122.12 172.264V181H126.344V171.752C126.344 167.4 123.848 164.52 119.496 164.52C116.456 164.52 114.088 166.472 112.968 168.552V157.288H108.744V181H112.968V173.064C112.968 169.896 115.624 168.424 118.28 168.424ZM136.594 171.88C133.298 171.88 130.034 173.352 130.034 176.776C130.034 179.656 132.274 181.64 135.282 181.64C138.002 181.64 140.434 180.168 141.97 178.344C142.034 180.136 142.93 181.64 145.074 181.64C146.386 181.64 148.306 181 150.066 180.04L149.202 176.776C148.274 177.256 147.442 177.608 146.962 177.608C146.514 177.608 146.194 177.32 146.194 176.84V171.08C146.194 166.696 143.634 164.36 139.25 164.36C136.722 164.36 133.362 165.352 131.378 165.992L132.434 169.832C134.77 168.968 137.202 168.232 138.866 168.232C140.882 168.232 141.97 169.352 141.97 171.016V172.872C140.594 172.392 138.322 171.88 136.594 171.88ZM136.658 178.024C135.314 178.024 134.354 177.48 134.354 176.424C134.354 175.272 135.41 174.6 136.818 174.6C138.354 174.6 140.21 174.76 141.97 175.08V175.688C140.466 177.16 138.258 178.024 136.658 178.024ZM161.999 168.424C164.527 168.424 165.839 169.992 165.839 172.264V181H170.062V171.752C170.062 167.4 167.567 164.52 163.215 164.52C160.175 164.52 157.807 166.472 156.687 168.552V165H152.463V181H156.687V173.064C156.687 169.896 159.343 168.424 161.999 168.424ZM180.409 178.888C179.353 178.888 178.809 178.504 178.809 177.96C178.809 177.512 179.225 177.192 179.609 177.096C180.345 177.224 181.145 177.288 181.945 177.288C186.777 177.288 190.297 174.536 190.297 170.888C190.297 169.8 190.009 168.84 189.561 168.04C190.329 167.656 191.225 167.432 192.345 167.304L191.577 163.368C189.529 163.72 187.929 164.488 186.713 165.48C185.337 164.808 183.673 164.456 181.945 164.456C177.561 164.456 173.625 166.664 173.625 170.888C173.625 172.616 175.001 174.376 176.473 175.336C175.673 175.848 174.745 176.68 174.745 177.736C174.745 178.76 175.417 179.88 176.281 180.296C174.681 180.712 172.985 182.28 172.985 183.976C172.985 187.336 176.761 189.096 182.585 189.096C188.057 189.096 192.089 187.304 192.089 183.656C192.089 180.328 188.057 178.888 182.585 178.888H180.409ZM181.913 167.944C184.185 167.944 185.913 168.936 185.913 170.76C185.913 172.264 184.345 173.512 181.913 173.512C179.609 173.512 177.881 172.36 177.881 170.76C177.881 168.936 179.609 167.944 181.913 167.944ZM182.521 182.472C185.817 182.472 187.993 182.92 187.993 184.008C187.993 185.192 185.817 185.64 182.521 185.64C179.001 185.64 177.049 185.128 177.049 183.976C177.049 183.336 177.657 182.792 178.361 182.504C178.905 182.472 181.881 182.472 182.521 182.472ZM204.148 177.768C201.14 177.768 198.804 176.456 198.196 174.12H211.956C212.148 173.384 212.244 172.648 212.244 171.944C212.244 167.624 208.596 164.456 203.732 164.456C198.388 164.456 193.844 167.656 193.844 173C193.844 177.8 197.78 181.576 203.732 181.576C206.676 181.576 209.684 180.584 211.828 179.496L210.58 176.168C208.308 177.352 206.324 177.768 204.148 177.768ZM203.476 168.008C205.972 168.008 207.572 169.128 207.988 171.016H198.292C198.932 169.064 200.724 168.008 203.476 168.008ZM222.814 181.544C226.078 181.544 228.638 179.656 229.694 177.448V181H233.918V157H229.694V165.576C228.094 165.064 225.886 164.424 224.158 164.424C218.782 164.424 214.75 168.36 214.75 173.16C214.75 178.344 218.43 181.544 222.814 181.544ZM224.062 177.608C221.214 177.608 219.006 176.008 219.006 173.128C219.006 170.312 221.214 168.136 224.094 168.136C226.046 168.136 227.838 168.552 229.694 169.096V172.552C229.694 175.624 226.878 177.608 224.062 177.608ZM49.408 221.544C52.672 221.544 55.232 219.656 56.288 217.448V221H60.512V197H56.288V205.576C54.688 205.064 52.48 204.424 50.752 204.424C45.376 204.424 41.344 208.36 41.344 213.16C41.344 218.344 45.024 221.544 49.408 221.544ZM50.656 217.608C47.808 217.608 45.6 216.008 45.6 213.128C45.6 210.312 47.808 208.136 50.688 208.136C52.64 208.136 54.432 208.552 56.288 209.096V212.552C56.288 215.624 53.472 217.608 50.656 217.608ZM69.5303 205H65.3703V221H69.5303V205ZM64.9223 200.392C64.9223 201.8 66.0423 202.92 67.4503 202.92C68.8583 202.92 69.9783 201.8 69.9783 200.392C69.9783 199.016 68.8583 197.896 67.4503 197.896C66.0423 197.896 64.9223 199.016 64.9223 200.392ZM84.544 204.456C81.76 204.456 79.552 206.824 78.624 208.552V205H74.4V221H78.624V213.064C78.624 210.12 81.472 208.392 84.128 208.392C84.736 208.392 85.568 208.584 86.336 208.936L87.232 205.096C86.432 204.712 85.44 204.456 84.544 204.456ZM98.648 217.768C95.64 217.768 93.304 216.456 92.696 214.12H106.456C106.648 213.384 106.744 212.648 106.744 211.944C106.744 207.624 103.096 204.456 98.232 204.456C92.888 204.456 88.344 207.656 88.344 213C88.344 217.8 92.28 221.576 98.232 221.576C101.176 221.576 104.184 220.584 106.328 219.496L105.08 216.168C102.808 217.352 100.824 217.768 98.648 217.768ZM97.976 208.008C100.472 208.008 102.072 209.128 102.488 211.016H92.792C93.432 209.064 95.224 208.008 97.976 208.008ZM119.138 204.456C113.794 204.456 109.25 207.656 109.25 213C109.25 217.8 112.898 221.576 118.85 221.576C121.858 221.576 124.61 220.648 126.786 219.496L125.538 216.168C123.426 217.096 121.73 217.768 119.394 217.768C116.066 217.768 113.506 215.912 113.506 212.84C113.506 209.928 115.81 208.168 118.882 208.168C121.058 208.168 122.914 208.616 125.122 209.512L126.146 205.736C124.226 205.064 121.794 204.456 119.138 204.456ZM128.234 208.68H131.274V214.888C131.274 218.92 133.418 221.544 137.386 221.544C139.082 221.544 141.354 220.808 142.698 220.104L141.77 216.488C140.746 217.128 139.338 217.64 138.09 217.64C136.426 217.64 135.498 216.456 135.498 214.728V208.68H142.154V205H135.498V200.2H131.978L131.402 205.128L128.234 205.32V208.68ZM150.124 205H145.964V221H150.124V205ZM145.516 200.392C145.516 201.8 146.636 202.92 148.044 202.92C149.452 202.92 150.572 201.8 150.572 200.392C150.572 199.016 149.452 197.896 148.044 197.896C146.636 197.896 145.516 199.016 145.516 200.392ZM163.89 204.456C158.546 204.456 153.938 207.496 153.938 212.84C153.938 217.64 158.098 221.576 163.89 221.576C169.682 221.576 173.842 217.64 173.842 212.84C173.842 207.496 169.234 204.456 163.89 204.456ZM163.89 208.136C167.218 208.136 169.586 209.864 169.586 212.84C169.586 215.528 167.058 217.928 163.89 217.928C160.722 217.928 158.194 215.528 158.194 212.84C158.194 209.864 160.562 208.136 163.89 208.136ZM187.124 208.424C189.652 208.424 190.964 209.992 190.964 212.264V221H195.188V211.752C195.188 207.4 192.692 204.52 188.34 204.52C185.3 204.52 182.932 206.472 181.812 208.552V205H177.588V221H181.812V213.064C181.812 209.896 184.468 208.424 187.124 208.424ZM219.876 204.456C216.708 204.456 214.18 206.344 213.124 208.552V197H208.9V219.4C210.98 220.328 215.332 221.576 218.532 221.576C223.78 221.576 227.812 217.64 227.812 212.84C227.812 207.656 224.132 204.456 219.876 204.456ZM218.628 208.392C221.412 208.392 223.556 209.96 223.556 212.84C223.556 215.528 221.22 217.864 218.596 217.864C216.644 217.864 214.98 217.544 213.124 216.936V213.064C213.124 210.12 215.94 208.392 218.628 208.392ZM240.804 217.768C237.796 217.768 235.46 216.456 234.852 214.12H248.612C248.804 213.384 248.9 212.648 248.9 211.944C248.9 207.624 245.252 204.456 240.388 204.456C235.044 204.456 230.5 207.656 230.5 213C230.5 217.8 234.436 221.576 240.388 221.576C243.332 221.576 246.34 220.584 248.484 219.496L247.236 216.168C244.964 217.352 242.98 217.768 240.804 217.768ZM240.132 208.008C242.628 208.008 244.228 209.128 244.644 211.016H234.948C235.588 209.064 237.38 208.008 240.132 208.008ZM261.295 204.456C255.951 204.456 251.407 207.656 251.407 213C251.407 217.8 255.055 221.576 261.007 221.576C264.015 221.576 266.767 220.648 268.943 219.496L267.694 216.168C265.583 217.096 263.887 217.768 261.551 217.768C258.223 217.768 255.663 215.912 255.663 212.84C255.663 209.928 257.967 208.168 261.039 208.168C263.215 208.168 265.071 208.616 267.279 209.512L268.303 205.736C266.383 205.064 263.951 204.456 261.295 204.456ZM277.75 211.88C274.454 211.88 271.19 213.352 271.19 216.776C271.19 219.656 273.43 221.64 276.438 221.64C279.158 221.64 281.59 220.168 283.126 218.344C283.19 220.136 284.086 221.64 286.23 221.64C287.542 221.64 289.462 221 291.222 220.04L290.358 216.776C289.43 217.256 288.598 217.608 288.118 217.608C287.67 217.608 287.35 217.32 287.35 216.84V211.08C287.35 206.696 284.79 204.36 280.406 204.36C277.878 204.36 274.518 205.352 272.534 205.992L273.59 209.832C275.926 208.968 278.358 208.232 280.022 208.232C282.038 208.232 283.126 209.352 283.126 211.016V212.872C281.75 212.392 279.478 211.88 277.75 211.88ZM277.814 218.024C276.47 218.024 275.51 217.48 275.51 216.424C275.51 215.272 276.566 214.6 277.974 214.6C279.51 214.6 281.366 214.76 283.126 215.08V215.688C281.622 217.16 279.414 218.024 277.814 218.024ZM300.179 221.512C303.091 221.512 305.555 219.752 306.707 217.48V221H310.931V205H306.707V212.744C306.707 216.136 304.435 217.608 301.747 217.608C299.219 217.608 297.683 216.328 297.683 213.736V205H293.459V214.28C293.459 218.632 295.891 221.512 300.179 221.512ZM329.888 205.576C328 204.936 325.024 204.392 322.496 204.392C317.952 204.392 314.72 206.376 314.72 209.512C314.72 215.752 326.624 213.64 326.624 216.168C326.624 217.288 325.024 217.928 322.72 217.928C320.256 217.928 317.76 217.16 315.648 216.232L314.4 219.56C316.576 220.712 319.552 221.64 322.56 221.64C326.464 221.64 330.784 219.624 330.784 216.04C330.784 209.8 318.88 212.008 318.88 209.352C318.88 208.392 320.544 208.072 322.656 208.072C324.704 208.072 326.688 208.488 328.768 209.288L329.888 205.576ZM343.711 217.768C340.703 217.768 338.367 216.456 337.759 214.12H351.519C351.711 213.384 351.807 212.648 351.807 211.944C351.807 207.624 348.159 204.456 343.295 204.456C337.951 204.456 333.407 207.656 333.407 213C333.407 217.8 337.343 221.576 343.295 221.576C346.239 221.576 349.247 220.584 351.391 219.496L350.142 216.168C347.871 217.352 345.887 217.768 343.711 217.768ZM343.039 208.008C345.535 208.008 347.135 209.128 347.551 211.016H337.855C338.495 209.064 340.286 208.008 343.039 208.008ZM47.296 238.6H42.88V261H47.296V238.6ZM75.794 245.576C73.906 244.936 70.93 244.392 68.402 244.392C63.858 244.392 60.626 246.376 60.626 249.512C60.626 255.752 72.53 253.64 72.53 256.168C72.53 257.288 70.93 257.928 68.626 257.928C66.162 257.928 63.666 257.16 61.554 256.232L60.306 259.56C62.482 260.712 65.458 261.64 68.466 261.64C72.37 261.64 76.69 259.624 76.69 256.04C76.69 249.8 64.786 252.008 64.786 249.352C64.786 248.392 66.45 248.072 68.562 248.072C70.61 248.072 72.594 248.488 74.674 249.288L75.794 245.576ZM85.9688 251.88C82.6727 251.88 79.4088 253.352 79.4088 256.776C79.4088 259.656 81.6488 261.64 84.6568 261.64C87.3767 261.64 89.8088 260.168 91.3448 258.344C91.4088 260.136 92.3048 261.64 94.4488 261.64C95.7608 261.64 97.6808 261 99.4408 260.04L98.5768 256.776C97.6488 257.256 96.8168 257.608 96.3368 257.608C95.8888 257.608 95.5688 257.32 95.5688 256.84V251.08C95.5688 246.696 93.0088 244.36 88.6248 244.36C86.0968 244.36 82.7368 245.352 80.7528 245.992L81.8088 249.832C84.1448 248.968 86.5768 248.232 88.2408 248.232C90.2568 248.232 91.3448 249.352 91.3448 251.016V252.872C89.9688 252.392 87.6968 251.88 85.9688 251.88ZM86.0328 258.024C84.6888 258.024 83.7288 257.48 83.7288 256.424C83.7288 255.272 84.7848 254.6 86.1927 254.6C87.7288 254.6 89.5848 254.76 91.3448 255.08V255.688C89.8408 257.16 87.6328 258.024 86.0328 258.024ZM120.078 261H124.366L131.374 245H126.894L122.222 255.976L117.582 245H113.166L108.526 256.008L103.886 245H99.3095L106.318 261H110.638L115.374 250.056L120.078 261ZM156.857 245.576C154.969 244.936 151.993 244.392 149.465 244.392C144.921 244.392 141.689 246.376 141.689 249.512C141.689 255.752 153.593 253.64 153.593 256.168C153.593 257.288 151.993 257.928 149.689 257.928C147.225 257.928 144.729 257.16 142.617 256.232L141.368 259.56C143.545 260.712 146.521 261.64 149.529 261.64C153.433 261.64 157.753 259.624 157.753 256.04C157.753 249.8 145.849 252.008 145.849 249.352C145.849 248.392 147.513 248.072 149.625 248.072C151.673 248.072 153.657 248.488 155.737 249.288L156.857 245.576ZM170.327 244.456C164.983 244.456 160.375 247.496 160.375 252.84C160.375 257.64 164.535 261.576 170.327 261.576C176.119 261.576 180.279 257.64 180.279 252.84C180.279 247.496 175.671 244.456 170.327 244.456ZM170.327 248.136C173.655 248.136 176.023 249.864 176.023 252.84C176.023 255.528 173.495 257.928 170.327 257.928C167.159 257.928 164.631 255.528 164.631 252.84C164.631 249.864 166.999 248.136 170.327 248.136ZM194.265 244.52C191.481 244.52 189.305 246.504 188.249 248.392V245H184.025V261H188.249V253.032C188.249 249.96 190.617 248.424 192.825 248.424C195.161 248.424 196.409 249.992 196.409 252.104V261H200.633V253.032C200.633 249.992 203.001 248.424 205.209 248.424C207.545 248.424 208.793 249.992 208.793 252.104V261H213.017V251.592C213.017 247.368 210.809 244.52 206.649 244.52C203.961 244.52 201.401 246.504 200.121 248.424C199.225 246.024 197.273 244.52 194.265 244.52ZM226.898 257.768C223.89 257.768 221.554 256.456 220.946 254.12H234.706C234.898 253.384 234.994 252.648 234.994 251.944C234.994 247.624 231.346 244.456 226.482 244.456C221.138 244.456 216.594 247.656 216.594 253C216.594 257.8 220.53 261.576 226.482 261.576C229.426 261.576 232.434 260.584 234.578 259.496L233.33 256.168C231.058 257.352 229.074 257.768 226.898 257.768ZM226.226 248.008C228.722 248.008 230.322 249.128 230.738 251.016H221.042C221.682 249.064 223.474 248.008 226.226 248.008ZM249.532 244.456C246.364 244.456 243.836 246.344 242.78 248.552V237H238.556V259.4C240.636 260.328 244.988 261.576 248.188 261.576C253.436 261.576 257.468 257.64 257.468 252.84C257.468 247.656 253.788 244.456 249.532 244.456ZM248.284 248.392C251.068 248.392 253.212 249.96 253.212 252.84C253.212 255.528 250.876 257.864 248.252 257.864C246.3 257.864 244.636 257.544 242.78 256.936V253.064C242.78 250.12 245.596 248.392 248.284 248.392ZM270.109 244.456C264.765 244.456 260.157 247.496 260.157 252.84C260.157 257.64 264.317 261.576 270.109 261.576C275.901 261.576 280.061 257.64 280.061 252.84C280.061 247.496 275.453 244.456 270.109 244.456ZM270.109 248.136C273.437 248.136 275.805 249.864 275.805 252.84C275.805 255.528 273.277 257.928 270.109 257.928C266.941 257.928 264.413 255.528 264.413 252.84C264.413 249.864 266.781 248.136 270.109 248.136ZM290.814 261.544C294.078 261.544 296.638 259.656 297.694 257.448V261H301.918V237H297.694V245.576C296.094 245.064 293.886 244.424 292.158 244.424C286.782 244.424 282.75 248.36 282.75 253.16C282.75 258.344 286.43 261.544 290.814 261.544ZM292.062 257.608C289.214 257.608 287.006 256.008 287.006 253.128C287.006 250.312 289.214 248.136 292.094 248.136C294.046 248.136 295.838 248.552 297.694 249.096V252.552C297.694 255.624 294.878 257.608 292.062 257.608ZM324.153 245H319.513C318.073 248.424 316.313 252.552 314.649 256.424L308.921 245H304.312L312.569 261.224C312.569 261.256 312.505 261.32 312.505 261.384C311.705 263.176 310.809 264.936 309.113 264.936C308.889 264.936 308.249 264.872 307.673 264.776L307.449 268.84C307.993 268.936 308.697 269 308.921 269C313.433 269 314.905 265.736 316.441 262.312L324.153 245ZM340.515 238.6H336.099V261H340.515V238.6ZM49.408 301.544C52.672 301.544 55.232 299.656 56.288 297.448V301H60.512V277H56.288V285.576C54.688 285.064 52.48 284.424 50.752 284.424C45.376 284.424 41.344 288.36 41.344 293.16C41.344 298.344 45.024 301.544 49.408 301.544ZM50.656 297.608C47.808 297.608 45.6 296.008 45.6 293.128C45.6 290.312 47.808 288.136 50.688 288.136C52.64 288.136 54.432 288.552 56.288 289.096V292.552C56.288 295.624 53.472 297.608 50.656 297.608ZM69.5303 285H65.3703V301H69.5303V285ZM64.9223 280.392C64.9223 281.8 66.0423 282.92 67.4503 282.92C68.8583 282.92 69.9783 281.8 69.9783 280.392C69.9783 279.016 68.8583 277.896 67.4503 277.896C66.0423 277.896 64.9223 279.016 64.9223 280.392ZM81.408 301.544C84.672 301.544 87.232 299.656 88.288 297.448V301H92.512V277H88.288V285.576C86.688 285.064 84.48 284.424 82.752 284.424C77.376 284.424 73.344 288.36 73.344 293.16C73.344 298.344 77.024 301.544 81.408 301.544ZM82.656 297.608C79.808 297.608 77.6 296.008 77.6 293.128C77.6 290.312 79.808 288.136 82.688 288.136C84.64 288.136 86.432 288.552 88.288 289.096V292.552C88.288 295.624 85.472 297.608 82.656 297.608ZM106.842 288.424C109.37 288.424 110.682 289.992 110.682 292.264V301H114.906V291.752C114.906 287.4 112.41 284.52 108.058 284.52C105.018 284.52 102.65 286.472 101.53 288.552V285H97.3063V301H101.53V293.064C101.53 289.896 104.186 288.424 106.842 288.424ZM119.172 278.792C119.172 279.912 119.972 280.84 121.06 281.064C120.932 282.504 120.164 283.656 119.044 284.616L120.74 286.568C122.916 284.936 124.356 281.992 124.356 279.688C124.356 277.928 123.556 276.36 121.7 276.36C120.292 276.36 119.172 277.448 119.172 278.792ZM126.796 288.68H129.836V294.888C129.836 298.92 131.98 301.544 135.948 301.544C137.644 301.544 139.916 300.808 141.26 300.104L140.332 296.488C139.308 297.128 137.9 297.64 136.652 297.64C134.988 297.64 134.06 296.456 134.06 294.728V288.68H140.716V285H134.06V280.2H130.54L129.964 285.128L126.796 285.32V288.68ZM171.765 301H176.053L183.061 285H178.581L173.909 295.976L169.269 285H164.853L160.213 296.008L155.573 285H150.997L158.005 301H162.325L167.061 290.056L171.765 301ZM190.938 291.88C187.641 291.88 184.378 293.352 184.378 296.776C184.378 299.656 186.618 301.64 189.626 301.64C192.345 301.64 194.778 300.168 196.314 298.344C196.378 300.136 197.274 301.64 199.418 301.64C200.73 301.64 202.65 301 204.41 300.04L203.546 296.776C202.618 297.256 201.786 297.608 201.306 297.608C200.858 297.608 200.538 297.32 200.538 296.84V291.08C200.538 286.696 197.978 284.36 193.594 284.36C191.066 284.36 187.706 285.352 185.722 285.992L186.778 289.832C189.114 288.968 191.546 288.232 193.21 288.232C195.226 288.232 196.314 289.352 196.314 291.016V292.872C194.938 292.392 192.666 291.88 190.938 291.88ZM191.002 298.024C189.658 298.024 188.698 297.48 188.698 296.424C188.698 295.272 189.754 294.6 191.161 294.6C192.698 294.6 194.554 294.76 196.314 295.08V295.688C194.81 297.16 192.602 298.024 191.002 298.024ZM216.342 288.424C218.87 288.424 220.182 289.992 220.182 292.264V301H224.406V291.752C224.406 287.4 221.91 284.52 217.558 284.52C214.518 284.52 212.15 286.472 211.03 288.552V285H206.806V301H211.03V293.064C211.03 289.896 213.686 288.424 216.342 288.424ZM227.296 288.68H230.336V294.888C230.336 298.92 232.48 301.544 236.448 301.544C238.144 301.544 240.416 300.808 241.76 300.104L240.832 296.488C239.808 297.128 238.4 297.64 237.152 297.64C235.488 297.64 234.56 296.456 234.56 294.728V288.68H241.216V285H234.56V280.2H231.04L230.464 285.128L227.296 285.32V288.68ZM252.265 288.68H255.305V294.888C255.305 298.92 257.449 301.544 261.417 301.544C263.113 301.544 265.385 300.808 266.729 300.104L265.801 296.488C264.777 297.128 263.369 297.64 262.121 297.64C260.457 297.64 259.529 296.456 259.529 294.728V288.68H266.185V285H259.529V280.2H256.009L255.433 285.128L252.265 285.32V288.68ZM278.827 284.456C273.483 284.456 268.875 287.496 268.875 292.84C268.875 297.64 273.035 301.576 278.827 301.576C284.619 301.576 288.779 297.64 288.779 292.84C288.779 287.496 284.171 284.456 278.827 284.456ZM278.827 288.136C282.155 288.136 284.523 289.864 284.523 292.84C284.523 295.528 281.995 297.928 278.827 297.928C275.659 297.928 273.131 295.528 273.131 292.84C273.131 289.864 275.499 288.136 278.827 288.136ZM51.232 324.456C45.888 324.456 41.344 327.656 41.344 333C41.344 337.8 44.992 341.576 50.944 341.576C53.952 341.576 56.704 340.648 58.88 339.496L57.632 336.168C55.52 337.096 53.824 337.768 51.488 337.768C48.16 337.768 45.6 335.912 45.6 332.84C45.6 329.928 47.904 328.168 50.976 328.168C53.152 328.168 55.008 328.616 57.216 329.512L58.24 325.736C56.32 325.064 53.888 324.456 51.232 324.456ZM70.9835 324.456C65.6395 324.456 61.0315 327.496 61.0315 332.84C61.0315 337.64 65.1915 341.576 70.9835 341.576C76.7755 341.576 80.9355 337.64 80.9355 332.84C80.9355 327.496 76.3275 324.456 70.9835 324.456ZM70.9835 328.136C74.3115 328.136 76.6795 329.864 76.6795 332.84C76.6795 335.528 74.1515 337.928 70.9835 337.928C67.8155 337.928 65.2875 335.528 65.2875 332.84C65.2875 329.864 67.6555 328.136 70.9835 328.136ZM94.9213 324.52C92.1373 324.52 89.9613 326.504 88.9053 328.392V325H84.6813V341H88.9053V333.032C88.9053 329.96 91.2733 328.424 93.4813 328.424C95.8173 328.424 97.0653 329.992 97.0653 332.104V341H101.289V333.032C101.289 329.992 103.657 328.424 105.865 328.424C108.201 328.424 109.449 329.992 109.449 332.104V341H113.673V331.592C113.673 327.368 111.465 324.52 107.305 324.52C104.617 324.52 102.057 326.504 100.777 328.424C99.8813 326.024 97.9293 324.52 94.9213 324.52ZM127.554 337.768C124.546 337.768 122.21 336.456 121.602 334.12H135.362C135.554 333.384 135.65 332.648 135.65 331.944C135.65 327.624 132.002 324.456 127.138 324.456C121.794 324.456 117.25 327.656 117.25 333C117.25 337.8 121.186 341.576 127.138 341.576C130.082 341.576 133.09 340.584 135.234 339.496L133.986 336.168C131.714 337.352 129.73 337.768 127.554 337.768ZM126.882 328.008C129.378 328.008 130.978 329.128 131.394 331.016H121.698C122.338 329.064 124.13 328.008 126.882 328.008ZM153.875 331.88C150.579 331.88 147.315 333.352 147.315 336.776C147.315 339.656 149.555 341.64 152.563 341.64C155.283 341.64 157.715 340.168 159.251 338.344C159.315 340.136 160.211 341.64 162.355 341.64C163.667 341.64 165.587 341 167.347 340.04L166.483 336.776C165.555 337.256 164.723 337.608 164.243 337.608C163.795 337.608 163.475 337.32 163.475 336.84V331.08C163.475 326.696 160.915 324.36 156.531 324.36C154.003 324.36 150.643 325.352 148.659 325.992L149.715 329.832C152.051 328.968 154.483 328.232 156.147 328.232C158.163 328.232 159.251 329.352 159.251 331.016V332.872C157.875 332.392 155.603 331.88 153.875 331.88ZM153.939 338.024C152.595 338.024 151.635 337.48 151.635 336.424C151.635 335.272 152.691 334.6 154.099 334.6C155.635 334.6 157.491 334.76 159.251 335.08V335.688C157.747 337.16 155.539 338.024 153.939 338.024ZM178.576 324.456C173.232 324.456 168.688 327.656 168.688 333C168.688 337.8 172.336 341.576 178.288 341.576C181.296 341.576 184.048 340.648 186.224 339.496L184.976 336.168C182.864 337.096 181.168 337.768 178.832 337.768C175.504 337.768 172.944 335.912 172.944 332.84C172.944 329.928 175.248 328.168 178.32 328.168C180.496 328.168 182.352 328.616 184.56 329.512L185.584 325.736C183.664 325.064 181.232 324.456 178.576 324.456ZM199.575 324.456C196.791 324.456 194.583 326.824 193.655 328.552V325H189.431V341H193.655V333.064C193.655 330.12 196.503 328.392 199.159 328.392C199.767 328.392 200.599 328.584 201.367 328.936L202.263 325.096C201.463 324.712 200.471 324.456 199.575 324.456ZM213.327 324.456C207.983 324.456 203.375 327.496 203.375 332.84C203.375 337.64 207.535 341.576 213.327 341.576C219.119 341.576 223.279 337.64 223.279 332.84C223.279 327.496 218.671 324.456 213.327 324.456ZM213.327 328.136C216.655 328.136 219.023 329.864 219.023 332.84C219.023 335.528 216.495 337.928 213.327 337.928C210.159 337.928 207.631 335.528 207.631 332.84C207.631 329.864 209.999 328.136 213.327 328.136ZM241.169 325.576C239.281 324.936 236.305 324.392 233.777 324.392C229.233 324.392 226.001 326.376 226.001 329.512C226.001 335.752 237.905 333.64 237.905 336.168C237.905 337.288 236.305 337.928 234.001 337.928C231.537 337.928 229.041 337.16 226.929 336.232L225.681 339.56C227.857 340.712 230.833 341.64 233.841 341.64C237.745 341.64 242.065 339.624 242.065 336.04C242.065 329.8 230.161 332.008 230.161 329.352C230.161 328.392 231.825 328.072 233.937 328.072C235.985 328.072 237.969 328.488 240.049 329.288L241.169 325.576ZM259.888 325.576C258 324.936 255.024 324.392 252.496 324.392C247.952 324.392 244.72 326.376 244.72 329.512C244.72 335.752 256.624 333.64 256.624 336.168C256.624 337.288 255.024 337.928 252.72 337.928C250.256 337.928 247.76 337.16 245.648 336.232L244.4 339.56C246.576 340.712 249.552 341.64 252.56 341.64C256.464 341.64 260.784 339.624 260.784 336.04C260.784 329.8 248.88 332.008 248.88 329.352C248.88 328.392 250.544 328.072 252.656 328.072C254.704 328.072 256.688 328.488 258.768 329.288L259.888 325.576Z" fill="#FFFAED"></path></svg> 