<?xml version="1.0" encoding="UTF-8"?> <svg xmlns="http://www.w3.org/2000/svg" width="400" height="600" viewBox="0 0 400 600" fill="none"><rect width="400" height="600" rx="20" fill="#7F3CC9"></rect><path d="M53.536 494.232V495.204C53.536 497.004 52.96 498.462 51.808 499.578C50.656 500.694 49.168 501.252 47.344 501.252C45.4 501.252 43.786 500.622 42.502 499.362C41.23 498.09 40.594 496.542 40.594 494.718C40.594 492.882 41.224 491.328 42.484 490.056C43.756 488.784 45.328 488.148 47.2 488.148C48.376 488.148 49.45 488.418 50.422 488.958C51.394 489.486 52.15 490.194 52.69 491.082L50.566 492.306C50.266 491.79 49.81 491.37 49.198 491.046C48.598 490.722 47.926 490.56 47.182 490.56C45.982 490.56 44.992 490.956 44.212 491.748C43.444 492.528 43.06 493.518 43.06 494.718C43.06 495.906 43.45 496.89 44.23 497.67C45.022 498.438 46.066 498.822 47.362 498.822C48.322 498.822 49.114 498.612 49.738 498.192C50.374 497.76 50.806 497.172 51.034 496.428H47.218V494.232H53.536ZM57.1568 497.454C57.4688 498.582 58.3148 499.146 59.6948 499.146C60.5828 499.146 61.2548 498.846 61.7108 498.246L63.5828 499.326C62.6948 500.61 61.3868 501.252 59.6588 501.252C58.1708 501.252 56.9768 500.802 56.0768 499.902C55.1768 499.002 54.7268 497.868 54.7268 496.5C54.7268 495.144 55.1708 494.016 56.0588 493.116C56.9468 492.204 58.0868 491.748 59.4788 491.748C60.7988 491.748 61.8848 492.204 62.7368 493.116C63.6008 494.028 64.0328 495.156 64.0328 496.5C64.0328 496.8 64.0028 497.118 63.9428 497.454H57.1568ZM57.1208 495.654H61.7108C61.5788 495.042 61.3028 494.586 60.8828 494.286C60.4748 493.986 60.0068 493.836 59.4788 493.836C58.8548 493.836 58.3388 493.998 57.9308 494.322C57.5228 494.634 57.2528 495.078 57.1208 495.654ZM70.5381 494.232H68.5041V497.976C68.5041 498.288 68.5821 498.516 68.7381 498.66C68.8941 498.804 69.1221 498.888 69.4221 498.912C69.7221 498.924 70.0941 498.918 70.5381 498.894V501C68.9421 501.18 67.8141 501.03 67.1541 500.55C66.5061 500.07 66.1821 499.212 66.1821 497.976V494.232H64.6161V492H66.1821V490.182L68.5041 489.48V492H70.5381V494.232ZM84.4839 499.884C83.5599 500.796 82.4319 501.252 81.0999 501.252C79.7679 501.252 78.6399 500.796 77.7159 499.884C76.8039 498.96 76.3479 497.832 76.3479 496.5C76.3479 495.168 76.8039 494.046 77.7159 493.134C78.6399 492.21 79.7679 491.748 81.0999 491.748C82.4319 491.748 83.5599 492.21 84.4839 493.134C85.4079 494.046 85.8699 495.168 85.8699 496.5C85.8699 497.832 85.4079 498.96 84.4839 499.884ZM79.3539 498.282C79.8219 498.75 80.4039 498.984 81.0999 498.984C81.7959 498.984 82.3779 498.75 82.8459 498.282C83.3139 497.814 83.5479 497.22 83.5479 496.5C83.5479 495.78 83.3139 495.186 82.8459 494.718C82.3779 494.25 81.7959 494.016 81.0999 494.016C80.4039 494.016 79.8219 494.25 79.3539 494.718C78.8979 495.186 78.6699 495.78 78.6699 496.5C78.6699 497.22 78.8979 497.814 79.3539 498.282ZM93.4434 492H95.7654V501H93.4434V499.992C92.8794 500.832 91.9854 501.252 90.7614 501.252C89.7774 501.252 88.9614 500.922 88.3134 500.262C87.6774 499.602 87.3594 498.69 87.3594 497.526V492H89.6814V497.238C89.6814 497.838 89.8434 498.3 90.1674 498.624C90.4914 498.936 90.9234 499.092 91.4634 499.092C92.0634 499.092 92.5434 498.906 92.9034 498.534C93.2634 498.162 93.4434 497.604 93.4434 496.86V492ZM103.04 494.232H101.006V497.976C101.006 498.288 101.084 498.516 101.24 498.66C101.396 498.804 101.624 498.888 101.924 498.912C102.224 498.924 102.596 498.918 103.04 498.894V501C101.444 501.18 100.316 501.03 99.6561 500.55C99.0081 500.07 98.6841 499.212 98.6841 497.976V494.232H97.1181V492H98.6841V490.182L101.006 489.48V492H103.04V494.232ZM116.986 499.884C116.062 500.796 114.934 501.252 113.602 501.252C112.27 501.252 111.142 500.796 110.218 499.884C109.306 498.96 108.85 497.832 108.85 496.5C108.85 495.168 109.306 494.046 110.218 493.134C111.142 492.21 112.27 491.748 113.602 491.748C114.934 491.748 116.062 492.21 116.986 493.134C117.91 494.046 118.372 495.168 118.372 496.5C118.372 497.832 117.91 498.96 116.986 499.884ZM111.856 498.282C112.324 498.75 112.906 498.984 113.602 498.984C114.298 498.984 114.88 498.75 115.348 498.282C115.816 497.814 116.05 497.22 116.05 496.5C116.05 495.78 115.816 495.186 115.348 494.718C114.88 494.25 114.298 494.016 113.602 494.016C112.906 494.016 112.324 494.25 111.856 494.718C111.4 495.186 111.172 495.78 111.172 496.5C111.172 497.22 111.4 497.814 111.856 498.282ZM124.566 490.38C123.294 490.284 122.658 490.794 122.658 491.91V492H124.566V494.232H122.658V501H120.336V494.232H119.04V492H120.336V491.91C120.336 490.638 120.69 489.672 121.398 489.012C122.106 488.352 123.162 488.064 124.566 488.148V490.38ZM130.508 496.014V494.862H139.508V496.014H130.508ZM154.253 499.866C153.341 500.766 152.225 501.216 150.905 501.216C149.585 501.216 148.463 500.766 147.539 499.866C146.627 498.954 146.171 497.832 146.171 496.5C146.171 495.168 146.627 494.052 147.539 493.152C148.463 492.24 149.585 491.784 150.905 491.784C152.225 491.784 153.341 492.24 154.253 493.152C155.177 494.052 155.639 495.168 155.639 496.5C155.639 497.832 155.177 498.954 154.253 499.866ZM148.385 499.038C149.069 499.722 149.909 500.064 150.905 500.064C151.901 500.064 152.741 499.722 153.425 499.038C154.109 498.342 154.451 497.496 154.451 496.5C154.451 495.504 154.109 494.664 153.425 493.98C152.741 493.284 151.901 492.936 150.905 492.936C149.909 492.936 149.069 493.284 148.385 493.98C147.701 494.664 147.359 495.504 147.359 496.5C147.359 497.496 147.701 498.342 148.385 499.038ZM163.756 492V493.152H160.57V501H159.382V493.152H156.196V492H163.756ZM172.038 492V501H170.85V493.152H166.782V497.166C166.782 498.666 166.494 499.698 165.918 500.262C165.354 500.826 164.574 501.072 163.578 501V499.884C164.262 499.956 164.766 499.794 165.09 499.398C165.426 499.002 165.594 498.258 165.594 497.166V492H172.038ZM178.209 495.42C179.049 495.42 179.757 495.684 180.333 496.212C180.921 496.728 181.215 497.394 181.215 498.21C181.215 499.026 180.921 499.698 180.333 500.226C179.757 500.742 179.049 501 178.209 501H174.555V492H175.743V495.42H178.209ZM182.475 492H183.663V501H182.475V492ZM178.209 499.848C178.713 499.848 179.139 499.698 179.487 499.398C179.847 499.098 180.027 498.702 180.027 498.21C180.027 497.718 179.847 497.322 179.487 497.022C179.139 496.722 178.713 496.572 178.209 496.572H175.743V499.848H178.209ZM192.564 492H193.752V501H192.564V497.076H187.38V501H186.192V492H187.38V495.924H192.564V492ZM202.816 492H203.824V501H202.636V494.07L197.272 501H196.264V492H197.452V498.93L202.816 492ZM212.06 496.374C213.044 496.734 213.536 497.436 213.536 498.48C213.536 499.212 213.29 499.818 212.798 500.298C212.318 500.766 211.622 501 210.71 501H206.336V492H210.35C211.226 492 211.904 492.228 212.384 492.684C212.864 493.128 213.104 493.704 213.104 494.412C213.104 495.312 212.756 495.966 212.06 496.374ZM210.35 493.152H207.524V495.888H210.35C211.394 495.888 211.916 495.42 211.916 494.484C211.916 494.064 211.778 493.74 211.502 493.512C211.238 493.272 210.854 493.152 210.35 493.152ZM210.71 499.848C211.238 499.848 211.64 499.722 211.916 499.47C212.204 499.218 212.348 498.864 212.348 498.408C212.348 497.988 212.204 497.658 211.916 497.418C211.64 497.166 211.238 497.04 210.71 497.04H207.524V499.848H210.71ZM223.076 492H224.264V501H223.076V499.236C222.248 500.556 221.036 501.216 219.44 501.216C218.156 501.216 217.058 500.76 216.146 499.848C215.246 498.936 214.796 497.82 214.796 496.5C214.796 495.18 215.246 494.064 216.146 493.152C217.058 492.24 218.156 491.784 219.44 491.784C221.036 491.784 222.248 492.444 223.076 493.764V492ZM217.01 499.038C217.694 499.722 218.534 500.064 219.53 500.064C220.526 500.064 221.366 499.722 222.05 499.038C222.734 498.342 223.076 497.496 223.076 496.5C223.076 495.504 222.734 494.664 222.05 493.98C221.366 493.284 220.526 492.936 219.53 492.936C218.534 492.936 217.694 493.284 217.01 493.98C216.326 494.664 215.984 495.504 215.984 496.5C215.984 497.496 216.326 498.342 217.01 499.038ZM233.26 492V493.152H230.074V501H228.886V493.152H225.7V492H233.26ZM238.361 495.42C239.201 495.42 239.909 495.684 240.485 496.212C241.073 496.728 241.367 497.394 241.367 498.21C241.367 499.026 241.073 499.698 240.485 500.226C239.909 500.742 239.201 501 238.361 501H234.707V492H235.895V495.42H238.361ZM238.361 499.848C238.865 499.848 239.291 499.698 239.639 499.398C239.999 499.098 240.179 498.702 240.179 498.21C240.179 497.718 239.999 497.322 239.639 497.022C239.291 496.722 238.865 496.572 238.361 496.572H235.895V499.848H238.361ZM244.944 493.512C244.752 493.704 244.518 493.8 244.242 493.8C243.966 493.8 243.732 493.704 243.54 493.512C243.348 493.32 243.252 493.086 243.252 492.81C243.252 492.534 243.348 492.3 243.54 492.108C243.732 491.916 243.966 491.82 244.242 491.82C244.518 491.82 244.752 491.916 244.944 492.108C245.136 492.3 245.232 492.534 245.232 492.81C245.232 493.086 245.136 493.32 244.944 493.512ZM245.142 499.47L244.062 503.52H242.982L243.702 499.47H245.142ZM258.626 492H259.634V501H258.446V494.07L253.082 501H252.074V492H253.262V498.93L258.626 492ZM266.791 496.374C267.835 496.77 268.357 497.49 268.357 498.534C268.357 499.278 268.063 499.914 267.475 500.442C266.899 500.958 266.071 501.216 264.991 501.216C263.179 501.216 261.991 500.496 261.427 499.056L262.435 498.462C262.807 499.53 263.659 500.064 264.991 500.064C265.687 500.064 266.221 499.914 266.593 499.614C266.977 499.314 267.169 498.93 267.169 498.462C267.169 498.042 267.013 497.7 266.701 497.436C266.389 497.172 265.969 497.04 265.441 497.04H264.127V495.888H265.081C265.597 495.888 265.999 495.762 266.287 495.51C266.587 495.246 266.737 494.886 266.737 494.43C266.737 493.998 266.563 493.644 266.215 493.368C265.867 493.08 265.399 492.936 264.811 492.936C263.683 492.936 262.933 493.386 262.561 494.286L261.571 493.71C262.171 492.426 263.251 491.784 264.811 491.784C265.759 491.784 266.515 492.036 267.079 492.54C267.643 493.032 267.925 493.638 267.925 494.358C267.925 495.282 267.547 495.954 266.791 496.374ZM274.158 501.216C272.862 501.216 271.782 500.79 270.918 499.938C270.054 499.074 269.622 497.958 269.622 496.59C269.622 495.054 269.85 493.878 270.306 493.062C270.762 492.234 271.686 491.484 273.078 490.812C273.342 490.68 273.69 490.524 274.122 490.344C274.566 490.164 274.896 490.02 275.112 489.912C275.34 489.804 275.586 489.666 275.85 489.498C276.114 489.318 276.312 489.12 276.444 488.904C276.576 488.688 276.66 488.43 276.696 488.13L277.632 488.67C277.584 488.958 277.488 489.228 277.344 489.48C277.2 489.732 277.05 489.936 276.894 490.092C276.75 490.248 276.516 490.422 276.192 490.614C275.88 490.794 275.634 490.926 275.454 491.01C275.286 491.082 274.986 491.208 274.554 491.388C274.134 491.568 273.852 491.688 273.708 491.748C272.868 492.108 272.25 492.486 271.854 492.882C271.458 493.266 271.176 493.77 271.008 494.394C271.416 493.854 271.932 493.458 272.556 493.206C273.192 492.942 273.81 492.81 274.41 492.81C275.61 492.81 276.6 493.206 277.38 493.998C278.172 494.778 278.568 495.78 278.568 497.004C278.568 498.216 278.148 499.224 277.308 500.028C276.48 500.82 275.43 501.216 274.158 501.216ZM274.158 500.028C275.094 500.028 275.862 499.746 276.462 499.182C277.074 498.606 277.38 497.88 277.38 497.004C277.38 496.116 277.092 495.39 276.516 494.826C275.952 494.25 275.196 493.962 274.248 493.962C273.396 493.962 272.622 494.232 271.926 494.772C271.23 495.3 270.882 496.008 270.882 496.896C270.882 497.808 271.194 498.558 271.818 499.146C272.454 499.734 273.234 500.028 274.158 500.028ZM288.115 492H289.303V501H288.115V499.236C287.287 500.556 286.075 501.216 284.479 501.216C283.195 501.216 282.097 500.76 281.185 499.848C280.285 498.936 279.835 497.82 279.835 496.5C279.835 495.18 280.285 494.064 281.185 493.152C282.097 492.24 283.195 491.784 284.479 491.784C286.075 491.784 287.287 492.444 288.115 493.764V492ZM282.049 499.038C282.733 499.722 283.573 500.064 284.569 500.064C285.565 500.064 286.405 499.722 287.089 499.038C287.773 498.342 288.115 497.496 288.115 496.5C288.115 495.504 287.773 494.664 287.089 493.98C286.405 493.284 285.565 492.936 284.569 492.936C283.573 492.936 282.733 493.284 282.049 493.98C281.365 494.664 281.023 495.504 281.023 496.5C281.023 497.496 281.365 498.342 282.049 499.038ZM297.543 496.374C298.527 496.734 299.019 497.436 299.019 498.48C299.019 499.212 298.773 499.818 298.281 500.298C297.801 500.766 297.105 501 296.193 501H291.819V492H295.833C296.709 492 297.387 492.228 297.867 492.684C298.347 493.128 298.587 493.704 298.587 494.412C298.587 495.312 298.239 495.966 297.543 496.374ZM295.833 493.152H293.007V495.888H295.833C296.877 495.888 297.399 495.42 297.399 494.484C297.399 494.064 297.261 493.74 296.985 493.512C296.721 493.272 296.337 493.152 295.833 493.152ZM296.193 499.848C296.721 499.848 297.123 499.722 297.399 499.47C297.687 499.218 297.831 498.864 297.831 498.408C297.831 497.988 297.687 497.658 297.399 497.418C297.123 497.166 296.721 497.04 296.193 497.04H293.007V499.848H296.193ZM307.371 492H308.379V501H307.191V494.07L301.827 501H300.819V492H302.007V498.93L307.371 492ZM317.371 492V493.152H314.185V501H312.997V493.152H309.811V492H317.371ZM322.473 495.42C323.313 495.42 324.021 495.684 324.597 496.212C325.185 496.728 325.479 497.394 325.479 498.21C325.479 499.026 325.185 499.698 324.597 500.226C324.021 500.742 323.313 501 322.473 501H318.819V492H320.007V495.42H322.473ZM322.473 499.848C322.977 499.848 323.403 499.698 323.751 499.398C324.111 499.098 324.291 498.702 324.291 498.21C324.291 497.718 324.111 497.322 323.751 497.022C323.403 496.722 322.977 496.572 322.473 496.572H320.007V499.848H322.473ZM331.38 501.216C330.024 501.216 328.896 500.766 327.996 499.866C327.096 498.954 326.646 497.832 326.646 496.5C326.646 495.168 327.096 494.052 327.996 493.152C328.896 492.24 330.024 491.784 331.38 491.784C332.268 491.784 333.066 492 333.774 492.432C334.482 492.852 334.998 493.422 335.322 494.142L334.35 494.7C334.11 494.16 333.72 493.734 333.18 493.422C332.652 493.098 332.052 492.936 331.38 492.936C330.384 492.936 329.544 493.284 328.86 493.98C328.176 494.664 327.834 495.504 327.834 496.5C327.834 497.496 328.176 498.342 328.86 499.038C329.544 499.722 330.384 500.064 331.38 500.064C332.052 500.064 332.652 499.908 333.18 499.596C333.708 499.272 334.122 498.84 334.422 498.3L335.412 498.876C335.04 499.596 334.494 500.166 333.774 500.586C333.054 501.006 332.256 501.216 331.38 501.216ZM343.422 492V501H342.234V497.544H340.686L337.914 501H336.402L339.246 497.508C338.526 497.4 337.932 497.1 337.464 496.608C336.996 496.116 336.762 495.51 336.762 494.79C336.762 493.974 337.05 493.308 337.626 492.792C338.214 492.264 338.928 492 339.768 492H343.422ZM339.768 496.428H342.234V493.152H339.768C339.264 493.152 338.832 493.302 338.472 493.602C338.124 493.902 337.95 494.298 337.95 494.79C337.95 495.282 338.124 495.678 338.472 495.978C338.832 496.278 339.264 496.428 339.768 496.428Z" fill="#D5AEFF"></path><path d="M47.296 84.136V101H42.88V78.6H48.032L61.536 95.464V78.6H65.952V101H60.8L47.296 84.136ZM80.4918 97.768C82.7318 97.768 84.8758 97.2347 86.9237 96.168L88.1718 99.496C85.4411 100.883 82.7424 101.576 80.0758 101.576C77.1531 101.576 74.7744 100.765 72.9398 99.144C71.1051 97.5013 70.1878 95.4533 70.1878 93C70.1878 90.4187 71.1371 88.3493 73.0358 86.792C74.9558 85.2347 77.3024 84.456 80.0758 84.456C82.5078 84.456 84.5344 85.1707 86.1558 86.6C87.7771 88.008 88.5878 89.7893 88.5878 91.944C88.5878 92.648 88.4918 93.3733 88.2998 94.12H74.5398C74.8384 95.272 75.5211 96.168 76.5878 96.808C77.6544 97.448 78.9558 97.768 80.4918 97.768ZM79.8198 88.008C77.0251 88.008 75.2971 89.0107 74.6358 91.016H84.3318C84.1184 90.056 83.6171 89.32 82.8278 88.808C82.0598 88.2747 81.0571 88.008 79.8198 88.008ZM94.39 85L99.638 96.232L104.822 85H109.526L101.942 101H97.302L89.75 85H94.39ZM121.179 97.768C123.419 97.768 125.563 97.2347 127.611 96.168L128.859 99.496C126.129 100.883 123.43 101.576 120.763 101.576C117.841 101.576 115.462 100.765 113.627 99.144C111.793 97.5013 110.875 95.4533 110.875 93C110.875 90.4187 111.825 88.3493 113.723 86.792C115.643 85.2347 117.99 84.456 120.763 84.456C123.195 84.456 125.222 85.1707 126.843 86.6C128.465 88.008 129.275 89.7893 129.275 91.944C129.275 92.648 129.179 93.3733 128.987 94.12H115.227C115.526 95.272 116.209 96.168 117.275 96.808C118.342 97.448 119.643 97.768 121.179 97.768ZM120.507 88.008C117.713 88.008 115.985 89.0107 115.323 91.016H125.019C124.806 90.056 124.305 89.32 123.515 88.808C122.747 88.2747 121.745 88.008 120.507 88.008ZM142.982 84.456C143.878 84.456 144.774 84.6693 145.67 85.096L144.774 88.936C143.984 88.5733 143.248 88.392 142.566 88.392C141.136 88.392 139.856 88.8293 138.726 89.704C137.616 90.5573 137.062 91.6773 137.062 93.064V101H132.838V85H137.062V88.552C137.616 87.5067 138.427 86.568 139.494 85.736C140.56 84.8827 141.723 84.456 142.982 84.456ZM166.436 88.424C164.985 88.424 163.737 88.8293 162.692 89.64C161.647 90.4293 161.124 91.5707 161.124 93.064V101H156.9V77.288H161.124V88.552C161.743 87.4213 162.628 86.472 163.78 85.704C164.932 84.9147 166.223 84.52 167.652 84.52C169.807 84.52 171.481 85.1813 172.676 86.504C173.892 87.8053 174.5 89.5547 174.5 91.752V101H170.276V92.264C170.276 91.0907 169.945 90.1627 169.284 89.48C168.623 88.776 167.673 88.424 166.436 88.424ZM184.75 91.88C186.435 91.88 188.227 92.2107 190.126 92.872V91.016C190.126 90.1627 189.849 89.4907 189.294 89C188.761 88.488 188.003 88.232 187.022 88.232C185.614 88.232 183.47 88.7653 180.59 89.832L179.534 85.992C182.905 84.904 185.529 84.36 187.406 84.36C189.625 84.36 191.331 84.936 192.526 86.088C193.742 87.24 194.35 88.904 194.35 91.08V96.84C194.35 97.352 194.606 97.608 195.118 97.608C195.545 97.608 196.291 97.3307 197.358 96.776L198.222 100.04C196.259 101.107 194.595 101.64 193.23 101.64C192.227 101.64 191.47 101.341 190.958 100.744C190.446 100.125 190.169 99.3253 190.126 98.344C189.315 99.3253 188.323 100.125 187.15 100.744C185.977 101.341 184.739 101.64 183.438 101.64C181.923 101.64 180.665 101.192 179.662 100.296C178.681 99.3787 178.19 98.2053 178.19 96.776C178.19 95.176 178.83 93.96 180.11 93.128C181.39 92.296 182.937 91.88 184.75 91.88ZM184.814 98.024C185.646 98.024 186.553 97.8107 187.534 97.384C188.537 96.9573 189.401 96.392 190.126 95.688V95.08C188.377 94.76 186.659 94.6 184.974 94.6C184.249 94.6 183.651 94.7707 183.182 95.112C182.734 95.432 182.51 95.8693 182.51 96.424C182.51 96.936 182.713 97.3307 183.118 97.608C183.545 97.8853 184.11 98.024 184.814 98.024ZM202.859 85L208.107 96.232L213.291 85H217.995L210.411 101H205.771L198.219 85H202.859ZM229.648 97.768C231.888 97.768 234.032 97.2347 236.08 96.168L237.328 99.496C234.597 100.883 231.899 101.576 229.232 101.576C226.309 101.576 223.931 100.765 222.096 99.144C220.261 97.5013 219.344 95.4533 219.344 93C219.344 90.4187 220.293 88.3493 222.192 86.792C224.112 85.2347 226.459 84.456 229.232 84.456C231.664 84.456 233.691 85.1707 235.312 86.6C236.933 88.008 237.744 89.7893 237.744 91.944C237.744 92.648 237.648 93.3733 237.456 94.12H223.696C223.995 95.272 224.677 96.168 225.744 96.808C226.811 97.448 228.112 97.768 229.648 97.768ZM228.976 88.008C226.181 88.008 224.453 89.0107 223.792 91.016H233.488C233.275 90.056 232.773 89.32 231.984 88.808C231.216 88.2747 230.213 88.008 228.976 88.008ZM255.265 78.6V101H250.849V78.6H255.265ZM278.867 97.768C281.107 97.768 283.251 97.2347 285.299 96.168L286.547 99.496C283.816 100.883 281.117 101.576 278.451 101.576C275.528 101.576 273.149 100.765 271.315 99.144C269.48 97.5013 268.563 95.4533 268.563 93C268.563 90.4187 269.512 88.3493 271.411 86.792C273.331 85.2347 275.677 84.456 278.451 84.456C280.883 84.456 282.909 85.1707 284.531 86.6C286.152 88.008 286.963 89.7893 286.963 91.944C286.963 92.648 286.867 93.3733 286.675 94.12H272.915C273.213 95.272 273.896 96.168 274.963 96.808C276.029 97.448 277.331 97.768 278.867 97.768ZM278.195 88.008C275.4 88.008 273.672 89.0107 273.011 91.016H282.707C282.493 90.056 281.992 89.32 281.203 88.808C280.435 88.2747 279.432 88.008 278.195 88.008ZM292.765 85L298.013 96.232L303.197 85H307.901L300.317 101H295.677L288.125 85H292.765ZM319.554 97.768C321.794 97.768 323.938 97.2347 325.986 96.168L327.234 99.496C324.504 100.883 321.805 101.576 319.138 101.576C316.216 101.576 313.837 100.765 312.002 99.144C310.168 97.5013 309.25 95.4533 309.25 93C309.25 90.4187 310.2 88.3493 312.098 86.792C314.018 85.2347 316.365 84.456 319.138 84.456C321.57 84.456 323.597 85.1707 325.218 86.6C326.84 88.008 327.65 89.7893 327.65 91.944C327.65 92.648 327.554 93.3733 327.362 94.12H313.602C313.901 95.272 314.584 96.168 315.65 96.808C316.717 97.448 318.018 97.768 319.554 97.768ZM318.882 88.008C316.088 88.008 314.36 89.0107 313.698 91.016H323.394C323.181 90.056 322.68 89.32 321.89 88.808C321.122 88.2747 320.12 88.008 318.882 88.008ZM341.357 84.456C342.253 84.456 343.149 84.6693 344.045 85.096L343.149 88.936C342.359 88.5733 341.623 88.392 340.941 88.392C339.511 88.392 338.231 88.8293 337.101 89.704C335.991 90.5573 335.437 91.6773 335.437 93.064V101H331.213V85H335.437V88.552C335.991 87.5067 336.802 86.568 337.869 85.736C338.935 84.8827 340.098 84.456 341.357 84.456ZM46.592 141H42.4V117H46.592V141ZM55.624 125V141H51.464V125H55.624ZM51.016 120.392C51.016 119.709 51.2613 119.123 51.752 118.632C52.2427 118.141 52.84 117.896 53.544 117.896C54.248 117.896 54.8453 118.141 55.336 118.632C55.8267 119.123 56.072 119.709 56.072 120.392C56.072 121.096 55.8267 121.693 55.336 122.184C54.8453 122.675 54.248 122.92 53.544 122.92C52.84 122.92 52.2427 122.675 51.752 122.184C51.2613 121.693 51.016 121.096 51.016 120.392ZM69.7418 137.768C71.9818 137.768 74.1258 137.235 76.1737 136.168L77.4218 139.496C74.6911 140.883 71.9924 141.576 69.3258 141.576C66.4031 141.576 64.0244 140.765 62.1898 139.144C60.3551 137.501 59.4378 135.453 59.4378 133C59.4378 130.419 60.3871 128.349 62.2858 126.792C64.2058 125.235 66.5524 124.456 69.3258 124.456C71.7578 124.456 73.7844 125.171 75.4058 126.6C77.0271 128.008 77.8378 129.789 77.8378 131.944C77.8378 132.648 77.7418 133.373 77.5498 134.12H63.7898C64.0884 135.272 64.7711 136.168 65.8378 136.808C66.9044 137.448 68.2058 137.768 69.7418 137.768ZM69.0698 128.008C66.2751 128.008 64.5471 129.011 63.8858 131.016H73.5818C73.3684 130.056 72.8671 129.32 72.0778 128.808C71.3098 128.275 70.3071 128.008 69.0698 128.008ZM88.408 141.544C86.1467 141.544 84.2373 140.776 82.68 139.24C81.1227 137.704 80.344 135.677 80.344 133.16C80.344 130.728 81.24 128.669 83.032 126.984C84.8453 125.277 87.0853 124.424 89.752 124.424C91.032 124.424 92.8773 124.808 95.288 125.576V117H99.512V141H95.288V137.448C94.7333 138.621 93.8373 139.603 92.6 140.392C91.3627 141.16 89.9653 141.544 88.408 141.544ZM86.008 136.424C86.968 137.213 88.184 137.608 89.656 137.608C91.128 137.608 92.4293 137.139 93.56 136.2C94.712 135.24 95.288 134.024 95.288 132.552V129.096C93.112 128.456 91.2453 128.136 89.688 128.136C88.2587 128.136 87.0533 128.616 86.072 129.576C85.0907 130.536 84.6 131.72 84.6 133.128C84.6 134.536 85.0693 135.635 86.008 136.424ZM111.609 128.68V125.32L114.777 125.128L115.353 120.2H118.873V125H125.529V128.68H118.873V134.728C118.873 135.603 119.097 136.307 119.545 136.84C120.014 137.373 120.654 137.64 121.465 137.64C122.681 137.64 123.907 137.256 125.145 136.488L126.073 140.104C124.238 141.064 122.467 141.544 120.761 141.544C118.798 141.544 117.283 140.947 116.217 139.752C115.171 138.557 114.649 136.936 114.649 134.888V128.68H111.609ZM131.099 126.728C133.019 125.213 135.376 124.456 138.171 124.456C140.966 124.456 143.323 125.213 145.243 126.728C147.163 128.221 148.123 130.259 148.123 132.84C148.123 135.272 147.174 137.341 145.275 139.048C143.398 140.733 141.03 141.576 138.171 141.576C135.312 141.576 132.934 140.733 131.035 139.048C129.158 137.341 128.219 135.272 128.219 132.84C128.219 130.259 129.179 128.221 131.099 126.728ZM142.299 129.416C141.254 128.563 139.878 128.136 138.171 128.136C136.464 128.136 135.088 128.563 134.043 129.416C132.998 130.248 132.475 131.389 132.475 132.84C132.475 134.205 133.03 135.4 134.139 136.424C135.27 137.427 136.614 137.928 138.171 137.928C139.728 137.928 141.062 137.427 142.171 136.424C143.302 135.4 143.867 134.205 143.867 132.84C143.867 131.389 143.344 130.248 142.299 129.416ZM166.627 138.888H168.803C171.683 138.888 173.987 139.283 175.715 140.072C177.443 140.861 178.307 142.056 178.307 143.656C178.307 145.427 177.433 146.771 175.683 147.688C173.955 148.627 171.662 149.096 168.803 149.096C165.838 149.096 163.491 148.648 161.763 147.752C160.057 146.877 159.203 145.619 159.203 143.976C159.203 143.165 159.534 142.397 160.195 141.672C160.878 140.968 161.646 140.509 162.499 140.296C162.073 140.083 161.71 139.731 161.411 139.24C161.113 138.749 160.963 138.248 160.963 137.736C160.963 136.883 161.539 136.083 162.691 135.336C161.902 134.824 161.23 134.163 160.675 133.352C160.121 132.52 159.843 131.699 159.843 130.888C159.843 128.861 160.643 127.283 162.243 126.152C163.865 125.021 165.838 124.456 168.163 124.456C169.934 124.456 171.523 124.797 172.931 125.48C174.254 124.392 175.875 123.688 177.795 123.368L178.563 127.304C177.433 127.432 176.505 127.677 175.779 128.04C176.27 128.915 176.515 129.864 176.515 130.888C176.515 132.723 175.726 134.248 174.147 135.464C172.569 136.68 170.574 137.288 168.163 137.288C167.331 137.288 166.553 137.224 165.827 137.096C165.294 137.224 165.027 137.512 165.027 137.96C165.027 138.579 165.561 138.888 166.627 138.888ZM168.131 127.944C166.937 127.944 165.966 128.189 165.219 128.68C164.473 129.171 164.099 129.864 164.099 130.76C164.099 131.549 164.483 132.211 165.251 132.744C166.019 133.256 166.979 133.512 168.131 133.512C169.326 133.512 170.286 133.245 171.011 132.712C171.758 132.179 172.131 131.528 172.131 130.76C172.131 129.864 171.758 129.171 171.011 128.68C170.265 128.189 169.305 127.944 168.131 127.944ZM168.739 142.472C166.329 142.472 164.942 142.483 164.579 142.504C163.705 142.867 163.267 143.357 163.267 143.976C163.267 145.085 165.091 145.64 168.739 145.64C172.387 145.64 174.211 145.096 174.211 144.008C174.211 142.984 172.387 142.472 168.739 142.472ZM190.367 137.768C192.607 137.768 194.751 137.235 196.799 136.168L198.047 139.496C195.316 140.883 192.617 141.576 189.951 141.576C187.028 141.576 184.649 140.765 182.815 139.144C180.98 137.501 180.063 135.453 180.063 133C180.063 130.419 181.012 128.349 182.911 126.792C184.831 125.235 187.177 124.456 189.951 124.456C192.383 124.456 194.409 125.171 196.031 126.6C197.652 128.008 198.463 129.789 198.463 131.944C198.463 132.648 198.367 133.373 198.175 134.12H184.415C184.713 135.272 185.396 136.168 186.463 136.808C187.529 137.448 188.831 137.768 190.367 137.768ZM189.695 128.008C186.9 128.008 185.172 129.011 184.511 131.016H194.207C193.993 130.056 193.492 129.32 192.703 128.808C191.935 128.275 190.932 128.008 189.695 128.008ZM200.265 128.68V125.32L203.433 125.128L204.009 120.2H207.529V125H214.185V128.68H207.529V134.728C207.529 135.603 207.753 136.307 208.201 136.84C208.67 137.373 209.31 137.64 210.121 137.64C211.337 137.64 212.564 137.256 213.801 136.488L214.729 140.104C212.894 141.064 211.124 141.544 209.417 141.544C207.454 141.544 205.94 140.947 204.873 139.752C203.828 138.557 203.305 136.936 203.305 134.888V128.68H200.265ZM228.818 126.728C230.738 125.213 233.095 124.456 235.89 124.456C238.684 124.456 241.042 125.213 242.962 126.728C244.882 128.221 245.842 130.259 245.842 132.84C245.842 135.272 244.892 137.341 242.994 139.048C241.116 140.733 238.748 141.576 235.89 141.576C233.031 141.576 230.652 140.733 228.754 139.048C226.876 137.341 225.938 135.272 225.938 132.84C225.938 130.259 226.898 128.221 228.818 126.728ZM240.018 129.416C238.972 128.563 237.596 128.136 235.89 128.136C234.183 128.136 232.807 128.563 231.762 129.416C230.716 130.248 230.194 131.389 230.194 132.84C230.194 134.205 230.748 135.4 231.858 136.424C232.988 137.427 234.332 137.928 235.89 137.928C237.447 137.928 238.78 137.427 239.89 136.424C241.02 135.4 241.586 134.205 241.586 132.84C241.586 131.389 241.063 130.248 240.018 129.416ZM256.148 141.512C254.036 141.512 252.382 140.861 251.188 139.56C250.014 138.259 249.428 136.499 249.428 134.28V125H253.652V133.736C253.652 135.016 254.004 135.987 254.708 136.648C255.433 137.288 256.436 137.608 257.716 137.608C259.166 137.608 260.35 137.203 261.268 136.392C262.206 135.56 262.676 134.344 262.676 132.744V125H266.9V141H262.676V137.48C262.078 138.653 261.193 139.624 260.02 140.392C258.846 141.139 257.556 141.512 256.148 141.512ZM269.953 128.68V125.32L273.121 125.128L273.697 120.2H277.217V125H283.873V128.68H277.217V134.728C277.217 135.603 277.441 136.307 277.889 136.84C278.358 137.373 278.998 137.64 279.809 137.64C281.025 137.64 282.251 137.256 283.489 136.488L284.417 140.104C282.582 141.064 280.811 141.544 279.105 141.544C277.142 141.544 275.627 140.947 274.561 139.752C273.515 138.557 272.993 136.936 272.993 134.888V128.68H269.953ZM298.505 126.728C300.425 125.213 302.783 124.456 305.577 124.456C308.372 124.456 310.729 125.213 312.649 126.728C314.569 128.221 315.529 130.259 315.529 132.84C315.529 135.272 314.58 137.341 312.681 139.048C310.804 140.733 308.436 141.576 305.577 141.576C302.719 141.576 300.34 140.733 298.441 139.048C296.564 137.341 295.625 135.272 295.625 132.84C295.625 130.259 296.585 128.221 298.505 126.728ZM309.705 129.416C308.66 128.563 307.284 128.136 305.577 128.136C303.871 128.136 302.495 128.563 301.449 129.416C300.404 130.248 299.881 131.389 299.881 132.84C299.881 134.205 300.436 135.4 301.545 136.424C302.676 137.427 304.02 137.928 305.577 137.928C307.135 137.928 308.468 137.427 309.577 136.424C310.708 135.4 311.273 134.205 311.273 132.84C311.273 131.389 310.751 130.248 309.705 129.416ZM326.667 120.424C325.003 120.424 324.171 121.267 324.171 122.952V125H331.435V128.68H324.331V141H320.171V128.68H317.515V125H320.139V122.76C320.139 120.925 320.747 119.453 321.963 118.344C323.2 117.235 324.811 116.68 326.795 116.68C328.416 116.68 330.166 117 332.043 117.64L331.019 121.512C329.355 120.787 327.904 120.424 326.667 120.424ZM48.096 178.888H50.272C53.152 178.888 55.456 179.283 57.184 180.072C58.912 180.861 59.776 182.056 59.776 183.656C59.776 185.427 58.9013 186.771 57.152 187.688C55.424 188.627 53.1307 189.096 50.272 189.096C47.3067 189.096 44.96 188.648 43.232 187.752C41.5253 186.877 40.672 185.619 40.672 183.976C40.672 183.165 41.0027 182.397 41.664 181.672C42.3467 180.968 43.1147 180.509 43.968 180.296C43.5413 180.083 43.1787 179.731 42.88 179.24C42.5813 178.749 42.432 178.248 42.432 177.736C42.432 176.883 43.008 176.083 44.16 175.336C43.3707 174.824 42.6987 174.163 42.144 173.352C41.5893 172.52 41.312 171.699 41.312 170.888C41.312 168.861 42.112 167.283 43.712 166.152C45.3333 165.021 47.3067 164.456 49.632 164.456C51.4027 164.456 52.992 164.797 54.4 165.48C55.7227 164.392 57.344 163.688 59.264 163.368L60.032 167.304C58.9013 167.432 57.9733 167.677 57.248 168.04C57.7387 168.915 57.984 169.864 57.984 170.888C57.984 172.723 57.1947 174.248 55.616 175.464C54.0373 176.68 52.0427 177.288 49.632 177.288C48.8 177.288 48.0213 177.224 47.296 177.096C46.7627 177.224 46.496 177.512 46.496 177.96C46.496 178.579 47.0293 178.888 48.096 178.888ZM49.6 167.944C48.4053 167.944 47.4347 168.189 46.688 168.68C45.9413 169.171 45.568 169.864 45.568 170.76C45.568 171.549 45.952 172.211 46.72 172.744C47.488 173.256 48.448 173.512 49.6 173.512C50.7947 173.512 51.7547 173.245 52.48 172.712C53.2267 172.179 53.6 171.528 53.6 170.76C53.6 169.864 53.2267 169.171 52.48 168.68C51.7333 168.189 50.7733 167.944 49.6 167.944ZM50.208 182.472C47.7973 182.472 46.4107 182.483 46.048 182.504C45.1733 182.867 44.736 183.357 44.736 183.976C44.736 185.085 46.56 185.64 50.208 185.64C53.856 185.64 55.68 185.096 55.68 184.008C55.68 182.984 53.856 182.472 50.208 182.472ZM64.4115 166.728C66.3315 165.213 68.6888 164.456 71.4835 164.456C74.2782 164.456 76.6355 165.213 78.5555 166.728C80.4755 168.221 81.4355 170.259 81.4355 172.84C81.4355 175.272 80.4862 177.341 78.5875 179.048C76.7102 180.733 74.3422 181.576 71.4835 181.576C68.6248 181.576 66.2462 180.733 64.3475 179.048C62.4702 177.341 61.5315 175.272 61.5315 172.84C61.5315 170.259 62.4915 168.221 64.4115 166.728ZM75.6115 169.416C74.5662 168.563 73.1902 168.136 71.4835 168.136C69.7768 168.136 68.4008 168.563 67.3555 169.416C66.3102 170.248 65.7875 171.389 65.7875 172.84C65.7875 174.205 66.3422 175.4 67.4515 176.424C68.5822 177.427 69.9262 177.928 71.4835 177.928C73.0408 177.928 74.3742 177.427 75.4835 176.424C76.6142 175.4 77.1795 174.205 77.1795 172.84C77.1795 171.389 76.6568 170.248 75.6115 169.416ZM89.4053 165V181H85.2453V165H89.4053ZM84.7973 160.392C84.7973 159.709 85.0426 159.123 85.5333 158.632C86.0239 158.141 86.6213 157.896 87.3253 157.896C88.0293 157.896 88.6266 158.141 89.1173 158.632C89.6079 159.123 89.8533 159.709 89.8533 160.392C89.8533 161.096 89.6079 161.693 89.1173 162.184C88.6266 162.675 88.0293 162.92 87.3253 162.92C86.6213 162.92 86.0239 162.675 85.5333 162.184C85.0426 161.693 84.7973 161.096 84.7973 160.392ZM103.811 168.424C102.36 168.424 101.112 168.829 100.067 169.64C99.0217 170.429 98.499 171.571 98.499 173.064V181H94.275V165H98.499V168.552C99.1177 167.421 100.003 166.472 101.155 165.704C102.307 164.915 103.598 164.52 105.027 164.52C107.182 164.52 108.856 165.181 110.051 166.504C111.267 167.805 111.875 169.555 111.875 171.752V181H107.651V172.264C107.651 171.091 107.32 170.163 106.659 169.48C105.998 168.776 105.048 168.424 103.811 168.424ZM122.221 178.888H124.397C127.277 178.888 129.581 179.283 131.309 180.072C133.037 180.861 133.901 182.056 133.901 183.656C133.901 185.427 133.026 186.771 131.277 187.688C129.549 188.627 127.256 189.096 124.397 189.096C121.432 189.096 119.085 188.648 117.357 187.752C115.65 186.877 114.797 185.619 114.797 183.976C114.797 183.165 115.128 182.397 115.789 181.672C116.472 180.968 117.24 180.509 118.093 180.296C117.666 180.083 117.304 179.731 117.005 179.24C116.706 178.749 116.557 178.248 116.557 177.736C116.557 176.883 117.133 176.083 118.285 175.336C117.496 174.824 116.824 174.163 116.269 173.352C115.714 172.52 115.437 171.699 115.437 170.888C115.437 168.861 116.237 167.283 117.837 166.152C119.458 165.021 121.432 164.456 123.757 164.456C125.528 164.456 127.117 164.797 128.525 165.48C129.848 164.392 131.469 163.688 133.389 163.368L134.157 167.304C133.026 167.432 132.098 167.677 131.373 168.04C131.864 168.915 132.109 169.864 132.109 170.888C132.109 172.723 131.32 174.248 129.741 175.464C128.162 176.68 126.168 177.288 123.757 177.288C122.925 177.288 122.146 177.224 121.421 177.096C120.888 177.224 120.621 177.512 120.621 177.96C120.621 178.579 121.154 178.888 122.221 178.888ZM123.725 167.944C122.53 167.944 121.56 168.189 120.813 168.68C120.066 169.171 119.693 169.864 119.693 170.76C119.693 171.549 120.077 172.211 120.845 172.744C121.613 173.256 122.573 173.512 123.725 173.512C124.92 173.512 125.88 173.245 126.605 172.712C127.352 172.179 127.725 171.528 127.725 170.76C127.725 169.864 127.352 169.171 126.605 168.68C125.858 168.189 124.898 167.944 123.725 167.944ZM124.333 182.472C121.922 182.472 120.536 182.483 120.173 182.504C119.298 182.867 118.861 183.357 118.861 183.976C118.861 185.085 120.685 185.64 124.333 185.64C127.981 185.64 129.805 185.096 129.805 184.008C129.805 182.984 127.981 182.472 124.333 182.472ZM144.015 168.68V165.32L147.183 165.128L147.759 160.2H151.279V165H157.935V168.68H151.279V174.728C151.279 175.603 151.503 176.307 151.951 176.84C152.42 177.373 153.06 177.64 153.871 177.64C155.087 177.64 156.314 177.256 157.551 176.488L158.479 180.104C156.644 181.064 154.874 181.544 153.167 181.544C151.204 181.544 149.69 180.947 148.623 179.752C147.578 178.557 147.055 176.936 147.055 174.888V168.68H144.015ZM163.505 166.728C165.425 165.213 167.783 164.456 170.577 164.456C173.372 164.456 175.729 165.213 177.649 166.728C179.569 168.221 180.529 170.259 180.529 172.84C180.529 175.272 179.58 177.341 177.681 179.048C175.804 180.733 173.436 181.576 170.577 181.576C167.719 181.576 165.34 180.733 163.441 179.048C161.564 177.341 160.625 175.272 160.625 172.84C160.625 170.259 161.585 168.221 163.505 166.728ZM174.705 169.416C173.66 168.563 172.284 168.136 170.577 168.136C168.871 168.136 167.495 168.563 166.449 169.416C165.404 170.248 164.881 171.389 164.881 172.84C164.881 174.205 165.436 175.4 166.545 176.424C167.676 177.427 169.02 177.928 170.577 177.928C172.135 177.928 173.468 177.427 174.577 176.424C175.708 175.4 176.273 174.205 176.273 172.84C176.273 171.389 175.751 170.248 174.705 169.416ZM211.578 181L206.874 170.056L202.138 181H197.818L190.809 165H195.386L200.026 176.008L204.666 165H209.082L213.722 175.976L218.394 165H222.874L215.866 181H211.578ZM226.974 166.728C228.894 165.213 231.251 164.456 234.046 164.456C236.841 164.456 239.198 165.213 241.118 166.728C243.038 168.221 243.998 170.259 243.998 172.84C243.998 175.272 243.049 177.341 241.15 179.048C239.273 180.733 236.905 181.576 234.046 181.576C231.187 181.576 228.809 180.733 226.91 179.048C225.033 177.341 224.094 175.272 224.094 172.84C224.094 170.259 225.054 168.221 226.974 166.728ZM238.174 169.416C237.129 168.563 235.753 168.136 234.046 168.136C232.339 168.136 230.963 168.563 229.918 169.416C228.873 170.248 228.35 171.389 228.35 172.84C228.35 174.205 228.905 175.4 230.014 176.424C231.145 177.427 232.489 177.928 234.046 177.928C235.603 177.928 236.937 177.427 238.046 176.424C239.177 175.4 239.742 174.205 239.742 172.84C239.742 171.389 239.219 170.248 238.174 169.416ZM257.888 164.456C258.784 164.456 259.68 164.669 260.576 165.096L259.68 168.936C258.89 168.573 258.154 168.392 257.472 168.392C256.042 168.392 254.762 168.829 253.632 169.704C252.522 170.557 251.968 171.677 251.968 173.064V181H247.744V165H251.968V168.552C252.522 167.507 253.333 166.568 254.4 165.736C255.466 164.883 256.629 164.456 257.888 164.456ZM266.904 157V181H262.744V157H266.904ZM272.76 179.848L267.128 173.288L274.36 165H279.768L272.056 173.16L275.8 177.032C276.056 177.288 276.376 177.416 276.76 177.416C277.101 177.416 277.805 177.192 278.872 176.744L279.864 180.168C277.944 181 276.568 181.416 275.736 181.416C274.626 181.416 273.634 180.893 272.76 179.848Z" fill="#F1E3FF"></path><path d="M44.194 260L40.54 247.4H41.872L44.986 258.29L48.262 247.4H49.738L53.014 258.29L56.128 247.4H57.46L53.806 260H52.294L49 249.056L45.706 260H44.194ZM63.1204 250.784C64.2124 250.784 65.0704 251.12 65.6944 251.792C66.3304 252.452 66.6484 253.346 66.6484 254.474V260H65.4604V254.474C65.4604 253.67 65.2444 253.046 64.8124 252.602C64.3924 252.158 63.7924 251.936 63.0124 251.936C62.1484 251.936 61.4464 252.212 60.9064 252.764C60.3664 253.304 60.0964 254.144 60.0964 255.284V260H58.9084V247.4H60.0964V252.404C60.7684 251.324 61.7764 250.784 63.1204 250.784ZM76.6855 251H77.8735V260H76.6855V258.236C75.8575 259.556 74.6455 260.216 73.0495 260.216C71.7655 260.216 70.6675 259.76 69.7555 258.848C68.8555 257.936 68.4055 256.82 68.4055 255.5C68.4055 254.18 68.8555 253.064 69.7555 252.152C70.6675 251.24 71.7655 250.784 73.0495 250.784C74.6455 250.784 75.8575 251.444 76.6855 252.764V251ZM70.6195 258.038C71.3035 258.722 72.1435 259.064 73.1395 259.064C74.1355 259.064 74.9755 258.722 75.6595 258.038C76.3435 257.342 76.6855 256.496 76.6855 255.5C76.6855 254.504 76.3435 253.664 75.6595 252.98C74.9755 252.284 74.1355 251.936 73.1395 251.936C72.1435 251.936 71.3035 252.284 70.6195 252.98C69.9355 253.664 69.5935 254.504 69.5935 255.5C69.5935 256.496 69.9355 257.342 70.6195 258.038ZM85.1589 252.152H82.5669V257.606C82.5669 258.098 82.6629 258.452 82.8549 258.668C83.0469 258.872 83.3349 258.98 83.7189 258.992C84.1029 258.992 84.5829 258.98 85.1589 258.956V260C83.8989 260.192 82.9509 260.102 82.3149 259.73C81.6909 259.358 81.3789 258.65 81.3789 257.606V252.152H79.4889V251H81.3789V248.84L82.5669 248.48V251H85.1589V252.152ZM99.3789 247.4H100.567V260H99.3789V258.236C98.5509 259.556 97.3389 260.216 95.7429 260.216C94.4589 260.216 93.3609 259.76 92.4489 258.848C91.5489 257.936 91.0989 256.82 91.0989 255.5C91.0989 254.18 91.5489 253.064 92.4489 252.152C93.3609 251.24 94.4589 250.784 95.7429 250.784C97.3389 250.784 98.5509 251.444 99.3789 252.764V247.4ZM93.3129 258.038C93.9969 258.722 94.8369 259.064 95.8329 259.064C96.8289 259.064 97.6689 258.722 98.3529 258.038C99.0369 257.342 99.3789 256.496 99.3789 255.5C99.3789 254.504 99.0369 253.664 98.3529 252.98C97.6689 252.284 96.8289 251.936 95.8329 251.936C94.8369 251.936 93.9969 252.284 93.3129 252.98C92.6289 253.664 92.2869 254.504 92.2869 255.5C92.2869 256.496 92.6289 257.342 93.3129 258.038ZM104.288 248.84C104.12 249.008 103.916 249.092 103.676 249.092C103.436 249.092 103.232 249.008 103.064 248.84C102.896 248.672 102.812 248.468 102.812 248.228C102.812 247.988 102.896 247.784 103.064 247.616C103.232 247.448 103.436 247.364 103.676 247.364C103.916 247.364 104.12 247.448 104.288 247.616C104.456 247.784 104.54 247.988 104.54 248.228C104.54 248.468 104.456 248.672 104.288 248.84ZM103.082 260V251H104.27V260H103.082ZM114.531 247.4H115.719V260H114.531V258.236C113.703 259.556 112.491 260.216 110.895 260.216C109.611 260.216 108.513 259.76 107.601 258.848C106.701 257.936 106.251 256.82 106.251 255.5C106.251 254.18 106.701 253.064 107.601 252.152C108.513 251.24 109.611 250.784 110.895 250.784C112.491 250.784 113.703 251.444 114.531 252.764V247.4ZM108.465 258.038C109.149 258.722 109.989 259.064 110.985 259.064C111.981 259.064 112.821 258.722 113.505 258.038C114.189 257.342 114.531 256.496 114.531 255.5C114.531 254.504 114.189 253.664 113.505 252.98C112.821 252.284 111.981 251.936 110.985 251.936C109.989 251.936 109.149 252.284 108.465 252.98C107.781 253.664 107.439 254.504 107.439 255.5C107.439 256.496 107.781 257.342 108.465 258.038ZM129.215 251H130.475L126.623 260.828C126.275 261.716 125.777 262.412 125.129 262.916C124.493 263.432 123.779 263.66 122.987 263.6V262.484C124.067 262.604 124.889 261.98 125.453 260.612L125.687 260.054L121.655 251H122.915L126.299 258.542L129.215 251ZM139.101 258.866C138.189 259.766 137.073 260.216 135.753 260.216C134.433 260.216 133.311 259.766 132.387 258.866C131.475 257.954 131.019 256.832 131.019 255.5C131.019 254.168 131.475 253.052 132.387 252.152C133.311 251.24 134.433 250.784 135.753 250.784C137.073 250.784 138.189 251.24 139.101 252.152C140.025 253.052 140.487 254.168 140.487 255.5C140.487 256.832 140.025 257.954 139.101 258.866ZM133.233 258.038C133.917 258.722 134.757 259.064 135.753 259.064C136.749 259.064 137.589 258.722 138.273 258.038C138.957 257.342 139.299 256.496 139.299 255.5C139.299 254.504 138.957 253.664 138.273 252.98C137.589 252.284 136.749 251.936 135.753 251.936C134.757 251.936 133.917 252.284 133.233 252.98C132.549 253.664 132.207 254.504 132.207 255.5C132.207 256.496 132.549 257.342 133.233 258.038ZM148.811 251H149.999V260H148.811V258.596C148.139 259.676 147.131 260.216 145.787 260.216C144.695 260.216 143.831 259.886 143.195 259.226C142.571 258.554 142.259 257.654 142.259 256.526V251H143.447V256.526C143.447 257.33 143.657 257.954 144.077 258.398C144.509 258.842 145.115 259.064 145.895 259.064C146.759 259.064 147.461 258.794 148.001 258.254C148.541 257.702 148.811 256.856 148.811 255.716V251ZM157.948 253.358C157.948 253.766 158.128 254.09 158.488 254.33C158.848 254.57 159.286 254.756 159.802 254.888C160.318 255.02 160.834 255.17 161.35 255.338C161.866 255.494 162.304 255.764 162.664 256.148C163.024 256.52 163.204 257.012 163.204 257.624C163.204 258.392 162.898 259.016 162.286 259.496C161.686 259.976 160.906 260.216 159.946 260.216C159.082 260.216 158.344 260.024 157.732 259.64C157.132 259.256 156.712 258.758 156.472 258.146L157.48 257.552C157.648 258.02 157.948 258.392 158.38 258.668C158.824 258.932 159.346 259.064 159.946 259.064C160.534 259.064 161.026 258.95 161.422 258.722C161.818 258.482 162.016 258.116 162.016 257.624C162.016 257.216 161.836 256.892 161.476 256.652C161.116 256.412 160.678 256.226 160.162 256.094C159.646 255.962 159.13 255.818 158.614 255.662C158.098 255.494 157.66 255.224 157.3 254.852C156.94 254.468 156.76 253.97 156.76 253.358C156.76 252.626 157.048 252.014 157.624 251.522C158.212 251.03 158.95 250.784 159.838 250.784C160.57 250.784 161.212 250.952 161.764 251.288C162.316 251.612 162.724 252.056 162.988 252.62L161.998 253.196C161.65 252.356 160.93 251.936 159.838 251.936C159.322 251.936 158.878 252.062 158.506 252.314C158.134 252.554 157.948 252.902 157.948 253.358ZM172.662 251H173.85V260H172.662V258.236C171.834 259.556 170.622 260.216 169.026 260.216C167.742 260.216 166.644 259.76 165.732 258.848C164.832 257.936 164.382 256.82 164.382 255.5C164.382 254.18 164.832 253.064 165.732 252.152C166.644 251.24 167.742 250.784 169.026 250.784C170.622 250.784 171.834 251.444 172.662 252.764V251ZM166.596 258.038C167.28 258.722 168.12 259.064 169.116 259.064C170.112 259.064 170.952 258.722 171.636 258.038C172.32 257.342 172.662 256.496 172.662 255.5C172.662 254.504 172.32 253.664 171.636 252.98C170.952 252.284 170.112 251.936 169.116 251.936C168.12 251.936 167.28 252.284 166.596 252.98C165.912 253.664 165.57 254.504 165.57 255.5C165.57 256.496 165.912 257.342 166.596 258.038ZM182.845 251H184.105L180.253 260.828C179.905 261.716 179.407 262.412 178.759 262.916C178.123 263.432 177.409 263.66 176.617 263.6V262.484C177.697 262.604 178.519 261.98 179.083 260.612L179.317 260.054L175.285 251H176.545L179.929 258.542L182.845 251ZM187.885 256.58C187.885 255.992 188.005 255.458 188.245 254.978C188.485 254.486 188.773 254.072 189.109 253.736C189.445 253.4 189.781 253.076 190.117 252.764C190.453 252.452 190.741 252.11 190.981 251.738C191.221 251.354 191.341 250.946 191.341 250.514C191.341 249.818 191.101 249.296 190.621 248.948C190.153 248.588 189.547 248.408 188.803 248.408C187.327 248.408 186.415 249.014 186.067 250.226L185.005 249.632C185.281 248.828 185.761 248.222 186.445 247.814C187.141 247.394 187.927 247.184 188.803 247.184C189.859 247.184 190.753 247.478 191.485 248.066C192.229 248.642 192.601 249.458 192.601 250.514C192.601 251.03 192.481 251.51 192.241 251.954C192.001 252.398 191.713 252.788 191.377 253.124C191.041 253.448 190.705 253.772 190.369 254.096C190.033 254.42 189.745 254.798 189.505 255.23C189.265 255.65 189.145 256.1 189.145 256.58H187.885ZM189.217 259.892C189.025 260.084 188.791 260.18 188.515 260.18C188.239 260.18 188.005 260.084 187.813 259.892C187.621 259.7 187.525 259.466 187.525 259.19C187.525 258.914 187.621 258.68 187.813 258.488C188.005 258.296 188.239 258.2 188.515 258.2C188.791 258.2 189.025 258.296 189.217 258.488C189.409 258.68 189.505 258.914 189.505 259.19C189.505 259.466 189.409 259.7 189.217 259.892Z" fill="#E6D0FE"></path></svg> 