<?xml version="1.0" encoding="UTF-8"?> <svg xmlns="http://www.w3.org/2000/svg" width="400" height="600" viewBox="0 0 400 600" fill="none"><rect width="400" height="600" rx="20" fill="#106BD0"></rect><path d="M47.296 84.136L60.8 101H65.952V78.6H61.536V95.464L48.032 78.6H42.88V101H47.296V84.136ZM80.4918 97.768C77.4838 97.768 75.1478 96.456 74.5398 94.12H88.2998C88.4918 93.384 88.5878 92.648 88.5878 91.944C88.5878 87.624 84.9398 84.456 80.0758 84.456C74.7318 84.456 70.1878 87.656 70.1878 93C70.1878 97.8 74.1238 101.576 80.0758 101.576C83.0198 101.576 86.0278 100.584 88.1718 99.496L86.9237 96.168C84.6518 97.352 82.6678 97.768 80.4918 97.768ZM79.8198 88.008C82.3158 88.008 83.9158 89.128 84.3318 91.016H74.6358C75.2758 89.064 77.0677 88.008 79.8198 88.008ZM94.39 85H89.75L97.302 101H101.942L109.526 85H104.822L99.638 96.232L94.39 85ZM121.179 97.768C118.171 97.768 115.835 96.456 115.227 94.12H128.987C129.179 93.384 129.275 92.648 129.275 91.944C129.275 87.624 125.627 84.456 120.763 84.456C115.419 84.456 110.875 87.656 110.875 93C110.875 97.8 114.811 101.576 120.763 101.576C123.707 101.576 126.715 100.584 128.859 99.496L127.611 96.168C125.339 97.352 123.355 97.768 121.179 97.768ZM120.507 88.008C123.003 88.008 124.603 89.128 125.019 91.016H115.323C115.963 89.064 117.755 88.008 120.507 88.008ZM142.982 84.456C140.198 84.456 137.99 86.824 137.062 88.552V85H132.838V101H137.062V93.064C137.062 90.12 139.91 88.392 142.566 88.392C143.174 88.392 144.006 88.584 144.774 88.936L145.67 85.096C144.87 84.712 143.878 84.456 142.982 84.456ZM166.436 88.424C168.964 88.424 170.276 89.992 170.276 92.264V101H174.5V91.752C174.5 87.4 172.004 84.52 167.652 84.52C164.612 84.52 162.244 86.472 161.124 88.552V77.288H156.9V101H161.124V93.064C161.124 89.896 163.78 88.424 166.436 88.424ZM184.75 91.88C181.454 91.88 178.19 93.352 178.19 96.776C178.19 99.656 180.43 101.64 183.438 101.64C186.158 101.64 188.59 100.168 190.126 98.344C190.19 100.136 191.086 101.64 193.23 101.64C194.542 101.64 196.462 101 198.222 100.04L197.358 96.776C196.43 97.256 195.598 97.608 195.118 97.608C194.67 97.608 194.35 97.32 194.35 96.84V91.08C194.35 86.696 191.79 84.36 187.406 84.36C184.878 84.36 181.518 85.352 179.534 85.992L180.59 89.832C182.926 88.968 185.358 88.232 187.022 88.232C189.038 88.232 190.126 89.352 190.126 91.016V92.872C188.75 92.392 186.478 91.88 184.75 91.88ZM184.814 98.024C183.47 98.024 182.51 97.48 182.51 96.424C182.51 95.272 183.566 94.6 184.974 94.6C186.51 94.6 188.366 94.76 190.126 95.08V95.688C188.622 97.16 186.414 98.024 184.814 98.024ZM202.859 85H198.219L205.771 101H210.411L217.995 85H213.291L208.107 96.232L202.859 85ZM229.648 97.768C226.64 97.768 224.304 96.456 223.696 94.12H237.456C237.648 93.384 237.744 92.648 237.744 91.944C237.744 87.624 234.096 84.456 229.232 84.456C223.888 84.456 219.344 87.656 219.344 93C219.344 97.8 223.28 101.576 229.232 101.576C232.176 101.576 235.184 100.584 237.328 99.496L236.08 96.168C233.808 97.352 231.824 97.768 229.648 97.768ZM228.976 88.008C231.472 88.008 233.072 89.128 233.488 91.016H223.792C224.432 89.064 226.224 88.008 228.976 88.008ZM255.265 78.6H250.849V101H255.265V78.6ZM278.867 97.768C275.859 97.768 273.523 96.456 272.915 94.12H286.675C286.867 93.384 286.963 92.648 286.963 91.944C286.963 87.624 283.315 84.456 278.451 84.456C273.107 84.456 268.563 87.656 268.563 93C268.563 97.8 272.499 101.576 278.451 101.576C281.395 101.576 284.403 100.584 286.547 99.496L285.299 96.168C283.027 97.352 281.043 97.768 278.867 97.768ZM278.195 88.008C280.691 88.008 282.291 89.128 282.707 91.016H273.011C273.651 89.064 275.443 88.008 278.195 88.008ZM292.765 85H288.125L295.677 101H300.317L307.901 85H303.197L298.013 96.232L292.765 85ZM319.554 97.768C316.546 97.768 314.21 96.456 313.602 94.12H327.362C327.554 93.384 327.65 92.648 327.65 91.944C327.65 87.624 324.002 84.456 319.138 84.456C313.794 84.456 309.25 87.656 309.25 93C309.25 97.8 313.186 101.576 319.138 101.576C322.082 101.576 325.09 100.584 327.234 99.496L325.986 96.168C323.714 97.352 321.73 97.768 319.554 97.768ZM318.882 88.008C321.378 88.008 322.978 89.128 323.394 91.016H313.698C314.338 89.064 316.13 88.008 318.882 88.008ZM341.357 84.456C338.573 84.456 336.365 86.824 335.437 88.552V85H331.213V101H335.437V93.064C335.437 90.12 338.285 88.392 340.941 88.392C341.549 88.392 342.381 88.584 343.149 88.936L344.045 85.096C343.245 84.712 342.253 84.456 341.357 84.456ZM53.376 124.456C50.208 124.456 47.68 126.344 46.624 128.552V117H42.4V139.4C44.48 140.328 48.832 141.576 52.032 141.576C57.28 141.576 61.312 137.64 61.312 132.84C61.312 127.656 57.632 124.456 53.376 124.456ZM52.128 128.392C54.912 128.392 57.056 129.96 57.056 132.84C57.056 135.528 54.72 137.864 52.096 137.864C50.144 137.864 48.48 137.544 46.624 136.936V133.064C46.624 130.12 49.44 128.392 52.128 128.392ZM75.2003 124.456C72.4163 124.456 70.2083 126.824 69.2803 128.552V125H65.0563V141H69.2803V133.064C69.2803 130.12 72.1283 128.392 74.7843 128.392C75.3923 128.392 76.2243 128.584 76.9923 128.936L77.8883 125.096C77.0883 124.712 76.0963 124.456 75.2003 124.456ZM88.9523 124.456C83.6083 124.456 79.0003 127.496 79.0003 132.84C79.0003 137.64 83.1603 141.576 88.9523 141.576C94.7443 141.576 98.9043 137.64 98.9043 132.84C98.9043 127.496 94.2963 124.456 88.9523 124.456ZM88.9523 128.136C92.2803 128.136 94.6483 129.864 94.6483 132.84C94.6483 135.528 92.1203 137.928 88.9523 137.928C85.7843 137.928 83.2563 135.528 83.2563 132.84C83.2563 129.864 85.6243 128.136 88.9523 128.136ZM106.81 117H102.65V141H106.81V117ZM112.666 139.848C113.53 140.872 114.554 141.416 115.642 141.416C116.922 141.416 118.298 140.808 119.77 140.168L118.778 136.744C118.01 137.064 117.306 137.416 116.666 137.416C116.314 137.416 115.994 137.32 115.706 137.032L111.962 133.16L119.674 125H114.266L107.034 133.288L112.666 139.848ZM132.211 137.768C129.203 137.768 126.867 136.456 126.259 134.12H140.019C140.211 133.384 140.307 132.648 140.307 131.944C140.307 127.624 136.659 124.456 131.795 124.456C126.451 124.456 121.907 127.656 121.907 133C121.907 137.8 125.843 141.576 131.795 141.576C134.739 141.576 137.747 140.584 139.891 139.496L138.642 136.168C136.371 137.352 134.387 137.768 132.211 137.768ZM131.539 128.008C134.035 128.008 135.635 129.128 136.051 131.016H126.355C126.995 129.064 128.786 128.008 131.539 128.008ZM153.405 128.424C155.933 128.424 157.245 129.992 157.245 132.264V141H161.469V131.752C161.469 127.4 158.973 124.52 154.621 124.52C151.581 124.52 149.213 126.472 148.093 128.552V125H143.869V141H148.093V133.064C148.093 129.896 150.749 128.424 153.405 128.424ZM180.781 131.88C177.485 131.88 174.221 133.352 174.221 136.776C174.221 139.656 176.461 141.64 179.469 141.64C182.189 141.64 184.621 140.168 186.157 138.344C186.221 140.136 187.117 141.64 189.261 141.64C190.573 141.64 192.493 141 194.253 140.04L193.389 136.776C192.461 137.256 191.629 137.608 191.149 137.608C190.701 137.608 190.381 137.32 190.381 136.84V131.08C190.381 126.696 187.821 124.36 183.437 124.36C180.909 124.36 177.549 125.352 175.565 125.992L176.621 129.832C178.957 128.968 181.389 128.232 183.053 128.232C185.069 128.232 186.157 129.352 186.157 131.016V132.872C184.781 132.392 182.509 131.88 180.781 131.88ZM180.845 138.024C179.501 138.024 178.541 137.48 178.541 136.424C178.541 135.272 179.597 134.6 181.005 134.6C182.541 134.6 184.397 134.76 186.157 135.08V135.688C184.653 137.16 182.445 138.024 180.845 138.024ZM216.689 124.456C213.521 124.456 210.993 126.344 209.937 128.552V117H205.713V139.4C207.793 140.328 212.145 141.576 215.345 141.576C220.593 141.576 224.625 137.64 224.625 132.84C224.625 127.656 220.944 124.456 216.689 124.456ZM215.441 128.392C218.225 128.392 220.369 129.96 220.369 132.84C220.369 135.528 218.033 137.864 215.409 137.864C213.457 137.864 211.793 137.544 209.937 136.936V133.064C209.937 130.12 212.753 128.392 215.441 128.392ZM237.265 124.456C231.921 124.456 227.313 127.496 227.313 132.84C227.313 137.64 231.473 141.576 237.265 141.576C243.057 141.576 247.217 137.64 247.217 132.84C247.217 127.496 242.609 124.456 237.265 124.456ZM237.265 128.136C240.593 128.136 242.961 129.864 242.961 132.84C242.961 135.528 240.433 137.928 237.265 137.928C234.097 137.928 231.569 135.528 231.569 132.84C231.569 129.864 233.937 128.136 237.265 128.136ZM260.499 128.424C263.027 128.424 264.339 129.992 264.339 132.264V141H268.562V131.752C268.562 127.4 266.067 124.52 261.715 124.52C258.675 124.52 256.307 126.472 255.187 128.552V125H250.963V141H255.187V133.064C255.187 129.896 257.843 128.424 260.499 128.424ZM282.461 137.768C279.453 137.768 277.117 136.456 276.509 134.12H290.269C290.461 133.384 290.557 132.648 290.557 131.944C290.557 127.624 286.909 124.456 282.045 124.456C276.701 124.456 272.157 127.656 272.157 133C272.157 137.8 276.093 141.576 282.045 141.576C284.989 141.576 287.997 140.584 290.141 139.496L288.892 136.168C286.621 137.352 284.637 137.768 282.461 137.768ZM281.789 128.008C284.285 128.008 285.885 129.128 286.301 131.016H276.605C277.245 129.064 279.036 128.008 281.789 128.008Z" fill="#CDE4FD"></path></svg> 