<?xml version="1.0" encoding="UTF-8"?> <svg xmlns="http://www.w3.org/2000/svg" width="600" height="400" viewBox="0 0 600 400" fill="none"> <rect width="600" height="400" rx="20" fill="url(#paint0_linear_136_341)"></rect> <path d="M56.6777 208V192.16H61.7267C61.8587 192.16 62.119 192.164 62.5077 192.171C62.9037 192.178 63.285 192.204 63.6517 192.248C64.9057 192.409 65.9654 192.857 66.8307 193.59C67.7034 194.316 68.3634 195.244 68.8107 196.373C69.258 197.502 69.4817 198.738 69.4817 200.08C69.4817 201.422 69.258 202.658 68.8107 203.787C68.3634 204.916 67.7034 205.848 66.8307 206.581C65.9654 207.307 64.9057 207.751 63.6517 207.912C63.2924 207.956 62.9147 207.982 62.5187 207.989C62.1227 207.996 61.8587 208 61.7267 208H56.6777ZM59.3727 205.503H61.7267C61.9467 205.503 62.2254 205.496 62.5627 205.481C62.9074 205.466 63.2117 205.433 63.4757 205.382C64.2237 205.243 64.8324 204.909 65.3017 204.381C65.771 203.853 66.1157 203.211 66.3357 202.456C66.563 201.701 66.6767 200.909 66.6767 200.08C66.6767 199.222 66.563 198.415 66.3357 197.66C66.1084 196.905 65.7564 196.27 65.2797 195.757C64.8104 195.244 64.209 194.917 63.4757 194.778C63.2117 194.719 62.9074 194.686 62.5627 194.679C62.2254 194.664 61.9467 194.657 61.7267 194.657H59.3727V205.503ZM78.781 208.33C77.197 208.33 75.8403 207.985 74.711 207.296C73.5817 206.599 72.7127 205.631 72.104 204.392C71.5027 203.153 71.202 201.715 71.202 200.08C71.202 198.445 71.5027 197.007 72.104 195.768C72.7127 194.529 73.5817 193.564 74.711 192.875C75.8403 192.178 77.197 191.83 78.781 191.83C80.365 191.83 81.7217 192.178 82.851 192.875C83.9877 193.564 84.8567 194.529 85.458 195.768C86.0667 197.007 86.371 198.445 86.371 200.08C86.371 201.715 86.0667 203.153 85.458 204.392C84.8567 205.631 83.9877 206.599 82.851 207.296C81.7217 207.985 80.365 208.33 78.781 208.33ZM78.781 205.833C79.8443 205.84 80.728 205.606 81.432 205.129C82.1433 204.652 82.675 203.981 83.027 203.116C83.3863 202.251 83.566 201.239 83.566 200.08C83.566 198.921 83.3863 197.917 83.027 197.066C82.675 196.208 82.1433 195.541 81.432 195.064C80.728 194.587 79.8443 194.342 78.781 194.327C77.7177 194.32 76.834 194.554 76.13 195.031C75.426 195.508 74.8943 196.179 74.535 197.044C74.183 197.909 74.007 198.921 74.007 200.08C74.007 201.239 74.183 202.247 74.535 203.105C74.887 203.956 75.415 204.619 76.119 205.096C76.8303 205.573 77.7177 205.818 78.781 205.833ZM99.6638 208.33C98.0798 208.33 96.7231 207.985 95.5938 207.296C94.4645 206.599 93.5955 205.631 92.9868 204.392C92.3855 203.153 92.0848 201.715 92.0848 200.08C92.0848 198.445 92.3855 197.007 92.9868 195.768C93.5955 194.529 94.4645 193.564 95.5938 192.875C96.7231 192.178 98.0798 191.83 99.6638 191.83C101.248 191.83 102.604 192.178 103.734 192.875C104.87 193.564 105.739 194.529 106.341 195.768C106.949 197.007 107.254 198.445 107.254 200.08C107.254 201.715 106.949 203.153 106.341 204.392C105.739 205.631 104.87 206.599 103.734 207.296C102.604 207.985 101.248 208.33 99.6638 208.33ZM99.6638 205.833C100.727 205.84 101.611 205.606 102.315 205.129C103.026 204.652 103.558 203.981 103.91 203.116C104.269 202.251 104.449 201.239 104.449 200.08C104.449 198.921 104.269 197.917 103.91 197.066C103.558 196.208 103.026 195.541 102.315 195.064C101.611 194.587 100.727 194.342 99.6638 194.327C98.6005 194.32 97.7168 194.554 97.0128 195.031C96.3088 195.508 95.7771 196.179 95.4178 197.044C95.0658 197.909 94.8898 198.921 94.8898 200.08C94.8898 201.239 95.0658 202.247 95.4178 203.105C95.7698 203.956 96.2978 204.619 97.0018 205.096C97.7131 205.573 98.6005 205.818 99.6638 205.833ZM109.443 208V192.16H112.127L119.475 203.325V192.16H122.159V208H119.475L112.127 196.835V208H109.443ZM125.454 208V192.16H128.105V205.514H135.101V208H125.454ZM138.623 208V201.51L133.233 192.16H136.324L139.965 198.474L143.595 192.16H146.686L141.307 201.51V208H138.623ZM151.746 208V192.16H154.133L159.611 203.38L165.089 192.16H167.476V208H165.001V197.847L160.139 208H159.083L154.232 197.847V208H151.746ZM170.566 208V192.16H180.796V194.646H173.217V198.551H179.476V201.037H173.217V205.514H180.796V208H170.566ZM183.436 208V192.16H186.12L193.468 203.325V192.16H196.152V208H193.468L186.12 196.835V208H183.436ZM203.631 208V192.16H206.282V198.826H213.784V192.16H216.424V208H213.784V201.312H206.282V208H203.631ZM218.408 208L223.402 192.16H227.285L232.279 208H229.551L225.019 193.788H225.613L221.136 208H218.408ZM221.191 204.568V202.093H229.507V204.568H221.191ZM236.285 208L231.291 192.16H234.019L238.199 205.426L242.434 192.16H245.162L240.168 208H236.285ZM246.814 208V192.16H257.044V194.646H249.465V198.551H255.724V201.037H249.465V205.514H257.044V208H246.814ZM267.894 208V194.646H262.768V192.16H275.671V194.646H270.545V208H267.894ZM284.129 208.33C282.545 208.33 281.188 207.985 280.059 207.296C278.929 206.599 278.06 205.631 277.452 204.392C276.85 203.153 276.55 201.715 276.55 200.08C276.55 198.445 276.85 197.007 277.452 195.768C278.06 194.529 278.929 193.564 280.059 192.875C281.188 192.178 282.545 191.83 284.129 191.83C285.713 191.83 287.069 192.178 288.199 192.875C289.335 193.564 290.204 194.529 290.806 195.768C291.414 197.007 291.719 198.445 291.719 200.08C291.719 201.715 291.414 203.153 290.806 204.392C290.204 205.631 289.335 206.599 288.199 207.296C287.069 207.985 285.713 208.33 284.129 208.33ZM284.129 205.833C285.192 205.84 286.076 205.606 286.78 205.129C287.491 204.652 288.023 203.981 288.375 203.116C288.734 202.251 288.914 201.239 288.914 200.08C288.914 198.921 288.734 197.917 288.375 197.066C288.023 196.208 287.491 195.541 286.78 195.064C286.076 194.587 285.192 194.342 284.129 194.327C283.065 194.32 282.182 194.554 281.478 195.031C280.774 195.508 280.242 196.179 279.883 197.044C279.531 197.909 279.355 198.921 279.355 200.08C279.355 201.239 279.531 202.247 279.883 203.105C280.235 203.956 280.763 204.619 281.467 205.096C282.178 205.573 283.065 205.818 284.129 205.833ZM298.312 208V192.16H300.699L306.177 203.38L311.655 192.16H314.042V208H311.567V197.847L306.705 208H305.649L300.798 197.847V208H298.312ZM316.033 208L321.027 192.16H324.91L329.904 208H327.176L322.644 193.788H323.238L318.761 208H316.033ZM318.816 204.568V202.093H327.132V204.568H318.816ZM331.893 208V192.16H334.544V199.508L340.869 192.16H344.125L337.316 199.926L344.587 208H341.221L334.544 200.608V208H331.893ZM346.137 208V192.16H356.367V194.646H348.788V198.551H355.047V201.037H348.788V205.514H356.367V208H346.137ZM367.216 208V194.646H362.09V192.16H374.993V194.646H369.867V208H367.216ZM376.752 208V192.16H379.403V198.826H386.905V192.16H389.545V208H386.905V201.312H379.403V208H376.752ZM392.629 208V192.16H402.859V194.646H395.28V198.551H401.539V201.037H395.28V205.514H402.859V208H392.629ZM409.902 208V192.16H419.439V194.811H412.553V198.76H418.119V201.4H412.553V208H409.902ZM421.638 208V192.16H424.289V208H421.638ZM427.584 208V192.16H434.129C434.283 192.16 434.481 192.167 434.723 192.182C434.965 192.189 435.189 192.211 435.394 192.248C436.311 192.387 437.066 192.692 437.66 193.161C438.261 193.63 438.705 194.224 438.991 194.943C439.284 195.654 439.431 196.446 439.431 197.319C439.431 198.61 439.105 199.721 438.452 200.652C437.799 201.576 436.798 202.148 435.449 202.368L434.316 202.467H430.235V208H427.584ZM436.681 208L433.557 201.554L436.252 200.96L439.684 208H436.681ZM430.235 199.992H434.019C434.166 199.992 434.331 199.985 434.514 199.97C434.697 199.955 434.866 199.926 435.02 199.882C435.46 199.772 435.805 199.578 436.054 199.299C436.311 199.02 436.49 198.705 436.593 198.353C436.703 198.001 436.758 197.656 436.758 197.319C436.758 196.982 436.703 196.637 436.593 196.285C436.49 195.926 436.311 195.607 436.054 195.328C435.805 195.049 435.46 194.855 435.02 194.745C434.866 194.701 434.697 194.675 434.514 194.668C434.331 194.653 434.166 194.646 434.019 194.646H430.235V199.992ZM447.97 208.33C446.812 208.33 445.767 208.128 444.835 207.725C443.911 207.322 443.149 206.746 442.547 205.998C441.953 205.243 441.576 204.348 441.414 203.314L444.164 202.896C444.399 203.835 444.879 204.561 445.605 205.074C446.339 205.587 447.182 205.844 448.135 205.844C448.7 205.844 449.232 205.756 449.73 205.58C450.229 205.404 450.632 205.147 450.94 204.81C451.256 204.473 451.413 204.058 451.413 203.567C451.413 203.347 451.377 203.145 451.303 202.962C451.23 202.771 451.12 202.603 450.973 202.456C450.834 202.309 450.651 202.177 450.423 202.06C450.203 201.935 449.947 201.829 449.653 201.741L445.561 200.531C445.209 200.428 444.828 200.293 444.417 200.124C444.014 199.948 443.629 199.71 443.262 199.409C442.903 199.101 442.606 198.712 442.371 198.243C442.144 197.766 442.03 197.18 442.03 196.483C442.03 195.464 442.287 194.609 442.8 193.92C443.321 193.223 444.018 192.703 444.89 192.358C445.77 192.013 446.746 191.845 447.816 191.852C448.902 191.859 449.87 192.046 450.72 192.413C451.571 192.772 452.282 193.297 452.854 193.986C453.426 194.675 453.83 195.508 454.064 196.483L451.215 196.978C451.098 196.421 450.871 195.948 450.533 195.559C450.203 195.163 449.796 194.862 449.312 194.657C448.836 194.452 448.326 194.342 447.783 194.327C447.255 194.32 446.764 194.4 446.309 194.569C445.862 194.73 445.499 194.965 445.22 195.273C444.949 195.581 444.813 195.94 444.813 196.351C444.813 196.74 444.931 197.059 445.165 197.308C445.4 197.55 445.69 197.744 446.034 197.891C446.386 198.03 446.742 198.148 447.101 198.243L449.939 199.035C450.328 199.138 450.764 199.277 451.248 199.453C451.732 199.629 452.198 199.875 452.645 200.19C453.093 200.505 453.459 200.92 453.745 201.433C454.039 201.946 454.185 202.599 454.185 203.391C454.185 204.212 454.013 204.935 453.668 205.558C453.331 206.174 452.873 206.687 452.293 207.098C451.714 207.509 451.05 207.817 450.302 208.022C449.562 208.227 448.784 208.33 447.97 208.33ZM460.372 208V194.646H455.246V192.16H468.149V194.646H463.023V208H460.372ZM473.646 208V192.16H476.033L481.511 203.38L486.989 192.16H489.376V208H486.901V197.847L482.039 208H480.983L476.132 197.847V208H473.646ZM499.166 208.33C497.582 208.33 496.225 207.985 495.096 207.296C493.966 206.599 493.097 205.631 492.489 204.392C491.887 203.153 491.587 201.715 491.587 200.08C491.587 198.445 491.887 197.007 492.489 195.768C493.097 194.529 493.966 193.564 495.096 192.875C496.225 192.178 497.582 191.83 499.166 191.83C500.75 191.83 502.106 192.178 503.236 192.875C504.372 193.564 505.241 194.529 505.843 195.768C506.451 197.007 506.756 198.445 506.756 200.08C506.756 201.715 506.451 203.153 505.843 204.392C505.241 205.631 504.372 206.599 503.236 207.296C502.106 207.985 500.75 208.33 499.166 208.33ZM499.166 205.833C500.229 205.84 501.113 205.606 501.817 205.129C502.528 204.652 503.06 203.981 503.412 203.116C503.771 202.251 503.951 201.239 503.951 200.08C503.951 198.921 503.771 197.917 503.412 197.066C503.06 196.208 502.528 195.541 501.817 195.064C501.113 194.587 500.229 194.342 499.166 194.327C498.102 194.32 497.219 194.554 496.515 195.031C495.811 195.508 495.279 196.179 494.92 197.044C494.568 197.909 494.392 198.921 494.392 200.08C494.392 201.239 494.568 202.247 494.92 203.105C495.272 203.956 495.8 204.619 496.504 205.096C497.215 205.573 498.102 205.818 499.166 205.833ZM511.843 208L506.849 192.16H509.577L513.757 205.426L517.992 192.16H520.72L515.726 208H511.843ZM522.373 208V192.16H532.603V194.646H525.024V198.551H531.283V201.037H525.024V205.514H532.603V208H522.373ZM538.113 203.699C538.113 203.193 538.161 202.705 538.256 202.236C538.359 201.759 538.524 201.319 538.751 200.916C538.949 200.527 539.169 200.219 539.411 199.992C539.653 199.757 539.924 199.526 540.225 199.299C540.526 199.064 540.859 198.753 541.226 198.364C541.527 198.034 541.725 197.708 541.82 197.385C541.915 197.055 541.963 196.703 541.963 196.329C541.963 196.087 541.937 195.86 541.886 195.647C541.835 195.434 541.743 195.251 541.611 195.097C541.406 194.826 541.142 194.635 540.819 194.525C540.496 194.408 540.152 194.349 539.785 194.349C539.484 194.349 539.195 194.389 538.916 194.47C538.645 194.543 538.414 194.661 538.223 194.822C538.003 194.998 537.842 195.214 537.739 195.471C537.636 195.728 537.589 196.01 537.596 196.318H534.802C534.875 195.585 535.073 194.906 535.396 194.283C535.726 193.652 536.159 193.15 536.694 192.776C537.112 192.468 537.581 192.237 538.102 192.083C538.63 191.929 539.158 191.852 539.686 191.852C540.493 191.852 541.252 191.977 541.963 192.226C542.682 192.475 543.279 192.886 543.756 193.458C544.086 193.832 544.335 194.265 544.504 194.756C544.68 195.247 544.768 195.746 544.768 196.252C544.768 197.007 544.603 197.697 544.273 198.32C543.95 198.943 543.54 199.519 543.041 200.047C542.806 200.296 542.583 200.516 542.37 200.707C542.157 200.898 541.959 201.085 541.776 201.268C541.6 201.444 541.453 201.631 541.336 201.829C541.131 202.174 541.01 202.467 540.973 202.709C540.936 202.944 540.918 203.274 540.918 203.699H538.113ZM538.135 208V205.085H540.918V208H538.135Z" fill="white"></path> <rect x="20" y="20" width="143" height="40" rx="20" fill="white" fill-opacity="0.3"></rect> <path d="M33.2841 46V34.48H37.8361C37.9481 34.48 38.0814 34.4853 38.2361 34.496C38.3907 34.5013 38.5401 34.5173 38.6841 34.544C39.3081 34.64 39.8307 34.8533 40.2521 35.184C40.6787 35.5147 40.9987 35.9333 41.2121 36.44C41.4254 36.9413 41.5321 37.4987 41.5321 38.112C41.5321 39.0027 41.3001 39.776 40.8361 40.432C40.3721 41.0827 39.6921 41.4907 38.7961 41.656L38.2521 41.744H34.7081V46H33.2841ZM40.1401 46L37.8681 41.312L39.2761 40.88L41.7721 46H40.1401ZM34.7081 40.392H37.7881C37.8894 40.392 38.0041 40.3867 38.1321 40.376C38.2654 40.3653 38.3907 40.3467 38.5081 40.32C38.8761 40.2347 39.1747 40.08 39.4041 39.856C39.6387 39.6267 39.8094 39.36 39.9161 39.056C40.0227 38.7467 40.0761 38.432 40.0761 38.112C40.0761 37.792 40.0227 37.48 39.9161 37.176C39.8094 36.8667 39.6387 36.5973 39.4041 36.368C39.1747 36.1387 38.8761 35.984 38.5081 35.904C38.3907 35.872 38.2654 35.8533 38.1321 35.848C38.0041 35.8373 37.8894 35.832 37.7881 35.832H34.7081V40.392ZM43.5341 46V34.48H50.8141V35.832H44.9581V39.44H49.8541V40.792H44.9581V44.648H50.8141V46H43.5341ZM52.8972 46V34.48H54.3212V44.648H59.6652V46H52.8972ZM60.2184 46L64.0744 34.48H66.0584L69.9144 46H68.4344L64.8264 35.312H65.2744L61.6984 46H60.2184ZM62.0744 43.304V41.968H68.0584V43.304H62.0744ZM73.3614 46V35.832H69.4334V34.48H78.7134V35.832H74.7854V46H73.3614ZM80.1472 46V34.48H81.5712V46H80.1472ZM88.7076 46.24C87.5609 46.24 86.5876 45.9867 85.7876 45.48C84.9876 44.9733 84.3769 44.2693 83.9556 43.368C83.5396 42.4667 83.3316 41.424 83.3316 40.24C83.3316 39.056 83.5396 38.0133 83.9556 37.112C84.3769 36.2107 84.9876 35.5067 85.7876 35C86.5876 34.4933 87.5609 34.24 88.7076 34.24C89.8596 34.24 90.8356 34.4933 91.6356 35C92.4356 35.5067 93.0436 36.2107 93.4596 37.112C93.8756 38.0133 94.0836 39.056 94.0836 40.24C94.0836 41.424 93.8756 42.4667 93.4596 43.368C93.0436 44.2693 92.4356 44.9733 91.6356 45.48C90.8356 45.9867 89.8596 46.24 88.7076 46.24ZM88.7076 44.88C89.5662 44.8853 90.2809 44.6933 90.8516 44.304C91.4276 43.9093 91.8569 43.3627 92.1396 42.664C92.4276 41.9653 92.5716 41.1573 92.5716 40.24C92.5716 39.3173 92.4276 38.5093 92.1396 37.816C91.8569 37.1227 91.4276 36.5813 90.8516 36.192C90.2809 35.8027 89.5662 35.6053 88.7076 35.6C87.8489 35.5947 87.1342 35.7867 86.5636 36.176C85.9982 36.5653 85.5716 37.1093 85.2836 37.808C84.9956 38.5067 84.8489 39.3173 84.8436 40.24C84.8382 41.1573 84.9796 41.9627 85.2676 42.656C85.5556 43.3493 85.9849 43.8933 86.5556 44.288C87.1316 44.6773 87.8489 44.8747 88.7076 44.88ZM95.6903 46V34.48H97.1303L103.138 43.48V34.48H104.578V46H103.138L97.1303 36.992V46H95.6903ZM110.903 46.24C110.087 46.24 109.351 46.1013 108.695 45.824C108.045 45.5467 107.506 45.152 107.079 44.64C106.658 44.1227 106.383 43.512 106.255 42.808L107.727 42.576C107.914 43.3013 108.301 43.8693 108.887 44.28C109.479 44.6853 110.175 44.888 110.975 44.888C111.493 44.888 111.959 44.808 112.375 44.648C112.797 44.4827 113.13 44.248 113.375 43.944C113.621 43.64 113.743 43.28 113.743 42.864C113.743 42.608 113.698 42.3893 113.607 42.208C113.522 42.0213 113.402 41.864 113.247 41.736C113.098 41.6027 112.927 41.4907 112.735 41.4C112.543 41.3093 112.343 41.2347 112.135 41.176L109.199 40.304C108.879 40.208 108.57 40.088 108.271 39.944C107.973 39.7947 107.706 39.6107 107.471 39.392C107.237 39.168 107.05 38.9013 106.911 38.592C106.773 38.2773 106.703 37.9067 106.703 37.48C106.703 36.7973 106.879 36.216 107.231 35.736C107.589 35.2507 108.071 34.88 108.679 34.624C109.287 34.368 109.973 34.2427 110.735 34.248C111.509 34.2533 112.199 34.392 112.807 34.664C113.421 34.9307 113.927 35.3147 114.327 35.816C114.733 36.3173 115.005 36.9173 115.143 37.616L113.631 37.88C113.551 37.4107 113.373 37.008 113.095 36.672C112.823 36.3307 112.482 36.0693 112.071 35.888C111.661 35.7013 111.21 35.6053 110.719 35.6C110.25 35.5947 109.826 35.6693 109.447 35.824C109.069 35.9787 108.767 36.1947 108.543 36.472C108.319 36.744 108.207 37.0587 108.207 37.416C108.207 37.768 108.309 38.0533 108.511 38.272C108.714 38.4853 108.962 38.656 109.255 38.784C109.554 38.9067 109.845 39.008 110.127 39.088L112.319 39.72C112.57 39.7893 112.858 39.8853 113.183 40.008C113.514 40.1307 113.834 40.304 114.143 40.528C114.453 40.7467 114.709 41.04 114.911 41.408C115.114 41.7707 115.215 42.2293 115.215 42.784C115.215 43.3387 115.103 43.832 114.879 44.264C114.661 44.696 114.354 45.0587 113.959 45.352C113.565 45.64 113.106 45.8587 112.583 46.008C112.061 46.1627 111.501 46.24 110.903 46.24ZM116.893 46V34.48H118.317V39.56H124.381V34.48H125.805V46H124.381V40.912H118.317V46H116.893ZM128.21 46V34.48H129.634V46H128.21ZM132.034 46V34.48H136.586C136.698 34.48 136.831 34.4853 136.986 34.496C137.141 34.5013 137.29 34.5173 137.434 34.544C138.058 34.64 138.581 34.8533 139.002 35.184C139.429 35.5147 139.749 35.9333 139.962 36.44C140.175 36.9413 140.282 37.4987 140.282 38.112C140.282 38.72 140.173 39.2773 139.954 39.784C139.741 40.2853 139.421 40.704 138.994 41.04C138.573 41.3707 138.053 41.584 137.434 41.68C137.29 41.7013 137.141 41.7173 136.986 41.728C136.831 41.7387 136.698 41.744 136.586 41.744H133.458V46H132.034ZM133.458 40.392H136.538C136.639 40.392 136.754 40.3867 136.882 40.376C137.015 40.3653 137.141 40.3467 137.258 40.32C137.626 40.2347 137.925 40.08 138.154 39.856C138.389 39.6267 138.559 39.36 138.666 39.056C138.773 38.7467 138.826 38.432 138.826 38.112C138.826 37.792 138.773 37.48 138.666 37.176C138.559 36.8667 138.389 36.5973 138.154 36.368C137.925 36.1387 137.626 35.984 137.258 35.904C137.141 35.872 137.015 35.8533 136.882 35.848C136.754 35.8373 136.639 35.832 136.538 35.832H133.458V40.392ZM145.966 46.24C145.15 46.24 144.414 46.1013 143.758 45.824C143.107 45.5467 142.568 45.152 142.142 44.64C141.72 44.1227 141.446 43.512 141.318 42.808L142.79 42.576C142.976 43.3013 143.363 43.8693 143.95 44.28C144.542 44.6853 145.238 44.888 146.038 44.888C146.555 44.888 147.022 44.808 147.438 44.648C147.859 44.4827 148.192 44.248 148.438 43.944C148.683 43.64 148.806 43.28 148.806 42.864C148.806 42.608 148.76 42.3893 148.67 42.208C148.584 42.0213 148.464 41.864 148.31 41.736C148.16 41.6027 147.99 41.4907 147.798 41.4C147.606 41.3093 147.406 41.2347 147.198 41.176L144.262 40.304C143.942 40.208 143.632 40.088 143.334 39.944C143.035 39.7947 142.768 39.6107 142.534 39.392C142.299 39.168 142.112 38.9013 141.974 38.592C141.835 38.2773 141.766 37.9067 141.766 37.48C141.766 36.7973 141.942 36.216 142.294 35.736C142.651 35.2507 143.134 34.88 143.742 34.624C144.35 34.368 145.035 34.2427 145.798 34.248C146.571 34.2533 147.262 34.392 147.87 34.664C148.483 34.9307 148.99 35.3147 149.39 35.816C149.795 36.3173 150.067 36.9173 150.206 37.616L148.694 37.88C148.614 37.4107 148.435 37.008 148.158 36.672C147.886 36.3307 147.544 36.0693 147.134 35.888C146.723 35.7013 146.272 35.6053 145.782 35.6C145.312 35.5947 144.888 35.6693 144.51 35.824C144.131 35.9787 143.83 36.1947 143.606 36.472C143.382 36.744 143.27 37.0587 143.27 37.416C143.27 37.768 143.371 38.0533 143.574 38.272C143.776 38.4853 144.024 38.656 144.318 38.784C144.616 38.9067 144.907 39.008 145.19 39.088L147.382 39.72C147.632 39.7893 147.92 39.8853 148.246 40.008C148.576 40.1307 148.896 40.304 149.206 40.528C149.515 40.7467 149.771 41.04 149.974 41.408C150.176 41.7707 150.278 42.2293 150.278 42.784C150.278 43.3387 150.166 43.832 149.942 44.264C149.723 44.696 149.416 45.0587 149.022 45.352C148.627 45.64 148.168 45.8587 147.646 46.008C147.123 46.1627 146.563 46.24 145.966 46.24Z" fill="white"></path> <path d="M99.0859 354V342.309H94.5589V341.04H104.936V342.309H100.409V354H99.0859ZM111.626 354.27C110.336 354.27 109.247 353.985 108.359 353.415C107.471 352.839 106.799 352.044 106.343 351.03C105.887 350.016 105.659 348.846 105.659 347.52C105.659 346.194 105.887 345.024 106.343 344.01C106.799 342.996 107.471 342.204 108.359 341.634C109.247 341.058 110.336 340.77 111.626 340.77C112.922 340.77 114.011 341.058 114.893 341.634C115.781 342.204 116.453 342.996 116.909 344.01C117.371 345.024 117.602 346.194 117.602 347.52C117.602 348.846 117.371 350.016 116.909 351.03C116.453 352.044 115.781 352.839 114.893 353.415C114.011 353.985 112.922 354.27 111.626 354.27ZM111.626 353.001C112.64 353.001 113.486 352.77 114.164 352.308C114.842 351.846 115.349 351.204 115.685 350.382C116.027 349.554 116.198 348.6 116.198 347.52C116.198 346.44 116.027 345.489 115.685 344.667C115.349 343.845 114.842 343.203 114.164 342.741C113.486 342.279 112.64 342.045 111.626 342.039C110.612 342.039 109.769 342.27 109.097 342.732C108.425 343.194 107.918 343.839 107.576 344.667C107.24 345.489 107.069 346.44 107.063 347.52C107.057 348.6 107.222 349.551 107.558 350.373C107.9 351.189 108.41 351.831 109.088 352.299C109.766 352.761 110.612 352.995 111.626 353.001ZM123.008 354V341.04H124.223L129.317 351.939L134.384 341.04H135.617V353.991H134.357V343.992L129.74 354H128.885L124.277 343.992V354H123.008ZM137.243 354L141.707 341.04H143.462L147.926 354H146.549L142.31 341.778H142.832L138.62 354H137.243ZM139.232 350.859V349.617H145.928V350.859H139.232ZM149.551 354V341.04H150.874V347.16L156.787 341.04H158.479L152.44 347.295L158.974 354H157.246L150.874 347.52V354H149.551ZM160.239 354V341.04H168.339V342.309H161.562V346.791H167.259V348.06H161.562V352.731H168.339V354H160.239ZM177.555 354V342.309H173.028V341.04H183.405V342.309H178.878V354H177.555ZM184.848 354V341.04H186.171V346.881H193.335V341.04H194.649V354H193.335V348.15H186.171V354H184.848ZM197.17 354V341.04H205.27V342.309H198.493V346.791H204.19V348.06H198.493V352.731H205.27V354H197.17ZM211.039 354V341.04H218.482V342.363H212.362V346.863H217.402V348.177H212.362V354H211.039ZM220.29 354V341.04H221.613V354H220.29ZM224.311 354V341.04H229.315C229.441 341.04 229.582 341.046 229.738 341.058C229.9 341.064 230.062 341.082 230.224 341.112C230.902 341.214 231.475 341.451 231.943 341.823C232.417 342.189 232.774 342.651 233.014 343.209C233.26 343.767 233.383 344.385 233.383 345.063C233.383 346.041 233.125 346.89 232.609 347.61C232.093 348.33 231.355 348.783 230.395 348.969L229.936 349.077H225.634V354H224.311ZM232.159 354L229.603 348.726L230.872 348.24L233.68 354H232.159ZM225.634 347.817H229.279C229.387 347.817 229.513 347.811 229.657 347.799C229.801 347.787 229.942 347.766 230.08 347.736C230.524 347.64 230.887 347.457 231.169 347.187C231.457 346.917 231.67 346.596 231.808 346.224C231.952 345.852 232.024 345.465 232.024 345.063C232.024 344.661 231.952 344.274 231.808 343.902C231.67 343.524 231.457 343.2 231.169 342.93C230.887 342.66 230.524 342.477 230.08 342.381C229.942 342.351 229.801 342.333 229.657 342.327C229.513 342.315 229.387 342.309 229.279 342.309H225.634V347.817ZM240.166 354.27C239.26 354.27 238.444 354.12 237.718 353.82C236.998 353.514 236.401 353.082 235.927 352.524C235.459 351.966 235.153 351.303 235.009 350.535L236.359 350.31C236.575 351.15 237.031 351.81 237.727 352.29C238.423 352.764 239.254 353.001 240.22 353.001C240.856 353.001 241.426 352.902 241.93 352.704C242.434 352.5 242.83 352.212 243.118 351.84C243.406 351.468 243.55 351.027 243.55 350.517C243.55 350.181 243.49 349.896 243.37 349.662C243.25 349.422 243.091 349.224 242.893 349.068C242.695 348.912 242.479 348.783 242.245 348.681C242.011 348.573 241.783 348.486 241.561 348.42L238.276 347.439C237.88 347.325 237.514 347.181 237.178 347.007C236.842 346.827 236.548 346.614 236.296 346.368C236.05 346.116 235.858 345.822 235.72 345.486C235.582 345.15 235.513 344.766 235.513 344.334C235.513 343.602 235.705 342.969 236.089 342.435C236.473 341.901 236.998 341.49 237.664 341.202C238.33 340.914 239.089 340.773 239.941 340.779C240.805 340.779 241.576 340.932 242.254 341.238C242.938 341.544 243.502 341.982 243.946 342.552C244.39 343.116 244.684 343.785 244.828 344.559L243.442 344.811C243.352 344.247 243.145 343.758 242.821 343.344C242.497 342.93 242.083 342.612 241.579 342.39C241.081 342.162 240.532 342.045 239.932 342.039C239.35 342.039 238.831 342.138 238.375 342.336C237.925 342.528 237.568 342.792 237.304 343.128C237.04 343.464 236.908 343.848 236.908 344.28C236.908 344.718 237.028 345.069 237.268 345.333C237.514 345.597 237.814 345.804 238.168 345.954C238.528 346.104 238.876 346.227 239.212 346.323L241.75 347.07C242.014 347.142 242.323 347.247 242.677 347.385C243.037 347.517 243.385 347.709 243.721 347.961C244.063 348.207 244.345 348.531 244.567 348.933C244.789 349.335 244.9 349.845 244.9 350.463C244.9 351.063 244.78 351.6 244.54 352.074C244.306 352.548 243.973 352.947 243.541 353.271C243.115 353.595 242.614 353.841 242.038 354.009C241.468 354.183 240.844 354.27 240.166 354.27ZM250.205 354V342.309H245.678V341.04H256.055V342.309H251.528V354H250.205ZM260.557 354V341.04H261.772L266.866 351.939L271.933 341.04H273.166V353.991H271.906V343.992L267.289 354H266.434L261.826 343.992V354H260.557ZM280.939 354.27C279.649 354.27 278.56 353.985 277.672 353.415C276.784 352.839 276.112 352.044 275.656 351.03C275.2 350.016 274.972 348.846 274.972 347.52C274.972 346.194 275.2 345.024 275.656 344.01C276.112 342.996 276.784 342.204 277.672 341.634C278.56 341.058 279.649 340.77 280.939 340.77C282.235 340.77 283.324 341.058 284.206 341.634C285.094 342.204 285.766 342.996 286.222 344.01C286.684 345.024 286.915 346.194 286.915 347.52C286.915 348.846 286.684 350.016 286.222 351.03C285.766 352.044 285.094 352.839 284.206 353.415C283.324 353.985 282.235 354.27 280.939 354.27ZM280.939 353.001C281.953 353.001 282.799 352.77 283.477 352.308C284.155 351.846 284.662 351.204 284.998 350.382C285.34 349.554 285.511 348.6 285.511 347.52C285.511 346.44 285.34 345.489 284.998 344.667C284.662 343.845 284.155 343.203 283.477 342.741C282.799 342.279 281.953 342.045 280.939 342.039C279.925 342.039 279.082 342.27 278.41 342.732C277.738 343.194 277.231 343.839 276.889 344.667C276.553 345.489 276.382 346.44 276.376 347.52C276.37 348.6 276.535 349.551 276.871 350.373C277.213 351.189 277.723 351.831 278.401 352.299C279.079 352.761 279.925 352.995 280.939 353.001ZM291.466 354L287.002 341.04H288.379L292.33 352.497L296.308 341.04H297.685L293.221 354H291.466ZM299.035 354V341.04H307.135V342.309H300.358V346.791H306.055V348.06H300.358V352.731H307.135V354H299.035ZM312.725 348.897V347.763H318.125V348.897H312.725ZM323.464 356.16V352.731C323.968 352.731 324.373 352.605 324.679 352.353C324.985 352.095 325.219 351.753 325.381 351.327C325.543 350.901 325.666 350.424 325.75 349.896C325.834 349.362 325.906 348.822 325.966 348.276C326.05 347.478 326.116 346.707 326.164 345.963C326.218 345.219 326.263 344.448 326.299 343.65C326.341 342.852 326.389 341.979 326.443 341.031L334.435 341.04V352.731H335.362V356.16H334.048V354H324.787V356.16H323.464ZM325.993 352.731H333.112V342.309L327.676 342.3C327.64 343.032 327.604 343.74 327.568 344.424C327.532 345.108 327.49 345.798 327.442 346.494C327.394 347.19 327.331 347.916 327.253 348.672C327.187 349.362 327.109 349.965 327.019 350.481C326.929 350.997 326.803 351.438 326.641 351.804C326.485 352.17 326.269 352.479 325.993 352.731ZM337.338 354V341.04H345.438V342.309H338.661V346.791H344.358V348.06H338.661V352.731H345.438V354H337.338ZM346.704 354V352.821C347.034 352.851 347.307 352.839 347.523 352.785C347.739 352.725 347.913 352.593 348.045 352.389C348.183 352.185 348.303 351.882 348.405 351.48C348.507 351.072 348.609 350.541 348.711 349.887C348.825 349.179 348.921 348.474 348.999 347.772C349.083 347.07 349.155 346.359 349.215 345.639C349.281 344.913 349.335 344.169 349.377 343.407C349.419 342.645 349.458 341.856 349.494 341.04H357.675V354H356.352V342.309H350.772C350.73 342.927 350.688 343.56 350.646 344.208C350.61 344.856 350.562 345.519 350.502 346.197C350.448 346.875 350.379 347.574 350.295 348.294C350.217 349.008 350.118 349.746 349.998 350.508C349.902 351.084 349.788 351.618 349.656 352.11C349.53 352.602 349.35 353.016 349.116 353.352C348.888 353.688 348.579 353.919 348.189 354.045C347.805 354.171 347.31 354.156 346.704 354ZM359.29 354L363.754 341.04H365.509L369.973 354H368.596L364.357 341.778H364.879L360.667 354H359.29ZM361.279 350.859V349.617H367.975V350.859H361.279ZM373.973 354V342.309H369.446V341.04H379.823V342.309H375.296V354H373.973ZM381.257 354V341.04H382.58V345.963H386.261C386.387 345.963 386.528 345.969 386.684 345.981C386.846 345.987 387.011 346.005 387.179 346.035C387.851 346.137 388.421 346.374 388.889 346.746C389.363 347.112 389.72 347.574 389.96 348.132C390.206 348.69 390.329 349.305 390.329 349.977C390.329 350.655 390.206 351.273 389.96 351.831C389.72 352.389 389.363 352.854 388.889 353.226C388.421 353.592 387.851 353.826 387.179 353.928C387.011 353.952 386.846 353.97 386.684 353.982C386.528 353.994 386.387 354 386.261 354H381.257ZM382.58 352.731H386.225C386.339 352.731 386.468 352.725 386.612 352.713C386.756 352.701 386.897 352.683 387.035 352.659C387.473 352.563 387.836 352.38 388.124 352.11C388.412 351.84 388.625 351.519 388.763 351.147C388.901 350.769 388.97 350.379 388.97 349.977C388.97 349.575 388.901 349.188 388.763 348.816C388.625 348.444 388.412 348.123 388.124 347.853C387.836 347.583 387.473 347.4 387.035 347.304C386.897 347.274 386.756 347.253 386.612 347.241C386.468 347.229 386.339 347.223 386.225 347.223H382.58V352.731ZM395.908 354V341.04H405.835V354H404.512V342.309H397.231V354H395.908ZM408.354 354V341.04H416.454V342.309H409.677V346.791H415.374V348.06H409.677V352.731H416.454V354H408.354ZM418.619 354V341.04H423.623C423.749 341.04 423.89 341.046 424.046 341.058C424.208 341.064 424.37 341.082 424.532 341.112C425.21 341.214 425.783 341.451 426.251 341.823C426.725 342.189 427.082 342.651 427.322 343.209C427.568 343.767 427.691 344.385 427.691 345.063C427.691 345.735 427.568 346.35 427.322 346.908C427.076 347.466 426.716 347.931 426.242 348.303C425.774 348.669 425.204 348.903 424.532 349.005C424.37 349.029 424.208 349.047 424.046 349.059C423.89 349.071 423.749 349.077 423.623 349.077H419.942V354H418.619ZM419.942 347.817H423.587C423.695 347.817 423.821 347.811 423.965 347.799C424.109 347.787 424.25 347.766 424.388 347.736C424.832 347.64 425.195 347.457 425.477 347.187C425.765 346.917 425.978 346.596 426.116 346.224C426.26 345.852 426.332 345.465 426.332 345.063C426.332 344.661 426.26 344.274 426.116 343.902C425.978 343.524 425.765 343.2 425.477 342.93C425.195 342.66 424.832 342.477 424.388 342.381C424.25 342.351 424.109 342.333 423.965 342.327C423.821 342.315 423.695 342.309 423.587 342.309H419.942V347.817ZM429.483 354V341.04H434.487C435.213 341.04 435.846 341.19 436.386 341.49C436.926 341.79 437.346 342.195 437.646 342.705C437.946 343.209 438.096 343.767 438.096 344.379C438.096 345.075 437.91 345.696 437.538 346.242C437.166 346.782 436.668 347.157 436.044 347.367L436.026 346.926C436.866 347.166 437.526 347.586 438.006 348.186C438.486 348.786 438.726 349.512 438.726 350.364C438.726 351.114 438.567 351.762 438.249 352.308C437.931 352.848 437.484 353.265 436.908 353.559C436.332 353.853 435.663 354 434.901 354H429.483ZM430.815 352.731H434.577C435.105 352.731 435.579 352.638 435.999 352.452C436.419 352.26 436.749 351.99 436.989 351.642C437.235 351.294 437.358 350.874 437.358 350.382C437.358 349.902 437.247 349.47 437.025 349.086C436.803 348.702 436.5 348.396 436.116 348.168C435.738 347.934 435.306 347.817 434.82 347.817H430.815V352.731ZM430.815 346.566H434.478C434.892 346.566 435.27 346.473 435.612 346.287C435.954 346.095 436.224 345.834 436.422 345.504C436.626 345.174 436.728 344.793 436.728 344.361C436.728 343.749 436.515 343.251 436.089 342.867C435.669 342.483 435.132 342.291 434.478 342.291H430.815V346.566ZM440.513 354V341.04H441.836V345.963H445.517C445.643 345.963 445.784 345.969 445.94 345.981C446.102 345.987 446.267 346.005 446.435 346.035C447.107 346.137 447.677 346.374 448.145 346.746C448.619 347.112 448.976 347.574 449.216 348.132C449.462 348.69 449.585 349.305 449.585 349.977C449.585 350.655 449.462 351.273 449.216 351.831C448.976 352.389 448.619 352.854 448.145 353.226C447.677 353.592 447.107 353.826 446.435 353.928C446.267 353.952 446.102 353.97 445.94 353.982C445.784 353.994 445.643 354 445.517 354H440.513ZM441.836 352.731H445.481C445.595 352.731 445.724 352.725 445.868 352.713C446.012 352.701 446.153 352.683 446.291 352.659C446.729 352.563 447.092 352.38 447.38 352.11C447.668 351.84 447.881 351.519 448.019 351.147C448.157 350.769 448.226 350.379 448.226 349.977C448.226 349.575 448.157 349.188 448.019 348.816C447.881 348.444 447.668 348.123 447.38 347.853C447.092 347.583 446.729 347.4 446.291 347.304C446.153 347.274 446.012 347.253 445.868 347.241C445.724 347.229 445.595 347.223 445.481 347.223H441.836V352.731ZM450.863 354V341.04H452.186V354H450.863ZM454.69 354V341.04H456.022V351.66L463.159 341.04H464.491V354H463.159V343.371L456.022 354H454.69ZM459.694 339.888C459.268 339.888 458.878 339.783 458.524 339.573C458.176 339.363 457.897 339.084 457.687 338.736C457.477 338.382 457.372 337.992 457.372 337.566H458.47C458.47 337.902 458.59 338.19 458.83 338.43C459.07 338.67 459.358 338.79 459.694 338.79C460.036 338.79 460.324 338.67 460.558 338.43C460.798 338.19 460.918 337.902 460.918 337.566H462.016C462.016 337.992 461.911 338.382 461.701 338.736C461.497 339.084 461.218 339.363 460.864 339.573C460.51 339.783 460.12 339.888 459.694 339.888ZM470.615 354V341.04H471.938V352.731H476.852V341.04H478.175V352.731H483.098V341.04H484.412V354H470.615ZM486.028 354L490.492 341.04H492.247L496.711 354H495.334L491.095 341.778H491.617L487.405 354H486.028ZM488.017 350.859V349.617H494.713V350.859H488.017ZM498.336 354V341.04H506.436V342.309H499.659V354H498.336Z" fill="white"></path> <defs> <linearGradient id="paint0_linear_136_341" x1="300" y1="0" x2="300" y2="400" gradientUnits="userSpaceOnUse"> <stop stop-color="#A91F49"></stop> <stop offset="1" stop-color="#7E0046"></stop> </linearGradient> </defs> </svg> 