<?xml version="1.0" encoding="UTF-8"?> <svg xmlns="http://www.w3.org/2000/svg" width="600" height="400" viewBox="0 0 600 400" fill="none"> <rect width="600" height="400" rx="20" fill="url(#paint0_linear_136_320)"></rect> <path d="M132.34 193V177.16H134.991V193H132.34ZM144.149 193.33C142.99 193.33 141.945 193.128 141.014 192.725C140.09 192.322 139.327 191.746 138.726 190.998C138.132 190.243 137.754 189.348 137.593 188.314L140.343 187.896C140.578 188.835 141.058 189.561 141.784 190.074C142.517 190.587 143.361 190.844 144.314 190.844C144.879 190.844 145.41 190.756 145.909 190.58C146.408 190.404 146.811 190.147 147.119 189.81C147.434 189.473 147.592 189.058 147.592 188.567C147.592 188.347 147.555 188.145 147.482 187.962C147.409 187.771 147.299 187.603 147.152 187.456C147.013 187.309 146.829 187.177 146.602 187.06C146.382 186.935 146.125 186.829 145.832 186.741L141.74 185.531C141.388 185.428 141.007 185.293 140.596 185.124C140.193 184.948 139.808 184.71 139.441 184.409C139.082 184.101 138.785 183.712 138.55 183.243C138.323 182.766 138.209 182.18 138.209 181.483C138.209 180.464 138.466 179.609 138.979 178.92C139.5 178.223 140.196 177.703 141.069 177.358C141.949 177.013 142.924 176.845 143.995 176.852C145.08 176.859 146.048 177.046 146.899 177.413C147.75 177.772 148.461 178.297 149.033 178.986C149.605 179.675 150.008 180.508 150.243 181.483L147.394 181.978C147.277 181.421 147.049 180.948 146.712 180.559C146.382 180.163 145.975 179.862 145.491 179.657C145.014 179.452 144.505 179.342 143.962 179.327C143.434 179.32 142.943 179.4 142.488 179.569C142.041 179.73 141.678 179.965 141.399 180.273C141.128 180.581 140.992 180.94 140.992 181.351C140.992 181.74 141.109 182.059 141.344 182.308C141.579 182.55 141.868 182.744 142.213 182.891C142.565 183.03 142.921 183.148 143.28 183.243L146.118 184.035C146.507 184.138 146.943 184.277 147.427 184.453C147.911 184.629 148.377 184.875 148.824 185.19C149.271 185.505 149.638 185.92 149.924 186.433C150.217 186.946 150.364 187.599 150.364 188.391C150.364 189.212 150.192 189.935 149.847 190.558C149.51 191.174 149.051 191.687 148.472 192.098C147.893 192.509 147.229 192.817 146.481 193.022C145.74 193.227 144.963 193.33 144.149 193.33ZM157.369 193V177.16H160.02V193H157.369ZM167.121 193V179.646H161.995V177.16H174.898V179.646H169.772V193H167.121ZM180.395 193V177.16H186.94C187.094 177.16 187.292 177.167 187.534 177.182C187.776 177.189 188 177.211 188.205 177.248C189.122 177.387 189.877 177.692 190.471 178.161C191.073 178.63 191.516 179.224 191.802 179.943C192.096 180.654 192.242 181.446 192.242 182.319C192.242 183.184 192.096 183.976 191.802 184.695C191.509 185.406 191.062 185.997 190.46 186.466C189.866 186.935 189.115 187.24 188.205 187.379C188 187.408 187.773 187.43 187.523 187.445C187.281 187.46 187.087 187.467 186.94 187.467H183.046V193H180.395ZM183.046 184.992H186.83C186.977 184.992 187.142 184.985 187.325 184.97C187.509 184.955 187.677 184.926 187.831 184.882C188.271 184.772 188.616 184.578 188.865 184.299C189.122 184.02 189.302 183.705 189.404 183.353C189.514 183.001 189.569 182.656 189.569 182.319C189.569 181.982 189.514 181.637 189.404 181.285C189.302 180.926 189.122 180.607 188.865 180.328C188.616 180.049 188.271 179.855 187.831 179.745C187.677 179.701 187.509 179.675 187.325 179.668C187.142 179.653 186.977 179.646 186.83 179.646H183.046V184.992ZM201.145 193.33C199.561 193.33 198.205 192.985 197.075 192.296C195.946 191.599 195.077 190.631 194.468 189.392C193.867 188.153 193.566 186.715 193.566 185.08C193.566 183.445 193.867 182.007 194.468 180.768C195.077 179.529 195.946 178.564 197.075 177.875C198.205 177.178 199.561 176.83 201.145 176.83C202.729 176.83 204.086 177.178 205.215 177.875C206.352 178.564 207.221 179.529 207.822 180.768C208.431 182.007 208.735 183.445 208.735 185.08C208.735 186.715 208.431 188.153 207.822 189.392C207.221 190.631 206.352 191.599 205.215 192.296C204.086 192.985 202.729 193.33 201.145 193.33ZM201.145 190.833C202.209 190.84 203.092 190.606 203.796 190.129C204.508 189.652 205.039 188.981 205.391 188.116C205.751 187.251 205.93 186.239 205.93 185.08C205.93 183.921 205.751 182.917 205.391 182.066C205.039 181.208 204.508 180.541 203.796 180.064C203.092 179.587 202.209 179.342 201.145 179.327C200.082 179.32 199.198 179.554 198.494 180.031C197.79 180.508 197.259 181.179 196.899 182.044C196.547 182.909 196.371 183.921 196.371 185.08C196.371 186.239 196.547 187.247 196.899 188.105C197.251 188.956 197.779 189.619 198.483 190.096C199.195 190.573 200.082 190.818 201.145 190.833ZM216.788 193.33C215.629 193.33 214.584 193.128 213.653 192.725C212.729 192.322 211.966 191.746 211.365 190.998C210.771 190.243 210.393 189.348 210.232 188.314L212.982 187.896C213.216 188.835 213.697 189.561 214.423 190.074C215.156 190.587 215.999 190.844 216.953 190.844C217.517 190.844 218.049 190.756 218.548 190.58C219.046 190.404 219.45 190.147 219.758 189.81C220.073 189.473 220.231 189.058 220.231 188.567C220.231 188.347 220.194 188.145 220.121 187.962C220.047 187.771 219.937 187.603 219.791 187.456C219.651 187.309 219.468 187.177 219.241 187.06C219.021 186.935 218.764 186.829 218.471 186.741L214.379 185.531C214.027 185.428 213.645 185.293 213.235 185.124C212.831 184.948 212.446 184.71 212.08 184.409C211.72 184.101 211.423 183.712 211.189 183.243C210.961 182.766 210.848 182.18 210.848 181.483C210.848 180.464 211.104 179.609 211.618 178.92C212.138 178.223 212.835 177.703 213.708 177.358C214.588 177.013 215.563 176.845 216.634 176.852C217.719 176.859 218.687 177.046 219.538 177.413C220.388 177.772 221.1 178.297 221.672 178.986C222.244 179.675 222.647 180.508 222.882 181.483L220.033 181.978C219.915 181.421 219.688 180.948 219.351 180.559C219.021 180.163 218.614 179.862 218.13 179.657C217.653 179.452 217.143 179.342 216.601 179.327C216.073 179.32 215.581 179.4 215.127 179.569C214.679 179.73 214.316 179.965 214.038 180.273C213.766 180.581 213.631 180.94 213.631 181.351C213.631 181.74 213.748 182.059 213.983 182.308C214.217 182.55 214.507 182.744 214.852 182.891C215.204 183.03 215.559 183.148 215.919 183.243L218.757 184.035C219.145 184.138 219.582 184.277 220.066 184.453C220.55 184.629 221.015 184.875 221.463 185.19C221.91 185.505 222.277 185.92 222.563 186.433C222.856 186.946 223.003 187.599 223.003 188.391C223.003 189.212 222.83 189.935 222.486 190.558C222.148 191.174 221.69 191.687 221.111 192.098C220.531 192.509 219.868 192.817 219.12 193.022C218.379 193.227 217.602 193.33 216.788 193.33ZM231.569 193.33C230.41 193.33 229.365 193.128 228.434 192.725C227.51 192.322 226.747 191.746 226.146 190.998C225.552 190.243 225.174 189.348 225.013 188.314L227.763 187.896C227.998 188.835 228.478 189.561 229.204 190.074C229.937 190.587 230.781 190.844 231.734 190.844C232.299 190.844 232.83 190.756 233.329 190.58C233.828 190.404 234.231 190.147 234.539 189.81C234.854 189.473 235.012 189.058 235.012 188.567C235.012 188.347 234.975 188.145 234.902 187.962C234.829 187.771 234.719 187.603 234.572 187.456C234.433 187.309 234.249 187.177 234.022 187.06C233.802 186.935 233.545 186.829 233.252 186.741L229.16 185.531C228.808 185.428 228.427 185.293 228.016 185.124C227.613 184.948 227.228 184.71 226.861 184.409C226.502 184.101 226.205 183.712 225.97 183.243C225.743 182.766 225.629 182.18 225.629 181.483C225.629 180.464 225.886 179.609 226.399 178.92C226.92 178.223 227.616 177.703 228.489 177.358C229.369 177.013 230.344 176.845 231.415 176.852C232.5 176.859 233.468 177.046 234.319 177.413C235.17 177.772 235.881 178.297 236.453 178.986C237.025 179.675 237.428 180.508 237.663 181.483L234.814 181.978C234.697 181.421 234.469 180.948 234.132 180.559C233.802 180.163 233.395 179.862 232.911 179.657C232.434 179.452 231.925 179.342 231.382 179.327C230.854 179.32 230.363 179.4 229.908 179.569C229.461 179.73 229.098 179.965 228.819 180.273C228.548 180.581 228.412 180.94 228.412 181.351C228.412 181.74 228.529 182.059 228.764 182.308C228.999 182.55 229.288 182.744 229.633 182.891C229.985 183.03 230.341 183.148 230.7 183.243L233.538 184.035C233.927 184.138 234.363 184.277 234.847 184.453C235.331 184.629 235.797 184.875 236.244 185.19C236.691 185.505 237.058 185.92 237.344 186.433C237.637 186.946 237.784 187.599 237.784 188.391C237.784 189.212 237.612 189.935 237.267 190.558C236.93 191.174 236.471 191.687 235.892 192.098C235.313 192.509 234.649 192.817 233.901 193.022C233.16 193.227 232.383 193.33 231.569 193.33ZM240.385 193V177.16H243.036V193H240.385ZM246.331 193V177.16H252.612C253.683 177.16 254.559 177.376 255.241 177.809C255.93 178.234 256.44 178.781 256.77 179.448C257.107 180.115 257.276 180.805 257.276 181.516C257.276 182.389 257.067 183.129 256.649 183.738C256.238 184.347 255.677 184.757 254.966 184.97V184.42C255.963 184.647 256.719 185.12 257.232 185.839C257.753 186.558 258.013 187.375 258.013 188.292C258.013 189.231 257.833 190.052 257.474 190.756C257.115 191.46 256.579 192.01 255.868 192.406C255.164 192.802 254.291 193 253.25 193H246.331ZM249.015 190.503H252.92C253.382 190.503 253.796 190.411 254.163 190.228C254.53 190.037 254.816 189.773 255.021 189.436C255.234 189.091 255.34 188.684 255.34 188.215C255.34 187.79 255.248 187.408 255.065 187.071C254.882 186.734 254.614 186.466 254.262 186.268C253.91 186.063 253.488 185.96 252.997 185.96H249.015V190.503ZM249.015 183.485H252.579C252.96 183.485 253.301 183.412 253.602 183.265C253.903 183.118 254.141 182.902 254.317 182.616C254.493 182.33 254.581 181.978 254.581 181.56C254.581 181.01 254.405 180.552 254.053 180.185C253.701 179.818 253.21 179.635 252.579 179.635H249.015V183.485ZM260.43 193V177.16H263.081V190.514H270.077V193H260.43ZM271.94 193V177.16H282.17V179.646H274.591V183.551H280.85V186.037H274.591V190.514H282.17V193H271.94ZM293.02 193V179.646H287.894V177.16H300.797V179.646H295.671V193H293.02ZM309.255 193.33C307.671 193.33 306.314 192.985 305.185 192.296C304.055 191.599 303.186 190.631 302.578 189.392C301.976 188.153 301.676 186.715 301.676 185.08C301.676 183.445 301.976 182.007 302.578 180.768C303.186 179.529 304.055 178.564 305.185 177.875C306.314 177.178 307.671 176.83 309.255 176.83C310.839 176.83 312.195 177.178 313.325 177.875C314.461 178.564 315.33 179.529 315.932 180.768C316.54 182.007 316.845 183.445 316.845 185.08C316.845 186.715 316.54 188.153 315.932 189.392C315.33 190.631 314.461 191.599 313.325 192.296C312.195 192.985 310.839 193.33 309.255 193.33ZM309.255 190.833C310.318 190.84 311.202 190.606 311.906 190.129C312.617 189.652 313.149 188.981 313.501 188.116C313.86 187.251 314.04 186.239 314.04 185.08C314.04 183.921 313.86 182.917 313.501 182.066C313.149 181.208 312.617 180.541 311.906 180.064C311.202 179.587 310.318 179.342 309.255 179.327C308.191 179.32 307.308 179.554 306.604 180.031C305.9 180.508 305.368 181.179 305.009 182.044C304.657 182.909 304.481 183.921 304.481 185.08C304.481 186.239 304.657 187.247 305.009 188.105C305.361 188.956 305.889 189.619 306.593 190.096C307.304 190.573 308.191 190.818 309.255 190.833ZM329.301 193.33C328.143 193.33 327.098 193.128 326.166 192.725C325.242 192.322 324.48 191.746 323.878 190.998C323.284 190.243 322.907 189.348 322.745 188.314L325.495 187.896C325.73 188.835 326.21 189.561 326.936 190.074C327.67 190.587 328.513 190.844 329.466 190.844C330.031 190.844 330.563 190.756 331.061 190.58C331.56 190.404 331.963 190.147 332.271 189.81C332.587 189.473 332.744 189.058 332.744 188.567C332.744 188.347 332.708 188.145 332.634 187.962C332.561 187.771 332.451 187.603 332.304 187.456C332.165 187.309 331.982 187.177 331.754 187.06C331.534 186.935 331.278 186.829 330.984 186.741L326.892 185.531C326.54 185.428 326.159 185.293 325.748 185.124C325.345 184.948 324.96 184.71 324.593 184.409C324.234 184.101 323.937 183.712 323.702 183.243C323.475 182.766 323.361 182.18 323.361 181.483C323.361 180.464 323.618 179.609 324.131 178.92C324.652 178.223 325.349 177.703 326.221 177.358C327.101 177.013 328.077 176.845 329.147 176.852C330.233 176.859 331.201 177.046 332.051 177.413C332.902 177.772 333.613 178.297 334.185 178.986C334.757 179.675 335.161 180.508 335.395 181.483L332.546 181.978C332.429 181.421 332.202 180.948 331.864 180.559C331.534 180.163 331.127 179.862 330.643 179.657C330.167 179.452 329.657 179.342 329.114 179.327C328.586 179.32 328.095 179.4 327.64 179.569C327.193 179.73 326.83 179.965 326.551 180.273C326.28 180.581 326.144 180.94 326.144 181.351C326.144 181.74 326.262 182.059 326.496 182.308C326.731 182.55 327.021 182.744 327.365 182.891C327.717 183.03 328.073 183.148 328.432 183.243L331.27 184.035C331.659 184.138 332.095 184.277 332.579 184.453C333.063 184.629 333.529 184.875 333.976 185.19C334.424 185.505 334.79 185.92 335.076 186.433C335.37 186.946 335.516 187.599 335.516 188.391C335.516 189.212 335.344 189.935 334.999 190.558C334.662 191.174 334.204 191.687 333.624 192.098C333.045 192.509 332.381 192.817 331.633 193.022C330.893 193.227 330.115 193.33 329.301 193.33ZM341.703 193V179.646H336.577V177.16H349.48V179.646H344.354V193H341.703ZM349.71 193L354.704 177.16H358.587L363.581 193H360.853L356.321 178.788H356.915L352.438 193H349.71ZM352.493 189.568V187.093H360.809V189.568H352.493ZM368.109 193V186.51L362.719 177.16H365.81L369.451 183.474L373.081 177.16H376.172L370.793 186.51V193H368.109ZM381.231 193V177.16H390.768V179.811H383.882V183.76H389.448V186.4H383.882V193H381.231ZM392.747 193V177.16H399.292C399.446 177.16 399.644 177.167 399.886 177.182C400.128 177.189 400.352 177.211 400.557 177.248C401.474 177.387 402.229 177.692 402.823 178.161C403.424 178.63 403.868 179.224 404.154 179.943C404.447 180.654 404.594 181.446 404.594 182.319C404.594 183.61 404.268 184.721 403.615 185.652C402.962 186.576 401.961 187.148 400.612 187.368L399.479 187.467H395.398V193H392.747ZM401.844 193L398.72 186.554L401.415 185.96L404.847 193H401.844ZM395.398 184.992H399.182C399.329 184.992 399.494 184.985 399.677 184.97C399.86 184.955 400.029 184.926 400.183 184.882C400.623 184.772 400.968 184.578 401.217 184.299C401.474 184.02 401.653 183.705 401.756 183.353C401.866 183.001 401.921 182.656 401.921 182.319C401.921 181.982 401.866 181.637 401.756 181.285C401.653 180.926 401.474 180.607 401.217 180.328C400.968 180.049 400.623 179.855 400.183 179.745C400.029 179.701 399.86 179.675 399.677 179.668C399.494 179.653 399.329 179.646 399.182 179.646H395.398V184.992ZM407.49 193V177.16H410.141V193H407.49ZM413.436 193V177.16H423.666V179.646H416.087V183.551H422.346V186.037H416.087V190.514H423.666V193H413.436ZM426.306 193V177.16H428.99L436.338 188.325V177.16H439.022V193H436.338L428.99 181.835V193H426.306ZM442.097 193V177.16H447.146C447.278 177.16 447.538 177.164 447.927 177.171C448.323 177.178 448.704 177.204 449.071 177.248C450.325 177.409 451.384 177.857 452.25 178.59C453.122 179.316 453.782 180.244 454.23 181.373C454.677 182.502 454.901 183.738 454.901 185.08C454.901 186.422 454.677 187.658 454.23 188.787C453.782 189.916 453.122 190.848 452.25 191.581C451.384 192.307 450.325 192.751 449.071 192.912C448.711 192.956 448.334 192.982 447.938 192.989C447.542 192.996 447.278 193 447.146 193H442.097ZM444.792 190.503H447.146C447.366 190.503 447.644 190.496 447.982 190.481C448.326 190.466 448.631 190.433 448.895 190.382C449.643 190.243 450.251 189.909 450.721 189.381C451.19 188.853 451.535 188.211 451.755 187.456C451.982 186.701 452.096 185.909 452.096 185.08C452.096 184.222 451.982 183.415 451.755 182.66C451.527 181.905 451.175 181.27 450.699 180.757C450.229 180.244 449.628 179.917 448.895 179.778C448.631 179.719 448.326 179.686 447.982 179.679C447.644 179.664 447.366 179.657 447.146 179.657H444.792V190.503ZM463.364 193.33C462.205 193.33 461.16 193.128 460.229 192.725C459.305 192.322 458.542 191.746 457.941 190.998C457.347 190.243 456.969 189.348 456.808 188.314L459.558 187.896C459.793 188.835 460.273 189.561 460.999 190.074C461.732 190.587 462.576 190.844 463.529 190.844C464.094 190.844 464.625 190.756 465.124 190.58C465.623 190.404 466.026 190.147 466.334 189.81C466.649 189.473 466.807 189.058 466.807 188.567C466.807 188.347 466.77 188.145 466.697 187.962C466.624 187.771 466.514 187.603 466.367 187.456C466.228 187.309 466.044 187.177 465.817 187.06C465.597 186.935 465.34 186.829 465.047 186.741L460.955 185.531C460.603 185.428 460.222 185.293 459.811 185.124C459.408 184.948 459.023 184.71 458.656 184.409C458.297 184.101 458 183.712 457.765 183.243C457.538 182.766 457.424 182.18 457.424 181.483C457.424 180.464 457.681 179.609 458.194 178.92C458.715 178.223 459.411 177.703 460.284 177.358C461.164 177.013 462.139 176.845 463.21 176.852C464.295 176.859 465.263 177.046 466.114 177.413C466.965 177.772 467.676 178.297 468.248 178.986C468.82 179.675 469.223 180.508 469.458 181.483L466.609 181.978C466.492 181.421 466.264 180.948 465.927 180.559C465.597 180.163 465.19 179.862 464.706 179.657C464.229 179.452 463.72 179.342 463.177 179.327C462.649 179.32 462.158 179.4 461.703 179.569C461.256 179.73 460.893 179.965 460.614 180.273C460.343 180.581 460.207 180.94 460.207 181.351C460.207 181.74 460.324 182.059 460.559 182.308C460.794 182.55 461.083 182.744 461.428 182.891C461.78 183.03 462.136 183.148 462.495 183.243L465.333 184.035C465.722 184.138 466.158 184.277 466.642 184.453C467.126 184.629 467.592 184.875 468.039 185.19C468.486 185.505 468.853 185.92 469.139 186.433C469.432 186.946 469.579 187.599 469.579 188.391C469.579 189.212 469.407 189.935 469.062 190.558C468.725 191.174 468.266 191.687 467.687 192.098C467.108 192.509 466.444 192.817 465.696 193.022C464.955 193.227 464.178 193.33 463.364 193.33ZM187.836 224L192.83 208.16H196.713L201.707 224H198.979L194.447 209.788H195.041L190.564 224H187.836ZM190.619 220.568V218.093H198.935V220.568H190.619ZM203.695 224V208.16H213.232V210.811H206.346V214.76H211.912V217.4H206.346V224H203.695ZM219.017 224V210.646H213.891V208.16H226.794V210.646H221.668V224H219.017ZM228.553 224V208.16H238.783V210.646H231.204V214.551H237.463V217.037H231.204V221.514H238.783V224H228.553ZM241.422 224V208.16H247.967C248.121 208.16 248.319 208.167 248.561 208.182C248.803 208.189 249.027 208.211 249.232 208.248C250.149 208.387 250.904 208.692 251.498 209.161C252.099 209.63 252.543 210.224 252.829 210.943C253.122 211.654 253.269 212.446 253.269 213.319C253.269 214.61 252.943 215.721 252.29 216.652C251.637 217.576 250.636 218.148 249.287 218.368L248.154 218.467H244.073V224H241.422ZM250.519 224L247.395 217.554L250.09 216.96L253.522 224H250.519ZM244.073 215.992H247.857C248.004 215.992 248.169 215.985 248.352 215.97C248.535 215.955 248.704 215.926 248.858 215.882C249.298 215.772 249.643 215.578 249.892 215.299C250.149 215.02 250.328 214.705 250.431 214.353C250.541 214.001 250.596 213.656 250.596 213.319C250.596 212.982 250.541 212.637 250.431 212.285C250.328 211.926 250.149 211.607 249.892 211.328C249.643 211.049 249.298 210.855 248.858 210.745C248.704 210.701 248.535 210.675 248.352 210.668C248.169 210.653 248.004 210.646 247.857 210.646H244.073V215.992ZM260.35 224V208.16H266.631C267.701 208.16 268.578 208.376 269.26 208.809C269.949 209.234 270.459 209.781 270.789 210.448C271.126 211.115 271.295 211.805 271.295 212.516C271.295 213.389 271.086 214.129 270.668 214.738C270.257 215.347 269.696 215.757 268.985 215.97V215.42C269.982 215.647 270.737 216.12 271.251 216.839C271.771 217.558 272.032 218.375 272.032 219.292C272.032 220.231 271.852 221.052 271.493 221.756C271.133 222.46 270.598 223.01 269.887 223.406C269.183 223.802 268.31 224 267.269 224H260.35ZM263.034 221.503H266.939C267.401 221.503 267.815 221.411 268.182 221.228C268.548 221.037 268.834 220.773 269.04 220.436C269.252 220.091 269.359 219.684 269.359 219.215C269.359 218.79 269.267 218.408 269.084 218.071C268.9 217.734 268.633 217.466 268.281 217.268C267.929 217.063 267.507 216.96 267.016 216.96H263.034V221.503ZM263.034 214.485H266.598C266.979 214.485 267.32 214.412 267.621 214.265C267.921 214.118 268.16 213.902 268.336 213.616C268.512 213.33 268.6 212.978 268.6 212.56C268.6 212.01 268.424 211.552 268.072 211.185C267.72 210.818 267.228 210.635 266.598 210.635H263.034V214.485ZM274.228 224V208.16H280.773C280.927 208.16 281.125 208.167 281.367 208.182C281.609 208.189 281.833 208.211 282.038 208.248C282.955 208.387 283.71 208.692 284.304 209.161C284.906 209.63 285.349 210.224 285.635 210.943C285.929 211.654 286.075 212.446 286.075 213.319C286.075 214.61 285.749 215.721 285.096 216.652C284.444 217.576 283.443 218.148 282.093 218.368L280.96 218.467H276.879V224H274.228ZM283.325 224L280.201 217.554L282.896 216.96L286.328 224H283.325ZM276.879 215.992H280.663C280.81 215.992 280.975 215.985 281.158 215.97C281.342 215.955 281.51 215.926 281.664 215.882C282.104 215.772 282.449 215.578 282.698 215.299C282.955 215.02 283.135 214.705 283.237 214.353C283.347 214.001 283.402 213.656 283.402 213.319C283.402 212.982 283.347 212.637 283.237 212.285C283.135 211.926 282.955 211.607 282.698 211.328C282.449 211.049 282.104 210.855 281.664 210.745C281.51 210.701 281.342 210.675 281.158 210.668C280.975 210.653 280.81 210.646 280.663 210.646H276.879V215.992ZM288.752 224V208.16H298.982V210.646H291.403V214.551H297.662V217.037H291.403V221.514H298.982V224H288.752ZM300.521 224L305.515 208.16H309.398L314.392 224H311.664L307.132 209.788H307.726L303.249 224H300.521ZM303.304 220.568V218.093H311.62V220.568H303.304ZM316.381 224V208.16H319.032V215.508L325.357 208.16H328.613L321.804 215.926L329.075 224H325.709L319.032 216.608V224H316.381ZM330.845 224V208.16H333.496V224H330.845ZM336.791 224V208.16H339.475L346.823 219.325V208.16H349.507V224H346.823L339.475 212.835V224H336.791ZM359.116 224.33C358.089 224.33 357.125 224.15 356.223 223.791C355.328 223.424 354.54 222.889 353.858 222.185C353.183 221.481 352.655 220.619 352.274 219.6C351.893 218.573 351.702 217.4 351.702 216.08C351.702 214.349 352.025 212.872 352.67 211.647C353.315 210.415 354.199 209.473 355.321 208.82C356.443 208.16 357.708 207.83 359.116 207.83C361.067 207.83 362.61 208.285 363.747 209.194C364.891 210.096 365.665 211.365 366.068 213L363.362 213.429C363.061 212.49 362.57 211.742 361.888 211.185C361.206 210.62 360.337 210.338 359.281 210.338C358.218 210.323 357.334 210.554 356.63 211.031C355.926 211.508 355.394 212.179 355.035 213.044C354.683 213.909 354.507 214.921 354.507 216.08C354.507 217.239 354.683 218.247 355.035 219.105C355.387 219.956 355.915 220.619 356.619 221.096C357.33 221.573 358.218 221.818 359.281 221.833C360.08 221.84 360.781 221.697 361.382 221.404C361.983 221.103 362.475 220.652 362.856 220.051C363.237 219.442 363.494 218.683 363.626 217.774H360.832V215.695H366.442C366.457 215.812 366.468 215.985 366.475 216.212C366.482 216.439 366.486 216.575 366.486 216.619C366.486 218.115 366.189 219.446 365.595 220.612C365.008 221.771 364.165 222.68 363.065 223.34C361.965 224 360.649 224.33 359.116 224.33ZM379.48 224.33C378.218 224.33 377.107 224.073 376.147 223.56C375.193 223.047 374.445 222.324 373.903 221.393C373.367 220.462 373.1 219.369 373.1 218.115V208.182L375.784 208.16V218.049C375.784 218.643 375.883 219.175 376.081 219.644C376.286 220.113 376.561 220.513 376.906 220.843C377.25 221.166 377.646 221.411 378.094 221.58C378.541 221.749 379.003 221.833 379.48 221.833C379.971 221.833 380.437 221.749 380.877 221.58C381.324 221.404 381.72 221.155 382.065 220.832C382.409 220.502 382.681 220.102 382.879 219.633C383.077 219.164 383.176 218.636 383.176 218.049V208.16H385.86V218.115C385.86 219.369 385.588 220.462 385.046 221.393C384.51 222.324 383.762 223.047 382.802 223.56C381.848 224.073 380.741 224.33 379.48 224.33ZM388.934 224V208.16H395.479C395.633 208.16 395.831 208.167 396.073 208.182C396.315 208.189 396.538 208.211 396.744 208.248C397.66 208.387 398.416 208.692 399.01 209.161C399.611 209.63 400.055 210.224 400.341 210.943C400.634 211.654 400.781 212.446 400.781 213.319C400.781 214.184 400.634 214.976 400.341 215.695C400.047 216.406 399.6 216.997 398.999 217.466C398.405 217.935 397.653 218.24 396.744 218.379C396.538 218.408 396.311 218.43 396.062 218.445C395.82 218.46 395.625 218.467 395.479 218.467H391.585V224H388.934ZM391.585 215.992H395.369C395.515 215.992 395.68 215.985 395.864 215.97C396.047 215.955 396.216 215.926 396.37 215.882C396.81 215.772 397.154 215.578 397.404 215.299C397.66 215.02 397.84 214.705 397.943 214.353C398.053 214.001 398.108 213.656 398.108 213.319C398.108 212.982 398.053 212.637 397.943 212.285C397.84 211.926 397.66 211.607 397.404 211.328C397.154 211.049 396.81 210.855 396.37 210.745C396.216 210.701 396.047 210.675 395.864 210.668C395.68 210.653 395.515 210.646 395.369 210.646H391.585V215.992ZM405.855 219.699C405.855 219.193 405.903 218.705 405.998 218.236C406.101 217.759 406.266 217.319 406.493 216.916C406.691 216.527 406.911 216.219 407.153 215.992C407.395 215.757 407.667 215.526 407.967 215.299C408.268 215.064 408.602 214.753 408.968 214.364C409.269 214.034 409.467 213.708 409.562 213.385C409.658 213.055 409.705 212.703 409.705 212.329C409.705 212.087 409.68 211.86 409.628 211.647C409.577 211.434 409.485 211.251 409.353 211.097C409.148 210.826 408.884 210.635 408.561 210.525C408.239 210.408 407.894 210.349 407.527 210.349C407.227 210.349 406.937 210.389 406.658 210.47C406.387 210.543 406.156 210.661 405.965 210.822C405.745 210.998 405.584 211.214 405.481 211.471C405.379 211.728 405.331 212.01 405.338 212.318H402.544C402.618 211.585 402.816 210.906 403.138 210.283C403.468 209.652 403.901 209.15 404.436 208.776C404.854 208.468 405.324 208.237 405.844 208.083C406.372 207.929 406.9 207.852 407.428 207.852C408.235 207.852 408.994 207.977 409.705 208.226C410.424 208.475 411.022 208.886 411.498 209.458C411.828 209.832 412.078 210.265 412.246 210.756C412.422 211.247 412.51 211.746 412.51 212.252C412.51 213.007 412.345 213.697 412.015 214.32C411.693 214.943 411.282 215.519 410.783 216.047C410.549 216.296 410.325 216.516 410.112 216.707C409.9 216.898 409.702 217.085 409.518 217.268C409.342 217.444 409.196 217.631 409.078 217.829C408.873 218.174 408.752 218.467 408.715 218.709C408.679 218.944 408.66 219.274 408.66 219.699H405.855ZM405.877 224V221.085H408.66V224H405.877Z" fill="white"></path> <rect x="20" y="20" width="143" height="40" rx="20" fill="white" fill-opacity="0.3"></rect> <path d="M33.2841 46V34.48H37.8361C37.9481 34.48 38.0814 34.4853 38.2361 34.496C38.3907 34.5013 38.5401 34.5173 38.6841 34.544C39.3081 34.64 39.8307 34.8533 40.2521 35.184C40.6787 35.5147 40.9987 35.9333 41.2121 36.44C41.4254 36.9413 41.5321 37.4987 41.5321 38.112C41.5321 39.0027 41.3001 39.776 40.8361 40.432C40.3721 41.0827 39.6921 41.4907 38.7961 41.656L38.2521 41.744H34.7081V46H33.2841ZM40.1401 46L37.8681 41.312L39.2761 40.88L41.7721 46H40.1401ZM34.7081 40.392H37.7881C37.8894 40.392 38.0041 40.3867 38.1321 40.376C38.2654 40.3653 38.3907 40.3467 38.5081 40.32C38.8761 40.2347 39.1747 40.08 39.4041 39.856C39.6387 39.6267 39.8094 39.36 39.9161 39.056C40.0227 38.7467 40.0761 38.432 40.0761 38.112C40.0761 37.792 40.0227 37.48 39.9161 37.176C39.8094 36.8667 39.6387 36.5973 39.4041 36.368C39.1747 36.1387 38.8761 35.984 38.5081 35.904C38.3907 35.872 38.2654 35.8533 38.1321 35.848C38.0041 35.8373 37.8894 35.832 37.7881 35.832H34.7081V40.392ZM43.5341 46V34.48H50.8141V35.832H44.9581V39.44H49.8541V40.792H44.9581V44.648H50.8141V46H43.5341ZM52.8972 46V34.48H54.3212V44.648H59.6652V46H52.8972ZM60.2184 46L64.0744 34.48H66.0584L69.9144 46H68.4344L64.8264 35.312H65.2744L61.6984 46H60.2184ZM62.0744 43.304V41.968H68.0584V43.304H62.0744ZM73.3614 46V35.832H69.4334V34.48H78.7134V35.832H74.7854V46H73.3614ZM80.1472 46V34.48H81.5712V46H80.1472ZM88.7076 46.24C87.5609 46.24 86.5876 45.9867 85.7876 45.48C84.9876 44.9733 84.3769 44.2693 83.9556 43.368C83.5396 42.4667 83.3316 41.424 83.3316 40.24C83.3316 39.056 83.5396 38.0133 83.9556 37.112C84.3769 36.2107 84.9876 35.5067 85.7876 35C86.5876 34.4933 87.5609 34.24 88.7076 34.24C89.8596 34.24 90.8356 34.4933 91.6356 35C92.4356 35.5067 93.0436 36.2107 93.4596 37.112C93.8756 38.0133 94.0836 39.056 94.0836 40.24C94.0836 41.424 93.8756 42.4667 93.4596 43.368C93.0436 44.2693 92.4356 44.9733 91.6356 45.48C90.8356 45.9867 89.8596 46.24 88.7076 46.24ZM88.7076 44.88C89.5662 44.8853 90.2809 44.6933 90.8516 44.304C91.4276 43.9093 91.8569 43.3627 92.1396 42.664C92.4276 41.9653 92.5716 41.1573 92.5716 40.24C92.5716 39.3173 92.4276 38.5093 92.1396 37.816C91.8569 37.1227 91.4276 36.5813 90.8516 36.192C90.2809 35.8027 89.5662 35.6053 88.7076 35.6C87.8489 35.5947 87.1342 35.7867 86.5636 36.176C85.9982 36.5653 85.5716 37.1093 85.2836 37.808C84.9956 38.5067 84.8489 39.3173 84.8436 40.24C84.8382 41.1573 84.9796 41.9627 85.2676 42.656C85.5556 43.3493 85.9849 43.8933 86.5556 44.288C87.1316 44.6773 87.8489 44.8747 88.7076 44.88ZM95.6903 46V34.48H97.1303L103.138 43.48V34.48H104.578V46H103.138L97.1303 36.992V46H95.6903ZM110.903 46.24C110.087 46.24 109.351 46.1013 108.695 45.824C108.045 45.5467 107.506 45.152 107.079 44.64C106.658 44.1227 106.383 43.512 106.255 42.808L107.727 42.576C107.914 43.3013 108.301 43.8693 108.887 44.28C109.479 44.6853 110.175 44.888 110.975 44.888C111.493 44.888 111.959 44.808 112.375 44.648C112.797 44.4827 113.13 44.248 113.375 43.944C113.621 43.64 113.743 43.28 113.743 42.864C113.743 42.608 113.698 42.3893 113.607 42.208C113.522 42.0213 113.402 41.864 113.247 41.736C113.098 41.6027 112.927 41.4907 112.735 41.4C112.543 41.3093 112.343 41.2347 112.135 41.176L109.199 40.304C108.879 40.208 108.57 40.088 108.271 39.944C107.973 39.7947 107.706 39.6107 107.471 39.392C107.237 39.168 107.05 38.9013 106.911 38.592C106.773 38.2773 106.703 37.9067 106.703 37.48C106.703 36.7973 106.879 36.216 107.231 35.736C107.589 35.2507 108.071 34.88 108.679 34.624C109.287 34.368 109.973 34.2427 110.735 34.248C111.509 34.2533 112.199 34.392 112.807 34.664C113.421 34.9307 113.927 35.3147 114.327 35.816C114.733 36.3173 115.005 36.9173 115.143 37.616L113.631 37.88C113.551 37.4107 113.373 37.008 113.095 36.672C112.823 36.3307 112.482 36.0693 112.071 35.888C111.661 35.7013 111.21 35.6053 110.719 35.6C110.25 35.5947 109.826 35.6693 109.447 35.824C109.069 35.9787 108.767 36.1947 108.543 36.472C108.319 36.744 108.207 37.0587 108.207 37.416C108.207 37.768 108.309 38.0533 108.511 38.272C108.714 38.4853 108.962 38.656 109.255 38.784C109.554 38.9067 109.845 39.008 110.127 39.088L112.319 39.72C112.57 39.7893 112.858 39.8853 113.183 40.008C113.514 40.1307 113.834 40.304 114.143 40.528C114.453 40.7467 114.709 41.04 114.911 41.408C115.114 41.7707 115.215 42.2293 115.215 42.784C115.215 43.3387 115.103 43.832 114.879 44.264C114.661 44.696 114.354 45.0587 113.959 45.352C113.565 45.64 113.106 45.8587 112.583 46.008C112.061 46.1627 111.501 46.24 110.903 46.24ZM116.893 46V34.48H118.317V39.56H124.381V34.48H125.805V46H124.381V40.912H118.317V46H116.893ZM128.21 46V34.48H129.634V46H128.21ZM132.034 46V34.48H136.586C136.698 34.48 136.831 34.4853 136.986 34.496C137.141 34.5013 137.29 34.5173 137.434 34.544C138.058 34.64 138.581 34.8533 139.002 35.184C139.429 35.5147 139.749 35.9333 139.962 36.44C140.175 36.9413 140.282 37.4987 140.282 38.112C140.282 38.72 140.173 39.2773 139.954 39.784C139.741 40.2853 139.421 40.704 138.994 41.04C138.573 41.3707 138.053 41.584 137.434 41.68C137.29 41.7013 137.141 41.7173 136.986 41.728C136.831 41.7387 136.698 41.744 136.586 41.744H133.458V46H132.034ZM133.458 40.392H136.538C136.639 40.392 136.754 40.3867 136.882 40.376C137.015 40.3653 137.141 40.3467 137.258 40.32C137.626 40.2347 137.925 40.08 138.154 39.856C138.389 39.6267 138.559 39.36 138.666 39.056C138.773 38.7467 138.826 38.432 138.826 38.112C138.826 37.792 138.773 37.48 138.666 37.176C138.559 36.8667 138.389 36.5973 138.154 36.368C137.925 36.1387 137.626 35.984 137.258 35.904C137.141 35.872 137.015 35.8533 136.882 35.848C136.754 35.8373 136.639 35.832 136.538 35.832H133.458V40.392ZM145.966 46.24C145.15 46.24 144.414 46.1013 143.758 45.824C143.107 45.5467 142.568 45.152 142.142 44.64C141.72 44.1227 141.446 43.512 141.318 42.808L142.79 42.576C142.976 43.3013 143.363 43.8693 143.95 44.28C144.542 44.6853 145.238 44.888 146.038 44.888C146.555 44.888 147.022 44.808 147.438 44.648C147.859 44.4827 148.192 44.248 148.438 43.944C148.683 43.64 148.806 43.28 148.806 42.864C148.806 42.608 148.76 42.3893 148.67 42.208C148.584 42.0213 148.464 41.864 148.31 41.736C148.16 41.6027 147.99 41.4907 147.798 41.4C147.606 41.3093 147.406 41.2347 147.198 41.176L144.262 40.304C143.942 40.208 143.632 40.088 143.334 39.944C143.035 39.7947 142.768 39.6107 142.534 39.392C142.299 39.168 142.112 38.9013 141.974 38.592C141.835 38.2773 141.766 37.9067 141.766 37.48C141.766 36.7973 141.942 36.216 142.294 35.736C142.651 35.2507 143.134 34.88 143.742 34.624C144.35 34.368 145.035 34.2427 145.798 34.248C146.571 34.2533 147.262 34.392 147.87 34.664C148.483 34.9307 148.99 35.3147 149.39 35.816C149.795 36.3173 150.067 36.9173 150.206 37.616L148.694 37.88C148.614 37.4107 148.435 37.008 148.158 36.672C147.886 36.3307 147.544 36.0693 147.134 35.888C146.723 35.7013 146.272 35.6053 145.782 35.6C145.312 35.5947 144.888 35.6693 144.51 35.824C144.131 35.9787 143.83 36.1947 143.606 36.472C143.382 36.744 143.27 37.0587 143.27 37.416C143.27 37.768 143.371 38.0533 143.574 38.272C143.776 38.4853 144.024 38.656 144.318 38.784C144.616 38.9067 144.907 39.008 145.19 39.088L147.382 39.72C147.632 39.7893 147.92 39.8853 148.246 40.008C148.576 40.1307 148.896 40.304 149.206 40.528C149.515 40.7467 149.771 41.04 149.974 41.408C150.176 41.7707 150.278 42.2293 150.278 42.784C150.278 43.3387 150.166 43.832 149.942 44.264C149.723 44.696 149.416 45.0587 149.022 45.352C148.627 45.64 148.168 45.8587 147.646 46.008C147.123 46.1627 146.563 46.24 145.966 46.24Z" fill="white"></path> <defs> <linearGradient id="paint0_linear_136_320" x1="300" y1="0" x2="300" y2="400" gradientUnits="userSpaceOnUse"> <stop stop-color="#A91F49"></stop> <stop offset="1" stop-color="#7E0046"></stop> </linearGradient> </defs> </svg> 