<?xml version="1.0" encoding="UTF-8"?> <svg xmlns="http://www.w3.org/2000/svg" width="600" height="400" viewBox="0 0 600 400" fill="none"> <rect width="600" height="400" rx="20" fill="url(#paint0_linear_160_161)"></rect> <path d="M86.107 177L91.101 161.16H94.984L99.978 177H97.25L92.718 162.788H93.312L88.835 177H86.107ZM88.89 173.568V171.093H97.206V173.568H88.89ZM101.967 177V161.16H108.512C108.666 161.16 108.864 161.167 109.106 161.182C109.348 161.189 109.571 161.211 109.777 161.248C110.693 161.387 111.449 161.692 112.043 162.161C112.644 162.63 113.088 163.224 113.374 163.943C113.667 164.654 113.814 165.446 113.814 166.319C113.814 167.61 113.487 168.721 112.835 169.652C112.182 170.576 111.181 171.148 109.832 171.368L108.699 171.467H104.618V177H101.967ZM111.064 177L107.94 170.554L110.635 169.96L114.067 177H111.064ZM104.618 168.992H108.402C108.548 168.992 108.713 168.985 108.897 168.97C109.08 168.955 109.249 168.926 109.403 168.882C109.843 168.772 110.187 168.578 110.437 168.299C110.693 168.02 110.873 167.705 110.976 167.353C111.086 167.001 111.141 166.656 111.141 166.319C111.141 165.982 111.086 165.637 110.976 165.285C110.873 164.926 110.693 164.607 110.437 164.328C110.187 164.049 109.843 163.855 109.403 163.745C109.249 163.701 109.08 163.675 108.897 163.668C108.713 163.653 108.548 163.646 108.402 163.646H104.618V168.992ZM116.49 177V161.16H126.72V163.646H119.141V167.551H125.4V170.037H119.141V174.514H126.72V177H116.49ZM132.664 177L137.658 161.16H141.541L146.535 177H143.807L139.275 162.788H139.869L135.392 177H132.664ZM135.447 173.568V171.093H143.763V173.568H135.447ZM148.523 177V161.16H155.068C155.222 161.16 155.42 161.167 155.662 161.182C155.904 161.189 156.128 161.211 156.333 161.248C157.25 161.387 158.005 161.692 158.599 162.161C159.201 162.63 159.644 163.224 159.93 163.943C160.224 164.654 160.37 165.446 160.37 166.319C160.37 167.61 160.044 168.721 159.391 169.652C158.739 170.576 157.738 171.148 156.388 171.368L155.255 171.467H151.174V177H148.523ZM157.62 177L154.496 170.554L157.191 169.96L160.623 177H157.62ZM151.174 168.992H154.958C155.105 168.992 155.27 168.985 155.453 168.97C155.637 168.955 155.805 168.926 155.959 168.882C156.399 168.772 156.744 168.578 156.993 168.299C157.25 168.02 157.43 167.705 157.532 167.353C157.642 167.001 157.697 166.656 157.697 166.319C157.697 165.982 157.642 165.637 157.532 165.285C157.43 164.926 157.25 164.607 156.993 164.328C156.744 164.049 156.399 163.855 155.959 163.745C155.805 163.701 155.637 163.675 155.453 163.668C155.27 163.653 155.105 163.646 154.958 163.646H151.174V168.992ZM169.581 177.33C168.554 177.33 167.59 177.15 166.688 176.791C165.793 176.424 165.005 175.889 164.323 175.185C163.648 174.481 163.12 173.619 162.739 172.6C162.358 171.573 162.167 170.4 162.167 169.08C162.167 167.349 162.49 165.872 163.135 164.647C163.78 163.415 164.664 162.473 165.786 161.82C166.908 161.16 168.173 160.83 169.581 160.83C171.532 160.83 173.075 161.285 174.212 162.194C175.356 163.096 176.13 164.365 176.533 166L173.827 166.429C173.526 165.49 173.035 164.742 172.353 164.185C171.671 163.62 170.802 163.338 169.746 163.338C168.683 163.323 167.799 163.554 167.095 164.031C166.391 164.508 165.859 165.179 165.5 166.044C165.148 166.909 164.972 167.921 164.972 169.08C164.972 170.239 165.148 171.247 165.5 172.105C165.852 172.956 166.38 173.619 167.084 174.096C167.795 174.573 168.683 174.818 169.746 174.833C170.545 174.84 171.246 174.697 171.847 174.404C172.448 174.103 172.94 173.652 173.321 173.051C173.702 172.442 173.959 171.683 174.091 170.774H171.297V168.695H176.907C176.922 168.812 176.933 168.985 176.94 169.212C176.947 169.439 176.951 169.575 176.951 169.619C176.951 171.115 176.654 172.446 176.06 173.612C175.473 174.771 174.63 175.68 173.53 176.34C172.43 177 171.114 177.33 169.581 177.33ZM185.54 177.33C184.279 177.33 183.168 177.073 182.207 176.56C181.254 176.047 180.506 175.324 179.963 174.393C179.428 173.462 179.16 172.369 179.16 171.115V161.182L181.844 161.16V171.049C181.844 171.643 181.943 172.175 182.141 172.644C182.346 173.113 182.621 173.513 182.966 173.843C183.311 174.166 183.707 174.411 184.154 174.58C184.601 174.749 185.063 174.833 185.54 174.833C186.031 174.833 186.497 174.749 186.937 174.58C187.384 174.404 187.78 174.155 188.125 173.832C188.47 173.502 188.741 173.102 188.939 172.633C189.137 172.164 189.236 171.636 189.236 171.049V161.16H191.92V171.115C191.92 172.369 191.649 173.462 191.106 174.393C190.571 175.324 189.823 176.047 188.862 176.56C187.909 177.073 186.801 177.33 185.54 177.33ZM194.994 177V161.16H197.381L202.859 172.38L208.337 161.16H210.724V177H208.249V166.847L203.387 177H202.331L197.48 166.847V177H194.994ZM213.814 177V161.16H224.044V163.646H216.465V167.551H222.724V170.037H216.465V174.514H224.044V177H213.814ZM226.684 177V161.16H229.368L236.716 172.325V161.16H239.4V177H236.716L229.368 165.835V177H226.684ZM246.281 177V163.646H241.155V161.16H254.058V163.646H248.932V177H246.281ZM261.679 177.33C260.521 177.33 259.476 177.128 258.544 176.725C257.62 176.322 256.858 175.746 256.256 174.998C255.662 174.243 255.285 173.348 255.123 172.314L257.873 171.896C258.108 172.835 258.588 173.561 259.314 174.074C260.048 174.587 260.891 174.844 261.844 174.844C262.409 174.844 262.941 174.756 263.439 174.58C263.938 174.404 264.341 174.147 264.649 173.81C264.965 173.473 265.122 173.058 265.122 172.567C265.122 172.347 265.086 172.145 265.012 171.962C264.939 171.771 264.829 171.603 264.682 171.456C264.543 171.309 264.36 171.177 264.132 171.06C263.912 170.935 263.656 170.829 263.362 170.741L259.27 169.531C258.918 169.428 258.537 169.293 258.126 169.124C257.723 168.948 257.338 168.71 256.971 168.409C256.612 168.101 256.315 167.712 256.08 167.243C255.853 166.766 255.739 166.18 255.739 165.483C255.739 164.464 255.996 163.609 256.509 162.92C257.03 162.223 257.727 161.703 258.599 161.358C259.479 161.013 260.455 160.845 261.525 160.852C262.611 160.859 263.579 161.046 264.429 161.413C265.28 161.772 265.991 162.297 266.563 162.986C267.135 163.675 267.539 164.508 267.773 165.483L264.924 165.978C264.807 165.421 264.58 164.948 264.242 164.559C263.912 164.163 263.505 163.862 263.021 163.657C262.545 163.452 262.035 163.342 261.492 163.327C260.964 163.32 260.473 163.4 260.018 163.569C259.571 163.73 259.208 163.965 258.929 164.273C258.658 164.581 258.522 164.94 258.522 165.351C258.522 165.74 258.64 166.059 258.874 166.308C259.109 166.55 259.399 166.744 259.743 166.891C260.095 167.03 260.451 167.148 260.81 167.243L263.648 168.035C264.037 168.138 264.473 168.277 264.957 168.453C265.441 168.629 265.907 168.875 266.354 169.19C266.802 169.505 267.168 169.92 267.454 170.433C267.748 170.946 267.894 171.599 267.894 172.391C267.894 173.212 267.722 173.935 267.377 174.558C267.04 175.174 266.582 175.687 266.002 176.098C265.423 176.509 264.759 176.817 264.011 177.022C263.271 177.227 262.493 177.33 261.679 177.33ZM273.58 177L278.574 161.16H282.457L287.451 177H284.723L280.191 162.788H280.785L276.308 177H273.58ZM276.363 173.568V171.093H284.679V173.568H276.363ZM289.439 177V161.16H292.123L299.471 172.325V161.16H302.155V177H299.471L292.123 165.835V177H289.439ZM309.635 177V161.16H319.865V163.646H312.286V167.551H318.545V170.037H312.286V174.514H319.865V177H309.635ZM328.216 177.33C327.058 177.33 326.013 177.128 325.081 176.725C324.157 176.322 323.395 175.746 322.793 174.998C322.199 174.243 321.822 173.348 321.66 172.314L324.41 171.896C324.645 172.835 325.125 173.561 325.851 174.074C326.585 174.587 327.428 174.844 328.381 174.844C328.946 174.844 329.478 174.756 329.976 174.58C330.475 174.404 330.878 174.147 331.186 173.81C331.502 173.473 331.659 173.058 331.659 172.567C331.659 172.347 331.623 172.145 331.549 171.962C331.476 171.771 331.366 171.603 331.219 171.456C331.08 171.309 330.897 171.177 330.669 171.06C330.449 170.935 330.193 170.829 329.899 170.741L325.807 169.531C325.455 169.428 325.074 169.293 324.663 169.124C324.26 168.948 323.875 168.71 323.508 168.409C323.149 168.101 322.852 167.712 322.617 167.243C322.39 166.766 322.276 166.18 322.276 165.483C322.276 164.464 322.533 163.609 323.046 162.92C323.567 162.223 324.264 161.703 325.136 161.358C326.016 161.013 326.992 160.845 328.062 160.852C329.148 160.859 330.116 161.046 330.966 161.413C331.817 161.772 332.528 162.297 333.1 162.986C333.672 163.675 334.076 164.508 334.31 165.483L331.461 165.978C331.344 165.421 331.117 164.948 330.779 164.559C330.449 164.163 330.042 163.862 329.558 163.657C329.082 163.452 328.572 163.342 328.029 163.327C327.501 163.32 327.01 163.4 326.555 163.569C326.108 163.73 325.745 163.965 325.466 164.273C325.195 164.581 325.059 164.94 325.059 165.351C325.059 165.74 325.177 166.059 325.411 166.308C325.646 166.55 325.936 166.744 326.28 166.891C326.632 167.03 326.988 167.148 327.347 167.243L330.185 168.035C330.574 168.138 331.01 168.277 331.494 168.453C331.978 168.629 332.444 168.875 332.891 169.19C333.339 169.505 333.705 169.92 333.991 170.433C334.285 170.946 334.431 171.599 334.431 172.391C334.431 173.212 334.259 173.935 333.914 174.558C333.577 175.174 333.119 175.687 332.539 176.098C331.96 176.509 331.296 176.817 330.548 177.022C329.808 177.227 329.03 177.33 328.216 177.33ZM342.998 177.33C341.839 177.33 340.794 177.128 339.863 176.725C338.939 176.322 338.176 175.746 337.575 174.998C336.981 174.243 336.603 173.348 336.442 172.314L339.192 171.896C339.426 172.835 339.907 173.561 340.633 174.074C341.366 174.587 342.209 174.844 343.163 174.844C343.727 174.844 344.259 174.756 344.758 174.58C345.256 174.404 345.66 174.147 345.968 173.81C346.283 173.473 346.441 173.058 346.441 172.567C346.441 172.347 346.404 172.145 346.331 171.962C346.257 171.771 346.147 171.603 346.001 171.456C345.861 171.309 345.678 171.177 345.451 171.06C345.231 170.935 344.974 170.829 344.681 170.741L340.589 169.531C340.237 169.428 339.855 169.293 339.445 169.124C339.041 168.948 338.656 168.71 338.29 168.409C337.93 168.101 337.633 167.712 337.399 167.243C337.171 166.766 337.058 166.18 337.058 165.483C337.058 164.464 337.314 163.609 337.828 162.92C338.348 162.223 339.045 161.703 339.918 161.358C340.798 161.013 341.773 160.845 342.844 160.852C343.929 160.859 344.897 161.046 345.748 161.413C346.598 161.772 347.31 162.297 347.882 162.986C348.454 163.675 348.857 164.508 349.092 165.483L346.243 165.978C346.125 165.421 345.898 164.948 345.561 164.559C345.231 164.163 344.824 163.862 344.34 163.657C343.863 163.452 343.353 163.342 342.811 163.327C342.283 163.32 341.791 163.4 341.337 163.569C340.889 163.73 340.526 163.965 340.248 164.273C339.976 164.581 339.841 164.94 339.841 165.351C339.841 165.74 339.958 166.059 340.193 166.308C340.427 166.55 340.717 166.744 341.062 166.891C341.414 167.03 341.769 167.148 342.129 167.243L344.967 168.035C345.355 168.138 345.792 168.277 346.276 168.453C346.76 168.629 347.225 168.875 347.673 169.19C348.12 169.505 348.487 169.92 348.773 170.433C349.066 170.946 349.213 171.599 349.213 172.391C349.213 173.212 349.04 173.935 348.696 174.558C348.358 175.174 347.9 175.687 347.321 176.098C346.741 176.509 346.078 176.817 345.33 177.022C344.589 177.227 343.812 177.33 342.998 177.33ZM351.594 177V161.16H361.824V163.646H354.245V167.551H360.504V170.037H354.245V174.514H361.824V177H351.594ZM364.463 177V161.16H367.147L374.495 172.325V161.16H377.179V177H374.495L367.147 165.835V177H364.463ZM384.06 177V163.646H378.934V161.16H391.837V163.646H386.711V177H384.06ZM393.816 177V161.16H396.467V177H393.816ZM398.662 177L403.656 161.16H407.539L412.533 177H409.805L405.273 162.788H405.867L401.39 177H398.662ZM401.445 173.568V171.093H409.761V173.568H401.445ZM414.741 177V161.16H417.392V174.514H424.388V177H414.741ZM429.561 177V161.16H436.106C436.26 161.16 436.458 161.167 436.7 161.182C436.942 161.189 437.165 161.211 437.371 161.248C438.287 161.387 439.043 161.692 439.637 162.161C440.238 162.63 440.682 163.224 440.968 163.943C441.261 164.654 441.408 165.446 441.408 166.319C441.408 167.184 441.261 167.976 440.968 168.695C440.674 169.406 440.227 169.997 439.626 170.466C439.032 170.935 438.28 171.24 437.371 171.379C437.165 171.408 436.938 171.43 436.689 171.445C436.447 171.46 436.252 171.467 436.106 171.467H432.212V177H429.561ZM432.212 168.992H435.996C436.142 168.992 436.307 168.985 436.491 168.97C436.674 168.955 436.843 168.926 436.997 168.882C437.437 168.772 437.781 168.578 438.031 168.299C438.287 168.02 438.467 167.705 438.57 167.353C438.68 167.001 438.735 166.656 438.735 166.319C438.735 165.982 438.68 165.637 438.57 165.285C438.467 164.926 438.287 164.607 438.031 164.328C437.781 164.049 437.437 163.855 436.997 163.745C436.843 163.701 436.674 163.675 436.491 163.668C436.307 163.653 436.142 163.646 435.996 163.646H432.212V168.992ZM441.416 177L446.41 161.16H450.293L455.287 177H452.559L448.027 162.788H448.621L444.144 177H441.416ZM444.199 173.568V171.093H452.515V173.568H444.199ZM457.275 177V161.16H463.82C463.974 161.16 464.172 161.167 464.414 161.182C464.656 161.189 464.88 161.211 465.085 161.248C466.002 161.387 466.757 161.692 467.351 162.161C467.953 162.63 468.396 163.224 468.682 163.943C468.976 164.654 469.122 165.446 469.122 166.319C469.122 167.61 468.796 168.721 468.143 169.652C467.491 170.576 466.49 171.148 465.14 171.368L464.007 171.467H459.926V177H457.275ZM466.372 177L463.248 170.554L465.943 169.96L469.375 177H466.372ZM459.926 168.992H463.71C463.857 168.992 464.022 168.985 464.205 168.97C464.389 168.955 464.557 168.926 464.711 168.882C465.151 168.772 465.496 168.578 465.745 168.299C466.002 168.02 466.182 167.705 466.284 167.353C466.394 167.001 466.449 166.656 466.449 166.319C466.449 165.982 466.394 165.637 466.284 165.285C466.182 164.926 466.002 164.607 465.745 164.328C465.496 164.049 465.151 163.855 464.711 163.745C464.557 163.701 464.389 163.675 464.205 163.668C464.022 163.653 463.857 163.646 463.71 163.646H459.926V168.992ZM475.605 177V163.646H470.479V161.16H483.382V163.646H478.256V177H475.605ZM495.578 177.33C493.994 177.33 492.637 176.985 491.508 176.296C490.379 175.599 489.51 174.631 488.901 173.392C488.3 172.153 487.999 170.715 487.999 169.08C487.999 167.445 488.3 166.007 488.901 164.768C489.51 163.529 490.379 162.564 491.508 161.875C492.637 161.178 493.994 160.83 495.578 160.83C497.162 160.83 498.519 161.178 499.648 161.875C500.785 162.564 501.654 163.529 502.255 164.768C502.864 166.007 503.168 167.445 503.168 169.08C503.168 170.715 502.864 172.153 502.255 173.392C501.654 174.631 500.785 175.599 499.648 176.296C498.519 176.985 497.162 177.33 495.578 177.33ZM495.578 174.833C496.641 174.84 497.525 174.606 498.229 174.129C498.94 173.652 499.472 172.981 499.824 172.116C500.183 171.251 500.363 170.239 500.363 169.08C500.363 167.921 500.183 166.917 499.824 166.066C499.472 165.208 498.94 164.541 498.229 164.064C497.525 163.587 496.641 163.342 495.578 163.327C494.515 163.32 493.631 163.554 492.927 164.031C492.223 164.508 491.691 165.179 491.332 166.044C490.98 166.909 490.804 167.921 490.804 169.08C490.804 170.239 490.98 171.247 491.332 172.105C491.684 172.956 492.212 173.619 492.916 174.096C493.627 174.573 494.515 174.818 495.578 174.833ZM505.357 177V161.16H514.894V163.811H508.008V167.76H513.574V170.4H508.008V177H505.357ZM42.5517 208V192.16H49.0967C49.2507 192.16 49.4487 192.167 49.6907 192.182C49.9327 192.189 50.1564 192.211 50.3617 192.248C51.2784 192.387 52.0337 192.692 52.6277 193.161C53.2291 193.63 53.6727 194.224 53.9587 194.943C54.2521 195.654 54.3987 196.446 54.3987 197.319C54.3987 198.61 54.0724 199.721 53.4197 200.652C52.7671 201.576 51.7661 202.148 50.4167 202.368L49.2837 202.467H45.2027V208H42.5517ZM51.6487 208L48.5247 201.554L51.2197 200.96L54.6517 208H51.6487ZM45.2027 199.992H48.9867C49.1334 199.992 49.2984 199.985 49.4817 199.97C49.6651 199.955 49.8337 199.926 49.9877 199.882C50.4277 199.772 50.7724 199.578 51.0217 199.299C51.2784 199.02 51.4581 198.705 51.5607 198.353C51.6707 198.001 51.7257 197.656 51.7257 197.319C51.7257 196.982 51.6707 196.637 51.5607 196.285C51.4581 195.926 51.2784 195.607 51.0217 195.328C50.7724 195.049 50.4277 194.855 49.9877 194.745C49.8337 194.701 49.6651 194.675 49.4817 194.668C49.2984 194.653 49.1334 194.646 48.9867 194.646H45.2027V199.992ZM57.0752 208V192.16H67.3052V194.646H59.7262V198.551H65.9852V201.037H59.7262V205.514H67.3052V208H57.0752ZM70.1643 208V192.16H72.8153V205.514H79.8113V208H70.1643ZM80.5748 208L85.5688 192.16H89.4518L94.4458 208H91.7178L87.1858 193.788H87.7798L83.3028 208H80.5748ZM83.3578 204.568V202.093H91.6738V204.568H83.3578ZM98.93 208V194.646H93.804V192.16H106.707V194.646H101.581V208H98.93ZM108.686 208V192.16H111.337V208H108.686ZM121.331 208.33C119.747 208.33 118.39 207.985 117.261 207.296C116.131 206.599 115.262 205.631 114.654 204.392C114.052 203.153 113.752 201.715 113.752 200.08C113.752 198.445 114.052 197.007 114.654 195.768C115.262 194.529 116.131 193.564 117.261 192.875C118.39 192.178 119.747 191.83 121.331 191.83C122.915 191.83 124.271 192.178 125.401 192.875C126.537 193.564 127.406 194.529 128.008 195.768C128.616 197.007 128.921 198.445 128.921 200.08C128.921 201.715 128.616 203.153 128.008 204.392C127.406 205.631 126.537 206.599 125.401 207.296C124.271 207.985 122.915 208.33 121.331 208.33ZM121.331 205.833C122.394 205.84 123.278 205.606 123.982 205.129C124.693 204.652 125.225 203.981 125.577 203.116C125.936 202.251 126.116 201.239 126.116 200.08C126.116 198.921 125.936 197.917 125.577 197.066C125.225 196.208 124.693 195.541 123.982 195.064C123.278 194.587 122.394 194.342 121.331 194.327C120.267 194.32 119.384 194.554 118.68 195.031C117.976 195.508 117.444 196.179 117.085 197.044C116.733 197.909 116.557 198.921 116.557 200.08C116.557 201.239 116.733 202.247 117.085 203.105C117.437 203.956 117.965 204.619 118.669 205.096C119.38 205.573 120.267 205.818 121.331 205.833ZM131.11 208V192.16H133.794L141.142 203.325V192.16H143.826V208H141.142L133.794 196.835V208H131.11ZM152.764 208.33C151.606 208.33 150.561 208.128 149.629 207.725C148.705 207.322 147.943 206.746 147.341 205.998C146.747 205.243 146.37 204.348 146.208 203.314L148.958 202.896C149.193 203.835 149.673 204.561 150.399 205.074C151.133 205.587 151.976 205.844 152.929 205.844C153.494 205.844 154.026 205.756 154.524 205.58C155.023 205.404 155.426 205.147 155.734 204.81C156.05 204.473 156.207 204.058 156.207 203.567C156.207 203.347 156.171 203.145 156.097 202.962C156.024 202.771 155.914 202.603 155.767 202.456C155.628 202.309 155.445 202.177 155.217 202.06C154.997 201.935 154.741 201.829 154.447 201.741L150.355 200.531C150.003 200.428 149.622 200.293 149.211 200.124C148.808 199.948 148.423 199.71 148.056 199.409C147.697 199.101 147.4 198.712 147.165 198.243C146.938 197.766 146.824 197.18 146.824 196.483C146.824 195.464 147.081 194.609 147.594 193.92C148.115 193.223 148.812 192.703 149.684 192.358C150.564 192.013 151.54 191.845 152.61 191.852C153.696 191.859 154.664 192.046 155.514 192.413C156.365 192.772 157.076 193.297 157.648 193.986C158.22 194.675 158.624 195.508 158.858 196.483L156.009 196.978C155.892 196.421 155.665 195.948 155.327 195.559C154.997 195.163 154.59 194.862 154.106 194.657C153.63 194.452 153.12 194.342 152.577 194.327C152.049 194.32 151.558 194.4 151.103 194.569C150.656 194.73 150.293 194.965 150.014 195.273C149.743 195.581 149.607 195.94 149.607 196.351C149.607 196.74 149.725 197.059 149.959 197.308C150.194 197.55 150.484 197.744 150.828 197.891C151.18 198.03 151.536 198.148 151.895 198.243L154.733 199.035C155.122 199.138 155.558 199.277 156.042 199.453C156.526 199.629 156.992 199.875 157.439 200.19C157.887 200.505 158.253 200.92 158.539 201.433C158.833 201.946 158.979 202.599 158.979 203.391C158.979 204.212 158.807 204.935 158.462 205.558C158.125 206.174 157.667 206.687 157.087 207.098C156.508 207.509 155.844 207.817 155.096 208.022C154.356 208.227 153.578 208.33 152.764 208.33ZM161.36 208V192.16H164.011V198.826H171.513V192.16H174.153V208H171.513V201.312H164.011V208H161.36ZM177.457 208V192.16H180.108V208H177.457ZM183.403 208V192.16H189.948C190.102 192.16 190.3 192.167 190.542 192.182C190.784 192.189 191.008 192.211 191.213 192.248C192.13 192.387 192.885 192.692 193.479 193.161C194.081 193.63 194.524 194.224 194.81 194.943C195.104 195.654 195.25 196.446 195.25 197.319C195.25 198.184 195.104 198.976 194.81 199.695C194.517 200.406 194.07 200.997 193.468 201.466C192.874 201.935 192.123 202.24 191.213 202.379C191.008 202.408 190.781 202.43 190.531 202.445C190.289 202.46 190.095 202.467 189.948 202.467H186.054V208H183.403ZM186.054 199.992H189.838C189.985 199.992 190.15 199.985 190.333 199.97C190.517 199.955 190.685 199.926 190.839 199.882C191.279 199.772 191.624 199.578 191.873 199.299C192.13 199.02 192.31 198.705 192.412 198.353C192.522 198.001 192.577 197.656 192.577 197.319C192.577 196.982 192.522 196.637 192.412 196.285C192.31 195.926 192.13 195.607 191.873 195.328C191.624 195.049 191.279 194.855 190.839 194.745C190.685 194.701 190.517 194.675 190.333 194.668C190.15 194.653 189.985 194.646 189.838 194.646H186.054V199.992ZM203.317 208.33C202.158 208.33 201.113 208.128 200.182 207.725C199.258 207.322 198.495 206.746 197.894 205.998C197.3 205.243 196.922 204.348 196.761 203.314L199.511 202.896C199.746 203.835 200.226 204.561 200.952 205.074C201.685 205.587 202.529 205.844 203.482 205.844C204.047 205.844 204.578 205.756 205.077 205.58C205.576 205.404 205.979 205.147 206.287 204.81C206.602 204.473 206.76 204.058 206.76 203.567C206.76 203.347 206.723 203.145 206.65 202.962C206.577 202.771 206.467 202.603 206.32 202.456C206.181 202.309 205.997 202.177 205.77 202.06C205.55 201.935 205.293 201.829 205 201.741L200.908 200.531C200.556 200.428 200.175 200.293 199.764 200.124C199.361 199.948 198.976 199.71 198.609 199.409C198.25 199.101 197.953 198.712 197.718 198.243C197.491 197.766 197.377 197.18 197.377 196.483C197.377 195.464 197.634 194.609 198.147 193.92C198.668 193.223 199.364 192.703 200.237 192.358C201.117 192.013 202.092 191.845 203.163 191.852C204.248 191.859 205.216 192.046 206.067 192.413C206.918 192.772 207.629 193.297 208.201 193.986C208.773 194.675 209.176 195.508 209.411 196.483L206.562 196.978C206.445 196.421 206.217 195.948 205.88 195.559C205.55 195.163 205.143 194.862 204.659 194.657C204.182 194.452 203.673 194.342 203.13 194.327C202.602 194.32 202.111 194.4 201.656 194.569C201.209 194.73 200.846 194.965 200.567 195.273C200.296 195.581 200.16 195.94 200.16 196.351C200.16 196.74 200.277 197.059 200.512 197.308C200.747 197.55 201.036 197.744 201.381 197.891C201.733 198.03 202.089 198.148 202.448 198.243L205.286 199.035C205.675 199.138 206.111 199.277 206.595 199.453C207.079 199.629 207.545 199.875 207.992 200.19C208.439 200.505 208.806 200.92 209.092 201.433C209.385 201.946 209.532 202.599 209.532 203.391C209.532 204.212 209.36 204.935 209.015 205.558C208.678 206.174 208.219 206.687 207.64 207.098C207.061 207.509 206.397 207.817 205.649 208.022C204.908 208.227 204.131 208.33 203.317 208.33ZM214.784 203.699C214.784 203.193 214.832 202.705 214.927 202.236C215.03 201.759 215.195 201.319 215.422 200.916C215.62 200.527 215.84 200.219 216.082 199.992C216.324 199.757 216.595 199.526 216.896 199.299C217.197 199.064 217.53 198.753 217.897 198.364C218.198 198.034 218.396 197.708 218.491 197.385C218.586 197.055 218.634 196.703 218.634 196.329C218.634 196.087 218.608 195.86 218.557 195.647C218.506 195.434 218.414 195.251 218.282 195.097C218.077 194.826 217.813 194.635 217.49 194.525C217.167 194.408 216.823 194.349 216.456 194.349C216.155 194.349 215.866 194.389 215.587 194.47C215.316 194.543 215.085 194.661 214.894 194.822C214.674 194.998 214.513 195.214 214.41 195.471C214.307 195.728 214.26 196.01 214.267 196.318H211.473C211.546 195.585 211.744 194.906 212.067 194.283C212.397 193.652 212.83 193.15 213.365 192.776C213.783 192.468 214.252 192.237 214.773 192.083C215.301 191.929 215.829 191.852 216.357 191.852C217.164 191.852 217.923 191.977 218.634 192.226C219.353 192.475 219.95 192.886 220.427 193.458C220.757 193.832 221.006 194.265 221.175 194.756C221.351 195.247 221.439 195.746 221.439 196.252C221.439 197.007 221.274 197.697 220.944 198.32C220.621 198.943 220.211 199.519 219.712 200.047C219.477 200.296 219.254 200.516 219.041 200.707C218.828 200.898 218.63 201.085 218.447 201.268C218.271 201.444 218.124 201.631 218.007 201.829C217.802 202.174 217.681 202.467 217.644 202.709C217.607 202.944 217.589 203.274 217.589 203.699H214.784ZM214.806 208V205.085H217.589V208H214.806ZM228.478 208V192.16H233.527C233.659 192.16 233.919 192.164 234.308 192.171C234.704 192.178 235.085 192.204 235.452 192.248C236.706 192.409 237.765 192.857 238.631 193.59C239.503 194.316 240.163 195.244 240.611 196.373C241.058 197.502 241.282 198.738 241.282 200.08C241.282 201.422 241.058 202.658 240.611 203.787C240.163 204.916 239.503 205.848 238.631 206.581C237.765 207.307 236.706 207.751 235.452 207.912C235.092 207.956 234.715 207.982 234.319 207.989C233.923 207.996 233.659 208 233.527 208H228.478ZM231.173 205.503H233.527C233.747 205.503 234.025 205.496 234.363 205.481C234.707 205.466 235.012 205.433 235.276 205.382C236.024 205.243 236.632 204.909 237.102 204.381C237.571 203.853 237.916 203.211 238.136 202.456C238.363 201.701 238.477 200.909 238.477 200.08C238.477 199.222 238.363 198.415 238.136 197.66C237.908 196.905 237.556 196.27 237.08 195.757C236.61 195.244 236.009 194.917 235.276 194.778C235.012 194.719 234.707 194.686 234.363 194.679C234.025 194.664 233.747 194.657 233.527 194.657H231.173V205.503ZM250.581 208.33C248.997 208.33 247.64 207.985 246.511 207.296C245.381 206.599 244.512 205.631 243.904 204.392C243.302 203.153 243.002 201.715 243.002 200.08C243.002 198.445 243.302 197.007 243.904 195.768C244.512 194.529 245.381 193.564 246.511 192.875C247.64 192.178 248.997 191.83 250.581 191.83C252.165 191.83 253.521 192.178 254.651 192.875C255.787 193.564 256.656 194.529 257.258 195.768C257.866 197.007 258.171 198.445 258.171 200.08C258.171 201.715 257.866 203.153 257.258 204.392C256.656 205.631 255.787 206.599 254.651 207.296C253.521 207.985 252.165 208.33 250.581 208.33ZM250.581 205.833C251.644 205.84 252.528 205.606 253.232 205.129C253.943 204.652 254.475 203.981 254.827 203.116C255.186 202.251 255.366 201.239 255.366 200.08C255.366 198.921 255.186 197.917 254.827 197.066C254.475 196.208 253.943 195.541 253.232 195.064C252.528 194.587 251.644 194.342 250.581 194.327C249.517 194.32 248.634 194.554 247.93 195.031C247.226 195.508 246.694 196.179 246.335 197.044C245.983 197.909 245.807 198.921 245.807 200.08C245.807 201.239 245.983 202.247 246.335 203.105C246.687 203.956 247.215 204.619 247.919 205.096C248.63 205.573 249.517 205.818 250.581 205.833ZM268.571 208V194.646H263.445V192.16H276.348V194.646H271.222V208H268.571ZM278.106 208V192.16H280.757V198.826H288.259V192.16H290.899V208H288.259V201.312H280.757V208H278.106ZM293.983 208V192.16H304.213V194.646H296.634V198.551H302.893V201.037H296.634V205.514H304.213V208H293.983ZM310.703 208V201.51L305.312 192.16H308.404L312.045 198.474L315.675 192.16H318.766L313.387 201.51V208H310.703ZM323.825 208V192.16H326.476V198.826H333.978V192.16H336.618V208H333.978V201.312H326.476V208H323.825ZM339.702 208V192.16H349.932V194.646H342.353V198.551H348.612V201.037H342.353V205.514H349.932V208H339.702ZM352.791 208V192.16H355.442V205.514H362.438V208H352.791ZM364.302 208V192.16H370.847C371.001 192.16 371.199 192.167 371.441 192.182C371.683 192.189 371.906 192.211 372.112 192.248C373.028 192.387 373.784 192.692 374.378 193.161C374.979 193.63 375.423 194.224 375.709 194.943C376.002 195.654 376.149 196.446 376.149 197.319C376.149 198.184 376.002 198.976 375.709 199.695C375.415 200.406 374.968 200.997 374.367 201.466C373.773 201.935 373.021 202.24 372.112 202.379C371.906 202.408 371.679 202.43 371.43 202.445C371.188 202.46 370.993 202.467 370.847 202.467H366.953V208H364.302ZM366.953 199.992H370.737C370.883 199.992 371.048 199.985 371.232 199.97C371.415 199.955 371.584 199.926 371.738 199.882C372.178 199.772 372.522 199.578 372.772 199.299C373.028 199.02 373.208 198.705 373.311 198.353C373.421 198.001 373.476 197.656 373.476 197.319C373.476 196.982 373.421 196.637 373.311 196.285C373.208 195.926 373.028 195.607 372.772 195.328C372.522 195.049 372.178 194.855 371.738 194.745C371.584 194.701 371.415 194.675 371.232 194.668C371.048 194.653 370.883 194.646 370.737 194.646H366.953V199.992ZM386.563 208V194.646H381.437V192.16H394.34V194.646H389.214V208H386.563ZM402.798 208.33C401.214 208.33 399.857 207.985 398.728 207.296C397.598 206.599 396.729 205.631 396.121 204.392C395.519 203.153 395.219 201.715 395.219 200.08C395.219 198.445 395.519 197.007 396.121 195.768C396.729 194.529 397.598 193.564 398.728 192.875C399.857 192.178 401.214 191.83 402.798 191.83C404.382 191.83 405.738 192.178 406.868 192.875C408.004 193.564 408.873 194.529 409.475 195.768C410.083 197.007 410.388 198.445 410.388 200.08C410.388 201.715 410.083 203.153 409.475 204.392C408.873 205.631 408.004 206.599 406.868 207.296C405.738 207.985 404.382 208.33 402.798 208.33ZM402.798 205.833C403.861 205.84 404.745 205.606 405.449 205.129C406.16 204.652 406.692 203.981 407.044 203.116C407.403 202.251 407.583 201.239 407.583 200.08C407.583 198.921 407.403 197.917 407.044 197.066C406.692 196.208 406.16 195.541 405.449 195.064C404.745 194.587 403.861 194.342 402.798 194.327C401.734 194.32 400.851 194.554 400.147 195.031C399.443 195.508 398.911 196.179 398.552 197.044C398.2 197.909 398.024 198.921 398.024 200.08C398.024 201.239 398.2 202.247 398.552 203.105C398.904 203.956 399.432 204.619 400.136 205.096C400.847 205.573 401.734 205.818 402.798 205.833ZM422.844 208.33C421.686 208.33 420.641 208.128 419.709 207.725C418.785 207.322 418.023 206.746 417.421 205.998C416.827 205.243 416.45 204.348 416.288 203.314L419.038 202.896C419.273 203.835 419.753 204.561 420.479 205.074C421.213 205.587 422.056 205.844 423.009 205.844C423.574 205.844 424.106 205.756 424.604 205.58C425.103 205.404 425.506 205.147 425.814 204.81C426.13 204.473 426.287 204.058 426.287 203.567C426.287 203.347 426.251 203.145 426.177 202.962C426.104 202.771 425.994 202.603 425.847 202.456C425.708 202.309 425.525 202.177 425.297 202.06C425.077 201.935 424.821 201.829 424.527 201.741L420.435 200.531C420.083 200.428 419.702 200.293 419.291 200.124C418.888 199.948 418.503 199.71 418.136 199.409C417.777 199.101 417.48 198.712 417.245 198.243C417.018 197.766 416.904 197.18 416.904 196.483C416.904 195.464 417.161 194.609 417.674 193.92C418.195 193.223 418.892 192.703 419.764 192.358C420.644 192.013 421.62 191.845 422.69 191.852C423.776 191.859 424.744 192.046 425.594 192.413C426.445 192.772 427.156 193.297 427.728 193.986C428.3 194.675 428.704 195.508 428.938 196.483L426.089 196.978C425.972 196.421 425.745 195.948 425.407 195.559C425.077 195.163 424.67 194.862 424.186 194.657C423.71 194.452 423.2 194.342 422.657 194.327C422.129 194.32 421.638 194.4 421.183 194.569C420.736 194.73 420.373 194.965 420.094 195.273C419.823 195.581 419.687 195.94 419.687 196.351C419.687 196.74 419.805 197.059 420.039 197.308C420.274 197.55 420.564 197.744 420.908 197.891C421.26 198.03 421.616 198.148 421.975 198.243L424.813 199.035C425.202 199.138 425.638 199.277 426.122 199.453C426.606 199.629 427.072 199.875 427.519 200.19C427.967 200.505 428.333 200.92 428.619 201.433C428.913 201.946 429.059 202.599 429.059 203.391C429.059 204.212 428.887 204.935 428.542 205.558C428.205 206.174 427.747 206.687 427.167 207.098C426.588 207.509 425.924 207.817 425.176 208.022C424.436 208.227 423.658 208.33 422.844 208.33ZM435.246 208V194.646H430.12V192.16H443.023V194.646H437.897V208H435.246ZM444.782 208V192.16H451.327C451.481 192.16 451.679 192.167 451.921 192.182C452.163 192.189 452.387 192.211 452.592 192.248C453.509 192.387 454.264 192.692 454.858 193.161C455.46 193.63 455.903 194.224 456.189 194.943C456.483 195.654 456.629 196.446 456.629 197.319C456.629 198.61 456.303 199.721 455.65 200.652C454.998 201.576 453.997 202.148 452.647 202.368L451.514 202.467H447.433V208H444.782ZM453.879 208L450.755 201.554L453.45 200.96L456.882 208H453.879ZM447.433 199.992H451.217C451.364 199.992 451.529 199.985 451.712 199.97C451.896 199.955 452.064 199.926 452.218 199.882C452.658 199.772 453.003 199.578 453.252 199.299C453.509 199.02 453.689 198.705 453.791 198.353C453.901 198.001 453.956 197.656 453.956 197.319C453.956 196.982 453.901 196.637 453.791 196.285C453.689 195.926 453.509 195.607 453.252 195.328C453.003 195.049 452.658 194.855 452.218 194.745C452.064 194.701 451.896 194.675 451.712 194.668C451.529 194.653 451.364 194.646 451.217 194.646H447.433V199.992ZM459.306 208V192.16H469.536V194.646H461.957V198.551H468.216V201.037H461.957V205.514H469.536V208H459.306ZM472.175 208V192.16H474.859L482.207 203.325V192.16H484.891V208H482.207L474.859 196.835V208H472.175ZM494.5 208.33C493.473 208.33 492.509 208.15 491.607 207.791C490.712 207.424 489.924 206.889 489.242 206.185C488.567 205.481 488.039 204.619 487.658 203.6C487.276 202.573 487.086 201.4 487.086 200.08C487.086 198.349 487.408 196.872 488.054 195.647C488.699 194.415 489.583 193.473 490.705 192.82C491.827 192.16 493.092 191.83 494.5 191.83C496.45 191.83 497.994 192.285 499.131 193.194C500.275 194.096 501.048 195.365 501.452 197L498.746 197.429C498.445 196.49 497.954 195.742 497.272 195.185C496.59 194.62 495.721 194.338 494.665 194.338C493.601 194.323 492.718 194.554 492.014 195.031C491.31 195.508 490.778 196.179 490.419 197.044C490.067 197.909 489.891 198.921 489.891 200.08C489.891 201.239 490.067 202.247 490.419 203.105C490.771 203.956 491.299 204.619 492.003 205.096C492.714 205.573 493.601 205.818 494.665 205.833C495.464 205.84 496.164 205.697 496.766 205.404C497.367 205.103 497.858 204.652 498.24 204.051C498.621 203.442 498.878 202.683 499.01 201.774H496.216V199.695H501.826C501.84 199.812 501.851 199.985 501.859 200.212C501.866 200.439 501.87 200.575 501.87 200.619C501.87 202.115 501.573 203.446 500.979 204.612C500.392 205.771 499.549 206.68 498.449 207.34C497.349 208 496.032 208.33 494.5 208.33ZM507.455 208V194.646H502.329V192.16H515.232V194.646H510.106V208H507.455ZM516.991 208V192.16H519.642V198.826H527.144V192.16H529.784V208H527.144V201.312H519.642V208H516.991ZM532.868 208V192.16H543.098V194.646H535.519V198.551H541.778V201.037H535.519V205.514H543.098V208H532.868ZM545.737 208V192.16H548.421L555.769 203.325V192.16H558.453V208H555.769L548.421 196.835V208H545.737ZM78.581 239V223.16H85.126C85.28 223.16 85.478 223.167 85.72 223.182C85.962 223.189 86.1857 223.211 86.391 223.248C87.3077 223.387 88.063 223.692 88.657 224.161C89.2583 224.63 89.702 225.224 89.988 225.943C90.2813 226.654 90.428 227.446 90.428 228.319C90.428 229.61 90.1017 230.721 89.449 231.652C88.7963 232.576 87.7953 233.148 86.446 233.368L85.313 233.467H81.232V239H78.581ZM87.678 239L84.554 232.554L87.249 231.96L90.681 239H87.678ZM81.232 230.992H85.016C85.1627 230.992 85.3277 230.985 85.511 230.97C85.6943 230.955 85.863 230.926 86.017 230.882C86.457 230.772 86.8017 230.578 87.051 230.299C87.3077 230.02 87.4873 229.705 87.59 229.353C87.7 229.001 87.755 228.656 87.755 228.319C87.755 227.982 87.7 227.637 87.59 227.285C87.4873 226.926 87.3077 226.607 87.051 226.328C86.8017 226.049 86.457 225.855 86.017 225.745C85.863 225.701 85.6943 225.675 85.511 225.668C85.3277 225.653 85.1627 225.646 85.016 225.646H81.232V230.992ZM93.1045 239V223.16H103.334V225.646H95.7555V229.551H102.014V232.037H95.7555V236.514H103.334V239H93.1045ZM106.194 239V223.16H108.845V236.514H115.841V239H106.194ZM116.604 239L121.598 223.16H125.481L130.475 239H127.747L123.215 224.788H123.809L119.332 239H116.604ZM119.387 235.568V233.093H127.703V235.568H119.387ZM134.959 239V225.646H129.833V223.16H142.736V225.646H137.61V239H134.959ZM144.715 239V223.16H147.366V239H144.715ZM157.36 239.33C155.776 239.33 154.419 238.985 153.29 238.296C152.161 237.599 151.292 236.631 150.683 235.392C150.082 234.153 149.781 232.715 149.781 231.08C149.781 229.445 150.082 228.007 150.683 226.768C151.292 225.529 152.161 224.564 153.29 223.875C154.419 223.178 155.776 222.83 157.36 222.83C158.944 222.83 160.301 223.178 161.43 223.875C162.567 224.564 163.436 225.529 164.037 226.768C164.646 228.007 164.95 229.445 164.95 231.08C164.95 232.715 164.646 234.153 164.037 235.392C163.436 236.631 162.567 237.599 161.43 238.296C160.301 238.985 158.944 239.33 157.36 239.33ZM157.36 236.833C158.423 236.84 159.307 236.606 160.011 236.129C160.722 235.652 161.254 234.981 161.606 234.116C161.965 233.251 162.145 232.239 162.145 231.08C162.145 229.921 161.965 228.917 161.606 228.066C161.254 227.208 160.722 226.541 160.011 226.064C159.307 225.587 158.423 225.342 157.36 225.327C156.297 225.32 155.413 225.554 154.709 226.031C154.005 226.508 153.473 227.179 153.114 228.044C152.762 228.909 152.586 229.921 152.586 231.08C152.586 232.239 152.762 233.247 153.114 234.105C153.466 234.956 153.994 235.619 154.698 236.096C155.409 236.573 156.297 236.818 157.36 236.833ZM167.14 239V223.16H169.824L177.172 234.325V223.16H179.856V239H177.172L169.824 227.835V239H167.14ZM188.794 239.33C187.635 239.33 186.59 239.128 185.659 238.725C184.735 238.322 183.972 237.746 183.371 236.998C182.777 236.243 182.399 235.348 182.238 234.314L184.988 233.896C185.222 234.835 185.703 235.561 186.429 236.074C187.162 236.587 188.005 236.844 188.959 236.844C189.523 236.844 190.055 236.756 190.554 236.58C191.052 236.404 191.456 236.147 191.764 235.81C192.079 235.473 192.237 235.058 192.237 234.567C192.237 234.347 192.2 234.145 192.127 233.962C192.053 233.771 191.943 233.603 191.797 233.456C191.657 233.309 191.474 233.177 191.247 233.06C191.027 232.935 190.77 232.829 190.477 232.741L186.385 231.531C186.033 231.428 185.651 231.293 185.241 231.124C184.837 230.948 184.452 230.71 184.086 230.409C183.726 230.101 183.429 229.712 183.195 229.243C182.967 228.766 182.854 228.18 182.854 227.483C182.854 226.464 183.11 225.609 183.624 224.92C184.144 224.223 184.841 223.703 185.714 223.358C186.594 223.013 187.569 222.845 188.64 222.852C189.725 222.859 190.693 223.046 191.544 223.413C192.394 223.772 193.106 224.297 193.678 224.986C194.25 225.675 194.653 226.508 194.888 227.483L192.039 227.978C191.921 227.421 191.694 226.948 191.357 226.559C191.027 226.163 190.62 225.862 190.136 225.657C189.659 225.452 189.149 225.342 188.607 225.327C188.079 225.32 187.587 225.4 187.133 225.569C186.685 225.73 186.322 225.965 186.044 226.273C185.772 226.581 185.637 226.94 185.637 227.351C185.637 227.74 185.754 228.059 185.989 228.308C186.223 228.55 186.513 228.744 186.858 228.891C187.21 229.03 187.565 229.148 187.925 229.243L190.763 230.035C191.151 230.138 191.588 230.277 192.072 230.453C192.556 230.629 193.021 230.875 193.469 231.19C193.916 231.505 194.283 231.92 194.569 232.433C194.862 232.946 195.009 233.599 195.009 234.391C195.009 235.212 194.836 235.935 194.492 236.558C194.154 237.174 193.696 237.687 193.117 238.098C192.537 238.509 191.874 238.817 191.126 239.022C190.385 239.227 189.608 239.33 188.794 239.33ZM197.39 239V223.16H200.041V229.826H207.543V223.16H210.183V239H207.543V232.312H200.041V239H197.39ZM213.487 239V223.16H216.138V239H213.487ZM219.433 239V223.16H225.978C226.132 223.16 226.33 223.167 226.572 223.182C226.814 223.189 227.037 223.211 227.243 223.248C228.159 223.387 228.915 223.692 229.509 224.161C230.11 224.63 230.554 225.224 230.84 225.943C231.133 226.654 231.28 227.446 231.28 228.319C231.28 229.184 231.133 229.976 230.84 230.695C230.546 231.406 230.099 231.997 229.498 232.466C228.904 232.935 228.152 233.24 227.243 233.379C227.037 233.408 226.81 233.43 226.561 233.445C226.319 233.46 226.124 233.467 225.978 233.467H222.084V239H219.433ZM222.084 230.992H225.868C226.014 230.992 226.179 230.985 226.363 230.97C226.546 230.955 226.715 230.926 226.869 230.882C227.309 230.772 227.653 230.578 227.903 230.299C228.159 230.02 228.339 229.705 228.442 229.353C228.552 229.001 228.607 228.656 228.607 228.319C228.607 227.982 228.552 227.637 228.442 227.285C228.339 226.926 228.159 226.607 227.903 226.328C227.653 226.049 227.309 225.855 226.869 225.745C226.715 225.701 226.546 225.675 226.363 225.668C226.179 225.653 226.014 225.646 225.868 225.646H222.084V230.992ZM239.346 239.33C238.188 239.33 237.143 239.128 236.211 238.725C235.287 238.322 234.525 237.746 233.923 236.998C233.329 236.243 232.952 235.348 232.79 234.314L235.54 233.896C235.775 234.835 236.255 235.561 236.981 236.074C237.715 236.587 238.558 236.844 239.511 236.844C240.076 236.844 240.608 236.756 241.106 236.58C241.605 236.404 242.008 236.147 242.316 235.81C242.632 235.473 242.789 235.058 242.789 234.567C242.789 234.347 242.753 234.145 242.679 233.962C242.606 233.771 242.496 233.603 242.349 233.456C242.21 233.309 242.027 233.177 241.799 233.06C241.579 232.935 241.323 232.829 241.029 232.741L236.937 231.531C236.585 231.428 236.204 231.293 235.793 231.124C235.39 230.948 235.005 230.71 234.638 230.409C234.279 230.101 233.982 229.712 233.747 229.243C233.52 228.766 233.406 228.18 233.406 227.483C233.406 226.464 233.663 225.609 234.176 224.92C234.697 224.223 235.394 223.703 236.266 223.358C237.146 223.013 238.122 222.845 239.192 222.852C240.278 222.859 241.246 223.046 242.096 223.413C242.947 223.772 243.658 224.297 244.23 224.986C244.802 225.675 245.206 226.508 245.44 227.483L242.591 227.978C242.474 227.421 242.247 226.948 241.909 226.559C241.579 226.163 241.172 225.862 240.688 225.657C240.212 225.452 239.702 225.342 239.159 225.327C238.631 225.32 238.14 225.4 237.685 225.569C237.238 225.73 236.875 225.965 236.596 226.273C236.325 226.581 236.189 226.94 236.189 227.351C236.189 227.74 236.307 228.059 236.541 228.308C236.776 228.55 237.066 228.744 237.41 228.891C237.762 229.03 238.118 229.148 238.477 229.243L241.315 230.035C241.704 230.138 242.14 230.277 242.624 230.453C243.108 230.629 243.574 230.875 244.021 231.19C244.469 231.505 244.835 231.92 245.121 232.433C245.415 232.946 245.561 233.599 245.561 234.391C245.561 235.212 245.389 235.935 245.044 236.558C244.707 237.174 244.249 237.687 243.669 238.098C243.09 238.509 242.426 238.817 241.678 239.022C240.938 239.227 240.16 239.33 239.346 239.33ZM259.046 239.33C257.462 239.33 256.105 238.985 254.976 238.296C253.846 237.599 252.977 236.631 252.369 235.392C251.767 234.153 251.467 232.715 251.467 231.08C251.467 229.445 251.767 228.007 252.369 226.768C252.977 225.529 253.846 224.564 254.976 223.875C256.105 223.178 257.462 222.83 259.046 222.83C260.63 222.83 261.986 223.178 263.116 223.875C264.252 224.564 265.121 225.529 265.723 226.768C266.331 228.007 266.636 229.445 266.636 231.08C266.636 232.715 266.331 234.153 265.723 235.392C265.121 236.631 264.252 237.599 263.116 238.296C261.986 238.985 260.63 239.33 259.046 239.33ZM259.046 236.833C260.109 236.84 260.993 236.606 261.697 236.129C262.408 235.652 262.94 234.981 263.292 234.116C263.651 233.251 263.831 232.239 263.831 231.08C263.831 229.921 263.651 228.917 263.292 228.066C262.94 227.208 262.408 226.541 261.697 226.064C260.993 225.587 260.109 225.342 259.046 225.327C257.982 225.32 257.099 225.554 256.395 226.031C255.691 226.508 255.159 227.179 254.8 228.044C254.448 228.909 254.272 229.921 254.272 231.08C254.272 232.239 254.448 233.247 254.8 234.105C255.152 234.956 255.68 235.619 256.384 236.096C257.095 236.573 257.982 236.818 259.046 236.833ZM268.825 239V223.16H275.37C275.524 223.16 275.722 223.167 275.964 223.182C276.206 223.189 276.43 223.211 276.635 223.248C277.552 223.387 278.307 223.692 278.901 224.161C279.502 224.63 279.946 225.224 280.232 225.943C280.525 226.654 280.672 227.446 280.672 228.319C280.672 229.61 280.346 230.721 279.693 231.652C279.04 232.576 278.039 233.148 276.69 233.368L275.557 233.467H271.476V239H268.825ZM277.922 239L274.798 232.554L277.493 231.96L280.925 239H277.922ZM271.476 230.992H275.26C275.407 230.992 275.572 230.985 275.755 230.97C275.938 230.955 276.107 230.926 276.261 230.882C276.701 230.772 277.046 230.578 277.295 230.299C277.552 230.02 277.731 229.705 277.834 229.353C277.944 229.001 277.999 228.656 277.999 228.319C277.999 227.982 277.944 227.637 277.834 227.285C277.731 226.926 277.552 226.607 277.295 226.328C277.046 226.049 276.701 225.855 276.261 225.745C276.107 225.701 275.938 225.675 275.755 225.668C275.572 225.653 275.407 225.646 275.26 225.646H271.476V230.992ZM287.753 239V223.16H292.802C292.934 223.16 293.194 223.164 293.583 223.171C293.979 223.178 294.36 223.204 294.727 223.248C295.981 223.409 297.041 223.857 297.906 224.59C298.779 225.316 299.439 226.244 299.886 227.373C300.333 228.502 300.557 229.738 300.557 231.08C300.557 232.422 300.333 233.658 299.886 234.787C299.439 235.916 298.779 236.848 297.906 237.581C297.041 238.307 295.981 238.751 294.727 238.912C294.368 238.956 293.99 238.982 293.594 238.989C293.198 238.996 292.934 239 292.802 239H287.753ZM290.448 236.503H292.802C293.022 236.503 293.301 236.496 293.638 236.481C293.983 236.466 294.287 236.433 294.551 236.382C295.299 236.243 295.908 235.909 296.377 235.381C296.846 234.853 297.191 234.211 297.411 233.456C297.638 232.701 297.752 231.909 297.752 231.08C297.752 230.222 297.638 229.415 297.411 228.66C297.184 227.905 296.832 227.27 296.355 226.757C295.886 226.244 295.284 225.917 294.551 225.778C294.287 225.719 293.983 225.686 293.638 225.679C293.301 225.664 293.022 225.657 292.802 225.657H290.448V236.503ZM303.157 239V223.16H309.702C309.856 223.16 310.054 223.167 310.296 223.182C310.538 223.189 310.762 223.211 310.967 223.248C311.884 223.387 312.639 223.692 313.233 224.161C313.835 224.63 314.278 225.224 314.564 225.943C314.858 226.654 315.004 227.446 315.004 228.319C315.004 229.61 314.678 230.721 314.025 231.652C313.373 232.576 312.372 233.148 311.022 233.368L309.889 233.467H305.808V239H303.157ZM312.254 239L309.13 232.554L311.825 231.96L315.257 239H312.254ZM305.808 230.992H309.592C309.739 230.992 309.904 230.985 310.087 230.97C310.271 230.955 310.439 230.926 310.593 230.882C311.033 230.772 311.378 230.578 311.627 230.299C311.884 230.02 312.064 229.705 312.166 229.353C312.276 229.001 312.331 228.656 312.331 228.319C312.331 227.982 312.276 227.637 312.166 227.285C312.064 226.926 311.884 226.607 311.627 226.328C311.378 226.049 311.033 225.855 310.593 225.745C310.439 225.701 310.271 225.675 310.087 225.668C309.904 225.653 309.739 225.646 309.592 225.646H305.808V230.992ZM317.901 239V223.16H320.552V239H317.901ZM323.847 239V223.16H333.384V225.811H326.498V229.76H332.064V232.4H326.498V239H323.847ZM339.168 239V225.646H334.042V223.16H346.945V225.646H341.819V239H339.168ZM351.342 239L356.336 223.16H360.219L365.213 239H362.485L357.953 224.788H358.547L354.07 239H351.342ZM354.125 235.568V233.093H362.441V235.568H354.125ZM367.202 239V223.16H369.886L377.234 234.325V223.16H379.918V239H377.234L369.886 227.835V239H367.202ZM387.617 239V223.16H390.268V239H387.617ZM397.369 239V225.646H392.243V223.16H405.146V225.646H400.02V239H397.369ZM406.905 239V223.16H417.135V225.646H409.556V229.551H415.815V232.037H409.556V236.514H417.135V239H406.905ZM419.774 239V223.16H422.161L427.639 234.38L433.117 223.16H435.504V239H433.029V228.847L428.167 239H427.111L422.26 228.847V239H419.774ZM441.899 239L446.893 223.16H450.776L455.77 239H453.042L448.51 224.788H449.104L444.627 239H441.899ZM444.682 235.568V233.093H452.998V235.568H444.682ZM457.759 239V223.16H464.304C464.458 223.16 464.656 223.167 464.898 223.182C465.14 223.189 465.363 223.211 465.569 223.248C466.485 223.387 467.241 223.692 467.835 224.161C468.436 224.63 468.88 225.224 469.166 225.943C469.459 226.654 469.606 227.446 469.606 228.319C469.606 229.184 469.459 229.976 469.166 230.695C468.872 231.406 468.425 231.997 467.824 232.466C467.23 232.935 466.478 233.24 465.569 233.379C465.363 233.408 465.136 233.43 464.887 233.445C464.645 233.46 464.45 233.467 464.304 233.467H460.41V239H457.759ZM460.41 230.992H464.194C464.34 230.992 464.505 230.985 464.689 230.97C464.872 230.955 465.041 230.926 465.195 230.882C465.635 230.772 465.979 230.578 466.229 230.299C466.485 230.02 466.665 229.705 466.768 229.353C466.878 229.001 466.933 228.656 466.933 228.319C466.933 227.982 466.878 227.637 466.768 227.285C466.665 226.926 466.485 226.607 466.229 226.328C465.979 226.049 465.635 225.855 465.195 225.745C465.041 225.701 464.872 225.675 464.689 225.668C464.505 225.653 464.34 225.646 464.194 225.646H460.41V230.992ZM469.614 239L474.608 223.16H478.491L483.485 239H480.757L476.225 224.788H476.819L472.342 239H469.614ZM472.397 235.568V233.093H480.713V235.568H472.397ZM485.474 239V223.16H492.019C492.173 223.16 492.371 223.167 492.613 223.182C492.855 223.189 493.078 223.211 493.284 223.248C494.2 223.387 494.956 223.692 495.55 224.161C496.151 224.63 496.595 225.224 496.881 225.943C497.174 226.654 497.321 227.446 497.321 228.319C497.321 229.61 496.994 230.721 496.342 231.652C495.689 232.576 494.688 233.148 493.339 233.368L492.206 233.467H488.125V239H485.474ZM494.571 239L491.447 232.554L494.142 231.96L497.574 239H494.571ZM488.125 230.992H491.909C492.055 230.992 492.22 230.985 492.404 230.97C492.587 230.955 492.756 230.926 492.91 230.882C493.35 230.772 493.694 230.578 493.944 230.299C494.2 230.02 494.38 229.705 494.483 229.353C494.593 229.001 494.648 228.656 494.648 228.319C494.648 227.982 494.593 227.637 494.483 227.285C494.38 226.926 494.2 226.607 493.944 226.328C493.694 226.049 493.35 225.855 492.91 225.745C492.756 225.701 492.587 225.675 492.404 225.668C492.22 225.653 492.055 225.646 491.909 225.646H488.125V230.992ZM503.803 239V225.646H498.677V223.16H511.58V225.646H506.454V239H503.803ZM516.21 234.699C516.21 234.193 516.257 233.705 516.353 233.236C516.455 232.759 516.62 232.319 516.848 231.916C517.046 231.527 517.266 231.219 517.508 230.992C517.75 230.757 518.021 230.526 518.322 230.299C518.622 230.064 518.956 229.753 519.323 229.364C519.623 229.034 519.821 228.708 519.917 228.385C520.012 228.055 520.06 227.703 520.06 227.329C520.06 227.087 520.034 226.86 519.983 226.647C519.931 226.434 519.84 226.251 519.708 226.097C519.502 225.826 519.238 225.635 518.916 225.525C518.593 225.408 518.248 225.349 517.882 225.349C517.581 225.349 517.291 225.389 517.013 225.47C516.741 225.543 516.51 225.661 516.32 225.822C516.1 225.998 515.938 226.214 515.836 226.471C515.733 226.728 515.685 227.01 515.693 227.318H512.899C512.972 226.585 513.17 225.906 513.493 225.283C513.823 224.652 514.255 224.15 514.791 223.776C515.209 223.468 515.678 223.237 516.199 223.083C516.727 222.929 517.255 222.852 517.783 222.852C518.589 222.852 519.348 222.977 520.06 223.226C520.778 223.475 521.376 223.886 521.853 224.458C522.183 224.832 522.432 225.265 522.601 225.756C522.777 226.247 522.865 226.746 522.865 227.252C522.865 228.007 522.7 228.697 522.37 229.32C522.047 229.943 521.636 230.519 521.138 231.047C520.903 231.296 520.679 231.516 520.467 231.707C520.254 231.898 520.056 232.085 519.873 232.268C519.697 232.444 519.55 232.631 519.433 232.829C519.227 233.174 519.106 233.467 519.07 233.709C519.033 233.944 519.015 234.274 519.015 234.699H516.21ZM516.232 239V236.085H519.015V239H516.232Z" fill="white"></path> <rect x="20" y="20" width="143" height="40" rx="20" fill="white" fill-opacity="0.3"></rect> <path d="M33.2841 46V34.48H37.8361C37.9481 34.48 38.0814 34.4853 38.2361 34.496C38.3907 34.5013 38.5401 34.5173 38.6841 34.544C39.3081 34.64 39.8307 34.8533 40.2521 35.184C40.6787 35.5147 40.9987 35.9333 41.2121 36.44C41.4254 36.9413 41.5321 37.4987 41.5321 38.112C41.5321 39.0027 41.3001 39.776 40.8361 40.432C40.3721 41.0827 39.6921 41.4907 38.7961 41.656L38.2521 41.744H34.7081V46H33.2841ZM40.1401 46L37.8681 41.312L39.2761 40.88L41.7721 46H40.1401ZM34.7081 40.392H37.7881C37.8894 40.392 38.0041 40.3867 38.1321 40.376C38.2654 40.3653 38.3907 40.3467 38.5081 40.32C38.8761 40.2347 39.1747 40.08 39.4041 39.856C39.6387 39.6267 39.8094 39.36 39.9161 39.056C40.0227 38.7467 40.0761 38.432 40.0761 38.112C40.0761 37.792 40.0227 37.48 39.9161 37.176C39.8094 36.8667 39.6387 36.5973 39.4041 36.368C39.1747 36.1387 38.8761 35.984 38.5081 35.904C38.3907 35.872 38.2654 35.8533 38.1321 35.848C38.0041 35.8373 37.8894 35.832 37.7881 35.832H34.7081V40.392ZM43.5341 46V34.48H50.8141V35.832H44.9581V39.44H49.8541V40.792H44.9581V44.648H50.8141V46H43.5341ZM52.8972 46V34.48H54.3212V44.648H59.6652V46H52.8972ZM60.2184 46L64.0744 34.48H66.0584L69.9144 46H68.4344L64.8264 35.312H65.2744L61.6984 46H60.2184ZM62.0744 43.304V41.968H68.0584V43.304H62.0744ZM73.3614 46V35.832H69.4334V34.48H78.7134V35.832H74.7854V46H73.3614ZM80.1472 46V34.48H81.5712V46H80.1472ZM88.7076 46.24C87.5609 46.24 86.5876 45.9867 85.7876 45.48C84.9876 44.9733 84.3769 44.2693 83.9556 43.368C83.5396 42.4667 83.3316 41.424 83.3316 40.24C83.3316 39.056 83.5396 38.0133 83.9556 37.112C84.3769 36.2107 84.9876 35.5067 85.7876 35C86.5876 34.4933 87.5609 34.24 88.7076 34.24C89.8596 34.24 90.8356 34.4933 91.6356 35C92.4356 35.5067 93.0436 36.2107 93.4596 37.112C93.8756 38.0133 94.0836 39.056 94.0836 40.24C94.0836 41.424 93.8756 42.4667 93.4596 43.368C93.0436 44.2693 92.4356 44.9733 91.6356 45.48C90.8356 45.9867 89.8596 46.24 88.7076 46.24ZM88.7076 44.88C89.5662 44.8853 90.2809 44.6933 90.8516 44.304C91.4276 43.9093 91.8569 43.3627 92.1396 42.664C92.4276 41.9653 92.5716 41.1573 92.5716 40.24C92.5716 39.3173 92.4276 38.5093 92.1396 37.816C91.8569 37.1227 91.4276 36.5813 90.8516 36.192C90.2809 35.8027 89.5662 35.6053 88.7076 35.6C87.8489 35.5947 87.1342 35.7867 86.5636 36.176C85.9982 36.5653 85.5716 37.1093 85.2836 37.808C84.9956 38.5067 84.8489 39.3173 84.8436 40.24C84.8382 41.1573 84.9796 41.9627 85.2676 42.656C85.5556 43.3493 85.9849 43.8933 86.5556 44.288C87.1316 44.6773 87.8489 44.8747 88.7076 44.88ZM95.6903 46V34.48H97.1303L103.138 43.48V34.48H104.578V46H103.138L97.1303 36.992V46H95.6903ZM110.903 46.24C110.087 46.24 109.351 46.1013 108.695 45.824C108.045 45.5467 107.506 45.152 107.079 44.64C106.658 44.1227 106.383 43.512 106.255 42.808L107.727 42.576C107.914 43.3013 108.301 43.8693 108.887 44.28C109.479 44.6853 110.175 44.888 110.975 44.888C111.493 44.888 111.959 44.808 112.375 44.648C112.797 44.4827 113.13 44.248 113.375 43.944C113.621 43.64 113.743 43.28 113.743 42.864C113.743 42.608 113.698 42.3893 113.607 42.208C113.522 42.0213 113.402 41.864 113.247 41.736C113.098 41.6027 112.927 41.4907 112.735 41.4C112.543 41.3093 112.343 41.2347 112.135 41.176L109.199 40.304C108.879 40.208 108.57 40.088 108.271 39.944C107.973 39.7947 107.706 39.6107 107.471 39.392C107.237 39.168 107.05 38.9013 106.911 38.592C106.773 38.2773 106.703 37.9067 106.703 37.48C106.703 36.7973 106.879 36.216 107.231 35.736C107.589 35.2507 108.071 34.88 108.679 34.624C109.287 34.368 109.973 34.2427 110.735 34.248C111.509 34.2533 112.199 34.392 112.807 34.664C113.421 34.9307 113.927 35.3147 114.327 35.816C114.733 36.3173 115.005 36.9173 115.143 37.616L113.631 37.88C113.551 37.4107 113.373 37.008 113.095 36.672C112.823 36.3307 112.482 36.0693 112.071 35.888C111.661 35.7013 111.21 35.6053 110.719 35.6C110.25 35.5947 109.826 35.6693 109.447 35.824C109.069 35.9787 108.767 36.1947 108.543 36.472C108.319 36.744 108.207 37.0587 108.207 37.416C108.207 37.768 108.309 38.0533 108.511 38.272C108.714 38.4853 108.962 38.656 109.255 38.784C109.554 38.9067 109.845 39.008 110.127 39.088L112.319 39.72C112.57 39.7893 112.858 39.8853 113.183 40.008C113.514 40.1307 113.834 40.304 114.143 40.528C114.453 40.7467 114.709 41.04 114.911 41.408C115.114 41.7707 115.215 42.2293 115.215 42.784C115.215 43.3387 115.103 43.832 114.879 44.264C114.661 44.696 114.354 45.0587 113.959 45.352C113.565 45.64 113.106 45.8587 112.583 46.008C112.061 46.1627 111.501 46.24 110.903 46.24ZM116.893 46V34.48H118.317V39.56H124.381V34.48H125.805V46H124.381V40.912H118.317V46H116.893ZM128.21 46V34.48H129.634V46H128.21ZM132.034 46V34.48H136.586C136.698 34.48 136.831 34.4853 136.986 34.496C137.141 34.5013 137.29 34.5173 137.434 34.544C138.058 34.64 138.581 34.8533 139.002 35.184C139.429 35.5147 139.749 35.9333 139.962 36.44C140.175 36.9413 140.282 37.4987 140.282 38.112C140.282 38.72 140.173 39.2773 139.954 39.784C139.741 40.2853 139.421 40.704 138.994 41.04C138.573 41.3707 138.053 41.584 137.434 41.68C137.29 41.7013 137.141 41.7173 136.986 41.728C136.831 41.7387 136.698 41.744 136.586 41.744H133.458V46H132.034ZM133.458 40.392H136.538C136.639 40.392 136.754 40.3867 136.882 40.376C137.015 40.3653 137.141 40.3467 137.258 40.32C137.626 40.2347 137.925 40.08 138.154 39.856C138.389 39.6267 138.559 39.36 138.666 39.056C138.773 38.7467 138.826 38.432 138.826 38.112C138.826 37.792 138.773 37.48 138.666 37.176C138.559 36.8667 138.389 36.5973 138.154 36.368C137.925 36.1387 137.626 35.984 137.258 35.904C137.141 35.872 137.015 35.8533 136.882 35.848C136.754 35.8373 136.639 35.832 136.538 35.832H133.458V40.392ZM145.966 46.24C145.15 46.24 144.414 46.1013 143.758 45.824C143.107 45.5467 142.568 45.152 142.142 44.64C141.72 44.1227 141.446 43.512 141.318 42.808L142.79 42.576C142.976 43.3013 143.363 43.8693 143.95 44.28C144.542 44.6853 145.238 44.888 146.038 44.888C146.555 44.888 147.022 44.808 147.438 44.648C147.859 44.4827 148.192 44.248 148.438 43.944C148.683 43.64 148.806 43.28 148.806 42.864C148.806 42.608 148.76 42.3893 148.67 42.208C148.584 42.0213 148.464 41.864 148.31 41.736C148.16 41.6027 147.99 41.4907 147.798 41.4C147.606 41.3093 147.406 41.2347 147.198 41.176L144.262 40.304C143.942 40.208 143.632 40.088 143.334 39.944C143.035 39.7947 142.768 39.6107 142.534 39.392C142.299 39.168 142.112 38.9013 141.974 38.592C141.835 38.2773 141.766 37.9067 141.766 37.48C141.766 36.7973 141.942 36.216 142.294 35.736C142.651 35.2507 143.134 34.88 143.742 34.624C144.35 34.368 145.035 34.2427 145.798 34.248C146.571 34.2533 147.262 34.392 147.87 34.664C148.483 34.9307 148.99 35.3147 149.39 35.816C149.795 36.3173 150.067 36.9173 150.206 37.616L148.694 37.88C148.614 37.4107 148.435 37.008 148.158 36.672C147.886 36.3307 147.544 36.0693 147.134 35.888C146.723 35.7013 146.272 35.6053 145.782 35.6C145.312 35.5947 144.888 35.6693 144.51 35.824C144.131 35.9787 143.83 36.1947 143.606 36.472C143.382 36.744 143.27 37.0587 143.27 37.416C143.27 37.768 143.371 38.0533 143.574 38.272C143.776 38.4853 144.024 38.656 144.318 38.784C144.616 38.9067 144.907 39.008 145.19 39.088L147.382 39.72C147.632 39.7893 147.92 39.8853 148.246 40.008C148.576 40.1307 148.896 40.304 149.206 40.528C149.515 40.7467 149.771 41.04 149.974 41.408C150.176 41.7707 150.278 42.2293 150.278 42.784C150.278 43.3387 150.166 43.832 149.942 44.264C149.723 44.696 149.416 45.0587 149.022 45.352C148.627 45.64 148.168 45.8587 147.646 46.008C147.123 46.1627 146.563 46.24 145.966 46.24Z" fill="white"></path> <path d="M236.753 354L241.217 341.04H242.972L247.436 354H246.059L241.82 341.778H242.342L238.13 354H236.753ZM238.742 350.859V349.617H245.438V350.859H238.742ZM249.061 354V341.04H250.393L257.53 351.66V341.04H258.862V354H257.53L250.393 343.371V354H249.061ZM265.167 354V341.04H266.49V354H265.167ZM272.635 354V342.309H268.108V341.04H278.485V342.309H273.958V354H272.635ZM279.928 354V341.04H288.028V342.309H281.251V346.791H286.948V348.06H281.251V352.731H288.028V354H279.928ZM290.194 354V341.04H291.409L296.503 351.939L301.57 341.04H302.803V353.991H301.543V343.992L296.926 354H296.071L291.463 343.992V354H290.194ZM308.752 348.897V347.763H314.152V348.897H308.752ZM320.094 354V341.04H330.021V354H328.698V342.309H321.417V354H320.094ZM331.639 354L336.103 341.04H337.858L342.322 354H340.945L336.706 341.778H337.228L333.016 354H331.639ZM333.628 350.859V349.617H340.324V350.859H333.628ZM343.948 354V341.04H348.952C349.078 341.04 349.219 341.046 349.375 341.058C349.537 341.064 349.699 341.082 349.861 341.112C350.539 341.214 351.112 341.451 351.58 341.823C352.054 342.189 352.411 342.651 352.65 343.209C352.896 343.767 353.02 344.385 353.02 345.063C353.02 345.735 352.896 346.35 352.65 346.908C352.405 347.466 352.045 347.931 351.571 348.303C351.103 348.669 350.533 348.903 349.861 349.005C349.699 349.029 349.537 349.047 349.375 349.059C349.219 349.071 349.078 349.077 348.952 349.077H345.271V354H343.948ZM345.271 347.817H348.916C349.024 347.817 349.15 347.811 349.294 347.799C349.438 347.787 349.579 347.766 349.717 347.736C350.161 347.64 350.524 347.457 350.806 347.187C351.094 346.917 351.307 346.596 351.445 346.224C351.589 345.852 351.661 345.465 351.661 345.063C351.661 344.661 351.589 344.274 351.445 343.902C351.307 343.524 351.094 343.2 350.806 342.93C350.524 342.66 350.161 342.477 349.717 342.381C349.579 342.351 349.438 342.333 349.294 342.327C349.15 342.315 349.024 342.309 348.916 342.309H345.271V347.817ZM353.559 354L358.023 341.04H359.778L364.242 354H362.865L358.626 341.778H359.148L354.936 354H353.559ZM355.548 350.859V349.617H362.244V350.859H355.548Z" fill="white"></path> <path d="M182.265 319V306.04H186.198C186.336 306.04 186.57 306.043 186.9 306.049C187.236 306.055 187.557 306.079 187.863 306.121C188.847 306.259 189.669 306.625 190.329 307.219C190.989 307.813 191.484 308.569 191.814 309.487C192.144 310.405 192.309 311.416 192.309 312.52C192.309 313.624 192.144 314.635 191.814 315.553C191.484 316.471 190.989 317.227 190.329 317.821C189.669 318.415 188.847 318.781 187.863 318.919C187.563 318.955 187.242 318.979 186.9 318.991C186.558 318.997 186.324 319 186.198 319H182.265ZM183.633 317.731H186.198C186.444 317.731 186.708 317.725 186.99 317.713C187.278 317.695 187.524 317.665 187.728 317.623C188.484 317.491 189.093 317.185 189.555 316.705C190.023 316.225 190.365 315.625 190.581 314.905C190.797 314.179 190.905 313.384 190.905 312.52C190.905 311.65 190.797 310.852 190.581 310.126C190.365 309.4 190.023 308.8 189.555 308.326C189.087 307.852 188.478 307.549 187.728 307.417C187.524 307.375 187.275 307.348 186.981 307.336C186.693 307.318 186.432 307.309 186.198 307.309H183.633V317.731ZM194.359 319V306.04H199.363C199.489 306.04 199.63 306.046 199.786 306.058C199.948 306.064 200.11 306.082 200.272 306.112C200.95 306.214 201.523 306.451 201.991 306.823C202.465 307.189 202.822 307.651 203.062 308.209C203.308 308.767 203.431 309.385 203.431 310.063C203.431 311.041 203.173 311.89 202.657 312.61C202.141 313.33 201.403 313.783 200.443 313.969L199.984 314.077H195.682V319H194.359ZM202.207 319L199.651 313.726L200.92 313.24L203.728 319H202.207ZM195.682 312.817H199.327C199.435 312.817 199.561 312.811 199.705 312.799C199.849 312.787 199.99 312.766 200.128 312.736C200.572 312.64 200.935 312.457 201.217 312.187C201.505 311.917 201.718 311.596 201.856 311.224C202 310.852 202.072 310.465 202.072 310.063C202.072 309.661 202 309.274 201.856 308.902C201.718 308.524 201.505 308.2 201.217 307.93C200.935 307.66 200.572 307.477 200.128 307.381C199.99 307.351 199.849 307.333 199.705 307.327C199.561 307.315 199.435 307.309 199.327 307.309H195.682V312.817ZM205.894 319V306.04H207.217V319H205.894ZM209.915 319V306.04H217.358V307.363H211.238V311.863H216.278V313.177H211.238V319H209.915ZM222.433 319V307.309H217.906V306.04H228.283V307.309H223.756V319H222.433ZM231.884 319L236.348 306.04H238.103L242.567 319H241.19L236.951 306.778H237.473L233.261 319H231.884ZM233.873 315.859V314.617H240.569V315.859H233.873ZM244.193 319V306.04H249.197C249.323 306.04 249.464 306.046 249.62 306.058C249.782 306.064 249.944 306.082 250.106 306.112C250.784 306.214 251.357 306.451 251.825 306.823C252.299 307.189 252.656 307.651 252.896 308.209C253.142 308.767 253.265 309.385 253.265 310.063C253.265 310.735 253.142 311.35 252.896 311.908C252.65 312.466 252.29 312.931 251.816 313.303C251.348 313.669 250.778 313.903 250.106 314.005C249.944 314.029 249.782 314.047 249.62 314.059C249.464 314.071 249.323 314.077 249.197 314.077H245.516V319H244.193ZM245.516 312.817H249.161C249.269 312.817 249.395 312.811 249.539 312.799C249.683 312.787 249.824 312.766 249.962 312.736C250.406 312.64 250.769 312.457 251.051 312.187C251.339 311.917 251.552 311.596 251.69 311.224C251.834 310.852 251.906 310.465 251.906 310.063C251.906 309.661 251.834 309.274 251.69 308.902C251.552 308.524 251.339 308.2 251.051 307.93C250.769 307.66 250.406 307.477 249.962 307.381C249.824 307.351 249.683 307.333 249.539 307.327C249.395 307.315 249.269 307.309 249.161 307.309H245.516V312.817ZM253.259 319L257.723 306.04H259.478L263.942 319H262.565L258.326 306.778H258.848L254.636 319H253.259ZM255.248 315.859V314.617H261.944V315.859H255.248ZM265.568 319V306.04H270.572C270.698 306.04 270.839 306.046 270.995 306.058C271.157 306.064 271.319 306.082 271.481 306.112C272.159 306.214 272.732 306.451 273.2 306.823C273.674 307.189 274.031 307.651 274.271 308.209C274.517 308.767 274.64 309.385 274.64 310.063C274.64 311.041 274.382 311.89 273.866 312.61C273.35 313.33 272.612 313.783 271.652 313.969L271.193 314.077H266.891V319H265.568ZM273.416 319L270.86 313.726L272.129 313.24L274.937 319H273.416ZM266.891 312.817H270.536C270.644 312.817 270.77 312.811 270.914 312.799C271.058 312.787 271.199 312.766 271.337 312.736C271.781 312.64 272.144 312.457 272.426 312.187C272.714 311.917 272.927 311.596 273.065 311.224C273.209 310.852 273.281 310.465 273.281 310.063C273.281 309.661 273.209 309.274 273.065 308.902C272.927 308.524 272.714 308.2 272.426 307.93C272.144 307.66 271.781 307.477 271.337 307.381C271.199 307.351 271.058 307.333 270.914 307.327C270.77 307.315 270.644 307.309 270.536 307.309H266.891V312.817ZM280.37 319V307.309H275.843V306.04H286.22V307.309H281.693V319H280.37ZM290.542 313.897V312.763H295.942V313.897H290.542ZM307.131 319.27C305.841 319.27 304.752 318.985 303.864 318.415C302.976 317.839 302.304 317.044 301.848 316.03C301.392 315.016 301.164 313.846 301.164 312.52C301.164 311.194 301.392 310.024 301.848 309.01C302.304 307.996 302.976 307.204 303.864 306.634C304.752 306.058 305.841 305.77 307.131 305.77C308.427 305.77 309.516 306.058 310.398 306.634C311.286 307.204 311.958 307.996 312.414 309.01C312.876 310.024 313.107 311.194 313.107 312.52C313.107 313.846 312.876 315.016 312.414 316.03C311.958 317.044 311.286 317.839 310.398 318.415C309.516 318.985 308.427 319.27 307.131 319.27ZM307.131 318.001C308.145 318.001 308.991 317.77 309.669 317.308C310.347 316.846 310.854 316.204 311.19 315.382C311.532 314.554 311.703 313.6 311.703 312.52C311.703 311.44 311.532 310.489 311.19 309.667C310.854 308.845 310.347 308.203 309.669 307.741C308.991 307.279 308.145 307.045 307.131 307.039C306.117 307.039 305.274 307.27 304.602 307.732C303.93 308.194 303.423 308.839 303.081 309.667C302.745 310.489 302.574 311.44 302.568 312.52C302.562 313.6 302.727 314.551 303.063 315.373C303.405 316.189 303.915 316.831 304.593 317.299C305.271 317.761 306.117 317.995 307.131 318.001ZM318.005 319V307.309H313.478V306.04H323.855V307.309H319.328V319H318.005ZM324.344 321.16V317.731C324.848 317.731 325.253 317.605 325.559 317.353C325.865 317.095 326.099 316.753 326.261 316.327C326.423 315.901 326.546 315.424 326.63 314.896C326.714 314.362 326.786 313.822 326.846 313.276C326.93 312.478 326.996 311.707 327.044 310.963C327.098 310.219 327.143 309.448 327.179 308.65C327.221 307.852 327.269 306.979 327.323 306.031L335.315 306.04V317.731H336.242V321.16H334.928V319H325.667V321.16H324.344ZM326.873 317.731H333.992V307.309L328.556 307.3C328.52 308.032 328.484 308.74 328.448 309.424C328.412 310.108 328.37 310.798 328.322 311.494C328.274 312.19 328.211 312.916 328.133 313.672C328.067 314.362 327.989 314.965 327.899 315.481C327.809 315.997 327.683 316.438 327.521 316.804C327.365 317.17 327.149 317.479 326.873 317.731ZM337.318 319L341.782 306.04H343.537L348.001 319H346.624L342.385 306.778H342.907L338.695 319H337.318ZM339.307 315.859V314.617H346.003V315.859H339.307ZM349.394 319V317.821C349.724 317.851 349.997 317.839 350.213 317.785C350.429 317.725 350.603 317.593 350.735 317.389C350.873 317.185 350.993 316.882 351.095 316.48C351.197 316.072 351.299 315.541 351.401 314.887C351.515 314.179 351.611 313.474 351.689 312.772C351.773 312.07 351.845 311.359 351.905 310.639C351.971 309.913 352.025 309.169 352.067 308.407C352.109 307.645 352.148 306.856 352.184 306.04H360.365V319H359.042V307.309H353.462C353.42 307.927 353.378 308.56 353.336 309.208C353.3 309.856 353.252 310.519 353.192 311.197C353.138 311.875 353.069 312.574 352.985 313.294C352.907 314.008 352.808 314.746 352.688 315.508C352.592 316.084 352.478 316.618 352.346 317.11C352.22 317.602 352.04 318.016 351.806 318.352C351.578 318.688 351.269 318.919 350.879 319.045C350.495 319.171 350 319.156 349.394 319ZM371.709 319H370.395V314.077H366.084L365.625 313.969C364.665 313.783 363.927 313.33 363.411 312.61C362.895 311.89 362.637 311.041 362.637 310.063C362.637 309.385 362.76 308.767 363.006 308.209C363.252 307.651 363.609 307.189 364.077 306.823C364.551 306.451 365.124 306.214 365.796 306.112C365.964 306.082 366.126 306.064 366.282 306.058C366.438 306.046 366.579 306.04 366.705 306.04H371.709V319ZM363.861 319H362.34L365.148 313.24L366.417 313.726L363.861 319ZM370.395 312.817V307.309H366.741C366.639 307.309 366.513 307.315 366.363 307.327C366.219 307.333 366.078 307.351 365.94 307.381C365.496 307.477 365.13 307.66 364.842 307.93C364.56 308.2 364.35 308.524 364.212 308.902C364.074 309.274 364.005 309.661 364.005 310.063C364.005 310.465 364.074 310.852 364.212 311.224C364.35 311.596 364.56 311.917 364.842 312.187C365.13 312.457 365.496 312.64 365.94 312.736C366.078 312.766 366.219 312.787 366.363 312.799C366.513 312.811 366.639 312.817 366.741 312.817H370.395ZM377.683 319V307.309H373.156V306.04H383.533V307.309H379.006V319H377.683ZM384.967 319V306.04H386.29V310.963H389.971C390.097 310.963 390.238 310.969 390.394 310.981C390.556 310.987 390.721 311.005 390.889 311.035C391.561 311.137 392.131 311.374 392.599 311.746C393.073 312.112 393.43 312.574 393.67 313.132C393.916 313.69 394.039 314.305 394.039 314.977C394.039 315.655 393.916 316.273 393.67 316.831C393.43 317.389 393.073 317.854 392.599 318.226C392.131 318.592 391.561 318.826 390.889 318.928C390.721 318.952 390.556 318.97 390.394 318.982C390.238 318.994 390.097 319 389.971 319H384.967ZM386.29 317.731H389.935C390.049 317.731 390.178 317.725 390.322 317.713C390.466 317.701 390.607 317.683 390.745 317.659C391.183 317.563 391.546 317.38 391.834 317.11C392.122 316.84 392.335 316.519 392.473 316.147C392.611 315.769 392.68 315.379 392.68 314.977C392.68 314.575 392.611 314.188 392.473 313.816C392.335 313.444 392.122 313.123 391.834 312.853C391.546 312.583 391.183 312.4 390.745 312.304C390.607 312.274 390.466 312.253 390.322 312.241C390.178 312.229 390.049 312.223 389.935 312.223H386.29V317.731ZM401.262 319.27C399.972 319.27 398.883 318.985 397.995 318.415C397.107 317.839 396.435 317.044 395.979 316.03C395.523 315.016 395.295 313.846 395.295 312.52C395.295 311.194 395.523 310.024 395.979 309.01C396.435 307.996 397.107 307.204 397.995 306.634C398.883 306.058 399.972 305.77 401.262 305.77C402.768 305.77 403.998 306.157 404.952 306.931C405.906 307.699 406.56 308.731 406.914 310.027L405.564 310.378C405.288 309.352 404.793 308.539 404.079 307.939C403.365 307.339 402.426 307.039 401.262 307.039C400.248 307.039 399.405 307.27 398.733 307.732C398.061 308.194 397.554 308.839 397.212 309.667C396.876 310.489 396.702 311.44 396.69 312.52C396.684 313.6 396.849 314.551 397.185 315.373C397.527 316.195 398.037 316.84 398.715 317.308C399.399 317.77 400.248 318.001 401.262 318.001C402.426 318.001 403.365 317.701 404.079 317.101C404.793 316.495 405.288 315.682 405.564 314.662L406.914 315.013C406.56 316.309 405.906 317.344 404.952 318.118C403.998 318.886 402.768 319.27 401.262 319.27ZM417.729 319H416.415V314.077H412.104L411.645 313.969C410.685 313.783 409.947 313.33 409.431 312.61C408.915 311.89 408.657 311.041 408.657 310.063C408.657 309.385 408.78 308.767 409.026 308.209C409.272 307.651 409.629 307.189 410.097 306.823C410.571 306.451 411.144 306.214 411.816 306.112C411.984 306.082 412.146 306.064 412.302 306.058C412.458 306.046 412.599 306.04 412.725 306.04H417.729V319ZM409.881 319H408.36L411.168 313.24L412.437 313.726L409.881 319ZM416.415 312.817V307.309H412.761C412.659 307.309 412.533 307.315 412.383 307.327C412.239 307.333 412.098 307.351 411.96 307.381C411.516 307.477 411.15 307.66 410.862 307.93C410.58 308.2 410.37 308.524 410.232 308.902C410.094 309.274 410.025 309.661 410.025 310.063C410.025 310.465 410.094 310.852 410.232 311.224C410.37 311.596 410.58 311.917 410.862 312.187C411.15 312.457 411.516 312.64 411.96 312.736C412.098 312.766 412.239 312.787 412.383 312.799C412.533 312.811 412.659 312.817 412.761 312.817H416.415Z" fill="white"></path> <defs> <linearGradient id="paint0_linear_160_161" x1="300" y1="0" x2="300" y2="400" gradientUnits="userSpaceOnUse"> <stop stop-color="#A91F49"></stop> <stop offset="1" stop-color="#7E0046"></stop> </linearGradient> </defs> </svg> 