<?xml version="1.0" encoding="UTF-8"?> <svg xmlns="http://www.w3.org/2000/svg" width="600" height="400" viewBox="0 0 600 400" fill="none"> <rect width="600" height="400" rx="20" fill="url(#paint0_linear_136_324)"></rect> <path d="M66.3596 208L61.7286 192.16H64.5116L67.6686 203.6L70.8146 192.182L73.5976 192.16L76.7546 203.6L79.9006 192.16H82.6836L78.0636 208H75.4456L72.2006 196.736L68.9776 208H66.3596ZM84.4785 208V192.16H87.1295V198.826H94.6315V192.16H97.2715V208H94.6315V201.312H87.1295V208H84.4785ZM99.2554 208L104.249 192.16H108.132L113.126 208H110.398L105.866 193.788H106.46L101.983 208H99.2554ZM102.038 204.568V202.093H110.354V204.568H102.038ZM117.611 208V194.646H112.485V192.16H125.388V194.646H120.262V208H117.611ZM130.885 208V192.16H135.934C136.066 192.16 136.326 192.164 136.715 192.171C137.111 192.178 137.492 192.204 137.859 192.248C139.113 192.409 140.172 192.857 141.038 193.59C141.91 194.316 142.57 195.244 143.018 196.373C143.465 197.502 143.689 198.738 143.689 200.08C143.689 201.422 143.465 202.658 143.018 203.787C142.57 204.916 141.91 205.848 141.038 206.581C140.172 207.307 139.113 207.751 137.859 207.912C137.499 207.956 137.122 207.982 136.726 207.989C136.33 207.996 136.066 208 135.934 208H130.885ZM133.58 205.503H135.934C136.154 205.503 136.432 205.496 136.77 205.481C137.114 205.466 137.419 205.433 137.683 205.382C138.431 205.243 139.039 204.909 139.509 204.381C139.978 203.853 140.323 203.211 140.543 202.456C140.77 201.701 140.884 200.909 140.884 200.08C140.884 199.222 140.77 198.415 140.543 197.66C140.315 196.905 139.963 196.27 139.487 195.757C139.017 195.244 138.416 194.917 137.683 194.778C137.419 194.719 137.114 194.686 136.77 194.679C136.432 194.664 136.154 194.657 135.934 194.657H133.58V205.503ZM152.988 208.33C151.404 208.33 150.047 207.985 148.918 207.296C147.789 206.599 146.92 205.631 146.311 204.392C145.71 203.153 145.409 201.715 145.409 200.08C145.409 198.445 145.71 197.007 146.311 195.768C146.92 194.529 147.789 193.564 148.918 192.875C150.047 192.178 151.404 191.83 152.988 191.83C154.572 191.83 155.929 192.178 157.058 192.875C158.195 193.564 159.064 194.529 159.665 195.768C160.274 197.007 160.578 198.445 160.578 200.08C160.578 201.715 160.274 203.153 159.665 204.392C159.064 205.631 158.195 206.599 157.058 207.296C155.929 207.985 154.572 208.33 152.988 208.33ZM152.988 205.833C154.051 205.84 154.935 205.606 155.639 205.129C156.35 204.652 156.882 203.981 157.234 203.116C157.593 202.251 157.773 201.239 157.773 200.08C157.773 198.921 157.593 197.917 157.234 197.066C156.882 196.208 156.35 195.541 155.639 195.064C154.935 194.587 154.051 194.342 152.988 194.327C151.925 194.32 151.041 194.554 150.337 195.031C149.633 195.508 149.101 196.179 148.742 197.044C148.39 197.909 148.214 198.921 148.214 200.08C148.214 201.239 148.39 202.247 148.742 203.105C149.094 203.956 149.622 204.619 150.326 205.096C151.037 205.573 151.925 205.818 152.988 205.833ZM171.022 208V201.51L165.632 192.16H168.723L172.364 198.474L175.994 192.16H179.085L173.706 201.51V208H171.022ZM186.439 208.33C184.855 208.33 183.499 207.985 182.369 207.296C181.24 206.599 180.371 205.631 179.762 204.392C179.161 203.153 178.86 201.715 178.86 200.08C178.86 198.445 179.161 197.007 179.762 195.768C180.371 194.529 181.24 193.564 182.369 192.875C183.499 192.178 184.855 191.83 186.439 191.83C188.023 191.83 189.38 192.178 190.509 192.875C191.646 193.564 192.515 194.529 193.116 195.768C193.725 197.007 194.029 198.445 194.029 200.08C194.029 201.715 193.725 203.153 193.116 204.392C192.515 205.631 191.646 206.599 190.509 207.296C189.38 207.985 188.023 208.33 186.439 208.33ZM186.439 205.833C187.503 205.84 188.386 205.606 189.09 205.129C189.802 204.652 190.333 203.981 190.685 203.116C191.045 202.251 191.224 201.239 191.224 200.08C191.224 198.921 191.045 197.917 190.685 197.066C190.333 196.208 189.802 195.541 189.09 195.064C188.386 194.587 187.503 194.342 186.439 194.327C185.376 194.32 184.492 194.554 183.788 195.031C183.084 195.508 182.553 196.179 182.193 197.044C181.841 197.909 181.665 198.921 181.665 200.08C181.665 201.239 181.841 202.247 182.193 203.105C182.545 203.956 183.073 204.619 183.777 205.096C184.489 205.573 185.376 205.818 186.439 205.833ZM202.599 208.33C201.337 208.33 200.226 208.073 199.266 207.56C198.312 207.047 197.564 206.324 197.022 205.393C196.486 204.462 196.219 203.369 196.219 202.115V192.182L198.903 192.16V202.049C198.903 202.643 199.002 203.175 199.2 203.644C199.405 204.113 199.68 204.513 200.025 204.843C200.369 205.166 200.765 205.411 201.213 205.58C201.66 205.749 202.122 205.833 202.599 205.833C203.09 205.833 203.556 205.749 203.996 205.58C204.443 205.404 204.839 205.155 205.184 204.832C205.528 204.502 205.8 204.102 205.998 203.633C206.196 203.164 206.295 202.636 206.295 202.049V192.16H208.979V202.115C208.979 203.369 208.707 204.462 208.165 205.393C207.629 206.324 206.881 207.047 205.921 207.56C204.967 208.073 203.86 208.33 202.599 208.33ZM220.263 208V194.646H215.137V192.16H228.04V194.646H222.914V208H220.263ZM229.799 208V192.16H232.45V198.826H239.952V192.16H242.592V208H239.952V201.312H232.45V208H229.799ZM245.896 208V192.16H248.547V208H245.896ZM251.842 208V192.16H254.526L261.874 203.325V192.16H264.558V208H261.874L254.526 196.835V208H251.842ZM267.633 208V192.16H270.284V199.508L276.609 192.16H279.865L273.056 199.926L280.327 208H276.961L270.284 200.608V208H267.633ZM292.551 208.33C290.967 208.33 289.61 207.985 288.481 207.296C287.351 206.599 286.482 205.631 285.874 204.392C285.272 203.153 284.972 201.715 284.972 200.08C284.972 198.445 285.272 197.007 285.874 195.768C286.482 194.529 287.351 193.564 288.481 192.875C289.61 192.178 290.967 191.83 292.551 191.83C294.135 191.83 295.491 192.178 296.621 192.875C297.757 193.564 298.626 194.529 299.228 195.768C299.836 197.007 300.141 198.445 300.141 200.08C300.141 201.715 299.836 203.153 299.228 204.392C298.626 205.631 297.757 206.599 296.621 207.296C295.491 207.985 294.135 208.33 292.551 208.33ZM292.551 205.833C293.614 205.84 294.498 205.606 295.202 205.129C295.913 204.652 296.445 203.981 296.797 203.116C297.156 202.251 297.336 201.239 297.336 200.08C297.336 198.921 297.156 197.917 296.797 197.066C296.445 196.208 295.913 195.541 295.202 195.064C294.498 194.587 293.614 194.342 292.551 194.327C291.487 194.32 290.604 194.554 289.9 195.031C289.196 195.508 288.664 196.179 288.305 197.044C287.953 197.909 287.777 198.921 287.777 200.08C287.777 201.239 287.953 202.247 288.305 203.105C288.657 203.956 289.185 204.619 289.889 205.096C290.6 205.573 291.487 205.818 292.551 205.833ZM302.33 208V192.16H311.867V194.811H304.981V198.76H310.547V201.4H304.981V208H302.33ZM317.15 208L322.144 192.16H326.027L331.021 208H328.293L323.761 193.788H324.355L319.878 208H317.15ZM319.933 204.568V202.093H328.249V204.568H319.933ZM333.01 208V192.16H335.694L343.042 203.325V192.16H345.726V208H343.042L335.694 196.835V208H333.01ZM359.904 208.33C358.32 208.33 356.963 207.985 355.834 207.296C354.705 206.599 353.836 205.631 353.227 204.392C352.626 203.153 352.325 201.715 352.325 200.08C352.325 198.445 352.626 197.007 353.227 195.768C353.836 194.529 354.705 193.564 355.834 192.875C356.963 192.178 358.32 191.83 359.904 191.83C361.488 191.83 362.845 192.178 363.974 192.875C365.111 193.564 365.98 194.529 366.581 195.768C367.19 197.007 367.494 198.445 367.494 200.08C367.494 201.715 367.19 203.153 366.581 204.392C365.98 205.631 365.111 206.599 363.974 207.296C362.845 207.985 361.488 208.33 359.904 208.33ZM359.904 205.833C360.967 205.84 361.851 205.606 362.555 205.129C363.266 204.652 363.798 203.981 364.15 203.116C364.509 202.251 364.689 201.239 364.689 200.08C364.689 198.921 364.509 197.917 364.15 197.066C363.798 196.208 363.266 195.541 362.555 195.064C361.851 194.587 360.967 194.342 359.904 194.327C358.841 194.32 357.957 194.554 357.253 195.031C356.549 195.508 356.017 196.179 355.658 197.044C355.306 197.909 355.13 198.921 355.13 200.08C355.13 201.239 355.306 202.247 355.658 203.105C356.01 203.956 356.538 204.619 357.242 205.096C357.953 205.573 358.841 205.818 359.904 205.833ZM369.684 208V192.16H376.229C376.383 192.16 376.581 192.167 376.823 192.182C377.065 192.189 377.288 192.211 377.494 192.248C378.41 192.387 379.166 192.692 379.76 193.161C380.361 193.63 380.805 194.224 381.091 194.943C381.384 195.654 381.531 196.446 381.531 197.319C381.531 198.184 381.384 198.976 381.091 199.695C380.797 200.406 380.35 200.997 379.749 201.466C379.155 201.935 378.403 202.24 377.494 202.379C377.288 202.408 377.061 202.43 376.812 202.445C376.57 202.46 376.375 202.467 376.229 202.467H372.335V208H369.684ZM372.335 199.992H376.119C376.265 199.992 376.43 199.985 376.614 199.97C376.797 199.955 376.966 199.926 377.12 199.882C377.56 199.772 377.904 199.578 378.154 199.299C378.41 199.02 378.59 198.705 378.693 198.353C378.803 198.001 378.858 197.656 378.858 197.319C378.858 196.982 378.803 196.637 378.693 196.285C378.59 195.926 378.41 195.607 378.154 195.328C377.904 195.049 377.56 194.855 377.12 194.745C376.966 194.701 376.797 194.675 376.614 194.668C376.43 194.653 376.265 194.646 376.119 194.646H372.335V199.992ZM383.734 208V192.16H393.964V194.646H386.385V198.551H392.644V201.037H386.385V205.514H393.964V208H383.734ZM396.603 208V192.16H399.287L406.635 203.325V192.16H409.319V208H406.635L399.287 196.835V208H396.603ZM416.799 208V192.16H419.186L424.664 203.38L430.142 192.16H432.529V208H430.054V197.847L425.192 208H424.136L419.285 197.847V208H416.799ZM434.519 208L439.513 192.16H443.396L448.39 208H445.662L441.13 193.788H441.724L437.247 208H434.519ZM437.302 204.568V202.093H445.618V204.568H437.302ZM450.379 208V192.16H456.924C457.078 192.16 457.276 192.167 457.518 192.182C457.76 192.189 457.984 192.211 458.189 192.248C459.106 192.387 459.861 192.692 460.455 193.161C461.056 193.63 461.5 194.224 461.786 194.943C462.079 195.654 462.226 196.446 462.226 197.319C462.226 198.61 461.9 199.721 461.247 200.652C460.594 201.576 459.593 202.148 458.244 202.368L457.111 202.467H453.03V208H450.379ZM459.476 208L456.352 201.554L459.047 200.96L462.479 208H459.476ZM453.03 199.992H456.814C456.961 199.992 457.126 199.985 457.309 199.97C457.492 199.955 457.661 199.926 457.815 199.882C458.255 199.772 458.6 199.578 458.849 199.299C459.106 199.02 459.285 198.705 459.388 198.353C459.498 198.001 459.553 197.656 459.553 197.319C459.553 196.982 459.498 196.637 459.388 196.285C459.285 195.926 459.106 195.607 458.849 195.328C458.6 195.049 458.255 194.855 457.815 194.745C457.661 194.701 457.492 194.675 457.309 194.668C457.126 194.653 456.961 194.646 456.814 194.646H453.03V199.992ZM464.902 208V192.16H471.447C471.601 192.16 471.799 192.167 472.041 192.182C472.283 192.189 472.507 192.211 472.712 192.248C473.629 192.387 474.384 192.692 474.978 193.161C475.58 193.63 476.023 194.224 476.309 194.943C476.603 195.654 476.749 196.446 476.749 197.319C476.749 198.61 476.423 199.721 475.77 200.652C475.118 201.576 474.117 202.148 472.767 202.368L471.634 202.467H467.553V208H464.902ZM473.999 208L470.875 201.554L473.57 200.96L477.002 208H473.999ZM467.553 199.992H471.337C471.484 199.992 471.649 199.985 471.832 199.97C472.016 199.955 472.184 199.926 472.338 199.882C472.778 199.772 473.123 199.578 473.372 199.299C473.629 199.02 473.809 198.705 473.911 198.353C474.021 198.001 474.076 197.656 474.076 197.319C474.076 196.982 474.021 196.637 473.911 196.285C473.809 195.926 473.629 195.607 473.372 195.328C473.123 195.049 472.778 194.855 472.338 194.745C472.184 194.701 472.016 194.675 471.832 194.668C471.649 194.653 471.484 194.646 471.337 194.646H467.553V199.992ZM479.646 208V192.16H482.297V208H479.646ZM484.492 208L489.486 192.16H493.369L498.363 208H495.635L491.103 193.788H491.697L487.22 208H484.492ZM487.275 204.568V202.093H495.591V204.568H487.275ZM506.456 208.33C505.429 208.33 504.465 208.15 503.563 207.791C502.668 207.424 501.88 206.889 501.198 206.185C500.523 205.481 499.995 204.619 499.614 203.6C499.233 202.573 499.042 201.4 499.042 200.08C499.042 198.349 499.365 196.872 500.01 195.647C500.655 194.415 501.539 193.473 502.661 192.82C503.783 192.16 505.048 191.83 506.456 191.83C508.407 191.83 509.95 192.285 511.087 193.194C512.231 194.096 513.005 195.365 513.408 197L510.702 197.429C510.401 196.49 509.91 195.742 509.228 195.185C508.546 194.62 507.677 194.338 506.621 194.338C505.558 194.323 504.674 194.554 503.97 195.031C503.266 195.508 502.734 196.179 502.375 197.044C502.023 197.909 501.847 198.921 501.847 200.08C501.847 201.239 502.023 202.247 502.375 203.105C502.727 203.956 503.255 204.619 503.959 205.096C504.67 205.573 505.558 205.818 506.621 205.833C507.42 205.84 508.121 205.697 508.722 205.404C509.323 205.103 509.815 204.652 510.196 204.051C510.577 203.442 510.834 202.683 510.966 201.774H508.172V199.695H513.782C513.797 199.812 513.808 199.985 513.815 200.212C513.822 200.439 513.826 200.575 513.826 200.619C513.826 202.115 513.529 203.446 512.935 204.612C512.348 205.771 511.505 206.68 510.405 207.34C509.305 208 507.989 208.33 506.456 208.33ZM516.035 208V192.16H526.265V194.646H518.686V198.551H524.945V201.037H518.686V205.514H526.265V208H516.035ZM531.775 203.699C531.775 203.193 531.823 202.705 531.918 202.236C532.021 201.759 532.186 201.319 532.413 200.916C532.611 200.527 532.831 200.219 533.073 199.992C533.315 199.757 533.587 199.526 533.887 199.299C534.188 199.064 534.522 198.753 534.888 198.364C535.189 198.034 535.387 197.708 535.482 197.385C535.578 197.055 535.625 196.703 535.625 196.329C535.625 196.087 535.6 195.86 535.548 195.647C535.497 195.434 535.405 195.251 535.273 195.097C535.068 194.826 534.804 194.635 534.481 194.525C534.159 194.408 533.814 194.349 533.447 194.349C533.147 194.349 532.857 194.389 532.578 194.47C532.307 194.543 532.076 194.661 531.885 194.822C531.665 194.998 531.504 195.214 531.401 195.471C531.299 195.728 531.251 196.01 531.258 196.318H528.464C528.538 195.585 528.736 194.906 529.058 194.283C529.388 193.652 529.821 193.15 530.356 192.776C530.774 192.468 531.244 192.237 531.764 192.083C532.292 191.929 532.82 191.852 533.348 191.852C534.155 191.852 534.914 191.977 535.625 192.226C536.344 192.475 536.942 192.886 537.418 193.458C537.748 193.832 537.998 194.265 538.166 194.756C538.342 195.247 538.43 195.746 538.43 196.252C538.43 197.007 538.265 197.697 537.935 198.32C537.613 198.943 537.202 199.519 536.703 200.047C536.469 200.296 536.245 200.516 536.032 200.707C535.82 200.898 535.622 201.085 535.438 201.268C535.262 201.444 535.116 201.631 534.998 201.829C534.793 202.174 534.672 202.467 534.635 202.709C534.599 202.944 534.58 203.274 534.58 203.699H531.775ZM531.797 208V205.085H534.58V208H531.797Z" fill="white"></path> <rect x="20" y="20" width="143" height="40" rx="20" fill="white" fill-opacity="0.3"></rect> <path d="M33.2841 46V34.48H37.8361C37.9481 34.48 38.0814 34.4853 38.2361 34.496C38.3907 34.5013 38.5401 34.5173 38.6841 34.544C39.3081 34.64 39.8307 34.8533 40.2521 35.184C40.6787 35.5147 40.9987 35.9333 41.2121 36.44C41.4254 36.9413 41.5321 37.4987 41.5321 38.112C41.5321 39.0027 41.3001 39.776 40.8361 40.432C40.3721 41.0827 39.6921 41.4907 38.7961 41.656L38.2521 41.744H34.7081V46H33.2841ZM40.1401 46L37.8681 41.312L39.2761 40.88L41.7721 46H40.1401ZM34.7081 40.392H37.7881C37.8894 40.392 38.0041 40.3867 38.1321 40.376C38.2654 40.3653 38.3907 40.3467 38.5081 40.32C38.8761 40.2347 39.1747 40.08 39.4041 39.856C39.6387 39.6267 39.8094 39.36 39.9161 39.056C40.0227 38.7467 40.0761 38.432 40.0761 38.112C40.0761 37.792 40.0227 37.48 39.9161 37.176C39.8094 36.8667 39.6387 36.5973 39.4041 36.368C39.1747 36.1387 38.8761 35.984 38.5081 35.904C38.3907 35.872 38.2654 35.8533 38.1321 35.848C38.0041 35.8373 37.8894 35.832 37.7881 35.832H34.7081V40.392ZM43.5341 46V34.48H50.8141V35.832H44.9581V39.44H49.8541V40.792H44.9581V44.648H50.8141V46H43.5341ZM52.8972 46V34.48H54.3212V44.648H59.6652V46H52.8972ZM60.2184 46L64.0744 34.48H66.0584L69.9144 46H68.4344L64.8264 35.312H65.2744L61.6984 46H60.2184ZM62.0744 43.304V41.968H68.0584V43.304H62.0744ZM73.3614 46V35.832H69.4334V34.48H78.7134V35.832H74.7854V46H73.3614ZM80.1472 46V34.48H81.5712V46H80.1472ZM88.7076 46.24C87.5609 46.24 86.5876 45.9867 85.7876 45.48C84.9876 44.9733 84.3769 44.2693 83.9556 43.368C83.5396 42.4667 83.3316 41.424 83.3316 40.24C83.3316 39.056 83.5396 38.0133 83.9556 37.112C84.3769 36.2107 84.9876 35.5067 85.7876 35C86.5876 34.4933 87.5609 34.24 88.7076 34.24C89.8596 34.24 90.8356 34.4933 91.6356 35C92.4356 35.5067 93.0436 36.2107 93.4596 37.112C93.8756 38.0133 94.0836 39.056 94.0836 40.24C94.0836 41.424 93.8756 42.4667 93.4596 43.368C93.0436 44.2693 92.4356 44.9733 91.6356 45.48C90.8356 45.9867 89.8596 46.24 88.7076 46.24ZM88.7076 44.88C89.5662 44.8853 90.2809 44.6933 90.8516 44.304C91.4276 43.9093 91.8569 43.3627 92.1396 42.664C92.4276 41.9653 92.5716 41.1573 92.5716 40.24C92.5716 39.3173 92.4276 38.5093 92.1396 37.816C91.8569 37.1227 91.4276 36.5813 90.8516 36.192C90.2809 35.8027 89.5662 35.6053 88.7076 35.6C87.8489 35.5947 87.1342 35.7867 86.5636 36.176C85.9982 36.5653 85.5716 37.1093 85.2836 37.808C84.9956 38.5067 84.8489 39.3173 84.8436 40.24C84.8382 41.1573 84.9796 41.9627 85.2676 42.656C85.5556 43.3493 85.9849 43.8933 86.5556 44.288C87.1316 44.6773 87.8489 44.8747 88.7076 44.88ZM95.6903 46V34.48H97.1303L103.138 43.48V34.48H104.578V46H103.138L97.1303 36.992V46H95.6903ZM110.903 46.24C110.087 46.24 109.351 46.1013 108.695 45.824C108.045 45.5467 107.506 45.152 107.079 44.64C106.658 44.1227 106.383 43.512 106.255 42.808L107.727 42.576C107.914 43.3013 108.301 43.8693 108.887 44.28C109.479 44.6853 110.175 44.888 110.975 44.888C111.493 44.888 111.959 44.808 112.375 44.648C112.797 44.4827 113.13 44.248 113.375 43.944C113.621 43.64 113.743 43.28 113.743 42.864C113.743 42.608 113.698 42.3893 113.607 42.208C113.522 42.0213 113.402 41.864 113.247 41.736C113.098 41.6027 112.927 41.4907 112.735 41.4C112.543 41.3093 112.343 41.2347 112.135 41.176L109.199 40.304C108.879 40.208 108.57 40.088 108.271 39.944C107.973 39.7947 107.706 39.6107 107.471 39.392C107.237 39.168 107.05 38.9013 106.911 38.592C106.773 38.2773 106.703 37.9067 106.703 37.48C106.703 36.7973 106.879 36.216 107.231 35.736C107.589 35.2507 108.071 34.88 108.679 34.624C109.287 34.368 109.973 34.2427 110.735 34.248C111.509 34.2533 112.199 34.392 112.807 34.664C113.421 34.9307 113.927 35.3147 114.327 35.816C114.733 36.3173 115.005 36.9173 115.143 37.616L113.631 37.88C113.551 37.4107 113.373 37.008 113.095 36.672C112.823 36.3307 112.482 36.0693 112.071 35.888C111.661 35.7013 111.21 35.6053 110.719 35.6C110.25 35.5947 109.826 35.6693 109.447 35.824C109.069 35.9787 108.767 36.1947 108.543 36.472C108.319 36.744 108.207 37.0587 108.207 37.416C108.207 37.768 108.309 38.0533 108.511 38.272C108.714 38.4853 108.962 38.656 109.255 38.784C109.554 38.9067 109.845 39.008 110.127 39.088L112.319 39.72C112.57 39.7893 112.858 39.8853 113.183 40.008C113.514 40.1307 113.834 40.304 114.143 40.528C114.453 40.7467 114.709 41.04 114.911 41.408C115.114 41.7707 115.215 42.2293 115.215 42.784C115.215 43.3387 115.103 43.832 114.879 44.264C114.661 44.696 114.354 45.0587 113.959 45.352C113.565 45.64 113.106 45.8587 112.583 46.008C112.061 46.1627 111.501 46.24 110.903 46.24ZM116.893 46V34.48H118.317V39.56H124.381V34.48H125.805V46H124.381V40.912H118.317V46H116.893ZM128.21 46V34.48H129.634V46H128.21ZM132.034 46V34.48H136.586C136.698 34.48 136.831 34.4853 136.986 34.496C137.141 34.5013 137.29 34.5173 137.434 34.544C138.058 34.64 138.581 34.8533 139.002 35.184C139.429 35.5147 139.749 35.9333 139.962 36.44C140.175 36.9413 140.282 37.4987 140.282 38.112C140.282 38.72 140.173 39.2773 139.954 39.784C139.741 40.2853 139.421 40.704 138.994 41.04C138.573 41.3707 138.053 41.584 137.434 41.68C137.29 41.7013 137.141 41.7173 136.986 41.728C136.831 41.7387 136.698 41.744 136.586 41.744H133.458V46H132.034ZM133.458 40.392H136.538C136.639 40.392 136.754 40.3867 136.882 40.376C137.015 40.3653 137.141 40.3467 137.258 40.32C137.626 40.2347 137.925 40.08 138.154 39.856C138.389 39.6267 138.559 39.36 138.666 39.056C138.773 38.7467 138.826 38.432 138.826 38.112C138.826 37.792 138.773 37.48 138.666 37.176C138.559 36.8667 138.389 36.5973 138.154 36.368C137.925 36.1387 137.626 35.984 137.258 35.904C137.141 35.872 137.015 35.8533 136.882 35.848C136.754 35.8373 136.639 35.832 136.538 35.832H133.458V40.392ZM145.966 46.24C145.15 46.24 144.414 46.1013 143.758 45.824C143.107 45.5467 142.568 45.152 142.142 44.64C141.72 44.1227 141.446 43.512 141.318 42.808L142.79 42.576C142.976 43.3013 143.363 43.8693 143.95 44.28C144.542 44.6853 145.238 44.888 146.038 44.888C146.555 44.888 147.022 44.808 147.438 44.648C147.859 44.4827 148.192 44.248 148.438 43.944C148.683 43.64 148.806 43.28 148.806 42.864C148.806 42.608 148.76 42.3893 148.67 42.208C148.584 42.0213 148.464 41.864 148.31 41.736C148.16 41.6027 147.99 41.4907 147.798 41.4C147.606 41.3093 147.406 41.2347 147.198 41.176L144.262 40.304C143.942 40.208 143.632 40.088 143.334 39.944C143.035 39.7947 142.768 39.6107 142.534 39.392C142.299 39.168 142.112 38.9013 141.974 38.592C141.835 38.2773 141.766 37.9067 141.766 37.48C141.766 36.7973 141.942 36.216 142.294 35.736C142.651 35.2507 143.134 34.88 143.742 34.624C144.35 34.368 145.035 34.2427 145.798 34.248C146.571 34.2533 147.262 34.392 147.87 34.664C148.483 34.9307 148.99 35.3147 149.39 35.816C149.795 36.3173 150.067 36.9173 150.206 37.616L148.694 37.88C148.614 37.4107 148.435 37.008 148.158 36.672C147.886 36.3307 147.544 36.0693 147.134 35.888C146.723 35.7013 146.272 35.6053 145.782 35.6C145.312 35.5947 144.888 35.6693 144.51 35.824C144.131 35.9787 143.83 36.1947 143.606 36.472C143.382 36.744 143.27 37.0587 143.27 37.416C143.27 37.768 143.371 38.0533 143.574 38.272C143.776 38.4853 144.024 38.656 144.318 38.784C144.616 38.9067 144.907 39.008 145.19 39.088L147.382 39.72C147.632 39.7893 147.92 39.8853 148.246 40.008C148.576 40.1307 148.896 40.304 149.206 40.528C149.515 40.7467 149.771 41.04 149.974 41.408C150.176 41.7707 150.278 42.2293 150.278 42.784C150.278 43.3387 150.166 43.832 149.942 44.264C149.723 44.696 149.416 45.0587 149.022 45.352C148.627 45.64 148.168 45.8587 147.646 46.008C147.123 46.1627 146.563 46.24 145.966 46.24Z" fill="white"></path> <path d="M64.8771 304.27C63.5871 304.27 62.4981 303.985 61.6101 303.415C60.7221 302.839 60.0501 302.044 59.5941 301.03C59.1381 300.016 58.9101 298.846 58.9101 297.52C58.9101 296.194 59.1381 295.024 59.5941 294.01C60.0501 292.996 60.7221 292.204 61.6101 291.634C62.4981 291.058 63.5871 290.77 64.8771 290.77C66.1731 290.77 67.2621 291.058 68.1441 291.634C69.0321 292.204 69.7041 292.996 70.1601 294.01C70.6221 295.024 70.8531 296.194 70.8531 297.52C70.8531 298.846 70.6221 300.016 70.1601 301.03C69.7041 302.044 69.0321 302.839 68.1441 303.415C67.2621 303.985 66.1731 304.27 64.8771 304.27ZM64.8771 303.001C65.8911 303.001 66.7371 302.77 67.4151 302.308C68.0931 301.846 68.6001 301.204 68.9361 300.382C69.2781 299.554 69.4491 298.6 69.4491 297.52C69.4491 296.44 69.2781 295.489 68.9361 294.667C68.6001 293.845 68.0931 293.203 67.4151 292.741C66.7371 292.279 65.8911 292.045 64.8771 292.039C63.8631 292.039 63.0201 292.27 62.3481 292.732C61.6761 293.194 61.1691 293.839 60.8271 294.667C60.4911 295.489 60.3201 296.44 60.3141 297.52C60.3081 298.6 60.4731 299.551 60.8091 300.373C61.1511 301.189 61.6611 301.831 62.3391 302.299C63.0171 302.761 63.8631 302.995 64.8771 303.001ZM72.6555 304V291.04H77.6595C77.7855 291.04 77.9265 291.046 78.0825 291.058C78.2445 291.064 78.4065 291.082 78.5685 291.112C79.2465 291.214 79.8195 291.451 80.2875 291.823C80.7615 292.189 81.1185 292.651 81.3585 293.209C81.6045 293.767 81.7275 294.385 81.7275 295.063C81.7275 295.735 81.6045 296.35 81.3585 296.908C81.1125 297.466 80.7525 297.931 80.2785 298.303C79.8105 298.669 79.2405 298.903 78.5685 299.005C78.4065 299.029 78.2445 299.047 78.0825 299.059C77.9265 299.071 77.7855 299.077 77.6595 299.077H73.9785V304H72.6555ZM73.9785 297.817H77.6235C77.7315 297.817 77.8575 297.811 78.0015 297.799C78.1455 297.787 78.2865 297.766 78.4245 297.736C78.8685 297.64 79.2315 297.457 79.5135 297.187C79.8015 296.917 80.0145 296.596 80.1525 296.224C80.2965 295.852 80.3685 295.465 80.3685 295.063C80.3685 294.661 80.2965 294.274 80.1525 293.902C80.0145 293.524 79.8015 293.2 79.5135 292.93C79.2315 292.66 78.8685 292.477 78.4245 292.381C78.2865 292.351 78.1455 292.333 78.0015 292.327C77.8575 292.315 77.7315 292.309 77.6235 292.309H73.9785V297.817ZM83.5188 304V291.04H91.6188V292.309H84.8418V296.791H90.5388V298.06H84.8418V302.731H91.6188V304H83.5188ZM93.7844 304V291.04H95.1164L102.253 301.66V291.04H103.585V304H102.253L95.1164 293.371V304H93.7844ZM109.71 304V291.04H110.925L116.019 301.939L121.086 291.04H122.319V303.991H121.059V293.992L116.442 304H115.587L110.979 293.992V304H109.71ZM123.945 304L128.409 291.04H130.164L134.628 304H133.251L129.012 291.778H129.534L125.322 304H123.945ZM125.934 300.859V299.617H132.63V300.859H125.934ZM136.253 304V291.04H141.257C141.383 291.04 141.524 291.046 141.68 291.058C141.842 291.064 142.004 291.082 142.166 291.112C142.844 291.214 143.417 291.451 143.885 291.823C144.359 292.189 144.716 292.651 144.956 293.209C145.202 293.767 145.325 294.385 145.325 295.063C145.325 296.041 145.067 296.89 144.551 297.61C144.035 298.33 143.297 298.783 142.337 298.969L141.878 299.077H137.576V304H136.253ZM144.101 304L141.545 298.726L142.814 298.24L145.622 304H144.101ZM137.576 297.817H141.221C141.329 297.817 141.455 297.811 141.599 297.799C141.743 297.787 141.884 297.766 142.022 297.736C142.466 297.64 142.829 297.457 143.111 297.187C143.399 296.917 143.612 296.596 143.75 296.224C143.894 295.852 143.966 295.465 143.966 295.063C143.966 294.661 143.894 294.274 143.75 293.902C143.612 293.524 143.399 293.2 143.111 292.93C142.829 292.66 142.466 292.477 142.022 292.381C141.884 292.351 141.743 292.333 141.599 292.327C141.455 292.315 141.329 292.309 141.221 292.309H137.576V297.817ZM147.609 304V291.04H152.613C152.739 291.04 152.88 291.046 153.036 291.058C153.198 291.064 153.36 291.082 153.522 291.112C154.2 291.214 154.773 291.451 155.241 291.823C155.715 292.189 156.072 292.651 156.312 293.209C156.558 293.767 156.681 294.385 156.681 295.063C156.681 296.041 156.423 296.89 155.907 297.61C155.391 298.33 154.653 298.783 153.693 298.969L153.234 299.077H148.932V304H147.609ZM155.457 304L152.901 298.726L154.17 298.24L156.978 304H155.457ZM148.932 297.817H152.577C152.685 297.817 152.811 297.811 152.955 297.799C153.099 297.787 153.24 297.766 153.378 297.736C153.822 297.64 154.185 297.457 154.467 297.187C154.755 296.917 154.968 296.596 155.106 296.224C155.25 295.852 155.322 295.465 155.322 295.063C155.322 294.661 155.25 294.274 155.106 293.902C154.968 293.524 154.755 293.2 154.467 292.93C154.185 292.66 153.822 292.477 153.378 292.381C153.24 292.351 153.099 292.333 152.955 292.327C152.811 292.315 152.685 292.309 152.577 292.309H148.932V297.817ZM159.144 304V291.04H160.467V304H159.144ZM162.265 304L166.729 291.04H168.484L172.948 304H171.571L167.332 291.778H167.854L163.642 304H162.265ZM164.254 300.859V299.617H170.95V300.859H164.254ZM179.415 304.27C178.503 304.27 177.681 304.111 176.949 303.793C176.217 303.475 175.593 303.022 175.077 302.434C174.567 301.846 174.177 301.138 173.907 300.31C173.637 299.476 173.502 298.546 173.502 297.52C173.502 296.164 173.736 294.982 174.204 293.974C174.678 292.96 175.356 292.174 176.238 291.616C177.12 291.058 178.179 290.779 179.415 290.779C180.795 290.779 181.917 291.103 182.781 291.751C183.651 292.393 184.257 293.257 184.599 294.343L183.267 294.667C182.985 293.875 182.52 293.242 181.872 292.768C181.23 292.294 180.429 292.057 179.469 292.057C178.455 292.051 177.612 292.279 176.94 292.741C176.268 293.197 175.761 293.839 175.419 294.667C175.083 295.489 174.912 296.44 174.906 297.52C174.9 298.6 175.065 299.551 175.401 300.373C175.743 301.189 176.253 301.831 176.931 302.299C177.609 302.761 178.455 302.995 179.469 303.001C180.399 303.001 181.167 302.821 181.773 302.461C182.379 302.101 182.838 301.585 183.15 300.913C183.468 300.241 183.648 299.446 183.69 298.528H180.702V297.394H185.076C185.094 297.532 185.103 297.679 185.103 297.835C185.109 297.985 185.112 298.093 185.112 298.159C185.112 299.329 184.902 300.376 184.482 301.3C184.062 302.218 183.429 302.944 182.583 303.478C181.743 304.006 180.687 304.27 179.415 304.27ZM186.913 304V291.04H195.013V292.309H188.236V296.791H193.933V298.06H188.236V302.731H195.013V304H186.913ZM200.602 298.897V297.763H208.162V298.897H200.602ZM213.207 304L217.671 291.04H219.426L223.89 304H222.513L218.274 291.778H218.796L214.584 304H213.207ZM215.196 300.859V299.617H221.892V300.859H215.196ZM231.899 304L228.155 291.04H229.532L232.565 301.741L235.58 291.049L236.966 291.04L239.999 301.741L243.014 291.04H244.4L240.665 304H239.333L236.273 293.371L233.231 304H231.899ZM243.793 304L248.257 291.04H250.012L254.476 304H253.099L248.86 291.778H249.382L245.17 304H243.793ZM245.782 300.859V299.617H252.478V300.859H245.782ZM258.116 304V298.573L253.769 291.04H255.299L258.782 297.061L262.247 291.04H263.777L259.448 298.573V304H258.116ZM273.16 304.27C271.87 304.27 270.781 303.985 269.893 303.415C269.005 302.839 268.333 302.044 267.877 301.03C267.421 300.016 267.193 298.846 267.193 297.52C267.193 296.194 267.421 295.024 267.877 294.01C268.333 292.996 269.005 292.204 269.893 291.634C270.781 291.058 271.87 290.77 273.16 290.77C274.456 290.77 275.545 291.058 276.427 291.634C277.315 292.204 277.987 292.996 278.443 294.01C278.905 295.024 279.136 296.194 279.136 297.52C279.136 298.846 278.905 300.016 278.443 301.03C277.987 302.044 277.315 302.839 276.427 303.415C275.545 303.985 274.456 304.27 273.16 304.27ZM273.16 303.001C274.174 303.001 275.02 302.77 275.698 302.308C276.376 301.846 276.883 301.204 277.219 300.382C277.561 299.554 277.732 298.6 277.732 297.52C277.732 296.44 277.561 295.489 277.219 294.667C276.883 293.845 276.376 293.203 275.698 292.741C275.02 292.279 274.174 292.045 273.16 292.039C272.146 292.039 271.303 292.27 270.631 292.732C269.959 293.194 269.452 293.839 269.11 294.667C268.774 295.489 268.603 296.44 268.597 297.52C268.591 298.6 268.756 299.551 269.092 300.373C269.434 301.189 269.944 301.831 270.622 302.299C271.3 302.761 272.146 302.995 273.16 303.001ZM280.939 304V291.04H288.382V292.363H282.262V296.863H287.302V298.177H282.262V304H280.939ZM293.613 304V291.04H298.617C298.743 291.04 298.884 291.046 299.04 291.058C299.202 291.064 299.364 291.082 299.526 291.112C300.204 291.214 300.777 291.451 301.245 291.823C301.719 292.189 302.076 292.651 302.316 293.209C302.562 293.767 302.685 294.385 302.685 295.063C302.685 295.735 302.562 296.35 302.316 296.908C302.07 297.466 301.71 297.931 301.236 298.303C300.768 298.669 300.198 298.903 299.526 299.005C299.364 299.029 299.202 299.047 299.04 299.059C298.884 299.071 298.743 299.077 298.617 299.077H294.936V304H293.613ZM294.936 297.817H298.581C298.689 297.817 298.815 297.811 298.959 297.799C299.103 297.787 299.244 297.766 299.382 297.736C299.826 297.64 300.189 297.457 300.471 297.187C300.759 296.917 300.972 296.596 301.11 296.224C301.254 295.852 301.326 295.465 301.326 295.063C301.326 294.661 301.254 294.274 301.11 293.902C300.972 293.524 300.759 293.2 300.471 292.93C300.189 292.66 299.826 292.477 299.382 292.381C299.244 292.351 299.103 292.333 298.959 292.327C298.815 292.315 298.689 292.309 298.581 292.309H294.936V297.817ZM309.723 304.27C308.433 304.27 307.344 303.985 306.456 303.415C305.568 302.839 304.896 302.044 304.44 301.03C303.984 300.016 303.756 298.846 303.756 297.52C303.756 296.194 303.984 295.024 304.44 294.01C304.896 292.996 305.568 292.204 306.456 291.634C307.344 291.058 308.433 290.77 309.723 290.77C311.019 290.77 312.108 291.058 312.99 291.634C313.878 292.204 314.55 292.996 315.006 294.01C315.468 295.024 315.699 296.194 315.699 297.52C315.699 298.846 315.468 300.016 315.006 301.03C314.55 302.044 313.878 302.839 312.99 303.415C312.108 303.985 311.019 304.27 309.723 304.27ZM309.723 303.001C310.737 303.001 311.583 302.77 312.261 302.308C312.939 301.846 313.446 301.204 313.782 300.382C314.124 299.554 314.295 298.6 314.295 297.52C314.295 296.44 314.124 295.489 313.782 294.667C313.446 293.845 312.939 293.203 312.261 292.741C311.583 292.279 310.737 292.045 309.723 292.039C308.709 292.039 307.866 292.27 307.194 292.732C306.522 293.194 306.015 293.839 305.673 294.667C305.337 295.489 305.166 296.44 305.16 297.52C305.154 298.6 305.319 299.551 305.655 300.373C305.997 301.189 306.507 301.831 307.185 302.299C307.863 302.761 308.709 302.995 309.723 303.001ZM317.681 304V291.04H319.004V302.731H325.16V304H317.681ZM327.989 304V298.573L323.642 291.04H325.172L328.655 297.061L332.12 291.04H333.65L329.321 298.573V304H327.989ZM339.376 304.27C338.464 304.27 337.642 304.111 336.91 303.793C336.178 303.475 335.554 303.022 335.038 302.434C334.528 301.846 334.138 301.138 333.868 300.31C333.598 299.476 333.463 298.546 333.463 297.52C333.463 296.164 333.697 294.982 334.165 293.974C334.639 292.96 335.317 292.174 336.199 291.616C337.081 291.058 338.14 290.779 339.376 290.779C340.756 290.779 341.878 291.103 342.742 291.751C343.612 292.393 344.218 293.257 344.56 294.343L343.228 294.667C342.946 293.875 342.481 293.242 341.833 292.768C341.191 292.294 340.39 292.057 339.43 292.057C338.416 292.051 337.573 292.279 336.901 292.741C336.229 293.197 335.722 293.839 335.38 294.667C335.044 295.489 334.873 296.44 334.867 297.52C334.861 298.6 335.026 299.551 335.362 300.373C335.704 301.189 336.214 301.831 336.892 302.299C337.57 302.761 338.416 302.995 339.43 303.001C340.36 303.001 341.128 302.821 341.734 302.461C342.34 302.101 342.799 301.585 343.111 300.913C343.429 300.241 343.609 299.446 343.651 298.528H340.663V297.394H345.037C345.055 297.532 345.064 297.679 345.064 297.835C345.07 297.985 345.073 298.093 345.073 298.159C345.073 299.329 344.863 300.376 344.443 301.3C344.023 302.218 343.39 302.944 342.544 303.478C341.704 304.006 340.648 304.27 339.376 304.27ZM345.623 304L350.087 291.04H351.842L356.306 304H354.929L350.69 291.778H351.212L347 304H345.623ZM347.612 300.859V299.617H354.308V300.859H347.612ZM357.931 304V291.04H359.146L364.24 301.939L369.307 291.04H370.54V303.991H369.28V293.992L364.663 304H363.808L359.2 293.992V304H357.931ZM378.313 304.27C377.023 304.27 375.934 303.985 375.046 303.415C374.158 302.839 373.486 302.044 373.03 301.03C372.574 300.016 372.346 298.846 372.346 297.52C372.346 296.194 372.574 295.024 373.03 294.01C373.486 292.996 374.158 292.204 375.046 291.634C375.934 291.058 377.023 290.77 378.313 290.77C379.609 290.77 380.698 291.058 381.58 291.634C382.468 292.204 383.14 292.996 383.596 294.01C384.058 295.024 384.289 296.194 384.289 297.52C384.289 298.846 384.058 300.016 383.596 301.03C383.14 302.044 382.468 302.839 381.58 303.415C380.698 303.985 379.609 304.27 378.313 304.27ZM378.313 303.001C379.327 303.001 380.173 302.77 380.851 302.308C381.529 301.846 382.036 301.204 382.372 300.382C382.714 299.554 382.885 298.6 382.885 297.52C382.885 296.44 382.714 295.489 382.372 294.667C382.036 293.845 381.529 293.203 380.851 292.741C380.173 292.279 379.327 292.045 378.313 292.039C377.299 292.039 376.456 292.27 375.784 292.732C375.112 293.194 374.605 293.839 374.263 294.667C373.927 295.489 373.756 296.44 373.75 297.52C373.744 298.6 373.909 299.551 374.245 300.373C374.587 301.189 375.097 301.831 375.775 302.299C376.453 302.761 377.299 302.995 378.313 303.001ZM391.149 304.27C390.159 304.27 389.283 304.066 388.521 303.658C387.765 303.25 387.171 302.674 386.739 301.93C386.307 301.186 386.091 300.316 386.091 299.32V291.049L387.423 291.04V299.149C387.423 299.821 387.537 300.403 387.765 300.895C387.993 301.381 388.29 301.783 388.656 302.101C389.028 302.413 389.433 302.644 389.871 302.794C390.309 302.944 390.735 303.019 391.149 303.019C391.569 303.019 391.998 302.944 392.436 302.794C392.874 302.644 393.276 302.413 393.642 302.101C394.008 301.783 394.305 301.381 394.533 300.895C394.761 300.403 394.875 299.821 394.875 299.149V291.04H396.207V299.32C396.207 300.316 395.991 301.186 395.559 301.93C395.127 302.668 394.53 303.244 393.768 303.658C393.012 304.066 392.139 304.27 391.149 304.27ZM402.685 304.27C401.779 304.27 400.963 304.12 400.237 303.82C399.517 303.514 398.92 303.082 398.446 302.524C397.978 301.966 397.672 301.303 397.528 300.535L398.878 300.31C399.094 301.15 399.55 301.81 400.246 302.29C400.942 302.764 401.773 303.001 402.739 303.001C403.375 303.001 403.945 302.902 404.449 302.704C404.953 302.5 405.349 302.212 405.637 301.84C405.925 301.468 406.069 301.027 406.069 300.517C406.069 300.181 406.009 299.896 405.889 299.662C405.769 299.422 405.61 299.224 405.412 299.068C405.214 298.912 404.998 298.783 404.764 298.681C404.53 298.573 404.302 298.486 404.08 298.42L400.795 297.439C400.399 297.325 400.033 297.181 399.697 297.007C399.361 296.827 399.067 296.614 398.815 296.368C398.569 296.116 398.377 295.822 398.239 295.486C398.101 295.15 398.032 294.766 398.032 294.334C398.032 293.602 398.224 292.969 398.608 292.435C398.992 291.901 399.517 291.49 400.183 291.202C400.849 290.914 401.608 290.773 402.46 290.779C403.324 290.779 404.095 290.932 404.773 291.238C405.457 291.544 406.021 291.982 406.465 292.552C406.909 293.116 407.203 293.785 407.347 294.559L405.961 294.811C405.871 294.247 405.664 293.758 405.34 293.344C405.016 292.93 404.602 292.612 404.098 292.39C403.6 292.162 403.051 292.045 402.451 292.039C401.869 292.039 401.35 292.138 400.894 292.336C400.444 292.528 400.087 292.792 399.823 293.128C399.559 293.464 399.427 293.848 399.427 294.28C399.427 294.718 399.547 295.069 399.787 295.333C400.033 295.597 400.333 295.804 400.687 295.954C401.047 296.104 401.395 296.227 401.731 296.323L404.269 297.07C404.533 297.142 404.842 297.247 405.196 297.385C405.556 297.517 405.904 297.709 406.24 297.961C406.582 298.207 406.864 298.531 407.086 298.933C407.308 299.335 407.419 299.845 407.419 300.463C407.419 301.063 407.299 301.6 407.059 302.074C406.825 302.548 406.492 302.947 406.06 303.271C405.634 303.595 405.133 303.841 404.557 304.009C403.987 304.183 403.363 304.27 402.685 304.27ZM412.88 304V291.04H417.884C418.01 291.04 418.151 291.046 418.307 291.058C418.469 291.064 418.631 291.082 418.793 291.112C419.471 291.214 420.044 291.451 420.512 291.823C420.986 292.189 421.343 292.651 421.583 293.209C421.829 293.767 421.952 294.385 421.952 295.063C421.952 296.041 421.694 296.89 421.178 297.61C420.662 298.33 419.924 298.783 418.964 298.969L418.505 299.077H414.203V304H412.88ZM420.728 304L418.172 298.726L419.441 298.24L422.249 304H420.728ZM414.203 297.817H417.848C417.956 297.817 418.082 297.811 418.226 297.799C418.37 297.787 418.511 297.766 418.649 297.736C419.093 297.64 419.456 297.457 419.738 297.187C420.026 296.917 420.239 296.596 420.377 296.224C420.521 295.852 420.593 295.465 420.593 295.063C420.593 294.661 420.521 294.274 420.377 293.902C420.239 293.524 420.026 293.2 419.738 292.93C419.456 292.66 419.093 292.477 418.649 292.381C418.511 292.351 418.37 292.333 418.226 292.327C418.082 292.315 417.956 292.309 417.848 292.309H414.203V297.817ZM424.236 304V291.04H432.336V292.309H425.559V296.791H431.256V298.06H425.559V302.731H432.336V304H424.236ZM434.681 304V291.04H436.004V302.731H442.16V304H434.681ZM442.795 304L447.259 291.04H449.014L453.478 304H452.101L447.862 291.778H448.384L444.172 304H442.795ZM444.784 300.859V299.617H451.48V300.859H444.784ZM457.478 304V292.309H452.951V291.04H463.328V292.309H458.801V304H457.478ZM464.951 304V291.04H466.274V304H464.951ZM474.219 304.27C472.929 304.27 471.84 303.985 470.952 303.415C470.064 302.839 469.392 302.044 468.936 301.03C468.48 300.016 468.252 298.846 468.252 297.52C468.252 296.194 468.48 295.024 468.936 294.01C469.392 292.996 470.064 292.204 470.952 291.634C471.84 291.058 472.929 290.77 474.219 290.77C475.515 290.77 476.604 291.058 477.486 291.634C478.374 292.204 479.046 292.996 479.502 294.01C479.964 295.024 480.195 296.194 480.195 297.52C480.195 298.846 479.964 300.016 479.502 301.03C479.046 302.044 478.374 302.839 477.486 303.415C476.604 303.985 475.515 304.27 474.219 304.27ZM474.219 303.001C475.233 303.001 476.079 302.77 476.757 302.308C477.435 301.846 477.942 301.204 478.278 300.382C478.62 299.554 478.791 298.6 478.791 297.52C478.791 296.44 478.62 295.489 478.278 294.667C477.942 293.845 477.435 293.203 476.757 292.741C476.079 292.279 475.233 292.045 474.219 292.039C473.205 292.039 472.362 292.27 471.69 292.732C471.018 293.194 470.511 293.839 470.169 294.667C469.833 295.489 469.662 296.44 469.656 297.52C469.65 298.6 469.815 299.551 470.151 300.373C470.493 301.189 471.003 301.831 471.681 302.299C472.359 302.761 473.205 302.995 474.219 303.001ZM481.997 304V291.04H483.329L490.466 301.66V291.04H491.798V304H490.466L483.329 293.371V304H481.997ZM498.82 304.27C497.914 304.27 497.098 304.12 496.372 303.82C495.652 303.514 495.055 303.082 494.581 302.524C494.113 301.966 493.807 301.303 493.663 300.535L495.013 300.31C495.229 301.15 495.685 301.81 496.381 302.29C497.077 302.764 497.908 303.001 498.874 303.001C499.51 303.001 500.08 302.902 500.584 302.704C501.088 302.5 501.484 302.212 501.772 301.84C502.06 301.468 502.204 301.027 502.204 300.517C502.204 300.181 502.144 299.896 502.024 299.662C501.904 299.422 501.745 299.224 501.547 299.068C501.349 298.912 501.133 298.783 500.899 298.681C500.665 298.573 500.437 298.486 500.215 298.42L496.93 297.439C496.534 297.325 496.168 297.181 495.832 297.007C495.496 296.827 495.202 296.614 494.95 296.368C494.704 296.116 494.512 295.822 494.374 295.486C494.236 295.15 494.167 294.766 494.167 294.334C494.167 293.602 494.359 292.969 494.743 292.435C495.127 291.901 495.652 291.49 496.318 291.202C496.984 290.914 497.743 290.773 498.595 290.779C499.459 290.779 500.23 290.932 500.908 291.238C501.592 291.544 502.156 291.982 502.6 292.552C503.044 293.116 503.338 293.785 503.482 294.559L502.096 294.811C502.006 294.247 501.799 293.758 501.475 293.344C501.151 292.93 500.737 292.612 500.233 292.39C499.735 292.162 499.186 292.045 498.586 292.039C498.004 292.039 497.485 292.138 497.029 292.336C496.579 292.528 496.222 292.792 495.958 293.128C495.694 293.464 495.562 293.848 495.562 294.28C495.562 294.718 495.682 295.069 495.922 295.333C496.168 295.597 496.468 295.804 496.822 295.954C497.182 296.104 497.53 296.227 497.866 296.323L500.404 297.07C500.668 297.142 500.977 297.247 501.331 297.385C501.691 297.517 502.039 297.709 502.375 297.961C502.717 298.207 502.999 298.531 503.221 298.933C503.443 299.335 503.554 299.845 503.554 300.463C503.554 301.063 503.434 301.6 503.194 302.074C502.96 302.548 502.627 302.947 502.195 303.271C501.769 303.595 501.268 303.841 500.692 304.009C500.122 304.183 499.498 304.27 498.82 304.27ZM505.411 304V291.04H506.734V296.881H513.898V291.04H515.212V304H513.898V298.15H506.734V304H505.411ZM517.914 304V291.04H519.237V304H517.914ZM521.935 304V291.04H526.939C527.065 291.04 527.206 291.046 527.362 291.058C527.524 291.064 527.686 291.082 527.848 291.112C528.526 291.214 529.099 291.451 529.567 291.823C530.041 292.189 530.398 292.651 530.638 293.209C530.884 293.767 531.007 294.385 531.007 295.063C531.007 295.735 530.884 296.35 530.638 296.908C530.392 297.466 530.032 297.931 529.558 298.303C529.09 298.669 528.52 298.903 527.848 299.005C527.686 299.029 527.524 299.047 527.362 299.059C527.206 299.071 527.065 299.077 526.939 299.077H523.258V304H521.935ZM523.258 297.817H526.903C527.011 297.817 527.137 297.811 527.281 297.799C527.425 297.787 527.566 297.766 527.704 297.736C528.148 297.64 528.511 297.457 528.793 297.187C529.081 296.917 529.294 296.596 529.432 296.224C529.576 295.852 529.648 295.465 529.648 295.063C529.648 294.661 529.576 294.274 529.432 293.902C529.294 293.524 529.081 293.2 528.793 292.93C528.511 292.66 528.148 292.477 527.704 292.381C527.566 292.351 527.425 292.333 527.281 292.327C527.137 292.315 527.011 292.309 526.903 292.309H523.258V297.817ZM537.298 304.27C536.392 304.27 535.576 304.12 534.85 303.82C534.13 303.514 533.533 303.082 533.059 302.524C532.591 301.966 532.285 301.303 532.141 300.535L533.491 300.31C533.707 301.15 534.163 301.81 534.859 302.29C535.555 302.764 536.386 303.001 537.352 303.001C537.988 303.001 538.558 302.902 539.062 302.704C539.566 302.5 539.962 302.212 540.25 301.84C540.538 301.468 540.682 301.027 540.682 300.517C540.682 300.181 540.622 299.896 540.502 299.662C540.382 299.422 540.223 299.224 540.025 299.068C539.827 298.912 539.611 298.783 539.377 298.681C539.143 298.573 538.915 298.486 538.693 298.42L535.408 297.439C535.012 297.325 534.646 297.181 534.31 297.007C533.974 296.827 533.68 296.614 533.428 296.368C533.182 296.116 532.99 295.822 532.852 295.486C532.714 295.15 532.645 294.766 532.645 294.334C532.645 293.602 532.837 292.969 533.221 292.435C533.605 291.901 534.13 291.49 534.796 291.202C535.462 290.914 536.221 290.773 537.073 290.779C537.937 290.779 538.708 290.932 539.386 291.238C540.07 291.544 540.634 291.982 541.078 292.552C541.522 293.116 541.816 293.785 541.96 294.559L540.574 294.811C540.484 294.247 540.277 293.758 539.953 293.344C539.629 292.93 539.215 292.612 538.711 292.39C538.213 292.162 537.664 292.045 537.064 292.039C536.482 292.039 535.963 292.138 535.507 292.336C535.057 292.528 534.7 292.792 534.436 293.128C534.172 293.464 534.04 293.848 534.04 294.28C534.04 294.718 534.16 295.069 534.4 295.333C534.646 295.597 534.946 295.804 535.3 295.954C535.66 296.104 536.008 296.227 536.344 296.323L538.882 297.07C539.146 297.142 539.455 297.247 539.809 297.385C540.169 297.517 540.517 297.709 540.853 297.961C541.195 298.207 541.477 298.531 541.699 298.933C541.921 299.335 542.032 299.845 542.032 300.463C542.032 301.063 541.912 301.6 541.672 302.074C541.438 302.548 541.105 302.947 540.673 303.271C540.247 303.595 539.746 303.841 539.17 304.009C538.6 304.183 537.976 304.27 537.298 304.27ZM46.3974 329L42.6534 316.04H44.0304L47.0634 326.741L50.0784 316.049L51.4644 316.04L54.4974 326.741L57.5124 316.04H58.8984L55.1634 329H53.8314L50.7714 318.371L47.7294 329H46.3974ZM60.4563 329V316.04H61.7793V321.881H68.9433V316.04H70.2573V329H68.9433V323.15H61.7793V329H60.4563ZM72.7786 329V316.04H80.8786V317.309H74.1016V321.791H79.7986V323.06H74.1016V327.731H80.8786V329H72.7786ZM83.0442 329V316.04H84.3762L91.5132 326.66V316.04H92.8452V329H91.5132L84.3762 318.371V329H83.0442ZM103.47 329.27C102.564 329.27 101.748 329.12 101.022 328.82C100.302 328.514 99.705 328.082 99.231 327.524C98.763 326.966 98.457 326.303 98.313 325.535L99.663 325.31C99.879 326.15 100.335 326.81 101.031 327.29C101.727 327.764 102.558 328.001 103.524 328.001C104.16 328.001 104.73 327.902 105.234 327.704C105.738 327.5 106.134 327.212 106.422 326.84C106.71 326.468 106.854 326.027 106.854 325.517C106.854 325.181 106.794 324.896 106.674 324.662C106.554 324.422 106.395 324.224 106.197 324.068C105.999 323.912 105.783 323.783 105.549 323.681C105.315 323.573 105.087 323.486 104.865 323.42L101.58 322.439C101.184 322.325 100.818 322.181 100.482 322.007C100.146 321.827 99.852 321.614 99.6 321.368C99.354 321.116 99.162 320.822 99.024 320.486C98.886 320.15 98.817 319.766 98.817 319.334C98.817 318.602 99.009 317.969 99.393 317.435C99.777 316.901 100.302 316.49 100.968 316.202C101.634 315.914 102.393 315.773 103.245 315.779C104.109 315.779 104.88 315.932 105.558 316.238C106.242 316.544 106.806 316.982 107.25 317.552C107.694 318.116 107.988 318.785 108.132 319.559L106.746 319.811C106.656 319.247 106.449 318.758 106.125 318.344C105.801 317.93 105.387 317.612 104.883 317.39C104.385 317.162 103.836 317.045 103.236 317.039C102.654 317.039 102.135 317.138 101.679 317.336C101.229 317.528 100.872 317.792 100.608 318.128C100.344 318.464 100.212 318.848 100.212 319.28C100.212 319.718 100.332 320.069 100.572 320.333C100.818 320.597 101.118 320.804 101.472 320.954C101.832 321.104 102.18 321.227 102.516 321.323L105.054 322.07C105.318 322.142 105.627 322.247 105.981 322.385C106.341 322.517 106.689 322.709 107.025 322.961C107.367 323.207 107.649 323.531 107.871 323.933C108.093 324.335 108.204 324.845 108.204 325.463C108.204 326.063 108.084 326.6 107.844 327.074C107.61 327.548 107.277 327.947 106.845 328.271C106.419 328.595 105.918 328.841 105.342 329.009C104.772 329.183 104.148 329.27 103.47 329.27ZM110.062 329V316.04H115.066C115.192 316.04 115.333 316.046 115.489 316.058C115.651 316.064 115.813 316.082 115.975 316.112C116.653 316.214 117.226 316.451 117.694 316.823C118.168 317.189 118.525 317.651 118.765 318.209C119.011 318.767 119.134 319.385 119.134 320.063C119.134 320.735 119.011 321.35 118.765 321.908C118.519 322.466 118.159 322.931 117.685 323.303C117.217 323.669 116.647 323.903 115.975 324.005C115.813 324.029 115.651 324.047 115.489 324.059C115.333 324.071 115.192 324.077 115.066 324.077H111.385V329H110.062ZM111.385 322.817H115.03C115.138 322.817 115.264 322.811 115.408 322.799C115.552 322.787 115.693 322.766 115.831 322.736C116.275 322.64 116.638 322.457 116.92 322.187C117.208 321.917 117.421 321.596 117.559 321.224C117.703 320.852 117.775 320.465 117.775 320.063C117.775 319.661 117.703 319.274 117.559 318.902C117.421 318.524 117.208 318.2 116.92 317.93C116.638 317.66 116.275 317.477 115.831 317.381C115.693 317.351 115.552 317.333 115.408 317.327C115.264 317.315 115.138 317.309 115.03 317.309H111.385V322.817ZM126.172 329.27C124.882 329.27 123.793 328.985 122.905 328.415C122.017 327.839 121.345 327.044 120.889 326.03C120.433 325.016 120.205 323.846 120.205 322.52C120.205 321.194 120.433 320.024 120.889 319.01C121.345 317.996 122.017 317.204 122.905 316.634C123.793 316.058 124.882 315.77 126.172 315.77C127.468 315.77 128.557 316.058 129.439 316.634C130.327 317.204 130.999 317.996 131.455 319.01C131.917 320.024 132.148 321.194 132.148 322.52C132.148 323.846 131.917 325.016 131.455 326.03C130.999 327.044 130.327 327.839 129.439 328.415C128.557 328.985 127.468 329.27 126.172 329.27ZM126.172 328.001C127.186 328.001 128.032 327.77 128.71 327.308C129.388 326.846 129.895 326.204 130.231 325.382C130.573 324.554 130.744 323.6 130.744 322.52C130.744 321.44 130.573 320.489 130.231 319.667C129.895 318.845 129.388 318.203 128.71 317.741C128.032 317.279 127.186 317.045 126.172 317.039C125.158 317.039 124.315 317.27 123.643 317.732C122.971 318.194 122.464 318.839 122.122 319.667C121.786 320.489 121.615 321.44 121.609 322.52C121.603 323.6 121.768 324.551 122.104 325.373C122.446 326.189 122.956 326.831 123.634 327.299C124.312 327.761 125.158 327.995 126.172 328.001ZM139.008 329.27C138.018 329.27 137.142 329.066 136.38 328.658C135.624 328.25 135.03 327.674 134.598 326.93C134.166 326.186 133.95 325.316 133.95 324.32V316.049L135.282 316.04V324.149C135.282 324.821 135.396 325.403 135.624 325.895C135.852 326.381 136.149 326.783 136.515 327.101C136.887 327.413 137.292 327.644 137.73 327.794C138.168 327.944 138.594 328.019 139.008 328.019C139.428 328.019 139.857 327.944 140.295 327.794C140.733 327.644 141.135 327.413 141.501 327.101C141.867 326.783 142.164 326.381 142.392 325.895C142.62 325.403 142.734 324.821 142.734 324.149V316.04H144.066V324.32C144.066 325.316 143.85 326.186 143.418 326.93C142.986 327.668 142.389 328.244 141.627 328.658C140.871 329.066 139.998 329.27 139.008 329.27ZM150.544 329.27C149.638 329.27 148.822 329.12 148.096 328.82C147.376 328.514 146.779 328.082 146.305 327.524C145.837 326.966 145.531 326.303 145.387 325.535L146.737 325.31C146.953 326.15 147.409 326.81 148.105 327.29C148.801 327.764 149.632 328.001 150.598 328.001C151.234 328.001 151.804 327.902 152.308 327.704C152.812 327.5 153.208 327.212 153.496 326.84C153.784 326.468 153.928 326.027 153.928 325.517C153.928 325.181 153.868 324.896 153.748 324.662C153.628 324.422 153.469 324.224 153.271 324.068C153.073 323.912 152.857 323.783 152.623 323.681C152.389 323.573 152.161 323.486 151.939 323.42L148.654 322.439C148.258 322.325 147.892 322.181 147.556 322.007C147.22 321.827 146.926 321.614 146.674 321.368C146.428 321.116 146.236 320.822 146.098 320.486C145.96 320.15 145.891 319.766 145.891 319.334C145.891 318.602 146.083 317.969 146.467 317.435C146.851 316.901 147.376 316.49 148.042 316.202C148.708 315.914 149.467 315.773 150.319 315.779C151.183 315.779 151.954 315.932 152.632 316.238C153.316 316.544 153.88 316.982 154.324 317.552C154.768 318.116 155.062 318.785 155.206 319.559L153.82 319.811C153.73 319.247 153.523 318.758 153.199 318.344C152.875 317.93 152.461 317.612 151.957 317.39C151.459 317.162 150.91 317.045 150.31 317.039C149.728 317.039 149.209 317.138 148.753 317.336C148.303 317.528 147.946 317.792 147.682 318.128C147.418 318.464 147.286 318.848 147.286 319.28C147.286 319.718 147.406 320.069 147.646 320.333C147.892 320.597 148.192 320.804 148.546 320.954C148.906 321.104 149.254 321.227 149.59 321.323L152.128 322.07C152.392 322.142 152.701 322.247 153.055 322.385C153.415 322.517 153.763 322.709 154.099 322.961C154.441 323.207 154.723 323.531 154.945 323.933C155.167 324.335 155.278 324.845 155.278 325.463C155.278 326.063 155.158 326.6 154.918 327.074C154.684 327.548 154.351 327.947 153.919 328.271C153.493 328.595 152.992 328.841 152.416 329.009C151.846 329.183 151.222 329.27 150.544 329.27ZM157.136 329V316.04H165.236V317.309H158.459V321.791H164.156V323.06H158.459V327.731H165.236V329H157.136ZM171.427 329.27C170.521 329.27 169.705 329.12 168.979 328.82C168.259 328.514 167.662 328.082 167.188 327.524C166.72 326.966 166.414 326.303 166.27 325.535L167.62 325.31C167.836 326.15 168.292 326.81 168.988 327.29C169.684 327.764 170.515 328.001 171.481 328.001C172.117 328.001 172.687 327.902 173.191 327.704C173.695 327.5 174.091 327.212 174.379 326.84C174.667 326.468 174.811 326.027 174.811 325.517C174.811 325.181 174.751 324.896 174.631 324.662C174.511 324.422 174.352 324.224 174.154 324.068C173.956 323.912 173.74 323.783 173.506 323.681C173.272 323.573 173.044 323.486 172.822 323.42L169.537 322.439C169.141 322.325 168.775 322.181 168.439 322.007C168.103 321.827 167.809 321.614 167.557 321.368C167.311 321.116 167.119 320.822 166.981 320.486C166.843 320.15 166.774 319.766 166.774 319.334C166.774 318.602 166.966 317.969 167.35 317.435C167.734 316.901 168.259 316.49 168.925 316.202C169.591 315.914 170.35 315.773 171.202 315.779C172.066 315.779 172.837 315.932 173.515 316.238C174.199 316.544 174.763 316.982 175.207 317.552C175.651 318.116 175.945 318.785 176.089 319.559L174.703 319.811C174.613 319.247 174.406 318.758 174.082 318.344C173.758 317.93 173.344 317.612 172.84 317.39C172.342 317.162 171.793 317.045 171.193 317.039C170.611 317.039 170.092 317.138 169.636 317.336C169.186 317.528 168.829 317.792 168.565 318.128C168.301 318.464 168.169 318.848 168.169 319.28C168.169 319.718 168.289 320.069 168.529 320.333C168.775 320.597 169.075 320.804 169.429 320.954C169.789 321.104 170.137 321.227 170.473 321.323L173.011 322.07C173.275 322.142 173.584 322.247 173.938 322.385C174.298 322.517 174.646 322.709 174.982 322.961C175.324 323.207 175.606 323.531 175.828 323.933C176.05 324.335 176.161 324.845 176.161 325.463C176.161 326.063 176.041 326.6 175.801 327.074C175.567 327.548 175.234 327.947 174.802 328.271C174.376 328.595 173.875 328.841 173.299 329.009C172.729 329.183 172.105 329.27 171.427 329.27ZM181.802 329V316.04H183.125V327.731H189.281V329H181.802ZM190.816 329V316.04H198.916V317.309H192.139V321.791H197.836V323.06H192.139V327.731H198.916V329H190.816ZM204.528 329V317.309H200.001V316.04H210.378V317.309H205.851V329H204.528ZM214.88 329V316.04H222.98V317.309H216.203V321.791H221.9V323.06H216.203V327.731H222.98V329H214.88ZM224.246 329L228.71 316.04H230.465L234.929 329H233.552L229.313 316.778H229.835L225.623 329H224.246ZM226.235 325.859V324.617H232.931V325.859H226.235ZM241.449 329.27C240.159 329.27 239.07 328.985 238.182 328.415C237.294 327.839 236.622 327.044 236.166 326.03C235.71 325.016 235.482 323.846 235.482 322.52C235.482 321.194 235.71 320.024 236.166 319.01C236.622 317.996 237.294 317.204 238.182 316.634C239.07 316.058 240.159 315.77 241.449 315.77C242.955 315.77 244.185 316.157 245.139 316.931C246.093 317.699 246.747 318.731 247.101 320.027L245.751 320.378C245.475 319.352 244.98 318.539 244.266 317.939C243.552 317.339 242.613 317.039 241.449 317.039C240.435 317.039 239.592 317.27 238.92 317.732C238.248 318.194 237.741 318.839 237.399 319.667C237.063 320.489 236.889 321.44 236.877 322.52C236.871 323.6 237.036 324.551 237.372 325.373C237.714 326.195 238.224 326.84 238.902 327.308C239.586 327.77 240.435 328.001 241.449 328.001C242.613 328.001 243.552 327.701 244.266 327.101C244.98 326.495 245.475 325.682 245.751 324.662L247.101 325.013C246.747 326.309 246.093 327.344 245.139 328.118C244.185 328.886 242.955 329.27 241.449 329.27ZM249.087 329V316.04H250.41V321.881H257.574V316.04H258.888V329H257.574V323.15H250.41V329H249.087ZM270.26 329.27C268.97 329.27 267.881 328.985 266.993 328.415C266.105 327.839 265.433 327.044 264.977 326.03C264.521 325.016 264.293 323.846 264.293 322.52C264.293 321.194 264.521 320.024 264.977 319.01C265.433 317.996 266.105 317.204 266.993 316.634C267.881 316.058 268.97 315.77 270.26 315.77C271.556 315.77 272.645 316.058 273.527 316.634C274.415 317.204 275.087 317.996 275.543 319.01C276.005 320.024 276.236 321.194 276.236 322.52C276.236 323.846 276.005 325.016 275.543 326.03C275.087 327.044 274.415 327.839 273.527 328.415C272.645 328.985 271.556 329.27 270.26 329.27ZM270.26 328.001C271.274 328.001 272.12 327.77 272.798 327.308C273.476 326.846 273.983 326.204 274.319 325.382C274.661 324.554 274.832 323.6 274.832 322.52C274.832 321.44 274.661 320.489 274.319 319.667C273.983 318.845 273.476 318.203 272.798 317.741C272.12 317.279 271.274 317.045 270.26 317.039C269.246 317.039 268.403 317.27 267.731 317.732C267.059 318.194 266.552 318.839 266.21 319.667C265.874 320.489 265.703 321.44 265.697 322.52C265.691 323.6 265.856 324.551 266.192 325.373C266.534 326.189 267.044 326.831 267.722 327.299C268.4 327.761 269.246 327.995 270.26 328.001ZM281.134 329V317.309H276.607V316.04H286.984V317.309H282.457V329H281.134ZM288.427 329V316.04H289.75V321.881H296.914V316.04H298.228V329H296.914V323.15H289.75V329H288.427ZM300.749 329V316.04H308.849V317.309H302.072V321.791H307.769V323.06H302.072V327.731H308.849V329H300.749ZM311.015 329V316.04H316.019C316.145 316.04 316.286 316.046 316.442 316.058C316.604 316.064 316.766 316.082 316.928 316.112C317.606 316.214 318.179 316.451 318.647 316.823C319.121 317.189 319.478 317.651 319.718 318.209C319.964 318.767 320.087 319.385 320.087 320.063C320.087 321.041 319.829 321.89 319.313 322.61C318.797 323.33 318.059 323.783 317.099 323.969L316.64 324.077H312.338V329H311.015ZM318.863 329L316.307 323.726L317.576 323.24L320.384 329H318.863ZM312.338 322.817H315.983C316.091 322.817 316.217 322.811 316.361 322.799C316.505 322.787 316.646 322.766 316.784 322.736C317.228 322.64 317.591 322.457 317.873 322.187C318.161 321.917 318.374 321.596 318.512 321.224C318.656 320.852 318.728 320.465 318.728 320.063C318.728 319.661 318.656 319.274 318.512 318.902C318.374 318.524 318.161 318.2 317.873 317.93C317.591 317.66 317.228 317.477 316.784 317.381C316.646 317.351 316.505 317.333 316.361 317.327C316.217 317.315 316.091 317.309 315.983 317.309H312.338V322.817ZM325.974 329V316.04H327.297V321.881H334.461V316.04H335.775V329H334.461V323.15H327.297V329H325.974ZM337.396 329L341.86 316.04H343.615L348.079 329H346.702L342.463 316.778H342.985L338.773 329H337.396ZM339.385 325.859V324.617H346.081V325.859H339.385ZM351.733 329L347.269 316.04H348.646L352.597 327.497L356.575 316.04H357.952L353.488 329H351.733ZM359.302 329V316.04H367.402V317.309H360.625V321.791H366.322V323.06H360.625V327.731H367.402V329H359.302ZM373.171 329V316.04H378.175C378.301 316.04 378.442 316.046 378.598 316.058C378.76 316.064 378.922 316.082 379.084 316.112C379.762 316.214 380.335 316.451 380.803 316.823C381.277 317.189 381.634 317.651 381.874 318.209C382.12 318.767 382.243 319.385 382.243 320.063C382.243 321.041 381.985 321.89 381.469 322.61C380.953 323.33 380.215 323.783 379.255 323.969L378.796 324.077H374.494V329H373.171ZM381.019 329L378.463 323.726L379.732 323.24L382.54 329H381.019ZM374.494 322.817H378.139C378.247 322.817 378.373 322.811 378.517 322.799C378.661 322.787 378.802 322.766 378.94 322.736C379.384 322.64 379.747 322.457 380.029 322.187C380.317 321.917 380.53 321.596 380.668 321.224C380.812 320.852 380.884 320.465 380.884 320.063C380.884 319.661 380.812 319.274 380.668 318.902C380.53 318.524 380.317 318.2 380.029 317.93C379.747 317.66 379.384 317.477 378.94 317.381C378.802 317.351 378.661 317.333 378.517 317.327C378.373 317.315 378.247 317.309 378.139 317.309H374.494V322.817ZM389.774 329.27C388.484 329.27 387.395 328.985 386.507 328.415C385.619 327.839 384.947 327.044 384.491 326.03C384.035 325.016 383.807 323.846 383.807 322.52C383.807 321.194 384.035 320.024 384.491 319.01C384.947 317.996 385.619 317.204 386.507 316.634C387.395 316.058 388.484 315.77 389.774 315.77C391.07 315.77 392.159 316.058 393.041 316.634C393.929 317.204 394.601 317.996 395.057 319.01C395.519 320.024 395.75 321.194 395.75 322.52C395.75 323.846 395.519 325.016 395.057 326.03C394.601 327.044 393.929 327.839 393.041 328.415C392.159 328.985 391.07 329.27 389.774 329.27ZM389.774 328.001C390.788 328.001 391.634 327.77 392.312 327.308C392.99 326.846 393.497 326.204 393.833 325.382C394.175 324.554 394.346 323.6 394.346 322.52C394.346 321.44 394.175 320.489 393.833 319.667C393.497 318.845 392.99 318.203 392.312 317.741C391.634 317.279 390.788 317.045 389.774 317.039C388.76 317.039 387.917 317.27 387.245 317.732C386.573 318.194 386.066 318.839 385.724 319.667C385.388 320.489 385.217 321.44 385.211 322.52C385.205 323.6 385.37 324.551 385.706 325.373C386.048 326.189 386.558 326.831 387.236 327.299C387.914 327.761 388.76 327.995 389.774 328.001ZM397.552 329V316.04H398.767L403.861 326.939L408.928 316.04H410.161V328.991H408.901V318.992L404.284 329H403.429L398.821 318.992V329H397.552ZM411.787 329L416.251 316.04H418.006L422.47 329H421.093L416.854 316.778H417.376L413.164 329H411.787ZM413.776 325.859V324.617H420.472V325.859H413.776ZM424.095 329V316.04H425.427L432.564 326.66V316.04H433.896V329H432.564L425.427 318.371V329H424.095ZM439.864 329V317.309H435.337V316.04H445.714V317.309H441.187V329H439.864ZM447.337 329V316.04H448.66V329H447.337ZM456.606 329.27C455.316 329.27 454.227 328.985 453.339 328.415C452.451 327.839 451.779 327.044 451.323 326.03C450.867 325.016 450.639 323.846 450.639 322.52C450.639 321.194 450.867 320.024 451.323 319.01C451.779 317.996 452.451 317.204 453.339 316.634C454.227 316.058 455.316 315.77 456.606 315.77C458.112 315.77 459.342 316.157 460.296 316.931C461.25 317.699 461.904 318.731 462.258 320.027L460.908 320.378C460.632 319.352 460.137 318.539 459.423 317.939C458.709 317.339 457.77 317.039 456.606 317.039C455.592 317.039 454.749 317.27 454.077 317.732C453.405 318.194 452.898 318.839 452.556 319.667C452.22 320.489 452.046 321.44 452.034 322.52C452.028 323.6 452.193 324.551 452.529 325.373C452.871 326.195 453.381 326.84 454.059 327.308C454.743 327.77 455.592 328.001 456.606 328.001C457.77 328.001 458.709 327.701 459.423 327.101C460.137 326.495 460.632 325.682 460.908 324.662L462.258 325.013C461.904 326.309 461.25 327.344 460.296 328.118C459.342 328.886 458.112 329.27 456.606 329.27ZM473.094 329.27C471.804 329.27 470.715 328.985 469.827 328.415C468.939 327.839 468.267 327.044 467.811 326.03C467.355 325.016 467.127 323.846 467.127 322.52C467.127 321.194 467.355 320.024 467.811 319.01C468.267 317.996 468.939 317.204 469.827 316.634C470.715 316.058 471.804 315.77 473.094 315.77C474.39 315.77 475.479 316.058 476.361 316.634C477.249 317.204 477.921 317.996 478.377 319.01C478.839 320.024 479.07 321.194 479.07 322.52C479.07 323.846 478.839 325.016 478.377 326.03C477.921 327.044 477.249 327.839 476.361 328.415C475.479 328.985 474.39 329.27 473.094 329.27ZM473.094 328.001C474.108 328.001 474.954 327.77 475.632 327.308C476.31 326.846 476.817 326.204 477.153 325.382C477.495 324.554 477.666 323.6 477.666 322.52C477.666 321.44 477.495 320.489 477.153 319.667C476.817 318.845 476.31 318.203 475.632 317.741C474.954 317.279 474.108 317.045 473.094 317.039C472.08 317.039 471.237 317.27 470.565 317.732C469.893 318.194 469.386 318.839 469.044 319.667C468.708 320.489 468.537 321.44 468.531 322.52C468.525 323.6 468.69 324.551 469.026 325.373C469.368 326.189 469.878 326.831 470.556 327.299C471.234 327.761 472.08 327.995 473.094 328.001ZM480.872 329V316.04H485.876C486.002 316.04 486.143 316.046 486.299 316.058C486.461 316.064 486.623 316.082 486.785 316.112C487.463 316.214 488.036 316.451 488.504 316.823C488.978 317.189 489.335 317.651 489.575 318.209C489.821 318.767 489.944 319.385 489.944 320.063C489.944 321.041 489.686 321.89 489.17 322.61C488.654 323.33 487.916 323.783 486.956 323.969L486.497 324.077H482.195V329H480.872ZM488.72 329L486.164 323.726L487.433 323.24L490.241 329H488.72ZM482.195 322.817H485.84C485.948 322.817 486.074 322.811 486.218 322.799C486.362 322.787 486.503 322.766 486.641 322.736C487.085 322.64 487.448 322.457 487.73 322.187C488.018 321.917 488.231 321.596 488.369 321.224C488.513 320.852 488.585 320.465 488.585 320.063C488.585 319.661 488.513 319.274 488.369 318.902C488.231 318.524 488.018 318.2 487.73 317.93C487.448 317.66 487.085 317.477 486.641 317.381C486.503 317.351 486.362 317.333 486.218 317.327C486.074 317.315 485.948 317.309 485.84 317.309H482.195V322.817ZM500.331 329.27C499.425 329.27 498.609 329.12 497.883 328.82C497.163 328.514 496.566 328.082 496.092 327.524C495.624 326.966 495.318 326.303 495.174 325.535L496.524 325.31C496.74 326.15 497.196 326.81 497.892 327.29C498.588 327.764 499.419 328.001 500.385 328.001C501.021 328.001 501.591 327.902 502.095 327.704C502.599 327.5 502.995 327.212 503.283 326.84C503.571 326.468 503.715 326.027 503.715 325.517C503.715 325.181 503.655 324.896 503.535 324.662C503.415 324.422 503.256 324.224 503.058 324.068C502.86 323.912 502.644 323.783 502.41 323.681C502.176 323.573 501.948 323.486 501.726 323.42L498.441 322.439C498.045 322.325 497.679 322.181 497.343 322.007C497.007 321.827 496.713 321.614 496.461 321.368C496.215 321.116 496.023 320.822 495.885 320.486C495.747 320.15 495.678 319.766 495.678 319.334C495.678 318.602 495.87 317.969 496.254 317.435C496.638 316.901 497.163 316.49 497.829 316.202C498.495 315.914 499.254 315.773 500.106 315.779C500.97 315.779 501.741 315.932 502.419 316.238C503.103 316.544 503.667 316.982 504.111 317.552C504.555 318.116 504.849 318.785 504.993 319.559L503.607 319.811C503.517 319.247 503.31 318.758 502.986 318.344C502.662 317.93 502.248 317.612 501.744 317.39C501.246 317.162 500.697 317.045 500.097 317.039C499.515 317.039 498.996 317.138 498.54 317.336C498.09 317.528 497.733 317.792 497.469 318.128C497.205 318.464 497.073 318.848 497.073 319.28C497.073 319.718 497.193 320.069 497.433 320.333C497.679 320.597 497.979 320.804 498.333 320.954C498.693 321.104 499.041 321.227 499.377 321.323L501.915 322.07C502.179 322.142 502.488 322.247 502.842 322.385C503.202 322.517 503.55 322.709 503.886 322.961C504.228 323.207 504.51 323.531 504.732 323.933C504.954 324.335 505.065 324.845 505.065 325.463C505.065 326.063 504.945 326.6 504.705 327.074C504.471 327.548 504.138 327.947 503.706 328.271C503.28 328.595 502.779 328.841 502.203 329.009C501.633 329.183 501.009 329.27 500.331 329.27ZM506.923 329V316.04H515.023V317.309H508.246V321.791H513.943V323.06H508.246V327.731H515.023V329H506.923ZM516.109 329L520.6 322.439L516.226 316.04H517.828L521.383 321.332L524.938 316.04H526.549L522.175 322.439L526.657 329H525.055L521.383 323.555L517.72 329H516.109ZM533.163 329.27C532.173 329.27 531.297 329.066 530.535 328.658C529.779 328.25 529.185 327.674 528.753 326.93C528.321 326.186 528.105 325.316 528.105 324.32V316.049L529.437 316.04V324.149C529.437 324.821 529.551 325.403 529.779 325.895C530.007 326.381 530.304 326.783 530.67 327.101C531.042 327.413 531.447 327.644 531.885 327.794C532.323 327.944 532.749 328.019 533.163 328.019C533.583 328.019 534.012 327.944 534.45 327.794C534.888 327.644 535.29 327.413 535.656 327.101C536.022 326.783 536.319 326.381 536.547 325.895C536.775 325.403 536.889 324.821 536.889 324.149V316.04H538.221V324.32C538.221 325.316 538.005 326.186 537.573 326.93C537.141 327.668 536.544 328.244 535.782 328.658C535.026 329.066 534.153 329.27 533.163 329.27ZM539.298 329L543.762 316.04H545.517L549.981 329H548.604L544.365 316.778H544.887L540.675 329H539.298ZM541.287 325.859V324.617H547.983V325.859H541.287ZM551.787 329V316.04H553.11V327.731H559.266V329H551.787ZM182.686 354V341.04H187.69C187.816 341.04 187.957 341.046 188.113 341.058C188.275 341.064 188.437 341.082 188.599 341.112C189.277 341.214 189.85 341.451 190.318 341.823C190.792 342.189 191.149 342.651 191.389 343.209C191.635 343.767 191.758 344.385 191.758 345.063C191.758 346.041 191.5 346.89 190.984 347.61C190.468 348.33 189.73 348.783 188.77 348.969L188.311 349.077H184.009V354H182.686ZM190.534 354L187.978 348.726L189.247 348.24L192.055 354H190.534ZM184.009 347.817H187.654C187.762 347.817 187.888 347.811 188.032 347.799C188.176 347.787 188.317 347.766 188.455 347.736C188.899 347.64 189.262 347.457 189.544 347.187C189.832 346.917 190.045 346.596 190.183 346.224C190.327 345.852 190.399 345.465 190.399 345.063C190.399 344.661 190.327 344.274 190.183 343.902C190.045 343.524 189.832 343.2 189.544 342.93C189.262 342.66 188.899 342.477 188.455 342.381C188.317 342.351 188.176 342.333 188.032 342.327C187.888 342.315 187.762 342.309 187.654 342.309H184.009V347.817ZM194.041 354V341.04H202.141V342.309H195.364V346.791H201.061V348.06H195.364V352.731H202.141V354H194.041ZM204.487 354V341.04H205.81V352.731H211.966V354H204.487ZM212.6 354L217.064 341.04H218.819L223.283 354H221.906L217.667 341.778H218.189L213.977 354H212.6ZM214.589 350.859V349.617H221.285V350.859H214.589ZM227.283 354V342.309H222.756V341.04H233.133V342.309H228.606V354H227.283ZM234.756 354V341.04H236.079V354H234.756ZM244.025 354.27C242.735 354.27 241.646 353.985 240.758 353.415C239.87 352.839 239.198 352.044 238.742 351.03C238.286 350.016 238.058 348.846 238.058 347.52C238.058 346.194 238.286 345.024 238.742 344.01C239.198 342.996 239.87 342.204 240.758 341.634C241.646 341.058 242.735 340.77 244.025 340.77C245.321 340.77 246.41 341.058 247.292 341.634C248.18 342.204 248.852 342.996 249.308 344.01C249.77 345.024 250.001 346.194 250.001 347.52C250.001 348.846 249.77 350.016 249.308 351.03C248.852 352.044 248.18 352.839 247.292 353.415C246.41 353.985 245.321 354.27 244.025 354.27ZM244.025 353.001C245.039 353.001 245.885 352.77 246.563 352.308C247.241 351.846 247.748 351.204 248.084 350.382C248.426 349.554 248.597 348.6 248.597 347.52C248.597 346.44 248.426 345.489 248.084 344.667C247.748 343.845 247.241 343.203 246.563 342.741C245.885 342.279 245.039 342.045 244.025 342.039C243.011 342.039 242.168 342.27 241.496 342.732C240.824 343.194 240.317 343.839 239.975 344.667C239.639 345.489 239.468 346.44 239.462 347.52C239.456 348.6 239.621 349.551 239.957 350.373C240.299 351.189 240.809 351.831 241.487 352.299C242.165 352.761 243.011 352.995 244.025 353.001ZM251.803 354V341.04H253.135L260.272 351.66V341.04H261.604V354H260.272L253.135 343.371V354H251.803ZM268.625 354.27C267.719 354.27 266.903 354.12 266.177 353.82C265.457 353.514 264.86 353.082 264.386 352.524C263.918 351.966 263.612 351.303 263.468 350.535L264.818 350.31C265.034 351.15 265.49 351.81 266.186 352.29C266.882 352.764 267.713 353.001 268.679 353.001C269.315 353.001 269.885 352.902 270.389 352.704C270.893 352.5 271.289 352.212 271.577 351.84C271.865 351.468 272.009 351.027 272.009 350.517C272.009 350.181 271.949 349.896 271.829 349.662C271.709 349.422 271.55 349.224 271.352 349.068C271.154 348.912 270.938 348.783 270.704 348.681C270.47 348.573 270.242 348.486 270.02 348.42L266.735 347.439C266.339 347.325 265.973 347.181 265.637 347.007C265.301 346.827 265.007 346.614 264.755 346.368C264.509 346.116 264.317 345.822 264.179 345.486C264.041 345.15 263.972 344.766 263.972 344.334C263.972 343.602 264.164 342.969 264.548 342.435C264.932 341.901 265.457 341.49 266.123 341.202C266.789 340.914 267.548 340.773 268.4 340.779C269.264 340.779 270.035 340.932 270.713 341.238C271.397 341.544 271.961 341.982 272.405 342.552C272.849 343.116 273.143 343.785 273.287 344.559L271.901 344.811C271.811 344.247 271.604 343.758 271.28 343.344C270.956 342.93 270.542 342.612 270.038 342.39C269.54 342.162 268.991 342.045 268.391 342.039C267.809 342.039 267.29 342.138 266.834 342.336C266.384 342.528 266.027 342.792 265.763 343.128C265.499 343.464 265.367 343.848 265.367 344.28C265.367 344.718 265.487 345.069 265.727 345.333C265.973 345.597 266.273 345.804 266.627 345.954C266.987 346.104 267.335 346.227 267.671 346.323L270.209 347.07C270.473 347.142 270.782 347.247 271.136 347.385C271.496 347.517 271.844 347.709 272.18 347.961C272.522 348.207 272.804 348.531 273.026 348.933C273.248 349.335 273.359 349.845 273.359 350.463C273.359 351.063 273.239 351.6 272.999 352.074C272.765 352.548 272.432 352.947 272 353.271C271.574 353.595 271.073 353.841 270.497 354.009C269.927 354.183 269.303 354.27 268.625 354.27ZM275.217 354V341.04H276.54V346.881H283.704V341.04H285.018V354H283.704V348.15H276.54V354H275.217ZM287.719 354V341.04H289.042V354H287.719ZM291.74 354V341.04H296.744C296.87 341.04 297.011 341.046 297.167 341.058C297.329 341.064 297.491 341.082 297.653 341.112C298.331 341.214 298.904 341.451 299.372 341.823C299.846 342.189 300.203 342.651 300.443 343.209C300.689 343.767 300.812 344.385 300.812 345.063C300.812 345.735 300.689 346.35 300.443 346.908C300.197 347.466 299.837 347.931 299.363 348.303C298.895 348.669 298.325 348.903 297.653 349.005C297.491 349.029 297.329 349.047 297.167 349.059C297.011 349.071 296.87 349.077 296.744 349.077H293.063V354H291.74ZM293.063 347.817H296.708C296.816 347.817 296.942 347.811 297.086 347.799C297.23 347.787 297.371 347.766 297.509 347.736C297.953 347.64 298.316 347.457 298.598 347.187C298.886 346.917 299.099 346.596 299.237 346.224C299.381 345.852 299.453 345.465 299.453 345.063C299.453 344.661 299.381 344.274 299.237 343.902C299.099 343.524 298.886 343.2 298.598 342.93C298.316 342.66 297.953 342.477 297.509 342.381C297.371 342.351 297.23 342.333 297.086 342.327C296.942 342.315 296.816 342.309 296.708 342.309H293.063V347.817ZM307.104 354.27C306.198 354.27 305.382 354.12 304.656 353.82C303.936 353.514 303.339 353.082 302.865 352.524C302.397 351.966 302.091 351.303 301.947 350.535L303.297 350.31C303.513 351.15 303.969 351.81 304.665 352.29C305.361 352.764 306.192 353.001 307.158 353.001C307.794 353.001 308.364 352.902 308.868 352.704C309.372 352.5 309.768 352.212 310.056 351.84C310.344 351.468 310.488 351.027 310.488 350.517C310.488 350.181 310.428 349.896 310.308 349.662C310.188 349.422 310.029 349.224 309.831 349.068C309.633 348.912 309.417 348.783 309.183 348.681C308.949 348.573 308.721 348.486 308.499 348.42L305.214 347.439C304.818 347.325 304.452 347.181 304.116 347.007C303.78 346.827 303.486 346.614 303.234 346.368C302.988 346.116 302.796 345.822 302.658 345.486C302.52 345.15 302.451 344.766 302.451 344.334C302.451 343.602 302.643 342.969 303.027 342.435C303.411 341.901 303.936 341.49 304.602 341.202C305.268 340.914 306.027 340.773 306.879 340.779C307.743 340.779 308.514 340.932 309.192 341.238C309.876 341.544 310.44 341.982 310.884 342.552C311.328 343.116 311.622 343.785 311.766 344.559L310.38 344.811C310.29 344.247 310.083 343.758 309.759 343.344C309.435 342.93 309.021 342.612 308.517 342.39C308.019 342.162 307.47 342.045 306.87 342.039C306.288 342.039 305.769 342.138 305.313 342.336C304.863 342.528 304.506 342.792 304.242 343.128C303.978 343.464 303.846 343.848 303.846 344.28C303.846 344.718 303.966 345.069 304.206 345.333C304.452 345.597 304.752 345.804 305.106 345.954C305.466 346.104 305.814 346.227 306.15 346.323L308.688 347.07C308.952 347.142 309.261 347.247 309.615 347.385C309.975 347.517 310.323 347.709 310.659 347.961C311.001 348.207 311.283 348.531 311.505 348.933C311.727 349.335 311.838 349.845 311.838 350.463C311.838 351.063 311.718 351.6 311.478 352.074C311.244 352.548 310.911 352.947 310.479 353.271C310.053 353.595 309.552 353.841 308.976 354.009C308.406 354.183 307.782 354.27 307.104 354.27ZM322.546 354.27C321.256 354.27 320.167 353.985 319.279 353.415C318.391 352.839 317.719 352.044 317.263 351.03C316.807 350.016 316.579 348.846 316.579 347.52C316.579 346.194 316.807 345.024 317.263 344.01C317.719 342.996 318.391 342.204 319.279 341.634C320.167 341.058 321.256 340.77 322.546 340.77C323.842 340.77 324.931 341.058 325.813 341.634C326.701 342.204 327.373 342.996 327.829 344.01C328.291 345.024 328.522 346.194 328.522 347.52C328.522 348.846 328.291 350.016 327.829 351.03C327.373 352.044 326.701 352.839 325.813 353.415C324.931 353.985 323.842 354.27 322.546 354.27ZM322.546 353.001C323.56 353.001 324.406 352.77 325.084 352.308C325.762 351.846 326.269 351.204 326.605 350.382C326.947 349.554 327.118 348.6 327.118 347.52C327.118 346.44 326.947 345.489 326.605 344.667C326.269 343.845 325.762 343.203 325.084 342.741C324.406 342.279 323.56 342.045 322.546 342.039C321.532 342.039 320.689 342.27 320.017 342.732C319.345 343.194 318.838 343.839 318.496 344.667C318.16 345.489 317.989 346.44 317.983 347.52C317.977 348.6 318.142 349.551 318.478 350.373C318.82 351.189 319.33 351.831 320.008 352.299C320.686 352.761 321.532 352.995 322.546 353.001ZM330.324 354V341.04H331.656L338.793 351.66V341.04H340.125V354H338.793L331.656 343.371V354H330.324ZM349.697 354V342.309H345.17V341.04H355.547V342.309H351.02V354H349.697ZM356.99 354V341.04H358.313V346.881H365.477V341.04H366.791V354H365.477V348.15H358.313V354H356.99ZM369.313 354V341.04H377.413V342.309H370.636V346.791H376.333V348.06H370.636V352.731H377.413V354H369.313ZM387.682 354.27C386.776 354.27 385.96 354.12 385.234 353.82C384.514 353.514 383.917 353.082 383.443 352.524C382.975 351.966 382.669 351.303 382.525 350.535L383.875 350.31C384.091 351.15 384.547 351.81 385.243 352.29C385.939 352.764 386.77 353.001 387.736 353.001C388.372 353.001 388.942 352.902 389.446 352.704C389.95 352.5 390.346 352.212 390.634 351.84C390.922 351.468 391.066 351.027 391.066 350.517C391.066 350.181 391.006 349.896 390.886 349.662C390.766 349.422 390.607 349.224 390.409 349.068C390.211 348.912 389.995 348.783 389.761 348.681C389.527 348.573 389.299 348.486 389.077 348.42L385.792 347.439C385.396 347.325 385.03 347.181 384.694 347.007C384.358 346.827 384.064 346.614 383.812 346.368C383.566 346.116 383.374 345.822 383.236 345.486C383.098 345.15 383.029 344.766 383.029 344.334C383.029 343.602 383.221 342.969 383.605 342.435C383.989 341.901 384.514 341.49 385.18 341.202C385.846 340.914 386.605 340.773 387.457 340.779C388.321 340.779 389.092 340.932 389.77 341.238C390.454 341.544 391.018 341.982 391.462 342.552C391.906 343.116 392.2 343.785 392.344 344.559L390.958 344.811C390.868 344.247 390.661 343.758 390.337 343.344C390.013 342.93 389.599 342.612 389.095 342.39C388.597 342.162 388.048 342.045 387.448 342.039C386.866 342.039 386.347 342.138 385.891 342.336C385.441 342.528 385.084 342.792 384.82 343.128C384.556 343.464 384.424 343.848 384.424 344.28C384.424 344.718 384.544 345.069 384.784 345.333C385.03 345.597 385.33 345.804 385.684 345.954C386.044 346.104 386.392 346.227 386.728 346.323L389.266 347.07C389.53 347.142 389.839 347.247 390.193 347.385C390.553 347.517 390.901 347.709 391.237 347.961C391.579 348.207 391.861 348.531 392.083 348.933C392.305 349.335 392.416 349.845 392.416 350.463C392.416 351.063 392.296 351.6 392.056 352.074C391.822 352.548 391.489 352.947 391.057 353.271C390.631 353.595 390.13 353.841 389.554 354.009C388.984 354.183 388.36 354.27 387.682 354.27ZM394.454 354V341.04H395.777V354H394.454ZM398.475 354V341.04H402.408C402.546 341.04 402.78 341.043 403.11 341.049C403.446 341.055 403.767 341.079 404.073 341.121C405.057 341.259 405.879 341.625 406.539 342.219C407.199 342.813 407.694 343.569 408.024 344.487C408.354 345.405 408.519 346.416 408.519 347.52C408.519 348.624 408.354 349.635 408.024 350.553C407.694 351.471 407.199 352.227 406.539 352.821C405.879 353.415 405.057 353.781 404.073 353.919C403.773 353.955 403.452 353.979 403.11 353.991C402.768 353.997 402.534 354 402.408 354H398.475ZM399.843 352.731H402.408C402.654 352.731 402.918 352.725 403.2 352.713C403.488 352.695 403.734 352.665 403.938 352.623C404.694 352.491 405.303 352.185 405.765 351.705C406.233 351.225 406.575 350.625 406.791 349.905C407.007 349.179 407.115 348.384 407.115 347.52C407.115 346.65 407.007 345.852 406.791 345.126C406.575 344.4 406.233 343.8 405.765 343.326C405.297 342.852 404.688 342.549 403.938 342.417C403.734 342.375 403.485 342.348 403.191 342.336C402.903 342.318 402.642 342.309 402.408 342.309H399.843V352.731ZM410.569 354V341.04H418.669V342.309H411.892V346.791H417.589V348.06H411.892V352.731H418.669V354H410.569Z" fill="white"></path> <defs> <linearGradient id="paint0_linear_136_324" x1="300" y1="0" x2="300" y2="400" gradientUnits="userSpaceOnUse"> <stop stop-color="#A91F49"></stop> <stop offset="1" stop-color="#7E0046"></stop> </linearGradient> </defs> </svg> 