<?xml version="1.0" encoding="UTF-8"?> <svg xmlns="http://www.w3.org/2000/svg" width="600" height="400" viewBox="0 0 600 400" fill="none"> <rect width="600" height="400" rx="20" fill="url(#paint0_linear_136_328)"></rect> <path d="M133.07 193V177.16H138.119C138.251 177.16 138.512 177.164 138.9 177.171C139.296 177.178 139.678 177.204 140.044 177.248C141.298 177.409 142.358 177.857 143.223 178.59C144.096 179.316 144.756 180.244 145.203 181.373C145.651 182.502 145.874 183.738 145.874 185.08C145.874 186.422 145.651 187.658 145.203 188.787C144.756 189.916 144.096 190.848 143.223 191.581C142.358 192.307 141.298 192.751 140.044 192.912C139.685 192.956 139.307 192.982 138.911 192.989C138.515 192.996 138.251 193 138.119 193H133.07ZM135.765 190.503H138.119C138.339 190.503 138.618 190.496 138.955 190.481C139.3 190.466 139.604 190.433 139.868 190.382C140.616 190.243 141.225 189.909 141.694 189.381C142.164 188.853 142.508 188.211 142.728 187.456C142.956 186.701 143.069 185.909 143.069 185.08C143.069 184.222 142.956 183.415 142.728 182.66C142.501 181.905 142.149 181.27 141.672 180.757C141.203 180.244 140.602 179.917 139.868 179.778C139.604 179.719 139.3 179.686 138.955 179.679C138.618 179.664 138.339 179.657 138.119 179.657H135.765V190.503ZM155.174 193.33C153.59 193.33 152.233 192.985 151.104 192.296C149.974 191.599 149.105 190.631 148.497 189.392C147.895 188.153 147.595 186.715 147.595 185.08C147.595 183.445 147.895 182.007 148.497 180.768C149.105 179.529 149.974 178.564 151.104 177.875C152.233 177.178 153.59 176.83 155.174 176.83C156.758 176.83 158.114 177.178 159.244 177.875C160.38 178.564 161.249 179.529 161.851 180.768C162.459 182.007 162.764 183.445 162.764 185.08C162.764 186.715 162.459 188.153 161.851 189.392C161.249 190.631 160.38 191.599 159.244 192.296C158.114 192.985 156.758 193.33 155.174 193.33ZM155.174 190.833C156.237 190.84 157.121 190.606 157.825 190.129C158.536 189.652 159.068 188.981 159.42 188.116C159.779 187.251 159.959 186.239 159.959 185.08C159.959 183.921 159.779 182.917 159.42 182.066C159.068 181.208 158.536 180.541 157.825 180.064C157.121 179.587 156.237 179.342 155.174 179.327C154.11 179.32 153.227 179.554 152.523 180.031C151.819 180.508 151.287 181.179 150.928 182.044C150.576 182.909 150.4 183.921 150.4 185.08C150.4 186.239 150.576 187.247 150.928 188.105C151.28 188.956 151.808 189.619 152.512 190.096C153.223 190.573 154.11 190.818 155.174 190.833ZM169.357 193V177.16H178.894V179.811H172.008V183.76H177.574V186.4H172.008V193H169.357ZM180.873 193V177.16H187.418C187.572 177.16 187.77 177.167 188.012 177.182C188.254 177.189 188.478 177.211 188.683 177.248C189.6 177.387 190.355 177.692 190.949 178.161C191.55 178.63 191.994 179.224 192.28 179.943C192.573 180.654 192.72 181.446 192.72 182.319C192.72 183.61 192.394 184.721 191.741 185.652C191.088 186.576 190.087 187.148 188.738 187.368L187.605 187.467H183.524V193H180.873ZM189.97 193L186.846 186.554L189.541 185.96L192.973 193H189.97ZM183.524 184.992H187.308C187.455 184.992 187.62 184.985 187.803 184.97C187.986 184.955 188.155 184.926 188.309 184.882C188.749 184.772 189.094 184.578 189.343 184.299C189.6 184.02 189.779 183.705 189.882 183.353C189.992 183.001 190.047 182.656 190.047 182.319C190.047 181.982 189.992 181.637 189.882 181.285C189.779 180.926 189.6 180.607 189.343 180.328C189.094 180.049 188.749 179.855 188.309 179.745C188.155 179.701 187.986 179.675 187.803 179.668C187.62 179.653 187.455 179.646 187.308 179.646H183.524V184.992ZM195.616 193V177.16H198.267V193H195.616ZM201.562 193V177.16H211.792V179.646H204.213V183.551H210.472V186.037H204.213V190.514H211.792V193H201.562ZM214.432 193V177.16H217.116L224.464 188.325V177.16H227.148V193H224.464L217.116 181.835V193H214.432ZM230.223 193V177.16H235.272C235.404 177.16 235.664 177.164 236.053 177.171C236.449 177.178 236.83 177.204 237.197 177.248C238.451 177.409 239.51 177.857 240.376 178.59C241.248 179.316 241.908 180.244 242.356 181.373C242.803 182.502 243.027 183.738 243.027 185.08C243.027 186.422 242.803 187.658 242.356 188.787C241.908 189.916 241.248 190.848 240.376 191.581C239.51 192.307 238.451 192.751 237.197 192.912C236.837 192.956 236.46 192.982 236.064 192.989C235.668 192.996 235.404 193 235.272 193H230.223ZM232.918 190.503H235.272C235.492 190.503 235.77 190.496 236.108 190.481C236.452 190.466 236.757 190.433 237.021 190.382C237.769 190.243 238.377 189.909 238.847 189.381C239.316 188.853 239.661 188.211 239.881 187.456C240.108 186.701 240.222 185.909 240.222 185.08C240.222 184.222 240.108 183.415 239.881 182.66C239.653 181.905 239.301 181.27 238.825 180.757C238.355 180.244 237.754 179.917 237.021 179.778C236.757 179.719 236.452 179.686 236.108 179.679C235.77 179.664 235.492 179.657 235.272 179.657H232.918V190.503ZM251.49 193.33C250.331 193.33 249.286 193.128 248.355 192.725C247.431 192.322 246.668 191.746 246.067 190.998C245.473 190.243 245.095 189.348 244.934 188.314L247.684 187.896C247.919 188.835 248.399 189.561 249.125 190.074C249.858 190.587 250.702 190.844 251.655 190.844C252.22 190.844 252.751 190.756 253.25 190.58C253.749 190.404 254.152 190.147 254.46 189.81C254.775 189.473 254.933 189.058 254.933 188.567C254.933 188.347 254.896 188.145 254.823 187.962C254.75 187.771 254.64 187.603 254.493 187.456C254.354 187.309 254.17 187.177 253.943 187.06C253.723 186.935 253.466 186.829 253.173 186.741L249.081 185.531C248.729 185.428 248.348 185.293 247.937 185.124C247.534 184.948 247.149 184.71 246.782 184.409C246.423 184.101 246.126 183.712 245.891 183.243C245.664 182.766 245.55 182.18 245.55 181.483C245.55 180.464 245.807 179.609 246.32 178.92C246.841 178.223 247.537 177.703 248.41 177.358C249.29 177.013 250.265 176.845 251.336 176.852C252.421 176.859 253.389 177.046 254.24 177.413C255.091 177.772 255.802 178.297 256.374 178.986C256.946 179.675 257.349 180.508 257.584 181.483L254.735 181.978C254.618 181.421 254.39 180.948 254.053 180.559C253.723 180.163 253.316 179.862 252.832 179.657C252.355 179.452 251.846 179.342 251.303 179.327C250.775 179.32 250.284 179.4 249.829 179.569C249.382 179.73 249.019 179.965 248.74 180.273C248.469 180.581 248.333 180.94 248.333 181.351C248.333 181.74 248.45 182.059 248.685 182.308C248.92 182.55 249.209 182.744 249.554 182.891C249.906 183.03 250.262 183.148 250.621 183.243L253.459 184.035C253.848 184.138 254.284 184.277 254.768 184.453C255.252 184.629 255.718 184.875 256.165 185.19C256.612 185.505 256.979 185.92 257.265 186.433C257.558 186.946 257.705 187.599 257.705 188.391C257.705 189.212 257.533 189.935 257.188 190.558C256.851 191.174 256.392 191.687 255.813 192.098C255.234 192.509 254.57 192.817 253.822 193.022C253.081 193.227 252.304 193.33 251.49 193.33ZM260.086 193V177.16H262.737V183.826H270.239V177.16H272.879V193H270.239V186.312H262.737V193H260.086ZM276.183 193V177.16H278.834V193H276.183ZM282.129 193V177.16H288.674C288.828 177.16 289.026 177.167 289.268 177.182C289.51 177.189 289.734 177.211 289.939 177.248C290.856 177.387 291.611 177.692 292.205 178.161C292.806 178.63 293.25 179.224 293.536 179.943C293.829 180.654 293.976 181.446 293.976 182.319C293.976 183.184 293.829 183.976 293.536 184.695C293.243 185.406 292.795 185.997 292.194 186.466C291.6 186.935 290.848 187.24 289.939 187.379C289.734 187.408 289.506 187.43 289.257 187.445C289.015 187.46 288.821 187.467 288.674 187.467H284.78V193H282.129ZM284.78 184.992H288.564C288.711 184.992 288.876 184.985 289.059 184.97C289.242 184.955 289.411 184.926 289.565 184.882C290.005 184.772 290.35 184.578 290.599 184.299C290.856 184.02 291.035 183.705 291.138 183.353C291.248 183.001 291.303 182.656 291.303 182.319C291.303 181.982 291.248 181.637 291.138 181.285C291.035 180.926 290.856 180.607 290.599 180.328C290.35 180.049 290.005 179.855 289.565 179.745C289.411 179.701 289.242 179.675 289.059 179.668C288.876 179.653 288.711 179.646 288.564 179.646H284.78V184.992ZM302.043 193.33C300.884 193.33 299.839 193.128 298.908 192.725C297.984 192.322 297.221 191.746 296.62 190.998C296.026 190.243 295.648 189.348 295.487 188.314L298.237 187.896C298.471 188.835 298.952 189.561 299.678 190.074C300.411 190.587 301.254 190.844 302.208 190.844C302.772 190.844 303.304 190.756 303.803 190.58C304.301 190.404 304.705 190.147 305.013 189.81C305.328 189.473 305.486 189.058 305.486 188.567C305.486 188.347 305.449 188.145 305.376 187.962C305.302 187.771 305.192 187.603 305.046 187.456C304.906 187.309 304.723 187.177 304.496 187.06C304.276 186.935 304.019 186.829 303.726 186.741L299.634 185.531C299.282 185.428 298.9 185.293 298.49 185.124C298.086 184.948 297.701 184.71 297.335 184.409C296.975 184.101 296.678 183.712 296.444 183.243C296.216 182.766 296.103 182.18 296.103 181.483C296.103 180.464 296.359 179.609 296.873 178.92C297.393 178.223 298.09 177.703 298.963 177.358C299.843 177.013 300.818 176.845 301.889 176.852C302.974 176.859 303.942 177.046 304.793 177.413C305.643 177.772 306.355 178.297 306.927 178.986C307.499 179.675 307.902 180.508 308.137 181.483L305.288 181.978C305.17 181.421 304.943 180.948 304.606 180.559C304.276 180.163 303.869 179.862 303.385 179.657C302.908 179.452 302.398 179.342 301.856 179.327C301.328 179.32 300.836 179.4 300.382 179.569C299.934 179.73 299.571 179.965 299.293 180.273C299.021 180.581 298.886 180.94 298.886 181.351C298.886 181.74 299.003 182.059 299.238 182.308C299.472 182.55 299.762 182.744 300.107 182.891C300.459 183.03 300.814 183.148 301.174 183.243L304.012 184.035C304.4 184.138 304.837 184.277 305.321 184.453C305.805 184.629 306.27 184.875 306.718 185.19C307.165 185.505 307.532 185.92 307.818 186.433C308.111 186.946 308.258 187.599 308.258 188.391C308.258 189.212 308.085 189.935 307.741 190.558C307.403 191.174 306.945 191.687 306.366 192.098C305.786 192.509 305.123 192.817 304.375 193.022C303.634 193.227 302.857 193.33 302.043 193.33ZM315.043 193V177.16H321.324C322.395 177.16 323.271 177.376 323.953 177.809C324.642 178.234 325.152 178.781 325.482 179.448C325.819 180.115 325.988 180.805 325.988 181.516C325.988 182.389 325.779 183.129 325.361 183.738C324.95 184.347 324.389 184.757 323.678 184.97V184.42C324.675 184.647 325.431 185.12 325.944 185.839C326.465 186.558 326.725 187.375 326.725 188.292C326.725 189.231 326.545 190.052 326.186 190.756C325.827 191.46 325.291 192.01 324.58 192.406C323.876 192.802 323.003 193 321.962 193H315.043ZM317.727 190.503H321.632C322.094 190.503 322.508 190.411 322.875 190.228C323.242 190.037 323.528 189.773 323.733 189.436C323.946 189.091 324.052 188.684 324.052 188.215C324.052 187.79 323.96 187.408 323.777 187.071C323.594 186.734 323.326 186.466 322.974 186.268C322.622 186.063 322.2 185.96 321.709 185.96H317.727V190.503ZM317.727 183.485H321.291C321.672 183.485 322.013 183.412 322.314 183.265C322.615 183.118 322.853 182.902 323.029 182.616C323.205 182.33 323.293 181.978 323.293 181.56C323.293 181.01 323.117 180.552 322.765 180.185C322.413 179.818 321.922 179.635 321.291 179.635H317.727V183.485ZM328.922 193V177.16H339.152V179.646H331.573V183.551H337.832V186.037H331.573V190.514H339.152V193H328.922ZM345.597 193V179.646H340.471V177.16H353.374V179.646H348.248V193H345.597ZM358.477 193L353.846 177.16H356.629L359.786 188.6L362.932 177.182L365.715 177.16L368.872 188.6L372.018 177.16H374.801L370.181 193H367.563L364.318 181.736L361.095 193H358.477ZM376.596 193V177.16H386.826V179.646H379.247V183.551H385.506V186.037H379.247V190.514H386.826V193H376.596ZM389.465 193V177.16H399.695V179.646H392.116V183.551H398.375V186.037H392.116V190.514H399.695V193H389.465ZM402.334 193V177.16H405.018L412.366 188.325V177.16H415.05V193H412.366L405.018 181.835V193H402.334ZM422.529 193V177.16H424.916L430.394 188.38L435.872 177.16H438.259V193H435.784V182.847L430.922 193H429.866L425.015 182.847V193H422.529ZM441.35 193V177.16H451.58V179.646H444.001V183.551H450.26V186.037H444.001V190.514H451.58V193H441.35ZM454.219 193V177.16H456.903L464.251 188.325V177.16H466.935V193H464.251L456.903 181.835V193H454.219ZM193.856 224L198.85 208.16H202.733L207.727 224H204.999L200.467 209.788H201.061L196.584 224H193.856ZM196.639 220.568V218.093H204.955V220.568H196.639ZM209.716 224V208.16H212.4L219.748 219.325V208.16H222.432V224H219.748L212.4 212.835V224H209.716ZM225.507 224V208.16H230.556C230.688 208.16 230.948 208.164 231.337 208.171C231.733 208.178 232.114 208.204 232.481 208.248C233.735 208.409 234.794 208.857 235.66 209.59C236.532 210.316 237.192 211.244 237.64 212.373C238.087 213.502 238.311 214.738 238.311 216.08C238.311 217.422 238.087 218.658 237.64 219.787C237.192 220.916 236.532 221.848 235.66 222.581C234.794 223.307 233.735 223.751 232.481 223.912C232.121 223.956 231.744 223.982 231.348 223.989C230.952 223.996 230.688 224 230.556 224H225.507ZM228.202 221.503H230.556C230.776 221.503 231.054 221.496 231.392 221.481C231.736 221.466 232.041 221.433 232.305 221.382C233.053 221.243 233.661 220.909 234.131 220.381C234.6 219.853 234.945 219.211 235.165 218.456C235.392 217.701 235.506 216.909 235.506 216.08C235.506 215.222 235.392 214.415 235.165 213.66C234.937 212.905 234.585 212.27 234.109 211.757C233.639 211.244 233.038 210.917 232.305 210.778C232.041 210.719 231.736 210.686 231.392 210.679C231.054 210.664 230.776 210.657 230.556 210.657H228.202V221.503ZM248.659 224L244.028 208.16H246.811L249.968 219.6L253.114 208.182L255.897 208.16L259.054 219.6L262.2 208.16H264.983L260.363 224H257.745L254.5 212.736L251.277 224H248.659ZM273.048 224.33C271.464 224.33 270.107 223.985 268.978 223.296C267.848 222.599 266.979 221.631 266.371 220.392C265.769 219.153 265.469 217.715 265.469 216.08C265.469 214.445 265.769 213.007 266.371 211.768C266.979 210.529 267.848 209.564 268.978 208.875C270.107 208.178 271.464 207.83 273.048 207.83C274.632 207.83 275.988 208.178 277.118 208.875C278.254 209.564 279.123 210.529 279.725 211.768C280.333 213.007 280.638 214.445 280.638 216.08C280.638 217.715 280.333 219.153 279.725 220.392C279.123 221.631 278.254 222.599 277.118 223.296C275.988 223.985 274.632 224.33 273.048 224.33ZM273.048 221.833C274.111 221.84 274.995 221.606 275.699 221.129C276.41 220.652 276.942 219.981 277.294 219.116C277.653 218.251 277.833 217.239 277.833 216.08C277.833 214.921 277.653 213.917 277.294 213.066C276.942 212.208 276.41 211.541 275.699 211.064C274.995 210.587 274.111 210.342 273.048 210.327C271.984 210.32 271.101 210.554 270.397 211.031C269.693 211.508 269.161 212.179 268.802 213.044C268.45 213.909 268.274 214.921 268.274 216.08C268.274 217.239 268.45 218.247 268.802 219.105C269.154 219.956 269.682 220.619 270.386 221.096C271.097 221.573 271.984 221.818 273.048 221.833ZM282.827 224V208.16H285.214L290.692 219.38L296.17 208.16H298.557V224H296.082V213.847L291.22 224H290.164L285.313 213.847V224H282.827ZM301.647 224V208.16H311.877V210.646H304.298V214.551H310.557V217.037H304.298V221.514H311.877V224H301.647ZM314.517 224V208.16H317.201L324.549 219.325V208.16H327.233V224H324.549L317.201 212.835V224H314.517ZM334.712 224V208.16H344.942V210.646H337.363V214.551H343.622V217.037H337.363V221.514H344.942V224H334.712ZM346.261 224L351.629 215.992L346.415 208.16H349.66L353.268 213.737L356.843 208.16H360.11L354.896 215.992L360.242 224H356.997L353.268 218.247L349.528 224H346.261ZM362.217 224V208.16H364.868V224H362.217ZM374.026 224.33C372.867 224.33 371.822 224.128 370.891 223.725C369.967 223.322 369.204 222.746 368.603 221.998C368.009 221.243 367.631 220.348 367.47 219.314L370.22 218.896C370.455 219.835 370.935 220.561 371.661 221.074C372.394 221.587 373.238 221.844 374.191 221.844C374.756 221.844 375.287 221.756 375.786 221.58C376.285 221.404 376.688 221.147 376.996 220.81C377.311 220.473 377.469 220.058 377.469 219.567C377.469 219.347 377.432 219.145 377.359 218.962C377.286 218.771 377.176 218.603 377.029 218.456C376.89 218.309 376.706 218.177 376.479 218.06C376.259 217.935 376.002 217.829 375.709 217.741L371.617 216.531C371.265 216.428 370.884 216.293 370.473 216.124C370.07 215.948 369.685 215.71 369.318 215.409C368.959 215.101 368.662 214.712 368.427 214.243C368.2 213.766 368.086 213.18 368.086 212.483C368.086 211.464 368.343 210.609 368.856 209.92C369.377 209.223 370.073 208.703 370.946 208.358C371.826 208.013 372.801 207.845 373.872 207.852C374.957 207.859 375.925 208.046 376.776 208.413C377.627 208.772 378.338 209.297 378.91 209.986C379.482 210.675 379.885 211.508 380.12 212.483L377.271 212.978C377.154 212.421 376.926 211.948 376.589 211.559C376.259 211.163 375.852 210.862 375.368 210.657C374.891 210.452 374.382 210.342 373.839 210.327C373.311 210.32 372.82 210.4 372.365 210.569C371.918 210.73 371.555 210.965 371.276 211.273C371.005 211.581 370.869 211.94 370.869 212.351C370.869 212.74 370.986 213.059 371.221 213.308C371.456 213.55 371.745 213.744 372.09 213.891C372.442 214.03 372.798 214.148 373.157 214.243L375.995 215.035C376.384 215.138 376.82 215.277 377.304 215.453C377.788 215.629 378.254 215.875 378.701 216.19C379.148 216.505 379.515 216.92 379.801 217.433C380.094 217.946 380.241 218.599 380.241 219.391C380.241 220.212 380.069 220.935 379.724 221.558C379.387 222.174 378.928 222.687 378.349 223.098C377.77 223.509 377.106 223.817 376.358 224.022C375.617 224.227 374.84 224.33 374.026 224.33ZM386.428 224V210.646H381.302V208.16H394.205V210.646H389.079V224H386.428ZM398.835 219.699C398.835 219.193 398.882 218.705 398.978 218.236C399.08 217.759 399.245 217.319 399.473 216.916C399.671 216.527 399.891 216.219 400.133 215.992C400.375 215.757 400.646 215.526 400.947 215.299C401.247 215.064 401.581 214.753 401.948 214.364C402.248 214.034 402.446 213.708 402.542 213.385C402.637 213.055 402.685 212.703 402.685 212.329C402.685 212.087 402.659 211.86 402.608 211.647C402.556 211.434 402.465 211.251 402.333 211.097C402.127 210.826 401.863 210.635 401.541 210.525C401.218 210.408 400.873 210.349 400.507 210.349C400.206 210.349 399.916 210.389 399.638 210.47C399.366 210.543 399.135 210.661 398.945 210.822C398.725 210.998 398.563 211.214 398.461 211.471C398.358 211.728 398.31 212.01 398.318 212.318H395.524C395.597 211.585 395.795 210.906 396.118 210.283C396.448 209.652 396.88 209.15 397.416 208.776C397.834 208.468 398.303 208.237 398.824 208.083C399.352 207.929 399.88 207.852 400.408 207.852C401.214 207.852 401.973 207.977 402.685 208.226C403.403 208.475 404.001 208.886 404.478 209.458C404.808 209.832 405.057 210.265 405.226 210.756C405.402 211.247 405.49 211.746 405.49 212.252C405.49 213.007 405.325 213.697 404.995 214.32C404.672 214.943 404.261 215.519 403.763 216.047C403.528 216.296 403.304 216.516 403.092 216.707C402.879 216.898 402.681 217.085 402.498 217.268C402.322 217.444 402.175 217.631 402.058 217.829C401.852 218.174 401.731 218.467 401.695 218.709C401.658 218.944 401.64 219.274 401.64 219.699H398.835ZM398.857 224V221.085H401.64V224H398.857Z" fill="white"></path> <rect x="20" y="20" width="143" height="40" rx="20" fill="white" fill-opacity="0.3"></rect> <path d="M33.2841 46V34.48H37.8361C37.9481 34.48 38.0814 34.4853 38.2361 34.496C38.3907 34.5013 38.5401 34.5173 38.6841 34.544C39.3081 34.64 39.8307 34.8533 40.2521 35.184C40.6787 35.5147 40.9987 35.9333 41.2121 36.44C41.4254 36.9413 41.5321 37.4987 41.5321 38.112C41.5321 39.0027 41.3001 39.776 40.8361 40.432C40.3721 41.0827 39.6921 41.4907 38.7961 41.656L38.2521 41.744H34.7081V46H33.2841ZM40.1401 46L37.8681 41.312L39.2761 40.88L41.7721 46H40.1401ZM34.7081 40.392H37.7881C37.8894 40.392 38.0041 40.3867 38.1321 40.376C38.2654 40.3653 38.3907 40.3467 38.5081 40.32C38.8761 40.2347 39.1747 40.08 39.4041 39.856C39.6387 39.6267 39.8094 39.36 39.9161 39.056C40.0227 38.7467 40.0761 38.432 40.0761 38.112C40.0761 37.792 40.0227 37.48 39.9161 37.176C39.8094 36.8667 39.6387 36.5973 39.4041 36.368C39.1747 36.1387 38.8761 35.984 38.5081 35.904C38.3907 35.872 38.2654 35.8533 38.1321 35.848C38.0041 35.8373 37.8894 35.832 37.7881 35.832H34.7081V40.392ZM43.5341 46V34.48H50.8141V35.832H44.9581V39.44H49.8541V40.792H44.9581V44.648H50.8141V46H43.5341ZM52.8972 46V34.48H54.3212V44.648H59.6652V46H52.8972ZM60.2184 46L64.0744 34.48H66.0584L69.9144 46H68.4344L64.8264 35.312H65.2744L61.6984 46H60.2184ZM62.0744 43.304V41.968H68.0584V43.304H62.0744ZM73.3614 46V35.832H69.4334V34.48H78.7134V35.832H74.7854V46H73.3614ZM80.1472 46V34.48H81.5712V46H80.1472ZM88.7076 46.24C87.5609 46.24 86.5876 45.9867 85.7876 45.48C84.9876 44.9733 84.3769 44.2693 83.9556 43.368C83.5396 42.4667 83.3316 41.424 83.3316 40.24C83.3316 39.056 83.5396 38.0133 83.9556 37.112C84.3769 36.2107 84.9876 35.5067 85.7876 35C86.5876 34.4933 87.5609 34.24 88.7076 34.24C89.8596 34.24 90.8356 34.4933 91.6356 35C92.4356 35.5067 93.0436 36.2107 93.4596 37.112C93.8756 38.0133 94.0836 39.056 94.0836 40.24C94.0836 41.424 93.8756 42.4667 93.4596 43.368C93.0436 44.2693 92.4356 44.9733 91.6356 45.48C90.8356 45.9867 89.8596 46.24 88.7076 46.24ZM88.7076 44.88C89.5662 44.8853 90.2809 44.6933 90.8516 44.304C91.4276 43.9093 91.8569 43.3627 92.1396 42.664C92.4276 41.9653 92.5716 41.1573 92.5716 40.24C92.5716 39.3173 92.4276 38.5093 92.1396 37.816C91.8569 37.1227 91.4276 36.5813 90.8516 36.192C90.2809 35.8027 89.5662 35.6053 88.7076 35.6C87.8489 35.5947 87.1342 35.7867 86.5636 36.176C85.9982 36.5653 85.5716 37.1093 85.2836 37.808C84.9956 38.5067 84.8489 39.3173 84.8436 40.24C84.8382 41.1573 84.9796 41.9627 85.2676 42.656C85.5556 43.3493 85.9849 43.8933 86.5556 44.288C87.1316 44.6773 87.8489 44.8747 88.7076 44.88ZM95.6903 46V34.48H97.1303L103.138 43.48V34.48H104.578V46H103.138L97.1303 36.992V46H95.6903ZM110.903 46.24C110.087 46.24 109.351 46.1013 108.695 45.824C108.045 45.5467 107.506 45.152 107.079 44.64C106.658 44.1227 106.383 43.512 106.255 42.808L107.727 42.576C107.914 43.3013 108.301 43.8693 108.887 44.28C109.479 44.6853 110.175 44.888 110.975 44.888C111.493 44.888 111.959 44.808 112.375 44.648C112.797 44.4827 113.13 44.248 113.375 43.944C113.621 43.64 113.743 43.28 113.743 42.864C113.743 42.608 113.698 42.3893 113.607 42.208C113.522 42.0213 113.402 41.864 113.247 41.736C113.098 41.6027 112.927 41.4907 112.735 41.4C112.543 41.3093 112.343 41.2347 112.135 41.176L109.199 40.304C108.879 40.208 108.57 40.088 108.271 39.944C107.973 39.7947 107.706 39.6107 107.471 39.392C107.237 39.168 107.05 38.9013 106.911 38.592C106.773 38.2773 106.703 37.9067 106.703 37.48C106.703 36.7973 106.879 36.216 107.231 35.736C107.589 35.2507 108.071 34.88 108.679 34.624C109.287 34.368 109.973 34.2427 110.735 34.248C111.509 34.2533 112.199 34.392 112.807 34.664C113.421 34.9307 113.927 35.3147 114.327 35.816C114.733 36.3173 115.005 36.9173 115.143 37.616L113.631 37.88C113.551 37.4107 113.373 37.008 113.095 36.672C112.823 36.3307 112.482 36.0693 112.071 35.888C111.661 35.7013 111.21 35.6053 110.719 35.6C110.25 35.5947 109.826 35.6693 109.447 35.824C109.069 35.9787 108.767 36.1947 108.543 36.472C108.319 36.744 108.207 37.0587 108.207 37.416C108.207 37.768 108.309 38.0533 108.511 38.272C108.714 38.4853 108.962 38.656 109.255 38.784C109.554 38.9067 109.845 39.008 110.127 39.088L112.319 39.72C112.57 39.7893 112.858 39.8853 113.183 40.008C113.514 40.1307 113.834 40.304 114.143 40.528C114.453 40.7467 114.709 41.04 114.911 41.408C115.114 41.7707 115.215 42.2293 115.215 42.784C115.215 43.3387 115.103 43.832 114.879 44.264C114.661 44.696 114.354 45.0587 113.959 45.352C113.565 45.64 113.106 45.8587 112.583 46.008C112.061 46.1627 111.501 46.24 110.903 46.24ZM116.893 46V34.48H118.317V39.56H124.381V34.48H125.805V46H124.381V40.912H118.317V46H116.893ZM128.21 46V34.48H129.634V46H128.21ZM132.034 46V34.48H136.586C136.698 34.48 136.831 34.4853 136.986 34.496C137.141 34.5013 137.29 34.5173 137.434 34.544C138.058 34.64 138.581 34.8533 139.002 35.184C139.429 35.5147 139.749 35.9333 139.962 36.44C140.175 36.9413 140.282 37.4987 140.282 38.112C140.282 38.72 140.173 39.2773 139.954 39.784C139.741 40.2853 139.421 40.704 138.994 41.04C138.573 41.3707 138.053 41.584 137.434 41.68C137.29 41.7013 137.141 41.7173 136.986 41.728C136.831 41.7387 136.698 41.744 136.586 41.744H133.458V46H132.034ZM133.458 40.392H136.538C136.639 40.392 136.754 40.3867 136.882 40.376C137.015 40.3653 137.141 40.3467 137.258 40.32C137.626 40.2347 137.925 40.08 138.154 39.856C138.389 39.6267 138.559 39.36 138.666 39.056C138.773 38.7467 138.826 38.432 138.826 38.112C138.826 37.792 138.773 37.48 138.666 37.176C138.559 36.8667 138.389 36.5973 138.154 36.368C137.925 36.1387 137.626 35.984 137.258 35.904C137.141 35.872 137.015 35.8533 136.882 35.848C136.754 35.8373 136.639 35.832 136.538 35.832H133.458V40.392ZM145.966 46.24C145.15 46.24 144.414 46.1013 143.758 45.824C143.107 45.5467 142.568 45.152 142.142 44.64C141.72 44.1227 141.446 43.512 141.318 42.808L142.79 42.576C142.976 43.3013 143.363 43.8693 143.95 44.28C144.542 44.6853 145.238 44.888 146.038 44.888C146.555 44.888 147.022 44.808 147.438 44.648C147.859 44.4827 148.192 44.248 148.438 43.944C148.683 43.64 148.806 43.28 148.806 42.864C148.806 42.608 148.76 42.3893 148.67 42.208C148.584 42.0213 148.464 41.864 148.31 41.736C148.16 41.6027 147.99 41.4907 147.798 41.4C147.606 41.3093 147.406 41.2347 147.198 41.176L144.262 40.304C143.942 40.208 143.632 40.088 143.334 39.944C143.035 39.7947 142.768 39.6107 142.534 39.392C142.299 39.168 142.112 38.9013 141.974 38.592C141.835 38.2773 141.766 37.9067 141.766 37.48C141.766 36.7973 141.942 36.216 142.294 35.736C142.651 35.2507 143.134 34.88 143.742 34.624C144.35 34.368 145.035 34.2427 145.798 34.248C146.571 34.2533 147.262 34.392 147.87 34.664C148.483 34.9307 148.99 35.3147 149.39 35.816C149.795 36.3173 150.067 36.9173 150.206 37.616L148.694 37.88C148.614 37.4107 148.435 37.008 148.158 36.672C147.886 36.3307 147.544 36.0693 147.134 35.888C146.723 35.7013 146.272 35.6053 145.782 35.6C145.312 35.5947 144.888 35.6693 144.51 35.824C144.131 35.9787 143.83 36.1947 143.606 36.472C143.382 36.744 143.27 37.0587 143.27 37.416C143.27 37.768 143.371 38.0533 143.574 38.272C143.776 38.4853 144.024 38.656 144.318 38.784C144.616 38.9067 144.907 39.008 145.19 39.088L147.382 39.72C147.632 39.7893 147.92 39.8853 148.246 40.008C148.576 40.1307 148.896 40.304 149.206 40.528C149.515 40.7467 149.771 41.04 149.974 41.408C150.176 41.7707 150.278 42.2293 150.278 42.784C150.278 43.3387 150.166 43.832 149.942 44.264C149.723 44.696 149.416 45.0587 149.022 45.352C148.627 45.64 148.168 45.8587 147.646 46.008C147.123 46.1627 146.563 46.24 145.966 46.24Z" fill="white"></path> <defs> <linearGradient id="paint0_linear_136_328" x1="300" y1="0" x2="300" y2="400" gradientUnits="userSpaceOnUse"> <stop stop-color="#A91F49"></stop> <stop offset="1" stop-color="#7E0046"></stop> </linearGradient> </defs> </svg> 