<?xml version="1.0" encoding="UTF-8"?> <svg xmlns="http://www.w3.org/2000/svg" width="600" height="400" viewBox="0 0 600 400" fill="none"><rect width="600" height="400" rx="20" fill="#5C913B"></rect><path d="M54.424 162L49.793 146.16H52.576L55.733 157.6L58.879 146.182L61.662 146.16L64.819 157.6L67.965 146.16H70.748L66.128 162H63.51L60.265 150.736L57.042 162H54.424ZM69.8961 162L74.8901 146.16H78.7731L83.7671 162H81.0391L76.5071 147.788H77.1011L72.6241 162H69.8961ZM72.6791 158.568V156.093H80.9951V158.568H72.6791ZM91.1891 162.33C90.0305 162.33 88.9855 162.128 88.0541 161.725C87.1301 161.322 86.3675 160.746 85.7661 159.998C85.1721 159.243 84.7945 158.348 84.6331 157.314L87.3831 156.896C87.6178 157.835 88.0981 158.561 88.8241 159.074C89.5575 159.587 90.4008 159.844 91.3541 159.844C91.9188 159.844 92.4505 159.756 92.9491 159.58C93.4478 159.404 93.8511 159.147 94.1591 158.81C94.4745 158.473 94.6321 158.058 94.6321 157.567C94.6321 157.347 94.5955 157.145 94.5221 156.962C94.4488 156.771 94.3388 156.603 94.1921 156.456C94.0528 156.309 93.8695 156.177 93.6421 156.06C93.4221 155.935 93.1655 155.829 92.8721 155.741L88.7801 154.531C88.4281 154.428 88.0468 154.293 87.6361 154.124C87.2328 153.948 86.8478 153.71 86.4811 153.409C86.1218 153.101 85.8248 152.712 85.5901 152.243C85.3628 151.766 85.2491 151.18 85.2491 150.483C85.2491 149.464 85.5058 148.609 86.0191 147.92C86.5398 147.223 87.2365 146.703 88.1091 146.358C88.9891 146.013 89.9645 145.845 91.0351 145.852C92.1205 145.859 93.0885 146.046 93.9391 146.413C94.7898 146.772 95.5011 147.297 96.0731 147.986C96.6451 148.675 97.0485 149.508 97.2831 150.483L94.4341 150.978C94.3168 150.421 94.0895 149.948 93.7521 149.559C93.4221 149.163 93.0151 148.862 92.5311 148.657C92.0545 148.452 91.5448 148.342 91.0021 148.327C90.4741 148.32 89.9828 148.4 89.5281 148.569C89.0808 148.73 88.7178 148.965 88.4391 149.273C88.1678 149.581 88.0321 149.94 88.0321 150.351C88.0321 150.74 88.1495 151.059 88.3841 151.308C88.6188 151.55 88.9085 151.744 89.2531 151.891C89.6051 152.03 89.9608 152.148 90.3201 152.243L93.1581 153.035C93.5468 153.138 93.9831 153.277 94.4671 153.453C94.9511 153.629 95.4168 153.875 95.8641 154.19C96.3115 154.505 96.6781 154.92 96.9641 155.433C97.2575 155.946 97.4041 156.599 97.4041 157.391C97.4041 158.212 97.2318 158.935 96.8871 159.558C96.5498 160.174 96.0915 160.687 95.5121 161.098C94.9328 161.509 94.2691 161.817 93.5211 162.022C92.7805 162.227 92.0031 162.33 91.1891 162.33ZM107.995 162V148.646H102.869V146.16H115.772V148.646H110.646V162H107.995ZM117.531 162V146.16H120.182V152.826H127.684V146.16H130.324V162H127.684V155.312H120.182V162H117.531ZM133.408 162V146.16H143.638V148.646H136.059V152.551H142.318V155.037H136.059V159.514H143.638V162H133.408ZM146.277 162V146.16H152.822C152.976 146.16 153.174 146.167 153.416 146.182C153.658 146.189 153.882 146.211 154.087 146.248C155.004 146.387 155.759 146.692 156.353 147.161C156.955 147.63 157.398 148.224 157.684 148.943C157.978 149.654 158.124 150.446 158.124 151.319C158.124 152.61 157.798 153.721 157.145 154.652C156.493 155.576 155.492 156.148 154.142 156.368L153.009 156.467H148.928V162H146.277ZM155.374 162L152.25 155.554L154.945 154.96L158.377 162H155.374ZM148.928 153.992H152.712C152.859 153.992 153.024 153.985 153.207 153.97C153.391 153.955 153.559 153.926 153.713 153.882C154.153 153.772 154.498 153.578 154.747 153.299C155.004 153.02 155.184 152.705 155.286 152.353C155.396 152.001 155.451 151.656 155.451 151.319C155.451 150.982 155.396 150.637 155.286 150.285C155.184 149.926 155.004 149.607 154.747 149.328C154.498 149.049 154.153 148.855 153.713 148.745C153.559 148.701 153.391 148.675 153.207 148.668C153.024 148.653 152.859 148.646 152.712 148.646H148.928V153.992ZM160.801 162V146.16H171.031V148.646H163.452V152.551H169.711V155.037H163.452V159.514H171.031V162H160.801ZM176.974 162L181.968 146.16H185.851L190.845 162H188.117L183.585 147.788H184.179L179.702 162H176.974ZM179.757 158.568V156.093H188.073V158.568H179.757ZM197.238 162V146.16H203.783C203.937 146.16 204.135 146.167 204.377 146.182C204.619 146.189 204.843 146.211 205.048 146.248C205.965 146.387 206.72 146.692 207.314 147.161C207.916 147.63 208.359 148.224 208.645 148.943C208.939 149.654 209.085 150.446 209.085 151.319C209.085 152.61 208.759 153.721 208.106 154.652C207.454 155.576 206.453 156.148 205.103 156.368L203.97 156.467H199.889V162H197.238ZM206.335 162L203.211 155.554L205.906 154.96L209.338 162H206.335ZM199.889 153.992H203.673C203.82 153.992 203.985 153.985 204.168 153.97C204.352 153.955 204.52 153.926 204.674 153.882C205.114 153.772 205.459 153.578 205.708 153.299C205.965 153.02 206.145 152.705 206.247 152.353C206.357 152.001 206.412 151.656 206.412 151.319C206.412 150.982 206.357 150.637 206.247 150.285C206.145 149.926 205.965 149.607 205.708 149.328C205.459 149.049 205.114 148.855 204.674 148.745C204.52 148.701 204.352 148.675 204.168 148.668C203.985 148.653 203.82 148.646 203.673 148.646H199.889V153.992ZM218.461 162.33C216.877 162.33 215.52 161.985 214.391 161.296C213.261 160.599 212.392 159.631 211.784 158.392C211.182 157.153 210.882 155.715 210.882 154.08C210.882 152.445 211.182 151.007 211.784 149.768C212.392 148.529 213.261 147.564 214.391 146.875C215.52 146.178 216.877 145.83 218.461 145.83C220.045 145.83 221.401 146.178 222.531 146.875C223.667 147.564 224.536 148.529 225.138 149.768C225.746 151.007 226.051 152.445 226.051 154.08C226.051 155.715 225.746 157.153 225.138 158.392C224.536 159.631 223.667 160.599 222.531 161.296C221.401 161.985 220.045 162.33 218.461 162.33ZM218.461 159.833C219.524 159.84 220.408 159.606 221.112 159.129C221.823 158.652 222.355 157.981 222.707 157.116C223.066 156.251 223.246 155.239 223.246 154.08C223.246 152.921 223.066 151.917 222.707 151.066C222.355 150.208 221.823 149.541 221.112 149.064C220.408 148.587 219.524 148.342 218.461 148.327C217.397 148.32 216.514 148.554 215.81 149.031C215.106 149.508 214.574 150.179 214.215 151.044C213.863 151.909 213.687 152.921 213.687 154.08C213.687 155.239 213.863 156.247 214.215 157.105C214.567 157.956 215.095 158.619 215.799 159.096C216.51 159.573 217.397 159.818 218.461 159.833ZM234.62 162.33C233.359 162.33 232.248 162.073 231.287 161.56C230.334 161.047 229.586 160.324 229.043 159.393C228.508 158.462 228.24 157.369 228.24 156.115V146.182L230.924 146.16V156.049C230.924 156.643 231.023 157.175 231.221 157.644C231.427 158.113 231.702 158.513 232.046 158.843C232.391 159.166 232.787 159.411 233.234 159.58C233.682 159.749 234.144 159.833 234.62 159.833C235.112 159.833 235.577 159.749 236.017 159.58C236.465 159.404 236.861 159.155 237.205 158.832C237.55 158.502 237.821 158.102 238.019 157.633C238.217 157.164 238.316 156.636 238.316 156.049V146.16H241V156.115C241 157.369 240.729 158.462 240.186 159.393C239.651 160.324 238.903 161.047 237.942 161.56C236.989 162.073 235.882 162.33 234.62 162.33ZM247.88 162V148.646H242.754V146.16H255.657V148.646H250.531V162H247.88ZM257.636 162V146.16H260.287V162H257.636ZM263.582 162V146.16H266.266L273.614 157.325V146.16H276.298V162H273.614L266.266 150.835V162H263.582ZM279.373 162V146.16H289.603V148.646H282.024V152.551H288.283V155.037H282.024V159.514H289.603V162H279.373ZM303.345 162.33C301.761 162.33 300.405 161.985 299.275 161.296C298.146 160.599 297.277 159.631 296.668 158.392C296.067 157.153 295.766 155.715 295.766 154.08C295.766 152.445 296.067 151.007 296.668 149.768C297.277 148.529 298.146 147.564 299.275 146.875C300.405 146.178 301.761 145.83 303.345 145.83C304.929 145.83 306.286 146.178 307.415 146.875C308.552 147.564 309.421 148.529 310.022 149.768C310.631 151.007 310.935 152.445 310.935 154.08C310.935 155.715 310.631 157.153 310.022 158.392C309.421 159.631 308.552 160.599 307.415 161.296C306.286 161.985 304.929 162.33 303.345 162.33ZM303.345 159.833C304.409 159.84 305.292 159.606 305.996 159.129C306.708 158.652 307.239 157.981 307.591 157.116C307.951 156.251 308.13 155.239 308.13 154.08C308.13 152.921 307.951 151.917 307.591 151.066C307.239 150.208 306.708 149.541 305.996 149.064C305.292 148.587 304.409 148.342 303.345 148.327C302.282 148.32 301.398 148.554 300.694 149.031C299.99 149.508 299.459 150.179 299.099 151.044C298.747 151.909 298.571 152.921 298.571 154.08C298.571 155.239 298.747 156.247 299.099 157.105C299.451 157.956 299.979 158.619 300.683 159.096C301.395 159.573 302.282 159.818 303.345 159.833ZM313.125 162V146.16H319.67C319.824 146.16 320.022 146.167 320.264 146.182C320.506 146.189 320.73 146.211 320.935 146.248C321.852 146.387 322.607 146.692 323.201 147.161C323.802 147.63 324.246 148.224 324.532 148.943C324.825 149.654 324.972 150.446 324.972 151.319C324.972 152.61 324.646 153.721 323.993 154.652C323.34 155.576 322.339 156.148 320.99 156.368L319.857 156.467H315.776V162H313.125ZM322.222 162L319.098 155.554L321.793 154.96L325.225 162H322.222ZM315.776 153.992H319.56C319.707 153.992 319.872 153.985 320.055 153.97C320.238 153.955 320.407 153.926 320.561 153.882C321.001 153.772 321.346 153.578 321.595 153.299C321.852 153.02 322.031 152.705 322.134 152.353C322.244 152.001 322.299 151.656 322.299 151.319C322.299 150.982 322.244 150.637 322.134 150.285C322.031 149.926 321.852 149.607 321.595 149.328C321.346 149.049 321.001 148.855 320.561 148.745C320.407 148.701 320.238 148.675 320.055 148.668C319.872 148.653 319.707 148.646 319.56 148.646H315.776V153.992ZM332.053 162V146.16H334.704V152.826H342.206V146.16H344.846V162H342.206V155.312H334.704V162H332.053ZM346.83 162L351.824 146.16H355.707L360.701 162H357.973L353.441 147.788H354.035L349.558 162H346.83ZM349.613 158.568V156.093H357.929V158.568H349.613ZM362.689 162V146.16H368.97C370.041 146.16 370.917 146.376 371.599 146.809C372.289 147.234 372.798 147.781 373.128 148.448C373.466 149.115 373.634 149.805 373.634 150.516C373.634 151.389 373.425 152.129 373.007 152.738C372.597 153.347 372.036 153.757 371.324 153.97V153.42C372.322 153.647 373.077 154.12 373.59 154.839C374.111 155.558 374.371 156.375 374.371 157.292C374.371 158.231 374.192 159.052 373.832 159.756C373.473 160.46 372.938 161.01 372.226 161.406C371.522 161.802 370.65 162 369.608 162H362.689ZM365.373 159.503H369.278C369.74 159.503 370.155 159.411 370.521 159.228C370.888 159.037 371.174 158.773 371.379 158.436C371.592 158.091 371.698 157.684 371.698 157.215C371.698 156.79 371.607 156.408 371.423 156.071C371.24 155.734 370.972 155.466 370.62 155.268C370.268 155.063 369.847 154.96 369.355 154.96H365.373V159.503ZM365.373 152.485H368.937C369.319 152.485 369.66 152.412 369.96 152.265C370.261 152.118 370.499 151.902 370.675 151.616C370.851 151.33 370.939 150.978 370.939 150.56C370.939 150.01 370.763 149.552 370.411 149.185C370.059 148.818 369.568 148.635 368.937 148.635H365.373V152.485ZM376.788 162V146.16H379.439V162H376.788ZM386.54 162V148.646H381.414V146.16H394.317V148.646H389.191V162H386.54ZM403.62 162V148.646H398.494V146.16H411.397V148.646H406.271V162H403.62ZM413.156 162V146.16H415.807V152.826H423.309V146.16H425.949V162H423.309V155.312H415.807V162H413.156ZM427.933 162L432.927 146.16H436.81L441.804 162H439.076L434.544 147.788H435.138L430.661 162H427.933ZM430.716 158.568V156.093H439.032V158.568H430.716ZM446.288 162V148.646H441.162V146.16H454.065V148.646H448.939V162H446.288ZM463.412 162V155.51L458.022 146.16H461.113L464.754 152.474L468.384 146.16H471.475L466.096 155.51V162H463.412ZM478.83 162.33C477.246 162.33 475.889 161.985 474.76 161.296C473.63 160.599 472.761 159.631 472.153 158.392C471.551 157.153 471.251 155.715 471.251 154.08C471.251 152.445 471.551 151.007 472.153 149.768C472.761 148.529 473.63 147.564 474.76 146.875C475.889 146.178 477.246 145.83 478.83 145.83C480.414 145.83 481.77 146.178 482.9 146.875C484.036 147.564 484.905 148.529 485.507 149.768C486.115 151.007 486.42 152.445 486.42 154.08C486.42 155.715 486.115 157.153 485.507 158.392C484.905 159.631 484.036 160.599 482.9 161.296C481.77 161.985 480.414 162.33 478.83 162.33ZM478.83 159.833C479.893 159.84 480.777 159.606 481.481 159.129C482.192 158.652 482.724 157.981 483.076 157.116C483.435 156.251 483.615 155.239 483.615 154.08C483.615 152.921 483.435 151.917 483.076 151.066C482.724 150.208 482.192 149.541 481.481 149.064C480.777 148.587 479.893 148.342 478.83 148.327C477.766 148.32 476.883 148.554 476.179 149.031C475.475 149.508 474.943 150.179 474.584 151.044C474.232 151.909 474.056 152.921 474.056 154.08C474.056 155.239 474.232 156.247 474.584 157.105C474.936 157.956 475.464 158.619 476.168 159.096C476.879 159.573 477.766 159.818 478.83 159.833ZM494.989 162.33C493.728 162.33 492.617 162.073 491.656 161.56C490.703 161.047 489.955 160.324 489.412 159.393C488.877 158.462 488.609 157.369 488.609 156.115V146.182L491.293 146.16V156.049C491.293 156.643 491.392 157.175 491.59 157.644C491.796 158.113 492.071 158.513 492.415 158.843C492.76 159.166 493.156 159.411 493.603 159.58C494.051 159.749 494.513 159.833 494.989 159.833C495.481 159.833 495.946 159.749 496.386 159.58C496.834 159.404 497.23 159.155 497.574 158.832C497.919 158.502 498.19 158.102 498.388 157.633C498.586 157.164 498.685 156.636 498.685 156.049V146.16H501.369V156.115C501.369 157.369 501.098 158.462 500.555 159.393C500.02 160.324 499.272 161.047 498.311 161.56C497.358 162.073 496.251 162.33 494.989 162.33ZM507.748 162L512.742 146.16H516.625L521.619 162H518.891L514.359 147.788H514.953L510.476 162H507.748ZM510.531 158.568V156.093H518.847V158.568H510.531ZM523.607 162V146.16H530.152C530.306 146.16 530.504 146.167 530.746 146.182C530.988 146.189 531.212 146.211 531.417 146.248C532.334 146.387 533.089 146.692 533.683 147.161C534.285 147.63 534.728 148.224 535.014 148.943C535.308 149.654 535.454 150.446 535.454 151.319C535.454 152.61 535.128 153.721 534.475 154.652C533.823 155.576 532.822 156.148 531.472 156.368L530.339 156.467H526.258V162H523.607ZM532.704 162L529.58 155.554L532.275 154.96L535.707 162H532.704ZM526.258 153.992H530.042C530.189 153.992 530.354 153.985 530.537 153.97C530.721 153.955 530.889 153.926 531.043 153.882C531.483 153.772 531.828 153.578 532.077 153.299C532.334 153.02 532.514 152.705 532.616 152.353C532.726 152.001 532.781 151.656 532.781 151.319C532.781 150.982 532.726 150.637 532.616 150.285C532.514 149.926 532.334 149.607 532.077 149.328C531.828 149.049 531.483 148.855 531.043 148.745C530.889 148.701 530.721 148.675 530.537 148.668C530.354 148.653 530.189 148.646 530.042 148.646H526.258V153.992ZM538.131 162V146.16H548.361V148.646H540.782V152.551H547.041V155.037H540.782V159.514H548.361V162H538.131ZM85.8825 193.33C84.7238 193.33 83.6788 193.128 82.7475 192.725C81.8235 192.322 81.0608 191.746 80.4595 190.998C79.8655 190.243 79.4878 189.348 79.3265 188.314L82.0765 187.896C82.3112 188.835 82.7915 189.561 83.5175 190.074C84.2508 190.587 85.0942 190.844 86.0475 190.844C86.6122 190.844 87.1438 190.756 87.6425 190.58C88.1412 190.404 88.5445 190.147 88.8525 189.81C89.1678 189.473 89.3255 189.058 89.3255 188.567C89.3255 188.347 89.2888 188.145 89.2155 187.962C89.1422 187.771 89.0322 187.603 88.8855 187.456C88.7462 187.309 88.5628 187.177 88.3355 187.06C88.1155 186.935 87.8588 186.829 87.5655 186.741L83.4735 185.531C83.1215 185.428 82.7402 185.293 82.3295 185.124C81.9262 184.948 81.5412 184.71 81.1745 184.409C80.8152 184.101 80.5182 183.712 80.2835 183.243C80.0562 182.766 79.9425 182.18 79.9425 181.483C79.9425 180.464 80.1992 179.609 80.7125 178.92C81.2332 178.223 81.9298 177.703 82.8025 177.358C83.6825 177.013 84.6578 176.845 85.7285 176.852C86.8138 176.859 87.7818 177.046 88.6325 177.413C89.4832 177.772 90.1945 178.297 90.7665 178.986C91.3385 179.675 91.7418 180.508 91.9765 181.483L89.1275 181.978C89.0102 181.421 88.7828 180.948 88.4455 180.559C88.1155 180.163 87.7085 179.862 87.2245 179.657C86.7478 179.452 86.2382 179.342 85.6955 179.327C85.1675 179.32 84.6762 179.4 84.2215 179.569C83.7742 179.73 83.4112 179.965 83.1325 180.273C82.8612 180.581 82.7255 180.94 82.7255 181.351C82.7255 181.74 82.8428 182.059 83.0775 182.308C83.3122 182.55 83.6018 182.744 83.9465 182.891C84.2985 183.03 84.6542 183.148 85.0135 183.243L87.8515 184.035C88.2402 184.138 88.6765 184.277 89.1605 184.453C89.6445 184.629 90.1102 184.875 90.5575 185.19C91.0048 185.505 91.3715 185.92 91.6575 186.433C91.9508 186.946 92.0975 187.599 92.0975 188.391C92.0975 189.212 91.9252 189.935 91.5805 190.558C91.2432 191.174 90.7848 191.687 90.2055 192.098C89.6262 192.509 88.9625 192.817 88.2145 193.022C87.4738 193.227 86.6965 193.33 85.8825 193.33ZM101.177 193.33C99.5935 193.33 98.2368 192.985 97.1075 192.296C95.9781 191.599 95.1091 190.631 94.5005 189.392C93.8991 188.153 93.5985 186.715 93.5985 185.08C93.5985 183.445 93.8991 182.007 94.5005 180.768C95.1091 179.529 95.9781 178.564 97.1075 177.875C98.2368 177.178 99.5935 176.83 101.177 176.83C102.761 176.83 104.118 177.178 105.247 177.875C106.384 178.564 107.253 179.529 107.854 180.768C108.463 182.007 108.767 183.445 108.767 185.08C108.767 186.715 108.463 188.153 107.854 189.392C107.253 190.631 106.384 191.599 105.247 192.296C104.118 192.985 102.761 193.33 101.177 193.33ZM101.177 190.833C102.241 190.84 103.124 190.606 103.828 190.129C104.54 189.652 105.071 188.981 105.423 188.116C105.783 187.251 105.962 186.239 105.962 185.08C105.962 183.921 105.783 182.917 105.423 182.066C105.071 181.208 104.54 180.541 103.828 180.064C103.124 179.587 102.241 179.342 101.177 179.327C100.114 179.32 99.2305 179.554 98.5265 180.031C97.8225 180.508 97.2908 181.179 96.9315 182.044C96.5795 182.909 96.4035 183.921 96.4035 185.08C96.4035 186.239 96.5795 187.247 96.9315 188.105C97.2835 188.956 97.8115 189.619 98.5155 190.096C99.2268 190.573 100.114 190.818 101.177 190.833ZM121.741 193.33C120.48 193.33 119.369 193.073 118.408 192.56C117.455 192.047 116.707 191.324 116.164 190.393C115.629 189.462 115.361 188.369 115.361 187.115V177.182L118.045 177.16V187.049C118.045 187.643 118.144 188.175 118.342 188.644C118.548 189.113 118.823 189.513 119.167 189.843C119.512 190.166 119.908 190.411 120.355 190.58C120.803 190.749 121.265 190.833 121.741 190.833C122.233 190.833 122.698 190.749 123.138 190.58C123.586 190.404 123.982 190.155 124.326 189.832C124.671 189.502 124.942 189.102 125.14 188.633C125.338 188.164 125.437 187.636 125.437 187.049V177.16H128.121V187.115C128.121 188.369 127.85 189.462 127.307 190.393C126.772 191.324 126.024 192.047 125.063 192.56C124.11 193.073 123.003 193.33 121.741 193.33ZM136.392 193.33C135.234 193.33 134.189 193.128 133.257 192.725C132.333 192.322 131.571 191.746 130.969 190.998C130.375 190.243 129.998 189.348 129.836 188.314L132.586 187.896C132.821 188.835 133.301 189.561 134.027 190.074C134.761 190.587 135.604 190.844 136.557 190.844C137.122 190.844 137.654 190.756 138.152 190.58C138.651 190.404 139.054 190.147 139.362 189.81C139.678 189.473 139.835 189.058 139.835 188.567C139.835 188.347 139.799 188.145 139.725 187.962C139.652 187.771 139.542 187.603 139.395 187.456C139.256 187.309 139.073 187.177 138.845 187.06C138.625 186.935 138.369 186.829 138.075 186.741L133.983 185.531C133.631 185.428 133.25 185.293 132.839 185.124C132.436 184.948 132.051 184.71 131.684 184.409C131.325 184.101 131.028 183.712 130.793 183.243C130.566 182.766 130.452 182.18 130.452 181.483C130.452 180.464 130.709 179.609 131.222 178.92C131.743 178.223 132.44 177.703 133.312 177.358C134.192 177.013 135.168 176.845 136.238 176.852C137.324 176.859 138.292 177.046 139.142 177.413C139.993 177.772 140.704 178.297 141.276 178.986C141.848 179.675 142.252 180.508 142.486 181.483L139.637 181.978C139.52 181.421 139.293 180.948 138.955 180.559C138.625 180.163 138.218 179.862 137.734 179.657C137.258 179.452 136.748 179.342 136.205 179.327C135.677 179.32 135.186 179.4 134.731 179.569C134.284 179.73 133.921 179.965 133.642 180.273C133.371 180.581 133.235 180.94 133.235 181.351C133.235 181.74 133.353 182.059 133.587 182.308C133.822 182.55 134.112 182.744 134.456 182.891C134.808 183.03 135.164 183.148 135.523 183.243L138.361 184.035C138.75 184.138 139.186 184.277 139.67 184.453C140.154 184.629 140.62 184.875 141.067 185.19C141.515 185.505 141.881 185.92 142.167 186.433C142.461 186.946 142.607 187.599 142.607 188.391C142.607 189.212 142.435 189.935 142.09 190.558C141.753 191.174 141.295 191.687 140.715 192.098C140.136 192.509 139.472 192.817 138.724 193.022C137.984 193.227 137.206 193.33 136.392 193.33ZM144.988 193V177.16H155.218V179.646H147.639V183.551H153.898V186.037H147.639V190.514H155.218V193H144.988ZM157.857 193V177.16H162.906C163.038 177.16 163.299 177.164 163.687 177.171C164.083 177.178 164.465 177.204 164.831 177.248C166.085 177.409 167.145 177.857 168.01 178.59C168.883 179.316 169.543 180.244 169.99 181.373C170.438 182.502 170.661 183.738 170.661 185.08C170.661 186.422 170.438 187.658 169.99 188.787C169.543 189.916 168.883 190.848 168.01 191.581C167.145 192.307 166.085 192.751 164.831 192.912C164.472 192.956 164.094 192.982 163.698 192.989C163.302 192.996 163.038 193 162.906 193H157.857ZM160.552 190.503H162.906C163.126 190.503 163.405 190.496 163.742 190.481C164.087 190.466 164.391 190.433 164.655 190.382C165.403 190.243 166.012 189.909 166.481 189.381C166.951 188.853 167.295 188.211 167.515 187.456C167.743 186.701 167.856 185.909 167.856 185.08C167.856 184.222 167.743 183.415 167.515 182.66C167.288 181.905 166.936 181.27 166.459 180.757C165.99 180.244 165.389 179.917 164.655 179.778C164.391 179.719 164.087 179.686 163.742 179.679C163.405 179.664 163.126 179.657 162.906 179.657H160.552V190.503ZM181.472 193V179.646H176.346V177.16H189.249V179.646H184.123V193H181.472ZM197.707 193.33C196.123 193.33 194.766 192.985 193.637 192.296C192.507 191.599 191.638 190.631 191.03 189.392C190.428 188.153 190.128 186.715 190.128 185.08C190.128 183.445 190.428 182.007 191.03 180.768C191.638 179.529 192.507 178.564 193.637 177.875C194.766 177.178 196.123 176.83 197.707 176.83C199.291 176.83 200.647 177.178 201.777 177.875C202.913 178.564 203.782 179.529 204.384 180.768C204.992 182.007 205.297 183.445 205.297 185.08C205.297 186.715 204.992 188.153 204.384 189.392C203.782 190.631 202.913 191.599 201.777 192.296C200.647 192.985 199.291 193.33 197.707 193.33ZM197.707 190.833C198.77 190.84 199.654 190.606 200.358 190.129C201.069 189.652 201.601 188.981 201.953 188.116C202.312 187.251 202.492 186.239 202.492 185.08C202.492 183.921 202.312 182.917 201.953 182.066C201.601 181.208 201.069 180.541 200.358 180.064C199.654 179.587 198.77 179.342 197.707 179.327C196.643 179.32 195.76 179.554 195.056 180.031C194.352 180.508 193.82 181.179 193.461 182.044C193.109 182.909 192.933 183.921 192.933 185.08C192.933 186.239 193.109 187.247 193.461 188.105C193.813 188.956 194.341 189.619 195.045 190.096C195.756 190.573 196.643 190.818 197.707 190.833ZM211.891 193V177.16H214.575L221.923 188.325V177.16H224.607V193H221.923L214.575 181.835V193H211.891ZM234.381 193.33C232.797 193.33 231.44 192.985 230.311 192.296C229.181 191.599 228.312 190.631 227.704 189.392C227.102 188.153 226.802 186.715 226.802 185.08C226.802 183.445 227.102 182.007 227.704 180.768C228.312 179.529 229.181 178.564 230.311 177.875C231.44 177.178 232.797 176.83 234.381 176.83C235.965 176.83 237.321 177.178 238.451 177.875C239.587 178.564 240.456 179.529 241.058 180.768C241.666 182.007 241.971 183.445 241.971 185.08C241.971 186.715 241.666 188.153 241.058 189.392C240.456 190.631 239.587 191.599 238.451 192.296C237.321 192.985 235.965 193.33 234.381 193.33ZM234.381 190.833C235.444 190.84 236.328 190.606 237.032 190.129C237.743 189.652 238.275 188.981 238.627 188.116C238.986 187.251 239.166 186.239 239.166 185.08C239.166 183.921 238.986 182.917 238.627 182.066C238.275 181.208 237.743 180.541 237.032 180.064C236.328 179.587 235.444 179.342 234.381 179.327C233.317 179.32 232.434 179.554 231.73 180.031C231.026 180.508 230.494 181.179 230.135 182.044C229.783 182.909 229.607 183.921 229.607 185.08C229.607 186.239 229.783 187.247 230.135 188.105C230.487 188.956 231.015 189.619 231.719 190.096C232.43 190.573 233.317 190.818 234.381 190.833ZM246.838 193L242.207 177.16H244.99L248.147 188.6L251.293 177.182L254.076 177.16L257.233 188.6L260.379 177.16H263.162L258.542 193H255.924L252.679 181.736L249.456 193H246.838ZM273.167 193V179.646H268.041V177.16H280.944V179.646H275.818V193H273.167ZM282.703 193V177.16H285.354V183.826H292.856V177.16H295.496V193H292.856V186.312H285.354V193H282.703ZM297.48 193L302.474 177.16H306.357L311.351 193H308.623L304.091 178.788H304.685L300.208 193H297.48ZM300.263 189.568V187.093H308.579V189.568H300.263ZM315.835 193V179.646H310.709V177.16H323.612V179.646H318.486V193H315.835ZM329.329 193V177.16H331.98V193H329.329ZM339.081 193V179.646H333.955V177.16H346.858V179.646H341.732V193H339.081ZM352.355 193V177.16H361.892V179.811H355.006V183.76H360.572V186.4H355.006V193H352.355ZM363.871 193V177.16H374.101V179.646H366.522V183.551H372.781V186.037H366.522V190.514H374.101V193H363.871ZM376.74 193V177.16H386.97V179.646H379.391V183.551H385.65V186.037H379.391V190.514H386.97V193H376.74ZM389.829 193V177.16H392.48V190.514H399.476V193H389.829ZM407.203 193.33C406.044 193.33 404.999 193.128 404.068 192.725C403.144 192.322 402.381 191.746 401.78 190.998C401.186 190.243 400.808 189.348 400.647 188.314L403.397 187.896C403.631 188.835 404.112 189.561 404.838 190.074C405.571 190.587 406.414 190.844 407.368 190.844C407.932 190.844 408.464 190.756 408.963 190.58C409.461 190.404 409.865 190.147 410.173 189.81C410.488 189.473 410.646 189.058 410.646 188.567C410.646 188.347 410.609 188.145 410.536 187.962C410.462 187.771 410.352 187.603 410.206 187.456C410.066 187.309 409.883 187.177 409.656 187.06C409.436 186.935 409.179 186.829 408.886 186.741L404.794 185.531C404.442 185.428 404.06 185.293 403.65 185.124C403.246 184.948 402.861 184.71 402.495 184.409C402.135 184.101 401.838 183.712 401.604 183.243C401.376 182.766 401.263 182.18 401.263 181.483C401.263 180.464 401.519 179.609 402.033 178.92C402.553 178.223 403.25 177.703 404.123 177.358C405.003 177.013 405.978 176.845 407.049 176.852C408.134 176.859 409.102 177.046 409.953 177.413C410.803 177.772 411.515 178.297 412.087 178.986C412.659 179.675 413.062 180.508 413.297 181.483L410.448 181.978C410.33 181.421 410.103 180.948 409.766 180.559C409.436 180.163 409.029 179.862 408.545 179.657C408.068 179.452 407.558 179.342 407.016 179.327C406.488 179.32 405.996 179.4 405.542 179.569C405.094 179.73 404.731 179.965 404.453 180.273C404.181 180.581 404.046 180.94 404.046 181.351C404.046 181.74 404.163 182.059 404.398 182.308C404.632 182.55 404.922 182.744 405.267 182.891C405.619 183.03 405.974 183.148 406.334 183.243L409.172 184.035C409.56 184.138 409.997 184.277 410.481 184.453C410.965 184.629 411.43 184.875 411.878 185.19C412.325 185.505 412.692 185.92 412.978 186.433C413.271 186.946 413.418 187.599 413.418 188.391C413.418 189.212 413.245 189.935 412.901 190.558C412.563 191.174 412.105 191.687 411.526 192.098C410.946 192.509 410.283 192.817 409.535 193.022C408.794 193.227 408.017 193.33 407.203 193.33ZM426.066 193.33C424.907 193.33 423.862 193.128 422.931 192.725C422.007 192.322 421.244 191.746 420.643 190.998C420.049 190.243 419.671 189.348 419.51 188.314L422.26 187.896C422.495 188.835 422.975 189.561 423.701 190.074C424.434 190.587 425.278 190.844 426.231 190.844C426.796 190.844 427.327 190.756 427.826 190.58C428.325 190.404 428.728 190.147 429.036 189.81C429.351 189.473 429.509 189.058 429.509 188.567C429.509 188.347 429.472 188.145 429.399 187.962C429.326 187.771 429.216 187.603 429.069 187.456C428.93 187.309 428.746 187.177 428.519 187.06C428.299 186.935 428.042 186.829 427.749 186.741L423.657 185.531C423.305 185.428 422.924 185.293 422.513 185.124C422.11 184.948 421.725 184.71 421.358 184.409C420.999 184.101 420.702 183.712 420.467 183.243C420.24 182.766 420.126 182.18 420.126 181.483C420.126 180.464 420.383 179.609 420.896 178.92C421.417 178.223 422.113 177.703 422.986 177.358C423.866 177.013 424.841 176.845 425.912 176.852C426.997 176.859 427.965 177.046 428.816 177.413C429.667 177.772 430.378 178.297 430.95 178.986C431.522 179.675 431.925 180.508 432.16 181.483L429.311 181.978C429.194 181.421 428.966 180.948 428.629 180.559C428.299 180.163 427.892 179.862 427.408 179.657C426.931 179.452 426.422 179.342 425.879 179.327C425.351 179.32 424.86 179.4 424.405 179.569C423.958 179.73 423.595 179.965 423.316 180.273C423.045 180.581 422.909 180.94 422.909 181.351C422.909 181.74 423.026 182.059 423.261 182.308C423.496 182.55 423.785 182.744 424.13 182.891C424.482 183.03 424.838 183.148 425.197 183.243L428.035 184.035C428.424 184.138 428.86 184.277 429.344 184.453C429.828 184.629 430.294 184.875 430.741 185.19C431.188 185.505 431.555 185.92 431.841 186.433C432.134 186.946 432.281 187.599 432.281 188.391C432.281 189.212 432.109 189.935 431.764 190.558C431.427 191.174 430.968 191.687 430.389 192.098C429.81 192.509 429.146 192.817 428.398 193.022C427.657 193.227 426.88 193.33 426.066 193.33ZM438.468 193V179.646H433.342V177.16H446.245V179.646H441.119V193H438.468ZM448.004 193V177.16H454.549C454.703 177.16 454.901 177.167 455.143 177.182C455.385 177.189 455.609 177.211 455.814 177.248C456.731 177.387 457.486 177.692 458.08 178.161C458.681 178.63 459.125 179.224 459.411 179.943C459.704 180.654 459.851 181.446 459.851 182.319C459.851 183.61 459.525 184.721 458.872 185.652C458.219 186.576 457.218 187.148 455.869 187.368L454.736 187.467H450.655V193H448.004ZM457.101 193L453.977 186.554L456.672 185.96L460.104 193H457.101ZM450.655 184.992H454.439C454.586 184.992 454.751 184.985 454.934 184.97C455.117 184.955 455.286 184.926 455.44 184.882C455.88 184.772 456.225 184.578 456.474 184.299C456.731 184.02 456.91 183.705 457.013 183.353C457.123 183.001 457.178 182.656 457.178 182.319C457.178 181.982 457.123 181.637 457.013 181.285C456.91 180.926 456.731 180.607 456.474 180.328C456.225 180.049 455.88 179.855 455.44 179.745C455.286 179.701 455.117 179.675 454.934 179.668C454.751 179.653 454.586 179.646 454.439 179.646H450.655V184.992ZM461.427 193L466.421 177.16H470.304L475.298 193H472.57L468.038 178.788H468.632L464.155 193H461.427ZM464.21 189.568V187.093H472.526V189.568H464.21ZM477.287 193V177.16H479.971L487.319 188.325V177.16H490.003V193H487.319L479.971 181.835V193H477.287ZM499.612 193.33C498.585 193.33 497.621 193.15 496.719 192.791C495.824 192.424 495.036 191.889 494.354 191.185C493.679 190.481 493.151 189.619 492.77 188.6C492.389 187.573 492.198 186.4 492.198 185.08C492.198 183.349 492.521 181.872 493.166 180.647C493.811 179.415 494.695 178.473 495.817 177.82C496.939 177.16 498.204 176.83 499.612 176.83C501.563 176.83 503.106 177.285 504.243 178.194C505.387 179.096 506.161 180.365 506.564 182L503.858 182.429C503.557 181.49 503.066 180.742 502.384 180.185C501.702 179.62 500.833 179.338 499.777 179.338C498.714 179.323 497.83 179.554 497.126 180.031C496.422 180.508 495.89 181.179 495.531 182.044C495.179 182.909 495.003 183.921 495.003 185.08C495.003 186.239 495.179 187.247 495.531 188.105C495.883 188.956 496.411 189.619 497.115 190.096C497.826 190.573 498.714 190.818 499.777 190.833C500.576 190.84 501.277 190.697 501.878 190.404C502.479 190.103 502.971 189.652 503.352 189.051C503.733 188.442 503.99 187.683 504.122 186.774H501.328V184.695H506.938C506.953 184.812 506.964 184.985 506.971 185.212C506.978 185.439 506.982 185.575 506.982 185.619C506.982 187.115 506.685 188.446 506.091 189.612C505.504 190.771 504.661 191.68 503.561 192.34C502.461 193 501.145 193.33 499.612 193.33ZM509.191 193V177.16H519.421V179.646H511.842V183.551H518.101V186.037H511.842V190.514H519.421V193H509.191ZM76.6496 224L72.0186 208.16H74.8016L77.9586 219.6L81.1046 208.182L83.8876 208.16L87.0446 219.6L90.1906 208.16H92.9736L88.3536 224H85.7356L82.4906 212.736L79.2676 224H76.6496ZM94.7685 224V208.16H97.4195V214.826H104.922V208.16H107.562V224H104.922V217.312H97.4195V224H94.7685ZM110.645 224V208.16H120.875V210.646H113.296V214.551H119.555V217.037H113.296V221.514H120.875V224H110.645ZM123.515 224V208.16H126.199L133.547 219.325V208.16H136.231V224H133.547L126.199 212.835V224H123.515ZM147.56 224V217.51L142.17 208.16H145.261L148.902 214.474L152.532 208.16H155.623L150.244 217.51V224H147.56ZM162.977 224.33C161.393 224.33 160.037 223.985 158.907 223.296C157.778 222.599 156.909 221.631 156.3 220.392C155.699 219.153 155.398 217.715 155.398 216.08C155.398 214.445 155.699 213.007 156.3 211.768C156.909 210.529 157.778 209.564 158.907 208.875C160.037 208.178 161.393 207.83 162.977 207.83C164.561 207.83 165.918 208.178 167.047 208.875C168.184 209.564 169.053 210.529 169.654 211.768C170.263 213.007 170.567 214.445 170.567 216.08C170.567 217.715 170.263 219.153 169.654 220.392C169.053 221.631 168.184 222.599 167.047 223.296C165.918 223.985 164.561 224.33 162.977 224.33ZM162.977 221.833C164.041 221.84 164.924 221.606 165.628 221.129C166.34 220.652 166.871 219.981 167.223 219.116C167.583 218.251 167.762 217.239 167.762 216.08C167.762 214.921 167.583 213.917 167.223 213.066C166.871 212.208 166.34 211.541 165.628 211.064C164.924 210.587 164.041 210.342 162.977 210.327C161.914 210.32 161.03 210.554 160.326 211.031C159.622 211.508 159.091 212.179 158.731 213.044C158.379 213.909 158.203 214.921 158.203 216.08C158.203 217.239 158.379 218.247 158.731 219.105C159.083 219.956 159.611 220.619 160.315 221.096C161.027 221.573 161.914 221.818 162.977 221.833ZM179.137 224.33C177.875 224.33 176.764 224.073 175.804 223.56C174.85 223.047 174.102 222.324 173.56 221.393C173.024 220.462 172.757 219.369 172.757 218.115V208.182L175.441 208.16V218.049C175.441 218.643 175.54 219.175 175.738 219.644C175.943 220.113 176.218 220.513 176.563 220.843C176.907 221.166 177.303 221.411 177.751 221.58C178.198 221.749 178.66 221.833 179.137 221.833C179.628 221.833 180.094 221.749 180.534 221.58C180.981 221.404 181.377 221.155 181.722 220.832C182.066 220.502 182.338 220.102 182.536 219.633C182.734 219.164 182.833 218.636 182.833 218.049V208.16H185.517V218.115C185.517 219.369 185.245 220.462 184.703 221.393C184.167 222.324 183.419 223.047 182.459 223.56C181.505 224.073 180.398 224.33 179.137 224.33ZM192.995 224V208.16H198.044C198.176 208.16 198.436 208.164 198.825 208.171C199.221 208.178 199.602 208.204 199.969 208.248C201.223 208.409 202.283 208.857 203.148 209.59C204.021 210.316 204.681 211.244 205.128 212.373C205.575 213.502 205.799 214.738 205.799 216.08C205.799 217.422 205.575 218.658 205.128 219.787C204.681 220.916 204.021 221.848 203.148 222.581C202.283 223.307 201.223 223.751 199.969 223.912C199.61 223.956 199.232 223.982 198.836 223.989C198.44 223.996 198.176 224 198.044 224H192.995ZM195.69 221.503H198.044C198.264 221.503 198.543 221.496 198.88 221.481C199.225 221.466 199.529 221.433 199.793 221.382C200.541 221.243 201.15 220.909 201.619 220.381C202.088 219.853 202.433 219.211 202.653 218.456C202.88 217.701 202.994 216.909 202.994 216.08C202.994 215.222 202.88 214.415 202.653 213.66C202.426 212.905 202.074 212.27 201.597 211.757C201.128 211.244 200.526 210.917 199.793 210.778C199.529 210.719 199.225 210.686 198.88 210.679C198.543 210.664 198.264 210.657 198.044 210.657H195.69V221.503ZM208.619 224V208.16H211.27V224H208.619ZM214.565 224V208.16H219.614C219.746 208.16 220.007 208.164 220.395 208.171C220.791 208.178 221.173 208.204 221.539 208.248C222.793 208.409 223.853 208.857 224.718 209.59C225.591 210.316 226.251 211.244 226.698 212.373C227.146 213.502 227.369 214.738 227.369 216.08C227.369 217.422 227.146 218.658 226.698 219.787C226.251 220.916 225.591 221.848 224.718 222.581C223.853 223.307 222.793 223.751 221.539 223.912C221.18 223.956 220.802 223.982 220.406 223.989C220.01 223.996 219.746 224 219.614 224H214.565ZM217.26 221.503H219.614C219.834 221.503 220.113 221.496 220.45 221.481C220.795 221.466 221.099 221.433 221.363 221.382C222.111 221.243 222.72 220.909 223.189 220.381C223.659 219.853 224.003 219.211 224.223 218.456C224.451 217.701 224.564 216.909 224.564 216.08C224.564 215.222 224.451 214.415 224.223 213.66C223.996 212.905 223.644 212.27 223.167 211.757C222.698 211.244 222.097 210.917 221.363 210.778C221.099 210.719 220.795 210.686 220.45 210.679C220.113 210.664 219.834 210.657 219.614 210.657H217.26V221.503ZM229.97 224V208.16H232.654L240.002 219.325V208.16H242.686V224H240.002L232.654 212.835V224H229.97ZM246.091 213.792L246.245 212.648C246.582 212.677 246.85 212.622 247.048 212.483C247.246 212.336 247.378 212.135 247.444 211.878C247.517 211.614 247.535 211.317 247.499 210.987H246.091V208.16H248.808V211.097C248.808 212.058 248.58 212.784 248.126 213.275C247.671 213.766 246.993 213.939 246.091 213.792ZM255.819 224V210.646H250.693V208.16H263.596V210.646H258.47V224H255.819ZM269.093 224V208.16H274.142C274.274 208.16 274.534 208.164 274.923 208.171C275.319 208.178 275.7 208.204 276.067 208.248C277.321 208.409 278.38 208.857 279.246 209.59C280.118 210.316 280.778 211.244 281.226 212.373C281.673 213.502 281.897 214.738 281.897 216.08C281.897 217.422 281.673 218.658 281.226 219.787C280.778 220.916 280.118 221.848 279.246 222.581C278.38 223.307 277.321 223.751 276.067 223.912C275.707 223.956 275.33 223.982 274.934 223.989C274.538 223.996 274.274 224 274.142 224H269.093ZM271.788 221.503H274.142C274.362 221.503 274.64 221.496 274.978 221.481C275.322 221.466 275.627 221.433 275.891 221.382C276.639 221.243 277.247 220.909 277.717 220.381C278.186 219.853 278.531 219.211 278.751 218.456C278.978 217.701 279.092 216.909 279.092 216.08C279.092 215.222 278.978 214.415 278.751 213.66C278.523 212.905 278.171 212.27 277.695 211.757C277.225 211.244 276.624 210.917 275.891 210.778C275.627 210.719 275.322 210.686 274.978 210.679C274.64 210.664 274.362 210.657 274.142 210.657H271.788V221.503ZM291.196 224.33C289.612 224.33 288.255 223.985 287.126 223.296C285.997 222.599 285.128 221.631 284.519 220.392C283.918 219.153 283.617 217.715 283.617 216.08C283.617 214.445 283.918 213.007 284.519 211.768C285.128 210.529 285.997 209.564 287.126 208.875C288.255 208.178 289.612 207.83 291.196 207.83C292.78 207.83 294.137 208.178 295.266 208.875C296.403 209.564 297.272 210.529 297.873 211.768C298.482 213.007 298.786 214.445 298.786 216.08C298.786 217.715 298.482 219.153 297.873 220.392C297.272 221.631 296.403 222.599 295.266 223.296C294.137 223.985 292.78 224.33 291.196 224.33ZM291.196 221.833C292.259 221.84 293.143 221.606 293.847 221.129C294.558 220.652 295.09 219.981 295.442 219.116C295.801 218.251 295.981 217.239 295.981 216.08C295.981 214.921 295.801 213.917 295.442 213.066C295.09 212.208 294.558 211.541 293.847 211.064C293.143 210.587 292.259 210.342 291.196 210.327C290.133 210.32 289.249 210.554 288.545 211.031C287.841 211.508 287.309 212.179 286.95 213.044C286.598 213.909 286.422 214.921 286.422 216.08C286.422 217.239 286.598 218.247 286.95 219.105C287.302 219.956 287.83 220.619 288.534 221.096C289.245 221.573 290.133 221.818 291.196 221.833ZM305.6 224V208.16H308.251V224H305.6ZM315.352 224V210.646H310.226V208.16H323.129V210.646H318.003V224H315.352ZM327.759 219.699C327.759 219.193 327.806 218.705 327.902 218.236C328.004 217.759 328.169 217.319 328.397 216.916C328.595 216.527 328.815 216.219 329.057 215.992C329.299 215.757 329.57 215.526 329.871 215.299C330.171 215.064 330.505 214.753 330.872 214.364C331.172 214.034 331.37 213.708 331.466 213.385C331.561 213.055 331.609 212.703 331.609 212.329C331.609 212.087 331.583 211.86 331.532 211.647C331.48 211.434 331.389 211.251 331.257 211.097C331.051 210.826 330.787 210.635 330.465 210.525C330.142 210.408 329.797 210.349 329.431 210.349C329.13 210.349 328.84 210.389 328.562 210.47C328.29 210.543 328.059 210.661 327.869 210.822C327.649 210.998 327.487 211.214 327.385 211.471C327.282 211.728 327.234 212.01 327.242 212.318H324.448C324.521 211.585 324.719 210.906 325.042 210.283C325.372 209.652 325.804 209.15 326.34 208.776C326.758 208.468 327.227 208.237 327.748 208.083C328.276 207.929 328.804 207.852 329.332 207.852C330.138 207.852 330.897 207.977 331.609 208.226C332.327 208.475 332.925 208.886 333.402 209.458C333.732 209.832 333.981 210.265 334.15 210.756C334.326 211.247 334.414 211.746 334.414 212.252C334.414 213.007 334.249 213.697 333.919 214.32C333.596 214.943 333.185 215.519 332.687 216.047C332.452 216.296 332.228 216.516 332.016 216.707C331.803 216.898 331.605 217.085 331.422 217.268C331.246 217.444 331.099 217.631 330.982 217.829C330.776 218.174 330.655 218.467 330.619 218.709C330.582 218.944 330.564 219.274 330.564 219.699H327.759ZM327.781 224V221.085H330.564V224H327.781ZM341.452 224V208.16H344.103V214.826H351.605V208.16H354.245V224H351.605V217.312H344.103V224H341.452ZM364.028 224.33C362.444 224.33 361.087 223.985 359.958 223.296C358.829 222.599 357.96 221.631 357.351 220.392C356.75 219.153 356.449 217.715 356.449 216.08C356.449 214.445 356.75 213.007 357.351 211.768C357.96 210.529 358.829 209.564 359.958 208.875C361.087 208.178 362.444 207.83 364.028 207.83C365.612 207.83 366.969 208.178 368.098 208.875C369.235 209.564 370.104 210.529 370.705 211.768C371.314 213.007 371.618 214.445 371.618 216.08C371.618 217.715 371.314 219.153 370.705 220.392C370.104 221.631 369.235 222.599 368.098 223.296C366.969 223.985 365.612 224.33 364.028 224.33ZM364.028 221.833C365.091 221.84 365.975 221.606 366.679 221.129C367.39 220.652 367.922 219.981 368.274 219.116C368.633 218.251 368.813 217.239 368.813 216.08C368.813 214.921 368.633 213.917 368.274 213.066C367.922 212.208 367.39 211.541 366.679 211.064C365.975 210.587 365.091 210.342 364.028 210.327C362.965 210.32 362.081 210.554 361.377 211.031C360.673 211.508 360.141 212.179 359.782 213.044C359.43 213.909 359.254 214.921 359.254 216.08C359.254 217.239 359.43 218.247 359.782 219.105C360.134 219.956 360.662 220.619 361.366 221.096C362.077 221.573 362.965 221.818 364.028 221.833ZM376.486 224L371.855 208.16H374.638L377.795 219.6L380.941 208.182L383.724 208.16L386.881 219.6L390.027 208.16H392.81L388.19 224H385.572L382.327 212.736L379.104 224H376.486ZM402.353 224L397.722 208.16H400.505L403.662 219.6L406.808 208.182L409.591 208.16L412.748 219.6L415.894 208.16H418.677L414.057 224H411.439L408.194 212.736L404.971 224H402.353ZM426.741 224.33C425.157 224.33 423.8 223.985 422.671 223.296C421.542 222.599 420.673 221.631 420.064 220.392C419.463 219.153 419.162 217.715 419.162 216.08C419.162 214.445 419.463 213.007 420.064 211.768C420.673 210.529 421.542 209.564 422.671 208.875C423.8 208.178 425.157 207.83 426.741 207.83C428.325 207.83 429.682 208.178 430.811 208.875C431.948 209.564 432.817 210.529 433.418 211.768C434.027 213.007 434.331 214.445 434.331 216.08C434.331 217.715 434.027 219.153 433.418 220.392C432.817 221.631 431.948 222.599 430.811 223.296C429.682 223.985 428.325 224.33 426.741 224.33ZM426.741 221.833C427.804 221.84 428.688 221.606 429.392 221.129C430.103 220.652 430.635 219.981 430.987 219.116C431.346 218.251 431.526 217.239 431.526 216.08C431.526 214.921 431.346 213.917 430.987 213.066C430.635 212.208 430.103 211.541 429.392 211.064C428.688 210.587 427.804 210.342 426.741 210.327C425.678 210.32 424.794 210.554 424.09 211.031C423.386 211.508 422.854 212.179 422.495 213.044C422.143 213.909 421.967 214.921 421.967 216.08C421.967 217.239 422.143 218.247 422.495 219.105C422.847 219.956 423.375 220.619 424.079 221.096C424.79 221.573 425.678 221.818 426.741 221.833ZM442.9 224.33C441.639 224.33 440.528 224.073 439.567 223.56C438.614 223.047 437.866 222.324 437.323 221.393C436.788 220.462 436.52 219.369 436.52 218.115V208.182L439.204 208.16V218.049C439.204 218.643 439.303 219.175 439.501 219.644C439.707 220.113 439.982 220.513 440.326 220.843C440.671 221.166 441.067 221.411 441.514 221.58C441.962 221.749 442.424 221.833 442.9 221.833C443.392 221.833 443.857 221.749 444.297 221.58C444.745 221.404 445.141 221.155 445.485 220.832C445.83 220.502 446.101 220.102 446.299 219.633C446.497 219.164 446.596 218.636 446.596 218.049V208.16H449.28V218.115C449.28 219.369 449.009 220.462 448.466 221.393C447.931 222.324 447.183 223.047 446.222 223.56C445.269 224.073 444.162 224.33 442.9 224.33ZM452.574 224V208.16H455.225V221.514H462.221V224H452.574ZM464.085 224V208.16H469.134C469.266 208.16 469.526 208.164 469.915 208.171C470.311 208.178 470.692 208.204 471.059 208.248C472.313 208.409 473.373 208.857 474.238 209.59C475.111 210.316 475.771 211.244 476.218 212.373C476.665 213.502 476.889 214.738 476.889 216.08C476.889 217.422 476.665 218.658 476.218 219.787C475.771 220.916 475.111 221.848 474.238 222.581C473.373 223.307 472.313 223.751 471.059 223.912C470.7 223.956 470.322 223.982 469.926 223.989C469.53 223.996 469.266 224 469.134 224H464.085ZM466.78 221.503H469.134C469.354 221.503 469.633 221.496 469.97 221.481C470.315 221.466 470.619 221.433 470.883 221.382C471.631 221.243 472.24 220.909 472.709 220.381C473.178 219.853 473.523 219.211 473.743 218.456C473.97 217.701 474.084 216.909 474.084 216.08C474.084 215.222 473.97 214.415 473.743 213.66C473.516 212.905 473.164 212.27 472.687 211.757C472.218 211.244 471.616 210.917 470.883 210.778C470.619 210.719 470.315 210.686 469.97 210.679C469.633 210.664 469.354 210.657 469.134 210.657H466.78V221.503ZM487.744 224V217.51L482.354 208.16H485.445L489.086 214.474L492.716 208.16H495.807L490.428 217.51V224H487.744ZM503.161 224.33C501.577 224.33 500.22 223.985 499.091 223.296C497.962 222.599 497.093 221.631 496.484 220.392C495.883 219.153 495.582 217.715 495.582 216.08C495.582 214.445 495.883 213.007 496.484 211.768C497.093 210.529 497.962 209.564 499.091 208.875C500.22 208.178 501.577 207.83 503.161 207.83C504.745 207.83 506.102 208.178 507.231 208.875C508.368 209.564 509.237 210.529 509.838 211.768C510.447 213.007 510.751 214.445 510.751 216.08C510.751 217.715 510.447 219.153 509.838 220.392C509.237 221.631 508.368 222.599 507.231 223.296C506.102 223.985 504.745 224.33 503.161 224.33ZM503.161 221.833C504.224 221.84 505.108 221.606 505.812 221.129C506.523 220.652 507.055 219.981 507.407 219.116C507.766 218.251 507.946 217.239 507.946 216.08C507.946 214.921 507.766 213.917 507.407 213.066C507.055 212.208 506.523 211.541 505.812 211.064C505.108 210.587 504.224 210.342 503.161 210.327C502.098 210.32 501.214 210.554 500.51 211.031C499.806 211.508 499.274 212.179 498.915 213.044C498.563 213.909 498.387 214.921 498.387 216.08C498.387 217.239 498.563 218.247 498.915 219.105C499.267 219.956 499.795 220.619 500.499 221.096C501.21 221.573 502.098 221.818 503.161 221.833ZM519.32 224.33C518.059 224.33 516.948 224.073 515.987 223.56C515.034 223.047 514.286 222.324 513.743 221.393C513.208 220.462 512.94 219.369 512.94 218.115V208.182L515.624 208.16V218.049C515.624 218.643 515.723 219.175 515.921 219.644C516.127 220.113 516.402 220.513 516.746 220.843C517.091 221.166 517.487 221.411 517.934 221.58C518.382 221.749 518.844 221.833 519.32 221.833C519.812 221.833 520.277 221.749 520.717 221.58C521.165 221.404 521.561 221.155 521.905 220.832C522.25 220.502 522.521 220.102 522.719 219.633C522.917 219.164 523.016 218.636 523.016 218.049V208.16H525.7V218.115C525.7 219.369 525.429 220.462 524.886 221.393C524.351 222.324 523.603 223.047 522.642 223.56C521.689 224.073 520.582 224.33 519.32 224.33ZM133.011 255V239.16H142.548V241.811H135.662V245.76H141.228V248.4H135.662V255H133.011ZM144.526 255V239.16H154.756V241.646H147.177V245.551H153.436V248.037H147.177V252.514H154.756V255H144.526ZM157.395 255V239.16H167.625V241.646H160.046V245.551H166.305V248.037H160.046V252.514H167.625V255H157.395ZM170.485 255V239.16H173.136V252.514H180.132V255H170.485ZM185.524 255V239.16H188.175V255H185.524ZM191.47 255V239.16H201.007V241.811H194.121V245.76H199.687V248.4H194.121V255H191.47ZM211.24 255V248.51L205.85 239.16H208.941L212.582 245.474L216.212 239.16H219.303L213.924 248.51V255H211.24ZM226.657 255.33C225.073 255.33 223.716 254.985 222.587 254.296C221.458 253.599 220.589 252.631 219.98 251.392C219.379 250.153 219.078 248.715 219.078 247.08C219.078 245.445 219.379 244.007 219.98 242.768C220.589 241.529 221.458 240.564 222.587 239.875C223.716 239.178 225.073 238.83 226.657 238.83C228.241 238.83 229.598 239.178 230.727 239.875C231.864 240.564 232.733 241.529 233.334 242.768C233.943 244.007 234.247 245.445 234.247 247.08C234.247 248.715 233.943 250.153 233.334 251.392C232.733 252.631 231.864 253.599 230.727 254.296C229.598 254.985 228.241 255.33 226.657 255.33ZM226.657 252.833C227.72 252.84 228.604 252.606 229.308 252.129C230.019 251.652 230.551 250.981 230.903 250.116C231.262 249.251 231.442 248.239 231.442 247.08C231.442 245.921 231.262 244.917 230.903 244.066C230.551 243.208 230.019 242.541 229.308 242.064C228.604 241.587 227.72 241.342 226.657 241.327C225.594 241.32 224.71 241.554 224.006 242.031C223.302 242.508 222.77 243.179 222.411 244.044C222.059 244.909 221.883 245.921 221.883 247.08C221.883 248.239 222.059 249.247 222.411 250.105C222.763 250.956 223.291 251.619 223.995 252.096C224.706 252.573 225.594 252.818 226.657 252.833ZM242.816 255.33C241.555 255.33 240.444 255.073 239.483 254.56C238.53 254.047 237.782 253.324 237.239 252.393C236.704 251.462 236.436 250.369 236.436 249.115V239.182L239.12 239.16V249.049C239.12 249.643 239.219 250.175 239.417 250.644C239.623 251.113 239.898 251.513 240.242 251.843C240.587 252.166 240.983 252.411 241.43 252.58C241.878 252.749 242.34 252.833 242.816 252.833C243.308 252.833 243.773 252.749 244.213 252.58C244.661 252.404 245.057 252.155 245.401 251.832C245.746 251.502 246.017 251.102 246.215 250.633C246.413 250.164 246.512 249.636 246.512 249.049V239.16H249.196V249.115C249.196 250.369 248.925 251.462 248.382 252.393C247.847 253.324 247.099 254.047 246.138 254.56C245.185 255.073 244.078 255.33 242.816 255.33ZM256.675 255V239.16H259.326V245.826H266.828V239.16H269.468V255H266.828V248.312H259.326V255H256.675ZM271.452 255L276.446 239.16H280.329L285.323 255H282.595L278.063 240.788H278.657L274.18 255H271.452ZM274.235 251.568V249.093H282.551V251.568H274.235ZM287.311 255V239.16H292.36C292.492 239.16 292.753 239.164 293.141 239.171C293.537 239.178 293.919 239.204 294.285 239.248C295.539 239.409 296.599 239.857 297.464 240.59C298.337 241.316 298.997 242.244 299.444 243.373C299.892 244.502 300.115 245.738 300.115 247.08C300.115 248.422 299.892 249.658 299.444 250.787C298.997 251.916 298.337 252.848 297.464 253.581C296.599 254.307 295.539 254.751 294.285 254.912C293.926 254.956 293.548 254.982 293.152 254.989C292.756 254.996 292.492 255 292.36 255H287.311ZM290.006 252.503H292.36C292.58 252.503 292.859 252.496 293.196 252.481C293.541 252.466 293.845 252.433 294.109 252.382C294.857 252.243 295.466 251.909 295.935 251.381C296.405 250.853 296.749 250.211 296.969 249.456C297.197 248.701 297.31 247.909 297.31 247.08C297.31 246.222 297.197 245.415 296.969 244.66C296.742 243.905 296.39 243.27 295.913 242.757C295.444 242.244 294.843 241.917 294.109 241.778C293.845 241.719 293.541 241.686 293.196 241.679C292.859 241.664 292.58 241.657 292.36 241.657H290.006V252.503ZM310.926 255V241.646H305.8V239.16H318.703V241.646H313.577V255H310.926ZM327.161 255.33C325.577 255.33 324.22 254.985 323.091 254.296C321.962 253.599 321.093 252.631 320.484 251.392C319.883 250.153 319.582 248.715 319.582 247.08C319.582 245.445 319.883 244.007 320.484 242.768C321.093 241.529 321.962 240.564 323.091 239.875C324.22 239.178 325.577 238.83 327.161 238.83C328.745 238.83 330.102 239.178 331.231 239.875C332.368 240.564 333.237 241.529 333.838 242.768C334.447 244.007 334.751 245.445 334.751 247.08C334.751 248.715 334.447 250.153 333.838 251.392C333.237 252.631 332.368 253.599 331.231 254.296C330.102 254.985 328.745 255.33 327.161 255.33ZM327.161 252.833C328.224 252.84 329.108 252.606 329.812 252.129C330.523 251.652 331.055 250.981 331.407 250.116C331.766 249.251 331.946 248.239 331.946 247.08C331.946 245.921 331.766 244.917 331.407 244.066C331.055 243.208 330.523 242.541 329.812 242.064C329.108 241.587 328.224 241.342 327.161 241.327C326.098 241.32 325.214 241.554 324.51 242.031C323.806 242.508 323.274 243.179 322.915 244.044C322.563 244.909 322.387 245.921 322.387 247.08C322.387 248.239 322.563 249.247 322.915 250.105C323.267 250.956 323.795 251.619 324.499 252.096C325.21 252.573 326.098 252.818 327.161 252.833ZM348.044 255.33C346.46 255.33 345.103 254.985 343.974 254.296C342.844 253.599 341.975 252.631 341.367 251.392C340.765 250.153 340.465 248.715 340.465 247.08C340.465 245.445 340.765 244.007 341.367 242.768C341.975 241.529 342.844 240.564 343.974 239.875C345.103 239.178 346.46 238.83 348.044 238.83C349.87 238.83 351.391 239.288 352.609 240.205C353.826 241.114 354.68 242.343 355.172 243.89L352.499 244.627C352.191 243.593 351.666 242.786 350.926 242.207C350.185 241.62 349.224 241.327 348.044 241.327C346.98 241.327 346.093 241.565 345.382 242.042C344.678 242.519 344.146 243.19 343.787 244.055C343.435 244.913 343.255 245.921 343.248 247.08C343.248 248.239 343.424 249.251 343.776 250.116C344.135 250.974 344.67 251.641 345.382 252.118C346.093 252.595 346.98 252.833 348.044 252.833C349.224 252.833 350.185 252.54 350.926 251.953C351.666 251.366 352.191 250.56 352.499 249.533L355.172 250.27C354.68 251.817 353.826 253.049 352.609 253.966C351.391 254.875 349.87 255.33 348.044 255.33ZM357.587 255V239.16H360.238V245.826H367.74V239.16H370.38V255H367.74V248.312H360.238V255H357.587ZM372.364 255L377.358 239.16H381.241L386.235 255H383.507L378.975 240.788H379.569L375.092 255H372.364ZM375.147 251.568V249.093H383.463V251.568H375.147ZM388.224 255V239.16H390.908L398.256 250.325V239.16H400.94V255H398.256L390.908 243.835V255H388.224ZM410.549 255.33C409.522 255.33 408.558 255.15 407.656 254.791C406.761 254.424 405.973 253.889 405.291 253.185C404.616 252.481 404.088 251.619 403.707 250.6C403.325 249.573 403.135 248.4 403.135 247.08C403.135 245.349 403.457 243.872 404.103 242.647C404.748 241.415 405.632 240.473 406.754 239.82C407.876 239.16 409.141 238.83 410.549 238.83C412.499 238.83 414.043 239.285 415.18 240.194C416.324 241.096 417.097 242.365 417.501 244L414.795 244.429C414.494 243.49 414.003 242.742 413.321 242.185C412.639 241.62 411.77 241.338 410.714 241.338C409.65 241.323 408.767 241.554 408.063 242.031C407.359 242.508 406.827 243.179 406.468 244.044C406.116 244.909 405.94 245.921 405.94 247.08C405.94 248.239 406.116 249.247 406.468 250.105C406.82 250.956 407.348 251.619 408.052 252.096C408.763 252.573 409.65 252.818 410.714 252.833C411.513 252.84 412.213 252.697 412.815 252.404C413.416 252.103 413.907 251.652 414.289 251.051C414.67 250.442 414.927 249.683 415.059 248.774H412.265V246.695H417.875C417.889 246.812 417.9 246.985 417.908 247.212C417.915 247.439 417.919 247.575 417.919 247.619C417.919 249.115 417.622 250.446 417.028 251.612C416.441 252.771 415.598 253.68 414.498 254.34C413.398 255 412.081 255.33 410.549 255.33ZM420.128 255V239.16H430.358V241.646H422.779V245.551H429.038V248.037H422.779V252.514H430.358V255H420.128ZM437.621 255V239.16H440.272V255H437.621ZM447.373 255V241.646H442.247V239.16H455.15V241.646H450.024V255H447.373ZM459.78 250.699C459.78 250.193 459.828 249.705 459.923 249.236C460.026 248.759 460.191 248.319 460.418 247.916C460.616 247.527 460.836 247.219 461.078 246.992C461.32 246.757 461.591 246.526 461.892 246.299C462.193 246.064 462.526 245.753 462.893 245.364C463.194 245.034 463.392 244.708 463.487 244.385C463.582 244.055 463.63 243.703 463.63 243.329C463.63 243.087 463.604 242.86 463.553 242.647C463.502 242.434 463.41 242.251 463.278 242.097C463.073 241.826 462.809 241.635 462.486 241.525C462.163 241.408 461.819 241.349 461.452 241.349C461.151 241.349 460.862 241.389 460.583 241.47C460.312 241.543 460.081 241.661 459.89 241.822C459.67 241.998 459.509 242.214 459.406 242.471C459.303 242.728 459.256 243.01 459.263 243.318H456.469C456.542 242.585 456.74 241.906 457.063 241.283C457.393 240.652 457.826 240.15 458.361 239.776C458.779 239.468 459.248 239.237 459.769 239.083C460.297 238.929 460.825 238.852 461.353 238.852C462.16 238.852 462.919 238.977 463.63 239.226C464.349 239.475 464.946 239.886 465.423 240.458C465.753 240.832 466.002 241.265 466.171 241.756C466.347 242.247 466.435 242.746 466.435 243.252C466.435 244.007 466.27 244.697 465.94 245.32C465.617 245.943 465.207 246.519 464.708 247.047C464.473 247.296 464.25 247.516 464.037 247.707C463.824 247.898 463.626 248.085 463.443 248.268C463.267 248.444 463.12 248.631 463.003 248.829C462.798 249.174 462.677 249.467 462.64 249.709C462.603 249.944 462.585 250.274 462.585 250.699H459.78ZM459.802 255V252.085H462.585V255H459.802Z" fill="white"></path></svg> 