<?xml version="1.0" encoding="UTF-8"?> <svg xmlns="http://www.w3.org/2000/svg" width="600" height="400" viewBox="0 0 600 400" fill="none"><rect width="600" height="400" rx="20" fill="#2F0743"></rect><path d="M56.2744 162V146.16H58.9254V152.826H66.4274V146.16H69.0674V162H66.4274V155.312H58.9254V162H56.2744ZM71.0513 162L76.0453 146.16H79.9283L84.9223 162H82.1943L77.6623 147.788H78.2563L73.7793 162H71.0513ZM73.8343 158.568V156.093H82.1503V158.568H73.8343ZM88.9282 162L83.9342 146.16H86.6622L90.8422 159.426L95.0772 146.16H97.8052L92.8112 162H88.9282ZM99.458 162V146.16H109.688V148.646H102.109V152.551H108.368V155.037H102.109V159.514H109.688V162H99.458ZM120.581 162V155.51L115.191 146.16H118.282L121.923 152.474L125.553 146.16H128.644L123.265 155.51V162H120.581ZM135.999 162.33C134.415 162.33 133.058 161.985 131.929 161.296C130.799 160.599 129.93 159.631 129.322 158.392C128.72 157.153 128.42 155.715 128.42 154.08C128.42 152.445 128.72 151.007 129.322 149.768C129.93 148.529 130.799 147.564 131.929 146.875C133.058 146.178 134.415 145.83 135.999 145.83C137.583 145.83 138.939 146.178 140.069 146.875C141.205 147.564 142.074 148.529 142.676 149.768C143.284 151.007 143.589 152.445 143.589 154.08C143.589 155.715 143.284 157.153 142.676 158.392C142.074 159.631 141.205 160.599 140.069 161.296C138.939 161.985 137.583 162.33 135.999 162.33ZM135.999 159.833C137.062 159.84 137.946 159.606 138.65 159.129C139.361 158.652 139.893 157.981 140.245 157.116C140.604 156.251 140.784 155.239 140.784 154.08C140.784 152.921 140.604 151.917 140.245 151.066C139.893 150.208 139.361 149.541 138.65 149.064C137.946 148.587 137.062 148.342 135.999 148.327C134.935 148.32 134.052 148.554 133.348 149.031C132.644 149.508 132.112 150.179 131.753 151.044C131.401 151.909 131.225 152.921 131.225 154.08C131.225 155.239 131.401 156.247 131.753 157.105C132.105 157.956 132.633 158.619 133.337 159.096C134.048 159.573 134.935 159.818 135.999 159.833ZM152.158 162.33C150.897 162.33 149.786 162.073 148.825 161.56C147.872 161.047 147.124 160.324 146.581 159.393C146.046 158.462 145.778 157.369 145.778 156.115V146.182L148.462 146.16V156.049C148.462 156.643 148.561 157.175 148.759 157.644C148.965 158.113 149.24 158.513 149.584 158.843C149.929 159.166 150.325 159.411 150.772 159.58C151.22 159.749 151.682 159.833 152.158 159.833C152.65 159.833 153.115 159.749 153.555 159.58C154.003 159.404 154.399 159.155 154.743 158.832C155.088 158.502 155.359 158.102 155.557 157.633C155.755 157.164 155.854 156.636 155.854 156.049V146.16H158.538V156.115C158.538 157.369 158.267 158.462 157.724 159.393C157.189 160.324 156.441 161.047 155.48 161.56C154.527 162.073 153.42 162.33 152.158 162.33ZM166.017 162V146.16H176.247V148.646H168.668V152.551H174.927V155.037H168.668V159.514H176.247V162H166.017ZM182.45 162L177.456 146.16H180.184L184.364 159.426L188.599 146.16H191.327L186.333 162H182.45ZM192.979 162V146.16H203.209V148.646H195.63V152.551H201.889V155.037H195.63V159.514H203.209V162H192.979ZM205.849 162V146.16H212.394C212.548 146.16 212.746 146.167 212.988 146.182C213.23 146.189 213.453 146.211 213.659 146.248C214.575 146.387 215.331 146.692 215.925 147.161C216.526 147.63 216.97 148.224 217.256 148.943C217.549 149.654 217.696 150.446 217.696 151.319C217.696 152.61 217.369 153.721 216.717 154.652C216.064 155.576 215.063 156.148 213.714 156.368L212.581 156.467H208.5V162H205.849ZM214.946 162L211.822 155.554L214.517 154.96L217.949 162H214.946ZM208.5 153.992H212.284C212.43 153.992 212.595 153.985 212.779 153.97C212.962 153.955 213.131 153.926 213.285 153.882C213.725 153.772 214.069 153.578 214.319 153.299C214.575 153.02 214.755 152.705 214.858 152.353C214.968 152.001 215.023 151.656 215.023 151.319C215.023 150.982 214.968 150.637 214.858 150.285C214.755 149.926 214.575 149.607 214.319 149.328C214.069 149.049 213.725 148.855 213.285 148.745C213.131 148.701 212.962 148.675 212.779 148.668C212.595 148.653 212.43 148.646 212.284 148.646H208.5V153.992ZM224.776 162V146.16H227.427V152.826H234.929V146.16H237.569V162H234.929V155.312H227.427V162H224.776ZM239.553 162L244.547 146.16H248.43L253.424 162H250.696L246.164 147.788H246.758L242.281 162H239.553ZM242.336 158.568V156.093H250.652V158.568H242.336ZM255.413 162V146.16H260.462C260.594 146.16 260.854 146.164 261.243 146.171C261.639 146.178 262.02 146.204 262.387 146.248C263.641 146.409 264.701 146.857 265.566 147.59C266.439 148.316 267.099 149.244 267.546 150.373C267.993 151.502 268.217 152.738 268.217 154.08C268.217 155.422 267.993 156.658 267.546 157.787C267.099 158.916 266.439 159.848 265.566 160.581C264.701 161.307 263.641 161.751 262.387 161.912C262.028 161.956 261.65 161.982 261.254 161.989C260.858 161.996 260.594 162 260.462 162H255.413ZM258.108 159.503H260.462C260.682 159.503 260.961 159.496 261.298 159.481C261.643 159.466 261.947 159.433 262.211 159.382C262.959 159.243 263.568 158.909 264.037 158.381C264.506 157.853 264.851 157.211 265.071 156.456C265.298 155.701 265.412 154.909 265.412 154.08C265.412 153.222 265.298 152.415 265.071 151.66C264.844 150.905 264.492 150.27 264.015 149.757C263.546 149.244 262.944 148.917 262.211 148.778C261.947 148.719 261.643 148.686 261.298 148.679C260.961 148.664 260.682 148.657 260.462 148.657H258.108V159.503ZM279.028 162V148.646H273.902V146.16H286.805V148.646H281.679V162H279.028ZM295.262 162.33C293.678 162.33 292.322 161.985 291.192 161.296C290.063 160.599 289.194 159.631 288.585 158.392C287.984 157.153 287.683 155.715 287.683 154.08C287.683 152.445 287.984 151.007 288.585 149.768C289.194 148.529 290.063 147.564 291.192 146.875C292.322 146.178 293.678 145.83 295.262 145.83C296.846 145.83 298.203 146.178 299.332 146.875C300.469 147.564 301.338 148.529 301.939 149.768C302.548 151.007 302.852 152.445 302.852 154.08C302.852 155.715 302.548 157.153 301.939 158.392C301.338 159.631 300.469 160.599 299.332 161.296C298.203 161.985 296.846 162.33 295.262 162.33ZM295.262 159.833C296.326 159.84 297.209 159.606 297.913 159.129C298.625 158.652 299.156 157.981 299.508 157.116C299.868 156.251 300.047 155.239 300.047 154.08C300.047 152.921 299.868 151.917 299.508 151.066C299.156 150.208 298.625 149.541 297.913 149.064C297.209 148.587 296.326 148.342 295.262 148.327C294.199 148.32 293.315 148.554 292.611 149.031C291.907 149.508 291.376 150.179 291.016 151.044C290.664 151.909 290.488 152.921 290.488 154.08C290.488 155.239 290.664 156.247 291.016 157.105C291.368 157.956 291.896 158.619 292.6 159.096C293.312 159.573 294.199 159.818 295.262 159.833ZM315.98 162.33C314.954 162.33 313.989 162.15 313.087 161.791C312.193 161.424 311.404 160.889 310.722 160.185C310.048 159.481 309.52 158.619 309.138 157.6C308.757 156.573 308.566 155.4 308.566 154.08C308.566 152.349 308.889 150.872 309.534 149.647C310.18 148.415 311.063 147.473 312.185 146.82C313.307 146.16 314.572 145.83 315.98 145.83C317.931 145.83 319.475 146.285 320.611 147.194C321.755 148.096 322.529 149.365 322.932 151L320.226 151.429C319.926 150.49 319.434 149.742 318.752 149.185C318.07 148.62 317.201 148.338 316.145 148.338C315.082 148.323 314.198 148.554 313.494 149.031C312.79 149.508 312.259 150.179 311.899 151.044C311.547 151.909 311.371 152.921 311.371 154.08C311.371 155.239 311.547 156.247 311.899 157.105C312.251 157.956 312.779 158.619 313.483 159.096C314.195 159.573 315.082 159.818 316.145 159.833C316.945 159.84 317.645 159.697 318.246 159.404C318.848 159.103 319.339 158.652 319.72 158.051C320.102 157.442 320.358 156.683 320.49 155.774H317.696V153.695H323.306C323.321 153.812 323.332 153.985 323.339 154.212C323.347 154.439 323.35 154.575 323.35 154.619C323.35 156.115 323.053 157.446 322.459 158.612C321.873 159.771 321.029 160.68 319.929 161.34C318.829 162 317.513 162.33 315.98 162.33ZM325.56 162V146.16H335.79V148.646H328.211V152.551H334.47V155.037H328.211V159.514H335.79V162H325.56ZM342.235 162V148.646H337.109V146.16H350.012V148.646H344.886V162H342.235ZM361.889 162.33C360.627 162.33 359.516 162.073 358.556 161.56C357.602 161.047 356.854 160.324 356.312 159.393C355.776 158.462 355.509 157.369 355.509 156.115V146.182L358.193 146.16V156.049C358.193 156.643 358.292 157.175 358.49 157.644C358.695 158.113 358.97 158.513 359.315 158.843C359.659 159.166 360.055 159.411 360.503 159.58C360.95 159.749 361.412 159.833 361.889 159.833C362.38 159.833 362.846 159.749 363.286 159.58C363.733 159.404 364.129 159.155 364.474 158.832C364.818 158.502 365.09 158.102 365.288 157.633C365.486 157.164 365.585 156.636 365.585 156.049V146.16H368.269V156.115C368.269 157.369 367.997 158.462 367.455 159.393C366.919 160.324 366.171 161.047 365.211 161.56C364.257 162.073 363.15 162.33 361.889 162.33ZM376.54 162.33C375.381 162.33 374.336 162.128 373.405 161.725C372.481 161.322 371.718 160.746 371.117 159.998C370.523 159.243 370.145 158.348 369.984 157.314L372.734 156.896C372.968 157.835 373.449 158.561 374.175 159.074C374.908 159.587 375.751 159.844 376.705 159.844C377.269 159.844 377.801 159.756 378.3 159.58C378.798 159.404 379.202 159.147 379.51 158.81C379.825 158.473 379.983 158.058 379.983 157.567C379.983 157.347 379.946 157.145 379.873 156.962C379.799 156.771 379.689 156.603 379.543 156.456C379.403 156.309 379.22 156.177 378.993 156.06C378.773 155.935 378.516 155.829 378.223 155.741L374.131 154.531C373.779 154.428 373.397 154.293 372.987 154.124C372.583 153.948 372.198 153.71 371.832 153.409C371.472 153.101 371.175 152.712 370.941 152.243C370.713 151.766 370.6 151.18 370.6 150.483C370.6 149.464 370.856 148.609 371.37 147.92C371.89 147.223 372.587 146.703 373.46 146.358C374.34 146.013 375.315 145.845 376.386 145.852C377.471 145.859 378.439 146.046 379.29 146.413C380.14 146.772 380.852 147.297 381.424 147.986C381.996 148.675 382.399 149.508 382.634 150.483L379.785 150.978C379.667 150.421 379.44 149.948 379.103 149.559C378.773 149.163 378.366 148.862 377.882 148.657C377.405 148.452 376.895 148.342 376.353 148.327C375.825 148.32 375.333 148.4 374.879 148.569C374.431 148.73 374.068 148.965 373.79 149.273C373.518 149.581 373.383 149.94 373.383 150.351C373.383 150.74 373.5 151.059 373.735 151.308C373.969 151.55 374.259 151.744 374.604 151.891C374.956 152.03 375.311 152.148 375.671 152.243L378.509 153.035C378.897 153.138 379.334 153.277 379.818 153.453C380.302 153.629 380.767 153.875 381.215 154.19C381.662 154.505 382.029 154.92 382.315 155.433C382.608 155.946 382.755 156.599 382.755 157.391C382.755 158.212 382.582 158.935 382.238 159.558C381.9 160.174 381.442 160.687 380.863 161.098C380.283 161.509 379.62 161.817 378.872 162.022C378.131 162.227 377.354 162.33 376.54 162.33ZM385.136 162V146.16H395.366V148.646H387.787V152.551H394.046V155.037H387.787V159.514H395.366V162H385.136ZM398.005 162V146.16H403.054C403.186 146.16 403.446 146.164 403.835 146.171C404.231 146.178 404.612 146.204 404.979 146.248C406.233 146.409 407.293 146.857 408.158 147.59C409.031 148.316 409.691 149.244 410.138 150.373C410.585 151.502 410.809 152.738 410.809 154.08C410.809 155.422 410.585 156.658 410.138 157.787C409.691 158.916 409.031 159.848 408.158 160.581C407.293 161.307 406.233 161.751 404.979 161.912C404.62 161.956 404.242 161.982 403.846 161.989C403.45 161.996 403.186 162 403.054 162H398.005ZM400.7 159.503H403.054C403.274 159.503 403.553 159.496 403.89 159.481C404.235 159.466 404.539 159.433 404.803 159.382C405.551 159.243 406.16 158.909 406.629 158.381C407.098 157.853 407.443 157.211 407.663 156.456C407.89 155.701 408.004 154.909 408.004 154.08C408.004 153.222 407.89 152.415 407.663 151.66C407.436 150.905 407.084 150.27 406.607 149.757C406.138 149.244 405.536 148.917 404.803 148.778C404.539 148.719 404.235 148.686 403.89 148.679C403.553 148.664 403.274 148.657 403.054 148.657H400.7V159.503ZM421.619 162V148.646H416.493V146.16H429.396V148.646H424.27V162H421.619ZM437.854 162.33C436.27 162.33 434.914 161.985 433.784 161.296C432.655 160.599 431.786 159.631 431.177 158.392C430.576 157.153 430.275 155.715 430.275 154.08C430.275 152.445 430.576 151.007 431.177 149.768C431.786 148.529 432.655 147.564 433.784 146.875C434.914 146.178 436.27 145.83 437.854 145.83C439.438 145.83 440.795 146.178 441.924 146.875C443.061 147.564 443.93 148.529 444.531 149.768C445.14 151.007 445.444 152.445 445.444 154.08C445.444 155.715 445.14 157.153 444.531 158.392C443.93 159.631 443.061 160.599 441.924 161.296C440.795 161.985 439.438 162.33 437.854 162.33ZM437.854 159.833C438.918 159.84 439.801 159.606 440.505 159.129C441.217 158.652 441.748 157.981 442.1 157.116C442.46 156.251 442.639 155.239 442.639 154.08C442.639 152.921 442.46 151.917 442.1 151.066C441.748 150.208 441.217 149.541 440.505 149.064C439.801 148.587 438.918 148.342 437.854 148.327C436.791 148.32 435.907 148.554 435.203 149.031C434.499 149.508 433.968 150.179 433.608 151.044C433.256 151.909 433.08 152.921 433.08 154.08C433.08 155.239 433.256 156.247 433.608 157.105C433.96 157.956 434.488 158.619 435.192 159.096C435.904 159.573 436.791 159.818 437.854 159.833ZM450.938 162L455.932 146.16H459.815L464.809 162H462.081L457.549 147.788H458.143L453.666 162H450.938ZM453.721 158.568V156.093H462.037V158.568H453.721ZM471.202 162V146.16H473.589L479.067 157.38L484.545 146.16H486.932V162H484.457V151.847L479.595 162H478.539L473.688 151.847V162H471.202ZM488.922 162L493.916 146.16H497.799L502.793 162H500.065L495.533 147.788H496.127L491.65 162H488.922ZM491.705 158.568V156.093H500.021V158.568H491.705ZM507.95 162.33C506.74 162.33 505.732 162.015 504.925 161.384C504.126 160.753 503.565 159.903 503.242 158.832L505.86 158.205C505.941 158.652 506.176 159.037 506.564 159.36C506.953 159.683 507.382 159.844 507.851 159.844C508.159 159.844 508.486 159.763 508.83 159.602C509.175 159.433 509.432 159.166 509.6 158.799C509.703 158.564 509.762 158.286 509.776 157.963C509.798 157.633 509.809 157.252 509.809 156.819V146.16H512.493V156.819C512.493 157.31 512.49 157.743 512.482 158.117C512.482 158.484 512.446 158.832 512.372 159.162C512.306 159.485 512.171 159.818 511.965 160.163C511.533 160.911 510.968 161.461 510.271 161.813C509.575 162.158 508.801 162.33 507.95 162.33ZM522.503 162.33C520.919 162.33 519.562 161.985 518.433 161.296C517.303 160.599 516.434 159.631 515.826 158.392C515.224 157.153 514.924 155.715 514.924 154.08C514.924 152.445 515.224 151.007 515.826 149.768C516.434 148.529 517.303 147.564 518.433 146.875C519.562 146.178 520.919 145.83 522.503 145.83C524.087 145.83 525.443 146.178 526.573 146.875C527.709 147.564 528.578 148.529 529.18 149.768C529.788 151.007 530.093 152.445 530.093 154.08C530.093 155.715 529.788 157.153 529.18 158.392C528.578 159.631 527.709 160.599 526.573 161.296C525.443 161.985 524.087 162.33 522.503 162.33ZM522.503 159.833C523.566 159.84 524.45 159.606 525.154 159.129C525.865 158.652 526.397 157.981 526.749 157.116C527.108 156.251 527.288 155.239 527.288 154.08C527.288 152.921 527.108 151.917 526.749 151.066C526.397 150.208 525.865 149.541 525.154 149.064C524.45 148.587 523.566 148.342 522.503 148.327C521.439 148.32 520.556 148.554 519.852 149.031C519.148 149.508 518.616 150.179 518.257 151.044C517.905 151.909 517.729 152.921 517.729 154.08C517.729 155.239 517.905 156.247 518.257 157.105C518.609 157.956 519.137 158.619 519.841 159.096C520.552 159.573 521.439 159.818 522.503 159.833ZM532.282 162V146.16H538.827C538.981 146.16 539.179 146.167 539.421 146.182C539.663 146.189 539.887 146.211 540.092 146.248C541.009 146.387 541.764 146.692 542.358 147.161C542.96 147.63 543.403 148.224 543.689 148.943C543.983 149.654 544.129 150.446 544.129 151.319C544.129 152.61 543.803 153.721 543.15 154.652C542.498 155.576 541.497 156.148 540.147 156.368L539.014 156.467H534.933V162H532.282ZM541.379 162L538.255 155.554L540.95 154.96L544.382 162H541.379ZM534.933 153.992H538.717C538.864 153.992 539.029 153.985 539.212 153.97C539.396 153.955 539.564 153.926 539.718 153.882C540.158 153.772 540.503 153.578 540.752 153.299C541.009 153.02 541.189 152.705 541.291 152.353C541.401 152.001 541.456 151.656 541.456 151.319C541.456 150.982 541.401 150.637 541.291 150.285C541.189 149.926 541.009 149.607 540.752 149.328C540.503 149.049 540.158 148.855 539.718 148.745C539.564 148.701 539.396 148.675 539.212 148.668C539.029 148.653 538.864 148.646 538.717 148.646H534.933V153.992ZM50.8977 193V177.16H53.5487V190.514H60.5447V193H50.8977ZM62.6282 193V177.16H65.2792V193H62.6282ZM68.5742 193V177.16H78.1112V179.811H71.2252V183.76H76.7912V186.4H71.2252V193H68.5742ZM80.0898 193V177.16H90.3198V179.646H82.7408V183.551H88.9998V186.037H82.7408V190.514H90.3198V193H80.0898ZM104.062 193.33C102.478 193.33 101.122 192.985 99.9922 192.296C98.8629 191.599 97.9939 190.631 97.3852 189.392C96.7839 188.153 96.4832 186.715 96.4832 185.08C96.4832 183.445 96.7839 182.007 97.3852 180.768C97.9939 179.529 98.8629 178.564 99.9922 177.875C101.122 177.178 102.478 176.83 104.062 176.83C105.888 176.83 107.41 177.288 108.627 178.205C109.845 179.114 110.699 180.343 111.19 181.89L108.517 182.627C108.209 181.593 107.685 180.786 106.944 180.207C106.204 179.62 105.243 179.327 104.062 179.327C102.999 179.327 102.112 179.565 101.4 180.042C100.696 180.519 100.165 181.19 99.8052 182.055C99.4532 182.913 99.2736 183.921 99.2662 185.08C99.2662 186.239 99.4422 187.251 99.7942 188.116C100.154 188.974 100.689 189.641 101.4 190.118C102.112 190.595 102.999 190.833 104.062 190.833C105.243 190.833 106.204 190.54 106.944 189.953C107.685 189.366 108.209 188.56 108.517 187.533L111.19 188.27C110.699 189.817 109.845 191.049 108.627 191.966C107.41 192.875 105.888 193.33 104.062 193.33ZM113.605 193V177.16H116.256V183.826H123.758V177.16H126.398V193H123.758V186.312H116.256V193H113.605ZM128.382 193L133.376 177.16H137.259L142.253 193H139.525L134.993 178.788H135.587L131.11 193H128.382ZM131.165 189.568V187.093H139.481V189.568H131.165ZM144.242 193V177.16H146.926L154.274 188.325V177.16H156.958V193H154.274L146.926 181.835V193H144.242ZM166.567 193.33C165.54 193.33 164.576 193.15 163.674 192.791C162.779 192.424 161.991 191.889 161.309 191.185C160.634 190.481 160.106 189.619 159.725 188.6C159.344 187.573 159.153 186.4 159.153 185.08C159.153 183.349 159.476 181.872 160.121 180.647C160.766 179.415 161.65 178.473 162.772 177.82C163.894 177.16 165.159 176.83 166.567 176.83C168.518 176.83 170.061 177.285 171.198 178.194C172.342 179.096 173.116 180.365 173.519 182L170.813 182.429C170.512 181.49 170.021 180.742 169.339 180.185C168.657 179.62 167.788 179.338 166.732 179.338C165.669 179.323 164.785 179.554 164.081 180.031C163.377 180.508 162.845 181.179 162.486 182.044C162.134 182.909 161.958 183.921 161.958 185.08C161.958 186.239 162.134 187.247 162.486 188.105C162.838 188.956 163.366 189.619 164.07 190.096C164.781 190.573 165.669 190.818 166.732 190.833C167.531 190.84 168.232 190.697 168.833 190.404C169.434 190.103 169.926 189.652 170.307 189.051C170.688 188.442 170.945 187.683 171.077 186.774H168.283V184.695H173.893C173.908 184.812 173.919 184.985 173.926 185.212C173.933 185.439 173.937 185.575 173.937 185.619C173.937 187.115 173.64 188.446 173.046 189.612C172.459 190.771 171.616 191.68 170.516 192.34C169.416 193 168.1 193.33 166.567 193.33ZM176.146 193V177.16H186.376V179.646H178.797V183.551H185.056V186.037H178.797V190.514H186.376V193H176.146ZM197.226 193V179.646H192.1V177.16H205.003V179.646H199.877V193H197.226ZM206.762 193V177.16H209.413V183.826H216.915V177.16H219.555V193H216.915V186.312H209.413V193H206.762ZM221.539 193L226.533 177.16H230.416L235.41 193H232.682L228.15 178.788H228.744L224.267 193H221.539ZM224.322 189.568V187.093H232.638V189.568H224.322ZM239.894 193V179.646H234.768V177.16H247.671V179.646H242.545V193H239.894ZM256.512 193L251.881 177.16H254.664L257.821 188.6L260.967 177.182L263.75 177.16L266.907 188.6L270.053 177.16H272.836L268.216 193H265.598L262.353 181.736L259.13 193H256.512ZM271.984 193L276.978 177.16H280.861L285.855 193H283.127L278.595 178.788H279.189L274.712 193H271.984ZM274.767 189.568V187.093H283.083V189.568H274.767ZM293.277 193.33C292.118 193.33 291.073 193.128 290.142 192.725C289.218 192.322 288.455 191.746 287.854 190.998C287.26 190.243 286.882 189.348 286.721 188.314L289.471 187.896C289.706 188.835 290.186 189.561 290.912 190.074C291.645 190.587 292.489 190.844 293.442 190.844C294.007 190.844 294.538 190.756 295.037 190.58C295.536 190.404 295.939 190.147 296.247 189.81C296.562 189.473 296.72 189.058 296.72 188.567C296.72 188.347 296.683 188.145 296.61 187.962C296.537 187.771 296.427 187.603 296.28 187.456C296.141 187.309 295.957 187.177 295.73 187.06C295.51 186.935 295.253 186.829 294.96 186.741L290.868 185.531C290.516 185.428 290.135 185.293 289.724 185.124C289.321 184.948 288.936 184.71 288.569 184.409C288.21 184.101 287.913 183.712 287.678 183.243C287.451 182.766 287.337 182.18 287.337 181.483C287.337 180.464 287.594 179.609 288.107 178.92C288.628 178.223 289.324 177.703 290.197 177.358C291.077 177.013 292.052 176.845 293.123 176.852C294.208 176.859 295.176 177.046 296.027 177.413C296.878 177.772 297.589 178.297 298.161 178.986C298.733 179.675 299.136 180.508 299.371 181.483L296.522 181.978C296.405 181.421 296.177 180.948 295.84 180.559C295.51 180.163 295.103 179.862 294.619 179.657C294.142 179.452 293.633 179.342 293.09 179.327C292.562 179.32 292.071 179.4 291.616 179.569C291.169 179.73 290.806 179.965 290.527 180.273C290.256 180.581 290.12 180.94 290.12 181.351C290.12 181.74 290.237 182.059 290.472 182.308C290.707 182.55 290.996 182.744 291.341 182.891C291.693 183.03 292.049 183.148 292.408 183.243L295.246 184.035C295.635 184.138 296.071 184.277 296.555 184.453C297.039 184.629 297.505 184.875 297.952 185.19C298.399 185.505 298.766 185.92 299.052 186.433C299.345 186.946 299.492 187.599 299.492 188.391C299.492 189.212 299.32 189.935 298.975 190.558C298.638 191.174 298.179 191.687 297.6 192.098C297.021 192.509 296.357 192.817 295.609 193.022C294.868 193.227 294.091 193.33 293.277 193.33ZM306.277 193V177.16H311.326C311.458 177.16 311.719 177.164 312.107 177.171C312.503 177.178 312.885 177.204 313.251 177.248C314.505 177.409 315.565 177.857 316.43 178.59C317.303 179.316 317.963 180.244 318.41 181.373C318.858 182.502 319.081 183.738 319.081 185.08C319.081 186.422 318.858 187.658 318.41 188.787C317.963 189.916 317.303 190.848 316.43 191.581C315.565 192.307 314.505 192.751 313.251 192.912C312.892 192.956 312.514 192.982 312.118 192.989C311.722 192.996 311.458 193 311.326 193H306.277ZM308.972 190.503H311.326C311.546 190.503 311.825 190.496 312.162 190.481C312.507 190.466 312.811 190.433 313.075 190.382C313.823 190.243 314.432 189.909 314.901 189.381C315.371 188.853 315.715 188.211 315.935 187.456C316.163 186.701 316.276 185.909 316.276 185.08C316.276 184.222 316.163 183.415 315.935 182.66C315.708 181.905 315.356 181.27 314.879 180.757C314.41 180.244 313.809 179.917 313.075 179.778C312.811 179.719 312.507 179.686 312.162 179.679C311.825 179.664 311.546 179.657 311.326 179.657H308.972V190.503ZM321.902 193V177.16H324.553V193H321.902ZM327.848 193V177.16H337.385V179.811H330.499V183.76H336.065V186.4H330.499V193H327.848ZM339.363 193V177.16H348.9V179.811H342.014V183.76H347.58V186.4H342.014V193H339.363ZM351.099 193V177.16H353.75V193H351.099ZM363.744 193.33C362.16 193.33 360.803 192.985 359.674 192.296C358.545 191.599 357.676 190.631 357.067 189.392C356.466 188.153 356.165 186.715 356.165 185.08C356.165 183.445 356.466 182.007 357.067 180.768C357.676 179.529 358.545 178.564 359.674 177.875C360.803 177.178 362.16 176.83 363.744 176.83C365.57 176.83 367.092 177.288 368.309 178.205C369.526 179.114 370.381 180.343 370.872 181.89L368.199 182.627C367.891 181.593 367.367 180.786 366.626 180.207C365.885 179.62 364.925 179.327 363.744 179.327C362.681 179.327 361.793 179.565 361.082 180.042C360.378 180.519 359.846 181.19 359.487 182.055C359.135 182.913 358.955 183.921 358.948 185.08C358.948 186.239 359.124 187.251 359.476 188.116C359.835 188.974 360.371 189.641 361.082 190.118C361.793 190.595 362.681 190.833 363.744 190.833C364.925 190.833 365.885 190.54 366.626 189.953C367.367 189.366 367.891 188.56 368.199 187.533L370.872 188.27C370.381 189.817 369.526 191.049 368.309 191.966C367.092 192.875 365.57 193.33 363.744 193.33ZM379.667 193.33C378.406 193.33 377.295 193.073 376.334 192.56C375.381 192.047 374.633 191.324 374.09 190.393C373.555 189.462 373.287 188.369 373.287 187.115V177.182L375.971 177.16V187.049C375.971 187.643 376.07 188.175 376.268 188.644C376.473 189.113 376.748 189.513 377.093 189.843C377.438 190.166 377.834 190.411 378.281 190.58C378.728 190.749 379.19 190.833 379.667 190.833C380.158 190.833 380.624 190.749 381.064 190.58C381.511 190.404 381.907 190.155 382.252 189.832C382.597 189.502 382.868 189.102 383.066 188.633C383.264 188.164 383.363 187.636 383.363 187.049V177.16H386.047V187.115C386.047 188.369 385.776 189.462 385.233 190.393C384.698 191.324 383.95 192.047 382.989 192.56C382.036 193.073 380.928 193.33 379.667 193.33ZM389.341 193V177.16H391.992V190.514H398.988V193H389.341ZM402.466 193V179.646H397.34V177.16H410.243V179.646H405.117V193H402.466ZM414.64 193L419.634 177.16H423.517L428.511 193H425.783L421.251 178.788H421.845L417.368 193H414.64ZM417.423 189.568V187.093H425.739V189.568H417.423ZM432.995 193V179.646H427.869V177.16H440.772V179.646H435.646V193H432.995ZM446.269 193V177.16H455.806V179.811H448.92V183.76H454.486V186.4H448.92V193H446.269ZM458.005 193V177.16H460.656V193H458.005ZM463.951 193V177.16H470.496C470.65 177.16 470.848 177.167 471.09 177.182C471.332 177.189 471.556 177.211 471.761 177.248C472.678 177.387 473.433 177.692 474.027 178.161C474.628 178.63 475.072 179.224 475.358 179.943C475.651 180.654 475.798 181.446 475.798 182.319C475.798 183.61 475.472 184.721 474.819 185.652C474.166 186.576 473.165 187.148 471.816 187.368L470.683 187.467H466.602V193H463.951ZM473.048 193L469.924 186.554L472.619 185.96L476.051 193H473.048ZM466.602 184.992H470.386C470.533 184.992 470.698 184.985 470.881 184.97C471.064 184.955 471.233 184.926 471.387 184.882C471.827 184.772 472.172 184.578 472.421 184.299C472.678 184.02 472.857 183.705 472.96 183.353C473.07 183.001 473.125 182.656 473.125 182.319C473.125 181.982 473.07 181.637 472.96 181.285C472.857 180.926 472.678 180.607 472.421 180.328C472.172 180.049 471.827 179.855 471.387 179.745C471.233 179.701 471.064 179.675 470.881 179.668C470.698 179.653 470.533 179.646 470.386 179.646H466.602V184.992ZM484.338 193.33C483.179 193.33 482.134 193.128 481.203 192.725C480.279 192.322 479.516 191.746 478.915 190.998C478.321 190.243 477.943 189.348 477.782 188.314L480.532 187.896C480.766 188.835 481.247 189.561 481.973 190.074C482.706 190.587 483.549 190.844 484.503 190.844C485.067 190.844 485.599 190.756 486.098 190.58C486.596 190.404 487 190.147 487.308 189.81C487.623 189.473 487.781 189.058 487.781 188.567C487.781 188.347 487.744 188.145 487.671 187.962C487.597 187.771 487.487 187.603 487.341 187.456C487.201 187.309 487.018 187.177 486.791 187.06C486.571 186.935 486.314 186.829 486.021 186.741L481.929 185.531C481.577 185.428 481.195 185.293 480.785 185.124C480.381 184.948 479.996 184.71 479.63 184.409C479.27 184.101 478.973 183.712 478.739 183.243C478.511 182.766 478.398 182.18 478.398 181.483C478.398 180.464 478.654 179.609 479.168 178.92C479.688 178.223 480.385 177.703 481.258 177.358C482.138 177.013 483.113 176.845 484.184 176.852C485.269 176.859 486.237 177.046 487.088 177.413C487.938 177.772 488.65 178.297 489.222 178.986C489.794 179.675 490.197 180.508 490.432 181.483L487.583 181.978C487.465 181.421 487.238 180.948 486.901 180.559C486.571 180.163 486.164 179.862 485.68 179.657C485.203 179.452 484.693 179.342 484.151 179.327C483.623 179.32 483.131 179.4 482.677 179.569C482.229 179.73 481.866 179.965 481.588 180.273C481.316 180.581 481.181 180.94 481.181 181.351C481.181 181.74 481.298 182.059 481.533 182.308C481.767 182.55 482.057 182.744 482.402 182.891C482.754 183.03 483.109 183.148 483.469 183.243L486.307 184.035C486.695 184.138 487.132 184.277 487.616 184.453C488.1 184.629 488.565 184.875 489.013 185.19C489.46 185.505 489.827 185.92 490.113 186.433C490.406 186.946 490.553 187.599 490.553 188.391C490.553 189.212 490.38 189.935 490.036 190.558C489.698 191.174 489.24 191.687 488.661 192.098C488.081 192.509 487.418 192.817 486.67 193.022C485.929 193.227 485.152 193.33 484.338 193.33ZM496.74 193V179.646H491.614V177.16H504.517V179.646H499.391V193H496.74ZM510.014 193V177.16H516.295C517.365 177.16 518.242 177.376 518.924 177.809C519.613 178.234 520.123 178.781 520.453 179.448C520.79 180.115 520.959 180.805 520.959 181.516C520.959 182.389 520.75 183.129 520.332 183.738C519.921 184.347 519.36 184.757 518.649 184.97V184.42C519.646 184.647 520.401 185.12 520.915 185.839C521.435 186.558 521.696 187.375 521.696 188.292C521.696 189.231 521.516 190.052 521.157 190.756C520.797 191.46 520.262 192.01 519.551 192.406C518.847 192.802 517.974 193 516.933 193H510.014ZM512.698 190.503H516.603C517.065 190.503 517.479 190.411 517.846 190.228C518.212 190.037 518.498 189.773 518.704 189.436C518.916 189.091 519.023 188.684 519.023 188.215C519.023 187.79 518.931 187.408 518.748 187.071C518.564 186.734 518.297 186.466 517.945 186.268C517.593 186.063 517.171 185.96 516.68 185.96H512.698V190.503ZM512.698 183.485H516.262C516.643 183.485 516.984 183.412 517.285 183.265C517.585 183.118 517.824 182.902 518 182.616C518.176 182.33 518.264 181.978 518.264 181.56C518.264 181.01 518.088 180.552 517.736 180.185C517.384 179.818 516.892 179.635 516.262 179.635H512.698V183.485ZM530.273 193.33C529.011 193.33 527.9 193.073 526.94 192.56C525.986 192.047 525.238 191.324 524.696 190.393C524.16 189.462 523.893 188.369 523.893 187.115V177.182L526.577 177.16V187.049C526.577 187.643 526.676 188.175 526.874 188.644C527.079 189.113 527.354 189.513 527.699 189.843C528.043 190.166 528.439 190.411 528.887 190.58C529.334 190.749 529.796 190.833 530.273 190.833C530.764 190.833 531.23 190.749 531.67 190.58C532.117 190.404 532.513 190.155 532.858 189.832C533.202 189.502 533.474 189.102 533.672 188.633C533.87 188.164 533.969 187.636 533.969 187.049V177.16H536.653V187.115C536.653 188.369 536.381 189.462 535.839 190.393C535.303 191.324 534.555 192.047 533.595 192.56C532.641 193.073 531.534 193.33 530.273 193.33ZM543.533 193V179.646H538.407V177.16H551.31V179.646H546.184V193H543.533ZM47.2005 224V210.646H42.0745V208.16H54.9775V210.646H49.8515V224H47.2005ZM63.1163 224.33C61.855 224.33 60.744 224.073 59.7833 223.56C58.83 223.047 58.082 222.324 57.5393 221.393C57.004 220.462 56.7363 219.369 56.7363 218.115V208.182L59.4203 208.16V218.049C59.4203 218.643 59.5193 219.175 59.7173 219.644C59.9226 220.113 60.1976 220.513 60.5423 220.843C60.887 221.166 61.283 221.411 61.7303 221.58C62.1776 221.749 62.6396 221.833 63.1163 221.833C63.6076 221.833 64.0733 221.749 64.5133 221.58C64.9606 221.404 65.3566 221.155 65.7013 220.832C66.046 220.502 66.3173 220.102 66.5153 219.633C66.7133 219.164 66.8123 218.636 66.8123 218.049V208.16H69.4963V218.115C69.4963 219.369 69.225 220.462 68.6823 221.393C68.147 222.324 67.399 223.047 66.4383 223.56C65.485 224.073 64.3776 224.33 63.1163 224.33ZM72.5703 224V208.16H79.1153C79.2693 208.16 79.4673 208.167 79.7093 208.182C79.9513 208.189 80.1749 208.211 80.3803 208.248C81.2969 208.387 82.0523 208.692 82.6463 209.161C83.2476 209.63 83.6913 210.224 83.9773 210.943C84.2706 211.654 84.4173 212.446 84.4173 213.319C84.4173 214.61 84.0909 215.721 83.4383 216.652C82.7856 217.576 81.7846 218.148 80.4353 218.368L79.3023 218.467H75.2213V224H72.5703ZM81.6673 224L78.5433 217.554L81.2383 216.96L84.6703 224H81.6673ZM75.2213 215.992H79.0053C79.1519 215.992 79.3169 215.985 79.5003 215.97C79.6836 215.955 79.8523 215.926 80.0063 215.882C80.4463 215.772 80.7909 215.578 81.0403 215.299C81.2969 215.02 81.4766 214.705 81.5793 214.353C81.6893 214.001 81.7443 213.656 81.7443 213.319C81.7443 212.982 81.6893 212.637 81.5793 212.285C81.4766 211.926 81.2969 211.607 81.0403 211.328C80.7909 211.049 80.4463 210.855 80.0063 210.745C79.8523 210.701 79.6836 210.675 79.5003 210.668C79.3169 210.653 79.1519 210.646 79.0053 210.646H75.2213V215.992ZM87.0937 224V208.16H89.7777L97.1257 219.325V208.16H99.8097V224H97.1257L89.7777 212.835V224H87.0937ZM102.885 224V208.16H113.115V210.646H105.536V214.551H111.795V217.037H105.536V221.514H113.115V224H102.885ZM115.754 224V208.16H120.803C120.935 208.16 121.195 208.164 121.584 208.171C121.98 208.178 122.361 208.204 122.728 208.248C123.982 208.409 125.042 208.857 125.907 209.59C126.78 210.316 127.44 211.244 127.887 212.373C128.334 213.502 128.558 214.738 128.558 216.08C128.558 217.422 128.334 218.658 127.887 219.787C127.44 220.916 126.78 221.848 125.907 222.581C125.042 223.307 123.982 223.751 122.728 223.912C122.369 223.956 121.991 223.982 121.595 223.989C121.199 223.996 120.935 224 120.803 224H115.754ZM118.449 221.503H120.803C121.023 221.503 121.302 221.496 121.639 221.481C121.984 221.466 122.288 221.433 122.552 221.382C123.3 221.243 123.909 220.909 124.378 220.381C124.847 219.853 125.192 219.211 125.412 218.456C125.639 217.701 125.753 216.909 125.753 216.08C125.753 215.222 125.639 214.415 125.412 213.66C125.185 212.905 124.833 212.27 124.356 211.757C123.887 211.244 123.285 210.917 122.552 210.778C122.288 210.719 121.984 210.686 121.639 210.679C121.302 210.664 121.023 210.657 120.803 210.657H118.449V221.503ZM142.261 224.33C140.677 224.33 139.321 223.985 138.191 223.296C137.062 222.599 136.193 221.631 135.584 220.392C134.983 219.153 134.682 217.715 134.682 216.08C134.682 214.445 134.983 213.007 135.584 211.768C136.193 210.529 137.062 209.564 138.191 208.875C139.321 208.178 140.677 207.83 142.261 207.83C143.845 207.83 145.202 208.178 146.331 208.875C147.468 209.564 148.337 210.529 148.938 211.768C149.547 213.007 149.851 214.445 149.851 216.08C149.851 217.715 149.547 219.153 148.938 220.392C148.337 221.631 147.468 222.599 146.331 223.296C145.202 223.985 143.845 224.33 142.261 224.33ZM142.261 221.833C143.325 221.84 144.208 221.606 144.912 221.129C145.624 220.652 146.155 219.981 146.507 219.116C146.867 218.251 147.046 217.239 147.046 216.08C147.046 214.921 146.867 213.917 146.507 213.066C146.155 212.208 145.624 211.541 144.912 211.064C144.208 210.587 143.325 210.342 142.261 210.327C141.198 210.32 140.314 210.554 139.61 211.031C138.906 211.508 138.375 212.179 138.015 213.044C137.663 213.909 137.487 214.921 137.487 216.08C137.487 217.239 137.663 218.247 138.015 219.105C138.367 219.956 138.895 220.619 139.599 221.096C140.311 221.573 141.198 221.818 142.261 221.833ZM158.421 224.33C157.16 224.33 156.049 224.073 155.088 223.56C154.135 223.047 153.387 222.324 152.844 221.393C152.309 220.462 152.041 219.369 152.041 218.115V208.182L154.725 208.16V218.049C154.725 218.643 154.824 219.175 155.022 219.644C155.227 220.113 155.502 220.513 155.847 220.843C156.192 221.166 156.588 221.411 157.035 221.58C157.482 221.749 157.944 221.833 158.421 221.833C158.912 221.833 159.378 221.749 159.818 221.58C160.265 221.404 160.661 221.155 161.006 220.832C161.351 220.502 161.622 220.102 161.82 219.633C162.018 219.164 162.117 218.636 162.117 218.049V208.16H164.801V218.115C164.801 219.369 164.53 220.462 163.987 221.393C163.452 222.324 162.704 223.047 161.743 223.56C160.79 224.073 159.682 224.33 158.421 224.33ZM171.681 224V210.646H166.555V208.16H179.458V210.646H174.332V224H171.681ZM188.761 224V210.646H183.635V208.16H196.538V210.646H191.412V224H188.761ZM204.996 224.33C203.412 224.33 202.055 223.985 200.926 223.296C199.797 222.599 198.928 221.631 198.319 220.392C197.718 219.153 197.417 217.715 197.417 216.08C197.417 214.445 197.718 213.007 198.319 211.768C198.928 210.529 199.797 209.564 200.926 208.875C202.055 208.178 203.412 207.83 204.996 207.83C206.58 207.83 207.937 208.178 209.066 208.875C210.203 209.564 211.072 210.529 211.673 211.768C212.282 213.007 212.586 214.445 212.586 216.08C212.586 217.715 212.282 219.153 211.673 220.392C211.072 221.631 210.203 222.599 209.066 223.296C207.937 223.985 206.58 224.33 204.996 224.33ZM204.996 221.833C206.059 221.84 206.943 221.606 207.647 221.129C208.358 220.652 208.89 219.981 209.242 219.116C209.601 218.251 209.781 217.239 209.781 216.08C209.781 214.921 209.601 213.917 209.242 213.066C208.89 212.208 208.358 211.541 207.647 211.064C206.943 210.587 206.059 210.342 204.996 210.327C203.933 210.32 203.049 210.554 202.345 211.031C201.641 211.508 201.109 212.179 200.75 213.044C200.398 213.909 200.222 214.921 200.222 216.08C200.222 217.239 200.398 218.247 200.75 219.105C201.102 219.956 201.63 220.619 202.334 221.096C203.045 221.573 203.933 221.818 204.996 221.833ZM219.18 224V208.16H225.461C226.531 208.16 227.408 208.376 228.09 208.809C228.779 209.234 229.289 209.781 229.619 210.448C229.956 211.115 230.125 211.805 230.125 212.516C230.125 213.389 229.916 214.129 229.498 214.738C229.087 215.347 228.526 215.757 227.815 215.97V215.42C228.812 215.647 229.567 216.12 230.081 216.839C230.601 217.558 230.862 218.375 230.862 219.292C230.862 220.231 230.682 221.052 230.323 221.756C229.963 222.46 229.428 223.01 228.717 223.406C228.013 223.802 227.14 224 226.099 224H219.18ZM221.864 221.503H225.769C226.231 221.503 226.645 221.411 227.012 221.228C227.378 221.037 227.664 220.773 227.87 220.436C228.082 220.091 228.189 219.684 228.189 219.215C228.189 218.79 228.097 218.408 227.914 218.071C227.73 217.734 227.463 217.466 227.111 217.268C226.759 217.063 226.337 216.96 225.846 216.96H221.864V221.503ZM221.864 214.485H225.428C225.809 214.485 226.15 214.412 226.451 214.265C226.751 214.118 226.99 213.902 227.166 213.616C227.342 213.33 227.43 212.978 227.43 212.56C227.43 212.01 227.254 211.552 226.902 211.185C226.55 210.818 226.058 210.635 225.428 210.635H221.864V214.485ZM233.059 224V208.16H243.289V210.646H235.71V214.551H241.969V217.037H235.71V221.514H243.289V224H233.059ZM250.332 224V208.16H259.869V210.811H252.983V214.76H258.549V217.4H252.983V224H250.332ZM268.547 224.33C266.963 224.33 265.606 223.985 264.477 223.296C263.347 222.599 262.478 221.631 261.87 220.392C261.268 219.153 260.968 217.715 260.968 216.08C260.968 214.445 261.268 213.007 261.87 211.768C262.478 210.529 263.347 209.564 264.477 208.875C265.606 208.178 266.963 207.83 268.547 207.83C270.131 207.83 271.487 208.178 272.617 208.875C273.753 209.564 274.622 210.529 275.224 211.768C275.832 213.007 276.137 214.445 276.137 216.08C276.137 217.715 275.832 219.153 275.224 220.392C274.622 221.631 273.753 222.599 272.617 223.296C271.487 223.985 270.131 224.33 268.547 224.33ZM268.547 221.833C269.61 221.84 270.494 221.606 271.198 221.129C271.909 220.652 272.441 219.981 272.793 219.116C273.152 218.251 273.332 217.239 273.332 216.08C273.332 214.921 273.152 213.917 272.793 213.066C272.441 212.208 271.909 211.541 271.198 211.064C270.494 210.587 269.61 210.342 268.547 210.327C267.483 210.32 266.6 210.554 265.896 211.031C265.192 211.508 264.66 212.179 264.301 213.044C263.949 213.909 263.773 214.921 263.773 216.08C263.773 217.239 263.949 218.247 264.301 219.105C264.653 219.956 265.181 220.619 265.885 221.096C266.596 221.573 267.483 221.818 268.547 221.833ZM278.326 224V208.16H284.871C285.025 208.16 285.223 208.167 285.465 208.182C285.707 208.189 285.931 208.211 286.136 208.248C287.053 208.387 287.808 208.692 288.402 209.161C289.003 209.63 289.447 210.224 289.733 210.943C290.026 211.654 290.173 212.446 290.173 213.319C290.173 214.61 289.847 215.721 289.194 216.652C288.541 217.576 287.54 218.148 286.191 218.368L285.058 218.467H280.977V224H278.326ZM287.423 224L284.299 217.554L286.994 216.96L290.426 224H287.423ZM280.977 215.992H284.761C284.908 215.992 285.073 215.985 285.256 215.97C285.439 215.955 285.608 215.926 285.762 215.882C286.202 215.772 286.547 215.578 286.796 215.299C287.053 215.02 287.232 214.705 287.335 214.353C287.445 214.001 287.5 213.656 287.5 213.319C287.5 212.982 287.445 212.637 287.335 212.285C287.232 211.926 287.053 211.607 286.796 211.328C286.547 211.049 286.202 210.855 285.762 210.745C285.608 210.701 285.439 210.675 285.256 210.668C285.073 210.653 284.908 210.646 284.761 210.646H280.977V215.992ZM301.06 224V210.646H295.934V208.16H308.837V210.646H303.711V224H301.06ZM310.596 224V208.16H313.247V214.826H320.749V208.16H323.389V224H320.749V217.312H313.247V224H310.596ZM326.473 224V208.16H336.703V210.646H329.124V214.551H335.383V217.037H329.124V221.514H336.703V224H326.473ZM343.746 224V208.16H350.027C351.098 208.16 351.974 208.376 352.656 208.809C353.345 209.234 353.855 209.781 354.185 210.448C354.522 211.115 354.691 211.805 354.691 212.516C354.691 213.389 354.482 214.129 354.064 214.738C353.653 215.347 353.092 215.757 352.381 215.97V215.42C353.378 215.647 354.134 216.12 354.647 216.839C355.168 217.558 355.428 218.375 355.428 219.292C355.428 220.231 355.248 221.052 354.889 221.756C354.53 222.46 353.994 223.01 353.283 223.406C352.579 223.802 351.706 224 350.665 224H343.746ZM346.43 221.503H350.335C350.797 221.503 351.211 221.411 351.578 221.228C351.945 221.037 352.231 220.773 352.436 220.436C352.649 220.091 352.755 219.684 352.755 219.215C352.755 218.79 352.663 218.408 352.48 218.071C352.297 217.734 352.029 217.466 351.677 217.268C351.325 217.063 350.903 216.96 350.412 216.96H346.43V221.503ZM346.43 214.485H349.994C350.375 214.485 350.716 214.412 351.017 214.265C351.318 214.118 351.556 213.902 351.732 213.616C351.908 213.33 351.996 212.978 351.996 212.56C351.996 212.01 351.82 211.552 351.468 211.185C351.116 210.818 350.625 210.635 349.994 210.635H346.43V214.485ZM357.625 224V208.16H367.855V210.646H360.276V214.551H366.535V217.037H360.276V221.514H367.855V224H357.625ZM376.207 224.33C375.048 224.33 374.003 224.128 373.072 223.725C372.148 223.322 371.385 222.746 370.784 221.998C370.19 221.243 369.812 220.348 369.651 219.314L372.401 218.896C372.635 219.835 373.116 220.561 373.842 221.074C374.575 221.587 375.418 221.844 376.372 221.844C376.936 221.844 377.468 221.756 377.967 221.58C378.465 221.404 378.869 221.147 379.177 220.81C379.492 220.473 379.65 220.058 379.65 219.567C379.65 219.347 379.613 219.145 379.54 218.962C379.466 218.771 379.356 218.603 379.21 218.456C379.07 218.309 378.887 218.177 378.66 218.06C378.44 217.935 378.183 217.829 377.89 217.741L373.798 216.531C373.446 216.428 373.064 216.293 372.654 216.124C372.25 215.948 371.865 215.71 371.499 215.409C371.139 215.101 370.842 214.712 370.608 214.243C370.38 213.766 370.267 213.18 370.267 212.483C370.267 211.464 370.523 210.609 371.037 209.92C371.557 209.223 372.254 208.703 373.127 208.358C374.007 208.013 374.982 207.845 376.053 207.852C377.138 207.859 378.106 208.046 378.957 208.413C379.807 208.772 380.519 209.297 381.091 209.986C381.663 210.675 382.066 211.508 382.301 212.483L379.452 212.978C379.334 212.421 379.107 211.948 378.77 211.559C378.44 211.163 378.033 210.862 377.549 210.657C377.072 210.452 376.562 210.342 376.02 210.327C375.492 210.32 375 210.4 374.546 210.569C374.098 210.73 373.735 210.965 373.457 211.273C373.185 211.581 373.05 211.94 373.05 212.351C373.05 212.74 373.167 213.059 373.402 213.308C373.636 213.55 373.926 213.744 374.271 213.891C374.623 214.03 374.978 214.148 375.338 214.243L378.176 215.035C378.564 215.138 379.001 215.277 379.485 215.453C379.969 215.629 380.434 215.875 380.882 216.19C381.329 216.505 381.696 216.92 381.982 217.433C382.275 217.946 382.422 218.599 382.422 219.391C382.422 220.212 382.249 220.935 381.905 221.558C381.567 222.174 381.109 222.687 380.53 223.098C379.95 223.509 379.287 223.817 378.539 224.022C377.798 224.227 377.021 224.33 376.207 224.33ZM388.609 224V210.646H383.483V208.16H396.386V210.646H391.26V224H388.609ZM401.015 219.699C401.015 219.193 401.063 218.705 401.158 218.236C401.261 217.759 401.426 217.319 401.653 216.916C401.851 216.527 402.071 216.219 402.313 215.992C402.555 215.757 402.827 215.526 403.127 215.299C403.428 215.064 403.762 214.753 404.128 214.364C404.429 214.034 404.627 213.708 404.722 213.385C404.818 213.055 404.865 212.703 404.865 212.329C404.865 212.087 404.84 211.86 404.788 211.647C404.737 211.434 404.645 211.251 404.513 211.097C404.308 210.826 404.044 210.635 403.721 210.525C403.399 210.408 403.054 210.349 402.687 210.349C402.387 210.349 402.097 210.389 401.818 210.47C401.547 210.543 401.316 210.661 401.125 210.822C400.905 210.998 400.744 211.214 400.641 211.471C400.539 211.728 400.491 212.01 400.498 212.318H397.704C397.778 211.585 397.976 210.906 398.298 210.283C398.628 209.652 399.061 209.15 399.596 208.776C400.014 208.468 400.484 208.237 401.004 208.083C401.532 207.929 402.06 207.852 402.588 207.852C403.395 207.852 404.154 207.977 404.865 208.226C405.584 208.475 406.182 208.886 406.658 209.458C406.988 209.832 407.238 210.265 407.406 210.756C407.582 211.247 407.67 211.746 407.67 212.252C407.67 213.007 407.505 213.697 407.175 214.32C406.853 214.943 406.442 215.519 405.943 216.047C405.709 216.296 405.485 216.516 405.272 216.707C405.06 216.898 404.862 217.085 404.678 217.268C404.502 217.444 404.356 217.631 404.238 217.829C404.033 218.174 403.912 218.467 403.875 218.709C403.839 218.944 403.82 219.274 403.82 219.699H401.015ZM401.037 224V221.085H403.82V224H401.037ZM418.053 224L413.422 208.16H416.205L419.362 219.6L422.508 208.182L425.291 208.16L428.448 219.6L431.594 208.16H434.377L429.757 224H427.139L423.894 212.736L420.671 224H418.053ZM436.172 224V208.16H438.823V214.826H446.325V208.16H448.965V224H446.325V217.312H438.823V224H436.172ZM450.949 224L455.943 208.16H459.826L464.82 224H462.092L457.56 209.788H458.154L453.677 224H450.949ZM453.732 220.568V218.093H462.048V220.568H453.732ZM469.304 224V210.646H464.178V208.16H477.081V210.646H471.955V224H469.304ZM485.922 224L481.291 208.16H484.074L487.231 219.6L490.377 208.182L493.16 208.16L496.317 219.6L499.463 208.16H502.246L497.626 224H495.008L491.763 212.736L488.54 224H485.922ZM501.394 224L506.388 208.16H510.271L515.265 224H512.537L508.005 209.788H508.599L504.122 224H501.394ZM504.177 220.568V218.093H512.493V220.568H504.177ZM522.687 224.33C521.529 224.33 520.484 224.128 519.552 223.725C518.628 223.322 517.866 222.746 517.264 221.998C516.67 221.243 516.293 220.348 516.131 219.314L518.881 218.896C519.116 219.835 519.596 220.561 520.322 221.074C521.056 221.587 521.899 221.844 522.852 221.844C523.417 221.844 523.949 221.756 524.447 221.58C524.946 221.404 525.349 221.147 525.657 220.81C525.973 220.473 526.13 220.058 526.13 219.567C526.13 219.347 526.094 219.145 526.02 218.962C525.947 218.771 525.837 218.603 525.69 218.456C525.551 218.309 525.368 218.177 525.14 218.06C524.92 217.935 524.664 217.829 524.37 217.741L520.278 216.531C519.926 216.428 519.545 216.293 519.134 216.124C518.731 215.948 518.346 215.71 517.979 215.409C517.62 215.101 517.323 214.712 517.088 214.243C516.861 213.766 516.747 213.18 516.747 212.483C516.747 211.464 517.004 210.609 517.517 209.92C518.038 209.223 518.735 208.703 519.607 208.358C520.487 208.013 521.463 207.845 522.533 207.852C523.619 207.859 524.587 208.046 525.437 208.413C526.288 208.772 526.999 209.297 527.571 209.986C528.143 210.675 528.547 211.508 528.781 212.483L525.932 212.978C525.815 212.421 525.588 211.948 525.25 211.559C524.92 211.163 524.513 210.862 524.029 210.657C523.553 210.452 523.043 210.342 522.5 210.327C521.972 210.32 521.481 210.4 521.026 210.569C520.579 210.73 520.216 210.965 519.937 211.273C519.666 211.581 519.53 211.94 519.53 212.351C519.53 212.74 519.648 213.059 519.882 213.308C520.117 213.55 520.407 213.744 520.751 213.891C521.103 214.03 521.459 214.148 521.818 214.243L524.656 215.035C525.045 215.138 525.481 215.277 525.965 215.453C526.449 215.629 526.915 215.875 527.362 216.19C527.81 216.505 528.176 216.92 528.462 217.433C528.756 217.946 528.902 218.599 528.902 219.391C528.902 220.212 528.73 220.935 528.385 221.558C528.048 222.174 527.59 222.687 527.01 223.098C526.431 223.509 525.767 223.817 525.019 224.022C524.279 224.227 523.501 224.33 522.687 224.33ZM535.907 224V208.16H538.558V224H535.907ZM545.659 224V210.646H540.533V208.16H553.436V210.646H548.31V224H545.659ZM552.784 226.805L552.938 225.661C553.275 225.69 553.543 225.632 553.741 225.485C553.939 225.346 554.071 225.144 554.137 224.88C554.21 224.623 554.229 224.33 554.192 224H552.784V221.173H555.501V224.11C555.501 225.071 555.274 225.797 554.819 226.288C554.364 226.779 553.686 226.952 552.784 226.805ZM143.937 255L148.931 239.16H152.814L157.808 255H155.08L150.548 240.788H151.142L146.665 255H143.937ZM146.72 251.568V249.093H155.036V251.568H146.72ZM159.797 255V239.16H162.481L169.829 250.325V239.16H172.513V255H169.829L162.481 243.835V255H159.797ZM175.588 255V239.16H180.637C180.769 239.16 181.029 239.164 181.418 239.171C181.814 239.178 182.195 239.204 182.562 239.248C183.816 239.409 184.876 239.857 185.741 240.59C186.614 241.316 187.274 242.244 187.721 243.373C188.168 244.502 188.392 245.738 188.392 247.08C188.392 248.422 188.168 249.658 187.721 250.787C187.274 251.916 186.614 252.848 185.741 253.581C184.876 254.307 183.816 254.751 182.562 254.912C182.203 254.956 181.825 254.982 181.429 254.989C181.033 254.996 180.769 255 180.637 255H175.588ZM178.283 252.503H180.637C180.857 252.503 181.136 252.496 181.473 252.481C181.818 252.466 182.122 252.433 182.386 252.382C183.134 252.243 183.743 251.909 184.212 251.381C184.681 250.853 185.026 250.211 185.246 249.456C185.473 248.701 185.587 247.909 185.587 247.08C185.587 246.222 185.473 245.415 185.246 244.66C185.019 243.905 184.667 243.27 184.19 242.757C183.721 242.244 183.119 241.917 182.386 241.778C182.122 241.719 181.818 241.686 181.473 241.679C181.136 241.664 180.857 241.657 180.637 241.657H178.283V252.503ZM195.396 255V239.16H198.047V245.826H205.549V239.16H208.189V255H205.549V248.312H198.047V255H195.396ZM217.972 255.33C216.388 255.33 215.032 254.985 213.902 254.296C212.773 253.599 211.904 252.631 211.295 251.392C210.694 250.153 210.393 248.715 210.393 247.08C210.393 245.445 210.694 244.007 211.295 242.768C211.904 241.529 212.773 240.564 213.902 239.875C215.032 239.178 216.388 238.83 217.972 238.83C219.556 238.83 220.913 239.178 222.042 239.875C223.179 240.564 224.048 241.529 224.649 242.768C225.258 244.007 225.562 245.445 225.562 247.08C225.562 248.715 225.258 250.153 224.649 251.392C224.048 252.631 223.179 253.599 222.042 254.296C220.913 254.985 219.556 255.33 217.972 255.33ZM217.972 252.833C219.036 252.84 219.919 252.606 220.623 252.129C221.335 251.652 221.866 250.981 222.218 250.116C222.578 249.251 222.757 248.239 222.757 247.08C222.757 245.921 222.578 244.917 222.218 244.066C221.866 243.208 221.335 242.541 220.623 242.064C219.919 241.587 219.036 241.342 217.972 241.327C216.909 241.32 216.025 241.554 215.321 242.031C214.617 242.508 214.086 243.179 213.726 244.044C213.374 244.909 213.198 245.921 213.198 247.08C213.198 248.239 213.374 249.247 213.726 250.105C214.078 250.956 214.606 251.619 215.31 252.096C216.022 252.573 216.909 252.818 217.972 252.833ZM230.43 255L225.799 239.16H228.582L231.739 250.6L234.885 239.182L237.668 239.16L240.825 250.6L243.971 239.16H246.754L242.134 255H239.516L236.271 243.736L233.048 255H230.43ZM252.953 255V239.16H258.002C258.134 239.16 258.394 239.164 258.783 239.171C259.179 239.178 259.56 239.204 259.927 239.248C261.181 239.409 262.241 239.857 263.106 240.59C263.979 241.316 264.639 242.244 265.086 243.373C265.533 244.502 265.757 245.738 265.757 247.08C265.757 248.422 265.533 249.658 265.086 250.787C264.639 251.916 263.979 252.848 263.106 253.581C262.241 254.307 261.181 254.751 259.927 254.912C259.568 254.956 259.19 254.982 258.794 254.989C258.398 254.996 258.134 255 258.002 255H252.953ZM255.648 252.503H258.002C258.222 252.503 258.501 252.496 258.838 252.481C259.183 252.466 259.487 252.433 259.751 252.382C260.499 252.243 261.108 251.909 261.577 251.381C262.046 250.853 262.391 250.211 262.611 249.456C262.838 248.701 262.952 247.909 262.952 247.08C262.952 246.222 262.838 245.415 262.611 244.66C262.384 243.905 262.032 243.27 261.555 242.757C261.086 242.244 260.484 241.917 259.751 241.778C259.487 241.719 259.183 241.686 258.838 241.679C258.501 241.664 258.222 241.657 258.002 241.657H255.648V252.503ZM268.577 255V239.16H271.228V255H268.577ZM274.523 255V239.16H279.572C279.704 239.16 279.965 239.164 280.353 239.171C280.749 239.178 281.131 239.204 281.497 239.248C282.751 239.409 283.811 239.857 284.676 240.59C285.549 241.316 286.209 242.244 286.656 243.373C287.104 244.502 287.327 245.738 287.327 247.08C287.327 248.422 287.104 249.658 286.656 250.787C286.209 251.916 285.549 252.848 284.676 253.581C283.811 254.307 282.751 254.751 281.497 254.912C281.138 254.956 280.76 254.982 280.364 254.989C279.968 254.996 279.704 255 279.572 255H274.523ZM277.218 252.503H279.572C279.792 252.503 280.071 252.496 280.408 252.481C280.753 252.466 281.057 252.433 281.321 252.382C282.069 252.243 282.678 251.909 283.147 251.381C283.617 250.853 283.961 250.211 284.181 249.456C284.409 248.701 284.522 247.909 284.522 247.08C284.522 246.222 284.409 245.415 284.181 244.66C283.954 243.905 283.602 243.27 283.125 242.757C282.656 242.244 282.055 241.917 281.321 241.778C281.057 241.719 280.753 241.686 280.408 241.679C280.071 241.664 279.792 241.657 279.572 241.657H277.218V252.503ZM294.552 255V239.16H297.203V255H294.552ZM304.304 255V241.646H299.178V239.16H312.081V241.646H306.955V255H304.304ZM316.478 255L321.472 239.16H325.355L330.349 255H327.621L323.089 240.788H323.683L319.206 255H316.478ZM319.261 251.568V249.093H327.577V251.568H319.261ZM332.338 255V239.16H341.875V241.811H334.989V245.76H340.555V248.4H334.989V255H332.338ZM343.853 255V239.16H353.39V241.811H346.504V245.76H352.07V248.4H346.504V255H343.853ZM355.369 255V239.16H365.599V241.646H358.02V245.551H364.279V248.037H358.02V252.514H365.599V255H355.369ZM374.379 255.33C372.795 255.33 371.438 254.985 370.309 254.296C369.179 253.599 368.31 252.631 367.702 251.392C367.1 250.153 366.8 248.715 366.8 247.08C366.8 245.445 367.1 244.007 367.702 242.768C368.31 241.529 369.179 240.564 370.309 239.875C371.438 239.178 372.795 238.83 374.379 238.83C376.205 238.83 377.726 239.288 378.944 240.205C380.161 241.114 381.015 242.343 381.507 243.89L378.834 244.627C378.526 243.593 378.001 242.786 377.261 242.207C376.52 241.62 375.559 241.327 374.379 241.327C373.315 241.327 372.428 241.565 371.717 242.042C371.013 242.519 370.481 243.19 370.122 244.055C369.77 244.913 369.59 245.921 369.583 247.08C369.583 248.239 369.759 249.251 370.111 250.116C370.47 250.974 371.005 251.641 371.717 252.118C372.428 252.595 373.315 252.833 374.379 252.833C375.559 252.833 376.52 252.54 377.261 251.953C378.001 251.366 378.526 250.56 378.834 249.533L381.507 250.27C381.015 251.817 380.161 253.049 378.944 253.966C377.726 254.875 376.205 255.33 374.379 255.33ZM387.728 255V241.646H382.602V239.16H395.505V241.646H390.379V255H387.728ZM404.852 255V248.51L399.462 239.16H402.553L406.194 245.474L409.824 239.16H412.915L407.536 248.51V255H404.852ZM420.269 255.33C418.685 255.33 417.329 254.985 416.199 254.296C415.07 253.599 414.201 252.631 413.592 251.392C412.991 250.153 412.69 248.715 412.69 247.08C412.69 245.445 412.991 244.007 413.592 242.768C414.201 241.529 415.07 240.564 416.199 239.875C417.329 239.178 418.685 238.83 420.269 238.83C421.853 238.83 423.21 239.178 424.339 239.875C425.476 240.564 426.345 241.529 426.946 242.768C427.555 244.007 427.859 245.445 427.859 247.08C427.859 248.715 427.555 250.153 426.946 251.392C426.345 252.631 425.476 253.599 424.339 254.296C423.21 254.985 421.853 255.33 420.269 255.33ZM420.269 252.833C421.333 252.84 422.216 252.606 422.92 252.129C423.632 251.652 424.163 250.981 424.515 250.116C424.875 249.251 425.054 248.239 425.054 247.08C425.054 245.921 424.875 244.917 424.515 244.066C424.163 243.208 423.632 242.541 422.92 242.064C422.216 241.587 421.333 241.342 420.269 241.327C419.206 241.32 418.322 241.554 417.618 242.031C416.914 242.508 416.383 243.179 416.023 244.044C415.671 244.909 415.495 245.921 415.495 247.08C415.495 248.239 415.671 249.247 416.023 250.105C416.375 250.956 416.903 251.619 417.607 252.096C418.319 252.573 419.206 252.818 420.269 252.833ZM436.429 255.33C435.167 255.33 434.056 255.073 433.096 254.56C432.142 254.047 431.394 253.324 430.852 252.393C430.316 251.462 430.049 250.369 430.049 249.115V239.182L432.733 239.16V249.049C432.733 249.643 432.832 250.175 433.03 250.644C433.235 251.113 433.51 251.513 433.855 251.843C434.199 252.166 434.595 252.411 435.043 252.58C435.49 252.749 435.952 252.833 436.429 252.833C436.92 252.833 437.386 252.749 437.826 252.58C438.273 252.404 438.669 252.155 439.014 251.832C439.358 251.502 439.63 251.102 439.828 250.633C440.026 250.164 440.125 249.636 440.125 249.049V239.16H442.809V249.115C442.809 250.369 442.537 251.462 441.995 252.393C441.459 253.324 440.711 254.047 439.751 254.56C438.797 255.073 437.69 255.33 436.429 255.33ZM448.754 250.699C448.754 250.193 448.801 249.705 448.897 249.236C448.999 248.759 449.164 248.319 449.392 247.916C449.59 247.527 449.81 247.219 450.052 246.992C450.294 246.757 450.565 246.526 450.866 246.299C451.166 246.064 451.5 245.753 451.867 245.364C452.167 245.034 452.365 244.708 452.461 244.385C452.556 244.055 452.604 243.703 452.604 243.329C452.604 243.087 452.578 242.86 452.527 242.647C452.475 242.434 452.384 242.251 452.252 242.097C452.046 241.826 451.782 241.635 451.46 241.525C451.137 241.408 450.792 241.349 450.426 241.349C450.125 241.349 449.835 241.389 449.557 241.47C449.285 241.543 449.054 241.661 448.864 241.822C448.644 241.998 448.482 242.214 448.38 242.471C448.277 242.728 448.229 243.01 448.237 243.318H445.443C445.516 242.585 445.714 241.906 446.037 241.283C446.367 240.652 446.799 240.15 447.335 239.776C447.753 239.468 448.222 239.237 448.743 239.083C449.271 238.929 449.799 238.852 450.327 238.852C451.133 238.852 451.892 238.977 452.604 239.226C453.322 239.475 453.92 239.886 454.397 240.458C454.727 240.832 454.976 241.265 455.145 241.756C455.321 242.247 455.409 242.746 455.409 243.252C455.409 244.007 455.244 244.697 454.914 245.32C454.591 245.943 454.18 246.519 453.682 247.047C453.447 247.296 453.223 247.516 453.011 247.707C452.798 247.898 452.6 248.085 452.417 248.268C452.241 248.444 452.094 248.631 451.977 248.829C451.771 249.174 451.65 249.467 451.614 249.709C451.577 249.944 451.559 250.274 451.559 250.699H448.754ZM448.776 255V252.085H451.559V255H448.776Z" fill="white"></path></svg> 