<?xml version="1.0" encoding="UTF-8"?> <svg xmlns="http://www.w3.org/2000/svg" width="600" height="400" viewBox="0 0 600 400" fill="none"><rect width="600" height="400" rx="20" fill="#303FC5"></rect><path d="M87.4465 178L82.8155 162.16H85.5985L88.7555 173.6L91.9015 162.182L94.6845 162.16L97.8415 173.6L100.988 162.16H103.771L99.1505 178H96.5325L93.2875 166.736L90.0645 178H87.4465ZM105.565 178V162.16H108.216V168.826H115.718V162.16H118.358V178H115.718V171.312H108.216V178H105.565ZM120.342 178L125.336 162.16H129.219L134.213 178H131.485L126.953 163.788H127.547L123.07 178H120.342ZM123.125 174.568V172.093H131.441V174.568H123.125ZM138.698 178V164.646H133.572V162.16H146.475V164.646H141.349V178H138.698ZM152.192 178V162.16H154.843V178H152.192ZM164.001 178.33C162.842 178.33 161.797 178.128 160.866 177.725C159.942 177.322 159.179 176.746 158.578 175.998C157.984 175.243 157.606 174.348 157.445 173.314L160.195 172.896C160.429 173.835 160.91 174.561 161.636 175.074C162.369 175.587 163.212 175.844 164.166 175.844C164.73 175.844 165.262 175.756 165.761 175.58C166.259 175.404 166.663 175.147 166.971 174.81C167.286 174.473 167.444 174.058 167.444 173.567C167.444 173.347 167.407 173.145 167.334 172.962C167.26 172.771 167.15 172.603 167.004 172.456C166.864 172.309 166.681 172.177 166.454 172.06C166.234 171.935 165.977 171.829 165.684 171.741L161.592 170.531C161.24 170.428 160.858 170.293 160.448 170.124C160.044 169.948 159.659 169.71 159.293 169.409C158.933 169.101 158.636 168.712 158.402 168.243C158.174 167.766 158.061 167.18 158.061 166.483C158.061 165.464 158.317 164.609 158.831 163.92C159.351 163.223 160.048 162.703 160.921 162.358C161.801 162.013 162.776 161.845 163.847 161.852C164.932 161.859 165.9 162.046 166.751 162.413C167.601 162.772 168.313 163.297 168.885 163.986C169.457 164.675 169.86 165.508 170.095 166.483L167.246 166.978C167.128 166.421 166.901 165.948 166.564 165.559C166.234 165.163 165.827 164.862 165.343 164.657C164.866 164.452 164.356 164.342 163.814 164.327C163.286 164.32 162.794 164.4 162.34 164.569C161.892 164.73 161.529 164.965 161.251 165.273C160.979 165.581 160.844 165.94 160.844 166.351C160.844 166.74 160.961 167.059 161.196 167.308C161.43 167.55 161.72 167.744 162.065 167.891C162.417 168.03 162.772 168.148 163.132 168.243L165.97 169.035C166.358 169.138 166.795 169.277 167.279 169.453C167.763 169.629 168.228 169.875 168.676 170.19C169.123 170.505 169.49 170.92 169.776 171.433C170.069 171.946 170.216 172.599 170.216 173.391C170.216 174.212 170.043 174.935 169.699 175.558C169.361 176.174 168.903 176.687 168.324 177.098C167.744 177.509 167.081 177.817 166.333 178.022C165.592 178.227 164.815 178.33 164.001 178.33ZM182.864 178.33C181.705 178.33 180.66 178.128 179.729 177.725C178.805 177.322 178.042 176.746 177.441 175.998C176.847 175.243 176.469 174.348 176.308 173.314L179.058 172.896C179.293 173.835 179.773 174.561 180.499 175.074C181.232 175.587 182.076 175.844 183.029 175.844C183.594 175.844 184.125 175.756 184.624 175.58C185.123 175.404 185.526 175.147 185.834 174.81C186.149 174.473 186.307 174.058 186.307 173.567C186.307 173.347 186.27 173.145 186.197 172.962C186.124 172.771 186.014 172.603 185.867 172.456C185.728 172.309 185.544 172.177 185.317 172.06C185.097 171.935 184.84 171.829 184.547 171.741L180.455 170.531C180.103 170.428 179.722 170.293 179.311 170.124C178.908 169.948 178.523 169.71 178.156 169.409C177.797 169.101 177.5 168.712 177.265 168.243C177.038 167.766 176.924 167.18 176.924 166.483C176.924 165.464 177.181 164.609 177.694 163.92C178.215 163.223 178.911 162.703 179.784 162.358C180.664 162.013 181.639 161.845 182.71 161.852C183.795 161.859 184.763 162.046 185.614 162.413C186.465 162.772 187.176 163.297 187.748 163.986C188.32 164.675 188.723 165.508 188.958 166.483L186.109 166.978C185.992 166.421 185.764 165.948 185.427 165.559C185.097 165.163 184.69 164.862 184.206 164.657C183.729 164.452 183.22 164.342 182.677 164.327C182.149 164.32 181.658 164.4 181.203 164.569C180.756 164.73 180.393 164.965 180.114 165.273C179.843 165.581 179.707 165.94 179.707 166.351C179.707 166.74 179.824 167.059 180.059 167.308C180.294 167.55 180.583 167.744 180.928 167.891C181.28 168.03 181.636 168.148 181.995 168.243L184.833 169.035C185.222 169.138 185.658 169.277 186.142 169.453C186.626 169.629 187.092 169.875 187.539 170.19C187.986 170.505 188.353 170.92 188.639 171.433C188.932 171.946 189.079 172.599 189.079 173.391C189.079 174.212 188.907 174.935 188.562 175.558C188.225 176.174 187.766 176.687 187.187 177.098C186.608 177.509 185.944 177.817 185.196 178.022C184.455 178.227 183.678 178.33 182.864 178.33ZM198.159 178.33C196.575 178.33 195.218 177.985 194.089 177.296C192.96 176.599 192.091 175.631 191.482 174.392C190.881 173.153 190.58 171.715 190.58 170.08C190.58 168.445 190.881 167.007 191.482 165.768C192.091 164.529 192.96 163.564 194.089 162.875C195.218 162.178 196.575 161.83 198.159 161.83C199.743 161.83 201.1 162.178 202.229 162.875C203.366 163.564 204.235 164.529 204.836 165.768C205.445 167.007 205.749 168.445 205.749 170.08C205.749 171.715 205.445 173.153 204.836 174.392C204.235 175.631 203.366 176.599 202.229 177.296C201.1 177.985 199.743 178.33 198.159 178.33ZM198.159 175.833C199.222 175.84 200.106 175.606 200.81 175.129C201.521 174.652 202.053 173.981 202.405 173.116C202.764 172.251 202.944 171.239 202.944 170.08C202.944 168.921 202.764 167.917 202.405 167.066C202.053 166.208 201.521 165.541 200.81 165.064C200.106 164.587 199.222 164.342 198.159 164.327C197.096 164.32 196.212 164.554 195.508 165.031C194.804 165.508 194.272 166.179 193.913 167.044C193.561 167.909 193.385 168.921 193.385 170.08C193.385 171.239 193.561 172.247 193.913 173.105C194.265 173.956 194.793 174.619 195.497 175.096C196.208 175.573 197.096 175.818 198.159 175.833ZM207.938 178V162.16H210.325L215.803 173.38L221.281 162.16H223.668V178H221.193V167.847L216.331 178H215.275L210.424 167.847V178H207.938ZM226.759 178V162.16H236.989V164.646H229.41V168.551H235.669V171.037H229.41V175.514H236.989V178H226.759ZM243.434 178V164.646H238.308V162.16H251.211V164.646H246.085V178H243.434ZM252.97 178V162.16H255.621V168.826H263.123V162.16H265.763V178H263.123V171.312H255.621V178H252.97ZM269.067 178V162.16H271.718V178H269.067ZM275.013 178V162.16H277.697L285.045 173.325V162.16H287.729V178H285.045L277.697 166.835V178H275.013ZM297.338 178.33C296.311 178.33 295.347 178.15 294.445 177.791C293.55 177.424 292.762 176.889 292.08 176.185C291.405 175.481 290.877 174.619 290.496 173.6C290.114 172.573 289.924 171.4 289.924 170.08C289.924 168.349 290.246 166.872 290.892 165.647C291.537 164.415 292.421 163.473 293.543 162.82C294.665 162.16 295.93 161.83 297.338 161.83C299.288 161.83 300.832 162.285 301.969 163.194C303.113 164.096 303.886 165.365 304.29 167L301.584 167.429C301.283 166.49 300.792 165.742 300.11 165.185C299.428 164.62 298.559 164.338 297.503 164.338C296.439 164.323 295.556 164.554 294.852 165.031C294.148 165.508 293.616 166.179 293.257 167.044C292.905 167.909 292.729 168.921 292.729 170.08C292.729 171.239 292.905 172.247 293.257 173.105C293.609 173.956 294.137 174.619 294.841 175.096C295.552 175.573 296.439 175.818 297.503 175.833C298.302 175.84 299.002 175.697 299.604 175.404C300.205 175.103 300.696 174.652 301.078 174.051C301.459 173.442 301.716 172.683 301.848 171.774H299.054V169.695H304.664C304.678 169.812 304.689 169.985 304.697 170.212C304.704 170.439 304.708 170.575 304.708 170.619C304.708 172.115 304.411 173.446 303.817 174.612C303.23 175.771 302.387 176.68 301.287 177.34C300.187 178 298.87 178.33 297.338 178.33ZM315.127 178V164.646H310.001V162.16H322.904V164.646H317.778V178H315.127ZM324.663 178V162.16H327.314V168.826H334.816V162.16H337.456V178H334.816V171.312H327.314V178H324.663ZM339.44 178L344.434 162.16H348.317L353.311 178H350.583L346.051 163.788H346.645L342.168 178H339.44ZM342.223 174.568V172.093H350.539V174.568H342.223ZM357.795 178V164.646H352.669V162.16H365.572V164.646H360.446V178H357.795ZM374.919 178V171.51L369.529 162.16H372.62L376.261 168.474L379.891 162.16H382.982L377.603 171.51V178H374.919ZM390.337 178.33C388.753 178.33 387.396 177.985 386.267 177.296C385.137 176.599 384.268 175.631 383.66 174.392C383.058 173.153 382.758 171.715 382.758 170.08C382.758 168.445 383.058 167.007 383.66 165.768C384.268 164.529 385.137 163.564 386.267 162.875C387.396 162.178 388.753 161.83 390.337 161.83C391.921 161.83 393.277 162.178 394.407 162.875C395.543 163.564 396.412 164.529 397.014 165.768C397.622 167.007 397.927 168.445 397.927 170.08C397.927 171.715 397.622 173.153 397.014 174.392C396.412 175.631 395.543 176.599 394.407 177.296C393.277 177.985 391.921 178.33 390.337 178.33ZM390.337 175.833C391.4 175.84 392.284 175.606 392.988 175.129C393.699 174.652 394.231 173.981 394.583 173.116C394.942 172.251 395.122 171.239 395.122 170.08C395.122 168.921 394.942 167.917 394.583 167.066C394.231 166.208 393.699 165.541 392.988 165.064C392.284 164.587 391.4 164.342 390.337 164.327C389.273 164.32 388.39 164.554 387.686 165.031C386.982 165.508 386.45 166.179 386.091 167.044C385.739 167.909 385.563 168.921 385.563 170.08C385.563 171.239 385.739 172.247 386.091 173.105C386.443 173.956 386.971 174.619 387.675 175.096C388.386 175.573 389.273 175.818 390.337 175.833ZM406.496 178.33C405.235 178.33 404.124 178.073 403.163 177.56C402.21 177.047 401.462 176.324 400.919 175.393C400.384 174.462 400.116 173.369 400.116 172.115V162.182L402.8 162.16V172.049C402.8 172.643 402.899 173.175 403.097 173.644C403.303 174.113 403.578 174.513 403.922 174.843C404.267 175.166 404.663 175.411 405.11 175.58C405.558 175.749 406.02 175.833 406.496 175.833C406.988 175.833 407.453 175.749 407.893 175.58C408.341 175.404 408.737 175.155 409.081 174.832C409.426 174.502 409.697 174.102 409.895 173.633C410.093 173.164 410.192 172.636 410.192 172.049V162.16H412.876V172.115C412.876 173.369 412.605 174.462 412.062 175.393C411.527 176.324 410.779 177.047 409.818 177.56C408.865 178.073 407.758 178.33 406.496 178.33ZM419.254 178L424.248 162.16H428.131L433.125 178H430.397L425.865 163.788H426.459L421.982 178H419.254ZM422.037 174.568V172.093H430.353V174.568H422.037ZM435.114 178V162.16H441.659C441.813 162.16 442.011 162.167 442.253 162.182C442.495 162.189 442.719 162.211 442.924 162.248C443.841 162.387 444.596 162.692 445.19 163.161C445.792 163.63 446.235 164.224 446.521 164.943C446.815 165.654 446.961 166.446 446.961 167.319C446.961 168.61 446.635 169.721 445.982 170.652C445.33 171.576 444.329 172.148 442.979 172.368L441.846 172.467H437.765V178H435.114ZM444.211 178L441.087 171.554L443.782 170.96L447.214 178H444.211ZM437.765 169.992H441.549C441.696 169.992 441.861 169.985 442.044 169.97C442.228 169.955 442.396 169.926 442.55 169.882C442.99 169.772 443.335 169.578 443.584 169.299C443.841 169.02 444.021 168.705 444.123 168.353C444.233 168.001 444.288 167.656 444.288 167.319C444.288 166.982 444.233 166.637 444.123 166.285C444.021 165.926 443.841 165.607 443.584 165.328C443.335 165.049 442.99 164.855 442.55 164.745C442.396 164.701 442.228 164.675 442.044 164.668C441.861 164.653 441.696 164.646 441.549 164.646H437.765V169.992ZM449.638 178V162.16H459.868V164.646H452.289V168.551H458.548V171.037H452.289V175.514H459.868V178H449.638ZM466.911 178V162.16H469.595L476.943 173.325V162.16H479.627V178H476.943L469.595 166.835V178H466.911ZM489.401 178.33C487.817 178.33 486.46 177.985 485.331 177.296C484.202 176.599 483.333 175.631 482.724 174.392C482.123 173.153 481.822 171.715 481.822 170.08C481.822 168.445 482.123 167.007 482.724 165.768C483.333 164.529 484.202 163.564 485.331 162.875C486.46 162.178 487.817 161.83 489.401 161.83C490.985 161.83 492.342 162.178 493.471 162.875C494.608 163.564 495.477 164.529 496.078 165.768C496.687 167.007 496.991 168.445 496.991 170.08C496.991 171.715 496.687 173.153 496.078 174.392C495.477 175.631 494.608 176.599 493.471 177.296C492.342 177.985 490.985 178.33 489.401 178.33ZM489.401 175.833C490.464 175.84 491.348 175.606 492.052 175.129C492.763 174.652 493.295 173.981 493.647 173.116C494.006 172.251 494.186 171.239 494.186 170.08C494.186 168.921 494.006 167.917 493.647 167.066C493.295 166.208 492.763 165.541 492.052 165.064C491.348 164.587 490.464 164.342 489.401 164.327C488.338 164.32 487.454 164.554 486.75 165.031C486.046 165.508 485.514 166.179 485.155 167.044C484.803 167.909 484.627 168.921 484.627 170.08C484.627 171.239 484.803 172.247 485.155 173.105C485.507 173.956 486.035 174.619 486.739 175.096C487.45 175.573 488.338 175.818 489.401 175.833ZM501.859 178L497.228 162.16H500.011L503.168 173.6L506.314 162.182L509.097 162.16L512.254 173.6L515.4 162.16H518.183L513.563 178H510.945L507.7 166.736L504.477 178H501.859ZM104.2 209.33C102.939 209.33 101.828 209.073 100.867 208.56C99.9139 208.047 99.1659 207.324 98.6233 206.393C98.0879 205.462 97.8203 204.369 97.8203 203.115V193.182L100.504 193.16V203.049C100.504 203.643 100.603 204.175 100.801 204.644C101.007 205.113 101.282 205.513 101.626 205.843C101.971 206.166 102.367 206.411 102.814 206.58C103.262 206.749 103.724 206.833 104.2 206.833C104.692 206.833 105.157 206.749 105.597 206.58C106.045 206.404 106.441 206.155 106.785 205.832C107.13 205.502 107.401 205.102 107.599 204.633C107.797 204.164 107.896 203.636 107.896 203.049V193.16H110.58V203.115C110.58 204.369 110.309 205.462 109.766 206.393C109.231 207.324 108.483 208.047 107.522 208.56C106.569 209.073 105.462 209.33 104.2 209.33ZM118.851 209.33C117.693 209.33 116.648 209.128 115.716 208.725C114.792 208.322 114.03 207.746 113.428 206.998C112.834 206.243 112.457 205.348 112.295 204.314L115.045 203.896C115.28 204.835 115.76 205.561 116.486 206.074C117.22 206.587 118.063 206.844 119.016 206.844C119.581 206.844 120.113 206.756 120.611 206.58C121.11 206.404 121.513 206.147 121.821 205.81C122.137 205.473 122.294 205.058 122.294 204.567C122.294 204.347 122.258 204.145 122.184 203.962C122.111 203.771 122.001 203.603 121.854 203.456C121.715 203.309 121.532 203.177 121.304 203.06C121.084 202.935 120.828 202.829 120.534 202.741L116.442 201.531C116.09 201.428 115.709 201.293 115.298 201.124C114.895 200.948 114.51 200.71 114.143 200.409C113.784 200.101 113.487 199.712 113.252 199.243C113.025 198.766 112.911 198.18 112.911 197.483C112.911 196.464 113.168 195.609 113.681 194.92C114.202 194.223 114.899 193.703 115.771 193.358C116.651 193.013 117.627 192.845 118.697 192.852C119.783 192.859 120.751 193.046 121.601 193.413C122.452 193.772 123.163 194.297 123.735 194.986C124.307 195.675 124.711 196.508 124.945 197.483L122.096 197.978C121.979 197.421 121.752 196.948 121.414 196.559C121.084 196.163 120.677 195.862 120.193 195.657C119.717 195.452 119.207 195.342 118.664 195.327C118.136 195.32 117.645 195.4 117.19 195.569C116.743 195.73 116.38 195.965 116.101 196.273C115.83 196.581 115.694 196.94 115.694 197.351C115.694 197.74 115.812 198.059 116.046 198.308C116.281 198.55 116.571 198.744 116.915 198.891C117.267 199.03 117.623 199.148 117.982 199.243L120.82 200.035C121.209 200.138 121.645 200.277 122.129 200.453C122.613 200.629 123.079 200.875 123.526 201.19C123.974 201.505 124.34 201.92 124.626 202.433C124.92 202.946 125.066 203.599 125.066 204.391C125.066 205.212 124.894 205.935 124.549 206.558C124.212 207.174 123.754 207.687 123.174 208.098C122.595 208.509 121.931 208.817 121.183 209.022C120.443 209.227 119.665 209.33 118.851 209.33ZM127.447 209V193.16H137.677V195.646H130.098V199.551H136.357V202.037H130.098V206.514H137.677V209H127.447ZM140.316 209V193.16H145.365C145.497 193.16 145.758 193.164 146.146 193.171C146.542 193.178 146.924 193.204 147.29 193.248C148.544 193.409 149.604 193.857 150.469 194.59C151.342 195.316 152.002 196.244 152.449 197.373C152.897 198.502 153.12 199.738 153.12 201.08C153.12 202.422 152.897 203.658 152.449 204.787C152.002 205.916 151.342 206.848 150.469 207.581C149.604 208.307 148.544 208.751 147.29 208.912C146.931 208.956 146.553 208.982 146.157 208.989C145.761 208.996 145.497 209 145.365 209H140.316ZM143.011 206.503H145.365C145.585 206.503 145.864 206.496 146.201 206.481C146.546 206.466 146.85 206.433 147.114 206.382C147.862 206.243 148.471 205.909 148.94 205.381C149.41 204.853 149.754 204.211 149.974 203.456C150.202 202.701 150.315 201.909 150.315 201.08C150.315 200.222 150.202 199.415 149.974 198.66C149.747 197.905 149.395 197.27 148.918 196.757C148.449 196.244 147.848 195.917 147.114 195.778C146.85 195.719 146.546 195.686 146.201 195.679C145.864 195.664 145.585 195.657 145.365 195.657H143.011V206.503ZM163.931 209V195.646H158.805V193.16H171.708V195.646H166.582V209H163.931ZM180.166 209.33C178.582 209.33 177.225 208.985 176.096 208.296C174.966 207.599 174.097 206.631 173.489 205.392C172.887 204.153 172.587 202.715 172.587 201.08C172.587 199.445 172.887 198.007 173.489 196.768C174.097 195.529 174.966 194.564 176.096 193.875C177.225 193.178 178.582 192.83 180.166 192.83C181.75 192.83 183.106 193.178 184.236 193.875C185.372 194.564 186.241 195.529 186.843 196.768C187.451 198.007 187.756 199.445 187.756 201.08C187.756 202.715 187.451 204.153 186.843 205.392C186.241 206.631 185.372 207.599 184.236 208.296C183.106 208.985 181.75 209.33 180.166 209.33ZM180.166 206.833C181.229 206.84 182.113 206.606 182.817 206.129C183.528 205.652 184.06 204.981 184.412 204.116C184.771 203.251 184.951 202.239 184.951 201.08C184.951 199.921 184.771 198.917 184.412 198.066C184.06 197.208 183.528 196.541 182.817 196.064C182.113 195.587 181.229 195.342 180.166 195.327C179.102 195.32 178.219 195.554 177.515 196.031C176.811 196.508 176.279 197.179 175.92 198.044C175.568 198.909 175.392 199.921 175.392 201.08C175.392 202.239 175.568 203.247 175.92 204.105C176.272 204.956 176.8 205.619 177.504 206.096C178.215 206.573 179.102 206.818 180.166 206.833ZM194.35 209V193.16H199.399C199.531 193.16 199.791 193.164 200.18 193.171C200.576 193.178 200.957 193.204 201.324 193.248C202.578 193.409 203.637 193.857 204.503 194.59C205.375 195.316 206.035 196.244 206.483 197.373C206.93 198.502 207.154 199.738 207.154 201.08C207.154 202.422 206.93 203.658 206.483 204.787C206.035 205.916 205.375 206.848 204.503 207.581C203.637 208.307 202.578 208.751 201.324 208.912C200.964 208.956 200.587 208.982 200.191 208.989C199.795 208.996 199.531 209 199.399 209H194.35ZM197.045 206.503H199.399C199.619 206.503 199.897 206.496 200.235 206.481C200.579 206.466 200.884 206.433 201.148 206.382C201.896 206.243 202.504 205.909 202.974 205.381C203.443 204.853 203.788 204.211 204.008 203.456C204.235 202.701 204.349 201.909 204.349 201.08C204.349 200.222 204.235 199.415 204.008 198.66C203.78 197.905 203.428 197.27 202.952 196.757C202.482 196.244 201.881 195.917 201.148 195.778C200.884 195.719 200.579 195.686 200.235 195.679C199.897 195.664 199.619 195.657 199.399 195.657H197.045V206.503ZM216.453 209.33C214.869 209.33 213.512 208.985 212.383 208.296C211.254 207.599 210.385 206.631 209.776 205.392C209.175 204.153 208.874 202.715 208.874 201.08C208.874 199.445 209.175 198.007 209.776 196.768C210.385 195.529 211.254 194.564 212.383 193.875C213.512 193.178 214.869 192.83 216.453 192.83C218.037 192.83 219.394 193.178 220.523 193.875C221.66 194.564 222.529 195.529 223.13 196.768C223.739 198.007 224.043 199.445 224.043 201.08C224.043 202.715 223.739 204.153 223.13 205.392C222.529 206.631 221.66 207.599 220.523 208.296C219.394 208.985 218.037 209.33 216.453 209.33ZM216.453 206.833C217.516 206.84 218.4 206.606 219.104 206.129C219.815 205.652 220.347 204.981 220.699 204.116C221.058 203.251 221.238 202.239 221.238 201.08C221.238 199.921 221.058 198.917 220.699 198.066C220.347 197.208 219.815 196.541 219.104 196.064C218.4 195.587 217.516 195.342 216.453 195.327C215.39 195.32 214.506 195.554 213.802 196.031C213.098 196.508 212.566 197.179 212.207 198.044C211.855 198.909 211.679 199.921 211.679 201.08C211.679 202.239 211.855 203.247 212.207 204.105C212.559 204.956 213.087 205.619 213.791 206.096C214.502 206.573 215.39 206.818 216.453 206.833ZM226.452 209V193.16H229.103V209H226.452ZM232.398 209V193.16H235.082L242.43 204.325V193.16H245.114V209H242.43L235.082 197.835V209H232.398ZM254.723 209.33C253.697 209.33 252.732 209.15 251.83 208.791C250.936 208.424 250.147 207.889 249.465 207.185C248.791 206.481 248.263 205.619 247.881 204.6C247.5 203.573 247.309 202.4 247.309 201.08C247.309 199.349 247.632 197.872 248.277 196.647C248.923 195.415 249.806 194.473 250.928 193.82C252.05 193.16 253.315 192.83 254.723 192.83C256.674 192.83 258.218 193.285 259.354 194.194C260.498 195.096 261.272 196.365 261.675 198L258.969 198.429C258.669 197.49 258.177 196.742 257.495 196.185C256.813 195.62 255.944 195.338 254.888 195.338C253.825 195.323 252.941 195.554 252.237 196.031C251.533 196.508 251.002 197.179 250.642 198.044C250.29 198.909 250.114 199.921 250.114 201.08C250.114 202.239 250.29 203.247 250.642 204.105C250.994 204.956 251.522 205.619 252.226 206.096C252.938 206.573 253.825 206.818 254.888 206.833C255.688 206.84 256.388 206.697 256.989 206.404C257.591 206.103 258.082 205.652 258.463 205.051C258.845 204.442 259.101 203.683 259.233 202.774H256.439V200.695H262.049C262.064 200.812 262.075 200.985 262.082 201.212C262.09 201.439 262.093 201.575 262.093 201.619C262.093 203.115 261.796 204.446 261.202 205.612C260.616 206.771 259.772 207.68 258.672 208.34C257.572 209 256.256 209.33 254.723 209.33ZM268.707 209V193.16H278.937V195.646H271.358V199.551H277.617V202.037H271.358V206.514H278.937V209H268.707ZM285.14 209L280.146 193.16H282.874L287.054 206.426L291.289 193.16H294.017L289.023 209H285.14ZM295.67 209V193.16H305.9V195.646H298.321V199.551H304.58V202.037H298.321V206.514H305.9V209H295.67ZM308.539 209V193.16H315.084C315.238 193.16 315.436 193.167 315.678 193.182C315.92 193.189 316.144 193.211 316.349 193.248C317.266 193.387 318.021 193.692 318.615 194.161C319.216 194.63 319.66 195.224 319.946 195.943C320.239 196.654 320.386 197.446 320.386 198.319C320.386 199.61 320.06 200.721 319.407 201.652C318.754 202.576 317.753 203.148 316.404 203.368L315.271 203.467H311.19V209H308.539ZM317.636 209L314.512 202.554L317.207 201.96L320.639 209H317.636ZM311.19 200.992H314.974C315.121 200.992 315.286 200.985 315.469 200.97C315.652 200.955 315.821 200.926 315.975 200.882C316.415 200.772 316.76 200.578 317.009 200.299C317.266 200.02 317.445 199.705 317.548 199.353C317.658 199.001 317.713 198.656 317.713 198.319C317.713 197.982 317.658 197.637 317.548 197.285C317.445 196.926 317.266 196.607 317.009 196.328C316.76 196.049 316.415 195.855 315.975 195.745C315.821 195.701 315.652 195.675 315.469 195.668C315.286 195.653 315.121 195.646 314.974 195.646H311.19V200.992ZM326.612 209V202.51L321.222 193.16H324.313L327.954 199.474L331.584 193.16H334.675L329.296 202.51V209H326.612ZM339.734 209V193.16H344.783C344.915 193.16 345.176 193.164 345.564 193.171C345.96 193.178 346.342 193.204 346.708 193.248C347.962 193.409 349.022 193.857 349.887 194.59C350.76 195.316 351.42 196.244 351.867 197.373C352.315 198.502 352.538 199.738 352.538 201.08C352.538 202.422 352.315 203.658 351.867 204.787C351.42 205.916 350.76 206.848 349.887 207.581C349.022 208.307 347.962 208.751 346.708 208.912C346.349 208.956 345.971 208.982 345.575 208.989C345.179 208.996 344.915 209 344.783 209H339.734ZM342.429 206.503H344.783C345.003 206.503 345.282 206.496 345.619 206.481C345.964 206.466 346.268 206.433 346.532 206.382C347.28 206.243 347.889 205.909 348.358 205.381C348.828 204.853 349.172 204.211 349.392 203.456C349.62 202.701 349.733 201.909 349.733 201.08C349.733 200.222 349.62 199.415 349.392 198.66C349.165 197.905 348.813 197.27 348.336 196.757C347.867 196.244 347.266 195.917 346.532 195.778C346.268 195.719 345.964 195.686 345.619 195.679C345.282 195.664 345.003 195.657 344.783 195.657H342.429V206.503ZM353.609 209L358.603 193.16H362.486L367.48 209H364.752L360.22 194.788H360.814L356.337 209H353.609ZM356.392 205.568V203.093H364.708V205.568H356.392ZM372.008 209V202.51L366.618 193.16H369.709L373.35 199.474L376.98 193.16H380.071L374.692 202.51V209H372.008ZM388.937 209V195.646H383.811V193.16H396.714V195.646H391.588V209H388.937ZM398.473 209V193.16H401.124V199.826H408.626V193.16H411.266V209H408.626V202.312H401.124V209H398.473ZM413.25 209L418.244 193.16H422.127L427.121 209H424.393L419.861 194.788H420.455L415.978 209H413.25ZM416.033 205.568V203.093H424.349V205.568H416.033ZM431.605 209V195.646H426.479V193.16H439.382V195.646H434.256V209H431.605ZM451.578 209.33C449.994 209.33 448.637 208.985 447.508 208.296C446.379 207.599 445.51 206.631 444.901 205.392C444.3 204.153 443.999 202.715 443.999 201.08C443.999 199.445 444.3 198.007 444.901 196.768C445.51 195.529 446.379 194.564 447.508 193.875C448.637 193.178 449.994 192.83 451.578 192.83C453.162 192.83 454.519 193.178 455.648 193.875C456.785 194.564 457.654 195.529 458.255 196.768C458.864 198.007 459.168 199.445 459.168 201.08C459.168 202.715 458.864 204.153 458.255 205.392C457.654 206.631 456.785 207.599 455.648 208.296C454.519 208.985 453.162 209.33 451.578 209.33ZM451.578 206.833C452.641 206.84 453.525 206.606 454.229 206.129C454.94 205.652 455.472 204.981 455.824 204.116C456.183 203.251 456.363 202.239 456.363 201.08C456.363 199.921 456.183 198.917 455.824 198.066C455.472 197.208 454.94 196.541 454.229 196.064C453.525 195.587 452.641 195.342 451.578 195.327C450.515 195.32 449.631 195.554 448.927 196.031C448.223 196.508 447.691 197.179 447.332 198.044C446.98 198.909 446.804 199.921 446.804 201.08C446.804 202.239 446.98 203.247 447.332 204.105C447.684 204.956 448.212 205.619 448.916 206.096C449.627 206.573 450.515 206.818 451.578 206.833ZM461.357 209V193.16H464.041L471.389 204.325V193.16H474.073V209H471.389L464.041 197.835V209H461.357ZM483.847 209.33C482.263 209.33 480.907 208.985 479.777 208.296C478.648 207.599 477.779 206.631 477.17 205.392C476.569 204.153 476.268 202.715 476.268 201.08C476.268 199.445 476.569 198.007 477.17 196.768C477.779 195.529 478.648 194.564 479.777 193.875C480.907 193.178 482.263 192.83 483.847 192.83C485.673 192.83 487.195 193.288 488.412 194.205C489.63 195.114 490.484 196.343 490.975 197.89L488.302 198.627C487.994 197.593 487.47 196.786 486.729 196.207C485.989 195.62 485.028 195.327 483.847 195.327C482.784 195.327 481.897 195.565 481.185 196.042C480.481 196.519 479.95 197.19 479.59 198.055C479.238 198.913 479.059 199.921 479.051 201.08C479.051 202.239 479.227 203.251 479.579 204.116C479.939 204.974 480.474 205.641 481.185 206.118C481.897 206.595 482.784 206.833 483.847 206.833C485.028 206.833 485.989 206.54 486.729 205.953C487.47 205.366 487.994 204.56 488.302 203.533L490.975 204.27C490.484 205.817 489.63 207.049 488.412 207.966C487.195 208.875 485.673 209.33 483.847 209.33ZM493.391 209V193.16H503.621V195.646H496.042V199.551H502.301V202.037H496.042V206.514H503.621V209H493.391ZM132.279 240.33C131.12 240.33 130.075 240.128 129.144 239.725C128.22 239.322 127.457 238.746 126.856 237.998C126.262 237.243 125.884 236.348 125.723 235.314L128.473 234.896C128.708 235.835 129.188 236.561 129.914 237.074C130.647 237.587 131.491 237.844 132.444 237.844C133.009 237.844 133.54 237.756 134.039 237.58C134.538 237.404 134.941 237.147 135.249 236.81C135.564 236.473 135.722 236.058 135.722 235.567C135.722 235.347 135.685 235.145 135.612 234.962C135.539 234.771 135.429 234.603 135.282 234.456C135.143 234.309 134.959 234.177 134.732 234.06C134.512 233.935 134.255 233.829 133.962 233.741L129.87 232.531C129.518 232.428 129.137 232.293 128.726 232.124C128.323 231.948 127.938 231.71 127.571 231.409C127.212 231.101 126.915 230.712 126.68 230.243C126.453 229.766 126.339 229.18 126.339 228.483C126.339 227.464 126.596 226.609 127.109 225.92C127.63 225.223 128.326 224.703 129.199 224.358C130.079 224.013 131.054 223.845 132.125 223.852C133.21 223.859 134.178 224.046 135.029 224.413C135.88 224.772 136.591 225.297 137.163 225.986C137.735 226.675 138.138 227.508 138.373 228.483L135.524 228.978C135.407 228.421 135.179 227.948 134.842 227.559C134.512 227.163 134.105 226.862 133.621 226.657C133.144 226.452 132.635 226.342 132.092 226.327C131.564 226.32 131.073 226.4 130.618 226.569C130.171 226.73 129.808 226.965 129.529 227.273C129.258 227.581 129.122 227.94 129.122 228.351C129.122 228.74 129.239 229.059 129.474 229.308C129.709 229.55 129.998 229.744 130.343 229.891C130.695 230.03 131.051 230.148 131.41 230.243L134.248 231.035C134.637 231.138 135.073 231.277 135.557 231.453C136.041 231.629 136.507 231.875 136.954 232.19C137.401 232.505 137.768 232.92 138.054 233.433C138.347 233.946 138.494 234.599 138.494 235.391C138.494 236.212 138.322 236.935 137.977 237.558C137.64 238.174 137.181 238.687 136.602 239.098C136.023 239.509 135.359 239.817 134.611 240.022C133.87 240.227 133.093 240.33 132.279 240.33ZM140.875 240V224.16H151.105V226.646H143.526V230.551H149.785V233.037H143.526V237.514H151.105V240H140.875ZM153.744 240V224.16H163.974V226.646H156.395V230.551H162.654V233.037H156.395V237.514H163.974V240H153.744ZM166.613 240V224.16H169L174.478 235.38L179.956 224.16H182.343V240H179.868V229.847L175.006 240H173.95L169.099 229.847V240H166.613ZM185.434 240V224.16H195.664V226.646H188.085V230.551H194.344V233.037H188.085V237.514H195.664V240H185.434ZM198.303 240V224.16H203.352C203.484 224.16 203.744 224.164 204.133 224.171C204.529 224.178 204.91 224.204 205.277 224.248C206.531 224.409 207.59 224.857 208.456 225.59C209.328 226.316 209.988 227.244 210.436 228.373C210.883 229.502 211.107 230.738 211.107 232.08C211.107 233.422 210.883 234.658 210.436 235.787C209.988 236.916 209.328 237.848 208.456 238.581C207.59 239.307 206.531 239.751 205.277 239.912C204.917 239.956 204.54 239.982 204.144 239.989C203.748 239.996 203.484 240 203.352 240H198.303ZM200.998 237.503H203.352C203.572 237.503 203.85 237.496 204.188 237.481C204.532 237.466 204.837 237.433 205.101 237.382C205.849 237.243 206.457 236.909 206.927 236.381C207.396 235.853 207.741 235.211 207.961 234.456C208.188 233.701 208.302 232.909 208.302 232.08C208.302 231.222 208.188 230.415 207.961 229.66C207.733 228.905 207.381 228.27 206.905 227.757C206.435 227.244 205.834 226.917 205.101 226.778C204.837 226.719 204.532 226.686 204.188 226.679C203.85 226.664 203.572 226.657 203.352 226.657H200.998V237.503ZM223.974 240.33C222.816 240.33 221.771 240.128 220.839 239.725C219.915 239.322 219.153 238.746 218.551 237.998C217.957 237.243 217.58 236.348 217.418 235.314L220.168 234.896C220.403 235.835 220.883 236.561 221.609 237.074C222.343 237.587 223.186 237.844 224.139 237.844C224.704 237.844 225.236 237.756 225.734 237.58C226.233 237.404 226.636 237.147 226.944 236.81C227.26 236.473 227.417 236.058 227.417 235.567C227.417 235.347 227.381 235.145 227.307 234.962C227.234 234.771 227.124 234.603 226.977 234.456C226.838 234.309 226.655 234.177 226.427 234.06C226.207 233.935 225.951 233.829 225.657 233.741L221.565 232.531C221.213 232.428 220.832 232.293 220.421 232.124C220.018 231.948 219.633 231.71 219.266 231.409C218.907 231.101 218.61 230.712 218.375 230.243C218.148 229.766 218.034 229.18 218.034 228.483C218.034 227.464 218.291 226.609 218.804 225.92C219.325 225.223 220.022 224.703 220.894 224.358C221.774 224.013 222.75 223.845 223.82 223.852C224.906 223.859 225.874 224.046 226.724 224.413C227.575 224.772 228.286 225.297 228.858 225.986C229.43 226.675 229.834 227.508 230.068 228.483L227.219 228.978C227.102 228.421 226.875 227.948 226.537 227.559C226.207 227.163 225.8 226.862 225.316 226.657C224.84 226.452 224.33 226.342 223.787 226.327C223.259 226.32 222.768 226.4 222.313 226.569C221.866 226.73 221.503 226.965 221.224 227.273C220.953 227.581 220.817 227.94 220.817 228.351C220.817 228.74 220.935 229.059 221.169 229.308C221.404 229.55 221.694 229.744 222.038 229.891C222.39 230.03 222.746 230.148 223.105 230.243L225.943 231.035C226.332 231.138 226.768 231.277 227.252 231.453C227.736 231.629 228.202 231.875 228.649 232.19C229.097 232.505 229.463 232.92 229.749 233.433C230.043 233.946 230.189 234.599 230.189 235.391C230.189 236.212 230.017 236.935 229.672 237.558C229.335 238.174 228.877 238.687 228.297 239.098C227.718 239.509 227.054 239.817 226.306 240.022C225.566 240.227 224.788 240.33 223.974 240.33ZM236.376 240V226.646H231.25V224.16H244.153V226.646H239.027V240H236.376ZM245.912 240V224.16H252.457C252.611 224.16 252.809 224.167 253.051 224.182C253.293 224.189 253.517 224.211 253.722 224.248C254.639 224.387 255.394 224.692 255.988 225.161C256.589 225.63 257.033 226.224 257.319 226.943C257.612 227.654 257.759 228.446 257.759 229.319C257.759 230.61 257.433 231.721 256.78 232.652C256.127 233.576 255.126 234.148 253.777 234.368L252.644 234.467H248.563V240H245.912ZM255.009 240L251.885 233.554L254.58 232.96L258.012 240H255.009ZM248.563 231.992H252.347C252.494 231.992 252.659 231.985 252.842 231.97C253.025 231.955 253.194 231.926 253.348 231.882C253.788 231.772 254.133 231.578 254.382 231.299C254.639 231.02 254.818 230.705 254.921 230.353C255.031 230.001 255.086 229.656 255.086 229.319C255.086 228.982 255.031 228.637 254.921 228.285C254.818 227.926 254.639 227.607 254.382 227.328C254.133 227.049 253.788 226.855 253.348 226.745C253.194 226.701 253.025 226.675 252.842 226.668C252.659 226.653 252.494 226.646 252.347 226.646H248.563V231.992ZM259.336 240L264.33 224.16H268.213L273.207 240H270.479L265.947 225.788H266.541L262.064 240H259.336ZM262.119 236.568V234.093H270.435V236.568H262.119ZM275.195 240V224.16H277.879L285.227 235.325V224.16H287.911V240H285.227L277.879 228.835V240H275.195ZM297.52 240.33C296.494 240.33 295.529 240.15 294.627 239.791C293.733 239.424 292.944 238.889 292.262 238.185C291.588 237.481 291.06 236.619 290.678 235.6C290.297 234.573 290.106 233.4 290.106 232.08C290.106 230.349 290.429 228.872 291.074 227.647C291.72 226.415 292.603 225.473 293.725 224.82C294.847 224.16 296.112 223.83 297.52 223.83C299.471 223.83 301.015 224.285 302.151 225.194C303.295 226.096 304.069 227.365 304.472 229L301.766 229.429C301.466 228.49 300.974 227.742 300.292 227.185C299.61 226.62 298.741 226.338 297.685 226.338C296.622 226.323 295.738 226.554 295.034 227.031C294.33 227.508 293.799 228.179 293.439 229.044C293.087 229.909 292.911 230.921 292.911 232.08C292.911 233.239 293.087 234.247 293.439 235.105C293.791 235.956 294.319 236.619 295.023 237.096C295.735 237.573 296.622 237.818 297.685 237.833C298.485 237.84 299.185 237.697 299.786 237.404C300.388 237.103 300.879 236.652 301.26 236.051C301.642 235.442 301.898 234.683 302.03 233.774H299.236V231.695H304.846C304.861 231.812 304.872 231.985 304.879 232.212C304.887 232.439 304.89 232.575 304.89 232.619C304.89 234.115 304.593 235.446 303.999 236.612C303.413 237.771 302.569 238.68 301.469 239.34C300.369 240 299.053 240.33 297.52 240.33ZM307.1 240V224.16H317.33V226.646H309.751V230.551H316.01V233.037H309.751V237.514H317.33V240H307.1ZM331.072 240.33C329.488 240.33 328.131 239.985 327.002 239.296C325.873 238.599 325.004 237.631 324.395 236.392C323.794 235.153 323.493 233.715 323.493 232.08C323.493 230.445 323.794 229.007 324.395 227.768C325.004 226.529 325.873 225.564 327.002 224.875C328.131 224.178 329.488 223.83 331.072 223.83C332.656 223.83 334.013 224.178 335.142 224.875C336.279 225.564 337.148 226.529 337.749 227.768C338.358 229.007 338.662 230.445 338.662 232.08C338.662 233.715 338.358 235.153 337.749 236.392C337.148 237.631 336.279 238.599 335.142 239.296C334.013 239.985 332.656 240.33 331.072 240.33ZM331.072 237.833C332.135 237.84 333.019 237.606 333.723 237.129C334.434 236.652 334.966 235.981 335.318 235.116C335.677 234.251 335.857 233.239 335.857 232.08C335.857 230.921 335.677 229.917 335.318 229.066C334.966 228.208 334.434 227.541 333.723 227.064C333.019 226.587 332.135 226.342 331.072 226.327C330.009 226.32 329.125 226.554 328.421 227.031C327.717 227.508 327.185 228.179 326.826 229.044C326.474 229.909 326.298 230.921 326.298 232.08C326.298 233.239 326.474 234.247 326.826 235.105C327.178 235.956 327.706 236.619 328.41 237.096C329.121 237.573 330.009 237.818 331.072 237.833ZM340.852 240V224.16H347.397C347.551 224.16 347.749 224.167 347.991 224.182C348.233 224.189 348.456 224.211 348.662 224.248C349.578 224.387 350.334 224.692 350.928 225.161C351.529 225.63 351.973 226.224 352.259 226.943C352.552 227.654 352.699 228.446 352.699 229.319C352.699 230.61 352.372 231.721 351.72 232.652C351.067 233.576 350.066 234.148 348.717 234.368L347.584 234.467H343.503V240H340.852ZM349.949 240L346.825 233.554L349.52 232.96L352.952 240H349.949ZM343.503 231.992H347.287C347.433 231.992 347.598 231.985 347.782 231.97C347.965 231.955 348.134 231.926 348.288 231.882C348.728 231.772 349.072 231.578 349.322 231.299C349.578 231.02 349.758 230.705 349.861 230.353C349.971 230.001 350.026 229.656 350.026 229.319C350.026 228.982 349.971 228.637 349.861 228.285C349.758 227.926 349.578 227.607 349.322 227.328C349.072 227.049 348.728 226.855 348.288 226.745C348.134 226.701 347.965 226.675 347.782 226.668C347.598 226.653 347.433 226.646 347.287 226.646H343.503V231.992ZM359.779 240V224.16H364.828C364.96 224.16 365.221 224.164 365.609 224.171C366.005 224.178 366.387 224.204 366.753 224.248C368.007 224.409 369.067 224.857 369.932 225.59C370.805 226.316 371.465 227.244 371.912 228.373C372.36 229.502 372.583 230.738 372.583 232.08C372.583 233.422 372.36 234.658 371.912 235.787C371.465 236.916 370.805 237.848 369.932 238.581C369.067 239.307 368.007 239.751 366.753 239.912C366.394 239.956 366.016 239.982 365.62 239.989C365.224 239.996 364.96 240 364.828 240H359.779ZM362.474 237.503H364.828C365.048 237.503 365.327 237.496 365.664 237.481C366.009 237.466 366.313 237.433 366.577 237.382C367.325 237.243 367.934 236.909 368.403 236.381C368.873 235.853 369.217 235.211 369.437 234.456C369.665 233.701 369.778 232.909 369.778 232.08C369.778 231.222 369.665 230.415 369.437 229.66C369.21 228.905 368.858 228.27 368.381 227.757C367.912 227.244 367.311 226.917 366.577 226.778C366.313 226.719 366.009 226.686 365.664 226.679C365.327 226.664 365.048 226.657 364.828 226.657H362.474V237.503ZM375.404 240V224.16H378.055V240H375.404ZM381.35 240V224.16H390.887V226.811H384.001V230.76H389.567V233.4H384.001V240H381.35ZM392.865 240V224.16H402.402V226.811H395.516V230.76H401.082V233.4H395.516V240H392.865ZM404.601 240V224.16H407.252V240H404.601ZM417.246 240.33C415.662 240.33 414.305 239.985 413.176 239.296C412.047 238.599 411.178 237.631 410.569 236.392C409.968 235.153 409.667 233.715 409.667 232.08C409.667 230.445 409.968 229.007 410.569 227.768C411.178 226.529 412.047 225.564 413.176 224.875C414.305 224.178 415.662 223.83 417.246 223.83C419.072 223.83 420.594 224.288 421.811 225.205C423.028 226.114 423.883 227.343 424.374 228.89L421.701 229.627C421.393 228.593 420.869 227.786 420.128 227.207C419.387 226.62 418.427 226.327 417.246 226.327C416.183 226.327 415.295 226.565 414.584 227.042C413.88 227.519 413.348 228.19 412.989 229.055C412.637 229.913 412.457 230.921 412.45 232.08C412.45 233.239 412.626 234.251 412.978 235.116C413.337 235.974 413.873 236.641 414.584 237.118C415.295 237.595 416.183 237.833 417.246 237.833C418.427 237.833 419.387 237.54 420.128 236.953C420.869 236.366 421.393 235.56 421.701 234.533L424.374 235.27C423.883 236.817 423.028 238.049 421.811 238.966C420.594 239.875 419.072 240.33 417.246 240.33ZM433.169 240.33C431.908 240.33 430.797 240.073 429.836 239.56C428.883 239.047 428.135 238.324 427.592 237.393C427.057 236.462 426.789 235.369 426.789 234.115V224.182L429.473 224.16V234.049C429.473 234.643 429.572 235.175 429.77 235.644C429.975 236.113 430.25 236.513 430.595 236.843C430.94 237.166 431.336 237.411 431.783 237.58C432.23 237.749 432.692 237.833 433.169 237.833C433.66 237.833 434.126 237.749 434.566 237.58C435.013 237.404 435.409 237.155 435.754 236.832C436.099 236.502 436.37 236.102 436.568 235.633C436.766 235.164 436.865 234.636 436.865 234.049V224.16H439.549V234.115C439.549 235.369 439.278 236.462 438.735 237.393C438.2 238.324 437.452 239.047 436.491 239.56C435.538 240.073 434.43 240.33 433.169 240.33ZM442.843 240V224.16H445.494V237.514H452.49V240H442.843ZM455.968 240V226.646H450.842V224.16H463.745V226.646H458.619V240H455.968ZM468.375 235.699C468.375 235.193 468.423 234.705 468.518 234.236C468.621 233.759 468.786 233.319 469.013 232.916C469.211 232.527 469.431 232.219 469.673 231.992C469.915 231.757 470.186 231.526 470.487 231.299C470.788 231.064 471.121 230.753 471.488 230.364C471.789 230.034 471.987 229.708 472.082 229.385C472.177 229.055 472.225 228.703 472.225 228.329C472.225 228.087 472.199 227.86 472.148 227.647C472.097 227.434 472.005 227.251 471.873 227.097C471.668 226.826 471.404 226.635 471.081 226.525C470.758 226.408 470.414 226.349 470.047 226.349C469.746 226.349 469.457 226.389 469.178 226.47C468.907 226.543 468.676 226.661 468.485 226.822C468.265 226.998 468.104 227.214 468.001 227.471C467.898 227.728 467.851 228.01 467.858 228.318H465.064C465.137 227.585 465.335 226.906 465.658 226.283C465.988 225.652 466.421 225.15 466.956 224.776C467.374 224.468 467.843 224.237 468.364 224.083C468.892 223.929 469.42 223.852 469.948 223.852C470.755 223.852 471.514 223.977 472.225 224.226C472.944 224.475 473.541 224.886 474.018 225.458C474.348 225.832 474.597 226.265 474.766 226.756C474.942 227.247 475.03 227.746 475.03 228.252C475.03 229.007 474.865 229.697 474.535 230.32C474.212 230.943 473.802 231.519 473.303 232.047C473.068 232.296 472.845 232.516 472.632 232.707C472.419 232.898 472.221 233.085 472.038 233.268C471.862 233.444 471.715 233.631 471.598 233.829C471.393 234.174 471.272 234.467 471.235 234.709C471.198 234.944 471.18 235.274 471.18 235.699H468.375ZM468.397 240V237.085H471.18V240H468.397Z" fill="white"></path></svg> 