<?xml version="1.0" encoding="UTF-8"?> <svg xmlns="http://www.w3.org/2000/svg" width="800" height="450" viewBox="0 0 800 450" fill="none"><rect width="800" height="450" rx="20" fill="#303FC5"></rect><path d="M284.032 132.84C280 132.84 276.547 131.963 273.672 130.208C270.798 128.435 268.586 125.971 267.036 122.816C265.506 119.661 264.74 116.003 264.74 111.84C264.74 107.677 265.506 104.019 267.036 100.864C268.586 97.7093 270.798 95.2547 273.672 93.5C276.547 91.7267 280 90.84 284.032 90.84C288.68 90.84 292.554 92.0067 295.652 94.34C298.751 96.6547 300.926 99.7813 302.176 103.72L295.372 105.596C294.588 102.964 293.254 100.911 291.368 99.436C289.483 97.9427 287.038 97.196 284.032 97.196C281.326 97.196 279.067 97.8027 277.256 99.016C275.464 100.229 274.111 101.937 273.196 104.14C272.3 106.324 271.843 108.891 271.824 111.84C271.824 114.789 272.272 117.365 273.168 119.568C274.083 121.752 275.446 123.451 277.256 124.664C279.067 125.877 281.326 126.484 284.032 126.484C287.038 126.484 289.483 125.737 291.368 124.244C293.254 122.751 294.588 120.697 295.372 118.084L302.176 119.96C300.926 123.899 298.751 127.035 295.652 129.368C292.554 131.683 288.68 132.84 284.032 132.84ZM310.004 132V91.68H316.752V125.672H334.56V132H310.004ZM340.984 132V91.68H347.732V132H340.984ZM357.239 132V91.68H363.315L377.259 120.24L391.203 91.68H397.279V132H390.979V106.156L378.603 132H375.915L363.567 106.156V132H357.239ZM406.265 132V91.68H422.253C424.978 91.68 427.209 92.2307 428.945 93.332C430.7 94.4147 431.997 95.8053 432.837 97.504C433.696 99.2027 434.125 100.957 434.125 102.768C434.125 104.989 433.593 106.875 432.529 108.424C431.484 109.973 430.056 111.019 428.245 111.56V110.16C430.784 110.739 432.706 111.943 434.013 113.772C435.338 115.601 436.001 117.683 436.001 120.016C436.001 122.405 435.544 124.496 434.629 126.288C433.714 128.08 432.352 129.48 430.541 130.488C428.749 131.496 426.528 132 423.877 132H406.265ZM413.097 125.644H423.037C424.213 125.644 425.268 125.411 426.201 124.944C427.134 124.459 427.862 123.787 428.385 122.928C428.926 122.051 429.197 121.015 429.197 119.82C429.197 118.737 428.964 117.767 428.497 116.908C428.03 116.049 427.349 115.368 426.453 114.864C425.557 114.341 424.484 114.08 423.233 114.08H413.097V125.644ZM413.097 107.78H422.169C423.14 107.78 424.008 107.593 424.773 107.22C425.538 106.847 426.145 106.296 426.593 105.568C427.041 104.84 427.265 103.944 427.265 102.88C427.265 101.48 426.817 100.313 425.921 99.38C425.025 98.4467 423.774 97.98 422.169 97.98H413.097V107.78ZM443.273 132V91.68H450.021V132H443.273ZM459.529 132V91.68H466.361L485.065 120.1V91.68H491.897V132H485.065L466.361 103.58V132H459.529ZM517.476 132.84C514.863 132.84 512.408 132.383 510.112 131.468C507.835 130.535 505.828 129.172 504.092 127.38C502.375 125.588 501.031 123.395 500.06 120.8C499.089 118.187 498.604 115.2 498.604 111.84C498.604 107.435 499.425 103.673 501.068 100.556C502.711 97.42 504.96 95.0213 507.816 93.36C510.672 91.68 513.892 90.84 517.476 90.84C522.441 90.84 526.371 91.9973 529.264 94.312C532.176 96.608 534.145 99.8373 535.172 104L528.284 105.092C527.519 102.703 526.268 100.799 524.532 99.38C522.796 97.9427 520.584 97.224 517.896 97.224C515.189 97.1867 512.94 97.7747 511.148 98.988C509.356 100.201 508.003 101.909 507.088 104.112C506.192 106.315 505.744 108.891 505.744 111.84C505.744 114.789 506.192 117.356 507.088 119.54C507.984 121.705 509.328 123.395 511.12 124.608C512.931 125.821 515.189 126.447 517.896 126.484C519.931 126.503 521.713 126.139 523.244 125.392C524.775 124.627 526.025 123.479 526.996 121.948C527.967 120.399 528.62 118.467 528.956 116.152H521.844V110.86H536.124C536.161 111.159 536.189 111.597 536.208 112.176C536.227 112.755 536.236 113.1 536.236 113.212C536.236 117.02 535.48 120.408 533.968 123.376C532.475 126.325 530.328 128.64 527.528 130.32C524.728 132 521.377 132.84 517.476 132.84Z" fill="#E1F2FF"></path><path d="M183.533 239V212.897L177.842 216.341V212.162L183.533 208.76H187.334V239H183.533ZM200.569 239V234.884H204.685V239H200.569ZM234.121 239.63C232.007 239.63 230.194 239.105 228.682 238.055C227.17 236.991 226.001 235.556 225.175 233.75C224.363 231.944 223.957 229.907 223.957 227.639C223.957 225.371 224.363 223.334 225.175 221.528C226.001 219.722 227.17 218.301 228.682 217.265C230.194 216.215 232 215.69 234.1 215.69C236.242 215.69 238.041 216.208 239.497 217.244C240.953 218.28 242.052 219.701 242.794 221.507C243.55 223.313 243.928 225.357 243.928 227.639C243.928 229.893 243.55 231.93 242.794 233.75C242.052 235.556 240.953 236.991 239.497 238.055C238.041 239.105 236.249 239.63 234.121 239.63ZM234.583 236.207C236.109 236.207 237.362 235.843 238.342 235.115C239.322 234.373 240.043 233.358 240.505 232.07C240.981 230.768 241.219 229.291 241.219 227.639C241.219 225.959 240.981 224.482 240.505 223.208C240.043 221.92 239.329 220.919 238.363 220.205C237.397 219.477 236.172 219.113 234.688 219.113C233.148 219.113 231.874 219.491 230.866 220.247C229.872 221.003 229.13 222.025 228.64 223.313C228.164 224.601 227.926 226.043 227.926 227.639C227.926 229.249 228.171 230.705 228.661 232.007C229.151 233.295 229.886 234.317 230.866 235.073C231.86 235.829 233.099 236.207 234.583 236.207ZM241.219 239V222.305H240.799V208.76H244.558V239H241.219ZM257.728 239.63C256.034 239.63 254.613 239.322 253.465 238.706C252.331 238.076 251.47 237.25 250.882 236.228C250.308 235.206 250.021 234.086 250.021 232.868C250.021 231.678 250.245 230.649 250.693 229.781C251.155 228.899 251.799 228.171 252.625 227.597C253.451 227.009 254.438 226.547 255.586 226.211C256.664 225.917 257.868 225.665 259.198 225.455C260.542 225.231 261.9 225.028 263.272 224.846C264.644 224.664 265.925 224.489 267.115 224.321L265.771 225.098C265.813 223.082 265.407 221.591 264.553 220.625C263.713 219.659 262.257 219.176 260.185 219.176C258.813 219.176 257.609 219.491 256.573 220.121C255.551 220.737 254.83 221.745 254.41 223.145L250.861 222.074C251.407 220.086 252.464 218.525 254.032 217.391C255.6 216.257 257.665 215.69 260.227 215.69C262.285 215.69 264.049 216.061 265.519 216.803C267.003 217.531 268.067 218.637 268.711 220.121C269.033 220.821 269.236 221.584 269.32 222.41C269.404 223.222 269.446 224.076 269.446 224.972V239H266.128V233.561L266.905 234.065C266.051 235.899 264.854 237.285 263.314 238.223C261.788 239.161 259.926 239.63 257.728 239.63ZM258.295 236.501C259.639 236.501 260.801 236.263 261.781 235.787C262.775 235.297 263.573 234.66 264.175 233.876C264.777 233.078 265.169 232.21 265.351 231.272C265.561 230.572 265.673 229.795 265.687 228.941C265.715 228.073 265.729 227.408 265.729 226.946L267.031 227.513C265.813 227.681 264.616 227.842 263.44 227.996C262.264 228.15 261.151 228.318 260.101 228.5C259.051 228.668 258.106 228.871 257.266 229.109C256.65 229.305 256.069 229.557 255.523 229.865C254.991 230.173 254.557 230.572 254.221 231.062C253.899 231.538 253.738 232.133 253.738 232.847C253.738 233.463 253.892 234.051 254.2 234.611C254.522 235.171 255.012 235.626 255.67 235.976C256.342 236.326 257.217 236.501 258.295 236.501ZM291.895 239V227.639C291.895 226.561 291.797 225.525 291.601 224.531C291.419 223.537 291.09 222.648 290.614 221.864C290.152 221.066 289.522 220.436 288.724 219.974C287.94 219.512 286.946 219.281 285.742 219.281C284.804 219.281 283.95 219.442 283.18 219.764C282.424 220.072 281.773 220.548 281.227 221.192C280.681 221.836 280.254 222.648 279.946 223.628C279.652 224.594 279.505 225.735 279.505 227.051L277.048 226.295C277.048 224.097 277.44 222.214 278.224 220.646C279.022 219.064 280.135 217.853 281.563 217.013C283.005 216.159 284.699 215.732 286.645 215.732C288.115 215.732 289.368 215.963 290.404 216.425C291.44 216.887 292.301 217.503 292.987 218.273C293.673 219.029 294.212 219.883 294.604 220.835C294.996 221.773 295.269 222.732 295.423 223.712C295.591 224.678 295.675 225.595 295.675 226.463V239H291.895ZM275.725 239V216.32H279.085V222.389H279.505V239H275.725ZM311.152 249.71C309.962 249.71 308.8 249.528 307.666 249.164C306.532 248.8 305.489 248.247 304.537 247.505C303.599 246.777 302.815 245.853 302.185 244.733L305.608 242.927C306.168 244.033 306.959 244.838 307.981 245.342C309.017 245.846 310.081 246.098 311.173 246.098C312.615 246.098 313.812 245.832 314.764 245.3C315.716 244.782 316.416 244.005 316.864 242.969C317.326 241.933 317.55 240.645 317.536 239.105V232.91H317.977V216.32H321.295V239.147C321.295 239.763 321.274 240.358 321.232 240.932C321.204 241.506 321.134 242.073 321.022 242.633C320.728 244.243 320.147 245.566 319.279 246.602C318.411 247.652 317.291 248.429 315.919 248.933C314.547 249.451 312.958 249.71 311.152 249.71ZM310.879 239.63C308.765 239.63 306.952 239.105 305.44 238.055C303.928 236.991 302.759 235.556 301.933 233.75C301.121 231.944 300.715 229.907 300.715 227.639C300.715 225.371 301.121 223.334 301.933 221.528C302.759 219.722 303.928 218.301 305.44 217.265C306.952 216.215 308.758 215.69 310.858 215.69C313 215.69 314.799 216.208 316.255 217.244C317.711 218.28 318.81 219.701 319.552 221.507C320.308 223.313 320.686 225.357 320.686 227.639C320.686 229.893 320.308 231.93 319.552 233.75C318.81 235.556 317.711 236.991 316.255 238.055C314.799 239.105 313.007 239.63 310.879 239.63ZM311.341 236.207C312.867 236.207 314.12 235.843 315.1 235.115C316.08 234.373 316.801 233.358 317.263 232.07C317.739 230.768 317.977 229.291 317.977 227.639C317.977 225.959 317.739 224.482 317.263 223.208C316.801 221.92 316.087 220.919 315.121 220.205C314.155 219.477 312.93 219.113 311.446 219.113C309.906 219.113 308.632 219.491 307.624 220.247C306.63 221.003 305.888 222.025 305.398 223.313C304.922 224.601 304.684 226.043 304.684 227.639C304.684 229.249 304.929 230.705 305.419 232.007C305.909 233.295 306.644 234.317 307.624 235.073C308.618 235.829 309.857 236.207 311.341 236.207ZM337.827 239.63C335.601 239.63 333.655 239.14 331.989 238.16C330.337 237.166 329.049 235.787 328.125 234.023C327.201 232.245 326.739 230.173 326.739 227.807C326.739 225.329 327.194 223.187 328.104 221.381C329.014 219.561 330.281 218.161 331.905 217.181C333.543 216.187 335.461 215.69 337.659 215.69C339.941 215.69 341.88 216.215 343.476 217.265C345.086 218.315 346.29 219.813 347.088 221.759C347.9 223.705 348.25 226.022 348.138 228.71H344.358V227.366C344.316 224.58 343.749 222.501 342.657 221.129C341.565 219.743 339.941 219.05 337.785 219.05C335.475 219.05 333.718 219.792 332.514 221.276C331.31 222.76 330.708 224.888 330.708 227.66C330.708 230.334 331.31 232.406 332.514 233.876C333.718 235.346 335.433 236.081 337.659 236.081C339.157 236.081 340.459 235.738 341.565 235.052C342.671 234.366 343.539 233.379 344.169 232.091L347.76 233.33C346.878 235.332 345.548 236.886 343.77 237.992C342.006 239.084 340.025 239.63 337.827 239.63ZM329.448 228.71V225.707H346.206V228.71H329.448ZM353.653 239V216.32H356.992V221.801L356.446 221.087C356.712 220.387 357.055 219.743 357.475 219.155C357.909 218.567 358.392 218.084 358.924 217.706C359.512 217.23 360.177 216.866 360.919 216.614C361.661 216.362 362.417 216.215 363.187 216.173C363.957 216.117 364.678 216.166 365.35 216.32V219.827C364.566 219.617 363.705 219.561 362.767 219.659C361.829 219.757 360.961 220.1 360.163 220.688C359.435 221.206 358.868 221.836 358.462 222.578C358.07 223.32 357.797 224.125 357.643 224.993C357.489 225.847 357.412 226.722 357.412 227.618V239H353.653ZM379.411 239.63C377.157 239.63 375.211 239.119 373.573 238.097C371.949 237.075 370.696 235.661 369.814 233.855C368.932 232.049 368.491 229.977 368.491 227.639C368.491 225.259 368.939 223.173 369.835 221.381C370.731 219.589 371.998 218.196 373.636 217.202C375.274 216.194 377.199 215.69 379.411 215.69C381.679 215.69 383.632 216.201 385.27 217.223C386.908 218.231 388.161 219.638 389.029 221.444C389.911 223.236 390.352 225.301 390.352 227.639C390.352 230.005 389.911 232.091 389.029 233.897C388.147 235.689 386.887 237.096 385.249 238.118C383.611 239.126 381.665 239.63 379.411 239.63ZM379.411 236.081C381.763 236.081 383.513 235.297 384.661 233.729C385.809 232.161 386.383 230.131 386.383 227.639C386.383 225.077 385.802 223.04 384.64 221.528C383.478 220.002 381.735 219.239 379.411 219.239C377.829 219.239 376.527 219.596 375.505 220.31C374.483 221.024 373.72 222.011 373.216 223.271C372.712 224.531 372.46 225.987 372.46 227.639C372.46 230.187 373.048 232.231 374.224 233.771C375.4 235.311 377.129 236.081 379.411 236.081ZM404.426 239.588C402.97 239.588 401.717 239.357 400.667 238.895C399.631 238.433 398.77 237.817 398.084 237.047C397.398 236.277 396.859 235.423 396.467 234.485C396.075 233.547 395.795 232.588 395.627 231.608C395.473 230.628 395.396 229.711 395.396 228.857V216.32H399.176V227.681C399.176 228.745 399.274 229.774 399.47 230.768C399.666 231.762 399.995 232.658 400.457 233.456C400.933 234.254 401.563 234.884 402.347 235.346C403.145 235.808 404.139 236.039 405.329 236.039C406.267 236.039 407.121 235.878 407.891 235.556C408.661 235.234 409.319 234.758 409.865 234.128C410.411 233.484 410.831 232.672 411.125 231.692C411.419 230.712 411.566 229.571 411.566 228.269L414.023 229.025C414.023 231.209 413.624 233.092 412.826 234.674C412.042 236.256 410.929 237.474 409.487 238.328C408.059 239.168 406.372 239.588 404.426 239.588ZM411.986 239V232.931H411.566V216.32H415.325V239H411.986ZM430.612 239.609C427.91 239.609 425.691 239.021 423.955 237.845C422.233 236.655 421.176 234.996 420.784 232.868L424.606 232.259C424.914 233.491 425.621 234.471 426.727 235.199C427.833 235.913 429.205 236.27 430.843 236.27C432.397 236.27 433.615 235.948 434.497 235.304C435.379 234.66 435.82 233.785 435.82 232.679C435.82 232.035 435.673 231.517 435.379 231.125C435.085 230.719 434.476 230.341 433.552 229.991C432.642 229.641 431.263 229.221 429.415 228.731C427.413 228.199 425.838 227.646 424.69 227.072C423.542 226.498 422.723 225.833 422.233 225.077C421.743 224.321 421.498 223.404 421.498 222.326C421.498 220.996 421.862 219.834 422.59 218.84C423.318 217.832 424.333 217.055 425.635 216.509C426.951 215.963 428.477 215.69 430.213 215.69C431.935 215.69 433.475 215.963 434.833 216.509C436.191 217.055 437.283 217.832 438.109 218.84C438.949 219.834 439.446 220.996 439.6 222.326L435.778 223.019C435.596 221.801 435.008 220.842 434.014 220.142C433.034 219.442 431.767 219.071 430.213 219.029C428.743 218.973 427.546 219.232 426.622 219.806C425.712 220.38 425.257 221.157 425.257 222.137C425.257 222.683 425.425 223.152 425.761 223.544C426.111 223.936 426.748 224.307 427.672 224.657C428.61 225.007 429.968 225.406 431.746 225.854C433.748 226.358 435.323 226.911 436.471 227.513C437.633 228.101 438.459 228.801 438.949 229.613C439.439 230.411 439.684 231.398 439.684 232.574C439.684 234.758 438.879 236.48 437.269 237.74C435.659 238.986 433.44 239.609 430.612 239.609ZM462.048 208.76H465.849L457.785 239H453.984L462.048 208.76ZM486.221 239L479.291 216.299L483.008 216.32L488.069 232.91L493.172 216.32H496.469L501.551 232.91L506.633 216.32H510.329L503.399 239H500.291L494.81 221.759L489.329 239H486.221ZM520.137 239.63C518.443 239.63 517.022 239.322 515.874 238.706C514.74 238.076 513.879 237.25 513.291 236.228C512.717 235.206 512.43 234.086 512.43 232.868C512.43 231.678 512.654 230.649 513.102 229.781C513.564 228.899 514.208 228.171 515.034 227.597C515.86 227.009 516.847 226.547 517.995 226.211C519.073 225.917 520.277 225.665 521.607 225.455C522.951 225.231 524.309 225.028 525.681 224.846C527.053 224.664 528.334 224.489 529.524 224.321L528.18 225.098C528.222 223.082 527.816 221.591 526.962 220.625C526.122 219.659 524.666 219.176 522.594 219.176C521.222 219.176 520.018 219.491 518.982 220.121C517.96 220.737 517.239 221.745 516.819 223.145L513.27 222.074C513.816 220.086 514.873 218.525 516.441 217.391C518.009 216.257 520.074 215.69 522.636 215.69C524.694 215.69 526.458 216.061 527.928 216.803C529.412 217.531 530.476 218.637 531.12 220.121C531.442 220.821 531.645 221.584 531.729 222.41C531.813 223.222 531.855 224.076 531.855 224.972V239H528.537V233.561L529.314 234.065C528.46 235.899 527.263 237.285 525.723 238.223C524.197 239.161 522.335 239.63 520.137 239.63ZM520.704 236.501C522.048 236.501 523.21 236.263 524.19 235.787C525.184 235.297 525.982 234.66 526.584 233.876C527.186 233.078 527.578 232.21 527.76 231.272C527.97 230.572 528.082 229.795 528.096 228.941C528.124 228.073 528.138 227.408 528.138 226.946L529.44 227.513C528.222 227.681 527.025 227.842 525.849 227.996C524.673 228.15 523.56 228.318 522.51 228.5C521.46 228.668 520.515 228.871 519.675 229.109C519.059 229.305 518.478 229.557 517.932 229.865C517.4 230.173 516.966 230.572 516.63 231.062C516.308 231.538 516.147 232.133 516.147 232.847C516.147 233.463 516.301 234.051 516.609 234.611C516.931 235.171 517.421 235.626 518.079 235.976C518.751 236.326 519.626 236.501 520.704 236.501ZM538.575 239V208.13H542.313V239H538.575ZM549.433 239L549.454 208.76H553.234V227.24L562.747 216.32H567.598L557.581 227.66L568.774 239H563.545L553.234 228.08V239H549.433ZM572.124 212.309V208.445H575.862V212.309H572.124ZM572.124 239V216.32H575.862V239H572.124ZM599.152 239V227.639C599.152 226.561 599.054 225.525 598.858 224.531C598.676 223.537 598.347 222.648 597.871 221.864C597.409 221.066 596.779 220.436 595.981 219.974C595.197 219.512 594.203 219.281 592.999 219.281C592.061 219.281 591.207 219.442 590.437 219.764C589.681 220.072 589.03 220.548 588.484 221.192C587.938 221.836 587.511 222.648 587.203 223.628C586.909 224.594 586.762 225.735 586.762 227.051L584.305 226.295C584.305 224.097 584.697 222.214 585.481 220.646C586.279 219.064 587.392 217.853 588.82 217.013C590.262 216.159 591.956 215.732 593.902 215.732C595.372 215.732 596.625 215.963 597.661 216.425C598.697 216.887 599.558 217.503 600.244 218.273C600.93 219.029 601.469 219.883 601.861 220.835C602.253 221.773 602.526 222.732 602.68 223.712C602.848 224.678 602.932 225.595 602.932 226.463V239H599.152ZM582.982 239V216.32H586.342V222.389H586.762V239H582.982ZM618.408 249.71C617.218 249.71 616.056 249.528 614.922 249.164C613.788 248.8 612.745 248.247 611.793 247.505C610.855 246.777 610.071 245.853 609.441 244.733L612.864 242.927C613.424 244.033 614.215 244.838 615.237 245.342C616.273 245.846 617.337 246.098 618.429 246.098C619.871 246.098 621.068 245.832 622.02 245.3C622.972 244.782 623.672 244.005 624.12 242.969C624.582 241.933 624.806 240.645 624.792 239.105V232.91H625.233V216.32H628.551V239.147C628.551 239.763 628.53 240.358 628.488 240.932C628.46 241.506 628.39 242.073 628.278 242.633C627.984 244.243 627.403 245.566 626.535 246.602C625.667 247.652 624.547 248.429 623.175 248.933C621.803 249.451 620.214 249.71 618.408 249.71ZM618.135 239.63C616.021 239.63 614.208 239.105 612.696 238.055C611.184 236.991 610.015 235.556 609.189 233.75C608.377 231.944 607.971 229.907 607.971 227.639C607.971 225.371 608.377 223.334 609.189 221.528C610.015 219.722 611.184 218.301 612.696 217.265C614.208 216.215 616.014 215.69 618.114 215.69C620.256 215.69 622.055 216.208 623.511 217.244C624.967 218.28 626.066 219.701 626.808 221.507C627.564 223.313 627.942 225.357 627.942 227.639C627.942 229.893 627.564 231.93 626.808 233.75C626.066 235.556 624.967 236.991 623.511 238.055C622.055 239.105 620.263 239.63 618.135 239.63ZM618.597 236.207C620.123 236.207 621.376 235.843 622.356 235.115C623.336 234.373 624.057 233.358 624.519 232.07C624.995 230.768 625.233 229.291 625.233 227.639C625.233 225.959 624.995 224.482 624.519 223.208C624.057 221.92 623.343 220.919 622.377 220.205C621.411 219.477 620.186 219.113 618.702 219.113C617.162 219.113 615.888 219.491 614.88 220.247C613.886 221.003 613.144 222.025 612.654 223.313C612.178 224.601 611.94 226.043 611.94 227.639C611.94 229.249 612.185 230.705 612.675 232.007C613.165 233.295 613.9 234.317 614.88 235.073C615.874 235.829 617.113 236.207 618.597 236.207ZM174.683 297.979L174.704 294.619L188.123 282.544C189.243 281.536 189.992 280.584 190.37 279.688C190.762 278.778 190.958 277.847 190.958 276.895C190.958 275.733 190.692 274.683 190.16 273.745C189.628 272.807 188.9 272.065 187.976 271.519C187.066 270.973 186.03 270.7 184.868 270.7C183.664 270.7 182.593 270.987 181.655 271.561C180.717 272.121 179.975 272.87 179.429 273.808C178.897 274.746 178.638 275.768 178.652 276.874H174.83C174.83 274.97 175.271 273.29 176.153 271.834C177.035 270.364 178.232 269.216 179.744 268.39C181.27 267.55 182.999 267.13 184.931 267.13C186.807 267.13 188.487 267.564 189.971 268.432C191.455 269.286 192.624 270.455 193.478 271.939C194.346 273.409 194.78 275.075 194.78 276.937C194.78 278.253 194.612 279.394 194.276 280.36C193.954 281.326 193.45 282.222 192.764 283.048C192.078 283.86 191.217 284.728 190.181 285.652L179.03 295.669L178.547 294.409H194.78V297.979H174.683ZM201.4 298V293.884H205.516V298H201.4ZM226.468 271.309V267.445H230.206V271.309H226.468ZM226.468 298V275.32H230.206V298H226.468ZM253.496 298V286.639C253.496 285.561 253.398 284.525 253.202 283.531C253.02 282.537 252.691 281.648 252.215 280.864C251.753 280.066 251.123 279.436 250.325 278.974C249.541 278.512 248.547 278.281 247.343 278.281C246.405 278.281 245.551 278.442 244.781 278.764C244.025 279.072 243.374 279.548 242.828 280.192C242.282 280.836 241.855 281.648 241.547 282.628C241.253 283.594 241.106 284.735 241.106 286.051L238.649 285.295C238.649 283.097 239.041 281.214 239.825 279.646C240.623 278.064 241.736 276.853 243.164 276.013C244.606 275.159 246.3 274.732 248.246 274.732C249.716 274.732 250.969 274.963 252.005 275.425C253.041 275.887 253.902 276.503 254.588 277.273C255.274 278.029 255.813 278.883 256.205 279.835C256.597 280.773 256.87 281.732 257.024 282.712C257.192 283.678 257.276 284.595 257.276 285.463V298H253.496ZM237.326 298V275.32H240.686V281.389H241.106V298H237.326ZM276.238 298C274.894 298.266 273.564 298.371 272.248 298.315C270.946 298.273 269.784 298.014 268.762 297.538C267.74 297.048 266.963 296.292 266.431 295.27C265.983 294.374 265.738 293.471 265.696 292.561C265.668 291.637 265.654 290.594 265.654 289.432V269.02H269.392V289.264C269.392 290.188 269.399 290.979 269.413 291.637C269.441 292.295 269.588 292.862 269.854 293.338C270.358 294.234 271.156 294.759 272.248 294.913C273.354 295.067 274.684 295.025 276.238 294.787V298ZM261.055 278.407V275.32H276.238V278.407H261.055ZM290.568 298.63C288.342 298.63 286.396 298.14 284.73 297.16C283.078 296.166 281.79 294.787 280.866 293.023C279.942 291.245 279.48 289.173 279.48 286.807C279.48 284.329 279.935 282.187 280.845 280.381C281.755 278.561 283.022 277.161 284.646 276.181C286.284 275.187 288.202 274.69 290.4 274.69C292.682 274.69 294.621 275.215 296.217 276.265C297.827 277.315 299.031 278.813 299.829 280.759C300.641 282.705 300.991 285.022 300.879 287.71H297.099V286.366C297.057 283.58 296.49 281.501 295.398 280.129C294.306 278.743 292.682 278.05 290.526 278.05C288.216 278.05 286.459 278.792 285.255 280.276C284.051 281.76 283.449 283.888 283.449 286.66C283.449 289.334 284.051 291.406 285.255 292.876C286.459 294.346 288.174 295.081 290.4 295.081C291.898 295.081 293.2 294.738 294.306 294.052C295.412 293.366 296.28 292.379 296.91 291.091L300.501 292.33C299.619 294.332 298.289 295.886 296.511 296.992C294.747 298.084 292.766 298.63 290.568 298.63ZM282.189 287.71V284.707H298.947V287.71H282.189ZM306.394 298V275.32H309.733V280.801L309.187 280.087C309.453 279.387 309.796 278.743 310.216 278.155C310.65 277.567 311.133 277.084 311.665 276.706C312.253 276.23 312.918 275.866 313.66 275.614C314.402 275.362 315.158 275.215 315.928 275.173C316.698 275.117 317.419 275.166 318.091 275.32V278.827C317.307 278.617 316.446 278.561 315.508 278.659C314.57 278.757 313.702 279.1 312.904 279.688C312.176 280.206 311.609 280.836 311.203 281.578C310.811 282.32 310.538 283.125 310.384 283.993C310.23 284.847 310.153 285.722 310.153 286.618V298H306.394ZM332.32 298.63C330.094 298.63 328.148 298.14 326.482 297.16C324.83 296.166 323.542 294.787 322.618 293.023C321.694 291.245 321.232 289.173 321.232 286.807C321.232 284.329 321.687 282.187 322.597 280.381C323.507 278.561 324.774 277.161 326.398 276.181C328.036 275.187 329.954 274.69 332.152 274.69C334.434 274.69 336.373 275.215 337.969 276.265C339.579 277.315 340.783 278.813 341.581 280.759C342.393 282.705 342.743 285.022 342.631 287.71H338.851V286.366C338.809 283.58 338.242 281.501 337.15 280.129C336.058 278.743 334.434 278.05 332.278 278.05C329.968 278.05 328.211 278.792 327.007 280.276C325.803 281.76 325.201 283.888 325.201 286.66C325.201 289.334 325.803 291.406 327.007 292.876C328.211 294.346 329.926 295.081 332.152 295.081C333.65 295.081 334.952 294.738 336.058 294.052C337.164 293.366 338.032 292.379 338.662 291.091L342.253 292.33C341.371 294.332 340.041 295.886 338.263 296.992C336.499 298.084 334.518 298.63 332.32 298.63ZM323.941 287.71V284.707H340.699V287.71H323.941ZM356.714 298.609C354.012 298.609 351.793 298.021 350.057 296.845C348.335 295.655 347.278 293.996 346.886 291.868L350.708 291.259C351.016 292.491 351.723 293.471 352.829 294.199C353.935 294.913 355.307 295.27 356.945 295.27C358.499 295.27 359.717 294.948 360.599 294.304C361.481 293.66 361.922 292.785 361.922 291.679C361.922 291.035 361.775 290.517 361.481 290.125C361.187 289.719 360.578 289.341 359.654 288.991C358.744 288.641 357.365 288.221 355.517 287.731C353.515 287.199 351.94 286.646 350.792 286.072C349.644 285.498 348.825 284.833 348.335 284.077C347.845 283.321 347.6 282.404 347.6 281.326C347.6 279.996 347.964 278.834 348.692 277.84C349.42 276.832 350.435 276.055 351.737 275.509C353.053 274.963 354.579 274.69 356.315 274.69C358.037 274.69 359.577 274.963 360.935 275.509C362.293 276.055 363.385 276.832 364.211 277.84C365.051 278.834 365.548 279.996 365.702 281.326L361.88 282.019C361.698 280.801 361.11 279.842 360.116 279.142C359.136 278.442 357.869 278.071 356.315 278.029C354.845 277.973 353.648 278.232 352.724 278.806C351.814 279.38 351.359 280.157 351.359 281.137C351.359 281.683 351.527 282.152 351.863 282.544C352.213 282.936 352.85 283.307 353.774 283.657C354.712 284.007 356.07 284.406 357.848 284.854C359.85 285.358 361.425 285.911 362.573 286.513C363.735 287.101 364.561 287.801 365.051 288.613C365.541 289.411 365.786 290.398 365.786 291.574C365.786 293.758 364.981 295.48 363.371 296.74C361.761 297.986 359.542 298.609 356.714 298.609ZM383.921 298C382.577 298.266 381.247 298.371 379.931 298.315C378.629 298.273 377.467 298.014 376.445 297.538C375.423 297.048 374.646 296.292 374.114 295.27C373.666 294.374 373.421 293.471 373.379 292.561C373.351 291.637 373.337 290.594 373.337 289.432V269.02H377.075V289.264C377.075 290.188 377.082 290.979 377.096 291.637C377.124 292.295 377.271 292.862 377.537 293.338C378.041 294.234 378.839 294.759 379.931 294.913C381.037 295.067 382.367 295.025 383.921 294.787V298ZM368.738 278.407V275.32H383.921V278.407H368.738ZM389.785 271.309V267.445H393.523V271.309H389.785ZM389.785 298V275.32H393.523V298H389.785ZM416.813 298V286.639C416.813 285.561 416.715 284.525 416.519 283.531C416.337 282.537 416.008 281.648 415.532 280.864C415.07 280.066 414.44 279.436 413.642 278.974C412.858 278.512 411.864 278.281 410.66 278.281C409.722 278.281 408.868 278.442 408.098 278.764C407.342 279.072 406.691 279.548 406.145 280.192C405.599 280.836 405.172 281.648 404.864 282.628C404.57 283.594 404.423 284.735 404.423 286.051L401.966 285.295C401.966 283.097 402.358 281.214 403.142 279.646C403.94 278.064 405.053 276.853 406.481 276.013C407.923 275.159 409.617 274.732 411.563 274.732C413.033 274.732 414.286 274.963 415.322 275.425C416.358 275.887 417.219 276.503 417.905 277.273C418.591 278.029 419.13 278.883 419.522 279.835C419.914 280.773 420.187 281.732 420.341 282.712C420.509 283.678 420.593 284.595 420.593 285.463V298H416.813ZM400.643 298V275.32H404.003V281.389H404.423V298H400.643ZM436.07 308.71C434.88 308.71 433.718 308.528 432.584 308.164C431.45 307.8 430.407 307.247 429.455 306.505C428.517 305.777 427.733 304.853 427.103 303.733L430.526 301.927C431.086 303.033 431.877 303.838 432.899 304.342C433.935 304.846 434.999 305.098 436.091 305.098C437.533 305.098 438.73 304.832 439.682 304.3C440.634 303.782 441.334 303.005 441.782 301.969C442.244 300.933 442.468 299.645 442.454 298.105V291.91H442.895V275.32H446.213V298.147C446.213 298.763 446.192 299.358 446.15 299.932C446.122 300.506 446.052 301.073 445.94 301.633C445.646 303.243 445.065 304.566 444.197 305.602C443.329 306.652 442.209 307.429 440.837 307.933C439.465 308.451 437.876 308.71 436.07 308.71ZM435.797 298.63C433.683 298.63 431.87 298.105 430.358 297.055C428.846 295.991 427.677 294.556 426.851 292.75C426.039 290.944 425.633 288.907 425.633 286.639C425.633 284.371 426.039 282.334 426.851 280.528C427.677 278.722 428.846 277.301 430.358 276.265C431.87 275.215 433.676 274.69 435.776 274.69C437.918 274.69 439.717 275.208 441.173 276.244C442.629 277.28 443.728 278.701 444.47 280.507C445.226 282.313 445.604 284.357 445.604 286.639C445.604 288.893 445.226 290.93 444.47 292.75C443.728 294.556 442.629 295.991 441.173 297.055C439.717 298.105 437.925 298.63 435.797 298.63ZM436.259 295.207C437.785 295.207 439.038 294.843 440.018 294.115C440.998 293.373 441.719 292.358 442.181 291.07C442.657 289.768 442.895 288.291 442.895 286.639C442.895 284.959 442.657 283.482 442.181 282.208C441.719 280.92 441.005 279.919 440.039 279.205C439.073 278.477 437.848 278.113 436.364 278.113C434.824 278.113 433.55 278.491 432.542 279.247C431.548 280.003 430.806 281.025 430.316 282.313C429.84 283.601 429.602 285.043 429.602 286.639C429.602 288.249 429.847 289.705 430.337 291.007C430.827 292.295 431.562 293.317 432.542 294.073C433.536 294.829 434.775 295.207 436.259 295.207ZM469.809 267.76H473.61L465.546 298H461.745L469.809 267.76ZM497.72 298.609C495.018 298.609 492.799 298.021 491.063 296.845C489.341 295.655 488.284 293.996 487.892 291.868L491.714 291.259C492.022 292.491 492.729 293.471 493.835 294.199C494.941 294.913 496.313 295.27 497.951 295.27C499.505 295.27 500.723 294.948 501.605 294.304C502.487 293.66 502.928 292.785 502.928 291.679C502.928 291.035 502.781 290.517 502.487 290.125C502.193 289.719 501.584 289.341 500.66 288.991C499.75 288.641 498.371 288.221 496.523 287.731C494.521 287.199 492.946 286.646 491.798 286.072C490.65 285.498 489.831 284.833 489.341 284.077C488.851 283.321 488.606 282.404 488.606 281.326C488.606 279.996 488.97 278.834 489.698 277.84C490.426 276.832 491.441 276.055 492.743 275.509C494.059 274.963 495.585 274.69 497.321 274.69C499.043 274.69 500.583 274.963 501.941 275.509C503.299 276.055 504.391 276.832 505.217 277.84C506.057 278.834 506.554 279.996 506.708 281.326L502.886 282.019C502.704 280.801 502.116 279.842 501.122 279.142C500.142 278.442 498.875 278.071 497.321 278.029C495.851 277.973 494.654 278.232 493.73 278.806C492.82 279.38 492.365 280.157 492.365 281.137C492.365 281.683 492.533 282.152 492.869 282.544C493.219 282.936 493.856 283.307 494.78 283.657C495.718 284.007 497.076 284.406 498.854 284.854C500.856 285.358 502.431 285.911 503.579 286.513C504.741 287.101 505.567 287.801 506.057 288.613C506.547 289.411 506.792 290.398 506.792 291.574C506.792 293.758 505.987 295.48 504.377 296.74C502.767 297.986 500.548 298.609 497.72 298.609ZM520.873 298.588C519.417 298.588 518.164 298.357 517.114 297.895C516.078 297.433 515.217 296.817 514.531 296.047C513.845 295.277 513.306 294.423 512.914 293.485C512.522 292.547 512.242 291.588 512.074 290.608C511.92 289.628 511.843 288.711 511.843 287.857V275.32H515.623V286.681C515.623 287.745 515.721 288.774 515.917 289.768C516.113 290.762 516.442 291.658 516.904 292.456C517.38 293.254 518.01 293.884 518.794 294.346C519.592 294.808 520.586 295.039 521.776 295.039C522.714 295.039 523.568 294.878 524.338 294.556C525.108 294.234 525.766 293.758 526.312 293.128C526.858 292.484 527.278 291.672 527.572 290.692C527.866 289.712 528.013 288.571 528.013 287.269L530.47 288.025C530.47 290.209 530.071 292.092 529.273 293.674C528.489 295.256 527.376 296.474 525.934 297.328C524.506 298.168 522.819 298.588 520.873 298.588ZM528.433 298V291.931H528.013V275.32H531.772V298H528.433ZM538.492 298V275.32H541.831V280.801L541.285 280.087C541.551 279.387 541.894 278.743 542.314 278.155C542.748 277.567 543.231 277.084 543.763 276.706C544.351 276.23 545.016 275.866 545.758 275.614C546.5 275.362 547.256 275.215 548.026 275.173C548.796 275.117 549.517 275.166 550.189 275.32V278.827C549.405 278.617 548.544 278.561 547.606 278.659C546.668 278.757 545.8 279.1 545.002 279.688C544.274 280.206 543.707 280.836 543.301 281.578C542.909 282.32 542.636 283.125 542.482 283.993C542.328 284.847 542.251 285.722 542.251 286.618V298H538.492ZM557.163 298V274.081C557.163 273.493 557.191 272.898 557.247 272.296C557.303 271.68 557.429 271.085 557.625 270.511C557.821 269.923 558.143 269.384 558.591 268.894C559.109 268.32 559.676 267.914 560.292 267.676C560.908 267.424 561.531 267.27 562.161 267.214C562.805 267.158 563.414 267.13 563.988 267.13H566.865V270.238H564.198C563.092 270.238 562.266 270.511 561.72 271.057C561.174 271.589 560.901 272.401 560.901 273.493V298H557.163ZM553.32 278.407V275.32H566.865V278.407H553.32ZM571.275 271.309V267.445H575.013V271.309H571.275ZM571.275 298V275.32H575.013V298H571.275ZM598.321 298V286.639C598.321 285.561 598.223 284.525 598.027 283.531C597.845 282.537 597.516 281.648 597.04 280.864C596.578 280.066 595.948 279.436 595.15 278.974C594.366 278.512 593.372 278.281 592.168 278.281C591.23 278.281 590.376 278.442 589.606 278.764C588.85 279.072 588.199 279.548 587.653 280.192C587.107 280.836 586.68 281.648 586.372 282.628C586.078 283.594 585.931 284.735 585.931 286.051L583.474 285.295C583.474 283.097 583.866 281.214 584.65 279.646C585.448 278.064 586.561 276.853 587.989 276.013C589.431 275.159 591.125 274.732 593.071 274.732C594.541 274.732 595.794 274.963 596.83 275.425C597.866 275.887 598.727 276.503 599.413 277.273C600.099 278.029 600.638 278.883 601.03 279.835C601.422 280.773 601.695 281.732 601.849 282.712C602.017 283.678 602.101 284.595 602.101 285.463V298H598.321ZM582.151 298V275.32H585.511V281.389H585.931V298H582.151ZM617.577 308.71C616.387 308.71 615.225 308.528 614.091 308.164C612.957 307.8 611.914 307.247 610.962 306.505C610.024 305.777 609.24 304.853 608.61 303.733L612.033 301.927C612.593 303.033 613.384 303.838 614.406 304.342C615.442 304.846 616.506 305.098 617.598 305.098C619.04 305.098 620.237 304.832 621.189 304.3C622.141 303.782 622.841 303.005 623.289 301.969C623.751 300.933 623.975 299.645 623.961 298.105V291.91H624.402V275.32H627.72V298.147C627.72 298.763 627.699 299.358 627.657 299.932C627.629 300.506 627.559 301.073 627.447 301.633C627.153 303.243 626.572 304.566 625.704 305.602C624.836 306.652 623.716 307.429 622.344 307.933C620.972 308.451 619.383 308.71 617.577 308.71ZM617.304 298.63C615.19 298.63 613.377 298.105 611.865 297.055C610.353 295.991 609.184 294.556 608.358 292.75C607.546 290.944 607.14 288.907 607.14 286.639C607.14 284.371 607.546 282.334 608.358 280.528C609.184 278.722 610.353 277.301 611.865 276.265C613.377 275.215 615.183 274.69 617.283 274.69C619.425 274.69 621.224 275.208 622.68 276.244C624.136 277.28 625.235 278.701 625.977 280.507C626.733 282.313 627.111 284.357 627.111 286.639C627.111 288.893 626.733 290.93 625.977 292.75C625.235 294.556 624.136 295.991 622.68 297.055C621.224 298.105 619.432 298.63 617.304 298.63ZM617.766 295.207C619.292 295.207 620.545 294.843 621.525 294.115C622.505 293.373 623.226 292.358 623.688 291.07C624.164 289.768 624.402 288.291 624.402 286.639C624.402 284.959 624.164 283.482 623.688 282.208C623.226 280.92 622.512 279.919 621.546 279.205C620.58 278.477 619.355 278.113 617.871 278.113C616.331 278.113 615.057 278.491 614.049 279.247C613.055 280.003 612.313 281.025 611.823 282.313C611.347 283.601 611.109 285.043 611.109 286.639C611.109 288.249 611.354 289.705 611.844 291.007C612.334 292.295 613.069 293.317 614.049 294.073C615.043 294.829 616.282 295.207 617.766 295.207ZM193.998 357.588C192.5 357.588 191.107 357.315 189.819 356.769C188.531 356.209 187.418 355.425 186.48 354.417C185.556 353.395 184.877 352.184 184.443 350.784L188.034 349.755C188.496 351.155 189.266 352.219 190.344 352.947C191.422 353.675 192.633 354.032 193.977 354.018C195.209 353.99 196.273 353.71 197.169 353.178C198.079 352.632 198.779 351.89 199.269 350.952C199.773 350.014 200.025 348.929 200.025 347.697C200.025 345.821 199.465 344.302 198.345 343.14C197.225 341.964 195.755 341.376 193.935 341.376C193.431 341.376 192.899 341.446 192.339 341.586C191.793 341.726 191.282 341.922 190.806 342.174L189 339.213L200.214 329.07L200.697 330.33H185.64V326.76H203.469V330.351L193.914 339.507L193.872 338.184C195.874 338.044 197.624 338.373 199.122 339.171C200.62 339.969 201.782 341.11 202.608 342.594C203.448 344.078 203.868 345.779 203.868 347.697C203.868 349.629 203.434 351.337 202.566 352.821C201.698 354.305 200.522 355.474 199.038 356.328C197.554 357.168 195.874 357.588 193.998 357.588ZM211.202 357V352.884H215.318V357H211.202ZM245.678 357.63C243.452 357.63 241.506 357.14 239.84 356.16C238.188 355.166 236.9 353.787 235.976 352.023C235.052 350.245 234.59 348.173 234.59 345.807C234.59 343.329 235.045 341.187 235.955 339.381C236.865 337.561 238.132 336.161 239.756 335.181C241.394 334.187 243.312 333.69 245.51 333.69C247.792 333.69 249.731 334.215 251.327 335.265C252.937 336.315 254.141 337.813 254.939 339.759C255.751 341.705 256.101 344.022 255.989 346.71H252.209V345.366C252.167 342.58 251.6 340.501 250.508 339.129C249.416 337.743 247.792 337.05 245.636 337.05C243.326 337.05 241.569 337.792 240.365 339.276C239.161 340.76 238.559 342.888 238.559 345.66C238.559 348.334 239.161 350.406 240.365 351.876C241.569 353.346 243.284 354.081 245.51 354.081C247.008 354.081 248.31 353.738 249.416 353.052C250.522 352.366 251.39 351.379 252.02 350.091L255.611 351.33C254.729 353.332 253.399 354.886 251.621 355.992C249.857 357.084 247.876 357.63 245.678 357.63ZM237.299 346.71V343.707H254.057V346.71H237.299ZM258.164 357L266.837 345.534L258.353 334.32H262.805L269.021 342.636L275.174 334.32H279.626L271.142 345.534L279.836 357H275.363L269.021 348.432L262.637 357H258.164ZM296.704 357C295.36 357.266 294.03 357.371 292.714 357.315C291.412 357.273 290.25 357.014 289.228 356.538C288.206 356.048 287.429 355.292 286.897 354.27C286.449 353.374 286.204 352.471 286.162 351.561C286.134 350.637 286.12 349.594 286.12 348.432V328.02H289.858V348.264C289.858 349.188 289.865 349.979 289.879 350.637C289.907 351.295 290.054 351.862 290.32 352.338C290.824 353.234 291.622 353.759 292.714 353.913C293.82 354.067 295.15 354.025 296.704 353.787V357ZM281.521 337.407V334.32H296.704V337.407H281.521ZM302.149 357V334.32H305.488V339.801L304.942 339.087C305.208 338.387 305.551 337.743 305.971 337.155C306.405 336.567 306.888 336.084 307.42 335.706C308.008 335.23 308.673 334.866 309.415 334.614C310.157 334.362 310.913 334.215 311.683 334.173C312.453 334.117 313.174 334.166 313.846 334.32V337.827C313.062 337.617 312.201 337.561 311.263 337.659C310.325 337.757 309.457 338.1 308.659 338.688C307.931 339.206 307.364 339.836 306.958 340.578C306.566 341.32 306.293 342.125 306.139 342.993C305.985 343.847 305.908 344.722 305.908 345.618V357H302.149ZM328.075 357.63C325.849 357.63 323.903 357.14 322.237 356.16C320.585 355.166 319.297 353.787 318.373 352.023C317.449 350.245 316.987 348.173 316.987 345.807C316.987 343.329 317.442 341.187 318.352 339.381C319.262 337.561 320.529 336.161 322.153 335.181C323.791 334.187 325.709 333.69 327.907 333.69C330.189 333.69 332.128 334.215 333.724 335.265C335.334 336.315 336.538 337.813 337.336 339.759C338.148 341.705 338.498 344.022 338.386 346.71H334.606V345.366C334.564 342.58 333.997 340.501 332.905 339.129C331.813 337.743 330.189 337.05 328.033 337.05C325.723 337.05 323.966 337.792 322.762 339.276C321.558 340.76 320.956 342.888 320.956 345.66C320.956 348.334 321.558 350.406 322.762 351.876C323.966 353.346 325.681 354.081 327.907 354.081C329.405 354.081 330.707 353.738 331.813 353.052C332.919 352.366 333.787 351.379 334.417 350.091L338.008 351.33C337.126 353.332 335.796 354.886 334.018 355.992C332.254 357.084 330.273 357.63 328.075 357.63ZM319.696 346.71V343.707H336.454V346.71H319.696ZM370.397 357L370.418 342.489C370.418 340.795 369.963 339.472 369.053 338.52C368.157 337.554 366.988 337.071 365.546 337.071C364.706 337.071 363.908 337.267 363.152 337.659C362.396 338.037 361.78 338.639 361.304 339.465C360.828 340.277 360.59 341.32 360.59 342.594L358.616 341.796C358.588 340.186 358.917 338.779 359.603 337.575C360.303 336.357 361.255 335.412 362.459 334.74C363.663 334.068 365.021 333.732 366.533 333.732C368.899 333.732 370.761 334.453 372.119 335.895C373.477 337.323 374.156 339.248 374.156 341.67L374.135 357H370.397ZM343.265 357V334.32H346.604V340.389H347.024V357H343.265ZM356.852 357L356.873 342.636C356.873 340.9 356.425 339.542 355.529 338.562C354.633 337.568 353.443 337.071 351.959 337.071C350.489 337.071 349.299 337.575 348.389 338.583C347.479 339.591 347.024 340.928 347.024 342.594L345.05 341.418C345.05 339.948 345.4 338.632 346.1 337.47C346.8 336.308 347.752 335.398 348.956 334.74C350.16 334.068 351.525 333.732 353.051 333.732C354.577 333.732 355.907 334.054 357.041 334.698C358.175 335.342 359.05 336.266 359.666 337.47C360.282 338.66 360.59 340.081 360.59 341.733L360.569 357H356.852ZM390.089 357.63C387.863 357.63 385.917 357.14 384.251 356.16C382.599 355.166 381.311 353.787 380.387 352.023C379.463 350.245 379.001 348.173 379.001 345.807C379.001 343.329 379.456 341.187 380.366 339.381C381.276 337.561 382.543 336.161 384.167 335.181C385.805 334.187 387.723 333.69 389.921 333.69C392.203 333.69 394.142 334.215 395.738 335.265C397.348 336.315 398.552 337.813 399.35 339.759C400.162 341.705 400.512 344.022 400.4 346.71H396.62V345.366C396.578 342.58 396.011 340.501 394.919 339.129C393.827 337.743 392.203 337.05 390.047 337.05C387.737 337.05 385.98 337.792 384.776 339.276C383.572 340.76 382.97 342.888 382.97 345.66C382.97 348.334 383.572 350.406 384.776 351.876C385.98 353.346 387.695 354.081 389.921 354.081C391.419 354.081 392.721 353.738 393.827 353.052C394.933 352.366 395.801 351.379 396.431 350.091L400.022 351.33C399.14 353.332 397.81 354.886 396.032 355.992C394.268 357.084 392.287 357.63 390.089 357.63ZM381.71 346.71V343.707H398.468V346.71H381.71ZM422.807 326.76H426.608L418.544 357H414.743L422.807 326.76ZM450.718 357.609C448.016 357.609 445.797 357.021 444.061 355.845C442.339 354.655 441.282 352.996 440.89 350.868L444.712 350.259C445.02 351.491 445.727 352.471 446.833 353.199C447.939 353.913 449.311 354.27 450.949 354.27C452.503 354.27 453.721 353.948 454.603 353.304C455.485 352.66 455.926 351.785 455.926 350.679C455.926 350.035 455.779 349.517 455.485 349.125C455.191 348.719 454.582 348.341 453.658 347.991C452.748 347.641 451.369 347.221 449.521 346.731C447.519 346.199 445.944 345.646 444.796 345.072C443.648 344.498 442.829 343.833 442.339 343.077C441.849 342.321 441.604 341.404 441.604 340.326C441.604 338.996 441.968 337.834 442.696 336.84C443.424 335.832 444.439 335.055 445.741 334.509C447.057 333.963 448.583 333.69 450.319 333.69C452.041 333.69 453.581 333.963 454.939 334.509C456.297 335.055 457.389 335.832 458.215 336.84C459.055 337.834 459.552 338.996 459.706 340.326L455.884 341.019C455.702 339.801 455.114 338.842 454.12 338.142C453.14 337.442 451.873 337.071 450.319 337.029C448.849 336.973 447.652 337.232 446.728 337.806C445.818 338.38 445.363 339.157 445.363 340.137C445.363 340.683 445.531 341.152 445.867 341.544C446.217 341.936 446.854 342.307 447.778 342.657C448.716 343.007 450.074 343.406 451.852 343.854C453.854 344.358 455.429 344.911 456.577 345.513C457.739 346.101 458.565 346.801 459.055 347.613C459.545 348.411 459.79 349.398 459.79 350.574C459.79 352.758 458.985 354.48 457.375 355.74C455.765 356.986 453.546 357.609 450.718 357.609ZM465.241 357L465.262 326.76H469.042V345.24L478.555 334.32H483.406L473.389 345.66L484.582 357H479.353L469.042 346.08V357H465.241ZM490.662 367.08L495.051 355.152L495.114 358.68L485.202 334.32H489.129L496.899 353.913H495.555L502.842 334.32H506.643L494.295 367.08H490.662ZM519.035 357.63C516.921 357.63 515.108 357.105 513.596 356.055C512.084 354.991 510.915 353.556 510.089 351.75C509.277 349.944 508.871 347.907 508.871 345.639C508.871 343.371 509.277 341.334 510.089 339.528C510.915 337.722 512.084 336.301 513.596 335.265C515.108 334.215 516.914 333.69 519.014 333.69C521.156 333.69 522.955 334.208 524.411 335.244C525.867 336.28 526.966 337.701 527.708 339.507C528.464 341.313 528.842 343.357 528.842 345.639C528.842 347.893 528.464 349.93 527.708 351.75C526.966 353.556 525.867 354.991 524.411 356.055C522.955 357.105 521.163 357.63 519.035 357.63ZM519.497 354.207C521.023 354.207 522.276 353.843 523.256 353.115C524.236 352.373 524.957 351.358 525.419 350.07C525.895 348.768 526.133 347.291 526.133 345.639C526.133 343.959 525.895 342.482 525.419 341.208C524.957 339.92 524.243 338.919 523.277 338.205C522.311 337.477 521.086 337.113 519.602 337.113C518.062 337.113 516.788 337.491 515.78 338.247C514.786 339.003 514.044 340.025 513.554 341.313C513.078 342.601 512.84 344.043 512.84 345.639C512.84 347.249 513.085 348.705 513.575 350.007C514.065 351.295 514.8 352.317 515.78 353.073C516.774 353.829 518.013 354.207 519.497 354.207ZM526.133 357V340.305H525.713V326.76H529.472V357H526.133ZM536.616 330.309V326.445H540.354V330.309H536.616ZM536.616 357V334.32H540.354V357H536.616ZM553.627 357L545.395 334.32H549.175L555.538 352.233L561.88 334.32H565.681L557.449 357H553.627ZM570.739 330.309V326.445H574.477V330.309H570.739ZM570.739 357V334.32H574.477V357H570.739ZM597.767 357V345.639C597.767 344.561 597.669 343.525 597.473 342.531C597.291 341.537 596.962 340.648 596.486 339.864C596.024 339.066 595.394 338.436 594.596 337.974C593.812 337.512 592.818 337.281 591.614 337.281C590.676 337.281 589.822 337.442 589.052 337.764C588.296 338.072 587.645 338.548 587.099 339.192C586.553 339.836 586.126 340.648 585.818 341.628C585.524 342.594 585.377 343.735 585.377 345.051L582.92 344.295C582.92 342.097 583.312 340.214 584.096 338.646C584.894 337.064 586.007 335.853 587.435 335.013C588.877 334.159 590.571 333.732 592.517 333.732C593.987 333.732 595.24 333.963 596.276 334.425C597.312 334.887 598.173 335.503 598.859 336.273C599.545 337.029 600.084 337.883 600.476 338.835C600.868 339.773 601.141 340.732 601.295 341.712C601.463 342.678 601.547 343.595 601.547 344.463V357H597.767ZM581.597 357V334.32H584.957V340.389H585.377V357H581.597ZM617.024 367.71C615.834 367.71 614.672 367.528 613.538 367.164C612.404 366.8 611.361 366.247 610.409 365.505C609.471 364.777 608.687 363.853 608.057 362.733L611.48 360.927C612.04 362.033 612.831 362.838 613.853 363.342C614.889 363.846 615.953 364.098 617.045 364.098C618.487 364.098 619.684 363.832 620.636 363.3C621.588 362.782 622.288 362.005 622.736 360.969C623.198 359.933 623.422 358.645 623.408 357.105V350.91H623.849V334.32H627.167V357.147C627.167 357.763 627.146 358.358 627.104 358.932C627.076 359.506 627.006 360.073 626.894 360.633C626.6 362.243 626.019 363.566 625.151 364.602C624.283 365.652 623.163 366.429 621.791 366.933C620.419 367.451 618.83 367.71 617.024 367.71ZM616.751 357.63C614.637 357.63 612.824 357.105 611.312 356.055C609.8 354.991 608.631 353.556 607.805 351.75C606.993 349.944 606.587 347.907 606.587 345.639C606.587 343.371 606.993 341.334 607.805 339.528C608.631 337.722 609.8 336.301 611.312 335.265C612.824 334.215 614.63 333.69 616.73 333.69C618.872 333.69 620.671 334.208 622.127 335.244C623.583 336.28 624.682 337.701 625.424 339.507C626.18 341.313 626.558 343.357 626.558 345.639C626.558 347.893 626.18 349.93 625.424 351.75C624.682 353.556 623.583 354.991 622.127 356.055C620.671 357.105 618.879 357.63 616.751 357.63ZM617.213 354.207C618.739 354.207 619.992 353.843 620.972 353.115C621.952 352.373 622.673 351.358 623.135 350.07C623.611 348.768 623.849 347.291 623.849 345.639C623.849 343.959 623.611 342.482 623.135 341.208C622.673 339.92 621.959 338.919 620.993 338.205C620.027 337.477 618.802 337.113 617.318 337.113C615.778 337.113 614.504 337.491 613.496 338.247C612.502 339.003 611.76 340.025 611.27 341.313C610.794 342.601 610.556 344.043 610.556 345.639C610.556 347.249 610.801 348.705 611.291 350.007C611.781 351.295 612.516 352.317 613.496 353.073C614.49 353.829 615.729 354.207 617.213 354.207Z" fill="#E1F2FF"></path></svg> 