<?xml version="1.0" encoding="UTF-8"?> <svg xmlns="http://www.w3.org/2000/svg" width="800" height="450" viewBox="0 0 800 450" fill="none"><rect width="800" height="450" rx="20" fill="#303FC5"></rect><path d="M258.595 132L271.307 91.68H281.191L293.903 132H286.959L275.423 95.824H276.935L265.539 132H258.595ZM265.679 123.264V116.964H286.847V123.264H265.679ZM312.416 132V91.68H328.404C331.129 91.68 333.36 92.2307 335.096 93.332C336.85 94.4147 338.148 95.8053 338.988 97.504C339.846 99.2027 340.276 100.957 340.276 102.768C340.276 104.989 339.744 106.875 338.68 108.424C337.634 109.973 336.206 111.019 334.396 111.56V110.16C336.934 110.739 338.857 111.943 340.164 113.772C341.489 115.601 342.152 117.683 342.152 120.016C342.152 122.405 341.694 124.496 340.78 126.288C339.865 128.08 338.502 129.48 336.692 130.488C334.9 131.496 332.678 132 330.028 132H312.416ZM319.248 125.644H329.188C330.364 125.644 331.418 125.411 332.352 124.944C333.285 124.459 334.013 123.787 334.536 122.928C335.077 122.051 335.348 121.015 335.348 119.82C335.348 118.737 335.114 117.767 334.648 116.908C334.181 116.049 333.5 115.368 332.604 114.864C331.708 114.341 330.634 114.08 329.384 114.08H319.248V125.644ZM319.248 107.78H328.32C329.29 107.78 330.158 107.593 330.924 107.22C331.689 106.847 332.296 106.296 332.744 105.568C333.192 104.84 333.416 103.944 333.416 102.88C333.416 101.48 332.968 100.313 332.072 99.38C331.176 98.4467 329.925 97.98 328.32 97.98H319.248V107.78ZM346.064 132L358.776 91.68H368.66L381.372 132H374.428L362.892 95.824H364.404L353.008 132H346.064ZM353.148 123.264V116.964H374.316V123.264H353.148ZM387.554 132V91.68H394.386L413.09 120.1V91.68H419.922V132H413.09L394.386 103.58V132H387.554ZM426.07 132L438.782 91.68H448.666L461.378 132H454.434L442.898 95.824H444.41L433.014 132H426.07ZM433.154 123.264V116.964H454.322V123.264H433.154ZM467.56 132V91.68H474.392L493.096 120.1V91.68H499.928V132H493.096L474.392 103.58V132H467.56ZM506.075 132L518.787 91.68H528.671L541.383 132H534.439L522.903 95.824H524.415L513.019 132H506.075ZM513.159 123.264V116.964H534.327V123.264H513.159Z" fill="#E1F2FF"></path><path d="M279.619 239V212.897L273.928 216.341V212.162L279.619 208.76H283.42V239H279.619ZM296.655 239V234.884H300.771V239H296.655ZM317.943 249.08V245.51H319.161C320.253 245.51 321.086 245.237 321.66 244.691C322.234 244.145 322.521 243.277 322.521 242.087V216.32H326.259V243.368C326.259 245.23 325.776 246.644 324.81 247.61C323.858 248.59 322.444 249.08 320.568 249.08H317.943ZM322.521 212.309V208.445H326.259V212.309H322.521ZM341.787 239.588C340.331 239.588 339.078 239.357 338.028 238.895C336.992 238.433 336.131 237.817 335.445 237.047C334.759 236.277 334.22 235.423 333.828 234.485C333.436 233.547 333.156 232.588 332.988 231.608C332.834 230.628 332.757 229.711 332.757 228.857V216.32H336.537V227.681C336.537 228.745 336.635 229.774 336.831 230.768C337.027 231.762 337.356 232.658 337.818 233.456C338.294 234.254 338.924 234.884 339.708 235.346C340.506 235.808 341.5 236.039 342.69 236.039C343.628 236.039 344.482 235.878 345.252 235.556C346.022 235.234 346.68 234.758 347.226 234.128C347.772 233.484 348.192 232.672 348.486 231.692C348.78 230.712 348.927 229.571 348.927 228.269L351.384 229.025C351.384 231.209 350.985 233.092 350.187 234.674C349.403 236.256 348.29 237.474 346.848 238.328C345.42 239.168 343.733 239.588 341.787 239.588ZM349.347 239V232.931H348.927V216.32H352.686V239H349.347ZM359.825 212.309V208.445H363.563V212.309H359.825ZM359.825 239V216.32H363.563V239H359.825ZM380.259 239.63C377.963 239.63 376.01 239.119 374.4 238.097C372.804 237.061 371.586 235.64 370.746 233.834C369.906 232.028 369.472 229.97 369.444 227.66C369.472 225.294 369.913 223.215 370.767 221.423C371.635 219.617 372.874 218.21 374.484 217.202C376.094 216.194 378.033 215.69 380.301 215.69C382.695 215.69 384.753 216.278 386.475 217.454C388.211 218.63 389.373 220.24 389.961 222.284L386.265 223.397C385.789 222.081 385.012 221.059 383.934 220.331C382.87 219.603 381.645 219.239 380.259 219.239C378.705 219.239 377.424 219.603 376.416 220.331C375.408 221.045 374.659 222.039 374.169 223.313C373.679 224.573 373.427 226.022 373.413 227.66C373.441 230.18 374.022 232.217 375.156 233.771C376.304 235.311 378.005 236.081 380.259 236.081C381.743 236.081 382.975 235.745 383.955 235.073C384.935 234.387 385.677 233.4 386.181 232.112L389.961 233.099C389.177 235.213 387.952 236.83 386.286 237.95C384.62 239.07 382.611 239.63 380.259 239.63ZM397.417 249.08L401.806 237.152L401.869 240.68L391.957 216.32H395.884L403.654 235.913H402.31L409.597 216.32H413.398L401.05 249.08H397.417ZM434.599 208.76H438.4L430.336 239H426.535L434.599 208.76ZM454.361 239V208.13H458.099V239H454.361ZM465.66 212.309V208.445H469.398V212.309H465.66ZM465.66 239V216.32H469.398V239H465.66ZM503.65 239L503.671 224.489C503.671 222.795 503.216 221.472 502.306 220.52C501.41 219.554 500.241 219.071 498.799 219.071C497.959 219.071 497.161 219.267 496.405 219.659C495.649 220.037 495.033 220.639 494.557 221.465C494.081 222.277 493.843 223.32 493.843 224.594L491.869 223.796C491.841 222.186 492.17 220.779 492.856 219.575C493.556 218.357 494.508 217.412 495.712 216.74C496.916 216.068 498.274 215.732 499.786 215.732C502.152 215.732 504.014 216.453 505.372 217.895C506.73 219.323 507.409 221.248 507.409 223.67L507.388 239H503.65ZM476.518 239V216.32H479.857V222.389H480.277V239H476.518ZM490.105 239L490.126 224.636C490.126 222.9 489.678 221.542 488.782 220.562C487.886 219.568 486.696 219.071 485.212 219.071C483.742 219.071 482.552 219.575 481.642 220.583C480.732 221.591 480.277 222.928 480.277 224.594L478.303 223.418C478.303 221.948 478.653 220.632 479.353 219.47C480.053 218.308 481.005 217.398 482.209 216.74C483.413 216.068 484.778 215.732 486.304 215.732C487.83 215.732 489.16 216.054 490.294 216.698C491.428 217.342 492.303 218.266 492.919 219.47C493.535 220.66 493.843 222.081 493.843 223.733L493.822 239H490.105ZM523.342 239.63C521.116 239.63 519.17 239.14 517.504 238.16C515.852 237.166 514.564 235.787 513.64 234.023C512.716 232.245 512.254 230.173 512.254 227.807C512.254 225.329 512.709 223.187 513.619 221.381C514.529 219.561 515.796 218.161 517.42 217.181C519.058 216.187 520.976 215.69 523.174 215.69C525.456 215.69 527.395 216.215 528.991 217.265C530.601 218.315 531.805 219.813 532.603 221.759C533.415 223.705 533.765 226.022 533.653 228.71H529.873V227.366C529.831 224.58 529.264 222.501 528.172 221.129C527.08 219.743 525.456 219.05 523.3 219.05C520.99 219.05 519.233 219.792 518.029 221.276C516.825 222.76 516.223 224.888 516.223 227.66C516.223 230.334 516.825 232.406 518.029 233.876C519.233 235.346 520.948 236.081 523.174 236.081C524.672 236.081 525.974 235.738 527.08 235.052C528.186 234.366 529.054 233.379 529.684 232.091L533.275 233.33C532.393 235.332 531.063 236.886 529.285 237.992C527.521 239.084 525.54 239.63 523.342 239.63ZM514.963 228.71V225.707H531.721V228.71H514.963ZM231.046 297.979L231.067 294.619L244.486 282.544C245.606 281.536 246.355 280.584 246.733 279.688C247.125 278.778 247.321 277.847 247.321 276.895C247.321 275.733 247.055 274.683 246.523 273.745C245.991 272.807 245.263 272.065 244.339 271.519C243.429 270.973 242.393 270.7 241.231 270.7C240.027 270.7 238.956 270.987 238.018 271.561C237.08 272.121 236.338 272.87 235.792 273.808C235.26 274.746 235.001 275.768 235.015 276.874H231.193C231.193 274.97 231.634 273.29 232.516 271.834C233.398 270.364 234.595 269.216 236.107 268.39C237.633 267.55 239.362 267.13 241.294 267.13C243.17 267.13 244.85 267.564 246.334 268.432C247.818 269.286 248.987 270.455 249.841 271.939C250.709 273.409 251.143 275.075 251.143 276.937C251.143 278.253 250.975 279.394 250.639 280.36C250.317 281.326 249.813 282.222 249.127 283.048C248.441 283.86 247.58 284.728 246.544 285.652L235.393 295.669L234.91 294.409H251.143V297.979H231.046ZM257.762 298V293.884H261.878V298H257.762ZM290.979 298.609C288.277 298.609 286.058 298.021 284.322 296.845C282.6 295.655 281.543 293.996 281.151 291.868L284.973 291.259C285.281 292.491 285.988 293.471 287.094 294.199C288.2 294.913 289.572 295.27 291.21 295.27C292.764 295.27 293.982 294.948 294.864 294.304C295.746 293.66 296.187 292.785 296.187 291.679C296.187 291.035 296.04 290.517 295.746 290.125C295.452 289.719 294.843 289.341 293.919 288.991C293.009 288.641 291.63 288.221 289.782 287.731C287.78 287.199 286.205 286.646 285.057 286.072C283.909 285.498 283.09 284.833 282.6 284.077C282.11 283.321 281.865 282.404 281.865 281.326C281.865 279.996 282.229 278.834 282.957 277.84C283.685 276.832 284.7 276.055 286.002 275.509C287.318 274.963 288.844 274.69 290.58 274.69C292.302 274.69 293.842 274.963 295.2 275.509C296.558 276.055 297.65 276.832 298.476 277.84C299.316 278.834 299.813 279.996 299.967 281.326L296.145 282.019C295.963 280.801 295.375 279.842 294.381 279.142C293.401 278.442 292.134 278.071 290.58 278.029C289.11 277.973 287.913 278.232 286.989 278.806C286.079 279.38 285.624 280.157 285.624 281.137C285.624 281.683 285.792 282.152 286.128 282.544C286.478 282.936 287.115 283.307 288.039 283.657C288.977 284.007 290.335 284.406 292.113 284.854C294.115 285.358 295.69 285.911 296.838 286.513C298 287.101 298.826 287.801 299.316 288.613C299.806 289.411 300.051 290.398 300.051 291.574C300.051 293.758 299.246 295.48 297.636 296.74C296.026 297.986 293.807 298.609 290.979 298.609ZM309.532 298L302.602 275.299L306.319 275.32L311.38 291.91L316.483 275.32H319.78L324.862 291.91L329.944 275.32H333.64L326.71 298H323.602L318.121 280.759L312.64 298H309.532ZM347.28 298.63C345.054 298.63 343.108 298.14 341.442 297.16C339.79 296.166 338.502 294.787 337.578 293.023C336.654 291.245 336.192 289.173 336.192 286.807C336.192 284.329 336.647 282.187 337.557 280.381C338.467 278.561 339.734 277.161 341.358 276.181C342.996 275.187 344.914 274.69 347.112 274.69C349.394 274.69 351.333 275.215 352.929 276.265C354.539 277.315 355.743 278.813 356.541 280.759C357.353 282.705 357.703 285.022 357.591 287.71H353.811V286.366C353.769 283.58 353.202 281.501 352.11 280.129C351.018 278.743 349.394 278.05 347.238 278.05C344.928 278.05 343.171 278.792 341.967 280.276C340.763 281.76 340.161 283.888 340.161 286.66C340.161 289.334 340.763 291.406 341.967 292.876C343.171 294.346 344.886 295.081 347.112 295.081C348.61 295.081 349.912 294.738 351.018 294.052C352.124 293.366 352.992 292.379 353.622 291.091L357.213 292.33C356.331 294.332 355.001 295.886 353.223 296.992C351.459 298.084 349.478 298.63 347.28 298.63ZM338.901 287.71V284.707H355.659V287.71H338.901ZM372.934 298.63C370.708 298.63 368.762 298.14 367.096 297.16C365.444 296.166 364.156 294.787 363.232 293.023C362.308 291.245 361.846 289.173 361.846 286.807C361.846 284.329 362.301 282.187 363.211 280.381C364.121 278.561 365.388 277.161 367.012 276.181C368.65 275.187 370.568 274.69 372.766 274.69C375.048 274.69 376.987 275.215 378.583 276.265C380.193 277.315 381.397 278.813 382.195 280.759C383.007 282.705 383.357 285.022 383.245 287.71H379.465V286.366C379.423 283.58 378.856 281.501 377.764 280.129C376.672 278.743 375.048 278.05 372.892 278.05C370.582 278.05 368.825 278.792 367.621 280.276C366.417 281.76 365.815 283.888 365.815 286.66C365.815 289.334 366.417 291.406 367.621 292.876C368.825 294.346 370.54 295.081 372.766 295.081C374.264 295.081 375.566 294.738 376.672 294.052C377.778 293.366 378.646 292.379 379.276 291.091L382.867 292.33C381.985 294.332 380.655 295.886 378.877 296.992C377.113 298.084 375.132 298.63 372.934 298.63ZM364.555 287.71V284.707H381.313V287.71H364.555ZM401.424 298C400.08 298.266 398.75 298.371 397.434 298.315C396.132 298.273 394.97 298.014 393.948 297.538C392.926 297.048 392.149 296.292 391.617 295.27C391.169 294.374 390.924 293.471 390.882 292.561C390.854 291.637 390.84 290.594 390.84 289.432V269.02H394.578V289.264C394.578 290.188 394.585 290.979 394.599 291.637C394.627 292.295 394.774 292.862 395.04 293.338C395.544 294.234 396.342 294.759 397.434 294.913C398.54 295.067 399.87 295.025 401.424 294.787V298ZM386.241 278.407V275.32H401.424V278.407H386.241ZM423.761 267.76H427.562L419.498 298H415.697L423.761 267.76ZM452.763 298.63C450.509 298.63 448.563 298.119 446.925 297.097C445.301 296.075 444.048 294.661 443.166 292.855C442.284 291.049 441.843 288.977 441.843 286.639C441.843 284.259 442.291 282.173 443.187 280.381C444.083 278.589 445.35 277.196 446.988 276.202C448.626 275.194 450.551 274.69 452.763 274.69C455.031 274.69 456.984 275.201 458.622 276.223C460.26 277.231 461.513 278.638 462.381 280.444C463.263 282.236 463.704 284.301 463.704 286.639C463.704 289.005 463.263 291.091 462.381 292.897C461.499 294.689 460.239 296.096 458.601 297.118C456.963 298.126 455.017 298.63 452.763 298.63ZM452.763 295.081C455.115 295.081 456.865 294.297 458.013 292.729C459.161 291.161 459.735 289.131 459.735 286.639C459.735 284.077 459.154 282.04 457.992 280.528C456.83 279.002 455.087 278.239 452.763 278.239C451.181 278.239 449.879 278.596 448.857 279.31C447.835 280.024 447.072 281.011 446.568 282.271C446.064 283.531 445.812 284.987 445.812 286.639C445.812 289.187 446.4 291.231 447.576 292.771C448.752 294.311 450.481 295.081 452.763 295.081ZM469.168 298V275.32H472.507V280.801L471.961 280.087C472.227 279.387 472.57 278.743 472.99 278.155C473.424 277.567 473.907 277.084 474.439 276.706C475.027 276.23 475.692 275.866 476.434 275.614C477.176 275.362 477.932 275.215 478.702 275.173C479.472 275.117 480.193 275.166 480.865 275.32V278.827C480.081 278.617 479.22 278.561 478.282 278.659C477.344 278.757 476.476 279.1 475.678 279.688C474.95 280.206 474.383 280.836 473.977 281.578C473.585 282.32 473.312 283.125 473.158 283.993C473.004 284.847 472.927 285.722 472.927 286.618V298H469.168ZM491.385 298.63C489.691 298.63 488.27 298.322 487.122 297.706C485.988 297.076 485.127 296.25 484.539 295.228C483.965 294.206 483.678 293.086 483.678 291.868C483.678 290.678 483.902 289.649 484.35 288.781C484.812 287.899 485.456 287.171 486.282 286.597C487.108 286.009 488.095 285.547 489.243 285.211C490.321 284.917 491.525 284.665 492.855 284.455C494.199 284.231 495.557 284.028 496.929 283.846C498.301 283.664 499.582 283.489 500.772 283.321L499.428 284.098C499.47 282.082 499.064 280.591 498.21 279.625C497.37 278.659 495.914 278.176 493.842 278.176C492.47 278.176 491.266 278.491 490.23 279.121C489.208 279.737 488.487 280.745 488.067 282.145L484.518 281.074C485.064 279.086 486.121 277.525 487.689 276.391C489.257 275.257 491.322 274.69 493.884 274.69C495.942 274.69 497.706 275.061 499.176 275.803C500.66 276.531 501.724 277.637 502.368 279.121C502.69 279.821 502.893 280.584 502.977 281.41C503.061 282.222 503.103 283.076 503.103 283.972V298H499.785V292.561L500.562 293.065C499.708 294.899 498.511 296.285 496.971 297.223C495.445 298.161 493.583 298.63 491.385 298.63ZM491.952 295.501C493.296 295.501 494.458 295.263 495.438 294.787C496.432 294.297 497.23 293.66 497.832 292.876C498.434 292.078 498.826 291.21 499.008 290.272C499.218 289.572 499.33 288.795 499.344 287.941C499.372 287.073 499.386 286.408 499.386 285.946L500.688 286.513C499.47 286.681 498.273 286.842 497.097 286.996C495.921 287.15 494.808 287.318 493.758 287.5C492.708 287.668 491.763 287.871 490.923 288.109C490.307 288.305 489.726 288.557 489.18 288.865C488.648 289.173 488.214 289.572 487.878 290.062C487.556 290.538 487.395 291.133 487.395 291.847C487.395 292.463 487.549 293.051 487.857 293.611C488.179 294.171 488.669 294.626 489.327 294.976C489.999 295.326 490.874 295.501 491.952 295.501ZM525.552 298V286.639C525.552 285.561 525.454 284.525 525.258 283.531C525.076 282.537 524.747 281.648 524.271 280.864C523.809 280.066 523.179 279.436 522.381 278.974C521.597 278.512 520.603 278.281 519.399 278.281C518.461 278.281 517.607 278.442 516.837 278.764C516.081 279.072 515.43 279.548 514.884 280.192C514.338 280.836 513.911 281.648 513.603 282.628C513.309 283.594 513.162 284.735 513.162 286.051L510.705 285.295C510.705 283.097 511.097 281.214 511.881 279.646C512.679 278.064 513.792 276.853 515.22 276.013C516.662 275.159 518.356 274.732 520.302 274.732C521.772 274.732 523.025 274.963 524.061 275.425C525.097 275.887 525.958 276.503 526.644 277.273C527.33 278.029 527.869 278.883 528.261 279.835C528.653 280.773 528.926 281.732 529.08 282.712C529.248 283.678 529.332 284.595 529.332 285.463V298H525.552ZM509.382 298V275.32H512.742V281.389H513.162V298H509.382ZM544.808 308.71C543.618 308.71 542.456 308.528 541.322 308.164C540.188 307.8 539.145 307.247 538.193 306.505C537.255 305.777 536.471 304.853 535.841 303.733L539.264 301.927C539.824 303.033 540.615 303.838 541.637 304.342C542.673 304.846 543.737 305.098 544.829 305.098C546.271 305.098 547.468 304.832 548.42 304.3C549.372 303.782 550.072 303.005 550.52 301.969C550.982 300.933 551.206 299.645 551.192 298.105V291.91H551.633V275.32H554.951V298.147C554.951 298.763 554.93 299.358 554.888 299.932C554.86 300.506 554.79 301.073 554.678 301.633C554.384 303.243 553.803 304.566 552.935 305.602C552.067 306.652 550.947 307.429 549.575 307.933C548.203 308.451 546.614 308.71 544.808 308.71ZM544.535 298.63C542.421 298.63 540.608 298.105 539.096 297.055C537.584 295.991 536.415 294.556 535.589 292.75C534.777 290.944 534.371 288.907 534.371 286.639C534.371 284.371 534.777 282.334 535.589 280.528C536.415 278.722 537.584 277.301 539.096 276.265C540.608 275.215 542.414 274.69 544.514 274.69C546.656 274.69 548.455 275.208 549.911 276.244C551.367 277.28 552.466 278.701 553.208 280.507C553.964 282.313 554.342 284.357 554.342 286.639C554.342 288.893 553.964 290.93 553.208 292.75C552.466 294.556 551.367 295.991 549.911 297.055C548.455 298.105 546.663 298.63 544.535 298.63ZM544.997 295.207C546.523 295.207 547.776 294.843 548.756 294.115C549.736 293.373 550.457 292.358 550.919 291.07C551.395 289.768 551.633 288.291 551.633 286.639C551.633 284.959 551.395 283.482 550.919 282.208C550.457 280.92 549.743 279.919 548.777 279.205C547.811 278.477 546.586 278.113 545.102 278.113C543.562 278.113 542.288 278.491 541.28 279.247C540.286 280.003 539.544 281.025 539.054 282.313C538.578 283.601 538.34 285.043 538.34 286.639C538.34 288.249 538.585 289.705 539.075 291.007C539.565 292.295 540.3 293.317 541.28 294.073C542.274 294.829 543.513 295.207 544.997 295.207ZM571.483 298.63C569.257 298.63 567.311 298.14 565.645 297.16C563.993 296.166 562.705 294.787 561.781 293.023C560.857 291.245 560.395 289.173 560.395 286.807C560.395 284.329 560.85 282.187 561.76 280.381C562.67 278.561 563.937 277.161 565.561 276.181C567.199 275.187 569.117 274.69 571.315 274.69C573.597 274.69 575.536 275.215 577.132 276.265C578.742 277.315 579.946 278.813 580.744 280.759C581.556 282.705 581.906 285.022 581.794 287.71H578.014V286.366C577.972 283.58 577.405 281.501 576.313 280.129C575.221 278.743 573.597 278.05 571.441 278.05C569.131 278.05 567.374 278.792 566.17 280.276C564.966 281.76 564.364 283.888 564.364 286.66C564.364 289.334 564.966 291.406 566.17 292.876C567.374 294.346 569.089 295.081 571.315 295.081C572.813 295.081 574.115 294.738 575.221 294.052C576.327 293.366 577.195 292.379 577.825 291.091L581.416 292.33C580.534 294.332 579.204 295.886 577.426 296.992C575.662 298.084 573.681 298.63 571.483 298.63ZM563.104 287.71V284.707H579.862V287.71H563.104ZM273.35 357.588C271.852 357.588 270.459 357.315 269.171 356.769C267.883 356.209 266.77 355.425 265.832 354.417C264.908 353.395 264.229 352.184 263.795 350.784L267.386 349.755C267.848 351.155 268.618 352.219 269.696 352.947C270.774 353.675 271.985 354.032 273.329 354.018C274.561 353.99 275.625 353.71 276.521 353.178C277.431 352.632 278.131 351.89 278.621 350.952C279.125 350.014 279.377 348.929 279.377 347.697C279.377 345.821 278.817 344.302 277.697 343.14C276.577 341.964 275.107 341.376 273.287 341.376C272.783 341.376 272.251 341.446 271.691 341.586C271.145 341.726 270.634 341.922 270.158 342.174L268.352 339.213L279.566 329.07L280.049 330.33H264.992V326.76H282.821V330.351L273.266 339.507L273.224 338.184C275.226 338.044 276.976 338.373 278.474 339.171C279.972 339.969 281.134 341.11 281.96 342.594C282.8 344.078 283.22 345.779 283.22 347.697C283.22 349.629 282.786 351.337 281.918 352.821C281.05 354.305 279.874 355.474 278.39 356.328C276.906 357.168 275.226 357.588 273.35 357.588ZM290.554 357V352.884H294.67V357H290.554ZM315.622 357V326.13H319.36V357H315.622ZM336.161 357.63C333.907 357.63 331.961 357.119 330.323 356.097C328.699 355.075 327.446 353.661 326.564 351.855C325.682 350.049 325.241 347.977 325.241 345.639C325.241 343.259 325.689 341.173 326.585 339.381C327.481 337.589 328.748 336.196 330.386 335.202C332.024 334.194 333.949 333.69 336.161 333.69C338.429 333.69 340.382 334.201 342.02 335.223C343.658 336.231 344.911 337.638 345.779 339.444C346.661 341.236 347.102 343.301 347.102 345.639C347.102 348.005 346.661 350.091 345.779 351.897C344.897 353.689 343.637 355.096 341.999 356.118C340.361 357.126 338.415 357.63 336.161 357.63ZM336.161 354.081C338.513 354.081 340.263 353.297 341.411 351.729C342.559 350.161 343.133 348.131 343.133 345.639C343.133 343.077 342.552 341.04 341.39 339.528C340.228 338.002 338.485 337.239 336.161 337.239C334.579 337.239 333.277 337.596 332.255 338.31C331.233 339.024 330.47 340.011 329.966 341.271C329.462 342.531 329.21 343.987 329.21 345.639C329.21 348.187 329.798 350.231 330.974 351.771C332.15 353.311 333.879 354.081 336.161 354.081ZM368.714 357V345.639C368.714 344.561 368.616 343.525 368.42 342.531C368.238 341.537 367.909 340.648 367.433 339.864C366.971 339.066 366.341 338.436 365.543 337.974C364.759 337.512 363.765 337.281 362.561 337.281C361.623 337.281 360.769 337.442 359.999 337.764C359.243 338.072 358.592 338.548 358.046 339.192C357.5 339.836 357.073 340.648 356.765 341.628C356.471 342.594 356.324 343.735 356.324 345.051L353.867 344.295C353.867 342.097 354.259 340.214 355.043 338.646C355.841 337.064 356.954 335.853 358.382 335.013C359.824 334.159 361.518 333.732 363.464 333.732C364.934 333.732 366.187 333.963 367.223 334.425C368.259 334.887 369.12 335.503 369.806 336.273C370.492 337.029 371.031 337.883 371.423 338.835C371.815 339.773 372.088 340.732 372.242 341.712C372.41 342.678 372.494 343.595 372.494 344.463V357H368.714ZM352.544 357V334.32H355.904V340.389H356.324V357H352.544ZM387.971 367.71C386.781 367.71 385.619 367.528 384.485 367.164C383.351 366.8 382.308 366.247 381.356 365.505C380.418 364.777 379.634 363.853 379.004 362.733L382.427 360.927C382.987 362.033 383.778 362.838 384.8 363.342C385.836 363.846 386.9 364.098 387.992 364.098C389.434 364.098 390.631 363.832 391.583 363.3C392.535 362.782 393.235 362.005 393.683 360.969C394.145 359.933 394.369 358.645 394.355 357.105V350.91H394.796V334.32H398.114V357.147C398.114 357.763 398.093 358.358 398.051 358.932C398.023 359.506 397.953 360.073 397.841 360.633C397.547 362.243 396.966 363.566 396.098 364.602C395.23 365.652 394.11 366.429 392.738 366.933C391.366 367.451 389.777 367.71 387.971 367.71ZM387.698 357.63C385.584 357.63 383.771 357.105 382.259 356.055C380.747 354.991 379.578 353.556 378.752 351.75C377.94 349.944 377.534 347.907 377.534 345.639C377.534 343.371 377.94 341.334 378.752 339.528C379.578 337.722 380.747 336.301 382.259 335.265C383.771 334.215 385.577 333.69 387.677 333.69C389.819 333.69 391.618 334.208 393.074 335.244C394.53 336.28 395.629 337.701 396.371 339.507C397.127 341.313 397.505 343.357 397.505 345.639C397.505 347.893 397.127 349.93 396.371 351.75C395.629 353.556 394.53 354.991 393.074 356.055C391.618 357.105 389.826 357.63 387.698 357.63ZM388.16 354.207C389.686 354.207 390.939 353.843 391.919 353.115C392.899 352.373 393.62 351.358 394.082 350.07C394.558 348.768 394.796 347.291 394.796 345.639C394.796 343.959 394.558 342.482 394.082 341.208C393.62 339.92 392.906 338.919 391.94 338.205C390.974 337.477 389.749 337.113 388.265 337.113C386.725 337.113 385.451 337.491 384.443 338.247C383.449 339.003 382.707 340.025 382.217 341.313C381.741 342.601 381.503 344.043 381.503 345.639C381.503 347.249 381.748 348.705 382.238 350.007C382.728 351.295 383.463 352.317 384.443 353.073C385.437 353.829 386.676 354.207 388.16 354.207ZM421.71 326.76H425.511L417.447 357H413.646L421.71 326.76ZM447.5 357.63C445.806 357.63 444.385 357.322 443.237 356.706C442.103 356.076 441.242 355.25 440.654 354.228C440.08 353.206 439.793 352.086 439.793 350.868C439.793 349.678 440.017 348.649 440.465 347.781C440.927 346.899 441.571 346.171 442.397 345.597C443.223 345.009 444.21 344.547 445.358 344.211C446.436 343.917 447.64 343.665 448.97 343.455C450.314 343.231 451.672 343.028 453.044 342.846C454.416 342.664 455.697 342.489 456.887 342.321L455.543 343.098C455.585 341.082 455.179 339.591 454.325 338.625C453.485 337.659 452.029 337.176 449.957 337.176C448.585 337.176 447.381 337.491 446.345 338.121C445.323 338.737 444.602 339.745 444.182 341.145L440.633 340.074C441.179 338.086 442.236 336.525 443.804 335.391C445.372 334.257 447.437 333.69 449.999 333.69C452.057 333.69 453.821 334.061 455.291 334.803C456.775 335.531 457.839 336.637 458.483 338.121C458.805 338.821 459.008 339.584 459.092 340.41C459.176 341.222 459.218 342.076 459.218 342.972V357H455.9V351.561L456.677 352.065C455.823 353.899 454.626 355.285 453.086 356.223C451.56 357.161 449.698 357.63 447.5 357.63ZM448.067 354.501C449.411 354.501 450.573 354.263 451.553 353.787C452.547 353.297 453.345 352.66 453.947 351.876C454.549 351.078 454.941 350.21 455.123 349.272C455.333 348.572 455.445 347.795 455.459 346.941C455.487 346.073 455.501 345.408 455.501 344.946L456.803 345.513C455.585 345.681 454.388 345.842 453.212 345.996C452.036 346.15 450.923 346.318 449.873 346.5C448.823 346.668 447.878 346.871 447.038 347.109C446.422 347.305 445.841 347.557 445.295 347.865C444.763 348.173 444.329 348.572 443.993 349.062C443.671 349.538 443.51 350.133 443.51 350.847C443.51 351.463 443.664 352.051 443.972 352.611C444.294 353.171 444.784 353.626 445.442 353.976C446.114 354.326 446.989 354.501 448.067 354.501ZM475.934 357.63C473.806 357.63 472.014 357.105 470.558 356.055C469.102 354.991 467.996 353.556 467.24 351.75C466.498 349.93 466.127 347.893 466.127 345.639C466.127 343.357 466.498 341.313 467.24 339.507C467.996 337.701 469.102 336.28 470.558 335.244C472.028 334.208 473.827 333.69 475.955 333.69C478.055 333.69 479.861 334.215 481.373 335.265C482.899 336.301 484.068 337.722 484.88 339.528C485.692 341.334 486.098 343.371 486.098 345.639C486.098 347.907 485.692 349.944 484.88 351.75C484.068 353.556 482.899 354.991 481.373 356.055C479.861 357.105 478.048 357.63 475.934 357.63ZM465.497 367.08V334.32H468.836V351.015H469.256V367.08H465.497ZM475.472 354.207C476.97 354.207 478.209 353.829 479.189 353.073C480.169 352.317 480.904 351.295 481.394 350.007C481.884 348.705 482.129 347.249 482.129 345.639C482.129 344.043 481.884 342.601 481.394 341.313C480.918 340.025 480.176 339.003 479.168 338.247C478.174 337.491 476.907 337.113 475.367 337.113C473.897 337.113 472.679 337.477 471.713 338.205C470.747 338.919 470.026 339.92 469.55 341.208C469.074 342.482 468.836 343.959 468.836 345.639C468.836 347.291 469.067 348.768 469.529 350.07C470.005 351.358 470.733 352.373 471.713 353.115C472.693 353.843 473.946 354.207 475.472 354.207ZM501.957 357.63C499.829 357.63 498.037 357.105 496.581 356.055C495.125 354.991 494.019 353.556 493.263 351.75C492.521 349.93 492.15 347.893 492.15 345.639C492.15 343.357 492.521 341.313 493.263 339.507C494.019 337.701 495.125 336.28 496.581 335.244C498.051 334.208 499.85 333.69 501.978 333.69C504.078 333.69 505.884 334.215 507.396 335.265C508.922 336.301 510.091 337.722 510.903 339.528C511.715 341.334 512.121 343.371 512.121 345.639C512.121 347.907 511.715 349.944 510.903 351.75C510.091 353.556 508.922 354.991 507.396 356.055C505.884 357.105 504.071 357.63 501.957 357.63ZM491.52 367.08V334.32H494.859V351.015H495.279V367.08H491.52ZM501.495 354.207C502.993 354.207 504.232 353.829 505.212 353.073C506.192 352.317 506.927 351.295 507.417 350.007C507.907 348.705 508.152 347.249 508.152 345.639C508.152 344.043 507.907 342.601 507.417 341.313C506.941 340.025 506.199 339.003 505.191 338.247C504.197 337.491 502.93 337.113 501.39 337.113C499.92 337.113 498.702 337.477 497.736 338.205C496.77 338.919 496.049 339.92 495.573 341.208C495.097 342.482 494.859 343.959 494.859 345.639C494.859 347.291 495.09 348.768 495.552 350.07C496.028 351.358 496.756 352.373 497.736 353.115C498.716 353.843 499.969 354.207 501.495 354.207ZM517.985 357V326.13H521.723V357H517.985ZM538.692 357.63C536.466 357.63 534.52 357.14 532.854 356.16C531.202 355.166 529.914 353.787 528.99 352.023C528.066 350.245 527.604 348.173 527.604 345.807C527.604 343.329 528.059 341.187 528.969 339.381C529.879 337.561 531.146 336.161 532.77 335.181C534.408 334.187 536.326 333.69 538.524 333.69C540.806 333.69 542.745 334.215 544.341 335.265C545.951 336.315 547.155 337.813 547.953 339.759C548.765 341.705 549.115 344.022 549.003 346.71H545.223V345.366C545.181 342.58 544.614 340.501 543.522 339.129C542.43 337.743 540.806 337.05 538.65 337.05C536.34 337.05 534.583 337.792 533.379 339.276C532.175 340.76 531.573 342.888 531.573 345.66C531.573 348.334 532.175 350.406 533.379 351.876C534.583 353.346 536.298 354.081 538.524 354.081C540.022 354.081 541.324 353.738 542.43 353.052C543.536 352.366 544.404 351.379 545.034 350.091L548.625 351.33C547.743 353.332 546.413 354.886 544.635 355.992C542.871 357.084 540.89 357.63 538.692 357.63ZM530.313 346.71V343.707H547.071V346.71H530.313Z" fill="#E1F2FF"></path></svg> 