<?xml version="1.0" encoding="UTF-8"?> <svg xmlns="http://www.w3.org/2000/svg" width="665" height="859" viewBox="0 0 665 859" fill="none"><g clip-path="url(#clip0_3762_296)"><rect width="664.307" height="858.064" rx="22" fill="#F9F9F9"></rect><path d="M142.721 80.0234L134.797 52.9197H139.559L144.961 72.4946L150.344 52.9573L155.106 52.9197L160.508 72.4946L165.891 52.9197H170.653L162.748 80.0234H158.268L152.715 60.7497L147.201 80.0234H142.721ZM184.451 80.5881C181.741 80.5881 179.42 79.9983 177.487 78.8188C175.555 77.6268 174.068 75.9704 173.026 73.8498C171.998 71.7292 171.483 69.2698 171.483 66.4716C171.483 63.6734 171.998 61.2139 173.026 59.0933C174.068 56.9727 175.555 55.3226 177.487 54.1431C179.42 52.9511 181.741 52.355 184.451 52.355C187.162 52.355 189.483 52.9511 191.416 54.1431C193.361 55.3226 194.848 56.9727 195.876 59.0933C196.918 61.2139 197.439 63.6734 197.439 66.4716C197.439 69.2698 196.918 71.7292 195.876 73.8498C194.848 75.9704 193.361 77.6268 191.416 78.8188C189.483 79.9983 187.162 80.5881 184.451 80.5881ZM184.451 76.3155C186.271 76.328 187.783 75.9265 188.988 75.1109C190.205 74.2953 191.114 73.1471 191.717 71.6664C192.332 70.1858 192.639 68.4542 192.639 66.4716C192.639 64.489 192.332 62.7699 191.717 61.3143C191.114 59.8462 190.205 58.7043 188.988 57.8887C187.783 57.0731 186.271 56.6527 184.451 56.6276C182.632 56.6151 181.12 57.0166 179.915 57.8322C178.711 58.6479 177.801 59.796 177.186 61.2767C176.584 62.7573 176.283 64.489 176.283 66.4716C176.283 68.4542 176.584 70.1795 177.186 71.6476C177.788 73.1032 178.692 74.2388 179.897 75.0544C181.114 75.87 182.632 76.2904 184.451 76.3155ZM212.102 80.5881C209.944 80.5881 208.043 80.1489 206.399 79.2706C204.768 78.3922 203.488 77.1562 202.559 75.5626C201.643 73.969 201.185 72.0994 201.185 69.9536V52.9573L205.778 52.9197V69.8407C205.778 70.8571 205.947 71.7668 206.286 72.5699C206.637 73.373 207.108 74.0568 207.698 74.6215C208.287 75.1736 208.965 75.594 209.73 75.8826C210.496 76.1712 211.286 76.3155 212.102 76.3155C212.943 76.3155 213.739 76.1712 214.492 75.8826C215.258 75.5814 215.935 75.1548 216.525 74.6027C217.115 74.038 217.579 73.3542 217.918 72.5511C218.257 71.748 218.426 70.8446 218.426 69.8407V52.9197H223.019V69.9536C223.019 72.0994 222.554 73.969 221.626 75.5626C220.71 77.1562 219.43 78.3922 217.786 79.2706C216.155 80.1489 214.26 80.5881 212.102 80.5881ZM228.655 80.0234V52.9197H233.191V75.7697H245.162V80.0234H228.655ZM248.351 80.0234V52.9197H256.99C257.216 52.9197 257.661 52.926 258.326 52.9385C259.004 52.9511 259.656 52.995 260.284 53.0703C262.429 53.3463 264.243 54.1118 265.723 55.3666C267.217 56.6088 268.346 58.1961 269.111 60.1285C269.877 62.0609 270.259 64.1753 270.259 66.4716C270.259 68.7679 269.877 70.8822 269.111 72.8146C268.346 74.747 267.217 76.3406 265.723 77.5954C264.243 78.8376 262.429 79.5968 260.284 79.8729C259.669 79.9481 259.023 79.9921 258.345 80.0046C257.667 80.0172 257.216 80.0234 256.99 80.0234H248.351ZM252.962 75.7508H256.99C257.366 75.7508 257.843 75.7383 258.42 75.7132C259.01 75.6881 259.531 75.6316 259.983 75.5438C261.262 75.3054 262.304 74.7344 263.107 73.831C263.91 72.9275 264.5 71.8296 264.876 70.5371C265.265 69.2447 265.46 67.8895 265.46 66.4716C265.46 65.0034 265.265 63.6232 264.876 62.3307C264.487 61.0383 263.885 59.9529 263.069 59.0745C262.266 58.1961 261.237 57.6378 259.983 57.3993C259.531 57.299 259.01 57.2425 258.42 57.2299C257.843 57.2048 257.366 57.1923 256.99 57.1923H252.962V75.7508ZM288.833 80.0234V68.9184L279.61 52.9197H284.899L291.129 63.7235L297.34 52.9197H302.629L293.425 68.9184V80.0234H288.833ZM315.213 80.5881C312.503 80.5881 310.181 79.9983 308.249 78.8188C306.317 77.6268 304.83 75.9704 303.788 73.8498C302.759 71.7292 302.245 69.2698 302.245 66.4716C302.245 63.6734 302.759 61.2139 303.788 59.0933C304.83 56.9727 306.317 55.3226 308.249 54.1431C310.181 52.9511 312.503 52.355 315.213 52.355C317.924 52.355 320.245 52.9511 322.177 54.1431C324.122 55.3226 325.609 56.9727 326.638 59.0933C327.68 61.2139 328.2 63.6734 328.2 66.4716C328.2 69.2698 327.68 71.7292 326.638 73.8498C325.609 75.9704 324.122 77.6268 322.177 78.8188C320.245 79.9983 317.924 80.5881 315.213 80.5881ZM315.213 76.3155C317.033 76.328 318.545 75.9265 319.749 75.1109C320.966 74.2953 321.876 73.1471 322.478 71.6664C323.093 70.1858 323.401 68.4542 323.401 66.4716C323.401 64.489 323.093 62.7699 322.478 61.3143C321.876 59.8462 320.966 58.7043 319.749 57.8887C318.545 57.0731 317.033 56.6527 315.213 56.6276C313.394 56.6151 311.882 57.0166 310.677 57.8322C309.472 58.6479 308.563 59.796 307.948 61.2767C307.346 62.7573 307.044 64.489 307.044 66.4716C307.044 68.4542 307.346 70.1795 307.948 71.6476C308.55 73.1032 309.454 74.2388 310.658 75.0544C311.875 75.87 313.394 76.2904 315.213 76.3155ZM342.864 80.5881C340.705 80.5881 338.804 80.1489 337.161 79.2706C335.529 78.3922 334.249 77.1562 333.321 75.5626C332.405 73.969 331.947 72.0994 331.947 69.9536V52.9573L336.539 52.9197V69.8407C336.539 70.8571 336.709 71.7668 337.048 72.5699C337.399 73.373 337.87 74.0568 338.459 74.6215C339.049 75.1736 339.727 75.594 340.492 75.8826C341.258 76.1712 342.048 76.3155 342.864 76.3155C343.704 76.3155 344.501 76.1712 345.254 75.8826C346.019 75.5814 346.697 75.1548 347.287 74.6027C347.877 74.038 348.341 73.3542 348.68 72.5511C349.018 71.748 349.188 70.8446 349.188 69.8407V52.9197H353.78V69.9536C353.78 72.0994 353.316 73.969 352.388 75.5626C351.472 77.1562 350.192 78.3922 348.548 79.2706C346.917 80.1489 345.022 80.5881 342.864 80.5881ZM366.576 80.0234V52.9197H377.776C378.039 52.9197 378.378 52.9322 378.792 52.9573C379.206 52.9699 379.589 53.0075 379.94 53.0703C381.509 53.3087 382.801 53.8294 383.817 54.6325C384.846 55.4356 385.606 56.452 386.095 57.6817C386.597 58.8988 386.848 60.254 386.848 61.7472C386.848 63.9557 386.289 65.8567 385.173 67.4503C384.056 69.0314 382.343 70.0101 380.034 70.3866L378.096 70.5559H371.113V80.0234H366.576ZM382.142 80.0234L376.797 68.9937L381.408 67.9773L387.281 80.0234H382.142ZM371.113 66.321H377.587C377.838 66.321 378.121 66.3084 378.434 66.2833C378.748 66.2582 379.037 66.2081 379.3 66.1328C380.053 65.9445 380.643 65.612 381.069 65.1352C381.509 64.6584 381.816 64.1188 381.992 63.5165C382.18 62.9142 382.274 62.3244 382.274 61.7472C382.274 61.17 382.18 60.5803 381.992 59.978C381.816 59.3631 381.509 58.8173 381.069 58.3404C380.643 57.8636 380.053 57.5311 379.3 57.3429C379.037 57.2676 378.748 57.2237 378.434 57.2111C378.121 57.186 377.838 57.1735 377.587 57.1735H371.113V66.321ZM389.545 80.0234L398.09 52.9197H404.735L413.28 80.0234H408.612L400.857 55.7054H401.874L394.213 80.0234H389.545ZM394.307 74.151V69.916H408.537V74.151H394.307ZM420.953 80.0234V57.1735H412.182V52.9197H434.26V57.1735H425.489V80.0234H420.953ZM437.269 80.0234V52.9197H441.806V64.3259H454.642V52.9197H459.159V80.0234H454.642V68.5796H441.806V80.0234H437.269ZM464.436 80.0234V52.9197H481.941V57.1735H468.973V63.8553H479.682V68.1091H468.973V75.7697H481.941V80.0234H464.436ZM486.457 80.0234V52.9197H497.656C497.919 52.9197 498.258 52.9322 498.672 52.9573C499.086 52.9699 499.469 53.0075 499.82 53.0703C501.389 53.3087 502.681 53.8294 503.698 54.6325C504.727 55.4356 505.486 56.452 505.975 57.6817C506.477 58.8988 506.728 60.254 506.728 61.7472C506.728 63.9557 506.17 65.8567 505.053 67.4503C503.936 69.0314 502.223 70.0101 499.915 70.3866L497.976 70.5559H490.993V80.0234H486.457ZM502.023 80.0234L496.677 68.9937L501.289 67.9773L507.161 80.0234H502.023ZM490.993 66.321H497.468C497.719 66.321 498.001 66.3084 498.315 66.2833C498.628 66.2582 498.917 66.2081 499.18 66.1328C499.933 65.9445 500.523 65.612 500.95 65.1352C501.389 64.6584 501.696 64.1188 501.872 63.5165C502.06 62.9142 502.154 62.3244 502.154 61.7472C502.154 61.17 502.06 60.5803 501.872 59.978C501.696 59.3631 501.389 58.8173 500.95 58.3404C500.523 57.8636 499.933 57.5311 499.18 57.3429C498.917 57.2676 498.628 57.2237 498.315 57.2111C498.001 57.186 497.719 57.1735 497.468 57.1735H490.993V66.321ZM516.22 72.664C516.22 71.7982 516.302 70.9638 516.465 70.1607C516.641 69.3451 516.923 68.5922 517.312 67.902C517.651 67.237 518.027 66.71 518.441 66.321C518.855 65.9195 519.32 65.5242 519.834 65.1352C520.349 64.7337 520.919 64.2004 521.547 63.5353C522.061 62.9707 522.4 62.4123 522.563 61.8602C522.726 61.2955 522.808 60.6932 522.808 60.0532C522.808 59.6392 522.764 59.2502 522.676 58.8863C522.588 58.5224 522.432 58.2087 522.206 57.9452C521.854 57.4809 521.403 57.1547 520.85 56.9664C520.298 56.7657 519.709 56.6653 519.081 56.6653C518.567 56.6653 518.071 56.7343 517.594 56.8723C517.13 56.9978 516.735 57.1986 516.408 57.4746C516.032 57.7758 515.756 58.1459 515.58 58.5851C515.405 59.0243 515.323 59.5074 515.336 60.0344H510.555C510.68 58.7796 511.019 57.6189 511.571 56.5523C512.136 55.4732 512.876 54.6137 513.792 53.9737C514.507 53.4467 515.311 53.0514 516.201 52.7879C517.105 52.5244 518.008 52.3927 518.912 52.3927C520.292 52.3927 521.591 52.606 522.808 53.0326C524.038 53.4593 525.06 54.1619 525.876 55.1407C526.441 55.7806 526.867 56.521 527.156 57.3617C527.457 58.2024 527.608 59.0557 527.608 59.9215C527.608 61.2139 527.325 62.3935 526.761 63.46C526.208 64.5266 525.506 65.5116 524.653 66.4151C524.251 66.8417 523.868 67.2182 523.504 67.5444C523.14 67.8707 522.802 68.1906 522.488 68.5043C522.187 68.8055 521.936 69.1255 521.735 69.4643C521.384 70.054 521.177 70.5559 521.114 70.97C521.051 71.3716 521.02 71.9362 521.02 72.664H516.22ZM516.258 80.0234V75.0356H521.02V80.0234H516.258Z" fill="#3E1BC9"></path><rect y="132.861" width="664.307" height="332.154" rx="22.1436" fill="#3E1BC9"></rect><path d="M97.3357 288.759V266.438H101.071V275.831H111.643V266.438H115.363V288.759H111.643V279.334H101.071V288.759H97.3357ZM118.158 288.759L125.196 266.438H130.667L137.705 288.759H133.86L127.474 268.732H128.311L122.003 288.759H118.158ZM122.08 283.923V280.435H133.798V283.923H122.08ZM143.349 288.759L136.312 266.438H140.156L146.047 285.132L152.014 266.438H155.858L148.821 288.759H143.349ZM158.187 288.759V266.438H172.603V269.941H161.923V275.444H170.743V278.947H161.923V285.256H172.603V288.759H158.187ZM187.891 288.759V269.941H180.668V266.438H198.85V269.941H191.627V288.759H187.891ZM210.768 289.224C208.536 289.224 206.624 288.738 205.033 287.767C203.442 286.785 202.217 285.421 201.359 283.675C200.512 281.928 200.088 279.903 200.088 277.598C200.088 275.294 200.512 273.269 201.359 271.522C202.217 269.776 203.442 268.417 205.033 267.446C206.624 266.464 208.536 265.973 210.768 265.973C213 265.973 214.912 266.464 216.503 267.446C218.105 268.417 219.33 269.776 220.177 271.522C221.035 273.269 221.464 275.294 221.464 277.598C221.464 279.903 221.035 281.928 220.177 283.675C219.33 285.421 218.105 286.785 216.503 287.767C214.912 288.738 213 289.224 210.768 289.224ZM210.768 285.705C212.267 285.716 213.512 285.385 214.504 284.713C215.506 284.041 216.255 283.096 216.751 281.877C217.258 280.657 217.511 279.231 217.511 277.598C217.511 275.966 217.258 274.55 216.751 273.351C216.255 272.142 215.506 271.202 214.504 270.53C213.512 269.859 212.267 269.512 210.768 269.492C209.27 269.481 208.025 269.812 207.033 270.484C206.041 271.155 205.291 272.101 204.785 273.32C204.289 274.54 204.041 275.966 204.041 277.598C204.041 279.231 204.289 280.652 204.785 281.861C205.281 283.06 206.025 283.995 207.017 284.667C208.019 285.338 209.27 285.685 210.768 285.705ZM239.017 289.224C237.384 289.224 235.912 288.94 234.599 288.371C233.297 287.803 232.222 286.992 231.375 285.938C230.538 284.873 230.006 283.613 229.779 282.156L233.654 281.567C233.984 282.889 234.661 283.912 235.684 284.636C236.718 285.359 237.906 285.721 239.249 285.721C240.045 285.721 240.794 285.597 241.497 285.349C242.2 285.101 242.768 284.739 243.202 284.264C243.646 283.788 243.869 283.204 243.869 282.512C243.869 282.202 243.817 281.918 243.714 281.66C243.61 281.391 243.455 281.153 243.249 280.947C243.052 280.74 242.794 280.554 242.473 280.389C242.163 280.213 241.802 280.063 241.388 279.939L235.622 278.234C235.126 278.089 234.589 277.898 234.01 277.66C233.442 277.412 232.899 277.077 232.383 276.653C231.876 276.219 231.458 275.671 231.127 275.01C230.807 274.338 230.647 273.511 230.647 272.53C230.647 271.093 231.008 269.89 231.732 268.918C232.465 267.936 233.447 267.203 234.677 266.717C235.917 266.231 237.291 265.994 238.8 266.004C240.329 266.014 241.693 266.278 242.892 266.795C244.091 267.301 245.093 268.04 245.899 269.011C246.705 269.983 247.273 271.155 247.604 272.53L243.59 273.227C243.424 272.442 243.104 271.775 242.628 271.228C242.163 270.67 241.59 270.246 240.908 269.957C240.236 269.667 239.518 269.512 238.753 269.492C238.009 269.481 237.317 269.595 236.676 269.833C236.046 270.06 235.534 270.391 235.142 270.825C234.759 271.259 234.568 271.765 234.568 272.344C234.568 272.891 234.734 273.341 235.064 273.692C235.395 274.033 235.803 274.307 236.289 274.514C236.785 274.71 237.286 274.876 237.792 275.01L241.791 276.126C242.339 276.271 242.954 276.467 243.636 276.715C244.318 276.963 244.974 277.309 245.605 277.753C246.235 278.198 246.752 278.782 247.155 279.505C247.568 280.228 247.775 281.148 247.775 282.264C247.775 283.421 247.532 284.439 247.046 285.318C246.571 286.186 245.925 286.909 245.109 287.488C244.292 288.066 243.357 288.5 242.303 288.79C241.259 289.079 240.164 289.224 239.017 289.224ZM251.44 288.759V266.438H255.175V288.759H251.44ZM259.819 288.759V266.438H263.601L273.955 282.171V266.438H277.737V288.759H273.955L263.601 273.026V288.759H259.819ZM291.278 289.224C289.831 289.224 288.472 288.971 287.201 288.464C285.94 287.948 284.829 287.193 283.868 286.201C282.918 285.209 282.174 283.995 281.636 282.559C281.099 281.112 280.83 279.458 280.83 277.598C280.83 275.16 281.285 273.077 282.194 271.352C283.104 269.616 284.349 268.288 285.93 267.368C287.511 266.438 289.293 265.973 291.278 265.973C294.026 265.973 296.202 266.614 297.803 267.895C299.415 269.166 300.506 270.954 301.074 273.258L297.261 273.863C296.837 272.54 296.145 271.486 295.184 270.701C294.223 269.905 292.998 269.507 291.51 269.507C290.012 269.486 288.766 269.812 287.774 270.484C286.782 271.155 286.033 272.101 285.527 273.32C285.031 274.54 284.783 275.966 284.783 277.598C284.783 279.231 285.031 280.652 285.527 281.861C286.023 283.06 286.767 283.995 287.759 284.667C288.761 285.338 290.012 285.685 291.51 285.705C292.636 285.716 293.623 285.514 294.471 285.101C295.318 284.677 296.01 284.041 296.548 283.194C297.085 282.336 297.447 281.267 297.633 279.986H293.696V277.056H301.601C301.622 277.221 301.637 277.464 301.647 277.784C301.658 278.105 301.663 278.296 301.663 278.358C301.663 280.466 301.244 282.342 300.407 283.985C299.581 285.617 298.392 286.899 296.842 287.829C295.292 288.759 293.437 289.224 291.278 289.224ZM310.982 288.759V266.438H325.398V269.941H314.718V275.444H323.538V278.947H314.718V285.256H325.398V288.759H310.982ZM334.139 288.759L327.102 266.438H330.946L336.836 285.132L342.804 266.438H346.648L339.611 288.759H334.139ZM348.977 288.759V266.438H363.392V269.941H352.712V275.444H361.532V278.947H352.712V285.256H363.392V288.759H348.977ZM367.111 288.759V266.438H376.334C376.551 266.438 376.83 266.448 377.171 266.469C377.512 266.479 377.827 266.51 378.116 266.562C379.408 266.758 380.473 267.187 381.31 267.849C382.157 268.51 382.782 269.347 383.185 270.36C383.598 271.362 383.805 272.478 383.805 273.708C383.805 275.527 383.345 277.092 382.426 278.404C381.506 279.706 380.095 280.513 378.194 280.823L376.597 280.962H370.847V288.759H367.111ZM379.93 288.759L375.528 279.675L379.326 278.838L384.162 288.759H379.93ZM370.847 277.474H376.179C376.386 277.474 376.618 277.464 376.876 277.443C377.135 277.423 377.372 277.381 377.589 277.319C378.209 277.164 378.695 276.891 379.047 276.498C379.408 276.105 379.661 275.661 379.806 275.165C379.961 274.669 380.039 274.183 380.039 273.708C380.039 273.232 379.961 272.747 379.806 272.251C379.661 271.744 379.408 271.295 379.047 270.902C378.695 270.51 378.209 270.236 377.589 270.081C377.372 270.019 377.135 269.983 376.876 269.972C376.618 269.952 376.386 269.941 376.179 269.941H370.847V277.474ZM392.578 288.759V279.613L384.983 266.438H389.338L394.469 275.335L399.584 266.438H403.94L396.36 279.613V288.759H392.578ZM412.406 288.759V269.941H405.183V266.438H423.365V269.941H416.142V288.759H412.406ZM425.844 288.759V266.438H429.579V275.831H440.15V266.438H443.871V288.759H440.15V279.334H429.579V288.759H425.844ZM448.526 288.759V266.438H452.262V288.759H448.526ZM456.905 288.759V266.438H460.687L471.042 282.171V266.438H474.824V288.759H471.042L460.687 273.026V288.759H456.905ZM488.364 289.224C486.917 289.224 485.558 288.971 484.287 288.464C483.027 287.948 481.916 287.193 480.955 286.201C480.004 285.209 479.26 283.995 478.723 282.559C478.185 281.112 477.917 279.458 477.917 277.598C477.917 275.16 478.371 273.077 479.281 271.352C480.19 269.616 481.435 268.288 483.016 267.368C484.597 266.438 486.38 265.973 488.364 265.973C491.113 265.973 493.288 266.614 494.89 267.895C496.502 269.166 497.592 270.954 498.16 273.258L494.347 273.863C493.924 272.54 493.231 271.486 492.27 270.701C491.309 269.905 490.085 269.507 488.597 269.507C487.098 269.486 485.853 269.812 484.861 270.484C483.869 271.155 483.12 272.101 482.613 273.32C482.117 274.54 481.869 275.966 481.869 277.598C481.869 279.231 482.117 280.652 482.613 281.861C483.109 283.06 483.853 283.995 484.845 284.667C485.848 285.338 487.098 285.685 488.597 285.705C489.723 285.716 490.71 285.514 491.557 285.101C492.405 284.677 493.097 284.041 493.634 283.194C494.172 282.336 494.533 281.267 494.719 279.986H490.782V277.056H498.687C498.708 277.221 498.724 277.464 498.734 277.784C498.744 278.105 498.749 278.296 498.749 278.358C498.749 280.466 498.331 282.342 497.494 283.985C496.667 285.617 495.479 286.899 493.929 287.829C492.379 288.759 490.524 289.224 488.364 289.224ZM513.494 288.759V279.613L505.899 266.438H510.254L515.385 275.335L520.5 266.438H524.856L517.276 279.613V288.759H513.494ZM535.219 289.224C532.987 289.224 531.075 288.738 529.484 287.767C527.893 286.785 526.668 285.421 525.81 283.675C524.963 281.928 524.539 279.903 524.539 277.598C524.539 275.294 524.963 273.269 525.81 271.522C526.668 269.776 527.893 268.417 529.484 267.446C531.075 266.464 532.987 265.973 535.219 265.973C537.451 265.973 539.363 266.464 540.954 267.446C542.556 268.417 543.781 269.776 544.628 271.522C545.486 273.269 545.915 275.294 545.915 277.598C545.915 279.903 545.486 281.928 544.628 283.675C543.781 285.421 542.556 286.785 540.954 287.767C539.363 288.738 537.451 289.224 535.219 289.224ZM535.219 285.705C536.718 285.716 537.963 285.385 538.955 284.713C539.957 284.041 540.706 283.096 541.202 281.877C541.709 280.657 541.962 279.231 541.962 277.598C541.962 275.966 541.709 274.55 541.202 273.351C540.706 272.142 539.957 271.202 538.955 270.53C537.963 269.859 536.718 269.512 535.219 269.492C533.721 269.481 532.476 269.812 531.484 270.484C530.492 271.155 529.742 272.101 529.236 273.32C528.74 274.54 528.492 275.966 528.492 277.598C528.492 279.231 528.74 280.652 529.236 281.861C529.732 283.06 530.476 283.995 531.468 284.667C532.47 285.338 533.721 285.685 535.219 285.705ZM557.99 289.224C556.213 289.224 554.647 288.862 553.293 288.139C551.95 287.415 550.896 286.398 550.131 285.085C549.377 283.773 549 282.233 549 280.466V266.469L552.782 266.438V280.373C552.782 281.21 552.921 281.959 553.2 282.621C553.49 283.282 553.877 283.845 554.363 284.31C554.849 284.765 555.407 285.111 556.037 285.349C556.667 285.586 557.318 285.705 557.99 285.705C558.682 285.705 559.339 285.586 559.959 285.349C560.589 285.101 561.147 284.749 561.633 284.295C562.118 283.83 562.501 283.266 562.78 282.605C563.059 281.944 563.198 281.2 563.198 280.373V266.438H566.98V280.466C566.98 282.233 566.598 283.773 565.833 285.085C565.079 286.398 564.025 287.415 562.671 288.139C561.328 288.862 559.768 289.224 557.99 289.224ZM234.9 332.224C233.267 332.224 231.794 331.94 230.482 331.371C229.18 330.803 228.105 329.992 227.258 328.938C226.421 327.873 225.889 326.613 225.661 325.156L229.536 324.567C229.867 325.889 230.544 326.912 231.567 327.636C232.6 328.359 233.789 328.721 235.132 328.721C235.928 328.721 236.677 328.597 237.38 328.349C238.082 328.101 238.651 327.739 239.085 327.264C239.529 326.788 239.751 326.204 239.751 325.512C239.751 325.202 239.7 324.918 239.596 324.66C239.493 324.391 239.338 324.153 239.131 323.947C238.935 323.74 238.677 323.554 238.356 323.389C238.046 323.213 237.684 323.063 237.271 322.939L231.505 321.234C231.009 321.089 230.472 320.898 229.893 320.66C229.325 320.412 228.782 320.077 228.265 319.653C227.759 319.219 227.34 318.671 227.01 318.01C226.689 317.338 226.529 316.511 226.529 315.53C226.529 314.093 226.891 312.89 227.614 311.918C228.348 310.936 229.33 310.203 230.559 309.717C231.799 309.231 233.174 308.994 234.683 309.004C236.212 309.014 237.576 309.278 238.775 309.795C239.973 310.301 240.976 311.04 241.782 312.011C242.588 312.983 243.156 314.155 243.487 315.53L239.472 316.227C239.307 315.442 238.987 314.775 238.511 314.228C238.046 313.67 237.473 313.246 236.791 312.957C236.119 312.667 235.401 312.512 234.636 312.492C233.892 312.481 233.2 312.595 232.559 312.833C231.929 313.06 231.417 313.391 231.024 313.825C230.642 314.259 230.451 314.765 230.451 315.344C230.451 315.891 230.616 316.341 230.947 316.692C231.278 317.033 231.686 317.307 232.171 317.514C232.667 317.71 233.169 317.876 233.675 318.01L237.674 319.126C238.222 319.271 238.837 319.467 239.519 319.715C240.201 319.963 240.857 320.309 241.487 320.753C242.118 321.198 242.634 321.782 243.037 322.505C243.451 323.228 243.657 324.148 243.657 325.264C243.657 326.421 243.414 327.439 242.929 328.318C242.453 329.186 241.808 329.909 240.991 330.488C240.175 331.066 239.24 331.5 238.186 331.79C237.142 332.079 236.047 332.224 234.9 332.224ZM245.462 331.759L252.5 309.438H257.971L265.009 331.759H261.164L254.778 311.732H255.615L249.307 331.759H245.462ZM249.384 326.923V323.435H261.102V326.923H249.384ZM271.389 331.759V322.613L263.794 309.438H268.15L273.28 318.335L278.396 309.438H282.751L275.172 322.613V331.759H271.389ZM289.881 331.759V309.438H303.32V313.174H293.617V318.738H301.46V322.458H293.617V331.759H289.881ZM315.548 332.224C313.316 332.224 311.404 331.738 309.813 330.767C308.221 329.785 306.997 328.421 306.139 326.675C305.292 324.928 304.868 322.903 304.868 320.598C304.868 318.294 305.292 316.269 306.139 314.522C306.997 312.776 308.221 311.417 309.813 310.446C311.404 309.464 313.316 308.973 315.548 308.973C317.78 308.973 319.692 309.464 321.283 310.446C322.885 311.417 324.109 312.776 324.957 314.522C325.814 316.269 326.243 318.294 326.243 320.598C326.243 322.903 325.814 324.928 324.957 326.675C324.109 328.421 322.885 329.785 321.283 330.767C319.692 331.738 317.78 332.224 315.548 332.224ZM315.548 328.705C317.046 328.716 318.292 328.385 319.284 327.713C320.286 327.041 321.035 326.096 321.531 324.877C322.038 323.657 322.291 322.231 322.291 320.598C322.291 318.966 322.038 317.55 321.531 316.351C321.035 315.142 320.286 314.202 319.284 313.53C318.292 312.859 317.046 312.512 315.548 312.492C314.05 312.481 312.804 312.812 311.812 313.484C310.82 314.155 310.071 315.101 309.565 316.32C309.069 317.54 308.821 318.966 308.821 320.598C308.821 322.231 309.069 323.652 309.565 324.861C310.061 326.06 310.805 326.995 311.797 327.667C312.799 328.338 314.05 328.685 315.548 328.705ZM329.329 331.759V309.438H338.551C338.768 309.438 339.047 309.448 339.388 309.469C339.729 309.479 340.045 309.51 340.334 309.562C341.626 309.758 342.69 310.187 343.527 310.849C344.374 311.51 345 312.347 345.403 313.36C345.816 314.362 346.023 315.478 346.023 316.708C346.023 318.527 345.563 320.092 344.643 321.404C343.723 322.706 342.313 323.513 340.412 323.823L338.815 323.962H333.064V331.759H329.329ZM342.148 331.759L337.745 322.675L341.543 321.838L346.379 331.759H342.148ZM333.064 320.474H338.396C338.603 320.474 338.836 320.464 339.094 320.443C339.352 320.423 339.59 320.381 339.807 320.319C340.427 320.164 340.913 319.891 341.264 319.498C341.626 319.105 341.879 318.661 342.024 318.165C342.179 317.669 342.256 317.183 342.256 316.708C342.256 316.232 342.179 315.747 342.024 315.251C341.879 314.744 341.626 314.295 341.264 313.902C340.913 313.51 340.427 313.236 339.807 313.081C339.59 313.019 339.352 312.983 339.094 312.972C338.836 312.952 338.603 312.941 338.396 312.941H333.064V320.474ZM354.45 331.759L361.488 309.438H366.959L373.996 331.759H370.152L363.766 311.732H364.603L358.294 331.759H354.45ZM358.372 326.923V323.435H370.09V326.923H358.372ZM383.005 331.759V309.438H390.12C390.306 309.438 390.673 309.443 391.22 309.454C391.778 309.464 392.316 309.5 392.833 309.562C394.6 309.789 396.093 310.42 397.312 311.453C398.542 312.476 399.472 313.783 400.102 315.375C400.733 316.966 401.048 318.707 401.048 320.598C401.048 322.489 400.733 324.231 400.102 325.822C399.472 327.413 398.542 328.726 397.312 329.759C396.093 330.782 394.6 331.407 392.833 331.635C392.326 331.697 391.794 331.733 391.236 331.743C390.678 331.754 390.306 331.759 390.12 331.759H383.005ZM386.803 328.24H390.12C390.43 328.24 390.823 328.23 391.298 328.209C391.784 328.189 392.212 328.142 392.584 328.07C393.639 327.873 394.496 327.403 395.158 326.659C395.819 325.915 396.305 325.011 396.615 323.947C396.935 322.882 397.095 321.766 397.095 320.598C397.095 319.389 396.935 318.253 396.615 317.188C396.294 316.124 395.798 315.23 395.127 314.507C394.465 313.783 393.618 313.324 392.584 313.127C392.212 313.045 391.784 312.998 391.298 312.988C390.823 312.967 390.43 312.957 390.12 312.957H386.803V328.24ZM402.556 331.759L409.594 309.438H415.065L422.103 331.759H418.258L411.872 311.732H412.709L406.401 331.759H402.556ZM406.478 326.923V323.435H418.196V326.923H406.478ZM428.483 331.759V322.613L420.888 309.438H425.244L430.374 318.335L435.49 309.438H439.845L432.266 322.613V331.759H428.483Z" fill="white"></path><rect y="525.91" width="664.307" height="332.154" rx="22.1436" fill="#55ACEE"></rect><path d="M78.8535 681.807V659.486H82.2171L89.9363 675.296L97.6556 659.486H101.019V681.807H97.5316V667.5L90.6803 681.807H89.1923L82.3566 667.5V681.807H78.8535ZM114.364 682.272C112.587 682.272 111.021 681.91 109.667 681.187C108.324 680.463 107.27 679.445 106.505 678.133C105.751 676.821 105.374 675.281 105.374 673.514V659.517L109.156 659.486V673.421C109.156 674.258 109.295 675.007 109.574 675.668C109.864 676.33 110.251 676.893 110.737 677.358C111.223 677.813 111.781 678.159 112.411 678.397C113.041 678.634 113.692 678.753 114.364 678.753C115.056 678.753 115.713 678.634 116.333 678.397C116.963 678.149 117.521 677.797 118.007 677.342C118.492 676.877 118.875 676.314 119.154 675.653C119.433 674.992 119.572 674.248 119.572 673.421V659.486H123.354V673.514C123.354 675.281 122.972 676.821 122.207 678.133C121.453 679.445 120.399 680.463 119.045 681.187C117.702 681.91 116.142 682.272 114.364 682.272ZM135.009 682.272C133.377 682.272 131.904 681.987 130.592 681.419C129.29 680.851 128.215 680.04 127.368 678.986C126.531 677.921 125.998 676.66 125.771 675.203L129.646 674.614C129.977 675.937 130.654 676.96 131.677 677.684C132.71 678.407 133.898 678.769 135.242 678.769C136.038 678.769 136.787 678.645 137.489 678.397C138.192 678.149 138.76 677.787 139.194 677.311C139.639 676.836 139.861 676.252 139.861 675.56C139.861 675.25 139.809 674.966 139.706 674.707C139.603 674.439 139.448 674.201 139.241 673.994C139.045 673.788 138.786 673.602 138.466 673.436C138.156 673.261 137.794 673.111 137.381 672.987L131.615 671.282C131.119 671.137 130.581 670.946 130.003 670.708C129.434 670.46 128.892 670.124 128.375 669.701C127.869 669.267 127.45 668.719 127.12 668.058C126.799 667.386 126.639 666.559 126.639 665.578C126.639 664.141 127.001 662.937 127.724 661.966C128.458 660.984 129.44 660.251 130.669 659.765C131.909 659.279 133.284 659.042 134.792 659.052C136.322 659.062 137.686 659.326 138.884 659.842C140.083 660.349 141.086 661.088 141.892 662.059C142.698 663.03 143.266 664.203 143.597 665.578L139.582 666.275C139.417 665.49 139.096 664.823 138.621 664.276C138.156 663.718 137.582 663.294 136.9 663.005C136.229 662.715 135.511 662.56 134.746 662.54C134.002 662.529 133.309 662.643 132.669 662.881C132.038 663.108 131.527 663.439 131.134 663.873C130.752 664.307 130.561 664.813 130.561 665.392C130.561 665.939 130.726 666.389 131.057 666.74C131.387 667.081 131.796 667.355 132.281 667.562C132.777 667.758 133.278 667.923 133.785 668.058L137.784 669.174C138.332 669.318 138.946 669.515 139.629 669.763C140.311 670.011 140.967 670.357 141.597 670.801C142.227 671.246 142.744 671.829 143.147 672.553C143.56 673.276 143.767 674.196 143.767 675.312C143.767 676.469 143.524 677.487 143.039 678.366C142.563 679.234 141.917 679.957 141.101 680.536C140.285 681.114 139.349 681.548 138.295 681.838C137.252 682.127 136.156 682.272 135.009 682.272ZM152.485 681.807V662.989H145.262V659.486H163.444V662.989H156.221V681.807H152.485ZM175.903 681.807L169.377 659.486H173.299L177.747 675.606L182.18 659.517L186.102 659.486L190.551 675.606L194.984 659.486H198.905L192.395 681.807H188.706L184.133 665.934L179.592 681.807H175.903ZM201.435 681.807V659.486H215.85V662.989H205.17V668.492H213.99V671.995H205.17V678.304H215.85V681.807H201.435ZM218.019 681.807L225.056 659.486H230.528L237.565 681.807H233.721L227.335 661.78H228.172L221.863 681.807H218.019ZM221.941 676.97V673.483H233.659V676.97H221.941ZM240.368 681.807V659.486H249.59C249.807 659.486 250.086 659.496 250.427 659.517C250.768 659.527 251.084 659.558 251.373 659.61C252.665 659.806 253.729 660.235 254.566 660.896C255.413 661.558 256.039 662.395 256.442 663.408C256.855 664.41 257.062 665.526 257.062 666.756C257.062 668.574 256.602 670.14 255.682 671.452C254.762 672.754 253.352 673.56 251.45 673.87L249.854 674.01H244.103V681.807H240.368ZM253.186 681.807L248.784 672.723L252.582 671.886L257.418 681.807H253.186ZM244.103 670.522H249.435C249.642 670.522 249.874 670.512 250.133 670.491C250.391 670.471 250.629 670.429 250.846 670.367C251.466 670.212 251.952 669.938 252.303 669.546C252.665 669.153 252.918 668.709 253.062 668.213C253.217 667.717 253.295 667.231 253.295 666.756C253.295 666.28 253.217 665.795 253.062 665.299C252.918 664.792 252.665 664.343 252.303 663.95C251.952 663.557 251.466 663.284 250.846 663.129C250.629 663.067 250.391 663.03 250.133 663.02C249.874 662.999 249.642 662.989 249.435 662.989H244.103V670.522ZM265.489 681.807L272.526 659.486H277.998L285.035 681.807H281.191L274.805 661.78H275.642L269.333 681.807H265.489ZM269.411 676.97V673.483H281.129V676.97H269.411ZM303.484 682.272C301.252 682.272 299.34 681.786 297.749 680.815C296.157 679.833 294.933 678.469 294.075 676.722C293.228 674.976 292.804 672.951 292.804 670.646C292.804 668.342 293.228 666.316 294.075 664.57C294.933 662.824 296.157 661.465 297.749 660.493C299.34 659.512 301.252 659.021 303.484 659.021C306.057 659.021 308.201 659.667 309.917 660.958C311.632 662.24 312.836 663.971 313.528 666.151L309.762 667.19C309.328 665.733 308.589 664.596 307.545 663.78C306.501 662.953 305.148 662.54 303.484 662.54C301.985 662.54 300.735 662.875 299.733 663.547C298.741 664.219 297.992 665.164 297.485 666.384C296.989 667.593 296.736 669.014 296.726 670.646C296.726 672.279 296.974 673.705 297.47 674.924C297.976 676.133 298.73 677.074 299.733 677.746C300.735 678.417 301.985 678.753 303.484 678.753C305.148 678.753 306.501 678.34 307.545 677.513C308.589 676.686 309.328 675.55 309.762 674.103L313.528 675.141C312.836 677.322 311.632 679.058 309.917 680.35C308.201 681.631 306.057 682.272 303.484 682.272ZM316.932 681.807V659.486H320.667V668.879H331.239V659.486H334.959V681.807H331.239V672.382H320.667V681.807H316.932ZM339.614 681.807V659.486H343.35V681.807H339.614ZM357.433 682.272C355.201 682.272 353.289 681.786 351.698 680.815C350.106 679.833 348.882 678.469 348.024 676.722C347.177 674.976 346.753 672.951 346.753 670.646C346.753 668.342 347.177 666.316 348.024 664.57C348.882 662.824 350.106 661.465 351.698 660.493C353.289 659.512 355.201 659.021 357.433 659.021C360.006 659.021 362.15 659.667 363.866 660.958C365.581 662.24 366.785 663.971 367.477 666.151L363.711 667.19C363.277 665.733 362.538 664.596 361.494 663.78C360.45 662.953 359.097 662.54 357.433 662.54C355.934 662.54 354.684 662.875 353.682 663.547C352.69 664.219 351.941 665.164 351.434 666.384C350.938 667.593 350.685 669.014 350.675 670.646C350.675 672.279 350.923 673.705 351.419 674.924C351.925 676.133 352.679 677.074 353.682 677.746C354.684 678.417 355.934 678.753 357.433 678.753C359.097 678.753 360.45 678.34 361.494 677.513C362.538 676.686 363.277 675.55 363.711 674.103L367.477 675.141C366.785 677.322 365.581 679.058 363.866 680.35C362.15 681.631 360.006 682.272 357.433 682.272ZM370.881 681.807V659.486H374.616V669.84L383.529 659.486H388.117L378.522 670.429L388.768 681.807H384.025L374.616 671.39V681.807H370.881ZM390.952 681.807V659.486H405.368V662.989H394.688V668.492H403.508V671.995H394.688V678.304H405.368V681.807H390.952ZM409.087 681.807V659.486H412.869L423.223 675.219V659.486H427.005V681.807H423.223L412.869 666.074V681.807H409.087ZM446.985 682.272C444.753 682.272 442.841 681.786 441.249 680.815C439.658 679.833 438.434 678.469 437.576 676.722C436.728 674.976 436.305 672.951 436.305 670.646C436.305 668.342 436.728 666.316 437.576 664.57C438.434 662.824 439.658 661.465 441.249 660.493C442.841 659.512 444.753 659.021 446.985 659.021C449.558 659.021 451.702 659.667 453.417 660.958C455.133 662.24 456.337 663.971 457.029 666.151L453.262 667.19C452.828 665.733 452.089 664.596 451.046 663.78C450.002 662.953 448.648 662.54 446.985 662.54C445.486 662.54 444.236 662.875 443.234 663.547C442.241 664.219 441.492 665.164 440.986 666.384C440.49 667.593 440.237 669.014 440.226 670.646C440.226 672.279 440.474 673.705 440.97 674.924C441.477 676.133 442.231 677.074 443.234 677.746C444.236 678.417 445.486 678.753 446.985 678.753C448.648 678.753 450.002 678.34 451.046 677.513C452.089 676.686 452.828 675.55 453.262 674.103L457.029 675.141C456.337 677.322 455.133 679.058 453.417 680.35C451.702 681.631 449.558 682.272 446.985 682.272ZM469.872 682.272C467.64 682.272 465.728 681.786 464.137 680.815C462.546 679.833 461.321 678.469 460.463 676.722C459.616 674.976 459.192 672.951 459.192 670.646C459.192 668.342 459.616 666.316 460.463 664.57C461.321 662.824 462.546 661.465 464.137 660.493C465.728 659.512 467.64 659.021 469.872 659.021C472.104 659.021 474.016 659.512 475.607 660.493C477.209 661.465 478.434 662.824 479.281 664.57C480.139 666.316 480.567 668.342 480.567 670.646C480.567 672.951 480.139 674.976 479.281 676.722C478.434 678.469 477.209 679.833 475.607 680.815C474.016 681.786 472.104 682.272 469.872 682.272ZM469.872 678.753C471.37 678.763 472.616 678.433 473.608 677.761C474.61 677.089 475.359 676.144 475.855 674.924C476.362 673.705 476.615 672.279 476.615 670.646C476.615 669.014 476.362 667.598 475.855 666.399C475.359 665.19 474.61 664.25 473.608 663.578C472.616 662.906 471.37 662.56 469.872 662.54C468.374 662.529 467.129 662.86 466.136 663.532C465.144 664.203 464.395 665.149 463.889 666.368C463.393 667.588 463.145 669.014 463.145 670.646C463.145 672.279 463.393 673.7 463.889 674.909C464.385 676.108 465.129 677.043 466.121 677.715C467.123 678.386 468.374 678.732 469.872 678.753ZM491.915 682.272C490.282 682.272 488.809 681.987 487.497 681.419C486.195 680.851 485.12 680.04 484.273 678.986C483.436 677.921 482.904 676.66 482.676 675.203L486.551 674.614C486.882 675.937 487.559 676.96 488.582 677.684C489.615 678.407 490.804 678.769 492.147 678.769C492.943 678.769 493.692 678.645 494.395 678.397C495.097 678.149 495.666 677.787 496.1 677.311C496.544 676.836 496.766 676.252 496.766 675.56C496.766 675.25 496.715 674.966 496.611 674.707C496.508 674.439 496.353 674.201 496.146 673.994C495.95 673.788 495.691 673.602 495.371 673.436C495.061 673.261 494.699 673.111 494.286 672.987L488.52 671.282C488.024 671.137 487.487 670.946 486.908 670.708C486.34 670.46 485.797 670.124 485.28 669.701C484.774 669.267 484.355 668.719 484.025 668.058C483.704 667.386 483.544 666.559 483.544 665.578C483.544 664.141 483.906 662.937 484.629 661.966C485.363 660.984 486.345 660.251 487.574 659.765C488.814 659.279 490.189 659.042 491.698 659.052C493.227 659.062 494.591 659.326 495.79 659.842C496.988 660.349 497.991 661.088 498.797 662.059C499.603 663.03 500.171 664.203 500.502 665.578L496.487 666.275C496.322 665.49 496.002 664.823 495.526 664.276C495.061 663.718 494.488 663.294 493.806 663.005C493.134 662.715 492.416 662.56 491.651 662.54C490.907 662.529 490.215 662.643 489.574 662.881C488.944 663.108 488.432 663.439 488.039 663.873C487.657 664.307 487.466 664.813 487.466 665.392C487.466 665.939 487.631 666.389 487.962 666.74C488.293 667.081 488.701 667.355 489.186 667.562C489.682 667.758 490.184 667.923 490.69 668.058L494.689 669.174C495.237 669.318 495.852 669.515 496.534 669.763C497.216 670.011 497.872 670.357 498.502 670.801C499.133 671.246 499.649 671.829 500.052 672.553C500.466 673.276 500.672 674.196 500.672 675.312C500.672 676.469 500.429 677.487 499.944 678.366C499.468 679.234 498.823 679.957 498.006 680.536C497.19 681.114 496.255 681.548 495.201 681.838C494.157 682.127 493.062 682.272 491.915 682.272ZM509.391 681.807V662.989H502.167V659.486H520.349V662.989H513.126V681.807H509.391ZM531.818 682.272C530.041 682.272 528.475 681.91 527.122 681.187C525.778 680.463 524.724 679.445 523.959 678.133C523.205 676.821 522.828 675.281 522.828 673.514V659.517L526.61 659.486V673.421C526.61 674.258 526.75 675.007 527.029 675.668C527.318 676.33 527.705 676.893 528.191 677.358C528.677 677.813 529.235 678.159 529.865 678.397C530.495 678.634 531.146 678.753 531.818 678.753C532.511 678.753 533.167 678.634 533.787 678.397C534.417 678.149 534.975 677.797 535.461 677.342C535.946 676.877 536.329 676.314 536.608 675.653C536.887 674.992 537.026 674.248 537.026 673.421V659.486H540.808V673.514C540.808 675.281 540.426 676.821 539.661 678.133C538.907 679.445 537.853 680.463 536.499 681.187C535.156 681.91 533.596 682.272 531.818 682.272ZM545.14 681.807V659.486H548.504L556.223 675.296L563.942 659.486H567.306V681.807H563.818V667.5L556.967 681.807H555.479L548.643 667.5V681.807H545.14ZM571.661 681.807V659.486H586.076V662.989H575.396V668.492H584.216V671.995H575.396V678.304H586.076V681.807H571.661ZM244.47 724.807V702.486H257.909V706.222H248.205V711.786H256.049V715.506H248.205V724.807H244.47ZM270.137 725.272C267.905 725.272 265.993 724.786 264.401 723.815C262.81 722.833 261.585 721.469 260.728 719.722C259.88 717.976 259.457 715.951 259.457 713.646C259.457 711.342 259.88 709.316 260.728 707.57C261.585 705.824 262.81 704.465 264.401 703.493C265.993 702.512 267.905 702.021 270.137 702.021C272.369 702.021 274.28 702.512 275.872 703.493C277.474 704.465 278.698 705.824 279.545 707.57C280.403 709.316 280.832 711.342 280.832 713.646C280.832 715.951 280.403 717.976 279.545 719.722C278.698 721.469 277.474 722.833 275.872 723.815C274.28 724.786 272.369 725.272 270.137 725.272ZM270.137 721.753C271.635 721.763 272.88 721.433 273.872 720.761C274.875 720.089 275.624 719.144 276.12 717.924C276.626 716.705 276.879 715.279 276.879 713.646C276.879 712.014 276.626 710.598 276.12 709.399C275.624 708.19 274.875 707.25 273.872 706.578C272.88 705.906 271.635 705.56 270.137 705.54C268.638 705.529 267.393 705.86 266.401 706.532C265.409 707.203 264.66 708.149 264.153 709.368C263.657 710.588 263.409 712.014 263.409 713.646C263.409 715.279 263.657 716.7 264.153 717.909C264.649 719.108 265.393 720.043 266.385 720.715C267.388 721.386 268.638 721.732 270.137 721.753ZM283.917 724.807V702.486H293.14C293.357 702.486 293.636 702.496 293.977 702.517C294.318 702.527 294.633 702.558 294.923 702.61C296.214 702.806 297.279 703.235 298.116 703.896C298.963 704.558 299.588 705.395 299.991 706.408C300.405 707.41 300.611 708.526 300.611 709.756C300.611 711.574 300.151 713.14 299.232 714.452C298.312 715.754 296.902 716.56 295 716.87L293.404 717.01H287.653V724.807H283.917ZM296.736 724.807L292.334 715.723L296.132 714.886L300.968 724.807H296.736ZM287.653 713.522H292.985C293.192 713.522 293.424 713.512 293.683 713.491C293.941 713.471 294.179 713.429 294.396 713.367C295.016 713.212 295.501 712.938 295.853 712.546C296.214 712.153 296.468 711.709 296.612 711.213C296.767 710.717 296.845 710.231 296.845 709.756C296.845 709.28 296.767 708.795 296.612 708.299C296.468 707.792 296.214 707.343 295.853 706.95C295.501 706.557 295.016 706.284 294.396 706.129C294.179 706.067 293.941 706.03 293.683 706.02C293.424 705.999 293.192 705.989 292.985 705.989H287.653V713.522ZM309.039 724.807L316.076 702.486H321.548L328.585 724.807H324.741L318.355 704.78H319.192L312.883 724.807H309.039ZM312.961 719.97V716.483H324.679V719.97H312.961ZM342.306 724.807L335.78 702.486H339.702L344.151 718.606L348.584 702.517L352.505 702.486L356.954 718.606L361.387 702.486H365.309L358.799 724.807H355.109L350.537 708.934L345.995 724.807H342.306ZM367.838 724.807V702.486H382.253V705.989H371.574V711.492H380.393V714.995H371.574V721.304H382.253V724.807H367.838ZM385.972 724.807V702.486H400.388V705.989H389.708V711.492H398.528V714.995H389.708V721.304H400.388V724.807H385.972ZM404.107 724.807V702.486H407.842V712.84L416.755 702.486H421.343L411.748 713.429L421.994 724.807H417.251L407.842 714.39V724.807H404.107Z" fill="white"></path><circle cx="332.153" cy="496.016" r="66.4307" fill="#F9F9F9"></circle><path d="M319.002 510.174C316.291 510.174 313.97 509.584 312.038 508.405C310.105 507.213 308.618 505.556 307.577 503.436C306.548 501.315 306.033 498.856 306.033 496.058C306.033 493.259 306.548 490.8 307.577 488.679C308.618 486.559 310.105 484.909 312.038 483.729C313.97 482.537 316.291 481.941 319.002 481.941C321.712 481.941 324.034 482.537 325.966 483.729C327.911 484.909 329.398 486.559 330.427 488.679C331.468 490.8 331.989 493.259 331.989 496.058C331.989 498.856 331.468 501.315 330.427 503.436C329.398 505.556 327.911 507.213 325.966 508.405C324.034 509.584 321.712 510.174 319.002 510.174ZM319.002 505.901C320.821 505.914 322.333 505.512 323.538 504.697C324.755 503.881 325.665 502.733 326.267 501.252C326.882 499.772 327.189 498.04 327.189 496.058C327.189 494.075 326.882 492.356 326.267 490.9C325.665 489.432 324.755 488.29 323.538 487.475C322.333 486.659 320.821 486.239 319.002 486.214C317.182 486.201 315.67 486.603 314.466 487.418C313.261 488.234 312.351 489.382 311.736 490.863C311.134 492.343 310.833 494.075 310.833 496.058C310.833 498.04 311.134 499.765 311.736 501.234C312.339 502.689 313.242 503.825 314.447 504.64C315.664 505.456 317.182 505.876 319.002 505.901ZM335.735 509.609V482.506H346.935C347.198 482.506 347.537 482.518 347.951 482.543C348.365 482.556 348.748 482.593 349.099 482.656C350.668 482.895 351.96 483.415 352.976 484.218C354.005 485.022 354.765 486.038 355.254 487.268C355.756 488.485 356.007 489.84 356.007 491.333C356.007 493.542 355.448 495.443 354.332 497.036C353.215 498.617 351.502 499.596 349.193 499.972L347.255 500.142H340.272V509.609H335.735ZM351.301 509.609L345.956 498.58L350.567 497.563L356.44 509.609H351.301ZM340.272 495.907H346.746C346.997 495.907 347.28 495.894 347.593 495.869C347.907 495.844 348.196 495.794 348.459 495.719C349.212 495.53 349.802 495.198 350.228 494.721C350.668 494.244 350.975 493.705 351.151 493.102C351.339 492.5 351.433 491.91 351.433 491.333C351.433 490.756 351.339 490.166 351.151 489.564C350.975 488.949 350.668 488.403 350.228 487.926C349.802 487.45 349.212 487.117 348.459 486.929C348.196 486.854 347.907 486.81 347.593 486.797C347.28 486.772 346.997 486.759 346.746 486.759H340.272V495.907Z" fill="#3E1BC9"></path></g><defs><clipPath id="clip0_3762_296"><rect width="664.307" height="858.064" rx="22" fill="white"></rect></clipPath></defs></svg> 