<?xml version="1.0" encoding="UTF-8"?> <svg xmlns="http://www.w3.org/2000/svg" width="665" height="859" viewBox="0 0 665 859" fill="none"><g clip-path="url(#clip0_3762_370)"><rect width="664.307" height="858.064" rx="22" fill="#F9F9F9"></rect><path d="M142.721 80.0234L134.797 52.9197H139.559L144.961 72.4946L150.344 52.9573L155.106 52.9197L160.508 72.4946L165.891 52.9197H170.653L162.748 80.0234H158.268L152.715 60.7497L147.201 80.0234H142.721ZM184.451 80.5881C181.741 80.5881 179.42 79.9983 177.487 78.8188C175.555 77.6268 174.068 75.9704 173.026 73.8498C171.998 71.7292 171.483 69.2698 171.483 66.4716C171.483 63.6734 171.998 61.2139 173.026 59.0933C174.068 56.9727 175.555 55.3226 177.487 54.1431C179.42 52.9511 181.741 52.355 184.451 52.355C187.162 52.355 189.483 52.9511 191.416 54.1431C193.361 55.3226 194.848 56.9727 195.876 59.0933C196.918 61.2139 197.439 63.6734 197.439 66.4716C197.439 69.2698 196.918 71.7292 195.876 73.8498C194.848 75.9704 193.361 77.6268 191.416 78.8188C189.483 79.9983 187.162 80.5881 184.451 80.5881ZM184.451 76.3155C186.271 76.328 187.783 75.9265 188.988 75.1109C190.205 74.2953 191.114 73.1471 191.717 71.6664C192.332 70.1858 192.639 68.4542 192.639 66.4716C192.639 64.489 192.332 62.7699 191.717 61.3143C191.114 59.8462 190.205 58.7043 188.988 57.8887C187.783 57.0731 186.271 56.6527 184.451 56.6276C182.632 56.6151 181.12 57.0166 179.915 57.8322C178.711 58.6479 177.801 59.796 177.186 61.2767C176.584 62.7573 176.283 64.489 176.283 66.4716C176.283 68.4542 176.584 70.1795 177.186 71.6476C177.788 73.1032 178.692 74.2388 179.897 75.0544C181.114 75.87 182.632 76.2904 184.451 76.3155ZM212.102 80.5881C209.944 80.5881 208.043 80.1489 206.399 79.2706C204.768 78.3922 203.488 77.1562 202.559 75.5626C201.643 73.969 201.185 72.0994 201.185 69.9536V52.9573L205.778 52.9197V69.8407C205.778 70.8571 205.947 71.7668 206.286 72.5699C206.637 73.373 207.108 74.0568 207.698 74.6215C208.287 75.1736 208.965 75.594 209.73 75.8826C210.496 76.1712 211.286 76.3155 212.102 76.3155C212.943 76.3155 213.739 76.1712 214.492 75.8826C215.258 75.5814 215.935 75.1548 216.525 74.6027C217.115 74.038 217.579 73.3542 217.918 72.5511C218.257 71.748 218.426 70.8446 218.426 69.8407V52.9197H223.019V69.9536C223.019 72.0994 222.554 73.969 221.626 75.5626C220.71 77.1562 219.43 78.3922 217.786 79.2706C216.155 80.1489 214.26 80.5881 212.102 80.5881ZM228.655 80.0234V52.9197H233.191V75.7697H245.162V80.0234H228.655ZM248.351 80.0234V52.9197H256.99C257.216 52.9197 257.661 52.926 258.326 52.9385C259.004 52.9511 259.656 52.995 260.284 53.0703C262.429 53.3463 264.243 54.1118 265.723 55.3666C267.217 56.6088 268.346 58.1961 269.111 60.1285C269.877 62.0609 270.259 64.1753 270.259 66.4716C270.259 68.7679 269.877 70.8822 269.111 72.8146C268.346 74.747 267.217 76.3406 265.723 77.5954C264.243 78.8376 262.429 79.5968 260.284 79.8729C259.669 79.9481 259.023 79.9921 258.345 80.0046C257.667 80.0172 257.216 80.0234 256.99 80.0234H248.351ZM252.962 75.7508H256.99C257.366 75.7508 257.843 75.7383 258.42 75.7132C259.01 75.6881 259.531 75.6316 259.983 75.5438C261.262 75.3054 262.304 74.7344 263.107 73.831C263.91 72.9275 264.5 71.8296 264.876 70.5371C265.265 69.2447 265.46 67.8895 265.46 66.4716C265.46 65.0034 265.265 63.6232 264.876 62.3307C264.487 61.0383 263.885 59.9529 263.069 59.0745C262.266 58.1961 261.237 57.6378 259.983 57.3993C259.531 57.299 259.01 57.2425 258.42 57.2299C257.843 57.2048 257.366 57.1923 256.99 57.1923H252.962V75.7508ZM288.833 80.0234V68.9184L279.61 52.9197H284.899L291.129 63.7235L297.34 52.9197H302.629L293.425 68.9184V80.0234H288.833ZM315.213 80.5881C312.503 80.5881 310.181 79.9983 308.249 78.8188C306.317 77.6268 304.83 75.9704 303.788 73.8498C302.759 71.7292 302.245 69.2698 302.245 66.4716C302.245 63.6734 302.759 61.2139 303.788 59.0933C304.83 56.9727 306.317 55.3226 308.249 54.1431C310.181 52.9511 312.503 52.355 315.213 52.355C317.924 52.355 320.245 52.9511 322.177 54.1431C324.122 55.3226 325.609 56.9727 326.638 59.0933C327.68 61.2139 328.2 63.6734 328.2 66.4716C328.2 69.2698 327.68 71.7292 326.638 73.8498C325.609 75.9704 324.122 77.6268 322.177 78.8188C320.245 79.9983 317.924 80.5881 315.213 80.5881ZM315.213 76.3155C317.033 76.328 318.545 75.9265 319.749 75.1109C320.966 74.2953 321.876 73.1471 322.478 71.6664C323.093 70.1858 323.401 68.4542 323.401 66.4716C323.401 64.489 323.093 62.7699 322.478 61.3143C321.876 59.8462 320.966 58.7043 319.749 57.8887C318.545 57.0731 317.033 56.6527 315.213 56.6276C313.394 56.6151 311.882 57.0166 310.677 57.8322C309.472 58.6479 308.563 59.796 307.948 61.2767C307.346 62.7573 307.044 64.489 307.044 66.4716C307.044 68.4542 307.346 70.1795 307.948 71.6476C308.55 73.1032 309.454 74.2388 310.658 75.0544C311.875 75.87 313.394 76.2904 315.213 76.3155ZM342.864 80.5881C340.705 80.5881 338.804 80.1489 337.161 79.2706C335.529 78.3922 334.249 77.1562 333.321 75.5626C332.405 73.969 331.947 72.0994 331.947 69.9536V52.9573L336.539 52.9197V69.8407C336.539 70.8571 336.709 71.7668 337.048 72.5699C337.399 73.373 337.87 74.0568 338.459 74.6215C339.049 75.1736 339.727 75.594 340.492 75.8826C341.258 76.1712 342.048 76.3155 342.864 76.3155C343.704 76.3155 344.501 76.1712 345.254 75.8826C346.019 75.5814 346.697 75.1548 347.287 74.6027C347.877 74.038 348.341 73.3542 348.68 72.5511C349.018 71.748 349.188 70.8446 349.188 69.8407V52.9197H353.78V69.9536C353.78 72.0994 353.316 73.969 352.388 75.5626C351.472 77.1562 350.192 78.3922 348.548 79.2706C346.917 80.1489 345.022 80.5881 342.864 80.5881ZM366.576 80.0234V52.9197H377.776C378.039 52.9197 378.378 52.9322 378.792 52.9573C379.206 52.9699 379.589 53.0075 379.94 53.0703C381.509 53.3087 382.801 53.8294 383.817 54.6325C384.846 55.4356 385.606 56.452 386.095 57.6817C386.597 58.8988 386.848 60.254 386.848 61.7472C386.848 63.9557 386.289 65.8567 385.173 67.4503C384.056 69.0314 382.343 70.0101 380.034 70.3866L378.096 70.5559H371.113V80.0234H366.576ZM382.142 80.0234L376.797 68.9937L381.408 67.9773L387.281 80.0234H382.142ZM371.113 66.321H377.587C377.838 66.321 378.121 66.3084 378.434 66.2833C378.748 66.2582 379.037 66.2081 379.3 66.1328C380.053 65.9445 380.643 65.612 381.069 65.1352C381.509 64.6584 381.816 64.1188 381.992 63.5165C382.18 62.9142 382.274 62.3244 382.274 61.7472C382.274 61.17 382.18 60.5803 381.992 59.978C381.816 59.3631 381.509 58.8173 381.069 58.3404C380.643 57.8636 380.053 57.5311 379.3 57.3429C379.037 57.2676 378.748 57.2237 378.434 57.2111C378.121 57.186 377.838 57.1735 377.587 57.1735H371.113V66.321ZM389.545 80.0234L398.09 52.9197H404.735L413.28 80.0234H408.612L400.857 55.7054H401.874L394.213 80.0234H389.545ZM394.307 74.151V69.916H408.537V74.151H394.307ZM420.953 80.0234V57.1735H412.182V52.9197H434.26V57.1735H425.489V80.0234H420.953ZM437.269 80.0234V52.9197H441.806V64.3259H454.642V52.9197H459.159V80.0234H454.642V68.5796H441.806V80.0234H437.269ZM464.436 80.0234V52.9197H481.941V57.1735H468.973V63.8553H479.682V68.1091H468.973V75.7697H481.941V80.0234H464.436ZM486.457 80.0234V52.9197H497.656C497.919 52.9197 498.258 52.9322 498.672 52.9573C499.086 52.9699 499.469 53.0075 499.82 53.0703C501.389 53.3087 502.681 53.8294 503.698 54.6325C504.727 55.4356 505.486 56.452 505.975 57.6817C506.477 58.8988 506.728 60.254 506.728 61.7472C506.728 63.9557 506.17 65.8567 505.053 67.4503C503.936 69.0314 502.223 70.0101 499.915 70.3866L497.976 70.5559H490.993V80.0234H486.457ZM502.023 80.0234L496.677 68.9937L501.289 67.9773L507.161 80.0234H502.023ZM490.993 66.321H497.468C497.719 66.321 498.001 66.3084 498.315 66.2833C498.628 66.2582 498.917 66.2081 499.18 66.1328C499.933 65.9445 500.523 65.612 500.95 65.1352C501.389 64.6584 501.696 64.1188 501.872 63.5165C502.06 62.9142 502.154 62.3244 502.154 61.7472C502.154 61.17 502.06 60.5803 501.872 59.978C501.696 59.3631 501.389 58.8173 500.95 58.3404C500.523 57.8636 499.933 57.5311 499.18 57.3429C498.917 57.2676 498.628 57.2237 498.315 57.2111C498.001 57.186 497.719 57.1735 497.468 57.1735H490.993V66.321ZM516.22 72.664C516.22 71.7982 516.302 70.9638 516.465 70.1607C516.641 69.3451 516.923 68.5922 517.312 67.902C517.651 67.237 518.027 66.71 518.441 66.321C518.855 65.9195 519.32 65.5242 519.834 65.1352C520.349 64.7337 520.919 64.2004 521.547 63.5353C522.061 62.9707 522.4 62.4123 522.563 61.8602C522.726 61.2955 522.808 60.6932 522.808 60.0532C522.808 59.6392 522.764 59.2502 522.676 58.8863C522.588 58.5224 522.432 58.2087 522.206 57.9452C521.854 57.4809 521.403 57.1547 520.85 56.9664C520.298 56.7657 519.709 56.6653 519.081 56.6653C518.567 56.6653 518.071 56.7343 517.594 56.8723C517.13 56.9978 516.735 57.1986 516.408 57.4746C516.032 57.7758 515.756 58.1459 515.58 58.5851C515.405 59.0243 515.323 59.5074 515.336 60.0344H510.555C510.68 58.7796 511.019 57.6189 511.571 56.5523C512.136 55.4732 512.876 54.6137 513.792 53.9737C514.507 53.4467 515.311 53.0514 516.201 52.7879C517.105 52.5244 518.008 52.3927 518.912 52.3927C520.292 52.3927 521.591 52.606 522.808 53.0326C524.038 53.4593 525.06 54.1619 525.876 55.1407C526.441 55.7806 526.867 56.521 527.156 57.3617C527.457 58.2024 527.608 59.0557 527.608 59.9215C527.608 61.2139 527.325 62.3935 526.761 63.46C526.208 64.5266 525.506 65.5116 524.653 66.4151C524.251 66.8417 523.868 67.2182 523.504 67.5444C523.14 67.8707 522.802 68.1906 522.488 68.5043C522.187 68.8055 521.936 69.1255 521.735 69.4643C521.384 70.054 521.177 70.5559 521.114 70.97C521.051 71.3716 521.02 71.9362 521.02 72.664H516.22ZM516.258 80.0234V75.0356H521.02V80.0234H516.258Z" fill="#3E1BC9"></path><rect y="132.861" width="664.307" height="332.154" rx="22.1436" fill="#3E1BC9"></rect><path d="M77.2638 288.758V266.437H80.9994V275.83H91.5707V266.437H95.2908V288.758H91.5707V279.334H80.9994V288.758H77.2638ZM98.0865 288.758L105.124 266.437H110.595L117.633 288.758H113.789L107.402 268.731H108.239L101.931 288.758H98.0865ZM102.008 283.922V280.434H113.727V283.922H102.008ZM123.277 288.758L116.24 266.437H120.084L125.975 285.131L131.942 266.437H135.786L128.749 288.758H123.277ZM138.115 288.758V266.437H152.531V269.94H141.851V275.443H150.671V278.946H141.851V285.255H152.531V288.758H138.115ZM167.819 288.758V269.94H160.596V266.437H178.778V269.94H171.555V288.758H167.819ZM190.696 289.223C188.464 289.223 186.552 288.737 184.961 287.766C183.37 286.784 182.145 285.42 181.287 283.674C180.44 281.927 180.016 279.902 180.016 277.597C180.016 275.293 180.44 273.268 181.287 271.521C182.145 269.775 183.37 268.416 184.961 267.445C186.552 266.463 188.464 265.972 190.696 265.972C192.928 265.972 194.84 266.463 196.431 267.445C198.033 268.416 199.258 269.775 200.105 271.521C200.963 273.268 201.392 275.293 201.392 277.597C201.392 279.902 200.963 281.927 200.105 283.674C199.258 285.42 198.033 286.784 196.431 287.766C194.84 288.737 192.928 289.223 190.696 289.223ZM190.696 285.704C192.195 285.715 193.44 285.384 194.432 284.712C195.434 284.04 196.183 283.095 196.679 281.876C197.186 280.656 197.439 279.23 197.439 277.597C197.439 275.965 197.186 274.549 196.679 273.35C196.183 272.141 195.434 271.201 194.432 270.529C193.44 269.858 192.195 269.511 190.696 269.491C189.198 269.48 187.953 269.811 186.961 270.483C185.969 271.154 185.219 272.1 184.713 273.319C184.217 274.539 183.969 275.965 183.969 277.597C183.969 279.23 184.217 280.651 184.713 281.86C185.209 283.059 185.953 283.994 186.945 284.666C187.947 285.337 189.198 285.684 190.696 285.704ZM210.993 288.758V266.437H214.729V285.255H224.587V288.758H210.993ZM227.523 288.758V266.437H231.259V288.758H227.523ZM240.924 288.758L233.887 266.437H237.731L243.621 285.131L249.589 266.437H253.433L246.396 288.758H240.924ZM255.762 288.758V266.437H270.177V269.94H259.497V275.443H268.317V278.946H259.497V285.255H270.177V288.758H255.762ZM280.412 288.758V266.437H284.148V288.758H280.412ZM288.791 288.758V266.437H292.573L302.928 282.17V266.437H306.71V288.758H302.928L292.573 273.025V288.758H288.791ZM315.699 288.758L322.736 266.437H328.208L335.245 288.758H331.401L325.015 268.731H325.852L319.543 288.758H315.699ZM319.621 283.922V280.434H331.339V283.922H319.621ZM349.617 288.758V269.94H342.394V266.437H360.576V269.94H353.353V288.758H349.617ZM363.054 288.758V266.437H372.277C372.494 266.437 372.773 266.447 373.114 266.468C373.455 266.478 373.77 266.509 374.06 266.561C375.351 266.757 376.416 267.186 377.253 267.848C378.1 268.509 378.725 269.346 379.128 270.359C379.542 271.361 379.748 272.477 379.748 273.707C379.748 275.526 379.289 277.091 378.369 278.403C377.449 279.706 376.039 280.512 374.137 280.822L372.541 280.961H366.79V288.758H363.054ZM375.873 288.758L371.471 279.675L375.269 278.837L380.105 288.758H375.873ZM366.79 277.473H372.122C372.329 277.473 372.561 277.463 372.82 277.442C373.078 277.422 373.316 277.38 373.533 277.318C374.153 277.163 374.638 276.89 374.99 276.497C375.351 276.104 375.605 275.66 375.749 275.164C375.904 274.668 375.982 274.182 375.982 273.707C375.982 273.231 375.904 272.746 375.749 272.25C375.605 271.743 375.351 271.294 374.99 270.901C374.638 270.509 374.153 270.235 373.533 270.08C373.316 270.018 373.078 269.982 372.82 269.971C372.561 269.951 372.329 269.94 372.122 269.94H366.79V277.473ZM383.52 288.758V266.437H397.935V269.94H387.255V275.443H396.075V278.946H387.255V285.255H397.935V288.758H383.52ZM401.654 288.758V266.437H416.07V269.94H405.39V275.443H414.21V278.946H405.39V285.255H416.07V288.758H401.654ZM419.789 288.758V266.437H423.524V275.83H434.096V266.437H437.816V288.758H434.096V279.334H423.524V288.758H419.789ZM451.601 289.223C449.369 289.223 447.457 288.737 445.866 287.766C444.275 286.784 443.05 285.42 442.192 283.674C441.345 281.927 440.921 279.902 440.921 277.597C440.921 275.293 441.345 273.268 442.192 271.521C443.05 269.775 444.275 268.416 445.866 267.445C447.457 266.463 449.369 265.972 451.601 265.972C453.833 265.972 455.745 266.463 457.336 267.445C458.938 268.416 460.163 269.775 461.01 271.521C461.868 273.268 462.297 275.293 462.297 277.597C462.297 279.902 461.868 281.927 461.01 283.674C460.163 285.42 458.938 286.784 457.336 287.766C455.745 288.737 453.833 289.223 451.601 289.223ZM451.601 285.704C453.1 285.715 454.345 285.384 455.337 284.712C456.339 284.04 457.088 283.095 457.584 281.876C458.091 280.656 458.344 279.23 458.344 277.597C458.344 275.965 458.091 274.549 457.584 273.35C457.088 272.141 456.339 271.201 455.337 270.529C454.345 269.858 453.1 269.511 451.601 269.491C450.103 269.48 448.858 269.811 447.866 270.483C446.874 271.154 446.124 272.1 445.618 273.319C445.122 274.539 444.874 275.965 444.874 277.597C444.874 279.23 445.122 280.651 445.618 281.86C446.114 283.059 446.858 283.994 447.85 284.666C448.852 285.337 450.103 285.684 451.601 285.704ZM474.372 289.223C472.595 289.223 471.029 288.861 469.676 288.138C468.332 287.414 467.278 286.397 466.513 285.084C465.759 283.772 465.382 282.232 465.382 280.465V266.468L469.164 266.437V280.372C469.164 281.209 469.304 281.958 469.583 282.62C469.872 283.281 470.259 283.844 470.745 284.309C471.231 284.764 471.789 285.11 472.419 285.348C473.049 285.585 473.7 285.704 474.372 285.704C475.065 285.704 475.721 285.585 476.341 285.348C476.971 285.1 477.529 284.748 478.015 284.294C478.5 283.829 478.883 283.265 479.162 282.604C479.441 281.943 479.58 281.199 479.58 280.372V266.437H483.362V280.465C483.362 282.232 482.98 283.772 482.215 285.084C481.461 286.397 480.407 287.414 479.053 288.138C477.71 288.861 476.15 289.223 474.372 289.223ZM495.017 289.223C493.385 289.223 491.912 288.939 490.6 288.37C489.298 287.802 488.223 286.991 487.376 285.937C486.539 284.872 486.006 283.612 485.779 282.155L489.654 281.566C489.985 282.888 490.662 283.911 491.685 284.635C492.718 285.358 493.907 285.72 495.25 285.72C496.046 285.72 496.795 285.596 497.497 285.348C498.2 285.1 498.769 284.738 499.203 284.263C499.647 283.787 499.869 283.203 499.869 282.511C499.869 282.201 499.817 281.917 499.714 281.659C499.611 281.39 499.456 281.152 499.249 280.946C499.053 280.739 498.794 280.553 498.474 280.388C498.164 280.212 497.802 280.062 497.389 279.938L491.623 278.233C491.127 278.088 490.589 277.897 490.011 277.659C489.442 277.411 488.9 277.076 488.383 276.652C487.877 276.218 487.458 275.67 487.128 275.009C486.807 274.337 486.647 273.51 486.647 272.529C486.647 271.092 487.009 269.889 487.732 268.917C488.466 267.935 489.448 267.202 490.677 266.716C491.917 266.23 493.292 265.993 494.8 266.003C496.33 266.013 497.694 266.277 498.893 266.794C500.091 267.3 501.094 268.039 501.9 269.01C502.706 269.982 503.274 271.154 503.605 272.529L499.59 273.226C499.425 272.441 499.104 271.774 498.629 271.227C498.164 270.669 497.59 270.245 496.908 269.956C496.237 269.666 495.519 269.511 494.754 269.491C494.01 269.48 493.317 269.594 492.677 269.832C492.046 270.059 491.535 270.39 491.142 270.824C490.76 271.258 490.569 271.764 490.569 272.343C490.569 272.89 490.734 273.34 491.065 273.691C491.395 274.032 491.804 274.306 492.289 274.513C492.785 274.709 493.286 274.875 493.793 275.009L497.792 276.125C498.34 276.27 498.955 276.466 499.637 276.714C500.319 276.962 500.975 277.308 501.605 277.752C502.235 278.197 502.752 278.781 503.155 279.504C503.568 280.227 503.775 281.147 503.775 282.263C503.775 283.42 503.532 284.438 503.047 285.317C502.571 286.185 501.925 286.908 501.109 287.487C500.293 288.065 499.358 288.499 498.303 288.789C497.26 289.078 496.164 289.223 495.017 289.223ZM507.13 288.758V266.437H521.546V269.94H510.866V275.443H519.686V278.946H510.866V285.255H521.546V288.758H507.13ZM531.471 288.758V266.437H544.91V270.173H535.207V275.737H543.05V279.458H535.207V288.758H531.471ZM557.138 289.223C554.906 289.223 552.994 288.737 551.403 287.766C549.811 286.784 548.587 285.42 547.729 283.674C546.882 281.927 546.458 279.902 546.458 277.597C546.458 275.293 546.882 273.268 547.729 271.521C548.587 269.775 549.811 268.416 551.403 267.445C552.994 266.463 554.906 265.972 557.138 265.972C559.37 265.972 561.282 266.463 562.873 267.445C564.475 268.416 565.699 269.775 566.547 271.521C567.404 273.268 567.833 275.293 567.833 277.597C567.833 279.902 567.404 281.927 566.547 283.674C565.699 285.42 564.475 286.784 562.873 287.766C561.282 288.737 559.37 289.223 557.138 289.223ZM557.138 285.704C558.636 285.715 559.881 285.384 560.873 284.712C561.876 284.04 562.625 283.095 563.121 281.876C563.627 280.656 563.881 279.23 563.881 277.597C563.881 275.965 563.627 274.549 563.121 273.35C562.625 272.141 561.876 271.201 560.873 270.529C559.881 269.858 558.636 269.511 557.138 269.491C555.639 269.48 554.394 269.811 553.402 270.483C552.41 271.154 551.661 272.1 551.155 273.319C550.659 274.539 550.411 275.965 550.411 277.597C550.411 279.23 550.659 280.651 551.155 281.86C551.651 283.059 552.395 283.994 553.387 284.666C554.389 285.337 555.639 285.684 557.138 285.704ZM570.919 288.758V266.437H580.141C580.358 266.437 580.637 266.447 580.978 266.468C581.319 266.478 581.635 266.509 581.924 266.561C583.216 266.757 584.28 267.186 585.117 267.848C585.964 268.509 586.59 269.346 586.993 270.359C587.406 271.361 587.613 272.477 587.613 273.707C587.613 275.526 587.153 277.091 586.233 278.403C585.313 279.706 583.903 280.512 582.001 280.822L580.405 280.961H574.654V288.758H570.919ZM583.737 288.758L579.335 279.675L583.133 278.837L587.969 288.758H583.737ZM574.654 277.473H579.986C580.193 277.473 580.425 277.463 580.684 277.442C580.942 277.422 581.18 277.38 581.397 277.318C582.017 277.163 582.503 276.89 582.854 276.497C583.216 276.104 583.469 275.66 583.613 275.164C583.768 274.668 583.846 274.182 583.846 273.707C583.846 273.231 583.768 272.746 583.613 272.25C583.469 271.743 583.216 271.294 582.854 270.901C582.503 270.509 582.017 270.235 581.397 270.08C581.18 270.018 580.942 269.982 580.684 269.971C580.425 269.951 580.193 269.94 579.986 269.94H574.654V277.473ZM262.689 331.758L269.726 309.437H275.197L282.235 331.758H278.391L272.004 311.731H272.841L266.533 331.758H262.689ZM266.61 326.922V323.434H278.329V326.922H266.61ZM291.243 331.758V309.437H294.607L302.326 325.248L310.046 309.437H313.409V331.758H309.922V317.451L303.07 331.758H301.582L294.747 317.451V331.758H291.243ZM327.204 332.223C324.972 332.223 323.06 331.737 321.468 330.766C319.877 329.784 318.652 328.42 317.795 326.674C316.947 324.927 316.524 322.902 316.524 320.597C316.524 318.293 316.947 316.268 317.795 314.521C318.652 312.775 319.877 311.416 321.468 310.445C323.06 309.463 324.972 308.972 327.204 308.972C329.436 308.972 331.347 309.463 332.939 310.445C334.541 311.416 335.765 312.775 336.612 314.521C337.47 316.268 337.899 318.293 337.899 320.597C337.899 322.902 337.47 324.927 336.612 326.674C335.765 328.42 334.541 329.784 332.939 330.766C331.347 331.737 329.436 332.223 327.204 332.223ZM327.204 328.704C328.702 328.715 329.947 328.384 330.939 327.712C331.942 327.04 332.691 326.095 333.187 324.876C333.693 323.656 333.946 322.23 333.946 320.597C333.946 318.965 333.693 317.549 333.187 316.35C332.691 315.141 331.942 314.201 330.939 313.529C329.947 312.858 328.702 312.511 327.204 312.491C325.705 312.48 324.46 312.811 323.468 313.483C322.476 314.154 321.727 315.1 321.22 316.319C320.724 317.539 320.476 318.965 320.476 320.597C320.476 322.23 320.724 323.651 321.22 324.86C321.716 326.059 322.46 326.994 323.452 327.666C324.455 328.337 325.705 328.684 327.204 328.704ZM340.984 331.758V309.437H344.766L355.121 325.17V309.437H358.903V331.758H355.121L344.766 316.025V331.758H340.984ZM368.599 331.758V312.94H361.376V309.437H379.558V312.94H372.335V331.758H368.599ZM382.036 331.758V309.437H385.772V318.83H396.343V309.437H400.063V331.758H396.343V322.334H385.772V331.758H382.036Z" fill="white"></path><rect y="525.91" width="664.307" height="332.154" rx="22.1436" fill="#55ACEE"></rect><path d="M70.2252 681.807V659.486H73.5889L81.3081 675.296L89.0274 659.486H92.391V681.807H88.9034V667.5L82.0521 681.807H80.5641L73.7284 667.5V681.807H70.2252ZM105.736 682.272C103.959 682.272 102.393 681.91 101.039 681.187C99.6959 680.463 98.6419 679.445 97.8772 678.133C97.1228 676.821 96.7456 675.281 96.7456 673.514V659.517L100.528 659.486V673.421C100.528 674.258 100.667 675.007 100.946 675.668C101.236 676.33 101.623 676.893 102.109 677.358C102.594 677.813 103.153 678.159 103.783 678.397C104.413 678.634 105.064 678.753 105.736 678.753C106.428 678.753 107.084 678.634 107.704 678.397C108.335 678.149 108.893 677.797 109.379 677.342C109.864 676.877 110.247 676.314 110.526 675.653C110.805 674.992 110.944 674.248 110.944 673.421V659.486H114.726V673.514C114.726 675.281 114.344 676.821 113.579 678.133C112.825 679.445 111.771 680.463 110.417 681.187C109.074 681.91 107.513 682.272 105.736 682.272ZM126.381 682.272C124.748 682.272 123.276 681.987 121.964 681.419C120.661 680.851 119.587 680.04 118.739 678.986C117.902 677.921 117.37 676.66 117.143 675.203L121.018 674.614C121.349 675.937 122.026 676.96 123.049 677.684C124.082 678.407 125.27 678.769 126.614 678.769C127.409 678.769 128.159 678.645 128.861 678.397C129.564 678.149 130.132 677.787 130.566 677.311C131.011 676.836 131.233 676.252 131.233 675.56C131.233 675.25 131.181 674.966 131.078 674.707C130.974 674.439 130.819 674.201 130.613 673.994C130.416 673.788 130.158 673.602 129.838 673.436C129.528 673.261 129.166 673.111 128.753 672.987L122.987 671.282C122.491 671.137 121.953 670.946 121.374 670.708C120.806 670.46 120.264 670.124 119.747 669.701C119.241 669.267 118.822 668.719 118.491 668.058C118.171 667.386 118.011 666.559 118.011 665.578C118.011 664.141 118.373 662.937 119.096 661.966C119.83 660.984 120.811 660.251 122.041 659.765C123.281 659.279 124.655 659.042 126.164 659.052C127.694 659.062 129.058 659.326 130.256 659.842C131.455 660.349 132.457 661.088 133.263 662.059C134.069 663.03 134.638 664.203 134.968 665.578L130.954 666.275C130.788 665.49 130.468 664.823 129.993 664.276C129.528 663.718 128.954 663.294 128.272 663.005C127.601 662.715 126.882 662.56 126.118 662.54C125.374 662.529 124.681 662.643 124.041 662.881C123.41 663.108 122.899 663.439 122.506 663.873C122.124 664.307 121.933 664.813 121.933 665.392C121.933 665.939 122.098 666.389 122.429 666.74C122.759 667.081 123.167 667.355 123.653 667.562C124.149 667.758 124.65 667.923 125.157 668.058L129.156 669.174C129.703 669.318 130.318 669.515 131 669.763C131.682 670.011 132.339 670.357 132.969 670.801C133.599 671.246 134.116 671.829 134.519 672.553C134.932 673.276 135.139 674.196 135.139 675.312C135.139 676.469 134.896 677.487 134.41 678.366C133.935 679.234 133.289 679.957 132.473 680.536C131.656 681.114 130.721 681.548 129.667 681.838C128.624 682.127 127.528 682.272 126.381 682.272ZM143.857 681.807V662.989H136.634V659.486H154.816V662.989H147.593V681.807H143.857ZM157.294 681.807V659.486H161.077L171.431 675.219V659.486H175.213V681.807H171.431L161.077 666.074V681.807H157.294ZM180.011 667.422L180.228 665.81C180.704 665.851 181.081 665.774 181.36 665.578C181.639 665.371 181.825 665.087 181.918 664.725C182.021 664.353 182.047 663.935 181.995 663.47H180.011V659.486H183.84V663.625C183.84 664.978 183.519 666.001 182.879 666.694C182.238 667.386 181.282 667.629 180.011 667.422ZM193.719 681.807V662.989H186.496V659.486H204.678V662.989H197.455V681.807H193.719ZM212.734 681.807V659.486H216.47V678.304H226.328V681.807H212.734ZM228.954 681.807V659.486H243.37V662.989H232.69V668.492H241.509V671.995H232.69V678.304H243.37V681.807H228.954ZM245.538 681.807L252.576 659.486H258.047L265.085 681.807H261.24L254.854 661.78H255.691L249.383 681.807H245.538ZM249.46 676.97V673.483H261.178V676.97H249.46ZM270.729 681.807L263.692 659.486H267.536L273.426 678.18L279.394 659.486H283.238L276.201 681.807H270.729ZM285.567 681.807V659.486H299.983V662.989H289.303V668.492H298.123V671.995H289.303V678.304H299.983V681.807H285.567ZM315.333 681.807V672.661L307.738 659.486H312.093L317.224 668.383L322.339 659.486H326.695L319.115 672.661V681.807H315.333ZM337.058 682.272C334.826 682.272 332.914 681.786 331.323 680.815C329.732 679.833 328.507 678.469 327.649 676.722C326.802 674.976 326.378 672.951 326.378 670.646C326.378 668.342 326.802 666.316 327.649 664.57C328.507 662.824 329.732 661.465 331.323 660.493C332.914 659.512 334.826 659.021 337.058 659.021C339.29 659.021 341.202 659.512 342.793 660.493C344.395 661.465 345.62 662.824 346.467 664.57C347.325 666.316 347.754 668.342 347.754 670.646C347.754 672.951 347.325 674.976 346.467 676.722C345.62 678.469 344.395 679.833 342.793 680.815C341.202 681.786 339.29 682.272 337.058 682.272ZM337.058 678.753C338.557 678.763 339.802 678.433 340.794 677.761C341.796 677.089 342.545 676.144 343.041 674.924C343.548 673.705 343.801 672.279 343.801 670.646C343.801 669.014 343.548 667.598 343.041 666.399C342.545 665.19 341.796 664.25 340.794 663.578C339.802 662.906 338.557 662.56 337.058 662.54C335.56 662.529 334.315 662.86 333.323 663.532C332.331 664.203 331.581 665.149 331.075 666.368C330.579 667.588 330.331 669.014 330.331 670.646C330.331 672.279 330.579 673.7 331.075 674.909C331.571 676.108 332.315 677.043 333.307 677.715C334.309 678.386 335.56 678.732 337.058 678.753ZM359.829 682.272C358.052 682.272 356.486 681.91 355.133 681.187C353.789 680.463 352.735 679.445 351.97 678.133C351.216 676.821 350.839 675.281 350.839 673.514V659.517L354.621 659.486V673.421C354.621 674.258 354.761 675.007 355.04 675.668C355.329 676.33 355.716 676.893 356.202 677.358C356.688 677.813 357.246 678.159 357.876 678.397C358.506 678.634 359.157 678.753 359.829 678.753C360.522 678.753 361.178 678.634 361.798 678.397C362.428 678.149 362.986 677.797 363.472 677.342C363.957 676.877 364.34 676.314 364.619 675.653C364.898 674.992 365.037 674.248 365.037 673.421V659.486H368.819V673.514C368.819 675.281 368.437 676.821 367.672 678.133C366.918 679.445 365.864 680.463 364.51 681.187C363.167 681.91 361.607 682.272 359.829 682.272ZM373.151 681.807V659.486H382.374C382.591 659.486 382.87 659.496 383.211 659.517C383.552 659.527 383.867 659.558 384.157 659.61C385.448 659.806 386.513 660.235 387.35 660.896C388.197 661.558 388.822 662.395 389.225 663.408C389.639 664.41 389.845 665.526 389.845 666.756C389.845 668.574 389.385 670.14 388.466 671.452C387.546 672.754 386.135 673.56 384.234 673.87L382.637 674.01H376.887V681.807H373.151ZM385.97 681.807L381.568 672.723L385.366 671.886L390.202 681.807H385.97ZM376.887 670.522H382.219C382.426 670.522 382.658 670.512 382.916 670.491C383.175 670.471 383.412 670.429 383.629 670.367C384.25 670.212 384.735 669.938 385.087 669.546C385.448 669.153 385.701 668.709 385.846 668.213C386.001 667.717 386.079 667.231 386.079 666.756C386.079 666.28 386.001 665.795 385.846 665.299C385.701 664.792 385.448 664.343 385.087 663.95C384.735 663.557 384.25 663.284 383.629 663.129C383.412 663.067 383.175 663.03 382.916 663.02C382.658 662.999 382.426 662.989 382.219 662.989H376.887V670.522ZM399.823 681.807V659.486H403.559V668.879H414.13V659.486H417.85V681.807H414.13V672.382H403.559V681.807H399.823ZM431.636 682.272C429.403 682.272 427.492 681.786 425.9 680.815C424.309 679.833 423.084 678.469 422.227 676.722C421.379 674.976 420.956 672.951 420.956 670.646C420.956 668.342 421.379 666.316 422.227 664.57C423.084 662.824 424.309 661.465 425.9 660.493C427.492 659.512 429.403 659.021 431.636 659.021C433.868 659.021 435.779 659.512 437.371 660.493C438.972 661.465 440.197 662.824 441.044 664.57C441.902 666.316 442.331 668.342 442.331 670.646C442.331 672.951 441.902 674.976 441.044 676.722C440.197 678.469 438.972 679.833 437.371 680.815C435.779 681.786 433.868 682.272 431.636 682.272ZM431.636 678.753C433.134 678.763 434.379 678.433 435.371 677.761C436.374 677.089 437.123 676.144 437.619 674.924C438.125 673.705 438.378 672.279 438.378 670.646C438.378 669.014 438.125 667.598 437.619 666.399C437.123 665.19 436.374 664.25 435.371 663.578C434.379 662.906 433.134 662.56 431.636 662.54C430.137 662.529 428.892 662.86 427.9 663.532C426.908 664.203 426.159 665.149 425.652 666.368C425.156 667.588 424.908 669.014 424.908 670.646C424.908 672.279 425.156 673.7 425.652 674.909C426.148 676.108 426.892 677.043 427.884 677.715C428.887 678.386 430.137 678.732 431.636 678.753ZM454.406 682.272C452.629 682.272 451.064 681.91 449.71 681.187C448.366 680.463 447.312 679.445 446.548 678.133C445.793 676.821 445.416 675.281 445.416 673.514V659.517L449.198 659.486V673.421C449.198 674.258 449.338 675.007 449.617 675.668C449.906 676.33 450.294 676.893 450.779 677.358C451.265 677.813 451.823 678.159 452.453 678.397C453.084 678.634 453.735 678.753 454.406 678.753C455.099 678.753 455.755 678.634 456.375 678.397C457.005 678.149 457.563 677.797 458.049 677.342C458.535 676.877 458.917 676.314 459.196 675.653C459.475 674.992 459.615 674.248 459.615 673.421V659.486H463.397V673.514C463.397 675.281 463.014 676.821 462.25 678.133C461.495 679.445 460.441 680.463 459.088 681.187C457.744 681.91 456.184 682.272 454.406 682.272ZM475.052 682.272C473.419 682.272 471.946 681.987 470.634 681.419C469.332 680.851 468.257 680.04 467.41 678.986C466.573 677.921 466.041 676.66 465.813 675.203L469.689 674.614C470.019 675.937 470.696 676.96 471.719 677.684C472.752 678.407 473.941 678.769 475.284 678.769C476.08 678.769 476.829 678.645 477.532 678.397C478.234 678.149 478.803 677.787 479.237 677.311C479.681 676.836 479.903 676.252 479.903 675.56C479.903 675.25 479.852 674.966 479.748 674.707C479.645 674.439 479.49 674.201 479.283 673.994C479.087 673.788 478.829 673.602 478.508 673.436C478.198 673.261 477.837 673.111 477.423 672.987L471.657 671.282C471.161 671.137 470.624 670.946 470.045 670.708C469.477 670.46 468.934 670.124 468.417 669.701C467.911 669.267 467.493 668.719 467.162 668.058C466.842 667.386 466.681 666.559 466.681 665.578C466.681 664.141 467.043 662.937 467.766 661.966C468.5 660.984 469.482 660.251 470.712 659.765C471.952 659.279 473.326 659.042 474.835 659.052C476.364 659.062 477.728 659.326 478.927 659.842C480.126 660.349 481.128 661.088 481.934 662.059C482.74 663.03 483.308 664.203 483.639 665.578L479.624 666.275C479.459 665.49 479.139 664.823 478.663 664.276C478.198 663.718 477.625 663.294 476.943 663.005C476.271 662.715 475.553 662.56 474.788 662.54C474.044 662.529 473.352 662.643 472.711 662.881C472.081 663.108 471.569 663.439 471.177 663.873C470.794 664.307 470.603 664.813 470.603 665.392C470.603 665.939 470.768 666.389 471.099 666.74C471.43 667.081 471.838 667.355 472.324 667.562C472.82 667.758 473.321 667.923 473.827 668.058L477.826 669.174C478.374 669.318 478.989 669.515 479.671 669.763C480.353 670.011 481.009 670.357 481.639 670.801C482.27 671.246 482.786 671.829 483.189 672.553C483.603 673.276 483.809 674.196 483.809 675.312C483.809 676.469 483.567 677.487 483.081 678.366C482.606 679.234 481.96 679.957 481.143 680.536C480.327 681.114 479.392 681.548 478.338 681.838C477.294 682.127 476.199 682.272 475.052 682.272ZM487.165 681.807V659.486H501.58V662.989H490.9V668.492H499.72V671.995H490.9V678.304H501.58V681.807H487.165ZM511.505 681.807V659.486H524.944V663.222H515.241V668.786H523.084V672.506H515.241V681.807H511.505ZM537.172 682.272C534.94 682.272 533.028 681.786 531.437 680.815C529.846 679.833 528.621 678.469 527.763 676.722C526.916 674.976 526.492 672.951 526.492 670.646C526.492 668.342 526.916 666.316 527.763 664.57C528.621 662.824 529.846 661.465 531.437 660.493C533.028 659.512 534.94 659.021 537.172 659.021C539.404 659.021 541.316 659.512 542.907 660.493C544.509 661.465 545.734 662.824 546.581 664.57C547.439 666.316 547.868 668.342 547.868 670.646C547.868 672.951 547.439 674.976 546.581 676.722C545.734 678.469 544.509 679.833 542.907 680.815C541.316 681.786 539.404 682.272 537.172 682.272ZM537.172 678.753C538.671 678.763 539.916 678.433 540.908 677.761C541.91 677.089 542.659 676.144 543.155 674.924C543.662 673.705 543.915 672.279 543.915 670.646C543.915 669.014 543.662 667.598 543.155 666.399C542.659 665.19 541.91 664.25 540.908 663.578C539.916 662.906 538.671 662.56 537.172 662.54C535.674 662.529 534.429 662.86 533.437 663.532C532.445 664.203 531.695 665.149 531.189 666.368C530.693 667.588 530.445 669.014 530.445 670.646C530.445 672.279 530.693 673.7 531.189 674.909C531.685 676.108 532.429 677.043 533.421 677.715C534.423 678.386 535.674 678.732 537.172 678.753ZM550.953 681.807V659.486H560.176C560.393 659.486 560.672 659.496 561.013 659.517C561.354 659.527 561.669 659.558 561.958 659.61C563.25 659.806 564.314 660.235 565.151 660.896C565.999 661.558 566.624 662.395 567.027 663.408C567.44 664.41 567.647 665.526 567.647 666.756C567.647 668.574 567.187 670.14 566.267 671.452C565.348 672.754 563.937 673.56 562.036 673.87L560.439 674.01H554.688V681.807H550.953ZM563.772 681.807L559.37 672.723L563.167 671.886L568.003 681.807H563.772ZM554.688 670.522H560.021C560.227 670.522 560.46 670.512 560.718 670.491C560.976 670.471 561.214 670.429 561.431 670.367C562.051 670.212 562.537 669.938 562.888 669.546C563.25 669.153 563.503 668.709 563.648 668.213C563.803 667.717 563.88 667.231 563.88 666.756C563.88 666.28 563.803 665.795 563.648 665.299C563.503 664.792 563.25 664.343 562.888 663.95C562.537 663.557 562.051 663.284 561.431 663.129C561.214 663.067 560.976 663.03 560.718 663.02C560.46 662.999 560.227 662.989 560.021 662.989H554.688V670.522ZM576.075 681.807L583.112 659.486H588.583L595.621 681.807H591.777L585.39 661.78H586.227L579.919 681.807H576.075ZM579.996 676.97V673.483H591.715V676.97H579.996ZM237.39 724.807L230.864 702.486H234.786L239.235 718.606L243.668 702.517L247.589 702.486L252.038 718.606L256.471 702.486H260.393L253.882 724.807H250.193L245.621 708.934L241.079 724.807H237.39ZM262.922 724.807V702.486H266.658V711.879H277.229V702.486H280.949V724.807H277.229V715.382H266.658V724.807H262.922ZM294.735 725.272C292.503 725.272 290.591 724.786 288.999 723.815C287.408 722.833 286.183 721.469 285.326 719.722C284.478 717.976 284.055 715.951 284.055 713.646C284.055 711.342 284.478 709.316 285.326 707.57C286.183 705.824 287.408 704.465 288.999 703.493C290.591 702.512 292.503 702.021 294.735 702.021C296.967 702.021 298.878 702.512 300.47 703.493C302.071 704.465 303.296 705.824 304.143 707.57C305.001 709.316 305.43 711.342 305.43 713.646C305.43 715.951 305.001 717.976 304.143 719.722C303.296 721.469 302.071 722.833 300.47 723.815C298.878 724.786 296.967 725.272 294.735 725.272ZM294.735 721.753C296.233 721.763 297.478 721.433 298.47 720.761C299.473 720.089 300.222 719.144 300.718 717.924C301.224 716.705 301.477 715.279 301.477 713.646C301.477 712.014 301.224 710.598 300.718 709.399C300.222 708.19 299.473 707.25 298.47 706.578C297.478 705.906 296.233 705.56 294.735 705.54C293.236 705.529 291.991 705.86 290.999 706.532C290.007 707.203 289.258 708.149 288.751 709.368C288.255 710.588 288.007 712.014 288.007 713.646C288.007 715.279 288.255 716.7 288.751 717.909C289.247 719.108 289.991 720.043 290.983 720.715C291.986 721.386 293.236 721.732 294.735 721.753ZM308.825 724.807V702.486H312.561V721.304H322.419V724.807H308.825ZM325.045 724.807V702.486H339.461V705.989H328.781V711.492H337.6V714.995H328.781V721.304H339.461V724.807H325.045ZM354.098 724.807L347.572 702.486H351.494L355.942 718.606L360.376 702.517L364.297 702.486L368.746 718.606L373.179 702.486H377.101L370.59 724.807H366.901L362.329 708.934L357.787 724.807H354.098ZM379.63 724.807V702.486H394.045V705.989H383.365V711.492H392.185V714.995H383.365V721.304H394.045V724.807H379.63ZM397.764 724.807V702.486H412.18V705.989H401.5V711.492H410.32V714.995H401.5V721.304H412.18V724.807H397.764ZM415.899 724.807V702.486H419.634V712.84L428.547 702.486H433.135L423.54 713.429L433.786 724.807H429.043L419.634 714.39V724.807H415.899Z" fill="white"></path><circle cx="332.153" cy="496.017" r="66.4307" fill="#F9F9F9"></circle><path d="M319.002 510.172C316.291 510.172 313.97 509.582 312.038 508.403C310.105 507.211 308.618 505.554 307.577 503.434C306.548 501.313 306.033 498.854 306.033 496.056C306.033 493.257 306.548 490.798 307.577 488.677C308.618 486.557 310.105 484.907 312.038 483.727C313.97 482.535 316.291 481.939 319.002 481.939C321.712 481.939 324.034 482.535 325.966 483.727C327.911 484.907 329.398 486.557 330.427 488.677C331.468 490.798 331.989 493.257 331.989 496.056C331.989 498.854 331.468 501.313 330.427 503.434C329.398 505.554 327.911 507.211 325.966 508.403C324.034 509.582 321.712 510.172 319.002 510.172ZM319.002 505.899C320.821 505.912 322.333 505.51 323.538 504.695C324.755 503.879 325.665 502.731 326.267 501.25C326.882 499.77 327.189 498.038 327.189 496.056C327.189 494.073 326.882 492.354 326.267 490.898C325.665 489.43 324.755 488.288 323.538 487.473C322.333 486.657 320.821 486.237 319.002 486.212C317.182 486.199 315.67 486.601 314.466 487.416C313.261 488.232 312.351 489.38 311.736 490.861C311.134 492.341 310.833 494.073 310.833 496.056C310.833 498.038 311.134 499.763 311.736 501.232C312.339 502.687 313.242 503.823 314.447 504.638C315.664 505.454 317.182 505.874 319.002 505.899ZM335.735 509.607V482.504H346.935C347.198 482.504 347.537 482.516 347.951 482.541C348.365 482.554 348.748 482.592 349.099 482.654C350.668 482.893 351.96 483.413 352.976 484.216C354.005 485.02 354.765 486.036 355.254 487.266C355.756 488.483 356.007 489.838 356.007 491.331C356.007 493.54 355.448 495.441 354.332 497.034C353.215 498.615 351.502 499.594 349.193 499.971L347.255 500.14H340.272V509.607H335.735ZM351.301 509.607L345.956 498.578L350.567 497.561L356.44 509.607H351.301ZM340.272 495.905H346.746C346.997 495.905 347.28 495.892 347.593 495.867C347.907 495.842 348.196 495.792 348.459 495.717C349.212 495.529 349.802 495.196 350.228 494.719C350.668 494.242 350.975 493.703 351.151 493.1C351.339 492.498 351.433 491.908 351.433 491.331C351.433 490.754 351.339 490.164 351.151 489.562C350.975 488.947 350.668 488.401 350.228 487.924C349.802 487.448 349.212 487.115 348.459 486.927C348.196 486.852 347.907 486.808 347.593 486.795C347.28 486.77 346.997 486.757 346.746 486.757H340.272V495.905Z" fill="#3E1BC9"></path></g><defs><clipPath id="clip0_3762_370"><rect width="664.307" height="858.064" rx="22" fill="white"></rect></clipPath></defs></svg> 