<?xml version="1.0" encoding="UTF-8"?> <svg xmlns="http://www.w3.org/2000/svg" width="665" height="859" viewBox="0 0 665 859" fill="none"><g clip-path="url(#clip0_3762_392)"><rect width="664.307" height="858.064" rx="22" fill="#F9F9F9"></rect><path d="M142.721 80.0234L134.797 52.9197H139.559L144.961 72.4946L150.344 52.9573L155.106 52.9197L160.508 72.4946L165.891 52.9197H170.653L162.748 80.0234H158.268L152.715 60.7497L147.201 80.0234H142.721ZM184.451 80.5881C181.741 80.5881 179.42 79.9983 177.487 78.8188C175.555 77.6268 174.068 75.9704 173.026 73.8498C171.998 71.7292 171.483 69.2698 171.483 66.4716C171.483 63.6734 171.998 61.2139 173.026 59.0933C174.068 56.9727 175.555 55.3226 177.487 54.1431C179.42 52.9511 181.741 52.355 184.451 52.355C187.162 52.355 189.483 52.9511 191.416 54.1431C193.361 55.3226 194.848 56.9727 195.876 59.0933C196.918 61.2139 197.439 63.6734 197.439 66.4716C197.439 69.2698 196.918 71.7292 195.876 73.8498C194.848 75.9704 193.361 77.6268 191.416 78.8188C189.483 79.9983 187.162 80.5881 184.451 80.5881ZM184.451 76.3155C186.271 76.328 187.783 75.9265 188.988 75.1109C190.205 74.2953 191.114 73.1471 191.717 71.6664C192.332 70.1858 192.639 68.4542 192.639 66.4716C192.639 64.489 192.332 62.7699 191.717 61.3143C191.114 59.8462 190.205 58.7043 188.988 57.8887C187.783 57.0731 186.271 56.6527 184.451 56.6276C182.632 56.6151 181.12 57.0166 179.915 57.8322C178.711 58.6479 177.801 59.796 177.186 61.2767C176.584 62.7573 176.283 64.489 176.283 66.4716C176.283 68.4542 176.584 70.1795 177.186 71.6476C177.788 73.1032 178.692 74.2388 179.897 75.0544C181.114 75.87 182.632 76.2904 184.451 76.3155ZM212.102 80.5881C209.944 80.5881 208.043 80.1489 206.399 79.2706C204.768 78.3922 203.488 77.1562 202.559 75.5626C201.643 73.969 201.185 72.0994 201.185 69.9536V52.9573L205.778 52.9197V69.8407C205.778 70.8571 205.947 71.7668 206.286 72.5699C206.637 73.373 207.108 74.0568 207.698 74.6215C208.287 75.1736 208.965 75.594 209.73 75.8826C210.496 76.1712 211.286 76.3155 212.102 76.3155C212.943 76.3155 213.739 76.1712 214.492 75.8826C215.258 75.5814 215.935 75.1548 216.525 74.6027C217.115 74.038 217.579 73.3542 217.918 72.5511C218.257 71.748 218.426 70.8446 218.426 69.8407V52.9197H223.019V69.9536C223.019 72.0994 222.554 73.969 221.626 75.5626C220.71 77.1562 219.43 78.3922 217.786 79.2706C216.155 80.1489 214.26 80.5881 212.102 80.5881ZM228.655 80.0234V52.9197H233.191V75.7697H245.162V80.0234H228.655ZM248.351 80.0234V52.9197H256.99C257.216 52.9197 257.661 52.926 258.326 52.9385C259.004 52.9511 259.656 52.995 260.284 53.0703C262.429 53.3463 264.243 54.1118 265.723 55.3666C267.217 56.6088 268.346 58.1961 269.111 60.1285C269.877 62.0609 270.259 64.1753 270.259 66.4716C270.259 68.7679 269.877 70.8822 269.111 72.8146C268.346 74.747 267.217 76.3406 265.723 77.5954C264.243 78.8376 262.429 79.5968 260.284 79.8729C259.669 79.9481 259.023 79.9921 258.345 80.0046C257.667 80.0172 257.216 80.0234 256.99 80.0234H248.351ZM252.962 75.7508H256.99C257.366 75.7508 257.843 75.7383 258.42 75.7132C259.01 75.6881 259.531 75.6316 259.983 75.5438C261.262 75.3054 262.304 74.7344 263.107 73.831C263.91 72.9275 264.5 71.8296 264.876 70.5371C265.265 69.2447 265.46 67.8895 265.46 66.4716C265.46 65.0034 265.265 63.6232 264.876 62.3307C264.487 61.0383 263.885 59.9529 263.069 59.0745C262.266 58.1961 261.237 57.6378 259.983 57.3993C259.531 57.299 259.01 57.2425 258.42 57.2299C257.843 57.2048 257.366 57.1923 256.99 57.1923H252.962V75.7508ZM288.833 80.0234V68.9184L279.61 52.9197H284.899L291.129 63.7235L297.34 52.9197H302.629L293.425 68.9184V80.0234H288.833ZM315.213 80.5881C312.503 80.5881 310.181 79.9983 308.249 78.8188C306.317 77.6268 304.83 75.9704 303.788 73.8498C302.759 71.7292 302.245 69.2698 302.245 66.4716C302.245 63.6734 302.759 61.2139 303.788 59.0933C304.83 56.9727 306.317 55.3226 308.249 54.1431C310.181 52.9511 312.503 52.355 315.213 52.355C317.924 52.355 320.245 52.9511 322.177 54.1431C324.122 55.3226 325.609 56.9727 326.638 59.0933C327.68 61.2139 328.2 63.6734 328.2 66.4716C328.2 69.2698 327.68 71.7292 326.638 73.8498C325.609 75.9704 324.122 77.6268 322.177 78.8188C320.245 79.9983 317.924 80.5881 315.213 80.5881ZM315.213 76.3155C317.033 76.328 318.545 75.9265 319.749 75.1109C320.966 74.2953 321.876 73.1471 322.478 71.6664C323.093 70.1858 323.401 68.4542 323.401 66.4716C323.401 64.489 323.093 62.7699 322.478 61.3143C321.876 59.8462 320.966 58.7043 319.749 57.8887C318.545 57.0731 317.033 56.6527 315.213 56.6276C313.394 56.6151 311.882 57.0166 310.677 57.8322C309.472 58.6479 308.563 59.796 307.948 61.2767C307.346 62.7573 307.044 64.489 307.044 66.4716C307.044 68.4542 307.346 70.1795 307.948 71.6476C308.55 73.1032 309.454 74.2388 310.658 75.0544C311.875 75.87 313.394 76.2904 315.213 76.3155ZM342.864 80.5881C340.705 80.5881 338.804 80.1489 337.161 79.2706C335.529 78.3922 334.249 77.1562 333.321 75.5626C332.405 73.969 331.947 72.0994 331.947 69.9536V52.9573L336.539 52.9197V69.8407C336.539 70.8571 336.709 71.7668 337.048 72.5699C337.399 73.373 337.87 74.0568 338.459 74.6215C339.049 75.1736 339.727 75.594 340.492 75.8826C341.258 76.1712 342.048 76.3155 342.864 76.3155C343.704 76.3155 344.501 76.1712 345.254 75.8826C346.019 75.5814 346.697 75.1548 347.287 74.6027C347.877 74.038 348.341 73.3542 348.68 72.5511C349.018 71.748 349.188 70.8446 349.188 69.8407V52.9197H353.78V69.9536C353.78 72.0994 353.316 73.969 352.388 75.5626C351.472 77.1562 350.192 78.3922 348.548 79.2706C346.917 80.1489 345.022 80.5881 342.864 80.5881ZM366.576 80.0234V52.9197H377.776C378.039 52.9197 378.378 52.9322 378.792 52.9573C379.206 52.9699 379.589 53.0075 379.94 53.0703C381.509 53.3087 382.801 53.8294 383.817 54.6325C384.846 55.4356 385.606 56.452 386.095 57.6817C386.597 58.8988 386.848 60.254 386.848 61.7472C386.848 63.9557 386.289 65.8567 385.173 67.4503C384.056 69.0314 382.343 70.0101 380.034 70.3866L378.096 70.5559H371.113V80.0234H366.576ZM382.142 80.0234L376.797 68.9937L381.408 67.9773L387.281 80.0234H382.142ZM371.113 66.321H377.587C377.838 66.321 378.121 66.3084 378.434 66.2833C378.748 66.2582 379.037 66.2081 379.3 66.1328C380.053 65.9445 380.643 65.612 381.069 65.1352C381.509 64.6584 381.816 64.1188 381.992 63.5165C382.18 62.9142 382.274 62.3244 382.274 61.7472C382.274 61.17 382.18 60.5803 381.992 59.978C381.816 59.3631 381.509 58.8173 381.069 58.3404C380.643 57.8636 380.053 57.5311 379.3 57.3429C379.037 57.2676 378.748 57.2237 378.434 57.2111C378.121 57.186 377.838 57.1735 377.587 57.1735H371.113V66.321ZM389.545 80.0234L398.09 52.9197H404.735L413.28 80.0234H408.612L400.857 55.7054H401.874L394.213 80.0234H389.545ZM394.307 74.151V69.916H408.537V74.151H394.307ZM420.953 80.0234V57.1735H412.182V52.9197H434.26V57.1735H425.489V80.0234H420.953ZM437.269 80.0234V52.9197H441.806V64.3259H454.642V52.9197H459.159V80.0234H454.642V68.5796H441.806V80.0234H437.269ZM464.436 80.0234V52.9197H481.941V57.1735H468.973V63.8553H479.682V68.1091H468.973V75.7697H481.941V80.0234H464.436ZM486.457 80.0234V52.9197H497.656C497.919 52.9197 498.258 52.9322 498.672 52.9573C499.086 52.9699 499.469 53.0075 499.82 53.0703C501.389 53.3087 502.681 53.8294 503.698 54.6325C504.727 55.4356 505.486 56.452 505.975 57.6817C506.477 58.8988 506.728 60.254 506.728 61.7472C506.728 63.9557 506.17 65.8567 505.053 67.4503C503.936 69.0314 502.223 70.0101 499.915 70.3866L497.976 70.5559H490.993V80.0234H486.457ZM502.023 80.0234L496.677 68.9937L501.289 67.9773L507.161 80.0234H502.023ZM490.993 66.321H497.468C497.719 66.321 498.001 66.3084 498.315 66.2833C498.628 66.2582 498.917 66.2081 499.18 66.1328C499.933 65.9445 500.523 65.612 500.95 65.1352C501.389 64.6584 501.696 64.1188 501.872 63.5165C502.06 62.9142 502.154 62.3244 502.154 61.7472C502.154 61.17 502.06 60.5803 501.872 59.978C501.696 59.3631 501.389 58.8173 500.95 58.3404C500.523 57.8636 499.933 57.5311 499.18 57.3429C498.917 57.2676 498.628 57.2237 498.315 57.2111C498.001 57.186 497.719 57.1735 497.468 57.1735H490.993V66.321ZM516.22 72.664C516.22 71.7982 516.302 70.9638 516.465 70.1607C516.641 69.3451 516.923 68.5922 517.312 67.902C517.651 67.237 518.027 66.71 518.441 66.321C518.855 65.9195 519.32 65.5242 519.834 65.1352C520.349 64.7337 520.919 64.2004 521.547 63.5353C522.061 62.9707 522.4 62.4123 522.563 61.8602C522.726 61.2955 522.808 60.6932 522.808 60.0532C522.808 59.6392 522.764 59.2502 522.676 58.8863C522.588 58.5224 522.432 58.2087 522.206 57.9452C521.854 57.4809 521.403 57.1547 520.85 56.9664C520.298 56.7657 519.709 56.6653 519.081 56.6653C518.567 56.6653 518.071 56.7343 517.594 56.8723C517.13 56.9978 516.735 57.1986 516.408 57.4746C516.032 57.7758 515.756 58.1459 515.58 58.5851C515.405 59.0243 515.323 59.5074 515.336 60.0344H510.555C510.68 58.7796 511.019 57.6189 511.571 56.5523C512.136 55.4732 512.876 54.6137 513.792 53.9737C514.507 53.4467 515.311 53.0514 516.201 52.7879C517.105 52.5244 518.008 52.3927 518.912 52.3927C520.292 52.3927 521.591 52.606 522.808 53.0326C524.038 53.4593 525.06 54.1619 525.876 55.1407C526.441 55.7806 526.867 56.521 527.156 57.3617C527.457 58.2024 527.608 59.0557 527.608 59.9215C527.608 61.2139 527.325 62.3935 526.761 63.46C526.208 64.5266 525.506 65.5116 524.653 66.4151C524.251 66.8417 523.868 67.2182 523.504 67.5444C523.14 67.8707 522.802 68.1906 522.488 68.5043C522.187 68.8055 521.936 69.1255 521.735 69.4643C521.384 70.054 521.177 70.5559 521.114 70.97C521.051 71.3716 521.02 71.9362 521.02 72.664H516.22ZM516.258 80.0234V75.0356H521.02V80.0234H516.258Z" fill="#3E1BC9"></path><rect y="132.861" width="664.307" height="332.154" rx="22.1436" fill="#3E1BC9"></rect><path d="M110.187 288.758V266.437H113.551L121.27 282.248L128.989 266.437H132.353V288.758H128.865V274.451L122.014 288.758H120.526L113.69 274.451V288.758H110.187ZM145.698 289.223C143.921 289.223 142.355 288.861 141.001 288.138C139.658 287.414 138.604 286.397 137.839 285.084C137.085 283.772 136.708 282.232 136.708 280.465V266.468L140.49 266.437V280.372C140.49 281.209 140.629 281.958 140.908 282.62C141.198 283.281 141.585 283.844 142.071 284.309C142.556 284.764 143.114 285.11 143.745 285.348C144.375 285.585 145.026 285.704 145.698 285.704C146.39 285.704 147.046 285.585 147.666 285.348C148.297 285.1 148.855 284.748 149.341 284.294C149.826 283.829 150.209 283.265 150.488 282.604C150.767 281.943 150.906 281.199 150.906 280.372V266.437H154.688V280.465C154.688 282.232 154.306 283.772 153.541 285.084C152.787 286.397 151.733 287.414 150.379 288.138C149.036 288.861 147.475 289.223 145.698 289.223ZM166.343 289.223C164.71 289.223 163.238 288.939 161.925 288.37C160.623 287.802 159.549 286.991 158.701 285.937C157.864 284.872 157.332 283.612 157.105 282.155L160.98 281.566C161.311 282.888 161.987 283.911 163.011 284.635C164.044 285.358 165.232 285.72 166.576 285.72C167.371 285.72 168.121 285.596 168.823 285.348C169.526 285.1 170.094 284.738 170.528 284.263C170.973 283.787 171.195 283.203 171.195 282.511C171.195 282.201 171.143 281.917 171.04 281.659C170.936 281.39 170.781 281.152 170.575 280.946C170.378 280.739 170.12 280.553 169.8 280.388C169.49 280.212 169.128 280.062 168.715 279.938L162.949 278.233C162.452 278.088 161.915 277.897 161.336 277.659C160.768 277.411 160.226 277.076 159.709 276.652C159.203 276.218 158.784 275.67 158.453 275.009C158.133 274.337 157.973 273.51 157.973 272.529C157.973 271.092 158.335 269.889 159.058 268.917C159.792 267.935 160.773 267.202 162.003 266.716C163.243 266.23 164.617 265.993 166.126 266.003C167.655 266.013 169.02 266.277 170.218 266.794C171.417 267.3 172.419 268.039 173.225 269.01C174.031 269.982 174.6 271.154 174.93 272.529L170.916 273.226C170.75 272.441 170.43 271.774 169.955 271.227C169.49 270.669 168.916 270.245 168.234 269.956C167.562 269.666 166.844 269.511 166.08 269.491C165.336 269.48 164.643 269.594 164.003 269.832C163.372 270.059 162.861 270.39 162.468 270.824C162.086 271.258 161.894 271.764 161.894 272.343C161.894 272.89 162.06 273.34 162.39 273.691C162.721 274.032 163.129 274.306 163.615 274.513C164.111 274.709 164.612 274.875 165.119 275.009L169.118 276.125C169.665 276.27 170.28 276.466 170.962 276.714C171.644 276.962 172.3 277.308 172.931 277.752C173.561 278.197 174.078 278.781 174.481 279.504C174.894 280.227 175.101 281.147 175.101 282.263C175.101 283.42 174.858 284.438 174.372 285.317C173.897 286.185 173.251 286.908 172.435 287.487C171.618 288.065 170.683 288.499 169.629 288.789C168.586 289.078 167.49 289.223 166.343 289.223ZM183.819 288.758V269.94H176.596V266.437H194.778V269.94H187.555V288.758H183.819ZM211.964 289.223C209.732 289.223 207.82 288.737 206.229 287.766C204.637 286.784 203.413 285.42 202.555 283.674C201.708 281.927 201.284 279.902 201.284 277.597C201.284 275.293 201.708 273.268 202.555 271.521C203.413 269.775 204.637 268.416 206.229 267.445C207.82 266.463 209.732 265.972 211.964 265.972C214.196 265.972 216.108 266.463 217.699 267.445C219.301 268.416 220.525 269.775 221.373 271.521C222.231 273.268 222.659 275.293 222.659 277.597C222.659 279.902 222.231 281.927 221.373 283.674C220.525 285.42 219.301 286.784 217.699 287.766C216.108 288.737 214.196 289.223 211.964 289.223ZM211.964 285.704C213.462 285.715 214.708 285.384 215.7 284.712C216.702 284.04 217.451 283.095 217.947 281.876C218.454 280.656 218.707 279.23 218.707 277.597C218.707 275.965 218.454 274.549 217.947 273.35C217.451 272.141 216.702 271.201 215.7 270.529C214.708 269.858 213.462 269.511 211.964 269.491C210.466 269.48 209.22 269.811 208.228 270.483C207.236 271.154 206.487 272.1 205.981 273.319C205.485 274.539 205.237 275.965 205.237 277.597C205.237 279.23 205.485 280.651 205.981 281.86C206.477 283.059 207.221 283.994 208.213 284.666C209.215 285.337 210.466 285.684 211.964 285.704ZM225.745 288.758V266.437H229.527L239.881 282.17V266.437H243.663V288.758H239.881L229.527 273.025V288.758H225.745ZM248.306 288.758V266.437H252.042V285.255H261.9V288.758H248.306ZM266.863 288.758V279.613L259.268 266.437H263.624L268.754 275.334L273.87 266.437H278.225L270.646 279.613V288.758H266.863ZM294.795 289.223C292.563 289.223 290.651 288.737 289.06 287.766C287.468 286.784 286.244 285.42 285.386 283.674C284.539 281.927 284.115 279.902 284.115 277.597C284.115 275.293 284.539 273.268 285.386 271.521C286.244 269.775 287.468 268.416 289.06 267.445C290.651 266.463 292.563 265.972 294.795 265.972C297.368 265.972 299.512 266.618 301.228 267.91C302.943 269.191 304.147 270.922 304.839 273.102L301.073 274.141C300.639 272.684 299.9 271.547 298.856 270.731C297.812 269.904 296.459 269.491 294.795 269.491C293.296 269.491 292.046 269.827 291.044 270.498C290.052 271.17 289.302 272.115 288.796 273.335C288.3 274.544 288.047 275.965 288.037 277.597C288.037 279.23 288.285 280.656 288.781 281.876C289.287 283.085 290.041 284.025 291.044 284.697C292.046 285.368 293.296 285.704 294.795 285.704C296.459 285.704 297.812 285.291 298.856 284.464C299.9 283.637 300.639 282.501 301.073 281.054L304.839 282.093C304.147 284.273 302.943 286.009 301.228 287.301C299.512 288.582 297.368 289.223 294.795 289.223ZM317.682 289.223C315.45 289.223 313.538 288.737 311.947 287.766C310.356 286.784 309.131 285.42 308.273 283.674C307.426 281.927 307.002 279.902 307.002 277.597C307.002 275.293 307.426 273.268 308.273 271.521C309.131 269.775 310.356 268.416 311.947 267.445C313.538 266.463 315.45 265.972 317.682 265.972C319.914 265.972 321.826 266.463 323.417 267.445C325.019 268.416 326.244 269.775 327.091 271.521C327.949 273.268 328.378 275.293 328.378 277.597C328.378 279.902 327.949 281.927 327.091 283.674C326.244 285.42 325.019 286.784 323.417 287.766C321.826 288.737 319.914 289.223 317.682 289.223ZM317.682 285.704C319.181 285.715 320.426 285.384 321.418 284.712C322.42 284.04 323.169 283.095 323.665 281.876C324.172 280.656 324.425 279.23 324.425 277.597C324.425 275.965 324.172 274.549 323.665 273.35C323.169 272.141 322.42 271.201 321.418 270.529C320.426 269.858 319.181 269.511 317.682 269.491C316.184 269.48 314.939 269.811 313.947 270.483C312.955 271.154 312.205 272.1 311.699 273.319C311.203 274.539 310.955 275.965 310.955 277.597C310.955 279.23 311.203 280.651 311.699 281.86C312.195 283.059 312.939 283.994 313.931 284.666C314.934 285.337 316.184 285.684 317.682 285.704ZM331.463 288.758V266.437H334.827L342.546 282.248L350.265 266.437H353.629V288.758H350.141V274.451L343.29 288.758H341.802L334.966 274.451V288.758H331.463ZM357.983 288.758V266.437H361.347L369.066 282.248L376.785 266.437H380.149V288.758H376.661V274.451L369.81 288.758H368.322L361.486 274.451V288.758H357.983ZM393.494 289.223C391.717 289.223 390.151 288.861 388.797 288.138C387.454 287.414 386.4 286.397 385.635 285.084C384.881 283.772 384.504 282.232 384.504 280.465V266.468L388.286 266.437V280.372C388.286 281.209 388.425 281.958 388.704 282.62C388.994 283.281 389.381 283.844 389.867 284.309C390.353 284.764 390.911 285.11 391.541 285.348C392.171 285.585 392.822 285.704 393.494 285.704C394.186 285.704 394.843 285.585 395.463 285.348C396.093 285.1 396.651 284.748 397.137 284.294C397.622 283.829 398.005 283.265 398.284 282.604C398.563 281.943 398.702 281.199 398.702 280.372V266.437H402.484V280.465C402.484 282.232 402.102 283.772 401.337 285.084C400.583 286.397 399.529 287.414 398.175 288.138C396.832 288.861 395.271 289.223 393.494 289.223ZM406.816 288.758V266.437H410.598L420.952 282.17V266.437H424.735V288.758H420.952L410.598 273.025V288.758H406.816ZM429.378 288.758V266.437H433.113V288.758H429.378ZM447.196 289.223C444.964 289.223 443.053 288.737 441.461 287.766C439.87 286.784 438.645 285.42 437.787 283.674C436.94 281.927 436.516 279.902 436.516 277.597C436.516 275.293 436.94 273.268 437.787 271.521C438.645 269.775 439.87 268.416 441.461 267.445C443.053 266.463 444.964 265.972 447.196 265.972C449.769 265.972 451.914 266.618 453.629 267.91C455.344 269.191 456.548 270.922 457.241 273.102L453.474 274.141C453.04 272.684 452.301 271.547 451.257 270.731C450.214 269.904 448.86 269.491 447.196 269.491C445.698 269.491 444.448 269.827 443.445 270.498C442.453 271.17 441.704 272.115 441.198 273.335C440.702 274.544 440.448 275.965 440.438 277.597C440.438 279.23 440.686 280.656 441.182 281.876C441.688 283.085 442.443 284.025 443.445 284.697C444.448 285.368 445.698 285.704 447.196 285.704C448.86 285.704 450.214 285.291 451.257 284.464C452.301 283.637 453.04 282.501 453.474 281.054L457.241 282.093C456.548 284.273 455.344 286.009 453.629 287.301C451.914 288.582 449.769 289.223 447.196 289.223ZM458.488 288.758L465.526 266.437H470.997L478.035 288.758H474.19L467.804 268.731H468.641L462.333 288.758H458.488ZM462.41 283.922V280.434H474.128V283.922H462.41ZM484.353 288.758V269.94H477.13V266.437H495.312V269.94H488.089V288.758H484.353ZM497.791 288.758V266.437H512.206V269.94H501.526V275.443H510.346V278.946H501.526V285.255H512.206V288.758H497.791ZM522.131 288.758V266.437H530.982C532.491 266.437 533.726 266.742 534.687 267.352C535.658 267.951 536.376 268.721 536.841 269.661C537.317 270.602 537.554 271.573 537.554 272.575C537.554 273.805 537.26 274.849 536.671 275.706C536.092 276.564 535.302 277.143 534.299 277.442V276.667C535.705 276.988 536.769 277.654 537.492 278.667C538.226 279.68 538.593 280.832 538.593 282.124C538.593 283.446 538.34 284.604 537.833 285.596C537.327 286.588 536.573 287.363 535.57 287.921C534.578 288.479 533.349 288.758 531.881 288.758H522.131ZM525.913 285.239H531.416C532.067 285.239 532.651 285.11 533.168 284.852C533.684 284.583 534.087 284.211 534.377 283.736C534.676 283.25 534.826 282.676 534.826 282.015C534.826 281.416 534.697 280.878 534.439 280.403C534.18 279.928 533.803 279.551 533.307 279.272C532.811 278.982 532.217 278.837 531.525 278.837H525.913V285.239ZM525.913 275.35H530.936C531.473 275.35 531.953 275.247 532.377 275.04C532.801 274.833 533.137 274.528 533.385 274.125C533.633 273.722 533.757 273.226 533.757 272.637C533.757 271.862 533.509 271.216 533.013 270.7C532.517 270.183 531.824 269.925 530.936 269.925H525.913V275.35ZM546.175 288.758V279.613L538.58 266.437H542.936L548.066 275.334L553.181 266.437H557.537L549.957 279.613V288.758H546.175ZM96.8047 332.223C95.0273 332.223 93.4618 331.861 92.108 331.138C90.7647 330.414 89.7106 329.397 88.9459 328.084C88.1916 326.772 87.8144 325.232 87.8144 323.465V309.468L91.5965 309.437V323.372C91.5965 324.209 91.736 324.958 92.015 325.62C92.3044 326.281 92.6919 326.844 93.1776 327.309C93.6633 327.764 94.2213 328.11 94.8516 328.348C95.482 328.585 96.133 328.704 96.8047 328.704C97.4971 328.704 98.1532 328.585 98.7733 328.348C99.4036 328.1 99.9616 327.748 100.447 327.294C100.933 326.829 101.315 326.265 101.594 325.604C101.873 324.943 102.013 324.199 102.013 323.372V309.437H105.795V323.465C105.795 325.232 105.413 326.772 104.648 328.084C103.894 329.397 102.84 330.414 101.486 331.138C100.142 331.861 98.5821 332.223 96.8047 332.223ZM117.45 332.223C115.817 332.223 114.345 331.939 113.032 331.37C111.73 330.802 110.656 329.991 109.808 328.937C108.971 327.872 108.439 326.612 108.212 325.155L112.087 324.566C112.417 325.888 113.094 326.911 114.117 327.635C115.151 328.358 116.339 328.72 117.682 328.72C118.478 328.72 119.227 328.596 119.93 328.348C120.633 328.1 121.201 327.738 121.635 327.263C122.079 326.787 122.302 326.203 122.302 325.511C122.302 325.201 122.25 324.917 122.147 324.659C122.043 324.39 121.888 324.152 121.682 323.946C121.485 323.739 121.227 323.553 120.907 323.388C120.597 323.212 120.235 323.062 119.821 322.938L114.055 321.233C113.559 321.088 113.022 320.897 112.443 320.659C111.875 320.411 111.332 320.076 110.816 319.652C110.309 319.218 109.891 318.67 109.56 318.009C109.24 317.337 109.08 316.51 109.08 315.529C109.08 314.092 109.441 312.889 110.165 311.917C110.898 310.935 111.88 310.202 113.11 309.716C114.35 309.23 115.724 308.993 117.233 309.003C118.762 309.013 120.126 309.277 121.325 309.794C122.524 310.3 123.526 311.039 124.332 312.01C125.138 312.982 125.707 314.154 126.037 315.529L122.023 316.226C121.857 315.441 121.537 314.774 121.062 314.227C120.597 313.669 120.023 313.245 119.341 312.956C118.669 312.666 117.951 312.511 117.186 312.491C116.442 312.48 115.75 312.594 115.109 312.832C114.479 313.059 113.967 313.39 113.575 313.824C113.192 314.258 113.001 314.764 113.001 315.343C113.001 315.89 113.167 316.34 113.497 316.691C113.828 317.032 114.236 317.306 114.722 317.513C115.218 317.709 115.719 317.875 116.225 318.009L120.225 319.125C120.772 319.27 121.387 319.466 122.069 319.714C122.751 319.962 123.407 320.308 124.038 320.752C124.668 321.197 125.185 321.781 125.588 322.504C126.001 323.227 126.208 324.147 126.208 325.263C126.208 326.42 125.965 327.438 125.479 328.317C125.004 329.185 124.358 329.908 123.542 330.487C122.725 331.065 121.79 331.499 120.736 331.789C119.692 332.078 118.597 332.223 117.45 332.223ZM129.873 331.758V309.437H133.608V331.758H129.873ZM138.252 331.758V309.437H142.034L152.388 325.17V309.437H156.17V331.758H152.388L142.034 316.025V331.758H138.252ZM169.711 332.223C168.264 332.223 166.905 331.97 165.634 331.463C164.373 330.947 163.262 330.192 162.301 329.2C161.351 328.208 160.607 326.994 160.069 325.558C159.532 324.111 159.263 322.458 159.263 320.597C159.263 318.159 159.718 316.076 160.627 314.351C161.537 312.615 162.782 311.287 164.363 310.367C165.944 309.437 167.727 308.972 169.711 308.972C172.459 308.972 174.635 309.613 176.236 310.894C177.848 312.165 178.939 313.953 179.507 316.257L175.694 316.862C175.27 315.539 174.578 314.485 173.617 313.7C172.656 312.904 171.431 312.506 169.943 312.506C168.445 312.486 167.2 312.811 166.207 313.483C165.215 314.154 164.466 315.1 163.96 316.319C163.464 317.539 163.216 318.965 163.216 320.597C163.216 322.23 163.464 323.651 163.96 324.86C164.456 326.059 165.2 326.994 166.192 327.666C167.194 328.337 168.445 328.684 169.943 328.704C171.069 328.715 172.056 328.513 172.904 328.1C173.751 327.676 174.443 327.04 174.981 326.193C175.518 325.335 175.88 324.266 176.066 322.985H172.129V320.055H180.034C180.055 320.22 180.07 320.463 180.08 320.783C180.091 321.104 180.096 321.295 180.096 321.357C180.096 323.465 179.677 325.341 178.84 326.984C178.014 328.616 176.825 329.898 175.275 330.828C173.725 331.758 171.87 332.223 169.711 332.223ZM187.865 331.758L194.903 309.437H200.374L207.411 331.758H203.567L197.181 311.731H198.018L191.709 331.758H187.865ZM191.787 326.922V323.434H203.505V326.922H191.787ZM210.214 331.758V309.437H213.996L224.35 325.17V309.437H228.132V331.758H224.35L213.996 316.025V331.758H210.214ZM232.776 331.758V309.437H236.511V331.758H232.776ZM241.154 331.758V309.437H244.518L252.237 325.248L259.956 309.437H263.32V331.758H259.832V317.451L252.981 331.758H251.493L244.657 317.451V331.758H241.154ZM266.125 331.758L273.162 309.437H278.634L285.671 331.758H281.827L275.441 311.731H276.278L269.969 331.758H266.125ZM270.046 326.922V323.434H281.765V326.922H270.046ZM288.783 331.758V309.437H292.519V328.255H302.377V331.758H288.783ZM309.665 331.758V309.437H313.448L323.802 325.17V309.437H327.584V331.758H323.802L313.448 316.025V331.758H309.665ZM341.357 332.223C339.125 332.223 337.213 331.737 335.622 330.766C334.03 329.784 332.806 328.42 331.948 326.674C331.101 324.927 330.677 322.902 330.677 320.597C330.677 318.293 331.101 316.268 331.948 314.521C332.806 312.775 334.03 311.416 335.622 310.445C337.213 309.463 339.125 308.972 341.357 308.972C343.589 308.972 345.501 309.463 347.092 310.445C348.694 311.416 349.918 312.775 350.766 314.521C351.623 316.268 352.052 318.293 352.052 320.597C352.052 322.902 351.623 324.927 350.766 326.674C349.918 328.42 348.694 329.784 347.092 330.766C345.501 331.737 343.589 332.223 341.357 332.223ZM341.357 328.704C342.855 328.715 344.1 328.384 345.093 327.712C346.095 327.04 346.844 326.095 347.34 324.876C347.846 323.656 348.1 322.23 348.1 320.597C348.1 318.965 347.846 317.549 347.34 316.35C346.844 315.141 346.095 314.201 345.093 313.529C344.1 312.858 342.855 312.511 341.357 312.491C339.859 312.48 338.613 312.811 337.621 313.483C336.629 314.154 335.88 315.1 335.374 316.319C334.878 317.539 334.63 318.965 334.63 320.597C334.63 322.23 334.878 323.651 335.374 324.86C335.87 326.059 336.614 326.994 337.606 327.666C338.608 328.337 339.859 328.684 341.357 328.704ZM355.448 331.758V309.437H359.183V331.758H355.448ZM372.088 332.223C370.455 332.223 368.983 331.939 367.67 331.37C366.368 330.802 365.294 329.991 364.446 328.937C363.609 327.872 363.077 326.612 362.85 325.155L366.725 324.566C367.056 325.888 367.732 326.911 368.755 327.635C369.789 328.358 370.977 328.72 372.321 328.72C373.116 328.72 373.865 328.596 374.568 328.348C375.271 328.1 375.839 327.738 376.273 327.263C376.718 326.787 376.94 326.203 376.94 325.511C376.94 325.201 376.888 324.917 376.785 324.659C376.681 324.39 376.526 324.152 376.32 323.946C376.123 323.739 375.865 323.553 375.545 323.388C375.235 323.212 374.873 323.062 374.46 322.938L368.693 321.233C368.197 321.088 367.66 320.897 367.081 320.659C366.513 320.411 365.971 320.076 365.454 319.652C364.948 319.218 364.529 318.67 364.198 318.009C363.878 317.337 363.718 316.51 363.718 315.529C363.718 314.092 364.079 312.889 364.803 311.917C365.537 310.935 366.518 310.202 367.748 309.716C368.988 309.23 370.362 308.993 371.871 309.003C373.4 309.013 374.765 309.277 375.963 309.794C377.162 310.3 378.164 311.039 378.97 312.01C379.776 312.982 380.345 314.154 380.675 315.529L376.661 316.226C376.495 315.441 376.175 314.774 375.7 314.227C375.235 313.669 374.661 313.245 373.979 312.956C373.307 312.666 372.589 312.511 371.825 312.491C371.081 312.48 370.388 312.594 369.748 312.832C369.117 313.059 368.606 313.39 368.213 313.824C367.831 314.258 367.639 314.764 367.639 315.343C367.639 315.89 367.805 316.34 368.135 316.691C368.466 317.032 368.874 317.306 369.36 317.513C369.856 317.709 370.357 317.875 370.864 318.009L374.863 319.125C375.41 319.27 376.025 319.466 376.707 319.714C377.389 319.962 378.045 320.308 378.676 320.752C379.306 321.197 379.823 321.781 380.226 322.504C380.639 323.227 380.846 324.147 380.846 325.263C380.846 326.42 380.603 327.438 380.117 328.317C379.642 329.185 378.996 329.908 378.18 330.487C377.363 331.065 376.428 331.499 375.374 331.789C374.33 332.078 373.235 332.223 372.088 332.223ZM384.201 331.758V309.437H398.616V312.94H387.937V318.443H396.756V321.946H387.937V328.255H398.616V331.758H384.201ZM410.385 332.223C408.753 332.223 407.28 331.939 405.968 331.37C404.666 330.802 403.591 329.991 402.744 328.937C401.906 327.872 401.374 326.612 401.147 325.155L405.022 324.566C405.353 325.888 406.03 326.911 407.053 327.635C408.086 328.358 409.274 328.72 410.618 328.72C411.413 328.72 412.163 328.596 412.865 328.348C413.568 328.1 414.136 327.738 414.57 327.263C415.015 326.787 415.237 326.203 415.237 325.511C415.237 325.201 415.185 324.917 415.082 324.659C414.979 324.39 414.824 324.152 414.617 323.946C414.421 323.739 414.162 323.553 413.842 323.388C413.532 323.212 413.17 323.062 412.757 322.938L406.991 321.233C406.495 321.088 405.957 320.897 405.379 320.659C404.81 320.411 404.268 320.076 403.751 319.652C403.245 319.218 402.826 318.67 402.496 318.009C402.175 317.337 402.015 316.51 402.015 315.529C402.015 314.092 402.377 312.889 403.1 311.917C403.834 310.935 404.815 310.202 406.045 309.716C407.285 309.23 408.66 308.993 410.168 309.003C411.698 309.013 413.062 309.277 414.26 309.794C415.459 310.3 416.461 311.039 417.267 312.01C418.074 312.982 418.642 314.154 418.973 315.529L414.958 316.226C414.793 315.441 414.472 314.774 413.997 314.227C413.532 313.669 412.958 313.245 412.276 312.956C411.605 312.666 410.886 312.511 410.122 312.491C409.378 312.48 408.685 312.594 408.045 312.832C407.414 313.059 406.903 313.39 406.51 313.824C406.128 314.258 405.937 314.764 405.937 315.343C405.937 315.89 406.102 316.34 406.433 316.691C406.763 317.032 407.171 317.306 407.657 317.513C408.153 317.709 408.654 317.875 409.161 318.009L413.16 319.125C413.708 319.27 414.322 319.466 415.004 319.714C415.686 319.962 416.343 320.308 416.973 320.752C417.603 321.197 418.12 321.781 418.523 322.504C418.936 323.227 419.143 324.147 419.143 325.263C419.143 326.42 418.9 327.438 418.415 328.317C417.939 329.185 417.293 329.908 416.477 330.487C415.661 331.065 414.725 331.499 413.671 331.789C412.628 332.078 411.532 332.223 410.385 332.223ZM428.704 331.758V309.437H442.143V313.173H432.44V318.737H440.283V322.458H432.44V331.758H428.704ZM454.371 332.223C452.139 332.223 450.227 331.737 448.636 330.766C447.045 329.784 445.82 328.42 444.962 326.674C444.115 324.927 443.691 322.902 443.691 320.597C443.691 318.293 444.115 316.268 444.962 314.521C445.82 312.775 447.045 311.416 448.636 310.445C450.227 309.463 452.139 308.972 454.371 308.972C456.603 308.972 458.515 309.463 460.106 310.445C461.708 311.416 462.933 312.775 463.78 314.521C464.638 316.268 465.067 318.293 465.067 320.597C465.067 322.902 464.638 324.927 463.78 326.674C462.933 328.42 461.708 329.784 460.106 330.766C458.515 331.737 456.603 332.223 454.371 332.223ZM454.371 328.704C455.87 328.715 457.115 328.384 458.107 327.712C459.109 327.04 459.858 326.095 460.354 324.876C460.861 323.656 461.114 322.23 461.114 320.597C461.114 318.965 460.861 317.549 460.354 316.35C459.858 315.141 459.109 314.201 458.107 313.529C457.115 312.858 455.87 312.511 454.371 312.491C452.873 312.48 451.628 312.811 450.636 313.483C449.644 314.154 448.894 315.1 448.388 316.319C447.892 317.539 447.644 318.965 447.644 320.597C447.644 322.23 447.892 323.651 448.388 324.86C448.884 326.059 449.628 326.994 450.62 327.666C451.623 328.337 452.873 328.684 454.371 328.704ZM468.152 331.758V309.437H477.375C477.592 309.437 477.871 309.447 478.212 309.468C478.553 309.478 478.868 309.509 479.157 309.561C480.449 309.757 481.513 310.186 482.35 310.848C483.198 311.509 483.823 312.346 484.226 313.359C484.639 314.361 484.846 315.477 484.846 316.707C484.846 318.526 484.386 320.091 483.467 321.403C482.547 322.706 481.136 323.512 479.235 323.822L477.638 323.961H471.888V331.758H468.152ZM480.971 331.758L476.569 322.675L480.366 321.837L485.203 331.758H480.971ZM471.888 320.473H477.22C477.426 320.473 477.659 320.463 477.917 320.442C478.176 320.422 478.413 320.38 478.63 320.318C479.25 320.163 479.736 319.89 480.087 319.497C480.449 319.104 480.702 318.66 480.847 318.164C481.002 317.668 481.079 317.182 481.079 316.707C481.079 316.231 481.002 315.746 480.847 315.25C480.702 314.743 480.449 314.294 480.087 313.901C479.736 313.509 479.25 313.235 478.63 313.08C478.413 313.018 478.176 312.982 477.917 312.971C477.659 312.951 477.426 312.94 477.22 312.94H471.888V320.473ZM493.274 331.758L500.311 309.437H505.783L512.82 331.758H508.976L502.59 311.731H503.427L497.118 331.758H493.274ZM497.195 326.922V323.434H508.914V326.922H497.195ZM521.829 331.758V309.437H528.943C529.129 309.437 529.496 309.442 530.044 309.453C530.602 309.463 531.139 309.499 531.656 309.561C533.423 309.788 534.916 310.419 536.136 311.452C537.365 312.475 538.295 313.782 538.926 315.374C539.556 316.965 539.871 318.706 539.871 320.597C539.871 322.489 539.556 324.23 538.926 325.821C538.295 327.413 537.365 328.725 536.136 329.758C534.916 330.781 533.423 331.406 531.656 331.634C531.15 331.696 530.617 331.732 530.059 331.742C529.501 331.753 529.129 331.758 528.943 331.758H521.829ZM525.626 328.239H528.943C529.253 328.239 529.646 328.229 530.121 328.208C530.607 328.188 531.036 328.141 531.408 328.069C532.462 327.872 533.32 327.402 533.981 326.658C534.642 325.914 535.128 325.01 535.438 323.946C535.758 322.881 535.919 321.765 535.919 320.597C535.919 319.388 535.758 318.252 535.438 317.187C535.118 316.123 534.622 315.229 533.95 314.506C533.289 313.782 532.441 313.323 531.408 313.126C531.036 313.044 530.607 312.997 530.121 312.987C529.646 312.966 529.253 312.956 528.943 312.956H525.626V328.239ZM541.38 331.758L548.417 309.437H553.889L560.926 331.758H557.082L550.696 311.731H551.533L545.224 331.758H541.38ZM545.301 326.922V323.434H557.02V326.922H545.301ZM567.307 331.758V322.613L559.712 309.437H564.067L569.198 318.334L574.313 309.437H578.669L571.089 322.613V331.758H567.307Z" fill="white"></path><rect y="525.91" width="664.307" height="332.154" rx="22.1436" fill="#55ACEE"></rect><path d="M77.9755 681.807V659.486H81.3391L89.0584 675.296L96.7776 659.486H100.141V681.807H96.6536V667.5L89.8024 681.807H88.3143L81.4786 667.5V681.807H77.9755ZM113.486 682.272C111.709 682.272 110.143 681.91 108.79 681.187C107.446 680.463 106.392 679.445 105.627 678.133C104.873 676.821 104.496 675.281 104.496 673.514V659.517L108.278 659.486V673.421C108.278 674.258 108.418 675.007 108.697 675.668C108.986 676.33 109.373 676.893 109.859 677.358C110.345 677.813 110.903 678.159 111.533 678.397C112.163 678.634 112.814 678.753 113.486 678.753C114.179 678.753 114.835 678.634 115.455 678.397C116.085 678.149 116.643 677.797 117.129 677.342C117.614 676.877 117.997 676.314 118.276 675.653C118.555 674.992 118.694 674.248 118.694 673.421V659.486H122.476V673.514C122.476 675.281 122.094 676.821 121.329 678.133C120.575 679.445 119.521 680.463 118.167 681.187C116.824 681.91 115.264 682.272 113.486 682.272ZM134.131 682.272C132.499 682.272 131.026 681.987 129.714 681.419C128.412 680.851 127.337 680.04 126.49 678.986C125.653 677.921 125.12 676.66 124.893 675.203L128.768 674.614C129.099 675.937 129.776 676.96 130.799 677.684C131.832 678.407 133.021 678.769 134.364 678.769C135.16 678.769 135.909 678.645 136.611 678.397C137.314 678.149 137.883 677.787 138.317 677.311C138.761 676.836 138.983 676.252 138.983 675.56C138.983 675.25 138.931 674.966 138.828 674.707C138.725 674.439 138.57 674.201 138.363 673.994C138.167 673.788 137.908 673.602 137.588 673.436C137.278 673.261 136.916 673.111 136.503 672.987L130.737 671.282C130.241 671.137 129.703 670.946 129.125 670.708C128.556 670.46 128.014 670.124 127.497 669.701C126.991 669.267 126.572 668.719 126.242 668.058C125.921 667.386 125.761 666.559 125.761 665.578C125.761 664.141 126.123 662.937 126.846 661.966C127.58 660.984 128.562 660.251 129.791 659.765C131.031 659.279 132.406 659.042 133.914 659.052C135.444 659.062 136.808 659.326 138.007 659.842C139.205 660.349 140.208 661.088 141.014 662.059C141.82 663.03 142.388 664.203 142.719 665.578L138.704 666.275C138.539 665.49 138.218 664.823 137.743 664.276C137.278 663.718 136.704 663.294 136.022 663.005C135.351 662.715 134.633 662.56 133.868 662.54C133.124 662.529 132.432 662.643 131.791 662.881C131.16 663.108 130.649 663.439 130.256 663.873C129.874 664.307 129.683 664.813 129.683 665.392C129.683 665.939 129.848 666.389 130.179 666.74C130.509 667.081 130.918 667.355 131.403 667.562C131.899 667.758 132.401 667.923 132.907 668.058L136.906 669.174C137.454 669.318 138.069 669.515 138.751 669.763C139.433 670.011 140.089 670.357 140.719 670.801C141.349 671.246 141.866 671.829 142.269 672.553C142.683 673.276 142.889 674.196 142.889 675.312C142.889 676.469 142.646 677.487 142.161 678.366C141.685 679.234 141.039 679.957 140.223 680.536C139.407 681.114 138.472 681.548 137.418 681.838C136.374 682.127 135.278 682.272 134.131 682.272ZM151.607 681.807V662.989H144.384V659.486H162.566V662.989H155.343V681.807H151.607ZM165.045 681.807V659.486H168.827L179.181 675.219V659.486H182.963V681.807H179.181L168.827 666.074V681.807H165.045ZM187.761 667.422L187.978 665.81C188.454 665.851 188.831 665.774 189.11 665.578C189.389 665.371 189.575 665.087 189.668 664.725C189.771 664.353 189.797 663.935 189.746 663.47H187.761V659.486H191.59V663.625C191.59 664.978 191.27 666.001 190.629 666.694C189.988 667.386 189.033 667.629 187.761 667.422ZM201.469 681.807V662.989H194.246V659.486H212.428V662.989H205.205V681.807H201.469ZM228.436 682.272C226.804 682.272 225.331 681.987 224.019 681.419C222.717 680.851 221.642 680.04 220.794 678.986C219.957 677.921 219.425 676.66 219.198 675.203L223.073 674.614C223.404 675.937 224.081 676.96 225.104 677.684C226.137 678.407 227.325 678.769 228.669 678.769C229.464 678.769 230.214 678.645 230.916 678.397C231.619 678.149 232.187 677.787 232.621 677.311C233.066 676.836 233.288 676.252 233.288 675.56C233.288 675.25 233.236 674.966 233.133 674.707C233.03 674.439 232.875 674.201 232.668 673.994C232.472 673.788 232.213 673.602 231.893 673.436C231.583 673.261 231.221 673.111 230.808 672.987L225.042 671.282C224.546 671.137 224.008 670.946 223.43 670.708C222.861 670.46 222.319 670.124 221.802 669.701C221.296 669.267 220.877 668.719 220.546 668.058C220.226 667.386 220.066 666.559 220.066 665.578C220.066 664.141 220.428 662.937 221.151 661.966C221.885 660.984 222.866 660.251 224.096 659.765C225.336 659.279 226.711 659.042 228.219 659.052C229.749 659.062 231.113 659.326 232.311 659.842C233.51 660.349 234.512 661.088 235.318 662.059C236.124 663.03 236.693 664.203 237.024 665.578L233.009 666.275C232.844 665.49 232.523 664.823 232.048 664.276C231.583 663.718 231.009 663.294 230.327 663.005C229.656 662.715 228.937 662.56 228.173 662.54C227.429 662.529 226.736 662.643 226.096 662.881C225.465 663.108 224.954 663.439 224.561 663.873C224.179 664.307 223.988 664.813 223.988 665.392C223.988 665.939 224.153 666.389 224.484 666.74C224.814 667.081 225.222 667.355 225.708 667.562C226.204 667.758 226.705 667.923 227.212 668.058L231.211 669.174C231.759 669.318 232.373 669.515 233.055 669.763C233.737 670.011 234.394 670.357 235.024 670.801C235.654 671.246 236.171 671.829 236.574 672.553C236.987 673.276 237.194 674.196 237.194 675.312C237.194 676.469 236.951 677.487 236.465 678.366C235.99 679.234 235.344 679.957 234.528 680.536C233.712 681.114 232.776 681.548 231.722 681.838C230.679 682.127 229.583 682.272 228.436 682.272ZM240.549 681.807V659.486H249.772C249.989 659.486 250.268 659.496 250.609 659.517C250.95 659.527 251.265 659.558 251.555 659.61C252.846 659.806 253.911 660.235 254.748 660.896C255.595 661.558 256.22 662.395 256.623 663.408C257.037 664.41 257.243 665.526 257.243 666.756C257.243 667.975 257.037 669.091 256.623 670.104C256.21 671.106 255.579 671.938 254.732 672.599C253.895 673.261 252.836 673.69 251.555 673.886C251.265 673.927 250.945 673.958 250.593 673.979C250.252 674 249.979 674.01 249.772 674.01H244.285V681.807H240.549ZM244.285 670.522H249.617C249.824 670.522 250.056 670.512 250.314 670.491C250.573 670.471 250.81 670.429 251.027 670.367C251.648 670.212 252.133 669.938 252.485 669.546C252.846 669.153 253.099 668.709 253.244 668.213C253.399 667.717 253.477 667.231 253.477 666.756C253.477 666.28 253.399 665.795 253.244 665.299C253.099 664.792 252.846 664.343 252.485 663.95C252.133 663.557 251.648 663.284 251.027 663.129C250.81 663.067 250.573 663.03 250.314 663.02C250.056 662.999 249.824 662.989 249.617 662.989H244.285V670.522ZM260.349 681.807V659.486H274.764V662.989H264.084V668.492H272.904V671.995H264.084V678.304H274.764V681.807H260.349ZM276.933 681.807L283.97 659.486H289.442L296.479 681.807H292.635L286.249 661.78H287.086L280.777 681.807H276.933ZM280.855 676.97V673.483H292.573V676.97H280.855ZM299.282 681.807V659.486H303.017V669.84L311.93 659.486H316.518L306.923 670.429L317.169 681.807H312.426L303.017 671.39V681.807H299.282ZM330.317 681.807V662.989H323.094V659.486H341.276V662.989H334.053V681.807H330.317ZM353.194 682.272C350.962 682.272 349.051 681.786 347.459 680.815C345.868 679.833 344.643 678.469 343.786 676.722C342.938 674.976 342.515 672.951 342.515 670.646C342.515 668.342 342.938 666.316 343.786 664.57C344.643 662.824 345.868 661.465 347.459 660.493C349.051 659.512 350.962 659.021 353.194 659.021C355.427 659.021 357.338 659.512 358.93 660.493C360.531 661.465 361.756 662.824 362.603 664.57C363.461 666.316 363.89 668.342 363.89 670.646C363.89 672.951 363.461 674.976 362.603 676.722C361.756 678.469 360.531 679.833 358.93 680.815C357.338 681.786 355.427 682.272 353.194 682.272ZM353.194 678.753C354.693 678.763 355.938 678.433 356.93 677.761C357.932 677.089 358.682 676.144 359.178 674.924C359.684 673.705 359.937 672.279 359.937 670.646C359.937 669.014 359.684 667.598 359.178 666.399C358.682 665.19 357.932 664.25 356.93 663.578C355.938 662.906 354.693 662.56 353.194 662.54C351.696 662.529 350.451 662.86 349.459 663.532C348.467 664.203 347.718 665.149 347.211 666.368C346.715 667.588 346.467 669.014 346.467 670.646C346.467 672.279 346.715 673.7 347.211 674.909C347.707 676.108 348.451 677.043 349.443 677.715C350.446 678.386 351.696 678.732 353.194 678.753ZM371.631 681.807L378.669 659.486H384.14L391.177 681.807H387.333L380.947 661.78H381.784L375.475 681.807H371.631ZM375.553 676.97V673.483H387.271V676.97H375.553ZM393.98 681.807V659.486H397.762L408.116 675.219V659.486H411.899V681.807H408.116L397.762 666.074V681.807H393.98ZM421.657 681.807V672.661L414.062 659.486H418.417L423.548 668.383L428.663 659.486H433.019L425.439 672.661V681.807H421.657ZM443.382 682.272C441.15 682.272 439.238 681.786 437.647 680.815C436.055 679.833 434.831 678.469 433.973 676.722C433.126 674.976 432.702 672.951 432.702 670.646C432.702 668.342 433.126 666.316 433.973 664.57C434.831 662.824 436.055 661.465 437.647 660.493C439.238 659.512 441.15 659.021 443.382 659.021C445.614 659.021 447.526 659.512 449.117 660.493C450.719 661.465 451.943 662.824 452.791 664.57C453.648 666.316 454.077 668.342 454.077 670.646C454.077 672.951 453.648 674.976 452.791 676.722C451.943 678.469 450.719 679.833 449.117 680.815C447.526 681.786 445.614 682.272 443.382 682.272ZM443.382 678.753C444.88 678.763 446.126 678.433 447.118 677.761C448.12 677.089 448.869 676.144 449.365 674.924C449.872 673.705 450.125 672.279 450.125 670.646C450.125 669.014 449.872 667.598 449.365 666.399C448.869 665.19 448.12 664.25 447.118 663.578C446.126 662.906 444.88 662.56 443.382 662.54C441.884 662.529 440.638 662.86 439.646 663.532C438.654 664.203 437.905 665.149 437.399 666.368C436.903 667.588 436.655 669.014 436.655 670.646C436.655 672.279 436.903 673.7 437.399 674.909C437.895 676.108 438.639 677.043 439.631 677.715C440.633 678.386 441.884 678.732 443.382 678.753ZM457.163 681.807V659.486H460.945L471.299 675.219V659.486H475.081V681.807H471.299L460.945 666.074V681.807H457.163ZM479.414 681.807V659.486H493.83V662.989H483.15V668.492H491.97V671.995H483.15V678.304H493.83V681.807H479.414ZM503.755 681.807V659.486H517.194V663.222H507.491V668.786H515.334V672.506H507.491V681.807H503.755ZM529.422 682.272C527.19 682.272 525.278 681.786 523.687 680.815C522.095 679.833 520.871 678.469 520.013 676.722C519.166 674.976 518.742 672.951 518.742 670.646C518.742 668.342 519.166 666.316 520.013 664.57C520.871 662.824 522.095 661.465 523.687 660.493C525.278 659.512 527.19 659.021 529.422 659.021C531.654 659.021 533.566 659.512 535.157 660.493C536.759 661.465 537.983 662.824 538.831 664.57C539.688 666.316 540.117 668.342 540.117 670.646C540.117 672.951 539.688 674.976 538.831 676.722C537.983 678.469 536.759 679.833 535.157 680.815C533.566 681.786 531.654 682.272 529.422 682.272ZM529.422 678.753C530.92 678.763 532.165 678.433 533.158 677.761C534.16 677.089 534.909 676.144 535.405 674.924C535.911 673.705 536.165 672.279 536.165 670.646C536.165 669.014 535.911 667.598 535.405 666.399C534.909 665.19 534.16 664.25 533.158 663.578C532.165 662.906 530.92 662.56 529.422 662.54C527.924 662.529 526.678 662.86 525.686 663.532C524.694 664.203 523.945 665.149 523.439 666.368C522.943 667.588 522.695 669.014 522.695 670.646C522.695 672.279 522.943 673.7 523.439 674.909C523.935 676.108 524.679 677.043 525.671 677.715C526.673 678.386 527.924 678.732 529.422 678.753ZM543.203 681.807V659.486H552.425C552.642 659.486 552.921 659.496 553.262 659.517C553.603 659.527 553.919 659.558 554.208 659.61C555.5 659.806 556.564 660.235 557.401 660.896C558.248 661.558 558.874 662.395 559.277 663.408C559.69 664.41 559.897 665.526 559.897 666.756C559.897 668.574 559.437 670.14 558.517 671.452C557.597 672.754 556.187 673.56 554.285 673.87L552.689 674.01H546.938V681.807H543.203ZM556.021 681.807L551.619 672.723L555.417 671.886L560.253 681.807H556.021ZM546.938 670.522H552.27C552.477 670.522 552.71 670.512 552.968 670.491C553.226 670.471 553.464 670.429 553.681 670.367C554.301 670.212 554.787 669.938 555.138 669.546C555.5 669.153 555.753 668.709 555.897 668.213C556.052 667.717 556.13 667.231 556.13 666.756C556.13 666.28 556.052 665.795 555.897 665.299C555.753 664.792 555.5 664.343 555.138 663.95C554.787 663.557 554.301 663.284 553.681 663.129C553.464 663.067 553.226 663.03 552.968 663.02C552.71 662.999 552.477 662.989 552.27 662.989H546.938V670.522ZM568.324 681.807L575.361 659.486H580.833L587.87 681.807H584.026L577.64 661.78H578.477L572.168 681.807H568.324ZM572.246 676.97V673.483H583.964V676.97H572.246ZM237.39 724.807L230.864 702.486H234.786L239.235 718.606L243.668 702.517L247.589 702.486L252.038 718.606L256.471 702.486H260.393L253.882 724.807H250.193L245.621 708.934L241.079 724.807H237.39ZM262.922 724.807V702.486H266.658V711.879H277.229V702.486H280.949V724.807H277.229V715.382H266.658V724.807H262.922ZM294.735 725.272C292.503 725.272 290.591 724.786 288.999 723.815C287.408 722.833 286.183 721.469 285.326 719.722C284.478 717.976 284.055 715.951 284.055 713.646C284.055 711.342 284.478 709.316 285.326 707.57C286.183 705.824 287.408 704.465 288.999 703.493C290.591 702.512 292.503 702.021 294.735 702.021C296.967 702.021 298.878 702.512 300.47 703.493C302.071 704.465 303.296 705.824 304.143 707.57C305.001 709.316 305.43 711.342 305.43 713.646C305.43 715.951 305.001 717.976 304.143 719.722C303.296 721.469 302.071 722.833 300.47 723.815C298.878 724.786 296.967 725.272 294.735 725.272ZM294.735 721.753C296.233 721.763 297.478 721.433 298.47 720.761C299.473 720.089 300.222 719.144 300.718 717.924C301.224 716.705 301.477 715.279 301.477 713.646C301.477 712.014 301.224 710.598 300.718 709.399C300.222 708.19 299.473 707.25 298.47 706.578C297.478 705.906 296.233 705.56 294.735 705.54C293.236 705.529 291.991 705.86 290.999 706.532C290.007 707.203 289.258 708.149 288.751 709.368C288.255 710.588 288.007 712.014 288.007 713.646C288.007 715.279 288.255 716.7 288.751 717.909C289.247 719.108 289.991 720.043 290.983 720.715C291.986 721.386 293.236 721.732 294.735 721.753ZM308.825 724.807V702.486H312.561V721.304H322.419V724.807H308.825ZM325.045 724.807V702.486H339.461V705.989H328.781V711.492H337.6V714.995H328.781V721.304H339.461V724.807H325.045ZM354.098 724.807L347.572 702.486H351.494L355.942 718.606L360.376 702.517L364.297 702.486L368.746 718.606L373.179 702.486H377.101L370.59 724.807H366.901L362.329 708.934L357.787 724.807H354.098ZM379.63 724.807V702.486H394.045V705.989H383.365V711.492H392.185V714.995H383.365V721.304H394.045V724.807H379.63ZM397.764 724.807V702.486H412.18V705.989H401.5V711.492H410.32V714.995H401.5V721.304H412.18V724.807H397.764ZM415.899 724.807V702.486H419.634V712.84L428.547 702.486H433.135L423.54 713.429L433.786 724.807H429.043L419.634 714.39V724.807H415.899Z" fill="white"></path><circle cx="332.153" cy="496.017" r="66.4307" fill="#F9F9F9"></circle><path d="M319.002 510.172C316.291 510.172 313.97 509.582 312.038 508.403C310.105 507.211 308.618 505.554 307.577 503.434C306.548 501.313 306.033 498.854 306.033 496.056C306.033 493.257 306.548 490.798 307.577 488.677C308.618 486.557 310.105 484.907 312.038 483.727C313.97 482.535 316.291 481.939 319.002 481.939C321.712 481.939 324.034 482.535 325.966 483.727C327.911 484.907 329.398 486.557 330.427 488.677C331.468 490.798 331.989 493.257 331.989 496.056C331.989 498.854 331.468 501.313 330.427 503.434C329.398 505.554 327.911 507.211 325.966 508.403C324.034 509.582 321.712 510.172 319.002 510.172ZM319.002 505.899C320.821 505.912 322.333 505.51 323.538 504.695C324.755 503.879 325.665 502.731 326.267 501.25C326.882 499.77 327.189 498.038 327.189 496.056C327.189 494.073 326.882 492.354 326.267 490.898C325.665 489.43 324.755 488.288 323.538 487.473C322.333 486.657 320.821 486.237 319.002 486.212C317.182 486.199 315.67 486.601 314.466 487.416C313.261 488.232 312.351 489.38 311.736 490.861C311.134 492.341 310.833 494.073 310.833 496.056C310.833 498.038 311.134 499.763 311.736 501.232C312.339 502.687 313.242 503.823 314.447 504.638C315.664 505.454 317.182 505.874 319.002 505.899ZM335.735 509.607V482.504H346.935C347.198 482.504 347.537 482.516 347.951 482.541C348.365 482.554 348.748 482.592 349.099 482.654C350.668 482.893 351.96 483.413 352.976 484.216C354.005 485.02 354.765 486.036 355.254 487.266C355.756 488.483 356.007 489.838 356.007 491.331C356.007 493.54 355.448 495.441 354.332 497.034C353.215 498.615 351.502 499.594 349.193 499.971L347.255 500.14H340.272V509.607H335.735ZM351.301 509.607L345.956 498.578L350.567 497.561L356.44 509.607H351.301ZM340.272 495.905H346.746C346.997 495.905 347.28 495.892 347.593 495.867C347.907 495.842 348.196 495.792 348.459 495.717C349.212 495.529 349.802 495.196 350.228 494.719C350.668 494.242 350.975 493.703 351.151 493.1C351.339 492.498 351.433 491.908 351.433 491.331C351.433 490.754 351.339 490.164 351.151 489.562C350.975 488.947 350.668 488.401 350.228 487.924C349.802 487.448 349.212 487.115 348.459 486.927C348.196 486.852 347.907 486.808 347.593 486.795C347.28 486.77 346.997 486.757 346.746 486.757H340.272V495.905Z" fill="#3E1BC9"></path></g><defs><clipPath id="clip0_3762_392"><rect width="664.307" height="858.064" rx="22" fill="white"></rect></clipPath></defs></svg> 