<?xml version="1.0" encoding="UTF-8"?> <svg xmlns="http://www.w3.org/2000/svg" width="665" height="859" viewBox="0 0 665 859" fill="none"><g clip-path="url(#clip0_3762_312)"><rect width="664.307" height="858.064" rx="22" fill="#F9F9F9"></rect><path d="M142.721 80.0234L134.797 52.9197H139.559L144.961 72.4946L150.344 52.9573L155.106 52.9197L160.508 72.4946L165.891 52.9197H170.653L162.748 80.0234H158.268L152.715 60.7497L147.201 80.0234H142.721ZM184.451 80.5881C181.741 80.5881 179.42 79.9983 177.487 78.8188C175.555 77.6268 174.068 75.9704 173.026 73.8498C171.998 71.7292 171.483 69.2698 171.483 66.4716C171.483 63.6734 171.998 61.2139 173.026 59.0933C174.068 56.9727 175.555 55.3226 177.487 54.1431C179.42 52.9511 181.741 52.355 184.451 52.355C187.162 52.355 189.483 52.9511 191.416 54.1431C193.361 55.3226 194.848 56.9727 195.876 59.0933C196.918 61.2139 197.439 63.6734 197.439 66.4716C197.439 69.2698 196.918 71.7292 195.876 73.8498C194.848 75.9704 193.361 77.6268 191.416 78.8188C189.483 79.9983 187.162 80.5881 184.451 80.5881ZM184.451 76.3155C186.271 76.328 187.783 75.9265 188.988 75.1109C190.205 74.2953 191.114 73.1471 191.717 71.6664C192.332 70.1858 192.639 68.4542 192.639 66.4716C192.639 64.489 192.332 62.7699 191.717 61.3143C191.114 59.8462 190.205 58.7043 188.988 57.8887C187.783 57.0731 186.271 56.6527 184.451 56.6276C182.632 56.6151 181.12 57.0166 179.915 57.8322C178.711 58.6479 177.801 59.796 177.186 61.2767C176.584 62.7573 176.283 64.489 176.283 66.4716C176.283 68.4542 176.584 70.1795 177.186 71.6476C177.788 73.1032 178.692 74.2388 179.897 75.0544C181.114 75.87 182.632 76.2904 184.451 76.3155ZM212.102 80.5881C209.944 80.5881 208.043 80.1489 206.399 79.2706C204.768 78.3922 203.488 77.1562 202.559 75.5626C201.643 73.969 201.185 72.0994 201.185 69.9536V52.9573L205.778 52.9197V69.8407C205.778 70.8571 205.947 71.7668 206.286 72.5699C206.637 73.373 207.108 74.0568 207.698 74.6215C208.287 75.1736 208.965 75.594 209.73 75.8826C210.496 76.1712 211.286 76.3155 212.102 76.3155C212.943 76.3155 213.739 76.1712 214.492 75.8826C215.258 75.5814 215.935 75.1548 216.525 74.6027C217.115 74.038 217.579 73.3542 217.918 72.5511C218.257 71.748 218.426 70.8446 218.426 69.8407V52.9197H223.019V69.9536C223.019 72.0994 222.554 73.969 221.626 75.5626C220.71 77.1562 219.43 78.3922 217.786 79.2706C216.155 80.1489 214.26 80.5881 212.102 80.5881ZM228.655 80.0234V52.9197H233.191V75.7697H245.162V80.0234H228.655ZM248.351 80.0234V52.9197H256.99C257.216 52.9197 257.661 52.926 258.326 52.9385C259.004 52.9511 259.656 52.995 260.284 53.0703C262.429 53.3463 264.243 54.1118 265.723 55.3666C267.217 56.6088 268.346 58.1961 269.111 60.1285C269.877 62.0609 270.259 64.1753 270.259 66.4716C270.259 68.7679 269.877 70.8822 269.111 72.8146C268.346 74.747 267.217 76.3406 265.723 77.5954C264.243 78.8376 262.429 79.5968 260.284 79.8729C259.669 79.9481 259.023 79.9921 258.345 80.0046C257.667 80.0172 257.216 80.0234 256.99 80.0234H248.351ZM252.962 75.7508H256.99C257.366 75.7508 257.843 75.7383 258.42 75.7132C259.01 75.6881 259.531 75.6316 259.983 75.5438C261.262 75.3054 262.304 74.7344 263.107 73.831C263.91 72.9275 264.5 71.8296 264.876 70.5371C265.265 69.2447 265.46 67.8895 265.46 66.4716C265.46 65.0034 265.265 63.6232 264.876 62.3307C264.487 61.0383 263.885 59.9529 263.069 59.0745C262.266 58.1961 261.237 57.6378 259.983 57.3993C259.531 57.299 259.01 57.2425 258.42 57.2299C257.843 57.2048 257.366 57.1923 256.99 57.1923H252.962V75.7508ZM288.833 80.0234V68.9184L279.61 52.9197H284.899L291.129 63.7235L297.34 52.9197H302.629L293.425 68.9184V80.0234H288.833ZM315.213 80.5881C312.503 80.5881 310.181 79.9983 308.249 78.8188C306.317 77.6268 304.83 75.9704 303.788 73.8498C302.759 71.7292 302.245 69.2698 302.245 66.4716C302.245 63.6734 302.759 61.2139 303.788 59.0933C304.83 56.9727 306.317 55.3226 308.249 54.1431C310.181 52.9511 312.503 52.355 315.213 52.355C317.924 52.355 320.245 52.9511 322.177 54.1431C324.122 55.3226 325.609 56.9727 326.638 59.0933C327.68 61.2139 328.2 63.6734 328.2 66.4716C328.2 69.2698 327.68 71.7292 326.638 73.8498C325.609 75.9704 324.122 77.6268 322.177 78.8188C320.245 79.9983 317.924 80.5881 315.213 80.5881ZM315.213 76.3155C317.033 76.328 318.545 75.9265 319.749 75.1109C320.966 74.2953 321.876 73.1471 322.478 71.6664C323.093 70.1858 323.401 68.4542 323.401 66.4716C323.401 64.489 323.093 62.7699 322.478 61.3143C321.876 59.8462 320.966 58.7043 319.749 57.8887C318.545 57.0731 317.033 56.6527 315.213 56.6276C313.394 56.6151 311.882 57.0166 310.677 57.8322C309.472 58.6479 308.563 59.796 307.948 61.2767C307.346 62.7573 307.044 64.489 307.044 66.4716C307.044 68.4542 307.346 70.1795 307.948 71.6476C308.55 73.1032 309.454 74.2388 310.658 75.0544C311.875 75.87 313.394 76.2904 315.213 76.3155ZM342.864 80.5881C340.705 80.5881 338.804 80.1489 337.161 79.2706C335.529 78.3922 334.249 77.1562 333.321 75.5626C332.405 73.969 331.947 72.0994 331.947 69.9536V52.9573L336.539 52.9197V69.8407C336.539 70.8571 336.709 71.7668 337.048 72.5699C337.399 73.373 337.87 74.0568 338.459 74.6215C339.049 75.1736 339.727 75.594 340.492 75.8826C341.258 76.1712 342.048 76.3155 342.864 76.3155C343.704 76.3155 344.501 76.1712 345.254 75.8826C346.019 75.5814 346.697 75.1548 347.287 74.6027C347.877 74.038 348.341 73.3542 348.68 72.5511C349.018 71.748 349.188 70.8446 349.188 69.8407V52.9197H353.78V69.9536C353.78 72.0994 353.316 73.969 352.388 75.5626C351.472 77.1562 350.192 78.3922 348.548 79.2706C346.917 80.1489 345.022 80.5881 342.864 80.5881ZM366.576 80.0234V52.9197H377.776C378.039 52.9197 378.378 52.9322 378.792 52.9573C379.206 52.9699 379.589 53.0075 379.94 53.0703C381.509 53.3087 382.801 53.8294 383.817 54.6325C384.846 55.4356 385.606 56.452 386.095 57.6817C386.597 58.8988 386.848 60.254 386.848 61.7472C386.848 63.9557 386.289 65.8567 385.173 67.4503C384.056 69.0314 382.343 70.0101 380.034 70.3866L378.096 70.5559H371.113V80.0234H366.576ZM382.142 80.0234L376.797 68.9937L381.408 67.9773L387.281 80.0234H382.142ZM371.113 66.321H377.587C377.838 66.321 378.121 66.3084 378.434 66.2833C378.748 66.2582 379.037 66.2081 379.3 66.1328C380.053 65.9445 380.643 65.612 381.069 65.1352C381.509 64.6584 381.816 64.1188 381.992 63.5165C382.18 62.9142 382.274 62.3244 382.274 61.7472C382.274 61.17 382.18 60.5803 381.992 59.978C381.816 59.3631 381.509 58.8173 381.069 58.3404C380.643 57.8636 380.053 57.5311 379.3 57.3429C379.037 57.2676 378.748 57.2237 378.434 57.2111C378.121 57.186 377.838 57.1735 377.587 57.1735H371.113V66.321ZM389.545 80.0234L398.09 52.9197H404.735L413.28 80.0234H408.612L400.857 55.7054H401.874L394.213 80.0234H389.545ZM394.307 74.151V69.916H408.537V74.151H394.307ZM420.953 80.0234V57.1735H412.182V52.9197H434.26V57.1735H425.489V80.0234H420.953ZM437.269 80.0234V52.9197H441.806V64.3259H454.642V52.9197H459.159V80.0234H454.642V68.5796H441.806V80.0234H437.269ZM464.436 80.0234V52.9197H481.941V57.1735H468.973V63.8553H479.682V68.1091H468.973V75.7697H481.941V80.0234H464.436ZM486.457 80.0234V52.9197H497.656C497.919 52.9197 498.258 52.9322 498.672 52.9573C499.086 52.9699 499.469 53.0075 499.82 53.0703C501.389 53.3087 502.681 53.8294 503.698 54.6325C504.727 55.4356 505.486 56.452 505.975 57.6817C506.477 58.8988 506.728 60.254 506.728 61.7472C506.728 63.9557 506.17 65.8567 505.053 67.4503C503.936 69.0314 502.223 70.0101 499.915 70.3866L497.976 70.5559H490.993V80.0234H486.457ZM502.023 80.0234L496.677 68.9937L501.289 67.9773L507.161 80.0234H502.023ZM490.993 66.321H497.468C497.719 66.321 498.001 66.3084 498.315 66.2833C498.628 66.2582 498.917 66.2081 499.18 66.1328C499.933 65.9445 500.523 65.612 500.95 65.1352C501.389 64.6584 501.696 64.1188 501.872 63.5165C502.06 62.9142 502.154 62.3244 502.154 61.7472C502.154 61.17 502.06 60.5803 501.872 59.978C501.696 59.3631 501.389 58.8173 500.95 58.3404C500.523 57.8636 499.933 57.5311 499.18 57.3429C498.917 57.2676 498.628 57.2237 498.315 57.2111C498.001 57.186 497.719 57.1735 497.468 57.1735H490.993V66.321ZM516.22 72.664C516.22 71.7982 516.302 70.9638 516.465 70.1607C516.641 69.3451 516.923 68.5922 517.312 67.902C517.651 67.237 518.027 66.71 518.441 66.321C518.855 65.9195 519.32 65.5242 519.834 65.1352C520.349 64.7337 520.919 64.2004 521.547 63.5353C522.061 62.9707 522.4 62.4123 522.563 61.8602C522.726 61.2955 522.808 60.6932 522.808 60.0532C522.808 59.6392 522.764 59.2502 522.676 58.8863C522.588 58.5224 522.432 58.2087 522.206 57.9452C521.854 57.4809 521.403 57.1547 520.85 56.9664C520.298 56.7657 519.709 56.6653 519.081 56.6653C518.567 56.6653 518.071 56.7343 517.594 56.8723C517.13 56.9978 516.735 57.1986 516.408 57.4746C516.032 57.7758 515.756 58.1459 515.58 58.5851C515.405 59.0243 515.323 59.5074 515.336 60.0344H510.555C510.68 58.7796 511.019 57.6189 511.571 56.5523C512.136 55.4732 512.876 54.6137 513.792 53.9737C514.507 53.4467 515.311 53.0514 516.201 52.7879C517.105 52.5244 518.008 52.3927 518.912 52.3927C520.292 52.3927 521.591 52.606 522.808 53.0326C524.038 53.4593 525.06 54.1619 525.876 55.1407C526.441 55.7806 526.867 56.521 527.156 57.3617C527.457 58.2024 527.608 59.0557 527.608 59.9215C527.608 61.2139 527.325 62.3935 526.761 63.46C526.208 64.5266 525.506 65.5116 524.653 66.4151C524.251 66.8417 523.868 67.2182 523.504 67.5444C523.14 67.8707 522.802 68.1906 522.488 68.5043C522.187 68.8055 521.936 69.1255 521.735 69.4643C521.384 70.054 521.177 70.5559 521.114 70.97C521.051 71.3716 521.02 71.9362 521.02 72.664H516.22ZM516.258 80.0234V75.0356H521.02V80.0234H516.258Z" fill="#3E1BC9"></path><rect y="132.861" width="664.307" height="332.154" rx="22.1436" fill="#3E1BC9"></rect><path d="M85.3622 288.759V266.438H88.7258L96.445 282.249L104.164 266.438H107.528V288.759H104.04V274.452L97.1891 288.759H95.701L88.8653 274.452V288.759H85.3622ZM120.873 289.224C119.095 289.224 117.53 288.862 116.176 288.139C114.833 287.415 113.779 286.398 113.014 285.085C112.26 283.773 111.883 282.233 111.883 280.466V266.469L115.665 266.438V280.373C115.665 281.21 115.804 281.959 116.083 282.621C116.373 283.282 116.76 283.845 117.246 284.31C117.731 284.765 118.289 285.111 118.92 285.349C119.55 285.586 120.201 285.705 120.873 285.705C121.565 285.705 122.221 285.586 122.841 285.349C123.472 285.101 124.03 284.749 124.515 284.295C125.001 283.83 125.384 283.266 125.663 282.605C125.942 281.944 126.081 281.2 126.081 280.373V266.438H129.863V280.466C129.863 282.233 129.481 283.773 128.716 285.085C127.962 286.398 126.908 287.415 125.554 288.139C124.211 288.862 122.65 289.224 120.873 289.224ZM141.518 289.224C139.885 289.224 138.413 288.94 137.1 288.371C135.798 287.803 134.724 286.992 133.876 285.938C133.039 284.873 132.507 283.613 132.28 282.156L136.155 281.567C136.486 282.889 137.162 283.912 138.185 284.636C139.219 285.359 140.407 285.721 141.751 285.721C142.546 285.721 143.295 285.597 143.998 285.349C144.701 285.101 145.269 284.739 145.703 284.264C146.148 283.788 146.37 283.204 146.37 282.512C146.37 282.202 146.318 281.918 146.215 281.66C146.111 281.391 145.956 281.153 145.75 280.947C145.553 280.74 145.295 280.554 144.975 280.389C144.665 280.213 144.303 280.063 143.89 279.939L138.123 278.234C137.627 278.089 137.09 277.898 136.511 277.66C135.943 277.412 135.401 277.077 134.884 276.653C134.378 276.219 133.959 275.671 133.628 275.01C133.308 274.338 133.148 273.511 133.148 272.53C133.148 271.093 133.509 269.89 134.233 268.918C134.967 267.936 135.948 267.203 137.178 266.717C138.418 266.231 139.792 265.994 141.301 266.004C142.83 266.014 144.195 266.278 145.393 266.795C146.592 267.301 147.594 268.04 148.4 269.011C149.206 269.983 149.775 271.155 150.105 272.53L146.091 273.227C145.925 272.442 145.605 271.775 145.13 271.228C144.665 270.67 144.091 270.246 143.409 269.957C142.737 269.667 142.019 269.512 141.255 269.492C140.511 269.481 139.818 269.595 139.178 269.833C138.547 270.06 138.036 270.391 137.643 270.825C137.261 271.259 137.069 271.765 137.069 272.344C137.069 272.891 137.235 273.341 137.565 273.692C137.896 274.033 138.304 274.307 138.79 274.514C139.286 274.71 139.787 274.876 140.294 275.01L144.293 276.126C144.84 276.271 145.455 276.467 146.137 276.715C146.819 276.963 147.475 277.309 148.106 277.753C148.736 278.198 149.253 278.782 149.656 279.505C150.069 280.228 150.276 281.148 150.276 282.264C150.276 283.421 150.033 284.439 149.547 285.318C149.072 286.186 148.426 286.909 147.61 287.488C146.793 288.066 145.858 288.5 144.804 288.79C143.76 289.079 142.665 289.224 141.518 289.224ZM158.994 288.759V269.941H151.771V266.438H169.953V269.941H162.73V288.759H158.994ZM185.961 289.224C184.328 289.224 182.856 288.94 181.543 288.371C180.241 287.803 179.167 286.992 178.319 285.938C177.482 284.873 176.95 283.613 176.723 282.156L180.598 281.567C180.928 282.889 181.605 283.912 182.628 284.636C183.662 285.359 184.85 285.721 186.193 285.721C186.989 285.721 187.738 285.597 188.441 285.349C189.144 285.101 189.712 284.739 190.146 284.264C190.59 283.788 190.813 283.204 190.813 282.512C190.813 282.202 190.761 281.918 190.658 281.66C190.554 281.391 190.399 281.153 190.193 280.947C189.996 280.74 189.738 280.554 189.418 280.389C189.108 280.213 188.746 280.063 188.333 279.939L182.566 278.234C182.07 278.089 181.533 277.898 180.954 277.66C180.386 277.412 179.843 277.077 179.327 276.653C178.82 276.219 178.402 275.671 178.071 275.01C177.751 274.338 177.591 273.511 177.591 272.53C177.591 271.093 177.952 269.89 178.676 268.918C179.409 267.936 180.391 267.203 181.621 266.717C182.861 266.231 184.235 265.994 185.744 266.004C187.273 266.014 188.637 266.278 189.836 266.795C191.035 267.301 192.037 268.04 192.843 269.011C193.649 269.983 194.218 271.155 194.548 272.53L190.534 273.227C190.368 272.442 190.048 271.775 189.573 271.228C189.108 270.67 188.534 270.246 187.852 269.957C187.18 269.667 186.462 269.512 185.697 269.492C184.953 269.481 184.261 269.595 183.62 269.833C182.99 270.06 182.478 270.391 182.086 270.825C181.703 271.259 181.512 271.765 181.512 272.344C181.512 272.891 181.678 273.341 182.008 273.692C182.339 274.033 182.747 274.307 183.233 274.514C183.729 274.71 184.23 274.876 184.736 275.01L188.736 276.126C189.283 276.271 189.898 276.467 190.58 276.715C191.262 276.963 191.918 277.309 192.549 277.753C193.179 278.198 193.696 278.782 194.099 279.505C194.512 280.228 194.719 281.148 194.719 282.264C194.719 283.421 194.476 284.439 193.99 285.318C193.515 286.186 192.869 286.909 192.053 287.488C191.236 288.066 190.301 288.5 189.247 288.79C188.203 289.079 187.108 289.224 185.961 289.224ZM198.384 288.759V266.438H202.119V288.759H198.384ZM206.763 288.759V266.438H210.545L220.899 282.171V266.438H224.681V288.759H220.899L210.545 273.026V288.759H206.763ZM238.222 289.224C236.775 289.224 235.416 288.971 234.145 288.464C232.884 287.948 231.773 287.193 230.812 286.201C229.862 285.209 229.118 283.995 228.58 282.559C228.043 281.112 227.774 279.458 227.774 277.598C227.774 275.16 228.229 273.077 229.138 271.352C230.048 269.616 231.293 268.288 232.874 267.368C234.455 266.438 236.238 265.973 238.222 265.973C240.97 265.973 243.146 266.614 244.747 267.895C246.359 269.166 247.45 270.954 248.018 273.258L244.205 273.863C243.781 272.54 243.089 271.486 242.128 270.701C241.167 269.905 239.942 269.507 238.454 269.507C236.956 269.486 235.711 269.812 234.719 270.484C233.726 271.155 232.977 272.101 232.471 273.32C231.975 274.54 231.727 275.966 231.727 277.598C231.727 279.231 231.975 280.652 232.471 281.861C232.967 283.06 233.711 283.995 234.703 284.667C235.705 285.338 236.956 285.685 238.454 285.705C239.581 285.716 240.567 285.514 241.415 285.101C242.262 284.677 242.954 284.041 243.492 283.194C244.029 282.336 244.391 281.267 244.577 279.986H240.64V277.056H248.545C248.566 277.221 248.581 277.464 248.591 277.784C248.602 278.105 248.607 278.296 248.607 278.358C248.607 280.466 248.188 282.342 247.351 283.985C246.525 285.617 245.336 286.899 243.786 287.829C242.236 288.759 240.381 289.224 238.222 289.224ZM258.236 288.759V266.438H261.972V288.759H258.236ZM266.615 288.759V266.438H270.397L280.752 282.171V266.438H284.534V288.759H280.752L270.397 273.026V288.759H266.615ZM295.073 288.759V266.438H304.296C304.513 266.438 304.792 266.448 305.133 266.469C305.474 266.479 305.789 266.51 306.078 266.562C307.37 266.758 308.435 267.187 309.272 267.849C310.119 268.51 310.744 269.347 311.147 270.36C311.56 271.362 311.767 272.478 311.767 273.708C311.767 274.927 311.56 276.043 311.147 277.056C310.734 278.058 310.103 278.89 309.256 279.551C308.419 280.213 307.36 280.642 306.078 280.838C305.789 280.879 305.469 280.91 305.117 280.931C304.776 280.952 304.503 280.962 304.296 280.962H298.809V288.759H295.073ZM298.809 277.474H304.141C304.348 277.474 304.58 277.464 304.838 277.443C305.097 277.423 305.334 277.381 305.551 277.319C306.171 277.164 306.657 276.891 307.009 276.498C307.37 276.105 307.623 275.661 307.768 275.165C307.923 274.669 308.001 274.183 308.001 273.708C308.001 273.232 307.923 272.747 307.768 272.251C307.623 271.744 307.37 271.295 307.009 270.902C306.657 270.51 306.171 270.236 305.551 270.081C305.334 270.019 305.097 269.983 304.838 269.972C304.58 269.952 304.348 269.941 304.141 269.941H298.809V277.474ZM323.863 289.224C322.085 289.224 320.52 288.862 319.166 288.139C317.823 287.415 316.769 286.398 316.004 285.085C315.25 283.773 314.873 282.233 314.873 280.466V266.469L318.655 266.438V280.373C318.655 281.21 318.794 281.959 319.073 282.621C319.363 283.282 319.75 283.845 320.236 284.31C320.721 284.765 321.279 285.111 321.91 285.349C322.54 285.586 323.191 285.705 323.863 285.705C324.555 285.705 325.211 285.586 325.831 285.349C326.462 285.101 327.02 284.749 327.505 284.295C327.991 283.83 328.374 283.266 328.653 282.605C328.932 281.944 329.071 281.2 329.071 280.373V266.438H332.853V280.466C332.853 282.233 332.471 283.773 331.706 285.085C330.952 286.398 329.898 287.415 328.544 288.139C327.201 288.862 325.64 289.224 323.863 289.224ZM337.185 288.759V266.438H346.036C347.544 266.438 348.779 266.743 349.74 267.353C350.712 267.952 351.43 268.722 351.895 269.662C352.37 270.603 352.608 271.574 352.608 272.576C352.608 273.806 352.313 274.85 351.724 275.707C351.146 276.565 350.355 277.144 349.353 277.443V276.668C350.758 276.989 351.822 277.655 352.546 278.668C353.28 279.681 353.646 280.833 353.646 282.125C353.646 283.447 353.393 284.605 352.887 285.597C352.381 286.589 351.626 287.364 350.624 287.922C349.632 288.48 348.402 288.759 346.935 288.759H337.185ZM340.967 285.24H346.47C347.121 285.24 347.705 285.111 348.221 284.853C348.738 284.584 349.141 284.212 349.43 283.737C349.73 283.251 349.88 282.677 349.88 282.016C349.88 281.417 349.751 280.879 349.492 280.404C349.234 279.929 348.857 279.551 348.361 279.272C347.865 278.983 347.271 278.838 346.578 278.838H340.967V285.24ZM340.967 275.351H345.989C346.526 275.351 347.007 275.248 347.431 275.041C347.854 274.834 348.19 274.529 348.438 274.126C348.686 273.723 348.81 273.227 348.81 272.638C348.81 271.863 348.562 271.217 348.066 270.701C347.57 270.184 346.878 269.926 345.989 269.926H340.967V275.351ZM357.052 288.759V266.438H360.788V285.256H370.646V288.759H357.052ZM373.582 288.759V266.438H377.318V288.759H373.582ZM391.401 289.224C389.168 289.224 387.257 288.738 385.665 287.767C384.074 286.785 382.849 285.421 381.992 283.675C381.144 281.928 380.721 279.903 380.721 277.598C380.721 275.294 381.144 273.269 381.992 271.522C382.849 269.776 384.074 268.417 385.665 267.446C387.257 266.464 389.168 265.973 391.401 265.973C393.974 265.973 396.118 266.619 397.833 267.911C399.549 269.192 400.753 270.923 401.445 273.103L397.678 274.142C397.244 272.685 396.505 271.548 395.462 270.732C394.418 269.905 393.064 269.492 391.401 269.492C389.902 269.492 388.652 269.828 387.649 270.499C386.657 271.171 385.908 272.116 385.402 273.336C384.906 274.545 384.653 275.966 384.642 277.598C384.642 279.231 384.89 280.657 385.386 281.877C385.893 283.086 386.647 284.026 387.649 284.698C388.652 285.369 389.902 285.705 391.401 285.705C393.064 285.705 394.418 285.292 395.462 284.465C396.505 283.638 397.244 282.502 397.678 281.055L401.445 282.094C400.753 284.274 399.549 286.01 397.833 287.302C396.118 288.583 393.974 289.224 391.401 289.224ZM411.054 288.759V266.438H425.47V269.941H414.79V275.444H423.61V278.947H414.79V285.256H425.47V288.759H411.054ZM434.211 288.759L427.174 266.438H431.018L436.908 285.132L442.876 266.438H446.72L439.683 288.759H434.211ZM449.049 288.759V266.438H463.464V269.941H452.784V275.444H461.604V278.947H452.784V285.256H463.464V288.759H449.049ZM467.183 288.759V266.438H476.406C476.623 266.438 476.902 266.448 477.243 266.469C477.584 266.479 477.899 266.51 478.189 266.562C479.48 266.758 480.545 267.187 481.382 267.849C482.229 268.51 482.854 269.347 483.257 270.36C483.671 271.362 483.877 272.478 483.877 273.708C483.877 275.527 483.417 277.092 482.498 278.404C481.578 279.706 480.167 280.513 478.266 280.823L476.67 280.962H470.919V288.759H467.183ZM480.002 288.759L475.6 279.675L479.398 278.838L484.234 288.759H480.002ZM470.919 277.474H476.251C476.458 277.474 476.69 277.464 476.949 277.443C477.207 277.423 477.445 277.381 477.662 277.319C478.282 277.164 478.767 276.891 479.119 276.498C479.48 276.105 479.733 275.661 479.878 275.165C480.033 274.669 480.111 274.183 480.111 273.708C480.111 273.232 480.033 272.747 479.878 272.251C479.733 271.744 479.48 271.295 479.119 270.902C478.767 270.51 478.282 270.236 477.662 270.081C477.445 270.019 477.207 269.983 476.949 269.972C476.69 269.952 476.458 269.941 476.251 269.941H470.919V277.474ZM492.65 288.759V279.613L485.055 266.438H489.41L494.541 275.335L499.656 266.438H504.012L496.432 279.613V288.759H492.65ZM516.505 288.759V269.941H509.282V266.438H527.464V269.941H520.24V288.759H516.505ZM530.252 288.759V266.438H533.988V288.759H530.252ZM538.631 288.759V266.438H541.994L549.714 282.249L557.433 266.438H560.797V288.759H557.309V274.452L550.458 288.759H548.97L542.134 274.452V288.759H538.631ZM565.151 288.759V266.438H579.567V269.941H568.887V275.444H577.707V278.947H568.887V285.256H579.567V288.759H565.151ZM246.231 331.759V322.613L238.636 309.438H242.992L248.122 318.335L253.238 309.438H257.593L250.014 322.613V331.759H246.231ZM267.957 332.224C265.724 332.224 263.813 331.738 262.221 330.767C260.63 329.785 259.405 328.421 258.548 326.675C257.7 324.928 257.277 322.903 257.277 320.598C257.277 318.294 257.7 316.269 258.548 314.522C259.405 312.776 260.63 311.417 262.221 310.446C263.813 309.464 265.724 308.973 267.957 308.973C270.189 308.973 272.1 309.464 273.692 310.446C275.293 311.417 276.518 312.776 277.365 314.522C278.223 316.269 278.652 318.294 278.652 320.598C278.652 322.903 278.223 324.928 277.365 326.675C276.518 328.421 275.293 329.785 273.692 330.767C272.1 331.738 270.189 332.224 267.957 332.224ZM267.957 328.705C269.455 328.716 270.7 328.385 271.692 327.713C272.695 327.041 273.444 326.096 273.94 324.877C274.446 323.657 274.699 322.231 274.699 320.598C274.699 318.966 274.446 317.55 273.94 316.351C273.444 315.142 272.695 314.202 271.692 313.53C270.7 312.859 269.455 312.512 267.957 312.492C266.458 312.481 265.213 312.812 264.221 313.484C263.229 314.155 262.48 315.101 261.973 316.32C261.477 317.54 261.229 318.966 261.229 320.598C261.229 322.231 261.477 323.652 261.973 324.861C262.469 326.06 263.213 326.995 264.205 327.667C265.208 328.338 266.458 328.685 267.957 328.705ZM290.728 332.224C288.95 332.224 287.385 331.862 286.031 331.139C284.688 330.415 283.633 329.398 282.869 328.085C282.114 326.773 281.737 325.233 281.737 323.466V309.469L285.519 309.438V323.373C285.519 324.21 285.659 324.959 285.938 325.621C286.227 326.282 286.615 326.845 287.1 327.31C287.586 327.765 288.144 328.111 288.774 328.349C289.405 328.586 290.056 328.705 290.728 328.705C291.42 328.705 292.076 328.586 292.696 328.349C293.326 328.101 293.884 327.749 294.37 327.295C294.856 326.83 295.238 326.266 295.517 325.605C295.796 324.944 295.936 324.2 295.936 323.373V309.438H299.718V323.466C299.718 325.233 299.335 326.773 298.571 328.085C297.816 329.398 296.762 330.415 295.409 331.139C294.065 331.862 292.505 332.224 290.728 332.224ZM318.518 332.224C316.885 332.224 315.412 331.94 314.1 331.371C312.798 330.803 311.723 329.992 310.876 328.938C310.039 327.873 309.507 326.613 309.279 325.156L313.154 324.567C313.485 325.889 314.162 326.912 315.185 327.636C316.218 328.359 317.407 328.721 318.75 328.721C319.546 328.721 320.295 328.597 320.998 328.349C321.7 328.101 322.269 327.739 322.703 327.264C323.147 326.788 323.369 326.204 323.369 325.512C323.369 325.202 323.317 324.918 323.214 324.66C323.111 324.391 322.956 324.153 322.749 323.947C322.553 323.74 322.294 323.554 321.974 323.389C321.664 323.213 321.302 323.063 320.889 322.939L315.123 321.234C314.627 321.089 314.09 320.898 313.511 320.66C312.942 320.412 312.4 320.077 311.883 319.653C311.377 319.219 310.958 318.671 310.628 318.01C310.307 317.338 310.147 316.511 310.147 315.53C310.147 314.093 310.509 312.89 311.232 311.918C311.966 310.936 312.948 310.203 314.177 309.717C315.417 309.231 316.792 308.994 318.3 309.004C319.83 309.014 321.194 309.278 322.393 309.795C323.591 310.301 324.594 311.04 325.4 312.011C326.206 312.983 326.774 314.155 327.105 315.53L323.09 316.227C322.925 315.442 322.604 314.775 322.129 314.228C321.664 313.67 321.091 313.246 320.409 312.957C319.737 312.667 319.019 312.512 318.254 312.492C317.51 312.481 316.818 312.595 316.177 312.833C315.547 313.06 315.035 313.391 314.642 313.825C314.26 314.259 314.069 314.765 314.069 315.344C314.069 315.891 314.234 316.341 314.565 316.692C314.896 317.033 315.304 317.307 315.789 317.514C316.285 317.71 316.787 317.876 317.293 318.01L321.292 319.126C321.84 319.271 322.455 319.467 323.137 319.715C323.819 319.963 324.475 320.309 325.105 320.753C325.736 321.198 326.252 321.782 326.655 322.505C327.069 323.228 327.275 324.148 327.275 325.264C327.275 326.421 327.032 327.439 326.547 328.318C326.071 329.186 325.426 329.909 324.609 330.488C323.793 331.066 322.858 331.5 321.804 331.79C320.76 332.079 319.665 332.224 318.518 332.224ZM330.63 331.759V309.438H334.413L344.767 325.171V309.438H348.549V331.759H344.767L334.413 316.026V331.759H330.63ZM352.882 331.759V309.438H367.298V312.941H356.618V318.444H365.438V321.947H356.618V328.256H367.298V331.759H352.882ZM371.017 331.759V309.438H385.432V312.941H374.752V318.444H383.572V321.947H374.752V328.256H385.432V331.759H371.017ZM388.531 331.759V331.247L399.536 312.941H389.306V309.438H406V309.965L395.057 328.24H405.736V331.759H388.531ZM409.707 331.759V309.438H424.123V312.941H413.443V318.444H422.263V321.947H413.443V328.256H424.123V331.759H409.707Z" fill="white"></path><rect y="525.91" width="664.307" height="332.154" rx="22.1436" fill="#55ACEE"></rect><path d="M64.9726 703.807V681.486H68.3362L76.0555 697.296L83.7747 681.486H87.1383V703.807H83.6507V689.5L76.7995 703.807H75.3115L68.4757 689.5V703.807H64.9726ZM100.483 704.272C98.7059 704.272 97.1404 703.91 95.7867 703.187C94.4433 702.463 93.3892 701.445 92.6246 700.133C91.8702 698.821 91.493 697.281 91.493 695.514V681.517L95.2751 681.486V695.421C95.2751 696.258 95.4146 697.007 95.6937 697.668C95.983 698.33 96.3705 698.893 96.8562 699.358C97.3419 699.813 97.8999 700.159 98.5302 700.397C99.1606 700.634 99.8116 700.753 100.483 700.753C101.176 700.753 101.832 700.634 102.452 700.397C103.082 700.149 103.64 699.797 104.126 699.342C104.612 698.877 104.994 698.314 105.273 697.653C105.552 696.992 105.691 696.248 105.691 695.421V681.486H109.474V695.514C109.474 697.281 109.091 698.821 108.327 700.133C107.572 701.445 106.518 702.463 105.164 703.187C103.821 703.91 102.261 704.272 100.483 704.272ZM121.129 704.272C119.496 704.272 118.023 703.987 116.711 703.419C115.409 702.851 114.334 702.04 113.487 700.986C112.65 699.921 112.118 698.66 111.89 697.203L115.765 696.614C116.096 697.937 116.773 698.96 117.796 699.684C118.829 700.407 120.018 700.769 121.361 700.769C122.157 700.769 122.906 700.645 123.609 700.397C124.311 700.149 124.88 699.787 125.314 699.311C125.758 698.836 125.98 698.252 125.98 697.56C125.98 697.25 125.929 696.966 125.825 696.707C125.722 696.439 125.567 696.201 125.36 695.994C125.164 695.788 124.905 695.602 124.585 695.436C124.275 695.261 123.913 695.111 123.5 694.987L117.734 693.282C117.238 693.137 116.701 692.946 116.122 692.708C115.554 692.46 115.011 692.124 114.494 691.701C113.988 691.267 113.569 690.719 113.239 690.058C112.918 689.386 112.758 688.559 112.758 687.578C112.758 686.141 113.12 684.937 113.843 683.966C114.577 682.984 115.559 682.251 116.788 681.765C118.028 681.279 119.403 681.042 120.912 681.052C122.441 681.062 123.805 681.326 125.004 681.842C126.202 682.349 127.205 683.088 128.011 684.059C128.817 685.03 129.385 686.203 129.716 687.578L125.701 688.275C125.536 687.49 125.215 686.823 124.74 686.276C124.275 685.718 123.702 685.294 123.02 685.005C122.348 684.715 121.63 684.56 120.865 684.54C120.121 684.529 119.429 684.643 118.788 684.881C118.158 685.108 117.646 685.439 117.253 685.873C116.871 686.307 116.68 686.813 116.68 687.392C116.68 687.939 116.845 688.389 117.176 688.74C117.507 689.081 117.915 689.355 118.4 689.562C118.896 689.758 119.398 689.923 119.904 690.058L123.903 691.174C124.451 691.318 125.066 691.515 125.748 691.763C126.43 692.011 127.086 692.357 127.716 692.801C128.347 693.246 128.863 693.829 129.266 694.553C129.68 695.276 129.886 696.196 129.886 697.312C129.886 698.469 129.643 699.487 129.158 700.366C128.682 701.234 128.037 701.957 127.22 702.536C126.404 703.114 125.469 703.548 124.415 703.838C123.371 704.127 122.276 704.272 121.129 704.272ZM138.605 703.807V684.989H131.381V681.486H149.563V684.989H142.34V703.807H138.605ZM157.31 703.807V681.486H164.424C164.61 681.486 164.977 681.491 165.525 681.501C166.083 681.512 166.62 681.548 167.137 681.61C168.904 681.837 170.397 682.468 171.617 683.501C172.846 684.524 173.776 685.831 174.407 687.423C175.037 689.014 175.352 690.755 175.352 692.646C175.352 694.537 175.037 696.279 174.407 697.87C173.776 699.461 172.846 700.774 171.617 701.807C170.397 702.83 168.904 703.455 167.137 703.683C166.631 703.745 166.098 703.781 165.54 703.791C164.982 703.801 164.61 703.807 164.424 703.807H157.31ZM161.107 700.288H164.424C164.734 700.288 165.127 700.278 165.602 700.257C166.088 700.236 166.517 700.19 166.889 700.118C167.943 699.921 168.801 699.451 169.462 698.707C170.123 697.963 170.609 697.059 170.919 695.994C171.239 694.93 171.4 693.814 171.4 692.646C171.4 691.437 171.239 690.301 170.919 689.236C170.599 688.172 170.103 687.278 169.431 686.555C168.77 685.831 167.922 685.371 166.889 685.175C166.517 685.092 166.088 685.046 165.602 685.036C165.127 685.015 164.734 685.005 164.424 685.005H161.107V700.288ZM176.861 703.807L183.898 681.486H189.37L196.407 703.807H192.563L186.177 683.78H187.014L180.705 703.807H176.861ZM180.782 698.97V695.483H192.501V698.97H180.782ZM199.209 703.807V681.486H202.992L213.346 697.219V681.486H217.128V703.807H213.346L202.992 688.074V703.807H199.209ZM230.901 704.272C228.669 704.272 226.757 703.786 225.166 702.815C223.574 701.833 222.35 700.469 221.492 698.722C220.645 696.976 220.221 694.951 220.221 692.646C220.221 690.342 220.645 688.316 221.492 686.57C222.35 684.824 223.574 683.465 225.166 682.493C226.757 681.512 228.669 681.021 230.901 681.021C233.474 681.021 235.618 681.667 237.334 682.958C239.049 684.24 240.253 685.971 240.945 688.151L237.179 689.19C236.745 687.733 236.006 686.596 234.962 685.78C233.918 684.953 232.565 684.54 230.901 684.54C229.403 684.54 228.152 684.875 227.15 685.547C226.158 686.219 225.409 687.164 224.902 688.384C224.406 689.593 224.153 691.014 224.143 692.646C224.143 694.279 224.391 695.705 224.887 696.924C225.393 698.133 226.147 699.074 227.15 699.746C228.152 700.417 229.403 700.753 230.901 700.753C232.565 700.753 233.918 700.34 234.962 699.513C236.006 698.686 236.745 697.55 237.179 696.103L240.945 697.141C240.253 699.322 239.049 701.058 237.334 702.35C235.618 703.631 233.474 704.272 230.901 704.272ZM244.349 703.807V681.486H258.764V684.989H248.084V690.492H256.904V693.995H248.084V700.304H258.764V703.807H244.349ZM268.689 703.807V681.486H283.105V684.989H272.425V690.492H281.245V693.995H272.425V700.304H283.105V703.807H268.689ZM291.846 703.807L284.809 681.486H288.653L294.543 700.18L300.511 681.486H304.355L297.317 703.807H291.846ZM306.684 703.807V681.486H321.099V684.989H310.419V690.492H319.239V693.995H310.419V700.304H321.099V703.807H306.684ZM324.818 703.807V681.486H334.041C334.258 681.486 334.537 681.496 334.878 681.517C335.219 681.527 335.534 681.558 335.823 681.61C337.115 681.806 338.179 682.235 339.016 682.896C339.864 683.558 340.489 684.395 340.892 685.408C341.305 686.41 341.512 687.526 341.512 688.756C341.512 690.574 341.052 692.14 340.133 693.452C339.213 694.754 337.802 695.56 335.901 695.87L334.304 696.01H328.554V703.807H324.818ZM337.637 703.807L333.235 694.723L337.032 693.886L341.869 703.807H337.637ZM328.554 692.522H333.886C334.092 692.522 334.325 692.512 334.583 692.491C334.842 692.471 335.079 692.429 335.296 692.367C335.916 692.212 336.402 691.938 336.753 691.546C337.115 691.153 337.368 690.709 337.513 690.213C337.668 689.717 337.745 689.231 337.745 688.756C337.745 688.28 337.668 687.795 337.513 687.299C337.368 686.792 337.115 686.343 336.753 685.95C336.402 685.557 335.916 685.284 335.296 685.129C335.079 685.067 334.842 685.03 334.583 685.02C334.325 684.999 334.092 684.989 333.886 684.989H328.554V692.522ZM350.285 703.807V694.661L342.69 681.486H347.045L352.176 690.383L357.291 681.486H361.647L354.067 694.661V703.807H350.285ZM374.14 703.807V684.989H366.916V681.486H385.099V684.989H377.875V703.807H374.14ZM387.887 703.807V681.486H391.623V703.807H387.887ZM396.266 703.807V681.486H399.629L407.349 697.296L415.068 681.486H418.431V703.807H414.944V689.5L408.093 703.807H406.604L399.769 689.5V703.807H396.266ZM422.786 703.807V681.486H437.202V684.989H426.522V690.492H435.341V693.995H426.522V700.304H437.202V703.807H422.786ZM452.552 703.807V694.661L444.957 681.486H449.312L454.443 690.383L459.558 681.486H463.914L456.334 694.661V703.807H452.552ZM474.277 704.272C472.045 704.272 470.133 703.786 468.542 702.815C466.95 701.833 465.726 700.469 464.868 698.722C464.021 696.976 463.597 694.951 463.597 692.646C463.597 690.342 464.021 688.316 464.868 686.57C465.726 684.824 466.95 683.465 468.542 682.493C470.133 681.512 472.045 681.021 474.277 681.021C476.509 681.021 478.421 681.512 480.012 682.493C481.614 683.465 482.838 684.824 483.686 686.57C484.544 688.316 484.972 690.342 484.972 692.646C484.972 694.951 484.544 696.976 483.686 698.722C482.838 700.469 481.614 701.833 480.012 702.815C478.421 703.786 476.509 704.272 474.277 704.272ZM474.277 700.753C475.775 700.763 477.021 700.433 478.013 699.761C479.015 699.089 479.764 698.144 480.26 696.924C480.767 695.705 481.02 694.279 481.02 692.646C481.02 691.014 480.767 689.598 480.26 688.399C479.764 687.19 479.015 686.25 478.013 685.578C477.021 684.906 475.775 684.56 474.277 684.54C472.779 684.529 471.533 684.86 470.541 685.532C469.549 686.203 468.8 687.149 468.294 688.368C467.798 689.588 467.55 691.014 467.55 692.646C467.55 694.279 467.798 695.7 468.294 696.909C468.79 698.108 469.534 699.043 470.526 699.715C471.528 700.386 472.779 700.732 474.277 700.753ZM497.048 704.272C495.271 704.272 493.705 703.91 492.351 703.187C491.008 702.463 489.954 701.445 489.189 700.133C488.435 698.821 488.058 697.281 488.058 695.514V681.517L491.84 681.486V695.421C491.84 696.258 491.979 697.007 492.258 697.668C492.548 698.33 492.935 698.893 493.421 699.358C493.907 699.813 494.465 700.159 495.095 700.397C495.725 700.634 496.376 700.753 497.048 700.753C497.74 700.753 498.397 700.634 499.017 700.397C499.647 700.149 500.205 699.797 500.691 699.342C501.176 698.877 501.559 698.314 501.838 697.653C502.117 696.992 502.256 696.248 502.256 695.421V681.486H506.038V695.514C506.038 697.281 505.656 698.821 504.891 700.133C504.137 701.445 503.083 702.463 501.729 703.187C500.386 703.91 498.825 704.272 497.048 704.272ZM516.576 703.807V681.486H525.427C526.936 681.486 528.171 681.791 529.132 682.4C530.103 683 530.821 683.77 531.286 684.71C531.762 685.65 531.999 686.622 531.999 687.624C531.999 688.854 531.705 689.898 531.116 690.755C530.537 691.613 529.746 692.192 528.744 692.491V691.716C530.149 692.037 531.214 692.703 531.937 693.716C532.671 694.729 533.038 695.881 533.038 697.172C533.038 698.495 532.785 699.653 532.278 700.645C531.772 701.637 531.018 702.412 530.015 702.97C529.023 703.528 527.793 703.807 526.326 703.807H516.576ZM520.358 700.288H525.861C526.512 700.288 527.096 700.159 527.613 699.901C528.129 699.632 528.532 699.26 528.822 698.784C529.121 698.299 529.271 697.725 529.271 697.064C529.271 696.465 529.142 695.927 528.884 695.452C528.625 694.977 528.248 694.599 527.752 694.32C527.256 694.031 526.662 693.886 525.97 693.886H520.358V700.288ZM520.358 690.399H525.38C525.918 690.399 526.398 690.295 526.822 690.089C527.246 689.882 527.582 689.577 527.83 689.174C528.078 688.771 528.202 688.275 528.202 687.686C528.202 686.911 527.954 686.265 527.458 685.749C526.962 685.232 526.269 684.974 525.38 684.974H520.358V690.399ZM536.443 703.807V681.486H540.179V700.304H550.037V703.807H536.443ZM552.973 703.807V681.486H556.709V703.807H552.973ZM561.352 703.807V681.486H565.134L575.489 697.219V681.486H579.271V703.807H575.489L565.134 688.074V703.807H561.352ZM583.604 703.807V681.486H587.339V691.84L596.252 681.486H600.84L591.246 692.429L601.491 703.807H596.748L587.339 693.39V703.807H583.604Z" fill="white"></path><circle cx="332.153" cy="496.016" r="66.4307" fill="#F9F9F9"></circle><path d="M319.002 510.174C316.291 510.174 313.97 509.584 312.038 508.405C310.105 507.213 308.618 505.556 307.577 503.436C306.548 501.315 306.033 498.856 306.033 496.058C306.033 493.259 306.548 490.8 307.577 488.679C308.618 486.559 310.105 484.909 312.038 483.729C313.97 482.537 316.291 481.941 319.002 481.941C321.712 481.941 324.034 482.537 325.966 483.729C327.911 484.909 329.398 486.559 330.427 488.679C331.468 490.8 331.989 493.259 331.989 496.058C331.989 498.856 331.468 501.315 330.427 503.436C329.398 505.556 327.911 507.213 325.966 508.405C324.034 509.584 321.712 510.174 319.002 510.174ZM319.002 505.901C320.821 505.914 322.333 505.512 323.538 504.697C324.755 503.881 325.665 502.733 326.267 501.252C326.882 499.772 327.189 498.04 327.189 496.058C327.189 494.075 326.882 492.356 326.267 490.9C325.665 489.432 324.755 488.29 323.538 487.475C322.333 486.659 320.821 486.239 319.002 486.214C317.182 486.201 315.67 486.603 314.466 487.418C313.261 488.234 312.351 489.382 311.736 490.863C311.134 492.343 310.833 494.075 310.833 496.058C310.833 498.04 311.134 499.765 311.736 501.234C312.339 502.689 313.242 503.825 314.447 504.64C315.664 505.456 317.182 505.876 319.002 505.901ZM335.735 509.609V482.506H346.935C347.198 482.506 347.537 482.518 347.951 482.543C348.365 482.556 348.748 482.593 349.099 482.656C350.668 482.895 351.96 483.415 352.976 484.218C354.005 485.022 354.765 486.038 355.254 487.268C355.756 488.485 356.007 489.84 356.007 491.333C356.007 493.542 355.448 495.443 354.332 497.036C353.215 498.617 351.502 499.596 349.193 499.972L347.255 500.142H340.272V509.609H335.735ZM351.301 509.609L345.956 498.58L350.567 497.563L356.44 509.609H351.301ZM340.272 495.907H346.746C346.997 495.907 347.28 495.894 347.593 495.869C347.907 495.844 348.196 495.794 348.459 495.719C349.212 495.53 349.802 495.198 350.228 494.721C350.668 494.244 350.975 493.705 351.151 493.102C351.339 492.5 351.433 491.91 351.433 491.333C351.433 490.756 351.339 490.166 351.151 489.564C350.975 488.949 350.668 488.403 350.228 487.926C349.802 487.45 349.212 487.117 348.459 486.929C348.196 486.854 347.907 486.81 347.593 486.797C347.28 486.772 346.997 486.759 346.746 486.759H340.272V495.907Z" fill="#3E1BC9"></path></g><defs><clipPath id="clip0_3762_312"><rect width="664.307" height="858.064" rx="22" fill="white"></rect></clipPath></defs></svg> 