<?xml version="1.0" encoding="UTF-8"?> <svg xmlns="http://www.w3.org/2000/svg" width="665" height="859" viewBox="0 0 665 859" fill="none"><g clip-path="url(#clip0_3762_320)"><rect width="664.307" height="858.064" rx="22" fill="#F9F9F9"></rect><path d="M142.721 80.0234L134.797 52.9197H139.559L144.961 72.4946L150.344 52.9573L155.106 52.9197L160.508 72.4946L165.891 52.9197H170.653L162.748 80.0234H158.268L152.715 60.7497L147.201 80.0234H142.721ZM184.451 80.5881C181.741 80.5881 179.42 79.9983 177.487 78.8188C175.555 77.6268 174.068 75.9704 173.026 73.8498C171.998 71.7292 171.483 69.2698 171.483 66.4716C171.483 63.6734 171.998 61.2139 173.026 59.0933C174.068 56.9727 175.555 55.3226 177.487 54.1431C179.42 52.9511 181.741 52.355 184.451 52.355C187.162 52.355 189.483 52.9511 191.416 54.1431C193.361 55.3226 194.848 56.9727 195.876 59.0933C196.918 61.2139 197.439 63.6734 197.439 66.4716C197.439 69.2698 196.918 71.7292 195.876 73.8498C194.848 75.9704 193.361 77.6268 191.416 78.8188C189.483 79.9983 187.162 80.5881 184.451 80.5881ZM184.451 76.3155C186.271 76.328 187.783 75.9265 188.988 75.1109C190.205 74.2953 191.114 73.1471 191.717 71.6664C192.332 70.1858 192.639 68.4542 192.639 66.4716C192.639 64.489 192.332 62.7699 191.717 61.3143C191.114 59.8462 190.205 58.7043 188.988 57.8887C187.783 57.0731 186.271 56.6527 184.451 56.6276C182.632 56.6151 181.12 57.0166 179.915 57.8322C178.711 58.6479 177.801 59.796 177.186 61.2767C176.584 62.7573 176.283 64.489 176.283 66.4716C176.283 68.4542 176.584 70.1795 177.186 71.6476C177.788 73.1032 178.692 74.2388 179.897 75.0544C181.114 75.87 182.632 76.2904 184.451 76.3155ZM212.102 80.5881C209.944 80.5881 208.043 80.1489 206.399 79.2706C204.768 78.3922 203.488 77.1562 202.559 75.5626C201.643 73.969 201.185 72.0994 201.185 69.9536V52.9573L205.778 52.9197V69.8407C205.778 70.8571 205.947 71.7668 206.286 72.5699C206.637 73.373 207.108 74.0568 207.698 74.6215C208.287 75.1736 208.965 75.594 209.73 75.8826C210.496 76.1712 211.286 76.3155 212.102 76.3155C212.943 76.3155 213.739 76.1712 214.492 75.8826C215.258 75.5814 215.935 75.1548 216.525 74.6027C217.115 74.038 217.579 73.3542 217.918 72.5511C218.257 71.748 218.426 70.8446 218.426 69.8407V52.9197H223.019V69.9536C223.019 72.0994 222.554 73.969 221.626 75.5626C220.71 77.1562 219.43 78.3922 217.786 79.2706C216.155 80.1489 214.26 80.5881 212.102 80.5881ZM228.655 80.0234V52.9197H233.191V75.7697H245.162V80.0234H228.655ZM248.351 80.0234V52.9197H256.99C257.216 52.9197 257.661 52.926 258.326 52.9385C259.004 52.9511 259.656 52.995 260.284 53.0703C262.429 53.3463 264.243 54.1118 265.723 55.3666C267.217 56.6088 268.346 58.1961 269.111 60.1285C269.877 62.0609 270.259 64.1753 270.259 66.4716C270.259 68.7679 269.877 70.8822 269.111 72.8146C268.346 74.747 267.217 76.3406 265.723 77.5954C264.243 78.8376 262.429 79.5968 260.284 79.8729C259.669 79.9481 259.023 79.9921 258.345 80.0046C257.667 80.0172 257.216 80.0234 256.99 80.0234H248.351ZM252.962 75.7508H256.99C257.366 75.7508 257.843 75.7383 258.42 75.7132C259.01 75.6881 259.531 75.6316 259.983 75.5438C261.262 75.3054 262.304 74.7344 263.107 73.831C263.91 72.9275 264.5 71.8296 264.876 70.5371C265.265 69.2447 265.46 67.8895 265.46 66.4716C265.46 65.0034 265.265 63.6232 264.876 62.3307C264.487 61.0383 263.885 59.9529 263.069 59.0745C262.266 58.1961 261.237 57.6378 259.983 57.3993C259.531 57.299 259.01 57.2425 258.42 57.2299C257.843 57.2048 257.366 57.1923 256.99 57.1923H252.962V75.7508ZM288.833 80.0234V68.9184L279.61 52.9197H284.899L291.129 63.7235L297.34 52.9197H302.629L293.425 68.9184V80.0234H288.833ZM315.213 80.5881C312.503 80.5881 310.181 79.9983 308.249 78.8188C306.317 77.6268 304.83 75.9704 303.788 73.8498C302.759 71.7292 302.245 69.2698 302.245 66.4716C302.245 63.6734 302.759 61.2139 303.788 59.0933C304.83 56.9727 306.317 55.3226 308.249 54.1431C310.181 52.9511 312.503 52.355 315.213 52.355C317.924 52.355 320.245 52.9511 322.177 54.1431C324.122 55.3226 325.609 56.9727 326.638 59.0933C327.68 61.2139 328.2 63.6734 328.2 66.4716C328.2 69.2698 327.68 71.7292 326.638 73.8498C325.609 75.9704 324.122 77.6268 322.177 78.8188C320.245 79.9983 317.924 80.5881 315.213 80.5881ZM315.213 76.3155C317.033 76.328 318.545 75.9265 319.749 75.1109C320.966 74.2953 321.876 73.1471 322.478 71.6664C323.093 70.1858 323.401 68.4542 323.401 66.4716C323.401 64.489 323.093 62.7699 322.478 61.3143C321.876 59.8462 320.966 58.7043 319.749 57.8887C318.545 57.0731 317.033 56.6527 315.213 56.6276C313.394 56.6151 311.882 57.0166 310.677 57.8322C309.472 58.6479 308.563 59.796 307.948 61.2767C307.346 62.7573 307.044 64.489 307.044 66.4716C307.044 68.4542 307.346 70.1795 307.948 71.6476C308.55 73.1032 309.454 74.2388 310.658 75.0544C311.875 75.87 313.394 76.2904 315.213 76.3155ZM342.864 80.5881C340.705 80.5881 338.804 80.1489 337.161 79.2706C335.529 78.3922 334.249 77.1562 333.321 75.5626C332.405 73.969 331.947 72.0994 331.947 69.9536V52.9573L336.539 52.9197V69.8407C336.539 70.8571 336.709 71.7668 337.048 72.5699C337.399 73.373 337.87 74.0568 338.459 74.6215C339.049 75.1736 339.727 75.594 340.492 75.8826C341.258 76.1712 342.048 76.3155 342.864 76.3155C343.704 76.3155 344.501 76.1712 345.254 75.8826C346.019 75.5814 346.697 75.1548 347.287 74.6027C347.877 74.038 348.341 73.3542 348.68 72.5511C349.018 71.748 349.188 70.8446 349.188 69.8407V52.9197H353.78V69.9536C353.78 72.0994 353.316 73.969 352.388 75.5626C351.472 77.1562 350.192 78.3922 348.548 79.2706C346.917 80.1489 345.022 80.5881 342.864 80.5881ZM366.576 80.0234V52.9197H377.776C378.039 52.9197 378.378 52.9322 378.792 52.9573C379.206 52.9699 379.589 53.0075 379.94 53.0703C381.509 53.3087 382.801 53.8294 383.817 54.6325C384.846 55.4356 385.606 56.452 386.095 57.6817C386.597 58.8988 386.848 60.254 386.848 61.7472C386.848 63.9557 386.289 65.8567 385.173 67.4503C384.056 69.0314 382.343 70.0101 380.034 70.3866L378.096 70.5559H371.113V80.0234H366.576ZM382.142 80.0234L376.797 68.9937L381.408 67.9773L387.281 80.0234H382.142ZM371.113 66.321H377.587C377.838 66.321 378.121 66.3084 378.434 66.2833C378.748 66.2582 379.037 66.2081 379.3 66.1328C380.053 65.9445 380.643 65.612 381.069 65.1352C381.509 64.6584 381.816 64.1188 381.992 63.5165C382.18 62.9142 382.274 62.3244 382.274 61.7472C382.274 61.17 382.18 60.5803 381.992 59.978C381.816 59.3631 381.509 58.8173 381.069 58.3404C380.643 57.8636 380.053 57.5311 379.3 57.3429C379.037 57.2676 378.748 57.2237 378.434 57.2111C378.121 57.186 377.838 57.1735 377.587 57.1735H371.113V66.321ZM389.545 80.0234L398.09 52.9197H404.735L413.28 80.0234H408.612L400.857 55.7054H401.874L394.213 80.0234H389.545ZM394.307 74.151V69.916H408.537V74.151H394.307ZM420.953 80.0234V57.1735H412.182V52.9197H434.26V57.1735H425.489V80.0234H420.953ZM437.269 80.0234V52.9197H441.806V64.3259H454.642V52.9197H459.159V80.0234H454.642V68.5796H441.806V80.0234H437.269ZM464.436 80.0234V52.9197H481.941V57.1735H468.973V63.8553H479.682V68.1091H468.973V75.7697H481.941V80.0234H464.436ZM486.457 80.0234V52.9197H497.656C497.919 52.9197 498.258 52.9322 498.672 52.9573C499.086 52.9699 499.469 53.0075 499.82 53.0703C501.389 53.3087 502.681 53.8294 503.698 54.6325C504.727 55.4356 505.486 56.452 505.975 57.6817C506.477 58.8988 506.728 60.254 506.728 61.7472C506.728 63.9557 506.17 65.8567 505.053 67.4503C503.936 69.0314 502.223 70.0101 499.915 70.3866L497.976 70.5559H490.993V80.0234H486.457ZM502.023 80.0234L496.677 68.9937L501.289 67.9773L507.161 80.0234H502.023ZM490.993 66.321H497.468C497.719 66.321 498.001 66.3084 498.315 66.2833C498.628 66.2582 498.917 66.2081 499.18 66.1328C499.933 65.9445 500.523 65.612 500.95 65.1352C501.389 64.6584 501.696 64.1188 501.872 63.5165C502.06 62.9142 502.154 62.3244 502.154 61.7472C502.154 61.17 502.06 60.5803 501.872 59.978C501.696 59.3631 501.389 58.8173 500.95 58.3404C500.523 57.8636 499.933 57.5311 499.18 57.3429C498.917 57.2676 498.628 57.2237 498.315 57.2111C498.001 57.186 497.719 57.1735 497.468 57.1735H490.993V66.321ZM516.22 72.664C516.22 71.7982 516.302 70.9638 516.465 70.1607C516.641 69.3451 516.923 68.5922 517.312 67.902C517.651 67.237 518.027 66.71 518.441 66.321C518.855 65.9195 519.32 65.5242 519.834 65.1352C520.349 64.7337 520.919 64.2004 521.547 63.5353C522.061 62.9707 522.4 62.4123 522.563 61.8602C522.726 61.2955 522.808 60.6932 522.808 60.0532C522.808 59.6392 522.764 59.2502 522.676 58.8863C522.588 58.5224 522.432 58.2087 522.206 57.9452C521.854 57.4809 521.403 57.1547 520.85 56.9664C520.298 56.7657 519.709 56.6653 519.081 56.6653C518.567 56.6653 518.071 56.7343 517.594 56.8723C517.13 56.9978 516.735 57.1986 516.408 57.4746C516.032 57.7758 515.756 58.1459 515.58 58.5851C515.405 59.0243 515.323 59.5074 515.336 60.0344H510.555C510.68 58.7796 511.019 57.6189 511.571 56.5523C512.136 55.4732 512.876 54.6137 513.792 53.9737C514.507 53.4467 515.311 53.0514 516.201 52.7879C517.105 52.5244 518.008 52.3927 518.912 52.3927C520.292 52.3927 521.591 52.606 522.808 53.0326C524.038 53.4593 525.06 54.1619 525.876 55.1407C526.441 55.7806 526.867 56.521 527.156 57.3617C527.457 58.2024 527.608 59.0557 527.608 59.9215C527.608 61.2139 527.325 62.3935 526.761 63.46C526.208 64.5266 525.506 65.5116 524.653 66.4151C524.251 66.8417 523.868 67.2182 523.504 67.5444C523.14 67.8707 522.802 68.1906 522.488 68.5043C522.187 68.8055 521.936 69.1255 521.735 69.4643C521.384 70.054 521.177 70.5559 521.114 70.97C521.051 71.3716 521.02 71.9362 521.02 72.664H516.22ZM516.258 80.0234V75.0356H521.02V80.0234H516.258Z" fill="#3E1BC9"></path><rect y="132.861" width="664.307" height="332.154" rx="22.1436" fill="#3E1BC9"></rect><path d="M92.9762 288.758V266.437H96.3398L104.059 282.248L111.778 266.437H115.142V288.758H111.654V274.451L104.803 288.758H103.315L96.4793 274.451V288.758H92.9762ZM128.487 289.223C126.709 289.223 125.144 288.861 123.79 288.138C122.447 287.414 121.393 286.397 120.628 285.084C119.874 283.772 119.497 282.232 119.497 280.465V266.468L123.279 266.437V280.372C123.279 281.209 123.418 281.958 123.697 282.62C123.987 283.281 124.374 283.844 124.86 284.309C125.345 284.764 125.903 285.11 126.534 285.348C127.164 285.585 127.815 285.704 128.487 285.704C129.179 285.704 129.835 285.585 130.455 285.348C131.086 285.1 131.644 284.748 132.129 284.294C132.615 283.829 132.998 283.265 133.277 282.604C133.556 281.943 133.695 281.199 133.695 280.372V266.437H137.477V280.465C137.477 282.232 137.095 283.772 136.33 285.084C135.576 286.397 134.522 287.414 133.168 288.138C131.825 288.861 130.264 289.223 128.487 289.223ZM149.132 289.223C147.499 289.223 146.027 288.939 144.714 288.37C143.412 287.802 142.338 286.991 141.49 285.937C140.653 284.872 140.121 283.612 139.894 282.155L143.769 281.566C144.1 282.888 144.776 283.911 145.799 284.635C146.833 285.358 148.021 285.72 149.365 285.72C150.16 285.72 150.909 285.596 151.612 285.348C152.315 285.1 152.883 284.738 153.317 284.263C153.762 283.787 153.984 283.203 153.984 282.511C153.984 282.201 153.932 281.917 153.829 281.659C153.725 281.39 153.57 281.152 153.364 280.946C153.167 280.739 152.909 280.553 152.589 280.388C152.279 280.212 151.917 280.062 151.504 279.938L145.737 278.233C145.241 278.088 144.704 277.897 144.125 277.659C143.557 277.411 143.015 277.076 142.498 276.652C141.992 276.218 141.573 275.67 141.242 275.009C140.922 274.337 140.762 273.51 140.762 272.529C140.762 271.092 141.124 269.889 141.847 268.917C142.581 267.935 143.562 267.202 144.792 266.716C146.032 266.23 147.406 265.993 148.915 266.003C150.444 266.013 151.809 266.277 153.007 266.794C154.206 267.3 155.208 268.039 156.014 269.01C156.82 269.982 157.389 271.154 157.719 272.529L153.705 273.226C153.539 272.441 153.219 271.774 152.744 271.227C152.279 270.669 151.705 270.245 151.023 269.956C150.351 269.666 149.633 269.511 148.869 269.491C148.125 269.48 147.432 269.594 146.792 269.832C146.161 270.059 145.65 270.39 145.257 270.824C144.875 271.258 144.683 271.764 144.683 272.343C144.683 272.89 144.849 273.34 145.179 273.691C145.51 274.032 145.918 274.306 146.404 274.513C146.9 274.709 147.401 274.875 147.908 275.009L151.907 276.125C152.454 276.27 153.069 276.466 153.751 276.714C154.433 276.962 155.089 277.308 155.72 277.752C156.35 278.197 156.867 278.781 157.27 279.504C157.683 280.227 157.89 281.147 157.89 282.263C157.89 283.42 157.647 284.438 157.161 285.317C156.686 286.185 156.04 286.908 155.224 287.487C154.407 288.065 153.472 288.499 152.418 288.789C151.375 289.078 150.279 289.223 149.132 289.223ZM166.608 288.758V269.94H159.385V266.437H177.567V269.94H170.344V288.758H166.608ZM185.313 288.758V266.437H192.428C192.614 266.437 192.981 266.442 193.528 266.453C194.086 266.463 194.624 266.499 195.141 266.561C196.908 266.788 198.401 267.419 199.62 268.452C200.85 269.475 201.78 270.782 202.41 272.374C203.041 273.965 203.356 275.706 203.356 277.597C203.356 279.489 203.041 281.23 202.41 282.821C201.78 284.413 200.85 285.725 199.62 286.758C198.401 287.781 196.908 288.406 195.141 288.634C194.634 288.696 194.102 288.732 193.544 288.742C192.986 288.753 192.614 288.758 192.428 288.758H185.313ZM189.111 285.239H192.428C192.738 285.239 193.131 285.229 193.606 285.208C194.092 285.188 194.52 285.141 194.892 285.069C195.947 284.872 196.804 284.402 197.466 283.658C198.127 282.914 198.613 282.01 198.923 280.946C199.243 279.881 199.403 278.765 199.403 277.597C199.403 276.388 199.243 275.252 198.923 274.187C198.602 273.123 198.106 272.229 197.435 271.506C196.773 270.782 195.926 270.323 194.892 270.126C194.52 270.044 194.092 269.997 193.606 269.987C193.131 269.966 192.738 269.956 192.428 269.956H189.111V285.239ZM216.46 289.223C214.228 289.223 212.316 288.737 210.725 287.766C209.133 286.784 207.909 285.42 207.051 283.674C206.204 281.927 205.78 279.902 205.78 277.597C205.78 275.293 206.204 273.268 207.051 271.521C207.909 269.775 209.133 268.416 210.725 267.445C212.316 266.463 214.228 265.972 216.46 265.972C218.692 265.972 220.604 266.463 222.195 267.445C223.797 268.416 225.021 269.775 225.869 271.521C226.726 273.268 227.155 275.293 227.155 277.597C227.155 279.902 226.726 281.927 225.869 283.674C225.021 285.42 223.797 286.784 222.195 287.766C220.604 288.737 218.692 289.223 216.46 289.223ZM216.46 285.704C217.958 285.715 219.203 285.384 220.195 284.712C221.198 284.04 221.947 283.095 222.443 281.876C222.949 280.656 223.202 279.23 223.202 277.597C223.202 275.965 222.949 274.549 222.443 273.35C221.947 272.141 221.198 271.201 220.195 270.529C219.203 269.858 217.958 269.511 216.46 269.491C214.961 269.48 213.716 269.811 212.724 270.483C211.732 271.154 210.983 272.1 210.477 273.319C209.981 274.539 209.733 275.965 209.733 277.597C209.733 279.23 209.981 280.651 210.477 281.86C210.973 283.059 211.717 283.994 212.709 284.666C213.711 285.337 214.961 285.684 216.46 285.704ZM234.897 288.758L241.934 266.437H247.406L254.443 288.758H250.599L244.212 268.731H245.049L238.741 288.758H234.897ZM238.818 283.922V280.434H250.537V283.922H238.818ZM263.451 288.758V266.437H276.89V270.173H267.187V275.737H275.03V279.458H267.187V288.758H263.451ZM288.669 289.223C286.891 289.223 285.326 288.861 283.972 288.138C282.629 287.414 281.575 286.397 280.81 285.084C280.056 283.772 279.679 282.232 279.679 280.465V266.468L283.461 266.437V280.372C283.461 281.209 283.6 281.958 283.879 282.62C284.169 283.281 284.556 283.844 285.042 284.309C285.527 284.764 286.085 285.11 286.716 285.348C287.346 285.585 287.997 285.704 288.669 285.704C289.361 285.704 290.017 285.585 290.637 285.348C291.268 285.1 291.826 284.748 292.311 284.294C292.797 283.829 293.18 283.265 293.459 282.604C293.738 281.943 293.877 281.199 293.877 280.372V266.437H297.659V280.465C297.659 282.232 297.277 283.772 296.512 285.084C295.758 286.397 294.704 287.414 293.35 288.138C292.007 288.861 290.446 289.223 288.669 289.223ZM301.991 288.758V266.437H305.773L316.127 282.17V266.437H319.909V288.758H316.127L305.773 273.025V288.758H301.991ZM324.243 288.758V266.437H328.025L338.379 282.17V266.437H342.161V288.758H338.379L328.025 273.025V288.758H324.243ZM351.919 288.758V279.613L344.324 266.437H348.68L353.81 275.334L358.926 266.437H363.281L355.702 279.613V288.758H351.919ZM370.411 288.758V266.437H377.526C377.712 266.437 378.079 266.442 378.626 266.453C379.184 266.463 379.722 266.499 380.238 266.561C382.005 266.788 383.499 267.419 384.718 268.452C385.948 269.475 386.878 270.782 387.508 272.374C388.138 273.965 388.454 275.706 388.454 277.597C388.454 279.489 388.138 281.23 387.508 282.821C386.878 284.413 385.948 285.725 384.718 286.758C383.499 287.781 382.005 288.406 380.238 288.634C379.732 288.696 379.2 288.732 378.642 288.742C378.084 288.753 377.712 288.758 377.526 288.758H370.411ZM374.209 285.239H377.526C377.836 285.239 378.228 285.229 378.704 285.208C379.189 285.188 379.618 285.141 379.99 285.069C381.044 284.872 381.902 284.402 382.563 283.658C383.225 282.914 383.71 282.01 384.02 280.946C384.341 279.881 384.501 278.765 384.501 277.597C384.501 276.388 384.341 275.252 384.02 274.187C383.7 273.123 383.204 272.229 382.532 271.506C381.871 270.782 381.024 270.323 379.99 270.126C379.618 270.044 379.189 269.997 378.704 269.987C378.228 269.966 377.836 269.956 377.526 269.956H374.209V285.239ZM389.962 288.758L396.999 266.437H402.471L409.508 288.758H405.664L399.278 268.731H400.115L393.806 288.758H389.962ZM393.884 283.922V280.434H405.602V283.922H393.884ZM412.311 288.758V266.437H416.093L426.447 282.17V266.437H430.229V288.758H426.447L416.093 273.025V288.758H412.311ZM444.002 289.223C441.77 289.223 439.859 288.737 438.267 287.766C436.676 286.784 435.451 285.42 434.594 283.674C433.746 281.927 433.322 279.902 433.322 277.597C433.322 275.293 433.746 273.268 434.594 271.521C435.451 269.775 436.676 268.416 438.267 267.445C439.859 266.463 441.77 265.972 444.002 265.972C446.575 265.972 448.72 266.618 450.435 267.91C452.15 269.191 453.354 270.922 454.047 273.102L450.28 274.141C449.846 272.684 449.107 271.547 448.063 270.731C447.02 269.904 445.666 269.491 444.002 269.491C442.504 269.491 441.254 269.827 440.251 270.498C439.259 271.17 438.51 272.115 438.004 273.335C437.508 274.544 437.254 275.965 437.244 277.597C437.244 279.23 437.492 280.656 437.988 281.876C438.494 283.085 439.249 284.025 440.251 284.697C441.254 285.368 442.504 285.704 444.002 285.704C445.666 285.704 447.02 285.291 448.063 284.464C449.107 283.637 449.846 282.501 450.28 281.054L454.047 282.093C453.354 284.273 452.15 286.009 450.435 287.301C448.72 288.582 446.575 289.223 444.002 289.223ZM457.45 288.758V266.437H471.865V269.94H461.186V275.443H470.005V278.946H461.186V285.255H471.865V288.758H457.45ZM481.791 288.758V266.437H496.206V269.94H485.526V275.443H494.346V278.946H485.526V285.255H496.206V288.758H481.791ZM504.947 288.758L497.91 266.437H501.754L507.644 285.131L513.612 266.437H517.456L510.419 288.758H504.947ZM519.785 288.758V266.437H534.201V269.94H523.521V275.443H532.34V278.946H523.521V285.255H534.201V288.758H519.785ZM537.919 288.758V266.437H547.142C547.359 266.437 547.638 266.447 547.979 266.468C548.32 266.478 548.635 266.509 548.925 266.561C550.216 266.757 551.281 267.186 552.118 267.848C552.965 268.509 553.59 269.346 553.993 270.359C554.407 271.361 554.613 272.477 554.613 273.707C554.613 275.526 554.154 277.091 553.234 278.403C552.314 279.706 550.904 280.512 549.002 280.822L547.406 280.961H541.655V288.758H537.919ZM550.738 288.758L546.336 279.675L550.134 278.837L554.97 288.758H550.738ZM541.655 277.473H546.987C547.194 277.473 547.426 277.463 547.685 277.442C547.943 277.422 548.181 277.38 548.398 277.318C549.018 277.163 549.503 276.89 549.855 276.497C550.216 276.104 550.47 275.66 550.614 275.164C550.769 274.668 550.847 274.182 550.847 273.707C550.847 273.231 550.769 272.746 550.614 272.25C550.47 271.743 550.216 271.294 549.855 270.901C549.503 270.509 549.018 270.235 548.398 270.08C548.181 270.018 547.943 269.982 547.685 269.971C547.426 269.951 547.194 269.94 546.987 269.94H541.655V277.473ZM563.386 288.758V279.613L555.791 266.437H560.147L565.277 275.334L570.392 266.437H574.748L567.168 279.613V288.758H563.386ZM153.575 331.758V312.94H146.352V309.437H164.534V312.94H157.311V331.758H153.575ZM167.322 331.758V309.437H171.058V331.758H167.322ZM175.701 331.758V309.437H179.065L186.784 325.248L194.503 309.437H197.867V331.758H194.379V317.451L187.528 331.758H186.04L179.204 317.451V331.758H175.701ZM202.221 331.758V309.437H216.637V312.94H205.957V318.443H214.777V321.946H205.957V328.255H216.637V331.758H202.221ZM231.987 331.758V322.613L224.392 309.437H228.748L233.878 318.334L238.994 309.437H243.349L235.769 322.613V331.758H231.987ZM253.712 332.223C251.48 332.223 249.569 331.737 247.977 330.766C246.386 329.784 245.161 328.42 244.304 326.674C243.456 324.927 243.033 322.902 243.033 320.597C243.033 318.293 243.456 316.268 244.304 314.521C245.161 312.775 246.386 311.416 247.977 310.445C249.569 309.463 251.48 308.972 253.712 308.972C255.945 308.972 257.856 309.463 259.448 310.445C261.049 311.416 262.274 312.775 263.121 314.521C263.979 316.268 264.408 318.293 264.408 320.597C264.408 322.902 263.979 324.927 263.121 326.674C262.274 328.42 261.049 329.784 259.448 330.766C257.856 331.737 255.945 332.223 253.712 332.223ZM253.712 328.704C255.211 328.715 256.456 328.384 257.448 327.712C258.45 327.04 259.2 326.095 259.696 324.876C260.202 323.656 260.455 322.23 260.455 320.597C260.455 318.965 260.202 317.549 259.696 316.35C259.2 315.141 258.45 314.201 257.448 313.529C256.456 312.858 255.211 312.511 253.712 312.491C252.214 312.48 250.969 312.811 249.977 313.483C248.985 314.154 248.236 315.1 247.729 316.319C247.233 317.539 246.985 318.965 246.985 320.597C246.985 322.23 247.233 323.651 247.729 324.86C248.225 326.059 248.969 326.994 249.961 327.666C250.964 328.337 252.214 328.684 253.712 328.704ZM276.483 332.223C274.706 332.223 273.14 331.861 271.787 331.138C270.443 330.414 269.389 329.397 268.625 328.084C267.87 326.772 267.493 325.232 267.493 323.465V309.468L271.275 309.437V323.372C271.275 324.209 271.415 324.958 271.694 325.62C271.983 326.281 272.371 326.844 272.856 327.309C273.342 327.764 273.9 328.11 274.53 328.348C275.161 328.585 275.812 328.704 276.483 328.704C277.176 328.704 277.832 328.585 278.452 328.348C279.082 328.1 279.64 327.748 280.126 327.294C280.612 326.829 280.994 326.265 281.273 325.604C281.552 324.943 281.692 324.199 281.692 323.372V309.437H285.474V323.465C285.474 325.232 285.091 326.772 284.327 328.084C283.572 329.397 282.518 330.414 281.165 331.138C279.821 331.861 278.261 332.223 276.483 332.223ZM296.012 331.758V309.437H310.427V312.94H299.747V318.443H308.567V321.946H299.747V328.255H310.427V331.758H296.012ZM314.146 331.758V309.437H317.928L328.282 325.17V309.437H332.065V331.758H328.282L317.928 316.025V331.758H314.146ZM341.761 331.758V312.94H334.538V309.437H352.72V312.94H345.496V331.758H341.761ZM355.198 331.758V309.437H369.614V312.94H358.934V318.443H367.754V321.946H358.934V328.255H369.614V331.758H355.198ZM373.332 331.758V309.437H382.555C382.772 309.437 383.051 309.447 383.392 309.468C383.733 309.478 384.049 309.509 384.338 309.561C385.63 309.757 386.694 310.186 387.531 310.848C388.378 311.509 389.003 312.346 389.407 313.359C389.82 314.361 390.027 315.477 390.027 316.707C390.027 318.526 389.567 320.091 388.647 321.403C387.727 322.706 386.317 323.512 384.415 323.822L382.819 323.961H377.068V331.758H373.332ZM386.151 331.758L381.749 322.675L385.547 321.837L390.383 331.758H386.151ZM377.068 320.473H382.4C382.607 320.473 382.839 320.463 383.098 320.442C383.356 320.422 383.594 320.38 383.811 320.318C384.431 320.163 384.917 319.89 385.268 319.497C385.63 319.104 385.883 318.66 386.027 318.164C386.182 317.668 386.26 317.182 386.26 316.707C386.26 316.231 386.182 315.746 386.027 315.25C385.883 314.743 385.63 314.294 385.268 313.901C384.917 313.509 384.431 313.235 383.811 313.08C383.594 313.018 383.356 312.982 383.098 312.971C382.839 312.951 382.607 312.94 382.4 312.94H377.068V320.473ZM398.454 331.758L405.491 309.437H410.963L418 331.758H414.156L407.77 311.731H408.607L402.298 331.758H398.454ZM402.376 326.922V323.434H414.094V326.922H402.376ZM427.009 331.758V309.437H436.232C436.449 309.437 436.728 309.447 437.069 309.468C437.41 309.478 437.725 309.509 438.014 309.561C439.306 309.757 440.37 310.186 441.208 310.848C442.055 311.509 442.68 312.346 443.083 313.359C443.496 314.361 443.703 315.477 443.703 316.707C443.703 318.526 443.243 320.091 442.324 321.403C441.404 322.706 439.993 323.512 438.092 323.822L436.495 323.961H430.745V331.758H427.009ZM439.828 331.758L435.426 322.675L439.223 321.837L444.06 331.758H439.828ZM430.745 320.473H436.077C436.284 320.473 436.516 320.463 436.774 320.442C437.033 320.422 437.27 320.38 437.487 320.318C438.107 320.163 438.593 319.89 438.944 319.497C439.306 319.104 439.559 318.66 439.704 318.164C439.859 317.668 439.936 317.182 439.936 316.707C439.936 316.231 439.859 315.746 439.704 315.25C439.559 314.743 439.306 314.294 438.944 313.901C438.593 313.509 438.107 313.235 437.487 313.08C437.27 313.018 437.033 312.982 436.774 312.971C436.516 312.951 436.284 312.94 436.077 312.94H430.745V320.473ZM456.914 332.223C454.682 332.223 452.771 331.737 451.179 330.766C449.588 329.784 448.363 328.42 447.506 326.674C446.658 324.927 446.235 322.902 446.235 320.597C446.235 318.293 446.658 316.268 447.506 314.521C448.363 312.775 449.588 311.416 451.179 310.445C452.771 309.463 454.682 308.972 456.914 308.972C459.146 308.972 461.058 309.463 462.65 310.445C464.251 311.416 465.476 312.775 466.323 314.521C467.181 316.268 467.61 318.293 467.61 320.597C467.61 322.902 467.181 324.927 466.323 326.674C465.476 328.42 464.251 329.784 462.65 330.766C461.058 331.737 459.146 332.223 456.914 332.223ZM456.914 328.704C458.413 328.715 459.658 328.384 460.65 327.712C461.652 327.04 462.402 326.095 462.898 324.876C463.404 323.656 463.657 322.23 463.657 320.597C463.657 318.965 463.404 317.549 462.898 316.35C462.402 315.141 461.652 314.201 460.65 313.529C459.658 312.858 458.413 312.511 456.914 312.491C455.416 312.48 454.171 312.811 453.179 313.483C452.187 314.154 451.438 315.1 450.931 316.319C450.435 317.539 450.187 318.965 450.187 320.597C450.187 322.23 450.435 323.651 450.931 324.86C451.427 326.059 452.171 326.994 453.163 327.666C454.166 328.337 455.416 328.684 456.914 328.704ZM480.135 332.223C477.903 332.223 475.991 331.737 474.4 330.766C472.808 329.784 471.584 328.42 470.726 326.674C469.879 324.927 469.455 322.902 469.455 320.597C469.455 318.293 469.879 316.268 470.726 314.521C471.584 312.775 472.808 311.416 474.4 310.445C475.991 309.463 477.903 308.972 480.135 308.972C482.367 308.972 484.279 309.463 485.87 310.445C487.472 311.416 488.696 312.775 489.544 314.521C490.401 316.268 490.83 318.293 490.83 320.597C490.83 322.902 490.401 324.927 489.544 326.674C488.696 328.42 487.472 329.784 485.87 330.766C484.279 331.737 482.367 332.223 480.135 332.223ZM480.135 328.704C481.633 328.715 482.878 328.384 483.87 327.712C484.873 327.04 485.622 326.095 486.118 324.876C486.624 323.656 486.878 322.23 486.878 320.597C486.878 318.965 486.624 317.549 486.118 316.35C485.622 315.141 484.873 314.201 483.87 313.529C482.878 312.858 481.633 312.511 480.135 312.491C478.636 312.48 477.391 312.811 476.399 313.483C475.407 314.154 474.658 315.1 474.152 316.319C473.656 317.539 473.408 318.965 473.408 320.597C473.408 322.23 473.656 323.651 474.152 324.86C474.648 326.059 475.392 326.994 476.384 327.666C477.386 328.337 478.636 328.684 480.135 328.704ZM493.916 331.758V309.437H497.279L504.998 325.248L512.718 309.437H516.081V331.758H512.594V317.451L505.742 331.758H504.254L497.419 317.451V331.758H493.916Z" fill="white"></path><rect y="525.91" width="664.307" height="332.154" rx="22.1436" fill="#55ACEE"></rect><path d="M58.1609 681.807V659.486H61.5245L69.2437 675.296L76.963 659.486H80.3266V681.807H76.839V667.5L69.9878 681.807H68.4997L61.664 667.5V681.807H58.1609ZM93.6716 682.272C91.8942 682.272 90.3286 681.91 88.9749 681.187C87.6315 680.463 86.5775 679.445 85.8128 678.133C85.0585 676.821 84.6813 675.281 84.6813 673.514V659.517L88.4634 659.486V673.421C88.4634 674.258 88.6029 675.007 88.8819 675.668C89.1713 676.33 89.5588 676.893 90.0445 677.358C90.5301 677.813 91.0882 678.159 91.7185 678.397C92.3489 678.634 92.9999 678.753 93.6716 678.753C94.3639 678.753 95.0201 678.634 95.6401 678.397C96.2705 678.149 96.8285 677.797 97.3142 677.342C97.7999 676.877 98.1822 676.314 98.4612 675.653C98.7402 674.992 98.8797 674.248 98.8797 673.421V659.486H102.662V673.514C102.662 675.281 102.28 676.821 101.515 678.133C100.76 679.445 99.7064 680.463 98.3527 681.187C97.0093 681.91 95.449 682.272 93.6716 682.272ZM114.317 682.272C112.684 682.272 111.212 681.987 109.899 681.419C108.597 680.851 107.522 680.04 106.675 678.986C105.838 677.921 105.306 676.66 105.078 675.203L108.954 674.614C109.284 675.937 109.961 676.96 110.984 677.684C112.018 678.407 113.206 678.769 114.549 678.769C115.345 678.769 116.094 678.645 116.797 678.397C117.5 678.149 118.068 677.787 118.502 677.311C118.946 676.836 119.168 676.252 119.168 675.56C119.168 675.25 119.117 674.966 119.013 674.707C118.91 674.439 118.755 674.201 118.548 673.994C118.352 673.788 118.094 673.602 117.773 673.436C117.463 673.261 117.102 673.111 116.688 672.987L110.922 671.282C110.426 671.137 109.889 670.946 109.31 670.708C108.742 670.46 108.199 670.124 107.683 669.701C107.176 669.267 106.758 668.719 106.427 668.058C106.107 667.386 105.947 666.559 105.947 665.578C105.947 664.141 106.308 662.937 107.032 661.966C107.765 660.984 108.747 660.251 109.977 659.765C111.217 659.279 112.591 659.042 114.1 659.052C115.629 659.062 116.993 659.326 118.192 659.842C119.391 660.349 120.393 661.088 121.199 662.059C122.005 663.03 122.573 664.203 122.904 665.578L118.889 666.275C118.724 665.49 118.404 664.823 117.928 664.276C117.463 663.718 116.89 663.294 116.208 663.005C115.536 662.715 114.818 662.56 114.053 662.54C113.309 662.529 112.617 662.643 111.976 662.881C111.346 663.108 110.834 663.439 110.442 663.873C110.059 664.307 109.868 664.813 109.868 665.392C109.868 665.939 110.033 666.389 110.364 666.74C110.695 667.081 111.103 667.355 111.589 667.562C112.085 667.758 112.586 667.923 113.092 668.058L117.091 669.174C117.639 669.318 118.254 669.515 118.936 669.763C119.618 670.011 120.274 670.357 120.905 670.801C121.535 671.246 122.052 671.829 122.455 672.553C122.868 673.276 123.075 674.196 123.075 675.312C123.075 676.469 122.832 677.487 122.346 678.366C121.871 679.234 121.225 679.957 120.408 680.536C119.592 681.114 118.657 681.548 117.603 681.838C116.559 682.127 115.464 682.272 114.317 682.272ZM131.793 681.807V662.989H124.57V659.486H142.752V662.989H135.529V681.807H131.793ZM155.861 681.807V662.989H148.638V659.486H166.82V662.989H159.597V681.807H155.861ZM169.298 681.807V659.486H183.714V662.989H173.034V668.492H181.854V671.995H173.034V678.304H183.714V681.807H169.298ZM187.743 681.807V659.486H191.478V678.304H201.337V681.807H187.743ZM204.273 681.807V659.486H208.008V678.304H217.866V681.807H204.273ZM223.605 681.807L230.642 659.486H236.113L243.151 681.807H239.307L232.92 661.78H233.757L227.449 681.807H223.605ZM227.526 676.97V673.483H239.245V676.97H227.526ZM256.624 682.272C254.918 682.272 253.498 681.827 252.361 680.939C251.235 680.05 250.444 678.851 249.989 677.342L253.678 676.459C253.792 677.089 254.123 677.632 254.67 678.087C255.218 678.541 255.823 678.769 256.484 678.769C256.918 678.769 257.378 678.655 257.864 678.428C258.349 678.19 258.711 677.813 258.949 677.296C259.093 676.965 259.176 676.573 259.197 676.118C259.228 675.653 259.243 675.116 259.243 674.506V659.486H263.025V674.506C263.025 675.198 263.02 675.808 263.01 676.335C263.01 676.852 262.958 677.342 262.855 677.808C262.762 678.262 262.571 678.732 262.281 679.218C261.672 680.272 260.876 681.047 259.894 681.543C258.912 682.029 257.822 682.272 256.624 682.272ZM277.13 682.272C274.898 682.272 272.986 681.786 271.395 680.815C269.803 679.833 268.579 678.469 267.721 676.722C266.874 674.976 266.45 672.951 266.45 670.646C266.45 668.342 266.874 666.316 267.721 664.57C268.579 662.824 269.803 661.465 271.395 660.493C272.986 659.512 274.898 659.021 277.13 659.021C279.362 659.021 281.274 659.512 282.865 660.493C284.467 661.465 285.691 662.824 286.539 664.57C287.396 666.316 287.825 668.342 287.825 670.646C287.825 672.951 287.396 674.976 286.539 676.722C285.691 678.469 284.467 679.833 282.865 680.815C281.274 681.786 279.362 682.272 277.13 682.272ZM277.13 678.753C278.628 678.763 279.874 678.433 280.866 677.761C281.868 677.089 282.617 676.144 283.113 674.924C283.62 673.705 283.873 672.279 283.873 670.646C283.873 669.014 283.62 667.598 283.113 666.399C282.617 665.19 281.868 664.25 280.866 663.578C279.874 662.906 278.628 662.56 277.13 662.54C275.632 662.529 274.386 662.86 273.394 663.532C272.402 664.203 271.653 665.149 271.147 666.368C270.651 667.588 270.403 669.014 270.403 670.646C270.403 672.279 270.651 673.7 271.147 674.909C271.643 676.108 272.387 677.043 273.379 677.715C274.381 678.386 275.632 678.732 277.13 678.753ZM290.911 681.807V659.486H294.646V669.84L303.559 659.486H308.147L298.552 670.429L308.798 681.807H304.055L294.646 671.39V681.807H290.911ZM310.983 681.807V659.486H325.398V662.989H314.718V668.492H323.538V671.995H314.718V678.304H325.398V681.807H310.983ZM340.686 681.807V662.989H333.463V659.486H351.645V662.989H344.422V681.807H340.686ZM363.563 682.272C361.331 682.272 359.42 681.786 357.828 680.815C356.237 679.833 355.012 678.469 354.155 676.722C353.307 674.976 352.884 672.951 352.884 670.646C352.884 668.342 353.307 666.316 354.155 664.57C355.012 662.824 356.237 661.465 357.828 660.493C359.42 659.512 361.331 659.021 363.563 659.021C365.796 659.021 367.707 659.512 369.299 660.493C370.9 661.465 372.125 662.824 372.972 664.57C373.83 666.316 374.259 668.342 374.259 670.646C374.259 672.951 373.83 674.976 372.972 676.722C372.125 678.469 370.9 679.833 369.299 680.815C367.707 681.786 365.796 682.272 363.563 682.272ZM363.563 678.753C365.062 678.763 366.307 678.433 367.299 677.761C368.301 677.089 369.051 676.144 369.547 674.924C370.053 673.705 370.306 672.279 370.306 670.646C370.306 669.014 370.053 667.598 369.547 666.399C369.051 665.19 368.301 664.25 367.299 663.578C366.307 662.906 365.062 662.56 363.563 662.54C362.065 662.529 360.82 662.86 359.828 663.532C358.836 664.203 358.087 665.149 357.58 666.368C357.084 667.588 356.836 669.014 356.836 670.646C356.836 672.279 357.084 673.7 357.58 674.909C358.076 676.108 358.82 677.043 359.812 677.715C360.815 678.386 362.065 678.732 363.563 678.753ZM383.55 681.807V659.486H397.966V662.989H387.286V668.492H396.106V671.995H387.286V678.304H397.966V681.807H383.55ZM406.707 681.807L399.67 659.486H403.514L409.404 678.18L415.372 659.486H419.216L412.179 681.807H406.707ZM421.545 681.807V659.486H435.96V662.989H425.28V668.492H434.1V671.995H425.28V678.304H435.96V681.807H421.545ZM439.679 681.807V659.486H448.902C449.119 659.486 449.398 659.496 449.739 659.517C450.08 659.527 450.395 659.558 450.685 659.61C451.976 659.806 453.041 660.235 453.878 660.896C454.725 661.558 455.35 662.395 455.753 663.408C456.167 664.41 456.373 665.526 456.373 666.756C456.373 668.574 455.913 670.14 454.994 671.452C454.074 672.754 452.663 673.56 450.762 673.87L449.166 674.01H443.415V681.807H439.679ZM452.498 681.807L448.096 672.723L451.894 671.886L456.73 681.807H452.498ZM443.415 670.522H448.747C448.954 670.522 449.186 670.512 449.445 670.491C449.703 670.471 449.941 670.429 450.158 670.367C450.778 670.212 451.263 669.938 451.615 669.546C451.976 669.153 452.229 668.709 452.374 668.213C452.529 667.717 452.607 667.231 452.607 666.756C452.607 666.28 452.529 665.795 452.374 665.299C452.229 664.792 451.976 664.343 451.615 663.95C451.263 663.557 450.778 663.284 450.158 663.129C449.941 663.067 449.703 663.03 449.445 663.02C449.186 662.999 448.954 662.989 448.747 662.989H443.415V670.522ZM465.146 681.807V672.661L457.551 659.486H461.906L467.037 668.383L472.152 659.486H476.508L468.928 672.661V681.807H465.146ZM486.871 682.272C484.639 682.272 482.727 681.786 481.136 680.815C479.545 679.833 478.32 678.469 477.462 676.722C476.615 674.976 476.191 672.951 476.191 670.646C476.191 668.342 476.615 666.316 477.462 664.57C478.32 662.824 479.545 661.465 481.136 660.493C482.727 659.512 484.639 659.021 486.871 659.021C489.103 659.021 491.015 659.512 492.606 660.493C494.208 661.465 495.433 662.824 496.28 664.57C497.138 666.316 497.567 668.342 497.567 670.646C497.567 672.951 497.138 674.976 496.28 676.722C495.433 678.469 494.208 679.833 492.606 680.815C491.015 681.786 489.103 682.272 486.871 682.272ZM486.871 678.753C488.37 678.763 489.615 678.433 490.607 677.761C491.609 677.089 492.358 676.144 492.854 674.924C493.361 673.705 493.614 672.279 493.614 670.646C493.614 669.014 493.361 667.598 492.854 666.399C492.358 665.19 491.609 664.25 490.607 663.578C489.615 662.906 488.37 662.56 486.871 662.54C485.373 662.529 484.128 662.86 483.136 663.532C482.144 664.203 481.394 665.149 480.888 666.368C480.392 667.588 480.144 669.014 480.144 670.646C480.144 672.279 480.392 673.7 480.888 674.909C481.384 676.108 482.128 677.043 483.12 677.715C484.122 678.386 485.373 678.732 486.871 678.753ZM500.652 681.807V659.486H504.434L514.788 675.219V659.486H518.57V681.807H514.788L504.434 666.074V681.807H500.652ZM522.904 681.807V659.486H537.319V662.989H526.639V668.492H535.459V671.995H526.639V678.304H537.319V681.807H522.904ZM552.669 681.807V672.661L545.074 659.486H549.43L554.56 668.383L559.676 659.486H564.031L556.451 672.661V681.807H552.669ZM574.395 682.272C572.162 682.272 570.251 681.786 568.659 680.815C567.068 679.833 565.843 678.469 564.986 676.722C564.138 674.976 563.715 672.951 563.715 670.646C563.715 668.342 564.138 666.316 564.986 664.57C565.843 662.824 567.068 661.465 568.659 660.493C570.251 659.512 572.162 659.021 574.395 659.021C576.627 659.021 578.538 659.512 580.13 660.493C581.731 661.465 582.956 662.824 583.803 664.57C584.661 666.316 585.09 668.342 585.09 670.646C585.09 672.951 584.661 674.976 583.803 676.722C582.956 678.469 581.731 679.833 580.13 680.815C578.538 681.786 576.627 682.272 574.395 682.272ZM574.395 678.753C575.893 678.763 577.138 678.433 578.13 677.761C579.133 677.089 579.882 676.144 580.378 674.924C580.884 673.705 581.137 672.279 581.137 670.646C581.137 669.014 580.884 667.598 580.378 666.399C579.882 665.19 579.133 664.25 578.13 663.578C577.138 662.906 575.893 662.56 574.395 662.54C572.896 662.529 571.651 662.86 570.659 663.532C569.667 664.203 568.918 665.149 568.411 666.368C567.915 667.588 567.667 669.014 567.667 670.646C567.667 672.279 567.915 673.7 568.411 674.909C568.907 676.108 569.651 677.043 570.643 677.715C571.646 678.386 572.896 678.732 574.395 678.753ZM597.165 682.272C595.388 682.272 593.823 681.91 592.469 681.187C591.125 680.463 590.071 679.445 589.307 678.133C588.552 676.821 588.175 675.281 588.175 673.514V659.517L591.957 659.486V673.421C591.957 674.258 592.097 675.007 592.376 675.668C592.665 676.33 593.053 676.893 593.538 677.358C594.024 677.813 594.582 678.159 595.212 678.397C595.843 678.634 596.494 678.753 597.165 678.753C597.858 678.753 598.514 678.634 599.134 678.397C599.764 678.149 600.322 677.797 600.808 677.342C601.294 676.877 601.676 676.314 601.955 675.653C602.234 674.992 602.374 674.248 602.374 673.421V659.486H606.156V673.514C606.156 675.281 605.773 676.821 605.009 678.133C604.254 679.445 603.2 680.463 601.847 681.187C600.503 681.91 598.943 682.272 597.165 682.272ZM293.529 724.807V702.486H296.893L304.612 718.296L312.332 702.486H315.695V724.807H312.208V710.5L305.356 724.807H303.868L297.033 710.5V724.807H293.529ZM320.05 724.807V702.486H334.465V705.989H323.785V711.492H332.605V714.995H323.785V721.304H334.465V724.807H320.05ZM338.184 724.807V702.486H352.6V705.989H341.92V711.492H350.74V714.995H341.92V721.304H352.6V724.807H338.184ZM361.682 724.807V705.989H354.459V702.486H372.641V705.989H365.417V724.807H361.682Z" fill="white"></path><circle cx="332.153" cy="496.017" r="66.4307" fill="#F9F9F9"></circle><path d="M319.002 510.172C316.291 510.172 313.97 509.582 312.038 508.403C310.105 507.211 308.618 505.554 307.577 503.434C306.548 501.313 306.033 498.854 306.033 496.056C306.033 493.257 306.548 490.798 307.577 488.677C308.618 486.557 310.105 484.907 312.038 483.727C313.97 482.535 316.291 481.939 319.002 481.939C321.712 481.939 324.034 482.535 325.966 483.727C327.911 484.907 329.398 486.557 330.427 488.677C331.468 490.798 331.989 493.257 331.989 496.056C331.989 498.854 331.468 501.313 330.427 503.434C329.398 505.554 327.911 507.211 325.966 508.403C324.034 509.582 321.712 510.172 319.002 510.172ZM319.002 505.899C320.821 505.912 322.333 505.51 323.538 504.695C324.755 503.879 325.665 502.731 326.267 501.25C326.882 499.77 327.189 498.038 327.189 496.056C327.189 494.073 326.882 492.354 326.267 490.898C325.665 489.43 324.755 488.288 323.538 487.473C322.333 486.657 320.821 486.237 319.002 486.212C317.182 486.199 315.67 486.601 314.466 487.416C313.261 488.232 312.351 489.38 311.736 490.861C311.134 492.341 310.833 494.073 310.833 496.056C310.833 498.038 311.134 499.763 311.736 501.232C312.339 502.687 313.242 503.823 314.447 504.638C315.664 505.454 317.182 505.874 319.002 505.899ZM335.735 509.607V482.504H346.935C347.198 482.504 347.537 482.516 347.951 482.541C348.365 482.554 348.748 482.592 349.099 482.654C350.668 482.893 351.96 483.413 352.976 484.216C354.005 485.02 354.765 486.036 355.254 487.266C355.756 488.483 356.007 489.838 356.007 491.331C356.007 493.54 355.448 495.441 354.332 497.034C353.215 498.615 351.502 499.594 349.193 499.971L347.255 500.14H340.272V509.607H335.735ZM351.301 509.607L345.956 498.578L350.567 497.561L356.44 509.607H351.301ZM340.272 495.905H346.746C346.997 495.905 347.28 495.892 347.593 495.867C347.907 495.842 348.196 495.792 348.459 495.717C349.212 495.529 349.802 495.196 350.228 494.719C350.668 494.242 350.975 493.703 351.151 493.1C351.339 492.498 351.433 491.908 351.433 491.331C351.433 490.754 351.339 490.164 351.151 489.562C350.975 488.947 350.668 488.401 350.228 487.924C349.802 487.448 349.212 487.115 348.459 486.927C348.196 486.852 347.907 486.808 347.593 486.795C347.28 486.77 346.997 486.757 346.746 486.757H340.272V495.905Z" fill="#3E1BC9"></path></g><defs><clipPath id="clip0_3762_320"><rect width="664.307" height="858.064" rx="22" fill="white"></rect></clipPath></defs></svg> 