<?xml version="1.0" encoding="UTF-8"?> <svg xmlns="http://www.w3.org/2000/svg" width="665" height="859" viewBox="0 0 665 859" fill="none"><g clip-path="url(#clip0_3762_322)"><rect width="664.307" height="858.064" rx="22" fill="#F9F9F9"></rect><path d="M142.721 80.0234L134.797 52.9197H139.559L144.961 72.4946L150.344 52.9573L155.106 52.9197L160.508 72.4946L165.891 52.9197H170.653L162.748 80.0234H158.268L152.715 60.7497L147.201 80.0234H142.721ZM184.451 80.5881C181.741 80.5881 179.42 79.9983 177.487 78.8188C175.555 77.6268 174.068 75.9704 173.026 73.8498C171.998 71.7292 171.483 69.2698 171.483 66.4716C171.483 63.6734 171.998 61.2139 173.026 59.0933C174.068 56.9727 175.555 55.3226 177.487 54.1431C179.42 52.9511 181.741 52.355 184.451 52.355C187.162 52.355 189.483 52.9511 191.416 54.1431C193.361 55.3226 194.848 56.9727 195.876 59.0933C196.918 61.2139 197.439 63.6734 197.439 66.4716C197.439 69.2698 196.918 71.7292 195.876 73.8498C194.848 75.9704 193.361 77.6268 191.416 78.8188C189.483 79.9983 187.162 80.5881 184.451 80.5881ZM184.451 76.3155C186.271 76.328 187.783 75.9265 188.988 75.1109C190.205 74.2953 191.114 73.1471 191.717 71.6664C192.332 70.1858 192.639 68.4542 192.639 66.4716C192.639 64.489 192.332 62.7699 191.717 61.3143C191.114 59.8462 190.205 58.7043 188.988 57.8887C187.783 57.0731 186.271 56.6527 184.451 56.6276C182.632 56.6151 181.12 57.0166 179.915 57.8322C178.711 58.6479 177.801 59.796 177.186 61.2767C176.584 62.7573 176.283 64.489 176.283 66.4716C176.283 68.4542 176.584 70.1795 177.186 71.6476C177.788 73.1032 178.692 74.2388 179.897 75.0544C181.114 75.87 182.632 76.2904 184.451 76.3155ZM212.102 80.5881C209.944 80.5881 208.043 80.1489 206.399 79.2706C204.768 78.3922 203.488 77.1562 202.559 75.5626C201.643 73.969 201.185 72.0994 201.185 69.9536V52.9573L205.778 52.9197V69.8407C205.778 70.8571 205.947 71.7668 206.286 72.5699C206.637 73.373 207.108 74.0568 207.698 74.6215C208.287 75.1736 208.965 75.594 209.73 75.8826C210.496 76.1712 211.286 76.3155 212.102 76.3155C212.943 76.3155 213.739 76.1712 214.492 75.8826C215.258 75.5814 215.935 75.1548 216.525 74.6027C217.115 74.038 217.579 73.3542 217.918 72.5511C218.257 71.748 218.426 70.8446 218.426 69.8407V52.9197H223.019V69.9536C223.019 72.0994 222.554 73.969 221.626 75.5626C220.71 77.1562 219.43 78.3922 217.786 79.2706C216.155 80.1489 214.26 80.5881 212.102 80.5881ZM228.655 80.0234V52.9197H233.191V75.7697H245.162V80.0234H228.655ZM248.351 80.0234V52.9197H256.99C257.216 52.9197 257.661 52.926 258.326 52.9385C259.004 52.9511 259.656 52.995 260.284 53.0703C262.429 53.3463 264.243 54.1118 265.723 55.3666C267.217 56.6088 268.346 58.1961 269.111 60.1285C269.877 62.0609 270.259 64.1753 270.259 66.4716C270.259 68.7679 269.877 70.8822 269.111 72.8146C268.346 74.747 267.217 76.3406 265.723 77.5954C264.243 78.8376 262.429 79.5968 260.284 79.8729C259.669 79.9481 259.023 79.9921 258.345 80.0046C257.667 80.0172 257.216 80.0234 256.99 80.0234H248.351ZM252.962 75.7508H256.99C257.366 75.7508 257.843 75.7383 258.42 75.7132C259.01 75.6881 259.531 75.6316 259.983 75.5438C261.262 75.3054 262.304 74.7344 263.107 73.831C263.91 72.9275 264.5 71.8296 264.876 70.5371C265.265 69.2447 265.46 67.8895 265.46 66.4716C265.46 65.0034 265.265 63.6232 264.876 62.3307C264.487 61.0383 263.885 59.9529 263.069 59.0745C262.266 58.1961 261.237 57.6378 259.983 57.3993C259.531 57.299 259.01 57.2425 258.42 57.2299C257.843 57.2048 257.366 57.1923 256.99 57.1923H252.962V75.7508ZM288.833 80.0234V68.9184L279.61 52.9197H284.899L291.129 63.7235L297.34 52.9197H302.629L293.425 68.9184V80.0234H288.833ZM315.213 80.5881C312.503 80.5881 310.181 79.9983 308.249 78.8188C306.317 77.6268 304.83 75.9704 303.788 73.8498C302.759 71.7292 302.245 69.2698 302.245 66.4716C302.245 63.6734 302.759 61.2139 303.788 59.0933C304.83 56.9727 306.317 55.3226 308.249 54.1431C310.181 52.9511 312.503 52.355 315.213 52.355C317.924 52.355 320.245 52.9511 322.177 54.1431C324.122 55.3226 325.609 56.9727 326.638 59.0933C327.68 61.2139 328.2 63.6734 328.2 66.4716C328.2 69.2698 327.68 71.7292 326.638 73.8498C325.609 75.9704 324.122 77.6268 322.177 78.8188C320.245 79.9983 317.924 80.5881 315.213 80.5881ZM315.213 76.3155C317.033 76.328 318.545 75.9265 319.749 75.1109C320.966 74.2953 321.876 73.1471 322.478 71.6664C323.093 70.1858 323.401 68.4542 323.401 66.4716C323.401 64.489 323.093 62.7699 322.478 61.3143C321.876 59.8462 320.966 58.7043 319.749 57.8887C318.545 57.0731 317.033 56.6527 315.213 56.6276C313.394 56.6151 311.882 57.0166 310.677 57.8322C309.472 58.6479 308.563 59.796 307.948 61.2767C307.346 62.7573 307.044 64.489 307.044 66.4716C307.044 68.4542 307.346 70.1795 307.948 71.6476C308.55 73.1032 309.454 74.2388 310.658 75.0544C311.875 75.87 313.394 76.2904 315.213 76.3155ZM342.864 80.5881C340.705 80.5881 338.804 80.1489 337.161 79.2706C335.529 78.3922 334.249 77.1562 333.321 75.5626C332.405 73.969 331.947 72.0994 331.947 69.9536V52.9573L336.539 52.9197V69.8407C336.539 70.8571 336.709 71.7668 337.048 72.5699C337.399 73.373 337.87 74.0568 338.459 74.6215C339.049 75.1736 339.727 75.594 340.492 75.8826C341.258 76.1712 342.048 76.3155 342.864 76.3155C343.704 76.3155 344.501 76.1712 345.254 75.8826C346.019 75.5814 346.697 75.1548 347.287 74.6027C347.877 74.038 348.341 73.3542 348.68 72.5511C349.018 71.748 349.188 70.8446 349.188 69.8407V52.9197H353.78V69.9536C353.78 72.0994 353.316 73.969 352.388 75.5626C351.472 77.1562 350.192 78.3922 348.548 79.2706C346.917 80.1489 345.022 80.5881 342.864 80.5881ZM366.576 80.0234V52.9197H377.776C378.039 52.9197 378.378 52.9322 378.792 52.9573C379.206 52.9699 379.589 53.0075 379.94 53.0703C381.509 53.3087 382.801 53.8294 383.817 54.6325C384.846 55.4356 385.606 56.452 386.095 57.6817C386.597 58.8988 386.848 60.254 386.848 61.7472C386.848 63.9557 386.289 65.8567 385.173 67.4503C384.056 69.0314 382.343 70.0101 380.034 70.3866L378.096 70.5559H371.113V80.0234H366.576ZM382.142 80.0234L376.797 68.9937L381.408 67.9773L387.281 80.0234H382.142ZM371.113 66.321H377.587C377.838 66.321 378.121 66.3084 378.434 66.2833C378.748 66.2582 379.037 66.2081 379.3 66.1328C380.053 65.9445 380.643 65.612 381.069 65.1352C381.509 64.6584 381.816 64.1188 381.992 63.5165C382.18 62.9142 382.274 62.3244 382.274 61.7472C382.274 61.17 382.18 60.5803 381.992 59.978C381.816 59.3631 381.509 58.8173 381.069 58.3404C380.643 57.8636 380.053 57.5311 379.3 57.3429C379.037 57.2676 378.748 57.2237 378.434 57.2111C378.121 57.186 377.838 57.1735 377.587 57.1735H371.113V66.321ZM389.545 80.0234L398.09 52.9197H404.735L413.28 80.0234H408.612L400.857 55.7054H401.874L394.213 80.0234H389.545ZM394.307 74.151V69.916H408.537V74.151H394.307ZM420.953 80.0234V57.1735H412.182V52.9197H434.26V57.1735H425.489V80.0234H420.953ZM437.269 80.0234V52.9197H441.806V64.3259H454.642V52.9197H459.159V80.0234H454.642V68.5796H441.806V80.0234H437.269ZM464.436 80.0234V52.9197H481.941V57.1735H468.973V63.8553H479.682V68.1091H468.973V75.7697H481.941V80.0234H464.436ZM486.457 80.0234V52.9197H497.656C497.919 52.9197 498.258 52.9322 498.672 52.9573C499.086 52.9699 499.469 53.0075 499.82 53.0703C501.389 53.3087 502.681 53.8294 503.698 54.6325C504.727 55.4356 505.486 56.452 505.975 57.6817C506.477 58.8988 506.728 60.254 506.728 61.7472C506.728 63.9557 506.17 65.8567 505.053 67.4503C503.936 69.0314 502.223 70.0101 499.915 70.3866L497.976 70.5559H490.993V80.0234H486.457ZM502.023 80.0234L496.677 68.9937L501.289 67.9773L507.161 80.0234H502.023ZM490.993 66.321H497.468C497.719 66.321 498.001 66.3084 498.315 66.2833C498.628 66.2582 498.917 66.2081 499.18 66.1328C499.933 65.9445 500.523 65.612 500.95 65.1352C501.389 64.6584 501.696 64.1188 501.872 63.5165C502.06 62.9142 502.154 62.3244 502.154 61.7472C502.154 61.17 502.06 60.5803 501.872 59.978C501.696 59.3631 501.389 58.8173 500.95 58.3404C500.523 57.8636 499.933 57.5311 499.18 57.3429C498.917 57.2676 498.628 57.2237 498.315 57.2111C498.001 57.186 497.719 57.1735 497.468 57.1735H490.993V66.321ZM516.22 72.664C516.22 71.7982 516.302 70.9638 516.465 70.1607C516.641 69.3451 516.923 68.5922 517.312 67.902C517.651 67.237 518.027 66.71 518.441 66.321C518.855 65.9195 519.32 65.5242 519.834 65.1352C520.349 64.7337 520.919 64.2004 521.547 63.5353C522.061 62.9707 522.4 62.4123 522.563 61.8602C522.726 61.2955 522.808 60.6932 522.808 60.0532C522.808 59.6392 522.764 59.2502 522.676 58.8863C522.588 58.5224 522.432 58.2087 522.206 57.9452C521.854 57.4809 521.403 57.1547 520.85 56.9664C520.298 56.7657 519.709 56.6653 519.081 56.6653C518.567 56.6653 518.071 56.7343 517.594 56.8723C517.13 56.9978 516.735 57.1986 516.408 57.4746C516.032 57.7758 515.756 58.1459 515.58 58.5851C515.405 59.0243 515.323 59.5074 515.336 60.0344H510.555C510.68 58.7796 511.019 57.6189 511.571 56.5523C512.136 55.4732 512.876 54.6137 513.792 53.9737C514.507 53.4467 515.311 53.0514 516.201 52.7879C517.105 52.5244 518.008 52.3927 518.912 52.3927C520.292 52.3927 521.591 52.606 522.808 53.0326C524.038 53.4593 525.06 54.1619 525.876 55.1407C526.441 55.7806 526.867 56.521 527.156 57.3617C527.457 58.2024 527.608 59.0557 527.608 59.9215C527.608 61.2139 527.325 62.3935 526.761 63.46C526.208 64.5266 525.506 65.5116 524.653 66.4151C524.251 66.8417 523.868 67.2182 523.504 67.5444C523.14 67.8707 522.802 68.1906 522.488 68.5043C522.187 68.8055 521.936 69.1255 521.735 69.4643C521.384 70.054 521.177 70.5559 521.114 70.97C521.051 71.3716 521.02 71.9362 521.02 72.664H516.22ZM516.258 80.0234V75.0356H521.02V80.0234H516.258Z" fill="#3E1BC9"></path><rect y="132.861" width="664.307" height="332.154" rx="22.1436" fill="#3E1BC9"></rect><path d="M168.175 289.223C166.542 289.223 165.069 288.939 163.757 288.37C162.455 287.802 161.38 286.991 160.533 285.937C159.696 284.872 159.164 283.612 158.936 282.155L162.812 281.566C163.142 282.888 163.819 283.911 164.842 284.635C165.875 285.358 167.064 285.72 168.407 285.72C169.203 285.72 169.952 285.596 170.655 285.348C171.357 285.1 171.926 284.738 172.36 284.263C172.804 283.787 173.026 283.203 173.026 282.511C173.026 282.201 172.975 281.917 172.871 281.659C172.768 281.39 172.613 281.152 172.406 280.946C172.21 280.739 171.952 280.553 171.631 280.388C171.321 280.212 170.96 280.062 170.546 279.938L164.78 278.233C164.284 278.088 163.747 277.897 163.168 277.659C162.6 277.411 162.057 277.076 161.54 276.652C161.034 276.218 160.616 275.67 160.285 275.009C159.965 274.337 159.804 273.51 159.804 272.529C159.804 271.092 160.166 269.889 160.889 268.917C161.623 267.935 162.605 267.202 163.835 266.716C165.075 266.23 166.449 265.993 167.958 266.003C169.487 266.013 170.851 266.277 172.05 266.794C173.249 267.3 174.251 268.039 175.057 269.01C175.863 269.982 176.431 271.154 176.762 272.529L172.747 273.226C172.582 272.441 172.262 271.774 171.786 271.227C171.321 270.669 170.748 270.245 170.066 269.956C169.394 269.666 168.676 269.511 167.911 269.491C167.167 269.48 166.475 269.594 165.834 269.832C165.204 270.059 164.692 270.39 164.3 270.824C163.917 271.258 163.726 271.764 163.726 272.343C163.726 272.89 163.891 273.34 164.222 273.691C164.553 274.032 164.961 274.306 165.447 274.513C165.943 274.709 166.444 274.875 166.95 275.009L170.949 276.125C171.497 276.27 172.112 276.466 172.794 276.714C173.476 276.962 174.132 277.308 174.762 277.752C175.393 278.197 175.909 278.781 176.312 279.504C176.726 280.227 176.933 281.147 176.933 282.263C176.933 283.42 176.69 284.438 176.204 285.317C175.729 286.185 175.083 286.908 174.266 287.487C173.45 288.065 172.515 288.499 171.461 288.789C170.417 289.078 169.322 289.223 168.175 289.223ZM180.288 288.758V266.437H184.023V275.83H194.595V266.437H198.315V288.758H194.595V279.334H184.023V288.758H180.288ZM212.1 289.223C209.868 289.223 207.956 288.737 206.365 287.766C204.774 286.784 203.549 285.42 202.691 283.674C201.844 281.927 201.42 279.902 201.42 277.597C201.42 275.293 201.844 273.268 202.691 271.521C203.549 269.775 204.774 268.416 206.365 267.445C207.956 266.463 209.868 265.972 212.1 265.972C214.332 265.972 216.244 266.463 217.835 267.445C219.437 268.416 220.662 269.775 221.509 271.521C222.367 273.268 222.796 275.293 222.796 277.597C222.796 279.902 222.367 281.927 221.509 283.674C220.662 285.42 219.437 286.784 217.835 287.766C216.244 288.737 214.332 289.223 212.1 289.223ZM212.1 285.704C213.599 285.715 214.844 285.384 215.836 284.712C216.838 284.04 217.587 283.095 218.083 281.876C218.59 280.656 218.843 279.23 218.843 277.597C218.843 275.965 218.59 274.549 218.083 273.35C217.587 272.141 216.838 271.201 215.836 270.529C214.844 269.858 213.599 269.511 212.1 269.491C210.602 269.48 209.357 269.811 208.365 270.483C207.373 271.154 206.623 272.1 206.117 273.319C205.621 274.539 205.373 275.965 205.373 277.597C205.373 279.23 205.621 280.651 206.117 281.86C206.613 283.059 207.357 283.994 208.349 284.666C209.351 285.337 210.602 285.684 212.1 285.704ZM234.871 289.223C233.094 289.223 231.528 288.861 230.175 288.138C228.831 287.414 227.777 286.397 227.012 285.084C226.258 283.772 225.881 282.232 225.881 280.465V266.468L229.663 266.437V280.372C229.663 281.209 229.803 281.958 230.082 282.62C230.371 283.281 230.758 283.844 231.244 284.309C231.73 284.764 232.288 285.11 232.918 285.348C233.549 285.585 234.2 285.704 234.871 285.704C235.564 285.704 236.22 285.585 236.84 285.348C237.47 285.1 238.028 284.748 238.514 284.294C239 283.829 239.382 283.265 239.661 282.604C239.94 281.943 240.079 281.199 240.079 280.372V266.437H243.862V280.465C243.862 282.232 243.479 283.772 242.714 285.084C241.96 286.397 240.906 287.414 239.552 288.138C238.209 288.861 236.649 289.223 234.871 289.223ZM248.503 288.758V266.437H252.239V285.255H262.097V288.758H248.503ZM264.723 288.758V266.437H271.838C272.024 266.437 272.391 266.442 272.938 266.453C273.496 266.463 274.034 266.499 274.55 266.561C276.317 266.788 277.811 267.419 279.03 268.452C280.26 269.475 281.19 270.782 281.82 272.374C282.45 273.965 282.766 275.706 282.766 277.597C282.766 279.489 282.45 281.23 281.82 282.821C281.19 284.413 280.26 285.725 279.03 286.758C277.811 287.781 276.317 288.406 274.55 288.634C274.044 288.696 273.512 288.732 272.954 288.742C272.396 288.753 272.024 288.758 271.838 288.758H264.723ZM268.521 285.239H271.838C272.148 285.239 272.54 285.229 273.016 285.208C273.501 285.188 273.93 285.141 274.302 285.069C275.356 284.872 276.214 284.402 276.875 283.658C277.537 282.914 278.022 282.01 278.332 280.946C278.653 279.881 278.813 278.765 278.813 277.597C278.813 276.388 278.653 275.252 278.332 274.187C278.012 273.123 277.516 272.229 276.844 271.506C276.183 270.782 275.336 270.323 274.302 270.126C273.93 270.044 273.501 269.997 273.016 269.987C272.54 269.966 272.148 269.956 271.838 269.956H268.521V285.239ZM291.086 288.758L298.123 266.437H303.595L310.632 288.758H306.788L300.402 268.731H301.239L294.93 288.758H291.086ZM295.008 283.922V280.434H306.726V283.922H295.008ZM313.745 288.758V266.437H317.48V285.255H327.339V288.758H313.745ZM332.194 288.758L325.668 266.437H329.59L334.039 282.558L338.472 266.468L342.393 266.437L346.842 282.558L351.275 266.437H355.197L348.687 288.758H344.997L340.425 272.885L335.883 288.758H332.194ZM353.996 288.758L361.033 266.437H366.505L373.542 288.758H369.698L363.312 268.731H364.149L357.84 288.758H353.996ZM357.918 283.922V280.434H369.636V283.922H357.918ZM379.923 288.758V279.613L372.328 266.437H376.684L381.814 275.334L386.929 266.437H391.285L383.705 279.613V288.758H379.923ZM400.773 289.223C399.14 289.223 397.668 288.939 396.355 288.37C395.053 287.802 393.979 286.991 393.131 285.937C392.294 284.872 391.762 283.612 391.535 282.155L395.41 281.566C395.741 282.888 396.417 283.911 397.441 284.635C398.474 285.358 399.662 285.72 401.006 285.72C401.801 285.72 402.551 285.596 403.253 285.348C403.956 285.1 404.524 284.738 404.958 284.263C405.403 283.787 405.625 283.203 405.625 282.511C405.625 282.201 405.573 281.917 405.47 281.659C405.366 281.39 405.211 281.152 405.005 280.946C404.808 280.739 404.55 280.553 404.23 280.388C403.92 280.212 403.558 280.062 403.145 279.938L397.379 278.233C396.882 278.088 396.345 277.897 395.766 277.659C395.198 277.411 394.656 277.076 394.139 276.652C393.633 276.218 393.214 275.67 392.883 275.009C392.563 274.337 392.403 273.51 392.403 272.529C392.403 271.092 392.765 269.889 393.488 268.917C394.222 267.935 395.203 267.202 396.433 266.716C397.673 266.23 399.047 265.993 400.556 266.003C402.085 266.013 403.45 266.277 404.648 266.794C405.847 267.3 406.849 268.039 407.655 269.01C408.461 269.982 409.03 271.154 409.36 272.529L405.346 273.226C405.18 272.441 404.86 271.774 404.385 271.227C403.92 270.669 403.346 270.245 402.664 269.956C401.992 269.666 401.274 269.511 400.51 269.491C399.766 269.48 399.073 269.594 398.433 269.832C397.802 270.059 397.291 270.39 396.898 270.824C396.516 271.258 396.324 271.764 396.324 272.343C396.324 272.89 396.49 273.34 396.82 273.691C397.151 274.032 397.559 274.306 398.045 274.513C398.541 274.709 399.042 274.875 399.549 275.009L403.548 276.125C404.095 276.27 404.71 276.466 405.392 276.714C406.074 276.962 406.73 277.308 407.361 277.752C407.991 278.197 408.508 278.781 408.911 279.504C409.324 280.227 409.531 281.147 409.531 282.263C409.531 283.42 409.288 284.438 408.802 285.317C408.327 286.185 407.681 286.908 406.865 287.487C406.048 288.065 405.113 288.499 404.059 288.789C403.016 289.078 401.92 289.223 400.773 289.223ZM423.804 288.758L417.279 266.437H421.2L425.649 282.558L430.082 266.468L434.004 266.437L438.452 282.558L442.886 266.437H446.807L440.297 288.758H436.608L432.035 272.885L427.494 288.758H423.804ZM449.336 288.758V266.437H463.752V269.94H453.072V275.443H461.892V278.946H453.072V285.255H463.752V288.758H449.336ZM465.921 288.758L472.958 266.437H478.43L485.467 288.758H481.623L475.237 268.731H476.074L469.765 288.758H465.921ZM469.842 283.922V280.434H481.561V283.922H469.842ZM488.269 288.758V266.437H497.492C497.709 266.437 497.988 266.447 498.329 266.468C498.67 266.478 498.985 266.509 499.275 266.561C500.566 266.757 501.631 267.186 502.468 267.848C503.315 268.509 503.94 269.346 504.343 270.359C504.757 271.361 504.963 272.477 504.963 273.707C504.963 275.526 504.504 277.091 503.584 278.403C502.664 279.706 501.254 280.512 499.352 280.822L497.756 280.961H492.005V288.758H488.269ZM501.088 288.758L496.686 279.675L500.484 278.837L505.32 288.758H501.088ZM492.005 277.473H497.337C497.544 277.473 497.776 277.463 498.035 277.442C498.293 277.422 498.531 277.38 498.748 277.318C499.368 277.163 499.853 276.89 500.205 276.497C500.566 276.104 500.82 275.66 500.964 275.164C501.119 274.668 501.197 274.182 501.197 273.707C501.197 273.231 501.119 272.746 500.964 272.25C500.82 271.743 500.566 271.294 500.205 270.901C499.853 270.509 499.368 270.235 498.748 270.08C498.531 270.018 498.293 269.982 498.035 269.971C497.776 269.951 497.544 269.94 497.337 269.94H492.005V277.473ZM176.609 331.758V309.437H179.973L187.692 325.248L195.411 309.437H198.775V331.758H195.287V317.451L188.436 331.758H186.948L180.112 317.451V331.758H176.609ZM203.44 331.758V309.437H207.175V331.758H203.44ZM220.08 332.223C218.447 332.223 216.975 331.939 215.663 331.37C214.361 330.802 213.286 329.991 212.438 328.937C211.601 327.872 211.069 326.612 210.842 325.155L214.717 324.566C215.048 325.888 215.725 326.911 216.748 327.635C217.781 328.358 218.969 328.72 220.313 328.72C221.108 328.72 221.858 328.596 222.56 328.348C223.263 328.1 223.831 327.738 224.265 327.263C224.71 326.787 224.932 326.203 224.932 325.511C224.932 325.201 224.88 324.917 224.777 324.659C224.674 324.39 224.519 324.152 224.312 323.946C224.116 323.739 223.857 323.553 223.537 323.388C223.227 323.212 222.865 323.062 222.452 322.938L216.686 321.233C216.19 321.088 215.652 320.897 215.074 320.659C214.505 320.411 213.963 320.076 213.446 319.652C212.94 319.218 212.521 318.67 212.19 318.009C211.87 317.337 211.71 316.51 211.71 315.529C211.71 314.092 212.072 312.889 212.795 311.917C213.529 310.935 214.51 310.202 215.74 309.716C216.98 309.23 218.354 308.993 219.863 309.003C221.393 309.013 222.757 309.277 223.955 309.794C225.154 310.3 226.156 311.039 226.962 312.01C227.768 312.982 228.337 314.154 228.667 315.529L224.653 316.226C224.488 315.441 224.167 314.774 223.692 314.227C223.227 313.669 222.653 313.245 221.971 312.956C221.3 312.666 220.581 312.511 219.817 312.491C219.073 312.48 218.38 312.594 217.74 312.832C217.109 313.059 216.598 313.39 216.205 313.824C215.823 314.258 215.632 314.764 215.632 315.343C215.632 315.89 215.797 316.34 216.128 316.691C216.458 317.032 216.866 317.306 217.352 317.513C217.848 317.709 218.349 317.875 218.856 318.009L222.855 319.125C223.402 319.27 224.017 319.466 224.699 319.714C225.381 319.962 226.038 320.308 226.668 320.752C227.298 321.197 227.815 321.781 228.218 322.504C228.631 323.227 228.838 324.147 228.838 325.263C228.838 326.42 228.595 327.438 228.109 328.317C227.634 329.185 226.988 329.908 226.172 330.487C225.356 331.065 224.42 331.499 223.366 331.789C222.323 332.078 221.227 332.223 220.08 332.223ZM232.193 331.758V309.437H235.557L243.276 325.248L250.995 309.437H254.359V331.758H250.871V317.451L244.02 331.758H242.532L235.696 317.451V331.758H232.193ZM257.163 331.758L264.201 309.437H269.672L276.71 331.758H272.865L266.479 311.731H267.316L261.008 331.758H257.163ZM261.085 326.922V323.434H272.803V326.922H261.085ZM283.029 331.758V312.94H275.805V309.437H293.987V312.94H286.764V331.758H283.029ZM305.906 332.223C303.673 332.223 301.762 331.737 300.17 330.766C298.579 329.784 297.354 328.42 296.497 326.674C295.649 324.927 295.226 322.902 295.226 320.597C295.226 318.293 295.649 316.268 296.497 314.521C297.354 312.775 298.579 311.416 300.17 310.445C301.762 309.463 303.673 308.972 305.906 308.972C308.479 308.972 310.623 309.618 312.338 310.91C314.054 312.191 315.258 313.922 315.95 316.102L312.183 317.141C311.749 315.684 311.01 314.547 309.967 313.731C308.923 312.904 307.569 312.491 305.906 312.491C304.407 312.491 303.157 312.827 302.154 313.498C301.162 314.17 300.413 315.115 299.907 316.335C299.411 317.544 299.158 318.965 299.147 320.597C299.147 322.23 299.395 323.656 299.891 324.876C300.398 326.085 301.152 327.025 302.154 327.697C303.157 328.368 304.407 328.704 305.906 328.704C307.569 328.704 308.923 328.291 309.967 327.464C311.01 326.637 311.749 325.501 312.183 324.054L315.95 325.093C315.258 327.273 314.054 329.009 312.338 330.301C310.623 331.582 308.479 332.223 305.906 332.223ZM319.353 331.758V309.437H323.089V318.83H333.66V309.437H337.38V331.758H333.66V322.334H323.089V331.758H319.353ZM341.726 331.758V309.437H356.141V312.94H345.462V318.443H354.281V321.946H345.462V328.255H356.141V331.758H341.726ZM359.86 331.758V309.437H366.975C367.161 309.437 367.528 309.442 368.076 309.453C368.634 309.463 369.171 309.499 369.688 309.561C371.455 309.788 372.948 310.419 374.167 311.452C375.397 312.475 376.327 313.782 376.957 315.374C377.588 316.965 377.903 318.706 377.903 320.597C377.903 322.489 377.588 324.23 376.957 325.821C376.327 327.413 375.397 328.725 374.167 329.758C372.948 330.781 371.455 331.406 369.688 331.634C369.181 331.696 368.649 331.732 368.091 331.742C367.533 331.753 367.161 331.758 366.975 331.758H359.86ZM363.658 328.239H366.975C367.285 328.239 367.678 328.229 368.153 328.208C368.639 328.188 369.068 328.141 369.44 328.069C370.494 327.872 371.351 327.402 372.013 326.658C372.674 325.914 373.16 325.01 373.47 323.946C373.79 322.881 373.95 321.765 373.95 320.597C373.95 319.388 373.79 318.252 373.47 317.187C373.149 316.123 372.653 315.229 371.982 314.506C371.32 313.782 370.473 313.323 369.44 313.126C369.068 313.044 368.639 312.997 368.153 312.987C367.678 312.966 367.285 312.956 366.975 312.956H363.658V328.239ZM396.035 332.223C394.402 332.223 392.93 331.939 391.618 331.37C390.315 330.802 389.241 329.991 388.393 328.937C387.556 327.872 387.024 326.612 386.797 325.155L390.672 324.566C391.003 325.888 391.68 326.911 392.703 327.635C393.736 328.358 394.924 328.72 396.268 328.72C397.063 328.72 397.813 328.596 398.515 328.348C399.218 328.1 399.786 327.738 400.22 327.263C400.665 326.787 400.887 326.203 400.887 325.511C400.887 325.201 400.835 324.917 400.732 324.659C400.628 324.39 400.473 324.152 400.267 323.946C400.07 323.739 399.812 323.553 399.492 323.388C399.182 323.212 398.82 323.062 398.407 322.938L392.641 321.233C392.145 321.088 391.607 320.897 391.029 320.659C390.46 320.411 389.918 320.076 389.401 319.652C388.895 319.218 388.476 318.67 388.145 318.009C387.825 317.337 387.665 316.51 387.665 315.529C387.665 314.092 388.027 312.889 388.75 311.917C389.484 310.935 390.465 310.202 391.695 309.716C392.935 309.23 394.309 308.993 395.818 309.003C397.348 309.013 398.712 309.277 399.91 309.794C401.109 310.3 402.111 311.039 402.917 312.01C403.723 312.982 404.292 314.154 404.622 315.529L400.608 316.226C400.442 315.441 400.122 314.774 399.647 314.227C399.182 313.669 398.608 313.245 397.926 312.956C397.255 312.666 396.536 312.511 395.772 312.491C395.028 312.48 394.335 312.594 393.695 312.832C393.064 313.059 392.553 313.39 392.16 313.824C391.778 314.258 391.587 314.764 391.587 315.343C391.587 315.89 391.752 316.34 392.083 316.691C392.413 317.032 392.821 317.306 393.307 317.513C393.803 317.709 394.304 317.875 394.811 318.009L398.81 319.125C399.357 319.27 399.972 319.466 400.654 319.714C401.336 319.962 401.993 320.308 402.623 320.752C403.253 321.197 403.77 321.781 404.173 322.504C404.586 323.227 404.793 324.147 404.793 325.263C404.793 326.42 404.55 327.438 404.064 328.317C403.589 329.185 402.943 329.908 402.127 330.487C401.311 331.065 400.375 331.499 399.321 331.789C398.278 332.078 397.182 332.223 396.035 332.223ZM408.148 331.758V309.437H411.884V318.83H422.455V309.437H426.175V331.758H422.455V322.334H411.884V331.758H408.148ZM439.961 332.223C437.729 332.223 435.817 331.737 434.226 330.766C432.634 329.784 431.41 328.42 430.552 326.674C429.705 324.927 429.281 322.902 429.281 320.597C429.281 318.293 429.705 316.268 430.552 314.521C431.41 312.775 432.634 311.416 434.226 310.445C435.817 309.463 437.729 308.972 439.961 308.972C442.193 308.972 444.105 309.463 445.696 310.445C447.298 311.416 448.522 312.775 449.37 314.521C450.227 316.268 450.656 318.293 450.656 320.597C450.656 322.902 450.227 324.927 449.37 326.674C448.522 328.42 447.298 329.784 445.696 330.766C444.105 331.737 442.193 332.223 439.961 332.223ZM439.961 328.704C441.459 328.715 442.704 328.384 443.696 327.712C444.699 327.04 445.448 326.095 445.944 324.876C446.45 323.656 446.703 322.23 446.703 320.597C446.703 318.965 446.45 317.549 445.944 316.35C445.448 315.141 444.699 314.201 443.696 313.529C442.704 312.858 441.459 312.511 439.961 312.491C438.462 312.48 437.217 312.811 436.225 313.483C435.233 314.154 434.484 315.1 433.978 316.319C433.481 317.539 433.233 318.965 433.233 320.597C433.233 322.23 433.481 323.651 433.978 324.86C434.474 326.059 435.218 326.994 436.21 327.666C437.212 328.337 438.462 328.684 439.961 328.704ZM453.741 331.758V309.437H468.157V312.94H457.477V318.443H466.297V321.946H457.477V328.255H468.157V331.758H453.741ZM479.926 332.223C478.293 332.223 476.82 331.939 475.508 331.37C474.206 330.802 473.131 329.991 472.284 328.937C471.447 327.872 470.915 326.612 470.687 325.155L474.562 324.566C474.893 325.888 475.57 326.911 476.593 327.635C477.626 328.358 478.815 328.72 480.158 328.72C480.954 328.72 481.703 328.596 482.406 328.348C483.108 328.1 483.677 327.738 484.111 327.263C484.555 326.787 484.777 326.203 484.777 325.511C484.777 325.201 484.726 324.917 484.622 324.659C484.519 324.39 484.364 324.152 484.157 323.946C483.961 323.739 483.703 323.553 483.382 323.388C483.072 323.212 482.711 323.062 482.297 322.938L476.531 321.233C476.035 321.088 475.498 320.897 474.919 320.659C474.351 320.411 473.808 320.076 473.291 319.652C472.785 319.218 472.367 318.67 472.036 318.009C471.716 317.337 471.555 316.51 471.555 315.529C471.555 314.092 471.917 312.889 472.64 311.917C473.374 310.935 474.356 310.202 475.585 309.716C476.826 309.23 478.2 308.993 479.709 309.003C481.238 309.013 482.602 309.277 483.801 309.794C484.999 310.3 486.002 311.039 486.808 312.01C487.614 312.982 488.182 314.154 488.513 315.529L484.498 316.226C484.333 315.441 484.013 314.774 483.537 314.227C483.072 313.669 482.499 313.245 481.817 312.956C481.145 312.666 480.427 312.511 479.662 312.491C478.918 312.48 478.226 312.594 477.585 312.832C476.955 313.059 476.443 313.39 476.05 313.824C475.668 314.258 475.477 314.764 475.477 315.343C475.477 315.89 475.642 316.34 475.973 316.691C476.304 317.032 476.712 317.306 477.198 317.513C477.694 317.709 478.195 317.875 478.701 318.009L482.7 319.125C483.248 319.27 483.863 319.466 484.545 319.714C485.227 319.962 485.883 320.308 486.513 320.752C487.144 321.197 487.66 321.781 488.063 322.504C488.477 323.227 488.683 324.147 488.683 325.263C488.683 326.42 488.441 327.438 487.955 328.317C487.48 329.185 486.834 329.908 486.017 330.487C485.201 331.065 484.266 331.499 483.212 331.789C482.168 332.078 481.073 332.223 479.926 332.223Z" fill="white"></path><rect y="525.91" width="664.307" height="332.154" rx="22.1436" fill="#55ACEE"></rect><path d="M78.1117 681.807V659.486H81.4753L89.1946 675.296L96.9138 659.486H100.277V681.807H96.7898V667.5L89.9386 681.807H88.4506L81.6148 667.5V681.807H78.1117ZM113.622 682.272C111.845 682.272 110.279 681.91 108.926 681.187C107.582 680.463 106.528 679.445 105.764 678.133C105.009 676.821 104.632 675.281 104.632 673.514V659.517L108.414 659.486V673.421C108.414 674.258 108.554 675.007 108.833 675.668C109.122 676.33 109.51 676.893 109.995 677.358C110.481 677.813 111.039 678.159 111.669 678.397C112.3 678.634 112.951 678.753 113.622 678.753C114.315 678.753 114.971 678.634 115.591 678.397C116.221 678.149 116.779 677.797 117.265 677.342C117.751 676.877 118.133 676.314 118.412 675.653C118.691 674.992 118.831 674.248 118.831 673.421V659.486H122.613V673.514C122.613 675.281 122.23 676.821 121.466 678.133C120.711 679.445 119.657 680.463 118.304 681.187C116.96 681.91 115.4 682.272 113.622 682.272ZM134.268 682.272C132.635 682.272 131.162 681.987 129.85 681.419C128.548 680.851 127.473 680.04 126.626 678.986C125.789 677.921 125.257 676.66 125.029 675.203L128.904 674.614C129.235 675.937 129.912 676.96 130.935 677.684C131.968 678.407 133.157 678.769 134.5 678.769C135.296 678.769 136.045 678.645 136.748 678.397C137.45 678.149 138.019 677.787 138.453 677.311C138.897 676.836 139.119 676.252 139.119 675.56C139.119 675.25 139.068 674.966 138.964 674.707C138.861 674.439 138.706 674.201 138.499 673.994C138.303 673.788 138.045 673.602 137.724 673.436C137.414 673.261 137.053 673.111 136.639 672.987L130.873 671.282C130.377 671.137 129.84 670.946 129.261 670.708C128.693 670.46 128.15 670.124 127.633 669.701C127.127 669.267 126.709 668.719 126.378 668.058C126.058 667.386 125.897 666.559 125.897 665.578C125.897 664.141 126.259 662.937 126.982 661.966C127.716 660.984 128.698 660.251 129.927 659.765C131.168 659.279 132.542 659.042 134.051 659.052C135.58 659.062 136.944 659.326 138.143 659.842C139.341 660.349 140.344 661.088 141.15 662.059C141.956 663.03 142.524 664.203 142.855 665.578L138.84 666.275C138.675 665.49 138.355 664.823 137.879 664.276C137.414 663.718 136.841 663.294 136.159 663.005C135.487 662.715 134.769 662.56 134.004 662.54C133.26 662.529 132.568 662.643 131.927 662.881C131.297 663.108 130.785 663.439 130.392 663.873C130.01 664.307 129.819 664.813 129.819 665.392C129.819 665.939 129.984 666.389 130.315 666.74C130.646 667.081 131.054 667.355 131.54 667.562C132.036 667.758 132.537 667.923 133.043 668.058L137.042 669.174C137.59 669.318 138.205 669.515 138.887 669.763C139.569 670.011 140.225 670.357 140.855 670.801C141.486 671.246 142.002 671.829 142.405 672.553C142.819 673.276 143.025 674.196 143.025 675.312C143.025 676.469 142.783 677.487 142.297 678.366C141.822 679.234 141.176 679.957 140.359 680.536C139.543 681.114 138.608 681.548 137.554 681.838C136.51 682.127 135.415 682.272 134.268 682.272ZM151.744 681.807V662.989H144.52V659.486H162.703V662.989H155.479V681.807H151.744ZM175.161 681.807L168.635 659.486H172.557L177.005 675.606L181.439 659.517L185.36 659.486L189.809 675.606L194.242 659.486H198.164L191.653 681.807H187.964L183.392 665.934L178.85 681.807H175.161ZM200.693 681.807V659.486H215.108V662.989H204.428V668.492H213.248V671.995H204.428V678.304H215.108V681.807H200.693ZM217.277 681.807L224.314 659.486H229.786L236.823 681.807H232.979L226.593 661.78H227.43L221.121 681.807H217.277ZM221.199 676.97V673.483H232.917V676.97H221.199ZM239.626 681.807V659.486H248.849C249.066 659.486 249.345 659.496 249.686 659.517C250.027 659.527 250.342 659.558 250.631 659.61C251.923 659.806 252.987 660.235 253.824 660.896C254.672 661.558 255.297 662.395 255.7 663.408C256.113 664.41 256.32 665.526 256.32 666.756C256.32 668.574 255.86 670.14 254.94 671.452C254.021 672.754 252.61 673.56 250.709 673.87L249.112 674.01H243.361V681.807H239.626ZM252.445 681.807L248.043 672.723L251.84 671.886L256.676 681.807H252.445ZM243.361 670.522H248.694C248.9 670.522 249.133 670.512 249.391 670.491C249.649 670.471 249.887 670.429 250.104 670.367C250.724 670.212 251.21 669.938 251.561 669.546C251.923 669.153 252.176 668.709 252.321 668.213C252.476 667.717 252.553 667.231 252.553 666.756C252.553 666.28 252.476 665.795 252.321 665.299C252.176 664.792 251.923 664.343 251.561 663.95C251.21 663.557 250.724 663.284 250.104 663.129C249.887 663.067 249.649 663.03 249.391 663.02C249.133 662.999 248.9 662.989 248.694 662.989H243.361V670.522ZM274.559 682.272C272.927 682.272 271.454 681.987 270.142 681.419C268.84 680.851 267.765 680.04 266.918 678.986C266.081 677.921 265.548 676.66 265.321 675.203L269.196 674.614C269.527 675.937 270.204 676.96 271.227 677.684C272.26 678.407 273.448 678.769 274.792 678.769C275.588 678.769 276.337 678.645 277.039 678.397C277.742 678.149 278.31 677.787 278.744 677.311C279.189 676.836 279.411 676.252 279.411 675.56C279.411 675.25 279.359 674.966 279.256 674.707C279.153 674.439 278.998 674.201 278.791 673.994C278.595 673.788 278.336 673.602 278.016 673.436C277.706 673.261 277.344 673.111 276.931 672.987L271.165 671.282C270.669 671.137 270.131 670.946 269.553 670.708C268.984 670.46 268.442 670.124 267.925 669.701C267.419 669.267 267 668.719 266.67 668.058C266.349 667.386 266.189 666.559 266.189 665.578C266.189 664.141 266.551 662.937 267.274 661.966C268.008 660.984 268.989 660.251 270.219 659.765C271.459 659.279 272.834 659.042 274.342 659.052C275.872 659.062 277.236 659.326 278.434 659.842C279.633 660.349 280.636 661.088 281.442 662.059C282.248 663.03 282.816 664.203 283.147 665.578L279.132 666.275C278.967 665.49 278.646 664.823 278.171 664.276C277.706 663.718 277.132 663.294 276.45 663.005C275.779 662.715 275.06 662.56 274.296 662.54C273.552 662.529 272.859 662.643 272.219 662.881C271.588 663.108 271.077 663.439 270.684 663.873C270.302 664.307 270.111 664.813 270.111 665.392C270.111 665.939 270.276 666.389 270.607 666.74C270.937 667.081 271.346 667.355 271.831 667.562C272.327 667.758 272.828 667.923 273.335 668.058L277.334 669.174C277.882 669.318 278.496 669.515 279.178 669.763C279.86 670.011 280.517 670.357 281.147 670.801C281.777 671.246 282.294 671.829 282.697 672.553C283.11 673.276 283.317 674.196 283.317 675.312C283.317 676.469 283.074 677.487 282.589 678.366C282.113 679.234 281.467 679.957 280.651 680.536C279.835 681.114 278.899 681.548 277.845 681.838C276.802 682.127 275.706 682.272 274.559 682.272ZM286.982 681.807V659.486H290.718V678.304H300.576V681.807H286.982ZM303.512 681.807V659.486H307.248V681.807H303.512ZM311.891 681.807V659.486H321.114C321.331 659.486 321.61 659.496 321.951 659.517C322.292 659.527 322.607 659.558 322.896 659.61C324.188 659.806 325.252 660.235 326.089 660.896C326.937 661.558 327.562 662.395 327.965 663.408C328.378 664.41 328.585 665.526 328.585 666.756C328.585 667.975 328.378 669.091 327.965 670.104C327.551 671.106 326.921 671.938 326.074 672.599C325.237 673.261 324.178 673.69 322.896 673.886C322.607 673.927 322.286 673.958 321.935 673.979C321.594 674 321.32 674.01 321.114 674.01H315.626V681.807H311.891ZM315.626 670.522H320.959C321.165 670.522 321.398 670.512 321.656 670.491C321.914 670.471 322.152 670.429 322.369 670.367C322.989 670.212 323.475 669.938 323.826 669.546C324.188 669.153 324.441 668.709 324.586 668.213C324.741 667.717 324.818 667.231 324.818 666.756C324.818 666.28 324.741 665.795 324.586 665.299C324.441 664.792 324.188 664.343 323.826 663.95C323.475 663.557 322.989 663.284 322.369 663.129C322.152 663.067 321.914 663.03 321.656 663.02C321.398 662.999 321.165 662.989 320.959 662.989H315.626V670.522ZM331.69 681.807V659.486H340.913C341.13 659.486 341.409 659.496 341.75 659.517C342.091 659.527 342.406 659.558 342.696 659.61C343.987 659.806 345.052 660.235 345.889 660.896C346.736 661.558 347.361 662.395 347.764 663.408C348.178 664.41 348.384 665.526 348.384 666.756C348.384 667.975 348.178 669.091 347.764 670.104C347.351 671.106 346.721 671.938 345.873 672.599C345.036 673.261 343.977 673.69 342.696 673.886C342.406 673.927 342.086 673.958 341.735 673.979C341.394 674 341.12 674.01 340.913 674.01H335.426V681.807H331.69ZM335.426 670.522H340.758C340.965 670.522 341.197 670.512 341.456 670.491C341.714 670.471 341.952 670.429 342.169 670.367C342.789 670.212 343.274 669.938 343.626 669.546C343.987 669.153 344.241 668.709 344.385 668.213C344.54 667.717 344.618 667.231 344.618 666.756C344.618 666.28 344.54 665.795 344.385 665.299C344.241 664.792 343.987 664.343 343.626 663.95C343.274 663.557 342.789 663.284 342.169 663.129C341.952 663.067 341.714 663.03 341.456 663.02C341.197 662.999 340.965 662.989 340.758 662.989H335.426V670.522ZM351.49 681.807V659.486H365.905V662.989H355.225V668.492H364.045V671.995H355.225V678.304H365.905V681.807H351.49ZM369.624 681.807V659.486H378.847C379.064 659.486 379.343 659.496 379.684 659.517C380.025 659.527 380.34 659.558 380.63 659.61C381.921 659.806 382.986 660.235 383.823 660.896C384.67 661.558 385.295 662.395 385.698 663.408C386.112 664.41 386.318 665.526 386.318 666.756C386.318 668.574 385.858 670.14 384.939 671.452C384.019 672.754 382.608 673.56 380.707 673.87L379.11 674.01H373.36V681.807H369.624ZM382.443 681.807L378.041 672.723L381.839 671.886L386.675 681.807H382.443ZM373.36 670.522H378.692C378.899 670.522 379.131 670.512 379.389 670.491C379.648 670.471 379.885 670.429 380.102 670.367C380.723 670.212 381.208 669.938 381.56 669.546C381.921 669.153 382.174 668.709 382.319 668.213C382.474 667.717 382.552 667.231 382.552 666.756C382.552 666.28 382.474 665.795 382.319 665.299C382.174 664.792 381.921 664.343 381.56 663.95C381.208 663.557 380.723 663.284 380.102 663.129C379.885 663.067 379.648 663.03 379.389 663.02C379.131 662.999 378.899 662.989 378.692 662.989H373.36V670.522ZM398.351 682.272C396.719 682.272 395.246 681.987 393.934 681.419C392.632 680.851 391.557 680.04 390.71 678.986C389.873 677.921 389.34 676.66 389.113 675.203L392.988 674.614C393.319 675.937 393.996 676.96 395.019 677.684C396.052 678.407 397.241 678.769 398.584 678.769C399.38 678.769 400.129 678.645 400.832 678.397C401.534 678.149 402.103 677.787 402.537 677.311C402.981 676.836 403.203 676.252 403.203 675.56C403.203 675.25 403.151 674.966 403.048 674.707C402.945 674.439 402.79 674.201 402.583 673.994C402.387 673.788 402.128 673.602 401.808 673.436C401.498 673.261 401.136 673.111 400.723 672.987L394.957 671.282C394.461 671.137 393.923 670.946 393.345 670.708C392.776 670.46 392.234 670.124 391.717 669.701C391.211 669.267 390.792 668.719 390.462 668.058C390.141 667.386 389.981 666.559 389.981 665.578C389.981 664.141 390.343 662.937 391.066 661.966C391.8 660.984 392.782 660.251 394.011 659.765C395.251 659.279 396.626 659.042 398.134 659.052C399.664 659.062 401.028 659.326 402.227 659.842C403.425 660.349 404.428 661.088 405.234 662.059C406.04 663.03 406.608 664.203 406.939 665.578L402.924 666.275C402.759 665.49 402.438 664.823 401.963 664.276C401.498 663.718 400.925 663.294 400.242 663.005C399.571 662.715 398.853 662.56 398.088 662.54C397.344 662.529 396.652 662.643 396.011 662.881C395.38 663.108 394.869 663.439 394.476 663.873C394.094 664.307 393.903 664.813 393.903 665.392C393.903 665.939 394.068 666.389 394.399 666.74C394.729 667.081 395.138 667.355 395.623 667.562C396.119 667.758 396.621 667.923 397.127 668.058L401.126 669.174C401.674 669.318 402.289 669.515 402.971 669.763C403.653 670.011 404.309 670.357 404.939 670.801C405.569 671.246 406.086 671.829 406.489 672.553C406.903 673.276 407.109 674.196 407.109 675.312C407.109 676.469 406.866 677.487 406.381 678.366C405.905 679.234 405.259 679.957 404.443 680.536C403.627 681.114 402.692 681.548 401.638 681.838C400.594 682.127 399.498 682.272 398.351 682.272ZM422.034 681.807V662.989H414.811V659.486H432.993V662.989H425.769V681.807H422.034ZM444.911 682.272C442.679 682.272 440.767 681.786 439.176 680.815C437.584 679.833 436.36 678.469 435.502 676.722C434.655 674.976 434.231 672.951 434.231 670.646C434.231 668.342 434.655 666.316 435.502 664.57C436.36 662.824 437.584 661.465 439.176 660.493C440.767 659.512 442.679 659.021 444.911 659.021C447.143 659.021 449.055 659.512 450.646 660.493C452.248 661.465 453.472 662.824 454.32 664.57C455.177 666.316 455.606 668.342 455.606 670.646C455.606 672.951 455.177 674.976 454.32 676.722C453.472 678.469 452.248 679.833 450.646 680.815C449.055 681.786 447.143 682.272 444.911 682.272ZM444.911 678.753C446.409 678.763 447.654 678.433 448.646 677.761C449.649 677.089 450.398 676.144 450.894 674.924C451.4 673.705 451.654 672.279 451.654 670.646C451.654 669.014 451.4 667.598 450.894 666.399C450.398 665.19 449.649 664.25 448.646 663.578C447.654 662.906 446.409 662.56 444.911 662.54C443.412 662.529 442.167 662.86 441.175 663.532C440.183 664.203 439.434 665.149 438.928 666.368C438.432 667.588 438.184 669.014 438.184 670.646C438.184 672.279 438.432 673.7 438.928 674.909C439.424 676.108 440.168 677.043 441.16 677.715C442.162 678.386 443.412 678.732 444.911 678.753ZM463.348 681.807L470.385 659.486H475.857L482.894 681.807H479.05L472.664 661.78H473.501L467.192 681.807H463.348ZM467.269 676.97V673.483H478.988V676.97H467.269ZM491.903 681.807V659.486H505.341V663.222H495.638V668.786H503.481V672.506H495.638V681.807H491.903ZM506.277 681.807L513.314 659.486H518.786L525.823 681.807H521.979L515.593 661.78H516.43L510.121 681.807H506.277ZM510.198 676.97V673.483H521.917V676.97H510.198ZM528.625 681.807V659.486H532.408L542.762 675.219V659.486H546.544V681.807H542.762L532.408 666.074V681.807H528.625ZM560.317 682.272C558.085 682.272 556.173 681.786 554.582 680.815C552.99 679.833 551.766 678.469 550.908 676.722C550.061 674.976 549.637 672.951 549.637 670.646C549.637 668.342 550.061 666.316 550.908 664.57C551.766 662.824 552.99 661.465 554.582 660.493C556.173 659.512 558.085 659.021 560.317 659.021C562.89 659.021 565.034 659.667 566.75 660.958C568.465 662.24 569.669 663.971 570.361 666.151L566.595 667.19C566.161 665.733 565.422 664.596 564.378 663.78C563.334 662.953 561.981 662.54 560.317 662.54C558.819 662.54 557.568 662.875 556.566 663.547C555.574 664.219 554.825 665.164 554.318 666.384C553.822 667.593 553.569 669.014 553.559 670.646C553.559 672.279 553.807 673.705 554.303 674.924C554.809 676.133 555.563 677.074 556.566 677.746C557.568 678.417 558.819 678.753 560.317 678.753C561.981 678.753 563.334 678.34 564.378 677.513C565.422 676.686 566.161 675.55 566.595 674.103L570.361 675.141C569.669 677.322 568.465 679.058 566.75 680.35C565.034 681.631 562.89 682.272 560.317 682.272ZM578.251 681.807V672.661L570.656 659.486H575.012L580.142 668.383L585.257 659.486H589.613L582.033 672.661V681.807H578.251ZM225.367 724.807V702.486H232.481C232.667 702.486 233.034 702.491 233.582 702.501C234.14 702.512 234.677 702.548 235.194 702.61C236.961 702.837 238.454 703.468 239.673 704.501C240.903 705.524 241.833 706.831 242.464 708.423C243.094 710.014 243.409 711.755 243.409 713.646C243.409 715.537 243.094 717.279 242.464 718.87C241.833 720.461 240.903 721.774 239.673 722.807C238.454 723.83 236.961 724.455 235.194 724.683C234.687 724.745 234.155 724.781 233.597 724.791C233.039 724.801 232.667 724.807 232.481 724.807H225.367ZM229.164 721.288H232.481C232.791 721.288 233.184 721.278 233.659 721.257C234.145 721.236 234.574 721.19 234.946 721.118C236 720.921 236.858 720.451 237.519 719.707C238.18 718.963 238.666 718.059 238.976 716.994C239.296 715.93 239.456 714.814 239.456 713.646C239.456 712.437 239.296 711.301 238.976 710.236C238.656 709.172 238.16 708.278 237.488 707.555C236.827 706.831 235.979 706.371 234.946 706.175C234.574 706.092 234.145 706.046 233.659 706.036C233.184 706.015 232.791 706.005 232.481 706.005H229.164V721.288ZM247.383 724.807V702.486H251.119V724.807H247.383ZM255.762 724.807V702.486H259.544L269.899 718.219V702.486H273.681V724.807H269.899L259.544 709.074V724.807H255.762ZM278.014 724.807V702.486H281.796L292.15 718.219V702.486H295.932V724.807H292.15L281.796 709.074V724.807H278.014ZM300.265 724.807V702.486H314.681V705.989H304.001V711.492H312.821V714.995H304.001V721.304H314.681V724.807H300.265ZM318.4 724.807V702.486H327.623C327.84 702.486 328.119 702.496 328.46 702.517C328.801 702.527 329.116 702.558 329.405 702.61C330.697 702.806 331.761 703.235 332.598 703.896C333.446 704.558 334.071 705.395 334.474 706.408C334.887 707.41 335.094 708.526 335.094 709.756C335.094 711.574 334.634 713.14 333.714 714.452C332.795 715.754 331.384 716.56 329.483 716.87L327.886 717.01H322.135V724.807H318.4ZM331.219 724.807L326.817 715.723L330.614 714.886L335.45 724.807H331.219ZM322.135 713.522H327.468C327.674 713.522 327.907 713.512 328.165 713.491C328.423 713.471 328.661 713.429 328.878 713.367C329.498 713.212 329.984 712.938 330.335 712.546C330.697 712.153 330.95 711.709 331.095 711.213C331.25 710.717 331.327 710.231 331.327 709.756C331.327 709.28 331.25 708.795 331.095 708.299C330.95 707.792 330.697 707.343 330.335 706.95C329.984 706.557 329.498 706.284 328.878 706.129C328.661 706.067 328.423 706.03 328.165 706.02C327.907 705.999 327.674 705.989 327.468 705.989H322.135V713.522ZM345.072 724.807V702.486H354.294C354.511 702.486 354.79 702.496 355.131 702.517C355.472 702.527 355.788 702.558 356.077 702.61C357.369 702.806 358.433 703.235 359.27 703.896C360.117 704.558 360.743 705.395 361.146 706.408C361.559 707.41 361.766 708.526 361.766 709.756C361.766 710.975 361.559 712.091 361.146 713.104C360.732 714.106 360.102 714.938 359.255 715.599C358.418 716.261 357.358 716.69 356.077 716.886C355.788 716.927 355.467 716.958 355.116 716.979C354.775 717 354.501 717.01 354.294 717.01H348.807V724.807H345.072ZM348.807 713.522H354.139C354.346 713.522 354.579 713.512 354.837 713.491C355.095 713.471 355.333 713.429 355.55 713.367C356.17 713.212 356.656 712.938 357.007 712.546C357.369 712.153 357.622 711.709 357.767 711.213C357.922 710.717 357.999 710.231 357.999 709.756C357.999 709.28 357.922 708.795 357.767 708.299C357.622 707.792 357.369 707.343 357.007 706.95C356.656 706.557 356.17 706.284 355.55 706.129C355.333 706.067 355.095 706.03 354.837 706.02C354.579 705.999 354.346 705.989 354.139 705.989H348.807V713.522ZM361.777 724.807L368.814 702.486H374.286L381.323 724.807H377.479L371.093 704.78H371.93L365.621 724.807H361.777ZM365.699 719.97V716.483H377.417V719.97H365.699ZM384.126 724.807V702.486H393.348C393.565 702.486 393.844 702.496 394.185 702.517C394.526 702.527 394.842 702.558 395.131 702.61C396.423 702.806 397.487 703.235 398.324 703.896C399.171 704.558 399.797 705.395 400.2 706.408C400.613 707.41 400.82 708.526 400.82 709.756C400.82 711.574 400.36 713.14 399.44 714.452C398.52 715.754 397.11 716.56 395.208 716.87L393.612 717.01H387.861V724.807H384.126ZM396.945 724.807L392.542 715.723L396.34 714.886L401.176 724.807H396.945ZM387.861 713.522H393.193C393.4 713.522 393.633 713.512 393.891 713.491C394.149 713.471 394.387 713.429 394.604 713.367C395.224 713.212 395.71 712.938 396.061 712.546C396.423 712.153 396.676 711.709 396.821 711.213C396.976 710.717 397.053 710.231 397.053 709.756C397.053 709.28 396.976 708.795 396.821 708.299C396.676 707.792 396.423 707.343 396.061 706.95C395.71 706.557 395.224 706.284 394.604 706.129C394.387 706.067 394.149 706.03 393.891 706.02C393.633 705.999 393.4 705.989 393.193 705.989H387.861V713.522ZM409.954 724.807V705.989H402.731V702.486H420.913V705.989H413.69V724.807H409.954ZM429.755 724.807V715.661L422.16 702.486H426.516L431.646 711.383L436.761 702.486H441.117L433.537 715.661V724.807H429.755Z" fill="white"></path><circle cx="332.153" cy="496.017" r="66.4307" fill="#F9F9F9"></circle><path d="M319.002 510.172C316.291 510.172 313.97 509.582 312.038 508.403C310.105 507.211 308.618 505.554 307.577 503.434C306.548 501.313 306.033 498.854 306.033 496.056C306.033 493.257 306.548 490.798 307.577 488.677C308.618 486.557 310.105 484.907 312.038 483.727C313.97 482.535 316.291 481.939 319.002 481.939C321.712 481.939 324.034 482.535 325.966 483.727C327.911 484.907 329.398 486.557 330.427 488.677C331.468 490.798 331.989 493.257 331.989 496.056C331.989 498.854 331.468 501.313 330.427 503.434C329.398 505.554 327.911 507.211 325.966 508.403C324.034 509.582 321.712 510.172 319.002 510.172ZM319.002 505.899C320.821 505.912 322.333 505.51 323.538 504.695C324.755 503.879 325.665 502.731 326.267 501.25C326.882 499.77 327.189 498.038 327.189 496.056C327.189 494.073 326.882 492.354 326.267 490.898C325.665 489.43 324.755 488.288 323.538 487.473C322.333 486.657 320.821 486.237 319.002 486.212C317.182 486.199 315.67 486.601 314.466 487.416C313.261 488.232 312.351 489.38 311.736 490.861C311.134 492.341 310.833 494.073 310.833 496.056C310.833 498.038 311.134 499.763 311.736 501.232C312.339 502.687 313.242 503.823 314.447 504.638C315.664 505.454 317.182 505.874 319.002 505.899ZM335.735 509.607V482.504H346.935C347.198 482.504 347.537 482.516 347.951 482.541C348.365 482.554 348.748 482.592 349.099 482.654C350.668 482.893 351.96 483.413 352.976 484.216C354.005 485.02 354.765 486.036 355.254 487.266C355.756 488.483 356.007 489.838 356.007 491.331C356.007 493.54 355.448 495.441 354.332 497.034C353.215 498.615 351.502 499.594 349.193 499.971L347.255 500.14H340.272V509.607H335.735ZM351.301 509.607L345.956 498.578L350.567 497.561L356.44 509.607H351.301ZM340.272 495.905H346.746C346.997 495.905 347.28 495.892 347.593 495.867C347.907 495.842 348.196 495.792 348.459 495.717C349.212 495.529 349.802 495.196 350.228 494.719C350.668 494.242 350.975 493.703 351.151 493.1C351.339 492.498 351.433 491.908 351.433 491.331C351.433 490.754 351.339 490.164 351.151 489.562C350.975 488.947 350.668 488.401 350.228 487.924C349.802 487.448 349.212 487.115 348.459 486.927C348.196 486.852 347.907 486.808 347.593 486.795C347.28 486.77 346.997 486.757 346.746 486.757H340.272V495.905Z" fill="#3E1BC9"></path></g><defs><clipPath id="clip0_3762_322"><rect width="664.307" height="858.064" rx="22" fill="white"></rect></clipPath></defs></svg> 