<?xml version="1.0" encoding="UTF-8"?> <svg xmlns="http://www.w3.org/2000/svg" width="665" height="859" viewBox="0 0 665 859" fill="none"><g clip-path="url(#clip0_3762_345)"><rect width="664.307" height="858.064" rx="22" fill="#F9F9F9"></rect><path d="M142.721 80.0234L134.797 52.9197H139.559L144.961 72.4946L150.344 52.9573L155.106 52.9197L160.508 72.4946L165.891 52.9197H170.653L162.748 80.0234H158.268L152.715 60.7497L147.201 80.0234H142.721ZM184.451 80.5881C181.741 80.5881 179.42 79.9983 177.487 78.8188C175.555 77.6268 174.068 75.9704 173.026 73.8498C171.998 71.7292 171.483 69.2698 171.483 66.4716C171.483 63.6734 171.998 61.2139 173.026 59.0933C174.068 56.9727 175.555 55.3226 177.487 54.1431C179.42 52.9511 181.741 52.355 184.451 52.355C187.162 52.355 189.483 52.9511 191.416 54.1431C193.361 55.3226 194.848 56.9727 195.876 59.0933C196.918 61.2139 197.439 63.6734 197.439 66.4716C197.439 69.2698 196.918 71.7292 195.876 73.8498C194.848 75.9704 193.361 77.6268 191.416 78.8188C189.483 79.9983 187.162 80.5881 184.451 80.5881ZM184.451 76.3155C186.271 76.328 187.783 75.9265 188.988 75.1109C190.205 74.2953 191.114 73.1471 191.717 71.6664C192.332 70.1858 192.639 68.4542 192.639 66.4716C192.639 64.489 192.332 62.7699 191.717 61.3143C191.114 59.8462 190.205 58.7043 188.988 57.8887C187.783 57.0731 186.271 56.6527 184.451 56.6276C182.632 56.6151 181.12 57.0166 179.915 57.8322C178.711 58.6479 177.801 59.796 177.186 61.2767C176.584 62.7573 176.283 64.489 176.283 66.4716C176.283 68.4542 176.584 70.1795 177.186 71.6476C177.788 73.1032 178.692 74.2388 179.897 75.0544C181.114 75.87 182.632 76.2904 184.451 76.3155ZM212.102 80.5881C209.944 80.5881 208.043 80.1489 206.399 79.2706C204.768 78.3922 203.488 77.1562 202.559 75.5626C201.643 73.969 201.185 72.0994 201.185 69.9536V52.9573L205.778 52.9197V69.8407C205.778 70.8571 205.947 71.7668 206.286 72.5699C206.637 73.373 207.108 74.0568 207.698 74.6215C208.287 75.1736 208.965 75.594 209.73 75.8826C210.496 76.1712 211.286 76.3155 212.102 76.3155C212.943 76.3155 213.739 76.1712 214.492 75.8826C215.258 75.5814 215.935 75.1548 216.525 74.6027C217.115 74.038 217.579 73.3542 217.918 72.5511C218.257 71.748 218.426 70.8446 218.426 69.8407V52.9197H223.019V69.9536C223.019 72.0994 222.554 73.969 221.626 75.5626C220.71 77.1562 219.43 78.3922 217.786 79.2706C216.155 80.1489 214.26 80.5881 212.102 80.5881ZM228.655 80.0234V52.9197H233.191V75.7697H245.162V80.0234H228.655ZM248.351 80.0234V52.9197H256.99C257.216 52.9197 257.661 52.926 258.326 52.9385C259.004 52.9511 259.656 52.995 260.284 53.0703C262.429 53.3463 264.243 54.1118 265.723 55.3666C267.217 56.6088 268.346 58.1961 269.111 60.1285C269.877 62.0609 270.259 64.1753 270.259 66.4716C270.259 68.7679 269.877 70.8822 269.111 72.8146C268.346 74.747 267.217 76.3406 265.723 77.5954C264.243 78.8376 262.429 79.5968 260.284 79.8729C259.669 79.9481 259.023 79.9921 258.345 80.0046C257.667 80.0172 257.216 80.0234 256.99 80.0234H248.351ZM252.962 75.7508H256.99C257.366 75.7508 257.843 75.7383 258.42 75.7132C259.01 75.6881 259.531 75.6316 259.983 75.5438C261.262 75.3054 262.304 74.7344 263.107 73.831C263.91 72.9275 264.5 71.8296 264.876 70.5371C265.265 69.2447 265.46 67.8895 265.46 66.4716C265.46 65.0034 265.265 63.6232 264.876 62.3307C264.487 61.0383 263.885 59.9529 263.069 59.0745C262.266 58.1961 261.237 57.6378 259.983 57.3993C259.531 57.299 259.01 57.2425 258.42 57.2299C257.843 57.2048 257.366 57.1923 256.99 57.1923H252.962V75.7508ZM288.833 80.0234V68.9184L279.61 52.9197H284.899L291.129 63.7235L297.34 52.9197H302.629L293.425 68.9184V80.0234H288.833ZM315.213 80.5881C312.503 80.5881 310.181 79.9983 308.249 78.8188C306.317 77.6268 304.83 75.9704 303.788 73.8498C302.759 71.7292 302.245 69.2698 302.245 66.4716C302.245 63.6734 302.759 61.2139 303.788 59.0933C304.83 56.9727 306.317 55.3226 308.249 54.1431C310.181 52.9511 312.503 52.355 315.213 52.355C317.924 52.355 320.245 52.9511 322.177 54.1431C324.122 55.3226 325.609 56.9727 326.638 59.0933C327.68 61.2139 328.2 63.6734 328.2 66.4716C328.2 69.2698 327.68 71.7292 326.638 73.8498C325.609 75.9704 324.122 77.6268 322.177 78.8188C320.245 79.9983 317.924 80.5881 315.213 80.5881ZM315.213 76.3155C317.033 76.328 318.545 75.9265 319.749 75.1109C320.966 74.2953 321.876 73.1471 322.478 71.6664C323.093 70.1858 323.401 68.4542 323.401 66.4716C323.401 64.489 323.093 62.7699 322.478 61.3143C321.876 59.8462 320.966 58.7043 319.749 57.8887C318.545 57.0731 317.033 56.6527 315.213 56.6276C313.394 56.6151 311.882 57.0166 310.677 57.8322C309.472 58.6479 308.563 59.796 307.948 61.2767C307.346 62.7573 307.044 64.489 307.044 66.4716C307.044 68.4542 307.346 70.1795 307.948 71.6476C308.55 73.1032 309.454 74.2388 310.658 75.0544C311.875 75.87 313.394 76.2904 315.213 76.3155ZM342.864 80.5881C340.705 80.5881 338.804 80.1489 337.161 79.2706C335.529 78.3922 334.249 77.1562 333.321 75.5626C332.405 73.969 331.947 72.0994 331.947 69.9536V52.9573L336.539 52.9197V69.8407C336.539 70.8571 336.709 71.7668 337.048 72.5699C337.399 73.373 337.87 74.0568 338.459 74.6215C339.049 75.1736 339.727 75.594 340.492 75.8826C341.258 76.1712 342.048 76.3155 342.864 76.3155C343.704 76.3155 344.501 76.1712 345.254 75.8826C346.019 75.5814 346.697 75.1548 347.287 74.6027C347.877 74.038 348.341 73.3542 348.68 72.5511C349.018 71.748 349.188 70.8446 349.188 69.8407V52.9197H353.78V69.9536C353.78 72.0994 353.316 73.969 352.388 75.5626C351.472 77.1562 350.192 78.3922 348.548 79.2706C346.917 80.1489 345.022 80.5881 342.864 80.5881ZM366.576 80.0234V52.9197H377.776C378.039 52.9197 378.378 52.9322 378.792 52.9573C379.206 52.9699 379.589 53.0075 379.94 53.0703C381.509 53.3087 382.801 53.8294 383.817 54.6325C384.846 55.4356 385.606 56.452 386.095 57.6817C386.597 58.8988 386.848 60.254 386.848 61.7472C386.848 63.9557 386.289 65.8567 385.173 67.4503C384.056 69.0314 382.343 70.0101 380.034 70.3866L378.096 70.5559H371.113V80.0234H366.576ZM382.142 80.0234L376.797 68.9937L381.408 67.9773L387.281 80.0234H382.142ZM371.113 66.321H377.587C377.838 66.321 378.121 66.3084 378.434 66.2833C378.748 66.2582 379.037 66.2081 379.3 66.1328C380.053 65.9445 380.643 65.612 381.069 65.1352C381.509 64.6584 381.816 64.1188 381.992 63.5165C382.18 62.9142 382.274 62.3244 382.274 61.7472C382.274 61.17 382.18 60.5803 381.992 59.978C381.816 59.3631 381.509 58.8173 381.069 58.3404C380.643 57.8636 380.053 57.5311 379.3 57.3429C379.037 57.2676 378.748 57.2237 378.434 57.2111C378.121 57.186 377.838 57.1735 377.587 57.1735H371.113V66.321ZM389.545 80.0234L398.09 52.9197H404.735L413.28 80.0234H408.612L400.857 55.7054H401.874L394.213 80.0234H389.545ZM394.307 74.151V69.916H408.537V74.151H394.307ZM420.953 80.0234V57.1735H412.182V52.9197H434.26V57.1735H425.489V80.0234H420.953ZM437.269 80.0234V52.9197H441.806V64.3259H454.642V52.9197H459.159V80.0234H454.642V68.5796H441.806V80.0234H437.269ZM464.436 80.0234V52.9197H481.941V57.1735H468.973V63.8553H479.682V68.1091H468.973V75.7697H481.941V80.0234H464.436ZM486.457 80.0234V52.9197H497.656C497.919 52.9197 498.258 52.9322 498.672 52.9573C499.086 52.9699 499.469 53.0075 499.82 53.0703C501.389 53.3087 502.681 53.8294 503.698 54.6325C504.727 55.4356 505.486 56.452 505.975 57.6817C506.477 58.8988 506.728 60.254 506.728 61.7472C506.728 63.9557 506.17 65.8567 505.053 67.4503C503.936 69.0314 502.223 70.0101 499.915 70.3866L497.976 70.5559H490.993V80.0234H486.457ZM502.023 80.0234L496.677 68.9937L501.289 67.9773L507.161 80.0234H502.023ZM490.993 66.321H497.468C497.719 66.321 498.001 66.3084 498.315 66.2833C498.628 66.2582 498.917 66.2081 499.18 66.1328C499.933 65.9445 500.523 65.612 500.95 65.1352C501.389 64.6584 501.696 64.1188 501.872 63.5165C502.06 62.9142 502.154 62.3244 502.154 61.7472C502.154 61.17 502.06 60.5803 501.872 59.978C501.696 59.3631 501.389 58.8173 500.95 58.3404C500.523 57.8636 499.933 57.5311 499.18 57.3429C498.917 57.2676 498.628 57.2237 498.315 57.2111C498.001 57.186 497.719 57.1735 497.468 57.1735H490.993V66.321ZM516.22 72.664C516.22 71.7982 516.302 70.9638 516.465 70.1607C516.641 69.3451 516.923 68.5922 517.312 67.902C517.651 67.237 518.027 66.71 518.441 66.321C518.855 65.9195 519.32 65.5242 519.834 65.1352C520.349 64.7337 520.919 64.2004 521.547 63.5353C522.061 62.9707 522.4 62.4123 522.563 61.8602C522.726 61.2955 522.808 60.6932 522.808 60.0532C522.808 59.6392 522.764 59.2502 522.676 58.8863C522.588 58.5224 522.432 58.2087 522.206 57.9452C521.854 57.4809 521.403 57.1547 520.85 56.9664C520.298 56.7657 519.709 56.6653 519.081 56.6653C518.567 56.6653 518.071 56.7343 517.594 56.8723C517.13 56.9978 516.735 57.1986 516.408 57.4746C516.032 57.7758 515.756 58.1459 515.58 58.5851C515.405 59.0243 515.323 59.5074 515.336 60.0344H510.555C510.68 58.7796 511.019 57.6189 511.571 56.5523C512.136 55.4732 512.876 54.6137 513.792 53.9737C514.507 53.4467 515.311 53.0514 516.201 52.7879C517.105 52.5244 518.008 52.3927 518.912 52.3927C520.292 52.3927 521.591 52.606 522.808 53.0326C524.038 53.4593 525.06 54.1619 525.876 55.1407C526.441 55.7806 526.867 56.521 527.156 57.3617C527.457 58.2024 527.608 59.0557 527.608 59.9215C527.608 61.2139 527.325 62.3935 526.761 63.46C526.208 64.5266 525.506 65.5116 524.653 66.4151C524.251 66.8417 523.868 67.2182 523.504 67.5444C523.14 67.8707 522.802 68.1906 522.488 68.5043C522.187 68.8055 521.936 69.1255 521.735 69.4643C521.384 70.054 521.177 70.5559 521.114 70.97C521.051 71.3716 521.02 71.9362 521.02 72.664H516.22ZM516.258 80.0234V75.0356H521.02V80.0234H516.258Z" fill="#3E1BC9"></path><rect y="132.861" width="664.307" height="332.154" rx="22.1436" fill="#3E1BC9"></rect><path d="M91.9317 288.758V266.437H95.6674V275.83H106.239V266.437H109.959V288.758H106.239V279.334H95.6674V288.758H91.9317ZM112.754 288.758L119.792 266.437H125.263L132.301 288.758H128.456L122.07 268.731H122.907L116.599 288.758H112.754ZM116.676 283.922V280.434H128.394V283.922H116.676ZM137.945 288.758L130.908 266.437H134.752L140.643 285.131L146.61 266.437H150.454L143.417 288.758H137.945ZM152.783 288.758V266.437H167.199V269.94H156.519V275.443H165.339V278.946H156.519V285.255H167.199V288.758H152.783ZM182.487 288.758V269.94H175.264V266.437H193.446V269.94H186.223V288.758H182.487ZM205.364 289.223C203.132 289.223 201.22 288.737 199.629 287.766C198.038 286.784 196.813 285.42 195.955 283.674C195.108 281.927 194.684 279.902 194.684 277.597C194.684 275.293 195.108 273.268 195.955 271.521C196.813 269.775 198.038 268.416 199.629 267.445C201.22 266.463 203.132 265.972 205.364 265.972C207.596 265.972 209.508 266.463 211.099 267.445C212.701 268.416 213.926 269.775 214.773 271.521C215.631 273.268 216.06 275.293 216.06 277.597C216.06 279.902 215.631 281.927 214.773 283.674C213.926 285.42 212.701 286.784 211.099 287.766C209.508 288.737 207.596 289.223 205.364 289.223ZM205.364 285.704C206.863 285.715 208.108 285.384 209.1 284.712C210.102 284.04 210.851 283.095 211.347 281.876C211.854 280.656 212.107 279.23 212.107 277.597C212.107 275.965 211.854 274.549 211.347 273.35C210.851 272.141 210.102 271.201 209.1 270.529C208.108 269.858 206.863 269.511 205.364 269.491C203.866 269.48 202.621 269.811 201.629 270.483C200.637 271.154 199.887 272.1 199.381 273.319C198.885 274.539 198.637 275.965 198.637 277.597C198.637 279.23 198.885 280.651 199.381 281.86C199.877 283.059 200.621 283.994 201.613 284.666C202.615 285.337 203.866 285.684 205.364 285.704ZM233.613 289.223C231.98 289.223 230.508 288.939 229.195 288.37C227.893 287.802 226.818 286.991 225.971 285.937C225.134 284.872 224.602 283.612 224.375 282.155L228.25 281.566C228.58 282.888 229.257 283.911 230.28 284.635C231.314 285.358 232.502 285.72 233.845 285.72C234.641 285.72 235.39 285.596 236.093 285.348C236.796 285.1 237.364 284.738 237.798 284.263C238.242 283.787 238.465 283.203 238.465 282.511C238.465 282.201 238.413 281.917 238.31 281.659C238.206 281.39 238.051 281.152 237.845 280.946C237.648 280.739 237.39 280.553 237.069 280.388C236.759 280.212 236.398 280.062 235.984 279.938L230.218 278.233C229.722 278.088 229.185 277.897 228.606 277.659C228.038 277.411 227.495 277.076 226.979 276.652C226.472 276.218 226.054 275.67 225.723 275.009C225.403 274.337 225.243 273.51 225.243 272.529C225.243 271.092 225.604 269.889 226.328 268.917C227.061 267.935 228.043 267.202 229.273 266.716C230.513 266.23 231.887 265.993 233.396 266.003C234.925 266.013 236.289 266.277 237.488 266.794C238.687 267.3 239.689 268.039 240.495 269.01C241.301 269.982 241.869 271.154 242.2 272.529L238.186 273.226C238.02 272.441 237.7 271.774 237.225 271.227C236.759 270.669 236.186 270.245 235.504 269.956C234.832 269.666 234.114 269.511 233.349 269.491C232.605 269.48 231.913 269.594 231.272 269.832C230.642 270.059 230.13 270.39 229.738 270.824C229.355 271.258 229.164 271.764 229.164 272.343C229.164 272.89 229.33 273.34 229.66 273.691C229.991 274.032 230.399 274.306 230.885 274.513C231.381 274.709 231.882 274.875 232.388 275.009L236.387 276.125C236.935 276.27 237.55 276.466 238.232 276.714C238.914 276.962 239.57 277.308 240.201 277.752C240.831 278.197 241.348 278.781 241.751 279.504C242.164 280.227 242.371 281.147 242.371 282.263C242.371 283.42 242.128 284.438 241.642 285.317C241.167 286.185 240.521 286.908 239.705 287.487C238.888 288.065 237.953 288.499 236.899 288.789C235.855 289.078 234.76 289.223 233.613 289.223ZM245.726 288.758V266.437H254.949C255.166 266.437 255.445 266.447 255.786 266.468C256.127 266.478 256.442 266.509 256.731 266.561C258.023 266.757 259.087 267.186 259.924 267.848C260.772 268.509 261.397 269.346 261.8 270.359C262.213 271.361 262.42 272.477 262.42 273.707C262.42 274.926 262.213 276.042 261.8 277.055C261.386 278.057 260.756 278.889 259.909 279.551C259.072 280.212 258.013 280.641 256.731 280.837C256.442 280.878 256.121 280.909 255.77 280.93C255.429 280.951 255.155 280.961 254.949 280.961H249.461V288.758H245.726ZM249.461 277.473H254.794C255 277.473 255.233 277.463 255.491 277.442C255.749 277.422 255.987 277.38 256.204 277.318C256.824 277.163 257.31 276.89 257.661 276.497C258.023 276.104 258.276 275.66 258.421 275.164C258.576 274.668 258.653 274.182 258.653 273.707C258.653 273.231 258.576 272.746 258.421 272.25C258.276 271.743 258.023 271.294 257.661 270.901C257.31 270.509 256.824 270.235 256.204 270.08C255.987 270.018 255.749 269.982 255.491 269.971C255.233 269.951 255 269.94 254.794 269.94H249.461V277.473ZM265.525 288.758V266.437H279.941V269.94H269.261V275.443H278.081V278.946H269.261V285.255H279.941V288.758H265.525ZM282.11 288.758L289.147 266.437H294.619L301.656 288.758H297.812L291.425 268.731H292.262L285.954 288.758H282.11ZM286.031 283.922V280.434H297.75V283.922H286.031ZM304.458 288.758V266.437H308.194V276.791L317.107 266.437H321.695L312.1 277.38L322.346 288.758H317.603L308.194 278.341V288.758H304.458ZM339.571 289.223C337.339 289.223 335.427 288.737 333.836 287.766C332.244 286.784 331.02 285.42 330.162 283.674C329.315 281.927 328.891 279.902 328.891 277.597C328.891 275.293 329.315 273.268 330.162 271.521C331.02 269.775 332.244 268.416 333.836 267.445C335.427 266.463 337.339 265.972 339.571 265.972C341.803 265.972 343.715 266.463 345.306 267.445C346.908 268.416 348.132 269.775 348.98 271.521C349.837 273.268 350.266 275.293 350.266 277.597C350.266 279.902 349.837 281.927 348.98 283.674C348.132 285.42 346.908 286.784 345.306 287.766C343.715 288.737 341.803 289.223 339.571 289.223ZM339.571 285.704C341.069 285.715 342.314 285.384 343.306 284.712C344.309 284.04 345.058 283.095 345.554 281.876C346.06 280.656 346.313 279.23 346.313 277.597C346.313 275.965 346.06 274.549 345.554 273.35C345.058 272.141 344.309 271.201 343.306 270.529C342.314 269.858 341.069 269.511 339.571 269.491C338.072 269.48 336.827 269.811 335.835 270.483C334.843 271.154 334.094 272.1 333.588 273.319C333.091 274.539 332.843 275.965 332.843 277.597C332.843 279.23 333.091 280.651 333.588 281.86C334.084 283.059 334.828 283.994 335.82 284.666C336.822 285.337 338.072 285.684 339.571 285.704ZM353.351 288.758V266.437H357.133L367.488 282.17V266.437H371.27V288.758H367.488L357.133 273.025V288.758H353.351ZM375.913 288.758V266.437H379.649V285.255H389.507V288.758H375.913ZM394.47 288.758V279.613L386.875 266.437H391.23L396.361 275.334L401.476 266.437H405.832L398.252 279.613V288.758H394.47ZM413.272 288.758V266.437H417.007V288.758H413.272ZM421.65 288.758V266.437H425.433L435.787 282.17V266.437H439.569V288.758H435.787L425.433 273.025V288.758H421.65ZM450.108 288.758V266.437H459.331C459.548 266.437 459.827 266.447 460.168 266.468C460.509 266.478 460.824 266.509 461.114 266.561C462.406 266.757 463.47 267.186 464.307 267.848C465.154 268.509 465.779 269.346 466.182 270.359C466.596 271.361 466.803 272.477 466.803 273.707C466.803 275.526 466.343 277.091 465.423 278.403C464.503 279.706 463.093 280.512 461.191 280.822L459.595 280.961H453.844V288.758H450.108ZM462.927 288.758L458.525 279.675L462.323 278.837L467.159 288.758H462.927ZM453.844 277.473H459.176C459.383 277.473 459.615 277.463 459.874 277.442C460.132 277.422 460.37 277.38 460.587 277.318C461.207 277.163 461.693 276.89 462.044 276.497C462.406 276.104 462.659 275.66 462.803 275.164C462.958 274.668 463.036 274.182 463.036 273.707C463.036 273.231 462.958 272.746 462.803 272.25C462.659 271.743 462.406 271.294 462.044 270.901C461.693 270.509 461.207 270.235 460.587 270.08C460.37 270.018 460.132 269.982 459.874 269.971C459.615 269.951 459.383 269.94 459.176 269.94H453.844V277.473ZM470.574 288.758V266.437H474.31V275.83H484.881V266.437H488.601V288.758H484.881V279.334H474.31V288.758H470.574ZM498.372 288.758V279.613L490.777 266.437H495.132L500.263 275.334L505.378 266.437H509.734L502.154 279.613V288.758H498.372ZM511.899 288.758V266.437H515.262L522.981 282.248L530.701 266.437H534.064V288.758H530.577V274.451L523.725 288.758H522.237L515.402 274.451V288.758H511.899ZM538.419 288.758V266.437H552.834V269.94H542.155V275.443H550.974V278.946H542.155V285.255H552.834V288.758H538.419ZM564.603 289.223C562.97 289.223 561.498 288.939 560.186 288.37C558.883 287.802 557.809 286.991 556.961 285.937C556.124 284.872 555.592 283.612 555.365 282.155L559.24 281.566C559.571 282.888 560.248 283.911 561.271 284.635C562.304 285.358 563.492 285.72 564.836 285.72C565.631 285.72 566.381 285.596 567.083 285.348C567.786 285.1 568.354 284.738 568.788 284.263C569.233 283.787 569.455 283.203 569.455 282.511C569.455 282.201 569.403 281.917 569.3 281.659C569.196 281.39 569.041 281.152 568.835 280.946C568.638 280.739 568.38 280.553 568.06 280.388C567.75 280.212 567.388 280.062 566.975 279.938L561.209 278.233C560.713 278.088 560.175 277.897 559.597 277.659C559.028 277.411 558.486 277.076 557.969 276.652C557.463 276.218 557.044 275.67 556.713 275.009C556.393 274.337 556.233 273.51 556.233 272.529C556.233 271.092 556.595 269.889 557.318 268.917C558.052 267.935 559.033 267.202 560.263 266.716C561.503 266.23 562.877 265.993 564.386 266.003C565.916 266.013 567.28 266.277 568.478 266.794C569.677 267.3 570.679 268.039 571.485 269.01C572.291 269.982 572.86 271.154 573.19 272.529L569.176 273.226C569.01 272.441 568.69 271.774 568.215 271.227C567.75 270.669 567.176 270.245 566.494 269.956C565.823 269.666 565.104 269.511 564.34 269.491C563.596 269.48 562.903 269.594 562.263 269.832C561.632 270.059 561.121 270.39 560.728 270.824C560.346 271.258 560.155 271.764 560.155 272.343C560.155 272.89 560.32 273.34 560.651 273.691C560.981 274.032 561.389 274.306 561.875 274.513C562.371 274.709 562.872 274.875 563.379 275.009L567.378 276.125C567.925 276.27 568.54 276.466 569.222 276.714C569.904 276.962 570.561 277.308 571.191 277.752C571.821 278.197 572.338 278.781 572.741 279.504C573.154 280.227 573.361 281.147 573.361 282.263C573.361 283.42 573.118 284.438 572.632 285.317C572.157 286.185 571.511 286.908 570.695 287.487C569.879 288.065 568.943 288.499 567.889 288.789C566.846 289.078 565.75 289.223 564.603 289.223ZM258.259 331.758V309.437H271.698V313.173H261.995V318.737H269.838V322.458H261.995V331.758H258.259ZM283.926 332.223C281.694 332.223 279.783 331.737 278.191 330.766C276.6 329.784 275.375 328.42 274.518 326.674C273.67 324.927 273.246 322.902 273.246 320.597C273.246 318.293 273.67 316.268 274.518 314.521C275.375 312.775 276.6 311.416 278.191 310.445C279.783 309.463 281.694 308.972 283.926 308.972C286.158 308.972 288.07 309.463 289.662 310.445C291.263 311.416 292.488 312.775 293.335 314.521C294.193 316.268 294.622 318.293 294.622 320.597C294.622 322.902 294.193 324.927 293.335 326.674C292.488 328.42 291.263 329.784 289.662 330.766C288.07 331.737 286.158 332.223 283.926 332.223ZM283.926 328.704C285.425 328.715 286.67 328.384 287.662 327.712C288.664 327.04 289.414 326.095 289.91 324.876C290.416 323.656 290.669 322.23 290.669 320.597C290.669 318.965 290.416 317.549 289.91 316.35C289.414 315.141 288.664 314.201 287.662 313.529C286.67 312.858 285.425 312.511 283.926 312.491C282.428 312.48 281.183 312.811 280.191 313.483C279.199 314.154 278.449 315.1 277.943 316.319C277.447 317.539 277.199 318.965 277.199 320.597C277.199 322.23 277.447 323.651 277.943 324.86C278.439 326.059 279.183 326.994 280.175 327.666C281.178 328.337 282.428 328.684 283.926 328.704ZM297.707 331.758V309.437H306.93C307.147 309.437 307.426 309.447 307.767 309.468C308.108 309.478 308.423 309.509 308.712 309.561C310.004 309.757 311.068 310.186 311.905 310.848C312.753 311.509 313.378 312.346 313.781 313.359C314.194 314.361 314.401 315.477 314.401 316.707C314.401 318.526 313.941 320.091 313.021 321.403C312.102 322.706 310.691 323.512 308.79 323.822L307.193 323.961H301.443V331.758H297.707ZM310.526 331.758L306.124 322.675L309.921 321.837L314.758 331.758H310.526ZM301.443 320.473H306.775C306.981 320.473 307.214 320.463 307.472 320.442C307.731 320.422 307.968 320.38 308.185 320.318C308.805 320.163 309.291 319.89 309.642 319.497C310.004 319.104 310.257 318.66 310.402 318.164C310.557 317.668 310.634 317.182 310.634 316.707C310.634 316.231 310.557 315.746 310.402 315.25C310.257 314.743 310.004 314.294 309.642 313.901C309.291 313.509 308.805 313.235 308.185 313.08C307.968 313.018 307.731 312.982 307.472 312.971C307.214 312.951 306.981 312.94 306.775 312.94H301.443V320.473ZM322.829 331.758L329.866 309.437H335.338L342.375 331.758H338.531L332.145 311.731H332.982L326.673 331.758H322.829ZM326.75 326.922V323.434H338.469V326.922H326.75ZM351.384 331.758V309.437H358.498C358.684 309.437 359.051 309.442 359.599 309.453C360.157 309.463 360.694 309.499 361.211 309.561C362.978 309.788 364.471 310.419 365.691 311.452C366.92 312.475 367.85 313.782 368.481 315.374C369.111 316.965 369.426 318.706 369.426 320.597C369.426 322.489 369.111 324.23 368.481 325.821C367.85 327.413 366.92 328.725 365.691 329.758C364.471 330.781 362.978 331.406 361.211 331.634C360.705 331.696 360.172 331.732 359.614 331.742C359.056 331.753 358.684 331.758 358.498 331.758H351.384ZM355.181 328.239H358.498C358.808 328.239 359.201 328.229 359.676 328.208C360.162 328.188 360.591 328.141 360.963 328.069C362.017 327.872 362.875 327.402 363.536 326.658C364.197 325.914 364.683 325.01 364.993 323.946C365.313 322.881 365.474 321.765 365.474 320.597C365.474 319.388 365.313 318.252 364.993 317.187C364.673 316.123 364.177 315.229 363.505 314.506C362.844 313.782 361.996 313.323 360.963 313.126C360.591 313.044 360.162 312.997 359.676 312.987C359.201 312.966 358.808 312.956 358.498 312.956H355.181V328.239ZM370.935 331.758L377.972 309.437H383.444L390.481 331.758H386.637L380.251 311.731H381.088L374.779 331.758H370.935ZM374.856 326.922V323.434H386.575V326.922H374.856ZM396.862 331.758V322.613L389.267 309.437H393.622L398.753 318.334L403.868 309.437H408.224L400.644 322.613V331.758H396.862Z" fill="white"></path><rect y="525.91" width="664.307" height="332.154" rx="22.1436" fill="#55ACEE"></rect><path d="M98.0777 681.807V659.486H101.441L109.161 675.296L116.88 659.486H120.243V681.807H116.756V667.5L109.905 681.807H108.417L101.581 667.5V681.807H98.0777ZM133.588 682.272C131.811 682.272 130.245 681.91 128.892 681.187C127.548 680.463 126.494 679.445 125.73 678.133C124.975 676.821 124.598 675.281 124.598 673.514V659.517L128.38 659.486V673.421C128.38 674.258 128.52 675.007 128.799 675.668C129.088 676.33 129.476 676.893 129.961 677.358C130.447 677.813 131.005 678.159 131.635 678.397C132.266 678.634 132.917 678.753 133.588 678.753C134.281 678.753 134.937 678.634 135.557 678.397C136.187 678.149 136.745 677.797 137.231 677.342C137.717 676.877 138.099 676.314 138.378 675.653C138.657 674.992 138.797 674.248 138.797 673.421V659.486H142.579V673.514C142.579 675.281 142.196 676.821 141.432 678.133C140.677 679.445 139.623 680.463 138.27 681.187C136.926 681.91 135.366 682.272 133.588 682.272ZM154.234 682.272C152.601 682.272 151.128 681.987 149.816 681.419C148.514 680.851 147.439 680.04 146.592 678.986C145.755 677.921 145.223 676.66 144.995 675.203L148.87 674.614C149.201 675.937 149.878 676.96 150.901 677.684C151.934 678.407 153.123 678.769 154.466 678.769C155.262 678.769 156.011 678.645 156.714 678.397C157.416 678.149 157.985 677.787 158.419 677.311C158.863 676.836 159.085 676.252 159.085 675.56C159.085 675.25 159.034 674.966 158.93 674.707C158.827 674.439 158.672 674.201 158.465 673.994C158.269 673.788 158.011 673.602 157.69 673.436C157.38 673.261 157.019 673.111 156.605 672.987L150.839 671.282C150.343 671.137 149.806 670.946 149.227 670.708C148.659 670.46 148.116 670.124 147.599 669.701C147.093 669.267 146.675 668.719 146.344 668.058C146.024 667.386 145.863 666.559 145.863 665.578C145.863 664.141 146.225 662.937 146.948 661.966C147.682 660.984 148.664 660.251 149.893 659.765C151.134 659.279 152.508 659.042 154.017 659.052C155.546 659.062 156.91 659.326 158.109 659.842C159.307 660.349 160.31 661.088 161.116 662.059C161.922 663.03 162.49 664.203 162.821 665.578L158.806 666.275C158.641 665.49 158.321 664.823 157.845 664.276C157.38 663.718 156.807 663.294 156.125 663.005C155.453 662.715 154.735 662.56 153.97 662.54C153.226 662.529 152.534 662.643 151.893 662.881C151.263 663.108 150.751 663.439 150.358 663.873C149.976 664.307 149.785 664.813 149.785 665.392C149.785 665.939 149.95 666.389 150.281 666.74C150.612 667.081 151.02 667.355 151.506 667.562C152.002 667.758 152.503 667.923 153.009 668.058L157.008 669.174C157.556 669.318 158.171 669.515 158.853 669.763C159.535 670.011 160.191 670.357 160.821 670.801C161.452 671.246 161.968 671.829 162.371 672.553C162.785 673.276 162.991 674.196 162.991 675.312C162.991 676.469 162.749 677.487 162.263 678.366C161.788 679.234 161.142 679.957 160.325 680.536C159.509 681.114 158.574 681.548 157.52 681.838C156.476 682.127 155.381 682.272 154.234 682.272ZM171.71 681.807V662.989H164.486V659.486H182.669V662.989H175.445V681.807H171.71ZM195.778 681.807V662.989H188.555V659.486H206.737V662.989H199.513V681.807H195.778ZM209.215 681.807V659.486H223.631V662.989H212.951V668.492H221.771V671.995H212.951V678.304H223.631V681.807H209.215ZM227.66 681.807V659.486H231.395V678.304H241.253V681.807H227.66ZM244.189 681.807V659.486H247.925V678.304H257.783V681.807H244.189ZM270.435 681.807V662.989H263.211V659.486H281.393V662.989H274.17V681.807H270.435ZM283.872 681.807V659.486H287.607V668.879H298.179V659.486H301.899V681.807H298.179V672.382H287.607V681.807H283.872ZM306.245 681.807V659.486H320.66V662.989H309.98V668.492H318.8V671.995H309.98V678.304H320.66V681.807H306.245ZM335.948 681.807V662.989H328.725V659.486H346.907V662.989H339.684V681.807H335.948ZM349.386 681.807V659.486H358.609C358.826 659.486 359.105 659.496 359.446 659.517C359.787 659.527 360.102 659.558 360.391 659.61C361.683 659.806 362.747 660.235 363.584 660.896C364.432 661.558 365.057 662.395 365.46 663.408C365.873 664.41 366.08 665.526 366.08 666.756C366.08 668.574 365.62 670.14 364.7 671.452C363.781 672.754 362.37 673.56 360.469 673.87L358.872 674.01H353.121V681.807H349.386ZM362.205 681.807L357.802 672.723L361.6 671.886L366.436 681.807H362.205ZM353.121 670.522H358.454C358.66 670.522 358.893 670.512 359.151 670.491C359.409 670.471 359.647 670.429 359.864 670.367C360.484 670.212 360.97 669.938 361.321 669.546C361.683 669.153 361.936 668.709 362.081 668.213C362.236 667.717 362.313 667.231 362.313 666.756C362.313 666.28 362.236 665.795 362.081 665.299C361.936 664.792 361.683 664.343 361.321 663.95C360.97 663.557 360.484 663.284 359.864 663.129C359.647 663.067 359.409 663.03 359.151 663.02C358.893 662.999 358.66 662.989 358.454 662.989H353.121V670.522ZM378.842 682.272C377.064 682.272 375.499 681.91 374.145 681.187C372.801 680.463 371.747 679.445 370.983 678.133C370.228 676.821 369.851 675.281 369.851 673.514V659.517L373.633 659.486V673.421C373.633 674.258 373.773 675.007 374.052 675.668C374.341 676.33 374.729 676.893 375.214 677.358C375.7 677.813 376.258 678.159 376.888 678.397C377.519 678.634 378.17 678.753 378.842 678.753C379.534 678.753 380.19 678.634 380.81 678.397C381.44 678.149 381.998 677.797 382.484 677.342C382.97 676.877 383.352 676.314 383.631 675.653C383.91 674.992 384.05 674.248 384.05 673.421V659.486H387.832V673.514C387.832 675.281 387.449 676.821 386.685 678.133C385.93 679.445 384.876 680.463 383.523 681.187C382.179 681.91 380.619 682.272 378.842 682.272ZM397.527 681.807V662.989H390.303V659.486H408.486V662.989H401.262V681.807H397.527ZM410.964 681.807V659.486H414.7V668.879H425.271V659.486H428.991V681.807H425.271V672.382H414.7V681.807H410.964ZM439.853 681.807V659.486H443.589V681.807H439.853ZM448.232 681.807V659.486H452.014L462.368 675.219V659.486H466.15V681.807H462.368L452.014 666.074V681.807H448.232ZM476.69 681.807V659.486H491.105V662.989H480.425V668.492H489.245V671.995H480.425V678.304H491.105V681.807H476.69ZM499.846 681.807L492.809 659.486H496.653L502.543 678.18L508.511 659.486H512.355L505.318 681.807H499.846ZM514.684 681.807V659.486H529.1V662.989H518.42V668.492H527.239V671.995H518.42V678.304H529.1V681.807H514.684ZM532.818 681.807V659.486H542.041C542.258 659.486 542.537 659.496 542.878 659.517C543.219 659.527 543.534 659.558 543.824 659.61C545.116 659.806 546.18 660.235 547.017 660.896C547.864 661.558 548.489 662.395 548.892 663.408C549.306 664.41 549.512 665.526 549.512 666.756C549.512 668.574 549.053 670.14 548.133 671.452C547.213 672.754 545.803 673.56 543.901 673.87L542.305 674.01H536.554V681.807H532.818ZM545.637 681.807L541.235 672.723L545.033 671.886L549.869 681.807H545.637ZM536.554 670.522H541.886C542.093 670.522 542.325 670.512 542.584 670.491C542.842 670.471 543.08 670.429 543.297 670.367C543.917 670.212 544.402 669.938 544.754 669.546C545.116 669.153 545.369 668.709 545.513 668.213C545.668 667.717 545.746 667.231 545.746 666.756C545.746 666.28 545.668 665.795 545.513 665.299C545.369 664.792 545.116 664.343 544.754 663.95C544.402 663.557 543.917 663.284 543.297 663.129C543.08 663.067 542.842 663.03 542.584 663.02C542.325 662.999 542.093 662.989 541.886 662.989H536.554V670.522ZM558.285 681.807V672.661L550.69 659.486H555.046L560.176 668.383L565.292 659.486H569.647L562.067 672.661V681.807H558.285ZM112.21 725.272C109.978 725.272 108.066 724.786 106.475 723.815C104.883 722.833 103.659 721.469 102.801 719.722C101.954 717.976 101.53 715.951 101.53 713.646C101.53 711.342 101.954 709.316 102.801 707.57C103.659 705.824 104.883 704.465 106.475 703.493C108.066 702.512 109.978 702.021 112.21 702.021C114.783 702.021 116.927 702.667 118.643 703.958C120.358 705.24 121.562 706.971 122.254 709.151L118.488 710.19C118.054 708.733 117.315 707.596 116.271 706.78C115.227 705.953 113.874 705.54 112.21 705.54C110.712 705.54 109.461 705.875 108.459 706.547C107.467 707.219 106.718 708.164 106.211 709.384C105.715 710.593 105.462 712.014 105.452 713.646C105.452 715.279 105.7 716.705 106.196 717.924C106.702 719.133 107.457 720.074 108.459 720.746C109.461 721.417 110.712 721.753 112.21 721.753C113.874 721.753 115.227 721.34 116.271 720.513C117.315 719.686 118.054 718.55 118.488 717.103L122.254 718.141C121.562 720.322 120.358 722.058 118.643 723.35C116.927 724.631 114.783 725.272 112.21 725.272ZM135.098 725.272C132.865 725.272 130.954 724.786 129.362 723.815C127.771 722.833 126.546 721.469 125.689 719.722C124.841 717.976 124.418 715.951 124.418 713.646C124.418 711.342 124.841 709.316 125.689 707.57C126.546 705.824 127.771 704.465 129.362 703.493C130.954 702.512 132.865 702.021 135.098 702.021C137.33 702.021 139.241 702.512 140.833 703.493C142.434 704.465 143.659 705.824 144.506 707.57C145.364 709.316 145.793 711.342 145.793 713.646C145.793 715.951 145.364 717.976 144.506 719.722C143.659 721.469 142.434 722.833 140.833 723.815C139.241 724.786 137.33 725.272 135.098 725.272ZM135.098 721.753C136.596 721.763 137.841 721.433 138.833 720.761C139.836 720.089 140.585 719.144 141.081 717.924C141.587 716.705 141.84 715.279 141.84 713.646C141.84 712.014 141.587 710.598 141.081 709.399C140.585 708.19 139.836 707.25 138.833 706.578C137.841 705.906 136.596 705.56 135.098 705.54C133.599 705.529 132.354 705.86 131.362 706.532C130.37 707.203 129.621 708.149 129.114 709.368C128.618 710.588 128.37 712.014 128.37 713.646C128.37 715.279 128.618 716.7 129.114 717.909C129.61 719.108 130.354 720.043 131.346 720.715C132.349 721.386 133.599 721.732 135.098 721.753ZM148.878 724.807V702.486H152.66L163.015 718.219V702.486H166.797V724.807H163.015L152.66 709.074V724.807H148.878ZM176.152 724.807L169.115 702.486H172.959L178.849 721.18L184.817 702.486H188.661L181.624 724.807H176.152ZM190.99 724.807V702.486H205.405V705.989H194.726V711.492H203.545V714.995H194.726V721.304H205.405V724.807H190.99ZM209.124 724.807V702.486H218.347C218.564 702.486 218.843 702.496 219.184 702.517C219.525 702.527 219.84 702.558 220.13 702.61C221.421 702.806 222.486 703.235 223.323 703.896C224.17 704.558 224.795 705.395 225.198 706.408C225.612 707.41 225.818 708.526 225.818 709.756C225.818 711.574 225.358 713.14 224.439 714.452C223.519 715.754 222.109 716.56 220.207 716.87L218.611 717.01H212.86V724.807H209.124ZM221.943 724.807L217.541 715.723L221.339 714.886L226.175 724.807H221.943ZM212.86 713.522H218.192C218.399 713.522 218.631 713.512 218.89 713.491C219.148 713.471 219.386 713.429 219.603 713.367C220.223 713.212 220.708 712.938 221.06 712.546C221.421 712.153 221.675 711.709 221.819 711.213C221.974 710.717 222.052 710.231 222.052 709.756C222.052 709.28 221.974 708.795 221.819 708.299C221.675 707.792 221.421 707.343 221.06 706.95C220.708 706.557 220.223 706.284 219.603 706.129C219.386 706.067 219.148 706.03 218.89 706.02C218.631 705.999 218.399 705.989 218.192 705.989H212.86V713.522ZM237.852 725.272C236.219 725.272 234.746 724.987 233.434 724.419C232.132 723.851 231.057 723.04 230.21 721.986C229.373 720.921 228.841 719.66 228.613 718.203L232.488 717.614C232.819 718.937 233.496 719.96 234.519 720.684C235.552 721.407 236.741 721.769 238.084 721.769C238.88 721.769 239.629 721.645 240.332 721.397C241.034 721.149 241.603 720.787 242.037 720.311C242.481 719.836 242.703 719.252 242.703 718.56C242.703 718.25 242.652 717.966 242.548 717.707C242.445 717.439 242.29 717.201 242.083 716.994C241.887 716.788 241.629 716.602 241.308 716.436C240.998 716.261 240.637 716.111 240.223 715.987L234.457 714.282C233.961 714.137 233.424 713.946 232.845 713.708C232.277 713.46 231.734 713.124 231.217 712.701C230.711 712.267 230.292 711.719 229.962 711.058C229.641 710.386 229.481 709.559 229.481 708.578C229.481 707.141 229.843 705.937 230.566 704.966C231.3 703.984 232.282 703.251 233.511 702.765C234.751 702.279 236.126 702.042 237.635 702.052C239.164 702.062 240.528 702.326 241.727 702.842C242.925 703.349 243.928 704.088 244.734 705.059C245.54 706.03 246.108 707.203 246.439 708.578L242.424 709.275C242.259 708.49 241.939 707.823 241.463 707.276C240.998 706.718 240.425 706.294 239.743 706.005C239.071 705.715 238.353 705.56 237.588 705.54C236.844 705.529 236.152 705.643 235.511 705.881C234.881 706.108 234.369 706.439 233.976 706.873C233.594 707.307 233.403 707.813 233.403 708.392C233.403 708.939 233.568 709.389 233.899 709.74C234.23 710.081 234.638 710.355 235.123 710.562C235.62 710.758 236.121 710.923 236.627 711.058L240.626 712.174C241.174 712.318 241.789 712.515 242.471 712.763C243.153 713.011 243.809 713.357 244.439 713.801C245.07 714.246 245.586 714.829 245.989 715.553C246.403 716.276 246.609 717.196 246.609 718.312C246.609 719.469 246.367 720.487 245.881 721.366C245.405 722.234 244.76 722.957 243.943 723.536C243.127 724.114 242.192 724.548 241.138 724.838C240.094 725.127 238.999 725.272 237.852 725.272ZM248.414 724.807L255.452 702.486H260.923L267.961 724.807H264.116L257.73 704.78H258.567L252.259 724.807H248.414ZM252.336 719.97V716.483H264.054V719.97H252.336ZM274.279 724.807V705.989H267.056V702.486H285.238V705.989H278.015V724.807H274.279ZM288.027 724.807V702.486H291.762V724.807H288.027ZM305.845 725.272C303.613 725.272 301.701 724.786 300.11 723.815C298.519 722.833 297.294 721.469 296.436 719.722C295.589 717.976 295.165 715.951 295.165 713.646C295.165 711.342 295.589 709.316 296.436 707.57C297.294 705.824 298.519 704.465 300.11 703.493C301.701 702.512 303.613 702.021 305.845 702.021C308.077 702.021 309.989 702.512 311.58 703.493C313.182 704.465 314.407 705.824 315.254 707.57C316.112 709.316 316.541 711.342 316.541 713.646C316.541 715.951 316.112 717.976 315.254 719.722C314.407 721.469 313.182 722.833 311.58 723.815C309.989 724.786 308.077 725.272 305.845 725.272ZM305.845 721.753C307.344 721.763 308.589 721.433 309.581 720.761C310.583 720.089 311.332 719.144 311.828 717.924C312.335 716.705 312.588 715.279 312.588 713.646C312.588 712.014 312.335 710.598 311.828 709.399C311.332 708.19 310.583 707.25 309.581 706.578C308.589 705.906 307.344 705.56 305.845 705.54C304.347 705.529 303.102 705.86 302.11 706.532C301.118 707.203 300.368 708.149 299.862 709.368C299.366 710.588 299.118 712.014 299.118 713.646C299.118 715.279 299.366 716.7 299.862 717.909C300.358 719.108 301.102 720.043 302.094 720.715C303.097 721.386 304.347 721.732 305.845 721.753ZM319.626 724.807V702.486H323.408L333.762 718.219V702.486H337.545V724.807H333.762L323.408 709.074V724.807H319.626ZM348.084 724.807V702.486H361.523V706.222H351.82V711.786H359.663V715.506H351.82V724.807H348.084ZM373.751 725.272C371.519 725.272 369.607 724.786 368.016 723.815C366.424 722.833 365.2 721.469 364.342 719.722C363.495 717.976 363.071 715.951 363.071 713.646C363.071 711.342 363.495 709.316 364.342 707.57C365.2 705.824 366.424 704.465 368.016 703.493C369.607 702.512 371.519 702.021 373.751 702.021C375.983 702.021 377.895 702.512 379.486 703.493C381.088 704.465 382.312 705.824 383.16 707.57C384.017 709.316 384.446 711.342 384.446 713.646C384.446 715.951 384.017 717.976 383.16 719.722C382.312 721.469 381.088 722.833 379.486 723.815C377.895 724.786 375.983 725.272 373.751 725.272ZM373.751 721.753C375.249 721.763 376.494 721.433 377.486 720.761C378.489 720.089 379.238 719.144 379.734 717.924C380.24 716.705 380.494 715.279 380.494 713.646C380.494 712.014 380.24 710.598 379.734 709.399C379.238 708.19 378.489 707.25 377.486 706.578C376.494 705.906 375.249 705.56 373.751 705.54C372.252 705.529 371.007 705.86 370.015 706.532C369.023 707.203 368.274 708.149 367.768 709.368C367.272 710.588 367.024 712.014 367.024 713.646C367.024 715.279 367.272 716.7 367.768 717.909C368.264 719.108 369.008 720.043 370 720.715C371.002 721.386 372.252 721.732 373.751 721.753ZM387.531 724.807V702.486H396.754C396.971 702.486 397.25 702.496 397.591 702.517C397.932 702.527 398.247 702.558 398.537 702.61C399.829 702.806 400.893 703.235 401.73 703.896C402.577 704.558 403.202 705.395 403.605 706.408C404.019 707.41 404.226 708.526 404.226 709.756C404.226 711.574 403.766 713.14 402.846 714.452C401.926 715.754 400.516 716.56 398.614 716.87L397.018 717.01H391.267V724.807H387.531ZM400.35 724.807L395.948 715.723L399.746 714.886L404.582 724.807H400.35ZM391.267 713.522H396.599C396.806 713.522 397.038 713.512 397.297 713.491C397.555 713.471 397.793 713.429 398.01 713.367C398.63 713.212 399.116 712.938 399.467 712.546C399.829 712.153 400.082 711.709 400.226 711.213C400.381 710.717 400.459 710.231 400.459 709.756C400.459 709.28 400.381 708.795 400.226 708.299C400.082 707.792 399.829 707.343 399.467 706.95C399.116 706.557 398.63 706.284 398.01 706.129C397.793 706.067 397.555 706.03 397.297 706.02C397.038 705.999 396.806 705.989 396.599 705.989H391.267V713.522ZM413.583 724.776V721.521L423.132 713.011C423.876 712.349 424.392 711.724 424.682 711.135C424.971 710.546 425.116 709.978 425.116 709.43C425.116 708.686 424.955 708.025 424.635 707.446C424.315 706.857 423.87 706.392 423.302 706.051C422.744 705.71 422.098 705.54 421.365 705.54C420.589 705.54 419.902 705.72 419.303 706.082C418.714 706.433 418.254 706.904 417.923 707.493C417.593 708.082 417.438 708.717 417.458 709.399H413.614C413.614 707.911 413.945 706.614 414.606 705.509C415.278 704.403 416.198 703.545 417.365 702.935C418.543 702.326 419.902 702.021 421.442 702.021C422.868 702.021 424.149 702.341 425.286 702.982C426.423 703.612 427.317 704.491 427.968 705.617C428.619 706.733 428.944 708.02 428.944 709.477C428.944 710.541 428.8 711.435 428.51 712.158C428.221 712.882 427.787 713.548 427.208 714.158C426.64 714.767 425.932 715.444 425.085 716.188L418.311 722.187L417.97 721.257H428.944V724.776H413.583ZM441.334 724.807V721.118H431.445V717.63L438.591 702.486H442.854L435.708 717.63H441.334V711.817H445.117V717.63H447.209V721.118H445.117V724.807H441.334ZM457.132 724.807V702.486H460.868V711.879H471.439V702.486H475.159V724.807H471.439V715.382H460.868V724.807H457.132ZM488.945 725.272C486.713 725.272 484.801 724.786 483.21 723.815C481.618 722.833 480.394 721.469 479.536 719.722C478.689 717.976 478.265 715.951 478.265 713.646C478.265 711.342 478.689 709.316 479.536 707.57C480.394 705.824 481.618 704.465 483.21 703.493C484.801 702.512 486.713 702.021 488.945 702.021C491.177 702.021 493.089 702.512 494.68 703.493C496.282 704.465 497.506 705.824 498.354 707.57C499.211 709.316 499.64 711.342 499.64 713.646C499.64 715.951 499.211 717.976 498.354 719.722C497.506 721.469 496.282 722.833 494.68 723.815C493.089 724.786 491.177 725.272 488.945 725.272ZM488.945 721.753C490.443 721.763 491.689 721.433 492.681 720.761C493.683 720.089 494.432 719.144 494.928 717.924C495.435 716.705 495.688 715.279 495.688 713.646C495.688 712.014 495.435 710.598 494.928 709.399C494.432 708.19 493.683 707.25 492.681 706.578C491.689 705.906 490.443 705.56 488.945 705.54C487.447 705.529 486.201 705.86 485.209 706.532C484.217 707.203 483.468 708.149 482.962 709.368C482.466 710.588 482.218 712.014 482.218 713.646C482.218 715.279 482.466 716.7 482.962 717.909C483.458 719.108 484.202 720.043 485.194 720.715C486.196 721.386 487.447 721.732 488.945 721.753ZM511.716 725.272C509.939 725.272 508.373 724.91 507.019 724.187C505.676 723.463 504.622 722.445 503.857 721.133C503.103 719.821 502.726 718.281 502.726 716.514V702.517L506.508 702.486V716.421C506.508 717.258 506.647 718.007 506.926 718.668C507.216 719.33 507.603 719.893 508.089 720.358C508.575 720.813 509.133 721.159 509.763 721.397C510.393 721.634 511.044 721.753 511.716 721.753C512.408 721.753 513.065 721.634 513.685 721.397C514.315 721.149 514.873 720.797 515.359 720.342C515.844 719.877 516.227 719.314 516.506 718.653C516.785 717.992 516.924 717.248 516.924 716.421V702.486H520.706V716.514C520.706 718.281 520.324 719.821 519.559 721.133C518.805 722.445 517.751 723.463 516.397 724.187C515.054 724.91 513.493 725.272 511.716 725.272ZM525.038 724.807V702.486H534.261C534.478 702.486 534.757 702.496 535.098 702.517C535.439 702.527 535.754 702.558 536.043 702.61C537.335 702.806 538.399 703.235 539.236 703.896C540.084 704.558 540.709 705.395 541.112 706.408C541.525 707.41 541.732 708.526 541.732 709.756C541.732 711.574 541.272 713.14 540.352 714.452C539.433 715.754 538.022 716.56 536.121 716.87L534.524 717.01H528.774V724.807H525.038ZM537.857 724.807L533.455 715.723L537.252 714.886L542.088 724.807H537.857ZM528.774 713.522H534.106C534.312 713.522 534.545 713.512 534.803 713.491C535.062 713.471 535.299 713.429 535.516 713.367C536.136 713.212 536.622 712.938 536.973 712.546C537.335 712.153 537.588 711.709 537.733 711.213C537.888 710.717 537.965 710.231 537.965 709.756C537.965 709.28 537.888 708.795 537.733 708.299C537.588 707.792 537.335 707.343 536.973 706.95C536.622 706.557 536.136 706.284 535.516 706.129C535.299 706.067 535.062 706.03 534.803 706.02C534.545 705.999 534.312 705.989 534.106 705.989H528.774V713.522ZM553.765 725.272C552.132 725.272 550.66 724.987 549.348 724.419C548.046 723.851 546.971 723.04 546.123 721.986C545.286 720.921 544.754 719.66 544.527 718.203L548.402 717.614C548.733 718.937 549.41 719.96 550.433 720.684C551.466 721.407 552.654 721.769 553.998 721.769C554.793 721.769 555.543 721.645 556.245 721.397C556.948 721.149 557.516 720.787 557.95 720.311C558.395 719.836 558.617 719.252 558.617 718.56C558.617 718.25 558.565 717.966 558.462 717.707C558.359 717.439 558.204 717.201 557.997 716.994C557.801 716.788 557.542 716.602 557.222 716.436C556.912 716.261 556.55 716.111 556.137 715.987L550.371 714.282C549.875 714.137 549.337 713.946 548.759 713.708C548.19 713.46 547.648 713.124 547.131 712.701C546.625 712.267 546.206 711.719 545.875 711.058C545.555 710.386 545.395 709.559 545.395 708.578C545.395 707.141 545.757 705.937 546.48 704.966C547.214 703.984 548.195 703.251 549.425 702.765C550.665 702.279 552.039 702.042 553.548 702.052C555.078 702.062 556.442 702.326 557.64 702.842C558.839 703.349 559.841 704.088 560.647 705.059C561.453 706.03 562.022 707.203 562.352 708.578L558.338 709.275C558.173 708.49 557.852 707.823 557.377 707.276C556.912 706.718 556.338 706.294 555.656 706.005C554.985 705.715 554.266 705.56 553.502 705.54C552.758 705.529 552.065 705.643 551.425 705.881C550.794 706.108 550.283 706.439 549.89 706.873C549.508 707.307 549.317 707.813 549.317 708.392C549.317 708.939 549.482 709.389 549.813 709.74C550.143 710.081 550.551 710.355 551.037 710.562C551.533 710.758 552.034 710.923 552.541 711.058L556.54 712.174C557.087 712.318 557.702 712.515 558.384 712.763C559.066 713.011 559.723 713.357 560.353 713.801C560.983 714.246 561.5 714.829 561.903 715.553C562.316 716.276 562.523 717.196 562.523 718.312C562.523 719.469 562.28 720.487 561.794 721.366C561.319 722.234 560.673 722.957 559.857 723.536C559.041 724.114 558.105 724.548 557.051 724.838C556.008 725.127 554.912 725.272 553.765 725.272Z" fill="white"></path><circle cx="332.153" cy="496.017" r="66.4307" fill="#F9F9F9"></circle><path d="M319.002 510.172C316.291 510.172 313.97 509.582 312.038 508.403C310.105 507.211 308.618 505.554 307.577 503.434C306.548 501.313 306.033 498.854 306.033 496.056C306.033 493.257 306.548 490.798 307.577 488.677C308.618 486.557 310.105 484.907 312.038 483.727C313.97 482.535 316.291 481.939 319.002 481.939C321.712 481.939 324.034 482.535 325.966 483.727C327.911 484.907 329.398 486.557 330.427 488.677C331.468 490.798 331.989 493.257 331.989 496.056C331.989 498.854 331.468 501.313 330.427 503.434C329.398 505.554 327.911 507.211 325.966 508.403C324.034 509.582 321.712 510.172 319.002 510.172ZM319.002 505.899C320.821 505.912 322.333 505.51 323.538 504.695C324.755 503.879 325.665 502.731 326.267 501.25C326.882 499.77 327.189 498.038 327.189 496.056C327.189 494.073 326.882 492.354 326.267 490.898C325.665 489.43 324.755 488.288 323.538 487.473C322.333 486.657 320.821 486.237 319.002 486.212C317.182 486.199 315.67 486.601 314.466 487.416C313.261 488.232 312.351 489.38 311.736 490.861C311.134 492.341 310.833 494.073 310.833 496.056C310.833 498.038 311.134 499.763 311.736 501.232C312.339 502.687 313.242 503.823 314.447 504.638C315.664 505.454 317.182 505.874 319.002 505.899ZM335.735 509.607V482.504H346.935C347.198 482.504 347.537 482.516 347.951 482.541C348.365 482.554 348.748 482.592 349.099 482.654C350.668 482.893 351.96 483.413 352.976 484.216C354.005 485.02 354.765 486.036 355.254 487.266C355.756 488.483 356.007 489.838 356.007 491.331C356.007 493.54 355.448 495.441 354.332 497.034C353.215 498.615 351.502 499.594 349.193 499.971L347.255 500.14H340.272V509.607H335.735ZM351.301 509.607L345.956 498.578L350.567 497.561L356.44 509.607H351.301ZM340.272 495.905H346.746C346.997 495.905 347.28 495.892 347.593 495.867C347.907 495.842 348.196 495.792 348.459 495.717C349.212 495.529 349.802 495.196 350.228 494.719C350.668 494.242 350.975 493.703 351.151 493.1C351.339 492.498 351.433 491.908 351.433 491.331C351.433 490.754 351.339 490.164 351.151 489.562C350.975 488.947 350.668 488.401 350.228 487.924C349.802 487.448 349.212 487.115 348.459 486.927C348.196 486.852 347.907 486.808 347.593 486.795C347.28 486.77 346.997 486.757 346.746 486.757H340.272V495.905Z" fill="#3E1BC9"></path></g><defs><clipPath id="clip0_3762_345"><rect width="664.307" height="858.064" rx="22" fill="white"></rect></clipPath></defs></svg> 