<?xml version="1.0" encoding="UTF-8"?> <svg xmlns="http://www.w3.org/2000/svg" width="665" height="859" viewBox="0 0 665 859" fill="none"><path d="M144.181 80.6087L136.257 53.505H141.019L146.421 73.0799L151.804 53.5426L156.566 53.505L161.968 73.0799L167.351 53.505H172.113L164.207 80.6087H159.728L154.175 61.3349L148.66 80.6087H144.181ZM185.911 81.1734C183.201 81.1734 180.88 80.5836 178.947 79.4041C177.015 78.212 175.528 76.5557 174.486 74.4351C173.457 72.3145 172.943 69.855 172.943 67.0568C172.943 64.2586 173.457 61.7992 174.486 59.6786C175.528 57.558 177.015 55.9079 178.947 54.7284C180.88 53.5363 183.201 52.9403 185.911 52.9403C188.622 52.9403 190.943 53.5363 192.875 54.7284C194.82 55.9079 196.307 57.558 197.336 59.6786C198.378 61.7992 198.899 64.2586 198.899 67.0568C198.899 69.855 198.378 72.3145 197.336 74.4351C196.307 76.5557 194.82 78.212 192.875 79.4041C190.943 80.5836 188.622 81.1734 185.911 81.1734ZM185.911 76.9008C187.731 76.9133 189.243 76.5118 190.447 75.6962C191.665 74.8805 192.574 73.7324 193.177 72.2517C193.791 70.771 194.099 69.0394 194.099 67.0568C194.099 65.0742 193.791 63.3552 193.177 61.8996C192.574 60.4315 191.665 59.2896 190.447 58.474C189.243 57.6584 187.731 57.238 185.911 57.2129C184.092 57.2004 182.58 57.6019 181.375 58.4175C180.171 59.2331 179.261 60.3813 178.646 61.8619C178.044 63.3426 177.743 65.0742 177.743 67.0568C177.743 69.0394 178.044 70.7648 178.646 72.2329C179.248 73.6885 180.152 74.8241 181.356 75.6397C182.574 76.4553 184.092 76.8757 185.911 76.9008ZM213.562 81.1734C211.404 81.1734 209.502 80.7342 207.859 79.8558C206.227 78.9775 204.948 77.7415 204.019 76.1479C203.103 74.5543 202.645 72.6846 202.645 70.5389V53.5426L207.238 53.505V70.426C207.238 71.4424 207.407 72.3521 207.746 73.1552C208.097 73.9582 208.568 74.6421 209.157 75.2068C209.747 75.7589 210.425 76.1792 211.19 76.4679C211.956 76.7565 212.746 76.9008 213.562 76.9008C214.402 76.9008 215.199 76.7565 215.952 76.4679C216.718 76.1667 217.395 75.7401 217.985 75.188C218.575 74.6233 219.039 73.9394 219.378 73.1364C219.717 72.3333 219.886 71.4298 219.886 70.426V53.505H224.479V70.5389C224.479 72.6846 224.014 74.5543 223.086 76.1479C222.17 77.7415 220.89 78.9775 219.246 79.8558C217.615 80.7342 215.72 81.1734 213.562 81.1734ZM230.115 80.6087V53.505H234.651V76.3549H246.622V80.6087H230.115ZM249.81 80.6087V53.505H258.45C258.676 53.505 259.121 53.5112 259.786 53.5238C260.464 53.5363 261.116 53.5802 261.744 53.6555C263.889 53.9316 265.702 54.697 267.183 55.9518C268.676 57.1941 269.806 58.7814 270.571 60.7138C271.337 62.6462 271.719 64.7605 271.719 67.0568C271.719 69.3531 271.337 71.4675 270.571 73.3999C269.806 75.3323 268.676 76.9259 267.183 78.1807C265.702 79.4229 263.889 80.1821 261.744 80.4581C261.129 80.5334 260.482 80.5773 259.805 80.5899C259.127 80.6024 258.676 80.6087 258.45 80.6087H249.81ZM254.422 76.3361H258.45C258.826 76.3361 259.303 76.3236 259.88 76.2985C260.47 76.2734 260.991 76.2169 261.442 76.1291C262.722 75.8906 263.764 75.3197 264.567 74.4163C265.37 73.5128 265.96 72.4148 266.336 71.1224C266.725 69.8299 266.92 68.4748 266.92 67.0568C266.92 65.5887 266.725 64.2084 266.336 62.916C265.947 61.6235 265.345 60.5381 264.529 59.6598C263.726 58.7814 262.697 58.223 261.442 57.9846C260.991 57.8842 260.47 57.8278 259.88 57.8152C259.303 57.7901 258.826 57.7776 258.45 57.7776H254.422V76.3361ZM290.292 80.6087V69.5037L281.07 53.505H286.359L292.589 64.3088L298.8 53.505H304.089L294.885 69.5037V80.6087H290.292ZM316.673 81.1734C313.963 81.1734 311.641 80.5836 309.709 79.4041C307.776 78.212 306.29 76.5557 305.248 74.4351C304.219 72.3145 303.705 69.855 303.705 67.0568C303.705 64.2586 304.219 61.7992 305.248 59.6786C306.29 57.558 307.776 55.9079 309.709 54.7284C311.641 53.5363 313.963 52.9403 316.673 52.9403C319.383 52.9403 321.705 53.5363 323.637 54.7284C325.582 55.9079 327.069 57.558 328.098 59.6786C329.139 61.7992 329.66 64.2586 329.66 67.0568C329.66 69.855 329.139 72.3145 328.098 74.4351C327.069 76.5557 325.582 78.212 323.637 79.4041C321.705 80.5836 319.383 81.1734 316.673 81.1734ZM316.673 76.9008C318.492 76.9133 320.005 76.5118 321.209 75.6962C322.426 74.8805 323.336 73.7324 323.938 72.2517C324.553 70.771 324.861 69.0394 324.861 67.0568C324.861 65.0742 324.553 63.3552 323.938 61.8996C323.336 60.4315 322.426 59.2896 321.209 58.474C320.005 57.6584 318.492 57.238 316.673 57.2129C314.854 57.2004 313.342 57.6019 312.137 58.4175C310.932 59.2331 310.023 60.3813 309.408 61.8619C308.805 63.3426 308.504 65.0742 308.504 67.0568C308.504 69.0394 308.805 70.7648 309.408 72.2329C310.01 73.6885 310.913 74.8241 312.118 75.6397C313.335 76.4553 314.854 76.8757 316.673 76.9008ZM344.323 81.1734C342.165 81.1734 340.264 80.7342 338.62 79.8558C336.989 78.9775 335.709 77.7415 334.781 76.1479C333.865 74.5543 333.407 72.6846 333.407 70.5389V53.5426L337.999 53.505V70.426C337.999 71.4424 338.169 72.3521 338.507 73.1552C338.859 73.9582 339.329 74.6421 339.919 75.2068C340.509 75.7589 341.186 76.1792 341.952 76.4679C342.717 76.7565 343.508 76.9008 344.323 76.9008C345.164 76.9008 345.961 76.7565 346.714 76.4679C347.479 76.1667 348.157 75.7401 348.747 75.188C349.336 74.6233 349.801 73.9394 350.14 73.1364C350.478 72.3333 350.648 71.4298 350.648 70.426V53.505H355.24V70.5389C355.24 72.6846 354.776 74.5543 353.847 76.1479C352.931 77.7415 351.652 78.9775 350.008 79.8558C348.377 80.7342 346.482 81.1734 344.323 81.1734ZM368.036 80.6087V53.505H379.235C379.499 53.505 379.838 53.5175 380.252 53.5426C380.666 53.5552 381.049 53.5928 381.4 53.6555C382.968 53.8939 384.261 54.4147 385.277 55.2178C386.306 56.0208 387.065 57.0372 387.555 58.2669C388.057 59.4841 388.308 60.8393 388.308 62.3325C388.308 64.541 387.749 66.442 386.633 68.0356C385.516 69.6166 383.803 70.5954 381.494 70.9718L379.555 71.1412H372.572V80.6087H368.036ZM383.602 80.6087L378.257 69.579L382.868 68.5626L388.741 80.6087H383.602ZM372.572 66.9063H379.047C379.298 66.9063 379.581 66.8937 379.894 66.8686C380.208 66.8435 380.497 66.7933 380.76 66.718C381.513 66.5298 382.103 66.1973 382.529 65.7205C382.968 65.2436 383.276 64.7041 383.452 64.1018C383.64 63.4995 383.734 62.9097 383.734 62.3325C383.734 61.7553 383.64 61.1655 383.452 60.5632C383.276 59.9484 382.968 59.4025 382.529 58.9257C382.103 58.4489 381.513 58.1164 380.76 57.9281C380.497 57.8529 380.208 57.8089 379.894 57.7964C379.581 57.7713 379.298 57.7587 379.047 57.7587H372.572V66.9063ZM391.005 80.6087L399.55 53.505H406.194L414.74 80.6087H410.072L402.317 56.2906H403.334L395.673 80.6087H391.005ZM395.767 74.7362V70.5013H409.997V74.7362H395.767ZM422.413 80.6087V57.7587H413.642V53.505H435.72V57.7587H426.949V80.6087H422.413ZM438.729 80.6087V53.505H443.265V64.9111H456.102V53.505H460.619V80.6087H456.102V69.1649H443.265V80.6087H438.729ZM465.896 80.6087V53.505H483.401V57.7587H470.432V64.4406H481.142V68.6944H470.432V76.3549H483.401V80.6087H465.896ZM487.917 80.6087V53.505H499.116C499.379 53.505 499.718 53.5175 500.132 53.5426C500.546 53.5552 500.929 53.5928 501.28 53.6555C502.849 53.8939 504.141 54.4147 505.158 55.2178C506.187 56.0208 506.946 57.0372 507.435 58.2669C507.937 59.4841 508.188 60.8393 508.188 62.3325C508.188 64.541 507.63 66.442 506.513 68.0356C505.396 69.6166 503.683 70.5954 501.374 70.9718L499.436 71.1412H492.453V80.6087H487.917ZM503.482 80.6087L498.137 69.579L502.748 68.5626L508.621 80.6087H503.482ZM492.453 66.9063H498.927C499.178 66.9063 499.461 66.8937 499.774 66.8686C500.088 66.8435 500.377 66.7933 500.64 66.718C501.393 66.5298 501.983 66.1973 502.41 65.7205C502.849 65.2436 503.156 64.7041 503.332 64.1018C503.52 63.4995 503.614 62.9097 503.614 62.3325C503.614 61.7553 503.52 61.1655 503.332 60.5632C503.156 59.9484 502.849 59.4025 502.41 58.9257C501.983 58.4489 501.393 58.1164 500.64 57.9281C500.377 57.8529 500.088 57.8089 499.774 57.7964C499.461 57.7713 499.178 57.7587 498.927 57.7587H492.453V66.9063ZM517.68 73.2493C517.68 72.3835 517.762 71.549 517.925 70.746C518.1 69.9303 518.383 69.1774 518.772 68.4873C519.111 67.8223 519.487 67.2952 519.901 66.9063C520.315 66.5047 520.779 66.1095 521.294 65.7205C521.808 65.3189 522.379 64.7856 523.007 64.1206C523.521 63.5559 523.86 62.9975 524.023 62.4454C524.186 61.8808 524.268 61.2785 524.268 60.6385C524.268 60.2244 524.224 59.8354 524.136 59.4715C524.048 59.1077 523.891 58.794 523.665 58.5304C523.314 58.0662 522.862 57.7399 522.31 57.5517C521.758 57.3509 521.168 57.2505 520.541 57.2505C520.027 57.2505 519.531 57.3196 519.054 57.4576C518.59 57.5831 518.195 57.7838 517.868 58.0599C517.492 58.361 517.216 58.7312 517.04 59.1704C516.864 59.6096 516.783 60.0927 516.795 60.6197H512.015C512.14 59.3649 512.479 58.2042 513.031 57.1376C513.596 56.0585 514.336 55.1989 515.252 54.559C515.967 54.032 516.77 53.6367 517.661 53.3732C518.565 53.1097 519.468 52.9779 520.372 52.9779C521.752 52.9779 523.051 53.1913 524.268 53.6179C525.498 54.0445 526.52 54.7472 527.336 55.726C527.9 56.3659 528.327 57.1062 528.616 57.947C528.917 58.7877 529.067 59.6409 529.067 60.5068C529.067 61.7992 528.785 62.9787 528.22 64.0453C527.668 65.1119 526.966 66.0969 526.112 67.0004C525.711 67.427 525.328 67.8034 524.964 68.1297C524.6 68.4559 524.262 68.7759 523.948 69.0896C523.647 69.3908 523.396 69.7107 523.195 70.0495C522.844 70.6393 522.637 71.1412 522.574 71.5553C522.511 71.9568 522.48 72.5215 522.48 73.2493H517.68ZM517.718 80.6087V75.6209H522.48V80.6087H517.718Z" fill="#3E1BC9"></path><rect x="12" y="133" width="640" height="320" rx="22.1436" fill="#3E1BC9"></rect><path d="M152.85 304.604C151.403 304.604 150.045 304.35 148.774 303.844C147.513 303.327 146.402 302.573 145.441 301.581C144.49 300.589 143.746 299.375 143.209 297.938C142.672 296.492 142.403 294.838 142.403 292.978C142.403 290.539 142.858 288.457 143.767 286.731C144.676 284.995 145.921 283.668 147.503 282.748C149.084 281.818 150.866 281.353 152.85 281.353C155.599 281.353 157.774 281.993 159.376 283.275C160.988 284.546 162.078 286.334 162.647 288.638L158.833 289.243C158.41 287.92 157.717 286.866 156.756 286.08C155.795 285.285 154.571 284.887 153.083 284.887C151.584 284.866 150.339 285.192 149.347 285.863C148.355 286.535 147.606 287.481 147.1 288.7C146.603 289.919 146.355 291.345 146.355 292.978C146.355 294.611 146.603 296.032 147.1 297.241C147.596 298.44 148.34 299.375 149.332 300.046C150.334 300.718 151.584 301.064 153.083 301.085C154.209 301.095 155.196 300.894 156.043 300.48C156.891 300.057 157.583 299.421 158.12 298.574C158.658 297.716 159.019 296.647 159.205 295.365H155.268V292.436H163.174C163.194 292.601 163.21 292.844 163.22 293.164C163.23 293.485 163.236 293.676 163.236 293.738C163.236 295.846 162.817 297.721 161.98 299.364C161.153 300.997 159.965 302.278 158.415 303.209C156.865 304.139 155.01 304.604 152.85 304.604ZM175.789 304.604C173.556 304.604 171.645 304.118 170.053 303.147C168.462 302.165 167.237 300.801 166.38 299.054C165.532 297.308 165.109 295.283 165.109 292.978C165.109 290.674 165.532 288.648 166.38 286.902C167.237 285.156 168.462 283.797 170.053 282.825C171.645 281.844 173.556 281.353 175.789 281.353C178.021 281.353 179.932 281.844 181.524 282.825C183.125 283.797 184.35 285.156 185.197 286.902C186.055 288.648 186.484 290.674 186.484 292.978C186.484 295.283 186.055 297.308 185.197 299.054C184.35 300.801 183.125 302.165 181.524 303.147C179.932 304.118 178.021 304.604 175.789 304.604ZM175.789 301.085C177.287 301.095 178.532 300.765 179.524 300.093C180.527 299.421 181.276 298.476 181.772 297.256C182.278 296.037 182.531 294.611 182.531 292.978C182.531 291.345 182.278 289.93 181.772 288.731C181.276 287.522 180.527 286.582 179.524 285.91C178.532 285.238 177.287 284.892 175.789 284.871C174.29 284.861 173.045 285.192 172.053 285.863C171.061 286.535 170.312 287.481 169.805 288.7C169.309 289.919 169.061 291.345 169.061 292.978C169.061 294.611 169.309 296.032 169.805 297.241C170.301 298.44 171.045 299.375 172.037 300.046C173.04 300.718 174.29 301.064 175.789 301.085ZM205.215 304.604C202.983 304.604 201.071 304.118 199.48 303.147C197.889 302.165 196.664 300.801 195.806 299.054C194.959 297.308 194.535 295.283 194.535 292.978C194.535 290.674 194.959 288.648 195.806 286.902C196.664 285.156 197.889 283.797 199.48 282.825C201.071 281.844 202.983 281.353 205.215 281.353C207.788 281.353 209.933 281.999 211.648 283.29C213.363 284.572 214.567 286.303 215.26 288.483L211.493 289.522C211.059 288.065 210.32 286.928 209.276 286.111C208.233 285.285 206.879 284.871 205.215 284.871C203.717 284.871 202.467 285.207 201.464 285.879C200.472 286.551 199.723 287.496 199.217 288.716C198.721 289.925 198.467 291.345 198.457 292.978C198.457 294.611 198.705 296.037 199.201 297.256C199.707 298.465 200.462 299.406 201.464 300.077C202.467 300.749 203.717 301.085 205.215 301.085C206.879 301.085 208.233 300.672 209.276 299.845C210.32 299.018 211.059 297.882 211.493 296.435L215.26 297.473C214.567 299.654 213.363 301.39 211.648 302.682C209.933 303.963 207.788 304.604 205.215 304.604ZM216.507 304.139L223.545 281.818H229.016L236.054 304.139H232.209L225.823 284.112H226.66L220.352 304.139H216.507ZM220.429 299.302V295.815H232.147V299.302H220.429ZM238.856 304.139V281.818H242.22L249.939 297.628L257.658 281.818H261.022V304.139H257.534V289.832L250.683 304.139H249.195L242.359 289.832V304.139H238.856ZM265.376 304.139V281.818H274.599C274.816 281.818 275.095 281.828 275.436 281.849C275.777 281.859 276.092 281.89 276.382 281.942C277.673 282.138 278.738 282.567 279.575 283.228C280.422 283.89 281.047 284.727 281.45 285.739C281.864 286.742 282.07 287.858 282.07 289.088C282.07 290.307 281.864 291.423 281.45 292.436C281.037 293.438 280.407 294.27 279.559 294.931C278.722 295.593 277.663 296.021 276.382 296.218C276.092 296.259 275.772 296.29 275.421 296.311C275.08 296.331 274.806 296.342 274.599 296.342H269.112V304.139H265.376ZM269.112 292.854H274.444C274.651 292.854 274.883 292.844 275.142 292.823C275.4 292.803 275.638 292.761 275.855 292.699C276.475 292.544 276.96 292.27 277.312 291.878C277.673 291.485 277.927 291.041 278.071 290.545C278.226 290.049 278.304 289.563 278.304 289.088C278.304 288.612 278.226 288.127 278.071 287.631C277.927 287.124 277.673 286.675 277.312 286.282C276.96 285.889 276.475 285.615 275.855 285.46C275.638 285.398 275.4 285.362 275.142 285.352C274.883 285.331 274.651 285.321 274.444 285.321H269.112V292.854ZM285.486 304.139V281.818H289.221V304.139H285.486ZM293.865 304.139V281.818H297.647L308.001 297.551V281.818H311.783V304.139H308.001L297.647 288.406V304.139H293.865ZM325.324 304.604C323.877 304.604 322.518 304.35 321.247 303.844C319.986 303.327 318.875 302.573 317.914 301.581C316.964 300.589 316.22 299.375 315.682 297.938C315.145 296.492 314.876 294.838 314.876 292.978C314.876 290.539 315.331 288.457 316.24 286.731C317.15 284.995 318.395 283.668 319.976 282.748C321.557 281.818 323.34 281.353 325.324 281.353C328.072 281.353 330.248 281.993 331.849 283.275C333.461 284.546 334.552 286.334 335.12 288.638L331.307 289.243C330.883 287.92 330.191 286.866 329.23 286.08C328.269 285.285 327.044 284.887 325.556 284.887C324.058 284.866 322.813 285.192 321.82 285.863C320.828 286.535 320.079 287.481 319.573 288.7C319.077 289.919 318.829 291.345 318.829 292.978C318.829 294.611 319.077 296.032 319.573 297.241C320.069 298.44 320.813 299.375 321.805 300.046C322.807 300.718 324.058 301.064 325.556 301.085C326.682 301.095 327.669 300.894 328.517 300.48C329.364 300.057 330.056 299.421 330.594 298.574C331.131 297.716 331.493 296.647 331.679 295.365H327.742V292.436H335.647C335.668 292.601 335.683 292.844 335.693 293.164C335.704 293.485 335.709 293.676 335.709 293.738C335.709 295.846 335.29 297.721 334.453 299.364C333.627 300.997 332.438 302.278 330.888 303.209C329.338 304.139 327.483 304.604 325.324 304.604ZM345.338 304.139V281.818H349.074V304.139H345.338ZM353.717 304.139V281.818H357.499L367.854 297.551V281.818H371.636V304.139H367.854L357.499 288.406V304.139H353.717ZM387.538 304.139V285.321H380.315V281.818H398.497V285.321H391.274V304.139H387.538ZM400.975 304.139V281.818H404.711V291.211H415.282V281.818H419.003V304.139H415.282V294.714H404.711V304.139H400.975ZM423.348 304.139V281.818H437.764V285.321H427.084V290.824H435.904V294.327H427.084V300.635H437.764V304.139H423.348ZM452.401 304.139L445.875 281.818H449.797L454.246 297.938L458.679 281.849L462.6 281.818L467.049 297.938L471.482 281.818H475.404L468.894 304.139H465.205L460.632 288.266L456.09 304.139H452.401ZM478.243 304.139V281.818H481.979V304.139H478.243ZM486.932 304.139V281.818H490.667V300.635H500.526V304.139H486.932ZM503.152 304.139V281.818H510.266C510.452 281.818 510.819 281.823 511.367 281.833C511.925 281.844 512.462 281.88 512.979 281.942C514.746 282.169 516.239 282.8 517.459 283.833C518.688 284.856 519.618 286.163 520.249 287.755C520.879 289.346 521.194 291.087 521.194 292.978C521.194 294.869 520.879 296.61 520.249 298.202C519.618 299.793 518.688 301.106 517.459 302.139C516.239 303.162 514.746 303.787 512.979 304.015C512.473 304.077 511.94 304.113 511.382 304.123C510.824 304.133 510.452 304.139 510.266 304.139H503.152ZM506.949 300.62H510.266C510.576 300.62 510.969 300.61 511.444 300.589C511.93 300.568 512.359 300.522 512.731 300.449C513.785 300.253 514.643 299.783 515.304 299.039C515.965 298.295 516.451 297.391 516.761 296.326C517.081 295.262 517.242 294.146 517.242 292.978C517.242 291.769 517.081 290.632 516.761 289.568C516.441 288.504 515.945 287.61 515.273 286.886C514.612 286.163 513.764 285.703 512.731 285.507C512.359 285.424 511.93 285.378 511.444 285.367C510.969 285.347 510.576 285.336 510.266 285.336H506.949V300.62Z" fill="white"></path><rect x="12" y="526" width="640" height="320" rx="22.1436" fill="#97CD2C"></rect><path d="M49.8874 697.555C48.2547 697.555 46.7821 697.271 45.4697 696.702C44.1677 696.134 43.093 695.323 42.2456 694.269C41.4086 693.205 40.8764 691.944 40.6491 690.487L44.5242 689.898C44.8549 691.22 45.5317 692.243 46.5548 692.967C47.5881 693.69 48.7765 694.052 50.1199 694.052C50.9156 694.052 51.6648 693.928 52.3675 693.68C53.0701 693.432 53.6385 693.07 54.0725 692.595C54.5169 692.119 54.739 691.536 54.739 690.843C54.739 690.533 54.6874 690.249 54.584 689.991C54.4807 689.722 54.3257 689.484 54.119 689.278C53.9227 689.071 53.6643 688.885 53.344 688.72C53.034 688.544 52.6723 688.394 52.259 688.27L46.4928 686.565C45.9967 686.42 45.4594 686.229 44.8807 685.992C44.3124 685.744 43.7698 685.408 43.2532 684.984C42.7468 684.55 42.3283 684.002 41.9976 683.341C41.6773 682.669 41.5171 681.843 41.5171 680.861C41.5171 679.425 41.8788 678.221 42.6021 677.249C43.3358 676.268 44.3175 675.534 45.5472 675.048C46.7873 674.563 48.1617 674.325 49.6704 674.335C51.1998 674.346 52.5638 674.609 53.7625 675.126C54.9612 675.632 55.9636 676.371 56.7696 677.342C57.5756 678.314 58.144 679.487 58.4747 680.861L54.46 681.558C54.2947 680.773 53.9743 680.107 53.499 679.559C53.034 679.001 52.4605 678.577 51.7784 678.288C51.1067 677.999 50.3886 677.844 49.6239 677.823C48.8798 677.813 48.1875 677.926 47.5468 678.164C46.9164 678.391 46.4049 678.722 46.0122 679.156C45.6299 679.59 45.4387 680.096 45.4387 680.675C45.4387 681.223 45.6041 681.672 45.9347 682.023C46.2654 682.364 46.6736 682.638 47.1593 682.845C47.6553 683.041 48.1565 683.207 48.6628 683.341L52.662 684.457C53.2097 684.602 53.8245 684.798 54.5065 685.046C55.1885 685.294 55.8447 685.64 56.4751 686.085C57.1054 686.529 57.6221 687.113 58.0251 687.836C58.4385 688.56 58.6452 689.479 58.6452 690.595C58.6452 691.753 58.4023 692.77 57.9166 693.649C57.4413 694.517 56.7954 695.24 55.9791 695.819C55.1627 696.398 54.2275 696.832 53.1735 697.121C52.1298 697.41 51.0344 697.555 49.8874 697.555ZM67.3635 697.09V678.272H60.1402V674.769H78.3223V678.272H71.0991V697.09H67.3635ZM81.1107 697.09V674.769H84.8463V697.09H81.1107ZM98.9293 697.555C96.6972 697.555 94.7855 697.069 93.1941 696.098C91.6027 695.116 90.3782 693.752 89.5205 692.006C88.6731 690.259 88.2494 688.234 88.2494 685.93C88.2494 683.625 88.6731 681.6 89.5205 679.853C90.3782 678.107 91.6027 676.748 93.1941 675.777C94.7855 674.795 96.6972 674.304 98.9293 674.304C101.502 674.304 103.647 674.95 105.362 676.242C107.077 677.523 108.281 679.254 108.974 681.434L105.207 682.473C104.773 681.016 104.034 679.879 102.99 679.063C101.947 678.236 100.593 677.823 98.9293 677.823C97.4309 677.823 96.1805 678.159 95.1782 678.83C94.1861 679.502 93.4369 680.448 92.9306 681.667C92.4346 682.876 92.1814 684.297 92.1711 685.93C92.1711 687.562 92.4191 688.988 92.9151 690.208C93.4214 691.417 94.1758 692.357 95.1782 693.029C96.1805 693.701 97.4309 694.036 98.9293 694.036C100.593 694.036 101.947 693.623 102.99 692.796C104.034 691.97 104.773 690.833 105.207 689.386L108.974 690.425C108.281 692.605 107.077 694.341 105.362 695.633C103.647 696.914 101.502 697.555 98.9293 697.555ZM112.377 697.09V674.769H116.113V685.124L125.025 674.769H129.613L120.019 685.713L130.265 697.09H125.521L116.113 686.674V697.09H112.377ZM143.413 697.09V678.272H136.19V674.769H154.372V678.272H147.148V697.09H143.413ZM166.29 697.555C164.058 697.555 162.146 697.069 160.555 696.098C158.963 695.116 157.739 693.752 156.881 692.006C156.034 690.259 155.61 688.234 155.61 685.93C155.61 683.625 156.034 681.6 156.881 679.853C157.739 678.107 158.963 676.748 160.555 675.777C162.146 674.795 164.058 674.304 166.29 674.304C168.522 674.304 170.434 674.795 172.025 675.777C173.627 676.748 174.851 678.107 175.699 679.853C176.556 681.6 176.985 683.625 176.985 685.93C176.985 688.234 176.556 690.259 175.699 692.006C174.851 693.752 173.627 695.116 172.025 696.098C170.434 697.069 168.522 697.555 166.29 697.555ZM166.29 694.036C167.788 694.047 169.033 693.716 170.025 693.044C171.028 692.373 171.777 691.427 172.273 690.208C172.779 688.988 173.033 687.562 173.033 685.93C173.033 684.297 172.779 682.881 172.273 681.682C171.777 680.473 171.028 679.533 170.025 678.861C169.033 678.19 167.788 677.844 166.29 677.823C164.791 677.813 163.546 678.143 162.554 678.815C161.562 679.487 160.813 680.432 160.307 681.651C159.811 682.871 159.563 684.297 159.563 685.93C159.563 687.562 159.811 688.983 160.307 690.192C160.803 691.391 161.547 692.326 162.539 692.998C163.541 693.67 164.791 694.016 166.29 694.036ZM194.539 697.555C192.906 697.555 191.433 697.271 190.121 696.702C188.819 696.134 187.744 695.323 186.897 694.269C186.06 693.205 185.528 691.944 185.3 690.487L189.175 689.898C189.506 691.22 190.183 692.243 191.206 692.967C192.239 693.69 193.428 694.052 194.771 694.052C195.567 694.052 196.316 693.928 197.019 693.68C197.721 693.432 198.29 693.07 198.724 692.595C199.168 692.119 199.39 691.536 199.39 690.843C199.39 690.533 199.339 690.249 199.235 689.991C199.132 689.722 198.977 689.484 198.77 689.278C198.574 689.071 198.316 688.885 197.995 688.72C197.685 688.544 197.324 688.394 196.91 688.27L191.144 686.565C190.648 686.42 190.111 686.229 189.532 685.992C188.964 685.744 188.421 685.408 187.904 684.984C187.398 684.55 186.979 684.002 186.649 683.341C186.328 682.669 186.168 681.843 186.168 680.861C186.168 679.425 186.53 678.221 187.253 677.249C187.987 676.268 188.969 675.534 190.198 675.048C191.438 674.563 192.813 674.325 194.322 674.335C195.851 674.346 197.215 674.609 198.414 675.126C199.612 675.632 200.615 676.371 201.421 677.342C202.227 678.314 202.795 679.487 203.126 680.861L199.111 681.558C198.946 680.773 198.626 680.107 198.15 679.559C197.685 679.001 197.112 678.577 196.43 678.288C195.758 677.999 195.04 677.844 194.275 677.823C193.531 677.813 192.839 677.926 192.198 678.164C191.568 678.391 191.056 678.722 190.663 679.156C190.281 679.59 190.09 680.096 190.09 680.675C190.09 681.223 190.255 681.672 190.586 682.023C190.917 682.364 191.325 682.638 191.81 682.845C192.307 683.041 192.808 683.207 193.314 683.341L197.313 684.457C197.861 684.602 198.476 684.798 199.158 685.046C199.84 685.294 200.496 685.64 201.126 686.085C201.757 686.529 202.273 687.113 202.676 687.836C203.09 688.56 203.296 689.479 203.296 690.595C203.296 691.753 203.054 692.77 202.568 693.649C202.092 694.517 201.447 695.24 200.63 695.819C199.814 696.398 198.879 696.832 197.825 697.121C196.781 697.41 195.686 697.555 194.539 697.555ZM210.758 697.09L204.232 674.769H208.154L212.603 690.89L217.036 674.8L220.957 674.769L225.406 690.89L229.839 674.769H233.761L227.251 697.09H223.562L218.989 681.217L214.447 697.09H210.758ZM236.6 697.09V674.769H240.336V697.09H236.6ZM244.979 697.09V674.769H248.343L256.062 690.58L263.781 674.769H267.145V697.09H263.657V682.783L256.806 697.09H255.318L248.482 682.783V697.09H244.979ZM271.499 697.09V674.769H274.863L282.582 690.58L290.301 674.769H293.665V697.09H290.177V682.783L283.326 697.09H281.838L275.002 682.783V697.09H271.499ZM298.33 697.09V674.769H302.065V697.09H298.33ZM306.708 697.09V674.769H310.491L320.845 690.502V674.769H324.627V697.09H320.845L310.491 681.357V697.09H306.708ZM338.167 697.555C336.721 697.555 335.362 697.302 334.091 696.795C332.83 696.279 331.719 695.524 330.758 694.532C329.808 693.54 329.064 692.326 328.526 690.89C327.989 689.443 327.72 687.79 327.72 685.93C327.72 683.491 328.175 681.409 329.084 679.683C329.994 677.947 331.239 676.619 332.82 675.699C334.401 674.769 336.183 674.304 338.167 674.304C340.916 674.304 343.091 674.945 344.693 676.226C346.305 677.497 347.395 679.285 347.964 681.589L344.151 682.194C343.727 680.871 343.035 679.817 342.074 679.032C341.113 678.236 339.888 677.838 338.4 677.838C336.902 677.818 335.656 678.143 334.664 678.815C333.672 679.487 332.923 680.432 332.417 681.651C331.921 682.871 331.673 684.297 331.673 685.93C331.673 687.562 331.921 688.983 332.417 690.192C332.913 691.391 333.657 692.326 334.649 692.998C335.651 693.67 336.902 694.016 338.4 694.036C339.526 694.047 340.513 693.845 341.361 693.432C342.208 693.008 342.9 692.373 343.438 691.525C343.975 690.668 344.337 689.598 344.523 688.317H340.586V685.387H348.491C348.511 685.552 348.527 685.795 348.537 686.116C348.548 686.436 348.553 686.627 348.553 686.689C348.553 688.797 348.134 690.673 347.297 692.316C346.471 693.949 345.282 695.23 343.732 696.16C342.182 697.09 340.327 697.555 338.167 697.555ZM356.322 697.09L363.359 674.769H368.831L375.868 697.09H372.024L365.638 677.063H366.475L360.166 697.09H356.322ZM360.244 692.254V688.766H371.962V692.254H360.244ZM378.671 697.09V674.769H382.453L392.807 690.502V674.769H396.589V697.09H392.807L382.453 681.357V697.09H378.671ZM400.922 697.09V674.769H408.037C408.223 674.769 408.59 674.774 409.138 674.785C409.696 674.795 410.233 674.831 410.75 674.893C412.517 675.121 414.01 675.751 415.229 676.784C416.459 677.807 417.389 679.115 418.02 680.706C418.65 682.297 418.965 684.039 418.965 685.93C418.965 687.821 418.65 689.562 418.02 691.153C417.389 692.745 416.459 694.057 415.229 695.09C414.01 696.113 412.517 696.739 410.75 696.966C410.243 697.028 409.711 697.064 409.153 697.074C408.595 697.085 408.223 697.09 408.037 697.09H400.922ZM404.72 693.571H408.037C408.347 693.571 408.74 693.561 409.215 693.54C409.701 693.52 410.13 693.473 410.502 693.401C411.556 693.205 412.414 692.734 413.075 691.99C413.736 691.246 414.222 690.342 414.532 689.278C414.852 688.213 415.012 687.097 415.012 685.93C415.012 684.721 414.852 683.584 414.532 682.519C414.212 681.455 413.716 680.561 413.044 679.838C412.383 679.115 411.535 678.655 410.502 678.458C410.13 678.376 409.701 678.329 409.215 678.319C408.74 678.298 408.347 678.288 408.037 678.288H404.72V693.571ZM437.097 697.555C435.465 697.555 433.992 697.271 432.68 696.702C431.378 696.134 430.303 695.323 429.456 694.269C428.618 693.205 428.086 691.944 427.859 690.487L431.734 689.898C432.065 691.22 432.742 692.243 433.765 692.967C434.798 693.69 435.986 694.052 437.33 694.052C438.125 694.052 438.875 693.928 439.577 693.68C440.28 693.432 440.848 693.07 441.282 692.595C441.727 692.119 441.949 691.536 441.949 690.843C441.949 690.533 441.897 690.249 441.794 689.991C441.691 689.722 441.536 689.484 441.329 689.278C441.133 689.071 440.874 688.885 440.554 688.72C440.244 688.544 439.882 688.394 439.469 688.27L433.703 686.565C433.207 686.42 432.669 686.229 432.091 685.992C431.522 685.744 430.98 685.408 430.463 684.984C429.957 684.55 429.538 684.002 429.208 683.341C428.887 682.669 428.727 681.843 428.727 680.861C428.727 679.425 429.089 678.221 429.812 677.249C430.546 676.268 431.527 675.534 432.757 675.048C433.997 674.563 435.372 674.325 436.88 674.335C438.41 674.346 439.774 674.609 440.972 675.126C442.171 675.632 443.173 676.371 443.98 677.342C444.786 678.314 445.354 679.487 445.685 680.861L441.67 681.558C441.505 680.773 441.184 680.107 440.709 679.559C440.244 679.001 439.67 678.577 438.988 678.288C438.317 677.999 437.598 677.844 436.834 677.823C436.09 677.813 435.397 677.926 434.757 678.164C434.126 678.391 433.615 678.722 433.222 679.156C432.84 679.59 432.649 680.096 432.649 680.675C432.649 681.223 432.814 681.672 433.145 682.023C433.475 682.364 433.884 682.638 434.369 682.845C434.865 683.041 435.366 683.207 435.873 683.341L439.872 684.457C440.42 684.602 441.034 684.798 441.716 685.046C442.398 685.294 443.055 685.64 443.685 686.085C444.315 686.529 444.832 687.113 445.235 687.836C445.648 688.56 445.855 689.479 445.855 690.595C445.855 691.753 445.612 692.77 445.127 693.649C444.651 694.517 444.005 695.24 443.189 695.819C442.373 696.398 441.437 696.832 440.383 697.121C439.34 697.41 438.244 697.555 437.097 697.555ZM458.2 697.555C456.423 697.555 454.858 697.193 453.504 696.47C452.16 695.747 451.106 694.729 450.342 693.416C449.587 692.104 449.21 690.564 449.21 688.797V674.8L452.992 674.769V688.704C452.992 689.541 453.132 690.29 453.411 690.952C453.7 691.613 454.088 692.176 454.573 692.641C455.059 693.096 455.617 693.442 456.247 693.68C456.878 693.918 457.529 694.036 458.2 694.036C458.893 694.036 459.549 693.918 460.169 693.68C460.799 693.432 461.357 693.081 461.843 692.626C462.329 692.161 462.711 691.598 462.99 690.936C463.269 690.275 463.409 689.531 463.409 688.704V674.769H467.191V688.797C467.191 690.564 466.808 692.104 466.044 693.416C465.289 694.729 464.235 695.747 462.882 696.47C461.538 697.193 459.978 697.555 458.2 697.555ZM471.522 697.09V674.769H475.305L485.659 690.502V674.769H489.441V697.09H485.659L475.305 681.357V697.09H471.522ZM493.774 697.09V674.769H502.625C504.134 674.769 505.369 675.074 506.33 675.684C507.301 676.283 508.019 677.053 508.484 677.993C508.959 678.934 509.197 679.905 509.197 680.907C509.197 682.137 508.903 683.181 508.314 684.039C507.735 684.896 506.944 685.475 505.942 685.775V685C507.347 685.32 508.412 685.986 509.135 686.999C509.869 688.012 510.236 689.164 510.236 690.456C510.236 691.778 509.982 692.936 509.476 693.928C508.97 694.92 508.215 695.695 507.213 696.253C506.221 696.811 504.991 697.09 503.524 697.09H493.774ZM497.556 693.571H503.059C503.71 693.571 504.294 693.442 504.81 693.184C505.327 692.915 505.73 692.543 506.02 692.068C506.319 691.582 506.469 691.009 506.469 690.347C506.469 689.748 506.34 689.211 506.082 688.735C505.823 688.26 505.446 687.883 504.95 687.604C504.454 687.314 503.86 687.17 503.167 687.17H497.556V693.571ZM497.556 683.682H502.578C503.116 683.682 503.596 683.579 504.02 683.372C504.444 683.165 504.779 682.861 505.028 682.457C505.276 682.054 505.4 681.558 505.4 680.969C505.4 680.194 505.152 679.549 504.655 679.032C504.159 678.515 503.467 678.257 502.578 678.257H497.556V683.682ZM511.781 697.09L518.819 674.769H524.29L531.328 697.09H527.483L521.097 677.063H521.934L515.625 697.09H511.781ZM515.703 692.254V688.766H527.421V692.254H515.703ZM537.646 697.09V678.272H530.423V674.769H548.605V678.272H541.382V697.09H537.646ZM551.084 697.09V674.769H554.819V684.163H565.391V674.769H569.111V697.09H565.391V687.666H554.819V697.09H551.084ZM573.766 697.09V674.769H577.502V697.09H573.766ZM582.145 697.09V674.769H585.927L596.282 690.502V674.769H600.064V697.09H596.282L585.927 681.357V697.09H582.145ZM613.604 697.555C612.157 697.555 610.799 697.302 609.528 696.795C608.267 696.279 607.156 695.524 606.195 694.532C605.244 693.54 604.5 692.326 603.963 690.89C603.426 689.443 603.157 687.79 603.157 685.93C603.157 683.491 603.612 681.409 604.521 679.683C605.43 677.947 606.675 676.619 608.257 675.699C609.838 674.769 611.62 674.304 613.604 674.304C616.353 674.304 618.528 674.945 620.13 676.226C621.742 677.497 622.832 679.285 623.4 681.589L619.587 682.194C619.164 680.871 618.471 679.817 617.51 679.032C616.549 678.236 615.325 677.838 613.837 677.838C612.338 677.818 611.093 678.143 610.101 678.815C609.109 679.487 608.36 680.432 607.853 681.651C607.357 682.871 607.109 684.297 607.109 685.93C607.109 687.562 607.357 688.983 607.853 690.192C608.35 691.391 609.094 692.326 610.086 692.998C611.088 693.67 612.338 694.016 613.837 694.036C614.963 694.047 615.95 693.845 616.797 693.432C617.645 693.008 618.337 692.373 618.874 691.525C619.412 690.668 619.773 689.598 619.959 688.317H616.022V685.387H623.928C623.948 685.552 623.964 685.795 623.974 686.116C623.984 686.436 623.99 686.627 623.99 686.689C623.99 688.797 623.571 690.673 622.734 692.316C621.907 693.949 620.719 695.23 619.169 696.16C617.619 697.09 615.764 697.555 613.604 697.555Z" fill="white"></path><circle cx="332.46" cy="496.016" r="66.4307" fill="white"></circle><path d="M320.461 510.759C317.751 510.759 315.43 510.169 313.497 508.989C311.565 507.797 310.078 506.141 309.036 504.02C308.007 501.9 307.493 499.44 307.493 496.642C307.493 493.844 308.007 491.385 309.036 489.264C310.078 487.143 311.565 485.493 313.497 484.314C315.43 483.122 317.751 482.526 320.461 482.526C323.172 482.526 325.493 483.122 327.426 484.314C329.371 485.493 330.857 487.143 331.886 489.264C332.928 491.385 333.449 493.844 333.449 496.642C333.449 499.44 332.928 501.9 331.886 504.02C330.857 506.141 329.371 507.797 327.426 508.989C325.493 510.169 323.172 510.759 320.461 510.759ZM320.461 506.486C322.281 506.499 323.793 506.097 324.998 505.282C326.215 504.466 327.124 503.318 327.727 501.837C328.342 500.356 328.649 498.625 328.649 496.642C328.649 494.66 328.342 492.941 327.727 491.485C327.124 490.017 326.215 488.875 324.998 488.059C323.793 487.244 322.281 486.823 320.461 486.798C318.642 486.786 317.13 487.187 315.925 488.003C314.721 488.819 313.811 489.967 313.196 491.447C312.594 492.928 312.293 494.66 312.293 496.642C312.293 498.625 312.594 500.35 313.196 501.818C313.798 503.274 314.702 504.409 315.906 505.225C317.124 506.041 318.642 506.461 320.461 506.486ZM337.195 510.194V483.09H348.394C348.658 483.09 348.996 483.103 349.411 483.128C349.825 483.141 350.207 483.178 350.559 483.241C352.127 483.479 353.42 484 354.436 484.803C355.465 485.606 356.224 486.623 356.714 487.852C357.215 489.069 357.466 490.425 357.466 491.918C357.466 494.126 356.908 496.027 355.791 497.621C354.674 499.202 352.962 500.181 350.653 500.557L348.714 500.727H341.731V510.194H337.195ZM352.761 510.194L347.415 499.164L352.027 498.148L357.899 510.194H352.761ZM341.731 496.492H348.206C348.457 496.492 348.739 496.479 349.053 496.454C349.367 496.429 349.655 496.379 349.919 496.303C350.672 496.115 351.261 495.783 351.688 495.306C352.127 494.829 352.435 494.289 352.61 493.687C352.799 493.085 352.893 492.495 352.893 491.918C352.893 491.341 352.799 490.751 352.61 490.149C352.435 489.534 352.127 488.988 351.688 488.511C351.261 488.034 350.672 487.702 349.919 487.514C349.655 487.438 349.367 487.394 349.053 487.382C348.739 487.357 348.457 487.344 348.206 487.344H341.731V496.492Z" fill="#3E1BC9"></path></svg> 