<?xml version="1.0" encoding="UTF-8"?> <svg xmlns="http://www.w3.org/2000/svg" width="665" height="859" viewBox="0 0 665 859" fill="none"><path d="M143.874 80.6086L135.95 53.5049H140.712L146.114 73.0798L151.497 53.5425L156.259 53.5049L161.661 73.0798L167.044 53.5049H171.806L163.901 80.6086H159.421L153.869 61.3349L148.354 80.6086H143.874ZM185.605 81.1733C182.894 81.1733 180.573 80.5835 178.641 79.404C176.708 78.212 175.221 76.5556 174.18 74.435C173.151 72.3144 172.636 69.855 172.636 67.0568C172.636 64.2586 173.151 61.7991 174.18 59.6785C175.221 57.5579 176.708 55.9078 178.641 54.7283C180.573 53.5363 182.894 52.9402 185.605 52.9402C188.315 52.9402 190.636 53.5363 192.569 54.7283C194.514 55.9078 196.001 57.5579 197.03 59.6785C198.071 61.7991 198.592 64.2586 198.592 67.0568C198.592 69.855 198.071 72.3144 197.03 74.435C196.001 76.5556 194.514 78.212 192.569 79.404C190.636 80.5835 188.315 81.1733 185.605 81.1733ZM185.605 76.9007C187.424 76.9132 188.936 76.5117 190.141 75.6961C191.358 74.8805 192.268 73.7323 192.87 72.2517C193.485 70.771 193.792 69.0394 193.792 67.0568C193.792 65.0742 193.485 63.3551 192.87 61.8995C192.268 60.4314 191.358 59.2895 190.141 58.4739C188.936 57.6583 187.424 57.2379 185.605 57.2128C183.785 57.2003 182.273 57.6018 181.069 58.4175C179.864 59.2331 178.954 60.3812 178.339 61.8619C177.737 63.3426 177.436 65.0742 177.436 67.0568C177.436 69.0394 177.737 70.7647 178.339 72.2328C178.942 73.6884 179.845 74.824 181.05 75.6396C182.267 76.4552 183.785 76.8756 185.605 76.9007ZM213.255 81.1733C211.097 81.1733 209.196 80.7341 207.552 79.8558C205.921 78.9774 204.641 77.7414 203.712 76.1478C202.796 74.5542 202.338 72.6846 202.338 70.5388V53.5425L206.931 53.5049V70.4259C206.931 71.4423 207.1 72.352 207.439 73.1551C207.79 73.9582 208.261 74.6421 208.851 75.2067C209.441 75.7588 210.118 76.1792 210.884 76.4678C211.649 76.7564 212.44 76.9007 213.255 76.9007C214.096 76.9007 214.893 76.7564 215.646 76.4678C216.411 76.1666 217.089 75.74 217.678 75.1879C218.268 74.6232 218.732 73.9394 219.071 73.1363C219.41 72.3332 219.579 71.4298 219.579 70.4259V53.5049H224.172V70.5388C224.172 72.6846 223.708 74.5542 222.779 76.1478C221.863 77.7414 220.583 78.9774 218.939 79.8558C217.308 80.7341 215.413 81.1733 213.255 81.1733ZM229.808 80.6086V53.5049H234.344V76.3549H246.315V80.6086H229.808ZM249.504 80.6086V53.5049H258.143C258.369 53.5049 258.814 53.5112 259.479 53.5237C260.157 53.5363 260.81 53.5802 261.437 53.6555C263.583 53.9315 265.396 54.697 266.876 55.9518C268.37 57.194 269.499 58.7813 270.264 60.7137C271.03 62.6461 271.413 64.7605 271.413 67.0568C271.413 69.3531 271.03 71.4674 270.264 73.3998C269.499 75.3322 268.37 76.9258 266.876 78.1806C265.396 79.4229 263.583 80.182 261.437 80.4581C260.822 80.5334 260.176 80.5773 259.498 80.5898C258.821 80.6024 258.369 80.6086 258.143 80.6086H249.504ZM254.115 76.336H258.143C258.519 76.336 258.996 76.3235 259.574 76.2984C260.163 76.2733 260.684 76.2168 261.136 76.129C262.416 75.8906 263.457 75.3196 264.26 74.4162C265.063 73.5127 265.653 72.4148 266.029 71.1223C266.418 69.8299 266.613 68.4747 266.613 67.0568C266.613 65.5887 266.418 64.2084 266.029 62.9159C265.641 61.6235 265.038 60.5381 264.223 59.6597C263.42 58.7813 262.391 58.223 261.136 57.9845C260.684 57.8842 260.163 57.8277 259.574 57.8151C258.996 57.7901 258.519 57.7775 258.143 57.7775H254.115V76.336ZM289.986 80.6086V69.5036L280.763 53.5049H286.052L292.282 64.3088L298.493 53.5049H303.782L294.578 69.5036V80.6086H289.986ZM316.366 81.1733C313.656 81.1733 311.335 80.5835 309.402 79.404C307.47 78.212 305.983 76.5556 304.941 74.435C303.912 72.3144 303.398 69.855 303.398 67.0568C303.398 64.2586 303.912 61.7991 304.941 59.6785C305.983 57.5579 307.47 55.9078 309.402 54.7283C311.335 53.5363 313.656 52.9402 316.366 52.9402C319.077 52.9402 321.398 53.5363 323.331 54.7283C325.275 55.9078 326.762 57.5579 327.791 59.6785C328.833 61.7991 329.354 64.2586 329.354 67.0568C329.354 69.855 328.833 72.3144 327.791 74.435C326.762 76.5556 325.275 78.212 323.331 79.404C321.398 80.5835 319.077 81.1733 316.366 81.1733ZM316.366 76.9007C318.186 76.9132 319.698 76.5117 320.903 75.6961C322.12 74.8805 323.029 73.7323 323.632 72.2517C324.247 70.771 324.554 69.0394 324.554 67.0568C324.554 65.0742 324.247 63.3551 323.632 61.8995C323.029 60.4314 322.12 59.2895 320.903 58.4739C319.698 57.6583 318.186 57.2379 316.366 57.2128C314.547 57.2003 313.035 57.6018 311.83 58.4175C310.626 59.2331 309.716 60.3812 309.101 61.8619C308.499 63.3426 308.198 65.0742 308.198 67.0568C308.198 69.0394 308.499 70.7647 309.101 72.2328C309.703 73.6884 310.607 74.824 311.811 75.6396C313.029 76.4552 314.547 76.8756 316.366 76.9007ZM344.017 81.1733C341.859 81.1733 339.958 80.7341 338.314 79.8558C336.683 78.9774 335.403 77.7414 334.474 76.1478C333.558 74.5542 333.1 72.6846 333.1 70.5388V53.5425L337.693 53.5049V70.4259C337.693 71.4423 337.862 72.352 338.201 73.1551C338.552 73.9582 339.023 74.6421 339.612 75.2067C340.202 75.7588 340.88 76.1792 341.645 76.4678C342.411 76.7564 343.201 76.9007 344.017 76.9007C344.858 76.9007 345.654 76.7564 346.407 76.4678C347.173 76.1666 347.85 75.74 348.44 75.1879C349.03 74.6232 349.494 73.9394 349.833 73.1363C350.172 72.3332 350.341 71.4298 350.341 70.4259V53.5049H354.934V70.5388C354.934 72.6846 354.469 74.5542 353.541 76.1478C352.625 77.7414 351.345 78.9774 349.701 79.8558C348.07 80.7341 346.175 81.1733 344.017 81.1733ZM367.73 80.6086V53.5049H378.929C379.192 53.5049 379.531 53.5174 379.945 53.5425C380.359 53.5551 380.742 53.5927 381.093 53.6555C382.662 53.8939 383.954 54.4146 384.971 55.2177C386 56.0208 386.759 57.0372 387.248 58.2669C387.75 59.484 388.001 60.8392 388.001 62.3324C388.001 64.5409 387.443 66.4419 386.326 68.0355C385.209 69.6166 383.496 70.5953 381.187 70.9718L379.249 71.1412H372.266V80.6086H367.73ZM383.296 80.6086L377.95 69.5789L382.561 68.5625L388.434 80.6086H383.296ZM372.266 66.9062H378.741C378.992 66.9062 379.274 66.8936 379.588 66.8686C379.901 66.8435 380.19 66.7933 380.453 66.718C381.206 66.5298 381.796 66.1972 382.223 65.7204C382.662 65.2436 382.969 64.704 383.145 64.1017C383.333 63.4994 383.427 62.9096 383.427 62.3324C383.427 61.7552 383.333 61.1655 383.145 60.5632C382.969 59.9483 382.662 59.4025 382.223 58.9256C381.796 58.4488 381.206 58.1163 380.453 57.9281C380.19 57.8528 379.901 57.8089 379.588 57.7963C379.274 57.7712 378.992 57.7587 378.741 57.7587H372.266V66.9062ZM390.698 80.6086L399.244 53.5049H405.888L414.433 80.6086H409.765L402.011 56.2906H403.027L395.366 80.6086H390.698ZM395.46 74.7362V70.5012H409.69V74.7362H395.46ZM422.106 80.6086V57.7587H413.335V53.5049H435.413V57.7587H426.642V80.6086H422.106ZM438.423 80.6086V53.5049H442.959V64.9111H455.795V53.5049H460.313V80.6086H455.795V69.1648H442.959V80.6086H438.423ZM465.59 80.6086V53.5049H483.094V57.7587H470.126V64.4405H480.835V68.6943H470.126V76.3549H483.094V80.6086H465.59ZM487.61 80.6086V53.5049H498.809C499.073 53.5049 499.411 53.5174 499.825 53.5425C500.24 53.5551 500.622 53.5927 500.974 53.6555C502.542 53.8939 503.835 54.4146 504.851 55.2177C505.88 56.0208 506.639 57.0372 507.128 58.2669C507.63 59.484 507.881 60.8392 507.881 62.3324C507.881 64.5409 507.323 66.4419 506.206 68.0355C505.089 69.6166 503.377 70.5953 501.068 70.9718L499.129 71.1412H492.146V80.6086H487.61ZM503.176 80.6086L497.83 69.5789L502.442 68.5625L508.314 80.6086H503.176ZM492.146 66.9062H498.621C498.872 66.9062 499.154 66.8936 499.468 66.8686C499.782 66.8435 500.07 66.7933 500.334 66.718C501.087 66.5298 501.676 66.1972 502.103 65.7204C502.542 65.2436 502.85 64.704 503.025 64.1017C503.213 63.4994 503.308 62.9096 503.308 62.3324C503.308 61.7552 503.213 61.1655 503.025 60.5632C502.85 59.9483 502.542 59.4025 502.103 58.9256C501.676 58.4488 501.087 58.1163 500.334 57.9281C500.07 57.8528 499.782 57.8089 499.468 57.7963C499.154 57.7712 498.872 57.7587 498.621 57.7587H492.146V66.9062ZM517.373 73.2492C517.373 72.3834 517.455 71.549 517.618 70.7459C517.794 69.9303 518.076 69.1774 518.465 68.4872C518.804 67.8222 519.18 67.2952 519.594 66.9062C520.009 66.5047 520.473 66.1094 520.987 65.7204C521.502 65.3189 522.073 64.7856 522.7 64.1205C523.215 63.5559 523.553 62.9975 523.716 62.4454C523.88 61.8807 523.961 61.2784 523.961 60.6385C523.961 60.2244 523.917 59.8354 523.829 59.4715C523.742 59.1076 523.585 58.7939 523.359 58.5304C523.008 58.0661 522.556 57.7399 522.004 57.5516C521.452 57.3509 520.862 57.2505 520.234 57.2505C519.72 57.2505 519.224 57.3195 518.747 57.4575C518.283 57.583 517.888 57.7838 517.562 58.0598C517.185 58.361 516.909 58.7312 516.733 59.1703C516.558 59.6095 516.476 60.0926 516.489 60.6196H511.708C511.833 59.3648 512.172 58.2041 512.724 57.1376C513.289 56.0584 514.029 55.1989 514.945 54.5589C515.661 54.0319 516.464 53.6367 517.355 53.3731C518.258 53.1096 519.162 52.9779 520.065 52.9779C521.445 52.9779 522.744 53.1912 523.961 53.6178C525.191 54.0445 526.214 54.7472 527.029 55.7259C527.594 56.3659 528.02 57.1062 528.309 57.9469C528.61 58.7876 528.761 59.6409 528.761 60.5067C528.761 61.7991 528.478 62.9787 527.914 64.0452C527.362 65.1118 526.659 66.0968 525.806 67.0003C525.404 67.4269 525.021 67.8034 524.658 68.1296C524.294 68.4559 523.955 68.7759 523.641 69.0896C523.34 69.3907 523.089 69.7107 522.888 70.0495C522.537 70.6392 522.33 71.1412 522.267 71.5552C522.204 71.9568 522.173 72.5214 522.173 73.2492H517.373ZM517.411 80.6086V75.6208H522.173V80.6086H517.411Z" fill="#3E1BC9"></path><rect x="12" y="133" width="640" height="320" rx="22.1436" fill="#3E1BC9"></rect><path d="M126.848 304.603C125.402 304.603 124.043 304.35 122.772 303.844C121.511 303.327 120.4 302.573 119.439 301.581C118.488 300.589 117.744 299.375 117.207 297.938C116.67 296.492 116.401 294.838 116.401 292.978C116.401 290.539 116.856 288.457 117.765 286.731C118.674 284.995 119.92 283.667 121.501 282.748C123.082 281.818 124.864 281.353 126.848 281.353C129.597 281.353 131.772 281.993 133.374 283.275C134.986 284.546 136.076 286.334 136.645 288.638L132.832 289.242C132.408 287.92 131.716 286.866 130.754 286.08C129.793 285.285 128.569 284.887 127.081 284.887C125.582 284.866 124.337 285.192 123.345 285.863C122.353 286.535 121.604 287.481 121.098 288.7C120.602 289.919 120.354 291.345 120.354 292.978C120.354 294.611 120.602 296.032 121.098 297.241C121.594 298.439 122.338 299.375 123.33 300.046C124.332 300.718 125.582 301.064 127.081 301.085C128.207 301.095 129.194 300.894 130.041 300.48C130.889 300.057 131.581 299.421 132.119 298.574C132.656 297.716 133.018 296.647 133.204 295.365H129.266V292.436H137.172C137.192 292.601 137.208 292.844 137.218 293.164C137.229 293.484 137.234 293.676 137.234 293.738C137.234 295.846 136.815 297.721 135.978 299.364C135.151 300.997 133.963 302.278 132.413 303.208C130.863 304.138 129.008 304.603 126.848 304.603ZM149.787 304.603C147.555 304.603 145.643 304.118 144.052 303.146C142.46 302.165 141.236 300.801 140.378 299.054C139.531 297.308 139.107 295.282 139.107 292.978C139.107 290.674 139.531 288.648 140.378 286.902C141.236 285.155 142.46 283.797 144.052 282.825C145.643 281.844 147.555 281.353 149.787 281.353C152.019 281.353 153.93 281.844 155.522 282.825C157.124 283.797 158.348 285.155 159.195 286.902C160.053 288.648 160.482 290.674 160.482 292.978C160.482 295.282 160.053 297.308 159.195 299.054C158.348 300.801 157.124 302.165 155.522 303.146C153.93 304.118 152.019 304.603 149.787 304.603ZM149.787 301.085C151.285 301.095 152.53 300.764 153.522 300.093C154.525 299.421 155.274 298.476 155.77 297.256C156.276 296.037 156.529 294.611 156.529 292.978C156.529 291.345 156.276 289.93 155.77 288.731C155.274 287.522 154.525 286.582 153.522 285.91C152.53 285.238 151.285 284.892 149.787 284.871C148.288 284.861 147.043 285.192 146.051 285.863C145.059 286.535 144.31 287.481 143.803 288.7C143.307 289.919 143.059 291.345 143.059 292.978C143.059 294.611 143.307 296.032 143.803 297.241C144.3 298.439 145.044 299.375 146.036 300.046C147.038 300.718 148.288 301.064 149.787 301.085ZM179.213 304.603C176.981 304.603 175.07 304.118 173.478 303.146C171.887 302.165 170.662 300.801 169.805 299.054C168.957 297.308 168.534 295.282 168.534 292.978C168.534 290.674 168.957 288.648 169.805 286.902C170.662 285.155 171.887 283.797 173.478 282.825C175.07 281.844 176.981 281.353 179.213 281.353C181.446 281.353 183.357 281.844 184.949 282.825C186.55 283.797 187.775 285.155 188.622 286.902C189.48 288.648 189.909 290.674 189.909 292.978C189.909 295.282 189.48 297.308 188.622 299.054C187.775 300.801 186.55 302.165 184.949 303.146C183.357 304.118 181.446 304.603 179.213 304.603ZM179.213 301.085C180.712 301.095 181.957 300.764 182.949 300.093C183.951 299.421 184.701 298.476 185.197 297.256C185.703 296.037 185.956 294.611 185.956 292.978C185.956 291.345 185.703 289.93 185.197 288.731C184.701 287.522 183.951 286.582 182.949 285.91C181.957 285.238 180.712 284.892 179.213 284.871C177.715 284.861 176.47 285.192 175.478 285.863C174.486 286.535 173.737 287.481 173.23 288.7C172.734 289.919 172.486 291.345 172.486 292.978C172.486 294.611 172.734 296.032 173.23 297.241C173.726 298.439 174.47 299.375 175.462 300.046C176.465 300.718 177.715 301.064 179.213 301.085ZM192.994 304.138V281.818H196.776L207.131 297.551V281.818H210.913V304.138H207.131L196.776 288.405V304.138H192.994ZM219.902 304.138L226.939 281.818H232.411L239.448 304.138H235.604L229.218 284.112H230.055L223.746 304.138H219.902ZM223.824 299.302V295.815H235.542V299.302H223.824ZM256.719 304.603C255.086 304.603 253.613 304.319 252.301 303.751C250.999 303.183 249.924 302.371 249.077 301.317C248.24 300.253 247.708 298.992 247.48 297.535L251.355 296.946C251.686 298.269 252.363 299.292 253.386 300.015C254.419 300.739 255.608 301.1 256.951 301.1C257.747 301.1 258.496 300.976 259.199 300.728C259.901 300.48 260.47 300.119 260.904 299.643C261.348 299.168 261.57 298.584 261.57 297.892C261.57 297.582 261.519 297.298 261.415 297.039C261.312 296.771 261.157 296.533 260.95 296.326C260.754 296.119 260.496 295.933 260.175 295.768C259.865 295.592 259.504 295.443 259.09 295.319L253.324 293.614C252.828 293.469 252.291 293.278 251.712 293.04C251.144 292.792 250.601 292.456 250.084 292.033C249.578 291.599 249.16 291.051 248.829 290.389C248.509 289.718 248.348 288.891 248.348 287.909C248.348 286.473 248.71 285.269 249.433 284.298C250.167 283.316 251.149 282.582 252.378 282.097C253.619 281.611 254.993 281.373 256.502 281.384C258.031 281.394 259.395 281.658 260.594 282.174C261.792 282.681 262.795 283.419 263.601 284.391C264.407 285.362 264.975 286.535 265.306 287.909L261.291 288.607C261.126 287.822 260.806 287.155 260.33 286.607C259.865 286.049 259.292 285.626 258.61 285.336C257.938 285.047 257.22 284.892 256.455 284.871C255.711 284.861 255.019 284.975 254.378 285.212C253.748 285.44 253.236 285.77 252.844 286.204C252.461 286.638 252.27 287.145 252.27 287.723C252.27 288.271 252.435 288.721 252.766 289.072C253.097 289.413 253.505 289.687 253.991 289.893C254.487 290.09 254.988 290.255 255.494 290.389L259.493 291.506C260.041 291.65 260.656 291.847 261.338 292.095C262.02 292.343 262.676 292.689 263.306 293.133C263.937 293.577 264.453 294.161 264.856 294.885C265.27 295.608 265.476 296.528 265.476 297.644C265.476 298.801 265.234 299.819 264.748 300.697C264.273 301.565 263.627 302.289 262.81 302.867C261.994 303.446 261.059 303.88 260.005 304.169C258.961 304.459 257.866 304.603 256.719 304.603ZM268.832 304.138V281.818H278.054C278.271 281.818 278.55 281.828 278.891 281.849C279.232 281.859 279.548 281.89 279.837 281.942C281.129 282.138 282.193 282.567 283.03 283.228C283.877 283.89 284.503 284.727 284.906 285.739C285.319 286.742 285.526 287.858 285.526 289.087C285.526 290.307 285.319 291.423 284.906 292.436C284.492 293.438 283.862 294.27 283.015 294.931C282.177 295.592 281.118 296.021 279.837 296.218C279.548 296.259 279.227 296.29 278.876 296.311C278.535 296.331 278.261 296.342 278.054 296.342H272.567V304.138H268.832ZM272.567 292.854H277.899C278.106 292.854 278.339 292.844 278.597 292.823C278.855 292.802 279.093 292.761 279.31 292.699C279.93 292.544 280.416 292.27 280.767 291.878C281.129 291.485 281.382 291.04 281.526 290.544C281.681 290.048 281.759 289.563 281.759 289.087C281.759 288.612 281.681 288.126 281.526 287.63C281.382 287.124 281.129 286.675 280.767 286.282C280.416 285.889 279.93 285.615 279.31 285.46C279.093 285.398 278.855 285.362 278.597 285.352C278.339 285.331 278.106 285.321 277.899 285.321H272.567V292.854ZM298.071 304.603C295.839 304.603 293.927 304.118 292.336 303.146C290.744 302.165 289.52 300.801 288.662 299.054C287.815 297.308 287.391 295.282 287.391 292.978C287.391 290.674 287.815 288.648 288.662 286.902C289.52 285.155 290.744 283.797 292.336 282.825C293.927 281.844 295.839 281.353 298.071 281.353C300.303 281.353 302.215 281.844 303.806 282.825C305.408 283.797 306.632 285.155 307.48 286.902C308.337 288.648 308.766 290.674 308.766 292.978C308.766 295.282 308.337 297.308 307.48 299.054C306.632 300.801 305.408 302.165 303.806 303.146C302.215 304.118 300.303 304.603 298.071 304.603ZM298.071 301.085C299.569 301.095 300.814 300.764 301.806 300.093C302.809 299.421 303.558 298.476 304.054 297.256C304.56 296.037 304.814 294.611 304.814 292.978C304.814 291.345 304.56 289.93 304.054 288.731C303.558 287.522 302.809 286.582 301.806 285.91C300.814 285.238 299.569 284.892 298.071 284.871C296.572 284.861 295.327 285.192 294.335 285.863C293.343 286.535 292.594 287.481 292.088 288.7C291.592 289.919 291.344 291.345 291.344 292.978C291.344 294.611 291.592 296.032 292.088 297.241C292.584 298.439 293.328 299.375 294.32 300.046C295.322 300.718 296.572 301.064 298.071 301.085ZM311.851 304.138V281.818H315.634L325.988 297.551V281.818H329.77V304.138H325.988L315.634 288.405V304.138H311.851ZM339.466 304.138V285.321H332.243V281.818H350.425V285.321H343.202V304.138H339.466ZM350.748 304.138L357.785 281.818H363.257L370.294 304.138H366.45L360.064 284.112H360.901L354.592 304.138H350.748ZM354.67 299.302V295.815H366.388V299.302H354.67ZM373.097 304.138V281.818H376.879L387.233 297.551V281.818H391.015V304.138H387.233L376.879 288.405V304.138H373.097ZM395.348 304.138V281.818H409.764V285.321H399.084V290.823H407.904V294.327H399.084V300.635H409.764V304.138H395.348ZM421.984 304.603C419.752 304.603 417.84 304.118 416.249 303.146C414.657 302.165 413.433 300.801 412.575 299.054C411.728 297.308 411.304 295.282 411.304 292.978C411.304 290.674 411.728 288.648 412.575 286.902C413.433 285.155 414.657 283.797 416.249 282.825C417.84 281.844 419.752 281.353 421.984 281.353C424.216 281.353 426.128 281.844 427.719 282.825C429.321 283.797 430.545 285.155 431.393 286.902C432.251 288.648 432.679 290.674 432.679 292.978C432.679 295.282 432.251 297.308 431.393 299.054C430.545 300.801 429.321 302.165 427.719 303.146C426.128 304.118 424.216 304.603 421.984 304.603ZM421.984 301.085C423.482 301.095 424.728 300.764 425.72 300.093C426.722 299.421 427.471 298.476 427.967 297.256C428.474 296.037 428.727 294.611 428.727 292.978C428.727 291.345 428.474 289.93 427.967 288.731C427.471 287.522 426.722 286.582 425.72 285.91C424.728 285.238 423.482 284.892 421.984 284.871C420.486 284.861 419.24 285.192 418.248 285.863C417.256 286.535 416.507 287.481 416.001 288.7C415.505 289.919 415.257 291.345 415.257 292.978C415.257 294.611 415.505 296.032 416.001 297.241C416.497 298.439 417.241 299.375 418.233 300.046C419.235 300.718 420.486 301.064 421.984 301.085ZM444.755 304.603C442.978 304.603 441.412 304.242 440.058 303.518C438.715 302.795 437.661 301.777 436.896 300.465C436.142 299.152 435.765 297.613 435.765 295.846V281.849L439.547 281.818V295.753C439.547 296.59 439.686 297.339 439.965 298C440.255 298.662 440.642 299.225 441.128 299.69C441.614 300.144 442.172 300.491 442.802 300.728C443.432 300.966 444.083 301.085 444.755 301.085C445.447 301.085 446.104 300.966 446.724 300.728C447.354 300.48 447.912 300.129 448.398 299.674C448.883 299.209 449.266 298.646 449.545 297.985C449.824 297.323 449.963 296.579 449.963 295.753V281.818H453.745V295.846C453.745 297.613 453.363 299.152 452.598 300.465C451.844 301.777 450.79 302.795 449.436 303.518C448.093 304.242 446.532 304.603 444.755 304.603ZM465.4 304.603C463.768 304.603 462.295 304.319 460.983 303.751C459.681 303.183 458.606 302.371 457.758 301.317C456.921 300.253 456.389 298.992 456.162 297.535L460.037 296.946C460.368 298.269 461.045 299.292 462.068 300.015C463.101 300.739 464.289 301.1 465.633 301.1C466.428 301.1 467.178 300.976 467.88 300.728C468.583 300.48 469.151 300.119 469.585 299.643C470.03 299.168 470.252 298.584 470.252 297.892C470.252 297.582 470.2 297.298 470.097 297.039C469.994 296.771 469.839 296.533 469.632 296.326C469.436 296.119 469.177 295.933 468.857 295.768C468.547 295.592 468.185 295.443 467.772 295.319L462.006 293.614C461.51 293.469 460.972 293.278 460.394 293.04C459.825 292.792 459.283 292.456 458.766 292.033C458.26 291.599 457.841 291.051 457.51 290.389C457.19 289.718 457.03 288.891 457.03 287.909C457.03 286.473 457.392 285.269 458.115 284.298C458.849 283.316 459.83 282.582 461.06 282.097C462.3 281.611 463.675 281.373 465.183 281.384C466.713 281.394 468.077 281.658 469.275 282.174C470.474 282.681 471.476 283.419 472.282 284.391C473.088 285.362 473.657 286.535 473.988 287.909L469.973 288.607C469.808 287.822 469.487 287.155 469.012 286.607C468.547 286.049 467.973 285.626 467.291 285.336C466.62 285.047 465.901 284.892 465.137 284.871C464.393 284.861 463.7 284.975 463.06 285.212C462.429 285.44 461.918 285.77 461.525 286.204C461.143 286.638 460.952 287.145 460.952 287.723C460.952 288.271 461.117 288.721 461.448 289.072C461.778 289.413 462.186 289.687 462.672 289.893C463.168 290.09 463.669 290.255 464.176 290.389L468.175 291.506C468.722 291.65 469.337 291.847 470.019 292.095C470.701 292.343 471.358 292.689 471.988 293.133C472.618 293.577 473.135 294.161 473.538 294.885C473.951 295.608 474.158 296.528 474.158 297.644C474.158 298.801 473.915 299.819 473.429 300.697C472.954 301.565 472.308 302.289 471.492 302.867C470.676 303.446 469.74 303.88 468.686 304.169C467.643 304.459 466.547 304.603 465.4 304.603ZM489.083 304.138V285.321H481.859V281.818H500.041V285.321H492.818V304.138H489.083ZM502.52 304.138V281.818H511.743C511.96 281.818 512.239 281.828 512.58 281.849C512.921 281.859 513.236 281.89 513.525 281.942C514.817 282.138 515.881 282.567 516.718 283.228C517.566 283.89 518.191 284.727 518.594 285.739C519.007 286.742 519.214 287.858 519.214 289.087C519.214 290.906 518.754 292.472 517.834 293.784C516.915 295.086 515.504 295.892 513.603 296.202L512.006 296.342H506.255V304.138H502.52ZM515.339 304.138L510.937 295.055L514.734 294.218L519.57 304.138H515.339ZM506.255 292.854H511.588C511.794 292.854 512.027 292.844 512.285 292.823C512.543 292.802 512.781 292.761 512.998 292.699C513.618 292.544 514.104 292.27 514.455 291.878C514.817 291.485 515.07 291.04 515.215 290.544C515.37 290.048 515.447 289.563 515.447 289.087C515.447 288.612 515.37 288.126 515.215 287.63C515.07 287.124 514.817 286.675 514.455 286.282C514.104 285.889 513.618 285.615 512.998 285.46C512.781 285.398 512.543 285.362 512.285 285.352C512.027 285.331 511.794 285.321 511.588 285.321H506.255V292.854ZM523.295 304.138V281.818H527.031V304.138H523.295ZM531.674 304.138V281.818H540.897C541.114 281.818 541.393 281.828 541.734 281.849C542.075 281.859 542.39 281.89 542.679 281.942C543.971 282.138 545.036 282.567 545.873 283.228C546.72 283.89 547.345 284.727 547.748 285.739C548.161 286.742 548.368 287.858 548.368 289.087C548.368 290.307 548.161 291.423 547.748 292.436C547.335 293.438 546.704 294.27 545.857 294.931C545.02 295.592 543.961 296.021 542.679 296.218C542.39 296.259 542.07 296.29 541.718 296.311C541.377 296.331 541.104 296.342 540.897 296.342H535.41V304.138H531.674ZM535.41 292.854H540.742C540.949 292.854 541.181 292.844 541.439 292.823C541.698 292.802 541.935 292.761 542.152 292.699C542.772 292.544 543.258 292.27 543.609 291.878C543.971 291.485 544.224 291.04 544.369 290.544C544.524 290.048 544.602 289.563 544.602 289.087C544.602 288.612 544.524 288.126 544.369 287.63C544.224 287.124 543.971 286.675 543.609 286.282C543.258 285.889 542.772 285.615 542.152 285.46C541.935 285.398 541.698 285.362 541.439 285.352C541.181 285.331 540.949 285.321 540.742 285.321H535.41V292.854Z" fill="white"></path><rect x="12" y="526" width="640" height="320" rx="22.1436" fill="#F7B21C"></rect><path d="M122.196 676.09V653.769H131.419C131.636 653.769 131.915 653.779 132.256 653.8C132.597 653.81 132.912 653.841 133.202 653.893C134.493 654.089 135.558 654.518 136.395 655.18C137.242 655.841 137.867 656.678 138.27 657.691C138.684 658.693 138.89 659.809 138.89 661.039C138.89 662.258 138.684 663.374 138.27 664.387C137.857 665.389 137.226 666.221 136.379 666.883C135.542 667.544 134.483 667.973 133.202 668.169C132.912 668.21 132.592 668.241 132.24 668.262C131.899 668.283 131.626 668.293 131.419 668.293H125.932V676.09H122.196ZM125.932 664.805H131.264C131.471 664.805 131.703 664.795 131.961 664.774C132.22 664.754 132.457 664.712 132.674 664.65C133.295 664.495 133.78 664.222 134.132 663.829C134.493 663.436 134.746 662.992 134.891 662.496C135.046 662 135.124 661.514 135.124 661.039C135.124 660.564 135.046 660.078 134.891 659.582C134.746 659.075 134.493 658.626 134.132 658.233C133.78 657.841 133.295 657.567 132.674 657.412C132.457 657.35 132.22 657.314 131.961 657.303C131.703 657.283 131.471 657.272 131.264 657.272H125.932V664.805ZM142.306 676.09V653.769H146.041V672.587H155.9V676.09H142.306ZM156.975 676.09L164.013 653.769H169.484L176.522 676.09H172.677L166.291 656.063H167.128L160.82 676.09H156.975ZM160.897 671.254V667.766H172.615V671.254H160.897ZM179.324 676.09V653.769H183.106L193.46 669.502V653.769H197.243V676.09H193.46L183.106 660.357V676.09H179.324ZM207.782 676.09V653.769H222.197V657.272H211.518V662.775H220.337V666.278H211.518V672.587H222.197V676.09H207.782ZM230.938 676.09L223.901 653.769H227.745L233.636 672.463L239.603 653.769H243.447L236.41 676.09H230.938ZM245.776 676.09V653.769H260.192V657.272H249.512V662.775H258.332V666.278H249.512V672.587H260.192V676.09H245.776ZM263.911 676.09V653.769H273.134C273.351 653.769 273.63 653.779 273.971 653.8C274.312 653.81 274.627 653.841 274.916 653.893C276.208 654.089 277.272 654.518 278.109 655.18C278.957 655.841 279.582 656.678 279.985 657.691C280.398 658.693 280.605 659.809 280.605 661.039C280.605 662.858 280.145 664.423 279.225 665.736C278.306 667.038 276.895 667.844 274.994 668.154L273.397 668.293H267.646V676.09H263.911ZM276.73 676.09L272.328 667.007L276.125 666.17L280.961 676.09H276.73ZM267.646 664.805H272.979C273.185 664.805 273.418 664.795 273.676 664.774C273.934 664.754 274.172 664.712 274.389 664.65C275.009 664.495 275.495 664.222 275.846 663.829C276.208 663.436 276.461 662.992 276.606 662.496C276.761 662 276.838 661.514 276.838 661.039C276.838 660.564 276.761 660.078 276.606 659.582C276.461 659.075 276.208 658.626 275.846 658.233C275.495 657.841 275.009 657.567 274.389 657.412C274.172 657.35 273.934 657.314 273.676 657.303C273.418 657.283 273.185 657.272 272.979 657.272H267.646V664.805ZM289.378 676.09V666.945L281.782 653.769H286.138L291.269 662.666L296.384 653.769H300.739L293.16 666.945V676.09H289.378ZM307.869 676.09V653.769H314.984C315.17 653.769 315.537 653.774 316.084 653.785C316.642 653.795 317.18 653.831 317.697 653.893C319.464 654.12 320.957 654.751 322.176 655.784C323.406 656.807 324.336 658.114 324.966 659.706C325.597 661.297 325.912 663.038 325.912 664.929C325.912 666.821 325.597 668.562 324.966 670.153C324.336 671.745 323.406 673.057 322.176 674.09C320.957 675.113 319.464 675.738 317.697 675.966C317.19 676.028 316.658 676.064 316.1 676.074C315.542 676.085 315.17 676.09 314.984 676.09H307.869ZM311.667 672.571H314.984C315.294 672.571 315.687 672.561 316.162 672.54C316.648 672.52 317.076 672.473 317.449 672.401C318.503 672.204 319.36 671.734 320.022 670.99C320.683 670.246 321.169 669.342 321.479 668.278C321.799 667.213 321.959 666.097 321.959 664.929C321.959 663.72 321.799 662.584 321.479 661.519C321.158 660.455 320.662 659.561 319.991 658.838C319.329 658.114 318.482 657.655 317.449 657.458C317.076 657.376 316.648 657.329 316.162 657.319C315.687 657.298 315.294 657.288 314.984 657.288H311.667V672.571ZM329.576 676.09V653.769H343.991V657.272H333.312V662.775H342.131V666.278H333.312V672.587H343.991V676.09H329.576ZM353.074 676.09V657.272H345.85V653.769H364.032V657.272H356.809V676.09H353.074ZM364.355 676.09L371.392 653.769H376.864L383.901 676.09H380.057L373.671 656.063H374.508L368.199 676.09H364.355ZM368.277 671.254V667.766H379.995V671.254H368.277ZM387.014 676.09V653.769H390.749V676.09H387.014ZM395.703 676.09V653.769H399.438V672.587H409.296V676.09H395.703ZM426.024 676.555C423.792 676.555 421.881 676.069 420.289 675.098C418.698 674.116 417.473 672.752 416.616 671.006C415.768 669.259 415.345 667.234 415.345 664.929C415.345 662.625 415.768 660.6 416.616 658.853C417.473 657.107 418.698 655.748 420.289 654.777C421.881 653.795 423.792 653.304 426.024 653.304C428.257 653.304 430.168 653.795 431.76 654.777C433.361 655.748 434.586 657.107 435.433 658.853C436.291 660.6 436.72 662.625 436.72 664.929C436.72 667.234 436.291 669.259 435.433 671.006C434.586 672.752 433.361 674.116 431.76 675.098C430.168 676.069 428.257 676.555 426.024 676.555ZM426.024 673.036C427.523 673.047 428.768 672.716 429.76 672.044C430.762 671.373 431.512 670.427 432.008 669.208C432.514 667.988 432.767 666.562 432.767 664.929C432.767 663.297 432.514 661.881 432.008 660.682C431.512 659.473 430.762 658.533 429.76 657.861C428.768 657.19 427.523 656.843 426.024 656.823C424.526 656.812 423.281 657.143 422.289 657.815C421.297 658.486 420.548 659.432 420.041 660.651C419.545 661.871 419.297 663.297 419.297 664.929C419.297 666.562 419.545 667.983 420.041 669.192C420.537 670.391 421.281 671.326 422.273 671.998C423.276 672.669 424.526 673.016 426.024 673.036ZM439.805 676.09V653.769H453.244V657.505H443.541V663.069H451.384V666.79H443.541V676.09H439.805ZM467.664 676.09V666.945L460.068 653.769H464.424L469.555 662.666L474.67 653.769H479.026L471.446 666.945V676.09H467.664ZM489.389 676.555C487.157 676.555 485.245 676.069 483.654 675.098C482.062 674.116 480.838 672.752 479.98 671.006C479.133 669.259 478.709 667.234 478.709 664.929C478.709 662.625 479.133 660.6 479.98 658.853C480.838 657.107 482.062 655.748 483.654 654.777C485.245 653.795 487.157 653.304 489.389 653.304C491.621 653.304 493.533 653.795 495.124 654.777C496.726 655.748 497.95 657.107 498.798 658.853C499.655 660.6 500.084 662.625 500.084 664.929C500.084 667.234 499.655 669.259 498.798 671.006C497.95 672.752 496.726 674.116 495.124 675.098C493.533 676.069 491.621 676.555 489.389 676.555ZM489.389 673.036C490.887 673.047 492.132 672.716 493.124 672.044C494.127 671.373 494.876 670.427 495.372 669.208C495.878 667.988 496.132 666.562 496.132 664.929C496.132 663.297 495.878 661.881 495.372 660.682C494.876 659.473 494.127 658.533 493.124 657.861C492.132 657.19 490.887 656.843 489.389 656.823C487.89 656.812 486.645 657.143 485.653 657.815C484.661 658.486 483.912 659.432 483.406 660.651C482.91 661.871 482.662 663.297 482.662 664.929C482.662 666.562 482.91 667.983 483.406 669.192C483.902 670.391 484.646 671.326 485.638 671.998C486.64 672.669 487.89 673.016 489.389 673.036ZM512.16 676.555C510.382 676.555 508.817 676.193 507.463 675.47C506.12 674.746 505.066 673.729 504.301 672.416C503.547 671.104 503.17 669.564 503.17 667.797V653.8L506.952 653.769V667.704C506.952 668.541 507.091 669.29 507.37 669.952C507.66 670.613 508.047 671.176 508.533 671.641C509.018 672.096 509.576 672.442 510.207 672.68C510.837 672.917 511.488 673.036 512.16 673.036C512.852 673.036 513.508 672.917 514.128 672.68C514.759 672.432 515.317 672.08 515.802 671.626C516.288 671.161 516.67 670.597 516.949 669.936C517.228 669.275 517.368 668.531 517.368 667.704V653.769H521.15V667.797C521.15 669.564 520.768 671.104 520.003 672.416C519.249 673.729 518.195 674.746 516.841 675.47C515.498 676.193 513.937 676.555 512.16 676.555ZM525.482 676.09V653.769H534.705C534.922 653.769 535.201 653.779 535.542 653.8C535.883 653.81 536.198 653.841 536.487 653.893C537.779 654.089 538.843 654.518 539.68 655.18C540.528 655.841 541.153 656.678 541.556 657.691C541.969 658.693 542.176 659.809 542.176 661.039C542.176 662.858 541.716 664.423 540.796 665.736C539.877 667.038 538.466 667.844 536.565 668.154L534.968 668.293H529.217V676.09H525.482ZM538.301 676.09L533.899 667.007L537.696 666.17L542.532 676.09H538.301ZM529.217 664.805H534.55C534.756 664.805 534.989 664.795 535.247 664.774C535.505 664.754 535.743 664.712 535.96 664.65C536.58 664.495 537.066 664.222 537.417 663.829C537.779 663.436 538.032 662.992 538.177 662.496C538.332 662 538.409 661.514 538.409 661.039C538.409 660.564 538.332 660.078 538.177 659.582C538.032 659.075 537.779 658.626 537.417 658.233C537.066 657.841 536.58 657.567 535.96 657.412C535.743 657.35 535.505 657.314 535.247 657.303C534.989 657.283 534.756 657.272 534.55 657.272H529.217V664.805ZM196.032 719.555C194.4 719.555 192.927 719.271 191.615 718.702C190.313 718.134 189.238 717.323 188.391 716.269C187.554 715.204 187.021 713.944 186.794 712.487L190.669 711.898C191 713.22 191.677 714.243 192.7 714.967C193.733 715.69 194.921 716.052 196.265 716.052C197.061 716.052 197.81 715.928 198.512 715.68C199.215 715.432 199.783 715.07 200.217 714.595C200.662 714.119 200.884 713.535 200.884 712.843C200.884 712.533 200.832 712.249 200.729 711.991C200.626 711.722 200.471 711.484 200.264 711.278C200.068 711.071 199.809 710.885 199.489 710.72C199.179 710.544 198.817 710.394 198.404 710.27L192.638 708.565C192.142 708.42 191.604 708.229 191.026 707.991C190.457 707.743 189.915 707.408 189.398 706.984C188.892 706.55 188.473 706.002 188.143 705.341C187.822 704.669 187.662 703.843 187.662 702.861C187.662 701.424 188.024 700.221 188.747 699.249C189.481 698.267 190.462 697.534 191.692 697.048C192.932 696.562 194.307 696.325 195.815 696.335C197.345 696.345 198.709 696.609 199.907 697.126C201.106 697.632 202.109 698.371 202.915 699.342C203.721 700.314 204.289 701.486 204.62 702.861L200.605 703.558C200.44 702.773 200.119 702.106 199.644 701.559C199.179 701.001 198.605 700.577 197.923 700.288C197.252 699.998 196.534 699.843 195.769 699.823C195.025 699.812 194.332 699.926 193.692 700.164C193.061 700.391 192.55 700.722 192.157 701.156C191.775 701.59 191.584 702.096 191.584 702.675C191.584 703.222 191.749 703.672 192.08 704.023C192.41 704.364 192.819 704.638 193.304 704.845C193.8 705.041 194.301 705.207 194.808 705.341L198.807 706.457C199.355 706.602 199.969 706.798 200.651 707.046C201.334 707.294 201.99 707.64 202.62 708.084C203.25 708.529 203.767 709.113 204.17 709.836C204.583 710.559 204.79 711.479 204.79 712.595C204.79 713.753 204.547 714.77 204.062 715.649C203.586 716.517 202.94 717.24 202.124 717.819C201.308 718.397 200.372 718.832 199.318 719.121C198.275 719.41 197.179 719.555 196.032 719.555ZM217.136 719.555C215.358 719.555 213.793 719.193 212.439 718.47C211.096 717.746 210.041 716.729 209.277 715.416C208.522 714.104 208.145 712.564 208.145 710.797V696.8L211.927 696.769V710.704C211.927 711.541 212.067 712.29 212.346 712.952C212.635 713.613 213.023 714.176 213.508 714.641C213.994 715.096 214.552 715.442 215.182 715.68C215.813 715.917 216.464 716.036 217.136 716.036C217.828 716.036 218.484 715.917 219.104 715.68C219.734 715.432 220.292 715.08 220.778 714.626C221.264 714.161 221.646 713.597 221.925 712.936C222.204 712.275 222.344 711.531 222.344 710.704V696.769H226.126V710.797C226.126 712.564 225.743 714.104 224.979 715.416C224.224 716.729 223.17 717.746 221.817 718.47C220.473 719.193 218.913 719.555 217.136 719.555ZM230.458 719.09V696.769H233.821L241.54 712.58L249.26 696.769H252.623V719.09H249.136V704.783L242.284 719.09H240.796L233.961 704.783V719.09H230.458ZM256.978 719.09V696.769H260.342L268.061 712.58L275.78 696.769H279.144V719.09H275.656V704.783L268.805 719.09H267.317L260.481 704.783V719.09H256.978ZM283.498 719.09V696.769H297.914V700.272H287.234V705.775H296.054V709.278H287.234V715.587H297.914V719.09H283.498ZM301.633 719.09V696.769H310.855C311.072 696.769 311.351 696.779 311.693 696.8C312.034 696.81 312.349 696.841 312.638 696.893C313.93 697.089 314.994 697.518 315.831 698.18C316.678 698.841 317.304 699.678 317.707 700.691C318.12 701.693 318.327 702.809 318.327 704.039C318.327 705.858 317.867 707.423 316.947 708.736C316.027 710.038 314.617 710.844 312.716 711.154L311.119 711.293H305.368V719.09H301.633ZM314.452 719.09L310.049 710.007L313.847 709.17L318.683 719.09H314.452ZM305.368 707.805H310.7C310.907 707.805 311.14 707.795 311.398 707.774C311.656 707.754 311.894 707.712 312.111 707.65C312.731 707.495 313.217 707.222 313.568 706.829C313.93 706.436 314.183 705.992 314.328 705.496C314.483 705 314.56 704.514 314.56 704.039C314.56 703.564 314.483 703.078 314.328 702.582C314.183 702.075 313.93 701.626 313.568 701.233C313.217 700.841 312.731 700.567 312.111 700.412C311.894 700.35 311.656 700.314 311.398 700.303C311.14 700.283 310.907 700.272 310.7 700.272H305.368V707.805ZM333.327 719.09L326.289 696.769H330.133L336.024 715.463L341.991 696.769H345.836L338.798 719.09H333.327ZM344.435 719.09L351.472 696.769H356.944L363.981 719.09H360.137L353.75 699.063H354.587L348.279 719.09H344.435ZM348.356 714.254V710.766H360.075V714.254H348.356ZM375.618 719.555C373.385 719.555 371.474 719.069 369.882 718.098C368.291 717.116 367.066 715.752 366.209 714.006C365.361 712.259 364.938 710.234 364.938 707.929C364.938 705.625 365.361 703.6 366.209 701.853C367.066 700.107 368.291 698.748 369.882 697.777C371.474 696.795 373.385 696.304 375.618 696.304C378.191 696.304 380.335 696.95 382.05 698.242C383.766 699.523 384.97 701.254 385.662 703.434L381.895 704.473C381.461 703.016 380.722 701.879 379.679 701.063C378.635 700.236 377.281 699.823 375.618 699.823C374.119 699.823 372.869 700.159 371.866 700.83C370.874 701.502 370.125 702.447 369.619 703.667C369.123 704.876 368.87 706.297 368.859 707.929C368.859 709.562 369.107 710.988 369.603 712.208C370.11 713.417 370.864 714.357 371.866 715.029C372.869 715.7 374.119 716.036 375.618 716.036C377.281 716.036 378.635 715.623 379.679 714.796C380.722 713.97 381.461 712.833 381.895 711.386L385.662 712.425C384.97 714.605 383.766 716.341 382.05 717.633C380.335 718.914 378.191 719.555 375.618 719.555ZM386.91 719.09L393.947 696.769H399.419L406.456 719.09H402.612L396.225 699.063H397.063L390.754 719.09H386.91ZM390.831 714.254V710.766H402.55V714.254H390.831ZM412.775 719.09V700.272H405.551V696.769H423.734V700.272H416.51V719.09H412.775ZM426.522 719.09V696.769H430.258V719.09H426.522ZM444.341 719.555C442.108 719.555 440.197 719.069 438.605 718.098C437.014 717.116 435.789 715.752 434.932 714.006C434.084 712.259 433.661 710.234 433.661 707.929C433.661 705.625 434.084 703.6 434.932 701.853C435.789 700.107 437.014 698.748 438.605 697.777C440.197 696.795 442.108 696.304 444.341 696.304C446.573 696.304 448.484 696.795 450.076 697.777C451.677 698.748 452.902 700.107 453.749 701.853C454.607 703.6 455.036 705.625 455.036 707.929C455.036 710.234 454.607 712.259 453.749 714.006C452.902 715.752 451.677 717.116 450.076 718.098C448.484 719.069 446.573 719.555 444.341 719.555ZM444.341 716.036C445.839 716.047 447.084 715.716 448.076 715.044C449.078 714.373 449.828 713.427 450.324 712.208C450.83 710.988 451.083 709.562 451.083 707.929C451.083 706.297 450.83 704.881 450.324 703.682C449.828 702.473 449.078 701.533 448.076 700.861C447.084 700.19 445.839 699.843 444.341 699.823C442.842 699.812 441.597 700.143 440.605 700.815C439.613 701.486 438.864 702.432 438.357 703.651C437.861 704.871 437.613 706.297 437.613 707.929C437.613 709.562 437.861 710.983 438.357 712.192C438.853 713.391 439.597 714.326 440.589 714.998C441.592 715.669 442.842 716.016 444.341 716.036ZM458.121 719.09V696.769H461.903L472.258 712.502V696.769H476.04V719.09H472.258L461.903 703.357V719.09H458.121Z" fill="white"></path><circle cx="332.153" cy="496.016" r="66.4307" fill="white"></circle><path d="M320.155 510.759C317.444 510.759 315.123 510.169 313.191 508.989C311.258 507.797 309.771 506.141 308.73 504.02C307.701 501.9 307.186 499.44 307.186 496.642C307.186 493.844 307.701 491.385 308.73 489.264C309.771 487.143 311.258 485.493 313.191 484.314C315.123 483.122 317.444 482.526 320.155 482.526C322.865 482.526 325.187 483.122 327.119 484.314C329.064 485.493 330.551 487.143 331.58 489.264C332.621 491.385 333.142 493.844 333.142 496.642C333.142 499.44 332.621 501.9 331.58 504.02C330.551 506.141 329.064 507.797 327.119 508.989C325.187 510.169 322.865 510.759 320.155 510.759ZM320.155 506.486C321.974 506.499 323.486 506.097 324.691 505.282C325.908 504.466 326.818 503.318 327.42 501.837C328.035 500.356 328.342 498.625 328.342 496.642C328.342 494.66 328.035 492.941 327.42 491.485C326.818 490.017 325.908 488.875 324.691 488.059C323.486 487.244 321.974 486.823 320.155 486.798C318.335 486.786 316.823 487.187 315.619 488.003C314.414 488.819 313.504 489.967 312.889 491.447C312.287 492.928 311.986 494.66 311.986 496.642C311.986 498.625 312.287 500.35 312.889 501.818C313.492 503.274 314.395 504.409 315.6 505.225C316.817 506.041 318.335 506.461 320.155 506.486ZM336.888 510.194V483.09H348.088C348.351 483.09 348.69 483.103 349.104 483.128C349.518 483.141 349.901 483.178 350.252 483.241C351.821 483.479 353.113 484 354.129 484.803C355.158 485.606 355.918 486.623 356.407 487.852C356.909 489.069 357.16 490.425 357.16 491.918C357.16 494.126 356.601 496.027 355.485 497.621C354.368 499.202 352.655 500.181 350.346 500.557L348.408 500.727H341.425V510.194H336.888ZM352.454 510.194L347.109 499.164L351.72 498.148L357.593 510.194H352.454ZM341.425 496.492H347.899C348.15 496.492 348.433 496.479 348.746 496.454C349.06 496.429 349.349 496.379 349.612 496.303C350.365 496.115 350.955 495.783 351.381 495.306C351.821 494.829 352.128 494.289 352.304 493.687C352.492 493.085 352.586 492.495 352.586 491.918C352.586 491.341 352.492 490.751 352.304 490.149C352.128 489.534 351.821 488.988 351.381 488.511C350.955 488.034 350.365 487.702 349.612 487.514C349.349 487.438 349.06 487.394 348.746 487.382C348.433 487.357 348.15 487.344 347.899 487.344H341.425V496.492Z" fill="#3E1BC9"></path></svg> 