<?xml version="1.0" encoding="UTF-8"?> <svg xmlns="http://www.w3.org/2000/svg" width="665" height="859" viewBox="0 0 665 859" fill="none"><path d="M143.874 80.6087L135.95 53.505H140.712L146.114 73.0799L151.497 53.5426L156.259 53.505L161.661 73.0799L167.044 53.505H171.806L163.901 80.6087H159.421L153.869 61.3349L148.354 80.6087H143.874ZM185.605 81.1734C182.894 81.1734 180.573 80.5836 178.641 79.4041C176.708 78.212 175.221 76.5557 174.18 74.4351C173.151 72.3144 172.636 69.855 172.636 67.0568C172.636 64.2586 173.151 61.7992 174.18 59.6786C175.221 57.558 176.708 55.9079 178.641 54.7284C180.573 53.5363 182.894 52.9403 185.605 52.9403C188.315 52.9403 190.636 53.5363 192.569 54.7284C194.514 55.9079 196.001 57.558 197.03 59.6786C198.071 61.7992 198.592 64.2586 198.592 67.0568C198.592 69.855 198.071 72.3144 197.03 74.4351C196.001 76.5557 194.514 78.212 192.569 79.4041C190.636 80.5836 188.315 81.1734 185.605 81.1734ZM185.605 76.9008C187.424 76.9133 188.936 76.5118 190.141 75.6961C191.358 74.8805 192.268 73.7324 192.87 72.2517C193.485 70.771 193.792 69.0394 193.792 67.0568C193.792 65.0742 193.485 63.3552 192.87 61.8996C192.268 60.4315 191.358 59.2896 190.141 58.474C188.936 57.6584 187.424 57.238 185.605 57.2129C183.785 57.2003 182.273 57.6019 181.069 58.4175C179.864 59.2331 178.954 60.3813 178.339 61.8619C177.737 63.3426 177.436 65.0742 177.436 67.0568C177.436 69.0394 177.737 70.7648 178.339 72.2329C178.942 73.6885 179.845 74.8241 181.05 75.6397C182.267 76.4553 183.785 76.8757 185.605 76.9008ZM213.255 81.1734C211.097 81.1734 209.196 80.7342 207.552 79.8558C205.921 78.9775 204.641 77.7415 203.712 76.1479C202.796 74.5543 202.338 72.6846 202.338 70.5389V53.5426L206.931 53.505V70.426C206.931 71.4424 207.1 72.3521 207.439 73.1552C207.79 73.9582 208.261 74.6421 208.851 75.2068C209.441 75.7589 210.118 76.1792 210.884 76.4678C211.649 76.7565 212.44 76.9008 213.255 76.9008C214.096 76.9008 214.893 76.7565 215.646 76.4678C216.411 76.1667 217.089 75.7401 217.678 75.1879C218.268 74.6233 218.732 73.9394 219.071 73.1363C219.41 72.3333 219.579 71.4298 219.579 70.426V53.505H224.172V70.5389C224.172 72.6846 223.708 74.5543 222.779 76.1479C221.863 77.7415 220.583 78.9775 218.939 79.8558C217.308 80.7342 215.413 81.1734 213.255 81.1734ZM229.808 80.6087V53.505H234.344V76.3549H246.315V80.6087H229.808ZM249.504 80.6087V53.505H258.143C258.369 53.505 258.814 53.5112 259.479 53.5238C260.157 53.5363 260.81 53.5802 261.437 53.6555C263.583 53.9316 265.396 54.697 266.876 55.9518C268.37 57.1941 269.499 58.7814 270.264 60.7138C271.03 62.6462 271.413 64.7605 271.413 67.0568C271.413 69.3531 271.03 71.4675 270.264 73.3999C269.499 75.3322 268.37 76.9258 266.876 78.1807C265.396 79.4229 263.583 80.1821 261.437 80.4581C260.822 80.5334 260.176 80.5773 259.498 80.5899C258.821 80.6024 258.369 80.6087 258.143 80.6087H249.504ZM254.115 76.3361H258.143C258.519 76.3361 258.996 76.3235 259.574 76.2984C260.163 76.2734 260.684 76.2169 261.136 76.129C262.416 75.8906 263.457 75.3197 264.26 74.4162C265.063 73.5128 265.653 72.4148 266.029 71.1224C266.418 69.8299 266.613 68.4748 266.613 67.0568C266.613 65.5887 266.418 64.2084 266.029 62.916C265.641 61.6235 265.038 60.5381 264.223 59.6598C263.42 58.7814 262.391 58.223 261.136 57.9846C260.684 57.8842 260.163 57.8277 259.574 57.8152C258.996 57.7901 258.519 57.7776 258.143 57.7776H254.115V76.3361ZM289.986 80.6087V69.5037L280.763 53.505H286.052L292.282 64.3088L298.493 53.505H303.782L294.578 69.5037V80.6087H289.986ZM316.366 81.1734C313.656 81.1734 311.335 80.5836 309.402 79.4041C307.47 78.212 305.983 76.5557 304.941 74.4351C303.912 72.3144 303.398 69.855 303.398 67.0568C303.398 64.2586 303.912 61.7992 304.941 59.6786C305.983 57.558 307.47 55.9079 309.402 54.7284C311.335 53.5363 313.656 52.9403 316.366 52.9403C319.077 52.9403 321.398 53.5363 323.331 54.7284C325.275 55.9079 326.762 57.558 327.791 59.6786C328.833 61.7992 329.354 64.2586 329.354 67.0568C329.354 69.855 328.833 72.3144 327.791 74.4351C326.762 76.5557 325.275 78.212 323.331 79.4041C321.398 80.5836 319.077 81.1734 316.366 81.1734ZM316.366 76.9008C318.186 76.9133 319.698 76.5118 320.903 75.6961C322.12 74.8805 323.029 73.7324 323.632 72.2517C324.247 70.771 324.554 69.0394 324.554 67.0568C324.554 65.0742 324.247 63.3552 323.632 61.8996C323.029 60.4315 322.12 59.2896 320.903 58.474C319.698 57.6584 318.186 57.238 316.366 57.2129C314.547 57.2003 313.035 57.6019 311.83 58.4175C310.626 59.2331 309.716 60.3813 309.101 61.8619C308.499 63.3426 308.198 65.0742 308.198 67.0568C308.198 69.0394 308.499 70.7648 309.101 72.2329C309.703 73.6885 310.607 74.8241 311.811 75.6397C313.029 76.4553 314.547 76.8757 316.366 76.9008ZM344.017 81.1734C341.859 81.1734 339.958 80.7342 338.314 79.8558C336.683 78.9775 335.403 77.7415 334.474 76.1479C333.558 74.5543 333.1 72.6846 333.1 70.5389V53.5426L337.693 53.505V70.426C337.693 71.4424 337.862 72.3521 338.201 73.1552C338.552 73.9582 339.023 74.6421 339.612 75.2068C340.202 75.7589 340.88 76.1792 341.645 76.4678C342.411 76.7565 343.201 76.9008 344.017 76.9008C344.858 76.9008 345.654 76.7565 346.407 76.4678C347.173 76.1667 347.85 75.7401 348.44 75.1879C349.03 74.6233 349.494 73.9394 349.833 73.1363C350.172 72.3333 350.341 71.4298 350.341 70.426V53.505H354.934V70.5389C354.934 72.6846 354.469 74.5543 353.541 76.1479C352.625 77.7415 351.345 78.9775 349.701 79.8558C348.07 80.7342 346.175 81.1734 344.017 81.1734ZM367.73 80.6087V53.505H378.929C379.192 53.505 379.531 53.5175 379.945 53.5426C380.359 53.5551 380.742 53.5928 381.093 53.6555C382.662 53.8939 383.954 54.4147 384.971 55.2178C386 56.0208 386.759 57.0372 387.248 58.2669C387.75 59.4841 388.001 60.8393 388.001 62.3325C388.001 64.5409 387.443 66.442 386.326 68.0356C385.209 69.6166 383.496 70.5954 381.187 70.9718L379.249 71.1412H372.266V80.6087H367.73ZM383.296 80.6087L377.95 69.579L382.561 68.5626L388.434 80.6087H383.296ZM372.266 66.9062H378.741C378.992 66.9062 379.274 66.8937 379.588 66.8686C379.901 66.8435 380.19 66.7933 380.453 66.718C381.206 66.5298 381.796 66.1973 382.223 65.7205C382.662 65.2436 382.969 64.7041 383.145 64.1018C383.333 63.4995 383.427 62.9097 383.427 62.3325C383.427 61.7553 383.333 61.1655 383.145 60.5632C382.969 59.9484 382.662 59.4025 382.223 58.9257C381.796 58.4489 381.206 58.1164 380.453 57.9281C380.19 57.8528 379.901 57.8089 379.588 57.7964C379.274 57.7713 378.992 57.7587 378.741 57.7587H372.266V66.9062ZM390.698 80.6087L399.244 53.505H405.888L414.433 80.6087H409.765L402.011 56.2906H403.027L395.366 80.6087H390.698ZM395.46 74.7362V70.5013H409.69V74.7362H395.46ZM422.106 80.6087V57.7587H413.335V53.505H435.413V57.7587H426.642V80.6087H422.106ZM438.423 80.6087V53.505H442.959V64.9111H455.795V53.505H460.313V80.6087H455.795V69.1649H442.959V80.6087H438.423ZM465.59 80.6087V53.505H483.094V57.7587H470.126V64.4406H480.835V68.6943H470.126V76.3549H483.094V80.6087H465.59ZM487.61 80.6087V53.505H498.809C499.073 53.505 499.411 53.5175 499.825 53.5426C500.24 53.5551 500.622 53.5928 500.974 53.6555C502.542 53.8939 503.835 54.4147 504.851 55.2178C505.88 56.0208 506.639 57.0372 507.128 58.2669C507.63 59.4841 507.881 60.8393 507.881 62.3325C507.881 64.5409 507.323 66.442 506.206 68.0356C505.089 69.6166 503.377 70.5954 501.068 70.9718L499.129 71.1412H492.146V80.6087H487.61ZM503.176 80.6087L497.83 69.579L502.442 68.5626L508.314 80.6087H503.176ZM492.146 66.9062H498.621C498.872 66.9062 499.154 66.8937 499.468 66.8686C499.782 66.8435 500.07 66.7933 500.334 66.718C501.087 66.5298 501.676 66.1973 502.103 65.7205C502.542 65.2436 502.85 64.7041 503.025 64.1018C503.213 63.4995 503.308 62.9097 503.308 62.3325C503.308 61.7553 503.213 61.1655 503.025 60.5632C502.85 59.9484 502.542 59.4025 502.103 58.9257C501.676 58.4489 501.087 58.1164 500.334 57.9281C500.07 57.8528 499.782 57.8089 499.468 57.7964C499.154 57.7713 498.872 57.7587 498.621 57.7587H492.146V66.9062ZM517.373 73.2493C517.373 72.3835 517.455 71.549 517.618 70.7459C517.794 69.9303 518.076 69.1774 518.465 68.4873C518.804 67.8223 519.18 67.2952 519.594 66.9062C520.009 66.5047 520.473 66.1094 520.987 65.7205C521.502 65.3189 522.073 64.7856 522.7 64.1206C523.215 63.5559 523.553 62.9975 523.716 62.4454C523.88 61.8808 523.961 61.2785 523.961 60.6385C523.961 60.2244 523.917 59.8354 523.829 59.4715C523.742 59.1076 523.585 58.7939 523.359 58.5304C523.008 58.0662 522.556 57.7399 522.004 57.5517C521.452 57.3509 520.862 57.2505 520.234 57.2505C519.72 57.2505 519.224 57.3196 518.747 57.4576C518.283 57.5831 517.888 57.7838 517.562 58.0599C517.185 58.361 516.909 58.7312 516.733 59.1704C516.558 59.6096 516.476 60.0927 516.489 60.6197H511.708C511.833 59.3649 512.172 58.2042 512.724 57.1376C513.289 56.0585 514.029 55.1989 514.945 54.559C515.661 54.032 516.464 53.6367 517.355 53.3732C518.258 53.1097 519.162 52.9779 520.065 52.9779C521.445 52.9779 522.744 53.1913 523.961 53.6179C525.191 54.0445 526.214 54.7472 527.029 55.726C527.594 56.3659 528.02 57.1062 528.309 57.947C528.61 58.7877 528.761 59.6409 528.761 60.5068C528.761 61.7992 528.478 62.9787 527.914 64.0453C527.362 65.1119 526.659 66.0969 525.806 67.0004C525.404 67.427 525.021 67.8034 524.658 68.1297C524.294 68.4559 523.955 68.7759 523.641 69.0896C523.34 69.3908 523.089 69.7107 522.888 70.0495C522.537 70.6393 522.33 71.1412 522.267 71.5553C522.204 71.9568 522.173 72.5215 522.173 73.2493H517.373ZM517.411 80.6087V75.6209H522.173V80.6087H517.411Z" fill="#3E1BC9"></path><rect x="12" y="133" width="640" height="320" rx="22.1436" fill="#3E1BC9"></rect><path d="M152.85 304.604C151.403 304.604 150.045 304.35 148.774 303.844C147.513 303.327 146.402 302.573 145.441 301.581C144.49 300.589 143.746 299.375 143.209 297.938C142.672 296.492 142.403 294.838 142.403 292.978C142.403 290.539 142.858 288.457 143.767 286.731C144.676 284.995 145.921 283.668 147.503 282.748C149.084 281.818 150.866 281.353 152.85 281.353C155.599 281.353 157.774 281.993 159.376 283.275C160.988 284.546 162.078 286.334 162.647 288.638L158.833 289.243C158.41 287.92 157.717 286.866 156.756 286.08C155.795 285.285 154.571 284.887 153.083 284.887C151.584 284.866 150.339 285.192 149.347 285.863C148.355 286.535 147.606 287.481 147.1 288.7C146.603 289.919 146.355 291.345 146.355 292.978C146.355 294.611 146.603 296.032 147.1 297.241C147.596 298.439 148.34 299.375 149.332 300.046C150.334 300.718 151.584 301.064 153.083 301.085C154.209 301.095 155.196 300.894 156.043 300.48C156.891 300.057 157.583 299.421 158.12 298.574C158.658 297.716 159.019 296.647 159.205 295.365H155.268V292.436H163.174C163.194 292.601 163.21 292.844 163.22 293.164C163.23 293.485 163.236 293.676 163.236 293.738C163.236 295.846 162.817 297.721 161.98 299.364C161.153 300.997 159.965 302.278 158.415 303.208C156.865 304.139 155.01 304.604 152.85 304.604ZM175.789 304.604C173.556 304.604 171.645 304.118 170.053 303.146C168.462 302.165 167.237 300.801 166.38 299.054C165.532 297.308 165.109 295.283 165.109 292.978C165.109 290.674 165.532 288.648 166.38 286.902C167.237 285.156 168.462 283.797 170.053 282.825C171.645 281.844 173.556 281.353 175.789 281.353C178.021 281.353 179.932 281.844 181.524 282.825C183.125 283.797 184.35 285.156 185.197 286.902C186.055 288.648 186.484 290.674 186.484 292.978C186.484 295.283 186.055 297.308 185.197 299.054C184.35 300.801 183.125 302.165 181.524 303.146C179.932 304.118 178.021 304.604 175.789 304.604ZM175.789 301.085C177.287 301.095 178.532 300.765 179.524 300.093C180.527 299.421 181.276 298.476 181.772 297.256C182.278 296.037 182.531 294.611 182.531 292.978C182.531 291.345 182.278 289.93 181.772 288.731C181.276 287.522 180.527 286.582 179.524 285.91C178.532 285.238 177.287 284.892 175.789 284.871C174.29 284.861 173.045 285.192 172.053 285.863C171.061 286.535 170.312 287.481 169.805 288.7C169.309 289.919 169.061 291.345 169.061 292.978C169.061 294.611 169.309 296.032 169.805 297.241C170.301 298.439 171.045 299.375 172.037 300.046C173.04 300.718 174.29 301.064 175.789 301.085ZM205.215 304.604C202.983 304.604 201.071 304.118 199.48 303.146C197.889 302.165 196.664 300.801 195.806 299.054C194.959 297.308 194.535 295.283 194.535 292.978C194.535 290.674 194.959 288.648 195.806 286.902C196.664 285.156 197.889 283.797 199.48 282.825C201.071 281.844 202.983 281.353 205.215 281.353C207.788 281.353 209.933 281.999 211.648 283.29C213.363 284.572 214.567 286.303 215.26 288.483L211.493 289.522C211.059 288.064 210.32 286.928 209.276 286.111C208.233 285.285 206.879 284.871 205.215 284.871C203.717 284.871 202.467 285.207 201.464 285.879C200.472 286.551 199.723 287.496 199.217 288.716C198.721 289.925 198.467 291.345 198.457 292.978C198.457 294.611 198.705 296.037 199.201 297.256C199.707 298.465 200.462 299.406 201.464 300.077C202.467 300.749 203.717 301.085 205.215 301.085C206.879 301.085 208.233 300.672 209.276 299.845C210.32 299.018 211.059 297.881 211.493 296.435L215.26 297.473C214.567 299.654 213.363 301.39 211.648 302.681C209.933 303.963 207.788 304.604 205.215 304.604ZM216.507 304.139L223.545 281.818H229.016L236.054 304.139H232.209L225.823 284.112H226.66L220.352 304.139H216.507ZM220.429 299.302V295.815H232.147V299.302H220.429ZM238.856 304.139V281.818H242.22L249.939 297.628L257.658 281.818H261.022V304.139H257.534V289.832L250.683 304.139H249.195L242.359 289.832V304.139H238.856ZM265.376 304.139V281.818H274.599C274.816 281.818 275.095 281.828 275.436 281.849C275.777 281.859 276.092 281.89 276.382 281.942C277.673 282.138 278.738 282.567 279.575 283.228C280.422 283.89 281.047 284.727 281.45 285.739C281.864 286.742 282.07 287.858 282.07 289.088C282.07 290.307 281.864 291.423 281.45 292.436C281.037 293.438 280.407 294.27 279.559 294.931C278.722 295.593 277.663 296.021 276.382 296.218C276.092 296.259 275.772 296.29 275.421 296.311C275.08 296.331 274.806 296.342 274.599 296.342H269.112V304.139H265.376ZM269.112 292.854H274.444C274.651 292.854 274.883 292.844 275.142 292.823C275.4 292.802 275.638 292.761 275.855 292.699C276.475 292.544 276.96 292.27 277.312 291.878C277.673 291.485 277.927 291.041 278.071 290.545C278.226 290.049 278.304 289.563 278.304 289.088C278.304 288.612 278.226 288.126 278.071 287.63C277.927 287.124 277.673 286.675 277.312 286.282C276.96 285.889 276.475 285.615 275.855 285.46C275.638 285.398 275.4 285.362 275.142 285.352C274.883 285.331 274.651 285.321 274.444 285.321H269.112V292.854ZM285.486 304.139V281.818H289.221V304.139H285.486ZM293.865 304.139V281.818H297.647L308.001 297.551V281.818H311.783V304.139H308.001L297.647 288.406V304.139H293.865ZM325.324 304.604C323.877 304.604 322.518 304.35 321.247 303.844C319.986 303.327 318.875 302.573 317.914 301.581C316.964 300.589 316.22 299.375 315.682 297.938C315.145 296.492 314.876 294.838 314.876 292.978C314.876 290.539 315.331 288.457 316.24 286.731C317.15 284.995 318.395 283.668 319.976 282.748C321.557 281.818 323.34 281.353 325.324 281.353C328.072 281.353 330.248 281.993 331.849 283.275C333.461 284.546 334.552 286.334 335.12 288.638L331.307 289.243C330.883 287.92 330.191 286.866 329.23 286.08C328.269 285.285 327.044 284.887 325.556 284.887C324.058 284.866 322.813 285.192 321.82 285.863C320.828 286.535 320.079 287.481 319.573 288.7C319.077 289.919 318.829 291.345 318.829 292.978C318.829 294.611 319.077 296.032 319.573 297.241C320.069 298.439 320.813 299.375 321.805 300.046C322.807 300.718 324.058 301.064 325.556 301.085C326.682 301.095 327.669 300.894 328.517 300.48C329.364 300.057 330.056 299.421 330.594 298.574C331.131 297.716 331.493 296.647 331.679 295.365H327.742V292.436H335.647C335.668 292.601 335.683 292.844 335.693 293.164C335.704 293.485 335.709 293.676 335.709 293.738C335.709 295.846 335.29 297.721 334.453 299.364C333.627 300.997 332.438 302.278 330.888 303.208C329.338 304.139 327.483 304.604 325.324 304.604ZM345.338 304.139V281.818H349.074V304.139H345.338ZM353.717 304.139V281.818H357.499L367.854 297.551V281.818H371.636V304.139H367.854L357.499 288.406V304.139H353.717ZM387.538 304.139V285.321H380.315V281.818H398.497V285.321H391.274V304.139H387.538ZM400.975 304.139V281.818H404.711V291.211H415.282V281.818H419.003V304.139H415.282V294.714H404.711V304.139H400.975ZM423.348 304.139V281.818H437.764V285.321H427.084V290.824H435.904V294.327H427.084V300.635H437.764V304.139H423.348ZM452.401 304.139L445.875 281.818H449.797L454.246 297.938L458.679 281.849L462.6 281.818L467.049 297.938L471.482 281.818H475.404L468.894 304.139H465.205L460.632 288.266L456.09 304.139H452.401ZM478.243 304.139V281.818H481.979V304.139H478.243ZM486.932 304.139V281.818H490.667V300.635H500.526V304.139H486.932ZM503.152 304.139V281.818H510.266C510.452 281.818 510.819 281.823 511.367 281.833C511.925 281.844 512.462 281.88 512.979 281.942C514.746 282.169 516.239 282.799 517.459 283.833C518.688 284.856 519.618 286.163 520.249 287.754C520.879 289.346 521.194 291.087 521.194 292.978C521.194 294.869 520.879 296.61 520.249 298.202C519.618 299.793 518.688 301.106 517.459 302.139C516.239 303.162 514.746 303.787 512.979 304.015C512.473 304.077 511.94 304.113 511.382 304.123C510.824 304.133 510.452 304.139 510.266 304.139H503.152ZM506.949 300.62H510.266C510.576 300.62 510.969 300.61 511.444 300.589C511.93 300.568 512.359 300.522 512.731 300.449C513.785 300.253 514.643 299.783 515.304 299.039C515.965 298.295 516.451 297.391 516.761 296.326C517.081 295.262 517.242 294.146 517.242 292.978C517.242 291.769 517.081 290.632 516.761 289.568C516.441 288.504 515.945 287.61 515.273 286.886C514.612 286.163 513.764 285.703 512.731 285.507C512.359 285.424 511.93 285.378 511.444 285.367C510.969 285.347 510.576 285.336 510.266 285.336H506.949V300.62Z" fill="white"></path><rect x="12" y="526" width="640" height="320" rx="22.1436" fill="#97CD2C"></rect><path d="M168.144 698.505C166.511 698.505 165.038 698.221 163.726 697.653C162.424 697.084 161.349 696.273 160.502 695.219C159.665 694.155 159.133 692.894 158.905 691.437L162.78 690.848C163.111 692.171 163.788 693.194 164.811 693.917C165.844 694.641 167.033 695.002 168.376 695.002C169.172 695.002 169.921 694.878 170.624 694.63C171.326 694.382 171.895 694.02 172.329 693.545C172.773 693.07 172.995 692.486 172.995 691.794C172.995 691.484 172.944 691.199 172.84 690.941C172.737 690.672 172.582 690.435 172.375 690.228C172.179 690.021 171.92 689.835 171.6 689.67C171.29 689.494 170.928 689.344 170.515 689.22L164.749 687.515C164.253 687.371 163.716 687.18 163.137 686.942C162.569 686.694 162.026 686.358 161.509 685.934C161.003 685.5 160.584 684.953 160.254 684.291C159.933 683.62 159.773 682.793 159.773 681.811C159.773 680.375 160.135 679.171 160.858 678.2C161.592 677.218 162.574 676.484 163.803 675.999C165.043 675.513 166.418 675.275 167.927 675.286C169.456 675.296 170.82 675.559 172.019 676.076C173.217 676.582 174.22 677.321 175.026 678.293C175.832 679.264 176.4 680.437 176.731 681.811L172.716 682.509C172.551 681.723 172.23 681.057 171.755 680.509C171.29 679.951 170.717 679.528 170.035 679.238C169.363 678.949 168.645 678.794 167.88 678.773C167.136 678.763 166.444 678.876 165.803 679.114C165.173 679.342 164.661 679.672 164.268 680.106C163.886 680.54 163.695 681.047 163.695 681.625C163.695 682.173 163.86 682.622 164.191 682.974C164.522 683.315 164.93 683.589 165.415 683.795C165.911 683.992 166.413 684.157 166.919 684.291L170.918 685.407C171.466 685.552 172.081 685.748 172.763 685.996C173.445 686.244 174.101 686.591 174.731 687.035C175.362 687.479 175.878 688.063 176.281 688.786C176.695 689.51 176.901 690.43 176.901 691.546C176.901 692.703 176.658 693.721 176.173 694.599C175.697 695.467 175.052 696.191 174.235 696.769C173.419 697.348 172.484 697.782 171.43 698.071C170.386 698.361 169.291 698.505 168.144 698.505ZM185.62 698.04V679.223H178.396V675.72H196.578V679.223H189.355V698.04H185.62ZM196.901 698.04L203.939 675.72H209.41L216.447 698.04H212.603L206.217 678.014H207.054L200.745 698.04H196.901ZM200.823 693.204V689.717H212.541V693.204H200.823ZM222.828 698.04V688.895L215.233 675.72H219.589L224.719 684.617L229.835 675.72H234.19L226.61 688.895V698.04H222.828ZM241.63 698.04V675.72H245.366V698.04H241.63ZM250.009 698.04V675.72H253.791L264.145 691.453V675.72H267.927V698.04H264.145L253.791 682.307V698.04H250.009ZM276.917 698.04L283.954 675.72H289.426L296.463 698.04H292.619L286.232 678.014H287.069L280.761 698.04H276.917ZM280.838 693.204V689.717H292.557V693.204H280.838ZM305.471 698.04V675.72H318.91V679.455H309.207V685.02H317.05V688.74H309.207V698.04H305.471ZM319.846 698.04L326.883 675.72H332.355L339.392 698.04H335.548L329.162 678.014H329.999L323.69 698.04H319.846ZM323.767 693.204V689.717H335.486V693.204H323.767ZM342.194 698.04V675.72H345.976L356.331 691.453V675.72H360.113V698.04H356.331L345.976 682.307V698.04H342.194ZM373.886 698.505C371.654 698.505 369.742 698.02 368.151 697.048C366.559 696.067 365.335 694.703 364.477 692.956C363.63 691.21 363.206 689.184 363.206 686.88C363.206 684.576 363.63 682.55 364.477 680.804C365.335 679.057 366.559 677.698 368.151 676.727C369.742 675.745 371.654 675.255 373.886 675.255C376.459 675.255 378.603 675.9 380.319 677.192C382.034 678.473 383.238 680.204 383.93 682.385L380.164 683.423C379.73 681.966 378.991 680.83 377.947 680.013C376.903 679.187 375.55 678.773 373.886 678.773C372.387 678.773 371.137 679.109 370.135 679.781C369.143 680.452 368.394 681.398 367.887 682.617C367.391 683.826 367.138 685.247 367.128 686.88C367.128 688.513 367.376 689.939 367.872 691.158C368.378 692.367 369.132 693.307 370.135 693.979C371.137 694.651 372.387 694.987 373.886 694.987C375.55 694.987 376.903 694.573 377.947 693.747C378.991 692.92 379.73 691.783 380.164 690.337L383.93 691.375C383.238 693.555 382.034 695.292 380.319 696.583C378.603 697.865 376.459 698.505 373.886 698.505ZM391.82 698.04V688.895L384.225 675.72H388.581L393.711 684.617L398.826 675.72H403.182L395.602 688.895V698.04H391.82ZM410.312 698.04V675.72H414.047V685.113H424.619V675.72H428.339V698.04H424.619V688.616H414.047V698.04H410.312ZM442.124 698.505C439.892 698.505 437.981 698.02 436.389 697.048C434.798 696.067 433.573 694.703 432.716 692.956C431.868 691.21 431.445 689.184 431.445 686.88C431.445 684.576 431.868 682.55 432.716 680.804C433.573 679.057 434.798 677.698 436.389 676.727C437.981 675.745 439.892 675.255 442.124 675.255C444.356 675.255 446.268 675.745 447.86 676.727C449.461 677.698 450.686 679.057 451.533 680.804C452.391 682.55 452.82 684.576 452.82 686.88C452.82 689.184 452.391 691.21 451.533 692.956C450.686 694.703 449.461 696.067 447.86 697.048C446.268 698.02 444.356 698.505 442.124 698.505ZM442.124 694.987C443.623 694.997 444.868 694.666 445.86 693.995C446.862 693.323 447.612 692.377 448.108 691.158C448.614 689.939 448.867 688.513 448.867 686.88C448.867 685.247 448.614 683.831 448.108 682.633C447.612 681.424 446.862 680.483 445.86 679.812C444.868 679.14 443.623 678.794 442.124 678.773C440.626 678.763 439.381 679.093 438.389 679.765C437.397 680.437 436.648 681.382 436.141 682.602C435.645 683.821 435.397 685.247 435.397 686.88C435.397 688.513 435.645 689.934 436.141 691.143C436.637 692.341 437.381 693.276 438.373 693.948C439.376 694.62 440.626 694.966 442.124 694.987ZM460.663 698.04V679.223H453.44V675.72H471.622V679.223H464.398V698.04H460.663ZM474.1 698.04V675.72H488.515V679.223H477.836V684.725H486.655V688.228H477.836V694.537H488.515V698.04H474.1ZM492.544 698.04V675.72H496.28V694.537H506.138V698.04H492.544Z" fill="white"></path><circle cx="332.153" cy="496.016" r="66.4307" fill="white"></circle><path d="M320.155 510.759C317.444 510.759 315.123 510.169 313.191 508.99C311.258 507.797 309.771 506.141 308.73 504.02C307.701 501.9 307.186 499.44 307.186 496.642C307.186 493.844 307.701 491.385 308.73 489.264C309.771 487.143 311.258 485.493 313.191 484.314C315.123 483.122 317.444 482.526 320.155 482.526C322.865 482.526 325.187 483.122 327.119 484.314C329.064 485.493 330.551 487.143 331.58 489.264C332.621 491.385 333.142 493.844 333.142 496.642C333.142 499.44 332.621 501.9 331.58 504.02C330.551 506.141 329.064 507.797 327.119 508.99C325.187 510.169 322.865 510.759 320.155 510.759ZM320.155 506.486C321.974 506.499 323.486 506.097 324.691 505.282C325.908 504.466 326.818 503.318 327.42 501.837C328.035 500.356 328.342 498.625 328.342 496.642C328.342 494.66 328.035 492.941 327.42 491.485C326.818 490.017 325.908 488.875 324.691 488.059C323.486 487.244 321.974 486.823 320.155 486.798C318.335 486.786 316.823 487.187 315.619 488.003C314.414 488.819 313.504 489.967 312.889 491.447C312.287 492.928 311.986 494.66 311.986 496.642C311.986 498.625 312.287 500.35 312.889 501.818C313.492 503.274 314.395 504.409 315.6 505.225C316.817 506.041 318.335 506.461 320.155 506.486ZM336.888 510.194V483.09H348.088C348.351 483.09 348.69 483.103 349.104 483.128C349.518 483.141 349.901 483.178 350.252 483.241C351.821 483.479 353.113 484 354.129 484.803C355.158 485.606 355.918 486.623 356.407 487.852C356.909 489.07 357.16 490.425 357.16 491.918C357.16 494.126 356.601 496.027 355.485 497.621C354.368 499.202 352.655 500.181 350.346 500.557L348.408 500.727H341.425V510.194H336.888ZM352.454 510.194L347.109 499.164L351.72 498.148L357.593 510.194H352.454ZM341.425 496.492H347.899C348.15 496.492 348.433 496.479 348.746 496.454C349.06 496.429 349.349 496.379 349.612 496.303C350.365 496.115 350.955 495.783 351.381 495.306C351.821 494.829 352.128 494.289 352.304 493.687C352.492 493.085 352.586 492.495 352.586 491.918C352.586 491.341 352.492 490.751 352.304 490.149C352.128 489.534 351.821 488.988 351.381 488.511C350.955 488.034 350.365 487.702 349.612 487.514C349.349 487.438 349.06 487.394 348.746 487.382C348.433 487.357 348.15 487.344 347.899 487.344H341.425V496.492Z" fill="#3E1BC9"></path></svg> 