<?xml version="1.0" encoding="UTF-8"?> <svg xmlns="http://www.w3.org/2000/svg" width="665" height="859" viewBox="0 0 665 859" fill="none"><path d="M143.874 80.6087L135.95 53.505H140.712L146.114 73.0799L151.497 53.5426L156.259 53.505L161.661 73.0799L167.044 53.505H171.806L163.901 80.6087H159.421L153.869 61.3349L148.354 80.6087H143.874ZM185.605 81.1734C182.894 81.1734 180.573 80.5836 178.641 79.4041C176.708 78.212 175.221 76.5557 174.18 74.4351C173.151 72.3145 172.636 69.855 172.636 67.0568C172.636 64.2586 173.151 61.7992 174.18 59.6786C175.221 57.558 176.708 55.9079 178.641 54.7284C180.573 53.5363 182.894 52.9403 185.605 52.9403C188.315 52.9403 190.636 53.5363 192.569 54.7284C194.514 55.9079 196.001 57.558 197.03 59.6786C198.071 61.7992 198.592 64.2586 198.592 67.0568C198.592 69.855 198.071 72.3145 197.03 74.4351C196.001 76.5557 194.514 78.212 192.569 79.4041C190.636 80.5836 188.315 81.1734 185.605 81.1734ZM185.605 76.9008C187.424 76.9133 188.936 76.5118 190.141 75.6962C191.358 74.8805 192.268 73.7324 192.87 72.2517C193.485 70.771 193.792 69.0394 193.792 67.0568C193.792 65.0742 193.485 63.3552 192.87 61.8996C192.268 60.4315 191.358 59.2896 190.141 58.474C188.936 57.6584 187.424 57.238 185.605 57.2129C183.785 57.2004 182.273 57.6019 181.069 58.4175C179.864 59.2331 178.954 60.3813 178.339 61.8619C177.737 63.3426 177.436 65.0742 177.436 67.0568C177.436 69.0394 177.737 70.7648 178.339 72.2329C178.942 73.6885 179.845 74.8241 181.05 75.6397C182.267 76.4553 183.785 76.8757 185.605 76.9008ZM213.255 81.1734C211.097 81.1734 209.196 80.7342 207.552 79.8558C205.921 78.9775 204.641 77.7415 203.712 76.1479C202.796 74.5543 202.338 72.6846 202.338 70.5389V53.5426L206.931 53.505V70.426C206.931 71.4424 207.1 72.3521 207.439 73.1552C207.79 73.9582 208.261 74.6421 208.851 75.2068C209.441 75.7589 210.118 76.1792 210.884 76.4679C211.649 76.7565 212.44 76.9008 213.255 76.9008C214.096 76.9008 214.893 76.7565 215.646 76.4679C216.411 76.1667 217.089 75.7401 217.678 75.188C218.268 74.6233 218.732 73.9394 219.071 73.1364C219.41 72.3333 219.579 71.4298 219.579 70.426V53.505H224.172V70.5389C224.172 72.6846 223.708 74.5543 222.779 76.1479C221.863 77.7415 220.583 78.9775 218.939 79.8558C217.308 80.7342 215.413 81.1734 213.255 81.1734ZM229.808 80.6087V53.505H234.344V76.3549H246.315V80.6087H229.808ZM249.504 80.6087V53.505H258.143C258.369 53.505 258.814 53.5112 259.479 53.5238C260.157 53.5363 260.81 53.5802 261.437 53.6555C263.583 53.9316 265.396 54.697 266.876 55.9518C268.37 57.1941 269.499 58.7814 270.264 60.7138C271.03 62.6462 271.413 64.7605 271.413 67.0568C271.413 69.3531 271.03 71.4675 270.264 73.3999C269.499 75.3323 268.37 76.9259 266.876 78.1807C265.396 79.4229 263.583 80.1821 261.437 80.4581C260.822 80.5334 260.176 80.5773 259.498 80.5899C258.821 80.6024 258.369 80.6087 258.143 80.6087H249.504ZM254.115 76.3361H258.143C258.519 76.3361 258.996 76.3236 259.574 76.2985C260.163 76.2734 260.684 76.2169 261.136 76.1291C262.416 75.8906 263.457 75.3197 264.26 74.4163C265.063 73.5128 265.653 72.4148 266.029 71.1224C266.418 69.8299 266.613 68.4748 266.613 67.0568C266.613 65.5887 266.418 64.2084 266.029 62.916C265.641 61.6235 265.038 60.5381 264.223 59.6598C263.42 58.7814 262.391 58.223 261.136 57.9846C260.684 57.8842 260.163 57.8278 259.574 57.8152C258.996 57.7901 258.519 57.7776 258.143 57.7776H254.115V76.3361ZM289.986 80.6087V69.5037L280.763 53.505H286.052L292.282 64.3088L298.493 53.505H303.782L294.578 69.5037V80.6087H289.986ZM316.366 81.1734C313.656 81.1734 311.335 80.5836 309.402 79.4041C307.47 78.212 305.983 76.5557 304.941 74.4351C303.912 72.3145 303.398 69.855 303.398 67.0568C303.398 64.2586 303.912 61.7992 304.941 59.6786C305.983 57.558 307.47 55.9079 309.402 54.7284C311.335 53.5363 313.656 52.9403 316.366 52.9403C319.077 52.9403 321.398 53.5363 323.331 54.7284C325.275 55.9079 326.762 57.558 327.791 59.6786C328.833 61.7992 329.354 64.2586 329.354 67.0568C329.354 69.855 328.833 72.3145 327.791 74.4351C326.762 76.5557 325.275 78.212 323.331 79.4041C321.398 80.5836 319.077 81.1734 316.366 81.1734ZM316.366 76.9008C318.186 76.9133 319.698 76.5118 320.903 75.6962C322.12 74.8805 323.029 73.7324 323.632 72.2517C324.247 70.771 324.554 69.0394 324.554 67.0568C324.554 65.0742 324.247 63.3552 323.632 61.8996C323.029 60.4315 322.12 59.2896 320.903 58.474C319.698 57.6584 318.186 57.238 316.366 57.2129C314.547 57.2004 313.035 57.6019 311.83 58.4175C310.626 59.2331 309.716 60.3813 309.101 61.8619C308.499 63.3426 308.198 65.0742 308.198 67.0568C308.198 69.0394 308.499 70.7648 309.101 72.2329C309.703 73.6885 310.607 74.8241 311.811 75.6397C313.029 76.4553 314.547 76.8757 316.366 76.9008ZM344.017 81.1734C341.859 81.1734 339.958 80.7342 338.314 79.8558C336.683 78.9775 335.403 77.7415 334.474 76.1479C333.558 74.5543 333.1 72.6846 333.1 70.5389V53.5426L337.693 53.505V70.426C337.693 71.4424 337.862 72.3521 338.201 73.1552C338.552 73.9582 339.023 74.6421 339.612 75.2068C340.202 75.7589 340.88 76.1792 341.645 76.4679C342.411 76.7565 343.201 76.9008 344.017 76.9008C344.858 76.9008 345.654 76.7565 346.407 76.4679C347.173 76.1667 347.85 75.7401 348.44 75.188C349.03 74.6233 349.494 73.9394 349.833 73.1364C350.172 72.3333 350.341 71.4298 350.341 70.426V53.505H354.934V70.5389C354.934 72.6846 354.469 74.5543 353.541 76.1479C352.625 77.7415 351.345 78.9775 349.701 79.8558C348.07 80.7342 346.175 81.1734 344.017 81.1734ZM367.73 80.6087V53.505H378.929C379.192 53.505 379.531 53.5175 379.945 53.5426C380.359 53.5552 380.742 53.5928 381.093 53.6555C382.662 53.8939 383.954 54.4147 384.971 55.2178C386 56.0208 386.759 57.0372 387.248 58.2669C387.75 59.4841 388.001 60.8393 388.001 62.3325C388.001 64.541 387.443 66.442 386.326 68.0356C385.209 69.6166 383.496 70.5954 381.187 70.9718L379.249 71.1412H372.266V80.6087H367.73ZM383.296 80.6087L377.95 69.579L382.561 68.5626L388.434 80.6087H383.296ZM372.266 66.9063H378.741C378.992 66.9063 379.274 66.8937 379.588 66.8686C379.901 66.8435 380.19 66.7933 380.453 66.718C381.206 66.5298 381.796 66.1973 382.223 65.7205C382.662 65.2436 382.969 64.7041 383.145 64.1018C383.333 63.4995 383.427 62.9097 383.427 62.3325C383.427 61.7553 383.333 61.1655 383.145 60.5632C382.969 59.9484 382.662 59.4025 382.223 58.9257C381.796 58.4489 381.206 58.1164 380.453 57.9281C380.19 57.8529 379.901 57.8089 379.588 57.7964C379.274 57.7713 378.992 57.7587 378.741 57.7587H372.266V66.9063ZM390.698 80.6087L399.244 53.505H405.888L414.433 80.6087H409.765L402.011 56.2906H403.027L395.366 80.6087H390.698ZM395.46 74.7362V70.5013H409.69V74.7362H395.46ZM422.106 80.6087V57.7587H413.335V53.505H435.413V57.7587H426.642V80.6087H422.106ZM438.423 80.6087V53.505H442.959V64.9111H455.795V53.505H460.313V80.6087H455.795V69.1649H442.959V80.6087H438.423ZM465.59 80.6087V53.505H483.094V57.7587H470.126V64.4406H480.835V68.6944H470.126V76.3549H483.094V80.6087H465.59ZM487.61 80.6087V53.505H498.809C499.073 53.505 499.411 53.5175 499.825 53.5426C500.24 53.5552 500.622 53.5928 500.974 53.6555C502.542 53.8939 503.835 54.4147 504.851 55.2178C505.88 56.0208 506.639 57.0372 507.128 58.2669C507.63 59.4841 507.881 60.8393 507.881 62.3325C507.881 64.541 507.323 66.442 506.206 68.0356C505.089 69.6166 503.377 70.5954 501.068 70.9718L499.129 71.1412H492.146V80.6087H487.61ZM503.176 80.6087L497.83 69.579L502.442 68.5626L508.314 80.6087H503.176ZM492.146 66.9063H498.621C498.872 66.9063 499.154 66.8937 499.468 66.8686C499.782 66.8435 500.07 66.7933 500.334 66.718C501.087 66.5298 501.676 66.1973 502.103 65.7205C502.542 65.2436 502.85 64.7041 503.025 64.1018C503.213 63.4995 503.308 62.9097 503.308 62.3325C503.308 61.7553 503.213 61.1655 503.025 60.5632C502.85 59.9484 502.542 59.4025 502.103 58.9257C501.676 58.4489 501.087 58.1164 500.334 57.9281C500.07 57.8529 499.782 57.8089 499.468 57.7964C499.154 57.7713 498.872 57.7587 498.621 57.7587H492.146V66.9063ZM517.373 73.2493C517.373 72.3835 517.455 71.549 517.618 70.746C517.794 69.9303 518.076 69.1774 518.465 68.4873C518.804 67.8223 519.18 67.2952 519.594 66.9063C520.009 66.5047 520.473 66.1095 520.987 65.7205C521.502 65.3189 522.073 64.7856 522.7 64.1206C523.215 63.5559 523.553 62.9975 523.716 62.4454C523.88 61.8808 523.961 61.2785 523.961 60.6385C523.961 60.2244 523.917 59.8354 523.829 59.4715C523.742 59.1077 523.585 58.794 523.359 58.5304C523.008 58.0662 522.556 57.7399 522.004 57.5517C521.452 57.3509 520.862 57.2505 520.234 57.2505C519.72 57.2505 519.224 57.3196 518.747 57.4576C518.283 57.5831 517.888 57.7838 517.562 58.0599C517.185 58.361 516.909 58.7312 516.733 59.1704C516.558 59.6096 516.476 60.0927 516.489 60.6197H511.708C511.833 59.3649 512.172 58.2042 512.724 57.1376C513.289 56.0585 514.029 55.1989 514.945 54.559C515.661 54.032 516.464 53.6367 517.355 53.3732C518.258 53.1097 519.162 52.9779 520.065 52.9779C521.445 52.9779 522.744 53.1913 523.961 53.6179C525.191 54.0445 526.214 54.7472 527.029 55.726C527.594 56.3659 528.02 57.1062 528.309 57.947C528.61 58.7877 528.761 59.6409 528.761 60.5068C528.761 61.7992 528.478 62.9787 527.914 64.0453C527.362 65.1119 526.659 66.0969 525.806 67.0004C525.404 67.427 525.021 67.8034 524.658 68.1297C524.294 68.4559 523.955 68.7759 523.641 69.0896C523.34 69.3908 523.089 69.7107 522.888 70.0495C522.537 70.6393 522.33 71.1412 522.267 71.5553C522.204 71.9568 522.173 72.5215 522.173 73.2493H517.373ZM517.411 80.6087V75.6209H522.173V80.6087H517.411Z" fill="#3E1BC9"></path><rect x="12" y="133" width="640" height="320" rx="22.1436" fill="#3E1BC9"></rect><path d="M171.053 305.465C169.42 305.465 167.947 305.181 166.635 304.612C165.333 304.044 164.258 303.233 163.411 302.179C162.574 301.115 162.042 299.854 161.814 298.397L165.689 297.808C166.02 299.13 166.697 300.154 167.72 300.877C168.753 301.6 169.942 301.962 171.285 301.962C172.081 301.962 172.83 301.838 173.533 301.59C174.235 301.342 174.804 300.98 175.238 300.505C175.682 300.03 175.904 299.446 175.904 298.753C175.904 298.443 175.852 298.159 175.749 297.901C175.646 297.632 175.491 297.394 175.284 297.188C175.088 296.981 174.829 296.795 174.509 296.63C174.199 296.454 173.837 296.304 173.424 296.18L167.658 294.475C167.162 294.33 166.625 294.139 166.046 293.902C165.477 293.654 164.935 293.318 164.418 292.894C163.912 292.46 163.493 291.912 163.163 291.251C162.842 290.579 162.682 289.753 162.682 288.771C162.682 287.335 163.044 286.131 163.767 285.159C164.501 284.178 165.483 283.444 166.712 282.958C167.952 282.473 169.327 282.235 170.836 282.245C172.365 282.256 173.729 282.519 174.928 283.036C176.126 283.542 177.129 284.281 177.935 285.252C178.741 286.224 179.309 287.397 179.64 288.771L175.625 289.468C175.46 288.683 175.139 288.017 174.664 287.469C174.199 286.911 173.626 286.487 172.944 286.198C172.272 285.909 171.554 285.754 170.789 285.733C170.045 285.723 169.353 285.836 168.712 286.074C168.082 286.301 167.57 286.632 167.177 287.066C166.795 287.5 166.604 288.006 166.604 288.585C166.604 289.133 166.769 289.582 167.1 289.934C167.431 290.275 167.839 290.548 168.324 290.755C168.82 290.951 169.322 291.117 169.828 291.251L173.827 292.367C174.375 292.512 174.99 292.708 175.672 292.956C176.354 293.204 177.01 293.55 177.64 293.995C178.271 294.439 178.787 295.023 179.19 295.746C179.604 296.47 179.81 297.389 179.81 298.505C179.81 299.663 179.567 300.681 179.082 301.559C178.606 302.427 177.961 303.15 177.144 303.729C176.328 304.308 175.393 304.742 174.339 305.031C173.295 305.32 172.2 305.465 171.053 305.465ZM188.529 305V286.182H181.305V282.679H199.487V286.182H192.264V305H188.529ZM202.276 305V282.679H206.011V305H202.276ZM220.094 305.465C217.862 305.465 215.951 304.979 214.359 304.008C212.768 303.026 211.543 301.662 210.686 299.916C209.838 298.169 209.415 296.144 209.415 293.84C209.415 291.535 209.838 289.51 210.686 287.763C211.543 286.017 212.768 284.658 214.359 283.687C215.951 282.705 217.862 282.214 220.094 282.214C222.667 282.214 224.812 282.86 226.527 284.152C228.243 285.433 229.446 287.164 230.139 289.344L226.372 290.383C225.938 288.926 225.199 287.789 224.156 286.973C223.112 286.146 221.758 285.733 220.094 285.733C218.596 285.733 217.346 286.069 216.343 286.74C215.351 287.412 214.602 288.358 214.096 289.577C213.6 290.786 213.347 292.207 213.336 293.84C213.336 295.472 213.584 296.898 214.08 298.118C214.587 299.327 215.341 300.267 216.343 300.939C217.346 301.611 218.596 301.946 220.094 301.946C221.758 301.946 223.112 301.533 224.156 300.706C225.199 299.88 225.938 298.743 226.372 297.296L230.139 298.335C229.446 300.515 228.243 302.251 226.527 303.543C224.812 304.824 222.667 305.465 220.094 305.465ZM233.542 305V282.679H237.278V293.034L246.19 282.679H250.779L241.184 293.623L251.43 305H246.686L237.278 294.584V305H233.542ZM264.578 305V286.182H257.355V282.679H275.537V286.182H268.314V305H264.578ZM287.455 305.465C285.223 305.465 283.311 304.979 281.72 304.008C280.128 303.026 278.904 301.662 278.046 299.916C277.199 298.169 276.775 296.144 276.775 293.84C276.775 291.535 277.199 289.51 278.046 287.763C278.904 286.017 280.128 284.658 281.72 283.687C283.311 282.705 285.223 282.214 287.455 282.214C289.687 282.214 291.599 282.705 293.19 283.687C294.792 284.658 296.016 286.017 296.864 287.763C297.722 289.51 298.15 291.535 298.15 293.84C298.15 296.144 297.722 298.169 296.864 299.916C296.016 301.662 294.792 303.026 293.19 304.008C291.599 304.979 289.687 305.465 287.455 305.465ZM287.455 301.946C288.953 301.957 290.199 301.626 291.191 300.954C292.193 300.283 292.942 299.337 293.438 298.118C293.945 296.898 294.198 295.472 294.198 293.84C294.198 292.207 293.945 290.791 293.438 289.592C292.942 288.383 292.193 287.443 291.191 286.771C290.199 286.1 288.953 285.754 287.455 285.733C285.957 285.723 284.711 286.053 283.719 286.725C282.727 287.397 281.978 288.342 281.472 289.561C280.976 290.781 280.728 292.207 280.728 293.84C280.728 295.472 280.976 296.893 281.472 298.102C281.968 299.301 282.712 300.236 283.704 300.908C284.706 301.58 285.957 301.926 287.455 301.946ZM315.704 305.465C314.071 305.465 312.598 305.181 311.286 304.612C309.984 304.044 308.909 303.233 308.062 302.179C307.225 301.115 306.693 299.854 306.465 298.397L310.341 297.808C310.671 299.13 311.348 300.154 312.371 300.877C313.404 301.6 314.593 301.962 315.936 301.962C316.732 301.962 317.481 301.838 318.184 301.59C318.886 301.342 319.455 300.98 319.889 300.505C320.333 300.03 320.555 299.446 320.555 298.753C320.555 298.443 320.504 298.159 320.4 297.901C320.297 297.632 320.142 297.394 319.935 297.188C319.739 296.981 319.481 296.795 319.16 296.63C318.85 296.454 318.489 296.304 318.075 296.18L312.309 294.475C311.813 294.33 311.276 294.139 310.697 293.902C310.129 293.654 309.586 293.318 309.069 292.894C308.563 292.46 308.145 291.912 307.814 291.251C307.494 290.579 307.333 289.753 307.333 288.771C307.333 287.335 307.695 286.131 308.418 285.159C309.152 284.178 310.134 283.444 311.364 282.958C312.604 282.473 313.978 282.235 315.487 282.245C317.016 282.256 318.38 282.519 319.579 283.036C320.778 283.542 321.78 284.281 322.586 285.252C323.392 286.224 323.96 287.397 324.291 288.771L320.276 289.468C320.111 288.683 319.791 288.017 319.315 287.469C318.85 286.911 318.277 286.487 317.595 286.198C316.923 285.909 316.205 285.754 315.44 285.733C314.696 285.723 314.004 285.836 313.363 286.074C312.733 286.301 312.221 286.632 311.829 287.066C311.446 287.5 311.255 288.006 311.255 288.585C311.255 289.133 311.42 289.582 311.751 289.934C312.082 290.275 312.49 290.548 312.976 290.755C313.472 290.951 313.973 291.117 314.479 291.251L318.478 292.367C319.026 292.512 319.641 292.708 320.323 292.956C321.005 293.204 321.661 293.55 322.291 293.995C322.922 294.439 323.438 295.023 323.841 295.746C324.255 296.47 324.461 297.389 324.461 298.505C324.461 299.663 324.219 300.681 323.733 301.559C323.258 302.427 322.612 303.15 321.795 303.729C320.979 304.308 320.044 304.742 318.99 305.031C317.946 305.32 316.851 305.465 315.704 305.465ZM336.807 305.465C335.03 305.465 333.464 305.103 332.11 304.38C330.767 303.657 329.713 302.639 328.948 301.326C328.194 300.014 327.817 298.474 327.817 296.707V282.71L331.599 282.679V296.614C331.599 297.451 331.738 298.2 332.017 298.862C332.307 299.523 332.694 300.086 333.18 300.551C333.665 301.006 334.223 301.352 334.854 301.59C335.484 301.828 336.135 301.946 336.807 301.946C337.499 301.946 338.155 301.828 338.775 301.59C339.406 301.342 339.964 300.991 340.45 300.536C340.935 300.071 341.318 299.508 341.597 298.846C341.876 298.185 342.015 297.441 342.015 296.614V282.679H345.797V296.707C345.797 298.474 345.415 300.014 344.65 301.326C343.896 302.639 342.842 303.657 341.488 304.38C340.145 305.103 338.584 305.465 336.807 305.465ZM350.129 305V282.679H353.911L364.265 298.412V282.679H368.047V305H364.265L353.911 289.267V305H350.129ZM372.381 305V282.679H381.231C382.74 282.679 383.975 282.984 384.936 283.594C385.907 284.193 386.626 284.963 387.091 285.903C387.566 286.844 387.804 287.815 387.804 288.817C387.804 290.047 387.509 291.091 386.92 291.949C386.341 292.806 385.551 293.385 384.548 293.685V292.91C385.954 293.23 387.018 293.896 387.742 294.909C388.475 295.922 388.842 297.074 388.842 298.366C388.842 299.688 388.589 300.846 388.083 301.838C387.576 302.83 386.822 303.605 385.82 304.163C384.827 304.721 383.598 305 382.13 305H372.381ZM376.163 301.481H381.665C382.316 301.481 382.9 301.352 383.417 301.094C383.934 300.825 384.337 300.453 384.626 299.978C384.926 299.492 385.075 298.919 385.075 298.257C385.075 297.658 384.946 297.121 384.688 296.645C384.43 296.17 384.052 295.793 383.556 295.514C383.06 295.224 382.466 295.08 381.774 295.08H376.163V301.481ZM376.163 291.592H381.185C381.722 291.592 382.203 291.489 382.626 291.282C383.05 291.075 383.386 290.771 383.634 290.368C383.882 289.965 384.006 289.468 384.006 288.879C384.006 288.104 383.758 287.459 383.262 286.942C382.766 286.425 382.074 286.167 381.185 286.167H376.163V291.592ZM390.388 305L397.425 282.679H402.897L409.934 305H406.09L399.704 284.973H400.541L394.232 305H390.388ZM394.309 300.164V296.676H406.028V300.164H394.309ZM416.253 305V286.182H409.03V282.679H427.212V286.182H419.988V305H416.253ZM429.69 305V282.679H433.426V292.073H443.997V282.679H447.717V305H443.997V295.576H433.426V305H429.69ZM452.373 305V282.679H456.108V305H452.373ZM460.752 305V282.679H464.534L474.888 298.412V282.679H478.67V305H474.888L464.534 289.267V305H460.752ZM492.211 305.465C490.764 305.465 489.405 305.212 488.134 304.705C486.873 304.189 485.762 303.434 484.801 302.442C483.851 301.45 483.107 300.236 482.569 298.8C482.032 297.353 481.763 295.7 481.763 293.84C481.763 291.401 482.218 289.319 483.127 287.593C484.037 285.857 485.282 284.529 486.863 283.609C488.444 282.679 490.227 282.214 492.211 282.214C494.959 282.214 497.135 282.855 498.736 284.136C500.348 285.407 501.439 287.195 502.007 289.499L498.194 290.104C497.77 288.781 497.078 287.727 496.117 286.942C495.156 286.146 493.931 285.748 492.443 285.748C490.945 285.728 489.7 286.053 488.708 286.725C487.715 287.397 486.966 288.342 486.46 289.561C485.964 290.781 485.716 292.207 485.716 293.84C485.716 295.472 485.964 296.893 486.46 298.102C486.956 299.301 487.7 300.236 488.692 300.908C489.694 301.58 490.945 301.926 492.443 301.946C493.57 301.957 494.556 301.755 495.404 301.342C496.251 300.918 496.943 300.283 497.481 299.435C498.018 298.578 498.38 297.508 498.566 296.227H494.629V293.297H502.534C502.555 293.462 502.57 293.705 502.58 294.026C502.591 294.346 502.596 294.537 502.596 294.599C502.596 296.707 502.177 298.583 501.34 300.226C500.514 301.859 499.325 303.14 497.775 304.07C496.225 305 494.37 305.465 492.211 305.465Z" fill="white"></path><rect x="12" y="526" width="640" height="320" rx="22.1436" fill="#F7B21C"></rect><path d="M132.957 698.04V679.223H125.734V675.72H143.916V679.223H136.693V698.04H132.957ZM146.395 698.04V675.72H155.617C155.834 675.72 156.113 675.73 156.454 675.751C156.795 675.761 157.111 675.792 157.4 675.844C158.692 676.04 159.756 676.469 160.593 677.13C161.44 677.791 162.066 678.628 162.469 679.641C162.882 680.644 163.089 681.76 163.089 682.989C163.089 684.808 162.629 686.374 161.709 687.686C160.789 688.988 159.379 689.794 157.477 690.104L155.881 690.244H150.13V698.04H146.395ZM159.213 698.04L154.811 688.957L158.609 688.12L163.445 698.04H159.213ZM150.13 686.756H155.462C155.669 686.756 155.902 686.746 156.16 686.725C156.418 686.704 156.656 686.663 156.873 686.601C157.493 686.446 157.979 686.172 158.33 685.779C158.692 685.387 158.945 684.942 159.089 684.446C159.244 683.95 159.322 683.465 159.322 682.989C159.322 682.514 159.244 682.028 159.089 681.532C158.945 681.026 158.692 680.576 158.33 680.184C157.979 679.791 157.493 679.517 156.873 679.362C156.656 679.3 156.418 679.264 156.16 679.254C155.902 679.233 155.669 679.223 155.462 679.223H150.13V686.756ZM171.861 698.04V688.895L164.266 675.72H168.622L173.752 684.617L178.868 675.72H183.223L175.644 688.895V698.04H171.861ZM190.353 698.04V675.72H204.768V679.223H194.089V684.725H202.908V688.228H194.089V694.537H204.768V698.04H190.353ZM213.51 698.04L206.472 675.72H210.316L216.207 694.413L222.174 675.72H226.018L218.981 698.04H213.51ZM228.347 698.04V675.72H242.763V679.223H232.083V684.725H240.903V688.228H232.083V694.537H242.763V698.04H228.347ZM246.482 698.04V675.72H255.705C255.922 675.72 256.201 675.73 256.542 675.751C256.883 675.761 257.198 675.792 257.487 675.844C258.779 676.04 259.843 676.469 260.68 677.13C261.528 677.791 262.153 678.628 262.556 679.641C262.969 680.644 263.176 681.76 263.176 682.989C263.176 684.808 262.716 686.374 261.796 687.686C260.877 688.988 259.466 689.794 257.565 690.104L255.968 690.244H250.217V698.04H246.482ZM259.301 698.04L254.899 688.957L258.696 688.12L263.532 698.04H259.301ZM250.217 686.756H255.55C255.756 686.756 255.989 686.746 256.247 686.725C256.505 686.704 256.743 686.663 256.96 686.601C257.58 686.446 258.066 686.172 258.417 685.779C258.779 685.387 259.032 684.942 259.177 684.446C259.332 683.95 259.409 683.465 259.409 682.989C259.409 682.514 259.332 682.028 259.177 681.532C259.032 681.026 258.779 680.576 258.417 680.184C258.066 679.791 257.58 679.517 256.96 679.362C256.743 679.3 256.505 679.264 256.247 679.254C255.989 679.233 255.756 679.223 255.55 679.223H250.217V686.756ZM271.949 698.04V688.895L264.353 675.72H268.709L273.84 684.617L278.955 675.72H283.311L275.731 688.895V698.04H271.949ZM290.44 698.04V675.72H304.856V679.223H294.176V684.725H302.996V688.228H294.176V694.537H304.856V698.04H290.44ZM306.715 698.04L314.279 686.756L306.932 675.72H311.504L316.588 683.578L321.626 675.72H326.23L318.882 686.756L326.416 698.04H321.843L316.588 689.934L311.318 698.04H306.715ZM335.493 698.04V679.223H328.27V675.72H346.452V679.223H339.229V698.04H335.493ZM348.93 698.04V675.72H358.153C358.37 675.72 358.649 675.73 358.99 675.751C359.331 675.761 359.646 675.792 359.936 675.844C361.228 676.04 362.292 676.469 363.129 677.13C363.976 677.791 364.601 678.628 365.004 679.641C365.418 680.644 365.624 681.76 365.624 682.989C365.624 684.808 365.165 686.374 364.245 687.686C363.325 688.988 361.915 689.794 360.013 690.104L358.417 690.244H352.666V698.04H348.93ZM361.749 698.04L357.347 688.957L361.145 688.12L365.981 698.04H361.749ZM352.666 686.756H357.998C358.205 686.756 358.437 686.746 358.696 686.725C358.954 686.704 359.192 686.663 359.409 686.601C360.029 686.446 360.514 686.172 360.866 685.779C361.228 685.387 361.481 684.942 361.625 684.446C361.78 683.95 361.858 683.465 361.858 682.989C361.858 682.514 361.78 682.028 361.625 681.532C361.481 681.026 361.228 680.576 360.866 680.184C360.514 679.791 360.029 679.517 359.409 679.362C359.192 679.3 358.954 679.264 358.696 679.254C358.437 679.233 358.205 679.223 357.998 679.223H352.666V686.756ZM369.396 698.04V675.72H383.811V679.223H373.132V684.725H381.951V688.228H373.132V694.537H383.811V698.04H369.396ZM387.53 698.04V675.72H390.894L398.613 691.53L406.332 675.72H409.696V698.04H406.208V683.733L399.357 698.04H397.869L391.033 683.733V698.04H387.53ZM414.051 698.04V675.72H428.466V679.223H417.786V684.725H426.606V688.228H417.786V694.537H428.466V698.04H414.051ZM446.653 698.505C445.02 698.505 443.548 698.221 442.236 697.653C440.933 697.084 439.859 696.273 439.011 695.219C438.174 694.155 437.642 692.894 437.415 691.437L441.29 690.848C441.621 692.171 442.298 693.194 443.321 693.917C444.354 694.641 445.542 695.002 446.886 695.002C447.681 695.002 448.431 694.878 449.133 694.63C449.836 694.382 450.404 694.02 450.838 693.545C451.283 693.07 451.505 692.486 451.505 691.794C451.505 691.484 451.453 691.199 451.35 690.941C451.246 690.672 451.091 690.435 450.885 690.228C450.688 690.021 450.43 689.835 450.11 689.67C449.8 689.494 449.438 689.344 449.025 689.22L443.259 687.515C442.763 687.371 442.225 687.18 441.646 686.942C441.078 686.694 440.536 686.358 440.019 685.934C439.513 685.5 439.094 684.953 438.763 684.291C438.443 683.62 438.283 682.793 438.283 681.811C438.283 680.375 438.645 679.171 439.368 678.2C440.102 677.218 441.083 676.484 442.313 675.999C443.553 675.513 444.927 675.275 446.436 675.286C447.966 675.296 449.33 675.559 450.528 676.076C451.727 676.582 452.729 677.321 453.535 678.293C454.341 679.264 454.91 680.437 455.24 681.811L451.226 682.509C451.06 681.723 450.74 681.057 450.265 680.509C449.8 679.951 449.226 679.528 448.544 679.238C447.873 678.949 447.154 678.794 446.39 678.773C445.646 678.763 444.953 678.876 444.313 679.114C443.682 679.342 443.171 679.672 442.778 680.106C442.396 680.54 442.205 681.047 442.205 681.625C442.205 682.173 442.37 682.622 442.701 682.974C443.031 683.315 443.439 683.589 443.925 683.795C444.421 683.992 444.922 684.157 445.429 684.291L449.428 685.407C449.975 685.552 450.59 685.748 451.272 685.996C451.954 686.244 452.611 686.591 453.241 687.035C453.871 687.479 454.388 688.063 454.791 688.786C455.204 689.51 455.411 690.43 455.411 691.546C455.411 692.703 455.168 693.721 454.682 694.599C454.207 695.467 453.561 696.191 452.745 696.769C451.928 697.348 450.993 697.782 449.939 698.071C448.896 698.361 447.8 698.505 446.653 698.505ZM458.766 698.04V675.72H467.989C468.206 675.72 468.485 675.73 468.826 675.751C469.167 675.761 469.482 675.792 469.771 675.844C471.063 676.04 472.128 676.469 472.965 677.13C473.812 677.791 474.437 678.628 474.84 679.641C475.253 680.644 475.46 681.76 475.46 682.989C475.46 684.209 475.253 685.325 474.84 686.337C474.427 687.34 473.796 688.172 472.949 688.833C472.112 689.494 471.053 689.923 469.771 690.12C469.482 690.161 469.162 690.192 468.81 690.213C468.469 690.233 468.196 690.244 467.989 690.244H462.502V698.04H458.766ZM462.502 686.756H467.834C468.041 686.756 468.273 686.746 468.531 686.725C468.79 686.704 469.027 686.663 469.244 686.601C469.864 686.446 470.35 686.172 470.701 685.779C471.063 685.387 471.316 684.942 471.461 684.446C471.616 683.95 471.694 683.465 471.694 682.989C471.694 682.514 471.616 682.028 471.461 681.532C471.316 681.026 471.063 680.576 470.701 680.184C470.35 679.791 469.864 679.517 469.244 679.362C469.027 679.3 468.79 679.264 468.531 679.254C468.273 679.233 468.041 679.223 467.834 679.223H462.502V686.756ZM488.005 698.505C485.773 698.505 483.862 698.02 482.27 697.048C480.679 696.067 479.454 694.703 478.597 692.956C477.749 691.21 477.326 689.184 477.326 686.88C477.326 684.576 477.749 682.55 478.597 680.804C479.454 679.057 480.679 677.698 482.27 676.727C483.862 675.745 485.773 675.255 488.005 675.255C490.237 675.255 492.149 675.745 493.741 676.727C495.342 677.698 496.567 679.057 497.414 680.804C498.272 682.55 498.701 684.576 498.701 686.88C498.701 689.184 498.272 691.21 497.414 692.956C496.567 694.703 495.342 696.067 493.741 697.048C492.149 698.02 490.237 698.505 488.005 698.505ZM488.005 694.987C489.504 694.997 490.749 694.666 491.741 693.995C492.743 693.323 493.493 692.377 493.989 691.158C494.495 689.939 494.748 688.513 494.748 686.88C494.748 685.247 494.495 683.831 493.989 682.633C493.493 681.424 492.743 680.483 491.741 679.812C490.749 679.14 489.504 678.794 488.005 678.773C486.507 678.763 485.262 679.093 484.27 679.765C483.278 680.437 482.529 681.382 482.022 682.602C481.526 683.821 481.278 685.247 481.278 686.88C481.278 688.513 481.526 689.934 482.022 691.143C482.518 692.341 483.262 693.276 484.254 693.948C485.257 694.62 486.507 694.966 488.005 694.987ZM501.786 698.04V675.72H511.009C511.226 675.72 511.505 675.73 511.846 675.751C512.187 675.761 512.502 675.792 512.791 675.844C514.083 676.04 515.147 676.469 515.985 677.13C516.832 677.791 517.457 678.628 517.86 679.641C518.273 680.644 518.48 681.76 518.48 682.989C518.48 684.808 518.02 686.374 517.101 687.686C516.181 688.988 514.77 689.794 512.869 690.104L511.272 690.244H505.522V698.04H501.786ZM514.605 698.04L510.203 688.957L514 688.12L518.837 698.04H514.605ZM505.522 686.756H510.854C511.061 686.756 511.293 686.746 511.551 686.725C511.81 686.704 512.047 686.663 512.264 686.601C512.884 686.446 513.37 686.172 513.721 685.779C514.083 685.387 514.336 684.942 514.481 684.446C514.636 683.95 514.713 683.465 514.713 682.989C514.713 682.514 514.636 682.028 514.481 681.532C514.336 681.026 514.083 680.576 513.721 680.184C513.37 679.791 512.884 679.517 512.264 679.362C512.047 679.3 511.81 679.264 511.551 679.254C511.293 679.233 511.061 679.223 510.854 679.223H505.522V686.756ZM527.615 698.04V679.223H520.391V675.72H538.574V679.223H531.35V698.04H527.615Z" fill="white"></path><circle cx="332.153" cy="496.016" r="66.4307" fill="white"></circle><path d="M320.155 510.759C317.444 510.759 315.123 510.169 313.191 508.989C311.258 507.797 309.771 506.141 308.73 504.02C307.701 501.9 307.186 499.44 307.186 496.642C307.186 493.844 307.701 491.385 308.73 489.264C309.771 487.143 311.258 485.493 313.191 484.314C315.123 483.122 317.444 482.526 320.155 482.526C322.865 482.526 325.187 483.122 327.119 484.314C329.064 485.493 330.551 487.143 331.58 489.264C332.621 491.385 333.142 493.844 333.142 496.642C333.142 499.44 332.621 501.9 331.58 504.02C330.551 506.141 329.064 507.797 327.119 508.989C325.187 510.169 322.865 510.759 320.155 510.759ZM320.155 506.486C321.974 506.499 323.486 506.097 324.691 505.282C325.908 504.466 326.818 503.318 327.42 501.837C328.035 500.356 328.342 498.625 328.342 496.642C328.342 494.66 328.035 492.941 327.42 491.485C326.818 490.017 325.908 488.875 324.691 488.059C323.486 487.244 321.974 486.823 320.155 486.798C318.335 486.786 316.823 487.187 315.619 488.003C314.414 488.819 313.504 489.967 312.889 491.447C312.287 492.928 311.986 494.66 311.986 496.642C311.986 498.625 312.287 500.35 312.889 501.818C313.492 503.274 314.395 504.409 315.6 505.225C316.817 506.041 318.335 506.461 320.155 506.486ZM336.888 510.194V483.09H348.088C348.351 483.09 348.69 483.103 349.104 483.128C349.518 483.141 349.901 483.178 350.252 483.241C351.821 483.479 353.113 484 354.129 484.803C355.158 485.606 355.918 486.623 356.407 487.852C356.909 489.069 357.16 490.425 357.16 491.918C357.16 494.126 356.601 496.027 355.485 497.621C354.368 499.202 352.655 500.181 350.346 500.557L348.408 500.727H341.425V510.194H336.888ZM352.454 510.194L347.109 499.164L351.72 498.148L357.593 510.194H352.454ZM341.425 496.492H347.899C348.15 496.492 348.433 496.479 348.746 496.454C349.06 496.429 349.349 496.379 349.612 496.303C350.365 496.115 350.955 495.783 351.381 495.306C351.821 494.829 352.128 494.289 352.304 493.687C352.492 493.085 352.586 492.495 352.586 491.918C352.586 491.341 352.492 490.751 352.304 490.149C352.128 489.534 351.821 488.988 351.381 488.511C350.955 488.034 350.365 487.702 349.612 487.514C349.349 487.438 349.06 487.394 348.746 487.382C348.433 487.357 348.15 487.344 347.899 487.344H341.425V496.492Z" fill="#3E1BC9"></path></svg> 