<?xml version="1.0" encoding="UTF-8"?> <svg xmlns="http://www.w3.org/2000/svg" width="600" height="400" viewBox="0 0 600 400" fill="none"> <rect width="600" height="400" rx="20" fill="url(#paint0_linear_160_282)"></rect> <path d="M96.9013 194V178.16H101.95C102.082 178.16 102.343 178.164 102.731 178.171C103.127 178.178 103.509 178.204 103.875 178.248C105.129 178.409 106.189 178.857 107.054 179.59C107.927 180.316 108.587 181.244 109.034 182.373C109.482 183.502 109.705 184.738 109.705 186.08C109.705 187.422 109.482 188.658 109.034 189.787C108.587 190.916 107.927 191.848 107.054 192.581C106.189 193.307 105.129 193.751 103.875 193.912C103.516 193.956 103.138 193.982 102.742 193.989C102.346 193.996 102.082 194 101.95 194H96.9013ZM99.5963 191.503H101.95C102.17 191.503 102.449 191.496 102.786 191.481C103.131 191.466 103.435 191.433 103.699 191.382C104.447 191.243 105.056 190.909 105.525 190.381C105.995 189.853 106.339 189.211 106.559 188.456C106.787 187.701 106.9 186.909 106.9 186.08C106.9 185.222 106.787 184.415 106.559 183.66C106.332 182.905 105.98 182.27 105.503 181.757C105.034 181.244 104.433 180.917 103.699 180.778C103.435 180.719 103.131 180.686 102.786 180.679C102.449 180.664 102.17 180.657 101.95 180.657H99.5963V191.503ZM119.005 194.33C117.421 194.33 116.064 193.985 114.935 193.296C113.805 192.599 112.936 191.631 112.328 190.392C111.726 189.153 111.426 187.715 111.426 186.08C111.426 184.445 111.726 183.007 112.328 181.768C112.936 180.529 113.805 179.564 114.935 178.875C116.064 178.178 117.421 177.83 119.005 177.83C120.589 177.83 121.945 178.178 123.075 178.875C124.211 179.564 125.08 180.529 125.682 181.768C126.29 183.007 126.595 184.445 126.595 186.08C126.595 187.715 126.29 189.153 125.682 190.392C125.08 191.631 124.211 192.599 123.075 193.296C121.945 193.985 120.589 194.33 119.005 194.33ZM119.005 191.833C120.068 191.84 120.952 191.606 121.656 191.129C122.367 190.652 122.899 189.981 123.251 189.116C123.61 188.251 123.79 187.239 123.79 186.08C123.79 184.921 123.61 183.917 123.251 183.066C122.899 182.208 122.367 181.541 121.656 181.064C120.952 180.587 120.068 180.342 119.005 180.327C117.941 180.32 117.058 180.554 116.354 181.031C115.65 181.508 115.118 182.179 114.759 183.044C114.407 183.909 114.231 184.921 114.231 186.08C114.231 187.239 114.407 188.247 114.759 189.105C115.111 189.956 115.639 190.619 116.343 191.096C117.054 191.573 117.941 191.818 119.005 191.833ZM137.038 194V187.51L131.648 178.16H134.739L138.38 184.474L142.01 178.16H145.101L139.722 187.51V194H137.038ZM152.456 194.33C150.872 194.33 149.515 193.985 148.386 193.296C147.256 192.599 146.387 191.631 145.779 190.392C145.177 189.153 144.877 187.715 144.877 186.08C144.877 184.445 145.177 183.007 145.779 181.768C146.387 180.529 147.256 179.564 148.386 178.875C149.515 178.178 150.872 177.83 152.456 177.83C154.04 177.83 155.396 178.178 156.526 178.875C157.662 179.564 158.531 180.529 159.133 181.768C159.741 183.007 160.046 184.445 160.046 186.08C160.046 187.715 159.741 189.153 159.133 190.392C158.531 191.631 157.662 192.599 156.526 193.296C155.396 193.985 154.04 194.33 152.456 194.33ZM152.456 191.833C153.519 191.84 154.403 191.606 155.107 191.129C155.818 190.652 156.35 189.981 156.702 189.116C157.061 188.251 157.241 187.239 157.241 186.08C157.241 184.921 157.061 183.917 156.702 183.066C156.35 182.208 155.818 181.541 155.107 181.064C154.403 180.587 153.519 180.342 152.456 180.327C151.392 180.32 150.509 180.554 149.805 181.031C149.101 181.508 148.569 182.179 148.21 183.044C147.858 183.909 147.682 184.921 147.682 186.08C147.682 187.239 147.858 188.247 148.21 189.105C148.562 189.956 149.09 190.619 149.794 191.096C150.505 191.573 151.392 191.818 152.456 191.833ZM168.615 194.33C167.354 194.33 166.243 194.073 165.282 193.56C164.329 193.047 163.581 192.324 163.038 191.393C162.503 190.462 162.235 189.369 162.235 188.115V178.182L164.919 178.16V188.049C164.919 188.643 165.018 189.175 165.216 189.644C165.422 190.113 165.697 190.513 166.041 190.843C166.386 191.166 166.782 191.411 167.229 191.58C167.677 191.749 168.139 191.833 168.615 191.833C169.107 191.833 169.572 191.749 170.012 191.58C170.46 191.404 170.856 191.155 171.2 190.832C171.545 190.502 171.816 190.102 172.014 189.633C172.212 189.164 172.311 188.636 172.311 188.049V178.16H174.995V188.115C174.995 189.369 174.724 190.462 174.181 191.393C173.646 192.324 172.898 193.047 171.937 193.56C170.984 194.073 169.877 194.33 168.615 194.33ZM186.28 194V180.646H181.154V178.16H194.057V180.646H188.931V194H186.28ZM195.815 194V178.16H198.466V184.826H205.968V178.16H208.608V194H205.968V187.312H198.466V194H195.815ZM211.912 194V178.16H214.563V194H211.912ZM217.858 194V178.16H220.542L227.89 189.325V178.16H230.574V194H227.89L220.542 182.835V194H217.858ZM233.649 194V178.16H236.3V185.508L242.625 178.16H245.881L239.072 185.926L246.343 194H242.977L236.3 186.608V194H233.649ZM255.674 194V180.646H250.548V178.16H263.451V180.646H258.325V194H255.674ZM265.21 194V178.16H267.861V184.826H275.363V178.16H278.003V194H275.363V187.312H267.861V194H265.21ZM279.987 194L284.981 178.16H288.864L293.858 194H291.13L286.598 179.788H287.192L282.715 194H279.987ZM282.77 190.568V188.093H291.086V190.568H282.77ZM298.342 194V180.646H293.216V178.16H306.119V180.646H300.993V194H298.342ZM311.616 194V178.16H318.161C318.315 178.16 318.513 178.167 318.755 178.182C318.997 178.189 319.221 178.211 319.426 178.248C320.343 178.387 321.098 178.692 321.692 179.161C322.294 179.63 322.737 180.224 323.023 180.943C323.317 181.654 323.463 182.446 323.463 183.319C323.463 184.184 323.317 184.976 323.023 185.695C322.73 186.406 322.283 186.997 321.681 187.466C321.087 187.935 320.336 188.24 319.426 188.379C319.221 188.408 318.994 188.43 318.744 188.445C318.502 188.46 318.308 188.467 318.161 188.467H314.267V194H311.616ZM314.267 185.992H318.051C318.198 185.992 318.363 185.985 318.546 185.97C318.73 185.955 318.898 185.926 319.052 185.882C319.492 185.772 319.837 185.578 320.086 185.299C320.343 185.02 320.523 184.705 320.625 184.353C320.735 184.001 320.79 183.656 320.79 183.319C320.79 182.982 320.735 182.637 320.625 182.285C320.523 181.926 320.343 181.607 320.086 181.328C319.837 181.049 319.492 180.855 319.052 180.745C318.898 180.701 318.73 180.675 318.546 180.668C318.363 180.653 318.198 180.646 318.051 180.646H314.267V185.992ZM325.667 194V178.16H335.897V180.646H328.318V184.551H334.577V187.037H328.318V191.514H335.897V194H325.667ZM338.536 194V178.16H345.081C345.235 178.16 345.433 178.167 345.675 178.182C345.917 178.189 346.141 178.211 346.346 178.248C347.263 178.387 348.018 178.692 348.612 179.161C349.213 179.63 349.657 180.224 349.943 180.943C350.236 181.654 350.383 182.446 350.383 183.319C350.383 184.61 350.057 185.721 349.404 186.652C348.751 187.576 347.75 188.148 346.401 188.368L345.268 188.467H341.187V194H338.536ZM347.633 194L344.509 187.554L347.204 186.96L350.636 194H347.633ZM341.187 185.992H344.971C345.118 185.992 345.283 185.985 345.466 185.97C345.649 185.955 345.818 185.926 345.972 185.882C346.412 185.772 346.757 185.578 347.006 185.299C347.263 185.02 347.442 184.705 347.545 184.353C347.655 184.001 347.71 183.656 347.71 183.319C347.71 182.982 347.655 182.637 347.545 182.285C347.442 181.926 347.263 181.607 347.006 181.328C346.757 181.049 346.412 180.855 345.972 180.745C345.818 180.701 345.649 180.675 345.466 180.668C345.283 180.653 345.118 180.646 344.971 180.646H341.187V185.992ZM358.923 194.33C357.764 194.33 356.719 194.128 355.788 193.725C354.864 193.322 354.101 192.746 353.5 191.998C352.906 191.243 352.528 190.348 352.367 189.314L355.117 188.896C355.351 189.835 355.832 190.561 356.558 191.074C357.291 191.587 358.134 191.844 359.088 191.844C359.652 191.844 360.184 191.756 360.683 191.58C361.181 191.404 361.585 191.147 361.893 190.81C362.208 190.473 362.366 190.058 362.366 189.567C362.366 189.347 362.329 189.145 362.256 188.962C362.182 188.771 362.072 188.603 361.926 188.456C361.786 188.309 361.603 188.177 361.376 188.06C361.156 187.935 360.899 187.829 360.606 187.741L356.514 186.531C356.162 186.428 355.78 186.293 355.37 186.124C354.966 185.948 354.581 185.71 354.215 185.409C353.855 185.101 353.558 184.712 353.324 184.243C353.096 183.766 352.983 183.18 352.983 182.483C352.983 181.464 353.239 180.609 353.753 179.92C354.273 179.223 354.97 178.703 355.843 178.358C356.723 178.013 357.698 177.845 358.769 177.852C359.854 177.859 360.822 178.046 361.673 178.413C362.523 178.772 363.235 179.297 363.807 179.986C364.379 180.675 364.782 181.508 365.017 182.483L362.168 182.978C362.05 182.421 361.823 181.948 361.486 181.559C361.156 181.163 360.749 180.862 360.265 180.657C359.788 180.452 359.278 180.342 358.736 180.327C358.208 180.32 357.716 180.4 357.262 180.569C356.814 180.73 356.451 180.965 356.173 181.273C355.901 181.581 355.766 181.94 355.766 182.351C355.766 182.74 355.883 183.059 356.118 183.308C356.352 183.55 356.642 183.744 356.987 183.891C357.339 184.03 357.694 184.148 358.054 184.243L360.892 185.035C361.28 185.138 361.717 185.277 362.201 185.453C362.685 185.629 363.15 185.875 363.598 186.19C364.045 186.505 364.412 186.92 364.698 187.433C364.991 187.946 365.138 188.599 365.138 189.391C365.138 190.212 364.965 190.935 364.621 191.558C364.283 192.174 363.825 192.687 363.246 193.098C362.666 193.509 362.003 193.817 361.255 194.022C360.514 194.227 359.737 194.33 358.923 194.33ZM374.218 194.33C372.634 194.33 371.277 193.985 370.148 193.296C369.018 192.599 368.149 191.631 367.541 190.392C366.939 189.153 366.639 187.715 366.639 186.08C366.639 184.445 366.939 183.007 367.541 181.768C368.149 180.529 369.018 179.564 370.148 178.875C371.277 178.178 372.634 177.83 374.218 177.83C375.802 177.83 377.158 178.178 378.288 178.875C379.424 179.564 380.293 180.529 380.895 181.768C381.503 183.007 381.808 184.445 381.808 186.08C381.808 187.715 381.503 189.153 380.895 190.392C380.293 191.631 379.424 192.599 378.288 193.296C377.158 193.985 375.802 194.33 374.218 194.33ZM374.218 191.833C375.281 191.84 376.165 191.606 376.869 191.129C377.58 190.652 378.112 189.981 378.464 189.116C378.823 188.251 379.003 187.239 379.003 186.08C379.003 184.921 378.823 183.917 378.464 183.066C378.112 182.208 377.58 181.541 376.869 181.064C376.165 180.587 375.281 180.342 374.218 180.327C373.154 180.32 372.271 180.554 371.567 181.031C370.863 181.508 370.331 182.179 369.972 183.044C369.62 183.909 369.444 184.921 369.444 186.08C369.444 187.239 369.62 188.247 369.972 189.105C370.324 189.956 370.852 190.619 371.556 191.096C372.267 191.573 373.154 191.818 374.218 191.833ZM383.997 194V178.16H386.681L394.029 189.325V178.16H396.713V194H394.029L386.681 182.835V194H383.997ZM398.688 194L403.682 178.16H407.565L412.559 194H409.831L405.299 179.788H405.893L401.416 194H398.688ZM401.471 190.568V188.093H409.787V190.568H401.471ZM414.768 194V178.16H417.419V191.514H424.415V194H414.768ZM433.393 194V180.646H428.267V178.16H441.17V180.646H436.044V194H433.393ZM442.929 194V178.16H449.474C449.628 178.16 449.826 178.167 450.068 178.182C450.31 178.189 450.533 178.211 450.739 178.248C451.655 178.387 452.411 178.692 453.005 179.161C453.606 179.63 454.05 180.224 454.336 180.943C454.629 181.654 454.776 182.446 454.776 183.319C454.776 184.61 454.449 185.721 453.797 186.652C453.144 187.576 452.143 188.148 450.794 188.368L449.661 188.467H445.58V194H442.929ZM452.026 194L448.902 187.554L451.597 186.96L455.029 194H452.026ZM445.58 185.992H449.364C449.51 185.992 449.675 185.985 449.859 185.97C450.042 185.955 450.211 185.926 450.365 185.882C450.805 185.772 451.149 185.578 451.399 185.299C451.655 185.02 451.835 184.705 451.938 184.353C452.048 184.001 452.103 183.656 452.103 183.319C452.103 182.982 452.048 182.637 451.938 182.285C451.835 181.926 451.655 181.607 451.399 181.328C451.149 181.049 450.805 180.855 450.365 180.745C450.211 180.701 450.042 180.675 449.859 180.668C449.675 180.653 449.51 180.646 449.364 180.646H445.58V185.992ZM456.352 194L461.346 178.16H465.229L470.223 194H467.495L462.963 179.788H463.557L459.08 194H456.352ZM459.135 190.568V188.093H467.451V190.568H459.135ZM472.432 194V178.16H475.083V194H472.432ZM482.184 194V180.646H477.058V178.16H489.961V180.646H484.835V194H482.184ZM497.583 194.33C496.424 194.33 495.379 194.128 494.448 193.725C493.524 193.322 492.761 192.746 492.16 191.998C491.566 191.243 491.188 190.348 491.027 189.314L493.777 188.896C494.011 189.835 494.492 190.561 495.218 191.074C495.951 191.587 496.794 191.844 497.748 191.844C498.312 191.844 498.844 191.756 499.343 191.58C499.841 191.404 500.245 191.147 500.553 190.81C500.868 190.473 501.026 190.058 501.026 189.567C501.026 189.347 500.989 189.145 500.916 188.962C500.842 188.771 500.732 188.603 500.586 188.456C500.446 188.309 500.263 188.177 500.036 188.06C499.816 187.935 499.559 187.829 499.266 187.741L495.174 186.531C494.822 186.428 494.44 186.293 494.03 186.124C493.626 185.948 493.241 185.71 492.875 185.409C492.515 185.101 492.218 184.712 491.984 184.243C491.756 183.766 491.643 183.18 491.643 182.483C491.643 181.464 491.899 180.609 492.413 179.92C492.933 179.223 493.63 178.703 494.503 178.358C495.383 178.013 496.358 177.845 497.429 177.852C498.514 177.859 499.482 178.046 500.333 178.413C501.183 178.772 501.895 179.297 502.467 179.986C503.039 180.675 503.442 181.508 503.677 182.483L500.828 182.978C500.71 182.421 500.483 181.948 500.146 181.559C499.816 181.163 499.409 180.862 498.925 180.657C498.448 180.452 497.938 180.342 497.396 180.327C496.868 180.32 496.376 180.4 495.922 180.569C495.474 180.73 495.111 180.965 494.833 181.273C494.561 181.581 494.426 181.94 494.426 182.351C494.426 182.74 494.543 183.059 494.778 183.308C495.012 183.55 495.302 183.744 495.647 183.891C495.999 184.03 496.354 184.148 496.714 184.243L499.552 185.035C499.94 185.138 500.377 185.277 500.861 185.453C501.345 185.629 501.81 185.875 502.258 186.19C502.705 186.505 503.072 186.92 503.358 187.433C503.651 187.946 503.798 188.599 503.798 189.391C503.798 190.212 503.625 190.935 503.281 191.558C502.943 192.174 502.485 192.687 501.906 193.098C501.326 193.509 500.663 193.817 499.915 194.022C499.174 194.227 498.397 194.33 497.583 194.33ZM34.6783 223L39.6723 207.16H43.5553L48.5493 223H45.8213L41.2893 208.788H41.8833L37.4063 223H34.6783ZM37.4613 219.568V217.093H45.7773V219.568H37.4613ZM50.538 223V207.16H57.083C57.237 207.16 57.435 207.167 57.677 207.182C57.919 207.189 58.1427 207.211 58.348 207.248C59.2647 207.387 60.02 207.692 60.614 208.161C61.2154 208.63 61.659 209.224 61.945 209.943C62.2384 210.654 62.385 211.446 62.385 212.319C62.385 213.61 62.0587 214.721 61.406 215.652C60.7534 216.576 59.7524 217.148 58.403 217.368L57.27 217.467H53.189V223H50.538ZM59.635 223L56.511 216.554L59.206 215.96L62.638 223H59.635ZM53.189 214.992H56.973C57.1197 214.992 57.2847 214.985 57.468 214.97C57.6514 214.955 57.82 214.926 57.974 214.882C58.414 214.772 58.7587 214.578 59.008 214.299C59.2647 214.02 59.4444 213.705 59.547 213.353C59.657 213.001 59.712 212.656 59.712 212.319C59.712 211.982 59.657 211.637 59.547 211.285C59.4444 210.926 59.2647 210.607 59.008 210.328C58.7587 210.049 58.414 209.855 57.974 209.745C57.82 209.701 57.6514 209.675 57.468 209.668C57.2847 209.653 57.1197 209.646 56.973 209.646H53.189V214.992ZM65.0615 223V207.16H75.2915V209.646H67.7125V213.551H73.9715V216.037H67.7125V220.514H75.2915V223H65.0615ZM82.5549 223V207.16H85.2059V223H82.5549ZM88.5009 223V207.16H91.1849L98.5329 218.325V207.16H101.217V223H98.5329L91.1849 211.835V223H88.5009ZM104.292 223V207.16H106.943V213.826H114.445V207.16H117.085V223H114.445V216.312H106.943V223H104.292ZM120.169 223V207.16H130.399V209.646H122.82V213.551H129.079V216.037H122.82V220.514H130.399V223H120.169ZM133.038 223V207.16H139.583C139.737 207.16 139.935 207.167 140.177 207.182C140.419 207.189 140.643 207.211 140.848 207.248C141.765 207.387 142.52 207.692 143.114 208.161C143.715 208.63 144.159 209.224 144.445 209.943C144.738 210.654 144.885 211.446 144.885 212.319C144.885 213.61 144.559 214.721 143.906 215.652C143.253 216.576 142.252 217.148 140.903 217.368L139.77 217.467H135.689V223H133.038ZM142.135 223L139.011 216.554L141.706 215.96L145.138 223H142.135ZM135.689 214.992H139.473C139.62 214.992 139.785 214.985 139.968 214.97C140.151 214.955 140.32 214.926 140.474 214.882C140.914 214.772 141.259 214.578 141.508 214.299C141.765 214.02 141.944 213.705 142.047 213.353C142.157 213.001 142.212 212.656 142.212 212.319C142.212 211.982 142.157 211.637 142.047 211.285C141.944 210.926 141.765 210.607 141.508 210.328C141.259 210.049 140.914 209.855 140.474 209.745C140.32 209.701 140.151 209.675 139.968 209.668C139.785 209.653 139.62 209.646 139.473 209.646H135.689V214.992ZM147.781 223V207.16H150.432V223H147.781ZM157.534 223V209.646H152.408V207.16H165.311V209.646H160.185V223H157.534ZM167.069 223V207.16H177.299V209.646H169.72V213.551H175.979V216.037H169.72V220.514H177.299V223H167.069ZM179.938 223V207.16H184.987C185.119 207.16 185.38 207.164 185.768 207.171C186.164 207.178 186.546 207.204 186.912 207.248C188.166 207.409 189.226 207.857 190.091 208.59C190.964 209.316 191.624 210.244 192.071 211.373C192.519 212.502 192.742 213.738 192.742 215.08C192.742 216.422 192.519 217.658 192.071 218.787C191.624 219.916 190.964 220.848 190.091 221.581C189.226 222.307 188.166 222.751 186.912 222.912C186.553 222.956 186.175 222.982 185.779 222.989C185.383 222.996 185.119 223 184.987 223H179.938ZM182.633 220.503H184.987C185.207 220.503 185.486 220.496 185.823 220.481C186.168 220.466 186.472 220.433 186.736 220.382C187.484 220.243 188.093 219.909 188.562 219.381C189.032 218.853 189.376 218.211 189.596 217.456C189.824 216.701 189.937 215.909 189.937 215.08C189.937 214.222 189.824 213.415 189.596 212.66C189.369 211.905 189.017 211.27 188.54 210.757C188.071 210.244 187.47 209.917 186.736 209.778C186.472 209.719 186.168 209.686 185.823 209.679C185.486 209.664 185.207 209.657 184.987 209.657H182.633V220.503ZM198.214 218.699C198.214 218.193 198.261 217.705 198.357 217.236C198.459 216.759 198.624 216.319 198.852 215.916C199.05 215.527 199.27 215.219 199.512 214.992C199.754 214.757 200.025 214.526 200.326 214.299C200.626 214.064 200.96 213.753 201.327 213.364C201.627 213.034 201.825 212.708 201.921 212.385C202.016 212.055 202.064 211.703 202.064 211.329C202.064 211.087 202.038 210.86 201.987 210.647C201.935 210.434 201.844 210.251 201.712 210.097C201.506 209.826 201.242 209.635 200.92 209.525C200.597 209.408 200.252 209.349 199.886 209.349C199.585 209.349 199.295 209.389 199.017 209.47C198.745 209.543 198.514 209.661 198.324 209.822C198.104 209.998 197.942 210.214 197.84 210.471C197.737 210.728 197.689 211.01 197.697 211.318H194.903C194.976 210.585 195.174 209.906 195.497 209.283C195.827 208.652 196.259 208.15 196.795 207.776C197.213 207.468 197.682 207.237 198.203 207.083C198.731 206.929 199.259 206.852 199.787 206.852C200.593 206.852 201.352 206.977 202.064 207.226C202.782 207.475 203.38 207.886 203.857 208.458C204.187 208.832 204.436 209.265 204.605 209.756C204.781 210.247 204.869 210.746 204.869 211.252C204.869 212.007 204.704 212.697 204.374 213.32C204.051 213.943 203.64 214.519 203.142 215.047C202.907 215.296 202.683 215.516 202.471 215.707C202.258 215.898 202.06 216.085 201.877 216.268C201.701 216.444 201.554 216.631 201.437 216.829C201.231 217.174 201.11 217.467 201.074 217.709C201.037 217.944 201.019 218.274 201.019 218.699H198.214ZM198.236 223V220.085H201.019V223H198.236ZM212.127 223V207.16H214.778V223H212.127ZM218.073 223V207.16H227.61V209.811H220.724V213.76H226.29V216.4H220.724V223H218.073ZM237.843 223V216.51L232.453 207.16H235.544L239.185 213.474L242.815 207.16H245.906L240.527 216.51V223H237.843ZM247.442 223V207.16H257.672V209.646H250.093V213.551H256.352V216.037H250.093V220.514H257.672V223H247.442ZM266.024 223.33C264.865 223.33 263.82 223.128 262.889 222.725C261.965 222.322 261.202 221.746 260.601 220.998C260.007 220.243 259.629 219.348 259.468 218.314L262.218 217.896C262.453 218.835 262.933 219.561 263.659 220.074C264.392 220.587 265.236 220.844 266.189 220.844C266.754 220.844 267.285 220.756 267.784 220.58C268.283 220.404 268.686 220.147 268.994 219.81C269.309 219.473 269.467 219.058 269.467 218.567C269.467 218.347 269.43 218.145 269.357 217.962C269.284 217.771 269.174 217.603 269.027 217.456C268.888 217.309 268.704 217.177 268.477 217.06C268.257 216.935 268 216.829 267.707 216.741L263.615 215.531C263.263 215.428 262.882 215.293 262.471 215.124C262.068 214.948 261.683 214.71 261.316 214.409C260.957 214.101 260.66 213.712 260.425 213.243C260.198 212.766 260.084 212.18 260.084 211.483C260.084 210.464 260.341 209.609 260.854 208.92C261.375 208.223 262.071 207.703 262.944 207.358C263.824 207.013 264.799 206.845 265.87 206.852C266.955 206.859 267.923 207.046 268.774 207.413C269.625 207.772 270.336 208.297 270.908 208.986C271.48 209.675 271.883 210.508 272.118 211.483L269.269 211.978C269.152 211.421 268.924 210.948 268.587 210.559C268.257 210.163 267.85 209.862 267.366 209.657C266.889 209.452 266.38 209.342 265.837 209.327C265.309 209.32 264.818 209.4 264.363 209.569C263.916 209.73 263.553 209.965 263.274 210.273C263.003 210.581 262.867 210.94 262.867 211.351C262.867 211.74 262.984 212.059 263.219 212.308C263.454 212.55 263.743 212.744 264.088 212.891C264.44 213.03 264.796 213.148 265.155 213.243L267.993 214.035C268.382 214.138 268.818 214.277 269.302 214.453C269.786 214.629 270.252 214.875 270.699 215.19C271.146 215.505 271.513 215.92 271.799 216.433C272.092 216.946 272.239 217.599 272.239 218.391C272.239 219.212 272.067 219.935 271.722 220.558C271.385 221.174 270.926 221.687 270.347 222.098C269.768 222.509 269.104 222.817 268.356 223.022C267.615 223.227 266.838 223.33 266.024 223.33ZM273.841 225.805L273.995 224.661C274.333 224.69 274.6 224.632 274.798 224.485C274.996 224.346 275.128 224.144 275.194 223.88C275.268 223.623 275.286 223.33 275.249 223H273.841V220.173H276.558V223.11C276.558 224.071 276.331 224.797 275.876 225.288C275.422 225.779 274.743 225.952 273.841 225.805ZM288.491 223L283.86 207.16H286.643L289.8 218.6L292.946 207.182L295.729 207.16L298.886 218.6L302.032 207.16H304.815L300.195 223H297.577L294.332 211.736L291.109 223H288.491ZM306.61 223V207.16H309.261V213.826H316.763V207.16H319.403V223H316.763V216.312H309.261V223H306.61ZM329.186 223.33C327.602 223.33 326.246 222.985 325.116 222.296C323.987 221.599 323.118 220.631 322.509 219.392C321.908 218.153 321.607 216.715 321.607 215.08C321.607 213.445 321.908 212.007 322.509 210.768C323.118 209.529 323.987 208.564 325.116 207.875C326.246 207.178 327.602 206.83 329.186 206.83C330.77 206.83 332.127 207.178 333.256 207.875C334.393 208.564 335.262 209.529 335.863 210.768C336.472 212.007 336.776 213.445 336.776 215.08C336.776 216.715 336.472 218.153 335.863 219.392C335.262 220.631 334.393 221.599 333.256 222.296C332.127 222.985 330.77 223.33 329.186 223.33ZM329.186 220.833C330.25 220.84 331.133 220.606 331.837 220.129C332.549 219.652 333.08 218.981 333.432 218.116C333.792 217.251 333.971 216.239 333.971 215.08C333.971 213.921 333.792 212.917 333.432 212.066C333.08 211.208 332.549 210.541 331.837 210.064C331.133 209.587 330.25 209.342 329.186 209.327C328.123 209.32 327.239 209.554 326.535 210.031C325.831 210.508 325.3 211.179 324.94 212.044C324.588 212.909 324.412 213.921 324.412 215.08C324.412 216.239 324.588 217.247 324.94 218.105C325.292 218.956 325.82 219.619 326.524 220.096C327.236 220.573 328.123 220.818 329.186 220.833ZM343.37 223V207.16H348.419C348.551 207.16 348.811 207.164 349.2 207.171C349.596 207.178 349.977 207.204 350.344 207.248C351.598 207.409 352.658 207.857 353.523 208.59C354.396 209.316 355.056 210.244 355.503 211.373C355.95 212.502 356.174 213.738 356.174 215.08C356.174 216.422 355.95 217.658 355.503 218.787C355.056 219.916 354.396 220.848 353.523 221.581C352.658 222.307 351.598 222.751 350.344 222.912C349.985 222.956 349.607 222.982 349.211 222.989C348.815 222.996 348.551 223 348.419 223H343.37ZM346.065 220.503H348.419C348.639 220.503 348.918 220.496 349.255 220.481C349.6 220.466 349.904 220.433 350.168 220.382C350.916 220.243 351.525 219.909 351.994 219.381C352.463 218.853 352.808 218.211 353.028 217.456C353.255 216.701 353.369 215.909 353.369 215.08C353.369 214.222 353.255 213.415 353.028 212.66C352.801 211.905 352.449 211.27 351.972 210.757C351.503 210.244 350.901 209.917 350.168 209.778C349.904 209.719 349.6 209.686 349.255 209.679C348.918 209.664 348.639 209.657 348.419 209.657H346.065V220.503ZM365.473 223.33C363.889 223.33 362.533 222.985 361.403 222.296C360.274 221.599 359.405 220.631 358.796 219.392C358.195 218.153 357.894 216.715 357.894 215.08C357.894 213.445 358.195 212.007 358.796 210.768C359.405 209.529 360.274 208.564 361.403 207.875C362.533 207.178 363.889 206.83 365.473 206.83C367.057 206.83 368.414 207.178 369.543 207.875C370.68 208.564 371.549 209.529 372.15 210.768C372.759 212.007 373.063 213.445 373.063 215.08C373.063 216.715 372.759 218.153 372.15 219.392C371.549 220.631 370.68 221.599 369.543 222.296C368.414 222.985 367.057 223.33 365.473 223.33ZM365.473 220.833C366.537 220.84 367.42 220.606 368.124 220.129C368.836 219.652 369.367 218.981 369.719 218.116C370.079 217.251 370.258 216.239 370.258 215.08C370.258 213.921 370.079 212.917 369.719 212.066C369.367 211.208 368.836 210.541 368.124 210.064C367.42 209.587 366.537 209.342 365.473 209.327C364.41 209.32 363.526 209.554 362.822 210.031C362.118 210.508 361.587 211.179 361.227 212.044C360.875 212.909 360.699 213.921 360.699 215.08C360.699 216.239 360.875 217.247 361.227 218.105C361.579 218.956 362.107 219.619 362.811 220.096C363.523 220.573 364.41 220.818 365.473 220.833ZM383.507 223V216.51L378.117 207.16H381.208L384.849 213.474L388.479 207.16H391.57L386.191 216.51V223H383.507ZM398.925 223.33C397.341 223.33 395.984 222.985 394.855 222.296C393.725 221.599 392.856 220.631 392.248 219.392C391.646 218.153 391.346 216.715 391.346 215.08C391.346 213.445 391.646 212.007 392.248 210.768C392.856 209.529 393.725 208.564 394.855 207.875C395.984 207.178 397.341 206.83 398.925 206.83C400.509 206.83 401.865 207.178 402.995 207.875C404.131 208.564 405 209.529 405.602 210.768C406.21 212.007 406.515 213.445 406.515 215.08C406.515 216.715 406.21 218.153 405.602 219.392C405 220.631 404.131 221.599 402.995 222.296C401.865 222.985 400.509 223.33 398.925 223.33ZM398.925 220.833C399.988 220.84 400.872 220.606 401.576 220.129C402.287 219.652 402.819 218.981 403.171 218.116C403.53 217.251 403.71 216.239 403.71 215.08C403.71 213.921 403.53 212.917 403.171 212.066C402.819 211.208 402.287 210.541 401.576 210.064C400.872 209.587 399.988 209.342 398.925 209.327C397.861 209.32 396.978 209.554 396.274 210.031C395.57 210.508 395.038 211.179 394.679 212.044C394.327 212.909 394.151 213.921 394.151 215.08C394.151 216.239 394.327 217.247 394.679 218.105C395.031 218.956 395.559 219.619 396.263 220.096C396.974 220.573 397.861 220.818 398.925 220.833ZM415.084 223.33C413.823 223.33 412.712 223.073 411.751 222.56C410.798 222.047 410.05 221.324 409.507 220.393C408.972 219.462 408.704 218.369 408.704 217.115V207.182L411.388 207.16V217.049C411.388 217.643 411.487 218.175 411.685 218.644C411.89 219.113 412.165 219.513 412.51 219.843C412.855 220.166 413.251 220.411 413.698 220.58C414.145 220.749 414.607 220.833 415.084 220.833C415.575 220.833 416.041 220.749 416.481 220.58C416.928 220.404 417.324 220.155 417.669 219.832C418.014 219.502 418.285 219.102 418.483 218.633C418.681 218.164 418.78 217.636 418.78 217.049V207.16H421.464V217.115C421.464 218.369 421.193 219.462 420.65 220.393C420.115 221.324 419.367 222.047 418.406 222.56C417.453 223.073 416.345 223.33 415.084 223.33ZM432.748 223V209.646H427.622V207.16H440.525V209.646H435.399V223H432.748ZM440.754 223L445.748 207.16H449.631L454.625 223H451.897L447.365 208.788H447.959L443.482 223H440.754ZM443.537 219.568V217.093H451.853V219.568H443.537ZM456.614 223V207.16H459.265V214.508L465.59 207.16H468.846L462.037 214.926L469.308 223H465.942L459.265 215.608V223H456.614ZM470.858 223V207.16H481.088V209.646H473.509V213.551H479.768V216.037H473.509V220.514H481.088V223H470.858ZM487.032 223L492.026 207.16H495.909L500.903 223H498.175L493.643 208.788H494.237L489.76 223H487.032ZM489.815 219.568V217.093H498.131V219.568H489.815ZM502.892 223V207.16H512.429V209.811H505.543V213.76H511.109V216.4H505.543V223H502.892ZM518.213 223V209.646H513.087V207.16H525.99V209.646H520.864V223H518.213ZM527.749 223V207.16H537.979V209.646H530.4V213.551H536.659V216.037H530.4V220.514H537.979V223H527.749ZM540.618 223V207.16H547.163C547.317 207.16 547.515 207.167 547.757 207.182C547.999 207.189 548.223 207.211 548.428 207.248C549.345 207.387 550.1 207.692 550.694 208.161C551.295 208.63 551.739 209.224 552.025 209.943C552.318 210.654 552.465 211.446 552.465 212.319C552.465 213.61 552.139 214.721 551.486 215.652C550.833 216.576 549.832 217.148 548.483 217.368L547.35 217.467H543.269V223H540.618ZM549.715 223L546.591 216.554L549.286 215.96L552.718 223H549.715ZM543.269 214.992H547.053C547.2 214.992 547.365 214.985 547.548 214.97C547.731 214.955 547.9 214.926 548.054 214.882C548.494 214.772 548.839 214.578 549.088 214.299C549.345 214.02 549.524 213.705 549.627 213.353C549.737 213.001 549.792 212.656 549.792 212.319C549.792 211.982 549.737 211.637 549.627 211.285C549.524 210.926 549.345 210.607 549.088 210.328C548.839 210.049 548.494 209.855 548.054 209.745C547.9 209.701 547.731 209.675 547.548 209.668C547.365 209.653 547.2 209.646 547.053 209.646H543.269V214.992ZM558.013 218.699C558.013 218.193 558.06 217.705 558.156 217.236C558.258 216.759 558.423 216.319 558.651 215.916C558.849 215.527 559.069 215.219 559.311 214.992C559.553 214.757 559.824 214.526 560.125 214.299C560.425 214.064 560.759 213.753 561.126 213.364C561.426 213.034 561.624 212.708 561.72 212.385C561.815 212.055 561.863 211.703 561.863 211.329C561.863 211.087 561.837 210.86 561.786 210.647C561.734 210.434 561.643 210.251 561.511 210.097C561.305 209.826 561.041 209.635 560.719 209.525C560.396 209.408 560.051 209.349 559.685 209.349C559.384 209.349 559.094 209.389 558.816 209.47C558.544 209.543 558.313 209.661 558.123 209.822C557.903 209.998 557.741 210.214 557.639 210.471C557.536 210.728 557.488 211.01 557.496 211.318H554.702C554.775 210.585 554.973 209.906 555.296 209.283C555.626 208.652 556.058 208.15 556.594 207.776C557.012 207.468 557.481 207.237 558.002 207.083C558.53 206.929 559.058 206.852 559.586 206.852C560.392 206.852 561.151 206.977 561.863 207.226C562.581 207.475 563.179 207.886 563.656 208.458C563.986 208.832 564.235 209.265 564.404 209.756C564.58 210.247 564.668 210.746 564.668 211.252C564.668 212.007 564.503 212.697 564.173 213.32C563.85 213.943 563.439 214.519 562.941 215.047C562.706 215.296 562.482 215.516 562.27 215.707C562.057 215.898 561.859 216.085 561.676 216.268C561.5 216.444 561.353 216.631 561.236 216.829C561.03 217.174 560.909 217.467 560.873 217.709C560.836 217.944 560.818 218.274 560.818 218.699H558.013ZM558.035 223V220.085H560.818V223H558.035Z" fill="white"></path> <rect x="20" y="20" width="248" height="40" rx="20" fill="white" fill-opacity="0.3"></rect> <path d="M32.8122 46L36.6682 34.48H38.6522L42.5082 46H41.0282L37.4202 35.312H37.8682L34.2922 46H32.8122ZM34.6682 43.304V41.968H40.6522V43.304H34.6682ZM43.9403 46V34.48H48.4923C48.6043 34.48 48.7376 34.4853 48.8923 34.496C49.047 34.5013 49.1963 34.5173 49.3403 34.544C49.9643 34.64 50.487 34.8533 50.9083 35.184C51.335 35.5147 51.655 35.9333 51.8683 36.44C52.0816 36.9413 52.1883 37.4987 52.1883 38.112C52.1883 38.72 52.079 39.2773 51.8603 39.784C51.647 40.2853 51.327 40.704 50.9003 41.04C50.479 41.3707 49.959 41.584 49.3403 41.68C49.1963 41.7013 49.047 41.7173 48.8923 41.728C48.7376 41.7387 48.6043 41.744 48.4923 41.744H45.3643V46H43.9403ZM45.3643 40.392H48.4443C48.5456 40.392 48.6603 40.3867 48.7883 40.376C48.9216 40.3653 49.047 40.3467 49.1643 40.32C49.5323 40.2347 49.831 40.08 50.0603 39.856C50.295 39.6267 50.4656 39.36 50.5723 39.056C50.679 38.7467 50.7323 38.432 50.7323 38.112C50.7323 37.792 50.679 37.48 50.5723 37.176C50.4656 36.8667 50.295 36.5973 50.0603 36.368C49.831 36.1387 49.5323 35.984 49.1643 35.904C49.047 35.872 48.9216 35.8533 48.7883 35.848C48.6603 35.8373 48.5456 35.832 48.4443 35.832H45.3643V40.392ZM53.7841 46V34.48H58.3361C58.4481 34.48 58.5814 34.4853 58.7361 34.496C58.8907 34.5013 59.0401 34.5173 59.1841 34.544C59.8081 34.64 60.3307 34.8533 60.7521 35.184C61.1787 35.5147 61.4987 35.9333 61.7121 36.44C61.9254 36.9413 62.0321 37.4987 62.0321 38.112C62.0321 38.72 61.9227 39.2773 61.7041 39.784C61.4907 40.2853 61.1707 40.704 60.7441 41.04C60.3227 41.3707 59.8027 41.584 59.1841 41.68C59.0401 41.7013 58.8907 41.7173 58.7361 41.728C58.5814 41.7387 58.4481 41.744 58.3361 41.744H55.2081V46H53.7841ZM55.2081 40.392H58.2881C58.3894 40.392 58.5041 40.3867 58.6321 40.376C58.7654 40.3653 58.8907 40.3467 59.0081 40.32C59.3761 40.2347 59.6747 40.08 59.9041 39.856C60.1387 39.6267 60.3094 39.36 60.4161 39.056C60.5227 38.7467 60.5761 38.432 60.5761 38.112C60.5761 37.792 60.5227 37.48 60.4161 37.176C60.3094 36.8667 60.1387 36.5973 59.9041 36.368C59.6747 36.1387 59.3761 35.984 59.0081 35.904C58.8907 35.872 58.7654 35.8533 58.6321 35.848C58.5041 35.8373 58.3894 35.832 58.2881 35.832H55.2081V40.392ZM63.6278 46V34.48H70.9078V35.832H65.0518V39.44H69.9478V40.792H65.0518V44.648H70.9078V46H63.6278ZM72.0309 46L75.8869 34.48H77.8709L81.7269 46H80.2469L76.6389 35.312H77.0869L73.5109 46H72.0309ZM73.8869 43.304V41.968H79.8709V43.304H73.8869ZM83.1591 46V34.48H87.7111C87.8231 34.48 87.9564 34.4853 88.1111 34.496C88.2657 34.5013 88.4151 34.5173 88.5591 34.544C89.1831 34.64 89.7057 34.8533 90.1271 35.184C90.5537 35.5147 90.8737 35.9333 91.0871 36.44C91.3004 36.9413 91.4071 37.4987 91.4071 38.112C91.4071 39.0027 91.1751 39.776 90.7111 40.432C90.2471 41.0827 89.5671 41.4907 88.6711 41.656L88.1271 41.744H84.5831V46H83.1591ZM90.0151 46L87.7431 41.312L89.1511 40.88L91.6471 46H90.0151ZM84.5831 40.392H87.6631C87.7644 40.392 87.8791 40.3867 88.0071 40.376C88.1404 40.3653 88.2657 40.3467 88.3831 40.32C88.7511 40.2347 89.0497 40.08 89.2791 39.856C89.5137 39.6267 89.6844 39.36 89.7911 39.056C89.8977 38.7467 89.9511 38.432 89.9511 38.112C89.9511 37.792 89.8977 37.48 89.7911 37.176C89.6844 36.8667 89.5137 36.5973 89.2791 36.368C89.0497 36.1387 88.7511 35.984 88.3831 35.904C88.2657 35.872 88.1404 35.8533 88.0071 35.848C87.8791 35.8373 87.7644 35.832 87.6631 35.832H84.5831V40.392ZM92.6091 46L96.4651 34.48H98.4491L102.305 46H100.825L97.2171 35.312H97.6651L94.0891 46H92.6091ZM94.4651 43.304V41.968H100.449V43.304H94.4651ZM103.737 46V34.48H105.177L111.185 43.48V34.48H112.625V46H111.185L105.177 36.992V46H103.737ZM119.598 46.24C118.452 46.24 117.478 45.9867 116.678 45.48C115.878 44.9733 115.268 44.2693 114.846 43.368C114.43 42.4667 114.222 41.424 114.222 40.24C114.222 39.056 114.43 38.0133 114.846 37.112C115.268 36.2107 115.878 35.5067 116.678 35C117.478 34.4933 118.452 34.24 119.598 34.24C120.932 34.24 122.028 34.5787 122.886 35.256C123.75 35.9333 124.345 36.8453 124.67 37.992L123.222 38.376C122.988 37.5173 122.569 36.84 121.966 36.344C121.364 35.848 120.574 35.6 119.598 35.6C118.74 35.6 118.025 35.7947 117.454 36.184C116.884 36.5733 116.454 37.1173 116.166 37.816C115.878 38.5093 115.732 39.3173 115.726 40.24C115.721 41.1573 115.862 41.9653 116.15 42.664C116.438 43.3573 116.87 43.9013 117.446 44.296C118.022 44.6853 118.74 44.88 119.598 44.88C120.574 44.88 121.364 44.632 121.966 44.136C122.569 43.6347 122.988 42.9573 123.222 42.104L124.67 42.488C124.345 43.6293 123.75 44.5413 122.886 45.224C122.028 45.9013 120.932 46.24 119.598 46.24ZM126.425 46V34.48H133.705V35.832H127.849V39.44H132.745V40.792H127.849V44.648H133.705V46H126.425ZM142.575 46.24C141.935 46.24 141.338 46.1467 140.783 45.96C140.228 45.7733 139.764 45.48 139.391 45.08C139.103 44.76 138.887 44.408 138.743 44.024C138.604 43.6347 138.527 43.224 138.511 42.792C138.511 42.3707 138.572 41.96 138.695 41.56C138.818 41.1547 139.012 40.7947 139.279 40.48C139.418 40.3093 139.572 40.1653 139.743 40.048C139.919 39.9253 140.095 39.8213 140.271 39.736C139.903 39.3413 139.62 38.9707 139.423 38.624C139.231 38.2773 139.135 37.8587 139.135 37.368C139.135 36.744 139.295 36.1813 139.615 35.68C139.94 35.1733 140.383 34.8027 140.943 34.568C141.215 34.4507 141.492 34.3707 141.775 34.328C142.063 34.28 142.343 34.256 142.615 34.256C143.074 34.256 143.519 34.32 143.951 34.448C144.383 34.576 144.751 34.784 145.055 35.072C145.258 35.2427 145.431 35.44 145.575 35.664C145.719 35.8827 145.831 36.112 145.911 36.352L144.519 36.712C144.418 36.44 144.25 36.2107 144.015 36.024C143.828 35.864 143.61 35.7547 143.359 35.696C143.114 35.6373 142.866 35.608 142.615 35.608C142.199 35.608 141.823 35.688 141.487 35.848C141.188 35.992 140.964 36.1947 140.815 36.456C140.666 36.712 140.591 37.016 140.591 37.368C140.591 37.672 140.642 37.9227 140.743 38.12C140.85 38.312 140.996 38.5173 141.183 38.736C141.295 38.8533 141.42 38.9787 141.559 39.112C141.703 39.24 141.85 39.3733 141.999 39.512L145.391 42.664C145.407 42.5307 145.418 42.3947 145.423 42.256C145.428 42.1173 145.431 41.984 145.431 41.856L145.423 40.264H146.727V42.136C146.727 42.5147 146.714 42.8373 146.687 43.104C146.666 43.3707 146.628 43.592 146.575 43.768L148.039 45.12L147.111 46.112L145.895 44.96C145.687 45.1947 145.439 45.4 145.151 45.576C144.863 45.752 144.575 45.8853 144.287 45.976C144.015 46.0773 143.735 46.1467 143.447 46.184C143.159 46.2213 142.868 46.24 142.575 46.24ZM142.607 44.872C142.868 44.872 143.106 44.856 143.319 44.824C143.532 44.792 143.735 44.7307 143.927 44.64C144.183 44.5173 144.38 44.4 144.519 44.288C144.658 44.176 144.772 44.072 144.863 43.976L141.351 40.76C141.159 40.824 140.978 40.9093 140.807 41.016C140.642 41.1227 140.498 41.248 140.375 41.392C140.236 41.5627 140.132 41.7627 140.063 41.992C139.999 42.2213 139.967 42.464 139.967 42.72C139.972 42.992 140.018 43.2427 140.103 43.472C140.188 43.7013 140.308 43.9067 140.463 44.088C140.698 44.36 141.015 44.56 141.415 44.688C141.815 44.8107 142.212 44.872 142.607 44.872ZM152.55 46V34.48H157.102C157.214 34.48 157.347 34.4853 157.502 34.496C157.656 34.5013 157.806 34.5173 157.95 34.544C158.574 34.64 159.096 34.8533 159.518 35.184C159.944 35.5147 160.264 35.9333 160.478 36.44C160.691 36.9413 160.798 37.4987 160.798 38.112C160.798 38.72 160.688 39.2773 160.47 39.784C160.256 40.2853 159.936 40.704 159.51 41.04C159.088 41.3707 158.568 41.584 157.95 41.68C157.806 41.7013 157.656 41.7173 157.502 41.728C157.347 41.7387 157.214 41.744 157.102 41.744H153.974V46H152.55ZM153.974 40.392H157.054C157.155 40.392 157.27 40.3867 157.398 40.376C157.531 40.3653 157.656 40.3467 157.774 40.32C158.142 40.2347 158.44 40.08 158.67 39.856C158.904 39.6267 159.075 39.36 159.182 39.056C159.288 38.7467 159.342 38.432 159.342 38.112C159.342 37.792 159.288 37.48 159.182 37.176C159.075 36.8667 158.904 36.5973 158.67 36.368C158.44 36.1387 158.142 35.984 157.774 35.904C157.656 35.872 157.531 35.8533 157.398 35.848C157.27 35.8373 157.155 35.832 157.054 35.832H153.974V40.392ZM162.393 46V34.48H169.673V35.832H163.817V39.44H168.713V40.792H163.817V44.648H169.673V46H162.393ZM171.597 46V34.48H176.149C176.261 34.48 176.394 34.4853 176.549 34.496C176.703 34.5013 176.853 34.5173 176.997 34.544C177.621 34.64 178.143 34.8533 178.565 35.184C178.991 35.5147 179.311 35.9333 179.525 36.44C179.738 36.9413 179.845 37.4987 179.845 38.112C179.845 39.0027 179.613 39.776 179.149 40.432C178.685 41.0827 178.005 41.4907 177.109 41.656L176.565 41.744H173.021V46H171.597ZM178.453 46L176.181 41.312L177.589 40.88L180.085 46H178.453ZM173.021 40.392H176.101C176.202 40.392 176.317 40.3867 176.445 40.376C176.578 40.3653 176.703 40.3467 176.821 40.32C177.189 40.2347 177.487 40.08 177.717 39.856C177.951 39.6267 178.122 39.36 178.229 39.056C178.335 38.7467 178.389 38.432 178.389 38.112C178.389 37.792 178.335 37.48 178.229 37.176C178.122 36.8667 177.951 36.5973 177.717 36.368C177.487 36.1387 177.189 35.984 176.821 35.904C176.703 35.872 176.578 35.8533 176.445 35.848C176.317 35.8373 176.202 35.832 176.101 35.832H173.021V40.392ZM185.935 46.24C185.119 46.24 184.383 46.1013 183.727 45.824C183.076 45.5467 182.537 45.152 182.111 44.64C181.689 44.1227 181.415 43.512 181.287 42.808L182.759 42.576C182.945 43.3013 183.332 43.8693 183.919 44.28C184.511 44.6853 185.207 44.888 186.007 44.888C186.524 44.888 186.991 44.808 187.407 44.648C187.828 44.4827 188.161 44.248 188.407 43.944C188.652 43.64 188.775 43.28 188.775 42.864C188.775 42.608 188.729 42.3893 188.639 42.208C188.553 42.0213 188.433 41.864 188.279 41.736C188.129 41.6027 187.959 41.4907 187.767 41.4C187.575 41.3093 187.375 41.2347 187.167 41.176L184.231 40.304C183.911 40.208 183.601 40.088 183.303 39.944C183.004 39.7947 182.737 39.6107 182.503 39.392C182.268 39.168 182.081 38.9013 181.943 38.592C181.804 38.2773 181.735 37.9067 181.735 37.48C181.735 36.7973 181.911 36.216 182.263 35.736C182.62 35.2507 183.103 34.88 183.711 34.624C184.319 34.368 185.004 34.2427 185.767 34.248C186.54 34.2533 187.231 34.392 187.839 34.664C188.452 34.9307 188.959 35.3147 189.359 35.816C189.764 36.3173 190.036 36.9173 190.175 37.616L188.663 37.88C188.583 37.4107 188.404 37.008 188.127 36.672C187.855 36.3307 187.513 36.0693 187.103 35.888C186.692 35.7013 186.241 35.6053 185.751 35.6C185.281 35.5947 184.857 35.6693 184.479 35.824C184.1 35.9787 183.799 36.1947 183.575 36.472C183.351 36.744 183.239 37.0587 183.239 37.416C183.239 37.768 183.34 38.0533 183.543 38.272C183.745 38.4853 183.993 38.656 184.287 38.784C184.585 38.9067 184.876 39.008 185.159 39.088L187.351 39.72C187.601 39.7893 187.889 39.8853 188.215 40.008C188.545 40.1307 188.865 40.304 189.175 40.528C189.484 40.7467 189.74 41.04 189.943 41.408C190.145 41.7707 190.247 42.2293 190.247 42.784C190.247 43.3387 190.135 43.832 189.911 44.264C189.692 44.696 189.385 45.0587 188.991 45.352C188.596 45.64 188.137 45.8587 187.615 46.008C187.092 46.1627 186.532 46.24 185.935 46.24ZM196.661 46.24C195.514 46.24 194.541 45.9867 193.741 45.48C192.941 44.9733 192.33 44.2693 191.909 43.368C191.493 42.4667 191.285 41.424 191.285 40.24C191.285 39.056 191.493 38.0133 191.909 37.112C192.33 36.2107 192.941 35.5067 193.741 35C194.541 34.4933 195.514 34.24 196.661 34.24C197.813 34.24 198.789 34.4933 199.589 35C200.389 35.5067 200.997 36.2107 201.413 37.112C201.829 38.0133 202.037 39.056 202.037 40.24C202.037 41.424 201.829 42.4667 201.413 43.368C200.997 44.2693 200.389 44.9733 199.589 45.48C198.789 45.9867 197.813 46.24 196.661 46.24ZM196.661 44.88C197.519 44.8853 198.234 44.6933 198.805 44.304C199.381 43.9093 199.81 43.3627 200.093 42.664C200.381 41.9653 200.525 41.1573 200.525 40.24C200.525 39.3173 200.381 38.5093 200.093 37.816C199.81 37.1227 199.381 36.5813 198.805 36.192C198.234 35.8027 197.519 35.6053 196.661 35.6C195.802 35.5947 195.087 35.7867 194.517 36.176C193.951 36.5653 193.525 37.1093 193.237 37.808C192.949 38.5067 192.802 39.3173 192.797 40.24C192.791 41.1573 192.933 41.9627 193.221 42.656C193.509 43.3493 193.938 43.8933 194.509 44.288C195.085 44.6773 195.802 44.8747 196.661 44.88ZM203.643 46V34.48H205.083L211.091 43.48V34.48H212.531V46H211.091L205.083 36.992V46H203.643ZM213.968 46L217.824 34.48H219.808L223.664 46H222.184L218.576 35.312H219.024L215.448 46H213.968ZM215.824 43.304V41.968H221.808V43.304H215.824ZM225.257 46V34.48H226.681V44.648H232.025V46H225.257ZM233.538 46V34.48H234.962V46H233.538ZM240.33 46V35.832H236.402V34.48H245.682V35.832H241.754V46H240.33ZM250.2 46V41.208L246.32 34.48H247.976L250.92 39.576L253.856 34.48H255.512L251.64 41.208V46H250.2Z" fill="white"></path> <defs> <linearGradient id="paint0_linear_160_282" x1="300" y1="0" x2="300" y2="400" gradientUnits="userSpaceOnUse"> <stop stop-color="#B0772C"></stop> <stop offset="1" stop-color="#FBBC69"></stop> </linearGradient> </defs> </svg> 