<?xml version="1.0" encoding="UTF-8"?> <svg xmlns="http://www.w3.org/2000/svg" width="600" height="400" viewBox="0 0 600 400" fill="none"> <rect width="600" height="400" rx="20" fill="url(#paint0_linear_160_258)"></rect> <path d="M92.8316 180L97.8256 164.16H101.709L106.703 180H103.975L99.4426 165.788H100.037L95.5596 180H92.8316ZM95.6146 176.568V174.093H103.931V176.568H95.6146ZM108.691 180V164.16H115.236C115.39 164.16 115.588 164.167 115.83 164.182C116.072 164.189 116.296 164.211 116.501 164.248C117.418 164.387 118.173 164.692 118.767 165.161C119.369 165.63 119.812 166.224 120.098 166.943C120.392 167.654 120.538 168.446 120.538 169.319C120.538 170.61 120.212 171.721 119.559 172.652C118.907 173.576 117.906 174.148 116.556 174.368L115.423 174.467H111.342V180H108.691ZM117.788 180L114.664 173.554L117.359 172.96L120.791 180H117.788ZM111.342 171.992H115.126C115.273 171.992 115.438 171.985 115.621 171.97C115.805 171.955 115.973 171.926 116.127 171.882C116.567 171.772 116.912 171.578 117.161 171.299C117.418 171.02 117.598 170.705 117.7 170.353C117.81 170.001 117.865 169.656 117.865 169.319C117.865 168.982 117.81 168.637 117.7 168.285C117.598 167.926 117.418 167.607 117.161 167.328C116.912 167.049 116.567 166.855 116.127 166.745C115.973 166.701 115.805 166.675 115.621 166.668C115.438 166.653 115.273 166.646 115.126 166.646H111.342V171.992ZM123.215 180V164.16H133.445V166.646H125.866V170.551H132.125V173.037H125.866V177.514H133.445V180H123.215ZM144.294 180V166.646H139.168V164.16H152.071V166.646H146.945V180H144.294ZM153.83 180V164.16H156.481V170.826H163.983V164.16H166.623V180H163.983V173.312H156.481V180H153.83ZM169.707 180V164.16H179.937V166.646H172.358V170.551H178.617V173.037H172.358V177.514H179.937V180H169.707ZM182.576 180V164.16H189.121C189.275 164.16 189.473 164.167 189.715 164.182C189.957 164.189 190.181 164.211 190.386 164.248C191.303 164.387 192.058 164.692 192.652 165.161C193.253 165.63 193.697 166.224 193.983 166.943C194.276 167.654 194.423 168.446 194.423 169.319C194.423 170.61 194.097 171.721 193.444 172.652C192.791 173.576 191.79 174.148 190.441 174.368L189.308 174.467H185.227V180H182.576ZM191.673 180L188.549 173.554L191.244 172.96L194.676 180H191.673ZM185.227 171.992H189.011C189.158 171.992 189.323 171.985 189.506 171.97C189.689 171.955 189.858 171.926 190.012 171.882C190.452 171.772 190.797 171.578 191.046 171.299C191.303 171.02 191.482 170.705 191.585 170.353C191.695 170.001 191.75 169.656 191.75 169.319C191.75 168.982 191.695 168.637 191.585 168.285C191.482 167.926 191.303 167.607 191.046 167.328C190.797 167.049 190.452 166.855 190.012 166.745C189.858 166.701 189.689 166.675 189.506 166.668C189.323 166.653 189.158 166.646 189.011 166.646H185.227V171.992ZM197.1 180V164.16H207.33V166.646H199.751V170.551H206.01V173.037H199.751V177.514H207.33V180H197.1ZM213.273 180L218.267 164.16H222.15L227.144 180H224.416L219.884 165.788H220.478L216.001 180H213.273ZM216.056 176.568V174.093H224.372V176.568H216.056ZM229.133 180V164.16H231.817L239.165 175.325V164.16H241.849V180H239.165L231.817 168.835V180H229.133ZM248.774 180V173.51L243.384 164.16H246.475L250.116 170.474L253.746 164.16H256.837L251.458 173.51V180H248.774ZM261.896 180V164.16H268.441C268.595 164.16 268.793 164.167 269.035 164.182C269.277 164.189 269.501 164.211 269.706 164.248C270.623 164.387 271.378 164.692 271.972 165.161C272.574 165.63 273.017 166.224 273.303 166.943C273.597 167.654 273.743 168.446 273.743 169.319C273.743 170.184 273.597 170.976 273.303 171.695C273.01 172.406 272.563 172.997 271.961 173.466C271.367 173.935 270.616 174.24 269.706 174.379C269.501 174.408 269.274 174.43 269.024 174.445C268.782 174.46 268.588 174.467 268.441 174.467H264.547V180H261.896ZM264.547 171.992H268.331C268.478 171.992 268.643 171.985 268.826 171.97C269.01 171.955 269.178 171.926 269.332 171.882C269.772 171.772 270.117 171.578 270.366 171.299C270.623 171.02 270.803 170.705 270.905 170.353C271.015 170.001 271.07 169.656 271.07 169.319C271.07 168.982 271.015 168.637 270.905 168.285C270.803 167.926 270.623 167.607 270.366 167.328C270.117 167.049 269.772 166.855 269.332 166.745C269.178 166.701 269.01 166.675 268.826 166.668C268.643 166.653 268.478 166.646 268.331 166.646H264.547V171.992ZM275.947 180V164.16H286.177V166.646H278.598V170.551H284.857V173.037H278.598V177.514H286.177V180H275.947ZM288.816 180V164.16H295.361C295.515 164.16 295.713 164.167 295.955 164.182C296.197 164.189 296.421 164.211 296.626 164.248C297.543 164.387 298.298 164.692 298.892 165.161C299.494 165.63 299.937 166.224 300.223 166.943C300.517 167.654 300.663 168.446 300.663 169.319C300.663 170.61 300.337 171.721 299.684 172.652C299.032 173.576 298.031 174.148 296.681 174.368L295.548 174.467H291.467V180H288.816ZM297.913 180L294.789 173.554L297.484 172.96L300.916 180H297.913ZM291.467 171.992H295.251C295.398 171.992 295.563 171.985 295.746 171.97C295.93 171.955 296.098 171.926 296.252 171.882C296.692 171.772 297.037 171.578 297.286 171.299C297.543 171.02 297.723 170.705 297.825 170.353C297.935 170.001 297.99 169.656 297.99 169.319C297.99 168.982 297.935 168.637 297.825 168.285C297.723 167.926 297.543 167.607 297.286 167.328C297.037 167.049 296.692 166.855 296.252 166.745C296.098 166.701 295.93 166.675 295.746 166.668C295.563 166.653 295.398 166.646 295.251 166.646H291.467V171.992ZM309.203 180.33C308.044 180.33 306.999 180.128 306.068 179.725C305.144 179.322 304.381 178.746 303.78 177.998C303.186 177.243 302.808 176.348 302.647 175.314L305.397 174.896C305.631 175.835 306.112 176.561 306.838 177.074C307.571 177.587 308.414 177.844 309.368 177.844C309.932 177.844 310.464 177.756 310.963 177.58C311.461 177.404 311.865 177.147 312.173 176.81C312.488 176.473 312.646 176.058 312.646 175.567C312.646 175.347 312.609 175.145 312.536 174.962C312.462 174.771 312.352 174.603 312.206 174.456C312.066 174.309 311.883 174.177 311.656 174.06C311.436 173.935 311.179 173.829 310.886 173.741L306.794 172.531C306.442 172.428 306.06 172.293 305.65 172.124C305.246 171.948 304.861 171.71 304.495 171.409C304.135 171.101 303.838 170.712 303.604 170.243C303.376 169.766 303.263 169.18 303.263 168.483C303.263 167.464 303.519 166.609 304.033 165.92C304.553 165.223 305.25 164.703 306.123 164.358C307.003 164.013 307.978 163.845 309.049 163.852C310.134 163.859 311.102 164.046 311.953 164.413C312.803 164.772 313.515 165.297 314.087 165.986C314.659 166.675 315.062 167.508 315.297 168.483L312.448 168.978C312.33 168.421 312.103 167.948 311.766 167.559C311.436 167.163 311.029 166.862 310.545 166.657C310.068 166.452 309.558 166.342 309.016 166.327C308.488 166.32 307.996 166.4 307.542 166.569C307.094 166.73 306.731 166.965 306.453 167.273C306.181 167.581 306.046 167.94 306.046 168.351C306.046 168.74 306.163 169.059 306.398 169.308C306.632 169.55 306.922 169.744 307.267 169.891C307.619 170.03 307.974 170.148 308.334 170.243L311.172 171.035C311.56 171.138 311.997 171.277 312.481 171.453C312.965 171.629 313.43 171.875 313.878 172.19C314.325 172.505 314.692 172.92 314.978 173.433C315.271 173.946 315.418 174.599 315.418 175.391C315.418 176.212 315.245 176.935 314.901 177.558C314.563 178.174 314.105 178.687 313.526 179.098C312.946 179.509 312.283 179.817 311.535 180.022C310.794 180.227 310.017 180.33 309.203 180.33ZM324.498 180.33C322.914 180.33 321.557 179.985 320.428 179.296C319.298 178.599 318.429 177.631 317.821 176.392C317.219 175.153 316.919 173.715 316.919 172.08C316.919 170.445 317.219 169.007 317.821 167.768C318.429 166.529 319.298 165.564 320.428 164.875C321.557 164.178 322.914 163.83 324.498 163.83C326.082 163.83 327.438 164.178 328.568 164.875C329.704 165.564 330.573 166.529 331.175 167.768C331.783 169.007 332.088 170.445 332.088 172.08C332.088 173.715 331.783 175.153 331.175 176.392C330.573 177.631 329.704 178.599 328.568 179.296C327.438 179.985 326.082 180.33 324.498 180.33ZM324.498 177.833C325.561 177.84 326.445 177.606 327.149 177.129C327.86 176.652 328.392 175.981 328.744 175.116C329.103 174.251 329.283 173.239 329.283 172.08C329.283 170.921 329.103 169.917 328.744 169.066C328.392 168.208 327.86 167.541 327.149 167.064C326.445 166.587 325.561 166.342 324.498 166.327C323.434 166.32 322.551 166.554 321.847 167.031C321.143 167.508 320.611 168.179 320.252 169.044C319.9 169.909 319.724 170.921 319.724 172.08C319.724 173.239 319.9 174.247 320.252 175.105C320.604 175.956 321.132 176.619 321.836 177.096C322.547 177.573 323.434 177.818 324.498 177.833ZM334.277 180V164.16H336.961L344.309 175.325V164.16H346.993V180H344.309L336.961 168.835V180H334.277ZM348.968 180L353.962 164.16H357.845L362.839 180H360.111L355.579 165.788H356.173L351.696 180H348.968ZM351.751 176.568V174.093H360.067V176.568H351.751ZM365.048 180V164.16H367.699V177.514H374.695V180H365.048ZM383.673 180V166.646H378.547V164.16H391.45V166.646H386.324V180H383.673ZM393.209 180V164.16H399.754C399.908 164.16 400.106 164.167 400.348 164.182C400.59 164.189 400.814 164.211 401.019 164.248C401.936 164.387 402.691 164.692 403.285 165.161C403.886 165.63 404.33 166.224 404.616 166.943C404.909 167.654 405.056 168.446 405.056 169.319C405.056 170.61 404.73 171.721 404.077 172.652C403.424 173.576 402.423 174.148 401.074 174.368L399.941 174.467H395.86V180H393.209ZM402.306 180L399.182 173.554L401.877 172.96L405.309 180H402.306ZM395.86 171.992H399.644C399.791 171.992 399.956 171.985 400.139 171.97C400.322 171.955 400.491 171.926 400.645 171.882C401.085 171.772 401.43 171.578 401.679 171.299C401.936 171.02 402.115 170.705 402.218 170.353C402.328 170.001 402.383 169.656 402.383 169.319C402.383 168.982 402.328 168.637 402.218 168.285C402.115 167.926 401.936 167.607 401.679 167.328C401.43 167.049 401.085 166.855 400.645 166.745C400.491 166.701 400.322 166.675 400.139 166.668C399.956 166.653 399.791 166.646 399.644 166.646H395.86V171.992ZM406.632 180L411.626 164.16H415.509L420.503 180H417.775L413.243 165.788H413.837L409.36 180H406.632ZM409.415 176.568V174.093H417.731V176.568H409.415ZM422.712 180V164.16H425.363V180H422.712ZM432.464 180V166.646H427.338V164.16H440.241V166.646H435.115V180H432.464ZM447.863 180.33C446.704 180.33 445.659 180.128 444.728 179.725C443.804 179.322 443.041 178.746 442.44 177.998C441.846 177.243 441.468 176.348 441.307 175.314L444.057 174.896C444.292 175.835 444.772 176.561 445.498 177.074C446.231 177.587 447.075 177.844 448.028 177.844C448.593 177.844 449.124 177.756 449.623 177.58C450.122 177.404 450.525 177.147 450.833 176.81C451.148 176.473 451.306 176.058 451.306 175.567C451.306 175.347 451.269 175.145 451.196 174.962C451.123 174.771 451.013 174.603 450.866 174.456C450.727 174.309 450.543 174.177 450.316 174.06C450.096 173.935 449.839 173.829 449.546 173.741L445.454 172.531C445.102 172.428 444.721 172.293 444.31 172.124C443.907 171.948 443.522 171.71 443.155 171.409C442.796 171.101 442.499 170.712 442.264 170.243C442.037 169.766 441.923 169.18 441.923 168.483C441.923 167.464 442.18 166.609 442.693 165.92C443.214 165.223 443.91 164.703 444.783 164.358C445.663 164.013 446.638 163.845 447.709 163.852C448.794 163.859 449.762 164.046 450.613 164.413C451.464 164.772 452.175 165.297 452.747 165.986C453.319 166.675 453.722 167.508 453.957 168.483L451.108 168.978C450.991 168.421 450.763 167.948 450.426 167.559C450.096 167.163 449.689 166.862 449.205 166.657C448.728 166.452 448.219 166.342 447.676 166.327C447.148 166.32 446.657 166.4 446.202 166.569C445.755 166.73 445.392 166.965 445.113 167.273C444.842 167.581 444.706 167.94 444.706 168.351C444.706 168.74 444.823 169.059 445.058 169.308C445.293 169.55 445.582 169.744 445.927 169.891C446.279 170.03 446.635 170.148 446.994 170.243L449.832 171.035C450.221 171.138 450.657 171.277 451.141 171.453C451.625 171.629 452.091 171.875 452.538 172.19C452.985 172.505 453.352 172.92 453.638 173.433C453.931 173.946 454.078 174.599 454.078 175.391C454.078 176.212 453.906 176.935 453.561 177.558C453.224 178.174 452.765 178.687 452.186 179.098C451.607 179.509 450.943 179.817 450.195 180.022C449.454 180.227 448.677 180.33 447.863 180.33ZM464.713 180V173.51L459.323 164.16H462.414L466.055 170.474L469.685 164.16H472.776L467.397 173.51V180H464.713ZM480.131 180.33C478.547 180.33 477.19 179.985 476.061 179.296C474.931 178.599 474.062 177.631 473.454 176.392C472.852 175.153 472.552 173.715 472.552 172.08C472.552 170.445 472.852 169.007 473.454 167.768C474.062 166.529 474.931 165.564 476.061 164.875C477.19 164.178 478.547 163.83 480.131 163.83C481.715 163.83 483.071 164.178 484.201 164.875C485.337 165.564 486.206 166.529 486.808 167.768C487.416 169.007 487.721 170.445 487.721 172.08C487.721 173.715 487.416 175.153 486.808 176.392C486.206 177.631 485.337 178.599 484.201 179.296C483.071 179.985 481.715 180.33 480.131 180.33ZM480.131 177.833C481.194 177.84 482.078 177.606 482.782 177.129C483.493 176.652 484.025 175.981 484.377 175.116C484.736 174.251 484.916 173.239 484.916 172.08C484.916 170.921 484.736 169.917 484.377 169.066C484.025 168.208 483.493 167.541 482.782 167.064C482.078 166.587 481.194 166.342 480.131 166.327C479.067 166.32 478.184 166.554 477.48 167.031C476.776 167.508 476.244 168.179 475.885 169.044C475.533 169.909 475.357 170.921 475.357 172.08C475.357 173.239 475.533 174.247 475.885 175.105C476.237 175.956 476.765 176.619 477.469 177.096C478.18 177.573 479.067 177.818 480.131 177.833ZM496.29 180.33C495.029 180.33 493.918 180.073 492.957 179.56C492.004 179.047 491.256 178.324 490.713 177.393C490.178 176.462 489.91 175.369 489.91 174.115V164.182L492.594 164.16V174.049C492.594 174.643 492.693 175.175 492.891 175.644C493.096 176.113 493.371 176.513 493.716 176.843C494.061 177.166 494.457 177.411 494.904 177.58C495.351 177.749 495.813 177.833 496.29 177.833C496.781 177.833 497.247 177.749 497.687 177.58C498.134 177.404 498.53 177.155 498.875 176.832C499.22 176.502 499.491 176.102 499.689 175.633C499.887 175.164 499.986 174.636 499.986 174.049V164.16H502.67V174.115C502.67 175.369 502.399 176.462 501.856 177.393C501.321 178.324 500.573 179.047 499.612 179.56C498.659 180.073 497.551 180.33 496.29 180.33ZM87.7292 209.33C86.1452 209.33 84.7886 208.985 83.6592 208.296C82.5299 207.599 81.6609 206.631 81.0522 205.392C80.4509 204.153 80.1502 202.715 80.1502 201.08C80.1502 199.445 80.4509 198.007 81.0522 196.768C81.6609 195.529 82.5299 194.564 83.6592 193.875C84.7886 193.178 86.1452 192.83 87.7292 192.83C89.5552 192.83 91.0769 193.288 92.2942 194.205C93.5116 195.114 94.3659 196.343 94.8572 197.89L92.1842 198.627C91.8762 197.593 91.3519 196.786 90.6112 196.207C89.8706 195.62 88.9099 195.327 87.7292 195.327C86.6659 195.327 85.7786 195.565 85.0672 196.042C84.3632 196.519 83.8316 197.19 83.4722 198.055C83.1202 198.913 82.9406 199.921 82.9332 201.08C82.9332 202.239 83.1092 203.251 83.4612 204.116C83.8206 204.974 84.3559 205.641 85.0672 206.118C85.7786 206.595 86.6659 206.833 87.7292 206.833C88.9099 206.833 89.8706 206.54 90.6112 205.953C91.3519 205.366 91.8762 204.56 92.1842 203.533L94.8572 204.27C94.3659 205.817 93.5116 207.049 92.2942 207.966C91.0769 208.875 89.5552 209.33 87.7292 209.33ZM95.7427 209L100.737 193.16H104.62L109.614 209H106.886L102.354 194.788H102.948L98.4707 209H95.7427ZM98.5257 205.568V203.093H106.842V205.568H98.5257ZM111.603 209V193.16H114.287L121.635 204.325V193.16H124.319V209H121.635L114.287 197.835V209H111.603ZM127.724 198.792L127.878 197.648C128.215 197.677 128.483 197.622 128.681 197.483C128.879 197.336 129.011 197.135 129.077 196.878C129.15 196.614 129.168 196.317 129.132 195.987H127.724V193.16H130.441V196.097C130.441 197.058 130.213 197.784 129.759 198.275C129.304 198.766 128.626 198.939 127.724 198.792ZM137.451 209V195.646H132.325V193.16H145.228V195.646H140.102V209H137.451ZM149.626 209L154.62 193.16H158.503L163.497 209H160.769L156.237 194.788H156.831L152.354 209H149.626ZM152.409 205.568V203.093H160.725V205.568H152.409ZM171.755 209.33C170.171 209.33 168.814 208.985 167.685 208.296C166.555 207.599 165.686 206.631 165.078 205.392C164.476 204.153 164.176 202.715 164.176 201.08C164.176 199.445 164.476 198.007 165.078 196.768C165.686 195.529 166.555 194.564 167.685 193.875C168.814 193.178 170.171 192.83 171.755 192.83C173.581 192.83 175.102 193.288 176.32 194.205C177.537 195.114 178.391 196.343 178.883 197.89L176.21 198.627C175.902 197.593 175.377 196.786 174.637 196.207C173.896 195.62 172.935 195.327 171.755 195.327C170.691 195.327 169.804 195.565 169.093 196.042C168.389 196.519 167.857 197.19 167.498 198.055C167.146 198.913 166.966 199.921 166.959 201.08C166.959 202.239 167.135 203.251 167.487 204.116C167.846 204.974 168.381 205.641 169.093 206.118C169.804 206.595 170.691 206.833 171.755 206.833C172.935 206.833 173.896 206.54 174.637 205.953C175.377 205.366 175.902 204.56 176.21 203.533L178.883 204.27C178.391 205.817 177.537 207.049 176.32 207.966C175.102 208.875 173.581 209.33 171.755 209.33ZM187.997 209.33C186.413 209.33 185.056 208.985 183.927 208.296C182.797 207.599 181.928 206.631 181.32 205.392C180.718 204.153 180.418 202.715 180.418 201.08C180.418 199.445 180.718 198.007 181.32 196.768C181.928 195.529 182.797 194.564 183.927 193.875C185.056 193.178 186.413 192.83 187.997 192.83C189.823 192.83 191.344 193.288 192.562 194.205C193.779 195.114 194.633 196.343 195.125 197.89L192.452 198.627C192.144 197.593 191.619 196.786 190.879 196.207C190.138 195.62 189.177 195.327 187.997 195.327C186.933 195.327 186.046 195.565 185.335 196.042C184.631 196.519 184.099 197.19 183.74 198.055C183.388 198.913 183.208 199.921 183.201 201.08C183.201 202.239 183.377 203.251 183.729 204.116C184.088 204.974 184.623 205.641 185.335 206.118C186.046 206.595 186.933 206.833 187.997 206.833C189.177 206.833 190.138 206.54 190.879 205.953C191.619 205.366 192.144 204.56 192.452 203.533L195.125 204.27C194.633 205.817 193.779 207.049 192.562 207.966C191.344 208.875 189.823 209.33 187.997 209.33ZM197.54 209V193.16H207.77V195.646H200.191V199.551H206.45V202.037H200.191V206.514H207.77V209H197.54ZM210.409 209V193.16H216.954C217.108 193.16 217.306 193.167 217.548 193.182C217.79 193.189 218.014 193.211 218.219 193.248C219.136 193.387 219.891 193.692 220.485 194.161C221.086 194.63 221.53 195.224 221.816 195.943C222.109 196.654 222.256 197.446 222.256 198.319C222.256 199.184 222.109 199.976 221.816 200.695C221.523 201.406 221.075 201.997 220.474 202.466C219.88 202.935 219.128 203.24 218.219 203.379C218.014 203.408 217.786 203.43 217.537 203.445C217.295 203.46 217.101 203.467 216.954 203.467H213.06V209H210.409ZM213.06 200.992H216.844C216.991 200.992 217.156 200.985 217.339 200.97C217.522 200.955 217.691 200.926 217.845 200.882C218.285 200.772 218.63 200.578 218.879 200.299C219.136 200.02 219.315 199.705 219.418 199.353C219.528 199.001 219.583 198.656 219.583 198.319C219.583 197.982 219.528 197.637 219.418 197.285C219.315 196.926 219.136 196.607 218.879 196.328C218.63 196.049 218.285 195.855 217.845 195.745C217.691 195.701 217.522 195.675 217.339 195.668C217.156 195.653 216.991 195.646 216.844 195.646H213.06V200.992ZM228.266 209V195.646H223.14V193.16H236.043V195.646H230.917V209H228.266ZM245.39 209V202.51L240 193.16H243.091L246.732 199.474L250.362 193.16H253.453L248.074 202.51V209H245.39ZM260.807 209.33C259.223 209.33 257.867 208.985 256.737 208.296C255.608 207.599 254.739 206.631 254.13 205.392C253.529 204.153 253.228 202.715 253.228 201.08C253.228 199.445 253.529 198.007 254.13 196.768C254.739 195.529 255.608 194.564 256.737 193.875C257.867 193.178 259.223 192.83 260.807 192.83C262.391 192.83 263.748 193.178 264.877 193.875C266.014 194.564 266.883 195.529 267.484 196.768C268.093 198.007 268.397 199.445 268.397 201.08C268.397 202.715 268.093 204.153 267.484 205.392C266.883 206.631 266.014 207.599 264.877 208.296C263.748 208.985 262.391 209.33 260.807 209.33ZM260.807 206.833C261.871 206.84 262.754 206.606 263.458 206.129C264.17 205.652 264.701 204.981 265.053 204.116C265.413 203.251 265.592 202.239 265.592 201.08C265.592 199.921 265.413 198.917 265.053 198.066C264.701 197.208 264.17 196.541 263.458 196.064C262.754 195.587 261.871 195.342 260.807 195.327C259.744 195.32 258.86 195.554 258.156 196.031C257.452 196.508 256.921 197.179 256.561 198.044C256.209 198.909 256.033 199.921 256.033 201.08C256.033 202.239 256.209 203.247 256.561 204.105C256.913 204.956 257.441 205.619 258.145 206.096C258.857 206.573 259.744 206.818 260.807 206.833ZM276.967 209.33C275.706 209.33 274.595 209.073 273.634 208.56C272.681 208.047 271.933 207.324 271.39 206.393C270.855 205.462 270.587 204.369 270.587 203.115V193.182L273.271 193.16V203.049C273.271 203.643 273.37 204.175 273.568 204.644C273.773 205.113 274.048 205.513 274.393 205.843C274.738 206.166 275.134 206.411 275.581 206.58C276.028 206.749 276.49 206.833 276.967 206.833C277.458 206.833 277.924 206.749 278.364 206.58C278.811 206.404 279.207 206.155 279.552 205.832C279.897 205.502 280.168 205.102 280.366 204.633C280.564 204.164 280.663 203.636 280.663 203.049V193.16H283.347V203.115C283.347 204.369 283.076 205.462 282.533 206.393C281.998 207.324 281.25 208.047 280.289 208.56C279.336 209.073 278.228 209.33 276.967 209.33ZM286.421 209V193.16H292.966C293.12 193.16 293.318 193.167 293.56 193.182C293.802 193.189 294.026 193.211 294.231 193.248C295.148 193.387 295.903 193.692 296.497 194.161C297.098 194.63 297.542 195.224 297.828 195.943C298.121 196.654 298.268 197.446 298.268 198.319C298.268 199.61 297.942 200.721 297.289 201.652C296.636 202.576 295.635 203.148 294.286 203.368L293.153 203.467H289.072V209H286.421ZM295.518 209L292.394 202.554L295.089 201.96L298.521 209H295.518ZM289.072 200.992H292.856C293.003 200.992 293.168 200.985 293.351 200.97C293.534 200.955 293.703 200.926 293.857 200.882C294.297 200.772 294.642 200.578 294.891 200.299C295.148 200.02 295.327 199.705 295.43 199.353C295.54 199.001 295.595 198.656 295.595 198.319C295.595 197.982 295.54 197.637 295.43 197.285C295.327 196.926 295.148 196.607 294.891 196.328C294.642 196.049 294.297 195.855 293.857 195.745C293.703 195.701 293.534 195.675 293.351 195.668C293.168 195.653 293.003 195.646 292.856 195.646H289.072V200.992ZM306.807 209.33C305.649 209.33 304.604 209.128 303.672 208.725C302.748 208.322 301.986 207.746 301.384 206.998C300.79 206.243 300.413 205.348 300.251 204.314L303.001 203.896C303.236 204.835 303.716 205.561 304.442 206.074C305.176 206.587 306.019 206.844 306.972 206.844C307.537 206.844 308.069 206.756 308.567 206.58C309.066 206.404 309.469 206.147 309.777 205.81C310.093 205.473 310.25 205.058 310.25 204.567C310.25 204.347 310.214 204.145 310.14 203.962C310.067 203.771 309.957 203.603 309.81 203.456C309.671 203.309 309.488 203.177 309.26 203.06C309.04 202.935 308.784 202.829 308.49 202.741L304.398 201.531C304.046 201.428 303.665 201.293 303.254 201.124C302.851 200.948 302.466 200.71 302.099 200.409C301.74 200.101 301.443 199.712 301.208 199.243C300.981 198.766 300.867 198.18 300.867 197.483C300.867 196.464 301.124 195.609 301.637 194.92C302.158 194.223 302.855 193.703 303.727 193.358C304.607 193.013 305.583 192.845 306.653 192.852C307.739 192.859 308.707 193.046 309.557 193.413C310.408 193.772 311.119 194.297 311.691 194.986C312.263 195.675 312.667 196.508 312.901 197.483L310.052 197.978C309.935 197.421 309.708 196.948 309.37 196.559C309.04 196.163 308.633 195.862 308.149 195.657C307.673 195.452 307.163 195.342 306.62 195.327C306.092 195.32 305.601 195.4 305.146 195.569C304.699 195.73 304.336 195.965 304.057 196.273C303.786 196.581 303.65 196.94 303.65 197.351C303.65 197.74 303.768 198.059 304.002 198.308C304.237 198.55 304.527 198.744 304.871 198.891C305.223 199.03 305.579 199.148 305.938 199.243L308.776 200.035C309.165 200.138 309.601 200.277 310.085 200.453C310.569 200.629 311.035 200.875 311.482 201.19C311.93 201.505 312.296 201.92 312.582 202.433C312.876 202.946 313.022 203.599 313.022 204.391C313.022 205.212 312.85 205.935 312.505 206.558C312.168 207.174 311.71 207.687 311.13 208.098C310.551 208.509 309.887 208.817 309.139 209.022C308.399 209.227 307.621 209.33 306.807 209.33ZM315.403 209V193.16H325.633V195.646H318.054V199.551H324.313V202.037H318.054V206.514H325.633V209H315.403ZM328.492 209V193.16H331.143V206.514H338.139V209H328.492ZM340.003 209V193.16H349.54V195.811H342.654V199.76H348.22V202.4H342.654V209H340.003ZM354.39 204.699C354.39 204.193 354.437 203.705 354.533 203.236C354.635 202.759 354.8 202.319 355.028 201.916C355.226 201.527 355.446 201.219 355.688 200.992C355.93 200.757 356.201 200.526 356.502 200.299C356.802 200.064 357.136 199.753 357.503 199.364C357.803 199.034 358.001 198.708 358.097 198.385C358.192 198.055 358.24 197.703 358.24 197.329C358.24 197.087 358.214 196.86 358.163 196.647C358.111 196.434 358.02 196.251 357.888 196.097C357.682 195.826 357.418 195.635 357.096 195.525C356.773 195.408 356.428 195.349 356.062 195.349C355.761 195.349 355.471 195.389 355.193 195.47C354.921 195.543 354.69 195.661 354.5 195.822C354.28 195.998 354.118 196.214 354.016 196.471C353.913 196.728 353.865 197.01 353.873 197.318H351.079C351.152 196.585 351.35 195.906 351.673 195.283C352.003 194.652 352.435 194.15 352.971 193.776C353.389 193.468 353.858 193.237 354.379 193.083C354.907 192.929 355.435 192.852 355.963 192.852C356.769 192.852 357.528 192.977 358.24 193.226C358.958 193.475 359.556 193.886 360.033 194.458C360.363 194.832 360.612 195.265 360.781 195.756C360.957 196.247 361.045 196.746 361.045 197.252C361.045 198.007 360.88 198.697 360.55 199.32C360.227 199.943 359.816 200.519 359.318 201.047C359.083 201.296 358.859 201.516 358.647 201.707C358.434 201.898 358.236 202.085 358.053 202.268C357.877 202.444 357.73 202.631 357.613 202.829C357.407 203.174 357.286 203.467 357.25 203.709C357.213 203.944 357.195 204.274 357.195 204.699H354.39ZM354.412 209V206.085H357.195V209H354.412ZM368.083 209V193.16H373.132C373.264 193.16 373.524 193.164 373.913 193.171C374.309 193.178 374.69 193.204 375.057 193.248C376.311 193.409 377.371 193.857 378.236 194.59C379.109 195.316 379.769 196.244 380.216 197.373C380.663 198.502 380.887 199.738 380.887 201.08C380.887 202.422 380.663 203.658 380.216 204.787C379.769 205.916 379.109 206.848 378.236 207.581C377.371 208.307 376.311 208.751 375.057 208.912C374.698 208.956 374.32 208.982 373.924 208.989C373.528 208.996 373.264 209 373.132 209H368.083ZM370.778 206.503H373.132C373.352 206.503 373.631 206.496 373.968 206.481C374.313 206.466 374.617 206.433 374.881 206.382C375.629 206.243 376.238 205.909 376.707 205.381C377.176 204.853 377.521 204.211 377.741 203.456C377.968 202.701 378.082 201.909 378.082 201.08C378.082 200.222 377.968 199.415 377.741 198.66C377.514 197.905 377.162 197.27 376.685 196.757C376.216 196.244 375.614 195.917 374.881 195.778C374.617 195.719 374.313 195.686 373.968 195.679C373.631 195.664 373.352 195.657 373.132 195.657H370.778V206.503ZM390.186 209.33C388.602 209.33 387.246 208.985 386.116 208.296C384.987 207.599 384.118 206.631 383.509 205.392C382.908 204.153 382.607 202.715 382.607 201.08C382.607 199.445 382.908 198.007 383.509 196.768C384.118 195.529 384.987 194.564 386.116 193.875C387.246 193.178 388.602 192.83 390.186 192.83C391.77 192.83 393.127 193.178 394.256 193.875C395.393 194.564 396.262 195.529 396.863 196.768C397.472 198.007 397.776 199.445 397.776 201.08C397.776 202.715 397.472 204.153 396.863 205.392C396.262 206.631 395.393 207.599 394.256 208.296C393.127 208.985 391.77 209.33 390.186 209.33ZM390.186 206.833C391.25 206.84 392.133 206.606 392.837 206.129C393.549 205.652 394.08 204.981 394.432 204.116C394.792 203.251 394.971 202.239 394.971 201.08C394.971 199.921 394.792 198.917 394.432 198.066C394.08 197.208 393.549 196.541 392.837 196.064C392.133 195.587 391.25 195.342 390.186 195.327C389.123 195.32 388.239 195.554 387.535 196.031C386.831 196.508 386.3 197.179 385.94 198.044C385.588 198.909 385.412 199.921 385.412 201.08C385.412 202.239 385.588 203.247 385.94 204.105C386.292 204.956 386.82 205.619 387.524 206.096C388.236 206.573 389.123 206.818 390.186 206.833ZM408.22 209V202.51L402.83 193.16H405.921L409.562 199.474L413.192 193.16H416.283L410.904 202.51V209H408.22ZM423.637 209.33C422.053 209.33 420.697 208.985 419.567 208.296C418.438 207.599 417.569 206.631 416.96 205.392C416.359 204.153 416.058 202.715 416.058 201.08C416.058 199.445 416.359 198.007 416.96 196.768C417.569 195.529 418.438 194.564 419.567 193.875C420.697 193.178 422.053 192.83 423.637 192.83C425.221 192.83 426.578 193.178 427.707 193.875C428.844 194.564 429.713 195.529 430.314 196.768C430.923 198.007 431.227 199.445 431.227 201.08C431.227 202.715 430.923 204.153 430.314 205.392C429.713 206.631 428.844 207.599 427.707 208.296C426.578 208.985 425.221 209.33 423.637 209.33ZM423.637 206.833C424.701 206.84 425.584 206.606 426.288 206.129C427 205.652 427.531 204.981 427.883 204.116C428.243 203.251 428.422 202.239 428.422 201.08C428.422 199.921 428.243 198.917 427.883 198.066C427.531 197.208 427 196.541 426.288 196.064C425.584 195.587 424.701 195.342 423.637 195.327C422.574 195.32 421.69 195.554 420.986 196.031C420.282 196.508 419.751 197.179 419.391 198.044C419.039 198.909 418.863 199.921 418.863 201.08C418.863 202.239 419.039 203.247 419.391 204.105C419.743 204.956 420.271 205.619 420.975 206.096C421.687 206.573 422.574 206.818 423.637 206.833ZM439.797 209.33C438.536 209.33 437.425 209.073 436.464 208.56C435.511 208.047 434.763 207.324 434.22 206.393C433.685 205.462 433.417 204.369 433.417 203.115V193.182L436.101 193.16V203.049C436.101 203.643 436.2 204.175 436.398 204.644C436.603 205.113 436.878 205.513 437.223 205.843C437.568 206.166 437.964 206.411 438.411 206.58C438.858 206.749 439.32 206.833 439.797 206.833C440.288 206.833 440.754 206.749 441.194 206.58C441.641 206.404 442.037 206.155 442.382 205.832C442.727 205.502 442.998 205.102 443.196 204.633C443.394 204.164 443.493 203.636 443.493 203.049V193.16H446.177V203.115C446.177 204.369 445.906 205.462 445.363 206.393C444.828 207.324 444.08 208.047 443.119 208.56C442.166 209.073 441.058 209.33 439.797 209.33ZM457.461 209V195.646H452.335V193.16H465.238V195.646H460.112V209H457.461ZM466.997 209V193.16H469.648V199.826H477.15V193.16H479.79V209H477.15V202.312H469.648V209H466.997ZM483.094 209V193.16H485.745V209H483.094ZM489.04 209V193.16H491.724L499.072 204.325V193.16H501.756V209H499.072L491.724 197.835V209H489.04ZM504.831 209V193.16H507.482V200.508L513.807 193.16H517.063L510.254 200.926L517.525 209H514.159L507.482 201.608V209H504.831ZM127.473 238V231.51L122.083 222.16H125.174L128.815 228.474L132.445 222.16H135.536L130.157 231.51V238H127.473ZM142.89 238.33C141.306 238.33 139.95 237.985 138.82 237.296C137.691 236.599 136.822 235.631 136.213 234.392C135.612 233.153 135.311 231.715 135.311 230.08C135.311 228.445 135.612 227.007 136.213 225.768C136.822 224.529 137.691 223.564 138.82 222.875C139.95 222.178 141.306 221.83 142.89 221.83C144.474 221.83 145.831 222.178 146.96 222.875C148.097 223.564 148.966 224.529 149.567 225.768C150.176 227.007 150.48 228.445 150.48 230.08C150.48 231.715 150.176 233.153 149.567 234.392C148.966 235.631 148.097 236.599 146.96 237.296C145.831 237.985 144.474 238.33 142.89 238.33ZM142.89 235.833C143.954 235.84 144.837 235.606 145.541 235.129C146.253 234.652 146.784 233.981 147.136 233.116C147.496 232.251 147.675 231.239 147.675 230.08C147.675 228.921 147.496 227.917 147.136 227.066C146.784 226.208 146.253 225.541 145.541 225.064C144.837 224.587 143.954 224.342 142.89 224.327C141.827 224.32 140.943 224.554 140.239 225.031C139.535 225.508 139.004 226.179 138.644 227.044C138.292 227.909 138.116 228.921 138.116 230.08C138.116 231.239 138.292 232.247 138.644 233.105C138.996 233.956 139.524 234.619 140.228 235.096C140.94 235.573 141.827 235.818 142.89 235.833ZM159.05 238.33C157.789 238.33 156.678 238.073 155.717 237.56C154.764 237.047 154.016 236.324 153.473 235.393C152.938 234.462 152.67 233.369 152.67 232.115V222.182L155.354 222.16V232.049C155.354 232.643 155.453 233.175 155.651 233.644C155.856 234.113 156.131 234.513 156.476 234.843C156.821 235.166 157.217 235.411 157.664 235.58C158.111 235.749 158.573 235.833 159.05 235.833C159.541 235.833 160.007 235.749 160.447 235.58C160.894 235.404 161.29 235.155 161.635 234.832C161.98 234.502 162.251 234.102 162.449 233.633C162.647 233.164 162.746 232.636 162.746 232.049V222.16H165.43V232.115C165.43 233.369 165.159 234.462 164.616 235.393C164.081 236.324 163.333 237.047 162.372 237.56C161.419 238.073 160.311 238.33 159.05 238.33ZM171.808 238L176.802 222.16H180.685L185.679 238H182.951L178.419 223.788H179.013L174.536 238H171.808ZM174.591 234.568V232.093H182.907V234.568H174.591ZM187.668 238V222.16H194.213C194.367 222.16 194.565 222.167 194.807 222.182C195.049 222.189 195.273 222.211 195.478 222.248C196.395 222.387 197.15 222.692 197.744 223.161C198.345 223.63 198.789 224.224 199.075 224.943C199.368 225.654 199.515 226.446 199.515 227.319C199.515 228.61 199.189 229.721 198.536 230.652C197.883 231.576 196.882 232.148 195.533 232.368L194.4 232.467H190.319V238H187.668ZM196.765 238L193.641 231.554L196.336 230.96L199.768 238H196.765ZM190.319 229.992H194.103C194.25 229.992 194.415 229.985 194.598 229.97C194.781 229.955 194.95 229.926 195.104 229.882C195.544 229.772 195.889 229.578 196.138 229.299C196.395 229.02 196.574 228.705 196.677 228.353C196.787 228.001 196.842 227.656 196.842 227.319C196.842 226.982 196.787 226.637 196.677 226.285C196.574 225.926 196.395 225.607 196.138 225.328C195.889 225.049 195.544 224.855 195.104 224.745C194.95 224.701 194.781 224.675 194.598 224.668C194.415 224.653 194.25 224.646 194.103 224.646H190.319V229.992ZM202.191 238V222.16H212.421V224.646H204.842V228.551H211.101V231.037H204.842V235.514H212.421V238H202.191ZM218.365 238L223.359 222.16H227.242L232.236 238H229.508L224.976 223.788H225.57L221.093 238H218.365ZM221.148 234.568V232.093H229.464V234.568H221.148ZM234.225 238V222.16H240.506C241.576 222.16 242.453 222.376 243.135 222.809C243.824 223.234 244.334 223.781 244.664 224.448C245.001 225.115 245.17 225.805 245.17 226.516C245.17 227.389 244.961 228.129 244.543 228.738C244.132 229.347 243.571 229.757 242.86 229.97V229.42C243.857 229.647 244.612 230.12 245.126 230.839C245.646 231.558 245.907 232.375 245.907 233.292C245.907 234.231 245.727 235.052 245.368 235.756C245.008 236.46 244.473 237.01 243.762 237.406C243.058 237.802 242.185 238 241.144 238H234.225ZM236.909 235.503H240.814C241.276 235.503 241.69 235.411 242.057 235.228C242.423 235.037 242.709 234.773 242.915 234.436C243.127 234.091 243.234 233.684 243.234 233.215C243.234 232.79 243.142 232.408 242.959 232.071C242.775 231.734 242.508 231.466 242.156 231.268C241.804 231.063 241.382 230.96 240.891 230.96H236.909V235.503ZM236.909 228.485H240.473C240.854 228.485 241.195 228.412 241.496 228.265C241.796 228.118 242.035 227.902 242.211 227.616C242.387 227.33 242.475 226.978 242.475 226.56C242.475 226.01 242.299 225.552 241.947 225.185C241.595 224.818 241.103 224.635 240.473 224.635H236.909V228.485ZM248.323 238V222.16H250.974V235.514H257.97V238H248.323ZM259.834 238V222.16H270.064V224.646H262.485V228.551H268.744V231.037H262.485V235.514H270.064V238H259.834ZM280.913 238V224.646H275.787V222.16H288.69V224.646H283.564V238H280.913ZM297.148 238.33C295.564 238.33 294.208 237.985 293.078 237.296C291.949 236.599 291.08 235.631 290.471 234.392C289.87 233.153 289.569 231.715 289.569 230.08C289.569 228.445 289.87 227.007 290.471 225.768C291.08 224.529 291.949 223.564 293.078 222.875C294.208 222.178 295.564 221.83 297.148 221.83C298.732 221.83 300.089 222.178 301.218 222.875C302.355 223.564 303.224 224.529 303.825 225.768C304.434 227.007 304.738 228.445 304.738 230.08C304.738 231.715 304.434 233.153 303.825 234.392C303.224 235.631 302.355 236.599 301.218 237.296C300.089 237.985 298.732 238.33 297.148 238.33ZM297.148 235.833C298.212 235.84 299.095 235.606 299.799 235.129C300.511 234.652 301.042 233.981 301.394 233.116C301.754 232.251 301.933 231.239 301.933 230.08C301.933 228.921 301.754 227.917 301.394 227.066C301.042 226.208 300.511 225.541 299.799 225.064C299.095 224.587 298.212 224.342 297.148 224.327C296.085 224.32 295.201 224.554 294.497 225.031C293.793 225.508 293.262 226.179 292.902 227.044C292.55 227.909 292.374 228.921 292.374 230.08C292.374 231.239 292.55 232.247 292.902 233.105C293.254 233.956 293.782 234.619 294.486 235.096C295.198 235.573 296.085 235.818 297.148 235.833ZM318.031 238.33C316.447 238.33 315.09 237.985 313.961 237.296C312.832 236.599 311.963 235.631 311.354 234.392C310.753 233.153 310.452 231.715 310.452 230.08C310.452 228.445 310.753 227.007 311.354 225.768C311.963 224.529 312.832 223.564 313.961 222.875C315.09 222.178 316.447 221.83 318.031 221.83C319.857 221.83 321.379 222.288 322.596 223.205C323.813 224.114 324.668 225.343 325.159 226.89L322.486 227.627C322.178 226.593 321.654 225.786 320.913 225.207C320.172 224.62 319.212 224.327 318.031 224.327C316.968 224.327 316.08 224.565 315.369 225.042C314.665 225.519 314.133 226.19 313.774 227.055C313.422 227.913 313.242 228.921 313.235 230.08C313.235 231.239 313.411 232.251 313.763 233.116C314.122 233.974 314.658 234.641 315.369 235.118C316.08 235.595 316.968 235.833 318.031 235.833C319.212 235.833 320.172 235.54 320.913 234.953C321.654 234.366 322.178 233.56 322.486 232.533L325.159 233.27C324.668 234.817 323.813 236.049 322.596 236.966C321.379 237.875 319.857 238.33 318.031 238.33ZM327.574 238V222.16H330.225V228.826H337.727V222.16H340.367V238H337.727V231.312H330.225V238H327.574ZM342.351 238L347.345 222.16H351.228L356.222 238H353.494L348.962 223.788H349.556L345.079 238H342.351ZM345.134 234.568V232.093H353.45V234.568H345.134ZM358.211 238V222.16H360.895L368.243 233.325V222.16H370.927V238H368.243L360.895 226.835V238H358.211ZM380.536 238.33C379.509 238.33 378.545 238.15 377.643 237.791C376.748 237.424 375.96 236.889 375.278 236.185C374.603 235.481 374.075 234.619 373.694 233.6C373.313 232.573 373.122 231.4 373.122 230.08C373.122 228.349 373.445 226.872 374.09 225.647C374.735 224.415 375.619 223.473 376.741 222.82C377.863 222.16 379.128 221.83 380.536 221.83C382.487 221.83 384.03 222.285 385.167 223.194C386.311 224.096 387.085 225.365 387.488 227L384.782 227.429C384.481 226.49 383.99 225.742 383.308 225.185C382.626 224.62 381.757 224.338 380.701 224.338C379.638 224.323 378.754 224.554 378.05 225.031C377.346 225.508 376.814 226.179 376.455 227.044C376.103 227.909 375.927 228.921 375.927 230.08C375.927 231.239 376.103 232.247 376.455 233.105C376.807 233.956 377.335 234.619 378.039 235.096C378.75 235.573 379.638 235.818 380.701 235.833C381.5 235.84 382.201 235.697 382.802 235.404C383.403 235.103 383.895 234.652 384.276 234.051C384.657 233.442 384.914 232.683 385.046 231.774H382.252V229.695H387.862C387.877 229.812 387.888 229.985 387.895 230.212C387.902 230.439 387.906 230.575 387.906 230.619C387.906 232.115 387.609 233.446 387.015 234.612C386.428 235.771 385.585 236.68 384.485 237.34C383.385 238 382.069 238.33 380.536 238.33ZM390.115 238V222.16H400.345V224.646H392.766V228.551H399.025V231.037H392.766V235.514H400.345V238H390.115ZM411.195 238V224.646H406.069V222.16H418.972V224.646H413.846V238H411.195ZM420.73 238V222.16H423.381V228.826H430.883V222.16H433.523V238H430.883V231.312H423.381V238H420.73ZM436.607 238V222.16H446.837V224.646H439.258V228.551H445.517V231.037H439.258V235.514H446.837V238H436.607ZM449.477 238V222.16H451.864L457.342 233.38L462.82 222.16H465.207V238H462.732V227.847L457.87 238H456.814L451.963 227.847V238H449.477ZM471.168 233.699C471.168 233.193 471.216 232.705 471.311 232.236C471.414 231.759 471.579 231.319 471.806 230.916C472.004 230.527 472.224 230.219 472.466 229.992C472.708 229.757 472.979 229.526 473.28 229.299C473.581 229.064 473.914 228.753 474.281 228.364C474.582 228.034 474.78 227.708 474.875 227.385C474.97 227.055 475.018 226.703 475.018 226.329C475.018 226.087 474.992 225.86 474.941 225.647C474.89 225.434 474.798 225.251 474.666 225.097C474.461 224.826 474.197 224.635 473.874 224.525C473.551 224.408 473.207 224.349 472.84 224.349C472.539 224.349 472.25 224.389 471.971 224.47C471.7 224.543 471.469 224.661 471.278 224.822C471.058 224.998 470.897 225.214 470.794 225.471C470.691 225.728 470.644 226.01 470.651 226.318H467.857C467.93 225.585 468.128 224.906 468.451 224.283C468.781 223.652 469.214 223.15 469.749 222.776C470.167 222.468 470.636 222.237 471.157 222.083C471.685 221.929 472.213 221.852 472.741 221.852C473.548 221.852 474.307 221.977 475.018 222.226C475.737 222.475 476.334 222.886 476.811 223.458C477.141 223.832 477.39 224.265 477.559 224.756C477.735 225.247 477.823 225.746 477.823 226.252C477.823 227.007 477.658 227.697 477.328 228.32C477.005 228.943 476.595 229.519 476.096 230.047C475.861 230.296 475.638 230.516 475.425 230.707C475.212 230.898 475.014 231.085 474.831 231.268C474.655 231.444 474.508 231.631 474.391 231.829C474.186 232.174 474.065 232.467 474.028 232.709C473.991 232.944 473.973 233.274 473.973 233.699H471.168ZM471.19 238V235.085H473.973V238H471.19Z" fill="white"></path> <rect x="20" y="20" width="248" height="40" rx="20" fill="white" fill-opacity="0.3"></rect> <path d="M32.8122 46L36.6682 34.48H38.6522L42.5082 46H41.0282L37.4202 35.312H37.8682L34.2922 46H32.8122ZM34.6682 43.304V41.968H40.6522V43.304H34.6682ZM43.9403 46V34.48H48.4923C48.6043 34.48 48.7376 34.4853 48.8923 34.496C49.047 34.5013 49.1963 34.5173 49.3403 34.544C49.9643 34.64 50.487 34.8533 50.9083 35.184C51.335 35.5147 51.655 35.9333 51.8683 36.44C52.0816 36.9413 52.1883 37.4987 52.1883 38.112C52.1883 38.72 52.079 39.2773 51.8603 39.784C51.647 40.2853 51.327 40.704 50.9003 41.04C50.479 41.3707 49.959 41.584 49.3403 41.68C49.1963 41.7013 49.047 41.7173 48.8923 41.728C48.7376 41.7387 48.6043 41.744 48.4923 41.744H45.3643V46H43.9403ZM45.3643 40.392H48.4443C48.5456 40.392 48.6603 40.3867 48.7883 40.376C48.9216 40.3653 49.047 40.3467 49.1643 40.32C49.5323 40.2347 49.831 40.08 50.0603 39.856C50.295 39.6267 50.4656 39.36 50.5723 39.056C50.679 38.7467 50.7323 38.432 50.7323 38.112C50.7323 37.792 50.679 37.48 50.5723 37.176C50.4656 36.8667 50.295 36.5973 50.0603 36.368C49.831 36.1387 49.5323 35.984 49.1643 35.904C49.047 35.872 48.9216 35.8533 48.7883 35.848C48.6603 35.8373 48.5456 35.832 48.4443 35.832H45.3643V40.392ZM53.7841 46V34.48H58.3361C58.4481 34.48 58.5814 34.4853 58.7361 34.496C58.8907 34.5013 59.0401 34.5173 59.1841 34.544C59.8081 34.64 60.3307 34.8533 60.7521 35.184C61.1787 35.5147 61.4987 35.9333 61.7121 36.44C61.9254 36.9413 62.0321 37.4987 62.0321 38.112C62.0321 38.72 61.9227 39.2773 61.7041 39.784C61.4907 40.2853 61.1707 40.704 60.7441 41.04C60.3227 41.3707 59.8027 41.584 59.1841 41.68C59.0401 41.7013 58.8907 41.7173 58.7361 41.728C58.5814 41.7387 58.4481 41.744 58.3361 41.744H55.2081V46H53.7841ZM55.2081 40.392H58.2881C58.3894 40.392 58.5041 40.3867 58.6321 40.376C58.7654 40.3653 58.8907 40.3467 59.0081 40.32C59.3761 40.2347 59.6747 40.08 59.9041 39.856C60.1387 39.6267 60.3094 39.36 60.4161 39.056C60.5227 38.7467 60.5761 38.432 60.5761 38.112C60.5761 37.792 60.5227 37.48 60.4161 37.176C60.3094 36.8667 60.1387 36.5973 59.9041 36.368C59.6747 36.1387 59.3761 35.984 59.0081 35.904C58.8907 35.872 58.7654 35.8533 58.6321 35.848C58.5041 35.8373 58.3894 35.832 58.2881 35.832H55.2081V40.392ZM63.6278 46V34.48H70.9078V35.832H65.0518V39.44H69.9478V40.792H65.0518V44.648H70.9078V46H63.6278ZM72.0309 46L75.8869 34.48H77.8709L81.7269 46H80.2469L76.6389 35.312H77.0869L73.5109 46H72.0309ZM73.8869 43.304V41.968H79.8709V43.304H73.8869ZM83.1591 46V34.48H87.7111C87.8231 34.48 87.9564 34.4853 88.1111 34.496C88.2657 34.5013 88.4151 34.5173 88.5591 34.544C89.1831 34.64 89.7057 34.8533 90.1271 35.184C90.5537 35.5147 90.8737 35.9333 91.0871 36.44C91.3004 36.9413 91.4071 37.4987 91.4071 38.112C91.4071 39.0027 91.1751 39.776 90.7111 40.432C90.2471 41.0827 89.5671 41.4907 88.6711 41.656L88.1271 41.744H84.5831V46H83.1591ZM90.0151 46L87.7431 41.312L89.1511 40.88L91.6471 46H90.0151ZM84.5831 40.392H87.6631C87.7644 40.392 87.8791 40.3867 88.0071 40.376C88.1404 40.3653 88.2657 40.3467 88.3831 40.32C88.7511 40.2347 89.0497 40.08 89.2791 39.856C89.5137 39.6267 89.6844 39.36 89.7911 39.056C89.8977 38.7467 89.9511 38.432 89.9511 38.112C89.9511 37.792 89.8977 37.48 89.7911 37.176C89.6844 36.8667 89.5137 36.5973 89.2791 36.368C89.0497 36.1387 88.7511 35.984 88.3831 35.904C88.2657 35.872 88.1404 35.8533 88.0071 35.848C87.8791 35.8373 87.7644 35.832 87.6631 35.832H84.5831V40.392ZM92.6091 46L96.4651 34.48H98.4491L102.305 46H100.825L97.2171 35.312H97.6651L94.0891 46H92.6091ZM94.4651 43.304V41.968H100.449V43.304H94.4651ZM103.737 46V34.48H105.177L111.185 43.48V34.48H112.625V46H111.185L105.177 36.992V46H103.737ZM119.598 46.24C118.452 46.24 117.478 45.9867 116.678 45.48C115.878 44.9733 115.268 44.2693 114.846 43.368C114.43 42.4667 114.222 41.424 114.222 40.24C114.222 39.056 114.43 38.0133 114.846 37.112C115.268 36.2107 115.878 35.5067 116.678 35C117.478 34.4933 118.452 34.24 119.598 34.24C120.932 34.24 122.028 34.5787 122.886 35.256C123.75 35.9333 124.345 36.8453 124.67 37.992L123.222 38.376C122.988 37.5173 122.569 36.84 121.966 36.344C121.364 35.848 120.574 35.6 119.598 35.6C118.74 35.6 118.025 35.7947 117.454 36.184C116.884 36.5733 116.454 37.1173 116.166 37.816C115.878 38.5093 115.732 39.3173 115.726 40.24C115.721 41.1573 115.862 41.9653 116.15 42.664C116.438 43.3573 116.87 43.9013 117.446 44.296C118.022 44.6853 118.74 44.88 119.598 44.88C120.574 44.88 121.364 44.632 121.966 44.136C122.569 43.6347 122.988 42.9573 123.222 42.104L124.67 42.488C124.345 43.6293 123.75 44.5413 122.886 45.224C122.028 45.9013 120.932 46.24 119.598 46.24ZM126.425 46V34.48H133.705V35.832H127.849V39.44H132.745V40.792H127.849V44.648H133.705V46H126.425ZM142.575 46.24C141.935 46.24 141.338 46.1467 140.783 45.96C140.228 45.7733 139.764 45.48 139.391 45.08C139.103 44.76 138.887 44.408 138.743 44.024C138.604 43.6347 138.527 43.224 138.511 42.792C138.511 42.3707 138.572 41.96 138.695 41.56C138.818 41.1547 139.012 40.7947 139.279 40.48C139.418 40.3093 139.572 40.1653 139.743 40.048C139.919 39.9253 140.095 39.8213 140.271 39.736C139.903 39.3413 139.62 38.9707 139.423 38.624C139.231 38.2773 139.135 37.8587 139.135 37.368C139.135 36.744 139.295 36.1813 139.615 35.68C139.94 35.1733 140.383 34.8027 140.943 34.568C141.215 34.4507 141.492 34.3707 141.775 34.328C142.063 34.28 142.343 34.256 142.615 34.256C143.074 34.256 143.519 34.32 143.951 34.448C144.383 34.576 144.751 34.784 145.055 35.072C145.258 35.2427 145.431 35.44 145.575 35.664C145.719 35.8827 145.831 36.112 145.911 36.352L144.519 36.712C144.418 36.44 144.25 36.2107 144.015 36.024C143.828 35.864 143.61 35.7547 143.359 35.696C143.114 35.6373 142.866 35.608 142.615 35.608C142.199 35.608 141.823 35.688 141.487 35.848C141.188 35.992 140.964 36.1947 140.815 36.456C140.666 36.712 140.591 37.016 140.591 37.368C140.591 37.672 140.642 37.9227 140.743 38.12C140.85 38.312 140.996 38.5173 141.183 38.736C141.295 38.8533 141.42 38.9787 141.559 39.112C141.703 39.24 141.85 39.3733 141.999 39.512L145.391 42.664C145.407 42.5307 145.418 42.3947 145.423 42.256C145.428 42.1173 145.431 41.984 145.431 41.856L145.423 40.264H146.727V42.136C146.727 42.5147 146.714 42.8373 146.687 43.104C146.666 43.3707 146.628 43.592 146.575 43.768L148.039 45.12L147.111 46.112L145.895 44.96C145.687 45.1947 145.439 45.4 145.151 45.576C144.863 45.752 144.575 45.8853 144.287 45.976C144.015 46.0773 143.735 46.1467 143.447 46.184C143.159 46.2213 142.868 46.24 142.575 46.24ZM142.607 44.872C142.868 44.872 143.106 44.856 143.319 44.824C143.532 44.792 143.735 44.7307 143.927 44.64C144.183 44.5173 144.38 44.4 144.519 44.288C144.658 44.176 144.772 44.072 144.863 43.976L141.351 40.76C141.159 40.824 140.978 40.9093 140.807 41.016C140.642 41.1227 140.498 41.248 140.375 41.392C140.236 41.5627 140.132 41.7627 140.063 41.992C139.999 42.2213 139.967 42.464 139.967 42.72C139.972 42.992 140.018 43.2427 140.103 43.472C140.188 43.7013 140.308 43.9067 140.463 44.088C140.698 44.36 141.015 44.56 141.415 44.688C141.815 44.8107 142.212 44.872 142.607 44.872ZM152.55 46V34.48H157.102C157.214 34.48 157.347 34.4853 157.502 34.496C157.656 34.5013 157.806 34.5173 157.95 34.544C158.574 34.64 159.096 34.8533 159.518 35.184C159.944 35.5147 160.264 35.9333 160.478 36.44C160.691 36.9413 160.798 37.4987 160.798 38.112C160.798 38.72 160.688 39.2773 160.47 39.784C160.256 40.2853 159.936 40.704 159.51 41.04C159.088 41.3707 158.568 41.584 157.95 41.68C157.806 41.7013 157.656 41.7173 157.502 41.728C157.347 41.7387 157.214 41.744 157.102 41.744H153.974V46H152.55ZM153.974 40.392H157.054C157.155 40.392 157.27 40.3867 157.398 40.376C157.531 40.3653 157.656 40.3467 157.774 40.32C158.142 40.2347 158.44 40.08 158.67 39.856C158.904 39.6267 159.075 39.36 159.182 39.056C159.288 38.7467 159.342 38.432 159.342 38.112C159.342 37.792 159.288 37.48 159.182 37.176C159.075 36.8667 158.904 36.5973 158.67 36.368C158.44 36.1387 158.142 35.984 157.774 35.904C157.656 35.872 157.531 35.8533 157.398 35.848C157.27 35.8373 157.155 35.832 157.054 35.832H153.974V40.392ZM162.393 46V34.48H169.673V35.832H163.817V39.44H168.713V40.792H163.817V44.648H169.673V46H162.393ZM171.597 46V34.48H176.149C176.261 34.48 176.394 34.4853 176.549 34.496C176.703 34.5013 176.853 34.5173 176.997 34.544C177.621 34.64 178.143 34.8533 178.565 35.184C178.991 35.5147 179.311 35.9333 179.525 36.44C179.738 36.9413 179.845 37.4987 179.845 38.112C179.845 39.0027 179.613 39.776 179.149 40.432C178.685 41.0827 178.005 41.4907 177.109 41.656L176.565 41.744H173.021V46H171.597ZM178.453 46L176.181 41.312L177.589 40.88L180.085 46H178.453ZM173.021 40.392H176.101C176.202 40.392 176.317 40.3867 176.445 40.376C176.578 40.3653 176.703 40.3467 176.821 40.32C177.189 40.2347 177.487 40.08 177.717 39.856C177.951 39.6267 178.122 39.36 178.229 39.056C178.335 38.7467 178.389 38.432 178.389 38.112C178.389 37.792 178.335 37.48 178.229 37.176C178.122 36.8667 177.951 36.5973 177.717 36.368C177.487 36.1387 177.189 35.984 176.821 35.904C176.703 35.872 176.578 35.8533 176.445 35.848C176.317 35.8373 176.202 35.832 176.101 35.832H173.021V40.392ZM185.935 46.24C185.119 46.24 184.383 46.1013 183.727 45.824C183.076 45.5467 182.537 45.152 182.111 44.64C181.689 44.1227 181.415 43.512 181.287 42.808L182.759 42.576C182.945 43.3013 183.332 43.8693 183.919 44.28C184.511 44.6853 185.207 44.888 186.007 44.888C186.524 44.888 186.991 44.808 187.407 44.648C187.828 44.4827 188.161 44.248 188.407 43.944C188.652 43.64 188.775 43.28 188.775 42.864C188.775 42.608 188.729 42.3893 188.639 42.208C188.553 42.0213 188.433 41.864 188.279 41.736C188.129 41.6027 187.959 41.4907 187.767 41.4C187.575 41.3093 187.375 41.2347 187.167 41.176L184.231 40.304C183.911 40.208 183.601 40.088 183.303 39.944C183.004 39.7947 182.737 39.6107 182.503 39.392C182.268 39.168 182.081 38.9013 181.943 38.592C181.804 38.2773 181.735 37.9067 181.735 37.48C181.735 36.7973 181.911 36.216 182.263 35.736C182.62 35.2507 183.103 34.88 183.711 34.624C184.319 34.368 185.004 34.2427 185.767 34.248C186.54 34.2533 187.231 34.392 187.839 34.664C188.452 34.9307 188.959 35.3147 189.359 35.816C189.764 36.3173 190.036 36.9173 190.175 37.616L188.663 37.88C188.583 37.4107 188.404 37.008 188.127 36.672C187.855 36.3307 187.513 36.0693 187.103 35.888C186.692 35.7013 186.241 35.6053 185.751 35.6C185.281 35.5947 184.857 35.6693 184.479 35.824C184.1 35.9787 183.799 36.1947 183.575 36.472C183.351 36.744 183.239 37.0587 183.239 37.416C183.239 37.768 183.34 38.0533 183.543 38.272C183.745 38.4853 183.993 38.656 184.287 38.784C184.585 38.9067 184.876 39.008 185.159 39.088L187.351 39.72C187.601 39.7893 187.889 39.8853 188.215 40.008C188.545 40.1307 188.865 40.304 189.175 40.528C189.484 40.7467 189.74 41.04 189.943 41.408C190.145 41.7707 190.247 42.2293 190.247 42.784C190.247 43.3387 190.135 43.832 189.911 44.264C189.692 44.696 189.385 45.0587 188.991 45.352C188.596 45.64 188.137 45.8587 187.615 46.008C187.092 46.1627 186.532 46.24 185.935 46.24ZM196.661 46.24C195.514 46.24 194.541 45.9867 193.741 45.48C192.941 44.9733 192.33 44.2693 191.909 43.368C191.493 42.4667 191.285 41.424 191.285 40.24C191.285 39.056 191.493 38.0133 191.909 37.112C192.33 36.2107 192.941 35.5067 193.741 35C194.541 34.4933 195.514 34.24 196.661 34.24C197.813 34.24 198.789 34.4933 199.589 35C200.389 35.5067 200.997 36.2107 201.413 37.112C201.829 38.0133 202.037 39.056 202.037 40.24C202.037 41.424 201.829 42.4667 201.413 43.368C200.997 44.2693 200.389 44.9733 199.589 45.48C198.789 45.9867 197.813 46.24 196.661 46.24ZM196.661 44.88C197.519 44.8853 198.234 44.6933 198.805 44.304C199.381 43.9093 199.81 43.3627 200.093 42.664C200.381 41.9653 200.525 41.1573 200.525 40.24C200.525 39.3173 200.381 38.5093 200.093 37.816C199.81 37.1227 199.381 36.5813 198.805 36.192C198.234 35.8027 197.519 35.6053 196.661 35.6C195.802 35.5947 195.087 35.7867 194.517 36.176C193.951 36.5653 193.525 37.1093 193.237 37.808C192.949 38.5067 192.802 39.3173 192.797 40.24C192.791 41.1573 192.933 41.9627 193.221 42.656C193.509 43.3493 193.938 43.8933 194.509 44.288C195.085 44.6773 195.802 44.8747 196.661 44.88ZM203.643 46V34.48H205.083L211.091 43.48V34.48H212.531V46H211.091L205.083 36.992V46H203.643ZM213.968 46L217.824 34.48H219.808L223.664 46H222.184L218.576 35.312H219.024L215.448 46H213.968ZM215.824 43.304V41.968H221.808V43.304H215.824ZM225.257 46V34.48H226.681V44.648H232.025V46H225.257ZM233.538 46V34.48H234.962V46H233.538ZM240.33 46V35.832H236.402V34.48H245.682V35.832H241.754V46H240.33ZM250.2 46V41.208L246.32 34.48H247.976L250.92 39.576L253.856 34.48H255.512L251.64 41.208V46H250.2Z" fill="white"></path> <defs> <linearGradient id="paint0_linear_160_258" x1="300" y1="0" x2="300" y2="400" gradientUnits="userSpaceOnUse"> <stop stop-color="#B0772C"></stop> <stop offset="1" stop-color="#FBBC69"></stop> </linearGradient> </defs> </svg> 