<?xml version="1.0" encoding="UTF-8"?> <svg xmlns="http://www.w3.org/2000/svg" width="600" height="400" viewBox="0 0 600 400" fill="none"> <rect width="600" height="400" rx="20" fill="url(#paint0_linear_160_262)"></rect> <path d="M96.4668 194V178.16H99.1178V184.826H106.62V178.16H109.26V194H106.62V187.312H99.1178V194H96.4668ZM119.043 194.33C117.459 194.33 116.102 193.985 114.973 193.296C113.843 192.599 112.974 191.631 112.366 190.392C111.764 189.153 111.464 187.715 111.464 186.08C111.464 184.445 111.764 183.007 112.366 181.768C112.974 180.529 113.843 179.564 114.973 178.875C116.102 178.178 117.459 177.83 119.043 177.83C120.627 177.83 121.983 178.178 123.113 178.875C124.249 179.564 125.118 180.529 125.72 181.768C126.328 183.007 126.633 184.445 126.633 186.08C126.633 187.715 126.328 189.153 125.72 190.392C125.118 191.631 124.249 192.599 123.113 193.296C121.983 193.985 120.627 194.33 119.043 194.33ZM119.043 191.833C120.106 191.84 120.99 191.606 121.694 191.129C122.405 190.652 122.937 189.981 123.289 189.116C123.648 188.251 123.828 187.239 123.828 186.08C123.828 184.921 123.648 183.917 123.289 183.066C122.937 182.208 122.405 181.541 121.694 181.064C120.99 180.587 120.106 180.342 119.043 180.327C117.979 180.32 117.096 180.554 116.392 181.031C115.688 181.508 115.156 182.179 114.797 183.044C114.445 183.909 114.269 184.921 114.269 186.08C114.269 187.239 114.445 188.247 114.797 189.105C115.149 189.956 115.677 190.619 116.381 191.096C117.092 191.573 117.979 191.818 119.043 191.833ZM131.5 194L126.869 178.16H129.652L132.809 189.6L135.955 178.182L138.738 178.16L141.895 189.6L145.041 178.16H147.824L143.204 194H140.586L137.341 182.736L134.118 194H131.5ZM154.243 194V178.16H156.894V194H154.243ZM166.052 194.33C164.894 194.33 163.849 194.128 162.917 193.725C161.993 193.322 161.231 192.746 160.629 191.998C160.035 191.243 159.658 190.348 159.496 189.314L162.246 188.896C162.481 189.835 162.961 190.561 163.687 191.074C164.421 191.587 165.264 191.844 166.217 191.844C166.782 191.844 167.314 191.756 167.812 191.58C168.311 191.404 168.714 191.147 169.022 190.81C169.338 190.473 169.495 190.058 169.495 189.567C169.495 189.347 169.459 189.145 169.385 188.962C169.312 188.771 169.202 188.603 169.055 188.456C168.916 188.309 168.733 188.177 168.505 188.06C168.285 187.935 168.029 187.829 167.735 187.741L163.643 186.531C163.291 186.428 162.91 186.293 162.499 186.124C162.096 185.948 161.711 185.71 161.344 185.409C160.985 185.101 160.688 184.712 160.453 184.243C160.226 183.766 160.112 183.18 160.112 182.483C160.112 181.464 160.369 180.609 160.882 179.92C161.403 179.223 162.1 178.703 162.972 178.358C163.852 178.013 164.828 177.845 165.898 177.852C166.984 177.859 167.952 178.046 168.802 178.413C169.653 178.772 170.364 179.297 170.936 179.986C171.508 180.675 171.912 181.508 172.146 182.483L169.297 182.978C169.18 182.421 168.953 181.948 168.615 181.559C168.285 181.163 167.878 180.862 167.394 180.657C166.918 180.452 166.408 180.342 165.865 180.327C165.337 180.32 164.846 180.4 164.391 180.569C163.944 180.73 163.581 180.965 163.302 181.273C163.031 181.581 162.895 181.94 162.895 182.351C162.895 182.74 163.013 183.059 163.247 183.308C163.482 183.55 163.772 183.744 164.116 183.891C164.468 184.03 164.824 184.148 165.183 184.243L168.021 185.035C168.41 185.138 168.846 185.277 169.33 185.453C169.814 185.629 170.28 185.875 170.727 186.19C171.175 186.505 171.541 186.92 171.827 187.433C172.121 187.946 172.267 188.599 172.267 189.391C172.267 190.212 172.095 190.935 171.75 191.558C171.413 192.174 170.955 192.687 170.375 193.098C169.796 193.509 169.132 193.817 168.384 194.022C167.644 194.227 166.866 194.33 166.052 194.33ZM179.053 194V178.16H189.283V180.646H181.704V184.551H187.963V187.037H181.704V191.514H189.283V194H179.053ZM190.602 194L195.97 185.992L190.756 178.16H194.001L197.609 183.737L201.184 178.16H204.451L199.237 185.992L204.583 194H201.338L197.609 188.247L193.869 194H190.602ZM211.025 194V180.646H205.899V178.16H218.802V180.646H213.676V194H211.025ZM220.561 194V178.16H230.791V180.646H223.212V184.551H229.471V187.037H223.212V191.514H230.791V194H220.561ZM233.43 194V178.16H239.975C240.129 178.16 240.327 178.167 240.569 178.182C240.811 178.189 241.034 178.211 241.24 178.248C242.156 178.387 242.912 178.692 243.506 179.161C244.107 179.63 244.551 180.224 244.837 180.943C245.13 181.654 245.277 182.446 245.277 183.319C245.277 184.61 244.95 185.721 244.298 186.652C243.645 187.576 242.644 188.148 241.295 188.368L240.162 188.467H236.081V194H233.43ZM242.527 194L239.403 187.554L242.098 186.96L245.53 194H242.527ZM236.081 185.992H239.865C240.011 185.992 240.176 185.985 240.36 185.97C240.543 185.955 240.712 185.926 240.866 185.882C241.306 185.772 241.65 185.578 241.9 185.299C242.156 185.02 242.336 184.705 242.439 184.353C242.549 184.001 242.604 183.656 242.604 183.319C242.604 182.982 242.549 182.637 242.439 182.285C242.336 181.926 242.156 181.607 241.9 181.328C241.65 181.049 241.306 180.855 240.866 180.745C240.712 180.701 240.543 180.675 240.36 180.668C240.176 180.653 240.011 180.646 239.865 180.646H236.081V185.992ZM247.953 194V178.16H250.637L257.985 189.325V178.16H260.669V194H257.985L250.637 182.835V194H247.953ZM262.644 194L267.638 178.16H271.521L276.515 194H273.787L269.255 179.788H269.849L265.372 194H262.644ZM265.427 190.568V188.093H273.743V190.568H265.427ZM278.724 194V178.16H281.375V191.514H288.371V194H278.724ZM293.543 194V178.16H299.824C300.895 178.16 301.771 178.376 302.453 178.809C303.142 179.234 303.652 179.781 303.982 180.448C304.319 181.115 304.488 181.805 304.488 182.516C304.488 183.389 304.279 184.129 303.861 184.738C303.45 185.347 302.889 185.757 302.178 185.97V185.42C303.175 185.647 303.931 186.12 304.444 186.839C304.965 187.558 305.225 188.375 305.225 189.292C305.225 190.231 305.045 191.052 304.686 191.756C304.327 192.46 303.791 193.01 303.08 193.406C302.376 193.802 301.503 194 300.462 194H293.543ZM296.227 191.503H300.132C300.594 191.503 301.008 191.411 301.375 191.228C301.742 191.037 302.028 190.773 302.233 190.436C302.446 190.091 302.552 189.684 302.552 189.215C302.552 188.79 302.46 188.408 302.277 188.071C302.094 187.734 301.826 187.466 301.474 187.268C301.122 187.063 300.7 186.96 300.209 186.96H296.227V191.503ZM296.227 184.485H299.791C300.172 184.485 300.513 184.412 300.814 184.265C301.115 184.118 301.353 183.902 301.529 183.616C301.705 183.33 301.793 182.978 301.793 182.56C301.793 182.01 301.617 181.552 301.265 181.185C300.913 180.818 300.422 180.635 299.791 180.635H296.227V184.485ZM307.422 194V178.16H317.652V180.646H310.073V184.551H316.332V187.037H310.073V191.514H317.652V194H307.422ZM319.191 194L324.185 178.16H328.068L333.062 194H330.334L325.802 179.788H326.396L321.919 194H319.191ZM321.974 190.568V188.093H330.29V190.568H321.974ZM341.001 194.33C339.74 194.33 338.629 194.073 337.668 193.56C336.715 193.047 335.967 192.324 335.424 191.393C334.889 190.462 334.621 189.369 334.621 188.115V178.182L337.305 178.16V188.049C337.305 188.643 337.404 189.175 337.602 189.644C337.807 190.113 338.082 190.513 338.427 190.843C338.772 191.166 339.168 191.411 339.615 191.58C340.062 191.749 340.524 191.833 341.001 191.833C341.492 191.833 341.958 191.749 342.398 191.58C342.845 191.404 343.241 191.155 343.586 190.832C343.931 190.502 344.202 190.102 344.4 189.633C344.598 189.164 344.697 188.636 344.697 188.049V178.16H347.381V188.115C347.381 189.369 347.11 190.462 346.567 191.393C346.032 192.324 345.284 193.047 344.323 193.56C343.37 194.073 342.262 194.33 341.001 194.33ZM354.261 194V180.646H349.135V178.16H362.038V180.646H356.912V194H354.261ZM368.313 194V187.51L362.923 178.16H366.014L369.655 184.474L373.285 178.16H376.376L370.997 187.51V194H368.313ZM381.656 194V178.16H384.307V194H381.656ZM387.602 194V178.16H389.989L395.467 189.38L400.945 178.16H403.332V194H400.857V183.847L395.995 194H394.939L390.088 183.847V194H387.602ZM406.422 194V178.16H412.967C413.121 178.16 413.319 178.167 413.561 178.182C413.803 178.189 414.027 178.211 414.232 178.248C415.149 178.387 415.904 178.692 416.498 179.161C417.099 179.63 417.543 180.224 417.829 180.943C418.122 181.654 418.269 182.446 418.269 183.319C418.269 184.184 418.122 184.976 417.829 185.695C417.536 186.406 417.088 186.997 416.487 187.466C415.893 187.935 415.141 188.24 414.232 188.379C414.027 188.408 413.799 188.43 413.55 188.445C413.308 188.46 413.114 188.467 412.967 188.467H409.073V194H406.422ZM409.073 185.992H412.857C413.004 185.992 413.169 185.985 413.352 185.97C413.535 185.955 413.704 185.926 413.858 185.882C414.298 185.772 414.643 185.578 414.892 185.299C415.149 185.02 415.328 184.705 415.431 184.353C415.541 184.001 415.596 183.656 415.596 183.319C415.596 182.982 415.541 182.637 415.431 182.285C415.328 181.926 415.149 181.607 414.892 181.328C414.643 181.049 414.298 180.855 413.858 180.745C413.704 180.701 413.535 180.675 413.352 180.668C413.169 180.653 413.004 180.646 412.857 180.646H409.073V185.992ZM427.172 194.33C425.588 194.33 424.231 193.985 423.102 193.296C421.972 192.599 421.103 191.631 420.495 190.392C419.893 189.153 419.593 187.715 419.593 186.08C419.593 184.445 419.893 183.007 420.495 181.768C421.103 180.529 421.972 179.564 423.102 178.875C424.231 178.178 425.588 177.83 427.172 177.83C428.756 177.83 430.112 178.178 431.242 178.875C432.378 179.564 433.247 180.529 433.849 181.768C434.457 183.007 434.762 184.445 434.762 186.08C434.762 187.715 434.457 189.153 433.849 190.392C433.247 191.631 432.378 192.599 431.242 193.296C430.112 193.985 428.756 194.33 427.172 194.33ZM427.172 191.833C428.235 191.84 429.119 191.606 429.823 191.129C430.534 190.652 431.066 189.981 431.418 189.116C431.777 188.251 431.957 187.239 431.957 186.08C431.957 184.921 431.777 183.917 431.418 183.066C431.066 182.208 430.534 181.541 429.823 181.064C429.119 180.587 428.235 180.342 427.172 180.327C426.108 180.32 425.225 180.554 424.521 181.031C423.817 181.508 423.285 182.179 422.926 183.044C422.574 183.909 422.398 184.921 422.398 186.08C422.398 187.239 422.574 188.247 422.926 189.105C423.278 189.956 423.806 190.619 424.51 191.096C425.221 191.573 426.108 191.818 427.172 191.833ZM436.951 194V178.16H443.496C443.65 178.16 443.848 178.167 444.09 178.182C444.332 178.189 444.556 178.211 444.761 178.248C445.678 178.387 446.433 178.692 447.027 179.161C447.628 179.63 448.072 180.224 448.358 180.943C448.651 181.654 448.798 182.446 448.798 183.319C448.798 184.61 448.472 185.721 447.819 186.652C447.166 187.576 446.165 188.148 444.816 188.368L443.683 188.467H439.602V194H436.951ZM446.048 194L442.924 187.554L445.619 186.96L449.051 194H446.048ZM439.602 185.992H443.386C443.533 185.992 443.698 185.985 443.881 185.97C444.064 185.955 444.233 185.926 444.387 185.882C444.827 185.772 445.172 185.578 445.421 185.299C445.678 185.02 445.857 184.705 445.96 184.353C446.07 184.001 446.125 183.656 446.125 183.319C446.125 182.982 446.07 182.637 445.96 182.285C445.857 181.926 445.678 181.607 445.421 181.328C445.172 181.049 444.827 180.855 444.387 180.745C444.233 180.701 444.064 180.675 443.881 180.668C443.698 180.653 443.533 180.646 443.386 180.646H439.602V185.992ZM455.281 194V180.646H450.155V178.16H463.058V180.646H457.932V194H455.281ZM463.287 194L468.281 178.16H472.164L477.158 194H474.43L469.898 179.788H470.492L466.015 194H463.287ZM466.07 190.568V188.093H474.386V190.568H466.07ZM479.146 194V178.16H481.83L489.178 189.325V178.16H491.862V194H489.178L481.83 182.835V194H479.146ZM498.743 194V180.646H493.617V178.16H506.52V180.646H501.394V194H498.743ZM217.794 223V207.16H220.445V223H217.794ZM223.74 223V207.16H226.424L233.772 218.325V207.16H236.456V223H233.772L226.424 211.835V223H223.74ZM250.635 223.33C249.051 223.33 247.694 222.985 246.565 222.296C245.435 221.599 244.566 220.631 243.958 219.392C243.356 218.153 243.056 216.715 243.056 215.08C243.056 213.445 243.356 212.007 243.958 210.768C244.566 209.529 245.435 208.564 246.565 207.875C247.694 207.178 249.051 206.83 250.635 206.83C252.219 206.83 253.575 207.178 254.705 207.875C255.841 208.564 256.71 209.529 257.312 210.768C257.92 212.007 258.225 213.445 258.225 215.08C258.225 216.715 257.92 218.153 257.312 219.392C256.71 220.631 255.841 221.599 254.705 222.296C253.575 222.985 252.219 223.33 250.635 223.33ZM250.635 220.833C251.698 220.84 252.582 220.606 253.286 220.129C253.997 219.652 254.529 218.981 254.881 218.116C255.24 217.251 255.42 216.239 255.42 215.08C255.42 213.921 255.24 212.917 254.881 212.066C254.529 211.208 253.997 210.541 253.286 210.064C252.582 209.587 251.698 209.342 250.635 209.327C249.571 209.32 248.688 209.554 247.984 210.031C247.28 210.508 246.748 211.179 246.389 212.044C246.037 212.909 245.861 213.921 245.861 215.08C245.861 216.239 246.037 217.247 246.389 218.105C246.741 218.956 247.269 219.619 247.973 220.096C248.684 220.573 249.571 220.818 250.635 220.833ZM266.794 223.33C265.533 223.33 264.422 223.073 263.461 222.56C262.508 222.047 261.76 221.324 261.217 220.393C260.682 219.462 260.414 218.369 260.414 217.115V207.182L263.098 207.16V217.049C263.098 217.643 263.197 218.175 263.395 218.644C263.6 219.113 263.875 219.513 264.22 219.843C264.565 220.166 264.961 220.411 265.408 220.58C265.855 220.749 266.317 220.833 266.794 220.833C267.285 220.833 267.751 220.749 268.191 220.58C268.638 220.404 269.034 220.155 269.379 219.832C269.724 219.502 269.995 219.102 270.193 218.633C270.391 218.164 270.49 217.636 270.49 217.049V207.16H273.174V217.115C273.174 218.369 272.903 219.462 272.36 220.393C271.825 221.324 271.077 222.047 270.116 222.56C269.163 223.073 268.055 223.33 266.794 223.33ZM276.248 223V207.16H282.793C282.947 207.16 283.145 207.167 283.387 207.182C283.629 207.189 283.853 207.211 284.058 207.248C284.975 207.387 285.73 207.692 286.324 208.161C286.925 208.63 287.369 209.224 287.655 209.943C287.948 210.654 288.095 211.446 288.095 212.319C288.095 213.61 287.769 214.721 287.116 215.652C286.463 216.576 285.462 217.148 284.113 217.368L282.98 217.467H278.899V223H276.248ZM285.345 223L282.221 216.554L284.916 215.96L288.348 223H285.345ZM278.899 214.992H282.683C282.83 214.992 282.995 214.985 283.178 214.97C283.361 214.955 283.53 214.926 283.684 214.882C284.124 214.772 284.469 214.578 284.718 214.299C284.975 214.02 285.154 213.705 285.257 213.353C285.367 213.001 285.422 212.656 285.422 212.319C285.422 211.982 285.367 211.637 285.257 211.285C285.154 210.926 284.975 210.607 284.718 210.328C284.469 210.049 284.124 209.855 283.684 209.745C283.53 209.701 283.361 209.675 283.178 209.668C282.995 209.653 282.83 209.646 282.683 209.646H278.899V214.992ZM298.52 223L293.889 207.16H296.672L299.829 218.6L302.975 207.182L305.758 207.16L308.915 218.6L312.061 207.16H314.844L310.224 223H307.606L304.361 211.736L301.138 223H298.52ZM322.908 223.33C321.324 223.33 319.967 222.985 318.838 222.296C317.709 221.599 316.84 220.631 316.231 219.392C315.63 218.153 315.329 216.715 315.329 215.08C315.329 213.445 315.63 212.007 316.231 210.768C316.84 209.529 317.709 208.564 318.838 207.875C319.967 207.178 321.324 206.83 322.908 206.83C324.492 206.83 325.849 207.178 326.978 207.875C328.115 208.564 328.984 209.529 329.585 210.768C330.194 212.007 330.498 213.445 330.498 215.08C330.498 216.715 330.194 218.153 329.585 219.392C328.984 220.631 328.115 221.599 326.978 222.296C325.849 222.985 324.492 223.33 322.908 223.33ZM322.908 220.833C323.971 220.84 324.855 220.606 325.559 220.129C326.27 219.652 326.802 218.981 327.154 218.116C327.513 217.251 327.693 216.239 327.693 215.08C327.693 213.921 327.513 212.917 327.154 212.066C326.802 211.208 326.27 210.541 325.559 210.064C324.855 209.587 323.971 209.342 322.908 209.327C321.845 209.32 320.961 209.554 320.257 210.031C319.553 210.508 319.021 211.179 318.662 212.044C318.31 212.909 318.134 213.921 318.134 215.08C318.134 216.239 318.31 217.247 318.662 218.105C319.014 218.956 319.542 219.619 320.246 220.096C320.957 220.573 321.845 220.818 322.908 220.833ZM332.687 223V207.16H339.232C339.386 207.16 339.584 207.167 339.826 207.182C340.068 207.189 340.292 207.211 340.497 207.248C341.414 207.387 342.169 207.692 342.763 208.161C343.365 208.63 343.808 209.224 344.094 209.943C344.388 210.654 344.534 211.446 344.534 212.319C344.534 213.61 344.208 214.721 343.555 215.652C342.903 216.576 341.902 217.148 340.552 217.368L339.419 217.467H335.338V223H332.687ZM341.784 223L338.66 216.554L341.355 215.96L344.787 223H341.784ZM335.338 214.992H339.122C339.269 214.992 339.434 214.985 339.617 214.97C339.801 214.955 339.969 214.926 340.123 214.882C340.563 214.772 340.908 214.578 341.157 214.299C341.414 214.02 341.594 213.705 341.696 213.353C341.806 213.001 341.861 212.656 341.861 212.319C341.861 211.982 341.806 211.637 341.696 211.285C341.594 210.926 341.414 210.607 341.157 210.328C340.908 210.049 340.563 209.855 340.123 209.745C339.969 209.701 339.801 209.675 339.617 209.668C339.434 209.653 339.269 209.646 339.122 209.646H335.338V214.992ZM347.431 223V207.16H350.082V220.514H357.078V223H347.431ZM358.941 223V207.16H363.99C364.122 207.16 364.383 207.164 364.771 207.171C365.167 207.178 365.549 207.204 365.915 207.248C367.169 207.409 368.229 207.857 369.094 208.59C369.967 209.316 370.627 210.244 371.074 211.373C371.522 212.502 371.745 213.738 371.745 215.08C371.745 216.422 371.522 217.658 371.074 218.787C370.627 219.916 369.967 220.848 369.094 221.581C368.229 222.307 367.169 222.751 365.915 222.912C365.556 222.956 365.178 222.982 364.782 222.989C364.386 222.996 364.122 223 363.99 223H358.941ZM361.636 220.503H363.99C364.21 220.503 364.489 220.496 364.826 220.481C365.171 220.466 365.475 220.433 365.739 220.382C366.487 220.243 367.096 219.909 367.565 219.381C368.035 218.853 368.379 218.211 368.599 217.456C368.827 216.701 368.94 215.909 368.94 215.08C368.94 214.222 368.827 213.415 368.599 212.66C368.372 211.905 368.02 211.27 367.543 210.757C367.074 210.244 366.473 209.917 365.739 209.778C365.475 209.719 365.171 209.686 364.826 209.679C364.489 209.664 364.21 209.657 363.99 209.657H361.636V220.503ZM377.217 218.699C377.217 218.193 377.264 217.705 377.36 217.236C377.462 216.759 377.627 216.319 377.855 215.916C378.053 215.527 378.273 215.219 378.515 214.992C378.757 214.757 379.028 214.526 379.329 214.299C379.629 214.064 379.963 213.753 380.33 213.364C380.63 213.034 380.828 212.708 380.924 212.385C381.019 212.055 381.067 211.703 381.067 211.329C381.067 211.087 381.041 210.86 380.99 210.647C380.938 210.434 380.847 210.251 380.715 210.097C380.509 209.826 380.245 209.635 379.923 209.525C379.6 209.408 379.255 209.349 378.889 209.349C378.588 209.349 378.298 209.389 378.02 209.47C377.748 209.543 377.517 209.661 377.327 209.822C377.107 209.998 376.945 210.214 376.843 210.471C376.74 210.728 376.692 211.01 376.7 211.318H373.906C373.979 210.585 374.177 209.906 374.5 209.283C374.83 208.652 375.262 208.15 375.798 207.776C376.216 207.468 376.685 207.237 377.206 207.083C377.734 206.929 378.262 206.852 378.79 206.852C379.596 206.852 380.355 206.977 381.067 207.226C381.785 207.475 382.383 207.886 382.86 208.458C383.19 208.832 383.439 209.265 383.608 209.756C383.784 210.247 383.872 210.746 383.872 211.252C383.872 212.007 383.707 212.697 383.377 213.32C383.054 213.943 382.643 214.519 382.145 215.047C381.91 215.296 381.686 215.516 381.474 215.707C381.261 215.898 381.063 216.085 380.88 216.268C380.704 216.444 380.557 216.631 380.44 216.829C380.234 217.174 380.113 217.467 380.077 217.709C380.04 217.944 380.022 218.274 380.022 218.699H377.217ZM377.239 223V220.085H380.022V223H377.239Z" fill="white"></path> <rect x="20" y="20" width="248" height="40" rx="20" fill="white" fill-opacity="0.3"></rect> <path d="M32.8122 46L36.6682 34.48H38.6522L42.5082 46H41.0282L37.4202 35.312H37.8682L34.2922 46H32.8122ZM34.6682 43.304V41.968H40.6522V43.304H34.6682ZM43.9403 46V34.48H48.4923C48.6043 34.48 48.7376 34.4853 48.8923 34.496C49.047 34.5013 49.1963 34.5173 49.3403 34.544C49.9643 34.64 50.487 34.8533 50.9083 35.184C51.335 35.5147 51.655 35.9333 51.8683 36.44C52.0816 36.9413 52.1883 37.4987 52.1883 38.112C52.1883 38.72 52.079 39.2773 51.8603 39.784C51.647 40.2853 51.327 40.704 50.9003 41.04C50.479 41.3707 49.959 41.584 49.3403 41.68C49.1963 41.7013 49.047 41.7173 48.8923 41.728C48.7376 41.7387 48.6043 41.744 48.4923 41.744H45.3643V46H43.9403ZM45.3643 40.392H48.4443C48.5456 40.392 48.6603 40.3867 48.7883 40.376C48.9216 40.3653 49.047 40.3467 49.1643 40.32C49.5323 40.2347 49.831 40.08 50.0603 39.856C50.295 39.6267 50.4656 39.36 50.5723 39.056C50.679 38.7467 50.7323 38.432 50.7323 38.112C50.7323 37.792 50.679 37.48 50.5723 37.176C50.4656 36.8667 50.295 36.5973 50.0603 36.368C49.831 36.1387 49.5323 35.984 49.1643 35.904C49.047 35.872 48.9216 35.8533 48.7883 35.848C48.6603 35.8373 48.5456 35.832 48.4443 35.832H45.3643V40.392ZM53.7841 46V34.48H58.3361C58.4481 34.48 58.5814 34.4853 58.7361 34.496C58.8907 34.5013 59.0401 34.5173 59.1841 34.544C59.8081 34.64 60.3307 34.8533 60.7521 35.184C61.1787 35.5147 61.4987 35.9333 61.7121 36.44C61.9254 36.9413 62.0321 37.4987 62.0321 38.112C62.0321 38.72 61.9227 39.2773 61.7041 39.784C61.4907 40.2853 61.1707 40.704 60.7441 41.04C60.3227 41.3707 59.8027 41.584 59.1841 41.68C59.0401 41.7013 58.8907 41.7173 58.7361 41.728C58.5814 41.7387 58.4481 41.744 58.3361 41.744H55.2081V46H53.7841ZM55.2081 40.392H58.2881C58.3894 40.392 58.5041 40.3867 58.6321 40.376C58.7654 40.3653 58.8907 40.3467 59.0081 40.32C59.3761 40.2347 59.6747 40.08 59.9041 39.856C60.1387 39.6267 60.3094 39.36 60.4161 39.056C60.5227 38.7467 60.5761 38.432 60.5761 38.112C60.5761 37.792 60.5227 37.48 60.4161 37.176C60.3094 36.8667 60.1387 36.5973 59.9041 36.368C59.6747 36.1387 59.3761 35.984 59.0081 35.904C58.8907 35.872 58.7654 35.8533 58.6321 35.848C58.5041 35.8373 58.3894 35.832 58.2881 35.832H55.2081V40.392ZM63.6278 46V34.48H70.9078V35.832H65.0518V39.44H69.9478V40.792H65.0518V44.648H70.9078V46H63.6278ZM72.0309 46L75.8869 34.48H77.8709L81.7269 46H80.2469L76.6389 35.312H77.0869L73.5109 46H72.0309ZM73.8869 43.304V41.968H79.8709V43.304H73.8869ZM83.1591 46V34.48H87.7111C87.8231 34.48 87.9564 34.4853 88.1111 34.496C88.2657 34.5013 88.4151 34.5173 88.5591 34.544C89.1831 34.64 89.7057 34.8533 90.1271 35.184C90.5537 35.5147 90.8737 35.9333 91.0871 36.44C91.3004 36.9413 91.4071 37.4987 91.4071 38.112C91.4071 39.0027 91.1751 39.776 90.7111 40.432C90.2471 41.0827 89.5671 41.4907 88.6711 41.656L88.1271 41.744H84.5831V46H83.1591ZM90.0151 46L87.7431 41.312L89.1511 40.88L91.6471 46H90.0151ZM84.5831 40.392H87.6631C87.7644 40.392 87.8791 40.3867 88.0071 40.376C88.1404 40.3653 88.2657 40.3467 88.3831 40.32C88.7511 40.2347 89.0497 40.08 89.2791 39.856C89.5137 39.6267 89.6844 39.36 89.7911 39.056C89.8977 38.7467 89.9511 38.432 89.9511 38.112C89.9511 37.792 89.8977 37.48 89.7911 37.176C89.6844 36.8667 89.5137 36.5973 89.2791 36.368C89.0497 36.1387 88.7511 35.984 88.3831 35.904C88.2657 35.872 88.1404 35.8533 88.0071 35.848C87.8791 35.8373 87.7644 35.832 87.6631 35.832H84.5831V40.392ZM92.6091 46L96.4651 34.48H98.4491L102.305 46H100.825L97.2171 35.312H97.6651L94.0891 46H92.6091ZM94.4651 43.304V41.968H100.449V43.304H94.4651ZM103.737 46V34.48H105.177L111.185 43.48V34.48H112.625V46H111.185L105.177 36.992V46H103.737ZM119.598 46.24C118.452 46.24 117.478 45.9867 116.678 45.48C115.878 44.9733 115.268 44.2693 114.846 43.368C114.43 42.4667 114.222 41.424 114.222 40.24C114.222 39.056 114.43 38.0133 114.846 37.112C115.268 36.2107 115.878 35.5067 116.678 35C117.478 34.4933 118.452 34.24 119.598 34.24C120.932 34.24 122.028 34.5787 122.886 35.256C123.75 35.9333 124.345 36.8453 124.67 37.992L123.222 38.376C122.988 37.5173 122.569 36.84 121.966 36.344C121.364 35.848 120.574 35.6 119.598 35.6C118.74 35.6 118.025 35.7947 117.454 36.184C116.884 36.5733 116.454 37.1173 116.166 37.816C115.878 38.5093 115.732 39.3173 115.726 40.24C115.721 41.1573 115.862 41.9653 116.15 42.664C116.438 43.3573 116.87 43.9013 117.446 44.296C118.022 44.6853 118.74 44.88 119.598 44.88C120.574 44.88 121.364 44.632 121.966 44.136C122.569 43.6347 122.988 42.9573 123.222 42.104L124.67 42.488C124.345 43.6293 123.75 44.5413 122.886 45.224C122.028 45.9013 120.932 46.24 119.598 46.24ZM126.425 46V34.48H133.705V35.832H127.849V39.44H132.745V40.792H127.849V44.648H133.705V46H126.425ZM142.575 46.24C141.935 46.24 141.338 46.1467 140.783 45.96C140.228 45.7733 139.764 45.48 139.391 45.08C139.103 44.76 138.887 44.408 138.743 44.024C138.604 43.6347 138.527 43.224 138.511 42.792C138.511 42.3707 138.572 41.96 138.695 41.56C138.818 41.1547 139.012 40.7947 139.279 40.48C139.418 40.3093 139.572 40.1653 139.743 40.048C139.919 39.9253 140.095 39.8213 140.271 39.736C139.903 39.3413 139.62 38.9707 139.423 38.624C139.231 38.2773 139.135 37.8587 139.135 37.368C139.135 36.744 139.295 36.1813 139.615 35.68C139.94 35.1733 140.383 34.8027 140.943 34.568C141.215 34.4507 141.492 34.3707 141.775 34.328C142.063 34.28 142.343 34.256 142.615 34.256C143.074 34.256 143.519 34.32 143.951 34.448C144.383 34.576 144.751 34.784 145.055 35.072C145.258 35.2427 145.431 35.44 145.575 35.664C145.719 35.8827 145.831 36.112 145.911 36.352L144.519 36.712C144.418 36.44 144.25 36.2107 144.015 36.024C143.828 35.864 143.61 35.7547 143.359 35.696C143.114 35.6373 142.866 35.608 142.615 35.608C142.199 35.608 141.823 35.688 141.487 35.848C141.188 35.992 140.964 36.1947 140.815 36.456C140.666 36.712 140.591 37.016 140.591 37.368C140.591 37.672 140.642 37.9227 140.743 38.12C140.85 38.312 140.996 38.5173 141.183 38.736C141.295 38.8533 141.42 38.9787 141.559 39.112C141.703 39.24 141.85 39.3733 141.999 39.512L145.391 42.664C145.407 42.5307 145.418 42.3947 145.423 42.256C145.428 42.1173 145.431 41.984 145.431 41.856L145.423 40.264H146.727V42.136C146.727 42.5147 146.714 42.8373 146.687 43.104C146.666 43.3707 146.628 43.592 146.575 43.768L148.039 45.12L147.111 46.112L145.895 44.96C145.687 45.1947 145.439 45.4 145.151 45.576C144.863 45.752 144.575 45.8853 144.287 45.976C144.015 46.0773 143.735 46.1467 143.447 46.184C143.159 46.2213 142.868 46.24 142.575 46.24ZM142.607 44.872C142.868 44.872 143.106 44.856 143.319 44.824C143.532 44.792 143.735 44.7307 143.927 44.64C144.183 44.5173 144.38 44.4 144.519 44.288C144.658 44.176 144.772 44.072 144.863 43.976L141.351 40.76C141.159 40.824 140.978 40.9093 140.807 41.016C140.642 41.1227 140.498 41.248 140.375 41.392C140.236 41.5627 140.132 41.7627 140.063 41.992C139.999 42.2213 139.967 42.464 139.967 42.72C139.972 42.992 140.018 43.2427 140.103 43.472C140.188 43.7013 140.308 43.9067 140.463 44.088C140.698 44.36 141.015 44.56 141.415 44.688C141.815 44.8107 142.212 44.872 142.607 44.872ZM152.55 46V34.48H157.102C157.214 34.48 157.347 34.4853 157.502 34.496C157.656 34.5013 157.806 34.5173 157.95 34.544C158.574 34.64 159.096 34.8533 159.518 35.184C159.944 35.5147 160.264 35.9333 160.478 36.44C160.691 36.9413 160.798 37.4987 160.798 38.112C160.798 38.72 160.688 39.2773 160.47 39.784C160.256 40.2853 159.936 40.704 159.51 41.04C159.088 41.3707 158.568 41.584 157.95 41.68C157.806 41.7013 157.656 41.7173 157.502 41.728C157.347 41.7387 157.214 41.744 157.102 41.744H153.974V46H152.55ZM153.974 40.392H157.054C157.155 40.392 157.27 40.3867 157.398 40.376C157.531 40.3653 157.656 40.3467 157.774 40.32C158.142 40.2347 158.44 40.08 158.67 39.856C158.904 39.6267 159.075 39.36 159.182 39.056C159.288 38.7467 159.342 38.432 159.342 38.112C159.342 37.792 159.288 37.48 159.182 37.176C159.075 36.8667 158.904 36.5973 158.67 36.368C158.44 36.1387 158.142 35.984 157.774 35.904C157.656 35.872 157.531 35.8533 157.398 35.848C157.27 35.8373 157.155 35.832 157.054 35.832H153.974V40.392ZM162.393 46V34.48H169.673V35.832H163.817V39.44H168.713V40.792H163.817V44.648H169.673V46H162.393ZM171.597 46V34.48H176.149C176.261 34.48 176.394 34.4853 176.549 34.496C176.703 34.5013 176.853 34.5173 176.997 34.544C177.621 34.64 178.143 34.8533 178.565 35.184C178.991 35.5147 179.311 35.9333 179.525 36.44C179.738 36.9413 179.845 37.4987 179.845 38.112C179.845 39.0027 179.613 39.776 179.149 40.432C178.685 41.0827 178.005 41.4907 177.109 41.656L176.565 41.744H173.021V46H171.597ZM178.453 46L176.181 41.312L177.589 40.88L180.085 46H178.453ZM173.021 40.392H176.101C176.202 40.392 176.317 40.3867 176.445 40.376C176.578 40.3653 176.703 40.3467 176.821 40.32C177.189 40.2347 177.487 40.08 177.717 39.856C177.951 39.6267 178.122 39.36 178.229 39.056C178.335 38.7467 178.389 38.432 178.389 38.112C178.389 37.792 178.335 37.48 178.229 37.176C178.122 36.8667 177.951 36.5973 177.717 36.368C177.487 36.1387 177.189 35.984 176.821 35.904C176.703 35.872 176.578 35.8533 176.445 35.848C176.317 35.8373 176.202 35.832 176.101 35.832H173.021V40.392ZM185.935 46.24C185.119 46.24 184.383 46.1013 183.727 45.824C183.076 45.5467 182.537 45.152 182.111 44.64C181.689 44.1227 181.415 43.512 181.287 42.808L182.759 42.576C182.945 43.3013 183.332 43.8693 183.919 44.28C184.511 44.6853 185.207 44.888 186.007 44.888C186.524 44.888 186.991 44.808 187.407 44.648C187.828 44.4827 188.161 44.248 188.407 43.944C188.652 43.64 188.775 43.28 188.775 42.864C188.775 42.608 188.729 42.3893 188.639 42.208C188.553 42.0213 188.433 41.864 188.279 41.736C188.129 41.6027 187.959 41.4907 187.767 41.4C187.575 41.3093 187.375 41.2347 187.167 41.176L184.231 40.304C183.911 40.208 183.601 40.088 183.303 39.944C183.004 39.7947 182.737 39.6107 182.503 39.392C182.268 39.168 182.081 38.9013 181.943 38.592C181.804 38.2773 181.735 37.9067 181.735 37.48C181.735 36.7973 181.911 36.216 182.263 35.736C182.62 35.2507 183.103 34.88 183.711 34.624C184.319 34.368 185.004 34.2427 185.767 34.248C186.54 34.2533 187.231 34.392 187.839 34.664C188.452 34.9307 188.959 35.3147 189.359 35.816C189.764 36.3173 190.036 36.9173 190.175 37.616L188.663 37.88C188.583 37.4107 188.404 37.008 188.127 36.672C187.855 36.3307 187.513 36.0693 187.103 35.888C186.692 35.7013 186.241 35.6053 185.751 35.6C185.281 35.5947 184.857 35.6693 184.479 35.824C184.1 35.9787 183.799 36.1947 183.575 36.472C183.351 36.744 183.239 37.0587 183.239 37.416C183.239 37.768 183.34 38.0533 183.543 38.272C183.745 38.4853 183.993 38.656 184.287 38.784C184.585 38.9067 184.876 39.008 185.159 39.088L187.351 39.72C187.601 39.7893 187.889 39.8853 188.215 40.008C188.545 40.1307 188.865 40.304 189.175 40.528C189.484 40.7467 189.74 41.04 189.943 41.408C190.145 41.7707 190.247 42.2293 190.247 42.784C190.247 43.3387 190.135 43.832 189.911 44.264C189.692 44.696 189.385 45.0587 188.991 45.352C188.596 45.64 188.137 45.8587 187.615 46.008C187.092 46.1627 186.532 46.24 185.935 46.24ZM196.661 46.24C195.514 46.24 194.541 45.9867 193.741 45.48C192.941 44.9733 192.33 44.2693 191.909 43.368C191.493 42.4667 191.285 41.424 191.285 40.24C191.285 39.056 191.493 38.0133 191.909 37.112C192.33 36.2107 192.941 35.5067 193.741 35C194.541 34.4933 195.514 34.24 196.661 34.24C197.813 34.24 198.789 34.4933 199.589 35C200.389 35.5067 200.997 36.2107 201.413 37.112C201.829 38.0133 202.037 39.056 202.037 40.24C202.037 41.424 201.829 42.4667 201.413 43.368C200.997 44.2693 200.389 44.9733 199.589 45.48C198.789 45.9867 197.813 46.24 196.661 46.24ZM196.661 44.88C197.519 44.8853 198.234 44.6933 198.805 44.304C199.381 43.9093 199.81 43.3627 200.093 42.664C200.381 41.9653 200.525 41.1573 200.525 40.24C200.525 39.3173 200.381 38.5093 200.093 37.816C199.81 37.1227 199.381 36.5813 198.805 36.192C198.234 35.8027 197.519 35.6053 196.661 35.6C195.802 35.5947 195.087 35.7867 194.517 36.176C193.951 36.5653 193.525 37.1093 193.237 37.808C192.949 38.5067 192.802 39.3173 192.797 40.24C192.791 41.1573 192.933 41.9627 193.221 42.656C193.509 43.3493 193.938 43.8933 194.509 44.288C195.085 44.6773 195.802 44.8747 196.661 44.88ZM203.643 46V34.48H205.083L211.091 43.48V34.48H212.531V46H211.091L205.083 36.992V46H203.643ZM213.968 46L217.824 34.48H219.808L223.664 46H222.184L218.576 35.312H219.024L215.448 46H213.968ZM215.824 43.304V41.968H221.808V43.304H215.824ZM225.257 46V34.48H226.681V44.648H232.025V46H225.257ZM233.538 46V34.48H234.962V46H233.538ZM240.33 46V35.832H236.402V34.48H245.682V35.832H241.754V46H240.33ZM250.2 46V41.208L246.32 34.48H247.976L250.92 39.576L253.856 34.48H255.512L251.64 41.208V46H250.2Z" fill="white"></path> <defs> <linearGradient id="paint0_linear_160_262" x1="300" y1="0" x2="300" y2="400" gradientUnits="userSpaceOnUse"> <stop stop-color="#B0772C"></stop> <stop offset="1" stop-color="#FBBC69"></stop> </linearGradient> </defs> </svg> 