<?xml version="1.0" encoding="UTF-8"?> <svg xmlns="http://www.w3.org/2000/svg" width="600" height="400" viewBox="0 0 600 400" fill="none"> <rect width="600" height="400" rx="20" fill="url(#paint0_linear_160_274)"></rect> <path d="M83.7834 180L79.1524 164.16H81.9354L85.0924 175.6L88.2384 164.182L91.0214 164.16L94.1784 175.6L97.3244 164.16H100.107L95.4874 180H92.8694L89.6244 168.736L86.4014 180H83.7834ZM101.902 180V164.16H104.553V170.826H112.055V164.16H114.695V180H112.055V173.312H104.553V180H101.902ZM121.629 180V173.51L116.239 164.16H119.33L122.971 170.474L126.601 164.16H129.692L124.313 173.51V180H121.629ZM133.652 180L138.646 164.16H142.529L147.523 180H144.795L140.263 165.788H140.857L136.38 180H133.652ZM136.435 176.568V174.093H144.751V176.568H136.435ZM149.512 180V164.16H152.196L159.544 175.325V164.16H162.228V180H159.544L152.196 168.835V180H149.512ZM165.303 180V164.16H170.352C170.484 164.16 170.744 164.164 171.133 164.171C171.529 164.178 171.91 164.204 172.277 164.248C173.531 164.409 174.59 164.857 175.456 165.59C176.328 166.316 176.988 167.244 177.436 168.373C177.883 169.502 178.107 170.738 178.107 172.08C178.107 173.422 177.883 174.658 177.436 175.787C176.988 176.916 176.328 177.848 175.456 178.581C174.59 179.307 173.531 179.751 172.277 179.912C171.917 179.956 171.54 179.982 171.144 179.989C170.748 179.996 170.484 180 170.352 180H165.303ZM167.998 177.503H170.352C170.572 177.503 170.85 177.496 171.188 177.481C171.532 177.466 171.837 177.433 172.101 177.382C172.849 177.243 173.457 176.909 173.927 176.381C174.396 175.853 174.741 175.211 174.961 174.456C175.188 173.701 175.302 172.909 175.302 172.08C175.302 171.222 175.188 170.415 174.961 169.66C174.733 168.905 174.381 168.27 173.905 167.757C173.435 167.244 172.834 166.917 172.101 166.778C171.837 166.719 171.532 166.686 171.188 166.679C170.85 166.664 170.572 166.657 170.352 166.657H167.998V177.503ZM185.111 180V164.16H187.762V170.826H195.264V164.16H197.904V180H195.264V173.312H187.762V180H185.111ZM207.687 180.33C206.103 180.33 204.747 179.985 203.617 179.296C202.488 178.599 201.619 177.631 201.01 176.392C200.409 175.153 200.108 173.715 200.108 172.08C200.108 170.445 200.409 169.007 201.01 167.768C201.619 166.529 202.488 165.564 203.617 164.875C204.747 164.178 206.103 163.83 207.687 163.83C209.271 163.83 210.628 164.178 211.757 164.875C212.894 165.564 213.763 166.529 214.364 167.768C214.973 169.007 215.277 170.445 215.277 172.08C215.277 173.715 214.973 175.153 214.364 176.392C213.763 177.631 212.894 178.599 211.757 179.296C210.628 179.985 209.271 180.33 207.687 180.33ZM207.687 177.833C208.751 177.84 209.634 177.606 210.338 177.129C211.05 176.652 211.581 175.981 211.933 175.116C212.293 174.251 212.472 173.239 212.472 172.08C212.472 170.921 212.293 169.917 211.933 169.066C211.581 168.208 211.05 167.541 210.338 167.064C209.634 166.587 208.751 166.342 207.687 166.327C206.624 166.32 205.74 166.554 205.036 167.031C204.332 167.508 203.801 168.179 203.441 169.044C203.089 169.909 202.913 170.921 202.913 172.08C202.913 173.239 203.089 174.247 203.441 175.105C203.793 175.956 204.321 176.619 205.025 177.096C205.737 177.573 206.624 177.818 207.687 177.833ZM220.145 180L215.514 164.16H218.297L221.454 175.6L224.6 164.182L227.383 164.16L230.54 175.6L233.686 164.16H236.469L231.849 180H229.231L225.986 168.736L222.763 180H220.145ZM242.668 180V164.16H245.319V170.826H252.821V164.16H255.461V180H252.821V173.312H245.319V180H242.668ZM257.445 180L262.439 164.16H266.322L271.316 180H268.588L264.056 165.788H264.65L260.173 180H257.445ZM260.228 176.568V174.093H268.544V176.568H260.228ZM275.322 180L270.328 164.16H273.056L277.236 177.426L281.471 164.16H284.199L279.205 180H275.322ZM285.852 180V164.16H296.082V166.646H288.503V170.551H294.762V173.037H288.503V177.514H296.082V180H285.852ZM303.125 180V164.16H305.512L310.99 175.38L316.468 164.16H318.855V180H316.38V169.847L311.518 180H310.462L305.611 169.847V180H303.125ZM320.845 180L325.839 164.16H329.722L334.716 180H331.988L327.456 165.788H328.05L323.573 180H320.845ZM323.628 176.568V174.093H331.944V176.568H323.628ZM342.809 180.33C341.783 180.33 340.818 180.15 339.916 179.791C339.022 179.424 338.233 178.889 337.551 178.185C336.877 177.481 336.349 176.619 335.967 175.6C335.586 174.573 335.395 173.4 335.395 172.08C335.395 170.349 335.718 168.872 336.363 167.647C337.009 166.415 337.892 165.473 339.014 164.82C340.136 164.16 341.401 163.83 342.809 163.83C344.76 163.83 346.304 164.285 347.44 165.194C348.584 166.096 349.358 167.365 349.761 169L347.055 169.429C346.755 168.49 346.263 167.742 345.581 167.185C344.899 166.62 344.03 166.338 342.974 166.338C341.911 166.323 341.027 166.554 340.323 167.031C339.619 167.508 339.088 168.179 338.728 169.044C338.376 169.909 338.2 170.921 338.2 172.08C338.2 173.239 338.376 174.247 338.728 175.105C339.08 175.956 339.608 176.619 340.312 177.096C341.024 177.573 341.911 177.818 342.974 177.833C343.774 177.84 344.474 177.697 345.075 177.404C345.677 177.103 346.168 176.652 346.549 176.051C346.931 175.442 347.187 174.683 347.319 173.774H344.525V171.695H350.135C350.15 171.812 350.161 171.985 350.168 172.212C350.176 172.439 350.179 172.575 350.179 172.619C350.179 174.115 349.882 175.446 349.288 176.612C348.702 177.771 347.858 178.68 346.758 179.34C345.658 180 344.342 180.33 342.809 180.33ZM350.859 180L355.853 164.16H359.736L364.73 180H362.002L357.47 165.788H358.064L353.587 180H350.859ZM353.642 176.568V174.093H361.958V176.568H353.642ZM366.279 180V179.637L374.089 166.646H366.829V164.16H378.676V164.534L370.91 177.503H378.489V180H366.279ZM381.527 180V164.16H384.178V180H381.527ZM387.473 180V164.16H390.157L397.505 175.325V164.16H400.189V180H397.505L390.157 168.835V180H387.473ZM403.264 180V164.16H413.494V166.646H405.915V170.551H412.174V173.037H405.915V177.514H413.494V180H403.264ZM416.463 169.792L416.617 168.648C416.954 168.677 417.222 168.622 417.42 168.483C417.618 168.336 417.75 168.135 417.816 167.878C417.889 167.614 417.907 167.317 417.871 166.987H416.463V164.16H419.18V167.097C419.18 168.058 418.952 168.784 418.498 169.275C418.043 169.766 417.365 169.939 416.463 169.792ZM427.152 180.33C425.993 180.33 424.948 180.128 424.017 179.725C423.093 179.322 422.33 178.746 421.729 177.998C421.135 177.243 420.757 176.348 420.596 175.314L423.346 174.896C423.581 175.835 424.061 176.561 424.787 177.074C425.52 177.587 426.364 177.844 427.317 177.844C427.882 177.844 428.413 177.756 428.912 177.58C429.411 177.404 429.814 177.147 430.122 176.81C430.437 176.473 430.595 176.058 430.595 175.567C430.595 175.347 430.558 175.145 430.485 174.962C430.412 174.771 430.302 174.603 430.155 174.456C430.016 174.309 429.832 174.177 429.605 174.06C429.385 173.935 429.128 173.829 428.835 173.741L424.743 172.531C424.391 172.428 424.01 172.293 423.599 172.124C423.196 171.948 422.811 171.71 422.444 171.409C422.085 171.101 421.788 170.712 421.553 170.243C421.326 169.766 421.212 169.18 421.212 168.483C421.212 167.464 421.469 166.609 421.982 165.92C422.503 165.223 423.199 164.703 424.072 164.358C424.952 164.013 425.927 163.845 426.998 163.852C428.083 163.859 429.051 164.046 429.902 164.413C430.753 164.772 431.464 165.297 432.036 165.986C432.608 166.675 433.011 167.508 433.246 168.483L430.397 168.978C430.28 168.421 430.052 167.948 429.715 167.559C429.385 167.163 428.978 166.862 428.494 166.657C428.017 166.452 427.508 166.342 426.965 166.327C426.437 166.32 425.946 166.4 425.491 166.569C425.044 166.73 424.681 166.965 424.402 167.273C424.131 167.581 423.995 167.94 423.995 168.351C423.995 168.74 424.112 169.059 424.347 169.308C424.582 169.55 424.871 169.744 425.216 169.891C425.568 170.03 425.924 170.148 426.283 170.243L429.121 171.035C429.51 171.138 429.946 171.277 430.43 171.453C430.914 171.629 431.38 171.875 431.827 172.19C432.274 172.505 432.641 172.92 432.927 173.433C433.22 173.946 433.367 174.599 433.367 175.391C433.367 176.212 433.195 176.935 432.85 177.558C432.513 178.174 432.054 178.687 431.475 179.098C430.896 179.509 430.232 179.817 429.484 180.022C428.743 180.227 427.966 180.33 427.152 180.33ZM440.152 180V164.16H446.433C447.504 164.16 448.38 164.376 449.062 164.809C449.752 165.234 450.261 165.781 450.591 166.448C450.929 167.115 451.097 167.805 451.097 168.516C451.097 169.389 450.888 170.129 450.47 170.738C450.06 171.347 449.499 171.757 448.787 171.97V171.42C449.785 171.647 450.54 172.12 451.053 172.839C451.574 173.558 451.834 174.375 451.834 175.292C451.834 176.231 451.655 177.052 451.295 177.756C450.936 178.46 450.401 179.01 449.689 179.406C448.985 179.802 448.113 180 447.071 180H440.152ZM442.836 177.503H446.741C447.203 177.503 447.618 177.411 447.984 177.228C448.351 177.037 448.637 176.773 448.842 176.436C449.055 176.091 449.161 175.684 449.161 175.215C449.161 174.79 449.07 174.408 448.886 174.071C448.703 173.734 448.435 173.466 448.083 173.268C447.731 173.063 447.31 172.96 446.818 172.96H442.836V177.503ZM442.836 170.485H446.4C446.782 170.485 447.123 170.412 447.423 170.265C447.724 170.118 447.962 169.902 448.138 169.616C448.314 169.33 448.402 168.978 448.402 168.56C448.402 168.01 448.226 167.552 447.874 167.185C447.522 166.818 447.031 166.635 446.4 166.635H442.836V170.485ZM454.031 180V164.16H464.261V166.646H456.682V170.551H462.941V173.037H456.682V177.514H464.261V180H454.031ZM465.8 180L470.794 164.16H474.677L479.671 180H476.943L472.411 165.788H473.005L468.528 180H465.8ZM468.583 176.568V174.093H476.899V176.568H468.583ZM487.61 180.33C486.349 180.33 485.238 180.073 484.277 179.56C483.324 179.047 482.576 178.324 482.033 177.393C481.498 176.462 481.23 175.369 481.23 174.115V164.182L483.914 164.16V174.049C483.914 174.643 484.013 175.175 484.211 175.644C484.417 176.113 484.692 176.513 485.036 176.843C485.381 177.166 485.777 177.411 486.224 177.58C486.672 177.749 487.134 177.833 487.61 177.833C488.102 177.833 488.567 177.749 489.007 177.58C489.455 177.404 489.851 177.155 490.195 176.832C490.54 176.502 490.811 176.102 491.009 175.633C491.207 175.164 491.306 174.636 491.306 174.049V164.16H493.99V174.115C493.99 175.369 493.719 176.462 493.176 177.393C492.641 178.324 491.893 179.047 490.932 179.56C489.979 180.073 488.872 180.33 487.61 180.33ZM500.87 180V166.646H495.744V164.16H508.647V166.646H503.521V180H500.87ZM514.922 180V173.51L509.532 164.16H512.623L516.264 170.474L519.894 164.16H522.985L517.606 173.51V180H514.922ZM82.0055 209.33C80.8469 209.33 79.8019 209.128 78.8705 208.725C77.9465 208.322 77.1839 207.746 76.5825 206.998C75.9885 206.243 75.6109 205.348 75.4495 204.314L78.1995 203.896C78.4342 204.835 78.9145 205.561 79.6405 206.074C80.3739 206.587 81.2172 206.844 82.1705 206.844C82.7352 206.844 83.2669 206.756 83.7655 206.58C84.2642 206.404 84.6675 206.147 84.9755 205.81C85.2909 205.473 85.4485 205.058 85.4485 204.567C85.4485 204.347 85.4119 204.145 85.3385 203.962C85.2652 203.771 85.1552 203.603 85.0085 203.456C84.8692 203.309 84.6859 203.177 84.4585 203.06C84.2385 202.935 83.9819 202.829 83.6885 202.741L79.5965 201.531C79.2445 201.428 78.8632 201.293 78.4525 201.124C78.0492 200.948 77.6642 200.71 77.2975 200.409C76.9382 200.101 76.6412 199.712 76.4065 199.243C76.1792 198.766 76.0655 198.18 76.0655 197.483C76.0655 196.464 76.3222 195.609 76.8355 194.92C77.3562 194.223 78.0529 193.703 78.9255 193.358C79.8055 193.013 80.7809 192.845 81.8515 192.852C82.9369 192.859 83.9049 193.046 84.7555 193.413C85.6062 193.772 86.3175 194.297 86.8895 194.986C87.4615 195.675 87.8649 196.508 88.0995 197.483L85.2505 197.978C85.1332 197.421 84.9059 196.948 84.5685 196.559C84.2385 196.163 83.8315 195.862 83.3475 195.657C82.8709 195.452 82.3612 195.342 81.8185 195.327C81.2905 195.32 80.7992 195.4 80.3445 195.569C79.8972 195.73 79.5342 195.965 79.2555 196.273C78.9842 196.581 78.8485 196.94 78.8485 197.351C78.8485 197.74 78.9659 198.059 79.2005 198.308C79.4352 198.55 79.7249 198.744 80.0695 198.891C80.4215 199.03 80.7772 199.148 81.1365 199.243L83.9745 200.035C84.3632 200.138 84.7995 200.277 85.2835 200.453C85.7675 200.629 86.2332 200.875 86.6805 201.19C87.1279 201.505 87.4945 201.92 87.7805 202.433C88.0739 202.946 88.2205 203.599 88.2205 204.391C88.2205 205.212 88.0482 205.935 87.7035 206.558C87.3662 207.174 86.9079 207.687 86.3285 208.098C85.7492 208.509 85.0855 208.817 84.3375 209.022C83.5969 209.227 82.8195 209.33 82.0055 209.33ZM94.4075 209V195.646H89.2815V193.16H102.185V195.646H97.0585V209H94.4075ZM102.414 209L107.408 193.16H111.291L116.285 209H113.557L109.025 194.788H109.619L105.142 209H102.414ZM105.197 205.568V203.093H113.513V205.568H105.197ZM118.273 209V193.16H120.957L128.305 204.325V193.16H130.989V209H128.305L120.957 197.835V209H118.273ZM134.064 209V193.16H139.113C139.245 193.16 139.506 193.164 139.894 193.171C140.29 193.178 140.672 193.204 141.038 193.248C142.292 193.409 143.352 193.857 144.217 194.59C145.09 195.316 145.75 196.244 146.197 197.373C146.645 198.502 146.868 199.738 146.868 201.08C146.868 202.422 146.645 203.658 146.197 204.787C145.75 205.916 145.09 206.848 144.217 207.581C143.352 208.307 142.292 208.751 141.038 208.912C140.679 208.956 140.301 208.982 139.905 208.989C139.509 208.996 139.245 209 139.113 209H134.064ZM136.759 206.503H139.113C139.333 206.503 139.612 206.496 139.949 206.481C140.294 206.466 140.598 206.433 140.862 206.382C141.61 206.243 142.219 205.909 142.688 205.381C143.158 204.853 143.502 204.211 143.722 203.456C143.95 202.701 144.063 201.909 144.063 201.08C144.063 200.222 143.95 199.415 143.722 198.66C143.495 197.905 143.143 197.27 142.666 196.757C142.197 196.244 141.596 195.917 140.862 195.778C140.598 195.719 140.294 195.686 139.949 195.679C139.612 195.664 139.333 195.657 139.113 195.657H136.759V206.503ZM147.939 209L152.933 193.16H156.816L161.81 209H159.082L154.55 194.788H155.144L150.667 209H147.939ZM150.722 205.568V203.093H159.038V205.568H150.722ZM163.799 209V193.16H170.344C170.498 193.16 170.696 193.167 170.938 193.182C171.18 193.189 171.403 193.211 171.609 193.248C172.525 193.387 173.281 193.692 173.875 194.161C174.476 194.63 174.92 195.224 175.206 195.943C175.499 196.654 175.646 197.446 175.646 198.319C175.646 199.61 175.319 200.721 174.667 201.652C174.014 202.576 173.013 203.148 171.664 203.368L170.531 203.467H166.45V209H163.799ZM172.896 209L169.772 202.554L172.467 201.96L175.899 209H172.896ZM166.45 200.992H170.234C170.38 200.992 170.545 200.985 170.729 200.97C170.912 200.955 171.081 200.926 171.235 200.882C171.675 200.772 172.019 200.578 172.269 200.299C172.525 200.02 172.705 199.705 172.808 199.353C172.918 199.001 172.973 198.656 172.973 198.319C172.973 197.982 172.918 197.637 172.808 197.285C172.705 196.926 172.525 196.607 172.269 196.328C172.019 196.049 171.675 195.855 171.235 195.745C171.081 195.701 170.912 195.675 170.729 195.668C170.545 195.653 170.38 195.646 170.234 195.646H166.45V200.992ZM178.322 209V193.16H183.371C183.503 193.16 183.764 193.164 184.152 193.171C184.548 193.178 184.93 193.204 185.296 193.248C186.55 193.409 187.61 193.857 188.475 194.59C189.348 195.316 190.008 196.244 190.455 197.373C190.903 198.502 191.126 199.738 191.126 201.08C191.126 202.422 190.903 203.658 190.455 204.787C190.008 205.916 189.348 206.848 188.475 207.581C187.61 208.307 186.55 208.751 185.296 208.912C184.937 208.956 184.559 208.982 184.163 208.989C183.767 208.996 183.503 209 183.371 209H178.322ZM181.017 206.503H183.371C183.591 206.503 183.87 206.496 184.207 206.481C184.552 206.466 184.856 206.433 185.12 206.382C185.868 206.243 186.477 205.909 186.946 205.381C187.416 204.853 187.76 204.211 187.98 203.456C188.208 202.701 188.321 201.909 188.321 201.08C188.321 200.222 188.208 199.415 187.98 198.66C187.753 197.905 187.401 197.27 186.924 196.757C186.455 196.244 185.854 195.917 185.12 195.778C184.856 195.719 184.552 195.686 184.207 195.679C183.87 195.664 183.591 195.657 183.371 195.657H181.017V206.503ZM199.59 209.33C198.431 209.33 197.386 209.128 196.455 208.725C195.531 208.322 194.768 207.746 194.167 206.998C193.573 206.243 193.195 205.348 193.034 204.314L195.784 203.896C196.018 204.835 196.499 205.561 197.225 206.074C197.958 206.587 198.801 206.844 199.755 206.844C200.319 206.844 200.851 206.756 201.35 206.58C201.848 206.404 202.252 206.147 202.56 205.81C202.875 205.473 203.033 205.058 203.033 204.567C203.033 204.347 202.996 204.145 202.923 203.962C202.849 203.771 202.739 203.603 202.593 203.456C202.453 203.309 202.27 203.177 202.043 203.06C201.823 202.935 201.566 202.829 201.273 202.741L197.181 201.531C196.829 201.428 196.447 201.293 196.037 201.124C195.633 200.948 195.248 200.71 194.882 200.409C194.522 200.101 194.225 199.712 193.991 199.243C193.763 198.766 193.65 198.18 193.65 197.483C193.65 196.464 193.906 195.609 194.42 194.92C194.94 194.223 195.637 193.703 196.51 193.358C197.39 193.013 198.365 192.845 199.436 192.852C200.521 192.859 201.489 193.046 202.34 193.413C203.19 193.772 203.902 194.297 204.474 194.986C205.046 195.675 205.449 196.508 205.684 197.483L202.835 197.978C202.717 197.421 202.49 196.948 202.153 196.559C201.823 196.163 201.416 195.862 200.932 195.657C200.455 195.452 199.945 195.342 199.403 195.327C198.875 195.32 198.383 195.4 197.929 195.569C197.481 195.73 197.118 195.965 196.84 196.273C196.568 196.581 196.433 196.94 196.433 197.351C196.433 197.74 196.55 198.059 196.785 198.308C197.019 198.55 197.309 198.744 197.654 198.891C198.006 199.03 198.361 199.148 198.721 199.243L201.559 200.035C201.947 200.138 202.384 200.277 202.868 200.453C203.352 200.629 203.817 200.875 204.265 201.19C204.712 201.505 205.079 201.92 205.365 202.433C205.658 202.946 205.805 203.599 205.805 204.391C205.805 205.212 205.632 205.935 205.288 206.558C204.95 207.174 204.492 207.687 203.913 208.098C203.333 208.509 202.67 208.817 201.922 209.022C201.181 209.227 200.404 209.33 199.59 209.33ZM211.49 209L216.484 193.16H220.367L225.361 209H222.633L218.101 194.788H218.695L214.218 209H211.49ZM214.273 205.568V203.093H222.589V205.568H214.273ZM227.35 209V193.16H233.895C234.049 193.16 234.247 193.167 234.489 193.182C234.731 193.189 234.954 193.211 235.16 193.248C236.076 193.387 236.832 193.692 237.426 194.161C238.027 194.63 238.471 195.224 238.757 195.943C239.05 196.654 239.197 197.446 239.197 198.319C239.197 199.184 239.05 199.976 238.757 200.695C238.463 201.406 238.016 201.997 237.415 202.466C236.821 202.935 236.069 203.24 235.16 203.379C234.954 203.408 234.727 203.43 234.478 203.445C234.236 203.46 234.041 203.467 233.895 203.467H230.001V209H227.35ZM230.001 200.992H233.785C233.931 200.992 234.096 200.985 234.28 200.97C234.463 200.955 234.632 200.926 234.786 200.882C235.226 200.772 235.57 200.578 235.82 200.299C236.076 200.02 236.256 199.705 236.359 199.353C236.469 199.001 236.524 198.656 236.524 198.319C236.524 197.982 236.469 197.637 236.359 197.285C236.256 196.926 236.076 196.607 235.82 196.328C235.57 196.049 235.226 195.855 234.786 195.745C234.632 195.701 234.463 195.675 234.28 195.668C234.096 195.653 233.931 195.646 233.785 195.646H230.001V200.992ZM241.4 209V193.16H247.945C248.099 193.16 248.297 193.167 248.539 193.182C248.781 193.189 249.005 193.211 249.21 193.248C250.127 193.387 250.882 193.692 251.476 194.161C252.078 194.63 252.521 195.224 252.807 195.943C253.101 196.654 253.247 197.446 253.247 198.319C253.247 199.184 253.101 199.976 252.807 200.695C252.514 201.406 252.067 201.997 251.465 202.466C250.871 202.935 250.12 203.24 249.21 203.379C249.005 203.408 248.778 203.43 248.528 203.445C248.286 203.46 248.092 203.467 247.945 203.467H244.051V209H241.4ZM244.051 200.992H247.835C247.982 200.992 248.147 200.985 248.33 200.97C248.514 200.955 248.682 200.926 248.836 200.882C249.276 200.772 249.621 200.578 249.87 200.299C250.127 200.02 250.307 199.705 250.409 199.353C250.519 199.001 250.574 198.656 250.574 198.319C250.574 197.982 250.519 197.637 250.409 197.285C250.307 196.926 250.127 196.607 249.87 196.328C249.621 196.049 249.276 195.855 248.836 195.745C248.682 195.701 248.514 195.675 248.33 195.668C248.147 195.653 247.982 195.646 247.835 195.646H244.051V200.992ZM255.451 209V193.16H265.681V195.646H258.102V199.551H264.361V202.037H258.102V206.514H265.681V209H255.451ZM267.22 209L272.214 193.16H276.097L281.091 209H278.363L273.831 194.788H274.425L269.948 209H267.22ZM270.003 205.568V203.093H278.319V205.568H270.003ZM283.08 209V193.16H289.625C289.779 193.16 289.977 193.167 290.219 193.182C290.461 193.189 290.685 193.211 290.89 193.248C291.807 193.387 292.562 193.692 293.156 194.161C293.757 194.63 294.201 195.224 294.487 195.943C294.78 196.654 294.927 197.446 294.927 198.319C294.927 199.61 294.601 200.721 293.948 201.652C293.295 202.576 292.294 203.148 290.945 203.368L289.812 203.467H285.731V209H283.08ZM292.177 209L289.053 202.554L291.748 201.96L295.18 209H292.177ZM285.731 200.992H289.515C289.662 200.992 289.827 200.985 290.01 200.97C290.193 200.955 290.362 200.926 290.516 200.882C290.956 200.772 291.301 200.578 291.55 200.299C291.807 200.02 291.986 199.705 292.089 199.353C292.199 199.001 292.254 198.656 292.254 198.319C292.254 197.982 292.199 197.637 292.089 197.285C291.986 196.926 291.807 196.607 291.55 196.328C291.301 196.049 290.956 195.855 290.516 195.745C290.362 195.701 290.193 195.675 290.01 195.668C289.827 195.653 289.662 195.646 289.515 195.646H285.731V200.992ZM297.603 209V193.16H307.833V195.646H300.254V199.551H306.513V202.037H300.254V206.514H307.833V209H297.603ZM310.473 209V193.16H315.522C315.654 193.16 315.914 193.164 316.303 193.171C316.699 193.178 317.08 193.204 317.447 193.248C318.701 193.409 319.76 193.857 320.626 194.59C321.498 195.316 322.158 196.244 322.606 197.373C323.053 198.502 323.277 199.738 323.277 201.08C323.277 202.422 323.053 203.658 322.606 204.787C322.158 205.916 321.498 206.848 320.626 207.581C319.76 208.307 318.701 208.751 317.447 208.912C317.087 208.956 316.71 208.982 316.314 208.989C315.918 208.996 315.654 209 315.522 209H310.473ZM313.168 206.503H315.522C315.742 206.503 316.02 206.496 316.358 206.481C316.702 206.466 317.007 206.433 317.271 206.382C318.019 206.243 318.627 205.909 319.097 205.381C319.566 204.853 319.911 204.211 320.131 203.456C320.358 202.701 320.472 201.909 320.472 201.08C320.472 200.222 320.358 199.415 320.131 198.66C319.903 197.905 319.551 197.27 319.075 196.757C318.605 196.244 318.004 195.917 317.271 195.778C317.007 195.719 316.702 195.686 316.358 195.679C316.02 195.664 315.742 195.657 315.522 195.657H313.168V206.503ZM330.501 209V193.16H333.152V209H330.501ZM336.447 209V193.16H339.131L346.479 204.325V193.16H349.163V209H346.479L339.131 197.835V209H336.447ZM360.493 209V202.51L355.103 193.16H358.194L361.835 199.474L365.465 193.16H368.556L363.177 202.51V209H360.493ZM375.91 209.33C374.326 209.33 372.969 208.985 371.84 208.296C370.711 207.599 369.842 206.631 369.233 205.392C368.632 204.153 368.331 202.715 368.331 201.08C368.331 199.445 368.632 198.007 369.233 196.768C369.842 195.529 370.711 194.564 371.84 193.875C372.969 193.178 374.326 192.83 375.91 192.83C377.494 192.83 378.851 193.178 379.98 193.875C381.117 194.564 381.986 195.529 382.587 196.768C383.196 198.007 383.5 199.445 383.5 201.08C383.5 202.715 383.196 204.153 382.587 205.392C381.986 206.631 381.117 207.599 379.98 208.296C378.851 208.985 377.494 209.33 375.91 209.33ZM375.91 206.833C376.973 206.84 377.857 206.606 378.561 206.129C379.272 205.652 379.804 204.981 380.156 204.116C380.515 203.251 380.695 202.239 380.695 201.08C380.695 199.921 380.515 198.917 380.156 198.066C379.804 197.208 379.272 196.541 378.561 196.064C377.857 195.587 376.973 195.342 375.91 195.327C374.847 195.32 373.963 195.554 373.259 196.031C372.555 196.508 372.023 197.179 371.664 198.044C371.312 198.909 371.136 199.921 371.136 201.08C371.136 202.239 371.312 203.247 371.664 204.105C372.016 204.956 372.544 205.619 373.248 206.096C373.959 206.573 374.847 206.818 375.91 206.833ZM392.069 209.33C390.808 209.33 389.697 209.073 388.736 208.56C387.783 208.047 387.035 207.324 386.492 206.393C385.957 205.462 385.689 204.369 385.689 203.115V193.182L388.373 193.16V203.049C388.373 203.643 388.472 204.175 388.67 204.644C388.876 205.113 389.151 205.513 389.495 205.843C389.84 206.166 390.236 206.411 390.683 206.58C391.131 206.749 391.593 206.833 392.069 206.833C392.561 206.833 393.026 206.749 393.466 206.58C393.914 206.404 394.31 206.155 394.654 205.832C394.999 205.502 395.27 205.102 395.468 204.633C395.666 204.164 395.765 203.636 395.765 203.049V193.16H398.449V203.115C398.449 204.369 398.178 205.462 397.635 206.393C397.1 207.324 396.352 208.047 395.391 208.56C394.438 209.073 393.331 209.33 392.069 209.33ZM401.523 209V193.16H408.068C408.222 193.16 408.42 193.167 408.662 193.182C408.904 193.189 409.128 193.211 409.333 193.248C410.25 193.387 411.005 193.692 411.599 194.161C412.201 194.63 412.644 195.224 412.93 195.943C413.224 196.654 413.37 197.446 413.37 198.319C413.37 199.61 413.044 200.721 412.391 201.652C411.739 202.576 410.738 203.148 409.388 203.368L408.255 203.467H404.174V209H401.523ZM410.62 209L407.496 202.554L410.191 201.96L413.623 209H410.62ZM404.174 200.992H407.958C408.105 200.992 408.27 200.985 408.453 200.97C408.637 200.955 408.805 200.926 408.959 200.882C409.399 200.772 409.744 200.578 409.993 200.299C410.25 200.02 410.43 199.705 410.532 199.353C410.642 199.001 410.697 198.656 410.697 198.319C410.697 197.982 410.642 197.637 410.532 197.285C410.43 196.926 410.25 196.607 409.993 196.328C409.744 196.049 409.399 195.855 408.959 195.745C408.805 195.701 408.637 195.675 408.453 195.668C408.27 195.653 408.105 195.646 407.958 195.646H404.174V200.992ZM427.15 209.33C425.566 209.33 424.209 208.985 423.08 208.296C421.951 207.599 421.082 206.631 420.473 205.392C419.872 204.153 419.571 202.715 419.571 201.08C419.571 199.445 419.872 198.007 420.473 196.768C421.082 195.529 421.951 194.564 423.08 193.875C424.209 193.178 425.566 192.83 427.15 192.83C428.734 192.83 430.091 193.178 431.22 193.875C432.357 194.564 433.226 195.529 433.827 196.768C434.436 198.007 434.74 199.445 434.74 201.08C434.74 202.715 434.436 204.153 433.827 205.392C433.226 206.631 432.357 207.599 431.22 208.296C430.091 208.985 428.734 209.33 427.15 209.33ZM427.15 206.833C428.213 206.84 429.097 206.606 429.801 206.129C430.512 205.652 431.044 204.981 431.396 204.116C431.755 203.251 431.935 202.239 431.935 201.08C431.935 199.921 431.755 198.917 431.396 198.066C431.044 197.208 430.512 196.541 429.801 196.064C429.097 195.587 428.213 195.342 427.15 195.327C426.087 195.32 425.203 195.554 424.499 196.031C423.795 196.508 423.263 197.179 422.904 198.044C422.552 198.909 422.376 199.921 422.376 201.08C422.376 202.239 422.552 203.247 422.904 204.105C423.256 204.956 423.784 205.619 424.488 206.096C425.199 206.573 426.087 206.818 427.15 206.833ZM436.93 209V193.16H443.475C443.629 193.16 443.827 193.167 444.069 193.182C444.311 193.189 444.534 193.211 444.74 193.248C445.656 193.387 446.412 193.692 447.006 194.161C447.607 194.63 448.051 195.224 448.337 195.943C448.63 196.654 448.777 197.446 448.777 198.319C448.777 199.184 448.63 199.976 448.337 200.695C448.043 201.406 447.596 201.997 446.995 202.466C446.401 202.935 445.649 203.24 444.74 203.379C444.534 203.408 444.307 203.43 444.058 203.445C443.816 203.46 443.621 203.467 443.475 203.467H439.581V209H436.93ZM439.581 200.992H443.365C443.511 200.992 443.676 200.985 443.86 200.97C444.043 200.955 444.212 200.926 444.366 200.882C444.806 200.772 445.15 200.578 445.4 200.299C445.656 200.02 445.836 199.705 445.939 199.353C446.049 199.001 446.104 198.656 446.104 198.319C446.104 197.982 446.049 197.637 445.939 197.285C445.836 196.926 445.656 196.607 445.4 196.328C445.15 196.049 444.806 195.855 444.366 195.745C444.212 195.701 444.043 195.675 443.86 195.668C443.676 195.653 443.511 195.646 443.365 195.646H439.581V200.992ZM451.2 209V193.16H453.851V209H451.2ZM457.146 209V193.16H459.83L467.178 204.325V193.16H469.862V209H467.178L459.83 197.835V209H457.146ZM473.157 209V193.16H475.808V209H473.157ZM485.802 209.33C484.218 209.33 482.862 208.985 481.732 208.296C480.603 207.599 479.734 206.631 479.125 205.392C478.524 204.153 478.223 202.715 478.223 201.08C478.223 199.445 478.524 198.007 479.125 196.768C479.734 195.529 480.603 194.564 481.732 193.875C482.862 193.178 484.218 192.83 485.802 192.83C487.386 192.83 488.743 193.178 489.872 193.875C491.009 194.564 491.878 195.529 492.479 196.768C493.088 198.007 493.392 199.445 493.392 201.08C493.392 202.715 493.088 204.153 492.479 205.392C491.878 206.631 491.009 207.599 489.872 208.296C488.743 208.985 487.386 209.33 485.802 209.33ZM485.802 206.833C486.866 206.84 487.749 206.606 488.453 206.129C489.165 205.652 489.696 204.981 490.048 204.116C490.408 203.251 490.587 202.239 490.587 201.08C490.587 199.921 490.408 198.917 490.048 198.066C489.696 197.208 489.165 196.541 488.453 196.064C487.749 195.587 486.866 195.342 485.802 195.327C484.739 195.32 483.855 195.554 483.151 196.031C482.447 196.508 481.916 197.179 481.556 198.044C481.204 198.909 481.028 199.921 481.028 201.08C481.028 202.239 481.204 203.247 481.556 204.105C481.908 204.956 482.436 205.619 483.14 206.096C483.852 206.573 484.739 206.818 485.802 206.833ZM495.582 209V193.16H498.266L505.614 204.325V193.16H508.298V209H505.614L498.266 197.835V209H495.582ZM514.244 204.699C514.244 204.193 514.292 203.705 514.387 203.236C514.49 202.759 514.655 202.319 514.882 201.916C515.08 201.527 515.3 201.219 515.542 200.992C515.784 200.757 516.055 200.526 516.356 200.299C516.657 200.064 516.99 199.753 517.357 199.364C517.658 199.034 517.856 198.708 517.951 198.385C518.046 198.055 518.094 197.703 518.094 197.329C518.094 197.087 518.068 196.86 518.017 196.647C517.966 196.434 517.874 196.251 517.742 196.097C517.537 195.826 517.273 195.635 516.95 195.525C516.627 195.408 516.283 195.349 515.916 195.349C515.615 195.349 515.326 195.389 515.047 195.47C514.776 195.543 514.545 195.661 514.354 195.822C514.134 195.998 513.973 196.214 513.87 196.471C513.767 196.728 513.72 197.01 513.727 197.318H510.933C511.006 196.585 511.204 195.906 511.527 195.283C511.857 194.652 512.29 194.15 512.825 193.776C513.243 193.468 513.712 193.237 514.233 193.083C514.761 192.929 515.289 192.852 515.817 192.852C516.624 192.852 517.383 192.977 518.094 193.226C518.813 193.475 519.41 193.886 519.887 194.458C520.217 194.832 520.466 195.265 520.635 195.756C520.811 196.247 520.899 196.746 520.899 197.252C520.899 198.007 520.734 198.697 520.404 199.32C520.081 199.943 519.671 200.519 519.172 201.047C518.937 201.296 518.714 201.516 518.501 201.707C518.288 201.898 518.09 202.085 517.907 202.268C517.731 202.444 517.584 202.631 517.467 202.829C517.262 203.174 517.141 203.467 517.104 203.709C517.067 203.944 517.049 204.274 517.049 204.699H514.244ZM514.266 209V206.085H517.049V209H514.266ZM86.2295 238V222.16H91.2785C91.4105 222.16 91.6708 222.164 92.0595 222.171C92.4555 222.178 92.8368 222.204 93.2035 222.248C94.4575 222.409 95.5171 222.857 96.3825 223.59C97.2551 224.316 97.9151 225.244 98.3625 226.373C98.8098 227.502 99.0335 228.738 99.0335 230.08C99.0335 231.422 98.8098 232.658 98.3625 233.787C97.9151 234.916 97.2551 235.848 96.3825 236.581C95.5171 237.307 94.4575 237.751 93.2035 237.912C92.8441 237.956 92.4665 237.982 92.0705 237.989C91.6745 237.996 91.4105 238 91.2785 238H86.2295ZM88.9245 235.503H91.2785C91.4985 235.503 91.7771 235.496 92.1145 235.481C92.4591 235.466 92.7635 235.433 93.0275 235.382C93.7755 235.243 94.3841 234.909 94.8535 234.381C95.3228 233.853 95.6675 233.211 95.8875 232.456C96.1148 231.701 96.2285 230.909 96.2285 230.08C96.2285 229.222 96.1148 228.415 95.8875 227.66C95.6601 226.905 95.3081 226.27 94.8315 225.757C94.3621 225.244 93.7608 224.917 93.0275 224.778C92.7635 224.719 92.4591 224.686 92.1145 224.679C91.7771 224.664 91.4985 224.657 91.2785 224.657H88.9245V235.503ZM108.333 238.33C106.749 238.33 105.392 237.985 104.263 237.296C103.133 236.599 102.264 235.631 101.656 234.392C101.054 233.153 100.754 231.715 100.754 230.08C100.754 228.445 101.054 227.007 101.656 225.768C102.264 224.529 103.133 223.564 104.263 222.875C105.392 222.178 106.749 221.83 108.333 221.83C109.917 221.83 111.273 222.178 112.403 222.875C113.539 223.564 114.408 224.529 115.01 225.768C115.618 227.007 115.923 228.445 115.923 230.08C115.923 231.715 115.618 233.153 115.01 234.392C114.408 235.631 113.539 236.599 112.403 237.296C111.273 237.985 109.917 238.33 108.333 238.33ZM108.333 235.833C109.396 235.84 110.28 235.606 110.984 235.129C111.695 234.652 112.227 233.981 112.579 233.116C112.938 232.251 113.118 231.239 113.118 230.08C113.118 228.921 112.938 227.917 112.579 227.066C112.227 226.208 111.695 225.541 110.984 225.064C110.28 224.587 109.396 224.342 108.333 224.327C107.269 224.32 106.386 224.554 105.682 225.031C104.978 225.508 104.446 226.179 104.087 227.044C103.735 227.909 103.559 228.921 103.559 230.08C103.559 231.239 103.735 232.247 104.087 233.105C104.439 233.956 104.967 234.619 105.671 235.096C106.382 235.573 107.269 235.818 108.333 235.833ZM126.323 238V224.646H121.197V222.16H134.1V224.646H128.974V238H126.323ZM135.858 238V222.16H138.509V228.826H146.011V222.16H148.651V238H146.011V231.312H138.509V238H135.858ZM151.735 238V222.16H161.965V224.646H154.386V228.551H160.645V231.037H154.386V235.514H161.965V238H151.735ZM168.454 238V231.51L163.064 222.16H166.155L169.796 228.474L173.426 222.16H176.517L171.138 231.51V238H168.454ZM181.577 238V222.16H183.964L189.442 233.38L194.92 222.16H197.307V238H194.832V227.847L189.97 238H188.914L184.063 227.847V238H181.577ZM199.297 238L204.291 222.16H208.174L213.168 238H210.44L205.908 223.788H206.502L202.025 238H199.297ZM202.08 234.568V232.093H210.396V234.568H202.08ZM217.653 238V224.646H212.527V222.16H225.43V224.646H220.304V238H217.653ZM233.887 238.33C232.303 238.33 230.947 237.985 229.817 237.296C228.688 236.599 227.819 235.631 227.21 234.392C226.609 233.153 226.308 231.715 226.308 230.08C226.308 228.445 226.609 227.007 227.21 225.768C227.819 224.529 228.688 223.564 229.817 222.875C230.947 222.178 232.303 221.83 233.887 221.83C235.713 221.83 237.235 222.288 238.452 223.205C239.67 224.114 240.524 225.343 241.015 226.89L238.342 227.627C238.034 226.593 237.51 225.786 236.769 225.207C236.029 224.62 235.068 224.327 233.887 224.327C232.824 224.327 231.937 224.565 231.225 225.042C230.521 225.519 229.99 226.19 229.63 227.055C229.278 227.913 229.099 228.921 229.091 230.08C229.091 231.239 229.267 232.251 229.619 233.116C229.979 233.974 230.514 234.641 231.225 235.118C231.937 235.595 232.824 235.833 233.887 235.833C235.068 235.833 236.029 235.54 236.769 234.953C237.51 234.366 238.034 233.56 238.342 232.533L241.015 233.27C240.524 234.817 239.67 236.049 238.452 236.966C237.235 237.875 235.713 238.33 233.887 238.33ZM243.431 238V222.16H246.082V228.826H253.584V222.16H256.224V238H253.584V231.312H246.082V238H243.431ZM267.056 238L262.425 222.16H265.208L268.365 233.6L271.511 222.182L274.294 222.16L277.451 233.6L280.597 222.16H283.38L278.76 238H276.142L272.897 226.736L269.674 238H267.056ZM285.395 238V222.16H288.046V238H285.395ZM295.147 238V224.646H290.021V222.16H302.924V224.646H297.798V238H295.147ZM304.683 238V222.16H307.334V228.826H314.836V222.16H317.476V238H314.836V231.312H307.334V238H304.683ZM328.814 238V231.51L323.424 222.16H326.515L330.156 228.474L333.786 222.16H336.877L331.498 231.51V238H328.814ZM344.231 238.33C342.647 238.33 341.291 237.985 340.161 237.296C339.032 236.599 338.163 235.631 337.554 234.392C336.953 233.153 336.652 231.715 336.652 230.08C336.652 228.445 336.953 227.007 337.554 225.768C338.163 224.529 339.032 223.564 340.161 222.875C341.291 222.178 342.647 221.83 344.231 221.83C345.815 221.83 347.172 222.178 348.301 222.875C349.438 223.564 350.307 224.529 350.908 225.768C351.517 227.007 351.821 228.445 351.821 230.08C351.821 231.715 351.517 233.153 350.908 234.392C350.307 235.631 349.438 236.599 348.301 237.296C347.172 237.985 345.815 238.33 344.231 238.33ZM344.231 235.833C345.295 235.84 346.178 235.606 346.882 235.129C347.594 234.652 348.125 233.981 348.477 233.116C348.837 232.251 349.016 231.239 349.016 230.08C349.016 228.921 348.837 227.917 348.477 227.066C348.125 226.208 347.594 225.541 346.882 225.064C346.178 224.587 345.295 224.342 344.231 224.327C343.168 224.32 342.284 224.554 341.58 225.031C340.876 225.508 340.345 226.179 339.985 227.044C339.633 227.909 339.457 228.921 339.457 230.08C339.457 231.239 339.633 232.247 339.985 233.105C340.337 233.956 340.865 234.619 341.569 235.096C342.281 235.573 343.168 235.818 344.231 235.833ZM360.391 238.33C359.129 238.33 358.018 238.073 357.058 237.56C356.104 237.047 355.356 236.324 354.814 235.393C354.278 234.462 354.011 233.369 354.011 232.115V222.182L356.695 222.16V232.049C356.695 232.643 356.794 233.175 356.992 233.644C357.197 234.113 357.472 234.513 357.817 234.843C358.161 235.166 358.557 235.411 359.005 235.58C359.452 235.749 359.914 235.833 360.391 235.833C360.882 235.833 361.348 235.749 361.788 235.58C362.235 235.404 362.631 235.155 362.976 234.832C363.32 234.502 363.592 234.102 363.79 233.633C363.988 233.164 364.087 232.636 364.087 232.049V222.16H366.771V232.115C366.771 233.369 366.499 234.462 365.957 235.393C365.421 236.324 364.673 237.047 363.713 237.56C362.759 238.073 361.652 238.33 360.391 238.33ZM369.845 238V222.16H376.39C376.544 222.16 376.742 222.167 376.984 222.182C377.226 222.189 377.449 222.211 377.655 222.248C378.571 222.387 379.327 222.692 379.921 223.161C380.522 223.63 380.966 224.224 381.252 224.943C381.545 225.654 381.692 226.446 381.692 227.319C381.692 228.61 381.365 229.721 380.713 230.652C380.06 231.576 379.059 232.148 377.71 232.368L376.577 232.467H372.496V238H369.845ZM378.942 238L375.818 231.554L378.513 230.96L381.945 238H378.942ZM372.496 229.992H376.28C376.426 229.992 376.591 229.985 376.775 229.97C376.958 229.955 377.127 229.926 377.281 229.882C377.721 229.772 378.065 229.578 378.315 229.299C378.571 229.02 378.751 228.705 378.854 228.353C378.964 228.001 379.019 227.656 379.019 227.319C379.019 226.982 378.964 226.637 378.854 226.285C378.751 225.926 378.571 225.607 378.315 225.328C378.065 225.049 377.721 224.855 377.281 224.745C377.127 224.701 376.958 224.675 376.775 224.668C376.591 224.653 376.426 224.646 376.28 224.646H372.496V229.992ZM395.471 238.33C393.887 238.33 392.531 237.985 391.401 237.296C390.272 236.599 389.403 235.631 388.794 234.392C388.193 233.153 387.892 231.715 387.892 230.08C387.892 228.445 388.193 227.007 388.794 225.768C389.403 224.529 390.272 223.564 391.401 222.875C392.531 222.178 393.887 221.83 395.471 221.83C397.055 221.83 398.412 222.178 399.541 222.875C400.678 223.564 401.547 224.529 402.148 225.768C402.757 227.007 403.061 228.445 403.061 230.08C403.061 231.715 402.757 233.153 402.148 234.392C401.547 235.631 400.678 236.599 399.541 237.296C398.412 237.985 397.055 238.33 395.471 238.33ZM395.471 235.833C396.535 235.84 397.418 235.606 398.122 235.129C398.834 234.652 399.365 233.981 399.717 233.116C400.077 232.251 400.256 231.239 400.256 230.08C400.256 228.921 400.077 227.917 399.717 227.066C399.365 226.208 398.834 225.541 398.122 225.064C397.418 224.587 396.535 224.342 395.471 224.327C394.408 224.32 393.524 224.554 392.82 225.031C392.116 225.508 391.585 226.179 391.225 227.044C390.873 227.909 390.697 228.921 390.697 230.08C390.697 231.239 390.873 232.247 391.225 233.105C391.577 233.956 392.105 234.619 392.809 235.096C393.521 235.573 394.408 235.818 395.471 235.833ZM407.929 238L403.298 222.16H406.081L409.238 233.6L412.384 222.182L415.167 222.16L418.324 233.6L421.47 222.16H424.253L419.633 238H417.015L413.77 226.736L410.547 238H407.929ZM426.048 238V222.16H428.732L436.08 233.325V222.16H438.764V238H436.08L428.732 226.835V238H426.048ZM452.942 238.33C451.358 238.33 450.001 237.985 448.872 237.296C447.743 236.599 446.874 235.631 446.265 234.392C445.664 233.153 445.363 231.715 445.363 230.08C445.363 228.445 445.664 227.007 446.265 225.768C446.874 224.529 447.743 223.564 448.872 222.875C450.001 222.178 451.358 221.83 452.942 221.83C454.526 221.83 455.883 222.178 457.012 222.875C458.149 223.564 459.018 224.529 459.619 225.768C460.228 227.007 460.532 228.445 460.532 230.08C460.532 231.715 460.228 233.153 459.619 234.392C459.018 235.631 458.149 236.599 457.012 237.296C455.883 237.985 454.526 238.33 452.942 238.33ZM452.942 235.833C454.005 235.84 454.889 235.606 455.593 235.129C456.304 234.652 456.836 233.981 457.188 233.116C457.547 232.251 457.727 231.239 457.727 230.08C457.727 228.921 457.547 227.917 457.188 227.066C456.836 226.208 456.304 225.541 455.593 225.064C454.889 224.587 454.005 224.342 452.942 224.327C451.879 224.32 450.995 224.554 450.291 225.031C449.587 225.508 449.055 226.179 448.696 227.044C448.344 227.909 448.168 228.921 448.168 230.08C448.168 231.239 448.344 232.247 448.696 233.105C449.048 233.956 449.576 234.619 450.28 235.096C450.991 235.573 451.879 235.818 452.942 235.833ZM462.722 238V222.16H465.406L472.754 233.325V222.16H475.438V238H472.754L465.406 226.835V238H462.722ZM478.513 238V222.16H488.743V224.646H481.164V228.551H487.423V231.037H481.164V235.514H488.743V238H478.513ZM497.094 238.33C495.936 238.33 494.891 238.128 493.959 237.725C493.035 237.322 492.273 236.746 491.671 235.998C491.077 235.243 490.7 234.348 490.538 233.314L493.288 232.896C493.523 233.835 494.003 234.561 494.729 235.074C495.463 235.587 496.306 235.844 497.259 235.844C497.824 235.844 498.356 235.756 498.854 235.58C499.353 235.404 499.756 235.147 500.064 234.81C500.38 234.473 500.537 234.058 500.537 233.567C500.537 233.347 500.501 233.145 500.427 232.962C500.354 232.771 500.244 232.603 500.097 232.456C499.958 232.309 499.775 232.177 499.547 232.06C499.327 231.935 499.071 231.829 498.777 231.741L494.685 230.531C494.333 230.428 493.952 230.293 493.541 230.124C493.138 229.948 492.753 229.71 492.386 229.409C492.027 229.101 491.73 228.712 491.495 228.243C491.268 227.766 491.154 227.18 491.154 226.483C491.154 225.464 491.411 224.609 491.924 223.92C492.445 223.223 493.142 222.703 494.014 222.358C494.894 222.013 495.87 221.845 496.94 221.852C498.026 221.859 498.994 222.046 499.844 222.413C500.695 222.772 501.406 223.297 501.978 223.986C502.55 224.675 502.954 225.508 503.188 226.483L500.339 226.978C500.222 226.421 499.995 225.948 499.657 225.559C499.327 225.163 498.92 224.862 498.436 224.657C497.96 224.452 497.45 224.342 496.907 224.327C496.379 224.32 495.888 224.4 495.433 224.569C494.986 224.73 494.623 224.965 494.344 225.273C494.073 225.581 493.937 225.94 493.937 226.351C493.937 226.74 494.055 227.059 494.289 227.308C494.524 227.55 494.814 227.744 495.158 227.891C495.51 228.03 495.866 228.148 496.225 228.243L499.063 229.035C499.452 229.138 499.888 229.277 500.372 229.453C500.856 229.629 501.322 229.875 501.769 230.19C502.217 230.505 502.583 230.92 502.869 231.433C503.163 231.946 503.309 232.599 503.309 233.391C503.309 234.212 503.137 234.935 502.792 235.558C502.455 236.174 501.997 236.687 501.417 237.098C500.838 237.509 500.174 237.817 499.426 238.022C498.686 238.227 497.908 238.33 497.094 238.33ZM508.561 233.699C508.561 233.193 508.609 232.705 508.704 232.236C508.807 231.759 508.972 231.319 509.199 230.916C509.397 230.527 509.617 230.219 509.859 229.992C510.101 229.757 510.373 229.526 510.673 229.299C510.974 229.064 511.308 228.753 511.674 228.364C511.975 228.034 512.173 227.708 512.268 227.385C512.364 227.055 512.411 226.703 512.411 226.329C512.411 226.087 512.386 225.86 512.334 225.647C512.283 225.434 512.191 225.251 512.059 225.097C511.854 224.826 511.59 224.635 511.267 224.525C510.945 224.408 510.6 224.349 510.233 224.349C509.933 224.349 509.643 224.389 509.364 224.47C509.093 224.543 508.862 224.661 508.671 224.822C508.451 224.998 508.29 225.214 508.187 225.471C508.085 225.728 508.037 226.01 508.044 226.318H505.25C505.324 225.585 505.522 224.906 505.844 224.283C506.174 223.652 506.607 223.15 507.142 222.776C507.56 222.468 508.03 222.237 508.55 222.083C509.078 221.929 509.606 221.852 510.134 221.852C510.941 221.852 511.7 221.977 512.411 222.226C513.13 222.475 513.728 222.886 514.204 223.458C514.534 223.832 514.784 224.265 514.952 224.756C515.128 225.247 515.216 225.746 515.216 226.252C515.216 227.007 515.051 227.697 514.721 228.32C514.399 228.943 513.988 229.519 513.489 230.047C513.255 230.296 513.031 230.516 512.818 230.707C512.606 230.898 512.408 231.085 512.224 231.268C512.048 231.444 511.902 231.631 511.784 231.829C511.579 232.174 511.458 232.467 511.421 232.709C511.385 232.944 511.366 233.274 511.366 233.699H508.561ZM508.583 238V235.085H511.366V238H508.583Z" fill="white"></path> <rect x="20" y="20" width="248" height="40" rx="20" fill="white" fill-opacity="0.3"></rect> <path d="M32.8122 46L36.6682 34.48H38.6522L42.5082 46H41.0282L37.4202 35.312H37.8682L34.2922 46H32.8122ZM34.6682 43.304V41.968H40.6522V43.304H34.6682ZM43.9403 46V34.48H48.4923C48.6043 34.48 48.7376 34.4853 48.8923 34.496C49.047 34.5013 49.1963 34.5173 49.3403 34.544C49.9643 34.64 50.487 34.8533 50.9083 35.184C51.335 35.5147 51.655 35.9333 51.8683 36.44C52.0816 36.9413 52.1883 37.4987 52.1883 38.112C52.1883 38.72 52.079 39.2773 51.8603 39.784C51.647 40.2853 51.327 40.704 50.9003 41.04C50.479 41.3707 49.959 41.584 49.3403 41.68C49.1963 41.7013 49.047 41.7173 48.8923 41.728C48.7376 41.7387 48.6043 41.744 48.4923 41.744H45.3643V46H43.9403ZM45.3643 40.392H48.4443C48.5456 40.392 48.6603 40.3867 48.7883 40.376C48.9216 40.3653 49.047 40.3467 49.1643 40.32C49.5323 40.2347 49.831 40.08 50.0603 39.856C50.295 39.6267 50.4656 39.36 50.5723 39.056C50.679 38.7467 50.7323 38.432 50.7323 38.112C50.7323 37.792 50.679 37.48 50.5723 37.176C50.4656 36.8667 50.295 36.5973 50.0603 36.368C49.831 36.1387 49.5323 35.984 49.1643 35.904C49.047 35.872 48.9216 35.8533 48.7883 35.848C48.6603 35.8373 48.5456 35.832 48.4443 35.832H45.3643V40.392ZM53.7841 46V34.48H58.3361C58.4481 34.48 58.5814 34.4853 58.7361 34.496C58.8907 34.5013 59.0401 34.5173 59.1841 34.544C59.8081 34.64 60.3307 34.8533 60.7521 35.184C61.1787 35.5147 61.4987 35.9333 61.7121 36.44C61.9254 36.9413 62.0321 37.4987 62.0321 38.112C62.0321 38.72 61.9227 39.2773 61.7041 39.784C61.4907 40.2853 61.1707 40.704 60.7441 41.04C60.3227 41.3707 59.8027 41.584 59.1841 41.68C59.0401 41.7013 58.8907 41.7173 58.7361 41.728C58.5814 41.7387 58.4481 41.744 58.3361 41.744H55.2081V46H53.7841ZM55.2081 40.392H58.2881C58.3894 40.392 58.5041 40.3867 58.6321 40.376C58.7654 40.3653 58.8907 40.3467 59.0081 40.32C59.3761 40.2347 59.6747 40.08 59.9041 39.856C60.1387 39.6267 60.3094 39.36 60.4161 39.056C60.5227 38.7467 60.5761 38.432 60.5761 38.112C60.5761 37.792 60.5227 37.48 60.4161 37.176C60.3094 36.8667 60.1387 36.5973 59.9041 36.368C59.6747 36.1387 59.3761 35.984 59.0081 35.904C58.8907 35.872 58.7654 35.8533 58.6321 35.848C58.5041 35.8373 58.3894 35.832 58.2881 35.832H55.2081V40.392ZM63.6278 46V34.48H70.9078V35.832H65.0518V39.44H69.9478V40.792H65.0518V44.648H70.9078V46H63.6278ZM72.0309 46L75.8869 34.48H77.8709L81.7269 46H80.2469L76.6389 35.312H77.0869L73.5109 46H72.0309ZM73.8869 43.304V41.968H79.8709V43.304H73.8869ZM83.1591 46V34.48H87.7111C87.8231 34.48 87.9564 34.4853 88.1111 34.496C88.2657 34.5013 88.4151 34.5173 88.5591 34.544C89.1831 34.64 89.7057 34.8533 90.1271 35.184C90.5537 35.5147 90.8737 35.9333 91.0871 36.44C91.3004 36.9413 91.4071 37.4987 91.4071 38.112C91.4071 39.0027 91.1751 39.776 90.7111 40.432C90.2471 41.0827 89.5671 41.4907 88.6711 41.656L88.1271 41.744H84.5831V46H83.1591ZM90.0151 46L87.7431 41.312L89.1511 40.88L91.6471 46H90.0151ZM84.5831 40.392H87.6631C87.7644 40.392 87.8791 40.3867 88.0071 40.376C88.1404 40.3653 88.2657 40.3467 88.3831 40.32C88.7511 40.2347 89.0497 40.08 89.2791 39.856C89.5137 39.6267 89.6844 39.36 89.7911 39.056C89.8977 38.7467 89.9511 38.432 89.9511 38.112C89.9511 37.792 89.8977 37.48 89.7911 37.176C89.6844 36.8667 89.5137 36.5973 89.2791 36.368C89.0497 36.1387 88.7511 35.984 88.3831 35.904C88.2657 35.872 88.1404 35.8533 88.0071 35.848C87.8791 35.8373 87.7644 35.832 87.6631 35.832H84.5831V40.392ZM92.6091 46L96.4651 34.48H98.4491L102.305 46H100.825L97.2171 35.312H97.6651L94.0891 46H92.6091ZM94.4651 43.304V41.968H100.449V43.304H94.4651ZM103.737 46V34.48H105.177L111.185 43.48V34.48H112.625V46H111.185L105.177 36.992V46H103.737ZM119.598 46.24C118.452 46.24 117.478 45.9867 116.678 45.48C115.878 44.9733 115.268 44.2693 114.846 43.368C114.43 42.4667 114.222 41.424 114.222 40.24C114.222 39.056 114.43 38.0133 114.846 37.112C115.268 36.2107 115.878 35.5067 116.678 35C117.478 34.4933 118.452 34.24 119.598 34.24C120.932 34.24 122.028 34.5787 122.886 35.256C123.75 35.9333 124.345 36.8453 124.67 37.992L123.222 38.376C122.988 37.5173 122.569 36.84 121.966 36.344C121.364 35.848 120.574 35.6 119.598 35.6C118.74 35.6 118.025 35.7947 117.454 36.184C116.884 36.5733 116.454 37.1173 116.166 37.816C115.878 38.5093 115.732 39.3173 115.726 40.24C115.721 41.1573 115.862 41.9653 116.15 42.664C116.438 43.3573 116.87 43.9013 117.446 44.296C118.022 44.6853 118.74 44.88 119.598 44.88C120.574 44.88 121.364 44.632 121.966 44.136C122.569 43.6347 122.988 42.9573 123.222 42.104L124.67 42.488C124.345 43.6293 123.75 44.5413 122.886 45.224C122.028 45.9013 120.932 46.24 119.598 46.24ZM126.425 46V34.48H133.705V35.832H127.849V39.44H132.745V40.792H127.849V44.648H133.705V46H126.425ZM142.575 46.24C141.935 46.24 141.338 46.1467 140.783 45.96C140.228 45.7733 139.764 45.48 139.391 45.08C139.103 44.76 138.887 44.408 138.743 44.024C138.604 43.6347 138.527 43.224 138.511 42.792C138.511 42.3707 138.572 41.96 138.695 41.56C138.818 41.1547 139.012 40.7947 139.279 40.48C139.418 40.3093 139.572 40.1653 139.743 40.048C139.919 39.9253 140.095 39.8213 140.271 39.736C139.903 39.3413 139.62 38.9707 139.423 38.624C139.231 38.2773 139.135 37.8587 139.135 37.368C139.135 36.744 139.295 36.1813 139.615 35.68C139.94 35.1733 140.383 34.8027 140.943 34.568C141.215 34.4507 141.492 34.3707 141.775 34.328C142.063 34.28 142.343 34.256 142.615 34.256C143.074 34.256 143.519 34.32 143.951 34.448C144.383 34.576 144.751 34.784 145.055 35.072C145.258 35.2427 145.431 35.44 145.575 35.664C145.719 35.8827 145.831 36.112 145.911 36.352L144.519 36.712C144.418 36.44 144.25 36.2107 144.015 36.024C143.828 35.864 143.61 35.7547 143.359 35.696C143.114 35.6373 142.866 35.608 142.615 35.608C142.199 35.608 141.823 35.688 141.487 35.848C141.188 35.992 140.964 36.1947 140.815 36.456C140.666 36.712 140.591 37.016 140.591 37.368C140.591 37.672 140.642 37.9227 140.743 38.12C140.85 38.312 140.996 38.5173 141.183 38.736C141.295 38.8533 141.42 38.9787 141.559 39.112C141.703 39.24 141.85 39.3733 141.999 39.512L145.391 42.664C145.407 42.5307 145.418 42.3947 145.423 42.256C145.428 42.1173 145.431 41.984 145.431 41.856L145.423 40.264H146.727V42.136C146.727 42.5147 146.714 42.8373 146.687 43.104C146.666 43.3707 146.628 43.592 146.575 43.768L148.039 45.12L147.111 46.112L145.895 44.96C145.687 45.1947 145.439 45.4 145.151 45.576C144.863 45.752 144.575 45.8853 144.287 45.976C144.015 46.0773 143.735 46.1467 143.447 46.184C143.159 46.2213 142.868 46.24 142.575 46.24ZM142.607 44.872C142.868 44.872 143.106 44.856 143.319 44.824C143.532 44.792 143.735 44.7307 143.927 44.64C144.183 44.5173 144.38 44.4 144.519 44.288C144.658 44.176 144.772 44.072 144.863 43.976L141.351 40.76C141.159 40.824 140.978 40.9093 140.807 41.016C140.642 41.1227 140.498 41.248 140.375 41.392C140.236 41.5627 140.132 41.7627 140.063 41.992C139.999 42.2213 139.967 42.464 139.967 42.72C139.972 42.992 140.018 43.2427 140.103 43.472C140.188 43.7013 140.308 43.9067 140.463 44.088C140.698 44.36 141.015 44.56 141.415 44.688C141.815 44.8107 142.212 44.872 142.607 44.872ZM152.55 46V34.48H157.102C157.214 34.48 157.347 34.4853 157.502 34.496C157.656 34.5013 157.806 34.5173 157.95 34.544C158.574 34.64 159.096 34.8533 159.518 35.184C159.944 35.5147 160.264 35.9333 160.478 36.44C160.691 36.9413 160.798 37.4987 160.798 38.112C160.798 38.72 160.688 39.2773 160.47 39.784C160.256 40.2853 159.936 40.704 159.51 41.04C159.088 41.3707 158.568 41.584 157.95 41.68C157.806 41.7013 157.656 41.7173 157.502 41.728C157.347 41.7387 157.214 41.744 157.102 41.744H153.974V46H152.55ZM153.974 40.392H157.054C157.155 40.392 157.27 40.3867 157.398 40.376C157.531 40.3653 157.656 40.3467 157.774 40.32C158.142 40.2347 158.44 40.08 158.67 39.856C158.904 39.6267 159.075 39.36 159.182 39.056C159.288 38.7467 159.342 38.432 159.342 38.112C159.342 37.792 159.288 37.48 159.182 37.176C159.075 36.8667 158.904 36.5973 158.67 36.368C158.44 36.1387 158.142 35.984 157.774 35.904C157.656 35.872 157.531 35.8533 157.398 35.848C157.27 35.8373 157.155 35.832 157.054 35.832H153.974V40.392ZM162.393 46V34.48H169.673V35.832H163.817V39.44H168.713V40.792H163.817V44.648H169.673V46H162.393ZM171.597 46V34.48H176.149C176.261 34.48 176.394 34.4853 176.549 34.496C176.703 34.5013 176.853 34.5173 176.997 34.544C177.621 34.64 178.143 34.8533 178.565 35.184C178.991 35.5147 179.311 35.9333 179.525 36.44C179.738 36.9413 179.845 37.4987 179.845 38.112C179.845 39.0027 179.613 39.776 179.149 40.432C178.685 41.0827 178.005 41.4907 177.109 41.656L176.565 41.744H173.021V46H171.597ZM178.453 46L176.181 41.312L177.589 40.88L180.085 46H178.453ZM173.021 40.392H176.101C176.202 40.392 176.317 40.3867 176.445 40.376C176.578 40.3653 176.703 40.3467 176.821 40.32C177.189 40.2347 177.487 40.08 177.717 39.856C177.951 39.6267 178.122 39.36 178.229 39.056C178.335 38.7467 178.389 38.432 178.389 38.112C178.389 37.792 178.335 37.48 178.229 37.176C178.122 36.8667 177.951 36.5973 177.717 36.368C177.487 36.1387 177.189 35.984 176.821 35.904C176.703 35.872 176.578 35.8533 176.445 35.848C176.317 35.8373 176.202 35.832 176.101 35.832H173.021V40.392ZM185.935 46.24C185.119 46.24 184.383 46.1013 183.727 45.824C183.076 45.5467 182.537 45.152 182.111 44.64C181.689 44.1227 181.415 43.512 181.287 42.808L182.759 42.576C182.945 43.3013 183.332 43.8693 183.919 44.28C184.511 44.6853 185.207 44.888 186.007 44.888C186.524 44.888 186.991 44.808 187.407 44.648C187.828 44.4827 188.161 44.248 188.407 43.944C188.652 43.64 188.775 43.28 188.775 42.864C188.775 42.608 188.729 42.3893 188.639 42.208C188.553 42.0213 188.433 41.864 188.279 41.736C188.129 41.6027 187.959 41.4907 187.767 41.4C187.575 41.3093 187.375 41.2347 187.167 41.176L184.231 40.304C183.911 40.208 183.601 40.088 183.303 39.944C183.004 39.7947 182.737 39.6107 182.503 39.392C182.268 39.168 182.081 38.9013 181.943 38.592C181.804 38.2773 181.735 37.9067 181.735 37.48C181.735 36.7973 181.911 36.216 182.263 35.736C182.62 35.2507 183.103 34.88 183.711 34.624C184.319 34.368 185.004 34.2427 185.767 34.248C186.54 34.2533 187.231 34.392 187.839 34.664C188.452 34.9307 188.959 35.3147 189.359 35.816C189.764 36.3173 190.036 36.9173 190.175 37.616L188.663 37.88C188.583 37.4107 188.404 37.008 188.127 36.672C187.855 36.3307 187.513 36.0693 187.103 35.888C186.692 35.7013 186.241 35.6053 185.751 35.6C185.281 35.5947 184.857 35.6693 184.479 35.824C184.1 35.9787 183.799 36.1947 183.575 36.472C183.351 36.744 183.239 37.0587 183.239 37.416C183.239 37.768 183.34 38.0533 183.543 38.272C183.745 38.4853 183.993 38.656 184.287 38.784C184.585 38.9067 184.876 39.008 185.159 39.088L187.351 39.72C187.601 39.7893 187.889 39.8853 188.215 40.008C188.545 40.1307 188.865 40.304 189.175 40.528C189.484 40.7467 189.74 41.04 189.943 41.408C190.145 41.7707 190.247 42.2293 190.247 42.784C190.247 43.3387 190.135 43.832 189.911 44.264C189.692 44.696 189.385 45.0587 188.991 45.352C188.596 45.64 188.137 45.8587 187.615 46.008C187.092 46.1627 186.532 46.24 185.935 46.24ZM196.661 46.24C195.514 46.24 194.541 45.9867 193.741 45.48C192.941 44.9733 192.33 44.2693 191.909 43.368C191.493 42.4667 191.285 41.424 191.285 40.24C191.285 39.056 191.493 38.0133 191.909 37.112C192.33 36.2107 192.941 35.5067 193.741 35C194.541 34.4933 195.514 34.24 196.661 34.24C197.813 34.24 198.789 34.4933 199.589 35C200.389 35.5067 200.997 36.2107 201.413 37.112C201.829 38.0133 202.037 39.056 202.037 40.24C202.037 41.424 201.829 42.4667 201.413 43.368C200.997 44.2693 200.389 44.9733 199.589 45.48C198.789 45.9867 197.813 46.24 196.661 46.24ZM196.661 44.88C197.519 44.8853 198.234 44.6933 198.805 44.304C199.381 43.9093 199.81 43.3627 200.093 42.664C200.381 41.9653 200.525 41.1573 200.525 40.24C200.525 39.3173 200.381 38.5093 200.093 37.816C199.81 37.1227 199.381 36.5813 198.805 36.192C198.234 35.8027 197.519 35.6053 196.661 35.6C195.802 35.5947 195.087 35.7867 194.517 36.176C193.951 36.5653 193.525 37.1093 193.237 37.808C192.949 38.5067 192.802 39.3173 192.797 40.24C192.791 41.1573 192.933 41.9627 193.221 42.656C193.509 43.3493 193.938 43.8933 194.509 44.288C195.085 44.6773 195.802 44.8747 196.661 44.88ZM203.643 46V34.48H205.083L211.091 43.48V34.48H212.531V46H211.091L205.083 36.992V46H203.643ZM213.968 46L217.824 34.48H219.808L223.664 46H222.184L218.576 35.312H219.024L215.448 46H213.968ZM215.824 43.304V41.968H221.808V43.304H215.824ZM225.257 46V34.48H226.681V44.648H232.025V46H225.257ZM233.538 46V34.48H234.962V46H233.538ZM240.33 46V35.832H236.402V34.48H245.682V35.832H241.754V46H240.33ZM250.2 46V41.208L246.32 34.48H247.976L250.92 39.576L253.856 34.48H255.512L251.64 41.208V46H250.2Z" fill="white"></path> <defs> <linearGradient id="paint0_linear_160_274" x1="300" y1="0" x2="300" y2="400" gradientUnits="userSpaceOnUse"> <stop stop-color="#B0772C"></stop> <stop offset="1" stop-color="#FBBC69"></stop> </linearGradient> </defs> </svg> 