<?xml version="1.0" encoding="UTF-8"?> <svg xmlns="http://www.w3.org/2000/svg" width="600" height="400" viewBox="0 0 600 400" fill="none"> <g clip-path="url(#clip0_1319_283)"> <rect width="600" height="400" rx="20" fill="#0F7A4C"></rect> <path d="M110.231 240L105.6 224.16H108.383L111.54 235.6L114.686 224.182L117.469 224.16L120.626 235.6L123.772 224.16H126.555L121.935 240H119.317L116.072 228.736L112.849 240H110.231ZM134.619 240.33C133.035 240.33 131.678 239.985 130.549 239.296C129.42 238.599 128.551 237.631 127.942 236.392C127.341 235.153 127.04 233.715 127.04 232.08C127.04 230.445 127.341 229.007 127.942 227.768C128.551 226.529 129.42 225.564 130.549 224.875C131.678 224.178 133.035 223.83 134.619 223.83C136.203 223.83 137.56 224.178 138.689 224.875C139.826 225.564 140.695 226.529 141.296 227.768C141.905 229.007 142.209 230.445 142.209 232.08C142.209 233.715 141.905 235.153 141.296 236.392C140.695 237.631 139.826 238.599 138.689 239.296C137.56 239.985 136.203 240.33 134.619 240.33ZM134.619 237.833C135.682 237.84 136.566 237.606 137.27 237.129C137.981 236.652 138.513 235.981 138.865 235.116C139.224 234.251 139.404 233.239 139.404 232.08C139.404 230.921 139.224 229.917 138.865 229.066C138.513 228.208 137.981 227.541 137.27 227.064C136.566 226.587 135.682 226.342 134.619 226.327C133.556 226.32 132.672 226.554 131.968 227.031C131.264 227.508 130.732 228.179 130.373 229.044C130.021 229.909 129.845 230.921 129.845 232.08C129.845 233.239 130.021 234.247 130.373 235.105C130.725 235.956 131.253 236.619 131.957 237.096C132.668 237.573 133.556 237.818 134.619 237.833ZM144.398 240V224.16H150.943C151.097 224.16 151.295 224.167 151.537 224.182C151.779 224.189 152.003 224.211 152.208 224.248C153.125 224.387 153.88 224.692 154.474 225.161C155.076 225.63 155.519 226.224 155.805 226.943C156.099 227.654 156.245 228.446 156.245 229.319C156.245 230.61 155.919 231.721 155.266 232.652C154.614 233.576 153.613 234.148 152.263 234.368L151.13 234.467H147.049V240H144.398ZM153.495 240L150.371 233.554L153.066 232.96L156.498 240H153.495ZM147.049 231.992H150.833C150.98 231.992 151.145 231.985 151.328 231.97C151.512 231.955 151.68 231.926 151.834 231.882C152.274 231.772 152.619 231.578 152.868 231.299C153.125 231.02 153.305 230.705 153.407 230.353C153.517 230.001 153.572 229.656 153.572 229.319C153.572 228.982 153.517 228.637 153.407 228.285C153.305 227.926 153.125 227.607 152.868 227.328C152.619 227.049 152.274 226.855 151.834 226.745C151.68 226.701 151.512 226.675 151.328 226.668C151.145 226.653 150.98 226.646 150.833 226.646H147.049V231.992ZM158.922 240V224.16H163.971C164.103 224.16 164.363 224.164 164.752 224.171C165.148 224.178 165.529 224.204 165.896 224.248C167.15 224.409 168.21 224.857 169.075 225.59C169.948 226.316 170.608 227.244 171.055 228.373C171.502 229.502 171.726 230.738 171.726 232.08C171.726 233.422 171.502 234.658 171.055 235.787C170.608 236.916 169.948 237.848 169.075 238.581C168.21 239.307 167.15 239.751 165.896 239.912C165.537 239.956 165.159 239.982 164.763 239.989C164.367 239.996 164.103 240 163.971 240H158.922ZM161.617 237.503H163.971C164.191 237.503 164.47 237.496 164.807 237.481C165.152 237.466 165.456 237.433 165.72 237.382C166.468 237.243 167.077 236.909 167.546 236.381C168.015 235.853 168.36 235.211 168.58 234.456C168.807 233.701 168.921 232.909 168.921 232.08C168.921 231.222 168.807 230.415 168.58 229.66C168.353 228.905 168.001 228.27 167.524 227.757C167.055 227.244 166.453 226.917 165.72 226.778C165.456 226.719 165.152 226.686 164.807 226.679C164.47 226.664 164.191 226.657 163.971 226.657H161.617V237.503ZM180.189 240.33C179.03 240.33 177.985 240.128 177.054 239.725C176.13 239.322 175.367 238.746 174.766 237.998C174.172 237.243 173.794 236.348 173.633 235.314L176.383 234.896C176.618 235.835 177.098 236.561 177.824 237.074C178.557 237.587 179.401 237.844 180.354 237.844C180.919 237.844 181.45 237.756 181.949 237.58C182.448 237.404 182.851 237.147 183.159 236.81C183.474 236.473 183.632 236.058 183.632 235.567C183.632 235.347 183.595 235.145 183.522 234.962C183.449 234.771 183.339 234.603 183.192 234.456C183.053 234.309 182.869 234.177 182.642 234.06C182.422 233.935 182.165 233.829 181.872 233.741L177.78 232.531C177.428 232.428 177.047 232.293 176.636 232.124C176.233 231.948 175.848 231.71 175.481 231.409C175.122 231.101 174.825 230.712 174.59 230.243C174.363 229.766 174.249 229.18 174.249 228.483C174.249 227.464 174.506 226.609 175.019 225.92C175.54 225.223 176.236 224.703 177.109 224.358C177.989 224.013 178.964 223.845 180.035 223.852C181.12 223.859 182.088 224.046 182.939 224.413C183.79 224.772 184.501 225.297 185.073 225.986C185.645 226.675 186.048 227.508 186.283 228.483L183.434 228.978C183.317 228.421 183.089 227.948 182.752 227.559C182.422 227.163 182.015 226.862 181.531 226.657C181.054 226.452 180.545 226.342 180.002 226.327C179.474 226.32 178.983 226.4 178.528 226.569C178.081 226.73 177.718 226.965 177.439 227.273C177.168 227.581 177.032 227.94 177.032 228.351C177.032 228.74 177.149 229.059 177.384 229.308C177.619 229.55 177.908 229.744 178.253 229.891C178.605 230.03 178.961 230.148 179.32 230.243L182.158 231.035C182.547 231.138 182.983 231.277 183.467 231.453C183.951 231.629 184.417 231.875 184.864 232.19C185.311 232.505 185.678 232.92 185.964 233.433C186.257 233.946 186.404 234.599 186.404 235.391C186.404 236.212 186.232 236.935 185.887 237.558C185.55 238.174 185.091 238.687 184.512 239.098C183.933 239.509 183.269 239.817 182.521 240.022C181.78 240.227 181.003 240.33 180.189 240.33ZM193.189 240V224.16H199.47C200.541 224.16 201.417 224.376 202.099 224.809C202.789 225.234 203.298 225.781 203.628 226.448C203.966 227.115 204.134 227.805 204.134 228.516C204.134 229.389 203.925 230.129 203.507 230.738C203.097 231.347 202.536 231.757 201.824 231.97V231.42C202.822 231.647 203.577 232.12 204.09 232.839C204.611 233.558 204.871 234.375 204.871 235.292C204.871 236.231 204.692 237.052 204.332 237.756C203.973 238.46 203.438 239.01 202.726 239.406C202.022 239.802 201.15 240 200.108 240H193.189ZM195.873 237.503H199.778C200.24 237.503 200.655 237.411 201.021 237.228C201.388 237.037 201.674 236.773 201.879 236.436C202.092 236.091 202.198 235.684 202.198 235.215C202.198 234.79 202.107 234.408 201.923 234.071C201.74 233.734 201.472 233.466 201.12 233.268C200.768 233.063 200.347 232.96 199.855 232.96H195.873V237.503ZM195.873 230.485H199.437C199.819 230.485 200.16 230.412 200.46 230.265C200.761 230.118 200.999 229.902 201.175 229.616C201.351 229.33 201.439 228.978 201.439 228.56C201.439 228.01 201.263 227.552 200.911 227.185C200.559 226.818 200.068 226.635 199.437 226.635H195.873V230.485ZM207.068 240V224.16H217.298V226.646H209.719V230.551H215.978V233.037H209.719V237.514H217.298V240H207.068ZM225.805 240.33C224.779 240.33 223.814 240.15 222.912 239.791C222.018 239.424 221.229 238.889 220.547 238.185C219.873 237.481 219.345 236.619 218.963 235.6C218.582 234.573 218.391 233.4 218.391 232.08C218.391 230.349 218.714 228.872 219.359 227.647C220.005 226.415 220.888 225.473 222.01 224.82C223.132 224.16 224.397 223.83 225.805 223.83C227.756 223.83 229.3 224.285 230.436 225.194C231.58 226.096 232.354 227.365 232.757 229L230.051 229.429C229.751 228.49 229.259 227.742 228.577 227.185C227.895 226.62 227.026 226.338 225.97 226.338C224.907 226.323 224.023 226.554 223.319 227.031C222.615 227.508 222.084 228.179 221.724 229.044C221.372 229.909 221.196 230.921 221.196 232.08C221.196 233.239 221.372 234.247 221.724 235.105C222.076 235.956 222.604 236.619 223.308 237.096C224.02 237.573 224.907 237.818 225.97 237.833C226.77 237.84 227.47 237.697 228.071 237.404C228.673 237.103 229.164 236.652 229.545 236.051C229.927 235.442 230.183 234.683 230.315 233.774H227.521V231.695H233.131C233.146 231.812 233.157 231.985 233.164 232.212C233.172 232.439 233.175 232.575 233.175 232.619C233.175 234.115 232.878 235.446 232.284 236.612C231.698 237.771 230.854 238.68 229.754 239.34C228.654 240 227.338 240.33 225.805 240.33ZM235.605 240V224.16H238.256V240H235.605ZM241.551 240V224.16H244.235L251.583 235.325V224.16H254.267V240H251.583L244.235 228.835V240H241.551ZM257.342 240V224.16H260.026L267.374 235.325V224.16H270.058V240H267.374L260.026 228.835V240H257.342ZM273.353 240V224.16H276.004V240H273.353ZM279.299 240V224.16H281.983L289.331 235.325V224.16H292.015V240H289.331L281.983 228.835V240H279.299ZM301.624 240.33C300.597 240.33 299.633 240.15 298.731 239.791C297.836 239.424 297.048 238.889 296.366 238.185C295.691 237.481 295.163 236.619 294.782 235.6C294.4 234.573 294.21 233.4 294.21 232.08C294.21 230.349 294.532 228.872 295.178 227.647C295.823 226.415 296.707 225.473 297.829 224.82C298.951 224.16 300.216 223.83 301.624 223.83C303.574 223.83 305.118 224.285 306.255 225.194C307.399 226.096 308.172 227.365 308.576 229L305.87 229.429C305.569 228.49 305.078 227.742 304.396 227.185C303.714 226.62 302.845 226.338 301.789 226.338C300.725 226.323 299.842 226.554 299.138 227.031C298.434 227.508 297.902 228.179 297.543 229.044C297.191 229.909 297.015 230.921 297.015 232.08C297.015 233.239 297.191 234.247 297.543 235.105C297.895 235.956 298.423 236.619 299.127 237.096C299.838 237.573 300.725 237.818 301.789 237.833C302.588 237.84 303.288 237.697 303.89 237.404C304.491 237.103 304.982 236.652 305.364 236.051C305.745 235.442 306.002 234.683 306.134 233.774H303.34V231.695H308.95C308.964 231.812 308.975 231.985 308.983 232.212C308.99 232.439 308.994 232.575 308.994 232.619C308.994 234.115 308.697 235.446 308.103 236.612C307.516 237.771 306.673 238.68 305.573 239.34C304.473 240 303.156 240.33 301.624 240.33ZM318.951 240L314.32 224.16H317.103L320.26 235.6L323.406 224.182L326.189 224.16L329.346 235.6L332.492 224.16H335.275L330.655 240H328.037L324.792 228.736L321.569 240H318.951ZM337.29 240V224.16H339.941V240H337.29ZM347.042 240V226.646H341.916V224.16H354.819V226.646H349.693V240H347.042ZM356.578 240V224.16H359.229V230.826H366.731V224.16H369.371V240H366.731V233.312H359.229V240H356.578ZM377.079 240V224.16H379.73V237.514H386.726V240H377.079ZM388.59 240V224.16H398.82V226.646H391.241V230.551H397.5V233.037H391.241V237.514H398.82V240H388.59ZM405.265 240V226.646H400.139V224.16H413.042V226.646H407.916V240H405.265ZM419.917 240V226.646H414.791V224.16H427.694V226.646H422.568V240H419.917ZM429.453 240V224.16H439.683V226.646H432.104V230.551H438.363V233.037H432.104V237.514H439.683V240H429.453ZM442.322 240V224.16H448.867C449.021 224.16 449.219 224.167 449.461 224.182C449.703 224.189 449.927 224.211 450.132 224.248C451.049 224.387 451.804 224.692 452.398 225.161C453 225.63 453.443 226.224 453.729 226.943C454.023 227.654 454.169 228.446 454.169 229.319C454.169 230.61 453.843 231.721 453.19 232.652C452.538 233.576 451.537 234.148 450.187 234.368L449.054 234.467H444.973V240H442.322ZM451.419 240L448.295 233.554L450.99 232.96L454.422 240H451.419ZM444.973 231.992H448.757C448.904 231.992 449.069 231.985 449.252 231.97C449.436 231.955 449.604 231.926 449.758 231.882C450.198 231.772 450.543 231.578 450.792 231.299C451.049 231.02 451.229 230.705 451.331 230.353C451.441 230.001 451.496 229.656 451.496 229.319C451.496 228.982 451.441 228.637 451.331 228.285C451.229 227.926 451.049 227.607 450.792 227.328C450.543 227.049 450.198 226.855 449.758 226.745C449.604 226.701 449.436 226.675 449.252 226.668C449.069 226.653 448.904 226.646 448.757 226.646H444.973V231.992ZM461.03 228.12V224.16H463.681V228.12H461.03ZM465.133 228.12V224.16H467.784V228.12H465.133ZM471.519 240V224.16H476.568C476.7 224.16 476.961 224.164 477.349 224.171C477.745 224.178 478.127 224.204 478.493 224.248C479.747 224.409 480.807 224.857 481.672 225.59C482.545 226.316 483.205 227.244 483.652 228.373C484.1 229.502 484.323 230.738 484.323 232.08C484.323 233.422 484.1 234.658 483.652 235.787C483.205 236.916 482.545 237.848 481.672 238.581C480.807 239.307 479.747 239.751 478.493 239.912C478.134 239.956 477.756 239.982 477.36 239.989C476.964 239.996 476.7 240 476.568 240H471.519ZM474.214 237.503H476.568C476.788 237.503 477.067 237.496 477.404 237.481C477.749 237.466 478.053 237.433 478.317 237.382C479.065 237.243 479.674 236.909 480.143 236.381C480.613 235.853 480.957 235.211 481.177 234.456C481.405 233.701 481.518 232.909 481.518 232.08C481.518 231.222 481.405 230.415 481.177 229.66C480.95 228.905 480.598 228.27 480.121 227.757C479.652 227.244 479.051 226.917 478.317 226.778C478.053 226.719 477.749 226.686 477.404 226.679C477.067 226.664 476.788 226.657 476.568 226.657H474.214V237.503ZM486.704 228.12V224.16H489.355V228.12H486.704ZM490.807 228.12V224.16H493.458V228.12H490.807Z" fill="white"></path> <path d="M152.67 178.308C152.553 177.252 152.7 176.299 153.11 175.448C153.55 174.568 154.166 173.717 154.958 172.896L157.642 172.676C158.053 172.617 158.302 172.588 158.39 172.588C158.83 172.588 159.388 173.131 160.062 174.216C160.121 174.392 160.18 174.612 160.238 174.876C160.297 175.111 160.385 175.301 160.502 175.448L165.606 182.532C166.369 183.5 167.117 184.512 167.85 185.568L168.598 183.148C169.537 180.068 170.388 177.575 171.15 175.668C171.942 173.732 172.969 171.899 174.23 170.168L176.342 170.476C176.9 170.916 177.09 171.503 176.914 172.236C176.65 173.292 176.372 174.084 176.078 174.612C175.374 176.401 174.788 178.22 174.318 180.068C173.849 181.887 173.321 184.189 172.734 186.976C172.646 187.357 172.529 187.929 172.382 188.692C172.148 189.865 171.693 190.745 171.018 191.332C170.344 191.889 169.42 192.197 168.246 192.256C167.073 192.315 166.061 191.831 165.21 190.804C164.33 189.748 163.23 188.325 161.91 186.536L161.03 185.348C160.238 184.292 159.036 182.737 157.422 180.684L157.026 182.576C156.586 184.688 156.322 186.345 156.234 187.548L155.97 192.872C155.941 193.459 155.912 194.207 155.882 195.116C155.853 195.996 155.794 197.037 155.706 198.24C155.677 199.12 155.369 199.883 154.782 200.528C154.225 201.173 153.521 201.613 152.67 201.848C152.23 201.965 151.688 201.848 151.042 201.496C150.426 201.173 150.06 200.792 149.942 200.352C149.737 199.589 149.634 198.915 149.634 198.328C149.634 197.8 149.708 197.331 149.854 196.92C150.118 196.216 150.294 195.101 150.382 193.576C150.441 192.637 150.514 191.933 150.602 191.464C150.984 188.765 151.57 185.04 152.362 180.288C152.392 180.053 152.45 179.745 152.538 179.364C152.656 178.953 152.7 178.601 152.67 178.308ZM203.043 176.416C203.219 177.677 203.395 179.511 203.571 181.916L203.659 184.204C203.659 188.457 204.217 192.256 205.331 195.6C205.478 196.069 205.551 196.671 205.551 197.404C205.551 197.815 205.522 198.372 205.463 199.076C205.434 199.545 205.258 199.912 204.935 200.176C204.613 200.469 204.202 200.616 203.703 200.616C203.645 200.616 203.483 200.587 203.219 200.528C202.486 200.352 201.929 200.029 201.547 199.56C201.166 199.061 200.975 198.46 200.975 197.756C200.975 197.521 200.99 197.345 201.019 197.228C201.019 197.052 201.019 196.803 201.019 196.48C201.019 195.952 200.99 195.468 200.931 195.028C200.697 193.884 200.33 192.359 199.831 190.452C199.655 189.66 199.289 189.264 198.731 189.264C198.526 189.264 198.291 189.308 198.027 189.396C197.118 189.66 196.311 189.909 195.607 190.144C194.933 190.379 194.331 190.569 193.803 190.716L191.691 191.332C190.489 191.684 189.374 191.963 188.347 192.168C187.262 192.403 186.47 193.004 185.971 193.972C185.502 194.852 184.827 196.04 183.947 197.536C183.39 198.533 182.657 199.032 181.747 199.032C181.307 199.032 180.867 198.929 180.427 198.724C180.017 198.489 179.665 198.196 179.371 197.844C178.931 197.345 178.711 196.861 178.711 196.392C178.711 196.069 178.799 195.732 178.975 195.38L182.011 189.22C185.355 182.415 187.35 178.337 187.995 176.988C189.843 173.409 192.351 170.945 195.519 169.596C196.194 169.273 196.883 169.112 197.587 169.112C198.467 169.112 199.274 169.347 200.007 169.816C200.77 170.256 201.357 170.887 201.767 171.708C202.354 172.911 202.779 174.48 203.043 176.416ZM188.831 187.548C192.85 186.844 196.267 186.272 199.083 185.832C199.025 183.016 198.937 180.801 198.819 179.188C198.731 177.545 198.526 175.903 198.203 174.26C196.649 174.436 195.475 175.199 194.683 176.548C193.305 178.719 191.985 180.963 190.723 183.28C190.518 183.661 190.137 184.512 189.579 185.832L188.831 187.548ZM234.667 189.22C234.697 188.927 234.711 188.472 234.711 187.856C234.741 187.651 234.755 187.313 234.755 186.844L233.743 187.812C232.893 188.604 232.233 189.191 231.763 189.572C231.089 190.071 230.502 190.305 230.003 190.276C228.859 190.188 227.877 189.953 227.055 189.572C226.263 189.161 225.662 188.472 225.251 187.504L223.403 183.016C223.374 183.045 223.286 183.148 223.139 183.324C223.022 183.471 222.934 183.632 222.875 183.808C221.585 186.888 220.265 190.173 218.915 193.664C218.153 195.629 217.493 197.58 216.935 199.516C216.789 200.015 216.539 200.367 216.187 200.572C215.865 200.777 215.439 200.88 214.911 200.88C214.061 200.88 213.254 200.572 212.491 199.956C211.758 199.34 211.391 198.592 211.391 197.712C211.391 197.389 211.465 197.037 211.611 196.656C212.257 194.955 212.726 193.679 213.019 192.828C214.515 188.809 215.791 185.583 216.847 183.148C217.933 180.684 219.267 178.308 220.851 176.02C221.467 175.111 221.863 174.568 222.039 174.392C222.567 173.747 223.227 173.424 224.019 173.424C224.195 173.424 224.43 173.453 224.723 173.512C225.926 173.747 226.733 173.967 227.143 174.172C227.583 174.348 227.877 174.656 228.023 175.096C228.199 175.507 228.39 176.313 228.595 177.516L229.387 183.104C230.003 182.752 230.693 182.18 231.455 181.388C232.247 180.567 232.995 179.657 233.699 178.66C233.611 178.777 234.066 178.191 235.063 176.9C235.386 176.519 235.841 175.947 236.427 175.184C236.926 174.48 237.586 174.128 238.407 174.128C238.701 174.128 238.994 174.172 239.287 174.26C240.343 174.495 241.106 174.847 241.575 175.316C242.045 175.785 242.279 176.46 242.279 177.34C242.279 177.868 242.221 178.411 242.103 178.968L241.179 183.544C240.065 189.235 239.449 192.432 239.331 193.136L237.923 201.32C237.718 202.728 237.381 204.811 236.911 207.568C236.882 207.891 236.779 208.345 236.603 208.932C236.515 209.196 236.383 209.651 236.207 210.296C236.031 210.941 235.914 211.513 235.855 212.012C235.797 212.511 235.65 212.877 235.415 213.112C235.181 213.376 234.829 213.523 234.359 213.552C233.802 213.581 233.347 213.449 232.995 213.156C232.643 212.892 232.453 212.496 232.423 211.968L232.379 209.064C232.379 208.096 232.423 207.128 232.511 206.16C232.893 202.757 233.333 199.311 233.831 195.82L234.667 189.22ZM256.173 183.192L257.757 182.972C258.901 182.796 259.678 182.693 260.089 182.664L261.145 182.576C261.497 182.547 261.937 182.517 262.465 182.488C262.993 182.459 263.594 182.444 264.269 182.444C264.914 182.444 265.383 182.459 265.677 182.488C266.703 182.576 267.451 182.913 267.921 183.5C268.419 184.087 268.713 184.967 268.801 186.14C268.683 186.14 268.507 186.125 268.273 186.096C268.038 186.067 267.847 186.037 267.701 186.008C266.879 185.861 266.131 185.788 265.457 185.788C264.665 185.788 263.902 185.891 263.169 186.096C261.291 186.683 258.886 187.299 255.953 187.944C255.395 188.091 254.955 188.325 254.633 188.648C254.339 188.941 254.149 189.367 254.061 189.924C253.885 191.039 253.665 192.153 253.401 193.268C253.195 194.295 253.034 195.145 252.917 195.82C252.887 196.055 252.873 196.363 252.873 196.744C252.873 197.096 252.873 197.345 252.873 197.492C253.342 197.58 253.826 197.624 254.325 197.624C255.293 197.624 256.481 197.433 257.889 197.052C260.47 196.436 263.066 195.776 265.677 195.072L270.517 193.84C272.042 193.459 273.245 193.121 274.125 192.828C276.031 192.3 277.41 191.933 278.261 191.728C278.613 191.669 278.877 191.64 279.053 191.64C279.786 191.64 280.27 191.933 280.505 192.52C280.593 192.725 280.637 192.931 280.637 193.136C280.637 193.488 280.519 193.825 280.285 194.148C280.05 194.471 279.727 194.735 279.317 194.94C278.759 195.175 277.997 195.424 277.029 195.688C274.213 196.509 271.719 197.287 269.549 198.02C265.325 199.369 262.186 200.323 260.133 200.88C259.311 201.115 258.079 201.32 256.437 201.496L254.809 201.716C253.811 201.833 252.917 201.496 252.125 200.704L251.333 199.912C250.365 199.003 249.617 198.211 249.089 197.536C248.707 197.037 248.546 196.348 248.605 195.468C248.693 194.441 248.883 192.872 249.177 190.76L249.353 189.352L249.485 188.032C248.605 187.768 247.915 187.445 247.417 187.064C246.947 186.653 246.698 186.008 246.669 185.128C247.607 185.011 248.311 184.952 248.781 184.952C249.309 184.923 249.734 184.791 250.057 184.556C250.379 184.321 250.629 183.94 250.805 183.412C251.127 182.356 251.67 180.801 252.433 178.748C252.667 177.985 252.961 177.135 253.313 176.196C253.459 175.727 253.562 175.14 253.621 174.436C253.621 173.908 253.738 173.497 253.973 173.204C254.237 172.881 254.647 172.632 255.205 172.456C257.874 171.635 261.35 171.004 265.633 170.564C267.041 170.417 268.434 170.373 269.813 170.432C271.749 170.432 273.186 171.165 274.125 172.632C274.389 172.984 274.521 173.453 274.521 174.04C274.521 174.304 274.491 174.495 274.433 174.612C274.257 175.023 273.993 175.375 273.641 175.668C273.318 175.932 272.907 176.064 272.409 176.064L270.693 176.108C269.871 176.167 269.27 176.196 268.889 176.196C268.067 176.196 267.51 176.049 267.217 175.756C266.806 175.345 266.293 175.14 265.677 175.14C265.501 175.14 265.207 175.169 264.797 175.228L260.441 176.24L258.681 176.68L256.173 183.192ZM303.736 184.82C303.824 183.617 303.912 182.517 304 181.52C304.088 180.493 304.176 179.569 304.264 178.748L304.616 175.228C302.328 175.58 299.894 176.255 297.312 177.252C296.696 177.487 296.124 177.604 295.596 177.604C294.804 177.604 294.071 177.384 293.396 176.944C292.751 176.504 292.238 175.859 291.856 175.008C292.032 174.363 292.355 173.879 292.824 173.556C293.323 173.233 293.998 172.911 294.848 172.588C298.926 171.092 303.59 170.359 308.84 170.388C311.334 170.388 313.93 170.491 316.628 170.696C319.356 170.901 320.955 171.019 321.424 171.048L324.504 171.268C324.622 171.268 324.812 171.268 325.076 171.268C325.37 171.268 325.604 171.341 325.78 171.488C325.956 171.605 326.044 171.811 326.044 172.104C326.044 172.837 325.516 173.263 324.46 173.38C321.82 173.673 319.943 173.879 318.828 173.996C317.684 174.055 316.819 174.113 316.232 174.172C313.944 174.319 312.228 174.436 311.084 174.524C310.38 174.583 309.896 174.671 309.632 174.788C309.368 174.876 309.192 175.052 309.104 175.316C309.046 175.551 308.987 176.064 308.928 176.856C308.782 178.704 308.474 181.887 308.004 186.404C307.535 190.481 307.242 193.297 307.124 194.852C307.095 195.703 306.904 196.729 306.552 197.932C306.318 198.695 306.127 199.208 305.98 199.472C305.834 199.707 305.614 199.853 305.32 199.912C305.056 199.971 304.543 199.985 303.78 199.956C303.223 199.956 302.783 199.839 302.46 199.604C302.167 199.34 302.02 198.988 302.02 198.548C302.02 198.46 302.05 198.269 302.108 197.976C302.754 195.424 303.296 191.039 303.736 184.82ZM326.209 193.62C326.678 191.625 327.045 190.129 327.309 189.132L328.233 185.348C328.145 185.231 327.969 185.04 327.705 184.776C327.441 184.483 327.221 184.204 327.045 183.94C326.869 183.676 326.781 183.456 326.781 183.28C326.781 183.075 326.884 182.884 327.089 182.708C327.324 182.532 327.676 182.312 328.145 182.048C329.494 181.344 330.36 180.185 330.741 178.572L332.721 170.124C332.809 169.772 332.926 169.508 333.073 169.332C333.22 169.127 333.469 169.039 333.821 169.068C335.17 169.156 336.241 169.596 337.033 170.388C337.825 171.151 338.221 172.045 338.221 173.072C338.221 173.512 338.133 173.981 337.957 174.48C337.605 175.389 337.253 176.607 336.901 178.132L336.461 179.892L337.429 180.024C337.928 180.112 338.368 180.156 338.749 180.156L341.785 180.024C343.134 179.965 344.146 179.936 344.821 179.936C345.701 179.907 346.273 179.452 346.537 178.572L347.989 173.336C348.048 173.131 348.238 172.544 348.561 171.576C349.94 171.605 351.04 172.045 351.861 172.896C352.712 173.747 353.137 174.773 353.137 175.976C353.137 176.387 353.064 176.856 352.917 177.384C350.893 184.395 348.458 190.907 345.613 196.92C345.114 198.005 344.293 199.384 343.149 201.056L342.137 202.64C341.726 203.315 341.242 203.652 340.685 203.652C340.568 203.652 340.392 203.623 340.157 203.564C339.541 203.359 339.057 203.124 338.705 202.86C338.382 202.625 338.236 202.259 338.265 201.76C338.324 200.851 338.397 200.103 338.485 199.516C338.573 198.929 338.72 198.357 338.925 197.8C339.306 196.861 340.128 194.881 341.389 191.86C341.624 191.332 341.902 190.716 342.225 190.012C342.548 189.279 342.885 188.457 343.237 187.548C343.384 187.225 343.574 186.565 343.809 185.568C343.838 185.333 343.912 184.981 344.029 184.512C343.53 184.571 342.812 184.629 341.873 184.688L339.277 184.952C339.042 184.981 338.617 185.055 338.001 185.172C337.238 185.377 336.52 185.495 335.845 185.524C334.936 185.641 334.32 186.155 333.997 187.064C333.44 188.707 332.574 191.171 331.401 194.456C331.313 194.72 331.166 195.145 330.961 195.732C330.756 196.319 330.521 196.832 330.257 197.272C329.993 197.712 329.67 198.079 329.289 198.372C328.028 198.02 327.162 197.653 326.693 197.272C326.224 196.861 325.989 196.245 325.989 195.424C325.989 195.013 326.062 194.412 326.209 193.62ZM383.048 195.776C383.136 196.069 383.18 196.348 383.18 196.612C383.18 197.081 383.033 197.463 382.74 197.756C382.476 198.02 382.109 198.152 381.64 198.152C381.464 198.152 381.317 198.137 381.2 198.108C379.88 197.815 378.839 197.492 378.076 197.14C377.489 196.876 376.404 196.216 374.82 195.16C373.617 194.368 372.62 193.752 371.828 193.312C370.801 192.755 369.701 192.373 368.528 192.168C368 192.08 366.753 191.933 364.788 191.728C363.908 191.669 363.263 191.611 362.852 191.552L362.06 198.064L362.104 198.768C362.104 199.824 361.972 200.528 361.708 200.88C361.473 201.232 360.975 201.408 360.212 201.408C359.42 201.408 358.731 201.159 358.144 200.66C357.557 200.161 357.264 199.545 357.264 198.812C357.264 196.583 357.381 194.603 357.616 192.872C358.437 187.563 360.329 182.048 363.292 176.328C364.964 173.131 367.531 170.667 370.992 168.936C372.107 168.379 373.236 168.1 374.38 168.1C375.553 168.1 376.639 168.408 377.636 169.024C378.663 169.611 379.513 170.476 380.188 171.62C380.804 172.647 381.112 173.644 381.112 174.612C381.112 175.961 380.584 177.325 379.528 178.704C378.267 180.347 376.477 182.679 374.16 185.7L371.3 189.396C371.329 189.396 371.359 189.44 371.388 189.528C371.447 189.587 371.505 189.645 371.564 189.704L372.532 190.232C374.967 191.552 376.756 192.593 377.9 193.356C379.015 194.031 380.203 194.368 381.464 194.368C381.845 194.368 382.139 194.353 382.344 194.324C382.432 194.471 382.549 194.691 382.696 194.984C382.843 195.277 382.96 195.541 383.048 195.776ZM366.768 187.064C367.971 185.715 369.173 184.307 370.376 182.84C371.608 181.373 372.693 179.995 373.632 178.704C374.013 178.176 374.336 177.619 374.6 177.032C374.864 176.416 375.099 175.8 375.304 175.184C375.539 174.568 375.7 174.128 375.788 173.864C375.817 173.776 375.832 173.629 375.832 173.424C375.832 173.189 375.803 172.896 375.744 172.544C375.685 172.192 375.641 171.943 375.612 171.796C373.471 172.441 371.52 173.761 369.76 175.756C368 177.751 366.607 179.965 365.58 182.4C364.583 184.835 364.069 186.932 364.04 188.692C364.627 188.751 365.081 188.648 365.404 188.384C365.756 188.12 366.211 187.68 366.768 187.064ZM399.48 183.632C399.48 183.749 399.495 183.881 399.524 184.028C399.553 184.145 399.583 184.263 399.612 184.38C399.847 184.409 400.199 184.424 400.668 184.424C402.721 184.424 404.833 183.984 407.004 183.104C407.62 182.869 408.133 182.752 408.544 182.752C409.365 182.752 410.04 183.133 410.568 183.896C410.832 184.307 410.964 184.659 410.964 184.952C410.964 185.304 410.773 185.671 410.392 186.052C409.219 187.137 407.972 187.753 406.652 187.9C405.479 188.047 403.719 188.296 401.372 188.648L398.292 189.088C397.823 190.115 397.588 191.112 397.588 192.08C397.588 193.488 398.072 194.661 399.04 195.6C400.037 196.509 401.387 196.993 403.088 197.052C404.819 197.081 407.033 196.964 409.732 196.7L410.392 196.656C411.125 196.656 411.727 196.832 412.196 197.184C412.695 197.507 413.164 198.093 413.604 198.944C413.281 199.648 412.827 200.117 412.24 200.352C411.653 200.616 410.891 200.807 409.952 200.924C408.984 201.041 407.884 201.1 406.652 201.1C403.983 201.1 401.577 200.675 399.436 199.824C395.652 198.357 393.232 195.82 392.176 192.212C392.029 191.713 391.956 191.185 391.956 190.628C391.956 190.041 391.956 189.689 391.956 189.572C391.956 188.575 391.472 187.841 390.504 187.372C389.712 186.932 389.096 186.507 388.656 186.096C388.245 185.685 387.981 185.069 387.864 184.248L392.836 183.94L395.08 177.472C395.139 177.267 395.197 177.017 395.256 176.724C395.344 176.401 395.432 176.152 395.52 175.976C395.784 175.389 395.916 174.905 395.916 174.524C395.916 173.937 395.637 173.424 395.08 172.984C394.875 172.837 394.699 172.573 394.552 172.192C394.435 171.781 394.317 171.459 394.2 171.224L395.168 170.916C395.637 170.799 395.975 170.696 396.18 170.608C396.297 170.549 396.547 170.447 396.928 170.3C397.309 170.124 397.529 169.933 397.588 169.728C397.793 169.229 398.043 168.892 398.336 168.716C398.659 168.54 399.04 168.452 399.48 168.452C399.773 168.452 400.213 168.481 400.8 168.54C400.976 168.54 401.152 168.584 401.328 168.672C401.533 168.731 401.695 168.819 401.812 168.936C402.487 169.64 403.235 170.109 404.056 170.344C404.877 170.579 405.845 170.696 406.96 170.696H408.852H412.548C415.041 170.696 416.904 170.725 418.136 170.784C418.781 170.813 419.603 171.092 420.6 171.62C420.776 171.708 420.908 171.884 420.996 172.148C421.113 172.383 421.172 172.617 421.172 172.852C421.172 172.969 421.069 173.116 420.864 173.292C420.659 173.439 420.468 173.541 420.292 173.6C418.297 174.128 416.787 174.436 415.76 174.524C414.176 174.671 411.8 174.861 408.632 175.096C407.899 175.125 406.725 175.199 405.112 175.316C404.995 175.316 404.789 175.287 404.496 175.228C404.203 175.14 403.983 175.096 403.836 175.096C402.751 175.096 402.061 175.551 401.768 176.46C400.976 178.807 400.228 181.139 399.524 183.456L399.48 183.632ZM431.786 183.192L433.37 182.972C434.514 182.796 435.291 182.693 435.702 182.664L436.758 182.576C437.11 182.547 437.55 182.517 438.078 182.488C438.606 182.459 439.207 182.444 439.882 182.444C440.527 182.444 440.997 182.459 441.29 182.488C442.317 182.576 443.065 182.913 443.534 183.5C444.033 184.087 444.326 184.967 444.414 186.14C444.297 186.14 444.121 186.125 443.886 186.096C443.651 186.067 443.461 186.037 443.314 186.008C442.493 185.861 441.745 185.788 441.07 185.788C440.278 185.788 439.515 185.891 438.782 186.096C436.905 186.683 434.499 187.299 431.566 187.944C431.009 188.091 430.569 188.325 430.246 188.648C429.953 188.941 429.762 189.367 429.674 189.924C429.498 191.039 429.278 192.153 429.014 193.268C428.809 194.295 428.647 195.145 428.53 195.82C428.501 196.055 428.486 196.363 428.486 196.744C428.486 197.096 428.486 197.345 428.486 197.492C428.955 197.58 429.439 197.624 429.938 197.624C430.906 197.624 432.094 197.433 433.502 197.052C436.083 196.436 438.679 195.776 441.29 195.072L446.13 193.84C447.655 193.459 448.858 193.121 449.738 192.828C451.645 192.3 453.023 191.933 453.874 191.728C454.226 191.669 454.49 191.64 454.666 191.64C455.399 191.64 455.883 191.933 456.118 192.52C456.206 192.725 456.25 192.931 456.25 193.136C456.25 193.488 456.133 193.825 455.898 194.148C455.663 194.471 455.341 194.735 454.93 194.94C454.373 195.175 453.61 195.424 452.642 195.688C449.826 196.509 447.333 197.287 445.162 198.02C440.938 199.369 437.799 200.323 435.746 200.88C434.925 201.115 433.693 201.32 432.05 201.496L430.422 201.716C429.425 201.833 428.53 201.496 427.738 200.704L426.946 199.912C425.978 199.003 425.23 198.211 424.702 197.536C424.321 197.037 424.159 196.348 424.218 195.468C424.306 194.441 424.497 192.872 424.79 190.76L424.966 189.352L425.098 188.032C424.218 187.768 423.529 187.445 423.03 187.064C422.561 186.653 422.311 186.008 422.282 185.128C423.221 185.011 423.925 184.952 424.394 184.952C424.922 184.923 425.347 184.791 425.67 184.556C425.993 184.321 426.242 183.94 426.418 183.412C426.741 182.356 427.283 180.801 428.046 178.748C428.281 177.985 428.574 177.135 428.926 176.196C429.073 175.727 429.175 175.14 429.234 174.436C429.234 173.908 429.351 173.497 429.586 173.204C429.85 172.881 430.261 172.632 430.818 172.456C433.487 171.635 436.963 171.004 441.246 170.564C442.654 170.417 444.047 170.373 445.426 170.432C447.362 170.432 448.799 171.165 449.738 172.632C450.002 172.984 450.134 173.453 450.134 174.04C450.134 174.304 450.105 174.495 450.046 174.612C449.87 175.023 449.606 175.375 449.254 175.668C448.931 175.932 448.521 176.064 448.022 176.064L446.306 176.108C445.485 176.167 444.883 176.196 444.502 176.196C443.681 176.196 443.123 176.049 442.83 175.756C442.419 175.345 441.906 175.14 441.29 175.14C441.114 175.14 440.821 175.169 440.41 175.228L436.054 176.24L434.294 176.68L431.786 183.192Z" fill="white"></path> <path d="M371.697 100.8C371.964 101.067 368.63 98.1333 361.697 92C356.897 87.7333 353.297 84.6667 350.897 82.8C351.964 75.6 354.63 70.5333 358.897 67.6C363.164 64.6666 368.764 62.4 375.697 60.8C382.897 58.9333 390.63 58 398.897 58C406.897 58 415.03 58.8 423.297 60.4C447.03 64.6666 467.964 69.6 486.097 75.2C504.23 80.8 521.164 88.6666 536.897 98.8C547.83 105.467 557.03 113.333 564.497 122.4C575.43 136.533 580.897 150.933 580.897 165.6C580.897 178.133 576.764 191.067 568.497 204.4C537.03 254.267 504.63 293.6 471.297 322.4C451.03 340.267 428.63 354.933 404.097 366.4C395.03 370.933 385.564 373.2 375.697 373.2C363.964 373.2 352.63 369.867 341.697 363.2C337.697 360.533 334.63 357.733 332.497 354.8C330.364 352.133 329.297 348.933 329.297 345.2L329.697 341.6L332.497 320.8C335.697 296.267 338.63 278 341.297 266L343.297 257.2C351.297 222.533 357.297 194.667 361.297 173.6C365.297 152.267 368.23 130.4 370.097 108L371.697 100.8ZM424.497 96C421.297 95.7333 417.03 96 411.697 96.8L402.897 98C409.297 103.333 413.964 108 416.897 112C419.83 116 421.297 120.267 421.297 124.8C421.297 125.867 421.03 127.733 420.497 130.4C417.03 145.867 412.364 164.933 406.497 187.6L392.097 245.2C385.697 271.333 380.097 295.6 375.297 318C374.497 320.933 373.964 324.267 373.697 328C373.697 331.467 373.697 334 373.697 335.6C376.097 336.667 377.43 337.2 377.697 337.2L382.897 335.2C422.897 315.733 457.03 288.533 485.297 253.6C496.764 238.933 506.364 225.067 514.097 212C522.097 198.933 528.097 185.2 532.097 170.8C533.164 167.333 533.697 163.2 533.697 158.4C533.697 150.133 531.564 142.667 527.297 136C523.297 129.333 517.697 124.267 510.497 120.8C483.83 108.8 455.164 100.533 424.497 96Z" fill="white" fill-opacity="0.1"></path> </g> <defs> <clipPath id="clip0_1319_283"> <rect width="600" height="400" rx="20" fill="white"></rect> </clipPath> </defs> </svg> 