<svg width="18" height="10" viewBox="0 0 18 10" fill="none" xmlns="http://www.w3.org/2000/svg">
<path d="M8.20483 0.236172L0.207972 8.72219C0.0744727 8.86378 0 9.0519 0 9.24752C0 9.44314 0.0744727 9.63126 0.207972 9.77285L0.217008 9.78199C0.281725 9.85087 0.359625 9.90571 0.445969 9.94319C0.532312 9.98067 0.625294 10 0.719258 10C0.813222 10 0.906204 9.98067 0.992548 9.94319C1.07889 9.90571 1.15679 9.85087 1.22151 9.78199L8.7515 1.79085L16.2785 9.78199C16.3432 9.85087 16.4211 9.90571 16.5075 9.94319C16.5938 9.98067 16.6868 10 16.7807 10C16.8747 10 16.9677 9.98067 17.054 9.94319C17.1404 9.90571 17.2183 9.85087 17.283 9.78199L17.292 9.77285C17.4255 9.63126 17.5 9.44314 17.5 9.24752C17.5 9.0519 17.4255 8.86378 17.292 8.72219L9.29517 0.236172C9.22484 0.16154 9.14026 0.102126 9.04655 0.0615295C8.95284 0.0209332 8.85195 0 8.75 0C8.64805 0 8.54716 0.0209332 8.45345 0.0615295C8.35973 0.102126 8.27515 0.16154 8.20483 0.236172Z" fill="black"/>
</svg>
