<svg width="40" height="40" viewBox="0 0 40 40" fill="none" xmlns="http://www.w3.org/2000/svg">
<circle cx="20" cy="20" r="20" fill="#191919"/>
<path d="M25.6316 27L24.4526 25.8471L25.7789 24.5294H22.2632V22.8824H25.7789L24.4526 21.5647L25.6316 20.4118L29 23.7059L25.6316 27ZM13 27V13H26.4737V18.8265C26.3333 18.799 26.193 18.782 26.0526 18.7754C25.9123 18.7688 25.7719 18.7653 25.6316 18.7647C24.214 18.7647 23.0177 19.2451 22.0425 20.2059C21.0674 21.1667 20.5795 22.3333 20.5789 23.7059C20.5789 23.8431 20.5826 23.9804 20.5899 24.1176C20.5972 24.2549 20.6146 24.3922 20.6421 24.5294H15.5263L13 27Z" fill="white"/>
</svg>
