<svg width="24" height="16" viewBox="0 0 24 16" fill="none" xmlns="http://www.w3.org/2000/svg">
<path d="M11.7333 4.8C10.8846 4.8 10.0707 5.13714 9.47059 5.73726C8.87047 6.33737 8.53333 7.15131 8.53333 8C8.53333 8.84869 8.87047 9.66263 9.47059 10.2627C10.0707 10.8629 10.8846 11.2 11.7333 11.2C12.582 11.2 13.396 10.8629 13.9961 10.2627C14.5962 9.66263 14.9333 8.84869 14.9333 8C14.9333 7.15131 14.5962 6.33737 13.9961 5.73726C13.396 5.13714 12.582 4.8 11.7333 4.8ZM11.7333 13.3333C10.3188 13.3333 8.96229 12.7714 7.9621 11.7712C6.9619 10.771 6.4 9.41449 6.4 8C6.4 6.58551 6.9619 5.22896 7.9621 4.22876C8.96229 3.22857 10.3188 2.66667 11.7333 2.66667C13.1478 2.66667 14.5044 3.22857 15.5046 4.22876C16.5048 5.22896 17.0667 6.58551 17.0667 8C17.0667 9.41449 16.5048 10.771 15.5046 11.7712C14.5044 12.7714 13.1478 13.3333 11.7333 13.3333ZM11.7333 0C6.4 0 1.84533 3.31733 0 8C1.84533 12.6827 6.4 16 11.7333 16C17.0667 16 21.6213 12.6827 23.4667 8C21.6213 3.31733 17.0667 0 11.7333 0Z" fill="#3F28C6"/>
</svg>
