<svg width="80" height="100" viewBox="0 0 80 100" fill="none" xmlns="http://www.w3.org/2000/svg">
<path fill-rule="evenodd" clip-rule="evenodd" d="M42.6409 97.4512L42.592 97.4603L42.2765 97.6208L42.1876 97.6391L42.1253 97.6208L41.8098 97.4603C41.7624 97.4451 41.7268 97.4527 41.7031 97.4833L41.6853 97.5291L41.6098 99.4911L41.632 99.5828L41.6765 99.6424L42.1387 99.9817L42.2053 100L42.2587 99.9817L42.7209 99.6424L42.7742 99.5691L42.792 99.4911L42.7165 97.5337C42.7046 97.4848 42.6794 97.4573 42.6409 97.4512ZM43.8187 96.9332L43.7609 96.9423L42.9387 97.3687L42.8942 97.4145L42.8809 97.4649L42.9609 99.4361L42.9831 99.4911L43.0187 99.5232L43.912 99.9496C43.9683 99.9649 44.0113 99.9526 44.0409 99.9129L44.0587 99.8487L43.9076 97.034C43.8928 96.979 43.8631 96.9454 43.8187 96.9332ZM40.6409 96.9423C40.6213 96.9301 40.5979 96.9261 40.5755 96.9312C40.5532 96.9364 40.5336 96.9502 40.5209 96.9698L40.4942 97.034L40.3431 99.8487C40.3461 99.9037 40.3713 99.9404 40.4187 99.9587L40.4853 99.9496L41.3787 99.5232L41.4231 99.4866L41.4409 99.4361L41.5165 97.4649L41.5031 97.4099L41.4587 97.3641L40.6409 96.9423Z" fill="white"/>
<path fill-rule="evenodd" clip-rule="evenodd" d="M13.3333 27.5053C13.3333 20.2104 16.1429 13.2143 21.1438 8.05611C26.1448 2.89787 32.9276 0 40 0C47.0724 0 53.8552 2.89787 58.8562 8.05611C63.8572 13.2143 66.6667 20.2104 66.6667 27.5053H71.1111C73.4686 27.5053 75.7295 28.4712 77.3965 30.1907C79.0635 31.9101 80 34.2421 80 36.6737V82.5158C80 84.9475 79.0635 87.2795 77.3965 88.9989C75.7295 90.7183 73.4686 91.6843 71.1111 91.6843H8.88889C6.53141 91.6843 4.27048 90.7183 2.60349 88.9989C0.936505 87.2795 0 84.9475 0 82.5158V36.6737C0 34.2421 0.936505 31.9101 2.60349 30.1907C4.27048 28.4712 6.53141 27.5053 8.88889 27.5053H13.3333ZM40 9.16843C44.715 9.16843 49.2368 11.1003 52.5708 14.5392C55.9048 17.978 57.7778 22.642 57.7778 27.5053H22.2222C22.2222 22.642 24.0952 17.978 27.4292 14.5392C30.7632 11.1003 35.285 9.16843 40 9.16843ZM48.8889 55.0106C48.8889 56.6199 48.4781 58.2009 47.698 59.5946C46.9178 60.9884 45.7957 62.1457 44.4444 62.9504V68.7632C44.4444 69.979 43.9762 71.145 43.1427 72.0047C42.3092 72.8644 41.1787 73.3474 40 73.3474C38.8213 73.3474 37.6908 72.8644 36.8573 72.0047C36.0238 71.145 35.5556 69.979 35.5556 68.7632V62.9504C33.8611 61.9412 32.5368 60.3835 31.788 58.5189C31.0393 56.6543 30.908 54.587 31.4144 52.6376C31.9208 50.6881 33.0367 48.9655 34.589 47.7369C36.1413 46.5082 38.0433 45.8422 40 45.8421C42.3575 45.8421 44.6184 46.8081 46.2854 48.5275C47.9524 50.2469 48.8889 52.5789 48.8889 55.0106Z" fill="white" fill-opacity="0.7"/>
</svg>
