<svg width="107" height="50" viewBox="0 0 107 50" fill="none" xmlns="http://www.w3.org/2000/svg">
<path d="M18.9297 47.6344C42.2183 45.5608 65.5572 45.2373 88.9258 45.2373" stroke="#D2F59B" stroke-width="3" stroke-linecap="square"/>
<path d="M2.0418 29.966V25.954L12.3098 16.842C13.0805 16.162 13.6245 15.5217 13.9418 14.921C14.2591 14.3203 14.4178 13.7593 14.4178 13.238C14.4178 12.49 14.2648 11.827 13.9588 11.249C13.6528 10.6597 13.2221 10.2007 12.6668 9.872C12.1115 9.532 11.4598 9.362 10.7118 9.362C9.9298 9.362 9.23846 9.54333 8.6378 9.906C8.04846 10.2573 7.58946 10.7277 7.2608 11.317C6.93213 11.895 6.77913 12.524 6.8018 13.204H2.0418C2.0418 11.5267 2.41013 10.076 3.1468 8.852C3.88346 7.628 4.90913 6.68167 6.2238 6.013C7.53846 5.34433 9.06846 5.01 10.8138 5.01C12.4118 5.01 13.8398 5.36133 15.0978 6.064C16.3671 6.75533 17.3645 7.72433 18.0898 8.971C18.8151 10.2177 19.1778 11.6627 19.1778 13.306C19.1778 14.5187 19.0078 15.5273 18.6678 16.332C18.3278 17.1253 17.8235 17.862 17.1548 18.542C16.4861 19.2107 15.6645 19.97 14.6898 20.82L8.0598 26.634L7.6858 25.614H19.1778V29.966H2.0418ZM23.2413 30V5.52H39.2213V9.838H27.8653V15.074H37.1813V19.392H27.8653V25.682H39.2213V30H23.2413ZM41.596 30L49.076 5.52H55.978L63.458 30H58.698L52.034 8.41H52.918L46.356 30H41.596ZM46.084 24.9V20.582H59.004V24.9H46.084ZM75.0889 30.51C73.2756 30.51 71.6379 30.1927 70.1759 29.558C68.7253 28.912 67.5296 27.994 66.5889 26.804C65.6596 25.6027 65.0703 24.1747 64.8209 22.52L69.6489 21.806C69.9889 23.2113 70.6916 24.2937 71.7569 25.053C72.8223 25.8123 74.0349 26.192 75.3949 26.192C76.1543 26.192 76.8909 26.073 77.6049 25.835C78.3189 25.597 78.9026 25.2457 79.3559 24.781C79.8206 24.3163 80.0529 23.744 80.0529 23.064C80.0529 22.8147 80.0133 22.5767 79.9339 22.35C79.8659 22.112 79.7469 21.891 79.5769 21.687C79.4069 21.483 79.1633 21.2903 78.8459 21.109C78.5399 20.9277 78.1489 20.7633 77.6729 20.616L71.3149 18.746C70.8389 18.61 70.2836 18.4173 69.6489 18.168C69.0256 17.9187 68.4193 17.5617 67.8299 17.097C67.2406 16.6323 66.7476 16.0203 66.3509 15.261C65.9656 14.4903 65.7729 13.5213 65.7729 12.354C65.7729 10.7107 66.1866 9.345 67.0139 8.257C67.8413 7.169 68.9463 6.35867 70.3289 5.826C71.7116 5.29333 73.2416 5.03267 74.9189 5.044C76.6076 5.06667 78.1149 5.35567 79.4409 5.911C80.7669 6.46633 81.8776 7.27667 82.7729 8.342C83.6683 9.396 84.3143 10.688 84.7109 12.218L79.7129 13.068C79.5316 12.2747 79.1973 11.606 78.7099 11.062C78.2226 10.518 77.6389 10.1043 76.9589 9.821C76.2903 9.53767 75.5876 9.38467 74.8509 9.362C74.1256 9.33933 73.4399 9.44133 72.7939 9.668C72.1593 9.88333 71.6379 10.2007 71.2299 10.62C70.8333 11.0393 70.6349 11.538 70.6349 12.116C70.6349 12.6487 70.7993 13.085 71.1279 13.425C71.4566 13.7537 71.8703 14.02 72.3689 14.224C72.8676 14.428 73.3776 14.598 73.8989 14.734L78.1489 15.89C78.7836 16.06 79.4863 16.2867 80.2569 16.57C81.0276 16.842 81.7643 17.2273 82.4669 17.726C83.1809 18.2133 83.7646 18.8593 84.2179 19.664C84.6826 20.4687 84.9149 21.4887 84.9149 22.724C84.9149 24.0387 84.6373 25.189 84.0819 26.175C83.5379 27.1497 82.8013 27.96 81.8719 28.606C80.9426 29.2407 79.8886 29.7167 78.7099 30.034C77.5426 30.3513 76.3356 30.51 75.0889 30.51ZM93.6062 30V20.038L85.2422 5.52H90.6482L95.9522 14.734L101.256 5.52H106.662L98.2982 20.038V30H93.6062Z" fill="#3F28C6"/>
<path d="M19.9755 46V35.92H21.0045V46H19.9755ZM28.563 46V42.143C28.563 41.723 28.5234 41.338 28.444 40.988C28.3647 40.6333 28.2364 40.3253 28.059 40.064C27.8864 39.798 27.66 39.5927 27.38 39.448C27.1047 39.3033 26.7687 39.231 26.372 39.231C26.008 39.231 25.686 39.294 25.406 39.42C25.1307 39.546 24.8974 39.728 24.706 39.966C24.5194 40.1993 24.377 40.484 24.279 40.82C24.181 41.156 24.132 41.5387 24.132 41.968L23.404 41.807C23.404 41.0323 23.5394 40.3813 23.81 39.854C24.0807 39.3267 24.454 38.9277 24.93 38.657C25.406 38.3863 25.952 38.251 26.568 38.251C27.0207 38.251 27.415 38.321 27.751 38.461C28.0917 38.601 28.3787 38.79 28.612 39.028C28.85 39.266 29.0414 39.539 29.186 39.847C29.3307 40.1503 29.4357 40.4747 29.501 40.82C29.5664 41.1607 29.599 41.5013 29.599 41.842V46H28.563ZM23.096 46V38.44H24.027V40.302H24.132V46H23.096ZM35.5315 46C35.1069 46.0887 34.6869 46.1237 34.2715 46.105C33.8609 46.0863 33.4922 45.9977 33.1655 45.839C32.8435 45.6803 32.5985 45.433 32.4305 45.097C32.2952 44.817 32.2205 44.5347 32.2065 44.25C32.1972 43.9607 32.1925 43.6317 32.1925 43.263V36.34H33.2145V43.221C33.2145 43.5383 33.2169 43.8043 33.2215 44.019C33.2309 44.229 33.2799 44.4157 33.3685 44.579C33.5365 44.8917 33.8025 45.0783 34.1665 45.139C34.5352 45.1997 34.9902 45.1857 35.5315 45.097V46ZM30.5755 39.322V38.44H35.5315V39.322H30.5755ZM39.9466 46.21C39.2092 46.21 38.5699 46.0467 38.0286 45.72C37.4919 45.3933 37.0742 44.9337 36.7756 44.341C36.4769 43.7483 36.3276 43.053 36.3276 42.255C36.3276 41.429 36.4746 40.715 36.7686 40.113C37.0626 39.511 37.4756 39.0467 38.0076 38.72C38.5442 38.3933 39.1766 38.23 39.9046 38.23C40.6512 38.23 41.2882 38.4027 41.8156 38.748C42.3429 39.0887 42.7419 39.5787 43.0126 40.218C43.2832 40.8573 43.4069 41.6203 43.3836 42.507H42.3336V42.143C42.3149 41.163 42.1026 40.4233 41.6966 39.924C41.2952 39.4247 40.7072 39.175 39.9326 39.175C39.1206 39.175 38.4976 39.4387 38.0636 39.966C37.6342 40.4933 37.4196 41.2447 37.4196 42.22C37.4196 43.172 37.6342 43.9117 38.0636 44.439C38.4976 44.9617 39.1112 45.223 39.9046 45.223C40.4459 45.223 40.9172 45.0993 41.3186 44.852C41.7246 44.6 42.0442 44.2383 42.2776 43.767L43.2366 44.138C42.9379 44.796 42.4969 45.307 41.9136 45.671C41.3349 46.0303 40.6792 46.21 39.9466 46.21ZM37.0556 42.507V41.646H42.8306V42.507H37.0556ZM44.937 46V38.44H45.861V40.26L45.679 40.022C45.763 39.798 45.8727 39.5927 46.008 39.406C46.1434 39.2147 46.2904 39.0583 46.449 38.937C46.645 38.7643 46.8737 38.6337 47.135 38.545C47.3964 38.4517 47.66 38.398 47.926 38.384C48.192 38.3653 48.4347 38.384 48.654 38.44V39.406C48.3787 39.336 48.0777 39.3197 47.751 39.357C47.4244 39.3943 47.1234 39.525 46.848 39.749C46.596 39.945 46.407 40.1807 46.281 40.456C46.155 40.7267 46.071 41.016 46.029 41.324C45.987 41.6273 45.966 41.9283 45.966 42.227V46H44.937ZM51.8578 46.21C51.2885 46.21 50.8102 46.1073 50.4228 45.902C50.0402 45.6967 49.7532 45.4237 49.5618 45.083C49.3705 44.7423 49.2748 44.3713 49.2748 43.97C49.2748 43.5593 49.3565 43.2093 49.5198 42.92C49.6878 42.626 49.9142 42.3857 50.1988 42.199C50.4882 42.0123 50.8218 41.87 51.1998 41.772C51.5825 41.6787 52.0048 41.597 52.4668 41.527C52.9335 41.4523 53.3885 41.3893 53.8318 41.338C54.2798 41.282 54.6718 41.2283 55.0078 41.177L54.6438 41.401C54.6578 40.6543 54.5132 40.1013 54.2098 39.742C53.9065 39.3827 53.3792 39.203 52.6278 39.203C52.1098 39.203 51.6712 39.3197 51.3118 39.553C50.9572 39.7863 50.7075 40.155 50.5628 40.659L49.5618 40.365C49.7345 39.6883 50.0822 39.1633 50.6048 38.79C51.1275 38.4167 51.8065 38.23 52.6418 38.23C53.3325 38.23 53.9182 38.3607 54.3988 38.622C54.8842 38.8787 55.2272 39.252 55.4278 39.742C55.5212 39.9613 55.5818 40.2063 55.6098 40.477C55.6378 40.7477 55.6518 41.023 55.6518 41.303V46H54.7348V44.103L55.0008 44.215C54.7442 44.8637 54.3452 45.3583 53.8038 45.699C53.2625 46.0397 52.6138 46.21 51.8578 46.21ZM51.9768 45.321C52.4575 45.321 52.8775 45.2347 53.2368 45.062C53.5962 44.8893 53.8855 44.6537 54.1048 44.355C54.3242 44.0517 54.4665 43.711 54.5318 43.333C54.5878 43.0903 54.6182 42.8243 54.6228 42.535C54.6275 42.241 54.6298 42.0217 54.6298 41.877L55.0218 42.08C54.6718 42.1267 54.2915 42.1733 53.8808 42.22C53.4748 42.2667 53.0735 42.3203 52.6768 42.381C52.2848 42.4417 51.9302 42.514 51.6128 42.598C51.3982 42.6587 51.1905 42.745 50.9898 42.857C50.7892 42.9643 50.6235 43.109 50.4928 43.291C50.3668 43.473 50.3038 43.6993 50.3038 43.97C50.3038 44.1893 50.3575 44.4017 50.4648 44.607C50.5768 44.8123 50.7542 44.9827 50.9968 45.118C51.2442 45.2533 51.5708 45.321 51.9768 45.321ZM60.6101 46.21C59.8495 46.21 59.2055 46.0397 58.6781 45.699C58.1508 45.3583 57.7495 44.8893 57.4741 44.292C57.2035 43.69 57.0635 42.9993 57.0541 42.22C57.0635 41.4267 57.2081 40.7313 57.4881 40.134C57.7681 39.532 58.1718 39.0653 58.6991 38.734C59.2265 38.398 59.8658 38.23 60.6171 38.23C61.3825 38.23 62.0475 38.4167 62.6121 38.79C63.1815 39.1633 63.5711 39.6743 63.7811 40.323L62.7731 40.645C62.5958 40.1923 62.3135 39.8423 61.9261 39.595C61.5435 39.343 61.1048 39.217 60.6101 39.217C60.0548 39.217 59.5951 39.3453 59.2311 39.602C58.8671 39.854 58.5965 40.2063 58.4191 40.659C58.2418 41.1117 58.1508 41.632 58.1461 42.22C58.1555 43.1253 58.3655 43.8533 58.7761 44.404C59.1868 44.95 59.7981 45.223 60.6101 45.223C61.1235 45.223 61.5598 45.1063 61.9191 44.873C62.2831 44.635 62.5585 44.2897 62.7451 43.837L63.7811 44.145C63.5011 44.817 63.0905 45.3303 62.5491 45.685C62.0078 46.035 61.3615 46.21 60.6101 46.21ZM69.3421 46C68.9174 46.0887 68.4974 46.1237 68.0821 46.105C67.6714 46.0863 67.3028 45.9977 66.9761 45.839C66.6541 45.6803 66.4091 45.433 66.2411 45.097C66.1058 44.817 66.0311 44.5347 66.0171 44.25C66.0078 43.9607 66.0031 43.6317 66.0031 43.263V36.34H67.0251V43.221C67.0251 43.5383 67.0274 43.8043 67.0321 44.019C67.0414 44.229 67.0904 44.4157 67.1791 44.579C67.3471 44.8917 67.6131 45.0783 67.9771 45.139C68.3458 45.1997 68.8008 45.1857 69.3421 45.097V46ZM64.3861 39.322V38.44H69.3421V39.322H64.3861ZM70.9716 37.005V35.85H72.0006V37.005H70.9716ZM70.9716 46V38.44H72.0006V46H70.9716ZM76.1431 46L73.3991 38.44H74.4421L76.6751 44.656L78.8941 38.44H79.9511L77.2071 46H76.1431ZM84.1341 46.21C83.3967 46.21 82.7574 46.0467 82.2161 45.72C81.6794 45.3933 81.2617 44.9337 80.9631 44.341C80.6644 43.7483 80.5151 43.053 80.5151 42.255C80.5151 41.429 80.6621 40.715 80.9561 40.113C81.2501 39.511 81.6631 39.0467 82.1951 38.72C82.7317 38.3933 83.3641 38.23 84.0921 38.23C84.8387 38.23 85.4757 38.4027 86.0031 38.748C86.5304 39.0887 86.9294 39.5787 87.2001 40.218C87.4707 40.8573 87.5944 41.6203 87.5711 42.507H86.5211V42.143C86.5024 41.163 86.2901 40.4233 85.8841 39.924C85.4827 39.4247 84.8947 39.175 84.1201 39.175C83.3081 39.175 82.6851 39.4387 82.2511 39.966C81.8217 40.4933 81.6071 41.2447 81.6071 42.22C81.6071 43.172 81.8217 43.9117 82.2511 44.439C82.6851 44.9617 83.2987 45.223 84.0921 45.223C84.6334 45.223 85.1047 45.0993 85.5061 44.852C85.9121 44.6 86.2317 44.2383 86.4651 43.767L87.4241 44.138C87.1254 44.796 86.6844 45.307 86.1011 45.671C85.5224 46.0303 84.8667 46.21 84.1341 46.21ZM81.2431 42.507V41.646H87.0181V42.507H81.2431Z" fill="#3F28C6"/>
</svg>
