<svg width="30" height="30" viewBox="0 0 30 30" fill="none" xmlns="http://www.w3.org/2000/svg">
<path d="M13.5 22.5H16.5V13.5H13.5V22.5ZM15 10.5C15.425 10.5 15.7815 10.356 16.0695 10.068C16.3575 9.78 16.501 9.424 16.5 9C16.499 8.576 16.355 8.22 16.068 7.932C15.781 7.644 15.425 7.5 15 7.5C14.575 7.5 14.219 7.644 13.932 7.932C13.645 8.22 13.501 8.576 13.5 9C13.499 9.424 13.643 9.7805 13.932 10.0695C14.221 10.3585 14.577 10.502 15 10.5ZM15 30C12.925 30 10.975 29.606 9.15 28.818C7.325 28.03 5.7375 26.9615 4.3875 25.6125C3.0375 24.2635 1.969 22.676 1.182 20.85C0.395002 19.024 0.0010019 17.074 1.89873e-06 15C-0.000998101 12.926 0.393002 10.976 1.182 9.15C1.971 7.324 3.0395 5.7365 4.3875 4.3875C5.7355 3.0385 7.323 1.97 9.15 1.182C10.977 0.394 12.927 0 15 0C17.073 0 19.023 0.394 20.85 1.182C22.677 1.97 24.2645 3.0385 25.6125 4.3875C26.9605 5.7365 28.0295 7.324 28.8195 9.15C29.6095 10.976 30.003 12.926 30 15C29.997 17.074 29.603 19.024 28.818 20.85C28.033 22.676 26.9645 24.2635 25.6125 25.6125C24.2605 26.9615 22.673 28.0305 20.85 28.8195C19.027 29.6085 17.077 30.002 15 30Z" fill="#8580A1"/>
</svg>
