<svg width="14" height="13" viewBox="0 0 14 13" fill="none" xmlns="http://www.w3.org/2000/svg">
<path d="M11.0526 13L10.0211 11.9294L11.1816 10.7059H8.10526V9.17647H11.1816L10.0211 7.95294L11.0526 6.88235L14 9.94118L11.0526 13ZM0 13V0H11.7895V5.41029C11.6667 5.3848 11.5439 5.369 11.4211 5.36288C11.2982 5.35676 11.1754 5.35345 11.0526 5.35294C9.81228 5.35294 8.76547 5.79902 7.91221 6.69118C7.05895 7.58333 6.63207 8.66667 6.63158 9.94118C6.63158 10.0686 6.63477 10.1961 6.64116 10.3235C6.64754 10.451 6.66277 10.5784 6.68684 10.7059H2.21053L0 13Z" fill="#2D2D2D"/>
</svg>
