<svg width="50" height="50" viewBox="0 0 50 50" fill="none" xmlns="http://www.w3.org/2000/svg">
<circle cx="25" cy="25" r="25" transform="matrix(-1 0 0 1 50 0)" fill="#F9F9F9"/>
<path d="M29.464 34.8857C29.3024 34.9702 29.1207 35.009 28.9386 34.9977C28.7565 34.9864 28.581 34.9255 28.431 34.8217L15.431 25.8217C15.2982 25.7296 15.1896 25.6068 15.1146 25.4636C15.0397 25.3205 15.0005 25.1613 15.0005 24.9997C15.0005 24.8381 15.0397 24.6789 15.1146 24.5357C15.1896 24.3925 15.2982 24.2697 15.431 24.1777L28.431 15.1777C28.581 15.0739 28.7566 15.0131 28.9387 15.0019C29.1208 14.9907 29.3025 15.0295 29.4641 15.1142C29.6257 15.1989 29.761 15.3261 29.8555 15.4822C29.95 15.6383 29.9999 15.8172 30 15.9997V33.9997C30 34.1822 29.9501 34.3613 29.8556 34.5174C29.7611 34.6736 29.6257 34.801 29.464 34.8857Z" fill="#D9D9D9"/>
</svg>
