<?xml version="1.0" encoding="UTF-8"?> <svg xmlns="http://www.w3.org/2000/svg" width="325" height="325" viewBox="0 0 325 325" fill="none"><g clip-path="url(#clip0_1373_947)"><rect width="325" height="325" rx="10" fill="white"></rect><rect width="325" height="325" rx="10" fill="#EE3D48"></rect><path d="M126.001 154V130.96H129.857V154H126.001ZM135.93 154V130.96H149.802V134.816H139.786V140.56H147.882V144.4H139.786V154H135.93ZM150.913 154V150.048H154.865V154H150.913ZM161.911 154V150.048H165.863V154H161.911ZM172.91 154V150.048H176.862V154H172.91ZM183.909 154V150.048H187.861V154H183.909ZM195.867 154V150.464H199.723V154H195.867ZM195.867 148.24V130.96H199.723V148.24H195.867Z" fill="white"></path><path d="M100.661 174.391L100.879 173.812H108.442C109.713 173.812 110.843 174.01 111.832 174.406C112.832 174.802 113.577 175.354 114.067 176.062C114.567 176.771 114.817 177.521 114.817 178.312C114.817 179.531 114.374 180.635 113.489 181.625C112.614 182.604 111.181 183.328 109.192 183.797C110.473 184.276 111.416 184.911 112.02 185.703C112.624 186.495 112.926 187.365 112.926 188.312C112.926 189.365 112.655 190.37 112.114 191.328C111.572 192.286 110.874 193.031 110.02 193.562C109.176 194.094 108.155 194.484 106.957 194.734C106.103 194.911 104.77 195 102.957 195H95.1919L95.395 194.422C96.2075 194.401 96.7596 194.323 97.0512 194.188C97.4679 194.01 97.7648 193.776 97.9419 193.484C98.1919 193.089 98.5252 192.182 98.9419 190.766L102.739 177.938C103.062 176.854 103.223 176.094 103.223 175.656C103.223 175.271 103.077 174.969 102.786 174.75C102.504 174.521 101.963 174.406 101.161 174.406C100.984 174.406 100.817 174.401 100.661 174.391ZM103.832 183.188C104.51 183.208 104.999 183.219 105.301 183.219C107.468 183.219 109.077 182.75 110.129 181.812C111.192 180.865 111.723 179.682 111.723 178.266C111.723 177.193 111.4 176.359 110.754 175.766C110.109 175.161 109.077 174.859 107.661 174.859C107.286 174.859 106.806 174.922 106.223 175.047L103.832 183.188ZM100.754 193.625C101.879 193.771 102.76 193.844 103.395 193.844C105.02 193.844 106.457 193.354 107.707 192.375C108.968 191.396 109.598 190.068 109.598 188.391C109.598 187.109 109.207 186.109 108.426 185.391C107.655 184.672 106.405 184.312 104.676 184.312C104.343 184.312 103.937 184.328 103.457 184.359L100.754 193.625ZM127.726 185.75C127.726 187.312 127.309 188.859 126.476 190.391C125.653 191.922 124.502 193.135 123.022 194.031C121.543 194.927 120.106 195.375 118.71 195.375C117.283 195.375 116.116 194.922 115.21 194.016C114.314 193.099 113.866 191.917 113.866 190.469C113.866 188.938 114.304 187.401 115.179 185.859C116.064 184.318 117.241 183.099 118.71 182.203C120.189 181.307 121.616 180.859 122.991 180.859C124.366 180.859 125.496 181.312 126.382 182.219C127.278 183.125 127.726 184.302 127.726 185.75ZM125.132 184.672C125.132 183.703 124.892 182.964 124.413 182.453C123.944 181.932 123.335 181.672 122.585 181.672C121.054 181.672 119.642 182.771 118.351 184.969C117.069 187.156 116.429 189.333 116.429 191.5C116.429 192.49 116.679 193.255 117.179 193.797C117.679 194.328 118.309 194.594 119.069 194.594C120.538 194.594 121.913 193.505 123.194 191.328C124.486 189.141 125.132 186.922 125.132 184.672ZM141.384 180.859L138.337 191.453L137.994 192.875C137.962 193.01 137.947 193.125 137.947 193.219C137.947 193.385 137.999 193.531 138.103 193.656C138.186 193.75 138.291 193.797 138.416 193.797C138.551 193.797 138.728 193.714 138.947 193.547C139.353 193.245 139.895 192.62 140.572 191.672L141.103 192.047C140.384 193.13 139.645 193.958 138.884 194.531C138.124 195.094 137.421 195.375 136.775 195.375C136.327 195.375 135.989 195.26 135.759 195.031C135.541 194.812 135.431 194.49 135.431 194.062C135.431 193.552 135.546 192.88 135.775 192.047L136.103 190.875C134.739 192.656 133.483 193.901 132.337 194.609C131.515 195.12 130.707 195.375 129.916 195.375C129.155 195.375 128.499 195.062 127.947 194.438C127.395 193.802 127.119 192.932 127.119 191.828C127.119 190.172 127.614 188.427 128.603 186.594C129.603 184.75 130.869 183.276 132.4 182.172C133.598 181.297 134.728 180.859 135.791 180.859C136.426 180.859 136.952 181.026 137.369 181.359C137.796 181.693 138.119 182.245 138.337 183.016L138.9 181.234L141.384 180.859ZM135.822 181.672C135.155 181.672 134.447 181.984 133.697 182.609C132.634 183.495 131.686 184.807 130.853 186.547C130.03 188.286 129.619 189.859 129.619 191.266C129.619 191.974 129.796 192.536 130.15 192.953C130.504 193.359 130.91 193.562 131.369 193.562C132.504 193.562 133.739 192.724 135.072 191.047C136.853 188.818 137.744 186.531 137.744 184.188C137.744 183.302 137.572 182.661 137.228 182.266C136.884 181.87 136.416 181.672 135.822 181.672ZM141.481 181.734L146.871 180.859L144.621 188.453C146.444 185.339 148.1 183.161 149.59 181.922C150.434 181.214 151.121 180.859 151.652 180.859C151.996 180.859 152.267 180.964 152.465 181.172C152.663 181.37 152.762 181.661 152.762 182.047C152.762 182.734 152.585 183.391 152.231 184.016C151.981 184.484 151.621 184.719 151.152 184.719C150.913 184.719 150.705 184.641 150.527 184.484C150.361 184.328 150.257 184.089 150.215 183.766C150.194 183.568 150.147 183.438 150.074 183.375C149.991 183.292 149.892 183.25 149.777 183.25C149.6 183.25 149.434 183.292 149.277 183.375C149.007 183.521 148.595 183.927 148.043 184.594C147.179 185.615 146.241 186.938 145.231 188.562C144.793 189.25 144.418 190.026 144.106 190.891C143.668 192.078 143.418 192.792 143.356 193.031L142.856 195H140.465L143.356 185.297C143.689 184.172 143.856 183.37 143.856 182.891C143.856 182.703 143.777 182.547 143.621 182.422C143.413 182.255 143.137 182.172 142.793 182.172C142.574 182.172 142.173 182.219 141.59 182.312L141.481 181.734ZM165.842 172.781L160.467 191.219C160.176 192.219 160.03 192.875 160.03 193.188C160.03 193.292 160.072 193.391 160.155 193.484C160.249 193.578 160.342 193.625 160.436 193.625C160.572 193.625 160.733 193.557 160.921 193.422C161.275 193.172 161.869 192.547 162.702 191.547L163.233 191.875C162.483 192.917 161.723 193.76 160.952 194.406C160.191 195.052 159.478 195.375 158.811 195.375C158.457 195.375 158.165 195.25 157.936 195C157.707 194.75 157.592 194.396 157.592 193.938C157.592 193.344 157.749 192.547 158.061 191.547L158.671 189.609C157.16 191.943 155.785 193.557 154.546 194.453C153.691 195.068 152.874 195.375 152.092 195.375C151.301 195.375 150.608 195.026 150.014 194.328C149.431 193.62 149.139 192.661 149.139 191.453C149.139 189.901 149.634 188.245 150.624 186.484C151.613 184.724 152.921 183.292 154.546 182.188C155.827 181.302 157.004 180.859 158.077 180.859C158.639 180.859 159.124 180.974 159.53 181.203C159.936 181.432 160.337 181.812 160.733 182.344L162.264 176.906C162.379 176.521 162.473 176.214 162.546 175.984C162.671 175.568 162.733 175.224 162.733 174.953C162.733 174.734 162.655 174.552 162.499 174.406C162.28 174.229 161.999 174.141 161.655 174.141C161.415 174.141 161.02 174.177 160.467 174.25V173.672L165.842 172.781ZM160.046 183.875C160.046 183.208 159.853 182.672 159.467 182.266C159.082 181.859 158.592 181.656 157.999 181.656C156.686 181.656 155.316 182.74 153.889 184.906C152.473 187.073 151.764 189.146 151.764 191.125C151.764 191.906 151.936 192.505 152.28 192.922C152.624 193.328 153.035 193.531 153.514 193.531C154.598 193.531 155.957 192.359 157.592 190.016C159.228 187.672 160.046 185.625 160.046 183.875ZM184.082 181.828L183.629 183.453H181.019C181.217 184.016 181.316 184.542 181.316 185.031C181.316 186.406 180.733 187.63 179.566 188.703C178.389 189.776 176.775 190.37 174.723 190.484C173.618 190.818 172.79 191.214 172.238 191.672C172.03 191.839 171.926 192.01 171.926 192.188C171.926 192.396 172.019 192.589 172.207 192.766C172.394 192.932 172.868 193.104 173.629 193.281L176.66 193.984C178.337 194.38 179.446 194.849 179.988 195.391C180.519 195.943 180.785 196.578 180.785 197.297C180.785 198.151 180.467 198.932 179.832 199.641C179.207 200.349 178.285 200.901 177.066 201.297C175.858 201.703 174.519 201.906 173.051 201.906C171.759 201.906 170.582 201.75 169.519 201.438C168.457 201.135 167.696 200.724 167.238 200.203C166.78 199.682 166.551 199.146 166.551 198.594C166.551 198.146 166.702 197.677 167.004 197.188C167.295 196.708 167.665 196.312 168.113 196C168.394 195.802 169.191 195.333 170.504 194.594C170.025 194.219 169.785 193.807 169.785 193.359C169.785 192.943 169.993 192.5 170.41 192.031C170.837 191.562 171.733 191.047 173.098 190.484C171.952 190.266 171.04 189.786 170.363 189.047C169.696 188.307 169.363 187.484 169.363 186.578C169.363 185.099 170.009 183.776 171.301 182.609C172.603 181.443 174.332 180.859 176.488 180.859C177.269 180.859 177.91 180.938 178.41 181.094C178.91 181.25 179.394 181.495 179.863 181.828H184.082ZM178.66 184.281C178.66 183.448 178.426 182.792 177.957 182.312C177.499 181.833 176.894 181.594 176.144 181.594C174.967 181.594 173.993 182.188 173.223 183.375C172.462 184.552 172.082 185.781 172.082 187.062C172.082 187.865 172.327 188.521 172.816 189.031C173.306 189.542 173.9 189.797 174.598 189.797C175.15 189.797 175.681 189.646 176.191 189.344C176.712 189.042 177.15 188.625 177.504 188.094C177.858 187.562 178.139 186.885 178.348 186.062C178.556 185.24 178.66 184.646 178.66 184.281ZM171.176 195C170.332 195.385 169.691 195.88 169.254 196.484C168.827 197.089 168.613 197.682 168.613 198.266C168.613 198.953 168.926 199.521 169.551 199.969C170.446 200.615 171.759 200.938 173.488 200.938C174.978 200.938 176.249 200.682 177.301 200.172C178.363 199.672 178.894 199.021 178.894 198.219C178.894 197.812 178.696 197.427 178.301 197.062C177.915 196.698 177.16 196.401 176.035 196.172C175.42 196.047 173.801 195.656 171.176 195ZM195.866 180.859L192.819 191.453L192.475 192.875C192.444 193.01 192.428 193.125 192.428 193.219C192.428 193.385 192.48 193.531 192.584 193.656C192.668 193.75 192.772 193.797 192.897 193.797C193.032 193.797 193.209 193.714 193.428 193.547C193.834 193.245 194.376 192.62 195.053 191.672L195.584 192.047C194.866 193.13 194.126 193.958 193.366 194.531C192.605 195.094 191.902 195.375 191.256 195.375C190.808 195.375 190.47 195.26 190.241 195.031C190.022 194.812 189.913 194.49 189.913 194.062C189.913 193.552 190.027 192.88 190.256 192.047L190.584 190.875C189.22 192.656 187.965 193.901 186.819 194.609C185.996 195.12 185.189 195.375 184.397 195.375C183.636 195.375 182.98 195.062 182.428 194.438C181.876 193.802 181.6 192.932 181.6 191.828C181.6 190.172 182.095 188.427 183.084 186.594C184.084 184.75 185.35 183.276 186.881 182.172C188.079 181.297 189.209 180.859 190.272 180.859C190.907 180.859 191.433 181.026 191.85 181.359C192.277 181.693 192.6 182.245 192.819 183.016L193.381 181.234L195.866 180.859ZM190.303 181.672C189.636 181.672 188.928 181.984 188.178 182.609C187.116 183.495 186.168 184.807 185.334 186.547C184.511 188.286 184.1 189.859 184.1 191.266C184.1 191.974 184.277 192.536 184.631 192.953C184.985 193.359 185.392 193.562 185.85 193.562C186.985 193.562 188.22 192.724 189.553 191.047C191.334 188.818 192.225 186.531 192.225 184.188C192.225 183.302 192.053 182.661 191.709 182.266C191.366 181.87 190.897 181.672 190.303 181.672ZM201.228 180.859L199.196 187.906C200.103 186.25 200.873 185.005 201.509 184.172C202.498 182.88 203.462 181.943 204.399 181.359C204.951 181.026 205.53 180.859 206.134 180.859C206.655 180.859 207.087 181.026 207.431 181.359C207.774 181.693 207.946 182.12 207.946 182.641C207.946 183.151 207.826 183.818 207.587 184.641L206.478 188.609C208.175 185.432 209.785 183.203 211.306 181.922C212.149 181.214 212.983 180.859 213.806 180.859C214.285 180.859 214.675 181.026 214.978 181.359C215.29 181.682 215.446 182.188 215.446 182.875C215.446 183.479 215.353 184.12 215.165 184.797L213.446 190.875C213.071 192.198 212.884 192.932 212.884 193.078C212.884 193.224 212.931 193.349 213.024 193.453C213.087 193.526 213.17 193.562 213.274 193.562C213.379 193.562 213.561 193.464 213.821 193.266C214.415 192.807 214.972 192.203 215.493 191.453L216.009 191.781C215.748 192.198 215.285 192.771 214.618 193.5C213.962 194.229 213.399 194.724 212.931 194.984C212.462 195.245 212.03 195.375 211.634 195.375C211.269 195.375 210.962 195.25 210.712 195C210.472 194.75 210.353 194.443 210.353 194.078C210.353 193.578 210.566 192.573 210.993 191.062L212.415 186.047C212.738 184.891 212.91 184.25 212.931 184.125C212.962 183.927 212.978 183.734 212.978 183.547C212.978 183.286 212.92 183.083 212.806 182.938C212.681 182.792 212.54 182.719 212.384 182.719C211.946 182.719 211.483 182.943 210.993 183.391C209.556 184.714 208.212 186.568 206.962 188.953C206.139 190.526 205.368 192.542 204.649 195H202.29L204.962 185.547C205.254 184.526 205.399 183.844 205.399 183.5C205.399 183.219 205.342 183.01 205.228 182.875C205.113 182.74 204.972 182.672 204.806 182.672C204.462 182.672 204.097 182.797 203.712 183.047C203.087 183.453 202.28 184.323 201.29 185.656C200.311 186.99 199.55 188.266 199.009 189.484C198.748 190.057 198.129 191.896 197.149 195H194.837L197.728 184.875L198.103 183.562C198.175 183.365 198.212 183.219 198.212 183.125C198.212 182.896 198.108 182.693 197.899 182.516C197.691 182.328 197.425 182.234 197.103 182.234C196.967 182.234 196.592 182.297 195.978 182.422L195.837 181.844L201.228 180.859ZM218.667 189.109C218.595 189.63 218.558 190.062 218.558 190.406C218.558 191.333 218.886 192.125 219.542 192.781C220.199 193.427 220.996 193.75 221.933 193.75C222.683 193.75 223.402 193.599 224.089 193.297C224.787 192.984 225.819 192.302 227.183 191.25L227.511 191.703C225.042 194.151 222.688 195.375 220.449 195.375C218.928 195.375 217.782 194.896 217.011 193.938C216.24 192.979 215.855 191.922 215.855 190.766C215.855 189.214 216.334 187.625 217.292 186C218.251 184.375 219.454 183.115 220.902 182.219C222.35 181.312 223.839 180.859 225.371 180.859C226.475 180.859 227.292 181.083 227.824 181.531C228.355 181.979 228.621 182.51 228.621 183.125C228.621 183.99 228.277 184.818 227.589 185.609C226.683 186.641 225.35 187.474 223.589 188.109C222.423 188.536 220.782 188.87 218.667 189.109ZM218.777 188.344C220.319 188.167 221.574 187.865 222.542 187.438C223.824 186.865 224.782 186.182 225.417 185.391C226.063 184.589 226.386 183.828 226.386 183.109C226.386 182.672 226.246 182.318 225.964 182.047C225.694 181.776 225.303 181.641 224.792 181.641C223.73 181.641 222.6 182.208 221.402 183.344C220.214 184.469 219.339 186.135 218.777 188.344Z" fill="white"></path></g><defs><clipPath id="clip0_1373_947"><rect width="325" height="325" rx="10" fill="white"></rect></clipPath></defs></svg> 