<?xml version="1.0" encoding="UTF-8"?> <svg xmlns="http://www.w3.org/2000/svg" width="325" height="325" viewBox="0 0 325 325" fill="none"><rect width="325" height="325" rx="10" fill="#EE3D48"></rect><mask id="mask0_1373_953" style="mask-type:alpha" maskUnits="userSpaceOnUse" x="0" y="0" width="325" height="325"><rect width="325" height="325" rx="10" fill="#FF7EB3"></rect></mask><g mask="url(#mask0_1373_953)"><path d="M96.9194 152V128.96H100.775V152H96.9194ZM105.568 152V128.96H119.44V132.816H109.424V138.56H117.52V142.4H109.424V152H105.568ZM129.044 152V128.96H132.9V152H129.044ZM148.963 152L142.227 128.96H146.275L150.867 145.6L155.443 128.992L159.491 128.96L164.083 145.6L168.659 128.96H172.707L165.987 152H162.179L157.459 135.616L152.771 152H148.963ZM175.318 152V128.96H190.198V132.576H179.174V138.256H188.278V141.872H179.174V148.384H190.198V152H175.318ZM194.037 152V128.96H203.557C203.781 128.96 204.069 128.971 204.421 128.992C204.773 129.003 205.098 129.035 205.397 129.088C206.73 129.291 207.829 129.733 208.693 130.416C209.568 131.099 210.213 131.963 210.629 133.008C211.056 134.043 211.269 135.195 211.269 136.464C211.269 138.341 210.794 139.957 209.845 141.312C208.896 142.656 207.44 143.488 205.477 143.808L203.829 143.952H197.893V152H194.037ZM207.269 152L202.725 142.624L206.645 141.76L211.637 152H207.269ZM197.893 140.352H203.397C203.61 140.352 203.85 140.341 204.117 140.32C204.384 140.299 204.629 140.256 204.853 140.192C205.493 140.032 205.994 139.749 206.357 139.344C206.73 138.939 206.992 138.48 207.141 137.968C207.301 137.456 207.381 136.955 207.381 136.464C207.381 135.973 207.301 135.472 207.141 134.96C206.992 134.437 206.73 133.973 206.357 133.568C205.994 133.163 205.493 132.88 204.853 132.72C204.629 132.656 204.384 132.619 204.117 132.608C203.85 132.587 203.61 132.576 203.397 132.576H197.893V140.352ZM215.162 152V128.96H230.042V132.576H219.018V138.256H228.122V141.872H219.018V148.384H230.042V152H215.162ZM44.606 171.138L39.4644 189.015L38.8844 191.414C38.8316 191.643 38.8053 191.836 38.8053 191.994C38.8053 192.275 38.8932 192.521 39.0689 192.732C39.2096 192.891 39.3853 192.97 39.5963 192.97C39.8248 192.97 40.1236 192.829 40.4928 192.548C41.1783 192.038 42.0924 190.983 43.235 189.384L44.1314 190.017C42.9185 191.845 41.6705 193.242 40.3873 194.209C39.1041 195.158 37.9176 195.633 36.8277 195.633C36.0719 195.633 35.5006 195.439 35.1139 195.053C34.7447 194.684 34.5602 194.139 34.5602 193.418C34.5602 192.557 34.7535 191.423 35.1402 190.017L35.6939 188.039C33.3912 191.045 31.273 193.146 29.3394 194.341C27.9508 195.202 26.5885 195.633 25.2525 195.633C23.9693 195.633 22.8619 195.105 21.9303 194.051C20.9986 192.979 20.5328 191.511 20.5328 189.647C20.5328 186.853 21.3678 183.908 23.0377 180.814C24.7252 177.703 26.8609 175.216 29.4449 173.353C31.4664 171.876 33.3736 171.138 35.1666 171.138C36.2389 171.138 37.1266 171.419 37.8297 171.981C38.5504 172.544 39.0953 173.476 39.4644 174.776L40.4137 171.771L44.606 171.138ZM35.2193 172.509C34.0943 172.509 32.899 173.036 31.6334 174.091C29.8404 175.585 28.2408 177.8 26.8346 180.735C25.4459 183.671 24.7516 186.325 24.7516 188.698C24.7516 189.894 25.0504 190.843 25.648 191.546C26.2457 192.231 26.9312 192.574 27.7047 192.574C29.6207 192.574 31.7037 191.159 33.9537 188.329C36.9596 184.567 38.4625 180.709 38.4625 176.754C38.4625 175.26 38.1725 174.179 37.5924 173.511C37.0123 172.843 36.2213 172.509 35.2193 172.509ZM68.6877 161.145L64.469 175.304H69.1623C71.2717 175.304 72.845 174.979 73.8821 174.328C74.9368 173.678 76.0178 172.289 77.1252 170.162H78.1272L74.4094 183.188H73.3547C73.6184 182.133 73.7502 181.263 73.7502 180.577C73.7502 179.505 73.3899 178.679 72.6692 178.099C71.966 177.501 70.6389 177.202 68.6877 177.202H63.9416L60.8303 187.986C60.2678 189.902 59.9866 191.177 59.9866 191.81C59.9866 192.46 60.2239 192.961 60.6985 193.312C61.1907 193.664 62.3772 193.901 64.258 194.024L63.9416 195H49.8088L50.1516 194.024C51.5227 193.989 52.4368 193.866 52.8938 193.655C53.5969 193.356 54.1155 192.952 54.4494 192.442C54.9241 191.722 55.4866 190.236 56.1369 187.986L62.4387 166.444C62.9485 164.704 63.2034 163.342 63.2034 162.357C63.2034 161.9 63.0891 161.514 62.8606 161.197C62.6321 160.863 62.2893 160.617 61.8323 160.459C61.3928 160.301 60.5051 160.222 59.1692 160.222L59.4856 159.246H87.2239L84.5871 168.29H83.5852C83.7785 167.2 83.8752 166.304 83.8752 165.601C83.8752 164.44 83.55 163.526 82.8996 162.858C82.2668 162.173 81.4494 161.689 80.4475 161.408C79.7444 161.232 78.1711 161.145 75.7278 161.145H68.6877ZM104.789 179.391C104.789 182.027 104.086 184.638 102.679 187.222C101.291 189.806 99.3482 191.854 96.8521 193.365C94.356 194.877 91.9302 195.633 89.5748 195.633C87.1666 195.633 85.1978 194.868 83.6685 193.339C82.1568 191.792 81.4009 189.797 81.4009 187.354C81.4009 184.77 82.1392 182.177 83.6158 179.575C85.1099 176.974 87.0962 174.917 89.5748 173.405C92.0709 171.894 94.4791 171.138 96.7994 171.138C99.1197 171.138 101.027 171.902 102.521 173.432C104.033 174.961 104.789 176.947 104.789 179.391ZM100.412 177.571C100.412 175.937 100.007 174.688 99.1988 173.827C98.4078 172.948 97.3794 172.509 96.1138 172.509C93.5298 172.509 91.148 174.363 88.9683 178.072C86.8062 181.764 85.7252 185.438 85.7252 189.094C85.7252 190.764 86.147 192.056 86.9908 192.97C87.8345 193.866 88.898 194.314 90.1812 194.314C92.6597 194.314 94.98 192.478 97.1421 188.804C99.3218 185.112 100.412 181.368 100.412 177.571ZM105.32 172.614L114.417 171.138L110.62 183.952C113.696 178.696 116.491 175.022 119.005 172.931C120.429 171.735 121.589 171.138 122.485 171.138C123.065 171.138 123.522 171.313 123.856 171.665C124.19 171.999 124.357 172.491 124.357 173.142C124.357 174.302 124.058 175.409 123.461 176.464C123.039 177.255 122.432 177.65 121.641 177.65C121.237 177.65 120.886 177.519 120.587 177.255C120.306 176.991 120.13 176.587 120.059 176.042C120.024 175.708 119.945 175.488 119.822 175.383C119.682 175.242 119.515 175.172 119.321 175.172C119.022 175.172 118.741 175.242 118.477 175.383C118.02 175.629 117.326 176.314 116.394 177.439C114.935 179.162 113.353 181.395 111.648 184.137C110.91 185.297 110.277 186.606 109.75 188.065C109.012 190.069 108.59 191.273 108.484 191.678L107.641 195H103.606L108.484 178.626C109.047 176.728 109.328 175.374 109.328 174.565C109.328 174.249 109.196 173.985 108.932 173.774C108.581 173.493 108.115 173.353 107.535 173.353C107.166 173.353 106.489 173.432 105.505 173.59L105.32 172.614ZM133.247 164.599L131.191 171.771H135.33L134.882 173.432H130.769L126.234 188.988C125.741 190.658 125.495 191.739 125.495 192.231C125.495 192.53 125.566 192.759 125.706 192.917C125.847 193.075 126.014 193.154 126.207 193.154C126.647 193.154 127.227 192.847 127.947 192.231C128.369 191.88 129.31 190.799 130.769 188.988L131.639 189.647C130.022 192.003 128.492 193.664 127.051 194.631C126.067 195.299 125.073 195.633 124.071 195.633C123.298 195.633 122.665 195.396 122.173 194.921C121.681 194.429 121.435 193.805 121.435 193.049C121.435 192.1 121.716 190.649 122.279 188.698L126.682 173.432H122.7L122.964 172.403C124.898 171.876 126.506 171.094 127.789 170.057C129.072 169.002 130.505 167.183 132.087 164.599H133.247ZM155.347 171.771L150.759 187.485C150.074 189.823 149.731 191.3 149.731 191.915C149.731 192.231 149.784 192.469 149.889 192.627C150.012 192.768 150.17 192.838 150.364 192.838C150.663 192.838 150.988 192.706 151.339 192.442C151.709 192.161 152.623 191.071 154.082 189.173L154.873 189.779C153.484 191.977 152.06 193.594 150.601 194.631C149.634 195.299 148.703 195.633 147.806 195.633C147.121 195.633 146.584 195.439 146.198 195.053C145.811 194.666 145.618 194.165 145.618 193.55C145.618 192.952 145.732 192.161 145.96 191.177C146.242 189.876 147.042 187.046 148.36 182.687C145.372 187.591 142.867 190.975 140.845 192.838C138.841 194.701 136.978 195.633 135.255 195.633C134.447 195.633 133.761 195.352 133.199 194.789C132.636 194.227 132.355 193.515 132.355 192.653C132.355 191.335 132.742 189.313 133.515 186.589L135.809 178.441C136.372 176.49 136.653 175.277 136.653 174.803C136.653 174.592 136.574 174.416 136.416 174.275C136.275 174.117 136.117 174.038 135.941 174.038C135.572 174.038 135.203 174.17 134.834 174.434C134.464 174.697 133.629 175.673 132.329 177.36L131.511 176.78C132.83 174.741 134.227 173.238 135.704 172.271C136.829 171.516 137.866 171.138 138.815 171.138C139.465 171.138 139.993 171.349 140.397 171.771C140.819 172.175 141.03 172.702 141.03 173.353C141.03 174.302 140.678 175.998 139.975 178.441L137.497 186.958C136.811 189.278 136.468 190.746 136.468 191.361C136.468 191.695 136.574 191.968 136.785 192.179C137.013 192.372 137.312 192.469 137.681 192.469C138.261 192.469 139.017 192.179 139.949 191.599C140.88 191.019 142.12 189.735 143.667 187.749C145.231 185.745 146.514 183.873 147.516 182.133C148.536 180.375 149.617 177.589 150.759 173.774L151.339 171.771H155.347ZM164.527 171.138L161.02 183.135C164.307 178.23 166.821 175.005 168.561 173.458C170.319 171.911 172.007 171.138 173.624 171.138C174.503 171.138 175.223 171.428 175.786 172.008C176.366 172.588 176.656 173.344 176.656 174.275C176.656 175.33 176.401 176.736 175.891 178.494L172.675 189.595C172.305 190.878 172.121 191.66 172.121 191.941C172.121 192.188 172.191 192.398 172.332 192.574C172.472 192.732 172.622 192.812 172.78 192.812C172.991 192.812 173.246 192.697 173.545 192.469C174.476 191.73 175.496 190.605 176.603 189.094L177.421 189.595C175.786 191.933 174.239 193.603 172.78 194.604C171.761 195.29 170.847 195.633 170.038 195.633C169.388 195.633 168.869 195.431 168.482 195.026C168.096 194.64 167.902 194.112 167.902 193.444C167.902 192.601 168.201 191.15 168.799 189.094L171.857 178.494C172.244 177.176 172.437 176.147 172.437 175.409C172.437 175.058 172.323 174.776 172.095 174.565C171.866 174.337 171.585 174.223 171.251 174.223C170.759 174.223 170.17 174.434 169.484 174.855C168.183 175.646 166.83 176.956 165.424 178.784C164.017 180.595 162.532 182.915 160.968 185.745C160.141 187.239 159.456 188.874 158.911 190.649L157.593 195H153.638L158.436 178.494C158.999 176.508 159.28 175.312 159.28 174.908C159.28 174.521 159.122 174.188 158.805 173.906C158.507 173.607 158.129 173.458 157.672 173.458C157.461 173.458 157.092 173.493 156.564 173.563L155.562 173.722L155.404 172.772L164.527 171.138ZM181.723 185.06C181.6 185.938 181.538 186.668 181.538 187.248C181.538 188.812 182.092 190.148 183.199 191.256C184.307 192.346 185.652 192.891 187.234 192.891C188.499 192.891 189.712 192.636 190.872 192.126C192.05 191.599 193.79 190.447 196.093 188.672L196.647 189.437C192.481 193.567 188.508 195.633 184.729 195.633C182.162 195.633 180.229 194.824 178.928 193.207C177.627 191.59 176.977 189.806 176.977 187.854C176.977 185.235 177.785 182.555 179.402 179.812C181.02 177.07 183.05 174.943 185.493 173.432C187.937 171.902 190.45 171.138 193.034 171.138C194.898 171.138 196.277 171.516 197.174 172.271C198.07 173.027 198.519 173.924 198.519 174.961C198.519 176.42 197.939 177.817 196.778 179.153C195.249 180.894 192.999 182.3 190.028 183.372C188.06 184.093 185.291 184.655 181.723 185.06ZM181.907 183.768C184.509 183.469 186.627 182.959 188.262 182.238C190.424 181.271 192.041 180.12 193.113 178.784C194.203 177.431 194.748 176.147 194.748 174.935C194.748 174.196 194.511 173.599 194.036 173.142C193.579 172.685 192.92 172.456 192.059 172.456C190.266 172.456 188.359 173.414 186.337 175.33C184.333 177.229 182.857 180.041 181.907 183.768ZM212.054 159.246H239.212L236.285 168.738H235.283C235.617 167.35 235.784 166.11 235.784 165.021C235.784 163.737 235.388 162.771 234.597 162.12C234 161.628 232.462 161.382 229.983 161.382H227.162L220.096 186.009C219.199 189.103 218.751 191.01 218.751 191.73C218.751 192.398 219.032 192.952 219.595 193.392C220.157 193.813 221.15 194.024 222.574 194.024H223.787L223.471 195H207.914L208.204 194.024H208.889C210.261 194.024 211.315 193.805 212.054 193.365C212.563 193.066 213.02 192.53 213.425 191.757C213.846 190.966 214.427 189.305 215.165 186.773L222.574 161.382H220.438C218.382 161.382 216.721 161.646 215.455 162.173C214.207 162.7 213.196 163.465 212.423 164.467C211.649 165.469 211.016 166.893 210.524 168.738H209.549L212.054 159.246ZM231.359 185.06C231.235 185.938 231.174 186.668 231.174 187.248C231.174 188.812 231.728 190.148 232.835 191.256C233.942 192.346 235.287 192.891 236.869 192.891C238.135 192.891 239.348 192.636 240.508 192.126C241.686 191.599 243.426 190.447 245.729 188.672L246.282 189.437C242.116 193.567 238.144 195.633 234.364 195.633C231.798 195.633 229.864 194.824 228.564 193.207C227.263 191.59 226.612 189.806 226.612 187.854C226.612 185.235 227.421 182.555 229.038 179.812C230.655 177.07 232.686 174.943 235.129 173.432C237.572 171.902 240.086 171.138 242.67 171.138C244.533 171.138 245.913 171.516 246.81 172.271C247.706 173.027 248.154 173.924 248.154 174.961C248.154 176.42 247.574 177.817 246.414 179.153C244.885 180.894 242.635 182.3 239.664 183.372C237.695 184.093 234.927 184.655 231.359 185.06ZM231.543 183.768C234.145 183.469 236.263 182.959 237.898 182.238C240.06 181.271 241.677 180.12 242.749 178.784C243.839 177.431 244.384 176.147 244.384 174.935C244.384 174.196 244.147 173.599 243.672 173.142C243.215 172.685 242.556 172.456 241.694 172.456C239.901 172.456 237.994 173.414 235.973 175.33C233.969 177.229 232.492 180.041 231.543 183.768ZM260.657 157.506L251.639 188.883C251.2 190.447 250.98 191.405 250.98 191.757C250.98 192.021 251.059 192.24 251.217 192.416C251.393 192.592 251.604 192.68 251.85 192.68C252.184 192.68 252.544 192.53 252.931 192.231C253.845 191.511 254.803 190.395 255.805 188.883L256.596 189.7C254.926 192.056 253.388 193.699 251.982 194.631C250.945 195.299 249.96 195.633 249.029 195.633C248.361 195.633 247.798 195.404 247.341 194.947C246.902 194.49 246.682 193.963 246.682 193.365C246.682 192.732 246.963 191.432 247.526 189.463L254.671 164.73C255.251 162.709 255.541 161.549 255.541 161.25C255.541 160.828 255.374 160.485 255.04 160.222C254.706 159.94 254.188 159.8 253.485 159.8C253.081 159.8 252.465 159.861 251.639 159.984V159.009L260.657 157.506ZM271.366 157.506L262.348 188.883C261.909 190.447 261.689 191.405 261.689 191.757C261.689 192.021 261.768 192.24 261.927 192.416C262.102 192.592 262.313 192.68 262.559 192.68C262.893 192.68 263.254 192.53 263.64 192.231C264.554 191.511 265.512 190.395 266.514 188.883L267.305 189.7C265.635 192.056 264.097 193.699 262.691 194.631C261.654 195.299 260.67 195.633 259.738 195.633C259.07 195.633 258.508 195.404 258.051 194.947C257.611 194.49 257.391 193.963 257.391 193.365C257.391 192.732 257.673 191.432 258.235 189.463L265.381 164.73C265.961 162.709 266.251 161.549 266.251 161.25C266.251 160.828 266.084 160.485 265.75 160.222C265.416 159.94 264.897 159.8 264.194 159.8C263.79 159.8 263.175 159.861 262.348 159.984V159.009L271.366 157.506ZM272.451 185.06C272.328 185.938 272.267 186.668 272.267 187.248C272.267 188.812 272.82 190.148 273.928 191.256C275.035 192.346 276.38 192.891 277.962 192.891C279.228 192.891 280.441 192.636 281.601 192.126C282.778 191.599 284.519 190.447 286.821 188.672L287.375 189.437C283.209 193.567 279.236 195.633 275.457 195.633C272.891 195.633 270.957 194.824 269.656 193.207C268.356 191.59 267.705 189.806 267.705 187.854C267.705 185.235 268.514 182.555 270.131 179.812C271.748 177.07 273.778 174.943 276.222 173.432C278.665 171.902 281.179 171.138 283.763 171.138C285.626 171.138 287.006 171.516 287.902 172.271C288.799 173.027 289.247 173.924 289.247 174.961C289.247 176.42 288.667 177.817 287.507 179.153C285.978 180.894 283.728 182.3 280.757 183.372C278.788 184.093 276.02 184.655 272.451 185.06ZM272.636 183.768C275.237 183.469 277.356 182.959 278.99 182.238C281.152 181.271 282.77 180.12 283.842 178.784C284.932 177.431 285.477 176.147 285.477 174.935C285.477 174.196 285.239 173.599 284.765 173.142C284.308 172.685 283.649 172.456 282.787 172.456C280.994 172.456 279.087 173.414 277.066 175.33C275.062 177.229 273.585 180.041 272.636 183.768ZM288.513 172.614L297.61 171.138L293.813 183.952C296.889 178.696 299.684 175.022 302.198 172.931C303.621 171.735 304.782 171.138 305.678 171.138C306.258 171.138 306.715 171.313 307.049 171.665C307.383 171.999 307.55 172.491 307.55 173.142C307.55 174.302 307.251 175.409 306.654 176.464C306.232 177.255 305.625 177.65 304.834 177.65C304.43 177.65 304.079 177.519 303.78 177.255C303.498 176.991 303.323 176.587 303.252 176.042C303.217 175.708 303.138 175.488 303.015 175.383C302.874 175.242 302.707 175.172 302.514 175.172C302.215 175.172 301.934 175.242 301.67 175.383C301.213 175.629 300.519 176.314 299.587 177.439C298.128 179.162 296.546 181.395 294.841 184.137C294.103 185.297 293.47 186.606 292.943 188.065C292.204 190.069 291.783 191.273 291.677 191.678L290.833 195H286.799L291.677 178.626C292.24 176.728 292.521 175.374 292.521 174.565C292.521 174.249 292.389 173.985 292.125 173.774C291.774 173.493 291.308 173.353 290.728 173.353C290.359 173.353 289.682 173.432 288.698 173.59L288.513 172.614Z" fill="white"></path></g></svg> 