<?xml version="1.0" encoding="UTF-8"?> <svg xmlns="http://www.w3.org/2000/svg" width="325" height="325" viewBox="0 0 325 325" fill="none"><g clip-path="url(#clip0_1291_918)"><rect width="325" height="325" rx="10" fill="white"></rect><rect width="325" height="325" rx="10" fill="#EC148E"></rect><path d="M46.8094 137V113.96H60.6814V117.816H50.6654V123.56H58.7614V127.4H50.6654V137H46.8094ZM74.1194 137.48C72.2847 137.48 70.6687 137.107 69.2714 136.36C67.8847 135.613 66.7967 134.563 66.0074 133.208C65.2287 131.853 64.8394 130.264 64.8394 128.44V113.992L68.7434 113.96V128.344C68.7434 129.208 68.8874 129.981 69.1754 130.664C69.474 131.347 69.874 131.928 70.3754 132.408C70.8767 132.877 71.4527 133.235 72.1034 133.48C72.754 133.725 73.426 133.848 74.1194 133.848C74.834 133.848 75.5114 133.725 76.1514 133.48C76.802 133.224 77.378 132.861 77.8794 132.392C78.3807 131.912 78.7754 131.331 79.0634 130.648C79.3514 129.965 79.4954 129.197 79.4954 128.344V113.96H83.3994V128.44C83.3994 130.264 83.0047 131.853 82.2154 133.208C81.4367 134.563 80.3487 135.613 78.9514 136.36C77.5647 137.107 75.954 137.48 74.1194 137.48ZM94.6866 137V117.576H87.2306V113.96H105.999V117.576H98.5426V137H94.6866ZM119.117 137.48C117.282 137.48 115.666 137.107 114.269 136.36C112.882 135.613 111.794 134.563 111.005 133.208C110.226 131.853 109.837 130.264 109.837 128.44V113.992L113.741 113.96V128.344C113.741 129.208 113.885 129.981 114.173 130.664C114.472 131.347 114.872 131.928 115.373 132.408C115.874 132.877 116.45 133.235 117.101 133.48C117.752 133.725 118.424 133.848 119.117 133.848C119.832 133.848 120.509 133.725 121.149 133.48C121.8 133.224 122.376 132.861 122.877 132.392C123.378 131.912 123.773 131.331 124.061 130.648C124.349 129.965 124.493 129.197 124.493 128.344V113.96H128.397V128.44C128.397 130.264 128.002 131.853 127.213 133.208C126.434 134.563 125.346 135.613 123.949 136.36C122.562 137.107 120.952 137.48 119.117 137.48ZM134.148 137V113.96H143.668C143.892 113.96 144.18 113.971 144.532 113.992C144.884 114.003 145.209 114.035 145.508 114.088C146.841 114.291 147.94 114.733 148.804 115.416C149.679 116.099 150.324 116.963 150.74 118.008C151.167 119.043 151.38 120.195 151.38 121.464C151.38 123.341 150.905 124.957 149.956 126.312C149.007 127.656 147.551 128.488 145.588 128.808L143.94 128.952H138.004V137H134.148ZM147.38 137L142.836 127.624L146.756 126.76L151.748 137H147.38ZM138.004 125.352H143.508C143.721 125.352 143.961 125.341 144.228 125.32C144.495 125.299 144.74 125.256 144.964 125.192C145.604 125.032 146.105 124.749 146.468 124.344C146.841 123.939 147.103 123.48 147.252 122.968C147.412 122.456 147.492 121.955 147.492 121.464C147.492 120.973 147.412 120.472 147.252 119.96C147.103 119.437 146.841 118.973 146.468 118.568C146.105 118.163 145.604 117.88 144.964 117.72C144.74 117.656 144.495 117.619 144.228 117.608C143.961 117.587 143.721 117.576 143.508 117.576H138.004V125.352ZM156.553 137V113.96H171.433V117.576H160.409V123.256H169.513V126.872H160.409V133.384H171.433V137H156.553ZM184.238 137V113.96H188.142L198.83 130.2V113.96H202.734V137H198.83L188.142 120.76V137H184.238ZM208.487 137V113.96H223.367V117.576H212.343V123.256H221.447V126.872H212.343V133.384H223.367V137H208.487ZM233.35 137L226.614 113.96H230.662L235.254 130.6L239.83 113.992L243.878 113.96L248.47 130.6L253.046 113.96H257.094L250.374 137H246.566L241.846 120.616L237.158 137H233.35ZM268.887 137.48C267.202 137.48 265.682 137.187 264.327 136.6C262.983 136.013 261.874 135.176 260.999 134.088C260.135 132.989 259.586 131.688 259.351 130.184L263.351 129.576C263.693 130.941 264.391 131.997 265.447 132.744C266.514 133.491 267.741 133.864 269.127 133.864C269.949 133.864 270.722 133.736 271.447 133.48C272.173 133.224 272.759 132.851 273.207 132.36C273.666 131.869 273.895 131.267 273.895 130.552C273.895 130.232 273.842 129.939 273.735 129.672C273.629 129.395 273.469 129.149 273.255 128.936C273.053 128.723 272.786 128.531 272.455 128.36C272.135 128.179 271.762 128.024 271.335 127.896L265.383 126.136C264.871 125.987 264.317 125.789 263.719 125.544C263.133 125.288 262.573 124.941 262.039 124.504C261.517 124.056 261.085 123.491 260.743 122.808C260.413 122.115 260.247 121.261 260.247 120.248C260.247 118.765 260.621 117.523 261.367 116.52C262.125 115.507 263.138 114.749 264.407 114.248C265.687 113.747 267.106 113.501 268.663 113.512C270.242 113.523 271.65 113.795 272.887 114.328C274.125 114.851 275.159 115.613 275.991 116.616C276.823 117.619 277.41 118.829 277.751 120.248L273.607 120.968C273.437 120.157 273.106 119.469 272.615 118.904C272.135 118.328 271.543 117.891 270.839 117.592C270.146 117.293 269.405 117.133 268.615 117.112C267.847 117.101 267.133 117.219 266.471 117.464C265.821 117.699 265.293 118.04 264.887 118.488C264.493 118.936 264.295 119.459 264.295 120.056C264.295 120.621 264.466 121.085 264.807 121.448C265.149 121.8 265.57 122.083 266.071 122.296C266.583 122.499 267.101 122.669 267.623 122.808L271.751 123.96C272.317 124.109 272.951 124.312 273.655 124.568C274.359 124.824 275.037 125.181 275.687 125.64C276.338 126.099 276.871 126.701 277.287 127.448C277.714 128.195 277.927 129.144 277.927 130.296C277.927 131.491 277.677 132.541 277.175 133.448C276.685 134.344 276.018 135.091 275.175 135.688C274.333 136.285 273.367 136.733 272.279 137.032C271.202 137.331 270.071 137.48 268.887 137.48ZM66.7919 175V151.96H76.3119C76.5359 151.96 76.8239 151.971 77.1759 151.992C77.5279 152.003 77.8532 152.035 78.1519 152.088C79.4852 152.291 80.5839 152.733 81.4479 153.416C82.3225 154.099 82.9679 154.963 83.3839 156.008C83.8105 157.043 84.0239 158.195 84.0239 159.464C84.0239 161.341 83.5492 162.957 82.5999 164.312C81.6505 165.656 80.1945 166.488 78.2319 166.808L76.5839 166.952H70.6479V175H66.7919ZM80.0239 175L75.4799 165.624L79.3999 164.76L84.3919 175H80.0239ZM70.6479 163.352H76.1519C76.3652 163.352 76.6052 163.341 76.8719 163.32C77.1385 163.299 77.3839 163.256 77.6079 163.192C78.2479 163.032 78.7492 162.749 79.1119 162.344C79.4852 161.939 79.7465 161.48 79.8959 160.968C80.0559 160.456 80.1359 159.955 80.1359 159.464C80.1359 158.973 80.0559 158.472 79.8959 157.96C79.7465 157.437 79.4852 156.973 79.1119 156.568C78.7492 156.163 78.2479 155.88 77.6079 155.72C77.3839 155.656 77.1385 155.619 76.8719 155.608C76.6052 155.587 76.3652 155.576 76.1519 155.576H70.6479V163.352ZM89.1969 175V151.96H104.077V155.576H93.0529V161.256H102.157V164.872H93.0529V171.384H104.077V175H89.1969ZM109.196 175V151.96H118.716C118.94 151.96 119.228 151.971 119.58 151.992C119.932 152.003 120.257 152.035 120.556 152.088C121.889 152.291 122.988 152.733 123.852 153.416C124.726 154.099 125.372 154.963 125.788 156.008C126.214 157.043 126.428 158.195 126.428 159.464C126.428 160.723 126.214 161.875 125.788 162.92C125.361 163.955 124.71 164.813 123.836 165.496C122.972 166.179 121.878 166.621 120.556 166.824C120.257 166.867 119.926 166.899 119.564 166.92C119.212 166.941 118.929 166.952 118.716 166.952H113.052V175H109.196ZM113.052 163.352H118.556C118.769 163.352 119.009 163.341 119.276 163.32C119.542 163.299 119.788 163.256 120.012 163.192C120.652 163.032 121.153 162.749 121.516 162.344C121.889 161.939 122.15 161.48 122.3 160.968C122.46 160.456 122.54 159.955 122.54 159.464C122.54 158.973 122.46 158.472 122.3 157.96C122.15 157.437 121.889 156.973 121.516 156.568C121.153 156.163 120.652 155.88 120.012 155.72C119.788 155.656 119.542 155.619 119.276 155.608C119.009 155.587 118.769 155.576 118.556 155.576H113.052V163.352ZM140.657 175.48C138.353 175.48 136.38 174.979 134.737 173.976C133.094 172.963 131.83 171.555 130.945 169.752C130.07 167.949 129.633 165.859 129.633 163.48C129.633 161.101 130.07 159.011 130.945 157.208C131.83 155.405 133.094 154.003 134.737 153C136.38 151.987 138.353 151.48 140.657 151.48C142.961 151.48 144.934 151.987 146.577 153C148.23 154.003 149.494 155.405 150.369 157.208C151.254 159.011 151.697 161.101 151.697 163.48C151.697 165.859 151.254 167.949 150.369 169.752C149.494 171.555 148.23 172.963 146.577 173.976C144.934 174.979 142.961 175.48 140.657 175.48ZM140.657 171.848C142.204 171.859 143.489 171.517 144.513 170.824C145.548 170.131 146.321 169.155 146.833 167.896C147.356 166.637 147.617 165.165 147.617 163.48C147.617 161.795 147.356 160.333 146.833 159.096C146.321 157.848 145.548 156.877 144.513 156.184C143.489 155.491 142.204 155.133 140.657 155.112C139.11 155.101 137.825 155.443 136.801 156.136C135.777 156.829 135.004 157.805 134.481 159.064C133.969 160.323 133.713 161.795 133.713 163.48C133.713 165.165 133.969 166.632 134.481 167.88C134.993 169.117 135.761 170.083 136.785 170.776C137.82 171.469 139.11 171.827 140.657 171.848ZM156.162 175V151.96H165.682C165.906 151.96 166.194 151.971 166.546 151.992C166.898 152.003 167.223 152.035 167.522 152.088C168.855 152.291 169.954 152.733 170.818 153.416C171.693 154.099 172.338 154.963 172.754 156.008C173.181 157.043 173.394 158.195 173.394 159.464C173.394 161.341 172.919 162.957 171.97 164.312C171.021 165.656 169.565 166.488 167.602 166.808L165.954 166.952H160.018V175H156.162ZM169.394 175L164.85 165.624L168.77 164.76L173.762 175H169.394ZM160.018 163.352H165.522C165.735 163.352 165.975 163.341 166.242 163.32C166.509 163.299 166.754 163.256 166.978 163.192C167.618 163.032 168.119 162.749 168.482 162.344C168.855 161.939 169.117 161.48 169.266 160.968C169.426 160.456 169.506 159.955 169.506 159.464C169.506 158.973 169.426 158.472 169.266 157.96C169.117 157.437 168.855 156.973 168.482 156.568C168.119 156.163 167.618 155.88 166.978 155.72C166.754 155.656 166.509 155.619 166.242 155.608C165.975 155.587 165.735 155.576 165.522 155.576H160.018V163.352ZM184.103 175V155.576H176.647V151.96H195.415V155.576H187.959V175H184.103ZM199.253 175V151.96H214.133V155.576H203.109V161.256H212.213V164.872H203.109V171.384H214.133V175H199.253ZM219.252 175V151.96H228.772C228.996 151.96 229.284 151.971 229.636 151.992C229.988 152.003 230.313 152.035 230.612 152.088C231.945 152.291 233.044 152.733 233.908 153.416C234.783 154.099 235.428 154.963 235.844 156.008C236.271 157.043 236.484 158.195 236.484 159.464C236.484 161.341 236.009 162.957 235.06 164.312C234.111 165.656 232.655 166.488 230.692 166.808L229.044 166.952H223.108V175H219.252ZM232.484 175L227.94 165.624L231.86 164.76L236.852 175H232.484ZM223.108 163.352H228.612C228.825 163.352 229.065 163.341 229.332 163.32C229.599 163.299 229.844 163.256 230.068 163.192C230.708 163.032 231.209 162.749 231.572 162.344C231.945 161.939 232.207 161.48 232.356 160.968C232.516 160.456 232.596 159.955 232.596 159.464C232.596 158.973 232.516 158.472 232.356 157.96C232.207 157.437 231.945 156.973 231.572 156.568C231.209 156.163 230.708 155.88 230.068 155.72C229.844 155.656 229.599 155.619 229.332 155.608C229.065 155.587 228.825 155.576 228.612 155.576H223.108V163.352ZM250.185 175.48C248.5 175.48 246.98 175.187 245.625 174.6C244.281 174.013 243.172 173.176 242.297 172.088C241.433 170.989 240.884 169.688 240.649 168.184L244.649 167.576C244.99 168.941 245.689 169.997 246.745 170.744C247.812 171.491 249.038 171.864 250.425 171.864C251.246 171.864 252.02 171.736 252.745 171.48C253.47 171.224 254.057 170.851 254.505 170.36C254.964 169.869 255.193 169.267 255.193 168.552C255.193 168.232 255.14 167.939 255.033 167.672C254.926 167.395 254.766 167.149 254.553 166.936C254.35 166.723 254.084 166.531 253.753 166.36C253.433 166.179 253.06 166.024 252.633 165.896L246.681 164.136C246.169 163.987 245.614 163.789 245.017 163.544C244.43 163.288 243.87 162.941 243.337 162.504C242.814 162.056 242.382 161.491 242.041 160.808C241.71 160.115 241.545 159.261 241.545 158.248C241.545 156.765 241.918 155.523 242.665 154.52C243.422 153.507 244.436 152.749 245.705 152.248C246.985 151.747 248.404 151.501 249.961 151.512C251.54 151.523 252.948 151.795 254.185 152.328C255.422 152.851 256.457 153.613 257.289 154.616C258.121 155.619 258.708 156.829 259.049 158.248L254.905 158.968C254.734 158.157 254.404 157.469 253.913 156.904C253.433 156.328 252.841 155.891 252.137 155.592C251.444 155.293 250.702 155.133 249.913 155.112C249.145 155.101 248.43 155.219 247.769 155.464C247.118 155.699 246.59 156.04 246.185 156.488C245.79 156.936 245.593 157.459 245.593 158.056C245.593 158.621 245.764 159.085 246.105 159.448C246.446 159.8 246.868 160.083 247.369 160.296C247.881 160.499 248.398 160.669 248.921 160.808L253.049 161.96C253.614 162.109 254.249 162.312 254.953 162.568C255.657 162.824 256.334 163.181 256.985 163.64C257.636 164.099 258.169 164.701 258.585 165.448C259.012 166.195 259.225 167.144 259.225 168.296C259.225 169.491 258.974 170.541 258.473 171.448C257.982 172.344 257.316 173.091 256.473 173.688C255.63 174.285 254.665 174.733 253.577 175.032C252.5 175.331 251.369 175.48 250.185 175.48Z" fill="white"></path><path d="M125.131 212L121.74 201.703C120.948 201.714 120.136 201.635 119.302 201.469L117.474 207.875C117.235 208.708 117.115 209.411 117.115 209.984C117.115 210.422 117.266 210.766 117.568 211.016C117.797 211.203 118.422 211.339 119.443 211.422L119.302 212H111.099L111.271 211.422C112.042 211.391 112.563 211.312 112.834 211.188C113.261 211.01 113.573 210.771 113.771 210.469C114.105 209.979 114.454 209.115 114.818 207.875L118.521 195.078C118.771 194.224 118.896 193.562 118.896 193.094C118.896 192.615 118.698 192.208 118.302 191.875C117.917 191.542 117.36 191.38 116.631 191.391L116.818 190.812H123.724C126.037 190.812 127.704 191.25 128.724 192.125C129.745 193 130.256 194.151 130.256 195.578C130.256 196.943 129.73 198.193 128.677 199.328C127.636 200.453 126.204 201.167 124.381 201.469L126.443 207.672C126.943 209.193 127.443 210.182 127.943 210.641C128.443 211.099 129.25 211.359 130.365 211.422L130.193 212H125.131ZM119.568 200.578C120.235 200.672 120.829 200.719 121.349 200.719C123.141 200.719 124.558 200.224 125.599 199.234C126.641 198.234 127.162 196.995 127.162 195.516C127.162 194.359 126.834 193.474 126.177 192.859C125.532 192.245 124.558 191.938 123.256 191.938C122.922 191.938 122.526 191.979 122.068 192.062L119.568 200.578ZM143.633 202.75C143.633 204.312 143.216 205.859 142.383 207.391C141.56 208.922 140.409 210.135 138.93 211.031C137.451 211.927 136.013 212.375 134.618 212.375C133.19 212.375 132.024 211.922 131.118 211.016C130.222 210.099 129.774 208.917 129.774 207.469C129.774 205.938 130.211 204.401 131.086 202.859C131.972 201.318 133.149 200.099 134.618 199.203C136.097 198.307 137.524 197.859 138.899 197.859C140.274 197.859 141.404 198.312 142.289 199.219C143.185 200.125 143.633 201.302 143.633 202.75ZM141.039 201.672C141.039 200.703 140.8 199.964 140.321 199.453C139.852 198.932 139.243 198.672 138.493 198.672C136.961 198.672 135.55 199.771 134.258 201.969C132.977 204.156 132.336 206.333 132.336 208.5C132.336 209.49 132.586 210.255 133.086 210.797C133.586 211.328 134.216 211.594 134.977 211.594C136.446 211.594 137.821 210.505 139.102 208.328C140.394 206.141 141.039 203.922 141.039 201.672ZM151.792 189.781L146.448 208.375C146.188 209.302 146.057 209.87 146.057 210.078C146.057 210.234 146.104 210.365 146.198 210.469C146.302 210.573 146.427 210.625 146.573 210.625C146.771 210.625 146.985 210.536 147.214 210.359C147.755 209.932 148.323 209.271 148.917 208.375L149.386 208.859C148.396 210.255 147.485 211.229 146.651 211.781C146.037 212.177 145.453 212.375 144.901 212.375C144.505 212.375 144.172 212.24 143.901 211.969C143.641 211.698 143.511 211.385 143.511 211.031C143.511 210.656 143.677 209.885 144.011 208.719L148.245 194.062C148.589 192.865 148.761 192.177 148.761 192C148.761 191.75 148.662 191.547 148.464 191.391C148.266 191.224 147.959 191.141 147.542 191.141C147.302 191.141 146.938 191.177 146.448 191.25V190.672L151.792 189.781ZM152.435 206.109C152.362 206.63 152.326 207.062 152.326 207.406C152.326 208.333 152.654 209.125 153.31 209.781C153.966 210.427 154.763 210.75 155.701 210.75C156.451 210.75 157.169 210.599 157.857 210.297C158.555 209.984 159.586 209.302 160.951 208.25L161.279 208.703C158.81 211.151 156.456 212.375 154.216 212.375C152.695 212.375 151.55 211.896 150.779 210.938C150.008 209.979 149.622 208.922 149.622 207.766C149.622 206.214 150.102 204.625 151.06 203C152.018 201.375 153.221 200.115 154.669 199.219C156.117 198.312 157.607 197.859 159.138 197.859C160.242 197.859 161.06 198.083 161.591 198.531C162.122 198.979 162.388 199.51 162.388 200.125C162.388 200.99 162.044 201.818 161.357 202.609C160.451 203.641 159.117 204.474 157.357 205.109C156.19 205.536 154.55 205.87 152.435 206.109ZM152.544 205.344C154.086 205.167 155.341 204.865 156.31 204.438C157.591 203.865 158.55 203.182 159.185 202.391C159.831 201.589 160.154 200.828 160.154 200.109C160.154 199.672 160.013 199.318 159.732 199.047C159.461 198.776 159.07 198.641 158.56 198.641C157.497 198.641 156.367 199.208 155.169 200.344C153.982 201.469 153.107 203.135 152.544 205.344ZM172.799 197.859L171.721 201.453C172.857 200.12 173.867 199.188 174.753 198.656C175.648 198.125 176.56 197.859 177.487 197.859C178.414 197.859 179.206 198.229 179.862 198.969C180.518 199.698 180.846 200.651 180.846 201.828C180.846 204.12 179.914 206.453 178.049 208.828C176.185 211.193 174.013 212.375 171.534 212.375C171.013 212.375 170.549 212.318 170.143 212.203C169.747 212.089 169.299 211.885 168.799 211.594L167.659 215.625C167.43 216.417 167.315 216.932 167.315 217.172C167.315 217.401 167.372 217.594 167.487 217.75C167.612 217.917 167.81 218.042 168.081 218.125C168.351 218.219 168.888 218.266 169.69 218.266L169.549 218.844H162.19L162.346 218.266C163.315 218.224 163.971 218.057 164.315 217.766C164.648 217.474 165.003 216.667 165.378 215.344L169.331 201.656C169.57 200.792 169.69 200.255 169.69 200.047C169.69 199.766 169.607 199.547 169.44 199.391C169.284 199.234 169.039 199.156 168.706 199.156C168.404 199.156 167.982 199.193 167.44 199.266V198.656L172.799 197.859ZM169.159 210.359C169.805 211.13 170.674 211.516 171.768 211.516C172.31 211.516 172.862 211.365 173.424 211.062C173.987 210.76 174.534 210.312 175.065 209.719C175.607 209.125 176.091 208.443 176.518 207.672C176.945 206.891 177.325 205.974 177.659 204.922C178.003 203.87 178.174 202.828 178.174 201.797C178.174 200.964 177.982 200.328 177.596 199.891C177.221 199.443 176.779 199.219 176.268 199.219C175.143 199.219 174.029 199.865 172.924 201.156C171.831 202.448 171.029 203.958 170.518 205.688L169.159 210.359ZM188.677 189.781L183.333 208.375C183.073 209.302 182.943 209.87 182.943 210.078C182.943 210.234 182.989 210.365 183.083 210.469C183.187 210.573 183.312 210.625 183.458 210.625C183.656 210.625 183.87 210.536 184.099 210.359C184.64 209.932 185.208 209.271 185.802 208.375L186.271 208.859C185.281 210.255 184.37 211.229 183.536 211.781C182.922 212.177 182.338 212.375 181.786 212.375C181.39 212.375 181.057 212.24 180.786 211.969C180.526 211.698 180.396 211.385 180.396 211.031C180.396 210.656 180.562 209.885 180.896 208.719L185.13 194.062C185.474 192.865 185.646 192.177 185.646 192C185.646 191.75 185.547 191.547 185.349 191.391C185.151 191.224 184.844 191.141 184.427 191.141C184.187 191.141 183.823 191.177 183.333 191.25V190.672L188.677 189.781ZM200.523 197.859L197.476 208.453L197.133 209.875C197.101 210.01 197.086 210.125 197.086 210.219C197.086 210.385 197.138 210.531 197.242 210.656C197.325 210.75 197.429 210.797 197.554 210.797C197.69 210.797 197.867 210.714 198.086 210.547C198.492 210.245 199.034 209.62 199.711 208.672L200.242 209.047C199.523 210.13 198.784 210.958 198.023 211.531C197.263 212.094 196.56 212.375 195.914 212.375C195.466 212.375 195.127 212.26 194.898 212.031C194.679 211.812 194.57 211.49 194.57 211.062C194.57 210.552 194.685 209.88 194.914 209.047L195.242 207.875C193.877 209.656 192.622 210.901 191.476 211.609C190.653 212.12 189.846 212.375 189.054 212.375C188.294 212.375 187.638 212.062 187.086 211.438C186.534 210.802 186.258 209.932 186.258 208.828C186.258 207.172 186.752 205.427 187.742 203.594C188.742 201.75 190.008 200.276 191.539 199.172C192.737 198.297 193.867 197.859 194.929 197.859C195.565 197.859 196.091 198.026 196.508 198.359C196.935 198.693 197.258 199.245 197.476 200.016L198.039 198.234L200.523 197.859ZM194.961 198.672C194.294 198.672 193.586 198.984 192.836 199.609C191.773 200.495 190.825 201.807 189.992 203.547C189.169 205.286 188.758 206.859 188.758 208.266C188.758 208.974 188.935 209.536 189.289 209.953C189.643 210.359 190.049 210.562 190.508 210.562C191.643 210.562 192.877 209.724 194.211 208.047C195.992 205.818 196.883 203.531 196.883 201.188C196.883 200.302 196.711 199.661 196.367 199.266C196.023 198.87 195.554 198.672 194.961 198.672ZM204.057 197.859C204.411 198.464 204.656 199.031 204.791 199.562C204.927 200.083 205.062 201.115 205.198 202.656L205.885 210.344C206.51 209.594 207.416 208.406 208.604 206.781C209.177 205.99 209.885 204.911 210.729 203.547C211.239 202.714 211.552 202.13 211.666 201.797C211.729 201.63 211.76 201.458 211.76 201.281C211.76 201.167 211.724 201.073 211.651 201C211.578 200.927 211.385 200.844 211.073 200.75C210.77 200.646 210.515 200.464 210.307 200.203C210.109 199.932 210.01 199.625 210.01 199.281C210.01 198.854 210.135 198.51 210.385 198.25C210.635 197.99 210.948 197.859 211.323 197.859C211.781 197.859 212.171 198.052 212.494 198.438C212.817 198.812 212.979 199.333 212.979 200C212.979 200.823 212.698 201.766 212.135 202.828C211.573 203.88 210.489 205.5 208.885 207.688C207.281 209.875 205.338 212.26 203.057 214.844C201.484 216.625 200.317 217.745 199.557 218.203C198.796 218.672 198.145 218.906 197.604 218.906C197.281 218.906 197 218.781 196.76 218.531C196.51 218.292 196.385 218.01 196.385 217.688C196.385 217.281 196.557 216.911 196.901 216.578C197.234 216.245 197.599 216.078 197.994 216.078C198.203 216.078 198.375 216.125 198.51 216.219C198.593 216.271 198.687 216.417 198.791 216.656C198.885 216.906 198.974 217.073 199.057 217.156C199.109 217.208 199.171 217.234 199.244 217.234C199.307 217.234 199.416 217.182 199.573 217.078C200.145 216.724 200.812 216.161 201.573 215.391C202.573 214.37 203.312 213.536 203.791 212.891L202.916 202.984C202.77 201.349 202.552 200.354 202.26 200C201.968 199.646 201.479 199.469 200.791 199.469C200.573 199.469 200.182 199.5 199.619 199.562L199.479 198.984L204.057 197.859Z" fill="white"></path></g><defs><clipPath id="clip0_1291_918"><rect width="325" height="325" rx="10" fill="white"></rect></clipPath></defs></svg> 