<?xml version="1.0" encoding="UTF-8"?> <svg xmlns="http://www.w3.org/2000/svg" width="325" height="325" viewBox="0 0 325 325" fill="none"><rect width="325" height="325" rx="10" fill="#215195"></rect><mask id="mask0_951_3147" style="mask-type:alpha" maskUnits="userSpaceOnUse" x="0" y="0" width="325" height="325"><rect width="325" height="325" rx="10" fill="#FF7EB3"></rect></mask><g mask="url(#mask0_951_3147)"><g filter="url(#filter0_d_951_3147)"><path d="M85.9532 -11.8949C55.7617 -1.81346 33.7992 23.4611 17.1473 46.2631C11.4244 54.0998 -26.2759 99.8156 0.51393 104.421C14.7694 106.872 30.5979 103.707 43.8698 99.4498C75.8179 89.2021 105.712 71.485 131.4 52.3394C139.186 46.5356 203.374 -3.74212 172.483 -14.6569C160.739 -18.8065 144.369 -16.8314 132.854 -13.4732C101.048 -4.19736 74.9815 18.4335 58.6854 43.3434C45.8699 62.9328 39.4749 84.9158 38.1436 107.262C37.1311 124.256 38.7077 143.887 55.9586 154.846C72.5283 165.372 92.8056 164.298 111.767 159.502C152.914 149.093 190.8 126.392 225.019 104.737C264.201 79.9418 302.48 53.58 333 20.7746" stroke="#042F6B" stroke-width="50" stroke-linecap="round" shape-rendering="crispEdges"></path></g><g filter="url(#filter1_d_951_3147)"><path d="M337.061 129C301.388 140.247 267.563 167.145 236.098 191.334C218.101 205.169 199.496 219.272 183.717 237.63C173.494 249.525 160.877 266.182 163.303 286.386C168.92 333.158 209.188 330.627 233.724 314.292C257.577 298.412 277.385 271.004 296.628 246.826C307.512 233.15 318.061 219.163 328.199 204.485C330.124 201.698 342.461 182.378 331.047 191.869C318.458 202.338 310.806 229.467 312.216 248.75C313.916 272.01 335.547 288.663 349.088 298.361C366.341 310.718 384.721 316.159 404 317.606" stroke="#042F6B" stroke-width="50" stroke-linecap="round" shape-rendering="crispEdges"></path></g></g><path d="M90.1506 156V132.96H99.6706C99.8946 132.96 100.183 132.971 100.535 132.992C100.887 133.003 101.212 133.035 101.511 133.088C102.844 133.291 103.943 133.733 104.807 134.416C105.681 135.099 106.327 135.963 106.743 137.008C107.169 138.043 107.383 139.195 107.383 140.464C107.383 141.723 107.169 142.875 106.743 143.92C106.316 144.955 105.665 145.813 104.791 146.496C103.927 147.179 102.833 147.621 101.511 147.824C101.212 147.867 100.881 147.899 100.519 147.92C100.167 147.941 99.884 147.952 99.6706 147.952H94.0066V156H90.1506ZM94.0066 144.352H99.5106C99.724 144.352 99.964 144.341 100.231 144.32C100.497 144.299 100.743 144.256 100.967 144.192C101.607 144.032 102.108 143.749 102.471 143.344C102.844 142.939 103.105 142.48 103.255 141.968C103.415 141.456 103.495 140.955 103.495 140.464C103.495 139.973 103.415 139.472 103.255 138.96C103.105 138.437 102.844 137.973 102.471 137.568C102.108 137.163 101.607 136.88 100.967 136.72C100.743 136.656 100.497 136.619 100.231 136.608C99.964 136.587 99.724 136.576 99.5106 136.576H94.0066V144.352ZM111.868 156V132.96H121.388C121.612 132.96 121.9 132.971 122.252 132.992C122.604 133.003 122.929 133.035 123.228 133.088C124.561 133.291 125.66 133.733 126.524 134.416C127.399 135.099 128.044 135.963 128.46 137.008C128.887 138.043 129.1 139.195 129.1 140.464C129.1 142.341 128.625 143.957 127.676 145.312C126.727 146.656 125.271 147.488 123.308 147.808L121.66 147.952H115.724V156H111.868ZM125.1 156L120.556 146.624L124.476 145.76L129.468 156H125.1ZM115.724 144.352H121.228C121.441 144.352 121.681 144.341 121.948 144.32C122.215 144.299 122.46 144.256 122.684 144.192C123.324 144.032 123.825 143.749 124.188 143.344C124.561 142.939 124.823 142.48 124.972 141.968C125.132 141.456 125.212 140.955 125.212 140.464C125.212 139.973 125.132 139.472 124.972 138.96C124.823 138.437 124.561 137.973 124.188 137.568C123.825 137.163 123.324 136.88 122.684 136.72C122.46 136.656 122.215 136.619 121.948 136.608C121.681 136.587 121.441 136.576 121.228 136.576H115.724V144.352ZM134.273 156V132.96H149.153V136.576H138.129V142.256H147.233V145.872H138.129V152.384H149.153V156H134.273ZM162.581 156.48C160.896 156.48 159.376 156.187 158.021 155.6C156.677 155.013 155.568 154.176 154.693 153.088C153.829 151.989 153.28 150.688 153.045 149.184L157.045 148.576C157.386 149.941 158.085 150.997 159.141 151.744C160.208 152.491 161.434 152.864 162.821 152.864C163.642 152.864 164.416 152.736 165.141 152.48C165.866 152.224 166.453 151.851 166.901 151.36C167.36 150.869 167.589 150.267 167.589 149.552C167.589 149.232 167.536 148.939 167.429 148.672C167.322 148.395 167.162 148.149 166.949 147.936C166.746 147.723 166.48 147.531 166.149 147.36C165.829 147.179 165.456 147.024 165.029 146.896L159.077 145.136C158.565 144.987 158.01 144.789 157.413 144.544C156.826 144.288 156.266 143.941 155.733 143.504C155.21 143.056 154.778 142.491 154.437 141.808C154.106 141.115 153.941 140.261 153.941 139.248C153.941 137.765 154.314 136.523 155.061 135.52C155.818 134.507 156.832 133.749 158.101 133.248C159.381 132.747 160.8 132.501 162.357 132.512C163.936 132.523 165.344 132.795 166.581 133.328C167.818 133.851 168.853 134.613 169.685 135.616C170.517 136.619 171.104 137.829 171.445 139.248L167.301 139.968C167.13 139.157 166.8 138.469 166.309 137.904C165.829 137.328 165.237 136.891 164.533 136.592C163.84 136.293 163.098 136.133 162.309 136.112C161.541 136.101 160.826 136.219 160.165 136.464C159.514 136.699 158.986 137.04 158.581 137.488C158.186 137.936 157.989 138.459 157.989 139.056C157.989 139.621 158.16 140.085 158.501 140.448C158.842 140.8 159.264 141.083 159.765 141.296C160.277 141.499 160.794 141.669 161.317 141.808L165.445 142.96C166.01 143.109 166.645 143.312 167.349 143.568C168.053 143.824 168.73 144.181 169.381 144.64C170.032 145.099 170.565 145.701 170.981 146.448C171.408 147.195 171.621 148.144 171.621 149.296C171.621 150.491 171.37 151.541 170.869 152.448C170.378 153.344 169.712 154.091 168.869 154.688C168.026 155.285 167.061 155.733 165.973 156.032C164.896 156.331 163.765 156.48 162.581 156.48ZM176.364 156V132.96H191.244V136.576H180.22V142.256H189.324V145.872H180.22V152.384H191.244V156H176.364ZM196.363 156V132.96H200.267L210.955 149.2V132.96H214.859V156H210.955L200.267 139.76V156H196.363ZM226.148 156V136.576H218.692V132.96H237.46V136.576H230.004V156H226.148ZM63.224 194.48C60.92 194.48 58.9467 193.979 57.304 192.976C55.6613 191.963 54.3973 190.555 53.512 188.752C52.6373 186.949 52.2 184.859 52.2 182.48C52.2 180.101 52.6373 178.011 53.512 176.208C54.3973 174.405 55.6613 173.003 57.304 172C58.9467 170.987 60.92 170.48 63.224 170.48C65.88 170.48 68.0933 171.147 69.864 172.48C71.6347 173.803 72.8773 175.589 73.592 177.84L69.704 178.912C69.256 177.408 68.4933 176.235 67.416 175.392C66.3387 174.539 64.9413 174.112 63.224 174.112C61.6773 174.112 60.3867 174.459 59.352 175.152C58.328 175.845 57.5547 176.821 57.032 178.08C56.52 179.328 56.2587 180.795 56.248 182.48C56.248 184.165 56.504 185.637 57.016 186.896C57.5387 188.144 58.3173 189.115 59.352 189.808C60.3867 190.501 61.6773 190.848 63.224 190.848C64.9413 190.848 66.3387 190.421 67.416 189.568C68.4933 188.715 69.256 187.541 69.704 186.048L73.592 187.12C72.8773 189.371 71.6347 191.163 69.864 192.496C68.0933 193.819 65.88 194.48 63.224 194.48ZM88.129 194.48C85.825 194.48 83.8517 193.979 82.209 192.976C80.5663 191.963 79.3023 190.555 78.417 188.752C77.5423 186.949 77.105 184.859 77.105 182.48C77.105 180.101 77.5423 178.011 78.417 176.208C79.3023 174.405 80.5663 173.003 82.209 172C83.8517 170.987 85.825 170.48 88.129 170.48C90.433 170.48 92.4063 170.987 94.049 172C95.7023 173.003 96.9663 174.405 97.841 176.208C98.7263 178.011 99.169 180.101 99.169 182.48C99.169 184.859 98.7263 186.949 97.841 188.752C96.9663 190.555 95.7023 191.963 94.049 192.976C92.4063 193.979 90.433 194.48 88.129 194.48ZM88.129 190.848C89.6757 190.859 90.961 190.517 91.985 189.824C93.0197 189.131 93.793 188.155 94.305 186.896C94.8277 185.637 95.089 184.165 95.089 182.48C95.089 180.795 94.8277 179.333 94.305 178.096C93.793 176.848 93.0197 175.877 91.985 175.184C90.961 174.491 89.6757 174.133 88.129 174.112C86.5823 174.101 85.297 174.443 84.273 175.136C83.249 175.829 82.4757 176.805 81.953 178.064C81.441 179.323 81.185 180.795 81.185 182.48C81.185 184.165 81.441 185.632 81.953 186.88C82.465 188.117 83.233 189.083 84.257 189.776C85.2917 190.469 86.5823 190.827 88.129 190.848ZM103.634 194V170.96H107.538L118.226 187.2V170.96H122.13V194H118.226L107.538 177.76V194H103.634ZM133.418 194V174.576H125.962V170.96H144.73V174.576H137.274V194H133.418ZM148.889 194V170.96H152.745V194H148.889ZM158.817 194V170.96H162.721L173.41 187.2V170.96H177.313V194H173.41L162.721 177.76V194H158.817ZM192.346 194.48C190.512 194.48 188.896 194.107 187.498 193.36C186.112 192.613 185.024 191.563 184.234 190.208C183.456 188.853 183.066 187.264 183.066 185.44V170.992L186.97 170.96V185.344C186.97 186.208 187.114 186.981 187.402 187.664C187.701 188.347 188.101 188.928 188.602 189.408C189.104 189.877 189.68 190.235 190.33 190.48C190.981 190.725 191.653 190.848 192.346 190.848C193.061 190.848 193.738 190.725 194.378 190.48C195.029 190.224 195.605 189.861 196.106 189.392C196.608 188.912 197.002 188.331 197.29 187.648C197.578 186.965 197.722 186.197 197.722 185.344V170.96H201.626V185.44C201.626 187.264 201.232 188.853 200.442 190.208C199.664 191.563 198.576 192.613 197.178 193.36C195.792 194.107 194.181 194.48 192.346 194.48ZM217.122 194.48C214.818 194.48 212.844 193.979 211.202 192.976C209.559 191.963 208.295 190.555 207.41 188.752C206.535 186.949 206.098 184.859 206.098 182.48C206.098 180.101 206.535 178.011 207.41 176.208C208.295 174.405 209.559 173.003 211.202 172C212.844 170.987 214.818 170.48 217.122 170.48C219.426 170.48 221.399 170.987 223.042 172C224.695 173.003 225.959 174.405 226.834 176.208C227.719 178.011 228.162 180.101 228.162 182.48C228.162 184.859 227.719 186.949 226.834 188.752C225.959 190.555 224.695 191.963 223.042 192.976C221.399 193.979 219.426 194.48 217.122 194.48ZM217.122 190.848C218.668 190.859 219.954 190.517 220.978 189.824C222.012 189.131 222.786 188.155 223.298 186.896C223.82 185.637 224.082 184.165 224.082 182.48C224.082 180.795 223.82 179.333 223.298 178.096C222.786 176.848 222.012 175.877 220.978 175.184C219.954 174.491 218.668 174.133 217.122 174.112C215.575 174.101 214.29 174.443 213.266 175.136C212.242 175.829 211.468 176.805 210.946 178.064C210.434 179.323 210.178 180.795 210.178 182.48C210.178 184.165 210.434 185.632 210.946 186.88C211.458 188.117 212.226 189.083 213.25 189.776C214.284 190.469 215.575 190.827 217.122 190.848ZM241.906 194.48C240.072 194.48 238.456 194.107 237.058 193.36C235.672 192.613 234.584 191.563 233.794 190.208C233.016 188.853 232.626 187.264 232.626 185.44V170.992L236.53 170.96V185.344C236.53 186.208 236.674 186.981 236.962 187.664C237.261 188.347 237.661 188.928 238.162 189.408C238.664 189.877 239.24 190.235 239.89 190.48C240.541 190.725 241.213 190.848 241.906 190.848C242.621 190.848 243.298 190.725 243.938 190.48C244.589 190.224 245.165 189.861 245.666 189.392C246.168 188.912 246.562 188.331 246.85 187.648C247.138 186.965 247.282 186.197 247.282 185.344V170.96H251.186V185.44C251.186 187.264 250.792 188.853 250.002 190.208C249.224 191.563 248.136 192.613 246.738 193.36C245.352 194.107 243.741 194.48 241.906 194.48ZM264.497 194.48C262.811 194.48 261.291 194.187 259.937 193.6C258.593 193.013 257.483 192.176 256.609 191.088C255.745 189.989 255.195 188.688 254.961 187.184L258.961 186.576C259.302 187.941 260.001 188.997 261.057 189.744C262.123 190.491 263.35 190.864 264.737 190.864C265.558 190.864 266.331 190.736 267.057 190.48C267.782 190.224 268.369 189.851 268.817 189.36C269.275 188.869 269.505 188.267 269.505 187.552C269.505 187.232 269.451 186.939 269.345 186.672C269.238 186.395 269.078 186.149 268.865 185.936C268.662 185.723 268.395 185.531 268.065 185.36C267.745 185.179 267.371 185.024 266.945 184.896L260.993 183.136C260.481 182.987 259.926 182.789 259.329 182.544C258.742 182.288 258.182 181.941 257.649 181.504C257.126 181.056 256.694 180.491 256.353 179.808C256.022 179.115 255.857 178.261 255.857 177.248C255.857 175.765 256.23 174.523 256.977 173.52C257.734 172.507 258.747 171.749 260.017 171.248C261.297 170.747 262.715 170.501 264.273 170.512C265.851 170.523 267.259 170.795 268.497 171.328C269.734 171.851 270.769 172.613 271.601 173.616C272.433 174.619 273.019 175.829 273.361 177.248L269.217 177.968C269.046 177.157 268.715 176.469 268.225 175.904C267.745 175.328 267.153 174.891 266.449 174.592C265.755 174.293 265.014 174.133 264.225 174.112C263.457 174.101 262.742 174.219 262.081 174.464C261.43 174.699 260.902 175.04 260.497 175.488C260.102 175.936 259.905 176.459 259.905 177.056C259.905 177.621 260.075 178.085 260.417 178.448C260.758 178.8 261.179 179.083 261.681 179.296C262.193 179.499 262.71 179.669 263.233 179.808L267.361 180.96C267.926 181.109 268.561 181.312 269.265 181.568C269.969 181.824 270.646 182.181 271.297 182.64C271.947 183.099 272.481 183.701 272.897 184.448C273.323 185.195 273.537 186.144 273.537 187.296C273.537 188.491 273.286 189.541 272.785 190.448C272.294 191.344 271.627 192.091 270.785 192.688C269.942 193.285 268.977 193.733 267.889 194.032C266.811 194.331 265.681 194.48 264.497 194.48Z" fill="white"></path><defs><filter id="filter0_d_951_3147" x="-52" y="-51.999" width="428" height="265.996" filterUnits="userSpaceOnUse" color-interpolation-filters="sRGB"><feFlood flood-opacity="0" result="BackgroundImageFix"></feFlood><feColorMatrix in="SourceAlpha" type="matrix" values="0 0 0 0 0 0 0 0 0 0 0 0 0 0 0 0 0 0 127 0" result="hardAlpha"></feColorMatrix><feOffset dy="8"></feOffset><feGaussianBlur stdDeviation="9"></feGaussianBlur><feComposite in2="hardAlpha" operator="out"></feComposite><feColorMatrix type="matrix" values="0 0 0 0 0 0 0 0 0 0 0 0 0 0 0 0 0 0 0.15 0"></feColorMatrix><feBlend mode="normal" in2="BackgroundImageFix" result="effect1_dropShadow_951_3147"></feBlend><feBlend mode="normal" in="SourceGraphic" in2="effect1_dropShadow_951_3147" result="shape"></feBlend></filter><filter id="filter1_d_951_3147" x="119.998" y="93.9932" width="327.004" height="282.017" filterUnits="userSpaceOnUse" color-interpolation-filters="sRGB"><feFlood flood-opacity="0" result="BackgroundImageFix"></feFlood><feColorMatrix in="SourceAlpha" type="matrix" values="0 0 0 0 0 0 0 0 0 0 0 0 0 0 0 0 0 0 127 0" result="hardAlpha"></feColorMatrix><feOffset dy="8"></feOffset><feGaussianBlur stdDeviation="9"></feGaussianBlur><feComposite in2="hardAlpha" operator="out"></feComposite><feColorMatrix type="matrix" values="0 0 0 0 0 0 0 0 0 0 0 0 0 0 0 0 0 0 0.15 0"></feColorMatrix><feBlend mode="normal" in2="BackgroundImageFix" result="effect1_dropShadow_951_3147"></feBlend><feBlend mode="normal" in="SourceGraphic" in2="effect1_dropShadow_951_3147" result="shape"></feBlend></filter></defs></svg> 