<?xml version="1.0" encoding="UTF-8"?> <svg xmlns="http://www.w3.org/2000/svg" width="325" height="325" viewBox="0 0 325 325" fill="none"><rect width="325" height="325" rx="10" fill="#592C89"></rect><mask id="mask0_1216_2707" style="mask-type:alpha" maskUnits="userSpaceOnUse" x="0" y="0" width="325" height="325"><rect width="325" height="325" rx="10" fill="#704657"></rect></mask><g mask="url(#mask0_1216_2707)"><g filter="url(#filter0_d_1216_2707)"><path d="M-87.5397 85.9443C-113.081 125.423 -114.465 176.751 -112.027 220.255C-111.189 235.206 -111.332 326.252 -75.6805 308.3C-56.7094 298.748 -41.2866 280.723 -29.8914 263.588C-2.46101 222.343 15.4153 173.505 27.0174 126.597C30.5344 112.378 57.19 -7.90581 10.7092 5.73159C-6.96205 10.9163 -24.1571 27.9221 -34.365 42.3653C-62.561 82.2599 -71.2646 133.896 -66.3914 179.741C-62.559 215.793 -48.9461 249.169 -29.0807 278.512C-13.9732 300.827 6.6805 324.17 37.2989 322.683C66.7084 321.256 89.3231 301.921 106.835 279.062C144.837 229.456 167.255 167.25 186.401 109.614C208.322 43.6206 227.691 -23.5478 231.835 -91.9558" stroke="#8D56CA" stroke-width="50" stroke-linecap="round" shape-rendering="crispEdges"></path></g><g filter="url(#filter1_d_1216_2707)"><path d="M451.897 129C392.69 149.142 336.549 197.311 284.324 240.629C254.455 265.405 223.575 290.661 197.386 323.537C180.417 344.839 159.476 374.667 163.504 410.849C172.826 494.609 239.661 490.077 280.384 460.824C319.975 432.385 352.851 383.302 384.789 340.004C402.855 315.513 420.362 290.466 437.189 264.18C440.385 259.188 460.86 224.59 441.917 241.587C421.021 260.335 408.322 308.918 410.661 343.45C413.482 385.104 449.385 414.927 471.859 432.294C500.496 454.423 531.001 464.168 563 466.76" stroke="#8D56CA" stroke-width="50" stroke-linecap="round" shape-rendering="crispEdges"></path></g></g><path d="M69.1612 159V135.96H73.0173V159H69.1612ZM79.09 159V135.96H82.994L93.682 152.2V135.96H97.586V159H93.682L82.994 142.76V159H79.09ZM103.339 159V135.96H117.211V139.816H107.195V145.56H115.291V149.4H107.195V159H103.339ZM121.689 159V135.96H125.545V159H121.689ZM131.618 159V135.96H135.522L146.21 152.2V135.96H150.114V159H146.21L135.522 142.76V159H131.618ZM156.186 159V135.96H160.042V159H156.186ZM171.651 159V139.576H164.195V135.96H182.963V139.576H175.507V159H171.651ZM187.121 159V135.96H190.977V159H187.121ZM202.234 159L194.97 135.96H198.938L205.018 155.256L211.178 135.96H215.146L207.882 159H202.234ZM218.83 159V135.96H233.71V139.576H222.686V145.256H231.79V148.872H222.686V155.384H233.71V159H218.83ZM252.339 135.96H256.211L250.067 159H246.195L252.339 135.96ZM105.7 191.48C104.207 191.48 102.804 191.219 101.492 190.696C100.191 190.163 99.0443 189.384 98.0523 188.36C97.0709 187.336 96.3029 186.083 95.7483 184.6C95.1936 183.107 94.9163 181.4 94.9163 179.48C94.9163 176.963 95.3856 174.813 96.3243 173.032C97.2629 171.24 98.5483 169.869 100.18 168.92C101.812 167.96 103.652 167.48 105.7 167.48C108.538 167.48 110.783 168.141 112.436 169.464C114.1 170.776 115.226 172.621 115.812 175L111.876 175.624C111.439 174.259 110.724 173.171 109.732 172.36C108.74 171.539 107.476 171.128 105.94 171.128C104.394 171.107 103.108 171.443 102.084 172.136C101.06 172.829 100.287 173.805 99.7643 175.064C99.2523 176.323 98.9963 177.795 98.9963 179.48C98.9963 181.165 99.2523 182.632 99.7643 183.88C100.276 185.117 101.044 186.083 102.068 186.776C103.103 187.469 104.394 187.827 105.94 187.848C107.103 187.859 108.122 187.651 108.996 187.224C109.871 186.787 110.586 186.131 111.14 185.256C111.695 184.371 112.068 183.267 112.26 181.944H108.196V178.92H116.356C116.378 179.091 116.394 179.341 116.404 179.672C116.415 180.003 116.42 180.2 116.42 180.264C116.42 182.44 115.988 184.376 115.124 186.072C114.271 187.757 113.044 189.08 111.444 190.04C109.844 191 107.93 191.48 105.7 191.48ZM120.914 191V167.96H135.794V171.576H124.77V177.256H133.874V180.872H124.77V187.384H135.794V191H120.914ZM140.913 191V167.96H150.433C150.657 167.96 150.945 167.971 151.297 167.992C151.649 168.003 151.974 168.035 152.273 168.088C153.606 168.291 154.705 168.733 155.569 169.416C156.443 170.099 157.089 170.963 157.505 172.008C157.931 173.043 158.145 174.195 158.145 175.464C158.145 177.341 157.67 178.957 156.721 180.312C155.771 181.656 154.315 182.488 152.353 182.808L150.705 182.952H144.769V191H140.913ZM154.145 191L149.601 181.624L153.521 180.76L158.513 191H154.145ZM144.769 179.352H150.273C150.486 179.352 150.726 179.341 150.993 179.32C151.259 179.299 151.505 179.256 151.729 179.192C152.369 179.032 152.87 178.749 153.233 178.344C153.606 177.939 153.867 177.48 154.017 176.968C154.177 176.456 154.257 175.955 154.257 175.464C154.257 174.973 154.177 174.472 154.017 173.96C153.867 173.437 153.606 172.973 153.233 172.568C152.87 172.163 152.369 171.88 151.729 171.72C151.505 171.656 151.259 171.619 150.993 171.608C150.726 171.587 150.486 171.576 150.273 171.576H144.769V179.352ZM172.597 191.48C170.763 191.48 169.147 191.107 167.749 190.36C166.363 189.613 165.275 188.563 164.485 187.208C163.707 185.853 163.317 184.264 163.317 182.44V167.992L167.221 167.96V182.344C167.221 183.208 167.365 183.981 167.653 184.664C167.952 185.347 168.352 185.928 168.853 186.408C169.355 186.877 169.931 187.235 170.582 187.48C171.232 187.725 171.904 187.848 172.597 187.848C173.312 187.848 173.99 187.725 174.63 187.48C175.28 187.224 175.856 186.861 176.358 186.392C176.859 185.912 177.254 185.331 177.542 184.648C177.829 183.965 177.973 183.197 177.973 182.344V167.96H181.878V182.44C181.878 184.264 181.483 185.853 180.694 187.208C179.915 188.563 178.827 189.613 177.43 190.36C176.043 191.107 174.432 191.48 172.597 191.48ZM187.629 191V167.96H191.533L202.221 184.2V167.96H206.125V191H202.221L191.533 174.76V191H187.629ZM211.878 191V167.96H219.222C219.414 167.96 219.792 167.965 220.358 167.976C220.934 167.987 221.488 168.024 222.022 168.088C223.846 168.323 225.387 168.973 226.646 170.04C227.915 171.096 228.875 172.445 229.526 174.088C230.176 175.731 230.502 177.528 230.502 179.48C230.502 181.432 230.176 183.229 229.526 184.872C228.875 186.515 227.915 187.869 226.646 188.936C225.387 189.992 223.846 190.637 222.022 190.872C221.499 190.936 220.95 190.973 220.374 190.984C219.798 190.995 219.414 191 219.222 191H211.878ZM215.798 187.368H219.222C219.542 187.368 219.947 187.357 220.438 187.336C220.939 187.315 221.382 187.267 221.766 187.192C222.854 186.989 223.739 186.504 224.422 185.736C225.104 184.968 225.606 184.035 225.926 182.936C226.256 181.837 226.422 180.685 226.422 179.48C226.422 178.232 226.256 177.059 225.926 175.96C225.595 174.861 225.083 173.939 224.39 173.192C223.707 172.445 222.832 171.971 221.766 171.768C221.382 171.683 220.939 171.635 220.438 171.624C219.947 171.603 219.542 171.592 219.222 171.592H215.798V187.368Z" fill="white"></path><defs><filter id="filter0_d_1216_2707" x="-155.881" y="-126.957" width="430.717" height="500.711" filterUnits="userSpaceOnUse" color-interpolation-filters="sRGB"><feFlood flood-opacity="0" result="BackgroundImageFix"></feFlood><feColorMatrix in="SourceAlpha" type="matrix" values="0 0 0 0 0 0 0 0 0 0 0 0 0 0 0 0 0 0 127 0" result="hardAlpha"></feColorMatrix><feOffset dy="8"></feOffset><feGaussianBlur stdDeviation="9"></feGaussianBlur><feComposite in2="hardAlpha" operator="out"></feComposite><feColorMatrix type="matrix" values="0 0 0 0 0 0 0 0 0 0 0 0 0 0 0 0 0 0 0.15 0"></feColorMatrix><feBlend mode="normal" in2="BackgroundImageFix" result="effect1_dropShadow_1216_2707"></feBlend><feBlend mode="normal" in="SourceGraphic" in2="effect1_dropShadow_1216_2707" result="shape"></feBlend></filter><filter id="filter1_d_1216_2707" x="119.998" y="93.9932" width="486.004" height="437.021" filterUnits="userSpaceOnUse" color-interpolation-filters="sRGB"><feFlood flood-opacity="0" result="BackgroundImageFix"></feFlood><feColorMatrix in="SourceAlpha" type="matrix" values="0 0 0 0 0 0 0 0 0 0 0 0 0 0 0 0 0 0 127 0" result="hardAlpha"></feColorMatrix><feOffset dy="8"></feOffset><feGaussianBlur stdDeviation="9"></feGaussianBlur><feComposite in2="hardAlpha" operator="out"></feComposite><feColorMatrix type="matrix" values="0 0 0 0 0 0 0 0 0 0 0 0 0 0 0 0 0 0 0.15 0"></feColorMatrix><feBlend mode="normal" in2="BackgroundImageFix" result="effect1_dropShadow_1216_2707"></feBlend><feBlend mode="normal" in="SourceGraphic" in2="effect1_dropShadow_1216_2707" result="shape"></feBlend></filter></defs></svg> 