<?xml version="1.0" encoding="UTF-8"?> <svg xmlns="http://www.w3.org/2000/svg" width="325" height="325" viewBox="0 0 325 325" fill="none"><g clip-path="url(#clip0_1209_2745)"><rect width="325" height="325" rx="10" fill="white"></rect><rect width="325" height="325" rx="10" fill="#EE5D80"></rect><mask id="mask0_1209_2745" style="mask-type:alpha" maskUnits="userSpaceOnUse" x="0" y="0" width="325" height="325"><rect width="325" height="325" rx="10" fill="#FF7EB3"></rect></mask><g mask="url(#mask0_1209_2745)"><g filter="url(#filter0_d_1209_2745)"><path d="M24.1484 408.544C76.344 411.912 144.939 373.59 203.159 336.264C223.168 323.436 344.893 252.357 321.711 218.572C309.375 200.594 285.63 194.009 262.983 192.132C208.468 187.612 143.583 201.856 81.134 223.008C62.2033 229.419 -98.0032 287.811 -80.8381 339.504C-74.3123 359.156 -51.9707 368.917 -32.8947 371.308C19.7963 377.912 88.6339 349.17 150.04 306.744C198.33 273.38 243.266 228.987 282.954 179.362C313.137 141.622 344.821 95.6365 343.537 55.7161C342.304 17.3719 316.974 2.16213 286.813 -3.44117C221.363 -15.6007 138.71 3.01276 62.0902 22.4406C-25.6395 44.6857 -114.998 71.2763 -206.364 119.265" stroke="#C53457" stroke-width="50" stroke-linecap="round" shape-rendering="crispEdges"></path></g></g><path d="M89.8063 137V113.96H99.3263C99.5503 113.96 99.8383 113.971 100.19 113.992C100.542 114.003 100.868 114.035 101.166 114.088C102.5 114.291 103.598 114.733 104.462 115.416C105.337 116.099 105.982 116.963 106.398 118.008C106.825 119.043 107.038 120.195 107.038 121.464C107.038 122.723 106.825 123.875 106.398 124.92C105.972 125.955 105.321 126.813 104.446 127.496C103.582 128.179 102.489 128.621 101.166 128.824C100.868 128.867 100.537 128.899 100.174 128.92C99.8223 128.941 99.5396 128.952 99.3263 128.952H93.6623V137H89.8063ZM93.6623 125.352H99.1663C99.3796 125.352 99.6196 125.341 99.8863 125.32C100.153 125.299 100.398 125.256 100.622 125.192C101.262 125.032 101.764 124.749 102.126 124.344C102.5 123.939 102.761 123.48 102.91 122.968C103.07 122.456 103.15 121.955 103.15 121.464C103.15 120.973 103.07 120.472 102.91 119.96C102.761 119.437 102.5 118.973 102.126 118.568C101.764 118.163 101.262 117.88 100.622 117.72C100.398 117.656 100.153 117.619 99.8863 117.608C99.6196 117.587 99.3796 117.576 99.1663 117.576H93.6623V125.352ZM111.524 137V113.96H121.044C121.268 113.96 121.556 113.971 121.908 113.992C122.26 114.003 122.585 114.035 122.884 114.088C124.217 114.291 125.316 114.733 126.18 115.416C127.054 116.099 127.7 116.963 128.116 118.008C128.542 119.043 128.756 120.195 128.756 121.464C128.756 123.341 128.281 124.957 127.332 126.312C126.382 127.656 124.926 128.488 122.964 128.808L121.316 128.952H115.38V137H111.524ZM124.756 137L120.212 127.624L124.132 126.76L129.124 137H124.756ZM115.38 125.352H120.884C121.097 125.352 121.337 125.341 121.604 125.32C121.87 125.299 122.116 125.256 122.34 125.192C122.98 125.032 123.481 124.749 123.844 124.344C124.217 123.939 124.478 123.48 124.628 122.968C124.788 122.456 124.868 121.955 124.868 121.464C124.868 120.973 124.788 120.472 124.628 119.96C124.478 119.437 124.217 118.973 123.844 118.568C123.481 118.163 122.98 117.88 122.34 117.72C122.116 117.656 121.87 117.619 121.604 117.608C121.337 117.587 121.097 117.576 120.884 117.576H115.38V125.352ZM133.929 137V113.96H148.809V117.576H137.785V123.256H146.889V126.872H137.785V133.384H148.809V137H133.929ZM162.237 137.48C160.551 137.48 159.031 137.187 157.677 136.6C156.333 136.013 155.223 135.176 154.349 134.088C153.485 132.989 152.935 131.688 152.701 130.184L156.701 129.576C157.042 130.941 157.741 131.997 158.797 132.744C159.863 133.491 161.09 133.864 162.477 133.864C163.298 133.864 164.071 133.736 164.797 133.48C165.522 133.224 166.109 132.851 166.557 132.36C167.015 131.869 167.245 131.267 167.245 130.552C167.245 130.232 167.191 129.939 167.085 129.672C166.978 129.395 166.818 129.149 166.605 128.936C166.402 128.723 166.135 128.531 165.805 128.36C165.485 128.179 165.111 128.024 164.685 127.896L158.733 126.136C158.221 125.987 157.666 125.789 157.069 125.544C156.482 125.288 155.922 124.941 155.389 124.504C154.866 124.056 154.434 123.491 154.093 122.808C153.762 122.115 153.597 121.261 153.597 120.248C153.597 118.765 153.97 117.523 154.717 116.52C155.474 115.507 156.487 114.749 157.757 114.248C159.037 113.747 160.455 113.501 162.013 113.512C163.591 113.523 164.999 113.795 166.237 114.328C167.474 114.851 168.509 115.613 169.341 116.616C170.173 117.619 170.759 118.829 171.101 120.248L166.957 120.968C166.786 120.157 166.455 119.469 165.965 118.904C165.485 118.328 164.893 117.891 164.189 117.592C163.495 117.293 162.754 117.133 161.965 117.112C161.197 117.101 160.482 117.219 159.821 117.464C159.17 117.699 158.642 118.04 158.237 118.488C157.842 118.936 157.645 119.459 157.645 120.056C157.645 120.621 157.815 121.085 158.157 121.448C158.498 121.8 158.919 122.083 159.421 122.296C159.933 122.499 160.45 122.669 160.973 122.808L165.101 123.96C165.666 124.109 166.301 124.312 167.005 124.568C167.709 124.824 168.386 125.181 169.037 125.64C169.687 126.099 170.221 126.701 170.637 127.448C171.063 128.195 171.277 129.144 171.277 130.296C171.277 131.491 171.026 132.541 170.525 133.448C170.034 134.344 169.367 135.091 168.525 135.688C167.682 136.285 166.717 136.733 165.629 137.032C164.551 137.331 163.421 137.48 162.237 137.48ZM176.02 137V113.96H190.9V117.576H179.876V123.256H188.98V126.872H179.876V133.384H190.9V137H176.02ZM196.019 137V113.96H199.923L210.611 130.2V113.96H214.515V137H210.611L199.923 120.76V137H196.019ZM225.803 137V117.576H218.347V113.96H237.115V117.576H229.659V137H225.803ZM91.9156 175V151.96H101.436C101.66 151.96 101.948 151.971 102.3 151.992C102.652 152.003 102.977 152.035 103.276 152.088C104.609 152.291 105.708 152.733 106.572 153.416C107.446 154.099 108.092 154.963 108.508 156.008C108.934 157.043 109.148 158.195 109.148 159.464C109.148 160.723 108.934 161.875 108.508 162.92C108.081 163.955 107.43 164.813 106.556 165.496C105.692 166.179 104.598 166.621 103.276 166.824C102.977 166.867 102.646 166.899 102.284 166.92C101.932 166.941 101.649 166.952 101.436 166.952H95.7716V175H91.9156ZM95.7716 163.352H101.276C101.489 163.352 101.729 163.341 101.996 163.32C102.262 163.299 102.508 163.256 102.732 163.192C103.372 163.032 103.873 162.749 104.236 162.344C104.609 161.939 104.87 161.48 105.02 160.968C105.18 160.456 105.26 159.955 105.26 159.464C105.26 158.973 105.18 158.472 105.02 157.96C104.87 157.437 104.609 156.973 104.236 156.568C103.873 156.163 103.372 155.88 102.732 155.72C102.508 155.656 102.262 155.619 101.996 155.608C101.729 155.587 101.489 155.576 101.276 155.576H95.7716V163.352ZM113.633 175V151.96H128.513V155.576H117.489V161.256H126.593V164.872H117.489V171.384H128.513V175H113.633ZM133.632 175V151.96H143.152C143.376 151.96 143.664 151.971 144.016 151.992C144.368 152.003 144.693 152.035 144.992 152.088C146.325 152.291 147.424 152.733 148.288 153.416C149.163 154.099 149.808 154.963 150.224 156.008C150.651 157.043 150.864 158.195 150.864 159.464C150.864 161.341 150.389 162.957 149.44 164.312C148.491 165.656 147.035 166.488 145.072 166.808L143.424 166.952H137.488V175H133.632ZM146.864 175L142.32 165.624L146.24 164.76L151.232 175H146.864ZM137.488 163.352H142.992C143.205 163.352 143.445 163.341 143.712 163.32C143.979 163.299 144.224 163.256 144.448 163.192C145.088 163.032 145.589 162.749 145.952 162.344C146.325 161.939 146.587 161.48 146.736 160.968C146.896 160.456 146.976 159.955 146.976 159.464C146.976 158.973 146.896 158.472 146.736 157.96C146.587 157.437 146.325 156.973 145.952 156.568C145.589 156.163 145.088 155.88 144.448 155.72C144.224 155.656 143.979 155.619 143.712 155.608C143.445 155.587 143.205 155.576 142.992 155.576H137.488V163.352ZM156.037 175V151.96H169.909V155.816H159.893V161.56H167.989V165.4H159.893V175H156.037ZM174.067 175V151.96H188.947V155.576H177.923V161.256H187.027V164.872H177.923V171.384H188.947V175H174.067ZM202.997 175.48C200.693 175.48 198.72 174.979 197.077 173.976C195.434 172.963 194.17 171.555 193.285 169.752C192.41 167.949 191.973 165.859 191.973 163.48C191.973 161.101 192.41 159.011 193.285 157.208C194.17 155.405 195.434 154.003 197.077 153C198.72 151.987 200.693 151.48 202.997 151.48C205.653 151.48 207.866 152.147 209.637 153.48C211.408 154.803 212.65 156.589 213.365 158.84L209.477 159.912C209.029 158.408 208.266 157.235 207.189 156.392C206.112 155.539 204.714 155.112 202.997 155.112C201.45 155.112 200.16 155.459 199.125 156.152C198.101 156.845 197.328 157.821 196.805 159.08C196.293 160.328 196.032 161.795 196.021 163.48C196.021 165.165 196.277 166.637 196.789 167.896C197.312 169.144 198.09 170.115 199.125 170.808C200.16 171.501 201.45 171.848 202.997 171.848C204.714 171.848 206.112 171.421 207.189 170.568C208.266 169.715 209.029 168.541 209.477 167.048L213.365 168.12C212.65 170.371 211.408 172.163 209.637 173.496C207.866 174.819 205.653 175.48 202.997 175.48ZM223.694 175V155.576H216.238V151.96H235.006V155.576H227.55V175H223.694ZM62.724 213.48C60.42 213.48 58.4467 212.979 56.804 211.976C55.1613 210.963 53.8973 209.555 53.012 207.752C52.1373 205.949 51.7 203.859 51.7 201.48C51.7 199.101 52.1373 197.011 53.012 195.208C53.8973 193.405 55.1613 192.003 56.804 191C58.4467 189.987 60.42 189.48 62.724 189.48C65.38 189.48 67.5933 190.147 69.364 191.48C71.1347 192.803 72.3773 194.589 73.092 196.84L69.204 197.912C68.756 196.408 67.9933 195.235 66.916 194.392C65.8387 193.539 64.4413 193.112 62.724 193.112C61.1773 193.112 59.8867 193.459 58.852 194.152C57.828 194.845 57.0547 195.821 56.532 197.08C56.02 198.328 55.7587 199.795 55.748 201.48C55.748 203.165 56.004 204.637 56.516 205.896C57.0387 207.144 57.8173 208.115 58.852 208.808C59.8867 209.501 61.1773 209.848 62.724 209.848C64.4413 209.848 65.8387 209.421 66.916 208.568C67.9933 207.715 68.756 206.541 69.204 205.048L73.092 206.12C72.3773 208.371 71.1347 210.163 69.364 211.496C67.5933 212.819 65.38 213.48 62.724 213.48ZM87.629 213.48C85.325 213.48 83.3517 212.979 81.709 211.976C80.0663 210.963 78.8023 209.555 77.917 207.752C77.0423 205.949 76.605 203.859 76.605 201.48C76.605 199.101 77.0423 197.011 77.917 195.208C78.8023 193.405 80.0663 192.003 81.709 191C83.3517 189.987 85.325 189.48 87.629 189.48C89.933 189.48 91.9063 189.987 93.549 191C95.2023 192.003 96.4663 193.405 97.341 195.208C98.2263 197.011 98.669 199.101 98.669 201.48C98.669 203.859 98.2263 205.949 97.341 207.752C96.4663 209.555 95.2023 210.963 93.549 211.976C91.9063 212.979 89.933 213.48 87.629 213.48ZM87.629 209.848C89.1757 209.859 90.461 209.517 91.485 208.824C92.5197 208.131 93.293 207.155 93.805 205.896C94.3277 204.637 94.589 203.165 94.589 201.48C94.589 199.795 94.3277 198.333 93.805 197.096C93.293 195.848 92.5197 194.877 91.485 194.184C90.461 193.491 89.1757 193.133 87.629 193.112C86.0823 193.101 84.797 193.443 83.773 194.136C82.749 194.829 81.9757 195.805 81.453 197.064C80.941 198.323 80.685 199.795 80.685 201.48C80.685 203.165 80.941 204.632 81.453 205.88C81.965 207.117 82.733 208.083 83.757 208.776C84.7917 209.469 86.0823 209.827 87.629 209.848ZM103.134 213V189.96H107.038L117.726 206.2V189.96H121.63V213H117.726L107.038 196.76V213H103.134ZM132.918 213V193.576H125.462V189.96H144.23V193.576H136.774V213H132.918ZM148.389 213V189.96H152.245V213H148.389ZM158.317 213V189.96H162.221L172.91 206.2V189.96H176.813V213H172.91L162.221 196.76V213H158.317ZM191.846 213.48C190.012 213.48 188.396 213.107 186.998 212.36C185.612 211.613 184.524 210.563 183.734 209.208C182.956 207.853 182.566 206.264 182.566 204.44V189.992L186.47 189.96V204.344C186.47 205.208 186.614 205.981 186.902 206.664C187.201 207.347 187.601 207.928 188.102 208.408C188.604 208.877 189.18 209.235 189.83 209.48C190.481 209.725 191.153 209.848 191.846 209.848C192.561 209.848 193.238 209.725 193.878 209.48C194.529 209.224 195.105 208.861 195.606 208.392C196.108 207.912 196.502 207.331 196.79 206.648C197.078 205.965 197.222 205.197 197.222 204.344V189.96H201.126V204.44C201.126 206.264 200.732 207.853 199.942 209.208C199.164 210.563 198.076 211.613 196.678 212.36C195.292 213.107 193.681 213.48 191.846 213.48ZM216.622 213.48C214.318 213.48 212.344 212.979 210.702 211.976C209.059 210.963 207.795 209.555 206.91 207.752C206.035 205.949 205.598 203.859 205.598 201.48C205.598 199.101 206.035 197.011 206.91 195.208C207.795 193.405 209.059 192.003 210.702 191C212.344 189.987 214.318 189.48 216.622 189.48C218.926 189.48 220.899 189.987 222.542 191C224.195 192.003 225.459 193.405 226.334 195.208C227.219 197.011 227.662 199.101 227.662 201.48C227.662 203.859 227.219 205.949 226.334 207.752C225.459 209.555 224.195 210.963 222.542 211.976C220.899 212.979 218.926 213.48 216.622 213.48ZM216.622 209.848C218.168 209.859 219.454 209.517 220.478 208.824C221.512 208.131 222.286 207.155 222.798 205.896C223.32 204.637 223.582 203.165 223.582 201.48C223.582 199.795 223.32 198.333 222.798 197.096C222.286 195.848 221.512 194.877 220.478 194.184C219.454 193.491 218.168 193.133 216.622 193.112C215.075 193.101 213.79 193.443 212.766 194.136C211.742 194.829 210.968 195.805 210.446 197.064C209.934 198.323 209.678 199.795 209.678 201.48C209.678 203.165 209.934 204.632 210.446 205.88C210.958 207.117 211.726 208.083 212.75 208.776C213.784 209.469 215.075 209.827 216.622 209.848ZM241.406 213.48C239.572 213.48 237.956 213.107 236.558 212.36C235.172 211.613 234.084 210.563 233.294 209.208C232.516 207.853 232.126 206.264 232.126 204.44V189.992L236.03 189.96V204.344C236.03 205.208 236.174 205.981 236.462 206.664C236.761 207.347 237.161 207.928 237.662 208.408C238.164 208.877 238.74 209.235 239.39 209.48C240.041 209.725 240.713 209.848 241.406 209.848C242.121 209.848 242.798 209.725 243.438 209.48C244.089 209.224 244.665 208.861 245.166 208.392C245.668 207.912 246.062 207.331 246.35 206.648C246.638 205.965 246.782 205.197 246.782 204.344V189.96H250.686V204.44C250.686 206.264 250.292 207.853 249.502 209.208C248.724 210.563 247.636 211.613 246.238 212.36C244.852 213.107 243.241 213.48 241.406 213.48ZM263.997 213.48C262.311 213.48 260.791 213.187 259.437 212.6C258.093 212.013 256.983 211.176 256.109 210.088C255.245 208.989 254.695 207.688 254.461 206.184L258.461 205.576C258.802 206.941 259.501 207.997 260.557 208.744C261.623 209.491 262.85 209.864 264.237 209.864C265.058 209.864 265.831 209.736 266.557 209.48C267.282 209.224 267.869 208.851 268.317 208.36C268.775 207.869 269.005 207.267 269.005 206.552C269.005 206.232 268.951 205.939 268.845 205.672C268.738 205.395 268.578 205.149 268.365 204.936C268.162 204.723 267.895 204.531 267.565 204.36C267.245 204.179 266.871 204.024 266.445 203.896L260.493 202.136C259.981 201.987 259.426 201.789 258.829 201.544C258.242 201.288 257.682 200.941 257.149 200.504C256.626 200.056 256.194 199.491 255.853 198.808C255.522 198.115 255.357 197.261 255.357 196.248C255.357 194.765 255.73 193.523 256.477 192.52C257.234 191.507 258.247 190.749 259.517 190.248C260.797 189.747 262.215 189.501 263.773 189.512C265.351 189.523 266.759 189.795 267.997 190.328C269.234 190.851 270.269 191.613 271.101 192.616C271.933 193.619 272.519 194.829 272.861 196.248L268.717 196.968C268.546 196.157 268.215 195.469 267.725 194.904C267.245 194.328 266.653 193.891 265.949 193.592C265.255 193.293 264.514 193.133 263.725 193.112C262.957 193.101 262.242 193.219 261.581 193.464C260.93 193.699 260.402 194.04 259.997 194.488C259.602 194.936 259.405 195.459 259.405 196.056C259.405 196.621 259.575 197.085 259.917 197.448C260.258 197.8 260.679 198.083 261.181 198.296C261.693 198.499 262.21 198.669 262.733 198.808L266.861 199.96C267.426 200.109 268.061 200.312 268.765 200.568C269.469 200.824 270.146 201.181 270.797 201.64C271.447 202.099 271.981 202.701 272.397 203.448C272.823 204.195 273.037 205.144 273.037 206.296C273.037 207.491 272.786 208.541 272.285 209.448C271.794 210.344 271.127 211.091 270.285 211.688C269.442 212.285 268.477 212.733 267.389 213.032C266.311 213.331 265.181 213.48 263.997 213.48Z" fill="white"></path></g><defs><filter id="filter0_d_1209_2745" x="-249.369" y="-42.2959" width="635.943" height="502.047" filterUnits="userSpaceOnUse" color-interpolation-filters="sRGB"><feFlood flood-opacity="0" result="BackgroundImageFix"></feFlood><feColorMatrix in="SourceAlpha" type="matrix" values="0 0 0 0 0 0 0 0 0 0 0 0 0 0 0 0 0 0 127 0" result="hardAlpha"></feColorMatrix><feOffset dy="8"></feOffset><feGaussianBlur stdDeviation="9"></feGaussianBlur><feComposite in2="hardAlpha" operator="out"></feComposite><feColorMatrix type="matrix" values="0 0 0 0 0 0 0 0 0 0 0 0 0 0 0 0 0 0 0.15 0"></feColorMatrix><feBlend mode="normal" in2="BackgroundImageFix" result="effect1_dropShadow_1209_2745"></feBlend><feBlend mode="normal" in="SourceGraphic" in2="effect1_dropShadow_1209_2745" result="shape"></feBlend></filter><clipPath id="clip0_1209_2745"><rect width="325" height="325" rx="10" fill="white"></rect></clipPath></defs></svg> 