<?xml version="1.0" encoding="UTF-8"?> <svg xmlns="http://www.w3.org/2000/svg" width="325" height="325" viewBox="0 0 325 325" fill="none"><rect width="325" height="325" rx="10" fill="#EEBF38"></rect><mask id="mask0_1373_910" style="mask-type:alpha" maskUnits="userSpaceOnUse" x="0" y="0" width="325" height="325"><rect width="325" height="325" rx="10" fill="#7F3CC9"></rect></mask><g mask="url(#mask0_1373_910)"><g filter="url(#filter0_d_1373_910)"><path d="M26.2616 -37.9203C-24.9006 -14.515 -60.9437 41.3762 -88.0332 91.6356C-97.3434 108.909 -159.062 209.898 -112.777 218.486C-88.1476 223.055 -61.1859 215.378 -38.6841 205.467C15.4823 181.611 65.6344 141.68 108.472 98.8729C121.458 85.8964 228.342 -26.3488 174.605 -48.3912C154.175 -56.7713 126.206 -51.6436 106.661 -43.7716C52.6749 -22.0279 9.41441 28.349 -16.9265 83.1563C-37.6413 126.257 -47.1791 174.211 -48.0015 222.688C-48.627 259.555 -44.6359 302 -14.3084 324.845C14.8217 346.788 49.5563 343.41 81.7882 332.036C151.734 307.353 215.277 256.212 272.595 207.526C338.225 151.78 402.205 92.6877 452.443 20.0387" stroke="#F8C63A" stroke-width="50" stroke-linecap="round" shape-rendering="crispEdges"></path></g></g><path d="M64.8604 175V155.576H57.4044V151.96H76.1724V155.576H68.7164V175H64.8604ZM80.0106 175V151.96H83.8666V161.656H94.7786V151.96H98.6186V175H94.7786V165.272H83.8666V175H80.0106ZM104.384 175V151.96H119.264V155.576H108.24V161.256H117.344V164.872H108.24V171.384H119.264V175H104.384ZM132.069 175V151.96H141.589C141.813 151.96 142.101 151.971 142.453 151.992C142.805 152.003 143.131 152.035 143.429 152.088C144.763 152.291 145.861 152.733 146.725 153.416C147.6 154.099 148.245 154.963 148.661 156.008C149.088 157.043 149.301 158.195 149.301 159.464C149.301 160.723 149.088 161.875 148.661 162.92C148.235 163.955 147.584 164.813 146.709 165.496C145.845 166.179 144.752 166.621 143.429 166.824C143.131 166.867 142.8 166.899 142.437 166.92C142.085 166.941 141.803 166.952 141.589 166.952H135.925V175H132.069ZM135.925 163.352H141.429C141.643 163.352 141.883 163.341 142.149 163.32C142.416 163.299 142.661 163.256 142.885 163.192C143.525 163.032 144.027 162.749 144.389 162.344C144.763 161.939 145.024 161.48 145.173 160.968C145.333 160.456 145.413 159.955 145.413 159.464C145.413 158.973 145.333 158.472 145.173 157.96C145.024 157.437 144.763 156.973 144.389 156.568C144.027 156.163 143.525 155.88 142.885 155.72C142.661 155.656 142.416 155.619 142.149 155.608C141.883 155.587 141.643 155.576 141.429 155.576H135.925V163.352ZM150.593 175L157.857 151.96H163.505L170.769 175H166.801L160.209 154.328H161.073L154.561 175H150.593ZM154.641 170.008V166.408H166.737V170.008H154.641ZM182.845 175.48C181.16 175.48 179.64 175.187 178.285 174.6C176.941 174.013 175.832 173.176 174.957 172.088C174.093 170.989 173.544 169.688 173.309 168.184L177.309 167.576C177.65 168.941 178.349 169.997 179.405 170.744C180.472 171.491 181.698 171.864 183.085 171.864C183.906 171.864 184.68 171.736 185.405 171.48C186.13 171.224 186.717 170.851 187.165 170.36C187.624 169.869 187.853 169.267 187.853 168.552C187.853 168.232 187.8 167.939 187.693 167.672C187.586 167.395 187.426 167.149 187.213 166.936C187.01 166.723 186.744 166.531 186.413 166.36C186.093 166.179 185.72 166.024 185.293 165.896L179.341 164.136C178.829 163.987 178.274 163.789 177.677 163.544C177.09 163.288 176.53 162.941 175.997 162.504C175.474 162.056 175.042 161.491 174.701 160.808C174.37 160.115 174.205 159.261 174.205 158.248C174.205 156.765 174.578 155.523 175.325 154.52C176.082 153.507 177.096 152.749 178.365 152.248C179.645 151.747 181.064 151.501 182.621 151.512C184.2 151.523 185.608 151.795 186.845 152.328C188.082 152.851 189.117 153.613 189.949 154.616C190.781 155.619 191.368 156.829 191.709 158.248L187.565 158.968C187.394 158.157 187.064 157.469 186.573 156.904C186.093 156.328 185.501 155.891 184.797 155.592C184.104 155.293 183.362 155.133 182.573 155.112C181.805 155.101 181.09 155.219 180.429 155.464C179.778 155.699 179.25 156.04 178.845 156.488C178.45 156.936 178.253 157.459 178.253 158.056C178.253 158.621 178.424 159.085 178.765 159.448C179.106 159.8 179.528 160.083 180.029 160.296C180.541 160.499 181.058 160.669 181.581 160.808L185.709 161.96C186.274 162.109 186.909 162.312 187.613 162.568C188.317 162.824 188.994 163.181 189.645 163.64C190.296 164.099 190.829 164.701 191.245 165.448C191.672 166.195 191.885 167.144 191.885 168.296C191.885 169.491 191.634 170.541 191.133 171.448C190.642 172.344 189.976 173.091 189.133 173.688C188.29 174.285 187.325 174.733 186.237 175.032C185.16 175.331 184.029 175.48 182.845 175.48ZM205.625 175.48C203.94 175.48 202.42 175.187 201.065 174.6C199.721 174.013 198.612 173.176 197.737 172.088C196.873 170.989 196.324 169.688 196.089 168.184L200.089 167.576C200.43 168.941 201.129 169.997 202.185 170.744C203.252 171.491 204.478 171.864 205.865 171.864C206.686 171.864 207.46 171.736 208.185 171.48C208.91 171.224 209.497 170.851 209.945 170.36C210.404 169.869 210.633 169.267 210.633 168.552C210.633 168.232 210.58 167.939 210.473 167.672C210.366 167.395 210.206 167.149 209.993 166.936C209.79 166.723 209.524 166.531 209.193 166.36C208.873 166.179 208.5 166.024 208.073 165.896L202.121 164.136C201.609 163.987 201.054 163.789 200.457 163.544C199.87 163.288 199.31 162.941 198.777 162.504C198.254 162.056 197.822 161.491 197.481 160.808C197.15 160.115 196.985 159.261 196.985 158.248C196.985 156.765 197.358 155.523 198.105 154.52C198.862 153.507 199.876 152.749 201.145 152.248C202.425 151.747 203.844 151.501 205.401 151.512C206.98 151.523 208.388 151.795 209.625 152.328C210.862 152.851 211.897 153.613 212.729 154.616C213.561 155.619 214.148 156.829 214.489 158.248L210.345 158.968C210.174 158.157 209.844 157.469 209.353 156.904C208.873 156.328 208.281 155.891 207.577 155.592C206.884 155.293 206.142 155.133 205.353 155.112C204.585 155.101 203.87 155.219 203.209 155.464C202.558 155.699 202.03 156.04 201.625 156.488C201.23 156.936 201.033 157.459 201.033 158.056C201.033 158.621 201.204 159.085 201.545 159.448C201.886 159.8 202.308 160.083 202.809 160.296C203.321 160.499 203.838 160.669 204.361 160.808L208.489 161.96C209.054 162.109 209.689 162.312 210.393 162.568C211.097 162.824 211.774 163.181 212.425 163.64C213.076 164.099 213.609 164.701 214.025 165.448C214.452 166.195 214.665 167.144 214.665 168.296C214.665 169.491 214.414 170.541 213.913 171.448C213.422 172.344 212.756 173.091 211.913 173.688C211.07 174.285 210.105 174.733 209.017 175.032C207.94 175.331 206.809 175.48 205.625 175.48ZM219.728 175V151.96H223.584V175H219.728ZM234.841 175L227.577 151.96H231.545L237.625 171.256L243.785 151.96H247.753L240.489 175H234.841ZM251.437 175V151.96H266.317V155.576H255.293V161.256H264.397V164.872H255.293V171.384H266.317V175H251.437Z" fill="white"></path><defs><filter id="filter0_d_1373_910" x="-172.805" y="-87.6924" width="668.25" height="479.663" filterUnits="userSpaceOnUse" color-interpolation-filters="sRGB"><feFlood flood-opacity="0" result="BackgroundImageFix"></feFlood><feColorMatrix in="SourceAlpha" type="matrix" values="0 0 0 0 0 0 0 0 0 0 0 0 0 0 0 0 0 0 127 0" result="hardAlpha"></feColorMatrix><feOffset dy="8"></feOffset><feGaussianBlur stdDeviation="9"></feGaussianBlur><feComposite in2="hardAlpha" operator="out"></feComposite><feColorMatrix type="matrix" values="0 0 0 0 0 0 0 0 0 0 0 0 0 0 0 0 0 0 0.15 0"></feColorMatrix><feBlend mode="normal" in2="BackgroundImageFix" result="effect1_dropShadow_1373_910"></feBlend><feBlend mode="normal" in="SourceGraphic" in2="effect1_dropShadow_1373_910" result="shape"></feBlend></filter></defs></svg> 