<?xml version="1.0" encoding="UTF-8"?> <svg xmlns="http://www.w3.org/2000/svg" width="325" height="325" viewBox="0 0 325 325" fill="none"><rect width="325" height="325" rx="10" fill="#96D472"></rect><mask id="mask0_951_3150" style="mask-type:alpha" maskUnits="userSpaceOnUse" x="0" y="0" width="325" height="325"><rect width="325" height="325" rx="10" fill="#FF7EB3"></rect></mask><g mask="url(#mask0_951_3150)"><g filter="url(#filter0_d_951_3150)"><path d="M152.802 -146.31C106.595 -136.478 67.5686 -98.3873 36.8813 -63.2324C26.3346 -51.1502 -41.3595 18.2525 -4.44734 32.8963C15.1944 40.6886 38.7798 39.1901 59.0392 35.1691C107.808 25.4898 155.894 2.41607 198.396 -24.1734C211.28 -32.2337 318.22 -102.877 277.348 -129.426C261.809 -139.52 237.809 -140.209 220.333 -137.299C172.06 -129.26 127.965 -96.7551 97.1498 -57.8763C72.9168 -27.3016 57.141 9.00692 48.4952 47.2084C41.9202 76.2602 38.2511 110.507 59.6085 133.72C80.1225 156.017 109.437 159.238 137.994 155.709C199.963 148.053 260.978 118.384 316.436 89.602C379.936 56.6461 442.619 20.7629 496.151 -28.1731" stroke="#77B255" stroke-width="50" stroke-linecap="round" shape-rendering="crispEdges"></path></g><g filter="url(#filter1_d_951_3150)"><path d="M221.684 380.564C196.26 346.247 138.311 315.583 86.1391 286.963C56.2997 270.593 25.8669 253.647 -13.2802 240.015C-38.6447 231.183 -74.0686 220.511 -116.056 225.269C-213.256 236.285 -205.75 276.198 -170.336 298.808C-135.908 320.789 -77.6706 337.397 -26.1985 353.816C2.91547 363.102 32.6593 372.017 63.821 380.443C69.7396 382.043 110.701 392.127 90.2818 381.828C67.7587 370.468 10.7763 365.965 -29.3478 369.602C-77.7454 373.988 -111.267 397.511 -130.735 412.153C-155.542 430.809 -165.868 449.789 -167.818 469.206" stroke="#77B255" stroke-width="50" stroke-linecap="round" shape-rendering="crispEdges"></path></g></g><path d="M13.4831 175V151.96H23.0031C23.2271 151.96 23.5151 151.971 23.8671 151.992C24.2191 152.003 24.5445 152.035 24.8431 152.088C26.1765 152.291 27.2751 152.733 28.1391 153.416C29.0138 154.099 29.6591 154.963 30.0751 156.008C30.5018 157.043 30.7151 158.195 30.7151 159.464C30.7151 160.723 30.5018 161.875 30.0751 162.92C29.6485 163.955 28.9978 164.813 28.1231 165.496C27.2591 166.179 26.1658 166.621 24.8431 166.824C24.5445 166.867 24.2138 166.899 23.8511 166.92C23.4991 166.941 23.2165 166.952 23.0031 166.952H17.3391V175H13.4831ZM17.3391 163.352H22.8431C23.0565 163.352 23.2965 163.341 23.5631 163.32C23.8298 163.299 24.0751 163.256 24.2991 163.192C24.9391 163.032 25.4405 162.749 25.8031 162.344C26.1765 161.939 26.4378 161.48 26.5871 160.968C26.7471 160.456 26.8271 159.955 26.8271 159.464C26.8271 158.973 26.7471 158.472 26.5871 157.96C26.4378 157.437 26.1765 156.973 25.8031 156.568C25.4405 156.163 24.9391 155.88 24.2991 155.72C24.0751 155.656 23.8298 155.619 23.5631 155.608C23.2965 155.587 23.0565 155.576 22.8431 155.576H17.3391V163.352ZM35.2006 175V151.96H44.7206C44.9446 151.96 45.2326 151.971 45.5846 151.992C45.9366 152.003 46.262 152.035 46.5606 152.088C47.894 152.291 48.9926 152.733 49.8566 153.416C50.7313 154.099 51.3766 154.963 51.7926 156.008C52.2193 157.043 52.4326 158.195 52.4326 159.464C52.4326 161.341 51.958 162.957 51.0086 164.312C50.0593 165.656 48.6033 166.488 46.6406 166.808L44.9926 166.952H39.0566V175H35.2006ZM48.4326 175L43.8886 165.624L47.8086 164.76L52.8006 175H48.4326ZM39.0566 163.352H44.5606C44.774 163.352 45.014 163.341 45.2806 163.32C45.5473 163.299 45.7926 163.256 46.0166 163.192C46.6566 163.032 47.158 162.749 47.5206 162.344C47.894 161.939 48.1553 161.48 48.3046 160.968C48.4646 160.456 48.5446 159.955 48.5446 159.464C48.5446 158.973 48.4646 158.472 48.3046 157.96C48.1553 157.437 47.894 156.973 47.5206 156.568C47.158 156.163 46.6566 155.88 46.0166 155.72C45.7926 155.656 45.5473 155.619 45.2806 155.608C45.014 155.587 44.774 155.576 44.5606 155.576H39.0566V163.352ZM57.6056 175V151.96H72.4856V155.576H61.4616V161.256H70.5656V164.872H61.4616V171.384H72.4856V175H57.6056ZM85.9136 175.48C84.2283 175.48 82.7083 175.187 81.3536 174.6C80.0096 174.013 78.9003 173.176 78.0256 172.088C77.1616 170.989 76.6123 169.688 76.3776 168.184L80.3776 167.576C80.7189 168.941 81.4176 169.997 82.4736 170.744C83.5403 171.491 84.7669 171.864 86.1536 171.864C86.9749 171.864 87.7483 171.736 88.4736 171.48C89.1989 171.224 89.7856 170.851 90.2336 170.36C90.6923 169.869 90.9216 169.267 90.9216 168.552C90.9216 168.232 90.8683 167.939 90.7616 167.672C90.6549 167.395 90.4949 167.149 90.2816 166.936C90.0789 166.723 89.8123 166.531 89.4816 166.36C89.1616 166.179 88.7883 166.024 88.3616 165.896L82.4096 164.136C81.8976 163.987 81.3429 163.789 80.7456 163.544C80.1589 163.288 79.5989 162.941 79.0656 162.504C78.5429 162.056 78.1109 161.491 77.7696 160.808C77.4389 160.115 77.2736 159.261 77.2736 158.248C77.2736 156.765 77.6469 155.523 78.3936 154.52C79.1509 153.507 80.1643 152.749 81.4336 152.248C82.7136 151.747 84.1323 151.501 85.6896 151.512C87.2683 151.523 88.6763 151.795 89.9136 152.328C91.1509 152.851 92.1856 153.613 93.0176 154.616C93.8496 155.619 94.4363 156.829 94.7776 158.248L90.6336 158.968C90.4629 158.157 90.1323 157.469 89.6416 156.904C89.1616 156.328 88.5696 155.891 87.8656 155.592C87.1723 155.293 86.4309 155.133 85.6416 155.112C84.8736 155.101 84.1589 155.219 83.4976 155.464C82.8469 155.699 82.3189 156.04 81.9136 156.488C81.5189 156.936 81.3216 157.459 81.3216 158.056C81.3216 158.621 81.4923 159.085 81.8336 159.448C82.1749 159.8 82.5963 160.083 83.0976 160.296C83.6096 160.499 84.1269 160.669 84.6496 160.808L88.7776 161.96C89.3429 162.109 89.9776 162.312 90.6816 162.568C91.3856 162.824 92.0629 163.181 92.7136 163.64C93.3643 164.099 93.8976 164.701 94.3136 165.448C94.7403 166.195 94.9536 167.144 94.9536 168.296C94.9536 169.491 94.7029 170.541 94.2016 171.448C93.7109 172.344 93.0443 173.091 92.2016 173.688C91.3589 174.285 90.3936 174.733 89.3056 175.032C88.2283 175.331 87.0976 175.48 85.9136 175.48ZM99.6969 175V151.96H114.577V155.576H103.553V161.256H112.657V164.872H103.553V171.384H114.577V175H99.6969ZM119.696 175V151.96H123.6L134.288 168.2V151.96H138.192V175H134.288L123.6 158.76V175H119.696ZM149.48 175V155.576H142.024V151.96H160.792V155.576H153.336V175H149.48ZM171.348 175V151.96H180.868C181.092 151.96 181.38 151.971 181.732 151.992C182.084 152.003 182.409 152.035 182.708 152.088C184.041 152.291 185.14 152.733 186.004 153.416C186.879 154.099 187.524 154.963 187.94 156.008C188.367 157.043 188.58 158.195 188.58 159.464C188.58 160.723 188.367 161.875 187.94 162.92C187.513 163.955 186.863 164.813 185.988 165.496C185.124 166.179 184.031 166.621 182.708 166.824C182.409 166.867 182.079 166.899 181.716 166.92C181.364 166.941 181.081 166.952 180.868 166.952H175.204V175H171.348ZM175.204 163.352H180.708C180.921 163.352 181.161 163.341 181.428 163.32C181.695 163.299 181.94 163.256 182.164 163.192C182.804 163.032 183.305 162.749 183.668 162.344C184.041 161.939 184.303 161.48 184.452 160.968C184.612 160.456 184.692 159.955 184.692 159.464C184.692 158.973 184.612 158.472 184.452 157.96C184.303 157.437 184.041 156.973 183.668 156.568C183.305 156.163 182.804 155.88 182.164 155.72C181.94 155.656 181.695 155.619 181.428 155.608C181.161 155.587 180.921 155.576 180.708 155.576H175.204V163.352ZM193.066 175V151.96H207.946V155.576H196.922V161.256H206.026V164.872H196.922V171.384H207.946V175H193.066ZM213.064 175V151.96H222.584C222.808 151.96 223.096 151.971 223.448 151.992C223.8 152.003 224.126 152.035 224.424 152.088C225.758 152.291 226.856 152.733 227.72 153.416C228.595 154.099 229.24 154.963 229.656 156.008C230.083 157.043 230.296 158.195 230.296 159.464C230.296 161.341 229.822 162.957 228.872 164.312C227.923 165.656 226.467 166.488 224.504 166.808L222.856 166.952H216.92V175H213.064ZM226.296 175L221.752 165.624L225.672 164.76L230.664 175H226.296ZM216.92 163.352H222.424C222.638 163.352 222.878 163.341 223.144 163.32C223.411 163.299 223.656 163.256 223.88 163.192C224.52 163.032 225.022 162.749 225.384 162.344C225.758 161.939 226.019 161.48 226.168 160.968C226.328 160.456 226.408 159.955 226.408 159.464C226.408 158.973 226.328 158.472 226.168 157.96C226.019 157.437 225.758 156.973 225.384 156.568C225.022 156.163 224.52 155.88 223.88 155.72C223.656 155.656 223.411 155.619 223.144 155.608C222.878 155.587 222.638 155.576 222.424 155.576H216.92V163.352ZM235.469 175V151.96H249.341V155.816H239.325V161.56H247.421V165.4H239.325V175H235.469ZM253.499 175V151.96H268.379V155.576H257.355V161.256H266.459V164.872H257.355V171.384H268.379V175H253.499ZM282.43 175.48C280.126 175.48 278.152 174.979 276.51 173.976C274.867 172.963 273.603 171.555 272.718 169.752C271.843 167.949 271.406 165.859 271.406 163.48C271.406 161.101 271.843 159.011 272.718 157.208C273.603 155.405 274.867 154.003 276.51 153C278.152 151.987 280.126 151.48 282.43 151.48C285.086 151.48 287.299 152.147 289.07 153.48C290.84 154.803 292.083 156.589 292.798 158.84L288.91 159.912C288.462 158.408 287.699 157.235 286.622 156.392C285.544 155.539 284.147 155.112 282.43 155.112C280.883 155.112 279.592 155.459 278.558 156.152C277.534 156.845 276.76 157.821 276.238 159.08C275.726 160.328 275.464 161.795 275.454 163.48C275.454 165.165 275.71 166.637 276.222 167.896C276.744 169.144 277.523 170.115 278.558 170.808C279.592 171.501 280.883 171.848 282.43 171.848C284.147 171.848 285.544 171.421 286.622 170.568C287.699 169.715 288.462 168.541 288.91 167.048L292.798 168.12C292.083 170.371 290.84 172.163 289.07 173.496C287.299 174.819 285.086 175.48 282.43 175.48ZM303.127 175V155.576H295.671V151.96H314.439V155.576H306.983V175H303.127Z" fill="white"></path><defs><filter id="filter0_d_951_3150" x="-58.3594" y="-181.314" width="597.51" height="389.229" filterUnits="userSpaceOnUse" color-interpolation-filters="sRGB"><feFlood flood-opacity="0" result="BackgroundImageFix"></feFlood><feColorMatrix in="SourceAlpha" type="matrix" values="0 0 0 0 0 0 0 0 0 0 0 0 0 0 0 0 0 0 127 0" result="hardAlpha"></feColorMatrix><feOffset dy="8"></feOffset><feGaussianBlur stdDeviation="9"></feGaussianBlur><feComposite in2="hardAlpha" operator="out"></feComposite><feColorMatrix type="matrix" values="0 0 0 0 0 0 0 0 0 0 0 0 0 0 0 0 0 0 0.15 0"></feColorMatrix><feBlend mode="normal" in2="BackgroundImageFix" result="effect1_dropShadow_951_3150"></feBlend><feBlend mode="normal" in="SourceGraphic" in2="effect1_dropShadow_951_3150" result="shape"></feBlend></filter><filter id="filter1_d_951_3150" x="-237.541" y="189.098" width="502.227" height="331.11" filterUnits="userSpaceOnUse" color-interpolation-filters="sRGB"><feFlood flood-opacity="0" result="BackgroundImageFix"></feFlood><feColorMatrix in="SourceAlpha" type="matrix" values="0 0 0 0 0 0 0 0 0 0 0 0 0 0 0 0 0 0 127 0" result="hardAlpha"></feColorMatrix><feOffset dy="8"></feOffset><feGaussianBlur stdDeviation="9"></feGaussianBlur><feComposite in2="hardAlpha" operator="out"></feComposite><feColorMatrix type="matrix" values="0 0 0 0 0 0 0 0 0 0 0 0 0 0 0 0 0 0 0.15 0"></feColorMatrix><feBlend mode="normal" in2="BackgroundImageFix" result="effect1_dropShadow_951_3150"></feBlend><feBlend mode="normal" in="SourceGraphic" in2="effect1_dropShadow_951_3150" result="shape"></feBlend></filter></defs></svg> 