<?xml version="1.0" encoding="UTF-8"?> <svg xmlns="http://www.w3.org/2000/svg" width="325" height="325" viewBox="0 0 325 325" fill="none"><rect x="0.5" y="0.5" width="324" height="324" rx="9.5" fill="#0C3C80" stroke="#042F6B"></rect><mask id="mask0_1513_980" style="mask-type:alpha" maskUnits="userSpaceOnUse" x="0" y="0" width="325" height="325"><rect x="0.5" y="0.5" width="324" height="324" rx="9.5" fill="#704657" stroke="#042F6B"></rect></mask><g mask="url(#mask0_1513_980)"><g filter="url(#filter0_d_1513_980)"><path d="M-87.5397 85.9443C-113.081 125.423 -114.465 176.751 -112.027 220.255C-111.189 235.206 -111.332 326.252 -75.6805 308.3C-56.7094 298.748 -41.2866 280.723 -29.8914 263.588C-2.46101 222.343 15.4153 173.505 27.0174 126.597C30.5344 112.378 57.19 -7.90581 10.7092 5.73159C-6.96205 10.9163 -24.1571 27.9221 -34.365 42.3653C-62.561 82.2599 -71.2646 133.896 -66.3914 179.741C-62.559 215.793 -48.9461 249.169 -29.0807 278.512C-13.9732 300.827 6.6805 324.17 37.2989 322.683C66.7084 321.256 89.3231 301.921 106.835 279.062C144.837 229.456 167.255 167.25 186.401 109.614C208.322 43.6206 227.691 -23.5478 231.835 -91.9558" stroke="#042F6B" stroke-width="50" stroke-linecap="round" shape-rendering="crispEdges"></path></g><g filter="url(#filter1_d_1513_980)"><path d="M451.897 129C392.69 149.142 336.549 197.311 284.324 240.629C254.455 265.405 223.575 290.661 197.386 323.537C180.417 344.839 159.476 374.667 163.504 410.849C172.826 494.609 239.661 490.077 280.384 460.824C319.975 432.385 352.851 383.302 384.789 340.004C402.855 315.513 420.362 290.466 437.189 264.18C440.385 259.188 460.86 224.59 441.917 241.587C421.021 260.335 408.322 308.918 410.661 343.45C413.482 385.104 449.385 414.927 471.859 432.294C500.496 454.423 531.001 464.168 563 466.76" stroke="#042F6B" stroke-width="50" stroke-linecap="round" shape-rendering="crispEdges"></path></g></g><mask id="path-5-outside-1_1513_980" maskUnits="userSpaceOnUse" x="48" y="150" width="231" height="27" fill="black"><rect fill="white" x="48" y="150" width="231" height="27"></rect><path d="M49.715 175V151.96H59.235C59.459 151.96 59.747 151.971 60.099 151.992C60.451 152.003 60.7763 152.035 61.075 152.088C62.4083 152.291 63.507 152.733 64.371 153.416C65.2457 154.099 65.891 154.963 66.307 156.008C66.7337 157.043 66.947 158.195 66.947 159.464C66.947 160.723 66.7337 161.875 66.307 162.92C65.8803 163.955 65.2297 164.813 64.355 165.496C63.491 166.179 62.3977 166.621 61.075 166.824C60.7763 166.867 60.4457 166.899 60.083 166.92C59.731 166.941 59.4483 166.952 59.235 166.952H53.571V175H49.715ZM53.571 163.352H59.075C59.2883 163.352 59.5283 163.341 59.795 163.32C60.0617 163.299 60.307 163.256 60.531 163.192C61.171 163.032 61.6723 162.749 62.035 162.344C62.4083 161.939 62.6697 161.48 62.819 160.968C62.979 160.456 63.059 159.955 63.059 159.464C63.059 158.973 62.979 158.472 62.819 157.96C62.6697 157.437 62.4083 156.973 62.035 156.568C61.6723 156.163 61.171 155.88 60.531 155.72C60.307 155.656 60.0617 155.619 59.795 155.608C59.5283 155.587 59.2883 155.576 59.075 155.576H53.571V163.352ZM68.2387 175L75.5027 151.96H81.1507L88.4147 175H84.4467L77.8547 154.328H78.7187L72.2067 175H68.2387ZM72.2867 170.008V166.408H84.3827V170.008H72.2867ZM100.491 175.48C98.8052 175.48 97.2852 175.187 95.9305 174.6C94.5865 174.013 93.4772 173.176 92.6025 172.088C91.7385 170.989 91.1892 169.688 90.9545 168.184L94.9545 167.576C95.2958 168.941 95.9945 169.997 97.0505 170.744C98.1172 171.491 99.3438 171.864 100.731 171.864C101.552 171.864 102.325 171.736 103.051 171.48C103.776 171.224 104.363 170.851 104.811 170.36C105.269 169.869 105.499 169.267 105.499 168.552C105.499 168.232 105.445 167.939 105.339 167.672C105.232 167.395 105.072 167.149 104.859 166.936C104.656 166.723 104.389 166.531 104.059 166.36C103.739 166.179 103.365 166.024 102.939 165.896L96.9865 164.136C96.4745 163.987 95.9198 163.789 95.3225 163.544C94.7358 163.288 94.1758 162.941 93.6425 162.504C93.1198 162.056 92.6878 161.491 92.3465 160.808C92.0158 160.115 91.8505 159.261 91.8505 158.248C91.8505 156.765 92.2238 155.523 92.9705 154.52C93.7278 153.507 94.7412 152.749 96.0105 152.248C97.2905 151.747 98.7092 151.501 100.267 151.512C101.845 151.523 103.253 151.795 104.491 152.328C105.728 152.851 106.763 153.613 107.595 154.616C108.427 155.619 109.013 156.829 109.355 158.248L105.211 158.968C105.04 158.157 104.709 157.469 104.219 156.904C103.739 156.328 103.147 155.891 102.443 155.592C101.749 155.293 101.008 155.133 100.219 155.112C99.4505 155.101 98.7358 155.219 98.0745 155.464C97.4238 155.699 96.8958 156.04 96.4905 156.488C96.0958 156.936 95.8985 157.459 95.8985 158.056C95.8985 158.621 96.0692 159.085 96.4105 159.448C96.7518 159.8 97.1732 160.083 97.6745 160.296C98.1865 160.499 98.7038 160.669 99.2265 160.808L103.355 161.96C103.92 162.109 104.555 162.312 105.259 162.568C105.963 162.824 106.64 163.181 107.291 163.64C107.941 164.099 108.475 164.701 108.891 165.448C109.317 166.195 109.531 167.144 109.531 168.296C109.531 169.491 109.28 170.541 108.779 171.448C108.288 172.344 107.621 173.091 106.779 173.688C105.936 174.285 104.971 174.733 103.883 175.032C102.805 175.331 101.675 175.48 100.491 175.48ZM119.81 175V155.576H112.354V151.96H131.122V155.576H123.666V175H119.81ZM141.678 175V151.96H145.15L153.118 168.28L161.086 151.96H164.558V175H160.958V160.232L153.886 175H152.35L145.294 160.232V175H141.678ZM180.076 175.48C177.772 175.48 175.799 174.979 174.156 173.976C172.514 172.963 171.25 171.555 170.364 169.752C169.49 167.949 169.052 165.859 169.052 163.48C169.052 161.101 169.49 159.011 170.364 157.208C171.25 155.405 172.514 154.003 174.156 153C175.799 151.987 177.772 151.48 180.076 151.48C182.38 151.48 184.354 151.987 185.997 153C187.65 154.003 188.914 155.405 189.788 157.208C190.674 159.011 191.116 161.101 191.116 163.48C191.116 165.859 190.674 167.949 189.788 169.752C188.914 171.555 187.65 172.963 185.997 173.976C184.354 174.979 182.38 175.48 180.076 175.48ZM180.076 171.848C181.623 171.859 182.908 171.517 183.932 170.824C184.967 170.131 185.74 169.155 186.253 167.896C186.775 166.637 187.036 165.165 187.036 163.48C187.036 161.795 186.775 160.333 186.253 159.096C185.74 157.848 184.967 156.877 183.932 156.184C182.908 155.491 181.623 155.133 180.076 155.112C178.53 155.101 177.244 155.443 176.22 156.136C175.196 156.829 174.423 157.805 173.9 159.064C173.388 160.323 173.132 161.795 173.132 163.48C173.132 165.165 173.388 166.632 173.9 167.88C174.412 169.117 175.18 170.083 176.204 170.776C177.239 171.469 178.53 171.827 180.076 171.848ZM195.581 175V151.96H202.925C203.117 151.96 203.496 151.965 204.061 151.976C204.637 151.987 205.192 152.024 205.725 152.088C207.549 152.323 209.091 152.973 210.349 154.04C211.619 155.096 212.579 156.445 213.229 158.088C213.88 159.731 214.205 161.528 214.205 163.48C214.205 165.432 213.88 167.229 213.229 168.872C212.579 170.515 211.619 171.869 210.349 172.936C209.091 173.992 207.549 174.637 205.725 174.872C205.203 174.936 204.653 174.973 204.077 174.984C203.501 174.995 203.117 175 202.925 175H195.581ZM199.501 171.368H202.925C203.245 171.368 203.651 171.357 204.141 171.336C204.643 171.315 205.085 171.267 205.469 171.192C206.557 170.989 207.443 170.504 208.125 169.736C208.808 168.968 209.309 168.035 209.629 166.936C209.96 165.837 210.125 164.685 210.125 163.48C210.125 162.232 209.96 161.059 209.629 159.96C209.299 158.861 208.787 157.939 208.093 157.192C207.411 156.445 206.536 155.971 205.469 155.768C205.085 155.683 204.643 155.635 204.141 155.624C203.651 155.603 203.245 155.592 202.925 155.592H199.501V171.368ZM217.042 175L224.306 151.96H229.954L237.218 175H233.25L226.658 154.328H227.522L221.01 175H217.042ZM221.09 170.008V166.408H233.186V170.008H221.09ZM241.711 175V151.96H245.567V171.384H255.743V175H241.711ZM268.262 175.48C266.576 175.48 265.056 175.187 263.702 174.6C262.358 174.013 261.248 173.176 260.374 172.088C259.51 170.989 258.96 169.688 258.726 168.184L262.726 167.576C263.067 168.941 263.766 169.997 264.822 170.744C265.888 171.491 267.115 171.864 268.502 171.864C269.323 171.864 270.096 171.736 270.822 171.48C271.547 171.224 272.134 170.851 272.582 170.36C273.04 169.869 273.27 169.267 273.27 168.552C273.27 168.232 273.216 167.939 273.11 167.672C273.003 167.395 272.843 167.149 272.63 166.936C272.427 166.723 272.16 166.531 271.83 166.36C271.51 166.179 271.136 166.024 270.71 165.896L264.758 164.136C264.246 163.987 263.691 163.789 263.094 163.544C262.507 163.288 261.947 162.941 261.414 162.504C260.891 162.056 260.459 161.491 260.118 160.808C259.787 160.115 259.622 159.261 259.622 158.248C259.622 156.765 259.995 155.523 260.742 154.52C261.499 153.507 262.512 152.749 263.782 152.248C265.062 151.747 266.48 151.501 268.038 151.512C269.616 151.523 271.024 151.795 272.262 152.328C273.499 152.851 274.534 153.613 275.366 154.616C276.198 155.619 276.784 156.829 277.126 158.248L272.982 158.968C272.811 158.157 272.48 157.469 271.99 156.904C271.51 156.328 270.918 155.891 270.214 155.592C269.52 155.293 268.779 155.133 267.99 155.112C267.222 155.101 266.507 155.219 265.846 155.464C265.195 155.699 264.667 156.04 264.262 156.488C263.867 156.936 263.67 157.459 263.67 158.056C263.67 158.621 263.84 159.085 264.182 159.448C264.523 159.8 264.944 160.083 265.446 160.296C265.958 160.499 266.475 160.669 266.998 160.808L271.126 161.96C271.691 162.109 272.326 162.312 273.03 162.568C273.734 162.824 274.411 163.181 275.062 163.64C275.712 164.099 276.246 164.701 276.662 165.448C277.088 166.195 277.302 167.144 277.302 168.296C277.302 169.491 277.051 170.541 276.55 171.448C276.059 172.344 275.392 173.091 274.55 173.688C273.707 174.285 272.742 174.733 271.654 175.032C270.576 175.331 269.446 175.48 268.262 175.48Z"></path></mask><path d="M49.715 175V151.96H59.235C59.459 151.96 59.747 151.971 60.099 151.992C60.451 152.003 60.7763 152.035 61.075 152.088C62.4083 152.291 63.507 152.733 64.371 153.416C65.2457 154.099 65.891 154.963 66.307 156.008C66.7337 157.043 66.947 158.195 66.947 159.464C66.947 160.723 66.7337 161.875 66.307 162.92C65.8803 163.955 65.2297 164.813 64.355 165.496C63.491 166.179 62.3977 166.621 61.075 166.824C60.7763 166.867 60.4457 166.899 60.083 166.92C59.731 166.941 59.4483 166.952 59.235 166.952H53.571V175H49.715ZM53.571 163.352H59.075C59.2883 163.352 59.5283 163.341 59.795 163.32C60.0617 163.299 60.307 163.256 60.531 163.192C61.171 163.032 61.6723 162.749 62.035 162.344C62.4083 161.939 62.6697 161.48 62.819 160.968C62.979 160.456 63.059 159.955 63.059 159.464C63.059 158.973 62.979 158.472 62.819 157.96C62.6697 157.437 62.4083 156.973 62.035 156.568C61.6723 156.163 61.171 155.88 60.531 155.72C60.307 155.656 60.0617 155.619 59.795 155.608C59.5283 155.587 59.2883 155.576 59.075 155.576H53.571V163.352ZM68.2387 175L75.5027 151.96H81.1507L88.4147 175H84.4467L77.8547 154.328H78.7187L72.2067 175H68.2387ZM72.2867 170.008V166.408H84.3827V170.008H72.2867ZM100.491 175.48C98.8052 175.48 97.2852 175.187 95.9305 174.6C94.5865 174.013 93.4772 173.176 92.6025 172.088C91.7385 170.989 91.1892 169.688 90.9545 168.184L94.9545 167.576C95.2958 168.941 95.9945 169.997 97.0505 170.744C98.1172 171.491 99.3438 171.864 100.731 171.864C101.552 171.864 102.325 171.736 103.051 171.48C103.776 171.224 104.363 170.851 104.811 170.36C105.269 169.869 105.499 169.267 105.499 168.552C105.499 168.232 105.445 167.939 105.339 167.672C105.232 167.395 105.072 167.149 104.859 166.936C104.656 166.723 104.389 166.531 104.059 166.36C103.739 166.179 103.365 166.024 102.939 165.896L96.9865 164.136C96.4745 163.987 95.9198 163.789 95.3225 163.544C94.7358 163.288 94.1758 162.941 93.6425 162.504C93.1198 162.056 92.6878 161.491 92.3465 160.808C92.0158 160.115 91.8505 159.261 91.8505 158.248C91.8505 156.765 92.2238 155.523 92.9705 154.52C93.7278 153.507 94.7412 152.749 96.0105 152.248C97.2905 151.747 98.7092 151.501 100.267 151.512C101.845 151.523 103.253 151.795 104.491 152.328C105.728 152.851 106.763 153.613 107.595 154.616C108.427 155.619 109.013 156.829 109.355 158.248L105.211 158.968C105.04 158.157 104.709 157.469 104.219 156.904C103.739 156.328 103.147 155.891 102.443 155.592C101.749 155.293 101.008 155.133 100.219 155.112C99.4505 155.101 98.7358 155.219 98.0745 155.464C97.4238 155.699 96.8958 156.04 96.4905 156.488C96.0958 156.936 95.8985 157.459 95.8985 158.056C95.8985 158.621 96.0692 159.085 96.4105 159.448C96.7518 159.8 97.1732 160.083 97.6745 160.296C98.1865 160.499 98.7038 160.669 99.2265 160.808L103.355 161.96C103.92 162.109 104.555 162.312 105.259 162.568C105.963 162.824 106.64 163.181 107.291 163.64C107.941 164.099 108.475 164.701 108.891 165.448C109.317 166.195 109.531 167.144 109.531 168.296C109.531 169.491 109.28 170.541 108.779 171.448C108.288 172.344 107.621 173.091 106.779 173.688C105.936 174.285 104.971 174.733 103.883 175.032C102.805 175.331 101.675 175.48 100.491 175.48ZM119.81 175V155.576H112.354V151.96H131.122V155.576H123.666V175H119.81ZM141.678 175V151.96H145.15L153.118 168.28L161.086 151.96H164.558V175H160.958V160.232L153.886 175H152.35L145.294 160.232V175H141.678ZM180.076 175.48C177.772 175.48 175.799 174.979 174.156 173.976C172.514 172.963 171.25 171.555 170.364 169.752C169.49 167.949 169.052 165.859 169.052 163.48C169.052 161.101 169.49 159.011 170.364 157.208C171.25 155.405 172.514 154.003 174.156 153C175.799 151.987 177.772 151.48 180.076 151.48C182.38 151.48 184.354 151.987 185.997 153C187.65 154.003 188.914 155.405 189.788 157.208C190.674 159.011 191.116 161.101 191.116 163.48C191.116 165.859 190.674 167.949 189.788 169.752C188.914 171.555 187.65 172.963 185.997 173.976C184.354 174.979 182.38 175.48 180.076 175.48ZM180.076 171.848C181.623 171.859 182.908 171.517 183.932 170.824C184.967 170.131 185.74 169.155 186.253 167.896C186.775 166.637 187.036 165.165 187.036 163.48C187.036 161.795 186.775 160.333 186.253 159.096C185.74 157.848 184.967 156.877 183.932 156.184C182.908 155.491 181.623 155.133 180.076 155.112C178.53 155.101 177.244 155.443 176.22 156.136C175.196 156.829 174.423 157.805 173.9 159.064C173.388 160.323 173.132 161.795 173.132 163.48C173.132 165.165 173.388 166.632 173.9 167.88C174.412 169.117 175.18 170.083 176.204 170.776C177.239 171.469 178.53 171.827 180.076 171.848ZM195.581 175V151.96H202.925C203.117 151.96 203.496 151.965 204.061 151.976C204.637 151.987 205.192 152.024 205.725 152.088C207.549 152.323 209.091 152.973 210.349 154.04C211.619 155.096 212.579 156.445 213.229 158.088C213.88 159.731 214.205 161.528 214.205 163.48C214.205 165.432 213.88 167.229 213.229 168.872C212.579 170.515 211.619 171.869 210.349 172.936C209.091 173.992 207.549 174.637 205.725 174.872C205.203 174.936 204.653 174.973 204.077 174.984C203.501 174.995 203.117 175 202.925 175H195.581ZM199.501 171.368H202.925C203.245 171.368 203.651 171.357 204.141 171.336C204.643 171.315 205.085 171.267 205.469 171.192C206.557 170.989 207.443 170.504 208.125 169.736C208.808 168.968 209.309 168.035 209.629 166.936C209.96 165.837 210.125 164.685 210.125 163.48C210.125 162.232 209.96 161.059 209.629 159.96C209.299 158.861 208.787 157.939 208.093 157.192C207.411 156.445 206.536 155.971 205.469 155.768C205.085 155.683 204.643 155.635 204.141 155.624C203.651 155.603 203.245 155.592 202.925 155.592H199.501V171.368ZM217.042 175L224.306 151.96H229.954L237.218 175H233.25L226.658 154.328H227.522L221.01 175H217.042ZM221.09 170.008V166.408H233.186V170.008H221.09ZM241.711 175V151.96H245.567V171.384H255.743V175H241.711ZM268.262 175.48C266.576 175.48 265.056 175.187 263.702 174.6C262.358 174.013 261.248 173.176 260.374 172.088C259.51 170.989 258.96 169.688 258.726 168.184L262.726 167.576C263.067 168.941 263.766 169.997 264.822 170.744C265.888 171.491 267.115 171.864 268.502 171.864C269.323 171.864 270.096 171.736 270.822 171.48C271.547 171.224 272.134 170.851 272.582 170.36C273.04 169.869 273.27 169.267 273.27 168.552C273.27 168.232 273.216 167.939 273.11 167.672C273.003 167.395 272.843 167.149 272.63 166.936C272.427 166.723 272.16 166.531 271.83 166.36C271.51 166.179 271.136 166.024 270.71 165.896L264.758 164.136C264.246 163.987 263.691 163.789 263.094 163.544C262.507 163.288 261.947 162.941 261.414 162.504C260.891 162.056 260.459 161.491 260.118 160.808C259.787 160.115 259.622 159.261 259.622 158.248C259.622 156.765 259.995 155.523 260.742 154.52C261.499 153.507 262.512 152.749 263.782 152.248C265.062 151.747 266.48 151.501 268.038 151.512C269.616 151.523 271.024 151.795 272.262 152.328C273.499 152.851 274.534 153.613 275.366 154.616C276.198 155.619 276.784 156.829 277.126 158.248L272.982 158.968C272.811 158.157 272.48 157.469 271.99 156.904C271.51 156.328 270.918 155.891 270.214 155.592C269.52 155.293 268.779 155.133 267.99 155.112C267.222 155.101 266.507 155.219 265.846 155.464C265.195 155.699 264.667 156.04 264.262 156.488C263.867 156.936 263.67 157.459 263.67 158.056C263.67 158.621 263.84 159.085 264.182 159.448C264.523 159.8 264.944 160.083 265.446 160.296C265.958 160.499 266.475 160.669 266.998 160.808L271.126 161.96C271.691 162.109 272.326 162.312 273.03 162.568C273.734 162.824 274.411 163.181 275.062 163.64C275.712 164.099 276.246 164.701 276.662 165.448C277.088 166.195 277.302 167.144 277.302 168.296C277.302 169.491 277.051 170.541 276.55 171.448C276.059 172.344 275.392 173.091 274.55 173.688C273.707 174.285 272.742 174.733 271.654 175.032C270.576 175.331 269.446 175.48 268.262 175.48Z" fill="white"></path><path d="M49.715 175H48.715V176H49.715V175ZM49.715 151.96V150.96H48.715V151.96H49.715ZM60.099 151.992L60.0385 152.99L60.0536 152.991L60.0687 152.992L60.099 151.992ZM61.075 152.088L60.8992 153.072L60.9119 153.075L60.9247 153.077L61.075 152.088ZM64.371 153.416L63.751 154.201L63.7557 154.204L64.371 153.416ZM66.307 156.008L65.3778 156.378L65.3825 156.389L66.307 156.008ZM66.307 162.92L67.2315 163.301L67.2328 163.298L66.307 162.92ZM64.355 165.496L63.7397 164.708L63.735 164.711L64.355 165.496ZM61.075 166.824L61.2164 167.814L61.2265 167.812L61.075 166.824ZM60.083 166.92L60.0243 165.922L60.0225 165.922L60.083 166.92ZM53.571 166.952V165.952H52.571V166.952H53.571ZM53.571 175V176H54.571V175H53.571ZM53.571 163.352H52.571V164.352H53.571V163.352ZM59.795 163.32L59.8747 164.317L59.795 163.32ZM60.531 163.192L60.2885 162.222L60.2723 162.226L60.2563 162.23L60.531 163.192ZM62.035 162.344L61.2995 161.667L61.2946 161.672L61.2898 161.677L62.035 162.344ZM62.819 160.968L61.8645 160.67L61.8617 160.679L61.859 160.688L62.819 160.968ZM62.819 157.96L61.8575 158.235L61.8609 158.247L61.8645 158.258L62.819 157.96ZM62.035 156.568L61.2898 157.235L61.2946 157.24L61.2995 157.245L62.035 156.568ZM60.531 155.72L60.2563 156.682L60.2723 156.686L60.2885 156.69L60.531 155.72ZM59.795 155.608L59.7153 156.605L59.7351 156.606L59.755 156.607L59.795 155.608ZM53.571 155.576V154.576H52.571V155.576H53.571ZM49.715 175H50.715V151.96H49.715H48.715V175H49.715ZM49.715 151.96V152.96H59.235V151.96V150.96H49.715V151.96ZM59.235 151.96V152.96C59.4308 152.96 59.6967 152.969 60.0385 152.99L60.099 151.992L60.1595 150.994C59.7973 150.972 59.4872 150.96 59.235 150.96V151.96ZM60.099 151.992L60.0687 152.992C60.3795 153.001 60.6555 153.029 60.8992 153.072L61.075 152.088L61.2508 151.104C60.8971 151.04 60.5225 151.004 60.1293 150.992L60.099 151.992ZM61.075 152.088L60.9247 153.077C62.1248 153.259 63.0507 153.647 63.751 154.201L64.371 153.416L64.991 152.631C63.9633 151.819 62.6919 151.322 61.2253 151.099L61.075 152.088ZM64.371 153.416L63.7557 154.204C64.4884 154.776 65.0265 155.495 65.3779 156.378L66.307 156.008L67.2361 155.638C66.7555 154.43 66.0029 153.421 64.9863 152.628L64.371 153.416ZM66.307 156.008L65.3825 156.389C65.7531 157.288 65.947 158.308 65.947 159.464H66.947H67.947C67.947 158.081 67.7143 156.798 67.2315 155.627L66.307 156.008ZM66.947 159.464H65.947C65.947 160.608 65.7535 161.63 65.3812 162.542L66.307 162.92L67.2328 163.298C67.7138 162.12 67.947 160.837 67.947 159.464H66.947ZM66.307 162.92L65.3825 162.539C65.0213 163.415 64.4766 164.133 63.7397 164.708L64.355 165.496L64.9703 166.284C65.9828 165.494 66.7394 164.495 67.2315 163.301L66.307 162.92ZM64.355 165.496L63.735 164.711C63.0333 165.266 62.1117 165.653 60.9235 165.836L61.075 166.824L61.2265 167.812C62.6836 167.589 63.9487 167.092 64.975 166.281L64.355 165.496ZM61.075 166.824L60.9336 165.834C60.6672 165.872 60.3646 165.902 60.0243 165.922L60.083 166.92L60.1417 167.918C60.5267 167.896 60.8855 167.861 61.2164 167.814L61.075 166.824ZM60.083 166.92L60.0225 165.922C59.6795 165.943 59.4194 165.952 59.235 165.952V166.952V167.952C59.4772 167.952 59.7825 167.94 60.1435 167.918L60.083 166.92ZM59.235 166.952V165.952H53.571V166.952V167.952H59.235V166.952ZM53.571 166.952H52.571V175H53.571H54.571V166.952H53.571ZM53.571 175V174H49.715V175V176H53.571V175ZM53.571 163.352V164.352H59.075V163.352V162.352H53.571V163.352ZM59.075 163.352V164.352C59.3206 164.352 59.5879 164.34 59.8747 164.317L59.795 163.32L59.7153 162.323C59.4688 162.343 59.2561 162.352 59.075 162.352V163.352ZM59.795 163.32L59.8747 164.317C60.1979 164.291 60.5095 164.238 60.8057 164.154L60.531 163.192L60.2563 162.23C60.1045 162.274 59.9254 162.306 59.7153 162.323L59.795 163.32ZM60.531 163.192L60.7735 164.162C61.5658 163.964 62.258 163.594 62.7802 163.011L62.035 162.344L61.2898 161.677C61.0867 161.904 60.7762 162.1 60.2885 162.222L60.531 163.192ZM62.035 162.344L62.7705 163.021C63.2448 162.507 63.585 161.913 63.779 161.248L62.819 160.968L61.859 160.688C61.7543 161.047 61.5719 161.371 61.2995 161.667L62.035 162.344ZM62.819 160.968L63.7735 161.266C63.9609 160.667 64.059 160.065 64.059 159.464H63.059H62.059C62.059 159.845 61.9971 160.245 61.8645 160.67L62.819 160.968ZM63.059 159.464H64.059C64.059 158.863 63.9609 158.261 63.7735 157.662L62.819 157.96L61.8645 158.258C61.9971 158.683 62.059 159.083 62.059 159.464H63.059ZM62.819 157.96L63.7805 157.685C63.5877 157.01 63.2481 156.409 62.7705 155.891L62.035 156.568L61.2995 157.245C61.5686 157.538 61.7516 157.864 61.8575 158.235L62.819 157.96ZM62.035 156.568L62.7802 155.901C62.258 155.318 61.5658 154.948 60.7735 154.75L60.531 155.72L60.2885 156.69C60.7762 156.812 61.0867 157.008 61.2898 157.235L62.035 156.568ZM60.531 155.72L60.8057 154.758C60.4951 154.67 60.1698 154.622 59.835 154.609L59.795 155.608L59.755 156.607C59.9535 156.615 60.1189 156.642 60.2563 156.682L60.531 155.72ZM59.795 155.608L59.8747 154.611C59.5879 154.588 59.3206 154.576 59.075 154.576V155.576V156.576C59.2561 156.576 59.4688 156.585 59.7153 156.605L59.795 155.608ZM59.075 155.576V154.576H53.571V155.576V156.576H59.075V155.576ZM53.571 155.576H52.571V163.352H53.571H54.571V155.576H53.571ZM68.2387 175L67.285 174.699L66.8749 176H68.2387V175ZM75.5027 151.96V150.96H74.7695L74.549 151.659L75.5027 151.96ZM81.1507 151.96L82.1045 151.659L81.884 150.96H81.1507V151.96ZM88.4147 175V176H89.7785L89.3685 174.699L88.4147 175ZM84.4467 175L83.494 175.304L83.716 176H84.4467V175ZM77.8547 154.328V153.328H76.4862L76.902 154.632L77.8547 154.328ZM78.7188 154.328L79.6725 154.628L80.0822 153.328H78.7188V154.328ZM72.2067 175V176H72.9402L73.1605 175.3L72.2067 175ZM72.2867 170.008H71.2867V171.008H72.2867V170.008ZM72.2867 166.408V165.408H71.2867V166.408H72.2867ZM84.3827 166.408H85.3828V165.408H84.3827V166.408ZM84.3827 170.008V171.008H85.3828V170.008H84.3827ZM68.2387 175L69.1925 175.301L76.4565 152.261L75.5027 151.96L74.549 151.659L67.285 174.699L68.2387 175ZM75.5027 151.96V152.96H81.1507V151.96V150.96H75.5027V151.96ZM81.1507 151.96L80.197 152.261L87.461 175.301L88.4147 175L89.3685 174.699L82.1045 151.659L81.1507 151.96ZM88.4147 175V174H84.4467V175V176H88.4147V175ZM84.4467 175L85.3995 174.696L78.8075 154.024L77.8547 154.328L76.902 154.632L83.494 175.304L84.4467 175ZM77.8547 154.328V155.328H78.7188V154.328V153.328H77.8547V154.328ZM78.7188 154.328L77.765 154.028L71.253 174.7L72.2067 175L73.1605 175.3L79.6725 154.628L78.7188 154.328ZM72.2067 175V174H68.2387V175V176H72.2067V175ZM72.2867 170.008H73.2867V166.408H72.2867H71.2867V170.008H72.2867ZM72.2867 166.408V167.408H84.3827V166.408V165.408H72.2867V166.408ZM84.3827 166.408H83.3827V170.008H84.3827H85.3828V166.408H84.3827ZM84.3827 170.008V169.008H72.2867V170.008V171.008H84.3827V170.008ZM95.9305 174.6L95.5304 175.516L95.5331 175.518L95.9305 174.6ZM92.6025 172.088L91.8164 172.706L91.8231 172.715L92.6025 172.088ZM90.9545 168.184L90.8042 167.195L89.8117 167.346L89.9665 168.338L90.9545 168.184ZM94.9545 167.576L95.9246 167.333L95.7039 166.451L94.8042 166.587L94.9545 167.576ZM97.0505 170.744L96.4732 171.561L96.477 171.563L97.0505 170.744ZM103.051 171.48L103.383 172.423L103.051 171.48ZM104.811 170.36L104.08 169.677L104.072 169.686L104.811 170.36ZM105.339 167.672L104.405 168.031L104.41 168.043L105.339 167.672ZM104.859 166.936L104.134 167.625L104.142 167.634L104.151 167.643L104.859 166.936ZM104.059 166.36L103.565 167.23L103.582 167.24L103.6 167.249L104.059 166.36ZM102.939 165.896L103.226 164.938L103.222 164.937L102.939 165.896ZM96.9865 164.136L97.2701 163.177L97.2665 163.176L96.9865 164.136ZM95.3225 163.544L94.9226 164.461L94.9325 164.465L94.9426 164.469L95.3225 163.544ZM93.6425 162.504L92.9917 163.263L93 163.27L93.0084 163.277L93.6425 162.504ZM92.3465 160.808L91.4439 161.238L91.4479 161.247L91.4521 161.255L92.3465 160.808ZM92.9705 154.52L92.1695 153.921L92.1685 153.923L92.9705 154.52ZM96.0105 152.248L95.6458 151.317L95.6432 151.318L96.0105 152.248ZM100.267 151.512L100.26 152.512L100.26 152.512L100.267 151.512ZM104.491 152.328L104.095 153.246L104.101 153.249L104.491 152.328ZM107.595 154.616L108.364 153.977V153.977L107.595 154.616ZM109.355 158.248L109.526 159.233L110.576 159.051L110.327 158.014L109.355 158.248ZM105.211 158.968L104.232 159.174L104.431 160.118L105.382 159.953L105.211 158.968ZM104.219 156.904L103.45 157.544L103.457 157.552L103.463 157.559L104.219 156.904ZM102.443 155.592L102.047 156.51L102.052 156.513L102.443 155.592ZM100.219 155.112L100.246 154.112L100.232 154.112L100.219 155.112ZM98.0745 155.464L98.4138 156.405L98.4223 156.402L98.0745 155.464ZM96.4905 156.488L95.7489 155.817L95.7401 155.827L96.4905 156.488ZM96.4105 159.448L95.6823 160.133L95.6874 160.139L95.6926 160.144L96.4105 159.448ZM97.6745 160.296L97.283 161.216L97.2946 161.221L97.3065 161.226L97.6745 160.296ZM99.2265 160.808L99.4953 159.845L99.4829 159.841L99.2265 160.808ZM103.355 161.96L103.086 162.923L103.099 162.927L103.355 161.96ZM105.259 162.568L104.917 163.508L105.259 162.568ZM108.891 165.448L108.017 165.935L108.022 165.944L108.891 165.448ZM108.779 171.448L107.903 170.964L107.901 170.968L108.779 171.448ZM106.779 173.688L107.357 174.504L106.779 173.688ZM103.883 175.032L103.618 174.068L103.615 174.068L103.883 175.032ZM100.491 175.48V174.48C98.9226 174.48 97.5406 174.208 96.3279 173.682L95.9305 174.6L95.5331 175.518C97.0298 176.166 98.6877 176.48 100.491 176.48V175.48ZM95.9305 174.6L96.3306 173.684C95.1268 173.158 94.1502 172.417 93.3819 171.461L92.6025 172.088L91.8231 172.715C92.8041 173.935 94.0462 174.869 95.5304 175.516L95.9305 174.6ZM92.6025 172.088L93.3886 171.47C92.6399 170.518 92.1532 169.38 91.9426 168.03L90.9545 168.184L89.9665 168.338C90.2251 169.996 90.8372 171.461 91.8165 172.706L92.6025 172.088ZM90.9545 168.184L91.1048 169.173L95.1048 168.565L94.9545 167.576L94.8042 166.587L90.8042 167.195L90.9545 168.184ZM94.9545 167.576L93.9844 167.819C94.3782 169.394 95.204 170.663 96.4732 171.561L97.0505 170.744L97.6278 169.927C96.785 169.332 96.2135 168.489 95.9246 167.333L94.9545 167.576ZM97.0505 170.744L96.477 171.563C97.723 172.435 99.1528 172.864 100.731 172.864V171.864V170.864C99.5349 170.864 98.5114 170.546 97.624 169.925L97.0505 170.744ZM100.731 171.864V172.864C101.657 172.864 102.544 172.719 103.383 172.423L103.051 171.48L102.718 170.537C102.106 170.753 101.446 170.864 100.731 170.864V171.864ZM103.051 171.48L103.383 172.423C104.239 172.121 104.974 171.664 105.549 171.034L104.811 170.36L104.072 169.686C103.751 170.037 103.312 170.327 102.718 170.537L103.051 171.48ZM104.811 170.36L105.541 171.043C106.185 170.354 106.499 169.502 106.499 168.552H105.499H104.499C104.499 169.031 104.354 169.384 104.08 169.677L104.811 170.36ZM105.499 168.552H106.499C106.499 168.119 106.426 167.698 106.267 167.301L105.339 167.672L104.41 168.043C104.464 168.179 104.499 168.345 104.499 168.552H105.499ZM105.339 167.672L106.272 167.313C106.114 166.903 105.876 166.54 105.566 166.229L104.859 166.936L104.151 167.643C104.267 167.759 104.35 167.886 104.405 168.031L105.339 167.672ZM104.859 166.936L105.584 166.247C105.287 165.935 104.922 165.68 104.517 165.471L104.059 166.36L103.6 167.249C103.856 167.381 104.025 167.511 104.134 167.625L104.859 166.936ZM104.059 166.36L104.552 165.49C104.155 165.265 103.71 165.083 103.226 164.938L102.939 165.896L102.651 166.854C103.021 166.965 103.322 167.092 103.565 167.23L104.059 166.36ZM102.939 165.896L103.222 164.937L97.2701 163.177L96.9865 164.136L96.7029 165.095L102.655 166.855L102.939 165.896ZM96.9865 164.136L97.2665 163.176C96.7946 163.038 96.2736 162.854 95.7024 162.619L95.3225 163.544L94.9426 164.469C95.566 164.725 96.1544 164.935 96.7065 165.096L96.9865 164.136ZM95.3225 163.544L95.7225 162.627C95.2263 162.411 94.7443 162.114 94.2766 161.731L93.6425 162.504L93.0084 163.277C93.6074 163.768 94.2454 164.165 94.9226 164.461L95.3225 163.544ZM93.6425 162.504L94.2933 161.745C93.8823 161.392 93.5292 160.937 93.2409 160.361L92.3465 160.808L91.4521 161.255C91.8465 162.044 92.3574 162.72 92.9917 163.263L93.6425 162.504ZM92.3465 160.808L93.2491 160.378C92.9996 159.854 92.8505 159.158 92.8505 158.248H91.8505H90.8505C90.8505 159.365 91.0321 160.375 91.4439 161.238L92.3465 160.808ZM91.8505 158.248H92.8505C92.8505 156.939 93.1771 155.917 93.7725 155.117L92.9705 154.52L92.1685 153.923C91.2706 155.128 90.8505 156.591 90.8505 158.248H91.8505ZM92.9705 154.52L93.7715 155.119C94.4091 154.266 95.2669 153.617 96.3778 153.178L96.0105 152.248L95.6432 151.318C94.2155 151.882 93.0466 152.748 92.1695 153.921L92.9705 154.52ZM96.0105 152.248L96.3752 153.179C97.5222 152.73 98.8126 152.502 100.26 152.512L100.267 151.512L100.273 150.512C98.6057 150.501 97.0588 150.763 95.6458 151.317L96.0105 152.248ZM100.267 151.512L100.26 152.512C101.727 152.522 102.999 152.774 104.095 153.246L104.491 152.328L104.886 151.41C103.507 150.815 101.963 150.523 100.273 150.512L100.267 151.512ZM104.491 152.328L104.101 153.249C105.196 153.711 106.099 154.379 106.825 155.255L107.595 154.616L108.364 153.977C107.426 152.848 106.26 151.99 104.88 151.407L104.491 152.328ZM107.595 154.616L106.825 155.255C107.548 156.126 108.072 157.194 108.382 158.482L109.355 158.248L110.327 158.014C109.954 156.465 109.305 155.111 108.364 153.977L107.595 154.616ZM109.355 158.248L109.183 157.263L105.039 157.983L105.211 158.968L105.382 159.953L109.526 159.233L109.355 158.248ZM105.211 158.968L106.189 158.762C105.987 157.803 105.587 156.956 104.974 156.249L104.219 156.904L103.463 157.559C103.831 157.983 104.092 158.512 104.232 159.174L105.211 158.968ZM104.219 156.904L104.987 156.264C104.403 155.563 103.68 155.031 102.833 154.671L102.443 155.592L102.052 156.513C102.613 156.75 103.074 157.093 103.45 157.544L104.219 156.904ZM102.443 155.592L102.838 154.674C102.023 154.322 101.156 154.137 100.246 154.112L100.219 155.112L100.191 156.112C100.86 156.13 101.475 156.264 102.047 156.51L102.443 155.592ZM100.219 155.112L100.232 154.112C99.352 154.1 98.5136 154.235 97.7267 154.526L98.0745 155.464L98.4223 156.402C98.9581 156.203 99.549 156.103 100.205 156.112L100.219 155.112ZM98.0745 155.464L97.7352 154.523C96.9529 154.805 96.2793 155.231 95.749 155.817L96.4905 156.488L97.232 157.159C97.5124 156.849 97.8947 156.592 98.4138 156.405L98.0745 155.464ZM96.4905 156.488L95.7401 155.827C95.1845 156.458 94.8985 157.215 94.8985 158.056H95.8985H96.8985C96.8985 157.702 97.0072 157.414 97.2409 157.149L96.4905 156.488ZM95.8985 158.056H94.8985C94.8985 158.839 95.1425 159.56 95.6823 160.133L96.4105 159.448L97.1387 158.763C96.9958 158.611 96.8985 158.404 96.8985 158.056H95.8985ZM96.4105 159.448L95.6926 160.144C96.1365 160.602 96.6727 160.956 97.283 161.216L97.6745 160.296L98.0661 159.376C97.6737 159.209 97.3672 158.998 97.1284 158.752L96.4105 159.448ZM97.6745 160.296L97.3065 161.226C97.8542 161.443 98.4088 161.626 98.9701 161.775L99.2265 160.808L99.4829 159.841C98.9988 159.713 98.5188 159.555 98.0425 159.366L97.6745 160.296ZM99.2265 160.808L98.9577 161.771L103.086 162.923L103.355 161.96L103.623 160.997L99.4953 159.845L99.2265 160.808ZM103.355 161.96L103.099 162.927C103.629 163.067 104.234 163.259 104.917 163.508L105.259 162.568L105.6 161.628C104.875 161.365 104.211 161.152 103.61 160.993L103.355 161.96ZM105.259 162.568L104.917 163.508C105.533 163.732 106.132 164.046 106.714 164.457L107.291 163.64L107.867 162.823C107.148 162.316 106.393 161.916 105.6 161.628L105.259 162.568ZM107.291 163.64L106.714 164.457C107.233 164.823 107.669 165.309 108.017 165.935L108.891 165.448L109.764 164.961C109.281 164.093 108.649 163.374 107.867 162.823L107.291 163.64ZM108.891 165.448L108.022 165.944C108.338 166.497 108.531 167.261 108.531 168.296H109.531H110.531C110.531 167.027 110.296 165.892 109.759 164.952L108.891 165.448ZM109.531 168.296H108.531C108.531 169.348 108.311 170.227 107.903 170.964L108.779 171.448L109.654 171.932C110.249 170.856 110.531 169.634 110.531 168.296H109.531ZM108.779 171.448L107.901 170.968C107.484 171.729 106.921 172.362 106.2 172.872L106.779 173.688L107.357 174.504C108.322 173.82 109.091 172.959 109.656 171.928L108.779 171.448ZM106.779 173.688L106.2 172.872C105.461 173.396 104.604 173.797 103.618 174.068L103.883 175.032L104.147 175.996C105.337 175.67 106.411 175.175 107.357 174.504L106.779 173.688ZM103.883 175.032L103.615 174.068C102.63 174.342 101.59 174.48 100.491 174.48V175.48V176.48C101.759 176.48 102.98 176.32 104.15 175.996L103.883 175.032ZM119.81 175H118.81V176H119.81V175ZM119.81 155.576H120.81V154.576H119.81V155.576ZM112.354 155.576H111.354V156.576H112.354V155.576ZM112.354 151.96V150.96H111.354V151.96H112.354ZM131.122 151.96H132.122V150.96H131.122V151.96ZM131.122 155.576V156.576H132.122V155.576H131.122ZM123.666 155.576V154.576H122.666V155.576H123.666ZM123.666 175V176H124.666V175H123.666ZM119.81 175H120.81V155.576H119.81H118.81V175H119.81ZM119.81 155.576V154.576H112.354V155.576V156.576H119.81V155.576ZM112.354 155.576H113.354V151.96H112.354H111.354V155.576H112.354ZM112.354 151.96V152.96H131.122V151.96V150.96H112.354V151.96ZM131.122 151.96H130.122V155.576H131.122H132.122V151.96H131.122ZM131.122 155.576V154.576H123.666V155.576V156.576H131.122V155.576ZM123.666 155.576H122.666V175H123.666H124.666V155.576H123.666ZM123.666 175V174H119.81V175V176H123.666V175ZM141.677 175H140.677V176H141.677V175ZM141.677 151.96V150.96H140.677V151.96H141.677ZM145.149 151.96L146.048 151.521L145.774 150.96H145.149V151.96ZM153.117 168.28L152.219 168.719L153.117 170.559L154.016 168.719L153.117 168.28ZM161.085 151.96V150.96H160.461L160.187 151.521L161.085 151.96ZM164.557 151.96H165.557V150.96H164.557V151.96ZM164.557 175V176H165.557V175H164.557ZM160.958 175H159.958V176H160.958V175ZM160.958 160.232H161.958L160.056 159.8L160.958 160.232ZM153.885 175V176H154.515L154.787 175.432L153.885 175ZM152.35 175L151.447 175.431L151.719 176H152.35V175ZM145.294 160.232L146.196 159.801L144.294 160.232H145.294ZM145.294 175V176H146.294V175H145.294ZM141.677 175H142.677V151.96H141.677H140.677V175H141.677ZM141.677 151.96V152.96H145.149V151.96V150.96H141.677V151.96ZM145.149 151.96L144.251 152.399L152.219 168.719L153.117 168.28L154.016 167.841L146.048 151.521L145.149 151.96ZM153.117 168.28L154.016 168.719L161.984 152.399L161.085 151.96L160.187 151.521L152.219 167.841L153.117 168.28ZM161.085 151.96V152.96H164.557V151.96V150.96H161.085V151.96ZM164.557 151.96H163.557V175H164.557H165.557V151.96H164.557ZM164.557 175V174H160.958V175V176H164.557V175ZM160.958 175H161.958V160.232H160.958H159.958V175H160.958ZM160.958 160.232L160.056 159.8L152.984 174.568L153.885 175L154.787 175.432L161.859 160.664L160.958 160.232ZM153.885 175V174H152.35V175V176H153.885V175ZM152.35 175L153.252 174.569L146.196 159.801L145.294 160.232L144.391 160.663L151.447 175.431L152.35 175ZM145.294 160.232H144.294V175H145.294H146.294V160.232H145.294ZM145.294 175V174H141.677V175V176H145.294V175ZM174.156 173.976L173.631 174.827L173.635 174.83L174.156 173.976ZM170.365 169.752L169.465 170.189L169.467 170.193L170.365 169.752ZM170.365 157.208L169.467 156.767L169.465 156.771L170.365 157.208ZM174.156 153L174.678 153.854L174.682 153.851L174.156 153ZM185.997 153L185.471 153.851L185.478 153.855L185.997 153ZM189.788 157.208L188.889 157.645L188.891 157.649L189.788 157.208ZM189.788 169.752L188.891 169.311L188.889 169.315L189.788 169.752ZM185.997 173.976L186.518 174.83L186.519 174.829L185.997 173.976ZM180.076 171.848L180.063 172.848L180.07 172.848L180.076 171.848ZM183.932 170.824L183.376 169.993L183.372 169.996L183.932 170.824ZM186.253 167.896L185.329 167.512L185.326 167.519L186.253 167.896ZM186.253 159.096L185.327 159.476L185.331 159.485L186.253 159.096ZM183.932 156.184L183.372 157.012L183.376 157.015L183.932 156.184ZM180.076 155.112L180.09 154.112L180.083 154.112L180.076 155.112ZM176.221 156.136L176.781 156.964L176.221 156.136ZM173.9 159.064L172.977 158.68L172.974 158.687L173.9 159.064ZM173.9 167.88L172.975 168.26L172.976 168.262L173.9 167.88ZM176.204 170.776L175.644 171.604L175.648 171.607L176.204 170.776ZM180.076 175.48V174.48C177.92 174.48 176.135 174.012 174.678 173.122L174.156 173.976L173.635 174.83C175.464 175.945 177.625 176.48 180.076 176.48V175.48ZM174.156 173.976L174.682 173.125C173.206 172.215 172.068 170.952 171.262 169.311L170.365 169.752L169.467 170.193C170.432 172.157 171.822 173.711 173.631 174.827L174.156 173.976ZM170.365 169.752L171.264 169.315C170.467 167.672 170.053 165.735 170.053 163.48H169.053H168.053C168.053 165.982 168.513 168.227 169.465 170.189L170.365 169.752ZM169.053 163.48H170.053C170.053 161.225 170.467 159.288 171.264 157.645L170.365 157.208L169.465 156.771C168.513 158.733 168.053 160.978 168.053 163.48H169.053ZM170.365 157.208L171.262 157.649C172.067 156.009 173.204 154.753 174.678 153.854L174.156 153L173.635 152.146C171.823 153.253 170.432 154.802 169.467 156.767L170.365 157.208ZM174.156 153L174.682 153.851C176.138 152.953 177.922 152.48 180.076 152.48V151.48V150.48C177.623 150.48 175.46 151.021 173.631 152.149L174.156 153ZM180.076 151.48V152.48C182.231 152.48 184.015 152.953 185.471 153.851L185.997 153L186.522 152.149C184.693 151.021 182.53 150.48 180.076 150.48V151.48ZM185.997 153L185.478 153.855C186.96 154.754 188.095 156.009 188.889 157.645L189.788 157.208L190.688 156.771C189.733 154.802 188.339 153.251 186.515 152.145L185.997 153ZM189.788 157.208L188.891 157.649C189.698 159.291 190.117 161.226 190.117 163.48H191.117H192.117C192.117 160.976 191.65 158.73 190.686 156.767L189.788 157.208ZM191.117 163.48H190.117C190.117 165.734 189.698 167.669 188.891 169.311L189.788 169.752L190.686 170.193C191.65 168.23 192.117 165.984 192.117 163.48H191.117ZM189.788 169.752L188.889 169.315C188.095 170.952 186.959 172.213 185.474 173.123L185.997 173.976L186.519 174.829C188.341 173.712 189.733 172.157 190.688 170.189L189.788 169.752ZM185.997 173.976L185.475 173.122C184.018 174.012 182.233 174.48 180.076 174.48V175.48V176.48C182.528 176.48 184.689 175.945 186.518 174.83L185.997 173.976ZM180.076 171.848L180.07 172.848C181.768 172.86 183.264 172.484 184.493 171.652L183.932 170.824L183.372 169.996C182.553 170.55 181.479 170.858 180.083 170.848L180.076 171.848ZM183.932 170.824L184.489 171.655C185.705 170.84 186.599 169.699 187.179 168.273L186.253 167.896L185.326 167.519C184.882 168.611 184.23 169.421 183.376 169.993L183.932 170.824ZM186.253 167.896L187.176 168.28C187.76 166.874 188.036 165.267 188.036 163.48H187.036H186.036C186.036 165.064 185.791 166.4 185.329 167.512L186.253 167.896ZM187.036 163.48H188.036C188.036 161.694 187.76 160.094 187.174 158.707L186.253 159.096L185.331 159.485C185.791 160.572 186.036 161.895 186.036 163.48H187.036ZM186.253 159.096L187.178 158.716C186.597 157.301 185.702 156.166 184.489 155.353L183.932 156.184L183.376 157.015C184.232 157.588 184.884 158.395 185.327 159.476L186.253 159.096ZM183.932 156.184L184.493 155.356C183.271 154.529 181.783 154.135 180.09 154.112L180.076 155.112L180.063 156.112C181.463 156.131 182.546 156.453 183.372 157.012L183.932 156.184ZM180.076 155.112L180.083 154.112C178.385 154.1 176.889 154.476 175.66 155.308L176.221 156.136L176.781 156.964C177.6 156.41 178.674 156.102 180.07 156.112L180.076 155.112ZM176.221 156.136L175.66 155.308C174.458 156.122 173.567 157.261 172.977 158.68L173.9 159.064L174.824 159.448C175.28 158.35 175.935 157.537 176.781 156.964L176.221 156.136ZM173.9 159.064L172.974 158.687C172.403 160.091 172.132 161.696 172.132 163.48H173.132H174.132C174.132 161.894 174.374 160.555 174.827 159.441L173.9 159.064ZM173.132 163.48H172.132C172.132 165.264 172.403 166.865 172.975 168.26L173.9 167.88L174.826 167.5C174.374 166.399 174.132 165.066 174.132 163.48H173.132ZM173.9 167.88L172.976 168.262C173.557 169.665 174.444 170.792 175.644 171.604L176.204 170.776L176.765 169.948C175.917 169.374 175.268 168.57 174.825 167.498L173.9 167.88ZM176.204 170.776L175.648 171.607C176.878 172.431 178.369 172.825 180.063 172.848L180.076 171.848L180.09 170.848C178.69 170.829 177.6 170.507 176.761 169.945L176.204 170.776ZM195.581 175H194.581V176H195.581V175ZM195.581 151.96V150.96H194.581V151.96H195.581ZM204.061 151.976L204.042 152.976L204.043 152.976L204.061 151.976ZM205.725 152.088L205.853 151.096L205.844 151.095L205.725 152.088ZM210.349 154.04L209.703 154.803L209.71 154.809L210.349 154.04ZM213.229 158.088L212.3 158.456L213.229 158.088ZM213.229 168.872L212.3 168.504L213.229 168.872ZM210.349 172.936L210.992 173.702L210.993 173.702L210.349 172.936ZM205.725 174.872L205.847 175.865L205.853 175.864L205.725 174.872ZM204.077 174.984L204.059 173.984L204.077 174.984ZM199.501 171.368H198.501V172.368H199.501V171.368ZM204.141 171.336L204.099 170.337L204.098 170.337L204.141 171.336ZM205.469 171.192L205.286 170.209L205.278 170.21L205.469 171.192ZM208.125 169.736L207.378 169.072L208.125 169.736ZM209.629 166.936L208.672 166.648L208.669 166.656L209.629 166.936ZM209.629 159.96L208.672 160.248L209.629 159.96ZM208.093 157.192L207.355 157.867L207.36 157.872L208.093 157.192ZM205.469 155.768L205.252 156.744L205.267 156.748L205.283 156.75L205.469 155.768ZM204.141 155.624L204.098 156.623L204.109 156.624L204.12 156.624L204.141 155.624ZM199.501 155.592V154.592H198.501V155.592H199.501ZM195.581 175H196.581V151.96H195.581H194.581V175H195.581ZM195.581 151.96V152.96H202.925V151.96V150.96H195.581V151.96ZM202.925 151.96V152.96C203.106 152.96 203.476 152.965 204.042 152.976L204.061 151.976L204.08 150.976C203.516 150.966 203.128 150.96 202.925 150.96V151.96ZM204.061 151.976L204.043 152.976C204.587 152.986 205.108 153.021 205.606 153.081L205.725 152.088L205.844 151.095C205.275 151.027 204.687 150.987 204.08 150.976L204.061 151.976ZM205.725 152.088L205.598 153.08C207.253 153.293 208.608 153.875 209.703 154.803L210.349 154.04L210.996 153.277C209.573 152.072 207.846 151.353 205.853 151.096L205.725 152.088ZM210.349 154.04L209.71 154.809C210.841 155.75 211.706 156.958 212.3 158.456L213.229 158.088L214.159 157.72C213.451 155.933 212.396 154.442 210.989 153.271L210.349 154.04ZM213.229 158.088L212.3 158.456C212.899 159.97 213.205 161.641 213.205 163.48H214.205H215.205C215.205 161.415 214.861 159.491 214.159 157.72L213.229 158.088ZM214.205 163.48H213.205C213.205 165.319 212.899 166.99 212.3 168.504L213.229 168.872L214.159 169.24C214.861 167.469 215.205 165.545 215.205 163.48H214.205ZM213.229 168.872L212.3 168.504C211.706 170.003 210.84 171.217 209.706 172.17L210.349 172.936L210.993 173.702C212.397 172.521 213.451 171.027 214.159 169.24L213.229 168.872ZM210.349 172.936L209.707 172.17C208.611 173.089 207.255 173.667 205.598 173.88L205.725 174.872L205.853 175.864C207.843 175.608 209.57 174.895 210.992 173.702L210.349 172.936ZM205.725 174.872L205.604 173.879C205.118 173.939 204.603 173.974 204.059 173.984L204.077 174.984L204.096 175.984C204.703 175.973 205.287 175.933 205.847 175.865L205.725 174.872ZM204.077 174.984L204.059 173.984C203.481 173.995 203.106 174 202.925 174V175V176C203.128 176 203.521 175.994 204.096 175.984L204.077 174.984ZM202.925 175V174H195.581V175V176H202.925V175ZM199.501 171.368V172.368H202.925V171.368V170.368H199.501V171.368ZM202.925 171.368V172.368C203.265 172.368 203.686 172.357 204.185 172.335L204.141 171.336L204.098 170.337C203.615 170.358 203.225 170.368 202.925 170.368V171.368ZM204.141 171.336L204.184 172.335C204.722 172.312 205.216 172.26 205.66 172.174L205.469 171.192L205.278 170.21C204.955 170.273 204.563 170.317 204.099 170.337L204.141 171.336ZM205.469 171.192L205.652 172.175C206.941 171.935 208.031 171.347 208.873 170.4L208.125 169.736L207.378 169.072C206.854 169.661 206.174 170.044 205.286 170.209L205.469 171.192ZM208.125 169.736L208.873 170.4C209.665 169.509 210.233 168.44 210.589 167.216L209.629 166.936L208.669 166.656C208.386 167.629 207.951 168.427 207.378 169.072L208.125 169.736ZM209.629 166.936L210.587 167.224C210.947 166.027 211.125 164.778 211.125 163.48H210.125H209.125C209.125 164.593 208.973 165.647 208.672 166.648L209.629 166.936ZM210.125 163.48H211.125C211.125 162.143 210.948 160.872 210.587 159.672L209.629 159.96L208.672 160.248C208.972 161.246 209.125 162.321 209.125 163.48H210.125ZM209.629 159.96L210.587 159.672C210.218 158.445 209.636 157.383 208.826 156.512L208.093 157.192L207.36 157.872C207.937 158.494 208.379 159.277 208.672 160.248L209.629 159.96ZM208.093 157.192L208.831 156.517C207.992 155.599 206.918 155.025 205.656 154.786L205.469 155.768L205.283 156.75C206.154 156.916 206.829 157.291 207.355 157.867L208.093 157.192ZM205.469 155.768L205.686 154.792C205.223 154.689 204.713 154.636 204.163 154.624L204.141 155.624L204.12 156.624C204.572 156.633 204.947 156.676 205.252 156.744L205.469 155.768ZM204.141 155.624L204.185 154.625C203.686 154.603 203.265 154.592 202.925 154.592V155.592V156.592C203.225 156.592 203.615 156.602 204.098 156.623L204.141 155.624ZM202.925 155.592V154.592H199.501V155.592V156.592H202.925V155.592ZM199.501 155.592H198.501V171.368H199.501H200.501V155.592H199.501ZM217.042 175L216.089 174.699L215.679 176H217.042V175ZM224.307 151.96V150.96H223.573L223.353 151.659L224.307 151.96ZM229.954 151.96L230.908 151.659L230.688 150.96H229.954V151.96ZM237.219 175V176H238.582L238.172 174.699L237.219 175ZM233.251 175L232.298 175.304L232.52 176H233.251V175ZM226.658 154.328V153.328H225.29L225.706 154.632L226.658 154.328ZM227.522 154.328L228.476 154.628L228.886 153.328H227.522V154.328ZM221.01 175V176H221.744L221.964 175.3L221.01 175ZM221.09 170.008H220.09V171.008H221.09V170.008ZM221.09 166.408V165.408H220.09V166.408H221.09ZM233.186 166.408H234.186V165.408H233.186V166.408ZM233.186 170.008V171.008H234.186V170.008H233.186ZM217.042 175L217.996 175.301L225.26 152.261L224.307 151.96L223.353 151.659L216.089 174.699L217.042 175ZM224.307 151.96V152.96H229.954V151.96V150.96H224.307V151.96ZM229.954 151.96L229.001 152.261L236.265 175.301L237.219 175L238.172 174.699L230.908 151.659L229.954 151.96ZM237.219 175V174H233.251V175V176H237.219V175ZM233.251 175L234.203 174.696L227.611 154.024L226.658 154.328L225.706 154.632L232.298 175.304L233.251 175ZM226.658 154.328V155.328H227.522V154.328V153.328H226.658V154.328ZM227.522 154.328L226.569 154.028L220.057 174.7L221.01 175L221.964 175.3L228.476 154.628L227.522 154.328ZM221.01 175V174H217.042V175V176H221.01V175ZM221.09 170.008H222.09V166.408H221.09H220.09V170.008H221.09ZM221.09 166.408V167.408H233.186V166.408V165.408H221.09V166.408ZM233.186 166.408H232.186V170.008H233.186H234.186V166.408H233.186ZM233.186 170.008V169.008H221.09V170.008V171.008H233.186V170.008ZM241.711 175H240.711V176H241.711V175ZM241.711 151.96V150.96H240.711V151.96H241.711ZM245.567 151.96H246.567V150.96H245.567V151.96ZM245.567 171.384H244.567V172.384H245.567V171.384ZM255.743 171.384H256.743V170.384H255.743V171.384ZM255.743 175V176H256.743V175H255.743ZM241.711 175H242.711V151.96H241.711H240.711V175H241.711ZM241.711 151.96V152.96H245.567V151.96V150.96H241.711V151.96ZM245.567 151.96H244.567V171.384H245.567H246.567V151.96H245.567ZM245.567 171.384V172.384H255.743V171.384V170.384H245.567V171.384ZM255.743 171.384H254.743V175H255.743H256.743V171.384H255.743ZM255.743 175V174H241.711V175V176H255.743V175ZM263.702 174.6L263.302 175.516L263.304 175.518L263.702 174.6ZM260.374 172.088L259.588 172.706L259.594 172.715L260.374 172.088ZM258.726 168.184L258.575 167.195L257.583 167.346L257.738 168.338L258.726 168.184ZM262.726 167.576L263.696 167.333L263.475 166.451L262.575 166.587L262.726 167.576ZM264.822 170.744L264.244 171.561L264.248 171.563L264.822 170.744ZM270.822 171.48L271.155 172.423L270.822 171.48ZM272.582 170.36L271.851 169.677L271.843 169.686L272.582 170.36ZM273.11 167.672L272.176 168.031L272.181 168.043L273.11 167.672ZM272.63 166.936L271.905 167.625L271.914 167.634L271.923 167.643L272.63 166.936ZM271.83 166.36L271.337 167.23L271.354 167.24L271.371 167.249L271.83 166.36ZM270.71 165.896L270.997 164.938L270.993 164.937L270.71 165.896ZM264.758 164.136L265.041 163.177L265.038 163.176L264.758 164.136ZM263.094 163.544L262.694 164.461L262.704 164.465L262.714 164.469L263.094 163.544ZM261.414 162.504L260.763 163.263L260.771 163.27L260.78 163.277L261.414 162.504ZM260.118 160.808L259.215 161.238L259.219 161.247L259.223 161.255L260.118 160.808ZM260.742 154.52L259.941 153.921L259.94 153.923L260.742 154.52ZM263.782 152.248L263.417 151.317L263.414 151.318L263.782 152.248ZM268.038 151.512L268.031 152.512L268.031 152.512L268.038 151.512ZM272.262 152.328L271.866 153.246L271.873 153.249L272.262 152.328ZM275.366 154.616L276.135 153.977L276.135 153.977L275.366 154.616ZM277.126 158.248L277.297 159.233L278.347 159.051L278.098 158.014L277.126 158.248ZM272.982 158.968L272.003 159.174L272.202 160.118L273.153 159.953L272.982 158.968ZM271.99 156.904L271.222 157.544L271.228 157.552L271.235 157.559L271.99 156.904ZM270.214 155.592L269.818 156.51L269.823 156.513L270.214 155.592ZM267.99 155.112L268.017 154.112L268.004 154.112L267.99 155.112ZM265.846 155.464L266.185 156.405L266.194 156.402L265.846 155.464ZM264.262 156.488L263.52 155.817L263.511 155.827L264.262 156.488ZM264.182 159.448L263.454 160.133L263.459 160.139L263.464 160.144L264.182 159.448ZM265.446 160.296L265.054 161.216L265.066 161.221L265.078 161.226L265.446 160.296ZM266.998 160.808L267.267 159.845L267.254 159.841L266.998 160.808ZM271.126 161.96L270.857 162.923L270.87 162.927L271.126 161.96ZM273.03 162.568L272.688 163.508L273.03 162.568ZM276.662 165.448L275.788 165.935L275.794 165.944L276.662 165.448ZM276.55 171.448L275.675 170.964L275.673 170.968L276.55 171.448ZM274.55 173.688L275.128 174.504L274.55 173.688ZM271.654 175.032L271.389 174.068L271.387 174.068L271.654 175.032ZM268.262 175.48V174.48C266.694 174.48 265.312 174.208 264.099 173.682L263.702 174.6L263.304 175.518C264.801 176.166 266.459 176.48 268.262 176.48V175.48ZM263.702 174.6L264.102 173.684C262.898 173.158 261.921 172.417 261.153 171.461L260.374 172.088L259.594 172.715C260.575 173.935 261.817 174.869 263.302 175.516L263.702 174.6ZM260.374 172.088L261.16 171.47C260.411 170.518 259.924 169.38 259.714 168.03L258.726 168.184L257.738 168.338C257.996 169.996 258.608 171.461 259.588 172.706L260.374 172.088ZM258.726 168.184L258.876 169.173L262.876 168.565L262.726 167.576L262.575 166.587L258.575 167.195L258.726 168.184ZM262.726 167.576L261.756 167.819C262.149 169.394 262.975 170.663 264.244 171.561L264.822 170.744L265.399 169.927C264.556 169.332 263.985 168.489 263.696 167.333L262.726 167.576ZM264.822 170.744L264.248 171.563C265.494 172.435 266.924 172.864 268.502 172.864V171.864V170.864C267.306 170.864 266.283 170.546 265.395 169.925L264.822 170.744ZM268.502 171.864V172.864C269.429 172.864 270.315 172.719 271.155 172.423L270.822 171.48L270.489 170.537C269.878 170.753 269.217 170.864 268.502 170.864V171.864ZM270.822 171.48L271.155 172.423C272.011 172.121 272.745 171.664 273.32 171.034L272.582 170.36L271.843 169.686C271.523 170.037 271.084 170.327 270.489 170.537L270.822 171.48ZM272.582 170.36L273.312 171.043C273.956 170.354 274.27 169.502 274.27 168.552H273.27H272.27C272.27 169.031 272.125 169.384 271.851 169.677L272.582 170.36ZM273.27 168.552H274.27C274.27 168.119 274.197 167.698 274.038 167.301L273.11 167.672L272.181 168.043C272.236 168.179 272.27 168.345 272.27 168.552H273.27ZM273.11 167.672L274.043 167.313C273.885 166.903 273.648 166.54 273.337 166.229L272.63 166.936L271.923 167.643C272.039 167.759 272.121 167.886 272.176 168.031L273.11 167.672ZM272.63 166.936L273.355 166.247C273.058 165.935 272.693 165.68 272.288 165.471L271.83 166.36L271.371 167.249C271.628 167.381 271.796 167.511 271.905 167.625L272.63 166.936ZM271.83 166.36L272.323 165.49C271.926 165.265 271.481 165.083 270.997 164.938L270.71 165.896L270.422 166.854C270.792 166.965 271.094 167.092 271.337 167.23L271.83 166.36ZM270.71 165.896L270.993 164.937L265.041 163.177L264.758 164.136L264.474 165.095L270.426 166.855L270.71 165.896ZM264.758 164.136L265.038 163.176C264.566 163.038 264.045 162.854 263.474 162.619L263.094 163.544L262.714 164.469C263.337 164.725 263.926 164.935 264.478 165.096L264.758 164.136ZM263.094 163.544L263.494 162.627C262.998 162.411 262.516 162.114 262.048 161.731L261.414 162.504L260.78 163.277C261.379 163.768 262.017 164.165 262.694 164.461L263.094 163.544ZM261.414 162.504L262.065 161.745C261.654 161.392 261.3 160.937 261.012 160.361L260.118 160.808L259.223 161.255C259.618 162.044 260.129 162.72 260.763 163.263L261.414 162.504ZM260.118 160.808L261.02 160.378C260.771 159.854 260.622 159.158 260.622 158.248H259.622H258.622C258.622 159.365 258.803 160.375 259.215 161.238L260.118 160.808ZM259.622 158.248H260.622C260.622 156.939 260.948 155.917 261.544 155.117L260.742 154.52L259.94 153.923C259.042 155.128 258.622 156.591 258.622 158.248H259.622ZM260.742 154.52L261.543 155.119C262.18 154.266 263.038 153.617 264.149 153.178L263.782 152.248L263.414 151.318C261.987 151.882 260.818 152.748 259.941 153.921L260.742 154.52ZM263.782 152.248L264.146 153.179C265.293 152.73 266.584 152.502 268.031 152.512L268.038 151.512L268.045 150.512C266.377 150.501 264.83 150.763 263.417 151.317L263.782 152.248ZM268.038 151.512L268.031 152.512C269.498 152.522 270.771 152.774 271.866 153.246L272.262 152.328L272.658 151.41C271.278 150.815 269.734 150.523 268.044 150.512L268.038 151.512ZM272.262 152.328L271.873 153.249C272.967 153.711 273.87 154.379 274.596 155.255L275.366 154.616L276.135 153.977C275.198 152.848 274.031 151.99 272.651 151.407L272.262 152.328ZM275.366 154.616L274.596 155.255C275.319 156.126 275.844 157.194 276.153 158.482L277.126 158.248L278.098 158.014C277.725 156.465 277.076 155.111 276.135 153.977L275.366 154.616ZM277.126 158.248L276.955 157.263L272.811 157.983L272.982 158.968L273.153 159.953L277.297 159.233L277.126 158.248ZM272.982 158.968L273.96 158.762C273.758 157.803 273.359 156.956 272.745 156.249L271.99 156.904L271.235 157.559C271.602 157.983 271.864 158.512 272.003 159.174L272.982 158.968ZM271.99 156.904L272.758 156.264C272.174 155.563 271.452 155.031 270.604 154.671L270.214 155.592L269.823 156.513C270.384 156.75 270.845 157.093 271.222 157.544L271.99 156.904ZM270.214 155.592L270.609 154.674C269.794 154.322 268.927 154.137 268.017 154.112L267.99 155.112L267.963 156.112C268.631 156.13 269.247 156.264 269.818 156.51L270.214 155.592ZM267.99 155.112L268.004 154.112C267.123 154.1 266.285 154.235 265.498 154.526L265.846 155.464L266.194 156.402C266.729 156.203 267.32 156.103 267.976 156.112L267.99 155.112ZM265.846 155.464L265.506 154.523C264.724 154.805 264.051 155.231 263.52 155.817L264.262 156.488L265.003 157.159C265.284 156.849 265.666 156.592 266.185 156.405L265.846 155.464ZM264.262 156.488L263.511 155.827C262.956 156.458 262.67 157.215 262.67 158.056H263.67H264.67C264.67 157.702 264.778 157.414 265.012 157.149L264.262 156.488ZM263.67 158.056H262.67C262.67 158.839 262.914 159.56 263.454 160.133L264.182 159.448L264.91 158.763C264.767 158.611 264.67 158.404 264.67 158.056H263.67ZM264.182 159.448L263.464 160.144C263.908 160.602 264.444 160.956 265.054 161.216L265.446 160.296L265.837 159.376C265.445 159.209 265.138 158.998 264.9 158.752L264.182 159.448ZM265.446 160.296L265.078 161.226C265.625 161.443 266.18 161.626 266.741 161.775L266.998 160.808L267.254 159.841C266.77 159.713 266.29 159.555 265.814 159.366L265.446 160.296ZM266.998 160.808L266.729 161.771L270.857 162.923L271.126 161.96L271.395 160.997L267.267 159.845L266.998 160.808ZM271.126 161.96L270.87 162.927C271.4 163.067 272.005 163.259 272.688 163.508L273.03 162.568L273.371 161.628C272.647 161.365 271.982 161.152 271.381 160.993L271.126 161.96ZM273.03 162.568L272.688 163.508C273.304 163.732 273.903 164.046 274.486 164.457L275.062 163.64L275.638 162.823C274.919 162.316 274.164 161.916 273.371 161.628L273.03 162.568ZM275.062 163.64L274.486 164.457C275.005 164.823 275.44 165.309 275.788 165.935L276.662 165.448L277.535 164.961C277.052 164.093 276.42 163.374 275.638 162.823L275.062 163.64ZM276.662 165.448L275.794 165.944C276.109 166.497 276.302 167.261 276.302 168.296H277.302H278.302C278.302 167.027 278.067 165.892 277.53 164.952L276.662 165.448ZM277.302 168.296H276.302C276.302 169.348 276.082 170.227 275.675 170.964L276.55 171.448L277.425 171.932C278.02 170.856 278.302 169.634 278.302 168.296H277.302ZM276.55 171.448L275.673 170.968C275.256 171.729 274.692 172.362 273.971 172.872L274.55 173.688L275.128 174.504C276.093 173.82 276.862 172.959 277.427 171.928L276.55 171.448ZM274.55 173.688L273.971 172.872C273.232 173.396 272.375 173.797 271.389 174.068L271.654 175.032L271.918 175.996C273.108 175.67 274.182 175.175 275.128 174.504L274.55 173.688ZM271.654 175.032L271.387 174.068C270.401 174.342 269.361 174.48 268.262 174.48V175.48V176.48C269.531 176.48 270.752 176.32 271.921 175.996L271.654 175.032Z" fill="#042F6B" mask="url(#path-5-outside-1_1513_980)"></path><defs><filter id="filter0_d_1513_980" x="-155.881" y="-126.957" width="430.717" height="500.711" filterUnits="userSpaceOnUse" color-interpolation-filters="sRGB"><feFlood flood-opacity="0" result="BackgroundImageFix"></feFlood><feColorMatrix in="SourceAlpha" type="matrix" values="0 0 0 0 0 0 0 0 0 0 0 0 0 0 0 0 0 0 127 0" result="hardAlpha"></feColorMatrix><feOffset dy="8"></feOffset><feGaussianBlur stdDeviation="9"></feGaussianBlur><feComposite in2="hardAlpha" operator="out"></feComposite><feColorMatrix type="matrix" values="0 0 0 0 0 0 0 0 0 0 0 0 0 0 0 0 0 0 0.15 0"></feColorMatrix><feBlend mode="normal" in2="BackgroundImageFix" result="effect1_dropShadow_1513_980"></feBlend><feBlend mode="normal" in="SourceGraphic" in2="effect1_dropShadow_1513_980" result="shape"></feBlend></filter><filter id="filter1_d_1513_980" x="119.998" y="93.9932" width="486.004" height="437.021" filterUnits="userSpaceOnUse" color-interpolation-filters="sRGB"><feFlood flood-opacity="0" result="BackgroundImageFix"></feFlood><feColorMatrix in="SourceAlpha" type="matrix" values="0 0 0 0 0 0 0 0 0 0 0 0 0 0 0 0 0 0 127 0" result="hardAlpha"></feColorMatrix><feOffset dy="8"></feOffset><feGaussianBlur stdDeviation="9"></feGaussianBlur><feComposite in2="hardAlpha" operator="out"></feComposite><feColorMatrix type="matrix" values="0 0 0 0 0 0 0 0 0 0 0 0 0 0 0 0 0 0 0.15 0"></feColorMatrix><feBlend mode="normal" in2="BackgroundImageFix" result="effect1_dropShadow_1513_980"></feBlend><feBlend mode="normal" in="SourceGraphic" in2="effect1_dropShadow_1513_980" result="shape"></feBlend></filter></defs></svg> 