<?xml version="1.0" encoding="UTF-8"?> <svg xmlns="http://www.w3.org/2000/svg" width="325" height="325" viewBox="0 0 325 325" fill="none"><rect width="325" height="325" rx="10" fill="#1973E7"></rect><mask id="mask0_942_3124" style="mask-type:alpha" maskUnits="userSpaceOnUse" x="0" y="0" width="325" height="325"><rect width="325" height="325" rx="10" fill="#FF7EB3"></rect></mask><g mask="url(#mask0_942_3124)"><g filter="url(#filter0_d_942_3124)"><path d="M164.445 350.839C199.045 334.64 233.374 282.215 261.26 234.223C270.844 217.729 330.962 122.459 307.179 106.136C294.524 97.4502 277.467 101.14 262.346 107.865C225.948 124.055 187.74 157.616 152.906 195.338C142.346 206.774 54.0602 306.554 78.6227 338.07C87.961 350.053 104.939 349.178 117.887 344.102C153.65 330.083 190.633 284.549 219.248 231.704C241.751 190.147 259.213 141.755 271.921 91.4274C281.585 53.1538 290.069 8.33744 278.836 -20.2801C268.045 -47.7676 247.716 -49.7939 226.77 -43.0971C181.316 -28.5646 132.767 14.5292 88.3287 56.06C37.4468 103.613 -13.3551 154.913 -59.8767 222.516" stroke="#0B55B5" stroke-width="50" stroke-linecap="round" shape-rendering="crispEdges"></path></g></g><path d="M120.716 156V136.576H113.26V132.96H132.028V136.576H124.572V156H120.716ZM135.866 156V132.96H139.722V142.656H150.634V132.96H154.474V156H150.634V146.272H139.722V156H135.866ZM160.56 156V132.96H164.416V156H160.56ZM170.489 156V132.96H180.009C180.233 132.96 180.521 132.971 180.873 132.992C181.225 133.003 181.55 133.035 181.849 133.088C183.182 133.291 184.281 133.733 185.145 134.416C186.019 135.099 186.665 135.963 187.081 137.008C187.507 138.043 187.721 139.195 187.721 140.464C187.721 142.341 187.246 143.957 186.297 145.312C185.347 146.656 183.891 147.488 181.929 147.808L180.281 147.952H174.345V156H170.489ZM183.721 156L179.177 146.624L183.097 145.76L188.089 156H183.721ZM174.345 144.352H179.849C180.062 144.352 180.302 144.341 180.569 144.32C180.835 144.299 181.081 144.256 181.305 144.192C181.945 144.032 182.446 143.749 182.809 143.344C183.182 142.939 183.443 142.48 183.593 141.968C183.753 141.456 183.833 140.955 183.833 140.464C183.833 139.973 183.753 139.472 183.593 138.96C183.443 138.437 183.182 137.973 182.809 137.568C182.446 137.163 181.945 136.88 181.305 136.72C181.081 136.656 180.835 136.619 180.569 136.608C180.302 136.587 180.062 136.576 179.849 136.576H174.345V144.352ZM192.894 156V132.96H200.238C200.43 132.96 200.808 132.965 201.374 132.976C201.95 132.987 202.504 133.024 203.038 133.088C204.862 133.323 206.403 133.973 207.662 135.04C208.931 136.096 209.891 137.445 210.542 139.088C211.192 140.731 211.518 142.528 211.518 144.48C211.518 146.432 211.192 148.229 210.542 149.872C209.891 151.515 208.931 152.869 207.662 153.936C206.403 154.992 204.862 155.637 203.038 155.872C202.515 155.936 201.966 155.973 201.39 155.984C200.814 155.995 200.43 156 200.238 156H192.894ZM196.814 152.368H200.238C200.558 152.368 200.963 152.357 201.454 152.336C201.955 152.315 202.398 152.267 202.782 152.192C203.87 151.989 204.755 151.504 205.438 150.736C206.12 149.968 206.622 149.035 206.942 147.936C207.272 146.837 207.438 145.685 207.438 144.48C207.438 143.232 207.272 142.059 206.942 140.96C206.611 139.861 206.099 138.939 205.406 138.192C204.723 137.445 203.848 136.971 202.782 136.768C202.398 136.683 201.955 136.635 201.454 136.624C200.963 136.603 200.558 136.592 200.238 136.592H196.814V152.368ZM60.6934 194.48C58.3894 194.48 56.416 193.979 54.7734 192.976C53.1307 191.963 51.8667 190.555 50.9814 188.752C50.1067 186.949 49.6694 184.859 49.6694 182.48C49.6694 180.101 50.1067 178.011 50.9814 176.208C51.8667 174.405 53.1307 173.003 54.7734 172C56.416 170.987 58.3894 170.48 60.6934 170.48C63.3494 170.48 65.5627 171.147 67.3334 172.48C69.104 173.803 70.3467 175.589 71.0614 177.84L67.1734 178.912C66.7254 177.408 65.9627 176.235 64.8854 175.392C63.808 174.539 62.4107 174.112 60.6934 174.112C59.1467 174.112 57.856 174.459 56.8214 175.152C55.7974 175.845 55.024 176.821 54.5014 178.08C53.9894 179.328 53.728 180.795 53.7174 182.48C53.7174 184.165 53.9734 185.637 54.4854 186.896C55.008 188.144 55.7867 189.115 56.8214 189.808C57.856 190.501 59.1467 190.848 60.6934 190.848C62.4107 190.848 63.808 190.421 64.8854 189.568C65.9627 188.715 66.7254 187.541 67.1734 186.048L71.0614 187.12C70.3467 189.371 69.104 191.163 67.3334 192.496C65.5627 193.819 63.3494 194.48 60.6934 194.48ZM85.5984 194.48C83.2944 194.48 81.321 193.979 79.6784 192.976C78.0357 191.963 76.7717 190.555 75.8864 188.752C75.0117 186.949 74.5744 184.859 74.5744 182.48C74.5744 180.101 75.0117 178.011 75.8864 176.208C76.7717 174.405 78.0357 173.003 79.6784 172C81.321 170.987 83.2944 170.48 85.5984 170.48C87.9024 170.48 89.8757 170.987 91.5184 172C93.1717 173.003 94.4357 174.405 95.3104 176.208C96.1957 178.011 96.6384 180.101 96.6384 182.48C96.6384 184.859 96.1957 186.949 95.3104 188.752C94.4357 190.555 93.1717 191.963 91.5184 192.976C89.8757 193.979 87.9024 194.48 85.5984 194.48ZM85.5984 190.848C87.145 190.859 88.4304 190.517 89.4544 189.824C90.489 189.131 91.2624 188.155 91.7744 186.896C92.297 185.637 92.5584 184.165 92.5584 182.48C92.5584 180.795 92.297 179.333 91.7744 178.096C91.2624 176.848 90.489 175.877 89.4544 175.184C88.4304 174.491 87.145 174.133 85.5984 174.112C84.0517 174.101 82.7664 174.443 81.7424 175.136C80.7184 175.829 79.945 176.805 79.4224 178.064C78.9104 179.323 78.6544 180.795 78.6544 182.48C78.6544 184.165 78.9104 185.632 79.4224 186.88C79.9344 188.117 80.7024 189.083 81.7264 189.776C82.761 190.469 84.0517 190.827 85.5984 190.848ZM101.103 194V170.96H105.007L115.695 187.2V170.96H119.599V194H115.695L105.007 177.76V194H101.103ZM125.352 194V170.96H132.696C132.888 170.96 133.267 170.965 133.832 170.976C134.408 170.987 134.963 171.024 135.496 171.088C137.32 171.323 138.861 171.973 140.12 173.04C141.389 174.096 142.349 175.445 143 177.088C143.651 178.731 143.976 180.528 143.976 182.48C143.976 184.432 143.651 186.229 143 187.872C142.349 189.515 141.389 190.869 140.12 191.936C138.861 192.992 137.32 193.637 135.496 193.872C134.973 193.936 134.424 193.973 133.848 193.984C133.272 193.995 132.888 194 132.696 194H125.352ZM129.272 190.368H132.696C133.016 190.368 133.421 190.357 133.912 190.336C134.413 190.315 134.856 190.267 135.24 190.192C136.328 189.989 137.213 189.504 137.896 188.736C138.579 187.968 139.08 187.035 139.4 185.936C139.731 184.837 139.896 183.685 139.896 182.48C139.896 181.232 139.731 180.059 139.4 178.96C139.069 177.861 138.557 176.939 137.864 176.192C137.181 175.445 136.307 174.971 135.24 174.768C134.856 174.683 134.413 174.635 133.912 174.624C133.421 174.603 133.016 174.592 132.696 174.592H129.272V190.368ZM149.358 194V170.96H153.214V194H149.358ZM164.823 194V174.576H157.367V170.96H176.135V174.576H168.679V194H164.823ZM180.293 194V170.96H184.149V194H180.293ZM199.966 194.48C197.662 194.48 195.689 193.979 194.046 192.976C192.403 191.963 191.139 190.555 190.254 188.752C189.379 186.949 188.942 184.859 188.942 182.48C188.942 180.101 189.379 178.011 190.254 176.208C191.139 174.405 192.403 173.003 194.046 172C195.689 170.987 197.662 170.48 199.966 170.48C202.27 170.48 204.243 170.987 205.886 172C207.539 173.003 208.803 174.405 209.678 176.208C210.563 178.011 211.006 180.101 211.006 182.48C211.006 184.859 210.563 186.949 209.678 188.752C208.803 190.555 207.539 191.963 205.886 192.976C204.243 193.979 202.27 194.48 199.966 194.48ZM199.966 190.848C201.513 190.859 202.798 190.517 203.822 189.824C204.857 189.131 205.63 188.155 206.142 186.896C206.665 185.637 206.926 184.165 206.926 182.48C206.926 180.795 206.665 179.333 206.142 178.096C205.63 176.848 204.857 175.877 203.822 175.184C202.798 174.491 201.513 174.133 199.966 174.112C198.419 174.101 197.134 174.443 196.11 175.136C195.086 175.829 194.313 176.805 193.79 178.064C193.278 179.323 193.022 180.795 193.022 182.48C193.022 184.165 193.278 185.632 193.79 186.88C194.302 188.117 195.07 189.083 196.094 189.776C197.129 190.469 198.419 190.827 199.966 190.848ZM215.471 194V170.96H219.375L230.063 187.2V170.96H233.967V194H230.063L219.375 177.76V194H215.471ZM238.119 194L245.383 170.96H251.031L258.295 194H254.327L247.735 173.328H248.599L242.087 194H238.119ZM242.167 189.008V185.408H254.263V189.008H242.167ZM262.788 194V170.96H266.644V190.384H276.82V194H262.788Z" fill="white"></path><defs><filter id="filter0_d_942_3124" x="-102.879" y="-81.3184" width="458.582" height="483.163" filterUnits="userSpaceOnUse" color-interpolation-filters="sRGB"><feFlood flood-opacity="0" result="BackgroundImageFix"></feFlood><feColorMatrix in="SourceAlpha" type="matrix" values="0 0 0 0 0 0 0 0 0 0 0 0 0 0 0 0 0 0 127 0" result="hardAlpha"></feColorMatrix><feOffset dy="8"></feOffset><feGaussianBlur stdDeviation="9"></feGaussianBlur><feComposite in2="hardAlpha" operator="out"></feComposite><feColorMatrix type="matrix" values="0 0 0 0 0 0 0 0 0 0 0 0 0 0 0 0 0 0 0.15 0"></feColorMatrix><feBlend mode="normal" in2="BackgroundImageFix" result="effect1_dropShadow_942_3124"></feBlend><feBlend mode="normal" in="SourceGraphic" in2="effect1_dropShadow_942_3124" result="shape"></feBlend></filter></defs></svg> 