<?xml version="1.0" encoding="UTF-8"?> <svg xmlns="http://www.w3.org/2000/svg" width="325" height="325" viewBox="0 0 325 325" fill="none"><rect width="325" height="325" rx="10" fill="#FFF08B"></rect><mask id="mask0_1290_889" style="mask-type:alpha" maskUnits="userSpaceOnUse" x="0" y="0" width="325" height="325"><rect width="325" height="325" rx="10" fill="#FF7EB3"></rect></mask><g mask="url(#mask0_1290_889)"><g filter="url(#filter0_d_1290_889)"><path d="M205.641 383.559C247.572 352.294 274.97 278.652 295.114 212.493C302.037 189.755 348.665 56.7321 309.114 46.0292C288.068 40.334 265.718 50.71 247.255 63.9583C202.811 95.8496 162.631 148.751 128.784 205.334C118.524 222.486 34.3679 370.788 80.9435 399.028C98.6508 409.765 121.99 402.717 138.067 392.174C182.473 363.052 216.265 296.548 235.53 224.441C250.68 167.734 256.127 104.804 254.187 41.2895C252.711 -7.01237 247.034 -62.5671 220.183 -92.1355C194.391 -120.536 165.244 -115.702 138.644 -100.421C80.9212 -67.2598 30.0427 0.485469 -15.713 64.9401C-68.1035 138.741 -118.918 216.907 -157.392 312.67" stroke="#F9E55F" stroke-width="50" stroke-linecap="round" shape-rendering="crispEdges"></path></g><path d="M89.6506 156V132.96H99.1706C99.3946 132.96 99.6826 132.971 100.035 132.992C100.387 133.003 100.712 133.035 101.011 133.088C102.344 133.291 103.443 133.733 104.307 134.416C105.181 135.099 105.827 135.963 106.243 137.008C106.669 138.043 106.883 139.195 106.883 140.464C106.883 141.723 106.669 142.875 106.243 143.92C105.816 144.955 105.165 145.813 104.291 146.496C103.427 147.179 102.333 147.621 101.011 147.824C100.712 147.867 100.381 147.899 100.019 147.92C99.6666 147.941 99.384 147.952 99.1706 147.952H93.5066V156H89.6506ZM93.5066 144.352H99.0106C99.224 144.352 99.464 144.341 99.7306 144.32C99.9973 144.299 100.243 144.256 100.467 144.192C101.107 144.032 101.608 143.749 101.971 143.344C102.344 142.939 102.605 142.48 102.755 141.968C102.915 141.456 102.995 140.955 102.995 140.464C102.995 139.973 102.915 139.472 102.755 138.96C102.605 138.437 102.344 137.973 101.971 137.568C101.608 137.163 101.107 136.88 100.467 136.72C100.243 136.656 99.9973 136.619 99.7306 136.608C99.464 136.587 99.224 136.576 99.0106 136.576H93.5066V144.352ZM111.368 156V132.96H120.888C121.112 132.96 121.4 132.971 121.752 132.992C122.104 133.003 122.429 133.035 122.728 133.088C124.061 133.291 125.16 133.733 126.024 134.416C126.899 135.099 127.544 135.963 127.96 137.008C128.387 138.043 128.6 139.195 128.6 140.464C128.6 142.341 128.125 143.957 127.176 145.312C126.227 146.656 124.771 147.488 122.808 147.808L121.16 147.952H115.224V156H111.368ZM124.6 156L120.056 146.624L123.976 145.76L128.968 156H124.6ZM115.224 144.352H120.728C120.941 144.352 121.181 144.341 121.448 144.32C121.715 144.299 121.96 144.256 122.184 144.192C122.824 144.032 123.325 143.749 123.688 143.344C124.061 142.939 124.323 142.48 124.472 141.968C124.632 141.456 124.712 140.955 124.712 140.464C124.712 139.973 124.632 139.472 124.472 138.96C124.323 138.437 124.061 137.973 123.688 137.568C123.325 137.163 122.824 136.88 122.184 136.72C121.96 136.656 121.715 136.619 121.448 136.608C121.181 136.587 120.941 136.576 120.728 136.576H115.224V144.352ZM133.773 156V132.96H148.653V136.576H137.629V142.256H146.733V145.872H137.629V152.384H148.653V156H133.773ZM162.081 156.48C160.396 156.48 158.876 156.187 157.521 155.6C156.177 155.013 155.068 154.176 154.193 153.088C153.329 151.989 152.78 150.688 152.545 149.184L156.545 148.576C156.886 149.941 157.585 150.997 158.641 151.744C159.708 152.491 160.934 152.864 162.321 152.864C163.142 152.864 163.916 152.736 164.641 152.48C165.366 152.224 165.953 151.851 166.401 151.36C166.86 150.869 167.089 150.267 167.089 149.552C167.089 149.232 167.036 148.939 166.929 148.672C166.822 148.395 166.662 148.149 166.449 147.936C166.246 147.723 165.98 147.531 165.649 147.36C165.329 147.179 164.956 147.024 164.529 146.896L158.577 145.136C158.065 144.987 157.51 144.789 156.913 144.544C156.326 144.288 155.766 143.941 155.233 143.504C154.71 143.056 154.278 142.491 153.937 141.808C153.606 141.115 153.441 140.261 153.441 139.248C153.441 137.765 153.814 136.523 154.561 135.52C155.318 134.507 156.332 133.749 157.601 133.248C158.881 132.747 160.3 132.501 161.857 132.512C163.436 132.523 164.844 132.795 166.081 133.328C167.318 133.851 168.353 134.613 169.185 135.616C170.017 136.619 170.604 137.829 170.945 139.248L166.801 139.968C166.63 139.157 166.3 138.469 165.809 137.904C165.329 137.328 164.737 136.891 164.033 136.592C163.34 136.293 162.598 136.133 161.809 136.112C161.041 136.101 160.326 136.219 159.665 136.464C159.014 136.699 158.486 137.04 158.081 137.488C157.686 137.936 157.489 138.459 157.489 139.056C157.489 139.621 157.66 140.085 158.001 140.448C158.342 140.8 158.764 141.083 159.265 141.296C159.777 141.499 160.294 141.669 160.817 141.808L164.945 142.96C165.51 143.109 166.145 143.312 166.849 143.568C167.553 143.824 168.23 144.181 168.881 144.64C169.532 145.099 170.065 145.701 170.481 146.448C170.908 147.195 171.121 148.144 171.121 149.296C171.121 150.491 170.87 151.541 170.369 152.448C169.878 153.344 169.212 154.091 168.369 154.688C167.526 155.285 166.561 155.733 165.473 156.032C164.396 156.331 163.265 156.48 162.081 156.48ZM175.864 156V132.96H190.744V136.576H179.72V142.256H188.824V145.872H179.72V152.384H190.744V156H175.864ZM195.863 156V132.96H199.767L210.455 149.2V132.96H214.359V156H210.455L199.767 139.76V156H195.863ZM225.648 156V136.576H218.192V132.96H236.96V136.576H229.504V156H225.648ZM113.271 194.48C111.586 194.48 110.066 194.187 108.711 193.6C107.367 193.013 106.258 192.176 105.383 191.088C104.519 189.989 103.97 188.688 103.735 187.184L107.735 186.576C108.076 187.941 108.775 188.997 109.831 189.744C110.898 190.491 112.124 190.864 113.511 190.864C114.332 190.864 115.106 190.736 115.831 190.48C116.556 190.224 117.143 189.851 117.591 189.36C118.05 188.869 118.279 188.267 118.279 187.552C118.279 187.232 118.226 186.939 118.119 186.672C118.012 186.395 117.852 186.149 117.639 185.936C117.436 185.723 117.17 185.531 116.839 185.36C116.519 185.179 116.146 185.024 115.719 184.896L109.767 183.136C109.255 182.987 108.7 182.789 108.103 182.544C107.516 182.288 106.956 181.941 106.423 181.504C105.9 181.056 105.468 180.491 105.127 179.808C104.796 179.115 104.631 178.261 104.631 177.248C104.631 175.765 105.004 174.523 105.751 173.52C106.508 172.507 107.522 171.749 108.791 171.248C110.071 170.747 111.49 170.501 113.047 170.512C114.626 170.523 116.034 170.795 117.271 171.328C118.508 171.851 119.543 172.613 120.375 173.616C121.207 174.619 121.794 175.829 122.135 177.248L117.991 177.968C117.82 177.157 117.49 176.469 116.999 175.904C116.519 175.328 115.927 174.891 115.223 174.592C114.53 174.293 113.788 174.133 112.999 174.112C112.231 174.101 111.516 174.219 110.855 174.464C110.204 174.699 109.676 175.04 109.271 175.488C108.876 175.936 108.679 176.459 108.679 177.056C108.679 177.621 108.85 178.085 109.191 178.448C109.532 178.8 109.954 179.083 110.455 179.296C110.967 179.499 111.484 179.669 112.007 179.808L116.135 180.96C116.7 181.109 117.335 181.312 118.039 181.568C118.743 181.824 119.42 182.181 120.071 182.64C120.722 183.099 121.255 183.701 121.671 184.448C122.098 185.195 122.311 186.144 122.311 187.296C122.311 188.491 122.06 189.541 121.559 190.448C121.068 191.344 120.402 192.091 119.559 192.688C118.716 193.285 117.751 193.733 116.663 194.032C115.586 194.331 114.455 194.48 113.271 194.48ZM127.374 194V170.96H131.23V194H127.374ZM137.303 194V170.96H140.775L148.743 187.28L156.711 170.96H160.183V194H156.583V179.232L149.511 194H147.975L140.919 179.232V194H137.303ZM165.958 194V170.96H175.478C175.702 170.96 175.99 170.971 176.342 170.992C176.694 171.003 177.019 171.035 177.318 171.088C178.651 171.291 179.75 171.733 180.614 172.416C181.489 173.099 182.134 173.963 182.55 175.008C182.977 176.043 183.19 177.195 183.19 178.464C183.19 179.723 182.977 180.875 182.55 181.92C182.123 182.955 181.473 183.813 180.598 184.496C179.734 185.179 178.641 185.621 177.318 185.824C177.019 185.867 176.689 185.899 176.326 185.92C175.974 185.941 175.691 185.952 175.478 185.952H169.814V194H165.958ZM169.814 182.352H175.318C175.531 182.352 175.771 182.341 176.038 182.32C176.305 182.299 176.55 182.256 176.774 182.192C177.414 182.032 177.915 181.749 178.278 181.344C178.651 180.939 178.913 180.48 179.062 179.968C179.222 179.456 179.302 178.955 179.302 178.464C179.302 177.973 179.222 177.472 179.062 176.96C178.913 176.437 178.651 175.973 178.278 175.568C177.915 175.163 177.414 174.88 176.774 174.72C176.55 174.656 176.305 174.619 176.038 174.608C175.771 174.587 175.531 174.576 175.318 174.576H169.814V182.352ZM187.996 194V170.96H191.852V190.384H202.028V194H187.996ZM206.018 194V170.96H220.898V174.576H209.874V180.256H218.978V183.872H209.874V190.384H220.898V194H206.018Z" fill="white"></path></g><defs><filter id="filter0_d_1290_889" x="-200.398" y="-147.685" width="568.248" height="603.059" filterUnits="userSpaceOnUse" color-interpolation-filters="sRGB"><feFlood flood-opacity="0" result="BackgroundImageFix"></feFlood><feColorMatrix in="SourceAlpha" type="matrix" values="0 0 0 0 0 0 0 0 0 0 0 0 0 0 0 0 0 0 127 0" result="hardAlpha"></feColorMatrix><feOffset dy="8"></feOffset><feGaussianBlur stdDeviation="9"></feGaussianBlur><feComposite in2="hardAlpha" operator="out"></feComposite><feColorMatrix type="matrix" values="0 0 0 0 0 0 0 0 0 0 0 0 0 0 0 0 0 0 0.15 0"></feColorMatrix><feBlend mode="normal" in2="BackgroundImageFix" result="effect1_dropShadow_1290_889"></feBlend><feBlend mode="normal" in="SourceGraphic" in2="effect1_dropShadow_1290_889" result="shape"></feBlend></filter></defs></svg> 