<?xml version="1.0" encoding="UTF-8"?> <svg xmlns="http://www.w3.org/2000/svg" width="325" height="325" viewBox="0 0 325 325" fill="none"><rect width="325" height="325" rx="10" fill="#E74995"></rect><path d="M96.0181 175V151.96H99.8741V175H96.0181ZM118.497 175L111.761 151.96H115.809L120.401 168.6L124.977 151.992L129.025 151.96L133.617 168.6L138.193 151.96H142.241L135.521 175H131.713L126.993 158.616L122.305 175H118.497ZM146.452 175V151.96H150.308V175H146.452ZM164.909 175.48C163.223 175.48 161.703 175.187 160.349 174.6C159.005 174.013 157.895 173.176 157.021 172.088C156.157 170.989 155.607 169.688 155.373 168.184L159.373 167.576C159.714 168.941 160.413 169.997 161.469 170.744C162.535 171.491 163.762 171.864 165.149 171.864C165.97 171.864 166.743 171.736 167.469 171.48C168.194 171.224 168.781 170.851 169.229 170.36C169.687 169.869 169.917 169.267 169.917 168.552C169.917 168.232 169.863 167.939 169.757 167.672C169.65 167.395 169.49 167.149 169.277 166.936C169.074 166.723 168.807 166.531 168.477 166.36C168.157 166.179 167.783 166.024 167.357 165.896L161.405 164.136C160.893 163.987 160.338 163.789 159.741 163.544C159.154 163.288 158.594 162.941 158.061 162.504C157.538 162.056 157.106 161.491 156.765 160.808C156.434 160.115 156.269 159.261 156.269 158.248C156.269 156.765 156.642 155.523 157.389 154.52C158.146 153.507 159.159 152.749 160.429 152.248C161.709 151.747 163.127 151.501 164.685 151.512C166.263 151.523 167.671 151.795 168.909 152.328C170.146 152.851 171.181 153.613 172.013 154.616C172.845 155.619 173.431 156.829 173.773 158.248L169.629 158.968C169.458 158.157 169.127 157.469 168.637 156.904C168.157 156.328 167.565 155.891 166.861 155.592C166.167 155.293 165.426 155.133 164.637 155.112C163.869 155.101 163.154 155.219 162.493 155.464C161.842 155.699 161.314 156.04 160.909 156.488C160.514 156.936 160.317 157.459 160.317 158.056C160.317 158.621 160.487 159.085 160.829 159.448C161.17 159.8 161.591 160.083 162.093 160.296C162.605 160.499 163.122 160.669 163.645 160.808L167.773 161.96C168.338 162.109 168.973 162.312 169.677 162.568C170.381 162.824 171.058 163.181 171.709 163.64C172.359 164.099 172.893 164.701 173.309 165.448C173.735 166.195 173.949 167.144 173.949 168.296C173.949 169.491 173.698 170.541 173.197 171.448C172.706 172.344 172.039 173.091 171.197 173.688C170.354 174.285 169.389 174.733 168.301 175.032C167.223 175.331 166.093 175.48 164.909 175.48ZM178.692 175V151.96H182.548V161.656H193.46V151.96H197.3V175H193.46V165.272H182.548V175H178.692ZM203.706 175V171.048H207.658V175H203.706ZM214.704 175V171.048H218.656V175H214.704ZM225.703 175V171.048H229.655V175H225.703Z" fill="white"></path></svg> 