<?xml version="1.0" encoding="UTF-8"?> <svg xmlns="http://www.w3.org/2000/svg" width="325" height="325" viewBox="0 0 325 325" fill="none"><rect width="325" height="325" rx="10" fill="#592C89"></rect><path d="M72.2979 159V139.576H64.8419V135.96H83.6099V139.576H76.1539V159H72.2979ZM87.4481 159V135.96H102.328V139.576H91.3041V145.256H100.408V148.872H91.3041V155.384H102.328V159H87.4481ZM107.767 159V135.96H111.623V155.384H121.799V159H107.767ZM126.109 159V135.96H129.965V155.384H140.141V159H126.109ZM148.624 159L155.888 135.96H161.536L168.8 159H164.832L158.24 138.328H159.104L152.592 159H148.624ZM152.672 154.008V150.408H164.768V154.008H152.672ZM172.973 159V135.96H182.109C183.666 135.96 184.941 136.275 185.933 136.904C186.936 137.523 187.677 138.317 188.157 139.288C188.648 140.259 188.893 141.261 188.893 142.296C188.893 143.565 188.589 144.643 187.981 145.528C187.384 146.413 186.568 147.011 185.533 147.32V146.52C186.984 146.851 188.082 147.539 188.829 148.584C189.586 149.629 189.965 150.819 189.965 152.152C189.965 153.517 189.704 154.712 189.181 155.736C188.658 156.76 187.88 157.56 186.845 158.136C185.821 158.712 184.552 159 183.037 159H172.973ZM176.877 155.368H182.557C183.229 155.368 183.832 155.235 184.365 154.968C184.898 154.691 185.314 154.307 185.613 153.816C185.922 153.315 186.077 152.723 186.077 152.04C186.077 151.421 185.944 150.867 185.677 150.376C185.41 149.885 185.021 149.496 184.509 149.208C183.997 148.909 183.384 148.76 182.669 148.76H176.877V155.368ZM176.877 145.16H182.061C182.616 145.16 183.112 145.053 183.549 144.84C183.986 144.627 184.333 144.312 184.589 143.896C184.845 143.48 184.973 142.968 184.973 142.36C184.973 141.56 184.717 140.893 184.205 140.36C183.693 139.827 182.978 139.56 182.061 139.56H176.877V145.16ZM204.185 159.48C201.881 159.48 199.907 158.979 198.265 157.976C196.622 156.963 195.358 155.555 194.473 153.752C193.598 151.949 193.161 149.859 193.161 147.48C193.161 145.101 193.598 143.011 194.473 141.208C195.358 139.405 196.622 138.003 198.265 137C199.907 135.987 201.881 135.48 204.185 135.48C206.489 135.48 208.462 135.987 210.105 137C211.758 138.003 213.022 139.405 213.897 141.208C214.782 143.011 215.225 145.101 215.225 147.48C215.225 149.859 214.782 151.949 213.897 153.752C213.022 155.555 211.758 156.963 210.105 157.976C208.462 158.979 206.489 159.48 204.185 159.48ZM204.185 155.848C205.731 155.859 207.017 155.517 208.041 154.824C209.075 154.131 209.849 153.155 210.361 151.896C210.883 150.637 211.145 149.165 211.145 147.48C211.145 145.795 210.883 144.333 210.361 143.096C209.849 141.848 209.075 140.877 208.041 140.184C207.017 139.491 205.731 139.133 204.185 139.112C202.638 139.101 201.353 139.443 200.329 140.136C199.305 140.829 198.531 141.805 198.009 143.064C197.497 144.323 197.241 145.795 197.241 147.48C197.241 149.165 197.497 150.632 198.009 151.88C198.521 153.117 199.289 154.083 200.313 154.776C201.347 155.469 202.638 155.827 204.185 155.848ZM228.969 159.48C227.135 159.48 225.519 159.107 224.121 158.36C222.735 157.613 221.647 156.563 220.857 155.208C220.079 153.853 219.689 152.264 219.689 150.44V135.992L223.593 135.96V150.344C223.593 151.208 223.737 151.981 224.025 152.664C224.324 153.347 224.724 153.928 225.225 154.408C225.727 154.877 226.303 155.235 226.953 155.48C227.604 155.725 228.276 155.848 228.969 155.848C229.684 155.848 230.361 155.725 231.001 155.48C231.652 155.224 232.228 154.861 232.729 154.392C233.231 153.912 233.625 153.331 233.913 152.648C234.201 151.965 234.345 151.197 234.345 150.344V135.96H238.249V150.44C238.249 152.264 237.855 153.853 237.065 155.208C236.287 156.563 235.199 157.613 233.801 158.36C232.415 159.107 230.804 159.48 228.969 159.48ZM249.537 159V139.576H242.081V135.96H260.849V139.576H253.393V159H249.537ZM79.97 191V181.56L72.13 167.96H76.626L81.922 177.144L87.202 167.96H91.698L83.874 181.56V191H79.97ZM103.675 191.48C101.371 191.48 99.3979 190.979 97.7552 189.976C96.1126 188.963 94.8486 187.555 93.9632 185.752C93.0886 183.949 92.6512 181.859 92.6512 179.48C92.6512 177.101 93.0886 175.011 93.9632 173.208C94.8486 171.405 96.1126 170.003 97.7552 169C99.3979 167.987 101.371 167.48 103.675 167.48C105.979 167.48 107.953 167.987 109.595 169C111.249 170.003 112.513 171.405 113.387 173.208C114.273 175.011 114.715 177.101 114.715 179.48C114.715 181.859 114.273 183.949 113.387 185.752C112.513 187.555 111.249 188.963 109.595 189.976C107.953 190.979 105.979 191.48 103.675 191.48ZM103.675 187.848C105.222 187.859 106.507 187.517 107.531 186.824C108.566 186.131 109.339 185.155 109.851 183.896C110.374 182.637 110.635 181.165 110.635 179.48C110.635 177.795 110.374 176.333 109.851 175.096C109.339 173.848 108.566 172.877 107.531 172.184C106.507 171.491 105.222 171.133 103.675 171.112C102.129 171.101 100.843 171.443 99.8192 172.136C98.7952 172.829 98.0219 173.805 97.4992 175.064C96.9872 176.323 96.7312 177.795 96.7312 179.48C96.7312 181.165 96.9872 182.632 97.4992 183.88C98.0112 185.117 98.7792 186.083 99.8032 186.776C100.838 187.469 102.129 187.827 103.675 187.848ZM128.46 191.48C126.625 191.48 125.009 191.107 123.612 190.36C122.225 189.613 121.137 188.563 120.348 187.208C119.569 185.853 119.18 184.264 119.18 182.44V167.992L123.084 167.96V182.344C123.084 183.208 123.228 183.981 123.516 184.664C123.815 185.347 124.215 185.928 124.716 186.408C125.217 186.877 125.793 187.235 126.444 187.48C127.095 187.725 127.767 187.848 128.46 187.848C129.175 187.848 129.852 187.725 130.492 187.48C131.143 187.224 131.719 186.861 132.22 186.392C132.721 185.912 133.116 185.331 133.404 184.648C133.692 183.965 133.836 183.197 133.836 182.344V167.96H137.74V182.44C137.74 184.264 137.345 185.853 136.556 187.208C135.777 188.563 134.689 189.613 133.292 190.36C131.905 191.107 130.295 191.48 128.46 191.48ZM143.491 191V167.96H153.011C153.235 167.96 153.523 167.971 153.875 167.992C154.227 168.003 154.553 168.035 154.851 168.088C156.185 168.291 157.283 168.733 158.147 169.416C159.022 170.099 159.667 170.963 160.083 172.008C160.51 173.043 160.723 174.195 160.723 175.464C160.723 177.341 160.249 178.957 159.299 180.312C158.35 181.656 156.894 182.488 154.931 182.808L153.283 182.952H147.347V191H143.491ZM156.723 191L152.179 181.624L156.099 180.76L161.091 191H156.723ZM147.347 179.352H152.851C153.065 179.352 153.305 179.341 153.571 179.32C153.838 179.299 154.083 179.256 154.307 179.192C154.947 179.032 155.449 178.749 155.811 178.344C156.185 177.939 156.446 177.48 156.595 176.968C156.755 176.456 156.835 175.955 156.835 175.464C156.835 174.973 156.755 174.472 156.595 173.96C156.446 173.437 156.185 172.973 155.811 172.568C155.449 172.163 154.947 171.88 154.307 171.72C154.083 171.656 153.838 171.619 153.571 171.608C153.305 171.587 153.065 171.576 152.851 171.576H147.347V179.352ZM174.424 191.48C172.739 191.48 171.219 191.187 169.864 190.6C168.52 190.013 167.411 189.176 166.536 188.088C165.672 186.989 165.123 185.688 164.888 184.184L168.888 183.576C169.23 184.941 169.928 185.997 170.984 186.744C172.051 187.491 173.278 187.864 174.664 187.864C175.486 187.864 176.259 187.736 176.984 187.48C177.71 187.224 178.296 186.851 178.744 186.36C179.203 185.869 179.432 185.267 179.432 184.552C179.432 184.232 179.379 183.939 179.272 183.672C179.166 183.395 179.006 183.149 178.792 182.936C178.59 182.723 178.323 182.531 177.992 182.36C177.672 182.179 177.299 182.024 176.872 181.896L170.92 180.136C170.408 179.987 169.854 179.789 169.256 179.544C168.67 179.288 168.11 178.941 167.576 178.504C167.054 178.056 166.622 177.491 166.28 176.808C165.95 176.115 165.784 175.261 165.784 174.248C165.784 172.765 166.158 171.523 166.904 170.52C167.662 169.507 168.675 168.749 169.944 168.248C171.224 167.747 172.643 167.501 174.2 167.512C175.779 167.523 177.187 167.795 178.424 168.328C179.662 168.851 180.696 169.613 181.528 170.616C182.36 171.619 182.947 172.829 183.288 174.248L179.144 174.968C178.974 174.157 178.643 173.469 178.152 172.904C177.672 172.328 177.08 171.891 176.376 171.592C175.683 171.293 174.942 171.133 174.152 171.112C173.384 171.101 172.67 171.219 172.008 171.464C171.358 171.699 170.83 172.04 170.424 172.488C170.03 172.936 169.832 173.459 169.832 174.056C169.832 174.621 170.003 175.085 170.344 175.448C170.686 175.8 171.107 176.083 171.608 176.296C172.12 176.499 172.638 176.669 173.16 176.808L177.288 177.96C177.854 178.109 178.488 178.312 179.192 178.568C179.896 178.824 180.574 179.181 181.224 179.64C181.875 180.099 182.408 180.701 182.824 181.448C183.251 182.195 183.464 183.144 183.464 184.296C183.464 185.491 183.214 186.541 182.712 187.448C182.222 188.344 181.555 189.091 180.712 189.688C179.87 190.285 178.904 190.733 177.816 191.032C176.739 191.331 175.608 191.48 174.424 191.48ZM188.207 191V167.96H203.087V171.576H192.063V177.256H201.167V180.872H192.063V187.384H203.087V191H188.207ZM208.526 191V167.96H212.382V187.384H222.558V191H208.526ZM226.549 191V167.96H240.421V171.816H230.405V177.56H238.501V181.4H230.405V191H226.549ZM246.179 191V187.464H250.035V191H246.179ZM246.179 185.24V167.96H250.035V185.24H246.179Z" fill="white"></path></svg> 