<?xml version="1.0" encoding="UTF-8"?> <svg xmlns="http://www.w3.org/2000/svg" width="325" height="325" viewBox="0 0 325 325" fill="none"><rect width="325" height="325" rx="10" fill="#B6D516"></rect><path d="M105.358 140V120.576H97.9019V116.96H116.67V120.576H109.214V140H105.358ZM120.508 140V116.96H135.388V120.576H124.364V126.256H133.468V129.872H124.364V136.384H135.388V140H120.508ZM140.827 140V116.96H144.683V136.384H154.859V140H140.827ZM159.169 140V116.96H163.025V136.384H173.201V140H159.169ZM183.284 140V116.96H186.756L194.724 133.28L202.692 116.96H206.164V140H202.564V125.232L195.492 140H193.956L186.9 125.232V140H183.284ZM211.939 140V116.96H226.819V120.576H215.795V126.256H224.899V129.872H215.795V136.384H226.819V140H211.939ZM57.2869 175L64.5509 151.96H70.1989L77.4629 175H73.4949L66.9029 154.328H67.7669L61.2549 175H57.2869ZM61.3349 170.008V166.408H73.4309V170.008H61.3349ZM81.6356 175V151.96H90.7716C92.329 151.96 93.6036 152.275 94.5956 152.904C95.5983 153.523 96.3396 154.317 96.8196 155.288C97.3103 156.259 97.5556 157.261 97.5556 158.296C97.5556 159.565 97.2516 160.643 96.6436 161.528C96.0463 162.413 95.2303 163.011 94.1956 163.32V162.52C95.6463 162.851 96.745 163.539 97.4916 164.584C98.249 165.629 98.6276 166.819 98.6276 168.152C98.6276 169.517 98.3663 170.712 97.8436 171.736C97.321 172.76 96.5423 173.56 95.5076 174.136C94.4836 174.712 93.2143 175 91.6996 175H81.6356ZM85.5396 171.368H91.2196C91.8916 171.368 92.4943 171.235 93.0276 170.968C93.561 170.691 93.977 170.307 94.2756 169.816C94.585 169.315 94.7396 168.723 94.7396 168.04C94.7396 167.421 94.6063 166.867 94.3396 166.376C94.073 165.885 93.6836 165.496 93.1716 165.208C92.6596 164.909 92.0463 164.76 91.3316 164.76H85.5396V171.368ZM85.5396 161.16H90.7236C91.2783 161.16 91.7743 161.053 92.2116 160.84C92.649 160.627 92.9956 160.312 93.2516 159.896C93.5076 159.48 93.6356 158.968 93.6356 158.36C93.6356 157.56 93.3796 156.893 92.8676 156.36C92.3556 155.827 91.641 155.56 90.7236 155.56H85.5396V161.16ZM112.847 175.48C110.543 175.48 108.57 174.979 106.927 173.976C105.284 172.963 104.02 171.555 103.135 169.752C102.26 167.949 101.823 165.859 101.823 163.48C101.823 161.101 102.26 159.011 103.135 157.208C104.02 155.405 105.284 154.003 106.927 153C108.57 151.987 110.543 151.48 112.847 151.48C115.151 151.48 117.124 151.987 118.767 153C120.42 154.003 121.684 155.405 122.559 157.208C123.444 159.011 123.887 161.101 123.887 163.48C123.887 165.859 123.444 167.949 122.559 169.752C121.684 171.555 120.42 172.963 118.767 173.976C117.124 174.979 115.151 175.48 112.847 175.48ZM112.847 171.848C114.394 171.859 115.679 171.517 116.703 170.824C117.738 170.131 118.511 169.155 119.023 167.896C119.546 166.637 119.807 165.165 119.807 163.48C119.807 161.795 119.546 160.333 119.023 159.096C118.511 157.848 117.738 156.877 116.703 156.184C115.679 155.491 114.394 155.133 112.847 155.112C111.3 155.101 110.015 155.443 108.991 156.136C107.967 156.829 107.194 157.805 106.671 159.064C106.159 160.323 105.903 161.795 105.903 163.48C105.903 165.165 106.159 166.632 106.671 167.88C107.183 169.117 107.951 170.083 108.975 170.776C110.01 171.469 111.3 171.827 112.847 171.848ZM137.632 175.48C135.797 175.48 134.181 175.107 132.784 174.36C131.397 173.613 130.309 172.563 129.52 171.208C128.741 169.853 128.352 168.264 128.352 166.44V151.992L132.256 151.96V166.344C132.256 167.208 132.4 167.981 132.688 168.664C132.987 169.347 133.387 169.928 133.888 170.408C134.389 170.877 134.965 171.235 135.616 171.48C136.267 171.725 136.939 171.848 137.632 171.848C138.347 171.848 139.024 171.725 139.664 171.48C140.315 171.224 140.891 170.861 141.392 170.392C141.893 169.912 142.288 169.331 142.576 168.648C142.864 167.965 143.008 167.197 143.008 166.344V151.96H146.912V166.44C146.912 168.264 146.517 169.853 145.728 171.208C144.949 172.563 143.861 173.613 142.464 174.36C141.077 175.107 139.467 175.48 137.632 175.48ZM158.199 175V155.576H150.743V151.96H169.511V155.576H162.055V175H158.199ZM185.667 175V165.56L177.827 151.96H182.323L187.619 161.144L192.899 151.96H197.395L189.571 165.56V175H185.667ZM209.372 175.48C207.068 175.48 205.095 174.979 203.452 173.976C201.809 172.963 200.545 171.555 199.66 169.752C198.785 167.949 198.348 165.859 198.348 163.48C198.348 161.101 198.785 159.011 199.66 157.208C200.545 155.405 201.809 154.003 203.452 153C205.095 151.987 207.068 151.48 209.372 151.48C211.676 151.48 213.649 151.987 215.292 153C216.945 154.003 218.209 155.405 219.084 157.208C219.969 159.011 220.412 161.101 220.412 163.48C220.412 165.859 219.969 167.949 219.084 169.752C218.209 171.555 216.945 172.963 215.292 173.976C213.649 174.979 211.676 175.48 209.372 175.48ZM209.372 171.848C210.919 171.859 212.204 171.517 213.228 170.824C214.263 170.131 215.036 169.155 215.548 167.896C216.071 166.637 216.332 165.165 216.332 163.48C216.332 161.795 216.071 160.333 215.548 159.096C215.036 157.848 214.263 156.877 213.228 156.184C212.204 155.491 210.919 155.133 209.372 155.112C207.825 155.101 206.54 155.443 205.516 156.136C204.492 156.829 203.719 157.805 203.196 159.064C202.684 160.323 202.428 161.795 202.428 163.48C202.428 165.165 202.684 166.632 203.196 167.88C203.708 169.117 204.476 170.083 205.5 170.776C206.535 171.469 207.825 171.827 209.372 171.848ZM234.157 175.48C232.322 175.48 230.706 175.107 229.309 174.36C227.922 173.613 226.834 172.563 226.045 171.208C225.266 169.853 224.877 168.264 224.877 166.44V151.992L228.781 151.96V166.344C228.781 167.208 228.925 167.981 229.213 168.664C229.512 169.347 229.912 169.928 230.413 170.408C230.914 170.877 231.49 171.235 232.141 171.48C232.792 171.725 233.464 171.848 234.157 171.848C234.872 171.848 235.549 171.725 236.189 171.48C236.84 171.224 237.416 170.861 237.917 170.392C238.418 169.912 238.813 169.331 239.101 168.648C239.389 167.965 239.533 167.197 239.533 166.344V151.96H243.437V166.44C243.437 168.264 243.042 169.853 242.253 171.208C241.474 172.563 240.386 173.613 238.989 174.36C237.602 175.107 235.992 175.48 234.157 175.48ZM249.188 175V151.96H258.708C258.932 151.96 259.22 151.971 259.572 151.992C259.924 152.003 260.249 152.035 260.548 152.088C261.881 152.291 262.98 152.733 263.844 153.416C264.719 154.099 265.364 154.963 265.78 156.008C266.207 157.043 266.42 158.195 266.42 159.464C266.42 161.341 265.945 162.957 264.996 164.312C264.047 165.656 262.591 166.488 260.628 166.808L258.98 166.952H253.044V175H249.188ZM262.42 175L257.876 165.624L261.796 164.76L266.788 175H262.42ZM253.044 163.352H258.548C258.761 163.352 259.001 163.341 259.268 163.32C259.535 163.299 259.78 163.256 260.004 163.192C260.644 163.032 261.145 162.749 261.508 162.344C261.881 161.939 262.143 161.48 262.292 160.968C262.452 160.456 262.532 159.955 262.532 159.464C262.532 158.973 262.452 158.472 262.292 157.96C262.143 157.437 261.881 156.973 261.508 156.568C261.145 156.163 260.644 155.88 260.004 155.72C259.78 155.656 259.535 155.619 259.268 155.608C259.001 155.587 258.761 155.576 258.548 155.576H253.044V163.352ZM56.59 210V186.96H71.47V190.576H60.446V196.256H69.55V199.872H60.446V206.384H71.47V210H56.59ZM74.6687 210L82.4767 198.352L74.8927 186.96H79.6127L84.8607 195.072L90.0607 186.96H94.8127L87.2287 198.352L95.0047 210H90.2847L84.8607 201.632L79.4207 210H74.6687ZM98.8375 210V186.96H108.358C108.582 186.96 108.87 186.971 109.222 186.992C109.574 187.003 109.899 187.035 110.198 187.088C111.531 187.291 112.63 187.733 113.494 188.416C114.368 189.099 115.014 189.963 115.43 191.008C115.856 192.043 116.07 193.195 116.07 194.464C116.07 195.723 115.856 196.875 115.43 197.92C115.003 198.955 114.352 199.813 113.478 200.496C112.614 201.179 111.52 201.621 110.198 201.824C109.899 201.867 109.568 201.899 109.206 201.92C108.854 201.941 108.571 201.952 108.358 201.952H102.694V210H98.8375ZM102.694 198.352H108.198C108.411 198.352 108.651 198.341 108.918 198.32C109.184 198.299 109.43 198.256 109.654 198.192C110.294 198.032 110.795 197.749 111.158 197.344C111.531 196.939 111.792 196.48 111.942 195.968C112.102 195.456 112.182 194.955 112.182 194.464C112.182 193.973 112.102 193.472 111.942 192.96C111.792 192.437 111.531 191.973 111.158 191.568C110.795 191.163 110.294 190.88 109.654 190.72C109.43 190.656 109.184 190.619 108.918 190.608C108.651 190.587 108.411 190.576 108.198 190.576H102.694V198.352ZM120.555 210V186.96H135.435V190.576H124.411V196.256H133.515V199.872H124.411V206.384H135.435V210H120.555ZM140.554 210V186.96H150.074C150.298 186.96 150.586 186.971 150.938 186.992C151.29 187.003 151.615 187.035 151.914 187.088C153.247 187.291 154.346 187.733 155.21 188.416C156.084 189.099 156.73 189.963 157.146 191.008C157.572 192.043 157.786 193.195 157.786 194.464C157.786 196.341 157.311 197.957 156.362 199.312C155.412 200.656 153.956 201.488 151.994 201.808L150.346 201.952H144.41V210H140.554ZM153.786 210L149.242 200.624L153.162 199.76L158.154 210H153.786ZM144.41 198.352H149.914C150.127 198.352 150.367 198.341 150.634 198.32C150.9 198.299 151.146 198.256 151.37 198.192C152.01 198.032 152.511 197.749 152.874 197.344C153.247 196.939 153.508 196.48 153.658 195.968C153.818 195.456 153.898 194.955 153.898 194.464C153.898 193.973 153.818 193.472 153.658 192.96C153.508 192.437 153.247 191.973 152.874 191.568C152.511 191.163 152.01 190.88 151.37 190.72C151.146 190.656 150.9 190.619 150.634 190.608C150.367 190.587 150.127 190.576 149.914 190.576H144.41V198.352ZM163.279 210V186.96H167.135V210H163.279ZM173.207 210V186.96H188.087V190.576H177.063V196.256H186.167V199.872H177.063V206.384H188.087V210H173.207ZM193.206 210V186.96H197.11L207.798 203.2V186.96H211.702V210H207.798L197.11 193.76V210H193.206ZM227.199 210.48C224.895 210.48 222.922 209.979 221.279 208.976C219.636 207.963 218.372 206.555 217.487 204.752C216.612 202.949 216.175 200.859 216.175 198.48C216.175 196.101 216.612 194.011 217.487 192.208C218.372 190.405 219.636 189.003 221.279 188C222.922 186.987 224.895 186.48 227.199 186.48C229.855 186.48 232.068 187.147 233.839 188.48C235.61 189.803 236.852 191.589 237.567 193.84L233.679 194.912C233.231 193.408 232.468 192.235 231.391 191.392C230.314 190.539 228.916 190.112 227.199 190.112C225.652 190.112 224.362 190.459 223.327 191.152C222.303 191.845 221.53 192.821 221.007 194.08C220.495 195.328 220.234 196.795 220.223 198.48C220.223 200.165 220.479 201.637 220.991 202.896C221.514 204.144 222.292 205.115 223.327 205.808C224.362 206.501 225.652 206.848 227.199 206.848C228.916 206.848 230.314 206.421 231.391 205.568C232.468 204.715 233.231 203.541 233.679 202.048L237.567 203.12C236.852 205.371 235.61 207.163 233.839 208.496C232.068 209.819 229.855 210.48 227.199 210.48ZM242.36 210V186.96H257.24V190.576H246.216V196.256H255.32V199.872H246.216V206.384H257.24V210H242.36ZM263.959 210V206.464H267.815V210H263.959ZM263.959 204.24V186.96H267.815V204.24H263.959Z" fill="white"></path></svg> 