<?xml version="1.0" encoding="UTF-8"?> <svg xmlns="http://www.w3.org/2000/svg" width="325" height="325" viewBox="0 0 325 325" fill="none"><rect width="325" height="325" rx="10" fill="#042F6B"></rect><path d="M73.6254 159V139.576H66.1694V135.96H84.9374V139.576H77.4814V159H73.6254ZM88.7756 159V135.96H92.6316V145.656H103.544V135.96H107.384V159H103.544V149.272H92.6316V159H88.7756ZM113.149 159V135.96H128.029V139.576H117.005V145.256H126.109V148.872H117.005V155.384H128.029V159H113.149ZM145.698 159L138.962 135.96H143.01L147.602 152.6L152.178 135.992L156.226 135.96L160.818 152.6L165.394 135.96H169.442L162.722 159H158.914L154.194 142.616L149.506 159H145.698ZM182.452 159.48C180.148 159.48 178.175 158.979 176.532 157.976C174.889 156.963 173.625 155.555 172.74 153.752C171.865 151.949 171.428 149.859 171.428 147.48C171.428 145.101 171.865 143.011 172.74 141.208C173.625 139.405 174.889 138.003 176.532 137C178.175 135.987 180.148 135.48 182.452 135.48C184.756 135.48 186.729 135.987 188.372 137C190.025 138.003 191.289 139.405 192.164 141.208C193.049 143.011 193.492 145.101 193.492 147.48C193.492 149.859 193.049 151.949 192.164 153.752C191.289 155.555 190.025 156.963 188.372 157.976C186.729 158.979 184.756 159.48 182.452 159.48ZM182.452 155.848C183.999 155.859 185.284 155.517 186.308 154.824C187.343 154.131 188.116 153.155 188.628 151.896C189.151 150.637 189.412 149.165 189.412 147.48C189.412 145.795 189.151 144.333 188.628 143.096C188.116 141.848 187.343 140.877 186.308 140.184C185.284 139.491 183.999 139.133 182.452 139.112C180.905 139.101 179.62 139.443 178.596 140.136C177.572 140.829 176.799 141.805 176.276 143.064C175.764 144.323 175.508 145.795 175.508 147.48C175.508 149.165 175.764 150.632 176.276 151.88C176.788 153.117 177.556 154.083 178.58 154.776C179.615 155.469 180.905 155.827 182.452 155.848ZM197.957 159V135.96H207.477C207.701 135.96 207.989 135.971 208.341 135.992C208.693 136.003 209.018 136.035 209.317 136.088C210.65 136.291 211.749 136.733 212.613 137.416C213.488 138.099 214.133 138.963 214.549 140.008C214.976 141.043 215.189 142.195 215.189 143.464C215.189 145.341 214.714 146.957 213.765 148.312C212.816 149.656 211.36 150.488 209.397 150.808L207.749 150.952H201.813V159H197.957ZM211.189 159L206.645 149.624L210.565 148.76L215.557 159H211.189ZM201.813 147.352H207.317C207.53 147.352 207.77 147.341 208.037 147.32C208.304 147.299 208.549 147.256 208.773 147.192C209.413 147.032 209.914 146.749 210.277 146.344C210.65 145.939 210.912 145.48 211.061 144.968C211.221 144.456 211.301 143.955 211.301 143.464C211.301 142.973 211.221 142.472 211.061 141.96C210.912 141.437 210.65 140.973 210.277 140.568C209.914 140.163 209.413 139.88 208.773 139.72C208.549 139.656 208.304 139.619 208.037 139.608C207.77 139.587 207.53 139.576 207.317 139.576H201.813V147.352ZM228.89 159.48C227.205 159.48 225.685 159.187 224.33 158.6C222.986 158.013 221.877 157.176 221.002 156.088C220.138 154.989 219.589 153.688 219.354 152.184L223.354 151.576C223.695 152.941 224.394 153.997 225.45 154.744C226.517 155.491 227.743 155.864 229.13 155.864C229.951 155.864 230.725 155.736 231.45 155.48C232.175 155.224 232.762 154.851 233.21 154.36C233.669 153.869 233.898 153.267 233.898 152.552C233.898 152.232 233.845 151.939 233.738 151.672C233.631 151.395 233.471 151.149 233.258 150.936C233.055 150.723 232.789 150.531 232.458 150.36C232.138 150.179 231.765 150.024 231.338 149.896L225.386 148.136C224.874 147.987 224.319 147.789 223.722 147.544C223.135 147.288 222.575 146.941 222.042 146.504C221.519 146.056 221.087 145.491 220.746 144.808C220.415 144.115 220.25 143.261 220.25 142.248C220.25 140.765 220.623 139.523 221.37 138.52C222.127 137.507 223.141 136.749 224.41 136.248C225.69 135.747 227.109 135.501 228.666 135.512C230.245 135.523 231.653 135.795 232.89 136.328C234.127 136.851 235.162 137.613 235.994 138.616C236.826 139.619 237.413 140.829 237.754 142.248L233.61 142.968C233.439 142.157 233.109 141.469 232.618 140.904C232.138 140.328 231.546 139.891 230.842 139.592C230.149 139.293 229.407 139.133 228.618 139.112C227.85 139.101 227.135 139.219 226.474 139.464C225.823 139.699 225.295 140.04 224.89 140.488C224.495 140.936 224.298 141.459 224.298 142.056C224.298 142.621 224.469 143.085 224.81 143.448C225.151 143.8 225.573 144.083 226.074 144.296C226.586 144.499 227.103 144.669 227.626 144.808L231.754 145.96C232.319 146.109 232.954 146.312 233.658 146.568C234.362 146.824 235.039 147.181 235.69 147.64C236.341 148.099 236.874 148.701 237.29 149.448C237.717 150.195 237.93 151.144 237.93 152.296C237.93 153.491 237.679 154.541 237.178 155.448C236.687 156.344 236.021 157.091 235.178 157.688C234.335 158.285 233.37 158.733 232.282 159.032C231.205 159.331 230.074 159.48 228.89 159.48ZM248.209 159V139.576H240.753V135.96H259.521V139.576H252.065V159H248.209ZM103.081 191L110.345 167.96H115.993L123.257 191H119.289L112.697 170.328H113.561L107.049 191H103.081ZM107.129 186.008V182.408H119.225V186.008H107.129ZM127.429 191V167.96H134.773C134.965 167.96 135.344 167.965 135.909 167.976C136.485 167.987 137.04 168.024 137.573 168.088C139.397 168.323 140.939 168.973 142.197 170.04C143.467 171.096 144.427 172.445 145.077 174.088C145.728 175.731 146.053 177.528 146.053 179.48C146.053 181.432 145.728 183.229 145.077 184.872C144.427 186.515 143.467 187.869 142.197 188.936C140.939 189.992 139.397 190.637 137.573 190.872C137.051 190.936 136.501 190.973 135.925 190.984C135.349 190.995 134.965 191 134.773 191H127.429ZM131.349 187.368H134.773C135.093 187.368 135.499 187.357 135.989 187.336C136.491 187.315 136.933 187.267 137.317 187.192C138.405 186.989 139.291 186.504 139.973 185.736C140.656 184.968 141.157 184.035 141.477 182.936C141.808 181.837 141.973 180.685 141.973 179.48C141.973 178.232 141.808 177.059 141.477 175.96C141.147 174.861 140.635 173.939 139.941 173.192C139.259 172.445 138.384 171.971 137.317 171.768C136.933 171.683 136.491 171.635 135.989 171.624C135.499 171.603 135.093 171.592 134.773 171.592H131.349V187.368ZM155.331 191L148.067 167.96H152.035L158.115 187.256L164.275 167.96H168.243L160.979 191H155.331ZM172.247 191V167.96H176.103V191H172.247ZM191.92 191.48C189.616 191.48 187.642 190.979 186 189.976C184.357 188.963 183.093 187.555 182.208 185.752C181.333 183.949 180.896 181.859 180.896 179.48C180.896 177.101 181.333 175.011 182.208 173.208C183.093 171.405 184.357 170.003 186 169C187.642 167.987 189.616 167.48 191.92 167.48C194.576 167.48 196.789 168.147 198.56 169.48C200.33 170.803 201.573 172.589 202.288 174.84L198.4 175.912C197.952 174.408 197.189 173.235 196.112 172.392C195.034 171.539 193.637 171.112 191.92 171.112C190.373 171.112 189.082 171.459 188.048 172.152C187.024 172.845 186.25 173.821 185.728 175.08C185.216 176.328 184.954 177.795 184.944 179.48C184.944 181.165 185.2 182.637 185.712 183.896C186.234 185.144 187.013 186.115 188.048 186.808C189.082 187.501 190.373 187.848 191.92 187.848C193.637 187.848 195.034 187.421 196.112 186.568C197.189 185.715 197.952 184.541 198.4 183.048L202.288 184.12C201.573 186.371 200.33 188.163 198.56 189.496C196.789 190.819 194.576 191.48 191.92 191.48ZM207.081 191V167.96H221.961V171.576H210.937V177.256H220.041V180.872H210.937V187.384H221.961V191H207.081Z" fill="white"></path></svg> 