<?xml version="1.0" encoding="UTF-8"?> <svg xmlns="http://www.w3.org/2000/svg" width="325" height="325" viewBox="0 0 325 325" fill="none"><rect width="325" height="325" rx="10" fill="#EEBF38"></rect><path d="M65.4649 151V131.576H58.0089V127.96H76.7769V131.576H69.3209V151H65.4649ZM80.6152 151V127.96H84.4712V137.656H95.3832V127.96H99.2232V151H95.3832V141.272H84.4712V151H80.6152ZM104.989 151V127.96H119.869V131.576H108.845V137.256H117.949V140.872H108.845V147.384H119.869V151H104.989ZM142.141 127.138L138.713 139.029C140.243 136.234 141.543 134.134 142.616 132.728C144.285 130.548 145.911 128.966 147.493 127.981C148.425 127.419 149.401 127.138 150.42 127.138C151.299 127.138 152.029 127.419 152.609 127.981C153.189 128.544 153.479 129.265 153.479 130.144C153.479 131.005 153.277 132.13 152.872 133.519L151 140.216C153.866 134.854 156.581 131.093 159.148 128.931C160.572 127.735 161.978 127.138 163.367 127.138C164.175 127.138 164.834 127.419 165.344 127.981C165.871 128.526 166.135 129.379 166.135 130.539C166.135 131.559 165.977 132.64 165.66 133.782L162.76 144.039C162.127 146.271 161.811 147.511 161.811 147.757C161.811 148.003 161.89 148.214 162.048 148.39C162.154 148.513 162.294 148.574 162.47 148.574C162.646 148.574 162.953 148.407 163.393 148.073C164.395 147.3 165.335 146.28 166.214 145.015L167.084 145.568C166.645 146.271 165.863 147.238 164.738 148.469C163.63 149.699 162.681 150.534 161.89 150.974C161.099 151.413 160.369 151.633 159.701 151.633C159.086 151.633 158.568 151.422 158.146 151C157.742 150.578 157.539 150.06 157.539 149.444C157.539 148.601 157.9 146.904 158.62 144.355L161.02 135.892C161.565 133.94 161.855 132.859 161.89 132.648C161.943 132.314 161.969 131.989 161.969 131.673C161.969 131.233 161.872 130.891 161.679 130.645C161.468 130.398 161.231 130.275 160.967 130.275C160.229 130.275 159.447 130.653 158.62 131.409C156.195 133.642 153.927 136.771 151.818 140.796C150.429 143.45 149.128 146.852 147.915 151H143.934L148.443 135.048C148.935 133.325 149.181 132.174 149.181 131.594C149.181 131.119 149.084 130.768 148.891 130.539C148.698 130.311 148.46 130.196 148.179 130.196C147.599 130.196 146.984 130.407 146.333 130.829C145.279 131.515 143.916 132.982 142.246 135.232C140.594 137.482 139.311 139.636 138.397 141.692C137.957 142.659 136.911 145.762 135.259 151H131.357L136.235 133.914L136.868 131.699C136.991 131.365 137.052 131.119 137.052 130.961C137.052 130.574 136.876 130.231 136.525 129.933C136.173 129.616 135.725 129.458 135.18 129.458C134.951 129.458 134.319 129.563 133.282 129.774L133.044 128.799L142.141 127.138ZM173.759 127.138C174.357 128.157 174.77 129.115 174.999 130.012C175.227 130.891 175.456 132.631 175.684 135.232L176.844 148.205C177.899 146.939 179.428 144.936 181.432 142.193C182.399 140.857 183.594 139.038 185.018 136.735C185.88 135.329 186.407 134.345 186.6 133.782C186.706 133.501 186.758 133.211 186.758 132.912C186.758 132.719 186.697 132.561 186.574 132.438C186.451 132.314 186.126 132.174 185.598 132.016C185.089 131.84 184.658 131.532 184.306 131.093C183.972 130.636 183.805 130.117 183.805 129.537C183.805 128.816 184.016 128.236 184.438 127.797C184.86 127.357 185.387 127.138 186.02 127.138C186.794 127.138 187.453 127.463 187.998 128.113C188.543 128.746 188.815 129.625 188.815 130.75C188.815 132.139 188.34 133.729 187.391 135.522C186.442 137.298 184.614 140.031 181.907 143.723C179.2 147.414 175.922 151.439 172.072 155.799C169.418 158.805 167.449 160.694 166.166 161.468C164.882 162.259 163.784 162.654 162.87 162.654C162.325 162.654 161.85 162.443 161.446 162.021C161.024 161.617 160.813 161.143 160.813 160.598C160.813 159.912 161.103 159.288 161.683 158.726C162.246 158.163 162.861 157.882 163.529 157.882C163.881 157.882 164.171 157.961 164.399 158.119C164.54 158.207 164.698 158.453 164.874 158.857C165.032 159.279 165.181 159.561 165.322 159.701C165.41 159.789 165.515 159.833 165.638 159.833C165.744 159.833 165.928 159.745 166.192 159.569C167.159 158.972 168.284 158.022 169.567 156.722C171.255 154.999 172.503 153.593 173.311 152.503L171.835 135.786C171.589 133.026 171.219 131.348 170.727 130.75C170.235 130.152 169.409 129.854 168.249 129.854C167.88 129.854 167.22 129.906 166.271 130.012L166.034 129.036L173.759 127.138ZM204.402 127.138L202.794 135.232H201.818C201.73 132.877 201.229 131.163 200.315 130.091C199.401 129.019 198.268 128.482 196.914 128.482C195.824 128.482 194.954 128.781 194.304 129.379C193.671 129.977 193.354 130.697 193.354 131.541C193.354 132.121 193.477 132.675 193.724 133.202C193.987 133.729 194.55 134.468 195.411 135.417C197.696 137.913 199.173 139.794 199.841 141.06C200.509 142.325 200.843 143.521 200.843 144.646C200.843 146.474 200.078 148.1 198.549 149.523C197.037 150.93 195.121 151.633 192.801 151.633C191.535 151.633 190.076 151.334 188.424 150.736C187.844 150.525 187.395 150.42 187.079 150.42C186.288 150.42 185.69 150.824 185.286 151.633H184.311L185.919 143.09H186.894C187 145.762 187.554 147.651 188.556 148.759C189.558 149.866 190.929 150.42 192.669 150.42C194.005 150.42 195.06 150.051 195.833 149.312C196.624 148.557 197.019 147.634 197.019 146.544C197.019 145.841 196.879 145.19 196.598 144.593C196.105 143.538 195.068 142.079 193.486 140.216C191.922 138.353 190.911 136.955 190.454 136.023C190.015 135.092 189.795 134.16 189.795 133.229C189.795 131.523 190.41 130.082 191.641 128.904C192.889 127.727 194.488 127.138 196.439 127.138C197.002 127.138 197.512 127.182 197.969 127.27C198.215 127.322 198.786 127.524 199.683 127.876C200.597 128.21 201.203 128.377 201.502 128.377C202.258 128.377 202.891 127.964 203.4 127.138H204.402ZM215.56 120.599L213.503 127.771H217.643L217.195 129.432H213.081L208.546 144.988C208.054 146.658 207.808 147.739 207.808 148.231C207.808 148.53 207.878 148.759 208.019 148.917C208.159 149.075 208.326 149.154 208.52 149.154C208.959 149.154 209.539 148.847 210.26 148.231C210.682 147.88 211.622 146.799 213.081 144.988L213.951 145.647C212.334 148.003 210.805 149.664 209.364 150.631C208.379 151.299 207.386 151.633 206.384 151.633C205.611 151.633 204.978 151.396 204.486 150.921C203.993 150.429 203.747 149.805 203.747 149.049C203.747 148.1 204.029 146.649 204.591 144.698L208.994 129.432H205.013L205.277 128.403C207.21 127.876 208.819 127.094 210.102 126.057C211.385 125.002 212.818 123.183 214.4 120.599H215.56ZM218.675 141.06C218.552 141.938 218.491 142.668 218.491 143.248C218.491 144.812 219.045 146.148 220.152 147.256C221.259 148.346 222.604 148.891 224.186 148.891C225.452 148.891 226.665 148.636 227.825 148.126C229.003 147.599 230.743 146.447 233.046 144.672L233.599 145.437C229.433 149.567 225.461 151.633 221.681 151.633C219.115 151.633 217.181 150.824 215.88 149.207C214.58 147.59 213.929 145.806 213.929 143.854C213.929 141.235 214.738 138.555 216.355 135.812C217.972 133.07 220.003 130.943 222.446 129.432C224.889 127.902 227.403 127.138 229.987 127.138C231.85 127.138 233.23 127.516 234.127 128.271C235.023 129.027 235.471 129.924 235.471 130.961C235.471 132.42 234.891 133.817 233.731 135.153C232.202 136.894 229.952 138.3 226.981 139.372C225.012 140.093 222.244 140.655 218.675 141.06ZM218.86 139.768C221.462 139.469 223.58 138.959 225.214 138.238C227.377 137.271 228.994 136.12 230.066 134.784C231.156 133.431 231.701 132.147 231.701 130.935C231.701 130.196 231.463 129.599 230.989 129.142C230.532 128.685 229.873 128.456 229.011 128.456C227.218 128.456 225.311 129.414 223.29 131.33C221.286 133.229 219.809 136.041 218.86 139.768ZM234.737 128.614L243.834 127.138L240.037 139.952C243.113 134.696 245.908 131.022 248.422 128.931C249.846 127.735 251.006 127.138 251.902 127.138C252.482 127.138 252.939 127.313 253.273 127.665C253.607 127.999 253.774 128.491 253.774 129.142C253.774 130.302 253.476 131.409 252.878 132.464C252.456 133.255 251.85 133.65 251.059 133.65C250.654 133.65 250.303 133.519 250.004 133.255C249.723 132.991 249.547 132.587 249.476 132.042C249.441 131.708 249.362 131.488 249.239 131.383C249.099 131.242 248.932 131.172 248.738 131.172C248.439 131.172 248.158 131.242 247.894 131.383C247.437 131.629 246.743 132.314 245.811 133.439C244.352 135.162 242.77 137.395 241.065 140.137C240.327 141.297 239.694 142.606 239.167 144.065C238.429 146.069 238.007 147.273 237.901 147.678L237.058 151H233.023L237.901 134.626C238.464 132.728 238.745 131.374 238.745 130.565C238.745 130.249 238.613 129.985 238.35 129.774C237.998 129.493 237.532 129.353 236.952 129.353C236.583 129.353 235.906 129.432 234.922 129.59L234.737 128.614ZM257.259 127.138C257.857 128.157 258.27 129.115 258.498 130.012C258.727 130.891 258.955 132.631 259.184 135.232L260.344 148.205C261.399 146.939 262.928 144.936 264.932 142.193C265.899 140.857 267.094 139.038 268.518 136.735C269.379 135.329 269.906 134.345 270.1 133.782C270.205 133.501 270.258 133.211 270.258 132.912C270.258 132.719 270.197 132.561 270.073 132.438C269.95 132.314 269.625 132.174 269.098 132.016C268.588 131.84 268.157 131.532 267.806 131.093C267.472 130.636 267.305 130.117 267.305 129.537C267.305 128.816 267.516 128.236 267.938 127.797C268.36 127.357 268.887 127.138 269.52 127.138C270.293 127.138 270.952 127.463 271.497 128.113C272.042 128.746 272.315 129.625 272.315 130.75C272.315 132.139 271.84 133.729 270.891 135.522C269.942 137.298 268.114 140.031 265.406 143.723C262.699 147.414 259.421 151.439 255.572 155.799C252.917 158.805 250.948 160.694 249.665 161.468C248.382 162.259 247.283 162.654 246.369 162.654C245.824 162.654 245.35 162.443 244.946 162.021C244.524 161.617 244.313 161.143 244.313 160.598C244.313 159.912 244.603 159.288 245.183 158.726C245.745 158.163 246.361 157.882 247.029 157.882C247.38 157.882 247.67 157.961 247.899 158.119C248.039 158.207 248.197 158.453 248.373 158.857C248.531 159.279 248.681 159.561 248.822 159.701C248.909 159.789 249.015 159.833 249.138 159.833C249.243 159.833 249.428 159.745 249.692 159.569C250.658 158.972 251.783 158.022 253.067 156.722C254.754 154.999 256.002 153.593 256.811 152.503L255.334 135.786C255.088 133.026 254.719 131.348 254.227 130.75C253.735 130.152 252.908 129.854 251.748 129.854C251.379 129.854 250.72 129.906 249.771 130.012L249.533 129.036L257.259 127.138ZM47.7109 183.48C45.4069 183.48 43.4335 182.979 41.7909 181.976C40.1482 180.963 38.8842 179.555 37.9989 177.752C37.1242 175.949 36.6869 173.859 36.6869 171.48C36.6869 169.101 37.1242 167.011 37.9989 165.208C38.8842 163.405 40.1482 162.003 41.7909 161C43.4335 159.987 45.4069 159.48 47.7109 159.48C50.0149 159.48 51.9882 159.987 53.6309 161C55.2842 162.003 56.5482 163.405 57.4229 165.208C58.3082 167.011 58.7509 169.101 58.7509 171.48C58.7509 173.859 58.3082 175.949 57.4229 177.752C56.5482 179.555 55.2842 180.963 53.6309 181.976C51.9882 182.979 50.0149 183.48 47.7109 183.48ZM47.7109 179.848C49.2575 179.859 50.5429 179.517 51.5669 178.824C52.6015 178.131 53.3749 177.155 53.8869 175.896C54.4095 174.637 54.6709 173.165 54.6709 171.48C54.6709 169.795 54.4095 168.333 53.8869 167.096C53.3749 165.848 52.6015 164.877 51.5669 164.184C50.5429 163.491 49.2575 163.133 47.7109 163.112C46.1642 163.101 44.8789 163.443 43.8549 164.136C42.8309 164.829 42.0575 165.805 41.5349 167.064C41.0229 168.323 40.7669 169.795 40.7669 171.48C40.7669 173.165 41.0229 174.632 41.5349 175.88C42.0469 177.117 42.8149 178.083 43.8389 178.776C44.8735 179.469 46.1642 179.827 47.7109 179.848ZM63.2156 183V159.96H77.0876V163.816H67.0716V169.56H75.1676V173.4H67.0716V183H63.2156ZM94.4679 183V163.576H87.0119V159.96H105.78V163.576H98.3239V183H94.4679ZM109.618 183V159.96H113.474V169.656H124.386V159.96H128.226V183H124.386V173.272H113.474V183H109.618ZM133.992 183V159.96H148.872V163.576H137.848V169.256H146.952V172.872H137.848V179.384H148.872V183H133.992ZM170.205 183.48C168.52 183.48 167 183.187 165.645 182.6C164.301 182.013 163.192 181.176 162.317 180.088C161.453 178.989 160.904 177.688 160.669 176.184L164.669 175.576C165.01 176.941 165.709 177.997 166.765 178.744C167.832 179.491 169.058 179.864 170.445 179.864C171.266 179.864 172.04 179.736 172.765 179.48C173.49 179.224 174.077 178.851 174.525 178.36C174.984 177.869 175.213 177.267 175.213 176.552C175.213 176.232 175.16 175.939 175.053 175.672C174.946 175.395 174.786 175.149 174.573 174.936C174.37 174.723 174.104 174.531 173.773 174.36C173.453 174.179 173.08 174.024 172.653 173.896L166.701 172.136C166.189 171.987 165.634 171.789 165.037 171.544C164.45 171.288 163.89 170.941 163.357 170.504C162.834 170.056 162.402 169.491 162.061 168.808C161.73 168.115 161.565 167.261 161.565 166.248C161.565 164.765 161.938 163.523 162.685 162.52C163.442 161.507 164.456 160.749 165.725 160.248C167.005 159.747 168.424 159.501 169.981 159.512C171.56 159.523 172.968 159.795 174.205 160.328C175.442 160.851 176.477 161.613 177.309 162.616C178.141 163.619 178.728 164.829 179.069 166.248L174.925 166.968C174.754 166.157 174.424 165.469 173.933 164.904C173.453 164.328 172.861 163.891 172.157 163.592C171.464 163.293 170.722 163.133 169.933 163.112C169.165 163.101 168.45 163.219 167.789 163.464C167.138 163.699 166.61 164.04 166.205 164.488C165.81 164.936 165.613 165.459 165.613 166.056C165.613 166.621 165.784 167.085 166.125 167.448C166.466 167.8 166.888 168.083 167.389 168.296C167.901 168.499 168.418 168.669 168.941 168.808L173.069 169.96C173.634 170.109 174.269 170.312 174.973 170.568C175.677 170.824 176.354 171.181 177.005 171.64C177.656 172.099 178.189 172.701 178.605 173.448C179.032 174.195 179.245 175.144 179.245 176.296C179.245 177.491 178.994 178.541 178.493 179.448C178.002 180.344 177.336 181.091 176.493 181.688C175.65 182.285 174.685 182.733 173.597 183.032C172.52 183.331 171.389 183.48 170.205 183.48ZM189.524 183V163.576H182.068V159.96H200.836V163.576H193.38V183H189.524ZM214.418 183.48C212.114 183.48 210.141 182.979 208.498 181.976C206.856 180.963 205.592 179.555 204.706 177.752C203.832 175.949 203.394 173.859 203.394 171.48C203.394 169.101 203.832 167.011 204.706 165.208C205.592 163.405 206.856 162.003 208.498 161C210.141 159.987 212.114 159.48 214.418 159.48C216.722 159.48 218.696 159.987 220.338 161C221.992 162.003 223.256 163.405 224.13 165.208C225.016 167.011 225.458 169.101 225.458 171.48C225.458 173.859 225.016 175.949 224.13 177.752C223.256 179.555 221.992 180.963 220.338 181.976C218.696 182.979 216.722 183.48 214.418 183.48ZM214.418 179.848C215.965 179.859 217.25 179.517 218.274 178.824C219.309 178.131 220.082 177.155 220.594 175.896C221.117 174.637 221.378 173.165 221.378 171.48C221.378 169.795 221.117 168.333 220.594 167.096C220.082 165.848 219.309 164.877 218.274 164.184C217.25 163.491 215.965 163.133 214.418 163.112C212.872 163.101 211.586 163.443 210.562 164.136C209.538 164.829 208.765 165.805 208.242 167.064C207.73 168.323 207.474 169.795 207.474 171.48C207.474 173.165 207.73 174.632 208.242 175.88C208.754 177.117 209.522 178.083 210.546 178.776C211.581 179.469 212.872 179.827 214.418 179.848ZM230.243 183V159.96H234.099V179.384H244.275V183H230.243ZM248.266 183V159.96H263.146V163.576H252.122V169.256H261.226V172.872H252.122V179.384H263.146V183H248.266ZM268.264 183V159.96H272.168L282.856 176.2V159.96H286.76V183H282.856L272.168 166.76V183H268.264ZM111.221 215.48C108.917 215.48 106.944 214.979 105.301 213.976C103.659 212.963 102.395 211.555 101.509 209.752C100.635 207.949 100.197 205.859 100.197 203.48C100.197 201.101 100.635 199.011 101.509 197.208C102.395 195.405 103.659 194.003 105.301 193C106.944 191.987 108.917 191.48 111.221 191.48C113.525 191.48 115.499 191.987 117.142 193C118.795 194.003 120.059 195.405 120.934 197.208C121.819 199.011 122.261 201.101 122.261 203.48C122.261 205.859 121.819 207.949 120.934 209.752C120.059 211.555 118.795 212.963 117.142 213.976C115.499 214.979 113.525 215.48 111.221 215.48ZM111.221 211.848C112.768 211.859 114.054 211.517 115.078 210.824C116.112 210.131 116.885 209.155 117.398 207.896C117.92 206.637 118.181 205.165 118.181 203.48C118.181 201.795 117.92 200.333 117.398 199.096C116.885 197.848 116.112 196.877 115.078 196.184C114.054 195.491 112.768 195.133 111.221 195.112C109.675 195.101 108.389 195.443 107.365 196.136C106.341 196.829 105.568 197.805 105.045 199.064C104.533 200.323 104.277 201.795 104.277 203.48C104.277 205.165 104.533 206.632 105.045 207.88C105.557 209.117 106.325 210.083 107.349 210.776C108.384 211.469 109.675 211.827 111.221 211.848ZM126.726 215V191.96H135.862C137.42 191.96 138.694 192.275 139.686 192.904C140.689 193.523 141.43 194.317 141.91 195.288C142.401 196.259 142.646 197.261 142.646 198.296C142.646 199.565 142.342 200.643 141.734 201.528C141.137 202.413 140.321 203.011 139.286 203.32V202.52C140.737 202.851 141.836 203.539 142.582 204.584C143.34 205.629 143.718 206.819 143.718 208.152C143.718 209.517 143.457 210.712 142.934 211.736C142.412 212.76 141.633 213.56 140.598 214.136C139.574 214.712 138.305 215 136.79 215H126.726ZM130.63 211.368H136.31C136.982 211.368 137.585 211.235 138.118 210.968C138.652 210.691 139.068 210.307 139.366 209.816C139.676 209.315 139.83 208.723 139.83 208.04C139.83 207.421 139.697 206.867 139.43 206.376C139.164 205.885 138.774 205.496 138.262 205.208C137.75 204.909 137.137 204.76 136.422 204.76H130.63V211.368ZM130.63 201.16H135.814C136.369 201.16 136.865 201.053 137.302 200.84C137.74 200.627 138.086 200.312 138.342 199.896C138.598 199.48 138.726 198.968 138.726 198.36C138.726 197.56 138.47 196.893 137.958 196.36C137.446 195.827 136.732 195.56 135.814 195.56H130.63V201.16ZM152.802 215.48C151.042 215.48 149.575 215.021 148.402 214.104C147.239 213.187 146.423 211.949 145.954 210.392L149.762 209.48C149.879 210.131 150.22 210.691 150.786 211.16C151.351 211.629 151.975 211.864 152.658 211.864C153.106 211.864 153.58 211.747 154.082 211.512C154.583 211.267 154.956 210.877 155.202 210.344C155.351 210.003 155.436 209.597 155.458 209.128C155.49 208.648 155.506 208.093 155.506 207.464V191.96H159.41V207.464C159.41 208.179 159.404 208.808 159.394 209.352C159.394 209.885 159.34 210.392 159.234 210.872C159.138 211.341 158.94 211.827 158.642 212.328C158.012 213.416 157.191 214.216 156.178 214.728C155.164 215.229 154.039 215.48 152.802 215.48ZM165.505 215V191.96H180.385V195.576H169.361V201.256H178.465V204.872H169.361V211.384H180.385V215H165.505ZM194.435 215.48C192.131 215.48 190.158 214.979 188.515 213.976C186.873 212.963 185.609 211.555 184.723 209.752C183.849 207.949 183.411 205.859 183.411 203.48C183.411 201.101 183.849 199.011 184.723 197.208C185.609 195.405 186.873 194.003 188.515 193C190.158 191.987 192.131 191.48 194.435 191.48C197.091 191.48 199.305 192.147 201.075 193.48C202.846 194.803 204.089 196.589 204.803 198.84L200.915 199.912C200.467 198.408 199.705 197.235 198.627 196.392C197.55 195.539 196.153 195.112 194.435 195.112C192.889 195.112 191.598 195.459 190.563 196.152C189.539 196.845 188.766 197.821 188.243 199.08C187.731 200.328 187.47 201.795 187.459 203.48C187.459 205.165 187.715 206.637 188.227 207.896C188.75 209.144 189.529 210.115 190.563 210.808C191.598 211.501 192.889 211.848 194.435 211.848C196.153 211.848 197.55 211.421 198.627 210.568C199.705 209.715 200.467 208.541 200.915 207.048L204.803 208.12C204.089 210.371 202.846 212.163 201.075 213.496C199.305 214.819 197.091 215.48 194.435 215.48ZM215.132 215V195.576H207.676V191.96H226.444V195.576H218.988V215H215.132Z" fill="white"></path></svg> 