<?xml version="1.0" encoding="UTF-8"?> <svg xmlns="http://www.w3.org/2000/svg" width="325" height="325" viewBox="0 0 325 325" fill="none"><rect width="325" height="325" rx="10" fill="#EEBF38"></rect><path d="M67.6839 181V157.96H71.5879L82.2759 174.2V157.96H86.1799V181H82.2759L71.5879 164.76V181H67.6839ZM90.3327 181L97.5967 157.96H103.245L110.509 181H106.541L99.9487 160.328H100.813L94.3007 181H90.3327ZM94.3807 176.008V172.408H106.477V176.008H94.3807ZM114.681 181V157.96H118.153L126.121 174.28L134.089 157.96H137.561V181H133.961V166.232L126.889 181H125.353L118.297 166.232V181H114.681ZM143.336 181V157.96H158.216V161.576H147.192V167.256H156.296V170.872H147.192V177.384H158.216V181H143.336ZM182.809 150.599L180.752 157.771H184.892L184.444 159.432H180.33L175.795 174.988C175.303 176.658 175.057 177.739 175.057 178.231C175.057 178.53 175.127 178.759 175.268 178.917C175.408 179.075 175.575 179.154 175.769 179.154C176.208 179.154 176.788 178.847 177.509 178.231C177.931 177.88 178.871 176.799 180.33 174.988L181.2 175.647C179.583 178.003 178.054 179.664 176.612 180.631C175.628 181.299 174.635 181.633 173.633 181.633C172.86 181.633 172.227 181.396 171.735 180.921C171.242 180.429 170.996 179.805 170.996 179.049C170.996 178.1 171.277 176.649 171.84 174.698L176.243 159.432H172.262L172.526 158.403C174.459 157.876 176.068 157.094 177.351 156.057C178.634 155.002 180.067 153.183 181.649 150.599H182.809ZM195.337 143.506L187.928 169.108C191.127 164.292 193.624 161.093 195.416 159.511C197.209 157.929 198.923 157.138 200.558 157.138C201.402 157.138 202.105 157.428 202.667 158.008C203.23 158.588 203.511 159.361 203.511 160.328C203.511 161.488 203.265 162.895 202.773 164.547L199.556 175.595C199.152 176.931 198.95 177.669 198.95 177.81C198.95 178.056 199.02 178.258 199.161 178.416C199.319 178.574 199.495 178.653 199.688 178.653C199.916 178.653 200.18 178.539 200.479 178.311C201.481 177.537 202.474 176.465 203.458 175.094L204.276 175.595C203.678 176.526 202.843 177.555 201.771 178.68C200.716 179.787 199.802 180.561 199.029 181C198.273 181.422 197.596 181.633 196.999 181.633C196.348 181.633 195.812 181.422 195.39 181C194.986 180.596 194.784 180.068 194.784 179.418C194.784 178.645 195.091 177.203 195.707 175.094L198.739 164.547C199.125 163.229 199.319 162.191 199.319 161.436C199.319 161.084 199.205 160.803 198.976 160.592C198.765 160.381 198.484 160.275 198.132 160.275C197.623 160.275 197.042 160.469 196.392 160.855C195.197 161.594 193.817 162.965 192.252 164.969C191.831 165.514 190.424 167.711 188.034 171.561C187.295 172.791 186.689 174.136 186.214 175.595L184.527 181H180.572L189.247 150.836L190.169 147.566C190.169 147.109 189.976 146.705 189.589 146.354C189.22 146.002 188.763 145.826 188.218 145.826C187.902 145.826 187.418 145.879 186.768 145.984L186.214 146.063V145.035L195.337 143.506ZM204.992 158.614L214.089 157.138L210.292 169.952C213.368 164.696 216.163 161.022 218.677 158.931C220.1 157.735 221.261 157.138 222.157 157.138C222.737 157.138 223.194 157.313 223.528 157.665C223.862 157.999 224.029 158.491 224.029 159.142C224.029 160.302 223.73 161.409 223.133 162.464C222.711 163.255 222.104 163.65 221.313 163.65C220.909 163.65 220.557 163.519 220.259 163.255C219.977 162.991 219.802 162.587 219.731 162.042C219.696 161.708 219.617 161.488 219.494 161.383C219.353 161.242 219.186 161.172 218.993 161.172C218.694 161.172 218.413 161.242 218.149 161.383C217.692 161.629 216.998 162.314 216.066 163.439C214.607 165.162 213.025 167.395 211.32 170.137C210.582 171.297 209.949 172.606 209.422 174.065C208.683 176.069 208.262 177.273 208.156 177.678L207.312 181H203.278L208.156 164.626C208.719 162.728 209 161.374 209 160.565C209 160.249 208.868 159.985 208.604 159.774C208.253 159.493 207.787 159.353 207.207 159.353C206.838 159.353 206.161 159.432 205.177 159.59L204.992 158.614ZM223.321 171.06C223.198 171.938 223.137 172.668 223.137 173.248C223.137 174.812 223.691 176.148 224.798 177.256C225.905 178.346 227.25 178.891 228.832 178.891C230.098 178.891 231.311 178.636 232.471 178.126C233.649 177.599 235.389 176.447 237.692 174.672L238.245 175.437C234.079 179.567 230.107 181.633 226.327 181.633C223.761 181.633 221.827 180.824 220.526 179.207C219.226 177.59 218.575 175.806 218.575 173.854C218.575 171.235 219.384 168.555 221.001 165.812C222.618 163.07 224.649 160.943 227.092 159.432C229.535 157.902 232.049 157.138 234.633 157.138C236.496 157.138 237.876 157.516 238.773 158.271C239.669 159.027 240.117 159.924 240.117 160.961C240.117 162.42 239.537 163.817 238.377 165.153C236.848 166.894 234.598 168.3 231.627 169.372C229.658 170.093 226.89 170.655 223.321 171.06ZM223.506 169.768C226.108 169.469 228.226 168.959 229.86 168.238C232.023 167.271 233.64 166.12 234.712 164.784C235.802 163.431 236.347 162.147 236.347 160.935C236.347 160.196 236.109 159.599 235.635 159.142C235.178 158.685 234.519 158.456 233.657 158.456C231.864 158.456 229.957 159.414 227.936 161.33C225.932 163.229 224.455 166.041 223.506 169.768ZM242.996 171.06C242.872 171.938 242.811 172.668 242.811 173.248C242.811 174.812 243.365 176.148 244.472 177.256C245.58 178.346 246.924 178.891 248.506 178.891C249.772 178.891 250.985 178.636 252.145 178.126C253.323 177.599 255.063 176.447 257.366 174.672L257.919 175.437C253.753 179.567 249.781 181.633 246.001 181.633C243.435 181.633 241.501 180.824 240.201 179.207C238.9 177.59 238.249 175.806 238.249 173.854C238.249 171.235 239.058 168.555 240.675 165.812C242.292 163.07 244.323 160.943 246.766 159.432C249.209 157.902 251.723 157.138 254.307 157.138C256.17 157.138 257.55 157.516 258.447 158.271C259.343 159.027 259.791 159.924 259.791 160.961C259.791 162.42 259.211 163.817 258.051 165.153C256.522 166.894 254.272 168.3 251.301 169.372C249.332 170.093 246.564 170.655 242.996 171.06ZM243.18 169.768C245.782 169.469 247.9 168.959 249.535 168.238C251.697 167.271 253.314 166.12 254.386 164.784C255.476 163.431 256.021 162.147 256.021 160.935C256.021 160.196 255.784 159.599 255.309 159.142C254.852 158.685 254.193 158.456 253.331 158.456C251.539 158.456 249.631 159.414 247.61 161.33C245.606 163.229 244.129 166.041 243.18 169.768Z" fill="white"></path></svg> 