<?xml version="1.0" encoding="UTF-8"?> <svg xmlns="http://www.w3.org/2000/svg" width="900" height="540" viewBox="0 0 900 540" fill="none"><rect width="900" height="540" rx="30" fill="url(#paint0_linear_3968_1078)"></rect><path d="M176.902 286V257.2H179.602L190.922 281.42L202.182 257.2H204.922V285.98H202.122V263.76L191.862 286H189.962L179.722 263.76V286H176.902ZM218.874 286.6C216.768 286.6 214.941 286.133 213.394 285.2C211.861 284.267 210.668 282.953 209.814 281.26C208.961 279.567 208.534 277.58 208.534 275.3C208.534 272.94 208.954 270.9 209.794 269.18C210.634 267.46 211.814 266.133 213.334 265.2C214.868 264.267 216.674 263.8 218.754 263.8C220.888 263.8 222.708 264.293 224.214 265.28C225.721 266.253 226.861 267.653 227.634 269.48C228.408 271.307 228.761 273.487 228.694 276.02H225.694V274.98C225.641 272.18 225.034 270.067 223.874 268.64C222.728 267.213 221.048 266.5 218.834 266.5C216.514 266.5 214.734 267.253 213.494 268.76C212.268 270.267 211.654 272.413 211.654 275.2C211.654 277.92 212.268 280.033 213.494 281.54C214.734 283.033 216.488 283.78 218.754 283.78C220.301 283.78 221.648 283.427 222.794 282.72C223.954 282 224.868 280.967 225.534 279.62L228.274 280.68C227.421 282.56 226.161 284.02 224.494 285.06C222.841 286.087 220.968 286.6 218.874 286.6ZM210.614 276.02V273.56H227.114V276.02H210.614ZM241.473 286.6C239.366 286.6 237.539 286.133 235.993 285.2C234.459 284.267 233.266 282.953 232.413 281.26C231.559 279.567 231.133 277.58 231.133 275.3C231.133 272.94 231.553 270.9 232.393 269.18C233.233 267.46 234.413 266.133 235.933 265.2C237.466 264.267 239.273 263.8 241.353 263.8C243.486 263.8 245.306 264.293 246.813 265.28C248.319 266.253 249.459 267.653 250.233 269.48C251.006 271.307 251.359 273.487 251.293 276.02H248.293V274.98C248.239 272.18 247.633 270.067 246.473 268.64C245.326 267.213 243.646 266.5 241.433 266.5C239.113 266.5 237.333 267.253 236.093 268.76C234.866 270.267 234.253 272.413 234.253 275.2C234.253 277.92 234.866 280.033 236.093 281.54C237.333 283.033 239.086 283.78 241.353 283.78C242.899 283.78 244.246 283.427 245.393 282.72C246.553 282 247.466 280.967 248.133 279.62L250.873 280.68C250.019 282.56 248.759 284.02 247.093 285.06C245.439 286.087 243.566 286.6 241.473 286.6ZM233.213 276.02V273.56H249.713V276.02H233.213ZM266.691 286C265.478 286.253 264.278 286.353 263.091 286.3C261.918 286.247 260.865 285.993 259.931 285.54C259.011 285.087 258.311 284.38 257.831 283.42C257.445 282.62 257.231 281.813 257.191 281C257.165 280.173 257.151 279.233 257.151 278.18V258.4H260.071V278.06C260.071 278.967 260.078 279.727 260.091 280.34C260.118 280.94 260.258 281.473 260.511 281.94C260.991 282.833 261.751 283.367 262.791 283.54C263.845 283.713 265.145 283.673 266.691 283.42V286ZM252.531 266.92V264.4H266.691V266.92H252.531ZM270.547 260.3V257H273.487V260.3H270.547ZM270.547 286V264.4H273.487V286H270.547ZM294.283 286V274.98C294.283 273.78 294.169 272.68 293.943 271.68C293.716 270.667 293.349 269.787 292.843 269.04C292.349 268.28 291.703 267.693 290.903 267.28C290.116 266.867 289.156 266.66 288.023 266.66C286.983 266.66 286.063 266.84 285.263 267.2C284.476 267.56 283.809 268.08 283.263 268.76C282.729 269.427 282.323 270.24 282.043 271.2C281.763 272.16 281.623 273.253 281.623 274.48L279.543 274.02C279.543 271.807 279.929 269.947 280.703 268.44C281.476 266.933 282.543 265.793 283.903 265.02C285.263 264.247 286.823 263.86 288.583 263.86C289.876 263.86 291.003 264.06 291.963 264.46C292.936 264.86 293.756 265.4 294.423 266.08C295.103 266.76 295.649 267.54 296.063 268.42C296.476 269.287 296.776 270.213 296.963 271.2C297.149 272.173 297.243 273.147 297.243 274.12V286H294.283ZM278.663 286V264.4H281.323V269.72H281.623V286H278.663ZM310.213 296.2C309.106 296.2 308.013 296.033 306.933 295.7C305.866 295.38 304.879 294.867 303.973 294.16C303.066 293.467 302.306 292.56 301.693 291.44L304.353 289.96C304.953 291.16 305.793 292.02 306.873 292.54C307.966 293.073 309.079 293.34 310.213 293.34C311.773 293.34 313.033 293.047 313.993 292.46C314.966 291.887 315.673 291.033 316.113 289.9C316.553 288.767 316.766 287.353 316.753 285.66V279.9H317.093V264.4H319.713V285.7C319.713 286.313 319.693 286.9 319.653 287.46C319.626 288.033 319.566 288.593 319.473 289.14C319.219 290.753 318.693 292.08 317.893 293.12C317.106 294.16 316.066 294.933 314.773 295.44C313.493 295.947 311.973 296.2 310.213 296.2ZM310.013 286.6C307.999 286.6 306.279 286.1 304.853 285.1C303.426 284.087 302.333 282.72 301.573 281C300.813 279.28 300.433 277.34 300.433 275.18C300.433 273.033 300.806 271.1 301.553 269.38C302.313 267.66 303.399 266.3 304.813 265.3C306.226 264.3 307.919 263.8 309.893 263.8C311.919 263.8 313.626 264.293 315.013 265.28C316.399 266.267 317.446 267.62 318.153 269.34C318.873 271.047 319.233 272.993 319.233 275.18C319.233 277.327 318.879 279.267 318.173 281C317.466 282.72 316.426 284.087 315.053 285.1C313.679 286.1 311.999 286.6 310.013 286.6ZM310.313 283.86C311.846 283.86 313.113 283.487 314.113 282.74C315.113 281.993 315.859 280.967 316.353 279.66C316.846 278.34 317.093 276.847 317.093 275.18C317.093 273.487 316.846 271.993 316.353 270.7C315.859 269.393 315.113 268.373 314.113 267.64C313.126 266.907 311.879 266.54 310.373 266.54C308.826 266.54 307.546 266.92 306.533 267.68C305.519 268.44 304.766 269.473 304.273 270.78C303.793 272.087 303.553 273.553 303.553 275.18C303.553 276.82 303.799 278.3 304.293 279.62C304.799 280.927 305.553 281.96 306.553 282.72C307.553 283.48 308.806 283.86 310.313 283.86ZM340.673 286.6C338.499 286.6 336.659 286.113 335.153 285.14C333.646 284.167 332.499 282.827 331.713 281.12C330.939 279.4 330.539 277.427 330.513 275.2C330.539 272.933 330.953 270.947 331.753 269.24C332.553 267.52 333.706 266.187 335.213 265.24C336.719 264.28 338.546 263.8 340.693 263.8C342.879 263.8 344.779 264.333 346.393 265.4C348.019 266.467 349.133 267.927 349.733 269.78L346.853 270.7C346.346 269.407 345.539 268.407 344.433 267.7C343.339 266.98 342.086 266.62 340.673 266.62C339.086 266.62 337.773 266.987 336.733 267.72C335.693 268.44 334.919 269.447 334.413 270.74C333.906 272.033 333.646 273.52 333.633 275.2C333.659 277.787 334.259 279.867 335.433 281.44C336.606 283 338.353 283.78 340.673 283.78C342.139 283.78 343.386 283.447 344.413 282.78C345.453 282.1 346.239 281.113 346.773 279.82L349.733 280.7C348.933 282.62 347.759 284.087 346.213 285.1C344.666 286.1 342.819 286.6 340.673 286.6ZM361.615 286.6C359.508 286.6 357.682 286.133 356.135 285.2C354.602 284.267 353.408 282.953 352.555 281.26C351.702 279.567 351.275 277.58 351.275 275.3C351.275 272.94 351.695 270.9 352.535 269.18C353.375 267.46 354.555 266.133 356.075 265.2C357.608 264.267 359.415 263.8 361.495 263.8C363.628 263.8 365.448 264.293 366.955 265.28C368.462 266.253 369.602 267.653 370.375 269.48C371.148 271.307 371.502 273.487 371.435 276.02H368.435V274.98C368.382 272.18 367.775 270.067 366.615 268.64C365.468 267.213 363.788 266.5 361.575 266.5C359.255 266.5 357.475 267.253 356.235 268.76C355.008 270.267 354.395 272.413 354.395 275.2C354.395 277.92 355.008 280.033 356.235 281.54C357.475 283.033 359.228 283.78 361.495 283.78C363.042 283.78 364.388 283.427 365.535 282.72C366.695 282 367.608 280.967 368.275 279.62L371.015 280.68C370.162 282.56 368.902 284.02 367.235 285.06C365.582 286.087 363.708 286.6 361.615 286.6ZM353.355 276.02V273.56H369.855V276.02H353.355ZM375.473 286V256.6H378.413V286H375.473ZM392.749 286.6C390.643 286.6 388.816 286.133 387.269 285.2C385.736 284.267 384.543 282.953 383.689 281.26C382.836 279.567 382.409 277.58 382.409 275.3C382.409 272.94 382.829 270.9 383.669 269.18C384.509 267.46 385.689 266.133 387.209 265.2C388.743 264.267 390.549 263.8 392.629 263.8C394.763 263.8 396.583 264.293 398.089 265.28C399.596 266.253 400.736 267.653 401.509 269.48C402.283 271.307 402.636 273.487 402.569 276.02H399.569V274.98C399.516 272.18 398.909 270.067 397.749 268.64C396.603 267.213 394.923 266.5 392.709 266.5C390.389 266.5 388.609 267.253 387.369 268.76C386.143 270.267 385.529 272.413 385.529 275.2C385.529 277.92 386.143 280.033 387.369 281.54C388.609 283.033 390.363 283.78 392.629 283.78C394.176 283.78 395.523 283.427 396.669 282.72C397.829 282 398.743 280.967 399.409 279.62L402.149 280.68C401.296 282.56 400.036 284.02 398.369 285.06C396.716 286.087 394.843 286.6 392.749 286.6ZM384.489 276.02V273.56H400.989V276.02H384.489ZM415.908 286.6C413.921 286.6 412.241 286.1 410.868 285.1C409.494 284.087 408.454 282.72 407.748 281C407.041 279.267 406.688 277.327 406.688 275.18C406.688 272.993 407.041 271.047 407.748 269.34C408.468 267.62 409.521 266.267 410.908 265.28C412.294 264.293 414.001 263.8 416.028 263.8C418.001 263.8 419.694 264.3 421.108 265.3C422.521 266.3 423.601 267.66 424.348 269.38C425.108 271.1 425.488 273.033 425.488 275.18C425.488 277.34 425.108 279.28 424.348 281C423.588 282.72 422.494 284.087 421.068 285.1C419.641 286.1 417.921 286.6 415.908 286.6ZM406.188 286V257.2H409.148V269.74H408.828V286H406.188ZM415.608 283.86C417.114 283.86 418.368 283.48 419.368 282.72C420.368 281.96 421.114 280.927 421.608 279.62C422.114 278.3 422.368 276.82 422.368 275.18C422.368 273.553 422.121 272.087 421.628 270.78C421.134 269.473 420.381 268.44 419.368 267.68C418.368 266.92 417.094 266.54 415.548 266.54C414.041 266.54 412.788 266.907 411.788 267.64C410.801 268.373 410.061 269.393 409.568 270.7C409.074 271.993 408.828 273.487 408.828 275.18C408.828 276.847 409.074 278.34 409.568 279.66C410.061 280.967 410.808 281.993 411.808 282.74C412.808 283.487 414.074 283.86 415.608 283.86ZM429.08 286V264.4H431.72V269.6L431.2 268.92C431.44 268.28 431.753 267.693 432.14 267.16C432.526 266.613 432.946 266.167 433.4 265.82C433.96 265.327 434.613 264.953 435.36 264.7C436.106 264.433 436.86 264.28 437.62 264.24C438.38 264.187 439.073 264.24 439.7 264.4V267.16C438.913 266.96 438.053 266.913 437.12 267.02C436.186 267.127 435.326 267.5 434.54 268.14C433.82 268.7 433.28 269.373 432.92 270.16C432.56 270.933 432.32 271.76 432.2 272.64C432.08 273.507 432.02 274.367 432.02 275.22V286H429.08ZM443.094 260.3V257H446.034V260.3H443.094ZM443.094 286V264.4H446.034V286H443.094ZM462.99 286C461.776 286.253 460.576 286.353 459.39 286.3C458.216 286.247 457.163 285.993 456.23 285.54C455.31 285.087 454.61 284.38 454.13 283.42C453.743 282.62 453.53 281.813 453.49 281C453.463 280.173 453.45 279.233 453.45 278.18V258.4H456.37V278.06C456.37 278.967 456.376 279.727 456.39 280.34C456.416 280.94 456.556 281.473 456.81 281.94C457.29 282.833 458.05 283.367 459.09 283.54C460.143 283.713 461.443 283.673 462.99 283.42V286ZM448.83 266.92V264.4H462.99V266.92H448.83ZM466.845 260.3V257H469.785V260.3H466.845ZM466.845 286V264.4H469.785V286H466.845ZM484.121 286.6C482.015 286.6 480.188 286.133 478.641 285.2C477.108 284.267 475.915 282.953 475.061 281.26C474.208 279.567 473.781 277.58 473.781 275.3C473.781 272.94 474.201 270.9 475.041 269.18C475.881 267.46 477.061 266.133 478.581 265.2C480.115 264.267 481.921 263.8 484.001 263.8C486.135 263.8 487.955 264.293 489.461 265.28C490.968 266.253 492.108 267.653 492.881 269.48C493.655 271.307 494.008 273.487 493.941 276.02H490.941V274.98C490.888 272.18 490.281 270.067 489.121 268.64C487.975 267.213 486.295 266.5 484.081 266.5C481.761 266.5 479.981 267.253 478.741 268.76C477.515 270.267 476.901 272.413 476.901 275.2C476.901 277.92 477.515 280.033 478.741 281.54C479.981 283.033 481.735 283.78 484.001 283.78C485.548 283.78 486.895 283.427 488.041 282.72C489.201 282 490.115 280.967 490.781 279.62L493.521 280.68C492.668 282.56 491.408 284.02 489.741 285.06C488.088 286.087 486.215 286.6 484.121 286.6ZM475.861 276.02V273.56H492.361V276.02H475.861ZM505.64 286.58C503.106 286.58 501.02 286.033 499.38 284.94C497.753 283.847 496.753 282.327 496.38 280.38L499.38 279.88C499.7 281.107 500.426 282.087 501.56 282.82C502.706 283.54 504.12 283.9 505.8 283.9C507.44 283.9 508.733 283.56 509.68 282.88C510.626 282.187 511.1 281.247 511.1 280.06C511.1 279.393 510.946 278.853 510.64 278.44C510.346 278.013 509.74 277.62 508.82 277.26C507.9 276.9 506.526 276.473 504.7 275.98C502.74 275.447 501.206 274.913 500.1 274.38C498.993 273.847 498.206 273.233 497.74 272.54C497.273 271.833 497.04 270.973 497.04 269.96C497.04 268.733 497.386 267.66 498.08 266.74C498.773 265.807 499.733 265.087 500.96 264.58C502.186 264.06 503.613 263.8 505.24 263.8C506.866 263.8 508.32 264.067 509.6 264.6C510.893 265.12 511.933 265.853 512.72 266.8C513.506 267.747 513.973 268.847 514.12 270.1L511.12 270.64C510.92 269.373 510.286 268.373 509.22 267.64C508.166 266.893 506.826 266.507 505.2 266.48C503.666 266.44 502.42 266.733 501.46 267.36C500.5 267.973 500.02 268.793 500.02 269.82C500.02 270.393 500.193 270.887 500.54 271.3C500.886 271.7 501.513 272.08 502.42 272.44C503.34 272.8 504.646 273.193 506.34 273.62C508.326 274.127 509.886 274.66 511.02 275.22C512.153 275.78 512.96 276.44 513.44 277.2C513.92 277.96 514.16 278.9 514.16 280.02C514.16 282.06 513.4 283.667 511.88 284.84C510.373 286 508.293 286.58 505.64 286.58ZM534.703 286.6C532.716 286.6 531.036 286.1 529.663 285.1C528.29 284.087 527.25 282.72 526.543 281C525.836 279.267 525.483 277.327 525.483 275.18C525.483 272.993 525.836 271.047 526.543 269.34C527.263 267.62 528.316 266.267 529.703 265.28C531.09 264.293 532.796 263.8 534.823 263.8C536.796 263.8 538.49 264.3 539.903 265.3C541.316 266.3 542.396 267.66 543.143 269.38C543.903 271.1 544.283 273.033 544.283 275.18C544.283 277.34 543.903 279.28 543.143 281C542.383 282.72 541.29 284.087 539.863 285.1C538.436 286.1 536.716 286.6 534.703 286.6ZM524.983 286V257.2H527.943V269.74H527.623V286H524.983ZM534.403 283.86C535.91 283.86 537.163 283.48 538.163 282.72C539.163 281.96 539.91 280.927 540.403 279.62C540.91 278.3 541.163 276.82 541.163 275.18C541.163 273.553 540.916 272.087 540.423 270.78C539.93 269.473 539.176 268.44 538.163 267.68C537.163 266.92 535.89 266.54 534.343 266.54C532.836 266.54 531.583 266.907 530.583 267.64C529.596 268.373 528.856 269.393 528.363 270.7C527.87 271.993 527.623 273.487 527.623 275.18C527.623 276.847 527.87 278.34 528.363 279.66C528.856 280.967 529.603 281.993 530.603 282.74C531.603 283.487 532.87 283.86 534.403 283.86ZM549.9 295.6L554.08 284.26L554.14 287.62L544.68 264.4H547.8L555.56 283.82H554.28L561.44 264.4H564.44L552.84 295.6H549.9ZM580.502 286.6C578.875 286.6 577.509 286.307 576.402 285.72C575.309 285.133 574.489 284.353 573.942 283.38C573.395 282.407 573.122 281.347 573.122 280.2C573.122 279.027 573.355 278.027 573.822 277.2C574.302 276.36 574.949 275.673 575.762 275.14C576.589 274.607 577.542 274.2 578.622 273.92C579.715 273.653 580.922 273.42 582.242 273.22C583.575 273.007 584.875 272.827 586.142 272.68C587.422 272.52 588.542 272.367 589.502 272.22L588.462 272.86C588.502 270.727 588.089 269.147 587.222 268.12C586.355 267.093 584.849 266.58 582.702 266.58C581.222 266.58 579.969 266.913 578.942 267.58C577.929 268.247 577.215 269.3 576.802 270.74L573.942 269.9C574.435 267.967 575.429 266.467 576.922 265.4C578.415 264.333 580.355 263.8 582.742 263.8C584.715 263.8 586.389 264.173 587.762 264.92C589.149 265.653 590.129 266.72 590.702 268.12C590.969 268.747 591.142 269.447 591.222 270.22C591.302 270.993 591.342 271.78 591.342 272.58V286H588.722V280.58L589.482 280.9C588.749 282.753 587.609 284.167 586.062 285.14C584.515 286.113 582.662 286.6 580.502 286.6ZM580.842 284.06C582.215 284.06 583.415 283.813 584.442 283.32C585.469 282.827 586.295 282.153 586.922 281.3C587.549 280.433 587.955 279.46 588.142 278.38C588.302 277.687 588.389 276.927 588.402 276.1C588.415 275.26 588.422 274.633 588.422 274.22L589.542 274.8C588.542 274.933 587.455 275.067 586.282 275.2C585.122 275.333 583.975 275.487 582.842 275.66C581.722 275.833 580.709 276.04 579.802 276.28C579.189 276.453 578.595 276.7 578.022 277.02C577.449 277.327 576.975 277.74 576.602 278.26C576.242 278.78 576.062 279.427 576.062 280.2C576.062 280.827 576.215 281.433 576.522 282.02C576.842 282.607 577.349 283.093 578.042 283.48C578.749 283.867 579.682 284.06 580.842 284.06ZM604.708 286.6C602.535 286.6 600.695 286.113 599.188 285.14C597.682 284.167 596.535 282.827 595.748 281.12C594.975 279.4 594.575 277.427 594.548 275.2C594.575 272.933 594.988 270.947 595.788 269.24C596.588 267.52 597.742 266.187 599.248 265.24C600.755 264.28 602.582 263.8 604.728 263.8C606.915 263.8 608.815 264.333 610.428 265.4C612.055 266.467 613.168 267.927 613.768 269.78L610.888 270.7C610.382 269.407 609.575 268.407 608.468 267.7C607.375 266.98 606.122 266.62 604.708 266.62C603.122 266.62 601.808 266.987 600.768 267.72C599.728 268.44 598.955 269.447 598.448 270.74C597.942 272.033 597.682 273.52 597.668 275.2C597.695 277.787 598.295 279.867 599.468 281.44C600.642 283 602.388 283.78 604.708 283.78C606.175 283.78 607.422 283.447 608.448 282.78C609.488 282.1 610.275 281.113 610.808 279.82L613.768 280.7C612.968 282.62 611.795 284.087 610.248 285.1C608.702 286.1 606.855 286.6 604.708 286.6ZM625.471 286.6C623.298 286.6 621.458 286.113 619.951 285.14C618.444 284.167 617.298 282.827 616.511 281.12C615.738 279.4 615.338 277.427 615.311 275.2C615.338 272.933 615.751 270.947 616.551 269.24C617.351 267.52 618.504 266.187 620.011 265.24C621.518 264.28 623.344 263.8 625.491 263.8C627.678 263.8 629.578 264.333 631.191 265.4C632.818 266.467 633.931 267.927 634.531 269.78L631.651 270.7C631.144 269.407 630.338 268.407 629.231 267.7C628.138 266.98 626.884 266.62 625.471 266.62C623.884 266.62 622.571 266.987 621.531 267.72C620.491 268.44 619.718 269.447 619.211 270.74C618.704 272.033 618.444 273.52 618.431 275.2C618.458 277.787 619.058 279.867 620.231 281.44C621.404 283 623.151 283.78 625.471 283.78C626.938 283.78 628.184 283.447 629.211 282.78C630.251 282.1 631.038 281.113 631.571 279.82L634.531 280.7C633.731 282.62 632.558 284.087 631.011 285.1C629.464 286.1 627.618 286.6 625.471 286.6ZM637.673 260.3V257H640.613V260.3H637.673ZM637.673 286V264.4H640.613V286H637.673ZM654.189 286.6C652.176 286.6 650.456 286.1 649.029 285.1C647.603 284.087 646.509 282.72 645.749 281C644.989 279.28 644.609 277.34 644.609 275.18C644.609 273.033 644.983 271.1 645.729 269.38C646.489 267.66 647.576 266.3 648.989 265.3C650.403 264.3 652.096 263.8 654.069 263.8C656.096 263.8 657.803 264.293 659.189 265.28C660.576 266.267 661.623 267.62 662.329 269.34C663.049 271.047 663.409 272.993 663.409 275.18C663.409 277.327 663.056 279.267 662.349 281C661.643 282.72 660.603 284.087 659.229 285.1C657.856 286.1 656.176 286.6 654.189 286.6ZM654.489 283.86C656.023 283.86 657.289 283.487 658.289 282.74C659.289 281.993 660.036 280.967 660.529 279.66C661.023 278.34 661.269 276.847 661.269 275.18C661.269 273.487 661.023 271.993 660.529 270.7C660.036 269.393 659.289 268.373 658.289 267.64C657.303 266.907 656.056 266.54 654.549 266.54C653.003 266.54 651.723 266.92 650.709 267.68C649.696 268.44 648.943 269.473 648.449 270.78C647.969 272.087 647.729 273.553 647.729 275.18C647.729 276.82 647.976 278.3 648.469 279.62C648.976 280.927 649.729 281.96 650.729 282.72C651.729 283.48 652.983 283.86 654.489 283.86ZM661.269 286V269.74H660.949V257.2H663.909V286H661.269ZM677.86 286.6C675.754 286.6 673.927 286.133 672.38 285.2C670.847 284.267 669.654 282.953 668.8 281.26C667.947 279.567 667.52 277.58 667.52 275.3C667.52 272.94 667.94 270.9 668.78 269.18C669.62 267.46 670.8 266.133 672.32 265.2C673.854 264.267 675.66 263.8 677.74 263.8C679.874 263.8 681.694 264.293 683.2 265.28C684.707 266.253 685.847 267.653 686.62 269.48C687.394 271.307 687.747 273.487 687.68 276.02H684.68V274.98C684.627 272.18 684.02 270.067 682.86 268.64C681.714 267.213 680.034 266.5 677.82 266.5C675.5 266.5 673.72 267.253 672.48 268.76C671.254 270.267 670.64 272.413 670.64 275.2C670.64 277.92 671.254 280.033 672.48 281.54C673.72 283.033 675.474 283.78 677.74 283.78C679.287 283.78 680.634 283.427 681.78 282.72C682.94 282 683.854 280.967 684.52 279.62L687.26 280.68C686.407 282.56 685.147 284.02 683.48 285.06C681.827 286.087 679.954 286.6 677.86 286.6ZM669.6 276.02V273.56H686.1V276.02H669.6ZM706.333 286V274.98C706.333 273.78 706.219 272.68 705.993 271.68C705.766 270.667 705.399 269.787 704.893 269.04C704.399 268.28 703.753 267.693 702.953 267.28C702.166 266.867 701.206 266.66 700.073 266.66C699.033 266.66 698.113 266.84 697.313 267.2C696.526 267.56 695.859 268.08 695.313 268.76C694.779 269.427 694.373 270.24 694.093 271.2C693.813 272.16 693.673 273.253 693.673 274.48L691.593 274.02C691.593 271.807 691.979 269.947 692.753 268.44C693.526 266.933 694.593 265.793 695.953 265.02C697.313 264.247 698.873 263.86 700.633 263.86C701.926 263.86 703.053 264.06 704.013 264.46C704.986 264.86 705.806 265.4 706.473 266.08C707.153 266.76 707.699 267.54 708.113 268.42C708.526 269.287 708.826 270.213 709.013 271.2C709.199 272.173 709.293 273.147 709.293 274.12V286H706.333ZM690.713 286V264.4H693.373V269.72H693.673V286H690.713ZM725.443 286C724.229 286.253 723.029 286.353 721.843 286.3C720.669 286.247 719.616 285.993 718.683 285.54C717.763 285.087 717.063 284.38 716.583 283.42C716.196 282.62 715.983 281.813 715.943 281C715.916 280.173 715.903 279.233 715.903 278.18V258.4H718.823V278.06C718.823 278.967 718.829 279.727 718.843 280.34C718.869 280.94 719.009 281.473 719.263 281.94C719.743 282.833 720.503 283.367 721.543 283.54C722.596 283.713 723.896 283.673 725.443 283.42V286ZM711.283 266.92V264.4H725.443V266.92H711.283Z" fill="white"></path><defs><linearGradient id="paint0_linear_3968_1078" x1="25" y1="-38" x2="908.5" y2="566" gradientUnits="userSpaceOnUse"><stop stop-color="#321193"></stop><stop offset="1" stop-color="#E54D95"></stop></linearGradient></defs></svg> 