<?xml version="1.0" encoding="UTF-8"?> <svg xmlns="http://www.w3.org/2000/svg" width="900" height="540" viewBox="0 0 900 540" fill="none"><rect width="900" height="540" rx="30" fill="url(#paint0_linear_3968_1080)"></rect><path d="M94.828 258V232.02H84.768V229.2H107.828V232.02H97.768V258H94.828ZM113.603 258.6C111.976 258.6 110.609 258.307 109.503 257.72C108.409 257.133 107.589 256.353 107.043 255.38C106.496 254.407 106.223 253.347 106.223 252.2C106.223 251.027 106.456 250.027 106.923 249.2C107.403 248.36 108.049 247.673 108.863 247.14C109.689 246.607 110.643 246.2 111.723 245.92C112.816 245.653 114.023 245.42 115.343 245.22C116.676 245.007 117.976 244.827 119.243 244.68C120.523 244.52 121.643 244.367 122.603 244.22L121.563 244.86C121.603 242.727 121.189 241.147 120.323 240.12C119.456 239.093 117.949 238.58 115.803 238.58C114.323 238.58 113.069 238.913 112.043 239.58C111.029 240.247 110.316 241.3 109.903 242.74L107.043 241.9C107.536 239.967 108.529 238.467 110.023 237.4C111.516 236.333 113.456 235.8 115.843 235.8C117.816 235.8 119.489 236.173 120.863 236.92C122.249 237.653 123.229 238.72 123.803 240.12C124.069 240.747 124.243 241.447 124.323 242.22C124.403 242.993 124.443 243.78 124.443 244.58V258H121.823V252.58L122.583 252.9C121.849 254.753 120.709 256.167 119.163 257.14C117.616 258.113 115.763 258.6 113.603 258.6ZM113.943 256.06C115.316 256.06 116.516 255.813 117.543 255.32C118.569 254.827 119.396 254.153 120.023 253.3C120.649 252.433 121.056 251.46 121.243 250.38C121.403 249.687 121.489 248.927 121.503 248.1C121.516 247.26 121.523 246.633 121.523 246.22L122.643 246.8C121.643 246.933 120.556 247.067 119.383 247.2C118.223 247.333 117.076 247.487 115.943 247.66C114.823 247.833 113.809 248.04 112.903 248.28C112.289 248.453 111.696 248.7 111.123 249.02C110.549 249.327 110.076 249.74 109.703 250.26C109.343 250.78 109.163 251.427 109.163 252.2C109.163 252.827 109.316 253.433 109.623 254.02C109.943 254.607 110.449 255.093 111.143 255.48C111.849 255.867 112.783 256.06 113.943 256.06ZM129.249 258V228.6H132.189V258H129.249ZM137.365 258L137.385 229.2H140.345V246.8L149.985 236.4H153.905L143.785 247.2L155.225 258H150.945L140.345 247.6V258H137.365ZM156.829 232.3V229H159.769V232.3H156.829ZM156.829 258V236.4H159.769V258H156.829ZM180.565 258V246.98C180.565 245.78 180.452 244.68 180.225 243.68C179.998 242.667 179.632 241.787 179.125 241.04C178.632 240.28 177.985 239.693 177.185 239.28C176.398 238.867 175.438 238.66 174.305 238.66C173.265 238.66 172.345 238.84 171.545 239.2C170.758 239.56 170.092 240.08 169.545 240.76C169.012 241.427 168.605 242.24 168.325 243.2C168.045 244.16 167.905 245.253 167.905 246.48L165.825 246.02C165.825 243.807 166.212 241.947 166.985 240.44C167.758 238.933 168.825 237.793 170.185 237.02C171.545 236.247 173.105 235.86 174.865 235.86C176.158 235.86 177.285 236.06 178.245 236.46C179.218 236.86 180.038 237.4 180.705 238.08C181.385 238.76 181.932 239.54 182.345 240.42C182.758 241.287 183.058 242.213 183.245 243.2C183.432 244.173 183.525 245.147 183.525 246.12V258H180.565ZM164.945 258V236.4H167.605V241.72H167.905V258H164.945ZM196.495 268.2C195.388 268.2 194.295 268.033 193.215 267.7C192.148 267.38 191.162 266.867 190.255 266.16C189.348 265.467 188.588 264.56 187.975 263.44L190.635 261.96C191.235 263.16 192.075 264.02 193.155 264.54C194.248 265.073 195.362 265.34 196.495 265.34C198.055 265.34 199.315 265.047 200.275 264.46C201.248 263.887 201.955 263.033 202.395 261.9C202.835 260.767 203.048 259.353 203.035 257.66V251.9H203.375V236.4H205.995V257.7C205.995 258.313 205.975 258.9 205.935 259.46C205.908 260.033 205.848 260.593 205.755 261.14C205.502 262.753 204.975 264.08 204.175 265.12C203.388 266.16 202.348 266.933 201.055 267.44C199.775 267.947 198.255 268.2 196.495 268.2ZM196.295 258.6C194.282 258.6 192.562 258.1 191.135 257.1C189.708 256.087 188.615 254.72 187.855 253C187.095 251.28 186.715 249.34 186.715 247.18C186.715 245.033 187.088 243.1 187.835 241.38C188.595 239.66 189.682 238.3 191.095 237.3C192.508 236.3 194.202 235.8 196.175 235.8C198.202 235.8 199.908 236.293 201.295 237.28C202.682 238.267 203.728 239.62 204.435 241.34C205.155 243.047 205.515 244.993 205.515 247.18C205.515 249.327 205.162 251.267 204.455 253C203.748 254.72 202.708 256.087 201.335 257.1C199.962 258.1 198.282 258.6 196.295 258.6ZM196.595 255.86C198.128 255.86 199.395 255.487 200.395 254.74C201.395 253.993 202.142 252.967 202.635 251.66C203.128 250.34 203.375 248.847 203.375 247.18C203.375 245.487 203.128 243.993 202.635 242.7C202.142 241.393 201.395 240.373 200.395 239.64C199.408 238.907 198.162 238.54 196.655 238.54C195.108 238.54 193.828 238.92 192.815 239.68C191.802 240.44 191.048 241.473 190.555 242.78C190.075 244.087 189.835 245.553 189.835 247.18C189.835 248.82 190.082 250.3 190.575 251.62C191.082 252.927 191.835 253.96 192.835 254.72C193.835 255.48 195.088 255.86 196.595 255.86ZM229.755 258C228.541 258.253 227.341 258.353 226.155 258.3C224.981 258.247 223.928 257.993 222.995 257.54C222.075 257.087 221.375 256.38 220.895 255.42C220.508 254.62 220.295 253.813 220.255 253C220.228 252.173 220.215 251.233 220.215 250.18V230.4H223.135V250.06C223.135 250.967 223.141 251.727 223.155 252.34C223.181 252.94 223.321 253.473 223.575 253.94C224.055 254.833 224.815 255.367 225.855 255.54C226.908 255.713 228.208 255.673 229.755 255.42V258ZM215.595 238.92V236.4H229.755V238.92H215.595ZM241.449 258.6C239.302 258.6 237.469 258.113 235.949 257.14C234.429 256.167 233.262 254.82 232.449 253.1C231.636 251.38 231.229 249.407 231.229 247.18C231.229 244.913 231.642 242.927 232.469 241.22C233.296 239.513 234.469 238.187 235.989 237.24C237.522 236.28 239.342 235.8 241.449 235.8C243.609 235.8 245.449 236.287 246.969 237.26C248.502 238.22 249.669 239.56 250.469 241.28C251.282 242.987 251.689 244.953 251.689 247.18C251.689 249.447 251.282 251.44 250.469 253.16C249.656 254.867 248.482 256.2 246.949 257.16C245.416 258.12 243.582 258.6 241.449 258.6ZM241.449 255.78C243.849 255.78 245.636 254.987 246.809 253.4C247.982 251.8 248.569 249.727 248.569 247.18C248.569 244.567 247.976 242.487 246.789 240.94C245.616 239.393 243.836 238.62 241.449 238.62C239.836 238.62 238.502 238.987 237.449 239.72C236.409 240.44 235.629 241.447 235.109 242.74C234.602 244.02 234.349 245.5 234.349 247.18C234.349 249.78 234.949 251.867 236.149 253.44C237.349 255 239.116 255.78 241.449 255.78ZM271.529 258.6C269.382 258.6 267.549 258.113 266.029 257.14C264.509 256.167 263.342 254.82 262.529 253.1C261.715 251.38 261.309 249.407 261.309 247.18C261.309 244.913 261.722 242.927 262.549 241.22C263.375 239.513 264.549 238.187 266.069 237.24C267.602 236.28 269.422 235.8 271.529 235.8C273.689 235.8 275.529 236.287 277.049 237.26C278.582 238.22 279.749 239.56 280.549 241.28C281.362 242.987 281.769 244.953 281.769 247.18C281.769 249.447 281.362 251.44 280.549 253.16C279.735 254.867 278.562 256.2 277.029 257.16C275.495 258.12 273.662 258.6 271.529 258.6ZM271.529 255.78C273.929 255.78 275.715 254.987 276.889 253.4C278.062 251.8 278.649 249.727 278.649 247.18C278.649 244.567 278.055 242.487 276.869 240.94C275.695 239.393 273.915 238.62 271.529 238.62C269.915 238.62 268.582 238.987 267.529 239.72C266.489 240.44 265.709 241.447 265.189 242.74C264.682 244.02 264.429 245.5 264.429 247.18C264.429 249.78 265.029 251.867 266.229 253.44C267.429 255 269.195 255.78 271.529 255.78ZM295.08 258.6C293.094 258.6 291.414 258.1 290.04 257.1C288.667 256.087 287.627 254.72 286.92 253C286.214 251.267 285.86 249.327 285.86 247.18C285.86 244.993 286.214 243.047 286.92 241.34C287.64 239.62 288.694 238.267 290.08 237.28C291.467 236.293 293.174 235.8 295.2 235.8C297.174 235.8 298.867 236.3 300.28 237.3C301.694 238.3 302.774 239.66 303.52 241.38C304.28 243.1 304.66 245.033 304.66 247.18C304.66 249.34 304.28 251.28 303.52 253C302.76 254.72 301.667 256.087 300.24 257.1C298.814 258.1 297.094 258.6 295.08 258.6ZM285.36 258V229.2H288.32V241.74H288V258H285.36ZM294.78 255.86C296.287 255.86 297.54 255.48 298.54 254.72C299.54 253.96 300.287 252.927 300.78 251.62C301.287 250.3 301.54 248.82 301.54 247.18C301.54 245.553 301.294 244.087 300.8 242.78C300.307 241.473 299.554 240.44 298.54 239.68C297.54 238.92 296.267 238.54 294.72 238.54C293.214 238.54 291.96 238.907 290.96 239.64C289.974 240.373 289.234 241.393 288.74 242.7C288.247 243.993 288 245.487 288 247.18C288 248.847 288.247 250.34 288.74 251.66C289.234 252.967 289.98 253.993 290.98 254.74C291.98 255.487 293.247 255.86 294.78 255.86ZM305.052 267.6V264.76H306.272C307.246 264.76 308.019 264.507 308.592 264C309.179 263.507 309.472 262.673 309.472 261.5V236.4H312.392V262.24C312.392 264.04 311.959 265.38 311.092 266.26C310.239 267.153 308.926 267.6 307.152 267.6H305.052ZM309.472 232.3V229H312.392V232.3H309.472ZM326.631 258.6C324.525 258.6 322.698 258.133 321.151 257.2C319.618 256.267 318.425 254.953 317.571 253.26C316.718 251.567 316.291 249.58 316.291 247.3C316.291 244.94 316.711 242.9 317.551 241.18C318.391 239.46 319.571 238.133 321.091 237.2C322.625 236.267 324.431 235.8 326.511 235.8C328.645 235.8 330.465 236.293 331.971 237.28C333.478 238.253 334.618 239.653 335.391 241.48C336.165 243.307 336.518 245.487 336.451 248.02H333.451V246.98C333.398 244.18 332.791 242.067 331.631 240.64C330.485 239.213 328.805 238.5 326.591 238.5C324.271 238.5 322.491 239.253 321.251 240.76C320.025 242.267 319.411 244.413 319.411 247.2C319.411 249.92 320.025 252.033 321.251 253.54C322.491 255.033 324.245 255.78 326.511 255.78C328.058 255.78 329.405 255.427 330.551 254.72C331.711 254 332.625 252.967 333.291 251.62L336.031 252.68C335.178 254.56 333.918 256.02 332.251 257.06C330.598 258.087 328.725 258.6 326.631 258.6ZM318.371 248.02V245.56H334.871V248.02H318.371ZM349.05 258.6C346.877 258.6 345.037 258.113 343.53 257.14C342.023 256.167 340.877 254.827 340.09 253.12C339.317 251.4 338.917 249.427 338.89 247.2C338.917 244.933 339.33 242.947 340.13 241.24C340.93 239.52 342.083 238.187 343.59 237.24C345.097 236.28 346.923 235.8 349.07 235.8C351.257 235.8 353.157 236.333 354.77 237.4C356.397 238.467 357.51 239.927 358.11 241.78L355.23 242.7C354.723 241.407 353.917 240.407 352.81 239.7C351.717 238.98 350.463 238.62 349.05 238.62C347.463 238.62 346.15 238.987 345.11 239.72C344.07 240.44 343.297 241.447 342.79 242.74C342.283 244.033 342.023 245.52 342.01 247.2C342.037 249.787 342.637 251.867 343.81 253.44C344.983 255 346.73 255.78 349.05 255.78C350.517 255.78 351.763 255.447 352.79 254.78C353.83 254.1 354.617 253.113 355.15 251.82L358.11 252.7C357.31 254.62 356.137 256.087 354.59 257.1C353.043 258.1 351.197 258.6 349.05 258.6ZM373.198 258C371.985 258.253 370.785 258.353 369.598 258.3C368.425 258.247 367.372 257.993 366.438 257.54C365.518 257.087 364.818 256.38 364.338 255.42C363.952 254.62 363.738 253.813 363.698 253C363.672 252.173 363.658 251.233 363.658 250.18V230.4H366.578V250.06C366.578 250.967 366.585 251.727 366.598 252.34C366.625 252.94 366.765 253.473 367.018 253.94C367.498 254.833 368.258 255.367 369.298 255.54C370.352 255.713 371.652 255.673 373.198 255.42V258ZM359.038 238.92V236.4H373.198V238.92H359.038ZM384.714 258.58C382.181 258.58 380.094 258.033 378.454 256.94C376.827 255.847 375.827 254.327 375.454 252.38L378.454 251.88C378.774 253.107 379.501 254.087 380.634 254.82C381.781 255.54 383.194 255.9 384.874 255.9C386.514 255.9 387.807 255.56 388.754 254.88C389.701 254.187 390.174 253.247 390.174 252.06C390.174 251.393 390.021 250.853 389.714 250.44C389.421 250.013 388.814 249.62 387.894 249.26C386.974 248.9 385.601 248.473 383.774 247.98C381.814 247.447 380.281 246.913 379.174 246.38C378.067 245.847 377.281 245.233 376.814 244.54C376.347 243.833 376.114 242.973 376.114 241.96C376.114 240.733 376.461 239.66 377.154 238.74C377.847 237.807 378.807 237.087 380.034 236.58C381.261 236.06 382.687 235.8 384.314 235.8C385.941 235.8 387.394 236.067 388.674 236.6C389.967 237.12 391.007 237.853 391.794 238.8C392.581 239.747 393.047 240.847 393.194 242.1L390.194 242.64C389.994 241.373 389.361 240.373 388.294 239.64C387.241 238.893 385.901 238.507 384.274 238.48C382.741 238.44 381.494 238.733 380.534 239.36C379.574 239.973 379.094 240.793 379.094 241.82C379.094 242.393 379.267 242.887 379.614 243.3C379.961 243.7 380.587 244.08 381.494 244.44C382.414 244.8 383.721 245.193 385.414 245.62C387.401 246.127 388.961 246.66 390.094 247.22C391.227 247.78 392.034 248.44 392.514 249.2C392.994 249.96 393.234 250.9 393.234 252.02C393.234 254.06 392.474 255.667 390.954 256.84C389.447 258 387.367 258.58 384.714 258.58ZM414.417 265.18C412.844 263.38 411.491 261.367 410.357 259.14C409.237 256.927 408.371 254.6 407.757 252.16C407.157 249.72 406.864 247.267 406.877 244.8C406.864 242.333 407.157 239.88 407.757 237.44C408.371 234.987 409.237 232.653 410.357 230.44C411.491 228.227 412.844 226.22 414.417 224.42L416.577 226.1C415.031 227.953 413.737 229.9 412.697 231.94C411.657 233.967 410.877 236.06 410.357 238.22C409.851 240.38 409.591 242.573 409.577 244.8C409.591 247 409.857 249.193 410.377 251.38C410.911 253.553 411.691 255.667 412.717 257.72C413.757 259.76 415.044 261.673 416.577 263.46L414.417 265.18ZM427.847 258.6C425.74 258.6 423.914 258.133 422.367 257.2C420.834 256.267 419.64 254.953 418.787 253.26C417.934 251.567 417.507 249.58 417.507 247.3C417.507 244.94 417.927 242.9 418.767 241.18C419.607 239.46 420.787 238.133 422.307 237.2C423.84 236.267 425.647 235.8 427.727 235.8C429.86 235.8 431.68 236.293 433.187 237.28C434.694 238.253 435.834 239.653 436.607 241.48C437.38 243.307 437.734 245.487 437.667 248.02H434.667V246.98C434.614 244.18 434.007 242.067 432.847 240.64C431.7 239.213 430.02 238.5 427.807 238.5C425.487 238.5 423.707 239.253 422.467 240.76C421.24 242.267 420.627 244.413 420.627 247.2C420.627 249.92 421.24 252.033 422.467 253.54C423.707 255.033 425.46 255.78 427.727 255.78C429.274 255.78 430.62 255.427 431.767 254.72C432.927 254 433.84 252.967 434.507 251.62L437.247 252.68C436.394 254.56 435.134 256.02 433.467 257.06C431.814 258.087 429.94 258.6 427.847 258.6ZM419.587 248.02V245.56H436.087V248.02H419.587ZM441.084 258V254.58H444.504V258H441.084ZM458.46 268.2C457.354 268.2 456.26 268.033 455.18 267.7C454.114 267.38 453.127 266.867 452.22 266.16C451.314 265.467 450.554 264.56 449.94 263.44L452.6 261.96C453.2 263.16 454.04 264.02 455.12 264.54C456.214 265.073 457.327 265.34 458.46 265.34C460.02 265.34 461.28 265.047 462.24 264.46C463.214 263.887 463.92 263.033 464.36 261.9C464.8 260.767 465.014 259.353 465 257.66V251.9H465.34V236.4H467.96V257.7C467.96 258.313 467.94 258.9 467.9 259.46C467.874 260.033 467.814 260.593 467.72 261.14C467.467 262.753 466.94 264.08 466.14 265.12C465.354 266.16 464.314 266.933 463.02 267.44C461.74 267.947 460.22 268.2 458.46 268.2ZM458.26 258.6C456.247 258.6 454.527 258.1 453.1 257.1C451.674 256.087 450.58 254.72 449.82 253C449.06 251.28 448.68 249.34 448.68 247.18C448.68 245.033 449.054 243.1 449.8 241.38C450.56 239.66 451.647 238.3 453.06 237.3C454.474 236.3 456.167 235.8 458.14 235.8C460.167 235.8 461.874 236.293 463.26 237.28C464.647 238.267 465.694 239.62 466.4 241.34C467.12 243.047 467.48 244.993 467.48 247.18C467.48 249.327 467.127 251.267 466.42 253C465.714 254.72 464.674 256.087 463.3 257.1C461.927 258.1 460.247 258.6 458.26 258.6ZM458.56 255.86C460.094 255.86 461.36 255.487 462.36 254.74C463.36 253.993 464.107 252.967 464.6 251.66C465.094 250.34 465.34 248.847 465.34 247.18C465.34 245.487 465.094 243.993 464.6 242.7C464.107 241.393 463.36 240.373 462.36 239.64C461.374 238.907 460.127 238.54 458.62 238.54C457.074 238.54 455.794 238.92 454.78 239.68C453.767 240.44 453.014 241.473 452.52 242.78C452.04 244.087 451.8 245.553 451.8 247.18C451.8 248.82 452.047 250.3 452.54 251.62C453.047 252.927 453.8 253.96 454.8 254.72C455.8 255.48 457.054 255.86 458.56 255.86ZM473.312 258V254.58H476.732V258H473.312ZM481.709 262.18L481.889 260.72C482.422 260.76 482.809 260.653 483.049 260.4C483.289 260.147 483.435 259.807 483.489 259.38C483.542 258.953 483.555 258.493 483.529 258H481.709V253.78H485.129V258.8C485.129 260.027 484.815 260.947 484.189 261.56C483.575 262.173 482.749 262.38 481.709 262.18ZM505.321 258.6C503.695 258.6 502.328 258.307 501.221 257.72C500.128 257.133 499.308 256.353 498.761 255.38C498.215 254.407 497.941 253.347 497.941 252.2C497.941 251.027 498.175 250.027 498.641 249.2C499.121 248.36 499.768 247.673 500.581 247.14C501.408 246.607 502.361 246.2 503.441 245.92C504.535 245.653 505.741 245.42 507.061 245.22C508.395 245.007 509.695 244.827 510.961 244.68C512.241 244.52 513.361 244.367 514.321 244.22L513.281 244.86C513.321 242.727 512.908 241.147 512.041 240.12C511.175 239.093 509.668 238.58 507.521 238.58C506.041 238.58 504.788 238.913 503.761 239.58C502.748 240.247 502.035 241.3 501.621 242.74L498.761 241.9C499.255 239.967 500.248 238.467 501.741 237.4C503.235 236.333 505.175 235.8 507.561 235.8C509.535 235.8 511.208 236.173 512.581 236.92C513.968 237.653 514.948 238.72 515.521 240.12C515.788 240.747 515.961 241.447 516.041 242.22C516.121 242.993 516.161 243.78 516.161 244.58V258H513.541V252.58L514.301 252.9C513.568 254.753 512.428 256.167 510.881 257.14C509.335 258.113 507.481 258.6 505.321 258.6ZM505.661 256.06C507.035 256.06 508.235 255.813 509.261 255.32C510.288 254.827 511.115 254.153 511.741 253.3C512.368 252.433 512.775 251.46 512.961 250.38C513.121 249.687 513.208 248.927 513.221 248.1C513.235 247.26 513.241 246.633 513.241 246.22L514.361 246.8C513.361 246.933 512.275 247.067 511.101 247.2C509.941 247.333 508.795 247.487 507.661 247.66C506.541 247.833 505.528 248.04 504.621 248.28C504.008 248.453 503.415 248.7 502.841 249.02C502.268 249.327 501.795 249.74 501.421 250.26C501.061 250.78 500.881 251.427 500.881 252.2C500.881 252.827 501.035 253.433 501.341 254.02C501.661 254.607 502.168 255.093 502.861 255.48C503.568 255.867 504.501 256.06 505.661 256.06ZM528.628 258.58C526.095 258.58 524.008 258.033 522.368 256.94C520.741 255.847 519.741 254.327 519.368 252.38L522.368 251.88C522.688 253.107 523.415 254.087 524.548 254.82C525.695 255.54 527.108 255.9 528.788 255.9C530.428 255.9 531.721 255.56 532.668 254.88C533.615 254.187 534.088 253.247 534.088 252.06C534.088 251.393 533.935 250.853 533.628 250.44C533.335 250.013 532.728 249.62 531.808 249.26C530.888 248.9 529.515 248.473 527.688 247.98C525.728 247.447 524.195 246.913 523.088 246.38C521.981 245.847 521.195 245.233 520.728 244.54C520.261 243.833 520.028 242.973 520.028 241.96C520.028 240.733 520.375 239.66 521.068 238.74C521.761 237.807 522.721 237.087 523.948 236.58C525.175 236.06 526.601 235.8 528.228 235.8C529.855 235.8 531.308 236.067 532.588 236.6C533.881 237.12 534.921 237.853 535.708 238.8C536.495 239.747 536.961 240.847 537.108 242.1L534.108 242.64C533.908 241.373 533.275 240.373 532.208 239.64C531.155 238.893 529.815 238.507 528.188 238.48C526.655 238.44 525.408 238.733 524.448 239.36C523.488 239.973 523.008 240.793 523.008 241.82C523.008 242.393 523.181 242.887 523.528 243.3C523.875 243.7 524.501 244.08 525.408 244.44C526.328 244.8 527.635 245.193 529.328 245.62C531.315 246.127 532.875 246.66 534.008 247.22C535.141 247.78 535.948 248.44 536.428 249.2C536.908 249.96 537.148 250.9 537.148 252.02C537.148 254.06 536.388 255.667 534.868 256.84C533.361 258 531.281 258.58 528.628 258.58ZM540.764 258L540.784 229.2H543.744V246.8L553.384 236.4H557.304L547.184 247.2L558.624 258H554.344L543.744 247.6V258H540.764ZM560.227 232.3V229H563.167V232.3H560.227ZM560.227 258V236.4H563.167V258H560.227ZM583.963 258V246.98C583.963 245.78 583.85 244.68 583.623 243.68C583.397 242.667 583.03 241.787 582.523 241.04C582.03 240.28 581.383 239.693 580.583 239.28C579.797 238.867 578.837 238.66 577.703 238.66C576.663 238.66 575.743 238.84 574.943 239.2C574.157 239.56 573.49 240.08 572.943 240.76C572.41 241.427 572.003 242.24 571.723 243.2C571.443 244.16 571.303 245.253 571.303 246.48L569.223 246.02C569.223 243.807 569.61 241.947 570.383 240.44C571.157 238.933 572.223 237.793 573.583 237.02C574.943 236.247 576.503 235.86 578.263 235.86C579.557 235.86 580.683 236.06 581.643 236.46C582.617 236.86 583.437 237.4 584.103 238.08C584.783 238.76 585.33 239.54 585.743 240.42C586.157 241.287 586.457 242.213 586.643 243.2C586.83 244.173 586.923 245.147 586.923 246.12V258H583.963ZM568.343 258V236.4H571.003V241.72H571.303V258H568.343ZM599.893 268.2C598.787 268.2 597.693 268.033 596.613 267.7C595.547 267.38 594.56 266.867 593.653 266.16C592.747 265.467 591.987 264.56 591.373 263.44L594.033 261.96C594.633 263.16 595.473 264.02 596.553 264.54C597.647 265.073 598.76 265.34 599.893 265.34C601.453 265.34 602.713 265.047 603.673 264.46C604.647 263.887 605.353 263.033 605.793 261.9C606.233 260.767 606.447 259.353 606.433 257.66V251.9H606.773V236.4H609.393V257.7C609.393 258.313 609.373 258.9 609.333 259.46C609.307 260.033 609.247 260.593 609.153 261.14C608.9 262.753 608.373 264.08 607.573 265.12C606.787 266.16 605.747 266.933 604.453 267.44C603.173 267.947 601.653 268.2 599.893 268.2ZM599.693 258.6C597.68 258.6 595.96 258.1 594.533 257.1C593.107 256.087 592.013 254.72 591.253 253C590.493 251.28 590.113 249.34 590.113 247.18C590.113 245.033 590.487 243.1 591.233 241.38C591.993 239.66 593.08 238.3 594.493 237.3C595.907 236.3 597.6 235.8 599.573 235.8C601.6 235.8 603.307 236.293 604.693 237.28C606.08 238.267 607.127 239.62 607.833 241.34C608.553 243.047 608.913 244.993 608.913 247.18C608.913 249.327 608.56 251.267 607.853 253C607.147 254.72 606.107 256.087 604.733 257.1C603.36 258.1 601.68 258.6 599.693 258.6ZM599.993 255.86C601.527 255.86 602.793 255.487 603.793 254.74C604.793 253.993 605.54 252.967 606.033 251.66C606.527 250.34 606.773 248.847 606.773 247.18C606.773 245.487 606.527 243.993 606.033 242.7C605.54 241.393 604.793 240.373 603.793 239.64C602.807 238.907 601.56 238.54 600.053 238.54C598.507 238.54 597.227 238.92 596.213 239.68C595.2 240.44 594.447 241.473 593.953 242.78C593.473 244.087 593.233 245.553 593.233 247.18C593.233 248.82 593.48 250.3 593.973 251.62C594.48 252.927 595.233 253.96 596.233 254.72C597.233 255.48 598.487 255.86 599.993 255.86ZM624.473 267.6L628.653 256.26L628.713 259.62L619.253 236.4H622.373L630.133 255.82H628.853L636.013 236.4H639.013L627.413 267.6H624.473ZM649.925 258.6C647.779 258.6 645.945 258.113 644.425 257.14C642.905 256.167 641.739 254.82 640.925 253.1C640.112 251.38 639.705 249.407 639.705 247.18C639.705 244.913 640.119 242.927 640.945 241.22C641.772 239.513 642.945 238.187 644.465 237.24C645.999 236.28 647.819 235.8 649.925 235.8C652.085 235.8 653.925 236.287 655.445 237.26C656.979 238.22 658.145 239.56 658.945 241.28C659.759 242.987 660.165 244.953 660.165 247.18C660.165 249.447 659.759 251.44 658.945 253.16C658.132 254.867 656.959 256.2 655.425 257.16C653.892 258.12 652.059 258.6 649.925 258.6ZM649.925 255.78C652.325 255.78 654.112 254.987 655.285 253.4C656.459 251.8 657.045 249.727 657.045 247.18C657.045 244.567 656.452 242.487 655.265 240.94C654.092 239.393 652.312 238.62 649.925 238.62C648.312 238.62 646.979 238.987 645.925 239.72C644.885 240.44 644.105 241.447 643.585 242.74C643.079 244.02 642.825 245.5 642.825 247.18C642.825 249.78 643.425 251.867 644.625 253.44C645.825 255 647.592 255.78 649.925 255.78ZM672.037 258.54C670.744 258.54 669.611 258.34 668.637 257.94C667.677 257.54 666.857 257 666.177 256.32C665.511 255.64 664.971 254.867 664.557 254C664.144 253.12 663.844 252.193 663.657 251.22C663.471 250.233 663.377 249.253 663.377 248.28V236.4H666.337V247.42C666.337 248.607 666.451 249.707 666.677 250.72C666.904 251.733 667.264 252.62 667.757 253.38C668.264 254.127 668.911 254.707 669.697 255.12C670.497 255.533 671.464 255.74 672.597 255.74C673.637 255.74 674.551 255.56 675.337 255.2C676.137 254.84 676.804 254.327 677.337 253.66C677.884 252.98 678.297 252.16 678.577 251.2C678.857 250.227 678.997 249.133 678.997 247.92L681.077 248.38C681.077 250.593 680.691 252.453 679.917 253.96C679.144 255.467 678.077 256.607 676.717 257.38C675.357 258.153 673.797 258.54 672.037 258.54ZM679.297 258V252.68H678.997V236.4H681.937V258H679.297ZM686.727 258V236.4H689.367V241.6L688.847 240.92C689.087 240.28 689.401 239.693 689.787 239.16C690.174 238.613 690.594 238.167 691.047 237.82C691.607 237.327 692.261 236.953 693.007 236.7C693.754 236.433 694.507 236.28 695.267 236.24C696.027 236.187 696.721 236.24 697.347 236.4V239.16C696.561 238.96 695.701 238.913 694.767 239.02C693.834 239.127 692.974 239.5 692.187 240.14C691.467 240.7 690.927 241.373 690.567 242.16C690.207 242.933 689.967 243.76 689.847 244.64C689.727 245.507 689.667 246.367 689.667 247.22V258H686.727ZM716.509 258.6C714.336 258.6 712.496 258.113 710.989 257.14C709.483 256.167 708.336 254.827 707.549 253.12C706.776 251.4 706.376 249.427 706.349 247.2C706.376 244.933 706.789 242.947 707.589 241.24C708.389 239.52 709.543 238.187 711.049 237.24C712.556 236.28 714.383 235.8 716.529 235.8C718.716 235.8 720.616 236.333 722.229 237.4C723.856 238.467 724.969 239.927 725.569 241.78L722.689 242.7C722.183 241.407 721.376 240.407 720.269 239.7C719.176 238.98 717.923 238.62 716.509 238.62C714.923 238.62 713.609 238.987 712.569 239.72C711.529 240.44 710.756 241.447 710.249 242.74C709.743 244.033 709.483 245.52 709.469 247.2C709.496 249.787 710.096 251.867 711.269 253.44C712.443 255 714.189 255.78 716.509 255.78C717.976 255.78 719.223 255.447 720.249 254.78C721.289 254.1 722.076 253.113 722.609 251.82L725.569 252.7C724.769 254.62 723.596 256.087 722.049 257.1C720.503 258.1 718.656 258.6 716.509 258.6ZM737.332 258.6C735.185 258.6 733.352 258.113 731.832 257.14C730.312 256.167 729.145 254.82 728.332 253.1C727.518 251.38 727.112 249.407 727.112 247.18C727.112 244.913 727.525 242.927 728.352 241.22C729.178 239.513 730.352 238.187 731.872 237.24C733.405 236.28 735.225 235.8 737.332 235.8C739.492 235.8 741.332 236.287 742.852 237.26C744.385 238.22 745.552 239.56 746.352 241.28C747.165 242.987 747.572 244.953 747.572 247.18C747.572 249.447 747.165 251.44 746.352 253.16C745.538 254.867 744.365 256.2 742.832 257.16C741.298 258.12 739.465 258.6 737.332 258.6ZM737.332 255.78C739.732 255.78 741.518 254.987 742.692 253.4C743.865 251.8 744.452 249.727 744.452 247.18C744.452 244.567 743.858 242.487 742.672 240.94C741.498 239.393 739.718 238.62 737.332 238.62C735.718 238.62 734.385 238.987 733.332 239.72C732.292 240.44 731.512 241.447 730.992 242.74C730.485 244.02 730.232 245.5 730.232 247.18C730.232 249.78 730.832 251.867 732.032 253.44C733.232 255 734.998 255.78 737.332 255.78ZM759.444 258.54C758.15 258.54 757.017 258.34 756.044 257.94C755.084 257.54 754.264 257 753.584 256.32C752.917 255.64 752.377 254.867 751.964 254C751.55 253.12 751.25 252.193 751.064 251.22C750.877 250.233 750.784 249.253 750.784 248.28V236.4H753.744V247.42C753.744 248.607 753.857 249.707 754.084 250.72C754.31 251.733 754.67 252.62 755.164 253.38C755.67 254.127 756.317 254.707 757.104 255.12C757.904 255.533 758.87 255.74 760.004 255.74C761.044 255.74 761.957 255.56 762.744 255.2C763.544 254.84 764.21 254.327 764.744 253.66C765.29 252.98 765.704 252.16 765.984 251.2C766.264 250.227 766.404 249.133 766.404 247.92L768.484 248.38C768.484 250.593 768.097 252.453 767.324 253.96C766.55 255.467 765.484 256.607 764.124 257.38C762.764 258.153 761.204 258.54 759.444 258.54ZM766.704 258V252.68H766.404V236.4H769.344V258H766.704ZM783.094 258.6C780.92 258.6 779.08 258.113 777.574 257.14C776.067 256.167 774.92 254.827 774.134 253.12C773.36 251.4 772.96 249.427 772.934 247.2C772.96 244.933 773.374 242.947 774.174 241.24C774.974 239.52 776.127 238.187 777.634 237.24C779.14 236.28 780.967 235.8 783.114 235.8C785.3 235.8 787.2 236.333 788.814 237.4C790.44 238.467 791.554 239.927 792.154 241.78L789.274 242.7C788.767 241.407 787.96 240.407 786.854 239.7C785.76 238.98 784.507 238.62 783.094 238.62C781.507 238.62 780.194 238.987 779.154 239.72C778.114 240.44 777.34 241.447 776.834 242.74C776.327 244.033 776.067 245.52 776.054 247.2C776.08 249.787 776.68 251.867 777.854 253.44C779.027 255 780.774 255.78 783.094 255.78C784.56 255.78 785.807 255.447 786.834 254.78C787.874 254.1 788.66 253.113 789.194 251.82L792.154 252.7C791.354 254.62 790.18 256.087 788.634 257.1C787.087 258.1 785.24 258.6 783.094 258.6ZM811.082 258V246.98C811.082 245.78 810.969 244.68 810.742 243.68C810.515 242.667 810.149 241.787 809.642 241.04C809.149 240.28 808.502 239.693 807.702 239.28C806.915 238.867 805.955 238.66 804.822 238.66C803.782 238.66 802.862 238.84 802.062 239.2C801.275 239.56 800.609 240.08 800.062 240.76C799.529 241.427 799.122 242.24 798.842 243.2C798.562 244.16 798.422 245.253 798.422 246.48L796.342 246.02C796.342 243.807 796.729 241.947 797.502 240.44C798.275 238.933 799.342 237.793 800.702 237.02C802.062 236.247 803.622 235.86 805.382 235.86C806.675 235.86 807.802 236.06 808.762 236.46C809.735 236.86 810.555 237.4 811.222 238.08C811.902 238.76 812.449 239.54 812.862 240.42C813.275 241.287 813.575 242.213 813.762 243.2C813.949 244.173 814.042 245.147 814.042 246.12V258H811.082ZM795.462 258V229.2H798.122V245.46H798.422V258H795.462ZM225.213 313L218.613 291.38L221.553 291.4L226.673 308.18L231.813 291.4H234.493L239.633 308.18L244.793 291.4H247.713L241.113 313H238.553L233.153 295.8L227.773 313H225.213ZM266.116 313V301.98C266.116 300.78 266.002 299.68 265.776 298.68C265.549 297.667 265.182 296.787 264.676 296.04C264.182 295.28 263.536 294.693 262.736 294.28C261.949 293.867 260.989 293.66 259.856 293.66C258.816 293.66 257.896 293.84 257.096 294.2C256.309 294.56 255.642 295.08 255.096 295.76C254.562 296.427 254.156 297.24 253.876 298.2C253.596 299.16 253.456 300.253 253.456 301.48L251.376 301.02C251.376 298.807 251.762 296.947 252.536 295.44C253.309 293.933 254.376 292.793 255.736 292.02C257.096 291.247 258.656 290.86 260.416 290.86C261.709 290.86 262.836 291.06 263.796 291.46C264.769 291.86 265.589 292.4 266.256 293.08C266.936 293.76 267.482 294.54 267.896 295.42C268.309 296.287 268.609 297.213 268.796 298.2C268.982 299.173 269.076 300.147 269.076 301.12V313H266.116ZM250.496 313V284.2H253.156V300.46H253.456V313H250.496ZM276.546 322.6L280.726 311.26L280.786 314.62L271.326 291.4H274.446L282.206 310.82H280.926L288.086 291.4H291.086L279.486 322.6H276.546ZM301.367 287.3V284H304.307V287.3H301.367ZM301.367 313V291.4H304.307V313H301.367ZM321.263 313C320.05 313.253 318.85 313.353 317.663 313.3C316.49 313.247 315.436 312.993 314.503 312.54C313.583 312.087 312.883 311.38 312.403 310.42C312.016 309.62 311.803 308.813 311.763 308C311.736 307.173 311.723 306.233 311.723 305.18V285.4H314.643V305.06C314.643 305.967 314.65 306.727 314.663 307.34C314.69 307.94 314.83 308.473 315.083 308.94C315.563 309.833 316.323 310.367 317.363 310.54C318.416 310.713 319.716 310.673 321.263 310.42V313ZM307.103 293.92V291.4H321.263V293.92H307.103ZM324.719 292.6L324.899 291.14C325.432 291.18 325.819 291.073 326.059 290.82C326.299 290.567 326.445 290.227 326.499 289.8C326.552 289.373 326.565 288.913 326.539 288.42H324.719V284.2H328.139V289.22C328.139 290.447 327.825 291.367 327.199 291.98C326.585 292.593 325.759 292.8 324.719 292.6ZM337.643 313.58C335.109 313.58 333.023 313.033 331.383 311.94C329.756 310.847 328.756 309.327 328.383 307.38L331.383 306.88C331.703 308.107 332.429 309.087 333.563 309.82C334.709 310.54 336.123 310.9 337.803 310.9C339.443 310.9 340.736 310.56 341.683 309.88C342.629 309.187 343.103 308.247 343.103 307.06C343.103 306.393 342.949 305.853 342.643 305.44C342.349 305.013 341.743 304.62 340.823 304.26C339.903 303.9 338.529 303.473 336.703 302.98C334.743 302.447 333.209 301.913 332.103 301.38C330.996 300.847 330.209 300.233 329.743 299.54C329.276 298.833 329.043 297.973 329.043 296.96C329.043 295.733 329.389 294.66 330.083 293.74C330.776 292.807 331.736 292.087 332.963 291.58C334.189 291.06 335.616 290.8 337.243 290.8C338.869 290.8 340.323 291.067 341.603 291.6C342.896 292.12 343.936 292.853 344.723 293.8C345.509 294.747 345.976 295.847 346.123 297.1L343.123 297.64C342.923 296.373 342.289 295.373 341.223 294.64C340.169 293.893 338.829 293.507 337.203 293.48C335.669 293.44 334.423 293.733 333.463 294.36C332.503 294.973 332.023 295.793 332.023 296.82C332.023 297.393 332.196 297.887 332.543 298.3C332.889 298.7 333.516 299.08 334.423 299.44C335.343 299.8 336.649 300.193 338.343 300.62C340.329 301.127 341.889 301.66 343.023 302.22C344.156 302.78 344.963 303.44 345.443 304.2C345.923 304.96 346.163 305.9 346.163 307.02C346.163 309.06 345.403 310.667 343.883 311.84C342.376 313 340.296 313.58 337.643 313.58ZM365.066 313.58C362.533 313.58 360.446 313.033 358.806 311.94C357.18 310.847 356.18 309.327 355.806 307.38L358.806 306.88C359.126 308.107 359.853 309.087 360.986 309.82C362.133 310.54 363.546 310.9 365.226 310.9C366.866 310.9 368.16 310.56 369.106 309.88C370.053 309.187 370.526 308.247 370.526 307.06C370.526 306.393 370.373 305.853 370.066 305.44C369.773 305.013 369.166 304.62 368.246 304.26C367.326 303.9 365.953 303.473 364.126 302.98C362.166 302.447 360.633 301.913 359.526 301.38C358.42 300.847 357.633 300.233 357.166 299.54C356.7 298.833 356.466 297.973 356.466 296.96C356.466 295.733 356.813 294.66 357.506 293.74C358.2 292.807 359.16 292.087 360.386 291.58C361.613 291.06 363.04 290.8 364.666 290.8C366.293 290.8 367.746 291.067 369.026 291.6C370.32 292.12 371.36 292.853 372.146 293.8C372.933 294.747 373.4 295.847 373.546 297.1L370.546 297.64C370.346 296.373 369.713 295.373 368.646 294.64C367.593 293.893 366.253 293.507 364.626 293.48C363.093 293.44 361.846 293.733 360.886 294.36C359.926 294.973 359.446 295.793 359.446 296.82C359.446 297.393 359.62 297.887 359.966 298.3C360.313 298.7 360.94 299.08 361.846 299.44C362.766 299.8 364.073 300.193 365.766 300.62C367.753 301.127 369.313 301.66 370.446 302.22C371.58 302.78 372.386 303.44 372.866 304.2C373.346 304.96 373.586 305.9 373.586 307.02C373.586 309.06 372.826 310.667 371.306 311.84C369.8 313 367.72 313.58 365.066 313.58ZM386.242 313.6C384.095 313.6 382.262 313.113 380.742 312.14C379.222 311.167 378.055 309.82 377.242 308.1C376.429 306.38 376.022 304.407 376.022 302.18C376.022 299.913 376.435 297.927 377.262 296.22C378.089 294.513 379.262 293.187 380.782 292.24C382.315 291.28 384.135 290.8 386.242 290.8C388.402 290.8 390.242 291.287 391.762 292.26C393.295 293.22 394.462 294.56 395.262 296.28C396.075 297.987 396.482 299.953 396.482 302.18C396.482 304.447 396.075 306.44 395.262 308.16C394.449 309.867 393.275 311.2 391.742 312.16C390.209 313.12 388.375 313.6 386.242 313.6ZM386.242 310.78C388.642 310.78 390.429 309.987 391.602 308.4C392.775 306.8 393.362 304.727 393.362 302.18C393.362 299.567 392.769 297.487 391.582 295.94C390.409 294.393 388.629 293.62 386.242 293.62C384.629 293.62 383.295 293.987 382.242 294.72C381.202 295.44 380.422 296.447 379.902 297.74C379.395 299.02 379.142 300.5 379.142 302.18C379.142 304.78 379.742 306.867 380.942 308.44C382.142 310 383.909 310.78 386.242 310.78ZM415.562 313.54C414.268 313.54 413.135 313.34 412.162 312.94C411.202 312.54 410.382 312 409.702 311.32C409.035 310.64 408.495 309.867 408.082 309C407.668 308.12 407.368 307.193 407.182 306.22C406.995 305.233 406.902 304.253 406.902 303.28V291.4H409.862V302.42C409.862 303.607 409.975 304.707 410.202 305.72C410.428 306.733 410.788 307.62 411.282 308.38C411.788 309.127 412.435 309.707 413.222 310.12C414.022 310.533 414.988 310.74 416.122 310.74C417.162 310.74 418.075 310.56 418.862 310.2C419.662 309.84 420.328 309.327 420.862 308.66C421.408 307.98 421.822 307.16 422.102 306.2C422.382 305.227 422.522 304.133 422.522 302.92L424.602 303.38C424.602 305.593 424.215 307.453 423.442 308.96C422.668 310.467 421.602 311.607 420.242 312.38C418.882 313.153 417.322 313.54 415.562 313.54ZM422.822 313V307.68H422.522V291.4H425.462V313H422.822ZM445.852 313V301.98C445.852 300.78 445.738 299.68 445.512 298.68C445.285 297.667 444.918 296.787 444.412 296.04C443.918 295.28 443.272 294.693 442.472 294.28C441.685 293.867 440.725 293.66 439.592 293.66C438.552 293.66 437.632 293.84 436.832 294.2C436.045 294.56 435.378 295.08 434.832 295.76C434.298 296.427 433.892 297.24 433.612 298.2C433.332 299.16 433.192 300.253 433.192 301.48L431.112 301.02C431.112 298.807 431.498 296.947 432.272 295.44C433.045 293.933 434.112 292.793 435.472 292.02C436.832 291.247 438.392 290.86 440.152 290.86C441.445 290.86 442.572 291.06 443.532 291.46C444.505 291.86 445.325 292.4 445.992 293.08C446.672 293.76 447.218 294.54 447.632 295.42C448.045 296.287 448.345 297.213 448.532 298.2C448.718 299.173 448.812 300.147 448.812 301.12V313H445.852ZM430.232 313V291.4H432.892V296.72H433.192V313H430.232ZM462.044 313.6C459.871 313.6 458.031 313.113 456.524 312.14C455.018 311.167 453.871 309.827 453.084 308.12C452.311 306.4 451.911 304.427 451.884 302.2C451.911 299.933 452.324 297.947 453.124 296.24C453.924 294.52 455.078 293.187 456.584 292.24C458.091 291.28 459.918 290.8 462.064 290.8C464.251 290.8 466.151 291.333 467.764 292.4C469.391 293.467 470.504 294.927 471.104 296.78L468.224 297.7C467.718 296.407 466.911 295.407 465.804 294.7C464.711 293.98 463.458 293.62 462.044 293.62C460.458 293.62 459.144 293.987 458.104 294.72C457.064 295.44 456.291 296.447 455.784 297.74C455.278 299.033 455.018 300.52 455.004 302.2C455.031 304.787 455.631 306.867 456.804 308.44C457.978 310 459.724 310.78 462.044 310.78C463.511 310.78 464.758 310.447 465.784 309.78C466.824 309.1 467.611 308.113 468.144 306.82L471.104 307.7C470.304 309.62 469.131 311.087 467.584 312.1C466.038 313.1 464.191 313.6 462.044 313.6ZM482.867 313.6C480.72 313.6 478.887 313.113 477.367 312.14C475.847 311.167 474.68 309.82 473.867 308.1C473.054 306.38 472.647 304.407 472.647 302.18C472.647 299.913 473.06 297.927 473.887 296.22C474.714 294.513 475.887 293.187 477.407 292.24C478.94 291.28 480.76 290.8 482.867 290.8C485.027 290.8 486.867 291.287 488.387 292.26C489.92 293.22 491.087 294.56 491.887 296.28C492.7 297.987 493.107 299.953 493.107 302.18C493.107 304.447 492.7 306.44 491.887 308.16C491.074 309.867 489.9 311.2 488.367 312.16C486.834 313.12 485 313.6 482.867 313.6ZM482.867 310.78C485.267 310.78 487.054 309.987 488.227 308.4C489.4 306.8 489.987 304.727 489.987 302.18C489.987 299.567 489.394 297.487 488.207 295.94C487.034 294.393 485.254 293.62 482.867 293.62C481.254 293.62 479.92 293.987 478.867 294.72C477.827 295.44 477.047 296.447 476.527 297.74C476.02 299.02 475.767 300.5 475.767 302.18C475.767 304.78 476.367 306.867 477.567 308.44C478.767 310 480.534 310.78 482.867 310.78ZM522.479 313L522.499 298.82C522.499 297.153 522.032 295.847 521.099 294.9C520.179 293.94 519.005 293.46 517.579 293.46C516.765 293.46 515.972 293.647 515.199 294.02C514.425 294.393 513.785 294.993 513.279 295.82C512.785 296.647 512.539 297.727 512.539 299.06L510.799 298.56C510.759 297.013 511.059 295.66 511.699 294.5C512.352 293.34 513.245 292.44 514.379 291.8C515.525 291.147 516.819 290.82 518.259 290.82C520.432 290.82 522.172 291.493 523.479 292.84C524.785 294.173 525.439 295.98 525.439 298.26L525.419 313H522.479ZM496.699 313V291.4H499.339V296.72H499.659V313H496.699ZM509.619 313L509.639 299.02C509.639 297.3 509.179 295.947 508.259 294.96C507.352 293.96 506.152 293.46 504.659 293.46C503.165 293.46 501.959 293.973 501.039 295C500.119 296.013 499.659 297.367 499.659 299.06L497.899 298.1C497.899 296.713 498.225 295.473 498.879 294.38C499.532 293.273 500.425 292.407 501.559 291.78C502.692 291.14 503.979 290.82 505.419 290.82C506.792 290.82 508.012 291.113 509.079 291.7C510.159 292.287 511.005 293.14 511.619 294.26C512.232 295.38 512.539 296.74 512.539 298.34L512.519 313H509.619ZM531.965 313V289.8C531.965 289.24 531.992 288.687 532.045 288.14C532.112 287.593 532.238 287.073 532.425 286.58C532.612 286.073 532.905 285.607 533.305 285.18C533.745 284.7 534.225 284.353 534.745 284.14C535.265 283.913 535.805 283.767 536.365 283.7C536.938 283.633 537.498 283.6 538.045 283.6H540.805V286.08H538.245C537.125 286.08 536.285 286.353 535.725 286.9C535.178 287.447 534.905 288.307 534.905 289.48V313H531.965ZM528.225 293.92V291.4H540.805V293.92H528.225ZM551.443 313.6C549.297 313.6 547.463 313.113 545.943 312.14C544.423 311.167 543.257 309.82 542.443 308.1C541.63 306.38 541.223 304.407 541.223 302.18C541.223 299.913 541.637 297.927 542.463 296.22C543.29 294.513 544.463 293.187 545.983 292.24C547.517 291.28 549.337 290.8 551.443 290.8C553.603 290.8 555.443 291.287 556.963 292.26C558.497 293.22 559.663 294.56 560.463 296.28C561.277 297.987 561.683 299.953 561.683 302.18C561.683 304.447 561.277 306.44 560.463 308.16C559.65 309.867 558.477 311.2 556.943 312.16C555.41 313.12 553.577 313.6 551.443 313.6ZM551.443 310.78C553.843 310.78 555.63 309.987 556.803 308.4C557.977 306.8 558.563 304.727 558.563 302.18C558.563 299.567 557.97 297.487 556.783 295.94C555.61 294.393 553.83 293.62 551.443 293.62C549.83 293.62 548.497 293.987 547.443 294.72C546.403 295.44 545.623 296.447 545.103 297.74C544.597 299.02 544.343 300.5 544.343 302.18C544.343 304.78 544.943 306.867 546.143 308.44C547.343 310 549.11 310.78 551.443 310.78ZM565.295 313V291.4H567.935V296.6L567.415 295.92C567.655 295.28 567.969 294.693 568.355 294.16C568.742 293.613 569.162 293.167 569.615 292.82C570.175 292.327 570.829 291.953 571.575 291.7C572.322 291.433 573.075 291.28 573.835 291.24C574.595 291.187 575.289 291.24 575.915 291.4V294.16C575.129 293.96 574.269 293.913 573.335 294.02C572.402 294.127 571.542 294.5 570.755 295.14C570.035 295.7 569.495 296.373 569.135 297.16C568.775 297.933 568.535 298.76 568.415 299.64C568.295 300.507 568.235 301.367 568.235 302.22V313H565.295ZM590.669 313C589.456 313.253 588.256 313.353 587.069 313.3C585.896 313.247 584.843 312.993 583.909 312.54C582.989 312.087 582.289 311.38 581.809 310.42C581.423 309.62 581.209 308.813 581.169 308C581.143 307.173 581.129 306.233 581.129 305.18V285.4H584.049V305.06C584.049 305.967 584.056 306.727 584.069 307.34C584.096 307.94 584.236 308.473 584.489 308.94C584.969 309.833 585.729 310.367 586.769 310.54C587.823 310.713 589.123 310.673 590.669 310.42V313ZM576.509 293.92V291.4H590.669V293.92H576.509ZM600.305 313.6C598.678 313.6 597.312 313.307 596.205 312.72C595.112 312.133 594.292 311.353 593.745 310.38C593.198 309.407 592.925 308.347 592.925 307.2C592.925 306.027 593.158 305.027 593.625 304.2C594.105 303.36 594.752 302.673 595.565 302.14C596.392 301.607 597.345 301.2 598.425 300.92C599.518 300.653 600.725 300.42 602.045 300.22C603.378 300.007 604.678 299.827 605.945 299.68C607.225 299.52 608.345 299.367 609.305 299.22L608.265 299.86C608.305 297.727 607.892 296.147 607.025 295.12C606.158 294.093 604.652 293.58 602.505 293.58C601.025 293.58 599.772 293.913 598.745 294.58C597.732 295.247 597.018 296.3 596.605 297.74L593.745 296.9C594.238 294.967 595.232 293.467 596.725 292.4C598.218 291.333 600.158 290.8 602.545 290.8C604.518 290.8 606.192 291.173 607.565 291.92C608.952 292.653 609.932 293.72 610.505 295.12C610.772 295.747 610.945 296.447 611.025 297.22C611.105 297.993 611.145 298.78 611.145 299.58V313H608.525V307.58L609.285 307.9C608.552 309.753 607.412 311.167 605.865 312.14C604.318 313.113 602.465 313.6 600.305 313.6ZM600.645 311.06C602.018 311.06 603.218 310.813 604.245 310.32C605.272 309.827 606.098 309.153 606.725 308.3C607.352 307.433 607.758 306.46 607.945 305.38C608.105 304.687 608.192 303.927 608.205 303.1C608.218 302.26 608.225 301.633 608.225 301.22L609.345 301.8C608.345 301.933 607.258 302.067 606.085 302.2C604.925 302.333 603.778 302.487 602.645 302.66C601.525 302.833 600.512 303.04 599.605 303.28C598.992 303.453 598.398 303.7 597.825 304.02C597.252 304.327 596.778 304.74 596.405 305.26C596.045 305.78 595.865 306.427 595.865 307.2C595.865 307.827 596.018 308.433 596.325 309.02C596.645 309.607 597.152 310.093 597.845 310.48C598.552 310.867 599.485 311.06 600.645 311.06ZM625.252 313.6C623.265 313.6 621.585 313.1 620.212 312.1C618.838 311.087 617.798 309.72 617.092 308C616.385 306.267 616.032 304.327 616.032 302.18C616.032 299.993 616.385 298.047 617.092 296.34C617.812 294.62 618.865 293.267 620.252 292.28C621.638 291.293 623.345 290.8 625.372 290.8C627.345 290.8 629.038 291.3 630.452 292.3C631.865 293.3 632.945 294.66 633.692 296.38C634.452 298.1 634.832 300.033 634.832 302.18C634.832 304.34 634.452 306.28 633.692 308C632.932 309.72 631.838 311.087 630.412 312.1C628.985 313.1 627.265 313.6 625.252 313.6ZM615.532 313V284.2H618.492V296.74H618.172V313H615.532ZM624.952 310.86C626.458 310.86 627.712 310.48 628.712 309.72C629.712 308.96 630.458 307.927 630.952 306.62C631.458 305.3 631.712 303.82 631.712 302.18C631.712 300.553 631.465 299.087 630.972 297.78C630.478 296.473 629.725 295.44 628.712 294.68C627.712 293.92 626.438 293.54 624.892 293.54C623.385 293.54 622.132 293.907 621.132 294.64C620.145 295.373 619.405 296.393 618.912 297.7C618.418 298.993 618.172 300.487 618.172 302.18C618.172 303.847 618.418 305.34 618.912 306.66C619.405 307.967 620.152 308.993 621.152 309.74C622.152 310.487 623.418 310.86 624.952 310.86ZM638.823 313V283.6H641.763V313H638.823ZM656.099 313.6C653.993 313.6 652.166 313.133 650.619 312.2C649.086 311.267 647.893 309.953 647.039 308.26C646.186 306.567 645.759 304.58 645.759 302.3C645.759 299.94 646.179 297.9 647.019 296.18C647.859 294.46 649.039 293.133 650.559 292.2C652.093 291.267 653.899 290.8 655.979 290.8C658.113 290.8 659.933 291.293 661.439 292.28C662.946 293.253 664.086 294.653 664.859 296.48C665.633 298.307 665.986 300.487 665.919 303.02H662.919V301.98C662.866 299.18 662.259 297.067 661.099 295.64C659.953 294.213 658.273 293.5 656.059 293.5C653.739 293.5 651.959 294.253 650.719 295.76C649.493 297.267 648.879 299.413 648.879 302.2C648.879 304.92 649.493 307.033 650.719 308.54C651.959 310.033 653.713 310.78 655.979 310.78C657.526 310.78 658.873 310.427 660.019 309.72C661.179 309 662.093 307.967 662.759 306.62L665.499 307.68C664.646 309.56 663.386 311.02 661.719 312.06C660.066 313.087 658.193 313.6 656.099 313.6ZM647.839 303.02V300.56H664.339V303.02H647.839ZM669.056 320.18L666.896 318.46C668.43 316.673 669.71 314.76 670.736 312.72C671.776 310.667 672.556 308.553 673.076 306.38C673.61 304.193 673.883 302 673.896 299.8C673.883 297.573 673.616 295.38 673.096 293.22C672.59 291.06 671.816 288.967 670.776 286.94C669.736 284.9 668.443 282.953 666.896 281.1L669.056 279.42C670.63 281.22 671.976 283.227 673.096 285.44C674.23 287.653 675.096 289.987 675.696 292.44C676.31 294.88 676.61 297.333 676.596 299.8C676.61 302.267 676.31 304.72 675.696 307.16C675.096 309.6 674.23 311.927 673.096 314.14C671.976 316.367 670.63 318.38 669.056 320.18Z" fill="white"></path><defs><linearGradient id="paint0_linear_3968_1080" x1="25" y1="-38" x2="908.5" y2="566" gradientUnits="userSpaceOnUse"><stop stop-color="#321193"></stop><stop offset="1" stop-color="#E54D95"></stop></linearGradient></defs></svg> 