<?xml version="1.0" encoding="UTF-8"?> <svg xmlns="http://www.w3.org/2000/svg" width="900" height="540" viewBox="0 0 900 540" fill="none"><rect width="900" height="540" rx="30" fill="url(#paint0_linear_3968_1082)"></rect><path d="M223.723 286V260.02H213.663V257.2H236.723V260.02H226.663V286H223.723ZM245.067 286.6C242.961 286.6 241.134 286.133 239.587 285.2C238.054 284.267 236.861 282.953 236.007 281.26C235.154 279.567 234.727 277.58 234.727 275.3C234.727 272.94 235.147 270.9 235.987 269.18C236.827 267.46 238.007 266.133 239.527 265.2C241.061 264.267 242.867 263.8 244.947 263.8C247.081 263.8 248.901 264.293 250.407 265.28C251.914 266.253 253.054 267.653 253.827 269.48C254.601 271.307 254.954 273.487 254.887 276.02H251.887V274.98C251.834 272.18 251.227 270.067 250.067 268.64C248.921 267.213 247.241 266.5 245.027 266.5C242.707 266.5 240.927 267.253 239.687 268.76C238.461 270.267 237.847 272.413 237.847 275.2C237.847 277.92 238.461 280.033 239.687 281.54C240.927 283.033 242.681 283.78 244.947 283.78C246.494 283.78 247.841 283.427 248.987 282.72C250.147 282 251.061 280.967 251.727 279.62L254.467 280.68C253.614 282.56 252.354 284.02 250.687 285.06C249.034 286.087 247.161 286.6 245.067 286.6ZM236.807 276.02V273.56H253.307V276.02H236.807ZM258.926 286V256.6H261.866V286H258.926ZM276.202 286.6C274.095 286.6 272.268 286.133 270.722 285.2C269.188 284.267 267.995 282.953 267.142 281.26C266.288 279.567 265.862 277.58 265.862 275.3C265.862 272.94 266.282 270.9 267.122 269.18C267.962 267.46 269.142 266.133 270.662 265.2C272.195 264.267 274.002 263.8 276.082 263.8C278.215 263.8 280.035 264.293 281.542 265.28C283.048 266.253 284.188 267.653 284.962 269.48C285.735 271.307 286.088 273.487 286.022 276.02H283.022V274.98C282.968 272.18 282.362 270.067 281.202 268.64C280.055 267.213 278.375 266.5 276.162 266.5C273.842 266.5 272.062 267.253 270.822 268.76C269.595 270.267 268.982 272.413 268.982 275.2C268.982 277.92 269.595 280.033 270.822 281.54C272.062 283.033 273.815 283.78 276.082 283.78C277.628 283.78 278.975 283.427 280.122 282.72C281.282 282 282.195 280.967 282.862 279.62L285.602 280.68C284.748 282.56 283.488 284.02 281.822 285.06C280.168 286.087 278.295 286.6 276.202 286.6ZM267.942 276.02V273.56H284.442V276.02H267.942ZM298.774 286.6C296.788 286.6 295.108 286.1 293.734 285.1C292.361 284.087 291.321 282.72 290.614 281C289.908 279.267 289.554 277.327 289.554 275.18C289.554 272.993 289.908 271.047 290.614 269.34C291.334 267.62 292.388 266.267 293.774 265.28C295.161 264.293 296.868 263.8 298.894 263.8C300.868 263.8 302.561 264.3 303.974 265.3C305.388 266.3 306.468 267.66 307.214 269.38C307.974 271.1 308.354 273.033 308.354 275.18C308.354 277.34 307.974 279.28 307.214 281C306.454 282.72 305.361 284.087 303.934 285.1C302.508 286.1 300.788 286.6 298.774 286.6ZM289.054 295.6V264.4H291.694V280.66H292.014V295.6H289.054ZM298.474 283.86C299.981 283.86 301.234 283.48 302.234 282.72C303.234 281.96 303.981 280.927 304.474 279.62C304.981 278.3 305.234 276.82 305.234 275.18C305.234 273.553 304.988 272.087 304.494 270.78C304.001 269.473 303.248 268.44 302.234 267.68C301.234 266.92 299.961 266.54 298.414 266.54C296.908 266.54 295.654 266.907 294.654 267.64C293.668 268.373 292.928 269.393 292.434 270.7C291.941 271.993 291.694 273.487 291.694 275.18C291.694 276.847 291.941 278.34 292.434 279.66C292.928 280.967 293.674 281.993 294.674 282.74C295.674 283.487 296.941 283.86 298.474 283.86ZM320.966 286.6C318.819 286.6 316.986 286.113 315.466 285.14C313.946 284.167 312.779 282.82 311.966 281.1C311.153 279.38 310.746 277.407 310.746 275.18C310.746 272.913 311.159 270.927 311.986 269.22C312.813 267.513 313.986 266.187 315.506 265.24C317.039 264.28 318.859 263.8 320.966 263.8C323.126 263.8 324.966 264.287 326.486 265.26C328.019 266.22 329.186 267.56 329.986 269.28C330.799 270.987 331.206 272.953 331.206 275.18C331.206 277.447 330.799 279.44 329.986 281.16C329.173 282.867 327.999 284.2 326.466 285.16C324.933 286.12 323.099 286.6 320.966 286.6ZM320.966 283.78C323.366 283.78 325.153 282.987 326.326 281.4C327.499 279.8 328.086 277.727 328.086 275.18C328.086 272.567 327.493 270.487 326.306 268.94C325.133 267.393 323.353 266.62 320.966 266.62C319.353 266.62 318.019 266.987 316.966 267.72C315.926 268.44 315.146 269.447 314.626 270.74C314.119 272.02 313.866 273.5 313.866 275.18C313.866 277.78 314.466 279.867 315.666 281.44C316.866 283 318.633 283.78 320.966 283.78ZM334.818 286V264.4H337.458V269.6L336.938 268.92C337.178 268.28 337.491 267.693 337.878 267.16C338.265 266.613 338.685 266.167 339.138 265.82C339.698 265.327 340.351 264.953 341.098 264.7C341.845 264.433 342.598 264.28 343.358 264.24C344.118 264.187 344.811 264.24 345.438 264.4V267.16C344.651 266.96 343.791 266.913 342.858 267.02C341.925 267.127 341.065 267.5 340.278 268.14C339.558 268.7 339.018 269.373 338.658 270.16C338.298 270.933 338.058 271.76 337.938 272.64C337.818 273.507 337.758 274.367 337.758 275.22V286H334.818ZM360.192 286C358.979 286.253 357.779 286.353 356.592 286.3C355.419 286.247 354.365 285.993 353.432 285.54C352.512 285.087 351.812 284.38 351.332 283.42C350.945 282.62 350.732 281.813 350.692 281C350.665 280.173 350.652 279.233 350.652 278.18V258.4H353.572V278.06C353.572 278.967 353.579 279.727 353.592 280.34C353.619 280.94 353.759 281.473 354.012 281.94C354.492 282.833 355.252 283.367 356.292 283.54C357.345 283.713 358.645 283.673 360.192 283.42V286ZM346.032 266.92V264.4H360.192V266.92H346.032ZM364.048 260.3V257H366.988V260.3H364.048ZM364.048 286V264.4H366.988V286H364.048ZM387.784 286V274.98C387.784 273.78 387.67 272.68 387.444 271.68C387.217 270.667 386.85 269.787 386.344 269.04C385.85 268.28 385.204 267.693 384.404 267.28C383.617 266.867 382.657 266.66 381.524 266.66C380.484 266.66 379.564 266.84 378.764 267.2C377.977 267.56 377.31 268.08 376.764 268.76C376.23 269.427 375.824 270.24 375.544 271.2C375.264 272.16 375.124 273.253 375.124 274.48L373.044 274.02C373.044 271.807 373.43 269.947 374.204 268.44C374.977 266.933 376.044 265.793 377.404 265.02C378.764 264.247 380.324 263.86 382.084 263.86C383.377 263.86 384.504 264.06 385.464 264.46C386.437 264.86 387.257 265.4 387.924 266.08C388.604 266.76 389.15 267.54 389.564 268.42C389.977 269.287 390.277 270.213 390.464 271.2C390.65 272.173 390.744 273.147 390.744 274.12V286H387.784ZM372.164 286V264.4H374.824V269.72H375.124V286H372.164ZM403.714 296.2C402.607 296.2 401.514 296.033 400.434 295.7C399.367 295.38 398.38 294.867 397.474 294.16C396.567 293.467 395.807 292.56 395.194 291.44L397.854 289.96C398.454 291.16 399.294 292.02 400.374 292.54C401.467 293.073 402.58 293.34 403.714 293.34C405.274 293.34 406.534 293.047 407.494 292.46C408.467 291.887 409.174 291.033 409.614 289.9C410.054 288.767 410.267 287.353 410.254 285.66V279.9H410.594V264.4H413.214V285.7C413.214 286.313 413.194 286.9 413.154 287.46C413.127 288.033 413.067 288.593 412.974 289.14C412.72 290.753 412.194 292.08 411.394 293.12C410.607 294.16 409.567 294.933 408.274 295.44C406.994 295.947 405.474 296.2 403.714 296.2ZM403.514 286.6C401.5 286.6 399.78 286.1 398.354 285.1C396.927 284.087 395.834 282.72 395.074 281C394.314 279.28 393.934 277.34 393.934 275.18C393.934 273.033 394.307 271.1 395.054 269.38C395.814 267.66 396.9 266.3 398.314 265.3C399.727 264.3 401.42 263.8 403.394 263.8C405.42 263.8 407.127 264.293 408.514 265.28C409.9 266.267 410.947 267.62 411.654 269.34C412.374 271.047 412.734 272.993 412.734 275.18C412.734 277.327 412.38 279.267 411.674 281C410.967 282.72 409.927 284.087 408.554 285.1C407.18 286.1 405.5 286.6 403.514 286.6ZM403.814 283.86C405.347 283.86 406.614 283.487 407.614 282.74C408.614 281.993 409.36 280.967 409.854 279.66C410.347 278.34 410.594 276.847 410.594 275.18C410.594 273.487 410.347 271.993 409.854 270.7C409.36 269.393 408.614 268.373 407.614 267.64C406.627 266.907 405.38 266.54 403.874 266.54C402.327 266.54 401.047 266.92 400.034 267.68C399.02 268.44 398.267 269.473 397.774 270.78C397.294 272.087 397.054 273.553 397.054 275.18C397.054 276.82 397.3 278.3 397.794 279.62C398.3 280.927 399.054 281.96 400.054 282.72C401.054 283.48 402.307 283.86 403.814 283.86ZM436.973 286C435.76 286.253 434.56 286.353 433.373 286.3C432.2 286.247 431.147 285.993 430.213 285.54C429.293 285.087 428.593 284.38 428.113 283.42C427.727 282.62 427.513 281.813 427.473 281C427.447 280.173 427.433 279.233 427.433 278.18V258.4H430.353V278.06C430.353 278.967 430.36 279.727 430.373 280.34C430.4 280.94 430.54 281.473 430.793 281.94C431.273 282.833 432.033 283.367 433.073 283.54C434.127 283.713 435.427 283.673 436.973 283.42V286ZM422.813 266.92V264.4H436.973V266.92H422.813ZM448.668 286.6C446.521 286.6 444.688 286.113 443.168 285.14C441.648 284.167 440.481 282.82 439.668 281.1C438.854 279.38 438.448 277.407 438.448 275.18C438.448 272.913 438.861 270.927 439.688 269.22C440.514 267.513 441.688 266.187 443.208 265.24C444.741 264.28 446.561 263.8 448.668 263.8C450.828 263.8 452.668 264.287 454.188 265.26C455.721 266.22 456.888 267.56 457.688 269.28C458.501 270.987 458.908 272.953 458.908 275.18C458.908 277.447 458.501 279.44 457.688 281.16C456.874 282.867 455.701 284.2 454.168 285.16C452.634 286.12 450.801 286.6 448.668 286.6ZM448.668 283.78C451.068 283.78 452.854 282.987 454.028 281.4C455.201 279.8 455.788 277.727 455.788 275.18C455.788 272.567 455.194 270.487 454.008 268.94C452.834 267.393 451.054 266.62 448.668 266.62C447.054 266.62 445.721 266.987 444.668 267.72C443.628 268.44 442.848 269.447 442.328 270.74C441.821 272.02 441.568 273.5 441.568 275.18C441.568 277.78 442.168 279.867 443.368 281.44C444.568 283 446.334 283.78 448.668 283.78ZM474.327 286L467.727 264.38L470.667 264.4L475.787 281.18L480.927 264.4H483.607L488.747 281.18L493.907 264.4H496.827L490.227 286H487.667L482.267 268.8L476.887 286H474.327ZM507.989 286.6C505.883 286.6 504.056 286.133 502.509 285.2C500.976 284.267 499.783 282.953 498.929 281.26C498.076 279.567 497.649 277.58 497.649 275.3C497.649 272.94 498.069 270.9 498.909 269.18C499.749 267.46 500.929 266.133 502.449 265.2C503.983 264.267 505.789 263.8 507.869 263.8C510.003 263.8 511.823 264.293 513.329 265.28C514.836 266.253 515.976 267.653 516.749 269.48C517.523 271.307 517.876 273.487 517.809 276.02H514.809V274.98C514.756 272.18 514.149 270.067 512.989 268.64C511.843 267.213 510.163 266.5 507.949 266.5C505.629 266.5 503.849 267.253 502.609 268.76C501.383 270.267 500.769 272.413 500.769 275.2C500.769 277.92 501.383 280.033 502.609 281.54C503.849 283.033 505.603 283.78 507.869 283.78C509.416 283.78 510.763 283.427 511.909 282.72C513.069 282 513.983 280.967 514.649 279.62L517.389 280.68C516.536 282.56 515.276 284.02 513.609 285.06C511.956 286.087 510.083 286.6 507.989 286.6ZM499.729 276.02V273.56H516.229V276.02H499.729ZM521.848 260.3V257H524.788V260.3H521.848ZM521.848 286V264.4H524.788V286H521.848ZM529.984 286V264.4H532.624V269.6L532.104 268.92C532.344 268.28 532.657 267.693 533.044 267.16C533.43 266.613 533.85 266.167 534.304 265.82C534.864 265.327 535.517 264.953 536.264 264.7C537.01 264.433 537.764 264.28 538.524 264.24C539.284 264.187 539.977 264.24 540.604 264.4V267.16C539.817 266.96 538.957 266.913 538.024 267.02C537.09 267.127 536.23 267.5 535.444 268.14C534.724 268.7 534.184 269.373 533.824 270.16C533.464 270.933 533.224 271.76 533.104 272.64C532.984 273.507 532.924 274.367 532.924 275.22V286H529.984ZM551.587 286.6C549.574 286.6 547.854 286.1 546.427 285.1C545 284.087 543.907 282.72 543.147 281C542.387 279.28 542.007 277.34 542.007 275.18C542.007 273.033 542.38 271.1 543.127 269.38C543.887 267.66 544.974 266.3 546.387 265.3C547.8 264.3 549.494 263.8 551.467 263.8C553.494 263.8 555.2 264.293 556.587 265.28C557.974 266.267 559.02 267.62 559.727 269.34C560.447 271.047 560.807 272.993 560.807 275.18C560.807 277.327 560.454 279.267 559.747 281C559.04 282.72 558 284.087 556.627 285.1C555.254 286.1 553.574 286.6 551.587 286.6ZM551.887 283.86C553.42 283.86 554.687 283.487 555.687 282.74C556.687 281.993 557.434 280.967 557.927 279.66C558.42 278.34 558.667 276.847 558.667 275.18C558.667 273.487 558.42 271.993 557.927 270.7C557.434 269.393 556.687 268.373 555.687 267.64C554.7 266.907 553.454 266.54 551.947 266.54C550.4 266.54 549.12 266.92 548.107 267.68C547.094 268.44 546.34 269.473 545.847 270.78C545.367 272.087 545.127 273.553 545.127 275.18C545.127 276.82 545.374 278.3 545.867 279.62C546.374 280.927 547.127 281.96 548.127 282.72C549.127 283.48 550.38 283.86 551.887 283.86ZM558.667 286V269.74H558.347V257.2H561.307V286H558.667ZM583.026 286.6C581.039 286.6 579.359 286.1 577.986 285.1C576.612 284.087 575.572 282.72 574.866 281C574.159 279.267 573.806 277.327 573.806 275.18C573.806 272.993 574.159 271.047 574.866 269.34C575.586 267.62 576.639 266.267 578.026 265.28C579.412 264.293 581.119 263.8 583.146 263.8C585.119 263.8 586.812 264.3 588.226 265.3C589.639 266.3 590.719 267.66 591.466 269.38C592.226 271.1 592.606 273.033 592.606 275.18C592.606 277.34 592.226 279.28 591.466 281C590.706 282.72 589.612 284.087 588.186 285.1C586.759 286.1 585.039 286.6 583.026 286.6ZM573.306 295.6V264.4H575.946V280.66H576.266V295.6H573.306ZM582.726 283.86C584.232 283.86 585.486 283.48 586.486 282.72C587.486 281.96 588.232 280.927 588.726 279.62C589.232 278.3 589.486 276.82 589.486 275.18C589.486 273.553 589.239 272.087 588.746 270.78C588.252 269.473 587.499 268.44 586.486 267.68C585.486 266.92 584.212 266.54 582.666 266.54C581.159 266.54 579.906 266.907 578.906 267.64C577.919 268.373 577.179 269.393 576.686 270.7C576.192 271.993 575.946 273.487 575.946 275.18C575.946 276.847 576.192 278.34 576.686 279.66C577.179 280.967 577.926 281.993 578.926 282.74C579.926 283.487 581.192 283.86 582.726 283.86ZM596.598 286V256.6H599.538V286H596.598ZM610.914 286.6C609.287 286.6 607.92 286.307 606.814 285.72C605.72 285.133 604.9 284.353 604.354 283.38C603.807 282.407 603.534 281.347 603.534 280.2C603.534 279.027 603.767 278.027 604.234 277.2C604.714 276.36 605.36 275.673 606.174 275.14C607 274.607 607.954 274.2 609.034 273.92C610.127 273.653 611.334 273.42 612.654 273.22C613.987 273.007 615.287 272.827 616.554 272.68C617.834 272.52 618.954 272.367 619.914 272.22L618.874 272.86C618.914 270.727 618.5 269.147 617.634 268.12C616.767 267.093 615.26 266.58 613.114 266.58C611.634 266.58 610.38 266.913 609.354 267.58C608.34 268.247 607.627 269.3 607.214 270.74L604.354 269.9C604.847 267.967 605.84 266.467 607.334 265.4C608.827 264.333 610.767 263.8 613.154 263.8C615.127 263.8 616.8 264.173 618.174 264.92C619.56 265.653 620.54 266.72 621.114 268.12C621.38 268.747 621.554 269.447 621.634 270.22C621.714 270.993 621.754 271.78 621.754 272.58V286H619.134V280.58L619.894 280.9C619.16 282.753 618.02 284.167 616.474 285.14C614.927 286.113 613.074 286.6 610.914 286.6ZM611.254 284.06C612.627 284.06 613.827 283.813 614.854 283.32C615.88 282.827 616.707 282.153 617.334 281.3C617.96 280.433 618.367 279.46 618.554 278.38C618.714 277.687 618.8 276.927 618.814 276.1C618.827 275.26 618.834 274.633 618.834 274.22L619.954 274.8C618.954 274.933 617.867 275.067 616.694 275.2C615.534 275.333 614.387 275.487 613.254 275.66C612.134 275.833 611.12 276.04 610.214 276.28C609.6 276.453 609.007 276.7 608.434 277.02C607.86 277.327 607.387 277.74 607.014 278.26C606.654 278.78 606.474 279.427 606.474 280.2C606.474 280.827 606.627 281.433 606.934 282.02C607.254 282.607 607.76 283.093 608.454 283.48C609.16 283.867 610.094 284.06 611.254 284.06ZM635.12 286.6C632.947 286.6 631.107 286.113 629.6 285.14C628.093 284.167 626.947 282.827 626.16 281.12C625.387 279.4 624.987 277.427 624.96 275.2C624.987 272.933 625.4 270.947 626.2 269.24C627 267.52 628.153 266.187 629.66 265.24C631.167 264.28 632.993 263.8 635.14 263.8C637.327 263.8 639.227 264.333 640.84 265.4C642.467 266.467 643.58 267.927 644.18 269.78L641.3 270.7C640.793 269.407 639.987 268.407 638.88 267.7C637.787 266.98 636.533 266.62 635.12 266.62C633.533 266.62 632.22 266.987 631.18 267.72C630.14 268.44 629.367 269.447 628.86 270.74C628.353 272.033 628.093 273.52 628.08 275.2C628.107 277.787 628.707 279.867 629.88 281.44C631.053 283 632.8 283.78 635.12 283.78C636.587 283.78 637.833 283.447 638.86 282.78C639.9 282.1 640.687 281.113 641.22 279.82L644.18 280.7C643.38 282.62 642.207 284.087 640.66 285.1C639.113 286.1 637.267 286.6 635.12 286.6ZM656.063 286.6C653.956 286.6 652.129 286.133 650.583 285.2C649.049 284.267 647.856 282.953 647.003 281.26C646.149 279.567 645.723 277.58 645.723 275.3C645.723 272.94 646.143 270.9 646.983 269.18C647.823 267.46 649.003 266.133 650.523 265.2C652.056 264.267 653.863 263.8 655.943 263.8C658.076 263.8 659.896 264.293 661.403 265.28C662.909 266.253 664.049 267.653 664.823 269.48C665.596 271.307 665.949 273.487 665.883 276.02H662.883V274.98C662.829 272.18 662.223 270.067 661.063 268.64C659.916 267.213 658.236 266.5 656.023 266.5C653.703 266.5 651.923 267.253 650.683 268.76C649.456 270.267 648.843 272.413 648.843 275.2C648.843 277.92 649.456 280.033 650.683 281.54C651.923 283.033 653.676 283.78 655.943 283.78C657.489 283.78 658.836 283.427 659.983 282.72C661.143 282 662.056 280.967 662.723 279.62L665.463 280.68C664.609 282.56 663.349 284.02 661.683 285.06C660.029 286.087 658.156 286.6 656.063 286.6ZM647.803 276.02V273.56H664.303V276.02H647.803ZM677.581 286.58C675.048 286.58 672.961 286.033 671.321 284.94C669.694 283.847 668.694 282.327 668.321 280.38L671.321 279.88C671.641 281.107 672.368 282.087 673.501 282.82C674.648 283.54 676.061 283.9 677.741 283.9C679.381 283.9 680.674 283.56 681.621 282.88C682.568 282.187 683.041 281.247 683.041 280.06C683.041 279.393 682.888 278.853 682.581 278.44C682.288 278.013 681.681 277.62 680.761 277.26C679.841 276.9 678.468 276.473 676.641 275.98C674.681 275.447 673.148 274.913 672.041 274.38C670.934 273.847 670.148 273.233 669.681 272.54C669.214 271.833 668.981 270.973 668.981 269.96C668.981 268.733 669.328 267.66 670.021 266.74C670.714 265.807 671.674 265.087 672.901 264.58C674.128 264.06 675.554 263.8 677.181 263.8C678.808 263.8 680.261 264.067 681.541 264.6C682.834 265.12 683.874 265.853 684.661 266.8C685.448 267.747 685.914 268.847 686.061 270.1L683.061 270.64C682.861 269.373 682.228 268.373 681.161 267.64C680.108 266.893 678.768 266.507 677.141 266.48C675.608 266.44 674.361 266.733 673.401 267.36C672.441 267.973 671.961 268.793 671.961 269.82C671.961 270.393 672.134 270.887 672.481 271.3C672.828 271.7 673.454 272.08 674.361 272.44C675.281 272.8 676.588 273.193 678.281 273.62C680.268 274.127 681.828 274.66 682.961 275.22C684.094 275.78 684.901 276.44 685.381 277.2C685.861 277.96 686.101 278.9 686.101 280.02C686.101 282.06 685.341 283.667 683.821 284.84C682.314 286 680.234 286.58 677.581 286.58Z" fill="white"></path><defs><linearGradient id="paint0_linear_3968_1082" x1="25" y1="-38" x2="908.5" y2="566" gradientUnits="userSpaceOnUse"><stop stop-color="#321193"></stop><stop offset="1" stop-color="#E54D95"></stop></linearGradient></defs></svg> 