<?xml version="1.0" encoding="UTF-8"?> <svg xmlns="http://www.w3.org/2000/svg" width="900" height="540" viewBox="0 0 900 540" fill="none"><rect width="900" height="540" rx="30" fill="url(#paint0_linear_3968_1084)"></rect><path d="M170.037 286V257.2H181.157C182.77 257.2 184.177 257.533 185.377 258.2C186.577 258.867 187.51 259.767 188.177 260.9C188.843 262.02 189.177 263.26 189.177 264.62C189.177 266.167 188.763 267.547 187.937 268.76C187.11 269.96 186.003 270.793 184.617 271.26L184.577 270.28C186.443 270.813 187.91 271.747 188.977 273.08C190.043 274.413 190.577 276.027 190.577 277.92C190.577 279.587 190.223 281.027 189.517 282.24C188.81 283.44 187.817 284.367 186.537 285.02C185.257 285.673 183.77 286 182.077 286H170.037ZM172.997 283.18H181.357C182.53 283.18 183.583 282.973 184.517 282.56C185.45 282.133 186.183 281.533 186.717 280.76C187.263 279.987 187.537 279.053 187.537 277.96C187.537 276.893 187.29 275.933 186.797 275.08C186.303 274.227 185.63 273.547 184.777 273.04C183.937 272.52 182.977 272.26 181.897 272.26H172.997V283.18ZM172.997 269.48H181.137C182.057 269.48 182.897 269.273 183.657 268.86C184.417 268.433 185.017 267.853 185.457 267.12C185.91 266.387 186.137 265.54 186.137 264.58C186.137 263.22 185.663 262.113 184.717 261.26C183.783 260.407 182.59 259.98 181.137 259.98H172.997V269.48ZM202.908 286.6C200.801 286.6 198.975 286.133 197.428 285.2C195.895 284.267 194.701 282.953 193.848 281.26C192.995 279.567 192.568 277.58 192.568 275.3C192.568 272.94 192.988 270.9 193.828 269.18C194.668 267.46 195.848 266.133 197.368 265.2C198.901 264.267 200.708 263.8 202.788 263.8C204.921 263.8 206.741 264.293 208.248 265.28C209.755 266.253 210.895 267.653 211.668 269.48C212.441 271.307 212.795 273.487 212.728 276.02H209.728V274.98C209.675 272.18 209.068 270.067 207.908 268.64C206.761 267.213 205.081 266.5 202.868 266.5C200.548 266.5 198.768 267.253 197.528 268.76C196.301 270.267 195.688 272.413 195.688 275.2C195.688 277.92 196.301 280.033 197.528 281.54C198.768 283.033 200.521 283.78 202.788 283.78C204.335 283.78 205.681 283.427 206.828 282.72C207.988 282 208.901 280.967 209.568 279.62L212.308 280.68C211.455 282.56 210.195 284.02 208.528 285.06C206.875 286.087 205.001 286.6 202.908 286.6ZM194.648 276.02V273.56H211.148V276.02H194.648ZM225.326 286.6C223.153 286.6 221.313 286.113 219.806 285.14C218.3 284.167 217.153 282.827 216.366 281.12C215.593 279.4 215.193 277.427 215.166 275.2C215.193 272.933 215.606 270.947 216.406 269.24C217.206 267.52 218.36 266.187 219.866 265.24C221.373 264.28 223.2 263.8 225.346 263.8C227.533 263.8 229.433 264.333 231.046 265.4C232.673 266.467 233.786 267.927 234.386 269.78L231.506 270.7C231 269.407 230.193 268.407 229.086 267.7C227.993 266.98 226.74 266.62 225.326 266.62C223.74 266.62 222.426 266.987 221.386 267.72C220.346 268.44 219.573 269.447 219.066 270.74C218.56 272.033 218.3 273.52 218.286 275.2C218.313 277.787 218.913 279.867 220.086 281.44C221.26 283 223.006 283.78 225.326 283.78C226.793 283.78 228.04 283.447 229.066 282.78C230.106 282.1 230.893 281.113 231.426 279.82L234.386 280.7C233.586 282.62 232.413 284.087 230.866 285.1C229.32 286.1 227.473 286.6 225.326 286.6ZM246.149 286.6C244.002 286.6 242.169 286.113 240.649 285.14C239.129 284.167 237.962 282.82 237.149 281.1C236.336 279.38 235.929 277.407 235.929 275.18C235.929 272.913 236.342 270.927 237.169 269.22C237.996 267.513 239.169 266.187 240.689 265.24C242.222 264.28 244.042 263.8 246.149 263.8C248.309 263.8 250.149 264.287 251.669 265.26C253.202 266.22 254.369 267.56 255.169 269.28C255.982 270.987 256.389 272.953 256.389 275.18C256.389 277.447 255.982 279.44 255.169 281.16C254.356 282.867 253.182 284.2 251.649 285.16C250.116 286.12 248.282 286.6 246.149 286.6ZM246.149 283.78C248.549 283.78 250.336 282.987 251.509 281.4C252.682 279.8 253.269 277.727 253.269 275.18C253.269 272.567 252.676 270.487 251.489 268.94C250.316 267.393 248.536 266.62 246.149 266.62C244.536 266.62 243.202 266.987 242.149 267.72C241.109 268.44 240.329 269.447 239.809 270.74C239.302 272.02 239.049 273.5 239.049 275.18C239.049 277.78 239.649 279.867 240.849 281.44C242.049 283 243.816 283.78 246.149 283.78ZM285.761 286L285.781 271.82C285.781 270.153 285.314 268.847 284.381 267.9C283.461 266.94 282.287 266.46 280.861 266.46C280.047 266.46 279.254 266.647 278.481 267.02C277.707 267.393 277.067 267.993 276.561 268.82C276.067 269.647 275.821 270.727 275.821 272.06L274.081 271.56C274.041 270.013 274.341 268.66 274.981 267.5C275.634 266.34 276.527 265.44 277.661 264.8C278.807 264.147 280.101 263.82 281.541 263.82C283.714 263.82 285.454 264.493 286.761 265.84C288.067 267.173 288.721 268.98 288.721 271.26L288.701 286H285.761ZM259.981 286V264.4H262.621V269.72H262.941V286H259.981ZM272.901 286L272.921 272.02C272.921 270.3 272.461 268.947 271.541 267.96C270.634 266.96 269.434 266.46 267.941 266.46C266.447 266.46 265.241 266.973 264.321 268C263.401 269.013 262.941 270.367 262.941 272.06L261.181 271.1C261.181 269.713 261.507 268.473 262.161 267.38C262.814 266.273 263.707 265.407 264.841 264.78C265.974 264.14 267.261 263.82 268.701 263.82C270.074 263.82 271.294 264.113 272.361 264.7C273.441 265.287 274.287 266.14 274.901 267.26C275.514 268.38 275.821 269.74 275.821 271.34L275.801 286H272.901ZM293.507 260.3V257H296.447V260.3H293.507ZM293.507 286V264.4H296.447V286H293.507ZM317.243 286V274.98C317.243 273.78 317.13 272.68 316.903 271.68C316.676 270.667 316.31 269.787 315.803 269.04C315.31 268.28 314.663 267.693 313.863 267.28C313.076 266.867 312.116 266.66 310.983 266.66C309.943 266.66 309.023 266.84 308.223 267.2C307.436 267.56 306.77 268.08 306.223 268.76C305.69 269.427 305.283 270.24 305.003 271.2C304.723 272.16 304.583 273.253 304.583 274.48L302.503 274.02C302.503 271.807 302.89 269.947 303.663 268.44C304.436 266.933 305.503 265.793 306.863 265.02C308.223 264.247 309.783 263.86 311.543 263.86C312.836 263.86 313.963 264.06 314.923 264.46C315.896 264.86 316.716 265.4 317.383 266.08C318.063 266.76 318.61 267.54 319.023 268.42C319.436 269.287 319.736 270.213 319.923 271.2C320.11 272.173 320.203 273.147 320.203 274.12V286H317.243ZM301.623 286V264.4H304.283V269.72H304.583V286H301.623ZM333.173 296.2C332.066 296.2 330.973 296.033 329.893 295.7C328.826 295.38 327.84 294.867 326.933 294.16C326.026 293.467 325.266 292.56 324.653 291.44L327.313 289.96C327.913 291.16 328.753 292.02 329.833 292.54C330.926 293.073 332.04 293.34 333.173 293.34C334.733 293.34 335.993 293.047 336.953 292.46C337.926 291.887 338.633 291.033 339.073 289.9C339.513 288.767 339.726 287.353 339.713 285.66V279.9H340.053V264.4H342.673V285.7C342.673 286.313 342.653 286.9 342.613 287.46C342.586 288.033 342.526 288.593 342.433 289.14C342.18 290.753 341.653 292.08 340.853 293.12C340.066 294.16 339.026 294.933 337.733 295.44C336.453 295.947 334.933 296.2 333.173 296.2ZM332.973 286.6C330.96 286.6 329.24 286.1 327.813 285.1C326.386 284.087 325.293 282.72 324.533 281C323.773 279.28 323.393 277.34 323.393 275.18C323.393 273.033 323.766 271.1 324.513 269.38C325.273 267.66 326.36 266.3 327.773 265.3C329.186 264.3 330.88 263.8 332.853 263.8C334.88 263.8 336.586 264.293 337.973 265.28C339.36 266.267 340.406 267.62 341.113 269.34C341.833 271.047 342.193 272.993 342.193 275.18C342.193 277.327 341.84 279.267 341.133 281C340.426 282.72 339.386 284.087 338.013 285.1C336.64 286.1 334.96 286.6 332.973 286.6ZM333.273 283.86C334.806 283.86 336.073 283.487 337.073 282.74C338.073 281.993 338.82 280.967 339.313 279.66C339.806 278.34 340.053 276.847 340.053 275.18C340.053 273.487 339.806 271.993 339.313 270.7C338.82 269.393 338.073 268.373 337.073 267.64C336.086 266.907 334.84 266.54 333.333 266.54C331.786 266.54 330.506 266.92 329.493 267.68C328.48 268.44 327.726 269.473 327.233 270.78C326.753 272.087 326.513 273.553 326.513 275.18C326.513 276.82 326.76 278.3 327.253 279.62C327.76 280.927 328.513 281.96 329.513 282.72C330.513 283.48 331.766 283.86 333.273 283.86ZM360.853 286.6C359.226 286.6 357.859 286.307 356.753 285.72C355.659 285.133 354.839 284.353 354.293 283.38C353.746 282.407 353.473 281.347 353.473 280.2C353.473 279.027 353.706 278.027 354.173 277.2C354.653 276.36 355.299 275.673 356.113 275.14C356.939 274.607 357.893 274.2 358.973 273.92C360.066 273.653 361.273 273.42 362.593 273.22C363.926 273.007 365.226 272.827 366.493 272.68C367.773 272.52 368.893 272.367 369.853 272.22L368.813 272.86C368.853 270.727 368.439 269.147 367.573 268.12C366.706 267.093 365.199 266.58 363.053 266.58C361.573 266.58 360.319 266.913 359.293 267.58C358.279 268.247 357.566 269.3 357.153 270.74L354.293 269.9C354.786 267.967 355.779 266.467 357.273 265.4C358.766 264.333 360.706 263.8 363.093 263.8C365.066 263.8 366.739 264.173 368.113 264.92C369.499 265.653 370.479 266.72 371.053 268.12C371.319 268.747 371.493 269.447 371.573 270.22C371.653 270.993 371.693 271.78 371.693 272.58V286H369.073V280.58L369.833 280.9C369.099 282.753 367.959 284.167 366.413 285.14C364.866 286.113 363.013 286.6 360.853 286.6ZM361.193 284.06C362.566 284.06 363.766 283.813 364.793 283.32C365.819 282.827 366.646 282.153 367.273 281.3C367.899 280.433 368.306 279.46 368.493 278.38C368.653 277.687 368.739 276.927 368.753 276.1C368.766 275.26 368.773 274.633 368.773 274.22L369.893 274.8C368.893 274.933 367.806 275.067 366.633 275.2C365.473 275.333 364.326 275.487 363.193 275.66C362.073 275.833 361.059 276.04 360.153 276.28C359.539 276.453 358.946 276.7 358.373 277.02C357.799 277.327 357.326 277.74 356.953 278.26C356.593 278.78 356.413 279.427 356.413 280.2C356.413 280.827 356.566 281.433 356.873 282.02C357.193 282.607 357.699 283.093 358.393 283.48C359.099 283.867 360.033 284.06 361.193 284.06ZM393.007 286.6C391.02 286.6 389.34 286.1 387.967 285.1C386.594 284.087 385.554 282.72 384.847 281C384.14 279.267 383.787 277.327 383.787 275.18C383.787 272.993 384.14 271.047 384.847 269.34C385.567 267.62 386.62 266.267 388.007 265.28C389.394 264.293 391.1 263.8 393.127 263.8C395.1 263.8 396.794 264.3 398.207 265.3C399.62 266.3 400.7 267.66 401.447 269.38C402.207 271.1 402.587 273.033 402.587 275.18C402.587 277.34 402.207 279.28 401.447 281C400.687 282.72 399.594 284.087 398.167 285.1C396.74 286.1 395.02 286.6 393.007 286.6ZM383.287 295.6V264.4H385.927V280.66H386.247V295.6H383.287ZM392.707 283.86C394.214 283.86 395.467 283.48 396.467 282.72C397.467 281.96 398.214 280.927 398.707 279.62C399.214 278.3 399.467 276.82 399.467 275.18C399.467 273.553 399.22 272.087 398.727 270.78C398.234 269.473 397.48 268.44 396.467 267.68C395.467 266.92 394.194 266.54 392.647 266.54C391.14 266.54 389.887 266.907 388.887 267.64C387.9 268.373 387.16 269.393 386.667 270.7C386.174 271.993 385.927 273.487 385.927 275.18C385.927 276.847 386.174 278.34 386.667 279.66C387.16 280.967 387.907 281.993 388.907 282.74C389.907 283.487 391.174 283.86 392.707 283.86ZM406.179 286V264.4H408.819V269.6L408.299 268.92C408.539 268.28 408.852 267.693 409.239 267.16C409.626 266.613 410.046 266.167 410.499 265.82C411.059 265.327 411.712 264.953 412.459 264.7C413.206 264.433 413.959 264.28 414.719 264.24C415.479 264.187 416.172 264.24 416.799 264.4V267.16C416.012 266.96 415.152 266.913 414.219 267.02C413.286 267.127 412.426 267.5 411.639 268.14C410.919 268.7 410.379 269.373 410.019 270.16C409.659 270.933 409.419 271.76 409.299 272.64C409.179 273.507 409.119 274.367 409.119 275.22V286H406.179ZM428.422 286.6C426.276 286.6 424.442 286.113 422.922 285.14C421.402 284.167 420.236 282.82 419.422 281.1C418.609 279.38 418.202 277.407 418.202 275.18C418.202 272.913 418.616 270.927 419.442 269.22C420.269 267.513 421.442 266.187 422.962 265.24C424.496 264.28 426.316 263.8 428.422 263.8C430.582 263.8 432.422 264.287 433.942 265.26C435.476 266.22 436.642 267.56 437.442 269.28C438.256 270.987 438.662 272.953 438.662 275.18C438.662 277.447 438.256 279.44 437.442 281.16C436.629 282.867 435.456 284.2 433.922 285.16C432.389 286.12 430.556 286.6 428.422 286.6ZM428.422 283.78C430.822 283.78 432.609 282.987 433.782 281.4C434.956 279.8 435.542 277.727 435.542 275.18C435.542 272.567 434.949 270.487 433.762 268.94C432.589 267.393 430.809 266.62 428.422 266.62C426.809 266.62 425.476 266.987 424.422 267.72C423.382 268.44 422.602 269.447 422.082 270.74C421.576 272.02 421.322 273.5 421.322 275.18C421.322 277.78 421.922 279.867 423.122 281.44C424.322 283 426.089 283.78 428.422 283.78ZM444.414 286V262.8C444.414 262.24 444.441 261.687 444.494 261.14C444.561 260.593 444.688 260.073 444.874 259.58C445.061 259.073 445.354 258.607 445.754 258.18C446.194 257.7 446.674 257.353 447.194 257.14C447.714 256.913 448.254 256.767 448.814 256.7C449.388 256.633 449.948 256.6 450.494 256.6H453.254V259.08H450.694C449.574 259.08 448.734 259.353 448.174 259.9C447.628 260.447 447.354 261.307 447.354 262.48V286H444.414ZM440.674 266.92V264.4H453.254V266.92H440.674ZM464.013 286.6C461.906 286.6 460.079 286.133 458.533 285.2C456.999 284.267 455.806 282.953 454.953 281.26C454.099 279.567 453.673 277.58 453.673 275.3C453.673 272.94 454.093 270.9 454.933 269.18C455.773 267.46 456.953 266.133 458.473 265.2C460.006 264.267 461.813 263.8 463.893 263.8C466.026 263.8 467.846 264.293 469.353 265.28C470.859 266.253 471.999 267.653 472.773 269.48C473.546 271.307 473.899 273.487 473.833 276.02H470.833V274.98C470.779 272.18 470.173 270.067 469.013 268.64C467.866 267.213 466.186 266.5 463.973 266.5C461.653 266.5 459.873 267.253 458.633 268.76C457.406 270.267 456.793 272.413 456.793 275.2C456.793 277.92 457.406 280.033 458.633 281.54C459.873 283.033 461.626 283.78 463.893 283.78C465.439 283.78 466.786 283.427 467.933 282.72C469.093 282 470.006 280.967 470.673 279.62L473.413 280.68C472.559 282.56 471.299 284.02 469.633 285.06C467.979 286.087 466.106 286.6 464.013 286.6ZM455.753 276.02V273.56H472.253V276.02H455.753ZM485.531 286.58C482.998 286.58 480.911 286.033 479.271 284.94C477.644 283.847 476.644 282.327 476.271 280.38L479.271 279.88C479.591 281.107 480.318 282.087 481.451 282.82C482.598 283.54 484.011 283.9 485.691 283.9C487.331 283.9 488.624 283.56 489.571 282.88C490.518 282.187 490.991 281.247 490.991 280.06C490.991 279.393 490.838 278.853 490.531 278.44C490.238 278.013 489.631 277.62 488.711 277.26C487.791 276.9 486.418 276.473 484.591 275.98C482.631 275.447 481.098 274.913 479.991 274.38C478.884 273.847 478.098 273.233 477.631 272.54C477.164 271.833 476.931 270.973 476.931 269.96C476.931 268.733 477.278 267.66 477.971 266.74C478.664 265.807 479.624 265.087 480.851 264.58C482.078 264.06 483.504 263.8 485.131 263.8C486.758 263.8 488.211 264.067 489.491 264.6C490.784 265.12 491.824 265.853 492.611 266.8C493.398 267.747 493.864 268.847 494.011 270.1L491.011 270.64C490.811 269.373 490.178 268.373 489.111 267.64C488.058 266.893 486.718 266.507 485.091 266.48C483.558 266.44 482.311 266.733 481.351 267.36C480.391 267.973 479.911 268.793 479.911 269.82C479.911 270.393 480.084 270.887 480.431 271.3C480.778 271.7 481.404 272.08 482.311 272.44C483.231 272.8 484.538 273.193 486.231 273.62C488.218 274.127 489.778 274.66 490.911 275.22C492.044 275.78 492.851 276.44 493.331 277.2C493.811 277.96 494.051 278.9 494.051 280.02C494.051 282.06 493.291 283.667 491.771 284.84C490.264 286 488.184 286.58 485.531 286.58ZM505.747 286.58C503.213 286.58 501.127 286.033 499.487 284.94C497.86 283.847 496.86 282.327 496.487 280.38L499.487 279.88C499.807 281.107 500.533 282.087 501.667 282.82C502.813 283.54 504.227 283.9 505.907 283.9C507.547 283.9 508.84 283.56 509.787 282.88C510.733 282.187 511.207 281.247 511.207 280.06C511.207 279.393 511.053 278.853 510.747 278.44C510.453 278.013 509.847 277.62 508.927 277.26C508.007 276.9 506.633 276.473 504.807 275.98C502.847 275.447 501.313 274.913 500.207 274.38C499.1 273.847 498.313 273.233 497.847 272.54C497.38 271.833 497.147 270.973 497.147 269.96C497.147 268.733 497.493 267.66 498.187 266.74C498.88 265.807 499.84 265.087 501.067 264.58C502.293 264.06 503.72 263.8 505.347 263.8C506.973 263.8 508.427 264.067 509.707 264.6C511 265.12 512.04 265.853 512.827 266.8C513.613 267.747 514.08 268.847 514.227 270.1L511.227 270.64C511.027 269.373 510.393 268.373 509.327 267.64C508.273 266.893 506.933 266.507 505.307 266.48C503.773 266.44 502.527 266.733 501.567 267.36C500.607 267.973 500.127 268.793 500.127 269.82C500.127 270.393 500.3 270.887 500.647 271.3C500.993 271.7 501.62 272.08 502.527 272.44C503.447 272.8 504.753 273.193 506.447 273.62C508.433 274.127 509.993 274.66 511.127 275.22C512.26 275.78 513.067 276.44 513.547 277.2C514.027 277.96 514.267 278.9 514.267 280.02C514.267 282.06 513.507 283.667 511.987 284.84C510.48 286 508.4 286.58 505.747 286.58ZM518.302 260.3V257H521.242V260.3H518.302ZM518.302 286V264.4H521.242V286H518.302ZM535.458 286.6C533.312 286.6 531.478 286.113 529.958 285.14C528.438 284.167 527.272 282.82 526.458 281.1C525.645 279.38 525.238 277.407 525.238 275.18C525.238 272.913 525.652 270.927 526.478 269.22C527.305 267.513 528.478 266.187 529.998 265.24C531.532 264.28 533.352 263.8 535.458 263.8C537.618 263.8 539.458 264.287 540.978 265.26C542.512 266.22 543.678 267.56 544.478 269.28C545.292 270.987 545.698 272.953 545.698 275.18C545.698 277.447 545.292 279.44 544.478 281.16C543.665 282.867 542.492 284.2 540.958 285.16C539.425 286.12 537.592 286.6 535.458 286.6ZM535.458 283.78C537.858 283.78 539.645 282.987 540.818 281.4C541.992 279.8 542.578 277.727 542.578 275.18C542.578 272.567 541.985 270.487 540.798 268.94C539.625 267.393 537.845 266.62 535.458 266.62C533.845 266.62 532.512 266.987 531.458 267.72C530.418 268.44 529.638 269.447 529.118 270.74C528.612 272.02 528.358 273.5 528.358 275.18C528.358 277.78 528.958 279.867 530.158 281.44C531.358 283 533.125 283.78 535.458 283.78ZM564.91 286V274.98C564.91 273.78 564.797 272.68 564.57 271.68C564.343 270.667 563.977 269.787 563.47 269.04C562.977 268.28 562.33 267.693 561.53 267.28C560.743 266.867 559.783 266.66 558.65 266.66C557.61 266.66 556.69 266.84 555.89 267.2C555.103 267.56 554.437 268.08 553.89 268.76C553.357 269.427 552.95 270.24 552.67 271.2C552.39 272.16 552.25 273.253 552.25 274.48L550.17 274.02C550.17 271.807 550.557 269.947 551.33 268.44C552.103 266.933 553.17 265.793 554.53 265.02C555.89 264.247 557.45 263.86 559.21 263.86C560.503 263.86 561.63 264.06 562.59 264.46C563.563 264.86 564.383 265.4 565.05 266.08C565.73 266.76 566.277 267.54 566.69 268.42C567.103 269.287 567.403 270.213 567.59 271.2C567.777 272.173 567.87 273.147 567.87 274.12V286H564.91ZM549.29 286V264.4H551.95V269.72H552.25V286H549.29ZM578.44 286.6C576.814 286.6 575.447 286.307 574.34 285.72C573.247 285.133 572.427 284.353 571.88 283.38C571.334 282.407 571.06 281.347 571.06 280.2C571.06 279.027 571.294 278.027 571.76 277.2C572.24 276.36 572.887 275.673 573.7 275.14C574.527 274.607 575.48 274.2 576.56 273.92C577.654 273.653 578.86 273.42 580.18 273.22C581.514 273.007 582.814 272.827 584.08 272.68C585.36 272.52 586.48 272.367 587.44 272.22L586.4 272.86C586.44 270.727 586.027 269.147 585.16 268.12C584.294 267.093 582.787 266.58 580.64 266.58C579.16 266.58 577.907 266.913 576.88 267.58C575.867 268.247 575.154 269.3 574.74 270.74L571.88 269.9C572.374 267.967 573.367 266.467 574.86 265.4C576.354 264.333 578.294 263.8 580.68 263.8C582.654 263.8 584.327 264.173 585.7 264.92C587.087 265.653 588.067 266.72 588.64 268.12C588.907 268.747 589.08 269.447 589.16 270.22C589.24 270.993 589.28 271.78 589.28 272.58V286H586.66V280.58L587.42 280.9C586.687 282.753 585.547 284.167 584 285.14C582.454 286.113 580.6 286.6 578.44 286.6ZM578.78 284.06C580.154 284.06 581.354 283.813 582.38 283.32C583.407 282.827 584.234 282.153 584.86 281.3C585.487 280.433 585.894 279.46 586.08 278.38C586.24 277.687 586.327 276.927 586.34 276.1C586.354 275.26 586.36 274.633 586.36 274.22L587.48 274.8C586.48 274.933 585.394 275.067 584.22 275.2C583.06 275.333 581.914 275.487 580.78 275.66C579.66 275.833 578.647 276.04 577.74 276.28C577.127 276.453 576.534 276.7 575.96 277.02C575.387 277.327 574.914 277.74 574.54 278.26C574.18 278.78 574 279.427 574 280.2C574 280.827 574.154 281.433 574.46 282.02C574.78 282.607 575.287 283.093 575.98 283.48C576.687 283.867 577.62 284.06 578.78 284.06ZM594.087 286V256.6H597.027V286H594.087ZM625.03 286V274.98C625.03 273.78 624.917 272.68 624.69 271.68C624.464 270.667 624.097 269.787 623.59 269.04C623.097 268.28 622.45 267.693 621.65 267.28C620.864 266.867 619.904 266.66 618.77 266.66C617.73 266.66 616.81 266.84 616.01 267.2C615.224 267.56 614.557 268.08 614.01 268.76C613.477 269.427 613.07 270.24 612.79 271.2C612.51 272.16 612.37 273.253 612.37 274.48L610.29 274.02C610.29 271.807 610.677 269.947 611.45 268.44C612.224 266.933 613.29 265.793 614.65 265.02C616.01 264.247 617.57 263.86 619.33 263.86C620.624 263.86 621.75 264.06 622.71 264.46C623.684 264.86 624.504 265.4 625.17 266.08C625.85 266.76 626.397 267.54 626.81 268.42C627.224 269.287 627.524 270.213 627.71 271.2C627.897 272.173 627.99 273.147 627.99 274.12V286H625.03ZM609.41 286V264.4H612.07V269.72H612.37V286H609.41ZM638.56 286.6C636.934 286.6 635.567 286.307 634.46 285.72C633.367 285.133 632.547 284.353 632 283.38C631.454 282.407 631.18 281.347 631.18 280.2C631.18 279.027 631.414 278.027 631.88 277.2C632.36 276.36 633.007 275.673 633.82 275.14C634.647 274.607 635.6 274.2 636.68 273.92C637.774 273.653 638.98 273.42 640.3 273.22C641.634 273.007 642.934 272.827 644.2 272.68C645.48 272.52 646.6 272.367 647.56 272.22L646.52 272.86C646.56 270.727 646.147 269.147 645.28 268.12C644.414 267.093 642.907 266.58 640.76 266.58C639.28 266.58 638.027 266.913 637 267.58C635.987 268.247 635.274 269.3 634.86 270.74L632 269.9C632.494 267.967 633.487 266.467 634.98 265.4C636.474 264.333 638.414 263.8 640.8 263.8C642.774 263.8 644.447 264.173 645.82 264.92C647.207 265.653 648.187 266.72 648.76 268.12C649.027 268.747 649.2 269.447 649.28 270.22C649.36 270.993 649.4 271.78 649.4 272.58V286H646.78V280.58L647.54 280.9C646.807 282.753 645.667 284.167 644.12 285.14C642.574 286.113 640.72 286.6 638.56 286.6ZM638.9 284.06C640.274 284.06 641.474 283.813 642.5 283.32C643.527 282.827 644.354 282.153 644.98 281.3C645.607 280.433 646.014 279.46 646.2 278.38C646.36 277.687 646.447 276.927 646.46 276.1C646.474 275.26 646.48 274.633 646.48 274.22L647.6 274.8C646.6 274.933 645.514 275.067 644.34 275.2C643.18 275.333 642.034 275.487 640.9 275.66C639.78 275.833 638.767 276.04 637.86 276.28C637.247 276.453 636.654 276.7 636.08 277.02C635.507 277.327 635.034 277.74 634.66 278.26C634.3 278.78 634.12 279.427 634.12 280.2C634.12 280.827 634.274 281.433 634.58 282.02C634.9 282.607 635.407 283.093 636.1 283.48C636.807 283.867 637.74 284.06 638.9 284.06ZM663.507 286.6C661.52 286.6 659.84 286.1 658.467 285.1C657.094 284.087 656.054 282.72 655.347 281C654.64 279.267 654.287 277.327 654.287 275.18C654.287 272.993 654.64 271.047 655.347 269.34C656.067 267.62 657.12 266.267 658.507 265.28C659.894 264.293 661.6 263.8 663.627 263.8C665.6 263.8 667.294 264.3 668.707 265.3C670.12 266.3 671.2 267.66 671.947 269.38C672.707 271.1 673.087 273.033 673.087 275.18C673.087 277.34 672.707 279.28 671.947 281C671.187 282.72 670.094 284.087 668.667 285.1C667.24 286.1 665.52 286.6 663.507 286.6ZM653.787 295.6V264.4H656.427V280.66H656.747V295.6H653.787ZM663.207 283.86C664.714 283.86 665.967 283.48 666.967 282.72C667.967 281.96 668.714 280.927 669.207 279.62C669.714 278.3 669.967 276.82 669.967 275.18C669.967 273.553 669.72 272.087 669.227 270.78C668.734 269.473 667.98 268.44 666.967 267.68C665.967 266.92 664.694 266.54 663.147 266.54C661.64 266.54 660.387 266.907 659.387 267.64C658.4 268.373 657.66 269.393 657.167 270.7C656.674 271.993 656.427 273.487 656.427 275.18C656.427 276.847 656.674 278.34 657.167 279.66C657.66 280.967 658.407 281.993 659.407 282.74C660.407 283.487 661.674 283.86 663.207 283.86ZM686.379 286.6C684.392 286.6 682.712 286.1 681.339 285.1C679.966 284.087 678.926 282.72 678.219 281C677.512 279.267 677.159 277.327 677.159 275.18C677.159 272.993 677.512 271.047 678.219 269.34C678.939 267.62 679.992 266.267 681.379 265.28C682.766 264.293 684.472 263.8 686.499 263.8C688.472 263.8 690.166 264.3 691.579 265.3C692.992 266.3 694.072 267.66 694.819 269.38C695.579 271.1 695.959 273.033 695.959 275.18C695.959 277.34 695.579 279.28 694.819 281C694.059 282.72 692.966 284.087 691.539 285.1C690.112 286.1 688.392 286.6 686.379 286.6ZM676.659 295.6V264.4H679.299V280.66H679.619V295.6H676.659ZM686.079 283.86C687.586 283.86 688.839 283.48 689.839 282.72C690.839 281.96 691.586 280.927 692.079 279.62C692.586 278.3 692.839 276.82 692.839 275.18C692.839 273.553 692.592 272.087 692.099 270.78C691.606 269.473 690.852 268.44 689.839 267.68C688.839 266.92 687.566 266.54 686.019 266.54C684.512 266.54 683.259 266.907 682.259 267.64C681.272 268.373 680.532 269.393 680.039 270.7C679.546 271.993 679.299 273.487 679.299 275.18C679.299 276.847 679.546 278.34 680.039 279.66C680.532 280.967 681.279 281.993 682.279 282.74C683.279 283.487 684.546 283.86 686.079 283.86ZM708.691 286.6C706.584 286.6 704.757 286.133 703.211 285.2C701.677 284.267 700.484 282.953 699.631 281.26C698.777 279.567 698.351 277.58 698.351 275.3C698.351 272.94 698.771 270.9 699.611 269.18C700.451 267.46 701.631 266.133 703.151 265.2C704.684 264.267 706.491 263.8 708.571 263.8C710.704 263.8 712.524 264.293 714.031 265.28C715.537 266.253 716.677 267.653 717.451 269.48C718.224 271.307 718.577 273.487 718.511 276.02H715.511V274.98C715.457 272.18 714.851 270.067 713.691 268.64C712.544 267.213 710.864 266.5 708.651 266.5C706.331 266.5 704.551 267.253 703.311 268.76C702.084 270.267 701.471 272.413 701.471 275.2C701.471 277.92 702.084 280.033 703.311 281.54C704.551 283.033 706.304 283.78 708.571 283.78C710.117 283.78 711.464 283.427 712.611 282.72C713.771 282 714.684 280.967 715.351 279.62L718.091 280.68C717.237 282.56 715.977 284.02 714.311 285.06C712.657 286.087 710.784 286.6 708.691 286.6ZM700.431 276.02V273.56H716.931V276.02H700.431ZM722.149 286V264.4H724.789V269.6L724.269 268.92C724.509 268.28 724.823 267.693 725.209 267.16C725.596 266.613 726.016 266.167 726.469 265.82C727.029 265.327 727.683 264.953 728.429 264.7C729.176 264.433 729.929 264.28 730.689 264.24C731.449 264.187 732.143 264.24 732.769 264.4V267.16C731.983 266.96 731.123 266.913 730.189 267.02C729.256 267.127 728.396 267.5 727.609 268.14C726.889 268.7 726.349 269.373 725.989 270.16C725.629 270.933 725.389 271.76 725.269 272.64C725.149 273.507 725.089 274.367 725.089 275.22V286H722.149Z" fill="white"></path><defs><linearGradient id="paint0_linear_3968_1084" x1="25" y1="-38" x2="908.5" y2="566" gradientUnits="userSpaceOnUse"><stop stop-color="#321193"></stop><stop offset="1" stop-color="#E54D95"></stop></linearGradient></defs></svg> 