<?xml version="1.0" encoding="UTF-8"?> <svg xmlns="http://www.w3.org/2000/svg" width="900" height="540" viewBox="0 0 900 540" fill="none"><rect width="900" height="540" rx="30" fill="url(#paint0_linear_3968_1086)"></rect><path d="M242.683 286V257.2H245.623V283.18H259.303V286H242.683ZM262.313 260.3V257H265.253V260.3H262.313ZM262.313 286V264.4H265.253V286H262.313ZM276.288 286L268.448 264.4H271.428L277.808 282.16L284.148 264.4H287.168L279.328 286H276.288ZM290.361 260.3V257H293.301V260.3H290.361ZM290.361 286V264.4H293.301V286H290.361ZM314.097 286V274.98C314.097 273.78 313.984 272.68 313.757 271.68C313.53 270.667 313.164 269.787 312.657 269.04C312.164 268.28 311.517 267.693 310.717 267.28C309.93 266.867 308.97 266.66 307.837 266.66C306.797 266.66 305.877 266.84 305.077 267.2C304.29 267.56 303.624 268.08 303.077 268.76C302.544 269.427 302.137 270.24 301.857 271.2C301.577 272.16 301.437 273.253 301.437 274.48L299.357 274.02C299.357 271.807 299.744 269.947 300.517 268.44C301.29 266.933 302.357 265.793 303.717 265.02C305.077 264.247 306.637 263.86 308.397 263.86C309.69 263.86 310.817 264.06 311.777 264.46C312.75 264.86 313.57 265.4 314.237 266.08C314.917 266.76 315.464 267.54 315.877 268.42C316.29 269.287 316.59 270.213 316.777 271.2C316.964 272.173 317.057 273.147 317.057 274.12V286H314.097ZM298.477 286V264.4H301.137V269.72H301.437V286H298.477ZM330.027 296.2C328.92 296.2 327.827 296.033 326.747 295.7C325.68 295.38 324.694 294.867 323.787 294.16C322.88 293.467 322.12 292.56 321.507 291.44L324.167 289.96C324.767 291.16 325.607 292.02 326.687 292.54C327.78 293.073 328.894 293.34 330.027 293.34C331.587 293.34 332.847 293.047 333.807 292.46C334.78 291.887 335.487 291.033 335.927 289.9C336.367 288.767 336.58 287.353 336.567 285.66V279.9H336.907V264.4H339.527V285.7C339.527 286.313 339.507 286.9 339.467 287.46C339.44 288.033 339.38 288.593 339.287 289.14C339.034 290.753 338.507 292.08 337.707 293.12C336.92 294.16 335.88 294.933 334.587 295.44C333.307 295.947 331.787 296.2 330.027 296.2ZM329.827 286.6C327.814 286.6 326.094 286.1 324.667 285.1C323.24 284.087 322.147 282.72 321.387 281C320.627 279.28 320.247 277.34 320.247 275.18C320.247 273.033 320.62 271.1 321.367 269.38C322.127 267.66 323.214 266.3 324.627 265.3C326.04 264.3 327.734 263.8 329.707 263.8C331.734 263.8 333.44 264.293 334.827 265.28C336.214 266.267 337.26 267.62 337.967 269.34C338.687 271.047 339.047 272.993 339.047 275.18C339.047 277.327 338.694 279.267 337.987 281C337.28 282.72 336.24 284.087 334.867 285.1C333.494 286.1 331.814 286.6 329.827 286.6ZM330.127 283.86C331.66 283.86 332.927 283.487 333.927 282.74C334.927 281.993 335.674 280.967 336.167 279.66C336.66 278.34 336.907 276.847 336.907 275.18C336.907 273.487 336.66 271.993 336.167 270.7C335.674 269.393 334.927 268.373 333.927 267.64C332.94 266.907 331.694 266.54 330.187 266.54C328.64 266.54 327.36 266.92 326.347 267.68C325.334 268.44 324.58 269.473 324.087 270.78C323.607 272.087 323.367 273.553 323.367 275.18C323.367 276.82 323.614 278.3 324.107 279.62C324.614 280.927 325.367 281.96 326.367 282.72C327.367 283.48 328.62 283.86 330.127 283.86ZM351.927 260.3V257H354.867V260.3H351.927ZM351.927 286V264.4H354.867V286H351.927ZM375.663 286V274.98C375.663 273.78 375.549 272.68 375.323 271.68C375.096 270.667 374.729 269.787 374.223 269.04C373.729 268.28 373.083 267.693 372.283 267.28C371.496 266.867 370.536 266.66 369.403 266.66C368.363 266.66 367.443 266.84 366.643 267.2C365.856 267.56 365.189 268.08 364.643 268.76C364.109 269.427 363.703 270.24 363.423 271.2C363.143 272.16 363.003 273.253 363.003 274.48L360.923 274.02C360.923 271.807 361.309 269.947 362.083 268.44C362.856 266.933 363.923 265.793 365.283 265.02C366.643 264.247 368.203 263.86 369.963 263.86C371.256 263.86 372.383 264.06 373.343 264.46C374.316 264.86 375.136 265.4 375.803 266.08C376.483 266.76 377.029 267.54 377.443 268.42C377.856 269.287 378.156 270.213 378.343 271.2C378.529 272.173 378.623 273.147 378.623 274.12V286H375.663ZM360.043 286V264.4H362.703V269.72H363.003V286H360.043ZM396.4 286.6C394.774 286.6 393.407 286.307 392.3 285.72C391.207 285.133 390.387 284.353 389.84 283.38C389.294 282.407 389.02 281.347 389.02 280.2C389.02 279.027 389.254 278.027 389.72 277.2C390.2 276.36 390.847 275.673 391.66 275.14C392.487 274.607 393.44 274.2 394.52 273.92C395.614 273.653 396.82 273.42 398.14 273.22C399.474 273.007 400.774 272.827 402.04 272.68C403.32 272.52 404.44 272.367 405.4 272.22L404.36 272.86C404.4 270.727 403.987 269.147 403.12 268.12C402.254 267.093 400.747 266.58 398.6 266.58C397.12 266.58 395.867 266.913 394.84 267.58C393.827 268.247 393.114 269.3 392.7 270.74L389.84 269.9C390.334 267.967 391.327 266.467 392.82 265.4C394.314 264.333 396.254 263.8 398.64 263.8C400.614 263.8 402.287 264.173 403.66 264.92C405.047 265.653 406.027 266.72 406.6 268.12C406.867 268.747 407.04 269.447 407.12 270.22C407.2 270.993 407.24 271.78 407.24 272.58V286H404.62V280.58L405.38 280.9C404.647 282.753 403.507 284.167 401.96 285.14C400.414 286.113 398.56 286.6 396.4 286.6ZM396.74 284.06C398.114 284.06 399.314 283.813 400.34 283.32C401.367 282.827 402.194 282.153 402.82 281.3C403.447 280.433 403.854 279.46 404.04 278.38C404.2 277.687 404.287 276.927 404.3 276.1C404.314 275.26 404.32 274.633 404.32 274.22L405.44 274.8C404.44 274.933 403.354 275.067 402.18 275.2C401.02 275.333 399.874 275.487 398.74 275.66C397.62 275.833 396.607 276.04 395.7 276.28C395.087 276.453 394.494 276.7 393.92 277.02C393.347 277.327 392.874 277.74 392.5 278.26C392.14 278.78 391.96 279.427 391.96 280.2C391.96 280.827 392.114 281.433 392.42 282.02C392.74 282.607 393.247 283.093 393.94 283.48C394.647 283.867 395.58 284.06 396.74 284.06ZM427.815 286.6C425.641 286.6 423.801 286.113 422.295 285.14C420.788 284.167 419.641 282.827 418.855 281.12C418.081 279.4 417.681 277.427 417.655 275.2C417.681 272.933 418.095 270.947 418.895 269.24C419.695 267.52 420.848 266.187 422.355 265.24C423.861 264.28 425.688 263.8 427.835 263.8C430.021 263.8 431.921 264.333 433.535 265.4C435.161 266.467 436.275 267.927 436.875 269.78L433.995 270.7C433.488 269.407 432.681 268.407 431.575 267.7C430.481 266.98 429.228 266.62 427.815 266.62C426.228 266.62 424.915 266.987 423.875 267.72C422.835 268.44 422.061 269.447 421.555 270.74C421.048 272.033 420.788 273.52 420.775 275.2C420.801 277.787 421.401 279.867 422.575 281.44C423.748 283 425.495 283.78 427.815 283.78C429.281 283.78 430.528 283.447 431.555 282.78C432.595 282.1 433.381 281.113 433.915 279.82L436.875 280.7C436.075 282.62 434.901 284.087 433.355 285.1C431.808 286.1 429.961 286.6 427.815 286.6ZM446.266 286.6C444.639 286.6 443.273 286.307 442.166 285.72C441.073 285.133 440.253 284.353 439.706 283.38C439.159 282.407 438.886 281.347 438.886 280.2C438.886 279.027 439.119 278.027 439.586 277.2C440.066 276.36 440.713 275.673 441.526 275.14C442.353 274.607 443.306 274.2 444.386 273.92C445.479 273.653 446.686 273.42 448.006 273.22C449.339 273.007 450.639 272.827 451.906 272.68C453.186 272.52 454.306 272.367 455.266 272.22L454.226 272.86C454.266 270.727 453.853 269.147 452.986 268.12C452.119 267.093 450.613 266.58 448.466 266.58C446.986 266.58 445.733 266.913 444.706 267.58C443.693 268.247 442.979 269.3 442.566 270.74L439.706 269.9C440.199 267.967 441.193 266.467 442.686 265.4C444.179 264.333 446.119 263.8 448.506 263.8C450.479 263.8 452.153 264.173 453.526 264.92C454.913 265.653 455.893 266.72 456.466 268.12C456.733 268.747 456.906 269.447 456.986 270.22C457.066 270.993 457.106 271.78 457.106 272.58V286H454.486V280.58L455.246 280.9C454.513 282.753 453.373 284.167 451.826 285.14C450.279 286.113 448.426 286.6 446.266 286.6ZM446.606 284.06C447.979 284.06 449.179 283.813 450.206 283.32C451.233 282.827 452.059 282.153 452.686 281.3C453.313 280.433 453.719 279.46 453.906 278.38C454.066 277.687 454.153 276.927 454.166 276.1C454.179 275.26 454.186 274.633 454.186 274.22L455.306 274.8C454.306 274.933 453.219 275.067 452.046 275.2C450.886 275.333 449.739 275.487 448.606 275.66C447.486 275.833 446.473 276.04 445.566 276.28C444.953 276.453 444.359 276.7 443.786 277.02C443.213 277.327 442.739 277.74 442.366 278.26C442.006 278.78 441.826 279.427 441.826 280.2C441.826 280.827 441.979 281.433 442.286 282.02C442.606 282.607 443.113 283.093 443.806 283.48C444.513 283.867 445.446 284.06 446.606 284.06ZM461.513 286V264.4H464.153V269.6L463.633 268.92C463.873 268.28 464.186 267.693 464.573 267.16C464.959 266.613 465.379 266.167 465.833 265.82C466.393 265.327 467.046 264.953 467.793 264.7C468.539 264.433 469.293 264.28 470.053 264.24C470.813 264.187 471.506 264.24 472.133 264.4V267.16C471.346 266.96 470.486 266.913 469.553 267.02C468.619 267.127 467.759 267.5 466.973 268.14C466.253 268.7 465.713 269.373 465.353 270.16C464.993 270.933 464.753 271.76 464.633 272.64C464.513 273.507 464.453 274.367 464.453 275.22V286H461.513ZM486.887 286C485.673 286.253 484.473 286.353 483.287 286.3C482.113 286.247 481.06 285.993 480.127 285.54C479.207 285.087 478.507 284.38 478.027 283.42C477.64 282.62 477.427 281.813 477.387 281C477.36 280.173 477.347 279.233 477.347 278.18V258.4H480.267V278.06C480.267 278.967 480.273 279.727 480.287 280.34C480.313 280.94 480.453 281.473 480.707 281.94C481.187 282.833 481.947 283.367 482.987 283.54C484.04 283.713 485.34 283.673 486.887 283.42V286ZM472.727 266.92V264.4H486.887V266.92H472.727ZM498.581 286.6C496.434 286.6 494.601 286.113 493.081 285.14C491.561 284.167 490.394 282.82 489.581 281.1C488.768 279.38 488.361 277.407 488.361 275.18C488.361 272.913 488.774 270.927 489.601 269.22C490.428 267.513 491.601 266.187 493.121 265.24C494.654 264.28 496.474 263.8 498.581 263.8C500.741 263.8 502.581 264.287 504.101 265.26C505.634 266.22 506.801 267.56 507.601 269.28C508.414 270.987 508.821 272.953 508.821 275.18C508.821 277.447 508.414 279.44 507.601 281.16C506.788 282.867 505.614 284.2 504.081 285.16C502.548 286.12 500.714 286.6 498.581 286.6ZM498.581 283.78C500.981 283.78 502.768 282.987 503.941 281.4C505.114 279.8 505.701 277.727 505.701 275.18C505.701 272.567 505.108 270.487 503.921 268.94C502.748 267.393 500.968 266.62 498.581 266.62C496.968 266.62 495.634 266.987 494.581 267.72C493.541 268.44 492.761 269.447 492.241 270.74C491.734 272.02 491.481 273.5 491.481 275.18C491.481 277.78 492.081 279.867 493.281 281.44C494.481 283 496.248 283.78 498.581 283.78ZM521.453 286.6C519.306 286.6 517.473 286.113 515.953 285.14C514.433 284.167 513.266 282.82 512.453 281.1C511.639 279.38 511.233 277.407 511.233 275.18C511.233 272.913 511.646 270.927 512.473 269.22C513.299 267.513 514.473 266.187 515.993 265.24C517.526 264.28 519.346 263.8 521.453 263.8C523.613 263.8 525.453 264.287 526.973 265.26C528.506 266.22 529.673 267.56 530.473 269.28C531.286 270.987 531.693 272.953 531.693 275.18C531.693 277.447 531.286 279.44 530.473 281.16C529.659 282.867 528.486 284.2 526.953 285.16C525.419 286.12 523.586 286.6 521.453 286.6ZM521.453 283.78C523.853 283.78 525.639 282.987 526.813 281.4C527.986 279.8 528.573 277.727 528.573 275.18C528.573 272.567 527.979 270.487 526.793 268.94C525.619 267.393 523.839 266.62 521.453 266.62C519.839 266.62 518.506 266.987 517.453 267.72C516.413 268.44 515.633 269.447 515.113 270.74C514.606 272.02 514.353 273.5 514.353 275.18C514.353 277.78 514.953 279.867 516.153 281.44C517.353 283 519.119 283.78 521.453 283.78ZM550.905 286V274.98C550.905 273.78 550.791 272.68 550.565 271.68C550.338 270.667 549.971 269.787 549.465 269.04C548.971 268.28 548.325 267.693 547.525 267.28C546.738 266.867 545.778 266.66 544.645 266.66C543.605 266.66 542.685 266.84 541.885 267.2C541.098 267.56 540.431 268.08 539.885 268.76C539.351 269.427 538.945 270.24 538.665 271.2C538.385 272.16 538.245 273.253 538.245 274.48L536.165 274.02C536.165 271.807 536.551 269.947 537.325 268.44C538.098 266.933 539.165 265.793 540.525 265.02C541.885 264.247 543.445 263.86 545.205 263.86C546.498 263.86 547.625 264.06 548.585 264.46C549.558 264.86 550.378 265.4 551.045 266.08C551.725 266.76 552.271 267.54 552.685 268.42C553.098 269.287 553.398 270.213 553.585 271.2C553.771 272.173 553.865 273.147 553.865 274.12V286H550.905ZM535.285 286V264.4H537.945V269.72H538.245V286H535.285ZM570.063 286L563.463 264.38L566.403 264.4L571.523 281.18L576.663 264.4H579.343L584.483 281.18L589.643 264.4H592.563L585.963 286H583.403L578.003 268.8L572.623 286H570.063ZM603.604 286.6C601.458 286.6 599.624 286.113 598.104 285.14C596.584 284.167 595.418 282.82 594.604 281.1C593.791 279.38 593.384 277.407 593.384 275.18C593.384 272.913 593.798 270.927 594.624 269.22C595.451 267.513 596.624 266.187 598.144 265.24C599.678 264.28 601.498 263.8 603.604 263.8C605.764 263.8 607.604 264.287 609.124 265.26C610.658 266.22 611.824 267.56 612.624 269.28C613.438 270.987 613.844 272.953 613.844 275.18C613.844 277.447 613.438 279.44 612.624 281.16C611.811 282.867 610.638 284.2 609.104 285.16C607.571 286.12 605.738 286.6 603.604 286.6ZM603.604 283.78C606.004 283.78 607.791 282.987 608.964 281.4C610.138 279.8 610.724 277.727 610.724 275.18C610.724 272.567 610.131 270.487 608.944 268.94C607.771 267.393 605.991 266.62 603.604 266.62C601.991 266.62 600.658 266.987 599.604 267.72C598.564 268.44 597.784 269.447 597.264 270.74C596.758 272.02 596.504 273.5 596.504 275.18C596.504 277.78 597.104 279.867 598.304 281.44C599.504 283 601.271 283.78 603.604 283.78ZM617.456 286V264.4H620.096V269.6L619.576 268.92C619.816 268.28 620.13 267.693 620.516 267.16C620.903 266.613 621.323 266.167 621.776 265.82C622.336 265.327 622.99 264.953 623.736 264.7C624.483 264.433 625.236 264.28 625.996 264.24C626.756 264.187 627.45 264.24 628.076 264.4V267.16C627.29 266.96 626.43 266.913 625.496 267.02C624.563 267.127 623.703 267.5 622.916 268.14C622.196 268.7 621.656 269.373 621.296 270.16C620.936 270.933 620.696 271.76 620.576 272.64C620.456 273.507 620.396 274.367 620.396 275.22V286H617.456ZM631.47 286V256.6H634.41V286H631.47ZM647.986 286.6C645.973 286.6 644.253 286.1 642.826 285.1C641.4 284.087 640.306 282.72 639.546 281C638.786 279.28 638.406 277.34 638.406 275.18C638.406 273.033 638.78 271.1 639.526 269.38C640.286 267.66 641.373 266.3 642.786 265.3C644.2 264.3 645.893 263.8 647.866 263.8C649.893 263.8 651.6 264.293 652.986 265.28C654.373 266.267 655.42 267.62 656.126 269.34C656.846 271.047 657.206 272.993 657.206 275.18C657.206 277.327 656.853 279.267 656.146 281C655.44 282.72 654.4 284.087 653.026 285.1C651.653 286.1 649.973 286.6 647.986 286.6ZM648.286 283.86C649.82 283.86 651.086 283.487 652.086 282.74C653.086 281.993 653.833 280.967 654.326 279.66C654.82 278.34 655.066 276.847 655.066 275.18C655.066 273.487 654.82 271.993 654.326 270.7C653.833 269.393 653.086 268.373 652.086 267.64C651.1 266.907 649.853 266.54 648.346 266.54C646.8 266.54 645.52 266.92 644.506 267.68C643.493 268.44 642.74 269.473 642.246 270.78C641.766 272.087 641.526 273.553 641.526 275.18C641.526 276.82 641.773 278.3 642.266 279.62C642.773 280.927 643.526 281.96 644.526 282.72C645.526 283.48 646.78 283.86 648.286 283.86ZM655.066 286V269.74H654.746V257.2H657.706V286H655.066Z" fill="white"></path><defs><linearGradient id="paint0_linear_3968_1086" x1="25" y1="-38" x2="908.5" y2="566" gradientUnits="userSpaceOnUse"><stop stop-color="#321193"></stop><stop offset="1" stop-color="#E54D95"></stop></linearGradient></defs></svg> 