<?xml version="1.0" encoding="UTF-8"?> <svg xmlns="http://www.w3.org/2000/svg" width="900" height="540" viewBox="0 0 900 540" fill="none"><rect width="900" height="540" rx="30" fill="url(#paint0_linear_3968_1090)"></rect><path d="M214.911 286V257.2H226.031C227.644 257.2 229.051 257.533 230.251 258.2C231.451 258.867 232.384 259.767 233.051 260.9C233.718 262.02 234.051 263.26 234.051 264.62C234.051 266.167 233.638 267.547 232.811 268.76C231.984 269.96 230.878 270.793 229.491 271.26L229.451 270.28C231.318 270.813 232.784 271.747 233.851 273.08C234.918 274.413 235.451 276.027 235.451 277.92C235.451 279.587 235.098 281.027 234.391 282.24C233.684 283.44 232.691 284.367 231.411 285.02C230.131 285.673 228.644 286 226.951 286H214.911ZM217.871 283.18H226.231C227.404 283.18 228.458 282.973 229.391 282.56C230.324 282.133 231.058 281.533 231.591 280.76C232.138 279.987 232.411 279.053 232.411 277.96C232.411 276.893 232.164 275.933 231.671 275.08C231.178 274.227 230.504 273.547 229.651 273.04C228.811 272.52 227.851 272.26 226.771 272.26H217.871V283.18ZM217.871 269.48H226.011C226.931 269.48 227.771 269.273 228.531 268.86C229.291 268.433 229.891 267.853 230.331 267.12C230.784 266.387 231.011 265.54 231.011 264.58C231.011 263.22 230.538 262.113 229.591 261.26C228.658 260.407 227.464 259.98 226.011 259.98H217.871V269.48ZM247.782 286.6C245.676 286.6 243.849 286.133 242.302 285.2C240.769 284.267 239.576 282.953 238.722 281.26C237.869 279.567 237.442 277.58 237.442 275.3C237.442 272.94 237.862 270.9 238.702 269.18C239.542 267.46 240.722 266.133 242.242 265.2C243.776 264.267 245.582 263.8 247.662 263.8C249.796 263.8 251.616 264.293 253.122 265.28C254.629 266.253 255.769 267.653 256.542 269.48C257.316 271.307 257.669 273.487 257.602 276.02H254.602V274.98C254.549 272.18 253.942 270.067 252.782 268.64C251.636 267.213 249.956 266.5 247.742 266.5C245.422 266.5 243.642 267.253 242.402 268.76C241.176 270.267 240.562 272.413 240.562 275.2C240.562 277.92 241.176 280.033 242.402 281.54C243.642 283.033 245.396 283.78 247.662 283.78C249.209 283.78 250.556 283.427 251.702 282.72C252.862 282 253.776 280.967 254.442 279.62L257.182 280.68C256.329 282.56 255.069 284.02 253.402 285.06C251.749 286.087 249.876 286.6 247.782 286.6ZM239.522 276.02V273.56H256.022V276.02H239.522ZM261.641 260.3V257H264.581V260.3H261.641ZM261.641 286V264.4H264.581V286H261.641ZM285.377 286V274.98C285.377 273.78 285.263 272.68 285.037 271.68C284.81 270.667 284.443 269.787 283.937 269.04C283.443 268.28 282.797 267.693 281.997 267.28C281.21 266.867 280.25 266.66 279.117 266.66C278.077 266.66 277.157 266.84 276.357 267.2C275.57 267.56 274.903 268.08 274.357 268.76C273.823 269.427 273.417 270.24 273.137 271.2C272.857 272.16 272.717 273.253 272.717 274.48L270.637 274.02C270.637 271.807 271.023 269.947 271.797 268.44C272.57 266.933 273.637 265.793 274.997 265.02C276.357 264.247 277.917 263.86 279.677 263.86C280.97 263.86 282.097 264.06 283.057 264.46C284.03 264.86 284.85 265.4 285.517 266.08C286.197 266.76 286.743 267.54 287.157 268.42C287.57 269.287 287.87 270.213 288.057 271.2C288.243 272.173 288.337 273.147 288.337 274.12V286H285.377ZM269.757 286V264.4H272.417V269.72H272.717V286H269.757ZM301.307 296.2C300.2 296.2 299.107 296.033 298.027 295.7C296.96 295.38 295.973 294.867 295.067 294.16C294.16 293.467 293.4 292.56 292.787 291.44L295.447 289.96C296.047 291.16 296.887 292.02 297.967 292.54C299.06 293.073 300.173 293.34 301.307 293.34C302.867 293.34 304.127 293.047 305.087 292.46C306.06 291.887 306.767 291.033 307.207 289.9C307.647 288.767 307.86 287.353 307.847 285.66V279.9H308.187V264.4H310.807V285.7C310.807 286.313 310.787 286.9 310.747 287.46C310.72 288.033 310.66 288.593 310.567 289.14C310.313 290.753 309.787 292.08 308.987 293.12C308.2 294.16 307.16 294.933 305.867 295.44C304.587 295.947 303.067 296.2 301.307 296.2ZM301.107 286.6C299.093 286.6 297.373 286.1 295.947 285.1C294.52 284.087 293.427 282.72 292.667 281C291.907 279.28 291.527 277.34 291.527 275.18C291.527 273.033 291.9 271.1 292.647 269.38C293.407 267.66 294.493 266.3 295.907 265.3C297.32 264.3 299.013 263.8 300.987 263.8C303.013 263.8 304.72 264.293 306.107 265.28C307.493 266.267 308.54 267.62 309.247 269.34C309.967 271.047 310.327 272.993 310.327 275.18C310.327 277.327 309.973 279.267 309.267 281C308.56 282.72 307.52 284.087 306.147 285.1C304.773 286.1 303.093 286.6 301.107 286.6ZM301.407 283.86C302.94 283.86 304.207 283.487 305.207 282.74C306.207 281.993 306.953 280.967 307.447 279.66C307.94 278.34 308.187 276.847 308.187 275.18C308.187 273.487 307.94 271.993 307.447 270.7C306.953 269.393 306.207 268.373 305.207 267.64C304.22 266.907 302.973 266.54 301.467 266.54C299.92 266.54 298.64 266.92 297.627 267.68C296.613 268.44 295.86 269.473 295.367 270.78C294.887 272.087 294.647 273.553 294.647 275.18C294.647 276.82 294.893 278.3 295.387 279.62C295.893 280.927 296.647 281.96 297.647 282.72C298.647 283.48 299.9 283.86 301.407 283.86ZM328.986 286.6C327.36 286.6 325.993 286.307 324.886 285.72C323.793 285.133 322.973 284.353 322.426 283.38C321.88 282.407 321.606 281.347 321.606 280.2C321.606 279.027 321.84 278.027 322.306 277.2C322.786 276.36 323.433 275.673 324.246 275.14C325.073 274.607 326.026 274.2 327.106 273.92C328.2 273.653 329.406 273.42 330.726 273.22C332.06 273.007 333.36 272.827 334.626 272.68C335.906 272.52 337.026 272.367 337.986 272.22L336.946 272.86C336.986 270.727 336.573 269.147 335.706 268.12C334.84 267.093 333.333 266.58 331.186 266.58C329.706 266.58 328.453 266.913 327.426 267.58C326.413 268.247 325.7 269.3 325.286 270.74L322.426 269.9C322.92 267.967 323.913 266.467 325.406 265.4C326.9 264.333 328.84 263.8 331.226 263.8C333.2 263.8 334.873 264.173 336.246 264.92C337.633 265.653 338.613 266.72 339.186 268.12C339.453 268.747 339.626 269.447 339.706 270.22C339.786 270.993 339.826 271.78 339.826 272.58V286H337.206V280.58L337.966 280.9C337.233 282.753 336.093 284.167 334.546 285.14C333 286.113 331.146 286.6 328.986 286.6ZM329.326 284.06C330.7 284.06 331.9 283.813 332.926 283.32C333.953 282.827 334.78 282.153 335.406 281.3C336.033 280.433 336.44 279.46 336.626 278.38C336.786 277.687 336.873 276.927 336.886 276.1C336.9 275.26 336.906 274.633 336.906 274.22L338.026 274.8C337.026 274.933 335.94 275.067 334.766 275.2C333.606 275.333 332.46 275.487 331.326 275.66C330.206 275.833 329.193 276.04 328.286 276.28C327.673 276.453 327.08 276.7 326.506 277.02C325.933 277.327 325.46 277.74 325.086 278.26C324.726 278.78 324.546 279.427 324.546 280.2C324.546 280.827 324.7 281.433 325.006 282.02C325.326 282.607 325.833 283.093 326.526 283.48C327.233 283.867 328.166 284.06 329.326 284.06ZM359.501 286.58C356.967 286.58 354.881 286.033 353.241 284.94C351.614 283.847 350.614 282.327 350.241 280.38L353.241 279.88C353.561 281.107 354.287 282.087 355.421 282.82C356.567 283.54 357.981 283.9 359.661 283.9C361.301 283.9 362.594 283.56 363.541 282.88C364.487 282.187 364.961 281.247 364.961 280.06C364.961 279.393 364.807 278.853 364.501 278.44C364.207 278.013 363.601 277.62 362.681 277.26C361.761 276.9 360.387 276.473 358.561 275.98C356.601 275.447 355.067 274.913 353.961 274.38C352.854 273.847 352.067 273.233 351.601 272.54C351.134 271.833 350.901 270.973 350.901 269.96C350.901 268.733 351.247 267.66 351.941 266.74C352.634 265.807 353.594 265.087 354.821 264.58C356.047 264.06 357.474 263.8 359.101 263.8C360.727 263.8 362.181 264.067 363.461 264.6C364.754 265.12 365.794 265.853 366.581 266.8C367.367 267.747 367.834 268.847 367.981 270.1L364.981 270.64C364.781 269.373 364.147 268.373 363.081 267.64C362.027 266.893 360.687 266.507 359.061 266.48C357.527 266.44 356.281 266.733 355.321 267.36C354.361 267.973 353.881 268.793 353.881 269.82C353.881 270.393 354.054 270.887 354.401 271.3C354.747 271.7 355.374 272.08 356.281 272.44C357.201 272.8 358.507 273.193 360.201 273.62C362.187 274.127 363.747 274.66 364.881 275.22C366.014 275.78 366.821 276.44 367.301 277.2C367.781 277.96 368.021 278.9 368.021 280.02C368.021 282.06 367.261 283.667 365.741 284.84C364.234 286 362.154 286.58 359.501 286.58ZM379.916 286.54C378.623 286.54 377.49 286.34 376.516 285.94C375.556 285.54 374.736 285 374.056 284.32C373.39 283.64 372.85 282.867 372.436 282C372.023 281.12 371.723 280.193 371.536 279.22C371.35 278.233 371.256 277.253 371.256 276.28V264.4H374.216V275.42C374.216 276.607 374.33 277.707 374.556 278.72C374.783 279.733 375.143 280.62 375.636 281.38C376.143 282.127 376.79 282.707 377.576 283.12C378.376 283.533 379.343 283.74 380.476 283.74C381.516 283.74 382.43 283.56 383.216 283.2C384.016 282.84 384.683 282.327 385.216 281.66C385.763 280.98 386.176 280.16 386.456 279.2C386.736 278.227 386.876 277.133 386.876 275.92L388.956 276.38C388.956 278.593 388.57 280.453 387.796 281.96C387.023 283.467 385.956 284.607 384.596 285.38C383.236 286.153 381.676 286.54 379.916 286.54ZM387.176 286V280.68H386.876V264.4H389.816V286H387.176ZM404.306 286.6C402.32 286.6 400.64 286.1 399.266 285.1C397.893 284.087 396.853 282.72 396.146 281C395.44 279.267 395.086 277.327 395.086 275.18C395.086 272.993 395.44 271.047 396.146 269.34C396.866 267.62 397.92 266.267 399.306 265.28C400.693 264.293 402.4 263.8 404.426 263.8C406.4 263.8 408.093 264.3 409.506 265.3C410.92 266.3 412 267.66 412.746 269.38C413.506 271.1 413.886 273.033 413.886 275.18C413.886 277.34 413.506 279.28 412.746 281C411.986 282.72 410.893 284.087 409.466 285.1C408.04 286.1 406.32 286.6 404.306 286.6ZM394.586 295.6V264.4H397.226V280.66H397.546V295.6H394.586ZM404.006 283.86C405.513 283.86 406.766 283.48 407.766 282.72C408.766 281.96 409.513 280.927 410.006 279.62C410.513 278.3 410.766 276.82 410.766 275.18C410.766 273.553 410.52 272.087 410.026 270.78C409.533 269.473 408.78 268.44 407.766 267.68C406.766 266.92 405.493 266.54 403.946 266.54C402.44 266.54 401.186 266.907 400.186 267.64C399.2 268.373 398.46 269.393 397.966 270.7C397.473 271.993 397.226 273.487 397.226 275.18C397.226 276.847 397.473 278.34 397.966 279.66C398.46 280.967 399.206 281.993 400.206 282.74C401.206 283.487 402.473 283.86 404.006 283.86ZM426.618 286.6C424.511 286.6 422.685 286.133 421.138 285.2C419.605 284.267 418.411 282.953 417.558 281.26C416.705 279.567 416.278 277.58 416.278 275.3C416.278 272.94 416.698 270.9 417.538 269.18C418.378 267.46 419.558 266.133 421.078 265.2C422.611 264.267 424.418 263.8 426.498 263.8C428.631 263.8 430.451 264.293 431.958 265.28C433.465 266.253 434.605 267.653 435.378 269.48C436.151 271.307 436.505 273.487 436.438 276.02H433.438V274.98C433.385 272.18 432.778 270.067 431.618 268.64C430.471 267.213 428.791 266.5 426.578 266.5C424.258 266.5 422.478 267.253 421.238 268.76C420.011 270.267 419.398 272.413 419.398 275.2C419.398 277.92 420.011 280.033 421.238 281.54C422.478 283.033 424.231 283.78 426.498 283.78C428.045 283.78 429.391 283.427 430.538 282.72C431.698 282 432.611 280.967 433.278 279.62L436.018 280.68C435.165 282.56 433.905 284.02 432.238 285.06C430.585 286.087 428.711 286.6 426.618 286.6ZM418.358 276.02V273.56H434.858V276.02H418.358ZM440.077 286V264.4H442.717V269.6L442.197 268.92C442.437 268.28 442.75 267.693 443.137 267.16C443.523 266.613 443.943 266.167 444.397 265.82C444.957 265.327 445.61 264.953 446.357 264.7C447.103 264.433 447.857 264.28 448.617 264.24C449.377 264.187 450.07 264.24 450.697 264.4V267.16C449.91 266.96 449.05 266.913 448.117 267.02C447.183 267.127 446.323 267.5 445.537 268.14C444.817 268.7 444.277 269.373 443.917 270.16C443.557 270.933 443.317 271.76 443.197 272.64C443.077 273.507 443.017 274.367 443.017 275.22V286H440.077ZM469.291 286V274.98C469.291 273.78 469.177 272.68 468.951 271.68C468.724 270.667 468.357 269.787 467.851 269.04C467.357 268.28 466.711 267.693 465.911 267.28C465.124 266.867 464.164 266.66 463.031 266.66C461.991 266.66 461.071 266.84 460.271 267.2C459.484 267.56 458.817 268.08 458.271 268.76C457.737 269.427 457.331 270.24 457.051 271.2C456.771 272.16 456.631 273.253 456.631 274.48L454.551 274.02C454.551 271.807 454.937 269.947 455.711 268.44C456.484 266.933 457.551 265.793 458.911 265.02C460.271 264.247 461.831 263.86 463.591 263.86C464.884 263.86 466.011 264.06 466.971 264.46C467.944 264.86 468.764 265.4 469.431 266.08C470.111 266.76 470.657 267.54 471.071 268.42C471.484 269.287 471.784 270.213 471.971 271.2C472.157 272.173 472.251 273.147 472.251 274.12V286H469.291ZM453.671 286V257.2H456.331V273.46H456.631V286H453.671ZM485.781 286.6C483.674 286.6 481.847 286.133 480.301 285.2C478.767 284.267 477.574 282.953 476.721 281.26C475.867 279.567 475.441 277.58 475.441 275.3C475.441 272.94 475.861 270.9 476.701 269.18C477.541 267.46 478.721 266.133 480.241 265.2C481.774 264.267 483.581 263.8 485.661 263.8C487.794 263.8 489.614 264.293 491.121 265.28C492.627 266.253 493.767 267.653 494.541 269.48C495.314 271.307 495.667 273.487 495.601 276.02H492.601V274.98C492.547 272.18 491.941 270.067 490.781 268.64C489.634 267.213 487.954 266.5 485.741 266.5C483.421 266.5 481.641 267.253 480.401 268.76C479.174 270.267 478.561 272.413 478.561 275.2C478.561 277.92 479.174 280.033 480.401 281.54C481.641 283.033 483.394 283.78 485.661 283.78C487.207 283.78 488.554 283.427 489.701 282.72C490.861 282 491.774 280.967 492.441 279.62L495.181 280.68C494.327 282.56 493.067 284.02 491.401 285.06C489.747 286.087 487.874 286.6 485.781 286.6ZM477.521 276.02V273.56H494.021V276.02H477.521ZM499.239 286V264.4H501.879V269.6L501.359 268.92C501.599 268.28 501.912 267.693 502.299 267.16C502.686 266.613 503.106 266.167 503.559 265.82C504.119 265.327 504.772 264.953 505.519 264.7C506.266 264.433 507.019 264.28 507.779 264.24C508.539 264.187 509.232 264.24 509.859 264.4V267.16C509.072 266.96 508.212 266.913 507.279 267.02C506.346 267.127 505.486 267.5 504.699 268.14C503.979 268.7 503.439 269.373 503.079 270.16C502.719 270.933 502.479 271.76 502.359 272.64C502.239 273.507 502.179 274.367 502.179 275.22V286H499.239ZM521.483 286.6C519.336 286.6 517.503 286.113 515.983 285.14C514.463 284.167 513.296 282.82 512.483 281.1C511.669 279.38 511.263 277.407 511.263 275.18C511.263 272.913 511.676 270.927 512.503 269.22C513.329 267.513 514.503 266.187 516.023 265.24C517.556 264.28 519.376 263.8 521.483 263.8C523.643 263.8 525.483 264.287 527.003 265.26C528.536 266.22 529.703 267.56 530.503 269.28C531.316 270.987 531.723 272.953 531.723 275.18C531.723 277.447 531.316 279.44 530.503 281.16C529.689 282.867 528.516 284.2 526.983 285.16C525.449 286.12 523.616 286.6 521.483 286.6ZM521.483 283.78C523.883 283.78 525.669 282.987 526.843 281.4C528.016 279.8 528.603 277.727 528.603 275.18C528.603 272.567 528.009 270.487 526.823 268.94C525.649 267.393 523.869 266.62 521.483 266.62C519.869 266.62 518.536 266.987 517.483 267.72C516.443 268.44 515.663 269.447 515.143 270.74C514.636 272.02 514.383 273.5 514.383 275.18C514.383 277.78 514.983 279.867 516.183 281.44C517.383 283 519.149 283.78 521.483 283.78ZM544.682 286V262.8C544.682 262.24 544.709 261.687 544.762 261.14C544.829 260.593 544.956 260.073 545.142 259.58C545.329 259.073 545.622 258.607 546.022 258.18C546.462 257.7 546.942 257.353 547.462 257.14C547.982 256.913 548.522 256.767 549.082 256.7C549.656 256.633 550.216 256.6 550.762 256.6H553.522V259.08H550.962C549.842 259.08 549.002 259.353 548.442 259.9C547.896 260.447 547.622 261.307 547.622 262.48V286H544.682ZM540.942 266.92V264.4H553.522V266.92H540.942ZM564.161 286.6C562.014 286.6 560.181 286.113 558.661 285.14C557.141 284.167 555.974 282.82 555.161 281.1C554.347 279.38 553.941 277.407 553.941 275.18C553.941 272.913 554.354 270.927 555.181 269.22C556.007 267.513 557.181 266.187 558.701 265.24C560.234 264.28 562.054 263.8 564.161 263.8C566.321 263.8 568.161 264.287 569.681 265.26C571.214 266.22 572.381 267.56 573.181 269.28C573.994 270.987 574.401 272.953 574.401 275.18C574.401 277.447 573.994 279.44 573.181 281.16C572.367 282.867 571.194 284.2 569.661 285.16C568.127 286.12 566.294 286.6 564.161 286.6ZM564.161 283.78C566.561 283.78 568.347 282.987 569.521 281.4C570.694 279.8 571.281 277.727 571.281 275.18C571.281 272.567 570.687 270.487 569.501 268.94C568.327 267.393 566.547 266.62 564.161 266.62C562.547 266.62 561.214 266.987 560.161 267.72C559.121 268.44 558.341 269.447 557.821 270.74C557.314 272.02 557.061 273.5 557.061 275.18C557.061 277.78 557.661 279.867 558.861 281.44C560.061 283 561.827 283.78 564.161 283.78ZM578.012 286V264.4H580.652V269.6L580.132 268.92C580.372 268.28 580.686 267.693 581.072 267.16C581.459 266.613 581.879 266.167 582.332 265.82C582.892 265.327 583.546 264.953 584.292 264.7C585.039 264.433 585.792 264.28 586.552 264.24C587.312 264.187 588.006 264.24 588.632 264.4V267.16C587.846 266.96 586.986 266.913 586.052 267.02C585.119 267.127 584.259 267.5 583.472 268.14C582.752 268.7 582.212 269.373 581.852 270.16C581.492 270.933 581.252 271.76 581.132 272.64C581.012 273.507 580.952 274.367 580.952 275.22V286H578.012ZM605.014 286.6C603.388 286.6 602.021 286.307 600.914 285.72C599.821 285.133 599.001 284.353 598.454 283.38C597.908 282.407 597.634 281.347 597.634 280.2C597.634 279.027 597.868 278.027 598.334 277.2C598.814 276.36 599.461 275.673 600.274 275.14C601.101 274.607 602.054 274.2 603.134 273.92C604.228 273.653 605.434 273.42 606.754 273.22C608.088 273.007 609.388 272.827 610.654 272.68C611.934 272.52 613.054 272.367 614.014 272.22L612.974 272.86C613.014 270.727 612.601 269.147 611.734 268.12C610.868 267.093 609.361 266.58 607.214 266.58C605.734 266.58 604.481 266.913 603.454 267.58C602.441 268.247 601.728 269.3 601.314 270.74L598.454 269.9C598.948 267.967 599.941 266.467 601.434 265.4C602.928 264.333 604.868 263.8 607.254 263.8C609.228 263.8 610.901 264.173 612.274 264.92C613.661 265.653 614.641 266.72 615.214 268.12C615.481 268.747 615.654 269.447 615.734 270.22C615.814 270.993 615.854 271.78 615.854 272.58V286H613.234V280.58L613.994 280.9C613.261 282.753 612.121 284.167 610.574 285.14C609.028 286.113 607.174 286.6 605.014 286.6ZM605.354 284.06C606.728 284.06 607.928 283.813 608.954 283.32C609.981 282.827 610.808 282.153 611.434 281.3C612.061 280.433 612.468 279.46 612.654 278.38C612.814 277.687 612.901 276.927 612.914 276.1C612.928 275.26 612.934 274.633 612.934 274.22L614.054 274.8C613.054 274.933 611.968 275.067 610.794 275.2C609.634 275.333 608.488 275.487 607.354 275.66C606.234 275.833 605.221 276.04 604.314 276.28C603.701 276.453 603.108 276.7 602.534 277.02C601.961 277.327 601.488 277.74 601.114 278.26C600.754 278.78 600.574 279.427 600.574 280.2C600.574 280.827 600.728 281.433 601.034 282.02C601.354 282.607 601.861 283.093 602.554 283.48C603.261 283.867 604.194 284.06 605.354 284.06ZM635.849 286.6C633.835 286.6 632.115 286.1 630.689 285.1C629.262 284.087 628.169 282.72 627.409 281C626.649 279.28 626.269 277.34 626.269 275.18C626.269 273.033 626.642 271.1 627.389 269.38C628.149 267.66 629.235 266.3 630.649 265.3C632.062 264.3 633.755 263.8 635.729 263.8C637.755 263.8 639.462 264.293 640.849 265.28C642.235 266.267 643.282 267.62 643.989 269.34C644.709 271.047 645.069 272.993 645.069 275.18C645.069 277.327 644.715 279.267 644.009 281C643.302 282.72 642.262 284.087 640.889 285.1C639.515 286.1 637.835 286.6 635.849 286.6ZM636.149 283.86C637.682 283.86 638.949 283.487 639.949 282.74C640.949 281.993 641.695 280.967 642.189 279.66C642.682 278.34 642.929 276.847 642.929 275.18C642.929 273.487 642.682 271.993 642.189 270.7C641.695 269.393 640.949 268.373 639.949 267.64C638.962 266.907 637.715 266.54 636.209 266.54C634.662 266.54 633.382 266.92 632.369 267.68C631.355 268.44 630.602 269.473 630.109 270.78C629.629 272.087 629.389 273.553 629.389 275.18C629.389 276.82 629.635 278.3 630.129 279.62C630.635 280.927 631.389 281.96 632.389 282.72C633.389 283.48 634.642 283.86 636.149 283.86ZM642.929 286V269.74H642.609V257.2H645.569V286H642.929ZM656.56 286.6C654.933 286.6 653.566 286.307 652.46 285.72C651.366 285.133 650.546 284.353 650 283.38C649.453 282.407 649.18 281.347 649.18 280.2C649.18 279.027 649.413 278.027 649.88 277.2C650.36 276.36 651.006 275.673 651.82 275.14C652.646 274.607 653.6 274.2 654.68 273.92C655.773 273.653 656.98 273.42 658.3 273.22C659.633 273.007 660.933 272.827 662.2 272.68C663.48 272.52 664.6 272.367 665.56 272.22L664.52 272.86C664.56 270.727 664.146 269.147 663.28 268.12C662.413 267.093 660.906 266.58 658.76 266.58C657.28 266.58 656.026 266.913 655 267.58C653.986 268.247 653.273 269.3 652.86 270.74L650 269.9C650.493 267.967 651.486 266.467 652.98 265.4C654.473 264.333 656.413 263.8 658.8 263.8C660.773 263.8 662.446 264.173 663.82 264.92C665.206 265.653 666.186 266.72 666.76 268.12C667.026 268.747 667.2 269.447 667.28 270.22C667.36 270.993 667.4 271.78 667.4 272.58V286H664.78V280.58L665.54 280.9C664.806 282.753 663.666 284.167 662.12 285.14C660.573 286.113 658.72 286.6 656.56 286.6ZM656.9 284.06C658.273 284.06 659.473 283.813 660.5 283.32C661.526 282.827 662.353 282.153 662.98 281.3C663.606 280.433 664.013 279.46 664.2 278.38C664.36 277.687 664.446 276.927 664.46 276.1C664.473 275.26 664.48 274.633 664.48 274.22L665.6 274.8C664.6 274.933 663.513 275.067 662.34 275.2C661.18 275.333 660.033 275.487 658.9 275.66C657.78 275.833 656.766 276.04 655.86 276.28C655.246 276.453 654.653 276.7 654.08 277.02C653.506 277.327 653.033 277.74 652.66 278.26C652.3 278.78 652.12 279.427 652.12 280.2C652.12 280.827 652.273 281.433 652.58 282.02C652.9 282.607 653.406 283.093 654.1 283.48C654.806 283.867 655.74 284.06 656.9 284.06ZM673.675 295.6L677.855 284.26L677.915 287.62L668.455 264.4H671.575L679.335 283.82H678.055L685.215 264.4H688.215L676.615 295.6H673.675Z" fill="white"></path><defs><linearGradient id="paint0_linear_3968_1090" x1="25" y1="-38" x2="908.5" y2="566" gradientUnits="userSpaceOnUse"><stop stop-color="#321193"></stop><stop offset="1" stop-color="#E54D95"></stop></linearGradient></defs></svg> 