<?xml version="1.0" encoding="UTF-8"?> <svg xmlns="http://www.w3.org/2000/svg" width="600" height="400" viewBox="0 0 600 400" fill="none"> <rect width="600" height="400" rx="20" fill="url(#paint0_linear_131_81)"></rect> <path d="M49.3274 193L44.6964 177.16H47.4794L50.6364 188.6L53.7824 177.182L56.5654 177.16L59.7224 188.6L62.8684 177.16H65.6514L61.0314 193H58.4134L55.1684 181.736L51.9454 193H49.3274ZM67.4463 193V177.16H70.0973V183.826H77.5993V177.16H80.2393V193H77.5993V186.312H70.0973V193H67.4463ZM83.5432 193V177.16H86.1942V193H83.5432ZM96.1882 193.33C94.6042 193.33 93.2476 192.985 92.1182 192.296C90.9889 191.599 90.1199 190.631 89.5112 189.392C88.9099 188.153 88.6092 186.715 88.6092 185.08C88.6092 183.445 88.9099 182.007 89.5112 180.768C90.1199 179.529 90.9889 178.564 92.1182 177.875C93.2476 177.178 94.6042 176.83 96.1882 176.83C98.0142 176.83 99.5359 177.288 100.753 178.205C101.971 179.114 102.825 180.343 103.316 181.89L100.643 182.627C100.335 181.593 99.8109 180.786 99.0702 180.207C98.3296 179.62 97.3689 179.327 96.1882 179.327C95.1249 179.327 94.2376 179.565 93.5262 180.042C92.8222 180.519 92.2906 181.19 91.9312 182.055C91.5792 182.913 91.3996 183.921 91.3922 185.08C91.3922 186.239 91.5682 187.251 91.9202 188.116C92.2796 188.974 92.8149 189.641 93.5262 190.118C94.2376 190.595 95.1249 190.833 96.1882 190.833C97.3689 190.833 98.3296 190.54 99.0702 189.953C99.8109 189.366 100.335 188.56 100.643 187.533L103.316 188.27C102.825 189.817 101.971 191.049 100.753 191.966C99.5359 192.875 98.0142 193.33 96.1882 193.33ZM105.731 193V177.16H108.382V183.826H115.884V177.16H118.524V193H115.884V186.312H108.382V193H105.731ZM132.712 193.33C131.128 193.33 129.771 192.985 128.642 192.296C127.512 191.599 126.643 190.631 126.035 189.392C125.433 188.153 125.133 186.715 125.133 185.08C125.133 183.445 125.433 182.007 126.035 180.768C126.643 179.529 127.512 178.564 128.642 177.875C129.771 177.178 131.128 176.83 132.712 176.83C134.538 176.83 136.059 177.288 137.277 178.205C138.494 179.114 139.348 180.343 139.84 181.89L137.167 182.627C136.859 181.593 136.334 180.786 135.594 180.207C134.853 179.62 133.892 179.327 132.712 179.327C131.648 179.327 130.761 179.565 130.05 180.042C129.346 180.519 128.814 181.19 128.455 182.055C128.103 182.913 127.923 183.921 127.916 185.08C127.916 186.239 128.092 187.251 128.444 188.116C128.803 188.974 129.338 189.641 130.05 190.118C130.761 190.595 131.648 190.833 132.712 190.833C133.892 190.833 134.853 190.54 135.594 189.953C136.334 189.366 136.859 188.56 137.167 187.533L139.84 188.27C139.348 189.817 138.494 191.049 137.277 191.966C136.059 192.875 134.538 193.33 132.712 193.33ZM148.954 193.33C147.37 193.33 146.013 192.985 144.884 192.296C143.755 191.599 142.886 190.631 142.277 189.392C141.676 188.153 141.375 186.715 141.375 185.08C141.375 183.445 141.676 182.007 142.277 180.768C142.886 179.529 143.755 178.564 144.884 177.875C146.013 177.178 147.37 176.83 148.954 176.83C150.538 176.83 151.895 177.178 153.024 177.875C154.161 178.564 155.03 179.529 155.631 180.768C156.24 182.007 156.544 183.445 156.544 185.08C156.544 186.715 156.24 188.153 155.631 189.392C155.03 190.631 154.161 191.599 153.024 192.296C151.895 192.985 150.538 193.33 148.954 193.33ZM148.954 190.833C150.017 190.84 150.901 190.606 151.605 190.129C152.316 189.652 152.848 188.981 153.2 188.116C153.559 187.251 153.739 186.239 153.739 185.08C153.739 183.921 153.559 182.917 153.2 182.066C152.848 181.208 152.316 180.541 151.605 180.064C150.901 179.587 150.017 179.342 148.954 179.327C147.891 179.32 147.007 179.554 146.303 180.031C145.599 180.508 145.067 181.179 144.708 182.044C144.356 182.909 144.18 183.921 144.18 185.08C144.18 186.239 144.356 187.247 144.708 188.105C145.06 188.956 145.588 189.619 146.292 190.096C147.003 190.573 147.891 190.818 148.954 190.833ZM165.113 193.33C163.852 193.33 162.741 193.073 161.78 192.56C160.827 192.047 160.079 191.324 159.536 190.393C159.001 189.462 158.733 188.369 158.733 187.115V177.182L161.417 177.16V187.049C161.417 187.643 161.516 188.175 161.714 188.644C161.92 189.113 162.195 189.513 162.539 189.843C162.884 190.166 163.28 190.411 163.727 190.58C164.175 190.749 164.637 190.833 165.113 190.833C165.605 190.833 166.07 190.749 166.51 190.58C166.958 190.404 167.354 190.155 167.698 189.832C168.043 189.502 168.314 189.102 168.512 188.633C168.71 188.164 168.809 187.636 168.809 187.049V177.16H171.493V187.115C171.493 188.369 171.222 189.462 170.679 190.393C170.144 191.324 169.396 192.047 168.435 192.56C167.482 193.073 166.375 193.33 165.113 193.33ZM174.567 193V177.16H177.251L184.599 188.325V177.16H187.283V193H184.599L177.251 181.835V193H174.567ZM194.164 193V179.646H189.038V177.16H201.941V179.646H196.815V193H194.164ZM203.7 193V177.16H210.245C210.399 177.16 210.597 177.167 210.839 177.182C211.081 177.189 211.305 177.211 211.51 177.248C212.427 177.387 213.182 177.692 213.776 178.161C214.377 178.63 214.821 179.224 215.107 179.943C215.4 180.654 215.547 181.446 215.547 182.319C215.547 183.61 215.221 184.721 214.568 185.652C213.915 186.576 212.914 187.148 211.565 187.368L210.432 187.467H206.351V193H203.7ZM212.797 193L209.673 186.554L212.368 185.96L215.8 193H212.797ZM206.351 184.992H210.135C210.282 184.992 210.447 184.985 210.63 184.97C210.813 184.955 210.982 184.926 211.136 184.882C211.576 184.772 211.921 184.578 212.17 184.299C212.427 184.02 212.606 183.705 212.709 183.353C212.819 183.001 212.874 182.656 212.874 182.319C212.874 181.982 212.819 181.637 212.709 181.285C212.606 180.926 212.427 180.607 212.17 180.328C211.921 180.049 211.576 179.855 211.136 179.745C210.982 179.701 210.813 179.675 210.63 179.668C210.447 179.653 210.282 179.646 210.135 179.646H206.351V184.992ZM218.444 193V177.16H221.095V193H218.444ZM224.39 193V177.16H234.62V179.646H227.041V183.551H233.3V186.037H227.041V190.514H234.62V193H224.39ZM242.971 193.33C241.813 193.33 240.768 193.128 239.836 192.725C238.912 192.322 238.15 191.746 237.548 190.998C236.954 190.243 236.577 189.348 236.415 188.314L239.165 187.896C239.4 188.835 239.88 189.561 240.606 190.074C241.34 190.587 242.183 190.844 243.136 190.844C243.701 190.844 244.233 190.756 244.731 190.58C245.23 190.404 245.633 190.147 245.941 189.81C246.257 189.473 246.414 189.058 246.414 188.567C246.414 188.347 246.378 188.145 246.304 187.962C246.231 187.771 246.121 187.603 245.974 187.456C245.835 187.309 245.652 187.177 245.424 187.06C245.204 186.935 244.948 186.829 244.654 186.741L240.562 185.531C240.21 185.428 239.829 185.293 239.418 185.124C239.015 184.948 238.63 184.71 238.263 184.409C237.904 184.101 237.607 183.712 237.372 183.243C237.145 182.766 237.031 182.18 237.031 181.483C237.031 180.464 237.288 179.609 237.801 178.92C238.322 178.223 239.019 177.703 239.891 177.358C240.771 177.013 241.747 176.845 242.817 176.852C243.903 176.859 244.871 177.046 245.721 177.413C246.572 177.772 247.283 178.297 247.855 178.986C248.427 179.675 248.831 180.508 249.065 181.483L246.216 181.978C246.099 181.421 245.872 180.948 245.534 180.559C245.204 180.163 244.797 179.862 244.313 179.657C243.837 179.452 243.327 179.342 242.784 179.327C242.256 179.32 241.765 179.4 241.31 179.569C240.863 179.73 240.5 179.965 240.221 180.273C239.95 180.581 239.814 180.94 239.814 181.351C239.814 181.74 239.932 182.059 240.166 182.308C240.401 182.55 240.691 182.744 241.035 182.891C241.387 183.03 241.743 183.148 242.102 183.243L244.94 184.035C245.329 184.138 245.765 184.277 246.249 184.453C246.733 184.629 247.199 184.875 247.646 185.19C248.094 185.505 248.46 185.92 248.746 186.433C249.04 186.946 249.186 187.599 249.186 188.391C249.186 189.212 249.014 189.935 248.669 190.558C248.332 191.174 247.874 191.687 247.294 192.098C246.715 192.509 246.051 192.817 245.303 193.022C244.563 193.227 243.785 193.33 242.971 193.33ZM259.316 193L254.685 177.16H257.468L260.625 188.6L263.771 177.182L266.554 177.16L269.711 188.6L272.857 177.16H275.64L271.02 193H268.402L265.157 181.736L261.934 193H259.316ZM283.704 193.33C282.12 193.33 280.763 192.985 279.634 192.296C278.505 191.599 277.636 190.631 277.027 189.392C276.426 188.153 276.125 186.715 276.125 185.08C276.125 183.445 276.426 182.007 277.027 180.768C277.636 179.529 278.505 178.564 279.634 177.875C280.763 177.178 282.12 176.83 283.704 176.83C285.288 176.83 286.645 177.178 287.774 177.875C288.911 178.564 289.78 179.529 290.381 180.768C290.99 182.007 291.294 183.445 291.294 185.08C291.294 186.715 290.99 188.153 290.381 189.392C289.78 190.631 288.911 191.599 287.774 192.296C286.645 192.985 285.288 193.33 283.704 193.33ZM283.704 190.833C284.767 190.84 285.651 190.606 286.355 190.129C287.066 189.652 287.598 188.981 287.95 188.116C288.309 187.251 288.489 186.239 288.489 185.08C288.489 183.921 288.309 182.917 287.95 182.066C287.598 181.208 287.066 180.541 286.355 180.064C285.651 179.587 284.767 179.342 283.704 179.327C282.641 179.32 281.757 179.554 281.053 180.031C280.349 180.508 279.817 181.179 279.458 182.044C279.106 182.909 278.93 183.921 278.93 185.08C278.93 186.239 279.106 187.247 279.458 188.105C279.81 188.956 280.338 189.619 281.042 190.096C281.753 190.573 282.641 190.818 283.704 190.833ZM299.863 193.33C298.602 193.33 297.491 193.073 296.53 192.56C295.577 192.047 294.829 191.324 294.286 190.393C293.751 189.462 293.483 188.369 293.483 187.115V177.182L296.167 177.16V187.049C296.167 187.643 296.266 188.175 296.464 188.644C296.67 189.113 296.945 189.513 297.289 189.843C297.634 190.166 298.03 190.411 298.477 190.58C298.925 190.749 299.387 190.833 299.863 190.833C300.355 190.833 300.82 190.749 301.26 190.58C301.708 190.404 302.104 190.155 302.448 189.832C302.793 189.502 303.064 189.102 303.262 188.633C303.46 188.164 303.559 187.636 303.559 187.049V177.16H306.243V187.115C306.243 188.369 305.972 189.462 305.429 190.393C304.894 191.324 304.146 192.047 303.185 192.56C302.232 193.073 301.125 193.33 299.863 193.33ZM309.537 193V177.16H312.188V190.514H319.184V193H309.537ZM321.048 193V177.16H326.097C326.229 177.16 326.489 177.164 326.878 177.171C327.274 177.178 327.655 177.204 328.022 177.248C329.276 177.409 330.335 177.857 331.201 178.59C332.073 179.316 332.733 180.244 333.181 181.373C333.628 182.502 333.852 183.738 333.852 185.08C333.852 186.422 333.628 187.658 333.181 188.787C332.733 189.916 332.073 190.848 331.201 191.581C330.335 192.307 329.276 192.751 328.022 192.912C327.662 192.956 327.285 192.982 326.889 192.989C326.493 192.996 326.229 193 326.097 193H321.048ZM323.743 190.503H326.097C326.317 190.503 326.595 190.496 326.933 190.481C327.277 190.466 327.582 190.433 327.846 190.382C328.594 190.243 329.202 189.909 329.672 189.381C330.141 188.853 330.486 188.211 330.706 187.456C330.933 186.701 331.047 185.909 331.047 185.08C331.047 184.222 330.933 183.415 330.706 182.66C330.478 181.905 330.126 181.27 329.65 180.757C329.18 180.244 328.579 179.917 327.846 179.778C327.582 179.719 327.277 179.686 326.933 179.679C326.595 179.664 326.317 179.657 326.097 179.657H323.743V190.503ZM344.706 193V186.51L339.316 177.16H342.407L346.048 183.474L349.678 177.16H352.769L347.39 186.51V193H344.706ZM360.124 193.33C358.54 193.33 357.183 192.985 356.054 192.296C354.924 191.599 354.055 190.631 353.447 189.392C352.845 188.153 352.545 186.715 352.545 185.08C352.545 183.445 352.845 182.007 353.447 180.768C354.055 179.529 354.924 178.564 356.054 177.875C357.183 177.178 358.54 176.83 360.124 176.83C361.708 176.83 363.064 177.178 364.194 177.875C365.33 178.564 366.199 179.529 366.801 180.768C367.409 182.007 367.714 183.445 367.714 185.08C367.714 186.715 367.409 188.153 366.801 189.392C366.199 190.631 365.33 191.599 364.194 192.296C363.064 192.985 361.708 193.33 360.124 193.33ZM360.124 190.833C361.187 190.84 362.071 190.606 362.775 190.129C363.486 189.652 364.018 188.981 364.37 188.116C364.729 187.251 364.909 186.239 364.909 185.08C364.909 183.921 364.729 182.917 364.37 182.066C364.018 181.208 363.486 180.541 362.775 180.064C362.071 179.587 361.187 179.342 360.124 179.327C359.06 179.32 358.177 179.554 357.473 180.031C356.769 180.508 356.237 181.179 355.878 182.044C355.526 182.909 355.35 183.921 355.35 185.08C355.35 186.239 355.526 187.247 355.878 188.105C356.23 188.956 356.758 189.619 357.462 190.096C358.173 190.573 359.06 190.818 360.124 190.833ZM376.283 193.33C375.022 193.33 373.911 193.073 372.95 192.56C371.997 192.047 371.249 191.324 370.706 190.393C370.171 189.462 369.903 188.369 369.903 187.115V177.182L372.587 177.16V187.049C372.587 187.643 372.686 188.175 372.884 188.644C373.09 189.113 373.365 189.513 373.709 189.843C374.054 190.166 374.45 190.411 374.897 190.58C375.345 190.749 375.807 190.833 376.283 190.833C376.775 190.833 377.24 190.749 377.68 190.58C378.128 190.404 378.524 190.155 378.868 189.832C379.213 189.502 379.484 189.102 379.682 188.633C379.88 188.164 379.979 187.636 379.979 187.049V177.16H382.663V187.115C382.663 188.369 382.392 189.462 381.849 190.393C381.314 191.324 380.566 192.047 379.605 192.56C378.652 193.073 377.545 193.33 376.283 193.33ZM390.142 193V177.16H392.826L400.174 188.325V177.16H402.858V193H400.174L392.826 181.835V193H390.142ZM405.933 193V177.16H416.163V179.646H408.584V183.551H414.843V186.037H408.584V190.514H416.163V193H405.933ZM422.366 193L417.372 177.16H420.1L424.28 190.426L428.515 177.16H431.243L426.249 193H422.366ZM432.895 193V177.16H443.125V179.646H435.546V183.551H441.805V186.037H435.546V190.514H443.125V193H432.895ZM445.765 193V177.16H452.31C452.464 177.16 452.662 177.167 452.904 177.182C453.146 177.189 453.369 177.211 453.575 177.248C454.491 177.387 455.247 177.692 455.841 178.161C456.442 178.63 456.886 179.224 457.172 179.943C457.465 180.654 457.612 181.446 457.612 182.319C457.612 183.61 457.285 184.721 456.633 185.652C455.98 186.576 454.979 187.148 453.63 187.368L452.497 187.467H448.416V193H445.765ZM454.862 193L451.738 186.554L454.433 185.96L457.865 193H454.862ZM448.416 184.992H452.2C452.346 184.992 452.511 184.985 452.695 184.97C452.878 184.955 453.047 184.926 453.201 184.882C453.641 184.772 453.985 184.578 454.235 184.299C454.491 184.02 454.671 183.705 454.774 183.353C454.884 183.001 454.939 182.656 454.939 182.319C454.939 181.982 454.884 181.637 454.774 181.285C454.671 180.926 454.491 180.607 454.235 180.328C453.985 180.049 453.641 179.855 453.201 179.745C453.047 179.701 452.878 179.675 452.695 179.668C452.511 179.653 452.346 179.646 452.2 179.646H448.416V184.992ZM471.391 193.33C469.807 193.33 468.451 192.985 467.321 192.296C466.192 191.599 465.323 190.631 464.714 189.392C464.113 188.153 463.812 186.715 463.812 185.08C463.812 183.445 464.113 182.007 464.714 180.768C465.323 179.529 466.192 178.564 467.321 177.875C468.451 177.178 469.807 176.83 471.391 176.83C473.217 176.83 474.739 177.288 475.956 178.205C477.174 179.114 478.028 180.343 478.519 181.89L475.846 182.627C475.538 181.593 475.014 180.786 474.273 180.207C473.533 179.62 472.572 179.327 471.391 179.327C470.328 179.327 469.441 179.565 468.729 180.042C468.025 180.519 467.494 181.19 467.134 182.055C466.782 182.913 466.603 183.921 466.595 185.08C466.595 186.239 466.771 187.251 467.123 188.116C467.483 188.974 468.018 189.641 468.729 190.118C469.441 190.595 470.328 190.833 471.391 190.833C472.572 190.833 473.533 190.54 474.273 189.953C475.014 189.366 475.538 188.56 475.846 187.533L478.519 188.27C478.028 189.817 477.174 191.049 475.956 191.966C474.739 192.875 473.217 193.33 471.391 193.33ZM480.935 193V177.16H483.586V183.826H491.088V177.16H493.728V193H491.088V186.312H483.586V193H480.935ZM503.51 193.33C501.926 193.33 500.57 192.985 499.44 192.296C498.311 191.599 497.442 190.631 496.833 189.392C496.232 188.153 495.931 186.715 495.931 185.08C495.931 183.445 496.232 182.007 496.833 180.768C497.442 179.529 498.311 178.564 499.44 177.875C500.57 177.178 501.926 176.83 503.51 176.83C505.094 176.83 506.451 177.178 507.58 177.875C508.717 178.564 509.586 179.529 510.187 180.768C510.796 182.007 511.1 183.445 511.1 185.08C511.1 186.715 510.796 188.153 510.187 189.392C509.586 190.631 508.717 191.599 507.58 192.296C506.451 192.985 505.094 193.33 503.51 193.33ZM503.51 190.833C504.574 190.84 505.457 190.606 506.161 190.129C506.873 189.652 507.404 188.981 507.756 188.116C508.116 187.251 508.295 186.239 508.295 185.08C508.295 183.921 508.116 182.917 507.756 182.066C507.404 181.208 506.873 180.541 506.161 180.064C505.457 179.587 504.574 179.342 503.51 179.327C502.447 179.32 501.563 179.554 500.859 180.031C500.155 180.508 499.624 181.179 499.264 182.044C498.912 182.909 498.736 183.921 498.736 185.08C498.736 186.239 498.912 187.247 499.264 188.105C499.616 188.956 500.144 189.619 500.848 190.096C501.56 190.573 502.447 190.818 503.51 190.833ZM519.989 193.33C518.405 193.33 517.048 192.985 515.919 192.296C514.79 191.599 513.921 190.631 513.312 189.392C512.711 188.153 512.41 186.715 512.41 185.08C512.41 183.445 512.711 182.007 513.312 180.768C513.921 179.529 514.79 178.564 515.919 177.875C517.048 177.178 518.405 176.83 519.989 176.83C521.573 176.83 522.93 177.178 524.059 177.875C525.196 178.564 526.065 179.529 526.666 180.768C527.275 182.007 527.579 183.445 527.579 185.08C527.579 186.715 527.275 188.153 526.666 189.392C526.065 190.631 525.196 191.599 524.059 192.296C522.93 192.985 521.573 193.33 519.989 193.33ZM519.989 190.833C521.052 190.84 521.936 190.606 522.64 190.129C523.351 189.652 523.883 188.981 524.235 188.116C524.594 187.251 524.774 186.239 524.774 185.08C524.774 183.921 524.594 182.917 524.235 182.066C523.883 181.208 523.351 180.541 522.64 180.064C521.936 179.587 521.052 179.342 519.989 179.327C518.926 179.32 518.042 179.554 517.338 180.031C516.634 180.508 516.102 181.179 515.743 182.044C515.391 182.909 515.215 183.921 515.215 185.08C515.215 186.239 515.391 187.247 515.743 188.105C516.095 188.956 516.623 189.619 517.327 190.096C518.038 190.573 518.926 190.818 519.989 190.833ZM535.632 193.33C534.473 193.33 533.428 193.128 532.497 192.725C531.573 192.322 530.81 191.746 530.209 190.998C529.615 190.243 529.237 189.348 529.076 188.314L531.826 187.896C532.06 188.835 532.541 189.561 533.267 190.074C534 190.587 534.843 190.844 535.797 190.844C536.361 190.844 536.893 190.756 537.392 190.58C537.89 190.404 538.294 190.147 538.602 189.81C538.917 189.473 539.075 189.058 539.075 188.567C539.075 188.347 539.038 188.145 538.965 187.962C538.891 187.771 538.781 187.603 538.635 187.456C538.495 187.309 538.312 187.177 538.085 187.06C537.865 186.935 537.608 186.829 537.315 186.741L533.223 185.531C532.871 185.428 532.489 185.293 532.079 185.124C531.675 184.948 531.29 184.71 530.924 184.409C530.564 184.101 530.267 183.712 530.033 183.243C529.805 182.766 529.692 182.18 529.692 181.483C529.692 180.464 529.948 179.609 530.462 178.92C530.982 178.223 531.679 177.703 532.552 177.358C533.432 177.013 534.407 176.845 535.478 176.852C536.563 176.859 537.531 177.046 538.382 177.413C539.232 177.772 539.944 178.297 540.516 178.986C541.088 179.675 541.491 180.508 541.726 181.483L538.877 181.978C538.759 181.421 538.532 180.948 538.195 180.559C537.865 180.163 537.458 179.862 536.974 179.657C536.497 179.452 535.987 179.342 535.445 179.327C534.917 179.32 534.425 179.4 533.971 179.569C533.523 179.73 533.16 179.965 532.882 180.273C532.61 180.581 532.475 180.94 532.475 181.351C532.475 181.74 532.592 182.059 532.827 182.308C533.061 182.55 533.351 182.744 533.696 182.891C534.048 183.03 534.403 183.148 534.763 183.243L537.601 184.035C537.989 184.138 538.426 184.277 538.91 184.453C539.394 184.629 539.859 184.875 540.307 185.19C540.754 185.505 541.121 185.92 541.407 186.433C541.7 186.946 541.847 187.599 541.847 188.391C541.847 189.212 541.674 189.935 541.33 190.558C540.992 191.174 540.534 191.687 539.955 192.098C539.375 192.509 538.712 192.817 537.964 193.022C537.223 193.227 536.446 193.33 535.632 193.33ZM544.228 193V177.16H554.458V179.646H546.879V183.551H553.138V186.037H546.879V190.514H554.458V193H544.228ZM213.078 224V208.16H222.615V210.811H215.729V214.76H221.295V217.4H215.729V224H213.078ZM231.293 224.33C229.709 224.33 228.352 223.985 227.223 223.296C226.093 222.599 225.224 221.631 224.616 220.392C224.014 219.153 223.714 217.715 223.714 216.08C223.714 214.445 224.014 213.007 224.616 211.768C225.224 210.529 226.093 209.564 227.223 208.875C228.352 208.178 229.709 207.83 231.293 207.83C232.877 207.83 234.233 208.178 235.363 208.875C236.499 209.564 237.368 210.529 237.97 211.768C238.578 213.007 238.883 214.445 238.883 216.08C238.883 217.715 238.578 219.153 237.97 220.392C237.368 221.631 236.499 222.599 235.363 223.296C234.233 223.985 232.877 224.33 231.293 224.33ZM231.293 221.833C232.356 221.84 233.24 221.606 233.944 221.129C234.655 220.652 235.187 219.981 235.539 219.116C235.898 218.251 236.078 217.239 236.078 216.08C236.078 214.921 235.898 213.917 235.539 213.066C235.187 212.208 234.655 211.541 233.944 211.064C233.24 210.587 232.356 210.342 231.293 210.327C230.229 210.32 229.346 210.554 228.642 211.031C227.938 211.508 227.406 212.179 227.047 213.044C226.695 213.909 226.519 214.921 226.519 216.08C226.519 217.239 226.695 218.247 227.047 219.105C227.399 219.956 227.927 220.619 228.631 221.096C229.342 221.573 230.229 221.818 231.293 221.833ZM241.072 224V208.16H247.617C247.771 208.16 247.969 208.167 248.211 208.182C248.453 208.189 248.677 208.211 248.882 208.248C249.799 208.387 250.554 208.692 251.148 209.161C251.75 209.63 252.193 210.224 252.479 210.943C252.773 211.654 252.919 212.446 252.919 213.319C252.919 214.61 252.593 215.721 251.94 216.652C251.288 217.576 250.287 218.148 248.937 218.368L247.804 218.467H243.723V224H241.072ZM250.169 224L247.045 217.554L249.74 216.96L253.172 224H250.169ZM243.723 215.992H247.507C247.654 215.992 247.819 215.985 248.002 215.97C248.186 215.955 248.354 215.926 248.508 215.882C248.948 215.772 249.293 215.578 249.542 215.299C249.799 215.02 249.979 214.705 250.081 214.353C250.191 214.001 250.246 213.656 250.246 213.319C250.246 212.982 250.191 212.637 250.081 212.285C249.979 211.926 249.799 211.607 249.542 211.328C249.293 211.049 248.948 210.855 248.508 210.745C248.354 210.701 248.186 210.675 248.002 210.668C247.819 210.653 247.654 210.646 247.507 210.646H243.723V215.992ZM263.806 224V210.646H258.68V208.16H271.583V210.646H266.457V224H263.806ZM273.342 224V208.16H279.887C280.041 208.16 280.239 208.167 280.481 208.182C280.723 208.189 280.946 208.211 281.152 208.248C282.068 208.387 282.824 208.692 283.418 209.161C284.019 209.63 284.463 210.224 284.749 210.943C285.042 211.654 285.189 212.446 285.189 213.319C285.189 214.61 284.862 215.721 284.21 216.652C283.557 217.576 282.556 218.148 281.207 218.368L280.074 218.467H275.993V224H273.342ZM282.439 224L279.315 217.554L282.01 216.96L285.442 224H282.439ZM275.993 215.992H279.777C279.923 215.992 280.088 215.985 280.272 215.97C280.455 215.955 280.624 215.926 280.778 215.882C281.218 215.772 281.562 215.578 281.812 215.299C282.068 215.02 282.248 214.705 282.351 214.353C282.461 214.001 282.516 213.656 282.516 213.319C282.516 212.982 282.461 212.637 282.351 212.285C282.248 211.926 282.068 211.607 281.812 211.328C281.562 211.049 281.218 210.855 280.778 210.745C280.624 210.701 280.455 210.675 280.272 210.668C280.088 210.653 279.923 210.646 279.777 210.646H275.993V215.992ZM286.765 224L291.759 208.16H295.642L300.636 224H297.908L293.376 209.788H293.97L289.493 224H286.765ZM289.548 220.568V218.093H297.864V220.568H289.548ZM304.642 224L299.648 208.16H302.376L306.556 221.426L310.791 208.16H313.519L308.525 224H304.642ZM315.172 224V208.16H325.402V210.646H317.823V214.551H324.082V217.037H317.823V221.514H325.402V224H315.172ZM328.261 224V208.16H330.912V221.514H337.908V224H328.261ZM339.991 224V208.16H342.642V224H339.991ZM345.937 224V208.16H348.621L355.969 219.325V208.16H358.653V224H355.969L348.621 212.835V224H345.937ZM368.262 224.33C367.236 224.33 366.271 224.15 365.369 223.791C364.475 223.424 363.686 222.889 363.004 222.185C362.33 221.481 361.802 220.619 361.42 219.6C361.039 218.573 360.848 217.4 360.848 216.08C360.848 214.349 361.171 212.872 361.816 211.647C362.462 210.415 363.345 209.473 364.467 208.82C365.589 208.16 366.854 207.83 368.262 207.83C370.213 207.83 371.757 208.285 372.893 209.194C374.037 210.096 374.811 211.365 375.214 213L372.508 213.429C372.208 212.49 371.716 211.742 371.034 211.185C370.352 210.62 369.483 210.338 368.427 210.338C367.364 210.323 366.48 210.554 365.776 211.031C365.072 211.508 364.541 212.179 364.181 213.044C363.829 213.909 363.653 214.921 363.653 216.08C363.653 217.239 363.829 218.247 364.181 219.105C364.533 219.956 365.061 220.619 365.765 221.096C366.477 221.573 367.364 221.818 368.427 221.833C369.227 221.84 369.927 221.697 370.528 221.404C371.13 221.103 371.621 220.652 372.002 220.051C372.384 219.442 372.64 218.683 372.772 217.774H369.978V215.695H375.588C375.603 215.812 375.614 215.985 375.621 216.212C375.629 216.439 375.632 216.575 375.632 216.619C375.632 218.115 375.335 219.446 374.741 220.612C374.155 221.771 373.311 222.68 372.211 223.34C371.111 224 369.795 224.33 368.262 224.33ZM380.713 219.699C380.713 219.193 380.76 218.705 380.856 218.236C380.958 217.759 381.123 217.319 381.351 216.916C381.549 216.527 381.769 216.219 382.011 215.992C382.253 215.757 382.524 215.526 382.825 215.299C383.125 215.064 383.459 214.753 383.826 214.364C384.126 214.034 384.324 213.708 384.42 213.385C384.515 213.055 384.563 212.703 384.563 212.329C384.563 212.087 384.537 211.86 384.486 211.647C384.434 211.434 384.343 211.251 384.211 211.097C384.005 210.826 383.741 210.635 383.419 210.525C383.096 210.408 382.751 210.349 382.385 210.349C382.084 210.349 381.794 210.389 381.516 210.47C381.244 210.543 381.013 210.661 380.823 210.822C380.603 210.998 380.441 211.214 380.339 211.471C380.236 211.728 380.188 212.01 380.196 212.318H377.402C377.475 211.585 377.673 210.906 377.996 210.283C378.326 209.652 378.758 209.15 379.294 208.776C379.712 208.468 380.181 208.237 380.702 208.083C381.23 207.929 381.758 207.852 382.286 207.852C383.092 207.852 383.851 207.977 384.563 208.226C385.281 208.475 385.879 208.886 386.356 209.458C386.686 209.832 386.935 210.265 387.104 210.756C387.28 211.247 387.368 211.746 387.368 212.252C387.368 213.007 387.203 213.697 386.873 214.32C386.55 214.943 386.139 215.519 385.641 216.047C385.406 216.296 385.182 216.516 384.97 216.707C384.757 216.898 384.559 217.085 384.376 217.268C384.2 217.444 384.053 217.631 383.936 217.829C383.73 218.174 383.609 218.467 383.573 218.709C383.536 218.944 383.518 219.274 383.518 219.699H380.713ZM380.735 224V221.085H383.518V224H380.735Z" fill="white"></path> <rect x="20" y="20" width="172" height="40" rx="20" fill="white" fill-opacity="0.3"></rect> <path d="M36.1271 46V35.832H32.1991V34.48H41.4791V35.832H37.5511V46H36.1271ZM42.7528 46V34.48H47.3048C47.4168 34.48 47.5501 34.4853 47.7048 34.496C47.8595 34.5013 48.0088 34.5173 48.1528 34.544C48.7768 34.64 49.2995 34.8533 49.7208 35.184C50.1475 35.5147 50.4675 35.9333 50.6808 36.44C50.8941 36.9413 51.0008 37.4987 51.0008 38.112C51.0008 39.0027 50.7688 39.776 50.3048 40.432C49.8408 41.0827 49.1608 41.4907 48.2648 41.656L47.7208 41.744H44.1768V46H42.7528ZM49.6088 46L47.3368 41.312L48.7448 40.88L51.2408 46H49.6088ZM44.1768 40.392H47.2568C47.3581 40.392 47.4728 40.3867 47.6008 40.376C47.7341 40.3653 47.8595 40.3467 47.9768 40.32C48.3448 40.2347 48.6435 40.08 48.8728 39.856C49.1075 39.6267 49.2781 39.36 49.3848 39.056C49.4915 38.7467 49.5448 38.432 49.5448 38.112C49.5448 37.792 49.4915 37.48 49.3848 37.176C49.2781 36.8667 49.1075 36.5973 48.8728 36.368C48.6435 36.1387 48.3448 35.984 47.9768 35.904C47.8595 35.872 47.7341 35.8533 47.6008 35.848C47.4728 35.8373 47.3581 35.832 47.2568 35.832H44.1768V40.392ZM52.2028 46L56.0588 34.48H58.0428L61.8988 46H60.4188L56.8108 35.312H57.2588L53.6828 46H52.2028ZM54.0588 43.304V41.968H60.0428V43.304H54.0588ZM65.0219 46L61.1659 34.48H62.6459L65.9979 44.488L69.3819 34.48H70.8619L67.0059 46H65.0219ZM72.0653 46V34.48H79.3453V35.832H73.4893V39.44H78.3853V40.792H73.4893V44.648H79.3453V46H72.0653ZM81.4284 46V34.48H82.8524V44.648H88.1964V46H81.4284ZM89.7097 46V34.48H91.1337V46H89.7097ZM93.5341 46V34.48H94.9741L100.982 43.48V34.48H102.422V46H100.982L94.9741 36.992V46H93.5341ZM109.323 46.24C108.534 46.24 107.814 46.1013 107.163 45.824C106.512 45.5467 105.952 45.1493 105.483 44.632C105.014 44.1093 104.651 43.48 104.395 42.744C104.144 42.0027 104.019 41.168 104.019 40.24C104.019 39.0133 104.238 37.952 104.675 37.056C105.112 36.16 105.728 35.4693 106.523 34.984C107.318 34.4933 108.251 34.248 109.323 34.248C110.614 34.248 111.654 34.5493 112.443 35.152C113.232 35.7493 113.776 36.568 114.075 37.608L112.635 37.904C112.395 37.2053 112 36.648 111.451 36.232C110.902 35.816 110.216 35.608 109.395 35.608C108.536 35.6027 107.822 35.7947 107.251 36.184C106.686 36.568 106.259 37.1093 105.971 37.808C105.683 38.5067 105.536 39.3173 105.531 40.24C105.526 41.1573 105.667 41.9627 105.955 42.656C106.243 43.3493 106.672 43.8933 107.243 44.288C107.819 44.6773 108.536 44.8747 109.395 44.88C110.136 44.8853 110.76 44.744 111.267 44.456C111.774 44.168 112.166 43.752 112.443 43.208C112.72 42.664 112.888 42.0107 112.947 41.248H110.499V40.072H114.451C114.467 40.1787 114.475 40.3067 114.475 40.456C114.48 40.6 114.483 40.6987 114.483 40.752C114.483 41.8027 114.286 42.744 113.891 43.576C113.502 44.4027 112.923 45.0533 112.155 45.528C111.392 46.0027 110.448 46.24 109.323 46.24ZM123.028 46.24C122.388 46.24 121.791 46.1467 121.236 45.96C120.681 45.7733 120.217 45.48 119.844 45.08C119.556 44.76 119.34 44.408 119.196 44.024C119.057 43.6347 118.98 43.224 118.964 42.792C118.964 42.3707 119.025 41.96 119.148 41.56C119.271 41.1547 119.465 40.7947 119.732 40.48C119.871 40.3093 120.025 40.1653 120.196 40.048C120.372 39.9253 120.548 39.8213 120.724 39.736C120.356 39.3413 120.073 38.9707 119.876 38.624C119.684 38.2773 119.588 37.8587 119.588 37.368C119.588 36.744 119.748 36.1813 120.068 35.68C120.393 35.1733 120.836 34.8027 121.396 34.568C121.668 34.4507 121.945 34.3707 122.228 34.328C122.516 34.28 122.796 34.256 123.068 34.256C123.527 34.256 123.972 34.32 124.404 34.448C124.836 34.576 125.204 34.784 125.508 35.072C125.711 35.2427 125.884 35.44 126.028 35.664C126.172 35.8827 126.284 36.112 126.364 36.352L124.972 36.712C124.871 36.44 124.703 36.2107 124.468 36.024C124.281 35.864 124.063 35.7547 123.812 35.696C123.567 35.6373 123.319 35.608 123.068 35.608C122.652 35.608 122.276 35.688 121.94 35.848C121.641 35.992 121.417 36.1947 121.268 36.456C121.119 36.712 121.044 37.016 121.044 37.368C121.044 37.672 121.095 37.9227 121.196 38.12C121.303 38.312 121.449 38.5173 121.636 38.736C121.748 38.8533 121.873 38.9787 122.012 39.112C122.156 39.24 122.303 39.3733 122.452 39.512L125.844 42.664C125.86 42.5307 125.871 42.3947 125.876 42.256C125.881 42.1173 125.884 41.984 125.884 41.856L125.876 40.264H127.18V42.136C127.18 42.5147 127.167 42.8373 127.14 43.104C127.119 43.3707 127.081 43.592 127.028 43.768L128.492 45.12L127.564 46.112L126.348 44.96C126.14 45.1947 125.892 45.4 125.604 45.576C125.316 45.752 125.028 45.8853 124.74 45.976C124.468 46.0773 124.188 46.1467 123.9 46.184C123.612 46.2213 123.321 46.24 123.028 46.24ZM123.06 44.872C123.321 44.872 123.559 44.856 123.772 44.824C123.985 44.792 124.188 44.7307 124.38 44.64C124.636 44.5173 124.833 44.4 124.972 44.288C125.111 44.176 125.225 44.072 125.316 43.976L121.804 40.76C121.612 40.824 121.431 40.9093 121.26 41.016C121.095 41.1227 120.951 41.248 120.828 41.392C120.689 41.5627 120.585 41.7627 120.516 41.992C120.452 42.2213 120.42 42.464 120.42 42.72C120.425 42.992 120.471 43.2427 120.556 43.472C120.641 43.7013 120.761 43.9067 120.916 44.088C121.151 44.36 121.468 44.56 121.868 44.688C122.268 44.8107 122.665 44.872 123.06 44.872ZM137.739 46.24C136.592 46.24 135.619 45.9867 134.819 45.48C134.019 44.9733 133.408 44.2693 132.987 43.368C132.571 42.4667 132.363 41.424 132.363 40.24C132.363 39.056 132.571 38.0133 132.987 37.112C133.408 36.2107 134.019 35.5067 134.819 35C135.619 34.4933 136.592 34.24 137.739 34.24C139.072 34.24 140.168 34.5787 141.027 35.256C141.891 35.9333 142.485 36.8453 142.811 37.992L141.363 38.376C141.128 37.5173 140.709 36.84 140.107 36.344C139.504 35.848 138.715 35.6 137.739 35.6C136.88 35.6 136.165 35.7947 135.595 36.184C135.024 36.5733 134.595 37.1173 134.307 37.816C134.019 38.5093 133.872 39.3173 133.867 40.24C133.861 41.1573 134.003 41.9653 134.291 42.664C134.579 43.3573 135.011 43.9013 135.587 44.296C136.163 44.6853 136.88 44.88 137.739 44.88C138.715 44.88 139.504 44.632 140.107 44.136C140.709 43.6347 141.128 42.9573 141.363 42.104L142.811 42.488C142.485 43.6293 141.891 44.5413 141.027 45.224C140.168 45.9013 139.072 46.24 137.739 46.24ZM144.725 46V34.48H146.149V46H144.725ZM151.518 46V35.832H147.59V34.48H156.87V35.832H152.942V46H151.518ZM158.303 46V34.48H159.727V46H158.303ZM162.128 46V34.48H169.408V35.832H163.552V39.44H168.448V40.792H163.552V44.648H169.408V46H162.128ZM175.091 46.24C174.275 46.24 173.539 46.1013 172.883 45.824C172.232 45.5467 171.693 45.152 171.267 44.64C170.845 44.1227 170.571 43.512 170.443 42.808L171.915 42.576C172.101 43.3013 172.488 43.8693 173.075 44.28C173.667 44.6853 174.363 44.888 175.163 44.888C175.68 44.888 176.147 44.808 176.563 44.648C176.984 44.4827 177.317 44.248 177.563 43.944C177.808 43.64 177.931 43.28 177.931 42.864C177.931 42.608 177.885 42.3893 177.795 42.208C177.709 42.0213 177.589 41.864 177.435 41.736C177.285 41.6027 177.115 41.4907 176.923 41.4C176.731 41.3093 176.531 41.2347 176.323 41.176L173.387 40.304C173.067 40.208 172.757 40.088 172.459 39.944C172.16 39.7947 171.893 39.6107 171.659 39.392C171.424 39.168 171.237 38.9013 171.099 38.592C170.96 38.2773 170.891 37.9067 170.891 37.48C170.891 36.7973 171.067 36.216 171.419 35.736C171.776 35.2507 172.259 34.88 172.867 34.624C173.475 34.368 174.16 34.2427 174.923 34.248C175.696 34.2533 176.387 34.392 176.995 34.664C177.608 34.9307 178.115 35.3147 178.515 35.816C178.92 36.3173 179.192 36.9173 179.331 37.616L177.819 37.88C177.739 37.4107 177.56 37.008 177.283 36.672C177.011 36.3307 176.669 36.0693 176.259 35.888C175.848 35.7013 175.397 35.6053 174.907 35.6C174.437 35.5947 174.013 35.6693 173.635 35.824C173.256 35.9787 172.955 36.1947 172.731 36.472C172.507 36.744 172.395 37.0587 172.395 37.416C172.395 37.768 172.496 38.0533 172.699 38.272C172.901 38.4853 173.149 38.656 173.443 38.784C173.741 38.9067 174.032 39.008 174.315 39.088L176.507 39.72C176.757 39.7893 177.045 39.8853 177.371 40.008C177.701 40.1307 178.021 40.304 178.331 40.528C178.64 40.7467 178.896 41.04 179.099 41.408C179.301 41.7707 179.403 42.2293 179.403 42.784C179.403 43.3387 179.291 43.832 179.067 44.264C178.848 44.696 178.541 45.0587 178.147 45.352C177.752 45.64 177.293 45.8587 176.771 46.008C176.248 46.1627 175.688 46.24 175.091 46.24Z" fill="white"></path> <defs> <linearGradient id="paint0_linear_131_81" x1="300" y1="0" x2="300" y2="400" gradientUnits="userSpaceOnUse"> <stop stop-color="#0072FF"></stop> <stop offset="1" stop-color="#5199FF"></stop> </linearGradient> </defs> </svg> 