<?xml version="1.0" encoding="UTF-8"?> <svg xmlns="http://www.w3.org/2000/svg" width="600" height="400" viewBox="0 0 600 400" fill="none"> <rect width="600" height="400" rx="20" fill="url(#paint0_linear_131_200)"></rect> <path d="M70.9976 193L75.9916 177.16H79.8746L84.8686 193H82.1406L77.6086 178.788H78.2026L73.7256 193H70.9976ZM73.7806 189.568V187.093H82.0966V189.568H73.7806ZM86.8574 193V177.16H93.4024C93.5564 177.16 93.7544 177.167 93.9964 177.182C94.2384 177.189 94.462 177.211 94.6674 177.248C95.584 177.387 96.3394 177.692 96.9334 178.161C97.5347 178.63 97.9784 179.224 98.2644 179.943C98.5577 180.654 98.7044 181.446 98.7044 182.319C98.7044 183.61 98.378 184.721 97.7254 185.652C97.0727 186.576 96.0717 187.148 94.7224 187.368L93.5894 187.467H89.5084V193H86.8574ZM95.9544 193L92.8304 186.554L95.5254 185.96L98.9574 193H95.9544ZM89.5084 184.992H93.2924C93.4391 184.992 93.6041 184.985 93.7874 184.97C93.9707 184.955 94.1394 184.926 94.2934 184.882C94.7334 184.772 95.078 184.578 95.3274 184.299C95.584 184.02 95.7637 183.705 95.8664 183.353C95.9764 183.001 96.0314 182.656 96.0314 182.319C96.0314 181.982 95.9764 181.637 95.8664 181.285C95.7637 180.926 95.584 180.607 95.3274 180.328C95.078 180.049 94.7334 179.855 94.2934 179.745C94.1394 179.701 93.9707 179.675 93.7874 179.668C93.6041 179.653 93.4391 179.646 93.2924 179.646H89.5084V184.992ZM101.381 193V177.16H111.611V179.646H104.032V183.551H110.291V186.037H104.032V190.514H111.611V193H101.381ZM122.46 193V179.646H117.334V177.16H130.237V179.646H125.111V193H122.46ZM131.996 193V177.16H134.647V183.826H142.149V177.16H144.789V193H142.149V186.312H134.647V193H131.996ZM147.873 193V177.16H158.103V179.646H150.524V183.551H156.783V186.037H150.524V190.514H158.103V193H147.873ZM160.742 193V177.16H167.287C167.441 177.16 167.639 177.167 167.881 177.182C168.123 177.189 168.347 177.211 168.552 177.248C169.469 177.387 170.224 177.692 170.818 178.161C171.419 178.63 171.863 179.224 172.149 179.943C172.442 180.654 172.589 181.446 172.589 182.319C172.589 183.61 172.263 184.721 171.61 185.652C170.957 186.576 169.956 187.148 168.607 187.368L167.474 187.467H163.393V193H160.742ZM169.839 193L166.715 186.554L169.41 185.96L172.842 193H169.839ZM163.393 184.992H167.177C167.324 184.992 167.489 184.985 167.672 184.97C167.855 184.955 168.024 184.926 168.178 184.882C168.618 184.772 168.963 184.578 169.212 184.299C169.469 184.02 169.648 183.705 169.751 183.353C169.861 183.001 169.916 182.656 169.916 182.319C169.916 181.982 169.861 181.637 169.751 181.285C169.648 180.926 169.469 180.607 169.212 180.328C168.963 180.049 168.618 179.855 168.178 179.745C168.024 179.701 167.855 179.675 167.672 179.668C167.489 179.653 167.324 179.646 167.177 179.646H163.393V184.992ZM175.266 193V177.16H185.496V179.646H177.917V183.551H184.176V186.037H177.917V190.514H185.496V193H175.266ZM191.439 193L196.433 177.16H200.316L205.31 193H202.582L198.05 178.788H198.644L194.167 193H191.439ZM194.222 189.568V187.093H202.538V189.568H194.222ZM207.299 193V177.16H209.983L217.331 188.325V177.16H220.015V193H217.331L209.983 181.835V193H207.299ZM226.94 193V186.51L221.55 177.16H224.641L228.282 183.474L231.912 177.16H235.003L229.624 186.51V193H226.94ZM246.761 193.33C245.177 193.33 243.821 192.985 242.691 192.296C241.562 191.599 240.693 190.631 240.084 189.392C239.483 188.153 239.182 186.715 239.182 185.08C239.182 183.445 239.483 182.007 240.084 180.768C240.693 179.529 241.562 178.564 242.691 177.875C243.821 177.178 245.177 176.83 246.761 176.83C248.587 176.83 250.109 177.288 251.326 178.205C252.544 179.114 253.398 180.343 253.889 181.89L251.216 182.627C250.908 181.593 250.384 180.786 249.643 180.207C248.903 179.62 247.942 179.327 246.761 179.327C245.698 179.327 244.811 179.565 244.099 180.042C243.395 180.519 242.864 181.19 242.504 182.055C242.152 182.913 241.973 183.921 241.965 185.08C241.965 186.239 242.141 187.251 242.493 188.116C242.853 188.974 243.388 189.641 244.099 190.118C244.811 190.595 245.698 190.833 246.761 190.833C247.942 190.833 248.903 190.54 249.643 189.953C250.384 189.366 250.908 188.56 251.216 187.533L253.889 188.27C253.398 189.817 252.544 191.049 251.326 191.966C250.109 192.875 248.587 193.33 246.761 193.33ZM256.525 193V177.16H259.176V193H256.525ZM266.277 193V179.646H261.151V177.16H274.054V179.646H268.928V193H266.277ZM276.032 193V177.16H278.683V193H276.032ZM281.978 193V177.16H292.208V179.646H284.629V183.551H290.888V186.037H284.629V190.514H292.208V193H281.978ZM300.56 193.33C299.402 193.33 298.357 193.128 297.425 192.725C296.501 192.322 295.739 191.746 295.137 190.998C294.543 190.243 294.166 189.348 294.004 188.314L296.754 187.896C296.989 188.835 297.469 189.561 298.195 190.074C298.929 190.587 299.772 190.844 300.725 190.844C301.29 190.844 301.822 190.756 302.32 190.58C302.819 190.404 303.222 190.147 303.53 189.81C303.846 189.473 304.003 189.058 304.003 188.567C304.003 188.347 303.967 188.145 303.893 187.962C303.82 187.771 303.71 187.603 303.563 187.456C303.424 187.309 303.241 187.177 303.013 187.06C302.793 186.935 302.537 186.829 302.243 186.741L298.151 185.531C297.799 185.428 297.418 185.293 297.007 185.124C296.604 184.948 296.219 184.71 295.852 184.409C295.493 184.101 295.196 183.712 294.961 183.243C294.734 182.766 294.62 182.18 294.62 181.483C294.62 180.464 294.877 179.609 295.39 178.92C295.911 178.223 296.608 177.703 297.48 177.358C298.36 177.013 299.336 176.845 300.406 176.852C301.492 176.859 302.46 177.046 303.31 177.413C304.161 177.772 304.872 178.297 305.444 178.986C306.016 179.675 306.42 180.508 306.654 181.483L303.805 181.978C303.688 181.421 303.461 180.948 303.123 180.559C302.793 180.163 302.386 179.862 301.902 179.657C301.426 179.452 300.916 179.342 300.373 179.327C299.845 179.32 299.354 179.4 298.899 179.569C298.452 179.73 298.089 179.965 297.81 180.273C297.539 180.581 297.403 180.94 297.403 181.351C297.403 181.74 297.521 182.059 297.755 182.308C297.99 182.55 298.28 182.744 298.624 182.891C298.976 183.03 299.332 183.148 299.691 183.243L302.529 184.035C302.918 184.138 303.354 184.277 303.838 184.453C304.322 184.629 304.788 184.875 305.235 185.19C305.683 185.505 306.049 185.92 306.335 186.433C306.629 186.946 306.775 187.599 306.775 188.391C306.775 189.212 306.603 189.935 306.258 190.558C305.921 191.174 305.463 191.687 304.883 192.098C304.304 192.509 303.64 192.817 302.892 193.022C302.152 193.227 301.374 193.33 300.56 193.33ZM312.461 193L317.455 177.16H321.338L326.332 193H323.604L319.072 178.788H319.666L315.189 193H312.461ZM315.244 189.568V187.093H323.56V189.568H315.244ZM328.32 193V177.16H334.865C335.019 177.16 335.217 177.167 335.459 177.182C335.701 177.189 335.925 177.211 336.13 177.248C337.047 177.387 337.802 177.692 338.396 178.161C338.998 178.63 339.441 179.224 339.727 179.943C340.021 180.654 340.167 181.446 340.167 182.319C340.167 183.184 340.021 183.976 339.727 184.695C339.434 185.406 338.987 185.997 338.385 186.466C337.791 186.935 337.04 187.24 336.13 187.379C335.925 187.408 335.698 187.43 335.448 187.445C335.206 187.46 335.012 187.467 334.865 187.467H330.971V193H328.32ZM330.971 184.992H334.755C334.902 184.992 335.067 184.985 335.25 184.97C335.434 184.955 335.602 184.926 335.756 184.882C336.196 184.772 336.541 184.578 336.79 184.299C337.047 184.02 337.227 183.705 337.329 183.353C337.439 183.001 337.494 182.656 337.494 182.319C337.494 181.982 337.439 181.637 337.329 181.285C337.227 180.926 337.047 180.607 336.79 180.328C336.541 180.049 336.196 179.855 335.756 179.745C335.602 179.701 335.434 179.675 335.25 179.668C335.067 179.653 334.902 179.646 334.755 179.646H330.971V184.992ZM340.175 193L345.169 177.16H349.052L354.046 193H351.318L346.786 178.788H347.38L342.903 193H340.175ZM342.958 189.568V187.093H351.274V189.568H342.958ZM356.035 193V177.16H362.58C362.734 177.16 362.932 177.167 363.174 177.182C363.416 177.189 363.64 177.211 363.845 177.248C364.762 177.387 365.517 177.692 366.111 178.161C366.712 178.63 367.156 179.224 367.442 179.943C367.735 180.654 367.882 181.446 367.882 182.319C367.882 183.61 367.556 184.721 366.903 185.652C366.25 186.576 365.249 187.148 363.9 187.368L362.767 187.467H358.686V193H356.035ZM365.132 193L362.008 186.554L364.703 185.96L368.135 193H365.132ZM358.686 184.992H362.47C362.617 184.992 362.782 184.985 362.965 184.97C363.148 184.955 363.317 184.926 363.471 184.882C363.911 184.772 364.256 184.578 364.505 184.299C364.762 184.02 364.941 183.705 365.044 183.353C365.154 183.001 365.209 182.656 365.209 182.319C365.209 181.982 365.154 181.637 365.044 181.285C364.941 180.926 364.762 180.607 364.505 180.328C364.256 180.049 363.911 179.855 363.471 179.745C363.317 179.701 363.148 179.675 362.965 179.668C362.782 179.653 362.617 179.646 362.47 179.646H358.686V184.992ZM374.365 193V179.646H369.239V177.16H382.142V179.646H377.016V193H374.365ZM387.639 193V177.16H397.176V179.811H390.29V183.76H395.856V186.4H390.29V193H387.639ZM399.154 193V177.16H405.699C405.853 177.16 406.051 177.167 406.293 177.182C406.535 177.189 406.759 177.211 406.964 177.248C407.881 177.387 408.636 177.692 409.23 178.161C409.832 178.63 410.275 179.224 410.561 179.943C410.855 180.654 411.001 181.446 411.001 182.319C411.001 183.61 410.675 184.721 410.022 185.652C409.37 186.576 408.369 187.148 407.019 187.368L405.886 187.467H401.805V193H399.154ZM408.251 193L405.127 186.554L407.822 185.96L411.254 193H408.251ZM401.805 184.992H405.589C405.736 184.992 405.901 184.985 406.084 184.97C406.268 184.955 406.436 184.926 406.59 184.882C407.03 184.772 407.375 184.578 407.624 184.299C407.881 184.02 408.061 183.705 408.163 183.353C408.273 183.001 408.328 182.656 408.328 182.319C408.328 181.982 408.273 181.637 408.163 181.285C408.061 180.926 407.881 180.607 407.624 180.328C407.375 180.049 407.03 179.855 406.59 179.745C406.436 179.701 406.268 179.675 406.084 179.668C405.901 179.653 405.736 179.646 405.589 179.646H401.805V184.992ZM420.377 193.33C418.793 193.33 417.436 192.985 416.307 192.296C415.177 191.599 414.308 190.631 413.7 189.392C413.098 188.153 412.798 186.715 412.798 185.08C412.798 183.445 413.098 182.007 413.7 180.768C414.308 179.529 415.177 178.564 416.307 177.875C417.436 177.178 418.793 176.83 420.377 176.83C421.961 176.83 423.317 177.178 424.447 177.875C425.583 178.564 426.452 179.529 427.054 180.768C427.662 182.007 427.967 183.445 427.967 185.08C427.967 186.715 427.662 188.153 427.054 189.392C426.452 190.631 425.583 191.599 424.447 192.296C423.317 192.985 421.961 193.33 420.377 193.33ZM420.377 190.833C421.44 190.84 422.324 190.606 423.028 190.129C423.739 189.652 424.271 188.981 424.623 188.116C424.982 187.251 425.162 186.239 425.162 185.08C425.162 183.921 424.982 182.917 424.623 182.066C424.271 181.208 423.739 180.541 423.028 180.064C422.324 179.587 421.44 179.342 420.377 179.327C419.313 179.32 418.43 179.554 417.726 180.031C417.022 180.508 416.49 181.179 416.131 182.044C415.779 182.909 415.603 183.921 415.603 185.08C415.603 186.239 415.779 187.247 416.131 188.105C416.483 188.956 417.011 189.619 417.715 190.096C418.426 190.573 419.313 190.818 420.377 190.833ZM430.156 193V177.16H432.543L438.021 188.38L443.499 177.16H445.886V193H443.411V182.847L438.549 193H437.493L432.642 182.847V193H430.156ZM456.725 193L452.094 177.16H454.877L458.034 188.6L461.18 177.182L463.963 177.16L467.12 188.6L470.266 177.16H473.049L468.429 193H465.811L462.566 181.736L459.343 193H456.725ZM474.844 193V177.16H477.495V183.826H484.997V177.16H487.637V193H484.997V186.312H477.495V193H474.844ZM490.721 193V177.16H500.951V179.646H493.372V183.551H499.631V186.037H493.372V190.514H500.951V193H490.721ZM503.59 193V177.16H510.135C510.289 177.16 510.487 177.167 510.729 177.182C510.971 177.189 511.194 177.211 511.4 177.248C512.316 177.387 513.072 177.692 513.666 178.161C514.267 178.63 514.711 179.224 514.997 179.943C515.29 180.654 515.437 181.446 515.437 182.319C515.437 183.61 515.11 184.721 514.458 185.652C513.805 186.576 512.804 187.148 511.455 187.368L510.322 187.467H506.241V193H503.59ZM512.687 193L509.563 186.554L512.258 185.96L515.69 193H512.687ZM506.241 184.992H510.025C510.171 184.992 510.336 184.985 510.52 184.97C510.703 184.955 510.872 184.926 511.026 184.882C511.466 184.772 511.81 184.578 512.06 184.299C512.316 184.02 512.496 183.705 512.599 183.353C512.709 183.001 512.764 182.656 512.764 182.319C512.764 181.982 512.709 181.637 512.599 181.285C512.496 180.926 512.316 180.607 512.06 180.328C511.81 180.049 511.466 179.855 511.026 179.745C510.872 179.701 510.703 179.675 510.52 179.668C510.336 179.653 510.171 179.646 510.025 179.646H506.241V184.992ZM518.113 193V177.16H528.343V179.646H520.764V183.551H527.023V186.037H520.764V190.514H528.343V193H518.113ZM112.235 224V217.51L106.845 208.16H109.936L113.577 214.474L117.207 208.16H120.298L114.919 217.51V224H112.235ZM127.652 224.33C126.068 224.33 124.711 223.985 123.582 223.296C122.453 222.599 121.584 221.631 120.975 220.392C120.374 219.153 120.073 217.715 120.073 216.08C120.073 214.445 120.374 213.007 120.975 211.768C121.584 210.529 122.453 209.564 123.582 208.875C124.711 208.178 126.068 207.83 127.652 207.83C129.236 207.83 130.593 208.178 131.722 208.875C132.859 209.564 133.728 210.529 134.329 211.768C134.938 213.007 135.242 214.445 135.242 216.08C135.242 217.715 134.938 219.153 134.329 220.392C133.728 221.631 132.859 222.599 131.722 223.296C130.593 223.985 129.236 224.33 127.652 224.33ZM127.652 221.833C128.715 221.84 129.599 221.606 130.303 221.129C131.014 220.652 131.546 219.981 131.898 219.116C132.257 218.251 132.437 217.239 132.437 216.08C132.437 214.921 132.257 213.917 131.898 213.066C131.546 212.208 131.014 211.541 130.303 211.064C129.599 210.587 128.715 210.342 127.652 210.327C126.589 210.32 125.705 210.554 125.001 211.031C124.297 211.508 123.765 212.179 123.406 213.044C123.054 213.909 122.878 214.921 122.878 216.08C122.878 217.239 123.054 218.247 123.406 219.105C123.758 219.956 124.286 220.619 124.99 221.096C125.701 221.573 126.589 221.818 127.652 221.833ZM143.812 224.33C142.55 224.33 141.439 224.073 140.479 223.56C139.525 223.047 138.777 222.324 138.235 221.393C137.699 220.462 137.432 219.369 137.432 218.115V208.182L140.116 208.16V218.049C140.116 218.643 140.215 219.175 140.413 219.644C140.618 220.113 140.893 220.513 141.238 220.843C141.582 221.166 141.978 221.411 142.426 221.58C142.873 221.749 143.335 221.833 143.812 221.833C144.303 221.833 144.769 221.749 145.209 221.58C145.656 221.404 146.052 221.155 146.397 220.832C146.741 220.502 147.013 220.102 147.211 219.633C147.409 219.164 147.508 218.636 147.508 218.049V208.16H150.192V218.115C150.192 219.369 149.92 220.462 149.378 221.393C148.842 222.324 148.094 223.047 147.134 223.56C146.18 224.073 145.073 224.33 143.812 224.33ZM157.89 224V208.16H160.541V221.514H167.537V224H157.89ZM169.62 224V208.16H172.271V224H169.62ZM179.13 224L174.136 208.16H176.864L181.044 221.426L185.279 208.16H188.007L183.013 224H179.13ZM189.66 224V208.16H199.89V210.646H192.311V214.551H198.57V217.037H192.311V221.514H199.89V224H189.66ZM210.74 224V210.646H205.614V208.16H218.517V210.646H213.391V224H210.74ZM220.275 224V208.16H222.926V214.826H230.428V208.16H233.068V224H230.428V217.312H222.926V224H220.275ZM235.052 224L240.046 208.16H243.929L248.923 224H246.195L241.663 209.788H242.257L237.78 224H235.052ZM237.835 220.568V218.093H246.151V220.568H237.835ZM253.408 224V210.646H248.282V208.16H261.185V210.646H256.059V224H253.408ZM265.582 224L270.576 208.16H274.459L279.453 224H276.725L272.193 209.788H272.787L268.31 224H265.582ZM268.365 220.568V218.093H276.681V220.568H268.365ZM283.937 224V210.646H278.811V208.16H291.714V210.646H286.588V224H283.937ZM298.589 224V210.646H293.463V208.16H306.366V210.646H301.24V224H298.589ZM308.125 224V208.16H314.67C314.824 208.16 315.022 208.167 315.264 208.182C315.506 208.189 315.73 208.211 315.935 208.248C316.852 208.387 317.607 208.692 318.201 209.161C318.802 209.63 319.246 210.224 319.532 210.943C319.825 211.654 319.972 212.446 319.972 213.319C319.972 214.61 319.646 215.721 318.993 216.652C318.34 217.576 317.339 218.148 315.99 218.368L314.857 218.467H310.776V224H308.125ZM317.222 224L314.098 217.554L316.793 216.96L320.225 224H317.222ZM310.776 215.992H314.56C314.707 215.992 314.872 215.985 315.055 215.97C315.238 215.955 315.407 215.926 315.561 215.882C316.001 215.772 316.346 215.578 316.595 215.299C316.852 215.02 317.031 214.705 317.134 214.353C317.244 214.001 317.299 213.656 317.299 213.319C317.299 212.982 317.244 212.637 317.134 212.285C317.031 211.926 316.852 211.607 316.595 211.328C316.346 211.049 316.001 210.855 315.561 210.745C315.407 210.701 315.238 210.675 315.055 210.668C314.872 210.653 314.707 210.646 314.56 210.646H310.776V215.992ZM321.548 224L326.542 208.16H330.425L335.419 224H332.691L328.159 209.788H328.753L324.276 224H321.548ZM324.331 220.568V218.093H332.647V220.568H324.331ZM343.677 224.33C342.093 224.33 340.737 223.985 339.607 223.296C338.478 222.599 337.609 221.631 337 220.392C336.399 219.153 336.098 217.715 336.098 216.08C336.098 214.445 336.399 213.007 337 211.768C337.609 210.529 338.478 209.564 339.607 208.875C340.737 208.178 342.093 207.83 343.677 207.83C345.503 207.83 347.025 208.288 348.242 209.205C349.46 210.114 350.314 211.343 350.805 212.89L348.132 213.627C347.824 212.593 347.3 211.786 346.559 211.207C345.819 210.62 344.858 210.327 343.677 210.327C342.614 210.327 341.727 210.565 341.015 211.042C340.311 211.519 339.78 212.19 339.42 213.055C339.068 213.913 338.889 214.921 338.881 216.08C338.881 217.239 339.057 218.251 339.409 219.116C339.769 219.974 340.304 220.641 341.015 221.118C341.727 221.595 342.614 221.833 343.677 221.833C344.858 221.833 345.819 221.54 346.559 220.953C347.3 220.366 347.824 219.56 348.132 218.533L350.805 219.27C350.314 220.817 349.46 222.049 348.242 222.966C347.025 223.875 345.503 224.33 343.677 224.33ZM357.027 224V210.646H351.901V208.16H364.804V210.646H359.678V224H357.027ZM374.151 224V217.51L368.761 208.16H371.852L375.493 214.474L379.123 208.16H382.214L376.835 217.51V224H374.151ZM389.568 224.33C387.984 224.33 386.627 223.985 385.498 223.296C384.369 222.599 383.5 221.631 382.891 220.392C382.29 219.153 381.989 217.715 381.989 216.08C381.989 214.445 382.29 213.007 382.891 211.768C383.5 210.529 384.369 209.564 385.498 208.875C386.627 208.178 387.984 207.83 389.568 207.83C391.152 207.83 392.509 208.178 393.638 208.875C394.775 209.564 395.644 210.529 396.245 211.768C396.854 213.007 397.158 214.445 397.158 216.08C397.158 217.715 396.854 219.153 396.245 220.392C395.644 221.631 394.775 222.599 393.638 223.296C392.509 223.985 391.152 224.33 389.568 224.33ZM389.568 221.833C390.631 221.84 391.515 221.606 392.219 221.129C392.93 220.652 393.462 219.981 393.814 219.116C394.173 218.251 394.353 217.239 394.353 216.08C394.353 214.921 394.173 213.917 393.814 213.066C393.462 212.208 392.93 211.541 392.219 211.064C391.515 210.587 390.631 210.342 389.568 210.327C388.505 210.32 387.621 210.554 386.917 211.031C386.213 211.508 385.681 212.179 385.322 213.044C384.97 213.909 384.794 214.921 384.794 216.08C384.794 217.239 384.97 218.247 385.322 219.105C385.674 219.956 386.202 220.619 386.906 221.096C387.617 221.573 388.505 221.818 389.568 221.833ZM405.728 224.33C404.466 224.33 403.355 224.073 402.395 223.56C401.441 223.047 400.693 222.324 400.151 221.393C399.615 220.462 399.348 219.369 399.348 218.115V208.182L402.032 208.16V218.049C402.032 218.643 402.131 219.175 402.329 219.644C402.534 220.113 402.809 220.513 403.154 220.843C403.498 221.166 403.894 221.411 404.342 221.58C404.789 221.749 405.251 221.833 405.728 221.833C406.219 221.833 406.685 221.749 407.125 221.58C407.572 221.404 407.968 221.155 408.313 220.832C408.657 220.502 408.929 220.102 409.127 219.633C409.325 219.164 409.424 218.636 409.424 218.049V208.16H412.108V218.115C412.108 219.369 411.836 220.462 411.294 221.393C410.758 222.324 410.01 223.047 409.05 223.56C408.096 224.073 406.989 224.33 405.728 224.33ZM418.053 219.699C418.053 219.193 418.1 218.705 418.196 218.236C418.298 217.759 418.463 217.319 418.691 216.916C418.889 216.527 419.109 216.219 419.351 215.992C419.593 215.757 419.864 215.526 420.165 215.299C420.465 215.064 420.799 214.753 421.166 214.364C421.466 214.034 421.664 213.708 421.76 213.385C421.855 213.055 421.903 212.703 421.903 212.329C421.903 212.087 421.877 211.86 421.826 211.647C421.774 211.434 421.683 211.251 421.551 211.097C421.345 210.826 421.081 210.635 420.759 210.525C420.436 210.408 420.091 210.349 419.725 210.349C419.424 210.349 419.134 210.389 418.856 210.47C418.584 210.543 418.353 210.661 418.163 210.822C417.943 210.998 417.781 211.214 417.679 211.471C417.576 211.728 417.528 212.01 417.536 212.318H414.742C414.815 211.585 415.013 210.906 415.336 210.283C415.666 209.652 416.098 209.15 416.634 208.776C417.052 208.468 417.521 208.237 418.042 208.083C418.57 207.929 419.098 207.852 419.626 207.852C420.432 207.852 421.191 207.977 421.903 208.226C422.621 208.475 423.219 208.886 423.696 209.458C424.026 209.832 424.275 210.265 424.444 210.756C424.62 211.247 424.708 211.746 424.708 212.252C424.708 213.007 424.543 213.697 424.213 214.32C423.89 214.943 423.479 215.519 422.981 216.047C422.746 216.296 422.522 216.516 422.31 216.707C422.097 216.898 421.899 217.085 421.716 217.268C421.54 217.444 421.393 217.631 421.276 217.829C421.07 218.174 420.949 218.467 420.913 218.709C420.876 218.944 420.858 219.274 420.858 219.699H418.053ZM418.075 224V221.085H420.858V224H418.075ZM435.09 224L430.459 208.16H433.242L436.399 219.6L439.545 208.182L442.328 208.16L445.485 219.6L448.631 208.16H451.414L446.794 224H444.176L440.931 212.736L437.708 224H435.09ZM453.209 224V208.16H455.86V214.826H463.362V208.16H466.002V224H463.362V217.312H455.86V224H453.209ZM472.936 224V217.51L467.546 208.16H470.637L474.278 214.474L477.908 208.16H480.999L475.62 217.51V224H472.936ZM485.406 219.699C485.406 219.193 485.454 218.705 485.549 218.236C485.652 217.759 485.817 217.319 486.044 216.916C486.242 216.527 486.462 216.219 486.704 215.992C486.946 215.757 487.217 215.526 487.518 215.299C487.819 215.064 488.152 214.753 488.519 214.364C488.82 214.034 489.018 213.708 489.113 213.385C489.208 213.055 489.256 212.703 489.256 212.329C489.256 212.087 489.23 211.86 489.179 211.647C489.128 211.434 489.036 211.251 488.904 211.097C488.699 210.826 488.435 210.635 488.112 210.525C487.789 210.408 487.445 210.349 487.078 210.349C486.777 210.349 486.488 210.389 486.209 210.47C485.938 210.543 485.707 210.661 485.516 210.822C485.296 210.998 485.135 211.214 485.032 211.471C484.929 211.728 484.882 212.01 484.889 212.318H482.095C482.168 211.585 482.366 210.906 482.689 210.283C483.019 209.652 483.452 209.15 483.987 208.776C484.405 208.468 484.874 208.237 485.395 208.083C485.923 207.929 486.451 207.852 486.979 207.852C487.786 207.852 488.545 207.977 489.256 208.226C489.975 208.475 490.572 208.886 491.049 209.458C491.379 209.832 491.628 210.265 491.797 210.756C491.973 211.247 492.061 211.746 492.061 212.252C492.061 213.007 491.896 213.697 491.566 214.32C491.243 214.943 490.833 215.519 490.334 216.047C490.099 216.296 489.876 216.516 489.663 216.707C489.45 216.898 489.252 217.085 489.069 217.268C488.893 217.444 488.746 217.631 488.629 217.829C488.424 218.174 488.303 218.467 488.266 218.709C488.229 218.944 488.211 219.274 488.211 219.699H485.406ZM485.428 224V221.085H488.211V224H485.428Z" fill="white"></path> <rect x="20" y="20" width="172" height="40" rx="20" fill="white" fill-opacity="0.3"></rect> <path d="M36.1271 46V35.832H32.1991V34.48H41.4791V35.832H37.5511V46H36.1271ZM42.7528 46V34.48H47.3048C47.4168 34.48 47.5501 34.4853 47.7048 34.496C47.8595 34.5013 48.0088 34.5173 48.1528 34.544C48.7768 34.64 49.2995 34.8533 49.7208 35.184C50.1475 35.5147 50.4675 35.9333 50.6808 36.44C50.8941 36.9413 51.0008 37.4987 51.0008 38.112C51.0008 39.0027 50.7688 39.776 50.3048 40.432C49.8408 41.0827 49.1608 41.4907 48.2648 41.656L47.7208 41.744H44.1768V46H42.7528ZM49.6088 46L47.3368 41.312L48.7448 40.88L51.2408 46H49.6088ZM44.1768 40.392H47.2568C47.3581 40.392 47.4728 40.3867 47.6008 40.376C47.7341 40.3653 47.8595 40.3467 47.9768 40.32C48.3448 40.2347 48.6435 40.08 48.8728 39.856C49.1075 39.6267 49.2781 39.36 49.3848 39.056C49.4915 38.7467 49.5448 38.432 49.5448 38.112C49.5448 37.792 49.4915 37.48 49.3848 37.176C49.2781 36.8667 49.1075 36.5973 48.8728 36.368C48.6435 36.1387 48.3448 35.984 47.9768 35.904C47.8595 35.872 47.7341 35.8533 47.6008 35.848C47.4728 35.8373 47.3581 35.832 47.2568 35.832H44.1768V40.392ZM52.2028 46L56.0588 34.48H58.0428L61.8988 46H60.4188L56.8108 35.312H57.2588L53.6828 46H52.2028ZM54.0588 43.304V41.968H60.0428V43.304H54.0588ZM65.0219 46L61.1659 34.48H62.6459L65.9979 44.488L69.3819 34.48H70.8619L67.0059 46H65.0219ZM72.0653 46V34.48H79.3453V35.832H73.4893V39.44H78.3853V40.792H73.4893V44.648H79.3453V46H72.0653ZM81.4284 46V34.48H82.8524V44.648H88.1964V46H81.4284ZM89.7097 46V34.48H91.1337V46H89.7097ZM93.5341 46V34.48H94.9741L100.982 43.48V34.48H102.422V46H100.982L94.9741 36.992V46H93.5341ZM109.323 46.24C108.534 46.24 107.814 46.1013 107.163 45.824C106.512 45.5467 105.952 45.1493 105.483 44.632C105.014 44.1093 104.651 43.48 104.395 42.744C104.144 42.0027 104.019 41.168 104.019 40.24C104.019 39.0133 104.238 37.952 104.675 37.056C105.112 36.16 105.728 35.4693 106.523 34.984C107.318 34.4933 108.251 34.248 109.323 34.248C110.614 34.248 111.654 34.5493 112.443 35.152C113.232 35.7493 113.776 36.568 114.075 37.608L112.635 37.904C112.395 37.2053 112 36.648 111.451 36.232C110.902 35.816 110.216 35.608 109.395 35.608C108.536 35.6027 107.822 35.7947 107.251 36.184C106.686 36.568 106.259 37.1093 105.971 37.808C105.683 38.5067 105.536 39.3173 105.531 40.24C105.526 41.1573 105.667 41.9627 105.955 42.656C106.243 43.3493 106.672 43.8933 107.243 44.288C107.819 44.6773 108.536 44.8747 109.395 44.88C110.136 44.8853 110.76 44.744 111.267 44.456C111.774 44.168 112.166 43.752 112.443 43.208C112.72 42.664 112.888 42.0107 112.947 41.248H110.499V40.072H114.451C114.467 40.1787 114.475 40.3067 114.475 40.456C114.48 40.6 114.483 40.6987 114.483 40.752C114.483 41.8027 114.286 42.744 113.891 43.576C113.502 44.4027 112.923 45.0533 112.155 45.528C111.392 46.0027 110.448 46.24 109.323 46.24ZM123.028 46.24C122.388 46.24 121.791 46.1467 121.236 45.96C120.681 45.7733 120.217 45.48 119.844 45.08C119.556 44.76 119.34 44.408 119.196 44.024C119.057 43.6347 118.98 43.224 118.964 42.792C118.964 42.3707 119.025 41.96 119.148 41.56C119.271 41.1547 119.465 40.7947 119.732 40.48C119.871 40.3093 120.025 40.1653 120.196 40.048C120.372 39.9253 120.548 39.8213 120.724 39.736C120.356 39.3413 120.073 38.9707 119.876 38.624C119.684 38.2773 119.588 37.8587 119.588 37.368C119.588 36.744 119.748 36.1813 120.068 35.68C120.393 35.1733 120.836 34.8027 121.396 34.568C121.668 34.4507 121.945 34.3707 122.228 34.328C122.516 34.28 122.796 34.256 123.068 34.256C123.527 34.256 123.972 34.32 124.404 34.448C124.836 34.576 125.204 34.784 125.508 35.072C125.711 35.2427 125.884 35.44 126.028 35.664C126.172 35.8827 126.284 36.112 126.364 36.352L124.972 36.712C124.871 36.44 124.703 36.2107 124.468 36.024C124.281 35.864 124.063 35.7547 123.812 35.696C123.567 35.6373 123.319 35.608 123.068 35.608C122.652 35.608 122.276 35.688 121.94 35.848C121.641 35.992 121.417 36.1947 121.268 36.456C121.119 36.712 121.044 37.016 121.044 37.368C121.044 37.672 121.095 37.9227 121.196 38.12C121.303 38.312 121.449 38.5173 121.636 38.736C121.748 38.8533 121.873 38.9787 122.012 39.112C122.156 39.24 122.303 39.3733 122.452 39.512L125.844 42.664C125.86 42.5307 125.871 42.3947 125.876 42.256C125.881 42.1173 125.884 41.984 125.884 41.856L125.876 40.264H127.18V42.136C127.18 42.5147 127.167 42.8373 127.14 43.104C127.119 43.3707 127.081 43.592 127.028 43.768L128.492 45.12L127.564 46.112L126.348 44.96C126.14 45.1947 125.892 45.4 125.604 45.576C125.316 45.752 125.028 45.8853 124.74 45.976C124.468 46.0773 124.188 46.1467 123.9 46.184C123.612 46.2213 123.321 46.24 123.028 46.24ZM123.06 44.872C123.321 44.872 123.559 44.856 123.772 44.824C123.985 44.792 124.188 44.7307 124.38 44.64C124.636 44.5173 124.833 44.4 124.972 44.288C125.111 44.176 125.225 44.072 125.316 43.976L121.804 40.76C121.612 40.824 121.431 40.9093 121.26 41.016C121.095 41.1227 120.951 41.248 120.828 41.392C120.689 41.5627 120.585 41.7627 120.516 41.992C120.452 42.2213 120.42 42.464 120.42 42.72C120.425 42.992 120.471 43.2427 120.556 43.472C120.641 43.7013 120.761 43.9067 120.916 44.088C121.151 44.36 121.468 44.56 121.868 44.688C122.268 44.8107 122.665 44.872 123.06 44.872ZM137.739 46.24C136.592 46.24 135.619 45.9867 134.819 45.48C134.019 44.9733 133.408 44.2693 132.987 43.368C132.571 42.4667 132.363 41.424 132.363 40.24C132.363 39.056 132.571 38.0133 132.987 37.112C133.408 36.2107 134.019 35.5067 134.819 35C135.619 34.4933 136.592 34.24 137.739 34.24C139.072 34.24 140.168 34.5787 141.027 35.256C141.891 35.9333 142.485 36.8453 142.811 37.992L141.363 38.376C141.128 37.5173 140.709 36.84 140.107 36.344C139.504 35.848 138.715 35.6 137.739 35.6C136.88 35.6 136.165 35.7947 135.595 36.184C135.024 36.5733 134.595 37.1173 134.307 37.816C134.019 38.5093 133.872 39.3173 133.867 40.24C133.861 41.1573 134.003 41.9653 134.291 42.664C134.579 43.3573 135.011 43.9013 135.587 44.296C136.163 44.6853 136.88 44.88 137.739 44.88C138.715 44.88 139.504 44.632 140.107 44.136C140.709 43.6347 141.128 42.9573 141.363 42.104L142.811 42.488C142.485 43.6293 141.891 44.5413 141.027 45.224C140.168 45.9013 139.072 46.24 137.739 46.24ZM144.725 46V34.48H146.149V46H144.725ZM151.518 46V35.832H147.59V34.48H156.87V35.832H152.942V46H151.518ZM158.303 46V34.48H159.727V46H158.303ZM162.128 46V34.48H169.408V35.832H163.552V39.44H168.448V40.792H163.552V44.648H169.408V46H162.128ZM175.091 46.24C174.275 46.24 173.539 46.1013 172.883 45.824C172.232 45.5467 171.693 45.152 171.267 44.64C170.845 44.1227 170.571 43.512 170.443 42.808L171.915 42.576C172.101 43.3013 172.488 43.8693 173.075 44.28C173.667 44.6853 174.363 44.888 175.163 44.888C175.68 44.888 176.147 44.808 176.563 44.648C176.984 44.4827 177.317 44.248 177.563 43.944C177.808 43.64 177.931 43.28 177.931 42.864C177.931 42.608 177.885 42.3893 177.795 42.208C177.709 42.0213 177.589 41.864 177.435 41.736C177.285 41.6027 177.115 41.4907 176.923 41.4C176.731 41.3093 176.531 41.2347 176.323 41.176L173.387 40.304C173.067 40.208 172.757 40.088 172.459 39.944C172.16 39.7947 171.893 39.6107 171.659 39.392C171.424 39.168 171.237 38.9013 171.099 38.592C170.96 38.2773 170.891 37.9067 170.891 37.48C170.891 36.7973 171.067 36.216 171.419 35.736C171.776 35.2507 172.259 34.88 172.867 34.624C173.475 34.368 174.16 34.2427 174.923 34.248C175.696 34.2533 176.387 34.392 176.995 34.664C177.608 34.9307 178.115 35.3147 178.515 35.816C178.92 36.3173 179.192 36.9173 179.331 37.616L177.819 37.88C177.739 37.4107 177.56 37.008 177.283 36.672C177.011 36.3307 176.669 36.0693 176.259 35.888C175.848 35.7013 175.397 35.6053 174.907 35.6C174.437 35.5947 174.013 35.6693 173.635 35.824C173.256 35.9787 172.955 36.1947 172.731 36.472C172.507 36.744 172.395 37.0587 172.395 37.416C172.395 37.768 172.496 38.0533 172.699 38.272C172.901 38.4853 173.149 38.656 173.443 38.784C173.741 38.9067 174.032 39.008 174.315 39.088L176.507 39.72C176.757 39.7893 177.045 39.8853 177.371 40.008C177.701 40.1307 178.021 40.304 178.331 40.528C178.64 40.7467 178.896 41.04 179.099 41.408C179.301 41.7707 179.403 42.2293 179.403 42.784C179.403 43.3387 179.291 43.832 179.067 44.264C178.848 44.696 178.541 45.0587 178.147 45.352C177.752 45.64 177.293 45.8587 176.771 46.008C176.248 46.1627 175.688 46.24 175.091 46.24Z" fill="white"></path> <defs> <linearGradient id="paint0_linear_131_200" x1="300" y1="0" x2="300" y2="400" gradientUnits="userSpaceOnUse"> <stop stop-color="#0072FF"></stop> <stop offset="1" stop-color="#5199FF"></stop> </linearGradient> </defs> </svg> 