<?xml version="1.0" encoding="UTF-8"?> <svg xmlns="http://www.w3.org/2000/svg" width="600" height="400" viewBox="0 0 600 400" fill="none"> <rect width="600" height="400" rx="20" fill="url(#paint0_linear_131_196)"></rect> <path d="M101.939 193V177.16H106.988C107.12 177.16 107.381 177.164 107.769 177.171C108.165 177.178 108.547 177.204 108.913 177.248C110.167 177.409 111.227 177.857 112.092 178.59C112.965 179.316 113.625 180.244 114.072 181.373C114.52 182.502 114.743 183.738 114.743 185.08C114.743 186.422 114.52 187.658 114.072 188.787C113.625 189.916 112.965 190.848 112.092 191.581C111.227 192.307 110.167 192.751 108.913 192.912C108.554 192.956 108.176 192.982 107.78 192.989C107.384 192.996 107.12 193 106.988 193H101.939ZM104.634 190.503H106.988C107.208 190.503 107.487 190.496 107.824 190.481C108.169 190.466 108.473 190.433 108.737 190.382C109.485 190.243 110.094 189.909 110.563 189.381C111.033 188.853 111.377 188.211 111.597 187.456C111.825 186.701 111.938 185.909 111.938 185.08C111.938 184.222 111.825 183.415 111.597 182.66C111.37 181.905 111.018 181.27 110.541 180.757C110.072 180.244 109.471 179.917 108.737 179.778C108.473 179.719 108.169 179.686 107.824 179.679C107.487 179.664 107.208 179.657 106.988 179.657H104.634V190.503ZM124.043 193.33C122.459 193.33 121.102 192.985 119.973 192.296C118.843 191.599 117.974 190.631 117.366 189.392C116.764 188.153 116.464 186.715 116.464 185.08C116.464 183.445 116.764 182.007 117.366 180.768C117.974 179.529 118.843 178.564 119.973 177.875C121.102 177.178 122.459 176.83 124.043 176.83C125.627 176.83 126.983 177.178 128.113 177.875C129.249 178.564 130.118 179.529 130.72 180.768C131.328 182.007 131.633 183.445 131.633 185.08C131.633 186.715 131.328 188.153 130.72 189.392C130.118 190.631 129.249 191.599 128.113 192.296C126.983 192.985 125.627 193.33 124.043 193.33ZM124.043 190.833C125.106 190.84 125.99 190.606 126.694 190.129C127.405 189.652 127.937 188.981 128.289 188.116C128.648 187.251 128.828 186.239 128.828 185.08C128.828 183.921 128.648 182.917 128.289 182.066C127.937 181.208 127.405 180.541 126.694 180.064C125.99 179.587 125.106 179.342 124.043 179.327C122.979 179.32 122.096 179.554 121.392 180.031C120.688 180.508 120.156 181.179 119.797 182.044C119.445 182.909 119.269 183.921 119.269 185.08C119.269 186.239 119.445 187.247 119.797 188.105C120.149 188.956 120.677 189.619 121.381 190.096C122.092 190.573 122.979 190.818 124.043 190.833ZM133.822 193V177.16H144.052V179.646H136.473V183.551H142.732V186.037H136.473V190.514H144.052V193H133.822ZM152.404 193.33C151.245 193.33 150.2 193.128 149.269 192.725C148.345 192.322 147.582 191.746 146.981 190.998C146.387 190.243 146.009 189.348 145.848 188.314L148.598 187.896C148.833 188.835 149.313 189.561 150.039 190.074C150.772 190.587 151.616 190.844 152.569 190.844C153.134 190.844 153.665 190.756 154.164 190.58C154.663 190.404 155.066 190.147 155.374 189.81C155.689 189.473 155.847 189.058 155.847 188.567C155.847 188.347 155.81 188.145 155.737 187.962C155.664 187.771 155.554 187.603 155.407 187.456C155.268 187.309 155.084 187.177 154.857 187.06C154.637 186.935 154.38 186.829 154.087 186.741L149.995 185.531C149.643 185.428 149.262 185.293 148.851 185.124C148.448 184.948 148.063 184.71 147.696 184.409C147.337 184.101 147.04 183.712 146.805 183.243C146.578 182.766 146.464 182.18 146.464 181.483C146.464 180.464 146.721 179.609 147.234 178.92C147.755 178.223 148.451 177.703 149.324 177.358C150.204 177.013 151.179 176.845 152.25 176.852C153.335 176.859 154.303 177.046 155.154 177.413C156.005 177.772 156.716 178.297 157.288 178.986C157.86 179.675 158.263 180.508 158.498 181.483L155.649 181.978C155.532 181.421 155.304 180.948 154.967 180.559C154.637 180.163 154.23 179.862 153.746 179.657C153.269 179.452 152.76 179.342 152.217 179.327C151.689 179.32 151.198 179.4 150.743 179.569C150.296 179.73 149.933 179.965 149.654 180.273C149.383 180.581 149.247 180.94 149.247 181.351C149.247 181.74 149.364 182.059 149.599 182.308C149.834 182.55 150.123 182.744 150.468 182.891C150.82 183.03 151.176 183.148 151.535 183.243L154.373 184.035C154.762 184.138 155.198 184.277 155.682 184.453C156.166 184.629 156.632 184.875 157.079 185.19C157.526 185.505 157.893 185.92 158.179 186.433C158.472 186.946 158.619 187.599 158.619 188.391C158.619 189.212 158.447 189.935 158.102 190.558C157.765 191.174 157.306 191.687 156.727 192.098C156.148 192.509 155.484 192.817 154.736 193.022C153.995 193.227 153.218 193.33 152.404 193.33ZM164.304 193L169.298 177.16H173.181L178.175 193H175.447L170.915 178.788H171.509L167.032 193H164.304ZM167.087 189.568V187.093H175.403V189.568H167.087ZM191.267 193.33C189.683 193.33 188.327 192.985 187.197 192.296C186.068 191.599 185.199 190.631 184.59 189.392C183.989 188.153 183.688 186.715 183.688 185.08C183.688 183.445 183.989 182.007 184.59 180.768C185.199 179.529 186.068 178.564 187.197 177.875C188.327 177.178 189.683 176.83 191.267 176.83C193.093 176.83 194.615 177.288 195.832 178.205C197.05 179.114 197.904 180.343 198.395 181.89L195.722 182.627C195.414 181.593 194.89 180.786 194.149 180.207C193.409 179.62 192.448 179.327 191.267 179.327C190.204 179.327 189.317 179.565 188.605 180.042C187.901 180.519 187.37 181.19 187.01 182.055C186.658 182.913 186.479 183.921 186.471 185.08C186.471 186.239 186.647 187.251 186.999 188.116C187.359 188.974 187.894 189.641 188.605 190.118C189.317 190.595 190.204 190.833 191.267 190.833C192.448 190.833 193.409 190.54 194.149 189.953C194.89 189.366 195.414 188.56 195.722 187.533L198.395 188.27C197.904 189.817 197.05 191.049 195.832 191.966C194.615 192.875 193.093 193.33 191.267 193.33ZM201.031 193V177.16H203.682V193H201.031ZM210.783 193V179.646H205.657V177.16H218.56V179.646H213.434V193H210.783ZM224.834 193V186.51L219.444 177.16H222.535L226.176 183.474L229.806 177.16H232.897L227.518 186.51V193H224.834ZM238.177 193V177.16H240.828V193H238.177ZM244.123 193V177.16H246.807L254.155 188.325V177.16H256.839V193H254.155L246.807 181.835V193H244.123ZM259.914 193V177.16H269.451V179.811H262.565V183.76H268.131V186.4H262.565V193H259.914ZM271.65 193V177.16H274.301V190.514H281.297V193H271.65ZM289.54 193.33C288.279 193.33 287.168 193.073 286.207 192.56C285.254 192.047 284.506 191.324 283.963 190.393C283.428 189.462 283.16 188.369 283.16 187.115V177.182L285.844 177.16V187.049C285.844 187.643 285.943 188.175 286.141 188.644C286.346 189.113 286.621 189.513 286.966 189.843C287.311 190.166 287.707 190.411 288.154 190.58C288.601 190.749 289.063 190.833 289.54 190.833C290.031 190.833 290.497 190.749 290.937 190.58C291.384 190.404 291.78 190.155 292.125 189.832C292.47 189.502 292.741 189.102 292.939 188.633C293.137 188.164 293.236 187.636 293.236 187.049V177.16H295.92V187.115C295.92 188.369 295.649 189.462 295.106 190.393C294.571 191.324 293.823 192.047 292.862 192.56C291.909 193.073 290.801 193.33 289.54 193.33ZM298.994 193V177.16H309.224V179.646H301.645V183.551H307.904V186.037H301.645V190.514H309.224V193H298.994ZM311.863 193V177.16H314.547L321.895 188.325V177.16H324.579V193H321.895L314.547 181.835V193H311.863ZM334.353 193.33C332.769 193.33 331.413 192.985 330.283 192.296C329.154 191.599 328.285 190.631 327.676 189.392C327.075 188.153 326.774 186.715 326.774 185.08C326.774 183.445 327.075 182.007 327.676 180.768C328.285 179.529 329.154 178.564 330.283 177.875C331.413 177.178 332.769 176.83 334.353 176.83C336.179 176.83 337.701 177.288 338.918 178.205C340.136 179.114 340.99 180.343 341.481 181.89L338.808 182.627C338.5 181.593 337.976 180.786 337.235 180.207C336.495 179.62 335.534 179.327 334.353 179.327C333.29 179.327 332.403 179.565 331.691 180.042C330.987 180.519 330.456 181.19 330.096 182.055C329.744 182.913 329.565 183.921 329.557 185.08C329.557 186.239 329.733 187.251 330.085 188.116C330.445 188.974 330.98 189.641 331.691 190.118C332.403 190.595 333.29 190.833 334.353 190.833C335.534 190.833 336.495 190.54 337.235 189.953C337.976 189.366 338.5 188.56 338.808 187.533L341.481 188.27C340.99 189.817 340.136 191.049 338.918 191.966C337.701 192.875 336.179 193.33 334.353 193.33ZM343.896 193V177.16H354.126V179.646H346.547V183.551H352.806V186.037H346.547V190.514H354.126V193H343.896ZM360.07 193L365.064 177.16H368.947L373.941 193H371.213L366.681 178.788H367.275L362.798 193H360.07ZM362.853 189.568V187.093H371.169V189.568H362.853ZM380.554 193V177.16H383.205V190.514H390.201V193H380.554ZM392.284 193V177.16H394.935V193H392.284ZM398.23 193V177.16H407.767V179.811H400.881V183.76H406.447V186.4H400.881V193H398.23ZM409.746 193V177.16H419.976V179.646H412.397V183.551H418.656V186.037H412.397V190.514H419.976V193H409.746ZM428.328 193.33C427.169 193.33 426.124 193.128 425.193 192.725C424.269 192.322 423.506 191.746 422.905 190.998C422.311 190.243 421.933 189.348 421.772 188.314L424.522 187.896C424.756 188.835 425.237 189.561 425.963 190.074C426.696 190.587 427.539 190.844 428.493 190.844C429.057 190.844 429.589 190.756 430.088 190.58C430.586 190.404 430.99 190.147 431.298 189.81C431.613 189.473 431.771 189.058 431.771 188.567C431.771 188.347 431.734 188.145 431.661 187.962C431.587 187.771 431.477 187.603 431.331 187.456C431.191 187.309 431.008 187.177 430.781 187.06C430.561 186.935 430.304 186.829 430.011 186.741L425.919 185.531C425.567 185.428 425.185 185.293 424.775 185.124C424.371 184.948 423.986 184.71 423.62 184.409C423.26 184.101 422.963 183.712 422.729 183.243C422.501 182.766 422.388 182.18 422.388 181.483C422.388 180.464 422.644 179.609 423.158 178.92C423.678 178.223 424.375 177.703 425.248 177.358C426.128 177.013 427.103 176.845 428.174 176.852C429.259 176.859 430.227 177.046 431.078 177.413C431.928 177.772 432.64 178.297 433.212 178.986C433.784 179.675 434.187 180.508 434.422 181.483L431.573 181.978C431.455 181.421 431.228 180.948 430.891 180.559C430.561 180.163 430.154 179.862 429.67 179.657C429.193 179.452 428.683 179.342 428.141 179.327C427.613 179.32 427.121 179.4 426.667 179.569C426.219 179.73 425.856 179.965 425.578 180.273C425.306 180.581 425.171 180.94 425.171 181.351C425.171 181.74 425.288 182.059 425.523 182.308C425.757 182.55 426.047 182.744 426.392 182.891C426.744 183.03 427.099 183.148 427.459 183.243L430.297 184.035C430.685 184.138 431.122 184.277 431.606 184.453C432.09 184.629 432.555 184.875 433.003 185.19C433.45 185.505 433.817 185.92 434.103 186.433C434.396 186.946 434.543 187.599 434.543 188.391C434.543 189.212 434.37 189.935 434.026 190.558C433.688 191.174 433.23 191.687 432.651 192.098C432.071 192.509 431.408 192.817 430.66 193.022C429.919 193.227 429.142 193.33 428.328 193.33ZM440.73 193V179.646H435.604V177.16H448.507V179.646H443.381V193H440.73ZM454.782 193V186.51L449.392 177.16H452.483L456.124 183.474L459.754 177.16H462.845L457.466 186.51V193H454.782ZM464.601 193V177.16H467.252V190.514H474.248V193H464.601ZM476.111 193V177.16H486.341V179.646H478.762V183.551H485.021V186.037H478.762V190.514H486.341V193H476.111ZM491.851 188.699C491.851 188.193 491.899 187.705 491.994 187.236C492.097 186.759 492.262 186.319 492.489 185.916C492.687 185.527 492.907 185.219 493.149 184.992C493.391 184.757 493.663 184.526 493.963 184.299C494.264 184.064 494.598 183.753 494.964 183.364C495.265 183.034 495.463 182.708 495.558 182.385C495.654 182.055 495.701 181.703 495.701 181.329C495.701 181.087 495.676 180.86 495.624 180.647C495.573 180.434 495.481 180.251 495.349 180.097C495.144 179.826 494.88 179.635 494.557 179.525C494.235 179.408 493.89 179.349 493.523 179.349C493.223 179.349 492.933 179.389 492.654 179.47C492.383 179.543 492.152 179.661 491.961 179.822C491.741 179.998 491.58 180.214 491.477 180.471C491.375 180.728 491.327 181.01 491.334 181.318H488.54C488.614 180.585 488.812 179.906 489.134 179.283C489.464 178.652 489.897 178.15 490.432 177.776C490.85 177.468 491.32 177.237 491.84 177.083C492.368 176.929 492.896 176.852 493.424 176.852C494.231 176.852 494.99 176.977 495.701 177.226C496.42 177.475 497.018 177.886 497.494 178.458C497.824 178.832 498.074 179.265 498.242 179.756C498.418 180.247 498.506 180.746 498.506 181.252C498.506 182.007 498.341 182.697 498.011 183.32C497.689 183.943 497.278 184.519 496.779 185.047C496.545 185.296 496.321 185.516 496.108 185.707C495.896 185.898 495.698 186.085 495.514 186.268C495.338 186.444 495.192 186.631 495.074 186.829C494.869 187.174 494.748 187.467 494.711 187.709C494.675 187.944 494.656 188.274 494.656 188.699H491.851ZM491.873 193V190.085H494.656V193H491.873ZM219.892 224L215.261 208.16H218.044L221.201 219.6L224.347 208.182L227.13 208.16L230.287 219.6L233.433 208.16H236.216L231.596 224H228.978L225.733 212.736L222.51 224H219.892ZM238.011 224V208.16H240.662V214.826H248.164V208.16H250.804V224H248.164V217.312H240.662V224H238.011ZM257.738 224V217.51L252.348 208.16H255.439L259.08 214.474L262.71 208.16H265.801L260.422 217.51V224H257.738ZM269.76 224L274.754 208.16H278.637L283.631 224H280.903L276.371 209.788H276.965L272.488 224H269.76ZM272.543 220.568V218.093H280.859V220.568H272.543ZM285.62 224V208.16H288.304L295.652 219.325V208.16H298.336V224H295.652L288.304 212.835V224H285.62ZM301.411 224V208.16H306.46C306.592 208.16 306.852 208.164 307.241 208.171C307.637 208.178 308.018 208.204 308.385 208.248C309.639 208.409 310.699 208.857 311.564 209.59C312.437 210.316 313.097 211.244 313.544 212.373C313.991 213.502 314.215 214.738 314.215 216.08C314.215 217.422 313.991 218.658 313.544 219.787C313.097 220.916 312.437 221.848 311.564 222.581C310.699 223.307 309.639 223.751 308.385 223.912C308.026 223.956 307.648 223.982 307.252 223.989C306.856 223.996 306.592 224 306.46 224H301.411ZM304.106 221.503H306.46C306.68 221.503 306.959 221.496 307.296 221.481C307.641 221.466 307.945 221.433 308.209 221.382C308.957 221.243 309.566 220.909 310.035 220.381C310.504 219.853 310.849 219.211 311.069 218.456C311.296 217.701 311.41 216.909 311.41 216.08C311.41 215.222 311.296 214.415 311.069 213.66C310.842 212.905 310.49 212.27 310.013 211.757C309.544 211.244 308.942 210.917 308.209 210.778C307.945 210.719 307.641 210.686 307.296 210.679C306.959 210.664 306.68 210.657 306.46 210.657H304.106V221.503ZM321.22 224V208.16H323.871V214.826H331.373V208.16H334.013V224H331.373V217.312H323.871V224H321.22ZM343.796 224.33C342.212 224.33 340.855 223.985 339.726 223.296C338.596 222.599 337.727 221.631 337.119 220.392C336.517 219.153 336.217 217.715 336.217 216.08C336.217 214.445 336.517 213.007 337.119 211.768C337.727 210.529 338.596 209.564 339.726 208.875C340.855 208.178 342.212 207.83 343.796 207.83C345.38 207.83 346.736 208.178 347.866 208.875C349.002 209.564 349.871 210.529 350.473 211.768C351.081 213.007 351.386 214.445 351.386 216.08C351.386 217.715 351.081 219.153 350.473 220.392C349.871 221.631 349.002 222.599 347.866 223.296C346.736 223.985 345.38 224.33 343.796 224.33ZM343.796 221.833C344.859 221.84 345.743 221.606 346.447 221.129C347.158 220.652 347.69 219.981 348.042 219.116C348.401 218.251 348.581 217.239 348.581 216.08C348.581 214.921 348.401 213.917 348.042 213.066C347.69 212.208 347.158 211.541 346.447 211.064C345.743 210.587 344.859 210.342 343.796 210.327C342.732 210.32 341.849 210.554 341.145 211.031C340.441 211.508 339.909 212.179 339.55 213.044C339.198 213.909 339.022 214.921 339.022 216.08C339.022 217.239 339.198 218.247 339.55 219.105C339.902 219.956 340.43 220.619 341.134 221.096C341.845 221.573 342.732 221.818 343.796 221.833ZM356.253 224L351.622 208.16H354.405L357.562 219.6L360.708 208.182L363.491 208.16L366.648 219.6L369.794 208.16H372.577L367.957 224H365.339L362.094 212.736L358.871 224H356.253ZM377.243 219.699C377.243 219.193 377.291 218.705 377.386 218.236C377.489 217.759 377.654 217.319 377.881 216.916C378.079 216.527 378.299 216.219 378.541 215.992C378.783 215.757 379.054 215.526 379.355 215.299C379.656 215.064 379.989 214.753 380.356 214.364C380.657 214.034 380.855 213.708 380.95 213.385C381.045 213.055 381.093 212.703 381.093 212.329C381.093 212.087 381.067 211.86 381.016 211.647C380.965 211.434 380.873 211.251 380.741 211.097C380.536 210.826 380.272 210.635 379.949 210.525C379.626 210.408 379.282 210.349 378.915 210.349C378.614 210.349 378.325 210.389 378.046 210.47C377.775 210.543 377.544 210.661 377.353 210.822C377.133 210.998 376.972 211.214 376.869 211.471C376.766 211.728 376.719 212.01 376.726 212.318H373.932C374.005 211.585 374.203 210.906 374.526 210.283C374.856 209.652 375.289 209.15 375.824 208.776C376.242 208.468 376.711 208.237 377.232 208.083C377.76 207.929 378.288 207.852 378.816 207.852C379.623 207.852 380.382 207.977 381.093 208.226C381.812 208.475 382.409 208.886 382.886 209.458C383.216 209.832 383.465 210.265 383.634 210.756C383.81 211.247 383.898 211.746 383.898 212.252C383.898 213.007 383.733 213.697 383.403 214.32C383.08 214.943 382.67 215.519 382.171 216.047C381.936 216.296 381.713 216.516 381.5 216.707C381.287 216.898 381.089 217.085 380.906 217.268C380.73 217.444 380.583 217.631 380.466 217.829C380.261 218.174 380.14 218.467 380.103 218.709C380.066 218.944 380.048 219.274 380.048 219.699H377.243ZM377.265 224V221.085H380.048V224H377.265Z" fill="white"></path> <rect x="20" y="20" width="172" height="40" rx="20" fill="white" fill-opacity="0.3"></rect> <path d="M36.1271 46V35.832H32.1991V34.48H41.4791V35.832H37.5511V46H36.1271ZM42.7528 46V34.48H47.3048C47.4168 34.48 47.5501 34.4853 47.7048 34.496C47.8595 34.5013 48.0088 34.5173 48.1528 34.544C48.7768 34.64 49.2995 34.8533 49.7208 35.184C50.1475 35.5147 50.4675 35.9333 50.6808 36.44C50.8941 36.9413 51.0008 37.4987 51.0008 38.112C51.0008 39.0027 50.7688 39.776 50.3048 40.432C49.8408 41.0827 49.1608 41.4907 48.2648 41.656L47.7208 41.744H44.1768V46H42.7528ZM49.6088 46L47.3368 41.312L48.7448 40.88L51.2408 46H49.6088ZM44.1768 40.392H47.2568C47.3581 40.392 47.4728 40.3867 47.6008 40.376C47.7341 40.3653 47.8595 40.3467 47.9768 40.32C48.3448 40.2347 48.6435 40.08 48.8728 39.856C49.1075 39.6267 49.2781 39.36 49.3848 39.056C49.4915 38.7467 49.5448 38.432 49.5448 38.112C49.5448 37.792 49.4915 37.48 49.3848 37.176C49.2781 36.8667 49.1075 36.5973 48.8728 36.368C48.6435 36.1387 48.3448 35.984 47.9768 35.904C47.8595 35.872 47.7341 35.8533 47.6008 35.848C47.4728 35.8373 47.3581 35.832 47.2568 35.832H44.1768V40.392ZM52.2028 46L56.0588 34.48H58.0428L61.8988 46H60.4188L56.8108 35.312H57.2588L53.6828 46H52.2028ZM54.0588 43.304V41.968H60.0428V43.304H54.0588ZM65.0219 46L61.1659 34.48H62.6459L65.9979 44.488L69.3819 34.48H70.8619L67.0059 46H65.0219ZM72.0653 46V34.48H79.3453V35.832H73.4893V39.44H78.3853V40.792H73.4893V44.648H79.3453V46H72.0653ZM81.4284 46V34.48H82.8524V44.648H88.1964V46H81.4284ZM89.7097 46V34.48H91.1337V46H89.7097ZM93.5341 46V34.48H94.9741L100.982 43.48V34.48H102.422V46H100.982L94.9741 36.992V46H93.5341ZM109.323 46.24C108.534 46.24 107.814 46.1013 107.163 45.824C106.512 45.5467 105.952 45.1493 105.483 44.632C105.014 44.1093 104.651 43.48 104.395 42.744C104.144 42.0027 104.019 41.168 104.019 40.24C104.019 39.0133 104.238 37.952 104.675 37.056C105.112 36.16 105.728 35.4693 106.523 34.984C107.318 34.4933 108.251 34.248 109.323 34.248C110.614 34.248 111.654 34.5493 112.443 35.152C113.232 35.7493 113.776 36.568 114.075 37.608L112.635 37.904C112.395 37.2053 112 36.648 111.451 36.232C110.902 35.816 110.216 35.608 109.395 35.608C108.536 35.6027 107.822 35.7947 107.251 36.184C106.686 36.568 106.259 37.1093 105.971 37.808C105.683 38.5067 105.536 39.3173 105.531 40.24C105.526 41.1573 105.667 41.9627 105.955 42.656C106.243 43.3493 106.672 43.8933 107.243 44.288C107.819 44.6773 108.536 44.8747 109.395 44.88C110.136 44.8853 110.76 44.744 111.267 44.456C111.774 44.168 112.166 43.752 112.443 43.208C112.72 42.664 112.888 42.0107 112.947 41.248H110.499V40.072H114.451C114.467 40.1787 114.475 40.3067 114.475 40.456C114.48 40.6 114.483 40.6987 114.483 40.752C114.483 41.8027 114.286 42.744 113.891 43.576C113.502 44.4027 112.923 45.0533 112.155 45.528C111.392 46.0027 110.448 46.24 109.323 46.24ZM123.028 46.24C122.388 46.24 121.791 46.1467 121.236 45.96C120.681 45.7733 120.217 45.48 119.844 45.08C119.556 44.76 119.34 44.408 119.196 44.024C119.057 43.6347 118.98 43.224 118.964 42.792C118.964 42.3707 119.025 41.96 119.148 41.56C119.271 41.1547 119.465 40.7947 119.732 40.48C119.871 40.3093 120.025 40.1653 120.196 40.048C120.372 39.9253 120.548 39.8213 120.724 39.736C120.356 39.3413 120.073 38.9707 119.876 38.624C119.684 38.2773 119.588 37.8587 119.588 37.368C119.588 36.744 119.748 36.1813 120.068 35.68C120.393 35.1733 120.836 34.8027 121.396 34.568C121.668 34.4507 121.945 34.3707 122.228 34.328C122.516 34.28 122.796 34.256 123.068 34.256C123.527 34.256 123.972 34.32 124.404 34.448C124.836 34.576 125.204 34.784 125.508 35.072C125.711 35.2427 125.884 35.44 126.028 35.664C126.172 35.8827 126.284 36.112 126.364 36.352L124.972 36.712C124.871 36.44 124.703 36.2107 124.468 36.024C124.281 35.864 124.063 35.7547 123.812 35.696C123.567 35.6373 123.319 35.608 123.068 35.608C122.652 35.608 122.276 35.688 121.94 35.848C121.641 35.992 121.417 36.1947 121.268 36.456C121.119 36.712 121.044 37.016 121.044 37.368C121.044 37.672 121.095 37.9227 121.196 38.12C121.303 38.312 121.449 38.5173 121.636 38.736C121.748 38.8533 121.873 38.9787 122.012 39.112C122.156 39.24 122.303 39.3733 122.452 39.512L125.844 42.664C125.86 42.5307 125.871 42.3947 125.876 42.256C125.881 42.1173 125.884 41.984 125.884 41.856L125.876 40.264H127.18V42.136C127.18 42.5147 127.167 42.8373 127.14 43.104C127.119 43.3707 127.081 43.592 127.028 43.768L128.492 45.12L127.564 46.112L126.348 44.96C126.14 45.1947 125.892 45.4 125.604 45.576C125.316 45.752 125.028 45.8853 124.74 45.976C124.468 46.0773 124.188 46.1467 123.9 46.184C123.612 46.2213 123.321 46.24 123.028 46.24ZM123.06 44.872C123.321 44.872 123.559 44.856 123.772 44.824C123.985 44.792 124.188 44.7307 124.38 44.64C124.636 44.5173 124.833 44.4 124.972 44.288C125.111 44.176 125.225 44.072 125.316 43.976L121.804 40.76C121.612 40.824 121.431 40.9093 121.26 41.016C121.095 41.1227 120.951 41.248 120.828 41.392C120.689 41.5627 120.585 41.7627 120.516 41.992C120.452 42.2213 120.42 42.464 120.42 42.72C120.425 42.992 120.471 43.2427 120.556 43.472C120.641 43.7013 120.761 43.9067 120.916 44.088C121.151 44.36 121.468 44.56 121.868 44.688C122.268 44.8107 122.665 44.872 123.06 44.872ZM137.739 46.24C136.592 46.24 135.619 45.9867 134.819 45.48C134.019 44.9733 133.408 44.2693 132.987 43.368C132.571 42.4667 132.363 41.424 132.363 40.24C132.363 39.056 132.571 38.0133 132.987 37.112C133.408 36.2107 134.019 35.5067 134.819 35C135.619 34.4933 136.592 34.24 137.739 34.24C139.072 34.24 140.168 34.5787 141.027 35.256C141.891 35.9333 142.485 36.8453 142.811 37.992L141.363 38.376C141.128 37.5173 140.709 36.84 140.107 36.344C139.504 35.848 138.715 35.6 137.739 35.6C136.88 35.6 136.165 35.7947 135.595 36.184C135.024 36.5733 134.595 37.1173 134.307 37.816C134.019 38.5093 133.872 39.3173 133.867 40.24C133.861 41.1573 134.003 41.9653 134.291 42.664C134.579 43.3573 135.011 43.9013 135.587 44.296C136.163 44.6853 136.88 44.88 137.739 44.88C138.715 44.88 139.504 44.632 140.107 44.136C140.709 43.6347 141.128 42.9573 141.363 42.104L142.811 42.488C142.485 43.6293 141.891 44.5413 141.027 45.224C140.168 45.9013 139.072 46.24 137.739 46.24ZM144.725 46V34.48H146.149V46H144.725ZM151.518 46V35.832H147.59V34.48H156.87V35.832H152.942V46H151.518ZM158.303 46V34.48H159.727V46H158.303ZM162.128 46V34.48H169.408V35.832H163.552V39.44H168.448V40.792H163.552V44.648H169.408V46H162.128ZM175.091 46.24C174.275 46.24 173.539 46.1013 172.883 45.824C172.232 45.5467 171.693 45.152 171.267 44.64C170.845 44.1227 170.571 43.512 170.443 42.808L171.915 42.576C172.101 43.3013 172.488 43.8693 173.075 44.28C173.667 44.6853 174.363 44.888 175.163 44.888C175.68 44.888 176.147 44.808 176.563 44.648C176.984 44.4827 177.317 44.248 177.563 43.944C177.808 43.64 177.931 43.28 177.931 42.864C177.931 42.608 177.885 42.3893 177.795 42.208C177.709 42.0213 177.589 41.864 177.435 41.736C177.285 41.6027 177.115 41.4907 176.923 41.4C176.731 41.3093 176.531 41.2347 176.323 41.176L173.387 40.304C173.067 40.208 172.757 40.088 172.459 39.944C172.16 39.7947 171.893 39.6107 171.659 39.392C171.424 39.168 171.237 38.9013 171.099 38.592C170.96 38.2773 170.891 37.9067 170.891 37.48C170.891 36.7973 171.067 36.216 171.419 35.736C171.776 35.2507 172.259 34.88 172.867 34.624C173.475 34.368 174.16 34.2427 174.923 34.248C175.696 34.2533 176.387 34.392 176.995 34.664C177.608 34.9307 178.115 35.3147 178.515 35.816C178.92 36.3173 179.192 36.9173 179.331 37.616L177.819 37.88C177.739 37.4107 177.56 37.008 177.283 36.672C177.011 36.3307 176.669 36.0693 176.259 35.888C175.848 35.7013 175.397 35.6053 174.907 35.6C174.437 35.5947 174.013 35.6693 173.635 35.824C173.256 35.9787 172.955 36.1947 172.731 36.472C172.507 36.744 172.395 37.0587 172.395 37.416C172.395 37.768 172.496 38.0533 172.699 38.272C172.901 38.4853 173.149 38.656 173.443 38.784C173.741 38.9067 174.032 39.008 174.315 39.088L176.507 39.72C176.757 39.7893 177.045 39.8853 177.371 40.008C177.701 40.1307 178.021 40.304 178.331 40.528C178.64 40.7467 178.896 41.04 179.099 41.408C179.301 41.7707 179.403 42.2293 179.403 42.784C179.403 43.3387 179.291 43.832 179.067 44.264C178.848 44.696 178.541 45.0587 178.147 45.352C177.752 45.64 177.293 45.8587 176.771 46.008C176.248 46.1627 175.688 46.24 175.091 46.24Z" fill="white"></path> <defs> <linearGradient id="paint0_linear_131_196" x1="300" y1="0" x2="300" y2="400" gradientUnits="userSpaceOnUse"> <stop stop-color="#0072FF"></stop> <stop offset="1" stop-color="#5199FF"></stop> </linearGradient> </defs> </svg> 