<?xml version="1.0" encoding="UTF-8"?> <svg xmlns="http://www.w3.org/2000/svg" width="600" height="400" viewBox="0 0 600 400" fill="none"> <rect width="600" height="400" rx="20" fill="url(#paint0_linear_131_204)"></rect> <path d="M78.2346 208L73.6036 192.16H76.3866L79.5436 203.6L82.6896 192.182L85.4726 192.16L88.6296 203.6L91.7756 192.16H94.5586L89.9386 208H87.3206L84.0756 196.736L80.8526 208H78.2346ZM96.3535 208V192.16H99.0045V198.826H106.506V192.16H109.146V208H106.506V201.312H99.0045V208H96.3535ZM112.23 208V192.16H122.46V194.646H114.881V198.551H121.14V201.037H114.881V205.514H122.46V208H112.23ZM125.1 208V192.16H131.645C131.799 192.16 131.997 192.167 132.239 192.182C132.481 192.189 132.704 192.211 132.91 192.248C133.826 192.387 134.582 192.692 135.176 193.161C135.777 193.63 136.221 194.224 136.507 194.943C136.8 195.654 136.947 196.446 136.947 197.319C136.947 198.61 136.62 199.721 135.968 200.652C135.315 201.576 134.314 202.148 132.965 202.368L131.832 202.467H127.751V208H125.1ZM134.197 208L131.073 201.554L133.768 200.96L137.2 208H134.197ZM127.751 199.992H131.535C131.681 199.992 131.846 199.985 132.03 199.97C132.213 199.955 132.382 199.926 132.536 199.882C132.976 199.772 133.32 199.578 133.57 199.299C133.826 199.02 134.006 198.705 134.109 198.353C134.219 198.001 134.274 197.656 134.274 197.319C134.274 196.982 134.219 196.637 134.109 196.285C134.006 195.926 133.826 195.607 133.57 195.328C133.32 195.049 132.976 194.855 132.536 194.745C132.382 194.701 132.213 194.675 132.03 194.668C131.846 194.653 131.681 194.646 131.535 194.646H127.751V199.992ZM139.623 208V192.16H149.853V194.646H142.274V198.551H148.533V201.037H142.274V205.514H149.853V208H139.623ZM160.24 208L155.609 192.16H158.392L161.549 203.6L164.695 192.182L167.478 192.16L170.635 203.6L173.781 192.16H176.564L171.944 208H169.326L166.081 196.736L162.858 208H160.24ZM184.629 208.33C183.045 208.33 181.688 207.985 180.559 207.296C179.429 206.599 178.56 205.631 177.952 204.392C177.35 203.153 177.05 201.715 177.05 200.08C177.05 198.445 177.35 197.007 177.952 195.768C178.56 194.529 179.429 193.564 180.559 192.875C181.688 192.178 183.045 191.83 184.629 191.83C186.213 191.83 187.569 192.178 188.699 192.875C189.835 193.564 190.704 194.529 191.306 195.768C191.914 197.007 192.219 198.445 192.219 200.08C192.219 201.715 191.914 203.153 191.306 204.392C190.704 205.631 189.835 206.599 188.699 207.296C187.569 207.985 186.213 208.33 184.629 208.33ZM184.629 205.833C185.692 205.84 186.576 205.606 187.28 205.129C187.991 204.652 188.523 203.981 188.875 203.116C189.234 202.251 189.414 201.239 189.414 200.08C189.414 198.921 189.234 197.917 188.875 197.066C188.523 196.208 187.991 195.541 187.28 195.064C186.576 194.587 185.692 194.342 184.629 194.327C183.565 194.32 182.682 194.554 181.978 195.031C181.274 195.508 180.742 196.179 180.383 197.044C180.031 197.909 179.855 198.921 179.855 200.08C179.855 201.239 180.031 202.247 180.383 203.105C180.735 203.956 181.263 204.619 181.967 205.096C182.678 205.573 183.565 205.818 184.629 205.833ZM200.788 208.33C199.527 208.33 198.416 208.073 197.455 207.56C196.502 207.047 195.754 206.324 195.211 205.393C194.676 204.462 194.408 203.369 194.408 202.115V192.182L197.092 192.16V202.049C197.092 202.643 197.191 203.175 197.389 203.644C197.594 204.113 197.869 204.513 198.214 204.843C198.559 205.166 198.955 205.411 199.402 205.58C199.849 205.749 200.311 205.833 200.788 205.833C201.279 205.833 201.745 205.749 202.185 205.58C202.632 205.404 203.028 205.155 203.373 204.832C203.718 204.502 203.989 204.102 204.187 203.633C204.385 203.164 204.484 202.636 204.484 202.049V192.16H207.168V202.115C207.168 203.369 206.897 204.462 206.354 205.393C205.819 206.324 205.071 207.047 204.11 207.56C203.157 208.073 202.049 208.33 200.788 208.33ZM210.462 208V192.16H213.113V205.514H220.109V208H210.462ZM221.973 208V192.16H227.022C227.154 192.16 227.414 192.164 227.803 192.171C228.199 192.178 228.58 192.204 228.947 192.248C230.201 192.409 231.26 192.857 232.126 193.59C232.998 194.316 233.658 195.244 234.106 196.373C234.553 197.502 234.777 198.738 234.777 200.08C234.777 201.422 234.553 202.658 234.106 203.787C233.658 204.916 232.998 205.848 232.126 206.581C231.26 207.307 230.201 207.751 228.947 207.912C228.587 207.956 228.21 207.982 227.814 207.989C227.418 207.996 227.154 208 227.022 208H221.973ZM224.668 205.503H227.022C227.242 205.503 227.52 205.496 227.858 205.481C228.202 205.466 228.507 205.433 228.771 205.382C229.519 205.243 230.127 204.909 230.597 204.381C231.066 203.853 231.411 203.211 231.631 202.456C231.858 201.701 231.972 200.909 231.972 200.08C231.972 199.222 231.858 198.415 231.631 197.66C231.403 196.905 231.051 196.27 230.575 195.757C230.105 195.244 229.504 194.917 228.771 194.778C228.507 194.719 228.202 194.686 227.858 194.679C227.52 194.664 227.242 194.657 227.022 194.657H224.668V205.503ZM245.631 208V201.51L240.241 192.16H243.332L246.973 198.474L250.603 192.16H253.694L248.315 201.51V208H245.631ZM261.049 208.33C259.465 208.33 258.108 207.985 256.979 207.296C255.849 206.599 254.98 205.631 254.372 204.392C253.77 203.153 253.47 201.715 253.47 200.08C253.47 198.445 253.77 197.007 254.372 195.768C254.98 194.529 255.849 193.564 256.979 192.875C258.108 192.178 259.465 191.83 261.049 191.83C262.633 191.83 263.989 192.178 265.119 192.875C266.255 193.564 267.124 194.529 267.726 195.768C268.334 197.007 268.639 198.445 268.639 200.08C268.639 201.715 268.334 203.153 267.726 204.392C267.124 205.631 266.255 206.599 265.119 207.296C263.989 207.985 262.633 208.33 261.049 208.33ZM261.049 205.833C262.112 205.84 262.996 205.606 263.7 205.129C264.411 204.652 264.943 203.981 265.295 203.116C265.654 202.251 265.834 201.239 265.834 200.08C265.834 198.921 265.654 197.917 265.295 197.066C264.943 196.208 264.411 195.541 263.7 195.064C262.996 194.587 262.112 194.342 261.049 194.327C259.985 194.32 259.102 194.554 258.398 195.031C257.694 195.508 257.162 196.179 256.803 197.044C256.451 197.909 256.275 198.921 256.275 200.08C256.275 201.239 256.451 202.247 256.803 203.105C257.155 203.956 257.683 204.619 258.387 205.096C259.098 205.573 259.985 205.818 261.049 205.833ZM277.208 208.33C275.947 208.33 274.836 208.073 273.875 207.56C272.922 207.047 272.174 206.324 271.631 205.393C271.096 204.462 270.828 203.369 270.828 202.115V192.182L273.512 192.16V202.049C273.512 202.643 273.611 203.175 273.809 203.644C274.014 204.113 274.289 204.513 274.634 204.843C274.979 205.166 275.375 205.411 275.822 205.58C276.269 205.749 276.731 205.833 277.208 205.833C277.699 205.833 278.165 205.749 278.605 205.58C279.052 205.404 279.448 205.155 279.793 204.832C280.138 204.502 280.409 204.102 280.607 203.633C280.805 203.164 280.904 202.636 280.904 202.049V192.16H283.588V202.115C283.588 203.369 283.317 204.462 282.774 205.393C282.239 206.324 281.491 207.047 280.53 207.56C279.577 208.073 278.469 208.33 277.208 208.33ZM291.066 208V192.16H293.75L301.098 203.325V192.16H303.782V208H301.098L293.75 196.835V208H291.066ZM306.857 208V192.16H317.087V194.646H309.508V198.551H315.767V201.037H309.508V205.514H317.087V208H306.857ZM323.291 208L318.297 192.16H321.025L325.205 205.426L329.44 192.16H332.168L327.174 208H323.291ZM333.82 208V192.16H344.05V194.646H336.471V198.551H342.73V201.037H336.471V205.514H344.05V208H333.82ZM346.689 208V192.16H353.234C353.388 192.16 353.586 192.167 353.828 192.182C354.07 192.189 354.294 192.211 354.499 192.248C355.416 192.387 356.171 192.692 356.765 193.161C357.367 193.63 357.81 194.224 358.096 194.943C358.39 195.654 358.536 196.446 358.536 197.319C358.536 198.61 358.21 199.721 357.557 200.652C356.905 201.576 355.904 202.148 354.554 202.368L353.421 202.467H349.34V208H346.689ZM355.786 208L352.662 201.554L355.357 200.96L358.789 208H355.786ZM349.34 199.992H353.124C353.271 199.992 353.436 199.985 353.619 199.97C353.803 199.955 353.971 199.926 354.125 199.882C354.565 199.772 354.91 199.578 355.159 199.299C355.416 199.02 355.596 198.705 355.698 198.353C355.808 198.001 355.863 197.656 355.863 197.319C355.863 196.982 355.808 196.637 355.698 196.285C355.596 195.926 355.416 195.607 355.159 195.328C354.91 195.049 354.565 194.855 354.125 194.745C353.971 194.701 353.803 194.675 353.619 194.668C353.436 194.653 353.271 194.646 353.124 194.646H349.34V199.992ZM365.837 208V192.16H368.488V205.514H375.484V208H365.837ZM377.568 208V192.16H380.219V208H377.568ZM387.078 208L382.084 192.16H384.812L388.992 205.426L393.227 192.16H395.955L390.961 208H387.078ZM397.607 208V192.16H407.837V194.646H400.258V198.551H406.517V201.037H400.258V205.514H407.837V208H397.607ZM413.781 208L418.775 192.16H422.658L427.652 208H424.924L420.392 193.788H420.986L416.509 208H413.781ZM416.564 204.568V202.093H424.88V204.568H416.564ZM429.641 208V192.16H432.325L439.673 203.325V192.16H442.357V208H439.673L432.325 196.835V208H429.641ZM445.432 208V192.16H450.481C450.613 192.16 450.873 192.164 451.262 192.171C451.658 192.178 452.039 192.204 452.406 192.248C453.66 192.409 454.719 192.857 455.585 193.59C456.457 194.316 457.117 195.244 457.565 196.373C458.012 197.502 458.236 198.738 458.236 200.08C458.236 201.422 458.012 202.658 457.565 203.787C457.117 204.916 456.457 205.848 455.585 206.581C454.719 207.307 453.66 207.751 452.406 207.912C452.046 207.956 451.669 207.982 451.273 207.989C450.877 207.996 450.613 208 450.481 208H445.432ZM448.127 205.503H450.481C450.701 205.503 450.979 205.496 451.317 205.481C451.661 205.466 451.966 205.433 452.23 205.382C452.978 205.243 453.586 204.909 454.056 204.381C454.525 203.853 454.87 203.211 455.09 202.456C455.317 201.701 455.431 200.909 455.431 200.08C455.431 199.222 455.317 198.415 455.09 197.66C454.862 196.905 454.51 196.27 454.034 195.757C453.564 195.244 452.963 194.917 452.23 194.778C451.966 194.719 451.661 194.686 451.317 194.679C450.979 194.664 450.701 194.657 450.481 194.657H448.127V205.503ZM468.584 208L463.953 192.16H466.736L469.893 203.6L473.039 192.182L475.822 192.16L478.979 203.6L482.125 192.16H484.908L480.288 208H477.67L474.425 196.736L471.202 208H468.584ZM486.703 208V192.16H489.354V198.826H496.856V192.16H499.496V208H496.856V201.312H489.354V208H486.703ZM506.43 208V201.51L501.04 192.16H504.131L507.772 198.474L511.402 192.16H514.493L509.114 201.51V208H506.43ZM518.9 203.699C518.9 203.193 518.948 202.705 519.043 202.236C519.146 201.759 519.311 201.319 519.538 200.916C519.736 200.527 519.956 200.219 520.198 199.992C520.44 199.757 520.712 199.526 521.012 199.299C521.313 199.064 521.647 198.753 522.013 198.364C522.314 198.034 522.512 197.708 522.607 197.385C522.703 197.055 522.75 196.703 522.75 196.329C522.75 196.087 522.725 195.86 522.673 195.647C522.622 195.434 522.53 195.251 522.398 195.097C522.193 194.826 521.929 194.635 521.606 194.525C521.284 194.408 520.939 194.349 520.572 194.349C520.272 194.349 519.982 194.389 519.703 194.47C519.432 194.543 519.201 194.661 519.01 194.822C518.79 194.998 518.629 195.214 518.526 195.471C518.424 195.728 518.376 196.01 518.383 196.318H515.589C515.663 195.585 515.861 194.906 516.183 194.283C516.513 193.652 516.946 193.15 517.481 192.776C517.899 192.468 518.369 192.237 518.889 192.083C519.417 191.929 519.945 191.852 520.473 191.852C521.28 191.852 522.039 191.977 522.75 192.226C523.469 192.475 524.067 192.886 524.543 193.458C524.873 193.832 525.123 194.265 525.291 194.756C525.467 195.247 525.555 195.746 525.555 196.252C525.555 197.007 525.39 197.697 525.06 198.32C524.738 198.943 524.327 199.519 523.828 200.047C523.594 200.296 523.37 200.516 523.157 200.707C522.945 200.898 522.747 201.085 522.563 201.268C522.387 201.444 522.241 201.631 522.123 201.829C521.918 202.174 521.797 202.467 521.76 202.709C521.724 202.944 521.705 203.274 521.705 203.699H518.9ZM518.922 208V205.085H521.705V208H518.922Z" fill="white"></path> <rect x="20" y="20" width="172" height="40" rx="20" fill="white" fill-opacity="0.3"></rect> <path d="M36.1271 46V35.832H32.1991V34.48H41.4791V35.832H37.5511V46H36.1271ZM42.7528 46V34.48H47.3048C47.4168 34.48 47.5501 34.4853 47.7048 34.496C47.8595 34.5013 48.0088 34.5173 48.1528 34.544C48.7768 34.64 49.2995 34.8533 49.7208 35.184C50.1475 35.5147 50.4675 35.9333 50.6808 36.44C50.8941 36.9413 51.0008 37.4987 51.0008 38.112C51.0008 39.0027 50.7688 39.776 50.3048 40.432C49.8408 41.0827 49.1608 41.4907 48.2648 41.656L47.7208 41.744H44.1768V46H42.7528ZM49.6088 46L47.3368 41.312L48.7448 40.88L51.2408 46H49.6088ZM44.1768 40.392H47.2568C47.3581 40.392 47.4728 40.3867 47.6008 40.376C47.7341 40.3653 47.8595 40.3467 47.9768 40.32C48.3448 40.2347 48.6435 40.08 48.8728 39.856C49.1075 39.6267 49.2781 39.36 49.3848 39.056C49.4915 38.7467 49.5448 38.432 49.5448 38.112C49.5448 37.792 49.4915 37.48 49.3848 37.176C49.2781 36.8667 49.1075 36.5973 48.8728 36.368C48.6435 36.1387 48.3448 35.984 47.9768 35.904C47.8595 35.872 47.7341 35.8533 47.6008 35.848C47.4728 35.8373 47.3581 35.832 47.2568 35.832H44.1768V40.392ZM52.2028 46L56.0588 34.48H58.0428L61.8988 46H60.4188L56.8108 35.312H57.2588L53.6828 46H52.2028ZM54.0588 43.304V41.968H60.0428V43.304H54.0588ZM65.0219 46L61.1659 34.48H62.6459L65.9979 44.488L69.3819 34.48H70.8619L67.0059 46H65.0219ZM72.0653 46V34.48H79.3453V35.832H73.4893V39.44H78.3853V40.792H73.4893V44.648H79.3453V46H72.0653ZM81.4284 46V34.48H82.8524V44.648H88.1964V46H81.4284ZM89.7097 46V34.48H91.1337V46H89.7097ZM93.5341 46V34.48H94.9741L100.982 43.48V34.48H102.422V46H100.982L94.9741 36.992V46H93.5341ZM109.323 46.24C108.534 46.24 107.814 46.1013 107.163 45.824C106.512 45.5467 105.952 45.1493 105.483 44.632C105.014 44.1093 104.651 43.48 104.395 42.744C104.144 42.0027 104.019 41.168 104.019 40.24C104.019 39.0133 104.238 37.952 104.675 37.056C105.112 36.16 105.728 35.4693 106.523 34.984C107.318 34.4933 108.251 34.248 109.323 34.248C110.614 34.248 111.654 34.5493 112.443 35.152C113.232 35.7493 113.776 36.568 114.075 37.608L112.635 37.904C112.395 37.2053 112 36.648 111.451 36.232C110.902 35.816 110.216 35.608 109.395 35.608C108.536 35.6027 107.822 35.7947 107.251 36.184C106.686 36.568 106.259 37.1093 105.971 37.808C105.683 38.5067 105.536 39.3173 105.531 40.24C105.526 41.1573 105.667 41.9627 105.955 42.656C106.243 43.3493 106.672 43.8933 107.243 44.288C107.819 44.6773 108.536 44.8747 109.395 44.88C110.136 44.8853 110.76 44.744 111.267 44.456C111.774 44.168 112.166 43.752 112.443 43.208C112.72 42.664 112.888 42.0107 112.947 41.248H110.499V40.072H114.451C114.467 40.1787 114.475 40.3067 114.475 40.456C114.48 40.6 114.483 40.6987 114.483 40.752C114.483 41.8027 114.286 42.744 113.891 43.576C113.502 44.4027 112.923 45.0533 112.155 45.528C111.392 46.0027 110.448 46.24 109.323 46.24ZM123.028 46.24C122.388 46.24 121.791 46.1467 121.236 45.96C120.681 45.7733 120.217 45.48 119.844 45.08C119.556 44.76 119.34 44.408 119.196 44.024C119.057 43.6347 118.98 43.224 118.964 42.792C118.964 42.3707 119.025 41.96 119.148 41.56C119.271 41.1547 119.465 40.7947 119.732 40.48C119.871 40.3093 120.025 40.1653 120.196 40.048C120.372 39.9253 120.548 39.8213 120.724 39.736C120.356 39.3413 120.073 38.9707 119.876 38.624C119.684 38.2773 119.588 37.8587 119.588 37.368C119.588 36.744 119.748 36.1813 120.068 35.68C120.393 35.1733 120.836 34.8027 121.396 34.568C121.668 34.4507 121.945 34.3707 122.228 34.328C122.516 34.28 122.796 34.256 123.068 34.256C123.527 34.256 123.972 34.32 124.404 34.448C124.836 34.576 125.204 34.784 125.508 35.072C125.711 35.2427 125.884 35.44 126.028 35.664C126.172 35.8827 126.284 36.112 126.364 36.352L124.972 36.712C124.871 36.44 124.703 36.2107 124.468 36.024C124.281 35.864 124.063 35.7547 123.812 35.696C123.567 35.6373 123.319 35.608 123.068 35.608C122.652 35.608 122.276 35.688 121.94 35.848C121.641 35.992 121.417 36.1947 121.268 36.456C121.119 36.712 121.044 37.016 121.044 37.368C121.044 37.672 121.095 37.9227 121.196 38.12C121.303 38.312 121.449 38.5173 121.636 38.736C121.748 38.8533 121.873 38.9787 122.012 39.112C122.156 39.24 122.303 39.3733 122.452 39.512L125.844 42.664C125.86 42.5307 125.871 42.3947 125.876 42.256C125.881 42.1173 125.884 41.984 125.884 41.856L125.876 40.264H127.18V42.136C127.18 42.5147 127.167 42.8373 127.14 43.104C127.119 43.3707 127.081 43.592 127.028 43.768L128.492 45.12L127.564 46.112L126.348 44.96C126.14 45.1947 125.892 45.4 125.604 45.576C125.316 45.752 125.028 45.8853 124.74 45.976C124.468 46.0773 124.188 46.1467 123.9 46.184C123.612 46.2213 123.321 46.24 123.028 46.24ZM123.06 44.872C123.321 44.872 123.559 44.856 123.772 44.824C123.985 44.792 124.188 44.7307 124.38 44.64C124.636 44.5173 124.833 44.4 124.972 44.288C125.111 44.176 125.225 44.072 125.316 43.976L121.804 40.76C121.612 40.824 121.431 40.9093 121.26 41.016C121.095 41.1227 120.951 41.248 120.828 41.392C120.689 41.5627 120.585 41.7627 120.516 41.992C120.452 42.2213 120.42 42.464 120.42 42.72C120.425 42.992 120.471 43.2427 120.556 43.472C120.641 43.7013 120.761 43.9067 120.916 44.088C121.151 44.36 121.468 44.56 121.868 44.688C122.268 44.8107 122.665 44.872 123.06 44.872ZM137.739 46.24C136.592 46.24 135.619 45.9867 134.819 45.48C134.019 44.9733 133.408 44.2693 132.987 43.368C132.571 42.4667 132.363 41.424 132.363 40.24C132.363 39.056 132.571 38.0133 132.987 37.112C133.408 36.2107 134.019 35.5067 134.819 35C135.619 34.4933 136.592 34.24 137.739 34.24C139.072 34.24 140.168 34.5787 141.027 35.256C141.891 35.9333 142.485 36.8453 142.811 37.992L141.363 38.376C141.128 37.5173 140.709 36.84 140.107 36.344C139.504 35.848 138.715 35.6 137.739 35.6C136.88 35.6 136.165 35.7947 135.595 36.184C135.024 36.5733 134.595 37.1173 134.307 37.816C134.019 38.5093 133.872 39.3173 133.867 40.24C133.861 41.1573 134.003 41.9653 134.291 42.664C134.579 43.3573 135.011 43.9013 135.587 44.296C136.163 44.6853 136.88 44.88 137.739 44.88C138.715 44.88 139.504 44.632 140.107 44.136C140.709 43.6347 141.128 42.9573 141.363 42.104L142.811 42.488C142.485 43.6293 141.891 44.5413 141.027 45.224C140.168 45.9013 139.072 46.24 137.739 46.24ZM144.725 46V34.48H146.149V46H144.725ZM151.518 46V35.832H147.59V34.48H156.87V35.832H152.942V46H151.518ZM158.303 46V34.48H159.727V46H158.303ZM162.128 46V34.48H169.408V35.832H163.552V39.44H168.448V40.792H163.552V44.648H169.408V46H162.128ZM175.091 46.24C174.275 46.24 173.539 46.1013 172.883 45.824C172.232 45.5467 171.693 45.152 171.267 44.64C170.845 44.1227 170.571 43.512 170.443 42.808L171.915 42.576C172.101 43.3013 172.488 43.8693 173.075 44.28C173.667 44.6853 174.363 44.888 175.163 44.888C175.68 44.888 176.147 44.808 176.563 44.648C176.984 44.4827 177.317 44.248 177.563 43.944C177.808 43.64 177.931 43.28 177.931 42.864C177.931 42.608 177.885 42.3893 177.795 42.208C177.709 42.0213 177.589 41.864 177.435 41.736C177.285 41.6027 177.115 41.4907 176.923 41.4C176.731 41.3093 176.531 41.2347 176.323 41.176L173.387 40.304C173.067 40.208 172.757 40.088 172.459 39.944C172.16 39.7947 171.893 39.6107 171.659 39.392C171.424 39.168 171.237 38.9013 171.099 38.592C170.96 38.2773 170.891 37.9067 170.891 37.48C170.891 36.7973 171.067 36.216 171.419 35.736C171.776 35.2507 172.259 34.88 172.867 34.624C173.475 34.368 174.16 34.2427 174.923 34.248C175.696 34.2533 176.387 34.392 176.995 34.664C177.608 34.9307 178.115 35.3147 178.515 35.816C178.92 36.3173 179.192 36.9173 179.331 37.616L177.819 37.88C177.739 37.4107 177.56 37.008 177.283 36.672C177.011 36.3307 176.669 36.0693 176.259 35.888C175.848 35.7013 175.397 35.6053 174.907 35.6C174.437 35.5947 174.013 35.6693 173.635 35.824C173.256 35.9787 172.955 36.1947 172.731 36.472C172.507 36.744 172.395 37.0587 172.395 37.416C172.395 37.768 172.496 38.0533 172.699 38.272C172.901 38.4853 173.149 38.656 173.443 38.784C173.741 38.9067 174.032 39.008 174.315 39.088L176.507 39.72C176.757 39.7893 177.045 39.8853 177.371 40.008C177.701 40.1307 178.021 40.304 178.331 40.528C178.64 40.7467 178.896 41.04 179.099 41.408C179.301 41.7707 179.403 42.2293 179.403 42.784C179.403 43.3387 179.291 43.832 179.067 44.264C178.848 44.696 178.541 45.0587 178.147 45.352C177.752 45.64 177.293 45.8587 176.771 46.008C176.248 46.1627 175.688 46.24 175.091 46.24Z" fill="white"></path> <rect x="20" y="20" width="172" height="40" rx="20" fill="white" fill-opacity="0.3"></rect> <path d="M36.1271 46V35.832H32.1991V34.48H41.4791V35.832H37.5511V46H36.1271ZM42.7528 46V34.48H47.3048C47.4168 34.48 47.5501 34.4853 47.7048 34.496C47.8595 34.5013 48.0088 34.5173 48.1528 34.544C48.7768 34.64 49.2995 34.8533 49.7208 35.184C50.1475 35.5147 50.4675 35.9333 50.6808 36.44C50.8941 36.9413 51.0008 37.4987 51.0008 38.112C51.0008 39.0027 50.7688 39.776 50.3048 40.432C49.8408 41.0827 49.1608 41.4907 48.2648 41.656L47.7208 41.744H44.1768V46H42.7528ZM49.6088 46L47.3368 41.312L48.7448 40.88L51.2408 46H49.6088ZM44.1768 40.392H47.2568C47.3581 40.392 47.4728 40.3867 47.6008 40.376C47.7341 40.3653 47.8595 40.3467 47.9768 40.32C48.3448 40.2347 48.6435 40.08 48.8728 39.856C49.1075 39.6267 49.2781 39.36 49.3848 39.056C49.4915 38.7467 49.5448 38.432 49.5448 38.112C49.5448 37.792 49.4915 37.48 49.3848 37.176C49.2781 36.8667 49.1075 36.5973 48.8728 36.368C48.6435 36.1387 48.3448 35.984 47.9768 35.904C47.8595 35.872 47.7341 35.8533 47.6008 35.848C47.4728 35.8373 47.3581 35.832 47.2568 35.832H44.1768V40.392ZM52.2028 46L56.0588 34.48H58.0428L61.8988 46H60.4188L56.8108 35.312H57.2588L53.6828 46H52.2028ZM54.0588 43.304V41.968H60.0428V43.304H54.0588ZM65.0219 46L61.1659 34.48H62.6459L65.9979 44.488L69.3819 34.48H70.8619L67.0059 46H65.0219ZM72.0653 46V34.48H79.3453V35.832H73.4893V39.44H78.3853V40.792H73.4893V44.648H79.3453V46H72.0653ZM81.4284 46V34.48H82.8524V44.648H88.1964V46H81.4284ZM89.7097 46V34.48H91.1337V46H89.7097ZM93.5341 46V34.48H94.9741L100.982 43.48V34.48H102.422V46H100.982L94.9741 36.992V46H93.5341ZM109.323 46.24C108.534 46.24 107.814 46.1013 107.163 45.824C106.512 45.5467 105.952 45.1493 105.483 44.632C105.014 44.1093 104.651 43.48 104.395 42.744C104.144 42.0027 104.019 41.168 104.019 40.24C104.019 39.0133 104.238 37.952 104.675 37.056C105.112 36.16 105.728 35.4693 106.523 34.984C107.318 34.4933 108.251 34.248 109.323 34.248C110.614 34.248 111.654 34.5493 112.443 35.152C113.232 35.7493 113.776 36.568 114.075 37.608L112.635 37.904C112.395 37.2053 112 36.648 111.451 36.232C110.902 35.816 110.216 35.608 109.395 35.608C108.536 35.6027 107.822 35.7947 107.251 36.184C106.686 36.568 106.259 37.1093 105.971 37.808C105.683 38.5067 105.536 39.3173 105.531 40.24C105.526 41.1573 105.667 41.9627 105.955 42.656C106.243 43.3493 106.672 43.8933 107.243 44.288C107.819 44.6773 108.536 44.8747 109.395 44.88C110.136 44.8853 110.76 44.744 111.267 44.456C111.774 44.168 112.166 43.752 112.443 43.208C112.72 42.664 112.888 42.0107 112.947 41.248H110.499V40.072H114.451C114.467 40.1787 114.475 40.3067 114.475 40.456C114.48 40.6 114.483 40.6987 114.483 40.752C114.483 41.8027 114.286 42.744 113.891 43.576C113.502 44.4027 112.923 45.0533 112.155 45.528C111.392 46.0027 110.448 46.24 109.323 46.24ZM123.028 46.24C122.388 46.24 121.791 46.1467 121.236 45.96C120.681 45.7733 120.217 45.48 119.844 45.08C119.556 44.76 119.34 44.408 119.196 44.024C119.057 43.6347 118.98 43.224 118.964 42.792C118.964 42.3707 119.025 41.96 119.148 41.56C119.271 41.1547 119.465 40.7947 119.732 40.48C119.871 40.3093 120.025 40.1653 120.196 40.048C120.372 39.9253 120.548 39.8213 120.724 39.736C120.356 39.3413 120.073 38.9707 119.876 38.624C119.684 38.2773 119.588 37.8587 119.588 37.368C119.588 36.744 119.748 36.1813 120.068 35.68C120.393 35.1733 120.836 34.8027 121.396 34.568C121.668 34.4507 121.945 34.3707 122.228 34.328C122.516 34.28 122.796 34.256 123.068 34.256C123.527 34.256 123.972 34.32 124.404 34.448C124.836 34.576 125.204 34.784 125.508 35.072C125.711 35.2427 125.884 35.44 126.028 35.664C126.172 35.8827 126.284 36.112 126.364 36.352L124.972 36.712C124.871 36.44 124.703 36.2107 124.468 36.024C124.281 35.864 124.063 35.7547 123.812 35.696C123.567 35.6373 123.319 35.608 123.068 35.608C122.652 35.608 122.276 35.688 121.94 35.848C121.641 35.992 121.417 36.1947 121.268 36.456C121.119 36.712 121.044 37.016 121.044 37.368C121.044 37.672 121.095 37.9227 121.196 38.12C121.303 38.312 121.449 38.5173 121.636 38.736C121.748 38.8533 121.873 38.9787 122.012 39.112C122.156 39.24 122.303 39.3733 122.452 39.512L125.844 42.664C125.86 42.5307 125.871 42.3947 125.876 42.256C125.881 42.1173 125.884 41.984 125.884 41.856L125.876 40.264H127.18V42.136C127.18 42.5147 127.167 42.8373 127.14 43.104C127.119 43.3707 127.081 43.592 127.028 43.768L128.492 45.12L127.564 46.112L126.348 44.96C126.14 45.1947 125.892 45.4 125.604 45.576C125.316 45.752 125.028 45.8853 124.74 45.976C124.468 46.0773 124.188 46.1467 123.9 46.184C123.612 46.2213 123.321 46.24 123.028 46.24ZM123.06 44.872C123.321 44.872 123.559 44.856 123.772 44.824C123.985 44.792 124.188 44.7307 124.38 44.64C124.636 44.5173 124.833 44.4 124.972 44.288C125.111 44.176 125.225 44.072 125.316 43.976L121.804 40.76C121.612 40.824 121.431 40.9093 121.26 41.016C121.095 41.1227 120.951 41.248 120.828 41.392C120.689 41.5627 120.585 41.7627 120.516 41.992C120.452 42.2213 120.42 42.464 120.42 42.72C120.425 42.992 120.471 43.2427 120.556 43.472C120.641 43.7013 120.761 43.9067 120.916 44.088C121.151 44.36 121.468 44.56 121.868 44.688C122.268 44.8107 122.665 44.872 123.06 44.872ZM137.739 46.24C136.592 46.24 135.619 45.9867 134.819 45.48C134.019 44.9733 133.408 44.2693 132.987 43.368C132.571 42.4667 132.363 41.424 132.363 40.24C132.363 39.056 132.571 38.0133 132.987 37.112C133.408 36.2107 134.019 35.5067 134.819 35C135.619 34.4933 136.592 34.24 137.739 34.24C139.072 34.24 140.168 34.5787 141.027 35.256C141.891 35.9333 142.485 36.8453 142.811 37.992L141.363 38.376C141.128 37.5173 140.709 36.84 140.107 36.344C139.504 35.848 138.715 35.6 137.739 35.6C136.88 35.6 136.165 35.7947 135.595 36.184C135.024 36.5733 134.595 37.1173 134.307 37.816C134.019 38.5093 133.872 39.3173 133.867 40.24C133.861 41.1573 134.003 41.9653 134.291 42.664C134.579 43.3573 135.011 43.9013 135.587 44.296C136.163 44.6853 136.88 44.88 137.739 44.88C138.715 44.88 139.504 44.632 140.107 44.136C140.709 43.6347 141.128 42.9573 141.363 42.104L142.811 42.488C142.485 43.6293 141.891 44.5413 141.027 45.224C140.168 45.9013 139.072 46.24 137.739 46.24ZM144.725 46V34.48H146.149V46H144.725ZM151.518 46V35.832H147.59V34.48H156.87V35.832H152.942V46H151.518ZM158.303 46V34.48H159.727V46H158.303ZM162.128 46V34.48H169.408V35.832H163.552V39.44H168.448V40.792H163.552V44.648H169.408V46H162.128ZM175.091 46.24C174.275 46.24 173.539 46.1013 172.883 45.824C172.232 45.5467 171.693 45.152 171.267 44.64C170.845 44.1227 170.571 43.512 170.443 42.808L171.915 42.576C172.101 43.3013 172.488 43.8693 173.075 44.28C173.667 44.6853 174.363 44.888 175.163 44.888C175.68 44.888 176.147 44.808 176.563 44.648C176.984 44.4827 177.317 44.248 177.563 43.944C177.808 43.64 177.931 43.28 177.931 42.864C177.931 42.608 177.885 42.3893 177.795 42.208C177.709 42.0213 177.589 41.864 177.435 41.736C177.285 41.6027 177.115 41.4907 176.923 41.4C176.731 41.3093 176.531 41.2347 176.323 41.176L173.387 40.304C173.067 40.208 172.757 40.088 172.459 39.944C172.16 39.7947 171.893 39.6107 171.659 39.392C171.424 39.168 171.237 38.9013 171.099 38.592C170.96 38.2773 170.891 37.9067 170.891 37.48C170.891 36.7973 171.067 36.216 171.419 35.736C171.776 35.2507 172.259 34.88 172.867 34.624C173.475 34.368 174.16 34.2427 174.923 34.248C175.696 34.2533 176.387 34.392 176.995 34.664C177.608 34.9307 178.115 35.3147 178.515 35.816C178.92 36.3173 179.192 36.9173 179.331 37.616L177.819 37.88C177.739 37.4107 177.56 37.008 177.283 36.672C177.011 36.3307 176.669 36.0693 176.259 35.888C175.848 35.7013 175.397 35.6053 174.907 35.6C174.437 35.5947 174.013 35.6693 173.635 35.824C173.256 35.9787 172.955 36.1947 172.731 36.472C172.507 36.744 172.395 37.0587 172.395 37.416C172.395 37.768 172.496 38.0533 172.699 38.272C172.901 38.4853 173.149 38.656 173.443 38.784C173.741 38.9067 174.032 39.008 174.315 39.088L176.507 39.72C176.757 39.7893 177.045 39.8853 177.371 40.008C177.701 40.1307 178.021 40.304 178.331 40.528C178.64 40.7467 178.896 41.04 179.099 41.408C179.301 41.7707 179.403 42.2293 179.403 42.784C179.403 43.3387 179.291 43.832 179.067 44.264C178.848 44.696 178.541 45.0587 178.147 45.352C177.752 45.64 177.293 45.8587 176.771 46.008C176.248 46.1627 175.688 46.24 175.091 46.24Z" fill="white"></path> <defs> <linearGradient id="paint0_linear_131_204" x1="300" y1="0" x2="300" y2="400" gradientUnits="userSpaceOnUse"> <stop stop-color="#0072FF"></stop> <stop offset="1" stop-color="#5199FF"></stop> </linearGradient> </defs> </svg> 