<?xml version="1.0" encoding="UTF-8"?> <svg xmlns="http://www.w3.org/2000/svg" width="600" height="400" viewBox="0 0 600 400" fill="none"> <rect width="600" height="400" rx="20" fill="url(#paint0_linear_131_54)"></rect> <path d="M128.884 193L124.253 177.16H127.036L130.193 188.6L133.339 177.182L136.122 177.16L139.279 188.6L142.425 177.16H145.208L140.588 193H137.97L134.725 181.736L131.502 193H128.884ZM147.003 193V177.16H149.654V183.826H157.156V177.16H159.796V193H157.156V186.312H149.654V193H147.003ZM163.1 193V177.16H165.751V193H163.1ZM175.745 193.33C174.161 193.33 172.804 192.985 171.675 192.296C170.546 191.599 169.677 190.631 169.068 189.392C168.467 188.153 168.166 186.715 168.166 185.08C168.166 183.445 168.467 182.007 169.068 180.768C169.677 179.529 170.546 178.564 171.675 177.875C172.804 177.178 174.161 176.83 175.745 176.83C177.571 176.83 179.093 177.288 180.31 178.205C181.527 179.114 182.382 180.343 182.873 181.89L180.2 182.627C179.892 181.593 179.368 180.786 178.627 180.207C177.886 179.62 176.926 179.327 175.745 179.327C174.682 179.327 173.794 179.565 173.083 180.042C172.379 180.519 171.847 181.19 171.488 182.055C171.136 182.913 170.956 183.921 170.949 185.08C170.949 186.239 171.125 187.251 171.477 188.116C171.836 188.974 172.372 189.641 173.083 190.118C173.794 190.595 174.682 190.833 175.745 190.833C176.926 190.833 177.886 190.54 178.627 189.953C179.368 189.366 179.892 188.56 180.2 187.533L182.873 188.27C182.382 189.817 181.527 191.049 180.31 191.966C179.093 192.875 177.571 193.33 175.745 193.33ZM185.288 193V177.16H187.939V183.826H195.441V177.16H198.081V193H195.441V186.312H187.939V193H185.288ZM205.569 193V177.16H215.106V179.811H208.22V183.76H213.786V186.4H208.22V193H205.569ZM223.784 193.33C222.2 193.33 220.843 192.985 219.714 192.296C218.585 191.599 217.716 190.631 217.107 189.392C216.506 188.153 216.205 186.715 216.205 185.08C216.205 183.445 216.506 182.007 217.107 180.768C217.716 179.529 218.585 178.564 219.714 177.875C220.843 177.178 222.2 176.83 223.784 176.83C225.368 176.83 226.725 177.178 227.854 177.875C228.991 178.564 229.86 179.529 230.461 180.768C231.07 182.007 231.374 183.445 231.374 185.08C231.374 186.715 231.07 188.153 230.461 189.392C229.86 190.631 228.991 191.599 227.854 192.296C226.725 192.985 225.368 193.33 223.784 193.33ZM223.784 190.833C224.847 190.84 225.731 190.606 226.435 190.129C227.146 189.652 227.678 188.981 228.03 188.116C228.389 187.251 228.569 186.239 228.569 185.08C228.569 183.921 228.389 182.917 228.03 182.066C227.678 181.208 227.146 180.541 226.435 180.064C225.731 179.587 224.847 179.342 223.784 179.327C222.721 179.32 221.837 179.554 221.133 180.031C220.429 180.508 219.897 181.179 219.538 182.044C219.186 182.909 219.01 183.921 219.01 185.08C219.01 186.239 219.186 187.247 219.538 188.105C219.89 188.956 220.418 189.619 221.122 190.096C221.833 190.573 222.721 190.818 223.784 190.833ZM240.262 193.33C238.678 193.33 237.322 192.985 236.192 192.296C235.063 191.599 234.194 190.631 233.585 189.392C232.984 188.153 232.683 186.715 232.683 185.08C232.683 183.445 232.984 182.007 233.585 180.768C234.194 179.529 235.063 178.564 236.192 177.875C237.322 177.178 238.678 176.83 240.262 176.83C241.846 176.83 243.203 177.178 244.332 177.875C245.469 178.564 246.338 179.529 246.939 180.768C247.548 182.007 247.852 183.445 247.852 185.08C247.852 186.715 247.548 188.153 246.939 189.392C246.338 190.631 245.469 191.599 244.332 192.296C243.203 192.985 241.846 193.33 240.262 193.33ZM240.262 190.833C241.326 190.84 242.209 190.606 242.913 190.129C243.625 189.652 244.156 188.981 244.508 188.116C244.868 187.251 245.047 186.239 245.047 185.08C245.047 183.921 244.868 182.917 244.508 182.066C244.156 181.208 243.625 180.541 242.913 180.064C242.209 179.587 241.326 179.342 240.262 179.327C239.199 179.32 238.315 179.554 237.611 180.031C236.907 180.508 236.376 181.179 236.016 182.044C235.664 182.909 235.488 183.921 235.488 185.08C235.488 186.239 235.664 187.247 236.016 188.105C236.368 188.956 236.896 189.619 237.6 190.096C238.312 190.573 239.199 190.818 240.262 190.833ZM250.042 193V177.16H255.091C255.223 177.16 255.483 177.164 255.872 177.171C256.268 177.178 256.649 177.204 257.016 177.248C258.27 177.409 259.33 177.857 260.195 178.59C261.068 179.316 261.728 180.244 262.175 181.373C262.622 182.502 262.846 183.738 262.846 185.08C262.846 186.422 262.622 187.658 262.175 188.787C261.728 189.916 261.068 190.848 260.195 191.581C259.33 192.307 258.27 192.751 257.016 192.912C256.657 192.956 256.279 192.982 255.883 192.989C255.487 192.996 255.223 193 255.091 193H250.042ZM252.737 190.503H255.091C255.311 190.503 255.59 190.496 255.927 190.481C256.272 190.466 256.576 190.433 256.84 190.382C257.588 190.243 258.197 189.909 258.666 189.381C259.135 188.853 259.48 188.211 259.7 187.456C259.927 186.701 260.041 185.909 260.041 185.08C260.041 184.222 259.927 183.415 259.7 182.66C259.473 181.905 259.121 181.27 258.644 180.757C258.175 180.244 257.573 179.917 256.84 179.778C256.576 179.719 256.272 179.686 255.927 179.679C255.59 179.664 255.311 179.657 255.091 179.657H252.737V190.503ZM269.851 193V177.16H274.9C275.032 177.16 275.292 177.164 275.681 177.171C276.077 177.178 276.458 177.204 276.825 177.248C278.079 177.409 279.138 177.857 280.004 178.59C280.876 179.316 281.536 180.244 281.984 181.373C282.431 182.502 282.655 183.738 282.655 185.08C282.655 186.422 282.431 187.658 281.984 188.787C281.536 189.916 280.876 190.848 280.004 191.581C279.138 192.307 278.079 192.751 276.825 192.912C276.465 192.956 276.088 192.982 275.692 192.989C275.296 192.996 275.032 193 274.9 193H269.851ZM272.546 190.503H274.9C275.12 190.503 275.398 190.496 275.736 190.481C276.08 190.466 276.385 190.433 276.649 190.382C277.397 190.243 278.005 189.909 278.475 189.381C278.944 188.853 279.289 188.211 279.509 187.456C279.736 186.701 279.85 185.909 279.85 185.08C279.85 184.222 279.736 183.415 279.509 182.66C279.281 181.905 278.929 181.27 278.453 180.757C277.983 180.244 277.382 179.917 276.649 179.778C276.385 179.719 276.08 179.686 275.736 179.679C275.398 179.664 275.12 179.657 274.9 179.657H272.546V190.503ZM291.954 193.33C290.37 193.33 289.013 192.985 287.884 192.296C286.755 191.599 285.886 190.631 285.277 189.392C284.676 188.153 284.375 186.715 284.375 185.08C284.375 183.445 284.676 182.007 285.277 180.768C285.886 179.529 286.755 178.564 287.884 177.875C289.013 177.178 290.37 176.83 291.954 176.83C293.538 176.83 294.895 177.178 296.024 177.875C297.161 178.564 298.03 179.529 298.631 180.768C299.24 182.007 299.544 183.445 299.544 185.08C299.544 186.715 299.24 188.153 298.631 189.392C298.03 190.631 297.161 191.599 296.024 192.296C294.895 192.985 293.538 193.33 291.954 193.33ZM291.954 190.833C293.017 190.84 293.901 190.606 294.605 190.129C295.316 189.652 295.848 188.981 296.2 188.116C296.559 187.251 296.739 186.239 296.739 185.08C296.739 183.921 296.559 182.917 296.2 182.066C295.848 181.208 295.316 180.541 294.605 180.064C293.901 179.587 293.017 179.342 291.954 179.327C290.891 179.32 290.007 179.554 289.303 180.031C288.599 180.508 288.067 181.179 287.708 182.044C287.356 182.909 287.18 183.921 287.18 185.08C287.18 186.239 287.356 187.247 287.708 188.105C288.06 188.956 288.588 189.619 289.292 190.096C290.003 190.573 290.891 190.818 291.954 190.833ZM309.988 193V186.51L304.598 177.16H307.689L311.33 183.474L314.96 177.16H318.051L312.672 186.51V193H309.988ZM325.405 193.33C323.821 193.33 322.464 192.985 321.335 192.296C320.206 191.599 319.337 190.631 318.728 189.392C318.127 188.153 317.826 186.715 317.826 185.08C317.826 183.445 318.127 182.007 318.728 180.768C319.337 179.529 320.206 178.564 321.335 177.875C322.464 177.178 323.821 176.83 325.405 176.83C326.989 176.83 328.346 177.178 329.475 177.875C330.612 178.564 331.481 179.529 332.082 180.768C332.691 182.007 332.995 183.445 332.995 185.08C332.995 186.715 332.691 188.153 332.082 189.392C331.481 190.631 330.612 191.599 329.475 192.296C328.346 192.985 326.989 193.33 325.405 193.33ZM325.405 190.833C326.468 190.84 327.352 190.606 328.056 190.129C328.767 189.652 329.299 188.981 329.651 188.116C330.01 187.251 330.19 186.239 330.19 185.08C330.19 183.921 330.01 182.917 329.651 182.066C329.299 181.208 328.767 180.541 328.056 180.064C327.352 179.587 326.468 179.342 325.405 179.327C324.342 179.32 323.458 179.554 322.754 180.031C322.05 180.508 321.518 181.179 321.159 182.044C320.807 182.909 320.631 183.921 320.631 185.08C320.631 186.239 320.807 187.247 321.159 188.105C321.511 188.956 322.039 189.619 322.743 190.096C323.454 190.573 324.342 190.818 325.405 190.833ZM341.565 193.33C340.303 193.33 339.192 193.073 338.232 192.56C337.278 192.047 336.53 191.324 335.988 190.393C335.452 189.462 335.185 188.369 335.185 187.115V177.182L337.869 177.16V187.049C337.869 187.643 337.968 188.175 338.166 188.644C338.371 189.113 338.646 189.513 338.991 189.843C339.335 190.166 339.731 190.411 340.179 190.58C340.626 190.749 341.088 190.833 341.565 190.833C342.056 190.833 342.522 190.749 342.962 190.58C343.409 190.404 343.805 190.155 344.15 189.832C344.494 189.502 344.766 189.102 344.964 188.633C345.162 188.164 345.261 187.636 345.261 187.049V177.16H347.945V187.115C347.945 188.369 347.673 189.462 347.131 190.393C346.595 191.324 345.847 192.047 344.887 192.56C343.933 193.073 342.826 193.33 341.565 193.33ZM354.323 193L359.317 177.16H363.2L368.194 193H365.466L360.934 178.788H361.528L357.051 193H354.323ZM357.106 189.568V187.093H365.422V189.568H357.106ZM375.616 193.33C374.457 193.33 373.412 193.128 372.481 192.725C371.557 192.322 370.794 191.746 370.193 190.998C369.599 190.243 369.221 189.348 369.06 188.314L371.81 187.896C372.045 188.835 372.525 189.561 373.251 190.074C373.984 190.587 374.828 190.844 375.781 190.844C376.346 190.844 376.877 190.756 377.376 190.58C377.875 190.404 378.278 190.147 378.586 189.81C378.901 189.473 379.059 189.058 379.059 188.567C379.059 188.347 379.022 188.145 378.949 187.962C378.876 187.771 378.766 187.603 378.619 187.456C378.48 187.309 378.296 187.177 378.069 187.06C377.849 186.935 377.592 186.829 377.299 186.741L373.207 185.531C372.855 185.428 372.474 185.293 372.063 185.124C371.66 184.948 371.275 184.71 370.908 184.409C370.549 184.101 370.252 183.712 370.017 183.243C369.79 182.766 369.676 182.18 369.676 181.483C369.676 180.464 369.933 179.609 370.446 178.92C370.967 178.223 371.663 177.703 372.536 177.358C373.416 177.013 374.391 176.845 375.462 176.852C376.547 176.859 377.515 177.046 378.366 177.413C379.217 177.772 379.928 178.297 380.5 178.986C381.072 179.675 381.475 180.508 381.71 181.483L378.861 181.978C378.744 181.421 378.516 180.948 378.179 180.559C377.849 180.163 377.442 179.862 376.958 179.657C376.481 179.452 375.972 179.342 375.429 179.327C374.901 179.32 374.41 179.4 373.955 179.569C373.508 179.73 373.145 179.965 372.866 180.273C372.595 180.581 372.459 180.94 372.459 181.351C372.459 181.74 372.576 182.059 372.811 182.308C373.046 182.55 373.335 182.744 373.68 182.891C374.032 183.03 374.388 183.148 374.747 183.243L377.585 184.035C377.974 184.138 378.41 184.277 378.894 184.453C379.378 184.629 379.844 184.875 380.291 185.19C380.738 185.505 381.105 185.92 381.391 186.433C381.684 186.946 381.831 187.599 381.831 188.391C381.831 189.212 381.659 189.935 381.314 190.558C380.977 191.174 380.518 191.687 379.939 192.098C379.36 192.509 378.696 192.817 377.948 193.022C377.207 193.227 376.43 193.33 375.616 193.33ZM390.397 193.33C389.238 193.33 388.193 193.128 387.262 192.725C386.338 192.322 385.575 191.746 384.974 190.998C384.38 190.243 384.002 189.348 383.841 188.314L386.591 187.896C386.826 188.835 387.306 189.561 388.032 190.074C388.765 190.587 389.609 190.844 390.562 190.844C391.127 190.844 391.658 190.756 392.157 190.58C392.656 190.404 393.059 190.147 393.367 189.81C393.682 189.473 393.84 189.058 393.84 188.567C393.84 188.347 393.803 188.145 393.73 187.962C393.657 187.771 393.547 187.603 393.4 187.456C393.261 187.309 393.077 187.177 392.85 187.06C392.63 186.935 392.373 186.829 392.08 186.741L387.988 185.531C387.636 185.428 387.255 185.293 386.844 185.124C386.441 184.948 386.056 184.71 385.689 184.409C385.33 184.101 385.033 183.712 384.798 183.243C384.571 182.766 384.457 182.18 384.457 181.483C384.457 180.464 384.714 179.609 385.227 178.92C385.748 178.223 386.444 177.703 387.317 177.358C388.197 177.013 389.172 176.845 390.243 176.852C391.328 176.859 392.296 177.046 393.147 177.413C393.998 177.772 394.709 178.297 395.281 178.986C395.853 179.675 396.256 180.508 396.491 181.483L393.642 181.978C393.525 181.421 393.297 180.948 392.96 180.559C392.63 180.163 392.223 179.862 391.739 179.657C391.262 179.452 390.753 179.342 390.21 179.327C389.682 179.32 389.191 179.4 388.736 179.569C388.289 179.73 387.926 179.965 387.647 180.273C387.376 180.581 387.24 180.94 387.24 181.351C387.24 181.74 387.357 182.059 387.592 182.308C387.827 182.55 388.116 182.744 388.461 182.891C388.813 183.03 389.169 183.148 389.528 183.243L392.366 184.035C392.755 184.138 393.191 184.277 393.675 184.453C394.159 184.629 394.625 184.875 395.072 185.19C395.519 185.505 395.886 185.92 396.172 186.433C396.465 186.946 396.612 187.599 396.612 188.391C396.612 189.212 396.44 189.935 396.095 190.558C395.758 191.174 395.299 191.687 394.72 192.098C394.141 192.509 393.477 192.817 392.729 193.022C391.988 193.227 391.211 193.33 390.397 193.33ZM405.692 193.33C404.108 193.33 402.751 192.985 401.622 192.296C400.493 191.599 399.624 190.631 399.015 189.392C398.414 188.153 398.113 186.715 398.113 185.08C398.113 183.445 398.414 182.007 399.015 180.768C399.624 179.529 400.493 178.564 401.622 177.875C402.751 177.178 404.108 176.83 405.692 176.83C407.276 176.83 408.633 177.178 409.762 177.875C410.899 178.564 411.768 179.529 412.369 180.768C412.978 182.007 413.282 183.445 413.282 185.08C413.282 186.715 412.978 188.153 412.369 189.392C411.768 190.631 410.899 191.599 409.762 192.296C408.633 192.985 407.276 193.33 405.692 193.33ZM405.692 190.833C406.755 190.84 407.639 190.606 408.343 190.129C409.054 189.652 409.586 188.981 409.938 188.116C410.297 187.251 410.477 186.239 410.477 185.08C410.477 183.921 410.297 182.917 409.938 182.066C409.586 181.208 409.054 180.541 408.343 180.064C407.639 179.587 406.755 179.342 405.692 179.327C404.629 179.32 403.745 179.554 403.041 180.031C402.337 180.508 401.805 181.179 401.446 182.044C401.094 182.909 400.918 183.921 400.918 185.08C400.918 186.239 401.094 187.247 401.446 188.105C401.798 188.956 402.326 189.619 403.03 190.096C403.741 190.573 404.629 190.818 405.692 190.833ZM422.171 193.33C420.587 193.33 419.23 192.985 418.101 192.296C416.971 191.599 416.102 190.631 415.494 189.392C414.892 188.153 414.592 186.715 414.592 185.08C414.592 183.445 414.892 182.007 415.494 180.768C416.102 179.529 416.971 178.564 418.101 177.875C419.23 177.178 420.587 176.83 422.171 176.83C423.997 176.83 425.518 177.288 426.736 178.205C427.953 179.114 428.807 180.343 429.299 181.89L426.626 182.627C426.318 181.593 425.793 180.786 425.053 180.207C424.312 179.62 423.351 179.327 422.171 179.327C421.107 179.327 420.22 179.565 419.509 180.042C418.805 180.519 418.273 181.19 417.914 182.055C417.562 182.913 417.382 183.921 417.375 185.08C417.375 186.239 417.551 187.251 417.903 188.116C418.262 188.974 418.797 189.641 419.509 190.118C420.22 190.595 421.107 190.833 422.171 190.833C423.351 190.833 424.312 190.54 425.053 189.953C425.793 189.366 426.318 188.56 426.626 187.533L429.299 188.27C428.807 189.817 427.953 191.049 426.736 191.966C425.518 192.875 423.997 193.33 422.171 193.33ZM431.934 193V177.16H434.585V193H431.934ZM436.78 193L441.774 177.16H445.657L450.651 193H447.923L443.391 178.788H443.985L439.508 193H436.78ZM439.563 189.568V187.093H447.879V189.568H439.563ZM455.135 193V179.646H450.009V177.16H462.912V179.646H457.786V193H455.135ZM464.671 193V177.16H474.901V179.646H467.322V183.551H473.581V186.037H467.322V190.514H474.901V193H464.671ZM171.445 224L166.814 208.16H169.597L172.754 219.6L175.9 208.182L178.683 208.16L181.84 219.6L184.986 208.16H187.769L183.149 224H180.531L177.286 212.736L174.063 224H171.445ZM189.783 224V208.16H192.434V224H189.783ZM199.535 224V210.646H194.409V208.16H207.312V210.646H202.186V224H199.535ZM209.071 224V208.16H211.722V214.826H219.224V208.16H221.864V224H219.224V217.312H211.722V224H209.071ZM233.203 224V217.51L227.812 208.16H230.904L234.545 214.474L238.175 208.16H241.266L235.887 217.51V224H233.203ZM248.62 224.33C247.036 224.33 245.679 223.985 244.55 223.296C243.421 222.599 242.552 221.631 241.943 220.392C241.342 219.153 241.041 217.715 241.041 216.08C241.041 214.445 241.342 213.007 241.943 211.768C242.552 210.529 243.421 209.564 244.55 208.875C245.679 208.178 247.036 207.83 248.62 207.83C250.204 207.83 251.561 208.178 252.69 208.875C253.827 209.564 254.696 210.529 255.297 211.768C255.906 213.007 256.21 214.445 256.21 216.08C256.21 217.715 255.906 219.153 255.297 220.392C254.696 221.631 253.827 222.599 252.69 223.296C251.561 223.985 250.204 224.33 248.62 224.33ZM248.62 221.833C249.683 221.84 250.567 221.606 251.271 221.129C251.982 220.652 252.514 219.981 252.866 219.116C253.225 218.251 253.405 217.239 253.405 216.08C253.405 214.921 253.225 213.917 252.866 213.066C252.514 212.208 251.982 211.541 251.271 211.064C250.567 210.587 249.683 210.342 248.62 210.327C247.557 210.32 246.673 210.554 245.969 211.031C245.265 211.508 244.733 212.179 244.374 213.044C244.022 213.909 243.846 214.921 243.846 216.08C243.846 217.239 244.022 218.247 244.374 219.105C244.726 219.956 245.254 220.619 245.958 221.096C246.669 221.573 247.557 221.818 248.62 221.833ZM264.779 224.33C263.518 224.33 262.407 224.073 261.446 223.56C260.493 223.047 259.745 222.324 259.202 221.393C258.667 220.462 258.399 219.369 258.399 218.115V208.182L261.083 208.16V218.049C261.083 218.643 261.182 219.175 261.38 219.644C261.586 220.113 261.861 220.513 262.205 220.843C262.55 221.166 262.946 221.411 263.393 221.58C263.841 221.749 264.303 221.833 264.779 221.833C265.271 221.833 265.736 221.749 266.176 221.58C266.624 221.404 267.02 221.155 267.364 220.832C267.709 220.502 267.98 220.102 268.178 219.633C268.376 219.164 268.475 218.636 268.475 218.049V208.16H271.159V218.115C271.159 219.369 270.888 220.462 270.345 221.393C269.81 222.324 269.062 223.047 268.101 223.56C267.148 224.073 266.041 224.33 264.779 224.33ZM274.233 224V208.16H280.778C280.932 208.16 281.13 208.167 281.372 208.182C281.614 208.189 281.838 208.211 282.043 208.248C282.96 208.387 283.715 208.692 284.309 209.161C284.911 209.63 285.354 210.224 285.64 210.943C285.934 211.654 286.08 212.446 286.08 213.319C286.08 214.61 285.754 215.721 285.101 216.652C284.449 217.576 283.448 218.148 282.098 218.368L280.965 218.467H276.884V224H274.233ZM283.33 224L280.206 217.554L282.901 216.96L286.333 224H283.33ZM276.884 215.992H280.668C280.815 215.992 280.98 215.985 281.163 215.97C281.347 215.955 281.515 215.926 281.669 215.882C282.109 215.772 282.454 215.578 282.703 215.299C282.96 215.02 283.14 214.705 283.242 214.353C283.352 214.001 283.407 213.656 283.407 213.319C283.407 212.982 283.352 212.637 283.242 212.285C283.14 211.926 282.96 211.607 282.703 211.328C282.454 211.049 282.109 210.855 281.669 210.745C281.515 210.701 281.347 210.675 281.163 210.668C280.98 210.653 280.815 210.646 280.668 210.646H276.884V215.992ZM299.86 224.33C298.276 224.33 296.919 223.985 295.79 223.296C294.661 222.599 293.792 221.631 293.183 220.392C292.582 219.153 292.281 217.715 292.281 216.08C292.281 214.445 292.582 213.007 293.183 211.768C293.792 210.529 294.661 209.564 295.79 208.875C296.919 208.178 298.276 207.83 299.86 207.83C301.686 207.83 303.208 208.288 304.425 209.205C305.642 210.114 306.497 211.343 306.988 212.89L304.315 213.627C304.007 212.593 303.483 211.786 302.742 211.207C302.001 210.62 301.041 210.327 299.86 210.327C298.797 210.327 297.909 210.565 297.198 211.042C296.494 211.519 295.962 212.19 295.603 213.055C295.251 213.913 295.071 214.921 295.064 216.08C295.064 217.239 295.24 218.251 295.592 219.116C295.951 219.974 296.487 220.641 297.198 221.118C297.909 221.595 298.797 221.833 299.86 221.833C301.041 221.833 302.001 221.54 302.742 220.953C303.483 220.366 304.007 219.56 304.315 218.533L306.988 219.27C306.497 220.817 305.642 222.049 304.425 222.966C303.208 223.875 301.686 224.33 299.86 224.33ZM309.403 224V208.16H312.054V214.826H319.556V208.16H322.196V224H319.556V217.312H312.054V224H309.403ZM325.5 224V208.16H328.151V224H325.5ZM331.666 224V208.16H334.317V221.514H341.313V224H331.666ZM343.177 224V208.16H348.226C348.358 208.16 348.618 208.164 349.007 208.171C349.403 208.178 349.784 208.204 350.151 208.248C351.405 208.409 352.464 208.857 353.33 209.59C354.202 210.316 354.862 211.244 355.31 212.373C355.757 213.502 355.981 214.738 355.981 216.08C355.981 217.422 355.757 218.658 355.31 219.787C354.862 220.916 354.202 221.848 353.33 222.581C352.464 223.307 351.405 223.751 350.151 223.912C349.791 223.956 349.414 223.982 349.018 223.989C348.622 223.996 348.358 224 348.226 224H343.177ZM345.872 221.503H348.226C348.446 221.503 348.724 221.496 349.062 221.481C349.406 221.466 349.711 221.433 349.975 221.382C350.723 221.243 351.331 220.909 351.801 220.381C352.27 219.853 352.615 219.211 352.835 218.456C353.062 217.701 353.176 216.909 353.176 216.08C353.176 215.222 353.062 214.415 352.835 213.66C352.607 212.905 352.255 212.27 351.779 211.757C351.309 211.244 350.708 210.917 349.975 210.778C349.711 210.719 349.406 210.686 349.062 210.679C348.724 210.664 348.446 210.657 348.226 210.657H345.872V221.503ZM358.581 224V208.16H361.232V214.826H368.734V208.16H371.374V224H368.734V217.312H361.232V224H358.581ZM381.157 224.33C379.573 224.33 378.216 223.985 377.087 223.296C375.958 222.599 375.089 221.631 374.48 220.392C373.879 219.153 373.578 217.715 373.578 216.08C373.578 214.445 373.879 213.007 374.48 211.768C375.089 210.529 375.958 209.564 377.087 208.875C378.216 208.178 379.573 207.83 381.157 207.83C382.741 207.83 384.098 208.178 385.227 208.875C386.364 209.564 387.233 210.529 387.834 211.768C388.443 213.007 388.747 214.445 388.747 216.08C388.747 217.715 388.443 219.153 387.834 220.392C387.233 221.631 386.364 222.599 385.227 223.296C384.098 223.985 382.741 224.33 381.157 224.33ZM381.157 221.833C382.22 221.84 383.104 221.606 383.808 221.129C384.519 220.652 385.051 219.981 385.403 219.116C385.762 218.251 385.942 217.239 385.942 216.08C385.942 214.921 385.762 213.917 385.403 213.066C385.051 212.208 384.519 211.541 383.808 211.064C383.104 210.587 382.22 210.342 381.157 210.327C380.094 210.32 379.21 210.554 378.506 211.031C377.802 211.508 377.27 212.179 376.911 213.044C376.559 213.909 376.383 214.921 376.383 216.08C376.383 217.239 376.559 218.247 376.911 219.105C377.263 219.956 377.791 220.619 378.495 221.096C379.206 221.573 380.094 221.818 381.157 221.833ZM397.635 224.33C396.051 224.33 394.695 223.985 393.565 223.296C392.436 222.599 391.567 221.631 390.958 220.392C390.357 219.153 390.056 217.715 390.056 216.08C390.056 214.445 390.357 213.007 390.958 211.768C391.567 210.529 392.436 209.564 393.565 208.875C394.695 208.178 396.051 207.83 397.635 207.83C399.219 207.83 400.576 208.178 401.705 208.875C402.842 209.564 403.711 210.529 404.312 211.768C404.921 213.007 405.225 214.445 405.225 216.08C405.225 217.715 404.921 219.153 404.312 220.392C403.711 221.631 402.842 222.599 401.705 223.296C400.576 223.985 399.219 224.33 397.635 224.33ZM397.635 221.833C398.699 221.84 399.582 221.606 400.286 221.129C400.998 220.652 401.529 219.981 401.881 219.116C402.241 218.251 402.42 217.239 402.42 216.08C402.42 214.921 402.241 213.917 401.881 213.066C401.529 212.208 400.998 211.541 400.286 211.064C399.582 210.587 398.699 210.342 397.635 210.327C396.572 210.32 395.688 210.554 394.984 211.031C394.28 211.508 393.749 212.179 393.389 213.044C393.037 213.909 392.861 214.921 392.861 216.08C392.861 217.239 393.037 218.247 393.389 219.105C393.741 219.956 394.269 220.619 394.973 221.096C395.685 221.573 396.572 221.818 397.635 221.833ZM407.415 224V208.16H412.464C412.596 208.16 412.856 208.164 413.245 208.171C413.641 208.178 414.022 208.204 414.389 208.248C415.643 208.409 416.703 208.857 417.568 209.59C418.441 210.316 419.101 211.244 419.548 212.373C419.995 213.502 420.219 214.738 420.219 216.08C420.219 217.422 419.995 218.658 419.548 219.787C419.101 220.916 418.441 221.848 417.568 222.581C416.703 223.307 415.643 223.751 414.389 223.912C414.03 223.956 413.652 223.982 413.256 223.989C412.86 223.996 412.596 224 412.464 224H407.415ZM410.11 221.503H412.464C412.684 221.503 412.963 221.496 413.3 221.481C413.645 221.466 413.949 221.433 414.213 221.382C414.961 221.243 415.57 220.909 416.039 220.381C416.508 219.853 416.853 219.211 417.073 218.456C417.3 217.701 417.414 216.909 417.414 216.08C417.414 215.222 417.3 214.415 417.073 213.66C416.846 212.905 416.494 212.27 416.017 211.757C415.548 211.244 414.946 210.917 414.213 210.778C413.949 210.719 413.645 210.686 413.3 210.679C412.963 210.664 412.684 210.657 412.464 210.657H410.11V221.503ZM425.69 219.699C425.69 219.193 425.738 218.705 425.833 218.236C425.936 217.759 426.101 217.319 426.328 216.916C426.526 216.527 426.746 216.219 426.988 215.992C427.23 215.757 427.502 215.526 427.802 215.299C428.103 215.064 428.437 214.753 428.803 214.364C429.104 214.034 429.302 213.708 429.397 213.385C429.493 213.055 429.54 212.703 429.54 212.329C429.54 212.087 429.515 211.86 429.463 211.647C429.412 211.434 429.32 211.251 429.188 211.097C428.983 210.826 428.719 210.635 428.396 210.525C428.074 210.408 427.729 210.349 427.362 210.349C427.062 210.349 426.772 210.389 426.493 210.47C426.222 210.543 425.991 210.661 425.8 210.822C425.58 210.998 425.419 211.214 425.316 211.471C425.214 211.728 425.166 212.01 425.173 212.318H422.379C422.453 211.585 422.651 210.906 422.973 210.283C423.303 209.652 423.736 209.15 424.271 208.776C424.689 208.468 425.159 208.237 425.679 208.083C426.207 207.929 426.735 207.852 427.263 207.852C428.07 207.852 428.829 207.977 429.54 208.226C430.259 208.475 430.857 208.886 431.333 209.458C431.663 209.832 431.913 210.265 432.081 210.756C432.257 211.247 432.345 211.746 432.345 212.252C432.345 213.007 432.18 213.697 431.85 214.32C431.528 214.943 431.117 215.519 430.618 216.047C430.384 216.296 430.16 216.516 429.947 216.707C429.735 216.898 429.537 217.085 429.353 217.268C429.177 217.444 429.031 217.631 428.913 217.829C428.708 218.174 428.587 218.467 428.55 218.709C428.514 218.944 428.495 219.274 428.495 219.699H425.69ZM425.712 224V221.085H428.495V224H425.712Z" fill="white"></path> <rect x="20" y="20" width="67" height="40" rx="20" fill="white" fill-opacity="0.3"></rect> <path d="M33.3778 46V34.48H40.0978V35.904H34.8018V39.528H39.1378V40.952H34.8018V46H33.3778ZM46.2701 46.24C45.1234 46.24 44.1501 45.9867 43.3501 45.48C42.5501 44.9733 41.9394 44.2693 41.5181 43.368C41.1021 42.4667 40.8941 41.424 40.8941 40.24C40.8941 39.056 41.1021 38.0133 41.5181 37.112C41.9394 36.2107 42.5501 35.5067 43.3501 35C44.1501 34.4933 45.1234 34.24 46.2701 34.24C47.4221 34.24 48.3981 34.4933 49.1981 35C49.9981 35.5067 50.6061 36.2107 51.0221 37.112C51.4381 38.0133 51.6461 39.056 51.6461 40.24C51.6461 41.424 51.4381 42.4667 51.0221 43.368C50.6061 44.2693 49.9981 44.9733 49.1981 45.48C48.3981 45.9867 47.4221 46.24 46.2701 46.24ZM46.2701 44.88C47.1287 44.8853 47.8434 44.6933 48.4141 44.304C48.9901 43.9093 49.4194 43.3627 49.7021 42.664C49.9901 41.9653 50.1341 41.1573 50.1341 40.24C50.1341 39.3173 49.9901 38.5093 49.7021 37.816C49.4194 37.1227 48.9901 36.5813 48.4141 36.192C47.8434 35.8027 47.1287 35.6053 46.2701 35.6C45.4114 35.5947 44.6967 35.7867 44.1261 36.176C43.5607 36.5653 43.1341 37.1093 42.8461 37.808C42.5581 38.5067 42.4114 39.3173 42.4061 40.24C42.4007 41.1573 42.5421 41.9627 42.8301 42.656C43.1181 43.3493 43.5474 43.8933 44.1181 44.288C44.6941 44.6773 45.4114 44.8747 46.2701 44.88ZM57.9888 46.24C56.8421 46.24 55.8688 45.9867 55.0688 45.48C54.2688 44.9733 53.6581 44.2693 53.2368 43.368C52.8208 42.4667 52.6128 41.424 52.6128 40.24C52.6128 39.056 52.8208 38.0133 53.2368 37.112C53.6581 36.2107 54.2688 35.5067 55.0688 35C55.8688 34.4933 56.8421 34.24 57.9888 34.24C59.1408 34.24 60.1168 34.4933 60.9168 35C61.7168 35.5067 62.3248 36.2107 62.7408 37.112C63.1568 38.0133 63.3648 39.056 63.3648 40.24C63.3648 41.424 63.1568 42.4667 62.7408 43.368C62.3248 44.2693 61.7168 44.9733 60.9168 45.48C60.1168 45.9867 59.1408 46.24 57.9888 46.24ZM57.9888 44.88C58.8475 44.8853 59.5621 44.6933 60.1328 44.304C60.7088 43.9093 61.1381 43.3627 61.4208 42.664C61.7088 41.9653 61.8528 41.1573 61.8528 40.24C61.8528 39.3173 61.7088 38.5093 61.4208 37.816C61.1381 37.1227 60.7088 36.5813 60.1328 36.192C59.5621 35.8027 58.8475 35.6053 57.9888 35.6C57.1301 35.5947 56.4155 35.7867 55.8448 36.176C55.2795 36.5653 54.8528 37.1093 54.5648 37.808C54.2768 38.5067 54.1301 39.3173 54.1248 40.24C54.1195 41.1573 54.2608 41.9627 54.5488 42.656C54.8368 43.3493 55.2661 43.8933 55.8368 44.288C56.4128 44.6773 57.1301 44.8747 57.9888 44.88ZM64.9716 46V34.48H68.5236C68.6409 34.48 68.8462 34.4827 69.1396 34.488C69.4329 34.4933 69.7129 34.5147 69.9796 34.552C70.8702 34.6693 71.6142 34.9947 72.2116 35.528C72.8142 36.056 73.2676 36.728 73.5716 37.544C73.8756 38.36 74.0276 39.2587 74.0276 40.24C74.0276 41.2213 73.8756 42.12 73.5716 42.936C73.2676 43.752 72.8142 44.4267 72.2116 44.96C71.6142 45.488 70.8702 45.8107 69.9796 45.928C69.7129 45.96 69.4302 45.9813 69.1316 45.992C68.8382 45.9973 68.6356 46 68.5236 46H64.9716ZM66.4356 44.64H68.5236C68.7262 44.64 68.9529 44.6347 69.2036 44.624C69.4542 44.608 69.6729 44.584 69.8596 44.552C70.4889 44.4347 70.9982 44.1707 71.3876 43.76C71.7769 43.3493 72.0622 42.8373 72.2436 42.224C72.4249 41.6107 72.5156 40.9493 72.5156 40.24C72.5156 39.5147 72.4222 38.8453 72.2356 38.232C72.0542 37.6187 71.7689 37.1093 71.3796 36.704C70.9902 36.2987 70.4836 36.04 69.8596 35.928C69.6729 35.8907 69.4516 35.8667 69.1956 35.856C68.9396 35.8453 68.7156 35.84 68.5236 35.84H66.4356V44.64Z" fill="white"></path> <defs> <linearGradient id="paint0_linear_131_54" x1="300" y1="0" x2="300" y2="400" gradientUnits="userSpaceOnUse"> <stop stop-color="#FC8F58"></stop> <stop offset="1" stop-color="#FF5E62"></stop> </linearGradient> </defs> </svg> 