<?xml version="1.0" encoding="UTF-8"?> <svg xmlns="http://www.w3.org/2000/svg" width="600" height="400" viewBox="0 0 600 400" fill="none"> <rect width="600" height="400" rx="20" fill="url(#paint0_linear_131_63)"></rect> <path d="M134.405 193L129.774 177.16H132.557L135.714 188.6L138.86 177.182L141.643 177.16L144.8 188.6L147.946 177.16H150.729L146.109 193H143.491L140.246 181.736L137.023 193H134.405ZM152.524 193V177.16H155.175V183.826H162.677V177.16H165.317V193H162.677V186.312H155.175V193H152.524ZM167.301 193L172.295 177.16H176.178L181.172 193H178.444L173.912 178.788H174.506L170.029 193H167.301ZM170.084 189.568V187.093H178.4V189.568H170.084ZM185.657 193V179.646H180.531V177.16H193.434V179.646H188.308V193H185.657ZM199.151 193V177.16H201.802V193H199.151ZM210.96 193.33C209.801 193.33 208.756 193.128 207.825 192.725C206.901 192.322 206.138 191.746 205.537 190.998C204.943 190.243 204.565 189.348 204.404 188.314L207.154 187.896C207.388 188.835 207.869 189.561 208.595 190.074C209.328 190.587 210.171 190.844 211.125 190.844C211.689 190.844 212.221 190.756 212.72 190.58C213.218 190.404 213.622 190.147 213.93 189.81C214.245 189.473 214.403 189.058 214.403 188.567C214.403 188.347 214.366 188.145 214.293 187.962C214.219 187.771 214.109 187.603 213.963 187.456C213.823 187.309 213.64 187.177 213.413 187.06C213.193 186.935 212.936 186.829 212.643 186.741L208.551 185.531C208.199 185.428 207.817 185.293 207.407 185.124C207.003 184.948 206.618 184.71 206.252 184.409C205.892 184.101 205.595 183.712 205.361 183.243C205.133 182.766 205.02 182.18 205.02 181.483C205.02 180.464 205.276 179.609 205.79 178.92C206.31 178.223 207.007 177.703 207.88 177.358C208.76 177.013 209.735 176.845 210.806 176.852C211.891 176.859 212.859 177.046 213.71 177.413C214.56 177.772 215.272 178.297 215.844 178.986C216.416 179.675 216.819 180.508 217.054 181.483L214.205 181.978C214.087 181.421 213.86 180.948 213.523 180.559C213.193 180.163 212.786 179.862 212.302 179.657C211.825 179.452 211.315 179.342 210.773 179.327C210.245 179.32 209.753 179.4 209.299 179.569C208.851 179.73 208.488 179.965 208.21 180.273C207.938 180.581 207.803 180.94 207.803 181.351C207.803 181.74 207.92 182.059 208.155 182.308C208.389 182.55 208.679 182.744 209.024 182.891C209.376 183.03 209.731 183.148 210.091 183.243L212.929 184.035C213.317 184.138 213.754 184.277 214.238 184.453C214.722 184.629 215.187 184.875 215.635 185.19C216.082 185.505 216.449 185.92 216.735 186.433C217.028 186.946 217.175 187.599 217.175 188.391C217.175 189.212 217.002 189.935 216.658 190.558C216.32 191.174 215.862 191.687 215.283 192.098C214.703 192.509 214.04 192.817 213.292 193.022C212.551 193.227 211.774 193.33 210.96 193.33ZM227.766 193V179.646H222.64V177.16H235.543V179.646H230.417V193H227.766ZM237.302 193V177.16H239.953V183.826H247.455V177.16H250.095V193H247.455V186.312H239.953V193H237.302ZM253.179 193V177.16H263.409V179.646H255.83V183.551H262.089V186.037H255.83V190.514H263.409V193H253.179ZM270.452 193V177.16H272.839L278.317 188.38L283.795 177.16H286.182V193H283.707V182.847L278.845 193H277.789L272.938 182.847V193H270.452ZM295.971 193.33C294.387 193.33 293.031 192.985 291.901 192.296C290.772 191.599 289.903 190.631 289.294 189.392C288.693 188.153 288.392 186.715 288.392 185.08C288.392 183.445 288.693 182.007 289.294 180.768C289.903 179.529 290.772 178.564 291.901 177.875C293.031 177.178 294.387 176.83 295.971 176.83C297.555 176.83 298.912 177.178 300.041 177.875C301.178 178.564 302.047 179.529 302.648 180.768C303.257 182.007 303.561 183.445 303.561 185.08C303.561 186.715 303.257 188.153 302.648 189.392C302.047 190.631 301.178 191.599 300.041 192.296C298.912 192.985 297.555 193.33 295.971 193.33ZM295.971 190.833C297.035 190.84 297.918 190.606 298.622 190.129C299.334 189.652 299.865 188.981 300.217 188.116C300.577 187.251 300.756 186.239 300.756 185.08C300.756 183.921 300.577 182.917 300.217 182.066C299.865 181.208 299.334 180.541 298.622 180.064C297.918 179.587 297.035 179.342 295.971 179.327C294.908 179.32 294.024 179.554 293.32 180.031C292.616 180.508 292.085 181.179 291.725 182.044C291.373 182.909 291.197 183.921 291.197 185.08C291.197 186.239 291.373 187.247 291.725 188.105C292.077 188.956 292.605 189.619 293.309 190.096C294.021 190.573 294.908 190.818 295.971 190.833ZM311.614 193.33C310.455 193.33 309.41 193.128 308.479 192.725C307.555 192.322 306.792 191.746 306.191 190.998C305.597 190.243 305.219 189.348 305.058 188.314L307.808 187.896C308.043 188.835 308.523 189.561 309.249 190.074C309.982 190.587 310.826 190.844 311.779 190.844C312.344 190.844 312.875 190.756 313.374 190.58C313.873 190.404 314.276 190.147 314.584 189.81C314.899 189.473 315.057 189.058 315.057 188.567C315.057 188.347 315.02 188.145 314.947 187.962C314.874 187.771 314.764 187.603 314.617 187.456C314.478 187.309 314.294 187.177 314.067 187.06C313.847 186.935 313.59 186.829 313.297 186.741L309.205 185.531C308.853 185.428 308.472 185.293 308.061 185.124C307.658 184.948 307.273 184.71 306.906 184.409C306.547 184.101 306.25 183.712 306.015 183.243C305.788 182.766 305.674 182.18 305.674 181.483C305.674 180.464 305.931 179.609 306.444 178.92C306.965 178.223 307.661 177.703 308.534 177.358C309.414 177.013 310.389 176.845 311.46 176.852C312.545 176.859 313.513 177.046 314.364 177.413C315.215 177.772 315.926 178.297 316.498 178.986C317.07 179.675 317.473 180.508 317.708 181.483L314.859 181.978C314.742 181.421 314.514 180.948 314.177 180.559C313.847 180.163 313.44 179.862 312.956 179.657C312.479 179.452 311.97 179.342 311.427 179.327C310.899 179.32 310.408 179.4 309.953 179.569C309.506 179.73 309.143 179.965 308.864 180.273C308.593 180.581 308.457 180.94 308.457 181.351C308.457 181.74 308.574 182.059 308.809 182.308C309.044 182.55 309.333 182.744 309.678 182.891C310.03 183.03 310.386 183.148 310.745 183.243L313.583 184.035C313.972 184.138 314.408 184.277 314.892 184.453C315.376 184.629 315.842 184.875 316.289 185.19C316.736 185.505 317.103 185.92 317.389 186.433C317.682 186.946 317.829 187.599 317.829 188.391C317.829 189.212 317.657 189.935 317.312 190.558C316.975 191.174 316.516 191.687 315.937 192.098C315.358 192.509 314.694 192.817 313.946 193.022C313.205 193.227 312.428 193.33 311.614 193.33ZM324.016 193V179.646H318.89V177.16H331.793V179.646H326.667V193H324.016ZM337.29 193V177.16H347.52V179.646H339.941V183.551H346.2V186.037H339.941V190.514H347.52V193H337.29ZM348.839 193L354.207 184.992L348.993 177.16H352.238L355.846 182.737L359.421 177.16H362.688L357.474 184.992L362.82 193H359.575L355.846 187.247L352.106 193H348.839ZM370.608 193.33C369.024 193.33 367.667 192.985 366.538 192.296C365.409 191.599 364.54 190.631 363.931 189.392C363.33 188.153 363.029 186.715 363.029 185.08C363.029 183.445 363.33 182.007 363.931 180.768C364.54 179.529 365.409 178.564 366.538 177.875C367.667 177.178 369.024 176.83 370.608 176.83C372.192 176.83 373.549 177.178 374.678 177.875C375.815 178.564 376.684 179.529 377.285 180.768C377.894 182.007 378.198 183.445 378.198 185.08C378.198 186.715 377.894 188.153 377.285 189.392C376.684 190.631 375.815 191.599 374.678 192.296C373.549 192.985 372.192 193.33 370.608 193.33ZM370.608 190.833C371.671 190.84 372.555 190.606 373.259 190.129C373.97 189.652 374.502 188.981 374.854 188.116C375.213 187.251 375.393 186.239 375.393 185.08C375.393 183.921 375.213 182.917 374.854 182.066C374.502 181.208 373.97 180.541 373.259 180.064C372.555 179.587 371.671 179.342 370.608 179.327C369.545 179.32 368.661 179.554 367.957 180.031C367.253 180.508 366.721 181.179 366.362 182.044C366.01 182.909 365.834 183.921 365.834 185.08C365.834 186.239 366.01 187.247 366.362 188.105C366.714 188.956 367.242 189.619 367.946 190.096C368.657 190.573 369.545 190.818 370.608 190.833ZM383.764 193V179.646H378.638V177.16H391.541V179.646H386.415V193H383.764ZM393.52 193V177.16H396.171V193H393.52ZM406.165 193.33C404.581 193.33 403.224 192.985 402.095 192.296C400.965 191.599 400.096 190.631 399.488 189.392C398.886 188.153 398.586 186.715 398.586 185.08C398.586 183.445 398.886 182.007 399.488 180.768C400.096 179.529 400.965 178.564 402.095 177.875C403.224 177.178 404.581 176.83 406.165 176.83C407.991 176.83 409.512 177.288 410.73 178.205C411.947 179.114 412.801 180.343 413.293 181.89L410.62 182.627C410.312 181.593 409.787 180.786 409.047 180.207C408.306 179.62 407.345 179.327 406.165 179.327C405.101 179.327 404.214 179.565 403.503 180.042C402.799 180.519 402.267 181.19 401.908 182.055C401.556 182.913 401.376 183.921 401.369 185.08C401.369 186.239 401.545 187.251 401.897 188.116C402.256 188.974 402.791 189.641 403.503 190.118C404.214 190.595 405.101 190.833 406.165 190.833C407.345 190.833 408.306 190.54 409.047 189.953C409.787 189.366 410.312 188.56 410.62 187.533L413.293 188.27C412.801 189.817 411.947 191.049 410.73 191.966C409.512 192.875 407.991 193.33 406.165 193.33ZM420.112 193V177.16H425.161C425.293 177.16 425.554 177.164 425.942 177.171C426.338 177.178 426.72 177.204 427.086 177.248C428.34 177.409 429.4 177.857 430.265 178.59C431.138 179.316 431.798 180.244 432.245 181.373C432.693 182.502 432.916 183.738 432.916 185.08C432.916 186.422 432.693 187.658 432.245 188.787C431.798 189.916 431.138 190.848 430.265 191.581C429.4 192.307 428.34 192.751 427.086 192.912C426.727 192.956 426.349 192.982 425.953 192.989C425.557 192.996 425.293 193 425.161 193H420.112ZM422.807 190.503H425.161C425.381 190.503 425.66 190.496 425.997 190.481C426.342 190.466 426.646 190.433 426.91 190.382C427.658 190.243 428.267 189.909 428.736 189.381C429.206 188.853 429.55 188.211 429.77 187.456C429.998 186.701 430.111 185.909 430.111 185.08C430.111 184.222 429.998 183.415 429.77 182.66C429.543 181.905 429.191 181.27 428.714 180.757C428.245 180.244 427.644 179.917 426.91 179.778C426.646 179.719 426.342 179.686 425.997 179.679C425.66 179.664 425.381 179.657 425.161 179.657H422.807V190.503ZM435.737 193V177.16H438.388V193H435.737ZM447.546 193.33C446.387 193.33 445.342 193.128 444.411 192.725C443.487 192.322 442.724 191.746 442.123 190.998C441.529 190.243 441.151 189.348 440.99 188.314L443.74 187.896C443.974 188.835 444.455 189.561 445.181 190.074C445.914 190.587 446.757 190.844 447.711 190.844C448.275 190.844 448.807 190.756 449.306 190.58C449.804 190.404 450.208 190.147 450.516 189.81C450.831 189.473 450.989 189.058 450.989 188.567C450.989 188.347 450.952 188.145 450.879 187.962C450.805 187.771 450.695 187.603 450.549 187.456C450.409 187.309 450.226 187.177 449.999 187.06C449.779 186.935 449.522 186.829 449.229 186.741L445.137 185.531C444.785 185.428 444.403 185.293 443.993 185.124C443.589 184.948 443.204 184.71 442.838 184.409C442.478 184.101 442.181 183.712 441.947 183.243C441.719 182.766 441.606 182.18 441.606 181.483C441.606 180.464 441.862 179.609 442.376 178.92C442.896 178.223 443.593 177.703 444.466 177.358C445.346 177.013 446.321 176.845 447.392 176.852C448.477 176.859 449.445 177.046 450.296 177.413C451.146 177.772 451.858 178.297 452.43 178.986C453.002 179.675 453.405 180.508 453.64 181.483L450.791 181.978C450.673 181.421 450.446 180.948 450.109 180.559C449.779 180.163 449.372 179.862 448.888 179.657C448.411 179.452 447.901 179.342 447.359 179.327C446.831 179.32 446.339 179.4 445.885 179.569C445.437 179.73 445.074 179.965 444.796 180.273C444.524 180.581 444.389 180.94 444.389 181.351C444.389 181.74 444.506 182.059 444.741 182.308C444.975 182.55 445.265 182.744 445.61 182.891C445.962 183.03 446.317 183.148 446.677 183.243L449.515 184.035C449.903 184.138 450.34 184.277 450.824 184.453C451.308 184.629 451.773 184.875 452.221 185.19C452.668 185.505 453.035 185.92 453.321 186.433C453.614 186.946 453.761 187.599 453.761 188.391C453.761 189.212 453.588 189.935 453.244 190.558C452.906 191.174 452.448 191.687 451.869 192.098C451.289 192.509 450.626 192.817 449.878 193.022C449.137 193.227 448.36 193.33 447.546 193.33ZM456.142 193V177.16H458.793V183.826H466.295V177.16H468.935V193H466.295V186.312H458.793V193H456.142ZM197.786 224V217.51L192.396 208.16H195.487L199.128 214.474L202.758 208.16H205.849L200.47 217.51V224H197.786ZM213.203 224.33C211.619 224.33 210.262 223.985 209.133 223.296C208.004 222.599 207.135 221.631 206.526 220.392C205.925 219.153 205.624 217.715 205.624 216.08C205.624 214.445 205.925 213.007 206.526 211.768C207.135 210.529 208.004 209.564 209.133 208.875C210.262 208.178 211.619 207.83 213.203 207.83C214.787 207.83 216.144 208.178 217.273 208.875C218.41 209.564 219.279 210.529 219.88 211.768C220.489 213.007 220.793 214.445 220.793 216.08C220.793 217.715 220.489 219.153 219.88 220.392C219.279 221.631 218.41 222.599 217.273 223.296C216.144 223.985 214.787 224.33 213.203 224.33ZM213.203 221.833C214.266 221.84 215.15 221.606 215.854 221.129C216.565 220.652 217.097 219.981 217.449 219.116C217.808 218.251 217.988 217.239 217.988 216.08C217.988 214.921 217.808 213.917 217.449 213.066C217.097 212.208 216.565 211.541 215.854 211.064C215.15 210.587 214.266 210.342 213.203 210.327C212.14 210.32 211.256 210.554 210.552 211.031C209.848 211.508 209.316 212.179 208.957 213.044C208.605 213.909 208.429 214.921 208.429 216.08C208.429 217.239 208.605 218.247 208.957 219.105C209.309 219.956 209.837 220.619 210.541 221.096C211.252 221.573 212.14 221.818 213.203 221.833ZM229.362 224.33C228.101 224.33 226.99 224.073 226.029 223.56C225.076 223.047 224.328 222.324 223.785 221.393C223.25 220.462 222.982 219.369 222.982 218.115V208.182L225.666 208.16V218.049C225.666 218.643 225.765 219.175 225.963 219.644C226.169 220.113 226.444 220.513 226.788 220.843C227.133 221.166 227.529 221.411 227.976 221.58C228.424 221.749 228.886 221.833 229.362 221.833C229.854 221.833 230.319 221.749 230.759 221.58C231.207 221.404 231.603 221.155 231.947 220.832C232.292 220.502 232.563 220.102 232.761 219.633C232.959 219.164 233.058 218.636 233.058 218.049V208.16H235.742V218.115C235.742 219.369 235.471 220.462 234.928 221.393C234.393 222.324 233.645 223.047 232.684 223.56C231.731 224.073 230.624 224.33 229.362 224.33ZM238.596 212.12V208.16H241.247V212.12H238.596ZM248.117 224L243.123 208.16H245.851L250.031 221.426L254.266 208.16H256.994L252 224H248.117ZM258.646 224V208.16H268.876V210.646H261.297V214.551H267.556V217.037H261.297V221.514H268.876V224H258.646ZM275.92 224V208.16H286.15V210.646H278.571V214.551H284.83V217.037H278.571V221.514H286.15V224H275.92ZM292.353 224L287.359 208.16H290.087L294.267 221.426L298.502 208.16H301.23L296.236 224H292.353ZM302.883 224V208.16H313.113V210.646H305.534V214.551H311.793V217.037H305.534V221.514H313.113V224H302.883ZM315.752 224V208.16H322.297C322.451 208.16 322.649 208.167 322.891 208.182C323.133 208.189 323.357 208.211 323.562 208.248C324.479 208.387 325.234 208.692 325.828 209.161C326.429 209.63 326.873 210.224 327.159 210.943C327.452 211.654 327.599 212.446 327.599 213.319C327.599 214.61 327.273 215.721 326.62 216.652C325.967 217.576 324.966 218.148 323.617 218.368L322.484 218.467H318.403V224H315.752ZM324.849 224L321.725 217.554L324.42 216.96L327.852 224H324.849ZM318.403 215.992H322.187C322.334 215.992 322.499 215.985 322.682 215.97C322.865 215.955 323.034 215.926 323.188 215.882C323.628 215.772 323.973 215.578 324.222 215.299C324.479 215.02 324.658 214.705 324.761 214.353C324.871 214.001 324.926 213.656 324.926 213.319C324.926 212.982 324.871 212.637 324.761 212.285C324.658 211.926 324.479 211.607 324.222 211.328C323.973 211.049 323.628 210.855 323.188 210.745C323.034 210.701 322.865 210.675 322.682 210.668C322.499 210.653 322.334 210.646 322.187 210.646H318.403V215.992ZM338.486 224V210.646H333.36V208.16H346.263V210.646H341.137V224H338.486ZM348.021 224V208.16H354.566C354.72 208.16 354.918 208.167 355.16 208.182C355.402 208.189 355.626 208.211 355.831 208.248C356.748 208.387 357.503 208.692 358.097 209.161C358.699 209.63 359.142 210.224 359.428 210.943C359.722 211.654 359.868 212.446 359.868 213.319C359.868 214.61 359.542 215.721 358.889 216.652C358.237 217.576 357.236 218.148 355.886 218.368L354.753 218.467H350.672V224H348.021ZM357.118 224L353.994 217.554L356.689 216.96L360.121 224H357.118ZM350.672 215.992H354.456C354.603 215.992 354.768 215.985 354.951 215.97C355.135 215.955 355.303 215.926 355.457 215.882C355.897 215.772 356.242 215.578 356.491 215.299C356.748 215.02 356.928 214.705 357.03 214.353C357.14 214.001 357.195 213.656 357.195 213.319C357.195 212.982 357.14 212.637 357.03 212.285C356.928 211.926 356.748 211.607 356.491 211.328C356.242 211.049 355.897 210.855 355.457 210.745C355.303 210.701 355.135 210.675 354.951 210.668C354.768 210.653 354.603 210.646 354.456 210.646H350.672V215.992ZM362.765 224V208.16H365.416V224H362.765ZM368.711 224V208.16H378.941V210.646H371.362V214.551H377.621V217.037H371.362V221.514H378.941V224H368.711ZM381.58 224V208.16H386.629C386.761 208.16 387.021 208.164 387.41 208.171C387.806 208.178 388.187 208.204 388.554 208.248C389.808 208.409 390.868 208.857 391.733 209.59C392.606 210.316 393.266 211.244 393.713 212.373C394.16 213.502 394.384 214.738 394.384 216.08C394.384 217.422 394.16 218.658 393.713 219.787C393.266 220.916 392.606 221.848 391.733 222.581C390.868 223.307 389.808 223.751 388.554 223.912C388.195 223.956 387.817 223.982 387.421 223.989C387.025 223.996 386.761 224 386.629 224H381.58ZM384.275 221.503H386.629C386.849 221.503 387.128 221.496 387.465 221.481C387.81 221.466 388.114 221.433 388.378 221.382C389.126 221.243 389.735 220.909 390.204 220.381C390.673 219.853 391.018 219.211 391.238 218.456C391.465 217.701 391.579 216.909 391.579 216.08C391.579 215.222 391.465 214.415 391.238 213.66C391.011 212.905 390.659 212.27 390.182 211.757C389.713 211.244 389.111 210.917 388.378 210.778C388.114 210.719 387.81 210.686 387.465 210.679C387.128 210.664 386.849 210.657 386.629 210.657H384.275V221.503ZM399.855 219.699C399.855 219.193 399.903 218.705 399.998 218.236C400.101 217.759 400.266 217.319 400.493 216.916C400.691 216.527 400.911 216.219 401.153 215.992C401.395 215.757 401.667 215.526 401.967 215.299C402.268 215.064 402.602 214.753 402.968 214.364C403.269 214.034 403.467 213.708 403.562 213.385C403.658 213.055 403.705 212.703 403.705 212.329C403.705 212.087 403.68 211.86 403.628 211.647C403.577 211.434 403.485 211.251 403.353 211.097C403.148 210.826 402.884 210.635 402.561 210.525C402.239 210.408 401.894 210.349 401.527 210.349C401.227 210.349 400.937 210.389 400.658 210.47C400.387 210.543 400.156 210.661 399.965 210.822C399.745 210.998 399.584 211.214 399.481 211.471C399.379 211.728 399.331 212.01 399.338 212.318H396.544C396.618 211.585 396.816 210.906 397.138 210.283C397.468 209.652 397.901 209.15 398.436 208.776C398.854 208.468 399.324 208.237 399.844 208.083C400.372 207.929 400.9 207.852 401.428 207.852C402.235 207.852 402.994 207.977 403.705 208.226C404.424 208.475 405.022 208.886 405.498 209.458C405.828 209.832 406.078 210.265 406.246 210.756C406.422 211.247 406.51 211.746 406.51 212.252C406.51 213.007 406.345 213.697 406.015 214.32C405.693 214.943 405.282 215.519 404.783 216.047C404.549 216.296 404.325 216.516 404.112 216.707C403.9 216.898 403.702 217.085 403.518 217.268C403.342 217.444 403.196 217.631 403.078 217.829C402.873 218.174 402.752 218.467 402.715 218.709C402.679 218.944 402.66 219.274 402.66 219.699H399.855ZM399.877 224V221.085H402.66V224H399.877Z" fill="white"></path> <rect x="20" y="20" width="67" height="40" rx="20" fill="white" fill-opacity="0.3"></rect> <path d="M33.3778 46V34.48H40.0978V35.904H34.8018V39.528H39.1378V40.952H34.8018V46H33.3778ZM46.2701 46.24C45.1234 46.24 44.1501 45.9867 43.3501 45.48C42.5501 44.9733 41.9394 44.2693 41.5181 43.368C41.1021 42.4667 40.8941 41.424 40.8941 40.24C40.8941 39.056 41.1021 38.0133 41.5181 37.112C41.9394 36.2107 42.5501 35.5067 43.3501 35C44.1501 34.4933 45.1234 34.24 46.2701 34.24C47.4221 34.24 48.3981 34.4933 49.1981 35C49.9981 35.5067 50.6061 36.2107 51.0221 37.112C51.4381 38.0133 51.6461 39.056 51.6461 40.24C51.6461 41.424 51.4381 42.4667 51.0221 43.368C50.6061 44.2693 49.9981 44.9733 49.1981 45.48C48.3981 45.9867 47.4221 46.24 46.2701 46.24ZM46.2701 44.88C47.1287 44.8853 47.8434 44.6933 48.4141 44.304C48.9901 43.9093 49.4194 43.3627 49.7021 42.664C49.9901 41.9653 50.1341 41.1573 50.1341 40.24C50.1341 39.3173 49.9901 38.5093 49.7021 37.816C49.4194 37.1227 48.9901 36.5813 48.4141 36.192C47.8434 35.8027 47.1287 35.6053 46.2701 35.6C45.4114 35.5947 44.6967 35.7867 44.1261 36.176C43.5607 36.5653 43.1341 37.1093 42.8461 37.808C42.5581 38.5067 42.4114 39.3173 42.4061 40.24C42.4007 41.1573 42.5421 41.9627 42.8301 42.656C43.1181 43.3493 43.5474 43.8933 44.1181 44.288C44.6941 44.6773 45.4114 44.8747 46.2701 44.88ZM57.9888 46.24C56.8421 46.24 55.8688 45.9867 55.0688 45.48C54.2688 44.9733 53.6581 44.2693 53.2368 43.368C52.8208 42.4667 52.6128 41.424 52.6128 40.24C52.6128 39.056 52.8208 38.0133 53.2368 37.112C53.6581 36.2107 54.2688 35.5067 55.0688 35C55.8688 34.4933 56.8421 34.24 57.9888 34.24C59.1408 34.24 60.1168 34.4933 60.9168 35C61.7168 35.5067 62.3248 36.2107 62.7408 37.112C63.1568 38.0133 63.3648 39.056 63.3648 40.24C63.3648 41.424 63.1568 42.4667 62.7408 43.368C62.3248 44.2693 61.7168 44.9733 60.9168 45.48C60.1168 45.9867 59.1408 46.24 57.9888 46.24ZM57.9888 44.88C58.8475 44.8853 59.5621 44.6933 60.1328 44.304C60.7088 43.9093 61.1381 43.3627 61.4208 42.664C61.7088 41.9653 61.8528 41.1573 61.8528 40.24C61.8528 39.3173 61.7088 38.5093 61.4208 37.816C61.1381 37.1227 60.7088 36.5813 60.1328 36.192C59.5621 35.8027 58.8475 35.6053 57.9888 35.6C57.1301 35.5947 56.4155 35.7867 55.8448 36.176C55.2795 36.5653 54.8528 37.1093 54.5648 37.808C54.2768 38.5067 54.1301 39.3173 54.1248 40.24C54.1195 41.1573 54.2608 41.9627 54.5488 42.656C54.8368 43.3493 55.2661 43.8933 55.8368 44.288C56.4128 44.6773 57.1301 44.8747 57.9888 44.88ZM64.9716 46V34.48H68.5236C68.6409 34.48 68.8462 34.4827 69.1396 34.488C69.4329 34.4933 69.7129 34.5147 69.9796 34.552C70.8702 34.6693 71.6142 34.9947 72.2116 35.528C72.8142 36.056 73.2676 36.728 73.5716 37.544C73.8756 38.36 74.0276 39.2587 74.0276 40.24C74.0276 41.2213 73.8756 42.12 73.5716 42.936C73.2676 43.752 72.8142 44.4267 72.2116 44.96C71.6142 45.488 70.8702 45.8107 69.9796 45.928C69.7129 45.96 69.4302 45.9813 69.1316 45.992C68.8382 45.9973 68.6356 46 68.5236 46H64.9716ZM66.4356 44.64H68.5236C68.7262 44.64 68.9529 44.6347 69.2036 44.624C69.4542 44.608 69.6729 44.584 69.8596 44.552C70.4889 44.4347 70.9982 44.1707 71.3876 43.76C71.7769 43.3493 72.0622 42.8373 72.2436 42.224C72.4249 41.6107 72.5156 40.9493 72.5156 40.24C72.5156 39.5147 72.4222 38.8453 72.2356 38.232C72.0542 37.6187 71.7689 37.1093 71.3796 36.704C70.9902 36.2987 70.4836 36.04 69.8596 35.928C69.6729 35.8907 69.4516 35.8667 69.1956 35.856C68.9396 35.8453 68.7156 35.84 68.5236 35.84H66.4356V44.64Z" fill="white"></path> <defs> <linearGradient id="paint0_linear_131_63" x1="300" y1="0" x2="300" y2="400" gradientUnits="userSpaceOnUse"> <stop stop-color="#FC8F58"></stop> <stop offset="1" stop-color="#FF5E62"></stop> </linearGradient> </defs> </svg> 