<?xml version="1.0" encoding="UTF-8"?> <svg xmlns="http://www.w3.org/2000/svg" width="600" height="400" viewBox="0 0 600 400" fill="none"> <rect width="600" height="400" rx="20" fill="url(#paint0_linear_131_67)"></rect> <path d="M94.1604 208L89.5294 192.16H92.3124L95.4694 203.6L98.6154 192.182L101.398 192.16L104.555 203.6L107.701 192.16H110.484L105.864 208H103.246L100.001 196.736L96.7784 208H94.1604ZM112.279 208V192.16H114.93V198.826H122.432V192.16H125.072V208H122.432V201.312H114.93V208H112.279ZM127.056 208L132.05 192.16H135.933L140.927 208H138.199L133.667 193.788H134.261L129.784 208H127.056ZM129.839 204.568V202.093H138.155V204.568H129.839ZM145.411 208V194.646H140.285V192.16H153.188V194.646H148.062V208H145.411ZM158.906 208V192.16H161.557V208H158.906ZM170.715 208.33C169.556 208.33 168.511 208.128 167.58 207.725C166.656 207.322 165.893 206.746 165.292 205.998C164.698 205.243 164.32 204.348 164.159 203.314L166.909 202.896C167.143 203.835 167.624 204.561 168.35 205.074C169.083 205.587 169.926 205.844 170.88 205.844C171.444 205.844 171.976 205.756 172.475 205.58C172.973 205.404 173.377 205.147 173.685 204.81C174 204.473 174.158 204.058 174.158 203.567C174.158 203.347 174.121 203.145 174.048 202.962C173.974 202.771 173.864 202.603 173.718 202.456C173.578 202.309 173.395 202.177 173.168 202.06C172.948 201.935 172.691 201.829 172.398 201.741L168.306 200.531C167.954 200.428 167.572 200.293 167.162 200.124C166.758 199.948 166.373 199.71 166.007 199.409C165.647 199.101 165.35 198.712 165.116 198.243C164.888 197.766 164.775 197.18 164.775 196.483C164.775 195.464 165.031 194.609 165.545 193.92C166.065 193.223 166.762 192.703 167.635 192.358C168.515 192.013 169.49 191.845 170.561 191.852C171.646 191.859 172.614 192.046 173.465 192.413C174.315 192.772 175.027 193.297 175.599 193.986C176.171 194.675 176.574 195.508 176.809 196.483L173.96 196.978C173.842 196.421 173.615 195.948 173.278 195.559C172.948 195.163 172.541 194.862 172.057 194.657C171.58 194.452 171.07 194.342 170.528 194.327C170 194.32 169.508 194.4 169.054 194.569C168.606 194.73 168.243 194.965 167.965 195.273C167.693 195.581 167.558 195.94 167.558 196.351C167.558 196.74 167.675 197.059 167.91 197.308C168.144 197.55 168.434 197.744 168.779 197.891C169.131 198.03 169.486 198.148 169.846 198.243L172.684 199.035C173.072 199.138 173.509 199.277 173.993 199.453C174.477 199.629 174.942 199.875 175.39 200.19C175.837 200.505 176.204 200.92 176.49 201.433C176.783 201.946 176.93 202.599 176.93 203.391C176.93 204.212 176.757 204.935 176.413 205.558C176.075 206.174 175.617 206.687 175.038 207.098C174.458 207.509 173.795 207.817 173.047 208.022C172.306 208.227 171.529 208.33 170.715 208.33ZM187.565 208V201.51L182.175 192.16H185.266L188.907 198.474L192.537 192.16H195.628L190.249 201.51V208H187.565ZM202.982 208.33C201.398 208.33 200.041 207.985 198.912 207.296C197.783 206.599 196.914 205.631 196.305 204.392C195.704 203.153 195.403 201.715 195.403 200.08C195.403 198.445 195.704 197.007 196.305 195.768C196.914 194.529 197.783 193.564 198.912 192.875C200.041 192.178 201.398 191.83 202.982 191.83C204.566 191.83 205.923 192.178 207.052 192.875C208.189 193.564 209.058 194.529 209.659 195.768C210.268 197.007 210.572 198.445 210.572 200.08C210.572 201.715 210.268 203.153 209.659 204.392C209.058 205.631 208.189 206.599 207.052 207.296C205.923 207.985 204.566 208.33 202.982 208.33ZM202.982 205.833C204.045 205.84 204.929 205.606 205.633 205.129C206.344 204.652 206.876 203.981 207.228 203.116C207.587 202.251 207.767 201.239 207.767 200.08C207.767 198.921 207.587 197.917 207.228 197.066C206.876 196.208 206.344 195.541 205.633 195.064C204.929 194.587 204.045 194.342 202.982 194.327C201.919 194.32 201.035 194.554 200.331 195.031C199.627 195.508 199.095 196.179 198.736 197.044C198.384 197.909 198.208 198.921 198.208 200.08C198.208 201.239 198.384 202.247 198.736 203.105C199.088 203.956 199.616 204.619 200.32 205.096C201.031 205.573 201.919 205.818 202.982 205.833ZM219.142 208.33C217.88 208.33 216.769 208.073 215.809 207.56C214.855 207.047 214.107 206.324 213.565 205.393C213.029 204.462 212.762 203.369 212.762 202.115V192.182L215.446 192.16V202.049C215.446 202.643 215.545 203.175 215.743 203.644C215.948 204.113 216.223 204.513 216.568 204.843C216.912 205.166 217.308 205.411 217.756 205.58C218.203 205.749 218.665 205.833 219.142 205.833C219.633 205.833 220.099 205.749 220.539 205.58C220.986 205.404 221.382 205.155 221.727 204.832C222.071 204.502 222.343 204.102 222.541 203.633C222.739 203.164 222.838 202.636 222.838 202.049V192.16H225.522V202.115C225.522 203.369 225.25 204.462 224.708 205.393C224.172 206.324 223.424 207.047 222.464 207.56C221.51 208.073 220.403 208.33 219.142 208.33ZM228.596 208V192.16H235.141C235.295 192.16 235.493 192.167 235.735 192.182C235.977 192.189 236.2 192.211 236.406 192.248C237.322 192.387 238.078 192.692 238.672 193.161C239.273 193.63 239.717 194.224 240.003 194.943C240.296 195.654 240.443 196.446 240.443 197.319C240.443 198.61 240.116 199.721 239.464 200.652C238.811 201.576 237.81 202.148 236.461 202.368L235.328 202.467H231.247V208H228.596ZM237.693 208L234.569 201.554L237.264 200.96L240.696 208H237.693ZM231.247 199.992H235.031C235.177 199.992 235.342 199.985 235.526 199.97C235.709 199.955 235.878 199.926 236.032 199.882C236.472 199.772 236.816 199.578 237.066 199.299C237.322 199.02 237.502 198.705 237.605 198.353C237.715 198.001 237.77 197.656 237.77 197.319C237.77 196.982 237.715 196.637 237.605 196.285C237.502 195.926 237.322 195.607 237.066 195.328C236.816 195.049 236.472 194.855 236.032 194.745C235.878 194.701 235.709 194.675 235.526 194.668C235.342 194.653 235.177 194.646 235.031 194.646H231.247V199.992ZM247.523 208V192.16H257.06V194.811H250.174V198.76H255.74V201.4H250.174V208H247.523ZM265.738 208.33C264.154 208.33 262.797 207.985 261.668 207.296C260.539 206.599 259.67 205.631 259.061 204.392C258.46 203.153 258.159 201.715 258.159 200.08C258.159 198.445 258.46 197.007 259.061 195.768C259.67 194.529 260.539 193.564 261.668 192.875C262.797 192.178 264.154 191.83 265.738 191.83C267.322 191.83 268.679 192.178 269.808 192.875C270.945 193.564 271.814 194.529 272.415 195.768C273.024 197.007 273.328 198.445 273.328 200.08C273.328 201.715 273.024 203.153 272.415 204.392C271.814 205.631 270.945 206.599 269.808 207.296C268.679 207.985 267.322 208.33 265.738 208.33ZM265.738 205.833C266.801 205.84 267.685 205.606 268.389 205.129C269.1 204.652 269.632 203.981 269.984 203.116C270.343 202.251 270.523 201.239 270.523 200.08C270.523 198.921 270.343 197.917 269.984 197.066C269.632 196.208 269.1 195.541 268.389 195.064C267.685 194.587 266.801 194.342 265.738 194.327C264.675 194.32 263.791 194.554 263.087 195.031C262.383 195.508 261.851 196.179 261.492 197.044C261.14 197.909 260.964 198.921 260.964 200.08C260.964 201.239 261.14 202.247 261.492 203.105C261.844 203.956 262.372 204.619 263.076 205.096C263.787 205.573 264.675 205.818 265.738 205.833ZM282.217 208.33C280.633 208.33 279.276 207.985 278.147 207.296C277.017 206.599 276.148 205.631 275.54 204.392C274.938 203.153 274.638 201.715 274.638 200.08C274.638 198.445 274.938 197.007 275.54 195.768C276.148 194.529 277.017 193.564 278.147 192.875C279.276 192.178 280.633 191.83 282.217 191.83C283.801 191.83 285.157 192.178 286.287 192.875C287.423 193.564 288.292 194.529 288.894 195.768C289.502 197.007 289.807 198.445 289.807 200.08C289.807 201.715 289.502 203.153 288.894 204.392C288.292 205.631 287.423 206.599 286.287 207.296C285.157 207.985 283.801 208.33 282.217 208.33ZM282.217 205.833C283.28 205.84 284.164 205.606 284.868 205.129C285.579 204.652 286.111 203.981 286.463 203.116C286.822 202.251 287.002 201.239 287.002 200.08C287.002 198.921 286.822 197.917 286.463 197.066C286.111 196.208 285.579 195.541 284.868 195.064C284.164 194.587 283.28 194.342 282.217 194.327C281.153 194.32 280.27 194.554 279.566 195.031C278.862 195.508 278.33 196.179 277.971 197.044C277.619 197.909 277.443 198.921 277.443 200.08C277.443 201.239 277.619 202.247 277.971 203.105C278.323 203.956 278.851 204.619 279.555 205.096C280.266 205.573 281.153 205.818 282.217 205.833ZM291.996 208V192.16H297.045C297.177 192.16 297.437 192.164 297.826 192.171C298.222 192.178 298.603 192.204 298.97 192.248C300.224 192.409 301.284 192.857 302.149 193.59C303.022 194.316 303.682 195.244 304.129 196.373C304.576 197.502 304.8 198.738 304.8 200.08C304.8 201.422 304.576 202.658 304.129 203.787C303.682 204.916 303.022 205.848 302.149 206.581C301.284 207.307 300.224 207.751 298.97 207.912C298.611 207.956 298.233 207.982 297.837 207.989C297.441 207.996 297.177 208 297.045 208H291.996ZM294.691 205.503H297.045C297.265 205.503 297.544 205.496 297.881 205.481C298.226 205.466 298.53 205.433 298.794 205.382C299.542 205.243 300.151 204.909 300.62 204.381C301.089 203.853 301.434 203.211 301.654 202.456C301.881 201.701 301.995 200.909 301.995 200.08C301.995 199.222 301.881 198.415 301.654 197.66C301.427 196.905 301.075 196.27 300.598 195.757C300.129 195.244 299.527 194.917 298.794 194.778C298.53 194.719 298.226 194.686 297.881 194.679C297.544 194.664 297.265 194.657 297.045 194.657H294.691V205.503ZM318.339 208.33C317.312 208.33 316.348 208.15 315.446 207.791C314.551 207.424 313.763 206.889 313.081 206.185C312.406 205.481 311.878 204.619 311.497 203.6C311.115 202.573 310.925 201.4 310.925 200.08C310.925 198.349 311.247 196.872 311.893 195.647C312.538 194.415 313.422 193.473 314.544 192.82C315.666 192.16 316.931 191.83 318.339 191.83C320.289 191.83 321.833 192.285 322.97 193.194C324.114 194.096 324.887 195.365 325.291 197L322.585 197.429C322.284 196.49 321.793 195.742 321.111 195.185C320.429 194.62 319.56 194.338 318.504 194.338C317.44 194.323 316.557 194.554 315.853 195.031C315.149 195.508 314.617 196.179 314.258 197.044C313.906 197.909 313.73 198.921 313.73 200.08C313.73 201.239 313.906 202.247 314.258 203.105C314.61 203.956 315.138 204.619 315.842 205.096C316.553 205.573 317.44 205.818 318.504 205.833C319.303 205.84 320.003 205.697 320.605 205.404C321.206 205.103 321.697 204.652 322.079 204.051C322.46 203.442 322.717 202.683 322.849 201.774H320.055V199.695H325.665C325.679 199.812 325.69 199.985 325.698 200.212C325.705 200.439 325.709 200.575 325.709 200.619C325.709 202.115 325.412 203.446 324.818 204.612C324.231 205.771 323.388 206.68 322.288 207.34C321.188 208 319.871 208.33 318.339 208.33ZM334.298 208.33C333.037 208.33 331.926 208.073 330.965 207.56C330.012 207.047 329.264 206.324 328.721 205.393C328.186 204.462 327.918 203.369 327.918 202.115V192.182L330.602 192.16V202.049C330.602 202.643 330.701 203.175 330.899 203.644C331.104 204.113 331.379 204.513 331.724 204.843C332.069 205.166 332.465 205.411 332.912 205.58C333.359 205.749 333.821 205.833 334.298 205.833C334.789 205.833 335.255 205.749 335.695 205.58C336.142 205.404 336.538 205.155 336.883 204.832C337.228 204.502 337.499 204.102 337.697 203.633C337.895 203.164 337.994 202.636 337.994 202.049V192.16H340.678V202.115C340.678 203.369 340.407 204.462 339.864 205.393C339.329 206.324 338.581 207.047 337.62 207.56C336.667 208.073 335.559 208.33 334.298 208.33ZM343.972 208V192.16H346.623V208H343.972ZM350.138 208V192.16H352.789V205.514H359.785V208H350.138ZM363.263 208V194.646H358.137V192.16H371.04V194.646H365.914V208H363.263ZM377.315 208V201.51L371.925 192.16H375.016L378.657 198.474L382.287 192.16H385.378L379.999 201.51V208H377.315ZM390.437 208V192.16H396.982C397.136 192.16 397.334 192.167 397.576 192.182C397.818 192.189 398.042 192.211 398.247 192.248C399.164 192.387 399.919 192.692 400.513 193.161C401.115 193.63 401.558 194.224 401.844 194.943C402.138 195.654 402.284 196.446 402.284 197.319C402.284 198.184 402.138 198.976 401.844 199.695C401.551 200.406 401.104 200.997 400.502 201.466C399.908 201.935 399.157 202.24 398.247 202.379C398.042 202.408 397.815 202.43 397.565 202.445C397.323 202.46 397.129 202.467 396.982 202.467H393.088V208H390.437ZM393.088 199.992H396.872C397.019 199.992 397.184 199.985 397.367 199.97C397.551 199.955 397.719 199.926 397.873 199.882C398.313 199.772 398.658 199.578 398.907 199.299C399.164 199.02 399.344 198.705 399.446 198.353C399.556 198.001 399.611 197.656 399.611 197.319C399.611 196.982 399.556 196.637 399.446 196.285C399.344 195.926 399.164 195.607 398.907 195.328C398.658 195.049 398.313 194.855 397.873 194.745C397.719 194.701 397.551 194.675 397.367 194.668C397.184 194.653 397.019 194.646 396.872 194.646H393.088V199.992ZM404.708 208V192.16H407.359V205.514H414.355V208H404.708ZM416.219 208V192.16H426.449V194.646H418.87V198.551H425.129V201.037H418.87V205.514H426.449V208H416.219ZM427.988 208L432.982 192.16H436.865L441.859 208H439.131L434.599 193.788H435.193L430.716 208H427.988ZM430.771 204.568V202.093H439.087V204.568H430.771ZM449.281 208.33C448.122 208.33 447.077 208.128 446.146 207.725C445.222 207.322 444.459 206.746 443.858 205.998C443.264 205.243 442.886 204.348 442.725 203.314L445.475 202.896C445.71 203.835 446.19 204.561 446.916 205.074C447.649 205.587 448.493 205.844 449.446 205.844C450.011 205.844 450.542 205.756 451.041 205.58C451.54 205.404 451.943 205.147 452.251 204.81C452.566 204.473 452.724 204.058 452.724 203.567C452.724 203.347 452.687 203.145 452.614 202.962C452.541 202.771 452.431 202.603 452.284 202.456C452.145 202.309 451.961 202.177 451.734 202.06C451.514 201.935 451.257 201.829 450.964 201.741L446.872 200.531C446.52 200.428 446.139 200.293 445.728 200.124C445.325 199.948 444.94 199.71 444.573 199.409C444.214 199.101 443.917 198.712 443.682 198.243C443.455 197.766 443.341 197.18 443.341 196.483C443.341 195.464 443.598 194.609 444.111 193.92C444.632 193.223 445.328 192.703 446.201 192.358C447.081 192.013 448.056 191.845 449.127 191.852C450.212 191.859 451.18 192.046 452.031 192.413C452.882 192.772 453.593 193.297 454.165 193.986C454.737 194.675 455.14 195.508 455.375 196.483L452.526 196.978C452.409 196.421 452.181 195.948 451.844 195.559C451.514 195.163 451.107 194.862 450.623 194.657C450.146 194.452 449.637 194.342 449.094 194.327C448.566 194.32 448.075 194.4 447.62 194.569C447.173 194.73 446.81 194.965 446.531 195.273C446.26 195.581 446.124 195.94 446.124 196.351C446.124 196.74 446.241 197.059 446.476 197.308C446.711 197.55 447 197.744 447.345 197.891C447.697 198.03 448.053 198.148 448.412 198.243L451.25 199.035C451.639 199.138 452.075 199.277 452.559 199.453C453.043 199.629 453.509 199.875 453.956 200.19C454.403 200.505 454.77 200.92 455.056 201.433C455.349 201.946 455.496 202.599 455.496 203.391C455.496 204.212 455.324 204.935 454.979 205.558C454.642 206.174 454.183 206.687 453.604 207.098C453.025 207.509 452.361 207.817 451.613 208.022C450.872 208.227 450.095 208.33 449.281 208.33ZM464.257 208.33C462.996 208.33 461.885 208.073 460.924 207.56C459.971 207.047 459.223 206.324 458.68 205.393C458.145 204.462 457.877 203.369 457.877 202.115V192.182L460.561 192.16V202.049C460.561 202.643 460.66 203.175 460.858 203.644C461.063 204.113 461.338 204.513 461.683 204.843C462.028 205.166 462.424 205.411 462.871 205.58C463.318 205.749 463.78 205.833 464.257 205.833C464.748 205.833 465.214 205.749 465.654 205.58C466.101 205.404 466.497 205.155 466.842 204.832C467.187 204.502 467.458 204.102 467.656 203.633C467.854 203.164 467.953 202.636 467.953 202.049V192.16H470.637V202.115C470.637 203.369 470.366 204.462 469.823 205.393C469.288 206.324 468.54 207.047 467.579 207.56C466.626 208.073 465.518 208.33 464.257 208.33ZM473.711 208V192.16H480.256C480.41 192.16 480.608 192.167 480.85 192.182C481.092 192.189 481.316 192.211 481.521 192.248C482.438 192.387 483.193 192.692 483.787 193.161C484.388 193.63 484.832 194.224 485.118 194.943C485.411 195.654 485.558 196.446 485.558 197.319C485.558 198.61 485.232 199.721 484.579 200.652C483.926 201.576 482.925 202.148 481.576 202.368L480.443 202.467H476.362V208H473.711ZM482.808 208L479.684 201.554L482.379 200.96L485.811 208H482.808ZM476.362 199.992H480.146C480.293 199.992 480.458 199.985 480.641 199.97C480.824 199.955 480.993 199.926 481.147 199.882C481.587 199.772 481.932 199.578 482.181 199.299C482.438 199.02 482.617 198.705 482.72 198.353C482.83 198.001 482.885 197.656 482.885 197.319C482.885 196.982 482.83 196.637 482.72 196.285C482.617 195.926 482.438 195.607 482.181 195.328C481.932 195.049 481.587 194.855 481.147 194.745C480.993 194.701 480.824 194.675 480.641 194.668C480.458 194.653 480.293 194.646 480.146 194.646H476.362V199.992ZM488.234 208V192.16H498.464V194.646H490.885V198.551H497.144V201.037H490.885V205.514H498.464V208H488.234ZM503.974 203.699C503.974 203.193 504.022 202.705 504.117 202.236C504.22 201.759 504.385 201.319 504.612 200.916C504.81 200.527 505.03 200.219 505.272 199.992C505.514 199.757 505.786 199.526 506.086 199.299C506.387 199.064 506.721 198.753 507.087 198.364C507.388 198.034 507.586 197.708 507.681 197.385C507.777 197.055 507.824 196.703 507.824 196.329C507.824 196.087 507.799 195.86 507.747 195.647C507.696 195.434 507.604 195.251 507.472 195.097C507.267 194.826 507.003 194.635 506.68 194.525C506.358 194.408 506.013 194.349 505.646 194.349C505.346 194.349 505.056 194.389 504.777 194.47C504.506 194.543 504.275 194.661 504.084 194.822C503.864 194.998 503.703 195.214 503.6 195.471C503.498 195.728 503.45 196.01 503.457 196.318H500.663C500.737 195.585 500.935 194.906 501.257 194.283C501.587 193.652 502.02 193.15 502.555 192.776C502.973 192.468 503.443 192.237 503.963 192.083C504.491 191.929 505.019 191.852 505.547 191.852C506.354 191.852 507.113 191.977 507.824 192.226C508.543 192.475 509.141 192.886 509.617 193.458C509.947 193.832 510.197 194.265 510.365 194.756C510.541 195.247 510.629 195.746 510.629 196.252C510.629 197.007 510.464 197.697 510.134 198.32C509.812 198.943 509.401 199.519 508.902 200.047C508.668 200.296 508.444 200.516 508.231 200.707C508.019 200.898 507.821 201.085 507.637 201.268C507.461 201.444 507.315 201.631 507.197 201.829C506.992 202.174 506.871 202.467 506.834 202.709C506.798 202.944 506.779 203.274 506.779 203.699H503.974ZM503.996 208V205.085H506.779V208H503.996Z" fill="white"></path> <rect x="20" y="20" width="67" height="40" rx="20" fill="white" fill-opacity="0.3"></rect> <path d="M33.3778 46V34.48H40.0978V35.904H34.8018V39.528H39.1378V40.952H34.8018V46H33.3778ZM46.2701 46.24C45.1234 46.24 44.1501 45.9867 43.3501 45.48C42.5501 44.9733 41.9394 44.2693 41.5181 43.368C41.1021 42.4667 40.8941 41.424 40.8941 40.24C40.8941 39.056 41.1021 38.0133 41.5181 37.112C41.9394 36.2107 42.5501 35.5067 43.3501 35C44.1501 34.4933 45.1234 34.24 46.2701 34.24C47.4221 34.24 48.3981 34.4933 49.1981 35C49.9981 35.5067 50.6061 36.2107 51.0221 37.112C51.4381 38.0133 51.6461 39.056 51.6461 40.24C51.6461 41.424 51.4381 42.4667 51.0221 43.368C50.6061 44.2693 49.9981 44.9733 49.1981 45.48C48.3981 45.9867 47.4221 46.24 46.2701 46.24ZM46.2701 44.88C47.1287 44.8853 47.8434 44.6933 48.4141 44.304C48.9901 43.9093 49.4194 43.3627 49.7021 42.664C49.9901 41.9653 50.1341 41.1573 50.1341 40.24C50.1341 39.3173 49.9901 38.5093 49.7021 37.816C49.4194 37.1227 48.9901 36.5813 48.4141 36.192C47.8434 35.8027 47.1287 35.6053 46.2701 35.6C45.4114 35.5947 44.6967 35.7867 44.1261 36.176C43.5607 36.5653 43.1341 37.1093 42.8461 37.808C42.5581 38.5067 42.4114 39.3173 42.4061 40.24C42.4007 41.1573 42.5421 41.9627 42.8301 42.656C43.1181 43.3493 43.5474 43.8933 44.1181 44.288C44.6941 44.6773 45.4114 44.8747 46.2701 44.88ZM57.9888 46.24C56.8421 46.24 55.8688 45.9867 55.0688 45.48C54.2688 44.9733 53.6581 44.2693 53.2368 43.368C52.8208 42.4667 52.6128 41.424 52.6128 40.24C52.6128 39.056 52.8208 38.0133 53.2368 37.112C53.6581 36.2107 54.2688 35.5067 55.0688 35C55.8688 34.4933 56.8421 34.24 57.9888 34.24C59.1408 34.24 60.1168 34.4933 60.9168 35C61.7168 35.5067 62.3248 36.2107 62.7408 37.112C63.1568 38.0133 63.3648 39.056 63.3648 40.24C63.3648 41.424 63.1568 42.4667 62.7408 43.368C62.3248 44.2693 61.7168 44.9733 60.9168 45.48C60.1168 45.9867 59.1408 46.24 57.9888 46.24ZM57.9888 44.88C58.8475 44.8853 59.5621 44.6933 60.1328 44.304C60.7088 43.9093 61.1381 43.3627 61.4208 42.664C61.7088 41.9653 61.8528 41.1573 61.8528 40.24C61.8528 39.3173 61.7088 38.5093 61.4208 37.816C61.1381 37.1227 60.7088 36.5813 60.1328 36.192C59.5621 35.8027 58.8475 35.6053 57.9888 35.6C57.1301 35.5947 56.4155 35.7867 55.8448 36.176C55.2795 36.5653 54.8528 37.1093 54.5648 37.808C54.2768 38.5067 54.1301 39.3173 54.1248 40.24C54.1195 41.1573 54.2608 41.9627 54.5488 42.656C54.8368 43.3493 55.2661 43.8933 55.8368 44.288C56.4128 44.6773 57.1301 44.8747 57.9888 44.88ZM64.9716 46V34.48H68.5236C68.6409 34.48 68.8462 34.4827 69.1396 34.488C69.4329 34.4933 69.7129 34.5147 69.9796 34.552C70.8702 34.6693 71.6142 34.9947 72.2116 35.528C72.8142 36.056 73.2676 36.728 73.5716 37.544C73.8756 38.36 74.0276 39.2587 74.0276 40.24C74.0276 41.2213 73.8756 42.12 73.5716 42.936C73.2676 43.752 72.8142 44.4267 72.2116 44.96C71.6142 45.488 70.8702 45.8107 69.9796 45.928C69.7129 45.96 69.4302 45.9813 69.1316 45.992C68.8382 45.9973 68.6356 46 68.5236 46H64.9716ZM66.4356 44.64H68.5236C68.7262 44.64 68.9529 44.6347 69.2036 44.624C69.4542 44.608 69.6729 44.584 69.8596 44.552C70.4889 44.4347 70.9982 44.1707 71.3876 43.76C71.7769 43.3493 72.0622 42.8373 72.2436 42.224C72.4249 41.6107 72.5156 40.9493 72.5156 40.24C72.5156 39.5147 72.4222 38.8453 72.2356 38.232C72.0542 37.6187 71.7689 37.1093 71.3796 36.704C70.9902 36.2987 70.4836 36.04 69.8596 35.928C69.6729 35.8907 69.4516 35.8667 69.1956 35.856C68.9396 35.8453 68.7156 35.84 68.5236 35.84H66.4356V44.64Z" fill="white"></path> <defs> <linearGradient id="paint0_linear_131_67" x1="300" y1="0" x2="300" y2="400" gradientUnits="userSpaceOnUse"> <stop stop-color="#FC8F58"></stop> <stop offset="1" stop-color="#FF5E62"></stop> </linearGradient> </defs> </svg> 