<?xml version="1.0" encoding="UTF-8"?> <svg xmlns="http://www.w3.org/2000/svg" width="600" height="400" viewBox="0 0 600 400" fill="none"> <rect width="600" height="400" rx="20" fill="url(#paint0_linear_160_143)"></rect> <path d="M140.067 162L135.436 146.16H138.219L141.376 157.6L144.522 146.182L147.305 146.16L150.462 157.6L153.608 146.16H156.391L151.771 162H149.153L145.908 150.736L142.685 162H140.067ZM158.186 162V146.16H160.837V152.826H168.339V146.16H170.979V162H168.339V155.312H160.837V162H158.186ZM172.962 162L177.956 146.16H181.839L186.833 162H184.105L179.573 147.788H180.167L175.69 162H172.962ZM175.745 158.568V156.093H184.061V158.568H175.745ZM191.318 162V148.646H186.192V146.16H199.095V148.646H193.969V162H191.318ZM204.592 162V146.16H209.641C209.773 146.16 210.033 146.164 210.422 146.171C210.818 146.178 211.199 146.204 211.566 146.248C212.82 146.409 213.879 146.857 214.745 147.59C215.617 148.316 216.277 149.244 216.725 150.373C217.172 151.502 217.396 152.738 217.396 154.08C217.396 155.422 217.172 156.658 216.725 157.787C216.277 158.916 215.617 159.848 214.745 160.581C213.879 161.307 212.82 161.751 211.566 161.912C211.206 161.956 210.829 161.982 210.433 161.989C210.037 161.996 209.773 162 209.641 162H204.592ZM207.287 159.503H209.641C209.861 159.503 210.139 159.496 210.477 159.481C210.821 159.466 211.126 159.433 211.39 159.382C212.138 159.243 212.746 158.909 213.216 158.381C213.685 157.853 214.03 157.211 214.25 156.456C214.477 155.701 214.591 154.909 214.591 154.08C214.591 153.222 214.477 152.415 214.25 151.66C214.022 150.905 213.67 150.27 213.194 149.757C212.724 149.244 212.123 148.917 211.39 148.778C211.126 148.719 210.821 148.686 210.477 148.679C210.139 148.664 209.861 148.657 209.641 148.657H207.287V159.503ZM226.695 162.33C225.111 162.33 223.754 161.985 222.625 161.296C221.496 160.599 220.627 159.631 220.018 158.392C219.417 157.153 219.116 155.715 219.116 154.08C219.116 152.445 219.417 151.007 220.018 149.768C220.627 148.529 221.496 147.564 222.625 146.875C223.754 146.178 225.111 145.83 226.695 145.83C228.279 145.83 229.636 146.178 230.765 146.875C231.902 147.564 232.771 148.529 233.372 149.768C233.981 151.007 234.285 152.445 234.285 154.08C234.285 155.715 233.981 157.153 233.372 158.392C232.771 159.631 231.902 160.599 230.765 161.296C229.636 161.985 228.279 162.33 226.695 162.33ZM226.695 159.833C227.758 159.84 228.642 159.606 229.346 159.129C230.057 158.652 230.589 157.981 230.941 157.116C231.3 156.251 231.48 155.239 231.48 154.08C231.48 152.921 231.3 151.917 230.941 151.066C230.589 150.208 230.057 149.541 229.346 149.064C228.642 148.587 227.758 148.342 226.695 148.327C225.632 148.32 224.748 148.554 224.044 149.031C223.34 149.508 222.808 150.179 222.449 151.044C222.097 151.909 221.921 152.921 221.921 154.08C221.921 155.239 222.097 156.247 222.449 157.105C222.801 157.956 223.329 158.619 224.033 159.096C224.744 159.573 225.632 159.818 226.695 159.833ZM244.729 162V155.51L239.339 146.16H242.43L246.071 152.474L249.701 146.16H252.792L247.413 155.51V162H244.729ZM260.146 162.33C258.562 162.33 257.206 161.985 256.076 161.296C254.947 160.599 254.078 159.631 253.469 158.392C252.868 157.153 252.567 155.715 252.567 154.08C252.567 152.445 252.868 151.007 253.469 149.768C254.078 148.529 254.947 147.564 256.076 146.875C257.206 146.178 258.562 145.83 260.146 145.83C261.73 145.83 263.087 146.178 264.216 146.875C265.353 147.564 266.222 148.529 266.823 149.768C267.432 151.007 267.736 152.445 267.736 154.08C267.736 155.715 267.432 157.153 266.823 158.392C266.222 159.631 265.353 160.599 264.216 161.296C263.087 161.985 261.73 162.33 260.146 162.33ZM260.146 159.833C261.21 159.84 262.093 159.606 262.797 159.129C263.509 158.652 264.04 157.981 264.392 157.116C264.752 156.251 264.931 155.239 264.931 154.08C264.931 152.921 264.752 151.917 264.392 151.066C264.04 150.208 263.509 149.541 262.797 149.064C262.093 148.587 261.21 148.342 260.146 148.327C259.083 148.32 258.199 148.554 257.495 149.031C256.791 149.508 256.26 150.179 255.9 151.044C255.548 151.909 255.372 152.921 255.372 154.08C255.372 155.239 255.548 156.247 255.9 157.105C256.252 157.956 256.78 158.619 257.484 159.096C258.196 159.573 259.083 159.818 260.146 159.833ZM276.306 162.33C275.044 162.33 273.933 162.073 272.973 161.56C272.019 161.047 271.271 160.324 270.729 159.393C270.193 158.462 269.926 157.369 269.926 156.115V146.182L272.61 146.16V156.049C272.61 156.643 272.709 157.175 272.907 157.644C273.112 158.113 273.387 158.513 273.732 158.843C274.076 159.166 274.472 159.411 274.92 159.58C275.367 159.749 275.829 159.833 276.306 159.833C276.797 159.833 277.263 159.749 277.703 159.58C278.15 159.404 278.546 159.155 278.891 158.832C279.235 158.502 279.507 158.102 279.705 157.633C279.903 157.164 280.002 156.636 280.002 156.049V146.16H282.686V156.115C282.686 157.369 282.414 158.462 281.872 159.393C281.336 160.324 280.588 161.047 279.628 161.56C278.674 162.073 277.567 162.33 276.306 162.33ZM293.97 162V148.646H288.844V146.16H301.747V148.646H296.621V162H293.97ZM303.506 162V146.16H306.157V152.826H313.659V146.16H316.299V162H313.659V155.312H306.157V162H303.506ZM319.603 162V146.16H322.254V162H319.603ZM325.549 162V146.16H328.233L335.581 157.325V146.16H338.265V162H335.581L328.233 150.835V162H325.549ZM341.34 162V146.16H343.991V153.508L350.316 146.16H353.572L346.763 153.926L354.034 162H350.668L343.991 154.608V162H341.34ZM366.258 162.33C364.674 162.33 363.317 161.985 362.188 161.296C361.058 160.599 360.189 159.631 359.581 158.392C358.979 157.153 358.679 155.715 358.679 154.08C358.679 152.445 358.979 151.007 359.581 149.768C360.189 148.529 361.058 147.564 362.188 146.875C363.317 146.178 364.674 145.83 366.258 145.83C367.842 145.83 369.198 146.178 370.328 146.875C371.464 147.564 372.333 148.529 372.935 149.768C373.543 151.007 373.848 152.445 373.848 154.08C373.848 155.715 373.543 157.153 372.935 158.392C372.333 159.631 371.464 160.599 370.328 161.296C369.198 161.985 367.842 162.33 366.258 162.33ZM366.258 159.833C367.321 159.84 368.205 159.606 368.909 159.129C369.62 158.652 370.152 157.981 370.504 157.116C370.863 156.251 371.043 155.239 371.043 154.08C371.043 152.921 370.863 151.917 370.504 151.066C370.152 150.208 369.62 149.541 368.909 149.064C368.205 148.587 367.321 148.342 366.258 148.327C365.194 148.32 364.311 148.554 363.607 149.031C362.903 149.508 362.371 150.179 362.012 151.044C361.66 151.909 361.484 152.921 361.484 154.08C361.484 155.239 361.66 156.247 362.012 157.105C362.364 157.956 362.892 158.619 363.596 159.096C364.307 159.573 365.194 159.818 366.258 159.833ZM376.037 162V146.16H385.574V148.811H378.688V152.76H384.254V155.4H378.688V162H376.037ZM391.957 162V146.16H397.006C397.138 146.16 397.398 146.164 397.787 146.171C398.183 146.178 398.564 146.204 398.931 146.248C400.185 146.409 401.245 146.857 402.11 147.59C402.983 148.316 403.643 149.244 404.09 150.373C404.537 151.502 404.761 152.738 404.761 154.08C404.761 155.422 404.537 156.658 404.09 157.787C403.643 158.916 402.983 159.848 402.11 160.581C401.245 161.307 400.185 161.751 398.931 161.912C398.572 161.956 398.194 161.982 397.798 161.989C397.402 161.996 397.138 162 397.006 162H391.957ZM394.652 159.503H397.006C397.226 159.503 397.505 159.496 397.842 159.481C398.187 159.466 398.491 159.433 398.755 159.382C399.503 159.243 400.112 158.909 400.581 158.381C401.05 157.853 401.395 157.211 401.615 156.456C401.842 155.701 401.956 154.909 401.956 154.08C401.956 153.222 401.842 152.415 401.615 151.66C401.388 150.905 401.036 150.27 400.559 149.757C400.09 149.244 399.488 148.917 398.755 148.778C398.491 148.719 398.187 148.686 397.842 148.679C397.505 148.664 397.226 148.657 397.006 148.657H394.652V159.503ZM407.581 162V146.16H410.232V162H407.581ZM413.527 162V146.16H423.757V148.646H416.178V152.551H422.437V155.037H416.178V159.514H423.757V162H413.527ZM430.202 162V148.646H425.076V146.16H437.979V148.646H432.853V162H430.202ZM445.601 162.33C444.443 162.33 443.398 162.128 442.466 161.725C441.542 161.322 440.78 160.746 440.178 159.998C439.584 159.243 439.207 158.348 439.045 157.314L441.795 156.896C442.03 157.835 442.51 158.561 443.236 159.074C443.97 159.587 444.813 159.844 445.766 159.844C446.331 159.844 446.863 159.756 447.361 159.58C447.86 159.404 448.263 159.147 448.571 158.81C448.887 158.473 449.044 158.058 449.044 157.567C449.044 157.347 449.008 157.145 448.934 156.962C448.861 156.771 448.751 156.603 448.604 156.456C448.465 156.309 448.282 156.177 448.054 156.06C447.834 155.935 447.578 155.829 447.284 155.741L443.192 154.531C442.84 154.428 442.459 154.293 442.048 154.124C441.645 153.948 441.26 153.71 440.893 153.409C440.534 153.101 440.237 152.712 440.002 152.243C439.775 151.766 439.661 151.18 439.661 150.483C439.661 149.464 439.918 148.609 440.431 147.92C440.952 147.223 441.649 146.703 442.521 146.358C443.401 146.013 444.377 145.845 445.447 145.852C446.533 145.859 447.501 146.046 448.351 146.413C449.202 146.772 449.913 147.297 450.485 147.986C451.057 148.675 451.461 149.508 451.695 150.483L448.846 150.978C448.729 150.421 448.502 149.948 448.164 149.559C447.834 149.163 447.427 148.862 446.943 148.657C446.467 148.452 445.957 148.342 445.414 148.327C444.886 148.32 444.395 148.4 443.94 148.569C443.493 148.73 443.13 148.965 442.851 149.273C442.58 149.581 442.444 149.94 442.444 150.351C442.444 150.74 442.562 151.059 442.796 151.308C443.031 151.55 443.321 151.744 443.665 151.891C444.017 152.03 444.373 152.148 444.732 152.243L447.57 153.035C447.959 153.138 448.395 153.277 448.879 153.453C449.363 153.629 449.829 153.875 450.276 154.19C450.724 154.505 451.09 154.92 451.376 155.433C451.67 155.946 451.816 156.599 451.816 157.391C451.816 158.212 451.644 158.935 451.299 159.558C450.962 160.174 450.504 160.687 449.924 161.098C449.345 161.509 448.681 161.817 447.933 162.022C447.193 162.227 446.415 162.33 445.601 162.33ZM457.068 157.699C457.068 157.193 457.116 156.705 457.211 156.236C457.314 155.759 457.479 155.319 457.706 154.916C457.904 154.527 458.124 154.219 458.366 153.992C458.608 153.757 458.88 153.526 459.18 153.299C459.481 153.064 459.815 152.753 460.181 152.364C460.482 152.034 460.68 151.708 460.775 151.385C460.871 151.055 460.918 150.703 460.918 150.329C460.918 150.087 460.893 149.86 460.841 149.647C460.79 149.434 460.698 149.251 460.566 149.097C460.361 148.826 460.097 148.635 459.774 148.525C459.452 148.408 459.107 148.349 458.74 148.349C458.44 148.349 458.15 148.389 457.871 148.47C457.6 148.543 457.369 148.661 457.178 148.822C456.958 148.998 456.797 149.214 456.694 149.471C456.592 149.728 456.544 150.01 456.551 150.318H453.757C453.831 149.585 454.029 148.906 454.351 148.283C454.681 147.652 455.114 147.15 455.649 146.776C456.067 146.468 456.537 146.237 457.057 146.083C457.585 145.929 458.113 145.852 458.641 145.852C459.448 145.852 460.207 145.977 460.918 146.226C461.637 146.475 462.235 146.886 462.711 147.458C463.041 147.832 463.291 148.265 463.459 148.756C463.635 149.247 463.723 149.746 463.723 150.252C463.723 151.007 463.558 151.697 463.228 152.32C462.906 152.943 462.495 153.519 461.996 154.047C461.762 154.296 461.538 154.516 461.325 154.707C461.113 154.898 460.915 155.085 460.731 155.268C460.555 155.444 460.409 155.631 460.291 155.829C460.086 156.174 459.965 156.467 459.928 156.709C459.892 156.944 459.873 157.274 459.873 157.699H457.068ZM457.09 162V159.085H459.873V162H457.09ZM52.3244 193L47.6934 177.16H50.4764L53.6334 188.6L56.7794 177.182L59.5624 177.16L62.7194 188.6L65.8654 177.16H68.6484L64.0284 193H61.4104L58.1654 181.736L54.9424 193H52.3244ZM76.7126 193.33C75.1286 193.33 73.772 192.985 72.6426 192.296C71.5133 191.599 70.6443 190.631 70.0356 189.392C69.4343 188.153 69.1336 186.715 69.1336 185.08C69.1336 183.445 69.4343 182.007 70.0356 180.768C70.6443 179.529 71.5133 178.564 72.6426 177.875C73.772 177.178 75.1286 176.83 76.7126 176.83C78.2966 176.83 79.6533 177.178 80.7826 177.875C81.9193 178.564 82.7883 179.529 83.3896 180.768C83.9983 182.007 84.3026 183.445 84.3026 185.08C84.3026 186.715 83.9983 188.153 83.3896 189.392C82.7883 190.631 81.9193 191.599 80.7826 192.296C79.6533 192.985 78.2966 193.33 76.7126 193.33ZM76.7126 190.833C77.776 190.84 78.6596 190.606 79.3636 190.129C80.075 189.652 80.6066 188.981 80.9586 188.116C81.318 187.251 81.4976 186.239 81.4976 185.08C81.4976 183.921 81.318 182.917 80.9586 182.066C80.6066 181.208 80.075 180.541 79.3636 180.064C78.6596 179.587 77.776 179.342 76.7126 179.327C75.6493 179.32 74.7656 179.554 74.0616 180.031C73.3576 180.508 72.826 181.179 72.4666 182.044C72.1146 182.909 71.9386 183.921 71.9386 185.08C71.9386 186.239 72.1146 187.247 72.4666 188.105C72.8186 188.956 73.3466 189.619 74.0506 190.096C74.762 190.573 75.6493 190.818 76.7126 190.833ZM92.8721 193.33C91.6108 193.33 90.4998 193.073 89.5391 192.56C88.5858 192.047 87.8378 191.324 87.2951 190.393C86.7598 189.462 86.4921 188.369 86.4921 187.115V177.182L89.1761 177.16V187.049C89.1761 187.643 89.2751 188.175 89.4731 188.644C89.6785 189.113 89.9535 189.513 90.2981 189.843C90.6428 190.166 91.0388 190.411 91.4861 190.58C91.9335 190.749 92.3955 190.833 92.8721 190.833C93.3635 190.833 93.8291 190.749 94.2691 190.58C94.7165 190.404 95.1125 190.155 95.4571 189.832C95.8018 189.502 96.0731 189.102 96.2711 188.633C96.4691 188.164 96.5681 187.636 96.5681 187.049V177.16H99.2521V187.115C99.2521 188.369 98.9808 189.462 98.4381 190.393C97.9028 191.324 97.1548 192.047 96.1941 192.56C95.2408 193.073 94.1335 193.33 92.8721 193.33ZM102.546 193V177.16H105.197V190.514H112.193V193H102.546ZM114.057 193V177.16H119.106C119.238 177.16 119.498 177.164 119.887 177.171C120.283 177.178 120.664 177.204 121.031 177.248C122.285 177.409 123.344 177.857 124.21 178.59C125.082 179.316 125.742 180.244 126.19 181.373C126.637 182.502 126.861 183.738 126.861 185.08C126.861 186.422 126.637 187.658 126.19 188.787C125.742 189.916 125.082 190.848 124.21 191.581C123.344 192.307 122.285 192.751 121.031 192.912C120.671 192.956 120.294 192.982 119.898 192.989C119.502 192.996 119.238 193 119.106 193H114.057ZM116.752 190.503H119.106C119.326 190.503 119.604 190.496 119.942 190.481C120.286 190.466 120.591 190.433 120.855 190.382C121.603 190.243 122.211 189.909 122.681 189.381C123.15 188.853 123.495 188.211 123.715 187.456C123.942 186.701 124.056 185.909 124.056 185.08C124.056 184.222 123.942 183.415 123.715 182.66C123.487 181.905 123.135 181.27 122.659 180.757C122.189 180.244 121.588 179.917 120.855 179.778C120.591 179.719 120.286 179.686 119.942 179.679C119.604 179.664 119.326 179.657 119.106 179.657H116.752V190.503ZM137.715 193V186.51L132.325 177.16H135.416L139.057 183.474L142.687 177.16H145.778L140.399 186.51V193H137.715ZM153.133 193.33C151.549 193.33 150.192 192.985 149.063 192.296C147.933 191.599 147.064 190.631 146.456 189.392C145.854 188.153 145.554 186.715 145.554 185.08C145.554 183.445 145.854 182.007 146.456 180.768C147.064 179.529 147.933 178.564 149.063 177.875C150.192 177.178 151.549 176.83 153.133 176.83C154.717 176.83 156.073 177.178 157.203 177.875C158.339 178.564 159.208 179.529 159.81 180.768C160.418 182.007 160.723 183.445 160.723 185.08C160.723 186.715 160.418 188.153 159.81 189.392C159.208 190.631 158.339 191.599 157.203 192.296C156.073 192.985 154.717 193.33 153.133 193.33ZM153.133 190.833C154.196 190.84 155.08 190.606 155.784 190.129C156.495 189.652 157.027 188.981 157.379 188.116C157.738 187.251 157.918 186.239 157.918 185.08C157.918 183.921 157.738 182.917 157.379 182.066C157.027 181.208 156.495 180.541 155.784 180.064C155.08 179.587 154.196 179.342 153.133 179.327C152.069 179.32 151.186 179.554 150.482 180.031C149.778 180.508 149.246 181.179 148.887 182.044C148.535 182.909 148.359 183.921 148.359 185.08C148.359 186.239 148.535 187.247 148.887 188.105C149.239 188.956 149.767 189.619 150.471 190.096C151.182 190.573 152.069 190.818 153.133 190.833ZM169.292 193.33C168.031 193.33 166.92 193.073 165.959 192.56C165.006 192.047 164.258 191.324 163.715 190.393C163.18 189.462 162.912 188.369 162.912 187.115V177.182L165.596 177.16V187.049C165.596 187.643 165.695 188.175 165.893 188.644C166.098 189.113 166.373 189.513 166.718 189.843C167.063 190.166 167.459 190.411 167.906 190.58C168.353 190.749 168.815 190.833 169.292 190.833C169.783 190.833 170.249 190.749 170.689 190.58C171.136 190.404 171.532 190.155 171.877 189.832C172.222 189.502 172.493 189.102 172.691 188.633C172.889 188.164 172.988 187.636 172.988 187.049V177.16H175.672V187.115C175.672 188.369 175.401 189.462 174.858 190.393C174.323 191.324 173.575 192.047 172.614 192.56C171.661 193.073 170.553 193.33 169.292 193.33ZM183.15 193V177.16H189.695C189.849 177.16 190.047 177.167 190.289 177.182C190.531 177.189 190.755 177.211 190.96 177.248C191.877 177.387 192.632 177.692 193.226 178.161C193.828 178.63 194.271 179.224 194.557 179.943C194.851 180.654 194.997 181.446 194.997 182.319C194.997 183.61 194.671 184.721 194.018 185.652C193.366 186.576 192.365 187.148 191.015 187.368L189.882 187.467H185.801V193H183.15ZM192.247 193L189.123 186.554L191.818 185.96L195.25 193H192.247ZM185.801 184.992H189.585C189.732 184.992 189.897 184.985 190.08 184.97C190.264 184.955 190.432 184.926 190.586 184.882C191.026 184.772 191.371 184.578 191.62 184.299C191.877 184.02 192.057 183.705 192.159 183.353C192.269 183.001 192.324 182.656 192.324 182.319C192.324 181.982 192.269 181.637 192.159 181.285C192.057 180.926 191.877 180.607 191.62 180.328C191.371 180.049 191.026 179.855 190.586 179.745C190.432 179.701 190.264 179.675 190.08 179.668C189.897 179.653 189.732 179.646 189.585 179.646H185.801V184.992ZM196.574 193L201.568 177.16H205.451L210.445 193H207.717L203.185 178.788H203.779L199.302 193H196.574ZM199.357 189.568V187.093H207.673V189.568H199.357ZM214.929 193V179.646H209.803V177.16H222.706V179.646H217.58V193H214.929ZM224.465 193V177.16H227.116V183.826H234.618V177.16H237.258V193H234.618V186.312H227.116V193H224.465ZM240.342 193V177.16H250.572V179.646H242.993V183.551H249.252V186.037H242.993V190.514H250.572V193H240.342ZM253.211 193V177.16H259.756C259.91 177.16 260.108 177.167 260.35 177.182C260.592 177.189 260.816 177.211 261.021 177.248C261.938 177.387 262.693 177.692 263.287 178.161C263.888 178.63 264.332 179.224 264.618 179.943C264.911 180.654 265.058 181.446 265.058 182.319C265.058 183.61 264.732 184.721 264.079 185.652C263.426 186.576 262.425 187.148 261.076 187.368L259.943 187.467H255.862V193H253.211ZM262.308 193L259.184 186.554L261.879 185.96L265.311 193H262.308ZM255.862 184.992H259.646C259.793 184.992 259.958 184.985 260.141 184.97C260.324 184.955 260.493 184.926 260.647 184.882C261.087 184.772 261.432 184.578 261.681 184.299C261.938 184.02 262.117 183.705 262.22 183.353C262.33 183.001 262.385 182.656 262.385 182.319C262.385 181.982 262.33 181.637 262.22 181.285C262.117 180.926 261.938 180.607 261.681 180.328C261.432 180.049 261.087 179.855 260.647 179.745C260.493 179.701 260.324 179.675 260.141 179.668C259.958 179.653 259.793 179.646 259.646 179.646H255.862V184.992ZM272.139 193V177.16H274.79V184.508L281.115 177.16H284.371L277.562 184.926L284.833 193H281.467L274.79 185.608V193H272.139ZM286.383 193V177.16H296.613V179.646H289.034V183.551H295.293V186.037H289.034V190.514H296.613V193H286.383ZM299.252 193V177.16H309.482V179.646H301.903V183.551H308.162V186.037H301.903V190.514H309.482V193H299.252ZM312.121 193V177.16H318.666C318.82 177.16 319.018 177.167 319.26 177.182C319.502 177.189 319.726 177.211 319.931 177.248C320.848 177.387 321.603 177.692 322.197 178.161C322.798 178.63 323.242 179.224 323.528 179.943C323.821 180.654 323.968 181.446 323.968 182.319C323.968 183.184 323.821 183.976 323.528 184.695C323.235 185.406 322.787 185.997 322.186 186.466C321.592 186.935 320.84 187.24 319.931 187.379C319.726 187.408 319.498 187.43 319.249 187.445C319.007 187.46 318.813 187.467 318.666 187.467H314.772V193H312.121ZM314.772 184.992H318.556C318.703 184.992 318.868 184.985 319.051 184.97C319.234 184.955 319.403 184.926 319.557 184.882C319.997 184.772 320.342 184.578 320.591 184.299C320.848 184.02 321.027 183.705 321.13 183.353C321.24 183.001 321.295 182.656 321.295 182.319C321.295 181.982 321.24 181.637 321.13 181.285C321.027 180.926 320.848 180.607 320.591 180.328C320.342 180.049 319.997 179.855 319.557 179.745C319.403 179.701 319.234 179.675 319.051 179.668C318.868 179.653 318.703 179.646 318.556 179.646H314.772V184.992ZM330.576 193V177.16H340.113V179.811H333.227V183.76H338.793V186.4H333.227V193H330.576ZM342.312 193V177.16H344.963V193H342.312ZM352.064 193V179.646H346.938V177.16H359.841V179.646H354.715V193H352.064ZM365.338 193V177.16H371.619C372.69 177.16 373.566 177.376 374.248 177.809C374.937 178.234 375.447 178.781 375.777 179.448C376.114 180.115 376.283 180.805 376.283 181.516C376.283 182.389 376.074 183.129 375.656 183.738C375.245 184.347 374.684 184.757 373.973 184.97V184.42C374.97 184.647 375.726 185.12 376.239 185.839C376.76 186.558 377.02 187.375 377.02 188.292C377.02 189.231 376.84 190.052 376.481 190.756C376.122 191.46 375.586 192.01 374.875 192.406C374.171 192.802 373.298 193 372.257 193H365.338ZM368.022 190.503H371.927C372.389 190.503 372.803 190.411 373.17 190.228C373.537 190.037 373.823 189.773 374.028 189.436C374.241 189.091 374.347 188.684 374.347 188.215C374.347 187.79 374.255 187.408 374.072 187.071C373.889 186.734 373.621 186.466 373.269 186.268C372.917 186.063 372.495 185.96 372.004 185.96H368.022V190.503ZM368.022 183.485H371.586C371.967 183.485 372.308 183.412 372.609 183.265C372.91 183.118 373.148 182.902 373.324 182.616C373.5 182.33 373.588 181.978 373.588 181.56C373.588 181.01 373.412 180.552 373.06 180.185C372.708 179.818 372.217 179.635 371.586 179.635H368.022V183.485ZM382.401 193V186.51L377.011 177.16H380.102L383.743 183.474L387.373 177.16H390.464L385.085 186.51V193H382.401ZM395.743 193V177.16H398.394V190.514H405.39V193H395.743ZM407.474 193V177.16H410.125V193H407.474ZM413.42 193V177.16H415.807L421.285 188.38L426.763 177.16H429.15V193H426.675V182.847L421.813 193H420.757L415.906 182.847V193H413.42ZM432.46 193V177.16H435.111V193H432.46ZM442.212 193V179.646H437.086V177.16H449.989V179.646H444.863V193H442.212ZM451.968 193V177.16H454.619V193H451.968ZM457.914 193V177.16H460.598L467.946 188.325V177.16H470.63V193H467.946L460.598 181.835V193H457.914ZM480.239 193.33C479.212 193.33 478.248 193.15 477.346 192.791C476.451 192.424 475.663 191.889 474.981 191.185C474.306 190.481 473.778 189.619 473.397 188.6C473.016 187.573 472.825 186.4 472.825 185.08C472.825 183.349 473.148 181.872 473.793 180.647C474.438 179.415 475.322 178.473 476.444 177.82C477.566 177.16 478.831 176.83 480.239 176.83C482.19 176.83 483.733 177.285 484.87 178.194C486.014 179.096 486.788 180.365 487.191 182L484.485 182.429C484.184 181.49 483.693 180.742 483.011 180.185C482.329 179.62 481.46 179.338 480.404 179.338C479.341 179.323 478.457 179.554 477.753 180.031C477.049 180.508 476.517 181.179 476.158 182.044C475.806 182.909 475.63 183.921 475.63 185.08C475.63 186.239 475.806 187.247 476.158 188.105C476.51 188.956 477.038 189.619 477.742 190.096C478.453 190.573 479.341 190.818 480.404 190.833C481.203 190.84 481.904 190.697 482.505 190.404C483.106 190.103 483.598 189.652 483.979 189.051C484.36 188.442 484.617 187.683 484.749 186.774H481.955V184.695H487.565C487.58 184.812 487.591 184.985 487.598 185.212C487.605 185.439 487.609 185.575 487.609 185.619C487.609 187.115 487.312 188.446 486.718 189.612C486.131 190.771 485.288 191.68 484.188 192.34C483.088 193 481.772 193.33 480.239 193.33ZM494.223 193V177.16H503.76V179.811H496.874V183.76H502.44V186.4H496.874V193H494.223ZM512.437 193.33C510.853 193.33 509.497 192.985 508.367 192.296C507.238 191.599 506.369 190.631 505.76 189.392C505.159 188.153 504.858 186.715 504.858 185.08C504.858 183.445 505.159 182.007 505.76 180.768C506.369 179.529 507.238 178.564 508.367 177.875C509.497 177.178 510.853 176.83 512.437 176.83C514.021 176.83 515.378 177.178 516.507 177.875C517.644 178.564 518.513 179.529 519.114 180.768C519.723 182.007 520.027 183.445 520.027 185.08C520.027 186.715 519.723 188.153 519.114 189.392C518.513 190.631 517.644 191.599 516.507 192.296C515.378 192.985 514.021 193.33 512.437 193.33ZM512.437 190.833C513.501 190.84 514.384 190.606 515.088 190.129C515.8 189.652 516.331 188.981 516.683 188.116C517.043 187.251 517.222 186.239 517.222 185.08C517.222 183.921 517.043 182.917 516.683 182.066C516.331 181.208 515.8 180.541 515.088 180.064C514.384 179.587 513.501 179.342 512.437 179.327C511.374 179.32 510.49 179.554 509.786 180.031C509.082 180.508 508.551 181.179 508.191 182.044C507.839 182.909 507.663 183.921 507.663 185.08C507.663 186.239 507.839 187.247 508.191 188.105C508.543 188.956 509.071 189.619 509.775 190.096C510.487 190.573 511.374 190.818 512.437 190.833ZM528.916 193.33C527.332 193.33 525.975 192.985 524.846 192.296C523.716 191.599 522.847 190.631 522.239 189.392C521.637 188.153 521.337 186.715 521.337 185.08C521.337 183.445 521.637 182.007 522.239 180.768C522.847 179.529 523.716 178.564 524.846 177.875C525.975 177.178 527.332 176.83 528.916 176.83C530.5 176.83 531.856 177.178 532.986 177.875C534.122 178.564 534.991 179.529 535.593 180.768C536.201 182.007 536.506 183.445 536.506 185.08C536.506 186.715 536.201 188.153 535.593 189.392C534.991 190.631 534.122 191.599 532.986 192.296C531.856 192.985 530.5 193.33 528.916 193.33ZM528.916 190.833C529.979 190.84 530.863 190.606 531.567 190.129C532.278 189.652 532.81 188.981 533.162 188.116C533.521 187.251 533.701 186.239 533.701 185.08C533.701 183.921 533.521 182.917 533.162 182.066C532.81 181.208 532.278 180.541 531.567 180.064C530.863 179.587 529.979 179.342 528.916 179.327C527.852 179.32 526.969 179.554 526.265 180.031C525.561 180.508 525.029 181.179 524.67 182.044C524.318 182.909 524.142 183.921 524.142 185.08C524.142 186.239 524.318 187.247 524.67 188.105C525.022 188.956 525.55 189.619 526.254 190.096C526.965 190.573 527.852 190.818 528.916 190.833ZM538.695 193V177.16H543.744C543.876 177.16 544.137 177.164 544.525 177.171C544.921 177.178 545.303 177.204 545.669 177.248C546.923 177.409 547.983 177.857 548.848 178.59C549.721 179.316 550.381 180.244 550.828 181.373C551.276 182.502 551.499 183.738 551.499 185.08C551.499 186.422 551.276 187.658 550.828 188.787C550.381 189.916 549.721 190.848 548.848 191.581C547.983 192.307 546.923 192.751 545.669 192.912C545.31 192.956 544.932 192.982 544.536 192.989C544.14 192.996 543.876 193 543.744 193H538.695ZM541.39 190.503H543.744C543.964 190.503 544.243 190.496 544.58 190.481C544.925 190.466 545.229 190.433 545.493 190.382C546.241 190.243 546.85 189.909 547.319 189.381C547.789 188.853 548.133 188.211 548.353 187.456C548.581 186.701 548.694 185.909 548.694 185.08C548.694 184.222 548.581 183.415 548.353 182.66C548.126 181.905 547.774 181.27 547.297 180.757C546.828 180.244 546.227 179.917 545.493 179.778C545.229 179.719 544.925 179.686 544.58 179.679C544.243 179.664 543.964 179.657 543.744 179.657H541.39V190.503ZM57.6882 224.33C56.1042 224.33 54.7476 223.985 53.6182 223.296C52.4889 222.599 51.6199 221.631 51.0112 220.392C50.4099 219.153 50.1092 217.715 50.1092 216.08C50.1092 214.445 50.4099 213.007 51.0112 211.768C51.6199 210.529 52.4889 209.564 53.6182 208.875C54.7476 208.178 56.1042 207.83 57.6882 207.83C59.2722 207.83 60.6289 208.178 61.7582 208.875C62.8949 209.564 63.7639 210.529 64.3652 211.768C64.9739 213.007 65.2782 214.445 65.2782 216.08C65.2782 217.715 64.9739 219.153 64.3652 220.392C63.7639 221.631 62.8949 222.599 61.7582 223.296C60.6289 223.985 59.2722 224.33 57.6882 224.33ZM57.6882 221.833C58.7516 221.84 59.6352 221.606 60.3392 221.129C61.0506 220.652 61.5822 219.981 61.9342 219.116C62.2936 218.251 62.4732 217.239 62.4732 216.08C62.4732 214.921 62.2936 213.917 61.9342 213.066C61.5822 212.208 61.0506 211.541 60.3392 211.064C59.6352 210.587 58.7516 210.342 57.6882 210.327C56.6249 210.32 55.7412 210.554 55.0372 211.031C54.3332 211.508 53.8016 212.179 53.4422 213.044C53.0902 213.909 52.9142 214.921 52.9142 216.08C52.9142 217.239 53.0902 218.247 53.4422 219.105C53.7942 219.956 54.3222 220.619 55.0262 221.096C55.7376 221.573 56.6249 221.818 57.6882 221.833ZM67.4677 224V208.16H74.0127C74.1667 208.16 74.3647 208.167 74.6067 208.182C74.8487 208.189 75.0724 208.211 75.2777 208.248C76.1944 208.387 76.9497 208.692 77.5437 209.161C78.1451 209.63 78.5887 210.224 78.8747 210.943C79.1681 211.654 79.3147 212.446 79.3147 213.319C79.3147 214.61 78.9884 215.721 78.3357 216.652C77.6831 217.576 76.6821 218.148 75.3327 218.368L74.1997 218.467H70.1187V224H67.4677ZM76.5647 224L73.4407 217.554L76.1357 216.96L79.5677 224H76.5647ZM70.1187 215.992H73.9027C74.0494 215.992 74.2144 215.985 74.3977 215.97C74.5811 215.955 74.7497 215.926 74.9037 215.882C75.3437 215.772 75.6884 215.578 75.9377 215.299C76.1944 215.02 76.3741 214.705 76.4767 214.353C76.5867 214.001 76.6417 213.656 76.6417 213.319C76.6417 212.982 76.5867 212.637 76.4767 212.285C76.3741 211.926 76.1944 211.607 75.9377 211.328C75.6884 211.049 75.3437 210.855 74.9037 210.745C74.7497 210.701 74.5811 210.675 74.3977 210.668C74.2144 210.653 74.0494 210.646 73.9027 210.646H70.1187V215.992ZM86.3955 224V208.16H96.6255V210.646H89.0465V214.551H95.3055V217.037H89.0465V221.514H96.6255V224H86.3955ZM98.1646 224L103.159 208.16H107.042L112.036 224H109.308L104.776 209.788H105.37L100.893 224H98.1646ZM100.948 220.568V218.093H109.264V220.568H100.948ZM116.52 224V210.646H111.394V208.16H124.297V210.646H119.171V224H116.52ZM129.794 224V208.16H140.024V210.646H132.445V214.551H138.704V217.037H132.445V221.514H140.024V224H129.794ZM146.227 224L141.233 208.16H143.961L148.141 221.426L152.376 208.16H155.104L150.11 224H146.227ZM156.757 224V208.16H166.987V210.646H159.408V214.551H165.667V217.037H159.408V221.514H166.987V224H156.757ZM169.626 224V208.16H176.171C176.325 208.16 176.523 208.167 176.765 208.182C177.007 208.189 177.231 208.211 177.436 208.248C178.353 208.387 179.108 208.692 179.702 209.161C180.303 209.63 180.747 210.224 181.033 210.943C181.326 211.654 181.473 212.446 181.473 213.319C181.473 214.61 181.147 215.721 180.494 216.652C179.841 217.576 178.84 218.148 177.491 218.368L176.358 218.467H172.277V224H169.626ZM178.723 224L175.599 217.554L178.294 216.96L181.726 224H178.723ZM172.277 215.992H176.061C176.208 215.992 176.373 215.985 176.556 215.97C176.739 215.955 176.908 215.926 177.062 215.882C177.502 215.772 177.847 215.578 178.096 215.299C178.353 215.02 178.532 214.705 178.635 214.353C178.745 214.001 178.8 213.656 178.8 213.319C178.8 212.982 178.745 212.637 178.635 212.285C178.532 211.926 178.353 211.607 178.096 211.328C177.847 211.049 177.502 210.855 177.062 210.745C176.908 210.701 176.739 210.675 176.556 210.668C176.373 210.653 176.208 210.646 176.061 210.646H172.277V215.992ZM187.699 224V217.51L182.309 208.16H185.4L189.041 214.474L192.671 208.16H195.762L190.383 217.51V224H187.699ZM201.77 224V210.646H196.644V208.16H209.547V210.646H204.421V224H201.77ZM211.306 224V208.16H213.957V214.826H221.459V208.16H224.099V224H221.459V217.312H213.957V224H211.306ZM227.403 224V208.16H230.054V224H227.403ZM233.349 224V208.16H236.033L243.381 219.325V208.16H246.065V224H243.381L236.033 212.835V224H233.349ZM255.674 224.33C254.647 224.33 253.683 224.15 252.781 223.791C251.886 223.424 251.098 222.889 250.416 222.185C249.741 221.481 249.213 220.619 248.832 219.6C248.45 218.573 248.26 217.4 248.26 216.08C248.26 214.349 248.582 212.872 249.228 211.647C249.873 210.415 250.757 209.473 251.879 208.82C253.001 208.16 254.266 207.83 255.674 207.83C257.624 207.83 259.168 208.285 260.305 209.194C261.449 210.096 262.222 211.365 262.626 213L259.92 213.429C259.619 212.49 259.128 211.742 258.446 211.185C257.764 210.62 256.895 210.338 255.839 210.338C254.775 210.323 253.892 210.554 253.188 211.031C252.484 211.508 251.952 212.179 251.593 213.044C251.241 213.909 251.065 214.921 251.065 216.08C251.065 217.239 251.241 218.247 251.593 219.105C251.945 219.956 252.473 220.619 253.177 221.096C253.888 221.573 254.775 221.818 255.839 221.833C256.638 221.84 257.338 221.697 257.94 221.404C258.541 221.103 259.032 220.652 259.414 220.051C259.795 219.442 260.052 218.683 260.184 217.774H257.39V215.695H263C263.014 215.812 263.025 215.985 263.033 216.212C263.04 216.439 263.044 216.575 263.044 216.619C263.044 218.115 262.747 219.446 262.153 220.612C261.566 221.771 260.723 222.68 259.623 223.34C258.523 224 257.206 224.33 255.674 224.33ZM273.507 224V217.51L268.117 208.16H271.208L274.849 214.474L278.479 208.16H281.57L276.191 217.51V224H273.507ZM288.925 224.33C287.341 224.33 285.984 223.985 284.855 223.296C283.725 222.599 282.856 221.631 282.248 220.392C281.646 219.153 281.346 217.715 281.346 216.08C281.346 214.445 281.646 213.007 282.248 211.768C282.856 210.529 283.725 209.564 284.855 208.875C285.984 208.178 287.341 207.83 288.925 207.83C290.509 207.83 291.865 208.178 292.995 208.875C294.131 209.564 295 210.529 295.602 211.768C296.21 213.007 296.515 214.445 296.515 216.08C296.515 217.715 296.21 219.153 295.602 220.392C295 221.631 294.131 222.599 292.995 223.296C291.865 223.985 290.509 224.33 288.925 224.33ZM288.925 221.833C289.988 221.84 290.872 221.606 291.576 221.129C292.287 220.652 292.819 219.981 293.171 219.116C293.53 218.251 293.71 217.239 293.71 216.08C293.71 214.921 293.53 213.917 293.171 213.066C292.819 212.208 292.287 211.541 291.576 211.064C290.872 210.587 289.988 210.342 288.925 210.327C287.861 210.32 286.978 210.554 286.274 211.031C285.57 211.508 285.038 212.179 284.679 213.044C284.327 213.909 284.151 214.921 284.151 216.08C284.151 217.239 284.327 218.247 284.679 219.105C285.031 219.956 285.559 220.619 286.263 221.096C286.974 221.573 287.861 221.818 288.925 221.833ZM305.084 224.33C303.823 224.33 302.712 224.073 301.751 223.56C300.798 223.047 300.05 222.324 299.507 221.393C298.972 220.462 298.704 219.369 298.704 218.115V208.182L301.388 208.16V218.049C301.388 218.643 301.487 219.175 301.685 219.644C301.89 220.113 302.165 220.513 302.51 220.843C302.855 221.166 303.251 221.411 303.698 221.58C304.145 221.749 304.607 221.833 305.084 221.833C305.575 221.833 306.041 221.749 306.481 221.58C306.928 221.404 307.324 221.155 307.669 220.832C308.014 220.502 308.285 220.102 308.483 219.633C308.681 219.164 308.78 218.636 308.78 218.049V208.16H311.464V218.115C311.464 219.369 311.193 220.462 310.65 221.393C310.115 222.324 309.367 223.047 308.406 223.56C307.453 224.073 306.345 224.33 305.084 224.33ZM322.286 224L317.655 208.16H320.438L323.595 219.6L326.741 208.182L329.524 208.16L332.681 219.6L335.827 208.16H338.61L333.99 224H331.372L328.127 212.736L324.904 224H322.286ZM337.758 224L342.752 208.16H346.635L351.629 224H348.901L344.369 209.788H344.963L340.486 224H337.758ZM340.541 220.568V218.093H348.857V220.568H340.541ZM353.618 224V208.16H356.302L363.65 219.325V208.16H366.334V224H363.65L356.302 212.835V224H353.618ZM373.215 224V210.646H368.089V208.16H380.992V210.646H375.866V224H373.215ZM385.389 224L390.383 208.16H394.266L399.26 224H396.532L392 209.788H392.594L388.117 224H385.389ZM388.172 220.568V218.093H396.488V220.568H388.172ZM401.249 224V208.16H403.933L411.281 219.325V208.16H413.965V224H411.281L403.933 212.835V224H401.249ZM417.04 224V208.16H422.089C422.221 208.16 422.481 208.164 422.87 208.171C423.266 208.178 423.647 208.204 424.014 208.248C425.268 208.409 426.328 208.857 427.193 209.59C428.066 210.316 428.726 211.244 429.173 212.373C429.62 213.502 429.844 214.738 429.844 216.08C429.844 217.422 429.62 218.658 429.173 219.787C428.726 220.916 428.066 221.848 427.193 222.581C426.328 223.307 425.268 223.751 424.014 223.912C423.655 223.956 423.277 223.982 422.881 223.989C422.485 223.996 422.221 224 422.089 224H417.04ZM419.735 221.503H422.089C422.309 221.503 422.588 221.496 422.925 221.481C423.27 221.466 423.574 221.433 423.838 221.382C424.586 221.243 425.195 220.909 425.664 220.381C426.133 219.853 426.478 219.211 426.698 218.456C426.925 217.701 427.039 216.909 427.039 216.08C427.039 215.222 426.925 214.415 426.698 213.66C426.471 212.905 426.119 212.27 425.642 211.757C425.173 211.244 424.571 210.917 423.838 210.778C423.574 210.719 423.27 210.686 422.925 210.679C422.588 210.664 422.309 210.657 422.089 210.657H419.735V221.503ZM440.193 224L435.562 208.16H438.345L441.502 219.6L444.648 208.182L447.431 208.16L450.588 219.6L453.734 208.16H456.517L451.897 224H449.279L446.034 212.736L442.811 224H440.193ZM464.581 224.33C462.997 224.33 461.64 223.985 460.511 223.296C459.381 222.599 458.512 221.631 457.904 220.392C457.302 219.153 457.002 217.715 457.002 216.08C457.002 214.445 457.302 213.007 457.904 211.768C458.512 210.529 459.381 209.564 460.511 208.875C461.64 208.178 462.997 207.83 464.581 207.83C466.165 207.83 467.521 208.178 468.651 208.875C469.787 209.564 470.656 210.529 471.258 211.768C471.866 213.007 472.171 214.445 472.171 216.08C472.171 217.715 471.866 219.153 471.258 220.392C470.656 221.631 469.787 222.599 468.651 223.296C467.521 223.985 466.165 224.33 464.581 224.33ZM464.581 221.833C465.644 221.84 466.528 221.606 467.232 221.129C467.943 220.652 468.475 219.981 468.827 219.116C469.186 218.251 469.366 217.239 469.366 216.08C469.366 214.921 469.186 213.917 468.827 213.066C468.475 212.208 467.943 211.541 467.232 211.064C466.528 210.587 465.644 210.342 464.581 210.327C463.517 210.32 462.634 210.554 461.93 211.031C461.226 211.508 460.694 212.179 460.335 213.044C459.983 213.909 459.807 214.921 459.807 216.08C459.807 217.239 459.983 218.247 460.335 219.105C460.687 219.956 461.215 220.619 461.919 221.096C462.63 221.573 463.517 221.818 464.581 221.833ZM474.36 224V208.16H480.905C481.059 208.16 481.257 208.167 481.499 208.182C481.741 208.189 481.965 208.211 482.17 208.248C483.087 208.387 483.842 208.692 484.436 209.161C485.038 209.63 485.481 210.224 485.767 210.943C486.061 211.654 486.207 212.446 486.207 213.319C486.207 214.61 485.881 215.721 485.228 216.652C484.576 217.576 483.575 218.148 482.225 218.368L481.092 218.467H477.011V224H474.36ZM483.457 224L480.333 217.554L483.028 216.96L486.46 224H483.457ZM477.011 215.992H480.795C480.942 215.992 481.107 215.985 481.29 215.97C481.474 215.955 481.642 215.926 481.796 215.882C482.236 215.772 482.581 215.578 482.83 215.299C483.087 215.02 483.267 214.705 483.369 214.353C483.479 214.001 483.534 213.656 483.534 213.319C483.534 212.982 483.479 212.637 483.369 212.285C483.267 211.926 483.087 211.607 482.83 211.328C482.581 211.049 482.236 210.855 481.796 210.745C481.642 210.701 481.474 210.675 481.29 210.668C481.107 210.653 480.942 210.646 480.795 210.646H477.011V215.992ZM488.884 224V208.16H491.535V215.508L497.86 208.16H501.116L494.307 215.926L501.578 224H498.212L491.535 216.608V224H488.884ZM513.802 224.33C512.218 224.33 510.861 223.985 509.732 223.296C508.602 222.599 507.733 221.631 507.125 220.392C506.523 219.153 506.223 217.715 506.223 216.08C506.223 214.445 506.523 213.007 507.125 211.768C507.733 210.529 508.602 209.564 509.732 208.875C510.861 208.178 512.218 207.83 513.802 207.83C515.386 207.83 516.742 208.178 517.872 208.875C519.008 209.564 519.877 210.529 520.479 211.768C521.087 213.007 521.392 214.445 521.392 216.08C521.392 217.715 521.087 219.153 520.479 220.392C519.877 221.631 519.008 222.599 517.872 223.296C516.742 223.985 515.386 224.33 513.802 224.33ZM513.802 221.833C514.865 221.84 515.749 221.606 516.453 221.129C517.164 220.652 517.696 219.981 518.048 219.116C518.407 218.251 518.587 217.239 518.587 216.08C518.587 214.921 518.407 213.917 518.048 213.066C517.696 212.208 517.164 211.541 516.453 211.064C515.749 210.587 514.865 210.342 513.802 210.327C512.738 210.32 511.855 210.554 511.151 211.031C510.447 211.508 509.915 212.179 509.556 213.044C509.204 213.909 509.028 214.921 509.028 216.08C509.028 217.239 509.204 218.247 509.556 219.105C509.908 219.956 510.436 220.619 511.14 221.096C511.851 221.573 512.738 221.818 513.802 221.833ZM529.961 224.33C528.7 224.33 527.589 224.073 526.628 223.56C525.675 223.047 524.927 222.324 524.384 221.393C523.849 220.462 523.581 219.369 523.581 218.115V208.182L526.265 208.16V218.049C526.265 218.643 526.364 219.175 526.562 219.644C526.767 220.113 527.042 220.513 527.387 220.843C527.732 221.166 528.128 221.411 528.575 221.58C529.022 221.749 529.484 221.833 529.961 221.833C530.452 221.833 530.918 221.749 531.358 221.58C531.805 221.404 532.201 221.155 532.546 220.832C532.891 220.502 533.162 220.102 533.36 219.633C533.558 219.164 533.657 218.636 533.657 218.049V208.16H536.341V218.115C536.341 219.369 536.07 220.462 535.527 221.393C534.992 222.324 534.244 223.047 533.283 223.56C532.33 224.073 531.222 224.33 529.961 224.33ZM543.221 224V210.646H538.095V208.16H550.998V210.646H545.872V224H543.221ZM249.059 255V239.16H251.71V255H249.059ZM255.005 255V239.16H257.689L265.037 250.325V239.16H267.721V255H265.037L257.689 243.835V255H255.005ZM274.1 255L279.094 239.16H282.977L287.971 255H285.243L280.711 240.788H281.305L276.828 255H274.1ZM276.883 251.568V249.093H285.199V251.568H276.883ZM300.898 255.33C299.872 255.33 298.907 255.15 298.005 254.791C297.111 254.424 296.322 253.889 295.64 253.185C294.966 252.481 294.438 251.619 294.056 250.6C293.675 249.573 293.484 248.4 293.484 247.08C293.484 245.349 293.807 243.872 294.452 242.647C295.098 241.415 295.981 240.473 297.103 239.82C298.225 239.16 299.49 238.83 300.898 238.83C302.849 238.83 304.393 239.285 305.529 240.194C306.673 241.096 307.447 242.365 307.85 244L305.144 244.429C304.844 243.49 304.352 242.742 303.67 242.185C302.988 241.62 302.119 241.338 301.063 241.338C300 241.323 299.116 241.554 298.412 242.031C297.708 242.508 297.177 243.179 296.817 244.044C296.465 244.909 296.289 245.921 296.289 247.08C296.289 248.239 296.465 249.247 296.817 250.105C297.169 250.956 297.697 251.619 298.401 252.096C299.113 252.573 300 252.818 301.063 252.833C301.863 252.84 302.563 252.697 303.164 252.404C303.766 252.103 304.257 251.652 304.638 251.051C305.02 250.442 305.276 249.683 305.408 248.774H302.614V246.695H308.224C308.239 246.812 308.25 246.985 308.257 247.212C308.265 247.439 308.268 247.575 308.268 247.619C308.268 249.115 307.971 250.446 307.377 251.612C306.791 252.771 305.947 253.68 304.847 254.34C303.747 255 302.431 255.33 300.898 255.33ZM313.661 255V248.51L308.271 239.16H311.362L315.003 245.474L318.633 239.16H321.724L316.345 248.51V255H313.661ZM323.261 255V239.16H325.648L331.126 250.38L336.604 239.16H338.991V255H336.516V244.847L331.654 255H330.598L325.747 244.847V255H323.261ZM344.952 250.699C344.952 250.193 345 249.705 345.095 249.236C345.198 248.759 345.363 248.319 345.59 247.916C345.788 247.527 346.008 247.219 346.25 246.992C346.492 246.757 346.763 246.526 347.064 246.299C347.365 246.064 347.698 245.753 348.065 245.364C348.366 245.034 348.564 244.708 348.659 244.385C348.754 244.055 348.802 243.703 348.802 243.329C348.802 243.087 348.776 242.86 348.725 242.647C348.674 242.434 348.582 242.251 348.45 242.097C348.245 241.826 347.981 241.635 347.658 241.525C347.335 241.408 346.991 241.349 346.624 241.349C346.323 241.349 346.034 241.389 345.755 241.47C345.484 241.543 345.253 241.661 345.062 241.822C344.842 241.998 344.681 242.214 344.578 242.471C344.475 242.728 344.428 243.01 344.435 243.318H341.641C341.714 242.585 341.912 241.906 342.235 241.283C342.565 240.652 342.998 240.15 343.533 239.776C343.951 239.468 344.42 239.237 344.941 239.083C345.469 238.929 345.997 238.852 346.525 238.852C347.332 238.852 348.091 238.977 348.802 239.226C349.521 239.475 350.118 239.886 350.595 240.458C350.925 240.832 351.174 241.265 351.343 241.756C351.519 242.247 351.607 242.746 351.607 243.252C351.607 244.007 351.442 244.697 351.112 245.32C350.789 245.943 350.379 246.519 349.88 247.047C349.645 247.296 349.422 247.516 349.209 247.707C348.996 247.898 348.798 248.085 348.615 248.268C348.439 248.444 348.292 248.631 348.175 248.829C347.97 249.174 347.849 249.467 347.812 249.709C347.775 249.944 347.757 250.274 347.757 250.699H344.952ZM344.974 255V252.085H347.757V255H344.974Z" fill="white"></path> <rect x="20" y="20" width="67" height="40" rx="20" fill="white" fill-opacity="0.3"></rect> <path d="M33.3778 46V34.48H40.0978V35.904H34.8018V39.528H39.1378V40.952H34.8018V46H33.3778ZM46.2701 46.24C45.1234 46.24 44.1501 45.9867 43.3501 45.48C42.5501 44.9733 41.9394 44.2693 41.5181 43.368C41.1021 42.4667 40.8941 41.424 40.8941 40.24C40.8941 39.056 41.1021 38.0133 41.5181 37.112C41.9394 36.2107 42.5501 35.5067 43.3501 35C44.1501 34.4933 45.1234 34.24 46.2701 34.24C47.4221 34.24 48.3981 34.4933 49.1981 35C49.9981 35.5067 50.6061 36.2107 51.0221 37.112C51.4381 38.0133 51.6461 39.056 51.6461 40.24C51.6461 41.424 51.4381 42.4667 51.0221 43.368C50.6061 44.2693 49.9981 44.9733 49.1981 45.48C48.3981 45.9867 47.4221 46.24 46.2701 46.24ZM46.2701 44.88C47.1287 44.8853 47.8434 44.6933 48.4141 44.304C48.9901 43.9093 49.4194 43.3627 49.7021 42.664C49.9901 41.9653 50.1341 41.1573 50.1341 40.24C50.1341 39.3173 49.9901 38.5093 49.7021 37.816C49.4194 37.1227 48.9901 36.5813 48.4141 36.192C47.8434 35.8027 47.1287 35.6053 46.2701 35.6C45.4114 35.5947 44.6967 35.7867 44.1261 36.176C43.5607 36.5653 43.1341 37.1093 42.8461 37.808C42.5581 38.5067 42.4114 39.3173 42.4061 40.24C42.4007 41.1573 42.5421 41.9627 42.8301 42.656C43.1181 43.3493 43.5474 43.8933 44.1181 44.288C44.6941 44.6773 45.4114 44.8747 46.2701 44.88ZM57.9888 46.24C56.8421 46.24 55.8688 45.9867 55.0688 45.48C54.2688 44.9733 53.6581 44.2693 53.2368 43.368C52.8208 42.4667 52.6128 41.424 52.6128 40.24C52.6128 39.056 52.8208 38.0133 53.2368 37.112C53.6581 36.2107 54.2688 35.5067 55.0688 35C55.8688 34.4933 56.8421 34.24 57.9888 34.24C59.1408 34.24 60.1168 34.4933 60.9168 35C61.7168 35.5067 62.3248 36.2107 62.7408 37.112C63.1568 38.0133 63.3648 39.056 63.3648 40.24C63.3648 41.424 63.1568 42.4667 62.7408 43.368C62.3248 44.2693 61.7168 44.9733 60.9168 45.48C60.1168 45.9867 59.1408 46.24 57.9888 46.24ZM57.9888 44.88C58.8475 44.8853 59.5621 44.6933 60.1328 44.304C60.7088 43.9093 61.1381 43.3627 61.4208 42.664C61.7088 41.9653 61.8528 41.1573 61.8528 40.24C61.8528 39.3173 61.7088 38.5093 61.4208 37.816C61.1381 37.1227 60.7088 36.5813 60.1328 36.192C59.5621 35.8027 58.8475 35.6053 57.9888 35.6C57.1301 35.5947 56.4155 35.7867 55.8448 36.176C55.2795 36.5653 54.8528 37.1093 54.5648 37.808C54.2768 38.5067 54.1301 39.3173 54.1248 40.24C54.1195 41.1573 54.2608 41.9627 54.5488 42.656C54.8368 43.3493 55.2661 43.8933 55.8368 44.288C56.4128 44.6773 57.1301 44.8747 57.9888 44.88ZM64.9716 46V34.48H68.5236C68.6409 34.48 68.8462 34.4827 69.1396 34.488C69.4329 34.4933 69.7129 34.5147 69.9796 34.552C70.8702 34.6693 71.6142 34.9947 72.2116 35.528C72.8142 36.056 73.2676 36.728 73.5716 37.544C73.8756 38.36 74.0276 39.2587 74.0276 40.24C74.0276 41.2213 73.8756 42.12 73.5716 42.936C73.2676 43.752 72.8142 44.4267 72.2116 44.96C71.6142 45.488 70.8702 45.8107 69.9796 45.928C69.7129 45.96 69.4302 45.9813 69.1316 45.992C68.8382 45.9973 68.6356 46 68.5236 46H64.9716ZM66.4356 44.64H68.5236C68.7262 44.64 68.9529 44.6347 69.2036 44.624C69.4542 44.608 69.6729 44.584 69.8596 44.552C70.4889 44.4347 70.9982 44.1707 71.3876 43.76C71.7769 43.3493 72.0622 42.8373 72.2436 42.224C72.4249 41.6107 72.5156 40.9493 72.5156 40.24C72.5156 39.5147 72.4222 38.8453 72.2356 38.232C72.0542 37.6187 71.7689 37.1093 71.3796 36.704C70.9902 36.2987 70.4836 36.04 69.8596 35.928C69.6729 35.8907 69.4516 35.8667 69.1956 35.856C68.9396 35.8453 68.7156 35.84 68.5236 35.84H66.4356V44.64Z" fill="white"></path> <defs> <linearGradient id="paint0_linear_160_143" x1="300" y1="0" x2="300" y2="400" gradientUnits="userSpaceOnUse"> <stop stop-color="#FC8F58"></stop> <stop offset="1" stop-color="#FF5E62"></stop> </linearGradient> </defs> </svg> 