<?xml version="1.0" encoding="UTF-8"?> <svg xmlns="http://www.w3.org/2000/svg" width="600" height="400" viewBox="0 0 600 400" fill="none"> <g clip-path="url(#clip0_1320_126)"> <rect width="600" height="400" rx="20" fill="#432A0A"></rect> <path d="M99.3521 240L104.346 224.16H108.229L113.223 240H110.495L105.963 225.788H106.557L102.08 240H99.3521ZM102.135 236.568V234.093H110.451V236.568H102.135ZM115.212 240V224.16H120.261C120.393 224.16 120.653 224.164 121.042 224.171C121.438 224.178 121.819 224.204 122.186 224.248C123.44 224.409 124.5 224.857 125.365 225.59C126.238 226.316 126.898 227.244 127.345 228.373C127.792 229.502 128.016 230.738 128.016 232.08C128.016 233.422 127.792 234.658 127.345 235.787C126.898 236.916 126.238 237.848 125.365 238.581C124.5 239.307 123.44 239.751 122.186 239.912C121.827 239.956 121.449 239.982 121.053 239.989C120.657 239.996 120.393 240 120.261 240H115.212ZM117.907 237.503H120.261C120.481 237.503 120.76 237.496 121.097 237.481C121.442 237.466 121.746 237.433 122.01 237.382C122.758 237.243 123.367 236.909 123.836 236.381C124.305 235.853 124.65 235.211 124.87 234.456C125.097 233.701 125.211 232.909 125.211 232.08C125.211 231.222 125.097 230.415 124.87 229.66C124.643 228.905 124.291 228.27 123.814 227.757C123.345 227.244 122.743 226.917 122.01 226.778C121.746 226.719 121.442 226.686 121.097 226.679C120.76 226.664 120.481 226.657 120.261 226.657H117.907V237.503ZM133.784 240.33C132.574 240.33 131.566 240.015 130.759 239.384C129.96 238.753 129.399 237.903 129.076 236.832L131.694 236.205C131.775 236.652 132.01 237.037 132.398 237.36C132.787 237.683 133.216 237.844 133.685 237.844C133.993 237.844 134.32 237.763 134.664 237.602C135.009 237.433 135.266 237.166 135.434 236.799C135.537 236.564 135.596 236.286 135.61 235.963C135.632 235.633 135.643 235.252 135.643 234.819V224.16H138.327V234.819C138.327 235.31 138.324 235.743 138.316 236.117C138.316 236.484 138.28 236.832 138.206 237.162C138.14 237.485 138.005 237.818 137.799 238.163C137.367 238.911 136.802 239.461 136.105 239.813C135.409 240.158 134.635 240.33 133.784 240.33ZM141.638 240V224.16H151.868V226.646H144.289V230.551H150.548V233.037H144.289V237.514H151.868V240H141.638ZM160.647 240.33C159.063 240.33 157.707 239.985 156.577 239.296C155.448 238.599 154.579 237.631 153.97 236.392C153.369 235.153 153.068 233.715 153.068 232.08C153.068 230.445 153.369 229.007 153.97 227.768C154.579 226.529 155.448 225.564 156.577 224.875C157.707 224.178 159.063 223.83 160.647 223.83C162.473 223.83 163.995 224.288 165.212 225.205C166.43 226.114 167.284 227.343 167.775 228.89L165.102 229.627C164.794 228.593 164.27 227.786 163.529 227.207C162.789 226.62 161.828 226.327 160.647 226.327C159.584 226.327 158.697 226.565 157.985 227.042C157.281 227.519 156.75 228.19 156.39 229.055C156.038 229.913 155.859 230.921 155.851 232.08C155.851 233.239 156.027 234.251 156.379 235.116C156.739 235.974 157.274 236.641 157.985 237.118C158.697 237.595 159.584 237.833 160.647 237.833C161.828 237.833 162.789 237.54 163.529 236.953C164.27 236.366 164.794 235.56 165.102 234.533L167.775 235.27C167.284 236.817 166.43 238.049 165.212 238.966C163.995 239.875 162.473 240.33 160.647 240.33ZM173.996 240V226.646H168.87V224.16H181.773V226.646H176.647V240H173.996ZM183.752 240V224.16H186.403V240H183.752ZM193.262 240L188.268 224.16H190.996L195.176 237.426L199.411 224.16H202.139L197.145 240H193.262ZM203.792 240V224.16H214.022V226.646H206.443V230.551H212.702V233.037H206.443V237.514H214.022V240H203.792ZM222.374 240.33C221.215 240.33 220.17 240.128 219.239 239.725C218.315 239.322 217.552 238.746 216.951 237.998C216.357 237.243 215.979 236.348 215.818 235.314L218.568 234.896C218.802 235.835 219.283 236.561 220.009 237.074C220.742 237.587 221.585 237.844 222.539 237.844C223.103 237.844 223.635 237.756 224.134 237.58C224.632 237.404 225.036 237.147 225.344 236.81C225.659 236.473 225.817 236.058 225.817 235.567C225.817 235.347 225.78 235.145 225.707 234.962C225.633 234.771 225.523 234.603 225.377 234.456C225.237 234.309 225.054 234.177 224.827 234.06C224.607 233.935 224.35 233.829 224.057 233.741L219.965 232.531C219.613 232.428 219.231 232.293 218.821 232.124C218.417 231.948 218.032 231.71 217.666 231.409C217.306 231.101 217.009 230.712 216.775 230.243C216.547 229.766 216.434 229.18 216.434 228.483C216.434 227.464 216.69 226.609 217.204 225.92C217.724 225.223 218.421 224.703 219.294 224.358C220.174 224.013 221.149 223.845 222.22 223.852C223.305 223.859 224.273 224.046 225.124 224.413C225.974 224.772 226.686 225.297 227.258 225.986C227.83 226.675 228.233 227.508 228.468 228.483L225.619 228.978C225.501 228.421 225.274 227.948 224.937 227.559C224.607 227.163 224.2 226.862 223.716 226.657C223.239 226.452 222.729 226.342 222.187 226.327C221.659 226.32 221.167 226.4 220.713 226.569C220.265 226.73 219.902 226.965 219.624 227.273C219.352 227.581 219.217 227.94 219.217 228.351C219.217 228.74 219.334 229.059 219.569 229.308C219.803 229.55 220.093 229.744 220.438 229.891C220.79 230.03 221.145 230.148 221.505 230.243L224.343 231.035C224.731 231.138 225.168 231.277 225.652 231.453C226.136 231.629 226.601 231.875 227.049 232.19C227.496 232.505 227.863 232.92 228.149 233.433C228.442 233.946 228.589 234.599 228.589 235.391C228.589 236.212 228.416 236.935 228.072 237.558C227.734 238.174 227.276 238.687 226.697 239.098C226.117 239.509 225.454 239.817 224.706 240.022C223.965 240.227 223.188 240.33 222.374 240.33ZM241.754 240.33C240.493 240.33 239.382 240.073 238.421 239.56C237.468 239.047 236.72 238.324 236.177 237.393C235.642 236.462 235.374 235.369 235.374 234.115V224.182L238.058 224.16V234.049C238.058 234.643 238.157 235.175 238.355 235.644C238.56 236.113 238.835 236.513 239.18 236.843C239.525 237.166 239.921 237.411 240.368 237.58C240.815 237.749 241.277 237.833 241.754 237.833C242.245 237.833 242.711 237.749 243.151 237.58C243.598 237.404 243.994 237.155 244.339 236.832C244.684 236.502 244.955 236.102 245.153 235.633C245.351 235.164 245.45 234.636 245.45 234.049V224.16H248.134V234.115C248.134 235.369 247.863 236.462 247.32 237.393C246.785 238.324 246.037 239.047 245.076 239.56C244.123 240.073 243.015 240.33 241.754 240.33ZM256.405 240.33C255.246 240.33 254.201 240.128 253.27 239.725C252.346 239.322 251.583 238.746 250.982 237.998C250.388 237.243 250.01 236.348 249.849 235.314L252.599 234.896C252.834 235.835 253.314 236.561 254.04 237.074C254.773 237.587 255.617 237.844 256.57 237.844C257.135 237.844 257.666 237.756 258.165 237.58C258.664 237.404 259.067 237.147 259.375 236.81C259.69 236.473 259.848 236.058 259.848 235.567C259.848 235.347 259.811 235.145 259.738 234.962C259.665 234.771 259.555 234.603 259.408 234.456C259.269 234.309 259.085 234.177 258.858 234.06C258.638 233.935 258.381 233.829 258.088 233.741L253.996 232.531C253.644 232.428 253.263 232.293 252.852 232.124C252.449 231.948 252.064 231.71 251.697 231.409C251.338 231.101 251.041 230.712 250.806 230.243C250.579 229.766 250.465 229.18 250.465 228.483C250.465 227.464 250.722 226.609 251.235 225.92C251.756 225.223 252.452 224.703 253.325 224.358C254.205 224.013 255.18 223.845 256.251 223.852C257.336 223.859 258.304 224.046 259.155 224.413C260.006 224.772 260.717 225.297 261.289 225.986C261.861 226.675 262.264 227.508 262.499 228.483L259.65 228.978C259.533 228.421 259.305 227.948 258.968 227.559C258.638 227.163 258.231 226.862 257.747 226.657C257.27 226.452 256.761 226.342 256.218 226.327C255.69 226.32 255.199 226.4 254.744 226.569C254.297 226.73 253.934 226.965 253.655 227.273C253.384 227.581 253.248 227.94 253.248 228.351C253.248 228.74 253.365 229.059 253.6 229.308C253.835 229.55 254.124 229.744 254.469 229.891C254.821 230.03 255.177 230.148 255.536 230.243L258.374 231.035C258.763 231.138 259.199 231.277 259.683 231.453C260.167 231.629 260.633 231.875 261.08 232.19C261.527 232.505 261.894 232.92 262.18 233.433C262.473 233.946 262.62 234.599 262.62 235.391C262.62 236.212 262.448 236.935 262.103 237.558C261.766 238.174 261.307 238.687 260.728 239.098C260.149 239.509 259.485 239.817 258.737 240.022C257.996 240.227 257.219 240.33 256.405 240.33ZM265.001 240V224.16H275.231V226.646H267.652V230.551H273.911V233.037H267.652V237.514H275.231V240H265.001ZM277.87 240V224.16H282.919C283.051 224.16 283.311 224.164 283.7 224.171C284.096 224.178 284.477 224.204 284.844 224.248C286.098 224.409 287.158 224.857 288.023 225.59C288.896 226.316 289.556 227.244 290.003 228.373C290.45 229.502 290.674 230.738 290.674 232.08C290.674 233.422 290.45 234.658 290.003 235.787C289.556 236.916 288.896 237.848 288.023 238.581C287.158 239.307 286.098 239.751 284.844 239.912C284.485 239.956 284.107 239.982 283.711 239.989C283.315 239.996 283.051 240 282.919 240H277.87ZM280.565 237.503H282.919C283.139 237.503 283.418 237.496 283.755 237.481C284.1 237.466 284.404 237.433 284.668 237.382C285.416 237.243 286.025 236.909 286.494 236.381C286.963 235.853 287.308 235.211 287.528 234.456C287.755 233.701 287.869 232.909 287.869 232.08C287.869 231.222 287.755 230.415 287.528 229.66C287.301 228.905 286.949 228.27 286.472 227.757C286.003 227.244 285.401 226.917 284.668 226.778C284.404 226.719 284.1 226.686 283.755 226.679C283.418 226.664 283.139 226.657 282.919 226.657H280.565V237.503ZM301.485 240V226.646H296.359V224.16H309.262V226.646H304.136V240H301.485ZM317.719 240.33C316.135 240.33 314.779 239.985 313.649 239.296C312.52 238.599 311.651 237.631 311.042 236.392C310.441 235.153 310.14 233.715 310.14 232.08C310.14 230.445 310.441 229.007 311.042 227.768C311.651 226.529 312.52 225.564 313.649 224.875C314.779 224.178 316.135 223.83 317.719 223.83C319.303 223.83 320.66 224.178 321.789 224.875C322.926 225.564 323.795 226.529 324.396 227.768C325.005 229.007 325.309 230.445 325.309 232.08C325.309 233.715 325.005 235.153 324.396 236.392C323.795 237.631 322.926 238.599 321.789 239.296C320.66 239.985 319.303 240.33 317.719 240.33ZM317.719 237.833C318.783 237.84 319.666 237.606 320.37 237.129C321.082 236.652 321.613 235.981 321.965 235.116C322.325 234.251 322.504 233.239 322.504 232.08C322.504 230.921 322.325 229.917 321.965 229.066C321.613 228.208 321.082 227.541 320.37 227.064C319.666 226.587 318.783 226.342 317.719 226.327C316.656 226.32 315.772 226.554 315.068 227.031C314.364 227.508 313.833 228.179 313.473 229.044C313.121 229.909 312.945 230.921 312.945 232.08C312.945 233.239 313.121 234.247 313.473 235.105C313.825 235.956 314.353 236.619 315.057 237.096C315.769 237.573 316.656 237.818 317.719 237.833ZM331.903 240V224.16H336.952C337.084 224.16 337.345 224.164 337.733 224.171C338.129 224.178 338.511 224.204 338.877 224.248C340.131 224.409 341.191 224.857 342.056 225.59C342.929 226.316 343.589 227.244 344.036 228.373C344.484 229.502 344.707 230.738 344.707 232.08C344.707 233.422 344.484 234.658 344.036 235.787C343.589 236.916 342.929 237.848 342.056 238.581C341.191 239.307 340.131 239.751 338.877 239.912C338.518 239.956 338.14 239.982 337.744 239.989C337.348 239.996 337.084 240 336.952 240H331.903ZM334.598 237.503H336.952C337.172 237.503 337.451 237.496 337.788 237.481C338.133 237.466 338.437 237.433 338.701 237.382C339.449 237.243 340.058 236.909 340.527 236.381C340.997 235.853 341.341 235.211 341.561 234.456C341.789 233.701 341.902 232.909 341.902 232.08C341.902 231.222 341.789 230.415 341.561 229.66C341.334 228.905 340.982 228.27 340.505 227.757C340.036 227.244 339.435 226.917 338.701 226.778C338.437 226.719 338.133 226.686 337.788 226.679C337.451 226.664 337.172 226.657 336.952 226.657H334.598V237.503ZM347.308 240V224.16H357.538V226.646H349.959V230.551H356.218V233.037H349.959V237.514H357.538V240H347.308ZM365.889 240.33C364.731 240.33 363.686 240.128 362.754 239.725C361.83 239.322 361.068 238.746 360.466 237.998C359.872 237.243 359.495 236.348 359.333 235.314L362.083 234.896C362.318 235.835 362.798 236.561 363.524 237.074C364.258 237.587 365.101 237.844 366.054 237.844C366.619 237.844 367.151 237.756 367.649 237.58C368.148 237.404 368.551 237.147 368.859 236.81C369.175 236.473 369.332 236.058 369.332 235.567C369.332 235.347 369.296 235.145 369.222 234.962C369.149 234.771 369.039 234.603 368.892 234.456C368.753 234.309 368.57 234.177 368.342 234.06C368.122 233.935 367.866 233.829 367.572 233.741L363.48 232.531C363.128 232.428 362.747 232.293 362.336 232.124C361.933 231.948 361.548 231.71 361.181 231.409C360.822 231.101 360.525 230.712 360.29 230.243C360.063 229.766 359.949 229.18 359.949 228.483C359.949 227.464 360.206 226.609 360.719 225.92C361.24 225.223 361.937 224.703 362.809 224.358C363.689 224.013 364.665 223.845 365.735 223.852C366.821 223.859 367.789 224.046 368.639 224.413C369.49 224.772 370.201 225.297 370.773 225.986C371.345 226.675 371.749 227.508 371.983 228.483L369.134 228.978C369.017 228.421 368.79 227.948 368.452 227.559C368.122 227.163 367.715 226.862 367.231 226.657C366.755 226.452 366.245 226.342 365.702 226.327C365.174 226.32 364.683 226.4 364.228 226.569C363.781 226.73 363.418 226.965 363.139 227.273C362.868 227.581 362.732 227.94 362.732 228.351C362.732 228.74 362.85 229.059 363.084 229.308C363.319 229.55 363.609 229.744 363.953 229.891C364.305 230.03 364.661 230.148 365.02 230.243L367.858 231.035C368.247 231.138 368.683 231.277 369.167 231.453C369.651 231.629 370.117 231.875 370.564 232.19C371.012 232.505 371.378 232.92 371.664 233.433C371.958 233.946 372.104 234.599 372.104 235.391C372.104 236.212 371.932 236.935 371.587 237.558C371.25 238.174 370.792 238.687 370.212 239.098C369.633 239.509 368.969 239.817 368.221 240.022C367.481 240.227 366.703 240.33 365.889 240.33ZM381.184 240.33C379.6 240.33 378.244 239.985 377.114 239.296C375.985 238.599 375.116 237.631 374.507 236.392C373.906 235.153 373.605 233.715 373.605 232.08C373.605 230.445 373.906 229.007 374.507 227.768C375.116 226.529 375.985 225.564 377.114 224.875C378.244 224.178 379.6 223.83 381.184 223.83C383.01 223.83 384.532 224.288 385.749 225.205C386.967 226.114 387.821 227.343 388.312 228.89L385.639 229.627C385.331 228.593 384.807 227.786 384.066 227.207C383.326 226.62 382.365 226.327 381.184 226.327C380.121 226.327 379.234 226.565 378.522 227.042C377.818 227.519 377.287 228.19 376.927 229.055C376.575 229.913 376.396 230.921 376.388 232.08C376.388 233.239 376.564 234.251 376.916 235.116C377.276 235.974 377.811 236.641 378.522 237.118C379.234 237.595 380.121 237.833 381.184 237.833C382.365 237.833 383.326 237.54 384.066 236.953C384.807 236.366 385.331 235.56 385.639 234.533L388.312 235.27C387.821 236.817 386.967 238.049 385.749 238.966C384.532 239.875 383.01 240.33 381.184 240.33ZM390.728 240V224.16H397.273C397.427 224.16 397.625 224.167 397.867 224.182C398.109 224.189 398.332 224.211 398.538 224.248C399.454 224.387 400.21 224.692 400.803 225.161C401.405 225.63 401.849 226.224 402.135 226.943C402.428 227.654 402.575 228.446 402.575 229.319C402.575 230.61 402.248 231.721 401.596 232.652C400.943 233.576 399.942 234.148 398.593 234.368L397.46 234.467H393.379V240H390.728ZM399.825 240L396.701 233.554L399.396 232.96L402.828 240H399.825ZM393.379 231.992H397.163C397.309 231.992 397.474 231.985 397.658 231.97C397.841 231.955 398.01 231.926 398.164 231.882C398.604 231.772 398.948 231.578 399.198 231.299C399.454 231.02 399.634 230.705 399.737 230.353C399.847 230.001 399.902 229.656 399.902 229.319C399.902 228.982 399.847 228.637 399.737 228.285C399.634 227.926 399.454 227.607 399.198 227.328C398.948 227.049 398.604 226.855 398.164 226.745C398.01 226.701 397.841 226.675 397.658 226.668C397.474 226.653 397.309 226.646 397.163 226.646H393.379V231.992ZM405.471 240V224.16H408.122V240H405.471ZM411.417 240V224.16H417.698C418.769 224.16 419.645 224.376 420.327 224.809C421.016 225.234 421.526 225.781 421.856 226.448C422.193 227.115 422.362 227.805 422.362 228.516C422.362 229.389 422.153 230.129 421.735 230.738C421.324 231.347 420.763 231.757 420.052 231.97V231.42C421.049 231.647 421.805 232.12 422.318 232.839C422.839 233.558 423.099 234.375 423.099 235.292C423.099 236.231 422.919 237.052 422.56 237.756C422.201 238.46 421.665 239.01 420.954 239.406C420.25 239.802 419.377 240 418.336 240H411.417ZM414.101 237.503H418.006C418.468 237.503 418.882 237.411 419.249 237.228C419.616 237.037 419.902 236.773 420.107 236.436C420.32 236.091 420.426 235.684 420.426 235.215C420.426 234.79 420.334 234.408 420.151 234.071C419.968 233.734 419.7 233.466 419.348 233.268C418.996 233.063 418.574 232.96 418.083 232.96H414.101V237.503ZM414.101 230.485H417.665C418.046 230.485 418.387 230.412 418.688 230.265C418.989 230.118 419.227 229.902 419.403 229.616C419.579 229.33 419.667 228.978 419.667 228.56C419.667 228.01 419.491 227.552 419.139 227.185C418.787 226.818 418.296 226.635 417.665 226.635H414.101V230.485ZM425.296 240V224.16H435.526V226.646H427.947V230.551H434.206V233.037H427.947V237.514H435.526V240H425.296ZM442.569 240V224.16H449.114C449.268 224.16 449.466 224.167 449.708 224.182C449.95 224.189 450.174 224.211 450.379 224.248C451.296 224.387 452.051 224.692 452.645 225.161C453.247 225.63 453.69 226.224 453.976 226.943C454.27 227.654 454.416 228.446 454.416 229.319C454.416 230.184 454.27 230.976 453.976 231.695C453.683 232.406 453.236 232.997 452.634 233.466C452.04 233.935 451.289 234.24 450.379 234.379C450.174 234.408 449.947 234.43 449.697 234.445C449.455 234.46 449.261 234.467 449.114 234.467H445.22V240H442.569ZM445.22 231.992H449.004C449.151 231.992 449.316 231.985 449.499 231.97C449.683 231.955 449.851 231.926 450.005 231.882C450.445 231.772 450.79 231.578 451.039 231.299C451.296 231.02 451.476 230.705 451.578 230.353C451.688 230.001 451.743 229.656 451.743 229.319C451.743 228.982 451.688 228.637 451.578 228.285C451.476 227.926 451.296 227.607 451.039 227.328C450.79 227.049 450.445 226.855 450.005 226.745C449.851 226.701 449.683 226.675 449.499 226.668C449.316 226.653 449.151 226.646 449.004 226.646H445.22V231.992ZM463.319 240.33C461.735 240.33 460.378 239.985 459.249 239.296C458.12 238.599 457.251 237.631 456.642 236.392C456.041 235.153 455.74 233.715 455.74 232.08C455.74 230.445 456.041 229.007 456.642 227.768C457.251 226.529 458.12 225.564 459.249 224.875C460.378 224.178 461.735 223.83 463.319 223.83C464.903 223.83 466.26 224.178 467.389 224.875C468.526 225.564 469.395 226.529 469.996 227.768C470.605 229.007 470.909 230.445 470.909 232.08C470.909 233.715 470.605 235.153 469.996 236.392C469.395 237.631 468.526 238.599 467.389 239.296C466.26 239.985 464.903 240.33 463.319 240.33ZM463.319 237.833C464.382 237.84 465.266 237.606 465.97 237.129C466.681 236.652 467.213 235.981 467.565 235.116C467.924 234.251 468.104 233.239 468.104 232.08C468.104 230.921 467.924 229.917 467.565 229.066C467.213 228.208 466.681 227.541 465.97 227.064C465.266 226.587 464.382 226.342 463.319 226.327C462.256 226.32 461.372 226.554 460.668 227.031C459.964 227.508 459.432 228.179 459.073 229.044C458.721 229.909 458.545 230.921 458.545 232.08C458.545 233.239 458.721 234.247 459.073 235.105C459.425 235.956 459.953 236.619 460.657 237.096C461.368 237.573 462.256 237.818 463.319 237.833ZM479.798 240.33C478.214 240.33 476.857 239.985 475.728 239.296C474.598 238.599 473.729 237.631 473.121 236.392C472.519 235.153 472.219 233.715 472.219 232.08C472.219 230.445 472.519 229.007 473.121 227.768C473.729 226.529 474.598 225.564 475.728 224.875C476.857 224.178 478.214 223.83 479.798 223.83C481.382 223.83 482.738 224.178 483.868 224.875C485.004 225.564 485.873 226.529 486.475 227.768C487.083 229.007 487.388 230.445 487.388 232.08C487.388 233.715 487.083 235.153 486.475 236.392C485.873 237.631 485.004 238.599 483.868 239.296C482.738 239.985 481.382 240.33 479.798 240.33ZM479.798 237.833C480.861 237.84 481.745 237.606 482.449 237.129C483.16 236.652 483.692 235.981 484.044 235.116C484.403 234.251 484.583 233.239 484.583 232.08C484.583 230.921 484.403 229.917 484.044 229.066C483.692 228.208 483.16 227.541 482.449 227.064C481.745 226.587 480.861 226.342 479.798 226.327C478.734 226.32 477.851 226.554 477.147 227.031C476.443 227.508 475.911 228.179 475.552 229.044C475.2 229.909 475.024 230.921 475.024 232.08C475.024 233.239 475.2 234.247 475.552 235.105C475.904 235.956 476.432 236.619 477.136 237.096C477.847 237.573 478.734 237.818 479.798 237.833ZM489.577 240V224.16H496.122C496.276 224.16 496.474 224.167 496.716 224.182C496.958 224.189 497.182 224.211 497.387 224.248C498.304 224.387 499.059 224.692 499.653 225.161C500.254 225.63 500.698 226.224 500.984 226.943C501.277 227.654 501.424 228.446 501.424 229.319C501.424 230.184 501.277 230.976 500.984 231.695C500.691 232.406 500.243 232.997 499.642 233.466C499.048 233.935 498.296 234.24 497.387 234.379C497.182 234.408 496.954 234.43 496.705 234.445C496.463 234.46 496.269 234.467 496.122 234.467H492.228V240H489.577ZM492.228 231.992H496.012C496.159 231.992 496.324 231.985 496.507 231.97C496.69 231.955 496.859 231.926 497.013 231.882C497.453 231.772 497.798 231.578 498.047 231.299C498.304 231.02 498.483 230.705 498.586 230.353C498.696 230.001 498.751 229.656 498.751 229.319C498.751 228.982 498.696 228.637 498.586 228.285C498.483 227.926 498.304 227.607 498.047 227.328C497.798 227.049 497.453 226.855 497.013 226.745C496.859 226.701 496.69 226.675 496.507 226.668C496.324 226.653 496.159 226.646 496.012 226.646H492.228V231.992Z" fill="white"></path> <path d="M152.67 178.308C152.553 177.252 152.7 176.299 153.11 175.448C153.55 174.568 154.166 173.717 154.958 172.896L157.642 172.676C158.053 172.617 158.302 172.588 158.39 172.588C158.83 172.588 159.388 173.131 160.062 174.216C160.121 174.392 160.18 174.612 160.238 174.876C160.297 175.111 160.385 175.301 160.502 175.448L165.606 182.532C166.369 183.5 167.117 184.512 167.85 185.568L168.598 183.148C169.537 180.068 170.388 177.575 171.15 175.668C171.942 173.732 172.969 171.899 174.23 170.168L176.342 170.476C176.9 170.916 177.09 171.503 176.914 172.236C176.65 173.292 176.372 174.084 176.078 174.612C175.374 176.401 174.788 178.22 174.318 180.068C173.849 181.887 173.321 184.189 172.734 186.976C172.646 187.357 172.529 187.929 172.382 188.692C172.148 189.865 171.693 190.745 171.018 191.332C170.344 191.889 169.42 192.197 168.246 192.256C167.073 192.315 166.061 191.831 165.21 190.804C164.33 189.748 163.23 188.325 161.91 186.536L161.03 185.348C160.238 184.292 159.036 182.737 157.422 180.684L157.026 182.576C156.586 184.688 156.322 186.345 156.234 187.548L155.97 192.872C155.941 193.459 155.912 194.207 155.882 195.116C155.853 195.996 155.794 197.037 155.706 198.24C155.677 199.12 155.369 199.883 154.782 200.528C154.225 201.173 153.521 201.613 152.67 201.848C152.23 201.965 151.688 201.848 151.042 201.496C150.426 201.173 150.06 200.792 149.942 200.352C149.737 199.589 149.634 198.915 149.634 198.328C149.634 197.8 149.708 197.331 149.854 196.92C150.118 196.216 150.294 195.101 150.382 193.576C150.441 192.637 150.514 191.933 150.602 191.464C150.984 188.765 151.57 185.04 152.362 180.288C152.392 180.053 152.45 179.745 152.538 179.364C152.656 178.953 152.7 178.601 152.67 178.308ZM203.043 176.416C203.219 177.677 203.395 179.511 203.571 181.916L203.659 184.204C203.659 188.457 204.217 192.256 205.331 195.6C205.478 196.069 205.551 196.671 205.551 197.404C205.551 197.815 205.522 198.372 205.463 199.076C205.434 199.545 205.258 199.912 204.935 200.176C204.613 200.469 204.202 200.616 203.703 200.616C203.645 200.616 203.483 200.587 203.219 200.528C202.486 200.352 201.929 200.029 201.547 199.56C201.166 199.061 200.975 198.46 200.975 197.756C200.975 197.521 200.99 197.345 201.019 197.228C201.019 197.052 201.019 196.803 201.019 196.48C201.019 195.952 200.99 195.468 200.931 195.028C200.697 193.884 200.33 192.359 199.831 190.452C199.655 189.66 199.289 189.264 198.731 189.264C198.526 189.264 198.291 189.308 198.027 189.396C197.118 189.66 196.311 189.909 195.607 190.144C194.933 190.379 194.331 190.569 193.803 190.716L191.691 191.332C190.489 191.684 189.374 191.963 188.347 192.168C187.262 192.403 186.47 193.004 185.971 193.972C185.502 194.852 184.827 196.04 183.947 197.536C183.39 198.533 182.657 199.032 181.747 199.032C181.307 199.032 180.867 198.929 180.427 198.724C180.017 198.489 179.665 198.196 179.371 197.844C178.931 197.345 178.711 196.861 178.711 196.392C178.711 196.069 178.799 195.732 178.975 195.38L182.011 189.22C185.355 182.415 187.35 178.337 187.995 176.988C189.843 173.409 192.351 170.945 195.519 169.596C196.194 169.273 196.883 169.112 197.587 169.112C198.467 169.112 199.274 169.347 200.007 169.816C200.77 170.256 201.357 170.887 201.767 171.708C202.354 172.911 202.779 174.48 203.043 176.416ZM188.831 187.548C192.85 186.844 196.267 186.272 199.083 185.832C199.025 183.016 198.937 180.801 198.819 179.188C198.731 177.545 198.526 175.903 198.203 174.26C196.649 174.436 195.475 175.199 194.683 176.548C193.305 178.719 191.985 180.963 190.723 183.28C190.518 183.661 190.137 184.512 189.579 185.832L188.831 187.548ZM234.667 189.22C234.697 188.927 234.711 188.472 234.711 187.856C234.741 187.651 234.755 187.313 234.755 186.844L233.743 187.812C232.893 188.604 232.233 189.191 231.763 189.572C231.089 190.071 230.502 190.305 230.003 190.276C228.859 190.188 227.877 189.953 227.055 189.572C226.263 189.161 225.662 188.472 225.251 187.504L223.403 183.016C223.374 183.045 223.286 183.148 223.139 183.324C223.022 183.471 222.934 183.632 222.875 183.808C221.585 186.888 220.265 190.173 218.915 193.664C218.153 195.629 217.493 197.58 216.935 199.516C216.789 200.015 216.539 200.367 216.187 200.572C215.865 200.777 215.439 200.88 214.911 200.88C214.061 200.88 213.254 200.572 212.491 199.956C211.758 199.34 211.391 198.592 211.391 197.712C211.391 197.389 211.465 197.037 211.611 196.656C212.257 194.955 212.726 193.679 213.019 192.828C214.515 188.809 215.791 185.583 216.847 183.148C217.933 180.684 219.267 178.308 220.851 176.02C221.467 175.111 221.863 174.568 222.039 174.392C222.567 173.747 223.227 173.424 224.019 173.424C224.195 173.424 224.43 173.453 224.723 173.512C225.926 173.747 226.733 173.967 227.143 174.172C227.583 174.348 227.877 174.656 228.023 175.096C228.199 175.507 228.39 176.313 228.595 177.516L229.387 183.104C230.003 182.752 230.693 182.18 231.455 181.388C232.247 180.567 232.995 179.657 233.699 178.66C233.611 178.777 234.066 178.191 235.063 176.9C235.386 176.519 235.841 175.947 236.427 175.184C236.926 174.48 237.586 174.128 238.407 174.128C238.701 174.128 238.994 174.172 239.287 174.26C240.343 174.495 241.106 174.847 241.575 175.316C242.045 175.785 242.279 176.46 242.279 177.34C242.279 177.868 242.221 178.411 242.103 178.968L241.179 183.544C240.065 189.235 239.449 192.432 239.331 193.136L237.923 201.32C237.718 202.728 237.381 204.811 236.911 207.568C236.882 207.891 236.779 208.345 236.603 208.932C236.515 209.196 236.383 209.651 236.207 210.296C236.031 210.941 235.914 211.513 235.855 212.012C235.797 212.511 235.65 212.877 235.415 213.112C235.181 213.376 234.829 213.523 234.359 213.552C233.802 213.581 233.347 213.449 232.995 213.156C232.643 212.892 232.453 212.496 232.423 211.968L232.379 209.064C232.379 208.096 232.423 207.128 232.511 206.16C232.893 202.757 233.333 199.311 233.831 195.82L234.667 189.22ZM256.173 183.192L257.757 182.972C258.901 182.796 259.678 182.693 260.089 182.664L261.145 182.576C261.497 182.547 261.937 182.517 262.465 182.488C262.993 182.459 263.594 182.444 264.269 182.444C264.914 182.444 265.383 182.459 265.677 182.488C266.703 182.576 267.451 182.913 267.921 183.5C268.419 184.087 268.713 184.967 268.801 186.14C268.683 186.14 268.507 186.125 268.273 186.096C268.038 186.067 267.847 186.037 267.701 186.008C266.879 185.861 266.131 185.788 265.457 185.788C264.665 185.788 263.902 185.891 263.169 186.096C261.291 186.683 258.886 187.299 255.953 187.944C255.395 188.091 254.955 188.325 254.633 188.648C254.339 188.941 254.149 189.367 254.061 189.924C253.885 191.039 253.665 192.153 253.401 193.268C253.195 194.295 253.034 195.145 252.917 195.82C252.887 196.055 252.873 196.363 252.873 196.744C252.873 197.096 252.873 197.345 252.873 197.492C253.342 197.58 253.826 197.624 254.325 197.624C255.293 197.624 256.481 197.433 257.889 197.052C260.47 196.436 263.066 195.776 265.677 195.072L270.517 193.84C272.042 193.459 273.245 193.121 274.125 192.828C276.031 192.3 277.41 191.933 278.261 191.728C278.613 191.669 278.877 191.64 279.053 191.64C279.786 191.64 280.27 191.933 280.505 192.52C280.593 192.725 280.637 192.931 280.637 193.136C280.637 193.488 280.519 193.825 280.285 194.148C280.05 194.471 279.727 194.735 279.317 194.94C278.759 195.175 277.997 195.424 277.029 195.688C274.213 196.509 271.719 197.287 269.549 198.02C265.325 199.369 262.186 200.323 260.133 200.88C259.311 201.115 258.079 201.32 256.437 201.496L254.809 201.716C253.811 201.833 252.917 201.496 252.125 200.704L251.333 199.912C250.365 199.003 249.617 198.211 249.089 197.536C248.707 197.037 248.546 196.348 248.605 195.468C248.693 194.441 248.883 192.872 249.177 190.76L249.353 189.352L249.485 188.032C248.605 187.768 247.915 187.445 247.417 187.064C246.947 186.653 246.698 186.008 246.669 185.128C247.607 185.011 248.311 184.952 248.781 184.952C249.309 184.923 249.734 184.791 250.057 184.556C250.379 184.321 250.629 183.94 250.805 183.412C251.127 182.356 251.67 180.801 252.433 178.748C252.667 177.985 252.961 177.135 253.313 176.196C253.459 175.727 253.562 175.14 253.621 174.436C253.621 173.908 253.738 173.497 253.973 173.204C254.237 172.881 254.647 172.632 255.205 172.456C257.874 171.635 261.35 171.004 265.633 170.564C267.041 170.417 268.434 170.373 269.813 170.432C271.749 170.432 273.186 171.165 274.125 172.632C274.389 172.984 274.521 173.453 274.521 174.04C274.521 174.304 274.491 174.495 274.433 174.612C274.257 175.023 273.993 175.375 273.641 175.668C273.318 175.932 272.907 176.064 272.409 176.064L270.693 176.108C269.871 176.167 269.27 176.196 268.889 176.196C268.067 176.196 267.51 176.049 267.217 175.756C266.806 175.345 266.293 175.14 265.677 175.14C265.501 175.14 265.207 175.169 264.797 175.228L260.441 176.24L258.681 176.68L256.173 183.192ZM303.736 184.82C303.824 183.617 303.912 182.517 304 181.52C304.088 180.493 304.176 179.569 304.264 178.748L304.616 175.228C302.328 175.58 299.894 176.255 297.312 177.252C296.696 177.487 296.124 177.604 295.596 177.604C294.804 177.604 294.071 177.384 293.396 176.944C292.751 176.504 292.238 175.859 291.856 175.008C292.032 174.363 292.355 173.879 292.824 173.556C293.323 173.233 293.998 172.911 294.848 172.588C298.926 171.092 303.59 170.359 308.84 170.388C311.334 170.388 313.93 170.491 316.628 170.696C319.356 170.901 320.955 171.019 321.424 171.048L324.504 171.268C324.622 171.268 324.812 171.268 325.076 171.268C325.37 171.268 325.604 171.341 325.78 171.488C325.956 171.605 326.044 171.811 326.044 172.104C326.044 172.837 325.516 173.263 324.46 173.38C321.82 173.673 319.943 173.879 318.828 173.996C317.684 174.055 316.819 174.113 316.232 174.172C313.944 174.319 312.228 174.436 311.084 174.524C310.38 174.583 309.896 174.671 309.632 174.788C309.368 174.876 309.192 175.052 309.104 175.316C309.046 175.551 308.987 176.064 308.928 176.856C308.782 178.704 308.474 181.887 308.004 186.404C307.535 190.481 307.242 193.297 307.124 194.852C307.095 195.703 306.904 196.729 306.552 197.932C306.318 198.695 306.127 199.208 305.98 199.472C305.834 199.707 305.614 199.853 305.32 199.912C305.056 199.971 304.543 199.985 303.78 199.956C303.223 199.956 302.783 199.839 302.46 199.604C302.167 199.34 302.02 198.988 302.02 198.548C302.02 198.46 302.05 198.269 302.108 197.976C302.754 195.424 303.296 191.039 303.736 184.82ZM326.209 193.62C326.678 191.625 327.045 190.129 327.309 189.132L328.233 185.348C328.145 185.231 327.969 185.04 327.705 184.776C327.441 184.483 327.221 184.204 327.045 183.94C326.869 183.676 326.781 183.456 326.781 183.28C326.781 183.075 326.884 182.884 327.089 182.708C327.324 182.532 327.676 182.312 328.145 182.048C329.494 181.344 330.36 180.185 330.741 178.572L332.721 170.124C332.809 169.772 332.926 169.508 333.073 169.332C333.22 169.127 333.469 169.039 333.821 169.068C335.17 169.156 336.241 169.596 337.033 170.388C337.825 171.151 338.221 172.045 338.221 173.072C338.221 173.512 338.133 173.981 337.957 174.48C337.605 175.389 337.253 176.607 336.901 178.132L336.461 179.892L337.429 180.024C337.928 180.112 338.368 180.156 338.749 180.156L341.785 180.024C343.134 179.965 344.146 179.936 344.821 179.936C345.701 179.907 346.273 179.452 346.537 178.572L347.989 173.336C348.048 173.131 348.238 172.544 348.561 171.576C349.94 171.605 351.04 172.045 351.861 172.896C352.712 173.747 353.137 174.773 353.137 175.976C353.137 176.387 353.064 176.856 352.917 177.384C350.893 184.395 348.458 190.907 345.613 196.92C345.114 198.005 344.293 199.384 343.149 201.056L342.137 202.64C341.726 203.315 341.242 203.652 340.685 203.652C340.568 203.652 340.392 203.623 340.157 203.564C339.541 203.359 339.057 203.124 338.705 202.86C338.382 202.625 338.236 202.259 338.265 201.76C338.324 200.851 338.397 200.103 338.485 199.516C338.573 198.929 338.72 198.357 338.925 197.8C339.306 196.861 340.128 194.881 341.389 191.86C341.624 191.332 341.902 190.716 342.225 190.012C342.548 189.279 342.885 188.457 343.237 187.548C343.384 187.225 343.574 186.565 343.809 185.568C343.838 185.333 343.912 184.981 344.029 184.512C343.53 184.571 342.812 184.629 341.873 184.688L339.277 184.952C339.042 184.981 338.617 185.055 338.001 185.172C337.238 185.377 336.52 185.495 335.845 185.524C334.936 185.641 334.32 186.155 333.997 187.064C333.44 188.707 332.574 191.171 331.401 194.456C331.313 194.72 331.166 195.145 330.961 195.732C330.756 196.319 330.521 196.832 330.257 197.272C329.993 197.712 329.67 198.079 329.289 198.372C328.028 198.02 327.162 197.653 326.693 197.272C326.224 196.861 325.989 196.245 325.989 195.424C325.989 195.013 326.062 194.412 326.209 193.62ZM383.048 195.776C383.136 196.069 383.18 196.348 383.18 196.612C383.18 197.081 383.033 197.463 382.74 197.756C382.476 198.02 382.109 198.152 381.64 198.152C381.464 198.152 381.317 198.137 381.2 198.108C379.88 197.815 378.839 197.492 378.076 197.14C377.489 196.876 376.404 196.216 374.82 195.16C373.617 194.368 372.62 193.752 371.828 193.312C370.801 192.755 369.701 192.373 368.528 192.168C368 192.08 366.753 191.933 364.788 191.728C363.908 191.669 363.263 191.611 362.852 191.552L362.06 198.064L362.104 198.768C362.104 199.824 361.972 200.528 361.708 200.88C361.473 201.232 360.975 201.408 360.212 201.408C359.42 201.408 358.731 201.159 358.144 200.66C357.557 200.161 357.264 199.545 357.264 198.812C357.264 196.583 357.381 194.603 357.616 192.872C358.437 187.563 360.329 182.048 363.292 176.328C364.964 173.131 367.531 170.667 370.992 168.936C372.107 168.379 373.236 168.1 374.38 168.1C375.553 168.1 376.639 168.408 377.636 169.024C378.663 169.611 379.513 170.476 380.188 171.62C380.804 172.647 381.112 173.644 381.112 174.612C381.112 175.961 380.584 177.325 379.528 178.704C378.267 180.347 376.477 182.679 374.16 185.7L371.3 189.396C371.329 189.396 371.359 189.44 371.388 189.528C371.447 189.587 371.505 189.645 371.564 189.704L372.532 190.232C374.967 191.552 376.756 192.593 377.9 193.356C379.015 194.031 380.203 194.368 381.464 194.368C381.845 194.368 382.139 194.353 382.344 194.324C382.432 194.471 382.549 194.691 382.696 194.984C382.843 195.277 382.96 195.541 383.048 195.776ZM366.768 187.064C367.971 185.715 369.173 184.307 370.376 182.84C371.608 181.373 372.693 179.995 373.632 178.704C374.013 178.176 374.336 177.619 374.6 177.032C374.864 176.416 375.099 175.8 375.304 175.184C375.539 174.568 375.7 174.128 375.788 173.864C375.817 173.776 375.832 173.629 375.832 173.424C375.832 173.189 375.803 172.896 375.744 172.544C375.685 172.192 375.641 171.943 375.612 171.796C373.471 172.441 371.52 173.761 369.76 175.756C368 177.751 366.607 179.965 365.58 182.4C364.583 184.835 364.069 186.932 364.04 188.692C364.627 188.751 365.081 188.648 365.404 188.384C365.756 188.12 366.211 187.68 366.768 187.064ZM399.48 183.632C399.48 183.749 399.495 183.881 399.524 184.028C399.553 184.145 399.583 184.263 399.612 184.38C399.847 184.409 400.199 184.424 400.668 184.424C402.721 184.424 404.833 183.984 407.004 183.104C407.62 182.869 408.133 182.752 408.544 182.752C409.365 182.752 410.04 183.133 410.568 183.896C410.832 184.307 410.964 184.659 410.964 184.952C410.964 185.304 410.773 185.671 410.392 186.052C409.219 187.137 407.972 187.753 406.652 187.9C405.479 188.047 403.719 188.296 401.372 188.648L398.292 189.088C397.823 190.115 397.588 191.112 397.588 192.08C397.588 193.488 398.072 194.661 399.04 195.6C400.037 196.509 401.387 196.993 403.088 197.052C404.819 197.081 407.033 196.964 409.732 196.7L410.392 196.656C411.125 196.656 411.727 196.832 412.196 197.184C412.695 197.507 413.164 198.093 413.604 198.944C413.281 199.648 412.827 200.117 412.24 200.352C411.653 200.616 410.891 200.807 409.952 200.924C408.984 201.041 407.884 201.1 406.652 201.1C403.983 201.1 401.577 200.675 399.436 199.824C395.652 198.357 393.232 195.82 392.176 192.212C392.029 191.713 391.956 191.185 391.956 190.628C391.956 190.041 391.956 189.689 391.956 189.572C391.956 188.575 391.472 187.841 390.504 187.372C389.712 186.932 389.096 186.507 388.656 186.096C388.245 185.685 387.981 185.069 387.864 184.248L392.836 183.94L395.08 177.472C395.139 177.267 395.197 177.017 395.256 176.724C395.344 176.401 395.432 176.152 395.52 175.976C395.784 175.389 395.916 174.905 395.916 174.524C395.916 173.937 395.637 173.424 395.08 172.984C394.875 172.837 394.699 172.573 394.552 172.192C394.435 171.781 394.317 171.459 394.2 171.224L395.168 170.916C395.637 170.799 395.975 170.696 396.18 170.608C396.297 170.549 396.547 170.447 396.928 170.3C397.309 170.124 397.529 169.933 397.588 169.728C397.793 169.229 398.043 168.892 398.336 168.716C398.659 168.54 399.04 168.452 399.48 168.452C399.773 168.452 400.213 168.481 400.8 168.54C400.976 168.54 401.152 168.584 401.328 168.672C401.533 168.731 401.695 168.819 401.812 168.936C402.487 169.64 403.235 170.109 404.056 170.344C404.877 170.579 405.845 170.696 406.96 170.696H408.852H412.548C415.041 170.696 416.904 170.725 418.136 170.784C418.781 170.813 419.603 171.092 420.6 171.62C420.776 171.708 420.908 171.884 420.996 172.148C421.113 172.383 421.172 172.617 421.172 172.852C421.172 172.969 421.069 173.116 420.864 173.292C420.659 173.439 420.468 173.541 420.292 173.6C418.297 174.128 416.787 174.436 415.76 174.524C414.176 174.671 411.8 174.861 408.632 175.096C407.899 175.125 406.725 175.199 405.112 175.316C404.995 175.316 404.789 175.287 404.496 175.228C404.203 175.14 403.983 175.096 403.836 175.096C402.751 175.096 402.061 175.551 401.768 176.46C400.976 178.807 400.228 181.139 399.524 183.456L399.48 183.632ZM431.786 183.192L433.37 182.972C434.514 182.796 435.291 182.693 435.702 182.664L436.758 182.576C437.11 182.547 437.55 182.517 438.078 182.488C438.606 182.459 439.207 182.444 439.882 182.444C440.527 182.444 440.997 182.459 441.29 182.488C442.317 182.576 443.065 182.913 443.534 183.5C444.033 184.087 444.326 184.967 444.414 186.14C444.297 186.14 444.121 186.125 443.886 186.096C443.651 186.067 443.461 186.037 443.314 186.008C442.493 185.861 441.745 185.788 441.07 185.788C440.278 185.788 439.515 185.891 438.782 186.096C436.905 186.683 434.499 187.299 431.566 187.944C431.009 188.091 430.569 188.325 430.246 188.648C429.953 188.941 429.762 189.367 429.674 189.924C429.498 191.039 429.278 192.153 429.014 193.268C428.809 194.295 428.647 195.145 428.53 195.82C428.501 196.055 428.486 196.363 428.486 196.744C428.486 197.096 428.486 197.345 428.486 197.492C428.955 197.58 429.439 197.624 429.938 197.624C430.906 197.624 432.094 197.433 433.502 197.052C436.083 196.436 438.679 195.776 441.29 195.072L446.13 193.84C447.655 193.459 448.858 193.121 449.738 192.828C451.645 192.3 453.023 191.933 453.874 191.728C454.226 191.669 454.49 191.64 454.666 191.64C455.399 191.64 455.883 191.933 456.118 192.52C456.206 192.725 456.25 192.931 456.25 193.136C456.25 193.488 456.133 193.825 455.898 194.148C455.663 194.471 455.341 194.735 454.93 194.94C454.373 195.175 453.61 195.424 452.642 195.688C449.826 196.509 447.333 197.287 445.162 198.02C440.938 199.369 437.799 200.323 435.746 200.88C434.925 201.115 433.693 201.32 432.05 201.496L430.422 201.716C429.425 201.833 428.53 201.496 427.738 200.704L426.946 199.912C425.978 199.003 425.23 198.211 424.702 197.536C424.321 197.037 424.159 196.348 424.218 195.468C424.306 194.441 424.497 192.872 424.79 190.76L424.966 189.352L425.098 188.032C424.218 187.768 423.529 187.445 423.03 187.064C422.561 186.653 422.311 186.008 422.282 185.128C423.221 185.011 423.925 184.952 424.394 184.952C424.922 184.923 425.347 184.791 425.67 184.556C425.993 184.321 426.242 183.94 426.418 183.412C426.741 182.356 427.283 180.801 428.046 178.748C428.281 177.985 428.574 177.135 428.926 176.196C429.073 175.727 429.175 175.14 429.234 174.436C429.234 173.908 429.351 173.497 429.586 173.204C429.85 172.881 430.261 172.632 430.818 172.456C433.487 171.635 436.963 171.004 441.246 170.564C442.654 170.417 444.047 170.373 445.426 170.432C447.362 170.432 448.799 171.165 449.738 172.632C450.002 172.984 450.134 173.453 450.134 174.04C450.134 174.304 450.105 174.495 450.046 174.612C449.87 175.023 449.606 175.375 449.254 175.668C448.931 175.932 448.521 176.064 448.022 176.064L446.306 176.108C445.485 176.167 444.883 176.196 444.502 176.196C443.681 176.196 443.123 176.049 442.83 175.756C442.419 175.345 441.906 175.14 441.29 175.14C441.114 175.14 440.821 175.169 440.41 175.228L436.054 176.24L434.294 176.68L431.786 183.192Z" fill="white"></path> </g> <defs> <clipPath id="clip0_1320_126"> <rect width="600" height="400" rx="20" fill="white"></rect> </clipPath> </defs> </svg> 