<?xml version="1.0" encoding="UTF-8"?> <svg xmlns="http://www.w3.org/2000/svg" width="600" height="400" viewBox="0 0 600 400" fill="none"> <g clip-path="url(#clip0_1320_141)"> <rect width="600" height="400" rx="20" fill="#6E48AA"></rect> <path d="M94.0358 240.33C92.8771 240.33 91.8321 240.128 90.9008 239.725C89.9768 239.322 89.2141 238.746 88.6128 237.998C88.0188 237.243 87.6411 236.348 87.4798 235.314L90.2298 234.896C90.4645 235.835 90.9448 236.561 91.6708 237.074C92.4041 237.587 93.2475 237.844 94.2008 237.844C94.7655 237.844 95.2971 237.756 95.7958 237.58C96.2945 237.404 96.6978 237.147 97.0058 236.81C97.3211 236.473 97.4788 236.058 97.4788 235.567C97.4788 235.347 97.4421 235.145 97.3688 234.962C97.2955 234.771 97.1855 234.603 97.0388 234.456C96.8995 234.309 96.7161 234.177 96.4888 234.06C96.2688 233.935 96.0121 233.829 95.7188 233.741L91.6268 232.531C91.2748 232.428 90.8935 232.293 90.4828 232.124C90.0795 231.948 89.6945 231.71 89.3278 231.409C88.9685 231.101 88.6715 230.712 88.4368 230.243C88.2095 229.766 88.0958 229.18 88.0958 228.483C88.0958 227.464 88.3525 226.609 88.8658 225.92C89.3865 225.223 90.0831 224.703 90.9558 224.358C91.8358 224.013 92.8111 223.845 93.8818 223.852C94.9671 223.859 95.9351 224.046 96.7858 224.413C97.6365 224.772 98.3478 225.297 98.9198 225.986C99.4918 226.675 99.8951 227.508 100.13 228.483L97.2808 228.978C97.1635 228.421 96.9361 227.948 96.5988 227.559C96.2688 227.163 95.8618 226.862 95.3778 226.657C94.9011 226.452 94.3915 226.342 93.8488 226.327C93.3208 226.32 92.8295 226.4 92.3748 226.569C91.9275 226.73 91.5645 226.965 91.2858 227.273C91.0145 227.581 90.8788 227.94 90.8788 228.351C90.8788 228.74 90.9961 229.059 91.2308 229.308C91.4655 229.55 91.7551 229.744 92.0998 229.891C92.4518 230.03 92.8075 230.148 93.1668 230.243L96.0048 231.035C96.3935 231.138 96.8298 231.277 97.3138 231.453C97.7978 231.629 98.2635 231.875 98.7108 232.19C99.1581 232.505 99.5248 232.92 99.8108 233.433C100.104 233.946 100.251 234.599 100.251 235.391C100.251 236.212 100.078 236.935 99.7338 237.558C99.3965 238.174 98.9381 238.687 98.3588 239.098C97.7795 239.509 97.1158 239.817 96.3678 240.022C95.6271 240.227 94.8498 240.33 94.0358 240.33ZM102.632 240V224.16H109.177C109.331 224.16 109.529 224.167 109.771 224.182C110.013 224.189 110.236 224.211 110.442 224.248C111.358 224.387 112.114 224.692 112.708 225.161C113.309 225.63 113.753 226.224 114.039 226.943C114.332 227.654 114.479 228.446 114.479 229.319C114.479 230.184 114.332 230.976 114.039 231.695C113.745 232.406 113.298 232.997 112.697 233.466C112.103 233.935 111.351 234.24 110.442 234.379C110.236 234.408 110.009 234.43 109.76 234.445C109.518 234.46 109.323 234.467 109.177 234.467H105.283V240H102.632ZM105.283 231.992H109.067C109.213 231.992 109.378 231.985 109.562 231.97C109.745 231.955 109.914 231.926 110.068 231.882C110.508 231.772 110.852 231.578 111.102 231.299C111.358 231.02 111.538 230.705 111.641 230.353C111.751 230.001 111.806 229.656 111.806 229.319C111.806 228.982 111.751 228.637 111.641 228.285C111.538 227.926 111.358 227.607 111.102 227.328C110.852 227.049 110.508 226.855 110.068 226.745C109.914 226.701 109.745 226.675 109.562 226.668C109.378 226.653 109.213 226.646 109.067 226.646H105.283V231.992ZM116.683 240V224.16H126.913V226.646H119.334V230.551H125.593V233.037H119.334V237.514H126.913V240H116.683ZM135.692 240.33C134.108 240.33 132.751 239.985 131.622 239.296C130.493 238.599 129.624 237.631 129.015 236.392C128.414 235.153 128.113 233.715 128.113 232.08C128.113 230.445 128.414 229.007 129.015 227.768C129.624 226.529 130.493 225.564 131.622 224.875C132.751 224.178 134.108 223.83 135.692 223.83C137.518 223.83 139.04 224.288 140.257 225.205C141.474 226.114 142.329 227.343 142.82 228.89L140.147 229.627C139.839 228.593 139.315 227.786 138.574 227.207C137.833 226.62 136.873 226.327 135.692 226.327C134.629 226.327 133.741 226.565 133.03 227.042C132.326 227.519 131.794 228.19 131.435 229.055C131.083 229.913 130.903 230.921 130.896 232.08C130.896 233.239 131.072 234.251 131.424 235.116C131.783 235.974 132.319 236.641 133.03 237.118C133.741 237.595 134.629 237.833 135.692 237.833C136.873 237.833 137.833 237.54 138.574 236.953C139.315 236.366 139.839 235.56 140.147 234.533L142.82 235.27C142.329 236.817 141.474 238.049 140.257 238.966C139.04 239.875 137.518 240.33 135.692 240.33ZM145.455 240V224.16H148.106V240H145.455ZM150.301 240L155.295 224.16H159.178L164.172 240H161.444L156.912 225.788H157.506L153.029 240H150.301ZM153.084 236.568V234.093H161.4V236.568H153.084ZM166.381 240V224.16H169.032V237.514H176.028V240H166.381ZM181.2 240V224.16H183.587L189.065 235.38L194.543 224.16H196.93V240H194.455V229.847L189.593 240H188.537L183.686 229.847V240H181.2ZM200.02 240V224.16H210.25V226.646H202.671V230.551H208.93V233.037H202.671V237.514H210.25V240H200.02ZM211.79 240L216.784 224.16H220.667L225.661 240H222.933L218.401 225.788H218.995L214.518 240H211.79ZM214.573 236.568V234.093H222.889V236.568H214.573ZM227.869 240V224.16H230.52V237.514H237.516V240H227.869ZM245.243 240.33C244.084 240.33 243.039 240.128 242.108 239.725C241.184 239.322 240.421 238.746 239.82 237.998C239.226 237.243 238.848 236.348 238.687 235.314L241.437 234.896C241.672 235.835 242.152 236.561 242.878 237.074C243.611 237.587 244.455 237.844 245.408 237.844C245.973 237.844 246.504 237.756 247.003 237.58C247.502 237.404 247.905 237.147 248.213 236.81C248.528 236.473 248.686 236.058 248.686 235.567C248.686 235.347 248.649 235.145 248.576 234.962C248.503 234.771 248.393 234.603 248.246 234.456C248.107 234.309 247.923 234.177 247.696 234.06C247.476 233.935 247.219 233.829 246.926 233.741L242.834 232.531C242.482 232.428 242.101 232.293 241.69 232.124C241.287 231.948 240.902 231.71 240.535 231.409C240.176 231.101 239.879 230.712 239.644 230.243C239.417 229.766 239.303 229.18 239.303 228.483C239.303 227.464 239.56 226.609 240.073 225.92C240.594 225.223 241.29 224.703 242.163 224.358C243.043 224.013 244.018 223.845 245.089 223.852C246.174 223.859 247.142 224.046 247.993 224.413C248.844 224.772 249.555 225.297 250.127 225.986C250.699 226.675 251.102 227.508 251.337 228.483L248.488 228.978C248.371 228.421 248.143 227.948 247.806 227.559C247.476 227.163 247.069 226.862 246.585 226.657C246.108 226.452 245.599 226.342 245.056 226.327C244.528 226.32 244.037 226.4 243.582 226.569C243.135 226.73 242.772 226.965 242.493 227.273C242.222 227.581 242.086 227.94 242.086 228.351C242.086 228.74 242.203 229.059 242.438 229.308C242.673 229.55 242.962 229.744 243.307 229.891C243.659 230.03 244.015 230.148 244.374 230.243L247.212 231.035C247.601 231.138 248.037 231.277 248.521 231.453C249.005 231.629 249.471 231.875 249.918 232.19C250.365 232.505 250.732 232.92 251.018 233.433C251.311 233.946 251.458 234.599 251.458 235.391C251.458 236.212 251.286 236.935 250.941 237.558C250.604 238.174 250.145 238.687 249.566 239.098C248.987 239.509 248.323 239.817 247.575 240.022C246.834 240.227 246.057 240.33 245.243 240.33ZM262.049 240V226.646H256.923V224.16H269.826V226.646H264.7V240H262.049ZM271.585 240V224.16H274.236V230.826H281.738V224.16H284.378V240H281.738V233.312H274.236V240H271.585ZM286.362 240L291.356 224.16H295.239L300.233 240H297.505L292.973 225.788H293.567L289.09 240H286.362ZM289.145 236.568V234.093H297.461V236.568H289.145ZM304.717 240V226.646H299.591V224.16H312.494V226.646H307.368V240H304.717ZM321.841 240V233.51L316.451 224.16H319.542L323.183 230.474L326.813 224.16H329.904L324.525 233.51V240H321.841ZM337.259 240.33C335.675 240.33 334.318 239.985 333.189 239.296C332.059 238.599 331.19 237.631 330.582 236.392C329.98 235.153 329.68 233.715 329.68 232.08C329.68 230.445 329.98 229.007 330.582 227.768C331.19 226.529 332.059 225.564 333.189 224.875C334.318 224.178 335.675 223.83 337.259 223.83C338.843 223.83 340.199 224.178 341.329 224.875C342.465 225.564 343.334 226.529 343.936 227.768C344.544 229.007 344.849 230.445 344.849 232.08C344.849 233.715 344.544 235.153 343.936 236.392C343.334 237.631 342.465 238.599 341.329 239.296C340.199 239.985 338.843 240.33 337.259 240.33ZM337.259 237.833C338.322 237.84 339.206 237.606 339.91 237.129C340.621 236.652 341.153 235.981 341.505 235.116C341.864 234.251 342.044 233.239 342.044 232.08C342.044 230.921 341.864 229.917 341.505 229.066C341.153 228.208 340.621 227.541 339.91 227.064C339.206 226.587 338.322 226.342 337.259 226.327C336.195 226.32 335.312 226.554 334.608 227.031C333.904 227.508 333.372 228.179 333.013 229.044C332.661 229.909 332.485 230.921 332.485 232.08C332.485 233.239 332.661 234.247 333.013 235.105C333.365 235.956 333.893 236.619 334.597 237.096C335.308 237.573 336.195 237.818 337.259 237.833ZM353.418 240.33C352.157 240.33 351.046 240.073 350.085 239.56C349.132 239.047 348.384 238.324 347.841 237.393C347.306 236.462 347.038 235.369 347.038 234.115V224.182L349.722 224.16V234.049C349.722 234.643 349.821 235.175 350.019 235.644C350.224 236.113 350.499 236.513 350.844 236.843C351.189 237.166 351.585 237.411 352.032 237.58C352.479 237.749 352.941 237.833 353.418 237.833C353.909 237.833 354.375 237.749 354.815 237.58C355.262 237.404 355.658 237.155 356.003 236.832C356.348 236.502 356.619 236.102 356.817 235.633C357.015 235.164 357.114 234.636 357.114 234.049V224.16H359.798V234.115C359.798 235.369 359.527 236.462 358.984 237.393C358.449 238.324 357.701 239.047 356.74 239.56C355.787 240.073 354.679 240.33 353.418 240.33ZM367.276 240V224.16H373.821C373.975 224.16 374.173 224.167 374.415 224.182C374.657 224.189 374.881 224.211 375.086 224.248C376.003 224.387 376.758 224.692 377.352 225.161C377.954 225.63 378.397 226.224 378.683 226.943C378.977 227.654 379.123 228.446 379.123 229.319C379.123 230.61 378.797 231.721 378.144 232.652C377.492 233.576 376.491 234.148 375.141 234.368L374.008 234.467H369.927V240H367.276ZM376.373 240L373.249 233.554L375.944 232.96L379.376 240H376.373ZM369.927 231.992H373.711C373.858 231.992 374.023 231.985 374.206 231.97C374.39 231.955 374.558 231.926 374.712 231.882C375.152 231.772 375.497 231.578 375.746 231.299C376.003 231.02 376.183 230.705 376.285 230.353C376.395 230.001 376.45 229.656 376.45 229.319C376.45 228.982 376.395 228.637 376.285 228.285C376.183 227.926 376.003 227.607 375.746 227.328C375.497 227.049 375.152 226.855 374.712 226.745C374.558 226.701 374.39 226.675 374.206 226.668C374.023 226.653 373.858 226.646 373.711 226.646H369.927V231.992ZM380.7 240L385.694 224.16H389.577L394.571 240H391.843L387.311 225.788H387.905L383.428 240H380.7ZM383.483 236.568V234.093H391.799V236.568H383.483ZM396.56 240V224.16H403.105C403.259 224.16 403.457 224.167 403.699 224.182C403.941 224.189 404.164 224.211 404.37 224.248C405.286 224.387 406.042 224.692 406.636 225.161C407.237 225.63 407.681 226.224 407.967 226.943C408.26 227.654 408.407 228.446 408.407 229.319C408.407 230.61 408.08 231.721 407.428 232.652C406.775 233.576 405.774 234.148 404.425 234.368L403.292 234.467H399.211V240H396.56ZM405.657 240L402.533 233.554L405.228 232.96L408.66 240H405.657ZM399.211 231.992H402.995C403.141 231.992 403.306 231.985 403.49 231.97C403.673 231.955 403.842 231.926 403.996 231.882C404.436 231.772 404.78 231.578 405.03 231.299C405.286 231.02 405.466 230.705 405.569 230.353C405.679 230.001 405.734 229.656 405.734 229.319C405.734 228.982 405.679 228.637 405.569 228.285C405.466 227.926 405.286 227.607 405.03 227.328C404.78 227.049 404.436 226.855 403.996 226.745C403.842 226.701 403.673 226.675 403.49 226.668C403.306 226.653 403.141 226.646 402.995 226.646H399.211V231.992ZM411.083 240V224.16H421.313V226.646H413.734V230.551H419.993V233.037H413.734V237.514H421.313V240H411.083ZM424.172 240V224.16H426.823V237.514H433.819V240H424.172ZM437.341 240V233.51L431.951 224.16H435.042L438.683 230.474L442.313 224.16H445.404L440.025 233.51V240H437.341ZM457.163 240.33C455.579 240.33 454.222 239.985 453.093 239.296C451.963 238.599 451.094 237.631 450.486 236.392C449.884 235.153 449.584 233.715 449.584 232.08C449.584 230.445 449.884 229.007 450.486 227.768C451.094 226.529 451.963 225.564 453.093 224.875C454.222 224.178 455.579 223.83 457.163 223.83C458.989 223.83 460.51 224.288 461.728 225.205C462.945 226.114 463.799 227.343 464.291 228.89L461.618 229.627C461.31 228.593 460.785 227.786 460.045 227.207C459.304 226.62 458.343 226.327 457.163 226.327C456.099 226.327 455.212 226.565 454.501 227.042C453.797 227.519 453.265 228.19 452.906 229.055C452.554 229.913 452.374 230.921 452.367 232.08C452.367 233.239 452.543 234.251 452.895 235.116C453.254 235.974 453.789 236.641 454.501 237.118C455.212 237.595 456.099 237.833 457.163 237.833C458.343 237.833 459.304 237.54 460.045 236.953C460.785 236.366 461.31 235.56 461.618 234.533L464.291 235.27C463.799 236.817 462.945 238.049 461.728 238.966C460.51 239.875 458.989 240.33 457.163 240.33ZM473.405 240.33C471.821 240.33 470.464 239.985 469.335 239.296C468.206 238.599 467.337 237.631 466.728 236.392C466.127 235.153 465.826 233.715 465.826 232.08C465.826 230.445 466.127 229.007 466.728 227.768C467.337 226.529 468.206 225.564 469.335 224.875C470.464 224.178 471.821 223.83 473.405 223.83C474.989 223.83 476.346 224.178 477.475 224.875C478.612 225.564 479.481 226.529 480.082 227.768C480.691 229.007 480.995 230.445 480.995 232.08C480.995 233.715 480.691 235.153 480.082 236.392C479.481 237.631 478.612 238.599 477.475 239.296C476.346 239.985 474.989 240.33 473.405 240.33ZM473.405 237.833C474.468 237.84 475.352 237.606 476.056 237.129C476.767 236.652 477.299 235.981 477.651 235.116C478.01 234.251 478.19 233.239 478.19 232.08C478.19 230.921 478.01 229.917 477.651 229.066C477.299 228.208 476.767 227.541 476.056 227.064C475.352 226.587 474.468 226.342 473.405 226.327C472.342 226.32 471.458 226.554 470.754 227.031C470.05 227.508 469.518 228.179 469.159 229.044C468.807 229.909 468.631 230.921 468.631 232.08C468.631 233.239 468.807 234.247 469.159 235.105C469.511 235.956 470.039 236.619 470.743 237.096C471.454 237.573 472.342 237.818 473.405 237.833ZM489.884 240.33C488.3 240.33 486.943 239.985 485.814 239.296C484.684 238.599 483.815 237.631 483.207 236.392C482.605 235.153 482.305 233.715 482.305 232.08C482.305 230.445 482.605 229.007 483.207 227.768C483.815 226.529 484.684 225.564 485.814 224.875C486.943 224.178 488.3 223.83 489.884 223.83C491.468 223.83 492.824 224.178 493.954 224.875C495.09 225.564 495.959 226.529 496.561 227.768C497.169 229.007 497.474 230.445 497.474 232.08C497.474 233.715 497.169 235.153 496.561 236.392C495.959 237.631 495.09 238.599 493.954 239.296C492.824 239.985 491.468 240.33 489.884 240.33ZM489.884 237.833C490.947 237.84 491.831 237.606 492.535 237.129C493.246 236.652 493.778 235.981 494.13 235.116C494.489 234.251 494.669 233.239 494.669 232.08C494.669 230.921 494.489 229.917 494.13 229.066C493.778 228.208 493.246 227.541 492.535 227.064C491.831 226.587 490.947 226.342 489.884 226.327C488.82 226.32 487.937 226.554 487.233 227.031C486.529 227.508 485.997 228.179 485.638 229.044C485.286 229.909 485.11 230.921 485.11 232.08C485.11 233.239 485.286 234.247 485.638 235.105C485.99 235.956 486.518 236.619 487.222 237.096C487.933 237.573 488.82 237.818 489.884 237.833ZM499.663 240V224.16H502.314V231.508L508.639 224.16H511.895L505.086 231.926L512.357 240H508.991L502.314 232.608V240H499.663Z" fill="white"></path> <path d="M151.67 178.308C151.553 177.252 151.7 176.299 152.11 175.448C152.55 174.568 153.166 173.717 153.958 172.896L156.642 172.676C157.053 172.617 157.302 172.588 157.39 172.588C157.83 172.588 158.388 173.131 159.062 174.216C159.121 174.392 159.18 174.612 159.238 174.876C159.297 175.111 159.385 175.301 159.502 175.448L164.606 182.532C165.369 183.5 166.117 184.512 166.85 185.568L167.598 183.148C168.537 180.068 169.388 177.575 170.15 175.668C170.942 173.732 171.969 171.899 173.23 170.168L175.342 170.476C175.9 170.916 176.09 171.503 175.914 172.236C175.65 173.292 175.372 174.084 175.078 174.612C174.374 176.401 173.788 178.22 173.318 180.068C172.849 181.887 172.321 184.189 171.734 186.976C171.646 187.357 171.529 187.929 171.382 188.692C171.148 189.865 170.693 190.745 170.018 191.332C169.344 191.889 168.42 192.197 167.246 192.256C166.073 192.315 165.061 191.831 164.21 190.804C163.33 189.748 162.23 188.325 160.91 186.536L160.03 185.348C159.238 184.292 158.036 182.737 156.422 180.684L156.026 182.576C155.586 184.688 155.322 186.345 155.234 187.548L154.97 192.872C154.941 193.459 154.912 194.207 154.882 195.116C154.853 195.996 154.794 197.037 154.706 198.24C154.677 199.12 154.369 199.883 153.782 200.528C153.225 201.173 152.521 201.613 151.67 201.848C151.23 201.965 150.688 201.848 150.042 201.496C149.426 201.173 149.06 200.792 148.942 200.352C148.737 199.589 148.634 198.915 148.634 198.328C148.634 197.8 148.708 197.331 148.854 196.92C149.118 196.216 149.294 195.101 149.382 193.576C149.441 192.637 149.514 191.933 149.602 191.464C149.984 188.765 150.57 185.04 151.362 180.288C151.392 180.053 151.45 179.745 151.538 179.364C151.656 178.953 151.7 178.601 151.67 178.308ZM202.043 176.416C202.219 177.677 202.395 179.511 202.571 181.916L202.659 184.204C202.659 188.457 203.217 192.256 204.331 195.6C204.478 196.069 204.551 196.671 204.551 197.404C204.551 197.815 204.522 198.372 204.463 199.076C204.434 199.545 204.258 199.912 203.935 200.176C203.613 200.469 203.202 200.616 202.703 200.616C202.645 200.616 202.483 200.587 202.219 200.528C201.486 200.352 200.929 200.029 200.547 199.56C200.166 199.061 199.975 198.46 199.975 197.756C199.975 197.521 199.99 197.345 200.019 197.228C200.019 197.052 200.019 196.803 200.019 196.48C200.019 195.952 199.99 195.468 199.931 195.028C199.697 193.884 199.33 192.359 198.831 190.452C198.655 189.66 198.289 189.264 197.731 189.264C197.526 189.264 197.291 189.308 197.027 189.396C196.118 189.66 195.311 189.909 194.607 190.144C193.933 190.379 193.331 190.569 192.803 190.716L190.691 191.332C189.489 191.684 188.374 191.963 187.347 192.168C186.262 192.403 185.47 193.004 184.971 193.972C184.502 194.852 183.827 196.04 182.947 197.536C182.39 198.533 181.657 199.032 180.747 199.032C180.307 199.032 179.867 198.929 179.427 198.724C179.017 198.489 178.665 198.196 178.371 197.844C177.931 197.345 177.711 196.861 177.711 196.392C177.711 196.069 177.799 195.732 177.975 195.38L181.011 189.22C184.355 182.415 186.35 178.337 186.995 176.988C188.843 173.409 191.351 170.945 194.519 169.596C195.194 169.273 195.883 169.112 196.587 169.112C197.467 169.112 198.274 169.347 199.007 169.816C199.77 170.256 200.357 170.887 200.767 171.708C201.354 172.911 201.779 174.48 202.043 176.416ZM187.831 187.548C191.85 186.844 195.267 186.272 198.083 185.832C198.025 183.016 197.937 180.801 197.819 179.188C197.731 177.545 197.526 175.903 197.203 174.26C195.649 174.436 194.475 175.199 193.683 176.548C192.305 178.719 190.985 180.963 189.723 183.28C189.518 183.661 189.137 184.512 188.579 185.832L187.831 187.548ZM233.667 189.22C233.697 188.927 233.711 188.472 233.711 187.856C233.741 187.651 233.755 187.313 233.755 186.844L232.743 187.812C231.893 188.604 231.233 189.191 230.763 189.572C230.089 190.071 229.502 190.305 229.003 190.276C227.859 190.188 226.877 189.953 226.055 189.572C225.263 189.161 224.662 188.472 224.251 187.504L222.403 183.016C222.374 183.045 222.286 183.148 222.139 183.324C222.022 183.471 221.934 183.632 221.875 183.808C220.585 186.888 219.265 190.173 217.915 193.664C217.153 195.629 216.493 197.58 215.935 199.516C215.789 200.015 215.539 200.367 215.187 200.572C214.865 200.777 214.439 200.88 213.911 200.88C213.061 200.88 212.254 200.572 211.491 199.956C210.758 199.34 210.391 198.592 210.391 197.712C210.391 197.389 210.465 197.037 210.611 196.656C211.257 194.955 211.726 193.679 212.019 192.828C213.515 188.809 214.791 185.583 215.847 183.148C216.933 180.684 218.267 178.308 219.851 176.02C220.467 175.111 220.863 174.568 221.039 174.392C221.567 173.747 222.227 173.424 223.019 173.424C223.195 173.424 223.43 173.453 223.723 173.512C224.926 173.747 225.733 173.967 226.143 174.172C226.583 174.348 226.877 174.656 227.023 175.096C227.199 175.507 227.39 176.313 227.595 177.516L228.387 183.104C229.003 182.752 229.693 182.18 230.455 181.388C231.247 180.567 231.995 179.657 232.699 178.66C232.611 178.777 233.066 178.191 234.063 176.9C234.386 176.519 234.841 175.947 235.427 175.184C235.926 174.48 236.586 174.128 237.407 174.128C237.701 174.128 237.994 174.172 238.287 174.26C239.343 174.495 240.106 174.847 240.575 175.316C241.045 175.785 241.279 176.46 241.279 177.34C241.279 177.868 241.221 178.411 241.103 178.968L240.179 183.544C239.065 189.235 238.449 192.432 238.331 193.136L236.923 201.32C236.718 202.728 236.381 204.811 235.911 207.568C235.882 207.891 235.779 208.345 235.603 208.932C235.515 209.196 235.383 209.651 235.207 210.296C235.031 210.941 234.914 211.513 234.855 212.012C234.797 212.511 234.65 212.877 234.415 213.112C234.181 213.376 233.829 213.523 233.359 213.552C232.802 213.581 232.347 213.449 231.995 213.156C231.643 212.892 231.453 212.496 231.423 211.968L231.379 209.064C231.379 208.096 231.423 207.128 231.511 206.16C231.893 202.757 232.333 199.311 232.831 195.82L233.667 189.22ZM255.173 183.192L256.757 182.972C257.901 182.796 258.678 182.693 259.089 182.664L260.145 182.576C260.497 182.547 260.937 182.517 261.465 182.488C261.993 182.459 262.594 182.444 263.269 182.444C263.914 182.444 264.383 182.459 264.677 182.488C265.703 182.576 266.451 182.913 266.921 183.5C267.419 184.087 267.713 184.967 267.801 186.14C267.683 186.14 267.507 186.125 267.273 186.096C267.038 186.067 266.847 186.037 266.701 186.008C265.879 185.861 265.131 185.788 264.457 185.788C263.665 185.788 262.902 185.891 262.169 186.096C260.291 186.683 257.886 187.299 254.953 187.944C254.395 188.091 253.955 188.325 253.633 188.648C253.339 188.941 253.149 189.367 253.061 189.924C252.885 191.039 252.665 192.153 252.401 193.268C252.195 194.295 252.034 195.145 251.917 195.82C251.887 196.055 251.873 196.363 251.873 196.744C251.873 197.096 251.873 197.345 251.873 197.492C252.342 197.58 252.826 197.624 253.325 197.624C254.293 197.624 255.481 197.433 256.889 197.052C259.47 196.436 262.066 195.776 264.677 195.072L269.517 193.84C271.042 193.459 272.245 193.121 273.125 192.828C275.031 192.3 276.41 191.933 277.261 191.728C277.613 191.669 277.877 191.64 278.053 191.64C278.786 191.64 279.27 191.933 279.505 192.52C279.593 192.725 279.637 192.931 279.637 193.136C279.637 193.488 279.519 193.825 279.285 194.148C279.05 194.471 278.727 194.735 278.317 194.94C277.759 195.175 276.997 195.424 276.029 195.688C273.213 196.509 270.719 197.287 268.549 198.02C264.325 199.369 261.186 200.323 259.133 200.88C258.311 201.115 257.079 201.32 255.437 201.496L253.809 201.716C252.811 201.833 251.917 201.496 251.125 200.704L250.333 199.912C249.365 199.003 248.617 198.211 248.089 197.536C247.707 197.037 247.546 196.348 247.605 195.468C247.693 194.441 247.883 192.872 248.177 190.76L248.353 189.352L248.485 188.032C247.605 187.768 246.915 187.445 246.417 187.064C245.947 186.653 245.698 186.008 245.669 185.128C246.607 185.011 247.311 184.952 247.781 184.952C248.309 184.923 248.734 184.791 249.057 184.556C249.379 184.321 249.629 183.94 249.805 183.412C250.127 182.356 250.67 180.801 251.433 178.748C251.667 177.985 251.961 177.135 252.313 176.196C252.459 175.727 252.562 175.14 252.621 174.436C252.621 173.908 252.738 173.497 252.973 173.204C253.237 172.881 253.647 172.632 254.205 172.456C256.874 171.635 260.35 171.004 264.633 170.564C266.041 170.417 267.434 170.373 268.813 170.432C270.749 170.432 272.186 171.165 273.125 172.632C273.389 172.984 273.521 173.453 273.521 174.04C273.521 174.304 273.491 174.495 273.433 174.612C273.257 175.023 272.993 175.375 272.641 175.668C272.318 175.932 271.907 176.064 271.409 176.064L269.693 176.108C268.871 176.167 268.27 176.196 267.889 176.196C267.067 176.196 266.51 176.049 266.217 175.756C265.806 175.345 265.293 175.14 264.677 175.14C264.501 175.14 264.207 175.169 263.797 175.228L259.441 176.24L257.681 176.68L255.173 183.192ZM302.736 184.82C302.824 183.617 302.912 182.517 303 181.52C303.088 180.493 303.176 179.569 303.264 178.748L303.616 175.228C301.328 175.58 298.894 176.255 296.312 177.252C295.696 177.487 295.124 177.604 294.596 177.604C293.804 177.604 293.071 177.384 292.396 176.944C291.751 176.504 291.238 175.859 290.856 175.008C291.032 174.363 291.355 173.879 291.824 173.556C292.323 173.233 292.998 172.911 293.848 172.588C297.926 171.092 302.59 170.359 307.84 170.388C310.334 170.388 312.93 170.491 315.628 170.696C318.356 170.901 319.955 171.019 320.424 171.048L323.504 171.268C323.622 171.268 323.812 171.268 324.076 171.268C324.37 171.268 324.604 171.341 324.78 171.488C324.956 171.605 325.044 171.811 325.044 172.104C325.044 172.837 324.516 173.263 323.46 173.38C320.82 173.673 318.943 173.879 317.828 173.996C316.684 174.055 315.819 174.113 315.232 174.172C312.944 174.319 311.228 174.436 310.084 174.524C309.38 174.583 308.896 174.671 308.632 174.788C308.368 174.876 308.192 175.052 308.104 175.316C308.046 175.551 307.987 176.064 307.928 176.856C307.782 178.704 307.474 181.887 307.004 186.404C306.535 190.481 306.242 193.297 306.124 194.852C306.095 195.703 305.904 196.729 305.552 197.932C305.318 198.695 305.127 199.208 304.98 199.472C304.834 199.707 304.614 199.853 304.32 199.912C304.056 199.971 303.543 199.985 302.78 199.956C302.223 199.956 301.783 199.839 301.46 199.604C301.167 199.34 301.02 198.988 301.02 198.548C301.02 198.46 301.05 198.269 301.108 197.976C301.754 195.424 302.296 191.039 302.736 184.82ZM325.209 193.62C325.678 191.625 326.045 190.129 326.309 189.132L327.233 185.348C327.145 185.231 326.969 185.04 326.705 184.776C326.441 184.483 326.221 184.204 326.045 183.94C325.869 183.676 325.781 183.456 325.781 183.28C325.781 183.075 325.884 182.884 326.089 182.708C326.324 182.532 326.676 182.312 327.145 182.048C328.494 181.344 329.36 180.185 329.741 178.572L331.721 170.124C331.809 169.772 331.926 169.508 332.073 169.332C332.22 169.127 332.469 169.039 332.821 169.068C334.17 169.156 335.241 169.596 336.033 170.388C336.825 171.151 337.221 172.045 337.221 173.072C337.221 173.512 337.133 173.981 336.957 174.48C336.605 175.389 336.253 176.607 335.901 178.132L335.461 179.892L336.429 180.024C336.928 180.112 337.368 180.156 337.749 180.156L340.785 180.024C342.134 179.965 343.146 179.936 343.821 179.936C344.701 179.907 345.273 179.452 345.537 178.572L346.989 173.336C347.048 173.131 347.238 172.544 347.561 171.576C348.94 171.605 350.04 172.045 350.861 172.896C351.712 173.747 352.137 174.773 352.137 175.976C352.137 176.387 352.064 176.856 351.917 177.384C349.893 184.395 347.458 190.907 344.613 196.92C344.114 198.005 343.293 199.384 342.149 201.056L341.137 202.64C340.726 203.315 340.242 203.652 339.685 203.652C339.568 203.652 339.392 203.623 339.157 203.564C338.541 203.359 338.057 203.124 337.705 202.86C337.382 202.625 337.236 202.259 337.265 201.76C337.324 200.851 337.397 200.103 337.485 199.516C337.573 198.929 337.72 198.357 337.925 197.8C338.306 196.861 339.128 194.881 340.389 191.86C340.624 191.332 340.902 190.716 341.225 190.012C341.548 189.279 341.885 188.457 342.237 187.548C342.384 187.225 342.574 186.565 342.809 185.568C342.838 185.333 342.912 184.981 343.029 184.512C342.53 184.571 341.812 184.629 340.873 184.688L338.277 184.952C338.042 184.981 337.617 185.055 337.001 185.172C336.238 185.377 335.52 185.495 334.845 185.524C333.936 185.641 333.32 186.155 332.997 187.064C332.44 188.707 331.574 191.171 330.401 194.456C330.313 194.72 330.166 195.145 329.961 195.732C329.756 196.319 329.521 196.832 329.257 197.272C328.993 197.712 328.67 198.079 328.289 198.372C327.028 198.02 326.162 197.653 325.693 197.272C325.224 196.861 324.989 196.245 324.989 195.424C324.989 195.013 325.062 194.412 325.209 193.62ZM382.048 195.776C382.136 196.069 382.18 196.348 382.18 196.612C382.18 197.081 382.033 197.463 381.74 197.756C381.476 198.02 381.109 198.152 380.64 198.152C380.464 198.152 380.317 198.137 380.2 198.108C378.88 197.815 377.839 197.492 377.076 197.14C376.489 196.876 375.404 196.216 373.82 195.16C372.617 194.368 371.62 193.752 370.828 193.312C369.801 192.755 368.701 192.373 367.528 192.168C367 192.08 365.753 191.933 363.788 191.728C362.908 191.669 362.263 191.611 361.852 191.552L361.06 198.064L361.104 198.768C361.104 199.824 360.972 200.528 360.708 200.88C360.473 201.232 359.975 201.408 359.212 201.408C358.42 201.408 357.731 201.159 357.144 200.66C356.557 200.161 356.264 199.545 356.264 198.812C356.264 196.583 356.381 194.603 356.616 192.872C357.437 187.563 359.329 182.048 362.292 176.328C363.964 173.131 366.531 170.667 369.992 168.936C371.107 168.379 372.236 168.1 373.38 168.1C374.553 168.1 375.639 168.408 376.636 169.024C377.663 169.611 378.513 170.476 379.188 171.62C379.804 172.647 380.112 173.644 380.112 174.612C380.112 175.961 379.584 177.325 378.528 178.704C377.267 180.347 375.477 182.679 373.16 185.7L370.3 189.396C370.329 189.396 370.359 189.44 370.388 189.528C370.447 189.587 370.505 189.645 370.564 189.704L371.532 190.232C373.967 191.552 375.756 192.593 376.9 193.356C378.015 194.031 379.203 194.368 380.464 194.368C380.845 194.368 381.139 194.353 381.344 194.324C381.432 194.471 381.549 194.691 381.696 194.984C381.843 195.277 381.96 195.541 382.048 195.776ZM365.768 187.064C366.971 185.715 368.173 184.307 369.376 182.84C370.608 181.373 371.693 179.995 372.632 178.704C373.013 178.176 373.336 177.619 373.6 177.032C373.864 176.416 374.099 175.8 374.304 175.184C374.539 174.568 374.7 174.128 374.788 173.864C374.817 173.776 374.832 173.629 374.832 173.424C374.832 173.189 374.803 172.896 374.744 172.544C374.685 172.192 374.641 171.943 374.612 171.796C372.471 172.441 370.52 173.761 368.76 175.756C367 177.751 365.607 179.965 364.58 182.4C363.583 184.835 363.069 186.932 363.04 188.692C363.627 188.751 364.081 188.648 364.404 188.384C364.756 188.12 365.211 187.68 365.768 187.064ZM398.48 183.632C398.48 183.749 398.495 183.881 398.524 184.028C398.553 184.145 398.583 184.263 398.612 184.38C398.847 184.409 399.199 184.424 399.668 184.424C401.721 184.424 403.833 183.984 406.004 183.104C406.62 182.869 407.133 182.752 407.544 182.752C408.365 182.752 409.04 183.133 409.568 183.896C409.832 184.307 409.964 184.659 409.964 184.952C409.964 185.304 409.773 185.671 409.392 186.052C408.219 187.137 406.972 187.753 405.652 187.9C404.479 188.047 402.719 188.296 400.372 188.648L397.292 189.088C396.823 190.115 396.588 191.112 396.588 192.08C396.588 193.488 397.072 194.661 398.04 195.6C399.037 196.509 400.387 196.993 402.088 197.052C403.819 197.081 406.033 196.964 408.732 196.7L409.392 196.656C410.125 196.656 410.727 196.832 411.196 197.184C411.695 197.507 412.164 198.093 412.604 198.944C412.281 199.648 411.827 200.117 411.24 200.352C410.653 200.616 409.891 200.807 408.952 200.924C407.984 201.041 406.884 201.1 405.652 201.1C402.983 201.1 400.577 200.675 398.436 199.824C394.652 198.357 392.232 195.82 391.176 192.212C391.029 191.713 390.956 191.185 390.956 190.628C390.956 190.041 390.956 189.689 390.956 189.572C390.956 188.575 390.472 187.841 389.504 187.372C388.712 186.932 388.096 186.507 387.656 186.096C387.245 185.685 386.981 185.069 386.864 184.248L391.836 183.94L394.08 177.472C394.139 177.267 394.197 177.017 394.256 176.724C394.344 176.401 394.432 176.152 394.52 175.976C394.784 175.389 394.916 174.905 394.916 174.524C394.916 173.937 394.637 173.424 394.08 172.984C393.875 172.837 393.699 172.573 393.552 172.192C393.435 171.781 393.317 171.459 393.2 171.224L394.168 170.916C394.637 170.799 394.975 170.696 395.18 170.608C395.297 170.549 395.547 170.447 395.928 170.3C396.309 170.124 396.529 169.933 396.588 169.728C396.793 169.229 397.043 168.892 397.336 168.716C397.659 168.54 398.04 168.452 398.48 168.452C398.773 168.452 399.213 168.481 399.8 168.54C399.976 168.54 400.152 168.584 400.328 168.672C400.533 168.731 400.695 168.819 400.812 168.936C401.487 169.64 402.235 170.109 403.056 170.344C403.877 170.579 404.845 170.696 405.96 170.696H407.852H411.548C414.041 170.696 415.904 170.725 417.136 170.784C417.781 170.813 418.603 171.092 419.6 171.62C419.776 171.708 419.908 171.884 419.996 172.148C420.113 172.383 420.172 172.617 420.172 172.852C420.172 172.969 420.069 173.116 419.864 173.292C419.659 173.439 419.468 173.541 419.292 173.6C417.297 174.128 415.787 174.436 414.76 174.524C413.176 174.671 410.8 174.861 407.632 175.096C406.899 175.125 405.725 175.199 404.112 175.316C403.995 175.316 403.789 175.287 403.496 175.228C403.203 175.14 402.983 175.096 402.836 175.096C401.751 175.096 401.061 175.551 400.768 176.46C399.976 178.807 399.228 181.139 398.524 183.456L398.48 183.632ZM430.786 183.192L432.37 182.972C433.514 182.796 434.291 182.693 434.702 182.664L435.758 182.576C436.11 182.547 436.55 182.517 437.078 182.488C437.606 182.459 438.207 182.444 438.882 182.444C439.527 182.444 439.997 182.459 440.29 182.488C441.317 182.576 442.065 182.913 442.534 183.5C443.033 184.087 443.326 184.967 443.414 186.14C443.297 186.14 443.121 186.125 442.886 186.096C442.651 186.067 442.461 186.037 442.314 186.008C441.493 185.861 440.745 185.788 440.07 185.788C439.278 185.788 438.515 185.891 437.782 186.096C435.905 186.683 433.499 187.299 430.566 187.944C430.009 188.091 429.569 188.325 429.246 188.648C428.953 188.941 428.762 189.367 428.674 189.924C428.498 191.039 428.278 192.153 428.014 193.268C427.809 194.295 427.647 195.145 427.53 195.82C427.501 196.055 427.486 196.363 427.486 196.744C427.486 197.096 427.486 197.345 427.486 197.492C427.955 197.58 428.439 197.624 428.938 197.624C429.906 197.624 431.094 197.433 432.502 197.052C435.083 196.436 437.679 195.776 440.29 195.072L445.13 193.84C446.655 193.459 447.858 193.121 448.738 192.828C450.645 192.3 452.023 191.933 452.874 191.728C453.226 191.669 453.49 191.64 453.666 191.64C454.399 191.64 454.883 191.933 455.118 192.52C455.206 192.725 455.25 192.931 455.25 193.136C455.25 193.488 455.133 193.825 454.898 194.148C454.663 194.471 454.341 194.735 453.93 194.94C453.373 195.175 452.61 195.424 451.642 195.688C448.826 196.509 446.333 197.287 444.162 198.02C439.938 199.369 436.799 200.323 434.746 200.88C433.925 201.115 432.693 201.32 431.05 201.496L429.422 201.716C428.425 201.833 427.53 201.496 426.738 200.704L425.946 199.912C424.978 199.003 424.23 198.211 423.702 197.536C423.321 197.037 423.159 196.348 423.218 195.468C423.306 194.441 423.497 192.872 423.79 190.76L423.966 189.352L424.098 188.032C423.218 187.768 422.529 187.445 422.03 187.064C421.561 186.653 421.311 186.008 421.282 185.128C422.221 185.011 422.925 184.952 423.394 184.952C423.922 184.923 424.347 184.791 424.67 184.556C424.993 184.321 425.242 183.94 425.418 183.412C425.741 182.356 426.283 180.801 427.046 178.748C427.281 177.985 427.574 177.135 427.926 176.196C428.073 175.727 428.175 175.14 428.234 174.436C428.234 173.908 428.351 173.497 428.586 173.204C428.85 172.881 429.261 172.632 429.818 172.456C432.487 171.635 435.963 171.004 440.246 170.564C441.654 170.417 443.047 170.373 444.426 170.432C446.362 170.432 447.799 171.165 448.738 172.632C449.002 172.984 449.134 173.453 449.134 174.04C449.134 174.304 449.105 174.495 449.046 174.612C448.87 175.023 448.606 175.375 448.254 175.668C447.931 175.932 447.521 176.064 447.022 176.064L445.306 176.108C444.485 176.167 443.883 176.196 443.502 176.196C442.681 176.196 442.123 176.049 441.83 175.756C441.419 175.345 440.906 175.14 440.29 175.14C440.114 175.14 439.821 175.169 439.41 175.228L435.054 176.24L433.294 176.68L430.786 183.192Z" fill="white"></path> </g> <defs> <clipPath id="clip0_1320_141"> <rect width="600" height="400" rx="20" fill="white"></rect> </clipPath> </defs> </svg> 