<?xml version="1.0" encoding="UTF-8"?> <svg xmlns="http://www.w3.org/2000/svg" width="600" height="400" viewBox="0 0 600 400" fill="none"> <rect width="600" height="400" rx="20" fill="url(#paint0_linear_160_241)"></rect> <path d="M61.0657 165V149.16H63.7167V165H61.0657ZM67.0117 165V149.16H69.6957L77.0437 160.325V149.16H79.7277V165H77.0437L69.6957 153.835V165H67.0117ZM93.07 165.33C91.9113 165.33 90.8663 165.128 89.935 164.725C89.011 164.322 88.2483 163.746 87.647 162.998C87.053 162.243 86.6753 161.348 86.514 160.314L89.264 159.896C89.4987 160.835 89.979 161.561 90.705 162.074C91.4383 162.587 92.2817 162.844 93.235 162.844C93.7997 162.844 94.3313 162.756 94.83 162.58C95.3287 162.404 95.732 162.147 96.04 161.81C96.3553 161.473 96.513 161.058 96.513 160.567C96.513 160.347 96.4763 160.145 96.403 159.962C96.3297 159.771 96.2197 159.603 96.073 159.456C95.9337 159.309 95.7503 159.177 95.523 159.06C95.303 158.935 95.0463 158.829 94.753 158.741L90.661 157.531C90.309 157.428 89.9277 157.293 89.517 157.124C89.1137 156.948 88.7287 156.71 88.362 156.409C88.0027 156.101 87.7057 155.712 87.471 155.243C87.2437 154.766 87.13 154.18 87.13 153.483C87.13 152.464 87.3867 151.609 87.9 150.92C88.4207 150.223 89.1173 149.703 89.99 149.358C90.87 149.013 91.8453 148.845 92.916 148.852C94.0013 148.859 94.9693 149.046 95.82 149.413C96.6707 149.772 97.382 150.297 97.954 150.986C98.526 151.675 98.9293 152.508 99.164 153.483L96.315 153.978C96.1977 153.421 95.9703 152.948 95.633 152.559C95.303 152.163 94.896 151.862 94.412 151.657C93.9353 151.452 93.4257 151.342 92.883 151.327C92.355 151.32 91.8637 151.4 91.409 151.569C90.9617 151.73 90.5987 151.965 90.32 152.273C90.0487 152.581 89.913 152.94 89.913 153.351C89.913 153.74 90.0303 154.059 90.265 154.308C90.4997 154.55 90.7893 154.744 91.134 154.891C91.486 155.03 91.8417 155.148 92.201 155.243L95.039 156.035C95.4277 156.138 95.864 156.277 96.348 156.453C96.832 156.629 97.2977 156.875 97.745 157.19C98.1923 157.505 98.559 157.92 98.845 158.433C99.1383 158.946 99.285 159.599 99.285 160.391C99.285 161.212 99.1127 161.935 98.768 162.558C98.4307 163.174 97.9723 163.687 97.393 164.098C96.8137 164.509 96.15 164.817 95.402 165.022C94.6613 165.227 93.884 165.33 93.07 165.33ZM108.365 165.33C106.781 165.33 105.424 164.985 104.295 164.296C103.166 163.599 102.297 162.631 101.688 161.392C101.087 160.153 100.786 158.715 100.786 157.08C100.786 155.445 101.087 154.007 101.688 152.768C102.297 151.529 103.166 150.564 104.295 149.875C105.424 149.178 106.781 148.83 108.365 148.83C109.949 148.83 111.306 149.178 112.435 149.875C113.572 150.564 114.441 151.529 115.042 152.768C115.651 154.007 115.955 155.445 115.955 157.08C115.955 158.715 115.651 160.153 115.042 161.392C114.441 162.631 113.572 163.599 112.435 164.296C111.306 164.985 109.949 165.33 108.365 165.33ZM108.365 162.833C109.428 162.84 110.312 162.606 111.016 162.129C111.727 161.652 112.259 160.981 112.611 160.116C112.97 159.251 113.15 158.239 113.15 157.08C113.15 155.921 112.97 154.917 112.611 154.066C112.259 153.208 111.727 152.541 111.016 152.064C110.312 151.587 109.428 151.342 108.365 151.327C107.302 151.32 106.418 151.554 105.714 152.031C105.01 152.508 104.478 153.179 104.119 154.044C103.767 154.909 103.591 155.921 103.591 157.08C103.591 158.239 103.767 159.247 104.119 160.105C104.471 160.956 104.999 161.619 105.703 162.096C106.414 162.573 107.302 162.818 108.365 162.833ZM118.144 165V149.16H120.531L126.009 160.38L131.487 149.16H133.874V165H131.399V154.847L126.537 165H125.481L120.63 154.847V165H118.144ZM136.965 165V149.16H147.195V151.646H139.616V155.551H145.875V158.037H139.616V162.514H147.195V165H136.965ZM160.937 165.33C159.353 165.33 157.997 164.985 156.867 164.296C155.738 163.599 154.869 162.631 154.26 161.392C153.659 160.153 153.358 158.715 153.358 157.08C153.358 155.445 153.659 154.007 154.26 152.768C154.869 151.529 155.738 150.564 156.867 149.875C157.997 149.178 159.353 148.83 160.937 148.83C162.763 148.83 164.285 149.288 165.502 150.205C166.72 151.114 167.574 152.343 168.065 153.89L165.392 154.627C165.084 153.593 164.56 152.786 163.819 152.207C163.079 151.62 162.118 151.327 160.937 151.327C159.874 151.327 158.987 151.565 158.275 152.042C157.571 152.519 157.04 153.19 156.68 154.055C156.328 154.913 156.149 155.921 156.141 157.08C156.141 158.239 156.317 159.251 156.669 160.116C157.029 160.974 157.564 161.641 158.275 162.118C158.987 162.595 159.874 162.833 160.937 162.833C162.118 162.833 163.079 162.54 163.819 161.953C164.56 161.366 165.084 160.56 165.392 159.533L168.065 160.27C167.574 161.817 166.72 163.049 165.502 163.966C164.285 164.875 162.763 165.33 160.937 165.33ZM177.179 165.33C175.595 165.33 174.239 164.985 173.109 164.296C171.98 163.599 171.111 162.631 170.502 161.392C169.901 160.153 169.6 158.715 169.6 157.08C169.6 155.445 169.901 154.007 170.502 152.768C171.111 151.529 171.98 150.564 173.109 149.875C174.239 149.178 175.595 148.83 177.179 148.83C178.763 148.83 180.12 149.178 181.249 149.875C182.386 150.564 183.255 151.529 183.856 152.768C184.465 154.007 184.769 155.445 184.769 157.08C184.769 158.715 184.465 160.153 183.856 161.392C183.255 162.631 182.386 163.599 181.249 164.296C180.12 164.985 178.763 165.33 177.179 165.33ZM177.179 162.833C178.243 162.84 179.126 162.606 179.83 162.129C180.542 161.652 181.073 160.981 181.425 160.116C181.785 159.251 181.964 158.239 181.964 157.08C181.964 155.921 181.785 154.917 181.425 154.066C181.073 153.208 180.542 152.541 179.83 152.064C179.126 151.587 178.243 151.342 177.179 151.327C176.116 151.32 175.232 151.554 174.528 152.031C173.824 152.508 173.293 153.179 172.933 154.044C172.581 154.909 172.405 155.921 172.405 157.08C172.405 158.239 172.581 159.247 172.933 160.105C173.285 160.956 173.813 161.619 174.517 162.096C175.229 162.573 176.116 162.818 177.179 162.833ZM193.339 165.33C192.078 165.33 190.967 165.073 190.006 164.56C189.053 164.047 188.305 163.324 187.762 162.393C187.227 161.462 186.959 160.369 186.959 159.115V149.182L189.643 149.16V159.049C189.643 159.643 189.742 160.175 189.94 160.644C190.145 161.113 190.42 161.513 190.765 161.843C191.11 162.166 191.506 162.411 191.953 162.58C192.4 162.749 192.862 162.833 193.339 162.833C193.83 162.833 194.296 162.749 194.736 162.58C195.183 162.404 195.579 162.155 195.924 161.832C196.269 161.502 196.54 161.102 196.738 160.633C196.936 160.164 197.035 159.636 197.035 159.049V149.16H199.719V159.115C199.719 160.369 199.448 161.462 198.905 162.393C198.37 163.324 197.622 164.047 196.661 164.56C195.708 165.073 194.6 165.33 193.339 165.33ZM202.793 165V149.16H205.477L212.825 160.325V149.16H215.509V165H212.825L205.477 153.835V165H202.793ZM222.39 165V151.646H217.264V149.16H230.167V151.646H225.041V165H222.39ZM231.926 165V149.16H238.471C238.625 149.16 238.823 149.167 239.065 149.182C239.307 149.189 239.53 149.211 239.736 149.248C240.652 149.387 241.408 149.692 242.002 150.161C242.603 150.63 243.047 151.224 243.333 151.943C243.626 152.654 243.773 153.446 243.773 154.319C243.773 155.61 243.446 156.721 242.794 157.652C242.141 158.576 241.14 159.148 239.791 159.368L238.658 159.467H234.577V165H231.926ZM241.023 165L237.899 158.554L240.594 157.96L244.026 165H241.023ZM234.577 156.992H238.361C238.507 156.992 238.672 156.985 238.856 156.97C239.039 156.955 239.208 156.926 239.362 156.882C239.802 156.772 240.146 156.578 240.396 156.299C240.652 156.02 240.832 155.705 240.935 155.353C241.045 155.001 241.1 154.656 241.1 154.319C241.1 153.982 241.045 153.637 240.935 153.285C240.832 152.926 240.652 152.607 240.396 152.328C240.146 152.049 239.802 151.855 239.362 151.745C239.208 151.701 239.039 151.675 238.856 151.668C238.672 151.653 238.507 151.646 238.361 151.646H234.577V156.992ZM246.669 165V149.16H249.32V165H246.669ZM252.615 165V149.16H262.845V151.646H255.266V155.551H261.525V158.037H255.266V162.514H262.845V165H252.615ZM271.197 165.33C270.038 165.33 268.993 165.128 268.062 164.725C267.138 164.322 266.375 163.746 265.774 162.998C265.18 162.243 264.802 161.348 264.641 160.314L267.391 159.896C267.626 160.835 268.106 161.561 268.832 162.074C269.565 162.587 270.409 162.844 271.362 162.844C271.927 162.844 272.458 162.756 272.957 162.58C273.456 162.404 273.859 162.147 274.167 161.81C274.482 161.473 274.64 161.058 274.64 160.567C274.64 160.347 274.603 160.145 274.53 159.962C274.457 159.771 274.347 159.603 274.2 159.456C274.061 159.309 273.877 159.177 273.65 159.06C273.43 158.935 273.173 158.829 272.88 158.741L268.788 157.531C268.436 157.428 268.055 157.293 267.644 157.124C267.241 156.948 266.856 156.71 266.489 156.409C266.13 156.101 265.833 155.712 265.598 155.243C265.371 154.766 265.257 154.18 265.257 153.483C265.257 152.464 265.514 151.609 266.027 150.92C266.548 150.223 267.244 149.703 268.117 149.358C268.997 149.013 269.972 148.845 271.043 148.852C272.128 148.859 273.096 149.046 273.947 149.413C274.798 149.772 275.509 150.297 276.081 150.986C276.653 151.675 277.056 152.508 277.291 153.483L274.442 153.978C274.325 153.421 274.097 152.948 273.76 152.559C273.43 152.163 273.023 151.862 272.539 151.657C272.062 151.452 271.553 151.342 271.01 151.327C270.482 151.32 269.991 151.4 269.536 151.569C269.089 151.73 268.726 151.965 268.447 152.273C268.176 152.581 268.04 152.94 268.04 153.351C268.04 153.74 268.157 154.059 268.392 154.308C268.627 154.55 268.916 154.744 269.261 154.891C269.613 155.03 269.969 155.148 270.328 155.243L273.166 156.035C273.555 156.138 273.991 156.277 274.475 156.453C274.959 156.629 275.425 156.875 275.872 157.19C276.319 157.505 276.686 157.92 276.972 158.433C277.265 158.946 277.412 159.599 277.412 160.391C277.412 161.212 277.24 161.935 276.895 162.558C276.558 163.174 276.099 163.687 275.52 164.098C274.941 164.509 274.277 164.817 273.529 165.022C272.788 165.227 272.011 165.33 271.197 165.33ZM284.197 165V149.16H290.742C290.896 149.16 291.094 149.167 291.336 149.182C291.578 149.189 291.802 149.211 292.007 149.248C292.924 149.387 293.679 149.692 294.273 150.161C294.875 150.63 295.318 151.224 295.604 151.943C295.898 152.654 296.044 153.446 296.044 154.319C296.044 155.61 295.718 156.721 295.065 157.652C294.413 158.576 293.412 159.148 292.062 159.368L290.929 159.467H286.848V165H284.197ZM293.294 165L290.17 158.554L292.865 157.96L296.297 165H293.294ZM286.848 156.992H290.632C290.779 156.992 290.944 156.985 291.127 156.97C291.311 156.955 291.479 156.926 291.633 156.882C292.073 156.772 292.418 156.578 292.667 156.299C292.924 156.02 293.104 155.705 293.206 155.353C293.316 155.001 293.371 154.656 293.371 154.319C293.371 153.982 293.316 153.637 293.206 153.285C293.104 152.926 292.924 152.607 292.667 152.328C292.418 152.049 292.073 151.855 291.633 151.745C291.479 151.701 291.311 151.675 291.127 151.668C290.944 151.653 290.779 151.646 290.632 151.646H286.848V156.992ZM305.42 165.33C303.836 165.33 302.479 164.985 301.35 164.296C300.22 163.599 299.351 162.631 298.743 161.392C298.141 160.153 297.841 158.715 297.841 157.08C297.841 155.445 298.141 154.007 298.743 152.768C299.351 151.529 300.22 150.564 301.35 149.875C302.479 149.178 303.836 148.83 305.42 148.83C307.004 148.83 308.36 149.178 309.49 149.875C310.626 150.564 311.495 151.529 312.097 152.768C312.705 154.007 313.01 155.445 313.01 157.08C313.01 158.715 312.705 160.153 312.097 161.392C311.495 162.631 310.626 163.599 309.49 164.296C308.36 164.985 307.004 165.33 305.42 165.33ZM305.42 162.833C306.483 162.84 307.367 162.606 308.071 162.129C308.782 161.652 309.314 160.981 309.666 160.116C310.025 159.251 310.205 158.239 310.205 157.08C310.205 155.921 310.025 154.917 309.666 154.066C309.314 153.208 308.782 152.541 308.071 152.064C307.367 151.587 306.483 151.342 305.42 151.327C304.356 151.32 303.473 151.554 302.769 152.031C302.065 152.508 301.533 153.179 301.174 154.044C300.822 154.909 300.646 155.921 300.646 157.08C300.646 158.239 300.822 159.247 301.174 160.105C301.526 160.956 302.054 161.619 302.758 162.096C303.469 162.573 304.356 162.818 305.42 162.833ZM315.199 165V149.16H321.48C322.551 149.16 323.427 149.376 324.109 149.809C324.799 150.234 325.308 150.781 325.638 151.448C325.976 152.115 326.144 152.805 326.144 153.516C326.144 154.389 325.935 155.129 325.517 155.738C325.107 156.347 324.546 156.757 323.834 156.97V156.42C324.832 156.647 325.587 157.12 326.1 157.839C326.621 158.558 326.881 159.375 326.881 160.292C326.881 161.231 326.702 162.052 326.342 162.756C325.983 163.46 325.448 164.01 324.736 164.406C324.032 164.802 323.16 165 322.118 165H315.199ZM317.883 162.503H321.788C322.25 162.503 322.665 162.411 323.031 162.228C323.398 162.037 323.684 161.773 323.889 161.436C324.102 161.091 324.208 160.684 324.208 160.215C324.208 159.79 324.117 159.408 323.933 159.071C323.75 158.734 323.482 158.466 323.13 158.268C322.778 158.063 322.357 157.96 321.865 157.96H317.883V162.503ZM317.883 155.485H321.447C321.829 155.485 322.17 155.412 322.47 155.265C322.771 155.118 323.009 154.902 323.185 154.616C323.361 154.33 323.449 153.978 323.449 153.56C323.449 153.01 323.273 152.552 322.921 152.185C322.569 151.818 322.078 151.635 321.447 151.635H317.883V155.485ZM335.777 165.33C334.193 165.33 332.836 164.985 331.707 164.296C330.578 163.599 329.709 162.631 329.1 161.392C328.499 160.153 328.198 158.715 328.198 157.08C328.198 155.445 328.499 154.007 329.1 152.768C329.709 151.529 330.578 150.564 331.707 149.875C332.836 149.178 334.193 148.83 335.777 148.83C337.361 148.83 338.718 149.178 339.847 149.875C340.984 150.564 341.853 151.529 342.454 152.768C343.063 154.007 343.367 155.445 343.367 157.08C343.367 158.715 343.063 160.153 342.454 161.392C341.853 162.631 340.984 163.599 339.847 164.296C338.718 164.985 337.361 165.33 335.777 165.33ZM335.777 162.833C336.84 162.84 337.724 162.606 338.428 162.129C339.139 161.652 339.671 160.981 340.023 160.116C340.382 159.251 340.562 158.239 340.562 157.08C340.562 155.921 340.382 154.917 340.023 154.066C339.671 153.208 339.139 152.541 338.428 152.064C337.724 151.587 336.84 151.342 335.777 151.327C334.714 151.32 333.83 151.554 333.126 152.031C332.422 152.508 331.89 153.179 331.531 154.044C331.179 154.909 331.003 155.921 331.003 157.08C331.003 158.239 331.179 159.247 331.531 160.105C331.883 160.956 332.411 161.619 333.115 162.096C333.826 162.573 334.714 162.818 335.777 162.833ZM348.933 165V151.646H343.807V149.16H356.71V151.646H351.584V165H348.933ZM364.332 165.33C363.173 165.33 362.128 165.128 361.197 164.725C360.273 164.322 359.51 163.746 358.909 162.998C358.315 162.243 357.937 161.348 357.776 160.314L360.526 159.896C360.76 160.835 361.241 161.561 361.967 162.074C362.7 162.587 363.543 162.844 364.497 162.844C365.061 162.844 365.593 162.756 366.092 162.58C366.59 162.404 366.994 162.147 367.302 161.81C367.617 161.473 367.775 161.058 367.775 160.567C367.775 160.347 367.738 160.145 367.665 159.962C367.591 159.771 367.481 159.603 367.335 159.456C367.195 159.309 367.012 159.177 366.785 159.06C366.565 158.935 366.308 158.829 366.015 158.741L361.923 157.531C361.571 157.428 361.189 157.293 360.779 157.124C360.375 156.948 359.99 156.71 359.624 156.409C359.264 156.101 358.967 155.712 358.733 155.243C358.505 154.766 358.392 154.18 358.392 153.483C358.392 152.464 358.648 151.609 359.162 150.92C359.682 150.223 360.379 149.703 361.252 149.358C362.132 149.013 363.107 148.845 364.178 148.852C365.263 148.859 366.231 149.046 367.082 149.413C367.932 149.772 368.644 150.297 369.216 150.986C369.788 151.675 370.191 152.508 370.426 153.483L367.577 153.978C367.459 153.421 367.232 152.948 366.895 152.559C366.565 152.163 366.158 151.862 365.674 151.657C365.197 151.452 364.687 151.342 364.145 151.327C363.617 151.32 363.125 151.4 362.671 151.569C362.223 151.73 361.86 151.965 361.582 152.273C361.31 152.581 361.175 152.94 361.175 153.351C361.175 153.74 361.292 154.059 361.527 154.308C361.761 154.55 362.051 154.744 362.396 154.891C362.748 155.03 363.103 155.148 363.463 155.243L366.301 156.035C366.689 156.138 367.126 156.277 367.61 156.453C368.094 156.629 368.559 156.875 369.007 157.19C369.454 157.505 369.821 157.92 370.107 158.433C370.4 158.946 370.547 159.599 370.547 160.391C370.547 161.212 370.374 161.935 370.03 162.558C369.692 163.174 369.234 163.687 368.655 164.098C368.075 164.509 367.412 164.817 366.664 165.022C365.923 165.227 365.146 165.33 364.332 165.33ZM376.232 165L381.226 149.16H385.109L390.103 165H387.375L382.843 150.788H383.437L378.96 165H376.232ZM379.015 161.568V159.093H387.331V161.568H379.015ZM392.092 165V149.16H398.637C398.791 149.16 398.989 149.167 399.231 149.182C399.473 149.189 399.696 149.211 399.902 149.248C400.818 149.387 401.574 149.692 402.168 150.161C402.769 150.63 403.213 151.224 403.499 151.943C403.792 152.654 403.939 153.446 403.939 154.319C403.939 155.61 403.612 156.721 402.96 157.652C402.307 158.576 401.306 159.148 399.957 159.368L398.824 159.467H394.743V165H392.092ZM401.189 165L398.065 158.554L400.76 157.96L404.192 165H401.189ZM394.743 156.992H398.527C398.673 156.992 398.838 156.985 399.022 156.97C399.205 156.955 399.374 156.926 399.528 156.882C399.968 156.772 400.312 156.578 400.562 156.299C400.818 156.02 400.998 155.705 401.101 155.353C401.211 155.001 401.266 154.656 401.266 154.319C401.266 153.982 401.211 153.637 401.101 153.285C400.998 152.926 400.818 152.607 400.562 152.328C400.312 152.049 399.968 151.855 399.528 151.745C399.374 151.701 399.205 151.675 399.022 151.668C398.838 151.653 398.673 151.646 398.527 151.646H394.743V156.992ZM406.615 165V149.16H416.845V151.646H409.266V155.551H415.525V158.037H409.266V162.514H416.845V165H406.615ZM422.789 165L427.783 149.16H431.666L436.66 165H433.932L429.4 150.788H429.994L425.517 165H422.789ZM425.572 161.568V159.093H433.888V161.568H425.572ZM438.648 165V149.16H444.929C446 149.16 446.876 149.376 447.558 149.809C448.248 150.234 448.757 150.781 449.087 151.448C449.425 152.115 449.593 152.805 449.593 153.516C449.593 154.389 449.384 155.129 448.966 155.738C448.556 156.347 447.995 156.757 447.283 156.97V156.42C448.281 156.647 449.036 157.12 449.549 157.839C450.07 158.558 450.33 159.375 450.33 160.292C450.33 161.231 450.151 162.052 449.791 162.756C449.432 163.46 448.897 164.01 448.185 164.406C447.481 164.802 446.609 165 445.567 165H438.648ZM441.332 162.503H445.237C445.699 162.503 446.114 162.411 446.48 162.228C446.847 162.037 447.133 161.773 447.338 161.436C447.551 161.091 447.657 160.684 447.657 160.215C447.657 159.79 447.566 159.408 447.382 159.071C447.199 158.734 446.931 158.466 446.579 158.268C446.227 158.063 445.806 157.96 445.314 157.96H441.332V162.503ZM441.332 155.485H444.896C445.278 155.485 445.619 155.412 445.919 155.265C446.22 155.118 446.458 154.902 446.634 154.616C446.81 154.33 446.898 153.978 446.898 153.56C446.898 153.01 446.722 152.552 446.37 152.185C446.018 151.818 445.527 151.635 444.896 151.635H441.332V155.485ZM452.747 165V149.16H455.398V162.514H462.394V165H452.747ZM464.258 165V149.16H474.488V151.646H466.909V155.551H473.168V158.037H466.909V162.514H474.488V165H464.258ZM485.337 165V151.646H480.211V149.16H493.114V151.646H487.988V165H485.337ZM501.572 165.33C499.988 165.33 498.631 164.985 497.502 164.296C496.373 163.599 495.504 162.631 494.895 161.392C494.294 160.153 493.993 158.715 493.993 157.08C493.993 155.445 494.294 154.007 494.895 152.768C495.504 151.529 496.373 150.564 497.502 149.875C498.631 149.178 499.988 148.83 501.572 148.83C503.156 148.83 504.513 149.178 505.642 149.875C506.779 150.564 507.648 151.529 508.249 152.768C508.858 154.007 509.162 155.445 509.162 157.08C509.162 158.715 508.858 160.153 508.249 161.392C507.648 162.631 506.779 163.599 505.642 164.296C504.513 164.985 503.156 165.33 501.572 165.33ZM501.572 162.833C502.635 162.84 503.519 162.606 504.223 162.129C504.934 161.652 505.466 160.981 505.818 160.116C506.177 159.251 506.357 158.239 506.357 157.08C506.357 155.921 506.177 154.917 505.818 154.066C505.466 153.208 504.934 152.541 504.223 152.064C503.519 151.587 502.635 151.342 501.572 151.327C500.509 151.32 499.625 151.554 498.921 152.031C498.217 152.508 497.685 153.179 497.326 154.044C496.974 154.909 496.798 155.921 496.798 157.08C496.798 158.239 496.974 159.247 497.326 160.105C497.678 160.956 498.206 161.619 498.91 162.096C499.621 162.573 500.509 162.818 501.572 162.833ZM515.756 165V149.16H520.805C520.937 149.16 521.197 149.164 521.586 149.171C521.982 149.178 522.363 149.204 522.73 149.248C523.984 149.409 525.043 149.857 525.909 150.59C526.781 151.316 527.441 152.244 527.889 153.373C528.336 154.502 528.56 155.738 528.56 157.08C528.56 158.422 528.336 159.658 527.889 160.787C527.441 161.916 526.781 162.848 525.909 163.581C525.043 164.307 523.984 164.751 522.73 164.912C522.37 164.956 521.993 164.982 521.597 164.989C521.201 164.996 520.937 165 520.805 165H515.756ZM518.451 162.503H520.805C521.025 162.503 521.303 162.496 521.641 162.481C521.985 162.466 522.29 162.433 522.554 162.382C523.302 162.243 523.91 161.909 524.38 161.381C524.849 160.853 525.194 160.211 525.414 159.456C525.641 158.701 525.755 157.909 525.755 157.08C525.755 156.222 525.641 155.415 525.414 154.66C525.186 153.905 524.834 153.27 524.358 152.757C523.888 152.244 523.287 151.917 522.554 151.778C522.29 151.719 521.985 151.686 521.641 151.679C521.303 151.664 521.025 151.657 520.805 151.657H518.451V162.503ZM537.859 165.33C536.275 165.33 534.918 164.985 533.789 164.296C532.66 163.599 531.791 162.631 531.182 161.392C530.581 160.153 530.28 158.715 530.28 157.08C530.28 155.445 530.581 154.007 531.182 152.768C531.791 151.529 532.66 150.564 533.789 149.875C534.918 149.178 536.275 148.83 537.859 148.83C539.443 148.83 540.8 149.178 541.929 149.875C543.066 150.564 543.935 151.529 544.536 152.768C545.145 154.007 545.449 155.445 545.449 157.08C545.449 158.715 545.145 160.153 544.536 161.392C543.935 162.631 543.066 163.599 541.929 164.296C540.8 164.985 539.443 165.33 537.859 165.33ZM537.859 162.833C538.922 162.84 539.806 162.606 540.51 162.129C541.221 161.652 541.753 160.981 542.105 160.116C542.464 159.251 542.644 158.239 542.644 157.08C542.644 155.921 542.464 154.917 542.105 154.066C541.753 153.208 541.221 152.541 540.51 152.064C539.806 151.587 538.922 151.342 537.859 151.327C536.796 151.32 535.912 151.554 535.208 152.031C534.504 152.508 533.972 153.179 533.613 154.044C533.261 154.909 533.085 155.921 533.085 157.08C533.085 158.239 533.261 159.247 533.613 160.105C533.965 160.956 534.493 161.619 535.197 162.096C535.908 162.573 536.796 162.818 537.859 162.833ZM52.1123 194V178.16H54.7963L62.1443 189.325V178.16H64.8283V194H62.1443L54.7963 182.835V194H52.1123ZM74.6023 194.33C73.0183 194.33 71.6616 193.985 70.5323 193.296C69.4029 192.599 68.5339 191.631 67.9253 190.392C67.3239 189.153 67.0233 187.715 67.0233 186.08C67.0233 184.445 67.3239 183.007 67.9253 181.768C68.5339 180.529 69.4029 179.564 70.5323 178.875C71.6616 178.178 73.0183 177.83 74.6023 177.83C76.1863 177.83 77.5429 178.178 78.6723 178.875C79.8089 179.564 80.6779 180.529 81.2793 181.768C81.8879 183.007 82.1923 184.445 82.1923 186.08C82.1923 187.715 81.8879 189.153 81.2793 190.392C80.6779 191.631 79.8089 192.599 78.6723 193.296C77.5429 193.985 76.1863 194.33 74.6023 194.33ZM74.6023 191.833C75.6656 191.84 76.5493 191.606 77.2533 191.129C77.9646 190.652 78.4963 189.981 78.8483 189.116C79.2076 188.251 79.3873 187.239 79.3873 186.08C79.3873 184.921 79.2076 183.917 78.8483 183.066C78.4963 182.208 77.9646 181.541 77.2533 181.064C76.5493 180.587 75.6656 180.342 74.6023 180.327C73.5389 180.32 72.6553 180.554 71.9513 181.031C71.2473 181.508 70.7156 182.179 70.3563 183.044C70.0043 183.909 69.8283 184.921 69.8283 186.08C69.8283 187.239 70.0043 188.247 70.3563 189.105C70.7083 189.956 71.2363 190.619 71.9403 191.096C72.6516 191.573 73.5389 191.818 74.6023 191.833ZM87.7581 194V180.646H82.6321V178.16H95.5351V180.646H90.4091V194H87.7581ZM101.032 194V178.16H106.081C106.213 178.16 106.474 178.164 106.862 178.171C107.258 178.178 107.64 178.204 108.006 178.248C109.26 178.409 110.32 178.857 111.185 179.59C112.058 180.316 112.718 181.244 113.165 182.373C113.613 183.502 113.836 184.738 113.836 186.08C113.836 187.422 113.613 188.658 113.165 189.787C112.718 190.916 112.058 191.848 111.185 192.581C110.32 193.307 109.26 193.751 108.006 193.912C107.647 193.956 107.269 193.982 106.873 193.989C106.477 193.996 106.213 194 106.081 194H101.032ZM103.727 191.503H106.081C106.301 191.503 106.58 191.496 106.917 191.481C107.262 191.466 107.566 191.433 107.83 191.382C108.578 191.243 109.187 190.909 109.656 190.381C110.126 189.853 110.47 189.211 110.69 188.456C110.918 187.701 111.031 186.909 111.031 186.08C111.031 185.222 110.918 184.415 110.69 183.66C110.463 182.905 110.111 182.27 109.634 181.757C109.165 181.244 108.564 180.917 107.83 180.778C107.566 180.719 107.262 180.686 106.917 180.679C106.58 180.664 106.301 180.657 106.081 180.657H103.727V191.503ZM116.656 194V178.16H119.307V194H116.656ZM122.603 194V178.16H132.14V180.811H125.254V184.76H130.82V187.4H125.254V194H122.603ZM134.118 194V178.16H143.655V180.811H136.769V184.76H142.335V187.4H136.769V194H134.118ZM145.854 194V178.16H148.505V194H145.854ZM158.499 194.33C156.915 194.33 155.558 193.985 154.429 193.296C153.299 192.599 152.43 191.631 151.822 190.392C151.22 189.153 150.92 187.715 150.92 186.08C150.92 184.445 151.22 183.007 151.822 181.768C152.43 180.529 153.299 179.564 154.429 178.875C155.558 178.178 156.915 177.83 158.499 177.83C160.325 177.83 161.846 178.288 163.064 179.205C164.281 180.114 165.135 181.343 165.627 182.89L162.954 183.627C162.646 182.593 162.121 181.786 161.381 181.207C160.64 180.62 159.679 180.327 158.499 180.327C157.435 180.327 156.548 180.565 155.837 181.042C155.133 181.519 154.601 182.19 154.242 183.055C153.89 183.913 153.71 184.921 153.703 186.08C153.703 187.239 153.879 188.251 154.231 189.116C154.59 189.974 155.125 190.641 155.837 191.118C156.548 191.595 157.435 191.833 158.499 191.833C159.679 191.833 160.64 191.54 161.381 190.953C162.121 190.366 162.646 189.56 162.954 188.533L165.627 189.27C165.135 190.817 164.281 192.049 163.064 192.966C161.846 193.875 160.325 194.33 158.499 194.33ZM174.422 194.33C173.161 194.33 172.05 194.073 171.089 193.56C170.136 193.047 169.388 192.324 168.845 191.393C168.31 190.462 168.042 189.369 168.042 188.115V178.182L170.726 178.16V188.049C170.726 188.643 170.825 189.175 171.023 189.644C171.228 190.113 171.503 190.513 171.848 190.843C172.193 191.166 172.589 191.411 173.036 191.58C173.483 191.749 173.945 191.833 174.422 191.833C174.913 191.833 175.379 191.749 175.819 191.58C176.266 191.404 176.662 191.155 177.007 190.832C177.352 190.502 177.623 190.102 177.821 189.633C178.019 189.164 178.118 188.636 178.118 188.049V178.16H180.802V188.115C180.802 189.369 180.531 190.462 179.988 191.393C179.453 192.324 178.705 193.047 177.744 193.56C176.791 194.073 175.683 194.33 174.422 194.33ZM184.096 194V178.16H186.747V191.514H193.743V194H184.096ZM197.221 194V180.646H192.095V178.16H204.998V180.646H199.872V194H197.221ZM220.762 194.33C219.604 194.33 218.559 194.128 217.627 193.725C216.703 193.322 215.941 192.746 215.339 191.998C214.745 191.243 214.368 190.348 214.206 189.314L216.956 188.896C217.191 189.835 217.671 190.561 218.397 191.074C219.131 191.587 219.974 191.844 220.927 191.844C221.492 191.844 222.024 191.756 222.522 191.58C223.021 191.404 223.424 191.147 223.732 190.81C224.048 190.473 224.205 190.058 224.205 189.567C224.205 189.347 224.169 189.145 224.095 188.962C224.022 188.771 223.912 188.603 223.765 188.456C223.626 188.309 223.443 188.177 223.215 188.06C222.995 187.935 222.739 187.829 222.445 187.741L218.353 186.531C218.001 186.428 217.62 186.293 217.209 186.124C216.806 185.948 216.421 185.71 216.054 185.409C215.695 185.101 215.398 184.712 215.163 184.243C214.936 183.766 214.822 183.18 214.822 182.483C214.822 181.464 215.079 180.609 215.592 179.92C216.113 179.223 216.81 178.703 217.682 178.358C218.562 178.013 219.538 177.845 220.608 177.852C221.694 177.859 222.662 178.046 223.512 178.413C224.363 178.772 225.074 179.297 225.646 179.986C226.218 180.675 226.622 181.508 226.856 182.483L224.007 182.978C223.89 182.421 223.663 181.948 223.325 181.559C222.995 181.163 222.588 180.862 222.104 180.657C221.628 180.452 221.118 180.342 220.575 180.327C220.047 180.32 219.556 180.4 219.101 180.569C218.654 180.73 218.291 180.965 218.012 181.273C217.741 181.581 217.605 181.94 217.605 182.351C217.605 182.74 217.723 183.059 217.957 183.308C218.192 183.55 218.482 183.744 218.826 183.891C219.178 184.03 219.534 184.148 219.893 184.243L222.731 185.035C223.12 185.138 223.556 185.277 224.04 185.453C224.524 185.629 224.99 185.875 225.437 186.19C225.885 186.505 226.251 186.92 226.537 187.433C226.831 187.946 226.977 188.599 226.977 189.391C226.977 190.212 226.805 190.935 226.46 191.558C226.123 192.174 225.665 192.687 225.085 193.098C224.506 193.509 223.842 193.817 223.094 194.022C222.354 194.227 221.576 194.33 220.762 194.33ZM235.738 194.33C234.477 194.33 233.366 194.073 232.405 193.56C231.452 193.047 230.704 192.324 230.161 191.393C229.626 190.462 229.358 189.369 229.358 188.115V178.182L232.042 178.16V188.049C232.042 188.643 232.141 189.175 232.339 189.644C232.545 190.113 232.82 190.513 233.164 190.843C233.509 191.166 233.905 191.411 234.352 191.58C234.8 191.749 235.262 191.833 235.738 191.833C236.23 191.833 236.695 191.749 237.135 191.58C237.583 191.404 237.979 191.155 238.323 190.832C238.668 190.502 238.939 190.102 239.137 189.633C239.335 189.164 239.434 188.636 239.434 188.049V178.16H242.118V188.115C242.118 189.369 241.847 190.462 241.304 191.393C240.769 192.324 240.021 193.047 239.06 193.56C238.107 194.073 237 194.33 235.738 194.33ZM245.192 194V178.16H251.737C251.891 178.16 252.089 178.167 252.331 178.182C252.573 178.189 252.797 178.211 253.002 178.248C253.919 178.387 254.674 178.692 255.268 179.161C255.87 179.63 256.313 180.224 256.599 180.943C256.893 181.654 257.039 182.446 257.039 183.319C257.039 184.61 256.713 185.721 256.06 186.652C255.408 187.576 254.407 188.148 253.057 188.368L251.924 188.467H247.843V194H245.192ZM254.289 194L251.165 187.554L253.86 186.96L257.292 194H254.289ZM247.843 185.992H251.627C251.774 185.992 251.939 185.985 252.122 185.97C252.306 185.955 252.474 185.926 252.628 185.882C253.068 185.772 253.413 185.578 253.662 185.299C253.919 185.02 254.099 184.705 254.201 184.353C254.311 184.001 254.366 183.656 254.366 183.319C254.366 182.982 254.311 182.637 254.201 182.285C254.099 181.926 253.919 181.607 253.662 181.328C253.413 181.049 253.068 180.855 252.628 180.745C252.474 180.701 252.306 180.675 252.122 180.668C251.939 180.653 251.774 180.646 251.627 180.646H247.843V185.992ZM266.25 194.33C265.223 194.33 264.259 194.15 263.357 193.791C262.462 193.424 261.674 192.889 260.992 192.185C260.317 191.481 259.789 190.619 259.408 189.6C259.026 188.573 258.836 187.4 258.836 186.08C258.836 184.349 259.158 182.872 259.804 181.647C260.449 180.415 261.333 179.473 262.455 178.82C263.577 178.16 264.842 177.83 266.25 177.83C268.2 177.83 269.744 178.285 270.881 179.194C272.025 180.096 272.798 181.365 273.202 183L270.496 183.429C270.195 182.49 269.704 181.742 269.022 181.185C268.34 180.62 267.471 180.338 266.415 180.338C265.351 180.323 264.468 180.554 263.764 181.031C263.06 181.508 262.528 182.179 262.169 183.044C261.817 183.909 261.641 184.921 261.641 186.08C261.641 187.239 261.817 188.247 262.169 189.105C262.521 189.956 263.049 190.619 263.753 191.096C264.464 191.573 265.351 191.818 266.415 191.833C267.214 191.84 267.914 191.697 268.516 191.404C269.117 191.103 269.608 190.652 269.99 190.051C270.371 189.442 270.628 188.683 270.76 187.774H267.966V185.695H273.576C273.59 185.812 273.601 185.985 273.609 186.212C273.616 186.439 273.62 186.575 273.62 186.619C273.62 188.115 273.323 189.446 272.729 190.612C272.142 191.771 271.299 192.68 270.199 193.34C269.099 194 267.782 194.33 266.25 194.33ZM275.829 194V178.16H286.059V180.646H278.48V184.551H284.739V187.037H278.48V191.514H286.059V194H275.829ZM288.698 194V178.16H295.243C295.397 178.16 295.595 178.167 295.837 178.182C296.079 178.189 296.303 178.211 296.508 178.248C297.425 178.387 298.18 178.692 298.774 179.161C299.376 179.63 299.819 180.224 300.105 180.943C300.399 181.654 300.545 182.446 300.545 183.319C300.545 184.61 300.219 185.721 299.566 186.652C298.914 187.576 297.913 188.148 296.563 188.368L295.43 188.467H291.349V194H288.698ZM297.795 194L294.671 187.554L297.366 186.96L300.798 194H297.795ZM291.349 185.992H295.133C295.28 185.992 295.445 185.985 295.628 185.97C295.812 185.955 295.98 185.926 296.134 185.882C296.574 185.772 296.919 185.578 297.168 185.299C297.425 185.02 297.605 184.705 297.707 184.353C297.817 184.001 297.872 183.656 297.872 183.319C297.872 182.982 297.817 182.637 297.707 182.285C297.605 181.926 297.425 181.607 297.168 181.328C296.919 181.049 296.574 180.855 296.134 180.745C295.98 180.701 295.812 180.675 295.628 180.668C295.445 180.653 295.28 180.646 295.133 180.646H291.349V185.992ZM303.442 194V178.16H306.093V194H303.442ZM309.388 194V178.16H319.618V180.646H312.039V184.551H318.298V187.037H312.039V191.514H319.618V194H309.388ZM327.969 194.33C326.811 194.33 325.766 194.128 324.834 193.725C323.91 193.322 323.148 192.746 322.546 191.998C321.952 191.243 321.575 190.348 321.413 189.314L324.163 188.896C324.398 189.835 324.878 190.561 325.604 191.074C326.338 191.587 327.181 191.844 328.134 191.844C328.699 191.844 329.231 191.756 329.729 191.58C330.228 191.404 330.631 191.147 330.939 190.81C331.255 190.473 331.412 190.058 331.412 189.567C331.412 189.347 331.376 189.145 331.302 188.962C331.229 188.771 331.119 188.603 330.972 188.456C330.833 188.309 330.65 188.177 330.422 188.06C330.202 187.935 329.946 187.829 329.652 187.741L325.56 186.531C325.208 186.428 324.827 186.293 324.416 186.124C324.013 185.948 323.628 185.71 323.261 185.409C322.902 185.101 322.605 184.712 322.37 184.243C322.143 183.766 322.029 183.18 322.029 182.483C322.029 181.464 322.286 180.609 322.799 179.92C323.32 179.223 324.017 178.703 324.889 178.358C325.769 178.013 326.745 177.845 327.815 177.852C328.901 177.859 329.869 178.046 330.719 178.413C331.57 178.772 332.281 179.297 332.853 179.986C333.425 180.675 333.829 181.508 334.063 182.483L331.214 182.978C331.097 182.421 330.87 181.948 330.532 181.559C330.202 181.163 329.795 180.862 329.311 180.657C328.835 180.452 328.325 180.342 327.782 180.327C327.254 180.32 326.763 180.4 326.308 180.569C325.861 180.73 325.498 180.965 325.219 181.273C324.948 181.581 324.812 181.94 324.812 182.351C324.812 182.74 324.93 183.059 325.164 183.308C325.399 183.55 325.689 183.744 326.033 183.891C326.385 184.03 326.741 184.148 327.1 184.243L329.938 185.035C330.327 185.138 330.763 185.277 331.247 185.453C331.731 185.629 332.197 185.875 332.644 186.19C333.092 186.505 333.458 186.92 333.744 187.433C334.038 187.946 334.184 188.599 334.184 189.391C334.184 190.212 334.012 190.935 333.667 191.558C333.33 192.174 332.872 192.687 332.292 193.098C331.713 193.509 331.049 193.817 330.301 194.022C329.561 194.227 328.783 194.33 327.969 194.33ZM335.787 196.805L335.941 195.661C336.278 195.69 336.546 195.632 336.744 195.485C336.942 195.346 337.074 195.144 337.14 194.88C337.213 194.623 337.231 194.33 337.195 194H335.787V191.173H338.504V194.11C338.504 195.071 338.276 195.797 337.822 196.288C337.367 196.779 336.689 196.952 335.787 196.805ZM350.437 194L345.806 178.16H348.589L351.746 189.6L354.892 178.182L357.675 178.16L360.832 189.6L363.978 178.16H366.761L362.141 194H359.523L356.278 182.736L353.055 194H350.437ZM374.825 194.33C373.241 194.33 371.884 193.985 370.755 193.296C369.626 192.599 368.757 191.631 368.148 190.392C367.547 189.153 367.246 187.715 367.246 186.08C367.246 184.445 367.547 183.007 368.148 181.768C368.757 180.529 369.626 179.564 370.755 178.875C371.884 178.178 373.241 177.83 374.825 177.83C376.409 177.83 377.766 178.178 378.895 178.875C380.032 179.564 380.901 180.529 381.502 181.768C382.111 183.007 382.415 184.445 382.415 186.08C382.415 187.715 382.111 189.153 381.502 190.392C380.901 191.631 380.032 192.599 378.895 193.296C377.766 193.985 376.409 194.33 374.825 194.33ZM374.825 191.833C375.888 191.84 376.772 191.606 377.476 191.129C378.187 190.652 378.719 189.981 379.071 189.116C379.43 188.251 379.61 187.239 379.61 186.08C379.61 184.921 379.43 183.917 379.071 183.066C378.719 182.208 378.187 181.541 377.476 181.064C376.772 180.587 375.888 180.342 374.825 180.327C373.762 180.32 372.878 180.554 372.174 181.031C371.47 181.508 370.938 182.179 370.579 183.044C370.227 183.909 370.051 184.921 370.051 186.08C370.051 187.239 370.227 188.247 370.579 189.105C370.931 189.956 371.459 190.619 372.163 191.096C372.874 191.573 373.762 191.818 374.825 191.833ZM390.984 194.33C389.723 194.33 388.612 194.073 387.651 193.56C386.698 193.047 385.95 192.324 385.407 191.393C384.872 190.462 384.604 189.369 384.604 188.115V178.182L387.288 178.16V188.049C387.288 188.643 387.387 189.175 387.585 189.644C387.791 190.113 388.066 190.513 388.41 190.843C388.755 191.166 389.151 191.411 389.598 191.58C390.046 191.749 390.508 191.833 390.984 191.833C391.476 191.833 391.941 191.749 392.381 191.58C392.829 191.404 393.225 191.155 393.569 190.832C393.914 190.502 394.185 190.102 394.383 189.633C394.581 189.164 394.68 188.636 394.68 188.049V178.16H397.364V188.115C397.364 189.369 397.093 190.462 396.55 191.393C396.015 192.324 395.267 193.047 394.306 193.56C393.353 194.073 392.246 194.33 390.984 194.33ZM400.658 194V178.16H403.309V191.514H410.305V194H400.658ZM412.169 194V178.16H417.218C417.35 178.16 417.61 178.164 417.999 178.171C418.395 178.178 418.776 178.204 419.143 178.248C420.397 178.409 421.457 178.857 422.322 179.59C423.195 180.316 423.855 181.244 424.302 182.373C424.749 183.502 424.973 184.738 424.973 186.08C424.973 187.422 424.749 188.658 424.302 189.787C423.855 190.916 423.195 191.848 422.322 192.581C421.457 193.307 420.397 193.751 419.143 193.912C418.784 193.956 418.406 193.982 418.01 193.989C417.614 193.996 417.35 194 417.218 194H412.169ZM414.864 191.503H417.218C417.438 191.503 417.717 191.496 418.054 191.481C418.399 191.466 418.703 191.433 418.967 191.382C419.715 191.243 420.324 190.909 420.793 190.381C421.262 189.853 421.607 189.211 421.827 188.456C422.054 187.701 422.168 186.909 422.168 186.08C422.168 185.222 422.054 184.415 421.827 183.66C421.6 182.905 421.248 182.27 420.771 181.757C420.302 181.244 419.7 180.917 418.967 180.778C418.703 180.719 418.399 180.686 418.054 180.679C417.717 180.664 417.438 180.657 417.218 180.657H414.864V191.503ZM435.828 194V187.51L430.438 178.16H433.529L437.17 184.474L440.8 178.16H443.891L438.512 187.51V194H435.828ZM451.245 194.33C449.661 194.33 448.304 193.985 447.175 193.296C446.046 192.599 445.177 191.631 444.568 190.392C443.967 189.153 443.666 187.715 443.666 186.08C443.666 184.445 443.967 183.007 444.568 181.768C445.177 180.529 446.046 179.564 447.175 178.875C448.304 178.178 449.661 177.83 451.245 177.83C452.829 177.83 454.186 178.178 455.315 178.875C456.452 179.564 457.321 180.529 457.922 181.768C458.531 183.007 458.835 184.445 458.835 186.08C458.835 187.715 458.531 189.153 457.922 190.392C457.321 191.631 456.452 192.599 455.315 193.296C454.186 193.985 452.829 194.33 451.245 194.33ZM451.245 191.833C452.308 191.84 453.192 191.606 453.896 191.129C454.607 190.652 455.139 189.981 455.491 189.116C455.85 188.251 456.03 187.239 456.03 186.08C456.03 184.921 455.85 183.917 455.491 183.066C455.139 182.208 454.607 181.541 453.896 181.064C453.192 180.587 452.308 180.342 451.245 180.327C450.182 180.32 449.298 180.554 448.594 181.031C447.89 181.508 447.358 182.179 446.999 183.044C446.647 183.909 446.471 184.921 446.471 186.08C446.471 187.239 446.647 188.247 446.999 189.105C447.351 189.956 447.879 190.619 448.583 191.096C449.294 191.573 450.182 191.818 451.245 191.833ZM467.404 194.33C466.143 194.33 465.032 194.073 464.071 193.56C463.118 193.047 462.37 192.324 461.827 191.393C461.292 190.462 461.024 189.369 461.024 188.115V178.182L463.708 178.16V188.049C463.708 188.643 463.807 189.175 464.005 189.644C464.211 190.113 464.486 190.513 464.83 190.843C465.175 191.166 465.571 191.411 466.018 191.58C466.466 191.749 466.928 191.833 467.404 191.833C467.896 191.833 468.361 191.749 468.801 191.58C469.249 191.404 469.645 191.155 469.989 190.832C470.334 190.502 470.605 190.102 470.803 189.633C471.001 189.164 471.1 188.636 471.1 188.049V178.16H473.784V188.115C473.784 189.369 473.513 190.462 472.97 191.393C472.435 192.324 471.687 193.047 470.726 193.56C469.773 194.073 468.666 194.33 467.404 194.33ZM480.163 194L485.157 178.16H489.04L494.034 194H491.306L486.774 179.788H487.368L482.891 194H480.163ZM482.946 190.568V188.093H491.262V190.568H482.946ZM502.127 194.33C501.1 194.33 500.136 194.15 499.234 193.791C498.339 193.424 497.551 192.889 496.869 192.185C496.194 191.481 495.666 190.619 495.285 189.6C494.903 188.573 494.713 187.4 494.713 186.08C494.713 184.349 495.035 182.872 495.681 181.647C496.326 180.415 497.21 179.473 498.332 178.82C499.454 178.16 500.719 177.83 502.127 177.83C504.077 177.83 505.621 178.285 506.758 179.194C507.902 180.096 508.675 181.365 509.079 183L506.373 183.429C506.072 182.49 505.581 181.742 504.899 181.185C504.217 180.62 503.348 180.338 502.292 180.338C501.228 180.323 500.345 180.554 499.641 181.031C498.937 181.508 498.405 182.179 498.046 183.044C497.694 183.909 497.518 184.921 497.518 186.08C497.518 187.239 497.694 188.247 498.046 189.105C498.398 189.956 498.926 190.619 499.63 191.096C500.341 191.573 501.228 191.818 502.292 191.833C503.091 191.84 503.791 191.697 504.393 191.404C504.994 191.103 505.485 190.652 505.867 190.051C506.248 189.442 506.505 188.683 506.637 187.774H503.843V185.695H509.453C509.467 185.812 509.478 185.985 509.486 186.212C509.493 186.439 509.497 186.575 509.497 186.619C509.497 188.115 509.2 189.446 508.606 190.612C508.019 191.771 507.176 192.68 506.076 193.34C504.976 194 503.659 194.33 502.127 194.33ZM511.706 194V178.16H518.251C518.405 178.16 518.603 178.167 518.845 178.182C519.087 178.189 519.311 178.211 519.516 178.248C520.433 178.387 521.188 178.692 521.782 179.161C522.383 179.63 522.827 180.224 523.113 180.943C523.406 181.654 523.553 182.446 523.553 183.319C523.553 184.61 523.227 185.721 522.574 186.652C521.921 187.576 520.92 188.148 519.571 188.368L518.438 188.467H514.357V194H511.706ZM520.803 194L517.679 187.554L520.374 186.96L523.806 194H520.803ZM514.357 185.992H518.141C518.288 185.992 518.453 185.985 518.636 185.97C518.819 185.955 518.988 185.926 519.142 185.882C519.582 185.772 519.927 185.578 520.176 185.299C520.433 185.02 520.612 184.705 520.715 184.353C520.825 184.001 520.88 183.656 520.88 183.319C520.88 182.982 520.825 182.637 520.715 182.285C520.612 181.926 520.433 181.607 520.176 181.328C519.927 181.049 519.582 180.855 519.142 180.745C518.988 180.701 518.819 180.675 518.636 180.668C518.453 180.653 518.288 180.646 518.141 180.646H514.357V185.992ZM526.229 194V178.16H536.459V180.646H528.88V184.551H535.139V187.037H528.88V191.514H536.459V194H526.229ZM539.099 194V178.16H549.329V180.646H541.75V184.551H548.009V187.037H541.75V191.514H549.329V194H539.099ZM63.7815 223V209.646H58.6555V207.16H71.5585V209.646H66.4325V223H63.7815ZM80.0163 223.33C78.4323 223.33 77.0757 222.985 75.9463 222.296C74.817 221.599 73.948 220.631 73.3393 219.392C72.738 218.153 72.4373 216.715 72.4373 215.08C72.4373 213.445 72.738 212.007 73.3393 210.768C73.948 209.529 74.817 208.564 75.9463 207.875C77.0757 207.178 78.4323 206.83 80.0163 206.83C81.6003 206.83 82.957 207.178 84.0863 207.875C85.223 208.564 86.092 209.529 86.6933 210.768C87.302 212.007 87.6063 213.445 87.6063 215.08C87.6063 216.715 87.302 218.153 86.6933 219.392C86.092 220.631 85.223 221.599 84.0863 222.296C82.957 222.985 81.6003 223.33 80.0163 223.33ZM80.0163 220.833C81.0797 220.84 81.9633 220.606 82.6673 220.129C83.3787 219.652 83.9103 218.981 84.2623 218.116C84.6217 217.251 84.8013 216.239 84.8013 215.08C84.8013 213.921 84.6217 212.917 84.2623 212.066C83.9103 211.208 83.3787 210.541 82.6673 210.064C81.9633 209.587 81.0797 209.342 80.0163 209.327C78.953 209.32 78.0693 209.554 77.3653 210.031C76.6613 210.508 76.1297 211.179 75.7703 212.044C75.4183 212.909 75.2423 213.921 75.2423 215.08C75.2423 216.239 75.4183 217.247 75.7703 218.105C76.1223 218.956 76.6503 219.619 77.3543 220.096C78.0657 220.573 78.953 220.818 80.0163 220.833ZM98.0062 223V209.646H92.8802V207.16H105.783V209.646H100.657V223H98.0062ZM107.542 223V207.16H110.193V213.826H117.695V207.16H120.335V223H117.695V216.312H110.193V223H107.542ZM122.319 223L127.313 207.16H131.196L136.19 223H133.462L128.93 208.788H129.524L125.047 223H122.319ZM125.102 219.568V217.093H133.418V219.568H125.102ZM140.674 223V209.646H135.548V207.16H148.451V209.646H143.325V223H140.674ZM153.081 218.699C153.081 218.193 153.129 217.705 153.224 217.236C153.327 216.759 153.492 216.319 153.719 215.916C153.917 215.527 154.137 215.219 154.379 214.992C154.621 214.757 154.892 214.526 155.193 214.299C155.494 214.064 155.827 213.753 156.194 213.364C156.495 213.034 156.693 212.708 156.788 212.385C156.883 212.055 156.931 211.703 156.931 211.329C156.931 211.087 156.905 210.86 156.854 210.647C156.803 210.434 156.711 210.251 156.579 210.097C156.374 209.826 156.11 209.635 155.787 209.525C155.464 209.408 155.12 209.349 154.753 209.349C154.452 209.349 154.163 209.389 153.884 209.47C153.613 209.543 153.382 209.661 153.191 209.822C152.971 209.998 152.81 210.214 152.707 210.471C152.604 210.728 152.557 211.01 152.564 211.318H149.77C149.843 210.585 150.041 209.906 150.364 209.283C150.694 208.652 151.127 208.15 151.662 207.776C152.08 207.468 152.549 207.237 153.07 207.083C153.598 206.929 154.126 206.852 154.654 206.852C155.461 206.852 156.22 206.977 156.931 207.226C157.65 207.475 158.247 207.886 158.724 208.458C159.054 208.832 159.303 209.265 159.472 209.756C159.648 210.247 159.736 210.746 159.736 211.252C159.736 212.007 159.571 212.697 159.241 213.32C158.918 213.943 158.508 214.519 158.009 215.047C157.774 215.296 157.551 215.516 157.338 215.707C157.125 215.898 156.927 216.085 156.744 216.268C156.568 216.444 156.421 216.631 156.304 216.829C156.099 217.174 155.978 217.467 155.941 217.709C155.904 217.944 155.886 218.274 155.886 218.699H153.081ZM153.103 223V220.085H155.886V223H153.103ZM166.774 223V207.16H171.823C171.955 207.16 172.216 207.164 172.604 207.171C173 207.178 173.382 207.204 173.748 207.248C175.002 207.409 176.062 207.857 176.927 208.59C177.8 209.316 178.46 210.244 178.907 211.373C179.355 212.502 179.578 213.738 179.578 215.08C179.578 216.422 179.355 217.658 178.907 218.787C178.46 219.916 177.8 220.848 176.927 221.581C176.062 222.307 175.002 222.751 173.748 222.912C173.389 222.956 173.011 222.982 172.615 222.989C172.219 222.996 171.955 223 171.823 223H166.774ZM169.469 220.503H171.823C172.043 220.503 172.322 220.496 172.659 220.481C173.004 220.466 173.308 220.433 173.572 220.382C174.32 220.243 174.929 219.909 175.398 219.381C175.868 218.853 176.212 218.211 176.432 217.456C176.66 216.701 176.773 215.909 176.773 215.08C176.773 214.222 176.66 213.415 176.432 212.66C176.205 211.905 175.853 211.27 175.376 210.757C174.907 210.244 174.306 209.917 173.572 209.778C173.308 209.719 173.004 209.686 172.659 209.679C172.322 209.664 172.043 209.657 171.823 209.657H169.469V220.503ZM188.878 223.33C187.294 223.33 185.937 222.985 184.808 222.296C183.678 221.599 182.809 220.631 182.201 219.392C181.599 218.153 181.299 216.715 181.299 215.08C181.299 213.445 181.599 212.007 182.201 210.768C182.809 209.529 183.678 208.564 184.808 207.875C185.937 207.178 187.294 206.83 188.878 206.83C190.462 206.83 191.818 207.178 192.948 207.875C194.084 208.564 194.953 209.529 195.555 210.768C196.163 212.007 196.468 213.445 196.468 215.08C196.468 216.715 196.163 218.153 195.555 219.392C194.953 220.631 194.084 221.599 192.948 222.296C191.818 222.985 190.462 223.33 188.878 223.33ZM188.878 220.833C189.941 220.84 190.825 220.606 191.529 220.129C192.24 219.652 192.772 218.981 193.124 218.116C193.483 217.251 193.663 216.239 193.663 215.08C193.663 213.921 193.483 212.917 193.124 212.066C192.772 211.208 192.24 210.541 191.529 210.064C190.825 209.587 189.941 209.342 188.878 209.327C187.814 209.32 186.931 209.554 186.227 210.031C185.523 210.508 184.991 211.179 184.632 212.044C184.28 212.909 184.104 213.921 184.104 215.08C184.104 216.239 184.28 217.247 184.632 218.105C184.984 218.956 185.512 219.619 186.216 220.096C186.927 220.573 187.814 220.818 188.878 220.833ZM206.911 223V216.51L201.521 207.16H204.612L208.253 213.474L211.883 207.16H214.974L209.595 216.51V223H206.911ZM222.329 223.33C220.745 223.33 219.388 222.985 218.259 222.296C217.13 221.599 216.261 220.631 215.652 219.392C215.051 218.153 214.75 216.715 214.75 215.08C214.75 213.445 215.051 212.007 215.652 210.768C216.261 209.529 217.13 208.564 218.259 207.875C219.388 207.178 220.745 206.83 222.329 206.83C223.913 206.83 225.27 207.178 226.399 207.875C227.536 208.564 228.405 209.529 229.006 210.768C229.615 212.007 229.919 213.445 229.919 215.08C229.919 216.715 229.615 218.153 229.006 219.392C228.405 220.631 227.536 221.599 226.399 222.296C225.27 222.985 223.913 223.33 222.329 223.33ZM222.329 220.833C223.392 220.84 224.276 220.606 224.98 220.129C225.691 219.652 226.223 218.981 226.575 218.116C226.934 217.251 227.114 216.239 227.114 215.08C227.114 213.921 226.934 212.917 226.575 212.066C226.223 211.208 225.691 210.541 224.98 210.064C224.276 209.587 223.392 209.342 222.329 209.327C221.266 209.32 220.382 209.554 219.678 210.031C218.974 210.508 218.442 211.179 218.083 212.044C217.731 212.909 217.555 213.921 217.555 215.08C217.555 216.239 217.731 217.247 218.083 218.105C218.435 218.956 218.963 219.619 219.667 220.096C220.378 220.573 221.266 220.818 222.329 220.833ZM238.488 223.33C237.227 223.33 236.116 223.073 235.155 222.56C234.202 222.047 233.454 221.324 232.911 220.393C232.376 219.462 232.108 218.369 232.108 217.115V207.182L234.792 207.16V217.049C234.792 217.643 234.891 218.175 235.089 218.644C235.295 219.113 235.57 219.513 235.914 219.843C236.259 220.166 236.655 220.411 237.102 220.58C237.55 220.749 238.012 220.833 238.488 220.833C238.98 220.833 239.445 220.749 239.885 220.58C240.333 220.404 240.729 220.155 241.073 219.832C241.418 219.502 241.689 219.102 241.887 218.633C242.085 218.164 242.184 217.636 242.184 217.049V207.16H244.868V217.115C244.868 218.369 244.597 219.462 244.054 220.393C243.519 221.324 242.771 222.047 241.81 222.56C240.857 223.073 239.75 223.33 238.488 223.33ZM252.347 223V207.16H258.628C259.698 207.16 260.575 207.376 261.257 207.809C261.946 208.234 262.456 208.781 262.786 209.448C263.123 210.115 263.292 210.805 263.292 211.516C263.292 212.389 263.083 213.129 262.665 213.738C262.254 214.347 261.693 214.757 260.982 214.97V214.42C261.979 214.647 262.734 215.12 263.248 215.839C263.768 216.558 264.029 217.375 264.029 218.292C264.029 219.231 263.849 220.052 263.49 220.756C263.13 221.46 262.595 222.01 261.884 222.406C261.18 222.802 260.307 223 259.266 223H252.347ZM255.031 220.503H258.936C259.398 220.503 259.812 220.411 260.179 220.228C260.545 220.037 260.831 219.773 261.037 219.436C261.249 219.091 261.356 218.684 261.356 218.215C261.356 217.79 261.264 217.408 261.081 217.071C260.897 216.734 260.63 216.466 260.278 216.268C259.926 216.063 259.504 215.96 259.013 215.96H255.031V220.503ZM255.031 213.485H258.595C258.976 213.485 259.317 213.412 259.618 213.265C259.918 213.118 260.157 212.902 260.333 212.616C260.509 212.33 260.597 211.978 260.597 211.56C260.597 211.01 260.421 210.552 260.069 210.185C259.717 209.818 259.225 209.635 258.595 209.635H255.031V213.485ZM266.226 223V207.16H276.456V209.646H268.877V213.551H275.136V216.037H268.877V220.514H276.456V223H266.226ZM279.315 223V207.16H281.966V220.514H288.962V223H279.315ZM291.045 223V207.16H293.696V223H291.045ZM296.991 223V207.16H307.221V209.646H299.642V213.551H305.901V216.037H299.642V220.514H307.221V223H296.991ZM313.424 223L308.43 207.16H311.158L315.338 220.426L319.573 207.16H322.301L317.307 223H313.424ZM323.954 223V207.16H334.184V209.646H326.605V213.551H332.864V216.037H326.605V220.514H334.184V223H323.954ZM345.034 223V209.646H339.908V207.16H352.811V209.646H347.685V223H345.034ZM354.569 223V207.16H357.22V213.826H364.722V207.16H367.362V223H364.722V216.312H357.22V223H354.569ZM369.346 223L374.34 207.16H378.223L383.217 223H380.489L375.957 208.788H376.551L372.074 223H369.346ZM372.129 219.568V217.093H380.445V219.568H372.129ZM387.701 223V209.646H382.575V207.16H395.478V209.646H390.352V223H387.701ZM400.976 223V207.16H407.521C407.675 207.16 407.873 207.167 408.115 207.182C408.357 207.189 408.58 207.211 408.786 207.248C409.702 207.387 410.458 207.692 411.052 208.161C411.653 208.63 412.097 209.224 412.383 209.943C412.676 210.654 412.823 211.446 412.823 212.319C412.823 213.61 412.496 214.721 411.844 215.652C411.191 216.576 410.19 217.148 408.841 217.368L407.708 217.467H403.627V223H400.976ZM410.073 223L406.949 216.554L409.644 215.96L413.076 223H410.073ZM403.627 214.992H407.411C407.557 214.992 407.722 214.985 407.906 214.97C408.089 214.955 408.258 214.926 408.412 214.882C408.852 214.772 409.196 214.578 409.446 214.299C409.702 214.02 409.882 213.705 409.985 213.353C410.095 213.001 410.15 212.656 410.15 212.319C410.15 211.982 410.095 211.637 409.985 211.285C409.882 210.926 409.702 210.607 409.446 210.328C409.196 210.049 408.852 209.855 408.412 209.745C408.258 209.701 408.089 209.675 407.906 209.668C407.722 209.653 407.557 209.646 407.411 209.646H403.627V214.992ZM422.198 223.33C420.614 223.33 419.257 222.985 418.128 222.296C416.999 221.599 416.13 220.631 415.521 219.392C414.92 218.153 414.619 216.715 414.619 215.08C414.619 213.445 414.92 212.007 415.521 210.768C416.13 209.529 416.999 208.564 418.128 207.875C419.257 207.178 420.614 206.83 422.198 206.83C423.782 206.83 425.139 207.178 426.268 207.875C427.405 208.564 428.274 209.529 428.875 210.768C429.484 212.007 429.788 213.445 429.788 215.08C429.788 216.715 429.484 218.153 428.875 219.392C428.274 220.631 427.405 221.599 426.268 222.296C425.139 222.985 423.782 223.33 422.198 223.33ZM422.198 220.833C423.261 220.84 424.145 220.606 424.849 220.129C425.56 219.652 426.092 218.981 426.444 218.116C426.803 217.251 426.983 216.239 426.983 215.08C426.983 213.921 426.803 212.917 426.444 212.066C426.092 211.208 425.56 210.541 424.849 210.064C424.145 209.587 423.261 209.342 422.198 209.327C421.135 209.32 420.251 209.554 419.547 210.031C418.843 210.508 418.311 211.179 417.952 212.044C417.6 212.909 417.424 213.921 417.424 215.08C417.424 216.239 417.6 217.247 417.952 218.105C418.304 218.956 418.832 219.619 419.536 220.096C420.247 220.573 421.135 220.818 422.198 220.833ZM431.978 223V207.16H438.259C439.329 207.16 440.206 207.376 440.888 207.809C441.577 208.234 442.087 208.781 442.417 209.448C442.754 210.115 442.923 210.805 442.923 211.516C442.923 212.389 442.714 213.129 442.296 213.738C441.885 214.347 441.324 214.757 440.613 214.97V214.42C441.61 214.647 442.365 215.12 442.879 215.839C443.399 216.558 443.66 217.375 443.66 218.292C443.66 219.231 443.48 220.052 443.12 220.756C442.761 221.46 442.226 222.01 441.515 222.406C440.811 222.802 439.938 223 438.897 223H431.978ZM434.662 220.503H438.567C439.029 220.503 439.443 220.411 439.81 220.228C440.176 220.037 440.462 219.773 440.668 219.436C440.88 219.091 440.987 218.684 440.987 218.215C440.987 217.79 440.895 217.408 440.712 217.071C440.528 216.734 440.261 216.466 439.909 216.268C439.557 216.063 439.135 215.96 438.644 215.96H434.662V220.503ZM434.662 213.485H438.226C438.607 213.485 438.948 213.412 439.249 213.265C439.549 213.118 439.788 212.902 439.964 212.616C440.14 212.33 440.228 211.978 440.228 211.56C440.228 211.01 440.052 210.552 439.7 210.185C439.348 209.818 438.856 209.635 438.226 209.635H434.662V213.485ZM452.555 223.33C450.971 223.33 449.615 222.985 448.485 222.296C447.356 221.599 446.487 220.631 445.878 219.392C445.277 218.153 444.976 216.715 444.976 215.08C444.976 213.445 445.277 212.007 445.878 210.768C446.487 209.529 447.356 208.564 448.485 207.875C449.615 207.178 450.971 206.83 452.555 206.83C454.139 206.83 455.496 207.178 456.625 207.875C457.762 208.564 458.631 209.529 459.232 210.768C459.841 212.007 460.145 213.445 460.145 215.08C460.145 216.715 459.841 218.153 459.232 219.392C458.631 220.631 457.762 221.599 456.625 222.296C455.496 222.985 454.139 223.33 452.555 223.33ZM452.555 220.833C453.619 220.84 454.502 220.606 455.206 220.129C455.918 219.652 456.449 218.981 456.801 218.116C457.161 217.251 457.34 216.239 457.34 215.08C457.34 213.921 457.161 212.917 456.801 212.066C456.449 211.208 455.918 210.541 455.206 210.064C454.502 209.587 453.619 209.342 452.555 209.327C451.492 209.32 450.608 209.554 449.904 210.031C449.2 210.508 448.669 211.179 448.309 212.044C447.957 212.909 447.781 213.921 447.781 215.08C447.781 216.239 447.957 217.247 448.309 218.105C448.661 218.956 449.189 219.619 449.893 220.096C450.605 220.573 451.492 220.818 452.555 220.833ZM465.711 223V209.646H460.585V207.16H473.488V209.646H468.362V223H465.711ZM481.11 223.33C479.951 223.33 478.906 223.128 477.975 222.725C477.051 222.322 476.288 221.746 475.687 220.998C475.093 220.243 474.715 219.348 474.554 218.314L477.304 217.896C477.539 218.835 478.019 219.561 478.745 220.074C479.478 220.587 480.322 220.844 481.275 220.844C481.84 220.844 482.371 220.756 482.87 220.58C483.369 220.404 483.772 220.147 484.08 219.81C484.395 219.473 484.553 219.058 484.553 218.567C484.553 218.347 484.516 218.145 484.443 217.962C484.37 217.771 484.26 217.603 484.113 217.456C483.974 217.309 483.79 217.177 483.563 217.06C483.343 216.935 483.086 216.829 482.793 216.741L478.701 215.531C478.349 215.428 477.968 215.293 477.557 215.124C477.154 214.948 476.769 214.71 476.402 214.409C476.043 214.101 475.746 213.712 475.511 213.243C475.284 212.766 475.17 212.18 475.17 211.483C475.17 210.464 475.427 209.609 475.94 208.92C476.461 208.223 477.157 207.703 478.03 207.358C478.91 207.013 479.885 206.845 480.956 206.852C482.041 206.859 483.009 207.046 483.86 207.413C484.711 207.772 485.422 208.297 485.994 208.986C486.566 209.675 486.969 210.508 487.204 211.483L484.355 211.978C484.238 211.421 484.01 210.948 483.673 210.559C483.343 210.163 482.936 209.862 482.452 209.657C481.975 209.452 481.466 209.342 480.923 209.327C480.395 209.32 479.904 209.4 479.449 209.569C479.002 209.73 478.639 209.965 478.36 210.273C478.089 210.581 477.953 210.94 477.953 211.351C477.953 211.74 478.07 212.059 478.305 212.308C478.54 212.55 478.829 212.744 479.174 212.891C479.526 213.03 479.882 213.148 480.241 213.243L483.079 214.035C483.468 214.138 483.904 214.277 484.388 214.453C484.872 214.629 485.338 214.875 485.785 215.19C486.232 215.505 486.599 215.92 486.885 216.433C487.178 216.946 487.325 217.599 487.325 218.391C487.325 219.212 487.153 219.935 486.808 220.558C486.471 221.174 486.012 221.687 485.433 222.098C484.854 222.509 484.19 222.817 483.442 223.022C482.701 223.227 481.924 223.33 481.11 223.33ZM497.454 223L492.823 207.16H495.606L498.763 218.6L501.909 207.182L504.692 207.16L507.849 218.6L510.995 207.16H513.778L509.158 223H506.54L503.295 211.736L500.072 223H497.454ZM515.793 223V207.16H518.444V223H515.793ZM521.959 223V207.16H524.61V220.514H531.606V223H521.959ZM533.69 223V207.16H536.341V220.514H543.337V223H533.69ZM63.8213 252V236.16H68.8703C69.0023 236.16 69.2626 236.164 69.6513 236.171C70.0473 236.178 70.4286 236.204 70.7953 236.248C72.0493 236.409 73.1089 236.857 73.9743 237.59C74.8469 238.316 75.5069 239.244 75.9543 240.373C76.4016 241.502 76.6253 242.738 76.6253 244.08C76.6253 245.422 76.4016 246.658 75.9543 247.787C75.5069 248.916 74.8469 249.848 73.9743 250.581C73.1089 251.307 72.0493 251.751 70.7953 251.912C70.4359 251.956 70.0583 251.982 69.6623 251.989C69.2663 251.996 69.0023 252 68.8703 252H63.8213ZM66.5163 249.503H68.8703C69.0903 249.503 69.3689 249.496 69.7063 249.481C70.0509 249.466 70.3553 249.433 70.6193 249.382C71.3673 249.243 71.9759 248.909 72.4453 248.381C72.9146 247.853 73.2593 247.211 73.4793 246.456C73.7066 245.701 73.8203 244.909 73.8203 244.08C73.8203 243.222 73.7066 242.415 73.4793 241.66C73.2519 240.905 72.8999 240.27 72.4233 239.757C71.9539 239.244 71.3526 238.917 70.6193 238.778C70.3553 238.719 70.0509 238.686 69.7063 238.679C69.3689 238.664 69.0903 238.657 68.8703 238.657H66.5163V249.503ZM85.9245 252.33C84.3405 252.33 82.9839 251.985 81.8545 251.296C80.7252 250.599 79.8562 249.631 79.2475 248.392C78.6462 247.153 78.3455 245.715 78.3455 244.08C78.3455 242.445 78.6462 241.007 79.2475 239.768C79.8562 238.529 80.7252 237.564 81.8545 236.875C82.9839 236.178 84.3405 235.83 85.9245 235.83C87.5085 235.83 88.8652 236.178 89.9945 236.875C91.1312 237.564 92.0002 238.529 92.6015 239.768C93.2102 241.007 93.5145 242.445 93.5145 244.08C93.5145 245.715 93.2102 247.153 92.6015 248.392C92.0002 249.631 91.1312 250.599 89.9945 251.296C88.8652 251.985 87.5085 252.33 85.9245 252.33ZM85.9245 249.833C86.9879 249.84 87.8715 249.606 88.5755 249.129C89.2869 248.652 89.8185 247.981 90.1705 247.116C90.5299 246.251 90.7095 245.239 90.7095 244.08C90.7095 242.921 90.5299 241.917 90.1705 241.066C89.8185 240.208 89.2869 239.541 88.5755 239.064C87.8715 238.587 86.9879 238.342 85.9245 238.327C84.8612 238.32 83.9775 238.554 83.2735 239.031C82.5695 239.508 82.0379 240.179 81.6785 241.044C81.3265 241.909 81.1505 242.921 81.1505 244.08C81.1505 245.239 81.3265 246.247 81.6785 247.105C82.0305 247.956 82.5585 248.619 83.2625 249.096C83.9739 249.573 84.8612 249.818 85.9245 249.833ZM103.914 252V238.646H98.7884V236.16H111.691V238.646H106.565V252H103.914ZM113.45 252V236.16H116.101V242.826H123.603V236.16H126.243V252H123.603V245.312H116.101V252H113.45ZM129.327 252V236.16H139.557V238.646H131.978V242.551H138.237V245.037H131.978V249.514H139.557V252H129.327ZM146.601 252V236.16H148.988L154.466 247.38L159.944 236.16H162.331V252H159.856V241.847L154.994 252H153.938L149.087 241.847V252H146.601ZM164.321 252L169.315 236.16H173.198L178.192 252H175.464L170.932 237.788H171.526L167.049 252H164.321ZM167.104 248.568V246.093H175.42V248.568H167.104ZM183.349 252.33C182.139 252.33 181.13 252.015 180.324 251.384C179.524 250.753 178.963 249.903 178.641 248.832L181.259 248.205C181.339 248.652 181.574 249.037 181.963 249.36C182.351 249.683 182.78 249.844 183.25 249.844C183.558 249.844 183.884 249.763 184.229 249.602C184.573 249.433 184.83 249.166 184.999 248.799C185.101 248.564 185.16 248.286 185.175 247.963C185.197 247.633 185.208 247.252 185.208 246.819V236.16H187.892V246.819C187.892 247.31 187.888 247.743 187.881 248.117C187.881 248.484 187.844 248.832 187.771 249.162C187.705 249.485 187.569 249.818 187.364 250.163C186.931 250.911 186.366 251.461 185.67 251.813C184.973 252.158 184.199 252.33 183.349 252.33ZM197.901 252.33C196.317 252.33 194.96 251.985 193.831 251.296C192.702 250.599 191.833 249.631 191.224 248.392C190.623 247.153 190.322 245.715 190.322 244.08C190.322 242.445 190.623 241.007 191.224 239.768C191.833 238.529 192.702 237.564 193.831 236.875C194.96 236.178 196.317 235.83 197.901 235.83C199.485 235.83 200.842 236.178 201.971 236.875C203.108 237.564 203.977 238.529 204.578 239.768C205.187 241.007 205.491 242.445 205.491 244.08C205.491 245.715 205.187 247.153 204.578 248.392C203.977 249.631 203.108 250.599 201.971 251.296C200.842 251.985 199.485 252.33 197.901 252.33ZM197.901 249.833C198.964 249.84 199.848 249.606 200.552 249.129C201.263 248.652 201.795 247.981 202.147 247.116C202.506 246.251 202.686 245.239 202.686 244.08C202.686 242.921 202.506 241.917 202.147 241.066C201.795 240.208 201.263 239.541 200.552 239.064C199.848 238.587 198.964 238.342 197.901 238.327C196.838 238.32 195.954 238.554 195.25 239.031C194.546 239.508 194.014 240.179 193.655 241.044C193.303 241.909 193.127 242.921 193.127 244.08C193.127 245.239 193.303 246.247 193.655 247.105C194.007 247.956 194.535 248.619 195.239 249.096C195.95 249.573 196.838 249.818 197.901 249.833ZM207.681 252V236.16H214.226C214.38 236.16 214.578 236.167 214.82 236.182C215.062 236.189 215.285 236.211 215.491 236.248C216.407 236.387 217.163 236.692 217.757 237.161C218.358 237.63 218.802 238.224 219.088 238.943C219.381 239.654 219.528 240.446 219.528 241.319C219.528 242.61 219.201 243.721 218.549 244.652C217.896 245.576 216.895 246.148 215.546 246.368L214.413 246.467H210.332V252H207.681ZM216.778 252L213.654 245.554L216.349 244.96L219.781 252H216.778ZM210.332 243.992H214.116C214.262 243.992 214.427 243.985 214.611 243.97C214.794 243.955 214.963 243.926 215.117 243.882C215.557 243.772 215.901 243.578 216.151 243.299C216.407 243.02 216.587 242.705 216.69 242.353C216.8 242.001 216.855 241.656 216.855 241.319C216.855 240.982 216.8 240.637 216.69 240.285C216.587 239.926 216.407 239.607 216.151 239.328C215.901 239.049 215.557 238.855 215.117 238.745C214.963 238.701 214.794 238.675 214.611 238.668C214.427 238.653 214.262 238.646 214.116 238.646H210.332V243.992ZM222.424 252V236.16H225.075V252H222.424ZM232.176 252V238.646H227.05V236.16H239.953V238.646H234.827V252H232.176ZM246.228 252V245.51L240.838 236.16H243.929L247.57 242.474L251.2 236.16H254.291L248.912 245.51V252H246.228ZM266.05 252.33C264.466 252.33 263.109 251.985 261.98 251.296C260.85 250.599 259.981 249.631 259.373 248.392C258.771 247.153 258.471 245.715 258.471 244.08C258.471 242.445 258.771 241.007 259.373 239.768C259.981 238.529 260.85 237.564 261.98 236.875C263.109 236.178 264.466 235.83 266.05 235.83C267.634 235.83 268.99 236.178 270.12 236.875C271.256 237.564 272.125 238.529 272.727 239.768C273.335 241.007 273.64 242.445 273.64 244.08C273.64 245.715 273.335 247.153 272.727 248.392C272.125 249.631 271.256 250.599 270.12 251.296C268.99 251.985 267.634 252.33 266.05 252.33ZM266.05 249.833C267.113 249.84 267.997 249.606 268.701 249.129C269.412 248.652 269.944 247.981 270.296 247.116C270.655 246.251 270.835 245.239 270.835 244.08C270.835 242.921 270.655 241.917 270.296 241.066C269.944 240.208 269.412 239.541 268.701 239.064C267.997 238.587 267.113 238.342 266.05 238.327C264.986 238.32 264.103 238.554 263.399 239.031C262.695 239.508 262.163 240.179 261.804 241.044C261.452 241.909 261.276 242.921 261.276 244.08C261.276 245.239 261.452 246.247 261.804 247.105C262.156 247.956 262.684 248.619 263.388 249.096C264.099 249.573 264.986 249.818 266.05 249.833ZM275.829 252V236.16H285.366V238.811H278.48V242.76H284.046V245.4H278.48V252H275.829ZM297.612 252.33C296.453 252.33 295.408 252.128 294.477 251.725C293.553 251.322 292.79 250.746 292.189 249.998C291.595 249.243 291.217 248.348 291.056 247.314L293.806 246.896C294.041 247.835 294.521 248.561 295.247 249.074C295.98 249.587 296.824 249.844 297.777 249.844C298.342 249.844 298.873 249.756 299.372 249.58C299.871 249.404 300.274 249.147 300.582 248.81C300.897 248.473 301.055 248.058 301.055 247.567C301.055 247.347 301.018 247.145 300.945 246.962C300.872 246.771 300.762 246.603 300.615 246.456C300.476 246.309 300.292 246.177 300.065 246.06C299.845 245.935 299.588 245.829 299.295 245.741L295.203 244.531C294.851 244.428 294.47 244.293 294.059 244.124C293.656 243.948 293.271 243.71 292.904 243.409C292.545 243.101 292.248 242.712 292.013 242.243C291.786 241.766 291.672 241.18 291.672 240.483C291.672 239.464 291.929 238.609 292.442 237.92C292.963 237.223 293.659 236.703 294.532 236.358C295.412 236.013 296.387 235.845 297.458 235.852C298.543 235.859 299.511 236.046 300.362 236.413C301.213 236.772 301.924 237.297 302.496 237.986C303.068 238.675 303.471 239.508 303.706 240.483L300.857 240.978C300.74 240.421 300.512 239.948 300.175 239.559C299.845 239.163 299.438 238.862 298.954 238.657C298.477 238.452 297.968 238.342 297.425 238.327C296.897 238.32 296.406 238.4 295.951 238.569C295.504 238.73 295.141 238.965 294.862 239.273C294.591 239.581 294.455 239.94 294.455 240.351C294.455 240.74 294.572 241.059 294.807 241.308C295.042 241.55 295.331 241.744 295.676 241.891C296.028 242.03 296.384 242.148 296.743 242.243L299.581 243.035C299.97 243.138 300.406 243.277 300.89 243.453C301.374 243.629 301.84 243.875 302.287 244.19C302.734 244.505 303.101 244.92 303.387 245.433C303.68 245.946 303.827 246.599 303.827 247.391C303.827 248.212 303.655 248.935 303.31 249.558C302.973 250.174 302.514 250.687 301.935 251.098C301.356 251.509 300.692 251.817 299.944 252.022C299.203 252.227 298.426 252.33 297.612 252.33ZM312.588 252.33C311.327 252.33 310.216 252.073 309.255 251.56C308.302 251.047 307.554 250.324 307.011 249.393C306.476 248.462 306.208 247.369 306.208 246.115V236.182L308.892 236.16V246.049C308.892 246.643 308.991 247.175 309.189 247.644C309.394 248.113 309.669 248.513 310.014 248.843C310.359 249.166 310.755 249.411 311.202 249.58C311.649 249.749 312.111 249.833 312.588 249.833C313.079 249.833 313.545 249.749 313.985 249.58C314.432 249.404 314.828 249.155 315.173 248.832C315.518 248.502 315.789 248.102 315.987 247.633C316.185 247.164 316.284 246.636 316.284 246.049V236.16H318.968V246.115C318.968 247.369 318.697 248.462 318.154 249.393C317.619 250.324 316.871 251.047 315.91 251.56C314.957 252.073 313.849 252.33 312.588 252.33ZM322.042 252V236.16H328.587C328.741 236.16 328.939 236.167 329.181 236.182C329.423 236.189 329.647 236.211 329.852 236.248C330.769 236.387 331.524 236.692 332.118 237.161C332.719 237.63 333.163 238.224 333.449 238.943C333.742 239.654 333.889 240.446 333.889 241.319C333.889 242.61 333.563 243.721 332.91 244.652C332.257 245.576 331.256 246.148 329.907 246.368L328.774 246.467H324.693V252H322.042ZM331.139 252L328.015 245.554L330.71 244.96L334.142 252H331.139ZM324.693 243.992H328.477C328.624 243.992 328.789 243.985 328.972 243.97C329.155 243.955 329.324 243.926 329.478 243.882C329.918 243.772 330.263 243.578 330.512 243.299C330.769 243.02 330.948 242.705 331.051 242.353C331.161 242.001 331.216 241.656 331.216 241.319C331.216 240.982 331.161 240.637 331.051 240.285C330.948 239.926 330.769 239.607 330.512 239.328C330.263 239.049 329.918 238.855 329.478 238.745C329.324 238.701 329.155 238.675 328.972 238.668C328.789 238.653 328.624 238.646 328.477 238.646H324.693V243.992ZM343.099 252.33C342.073 252.33 341.108 252.15 340.206 251.791C339.312 251.424 338.523 250.889 337.841 250.185C337.167 249.481 336.639 248.619 336.257 247.6C335.876 246.573 335.685 245.4 335.685 244.08C335.685 242.349 336.008 240.872 336.653 239.647C337.299 238.415 338.182 237.473 339.304 236.82C340.426 236.16 341.691 235.83 343.099 235.83C345.05 235.83 346.594 236.285 347.73 237.194C348.874 238.096 349.648 239.365 350.051 241L347.345 241.429C347.045 240.49 346.553 239.742 345.871 239.185C345.189 238.62 344.32 238.338 343.264 238.338C342.201 238.323 341.317 238.554 340.613 239.031C339.909 239.508 339.378 240.179 339.018 241.044C338.666 241.909 338.49 242.921 338.49 244.08C338.49 245.239 338.666 246.247 339.018 247.105C339.37 247.956 339.898 248.619 340.602 249.096C341.314 249.573 342.201 249.818 343.264 249.833C344.064 249.84 344.764 249.697 345.365 249.404C345.967 249.103 346.458 248.652 346.839 248.051C347.221 247.442 347.477 246.683 347.609 245.774H344.815V243.695H350.425C350.44 243.812 350.451 243.985 350.458 244.212C350.466 244.439 350.469 244.575 350.469 244.619C350.469 246.115 350.172 247.446 349.578 248.612C348.992 249.771 348.148 250.68 347.048 251.34C345.948 252 344.632 252.33 343.099 252.33ZM352.679 252V236.16H362.909V238.646H355.33V242.551H361.589V245.037H355.33V249.514H362.909V252H352.679ZM365.548 252V236.16H372.093C372.247 236.16 372.445 236.167 372.687 236.182C372.929 236.189 373.152 236.211 373.358 236.248C374.274 236.387 375.03 236.692 375.624 237.161C376.225 237.63 376.669 238.224 376.955 238.943C377.248 239.654 377.395 240.446 377.395 241.319C377.395 242.61 377.068 243.721 376.416 244.652C375.763 245.576 374.762 246.148 373.413 246.368L372.28 246.467H368.199V252H365.548ZM374.645 252L371.521 245.554L374.216 244.96L377.648 252H374.645ZM368.199 243.992H371.983C372.129 243.992 372.294 243.985 372.478 243.97C372.661 243.955 372.83 243.926 372.984 243.882C373.424 243.772 373.768 243.578 374.018 243.299C374.274 243.02 374.454 242.705 374.557 242.353C374.667 242.001 374.722 241.656 374.722 241.319C374.722 240.982 374.667 240.637 374.557 240.285C374.454 239.926 374.274 239.607 374.018 239.328C373.768 239.049 373.424 238.855 372.984 238.745C372.83 238.701 372.661 238.675 372.478 238.668C372.294 238.653 372.129 238.646 371.983 238.646H368.199V243.992ZM380.291 252V236.16H382.942V252H380.291ZM386.237 252V236.16H396.467V238.646H388.888V242.551H395.147V245.037H388.888V249.514H396.467V252H386.237ZM404.819 252.33C403.66 252.33 402.615 252.128 401.684 251.725C400.76 251.322 399.997 250.746 399.396 249.998C398.802 249.243 398.424 248.348 398.263 247.314L401.013 246.896C401.248 247.835 401.728 248.561 402.454 249.074C403.187 249.587 404.031 249.844 404.984 249.844C405.549 249.844 406.08 249.756 406.579 249.58C407.078 249.404 407.481 249.147 407.789 248.81C408.104 248.473 408.262 248.058 408.262 247.567C408.262 247.347 408.225 247.145 408.152 246.962C408.079 246.771 407.969 246.603 407.822 246.456C407.683 246.309 407.499 246.177 407.272 246.06C407.052 245.935 406.795 245.829 406.502 245.741L402.41 244.531C402.058 244.428 401.677 244.293 401.266 244.124C400.863 243.948 400.478 243.71 400.111 243.409C399.752 243.101 399.455 242.712 399.22 242.243C398.993 241.766 398.879 241.18 398.879 240.483C398.879 239.464 399.136 238.609 399.649 237.92C400.17 237.223 400.866 236.703 401.739 236.358C402.619 236.013 403.594 235.845 404.665 235.852C405.75 235.859 406.718 236.046 407.569 236.413C408.42 236.772 409.131 237.297 409.703 237.986C410.275 238.675 410.678 239.508 410.913 240.483L408.064 240.978C407.947 240.421 407.719 239.948 407.382 239.559C407.052 239.163 406.645 238.862 406.161 238.657C405.684 238.452 405.175 238.342 404.632 238.327C404.104 238.32 403.613 238.4 403.158 238.569C402.711 238.73 402.348 238.965 402.069 239.273C401.798 239.581 401.662 239.94 401.662 240.351C401.662 240.74 401.779 241.059 402.014 241.308C402.249 241.55 402.538 241.744 402.883 241.891C403.235 242.03 403.591 242.148 403.95 242.243L406.788 243.035C407.177 243.138 407.613 243.277 408.097 243.453C408.581 243.629 409.047 243.875 409.494 244.19C409.941 244.505 410.308 244.92 410.594 245.433C410.887 245.946 411.034 246.599 411.034 247.391C411.034 248.212 410.862 248.935 410.517 249.558C410.18 250.174 409.721 250.687 409.142 251.098C408.563 251.509 407.899 251.817 407.151 252.022C406.41 252.227 405.633 252.33 404.819 252.33ZM418.039 252V236.16H420.69V252H418.039ZM423.985 252V236.16H426.669L434.017 247.325V236.16H436.701V252H434.017L426.669 240.835V252H423.985ZM444.181 252V236.16H453.718V238.811H446.832V242.76H452.398V245.4H446.832V252H444.181ZM462.076 252.33C460.815 252.33 459.704 252.073 458.743 251.56C457.79 251.047 457.042 250.324 456.499 249.393C455.964 248.462 455.696 247.369 455.696 246.115V236.182L458.38 236.16V246.049C458.38 246.643 458.479 247.175 458.677 247.644C458.883 248.113 459.158 248.513 459.502 248.843C459.847 249.166 460.243 249.411 460.69 249.58C461.138 249.749 461.6 249.833 462.076 249.833C462.568 249.833 463.033 249.749 463.473 249.58C463.921 249.404 464.317 249.155 464.661 248.832C465.006 248.502 465.277 248.102 465.475 247.633C465.673 247.164 465.772 246.636 465.772 246.049V236.16H468.456V246.115C468.456 247.369 468.185 248.462 467.642 249.393C467.107 250.324 466.359 251.047 465.398 251.56C464.445 252.073 463.338 252.33 462.076 252.33ZM475.336 252V238.646H470.21V236.16H483.113V238.646H477.987V252H475.336ZM491.252 252.33C489.991 252.33 488.88 252.073 487.919 251.56C486.966 251.047 486.218 250.324 485.675 249.393C485.14 248.462 484.872 247.369 484.872 246.115V236.182L487.556 236.16V246.049C487.556 246.643 487.655 247.175 487.853 247.644C488.058 248.113 488.333 248.513 488.678 248.843C489.023 249.166 489.419 249.411 489.866 249.58C490.313 249.749 490.775 249.833 491.252 249.833C491.743 249.833 492.209 249.749 492.649 249.58C493.096 249.404 493.492 249.155 493.837 248.832C494.182 248.502 494.453 248.102 494.651 247.633C494.849 247.164 494.948 246.636 494.948 246.049V236.16H497.632V246.115C497.632 247.369 497.361 248.462 496.818 249.393C496.283 250.324 495.535 251.047 494.574 251.56C493.621 252.073 492.513 252.33 491.252 252.33ZM500.706 252V236.16H507.251C507.405 236.16 507.603 236.167 507.845 236.182C508.087 236.189 508.311 236.211 508.516 236.248C509.433 236.387 510.188 236.692 510.782 237.161C511.383 237.63 511.827 238.224 512.113 238.943C512.406 239.654 512.553 240.446 512.553 241.319C512.553 242.61 512.227 243.721 511.574 244.652C510.921 245.576 509.92 246.148 508.571 246.368L507.438 246.467H503.357V252H500.706ZM509.803 252L506.679 245.554L509.374 244.96L512.806 252H509.803ZM503.357 243.992H507.141C507.288 243.992 507.453 243.985 507.636 243.97C507.819 243.955 507.988 243.926 508.142 243.882C508.582 243.772 508.927 243.578 509.176 243.299C509.433 243.02 509.612 242.705 509.715 242.353C509.825 242.001 509.88 241.656 509.88 241.319C509.88 240.982 509.825 240.637 509.715 240.285C509.612 239.926 509.433 239.607 509.176 239.328C508.927 239.049 508.582 238.855 508.142 238.745C507.988 238.701 507.819 238.675 507.636 238.668C507.453 238.653 507.288 238.646 507.141 238.646H503.357V243.992ZM515.229 252V236.16H525.459V238.646H517.88V242.551H524.139V245.037H517.88V249.514H525.459V252H515.229ZM530.97 247.699C530.97 247.193 531.017 246.705 531.113 246.236C531.215 245.759 531.38 245.319 531.608 244.916C531.806 244.527 532.026 244.219 532.268 243.992C532.51 243.757 532.781 243.526 533.082 243.299C533.382 243.064 533.716 242.753 534.083 242.364C534.383 242.034 534.581 241.708 534.677 241.385C534.772 241.055 534.82 240.703 534.82 240.329C534.82 240.087 534.794 239.86 534.743 239.647C534.691 239.434 534.6 239.251 534.468 239.097C534.262 238.826 533.998 238.635 533.676 238.525C533.353 238.408 533.008 238.349 532.642 238.349C532.341 238.349 532.051 238.389 531.773 238.47C531.501 238.543 531.27 238.661 531.08 238.822C530.86 238.998 530.698 239.214 530.596 239.471C530.493 239.728 530.445 240.01 530.453 240.318H527.659C527.732 239.585 527.93 238.906 528.253 238.283C528.583 237.652 529.015 237.15 529.551 236.776C529.969 236.468 530.438 236.237 530.959 236.083C531.487 235.929 532.015 235.852 532.543 235.852C533.349 235.852 534.108 235.977 534.82 236.226C535.538 236.475 536.136 236.886 536.613 237.458C536.943 237.832 537.192 238.265 537.361 238.756C537.537 239.247 537.625 239.746 537.625 240.252C537.625 241.007 537.46 241.697 537.13 242.32C536.807 242.943 536.396 243.519 535.898 244.047C535.663 244.296 535.439 244.516 535.227 244.707C535.014 244.898 534.816 245.085 534.633 245.268C534.457 245.444 534.31 245.631 534.193 245.829C533.987 246.174 533.866 246.467 533.83 246.709C533.793 246.944 533.775 247.274 533.775 247.699H530.97ZM530.992 252V249.085H533.775V252H530.992Z" fill="white"></path> <rect x="20" y="20" width="173" height="40" rx="20" fill="white" fill-opacity="0.3"></rect> <path d="M33.3544 46V34.48H34.7784V39.56H40.8424V34.48H42.2664V46H40.8424V40.912H34.7784V46H33.3544ZM44.5106 46V34.48H51.7906V35.832H45.9346V39.44H50.8306V40.792H45.9346V44.648H51.7906V46H44.5106ZM52.9138 46L56.7698 34.48H58.7538L62.6098 46H61.1298L57.5218 35.312H57.9698L54.3938 46H52.9138ZM54.7698 43.304V41.968H60.7538V43.304H54.7698ZM64.2019 46V34.48H65.6259V44.648H70.9699V46H64.2019ZM73.6974 46V35.832H69.7694V34.48H79.0494V35.832H75.1214V46H73.6974ZM80.3231 46V34.48H81.7471V39.56H87.8111V34.48H89.2351V46H87.8111V40.912H81.7471V46H80.3231ZM98.4265 46.24C97.7865 46.24 97.1892 46.1467 96.6345 45.96C96.0798 45.7733 95.6158 45.48 95.2425 45.08C94.9545 44.76 94.7385 44.408 94.5945 44.024C94.4558 43.6347 94.3785 43.224 94.3625 42.792C94.3625 42.3707 94.4238 41.96 94.5465 41.56C94.6692 41.1547 94.8638 40.7947 95.1305 40.48C95.2692 40.3093 95.4238 40.1653 95.5945 40.048C95.7705 39.9253 95.9465 39.8213 96.1225 39.736C95.7545 39.3413 95.4718 38.9707 95.2745 38.624C95.0825 38.2773 94.9865 37.8587 94.9865 37.368C94.9865 36.744 95.1465 36.1813 95.4665 35.68C95.7918 35.1733 96.2345 34.8027 96.7945 34.568C97.0665 34.4507 97.3438 34.3707 97.6265 34.328C97.9145 34.28 98.1945 34.256 98.4665 34.256C98.9252 34.256 99.3705 34.32 99.8025 34.448C100.235 34.576 100.603 34.784 100.907 35.072C101.109 35.2427 101.283 35.44 101.427 35.664C101.571 35.8827 101.683 36.112 101.763 36.352L100.371 36.712C100.269 36.44 100.101 36.2107 99.8665 36.024C99.6798 35.864 99.4612 35.7547 99.2105 35.696C98.9652 35.6373 98.7172 35.608 98.4665 35.608C98.0505 35.608 97.6745 35.688 97.3385 35.848C97.0398 35.992 96.8158 36.1947 96.6665 36.456C96.5172 36.712 96.4425 37.016 96.4425 37.368C96.4425 37.672 96.4932 37.9227 96.5945 38.12C96.7012 38.312 96.8478 38.5173 97.0345 38.736C97.1465 38.8533 97.2718 38.9787 97.4105 39.112C97.5545 39.24 97.7012 39.3733 97.8505 39.512L101.243 42.664C101.259 42.5307 101.269 42.3947 101.275 42.256C101.28 42.1173 101.283 41.984 101.283 41.856L101.275 40.264H102.579V42.136C102.579 42.5147 102.565 42.8373 102.539 43.104C102.517 43.3707 102.48 43.592 102.427 43.768L103.891 45.12L102.963 46.112L101.747 44.96C101.539 45.1947 101.291 45.4 101.003 45.576C100.715 45.752 100.427 45.8853 100.139 45.976C99.8665 46.0773 99.5865 46.1467 99.2985 46.184C99.0105 46.2213 98.7198 46.24 98.4265 46.24ZM98.4585 44.872C98.7198 44.872 98.9572 44.856 99.1705 44.824C99.3838 44.792 99.5865 44.7307 99.7785 44.64C100.035 44.5173 100.232 44.4 100.371 44.288C100.509 44.176 100.624 44.072 100.715 43.976L97.2025 40.76C97.0105 40.824 96.8292 40.9093 96.6585 41.016C96.4932 41.1227 96.3492 41.248 96.2265 41.392C96.0878 41.5627 95.9838 41.7627 95.9145 41.992C95.8505 42.2213 95.8185 42.464 95.8185 42.72C95.8238 42.992 95.8692 43.2427 95.9545 43.472C96.0398 43.7013 96.1598 43.9067 96.3145 44.088C96.5492 44.36 96.8665 44.56 97.2665 44.688C97.6665 44.8107 98.0638 44.872 98.4585 44.872ZM108.401 46V34.48H109.697L114.049 43.656L118.377 34.48H119.689V45.992H118.337V37.608L114.425 46H113.665L109.753 37.608V46H108.401ZM121.933 46V34.48H129.213V35.832H123.357V39.44H128.253V40.792H123.357V44.648H129.213V46H121.933ZM131.136 46V34.48H134.688C134.805 34.48 135.01 34.4827 135.304 34.488C135.597 34.4933 135.877 34.5147 136.144 34.552C137.034 34.6693 137.778 34.9947 138.376 35.528C138.978 36.056 139.432 36.728 139.736 37.544C140.04 38.36 140.192 39.2587 140.192 40.24C140.192 41.2213 140.04 42.12 139.736 42.936C139.432 43.752 138.978 44.4267 138.376 44.96C137.778 45.488 137.034 45.8107 136.144 45.928C135.877 45.96 135.594 45.9813 135.296 45.992C135.002 45.9973 134.8 46 134.688 46H131.136ZM132.6 44.64H134.688C134.89 44.64 135.117 44.6347 135.368 44.624C135.618 44.608 135.837 44.584 136.024 44.552C136.653 44.4347 137.162 44.1707 137.552 43.76C137.941 43.3493 138.226 42.8373 138.408 42.224C138.589 41.6107 138.68 40.9493 138.68 40.24C138.68 39.5147 138.586 38.8453 138.4 38.232C138.218 37.6187 137.933 37.1093 137.544 36.704C137.154 36.2987 136.648 36.04 136.024 35.928C135.837 35.8907 135.616 35.8667 135.36 35.856C135.104 35.8453 134.88 35.84 134.688 35.84H132.6V44.64ZM142.186 46V34.48H143.61V46H142.186ZM150.747 46.24C149.6 46.24 148.627 45.9867 147.827 45.48C147.027 44.9733 146.416 44.2693 145.995 43.368C145.579 42.4667 145.371 41.424 145.371 40.24C145.371 39.056 145.579 38.0133 145.995 37.112C146.416 36.2107 147.027 35.5067 147.827 35C148.627 34.4933 149.6 34.24 150.747 34.24C152.08 34.24 153.176 34.5787 154.035 35.256C154.899 35.9333 155.493 36.8453 155.819 37.992L154.371 38.376C154.136 37.5173 153.717 36.84 153.115 36.344C152.512 35.848 151.723 35.6 150.747 35.6C149.888 35.6 149.173 35.7947 148.603 36.184C148.032 36.5733 147.603 37.1173 147.315 37.816C147.027 38.5093 146.88 39.3173 146.875 40.24C146.869 41.1573 147.011 41.9653 147.299 42.664C147.587 43.3573 148.019 43.9013 148.595 44.296C149.171 44.6853 149.888 44.88 150.747 44.88C151.723 44.88 152.512 44.632 153.115 44.136C153.717 43.6347 154.136 42.9573 154.371 42.104L155.819 42.488C155.493 43.6293 154.899 44.5413 154.035 45.224C153.176 45.9013 152.08 46.24 150.747 46.24ZM157.733 46V34.48H159.157V46H157.733ZM161.558 46V34.48H162.998L169.006 43.48V34.48H170.446V46H169.006L162.998 36.992V46H161.558ZM172.683 46V34.48H179.963V35.832H174.107V39.44H179.003V40.792H174.107V44.648H179.963V46H172.683Z" fill="white"></path> <defs> <linearGradient id="paint0_linear_160_241" x1="300" y1="0" x2="300" y2="400" gradientUnits="userSpaceOnUse"> <stop stop-color="#0BA360"></stop> <stop offset="1" stop-color="#3CBA92"></stop> </linearGradient> </defs> </svg> 