<?xml version="1.0" encoding="UTF-8"?> <svg xmlns="http://www.w3.org/2000/svg" width="600" height="400" viewBox="0 0 600 400" fill="none"> <rect width="600" height="400" rx="20" fill="url(#paint0_linear_131_155)"></rect> <path d="M65.2063 180V164.16H67.8573V180H65.2063ZM71.1523 180V164.16H80.6893V166.811H73.8033V170.76H79.3693V173.4H73.8033V180H71.1523ZM90.9222 180V173.51L85.5322 164.16H88.6232L92.2642 170.474L95.8942 164.16H98.9852L93.6062 173.51V180H90.9222ZM106.34 180.33C104.756 180.33 103.399 179.985 102.27 179.296C101.14 178.599 100.271 177.631 99.6626 176.392C99.0613 175.153 98.7606 173.715 98.7606 172.08C98.7606 170.445 99.0613 169.007 99.6626 167.768C100.271 166.529 101.14 165.564 102.27 164.875C103.399 164.178 104.756 163.83 106.34 163.83C107.924 163.83 109.28 164.178 110.41 164.875C111.546 165.564 112.415 166.529 113.017 167.768C113.625 169.007 113.93 170.445 113.93 172.08C113.93 173.715 113.625 175.153 113.017 176.392C112.415 177.631 111.546 178.599 110.41 179.296C109.28 179.985 107.924 180.33 106.34 180.33ZM106.34 177.833C107.403 177.84 108.287 177.606 108.991 177.129C109.702 176.652 110.234 175.981 110.586 175.116C110.945 174.251 111.125 173.239 111.125 172.08C111.125 170.921 110.945 169.917 110.586 169.066C110.234 168.208 109.702 167.541 108.991 167.064C108.287 166.587 107.403 166.342 106.34 166.327C105.276 166.32 104.393 166.554 103.689 167.031C102.985 167.508 102.453 168.179 102.094 169.044C101.742 169.909 101.566 170.921 101.566 172.08C101.566 173.239 101.742 174.247 102.094 175.105C102.446 175.956 102.974 176.619 103.678 177.096C104.389 177.573 105.276 177.818 106.34 177.833ZM122.499 180.33C121.238 180.33 120.127 180.073 119.166 179.56C118.213 179.047 117.465 178.324 116.922 177.393C116.387 176.462 116.119 175.369 116.119 174.115V164.182L118.803 164.16V174.049C118.803 174.643 118.902 175.175 119.1 175.644C119.305 176.113 119.58 176.513 119.925 176.843C120.27 177.166 120.666 177.411 121.113 177.58C121.56 177.749 122.022 177.833 122.499 177.833C122.99 177.833 123.456 177.749 123.896 177.58C124.343 177.404 124.739 177.155 125.084 176.832C125.429 176.502 125.7 176.102 125.898 175.633C126.096 175.164 126.195 174.636 126.195 174.049V164.16H128.879V174.115C128.879 175.369 128.608 176.462 128.065 177.393C127.53 178.324 126.782 179.047 125.821 179.56C124.868 180.073 123.76 180.33 122.499 180.33ZM136.357 180V164.16H139.008V170.826H146.51V164.16H149.15V180H146.51V173.312H139.008V180H136.357ZM151.134 180L156.128 164.16H160.011L165.005 180H162.277L157.745 165.788H158.339L153.862 180H151.134ZM153.917 176.568V174.093H162.233V176.568H153.917ZM169.011 180L164.017 164.16H166.745L170.925 177.426L175.16 164.16H177.888L172.894 180H169.011ZM179.541 180V164.16H189.771V166.646H182.192V170.551H188.451V173.037H182.192V177.514H189.771V180H179.541ZM195.714 180L200.708 164.16H204.591L209.585 180H206.857L202.325 165.788H202.919L198.442 180H195.714ZM198.497 176.568V174.093H206.813V176.568H198.497ZM211.574 180V164.16H214.258L221.606 175.325V164.16H224.29V180H221.606L214.258 168.835V180H211.574ZM231.215 180V173.51L225.825 164.16H228.916L232.557 170.474L236.187 164.16H239.278L233.899 173.51V180H231.215ZM250.201 180.33C249.042 180.33 247.997 180.128 247.066 179.725C246.142 179.322 245.379 178.746 244.778 177.998C244.184 177.243 243.806 176.348 243.645 175.314L246.395 174.896C246.63 175.835 247.11 176.561 247.836 177.074C248.569 177.587 249.413 177.844 250.366 177.844C250.931 177.844 251.462 177.756 251.961 177.58C252.46 177.404 252.863 177.147 253.171 176.81C253.486 176.473 253.644 176.058 253.644 175.567C253.644 175.347 253.607 175.145 253.534 174.962C253.461 174.771 253.351 174.603 253.204 174.456C253.065 174.309 252.881 174.177 252.654 174.06C252.434 173.935 252.177 173.829 251.884 173.741L247.792 172.531C247.44 172.428 247.059 172.293 246.648 172.124C246.245 171.948 245.86 171.71 245.493 171.409C245.134 171.101 244.837 170.712 244.602 170.243C244.375 169.766 244.261 169.18 244.261 168.483C244.261 167.464 244.518 166.609 245.031 165.92C245.552 165.223 246.248 164.703 247.121 164.358C248.001 164.013 248.976 163.845 250.047 163.852C251.132 163.859 252.1 164.046 252.951 164.413C253.802 164.772 254.513 165.297 255.085 165.986C255.657 166.675 256.06 167.508 256.295 168.483L253.446 168.978C253.329 168.421 253.101 167.948 252.764 167.559C252.434 167.163 252.027 166.862 251.543 166.657C251.066 166.452 250.557 166.342 250.014 166.327C249.486 166.32 248.995 166.4 248.54 166.569C248.093 166.73 247.73 166.965 247.451 167.273C247.18 167.581 247.044 167.94 247.044 168.351C247.044 168.74 247.161 169.059 247.396 169.308C247.631 169.55 247.92 169.744 248.265 169.891C248.617 170.03 248.973 170.148 249.332 170.243L252.17 171.035C252.559 171.138 252.995 171.277 253.479 171.453C253.963 171.629 254.429 171.875 254.876 172.19C255.323 172.505 255.69 172.92 255.976 173.433C256.269 173.946 256.416 174.599 256.416 175.391C256.416 176.212 256.244 176.935 255.899 177.558C255.562 178.174 255.103 178.687 254.524 179.098C253.945 179.509 253.281 179.817 252.533 180.022C251.792 180.227 251.015 180.33 250.201 180.33ZM261.981 180V173.51L256.591 164.16H259.682L263.323 170.474L266.953 164.16H270.044L264.665 173.51V180H261.981ZM271.58 180V164.16H273.967L279.445 175.38L284.923 164.16H287.31V180H284.835V169.847L279.973 180H278.917L274.066 169.847V180H271.58ZM290.4 180V164.16H296.945C297.099 164.16 297.297 164.167 297.539 164.182C297.781 164.189 298.005 164.211 298.21 164.248C299.127 164.387 299.882 164.692 300.476 165.161C301.078 165.63 301.521 166.224 301.807 166.943C302.101 167.654 302.247 168.446 302.247 169.319C302.247 170.184 302.101 170.976 301.807 171.695C301.514 172.406 301.067 172.997 300.465 173.466C299.871 173.935 299.12 174.24 298.21 174.379C298.005 174.408 297.778 174.43 297.528 174.445C297.286 174.46 297.092 174.467 296.945 174.467H293.051V180H290.4ZM293.051 171.992H296.835C296.982 171.992 297.147 171.985 297.33 171.97C297.514 171.955 297.682 171.926 297.836 171.882C298.276 171.772 298.621 171.578 298.87 171.299C299.127 171.02 299.307 170.705 299.409 170.353C299.519 170.001 299.574 169.656 299.574 169.319C299.574 168.982 299.519 168.637 299.409 168.285C299.307 167.926 299.127 167.607 298.87 167.328C298.621 167.049 298.276 166.855 297.836 166.745C297.682 166.701 297.514 166.675 297.33 166.668C297.147 166.653 296.982 166.646 296.835 166.646H293.051V171.992ZM308.257 180V166.646H303.131V164.16H316.034V166.646H310.908V180H308.257ZM324.492 180.33C322.908 180.33 321.551 179.985 320.422 179.296C319.293 178.599 318.424 177.631 317.815 176.392C317.214 175.153 316.913 173.715 316.913 172.08C316.913 170.445 317.214 169.007 317.815 167.768C318.424 166.529 319.293 165.564 320.422 164.875C321.551 164.178 322.908 163.83 324.492 163.83C326.076 163.83 327.433 164.178 328.562 164.875C329.699 165.564 330.568 166.529 331.169 167.768C331.778 169.007 332.082 170.445 332.082 172.08C332.082 173.715 331.778 175.153 331.169 176.392C330.568 177.631 329.699 178.599 328.562 179.296C327.433 179.985 326.076 180.33 324.492 180.33ZM324.492 177.833C325.555 177.84 326.439 177.606 327.143 177.129C327.854 176.652 328.386 175.981 328.738 175.116C329.097 174.251 329.277 173.239 329.277 172.08C329.277 170.921 329.097 169.917 328.738 169.066C328.386 168.208 327.854 167.541 327.143 167.064C326.439 166.587 325.555 166.342 324.492 166.327C323.429 166.32 322.545 166.554 321.841 167.031C321.137 167.508 320.605 168.179 320.246 169.044C319.894 169.909 319.718 170.921 319.718 172.08C319.718 173.239 319.894 174.247 320.246 175.105C320.598 175.956 321.126 176.619 321.83 177.096C322.541 177.573 323.429 177.818 324.492 177.833ZM334.271 180V164.16H336.658L342.136 175.38L347.614 164.16H350.001V180H347.526V169.847L342.664 180H341.608L336.757 169.847V180H334.271ZM358.955 180.33C357.796 180.33 356.751 180.128 355.82 179.725C354.896 179.322 354.133 178.746 353.532 177.998C352.938 177.243 352.56 176.348 352.399 175.314L355.149 174.896C355.383 175.835 355.864 176.561 356.59 177.074C357.323 177.587 358.166 177.844 359.12 177.844C359.684 177.844 360.216 177.756 360.715 177.58C361.213 177.404 361.617 177.147 361.925 176.81C362.24 176.473 362.398 176.058 362.398 175.567C362.398 175.347 362.361 175.145 362.288 174.962C362.214 174.771 362.104 174.603 361.958 174.456C361.818 174.309 361.635 174.177 361.408 174.06C361.188 173.935 360.931 173.829 360.638 173.741L356.546 172.531C356.194 172.428 355.812 172.293 355.402 172.124C354.998 171.948 354.613 171.71 354.247 171.409C353.887 171.101 353.59 170.712 353.356 170.243C353.128 169.766 353.015 169.18 353.015 168.483C353.015 167.464 353.271 166.609 353.785 165.92C354.305 165.223 355.002 164.703 355.875 164.358C356.755 164.013 357.73 163.845 358.801 163.852C359.886 163.859 360.854 164.046 361.705 164.413C362.555 164.772 363.267 165.297 363.839 165.986C364.411 166.675 364.814 167.508 365.049 168.483L362.2 168.978C362.082 168.421 361.855 167.948 361.518 167.559C361.188 167.163 360.781 166.862 360.297 166.657C359.82 166.452 359.31 166.342 358.768 166.327C358.24 166.32 357.748 166.4 357.294 166.569C356.846 166.73 356.483 166.965 356.205 167.273C355.933 167.581 355.798 167.94 355.798 168.351C355.798 168.74 355.915 169.059 356.15 169.308C356.384 169.55 356.674 169.744 357.019 169.891C357.371 170.03 357.726 170.148 358.086 170.243L360.924 171.035C361.312 171.138 361.749 171.277 362.233 171.453C362.717 171.629 363.182 171.875 363.63 172.19C364.077 172.505 364.444 172.92 364.73 173.433C365.023 173.946 365.17 174.599 365.17 175.391C365.17 176.212 364.997 176.935 364.653 177.558C364.315 178.174 363.857 178.687 363.278 179.098C362.698 179.509 362.035 179.817 361.287 180.022C360.546 180.227 359.769 180.33 358.955 180.33ZM366.772 182.805L366.926 181.661C367.263 181.69 367.531 181.632 367.729 181.485C367.927 181.346 368.059 181.144 368.125 180.88C368.198 180.623 368.217 180.33 368.18 180H366.772V177.173H369.489V180.11C369.489 181.071 369.262 181.797 368.807 182.288C368.352 182.779 367.674 182.952 366.772 182.805ZM381.422 180L376.791 164.16H379.574L382.731 175.6L385.877 164.182L388.66 164.16L391.817 175.6L394.963 164.16H397.746L393.126 180H390.508L387.263 168.736L384.04 180H381.422ZM399.761 180V164.16H402.412V180H399.761ZM405.927 180V164.16H408.578V177.514H415.574V180H405.927ZM417.657 180V164.16H420.308V177.514H427.304V180H417.657ZM436.327 180V173.51L430.937 164.16H434.028L437.669 170.474L441.299 164.16H444.39L439.011 173.51V180H436.327ZM451.744 180.33C450.16 180.33 448.803 179.985 447.674 179.296C446.545 178.599 445.676 177.631 445.067 176.392C444.466 175.153 444.165 173.715 444.165 172.08C444.165 170.445 444.466 169.007 445.067 167.768C445.676 166.529 446.545 165.564 447.674 164.875C448.803 164.178 450.16 163.83 451.744 163.83C453.328 163.83 454.685 164.178 455.814 164.875C456.951 165.564 457.82 166.529 458.421 167.768C459.03 169.007 459.334 170.445 459.334 172.08C459.334 173.715 459.03 175.153 458.421 176.392C457.82 177.631 456.951 178.599 455.814 179.296C454.685 179.985 453.328 180.33 451.744 180.33ZM451.744 177.833C452.807 177.84 453.691 177.606 454.395 177.129C455.106 176.652 455.638 175.981 455.99 175.116C456.349 174.251 456.529 173.239 456.529 172.08C456.529 170.921 456.349 169.917 455.99 169.066C455.638 168.208 455.106 167.541 454.395 167.064C453.691 166.587 452.807 166.342 451.744 166.327C450.681 166.32 449.797 166.554 449.093 167.031C448.389 167.508 447.857 168.179 447.498 169.044C447.146 169.909 446.97 170.921 446.97 172.08C446.97 173.239 447.146 174.247 447.498 175.105C447.85 175.956 448.378 176.619 449.082 177.096C449.793 177.573 450.681 177.818 451.744 177.833ZM467.903 180.33C466.642 180.33 465.531 180.073 464.57 179.56C463.617 179.047 462.869 178.324 462.326 177.393C461.791 176.462 461.523 175.369 461.523 174.115V164.182L464.207 164.16V174.049C464.207 174.643 464.306 175.175 464.504 175.644C464.71 176.113 464.985 176.513 465.329 176.843C465.674 177.166 466.07 177.411 466.517 177.58C466.965 177.749 467.427 177.833 467.903 177.833C468.395 177.833 468.86 177.749 469.3 177.58C469.748 177.404 470.144 177.155 470.488 176.832C470.833 176.502 471.104 176.102 471.302 175.633C471.5 175.164 471.599 174.636 471.599 174.049V164.16H474.283V174.115C474.283 175.369 474.012 176.462 473.469 177.393C472.934 178.324 472.186 179.047 471.225 179.56C470.272 180.073 469.165 180.33 467.903 180.33ZM487.625 180.33C486.466 180.33 485.421 180.128 484.49 179.725C483.566 179.322 482.803 178.746 482.202 177.998C481.608 177.243 481.23 176.348 481.069 175.314L483.819 174.896C484.053 175.835 484.534 176.561 485.26 177.074C485.993 177.587 486.836 177.844 487.79 177.844C488.354 177.844 488.886 177.756 489.385 177.58C489.883 177.404 490.287 177.147 490.595 176.81C490.91 176.473 491.068 176.058 491.068 175.567C491.068 175.347 491.031 175.145 490.958 174.962C490.884 174.771 490.774 174.603 490.628 174.456C490.488 174.309 490.305 174.177 490.078 174.06C489.858 173.935 489.601 173.829 489.308 173.741L485.216 172.531C484.864 172.428 484.482 172.293 484.072 172.124C483.668 171.948 483.283 171.71 482.917 171.409C482.557 171.101 482.26 170.712 482.026 170.243C481.798 169.766 481.685 169.18 481.685 168.483C481.685 167.464 481.941 166.609 482.455 165.92C482.975 165.223 483.672 164.703 484.545 164.358C485.425 164.013 486.4 163.845 487.471 163.852C488.556 163.859 489.524 164.046 490.375 164.413C491.225 164.772 491.937 165.297 492.509 165.986C493.081 166.675 493.484 167.508 493.719 168.483L490.87 168.978C490.752 168.421 490.525 167.948 490.188 167.559C489.858 167.163 489.451 166.862 488.967 166.657C488.49 166.452 487.98 166.342 487.438 166.327C486.91 166.32 486.418 166.4 485.964 166.569C485.516 166.73 485.153 166.965 484.875 167.273C484.603 167.581 484.468 167.94 484.468 168.351C484.468 168.74 484.585 169.059 484.82 169.308C485.054 169.55 485.344 169.744 485.689 169.891C486.041 170.03 486.396 170.148 486.756 170.243L489.594 171.035C489.982 171.138 490.419 171.277 490.903 171.453C491.387 171.629 491.852 171.875 492.3 172.19C492.747 172.505 493.114 172.92 493.4 173.433C493.693 173.946 493.84 174.599 493.84 175.391C493.84 176.212 493.667 176.935 493.323 177.558C492.985 178.174 492.527 178.687 491.948 179.098C491.368 179.509 490.705 179.817 489.957 180.022C489.216 180.227 488.439 180.33 487.625 180.33ZM502.601 180.33C501.339 180.33 500.228 180.073 499.268 179.56C498.314 179.047 497.566 178.324 497.024 177.393C496.488 176.462 496.221 175.369 496.221 174.115V164.182L498.905 164.16V174.049C498.905 174.643 499.004 175.175 499.202 175.644C499.407 176.113 499.682 176.513 500.027 176.843C500.371 177.166 500.767 177.411 501.215 177.58C501.662 177.749 502.124 177.833 502.601 177.833C503.092 177.833 503.558 177.749 503.998 177.58C504.445 177.404 504.841 177.155 505.186 176.832C505.53 176.502 505.802 176.102 506 175.633C506.198 175.164 506.297 174.636 506.297 174.049V164.16H508.981V174.115C508.981 175.369 508.709 176.462 508.167 177.393C507.631 178.324 506.883 179.047 505.923 179.56C504.969 180.073 503.862 180.33 502.601 180.33ZM512.055 180V164.16H518.6C518.754 164.16 518.952 164.167 519.194 164.182C519.436 164.189 519.659 164.211 519.865 164.248C520.781 164.387 521.537 164.692 522.131 165.161C522.732 165.63 523.176 166.224 523.462 166.943C523.755 167.654 523.902 168.446 523.902 169.319C523.902 170.61 523.575 171.721 522.923 172.652C522.27 173.576 521.269 174.148 519.92 174.368L518.787 174.467H514.706V180H512.055ZM521.152 180L518.028 173.554L520.723 172.96L524.155 180H521.152ZM514.706 171.992H518.49C518.636 171.992 518.801 171.985 518.985 171.97C519.168 171.955 519.337 171.926 519.491 171.882C519.931 171.772 520.275 171.578 520.525 171.299C520.781 171.02 520.961 170.705 521.064 170.353C521.174 170.001 521.229 169.656 521.229 169.319C521.229 168.982 521.174 168.637 521.064 168.285C520.961 167.926 520.781 167.607 520.525 167.328C520.275 167.049 519.931 166.855 519.491 166.745C519.337 166.701 519.168 166.675 518.985 166.668C518.801 166.653 518.636 166.646 518.49 166.646H514.706V171.992ZM526.578 180V164.16H536.115V166.811H529.229V170.76H534.795V173.4H529.229V180H526.578ZM51.2073 209V195.646H46.0813V193.16H58.9843V195.646H53.8583V209H51.2073ZM60.7431 209V193.16H63.3941V199.826H70.8961V193.16H73.5361V209H70.8961V202.312H63.3941V209H60.7431ZM76.6201 209V193.16H86.8501V195.646H79.2711V199.551H85.5301V202.037H79.2711V206.514H86.8501V209H76.6201ZM94.1135 209V193.16H96.7645V209H94.1135ZM100.06 209V193.16H102.744L110.092 204.325V193.16H112.776V209H110.092L102.744 197.835V209H100.06ZM119.657 209V195.646H114.531V193.16H127.434V195.646H122.308V209H119.657ZM129.192 209V193.16H139.422V195.646H131.843V199.551H138.102V202.037H131.843V206.514H139.422V209H129.192ZM142.061 209V193.16H148.606C148.76 193.16 148.958 193.167 149.2 193.182C149.442 193.189 149.666 193.211 149.871 193.248C150.788 193.387 151.543 193.692 152.137 194.161C152.739 194.63 153.182 195.224 153.468 195.943C153.762 196.654 153.908 197.446 153.908 198.319C153.908 199.61 153.582 200.721 152.929 201.652C152.277 202.576 151.276 203.148 149.926 203.368L148.793 203.467H144.712V209H142.061ZM151.158 209L148.034 202.554L150.729 201.96L154.161 209H151.158ZM144.712 200.992H148.496C148.643 200.992 148.808 200.985 148.991 200.97C149.175 200.955 149.343 200.926 149.497 200.882C149.937 200.772 150.282 200.578 150.531 200.299C150.788 200.02 150.968 199.705 151.07 199.353C151.18 199.001 151.235 198.656 151.235 198.319C151.235 197.982 151.18 197.637 151.07 197.285C150.968 196.926 150.788 196.607 150.531 196.328C150.282 196.049 149.937 195.855 149.497 195.745C149.343 195.701 149.175 195.675 148.991 195.668C148.808 195.653 148.643 195.646 148.496 195.646H144.712V200.992ZM156.585 209V193.16H159.269L166.617 204.325V193.16H169.301V209H166.617L159.269 197.835V209H156.585ZM172.376 209V193.16H182.606V195.646H175.027V199.551H181.286V202.037H175.027V206.514H182.606V209H172.376ZM189.051 209V195.646H183.925V193.16H196.828V195.646H191.702V209H189.051ZM202.545 209V193.16H205.196V206.514H212.192V209H202.545ZM220.325 209.33C218.741 209.33 217.384 208.985 216.255 208.296C215.126 207.599 214.257 206.631 213.648 205.392C213.047 204.153 212.746 202.715 212.746 201.08C212.746 199.445 213.047 198.007 213.648 196.768C214.257 195.529 215.126 194.564 216.255 193.875C217.384 193.178 218.741 192.83 220.325 192.83C221.909 192.83 223.266 193.178 224.395 193.875C225.532 194.564 226.401 195.529 227.002 196.768C227.611 198.007 227.915 199.445 227.915 201.08C227.915 202.715 227.611 204.153 227.002 205.392C226.401 206.631 225.532 207.599 224.395 208.296C223.266 208.985 221.909 209.33 220.325 209.33ZM220.325 206.833C221.388 206.84 222.272 206.606 222.976 206.129C223.687 205.652 224.219 204.981 224.571 204.116C224.93 203.251 225.11 202.239 225.11 201.08C225.11 199.921 224.93 198.917 224.571 198.066C224.219 197.208 223.687 196.541 222.976 196.064C222.272 195.587 221.388 195.342 220.325 195.327C219.262 195.32 218.378 195.554 217.674 196.031C216.97 196.508 216.438 197.179 216.079 198.044C215.727 198.909 215.551 199.921 215.551 201.08C215.551 202.239 215.727 203.247 216.079 204.105C216.431 204.956 216.959 205.619 217.663 206.096C218.374 206.573 219.262 206.818 220.325 206.833ZM236.803 209.33C235.219 209.33 233.863 208.985 232.733 208.296C231.604 207.599 230.735 206.631 230.126 205.392C229.525 204.153 229.224 202.715 229.224 201.08C229.224 199.445 229.525 198.007 230.126 196.768C230.735 195.529 231.604 194.564 232.733 193.875C233.863 193.178 235.219 192.83 236.803 192.83C238.387 192.83 239.744 193.178 240.873 193.875C242.01 194.564 242.879 195.529 243.48 196.768C244.089 198.007 244.393 199.445 244.393 201.08C244.393 202.715 244.089 204.153 243.48 205.392C242.879 206.631 242.01 207.599 240.873 208.296C239.744 208.985 238.387 209.33 236.803 209.33ZM236.803 206.833C237.867 206.84 238.75 206.606 239.454 206.129C240.166 205.652 240.697 204.981 241.049 204.116C241.409 203.251 241.588 202.239 241.588 201.08C241.588 199.921 241.409 198.917 241.049 198.066C240.697 197.208 240.166 196.541 239.454 196.064C238.75 195.587 237.867 195.342 236.803 195.327C235.74 195.32 234.856 195.554 234.152 196.031C233.448 196.508 232.917 197.179 232.557 198.044C232.205 198.909 232.029 199.921 232.029 201.08C232.029 202.239 232.205 203.247 232.557 204.105C232.909 204.956 233.437 205.619 234.141 206.096C234.853 206.573 235.74 206.818 236.803 206.833ZM246.583 209V193.16H249.234V200.508L255.559 193.16H258.815L252.006 200.926L259.277 209H255.911L249.234 201.608V209H246.583ZM261.047 209V193.16H263.698V209H261.047ZM266.993 209V193.16H269.677L277.025 204.325V193.16H279.709V209H277.025L269.677 197.835V209H266.993ZM289.318 209.33C288.291 209.33 287.327 209.15 286.425 208.791C285.53 208.424 284.742 207.889 284.06 207.185C283.385 206.481 282.857 205.619 282.476 204.6C282.095 203.573 281.904 202.4 281.904 201.08C281.904 199.349 282.227 197.872 282.872 196.647C283.517 195.415 284.401 194.473 285.523 193.82C286.645 193.16 287.91 192.83 289.318 192.83C291.269 192.83 292.812 193.285 293.949 194.194C295.093 195.096 295.867 196.365 296.27 198L293.564 198.429C293.263 197.49 292.772 196.742 292.09 196.185C291.408 195.62 290.539 195.338 289.483 195.338C288.42 195.323 287.536 195.554 286.832 196.031C286.128 196.508 285.596 197.179 285.237 198.044C284.885 198.909 284.709 199.921 284.709 201.08C284.709 202.239 284.885 203.247 285.237 204.105C285.589 204.956 286.117 205.619 286.821 206.096C287.532 206.573 288.42 206.818 289.483 206.833C290.282 206.84 290.983 206.697 291.584 206.404C292.185 206.103 292.677 205.652 293.058 205.051C293.439 204.442 293.696 203.683 293.828 202.774H291.034V200.695H296.644C296.659 200.812 296.67 200.985 296.677 201.212C296.684 201.439 296.688 201.575 296.688 201.619C296.688 203.115 296.391 204.446 295.797 205.612C295.21 206.771 294.367 207.68 293.267 208.34C292.167 209 290.851 209.33 289.318 209.33ZM303.302 209V193.16H312.839V195.811H305.953V199.76H311.519V202.4H305.953V209H303.302ZM321.516 209.33C319.932 209.33 318.576 208.985 317.446 208.296C316.317 207.599 315.448 206.631 314.839 205.392C314.238 204.153 313.937 202.715 313.937 201.08C313.937 199.445 314.238 198.007 314.839 196.768C315.448 195.529 316.317 194.564 317.446 193.875C318.576 193.178 319.932 192.83 321.516 192.83C323.1 192.83 324.457 193.178 325.586 193.875C326.723 194.564 327.592 195.529 328.193 196.768C328.802 198.007 329.106 199.445 329.106 201.08C329.106 202.715 328.802 204.153 328.193 205.392C327.592 206.631 326.723 207.599 325.586 208.296C324.457 208.985 323.1 209.33 321.516 209.33ZM321.516 206.833C322.58 206.84 323.463 206.606 324.167 206.129C324.879 205.652 325.41 204.981 325.762 204.116C326.122 203.251 326.301 202.239 326.301 201.08C326.301 199.921 326.122 198.917 325.762 198.066C325.41 197.208 324.879 196.541 324.167 196.064C323.463 195.587 322.58 195.342 321.516 195.327C320.453 195.32 319.569 195.554 318.865 196.031C318.161 196.508 317.63 197.179 317.27 198.044C316.918 198.909 316.742 199.921 316.742 201.08C316.742 202.239 316.918 203.247 317.27 204.105C317.622 204.956 318.15 205.619 318.854 206.096C319.566 206.573 320.453 206.818 321.516 206.833ZM331.296 209V193.16H337.841C337.995 193.16 338.193 193.167 338.435 193.182C338.677 193.189 338.901 193.211 339.106 193.248C340.023 193.387 340.778 193.692 341.372 194.161C341.973 194.63 342.417 195.224 342.703 195.943C342.996 196.654 343.143 197.446 343.143 198.319C343.143 199.61 342.817 200.721 342.164 201.652C341.511 202.576 340.51 203.148 339.161 203.368L338.028 203.467H333.947V209H331.296ZM340.393 209L337.269 202.554L339.964 201.96L343.396 209H340.393ZM333.947 200.992H337.731C337.878 200.992 338.043 200.985 338.226 200.97C338.409 200.955 338.578 200.926 338.732 200.882C339.172 200.772 339.517 200.578 339.766 200.299C340.023 200.02 340.202 199.705 340.305 199.353C340.415 199.001 340.47 198.656 340.47 198.319C340.47 197.982 340.415 197.637 340.305 197.285C340.202 196.926 340.023 196.607 339.766 196.328C339.517 196.049 339.172 195.855 338.732 195.745C338.578 195.701 338.409 195.675 338.226 195.668C338.043 195.653 337.878 195.646 337.731 195.646H333.947V200.992ZM350.444 209V193.16H353.095V209H350.444ZM356.39 209V193.16H359.074L366.422 204.325V193.16H369.106V209H366.422L359.074 197.835V209H356.39ZM372.181 209V193.16H381.718V195.811H374.832V199.76H380.398V202.4H374.832V209H372.181ZM390.395 209.33C388.811 209.33 387.455 208.985 386.325 208.296C385.196 207.599 384.327 206.631 383.718 205.392C383.117 204.153 382.816 202.715 382.816 201.08C382.816 199.445 383.117 198.007 383.718 196.768C384.327 195.529 385.196 194.564 386.325 193.875C387.455 193.178 388.811 192.83 390.395 192.83C391.979 192.83 393.336 193.178 394.465 193.875C395.602 194.564 396.471 195.529 397.072 196.768C397.681 198.007 397.985 199.445 397.985 201.08C397.985 202.715 397.681 204.153 397.072 205.392C396.471 206.631 395.602 207.599 394.465 208.296C393.336 208.985 391.979 209.33 390.395 209.33ZM390.395 206.833C391.459 206.84 392.342 206.606 393.046 206.129C393.758 205.652 394.289 204.981 394.641 204.116C395.001 203.251 395.18 202.239 395.18 201.08C395.18 199.921 395.001 198.917 394.641 198.066C394.289 197.208 393.758 196.541 393.046 196.064C392.342 195.587 391.459 195.342 390.395 195.327C389.332 195.32 388.448 195.554 387.744 196.031C387.04 196.508 386.509 197.179 386.149 198.044C385.797 198.909 385.621 199.921 385.621 201.08C385.621 202.239 385.797 203.247 386.149 204.105C386.501 204.956 387.029 205.619 387.733 206.096C388.445 206.573 389.332 206.818 390.395 206.833ZM403.479 209L408.473 193.16H412.356L417.35 209H414.622L410.09 194.788H410.684L406.207 209H403.479ZM406.262 205.568V203.093H414.578V205.568H406.262ZM419.339 209V193.16H425.62C426.69 193.16 427.567 193.376 428.249 193.809C428.938 194.234 429.448 194.781 429.778 195.448C430.115 196.115 430.284 196.805 430.284 197.516C430.284 198.389 430.075 199.129 429.657 199.738C429.246 200.347 428.685 200.757 427.974 200.97V200.42C428.971 200.647 429.726 201.12 430.24 201.839C430.76 202.558 431.021 203.375 431.021 204.292C431.021 205.231 430.841 206.052 430.482 206.756C430.122 207.46 429.587 208.01 428.876 208.406C428.172 208.802 427.299 209 426.258 209H419.339ZM422.023 206.503H425.928C426.39 206.503 426.804 206.411 427.171 206.228C427.537 206.037 427.823 205.773 428.029 205.436C428.241 205.091 428.348 204.684 428.348 204.215C428.348 203.79 428.256 203.408 428.073 203.071C427.889 202.734 427.622 202.466 427.27 202.268C426.918 202.063 426.496 201.96 426.005 201.96H422.023V206.503ZM422.023 199.485H425.587C425.968 199.485 426.309 199.412 426.61 199.265C426.91 199.118 427.149 198.902 427.325 198.616C427.501 198.33 427.589 197.978 427.589 197.56C427.589 197.01 427.413 196.552 427.061 196.185C426.709 195.818 426.217 195.635 425.587 195.635H422.023V199.485ZM439.917 209.33C438.333 209.33 436.976 208.985 435.847 208.296C434.717 207.599 433.848 206.631 433.24 205.392C432.638 204.153 432.338 202.715 432.338 201.08C432.338 199.445 432.638 198.007 433.24 196.768C433.848 195.529 434.717 194.564 435.847 193.875C436.976 193.178 438.333 192.83 439.917 192.83C441.501 192.83 442.857 193.178 443.987 193.875C445.123 194.564 445.992 195.529 446.594 196.768C447.202 198.007 447.507 199.445 447.507 201.08C447.507 202.715 447.202 204.153 446.594 205.392C445.992 206.631 445.123 207.599 443.987 208.296C442.857 208.985 441.501 209.33 439.917 209.33ZM439.917 206.833C440.98 206.84 441.864 206.606 442.568 206.129C443.279 205.652 443.811 204.981 444.163 204.116C444.522 203.251 444.702 202.239 444.702 201.08C444.702 199.921 444.522 198.917 444.163 198.066C443.811 197.208 443.279 196.541 442.568 196.064C441.864 195.587 440.98 195.342 439.917 195.327C438.853 195.32 437.97 195.554 437.266 196.031C436.562 196.508 436.03 197.179 435.671 198.044C435.319 198.909 435.143 199.921 435.143 201.08C435.143 202.239 435.319 203.247 435.671 204.105C436.023 204.956 436.551 205.619 437.255 206.096C437.966 206.573 438.853 206.818 439.917 206.833ZM456.076 209.33C454.815 209.33 453.704 209.073 452.743 208.56C451.79 208.047 451.042 207.324 450.499 206.393C449.964 205.462 449.696 204.369 449.696 203.115V193.182L452.38 193.16V203.049C452.38 203.643 452.479 204.175 452.677 204.644C452.883 205.113 453.158 205.513 453.502 205.843C453.847 206.166 454.243 206.411 454.69 206.58C455.138 206.749 455.6 206.833 456.076 206.833C456.568 206.833 457.033 206.749 457.473 206.58C457.921 206.404 458.317 206.155 458.661 205.832C459.006 205.502 459.277 205.102 459.475 204.633C459.673 204.164 459.772 203.636 459.772 203.049V193.16H462.456V203.115C462.456 204.369 462.185 205.462 461.642 206.393C461.107 207.324 460.359 208.047 459.398 208.56C458.445 209.073 457.338 209.33 456.076 209.33ZM469.336 209V195.646H464.21V193.16H477.113V195.646H471.987V209H469.336ZM486.416 209V195.646H481.29V193.16H494.193V195.646H489.067V209H486.416ZM495.952 209V193.16H498.603V199.826H506.105V193.16H508.745V209H506.105V202.312H498.603V209H495.952ZM511.829 209V193.16H522.059V195.646H514.48V199.551H520.739V202.037H514.48V206.514H522.059V209H511.829ZM524.698 209V193.16H527.085L532.563 204.38L538.041 193.16H540.428V209H537.953V198.847L533.091 209H532.035L527.184 198.847V209H524.698ZM546.39 204.699C546.39 204.193 546.437 203.705 546.533 203.236C546.635 202.759 546.8 202.319 547.028 201.916C547.226 201.527 547.446 201.219 547.688 200.992C547.93 200.757 548.201 200.526 548.502 200.299C548.802 200.064 549.136 199.753 549.503 199.364C549.803 199.034 550.001 198.708 550.097 198.385C550.192 198.055 550.24 197.703 550.24 197.329C550.24 197.087 550.214 196.86 550.163 196.647C550.111 196.434 550.02 196.251 549.888 196.097C549.682 195.826 549.418 195.635 549.096 195.525C548.773 195.408 548.428 195.349 548.062 195.349C547.761 195.349 547.471 195.389 547.193 195.47C546.921 195.543 546.69 195.661 546.5 195.822C546.28 195.998 546.118 196.214 546.016 196.471C545.913 196.728 545.865 197.01 545.873 197.318H543.079C543.152 196.585 543.35 195.906 543.673 195.283C544.003 194.652 544.435 194.15 544.971 193.776C545.389 193.468 545.858 193.237 546.379 193.083C546.907 192.929 547.435 192.852 547.963 192.852C548.769 192.852 549.528 192.977 550.24 193.226C550.958 193.475 551.556 193.886 552.033 194.458C552.363 194.832 552.612 195.265 552.781 195.756C552.957 196.247 553.045 196.746 553.045 197.252C553.045 198.007 552.88 198.697 552.55 199.32C552.227 199.943 551.816 200.519 551.318 201.047C551.083 201.296 550.859 201.516 550.647 201.707C550.434 201.898 550.236 202.085 550.053 202.268C549.877 202.444 549.73 202.631 549.613 202.829C549.407 203.174 549.286 203.467 549.25 203.709C549.213 203.944 549.195 204.274 549.195 204.699H546.39ZM546.412 209V206.085H549.195V209H546.412ZM79.1015 238V222.16H84.1505C84.2825 222.16 84.5429 222.164 84.9315 222.171C85.3275 222.178 85.7089 222.204 86.0755 222.248C87.3295 222.409 88.3892 222.857 89.2545 223.59C90.1272 224.316 90.7872 225.244 91.2345 226.373C91.6819 227.502 91.9055 228.738 91.9055 230.08C91.9055 231.422 91.6819 232.658 91.2345 233.787C90.7872 234.916 90.1272 235.848 89.2545 236.581C88.3892 237.307 87.3295 237.751 86.0755 237.912C85.7162 237.956 85.3385 237.982 84.9425 237.989C84.5465 237.996 84.2825 238 84.1505 238H79.1015ZM81.7965 235.503H84.1505C84.3705 235.503 84.6492 235.496 84.9865 235.481C85.3312 235.466 85.6355 235.433 85.8995 235.382C86.6475 235.243 87.2562 234.909 87.7255 234.381C88.1949 233.853 88.5395 233.211 88.7595 232.456C88.9869 231.701 89.1005 230.909 89.1005 230.08C89.1005 229.222 88.9869 228.415 88.7595 227.66C88.5322 226.905 88.1802 226.27 87.7035 225.757C87.2342 225.244 86.6329 224.917 85.8995 224.778C85.6355 224.719 85.3312 224.686 84.9865 224.679C84.6492 224.664 84.3705 224.657 84.1505 224.657H81.7965V235.503ZM101.205 238.33C99.6208 238.33 98.2642 237.985 97.1348 237.296C96.0055 236.599 95.1365 235.631 94.5278 234.392C93.9265 233.153 93.6258 231.715 93.6258 230.08C93.6258 228.445 93.9265 227.007 94.5278 225.768C95.1365 224.529 96.0055 223.564 97.1348 222.875C98.2642 222.178 99.6208 221.83 101.205 221.83C102.789 221.83 104.145 222.178 105.275 222.875C106.411 223.564 107.28 224.529 107.882 225.768C108.49 227.007 108.795 228.445 108.795 230.08C108.795 231.715 108.49 233.153 107.882 234.392C107.28 235.631 106.411 236.599 105.275 237.296C104.145 237.985 102.789 238.33 101.205 238.33ZM101.205 235.833C102.268 235.84 103.152 235.606 103.856 235.129C104.567 234.652 105.099 233.981 105.451 233.116C105.81 232.251 105.99 231.239 105.99 230.08C105.99 228.921 105.81 227.917 105.451 227.066C105.099 226.208 104.567 225.541 103.856 225.064C103.152 224.587 102.268 224.342 101.205 224.327C100.141 224.32 99.2578 224.554 98.5538 225.031C97.8498 225.508 97.3182 226.179 96.9588 227.044C96.6068 227.909 96.4308 228.921 96.4308 230.08C96.4308 231.239 96.6068 232.247 96.9588 233.105C97.3108 233.956 97.8388 234.619 98.5428 235.096C99.2542 235.573 100.141 235.818 101.205 235.833ZM119.239 238V231.51L113.849 222.16H116.94L120.581 228.474L124.211 222.16H127.302L121.923 231.51V238H119.239ZM134.656 238.33C133.072 238.33 131.715 237.985 130.586 237.296C129.457 236.599 128.588 235.631 127.979 234.392C127.378 233.153 127.077 231.715 127.077 230.08C127.077 228.445 127.378 227.007 127.979 225.768C128.588 224.529 129.457 223.564 130.586 222.875C131.715 222.178 133.072 221.83 134.656 221.83C136.24 221.83 137.597 222.178 138.726 222.875C139.863 223.564 140.732 224.529 141.333 225.768C141.942 227.007 142.246 228.445 142.246 230.08C142.246 231.715 141.942 233.153 141.333 234.392C140.732 235.631 139.863 236.599 138.726 237.296C137.597 237.985 136.24 238.33 134.656 238.33ZM134.656 235.833C135.719 235.84 136.603 235.606 137.307 235.129C138.018 234.652 138.55 233.981 138.902 233.116C139.261 232.251 139.441 231.239 139.441 230.08C139.441 228.921 139.261 227.917 138.902 227.066C138.55 226.208 138.018 225.541 137.307 225.064C136.603 224.587 135.719 224.342 134.656 224.327C133.593 224.32 132.709 224.554 132.005 225.031C131.301 225.508 130.769 226.179 130.41 227.044C130.058 227.909 129.882 228.921 129.882 230.08C129.882 231.239 130.058 232.247 130.41 233.105C130.762 233.956 131.29 234.619 131.994 235.096C132.705 235.573 133.593 235.818 134.656 235.833ZM150.816 238.33C149.554 238.33 148.443 238.073 147.483 237.56C146.529 237.047 145.781 236.324 145.239 235.393C144.703 234.462 144.436 233.369 144.436 232.115V222.182L147.12 222.16V232.049C147.12 232.643 147.219 233.175 147.417 233.644C147.622 234.113 147.897 234.513 148.242 234.843C148.586 235.166 148.982 235.411 149.43 235.58C149.877 235.749 150.339 235.833 150.816 235.833C151.307 235.833 151.773 235.749 152.213 235.58C152.66 235.404 153.056 235.155 153.401 234.832C153.745 234.502 154.017 234.102 154.215 233.633C154.413 233.164 154.512 232.636 154.512 232.049V222.16H157.196V232.115C157.196 233.369 156.924 234.462 156.382 235.393C155.846 236.324 155.098 237.047 154.138 237.56C153.184 238.073 152.077 238.33 150.816 238.33ZM168.48 238V224.646H163.354V222.16H176.257V224.646H171.131V238H168.48ZM178.016 238V222.16H188.246V224.646H180.667V228.551H186.926V231.037H180.667V235.514H188.246V238H178.016ZM190.885 238V222.16H193.569L200.917 233.325V222.16H203.601V238H200.917L193.569 226.835V238H190.885ZM206.676 238V222.16H211.725C211.857 222.16 212.117 222.164 212.506 222.171C212.902 222.178 213.283 222.204 213.65 222.248C214.904 222.409 215.963 222.857 216.829 223.59C217.701 224.316 218.361 225.244 218.809 226.373C219.256 227.502 219.48 228.738 219.48 230.08C219.48 231.422 219.256 232.658 218.809 233.787C218.361 234.916 217.701 235.848 216.829 236.581C215.963 237.307 214.904 237.751 213.65 237.912C213.29 237.956 212.913 237.982 212.517 237.989C212.121 237.996 211.857 238 211.725 238H206.676ZM209.371 235.503H211.725C211.945 235.503 212.223 235.496 212.561 235.481C212.905 235.466 213.21 235.433 213.474 235.382C214.222 235.243 214.83 234.909 215.3 234.381C215.769 233.853 216.114 233.211 216.334 232.456C216.561 231.701 216.675 230.909 216.675 230.08C216.675 229.222 216.561 228.415 216.334 227.66C216.106 226.905 215.754 226.27 215.278 225.757C214.808 225.244 214.207 224.917 213.474 224.778C213.21 224.719 212.905 224.686 212.561 224.679C212.223 224.664 211.945 224.657 211.725 224.657H209.371V235.503ZM230.29 238V224.646H225.164V222.16H238.067V224.646H232.941V238H230.29ZM246.525 238.33C244.941 238.33 243.584 237.985 242.455 237.296C241.326 236.599 240.457 235.631 239.848 234.392C239.247 233.153 238.946 231.715 238.946 230.08C238.946 228.445 239.247 227.007 239.848 225.768C240.457 224.529 241.326 223.564 242.455 222.875C243.584 222.178 244.941 221.83 246.525 221.83C248.109 221.83 249.466 222.178 250.595 222.875C251.732 223.564 252.601 224.529 253.202 225.768C253.811 227.007 254.115 228.445 254.115 230.08C254.115 231.715 253.811 233.153 253.202 234.392C252.601 235.631 251.732 236.599 250.595 237.296C249.466 237.985 248.109 238.33 246.525 238.33ZM246.525 235.833C247.588 235.84 248.472 235.606 249.176 235.129C249.887 234.652 250.419 233.981 250.771 233.116C251.13 232.251 251.31 231.239 251.31 230.08C251.31 228.921 251.13 227.917 250.771 227.066C250.419 226.208 249.887 225.541 249.176 225.064C248.472 224.587 247.588 224.342 246.525 224.327C245.462 224.32 244.578 224.554 243.874 225.031C243.17 225.508 242.638 226.179 242.279 227.044C241.927 227.909 241.751 228.921 241.751 230.08C241.751 231.239 241.927 232.247 242.279 233.105C242.631 233.956 243.159 234.619 243.863 235.096C244.574 235.573 245.462 235.818 246.525 235.833ZM260.709 238V222.16H266.99C268.061 222.16 268.937 222.376 269.619 222.809C270.308 223.234 270.818 223.781 271.148 224.448C271.485 225.115 271.654 225.805 271.654 226.516C271.654 227.389 271.445 228.129 271.027 228.738C270.616 229.347 270.055 229.757 269.344 229.97V229.42C270.341 229.647 271.097 230.12 271.61 230.839C272.131 231.558 272.391 232.375 272.391 233.292C272.391 234.231 272.211 235.052 271.852 235.756C271.493 236.46 270.957 237.01 270.246 237.406C269.542 237.802 268.669 238 267.628 238H260.709ZM263.393 235.503H267.298C267.76 235.503 268.174 235.411 268.541 235.228C268.908 235.037 269.194 234.773 269.399 234.436C269.612 234.091 269.718 233.684 269.718 233.215C269.718 232.79 269.626 232.408 269.443 232.071C269.26 231.734 268.992 231.466 268.64 231.268C268.288 231.063 267.866 230.96 267.375 230.96H263.393V235.503ZM263.393 228.485H266.957C267.338 228.485 267.679 228.412 267.98 228.265C268.281 228.118 268.519 227.902 268.695 227.616C268.871 227.33 268.959 226.978 268.959 226.56C268.959 226.01 268.783 225.552 268.431 225.185C268.079 224.818 267.588 224.635 266.957 224.635H263.393V228.485ZM274.588 238V222.16H284.818V224.646H277.239V228.551H283.498V231.037H277.239V235.514H284.818V238H274.588ZM290.761 238L295.755 222.16H299.638L304.632 238H301.904L297.372 223.788H297.966L293.489 238H290.761ZM293.544 234.568V232.093H301.86V234.568H293.544ZM317.724 238.33C316.14 238.33 314.784 237.985 313.654 237.296C312.525 236.599 311.656 235.631 311.047 234.392C310.446 233.153 310.145 231.715 310.145 230.08C310.145 228.445 310.446 227.007 311.047 225.768C311.656 224.529 312.525 223.564 313.654 222.875C314.784 222.178 316.14 221.83 317.724 221.83C319.55 221.83 321.072 222.288 322.289 223.205C323.507 224.114 324.361 225.343 324.852 226.89L322.179 227.627C321.871 226.593 321.347 225.786 320.606 225.207C319.866 224.62 318.905 224.327 317.724 224.327C316.661 224.327 315.774 224.565 315.062 225.042C314.358 225.519 313.827 226.19 313.467 227.055C313.115 227.913 312.936 228.921 312.928 230.08C312.928 231.239 313.104 232.251 313.456 233.116C313.816 233.974 314.351 234.641 315.062 235.118C315.774 235.595 316.661 235.833 317.724 235.833C318.905 235.833 319.866 235.54 320.606 234.953C321.347 234.366 321.871 233.56 322.179 232.533L324.852 233.27C324.361 234.817 323.507 236.049 322.289 236.966C321.072 237.875 319.55 238.33 317.724 238.33ZM330.452 238V231.51L325.062 222.16H328.153L331.794 228.474L335.424 222.16H338.515L333.136 231.51V238H330.452ZM340.051 238V222.16H346.332C347.402 222.16 348.279 222.376 348.961 222.809C349.65 223.234 350.16 223.781 350.49 224.448C350.827 225.115 350.996 225.805 350.996 226.516C350.996 227.389 350.787 228.129 350.369 228.738C349.958 229.347 349.397 229.757 348.686 229.97V229.42C349.683 229.647 350.438 230.12 350.952 230.839C351.472 231.558 351.733 232.375 351.733 233.292C351.733 234.231 351.553 235.052 351.194 235.756C350.834 236.46 350.299 237.01 349.588 237.406C348.884 237.802 348.011 238 346.97 238H340.051ZM342.735 235.503H346.64C347.102 235.503 347.516 235.411 347.883 235.228C348.249 235.037 348.535 234.773 348.741 234.436C348.953 234.091 349.06 233.684 349.06 233.215C349.06 232.79 348.968 232.408 348.785 232.071C348.601 231.734 348.334 231.466 347.982 231.268C347.63 231.063 347.208 230.96 346.717 230.96H342.735V235.503ZM342.735 228.485H346.299C346.68 228.485 347.021 228.412 347.322 228.265C347.622 228.118 347.861 227.902 348.037 227.616C348.213 227.33 348.301 226.978 348.301 226.56C348.301 226.01 348.125 225.552 347.773 225.185C347.421 224.818 346.929 224.635 346.299 224.635H342.735V228.485ZM353.93 238V222.16H364.16V224.646H356.581V228.551H362.84V231.037H356.581V235.514H364.16V238H353.93ZM366.799 238V222.16H373.344C373.498 222.16 373.696 222.167 373.938 222.182C374.18 222.189 374.403 222.211 374.609 222.248C375.525 222.387 376.281 222.692 376.875 223.161C377.476 223.63 377.92 224.224 378.206 224.943C378.499 225.654 378.646 226.446 378.646 227.319C378.646 228.61 378.319 229.721 377.667 230.652C377.014 231.576 376.013 232.148 374.664 232.368L373.531 232.467H369.45V238H366.799ZM375.896 238L372.772 231.554L375.467 230.96L378.899 238H375.896ZM369.45 229.992H373.234C373.38 229.992 373.545 229.985 373.729 229.97C373.912 229.955 374.081 229.926 374.235 229.882C374.675 229.772 375.019 229.578 375.269 229.299C375.525 229.02 375.705 228.705 375.808 228.353C375.918 228.001 375.973 227.656 375.973 227.319C375.973 226.982 375.918 226.637 375.808 226.285C375.705 225.926 375.525 225.607 375.269 225.328C375.019 225.049 374.675 224.855 374.235 224.745C374.081 224.701 373.912 224.675 373.729 224.668C373.545 224.653 373.38 224.646 373.234 224.646H369.45V229.992ZM387.463 238.33C385.879 238.33 384.522 237.985 383.393 237.296C382.263 236.599 381.394 235.631 380.786 234.392C380.184 233.153 379.884 231.715 379.884 230.08C379.884 228.445 380.184 227.007 380.786 225.768C381.394 224.529 382.263 223.564 383.393 222.875C384.522 222.178 385.879 221.83 387.463 221.83C389.289 221.83 390.81 222.288 392.028 223.205C393.245 224.114 394.099 225.343 394.591 226.89L391.918 227.627C391.61 226.593 391.085 225.786 390.345 225.207C389.604 224.62 388.643 224.327 387.463 224.327C386.399 224.327 385.512 224.565 384.801 225.042C384.097 225.519 383.565 226.19 383.206 227.055C382.854 227.913 382.674 228.921 382.667 230.08C382.667 231.239 382.843 232.251 383.195 233.116C383.554 233.974 384.089 234.641 384.801 235.118C385.512 235.595 386.399 235.833 387.463 235.833C388.643 235.833 389.604 235.54 390.345 234.953C391.085 234.366 391.61 233.56 391.918 232.533L394.591 233.27C394.099 234.817 393.245 236.049 392.028 236.966C390.81 237.875 389.289 238.33 387.463 238.33ZM397.006 238V222.16H399.657V228.826H407.159V222.16H409.799V238H407.159V231.312H399.657V238H397.006ZM419.582 238.33C417.998 238.33 416.641 237.985 415.512 237.296C414.382 236.599 413.513 235.631 412.905 234.392C412.303 233.153 412.003 231.715 412.003 230.08C412.003 228.445 412.303 227.007 412.905 225.768C413.513 224.529 414.382 223.564 415.512 222.875C416.641 222.178 417.998 221.83 419.582 221.83C421.166 221.83 422.522 222.178 423.652 222.875C424.788 223.564 425.657 224.529 426.259 225.768C426.867 227.007 427.172 228.445 427.172 230.08C427.172 231.715 426.867 233.153 426.259 234.392C425.657 235.631 424.788 236.599 423.652 237.296C422.522 237.985 421.166 238.33 419.582 238.33ZM419.582 235.833C420.645 235.84 421.529 235.606 422.233 235.129C422.944 234.652 423.476 233.981 423.828 233.116C424.187 232.251 424.367 231.239 424.367 230.08C424.367 228.921 424.187 227.917 423.828 227.066C423.476 226.208 422.944 225.541 422.233 225.064C421.529 224.587 420.645 224.342 419.582 224.327C418.518 224.32 417.635 224.554 416.931 225.031C416.227 225.508 415.695 226.179 415.336 227.044C414.984 227.909 414.808 228.921 414.808 230.08C414.808 231.239 414.984 232.247 415.336 233.105C415.688 233.956 416.216 234.619 416.92 235.096C417.631 235.573 418.518 235.818 419.582 235.833ZM429.361 238V222.16H432.045L439.393 233.325V222.16H442.077V238H439.393L432.045 226.835V238H429.361ZM445.152 238V222.16H450.201C450.333 222.16 450.594 222.164 450.982 222.171C451.378 222.178 451.76 222.204 452.126 222.248C453.38 222.409 454.44 222.857 455.305 223.59C456.178 224.316 456.838 225.244 457.285 226.373C457.733 227.502 457.956 228.738 457.956 230.08C457.956 231.422 457.733 232.658 457.285 233.787C456.838 234.916 456.178 235.848 455.305 236.581C454.44 237.307 453.38 237.751 452.126 237.912C451.767 237.956 451.389 237.982 450.993 237.989C450.597 237.996 450.333 238 450.201 238H445.152ZM447.847 235.503H450.201C450.421 235.503 450.7 235.496 451.037 235.481C451.382 235.466 451.686 235.433 451.95 235.382C452.698 235.243 453.307 234.909 453.776 234.381C454.246 233.853 454.59 233.211 454.81 232.456C455.038 231.701 455.151 230.909 455.151 230.08C455.151 229.222 455.038 228.415 454.81 227.66C454.583 226.905 454.231 226.27 453.754 225.757C453.285 225.244 452.684 224.917 451.95 224.778C451.686 224.719 451.382 224.686 451.037 224.679C450.7 224.664 450.421 224.657 450.201 224.657H447.847V235.503ZM460.557 238V222.16H467.102C467.256 222.16 467.454 222.167 467.696 222.182C467.938 222.189 468.161 222.211 468.367 222.248C469.283 222.387 470.039 222.692 470.633 223.161C471.234 223.63 471.678 224.224 471.964 224.943C472.257 225.654 472.404 226.446 472.404 227.319C472.404 228.61 472.077 229.721 471.425 230.652C470.772 231.576 469.771 232.148 468.422 232.368L467.289 232.467H463.208V238H460.557ZM469.654 238L466.53 231.554L469.225 230.96L472.657 238H469.654ZM463.208 229.992H466.992C467.138 229.992 467.303 229.985 467.487 229.97C467.67 229.955 467.839 229.926 467.993 229.882C468.433 229.772 468.777 229.578 469.027 229.299C469.283 229.02 469.463 228.705 469.566 228.353C469.676 228.001 469.731 227.656 469.731 227.319C469.731 226.982 469.676 226.637 469.566 226.285C469.463 225.926 469.283 225.607 469.027 225.328C468.777 225.049 468.433 224.855 467.993 224.745C467.839 224.701 467.67 224.675 467.487 224.668C467.303 224.653 467.138 224.646 466.992 224.646H463.208V229.992ZM475.3 238V222.16H477.951V238H475.3ZM480.146 238L485.14 222.16H489.023L494.017 238H491.289L486.757 223.788H487.351L482.874 238H480.146ZM482.929 234.568V232.093H491.245V234.568H482.929ZM502.275 238.33C500.691 238.33 499.334 237.985 498.205 237.296C497.076 236.599 496.207 235.631 495.598 234.392C494.997 233.153 494.696 231.715 494.696 230.08C494.696 228.445 494.997 227.007 495.598 225.768C496.207 224.529 497.076 223.564 498.205 222.875C499.334 222.178 500.691 221.83 502.275 221.83C504.101 221.83 505.623 222.288 506.84 223.205C508.057 224.114 508.912 225.343 509.403 226.89L506.73 227.627C506.422 226.593 505.898 225.786 505.157 225.207C504.416 224.62 503.456 224.327 502.275 224.327C501.212 224.327 500.324 224.565 499.613 225.042C498.909 225.519 498.377 226.19 498.018 227.055C497.666 227.913 497.486 228.921 497.479 230.08C497.479 231.239 497.655 232.251 498.007 233.116C498.366 233.974 498.902 234.641 499.613 235.118C500.324 235.595 501.212 235.833 502.275 235.833C503.456 235.833 504.416 235.54 505.157 234.953C505.898 234.366 506.422 233.56 506.73 232.533L509.403 233.27C508.912 234.817 508.057 236.049 506.84 236.966C505.623 237.875 504.101 238.33 502.275 238.33ZM514.689 233.699C514.689 233.193 514.737 232.705 514.832 232.236C514.935 231.759 515.1 231.319 515.327 230.916C515.525 230.527 515.745 230.219 515.987 229.992C516.229 229.757 516.501 229.526 516.801 229.299C517.102 229.064 517.436 228.753 517.802 228.364C518.103 228.034 518.301 227.708 518.396 227.385C518.492 227.055 518.539 226.703 518.539 226.329C518.539 226.087 518.514 225.86 518.462 225.647C518.411 225.434 518.319 225.251 518.187 225.097C517.982 224.826 517.718 224.635 517.395 224.525C517.073 224.408 516.728 224.349 516.361 224.349C516.061 224.349 515.771 224.389 515.492 224.47C515.221 224.543 514.99 224.661 514.799 224.822C514.579 224.998 514.418 225.214 514.315 225.471C514.213 225.728 514.165 226.01 514.172 226.318H511.378C511.452 225.585 511.65 224.906 511.972 224.283C512.302 223.652 512.735 223.15 513.27 222.776C513.688 222.468 514.158 222.237 514.678 222.083C515.206 221.929 515.734 221.852 516.262 221.852C517.069 221.852 517.828 221.977 518.539 222.226C519.258 222.475 519.856 222.886 520.332 223.458C520.662 223.832 520.912 224.265 521.08 224.756C521.256 225.247 521.344 225.746 521.344 226.252C521.344 227.007 521.179 227.697 520.849 228.32C520.527 228.943 520.116 229.519 519.617 230.047C519.383 230.296 519.159 230.516 518.946 230.707C518.734 230.898 518.536 231.085 518.352 231.268C518.176 231.444 518.03 231.631 517.912 231.829C517.707 232.174 517.586 232.467 517.549 232.709C517.513 232.944 517.494 233.274 517.494 233.699H514.689ZM514.711 238V235.085H517.494V238H514.711Z" fill="white"></path> <rect x="20" y="20" width="173" height="40" rx="20" fill="white" fill-opacity="0.3"></rect> <path d="M33.3544 46V34.48H34.7784V39.56H40.8424V34.48H42.2664V46H40.8424V40.912H34.7784V46H33.3544ZM44.5106 46V34.48H51.7906V35.832H45.9346V39.44H50.8306V40.792H45.9346V44.648H51.7906V46H44.5106ZM52.9138 46L56.7698 34.48H58.7538L62.6098 46H61.1298L57.5218 35.312H57.9698L54.3938 46H52.9138ZM54.7698 43.304V41.968H60.7538V43.304H54.7698ZM64.2019 46V34.48H65.6259V44.648H70.9699V46H64.2019ZM73.6974 46V35.832H69.7694V34.48H79.0494V35.832H75.1214V46H73.6974ZM80.3231 46V34.48H81.7471V39.56H87.8111V34.48H89.2351V46H87.8111V40.912H81.7471V46H80.3231ZM98.4265 46.24C97.7865 46.24 97.1892 46.1467 96.6345 45.96C96.0798 45.7733 95.6158 45.48 95.2425 45.08C94.9545 44.76 94.7385 44.408 94.5945 44.024C94.4558 43.6347 94.3785 43.224 94.3625 42.792C94.3625 42.3707 94.4238 41.96 94.5465 41.56C94.6692 41.1547 94.8638 40.7947 95.1305 40.48C95.2692 40.3093 95.4238 40.1653 95.5945 40.048C95.7705 39.9253 95.9465 39.8213 96.1225 39.736C95.7545 39.3413 95.4718 38.9707 95.2745 38.624C95.0825 38.2773 94.9865 37.8587 94.9865 37.368C94.9865 36.744 95.1465 36.1813 95.4665 35.68C95.7918 35.1733 96.2345 34.8027 96.7945 34.568C97.0665 34.4507 97.3438 34.3707 97.6265 34.328C97.9145 34.28 98.1945 34.256 98.4665 34.256C98.9252 34.256 99.3705 34.32 99.8025 34.448C100.235 34.576 100.603 34.784 100.907 35.072C101.109 35.2427 101.283 35.44 101.427 35.664C101.571 35.8827 101.683 36.112 101.763 36.352L100.371 36.712C100.269 36.44 100.101 36.2107 99.8665 36.024C99.6798 35.864 99.4612 35.7547 99.2105 35.696C98.9652 35.6373 98.7172 35.608 98.4665 35.608C98.0505 35.608 97.6745 35.688 97.3385 35.848C97.0398 35.992 96.8158 36.1947 96.6665 36.456C96.5172 36.712 96.4425 37.016 96.4425 37.368C96.4425 37.672 96.4932 37.9227 96.5945 38.12C96.7012 38.312 96.8478 38.5173 97.0345 38.736C97.1465 38.8533 97.2718 38.9787 97.4105 39.112C97.5545 39.24 97.7012 39.3733 97.8505 39.512L101.243 42.664C101.259 42.5307 101.269 42.3947 101.275 42.256C101.28 42.1173 101.283 41.984 101.283 41.856L101.275 40.264H102.579V42.136C102.579 42.5147 102.565 42.8373 102.539 43.104C102.517 43.3707 102.48 43.592 102.427 43.768L103.891 45.12L102.963 46.112L101.747 44.96C101.539 45.1947 101.291 45.4 101.003 45.576C100.715 45.752 100.427 45.8853 100.139 45.976C99.8665 46.0773 99.5865 46.1467 99.2985 46.184C99.0105 46.2213 98.7198 46.24 98.4265 46.24ZM98.4585 44.872C98.7198 44.872 98.9572 44.856 99.1705 44.824C99.3838 44.792 99.5865 44.7307 99.7785 44.64C100.035 44.5173 100.232 44.4 100.371 44.288C100.509 44.176 100.624 44.072 100.715 43.976L97.2025 40.76C97.0105 40.824 96.8292 40.9093 96.6585 41.016C96.4932 41.1227 96.3492 41.248 96.2265 41.392C96.0878 41.5627 95.9838 41.7627 95.9145 41.992C95.8505 42.2213 95.8185 42.464 95.8185 42.72C95.8238 42.992 95.8692 43.2427 95.9545 43.472C96.0398 43.7013 96.1598 43.9067 96.3145 44.088C96.5492 44.36 96.8665 44.56 97.2665 44.688C97.6665 44.8107 98.0638 44.872 98.4585 44.872ZM108.401 46V34.48H109.697L114.049 43.656L118.377 34.48H119.689V45.992H118.337V37.608L114.425 46H113.665L109.753 37.608V46H108.401ZM121.933 46V34.48H129.213V35.832H123.357V39.44H128.253V40.792H123.357V44.648H129.213V46H121.933ZM131.136 46V34.48H134.688C134.805 34.48 135.01 34.4827 135.304 34.488C135.597 34.4933 135.877 34.5147 136.144 34.552C137.034 34.6693 137.778 34.9947 138.376 35.528C138.978 36.056 139.432 36.728 139.736 37.544C140.04 38.36 140.192 39.2587 140.192 40.24C140.192 41.2213 140.04 42.12 139.736 42.936C139.432 43.752 138.978 44.4267 138.376 44.96C137.778 45.488 137.034 45.8107 136.144 45.928C135.877 45.96 135.594 45.9813 135.296 45.992C135.002 45.9973 134.8 46 134.688 46H131.136ZM132.6 44.64H134.688C134.89 44.64 135.117 44.6347 135.368 44.624C135.618 44.608 135.837 44.584 136.024 44.552C136.653 44.4347 137.162 44.1707 137.552 43.76C137.941 43.3493 138.226 42.8373 138.408 42.224C138.589 41.6107 138.68 40.9493 138.68 40.24C138.68 39.5147 138.586 38.8453 138.4 38.232C138.218 37.6187 137.933 37.1093 137.544 36.704C137.154 36.2987 136.648 36.04 136.024 35.928C135.837 35.8907 135.616 35.8667 135.36 35.856C135.104 35.8453 134.88 35.84 134.688 35.84H132.6V44.64ZM142.186 46V34.48H143.61V46H142.186ZM150.747 46.24C149.6 46.24 148.627 45.9867 147.827 45.48C147.027 44.9733 146.416 44.2693 145.995 43.368C145.579 42.4667 145.371 41.424 145.371 40.24C145.371 39.056 145.579 38.0133 145.995 37.112C146.416 36.2107 147.027 35.5067 147.827 35C148.627 34.4933 149.6 34.24 150.747 34.24C152.08 34.24 153.176 34.5787 154.035 35.256C154.899 35.9333 155.493 36.8453 155.819 37.992L154.371 38.376C154.136 37.5173 153.717 36.84 153.115 36.344C152.512 35.848 151.723 35.6 150.747 35.6C149.888 35.6 149.173 35.7947 148.603 36.184C148.032 36.5733 147.603 37.1173 147.315 37.816C147.027 38.5093 146.88 39.3173 146.875 40.24C146.869 41.1573 147.011 41.9653 147.299 42.664C147.587 43.3573 148.019 43.9013 148.595 44.296C149.171 44.6853 149.888 44.88 150.747 44.88C151.723 44.88 152.512 44.632 153.115 44.136C153.717 43.6347 154.136 42.9573 154.371 42.104L155.819 42.488C155.493 43.6293 154.899 44.5413 154.035 45.224C153.176 45.9013 152.08 46.24 150.747 46.24ZM157.733 46V34.48H159.157V46H157.733ZM161.558 46V34.48H162.998L169.006 43.48V34.48H170.446V46H169.006L162.998 36.992V46H161.558ZM172.683 46V34.48H179.963V35.832H174.107V39.44H179.003V40.792H174.107V44.648H179.963V46H172.683Z" fill="white"></path> <defs> <linearGradient id="paint0_linear_131_155" x1="300" y1="0" x2="300" y2="400" gradientUnits="userSpaceOnUse"> <stop stop-color="#0BA360"></stop> <stop offset="1" stop-color="#3CBA92"></stop> </linearGradient> </defs> </svg> 