<?xml version="1.0" encoding="UTF-8"?> <svg xmlns="http://www.w3.org/2000/svg" width="600" height="400" viewBox="0 0 600 400" fill="none"> <rect width="600" height="400" rx="20" fill="url(#paint0_linear_131_159)"></rect> <path d="M88.3027 194V178.16H93.3517C93.4837 178.16 93.744 178.164 94.1327 178.171C94.5287 178.178 94.91 178.204 95.2767 178.248C96.5307 178.409 97.5904 178.857 98.4557 179.59C99.3284 180.316 99.9884 181.244 100.436 182.373C100.883 183.502 101.107 184.738 101.107 186.08C101.107 187.422 100.883 188.658 100.436 189.787C99.9884 190.916 99.3284 191.848 98.4557 192.581C97.5904 193.307 96.5307 193.751 95.2767 193.912C94.9174 193.956 94.5397 193.982 94.1437 193.989C93.7477 193.996 93.4837 194 93.3517 194H88.3027ZM90.9977 191.503H93.3517C93.5717 191.503 93.8504 191.496 94.1877 191.481C94.5324 191.466 94.8367 191.433 95.1007 191.382C95.8487 191.243 96.4574 190.909 96.9267 190.381C97.396 189.853 97.7407 189.211 97.9607 188.456C98.188 187.701 98.3017 186.909 98.3017 186.08C98.3017 185.222 98.188 184.415 97.9607 183.66C97.7334 182.905 97.3814 182.27 96.9047 181.757C96.4354 181.244 95.834 180.917 95.1007 180.778C94.8367 180.719 94.5324 180.686 94.1877 180.679C93.8504 180.664 93.5717 180.657 93.3517 180.657H90.9977V191.503ZM110.406 194.33C108.822 194.33 107.465 193.985 106.336 193.296C105.207 192.599 104.338 191.631 103.729 190.392C103.128 189.153 102.827 187.715 102.827 186.08C102.827 184.445 103.128 183.007 103.729 181.768C104.338 180.529 105.207 179.564 106.336 178.875C107.465 178.178 108.822 177.83 110.406 177.83C111.99 177.83 113.347 178.178 114.476 178.875C115.613 179.564 116.482 180.529 117.083 181.768C117.692 183.007 117.996 184.445 117.996 186.08C117.996 187.715 117.692 189.153 117.083 190.392C116.482 191.631 115.613 192.599 114.476 193.296C113.347 193.985 111.99 194.33 110.406 194.33ZM110.406 191.833C111.469 191.84 112.353 191.606 113.057 191.129C113.768 190.652 114.3 189.981 114.652 189.116C115.011 188.251 115.191 187.239 115.191 186.08C115.191 184.921 115.011 183.917 114.652 183.066C114.3 182.208 113.768 181.541 113.057 181.064C112.353 180.587 111.469 180.342 110.406 180.327C109.343 180.32 108.459 180.554 107.755 181.031C107.051 181.508 106.519 182.179 106.16 183.044C105.808 183.909 105.632 184.921 105.632 186.08C105.632 187.239 105.808 188.247 106.16 189.105C106.512 189.956 107.04 190.619 107.744 191.096C108.455 191.573 109.343 191.818 110.406 191.833ZM128.44 194V187.51L123.05 178.16H126.141L129.782 184.474L133.412 178.16H136.503L131.124 187.51V194H128.44ZM143.857 194.33C142.273 194.33 140.916 193.985 139.787 193.296C138.658 192.599 137.789 191.631 137.18 190.392C136.579 189.153 136.278 187.715 136.278 186.08C136.278 184.445 136.579 183.007 137.18 181.768C137.789 180.529 138.658 179.564 139.787 178.875C140.916 178.178 142.273 177.83 143.857 177.83C145.441 177.83 146.798 178.178 147.927 178.875C149.064 179.564 149.933 180.529 150.534 181.768C151.143 183.007 151.447 184.445 151.447 186.08C151.447 187.715 151.143 189.153 150.534 190.392C149.933 191.631 149.064 192.599 147.927 193.296C146.798 193.985 145.441 194.33 143.857 194.33ZM143.857 191.833C144.92 191.84 145.804 191.606 146.508 191.129C147.219 190.652 147.751 189.981 148.103 189.116C148.462 188.251 148.642 187.239 148.642 186.08C148.642 184.921 148.462 183.917 148.103 183.066C147.751 182.208 147.219 181.541 146.508 181.064C145.804 180.587 144.92 180.342 143.857 180.327C142.794 180.32 141.91 180.554 141.206 181.031C140.502 181.508 139.97 182.179 139.611 183.044C139.259 183.909 139.083 184.921 139.083 186.08C139.083 187.239 139.259 188.247 139.611 189.105C139.963 189.956 140.491 190.619 141.195 191.096C141.906 191.573 142.794 191.818 143.857 191.833ZM160.017 194.33C158.755 194.33 157.644 194.073 156.684 193.56C155.73 193.047 154.982 192.324 154.44 191.393C153.904 190.462 153.637 189.369 153.637 188.115V178.182L156.321 178.16V188.049C156.321 188.643 156.42 189.175 156.618 189.644C156.823 190.113 157.098 190.513 157.443 190.843C157.787 191.166 158.183 191.411 158.631 191.58C159.078 191.749 159.54 191.833 160.017 191.833C160.508 191.833 160.974 191.749 161.414 191.58C161.861 191.404 162.257 191.155 162.602 190.832C162.946 190.502 163.218 190.102 163.416 189.633C163.614 189.164 163.713 188.636 163.713 188.049V178.16H166.397V188.115C166.397 189.369 166.125 190.462 165.583 191.393C165.047 192.324 164.299 193.047 163.339 193.56C162.385 194.073 161.278 194.33 160.017 194.33ZM177.681 194V180.646H172.555V178.16H185.458V180.646H180.332V194H177.681ZM187.217 194V178.16H193.762C193.916 178.16 194.114 178.167 194.356 178.182C194.598 178.189 194.821 178.211 195.027 178.248C195.943 178.387 196.699 178.692 197.293 179.161C197.894 179.63 198.338 180.224 198.624 180.943C198.917 181.654 199.064 182.446 199.064 183.319C199.064 184.61 198.737 185.721 198.085 186.652C197.432 187.576 196.431 188.148 195.082 188.368L193.949 188.467H189.868V194H187.217ZM196.314 194L193.19 187.554L195.885 186.96L199.317 194H196.314ZM189.868 185.992H193.652C193.798 185.992 193.963 185.985 194.147 185.97C194.33 185.955 194.499 185.926 194.653 185.882C195.093 185.772 195.437 185.578 195.687 185.299C195.943 185.02 196.123 184.705 196.226 184.353C196.336 184.001 196.391 183.656 196.391 183.319C196.391 182.982 196.336 182.637 196.226 182.285C196.123 181.926 195.943 181.607 195.687 181.328C195.437 181.049 195.093 180.855 194.653 180.745C194.499 180.701 194.33 180.675 194.147 180.668C193.963 180.653 193.798 180.646 193.652 180.646H189.868V185.992ZM208.12 194.33C206.859 194.33 205.748 194.073 204.787 193.56C203.834 193.047 203.086 192.324 202.543 191.393C202.008 190.462 201.74 189.369 201.74 188.115V178.182L204.424 178.16V188.049C204.424 188.643 204.523 189.175 204.721 189.644C204.927 190.113 205.202 190.513 205.546 190.843C205.891 191.166 206.287 191.411 206.734 191.58C207.182 191.749 207.644 191.833 208.12 191.833C208.612 191.833 209.077 191.749 209.517 191.58C209.965 191.404 210.361 191.155 210.705 190.832C211.05 190.502 211.321 190.102 211.519 189.633C211.717 189.164 211.816 188.636 211.816 188.049V178.16H214.5V188.115C214.5 189.369 214.229 190.462 213.686 191.393C213.151 192.324 212.403 193.047 211.442 193.56C210.489 194.073 209.382 194.33 208.12 194.33ZM222.771 194.33C221.612 194.33 220.567 194.128 219.636 193.725C218.712 193.322 217.949 192.746 217.348 191.998C216.754 191.243 216.376 190.348 216.215 189.314L218.965 188.896C219.2 189.835 219.68 190.561 220.406 191.074C221.139 191.587 221.983 191.844 222.936 191.844C223.501 191.844 224.032 191.756 224.531 191.58C225.03 191.404 225.433 191.147 225.741 190.81C226.056 190.473 226.214 190.058 226.214 189.567C226.214 189.347 226.177 189.145 226.104 188.962C226.031 188.771 225.921 188.603 225.774 188.456C225.635 188.309 225.451 188.177 225.224 188.06C225.004 187.935 224.747 187.829 224.454 187.741L220.362 186.531C220.01 186.428 219.629 186.293 219.218 186.124C218.815 185.948 218.43 185.71 218.063 185.409C217.704 185.101 217.407 184.712 217.172 184.243C216.945 183.766 216.831 183.18 216.831 182.483C216.831 181.464 217.088 180.609 217.601 179.92C218.122 179.223 218.818 178.703 219.691 178.358C220.571 178.013 221.546 177.845 222.617 177.852C223.702 177.859 224.67 178.046 225.521 178.413C226.372 178.772 227.083 179.297 227.655 179.986C228.227 180.675 228.63 181.508 228.865 182.483L226.016 182.978C225.899 182.421 225.671 181.948 225.334 181.559C225.004 181.163 224.597 180.862 224.113 180.657C223.636 180.452 223.127 180.342 222.584 180.327C222.056 180.32 221.565 180.4 221.11 180.569C220.663 180.73 220.3 180.965 220.021 181.273C219.75 181.581 219.614 181.94 219.614 182.351C219.614 182.74 219.731 183.059 219.966 183.308C220.201 183.55 220.49 183.744 220.835 183.891C221.187 184.03 221.543 184.148 221.902 184.243L224.74 185.035C225.129 185.138 225.565 185.277 226.049 185.453C226.533 185.629 226.999 185.875 227.446 186.19C227.893 186.505 228.26 186.92 228.546 187.433C228.839 187.946 228.986 188.599 228.986 189.391C228.986 190.212 228.814 190.935 228.469 191.558C228.132 192.174 227.673 192.687 227.094 193.098C226.515 193.509 225.851 193.817 225.103 194.022C224.362 194.227 223.585 194.33 222.771 194.33ZM235.173 194V180.646H230.047V178.16H242.95V180.646H237.824V194H235.173ZM255.146 194.33C253.562 194.33 252.206 193.985 251.076 193.296C249.947 192.599 249.078 191.631 248.469 190.392C247.868 189.153 247.567 187.715 247.567 186.08C247.567 184.445 247.868 183.007 248.469 181.768C249.078 180.529 249.947 179.564 251.076 178.875C252.206 178.178 253.562 177.83 255.146 177.83C256.73 177.83 258.087 178.178 259.216 178.875C260.353 179.564 261.222 180.529 261.823 181.768C262.432 183.007 262.736 184.445 262.736 186.08C262.736 187.715 262.432 189.153 261.823 190.392C261.222 191.631 260.353 192.599 259.216 193.296C258.087 193.985 256.73 194.33 255.146 194.33ZM255.146 191.833C256.21 191.84 257.093 191.606 257.797 191.129C258.509 190.652 259.04 189.981 259.392 189.116C259.752 188.251 259.931 187.239 259.931 186.08C259.931 184.921 259.752 183.917 259.392 183.066C259.04 182.208 258.509 181.541 257.797 181.064C257.093 180.587 256.21 180.342 255.146 180.327C254.083 180.32 253.199 180.554 252.495 181.031C251.791 181.508 251.26 182.179 250.9 183.044C250.548 183.909 250.372 184.921 250.372 186.08C250.372 187.239 250.548 188.247 250.9 189.105C251.252 189.956 251.78 190.619 252.484 191.096C253.196 191.573 254.083 191.818 255.146 191.833ZM264.926 194V178.16H267.61L274.958 189.325V178.16H277.642V194H274.958L267.61 182.835V194H264.926ZM280.717 194V178.16H290.947V180.646H283.368V184.551H289.627V187.037H283.368V191.514H290.947V194H280.717ZM297.99 194V178.16H303.039C303.171 178.16 303.432 178.164 303.82 178.171C304.216 178.178 304.598 178.204 304.964 178.248C306.218 178.409 307.278 178.857 308.143 179.59C309.016 180.316 309.676 181.244 310.123 182.373C310.571 183.502 310.794 184.738 310.794 186.08C310.794 187.422 310.571 188.658 310.123 189.787C309.676 190.916 309.016 191.848 308.143 192.581C307.278 193.307 306.218 193.751 304.964 193.912C304.605 193.956 304.227 193.982 303.831 193.989C303.435 193.996 303.171 194 303.039 194H297.99ZM300.685 191.503H303.039C303.259 191.503 303.538 191.496 303.875 191.481C304.22 191.466 304.524 191.433 304.788 191.382C305.536 191.243 306.145 190.909 306.614 190.381C307.084 189.853 307.428 189.211 307.648 188.456C307.876 187.701 307.989 186.909 307.989 186.08C307.989 185.222 307.876 184.415 307.648 183.66C307.421 182.905 307.069 182.27 306.592 181.757C306.123 181.244 305.522 180.917 304.788 180.778C304.524 180.719 304.22 180.686 303.875 180.679C303.538 180.664 303.259 180.657 303.039 180.657H300.685V191.503ZM320.093 194.33C318.509 194.33 317.153 193.985 316.023 193.296C314.894 192.599 314.025 191.631 313.416 190.392C312.815 189.153 312.514 187.715 312.514 186.08C312.514 184.445 312.815 183.007 313.416 181.768C314.025 180.529 314.894 179.564 316.023 178.875C317.153 178.178 318.509 177.83 320.093 177.83C321.677 177.83 323.034 178.178 324.163 178.875C325.3 179.564 326.169 180.529 326.77 181.768C327.379 183.007 327.683 184.445 327.683 186.08C327.683 187.715 327.379 189.153 326.77 190.392C326.169 191.631 325.3 192.599 324.163 193.296C323.034 193.985 321.677 194.33 320.093 194.33ZM320.093 191.833C321.157 191.84 322.04 191.606 322.744 191.129C323.456 190.652 323.987 189.981 324.339 189.116C324.699 188.251 324.878 187.239 324.878 186.08C324.878 184.921 324.699 183.917 324.339 183.066C323.987 182.208 323.456 181.541 322.744 181.064C322.04 180.587 321.157 180.342 320.093 180.327C319.03 180.32 318.146 180.554 317.442 181.031C316.738 181.508 316.207 182.179 315.847 183.044C315.495 183.909 315.319 184.921 315.319 186.08C315.319 187.239 315.495 188.247 315.847 189.105C316.199 189.956 316.727 190.619 317.431 191.096C318.143 191.573 319.03 191.818 320.093 191.833ZM336.572 194.33C334.988 194.33 333.631 193.985 332.502 193.296C331.373 192.599 330.504 191.631 329.895 190.392C329.294 189.153 328.993 187.715 328.993 186.08C328.993 184.445 329.294 183.007 329.895 181.768C330.504 180.529 331.373 179.564 332.502 178.875C333.631 178.178 334.988 177.83 336.572 177.83C338.398 177.83 339.92 178.288 341.137 179.205C342.354 180.114 343.209 181.343 343.7 182.89L341.027 183.627C340.719 182.593 340.195 181.786 339.454 181.207C338.713 180.62 337.753 180.327 336.572 180.327C335.509 180.327 334.621 180.565 333.91 181.042C333.206 181.519 332.674 182.19 332.315 183.055C331.963 183.913 331.783 184.921 331.776 186.08C331.776 187.239 331.952 188.251 332.304 189.116C332.663 189.974 333.199 190.641 333.91 191.118C334.621 191.595 335.509 191.833 336.572 191.833C337.753 191.833 338.713 191.54 339.454 190.953C340.195 190.366 340.719 189.56 341.027 188.533L343.7 189.27C343.209 190.817 342.354 192.049 341.137 192.966C339.92 193.875 338.398 194.33 336.572 194.33ZM349.921 194V180.646H344.795V178.16H357.698V180.646H352.572V194H349.921ZM366.156 194.33C364.572 194.33 363.215 193.985 362.086 193.296C360.957 192.599 360.088 191.631 359.479 190.392C358.878 189.153 358.577 187.715 358.577 186.08C358.577 184.445 358.878 183.007 359.479 181.768C360.088 180.529 360.957 179.564 362.086 178.875C363.215 178.178 364.572 177.83 366.156 177.83C367.74 177.83 369.097 178.178 370.226 178.875C371.363 179.564 372.232 180.529 372.833 181.768C373.442 183.007 373.746 184.445 373.746 186.08C373.746 187.715 373.442 189.153 372.833 190.392C372.232 191.631 371.363 192.599 370.226 193.296C369.097 193.985 367.74 194.33 366.156 194.33ZM366.156 191.833C367.219 191.84 368.103 191.606 368.807 191.129C369.518 190.652 370.05 189.981 370.402 189.116C370.761 188.251 370.941 187.239 370.941 186.08C370.941 184.921 370.761 183.917 370.402 183.066C370.05 182.208 369.518 181.541 368.807 181.064C368.103 180.587 367.219 180.342 366.156 180.327C365.093 180.32 364.209 180.554 363.505 181.031C362.801 181.508 362.269 182.179 361.91 183.044C361.558 183.909 361.382 184.921 361.382 186.08C361.382 187.239 361.558 188.247 361.91 189.105C362.262 189.956 362.79 190.619 363.494 191.096C364.205 191.573 365.093 191.818 366.156 191.833ZM375.936 194V178.16H382.481C382.635 178.16 382.833 178.167 383.075 178.182C383.317 178.189 383.54 178.211 383.746 178.248C384.662 178.387 385.418 178.692 386.012 179.161C386.613 179.63 387.057 180.224 387.343 180.943C387.636 181.654 387.783 182.446 387.783 183.319C387.783 184.61 387.456 185.721 386.804 186.652C386.151 187.576 385.15 188.148 383.801 188.368L382.668 188.467H378.587V194H375.936ZM385.033 194L381.909 187.554L384.604 186.96L388.036 194H385.033ZM378.587 185.992H382.371C382.517 185.992 382.682 185.985 382.866 185.97C383.049 185.955 383.218 185.926 383.372 185.882C383.812 185.772 384.156 185.578 384.406 185.299C384.662 185.02 384.842 184.705 384.945 184.353C385.055 184.001 385.11 183.656 385.11 183.319C385.11 182.982 385.055 182.637 384.945 182.285C384.842 181.926 384.662 181.607 384.406 181.328C384.156 181.049 383.812 180.855 383.372 180.745C383.218 180.701 383.049 180.675 382.866 180.668C382.682 180.653 382.517 180.646 382.371 180.646H378.587V185.992ZM401.562 194.33C399.978 194.33 398.622 193.985 397.492 193.296C396.363 192.599 395.494 191.631 394.885 190.392C394.284 189.153 393.983 187.715 393.983 186.08C393.983 184.445 394.284 183.007 394.885 181.768C395.494 180.529 396.363 179.564 397.492 178.875C398.622 178.178 399.978 177.83 401.562 177.83C403.146 177.83 404.503 178.178 405.632 178.875C406.769 179.564 407.638 180.529 408.239 181.768C408.848 183.007 409.152 184.445 409.152 186.08C409.152 187.715 408.848 189.153 408.239 190.392C407.638 191.631 406.769 192.599 405.632 193.296C404.503 193.985 403.146 194.33 401.562 194.33ZM401.562 191.833C402.626 191.84 403.509 191.606 404.213 191.129C404.925 190.652 405.456 189.981 405.808 189.116C406.168 188.251 406.347 187.239 406.347 186.08C406.347 184.921 406.168 183.917 405.808 183.066C405.456 182.208 404.925 181.541 404.213 181.064C403.509 180.587 402.626 180.342 401.562 180.327C400.499 180.32 399.615 180.554 398.911 181.031C398.207 181.508 397.676 182.179 397.316 183.044C396.964 183.909 396.788 184.921 396.788 186.08C396.788 187.239 396.964 188.247 397.316 189.105C397.668 189.956 398.196 190.619 398.9 191.096C399.612 191.573 400.499 191.818 401.562 191.833ZM411.342 194V178.16H417.887C418.041 178.16 418.239 178.167 418.481 178.182C418.723 178.189 418.946 178.211 419.152 178.248C420.068 178.387 420.824 178.692 421.418 179.161C422.019 179.63 422.463 180.224 422.749 180.943C423.042 181.654 423.189 182.446 423.189 183.319C423.189 184.61 422.862 185.721 422.21 186.652C421.557 187.576 420.556 188.148 419.207 188.368L418.074 188.467H413.993V194H411.342ZM420.439 194L417.315 187.554L420.01 186.96L423.442 194H420.439ZM413.993 185.992H417.777C417.923 185.992 418.088 185.985 418.272 185.97C418.455 185.955 418.624 185.926 418.778 185.882C419.218 185.772 419.562 185.578 419.812 185.299C420.068 185.02 420.248 184.705 420.351 184.353C420.461 184.001 420.516 183.656 420.516 183.319C420.516 182.982 420.461 182.637 420.351 182.285C420.248 181.926 420.068 181.607 419.812 181.328C419.562 181.049 419.218 180.855 418.778 180.745C418.624 180.701 418.455 180.675 418.272 180.668C418.088 180.653 417.923 180.646 417.777 180.646H413.993V185.992ZM429.169 194L434.163 178.16H438.046L443.04 194H440.312L435.78 179.788H436.374L431.897 194H429.169ZM431.952 190.568V188.093H440.268V190.568H431.952ZM447.525 194V180.646H442.399V178.16H455.302V180.646H450.176V194H447.525ZM462.177 194V180.646H457.051V178.16H469.954V180.646H464.828V194H462.177ZM471.713 194V178.16H481.943V180.646H474.364V184.551H480.623V187.037H474.364V191.514H481.943V194H471.713ZM484.582 194V178.16H487.266L494.614 189.325V178.16H497.298V194H494.614L487.266 182.835V194H484.582ZM500.373 194V178.16H505.422C505.554 178.16 505.814 178.164 506.203 178.171C506.599 178.178 506.98 178.204 507.347 178.248C508.601 178.409 509.661 178.857 510.526 179.59C511.399 180.316 512.059 181.244 512.506 182.373C512.953 183.502 513.177 184.738 513.177 186.08C513.177 187.422 512.953 188.658 512.506 189.787C512.059 190.916 511.399 191.848 510.526 192.581C509.661 193.307 508.601 193.751 507.347 193.912C506.988 193.956 506.61 193.982 506.214 193.989C505.818 193.996 505.554 194 505.422 194H500.373ZM503.068 191.503H505.422C505.642 191.503 505.921 191.496 506.258 191.481C506.603 191.466 506.907 191.433 507.171 191.382C507.919 191.243 508.528 190.909 508.997 190.381C509.466 189.853 509.811 189.211 510.031 188.456C510.258 187.701 510.372 186.909 510.372 186.08C510.372 185.222 510.258 184.415 510.031 183.66C509.804 182.905 509.452 182.27 508.975 181.757C508.506 181.244 507.904 180.917 507.171 180.778C506.907 180.719 506.603 180.686 506.258 180.679C505.921 180.664 505.642 180.657 505.422 180.657H503.068V191.503ZM91.0269 223L96.0209 207.16H99.9039L104.898 223H102.17L97.6379 208.788H98.2319L93.7549 223H91.0269ZM93.8099 219.568V217.093H102.126V219.568H93.8099ZM106.887 223V207.16H109.571L116.919 218.325V207.16H119.603V223H116.919L109.571 211.835V223H106.887ZM129.377 223.33C127.793 223.33 126.436 222.985 125.307 222.296C124.177 221.599 123.308 220.631 122.7 219.392C122.098 218.153 121.798 216.715 121.798 215.08C121.798 213.445 122.098 212.007 122.7 210.768C123.308 209.529 124.177 208.564 125.307 207.875C126.436 207.178 127.793 206.83 129.377 206.83C130.961 206.83 132.317 207.178 133.447 207.875C134.583 208.564 135.452 209.529 136.054 210.768C136.662 212.007 136.967 213.445 136.967 215.08C136.967 216.715 136.662 218.153 136.054 219.392C135.452 220.631 134.583 221.599 133.447 222.296C132.317 222.985 130.961 223.33 129.377 223.33ZM129.377 220.833C130.44 220.84 131.324 220.606 132.028 220.129C132.739 219.652 133.271 218.981 133.623 218.116C133.982 217.251 134.162 216.239 134.162 215.08C134.162 213.921 133.982 212.917 133.623 212.066C133.271 211.208 132.739 210.541 132.028 210.064C131.324 209.587 130.44 209.342 129.377 209.327C128.313 209.32 127.43 209.554 126.726 210.031C126.022 210.508 125.49 211.179 125.131 212.044C124.779 212.909 124.603 213.921 124.603 215.08C124.603 216.239 124.779 217.247 125.131 218.105C125.483 218.956 126.011 219.619 126.715 220.096C127.426 220.573 128.313 220.818 129.377 220.833ZM142.533 223V209.646H137.407V207.16H150.31V209.646H145.184V223H142.533ZM152.068 223V207.16H154.719V213.826H162.221V207.16H164.861V223H162.221V216.312H154.719V223H152.068ZM167.945 223V207.16H178.175V209.646H170.596V213.551H176.855V216.037H170.596V220.514H178.175V223H167.945ZM180.814 223V207.16H187.359C187.513 207.16 187.711 207.167 187.953 207.182C188.195 207.189 188.419 207.211 188.624 207.248C189.541 207.387 190.296 207.692 190.89 208.161C191.492 208.63 191.935 209.224 192.221 209.943C192.515 210.654 192.661 211.446 192.661 212.319C192.661 213.61 192.335 214.721 191.682 215.652C191.03 216.576 190.029 217.148 188.679 217.368L187.546 217.467H183.465V223H180.814ZM189.911 223L186.787 216.554L189.482 215.96L192.914 223H189.911ZM183.465 214.992H187.249C187.396 214.992 187.561 214.985 187.744 214.97C187.928 214.955 188.096 214.926 188.25 214.882C188.69 214.772 189.035 214.578 189.284 214.299C189.541 214.02 189.721 213.705 189.823 213.353C189.933 213.001 189.988 212.656 189.988 212.319C189.988 211.982 189.933 211.637 189.823 211.285C189.721 210.926 189.541 210.607 189.284 210.328C189.035 210.049 188.69 209.855 188.25 209.745C188.096 209.701 187.928 209.675 187.744 209.668C187.561 209.653 187.396 209.646 187.249 209.646H183.465V214.992ZM206.441 223.33C204.857 223.33 203.5 222.985 202.371 222.296C201.242 221.599 200.373 220.631 199.764 219.392C199.163 218.153 198.862 216.715 198.862 215.08C198.862 213.445 199.163 212.007 199.764 210.768C200.373 209.529 201.242 208.564 202.371 207.875C203.5 207.178 204.857 206.83 206.441 206.83C208.025 206.83 209.382 207.178 210.511 207.875C211.648 208.564 212.517 209.529 213.118 210.768C213.727 212.007 214.031 213.445 214.031 215.08C214.031 216.715 213.727 218.153 213.118 219.392C212.517 220.631 211.648 221.599 210.511 222.296C209.382 222.985 208.025 223.33 206.441 223.33ZM206.441 220.833C207.504 220.84 208.388 220.606 209.092 220.129C209.803 219.652 210.335 218.981 210.687 218.116C211.046 217.251 211.226 216.239 211.226 215.08C211.226 213.921 211.046 212.917 210.687 212.066C210.335 211.208 209.803 210.541 209.092 210.064C208.388 209.587 207.504 209.342 206.441 209.327C205.378 209.32 204.494 209.554 203.79 210.031C203.086 210.508 202.554 211.179 202.195 212.044C201.843 212.909 201.667 213.921 201.667 215.08C201.667 216.239 201.843 217.247 202.195 218.105C202.547 218.956 203.075 219.619 203.779 220.096C204.49 220.573 205.378 220.818 206.441 220.833ZM216.221 223V207.16H218.905L226.253 218.325V207.16H228.937V223H226.253L218.905 211.835V223H216.221ZM232.012 223V207.16H242.242V209.646H234.663V213.551H240.922V216.037H234.663V220.514H242.242V223H232.012ZM249.285 223V207.16H258.822V209.811H251.936V213.76H257.502V216.4H251.936V223H249.285ZM267.5 223.33C265.916 223.33 264.559 222.985 263.43 222.296C262.3 221.599 261.431 220.631 260.823 219.392C260.221 218.153 259.921 216.715 259.921 215.08C259.921 213.445 260.221 212.007 260.823 210.768C261.431 209.529 262.3 208.564 263.43 207.875C264.559 207.178 265.916 206.83 267.5 206.83C269.084 206.83 270.44 207.178 271.57 207.875C272.706 208.564 273.575 209.529 274.177 210.768C274.785 212.007 275.09 213.445 275.09 215.08C275.09 216.715 274.785 218.153 274.177 219.392C273.575 220.631 272.706 221.599 271.57 222.296C270.44 222.985 269.084 223.33 267.5 223.33ZM267.5 220.833C268.563 220.84 269.447 220.606 270.151 220.129C270.862 219.652 271.394 218.981 271.746 218.116C272.105 217.251 272.285 216.239 272.285 215.08C272.285 213.921 272.105 212.917 271.746 212.066C271.394 211.208 270.862 210.541 270.151 210.064C269.447 209.587 268.563 209.342 267.5 209.327C266.436 209.32 265.553 209.554 264.849 210.031C264.145 210.508 263.613 211.179 263.254 212.044C262.902 212.909 262.726 213.921 262.726 215.08C262.726 216.239 262.902 217.247 263.254 218.105C263.606 218.956 264.134 219.619 264.838 220.096C265.549 220.573 266.436 220.818 267.5 220.833ZM277.279 223V207.16H283.824C283.978 207.16 284.176 207.167 284.418 207.182C284.66 207.189 284.884 207.211 285.089 207.248C286.006 207.387 286.761 207.692 287.355 208.161C287.957 208.63 288.4 209.224 288.686 209.943C288.98 210.654 289.126 211.446 289.126 212.319C289.126 213.61 288.8 214.721 288.147 215.652C287.495 216.576 286.494 217.148 285.144 217.368L284.011 217.467H279.93V223H277.279ZM286.376 223L283.252 216.554L285.947 215.96L289.379 223H286.376ZM279.93 214.992H283.714C283.861 214.992 284.026 214.985 284.209 214.97C284.393 214.955 284.561 214.926 284.715 214.882C285.155 214.772 285.5 214.578 285.749 214.299C286.006 214.02 286.186 213.705 286.288 213.353C286.398 213.001 286.453 212.656 286.453 212.319C286.453 211.982 286.398 211.637 286.288 211.285C286.186 210.926 286.006 210.607 285.749 210.328C285.5 210.049 285.155 209.855 284.715 209.745C284.561 209.701 284.393 209.675 284.209 209.668C284.026 209.653 283.861 209.646 283.714 209.646H279.93V214.992ZM296.207 223V207.16H301.256C301.388 207.16 301.648 207.164 302.037 207.171C302.433 207.178 302.814 207.204 303.181 207.248C304.435 207.409 305.495 207.857 306.36 208.59C307.233 209.316 307.893 210.244 308.34 211.373C308.787 212.502 309.011 213.738 309.011 215.08C309.011 216.422 308.787 217.658 308.34 218.787C307.893 219.916 307.233 220.848 306.36 221.581C305.495 222.307 304.435 222.751 303.181 222.912C302.822 222.956 302.444 222.982 302.048 222.989C301.652 222.996 301.388 223 301.256 223H296.207ZM298.902 220.503H301.256C301.476 220.503 301.755 220.496 302.092 220.481C302.437 220.466 302.741 220.433 303.005 220.382C303.753 220.243 304.362 219.909 304.831 219.381C305.3 218.853 305.645 218.211 305.865 217.456C306.092 216.701 306.206 215.909 306.206 215.08C306.206 214.222 306.092 213.415 305.865 212.66C305.638 211.905 305.286 211.27 304.809 210.757C304.34 210.244 303.738 209.917 303.005 209.778C302.741 209.719 302.437 209.686 302.092 209.679C301.755 209.664 301.476 209.657 301.256 209.657H298.902V220.503ZM318.31 223.33C316.726 223.33 315.37 222.985 314.24 222.296C313.111 221.599 312.242 220.631 311.633 219.392C311.032 218.153 310.731 216.715 310.731 215.08C310.731 213.445 311.032 212.007 311.633 210.768C312.242 209.529 313.111 208.564 314.24 207.875C315.37 207.178 316.726 206.83 318.31 206.83C319.894 206.83 321.251 207.178 322.38 207.875C323.517 208.564 324.386 209.529 324.987 210.768C325.596 212.007 325.9 213.445 325.9 215.08C325.9 216.715 325.596 218.153 324.987 219.392C324.386 220.631 323.517 221.599 322.38 222.296C321.251 222.985 319.894 223.33 318.31 223.33ZM318.31 220.833C319.374 220.84 320.257 220.606 320.961 220.129C321.673 219.652 322.204 218.981 322.556 218.116C322.916 217.251 323.095 216.239 323.095 215.08C323.095 213.921 322.916 212.917 322.556 212.066C322.204 211.208 321.673 210.541 320.961 210.064C320.257 209.587 319.374 209.342 318.31 209.327C317.247 209.32 316.363 209.554 315.659 210.031C314.955 210.508 314.424 211.179 314.064 212.044C313.712 212.909 313.536 213.921 313.536 215.08C313.536 216.239 313.712 217.247 314.064 218.105C314.416 218.956 314.944 219.619 315.648 220.096C316.36 220.573 317.247 220.818 318.31 220.833ZM334.47 223.33C333.208 223.33 332.097 223.073 331.137 222.56C330.183 222.047 329.435 221.324 328.893 220.393C328.357 219.462 328.09 218.369 328.09 217.115V207.182L330.774 207.16V217.049C330.774 217.643 330.873 218.175 331.071 218.644C331.276 219.113 331.551 219.513 331.896 219.843C332.24 220.166 332.636 220.411 333.084 220.58C333.531 220.749 333.993 220.833 334.47 220.833C334.961 220.833 335.427 220.749 335.867 220.58C336.314 220.404 336.71 220.155 337.055 219.832C337.399 219.502 337.671 219.102 337.869 218.633C338.067 218.164 338.166 217.636 338.166 217.049V207.16H340.85V217.115C340.85 218.369 340.578 219.462 340.036 220.393C339.5 221.324 338.752 222.047 337.792 222.56C336.838 223.073 335.731 223.33 334.47 223.33ZM343.924 223V207.16H350.205C351.275 207.16 352.152 207.376 352.834 207.809C353.523 208.234 354.033 208.781 354.363 209.448C354.7 210.115 354.869 210.805 354.869 211.516C354.869 212.389 354.66 213.129 354.242 213.738C353.831 214.347 353.27 214.757 352.559 214.97V214.42C353.556 214.647 354.311 215.12 354.825 215.839C355.345 216.558 355.606 217.375 355.606 218.292C355.606 219.231 355.426 220.052 355.067 220.756C354.707 221.46 354.172 222.01 353.461 222.406C352.757 222.802 351.884 223 350.843 223H343.924ZM346.608 220.503H350.513C350.975 220.503 351.389 220.411 351.756 220.228C352.122 220.037 352.408 219.773 352.614 219.436C352.826 219.091 352.933 218.684 352.933 218.215C352.933 217.79 352.841 217.408 352.658 217.071C352.474 216.734 352.207 216.466 351.855 216.268C351.503 216.063 351.081 215.96 350.59 215.96H346.608V220.503ZM346.608 213.485H350.172C350.553 213.485 350.894 213.412 351.195 213.265C351.495 213.118 351.734 212.902 351.91 212.616C352.086 212.33 352.174 211.978 352.174 211.56C352.174 211.01 351.998 210.552 351.646 210.185C351.294 209.818 350.802 209.635 350.172 209.635H346.608V213.485ZM358.023 223V207.16H360.674V220.514H367.67V223H358.023ZM369.533 223V207.16H379.763V209.646H372.184V213.551H378.443V216.037H372.184V220.514H379.763V223H369.533ZM393.506 223.33C391.922 223.33 390.565 222.985 389.436 222.296C388.306 221.599 387.437 220.631 386.829 219.392C386.227 218.153 385.927 216.715 385.927 215.08C385.927 213.445 386.227 212.007 386.829 210.768C387.437 209.529 388.306 208.564 389.436 207.875C390.565 207.178 391.922 206.83 393.506 206.83C395.332 206.83 396.853 207.288 398.071 208.205C399.288 209.114 400.142 210.343 400.634 211.89L397.961 212.627C397.653 211.593 397.128 210.786 396.388 210.207C395.647 209.62 394.686 209.327 393.506 209.327C392.442 209.327 391.555 209.565 390.844 210.042C390.14 210.519 389.608 211.19 389.249 212.055C388.897 212.913 388.717 213.921 388.71 215.08C388.71 216.239 388.886 217.251 389.238 218.116C389.597 218.974 390.132 219.641 390.844 220.118C391.555 220.595 392.442 220.833 393.506 220.833C394.686 220.833 395.647 220.54 396.388 219.953C397.128 219.366 397.653 218.56 397.961 217.533L400.634 218.27C400.142 219.817 399.288 221.049 398.071 221.966C396.853 222.875 395.332 223.33 393.506 223.33ZM403.049 223V207.16H405.7V213.826H413.202V207.16H415.842V223H413.202V216.312H405.7V223H403.049ZM418.926 223V207.16H429.156V209.646H421.577V213.551H427.836V216.037H421.577V220.514H429.156V223H418.926ZM437.935 223.33C436.351 223.33 434.995 222.985 433.865 222.296C432.736 221.599 431.867 220.631 431.258 219.392C430.657 218.153 430.356 216.715 430.356 215.08C430.356 213.445 430.657 212.007 431.258 210.768C431.867 209.529 432.736 208.564 433.865 207.875C434.995 207.178 436.351 206.83 437.935 206.83C439.761 206.83 441.283 207.288 442.5 208.205C443.718 209.114 444.572 210.343 445.063 211.89L442.39 212.627C442.082 211.593 441.558 210.786 440.817 210.207C440.077 209.62 439.116 209.327 437.935 209.327C436.872 209.327 435.985 209.565 435.273 210.042C434.569 210.519 434.038 211.19 433.678 212.055C433.326 212.913 433.147 213.921 433.139 215.08C433.139 216.239 433.315 217.251 433.667 218.116C434.027 218.974 434.562 219.641 435.273 220.118C435.985 220.595 436.872 220.833 437.935 220.833C439.116 220.833 440.077 220.54 440.817 219.953C441.558 219.366 442.082 218.56 442.39 217.533L445.063 218.27C444.572 219.817 443.718 221.049 442.5 221.966C441.283 222.875 439.761 223.33 437.935 223.33ZM447.478 223V207.16H450.129V214.508L456.454 207.16H459.71L452.901 214.926L460.172 223H456.806L450.129 215.608V223H447.478ZM461.943 223V207.16H464.594V223H461.943ZM467.889 223V207.16H470.573L477.921 218.325V207.16H480.605V223H477.921L470.573 211.835V223H467.889ZM490.214 223.33C489.187 223.33 488.223 223.15 487.321 222.791C486.426 222.424 485.638 221.889 484.956 221.185C484.281 220.481 483.753 219.619 483.372 218.6C482.99 217.573 482.8 216.4 482.8 215.08C482.8 213.349 483.122 211.872 483.768 210.647C484.413 209.415 485.297 208.473 486.419 207.82C487.541 207.16 488.806 206.83 490.214 206.83C492.164 206.83 493.708 207.285 494.845 208.194C495.989 209.096 496.762 210.365 497.166 212L494.46 212.429C494.159 211.49 493.668 210.742 492.986 210.185C492.304 209.62 491.435 209.338 490.379 209.338C489.315 209.323 488.432 209.554 487.728 210.031C487.024 210.508 486.492 211.179 486.133 212.044C485.781 212.909 485.605 213.921 485.605 215.08C485.605 216.239 485.781 217.247 486.133 218.105C486.485 218.956 487.013 219.619 487.717 220.096C488.428 220.573 489.315 220.818 490.379 220.833C491.178 220.84 491.878 220.697 492.48 220.404C493.081 220.103 493.572 219.652 493.954 219.051C494.335 218.442 494.592 217.683 494.724 216.774H491.93V214.695H497.54C497.554 214.812 497.565 214.985 497.573 215.212C497.58 215.439 497.584 215.575 497.584 215.619C497.584 217.115 497.287 218.446 496.693 219.612C496.106 220.771 495.263 221.68 494.163 222.34C493.063 223 491.746 223.33 490.214 223.33ZM502.664 218.699C502.664 218.193 502.712 217.705 502.807 217.236C502.91 216.759 503.075 216.319 503.302 215.916C503.5 215.527 503.72 215.219 503.962 214.992C504.204 214.757 504.475 214.526 504.776 214.299C505.077 214.064 505.41 213.753 505.777 213.364C506.078 213.034 506.276 212.708 506.371 212.385C506.466 212.055 506.514 211.703 506.514 211.329C506.514 211.087 506.488 210.86 506.437 210.647C506.386 210.434 506.294 210.251 506.162 210.097C505.957 209.826 505.693 209.635 505.37 209.525C505.047 209.408 504.703 209.349 504.336 209.349C504.035 209.349 503.746 209.389 503.467 209.47C503.196 209.543 502.965 209.661 502.774 209.822C502.554 209.998 502.393 210.214 502.29 210.471C502.187 210.728 502.14 211.01 502.147 211.318H499.353C499.426 210.585 499.624 209.906 499.947 209.283C500.277 208.652 500.71 208.15 501.245 207.776C501.663 207.468 502.132 207.237 502.653 207.083C503.181 206.929 503.709 206.852 504.237 206.852C505.044 206.852 505.803 206.977 506.514 207.226C507.233 207.475 507.83 207.886 508.307 208.458C508.637 208.832 508.886 209.265 509.055 209.756C509.231 210.247 509.319 210.746 509.319 211.252C509.319 212.007 509.154 212.697 508.824 213.32C508.501 213.943 508.091 214.519 507.592 215.047C507.357 215.296 507.134 215.516 506.921 215.707C506.708 215.898 506.51 216.085 506.327 216.268C506.151 216.444 506.004 216.631 505.887 216.829C505.682 217.174 505.561 217.467 505.524 217.709C505.487 217.944 505.469 218.274 505.469 218.699H502.664ZM502.686 223V220.085H505.469V223H502.686Z" fill="white"></path> <rect x="20" y="20" width="173" height="40" rx="20" fill="white" fill-opacity="0.3"></rect> <path d="M33.3544 46V34.48H34.7784V39.56H40.8424V34.48H42.2664V46H40.8424V40.912H34.7784V46H33.3544ZM44.5106 46V34.48H51.7906V35.832H45.9346V39.44H50.8306V40.792H45.9346V44.648H51.7906V46H44.5106ZM52.9138 46L56.7698 34.48H58.7538L62.6098 46H61.1298L57.5218 35.312H57.9698L54.3938 46H52.9138ZM54.7698 43.304V41.968H60.7538V43.304H54.7698ZM64.2019 46V34.48H65.6259V44.648H70.9699V46H64.2019ZM73.6974 46V35.832H69.7694V34.48H79.0494V35.832H75.1214V46H73.6974ZM80.3231 46V34.48H81.7471V39.56H87.8111V34.48H89.2351V46H87.8111V40.912H81.7471V46H80.3231ZM98.4265 46.24C97.7865 46.24 97.1892 46.1467 96.6345 45.96C96.0798 45.7733 95.6158 45.48 95.2425 45.08C94.9545 44.76 94.7385 44.408 94.5945 44.024C94.4558 43.6347 94.3785 43.224 94.3625 42.792C94.3625 42.3707 94.4238 41.96 94.5465 41.56C94.6692 41.1547 94.8638 40.7947 95.1305 40.48C95.2692 40.3093 95.4238 40.1653 95.5945 40.048C95.7705 39.9253 95.9465 39.8213 96.1225 39.736C95.7545 39.3413 95.4718 38.9707 95.2745 38.624C95.0825 38.2773 94.9865 37.8587 94.9865 37.368C94.9865 36.744 95.1465 36.1813 95.4665 35.68C95.7918 35.1733 96.2345 34.8027 96.7945 34.568C97.0665 34.4507 97.3438 34.3707 97.6265 34.328C97.9145 34.28 98.1945 34.256 98.4665 34.256C98.9252 34.256 99.3705 34.32 99.8025 34.448C100.235 34.576 100.603 34.784 100.907 35.072C101.109 35.2427 101.283 35.44 101.427 35.664C101.571 35.8827 101.683 36.112 101.763 36.352L100.371 36.712C100.269 36.44 100.101 36.2107 99.8665 36.024C99.6798 35.864 99.4612 35.7547 99.2105 35.696C98.9652 35.6373 98.7172 35.608 98.4665 35.608C98.0505 35.608 97.6745 35.688 97.3385 35.848C97.0398 35.992 96.8158 36.1947 96.6665 36.456C96.5172 36.712 96.4425 37.016 96.4425 37.368C96.4425 37.672 96.4932 37.9227 96.5945 38.12C96.7012 38.312 96.8478 38.5173 97.0345 38.736C97.1465 38.8533 97.2718 38.9787 97.4105 39.112C97.5545 39.24 97.7012 39.3733 97.8505 39.512L101.243 42.664C101.259 42.5307 101.269 42.3947 101.275 42.256C101.28 42.1173 101.283 41.984 101.283 41.856L101.275 40.264H102.579V42.136C102.579 42.5147 102.565 42.8373 102.539 43.104C102.517 43.3707 102.48 43.592 102.427 43.768L103.891 45.12L102.963 46.112L101.747 44.96C101.539 45.1947 101.291 45.4 101.003 45.576C100.715 45.752 100.427 45.8853 100.139 45.976C99.8665 46.0773 99.5865 46.1467 99.2985 46.184C99.0105 46.2213 98.7198 46.24 98.4265 46.24ZM98.4585 44.872C98.7198 44.872 98.9572 44.856 99.1705 44.824C99.3838 44.792 99.5865 44.7307 99.7785 44.64C100.035 44.5173 100.232 44.4 100.371 44.288C100.509 44.176 100.624 44.072 100.715 43.976L97.2025 40.76C97.0105 40.824 96.8292 40.9093 96.6585 41.016C96.4932 41.1227 96.3492 41.248 96.2265 41.392C96.0878 41.5627 95.9838 41.7627 95.9145 41.992C95.8505 42.2213 95.8185 42.464 95.8185 42.72C95.8238 42.992 95.8692 43.2427 95.9545 43.472C96.0398 43.7013 96.1598 43.9067 96.3145 44.088C96.5492 44.36 96.8665 44.56 97.2665 44.688C97.6665 44.8107 98.0638 44.872 98.4585 44.872ZM108.401 46V34.48H109.697L114.049 43.656L118.377 34.48H119.689V45.992H118.337V37.608L114.425 46H113.665L109.753 37.608V46H108.401ZM121.933 46V34.48H129.213V35.832H123.357V39.44H128.253V40.792H123.357V44.648H129.213V46H121.933ZM131.136 46V34.48H134.688C134.805 34.48 135.01 34.4827 135.304 34.488C135.597 34.4933 135.877 34.5147 136.144 34.552C137.034 34.6693 137.778 34.9947 138.376 35.528C138.978 36.056 139.432 36.728 139.736 37.544C140.04 38.36 140.192 39.2587 140.192 40.24C140.192 41.2213 140.04 42.12 139.736 42.936C139.432 43.752 138.978 44.4267 138.376 44.96C137.778 45.488 137.034 45.8107 136.144 45.928C135.877 45.96 135.594 45.9813 135.296 45.992C135.002 45.9973 134.8 46 134.688 46H131.136ZM132.6 44.64H134.688C134.89 44.64 135.117 44.6347 135.368 44.624C135.618 44.608 135.837 44.584 136.024 44.552C136.653 44.4347 137.162 44.1707 137.552 43.76C137.941 43.3493 138.226 42.8373 138.408 42.224C138.589 41.6107 138.68 40.9493 138.68 40.24C138.68 39.5147 138.586 38.8453 138.4 38.232C138.218 37.6187 137.933 37.1093 137.544 36.704C137.154 36.2987 136.648 36.04 136.024 35.928C135.837 35.8907 135.616 35.8667 135.36 35.856C135.104 35.8453 134.88 35.84 134.688 35.84H132.6V44.64ZM142.186 46V34.48H143.61V46H142.186ZM150.747 46.24C149.6 46.24 148.627 45.9867 147.827 45.48C147.027 44.9733 146.416 44.2693 145.995 43.368C145.579 42.4667 145.371 41.424 145.371 40.24C145.371 39.056 145.579 38.0133 145.995 37.112C146.416 36.2107 147.027 35.5067 147.827 35C148.627 34.4933 149.6 34.24 150.747 34.24C152.08 34.24 153.176 34.5787 154.035 35.256C154.899 35.9333 155.493 36.8453 155.819 37.992L154.371 38.376C154.136 37.5173 153.717 36.84 153.115 36.344C152.512 35.848 151.723 35.6 150.747 35.6C149.888 35.6 149.173 35.7947 148.603 36.184C148.032 36.5733 147.603 37.1173 147.315 37.816C147.027 38.5093 146.88 39.3173 146.875 40.24C146.869 41.1573 147.011 41.9653 147.299 42.664C147.587 43.3573 148.019 43.9013 148.595 44.296C149.171 44.6853 149.888 44.88 150.747 44.88C151.723 44.88 152.512 44.632 153.115 44.136C153.717 43.6347 154.136 42.9573 154.371 42.104L155.819 42.488C155.493 43.6293 154.899 44.5413 154.035 45.224C153.176 45.9013 152.08 46.24 150.747 46.24ZM157.733 46V34.48H159.157V46H157.733ZM161.558 46V34.48H162.998L169.006 43.48V34.48H170.446V46H169.006L162.998 36.992V46H161.558ZM172.683 46V34.48H179.963V35.832H174.107V39.44H179.003V40.792H174.107V44.648H179.963V46H172.683Z" fill="white"></path> <defs> <linearGradient id="paint0_linear_131_159" x1="300" y1="0" x2="300" y2="400" gradientUnits="userSpaceOnUse"> <stop stop-color="#0BA360"></stop> <stop offset="1" stop-color="#3CBA92"></stop> </linearGradient> </defs> </svg> 