<?xml version="1.0" encoding="UTF-8"?> <svg xmlns="http://www.w3.org/2000/svg" width="600" height="400" viewBox="0 0 600 400" fill="none"> <rect width="600" height="400" rx="20" fill="url(#paint0_linear_131_172)"></rect> <path d="M115.464 194V178.16H120.513C120.645 178.16 120.905 178.164 121.294 178.171C121.69 178.178 122.071 178.204 122.438 178.248C123.692 178.409 124.751 178.857 125.617 179.59C126.489 180.316 127.149 181.244 127.597 182.373C128.044 183.502 128.268 184.738 128.268 186.08C128.268 187.422 128.044 188.658 127.597 189.787C127.149 190.916 126.489 191.848 125.617 192.581C124.751 193.307 123.692 193.751 122.438 193.912C122.078 193.956 121.701 193.982 121.305 193.989C120.909 193.996 120.645 194 120.513 194H115.464ZM118.159 191.503H120.513C120.733 191.503 121.011 191.496 121.349 191.481C121.693 191.466 121.998 191.433 122.262 191.382C123.01 191.243 123.618 190.909 124.088 190.381C124.557 189.853 124.902 189.211 125.122 188.456C125.349 187.701 125.463 186.909 125.463 186.08C125.463 185.222 125.349 184.415 125.122 183.66C124.894 182.905 124.542 182.27 124.066 181.757C123.596 181.244 122.995 180.917 122.262 180.778C121.998 180.719 121.693 180.686 121.349 180.679C121.011 180.664 120.733 180.657 120.513 180.657H118.159V191.503ZM137.567 194.33C135.983 194.33 134.626 193.985 133.497 193.296C132.368 192.599 131.499 191.631 130.89 190.392C130.289 189.153 129.988 187.715 129.988 186.08C129.988 184.445 130.289 183.007 130.89 181.768C131.499 180.529 132.368 179.564 133.497 178.875C134.626 178.178 135.983 177.83 137.567 177.83C139.151 177.83 140.508 178.178 141.637 178.875C142.774 179.564 143.643 180.529 144.244 181.768C144.853 183.007 145.157 184.445 145.157 186.08C145.157 187.715 144.853 189.153 144.244 190.392C143.643 191.631 142.774 192.599 141.637 193.296C140.508 193.985 139.151 194.33 137.567 194.33ZM137.567 191.833C138.63 191.84 139.514 191.606 140.218 191.129C140.929 190.652 141.461 189.981 141.813 189.116C142.172 188.251 142.352 187.239 142.352 186.08C142.352 184.921 142.172 183.917 141.813 183.066C141.461 182.208 140.929 181.541 140.218 181.064C139.514 180.587 138.63 180.342 137.567 180.327C136.504 180.32 135.62 180.554 134.916 181.031C134.212 181.508 133.68 182.179 133.321 183.044C132.969 183.909 132.793 184.921 132.793 186.08C132.793 187.239 132.969 188.247 133.321 189.105C133.673 189.956 134.201 190.619 134.905 191.096C135.616 191.573 136.504 191.818 137.567 191.833ZM155.601 194V187.51L150.211 178.16H153.302L156.943 184.474L160.573 178.16H163.664L158.285 187.51V194H155.601ZM171.018 194.33C169.434 194.33 168.078 193.985 166.948 193.296C165.819 192.599 164.95 191.631 164.341 190.392C163.74 189.153 163.439 187.715 163.439 186.08C163.439 184.445 163.74 183.007 164.341 181.768C164.95 180.529 165.819 179.564 166.948 178.875C168.078 178.178 169.434 177.83 171.018 177.83C172.602 177.83 173.959 178.178 175.088 178.875C176.225 179.564 177.094 180.529 177.695 181.768C178.304 183.007 178.608 184.445 178.608 186.08C178.608 187.715 178.304 189.153 177.695 190.392C177.094 191.631 176.225 192.599 175.088 193.296C173.959 193.985 172.602 194.33 171.018 194.33ZM171.018 191.833C172.082 191.84 172.965 191.606 173.669 191.129C174.381 190.652 174.912 189.981 175.264 189.116C175.624 188.251 175.803 187.239 175.803 186.08C175.803 184.921 175.624 183.917 175.264 183.066C174.912 182.208 174.381 181.541 173.669 181.064C172.965 180.587 172.082 180.342 171.018 180.327C169.955 180.32 169.071 180.554 168.367 181.031C167.663 181.508 167.132 182.179 166.772 183.044C166.42 183.909 166.244 184.921 166.244 186.08C166.244 187.239 166.42 188.247 166.772 189.105C167.124 189.956 167.652 190.619 168.356 191.096C169.068 191.573 169.955 191.818 171.018 191.833ZM187.178 194.33C185.916 194.33 184.805 194.073 183.845 193.56C182.891 193.047 182.143 192.324 181.601 191.393C181.065 190.462 180.798 189.369 180.798 188.115V178.182L183.482 178.16V188.049C183.482 188.643 183.581 189.175 183.779 189.644C183.984 190.113 184.259 190.513 184.604 190.843C184.948 191.166 185.344 191.411 185.792 191.58C186.239 191.749 186.701 191.833 187.178 191.833C187.669 191.833 188.135 191.749 188.575 191.58C189.022 191.404 189.418 191.155 189.763 190.832C190.107 190.502 190.379 190.102 190.577 189.633C190.775 189.164 190.874 188.636 190.874 188.049V178.16H193.558V188.115C193.558 189.369 193.286 190.462 192.744 191.393C192.208 192.324 191.46 193.047 190.5 193.56C189.546 194.073 188.439 194.33 187.178 194.33ZM201.036 194V178.16H206.085C206.217 178.16 206.477 178.164 206.866 178.171C207.262 178.178 207.643 178.204 208.01 178.248C209.264 178.409 210.324 178.857 211.189 179.59C212.062 180.316 212.722 181.244 213.169 182.373C213.616 183.502 213.84 184.738 213.84 186.08C213.84 187.422 213.616 188.658 213.169 189.787C212.722 190.916 212.062 191.848 211.189 192.581C210.324 193.307 209.264 193.751 208.01 193.912C207.651 193.956 207.273 193.982 206.877 193.989C206.481 193.996 206.217 194 206.085 194H201.036ZM203.731 191.503H206.085C206.305 191.503 206.584 191.496 206.921 191.481C207.266 191.466 207.57 191.433 207.834 191.382C208.582 191.243 209.191 190.909 209.66 190.381C210.129 189.853 210.474 189.211 210.694 188.456C210.921 187.701 211.035 186.909 211.035 186.08C211.035 185.222 210.921 184.415 210.694 183.66C210.467 182.905 210.115 182.27 209.638 181.757C209.169 181.244 208.567 180.917 207.834 180.778C207.57 180.719 207.266 180.686 206.921 180.679C206.584 180.664 206.305 180.657 206.085 180.657H203.731V191.503ZM223.139 194.33C221.555 194.33 220.199 193.985 219.069 193.296C217.94 192.599 217.071 191.631 216.462 190.392C215.861 189.153 215.56 187.715 215.56 186.08C215.56 184.445 215.861 183.007 216.462 181.768C217.071 180.529 217.94 179.564 219.069 178.875C220.199 178.178 221.555 177.83 223.139 177.83C224.723 177.83 226.08 178.178 227.209 178.875C228.346 179.564 229.215 180.529 229.816 181.768C230.425 183.007 230.729 184.445 230.729 186.08C230.729 187.715 230.425 189.153 229.816 190.392C229.215 191.631 228.346 192.599 227.209 193.296C226.08 193.985 224.723 194.33 223.139 194.33ZM223.139 191.833C224.203 191.84 225.086 191.606 225.79 191.129C226.502 190.652 227.033 189.981 227.385 189.116C227.745 188.251 227.924 187.239 227.924 186.08C227.924 184.921 227.745 183.917 227.385 183.066C227.033 182.208 226.502 181.541 225.79 181.064C225.086 180.587 224.203 180.342 223.139 180.327C222.076 180.32 221.192 180.554 220.488 181.031C219.784 181.508 219.253 182.179 218.893 183.044C218.541 183.909 218.365 184.921 218.365 186.08C218.365 187.239 218.541 188.247 218.893 189.105C219.245 189.956 219.773 190.619 220.477 191.096C221.189 191.573 222.076 191.818 223.139 191.833ZM244.022 194.33C242.438 194.33 241.082 193.985 239.952 193.296C238.823 192.599 237.954 191.631 237.345 190.392C236.744 189.153 236.443 187.715 236.443 186.08C236.443 184.445 236.744 183.007 237.345 181.768C237.954 180.529 238.823 179.564 239.952 178.875C241.082 178.178 242.438 177.83 244.022 177.83C245.848 177.83 247.37 178.288 248.587 179.205C249.805 180.114 250.659 181.343 251.15 182.89L248.477 183.627C248.169 182.593 247.645 181.786 246.904 181.207C246.164 180.62 245.203 180.327 244.022 180.327C242.959 180.327 242.072 180.565 241.36 181.042C240.656 181.519 240.125 182.19 239.765 183.055C239.413 183.913 239.234 184.921 239.226 186.08C239.226 187.239 239.402 188.251 239.754 189.116C240.114 189.974 240.649 190.641 241.36 191.118C242.072 191.595 242.959 191.833 244.022 191.833C245.203 191.833 246.164 191.54 246.904 190.953C247.645 190.366 248.169 189.56 248.477 188.533L251.15 189.27C250.659 190.817 249.805 192.049 248.587 192.966C247.37 193.875 245.848 194.33 244.022 194.33ZM253.565 194V178.16H256.216V184.826H263.718V178.16H266.358V194H263.718V187.312H256.216V194H253.565ZM269.442 194V178.16H279.672V180.646H272.093V184.551H278.352V187.037H272.093V191.514H279.672V194H269.442ZM288.452 194.33C286.868 194.33 285.511 193.985 284.382 193.296C283.253 192.599 282.384 191.631 281.775 190.392C281.174 189.153 280.873 187.715 280.873 186.08C280.873 184.445 281.174 183.007 281.775 181.768C282.384 180.529 283.253 179.564 284.382 178.875C285.511 178.178 286.868 177.83 288.452 177.83C290.278 177.83 291.8 178.288 293.017 179.205C294.234 180.114 295.089 181.343 295.58 182.89L292.907 183.627C292.599 182.593 292.075 181.786 291.334 181.207C290.593 180.62 289.633 180.327 288.452 180.327C287.389 180.327 286.501 180.565 285.79 181.042C285.086 181.519 284.554 182.19 284.195 183.055C283.843 183.913 283.663 184.921 283.656 186.08C283.656 187.239 283.832 188.251 284.184 189.116C284.543 189.974 285.079 190.641 285.79 191.118C286.501 191.595 287.389 191.833 288.452 191.833C289.633 191.833 290.593 191.54 291.334 190.953C292.075 190.366 292.599 189.56 292.907 188.533L295.58 189.27C295.089 190.817 294.234 192.049 293.017 192.966C291.8 193.875 290.278 194.33 288.452 194.33ZM297.995 194V178.16H300.646V185.508L306.971 178.16H310.227L303.418 185.926L310.689 194H307.323L300.646 186.608V194H297.995ZM318.619 194.33C317.358 194.33 316.247 194.073 315.286 193.56C314.333 193.047 313.585 192.324 313.042 191.393C312.507 190.462 312.239 189.369 312.239 188.115V178.182L314.923 178.16V188.049C314.923 188.643 315.022 189.175 315.22 189.644C315.426 190.113 315.701 190.513 316.045 190.843C316.39 191.166 316.786 191.411 317.233 191.58C317.681 191.749 318.143 191.833 318.619 191.833C319.111 191.833 319.576 191.749 320.016 191.58C320.464 191.404 320.86 191.155 321.204 190.832C321.549 190.502 321.82 190.102 322.018 189.633C322.216 189.164 322.315 188.636 322.315 188.049V178.16H324.999V188.115C324.999 189.369 324.728 190.462 324.185 191.393C323.65 192.324 322.902 193.047 321.941 193.56C320.988 194.073 319.881 194.33 318.619 194.33ZM328.073 194V178.16H334.618C334.772 178.16 334.97 178.167 335.212 178.182C335.454 178.189 335.678 178.211 335.883 178.248C336.8 178.387 337.555 178.692 338.149 179.161C338.751 179.63 339.194 180.224 339.48 180.943C339.774 181.654 339.92 182.446 339.92 183.319C339.92 184.184 339.774 184.976 339.48 185.695C339.187 186.406 338.74 186.997 338.138 187.466C337.544 187.935 336.793 188.24 335.883 188.379C335.678 188.408 335.451 188.43 335.201 188.445C334.959 188.46 334.765 188.467 334.618 188.467H330.724V194H328.073ZM330.724 185.992H334.508C334.655 185.992 334.82 185.985 335.003 185.97C335.187 185.955 335.355 185.926 335.509 185.882C335.949 185.772 336.294 185.578 336.543 185.299C336.8 185.02 336.98 184.705 337.082 184.353C337.192 184.001 337.247 183.656 337.247 183.319C337.247 182.982 337.192 182.637 337.082 182.285C336.98 181.926 336.8 181.607 336.543 181.328C336.294 181.049 335.949 180.855 335.509 180.745C335.355 180.701 335.187 180.675 335.003 180.668C334.82 180.653 334.655 180.646 334.508 180.646H330.724V185.992ZM347.987 194.33C346.828 194.33 345.783 194.128 344.852 193.725C343.928 193.322 343.165 192.746 342.564 191.998C341.97 191.243 341.592 190.348 341.431 189.314L344.181 188.896C344.416 189.835 344.896 190.561 345.622 191.074C346.355 191.587 347.199 191.844 348.152 191.844C348.717 191.844 349.248 191.756 349.747 191.58C350.246 191.404 350.649 191.147 350.957 190.81C351.272 190.473 351.43 190.058 351.43 189.567C351.43 189.347 351.393 189.145 351.32 188.962C351.247 188.771 351.137 188.603 350.99 188.456C350.851 188.309 350.667 188.177 350.44 188.06C350.22 187.935 349.963 187.829 349.67 187.741L345.578 186.531C345.226 186.428 344.845 186.293 344.434 186.124C344.031 185.948 343.646 185.71 343.279 185.409C342.92 185.101 342.623 184.712 342.388 184.243C342.161 183.766 342.047 183.18 342.047 182.483C342.047 181.464 342.304 180.609 342.817 179.92C343.338 179.223 344.034 178.703 344.907 178.358C345.787 178.013 346.762 177.845 347.833 177.852C348.918 177.859 349.886 178.046 350.737 178.413C351.588 178.772 352.299 179.297 352.871 179.986C353.443 180.675 353.846 181.508 354.081 182.483L351.232 182.978C351.115 182.421 350.887 181.948 350.55 181.559C350.22 181.163 349.813 180.862 349.329 180.657C348.852 180.452 348.343 180.342 347.8 180.327C347.272 180.32 346.781 180.4 346.326 180.569C345.879 180.73 345.516 180.965 345.237 181.273C344.966 181.581 344.83 181.94 344.83 182.351C344.83 182.74 344.947 183.059 345.182 183.308C345.417 183.55 345.706 183.744 346.051 183.891C346.403 184.03 346.759 184.148 347.118 184.243L349.956 185.035C350.345 185.138 350.781 185.277 351.265 185.453C351.749 185.629 352.215 185.875 352.662 186.19C353.109 186.505 353.476 186.92 353.762 187.433C354.055 187.946 354.202 188.599 354.202 189.391C354.202 190.212 354.03 190.935 353.685 191.558C353.348 192.174 352.889 192.687 352.31 193.098C351.731 193.509 351.067 193.817 350.319 194.022C349.578 194.227 348.801 194.33 347.987 194.33ZM360.987 194V178.16H371.217V180.646H363.638V184.551H369.897V187.037H363.638V191.514H371.217V194H360.987ZM377.42 194L372.426 178.16H375.154L379.334 191.426L383.569 178.16H386.297L381.303 194H377.42ZM387.95 194V178.16H398.18V180.646H390.601V184.551H396.86V187.037H390.601V191.514H398.18V194H387.95ZM400.819 194V178.16H407.364C407.518 178.16 407.716 178.167 407.958 178.182C408.2 178.189 408.424 178.211 408.629 178.248C409.546 178.387 410.301 178.692 410.895 179.161C411.497 179.63 411.94 180.224 412.226 180.943C412.52 181.654 412.666 182.446 412.666 183.319C412.666 184.61 412.34 185.721 411.687 186.652C411.035 187.576 410.034 188.148 408.684 188.368L407.551 188.467H403.47V194H400.819ZM409.916 194L406.792 187.554L409.487 186.96L412.919 194H409.916ZM403.47 185.992H407.254C407.401 185.992 407.566 185.985 407.749 185.97C407.933 185.955 408.101 185.926 408.255 185.882C408.695 185.772 409.04 185.578 409.289 185.299C409.546 185.02 409.726 184.705 409.828 184.353C409.938 184.001 409.993 183.656 409.993 183.319C409.993 182.982 409.938 182.637 409.828 182.285C409.726 181.926 409.546 181.607 409.289 181.328C409.04 181.049 408.695 180.855 408.255 180.745C408.101 180.701 407.933 180.675 407.749 180.668C407.566 180.653 407.401 180.646 407.254 180.646H403.47V185.992ZM418.892 194V187.51L413.502 178.16H416.593L420.234 184.474L423.864 178.16H426.955L421.576 187.51V194H418.892ZM435.865 194V187.51L430.475 178.16H433.566L437.207 184.474L440.837 178.16H443.928L438.549 187.51V194H435.865ZM445.464 194V178.16H455.694V180.646H448.115V184.551H454.374V187.037H448.115V191.514H455.694V194H445.464ZM457.233 194L462.227 178.16H466.11L471.104 194H468.376L463.844 179.788H464.438L459.961 194H457.233ZM460.016 190.568V188.093H468.332V190.568H460.016ZM473.093 194V178.16H479.638C479.792 178.16 479.99 178.167 480.232 178.182C480.474 178.189 480.697 178.211 480.903 178.248C481.819 178.387 482.575 178.692 483.169 179.161C483.77 179.63 484.214 180.224 484.5 180.943C484.793 181.654 484.94 182.446 484.94 183.319C484.94 184.61 484.613 185.721 483.961 186.652C483.308 187.576 482.307 188.148 480.958 188.368L479.825 188.467H475.744V194H473.093ZM482.19 194L479.066 187.554L481.761 186.96L485.193 194H482.19ZM475.744 185.992H479.528C479.674 185.992 479.839 185.985 480.023 185.97C480.206 185.955 480.375 185.926 480.529 185.882C480.969 185.772 481.313 185.578 481.563 185.299C481.819 185.02 481.999 184.705 482.102 184.353C482.212 184.001 482.267 183.656 482.267 183.319C482.267 182.982 482.212 182.637 482.102 182.285C481.999 181.926 481.819 181.607 481.563 181.328C481.313 181.049 480.969 180.855 480.529 180.745C480.375 180.701 480.206 180.675 480.023 180.668C479.839 180.653 479.674 180.646 479.528 180.646H475.744V185.992ZM116.77 223.33C115.186 223.33 113.83 222.985 112.7 222.296C111.571 221.599 110.702 220.631 110.093 219.392C109.492 218.153 109.191 216.715 109.191 215.08C109.191 213.445 109.492 212.007 110.093 210.768C110.702 209.529 111.571 208.564 112.7 207.875C113.83 207.178 115.186 206.83 116.77 206.83C118.354 206.83 119.711 207.178 120.84 207.875C121.977 208.564 122.846 209.529 123.447 210.768C124.056 212.007 124.36 213.445 124.36 215.08C124.36 216.715 124.056 218.153 123.447 219.392C122.846 220.631 121.977 221.599 120.84 222.296C119.711 222.985 118.354 223.33 116.77 223.33ZM116.77 220.833C117.834 220.84 118.717 220.606 119.421 220.129C120.133 219.652 120.664 218.981 121.016 218.116C121.376 217.251 121.555 216.239 121.555 215.08C121.555 213.921 121.376 212.917 121.016 212.066C120.664 211.208 120.133 210.541 119.421 210.064C118.717 209.587 117.834 209.342 116.77 209.327C115.707 209.32 114.823 209.554 114.119 210.031C113.415 210.508 112.884 211.179 112.524 212.044C112.172 212.909 111.996 213.921 111.996 215.08C111.996 216.239 112.172 217.247 112.524 218.105C112.876 218.956 113.404 219.619 114.108 220.096C114.82 220.573 115.707 220.818 116.77 220.833ZM126.55 223V207.16H133.095C133.249 207.16 133.447 207.167 133.689 207.182C133.931 207.189 134.154 207.211 134.36 207.248C135.276 207.387 136.032 207.692 136.626 208.161C137.227 208.63 137.671 209.224 137.957 209.943C138.25 210.654 138.397 211.446 138.397 212.319C138.397 213.61 138.07 214.721 137.418 215.652C136.765 216.576 135.764 217.148 134.415 217.368L133.282 217.467H129.201V223H126.55ZM135.647 223L132.523 216.554L135.218 215.96L138.65 223H135.647ZM129.201 214.992H132.985C133.131 214.992 133.296 214.985 133.48 214.97C133.663 214.955 133.832 214.926 133.986 214.882C134.426 214.772 134.77 214.578 135.02 214.299C135.276 214.02 135.456 213.705 135.559 213.353C135.669 213.001 135.724 212.656 135.724 212.319C135.724 211.982 135.669 211.637 135.559 211.285C135.456 210.926 135.276 210.607 135.02 210.328C134.77 210.049 134.426 209.855 133.986 209.745C133.832 209.701 133.663 209.675 133.48 209.668C133.296 209.653 133.131 209.646 132.985 209.646H129.201V214.992ZM149.042 223L144.048 207.16H146.776L150.956 220.426L155.191 207.16H157.919L152.925 223H149.042ZM159.791 223V207.16H162.442V223H159.791ZM171.6 223.33C170.442 223.33 169.397 223.128 168.465 222.725C167.541 222.322 166.779 221.746 166.177 220.998C165.583 220.243 165.206 219.348 165.044 218.314L167.794 217.896C168.029 218.835 168.509 219.561 169.235 220.074C169.969 220.587 170.812 220.844 171.765 220.844C172.33 220.844 172.862 220.756 173.36 220.58C173.859 220.404 174.262 220.147 174.57 219.81C174.886 219.473 175.043 219.058 175.043 218.567C175.043 218.347 175.007 218.145 174.933 217.962C174.86 217.771 174.75 217.603 174.603 217.456C174.464 217.309 174.281 217.177 174.053 217.06C173.833 216.935 173.577 216.829 173.283 216.741L169.191 215.531C168.839 215.428 168.458 215.293 168.047 215.124C167.644 214.948 167.259 214.71 166.892 214.409C166.533 214.101 166.236 213.712 166.001 213.243C165.774 212.766 165.66 212.18 165.66 211.483C165.66 210.464 165.917 209.609 166.43 208.92C166.951 208.223 167.648 207.703 168.52 207.358C169.4 207.013 170.376 206.845 171.446 206.852C172.532 206.859 173.5 207.046 174.35 207.413C175.201 207.772 175.912 208.297 176.484 208.986C177.056 209.675 177.46 210.508 177.694 211.483L174.845 211.978C174.728 211.421 174.501 210.948 174.163 210.559C173.833 210.163 173.426 209.862 172.942 209.657C172.466 209.452 171.956 209.342 171.413 209.327C170.885 209.32 170.394 209.4 169.939 209.569C169.492 209.73 169.129 209.965 168.85 210.273C168.579 210.581 168.443 210.94 168.443 211.351C168.443 211.74 168.561 212.059 168.795 212.308C169.03 212.55 169.32 212.744 169.664 212.891C170.016 213.03 170.372 213.148 170.731 213.243L173.569 214.035C173.958 214.138 174.394 214.277 174.878 214.453C175.362 214.629 175.828 214.875 176.275 215.19C176.723 215.505 177.089 215.92 177.375 216.433C177.669 216.946 177.815 217.599 177.815 218.391C177.815 219.212 177.643 219.935 177.298 220.558C176.961 221.174 176.503 221.687 175.923 222.098C175.344 222.509 174.68 222.817 173.932 223.022C173.192 223.227 172.414 223.33 171.6 223.33ZM180.416 223V207.16H183.067V223H180.416ZM190.168 223V209.646H185.042V207.16H197.945V209.646H192.819V223H190.168ZM203.442 223V207.16H208.491C208.623 207.16 208.884 207.164 209.272 207.171C209.668 207.178 210.05 207.204 210.416 207.248C211.67 207.409 212.73 207.857 213.595 208.59C214.468 209.316 215.128 210.244 215.575 211.373C216.023 212.502 216.246 213.738 216.246 215.08C216.246 216.422 216.023 217.658 215.575 218.787C215.128 219.916 214.468 220.848 213.595 221.581C212.73 222.307 211.67 222.751 210.416 222.912C210.057 222.956 209.679 222.982 209.283 222.989C208.887 222.996 208.623 223 208.491 223H203.442ZM206.137 220.503H208.491C208.711 220.503 208.99 220.496 209.327 220.481C209.672 220.466 209.976 220.433 210.24 220.382C210.988 220.243 211.597 219.909 212.066 219.381C212.536 218.853 212.88 218.211 213.1 217.456C213.328 216.701 213.441 215.909 213.441 215.08C213.441 214.222 213.328 213.415 213.1 212.66C212.873 211.905 212.521 211.27 212.044 210.757C211.575 210.244 210.974 209.917 210.24 209.778C209.976 209.719 209.672 209.686 209.327 209.679C208.99 209.664 208.711 209.657 208.491 209.657H206.137V220.503ZM225.546 223.33C223.962 223.33 222.605 222.985 221.476 222.296C220.346 221.599 219.477 220.631 218.869 219.392C218.267 218.153 217.967 216.715 217.967 215.08C217.967 213.445 218.267 212.007 218.869 210.768C219.477 209.529 220.346 208.564 221.476 207.875C222.605 207.178 223.962 206.83 225.546 206.83C227.13 206.83 228.486 207.178 229.616 207.875C230.752 208.564 231.621 209.529 232.223 210.768C232.831 212.007 233.136 213.445 233.136 215.08C233.136 216.715 232.831 218.153 232.223 219.392C231.621 220.631 230.752 221.599 229.616 222.296C228.486 222.985 227.13 223.33 225.546 223.33ZM225.546 220.833C226.609 220.84 227.493 220.606 228.197 220.129C228.908 219.652 229.44 218.981 229.792 218.116C230.151 217.251 230.331 216.239 230.331 215.08C230.331 213.921 230.151 212.917 229.792 212.066C229.44 211.208 228.908 210.541 228.197 210.064C227.493 209.587 226.609 209.342 225.546 209.327C224.482 209.32 223.599 209.554 222.895 210.031C222.191 210.508 221.659 211.179 221.3 212.044C220.948 212.909 220.772 213.921 220.772 215.08C220.772 216.239 220.948 217.247 221.3 218.105C221.652 218.956 222.18 219.619 222.884 220.096C223.595 220.573 224.482 220.818 225.546 220.833ZM242.024 223.33C240.44 223.33 239.083 222.985 237.954 222.296C236.825 221.599 235.956 220.631 235.347 219.392C234.746 218.153 234.445 216.715 234.445 215.08C234.445 213.445 234.746 212.007 235.347 210.768C235.956 209.529 236.825 208.564 237.954 207.875C239.083 207.178 240.44 206.83 242.024 206.83C243.85 206.83 245.372 207.288 246.589 208.205C247.806 209.114 248.661 210.343 249.152 211.89L246.479 212.627C246.171 211.593 245.647 210.786 244.906 210.207C244.165 209.62 243.205 209.327 242.024 209.327C240.961 209.327 240.073 209.565 239.362 210.042C238.658 210.519 238.126 211.19 237.767 212.055C237.415 212.913 237.235 213.921 237.228 215.08C237.228 216.239 237.404 217.251 237.756 218.116C238.115 218.974 238.651 219.641 239.362 220.118C240.073 220.595 240.961 220.833 242.024 220.833C243.205 220.833 244.165 220.54 244.906 219.953C245.647 219.366 246.171 218.56 246.479 217.533L249.152 218.27C248.661 219.817 247.806 221.049 246.589 221.966C245.372 222.875 243.85 223.33 242.024 223.33ZM255.373 223V209.646H250.247V207.16H263.15V209.646H258.024V223H255.373ZM271.608 223.33C270.024 223.33 268.667 222.985 267.538 222.296C266.409 221.599 265.54 220.631 264.931 219.392C264.33 218.153 264.029 216.715 264.029 215.08C264.029 213.445 264.33 212.007 264.931 210.768C265.54 209.529 266.409 208.564 267.538 207.875C268.667 207.178 270.024 206.83 271.608 206.83C273.192 206.83 274.549 207.178 275.678 207.875C276.815 208.564 277.684 209.529 278.285 210.768C278.894 212.007 279.198 213.445 279.198 215.08C279.198 216.715 278.894 218.153 278.285 219.392C277.684 220.631 276.815 221.599 275.678 222.296C274.549 222.985 273.192 223.33 271.608 223.33ZM271.608 220.833C272.671 220.84 273.555 220.606 274.259 220.129C274.97 219.652 275.502 218.981 275.854 218.116C276.213 217.251 276.393 216.239 276.393 215.08C276.393 213.921 276.213 212.917 275.854 212.066C275.502 211.208 274.97 210.541 274.259 210.064C273.555 209.587 272.671 209.342 271.608 209.327C270.545 209.32 269.661 209.554 268.957 210.031C268.253 210.508 267.721 211.179 267.362 212.044C267.01 212.909 266.834 213.921 266.834 215.08C266.834 216.239 267.01 217.247 267.362 218.105C267.714 218.956 268.242 219.619 268.946 220.096C269.657 220.573 270.545 220.818 271.608 220.833ZM281.388 223V207.16H287.933C288.087 207.16 288.285 207.167 288.527 207.182C288.769 207.189 288.992 207.211 289.198 207.248C290.114 207.387 290.87 207.692 291.464 208.161C292.065 208.63 292.509 209.224 292.795 209.943C293.088 210.654 293.235 211.446 293.235 212.319C293.235 213.61 292.908 214.721 292.256 215.652C291.603 216.576 290.602 217.148 289.253 217.368L288.12 217.467H284.039V223H281.388ZM290.485 223L287.361 216.554L290.056 215.96L293.488 223H290.485ZM284.039 214.992H287.823C287.969 214.992 288.134 214.985 288.318 214.97C288.501 214.955 288.67 214.926 288.824 214.882C289.264 214.772 289.608 214.578 289.858 214.299C290.114 214.02 290.294 213.705 290.397 213.353C290.507 213.001 290.562 212.656 290.562 212.319C290.562 211.982 290.507 211.637 290.397 211.285C290.294 210.926 290.114 210.607 289.858 210.328C289.608 210.049 289.264 209.855 288.824 209.745C288.67 209.701 288.501 209.675 288.318 209.668C288.134 209.653 287.969 209.646 287.823 209.646H284.039V214.992ZM301.774 223.33C300.615 223.33 299.57 223.128 298.639 222.725C297.715 222.322 296.952 221.746 296.351 220.998C295.757 220.243 295.379 219.348 295.218 218.314L297.968 217.896C298.203 218.835 298.683 219.561 299.409 220.074C300.142 220.587 300.986 220.844 301.939 220.844C302.504 220.844 303.035 220.756 303.534 220.58C304.033 220.404 304.436 220.147 304.744 219.81C305.059 219.473 305.217 219.058 305.217 218.567C305.217 218.347 305.18 218.145 305.107 217.962C305.034 217.771 304.924 217.603 304.777 217.456C304.638 217.309 304.454 217.177 304.227 217.06C304.007 216.935 303.75 216.829 303.457 216.741L299.365 215.531C299.013 215.428 298.632 215.293 298.221 215.124C297.818 214.948 297.433 214.71 297.066 214.409C296.707 214.101 296.41 213.712 296.175 213.243C295.948 212.766 295.834 212.18 295.834 211.483C295.834 210.464 296.091 209.609 296.604 208.92C297.125 208.223 297.821 207.703 298.694 207.358C299.574 207.013 300.549 206.845 301.62 206.852C302.705 206.859 303.673 207.046 304.524 207.413C305.375 207.772 306.086 208.297 306.658 208.986C307.23 209.675 307.633 210.508 307.868 211.483L305.019 211.978C304.902 211.421 304.674 210.948 304.337 210.559C304.007 210.163 303.6 209.862 303.116 209.657C302.639 209.452 302.13 209.342 301.587 209.327C301.059 209.32 300.568 209.4 300.113 209.569C299.666 209.73 299.303 209.965 299.024 210.273C298.753 210.581 298.617 210.94 298.617 211.351C298.617 211.74 298.734 212.059 298.969 212.308C299.204 212.55 299.493 212.744 299.838 212.891C300.19 213.03 300.546 213.148 300.905 213.243L303.743 214.035C304.132 214.138 304.568 214.277 305.052 214.453C305.536 214.629 306.002 214.875 306.449 215.19C306.896 215.505 307.263 215.92 307.549 216.433C307.842 216.946 307.989 217.599 307.989 218.391C307.989 219.212 307.817 219.935 307.472 220.558C307.135 221.174 306.676 221.687 306.097 222.098C305.518 222.509 304.854 222.817 304.106 223.022C303.365 223.227 302.588 223.33 301.774 223.33ZM321.473 223.33C319.889 223.33 318.533 222.985 317.403 222.296C316.274 221.599 315.405 220.631 314.796 219.392C314.195 218.153 313.894 216.715 313.894 215.08C313.894 213.445 314.195 212.007 314.796 210.768C315.405 209.529 316.274 208.564 317.403 207.875C318.533 207.178 319.889 206.83 321.473 206.83C323.057 206.83 324.414 207.178 325.543 207.875C326.68 208.564 327.549 209.529 328.15 210.768C328.759 212.007 329.063 213.445 329.063 215.08C329.063 216.715 328.759 218.153 328.15 219.392C327.549 220.631 326.68 221.599 325.543 222.296C324.414 222.985 323.057 223.33 321.473 223.33ZM321.473 220.833C322.537 220.84 323.42 220.606 324.124 220.129C324.836 219.652 325.367 218.981 325.719 218.116C326.079 217.251 326.258 216.239 326.258 215.08C326.258 213.921 326.079 212.917 325.719 212.066C325.367 211.208 324.836 210.541 324.124 210.064C323.42 209.587 322.537 209.342 321.473 209.327C320.41 209.32 319.526 209.554 318.822 210.031C318.118 210.508 317.587 211.179 317.227 212.044C316.875 212.909 316.699 213.921 316.699 215.08C316.699 216.239 316.875 217.247 317.227 218.105C317.579 218.956 318.107 219.619 318.811 220.096C319.523 220.573 320.41 220.818 321.473 220.833ZM331.253 223V207.16H333.937L341.285 218.325V207.16H343.969V223H341.285L333.937 211.835V223H331.253ZM347.264 223V207.16H349.915V220.514H356.911V223H347.264ZM360.433 223V216.51L355.043 207.16H358.134L361.775 213.474L365.405 207.16H368.496L363.117 216.51V223H360.433ZM373.776 223V207.16H376.427V223H373.776ZM379.722 223V207.16H389.259V209.811H382.373V213.76H387.939V216.4H382.373V223H379.722ZM395.642 223V207.16H398.326L405.674 218.325V207.16H408.358V223H405.674L398.326 211.835V223H395.642ZM411.433 223V207.16H421.663V209.646H414.084V213.551H420.343V216.037H414.084V220.514H421.663V223H411.433ZM424.302 223V207.16H434.532V209.646H426.953V213.551H433.212V216.037H426.953V220.514H434.532V223H424.302ZM437.171 223V207.16H442.22C442.352 207.16 442.612 207.164 443.001 207.171C443.397 207.178 443.778 207.204 444.145 207.248C445.399 207.409 446.459 207.857 447.324 208.59C448.197 209.316 448.857 210.244 449.304 211.373C449.751 212.502 449.975 213.738 449.975 215.08C449.975 216.422 449.751 217.658 449.304 218.787C448.857 219.916 448.197 220.848 447.324 221.581C446.459 222.307 445.399 222.751 444.145 222.912C443.786 222.956 443.408 222.982 443.012 222.989C442.616 222.996 442.352 223 442.22 223H437.171ZM439.866 220.503H442.22C442.44 220.503 442.719 220.496 443.056 220.481C443.401 220.466 443.705 220.433 443.969 220.382C444.717 220.243 445.326 219.909 445.795 219.381C446.264 218.853 446.609 218.211 446.829 217.456C447.056 216.701 447.17 215.909 447.17 215.08C447.17 214.222 447.056 213.415 446.829 212.66C446.602 211.905 446.25 211.27 445.773 210.757C445.304 210.244 444.702 209.917 443.969 209.778C443.705 209.719 443.401 209.686 443.056 209.679C442.719 209.664 442.44 209.657 442.22 209.657H439.866V220.503ZM452.575 223V207.16H462.805V209.646H455.226V213.551H461.485V216.037H455.226V220.514H462.805V223H452.575ZM465.444 223V207.16H470.493C470.625 207.16 470.886 207.164 471.274 207.171C471.67 207.178 472.052 207.204 472.418 207.248C473.672 207.409 474.732 207.857 475.597 208.59C476.47 209.316 477.13 210.244 477.577 211.373C478.025 212.502 478.248 213.738 478.248 215.08C478.248 216.422 478.025 217.658 477.577 218.787C477.13 219.916 476.47 220.848 475.597 221.581C474.732 222.307 473.672 222.751 472.418 222.912C472.059 222.956 471.681 222.982 471.285 222.989C470.889 222.996 470.625 223 470.493 223H465.444ZM468.139 220.503H470.493C470.713 220.503 470.992 220.496 471.329 220.481C471.674 220.466 471.978 220.433 472.242 220.382C472.99 220.243 473.599 219.909 474.068 219.381C474.538 218.853 474.882 218.211 475.102 217.456C475.33 216.701 475.443 215.909 475.443 215.08C475.443 214.222 475.33 213.415 475.102 212.66C474.875 211.905 474.523 211.27 474.046 210.757C473.577 210.244 472.976 209.917 472.242 209.778C471.978 209.719 471.674 209.686 471.329 209.679C470.992 209.664 470.713 209.657 470.493 209.657H468.139V220.503ZM483.72 218.699C483.72 218.193 483.767 217.705 483.863 217.236C483.965 216.759 484.13 216.319 484.358 215.916C484.556 215.527 484.776 215.219 485.018 214.992C485.26 214.757 485.531 214.526 485.832 214.299C486.132 214.064 486.466 213.753 486.833 213.364C487.133 213.034 487.331 212.708 487.427 212.385C487.522 212.055 487.57 211.703 487.57 211.329C487.57 211.087 487.544 210.86 487.493 210.647C487.441 210.434 487.35 210.251 487.218 210.097C487.012 209.826 486.748 209.635 486.426 209.525C486.103 209.408 485.758 209.349 485.392 209.349C485.091 209.349 484.801 209.389 484.523 209.47C484.251 209.543 484.02 209.661 483.83 209.822C483.61 209.998 483.448 210.214 483.346 210.471C483.243 210.728 483.195 211.01 483.203 211.318H480.409C480.482 210.585 480.68 209.906 481.003 209.283C481.333 208.652 481.765 208.15 482.301 207.776C482.719 207.468 483.188 207.237 483.709 207.083C484.237 206.929 484.765 206.852 485.293 206.852C486.099 206.852 486.858 206.977 487.57 207.226C488.288 207.475 488.886 207.886 489.363 208.458C489.693 208.832 489.942 209.265 490.111 209.756C490.287 210.247 490.375 210.746 490.375 211.252C490.375 212.007 490.21 212.697 489.88 213.32C489.557 213.943 489.146 214.519 488.648 215.047C488.413 215.296 488.189 215.516 487.977 215.707C487.764 215.898 487.566 216.085 487.383 216.268C487.207 216.444 487.06 216.631 486.943 216.829C486.737 217.174 486.616 217.467 486.58 217.709C486.543 217.944 486.525 218.274 486.525 218.699H483.72ZM483.742 223V220.085H486.525V223H483.742Z" fill="white"></path> <rect x="20" y="20" width="173" height="40" rx="20" fill="white" fill-opacity="0.3"></rect> <path d="M33.3544 46V34.48H34.7784V39.56H40.8424V34.48H42.2664V46H40.8424V40.912H34.7784V46H33.3544ZM44.5106 46V34.48H51.7906V35.832H45.9346V39.44H50.8306V40.792H45.9346V44.648H51.7906V46H44.5106ZM52.9138 46L56.7698 34.48H58.7538L62.6098 46H61.1298L57.5218 35.312H57.9698L54.3938 46H52.9138ZM54.7698 43.304V41.968H60.7538V43.304H54.7698ZM64.2019 46V34.48H65.6259V44.648H70.9699V46H64.2019ZM73.6974 46V35.832H69.7694V34.48H79.0494V35.832H75.1214V46H73.6974ZM80.3231 46V34.48H81.7471V39.56H87.8111V34.48H89.2351V46H87.8111V40.912H81.7471V46H80.3231ZM98.4265 46.24C97.7865 46.24 97.1892 46.1467 96.6345 45.96C96.0798 45.7733 95.6158 45.48 95.2425 45.08C94.9545 44.76 94.7385 44.408 94.5945 44.024C94.4558 43.6347 94.3785 43.224 94.3625 42.792C94.3625 42.3707 94.4238 41.96 94.5465 41.56C94.6692 41.1547 94.8638 40.7947 95.1305 40.48C95.2692 40.3093 95.4238 40.1653 95.5945 40.048C95.7705 39.9253 95.9465 39.8213 96.1225 39.736C95.7545 39.3413 95.4718 38.9707 95.2745 38.624C95.0825 38.2773 94.9865 37.8587 94.9865 37.368C94.9865 36.744 95.1465 36.1813 95.4665 35.68C95.7918 35.1733 96.2345 34.8027 96.7945 34.568C97.0665 34.4507 97.3438 34.3707 97.6265 34.328C97.9145 34.28 98.1945 34.256 98.4665 34.256C98.9252 34.256 99.3705 34.32 99.8025 34.448C100.235 34.576 100.603 34.784 100.907 35.072C101.109 35.2427 101.283 35.44 101.427 35.664C101.571 35.8827 101.683 36.112 101.763 36.352L100.371 36.712C100.269 36.44 100.101 36.2107 99.8665 36.024C99.6798 35.864 99.4612 35.7547 99.2105 35.696C98.9652 35.6373 98.7172 35.608 98.4665 35.608C98.0505 35.608 97.6745 35.688 97.3385 35.848C97.0398 35.992 96.8158 36.1947 96.6665 36.456C96.5172 36.712 96.4425 37.016 96.4425 37.368C96.4425 37.672 96.4932 37.9227 96.5945 38.12C96.7012 38.312 96.8478 38.5173 97.0345 38.736C97.1465 38.8533 97.2718 38.9787 97.4105 39.112C97.5545 39.24 97.7012 39.3733 97.8505 39.512L101.243 42.664C101.259 42.5307 101.269 42.3947 101.275 42.256C101.28 42.1173 101.283 41.984 101.283 41.856L101.275 40.264H102.579V42.136C102.579 42.5147 102.565 42.8373 102.539 43.104C102.517 43.3707 102.48 43.592 102.427 43.768L103.891 45.12L102.963 46.112L101.747 44.96C101.539 45.1947 101.291 45.4 101.003 45.576C100.715 45.752 100.427 45.8853 100.139 45.976C99.8665 46.0773 99.5865 46.1467 99.2985 46.184C99.0105 46.2213 98.7198 46.24 98.4265 46.24ZM98.4585 44.872C98.7198 44.872 98.9572 44.856 99.1705 44.824C99.3838 44.792 99.5865 44.7307 99.7785 44.64C100.035 44.5173 100.232 44.4 100.371 44.288C100.509 44.176 100.624 44.072 100.715 43.976L97.2025 40.76C97.0105 40.824 96.8292 40.9093 96.6585 41.016C96.4932 41.1227 96.3492 41.248 96.2265 41.392C96.0878 41.5627 95.9838 41.7627 95.9145 41.992C95.8505 42.2213 95.8185 42.464 95.8185 42.72C95.8238 42.992 95.8692 43.2427 95.9545 43.472C96.0398 43.7013 96.1598 43.9067 96.3145 44.088C96.5492 44.36 96.8665 44.56 97.2665 44.688C97.6665 44.8107 98.0638 44.872 98.4585 44.872ZM108.401 46V34.48H109.697L114.049 43.656L118.377 34.48H119.689V45.992H118.337V37.608L114.425 46H113.665L109.753 37.608V46H108.401ZM121.933 46V34.48H129.213V35.832H123.357V39.44H128.253V40.792H123.357V44.648H129.213V46H121.933ZM131.136 46V34.48H134.688C134.805 34.48 135.01 34.4827 135.304 34.488C135.597 34.4933 135.877 34.5147 136.144 34.552C137.034 34.6693 137.778 34.9947 138.376 35.528C138.978 36.056 139.432 36.728 139.736 37.544C140.04 38.36 140.192 39.2587 140.192 40.24C140.192 41.2213 140.04 42.12 139.736 42.936C139.432 43.752 138.978 44.4267 138.376 44.96C137.778 45.488 137.034 45.8107 136.144 45.928C135.877 45.96 135.594 45.9813 135.296 45.992C135.002 45.9973 134.8 46 134.688 46H131.136ZM132.6 44.64H134.688C134.89 44.64 135.117 44.6347 135.368 44.624C135.618 44.608 135.837 44.584 136.024 44.552C136.653 44.4347 137.162 44.1707 137.552 43.76C137.941 43.3493 138.226 42.8373 138.408 42.224C138.589 41.6107 138.68 40.9493 138.68 40.24C138.68 39.5147 138.586 38.8453 138.4 38.232C138.218 37.6187 137.933 37.1093 137.544 36.704C137.154 36.2987 136.648 36.04 136.024 35.928C135.837 35.8907 135.616 35.8667 135.36 35.856C135.104 35.8453 134.88 35.84 134.688 35.84H132.6V44.64ZM142.186 46V34.48H143.61V46H142.186ZM150.747 46.24C149.6 46.24 148.627 45.9867 147.827 45.48C147.027 44.9733 146.416 44.2693 145.995 43.368C145.579 42.4667 145.371 41.424 145.371 40.24C145.371 39.056 145.579 38.0133 145.995 37.112C146.416 36.2107 147.027 35.5067 147.827 35C148.627 34.4933 149.6 34.24 150.747 34.24C152.08 34.24 153.176 34.5787 154.035 35.256C154.899 35.9333 155.493 36.8453 155.819 37.992L154.371 38.376C154.136 37.5173 153.717 36.84 153.115 36.344C152.512 35.848 151.723 35.6 150.747 35.6C149.888 35.6 149.173 35.7947 148.603 36.184C148.032 36.5733 147.603 37.1173 147.315 37.816C147.027 38.5093 146.88 39.3173 146.875 40.24C146.869 41.1573 147.011 41.9653 147.299 42.664C147.587 43.3573 148.019 43.9013 148.595 44.296C149.171 44.6853 149.888 44.88 150.747 44.88C151.723 44.88 152.512 44.632 153.115 44.136C153.717 43.6347 154.136 42.9573 154.371 42.104L155.819 42.488C155.493 43.6293 154.899 44.5413 154.035 45.224C153.176 45.9013 152.08 46.24 150.747 46.24ZM157.733 46V34.48H159.157V46H157.733ZM161.558 46V34.48H162.998L169.006 43.48V34.48H170.446V46H169.006L162.998 36.992V46H161.558ZM172.683 46V34.48H179.963V35.832H174.107V39.44H179.003V40.792H174.107V44.648H179.963V46H172.683Z" fill="white"></path> <defs> <linearGradient id="paint0_linear_131_172" x1="300" y1="0" x2="300" y2="400" gradientUnits="userSpaceOnUse"> <stop stop-color="#0BA360"></stop> <stop offset="1" stop-color="#3CBA92"></stop> </linearGradient> </defs> </svg> 