<svg xmlns="http://www.w3.org/2000/svg" version="1.1" xmlns:xlink="http://www.w3.org/1999/xlink" width="400" height="400"><svg xmlns="http://www.w3.org/2000/svg" width="400" height="400" viewBox="0 0 400 400" fill="none"> <rect width="400" height="400" fill="#3E1BC9"></rect> <path d="M48 237.9V226.1L78.2 199.3C80.4667 197.3 82.0667 195.417 83 193.65C83.9333 191.883 84.4 190.233 84.4 188.7C84.4 186.5 83.95 184.55 83.05 182.85C82.15 181.117 80.8833 179.767 79.25 178.8C77.6167 177.8 75.7 177.3 73.5 177.3C71.2 177.3 69.1667 177.833 67.4 178.9C65.6667 179.933 64.3167 181.317 63.35 183.05C62.3833 184.75 61.9333 186.6 62 188.6H48C48 183.667 49.0833 179.4 51.25 175.8C53.4167 172.2 56.4333 169.417 60.3 167.45C64.1667 165.483 68.6667 164.5 73.8 164.5C78.5 164.5 82.7 165.533 86.4 167.6C90.1333 169.633 93.0667 172.483 95.2 176.15C97.3333 179.817 98.4 184.067 98.4 188.9C98.4 192.467 97.9 195.433 96.9 197.8C95.9 200.133 94.4167 202.3 92.45 204.3C90.4833 206.267 88.0667 208.5 85.2 211L65.7 228.1L64.6 225.1H98.4V237.9H48ZM110.352 238V166H157.352V178.7H123.952V194.1H151.352V206.8H123.952V225.3H157.352V238H110.352ZM164.336 238L186.336 166H206.636L228.636 238H214.636L195.036 174.5H197.636L178.336 238H164.336ZM177.536 223V210.3H215.536V223H177.536ZM262.845 239.5C257.511 239.5 252.695 238.567 248.395 236.7C244.128 234.8 240.611 232.1 237.845 228.6C235.111 225.067 233.378 220.867 232.645 216L246.845 213.9C247.845 218.033 249.911 221.217 253.045 223.45C256.178 225.683 259.745 226.8 263.745 226.8C265.978 226.8 268.145 226.45 270.245 225.75C272.345 225.05 274.061 224.017 275.395 222.65C276.761 221.283 277.445 219.6 277.445 217.6C277.445 216.867 277.328 216.167 277.095 215.5C276.895 214.8 276.545 214.15 276.045 213.55C275.545 212.95 274.828 212.383 273.895 211.85C272.995 211.317 271.845 210.833 270.445 210.4L251.745 204.9C250.345 204.5 248.711 203.933 246.845 203.2C245.011 202.467 243.228 201.417 241.495 200.05C239.761 198.683 238.311 196.883 237.145 194.65C236.011 192.383 235.445 189.533 235.445 186.1C235.445 181.267 236.661 177.25 239.095 174.05C241.528 170.85 244.778 168.467 248.845 166.9C252.911 165.333 257.411 164.567 262.345 164.6C267.311 164.667 271.745 165.517 275.645 167.15C279.545 168.783 282.811 171.167 285.445 174.3C288.078 177.4 289.978 181.2 291.145 185.7L276.445 188.2C275.911 185.867 274.928 183.9 273.495 182.3C272.061 180.7 270.345 179.483 268.345 178.65C266.378 177.817 264.311 177.367 262.145 177.3C260.011 177.233 257.995 177.533 256.095 178.2C254.228 178.833 252.695 179.767 251.495 181C250.328 182.233 249.745 183.7 249.745 185.4C249.745 186.967 250.228 188.25 251.195 189.25C252.161 190.217 253.378 191 254.845 191.6C256.311 192.2 257.811 192.7 259.345 193.1L271.845 196.5C273.711 197 275.778 197.667 278.045 198.5C280.311 199.3 282.478 200.433 284.545 201.9C286.645 203.333 288.361 205.233 289.695 207.6C291.061 209.967 291.745 212.967 291.745 216.6C291.745 220.467 290.928 223.85 289.295 226.75C287.695 229.617 285.528 232 282.795 233.9C280.061 235.767 276.961 237.167 273.495 238.1C270.061 239.033 266.511 239.5 262.845 239.5ZM317.307 238V208.7L292.707 166H308.607L324.207 193.1L339.807 166H355.707L331.107 208.7V238H317.307Z" fill="white"></path> </svg><style>@media (prefers-color-scheme: light) { :root { filter: none; } }
@media (prefers-color-scheme: dark) { :root { filter: none; } }
</style></svg>