<?xml version="1.0" encoding="UTF-8"?> <svg xmlns="http://www.w3.org/2000/svg" width="600" height="400" viewBox="0 0 600 400" fill="none"> <rect width="600" height="400" rx="20" fill="url(#paint0_linear_160_295)"></rect> <path d="M107.946 178L112.94 162.16H116.823L121.817 178H119.089L114.557 163.788H115.151L110.674 178H107.946ZM110.729 174.568V172.093H119.045V174.568H110.729ZM123.806 178V162.16H130.351C130.505 162.16 130.703 162.167 130.945 162.182C131.187 162.189 131.41 162.211 131.616 162.248C132.532 162.387 133.288 162.692 133.882 163.161C134.483 163.63 134.927 164.224 135.213 164.943C135.506 165.654 135.653 166.446 135.653 167.319C135.653 168.61 135.326 169.721 134.674 170.652C134.021 171.576 133.02 172.148 131.671 172.368L130.538 172.467H126.457V178H123.806ZM132.903 178L129.779 171.554L132.474 170.96L135.906 178H132.903ZM126.457 169.992H130.241C130.387 169.992 130.552 169.985 130.736 169.97C130.919 169.955 131.088 169.926 131.242 169.882C131.682 169.772 132.026 169.578 132.276 169.299C132.532 169.02 132.712 168.705 132.815 168.353C132.925 168.001 132.98 167.656 132.98 167.319C132.98 166.982 132.925 166.637 132.815 166.285C132.712 165.926 132.532 165.607 132.276 165.328C132.026 165.049 131.682 164.855 131.242 164.745C131.088 164.701 130.919 164.675 130.736 164.668C130.552 164.653 130.387 164.646 130.241 164.646H126.457V169.992ZM138.329 178V162.16H148.559V164.646H140.98V168.551H147.239V171.037H140.98V175.514H148.559V178H138.329ZM159.453 178V171.51L154.062 162.16H157.154L160.795 168.474L164.425 162.16H167.516L162.137 171.51V178H159.453ZM174.87 178.33C173.286 178.33 171.929 177.985 170.8 177.296C169.671 176.599 168.802 175.631 168.193 174.392C167.592 173.153 167.291 171.715 167.291 170.08C167.291 168.445 167.592 167.007 168.193 165.768C168.802 164.529 169.671 163.564 170.8 162.875C171.929 162.178 173.286 161.83 174.87 161.83C176.454 161.83 177.811 162.178 178.94 162.875C180.077 163.564 180.946 164.529 181.547 165.768C182.156 167.007 182.46 168.445 182.46 170.08C182.46 171.715 182.156 173.153 181.547 174.392C180.946 175.631 180.077 176.599 178.94 177.296C177.811 177.985 176.454 178.33 174.87 178.33ZM174.87 175.833C175.933 175.84 176.817 175.606 177.521 175.129C178.232 174.652 178.764 173.981 179.116 173.116C179.475 172.251 179.655 171.239 179.655 170.08C179.655 168.921 179.475 167.917 179.116 167.066C178.764 166.208 178.232 165.541 177.521 165.064C176.817 164.587 175.933 164.342 174.87 164.327C173.807 164.32 172.923 164.554 172.219 165.031C171.515 165.508 170.983 166.179 170.624 167.044C170.272 167.909 170.096 168.921 170.096 170.08C170.096 171.239 170.272 172.247 170.624 173.105C170.976 173.956 171.504 174.619 172.208 175.096C172.919 175.573 173.807 175.818 174.87 175.833ZM191.029 178.33C189.768 178.33 188.657 178.073 187.696 177.56C186.743 177.047 185.995 176.324 185.452 175.393C184.917 174.462 184.649 173.369 184.649 172.115V162.182L187.333 162.16V172.049C187.333 172.643 187.432 173.175 187.63 173.644C187.836 174.113 188.111 174.513 188.455 174.843C188.8 175.166 189.196 175.411 189.643 175.58C190.091 175.749 190.553 175.833 191.029 175.833C191.521 175.833 191.986 175.749 192.426 175.58C192.874 175.404 193.27 175.155 193.614 174.832C193.959 174.502 194.23 174.102 194.428 173.633C194.626 173.164 194.725 172.636 194.725 172.049V162.16H197.409V172.115C197.409 173.369 197.138 174.462 196.595 175.393C196.06 176.324 195.312 177.047 194.351 177.56C193.398 178.073 192.291 178.33 191.029 178.33ZM205.108 178V162.16H207.759V178H205.108ZM211.054 178V162.16H213.738L221.086 173.325V162.16H223.77V178H221.086L213.738 166.835V178H211.054ZM230.651 178V164.646H225.525V162.16H238.428V164.646H233.302V178H230.651ZM246.885 178.33C245.301 178.33 243.945 177.985 242.815 177.296C241.686 176.599 240.817 175.631 240.208 174.392C239.607 173.153 239.306 171.715 239.306 170.08C239.306 168.445 239.607 167.007 240.208 165.768C240.817 164.529 241.686 163.564 242.815 162.875C243.945 162.178 245.301 161.83 246.885 161.83C248.469 161.83 249.826 162.178 250.955 162.875C252.092 163.564 252.961 164.529 253.562 165.768C254.171 167.007 254.475 168.445 254.475 170.08C254.475 171.715 254.171 173.153 253.562 174.392C252.961 175.631 252.092 176.599 250.955 177.296C249.826 177.985 248.469 178.33 246.885 178.33ZM246.885 175.833C247.949 175.84 248.832 175.606 249.536 175.129C250.248 174.652 250.779 173.981 251.131 173.116C251.491 172.251 251.67 171.239 251.67 170.08C251.67 168.921 251.491 167.917 251.131 167.066C250.779 166.208 250.248 165.541 249.536 165.064C248.832 164.587 247.949 164.342 246.885 164.327C245.822 164.32 244.938 164.554 244.234 165.031C243.53 165.508 242.999 166.179 242.639 167.044C242.287 167.909 242.111 168.921 242.111 170.08C242.111 171.239 242.287 172.247 242.639 173.105C242.991 173.956 243.519 174.619 244.223 175.096C244.935 175.573 245.822 175.818 246.885 175.833ZM261.069 178V162.16H263.753L271.101 173.325V162.16H273.785V178H271.101L263.753 166.835V178H261.069ZM276.86 178V162.16H287.09V164.646H279.511V168.551H285.77V171.037H279.511V175.514H287.09V178H276.86ZM293.073 178L288.442 162.16H291.225L294.382 173.6L297.528 162.182L300.311 162.16L303.468 173.6L306.614 162.16H309.397L304.777 178H302.159L298.914 166.736L295.691 178H293.073ZM319.403 178V164.646H314.277V162.16H327.18V164.646H322.054V178H319.403ZM328.938 178V162.16H339.168V164.646H331.589V168.551H337.848V171.037H331.589V175.514H339.168V178H328.938ZM347.948 178.33C346.364 178.33 345.007 177.985 343.878 177.296C342.749 176.599 341.88 175.631 341.271 174.392C340.67 173.153 340.369 171.715 340.369 170.08C340.369 168.445 340.67 167.007 341.271 165.768C341.88 164.529 342.749 163.564 343.878 162.875C345.007 162.178 346.364 161.83 347.948 161.83C349.774 161.83 351.296 162.288 352.513 163.205C353.73 164.114 354.585 165.343 355.076 166.89L352.403 167.627C352.095 166.593 351.571 165.786 350.83 165.207C350.089 164.62 349.129 164.327 347.948 164.327C346.885 164.327 345.997 164.565 345.286 165.042C344.582 165.519 344.05 166.19 343.691 167.055C343.339 167.913 343.159 168.921 343.152 170.08C343.152 171.239 343.328 172.251 343.68 173.116C344.039 173.974 344.575 174.641 345.286 175.118C345.997 175.595 346.885 175.833 347.948 175.833C349.129 175.833 350.089 175.54 350.83 174.953C351.571 174.366 352.095 173.56 352.403 172.533L355.076 173.27C354.585 174.817 353.73 176.049 352.513 176.966C351.296 177.875 349.774 178.33 347.948 178.33ZM357.491 178V162.16H360.142V168.826H367.644V162.16H370.284V178H367.644V171.312H360.142V178H357.491ZM373.368 178V162.16H376.052L383.4 173.325V162.16H386.084V178H383.4L376.052 166.835V178H373.368ZM395.858 178.33C394.274 178.33 392.917 177.985 391.788 177.296C390.659 176.599 389.79 175.631 389.181 174.392C388.58 173.153 388.279 171.715 388.279 170.08C388.279 168.445 388.58 167.007 389.181 165.768C389.79 164.529 390.659 163.564 391.788 162.875C392.917 162.178 394.274 161.83 395.858 161.83C397.442 161.83 398.799 162.178 399.928 162.875C401.065 163.564 401.934 164.529 402.535 165.768C403.144 167.007 403.448 168.445 403.448 170.08C403.448 171.715 403.144 173.153 402.535 174.392C401.934 175.631 401.065 176.599 399.928 177.296C398.799 177.985 397.442 178.33 395.858 178.33ZM395.858 175.833C396.921 175.84 397.805 175.606 398.509 175.129C399.22 174.652 399.752 173.981 400.104 173.116C400.463 172.251 400.643 171.239 400.643 170.08C400.643 168.921 400.463 167.917 400.104 167.066C399.752 166.208 399.22 165.541 398.509 165.064C397.805 164.587 396.921 164.342 395.858 164.327C394.795 164.32 393.911 164.554 393.207 165.031C392.503 165.508 391.971 166.179 391.612 167.044C391.26 167.909 391.084 168.921 391.084 170.08C391.084 171.239 391.26 172.247 391.612 173.105C391.964 173.956 392.492 174.619 393.196 175.096C393.907 175.573 394.795 175.818 395.858 175.833ZM405.858 178V162.16H408.509V175.514H415.505V178H405.858ZM423.637 178.33C422.053 178.33 420.697 177.985 419.567 177.296C418.438 176.599 417.569 175.631 416.96 174.392C416.359 173.153 416.058 171.715 416.058 170.08C416.058 168.445 416.359 167.007 416.96 165.768C417.569 164.529 418.438 163.564 419.567 162.875C420.697 162.178 422.053 161.83 423.637 161.83C425.221 161.83 426.578 162.178 427.707 162.875C428.844 163.564 429.713 164.529 430.314 165.768C430.923 167.007 431.227 168.445 431.227 170.08C431.227 171.715 430.923 173.153 430.314 174.392C429.713 175.631 428.844 176.599 427.707 177.296C426.578 177.985 425.221 178.33 423.637 178.33ZM423.637 175.833C424.701 175.84 425.584 175.606 426.288 175.129C427 174.652 427.531 173.981 427.883 173.116C428.243 172.251 428.422 171.239 428.422 170.08C428.422 168.921 428.243 167.917 427.883 167.066C427.531 166.208 427 165.541 426.288 165.064C425.584 164.587 424.701 164.342 423.637 164.327C422.574 164.32 421.69 164.554 420.986 165.031C420.282 165.508 419.751 166.179 419.391 167.044C419.039 167.909 418.863 168.921 418.863 170.08C418.863 171.239 419.039 172.247 419.391 173.105C419.743 173.956 420.271 174.619 420.975 175.096C421.687 175.573 422.574 175.818 423.637 175.833ZM439.951 178.33C438.924 178.33 437.96 178.15 437.058 177.791C436.163 177.424 435.375 176.889 434.693 176.185C434.018 175.481 433.49 174.619 433.109 173.6C432.728 172.573 432.537 171.4 432.537 170.08C432.537 168.349 432.86 166.872 433.505 165.647C434.15 164.415 435.034 163.473 436.156 162.82C437.278 162.16 438.543 161.83 439.951 161.83C441.902 161.83 443.445 162.285 444.582 163.194C445.726 164.096 446.5 165.365 446.903 167L444.197 167.429C443.896 166.49 443.405 165.742 442.723 165.185C442.041 164.62 441.172 164.338 440.116 164.338C439.053 164.323 438.169 164.554 437.465 165.031C436.761 165.508 436.229 166.179 435.87 167.044C435.518 167.909 435.342 168.921 435.342 170.08C435.342 171.239 435.518 172.247 435.87 173.105C436.222 173.956 436.75 174.619 437.454 175.096C438.165 175.573 439.053 175.818 440.116 175.833C440.915 175.84 441.616 175.697 442.217 175.404C442.818 175.103 443.31 174.652 443.691 174.051C444.072 173.442 444.329 172.683 444.461 171.774H441.667V169.695H447.277C447.292 169.812 447.303 169.985 447.31 170.212C447.317 170.439 447.321 170.575 447.321 170.619C447.321 172.115 447.024 173.446 446.43 174.612C445.843 175.771 445 176.68 443.9 177.34C442.8 178 441.484 178.33 439.951 178.33ZM449.75 178V162.16H452.401V178H449.75ZM455.696 178V162.16H465.926V164.646H458.347V168.551H464.606V171.037H458.347V175.514H465.926V178H455.696ZM474.278 178.33C473.119 178.33 472.074 178.128 471.143 177.725C470.219 177.322 469.456 176.746 468.855 175.998C468.261 175.243 467.883 174.348 467.722 173.314L470.472 172.896C470.707 173.835 471.187 174.561 471.913 175.074C472.646 175.587 473.49 175.844 474.443 175.844C475.008 175.844 475.539 175.756 476.038 175.58C476.537 175.404 476.94 175.147 477.248 174.81C477.563 174.473 477.721 174.058 477.721 173.567C477.721 173.347 477.684 173.145 477.611 172.962C477.538 172.771 477.428 172.603 477.281 172.456C477.142 172.309 476.958 172.177 476.731 172.06C476.511 171.935 476.254 171.829 475.961 171.741L471.869 170.531C471.517 170.428 471.136 170.293 470.725 170.124C470.322 169.948 469.937 169.71 469.57 169.409C469.211 169.101 468.914 168.712 468.679 168.243C468.452 167.766 468.338 167.18 468.338 166.483C468.338 165.464 468.595 164.609 469.108 163.92C469.629 163.223 470.325 162.703 471.198 162.358C472.078 162.013 473.053 161.845 474.124 161.852C475.209 161.859 476.177 162.046 477.028 162.413C477.879 162.772 478.59 163.297 479.162 163.986C479.734 164.675 480.137 165.508 480.372 166.483L477.523 166.978C477.406 166.421 477.178 165.948 476.841 165.559C476.511 165.163 476.104 164.862 475.62 164.657C475.143 164.452 474.634 164.342 474.091 164.327C473.563 164.32 473.072 164.4 472.617 164.569C472.17 164.73 471.807 164.965 471.528 165.273C471.257 165.581 471.121 165.94 471.121 166.351C471.121 166.74 471.238 167.059 471.473 167.308C471.708 167.55 471.997 167.744 472.342 167.891C472.694 168.03 473.05 168.148 473.409 168.243L476.247 169.035C476.636 169.138 477.072 169.277 477.556 169.453C478.04 169.629 478.506 169.875 478.953 170.19C479.4 170.505 479.767 170.92 480.053 171.433C480.346 171.946 480.493 172.599 480.493 173.391C480.493 174.212 480.321 174.935 479.976 175.558C479.639 176.174 479.18 176.687 478.601 177.098C478.022 177.509 477.358 177.817 476.61 178.022C475.869 178.227 475.092 178.33 474.278 178.33ZM485.745 173.699C485.745 173.193 485.793 172.705 485.888 172.236C485.991 171.759 486.156 171.319 486.383 170.916C486.581 170.527 486.801 170.219 487.043 169.992C487.285 169.757 487.556 169.526 487.857 169.299C488.158 169.064 488.491 168.753 488.858 168.364C489.159 168.034 489.357 167.708 489.452 167.385C489.547 167.055 489.595 166.703 489.595 166.329C489.595 166.087 489.569 165.86 489.518 165.647C489.467 165.434 489.375 165.251 489.243 165.097C489.038 164.826 488.774 164.635 488.451 164.525C488.128 164.408 487.784 164.349 487.417 164.349C487.116 164.349 486.827 164.389 486.548 164.47C486.277 164.543 486.046 164.661 485.855 164.822C485.635 164.998 485.474 165.214 485.371 165.471C485.268 165.728 485.221 166.01 485.228 166.318H482.434C482.507 165.585 482.705 164.906 483.028 164.283C483.358 163.652 483.791 163.15 484.326 162.776C484.744 162.468 485.213 162.237 485.734 162.083C486.262 161.929 486.79 161.852 487.318 161.852C488.125 161.852 488.884 161.977 489.595 162.226C490.314 162.475 490.911 162.886 491.388 163.458C491.718 163.832 491.967 164.265 492.136 164.756C492.312 165.247 492.4 165.746 492.4 166.252C492.4 167.007 492.235 167.697 491.905 168.32C491.582 168.943 491.172 169.519 490.673 170.047C490.438 170.296 490.215 170.516 490.002 170.707C489.789 170.898 489.591 171.085 489.408 171.268C489.232 171.444 489.085 171.631 488.968 171.829C488.763 172.174 488.642 172.467 488.605 172.709C488.568 172.944 488.55 173.274 488.55 173.699H485.745ZM485.767 178V175.085H488.55V178H485.767ZM111.56 209V193.16H116.609C116.741 193.16 117.001 193.164 117.39 193.171C117.786 193.178 118.167 193.204 118.534 193.248C119.788 193.409 120.847 193.857 121.713 194.59C122.585 195.316 123.245 196.244 123.693 197.373C124.14 198.502 124.364 199.738 124.364 201.08C124.364 202.422 124.14 203.658 123.693 204.787C123.245 205.916 122.585 206.848 121.713 207.581C120.847 208.307 119.788 208.751 118.534 208.912C118.174 208.956 117.797 208.982 117.401 208.989C117.005 208.996 116.741 209 116.609 209H111.56ZM114.255 206.503H116.609C116.829 206.503 117.107 206.496 117.445 206.481C117.789 206.466 118.094 206.433 118.358 206.382C119.106 206.243 119.714 205.909 120.184 205.381C120.653 204.853 120.998 204.211 121.218 203.456C121.445 202.701 121.559 201.909 121.559 201.08C121.559 200.222 121.445 199.415 121.218 198.66C120.99 197.905 120.638 197.27 120.162 196.757C119.692 196.244 119.091 195.917 118.358 195.778C118.094 195.719 117.789 195.686 117.445 195.679C117.107 195.664 116.829 195.657 116.609 195.657H114.255V206.503ZM133.663 209.33C132.079 209.33 130.722 208.985 129.593 208.296C128.463 207.599 127.594 206.631 126.986 205.392C126.384 204.153 126.084 202.715 126.084 201.08C126.084 199.445 126.384 198.007 126.986 196.768C127.594 195.529 128.463 194.564 129.593 193.875C130.722 193.178 132.079 192.83 133.663 192.83C135.247 192.83 136.603 193.178 137.733 193.875C138.869 194.564 139.738 195.529 140.34 196.768C140.948 198.007 141.253 199.445 141.253 201.08C141.253 202.715 140.948 204.153 140.34 205.392C139.738 206.631 138.869 207.599 137.733 208.296C136.603 208.985 135.247 209.33 133.663 209.33ZM133.663 206.833C134.726 206.84 135.61 206.606 136.314 206.129C137.025 205.652 137.557 204.981 137.909 204.116C138.268 203.251 138.448 202.239 138.448 201.08C138.448 199.921 138.268 198.917 137.909 198.066C137.557 197.208 137.025 196.541 136.314 196.064C135.61 195.587 134.726 195.342 133.663 195.327C132.599 195.32 131.716 195.554 131.012 196.031C130.308 196.508 129.776 197.179 129.417 198.044C129.065 198.909 128.889 199.921 128.889 201.08C128.889 202.239 129.065 203.247 129.417 204.105C129.769 204.956 130.297 205.619 131.001 206.096C131.712 206.573 132.599 206.818 133.663 206.833ZM151.697 209V202.51L146.307 193.16H149.398L153.039 199.474L156.669 193.16H159.76L154.381 202.51V209H151.697ZM167.114 209.33C165.53 209.33 164.173 208.985 163.044 208.296C161.915 207.599 161.046 206.631 160.437 205.392C159.836 204.153 159.535 202.715 159.535 201.08C159.535 199.445 159.836 198.007 160.437 196.768C161.046 195.529 161.915 194.564 163.044 193.875C164.173 193.178 165.53 192.83 167.114 192.83C168.698 192.83 170.055 193.178 171.184 193.875C172.321 194.564 173.19 195.529 173.791 196.768C174.4 198.007 174.704 199.445 174.704 201.08C174.704 202.715 174.4 204.153 173.791 205.392C173.19 206.631 172.321 207.599 171.184 208.296C170.055 208.985 168.698 209.33 167.114 209.33ZM167.114 206.833C168.177 206.84 169.061 206.606 169.765 206.129C170.476 205.652 171.008 204.981 171.36 204.116C171.719 203.251 171.899 202.239 171.899 201.08C171.899 199.921 171.719 198.917 171.36 198.066C171.008 197.208 170.476 196.541 169.765 196.064C169.061 195.587 168.177 195.342 167.114 195.327C166.051 195.32 165.167 195.554 164.463 196.031C163.759 196.508 163.227 197.179 162.868 198.044C162.516 198.909 162.34 199.921 162.34 201.08C162.34 202.239 162.516 203.247 162.868 204.105C163.22 204.956 163.748 205.619 164.452 206.096C165.163 206.573 166.051 206.818 167.114 206.833ZM183.274 209.33C182.012 209.33 180.901 209.073 179.941 208.56C178.987 208.047 178.239 207.324 177.697 206.393C177.161 205.462 176.894 204.369 176.894 203.115V193.182L179.578 193.16V203.049C179.578 203.643 179.677 204.175 179.875 204.644C180.08 205.113 180.355 205.513 180.7 205.843C181.044 206.166 181.44 206.411 181.888 206.58C182.335 206.749 182.797 206.833 183.274 206.833C183.765 206.833 184.231 206.749 184.671 206.58C185.118 206.404 185.514 206.155 185.859 205.832C186.203 205.502 186.475 205.102 186.673 204.633C186.871 204.164 186.97 203.636 186.97 203.049V193.16H189.654V203.115C189.654 204.369 189.382 205.462 188.84 206.393C188.304 207.324 187.556 208.047 186.596 208.56C185.642 209.073 184.535 209.33 183.274 209.33ZM200.938 209V195.646H195.812V193.16H208.715V195.646H203.589V209H200.938ZM210.474 209V193.16H217.019C217.173 193.16 217.371 193.167 217.613 193.182C217.855 193.189 218.078 193.211 218.284 193.248C219.2 193.387 219.956 193.692 220.55 194.161C221.151 194.63 221.595 195.224 221.881 195.943C222.174 196.654 222.321 197.446 222.321 198.319C222.321 199.61 221.994 200.721 221.342 201.652C220.689 202.576 219.688 203.148 218.339 203.368L217.206 203.467H213.125V209H210.474ZM219.571 209L216.447 202.554L219.142 201.96L222.574 209H219.571ZM213.125 200.992H216.909C217.055 200.992 217.22 200.985 217.404 200.97C217.587 200.955 217.756 200.926 217.91 200.882C218.35 200.772 218.694 200.578 218.944 200.299C219.2 200.02 219.38 199.705 219.483 199.353C219.593 199.001 219.648 198.656 219.648 198.319C219.648 197.982 219.593 197.637 219.483 197.285C219.38 196.926 219.2 196.607 218.944 196.328C218.694 196.049 218.35 195.855 217.91 195.745C217.756 195.701 217.587 195.675 217.404 195.668C217.22 195.653 217.055 195.646 216.909 195.646H213.125V200.992ZM228.546 209V202.51L223.156 193.16H226.247L229.888 199.474L233.518 193.16H236.609L231.23 202.51V209H228.546ZM247.532 209.33C246.373 209.33 245.328 209.128 244.397 208.725C243.473 208.322 242.71 207.746 242.109 206.998C241.515 206.243 241.137 205.348 240.976 204.314L243.726 203.896C243.961 204.835 244.441 205.561 245.167 206.074C245.9 206.587 246.744 206.844 247.697 206.844C248.262 206.844 248.793 206.756 249.292 206.58C249.791 206.404 250.194 206.147 250.502 205.81C250.817 205.473 250.975 205.058 250.975 204.567C250.975 204.347 250.938 204.145 250.865 203.962C250.792 203.771 250.682 203.603 250.535 203.456C250.396 203.309 250.212 203.177 249.985 203.06C249.765 202.935 249.508 202.829 249.215 202.741L245.123 201.531C244.771 201.428 244.39 201.293 243.979 201.124C243.576 200.948 243.191 200.71 242.824 200.409C242.465 200.101 242.168 199.712 241.933 199.243C241.706 198.766 241.592 198.18 241.592 197.483C241.592 196.464 241.849 195.609 242.362 194.92C242.883 194.223 243.579 193.703 244.452 193.358C245.332 193.013 246.307 192.845 247.378 192.852C248.463 192.859 249.431 193.046 250.282 193.413C251.133 193.772 251.844 194.297 252.416 194.986C252.988 195.675 253.391 196.508 253.626 197.483L250.777 197.978C250.66 197.421 250.432 196.948 250.095 196.559C249.765 196.163 249.358 195.862 248.874 195.657C248.397 195.452 247.888 195.342 247.345 195.327C246.817 195.32 246.326 195.4 245.871 195.569C245.424 195.73 245.061 195.965 244.782 196.273C244.511 196.581 244.375 196.94 244.375 197.351C244.375 197.74 244.492 198.059 244.727 198.308C244.962 198.55 245.251 198.744 245.596 198.891C245.948 199.03 246.304 199.148 246.663 199.243L249.501 200.035C249.89 200.138 250.326 200.277 250.81 200.453C251.294 200.629 251.76 200.875 252.207 201.19C252.654 201.505 253.021 201.92 253.307 202.433C253.6 202.946 253.747 203.599 253.747 204.391C253.747 205.212 253.575 205.935 253.23 206.558C252.893 207.174 252.434 207.687 251.855 208.098C251.276 208.509 250.612 208.817 249.864 209.022C249.123 209.227 248.346 209.33 247.532 209.33ZM262.827 209.33C261.243 209.33 259.886 208.985 258.757 208.296C257.628 207.599 256.759 206.631 256.15 205.392C255.549 204.153 255.248 202.715 255.248 201.08C255.248 199.445 255.549 198.007 256.15 196.768C256.759 195.529 257.628 194.564 258.757 193.875C259.886 193.178 261.243 192.83 262.827 192.83C264.411 192.83 265.768 193.178 266.897 193.875C268.034 194.564 268.903 195.529 269.504 196.768C270.113 198.007 270.417 199.445 270.417 201.08C270.417 202.715 270.113 204.153 269.504 205.392C268.903 206.631 268.034 207.599 266.897 208.296C265.768 208.985 264.411 209.33 262.827 209.33ZM262.827 206.833C263.89 206.84 264.774 206.606 265.478 206.129C266.189 205.652 266.721 204.981 267.073 204.116C267.432 203.251 267.612 202.239 267.612 201.08C267.612 199.921 267.432 198.917 267.073 198.066C266.721 197.208 266.189 196.541 265.478 196.064C264.774 195.587 263.89 195.342 262.827 195.327C261.764 195.32 260.88 195.554 260.176 196.031C259.472 196.508 258.94 197.179 258.581 198.044C258.229 198.909 258.053 199.921 258.053 201.08C258.053 202.239 258.229 203.247 258.581 204.105C258.933 204.956 259.461 205.619 260.165 206.096C260.876 206.573 261.764 206.818 262.827 206.833ZM272.606 209V193.16H274.993L280.471 204.38L285.949 193.16H288.336V209H285.861V198.847L280.999 209H279.943L275.092 198.847V209H272.606ZM291.427 209V193.16H301.657V195.646H294.078V199.551H300.337V202.037H294.078V206.514H301.657V209H291.427ZM308.102 209V195.646H302.976V193.16H315.879V195.646H310.753V209H308.102ZM317.638 209V193.16H320.289V199.826H327.791V193.16H330.431V209H327.791V202.312H320.289V209H317.638ZM333.735 209V193.16H336.386V209H333.735ZM339.681 209V193.16H342.365L349.713 204.325V193.16H352.397V209H349.713L342.365 197.835V209H339.681ZM362.006 209.33C360.979 209.33 360.015 209.15 359.113 208.791C358.218 208.424 357.43 207.889 356.748 207.185C356.073 206.481 355.545 205.619 355.164 204.6C354.782 203.573 354.592 202.4 354.592 201.08C354.592 199.349 354.914 197.872 355.56 196.647C356.205 195.415 357.089 194.473 358.211 193.82C359.333 193.16 360.598 192.83 362.006 192.83C363.956 192.83 365.5 193.285 366.637 194.194C367.781 195.096 368.554 196.365 368.958 198L366.252 198.429C365.951 197.49 365.46 196.742 364.778 196.185C364.096 195.62 363.227 195.338 362.171 195.338C361.107 195.323 360.224 195.554 359.52 196.031C358.816 196.508 358.284 197.179 357.925 198.044C357.573 198.909 357.397 199.921 357.397 201.08C357.397 202.239 357.573 203.247 357.925 204.105C358.277 204.956 358.805 205.619 359.509 206.096C360.22 206.573 361.107 206.818 362.171 206.833C362.97 206.84 363.67 206.697 364.272 206.404C364.873 206.103 365.364 205.652 365.746 205.051C366.127 204.442 366.384 203.683 366.516 202.774H363.722V200.695H369.332C369.346 200.812 369.357 200.985 369.365 201.212C369.372 201.439 369.376 201.575 369.376 201.619C369.376 203.115 369.079 204.446 368.485 205.612C367.898 206.771 367.055 207.68 365.955 208.34C364.855 209 363.538 209.33 362.006 209.33ZM375.989 209V193.16H378.673L386.021 204.325V193.16H388.705V209H386.021L378.673 197.835V209H375.989ZM391.78 209V193.16H402.01V195.646H394.431V199.551H400.69V202.037H394.431V206.514H402.01V209H391.78ZM407.993 209L403.362 193.16H406.145L409.302 204.6L412.448 193.182L415.231 193.16L418.388 204.6L421.534 193.16H424.317L419.697 209H417.079L413.834 197.736L410.611 209H407.993ZM429.417 209L434.411 193.16H438.294L443.288 209H440.56L436.028 194.788H436.622L432.145 209H429.417ZM432.2 205.568V203.093H440.516V205.568H432.2ZM450.71 209.33C449.551 209.33 448.506 209.128 447.575 208.725C446.651 208.322 445.888 207.746 445.287 206.998C444.693 206.243 444.315 205.348 444.154 204.314L446.904 203.896C447.138 204.835 447.619 205.561 448.345 206.074C449.078 206.587 449.921 206.844 450.875 206.844C451.439 206.844 451.971 206.756 452.47 206.58C452.968 206.404 453.372 206.147 453.68 205.81C453.995 205.473 454.153 205.058 454.153 204.567C454.153 204.347 454.116 204.145 454.043 203.962C453.969 203.771 453.859 203.603 453.713 203.456C453.573 203.309 453.39 203.177 453.163 203.06C452.943 202.935 452.686 202.829 452.393 202.741L448.301 201.531C447.949 201.428 447.567 201.293 447.157 201.124C446.753 200.948 446.368 200.71 446.002 200.409C445.642 200.101 445.345 199.712 445.111 199.243C444.883 198.766 444.77 198.18 444.77 197.483C444.77 196.464 445.026 195.609 445.54 194.92C446.06 194.223 446.757 193.703 447.63 193.358C448.51 193.013 449.485 192.845 450.556 192.852C451.641 192.859 452.609 193.046 453.46 193.413C454.31 193.772 455.022 194.297 455.594 194.986C456.166 195.675 456.569 196.508 456.804 197.483L453.955 197.978C453.837 197.421 453.61 196.948 453.273 196.559C452.943 196.163 452.536 195.862 452.052 195.657C451.575 195.452 451.065 195.342 450.523 195.327C449.995 195.32 449.503 195.4 449.049 195.569C448.601 195.73 448.238 195.965 447.96 196.273C447.688 196.581 447.553 196.94 447.553 197.351C447.553 197.74 447.67 198.059 447.905 198.308C448.139 198.55 448.429 198.744 448.774 198.891C449.126 199.03 449.481 199.148 449.841 199.243L452.679 200.035C453.067 200.138 453.504 200.277 453.988 200.453C454.472 200.629 454.937 200.875 455.385 201.19C455.832 201.505 456.199 201.92 456.485 202.433C456.778 202.946 456.925 203.599 456.925 204.391C456.925 205.212 456.752 205.935 456.408 206.558C456.07 207.174 455.612 207.687 455.033 208.098C454.453 208.509 453.79 208.817 453.042 209.022C452.301 209.227 451.524 209.33 450.71 209.33ZM458.206 209L463.2 193.16H467.083L472.077 209H469.349L464.817 194.788H465.411L460.934 209H458.206ZM460.989 205.568V203.093H469.305V205.568H460.989ZM474.065 209V193.16H480.61C480.764 193.16 480.962 193.167 481.204 193.182C481.446 193.189 481.67 193.211 481.875 193.248C482.792 193.387 483.547 193.692 484.141 194.161C484.743 194.63 485.186 195.224 485.472 195.943C485.766 196.654 485.912 197.446 485.912 198.319C485.912 199.184 485.766 199.976 485.472 200.695C485.179 201.406 484.732 201.997 484.13 202.466C483.536 202.935 482.785 203.24 481.875 203.379C481.67 203.408 481.443 203.43 481.193 203.445C480.951 203.46 480.757 203.467 480.61 203.467H476.716V209H474.065ZM476.716 200.992H480.5C480.647 200.992 480.812 200.985 480.995 200.97C481.179 200.955 481.347 200.926 481.501 200.882C481.941 200.772 482.286 200.578 482.535 200.299C482.792 200.02 482.972 199.705 483.074 199.353C483.184 199.001 483.239 198.656 483.239 198.319C483.239 197.982 483.184 197.637 483.074 197.285C482.972 196.926 482.792 196.607 482.535 196.328C482.286 196.049 481.941 195.855 481.501 195.745C481.347 195.701 481.179 195.675 480.995 195.668C480.812 195.653 480.647 195.646 480.5 195.646H476.716V200.992ZM64.8376 240.33C63.2536 240.33 61.897 239.985 60.7676 239.296C59.6383 238.599 58.7693 237.631 58.1606 236.392C57.5593 235.153 57.2586 233.715 57.2586 232.08C57.2586 230.445 57.5593 229.007 58.1606 227.768C58.7693 226.529 59.6383 225.564 60.7676 224.875C61.897 224.178 63.2536 223.83 64.8376 223.83C66.4216 223.83 67.7783 224.178 68.9076 224.875C70.0443 225.564 70.9133 226.529 71.5146 227.768C72.1233 229.007 72.4276 230.445 72.4276 232.08C72.4276 233.715 72.1233 235.153 71.5146 236.392C70.9133 237.631 70.0443 238.599 68.9076 239.296C67.7783 239.985 66.4216 240.33 64.8376 240.33ZM64.8376 237.833C65.901 237.84 66.7846 237.606 67.4886 237.129C68.2 236.652 68.7316 235.981 69.0836 235.116C69.443 234.251 69.6226 233.239 69.6226 232.08C69.6226 230.921 69.443 229.917 69.0836 229.066C68.7316 228.208 68.2 227.541 67.4886 227.064C66.7846 226.587 65.901 226.342 64.8376 226.327C63.7743 226.32 62.8906 226.554 62.1866 227.031C61.4826 227.508 60.951 228.179 60.5916 229.044C60.2396 229.909 60.0636 230.921 60.0636 232.08C60.0636 233.239 60.2396 234.247 60.5916 235.105C60.9436 235.956 61.4716 236.619 62.1756 237.096C62.887 237.573 63.7743 237.818 64.8376 237.833ZM74.6171 240V224.16H81.1621C81.3161 224.16 81.5141 224.167 81.7561 224.182C81.9981 224.189 82.2218 224.211 82.4271 224.248C83.3438 224.387 84.0991 224.692 84.6931 225.161C85.2945 225.63 85.7381 226.224 86.0241 226.943C86.3175 227.654 86.4641 228.446 86.4641 229.319C86.4641 230.61 86.1378 231.721 85.4851 232.652C84.8325 233.576 83.8315 234.148 82.4821 234.368L81.3491 234.467H77.2681V240H74.6171ZM83.7141 240L80.5901 233.554L83.2851 232.96L86.7171 240H83.7141ZM77.2681 231.992H81.0521C81.1988 231.992 81.3638 231.985 81.5471 231.97C81.7305 231.955 81.8991 231.926 82.0531 231.882C82.4931 231.772 82.8378 231.578 83.0871 231.299C83.3438 231.02 83.5235 230.705 83.6261 230.353C83.7361 230.001 83.7911 229.656 83.7911 229.319C83.7911 228.982 83.7361 228.637 83.6261 228.285C83.5235 227.926 83.3438 227.607 83.0871 227.328C82.8378 227.049 82.4931 226.855 82.0531 226.745C81.8991 226.701 81.7305 226.675 81.5471 226.668C81.3638 226.653 81.1988 226.646 81.0521 226.646H77.2681V231.992ZM100.244 240.33C98.6599 240.33 97.3032 239.985 96.1739 239.296C95.0445 238.599 94.1755 237.631 93.5669 236.392C92.9655 235.153 92.6649 233.715 92.6649 232.08C92.6649 230.445 92.9655 229.007 93.5669 227.768C94.1755 226.529 95.0445 225.564 96.1739 224.875C97.3032 224.178 98.6599 223.83 100.244 223.83C101.828 223.83 103.185 224.178 104.314 224.875C105.451 225.564 106.32 226.529 106.921 227.768C107.53 229.007 107.834 230.445 107.834 232.08C107.834 233.715 107.53 235.153 106.921 236.392C106.32 237.631 105.451 238.599 104.314 239.296C103.185 239.985 101.828 240.33 100.244 240.33ZM100.244 237.833C101.307 237.84 102.191 237.606 102.895 237.129C103.606 236.652 104.138 235.981 104.49 235.116C104.849 234.251 105.029 233.239 105.029 232.08C105.029 230.921 104.849 229.917 104.49 229.066C104.138 228.208 103.606 227.541 102.895 227.064C102.191 226.587 101.307 226.342 100.244 226.327C99.1805 226.32 98.2969 226.554 97.5929 227.031C96.8889 227.508 96.3572 228.179 95.9979 229.044C95.6459 229.909 95.4699 230.921 95.4699 232.08C95.4699 233.239 95.6459 234.247 95.9979 235.105C96.3499 235.956 96.8779 236.619 97.5819 237.096C98.2932 237.573 99.1805 237.818 100.244 237.833ZM110.023 240V224.16H112.707L120.055 235.325V224.16H122.739V240H120.055L112.707 228.835V240H110.023ZM126.034 240V224.16H128.685V237.514H135.681V240H126.034ZM139.203 240V233.51L133.813 224.16H136.904L140.545 230.474L144.175 224.16H147.266L141.887 233.51V240H139.203ZM151.226 240L156.22 224.16H160.103L165.097 240H162.369L157.837 225.788H158.431L153.954 240H151.226ZM154.009 236.568V234.093H162.325V236.568H154.009ZM167.086 240V224.16H176.623V226.811H169.737V230.76H175.303V233.4H169.737V240H167.086ZM182.408 240V226.646H177.282V224.16H190.185V226.646H185.059V240H182.408ZM191.943 240V224.16H202.173V226.646H194.594V230.551H200.853V233.037H194.594V237.514H202.173V240H191.943ZM204.812 240V224.16H211.357C211.511 224.16 211.709 224.167 211.951 224.182C212.193 224.189 212.417 224.211 212.622 224.248C213.539 224.387 214.294 224.692 214.888 225.161C215.49 225.63 215.933 226.224 216.219 226.943C216.513 227.654 216.659 228.446 216.659 229.319C216.659 230.61 216.333 231.721 215.68 232.652C215.028 233.576 214.027 234.148 212.677 234.368L211.544 234.467H207.463V240H204.812ZM213.909 240L210.785 233.554L213.48 232.96L216.912 240H213.909ZM207.463 231.992H211.247C211.394 231.992 211.559 231.985 211.742 231.97C211.926 231.955 212.094 231.926 212.248 231.882C212.688 231.772 213.033 231.578 213.282 231.299C213.539 231.02 213.719 230.705 213.821 230.353C213.931 230.001 213.986 229.656 213.986 229.319C213.986 228.982 213.931 228.637 213.821 228.285C213.719 227.926 213.539 227.607 213.282 227.328C213.033 227.049 212.688 226.855 212.248 226.745C212.094 226.701 211.926 226.675 211.742 226.668C211.559 226.653 211.394 226.646 211.247 226.646H207.463V231.992ZM223.74 240V224.16H233.97V226.646H226.391V230.551H232.65V233.037H226.391V237.514H233.97V240H223.74ZM240.173 240L235.179 224.16H237.907L242.087 237.426L246.322 224.16H249.05L244.056 240H240.173ZM250.703 240V224.16H260.933V226.646H253.354V230.551H259.613V233.037H253.354V237.514H260.933V240H250.703ZM263.572 240V224.16H270.117C270.271 224.16 270.469 224.167 270.711 224.182C270.953 224.189 271.177 224.211 271.382 224.248C272.299 224.387 273.054 224.692 273.648 225.161C274.25 225.63 274.693 226.224 274.979 226.943C275.273 227.654 275.419 228.446 275.419 229.319C275.419 230.61 275.093 231.721 274.44 232.652C273.788 233.576 272.787 234.148 271.437 234.368L270.304 234.467H266.223V240H263.572ZM272.669 240L269.545 233.554L272.24 232.96L275.672 240H272.669ZM266.223 231.992H270.007C270.154 231.992 270.319 231.985 270.502 231.97C270.686 231.955 270.854 231.926 271.008 231.882C271.448 231.772 271.793 231.578 272.042 231.299C272.299 231.02 272.479 230.705 272.581 230.353C272.691 230.001 272.746 229.656 272.746 229.319C272.746 228.982 272.691 228.637 272.581 228.285C272.479 227.926 272.299 227.607 272.042 227.328C271.793 227.049 271.448 226.855 271.008 226.745C270.854 226.701 270.686 226.675 270.502 226.668C270.319 226.653 270.154 226.646 270.007 226.646H266.223V231.992ZM281.645 240V233.51L276.255 224.16H279.346L282.987 230.474L286.617 224.16H289.708L284.329 233.51V240H281.645ZM291.244 240V224.16H297.525C298.596 224.16 299.472 224.376 300.154 224.809C300.843 225.234 301.353 225.781 301.683 226.448C302.02 227.115 302.189 227.805 302.189 228.516C302.189 229.389 301.98 230.129 301.562 230.738C301.151 231.347 300.59 231.757 299.879 231.97V231.42C300.876 231.647 301.632 232.12 302.145 232.839C302.666 233.558 302.926 234.375 302.926 235.292C302.926 236.231 302.746 237.052 302.387 237.756C302.028 238.46 301.492 239.01 300.781 239.406C300.077 239.802 299.204 240 298.163 240H291.244ZM293.928 237.503H297.833C298.295 237.503 298.709 237.411 299.076 237.228C299.443 237.037 299.729 236.773 299.934 236.436C300.147 236.091 300.253 235.684 300.253 235.215C300.253 234.79 300.161 234.408 299.978 234.071C299.795 233.734 299.527 233.466 299.175 233.268C298.823 233.063 298.401 232.96 297.91 232.96H293.928V237.503ZM293.928 230.485H297.492C297.873 230.485 298.214 230.412 298.515 230.265C298.816 230.118 299.054 229.902 299.23 229.616C299.406 229.33 299.494 228.978 299.494 228.56C299.494 228.01 299.318 227.552 298.966 227.185C298.614 226.818 298.123 226.635 297.492 226.635H293.928V230.485ZM311.822 240.33C310.238 240.33 308.881 239.985 307.752 239.296C306.623 238.599 305.754 237.631 305.145 236.392C304.544 235.153 304.243 233.715 304.243 232.08C304.243 230.445 304.544 229.007 305.145 227.768C305.754 226.529 306.623 225.564 307.752 224.875C308.881 224.178 310.238 223.83 311.822 223.83C313.406 223.83 314.763 224.178 315.892 224.875C317.029 225.564 317.898 226.529 318.499 227.768C319.108 229.007 319.412 230.445 319.412 232.08C319.412 233.715 319.108 235.153 318.499 236.392C317.898 237.631 317.029 238.599 315.892 239.296C314.763 239.985 313.406 240.33 311.822 240.33ZM311.822 237.833C312.885 237.84 313.769 237.606 314.473 237.129C315.184 236.652 315.716 235.981 316.068 235.116C316.427 234.251 316.607 233.239 316.607 232.08C316.607 230.921 316.427 229.917 316.068 229.066C315.716 228.208 315.184 227.541 314.473 227.064C313.769 226.587 312.885 226.342 311.822 226.327C310.759 226.32 309.875 226.554 309.171 227.031C308.467 227.508 307.935 228.179 307.576 229.044C307.224 229.909 307.048 230.921 307.048 232.08C307.048 233.239 307.224 234.247 307.576 235.105C307.928 235.956 308.456 236.619 309.16 237.096C309.871 237.573 310.759 237.818 311.822 237.833ZM321.602 240V224.16H326.651C326.783 224.16 327.043 224.164 327.432 224.171C327.828 224.178 328.209 224.204 328.576 224.248C329.83 224.409 330.889 224.857 331.755 225.59C332.627 226.316 333.287 227.244 333.735 228.373C334.182 229.502 334.406 230.738 334.406 232.08C334.406 233.422 334.182 234.658 333.735 235.787C333.287 236.916 332.627 237.848 331.755 238.581C330.889 239.307 329.83 239.751 328.576 239.912C328.216 239.956 327.839 239.982 327.443 239.989C327.047 239.996 326.783 240 326.651 240H321.602ZM324.297 237.503H326.651C326.871 237.503 327.149 237.496 327.487 237.481C327.831 237.466 328.136 237.433 328.4 237.382C329.148 237.243 329.756 236.909 330.226 236.381C330.695 235.853 331.04 235.211 331.26 234.456C331.487 233.701 331.601 232.909 331.601 232.08C331.601 231.222 331.487 230.415 331.26 229.66C331.032 228.905 330.68 228.27 330.204 227.757C329.734 227.244 329.133 226.917 328.4 226.778C328.136 226.719 327.831 226.686 327.487 226.679C327.149 226.664 326.871 226.657 326.651 226.657H324.297V237.503ZM340.19 240V233.51L334.8 224.16H337.891L341.532 230.474L345.162 224.16H348.253L342.874 233.51V240H340.19ZM359.175 240.33C358.017 240.33 356.972 240.128 356.04 239.725C355.116 239.322 354.354 238.746 353.752 237.998C353.158 237.243 352.781 236.348 352.619 235.314L355.369 234.896C355.604 235.835 356.084 236.561 356.81 237.074C357.544 237.587 358.387 237.844 359.34 237.844C359.905 237.844 360.437 237.756 360.935 237.58C361.434 237.404 361.837 237.147 362.145 236.81C362.461 236.473 362.618 236.058 362.618 235.567C362.618 235.347 362.582 235.145 362.508 234.962C362.435 234.771 362.325 234.603 362.178 234.456C362.039 234.309 361.856 234.177 361.628 234.06C361.408 233.935 361.152 233.829 360.858 233.741L356.766 232.531C356.414 232.428 356.033 232.293 355.622 232.124C355.219 231.948 354.834 231.71 354.467 231.409C354.108 231.101 353.811 230.712 353.576 230.243C353.349 229.766 353.235 229.18 353.235 228.483C353.235 227.464 353.492 226.609 354.005 225.92C354.526 225.223 355.223 224.703 356.095 224.358C356.975 224.013 357.951 223.845 359.021 223.852C360.107 223.859 361.075 224.046 361.925 224.413C362.776 224.772 363.487 225.297 364.059 225.986C364.631 226.675 365.035 227.508 365.269 228.483L362.42 228.978C362.303 228.421 362.076 227.948 361.738 227.559C361.408 227.163 361.001 226.862 360.517 226.657C360.041 226.452 359.531 226.342 358.988 226.327C358.46 226.32 357.969 226.4 357.514 226.569C357.067 226.73 356.704 226.965 356.425 227.273C356.154 227.581 356.018 227.94 356.018 228.351C356.018 228.74 356.136 229.059 356.37 229.308C356.605 229.55 356.895 229.744 357.239 229.891C357.591 230.03 357.947 230.148 358.306 230.243L361.144 231.035C361.533 231.138 361.969 231.277 362.453 231.453C362.937 231.629 363.403 231.875 363.85 232.19C364.298 232.505 364.664 232.92 364.95 233.433C365.244 233.946 365.39 234.599 365.39 235.391C365.39 236.212 365.218 236.935 364.873 237.558C364.536 238.174 364.078 238.687 363.498 239.098C362.919 239.509 362.255 239.817 361.507 240.022C360.767 240.227 359.989 240.33 359.175 240.33ZM371.577 240V226.646H366.451V224.16H379.354V226.646H374.228V240H371.577ZM379.584 240L384.578 224.16H388.461L393.455 240H390.727L386.195 225.788H386.789L382.312 240H379.584ZM382.367 236.568V234.093H390.683V236.568H382.367ZM395.443 240V224.16H401.988C402.142 224.16 402.34 224.167 402.582 224.182C402.824 224.189 403.048 224.211 403.253 224.248C404.17 224.387 404.925 224.692 405.519 225.161C406.121 225.63 406.564 226.224 406.85 226.943C407.144 227.654 407.29 228.446 407.29 229.319C407.29 230.61 406.964 231.721 406.311 232.652C405.659 233.576 404.658 234.148 403.308 234.368L402.175 234.467H398.094V240H395.443ZM404.54 240L401.416 233.554L404.111 232.96L407.543 240H404.54ZM398.094 231.992H401.878C402.025 231.992 402.19 231.985 402.373 231.97C402.557 231.955 402.725 231.926 402.879 231.882C403.319 231.772 403.664 231.578 403.913 231.299C404.17 231.02 404.35 230.705 404.452 230.353C404.562 230.001 404.617 229.656 404.617 229.319C404.617 228.982 404.562 228.637 404.452 228.285C404.35 227.926 404.17 227.607 403.913 227.328C403.664 227.049 403.319 226.855 402.879 226.745C402.725 226.701 402.557 226.675 402.373 226.668C402.19 226.653 402.025 226.646 401.878 226.646H398.094V231.992ZM413.773 240V226.646H408.647V224.16H421.55V226.646H416.424V240H413.773ZM429.172 240.33C428.013 240.33 426.968 240.128 426.037 239.725C425.113 239.322 424.35 238.746 423.749 237.998C423.155 237.243 422.777 236.348 422.616 235.314L425.366 234.896C425.6 235.835 426.081 236.561 426.807 237.074C427.54 237.587 428.383 237.844 429.337 237.844C429.901 237.844 430.433 237.756 430.932 237.58C431.43 237.404 431.834 237.147 432.142 236.81C432.457 236.473 432.615 236.058 432.615 235.567C432.615 235.347 432.578 235.145 432.505 234.962C432.431 234.771 432.321 234.603 432.175 234.456C432.035 234.309 431.852 234.177 431.625 234.06C431.405 233.935 431.148 233.829 430.855 233.741L426.763 232.531C426.411 232.428 426.029 232.293 425.619 232.124C425.215 231.948 424.83 231.71 424.464 231.409C424.104 231.101 423.807 230.712 423.573 230.243C423.345 229.766 423.232 229.18 423.232 228.483C423.232 227.464 423.488 226.609 424.002 225.92C424.522 225.223 425.219 224.703 426.092 224.358C426.972 224.013 427.947 223.845 429.018 223.852C430.103 223.859 431.071 224.046 431.922 224.413C432.772 224.772 433.484 225.297 434.056 225.986C434.628 226.675 435.031 227.508 435.266 228.483L432.417 228.978C432.299 228.421 432.072 227.948 431.735 227.559C431.405 227.163 430.998 226.862 430.514 226.657C430.037 226.452 429.527 226.342 428.985 226.327C428.457 226.32 427.965 226.4 427.511 226.569C427.063 226.73 426.7 226.965 426.422 227.273C426.15 227.581 426.015 227.94 426.015 228.351C426.015 228.74 426.132 229.059 426.367 229.308C426.601 229.55 426.891 229.744 427.236 229.891C427.588 230.03 427.943 230.148 428.303 230.243L431.141 231.035C431.529 231.138 431.966 231.277 432.45 231.453C432.934 231.629 433.399 231.875 433.847 232.19C434.294 232.505 434.661 232.92 434.947 233.433C435.24 233.946 435.387 234.599 435.387 235.391C435.387 236.212 435.214 236.935 434.87 237.558C434.532 238.174 434.074 238.687 433.495 239.098C432.915 239.509 432.252 239.817 431.504 240.022C430.763 240.227 429.986 240.33 429.172 240.33ZM448.552 240.33C447.291 240.33 446.18 240.073 445.219 239.56C444.266 239.047 443.518 238.324 442.975 237.393C442.44 236.462 442.172 235.369 442.172 234.115V224.182L444.856 224.16V234.049C444.856 234.643 444.955 235.175 445.153 235.644C445.358 236.113 445.633 236.513 445.978 236.843C446.323 237.166 446.719 237.411 447.166 237.58C447.613 237.749 448.075 237.833 448.552 237.833C449.043 237.833 449.509 237.749 449.949 237.58C450.396 237.404 450.792 237.155 451.137 236.832C451.482 236.502 451.753 236.102 451.951 235.633C452.149 235.164 452.248 234.636 452.248 234.049V224.16H454.932V234.115C454.932 235.369 454.661 236.462 454.118 237.393C453.583 238.324 452.835 239.047 451.874 239.56C450.921 240.073 449.813 240.33 448.552 240.33ZM463.203 240.33C462.044 240.33 460.999 240.128 460.068 239.725C459.144 239.322 458.381 238.746 457.78 237.998C457.186 237.243 456.808 236.348 456.647 235.314L459.397 234.896C459.631 235.835 460.112 236.561 460.838 237.074C461.571 237.587 462.414 237.844 463.368 237.844C463.932 237.844 464.464 237.756 464.963 237.58C465.461 237.404 465.865 237.147 466.173 236.81C466.488 236.473 466.646 236.058 466.646 235.567C466.646 235.347 466.609 235.145 466.536 234.962C466.462 234.771 466.352 234.603 466.206 234.456C466.066 234.309 465.883 234.177 465.656 234.06C465.436 233.935 465.179 233.829 464.886 233.741L460.794 232.531C460.442 232.428 460.06 232.293 459.65 232.124C459.246 231.948 458.861 231.71 458.495 231.409C458.135 231.101 457.838 230.712 457.604 230.243C457.376 229.766 457.263 229.18 457.263 228.483C457.263 227.464 457.519 226.609 458.033 225.92C458.553 225.223 459.25 224.703 460.123 224.358C461.003 224.013 461.978 223.845 463.049 223.852C464.134 223.859 465.102 224.046 465.953 224.413C466.803 224.772 467.515 225.297 468.087 225.986C468.659 226.675 469.062 227.508 469.297 228.483L466.448 228.978C466.33 228.421 466.103 227.948 465.766 227.559C465.436 227.163 465.029 226.862 464.545 226.657C464.068 226.452 463.558 226.342 463.016 226.327C462.488 226.32 461.996 226.4 461.542 226.569C461.094 226.73 460.731 226.965 460.453 227.273C460.181 227.581 460.046 227.94 460.046 228.351C460.046 228.74 460.163 229.059 460.398 229.308C460.632 229.55 460.922 229.744 461.267 229.891C461.619 230.03 461.974 230.148 462.334 230.243L465.172 231.035C465.56 231.138 465.997 231.277 466.481 231.453C466.965 231.629 467.43 231.875 467.878 232.19C468.325 232.505 468.692 232.92 468.978 233.433C469.271 233.946 469.418 234.599 469.418 235.391C469.418 236.212 469.245 236.935 468.901 237.558C468.563 238.174 468.105 238.687 467.526 239.098C466.946 239.509 466.283 239.817 465.535 240.022C464.794 240.227 464.017 240.33 463.203 240.33ZM472.019 240V224.16H474.67V240H472.019ZM477.965 240V224.16H480.649L487.997 235.325V224.16H490.681V240H487.997L480.649 228.835V240H477.965ZM500.29 240.33C499.263 240.33 498.299 240.15 497.397 239.791C496.502 239.424 495.714 238.889 495.032 238.185C494.357 237.481 493.829 236.619 493.448 235.6C493.066 234.573 492.876 233.4 492.876 232.08C492.876 230.349 493.198 228.872 493.844 227.647C494.489 226.415 495.373 225.473 496.495 224.82C497.617 224.16 498.882 223.83 500.29 223.83C502.24 223.83 503.784 224.285 504.921 225.194C506.065 226.096 506.838 227.365 507.242 229L504.536 229.429C504.235 228.49 503.744 227.742 503.062 227.185C502.38 226.62 501.511 226.338 500.455 226.338C499.391 226.323 498.508 226.554 497.804 227.031C497.1 227.508 496.568 228.179 496.209 229.044C495.857 229.909 495.681 230.921 495.681 232.08C495.681 233.239 495.857 234.247 496.209 235.105C496.561 235.956 497.089 236.619 497.793 237.096C498.504 237.573 499.391 237.818 500.455 237.833C501.254 237.84 501.954 237.697 502.556 237.404C503.157 237.103 503.648 236.652 504.03 236.051C504.411 235.442 504.668 234.683 504.8 233.774H502.006V231.695H507.616C507.63 231.812 507.641 231.985 507.649 232.212C507.656 232.439 507.66 232.575 507.66 232.619C507.66 234.115 507.363 235.446 506.769 236.612C506.182 237.771 505.339 238.68 504.239 239.34C503.139 240 501.822 240.33 500.29 240.33ZM514.493 240V224.16H517.144V240H514.493ZM524.245 240V226.646H519.119V224.16H532.022V226.646H526.896V240H524.245ZM536.652 235.699C536.652 235.193 536.7 234.705 536.795 234.236C536.898 233.759 537.063 233.319 537.29 232.916C537.488 232.527 537.708 232.219 537.95 231.992C538.192 231.757 538.464 231.526 538.764 231.299C539.065 231.064 539.399 230.753 539.765 230.364C540.066 230.034 540.264 229.708 540.359 229.385C540.455 229.055 540.502 228.703 540.502 228.329C540.502 228.087 540.477 227.86 540.425 227.647C540.374 227.434 540.282 227.251 540.15 227.097C539.945 226.826 539.681 226.635 539.358 226.525C539.036 226.408 538.691 226.349 538.324 226.349C538.024 226.349 537.734 226.389 537.455 226.47C537.184 226.543 536.953 226.661 536.762 226.822C536.542 226.998 536.381 227.214 536.278 227.471C536.176 227.728 536.128 228.01 536.135 228.318H533.341C533.415 227.585 533.613 226.906 533.935 226.283C534.265 225.652 534.698 225.15 535.233 224.776C535.651 224.468 536.121 224.237 536.641 224.083C537.169 223.929 537.697 223.852 538.225 223.852C539.032 223.852 539.791 223.977 540.502 224.226C541.221 224.475 541.819 224.886 542.295 225.458C542.625 225.832 542.875 226.265 543.043 226.756C543.219 227.247 543.307 227.746 543.307 228.252C543.307 229.007 543.142 229.697 542.812 230.32C542.49 230.943 542.079 231.519 541.58 232.047C541.346 232.296 541.122 232.516 540.909 232.707C540.697 232.898 540.499 233.085 540.315 233.268C540.139 233.444 539.993 233.631 539.875 233.829C539.67 234.174 539.549 234.467 539.512 234.709C539.476 234.944 539.457 235.274 539.457 235.699H536.652ZM536.674 240V237.085H539.457V240H536.674Z" fill="white"></path> <rect x="20" y="20" width="251" height="40" rx="20" fill="white" fill-opacity="0.3"></rect> <path d="M36.4161 46V35.832H32.4881V34.48H41.7681V35.832H37.8401V46H36.4161ZM43.0419 46V34.48H50.3219V35.832H44.4659V39.44H49.3619V40.792H44.4659V44.648H50.3219V46H43.0419ZM56.5748 46.24C55.4281 46.24 54.4548 45.9867 53.6548 45.48C52.8548 44.9733 52.2441 44.2693 51.8228 43.368C51.4068 42.4667 51.1988 41.424 51.1988 40.24C51.1988 39.056 51.4068 38.0133 51.8228 37.112C52.2441 36.2107 52.8548 35.5067 53.6548 35C54.4548 34.4933 55.4281 34.24 56.5748 34.24C57.9081 34.24 59.0041 34.5787 59.8628 35.256C60.7268 35.9333 61.3214 36.8453 61.6468 37.992L60.1988 38.376C59.9641 37.5173 59.5454 36.84 58.9427 36.344C58.3401 35.848 57.5508 35.6 56.5748 35.6C55.7161 35.6 55.0014 35.7947 54.4308 36.184C53.8601 36.5733 53.4308 37.1173 53.1428 37.816C52.8548 38.5093 52.7081 39.3173 52.7028 40.24C52.6974 41.1573 52.8388 41.9653 53.1268 42.664C53.4148 43.3573 53.8468 43.9013 54.4228 44.296C54.9988 44.6853 55.7161 44.88 56.5748 44.88C57.5508 44.88 58.3401 44.632 58.9427 44.136C59.5454 43.6347 59.9641 42.9573 60.1988 42.104L61.6468 42.488C61.3214 43.6293 60.7268 44.5413 59.8628 45.224C59.0041 45.9013 57.9081 46.24 56.5748 46.24ZM63.4013 46V34.48H64.8253V39.56H70.8893V34.48H72.3133V46H70.8893V40.912H64.8253V46H63.4013ZM74.5575 46V34.48H75.9975L82.0055 43.48V34.48H83.4455V46H82.0055L75.9975 36.992V46H74.5575ZM90.4185 46.24C89.2718 46.24 88.2985 45.9867 87.4985 45.48C86.6985 44.9733 86.0878 44.2693 85.6665 43.368C85.2505 42.4667 85.0425 41.424 85.0425 40.24C85.0425 39.056 85.2505 38.0133 85.6665 37.112C86.0878 36.2107 86.6985 35.5067 87.4985 35C88.2985 34.4933 89.2718 34.24 90.4185 34.24C91.5705 34.24 92.5465 34.4933 93.3465 35C94.1465 35.5067 94.7545 36.2107 95.1705 37.112C95.5865 38.0133 95.7945 39.056 95.7945 40.24C95.7945 41.424 95.5865 42.4667 95.1705 43.368C94.7545 44.2693 94.1465 44.9733 93.3465 45.48C92.5465 45.9867 91.5705 46.24 90.4185 46.24ZM90.4185 44.88C91.2772 44.8853 91.9918 44.6933 92.5625 44.304C93.1385 43.9093 93.5678 43.3627 93.8505 42.664C94.1385 41.9653 94.2825 41.1573 94.2825 40.24C94.2825 39.3173 94.1385 38.5093 93.8505 37.816C93.5678 37.1227 93.1385 36.5813 92.5625 36.192C91.9918 35.8027 91.2772 35.6053 90.4185 35.6C89.5598 35.5947 88.8452 35.7867 88.2745 36.176C87.7092 36.5653 87.2825 37.1093 86.9945 37.808C86.7065 38.5067 86.5598 39.3173 86.5545 40.24C86.5492 41.1573 86.6905 41.9627 86.9785 42.656C87.2665 43.3493 87.6958 43.8933 88.2665 44.288C88.8425 44.6773 89.5598 44.8747 90.4185 44.88ZM97.5613 46V34.48H98.9853V44.648H104.329V46H97.5613ZM110.106 46.24C108.959 46.24 107.986 45.9867 107.186 45.48C106.386 44.9733 105.775 44.2693 105.354 43.368C104.938 42.4667 104.73 41.424 104.73 40.24C104.73 39.056 104.938 38.0133 105.354 37.112C105.775 36.2107 106.386 35.5067 107.186 35C107.986 34.4933 108.959 34.24 110.106 34.24C111.258 34.24 112.234 34.4933 113.034 35C113.834 35.5067 114.442 36.2107 114.858 37.112C115.274 38.0133 115.482 39.056 115.482 40.24C115.482 41.424 115.274 42.4667 114.858 43.368C114.442 44.2693 113.834 44.9733 113.034 45.48C112.234 45.9867 111.258 46.24 110.106 46.24ZM110.106 44.88C110.965 44.8853 111.679 44.6933 112.25 44.304C112.826 43.9093 113.255 43.3627 113.538 42.664C113.826 41.9653 113.97 41.1573 113.97 40.24C113.97 39.3173 113.826 38.5093 113.538 37.816C113.255 37.1227 112.826 36.5813 112.25 36.192C111.679 35.8027 110.965 35.6053 110.106 35.6C109.247 35.5947 108.533 35.7867 107.962 36.176C107.397 36.5653 106.97 37.1093 106.682 37.808C106.394 38.5067 106.247 39.3173 106.242 40.24C106.237 41.1573 106.378 41.9627 106.666 42.656C106.954 43.3493 107.383 43.8933 107.954 44.288C108.53 44.6773 109.247 44.8747 110.106 44.88ZM121.753 46.24C120.963 46.24 120.243 46.1013 119.593 45.824C118.942 45.5467 118.382 45.1493 117.913 44.632C117.443 44.1093 117.081 43.48 116.825 42.744C116.574 42.0027 116.449 41.168 116.449 40.24C116.449 39.0133 116.667 37.952 117.105 37.056C117.542 36.16 118.158 35.4693 118.953 34.984C119.747 34.4933 120.681 34.248 121.753 34.248C123.043 34.248 124.083 34.5493 124.873 35.152C125.662 35.7493 126.206 36.568 126.505 37.608L125.065 37.904C124.825 37.2053 124.43 36.648 123.881 36.232C123.331 35.816 122.646 35.608 121.825 35.608C120.966 35.6027 120.251 35.7947 119.681 36.184C119.115 36.568 118.689 37.1093 118.401 37.808C118.113 38.5067 117.966 39.3173 117.961 40.24C117.955 41.1573 118.097 41.9627 118.385 42.656C118.673 43.3493 119.102 43.8933 119.673 44.288C120.249 44.6773 120.966 44.8747 121.825 44.88C122.566 44.8853 123.19 44.744 123.697 44.456C124.203 44.168 124.595 43.752 124.873 43.208C125.15 42.664 125.318 42.0107 125.377 41.248H122.929V40.072H126.881C126.897 40.1787 126.905 40.3067 126.905 40.456C126.91 40.6 126.913 40.6987 126.913 40.752C126.913 41.8027 126.715 42.744 126.321 43.576C125.931 44.4027 125.353 45.0533 124.585 45.528C123.822 46.0027 122.878 46.24 121.753 46.24ZM130.786 46V41.208L126.906 34.48H128.562L131.506 39.576L134.442 34.48H136.098L132.226 41.208V46H130.786ZM143.52 46.24C142.88 46.24 142.283 46.1467 141.728 45.96C141.174 45.7733 140.71 45.48 140.336 45.08C140.048 44.76 139.832 44.408 139.688 44.024C139.55 43.6347 139.472 43.224 139.456 42.792C139.456 42.3707 139.518 41.96 139.64 41.56C139.763 41.1547 139.958 40.7947 140.224 40.48C140.363 40.3093 140.518 40.1653 140.688 40.048C140.864 39.9253 141.04 39.8213 141.216 39.736C140.848 39.3413 140.566 38.9707 140.368 38.624C140.176 38.2773 140.08 37.8587 140.08 37.368C140.08 36.744 140.24 36.1813 140.56 35.68C140.886 35.1733 141.328 34.8027 141.888 34.568C142.16 34.4507 142.438 34.3707 142.72 34.328C143.008 34.28 143.288 34.256 143.56 34.256C144.019 34.256 144.464 34.32 144.896 34.448C145.328 34.576 145.696 34.784 146 35.072C146.203 35.2427 146.376 35.44 146.52 35.664C146.664 35.8827 146.776 36.112 146.856 36.352L145.464 36.712C145.363 36.44 145.195 36.2107 144.96 36.024C144.774 35.864 144.555 35.7547 144.304 35.696C144.059 35.6373 143.811 35.608 143.56 35.608C143.144 35.608 142.768 35.688 142.432 35.848C142.134 35.992 141.91 36.1947 141.76 36.456C141.611 36.712 141.536 37.016 141.536 37.368C141.536 37.672 141.587 37.9227 141.688 38.12C141.795 38.312 141.942 38.5173 142.128 38.736C142.24 38.8533 142.366 38.9787 142.504 39.112C142.648 39.24 142.795 39.3733 142.944 39.512L146.336 42.664C146.352 42.5307 146.363 42.3947 146.368 42.256C146.374 42.1173 146.376 41.984 146.376 41.856L146.368 40.264H147.672V42.136C147.672 42.5147 147.659 42.8373 147.632 43.104C147.611 43.3707 147.574 43.592 147.52 43.768L148.984 45.12L148.056 46.112L146.84 44.96C146.632 45.1947 146.384 45.4 146.096 45.576C145.808 45.752 145.52 45.8853 145.232 45.976C144.96 46.0773 144.68 46.1467 144.392 46.184C144.104 46.2213 143.814 46.24 143.52 46.24ZM143.552 44.872C143.814 44.872 144.051 44.856 144.264 44.824C144.478 44.792 144.68 44.7307 144.872 44.64C145.128 44.5173 145.326 44.4 145.464 44.288C145.603 44.176 145.718 44.072 145.808 43.976L142.296 40.76C142.104 40.824 141.923 40.9093 141.752 41.016C141.587 41.1227 141.443 41.248 141.32 41.392C141.182 41.5627 141.078 41.7627 141.008 41.992C140.944 42.2213 140.912 42.464 140.912 42.72C140.918 42.992 140.963 43.2427 141.048 43.472C141.134 43.7013 141.254 43.9067 141.408 44.088C141.643 44.36 141.96 44.56 142.36 44.688C142.76 44.8107 143.158 44.872 143.552 44.872ZM157.583 46.24C156.767 46.24 156.031 46.1013 155.375 45.824C154.724 45.5467 154.186 45.152 153.759 44.64C153.338 44.1227 153.063 43.512 152.935 42.808L154.407 42.576C154.594 43.3013 154.98 43.8693 155.567 44.28C156.159 44.6853 156.855 44.888 157.655 44.888C158.172 44.888 158.639 44.808 159.055 44.648C159.476 44.4827 159.81 44.248 160.055 43.944C160.3 43.64 160.423 43.28 160.423 42.864C160.423 42.608 160.378 42.3893 160.287 42.208C160.202 42.0213 160.082 41.864 159.927 41.736C159.778 41.6027 159.607 41.4907 159.415 41.4C159.223 41.3093 159.023 41.2347 158.815 41.176L155.879 40.304C155.559 40.208 155.25 40.088 154.951 39.944C154.652 39.7947 154.386 39.6107 154.151 39.392C153.916 39.168 153.73 38.9013 153.591 38.592C153.452 38.2773 153.383 37.9067 153.383 37.48C153.383 36.7973 153.559 36.216 153.911 35.736C154.268 35.2507 154.751 34.88 155.359 34.624C155.967 34.368 156.652 34.2427 157.415 34.248C158.188 34.2533 158.879 34.392 159.487 34.664C160.1 34.9307 160.607 35.3147 161.007 35.816C161.412 36.3173 161.684 36.9173 161.823 37.616L160.311 37.88C160.231 37.4107 160.052 37.008 159.775 36.672C159.503 36.3307 159.162 36.0693 158.751 35.888C158.34 35.7013 157.89 35.6053 157.399 35.6C156.93 35.5947 156.506 35.6693 156.127 35.824C155.748 35.9787 155.447 36.1947 155.223 36.472C154.999 36.744 154.887 37.0587 154.887 37.416C154.887 37.768 154.988 38.0533 155.191 38.272C155.394 38.4853 155.642 38.656 155.935 38.784C156.234 38.9067 156.524 39.008 156.807 39.088L158.999 39.72C159.25 39.7893 159.538 39.8853 159.863 40.008C160.194 40.1307 160.514 40.304 160.823 40.528C161.132 40.7467 161.388 41.04 161.591 41.408C161.794 41.7707 161.895 42.2293 161.895 42.784C161.895 43.3387 161.783 43.832 161.559 44.264C161.34 44.696 161.034 45.0587 160.639 45.352C160.244 45.64 159.786 45.8587 159.263 46.008C158.74 46.1627 158.18 46.24 157.583 46.24ZM168.309 46.24C167.162 46.24 166.189 45.9867 165.389 45.48C164.589 44.9733 163.978 44.2693 163.557 43.368C163.141 42.4667 162.933 41.424 162.933 40.24C162.933 39.056 163.141 38.0133 163.557 37.112C163.978 36.2107 164.589 35.5067 165.389 35C166.189 34.4933 167.162 34.24 168.309 34.24C169.461 34.24 170.437 34.4933 171.237 35C172.037 35.5067 172.645 36.2107 173.061 37.112C173.477 38.0133 173.685 39.056 173.685 40.24C173.685 41.424 173.477 42.4667 173.061 43.368C172.645 44.2693 172.037 44.9733 171.237 45.48C170.437 45.9867 169.461 46.24 168.309 46.24ZM168.309 44.88C169.168 44.8853 169.882 44.6933 170.453 44.304C171.029 43.9093 171.458 43.3627 171.741 42.664C172.029 41.9653 172.173 41.1573 172.173 40.24C172.173 39.3173 172.029 38.5093 171.741 37.816C171.458 37.1227 171.029 36.5813 170.453 36.192C169.882 35.8027 169.168 35.6053 168.309 35.6C167.45 35.5947 166.736 35.7867 166.165 36.176C165.6 36.5653 165.173 37.1093 164.885 37.808C164.597 38.5067 164.45 39.3173 164.445 40.24C164.44 41.1573 164.581 41.9627 164.869 42.656C165.157 43.3493 165.586 43.8933 166.157 44.288C166.733 44.6773 167.45 44.8747 168.309 44.88ZM180.028 46.24C178.881 46.24 177.908 45.9867 177.108 45.48C176.308 44.9733 175.697 44.2693 175.276 43.368C174.86 42.4667 174.652 41.424 174.652 40.24C174.652 39.056 174.86 38.0133 175.276 37.112C175.697 36.2107 176.308 35.5067 177.108 35C177.908 34.4933 178.881 34.24 180.028 34.24C181.361 34.24 182.457 34.5787 183.316 35.256C184.18 35.9333 184.775 36.8453 185.1 37.992L183.652 38.376C183.417 37.5173 182.999 36.84 182.396 36.344C181.793 35.848 181.004 35.6 180.028 35.6C179.169 35.6 178.455 35.7947 177.884 36.184C177.313 36.5733 176.884 37.1173 176.596 37.816C176.308 38.5093 176.161 39.3173 176.156 40.24C176.151 41.1573 176.292 41.9653 176.58 42.664C176.868 43.3573 177.3 43.9013 177.876 44.296C178.452 44.6853 179.169 44.88 180.028 44.88C181.004 44.88 181.793 44.632 182.396 44.136C182.999 43.6347 183.417 42.9573 183.652 42.104L185.1 42.488C184.775 43.6293 184.18 44.5413 183.316 45.224C182.457 45.9013 181.361 46.24 180.028 46.24ZM187.014 46V34.48H188.438V46H187.014ZM190.039 46L193.895 34.48H195.879L199.735 46H198.255L194.647 35.312H195.095L191.519 46H190.039ZM191.895 43.304V41.968H197.879V43.304H191.895ZM201.327 46V34.48H202.751V44.648H208.095V46H201.327ZM211.854 46V34.48H213.15L217.502 43.656L221.83 34.48H223.142V45.992H221.79V37.608L217.878 46H217.118L213.206 37.608V46H211.854ZM225.386 46V34.48H232.666V35.832H226.81V39.44H231.706V40.792H226.81V44.648H232.666V46H225.386ZM234.589 46V34.48H238.141C238.258 34.48 238.463 34.4827 238.757 34.488C239.05 34.4933 239.33 34.5147 239.597 34.552C240.487 34.6693 241.231 34.9947 241.829 35.528C242.431 36.056 242.885 36.728 243.189 37.544C243.493 38.36 243.645 39.2587 243.645 40.24C243.645 41.2213 243.493 42.12 243.189 42.936C242.885 43.752 242.431 44.4267 241.829 44.96C241.231 45.488 240.487 45.8107 239.597 45.928C239.33 45.96 239.047 45.9813 238.749 45.992C238.455 45.9973 238.253 46 238.141 46H234.589ZM236.053 44.64H238.141C238.343 44.64 238.57 44.6347 238.821 44.624C239.071 44.608 239.29 44.584 239.477 44.552C240.106 44.4347 240.615 44.1707 241.005 43.76C241.394 43.3493 241.679 42.8373 241.861 42.224C242.042 41.6107 242.133 40.9493 242.133 40.24C242.133 39.5147 242.039 38.8453 241.853 38.232C241.671 37.6187 241.386 37.1093 240.997 36.704C240.607 36.2987 240.101 36.04 239.477 35.928C239.29 35.8907 239.069 35.8667 238.813 35.856C238.557 35.8453 238.333 35.84 238.141 35.84H236.053V44.64ZM245.639 46V34.48H247.063V46H245.639ZM248.664 46L252.52 34.48H254.504L258.36 46H256.88L253.272 35.312H253.72L250.144 46H248.664ZM250.52 43.304V41.968H256.504V43.304H250.52Z" fill="white"></path> <defs> <linearGradient id="paint0_linear_160_295" x1="300" y1="0" x2="300" y2="400" gradientUnits="userSpaceOnUse"> <stop stop-color="#9D50BB"></stop> <stop offset="1" stop-color="#6E48AA"></stop> </linearGradient> </defs> </svg> 