<?xml version="1.0" encoding="UTF-8"?> <svg xmlns="http://www.w3.org/2000/svg" width="600" height="400" viewBox="0 0 600 400" fill="none"> <rect width="600" height="400" rx="20" fill="url(#paint0_linear_131_124)"></rect> <path d="M59.0549 209L54.4239 193.16H57.2069L60.3639 204.6L63.5099 193.182L66.2929 193.16L69.4499 204.6L72.5959 193.16H75.3789L70.7589 209H68.1409L64.8959 197.736L61.6729 209H59.0549ZM77.1738 209V193.16H79.8248V199.826H87.3268V193.16H89.9668V209H87.3268V202.312H79.8248V209H77.1738ZM91.9507 209L96.9447 193.16H100.828L105.822 209H103.094L98.5617 194.788H99.1557L94.6787 209H91.9507ZM94.7337 205.568V203.093H103.05V205.568H94.7337ZM110.306 209V195.646H105.18V193.16H118.083V195.646H112.957V209H110.306ZM122.48 209L127.474 193.16H131.357L136.351 209H133.623L129.091 194.788H129.685L125.208 209H122.48ZM125.263 205.568V203.093H133.579V205.568H125.263ZM138.34 209V193.16H144.885C145.039 193.16 145.237 193.167 145.479 193.182C145.721 193.189 145.944 193.211 146.15 193.248C147.066 193.387 147.822 193.692 148.416 194.161C149.017 194.63 149.461 195.224 149.747 195.943C150.04 196.654 150.187 197.446 150.187 198.319C150.187 199.61 149.86 200.721 149.208 201.652C148.555 202.576 147.554 203.148 146.205 203.368L145.072 203.467H140.991V209H138.34ZM147.437 209L144.313 202.554L147.008 201.96L150.44 209H147.437ZM140.991 200.992H144.775C144.921 200.992 145.086 200.985 145.27 200.97C145.453 200.955 145.622 200.926 145.776 200.882C146.216 200.772 146.56 200.578 146.81 200.299C147.066 200.02 147.246 199.705 147.349 199.353C147.459 199.001 147.514 198.656 147.514 198.319C147.514 197.982 147.459 197.637 147.349 197.285C147.246 196.926 147.066 196.607 146.81 196.328C146.56 196.049 146.216 195.855 145.776 195.745C145.622 195.701 145.453 195.675 145.27 195.668C145.086 195.653 144.921 195.646 144.775 195.646H140.991V200.992ZM152.863 209V193.16H163.093V195.646H155.514V199.551H161.773V202.037H155.514V206.514H163.093V209H152.863ZM173.943 209V195.646H168.817V193.16H181.72V195.646H176.594V209H173.943ZM183.478 209V193.16H186.129V199.826H193.631V193.16H196.271V209H193.631V202.312H186.129V209H183.478ZM199.355 209V193.16H209.585V195.646H202.006V199.551H208.265V202.037H202.006V206.514H209.585V209H199.355ZM216.629 209V193.16H223.174C223.328 193.16 223.526 193.167 223.768 193.182C224.01 193.189 224.234 193.211 224.439 193.248C225.356 193.387 226.111 193.692 226.705 194.161C227.306 194.63 227.75 195.224 228.036 195.943C228.329 196.654 228.476 197.446 228.476 198.319C228.476 199.184 228.329 199.976 228.036 200.695C227.743 201.406 227.295 201.997 226.694 202.466C226.1 202.935 225.348 203.24 224.439 203.379C224.234 203.408 224.006 203.43 223.757 203.445C223.515 203.46 223.321 203.467 223.174 203.467H219.28V209H216.629ZM219.28 200.992H223.064C223.211 200.992 223.376 200.985 223.559 200.97C223.742 200.955 223.911 200.926 224.065 200.882C224.505 200.772 224.85 200.578 225.099 200.299C225.356 200.02 225.535 199.705 225.638 199.353C225.748 199.001 225.803 198.656 225.803 198.319C225.803 197.982 225.748 197.637 225.638 197.285C225.535 196.926 225.356 196.607 225.099 196.328C224.85 196.049 224.505 195.855 224.065 195.745C223.911 195.701 223.742 195.675 223.559 195.668C223.376 195.653 223.211 195.646 223.064 195.646H219.28V200.992ZM230.68 209V193.16H237.225C237.379 193.16 237.577 193.167 237.819 193.182C238.061 193.189 238.284 193.211 238.49 193.248C239.406 193.387 240.162 193.692 240.756 194.161C241.357 194.63 241.801 195.224 242.087 195.943C242.38 196.654 242.527 197.446 242.527 198.319C242.527 199.61 242.2 200.721 241.548 201.652C240.895 202.576 239.894 203.148 238.545 203.368L237.412 203.467H233.331V209H230.68ZM239.777 209L236.653 202.554L239.348 201.96L242.78 209H239.777ZM233.331 200.992H237.115C237.261 200.992 237.426 200.985 237.61 200.97C237.793 200.955 237.962 200.926 238.116 200.882C238.556 200.772 238.9 200.578 239.15 200.299C239.406 200.02 239.586 199.705 239.689 199.353C239.799 199.001 239.854 198.656 239.854 198.319C239.854 197.982 239.799 197.637 239.689 197.285C239.586 196.926 239.406 196.607 239.15 196.328C238.9 196.049 238.556 195.855 238.116 195.745C237.962 195.701 237.793 195.675 237.61 195.668C237.426 195.653 237.261 195.646 237.115 195.646H233.331V200.992ZM251.902 209.33C250.318 209.33 248.961 208.985 247.832 208.296C246.703 207.599 245.834 206.631 245.225 205.392C244.624 204.153 244.323 202.715 244.323 201.08C244.323 199.445 244.624 198.007 245.225 196.768C245.834 195.529 246.703 194.564 247.832 193.875C248.961 193.178 250.318 192.83 251.902 192.83C253.486 192.83 254.843 193.178 255.972 193.875C257.109 194.564 257.978 195.529 258.579 196.768C259.188 198.007 259.492 199.445 259.492 201.08C259.492 202.715 259.188 204.153 258.579 205.392C257.978 206.631 257.109 207.599 255.972 208.296C254.843 208.985 253.486 209.33 251.902 209.33ZM251.902 206.833C252.965 206.84 253.849 206.606 254.553 206.129C255.264 205.652 255.796 204.981 256.148 204.116C256.507 203.251 256.687 202.239 256.687 201.08C256.687 199.921 256.507 198.917 256.148 198.066C255.796 197.208 255.264 196.541 254.553 196.064C253.849 195.587 252.965 195.342 251.902 195.327C250.839 195.32 249.955 195.554 249.251 196.031C248.547 196.508 248.015 197.179 247.656 198.044C247.304 198.909 247.128 199.921 247.128 201.08C247.128 202.239 247.304 203.247 247.656 204.105C248.008 204.956 248.536 205.619 249.24 206.096C249.951 206.573 250.839 206.818 251.902 206.833ZM267.545 209.33C266.386 209.33 265.341 209.128 264.41 208.725C263.486 208.322 262.723 207.746 262.122 206.998C261.528 206.243 261.15 205.348 260.989 204.314L263.739 203.896C263.973 204.835 264.454 205.561 265.18 206.074C265.913 206.587 266.756 206.844 267.71 206.844C268.274 206.844 268.806 206.756 269.305 206.58C269.803 206.404 270.207 206.147 270.515 205.81C270.83 205.473 270.988 205.058 270.988 204.567C270.988 204.347 270.951 204.145 270.878 203.962C270.804 203.771 270.694 203.603 270.548 203.456C270.408 203.309 270.225 203.177 269.998 203.06C269.778 202.935 269.521 202.829 269.228 202.741L265.136 201.531C264.784 201.428 264.402 201.293 263.992 201.124C263.588 200.948 263.203 200.71 262.837 200.409C262.477 200.101 262.18 199.712 261.946 199.243C261.718 198.766 261.605 198.18 261.605 197.483C261.605 196.464 261.861 195.609 262.375 194.92C262.895 194.223 263.592 193.703 264.465 193.358C265.345 193.013 266.32 192.845 267.391 192.852C268.476 192.859 269.444 193.046 270.295 193.413C271.145 193.772 271.857 194.297 272.429 194.986C273.001 195.675 273.404 196.508 273.639 197.483L270.79 197.978C270.672 197.421 270.445 196.948 270.108 196.559C269.778 196.163 269.371 195.862 268.887 195.657C268.41 195.452 267.9 195.342 267.358 195.327C266.83 195.32 266.338 195.4 265.884 195.569C265.436 195.73 265.073 195.965 264.795 196.273C264.523 196.581 264.388 196.94 264.388 197.351C264.388 197.74 264.505 198.059 264.74 198.308C264.974 198.55 265.264 198.744 265.609 198.891C265.961 199.03 266.316 199.148 266.676 199.243L269.514 200.035C269.902 200.138 270.339 200.277 270.823 200.453C271.307 200.629 271.772 200.875 272.22 201.19C272.667 201.505 273.034 201.92 273.32 202.433C273.613 202.946 273.76 203.599 273.76 204.391C273.76 205.212 273.587 205.935 273.243 206.558C272.905 207.174 272.447 207.687 271.868 208.098C271.288 208.509 270.625 208.817 269.877 209.022C269.136 209.227 268.359 209.33 267.545 209.33ZM287.244 209.33C285.66 209.33 284.303 208.985 283.174 208.296C282.045 207.599 281.176 206.631 280.567 205.392C279.966 204.153 279.665 202.715 279.665 201.08C279.665 199.445 279.966 198.007 280.567 196.768C281.176 195.529 282.045 194.564 283.174 193.875C284.303 193.178 285.66 192.83 287.244 192.83C288.828 192.83 290.185 193.178 291.314 193.875C292.451 194.564 293.32 195.529 293.921 196.768C294.53 198.007 294.834 199.445 294.834 201.08C294.834 202.715 294.53 204.153 293.921 205.392C293.32 206.631 292.451 207.599 291.314 208.296C290.185 208.985 288.828 209.33 287.244 209.33ZM287.244 206.833C288.307 206.84 289.191 206.606 289.895 206.129C290.606 205.652 291.138 204.981 291.49 204.116C291.849 203.251 292.029 202.239 292.029 201.08C292.029 199.921 291.849 198.917 291.49 198.066C291.138 197.208 290.606 196.541 289.895 196.064C289.191 195.587 288.307 195.342 287.244 195.327C286.181 195.32 285.297 195.554 284.593 196.031C283.889 196.508 283.357 197.179 282.998 198.044C282.646 198.909 282.47 199.921 282.47 201.08C282.47 202.239 282.646 203.247 282.998 204.105C283.35 204.956 283.878 205.619 284.582 206.096C285.293 206.573 286.181 206.818 287.244 206.833ZM297.023 209V193.16H306.56V195.811H299.674V199.76H305.24V202.4H299.674V209H297.023ZM319.323 209.33C318.062 209.33 316.951 209.073 315.99 208.56C315.037 208.047 314.289 207.324 313.746 206.393C313.211 205.462 312.943 204.369 312.943 203.115V193.182L315.627 193.16V203.049C315.627 203.643 315.726 204.175 315.924 204.644C316.13 205.113 316.405 205.513 316.749 205.843C317.094 206.166 317.49 206.411 317.937 206.58C318.385 206.749 318.847 206.833 319.323 206.833C319.815 206.833 320.28 206.749 320.72 206.58C321.168 206.404 321.564 206.155 321.908 205.832C322.253 205.502 322.524 205.102 322.722 204.633C322.92 204.164 323.019 203.636 323.019 203.049V193.16H325.703V203.115C325.703 204.369 325.432 205.462 324.889 206.393C324.354 207.324 323.606 208.047 322.645 208.56C321.692 209.073 320.585 209.33 319.323 209.33ZM333.974 209.33C332.816 209.33 331.771 209.128 330.839 208.725C329.915 208.322 329.153 207.746 328.551 206.998C327.957 206.243 327.58 205.348 327.418 204.314L330.168 203.896C330.403 204.835 330.883 205.561 331.609 206.074C332.343 206.587 333.186 206.844 334.139 206.844C334.704 206.844 335.236 206.756 335.734 206.58C336.233 206.404 336.636 206.147 336.944 205.81C337.26 205.473 337.417 205.058 337.417 204.567C337.417 204.347 337.381 204.145 337.307 203.962C337.234 203.771 337.124 203.603 336.977 203.456C336.838 203.309 336.655 203.177 336.427 203.06C336.207 202.935 335.951 202.829 335.657 202.741L331.565 201.531C331.213 201.428 330.832 201.293 330.421 201.124C330.018 200.948 329.633 200.71 329.266 200.409C328.907 200.101 328.61 199.712 328.375 199.243C328.148 198.766 328.034 198.18 328.034 197.483C328.034 196.464 328.291 195.609 328.804 194.92C329.325 194.223 330.022 193.703 330.894 193.358C331.774 193.013 332.75 192.845 333.82 192.852C334.906 192.859 335.874 193.046 336.724 193.413C337.575 193.772 338.286 194.297 338.858 194.986C339.43 195.675 339.834 196.508 340.068 197.483L337.219 197.978C337.102 197.421 336.875 196.948 336.537 196.559C336.207 196.163 335.8 195.862 335.316 195.657C334.84 195.452 334.33 195.342 333.787 195.327C333.259 195.32 332.768 195.4 332.313 195.569C331.866 195.73 331.503 195.965 331.224 196.273C330.953 196.581 330.817 196.94 330.817 197.351C330.817 197.74 330.935 198.059 331.169 198.308C331.404 198.55 331.694 198.744 332.038 198.891C332.39 199.03 332.746 199.148 333.105 199.243L335.943 200.035C336.332 200.138 336.768 200.277 337.252 200.453C337.736 200.629 338.202 200.875 338.649 201.19C339.097 201.505 339.463 201.92 339.749 202.433C340.043 202.946 340.189 203.599 340.189 204.391C340.189 205.212 340.017 205.935 339.672 206.558C339.335 207.174 338.877 207.687 338.297 208.098C337.718 208.509 337.054 208.817 336.306 209.022C335.566 209.227 334.788 209.33 333.974 209.33ZM342.79 209V193.16H345.441V209H342.79ZM348.736 209V193.16H351.42L358.768 204.325V193.16H361.452V209H358.768L351.42 197.835V209H348.736ZM371.061 209.33C370.035 209.33 369.07 209.15 368.168 208.791C367.274 208.424 366.485 207.889 365.803 207.185C365.129 206.481 364.601 205.619 364.219 204.6C363.838 203.573 363.647 202.4 363.647 201.08C363.647 199.349 363.97 197.872 364.615 196.647C365.261 195.415 366.144 194.473 367.266 193.82C368.388 193.16 369.653 192.83 371.061 192.83C373.012 192.83 374.556 193.285 375.692 194.194C376.836 195.096 377.61 196.365 378.013 198L375.307 198.429C375.007 197.49 374.515 196.742 373.833 196.185C373.151 195.62 372.282 195.338 371.226 195.338C370.163 195.323 369.279 195.554 368.575 196.031C367.871 196.508 367.34 197.179 366.98 198.044C366.628 198.909 366.452 199.921 366.452 201.08C366.452 202.239 366.628 203.247 366.98 204.105C367.332 204.956 367.86 205.619 368.564 206.096C369.276 206.573 370.163 206.818 371.226 206.833C372.026 206.84 372.726 206.697 373.327 206.404C373.929 206.103 374.42 205.652 374.801 205.051C375.183 204.442 375.439 203.683 375.571 202.774H372.777V200.695H378.387C378.402 200.812 378.413 200.985 378.42 201.212C378.428 201.439 378.431 201.575 378.431 201.619C378.431 203.115 378.134 204.446 377.54 205.612C376.954 206.771 376.11 207.68 375.01 208.34C373.91 209 372.594 209.33 371.061 209.33ZM390.908 209.33C389.749 209.33 388.704 209.128 387.773 208.725C386.849 208.322 386.086 207.746 385.485 206.998C384.891 206.243 384.513 205.348 384.352 204.314L387.102 203.896C387.337 204.835 387.817 205.561 388.543 206.074C389.276 206.587 390.12 206.844 391.073 206.844C391.638 206.844 392.169 206.756 392.668 206.58C393.167 206.404 393.57 206.147 393.878 205.81C394.193 205.473 394.351 205.058 394.351 204.567C394.351 204.347 394.314 204.145 394.241 203.962C394.168 203.771 394.058 203.603 393.911 203.456C393.772 203.309 393.588 203.177 393.361 203.06C393.141 202.935 392.884 202.829 392.591 202.741L388.499 201.531C388.147 201.428 387.766 201.293 387.355 201.124C386.952 200.948 386.567 200.71 386.2 200.409C385.841 200.101 385.544 199.712 385.309 199.243C385.082 198.766 384.968 198.18 384.968 197.483C384.968 196.464 385.225 195.609 385.738 194.92C386.259 194.223 386.955 193.703 387.828 193.358C388.708 193.013 389.683 192.845 390.754 192.852C391.839 192.859 392.807 193.046 393.658 193.413C394.509 193.772 395.22 194.297 395.792 194.986C396.364 195.675 396.767 196.508 397.002 197.483L394.153 197.978C394.036 197.421 393.808 196.948 393.471 196.559C393.141 196.163 392.734 195.862 392.25 195.657C391.773 195.452 391.264 195.342 390.721 195.327C390.193 195.32 389.702 195.4 389.247 195.569C388.8 195.73 388.437 195.965 388.158 196.273C387.887 196.581 387.751 196.94 387.751 197.351C387.751 197.74 387.868 198.059 388.103 198.308C388.338 198.55 388.627 198.744 388.972 198.891C389.324 199.03 389.68 199.148 390.039 199.243L392.877 200.035C393.266 200.138 393.702 200.277 394.186 200.453C394.67 200.629 395.136 200.875 395.583 201.19C396.03 201.505 396.397 201.92 396.683 202.433C396.976 202.946 397.123 203.599 397.123 204.391C397.123 205.212 396.951 205.935 396.606 206.558C396.269 207.174 395.81 207.687 395.231 208.098C394.652 208.509 393.988 208.817 393.24 209.022C392.499 209.227 391.722 209.33 390.908 209.33ZM406.203 209.33C404.619 209.33 403.262 208.985 402.133 208.296C401.004 207.599 400.135 206.631 399.526 205.392C398.925 204.153 398.624 202.715 398.624 201.08C398.624 199.445 398.925 198.007 399.526 196.768C400.135 195.529 401.004 194.564 402.133 193.875C403.262 193.178 404.619 192.83 406.203 192.83C407.787 192.83 409.144 193.178 410.273 193.875C411.41 194.564 412.279 195.529 412.88 196.768C413.489 198.007 413.793 199.445 413.793 201.08C413.793 202.715 413.489 204.153 412.88 205.392C412.279 206.631 411.41 207.599 410.273 208.296C409.144 208.985 407.787 209.33 406.203 209.33ZM406.203 206.833C407.266 206.84 408.15 206.606 408.854 206.129C409.565 205.652 410.097 204.981 410.449 204.116C410.808 203.251 410.988 202.239 410.988 201.08C410.988 199.921 410.808 198.917 410.449 198.066C410.097 197.208 409.565 196.541 408.854 196.064C408.15 195.587 407.266 195.342 406.203 195.327C405.14 195.32 404.256 195.554 403.552 196.031C402.848 196.508 402.316 197.179 401.957 198.044C401.605 198.909 401.429 199.921 401.429 201.08C401.429 202.239 401.605 203.247 401.957 204.105C402.309 204.956 402.837 205.619 403.541 206.096C404.252 206.573 405.14 206.818 406.203 206.833ZM422.681 209.33C421.097 209.33 419.741 208.985 418.611 208.296C417.482 207.599 416.613 206.631 416.004 205.392C415.403 204.153 415.102 202.715 415.102 201.08C415.102 199.445 415.403 198.007 416.004 196.768C416.613 195.529 417.482 194.564 418.611 193.875C419.741 193.178 421.097 192.83 422.681 192.83C424.507 192.83 426.029 193.288 427.246 194.205C428.464 195.114 429.318 196.343 429.809 197.89L427.136 198.627C426.828 197.593 426.304 196.786 425.563 196.207C424.823 195.62 423.862 195.327 422.681 195.327C421.618 195.327 420.731 195.565 420.019 196.042C419.315 196.519 418.784 197.19 418.424 198.055C418.072 198.913 417.893 199.921 417.885 201.08C417.885 202.239 418.061 203.251 418.413 204.116C418.773 204.974 419.308 205.641 420.019 206.118C420.731 206.595 421.618 206.833 422.681 206.833C423.862 206.833 424.823 206.54 425.563 205.953C426.304 205.366 426.828 204.56 427.136 203.533L429.809 204.27C429.318 205.817 428.464 207.049 427.246 207.966C426.029 208.875 424.507 209.33 422.681 209.33ZM432.445 209V193.16H435.096V209H432.445ZM437.291 209L442.285 193.16H446.168L451.162 209H448.434L443.902 194.788H444.496L440.019 209H437.291ZM440.074 205.568V203.093H448.39V205.568H440.074ZM453.37 209V193.16H456.021V206.514H463.017V209H453.37ZM468.189 209V193.16H470.576L476.054 204.38L481.532 193.16H483.919V209H481.444V198.847L476.582 209H475.526L470.675 198.847V209H468.189ZM487.01 209V193.16H497.24V195.646H489.661V199.551H495.92V202.037H489.661V206.514H497.24V209H487.01ZM499.879 209V193.16H504.928C505.06 193.16 505.32 193.164 505.709 193.171C506.105 193.178 506.486 193.204 506.853 193.248C508.107 193.409 509.167 193.857 510.032 194.59C510.905 195.316 511.565 196.244 512.012 197.373C512.459 198.502 512.683 199.738 512.683 201.08C512.683 202.422 512.459 203.658 512.012 204.787C511.565 205.916 510.905 206.848 510.032 207.581C509.167 208.307 508.107 208.751 506.853 208.912C506.494 208.956 506.116 208.982 505.72 208.989C505.324 208.996 505.06 209 504.928 209H499.879ZM502.574 206.503H504.928C505.148 206.503 505.427 206.496 505.764 206.481C506.109 206.466 506.413 206.433 506.677 206.382C507.425 206.243 508.034 205.909 508.503 205.381C508.972 204.853 509.317 204.211 509.537 203.456C509.764 202.701 509.878 201.909 509.878 201.08C509.878 200.222 509.764 199.415 509.537 198.66C509.31 197.905 508.958 197.27 508.481 196.757C508.012 196.244 507.41 195.917 506.677 195.778C506.413 195.719 506.109 195.686 505.764 195.679C505.427 195.664 505.148 195.657 504.928 195.657H502.574V206.503ZM515.503 209V193.16H518.154V209H515.503ZM520.349 209L525.343 193.16H529.226L534.22 209H531.492L526.96 194.788H527.554L523.077 209H520.349ZM523.132 205.568V203.093H531.448V205.568H523.132ZM539.08 204.699C539.08 204.193 539.128 203.705 539.223 203.236C539.326 202.759 539.491 202.319 539.718 201.916C539.916 201.527 540.136 201.219 540.378 200.992C540.62 200.757 540.891 200.526 541.192 200.299C541.493 200.064 541.826 199.753 542.193 199.364C542.494 199.034 542.692 198.708 542.787 198.385C542.882 198.055 542.93 197.703 542.93 197.329C542.93 197.087 542.904 196.86 542.853 196.647C542.802 196.434 542.71 196.251 542.578 196.097C542.373 195.826 542.109 195.635 541.786 195.525C541.463 195.408 541.119 195.349 540.752 195.349C540.451 195.349 540.162 195.389 539.883 195.47C539.612 195.543 539.381 195.661 539.19 195.822C538.97 195.998 538.809 196.214 538.706 196.471C538.603 196.728 538.556 197.01 538.563 197.318H535.769C535.842 196.585 536.04 195.906 536.363 195.283C536.693 194.652 537.126 194.15 537.661 193.776C538.079 193.468 538.548 193.237 539.069 193.083C539.597 192.929 540.125 192.852 540.653 192.852C541.46 192.852 542.219 192.977 542.93 193.226C543.649 193.475 544.246 193.886 544.723 194.458C545.053 194.832 545.302 195.265 545.471 195.756C545.647 196.247 545.735 196.746 545.735 197.252C545.735 198.007 545.57 198.697 545.24 199.32C544.917 199.943 544.507 200.519 544.008 201.047C543.773 201.296 543.55 201.516 543.337 201.707C543.124 201.898 542.926 202.085 542.743 202.268C542.567 202.444 542.42 202.631 542.303 202.829C542.098 203.174 541.977 203.467 541.94 203.709C541.903 203.944 541.885 204.274 541.885 204.699H539.08ZM539.102 209V206.085H541.885V209H539.102Z" fill="white"></path> <rect x="20" y="20" width="251" height="40" rx="20" fill="white" fill-opacity="0.3"></rect> <path d="M36.4161 46V35.832H32.4881V34.48H41.7681V35.832H37.8401V46H36.4161ZM43.0419 46V34.48H50.3219V35.832H44.4659V39.44H49.3619V40.792H44.4659V44.648H50.3219V46H43.0419ZM56.5748 46.24C55.4281 46.24 54.4548 45.9867 53.6548 45.48C52.8548 44.9733 52.2441 44.2693 51.8228 43.368C51.4068 42.4667 51.1988 41.424 51.1988 40.24C51.1988 39.056 51.4068 38.0133 51.8228 37.112C52.2441 36.2107 52.8548 35.5067 53.6548 35C54.4548 34.4933 55.4281 34.24 56.5748 34.24C57.9081 34.24 59.0041 34.5787 59.8628 35.256C60.7268 35.9333 61.3214 36.8453 61.6468 37.992L60.1988 38.376C59.9641 37.5173 59.5454 36.84 58.9427 36.344C58.3401 35.848 57.5508 35.6 56.5748 35.6C55.7161 35.6 55.0014 35.7947 54.4308 36.184C53.8601 36.5733 53.4308 37.1173 53.1428 37.816C52.8548 38.5093 52.7081 39.3173 52.7028 40.24C52.6974 41.1573 52.8388 41.9653 53.1268 42.664C53.4148 43.3573 53.8468 43.9013 54.4228 44.296C54.9988 44.6853 55.7161 44.88 56.5748 44.88C57.5508 44.88 58.3401 44.632 58.9427 44.136C59.5454 43.6347 59.9641 42.9573 60.1988 42.104L61.6468 42.488C61.3214 43.6293 60.7268 44.5413 59.8628 45.224C59.0041 45.9013 57.9081 46.24 56.5748 46.24ZM63.4013 46V34.48H64.8253V39.56H70.8893V34.48H72.3133V46H70.8893V40.912H64.8253V46H63.4013ZM74.5575 46V34.48H75.9975L82.0055 43.48V34.48H83.4455V46H82.0055L75.9975 36.992V46H74.5575ZM90.4185 46.24C89.2718 46.24 88.2985 45.9867 87.4985 45.48C86.6985 44.9733 86.0878 44.2693 85.6665 43.368C85.2505 42.4667 85.0425 41.424 85.0425 40.24C85.0425 39.056 85.2505 38.0133 85.6665 37.112C86.0878 36.2107 86.6985 35.5067 87.4985 35C88.2985 34.4933 89.2718 34.24 90.4185 34.24C91.5705 34.24 92.5465 34.4933 93.3465 35C94.1465 35.5067 94.7545 36.2107 95.1705 37.112C95.5865 38.0133 95.7945 39.056 95.7945 40.24C95.7945 41.424 95.5865 42.4667 95.1705 43.368C94.7545 44.2693 94.1465 44.9733 93.3465 45.48C92.5465 45.9867 91.5705 46.24 90.4185 46.24ZM90.4185 44.88C91.2772 44.8853 91.9918 44.6933 92.5625 44.304C93.1385 43.9093 93.5678 43.3627 93.8505 42.664C94.1385 41.9653 94.2825 41.1573 94.2825 40.24C94.2825 39.3173 94.1385 38.5093 93.8505 37.816C93.5678 37.1227 93.1385 36.5813 92.5625 36.192C91.9918 35.8027 91.2772 35.6053 90.4185 35.6C89.5598 35.5947 88.8452 35.7867 88.2745 36.176C87.7092 36.5653 87.2825 37.1093 86.9945 37.808C86.7065 38.5067 86.5598 39.3173 86.5545 40.24C86.5492 41.1573 86.6905 41.9627 86.9785 42.656C87.2665 43.3493 87.6958 43.8933 88.2665 44.288C88.8425 44.6773 89.5598 44.8747 90.4185 44.88ZM97.5613 46V34.48H98.9853V44.648H104.329V46H97.5613ZM110.106 46.24C108.959 46.24 107.986 45.9867 107.186 45.48C106.386 44.9733 105.775 44.2693 105.354 43.368C104.938 42.4667 104.73 41.424 104.73 40.24C104.73 39.056 104.938 38.0133 105.354 37.112C105.775 36.2107 106.386 35.5067 107.186 35C107.986 34.4933 108.959 34.24 110.106 34.24C111.258 34.24 112.234 34.4933 113.034 35C113.834 35.5067 114.442 36.2107 114.858 37.112C115.274 38.0133 115.482 39.056 115.482 40.24C115.482 41.424 115.274 42.4667 114.858 43.368C114.442 44.2693 113.834 44.9733 113.034 45.48C112.234 45.9867 111.258 46.24 110.106 46.24ZM110.106 44.88C110.965 44.8853 111.679 44.6933 112.25 44.304C112.826 43.9093 113.255 43.3627 113.538 42.664C113.826 41.9653 113.97 41.1573 113.97 40.24C113.97 39.3173 113.826 38.5093 113.538 37.816C113.255 37.1227 112.826 36.5813 112.25 36.192C111.679 35.8027 110.965 35.6053 110.106 35.6C109.247 35.5947 108.533 35.7867 107.962 36.176C107.397 36.5653 106.97 37.1093 106.682 37.808C106.394 38.5067 106.247 39.3173 106.242 40.24C106.237 41.1573 106.378 41.9627 106.666 42.656C106.954 43.3493 107.383 43.8933 107.954 44.288C108.53 44.6773 109.247 44.8747 110.106 44.88ZM121.753 46.24C120.963 46.24 120.243 46.1013 119.593 45.824C118.942 45.5467 118.382 45.1493 117.913 44.632C117.443 44.1093 117.081 43.48 116.825 42.744C116.574 42.0027 116.449 41.168 116.449 40.24C116.449 39.0133 116.667 37.952 117.105 37.056C117.542 36.16 118.158 35.4693 118.953 34.984C119.747 34.4933 120.681 34.248 121.753 34.248C123.043 34.248 124.083 34.5493 124.873 35.152C125.662 35.7493 126.206 36.568 126.505 37.608L125.065 37.904C124.825 37.2053 124.43 36.648 123.881 36.232C123.331 35.816 122.646 35.608 121.825 35.608C120.966 35.6027 120.251 35.7947 119.681 36.184C119.115 36.568 118.689 37.1093 118.401 37.808C118.113 38.5067 117.966 39.3173 117.961 40.24C117.955 41.1573 118.097 41.9627 118.385 42.656C118.673 43.3493 119.102 43.8933 119.673 44.288C120.249 44.6773 120.966 44.8747 121.825 44.88C122.566 44.8853 123.19 44.744 123.697 44.456C124.203 44.168 124.595 43.752 124.873 43.208C125.15 42.664 125.318 42.0107 125.377 41.248H122.929V40.072H126.881C126.897 40.1787 126.905 40.3067 126.905 40.456C126.91 40.6 126.913 40.6987 126.913 40.752C126.913 41.8027 126.715 42.744 126.321 43.576C125.931 44.4027 125.353 45.0533 124.585 45.528C123.822 46.0027 122.878 46.24 121.753 46.24ZM130.786 46V41.208L126.906 34.48H128.562L131.506 39.576L134.442 34.48H136.098L132.226 41.208V46H130.786ZM143.52 46.24C142.88 46.24 142.283 46.1467 141.728 45.96C141.174 45.7733 140.71 45.48 140.336 45.08C140.048 44.76 139.832 44.408 139.688 44.024C139.55 43.6347 139.472 43.224 139.456 42.792C139.456 42.3707 139.518 41.96 139.64 41.56C139.763 41.1547 139.958 40.7947 140.224 40.48C140.363 40.3093 140.518 40.1653 140.688 40.048C140.864 39.9253 141.04 39.8213 141.216 39.736C140.848 39.3413 140.566 38.9707 140.368 38.624C140.176 38.2773 140.08 37.8587 140.08 37.368C140.08 36.744 140.24 36.1813 140.56 35.68C140.886 35.1733 141.328 34.8027 141.888 34.568C142.16 34.4507 142.438 34.3707 142.72 34.328C143.008 34.28 143.288 34.256 143.56 34.256C144.019 34.256 144.464 34.32 144.896 34.448C145.328 34.576 145.696 34.784 146 35.072C146.203 35.2427 146.376 35.44 146.52 35.664C146.664 35.8827 146.776 36.112 146.856 36.352L145.464 36.712C145.363 36.44 145.195 36.2107 144.96 36.024C144.774 35.864 144.555 35.7547 144.304 35.696C144.059 35.6373 143.811 35.608 143.56 35.608C143.144 35.608 142.768 35.688 142.432 35.848C142.134 35.992 141.91 36.1947 141.76 36.456C141.611 36.712 141.536 37.016 141.536 37.368C141.536 37.672 141.587 37.9227 141.688 38.12C141.795 38.312 141.942 38.5173 142.128 38.736C142.24 38.8533 142.366 38.9787 142.504 39.112C142.648 39.24 142.795 39.3733 142.944 39.512L146.336 42.664C146.352 42.5307 146.363 42.3947 146.368 42.256C146.374 42.1173 146.376 41.984 146.376 41.856L146.368 40.264H147.672V42.136C147.672 42.5147 147.659 42.8373 147.632 43.104C147.611 43.3707 147.574 43.592 147.52 43.768L148.984 45.12L148.056 46.112L146.84 44.96C146.632 45.1947 146.384 45.4 146.096 45.576C145.808 45.752 145.52 45.8853 145.232 45.976C144.96 46.0773 144.68 46.1467 144.392 46.184C144.104 46.2213 143.814 46.24 143.52 46.24ZM143.552 44.872C143.814 44.872 144.051 44.856 144.264 44.824C144.478 44.792 144.68 44.7307 144.872 44.64C145.128 44.5173 145.326 44.4 145.464 44.288C145.603 44.176 145.718 44.072 145.808 43.976L142.296 40.76C142.104 40.824 141.923 40.9093 141.752 41.016C141.587 41.1227 141.443 41.248 141.32 41.392C141.182 41.5627 141.078 41.7627 141.008 41.992C140.944 42.2213 140.912 42.464 140.912 42.72C140.918 42.992 140.963 43.2427 141.048 43.472C141.134 43.7013 141.254 43.9067 141.408 44.088C141.643 44.36 141.96 44.56 142.36 44.688C142.76 44.8107 143.158 44.872 143.552 44.872ZM157.583 46.24C156.767 46.24 156.031 46.1013 155.375 45.824C154.724 45.5467 154.186 45.152 153.759 44.64C153.338 44.1227 153.063 43.512 152.935 42.808L154.407 42.576C154.594 43.3013 154.98 43.8693 155.567 44.28C156.159 44.6853 156.855 44.888 157.655 44.888C158.172 44.888 158.639 44.808 159.055 44.648C159.476 44.4827 159.81 44.248 160.055 43.944C160.3 43.64 160.423 43.28 160.423 42.864C160.423 42.608 160.378 42.3893 160.287 42.208C160.202 42.0213 160.082 41.864 159.927 41.736C159.778 41.6027 159.607 41.4907 159.415 41.4C159.223 41.3093 159.023 41.2347 158.815 41.176L155.879 40.304C155.559 40.208 155.25 40.088 154.951 39.944C154.652 39.7947 154.386 39.6107 154.151 39.392C153.916 39.168 153.73 38.9013 153.591 38.592C153.452 38.2773 153.383 37.9067 153.383 37.48C153.383 36.7973 153.559 36.216 153.911 35.736C154.268 35.2507 154.751 34.88 155.359 34.624C155.967 34.368 156.652 34.2427 157.415 34.248C158.188 34.2533 158.879 34.392 159.487 34.664C160.1 34.9307 160.607 35.3147 161.007 35.816C161.412 36.3173 161.684 36.9173 161.823 37.616L160.311 37.88C160.231 37.4107 160.052 37.008 159.775 36.672C159.503 36.3307 159.162 36.0693 158.751 35.888C158.34 35.7013 157.89 35.6053 157.399 35.6C156.93 35.5947 156.506 35.6693 156.127 35.824C155.748 35.9787 155.447 36.1947 155.223 36.472C154.999 36.744 154.887 37.0587 154.887 37.416C154.887 37.768 154.988 38.0533 155.191 38.272C155.394 38.4853 155.642 38.656 155.935 38.784C156.234 38.9067 156.524 39.008 156.807 39.088L158.999 39.72C159.25 39.7893 159.538 39.8853 159.863 40.008C160.194 40.1307 160.514 40.304 160.823 40.528C161.132 40.7467 161.388 41.04 161.591 41.408C161.794 41.7707 161.895 42.2293 161.895 42.784C161.895 43.3387 161.783 43.832 161.559 44.264C161.34 44.696 161.034 45.0587 160.639 45.352C160.244 45.64 159.786 45.8587 159.263 46.008C158.74 46.1627 158.18 46.24 157.583 46.24ZM168.309 46.24C167.162 46.24 166.189 45.9867 165.389 45.48C164.589 44.9733 163.978 44.2693 163.557 43.368C163.141 42.4667 162.933 41.424 162.933 40.24C162.933 39.056 163.141 38.0133 163.557 37.112C163.978 36.2107 164.589 35.5067 165.389 35C166.189 34.4933 167.162 34.24 168.309 34.24C169.461 34.24 170.437 34.4933 171.237 35C172.037 35.5067 172.645 36.2107 173.061 37.112C173.477 38.0133 173.685 39.056 173.685 40.24C173.685 41.424 173.477 42.4667 173.061 43.368C172.645 44.2693 172.037 44.9733 171.237 45.48C170.437 45.9867 169.461 46.24 168.309 46.24ZM168.309 44.88C169.168 44.8853 169.882 44.6933 170.453 44.304C171.029 43.9093 171.458 43.3627 171.741 42.664C172.029 41.9653 172.173 41.1573 172.173 40.24C172.173 39.3173 172.029 38.5093 171.741 37.816C171.458 37.1227 171.029 36.5813 170.453 36.192C169.882 35.8027 169.168 35.6053 168.309 35.6C167.45 35.5947 166.736 35.7867 166.165 36.176C165.6 36.5653 165.173 37.1093 164.885 37.808C164.597 38.5067 164.45 39.3173 164.445 40.24C164.44 41.1573 164.581 41.9627 164.869 42.656C165.157 43.3493 165.586 43.8933 166.157 44.288C166.733 44.6773 167.45 44.8747 168.309 44.88ZM180.028 46.24C178.881 46.24 177.908 45.9867 177.108 45.48C176.308 44.9733 175.697 44.2693 175.276 43.368C174.86 42.4667 174.652 41.424 174.652 40.24C174.652 39.056 174.86 38.0133 175.276 37.112C175.697 36.2107 176.308 35.5067 177.108 35C177.908 34.4933 178.881 34.24 180.028 34.24C181.361 34.24 182.457 34.5787 183.316 35.256C184.18 35.9333 184.775 36.8453 185.1 37.992L183.652 38.376C183.417 37.5173 182.999 36.84 182.396 36.344C181.793 35.848 181.004 35.6 180.028 35.6C179.169 35.6 178.455 35.7947 177.884 36.184C177.313 36.5733 176.884 37.1173 176.596 37.816C176.308 38.5093 176.161 39.3173 176.156 40.24C176.151 41.1573 176.292 41.9653 176.58 42.664C176.868 43.3573 177.3 43.9013 177.876 44.296C178.452 44.6853 179.169 44.88 180.028 44.88C181.004 44.88 181.793 44.632 182.396 44.136C182.999 43.6347 183.417 42.9573 183.652 42.104L185.1 42.488C184.775 43.6293 184.18 44.5413 183.316 45.224C182.457 45.9013 181.361 46.24 180.028 46.24ZM187.014 46V34.48H188.438V46H187.014ZM190.039 46L193.895 34.48H195.879L199.735 46H198.255L194.647 35.312H195.095L191.519 46H190.039ZM191.895 43.304V41.968H197.879V43.304H191.895ZM201.327 46V34.48H202.751V44.648H208.095V46H201.327ZM211.854 46V34.48H213.15L217.502 43.656L221.83 34.48H223.142V45.992H221.79V37.608L217.878 46H217.118L213.206 37.608V46H211.854ZM225.386 46V34.48H232.666V35.832H226.81V39.44H231.706V40.792H226.81V44.648H232.666V46H225.386ZM234.589 46V34.48H238.141C238.258 34.48 238.463 34.4827 238.757 34.488C239.05 34.4933 239.33 34.5147 239.597 34.552C240.487 34.6693 241.231 34.9947 241.829 35.528C242.431 36.056 242.885 36.728 243.189 37.544C243.493 38.36 243.645 39.2587 243.645 40.24C243.645 41.2213 243.493 42.12 243.189 42.936C242.885 43.752 242.431 44.4267 241.829 44.96C241.231 45.488 240.487 45.8107 239.597 45.928C239.33 45.96 239.047 45.9813 238.749 45.992C238.455 45.9973 238.253 46 238.141 46H234.589ZM236.053 44.64H238.141C238.343 44.64 238.57 44.6347 238.821 44.624C239.071 44.608 239.29 44.584 239.477 44.552C240.106 44.4347 240.615 44.1707 241.005 43.76C241.394 43.3493 241.679 42.8373 241.861 42.224C242.042 41.6107 242.133 40.9493 242.133 40.24C242.133 39.5147 242.039 38.8453 241.853 38.232C241.671 37.6187 241.386 37.1093 240.997 36.704C240.607 36.2987 240.101 36.04 239.477 35.928C239.29 35.8907 239.069 35.8667 238.813 35.856C238.557 35.8453 238.333 35.84 238.141 35.84H236.053V44.64ZM245.639 46V34.48H247.063V46H245.639ZM248.664 46L252.52 34.48H254.504L258.36 46H256.88L253.272 35.312H253.72L250.144 46H248.664ZM250.52 43.304V41.968H256.504V43.304H250.52Z" fill="white"></path> <defs> <linearGradient id="paint0_linear_131_124" x1="300" y1="0" x2="300" y2="400" gradientUnits="userSpaceOnUse"> <stop stop-color="#9D50BB"></stop> <stop offset="1" stop-color="#6E48AA"></stop> </linearGradient> </defs> </svg> 