<?xml version="1.0" encoding="UTF-8"?> <svg xmlns="http://www.w3.org/2000/svg" width="600" height="400" viewBox="0 0 600 400" fill="none"> <rect width="600" height="400" rx="20" fill="url(#paint0_linear_131_133)"></rect> <path d="M74.2405 193V177.16H76.8915V193H74.2405ZM86.0495 193.33C84.8908 193.33 83.8458 193.128 82.9145 192.725C81.9905 192.322 81.2278 191.746 80.6265 190.998C80.0325 190.243 79.6548 189.348 79.4935 188.314L82.2435 187.896C82.4782 188.835 82.9585 189.561 83.6845 190.074C84.4178 190.587 85.2612 190.844 86.2145 190.844C86.7792 190.844 87.3108 190.756 87.8095 190.58C88.3082 190.404 88.7115 190.147 89.0195 189.81C89.3348 189.473 89.4925 189.058 89.4925 188.567C89.4925 188.347 89.4558 188.145 89.3825 187.962C89.3092 187.771 89.1992 187.603 89.0525 187.456C88.9132 187.309 88.7298 187.177 88.5025 187.06C88.2825 186.935 88.0258 186.829 87.7325 186.741L83.6405 185.531C83.2885 185.428 82.9072 185.293 82.4965 185.124C82.0932 184.948 81.7082 184.71 81.3415 184.409C80.9822 184.101 80.6852 183.712 80.4505 183.243C80.2232 182.766 80.1095 182.18 80.1095 181.483C80.1095 180.464 80.3662 179.609 80.8795 178.92C81.4002 178.223 82.0968 177.703 82.9695 177.358C83.8495 177.013 84.8248 176.845 85.8955 176.852C86.9808 176.859 87.9488 177.046 88.7995 177.413C89.6502 177.772 90.3615 178.297 90.9335 178.986C91.5055 179.675 91.9088 180.508 92.1435 181.483L89.2945 181.978C89.1772 181.421 88.9498 180.948 88.6125 180.559C88.2825 180.163 87.8755 179.862 87.3915 179.657C86.9148 179.452 86.4052 179.342 85.8625 179.327C85.3345 179.32 84.8432 179.4 84.3885 179.569C83.9412 179.73 83.5782 179.965 83.2995 180.273C83.0282 180.581 82.8925 180.94 82.8925 181.351C82.8925 181.74 83.0098 182.059 83.2445 182.308C83.4792 182.55 83.7688 182.744 84.1135 182.891C84.4655 183.03 84.8212 183.148 85.1805 183.243L88.0185 184.035C88.4072 184.138 88.8435 184.277 89.3275 184.453C89.8115 184.629 90.2772 184.875 90.7245 185.19C91.1718 185.505 91.5385 185.92 91.8245 186.433C92.1178 186.946 92.2645 187.599 92.2645 188.391C92.2645 189.212 92.0922 189.935 91.7475 190.558C91.4102 191.174 90.9518 191.687 90.3725 192.098C89.7932 192.509 89.1295 192.817 88.3815 193.022C87.6408 193.227 86.8635 193.33 86.0495 193.33ZM99.2698 193V177.16H101.921V193H99.2698ZM109.022 193V179.646H103.896V177.16H116.799V179.646H111.673V193H109.022ZM122.296 193V177.16H128.577C129.648 177.16 130.524 177.376 131.206 177.809C131.895 178.234 132.405 178.781 132.735 179.448C133.072 180.115 133.241 180.805 133.241 181.516C133.241 182.389 133.032 183.129 132.614 183.738C132.203 184.347 131.642 184.757 130.931 184.97V184.42C131.928 184.647 132.684 185.12 133.197 185.839C133.718 186.558 133.978 187.375 133.978 188.292C133.978 189.231 133.798 190.052 133.439 190.756C133.08 191.46 132.544 192.01 131.833 192.406C131.129 192.802 130.256 193 129.215 193H122.296ZM124.98 190.503H128.885C129.347 190.503 129.761 190.411 130.128 190.228C130.495 190.037 130.781 189.773 130.986 189.436C131.199 189.091 131.305 188.684 131.305 188.215C131.305 187.79 131.213 187.408 131.03 187.071C130.847 186.734 130.579 186.466 130.227 186.268C129.875 186.063 129.453 185.96 128.962 185.96H124.98V190.503ZM124.98 183.485H128.544C128.925 183.485 129.266 183.412 129.567 183.265C129.868 183.118 130.106 182.902 130.282 182.616C130.458 182.33 130.546 181.978 130.546 181.56C130.546 181.01 130.37 180.552 130.018 180.185C129.666 179.818 129.175 179.635 128.544 179.635H124.98V183.485ZM136.175 193V177.16H146.405V179.646H138.826V183.551H145.085V186.037H138.826V190.514H146.405V193H136.175ZM152.85 193V179.646H147.724V177.16H160.627V179.646H155.501V193H152.85ZM167.502 193V179.646H162.376V177.16H175.279V179.646H170.153V193H167.502ZM177.038 193V177.16H187.268V179.646H179.689V183.551H185.948V186.037H179.689V190.514H187.268V193H177.038ZM189.907 193V177.16H196.452C196.606 177.16 196.804 177.167 197.046 177.182C197.288 177.189 197.512 177.211 197.717 177.248C198.634 177.387 199.389 177.692 199.983 178.161C200.585 178.63 201.028 179.224 201.314 179.943C201.608 180.654 201.754 181.446 201.754 182.319C201.754 183.61 201.428 184.721 200.775 185.652C200.123 186.576 199.122 187.148 197.772 187.368L196.639 187.467H192.558V193H189.907ZM199.004 193L195.88 186.554L198.575 185.96L202.007 193H199.004ZM192.558 184.992H196.342C196.489 184.992 196.654 184.985 196.837 184.97C197.021 184.955 197.189 184.926 197.343 184.882C197.783 184.772 198.128 184.578 198.377 184.299C198.634 184.02 198.814 183.705 198.916 183.353C199.026 183.001 199.081 182.656 199.081 182.319C199.081 181.982 199.026 181.637 198.916 181.285C198.814 180.926 198.634 180.607 198.377 180.328C198.128 180.049 197.783 179.855 197.343 179.745C197.189 179.701 197.021 179.675 196.837 179.668C196.654 179.653 196.489 179.646 196.342 179.646H192.558V184.992ZM212.641 193V179.646H207.515V177.16H220.418V179.646H215.292V193H212.641ZM228.876 193.33C227.292 193.33 225.935 192.985 224.806 192.296C223.676 191.599 222.807 190.631 222.199 189.392C221.597 188.153 221.297 186.715 221.297 185.08C221.297 183.445 221.597 182.007 222.199 180.768C222.807 179.529 223.676 178.564 224.806 177.875C225.935 177.178 227.292 176.83 228.876 176.83C230.46 176.83 231.816 177.178 232.946 177.875C234.082 178.564 234.951 179.529 235.553 180.768C236.161 182.007 236.466 183.445 236.466 185.08C236.466 186.715 236.161 188.153 235.553 189.392C234.951 190.631 234.082 191.599 232.946 192.296C231.816 192.985 230.46 193.33 228.876 193.33ZM228.876 190.833C229.939 190.84 230.823 190.606 231.527 190.129C232.238 189.652 232.77 188.981 233.122 188.116C233.481 187.251 233.661 186.239 233.661 185.08C233.661 183.921 233.481 182.917 233.122 182.066C232.77 181.208 232.238 180.541 231.527 180.064C230.823 179.587 229.939 179.342 228.876 179.327C227.812 179.32 226.929 179.554 226.225 180.031C225.521 180.508 224.989 181.179 224.63 182.044C224.278 182.909 224.102 183.921 224.102 185.08C224.102 186.239 224.278 187.247 224.63 188.105C224.982 188.956 225.51 189.619 226.214 190.096C226.925 190.573 227.812 190.818 228.876 190.833ZM248.923 193.33C247.764 193.33 246.719 193.128 245.788 192.725C244.864 192.322 244.101 191.746 243.5 190.998C242.906 190.243 242.528 189.348 242.367 188.314L245.117 187.896C245.351 188.835 245.832 189.561 246.558 190.074C247.291 190.587 248.134 190.844 249.088 190.844C249.652 190.844 250.184 190.756 250.683 190.58C251.181 190.404 251.585 190.147 251.893 189.81C252.208 189.473 252.366 189.058 252.366 188.567C252.366 188.347 252.329 188.145 252.256 187.962C252.182 187.771 252.072 187.603 251.926 187.456C251.786 187.309 251.603 187.177 251.376 187.06C251.156 186.935 250.899 186.829 250.606 186.741L246.514 185.531C246.162 185.428 245.78 185.293 245.37 185.124C244.966 184.948 244.581 184.71 244.215 184.409C243.855 184.101 243.558 183.712 243.324 183.243C243.096 182.766 242.983 182.18 242.983 181.483C242.983 180.464 243.239 179.609 243.753 178.92C244.273 178.223 244.97 177.703 245.843 177.358C246.723 177.013 247.698 176.845 248.769 176.852C249.854 176.859 250.822 177.046 251.673 177.413C252.523 177.772 253.235 178.297 253.807 178.986C254.379 179.675 254.782 180.508 255.017 181.483L252.168 181.978C252.05 181.421 251.823 180.948 251.486 180.559C251.156 180.163 250.749 179.862 250.265 179.657C249.788 179.452 249.278 179.342 248.736 179.327C248.208 179.32 247.716 179.4 247.262 179.569C246.814 179.73 246.451 179.965 246.173 180.273C245.901 180.581 245.766 180.94 245.766 181.351C245.766 181.74 245.883 182.059 246.118 182.308C246.352 182.55 246.642 182.744 246.987 182.891C247.339 183.03 247.694 183.148 248.054 183.243L250.892 184.035C251.28 184.138 251.717 184.277 252.201 184.453C252.685 184.629 253.15 184.875 253.598 185.19C254.045 185.505 254.412 185.92 254.698 186.433C254.991 186.946 255.138 187.599 255.138 188.391C255.138 189.212 254.965 189.935 254.621 190.558C254.283 191.174 253.825 191.687 253.246 192.098C252.666 192.509 252.003 192.817 251.255 193.022C250.514 193.227 249.737 193.33 248.923 193.33ZM261.325 193V179.646H256.199V177.16H269.102V179.646H263.976V193H261.325ZM277.559 193.33C275.975 193.33 274.619 192.985 273.489 192.296C272.36 191.599 271.491 190.631 270.882 189.392C270.281 188.153 269.98 186.715 269.98 185.08C269.98 183.445 270.281 182.007 270.882 180.768C271.491 179.529 272.36 178.564 273.489 177.875C274.619 177.178 275.975 176.83 277.559 176.83C279.143 176.83 280.5 177.178 281.629 177.875C282.766 178.564 283.635 179.529 284.236 180.768C284.845 182.007 285.149 183.445 285.149 185.08C285.149 186.715 284.845 188.153 284.236 189.392C283.635 190.631 282.766 191.599 281.629 192.296C280.5 192.985 279.143 193.33 277.559 193.33ZM277.559 190.833C278.623 190.84 279.506 190.606 280.21 190.129C280.922 189.652 281.453 188.981 281.805 188.116C282.165 187.251 282.344 186.239 282.344 185.08C282.344 183.921 282.165 182.917 281.805 182.066C281.453 181.208 280.922 180.541 280.21 180.064C279.506 179.587 278.623 179.342 277.559 179.327C276.496 179.32 275.612 179.554 274.908 180.031C274.204 180.508 273.673 181.179 273.313 182.044C272.961 182.909 272.785 183.921 272.785 185.08C272.785 186.239 272.961 187.247 273.313 188.105C273.665 188.956 274.193 189.619 274.897 190.096C275.609 190.573 276.496 190.818 277.559 190.833ZM287.339 193V177.16H293.884C294.038 177.16 294.236 177.167 294.478 177.182C294.72 177.189 294.943 177.211 295.149 177.248C296.065 177.387 296.821 177.692 297.415 178.161C298.016 178.63 298.46 179.224 298.746 179.943C299.039 180.654 299.186 181.446 299.186 182.319C299.186 183.184 299.039 183.976 298.746 184.695C298.452 185.406 298.005 185.997 297.404 186.466C296.81 186.935 296.058 187.24 295.149 187.379C294.943 187.408 294.716 187.43 294.467 187.445C294.225 187.46 294.03 187.467 293.884 187.467H289.99V193H287.339ZM289.99 184.992H293.774C293.92 184.992 294.085 184.985 294.269 184.97C294.452 184.955 294.621 184.926 294.775 184.882C295.215 184.772 295.559 184.578 295.809 184.299C296.065 184.02 296.245 183.705 296.348 183.353C296.458 183.001 296.513 182.656 296.513 182.319C296.513 181.982 296.458 181.637 296.348 181.285C296.245 180.926 296.065 180.607 295.809 180.328C295.559 180.049 295.215 179.855 294.775 179.745C294.621 179.701 294.452 179.675 294.269 179.668C294.085 179.653 293.92 179.646 293.774 179.646H289.99V184.992ZM312.174 193.33C310.913 193.33 309.802 193.073 308.841 192.56C307.888 192.047 307.14 191.324 306.597 190.393C306.062 189.462 305.794 188.369 305.794 187.115V177.182L308.478 177.16V187.049C308.478 187.643 308.577 188.175 308.775 188.644C308.98 189.113 309.255 189.513 309.6 189.843C309.945 190.166 310.341 190.411 310.788 190.58C311.235 190.749 311.697 190.833 312.174 190.833C312.665 190.833 313.131 190.749 313.571 190.58C314.018 190.404 314.414 190.155 314.759 189.832C315.104 189.502 315.375 189.102 315.573 188.633C315.771 188.164 315.87 187.636 315.87 187.049V177.16H318.554V187.115C318.554 188.369 318.283 189.462 317.74 190.393C317.205 191.324 316.457 192.047 315.496 192.56C314.543 193.073 313.435 193.33 312.174 193.33ZM326.825 193.33C325.666 193.33 324.621 193.128 323.69 192.725C322.766 192.322 322.003 191.746 321.402 190.998C320.808 190.243 320.43 189.348 320.269 188.314L323.019 187.896C323.254 188.835 323.734 189.561 324.46 190.074C325.193 190.587 326.037 190.844 326.99 190.844C327.555 190.844 328.086 190.756 328.585 190.58C329.084 190.404 329.487 190.147 329.795 189.81C330.11 189.473 330.268 189.058 330.268 188.567C330.268 188.347 330.231 188.145 330.158 187.962C330.085 187.771 329.975 187.603 329.828 187.456C329.689 187.309 329.505 187.177 329.278 187.06C329.058 186.935 328.801 186.829 328.508 186.741L324.416 185.531C324.064 185.428 323.683 185.293 323.272 185.124C322.869 184.948 322.484 184.71 322.117 184.409C321.758 184.101 321.461 183.712 321.226 183.243C320.999 182.766 320.885 182.18 320.885 181.483C320.885 180.464 321.142 179.609 321.655 178.92C322.176 178.223 322.872 177.703 323.745 177.358C324.625 177.013 325.6 176.845 326.671 176.852C327.756 176.859 328.724 177.046 329.575 177.413C330.426 177.772 331.137 178.297 331.709 178.986C332.281 179.675 332.684 180.508 332.919 181.483L330.07 181.978C329.953 181.421 329.725 180.948 329.388 180.559C329.058 180.163 328.651 179.862 328.167 179.657C327.69 179.452 327.181 179.342 326.638 179.327C326.11 179.32 325.619 179.4 325.164 179.569C324.717 179.73 324.354 179.965 324.075 180.273C323.804 180.581 323.668 180.94 323.668 181.351C323.668 181.74 323.785 182.059 324.02 182.308C324.255 182.55 324.544 182.744 324.889 182.891C325.241 183.03 325.597 183.148 325.956 183.243L328.794 184.035C329.183 184.138 329.619 184.277 330.103 184.453C330.587 184.629 331.053 184.875 331.5 185.19C331.947 185.505 332.314 185.92 332.6 186.433C332.893 186.946 333.04 187.599 333.04 188.391C333.04 189.212 332.868 189.935 332.523 190.558C332.186 191.174 331.727 191.687 331.148 192.098C330.569 192.509 329.905 192.817 329.157 193.022C328.416 193.227 327.639 193.33 326.825 193.33ZM335.641 193V177.16H338.292V193H335.641ZM341.587 193V177.16H344.271L351.619 188.325V177.16H354.303V193H351.619L344.271 181.835V193H341.587ZM363.912 193.33C362.885 193.33 361.921 193.15 361.019 192.791C360.124 192.424 359.336 191.889 358.654 191.185C357.979 190.481 357.451 189.619 357.07 188.6C356.689 187.573 356.498 186.4 356.498 185.08C356.498 183.349 356.821 181.872 357.466 180.647C358.111 179.415 358.995 178.473 360.117 177.82C361.239 177.16 362.504 176.83 363.912 176.83C365.863 176.83 367.406 177.285 368.543 178.194C369.687 179.096 370.461 180.365 370.864 182L368.158 182.429C367.857 181.49 367.366 180.742 366.684 180.185C366.002 179.62 365.133 179.338 364.077 179.338C363.014 179.323 362.13 179.554 361.426 180.031C360.722 180.508 360.19 181.179 359.831 182.044C359.479 182.909 359.303 183.921 359.303 185.08C359.303 186.239 359.479 187.247 359.831 188.105C360.183 188.956 360.711 189.619 361.415 190.096C362.126 190.573 363.014 190.818 364.077 190.833C364.876 190.84 365.577 190.697 366.178 190.404C366.779 190.103 367.271 189.652 367.652 189.051C368.033 188.442 368.29 187.683 368.422 186.774H365.628V184.695H371.238C371.253 184.812 371.264 184.985 371.271 185.212C371.278 185.439 371.282 185.575 371.282 185.619C371.282 187.115 370.985 188.446 370.391 189.612C369.804 190.771 368.961 191.68 367.861 192.34C366.761 193 365.445 193.33 363.912 193.33ZM383.758 193.33C382.6 193.33 381.555 193.128 380.623 192.725C379.699 192.322 378.937 191.746 378.335 190.998C377.741 190.243 377.364 189.348 377.202 188.314L379.952 187.896C380.187 188.835 380.667 189.561 381.393 190.074C382.127 190.587 382.97 190.844 383.923 190.844C384.488 190.844 385.02 190.756 385.518 190.58C386.017 190.404 386.42 190.147 386.728 189.81C387.044 189.473 387.201 189.058 387.201 188.567C387.201 188.347 387.165 188.145 387.091 187.962C387.018 187.771 386.908 187.603 386.761 187.456C386.622 187.309 386.439 187.177 386.211 187.06C385.991 186.935 385.735 186.829 385.441 186.741L381.349 185.531C380.997 185.428 380.616 185.293 380.205 185.124C379.802 184.948 379.417 184.71 379.05 184.409C378.691 184.101 378.394 183.712 378.159 183.243C377.932 182.766 377.818 182.18 377.818 181.483C377.818 180.464 378.075 179.609 378.588 178.92C379.109 178.223 379.806 177.703 380.678 177.358C381.558 177.013 382.534 176.845 383.604 176.852C384.69 176.859 385.658 177.046 386.508 177.413C387.359 177.772 388.07 178.297 388.642 178.986C389.214 179.675 389.618 180.508 389.852 181.483L387.003 181.978C386.886 181.421 386.659 180.948 386.321 180.559C385.991 180.163 385.584 179.862 385.1 179.657C384.624 179.452 384.114 179.342 383.571 179.327C383.043 179.32 382.552 179.4 382.097 179.569C381.65 179.73 381.287 179.965 381.008 180.273C380.737 180.581 380.601 180.94 380.601 181.351C380.601 181.74 380.719 182.059 380.953 182.308C381.188 182.55 381.478 182.744 381.822 182.891C382.174 183.03 382.53 183.148 382.889 183.243L385.727 184.035C386.116 184.138 386.552 184.277 387.036 184.453C387.52 184.629 387.986 184.875 388.433 185.19C388.881 185.505 389.247 185.92 389.533 186.433C389.827 186.946 389.973 187.599 389.973 188.391C389.973 189.212 389.801 189.935 389.456 190.558C389.119 191.174 388.661 191.687 388.081 192.098C387.502 192.509 386.838 192.817 386.09 193.022C385.35 193.227 384.572 193.33 383.758 193.33ZM399.053 193.33C397.469 193.33 396.113 192.985 394.983 192.296C393.854 191.599 392.985 190.631 392.376 189.392C391.775 188.153 391.474 186.715 391.474 185.08C391.474 183.445 391.775 182.007 392.376 180.768C392.985 179.529 393.854 178.564 394.983 177.875C396.113 177.178 397.469 176.83 399.053 176.83C400.637 176.83 401.994 177.178 403.123 177.875C404.26 178.564 405.129 179.529 405.73 180.768C406.339 182.007 406.643 183.445 406.643 185.08C406.643 186.715 406.339 188.153 405.73 189.392C405.129 190.631 404.26 191.599 403.123 192.296C401.994 192.985 400.637 193.33 399.053 193.33ZM399.053 190.833C400.117 190.84 401 190.606 401.704 190.129C402.416 189.652 402.947 188.981 403.299 188.116C403.659 187.251 403.838 186.239 403.838 185.08C403.838 183.921 403.659 182.917 403.299 182.066C402.947 181.208 402.416 180.541 401.704 180.064C401 179.587 400.117 179.342 399.053 179.327C397.99 179.32 397.106 179.554 396.402 180.031C395.698 180.508 395.167 181.179 394.807 182.044C394.455 182.909 394.279 183.921 394.279 185.08C394.279 186.239 394.455 187.247 394.807 188.105C395.159 188.956 395.687 189.619 396.391 190.096C397.103 190.573 397.99 190.818 399.053 190.833ZM415.532 193.33C413.948 193.33 412.591 192.985 411.462 192.296C410.333 191.599 409.464 190.631 408.855 189.392C408.254 188.153 407.953 186.715 407.953 185.08C407.953 183.445 408.254 182.007 408.855 180.768C409.464 179.529 410.333 178.564 411.462 177.875C412.591 177.178 413.948 176.83 415.532 176.83C417.358 176.83 418.88 177.288 420.097 178.205C421.314 179.114 422.169 180.343 422.66 181.89L419.987 182.627C419.679 181.593 419.155 180.786 418.414 180.207C417.673 179.62 416.713 179.327 415.532 179.327C414.469 179.327 413.581 179.565 412.87 180.042C412.166 180.519 411.634 181.19 411.275 182.055C410.923 182.913 410.743 183.921 410.736 185.08C410.736 186.239 410.912 187.251 411.264 188.116C411.623 188.974 412.159 189.641 412.87 190.118C413.581 190.595 414.469 190.833 415.532 190.833C416.713 190.833 417.673 190.54 418.414 189.953C419.155 189.366 419.679 188.56 419.987 187.533L422.66 188.27C422.169 189.817 421.314 191.049 420.097 191.966C418.88 192.875 417.358 193.33 415.532 193.33ZM425.295 193V177.16H427.946V193H425.295ZM430.141 193L435.135 177.16H439.018L444.012 193H441.284L436.752 178.788H437.346L432.869 193H430.141ZM432.924 189.568V187.093H441.24V189.568H432.924ZM446.221 193V177.16H448.872V190.514H455.868V193H446.221ZM461.04 193V177.16H463.427L468.905 188.38L474.383 177.16H476.77V193H474.295V182.847L469.433 193H468.377L463.526 182.847V193H461.04ZM479.86 193V177.16H490.09V179.646H482.511V183.551H488.77V186.037H482.511V190.514H490.09V193H479.86ZM492.729 193V177.16H497.778C497.91 177.16 498.171 177.164 498.559 177.171C498.955 177.178 499.337 177.204 499.703 177.248C500.957 177.409 502.017 177.857 502.882 178.59C503.755 179.316 504.415 180.244 504.862 181.373C505.31 182.502 505.533 183.738 505.533 185.08C505.533 186.422 505.31 187.658 504.862 188.787C504.415 189.916 503.755 190.848 502.882 191.581C502.017 192.307 500.957 192.751 499.703 192.912C499.344 192.956 498.966 192.982 498.57 192.989C498.174 192.996 497.91 193 497.778 193H492.729ZM495.424 190.503H497.778C497.998 190.503 498.277 190.496 498.614 190.481C498.959 190.466 499.263 190.433 499.527 190.382C500.275 190.243 500.884 189.909 501.353 189.381C501.823 188.853 502.167 188.211 502.387 187.456C502.615 186.701 502.728 185.909 502.728 185.08C502.728 184.222 502.615 183.415 502.387 182.66C502.16 181.905 501.808 181.27 501.331 180.757C500.862 180.244 500.261 179.917 499.527 179.778C499.263 179.719 498.959 179.686 498.614 179.679C498.277 179.664 497.998 179.657 497.778 179.657H495.424V190.503ZM508.354 193V177.16H511.005V193H508.354ZM513.2 193L518.194 177.16H522.077L527.071 193H524.343L519.811 178.788H520.405L515.928 193H513.2ZM515.983 189.568V187.093H524.299V189.568H515.983ZM133.075 224V208.16H135.726V224H133.075ZM139.021 224V208.16H148.558V210.811H141.672V214.76H147.238V217.4H141.672V224H139.021ZM158.791 224V217.51L153.401 208.16H156.492L160.133 214.474L163.763 208.16H166.854L161.475 217.51V224H158.791ZM174.209 224.33C172.625 224.33 171.268 223.985 170.139 223.296C169.009 222.599 168.14 221.631 167.532 220.392C166.93 219.153 166.63 217.715 166.63 216.08C166.63 214.445 166.93 213.007 167.532 211.768C168.14 210.529 169.009 209.564 170.139 208.875C171.268 208.178 172.625 207.83 174.209 207.83C175.793 207.83 177.149 208.178 178.279 208.875C179.415 209.564 180.284 210.529 180.886 211.768C181.494 213.007 181.799 214.445 181.799 216.08C181.799 217.715 181.494 219.153 180.886 220.392C180.284 221.631 179.415 222.599 178.279 223.296C177.149 223.985 175.793 224.33 174.209 224.33ZM174.209 221.833C175.272 221.84 176.156 221.606 176.86 221.129C177.571 220.652 178.103 219.981 178.455 219.116C178.814 218.251 178.994 217.239 178.994 216.08C178.994 214.921 178.814 213.917 178.455 213.066C178.103 212.208 177.571 211.541 176.86 211.064C176.156 210.587 175.272 210.342 174.209 210.327C173.145 210.32 172.262 210.554 171.558 211.031C170.854 211.508 170.322 212.179 169.963 213.044C169.611 213.909 169.435 214.921 169.435 216.08C169.435 217.239 169.611 218.247 169.963 219.105C170.315 219.956 170.843 220.619 171.547 221.096C172.258 221.573 173.145 221.818 174.209 221.833ZM190.368 224.33C189.107 224.33 187.996 224.073 187.035 223.56C186.082 223.047 185.334 222.324 184.791 221.393C184.256 220.462 183.988 219.369 183.988 218.115V208.182L186.672 208.16V218.049C186.672 218.643 186.771 219.175 186.969 219.644C187.175 220.113 187.45 220.513 187.794 220.843C188.139 221.166 188.535 221.411 188.982 221.58C189.43 221.749 189.892 221.833 190.368 221.833C190.86 221.833 191.325 221.749 191.765 221.58C192.213 221.404 192.609 221.155 192.953 220.832C193.298 220.502 193.569 220.102 193.767 219.633C193.965 219.164 194.064 218.636 194.064 218.049V208.16H196.748V218.115C196.748 219.369 196.477 220.462 195.934 221.393C195.399 222.324 194.651 223.047 193.69 223.56C192.737 224.073 191.63 224.33 190.368 224.33ZM204.227 224V208.16H209.276C209.408 208.16 209.668 208.164 210.057 208.171C210.453 208.178 210.834 208.204 211.201 208.248C212.455 208.409 213.514 208.857 214.38 209.59C215.252 210.316 215.912 211.244 216.36 212.373C216.807 213.502 217.031 214.738 217.031 216.08C217.031 217.422 216.807 218.658 216.36 219.787C215.912 220.916 215.252 221.848 214.38 222.581C213.514 223.307 212.455 223.751 211.201 223.912C210.841 223.956 210.464 223.982 210.068 223.989C209.672 223.996 209.408 224 209.276 224H204.227ZM206.922 221.503H209.276C209.496 221.503 209.774 221.496 210.112 221.481C210.456 221.466 210.761 221.433 211.025 221.382C211.773 221.243 212.381 220.909 212.851 220.381C213.32 219.853 213.665 219.211 213.885 218.456C214.112 217.701 214.226 216.909 214.226 216.08C214.226 215.222 214.112 214.415 213.885 213.66C213.657 212.905 213.305 212.27 212.829 211.757C212.359 211.244 211.758 210.917 211.025 210.778C210.761 210.719 210.456 210.686 210.112 210.679C209.774 210.664 209.496 210.657 209.276 210.657H206.922V221.503ZM226.33 224.33C224.746 224.33 223.389 223.985 222.26 223.296C221.13 222.599 220.261 221.631 219.653 220.392C219.051 219.153 218.751 217.715 218.751 216.08C218.751 214.445 219.051 213.007 219.653 211.768C220.261 210.529 221.13 209.564 222.26 208.875C223.389 208.178 224.746 207.83 226.33 207.83C227.914 207.83 229.27 208.178 230.4 208.875C231.536 209.564 232.405 210.529 233.007 211.768C233.615 213.007 233.92 214.445 233.92 216.08C233.92 217.715 233.615 219.153 233.007 220.392C232.405 221.631 231.536 222.599 230.4 223.296C229.27 223.985 227.914 224.33 226.33 224.33ZM226.33 221.833C227.393 221.84 228.277 221.606 228.981 221.129C229.692 220.652 230.224 219.981 230.576 219.116C230.935 218.251 231.115 217.239 231.115 216.08C231.115 214.921 230.935 213.917 230.576 213.066C230.224 212.208 229.692 211.541 228.981 211.064C228.277 210.587 227.393 210.342 226.33 210.327C225.266 210.32 224.383 210.554 223.679 211.031C222.975 211.508 222.443 212.179 222.084 213.044C221.732 213.909 221.556 214.921 221.556 216.08C221.556 217.239 221.732 218.247 222.084 219.105C222.436 219.956 222.964 220.619 223.668 221.096C224.379 221.573 225.266 221.818 226.33 221.833ZM236.109 224V208.16H238.793L246.141 219.325V208.16H248.825V224H246.141L238.793 212.835V224H236.109ZM251.68 212.12V208.16H254.331V212.12H251.68ZM261.443 224V210.646H256.317V208.16H269.22V210.646H264.094V224H261.443ZM281.097 224.33C279.835 224.33 278.724 224.073 277.764 223.56C276.81 223.047 276.062 222.324 275.52 221.393C274.984 220.462 274.717 219.369 274.717 218.115V208.182L277.401 208.16V218.049C277.401 218.643 277.5 219.175 277.698 219.644C277.903 220.113 278.178 220.513 278.523 220.843C278.867 221.166 279.263 221.411 279.711 221.58C280.158 221.749 280.62 221.833 281.097 221.833C281.588 221.833 282.054 221.749 282.494 221.58C282.941 221.404 283.337 221.155 283.682 220.832C284.026 220.502 284.298 220.102 284.496 219.633C284.694 219.164 284.793 218.636 284.793 218.049V208.16H287.477V218.115C287.477 219.369 287.205 220.462 286.663 221.393C286.127 222.324 285.379 223.047 284.419 223.56C283.465 224.073 282.358 224.33 281.097 224.33ZM295.748 224.33C294.589 224.33 293.544 224.128 292.613 223.725C291.689 223.322 290.926 222.746 290.325 221.998C289.731 221.243 289.353 220.348 289.192 219.314L291.942 218.896C292.176 219.835 292.657 220.561 293.383 221.074C294.116 221.587 294.959 221.844 295.913 221.844C296.477 221.844 297.009 221.756 297.508 221.58C298.006 221.404 298.41 221.147 298.718 220.81C299.033 220.473 299.191 220.058 299.191 219.567C299.191 219.347 299.154 219.145 299.081 218.962C299.007 218.771 298.897 218.603 298.751 218.456C298.611 218.309 298.428 218.177 298.201 218.06C297.981 217.935 297.724 217.829 297.431 217.741L293.339 216.531C292.987 216.428 292.605 216.293 292.195 216.124C291.791 215.948 291.406 215.71 291.04 215.409C290.68 215.101 290.383 214.712 290.149 214.243C289.921 213.766 289.808 213.18 289.808 212.483C289.808 211.464 290.064 210.609 290.578 209.92C291.098 209.223 291.795 208.703 292.668 208.358C293.548 208.013 294.523 207.845 295.594 207.852C296.679 207.859 297.647 208.046 298.498 208.413C299.348 208.772 300.06 209.297 300.632 209.986C301.204 210.675 301.607 211.508 301.842 212.483L298.993 212.978C298.875 212.421 298.648 211.948 298.311 211.559C297.981 211.163 297.574 210.862 297.09 210.657C296.613 210.452 296.103 210.342 295.561 210.327C295.033 210.32 294.541 210.4 294.087 210.569C293.639 210.73 293.276 210.965 292.998 211.273C292.726 211.581 292.591 211.94 292.591 212.351C292.591 212.74 292.708 213.059 292.943 213.308C293.177 213.55 293.467 213.744 293.812 213.891C294.164 214.03 294.519 214.148 294.879 214.243L297.717 215.035C298.105 215.138 298.542 215.277 299.026 215.453C299.51 215.629 299.975 215.875 300.423 216.19C300.87 216.505 301.237 216.92 301.523 217.433C301.816 217.946 301.963 218.599 301.963 219.391C301.963 220.212 301.79 220.935 301.446 221.558C301.108 222.174 300.65 222.687 300.071 223.098C299.491 223.509 298.828 223.817 298.08 224.022C297.339 224.227 296.562 224.33 295.748 224.33ZM304.344 224V208.16H314.574V210.646H306.995V214.551H313.254V217.037H306.995V221.514H314.574V224H304.344ZM321.837 224V208.16H324.488V224H321.837ZM331.589 224V210.646H326.463V208.16H339.366V210.646H334.24V224H331.589ZM344.863 224V208.16H354.4V210.811H347.514V214.76H353.08V217.4H347.514V224H344.863ZM363.078 224.33C361.494 224.33 360.137 223.985 359.008 223.296C357.879 222.599 357.01 221.631 356.401 220.392C355.8 219.153 355.499 217.715 355.499 216.08C355.499 214.445 355.8 213.007 356.401 211.768C357.01 210.529 357.879 209.564 359.008 208.875C360.137 208.178 361.494 207.83 363.078 207.83C364.662 207.83 366.019 208.178 367.148 208.875C368.285 209.564 369.154 210.529 369.755 211.768C370.364 213.007 370.668 214.445 370.668 216.08C370.668 217.715 370.364 219.153 369.755 220.392C369.154 221.631 368.285 222.599 367.148 223.296C366.019 223.985 364.662 224.33 363.078 224.33ZM363.078 221.833C364.141 221.84 365.025 221.606 365.729 221.129C366.44 220.652 366.972 219.981 367.324 219.116C367.683 218.251 367.863 217.239 367.863 216.08C367.863 214.921 367.683 213.917 367.324 213.066C366.972 212.208 366.44 211.541 365.729 211.064C365.025 210.587 364.141 210.342 363.078 210.327C362.015 210.32 361.131 210.554 360.427 211.031C359.723 211.508 359.191 212.179 358.832 213.044C358.48 213.909 358.304 214.921 358.304 216.08C358.304 217.239 358.48 218.247 358.832 219.105C359.184 219.956 359.712 220.619 360.416 221.096C361.127 221.573 362.015 221.818 363.078 221.833ZM372.857 224V208.16H379.402C379.556 208.16 379.754 208.167 379.996 208.182C380.238 208.189 380.462 208.211 380.667 208.248C381.584 208.387 382.339 208.692 382.933 209.161C383.535 209.63 383.978 210.224 384.264 210.943C384.558 211.654 384.704 212.446 384.704 213.319C384.704 214.61 384.378 215.721 383.725 216.652C383.073 217.576 382.072 218.148 380.722 218.368L379.589 218.467H375.508V224H372.857ZM381.954 224L378.83 217.554L381.525 216.96L384.957 224H381.954ZM375.508 215.992H379.292C379.439 215.992 379.604 215.985 379.787 215.97C379.971 215.955 380.139 215.926 380.293 215.882C380.733 215.772 381.078 215.578 381.327 215.299C381.584 215.02 381.764 214.705 381.866 214.353C381.976 214.001 382.031 213.656 382.031 213.319C382.031 212.982 381.976 212.637 381.866 212.285C381.764 211.926 381.584 211.607 381.327 211.328C381.078 211.049 380.733 210.855 380.293 210.745C380.139 210.701 379.971 210.675 379.787 210.668C379.604 210.653 379.439 210.646 379.292 210.646H375.508V215.992ZM395.129 224L390.498 208.16H393.281L396.438 219.6L399.584 208.182L402.367 208.16L405.524 219.6L408.67 208.16H411.453L406.833 224H404.215L400.97 212.736L397.747 224H395.129ZM419.517 224.33C417.933 224.33 416.577 223.985 415.447 223.296C414.318 222.599 413.449 221.631 412.84 220.392C412.239 219.153 411.938 217.715 411.938 216.08C411.938 214.445 412.239 213.007 412.84 211.768C413.449 210.529 414.318 209.564 415.447 208.875C416.577 208.178 417.933 207.83 419.517 207.83C421.101 207.83 422.458 208.178 423.587 208.875C424.724 209.564 425.593 210.529 426.194 211.768C426.803 213.007 427.107 214.445 427.107 216.08C427.107 217.715 426.803 219.153 426.194 220.392C425.593 221.631 424.724 222.599 423.587 223.296C422.458 223.985 421.101 224.33 419.517 224.33ZM419.517 221.833C420.581 221.84 421.464 221.606 422.168 221.129C422.88 220.652 423.411 219.981 423.763 219.116C424.123 218.251 424.302 217.239 424.302 216.08C424.302 214.921 424.123 213.917 423.763 213.066C423.411 212.208 422.88 211.541 422.168 211.064C421.464 210.587 420.581 210.342 419.517 210.327C418.454 210.32 417.57 210.554 416.866 211.031C416.162 211.508 415.631 212.179 415.271 213.044C414.919 213.909 414.743 214.921 414.743 216.08C414.743 217.239 414.919 218.247 415.271 219.105C415.623 219.956 416.151 220.619 416.855 221.096C417.567 221.573 418.454 221.818 419.517 221.833ZM429.297 224V208.16H435.842C435.996 208.16 436.194 208.167 436.436 208.182C436.678 208.189 436.902 208.211 437.107 208.248C438.024 208.387 438.779 208.692 439.373 209.161C439.974 209.63 440.418 210.224 440.704 210.943C440.997 211.654 441.144 212.446 441.144 213.319C441.144 214.61 440.818 215.721 440.165 216.652C439.512 217.576 438.511 218.148 437.162 218.368L436.029 218.467H431.948V224H429.297ZM438.394 224L435.27 217.554L437.965 216.96L441.397 224H438.394ZM431.948 215.992H435.732C435.879 215.992 436.044 215.985 436.227 215.97C436.41 215.955 436.579 215.926 436.733 215.882C437.173 215.772 437.518 215.578 437.767 215.299C438.024 215.02 438.203 214.705 438.306 214.353C438.416 214.001 438.471 213.656 438.471 213.319C438.471 212.982 438.416 212.637 438.306 212.285C438.203 211.926 438.024 211.607 437.767 211.328C437.518 211.049 437.173 210.855 436.733 210.745C436.579 210.701 436.41 210.675 436.227 210.668C436.044 210.653 435.879 210.646 435.732 210.646H431.948V215.992ZM443.82 224V208.16H446.471V215.508L452.796 208.16H456.052L449.243 215.926L456.514 224H453.148L446.471 216.608V224H443.82ZM460.935 219.699C460.935 219.193 460.983 218.705 461.078 218.236C461.181 217.759 461.346 217.319 461.573 216.916C461.771 216.527 461.991 216.219 462.233 215.992C462.475 215.757 462.747 215.526 463.047 215.299C463.348 215.064 463.682 214.753 464.048 214.364C464.349 214.034 464.547 213.708 464.642 213.385C464.738 213.055 464.785 212.703 464.785 212.329C464.785 212.087 464.76 211.86 464.708 211.647C464.657 211.434 464.565 211.251 464.433 211.097C464.228 210.826 463.964 210.635 463.641 210.525C463.319 210.408 462.974 210.349 462.607 210.349C462.307 210.349 462.017 210.389 461.738 210.47C461.467 210.543 461.236 210.661 461.045 210.822C460.825 210.998 460.664 211.214 460.561 211.471C460.459 211.728 460.411 212.01 460.418 212.318H457.624C457.698 211.585 457.896 210.906 458.218 210.283C458.548 209.652 458.981 209.15 459.516 208.776C459.934 208.468 460.404 208.237 460.924 208.083C461.452 207.929 461.98 207.852 462.508 207.852C463.315 207.852 464.074 207.977 464.785 208.226C465.504 208.475 466.102 208.886 466.578 209.458C466.908 209.832 467.158 210.265 467.326 210.756C467.502 211.247 467.59 211.746 467.59 212.252C467.59 213.007 467.425 213.697 467.095 214.32C466.773 214.943 466.362 215.519 465.863 216.047C465.629 216.296 465.405 216.516 465.192 216.707C464.98 216.898 464.782 217.085 464.598 217.268C464.422 217.444 464.276 217.631 464.158 217.829C463.953 218.174 463.832 218.467 463.795 218.709C463.759 218.944 463.74 219.274 463.74 219.699H460.935ZM460.957 224V221.085H463.74V224H460.957Z" fill="white"></path> <rect x="20" y="20" width="251" height="40" rx="20" fill="white" fill-opacity="0.3"></rect> <path d="M36.4161 46V35.832H32.4881V34.48H41.7681V35.832H37.8401V46H36.4161ZM43.0419 46V34.48H50.3219V35.832H44.4659V39.44H49.3619V40.792H44.4659V44.648H50.3219V46H43.0419ZM56.5748 46.24C55.4281 46.24 54.4548 45.9867 53.6548 45.48C52.8548 44.9733 52.2441 44.2693 51.8228 43.368C51.4068 42.4667 51.1988 41.424 51.1988 40.24C51.1988 39.056 51.4068 38.0133 51.8228 37.112C52.2441 36.2107 52.8548 35.5067 53.6548 35C54.4548 34.4933 55.4281 34.24 56.5748 34.24C57.9081 34.24 59.0041 34.5787 59.8628 35.256C60.7268 35.9333 61.3214 36.8453 61.6468 37.992L60.1988 38.376C59.9641 37.5173 59.5454 36.84 58.9427 36.344C58.3401 35.848 57.5508 35.6 56.5748 35.6C55.7161 35.6 55.0014 35.7947 54.4308 36.184C53.8601 36.5733 53.4308 37.1173 53.1428 37.816C52.8548 38.5093 52.7081 39.3173 52.7028 40.24C52.6974 41.1573 52.8388 41.9653 53.1268 42.664C53.4148 43.3573 53.8468 43.9013 54.4228 44.296C54.9988 44.6853 55.7161 44.88 56.5748 44.88C57.5508 44.88 58.3401 44.632 58.9427 44.136C59.5454 43.6347 59.9641 42.9573 60.1988 42.104L61.6468 42.488C61.3214 43.6293 60.7268 44.5413 59.8628 45.224C59.0041 45.9013 57.9081 46.24 56.5748 46.24ZM63.4013 46V34.48H64.8253V39.56H70.8893V34.48H72.3133V46H70.8893V40.912H64.8253V46H63.4013ZM74.5575 46V34.48H75.9975L82.0055 43.48V34.48H83.4455V46H82.0055L75.9975 36.992V46H74.5575ZM90.4185 46.24C89.2718 46.24 88.2985 45.9867 87.4985 45.48C86.6985 44.9733 86.0878 44.2693 85.6665 43.368C85.2505 42.4667 85.0425 41.424 85.0425 40.24C85.0425 39.056 85.2505 38.0133 85.6665 37.112C86.0878 36.2107 86.6985 35.5067 87.4985 35C88.2985 34.4933 89.2718 34.24 90.4185 34.24C91.5705 34.24 92.5465 34.4933 93.3465 35C94.1465 35.5067 94.7545 36.2107 95.1705 37.112C95.5865 38.0133 95.7945 39.056 95.7945 40.24C95.7945 41.424 95.5865 42.4667 95.1705 43.368C94.7545 44.2693 94.1465 44.9733 93.3465 45.48C92.5465 45.9867 91.5705 46.24 90.4185 46.24ZM90.4185 44.88C91.2772 44.8853 91.9918 44.6933 92.5625 44.304C93.1385 43.9093 93.5678 43.3627 93.8505 42.664C94.1385 41.9653 94.2825 41.1573 94.2825 40.24C94.2825 39.3173 94.1385 38.5093 93.8505 37.816C93.5678 37.1227 93.1385 36.5813 92.5625 36.192C91.9918 35.8027 91.2772 35.6053 90.4185 35.6C89.5598 35.5947 88.8452 35.7867 88.2745 36.176C87.7092 36.5653 87.2825 37.1093 86.9945 37.808C86.7065 38.5067 86.5598 39.3173 86.5545 40.24C86.5492 41.1573 86.6905 41.9627 86.9785 42.656C87.2665 43.3493 87.6958 43.8933 88.2665 44.288C88.8425 44.6773 89.5598 44.8747 90.4185 44.88ZM97.5613 46V34.48H98.9853V44.648H104.329V46H97.5613ZM110.106 46.24C108.959 46.24 107.986 45.9867 107.186 45.48C106.386 44.9733 105.775 44.2693 105.354 43.368C104.938 42.4667 104.73 41.424 104.73 40.24C104.73 39.056 104.938 38.0133 105.354 37.112C105.775 36.2107 106.386 35.5067 107.186 35C107.986 34.4933 108.959 34.24 110.106 34.24C111.258 34.24 112.234 34.4933 113.034 35C113.834 35.5067 114.442 36.2107 114.858 37.112C115.274 38.0133 115.482 39.056 115.482 40.24C115.482 41.424 115.274 42.4667 114.858 43.368C114.442 44.2693 113.834 44.9733 113.034 45.48C112.234 45.9867 111.258 46.24 110.106 46.24ZM110.106 44.88C110.965 44.8853 111.679 44.6933 112.25 44.304C112.826 43.9093 113.255 43.3627 113.538 42.664C113.826 41.9653 113.97 41.1573 113.97 40.24C113.97 39.3173 113.826 38.5093 113.538 37.816C113.255 37.1227 112.826 36.5813 112.25 36.192C111.679 35.8027 110.965 35.6053 110.106 35.6C109.247 35.5947 108.533 35.7867 107.962 36.176C107.397 36.5653 106.97 37.1093 106.682 37.808C106.394 38.5067 106.247 39.3173 106.242 40.24C106.237 41.1573 106.378 41.9627 106.666 42.656C106.954 43.3493 107.383 43.8933 107.954 44.288C108.53 44.6773 109.247 44.8747 110.106 44.88ZM121.753 46.24C120.963 46.24 120.243 46.1013 119.593 45.824C118.942 45.5467 118.382 45.1493 117.913 44.632C117.443 44.1093 117.081 43.48 116.825 42.744C116.574 42.0027 116.449 41.168 116.449 40.24C116.449 39.0133 116.667 37.952 117.105 37.056C117.542 36.16 118.158 35.4693 118.953 34.984C119.747 34.4933 120.681 34.248 121.753 34.248C123.043 34.248 124.083 34.5493 124.873 35.152C125.662 35.7493 126.206 36.568 126.505 37.608L125.065 37.904C124.825 37.2053 124.43 36.648 123.881 36.232C123.331 35.816 122.646 35.608 121.825 35.608C120.966 35.6027 120.251 35.7947 119.681 36.184C119.115 36.568 118.689 37.1093 118.401 37.808C118.113 38.5067 117.966 39.3173 117.961 40.24C117.955 41.1573 118.097 41.9627 118.385 42.656C118.673 43.3493 119.102 43.8933 119.673 44.288C120.249 44.6773 120.966 44.8747 121.825 44.88C122.566 44.8853 123.19 44.744 123.697 44.456C124.203 44.168 124.595 43.752 124.873 43.208C125.15 42.664 125.318 42.0107 125.377 41.248H122.929V40.072H126.881C126.897 40.1787 126.905 40.3067 126.905 40.456C126.91 40.6 126.913 40.6987 126.913 40.752C126.913 41.8027 126.715 42.744 126.321 43.576C125.931 44.4027 125.353 45.0533 124.585 45.528C123.822 46.0027 122.878 46.24 121.753 46.24ZM130.786 46V41.208L126.906 34.48H128.562L131.506 39.576L134.442 34.48H136.098L132.226 41.208V46H130.786ZM143.52 46.24C142.88 46.24 142.283 46.1467 141.728 45.96C141.174 45.7733 140.71 45.48 140.336 45.08C140.048 44.76 139.832 44.408 139.688 44.024C139.55 43.6347 139.472 43.224 139.456 42.792C139.456 42.3707 139.518 41.96 139.64 41.56C139.763 41.1547 139.958 40.7947 140.224 40.48C140.363 40.3093 140.518 40.1653 140.688 40.048C140.864 39.9253 141.04 39.8213 141.216 39.736C140.848 39.3413 140.566 38.9707 140.368 38.624C140.176 38.2773 140.08 37.8587 140.08 37.368C140.08 36.744 140.24 36.1813 140.56 35.68C140.886 35.1733 141.328 34.8027 141.888 34.568C142.16 34.4507 142.438 34.3707 142.72 34.328C143.008 34.28 143.288 34.256 143.56 34.256C144.019 34.256 144.464 34.32 144.896 34.448C145.328 34.576 145.696 34.784 146 35.072C146.203 35.2427 146.376 35.44 146.52 35.664C146.664 35.8827 146.776 36.112 146.856 36.352L145.464 36.712C145.363 36.44 145.195 36.2107 144.96 36.024C144.774 35.864 144.555 35.7547 144.304 35.696C144.059 35.6373 143.811 35.608 143.56 35.608C143.144 35.608 142.768 35.688 142.432 35.848C142.134 35.992 141.91 36.1947 141.76 36.456C141.611 36.712 141.536 37.016 141.536 37.368C141.536 37.672 141.587 37.9227 141.688 38.12C141.795 38.312 141.942 38.5173 142.128 38.736C142.24 38.8533 142.366 38.9787 142.504 39.112C142.648 39.24 142.795 39.3733 142.944 39.512L146.336 42.664C146.352 42.5307 146.363 42.3947 146.368 42.256C146.374 42.1173 146.376 41.984 146.376 41.856L146.368 40.264H147.672V42.136C147.672 42.5147 147.659 42.8373 147.632 43.104C147.611 43.3707 147.574 43.592 147.52 43.768L148.984 45.12L148.056 46.112L146.84 44.96C146.632 45.1947 146.384 45.4 146.096 45.576C145.808 45.752 145.52 45.8853 145.232 45.976C144.96 46.0773 144.68 46.1467 144.392 46.184C144.104 46.2213 143.814 46.24 143.52 46.24ZM143.552 44.872C143.814 44.872 144.051 44.856 144.264 44.824C144.478 44.792 144.68 44.7307 144.872 44.64C145.128 44.5173 145.326 44.4 145.464 44.288C145.603 44.176 145.718 44.072 145.808 43.976L142.296 40.76C142.104 40.824 141.923 40.9093 141.752 41.016C141.587 41.1227 141.443 41.248 141.32 41.392C141.182 41.5627 141.078 41.7627 141.008 41.992C140.944 42.2213 140.912 42.464 140.912 42.72C140.918 42.992 140.963 43.2427 141.048 43.472C141.134 43.7013 141.254 43.9067 141.408 44.088C141.643 44.36 141.96 44.56 142.36 44.688C142.76 44.8107 143.158 44.872 143.552 44.872ZM157.583 46.24C156.767 46.24 156.031 46.1013 155.375 45.824C154.724 45.5467 154.186 45.152 153.759 44.64C153.338 44.1227 153.063 43.512 152.935 42.808L154.407 42.576C154.594 43.3013 154.98 43.8693 155.567 44.28C156.159 44.6853 156.855 44.888 157.655 44.888C158.172 44.888 158.639 44.808 159.055 44.648C159.476 44.4827 159.81 44.248 160.055 43.944C160.3 43.64 160.423 43.28 160.423 42.864C160.423 42.608 160.378 42.3893 160.287 42.208C160.202 42.0213 160.082 41.864 159.927 41.736C159.778 41.6027 159.607 41.4907 159.415 41.4C159.223 41.3093 159.023 41.2347 158.815 41.176L155.879 40.304C155.559 40.208 155.25 40.088 154.951 39.944C154.652 39.7947 154.386 39.6107 154.151 39.392C153.916 39.168 153.73 38.9013 153.591 38.592C153.452 38.2773 153.383 37.9067 153.383 37.48C153.383 36.7973 153.559 36.216 153.911 35.736C154.268 35.2507 154.751 34.88 155.359 34.624C155.967 34.368 156.652 34.2427 157.415 34.248C158.188 34.2533 158.879 34.392 159.487 34.664C160.1 34.9307 160.607 35.3147 161.007 35.816C161.412 36.3173 161.684 36.9173 161.823 37.616L160.311 37.88C160.231 37.4107 160.052 37.008 159.775 36.672C159.503 36.3307 159.162 36.0693 158.751 35.888C158.34 35.7013 157.89 35.6053 157.399 35.6C156.93 35.5947 156.506 35.6693 156.127 35.824C155.748 35.9787 155.447 36.1947 155.223 36.472C154.999 36.744 154.887 37.0587 154.887 37.416C154.887 37.768 154.988 38.0533 155.191 38.272C155.394 38.4853 155.642 38.656 155.935 38.784C156.234 38.9067 156.524 39.008 156.807 39.088L158.999 39.72C159.25 39.7893 159.538 39.8853 159.863 40.008C160.194 40.1307 160.514 40.304 160.823 40.528C161.132 40.7467 161.388 41.04 161.591 41.408C161.794 41.7707 161.895 42.2293 161.895 42.784C161.895 43.3387 161.783 43.832 161.559 44.264C161.34 44.696 161.034 45.0587 160.639 45.352C160.244 45.64 159.786 45.8587 159.263 46.008C158.74 46.1627 158.18 46.24 157.583 46.24ZM168.309 46.24C167.162 46.24 166.189 45.9867 165.389 45.48C164.589 44.9733 163.978 44.2693 163.557 43.368C163.141 42.4667 162.933 41.424 162.933 40.24C162.933 39.056 163.141 38.0133 163.557 37.112C163.978 36.2107 164.589 35.5067 165.389 35C166.189 34.4933 167.162 34.24 168.309 34.24C169.461 34.24 170.437 34.4933 171.237 35C172.037 35.5067 172.645 36.2107 173.061 37.112C173.477 38.0133 173.685 39.056 173.685 40.24C173.685 41.424 173.477 42.4667 173.061 43.368C172.645 44.2693 172.037 44.9733 171.237 45.48C170.437 45.9867 169.461 46.24 168.309 46.24ZM168.309 44.88C169.168 44.8853 169.882 44.6933 170.453 44.304C171.029 43.9093 171.458 43.3627 171.741 42.664C172.029 41.9653 172.173 41.1573 172.173 40.24C172.173 39.3173 172.029 38.5093 171.741 37.816C171.458 37.1227 171.029 36.5813 170.453 36.192C169.882 35.8027 169.168 35.6053 168.309 35.6C167.45 35.5947 166.736 35.7867 166.165 36.176C165.6 36.5653 165.173 37.1093 164.885 37.808C164.597 38.5067 164.45 39.3173 164.445 40.24C164.44 41.1573 164.581 41.9627 164.869 42.656C165.157 43.3493 165.586 43.8933 166.157 44.288C166.733 44.6773 167.45 44.8747 168.309 44.88ZM180.028 46.24C178.881 46.24 177.908 45.9867 177.108 45.48C176.308 44.9733 175.697 44.2693 175.276 43.368C174.86 42.4667 174.652 41.424 174.652 40.24C174.652 39.056 174.86 38.0133 175.276 37.112C175.697 36.2107 176.308 35.5067 177.108 35C177.908 34.4933 178.881 34.24 180.028 34.24C181.361 34.24 182.457 34.5787 183.316 35.256C184.18 35.9333 184.775 36.8453 185.1 37.992L183.652 38.376C183.417 37.5173 182.999 36.84 182.396 36.344C181.793 35.848 181.004 35.6 180.028 35.6C179.169 35.6 178.455 35.7947 177.884 36.184C177.313 36.5733 176.884 37.1173 176.596 37.816C176.308 38.5093 176.161 39.3173 176.156 40.24C176.151 41.1573 176.292 41.9653 176.58 42.664C176.868 43.3573 177.3 43.9013 177.876 44.296C178.452 44.6853 179.169 44.88 180.028 44.88C181.004 44.88 181.793 44.632 182.396 44.136C182.999 43.6347 183.417 42.9573 183.652 42.104L185.1 42.488C184.775 43.6293 184.18 44.5413 183.316 45.224C182.457 45.9013 181.361 46.24 180.028 46.24ZM187.014 46V34.48H188.438V46H187.014ZM190.039 46L193.895 34.48H195.879L199.735 46H198.255L194.647 35.312H195.095L191.519 46H190.039ZM191.895 43.304V41.968H197.879V43.304H191.895ZM201.327 46V34.48H202.751V44.648H208.095V46H201.327ZM211.854 46V34.48H213.15L217.502 43.656L221.83 34.48H223.142V45.992H221.79V37.608L217.878 46H217.118L213.206 37.608V46H211.854ZM225.386 46V34.48H232.666V35.832H226.81V39.44H231.706V40.792H226.81V44.648H232.666V46H225.386ZM234.589 46V34.48H238.141C238.258 34.48 238.463 34.4827 238.757 34.488C239.05 34.4933 239.33 34.5147 239.597 34.552C240.487 34.6693 241.231 34.9947 241.829 35.528C242.431 36.056 242.885 36.728 243.189 37.544C243.493 38.36 243.645 39.2587 243.645 40.24C243.645 41.2213 243.493 42.12 243.189 42.936C242.885 43.752 242.431 44.4267 241.829 44.96C241.231 45.488 240.487 45.8107 239.597 45.928C239.33 45.96 239.047 45.9813 238.749 45.992C238.455 45.9973 238.253 46 238.141 46H234.589ZM236.053 44.64H238.141C238.343 44.64 238.57 44.6347 238.821 44.624C239.071 44.608 239.29 44.584 239.477 44.552C240.106 44.4347 240.615 44.1707 241.005 43.76C241.394 43.3493 241.679 42.8373 241.861 42.224C242.042 41.6107 242.133 40.9493 242.133 40.24C242.133 39.5147 242.039 38.8453 241.853 38.232C241.671 37.6187 241.386 37.1093 240.997 36.704C240.607 36.2987 240.101 36.04 239.477 35.928C239.29 35.8907 239.069 35.8667 238.813 35.856C238.557 35.8453 238.333 35.84 238.141 35.84H236.053V44.64ZM245.639 46V34.48H247.063V46H245.639ZM248.664 46L252.52 34.48H254.504L258.36 46H256.88L253.272 35.312H253.72L250.144 46H248.664ZM250.52 43.304V41.968H256.504V43.304H250.52Z" fill="white"></path> <defs> <linearGradient id="paint0_linear_131_133" x1="300" y1="0" x2="300" y2="400" gradientUnits="userSpaceOnUse"> <stop stop-color="#9D50BB"></stop> <stop offset="1" stop-color="#6E48AA"></stop> </linearGradient> </defs> </svg> 