<?xml version="1.0" encoding="UTF-8"?> <svg xmlns="http://www.w3.org/2000/svg" width="600" height="400" viewBox="0 0 600 400" fill="none"> <rect width="600" height="400" rx="20" fill="url(#paint0_linear_131_137)"></rect> <path d="M100.503 193L95.8721 177.16H98.6551L101.812 188.6L104.958 177.182L107.741 177.16L110.898 188.6L114.044 177.16H116.827L112.207 193H109.589L106.344 181.736L103.121 193H100.503ZM118.622 193V177.16H121.273V183.826H128.775V177.16H131.415V193H128.775V186.312H121.273V193H118.622ZM134.719 193V177.16H137.37V193H134.719ZM147.364 193.33C145.78 193.33 144.423 192.985 143.294 192.296C142.165 191.599 141.296 190.631 140.687 189.392C140.086 188.153 139.785 186.715 139.785 185.08C139.785 183.445 140.086 182.007 140.687 180.768C141.296 179.529 142.165 178.564 143.294 177.875C144.423 177.178 145.78 176.83 147.364 176.83C149.19 176.83 150.712 177.288 151.929 178.205C153.146 179.114 154.001 180.343 154.492 181.89L151.819 182.627C151.511 181.593 150.987 180.786 150.246 180.207C149.505 179.62 148.545 179.327 147.364 179.327C146.301 179.327 145.413 179.565 144.702 180.042C143.998 180.519 143.466 181.19 143.107 182.055C142.755 182.913 142.575 183.921 142.568 185.08C142.568 186.239 142.744 187.251 143.096 188.116C143.455 188.974 143.991 189.641 144.702 190.118C145.413 190.595 146.301 190.833 147.364 190.833C148.545 190.833 149.505 190.54 150.246 189.953C150.987 189.366 151.511 188.56 151.819 187.533L154.492 188.27C154.001 189.817 153.146 191.049 151.929 191.966C150.712 192.875 149.19 193.33 147.364 193.33ZM156.907 193V177.16H159.558V183.826H167.06V177.16H169.7V193H167.06V186.312H159.558V193H156.907ZM180.356 193.33C179.146 193.33 178.138 193.015 177.331 192.384C176.532 191.753 175.971 190.903 175.648 189.832L178.266 189.205C178.347 189.652 178.582 190.037 178.97 190.36C179.359 190.683 179.788 190.844 180.257 190.844C180.565 190.844 180.892 190.763 181.236 190.602C181.581 190.433 181.838 190.166 182.006 189.799C182.109 189.564 182.168 189.286 182.182 188.963C182.204 188.633 182.215 188.252 182.215 187.819V177.16H184.899V187.819C184.899 188.31 184.896 188.743 184.888 189.117C184.888 189.484 184.852 189.832 184.778 190.162C184.712 190.485 184.577 190.818 184.371 191.163C183.939 191.911 183.374 192.461 182.677 192.813C181.981 193.158 181.207 193.33 180.356 193.33ZM194.909 193.33C193.325 193.33 191.968 192.985 190.839 192.296C189.71 191.599 188.841 190.631 188.232 189.392C187.631 188.153 187.33 186.715 187.33 185.08C187.33 183.445 187.631 182.007 188.232 180.768C188.841 179.529 189.71 178.564 190.839 177.875C191.968 177.178 193.325 176.83 194.909 176.83C196.493 176.83 197.85 177.178 198.979 177.875C200.116 178.564 200.985 179.529 201.586 180.768C202.195 182.007 202.499 183.445 202.499 185.08C202.499 186.715 202.195 188.153 201.586 189.392C200.985 190.631 200.116 191.599 198.979 192.296C197.85 192.985 196.493 193.33 194.909 193.33ZM194.909 190.833C195.972 190.84 196.856 190.606 197.56 190.129C198.271 189.652 198.803 188.981 199.155 188.116C199.514 187.251 199.694 186.239 199.694 185.08C199.694 183.921 199.514 182.917 199.155 182.066C198.803 181.208 198.271 180.541 197.56 180.064C196.856 179.587 195.972 179.342 194.909 179.327C193.846 179.32 192.962 179.554 192.258 180.031C191.554 180.508 191.022 181.179 190.663 182.044C190.311 182.909 190.135 183.921 190.135 185.08C190.135 186.239 190.311 187.247 190.663 188.105C191.015 188.956 191.543 189.619 192.247 190.096C192.958 190.573 193.846 190.818 194.909 190.833ZM204.688 193V177.16H210.969C212.04 177.16 212.916 177.376 213.598 177.809C214.288 178.234 214.797 178.781 215.127 179.448C215.465 180.115 215.633 180.805 215.633 181.516C215.633 182.389 215.424 183.129 215.006 183.738C214.596 184.347 214.035 184.757 213.323 184.97V184.42C214.321 184.647 215.076 185.12 215.589 185.839C216.11 186.558 216.37 187.375 216.37 188.292C216.37 189.231 216.191 190.052 215.831 190.756C215.472 191.46 214.937 192.01 214.225 192.406C213.521 192.802 212.649 193 211.607 193H204.688ZM207.372 190.503H211.277C211.739 190.503 212.154 190.411 212.52 190.228C212.887 190.037 213.173 189.773 213.378 189.436C213.591 189.091 213.697 188.684 213.697 188.215C213.697 187.79 213.606 187.408 213.422 187.071C213.239 186.734 212.971 186.466 212.619 186.268C212.267 186.063 211.846 185.96 211.354 185.96H207.372V190.503ZM207.372 183.485H210.936C211.318 183.485 211.659 183.412 211.959 183.265C212.26 183.118 212.498 182.902 212.674 182.616C212.85 182.33 212.938 181.978 212.938 181.56C212.938 181.01 212.762 180.552 212.41 180.185C212.058 179.818 211.567 179.635 210.936 179.635H207.372V183.485ZM224.43 193.33C223.272 193.33 222.227 193.128 221.295 192.725C220.371 192.322 219.609 191.746 219.007 190.998C218.413 190.243 218.036 189.348 217.874 188.314L220.624 187.896C220.859 188.835 221.339 189.561 222.065 190.074C222.799 190.587 223.642 190.844 224.595 190.844C225.16 190.844 225.692 190.756 226.19 190.58C226.689 190.404 227.092 190.147 227.4 189.81C227.716 189.473 227.873 189.058 227.873 188.567C227.873 188.347 227.837 188.145 227.763 187.962C227.69 187.771 227.58 187.603 227.433 187.456C227.294 187.309 227.111 187.177 226.883 187.06C226.663 186.935 226.407 186.829 226.113 186.741L222.021 185.531C221.669 185.428 221.288 185.293 220.877 185.124C220.474 184.948 220.089 184.71 219.722 184.409C219.363 184.101 219.066 183.712 218.831 183.243C218.604 182.766 218.49 182.18 218.49 181.483C218.49 180.464 218.747 179.609 219.26 178.92C219.781 178.223 220.478 177.703 221.35 177.358C222.23 177.013 223.206 176.845 224.276 176.852C225.362 176.859 226.33 177.046 227.18 177.413C228.031 177.772 228.742 178.297 229.314 178.986C229.886 179.675 230.29 180.508 230.524 181.483L227.675 181.978C227.558 181.421 227.331 180.948 226.993 180.559C226.663 180.163 226.256 179.862 225.772 179.657C225.296 179.452 224.786 179.342 224.243 179.327C223.715 179.32 223.224 179.4 222.769 179.569C222.322 179.73 221.959 179.965 221.68 180.273C221.409 180.581 221.273 180.94 221.273 181.351C221.273 181.74 221.391 182.059 221.625 182.308C221.86 182.55 222.15 182.744 222.494 182.891C222.846 183.03 223.202 183.148 223.561 183.243L226.399 184.035C226.788 184.138 227.224 184.277 227.708 184.453C228.192 184.629 228.658 184.875 229.105 185.19C229.553 185.505 229.919 185.92 230.205 186.433C230.499 186.946 230.645 187.599 230.645 188.391C230.645 189.212 230.473 189.935 230.128 190.558C229.791 191.174 229.333 191.687 228.753 192.098C228.174 192.509 227.51 192.817 226.762 193.022C226.022 193.227 225.244 193.33 224.43 193.33ZM244.13 193.33C242.546 193.33 241.189 192.985 240.06 192.296C238.93 191.599 238.061 190.631 237.453 189.392C236.851 188.153 236.551 186.715 236.551 185.08C236.551 183.445 236.851 182.007 237.453 180.768C238.061 179.529 238.93 178.564 240.06 177.875C241.189 177.178 242.546 176.83 244.13 176.83C245.956 176.83 247.477 177.288 248.695 178.205C249.912 179.114 250.766 180.343 251.258 181.89L248.585 182.627C248.277 181.593 247.752 180.786 247.012 180.207C246.271 179.62 245.31 179.327 244.13 179.327C243.066 179.327 242.179 179.565 241.468 180.042C240.764 180.519 240.232 181.19 239.873 182.055C239.521 182.913 239.341 183.921 239.334 185.08C239.334 186.239 239.51 187.251 239.862 188.116C240.221 188.974 240.756 189.641 241.468 190.118C242.179 190.595 243.066 190.833 244.13 190.833C245.31 190.833 246.271 190.54 247.012 189.953C247.752 189.366 248.277 188.56 248.585 187.533L251.258 188.27C250.766 189.817 249.912 191.049 248.695 191.966C247.477 192.875 245.956 193.33 244.13 193.33ZM252.143 193L257.137 177.16H261.02L266.014 193H263.286L258.754 178.788H259.348L254.871 193H252.143ZM254.926 189.568V187.093H263.242V189.568H254.926ZM268.003 193V177.16H270.687L278.035 188.325V177.16H280.719V193H278.035L270.687 181.835V193H268.003ZM288.198 193V177.16H290.882L298.23 188.325V177.16H300.914V193H298.23L290.882 181.835V193H288.198ZM303.989 193V177.16H314.219V179.646H306.64V183.551H312.899V186.037H306.64V190.514H314.219V193H303.989ZM320.422 193L315.428 177.16H318.156L322.336 190.426L326.571 177.16H329.299L324.305 193H320.422ZM330.952 193V177.16H341.182V179.646H333.603V183.551H339.862V186.037H333.603V190.514H341.182V193H330.952ZM343.821 193V177.16H350.366C350.52 177.16 350.718 177.167 350.96 177.182C351.202 177.189 351.426 177.211 351.631 177.248C352.548 177.387 353.303 177.692 353.897 178.161C354.499 178.63 354.942 179.224 355.228 179.943C355.522 180.654 355.668 181.446 355.668 182.319C355.668 183.61 355.342 184.721 354.689 185.652C354.037 186.576 353.036 187.148 351.686 187.368L350.553 187.467H346.472V193H343.821ZM352.918 193L349.794 186.554L352.489 185.96L355.921 193H352.918ZM346.472 184.992H350.256C350.403 184.992 350.568 184.985 350.751 184.97C350.935 184.955 351.103 184.926 351.257 184.882C351.697 184.772 352.042 184.578 352.291 184.299C352.548 184.02 352.728 183.705 352.83 183.353C352.94 183.001 352.995 182.656 352.995 182.319C352.995 181.982 352.94 181.637 352.83 181.285C352.728 180.926 352.548 180.607 352.291 180.328C352.042 180.049 351.697 179.855 351.257 179.745C351.103 179.701 350.935 179.675 350.751 179.668C350.568 179.653 350.403 179.646 350.256 179.646H346.472V184.992ZM362.749 193V177.16H369.03C370.101 177.16 370.977 177.376 371.659 177.809C372.348 178.234 372.858 178.781 373.188 179.448C373.525 180.115 373.694 180.805 373.694 181.516C373.694 182.389 373.485 183.129 373.067 183.738C372.656 184.347 372.095 184.757 371.384 184.97V184.42C372.381 184.647 373.137 185.12 373.65 185.839C374.171 186.558 374.431 187.375 374.431 188.292C374.431 189.231 374.251 190.052 373.892 190.756C373.533 191.46 372.997 192.01 372.286 192.406C371.582 192.802 370.709 193 369.668 193H362.749ZM365.433 190.503H369.338C369.8 190.503 370.214 190.411 370.581 190.228C370.948 190.037 371.234 189.773 371.439 189.436C371.652 189.091 371.758 188.684 371.758 188.215C371.758 187.79 371.666 187.408 371.483 187.071C371.3 186.734 371.032 186.466 370.68 186.268C370.328 186.063 369.906 185.96 369.415 185.96H365.433V190.503ZM365.433 183.485H368.997C369.378 183.485 369.719 183.412 370.02 183.265C370.321 183.118 370.559 182.902 370.735 182.616C370.911 182.33 370.999 181.978 370.999 181.56C370.999 181.01 370.823 180.552 370.471 180.185C370.119 179.818 369.628 179.635 368.997 179.635H365.433V183.485ZM376.628 193V177.16H386.858V179.646H379.279V183.551H385.538V186.037H379.279V190.514H386.858V193H376.628ZM393.901 193V177.16H400.446C400.6 177.16 400.798 177.167 401.04 177.182C401.282 177.189 401.506 177.211 401.711 177.248C402.628 177.387 403.383 177.692 403.977 178.161C404.579 178.63 405.022 179.224 405.308 179.943C405.602 180.654 405.748 181.446 405.748 182.319C405.748 183.61 405.422 184.721 404.769 185.652C404.117 186.576 403.116 187.148 401.766 187.368L400.633 187.467H396.552V193H393.901ZM402.998 193L399.874 186.554L402.569 185.96L406.001 193H402.998ZM396.552 184.992H400.336C400.483 184.992 400.648 184.985 400.831 184.97C401.015 184.955 401.183 184.926 401.337 184.882C401.777 184.772 402.122 184.578 402.371 184.299C402.628 184.02 402.808 183.705 402.91 183.353C403.02 183.001 403.075 182.656 403.075 182.319C403.075 181.982 403.02 181.637 402.91 181.285C402.808 180.926 402.628 180.607 402.371 180.328C402.122 180.049 401.777 179.855 401.337 179.745C401.183 179.701 401.015 179.675 400.831 179.668C400.648 179.653 400.483 179.646 400.336 179.646H396.552V184.992ZM408.425 193V177.16H418.655V179.646H411.076V183.551H417.335V186.037H411.076V190.514H418.655V193H408.425ZM421.294 193V177.16H427.839C427.993 177.16 428.191 177.167 428.433 177.182C428.675 177.189 428.899 177.211 429.104 177.248C430.021 177.387 430.776 177.692 431.37 178.161C431.971 178.63 432.415 179.224 432.701 179.943C432.994 180.654 433.141 181.446 433.141 182.319C433.141 183.184 432.994 183.976 432.701 184.695C432.408 185.406 431.96 185.997 431.359 186.466C430.765 186.935 430.013 187.24 429.104 187.379C428.899 187.408 428.671 187.43 428.422 187.445C428.18 187.46 427.986 187.467 427.839 187.467H423.945V193H421.294ZM423.945 184.992H427.729C427.876 184.992 428.041 184.985 428.224 184.97C428.407 184.955 428.576 184.926 428.73 184.882C429.17 184.772 429.515 184.578 429.764 184.299C430.021 184.02 430.2 183.705 430.303 183.353C430.413 183.001 430.468 182.656 430.468 182.319C430.468 181.982 430.413 181.637 430.303 181.285C430.2 180.926 430.021 180.607 429.764 180.328C429.515 180.049 429.17 179.855 428.73 179.745C428.576 179.701 428.407 179.675 428.224 179.668C428.041 179.653 427.876 179.646 427.729 179.646H423.945V184.992ZM435.565 193V177.16H438.216V190.514H445.212V193H435.565ZM445.975 193L450.969 177.16H454.852L459.846 193H457.118L452.586 178.788H453.18L448.703 193H445.975ZM448.758 189.568V187.093H457.074V189.568H448.758ZM468.104 193.33C466.52 193.33 465.164 192.985 464.034 192.296C462.905 191.599 462.036 190.631 461.427 189.392C460.826 188.153 460.525 186.715 460.525 185.08C460.525 183.445 460.826 182.007 461.427 180.768C462.036 179.529 462.905 178.564 464.034 177.875C465.164 177.178 466.52 176.83 468.104 176.83C469.93 176.83 471.452 177.288 472.669 178.205C473.887 179.114 474.741 180.343 475.232 181.89L472.559 182.627C472.251 181.593 471.727 180.786 470.986 180.207C470.246 179.62 469.285 179.327 468.104 179.327C467.041 179.327 466.154 179.565 465.442 180.042C464.738 180.519 464.207 181.19 463.847 182.055C463.495 182.913 463.316 183.921 463.308 185.08C463.308 186.239 463.484 187.251 463.836 188.116C464.196 188.974 464.731 189.641 465.442 190.118C466.154 190.595 467.041 190.833 468.104 190.833C469.285 190.833 470.246 190.54 470.986 189.953C471.727 189.366 472.251 188.56 472.559 187.533L475.232 188.27C474.741 189.817 473.887 191.049 472.669 191.966C471.452 192.875 469.93 193.33 468.104 193.33ZM477.647 193V177.16H487.877V179.646H480.298V183.551H486.557V186.037H480.298V190.514H487.877V193H477.647ZM490.517 193V177.16H495.566C495.698 177.16 495.958 177.164 496.347 177.171C496.743 177.178 497.124 177.204 497.491 177.248C498.745 177.409 499.804 177.857 500.67 178.59C501.542 179.316 502.202 180.244 502.65 181.373C503.097 182.502 503.321 183.738 503.321 185.08C503.321 186.422 503.097 187.658 502.65 188.787C502.202 189.916 501.542 190.848 500.67 191.581C499.804 192.307 498.745 192.751 497.491 192.912C497.131 192.956 496.754 192.982 496.358 192.989C495.962 192.996 495.698 193 495.566 193H490.517ZM493.212 190.503H495.566C495.786 190.503 496.064 190.496 496.402 190.481C496.746 190.466 497.051 190.433 497.315 190.382C498.063 190.243 498.671 189.909 499.141 189.381C499.61 188.853 499.955 188.211 500.175 187.456C500.402 186.701 500.516 185.909 500.516 185.08C500.516 184.222 500.402 183.415 500.175 182.66C499.947 181.905 499.595 181.27 499.119 180.757C498.649 180.244 498.048 179.917 497.315 179.778C497.051 179.719 496.746 179.686 496.402 179.679C496.064 179.664 495.786 179.657 495.566 179.657H493.212V190.503ZM145.187 224V208.16H151.468C152.539 208.16 153.415 208.376 154.097 208.809C154.787 209.234 155.296 209.781 155.626 210.448C155.964 211.115 156.132 211.805 156.132 212.516C156.132 213.389 155.923 214.129 155.505 214.738C155.095 215.347 154.534 215.757 153.822 215.97V215.42C154.82 215.647 155.575 216.12 156.088 216.839C156.609 217.558 156.869 218.375 156.869 219.292C156.869 220.231 156.69 221.052 156.33 221.756C155.971 222.46 155.436 223.01 154.724 223.406C154.02 223.802 153.148 224 152.106 224H145.187ZM147.871 221.503H151.776C152.238 221.503 152.653 221.411 153.019 221.228C153.386 221.037 153.672 220.773 153.877 220.436C154.09 220.091 154.196 219.684 154.196 219.215C154.196 218.79 154.105 218.408 153.921 218.071C153.738 217.734 153.47 217.466 153.118 217.268C152.766 217.063 152.345 216.96 151.853 216.96H147.871V221.503ZM147.871 214.485H151.435C151.817 214.485 152.158 214.412 152.458 214.265C152.759 214.118 152.997 213.902 153.173 213.616C153.349 213.33 153.437 212.978 153.437 212.56C153.437 212.01 153.261 211.552 152.909 211.185C152.557 210.818 152.066 210.635 151.435 210.635H147.871V214.485ZM162.25 224V217.51L156.86 208.16H159.951L163.592 214.474L167.222 208.16H170.313L164.934 217.51V224H162.25ZM174.273 224L179.267 208.16H183.15L188.144 224H185.416L180.884 209.788H181.478L177.001 224H174.273ZM177.056 220.568V218.093H185.372V220.568H177.056ZM190.133 224V208.16H196.678C196.832 208.16 197.03 208.167 197.272 208.182C197.514 208.189 197.737 208.211 197.943 208.248C198.859 208.387 199.615 208.692 200.209 209.161C200.81 209.63 201.254 210.224 201.54 210.943C201.833 211.654 201.98 212.446 201.98 213.319C201.98 214.61 201.653 215.721 201.001 216.652C200.348 217.576 199.347 218.148 197.998 218.368L196.865 218.467H192.784V224H190.133ZM199.23 224L196.106 217.554L198.801 216.96L202.233 224H199.23ZM192.784 215.992H196.568C196.714 215.992 196.879 215.985 197.063 215.97C197.246 215.955 197.415 215.926 197.569 215.882C198.009 215.772 198.353 215.578 198.603 215.299C198.859 215.02 199.039 214.705 199.142 214.353C199.252 214.001 199.307 213.656 199.307 213.319C199.307 212.982 199.252 212.637 199.142 212.285C199.039 211.926 198.859 211.607 198.603 211.328C198.353 211.049 198.009 210.855 197.569 210.745C197.415 210.701 197.246 210.675 197.063 210.668C196.879 210.653 196.714 210.646 196.568 210.646H192.784V215.992ZM208.462 224V210.646H203.336V208.16H216.239V210.646H211.113V224H208.462ZM218.218 224V208.16H220.869V224H218.218ZM224.164 224V208.16H233.701V210.811H226.815V214.76H232.381V217.4H226.815V224H224.164ZM235.9 224V208.16H238.551V224H235.9ZM248.545 224.33C246.961 224.33 245.604 223.985 244.475 223.296C243.345 222.599 242.476 221.631 241.868 220.392C241.266 219.153 240.966 217.715 240.966 216.08C240.966 214.445 241.266 213.007 241.868 211.768C242.476 210.529 243.345 209.564 244.475 208.875C245.604 208.178 246.961 207.83 248.545 207.83C250.371 207.83 251.892 208.288 253.11 209.205C254.327 210.114 255.181 211.343 255.673 212.89L253 213.627C252.692 212.593 252.167 211.786 251.427 211.207C250.686 210.62 249.725 210.327 248.545 210.327C247.481 210.327 246.594 210.565 245.883 211.042C245.179 211.519 244.647 212.19 244.288 213.055C243.936 213.913 243.756 214.921 243.749 216.08C243.749 217.239 243.925 218.251 244.277 219.116C244.636 219.974 245.171 220.641 245.883 221.118C246.594 221.595 247.481 221.833 248.545 221.833C249.725 221.833 250.686 221.54 251.427 220.953C252.167 220.366 252.692 219.56 253 218.533L255.673 219.27C255.181 220.817 254.327 222.049 253.11 222.966C251.892 223.875 250.371 224.33 248.545 224.33ZM258.308 224V208.16H260.959V224H258.308ZM263.154 224L268.148 208.16H272.031L277.025 224H274.297L269.765 209.788H270.359L265.882 224H263.154ZM265.937 220.568V218.093H274.253V220.568H265.937ZM279.234 224V208.16H281.885V221.514H288.881V224H279.234ZM294.273 224V208.16H296.924V224H294.273ZM300.219 224V208.16H302.903L310.251 219.325V208.16H312.935V224H310.251L302.903 212.835V224H300.219ZM319.816 224V210.646H314.69V208.16H327.593V210.646H322.467V224H319.816ZM329.352 224V208.16H339.582V210.646H332.003V214.551H338.262V217.037H332.003V221.514H339.582V224H329.352ZM342.441 224V208.16H345.092V221.514H352.088V224H342.441ZM354.171 224V208.16H356.822V221.514H363.818V224H354.171ZM365.902 224V208.16H368.553V224H365.902ZM378.382 224.33C377.355 224.33 376.391 224.15 375.489 223.791C374.594 223.424 373.806 222.889 373.124 222.185C372.449 221.481 371.921 220.619 371.54 219.6C371.158 218.573 370.968 217.4 370.968 216.08C370.968 214.349 371.29 212.872 371.936 211.647C372.581 210.415 373.465 209.473 374.587 208.82C375.709 208.16 376.974 207.83 378.382 207.83C380.332 207.83 381.876 208.285 383.013 209.194C384.157 210.096 384.93 211.365 385.334 213L382.628 213.429C382.327 212.49 381.836 211.742 381.154 211.185C380.472 210.62 379.603 210.338 378.547 210.338C377.483 210.323 376.6 210.554 375.896 211.031C375.192 211.508 374.66 212.179 374.301 213.044C373.949 213.909 373.773 214.921 373.773 216.08C373.773 217.239 373.949 218.247 374.301 219.105C374.653 219.956 375.181 220.619 375.885 221.096C376.596 221.573 377.483 221.818 378.547 221.833C379.346 221.84 380.046 221.697 380.648 221.404C381.249 221.103 381.74 220.652 382.122 220.051C382.503 219.442 382.76 218.683 382.892 217.774H380.098V215.695H385.708C385.722 215.812 385.733 215.985 385.741 216.212C385.748 216.439 385.752 216.575 385.752 216.619C385.752 218.115 385.455 219.446 384.861 220.612C384.274 221.771 383.431 222.68 382.331 223.34C381.231 224 379.914 224.33 378.382 224.33ZM387.961 224V208.16H398.191V210.646H390.612V214.551H396.871V217.037H390.612V221.514H398.191V224H387.961ZM400.83 224V208.16H403.514L410.862 219.325V208.16H413.546V224H410.862L403.514 212.835V224H400.83ZM423.32 224.33C421.736 224.33 420.379 223.985 419.25 223.296C418.121 222.599 417.252 221.631 416.643 220.392C416.042 219.153 415.741 217.715 415.741 216.08C415.741 214.445 416.042 213.007 416.643 211.768C417.252 210.529 418.121 209.564 419.25 208.875C420.379 208.178 421.736 207.83 423.32 207.83C425.146 207.83 426.668 208.288 427.885 209.205C429.102 210.114 429.957 211.343 430.448 212.89L427.775 213.627C427.467 212.593 426.943 211.786 426.202 211.207C425.461 210.62 424.501 210.327 423.32 210.327C422.257 210.327 421.369 210.565 420.658 211.042C419.954 211.519 419.422 212.19 419.063 213.055C418.711 213.913 418.531 214.921 418.524 216.08C418.524 217.239 418.7 218.251 419.052 219.116C419.411 219.974 419.947 220.641 420.658 221.118C421.369 221.595 422.257 221.833 423.32 221.833C424.501 221.833 425.461 221.54 426.202 220.953C426.943 220.366 427.467 219.56 427.775 218.533L430.448 219.27C429.957 220.817 429.102 222.049 427.885 222.966C426.668 223.875 425.146 224.33 423.32 224.33ZM432.863 224V208.16H443.093V210.646H435.514V214.551H441.773V217.037H435.514V221.514H443.093V224H432.863ZM448.603 219.699C448.603 219.193 448.651 218.705 448.746 218.236C448.849 217.759 449.014 217.319 449.241 216.916C449.439 216.527 449.659 216.219 449.901 215.992C450.143 215.757 450.415 215.526 450.715 215.299C451.016 215.064 451.35 214.753 451.716 214.364C452.017 214.034 452.215 213.708 452.31 213.385C452.406 213.055 452.453 212.703 452.453 212.329C452.453 212.087 452.428 211.86 452.376 211.647C452.325 211.434 452.233 211.251 452.101 211.097C451.896 210.826 451.632 210.635 451.309 210.525C450.987 210.408 450.642 210.349 450.275 210.349C449.975 210.349 449.685 210.389 449.406 210.47C449.135 210.543 448.904 210.661 448.713 210.822C448.493 210.998 448.332 211.214 448.229 211.471C448.127 211.728 448.079 212.01 448.086 212.318H445.292C445.366 211.585 445.564 210.906 445.886 210.283C446.216 209.652 446.649 209.15 447.184 208.776C447.602 208.468 448.072 208.237 448.592 208.083C449.12 207.929 449.648 207.852 450.176 207.852C450.983 207.852 451.742 207.977 452.453 208.226C453.172 208.475 453.77 208.886 454.246 209.458C454.576 209.832 454.826 210.265 454.994 210.756C455.17 211.247 455.258 211.746 455.258 212.252C455.258 213.007 455.093 213.697 454.763 214.32C454.441 214.943 454.03 215.519 453.531 216.047C453.297 216.296 453.073 216.516 452.86 216.707C452.648 216.898 452.45 217.085 452.266 217.268C452.09 217.444 451.944 217.631 451.826 217.829C451.621 218.174 451.5 218.467 451.463 218.709C451.427 218.944 451.408 219.274 451.408 219.699H448.603ZM448.625 224V221.085H451.408V224H448.625Z" fill="white"></path> <rect x="20" y="20" width="251" height="40" rx="20" fill="white" fill-opacity="0.3"></rect> <path d="M36.4161 46V35.832H32.4881V34.48H41.7681V35.832H37.8401V46H36.4161ZM43.0419 46V34.48H50.3219V35.832H44.4659V39.44H49.3619V40.792H44.4659V44.648H50.3219V46H43.0419ZM56.5748 46.24C55.4281 46.24 54.4548 45.9867 53.6548 45.48C52.8548 44.9733 52.2441 44.2693 51.8228 43.368C51.4068 42.4667 51.1988 41.424 51.1988 40.24C51.1988 39.056 51.4068 38.0133 51.8228 37.112C52.2441 36.2107 52.8548 35.5067 53.6548 35C54.4548 34.4933 55.4281 34.24 56.5748 34.24C57.9081 34.24 59.0041 34.5787 59.8628 35.256C60.7268 35.9333 61.3214 36.8453 61.6468 37.992L60.1988 38.376C59.9641 37.5173 59.5454 36.84 58.9427 36.344C58.3401 35.848 57.5508 35.6 56.5748 35.6C55.7161 35.6 55.0014 35.7947 54.4308 36.184C53.8601 36.5733 53.4308 37.1173 53.1428 37.816C52.8548 38.5093 52.7081 39.3173 52.7028 40.24C52.6974 41.1573 52.8388 41.9653 53.1268 42.664C53.4148 43.3573 53.8468 43.9013 54.4228 44.296C54.9988 44.6853 55.7161 44.88 56.5748 44.88C57.5508 44.88 58.3401 44.632 58.9427 44.136C59.5454 43.6347 59.9641 42.9573 60.1988 42.104L61.6468 42.488C61.3214 43.6293 60.7268 44.5413 59.8628 45.224C59.0041 45.9013 57.9081 46.24 56.5748 46.24ZM63.4013 46V34.48H64.8253V39.56H70.8893V34.48H72.3133V46H70.8893V40.912H64.8253V46H63.4013ZM74.5575 46V34.48H75.9975L82.0055 43.48V34.48H83.4455V46H82.0055L75.9975 36.992V46H74.5575ZM90.4185 46.24C89.2718 46.24 88.2985 45.9867 87.4985 45.48C86.6985 44.9733 86.0878 44.2693 85.6665 43.368C85.2505 42.4667 85.0425 41.424 85.0425 40.24C85.0425 39.056 85.2505 38.0133 85.6665 37.112C86.0878 36.2107 86.6985 35.5067 87.4985 35C88.2985 34.4933 89.2718 34.24 90.4185 34.24C91.5705 34.24 92.5465 34.4933 93.3465 35C94.1465 35.5067 94.7545 36.2107 95.1705 37.112C95.5865 38.0133 95.7945 39.056 95.7945 40.24C95.7945 41.424 95.5865 42.4667 95.1705 43.368C94.7545 44.2693 94.1465 44.9733 93.3465 45.48C92.5465 45.9867 91.5705 46.24 90.4185 46.24ZM90.4185 44.88C91.2772 44.8853 91.9918 44.6933 92.5625 44.304C93.1385 43.9093 93.5678 43.3627 93.8505 42.664C94.1385 41.9653 94.2825 41.1573 94.2825 40.24C94.2825 39.3173 94.1385 38.5093 93.8505 37.816C93.5678 37.1227 93.1385 36.5813 92.5625 36.192C91.9918 35.8027 91.2772 35.6053 90.4185 35.6C89.5598 35.5947 88.8452 35.7867 88.2745 36.176C87.7092 36.5653 87.2825 37.1093 86.9945 37.808C86.7065 38.5067 86.5598 39.3173 86.5545 40.24C86.5492 41.1573 86.6905 41.9627 86.9785 42.656C87.2665 43.3493 87.6958 43.8933 88.2665 44.288C88.8425 44.6773 89.5598 44.8747 90.4185 44.88ZM97.5613 46V34.48H98.9853V44.648H104.329V46H97.5613ZM110.106 46.24C108.959 46.24 107.986 45.9867 107.186 45.48C106.386 44.9733 105.775 44.2693 105.354 43.368C104.938 42.4667 104.73 41.424 104.73 40.24C104.73 39.056 104.938 38.0133 105.354 37.112C105.775 36.2107 106.386 35.5067 107.186 35C107.986 34.4933 108.959 34.24 110.106 34.24C111.258 34.24 112.234 34.4933 113.034 35C113.834 35.5067 114.442 36.2107 114.858 37.112C115.274 38.0133 115.482 39.056 115.482 40.24C115.482 41.424 115.274 42.4667 114.858 43.368C114.442 44.2693 113.834 44.9733 113.034 45.48C112.234 45.9867 111.258 46.24 110.106 46.24ZM110.106 44.88C110.965 44.8853 111.679 44.6933 112.25 44.304C112.826 43.9093 113.255 43.3627 113.538 42.664C113.826 41.9653 113.97 41.1573 113.97 40.24C113.97 39.3173 113.826 38.5093 113.538 37.816C113.255 37.1227 112.826 36.5813 112.25 36.192C111.679 35.8027 110.965 35.6053 110.106 35.6C109.247 35.5947 108.533 35.7867 107.962 36.176C107.397 36.5653 106.97 37.1093 106.682 37.808C106.394 38.5067 106.247 39.3173 106.242 40.24C106.237 41.1573 106.378 41.9627 106.666 42.656C106.954 43.3493 107.383 43.8933 107.954 44.288C108.53 44.6773 109.247 44.8747 110.106 44.88ZM121.753 46.24C120.963 46.24 120.243 46.1013 119.593 45.824C118.942 45.5467 118.382 45.1493 117.913 44.632C117.443 44.1093 117.081 43.48 116.825 42.744C116.574 42.0027 116.449 41.168 116.449 40.24C116.449 39.0133 116.667 37.952 117.105 37.056C117.542 36.16 118.158 35.4693 118.953 34.984C119.747 34.4933 120.681 34.248 121.753 34.248C123.043 34.248 124.083 34.5493 124.873 35.152C125.662 35.7493 126.206 36.568 126.505 37.608L125.065 37.904C124.825 37.2053 124.43 36.648 123.881 36.232C123.331 35.816 122.646 35.608 121.825 35.608C120.966 35.6027 120.251 35.7947 119.681 36.184C119.115 36.568 118.689 37.1093 118.401 37.808C118.113 38.5067 117.966 39.3173 117.961 40.24C117.955 41.1573 118.097 41.9627 118.385 42.656C118.673 43.3493 119.102 43.8933 119.673 44.288C120.249 44.6773 120.966 44.8747 121.825 44.88C122.566 44.8853 123.19 44.744 123.697 44.456C124.203 44.168 124.595 43.752 124.873 43.208C125.15 42.664 125.318 42.0107 125.377 41.248H122.929V40.072H126.881C126.897 40.1787 126.905 40.3067 126.905 40.456C126.91 40.6 126.913 40.6987 126.913 40.752C126.913 41.8027 126.715 42.744 126.321 43.576C125.931 44.4027 125.353 45.0533 124.585 45.528C123.822 46.0027 122.878 46.24 121.753 46.24ZM130.786 46V41.208L126.906 34.48H128.562L131.506 39.576L134.442 34.48H136.098L132.226 41.208V46H130.786ZM143.52 46.24C142.88 46.24 142.283 46.1467 141.728 45.96C141.174 45.7733 140.71 45.48 140.336 45.08C140.048 44.76 139.832 44.408 139.688 44.024C139.55 43.6347 139.472 43.224 139.456 42.792C139.456 42.3707 139.518 41.96 139.64 41.56C139.763 41.1547 139.958 40.7947 140.224 40.48C140.363 40.3093 140.518 40.1653 140.688 40.048C140.864 39.9253 141.04 39.8213 141.216 39.736C140.848 39.3413 140.566 38.9707 140.368 38.624C140.176 38.2773 140.08 37.8587 140.08 37.368C140.08 36.744 140.24 36.1813 140.56 35.68C140.886 35.1733 141.328 34.8027 141.888 34.568C142.16 34.4507 142.438 34.3707 142.72 34.328C143.008 34.28 143.288 34.256 143.56 34.256C144.019 34.256 144.464 34.32 144.896 34.448C145.328 34.576 145.696 34.784 146 35.072C146.203 35.2427 146.376 35.44 146.52 35.664C146.664 35.8827 146.776 36.112 146.856 36.352L145.464 36.712C145.363 36.44 145.195 36.2107 144.96 36.024C144.774 35.864 144.555 35.7547 144.304 35.696C144.059 35.6373 143.811 35.608 143.56 35.608C143.144 35.608 142.768 35.688 142.432 35.848C142.134 35.992 141.91 36.1947 141.76 36.456C141.611 36.712 141.536 37.016 141.536 37.368C141.536 37.672 141.587 37.9227 141.688 38.12C141.795 38.312 141.942 38.5173 142.128 38.736C142.24 38.8533 142.366 38.9787 142.504 39.112C142.648 39.24 142.795 39.3733 142.944 39.512L146.336 42.664C146.352 42.5307 146.363 42.3947 146.368 42.256C146.374 42.1173 146.376 41.984 146.376 41.856L146.368 40.264H147.672V42.136C147.672 42.5147 147.659 42.8373 147.632 43.104C147.611 43.3707 147.574 43.592 147.52 43.768L148.984 45.12L148.056 46.112L146.84 44.96C146.632 45.1947 146.384 45.4 146.096 45.576C145.808 45.752 145.52 45.8853 145.232 45.976C144.96 46.0773 144.68 46.1467 144.392 46.184C144.104 46.2213 143.814 46.24 143.52 46.24ZM143.552 44.872C143.814 44.872 144.051 44.856 144.264 44.824C144.478 44.792 144.68 44.7307 144.872 44.64C145.128 44.5173 145.326 44.4 145.464 44.288C145.603 44.176 145.718 44.072 145.808 43.976L142.296 40.76C142.104 40.824 141.923 40.9093 141.752 41.016C141.587 41.1227 141.443 41.248 141.32 41.392C141.182 41.5627 141.078 41.7627 141.008 41.992C140.944 42.2213 140.912 42.464 140.912 42.72C140.918 42.992 140.963 43.2427 141.048 43.472C141.134 43.7013 141.254 43.9067 141.408 44.088C141.643 44.36 141.96 44.56 142.36 44.688C142.76 44.8107 143.158 44.872 143.552 44.872ZM157.583 46.24C156.767 46.24 156.031 46.1013 155.375 45.824C154.724 45.5467 154.186 45.152 153.759 44.64C153.338 44.1227 153.063 43.512 152.935 42.808L154.407 42.576C154.594 43.3013 154.98 43.8693 155.567 44.28C156.159 44.6853 156.855 44.888 157.655 44.888C158.172 44.888 158.639 44.808 159.055 44.648C159.476 44.4827 159.81 44.248 160.055 43.944C160.3 43.64 160.423 43.28 160.423 42.864C160.423 42.608 160.378 42.3893 160.287 42.208C160.202 42.0213 160.082 41.864 159.927 41.736C159.778 41.6027 159.607 41.4907 159.415 41.4C159.223 41.3093 159.023 41.2347 158.815 41.176L155.879 40.304C155.559 40.208 155.25 40.088 154.951 39.944C154.652 39.7947 154.386 39.6107 154.151 39.392C153.916 39.168 153.73 38.9013 153.591 38.592C153.452 38.2773 153.383 37.9067 153.383 37.48C153.383 36.7973 153.559 36.216 153.911 35.736C154.268 35.2507 154.751 34.88 155.359 34.624C155.967 34.368 156.652 34.2427 157.415 34.248C158.188 34.2533 158.879 34.392 159.487 34.664C160.1 34.9307 160.607 35.3147 161.007 35.816C161.412 36.3173 161.684 36.9173 161.823 37.616L160.311 37.88C160.231 37.4107 160.052 37.008 159.775 36.672C159.503 36.3307 159.162 36.0693 158.751 35.888C158.34 35.7013 157.89 35.6053 157.399 35.6C156.93 35.5947 156.506 35.6693 156.127 35.824C155.748 35.9787 155.447 36.1947 155.223 36.472C154.999 36.744 154.887 37.0587 154.887 37.416C154.887 37.768 154.988 38.0533 155.191 38.272C155.394 38.4853 155.642 38.656 155.935 38.784C156.234 38.9067 156.524 39.008 156.807 39.088L158.999 39.72C159.25 39.7893 159.538 39.8853 159.863 40.008C160.194 40.1307 160.514 40.304 160.823 40.528C161.132 40.7467 161.388 41.04 161.591 41.408C161.794 41.7707 161.895 42.2293 161.895 42.784C161.895 43.3387 161.783 43.832 161.559 44.264C161.34 44.696 161.034 45.0587 160.639 45.352C160.244 45.64 159.786 45.8587 159.263 46.008C158.74 46.1627 158.18 46.24 157.583 46.24ZM168.309 46.24C167.162 46.24 166.189 45.9867 165.389 45.48C164.589 44.9733 163.978 44.2693 163.557 43.368C163.141 42.4667 162.933 41.424 162.933 40.24C162.933 39.056 163.141 38.0133 163.557 37.112C163.978 36.2107 164.589 35.5067 165.389 35C166.189 34.4933 167.162 34.24 168.309 34.24C169.461 34.24 170.437 34.4933 171.237 35C172.037 35.5067 172.645 36.2107 173.061 37.112C173.477 38.0133 173.685 39.056 173.685 40.24C173.685 41.424 173.477 42.4667 173.061 43.368C172.645 44.2693 172.037 44.9733 171.237 45.48C170.437 45.9867 169.461 46.24 168.309 46.24ZM168.309 44.88C169.168 44.8853 169.882 44.6933 170.453 44.304C171.029 43.9093 171.458 43.3627 171.741 42.664C172.029 41.9653 172.173 41.1573 172.173 40.24C172.173 39.3173 172.029 38.5093 171.741 37.816C171.458 37.1227 171.029 36.5813 170.453 36.192C169.882 35.8027 169.168 35.6053 168.309 35.6C167.45 35.5947 166.736 35.7867 166.165 36.176C165.6 36.5653 165.173 37.1093 164.885 37.808C164.597 38.5067 164.45 39.3173 164.445 40.24C164.44 41.1573 164.581 41.9627 164.869 42.656C165.157 43.3493 165.586 43.8933 166.157 44.288C166.733 44.6773 167.45 44.8747 168.309 44.88ZM180.028 46.24C178.881 46.24 177.908 45.9867 177.108 45.48C176.308 44.9733 175.697 44.2693 175.276 43.368C174.86 42.4667 174.652 41.424 174.652 40.24C174.652 39.056 174.86 38.0133 175.276 37.112C175.697 36.2107 176.308 35.5067 177.108 35C177.908 34.4933 178.881 34.24 180.028 34.24C181.361 34.24 182.457 34.5787 183.316 35.256C184.18 35.9333 184.775 36.8453 185.1 37.992L183.652 38.376C183.417 37.5173 182.999 36.84 182.396 36.344C181.793 35.848 181.004 35.6 180.028 35.6C179.169 35.6 178.455 35.7947 177.884 36.184C177.313 36.5733 176.884 37.1173 176.596 37.816C176.308 38.5093 176.161 39.3173 176.156 40.24C176.151 41.1573 176.292 41.9653 176.58 42.664C176.868 43.3573 177.3 43.9013 177.876 44.296C178.452 44.6853 179.169 44.88 180.028 44.88C181.004 44.88 181.793 44.632 182.396 44.136C182.999 43.6347 183.417 42.9573 183.652 42.104L185.1 42.488C184.775 43.6293 184.18 44.5413 183.316 45.224C182.457 45.9013 181.361 46.24 180.028 46.24ZM187.014 46V34.48H188.438V46H187.014ZM190.039 46L193.895 34.48H195.879L199.735 46H198.255L194.647 35.312H195.095L191.519 46H190.039ZM191.895 43.304V41.968H197.879V43.304H191.895ZM201.327 46V34.48H202.751V44.648H208.095V46H201.327ZM211.854 46V34.48H213.15L217.502 43.656L221.83 34.48H223.142V45.992H221.79V37.608L217.878 46H217.118L213.206 37.608V46H211.854ZM225.386 46V34.48H232.666V35.832H226.81V39.44H231.706V40.792H226.81V44.648H232.666V46H225.386ZM234.589 46V34.48H238.141C238.258 34.48 238.463 34.4827 238.757 34.488C239.05 34.4933 239.33 34.5147 239.597 34.552C240.487 34.6693 241.231 34.9947 241.829 35.528C242.431 36.056 242.885 36.728 243.189 37.544C243.493 38.36 243.645 39.2587 243.645 40.24C243.645 41.2213 243.493 42.12 243.189 42.936C242.885 43.752 242.431 44.4267 241.829 44.96C241.231 45.488 240.487 45.8107 239.597 45.928C239.33 45.96 239.047 45.9813 238.749 45.992C238.455 45.9973 238.253 46 238.141 46H234.589ZM236.053 44.64H238.141C238.343 44.64 238.57 44.6347 238.821 44.624C239.071 44.608 239.29 44.584 239.477 44.552C240.106 44.4347 240.615 44.1707 241.005 43.76C241.394 43.3493 241.679 42.8373 241.861 42.224C242.042 41.6107 242.133 40.9493 242.133 40.24C242.133 39.5147 242.039 38.8453 241.853 38.232C241.671 37.6187 241.386 37.1093 240.997 36.704C240.607 36.2987 240.101 36.04 239.477 35.928C239.29 35.8907 239.069 35.8667 238.813 35.856C238.557 35.8453 238.333 35.84 238.141 35.84H236.053V44.64ZM245.639 46V34.48H247.063V46H245.639ZM248.664 46L252.52 34.48H254.504L258.36 46H256.88L253.272 35.312H253.72L250.144 46H248.664ZM250.52 43.304V41.968H256.504V43.304H250.52Z" fill="white"></path> <defs> <linearGradient id="paint0_linear_131_137" x1="300" y1="0" x2="300" y2="400" gradientUnits="userSpaceOnUse"> <stop stop-color="#9D50BB"></stop> <stop offset="1" stop-color="#6E48AA"></stop> </linearGradient> </defs> </svg> 