<?xml version="1.0" encoding="UTF-8"?> <svg xmlns="http://www.w3.org/2000/svg" width="600" height="400" viewBox="0 0 600 400" fill="none"> <rect width="600" height="400" rx="20" fill="url(#paint0_linear_131_141)"></rect> <path d="M68.8213 162V146.16H73.8703C74.0023 146.16 74.2626 146.164 74.6513 146.171C75.0473 146.178 75.4286 146.204 75.7953 146.248C77.0493 146.409 78.1089 146.857 78.9743 147.59C79.8469 148.316 80.5069 149.244 80.9543 150.373C81.4016 151.502 81.6253 152.738 81.6253 154.08C81.6253 155.422 81.4016 156.658 80.9543 157.787C80.5069 158.916 79.8469 159.848 78.9743 160.581C78.1089 161.307 77.0493 161.751 75.7953 161.912C75.4359 161.956 75.0583 161.982 74.6623 161.989C74.2663 161.996 74.0023 162 73.8703 162H68.8213ZM71.5163 159.503H73.8703C74.0903 159.503 74.3689 159.496 74.7063 159.481C75.0509 159.466 75.3553 159.433 75.6193 159.382C76.3673 159.243 76.9759 158.909 77.4453 158.381C77.9146 157.853 78.2593 157.211 78.4793 156.456C78.7066 155.701 78.8203 154.909 78.8203 154.08C78.8203 153.222 78.7066 152.415 78.4793 151.66C78.2519 150.905 77.8999 150.27 77.4233 149.757C76.9539 149.244 76.3526 148.917 75.6193 148.778C75.3553 148.719 75.0509 148.686 74.7063 148.679C74.3689 148.664 74.0903 148.657 73.8703 148.657H71.5163V159.503ZM90.9245 162.33C89.3405 162.33 87.9839 161.985 86.8545 161.296C85.7252 160.599 84.8562 159.631 84.2475 158.392C83.6462 157.153 83.3455 155.715 83.3455 154.08C83.3455 152.445 83.6462 151.007 84.2475 149.768C84.8562 148.529 85.7252 147.564 86.8545 146.875C87.9839 146.178 89.3405 145.83 90.9245 145.83C92.5085 145.83 93.8652 146.178 94.9945 146.875C96.1312 147.564 97.0002 148.529 97.6015 149.768C98.2102 151.007 98.5145 152.445 98.5145 154.08C98.5145 155.715 98.2102 157.153 97.6015 158.392C97.0002 159.631 96.1312 160.599 94.9945 161.296C93.8652 161.985 92.5085 162.33 90.9245 162.33ZM90.9245 159.833C91.9879 159.84 92.8715 159.606 93.5755 159.129C94.2869 158.652 94.8185 157.981 95.1705 157.116C95.5299 156.251 95.7095 155.239 95.7095 154.08C95.7095 152.921 95.5299 151.917 95.1705 151.066C94.8185 150.208 94.2869 149.541 93.5755 149.064C92.8715 148.587 91.9879 148.342 90.9245 148.327C89.8612 148.32 88.9775 148.554 88.2735 149.031C87.5695 149.508 87.0379 150.179 86.6785 151.044C86.3265 151.909 86.1505 152.921 86.1505 154.08C86.1505 155.239 86.3265 156.247 86.6785 157.105C87.0305 157.956 87.5585 158.619 88.2625 159.096C88.9739 159.573 89.8612 159.818 90.9245 159.833ZM108.958 162V155.51L103.568 146.16H106.659L110.3 152.474L113.93 146.16H117.021L111.642 155.51V162H108.958ZM124.376 162.33C122.792 162.33 121.435 161.985 120.306 161.296C119.176 160.599 118.307 159.631 117.699 158.392C117.097 157.153 116.797 155.715 116.797 154.08C116.797 152.445 117.097 151.007 117.699 149.768C118.307 148.529 119.176 147.564 120.306 146.875C121.435 146.178 122.792 145.83 124.376 145.83C125.96 145.83 127.316 146.178 128.446 146.875C129.582 147.564 130.451 148.529 131.053 149.768C131.661 151.007 131.966 152.445 131.966 154.08C131.966 155.715 131.661 157.153 131.053 158.392C130.451 159.631 129.582 160.599 128.446 161.296C127.316 161.985 125.96 162.33 124.376 162.33ZM124.376 159.833C125.439 159.84 126.323 159.606 127.027 159.129C127.738 158.652 128.27 157.981 128.622 157.116C128.981 156.251 129.161 155.239 129.161 154.08C129.161 152.921 128.981 151.917 128.622 151.066C128.27 150.208 127.738 149.541 127.027 149.064C126.323 148.587 125.439 148.342 124.376 148.327C123.312 148.32 122.429 148.554 121.725 149.031C121.021 149.508 120.489 150.179 120.13 151.044C119.778 151.909 119.602 152.921 119.602 154.08C119.602 155.239 119.778 156.247 120.13 157.105C120.482 157.956 121.01 158.619 121.714 159.096C122.425 159.573 123.312 159.818 124.376 159.833ZM140.535 162.33C139.274 162.33 138.163 162.073 137.202 161.56C136.249 161.047 135.501 160.324 134.958 159.393C134.423 158.462 134.155 157.369 134.155 156.115V146.182L136.839 146.16V156.049C136.839 156.643 136.938 157.175 137.136 157.644C137.342 158.113 137.617 158.513 137.961 158.843C138.306 159.166 138.702 159.411 139.149 159.58C139.597 159.749 140.059 159.833 140.535 159.833C141.027 159.833 141.492 159.749 141.932 159.58C142.38 159.404 142.776 159.155 143.12 158.832C143.465 158.502 143.736 158.102 143.934 157.633C144.132 157.164 144.231 156.636 144.231 156.049V146.16H146.915V156.115C146.915 157.369 146.644 158.462 146.101 159.393C145.566 160.324 144.818 161.047 143.857 161.56C142.904 162.073 141.797 162.33 140.535 162.33ZM157.738 162L153.107 146.16H155.89L159.047 157.6L162.193 146.182L164.976 146.16L168.133 157.6L171.279 146.16H174.062L169.442 162H166.824L163.579 150.736L160.356 162H157.738ZM182.126 162.33C180.542 162.33 179.185 161.985 178.056 161.296C176.926 160.599 176.057 159.631 175.449 158.392C174.847 157.153 174.547 155.715 174.547 154.08C174.547 152.445 174.847 151.007 175.449 149.768C176.057 148.529 176.926 147.564 178.056 146.875C179.185 146.178 180.542 145.83 182.126 145.83C183.71 145.83 185.066 146.178 186.196 146.875C187.332 147.564 188.201 148.529 188.803 149.768C189.411 151.007 189.716 152.445 189.716 154.08C189.716 155.715 189.411 157.153 188.803 158.392C188.201 159.631 187.332 160.599 186.196 161.296C185.066 161.985 183.71 162.33 182.126 162.33ZM182.126 159.833C183.189 159.84 184.073 159.606 184.777 159.129C185.488 158.652 186.02 157.981 186.372 157.116C186.731 156.251 186.911 155.239 186.911 154.08C186.911 152.921 186.731 151.917 186.372 151.066C186.02 150.208 185.488 149.541 184.777 149.064C184.073 148.587 183.189 148.342 182.126 148.327C181.062 148.32 180.179 148.554 179.475 149.031C178.771 149.508 178.239 150.179 177.88 151.044C177.528 151.909 177.352 152.921 177.352 154.08C177.352 155.239 177.528 156.247 177.88 157.105C178.232 157.956 178.76 158.619 179.464 159.096C180.175 159.573 181.062 159.818 182.126 159.833ZM191.905 162V146.16H198.45C198.604 146.16 198.802 146.167 199.044 146.182C199.286 146.189 199.51 146.211 199.715 146.248C200.632 146.387 201.387 146.692 201.981 147.161C202.583 147.63 203.026 148.224 203.312 148.943C203.606 149.654 203.752 150.446 203.752 151.319C203.752 152.61 203.426 153.721 202.773 154.652C202.121 155.576 201.12 156.148 199.77 156.368L198.637 156.467H194.556V162H191.905ZM201.002 162L197.878 155.554L200.573 154.96L204.005 162H201.002ZM194.556 153.992H198.34C198.487 153.992 198.652 153.985 198.835 153.97C199.019 153.955 199.187 153.926 199.341 153.882C199.781 153.772 200.126 153.578 200.375 153.299C200.632 153.02 200.812 152.705 200.914 152.353C201.024 152.001 201.079 151.656 201.079 151.319C201.079 150.982 201.024 150.637 200.914 150.285C200.812 149.926 200.632 149.607 200.375 149.328C200.126 149.049 199.781 148.855 199.341 148.745C199.187 148.701 199.019 148.675 198.835 148.668C198.652 148.653 198.487 148.646 198.34 148.646H194.556V153.992ZM206.429 162V146.16H212.974C213.128 146.16 213.326 146.167 213.568 146.182C213.81 146.189 214.033 146.211 214.239 146.248C215.155 146.387 215.911 146.692 216.505 147.161C217.106 147.63 217.55 148.224 217.836 148.943C218.129 149.654 218.276 150.446 218.276 151.319C218.276 152.61 217.949 153.721 217.297 154.652C216.644 155.576 215.643 156.148 214.294 156.368L213.161 156.467H209.08V162H206.429ZM215.526 162L212.402 155.554L215.097 154.96L218.529 162H215.526ZM209.08 153.992H212.864C213.01 153.992 213.175 153.985 213.359 153.97C213.542 153.955 213.711 153.926 213.865 153.882C214.305 153.772 214.649 153.578 214.899 153.299C215.155 153.02 215.335 152.705 215.438 152.353C215.548 152.001 215.603 151.656 215.603 151.319C215.603 150.982 215.548 150.637 215.438 150.285C215.335 149.926 215.155 149.607 214.899 149.328C214.649 149.049 214.305 148.855 213.865 148.745C213.711 148.701 213.542 148.675 213.359 148.668C213.175 148.653 213.01 148.646 212.864 148.646H209.08V153.992ZM224.501 162V155.51L219.111 146.16H222.202L225.843 152.474L229.473 146.16H232.564L227.185 155.51V162H224.501ZM241.43 162V148.646H236.304V146.16H249.207V148.646H244.081V162H241.43ZM250.966 162V146.16H253.617V152.826H261.119V146.16H263.759V162H261.119V155.312H253.617V162H250.966ZM265.743 162L270.737 146.16H274.62L279.614 162H276.886L272.354 147.788H272.948L268.471 162H265.743ZM268.526 158.568V156.093H276.842V158.568H268.526ZM284.098 162V148.646H278.972V146.16H291.875V148.646H286.749V162H284.098ZM297.372 162V146.16H300.023V152.826H307.525V146.16H310.165V162H307.525V155.312H300.023V162H297.372ZM319.629 162.33C318.368 162.33 317.257 162.073 316.296 161.56C315.343 161.047 314.595 160.324 314.052 159.393C313.517 158.462 313.249 157.369 313.249 156.115V146.182L315.933 146.16V156.049C315.933 156.643 316.032 157.175 316.23 157.644C316.435 158.113 316.71 158.513 317.055 158.843C317.4 159.166 317.796 159.411 318.243 159.58C318.69 159.749 319.152 159.833 319.629 159.833C320.12 159.833 320.586 159.749 321.026 159.58C321.473 159.404 321.869 159.155 322.214 158.832C322.559 158.502 322.83 158.102 323.028 157.633C323.226 157.164 323.325 156.636 323.325 156.049V146.16H326.009V156.115C326.009 157.369 325.738 158.462 325.195 159.393C324.66 160.324 323.912 161.047 322.951 161.56C321.998 162.073 320.89 162.33 319.629 162.33ZM329.083 162V146.16H331.47L336.948 157.38L342.426 146.16H344.813V162H342.338V151.847L337.476 162H336.42L331.569 151.847V162H329.083ZM346.803 162L351.797 146.16H355.68L360.674 162H357.946L353.414 147.788H354.008L349.531 162H346.803ZM349.586 158.568V156.093H357.902V158.568H349.586ZM362.663 162V146.16H365.347L372.695 157.325V146.16H375.379V162H372.695L365.347 150.835V162H362.663ZM386.202 162L381.571 146.16H384.354L387.511 157.6L390.657 146.182L393.44 146.16L396.597 157.6L399.743 146.16H402.526L397.906 162H395.288L392.043 150.736L388.82 162H386.202ZM410.591 162.33C409.007 162.33 407.65 161.985 406.521 161.296C405.391 160.599 404.522 159.631 403.914 158.392C403.312 157.153 403.012 155.715 403.012 154.08C403.012 152.445 403.312 151.007 403.914 149.768C404.522 148.529 405.391 147.564 406.521 146.875C407.65 146.178 409.007 145.83 410.591 145.83C412.175 145.83 413.531 146.178 414.661 146.875C415.797 147.564 416.666 148.529 417.268 149.768C417.876 151.007 418.181 152.445 418.181 154.08C418.181 155.715 417.876 157.153 417.268 158.392C416.666 159.631 415.797 160.599 414.661 161.296C413.531 161.985 412.175 162.33 410.591 162.33ZM410.591 159.833C411.654 159.84 412.538 159.606 413.242 159.129C413.953 158.652 414.485 157.981 414.837 157.116C415.196 156.251 415.376 155.239 415.376 154.08C415.376 152.921 415.196 151.917 414.837 151.066C414.485 150.208 413.953 149.541 413.242 149.064C412.538 148.587 411.654 148.342 410.591 148.327C409.527 148.32 408.644 148.554 407.94 149.031C407.236 149.508 406.704 150.179 406.345 151.044C405.993 151.909 405.817 152.921 405.817 154.08C405.817 155.239 405.993 156.247 406.345 157.105C406.697 157.956 407.225 158.619 407.929 159.096C408.64 159.573 409.527 159.818 410.591 159.833ZM420.37 162V146.16H426.915C427.069 146.16 427.267 146.167 427.509 146.182C427.751 146.189 427.975 146.211 428.18 146.248C429.097 146.387 429.852 146.692 430.446 147.161C431.047 147.63 431.491 148.224 431.777 148.943C432.07 149.654 432.217 150.446 432.217 151.319C432.217 152.61 431.891 153.721 431.238 154.652C430.585 155.576 429.584 156.148 428.235 156.368L427.102 156.467H423.021V162H420.37ZM429.467 162L426.343 155.554L429.038 154.96L432.47 162H429.467ZM423.021 153.992H426.805C426.952 153.992 427.117 153.985 427.3 153.97C427.483 153.955 427.652 153.926 427.806 153.882C428.246 153.772 428.591 153.578 428.84 153.299C429.097 153.02 429.276 152.705 429.379 152.353C429.489 152.001 429.544 151.656 429.544 151.319C429.544 150.982 429.489 150.637 429.379 150.285C429.276 149.926 429.097 149.607 428.84 149.328C428.591 149.049 428.246 148.855 427.806 148.745C427.652 148.701 427.483 148.675 427.3 148.668C427.117 148.653 426.952 148.646 426.805 148.646H423.021V153.992ZM434.894 162V146.16H437.545V153.508L443.87 146.16H447.126L440.317 153.926L447.588 162H444.222L437.545 154.608V162H434.894ZM456.456 162L451.825 146.16H454.608L457.765 157.6L460.911 146.182L463.694 146.16L466.851 157.6L469.997 146.16H472.78L468.16 162H465.542L462.297 150.736L459.074 162H456.456ZM474.795 162V146.16H477.446V162H474.795ZM480.961 162V146.16H483.612V159.514H490.608V162H480.961ZM492.692 162V146.16H495.343V159.514H502.339V162H492.692ZM507.511 162V146.16H513.792C514.862 146.16 515.739 146.376 516.421 146.809C517.11 147.234 517.62 147.781 517.95 148.448C518.287 149.115 518.456 149.805 518.456 150.516C518.456 151.389 518.247 152.129 517.829 152.738C517.418 153.347 516.857 153.757 516.146 153.97V153.42C517.143 153.647 517.898 154.12 518.412 154.839C518.932 155.558 519.193 156.375 519.193 157.292C519.193 158.231 519.013 159.052 518.654 159.756C518.294 160.46 517.759 161.01 517.048 161.406C516.344 161.802 515.471 162 514.43 162H507.511ZM510.195 159.503H514.1C514.562 159.503 514.976 159.411 515.343 159.228C515.709 159.037 515.995 158.773 516.201 158.436C516.413 158.091 516.52 157.684 516.52 157.215C516.52 156.79 516.428 156.408 516.245 156.071C516.061 155.734 515.794 155.466 515.442 155.268C515.09 155.063 514.668 154.96 514.177 154.96H510.195V159.503ZM510.195 152.485H513.759C514.14 152.485 514.481 152.412 514.782 152.265C515.082 152.118 515.321 151.902 515.497 151.616C515.673 151.33 515.761 150.978 515.761 150.56C515.761 150.01 515.585 149.552 515.233 149.185C514.881 148.818 514.389 148.635 513.759 148.635H510.195V152.485ZM521.39 162V146.16H531.62V148.646H524.041V152.551H530.3V155.037H524.041V159.514H531.62V162H521.39ZM77.3935 193V177.16H83.9385C84.0925 177.16 84.2905 177.167 84.5325 177.182C84.7745 177.189 84.9982 177.211 85.2035 177.248C86.1202 177.387 86.8755 177.692 87.4695 178.161C88.0708 178.63 88.5145 179.224 88.8005 179.943C89.0938 180.654 89.2405 181.446 89.2405 182.319C89.2405 183.61 88.9142 184.721 88.2615 185.652C87.6088 186.576 86.6078 187.148 85.2585 187.368L84.1255 187.467H80.0445V193H77.3935ZM86.4905 193L83.3665 186.554L86.0615 185.96L89.4935 193H86.4905ZM80.0445 184.992H83.8285C83.9752 184.992 84.1402 184.985 84.3235 184.97C84.5068 184.955 84.6755 184.926 84.8295 184.882C85.2695 184.772 85.6142 184.578 85.8635 184.299C86.1202 184.02 86.2998 183.705 86.4025 183.353C86.5125 183.001 86.5675 182.656 86.5675 182.319C86.5675 181.982 86.5125 181.637 86.4025 181.285C86.2998 180.926 86.1202 180.607 85.8635 180.328C85.6142 180.049 85.2695 179.855 84.8295 179.745C84.6755 179.701 84.5068 179.675 84.3235 179.668C84.1402 179.653 83.9752 179.646 83.8285 179.646H80.0445V184.992ZM91.917 193V177.16H102.147V179.646H94.568V183.551H100.827V186.037H94.568V190.514H102.147V193H91.917ZM104.786 193V177.16H111.331C111.485 177.16 111.683 177.167 111.925 177.182C112.167 177.189 112.391 177.211 112.596 177.248C113.513 177.387 114.268 177.692 114.862 178.161C115.463 178.63 115.907 179.224 116.193 179.943C116.486 180.654 116.633 181.446 116.633 182.319C116.633 183.184 116.486 183.976 116.193 184.695C115.9 185.406 115.452 185.997 114.851 186.466C114.257 186.935 113.505 187.24 112.596 187.379C112.391 187.408 112.163 187.43 111.914 187.445C111.672 187.46 111.478 187.467 111.331 187.467H107.437V193H104.786ZM107.437 184.992H111.221C111.368 184.992 111.533 184.985 111.716 184.97C111.899 184.955 112.068 184.926 112.222 184.882C112.662 184.772 113.007 184.578 113.256 184.299C113.513 184.02 113.692 183.705 113.795 183.353C113.905 183.001 113.96 182.656 113.96 182.319C113.96 181.982 113.905 181.637 113.795 181.285C113.692 180.926 113.513 180.607 113.256 180.328C113.007 180.049 112.662 179.855 112.222 179.745C112.068 179.701 111.899 179.675 111.716 179.668C111.533 179.653 111.368 179.646 111.221 179.646H107.437V184.992ZM119.057 193V177.16H121.708V190.514H128.704V193H119.057ZM129.467 193L134.461 177.16H138.344L143.338 193H140.61L136.078 178.788H136.672L132.195 193H129.467ZM132.25 189.568V187.093H140.566V189.568H132.25ZM151.596 193.33C150.012 193.33 148.656 192.985 147.526 192.296C146.397 191.599 145.528 190.631 144.919 189.392C144.318 188.153 144.017 186.715 144.017 185.08C144.017 183.445 144.318 182.007 144.919 180.768C145.528 179.529 146.397 178.564 147.526 177.875C148.656 177.178 150.012 176.83 151.596 176.83C153.422 176.83 154.944 177.288 156.161 178.205C157.379 179.114 158.233 180.343 158.724 181.89L156.051 182.627C155.743 181.593 155.219 180.786 154.478 180.207C153.738 179.62 152.777 179.327 151.596 179.327C150.533 179.327 149.646 179.565 148.934 180.042C148.23 180.519 147.699 181.19 147.339 182.055C146.987 182.913 146.808 183.921 146.8 185.08C146.8 186.239 146.976 187.251 147.328 188.116C147.688 188.974 148.223 189.641 148.934 190.118C149.646 190.595 150.533 190.833 151.596 190.833C152.777 190.833 153.738 190.54 154.478 189.953C155.219 189.366 155.743 188.56 156.051 187.533L158.724 188.27C158.233 189.817 157.379 191.049 156.161 191.966C154.944 192.875 153.422 193.33 151.596 193.33ZM161.14 193V177.16H171.37V179.646H163.791V183.551H170.05V186.037H163.791V190.514H171.37V193H161.14ZM174.009 193V177.16H179.058C179.19 177.16 179.45 177.164 179.839 177.171C180.235 177.178 180.616 177.204 180.983 177.248C182.237 177.409 183.296 177.857 184.162 178.59C185.034 179.316 185.694 180.244 186.142 181.373C186.589 182.502 186.813 183.738 186.813 185.08C186.813 186.422 186.589 187.658 186.142 188.787C185.694 189.916 185.034 190.848 184.162 191.581C183.296 192.307 182.237 192.751 180.983 192.912C180.623 192.956 180.246 192.982 179.85 192.989C179.454 192.996 179.19 193 179.058 193H174.009ZM176.704 190.503H179.058C179.278 190.503 179.556 190.496 179.894 190.481C180.238 190.466 180.543 190.433 180.807 190.382C181.555 190.243 182.163 189.909 182.633 189.381C183.102 188.853 183.447 188.211 183.667 187.456C183.894 186.701 184.008 185.909 184.008 185.08C184.008 184.222 183.894 183.415 183.667 182.66C183.439 181.905 183.087 181.27 182.611 180.757C182.141 180.244 181.54 179.917 180.807 179.778C180.543 179.719 180.238 179.686 179.894 179.679C179.556 179.664 179.278 179.657 179.058 179.657H176.704V190.503ZM193.817 193V177.16H200.098C201.169 177.16 202.045 177.376 202.727 177.809C203.417 178.234 203.926 178.781 204.256 179.448C204.594 180.115 204.762 180.805 204.762 181.516C204.762 182.389 204.553 183.129 204.135 183.738C203.725 184.347 203.164 184.757 202.452 184.97V184.42C203.45 184.647 204.205 185.12 204.718 185.839C205.239 186.558 205.499 187.375 205.499 188.292C205.499 189.231 205.32 190.052 204.96 190.756C204.601 191.46 204.066 192.01 203.354 192.406C202.65 192.802 201.778 193 200.736 193H193.817ZM196.501 190.503H200.406C200.868 190.503 201.283 190.411 201.649 190.228C202.016 190.037 202.302 189.773 202.507 189.436C202.72 189.091 202.826 188.684 202.826 188.215C202.826 187.79 202.735 187.408 202.551 187.071C202.368 186.734 202.1 186.466 201.748 186.268C201.396 186.063 200.975 185.96 200.483 185.96H196.501V190.503ZM196.501 183.485H200.065C200.447 183.485 200.788 183.412 201.088 183.265C201.389 183.118 201.627 182.902 201.803 182.616C201.979 182.33 202.067 181.978 202.067 181.56C202.067 181.01 201.891 180.552 201.539 180.185C201.187 179.818 200.696 179.635 200.065 179.635H196.501V183.485ZM210.88 193V186.51L205.49 177.16H208.581L212.222 183.474L215.852 177.16H218.943L213.564 186.51V193H210.88ZM224.003 193V177.16H230.548C230.702 177.16 230.9 177.167 231.142 177.182C231.384 177.189 231.608 177.211 231.813 177.248C232.73 177.387 233.485 177.692 234.079 178.161C234.68 178.63 235.124 179.224 235.41 179.943C235.703 180.654 235.85 181.446 235.85 182.319C235.85 183.61 235.524 184.721 234.871 185.652C234.218 186.576 233.217 187.148 231.868 187.368L230.735 187.467H226.654V193H224.003ZM233.1 193L229.976 186.554L232.671 185.96L236.103 193H233.1ZM226.654 184.992H230.438C230.585 184.992 230.75 184.985 230.933 184.97C231.116 184.955 231.285 184.926 231.439 184.882C231.879 184.772 232.224 184.578 232.473 184.299C232.73 184.02 232.909 183.705 233.012 183.353C233.122 183.001 233.177 182.656 233.177 182.319C233.177 181.982 233.122 181.637 233.012 181.285C232.909 180.926 232.73 180.607 232.473 180.328C232.224 180.049 231.879 179.855 231.439 179.745C231.285 179.701 231.116 179.675 230.933 179.668C230.75 179.653 230.585 179.646 230.438 179.646H226.654V184.992ZM245.225 193.33C243.641 193.33 242.285 192.985 241.155 192.296C240.026 191.599 239.157 190.631 238.548 189.392C237.947 188.153 237.646 186.715 237.646 185.08C237.646 183.445 237.947 182.007 238.548 180.768C239.157 179.529 240.026 178.564 241.155 177.875C242.285 177.178 243.641 176.83 245.225 176.83C246.809 176.83 248.166 177.178 249.295 177.875C250.432 178.564 251.301 179.529 251.902 180.768C252.511 182.007 252.815 183.445 252.815 185.08C252.815 186.715 252.511 188.153 251.902 189.392C251.301 190.631 250.432 191.599 249.295 192.296C248.166 192.985 246.809 193.33 245.225 193.33ZM245.225 190.833C246.289 190.84 247.172 190.606 247.876 190.129C248.588 189.652 249.119 188.981 249.471 188.116C249.831 187.251 250.01 186.239 250.01 185.08C250.01 183.921 249.831 182.917 249.471 182.066C249.119 181.208 248.588 180.541 247.876 180.064C247.172 179.587 246.289 179.342 245.225 179.327C244.162 179.32 243.278 179.554 242.574 180.031C241.87 180.508 241.339 181.179 240.979 182.044C240.627 182.909 240.451 183.921 240.451 185.08C240.451 186.239 240.627 187.247 240.979 188.105C241.331 188.956 241.859 189.619 242.563 190.096C243.275 190.573 244.162 190.818 245.225 190.833ZM255.005 193V177.16H261.286C262.357 177.16 263.233 177.376 263.915 177.809C264.604 178.234 265.114 178.781 265.444 179.448C265.781 180.115 265.95 180.805 265.95 181.516C265.95 182.389 265.741 183.129 265.323 183.738C264.912 184.347 264.351 184.757 263.64 184.97V184.42C264.637 184.647 265.393 185.12 265.906 185.839C266.427 186.558 266.687 187.375 266.687 188.292C266.687 189.231 266.507 190.052 266.148 190.756C265.789 191.46 265.253 192.01 264.542 192.406C263.838 192.802 262.965 193 261.924 193H255.005ZM257.689 190.503H261.594C262.056 190.503 262.47 190.411 262.837 190.228C263.204 190.037 263.49 189.773 263.695 189.436C263.908 189.091 264.014 188.684 264.014 188.215C264.014 187.79 263.922 187.408 263.739 187.071C263.556 186.734 263.288 186.466 262.936 186.268C262.584 186.063 262.162 185.96 261.671 185.96H257.689V190.503ZM257.689 183.485H261.253C261.634 183.485 261.975 183.412 262.276 183.265C262.577 183.118 262.815 182.902 262.991 182.616C263.167 182.33 263.255 181.978 263.255 181.56C263.255 181.01 263.079 180.552 262.727 180.185C262.375 179.818 261.884 179.635 261.253 179.635H257.689V183.485ZM275.583 193.33C273.999 193.33 272.642 192.985 271.513 192.296C270.383 191.599 269.514 190.631 268.906 189.392C268.304 188.153 268.004 186.715 268.004 185.08C268.004 183.445 268.304 182.007 268.906 180.768C269.514 179.529 270.383 178.564 271.513 177.875C272.642 177.178 273.999 176.83 275.583 176.83C277.167 176.83 278.523 177.178 279.653 177.875C280.789 178.564 281.658 179.529 282.26 180.768C282.868 182.007 283.173 183.445 283.173 185.08C283.173 186.715 282.868 188.153 282.26 189.392C281.658 190.631 280.789 191.599 279.653 192.296C278.523 192.985 277.167 193.33 275.583 193.33ZM275.583 190.833C276.646 190.84 277.53 190.606 278.234 190.129C278.945 189.652 279.477 188.981 279.829 188.116C280.188 187.251 280.368 186.239 280.368 185.08C280.368 183.921 280.188 182.917 279.829 182.066C279.477 181.208 278.945 180.541 278.234 180.064C277.53 179.587 276.646 179.342 275.583 179.327C274.519 179.32 273.636 179.554 272.932 180.031C272.228 180.508 271.696 181.179 271.337 182.044C270.985 182.909 270.809 183.921 270.809 185.08C270.809 186.239 270.985 187.247 271.337 188.105C271.689 188.956 272.217 189.619 272.921 190.096C273.632 190.573 274.519 190.818 275.583 190.833ZM288.739 193V179.646H283.613V177.16H296.516V179.646H291.39V193H288.739ZM304.137 193.33C302.979 193.33 301.934 193.128 301.002 192.725C300.078 192.322 299.316 191.746 298.714 190.998C298.12 190.243 297.743 189.348 297.581 188.314L300.331 187.896C300.566 188.835 301.046 189.561 301.772 190.074C302.506 190.587 303.349 190.844 304.302 190.844C304.867 190.844 305.399 190.756 305.897 190.58C306.396 190.404 306.799 190.147 307.107 189.81C307.423 189.473 307.58 189.058 307.58 188.567C307.58 188.347 307.544 188.145 307.47 187.962C307.397 187.771 307.287 187.603 307.14 187.456C307.001 187.309 306.818 187.177 306.59 187.06C306.37 186.935 306.114 186.829 305.82 186.741L301.728 185.531C301.376 185.428 300.995 185.293 300.584 185.124C300.181 184.948 299.796 184.71 299.429 184.409C299.07 184.101 298.773 183.712 298.538 183.243C298.311 182.766 298.197 182.18 298.197 181.483C298.197 180.464 298.454 179.609 298.967 178.92C299.488 178.223 300.185 177.703 301.057 177.358C301.937 177.013 302.913 176.845 303.983 176.852C305.069 176.859 306.037 177.046 306.887 177.413C307.738 177.772 308.449 178.297 309.021 178.986C309.593 179.675 309.997 180.508 310.231 181.483L307.382 181.978C307.265 181.421 307.038 180.948 306.7 180.559C306.37 180.163 305.963 179.862 305.479 179.657C305.003 179.452 304.493 179.342 303.95 179.327C303.422 179.32 302.931 179.4 302.476 179.569C302.029 179.73 301.666 179.965 301.387 180.273C301.116 180.581 300.98 180.94 300.98 181.351C300.98 181.74 301.098 182.059 301.332 182.308C301.567 182.55 301.857 182.744 302.201 182.891C302.553 183.03 302.909 183.148 303.268 183.243L306.106 184.035C306.495 184.138 306.931 184.277 307.415 184.453C307.899 184.629 308.365 184.875 308.812 185.19C309.26 185.505 309.626 185.92 309.912 186.433C310.206 186.946 310.352 187.599 310.352 188.391C310.352 189.212 310.18 189.935 309.835 190.558C309.498 191.174 309.04 191.687 308.46 192.098C307.881 192.509 307.217 192.817 306.469 193.022C305.729 193.227 304.951 193.33 304.137 193.33ZM316.038 193L321.032 177.16H324.915L329.909 193H327.181L322.649 178.788H323.243L318.766 193H316.038ZM318.821 189.568V187.093H327.137V189.568H318.821ZM331.897 193V177.16H334.581L341.929 188.325V177.16H344.613V193H341.929L334.581 181.835V193H331.897ZM347.688 193V177.16H352.737C352.869 177.16 353.13 177.164 353.518 177.171C353.914 177.178 354.296 177.204 354.662 177.248C355.916 177.409 356.976 177.857 357.841 178.59C358.714 179.316 359.374 180.244 359.821 181.373C360.269 182.502 360.492 183.738 360.492 185.08C360.492 186.422 360.269 187.658 359.821 188.787C359.374 189.916 358.714 190.848 357.841 191.581C356.976 192.307 355.916 192.751 354.662 192.912C354.303 192.956 353.925 192.982 353.529 192.989C353.133 192.996 352.869 193 352.737 193H347.688ZM350.383 190.503H352.737C352.957 190.503 353.236 190.496 353.573 190.481C353.918 190.466 354.222 190.433 354.486 190.382C355.234 190.243 355.843 189.909 356.312 189.381C356.782 188.853 357.126 188.211 357.346 187.456C357.574 186.701 357.687 185.909 357.687 185.08C357.687 184.222 357.574 183.415 357.346 182.66C357.119 181.905 356.767 181.27 356.29 180.757C355.821 180.244 355.22 179.917 354.486 179.778C354.222 179.719 353.918 179.686 353.573 179.679C353.236 179.664 352.957 179.657 352.737 179.657H350.383V190.503ZM370.841 193L366.21 177.16H368.993L372.15 188.6L375.296 177.182L378.079 177.16L381.236 188.6L384.382 177.16H387.165L382.545 193H379.927L376.682 181.736L373.459 193H370.841ZM395.229 193.33C393.645 193.33 392.289 192.985 391.159 192.296C390.03 191.599 389.161 190.631 388.552 189.392C387.951 188.153 387.65 186.715 387.65 185.08C387.65 183.445 387.951 182.007 388.552 180.768C389.161 179.529 390.03 178.564 391.159 177.875C392.289 177.178 393.645 176.83 395.229 176.83C396.813 176.83 398.17 177.178 399.299 177.875C400.436 178.564 401.305 179.529 401.906 180.768C402.515 182.007 402.819 183.445 402.819 185.08C402.819 186.715 402.515 188.153 401.906 189.392C401.305 190.631 400.436 191.599 399.299 192.296C398.17 192.985 396.813 193.33 395.229 193.33ZM395.229 190.833C396.293 190.84 397.176 190.606 397.88 190.129C398.592 189.652 399.123 188.981 399.475 188.116C399.835 187.251 400.014 186.239 400.014 185.08C400.014 183.921 399.835 182.917 399.475 182.066C399.123 181.208 398.592 180.541 397.88 180.064C397.176 179.587 396.293 179.342 395.229 179.327C394.166 179.32 393.282 179.554 392.578 180.031C391.874 180.508 391.343 181.179 390.983 182.044C390.631 182.909 390.455 183.921 390.455 185.08C390.455 186.239 390.631 187.247 390.983 188.105C391.335 188.956 391.863 189.619 392.567 190.096C393.279 190.573 394.166 190.818 395.229 190.833ZM405.009 193V177.16H411.554C411.708 177.16 411.906 177.167 412.148 177.182C412.39 177.189 412.613 177.211 412.819 177.248C413.735 177.387 414.491 177.692 415.085 178.161C415.686 178.63 416.13 179.224 416.416 179.943C416.709 180.654 416.856 181.446 416.856 182.319C416.856 183.61 416.529 184.721 415.877 185.652C415.224 186.576 414.223 187.148 412.874 187.368L411.741 187.467H407.66V193H405.009ZM414.106 193L410.982 186.554L413.677 185.96L417.109 193H414.106ZM407.66 184.992H411.444C411.59 184.992 411.755 184.985 411.939 184.97C412.122 184.955 412.291 184.926 412.445 184.882C412.885 184.772 413.229 184.578 413.479 184.299C413.735 184.02 413.915 183.705 414.018 183.353C414.128 183.001 414.183 182.656 414.183 182.319C414.183 181.982 414.128 181.637 414.018 181.285C413.915 180.926 413.735 180.607 413.479 180.328C413.229 180.049 412.885 179.855 412.445 179.745C412.291 179.701 412.122 179.675 411.939 179.668C411.755 179.653 411.59 179.646 411.444 179.646H407.66V184.992ZM419.532 193V177.16H422.183V184.508L428.508 177.16H431.764L424.955 184.926L432.226 193H428.86L422.183 185.608V193H419.532ZM437.751 193V177.16H444.296C444.45 177.16 444.648 177.167 444.89 177.182C445.132 177.189 445.356 177.211 445.561 177.248C446.478 177.387 447.233 177.692 447.827 178.161C448.428 178.63 448.872 179.224 449.158 179.943C449.451 180.654 449.598 181.446 449.598 182.319C449.598 183.184 449.451 183.976 449.158 184.695C448.865 185.406 448.417 185.997 447.816 186.466C447.222 186.935 446.47 187.24 445.561 187.379C445.356 187.408 445.128 187.43 444.879 187.445C444.637 187.46 444.443 187.467 444.296 187.467H440.402V193H437.751ZM440.402 184.992H444.186C444.333 184.992 444.498 184.985 444.681 184.97C444.864 184.955 445.033 184.926 445.187 184.882C445.627 184.772 445.972 184.578 446.221 184.299C446.478 184.02 446.657 183.705 446.76 183.353C446.87 183.001 446.925 182.656 446.925 182.319C446.925 181.982 446.87 181.637 446.76 181.285C446.657 180.926 446.478 180.607 446.221 180.328C445.972 180.049 445.627 179.855 445.187 179.745C445.033 179.701 444.864 179.675 444.681 179.668C444.498 179.653 444.333 179.646 444.186 179.646H440.402V184.992ZM452.022 193V177.16H454.673V190.514H461.669V193H452.022ZM462.432 193L467.426 177.16H471.309L476.303 193H473.575L469.043 178.788H469.637L465.16 193H462.432ZM465.215 189.568V187.093H473.531V189.568H465.215ZM484.561 193.33C482.977 193.33 481.621 192.985 480.491 192.296C479.362 191.599 478.493 190.631 477.884 189.392C477.283 188.153 476.982 186.715 476.982 185.08C476.982 183.445 477.283 182.007 477.884 180.768C478.493 179.529 479.362 178.564 480.491 177.875C481.621 177.178 482.977 176.83 484.561 176.83C486.387 176.83 487.909 177.288 489.126 178.205C490.344 179.114 491.198 180.343 491.689 181.89L489.016 182.627C488.708 181.593 488.184 180.786 487.443 180.207C486.703 179.62 485.742 179.327 484.561 179.327C483.498 179.327 482.611 179.565 481.899 180.042C481.195 180.519 480.664 181.19 480.304 182.055C479.952 182.913 479.773 183.921 479.765 185.08C479.765 186.239 479.941 187.251 480.293 188.116C480.653 188.974 481.188 189.641 481.899 190.118C482.611 190.595 483.498 190.833 484.561 190.833C485.742 190.833 486.703 190.54 487.443 189.953C488.184 189.366 488.708 188.56 489.016 187.533L491.689 188.27C491.198 189.817 490.344 191.049 489.126 191.966C487.909 192.875 486.387 193.33 484.561 193.33ZM494.104 193V177.16H504.334V179.646H496.755V183.551H503.014V186.037H496.755V190.514H504.334V193H494.104ZM512.686 193.33C511.528 193.33 510.483 193.128 509.551 192.725C508.627 192.322 507.865 191.746 507.263 190.998C506.669 190.243 506.292 189.348 506.13 188.314L508.88 187.896C509.115 188.835 509.595 189.561 510.321 190.074C511.055 190.587 511.898 190.844 512.851 190.844C513.416 190.844 513.948 190.756 514.446 190.58C514.945 190.404 515.348 190.147 515.656 189.81C515.972 189.473 516.129 189.058 516.129 188.567C516.129 188.347 516.093 188.145 516.019 187.962C515.946 187.771 515.836 187.603 515.689 187.456C515.55 187.309 515.367 187.177 515.139 187.06C514.919 186.935 514.663 186.829 514.369 186.741L510.277 185.531C509.925 185.428 509.544 185.293 509.133 185.124C508.73 184.948 508.345 184.71 507.978 184.409C507.619 184.101 507.322 183.712 507.087 183.243C506.86 182.766 506.746 182.18 506.746 181.483C506.746 180.464 507.003 179.609 507.516 178.92C508.037 178.223 508.734 177.703 509.606 177.358C510.486 177.013 511.462 176.845 512.532 176.852C513.618 176.859 514.586 177.046 515.436 177.413C516.287 177.772 516.998 178.297 517.57 178.986C518.142 179.675 518.546 180.508 518.78 181.483L515.931 181.978C515.814 181.421 515.587 180.948 515.249 180.559C514.919 180.163 514.512 179.862 514.028 179.657C513.552 179.452 513.042 179.342 512.499 179.327C511.971 179.32 511.48 179.4 511.025 179.569C510.578 179.73 510.215 179.965 509.936 180.273C509.665 180.581 509.529 180.94 509.529 181.351C509.529 181.74 509.647 182.059 509.881 182.308C510.116 182.55 510.406 182.744 510.75 182.891C511.102 183.03 511.458 183.148 511.817 183.243L514.655 184.035C515.044 184.138 515.48 184.277 515.964 184.453C516.448 184.629 516.914 184.875 517.361 185.19C517.809 185.505 518.175 185.92 518.461 186.433C518.755 186.946 518.901 187.599 518.901 188.391C518.901 189.212 518.729 189.935 518.384 190.558C518.047 191.174 517.589 191.687 517.009 192.098C516.43 192.509 515.766 192.817 515.018 193.022C514.278 193.227 513.5 193.33 512.686 193.33ZM195.013 224L190.382 208.16H193.165L196.322 219.6L199.468 208.182L202.251 208.16L205.408 219.6L208.554 208.16H211.337L206.717 224H204.099L200.854 212.736L197.631 224H195.013ZM213.352 224V208.16H216.003V224H213.352ZM219.518 224V208.16H222.169V221.514H229.165V224H219.518ZM231.248 224V208.16H233.899V221.514H240.895V224H231.248ZM246.067 224V208.16H252.348C253.419 208.16 254.295 208.376 254.977 208.809C255.667 209.234 256.176 209.781 256.506 210.448C256.844 211.115 257.012 211.805 257.012 212.516C257.012 213.389 256.803 214.129 256.385 214.738C255.975 215.347 255.414 215.757 254.702 215.97V215.42C255.7 215.647 256.455 216.12 256.968 216.839C257.489 217.558 257.749 218.375 257.749 219.292C257.749 220.231 257.57 221.052 257.21 221.756C256.851 222.46 256.316 223.01 255.604 223.406C254.9 223.802 254.028 224 252.986 224H246.067ZM248.751 221.503H252.656C253.118 221.503 253.533 221.411 253.899 221.228C254.266 221.037 254.552 220.773 254.757 220.436C254.97 220.091 255.076 219.684 255.076 219.215C255.076 218.79 254.985 218.408 254.801 218.071C254.618 217.734 254.35 217.466 253.998 217.268C253.646 217.063 253.225 216.96 252.733 216.96H248.751V221.503ZM248.751 214.485H252.315C252.697 214.485 253.038 214.412 253.338 214.265C253.639 214.118 253.877 213.902 254.053 213.616C254.229 213.33 254.317 212.978 254.317 212.56C254.317 212.01 254.141 211.552 253.789 211.185C253.437 210.818 252.946 210.635 252.315 210.635H248.751V214.485ZM259.946 224V208.16H270.176V210.646H262.597V214.551H268.856V217.037H262.597V221.514H270.176V224H259.946ZM283.919 224.33C282.335 224.33 280.978 223.985 279.849 223.296C278.719 222.599 277.85 221.631 277.242 220.392C276.64 219.153 276.34 217.715 276.34 216.08C276.34 214.445 276.64 213.007 277.242 211.768C277.85 210.529 278.719 209.564 279.849 208.875C280.978 208.178 282.335 207.83 283.919 207.83C285.745 207.83 287.266 208.288 288.484 209.205C289.701 210.114 290.555 211.343 291.047 212.89L288.374 213.627C288.066 212.593 287.541 211.786 286.801 211.207C286.06 210.62 285.099 210.327 283.919 210.327C282.855 210.327 281.968 210.565 281.257 211.042C280.553 211.519 280.021 212.19 279.662 213.055C279.31 213.913 279.13 214.921 279.123 216.08C279.123 217.239 279.299 218.251 279.651 219.116C280.01 219.974 280.545 220.641 281.257 221.118C281.968 221.595 282.855 221.833 283.919 221.833C285.099 221.833 286.06 221.54 286.801 220.953C287.541 220.366 288.066 219.56 288.374 218.533L291.047 219.27C290.555 220.817 289.701 222.049 288.484 222.966C287.266 223.875 285.745 224.33 283.919 224.33ZM299.842 224.33C298.581 224.33 297.47 224.073 296.509 223.56C295.556 223.047 294.808 222.324 294.265 221.393C293.73 220.462 293.462 219.369 293.462 218.115V208.182L296.146 208.16V218.049C296.146 218.643 296.245 219.175 296.443 219.644C296.648 220.113 296.923 220.513 297.268 220.843C297.613 221.166 298.009 221.411 298.456 221.58C298.903 221.749 299.365 221.833 299.842 221.833C300.333 221.833 300.799 221.749 301.239 221.58C301.686 221.404 302.082 221.155 302.427 220.832C302.772 220.502 303.043 220.102 303.241 219.633C303.439 219.164 303.538 218.636 303.538 218.049V208.16H306.222V218.115C306.222 219.369 305.951 220.462 305.408 221.393C304.873 222.324 304.125 223.047 303.164 223.56C302.211 224.073 301.103 224.33 299.842 224.33ZM313.102 224V210.646H307.976V208.16H320.879V210.646H315.753V224H313.102ZM326.376 224V208.16H331.425C331.557 208.16 331.817 208.164 332.206 208.171C332.602 208.178 332.983 208.204 333.35 208.248C334.604 208.409 335.664 208.857 336.529 209.59C337.402 210.316 338.062 211.244 338.509 212.373C338.956 213.502 339.18 214.738 339.18 216.08C339.18 217.422 338.956 218.658 338.509 219.787C338.062 220.916 337.402 221.848 336.529 222.581C335.664 223.307 334.604 223.751 333.35 223.912C332.991 223.956 332.613 223.982 332.217 223.989C331.821 223.996 331.557 224 331.425 224H326.376ZM329.071 221.503H331.425C331.645 221.503 331.924 221.496 332.261 221.481C332.606 221.466 332.91 221.433 333.174 221.382C333.922 221.243 334.531 220.909 335 220.381C335.469 219.853 335.814 219.211 336.034 218.456C336.261 217.701 336.375 216.909 336.375 216.08C336.375 215.222 336.261 214.415 336.034 213.66C335.807 212.905 335.455 212.27 334.978 211.757C334.509 211.244 333.907 210.917 333.174 210.778C332.91 210.719 332.606 210.686 332.261 210.679C331.924 210.664 331.645 210.657 331.425 210.657H329.071V221.503ZM348.479 224.33C346.895 224.33 345.539 223.985 344.409 223.296C343.28 222.599 342.411 221.631 341.802 220.392C341.201 219.153 340.9 217.715 340.9 216.08C340.9 214.445 341.201 213.007 341.802 211.768C342.411 210.529 343.28 209.564 344.409 208.875C345.539 208.178 346.895 207.83 348.479 207.83C350.063 207.83 351.42 208.178 352.549 208.875C353.686 209.564 354.555 210.529 355.156 211.768C355.765 213.007 356.069 214.445 356.069 216.08C356.069 217.715 355.765 219.153 355.156 220.392C354.555 221.631 353.686 222.599 352.549 223.296C351.42 223.985 350.063 224.33 348.479 224.33ZM348.479 221.833C349.543 221.84 350.426 221.606 351.13 221.129C351.842 220.652 352.373 219.981 352.725 219.116C353.085 218.251 353.264 217.239 353.264 216.08C353.264 214.921 353.085 213.917 352.725 213.066C352.373 212.208 351.842 211.541 351.13 211.064C350.426 210.587 349.543 210.342 348.479 210.327C347.416 210.32 346.532 210.554 345.828 211.031C345.124 211.508 344.593 212.179 344.233 213.044C343.881 213.909 343.705 214.921 343.705 216.08C343.705 217.239 343.881 218.247 344.233 219.105C344.585 219.956 345.113 220.619 345.817 221.096C346.529 221.573 347.416 221.818 348.479 221.833ZM360.937 224L356.306 208.16H359.089L362.246 219.6L365.392 208.182L368.175 208.16L371.332 219.6L374.478 208.16H377.261L372.641 224H370.023L366.778 212.736L363.555 224H360.937ZM379.056 224V208.16H381.74L389.088 219.325V208.16H391.772V224H389.088L381.74 212.835V224H379.056ZM397.718 219.699C397.718 219.193 397.765 218.705 397.861 218.236C397.963 217.759 398.128 217.319 398.356 216.916C398.554 216.527 398.774 216.219 399.016 215.992C399.258 215.757 399.529 215.526 399.83 215.299C400.13 215.064 400.464 214.753 400.831 214.364C401.131 214.034 401.329 213.708 401.425 213.385C401.52 213.055 401.568 212.703 401.568 212.329C401.568 212.087 401.542 211.86 401.491 211.647C401.439 211.434 401.348 211.251 401.216 211.097C401.01 210.826 400.746 210.635 400.424 210.525C400.101 210.408 399.756 210.349 399.39 210.349C399.089 210.349 398.799 210.389 398.521 210.47C398.249 210.543 398.018 210.661 397.828 210.822C397.608 210.998 397.446 211.214 397.344 211.471C397.241 211.728 397.193 212.01 397.201 212.318H394.407C394.48 211.585 394.678 210.906 395.001 210.283C395.331 209.652 395.763 209.15 396.299 208.776C396.717 208.468 397.186 208.237 397.707 208.083C398.235 207.929 398.763 207.852 399.291 207.852C400.097 207.852 400.856 207.977 401.568 208.226C402.286 208.475 402.884 208.886 403.361 209.458C403.691 209.832 403.94 210.265 404.109 210.756C404.285 211.247 404.373 211.746 404.373 212.252C404.373 213.007 404.208 213.697 403.878 214.32C403.555 214.943 403.144 215.519 402.646 216.047C402.411 216.296 402.187 216.516 401.975 216.707C401.762 216.898 401.564 217.085 401.381 217.268C401.205 217.444 401.058 217.631 400.941 217.829C400.735 218.174 400.614 218.467 400.578 218.709C400.541 218.944 400.523 219.274 400.523 219.699H397.718ZM397.74 224V221.085H400.523V224H397.74ZM104.743 255V239.16H107.394V245.826H114.896V239.16H117.536V255H114.896V248.312H107.394V255H104.743ZM127.319 255.33C125.735 255.33 124.378 254.985 123.249 254.296C122.12 253.599 121.251 252.631 120.642 251.392C120.041 250.153 119.74 248.715 119.74 247.08C119.74 245.445 120.041 244.007 120.642 242.768C121.251 241.529 122.12 240.564 123.249 239.875C124.378 239.178 125.735 238.83 127.319 238.83C128.903 238.83 130.26 239.178 131.389 239.875C132.526 240.564 133.395 241.529 133.996 242.768C134.605 244.007 134.909 245.445 134.909 247.08C134.909 248.715 134.605 250.153 133.996 251.392C133.395 252.631 132.526 253.599 131.389 254.296C130.26 254.985 128.903 255.33 127.319 255.33ZM127.319 252.833C128.382 252.84 129.266 252.606 129.97 252.129C130.681 251.652 131.213 250.981 131.565 250.116C131.924 249.251 132.104 248.239 132.104 247.08C132.104 245.921 131.924 244.917 131.565 244.066C131.213 243.208 130.681 242.541 129.97 242.064C129.266 241.587 128.382 241.342 127.319 241.327C126.256 241.32 125.372 241.554 124.668 242.031C123.964 242.508 123.432 243.179 123.073 244.044C122.721 244.909 122.545 245.921 122.545 247.08C122.545 248.239 122.721 249.247 123.073 250.105C123.425 250.956 123.953 251.619 124.657 252.096C125.368 252.573 126.256 252.818 127.319 252.833ZM139.777 255L135.146 239.16H137.929L141.086 250.6L144.232 239.182L147.015 239.16L150.172 250.6L153.318 239.16H156.101L151.481 255H148.863L145.618 243.736L142.395 255H139.777ZM168.999 255.33C167.415 255.33 166.058 254.985 164.929 254.296C163.799 253.599 162.93 252.631 162.322 251.392C161.72 250.153 161.42 248.715 161.42 247.08C161.42 245.445 161.72 244.007 162.322 242.768C162.93 241.529 163.799 240.564 164.929 239.875C166.058 239.178 167.415 238.83 168.999 238.83C170.825 238.83 172.346 239.288 173.564 240.205C174.781 241.114 175.635 242.343 176.127 243.89L173.454 244.627C173.146 243.593 172.621 242.786 171.881 242.207C171.14 241.62 170.179 241.327 168.999 241.327C167.935 241.327 167.048 241.565 166.337 242.042C165.633 242.519 165.101 243.19 164.742 244.055C164.39 244.913 164.21 245.921 164.203 247.08C164.203 248.239 164.379 249.251 164.731 250.116C165.09 250.974 165.625 251.641 166.337 252.118C167.048 252.595 167.935 252.833 168.999 252.833C170.179 252.833 171.14 252.54 171.881 251.953C172.621 251.366 173.146 250.56 173.454 249.533L176.127 250.27C175.635 251.817 174.781 253.049 173.564 253.966C172.346 254.875 170.825 255.33 168.999 255.33ZM177.012 255L182.006 239.16H185.889L190.883 255H188.155L183.623 240.788H184.217L179.74 255H177.012ZM179.795 251.568V249.093H188.111V251.568H179.795ZM192.872 255V239.16H195.556L202.904 250.325V239.16H205.588V255H202.904L195.556 243.835V255H192.872ZM216.411 255L211.78 239.16H214.563L217.72 250.6L220.866 239.182L223.649 239.16L226.806 250.6L229.952 239.16H232.735L228.115 255H225.497L222.252 243.736L219.029 255H216.411ZM234.53 255V239.16H244.76V241.646H237.181V245.551H243.44V248.037H237.181V252.514H244.76V255H234.53ZM257.667 255.33C256.508 255.33 255.463 255.128 254.532 254.725C253.608 254.322 252.845 253.746 252.244 252.998C251.65 252.243 251.272 251.348 251.111 250.314L253.861 249.896C254.095 250.835 254.576 251.561 255.302 252.074C256.035 252.587 256.878 252.844 257.832 252.844C258.396 252.844 258.928 252.756 259.427 252.58C259.925 252.404 260.329 252.147 260.637 251.81C260.952 251.473 261.11 251.058 261.11 250.567C261.11 250.347 261.073 250.145 261 249.962C260.926 249.771 260.816 249.603 260.67 249.456C260.53 249.309 260.347 249.177 260.12 249.06C259.9 248.935 259.643 248.829 259.35 248.741L255.258 247.531C254.906 247.428 254.524 247.293 254.114 247.124C253.71 246.948 253.325 246.71 252.959 246.409C252.599 246.101 252.302 245.712 252.068 245.243C251.84 244.766 251.727 244.18 251.727 243.483C251.727 242.464 251.983 241.609 252.497 240.92C253.017 240.223 253.714 239.703 254.587 239.358C255.467 239.013 256.442 238.845 257.513 238.852C258.598 238.859 259.566 239.046 260.417 239.413C261.267 239.772 261.979 240.297 262.551 240.986C263.123 241.675 263.526 242.508 263.761 243.483L260.912 243.978C260.794 243.421 260.567 242.948 260.23 242.559C259.9 242.163 259.493 241.862 259.009 241.657C258.532 241.452 258.022 241.342 257.48 241.327C256.952 241.32 256.46 241.4 256.006 241.569C255.558 241.73 255.195 241.965 254.917 242.273C254.645 242.581 254.51 242.94 254.51 243.351C254.51 243.74 254.627 244.059 254.862 244.308C255.096 244.55 255.386 244.744 255.731 244.891C256.083 245.03 256.438 245.148 256.798 245.243L259.636 246.035C260.024 246.138 260.461 246.277 260.945 246.453C261.429 246.629 261.894 246.875 262.342 247.19C262.789 247.505 263.156 247.92 263.442 248.433C263.735 248.946 263.882 249.599 263.882 250.391C263.882 251.212 263.709 251.935 263.365 252.558C263.027 253.174 262.569 253.687 261.99 254.098C261.41 254.509 260.747 254.817 259.999 255.022C259.258 255.227 258.481 255.33 257.667 255.33ZM272.962 255.33C271.378 255.33 270.021 254.985 268.892 254.296C267.762 253.599 266.893 252.631 266.285 251.392C265.683 250.153 265.383 248.715 265.383 247.08C265.383 245.445 265.683 244.007 266.285 242.768C266.893 241.529 267.762 240.564 268.892 239.875C270.021 239.178 271.378 238.83 272.962 238.83C274.546 238.83 275.902 239.178 277.032 239.875C278.168 240.564 279.037 241.529 279.639 242.768C280.247 244.007 280.552 245.445 280.552 247.08C280.552 248.715 280.247 250.153 279.639 251.392C279.037 252.631 278.168 253.599 277.032 254.296C275.902 254.985 274.546 255.33 272.962 255.33ZM272.962 252.833C274.025 252.84 274.909 252.606 275.613 252.129C276.324 251.652 276.856 250.981 277.208 250.116C277.567 249.251 277.747 248.239 277.747 247.08C277.747 245.921 277.567 244.917 277.208 244.066C276.856 243.208 276.324 242.541 275.613 242.064C274.909 241.587 274.025 241.342 272.962 241.327C271.898 241.32 271.015 241.554 270.311 242.031C269.607 242.508 269.075 243.179 268.716 244.044C268.364 244.909 268.188 245.921 268.188 247.08C268.188 248.239 268.364 249.247 268.716 250.105C269.068 250.956 269.596 251.619 270.3 252.096C271.011 252.573 271.898 252.818 272.962 252.833ZM282.961 255V239.16H285.612V252.514H292.608V255H282.961ZM296.274 255L291.28 239.16H294.008L298.188 252.426L302.423 239.16H305.151L300.157 255H296.274ZM306.804 255V239.16H317.034V241.646H309.455V245.551H315.714V248.037H309.455V252.514H317.034V255H306.804ZM327.883 255V241.646H322.757V239.16H335.66V241.646H330.534V255H327.883ZM337.419 255V239.16H340.07V245.826H347.572V239.16H350.212V255H347.572V248.312H340.07V255H337.419ZM352.196 255L357.19 239.16H361.073L366.067 255H363.339L358.807 240.788H359.401L354.924 255H352.196ZM354.979 251.568V249.093H363.295V251.568H354.979ZM370.551 255V241.646H365.425V239.16H378.328V241.646H373.202V255H370.551ZM383.825 255V239.16H390.37C390.524 239.16 390.722 239.167 390.964 239.182C391.206 239.189 391.43 239.211 391.635 239.248C392.552 239.387 393.307 239.692 393.901 240.161C394.502 240.63 394.946 241.224 395.232 241.943C395.525 242.654 395.672 243.446 395.672 244.319C395.672 245.184 395.525 245.976 395.232 246.695C394.939 247.406 394.491 247.997 393.89 248.466C393.296 248.935 392.544 249.24 391.635 249.379C391.43 249.408 391.202 249.43 390.953 249.445C390.711 249.46 390.517 249.467 390.37 249.467H386.476V255H383.825ZM386.476 246.992H390.26C390.407 246.992 390.572 246.985 390.755 246.97C390.938 246.955 391.107 246.926 391.261 246.882C391.701 246.772 392.046 246.578 392.295 246.299C392.552 246.02 392.731 245.705 392.834 245.353C392.944 245.001 392.999 244.656 392.999 244.319C392.999 243.982 392.944 243.637 392.834 243.285C392.731 242.926 392.552 242.607 392.295 242.328C392.046 242.049 391.701 241.855 391.261 241.745C391.107 241.701 390.938 241.675 390.755 241.668C390.572 241.653 390.407 241.646 390.26 241.646H386.476V246.992ZM397.876 255V239.16H404.421C404.575 239.16 404.773 239.167 405.015 239.182C405.257 239.189 405.481 239.211 405.686 239.248C406.603 239.387 407.358 239.692 407.952 240.161C408.553 240.63 408.997 241.224 409.283 241.943C409.576 242.654 409.723 243.446 409.723 244.319C409.723 245.61 409.397 246.721 408.744 247.652C408.091 248.576 407.09 249.148 405.741 249.368L404.608 249.467H400.527V255H397.876ZM406.973 255L403.849 248.554L406.544 247.96L409.976 255H406.973ZM400.527 246.992H404.311C404.458 246.992 404.623 246.985 404.806 246.97C404.989 246.955 405.158 246.926 405.312 246.882C405.752 246.772 406.097 246.578 406.346 246.299C406.603 246.02 406.782 245.705 406.885 245.353C406.995 245.001 407.05 244.656 407.05 244.319C407.05 243.982 406.995 243.637 406.885 243.285C406.782 242.926 406.603 242.607 406.346 242.328C406.097 242.049 405.752 241.855 405.312 241.745C405.158 241.701 404.989 241.675 404.806 241.668C404.623 241.653 404.458 241.646 404.311 241.646H400.527V246.992ZM419.098 255.33C417.514 255.33 416.158 254.985 415.028 254.296C413.899 253.599 413.03 252.631 412.421 251.392C411.82 250.153 411.519 248.715 411.519 247.08C411.519 245.445 411.82 244.007 412.421 242.768C413.03 241.529 413.899 240.564 415.028 239.875C416.158 239.178 417.514 238.83 419.098 238.83C420.682 238.83 422.039 239.178 423.168 239.875C424.305 240.564 425.174 241.529 425.775 242.768C426.384 244.007 426.688 245.445 426.688 247.08C426.688 248.715 426.384 250.153 425.775 251.392C425.174 252.631 424.305 253.599 423.168 254.296C422.039 254.985 420.682 255.33 419.098 255.33ZM419.098 252.833C420.162 252.84 421.045 252.606 421.749 252.129C422.461 251.652 422.992 250.981 423.344 250.116C423.704 249.251 423.883 248.239 423.883 247.08C423.883 245.921 423.704 244.917 423.344 244.066C422.992 243.208 422.461 242.541 421.749 242.064C421.045 241.587 420.162 241.342 419.098 241.327C418.035 241.32 417.151 241.554 416.447 242.031C415.743 242.508 415.212 243.179 414.852 244.044C414.5 244.909 414.324 245.921 414.324 247.08C414.324 248.239 414.5 249.247 414.852 250.105C415.204 250.956 415.732 251.619 416.436 252.096C417.148 252.573 418.035 252.818 419.098 252.833ZM428.878 255V239.16H435.159C436.23 239.16 437.106 239.376 437.788 239.809C438.477 240.234 438.987 240.781 439.317 241.448C439.654 242.115 439.823 242.805 439.823 243.516C439.823 244.389 439.614 245.129 439.196 245.738C438.785 246.347 438.224 246.757 437.513 246.97V246.42C438.51 246.647 439.266 247.12 439.779 247.839C440.3 248.558 440.56 249.375 440.56 250.292C440.56 251.231 440.38 252.052 440.021 252.756C439.662 253.46 439.126 254.01 438.415 254.406C437.711 254.802 436.838 255 435.797 255H428.878ZM431.562 252.503H435.467C435.929 252.503 436.343 252.411 436.71 252.228C437.077 252.037 437.363 251.773 437.568 251.436C437.781 251.091 437.887 250.684 437.887 250.215C437.887 249.79 437.795 249.408 437.612 249.071C437.429 248.734 437.161 248.466 436.809 248.268C436.457 248.063 436.035 247.96 435.544 247.96H431.562V252.503ZM431.562 245.485H435.126C435.507 245.485 435.848 245.412 436.149 245.265C436.45 245.118 436.688 244.902 436.864 244.616C437.04 244.33 437.128 243.978 437.128 243.56C437.128 243.01 436.952 242.552 436.6 242.185C436.248 241.818 435.757 241.635 435.126 241.635H431.562V245.485ZM442.977 255V239.16H445.628V252.514H452.624V255H442.977ZM454.487 255V239.16H464.717V241.646H457.138V245.551H463.397V248.037H457.138V252.514H464.717V255H454.487ZM467.356 255V239.16H469.743L475.221 250.38L480.699 239.16H483.086V255H480.611V244.847L475.749 255H474.693L469.842 244.847V255H467.356ZM489.048 250.699C489.048 250.193 489.095 249.705 489.191 249.236C489.293 248.759 489.458 248.319 489.686 247.916C489.884 247.527 490.104 247.219 490.346 246.992C490.588 246.757 490.859 246.526 491.16 246.299C491.46 246.064 491.794 245.753 492.161 245.364C492.461 245.034 492.659 244.708 492.755 244.385C492.85 244.055 492.898 243.703 492.898 243.329C492.898 243.087 492.872 242.86 492.821 242.647C492.769 242.434 492.678 242.251 492.546 242.097C492.34 241.826 492.076 241.635 491.754 241.525C491.431 241.408 491.086 241.349 490.72 241.349C490.419 241.349 490.129 241.389 489.851 241.47C489.579 241.543 489.348 241.661 489.158 241.822C488.938 241.998 488.776 242.214 488.674 242.471C488.571 242.728 488.523 243.01 488.531 243.318H485.737C485.81 242.585 486.008 241.906 486.331 241.283C486.661 240.652 487.093 240.15 487.629 239.776C488.047 239.468 488.516 239.237 489.037 239.083C489.565 238.929 490.093 238.852 490.621 238.852C491.427 238.852 492.186 238.977 492.898 239.226C493.616 239.475 494.214 239.886 494.691 240.458C495.021 240.832 495.27 241.265 495.439 241.756C495.615 242.247 495.703 242.746 495.703 243.252C495.703 244.007 495.538 244.697 495.208 245.32C494.885 245.943 494.474 246.519 493.976 247.047C493.741 247.296 493.517 247.516 493.305 247.707C493.092 247.898 492.894 248.085 492.711 248.268C492.535 248.444 492.388 248.631 492.271 248.829C492.065 249.174 491.944 249.467 491.908 249.709C491.871 249.944 491.853 250.274 491.853 250.699H489.048ZM489.07 255V252.085H491.853V255H489.07Z" fill="white"></path> <rect x="20" y="20" width="251" height="40" rx="20" fill="white" fill-opacity="0.3"></rect> <path d="M36.4161 46V35.832H32.4881V34.48H41.7681V35.832H37.8401V46H36.4161ZM43.0419 46V34.48H50.3219V35.832H44.4659V39.44H49.3619V40.792H44.4659V44.648H50.3219V46H43.0419ZM56.5748 46.24C55.4281 46.24 54.4548 45.9867 53.6548 45.48C52.8548 44.9733 52.2441 44.2693 51.8228 43.368C51.4068 42.4667 51.1988 41.424 51.1988 40.24C51.1988 39.056 51.4068 38.0133 51.8228 37.112C52.2441 36.2107 52.8548 35.5067 53.6548 35C54.4548 34.4933 55.4281 34.24 56.5748 34.24C57.9081 34.24 59.0041 34.5787 59.8628 35.256C60.7268 35.9333 61.3214 36.8453 61.6468 37.992L60.1988 38.376C59.9641 37.5173 59.5454 36.84 58.9427 36.344C58.3401 35.848 57.5508 35.6 56.5748 35.6C55.7161 35.6 55.0014 35.7947 54.4308 36.184C53.8601 36.5733 53.4308 37.1173 53.1428 37.816C52.8548 38.5093 52.7081 39.3173 52.7028 40.24C52.6974 41.1573 52.8388 41.9653 53.1268 42.664C53.4148 43.3573 53.8468 43.9013 54.4228 44.296C54.9988 44.6853 55.7161 44.88 56.5748 44.88C57.5508 44.88 58.3401 44.632 58.9427 44.136C59.5454 43.6347 59.9641 42.9573 60.1988 42.104L61.6468 42.488C61.3214 43.6293 60.7268 44.5413 59.8628 45.224C59.0041 45.9013 57.9081 46.24 56.5748 46.24ZM63.4013 46V34.48H64.8253V39.56H70.8893V34.48H72.3133V46H70.8893V40.912H64.8253V46H63.4013ZM74.5575 46V34.48H75.9975L82.0055 43.48V34.48H83.4455V46H82.0055L75.9975 36.992V46H74.5575ZM90.4185 46.24C89.2718 46.24 88.2985 45.9867 87.4985 45.48C86.6985 44.9733 86.0878 44.2693 85.6665 43.368C85.2505 42.4667 85.0425 41.424 85.0425 40.24C85.0425 39.056 85.2505 38.0133 85.6665 37.112C86.0878 36.2107 86.6985 35.5067 87.4985 35C88.2985 34.4933 89.2718 34.24 90.4185 34.24C91.5705 34.24 92.5465 34.4933 93.3465 35C94.1465 35.5067 94.7545 36.2107 95.1705 37.112C95.5865 38.0133 95.7945 39.056 95.7945 40.24C95.7945 41.424 95.5865 42.4667 95.1705 43.368C94.7545 44.2693 94.1465 44.9733 93.3465 45.48C92.5465 45.9867 91.5705 46.24 90.4185 46.24ZM90.4185 44.88C91.2772 44.8853 91.9918 44.6933 92.5625 44.304C93.1385 43.9093 93.5678 43.3627 93.8505 42.664C94.1385 41.9653 94.2825 41.1573 94.2825 40.24C94.2825 39.3173 94.1385 38.5093 93.8505 37.816C93.5678 37.1227 93.1385 36.5813 92.5625 36.192C91.9918 35.8027 91.2772 35.6053 90.4185 35.6C89.5598 35.5947 88.8452 35.7867 88.2745 36.176C87.7092 36.5653 87.2825 37.1093 86.9945 37.808C86.7065 38.5067 86.5598 39.3173 86.5545 40.24C86.5492 41.1573 86.6905 41.9627 86.9785 42.656C87.2665 43.3493 87.6958 43.8933 88.2665 44.288C88.8425 44.6773 89.5598 44.8747 90.4185 44.88ZM97.5613 46V34.48H98.9853V44.648H104.329V46H97.5613ZM110.106 46.24C108.959 46.24 107.986 45.9867 107.186 45.48C106.386 44.9733 105.775 44.2693 105.354 43.368C104.938 42.4667 104.73 41.424 104.73 40.24C104.73 39.056 104.938 38.0133 105.354 37.112C105.775 36.2107 106.386 35.5067 107.186 35C107.986 34.4933 108.959 34.24 110.106 34.24C111.258 34.24 112.234 34.4933 113.034 35C113.834 35.5067 114.442 36.2107 114.858 37.112C115.274 38.0133 115.482 39.056 115.482 40.24C115.482 41.424 115.274 42.4667 114.858 43.368C114.442 44.2693 113.834 44.9733 113.034 45.48C112.234 45.9867 111.258 46.24 110.106 46.24ZM110.106 44.88C110.965 44.8853 111.679 44.6933 112.25 44.304C112.826 43.9093 113.255 43.3627 113.538 42.664C113.826 41.9653 113.97 41.1573 113.97 40.24C113.97 39.3173 113.826 38.5093 113.538 37.816C113.255 37.1227 112.826 36.5813 112.25 36.192C111.679 35.8027 110.965 35.6053 110.106 35.6C109.247 35.5947 108.533 35.7867 107.962 36.176C107.397 36.5653 106.97 37.1093 106.682 37.808C106.394 38.5067 106.247 39.3173 106.242 40.24C106.237 41.1573 106.378 41.9627 106.666 42.656C106.954 43.3493 107.383 43.8933 107.954 44.288C108.53 44.6773 109.247 44.8747 110.106 44.88ZM121.753 46.24C120.963 46.24 120.243 46.1013 119.593 45.824C118.942 45.5467 118.382 45.1493 117.913 44.632C117.443 44.1093 117.081 43.48 116.825 42.744C116.574 42.0027 116.449 41.168 116.449 40.24C116.449 39.0133 116.667 37.952 117.105 37.056C117.542 36.16 118.158 35.4693 118.953 34.984C119.747 34.4933 120.681 34.248 121.753 34.248C123.043 34.248 124.083 34.5493 124.873 35.152C125.662 35.7493 126.206 36.568 126.505 37.608L125.065 37.904C124.825 37.2053 124.43 36.648 123.881 36.232C123.331 35.816 122.646 35.608 121.825 35.608C120.966 35.6027 120.251 35.7947 119.681 36.184C119.115 36.568 118.689 37.1093 118.401 37.808C118.113 38.5067 117.966 39.3173 117.961 40.24C117.955 41.1573 118.097 41.9627 118.385 42.656C118.673 43.3493 119.102 43.8933 119.673 44.288C120.249 44.6773 120.966 44.8747 121.825 44.88C122.566 44.8853 123.19 44.744 123.697 44.456C124.203 44.168 124.595 43.752 124.873 43.208C125.15 42.664 125.318 42.0107 125.377 41.248H122.929V40.072H126.881C126.897 40.1787 126.905 40.3067 126.905 40.456C126.91 40.6 126.913 40.6987 126.913 40.752C126.913 41.8027 126.715 42.744 126.321 43.576C125.931 44.4027 125.353 45.0533 124.585 45.528C123.822 46.0027 122.878 46.24 121.753 46.24ZM130.786 46V41.208L126.906 34.48H128.562L131.506 39.576L134.442 34.48H136.098L132.226 41.208V46H130.786ZM143.52 46.24C142.88 46.24 142.283 46.1467 141.728 45.96C141.174 45.7733 140.71 45.48 140.336 45.08C140.048 44.76 139.832 44.408 139.688 44.024C139.55 43.6347 139.472 43.224 139.456 42.792C139.456 42.3707 139.518 41.96 139.64 41.56C139.763 41.1547 139.958 40.7947 140.224 40.48C140.363 40.3093 140.518 40.1653 140.688 40.048C140.864 39.9253 141.04 39.8213 141.216 39.736C140.848 39.3413 140.566 38.9707 140.368 38.624C140.176 38.2773 140.08 37.8587 140.08 37.368C140.08 36.744 140.24 36.1813 140.56 35.68C140.886 35.1733 141.328 34.8027 141.888 34.568C142.16 34.4507 142.438 34.3707 142.72 34.328C143.008 34.28 143.288 34.256 143.56 34.256C144.019 34.256 144.464 34.32 144.896 34.448C145.328 34.576 145.696 34.784 146 35.072C146.203 35.2427 146.376 35.44 146.52 35.664C146.664 35.8827 146.776 36.112 146.856 36.352L145.464 36.712C145.363 36.44 145.195 36.2107 144.96 36.024C144.774 35.864 144.555 35.7547 144.304 35.696C144.059 35.6373 143.811 35.608 143.56 35.608C143.144 35.608 142.768 35.688 142.432 35.848C142.134 35.992 141.91 36.1947 141.76 36.456C141.611 36.712 141.536 37.016 141.536 37.368C141.536 37.672 141.587 37.9227 141.688 38.12C141.795 38.312 141.942 38.5173 142.128 38.736C142.24 38.8533 142.366 38.9787 142.504 39.112C142.648 39.24 142.795 39.3733 142.944 39.512L146.336 42.664C146.352 42.5307 146.363 42.3947 146.368 42.256C146.374 42.1173 146.376 41.984 146.376 41.856L146.368 40.264H147.672V42.136C147.672 42.5147 147.659 42.8373 147.632 43.104C147.611 43.3707 147.574 43.592 147.52 43.768L148.984 45.12L148.056 46.112L146.84 44.96C146.632 45.1947 146.384 45.4 146.096 45.576C145.808 45.752 145.52 45.8853 145.232 45.976C144.96 46.0773 144.68 46.1467 144.392 46.184C144.104 46.2213 143.814 46.24 143.52 46.24ZM143.552 44.872C143.814 44.872 144.051 44.856 144.264 44.824C144.478 44.792 144.68 44.7307 144.872 44.64C145.128 44.5173 145.326 44.4 145.464 44.288C145.603 44.176 145.718 44.072 145.808 43.976L142.296 40.76C142.104 40.824 141.923 40.9093 141.752 41.016C141.587 41.1227 141.443 41.248 141.32 41.392C141.182 41.5627 141.078 41.7627 141.008 41.992C140.944 42.2213 140.912 42.464 140.912 42.72C140.918 42.992 140.963 43.2427 141.048 43.472C141.134 43.7013 141.254 43.9067 141.408 44.088C141.643 44.36 141.96 44.56 142.36 44.688C142.76 44.8107 143.158 44.872 143.552 44.872ZM157.583 46.24C156.767 46.24 156.031 46.1013 155.375 45.824C154.724 45.5467 154.186 45.152 153.759 44.64C153.338 44.1227 153.063 43.512 152.935 42.808L154.407 42.576C154.594 43.3013 154.98 43.8693 155.567 44.28C156.159 44.6853 156.855 44.888 157.655 44.888C158.172 44.888 158.639 44.808 159.055 44.648C159.476 44.4827 159.81 44.248 160.055 43.944C160.3 43.64 160.423 43.28 160.423 42.864C160.423 42.608 160.378 42.3893 160.287 42.208C160.202 42.0213 160.082 41.864 159.927 41.736C159.778 41.6027 159.607 41.4907 159.415 41.4C159.223 41.3093 159.023 41.2347 158.815 41.176L155.879 40.304C155.559 40.208 155.25 40.088 154.951 39.944C154.652 39.7947 154.386 39.6107 154.151 39.392C153.916 39.168 153.73 38.9013 153.591 38.592C153.452 38.2773 153.383 37.9067 153.383 37.48C153.383 36.7973 153.559 36.216 153.911 35.736C154.268 35.2507 154.751 34.88 155.359 34.624C155.967 34.368 156.652 34.2427 157.415 34.248C158.188 34.2533 158.879 34.392 159.487 34.664C160.1 34.9307 160.607 35.3147 161.007 35.816C161.412 36.3173 161.684 36.9173 161.823 37.616L160.311 37.88C160.231 37.4107 160.052 37.008 159.775 36.672C159.503 36.3307 159.162 36.0693 158.751 35.888C158.34 35.7013 157.89 35.6053 157.399 35.6C156.93 35.5947 156.506 35.6693 156.127 35.824C155.748 35.9787 155.447 36.1947 155.223 36.472C154.999 36.744 154.887 37.0587 154.887 37.416C154.887 37.768 154.988 38.0533 155.191 38.272C155.394 38.4853 155.642 38.656 155.935 38.784C156.234 38.9067 156.524 39.008 156.807 39.088L158.999 39.72C159.25 39.7893 159.538 39.8853 159.863 40.008C160.194 40.1307 160.514 40.304 160.823 40.528C161.132 40.7467 161.388 41.04 161.591 41.408C161.794 41.7707 161.895 42.2293 161.895 42.784C161.895 43.3387 161.783 43.832 161.559 44.264C161.34 44.696 161.034 45.0587 160.639 45.352C160.244 45.64 159.786 45.8587 159.263 46.008C158.74 46.1627 158.18 46.24 157.583 46.24ZM168.309 46.24C167.162 46.24 166.189 45.9867 165.389 45.48C164.589 44.9733 163.978 44.2693 163.557 43.368C163.141 42.4667 162.933 41.424 162.933 40.24C162.933 39.056 163.141 38.0133 163.557 37.112C163.978 36.2107 164.589 35.5067 165.389 35C166.189 34.4933 167.162 34.24 168.309 34.24C169.461 34.24 170.437 34.4933 171.237 35C172.037 35.5067 172.645 36.2107 173.061 37.112C173.477 38.0133 173.685 39.056 173.685 40.24C173.685 41.424 173.477 42.4667 173.061 43.368C172.645 44.2693 172.037 44.9733 171.237 45.48C170.437 45.9867 169.461 46.24 168.309 46.24ZM168.309 44.88C169.168 44.8853 169.882 44.6933 170.453 44.304C171.029 43.9093 171.458 43.3627 171.741 42.664C172.029 41.9653 172.173 41.1573 172.173 40.24C172.173 39.3173 172.029 38.5093 171.741 37.816C171.458 37.1227 171.029 36.5813 170.453 36.192C169.882 35.8027 169.168 35.6053 168.309 35.6C167.45 35.5947 166.736 35.7867 166.165 36.176C165.6 36.5653 165.173 37.1093 164.885 37.808C164.597 38.5067 164.45 39.3173 164.445 40.24C164.44 41.1573 164.581 41.9627 164.869 42.656C165.157 43.3493 165.586 43.8933 166.157 44.288C166.733 44.6773 167.45 44.8747 168.309 44.88ZM180.028 46.24C178.881 46.24 177.908 45.9867 177.108 45.48C176.308 44.9733 175.697 44.2693 175.276 43.368C174.86 42.4667 174.652 41.424 174.652 40.24C174.652 39.056 174.86 38.0133 175.276 37.112C175.697 36.2107 176.308 35.5067 177.108 35C177.908 34.4933 178.881 34.24 180.028 34.24C181.361 34.24 182.457 34.5787 183.316 35.256C184.18 35.9333 184.775 36.8453 185.1 37.992L183.652 38.376C183.417 37.5173 182.999 36.84 182.396 36.344C181.793 35.848 181.004 35.6 180.028 35.6C179.169 35.6 178.455 35.7947 177.884 36.184C177.313 36.5733 176.884 37.1173 176.596 37.816C176.308 38.5093 176.161 39.3173 176.156 40.24C176.151 41.1573 176.292 41.9653 176.58 42.664C176.868 43.3573 177.3 43.9013 177.876 44.296C178.452 44.6853 179.169 44.88 180.028 44.88C181.004 44.88 181.793 44.632 182.396 44.136C182.999 43.6347 183.417 42.9573 183.652 42.104L185.1 42.488C184.775 43.6293 184.18 44.5413 183.316 45.224C182.457 45.9013 181.361 46.24 180.028 46.24ZM187.014 46V34.48H188.438V46H187.014ZM190.039 46L193.895 34.48H195.879L199.735 46H198.255L194.647 35.312H195.095L191.519 46H190.039ZM191.895 43.304V41.968H197.879V43.304H191.895ZM201.327 46V34.48H202.751V44.648H208.095V46H201.327ZM211.854 46V34.48H213.15L217.502 43.656L221.83 34.48H223.142V45.992H221.79V37.608L217.878 46H217.118L213.206 37.608V46H211.854ZM225.386 46V34.48H232.666V35.832H226.81V39.44H231.706V40.792H226.81V44.648H232.666V46H225.386ZM234.589 46V34.48H238.141C238.258 34.48 238.463 34.4827 238.757 34.488C239.05 34.4933 239.33 34.5147 239.597 34.552C240.487 34.6693 241.231 34.9947 241.829 35.528C242.431 36.056 242.885 36.728 243.189 37.544C243.493 38.36 243.645 39.2587 243.645 40.24C243.645 41.2213 243.493 42.12 243.189 42.936C242.885 43.752 242.431 44.4267 241.829 44.96C241.231 45.488 240.487 45.8107 239.597 45.928C239.33 45.96 239.047 45.9813 238.749 45.992C238.455 45.9973 238.253 46 238.141 46H234.589ZM236.053 44.64H238.141C238.343 44.64 238.57 44.6347 238.821 44.624C239.071 44.608 239.29 44.584 239.477 44.552C240.106 44.4347 240.615 44.1707 241.005 43.76C241.394 43.3493 241.679 42.8373 241.861 42.224C242.042 41.6107 242.133 40.9493 242.133 40.24C242.133 39.5147 242.039 38.8453 241.853 38.232C241.671 37.6187 241.386 37.1093 240.997 36.704C240.607 36.2987 240.101 36.04 239.477 35.928C239.29 35.8907 239.069 35.8667 238.813 35.856C238.557 35.8453 238.333 35.84 238.141 35.84H236.053V44.64ZM245.639 46V34.48H247.063V46H245.639ZM248.664 46L252.52 34.48H254.504L258.36 46H256.88L253.272 35.312H253.72L250.144 46H248.664ZM250.52 43.304V41.968H256.504V43.304H250.52Z" fill="white"></path> <defs> <linearGradient id="paint0_linear_131_141" x1="300" y1="0" x2="300" y2="400" gradientUnits="userSpaceOnUse"> <stop stop-color="#9D50BB"></stop> <stop offset="1" stop-color="#6E48AA"></stop> </linearGradient> </defs> </svg> 