<?xml version="1.0" encoding="UTF-8"?> <svg xmlns="http://www.w3.org/2000/svg" width="600" height="400" viewBox="0 0 600 400" fill="none"> <rect width="600" height="400" rx="20" fill="url(#paint0_linear_160_291)"></rect> <path d="M98.5218 178V164.646H93.3958V162.16H106.299V164.646H101.173V178H98.5218ZM108.058 178V162.16H114.603C114.757 162.16 114.955 162.167 115.197 162.182C115.439 162.189 115.662 162.211 115.868 162.248C116.784 162.387 117.54 162.692 118.134 163.161C118.735 163.63 119.179 164.224 119.465 164.943C119.758 165.654 119.905 166.446 119.905 167.319C119.905 168.61 119.578 169.721 118.926 170.652C118.273 171.576 117.272 172.148 115.923 172.368L114.79 172.467H110.709V178H108.058ZM117.155 178L114.031 171.554L116.726 170.96L120.158 178H117.155ZM110.709 169.992H114.493C114.639 169.992 114.804 169.985 114.988 169.97C115.171 169.955 115.34 169.926 115.494 169.882C115.934 169.772 116.278 169.578 116.528 169.299C116.784 169.02 116.964 168.705 117.067 168.353C117.177 168.001 117.232 167.656 117.232 167.319C117.232 166.982 117.177 166.637 117.067 166.285C116.964 165.926 116.784 165.607 116.528 165.328C116.278 165.049 115.934 164.855 115.494 164.745C115.34 164.701 115.171 164.675 114.988 164.668C114.804 164.653 114.639 164.646 114.493 164.646H110.709V169.992ZM126.13 178V171.51L120.74 162.16H123.831L127.472 168.474L131.102 162.16H134.193L128.814 171.51V178H126.13ZM143.059 178V164.646H137.933V162.16H150.836V164.646H145.71V178H143.059ZM159.294 178.33C157.71 178.33 156.353 177.985 155.224 177.296C154.094 176.599 153.225 175.631 152.617 174.392C152.015 173.153 151.715 171.715 151.715 170.08C151.715 168.445 152.015 167.007 152.617 165.768C153.225 164.529 154.094 163.564 155.224 162.875C156.353 162.178 157.71 161.83 159.294 161.83C160.878 161.83 162.234 162.178 163.364 162.875C164.5 163.564 165.369 164.529 165.971 165.768C166.579 167.007 166.884 168.445 166.884 170.08C166.884 171.715 166.579 173.153 165.971 174.392C165.369 175.631 164.5 176.599 163.364 177.296C162.234 177.985 160.878 178.33 159.294 178.33ZM159.294 175.833C160.357 175.84 161.241 175.606 161.945 175.129C162.656 174.652 163.188 173.981 163.54 173.116C163.899 172.251 164.079 171.239 164.079 170.08C164.079 168.921 163.899 167.917 163.54 167.066C163.188 166.208 162.656 165.541 161.945 165.064C161.241 164.587 160.357 164.342 159.294 164.327C158.23 164.32 157.347 164.554 156.643 165.031C155.939 165.508 155.407 166.179 155.048 167.044C154.696 167.909 154.52 168.921 154.52 170.08C154.52 171.239 154.696 172.247 155.048 173.105C155.4 173.956 155.928 174.619 156.632 175.096C157.343 175.573 158.23 175.818 159.294 175.833ZM173.478 178V162.16H180.023C180.177 162.16 180.375 162.167 180.617 162.182C180.859 162.189 181.082 162.211 181.288 162.248C182.204 162.387 182.96 162.692 183.553 163.161C184.155 163.63 184.599 164.224 184.885 164.943C185.178 165.654 185.325 166.446 185.325 167.319C185.325 168.184 185.178 168.976 184.885 169.695C184.591 170.406 184.144 170.997 183.543 171.466C182.949 171.935 182.197 172.24 181.288 172.379C181.082 172.408 180.855 172.43 180.606 172.445C180.364 172.46 180.169 172.467 180.023 172.467H176.129V178H173.478ZM176.129 169.992H179.913C180.059 169.992 180.224 169.985 180.408 169.97C180.591 169.955 180.76 169.926 180.914 169.882C181.354 169.772 181.698 169.578 181.948 169.299C182.204 169.02 182.384 168.705 182.487 168.353C182.597 168.001 182.652 167.656 182.652 167.319C182.652 166.982 182.597 166.637 182.487 166.285C182.384 165.926 182.204 165.607 181.948 165.328C181.698 165.049 181.354 164.855 180.914 164.745C180.76 164.701 180.591 164.675 180.408 164.668C180.224 164.653 180.059 164.646 179.913 164.646H176.129V169.992ZM187.528 178V162.16H194.073C194.227 162.16 194.425 162.167 194.667 162.182C194.909 162.189 195.133 162.211 195.338 162.248C196.255 162.387 197.01 162.692 197.604 163.161C198.206 163.63 198.649 164.224 198.935 164.943C199.229 165.654 199.375 166.446 199.375 167.319C199.375 168.61 199.049 169.721 198.396 170.652C197.744 171.576 196.743 172.148 195.393 172.368L194.26 172.467H190.179V178H187.528ZM196.625 178L193.501 171.554L196.196 170.96L199.628 178H196.625ZM190.179 169.992H193.963C194.11 169.992 194.275 169.985 194.458 169.97C194.642 169.955 194.81 169.926 194.964 169.882C195.404 169.772 195.749 169.578 195.998 169.299C196.255 169.02 196.435 168.705 196.537 168.353C196.647 168.001 196.702 167.656 196.702 167.319C196.702 166.982 196.647 166.637 196.537 166.285C196.435 165.926 196.255 165.607 195.998 165.328C195.749 165.049 195.404 164.855 194.964 164.745C194.81 164.701 194.642 164.675 194.458 164.668C194.275 164.653 194.11 164.646 193.963 164.646H190.179V169.992ZM202.052 178V162.16H212.282V164.646H204.703V168.551H210.962V171.037H204.703V175.514H212.282V178H202.052ZM214.921 178V162.16H219.97C220.102 162.16 220.362 162.164 220.751 162.171C221.147 162.178 221.528 162.204 221.895 162.248C223.149 162.409 224.209 162.857 225.074 163.59C225.947 164.316 226.607 165.244 227.054 166.373C227.501 167.502 227.725 168.738 227.725 170.08C227.725 171.422 227.501 172.658 227.054 173.787C226.607 174.916 225.947 175.848 225.074 176.581C224.209 177.307 223.149 177.751 221.895 177.912C221.536 177.956 221.158 177.982 220.762 177.989C220.366 177.996 220.102 178 219.97 178H214.921ZM217.616 175.503H219.97C220.19 175.503 220.469 175.496 220.806 175.481C221.151 175.466 221.455 175.433 221.719 175.382C222.467 175.243 223.076 174.909 223.545 174.381C224.014 173.853 224.359 173.211 224.579 172.456C224.806 171.701 224.92 170.909 224.92 170.08C224.92 169.222 224.806 168.415 224.579 167.66C224.352 166.905 224 166.27 223.523 165.757C223.054 165.244 222.452 164.917 221.719 164.778C221.455 164.719 221.151 164.686 220.806 164.679C220.469 164.664 220.19 164.657 219.97 164.657H217.616V175.503ZM230.545 178V162.16H233.196V178H230.545ZM243.19 178.33C241.606 178.33 240.25 177.985 239.12 177.296C237.991 176.599 237.122 175.631 236.513 174.392C235.912 173.153 235.611 171.715 235.611 170.08C235.611 168.445 235.912 167.007 236.513 165.768C237.122 164.529 237.991 163.564 239.12 162.875C240.25 162.178 241.606 161.83 243.19 161.83C245.016 161.83 246.538 162.288 247.755 163.205C248.973 164.114 249.827 165.343 250.318 166.89L247.645 167.627C247.337 166.593 246.813 165.786 246.072 165.207C245.332 164.62 244.371 164.327 243.19 164.327C242.127 164.327 241.24 164.565 240.528 165.042C239.824 165.519 239.293 166.19 238.933 167.055C238.581 167.913 238.402 168.921 238.394 170.08C238.394 171.239 238.57 172.251 238.922 173.116C239.282 173.974 239.817 174.641 240.528 175.118C241.24 175.595 242.127 175.833 243.19 175.833C244.371 175.833 245.332 175.54 246.072 174.953C246.813 174.366 247.337 173.56 247.645 172.533L250.318 173.27C249.827 174.817 248.973 176.049 247.755 176.966C246.538 177.875 245.016 178.33 243.19 178.33ZM256.539 178V164.646H251.413V162.16H264.316V164.646H259.19V178H256.539ZM273.157 178L268.526 162.16H271.309L274.466 173.6L277.612 162.182L280.395 162.16L283.552 173.6L286.698 162.16H289.481L284.861 178H282.243L278.998 166.736L275.775 178H273.157ZM291.276 178V162.16H293.927V168.826H301.429V162.16H304.069V178H301.429V171.312H293.927V178H291.276ZM306.053 178L311.047 162.16H314.93L319.924 178H317.196L312.664 163.788H313.258L308.781 178H306.053ZM308.836 174.568V172.093H317.152V174.568H308.836ZM324.409 178V164.646H319.283V162.16H332.186V164.646H327.06V178H324.409ZM341.489 178V164.646H336.363V162.16H349.266V164.646H344.14V178H341.489ZM351.024 178V162.16H361.254V164.646H353.675V168.551H359.934V171.037H353.675V175.514H361.254V178H351.024ZM370.034 178.33C368.45 178.33 367.093 177.985 365.964 177.296C364.835 176.599 363.966 175.631 363.357 174.392C362.756 173.153 362.455 171.715 362.455 170.08C362.455 168.445 362.756 167.007 363.357 165.768C363.966 164.529 364.835 163.564 365.964 162.875C367.093 162.178 368.45 161.83 370.034 161.83C371.86 161.83 373.382 162.288 374.599 163.205C375.816 164.114 376.671 165.343 377.162 166.89L374.489 167.627C374.181 166.593 373.657 165.786 372.916 165.207C372.175 164.62 371.215 164.327 370.034 164.327C368.971 164.327 368.083 164.565 367.372 165.042C366.668 165.519 366.136 166.19 365.777 167.055C365.425 167.913 365.245 168.921 365.238 170.08C365.238 171.239 365.414 172.251 365.766 173.116C366.125 173.974 366.661 174.641 367.372 175.118C368.083 175.595 368.971 175.833 370.034 175.833C371.215 175.833 372.175 175.54 372.916 174.953C373.657 174.366 374.181 173.56 374.489 172.533L377.162 173.27C376.671 174.817 375.816 176.049 374.599 176.966C373.382 177.875 371.86 178.33 370.034 178.33ZM379.577 178V162.16H382.228V168.826H389.73V162.16H392.37V178H389.73V171.312H382.228V178H379.577ZM395.454 178V162.16H398.138L405.486 173.325V162.16H408.17V178H405.486L398.138 166.835V178H395.454ZM417.944 178.33C416.36 178.33 415.003 177.985 413.874 177.296C412.745 176.599 411.876 175.631 411.267 174.392C410.666 173.153 410.365 171.715 410.365 170.08C410.365 168.445 410.666 167.007 411.267 165.768C411.876 164.529 412.745 163.564 413.874 162.875C415.003 162.178 416.36 161.83 417.944 161.83C419.528 161.83 420.885 162.178 422.014 162.875C423.151 163.564 424.02 164.529 424.621 165.768C425.23 167.007 425.534 168.445 425.534 170.08C425.534 171.715 425.23 173.153 424.621 174.392C424.02 175.631 423.151 176.599 422.014 177.296C420.885 177.985 419.528 178.33 417.944 178.33ZM417.944 175.833C419.007 175.84 419.891 175.606 420.595 175.129C421.306 174.652 421.838 173.981 422.19 173.116C422.549 172.251 422.729 171.239 422.729 170.08C422.729 168.921 422.549 167.917 422.19 167.066C421.838 166.208 421.306 165.541 420.595 165.064C419.891 164.587 419.007 164.342 417.944 164.327C416.881 164.32 415.997 164.554 415.293 165.031C414.589 165.508 414.057 166.179 413.698 167.044C413.346 167.909 413.17 168.921 413.17 170.08C413.17 171.239 413.346 172.247 413.698 173.105C414.05 173.956 414.578 174.619 415.282 175.096C415.993 175.573 416.881 175.818 417.944 175.833ZM427.944 178V162.16H430.595V175.514H437.591V178H427.944ZM445.723 178.33C444.139 178.33 442.783 177.985 441.653 177.296C440.524 176.599 439.655 175.631 439.046 174.392C438.445 173.153 438.144 171.715 438.144 170.08C438.144 168.445 438.445 167.007 439.046 165.768C439.655 164.529 440.524 163.564 441.653 162.875C442.783 162.178 444.139 161.83 445.723 161.83C447.307 161.83 448.664 162.178 449.793 162.875C450.93 163.564 451.799 164.529 452.4 165.768C453.009 167.007 453.313 168.445 453.313 170.08C453.313 171.715 453.009 173.153 452.4 174.392C451.799 175.631 450.93 176.599 449.793 177.296C448.664 177.985 447.307 178.33 445.723 178.33ZM445.723 175.833C446.787 175.84 447.67 175.606 448.374 175.129C449.086 174.652 449.617 173.981 449.969 173.116C450.329 172.251 450.508 171.239 450.508 170.08C450.508 168.921 450.329 167.917 449.969 167.066C449.617 166.208 449.086 165.541 448.374 165.064C447.67 164.587 446.787 164.342 445.723 164.327C444.66 164.32 443.776 164.554 443.072 165.031C442.368 165.508 441.837 166.179 441.477 167.044C441.125 167.909 440.949 168.921 440.949 170.08C440.949 171.239 441.125 172.247 441.477 173.105C441.829 173.956 442.357 174.619 443.061 175.096C443.773 175.573 444.66 175.818 445.723 175.833ZM462.037 178.33C461.01 178.33 460.046 178.15 459.144 177.791C458.249 177.424 457.461 176.889 456.779 176.185C456.104 175.481 455.576 174.619 455.195 173.6C454.814 172.573 454.623 171.4 454.623 170.08C454.623 168.349 454.946 166.872 455.591 165.647C456.236 164.415 457.12 163.473 458.242 162.82C459.364 162.16 460.629 161.83 462.037 161.83C463.988 161.83 465.531 162.285 466.668 163.194C467.812 164.096 468.586 165.365 468.989 167L466.283 167.429C465.982 166.49 465.491 165.742 464.809 165.185C464.127 164.62 463.258 164.338 462.202 164.338C461.139 164.323 460.255 164.554 459.551 165.031C458.847 165.508 458.315 166.179 457.956 167.044C457.604 167.909 457.428 168.921 457.428 170.08C457.428 171.239 457.604 172.247 457.956 173.105C458.308 173.956 458.836 174.619 459.54 175.096C460.251 175.573 461.139 175.818 462.202 175.833C463.001 175.84 463.702 175.697 464.303 175.404C464.904 175.103 465.396 174.652 465.777 174.051C466.158 173.442 466.415 172.683 466.547 171.774H463.753V169.695H469.363C469.378 169.812 469.389 169.985 469.396 170.212C469.403 170.439 469.407 170.575 469.407 170.619C469.407 172.115 469.11 173.446 468.516 174.612C467.929 175.771 467.086 176.68 465.986 177.34C464.886 178 463.57 178.33 462.037 178.33ZM471.836 178V162.16H474.487V178H471.836ZM477.782 178V162.16H488.012V164.646H480.433V168.551H486.692V171.037H480.433V175.514H488.012V178H477.782ZM496.364 178.33C495.205 178.33 494.16 178.128 493.229 177.725C492.305 177.322 491.542 176.746 490.941 175.998C490.347 175.243 489.969 174.348 489.808 173.314L492.558 172.896C492.793 173.835 493.273 174.561 493.999 175.074C494.732 175.587 495.576 175.844 496.529 175.844C497.094 175.844 497.625 175.756 498.124 175.58C498.623 175.404 499.026 175.147 499.334 174.81C499.649 174.473 499.807 174.058 499.807 173.567C499.807 173.347 499.77 173.145 499.697 172.962C499.624 172.771 499.514 172.603 499.367 172.456C499.228 172.309 499.044 172.177 498.817 172.06C498.597 171.935 498.34 171.829 498.047 171.741L493.955 170.531C493.603 170.428 493.222 170.293 492.811 170.124C492.408 169.948 492.023 169.71 491.656 169.409C491.297 169.101 491 168.712 490.765 168.243C490.538 167.766 490.424 167.18 490.424 166.483C490.424 165.464 490.681 164.609 491.194 163.92C491.715 163.223 492.411 162.703 493.284 162.358C494.164 162.013 495.139 161.845 496.21 161.852C497.295 161.859 498.263 162.046 499.114 162.413C499.965 162.772 500.676 163.297 501.248 163.986C501.82 164.675 502.223 165.508 502.458 166.483L499.609 166.978C499.492 166.421 499.264 165.948 498.927 165.559C498.597 165.163 498.19 164.862 497.706 164.657C497.229 164.452 496.72 164.342 496.177 164.327C495.649 164.32 495.158 164.4 494.703 164.569C494.256 164.73 493.893 164.965 493.614 165.273C493.343 165.581 493.207 165.94 493.207 166.351C493.207 166.74 493.324 167.059 493.559 167.308C493.794 167.55 494.083 167.744 494.428 167.891C494.78 168.03 495.136 168.148 495.495 168.243L498.333 169.035C498.722 169.138 499.158 169.277 499.642 169.453C500.126 169.629 500.592 169.875 501.039 170.19C501.486 170.505 501.853 170.92 502.139 171.433C502.432 171.946 502.579 172.599 502.579 173.391C502.579 174.212 502.407 174.935 502.062 175.558C501.725 176.174 501.266 176.687 500.687 177.098C500.108 177.509 499.444 177.817 498.696 178.022C497.955 178.227 497.178 178.33 496.364 178.33ZM73.2776 209L68.6466 193.16H71.4296L74.5866 204.6L77.7326 193.182L80.5156 193.16L83.6726 204.6L86.8186 193.16H89.6016L84.9816 209H82.3636L79.1186 197.736L75.8956 209H73.2776ZM91.6164 209V193.16H94.2674V209H91.6164ZM97.7825 209V193.16H100.433V206.514H107.429V209H97.7825ZM109.513 209V193.16H112.164V206.514H119.16V209H109.513ZM124.332 209V193.16H130.613C131.684 193.16 132.56 193.376 133.242 193.809C133.931 194.234 134.441 194.781 134.771 195.448C135.108 196.115 135.277 196.805 135.277 197.516C135.277 198.389 135.068 199.129 134.65 199.738C134.239 200.347 133.678 200.757 132.967 200.97V200.42C133.964 200.647 134.72 201.12 135.233 201.839C135.754 202.558 136.014 203.375 136.014 204.292C136.014 205.231 135.834 206.052 135.475 206.756C135.116 207.46 134.58 208.01 133.869 208.406C133.165 208.802 132.292 209 131.251 209H124.332ZM127.016 206.503H130.921C131.383 206.503 131.797 206.411 132.164 206.228C132.531 206.037 132.817 205.773 133.022 205.436C133.235 205.091 133.341 204.684 133.341 204.215C133.341 203.79 133.249 203.408 133.066 203.071C132.883 202.734 132.615 202.466 132.263 202.268C131.911 202.063 131.489 201.96 130.998 201.96H127.016V206.503ZM127.016 199.485H130.58C130.961 199.485 131.302 199.412 131.603 199.265C131.904 199.118 132.142 198.902 132.318 198.616C132.494 198.33 132.582 197.978 132.582 197.56C132.582 197.01 132.406 196.552 132.054 196.185C131.702 195.818 131.211 195.635 130.58 195.635H127.016V199.485ZM138.211 209V193.16H148.441V195.646H140.862V199.551H147.121V202.037H140.862V206.514H148.441V209H138.211ZM155.704 209V193.16H158.355V209H155.704ZM161.65 209V193.16H164.334L171.682 204.325V193.16H174.366V209H171.682L164.334 197.835V209H161.65ZM181.005 209L176.011 193.16H178.739L182.919 206.426L187.154 193.16H189.882L184.888 209H181.005ZM191.535 209V193.16H201.765V195.646H194.186V199.551H200.445V202.037H194.186V206.514H201.765V209H191.535ZM204.404 209V193.16H207.088L214.436 204.325V193.16H217.12V209H214.436L207.088 197.835V209H204.404ZM224.001 209V195.646H218.875V193.16H231.778V195.646H226.652V209H224.001ZM233.537 209V193.16H243.767V195.646H236.188V199.551H242.447V202.037H236.188V206.514H243.767V209H233.537ZM246.406 209V193.16H251.455C251.587 193.16 251.848 193.164 252.236 193.171C252.632 193.178 253.014 193.204 253.38 193.248C254.634 193.409 255.694 193.857 256.559 194.59C257.432 195.316 258.092 196.244 258.539 197.373C258.987 198.502 259.21 199.738 259.21 201.08C259.21 202.422 258.987 203.658 258.539 204.787C258.092 205.916 257.432 206.848 256.559 207.581C255.694 208.307 254.634 208.751 253.38 208.912C253.021 208.956 252.643 208.982 252.247 208.989C251.851 208.996 251.587 209 251.455 209H246.406ZM249.101 206.503H251.455C251.675 206.503 251.954 206.496 252.291 206.481C252.636 206.466 252.94 206.433 253.204 206.382C253.952 206.243 254.561 205.909 255.03 205.381C255.5 204.853 255.844 204.211 256.064 203.456C256.292 202.701 256.405 201.909 256.405 201.08C256.405 200.222 256.292 199.415 256.064 198.66C255.837 197.905 255.485 197.27 255.008 196.757C254.539 196.244 253.938 195.917 253.204 195.778C252.94 195.719 252.636 195.686 252.291 195.679C251.954 195.664 251.675 195.657 251.455 195.657H249.101V206.503ZM270.839 209V193.16H273.49V209H270.839ZM276.785 209V193.16H279.469L286.817 204.325V193.16H289.501V209H286.817L279.469 197.835V209H276.785ZM300.786 209V195.646H295.66V193.16H308.563V195.646H303.437V209H300.786ZM310.322 209V193.16H312.973V199.826H320.475V193.16H323.115V209H320.475V202.312H312.973V209H310.322ZM326.199 209V193.16H336.429V195.646H328.85V199.551H335.109V202.037H328.85V206.514H336.429V209H326.199ZM343.473 209V193.16H346.157L353.505 204.325V193.16H356.189V209H353.505L346.157 197.835V209H343.473ZM359.264 209V193.16H369.494V195.646H361.915V199.551H368.174V202.037H361.915V206.514H369.494V209H359.264ZM370.813 209L376.181 200.992L370.967 193.16H374.212L377.82 198.737L381.395 193.16H384.662L379.448 200.992L384.794 209H381.549L377.82 203.247L374.08 209H370.813ZM391.236 209V195.646H386.11V193.16H399.013V195.646H393.887V209H391.236ZM407.26 209V196.053L404.29 197.868V194.942L407.26 193.16H409.966V209H407.26ZM419.854 209.33C418.732 209.33 417.742 209.092 416.884 208.615C416.026 208.131 415.355 207.46 414.871 206.602C414.395 205.744 414.156 204.754 414.156 203.632V198.528C414.156 197.406 414.395 196.416 414.871 195.558C415.355 194.7 416.026 194.033 416.884 193.556C417.742 193.072 418.732 192.83 419.854 192.83C420.976 192.83 421.963 193.072 422.813 193.556C423.671 194.033 424.342 194.7 424.826 195.558C425.31 196.416 425.552 197.406 425.552 198.528V203.632C425.552 204.754 425.31 205.744 424.826 206.602C424.342 207.46 423.671 208.131 422.813 208.615C421.963 209.092 420.976 209.33 419.854 209.33ZM419.854 206.811C420.412 206.811 420.918 206.679 421.372 206.415C421.827 206.144 422.186 205.784 422.45 205.337C422.714 204.882 422.846 204.376 422.846 203.819V198.33C422.846 197.765 422.714 197.259 422.45 196.812C422.186 196.357 421.827 195.998 421.372 195.734C420.918 195.463 420.412 195.327 419.854 195.327C419.297 195.327 418.791 195.463 418.336 195.734C417.882 195.998 417.522 196.357 417.258 196.812C416.994 197.259 416.862 197.765 416.862 198.33V203.819C416.862 204.376 416.994 204.882 417.258 205.337C417.522 205.784 417.882 206.144 418.336 206.415C418.791 206.679 419.297 206.811 419.854 206.811ZM434.335 209.33C433.213 209.33 432.223 209.092 431.365 208.615C430.507 208.131 429.836 207.46 429.352 206.602C428.875 205.744 428.637 204.754 428.637 203.632V198.528C428.637 197.406 428.875 196.416 429.352 195.558C429.836 194.7 430.507 194.033 431.365 193.556C432.223 193.072 433.213 192.83 434.335 192.83C435.457 192.83 436.443 193.072 437.294 193.556C438.152 194.033 438.823 194.7 439.307 195.558C439.791 196.416 440.033 197.406 440.033 198.528V203.632C440.033 204.754 439.791 205.744 439.307 206.602C438.823 207.46 438.152 208.131 437.294 208.615C436.443 209.092 435.457 209.33 434.335 209.33ZM434.335 206.811C434.892 206.811 435.398 206.679 435.853 206.415C436.307 206.144 436.667 205.784 436.931 205.337C437.195 204.882 437.327 204.376 437.327 203.819V198.33C437.327 197.765 437.195 197.259 436.931 196.812C436.667 196.357 436.307 195.998 435.853 195.734C435.398 195.463 434.892 195.327 434.335 195.327C433.777 195.327 433.271 195.463 432.817 195.734C432.362 195.998 432.003 196.357 431.739 196.812C431.475 197.259 431.343 197.765 431.343 198.33V203.819C431.343 204.376 431.475 204.882 431.739 205.337C432.003 205.784 432.362 206.144 432.817 206.415C433.271 206.679 433.777 206.811 434.335 206.811ZM451.371 209V202.51L445.981 193.16H449.072L452.713 199.474L456.343 193.16H459.434L454.055 202.51V209H451.371ZM460.971 209V193.16H471.201V195.646H463.622V199.551H469.881V202.037H463.622V206.514H471.201V209H460.971ZM472.74 209L477.734 193.16H481.617L486.611 209H483.883L479.351 194.788H479.945L475.468 209H472.74ZM475.523 205.568V203.093H483.839V205.568H475.523ZM488.6 209V193.16H495.145C495.299 193.16 495.497 193.167 495.739 193.182C495.981 193.189 496.204 193.211 496.41 193.248C497.326 193.387 498.082 193.692 498.676 194.161C499.277 194.63 499.721 195.224 500.007 195.943C500.3 196.654 500.447 197.446 500.447 198.319C500.447 199.61 500.12 200.721 499.468 201.652C498.815 202.576 497.814 203.148 496.465 203.368L495.332 203.467H491.251V209H488.6ZM497.697 209L494.573 202.554L497.268 201.96L500.7 209H497.697ZM491.251 200.992H495.035C495.181 200.992 495.346 200.985 495.53 200.97C495.713 200.955 495.882 200.926 496.036 200.882C496.476 200.772 496.82 200.578 497.07 200.299C497.326 200.02 497.506 199.705 497.609 199.353C497.719 199.001 497.774 198.656 497.774 198.319C497.774 197.982 497.719 197.637 497.609 197.285C497.506 196.926 497.326 196.607 497.07 196.328C496.82 196.049 496.476 195.855 496.036 195.745C495.882 195.701 495.713 195.675 495.53 195.668C495.346 195.653 495.181 195.646 495.035 195.646H491.251V200.992ZM508.986 209.33C507.827 209.33 506.782 209.128 505.851 208.725C504.927 208.322 504.164 207.746 503.563 206.998C502.969 206.243 502.591 205.348 502.43 204.314L505.18 203.896C505.415 204.835 505.895 205.561 506.621 206.074C507.354 206.587 508.198 206.844 509.151 206.844C509.716 206.844 510.247 206.756 510.746 206.58C511.245 206.404 511.648 206.147 511.956 205.81C512.271 205.473 512.429 205.058 512.429 204.567C512.429 204.347 512.392 204.145 512.319 203.962C512.246 203.771 512.136 203.603 511.989 203.456C511.85 203.309 511.666 203.177 511.439 203.06C511.219 202.935 510.962 202.829 510.669 202.741L506.577 201.531C506.225 201.428 505.844 201.293 505.433 201.124C505.03 200.948 504.645 200.71 504.278 200.409C503.919 200.101 503.622 199.712 503.387 199.243C503.16 198.766 503.046 198.18 503.046 197.483C503.046 196.464 503.303 195.609 503.816 194.92C504.337 194.223 505.033 193.703 505.906 193.358C506.786 193.013 507.761 192.845 508.832 192.852C509.917 192.859 510.885 193.046 511.736 193.413C512.587 193.772 513.298 194.297 513.87 194.986C514.442 195.675 514.845 196.508 515.08 197.483L512.231 197.978C512.114 197.421 511.886 196.948 511.549 196.559C511.219 196.163 510.812 195.862 510.328 195.657C509.851 195.452 509.342 195.342 508.799 195.327C508.271 195.32 507.78 195.4 507.325 195.569C506.878 195.73 506.515 195.965 506.236 196.273C505.965 196.581 505.829 196.94 505.829 197.351C505.829 197.74 505.946 198.059 506.181 198.308C506.416 198.55 506.705 198.744 507.05 198.891C507.402 199.03 507.758 199.148 508.117 199.243L510.955 200.035C511.344 200.138 511.78 200.277 512.264 200.453C512.748 200.629 513.214 200.875 513.661 201.19C514.108 201.505 514.475 201.92 514.761 202.433C515.054 202.946 515.201 203.599 515.201 204.391C515.201 205.212 515.029 205.935 514.684 206.558C514.347 207.174 513.888 207.687 513.309 208.098C512.73 208.509 512.066 208.817 511.318 209.022C510.577 209.227 509.8 209.33 508.986 209.33ZM520.453 204.699C520.453 204.193 520.501 203.705 520.596 203.236C520.699 202.759 520.864 202.319 521.091 201.916C521.289 201.527 521.509 201.219 521.751 200.992C521.993 200.757 522.264 200.526 522.565 200.299C522.866 200.064 523.199 199.753 523.566 199.364C523.867 199.034 524.065 198.708 524.16 198.385C524.255 198.055 524.303 197.703 524.303 197.329C524.303 197.087 524.277 196.86 524.226 196.647C524.175 196.434 524.083 196.251 523.951 196.097C523.746 195.826 523.482 195.635 523.159 195.525C522.836 195.408 522.492 195.349 522.125 195.349C521.824 195.349 521.535 195.389 521.256 195.47C520.985 195.543 520.754 195.661 520.563 195.822C520.343 195.998 520.182 196.214 520.079 196.471C519.976 196.728 519.929 197.01 519.936 197.318H517.142C517.215 196.585 517.413 195.906 517.736 195.283C518.066 194.652 518.499 194.15 519.034 193.776C519.452 193.468 519.921 193.237 520.442 193.083C520.97 192.929 521.498 192.852 522.026 192.852C522.833 192.852 523.592 192.977 524.303 193.226C525.022 193.475 525.619 193.886 526.096 194.458C526.426 194.832 526.675 195.265 526.844 195.756C527.02 196.247 527.108 196.746 527.108 197.252C527.108 198.007 526.943 198.697 526.613 199.32C526.29 199.943 525.88 200.519 525.381 201.047C525.146 201.296 524.923 201.516 524.71 201.707C524.497 201.898 524.299 202.085 524.116 202.268C523.94 202.444 523.793 202.631 523.676 202.829C523.471 203.174 523.35 203.467 523.313 203.709C523.276 203.944 523.258 204.274 523.258 204.699H520.453ZM520.475 209V206.085H523.258V209H520.475ZM49.7199 240L45.0889 224.16H47.8719L51.0289 235.6L54.1749 224.182L56.9579 224.16L60.1149 235.6L63.2609 224.16H66.0439L61.4239 240H58.8059L55.5609 228.736L52.3379 240H49.7199ZM67.8388 240V224.16H70.4898V230.826H77.9918V224.16H80.6318V240H77.9918V233.312H70.4898V240H67.8388ZM83.9358 240V224.16H86.5868V240H83.9358ZM96.5808 240.33C94.9968 240.33 93.6401 239.985 92.5108 239.296C91.3815 238.599 90.5125 237.631 89.9038 236.392C89.3025 235.153 89.0018 233.715 89.0018 232.08C89.0018 230.445 89.3025 229.007 89.9038 227.768C90.5125 226.529 91.3815 225.564 92.5108 224.875C93.6401 224.178 94.9968 223.83 96.5808 223.83C98.4068 223.83 99.9285 224.288 101.146 225.205C102.363 226.114 103.217 227.343 103.709 228.89L101.036 229.627C100.728 228.593 100.203 227.786 99.4628 227.207C98.7221 226.62 97.7615 226.327 96.5808 226.327C95.5175 226.327 94.6301 226.565 93.9188 227.042C93.2148 227.519 92.6831 228.19 92.3238 229.055C91.9718 229.913 91.7921 230.921 91.7848 232.08C91.7848 233.239 91.9608 234.251 92.3128 235.116C92.6721 235.974 93.2075 236.641 93.9188 237.118C94.6301 237.595 95.5175 237.833 96.5808 237.833C97.7615 237.833 98.7221 237.54 99.4628 236.953C100.203 236.366 100.728 235.56 101.036 234.533L103.709 235.27C103.217 236.817 102.363 238.049 101.146 238.966C99.9285 239.875 98.4068 240.33 96.5808 240.33ZM106.124 240V224.16H108.775V230.826H116.277V224.16H118.917V240H116.277V233.312H108.775V240H106.124ZM133.104 240.33C131.52 240.33 130.164 239.985 129.034 239.296C127.905 238.599 127.036 237.631 126.427 236.392C125.826 235.153 125.525 233.715 125.525 232.08C125.525 230.445 125.826 229.007 126.427 227.768C127.036 226.529 127.905 225.564 129.034 224.875C130.164 224.178 131.52 223.83 133.104 223.83C134.688 223.83 136.045 224.178 137.174 224.875C138.311 225.564 139.18 226.529 139.781 227.768C140.39 229.007 140.694 230.445 140.694 232.08C140.694 233.715 140.39 235.153 139.781 236.392C139.18 237.631 138.311 238.599 137.174 239.296C136.045 239.985 134.688 240.33 133.104 240.33ZM133.104 237.833C134.168 237.84 135.051 237.606 135.755 237.129C136.467 236.652 136.998 235.981 137.35 235.116C137.71 234.251 137.889 233.239 137.889 232.08C137.889 230.921 137.71 229.917 137.35 229.066C136.998 228.208 136.467 227.541 135.755 227.064C135.051 226.587 134.168 226.342 133.104 226.327C132.041 226.32 131.157 226.554 130.453 227.031C129.749 227.508 129.218 228.179 128.858 229.044C128.506 229.909 128.33 230.921 128.33 232.08C128.33 233.239 128.506 234.247 128.858 235.105C129.21 235.956 129.738 236.619 130.442 237.096C131.154 237.573 132.041 237.818 133.104 237.833ZM142.884 240V224.16H145.568L152.916 235.325V224.16H155.6V240H152.916L145.568 228.835V240H142.884ZM158.675 240V224.16H168.905V226.646H161.326V230.551H167.585V233.037H161.326V237.514H168.905V240H158.675ZM177.257 240.33C176.098 240.33 175.053 240.128 174.122 239.725C173.198 239.322 172.435 238.746 171.834 237.998C171.24 237.243 170.862 236.348 170.701 235.314L173.451 234.896C173.685 235.835 174.166 236.561 174.892 237.074C175.625 237.587 176.468 237.844 177.422 237.844C177.986 237.844 178.518 237.756 179.017 237.58C179.515 237.404 179.919 237.147 180.227 236.81C180.542 236.473 180.7 236.058 180.7 235.567C180.7 235.347 180.663 235.145 180.59 234.962C180.516 234.771 180.406 234.603 180.26 234.456C180.12 234.309 179.937 234.177 179.71 234.06C179.49 233.935 179.233 233.829 178.94 233.741L174.848 232.531C174.496 232.428 174.114 232.293 173.704 232.124C173.3 231.948 172.915 231.71 172.549 231.409C172.189 231.101 171.892 230.712 171.658 230.243C171.43 229.766 171.317 229.18 171.317 228.483C171.317 227.464 171.573 226.609 172.087 225.92C172.607 225.223 173.304 224.703 174.177 224.358C175.057 224.013 176.032 223.845 177.103 223.852C178.188 223.859 179.156 224.046 180.007 224.413C180.857 224.772 181.569 225.297 182.141 225.986C182.713 226.675 183.116 227.508 183.351 228.483L180.502 228.978C180.384 228.421 180.157 227.948 179.82 227.559C179.49 227.163 179.083 226.862 178.599 226.657C178.122 226.452 177.612 226.342 177.07 226.327C176.542 226.32 176.05 226.4 175.596 226.569C175.148 226.73 174.785 226.965 174.507 227.273C174.235 227.581 174.1 227.94 174.1 228.351C174.1 228.74 174.217 229.059 174.452 229.308C174.686 229.55 174.976 229.744 175.321 229.891C175.673 230.03 176.028 230.148 176.388 230.243L179.226 231.035C179.614 231.138 180.051 231.277 180.535 231.453C181.019 231.629 181.484 231.875 181.932 232.19C182.379 232.505 182.746 232.92 183.032 233.433C183.325 233.946 183.472 234.599 183.472 235.391C183.472 236.212 183.299 236.935 182.955 237.558C182.617 238.174 182.159 238.687 181.58 239.098C181 239.509 180.337 239.817 179.589 240.022C178.848 240.227 178.071 240.33 177.257 240.33ZM193.601 240L188.97 224.16H191.753L194.91 235.6L198.056 224.182L200.839 224.16L203.996 235.6L207.142 224.16H209.925L205.305 240H202.687L199.442 228.736L196.219 240H193.601ZM217.989 240.33C216.405 240.33 215.048 239.985 213.919 239.296C212.79 238.599 211.921 237.631 211.312 236.392C210.711 235.153 210.41 233.715 210.41 232.08C210.41 230.445 210.711 229.007 211.312 227.768C211.921 226.529 212.79 225.564 213.919 224.875C215.048 224.178 216.405 223.83 217.989 223.83C219.573 223.83 220.93 224.178 222.059 224.875C223.196 225.564 224.065 226.529 224.666 227.768C225.275 229.007 225.579 230.445 225.579 232.08C225.579 233.715 225.275 235.153 224.666 236.392C224.065 237.631 223.196 238.599 222.059 239.296C220.93 239.985 219.573 240.33 217.989 240.33ZM217.989 237.833C219.052 237.84 219.936 237.606 220.64 237.129C221.351 236.652 221.883 235.981 222.235 235.116C222.594 234.251 222.774 233.239 222.774 232.08C222.774 230.921 222.594 229.917 222.235 229.066C221.883 228.208 221.351 227.541 220.64 227.064C219.936 226.587 219.052 226.342 217.989 226.327C216.926 226.32 216.042 226.554 215.338 227.031C214.634 227.508 214.102 228.179 213.743 229.044C213.391 229.909 213.215 230.921 213.215 232.08C213.215 233.239 213.391 234.247 213.743 235.105C214.095 235.956 214.623 236.619 215.327 237.096C216.038 237.573 216.926 237.818 217.989 237.833ZM234.149 240.33C232.887 240.33 231.776 240.073 230.816 239.56C229.862 239.047 229.114 238.324 228.572 237.393C228.036 236.462 227.769 235.369 227.769 234.115V224.182L230.453 224.16V234.049C230.453 234.643 230.552 235.175 230.75 235.644C230.955 236.113 231.23 236.513 231.575 236.843C231.919 237.166 232.315 237.411 232.763 237.58C233.21 237.749 233.672 237.833 234.149 237.833C234.64 237.833 235.106 237.749 235.546 237.58C235.993 237.404 236.389 237.155 236.734 236.832C237.078 236.502 237.35 236.102 237.548 235.633C237.746 235.164 237.845 234.636 237.845 234.049V224.16H240.529V234.115C240.529 235.369 240.257 236.462 239.715 237.393C239.179 238.324 238.431 239.047 237.471 239.56C236.517 240.073 235.41 240.33 234.149 240.33ZM243.823 240V224.16H246.474V237.514H253.47V240H243.823ZM255.333 240V224.16H260.382C260.514 224.16 260.774 224.164 261.163 224.171C261.559 224.178 261.94 224.204 262.307 224.248C263.561 224.409 264.621 224.857 265.486 225.59C266.359 226.316 267.019 227.244 267.466 228.373C267.913 229.502 268.137 230.738 268.137 232.08C268.137 233.422 267.913 234.658 267.466 235.787C267.019 236.916 266.359 237.848 265.486 238.581C264.621 239.307 263.561 239.751 262.307 239.912C261.948 239.956 261.57 239.982 261.174 239.989C260.778 239.996 260.514 240 260.382 240H255.333ZM258.028 237.503H260.382C260.602 237.503 260.881 237.496 261.218 237.481C261.563 237.466 261.867 237.433 262.131 237.382C262.879 237.243 263.488 236.909 263.957 236.381C264.426 235.853 264.771 235.211 264.991 234.456C265.218 233.701 265.332 232.909 265.332 232.08C265.332 231.222 265.218 230.415 264.991 229.66C264.764 228.905 264.412 228.27 263.935 227.757C263.466 227.244 262.864 226.917 262.131 226.778C261.867 226.719 261.563 226.686 261.218 226.679C260.881 226.664 260.602 226.657 260.382 226.657H258.028V237.503ZM278.992 240V233.51L273.602 224.16H276.693L280.334 230.474L283.964 224.16H287.055L281.676 233.51V240H278.992ZM294.409 240.33C292.825 240.33 291.468 239.985 290.339 239.296C289.21 238.599 288.341 237.631 287.732 236.392C287.131 235.153 286.83 233.715 286.83 232.08C286.83 230.445 287.131 229.007 287.732 227.768C288.341 226.529 289.21 225.564 290.339 224.875C291.468 224.178 292.825 223.83 294.409 223.83C295.993 223.83 297.35 224.178 298.479 224.875C299.616 225.564 300.485 226.529 301.086 227.768C301.695 229.007 301.999 230.445 301.999 232.08C301.999 233.715 301.695 235.153 301.086 236.392C300.485 237.631 299.616 238.599 298.479 239.296C297.35 239.985 295.993 240.33 294.409 240.33ZM294.409 237.833C295.472 237.84 296.356 237.606 297.06 237.129C297.771 236.652 298.303 235.981 298.655 235.116C299.014 234.251 299.194 233.239 299.194 232.08C299.194 230.921 299.014 229.917 298.655 229.066C298.303 228.208 297.771 227.541 297.06 227.064C296.356 226.587 295.472 226.342 294.409 226.327C293.346 226.32 292.462 226.554 291.758 227.031C291.054 227.508 290.522 228.179 290.163 229.044C289.811 229.909 289.635 230.921 289.635 232.08C289.635 233.239 289.811 234.247 290.163 235.105C290.515 235.956 291.043 236.619 291.747 237.096C292.458 237.573 293.346 237.818 294.409 237.833ZM310.568 240.33C309.307 240.33 308.196 240.073 307.235 239.56C306.282 239.047 305.534 238.324 304.991 237.393C304.456 236.462 304.188 235.369 304.188 234.115V224.182L306.872 224.16V234.049C306.872 234.643 306.971 235.175 307.169 235.644C307.375 236.113 307.65 236.513 307.994 236.843C308.339 237.166 308.735 237.411 309.182 237.58C309.63 237.749 310.092 237.833 310.568 237.833C311.06 237.833 311.525 237.749 311.965 237.58C312.413 237.404 312.809 237.155 313.153 236.832C313.498 236.502 313.769 236.102 313.967 235.633C314.165 235.164 314.264 234.636 314.264 234.049V224.16H316.948V234.115C316.948 235.369 316.677 236.462 316.134 237.393C315.599 238.324 314.851 239.047 313.89 239.56C312.937 240.073 311.83 240.33 310.568 240.33ZM324.647 240V224.16H327.298V237.514H334.294V240H324.647ZM336.377 240V224.16H339.028V240H336.377ZM342.323 240V224.16H344.974V231.508L351.299 224.16H354.555L347.746 231.926L355.017 240H351.651L344.974 232.608V240H342.323ZM356.567 240V224.16H366.797V226.646H359.218V230.551H365.477V233.037H359.218V237.514H366.797V240H356.567ZM377.647 240V226.646H372.521V224.16H385.424V226.646H380.298V240H377.647ZM393.882 240.33C392.298 240.33 390.941 239.985 389.812 239.296C388.682 238.599 387.813 237.631 387.205 236.392C386.603 235.153 386.303 233.715 386.303 232.08C386.303 230.445 386.603 229.007 387.205 227.768C387.813 226.529 388.682 225.564 389.812 224.875C390.941 224.178 392.298 223.83 393.882 223.83C395.466 223.83 396.822 224.178 397.952 224.875C399.088 225.564 399.957 226.529 400.559 227.768C401.167 229.007 401.472 230.445 401.472 232.08C401.472 233.715 401.167 235.153 400.559 236.392C399.957 237.631 399.088 238.599 397.952 239.296C396.822 239.985 395.466 240.33 393.882 240.33ZM393.882 237.833C394.945 237.84 395.829 237.606 396.533 237.129C397.244 236.652 397.776 235.981 398.128 235.116C398.487 234.251 398.667 233.239 398.667 232.08C398.667 230.921 398.487 229.917 398.128 229.066C397.776 228.208 397.244 227.541 396.533 227.064C395.829 226.587 394.945 226.342 393.882 226.327C392.818 226.32 391.935 226.554 391.231 227.031C390.527 227.508 389.995 228.179 389.636 229.044C389.284 229.909 389.108 230.921 389.108 232.08C389.108 233.239 389.284 234.247 389.636 235.105C389.988 235.956 390.516 236.619 391.22 237.096C391.931 237.573 392.818 237.818 393.882 237.833ZM408.065 240V224.16H414.346C415.417 224.16 416.293 224.376 416.975 224.809C417.665 225.234 418.174 225.781 418.504 226.448C418.842 227.115 419.01 227.805 419.01 228.516C419.01 229.389 418.801 230.129 418.383 230.738C417.973 231.347 417.412 231.757 416.7 231.97V231.42C417.698 231.647 418.453 232.12 418.966 232.839C419.487 233.558 419.747 234.375 419.747 235.292C419.747 236.231 419.568 237.052 419.208 237.756C418.849 238.46 418.314 239.01 417.602 239.406C416.898 239.802 416.026 240 414.984 240H408.065ZM410.749 237.503H414.654C415.116 237.503 415.531 237.411 415.897 237.228C416.264 237.037 416.55 236.773 416.755 236.436C416.968 236.091 417.074 235.684 417.074 235.215C417.074 234.79 416.983 234.408 416.799 234.071C416.616 233.734 416.348 233.466 415.996 233.268C415.644 233.063 415.223 232.96 414.731 232.96H410.749V237.503ZM410.749 230.485H414.313C414.695 230.485 415.036 230.412 415.336 230.265C415.637 230.118 415.875 229.902 416.051 229.616C416.227 229.33 416.315 228.978 416.315 228.56C416.315 228.01 416.139 227.552 415.787 227.185C415.435 226.818 414.944 226.635 414.313 226.635H410.749V230.485ZM421.944 240V224.16H432.174V226.646H424.595V230.551H430.854V233.037H424.595V237.514H432.174V240H421.944ZM439.438 240V224.16H442.089V240H439.438ZM445.384 240V224.16H448.068L455.416 235.325V224.16H458.1V240H455.416L448.068 228.835V240H445.384ZM464.739 240L459.745 224.16H462.473L466.653 237.426L470.888 224.16H473.616L468.622 240H464.739ZM475.269 240V224.16H485.499V226.646H477.92V230.551H484.179V233.037H477.92V237.514H485.499V240H475.269ZM488.138 240V224.16H490.822L498.17 235.325V224.16H500.854V240H498.17L490.822 228.835V240H488.138ZM507.735 240V226.646H502.609V224.16H515.512V226.646H510.386V240H507.735ZM517.27 240V224.16H527.5V226.646H519.921V230.551H526.18V233.037H519.921V237.514H527.5V240H517.27ZM530.14 240V224.16H535.189C535.321 224.16 535.581 224.164 535.97 224.171C536.366 224.178 536.747 224.204 537.114 224.248C538.368 224.409 539.427 224.857 540.293 225.59C541.165 226.316 541.825 227.244 542.273 228.373C542.72 229.502 542.944 230.738 542.944 232.08C542.944 233.422 542.72 234.658 542.273 235.787C541.825 236.916 541.165 237.848 540.293 238.581C539.427 239.307 538.368 239.751 537.114 239.912C536.754 239.956 536.377 239.982 535.981 239.989C535.585 239.996 535.321 240 535.189 240H530.14ZM532.835 237.503H535.189C535.409 237.503 535.687 237.496 536.025 237.481C536.369 237.466 536.674 237.433 536.938 237.382C537.686 237.243 538.294 236.909 538.764 236.381C539.233 235.853 539.578 235.211 539.798 234.456C540.025 233.701 540.139 232.909 540.139 232.08C540.139 231.222 540.025 230.415 539.798 229.66C539.57 228.905 539.218 228.27 538.742 227.757C538.272 227.244 537.671 226.917 536.938 226.778C536.674 226.719 536.369 226.686 536.025 226.679C535.687 226.664 535.409 226.657 535.189 226.657H532.835V237.503ZM548.415 235.699C548.415 235.193 548.463 234.705 548.558 234.236C548.661 233.759 548.826 233.319 549.053 232.916C549.251 232.527 549.471 232.219 549.713 231.992C549.955 231.757 550.226 231.526 550.527 231.299C550.828 231.064 551.161 230.753 551.528 230.364C551.829 230.034 552.027 229.708 552.122 229.385C552.217 229.055 552.265 228.703 552.265 228.329C552.265 228.087 552.239 227.86 552.188 227.647C552.137 227.434 552.045 227.251 551.913 227.097C551.708 226.826 551.444 226.635 551.121 226.525C550.798 226.408 550.454 226.349 550.087 226.349C549.786 226.349 549.497 226.389 549.218 226.47C548.947 226.543 548.716 226.661 548.525 226.822C548.305 226.998 548.144 227.214 548.041 227.471C547.938 227.728 547.891 228.01 547.898 228.318H545.104C545.177 227.585 545.375 226.906 545.698 226.283C546.028 225.652 546.461 225.15 546.996 224.776C547.414 224.468 547.883 224.237 548.404 224.083C548.932 223.929 549.46 223.852 549.988 223.852C550.795 223.852 551.554 223.977 552.265 224.226C552.984 224.475 553.581 224.886 554.058 225.458C554.388 225.832 554.637 226.265 554.806 226.756C554.982 227.247 555.07 227.746 555.07 228.252C555.07 229.007 554.905 229.697 554.575 230.32C554.252 230.943 553.842 231.519 553.343 232.047C553.108 232.296 552.885 232.516 552.672 232.707C552.459 232.898 552.261 233.085 552.078 233.268C551.902 233.444 551.755 233.631 551.638 233.829C551.433 234.174 551.312 234.467 551.275 234.709C551.238 234.944 551.22 235.274 551.22 235.699H548.415ZM548.437 240V237.085H551.22V240H548.437Z" fill="white"></path> <rect x="20" y="20" width="251" height="40" rx="20" fill="white" fill-opacity="0.3"></rect> <path d="M36.4161 46V35.832H32.4881V34.48H41.7681V35.832H37.8401V46H36.4161ZM43.0419 46V34.48H50.3219V35.832H44.4659V39.44H49.3619V40.792H44.4659V44.648H50.3219V46H43.0419ZM56.5748 46.24C55.4281 46.24 54.4548 45.9867 53.6548 45.48C52.8548 44.9733 52.2441 44.2693 51.8228 43.368C51.4068 42.4667 51.1988 41.424 51.1988 40.24C51.1988 39.056 51.4068 38.0133 51.8228 37.112C52.2441 36.2107 52.8548 35.5067 53.6548 35C54.4548 34.4933 55.4281 34.24 56.5748 34.24C57.9081 34.24 59.0041 34.5787 59.8628 35.256C60.7268 35.9333 61.3214 36.8453 61.6468 37.992L60.1988 38.376C59.9641 37.5173 59.5454 36.84 58.9427 36.344C58.3401 35.848 57.5508 35.6 56.5748 35.6C55.7161 35.6 55.0014 35.7947 54.4308 36.184C53.8601 36.5733 53.4308 37.1173 53.1428 37.816C52.8548 38.5093 52.7081 39.3173 52.7028 40.24C52.6974 41.1573 52.8388 41.9653 53.1268 42.664C53.4148 43.3573 53.8468 43.9013 54.4228 44.296C54.9988 44.6853 55.7161 44.88 56.5748 44.88C57.5508 44.88 58.3401 44.632 58.9427 44.136C59.5454 43.6347 59.9641 42.9573 60.1988 42.104L61.6468 42.488C61.3214 43.6293 60.7268 44.5413 59.8628 45.224C59.0041 45.9013 57.9081 46.24 56.5748 46.24ZM63.4013 46V34.48H64.8253V39.56H70.8893V34.48H72.3133V46H70.8893V40.912H64.8253V46H63.4013ZM74.5575 46V34.48H75.9975L82.0055 43.48V34.48H83.4455V46H82.0055L75.9975 36.992V46H74.5575ZM90.4185 46.24C89.2718 46.24 88.2985 45.9867 87.4985 45.48C86.6985 44.9733 86.0878 44.2693 85.6665 43.368C85.2505 42.4667 85.0425 41.424 85.0425 40.24C85.0425 39.056 85.2505 38.0133 85.6665 37.112C86.0878 36.2107 86.6985 35.5067 87.4985 35C88.2985 34.4933 89.2718 34.24 90.4185 34.24C91.5705 34.24 92.5465 34.4933 93.3465 35C94.1465 35.5067 94.7545 36.2107 95.1705 37.112C95.5865 38.0133 95.7945 39.056 95.7945 40.24C95.7945 41.424 95.5865 42.4667 95.1705 43.368C94.7545 44.2693 94.1465 44.9733 93.3465 45.48C92.5465 45.9867 91.5705 46.24 90.4185 46.24ZM90.4185 44.88C91.2772 44.8853 91.9918 44.6933 92.5625 44.304C93.1385 43.9093 93.5678 43.3627 93.8505 42.664C94.1385 41.9653 94.2825 41.1573 94.2825 40.24C94.2825 39.3173 94.1385 38.5093 93.8505 37.816C93.5678 37.1227 93.1385 36.5813 92.5625 36.192C91.9918 35.8027 91.2772 35.6053 90.4185 35.6C89.5598 35.5947 88.8452 35.7867 88.2745 36.176C87.7092 36.5653 87.2825 37.1093 86.9945 37.808C86.7065 38.5067 86.5598 39.3173 86.5545 40.24C86.5492 41.1573 86.6905 41.9627 86.9785 42.656C87.2665 43.3493 87.6958 43.8933 88.2665 44.288C88.8425 44.6773 89.5598 44.8747 90.4185 44.88ZM97.5613 46V34.48H98.9853V44.648H104.329V46H97.5613ZM110.106 46.24C108.959 46.24 107.986 45.9867 107.186 45.48C106.386 44.9733 105.775 44.2693 105.354 43.368C104.938 42.4667 104.73 41.424 104.73 40.24C104.73 39.056 104.938 38.0133 105.354 37.112C105.775 36.2107 106.386 35.5067 107.186 35C107.986 34.4933 108.959 34.24 110.106 34.24C111.258 34.24 112.234 34.4933 113.034 35C113.834 35.5067 114.442 36.2107 114.858 37.112C115.274 38.0133 115.482 39.056 115.482 40.24C115.482 41.424 115.274 42.4667 114.858 43.368C114.442 44.2693 113.834 44.9733 113.034 45.48C112.234 45.9867 111.258 46.24 110.106 46.24ZM110.106 44.88C110.965 44.8853 111.679 44.6933 112.25 44.304C112.826 43.9093 113.255 43.3627 113.538 42.664C113.826 41.9653 113.97 41.1573 113.97 40.24C113.97 39.3173 113.826 38.5093 113.538 37.816C113.255 37.1227 112.826 36.5813 112.25 36.192C111.679 35.8027 110.965 35.6053 110.106 35.6C109.247 35.5947 108.533 35.7867 107.962 36.176C107.397 36.5653 106.97 37.1093 106.682 37.808C106.394 38.5067 106.247 39.3173 106.242 40.24C106.237 41.1573 106.378 41.9627 106.666 42.656C106.954 43.3493 107.383 43.8933 107.954 44.288C108.53 44.6773 109.247 44.8747 110.106 44.88ZM121.753 46.24C120.963 46.24 120.243 46.1013 119.593 45.824C118.942 45.5467 118.382 45.1493 117.913 44.632C117.443 44.1093 117.081 43.48 116.825 42.744C116.574 42.0027 116.449 41.168 116.449 40.24C116.449 39.0133 116.667 37.952 117.105 37.056C117.542 36.16 118.158 35.4693 118.953 34.984C119.747 34.4933 120.681 34.248 121.753 34.248C123.043 34.248 124.083 34.5493 124.873 35.152C125.662 35.7493 126.206 36.568 126.505 37.608L125.065 37.904C124.825 37.2053 124.43 36.648 123.881 36.232C123.331 35.816 122.646 35.608 121.825 35.608C120.966 35.6027 120.251 35.7947 119.681 36.184C119.115 36.568 118.689 37.1093 118.401 37.808C118.113 38.5067 117.966 39.3173 117.961 40.24C117.955 41.1573 118.097 41.9627 118.385 42.656C118.673 43.3493 119.102 43.8933 119.673 44.288C120.249 44.6773 120.966 44.8747 121.825 44.88C122.566 44.8853 123.19 44.744 123.697 44.456C124.203 44.168 124.595 43.752 124.873 43.208C125.15 42.664 125.318 42.0107 125.377 41.248H122.929V40.072H126.881C126.897 40.1787 126.905 40.3067 126.905 40.456C126.91 40.6 126.913 40.6987 126.913 40.752C126.913 41.8027 126.715 42.744 126.321 43.576C125.931 44.4027 125.353 45.0533 124.585 45.528C123.822 46.0027 122.878 46.24 121.753 46.24ZM130.786 46V41.208L126.906 34.48H128.562L131.506 39.576L134.442 34.48H136.098L132.226 41.208V46H130.786ZM143.52 46.24C142.88 46.24 142.283 46.1467 141.728 45.96C141.174 45.7733 140.71 45.48 140.336 45.08C140.048 44.76 139.832 44.408 139.688 44.024C139.55 43.6347 139.472 43.224 139.456 42.792C139.456 42.3707 139.518 41.96 139.64 41.56C139.763 41.1547 139.958 40.7947 140.224 40.48C140.363 40.3093 140.518 40.1653 140.688 40.048C140.864 39.9253 141.04 39.8213 141.216 39.736C140.848 39.3413 140.566 38.9707 140.368 38.624C140.176 38.2773 140.08 37.8587 140.08 37.368C140.08 36.744 140.24 36.1813 140.56 35.68C140.886 35.1733 141.328 34.8027 141.888 34.568C142.16 34.4507 142.438 34.3707 142.72 34.328C143.008 34.28 143.288 34.256 143.56 34.256C144.019 34.256 144.464 34.32 144.896 34.448C145.328 34.576 145.696 34.784 146 35.072C146.203 35.2427 146.376 35.44 146.52 35.664C146.664 35.8827 146.776 36.112 146.856 36.352L145.464 36.712C145.363 36.44 145.195 36.2107 144.96 36.024C144.774 35.864 144.555 35.7547 144.304 35.696C144.059 35.6373 143.811 35.608 143.56 35.608C143.144 35.608 142.768 35.688 142.432 35.848C142.134 35.992 141.91 36.1947 141.76 36.456C141.611 36.712 141.536 37.016 141.536 37.368C141.536 37.672 141.587 37.9227 141.688 38.12C141.795 38.312 141.942 38.5173 142.128 38.736C142.24 38.8533 142.366 38.9787 142.504 39.112C142.648 39.24 142.795 39.3733 142.944 39.512L146.336 42.664C146.352 42.5307 146.363 42.3947 146.368 42.256C146.374 42.1173 146.376 41.984 146.376 41.856L146.368 40.264H147.672V42.136C147.672 42.5147 147.659 42.8373 147.632 43.104C147.611 43.3707 147.574 43.592 147.52 43.768L148.984 45.12L148.056 46.112L146.84 44.96C146.632 45.1947 146.384 45.4 146.096 45.576C145.808 45.752 145.52 45.8853 145.232 45.976C144.96 46.0773 144.68 46.1467 144.392 46.184C144.104 46.2213 143.814 46.24 143.52 46.24ZM143.552 44.872C143.814 44.872 144.051 44.856 144.264 44.824C144.478 44.792 144.68 44.7307 144.872 44.64C145.128 44.5173 145.326 44.4 145.464 44.288C145.603 44.176 145.718 44.072 145.808 43.976L142.296 40.76C142.104 40.824 141.923 40.9093 141.752 41.016C141.587 41.1227 141.443 41.248 141.32 41.392C141.182 41.5627 141.078 41.7627 141.008 41.992C140.944 42.2213 140.912 42.464 140.912 42.72C140.918 42.992 140.963 43.2427 141.048 43.472C141.134 43.7013 141.254 43.9067 141.408 44.088C141.643 44.36 141.96 44.56 142.36 44.688C142.76 44.8107 143.158 44.872 143.552 44.872ZM157.583 46.24C156.767 46.24 156.031 46.1013 155.375 45.824C154.724 45.5467 154.186 45.152 153.759 44.64C153.338 44.1227 153.063 43.512 152.935 42.808L154.407 42.576C154.594 43.3013 154.98 43.8693 155.567 44.28C156.159 44.6853 156.855 44.888 157.655 44.888C158.172 44.888 158.639 44.808 159.055 44.648C159.476 44.4827 159.81 44.248 160.055 43.944C160.3 43.64 160.423 43.28 160.423 42.864C160.423 42.608 160.378 42.3893 160.287 42.208C160.202 42.0213 160.082 41.864 159.927 41.736C159.778 41.6027 159.607 41.4907 159.415 41.4C159.223 41.3093 159.023 41.2347 158.815 41.176L155.879 40.304C155.559 40.208 155.25 40.088 154.951 39.944C154.652 39.7947 154.386 39.6107 154.151 39.392C153.916 39.168 153.73 38.9013 153.591 38.592C153.452 38.2773 153.383 37.9067 153.383 37.48C153.383 36.7973 153.559 36.216 153.911 35.736C154.268 35.2507 154.751 34.88 155.359 34.624C155.967 34.368 156.652 34.2427 157.415 34.248C158.188 34.2533 158.879 34.392 159.487 34.664C160.1 34.9307 160.607 35.3147 161.007 35.816C161.412 36.3173 161.684 36.9173 161.823 37.616L160.311 37.88C160.231 37.4107 160.052 37.008 159.775 36.672C159.503 36.3307 159.162 36.0693 158.751 35.888C158.34 35.7013 157.89 35.6053 157.399 35.6C156.93 35.5947 156.506 35.6693 156.127 35.824C155.748 35.9787 155.447 36.1947 155.223 36.472C154.999 36.744 154.887 37.0587 154.887 37.416C154.887 37.768 154.988 38.0533 155.191 38.272C155.394 38.4853 155.642 38.656 155.935 38.784C156.234 38.9067 156.524 39.008 156.807 39.088L158.999 39.72C159.25 39.7893 159.538 39.8853 159.863 40.008C160.194 40.1307 160.514 40.304 160.823 40.528C161.132 40.7467 161.388 41.04 161.591 41.408C161.794 41.7707 161.895 42.2293 161.895 42.784C161.895 43.3387 161.783 43.832 161.559 44.264C161.34 44.696 161.034 45.0587 160.639 45.352C160.244 45.64 159.786 45.8587 159.263 46.008C158.74 46.1627 158.18 46.24 157.583 46.24ZM168.309 46.24C167.162 46.24 166.189 45.9867 165.389 45.48C164.589 44.9733 163.978 44.2693 163.557 43.368C163.141 42.4667 162.933 41.424 162.933 40.24C162.933 39.056 163.141 38.0133 163.557 37.112C163.978 36.2107 164.589 35.5067 165.389 35C166.189 34.4933 167.162 34.24 168.309 34.24C169.461 34.24 170.437 34.4933 171.237 35C172.037 35.5067 172.645 36.2107 173.061 37.112C173.477 38.0133 173.685 39.056 173.685 40.24C173.685 41.424 173.477 42.4667 173.061 43.368C172.645 44.2693 172.037 44.9733 171.237 45.48C170.437 45.9867 169.461 46.24 168.309 46.24ZM168.309 44.88C169.168 44.8853 169.882 44.6933 170.453 44.304C171.029 43.9093 171.458 43.3627 171.741 42.664C172.029 41.9653 172.173 41.1573 172.173 40.24C172.173 39.3173 172.029 38.5093 171.741 37.816C171.458 37.1227 171.029 36.5813 170.453 36.192C169.882 35.8027 169.168 35.6053 168.309 35.6C167.45 35.5947 166.736 35.7867 166.165 36.176C165.6 36.5653 165.173 37.1093 164.885 37.808C164.597 38.5067 164.45 39.3173 164.445 40.24C164.44 41.1573 164.581 41.9627 164.869 42.656C165.157 43.3493 165.586 43.8933 166.157 44.288C166.733 44.6773 167.45 44.8747 168.309 44.88ZM180.028 46.24C178.881 46.24 177.908 45.9867 177.108 45.48C176.308 44.9733 175.697 44.2693 175.276 43.368C174.86 42.4667 174.652 41.424 174.652 40.24C174.652 39.056 174.86 38.0133 175.276 37.112C175.697 36.2107 176.308 35.5067 177.108 35C177.908 34.4933 178.881 34.24 180.028 34.24C181.361 34.24 182.457 34.5787 183.316 35.256C184.18 35.9333 184.775 36.8453 185.1 37.992L183.652 38.376C183.417 37.5173 182.999 36.84 182.396 36.344C181.793 35.848 181.004 35.6 180.028 35.6C179.169 35.6 178.455 35.7947 177.884 36.184C177.313 36.5733 176.884 37.1173 176.596 37.816C176.308 38.5093 176.161 39.3173 176.156 40.24C176.151 41.1573 176.292 41.9653 176.58 42.664C176.868 43.3573 177.3 43.9013 177.876 44.296C178.452 44.6853 179.169 44.88 180.028 44.88C181.004 44.88 181.793 44.632 182.396 44.136C182.999 43.6347 183.417 42.9573 183.652 42.104L185.1 42.488C184.775 43.6293 184.18 44.5413 183.316 45.224C182.457 45.9013 181.361 46.24 180.028 46.24ZM187.014 46V34.48H188.438V46H187.014ZM190.039 46L193.895 34.48H195.879L199.735 46H198.255L194.647 35.312H195.095L191.519 46H190.039ZM191.895 43.304V41.968H197.879V43.304H191.895ZM201.327 46V34.48H202.751V44.648H208.095V46H201.327ZM211.854 46V34.48H213.15L217.502 43.656L221.83 34.48H223.142V45.992H221.79V37.608L217.878 46H217.118L213.206 37.608V46H211.854ZM225.386 46V34.48H232.666V35.832H226.81V39.44H231.706V40.792H226.81V44.648H232.666V46H225.386ZM234.589 46V34.48H238.141C238.258 34.48 238.463 34.4827 238.757 34.488C239.05 34.4933 239.33 34.5147 239.597 34.552C240.487 34.6693 241.231 34.9947 241.829 35.528C242.431 36.056 242.885 36.728 243.189 37.544C243.493 38.36 243.645 39.2587 243.645 40.24C243.645 41.2213 243.493 42.12 243.189 42.936C242.885 43.752 242.431 44.4267 241.829 44.96C241.231 45.488 240.487 45.8107 239.597 45.928C239.33 45.96 239.047 45.9813 238.749 45.992C238.455 45.9973 238.253 46 238.141 46H234.589ZM236.053 44.64H238.141C238.343 44.64 238.57 44.6347 238.821 44.624C239.071 44.608 239.29 44.584 239.477 44.552C240.106 44.4347 240.615 44.1707 241.005 43.76C241.394 43.3493 241.679 42.8373 241.861 42.224C242.042 41.6107 242.133 40.9493 242.133 40.24C242.133 39.5147 242.039 38.8453 241.853 38.232C241.671 37.6187 241.386 37.1093 240.997 36.704C240.607 36.2987 240.101 36.04 239.477 35.928C239.29 35.8907 239.069 35.8667 238.813 35.856C238.557 35.8453 238.333 35.84 238.141 35.84H236.053V44.64ZM245.639 46V34.48H247.063V46H245.639ZM248.664 46L252.52 34.48H254.504L258.36 46H256.88L253.272 35.312H253.72L250.144 46H248.664ZM250.52 43.304V41.968H256.504V43.304H250.52Z" fill="white"></path> <defs> <linearGradient id="paint0_linear_160_291" x1="300" y1="0" x2="300" y2="400" gradientUnits="userSpaceOnUse"> <stop stop-color="#9D50BB"></stop> <stop offset="1" stop-color="#6E48AA"></stop> </linearGradient> </defs> </svg> 