<?xml version="1.0" encoding="UTF-8"?> <svg xmlns="http://www.w3.org/2000/svg" width="600" height="400" viewBox="0 0 600 400" fill="none"> <rect width="600" height="400" rx="20" fill="url(#paint0_linear_139_409)"></rect> <path d="M78.9455 208V192.16H81.5965V205.514H88.5925V208H78.9455ZM90.676 208V192.16H93.327V208H90.676ZM100.186 208L95.192 192.16H97.92L102.1 205.426L106.335 192.16H109.063L104.069 208H100.186ZM110.716 208V192.16H120.946V194.646H113.367V198.551H119.626V201.037H113.367V205.514H120.946V208H110.716ZM128.209 208V192.16H130.86V208H128.209ZM137.961 208V194.646H132.835V192.16H145.738V194.646H140.612V208H137.961ZM157.615 208.33C156.354 208.33 155.243 208.073 154.282 207.56C153.329 207.047 152.581 206.324 152.038 205.393C151.503 204.462 151.235 203.369 151.235 202.115V192.182L153.919 192.16V202.049C153.919 202.643 154.018 203.175 154.216 203.644C154.422 204.113 154.697 204.513 155.041 204.843C155.386 205.166 155.782 205.411 156.229 205.58C156.677 205.749 157.139 205.833 157.615 205.833C158.107 205.833 158.572 205.749 159.012 205.58C159.46 205.404 159.856 205.155 160.2 204.832C160.545 204.502 160.816 204.102 161.014 203.633C161.212 203.164 161.311 202.636 161.311 202.049V192.16H163.995V202.115C163.995 203.369 163.724 204.462 163.181 205.393C162.646 206.324 161.898 207.047 160.937 207.56C159.984 208.073 158.877 208.33 157.615 208.33ZM167.069 208V192.16H173.614C173.768 192.16 173.966 192.167 174.208 192.182C174.45 192.189 174.674 192.211 174.879 192.248C175.796 192.387 176.551 192.692 177.145 193.161C177.747 193.63 178.19 194.224 178.476 194.943C178.77 195.654 178.916 196.446 178.916 197.319C178.916 198.184 178.77 198.976 178.476 199.695C178.183 200.406 177.736 200.997 177.134 201.466C176.54 201.935 175.789 202.24 174.879 202.379C174.674 202.408 174.447 202.43 174.197 202.445C173.955 202.46 173.761 202.467 173.614 202.467H169.72V208H167.069ZM169.72 199.992H173.504C173.651 199.992 173.816 199.985 173.999 199.97C174.183 199.955 174.351 199.926 174.505 199.882C174.945 199.772 175.29 199.578 175.539 199.299C175.796 199.02 175.976 198.705 176.078 198.353C176.188 198.001 176.243 197.656 176.243 197.319C176.243 196.982 176.188 196.637 176.078 196.285C175.976 195.926 175.796 195.607 175.539 195.328C175.29 195.049 174.945 194.855 174.505 194.745C174.351 194.701 174.183 194.675 173.999 194.668C173.816 194.653 173.651 194.646 173.504 194.646H169.72V199.992ZM185.304 202.104V200.025H191.904V202.104H185.304ZM202.511 208L197.88 192.16H200.663L203.82 203.6L206.966 192.182L209.749 192.16L212.906 203.6L216.052 192.16H218.835L214.215 208H211.597L208.352 196.736L205.129 208H202.511ZM220.63 208V192.16H223.281V198.826H230.783V192.16H233.423V208H230.783V201.312H223.281V208H220.63ZM235.407 208L240.401 192.16H244.284L249.278 208H246.55L242.018 193.788H242.612L238.135 208H235.407ZM238.19 204.568V202.093H246.506V204.568H238.19ZM253.762 208V194.646H248.636V192.16H261.539V194.646H256.413V208H253.762ZM267.036 208V192.16H272.085C272.217 192.16 272.477 192.164 272.866 192.171C273.262 192.178 273.643 192.204 274.01 192.248C275.264 192.409 276.324 192.857 277.189 193.59C278.062 194.316 278.722 195.244 279.169 196.373C279.616 197.502 279.84 198.738 279.84 200.08C279.84 201.422 279.616 202.658 279.169 203.787C278.722 204.916 278.062 205.848 277.189 206.581C276.324 207.307 275.264 207.751 274.01 207.912C273.651 207.956 273.273 207.982 272.877 207.989C272.481 207.996 272.217 208 272.085 208H267.036ZM269.731 205.503H272.085C272.305 205.503 272.584 205.496 272.921 205.481C273.266 205.466 273.57 205.433 273.834 205.382C274.582 205.243 275.191 204.909 275.66 204.381C276.129 203.853 276.474 203.211 276.694 202.456C276.921 201.701 277.035 200.909 277.035 200.08C277.035 199.222 276.921 198.415 276.694 197.66C276.467 196.905 276.115 196.27 275.638 195.757C275.169 195.244 274.567 194.917 273.834 194.778C273.57 194.719 273.266 194.686 272.921 194.679C272.584 194.664 272.305 194.657 272.085 194.657H269.731V205.503ZM289.139 208.33C287.555 208.33 286.199 207.985 285.069 207.296C283.94 206.599 283.071 205.631 282.462 204.392C281.861 203.153 281.56 201.715 281.56 200.08C281.56 198.445 281.861 197.007 282.462 195.768C283.071 194.529 283.94 193.564 285.069 192.875C286.199 192.178 287.555 191.83 289.139 191.83C290.723 191.83 292.08 192.178 293.209 192.875C294.346 193.564 295.215 194.529 295.816 195.768C296.425 197.007 296.729 198.445 296.729 200.08C296.729 201.715 296.425 203.153 295.816 204.392C295.215 205.631 294.346 206.599 293.209 207.296C292.08 207.985 290.723 208.33 289.139 208.33ZM289.139 205.833C290.203 205.84 291.086 205.606 291.79 205.129C292.502 204.652 293.033 203.981 293.385 203.116C293.745 202.251 293.924 201.239 293.924 200.08C293.924 198.921 293.745 197.917 293.385 197.066C293.033 196.208 292.502 195.541 291.79 195.064C291.086 194.587 290.203 194.342 289.139 194.327C288.076 194.32 287.192 194.554 286.488 195.031C285.784 195.508 285.253 196.179 284.893 197.044C284.541 197.909 284.365 198.921 284.365 200.08C284.365 201.239 284.541 202.247 284.893 203.105C285.245 203.956 285.773 204.619 286.477 205.096C287.189 205.573 288.076 205.818 289.139 205.833ZM298.919 208V192.16H309.149V194.646H301.57V198.551H307.829V201.037H301.57V205.514H309.149V208H298.919ZM317.501 208.33C316.342 208.33 315.297 208.128 314.366 207.725C313.442 207.322 312.679 206.746 312.078 205.998C311.484 205.243 311.106 204.348 310.945 203.314L313.695 202.896C313.929 203.835 314.41 204.561 315.136 205.074C315.869 205.587 316.712 205.844 317.666 205.844C318.23 205.844 318.762 205.756 319.261 205.58C319.759 205.404 320.163 205.147 320.471 204.81C320.786 204.473 320.944 204.058 320.944 203.567C320.944 203.347 320.907 203.145 320.834 202.962C320.76 202.771 320.65 202.603 320.504 202.456C320.364 202.309 320.181 202.177 319.954 202.06C319.734 201.935 319.477 201.829 319.184 201.741L315.092 200.531C314.74 200.428 314.358 200.293 313.948 200.124C313.544 199.948 313.159 199.71 312.793 199.409C312.433 199.101 312.136 198.712 311.902 198.243C311.674 197.766 311.561 197.18 311.561 196.483C311.561 195.464 311.817 194.609 312.331 193.92C312.851 193.223 313.548 192.703 314.421 192.358C315.301 192.013 316.276 191.845 317.347 191.852C318.432 191.859 319.4 192.046 320.251 192.413C321.101 192.772 321.813 193.297 322.385 193.986C322.957 194.675 323.36 195.508 323.595 196.483L320.746 196.978C320.628 196.421 320.401 195.948 320.064 195.559C319.734 195.163 319.327 194.862 318.843 194.657C318.366 194.452 317.856 194.342 317.314 194.327C316.786 194.32 316.294 194.4 315.84 194.569C315.392 194.73 315.029 194.965 314.751 195.273C314.479 195.581 314.344 195.94 314.344 196.351C314.344 196.74 314.461 197.059 314.696 197.308C314.93 197.55 315.22 197.744 315.565 197.891C315.917 198.03 316.272 198.148 316.632 198.243L319.47 199.035C319.858 199.138 320.295 199.277 320.779 199.453C321.263 199.629 321.728 199.875 322.176 200.19C322.623 200.505 322.99 200.92 323.276 201.433C323.569 201.946 323.716 202.599 323.716 203.391C323.716 204.212 323.543 204.935 323.199 205.558C322.861 206.174 322.403 206.687 321.824 207.098C321.244 207.509 320.581 207.817 319.833 208.022C319.092 208.227 318.315 208.33 317.501 208.33ZM330.721 208V192.16H333.372V208H330.721ZM340.473 208V194.646H335.347V192.16H348.25V194.646H343.124V208H340.473ZM353.747 208V192.16H356.134L361.612 203.38L367.09 192.16H369.477V208H367.002V197.847L362.14 208H361.084L356.233 197.847V208H353.747ZM372.567 208V192.16H382.797V194.646H375.218V198.551H381.477V201.037H375.218V205.514H382.797V208H372.567ZM384.336 208L389.33 192.16H393.213L398.207 208H395.479L390.947 193.788H391.541L387.064 208H384.336ZM387.119 204.568V202.093H395.435V204.568H387.119ZM400.196 208V192.16H402.88L410.228 203.325V192.16H412.912V208H410.228L402.88 196.835V208H400.196ZM420.392 208V192.16H429.929V194.811H423.043V198.76H428.609V201.4H423.043V208H420.392ZM438.606 208.33C437.022 208.33 435.666 207.985 434.536 207.296C433.407 206.599 432.538 205.631 431.929 204.392C431.328 203.153 431.027 201.715 431.027 200.08C431.027 198.445 431.328 197.007 431.929 195.768C432.538 194.529 433.407 193.564 434.536 192.875C435.666 192.178 437.022 191.83 438.606 191.83C440.19 191.83 441.547 192.178 442.676 192.875C443.813 193.564 444.682 194.529 445.283 195.768C445.892 197.007 446.196 198.445 446.196 200.08C446.196 201.715 445.892 203.153 445.283 204.392C444.682 205.631 443.813 206.599 442.676 207.296C441.547 207.985 440.19 208.33 438.606 208.33ZM438.606 205.833C439.67 205.84 440.553 205.606 441.257 205.129C441.969 204.652 442.5 203.981 442.852 203.116C443.212 202.251 443.391 201.239 443.391 200.08C443.391 198.921 443.212 197.917 442.852 197.066C442.5 196.208 441.969 195.541 441.257 195.064C440.553 194.587 439.67 194.342 438.606 194.327C437.543 194.32 436.659 194.554 435.955 195.031C435.251 195.508 434.72 196.179 434.36 197.044C434.008 197.909 433.832 198.921 433.832 200.08C433.832 201.239 434.008 202.247 434.36 203.105C434.712 203.956 435.24 204.619 435.944 205.096C436.656 205.573 437.543 205.818 438.606 205.833ZM448.386 208V192.16H454.931C455.085 192.16 455.283 192.167 455.525 192.182C455.767 192.189 455.99 192.211 456.196 192.248C457.112 192.387 457.868 192.692 458.462 193.161C459.063 193.63 459.507 194.224 459.793 194.943C460.086 195.654 460.233 196.446 460.233 197.319C460.233 198.61 459.906 199.721 459.254 200.652C458.601 201.576 457.6 202.148 456.251 202.368L455.118 202.467H451.037V208H448.386ZM457.483 208L454.359 201.554L457.054 200.96L460.486 208H457.483ZM451.037 199.992H454.821C454.967 199.992 455.132 199.985 455.316 199.97C455.499 199.955 455.668 199.926 455.822 199.882C456.262 199.772 456.606 199.578 456.856 199.299C457.112 199.02 457.292 198.705 457.395 198.353C457.505 198.001 457.56 197.656 457.56 197.319C457.56 196.982 457.505 196.637 457.395 196.285C457.292 195.926 457.112 195.607 456.856 195.328C456.606 195.049 456.262 194.855 455.822 194.745C455.668 194.701 455.499 194.675 455.316 194.668C455.132 194.653 454.967 194.646 454.821 194.646H451.037V199.992ZM471.163 208V201.51L465.773 192.16H468.864L472.505 198.474L476.135 192.16H479.226L473.847 201.51V208H471.163ZM486.581 208.33C484.997 208.33 483.64 207.985 482.511 207.296C481.381 206.599 480.512 205.631 479.904 204.392C479.302 203.153 479.002 201.715 479.002 200.08C479.002 198.445 479.302 197.007 479.904 195.768C480.512 194.529 481.381 193.564 482.511 192.875C483.64 192.178 484.997 191.83 486.581 191.83C488.165 191.83 489.521 192.178 490.651 192.875C491.787 193.564 492.656 194.529 493.258 195.768C493.866 197.007 494.171 198.445 494.171 200.08C494.171 201.715 493.866 203.153 493.258 204.392C492.656 205.631 491.787 206.599 490.651 207.296C489.521 207.985 488.165 208.33 486.581 208.33ZM486.581 205.833C487.644 205.84 488.528 205.606 489.232 205.129C489.943 204.652 490.475 203.981 490.827 203.116C491.186 202.251 491.366 201.239 491.366 200.08C491.366 198.921 491.186 197.917 490.827 197.066C490.475 196.208 489.943 195.541 489.232 195.064C488.528 194.587 487.644 194.342 486.581 194.327C485.517 194.32 484.634 194.554 483.93 195.031C483.226 195.508 482.694 196.179 482.335 197.044C481.983 197.909 481.807 198.921 481.807 200.08C481.807 201.239 481.983 202.247 482.335 203.105C482.687 203.956 483.215 204.619 483.919 205.096C484.63 205.573 485.517 205.818 486.581 205.833ZM502.74 208.33C501.479 208.33 500.368 208.073 499.407 207.56C498.454 207.047 497.706 206.324 497.163 205.393C496.628 204.462 496.36 203.369 496.36 202.115V192.182L499.044 192.16V202.049C499.044 202.643 499.143 203.175 499.341 203.644C499.547 204.113 499.822 204.513 500.166 204.843C500.511 205.166 500.907 205.411 501.354 205.58C501.802 205.749 502.264 205.833 502.74 205.833C503.232 205.833 503.697 205.749 504.137 205.58C504.585 205.404 504.981 205.155 505.325 204.832C505.67 204.502 505.941 204.102 506.139 203.633C506.337 203.164 506.436 202.636 506.436 202.049V192.16H509.12V202.115C509.12 203.369 508.849 204.462 508.306 205.393C507.771 206.324 507.023 207.047 506.062 207.56C505.109 208.073 504.002 208.33 502.74 208.33ZM515.065 203.699C515.065 203.193 515.113 202.705 515.208 202.236C515.311 201.759 515.476 201.319 515.703 200.916C515.901 200.527 516.121 200.219 516.363 199.992C516.605 199.757 516.877 199.526 517.177 199.299C517.478 199.064 517.812 198.753 518.178 198.364C518.479 198.034 518.677 197.708 518.772 197.385C518.868 197.055 518.915 196.703 518.915 196.329C518.915 196.087 518.89 195.86 518.838 195.647C518.787 195.434 518.695 195.251 518.563 195.097C518.358 194.826 518.094 194.635 517.771 194.525C517.449 194.408 517.104 194.349 516.737 194.349C516.437 194.349 516.147 194.389 515.868 194.47C515.597 194.543 515.366 194.661 515.175 194.822C514.955 194.998 514.794 195.214 514.691 195.471C514.589 195.728 514.541 196.01 514.548 196.318H511.754C511.828 195.585 512.026 194.906 512.348 194.283C512.678 193.652 513.111 193.15 513.646 192.776C514.064 192.468 514.534 192.237 515.054 192.083C515.582 191.929 516.11 191.852 516.638 191.852C517.445 191.852 518.204 191.977 518.915 192.226C519.634 192.475 520.232 192.886 520.708 193.458C521.038 193.832 521.288 194.265 521.456 194.756C521.632 195.247 521.72 195.746 521.72 196.252C521.72 197.007 521.555 197.697 521.225 198.32C520.903 198.943 520.492 199.519 519.993 200.047C519.759 200.296 519.535 200.516 519.322 200.707C519.11 200.898 518.912 201.085 518.728 201.268C518.552 201.444 518.406 201.631 518.288 201.829C518.083 202.174 517.962 202.467 517.925 202.709C517.889 202.944 517.87 203.274 517.87 203.699H515.065ZM515.087 208V205.085H517.87V208H515.087Z" fill="white"></path> <rect x="20" y="20" width="222" height="40" rx="20" fill="white" fill-opacity="0.3"></rect> <path d="M38.3482 46.24C37.2015 46.24 36.2282 45.9867 35.4282 45.48C34.6282 44.9733 34.0175 44.2693 33.5962 43.368C33.1802 42.4667 32.9722 41.424 32.9722 40.24C32.9722 39.056 33.1802 38.0133 33.5962 37.112C34.0175 36.2107 34.6282 35.5067 35.4282 35C36.2282 34.4933 37.2015 34.24 38.3482 34.24C39.6815 34.24 40.7775 34.5787 41.6362 35.256C42.5002 35.9333 43.0949 36.8453 43.4202 37.992L41.9722 38.376C41.7375 37.5173 41.3189 36.84 40.7162 36.344C40.1135 35.848 39.3242 35.6 38.3482 35.6C37.4895 35.6 36.7749 35.7947 36.2042 36.184C35.6335 36.5733 35.2042 37.1173 34.9162 37.816C34.6282 38.5093 34.4815 39.3173 34.4762 40.24C34.4709 41.1573 34.6122 41.9653 34.9002 42.664C35.1882 43.3573 35.6202 43.9013 36.1962 44.296C36.7722 44.6853 37.4895 44.88 38.3482 44.88C39.3242 44.88 40.1135 44.632 40.7162 44.136C41.3189 43.6347 41.7375 42.9573 41.9722 42.104L43.4202 42.488C43.0949 43.6293 42.5002 44.5413 41.6362 45.224C40.7775 45.9013 39.6815 46.24 38.3482 46.24ZM45.1747 46V34.48H46.5987V39.56H52.6627V34.48H54.0867V46H52.6627V40.912H46.5987V46H45.1747ZM56.4909 46V34.48H57.9149V46H56.4909ZM60.4753 46V34.48H61.8993V44.648H67.2433V46H60.4753ZM68.7566 46V34.48H70.1806V44.648H75.5246V46H68.7566ZM83.0281 46.24C82.3881 46.24 81.7907 46.1467 81.2361 45.96C80.6814 45.7733 80.2174 45.48 79.8441 45.08C79.5561 44.76 79.3401 44.408 79.1961 44.024C79.0574 43.6347 78.9801 43.224 78.9641 42.792C78.9641 42.3707 79.0254 41.96 79.1481 41.56C79.2707 41.1547 79.4654 40.7947 79.7321 40.48C79.8707 40.3093 80.0254 40.1653 80.1961 40.048C80.3721 39.9253 80.5481 39.8213 80.7241 39.736C80.3561 39.3413 80.0734 38.9707 79.8761 38.624C79.6841 38.2773 79.5881 37.8587 79.5881 37.368C79.5881 36.744 79.7481 36.1813 80.0681 35.68C80.3934 35.1733 80.8361 34.8027 81.3961 34.568C81.6681 34.4507 81.9454 34.3707 82.2281 34.328C82.5161 34.28 82.7961 34.256 83.0681 34.256C83.5267 34.256 83.9721 34.32 84.4041 34.448C84.8361 34.576 85.2041 34.784 85.5081 35.072C85.7107 35.2427 85.8841 35.44 86.0281 35.664C86.1721 35.8827 86.2841 36.112 86.3641 36.352L84.9721 36.712C84.8707 36.44 84.7027 36.2107 84.4681 36.024C84.2814 35.864 84.0627 35.7547 83.8121 35.696C83.5667 35.6373 83.3187 35.608 83.0681 35.608C82.6521 35.608 82.2761 35.688 81.9401 35.848C81.6414 35.992 81.4174 36.1947 81.2681 36.456C81.1187 36.712 81.0441 37.016 81.0441 37.368C81.0441 37.672 81.0947 37.9227 81.1961 38.12C81.3027 38.312 81.4494 38.5173 81.6361 38.736C81.7481 38.8533 81.8734 38.9787 82.0121 39.112C82.1561 39.24 82.3027 39.3733 82.4521 39.512L85.8441 42.664C85.8601 42.5307 85.8707 42.3947 85.8761 42.256C85.8814 42.1173 85.8841 41.984 85.8841 41.856L85.8761 40.264H87.1801V42.136C87.1801 42.5147 87.1667 42.8373 87.1401 43.104C87.1187 43.3707 87.0814 43.592 87.0281 43.768L88.4921 45.12L87.5641 46.112L86.3481 44.96C86.1401 45.1947 85.8921 45.4 85.6041 45.576C85.3161 45.752 85.0281 45.8853 84.7401 45.976C84.4681 46.0773 84.1881 46.1467 83.9001 46.184C83.6121 46.2213 83.3214 46.24 83.0281 46.24ZM83.0601 44.872C83.3214 44.872 83.5587 44.856 83.7721 44.824C83.9854 44.792 84.1881 44.7307 84.3801 44.64C84.6361 44.5173 84.8334 44.4 84.9721 44.288C85.1107 44.176 85.2254 44.072 85.3161 43.976L81.8041 40.76C81.6121 40.824 81.4307 40.9093 81.2601 41.016C81.0947 41.1227 80.9507 41.248 80.8281 41.392C80.6894 41.5627 80.5854 41.7627 80.5161 41.992C80.4521 42.2213 80.4201 42.464 80.4201 42.72C80.4254 42.992 80.4707 43.2427 80.5561 43.472C80.6414 43.7013 80.7614 43.9067 80.9161 44.088C81.1507 44.36 81.4681 44.56 81.8681 44.688C82.2681 44.8107 82.6654 44.872 83.0601 44.872ZM93.0028 46V34.48H100.283V35.832H94.4268V39.44H99.3228V40.792H94.4268V44.648H100.283V46H93.0028ZM102.206 46V34.48H103.646L109.654 43.48V34.48H111.094V46H109.654L103.646 36.992V46H102.206ZM116.299 46V35.832H112.371V34.48H121.651V35.832H117.723V46H116.299ZM122.925 46V34.48H130.205V35.832H124.349V39.44H129.245V40.792H124.349V44.648H130.205V46H122.925ZM132.128 46V34.48H136.68C136.792 34.48 136.925 34.4853 137.08 34.496C137.234 34.5013 137.384 34.5173 137.528 34.544C138.152 34.64 138.674 34.8533 139.096 35.184C139.522 35.5147 139.842 35.9333 140.056 36.44C140.269 36.9413 140.376 37.4987 140.376 38.112C140.376 39.0027 140.144 39.776 139.68 40.432C139.216 41.0827 138.536 41.4907 137.64 41.656L137.096 41.744H133.552V46H132.128ZM138.984 46L136.712 41.312L138.12 40.88L140.616 46H138.984ZM133.552 40.392H136.632C136.733 40.392 136.848 40.3867 136.976 40.376C137.109 40.3653 137.234 40.3467 137.352 40.32C137.72 40.2347 138.018 40.08 138.248 39.856C138.482 39.6267 138.653 39.36 138.76 39.056C138.866 38.7467 138.92 38.432 138.92 38.112C138.92 37.792 138.866 37.48 138.76 37.176C138.653 36.8667 138.482 36.5973 138.248 36.368C138.018 36.1387 137.72 35.984 137.352 35.904C137.234 35.872 137.109 35.8533 136.976 35.848C136.848 35.8373 136.733 35.832 136.632 35.832H133.552V40.392ZM145.346 46V35.832H141.418V34.48H150.698V35.832H146.77V46H145.346ZM150.859 46L154.715 34.48H156.699L160.555 46H159.075L155.467 35.312H155.915L152.339 46H150.859ZM152.715 43.304V41.968H158.699V43.304H152.715ZM162.147 46V34.48H163.571V46H162.147ZM165.972 46V34.48H167.412L173.42 43.48V34.48H174.86V46H173.42L167.412 36.992V46H165.972ZM177.097 46V34.48H178.393L182.745 43.656L187.073 34.48H188.385V45.992H187.033V37.608L183.121 46H182.361L178.449 37.608V46H177.097ZM190.628 46V34.48H197.908V35.832H192.052V39.44H196.948V40.792H192.052V44.648H197.908V46H190.628ZM199.831 46V34.48H201.271L207.279 43.48V34.48H208.719V46H207.279L201.271 36.992V46H199.831ZM213.924 46V35.832H209.996V34.48H219.276V35.832H215.348V46H213.924ZM224.638 46.24C223.822 46.24 223.086 46.1013 222.43 45.824C221.779 45.5467 221.24 45.152 220.814 44.64C220.392 44.1227 220.118 43.512 219.99 42.808L221.462 42.576C221.648 43.3013 222.035 43.8693 222.622 44.28C223.214 44.6853 223.91 44.888 224.71 44.888C225.227 44.888 225.694 44.808 226.11 44.648C226.531 44.4827 226.864 44.248 227.11 43.944C227.355 43.64 227.478 43.28 227.478 42.864C227.478 42.608 227.432 42.3893 227.342 42.208C227.256 42.0213 227.136 41.864 226.982 41.736C226.832 41.6027 226.662 41.4907 226.47 41.4C226.278 41.3093 226.078 41.2347 225.87 41.176L222.934 40.304C222.614 40.208 222.304 40.088 222.006 39.944C221.707 39.7947 221.44 39.6107 221.206 39.392C220.971 39.168 220.784 38.9013 220.646 38.592C220.507 38.2773 220.438 37.9067 220.438 37.48C220.438 36.7973 220.614 36.216 220.966 35.736C221.323 35.2507 221.806 34.88 222.414 34.624C223.022 34.368 223.707 34.2427 224.47 34.248C225.243 34.2533 225.934 34.392 226.542 34.664C227.155 34.9307 227.662 35.3147 228.062 35.816C228.467 36.3173 228.739 36.9173 228.878 37.616L227.366 37.88C227.286 37.4107 227.107 37.008 226.83 36.672C226.558 36.3307 226.216 36.0693 225.806 35.888C225.395 35.7013 224.944 35.6053 224.454 35.6C223.984 35.5947 223.56 35.6693 223.182 35.824C222.803 35.9787 222.502 36.1947 222.278 36.472C222.054 36.744 221.942 37.0587 221.942 37.416C221.942 37.768 222.043 38.0533 222.246 38.272C222.448 38.4853 222.696 38.656 222.99 38.784C223.288 38.9067 223.579 39.008 223.862 39.088L226.054 39.72C226.304 39.7893 226.592 39.8853 226.918 40.008C227.248 40.1307 227.568 40.304 227.878 40.528C228.187 40.7467 228.443 41.04 228.646 41.408C228.848 41.7707 228.95 42.2293 228.95 42.784C228.95 43.3387 228.838 43.832 228.614 44.264C228.395 44.696 228.088 45.0587 227.694 45.352C227.299 45.64 226.84 45.8587 226.318 46.008C225.795 46.1627 225.235 46.24 224.638 46.24Z" fill="white"></path> <path d="M196.446 354V341.04H197.769V352.731H203.925V354H196.446ZM205.639 354V341.04H206.962V354H205.639ZM212.954 354L208.49 341.04H209.867L213.818 352.497L217.796 341.04H219.173L214.709 354H212.954ZM220.524 354V341.04H228.624V342.309H221.847V346.791H227.544V348.06H221.847V352.731H228.624V354H220.524ZM234.573 354V341.04H235.896V354H234.573ZM242.041 354V342.309H237.514V341.04H247.891V342.309H243.364V354H242.041ZM257.451 354.27C256.461 354.27 255.585 354.066 254.823 353.658C254.067 353.25 253.473 352.674 253.041 351.93C252.609 351.186 252.393 350.316 252.393 349.32V341.049L253.725 341.04V349.149C253.725 349.821 253.839 350.403 254.067 350.895C254.295 351.381 254.592 351.783 254.958 352.101C255.33 352.413 255.735 352.644 256.173 352.794C256.611 352.944 257.037 353.019 257.451 353.019C257.871 353.019 258.3 352.944 258.738 352.794C259.176 352.644 259.578 352.413 259.944 352.101C260.31 351.783 260.607 351.381 260.835 350.895C261.063 350.403 261.177 349.821 261.177 349.149V341.04H262.509V349.32C262.509 350.316 262.293 351.186 261.861 351.93C261.429 352.668 260.832 353.244 260.07 353.658C259.314 354.066 258.441 354.27 257.451 354.27ZM265.031 354V341.04H270.035C270.161 341.04 270.302 341.046 270.458 341.058C270.62 341.064 270.782 341.082 270.944 341.112C271.622 341.214 272.195 341.451 272.663 341.823C273.137 342.189 273.494 342.651 273.734 343.209C273.98 343.767 274.103 344.385 274.103 345.063C274.103 345.735 273.98 346.35 273.734 346.908C273.488 347.466 273.128 347.931 272.654 348.303C272.186 348.669 271.616 348.903 270.944 349.005C270.782 349.029 270.62 349.047 270.458 349.059C270.302 349.071 270.161 349.077 270.035 349.077H266.354V354H265.031ZM266.354 347.817H269.999C270.107 347.817 270.233 347.811 270.377 347.799C270.521 347.787 270.662 347.766 270.8 347.736C271.244 347.64 271.607 347.457 271.889 347.187C272.177 346.917 272.39 346.596 272.528 346.224C272.672 345.852 272.744 345.465 272.744 345.063C272.744 344.661 272.672 344.274 272.528 343.902C272.39 343.524 272.177 343.2 271.889 342.93C271.607 342.66 271.244 342.477 270.8 342.381C270.662 342.351 270.521 342.333 270.377 342.327C270.233 342.315 270.107 342.309 269.999 342.309H266.354V347.817ZM279.318 348.897V347.763H284.718V348.897H279.318ZM289.58 354L295.322 347.295L290.075 341.04H291.74L296.753 347.097V341.04H298.076V347.097L303.089 341.04H304.754L299.507 347.295L305.249 354H303.557L298.076 347.583V354H296.753V347.583L291.281 354H289.58ZM316.493 354H315.161V343.371L308.024 354H306.692V341.04H308.024V351.66L315.161 341.04H316.493V354ZM322.461 354V342.309H317.934V341.04H328.311V342.309H323.784V354H322.461ZM329.745 354V341.04H331.068V345.963H334.749C334.875 345.963 335.016 345.969 335.172 345.981C335.334 345.987 335.499 346.005 335.667 346.035C336.339 346.137 336.909 346.374 337.377 346.746C337.851 347.112 338.208 347.574 338.448 348.132C338.694 348.69 338.817 349.305 338.817 349.977C338.817 350.655 338.694 351.273 338.448 351.831C338.208 352.389 337.851 352.854 337.377 353.226C336.909 353.592 336.339 353.826 335.667 353.928C335.499 353.952 335.334 353.97 335.172 353.982C335.016 353.994 334.875 354 334.749 354H329.745ZM331.068 352.731H334.713C334.827 352.731 334.956 352.725 335.1 352.713C335.244 352.701 335.385 352.683 335.523 352.659C335.961 352.563 336.324 352.38 336.612 352.11C336.9 351.84 337.113 351.519 337.251 351.147C337.389 350.769 337.458 350.379 337.458 349.977C337.458 349.575 337.389 349.188 337.251 348.816C337.113 348.444 336.9 348.123 336.612 347.853C336.324 347.583 335.961 347.4 335.523 347.304C335.385 347.274 335.244 347.253 335.1 347.241C334.956 347.229 334.827 347.223 334.713 347.223H331.068V352.731ZM344.397 354V341.04H349.401C350.127 341.04 350.76 341.19 351.3 341.49C351.84 341.79 352.26 342.195 352.56 342.705C352.86 343.209 353.01 343.767 353.01 344.379C353.01 345.075 352.824 345.696 352.452 346.242C352.08 346.782 351.582 347.157 350.958 347.367L350.94 346.926C351.78 347.166 352.44 347.586 352.92 348.186C353.4 348.786 353.64 349.512 353.64 350.364C353.64 351.114 353.481 351.762 353.163 352.308C352.845 352.848 352.398 353.265 351.822 353.559C351.246 353.853 350.577 354 349.815 354H344.397ZM345.729 352.731H349.491C350.019 352.731 350.493 352.638 350.913 352.452C351.333 352.26 351.663 351.99 351.903 351.642C352.149 351.294 352.272 350.874 352.272 350.382C352.272 349.902 352.161 349.47 351.939 349.086C351.717 348.702 351.414 348.396 351.03 348.168C350.652 347.934 350.22 347.817 349.734 347.817H345.729V352.731ZM345.729 346.566H349.392C349.806 346.566 350.184 346.473 350.526 346.287C350.868 346.095 351.138 345.834 351.336 345.504C351.54 345.174 351.642 344.793 351.642 344.361C351.642 343.749 351.429 343.251 351.003 342.867C350.583 342.483 350.046 342.291 349.392 342.291H345.729V346.566ZM359.039 354V341.04H360.362V347.16L366.275 341.04H367.967L361.928 347.295L368.462 354H366.734L360.362 347.52V354H359.039ZM368.827 354L373.291 341.04H375.046L379.51 354H378.133L373.894 341.778H374.416L370.204 354H368.827ZM370.816 350.859V349.617H377.512V350.859H370.816ZM381.135 354V341.04H382.467V351.66L389.604 341.04H390.936V354H389.604V343.371L382.467 354H381.135ZM386.139 339.888C385.713 339.888 385.323 339.783 384.969 339.573C384.621 339.363 384.342 339.084 384.132 338.736C383.922 338.382 383.817 337.992 383.817 337.566H384.915C384.915 337.902 385.035 338.19 385.275 338.43C385.515 338.67 385.803 338.79 386.139 338.79C386.481 338.79 386.769 338.67 387.003 338.43C387.243 338.19 387.363 337.902 387.363 337.566H388.461C388.461 337.992 388.356 338.382 388.146 338.736C387.942 339.084 387.663 339.363 387.309 339.573C386.955 339.783 386.565 339.888 386.139 339.888ZM397.93 354V352.281C397.264 352.395 396.619 352.365 395.995 352.191C395.377 352.011 394.822 351.702 394.33 351.264C393.844 350.82 393.457 350.253 393.169 349.563C392.881 348.867 392.737 348.054 392.737 347.124C392.737 346.194 392.881 345.381 393.169 344.685C393.457 343.989 393.844 343.419 394.33 342.975C394.822 342.525 395.377 342.213 395.995 342.039C396.619 341.859 397.264 341.826 397.93 341.94V341.04H399.244V341.94C399.91 341.826 400.555 341.859 401.179 342.039C401.803 342.213 402.358 342.525 402.844 342.975C403.336 343.419 403.726 343.989 404.014 344.685C404.302 345.381 404.446 346.194 404.446 347.124C404.446 348.054 404.302 348.867 404.014 349.563C403.726 350.253 403.336 350.82 402.844 351.264C402.358 351.702 401.803 352.011 401.179 352.191C400.555 352.365 399.91 352.395 399.244 352.281V354H397.93ZM397.93 351.021V343.173C397.36 343.089 396.838 343.131 396.364 343.299C395.896 343.461 395.494 343.722 395.158 344.082C394.822 344.442 394.561 344.883 394.375 345.405C394.195 345.921 394.105 346.494 394.105 347.124C394.105 347.754 394.195 348.327 394.375 348.843C394.561 349.353 394.822 349.785 395.158 350.139C395.494 350.493 395.896 350.748 396.364 350.904C396.838 351.06 397.36 351.099 397.93 351.021ZM399.244 351.021C399.82 351.099 400.342 351.06 400.81 350.904C401.278 350.742 401.68 350.487 402.016 350.139C402.358 349.785 402.619 349.353 402.799 348.843C402.985 348.333 403.078 347.769 403.078 347.151C403.078 346.527 402.985 345.957 402.799 345.441C402.619 344.919 402.358 344.475 402.016 344.109C401.68 343.743 401.278 343.476 400.81 343.308C400.342 343.134 399.82 343.089 399.244 343.173V351.021Z" fill="white"></path> <defs> <linearGradient id="paint0_linear_139_409" x1="300" y1="0" x2="300" y2="400" gradientUnits="userSpaceOnUse"> <stop stop-color="#FF9A8B"></stop> <stop offset="1" stop-color="#6148AA"></stop> </linearGradient> </defs> </svg> 