<?xml version="1.0" encoding="UTF-8"?> <svg xmlns="http://www.w3.org/2000/svg" width="600" height="400" viewBox="0 0 600 400" fill="none"> <rect width="600" height="400" rx="20" fill="url(#paint0_linear_160_210)"></rect> <path d="M106.72 178V162.16H111.769C111.901 162.16 112.161 162.164 112.55 162.171C112.946 162.178 113.327 162.204 113.694 162.248C114.948 162.409 116.007 162.857 116.873 163.59C117.745 164.316 118.405 165.244 118.853 166.373C119.3 167.502 119.524 168.738 119.524 170.08C119.524 171.422 119.3 172.658 118.853 173.787C118.405 174.916 117.745 175.848 116.873 176.581C116.007 177.307 114.948 177.751 113.694 177.912C113.334 177.956 112.957 177.982 112.561 177.989C112.165 177.996 111.901 178 111.769 178H106.72ZM109.415 175.503H111.769C111.989 175.503 112.267 175.496 112.605 175.481C112.949 175.466 113.254 175.433 113.518 175.382C114.266 175.243 114.874 174.909 115.344 174.381C115.813 173.853 116.158 173.211 116.378 172.456C116.605 171.701 116.719 170.909 116.719 170.08C116.719 169.222 116.605 168.415 116.378 167.66C116.15 166.905 115.798 166.27 115.322 165.757C114.852 165.244 114.251 164.917 113.518 164.778C113.254 164.719 112.949 164.686 112.605 164.679C112.267 164.664 111.989 164.657 111.769 164.657H109.415V175.503ZM128.823 178.33C127.239 178.33 125.882 177.985 124.753 177.296C123.624 176.599 122.755 175.631 122.146 174.392C121.545 173.153 121.244 171.715 121.244 170.08C121.244 168.445 121.545 167.007 122.146 165.768C122.755 164.529 123.624 163.564 124.753 162.875C125.882 162.178 127.239 161.83 128.823 161.83C130.407 161.83 131.764 162.178 132.893 162.875C134.03 163.564 134.899 164.529 135.5 165.768C136.109 167.007 136.413 168.445 136.413 170.08C136.413 171.715 136.109 173.153 135.5 174.392C134.899 175.631 134.03 176.599 132.893 177.296C131.764 177.985 130.407 178.33 128.823 178.33ZM128.823 175.833C129.886 175.84 130.77 175.606 131.474 175.129C132.185 174.652 132.717 173.981 133.069 173.116C133.428 172.251 133.608 171.239 133.608 170.08C133.608 168.921 133.428 167.917 133.069 167.066C132.717 166.208 132.185 165.541 131.474 165.064C130.77 164.587 129.886 164.342 128.823 164.327C127.76 164.32 126.876 164.554 126.172 165.031C125.468 165.508 124.936 166.179 124.577 167.044C124.225 167.909 124.049 168.921 124.049 170.08C124.049 171.239 124.225 172.247 124.577 173.105C124.929 173.956 125.457 174.619 126.161 175.096C126.872 175.573 127.76 175.818 128.823 175.833ZM146.857 178V171.51L141.467 162.16H144.558L148.199 168.474L151.829 162.16H154.92L149.541 171.51V178H146.857ZM162.274 178.33C160.69 178.33 159.333 177.985 158.204 177.296C157.075 176.599 156.206 175.631 155.597 174.392C154.996 173.153 154.695 171.715 154.695 170.08C154.695 168.445 154.996 167.007 155.597 165.768C156.206 164.529 157.075 163.564 158.204 162.875C159.333 162.178 160.69 161.83 162.274 161.83C163.858 161.83 165.215 162.178 166.344 162.875C167.481 163.564 168.35 164.529 168.951 165.768C169.56 167.007 169.864 168.445 169.864 170.08C169.864 171.715 169.56 173.153 168.951 174.392C168.35 175.631 167.481 176.599 166.344 177.296C165.215 177.985 163.858 178.33 162.274 178.33ZM162.274 175.833C163.337 175.84 164.221 175.606 164.925 175.129C165.636 174.652 166.168 173.981 166.52 173.116C166.879 172.251 167.059 171.239 167.059 170.08C167.059 168.921 166.879 167.917 166.52 167.066C166.168 166.208 165.636 165.541 164.925 165.064C164.221 164.587 163.337 164.342 162.274 164.327C161.211 164.32 160.327 164.554 159.623 165.031C158.919 165.508 158.387 166.179 158.028 167.044C157.676 167.909 157.5 168.921 157.5 170.08C157.5 171.239 157.676 172.247 158.028 173.105C158.38 173.956 158.908 174.619 159.612 175.096C160.323 175.573 161.211 175.818 162.274 175.833ZM178.434 178.33C177.172 178.33 176.061 178.073 175.101 177.56C174.147 177.047 173.399 176.324 172.857 175.393C172.321 174.462 172.054 173.369 172.054 172.115V162.182L174.738 162.16V172.049C174.738 172.643 174.837 173.175 175.035 173.644C175.24 174.113 175.515 174.513 175.86 174.843C176.204 175.166 176.6 175.411 177.048 175.58C177.495 175.749 177.957 175.833 178.434 175.833C178.925 175.833 179.391 175.749 179.831 175.58C180.278 175.404 180.674 175.155 181.019 174.832C181.363 174.502 181.635 174.102 181.833 173.633C182.031 173.164 182.13 172.636 182.13 172.049V162.16H184.814V172.115C184.814 173.369 184.542 174.462 184 175.393C183.464 176.324 182.716 177.047 181.756 177.56C180.802 178.073 179.695 178.33 178.434 178.33ZM198.991 178.33C197.407 178.33 196.05 177.985 194.921 177.296C193.792 176.599 192.923 175.631 192.314 174.392C191.713 173.153 191.412 171.715 191.412 170.08C191.412 168.445 191.713 167.007 192.314 165.768C192.923 164.529 193.792 163.564 194.921 162.875C196.05 162.178 197.407 161.83 198.991 161.83C200.817 161.83 202.339 162.288 203.556 163.205C204.773 164.114 205.628 165.343 206.119 166.89L203.446 167.627C203.138 166.593 202.614 165.786 201.873 165.207C201.132 164.62 200.172 164.327 198.991 164.327C197.928 164.327 197.04 164.565 196.329 165.042C195.625 165.519 195.093 166.19 194.734 167.055C194.382 167.913 194.202 168.921 194.195 170.08C194.195 171.239 194.371 172.251 194.723 173.116C195.082 173.974 195.618 174.641 196.329 175.118C197.04 175.595 197.928 175.833 198.991 175.833C200.172 175.833 201.132 175.54 201.873 174.953C202.614 174.366 203.138 173.56 203.446 172.533L206.119 173.27C205.628 174.817 204.773 176.049 203.556 176.966C202.339 177.875 200.817 178.33 198.991 178.33ZM215.233 178.33C213.649 178.33 212.292 177.985 211.163 177.296C210.034 176.599 209.165 175.631 208.556 174.392C207.955 173.153 207.654 171.715 207.654 170.08C207.654 168.445 207.955 167.007 208.556 165.768C209.165 164.529 210.034 163.564 211.163 162.875C212.292 162.178 213.649 161.83 215.233 161.83C216.817 161.83 218.174 162.178 219.303 162.875C220.44 163.564 221.309 164.529 221.91 165.768C222.519 167.007 222.823 168.445 222.823 170.08C222.823 171.715 222.519 173.153 221.91 174.392C221.309 175.631 220.44 176.599 219.303 177.296C218.174 177.985 216.817 178.33 215.233 178.33ZM215.233 175.833C216.296 175.84 217.18 175.606 217.884 175.129C218.595 174.652 219.127 173.981 219.479 173.116C219.838 172.251 220.018 171.239 220.018 170.08C220.018 168.921 219.838 167.917 219.479 167.066C219.127 166.208 218.595 165.541 217.884 165.064C217.18 164.587 216.296 164.342 215.233 164.327C214.17 164.32 213.286 164.554 212.582 165.031C211.878 165.508 211.346 166.179 210.987 167.044C210.635 167.909 210.459 168.921 210.459 170.08C210.459 171.239 210.635 172.247 210.987 173.105C211.339 173.956 211.867 174.619 212.571 175.096C213.282 175.573 214.17 175.818 215.233 175.833ZM225.013 178V162.16H227.697L235.045 173.325V162.16H237.729V178H235.045L227.697 166.835V178H225.013ZM246.667 178.33C245.508 178.33 244.463 178.128 243.532 177.725C242.608 177.322 241.845 176.746 241.244 175.998C240.65 175.243 240.272 174.348 240.111 173.314L242.861 172.896C243.095 173.835 243.576 174.561 244.302 175.074C245.035 175.587 245.878 175.844 246.832 175.844C247.396 175.844 247.928 175.756 248.427 175.58C248.925 175.404 249.329 175.147 249.637 174.81C249.952 174.473 250.11 174.058 250.11 173.567C250.11 173.347 250.073 173.145 250 172.962C249.926 172.771 249.816 172.603 249.67 172.456C249.53 172.309 249.347 172.177 249.12 172.06C248.9 171.935 248.643 171.829 248.35 171.741L244.258 170.531C243.906 170.428 243.524 170.293 243.114 170.124C242.71 169.948 242.325 169.71 241.959 169.409C241.599 169.101 241.302 168.712 241.068 168.243C240.84 167.766 240.727 167.18 240.727 166.483C240.727 165.464 240.983 164.609 241.497 163.92C242.017 163.223 242.714 162.703 243.587 162.358C244.467 162.013 245.442 161.845 246.513 161.852C247.598 161.859 248.566 162.046 249.417 162.413C250.267 162.772 250.979 163.297 251.551 163.986C252.123 164.675 252.526 165.508 252.761 166.483L249.912 166.978C249.794 166.421 249.567 165.948 249.23 165.559C248.9 165.163 248.493 164.862 248.009 164.657C247.532 164.452 247.022 164.342 246.48 164.327C245.952 164.32 245.46 164.4 245.006 164.569C244.558 164.73 244.195 164.965 243.917 165.273C243.645 165.581 243.51 165.94 243.51 166.351C243.51 166.74 243.627 167.059 243.862 167.308C244.096 167.55 244.386 167.744 244.731 167.891C245.083 168.03 245.438 168.148 245.798 168.243L248.636 169.035C249.024 169.138 249.461 169.277 249.945 169.453C250.429 169.629 250.894 169.875 251.342 170.19C251.789 170.505 252.156 170.92 252.442 171.433C252.735 171.946 252.882 172.599 252.882 173.391C252.882 174.212 252.709 174.935 252.365 175.558C252.027 176.174 251.569 176.687 250.99 177.098C250.41 177.509 249.747 177.817 248.999 178.022C248.258 178.227 247.481 178.33 246.667 178.33ZM255.483 178V162.16H258.134V178H255.483ZM261.429 178V162.16H266.478C266.61 162.16 266.87 162.164 267.259 162.171C267.655 162.178 268.036 162.204 268.403 162.248C269.657 162.409 270.716 162.857 271.582 163.59C272.454 164.316 273.114 165.244 273.562 166.373C274.009 167.502 274.233 168.738 274.233 170.08C274.233 171.422 274.009 172.658 273.562 173.787C273.114 174.916 272.454 175.848 271.582 176.581C270.716 177.307 269.657 177.751 268.403 177.912C268.043 177.956 267.666 177.982 267.27 177.989C266.874 177.996 266.61 178 266.478 178H261.429ZM264.124 175.503H266.478C266.698 175.503 266.976 175.496 267.314 175.481C267.658 175.466 267.963 175.433 268.227 175.382C268.975 175.243 269.583 174.909 270.053 174.381C270.522 173.853 270.867 173.211 271.087 172.456C271.314 171.701 271.428 170.909 271.428 170.08C271.428 169.222 271.314 168.415 271.087 167.66C270.859 166.905 270.507 166.27 270.031 165.757C269.561 165.244 268.96 164.917 268.227 164.778C267.963 164.719 267.658 164.686 267.314 164.679C266.976 164.664 266.698 164.657 266.478 164.657H264.124V175.503ZM276.833 178V162.16H287.063V164.646H279.484V168.551H285.743V171.037H279.484V175.514H287.063V178H276.833ZM289.702 178V162.16H296.247C296.401 162.16 296.599 162.167 296.841 162.182C297.083 162.189 297.307 162.211 297.512 162.248C298.429 162.387 299.184 162.692 299.778 163.161C300.379 163.63 300.823 164.224 301.109 164.943C301.402 165.654 301.549 166.446 301.549 167.319C301.549 168.61 301.223 169.721 300.57 170.652C299.917 171.576 298.916 172.148 297.567 172.368L296.434 172.467H292.353V178H289.702ZM298.799 178L295.675 171.554L298.37 170.96L301.802 178H298.799ZM292.353 169.992H296.137C296.284 169.992 296.449 169.985 296.632 169.97C296.815 169.955 296.984 169.926 297.138 169.882C297.578 169.772 297.923 169.578 298.172 169.299C298.429 169.02 298.608 168.705 298.711 168.353C298.821 168.001 298.876 167.656 298.876 167.319C298.876 166.982 298.821 166.637 298.711 166.285C298.608 165.926 298.429 165.607 298.172 165.328C297.923 165.049 297.578 164.855 297.138 164.745C296.984 164.701 296.815 164.675 296.632 164.668C296.449 164.653 296.284 164.646 296.137 164.646H292.353V169.992ZM314.493 178.33C313.334 178.33 312.289 178.128 311.358 177.725C310.434 177.322 309.671 176.746 309.07 175.998C308.476 175.243 308.098 174.348 307.937 173.314L310.687 172.896C310.922 173.835 311.402 174.561 312.128 175.074C312.861 175.587 313.705 175.844 314.658 175.844C315.223 175.844 315.754 175.756 316.253 175.58C316.752 175.404 317.155 175.147 317.463 174.81C317.778 174.473 317.936 174.058 317.936 173.567C317.936 173.347 317.899 173.145 317.826 172.962C317.753 172.771 317.643 172.603 317.496 172.456C317.357 172.309 317.173 172.177 316.946 172.06C316.726 171.935 316.469 171.829 316.176 171.741L312.084 170.531C311.732 170.428 311.351 170.293 310.94 170.124C310.537 169.948 310.152 169.71 309.785 169.409C309.426 169.101 309.129 168.712 308.894 168.243C308.667 167.766 308.553 167.18 308.553 166.483C308.553 165.464 308.81 164.609 309.323 163.92C309.844 163.223 310.54 162.703 311.413 162.358C312.293 162.013 313.268 161.845 314.339 161.852C315.424 161.859 316.392 162.046 317.243 162.413C318.094 162.772 318.805 163.297 319.377 163.986C319.949 164.675 320.352 165.508 320.587 166.483L317.738 166.978C317.621 166.421 317.393 165.948 317.056 165.559C316.726 165.163 316.319 164.862 315.835 164.657C315.358 164.452 314.849 164.342 314.306 164.327C313.778 164.32 313.287 164.4 312.832 164.569C312.385 164.73 312.022 164.965 311.743 165.273C311.472 165.581 311.336 165.94 311.336 166.351C311.336 166.74 311.453 167.059 311.688 167.308C311.923 167.55 312.212 167.744 312.557 167.891C312.909 168.03 313.265 168.148 313.624 168.243L316.462 169.035C316.851 169.138 317.287 169.277 317.771 169.453C318.255 169.629 318.721 169.875 319.168 170.19C319.615 170.505 319.982 170.92 320.268 171.433C320.561 171.946 320.708 172.599 320.708 173.391C320.708 174.212 320.536 174.935 320.191 175.558C319.854 176.174 319.395 176.687 318.816 177.098C318.237 177.509 317.573 177.817 316.825 178.022C316.084 178.227 315.307 178.33 314.493 178.33ZM323.089 178V162.16H329.634C329.788 162.16 329.986 162.167 330.228 162.182C330.47 162.189 330.693 162.211 330.899 162.248C331.815 162.387 332.571 162.692 333.165 163.161C333.766 163.63 334.21 164.224 334.496 164.943C334.789 165.654 334.936 166.446 334.936 167.319C334.936 168.184 334.789 168.976 334.496 169.695C334.202 170.406 333.755 170.997 333.154 171.466C332.56 171.935 331.808 172.24 330.899 172.379C330.693 172.408 330.466 172.43 330.217 172.445C329.975 172.46 329.78 172.467 329.634 172.467H325.74V178H323.089ZM325.74 169.992H329.524C329.67 169.992 329.835 169.985 330.019 169.97C330.202 169.955 330.371 169.926 330.525 169.882C330.965 169.772 331.309 169.578 331.559 169.299C331.815 169.02 331.995 168.705 332.098 168.353C332.208 168.001 332.263 167.656 332.263 167.319C332.263 166.982 332.208 166.637 332.098 166.285C331.995 165.926 331.815 165.607 331.559 165.328C331.309 165.049 330.965 164.855 330.525 164.745C330.371 164.701 330.202 164.675 330.019 164.668C329.835 164.653 329.67 164.646 329.524 164.646H325.74V169.992ZM343.839 178.33C342.255 178.33 340.898 177.985 339.769 177.296C338.639 176.599 337.77 175.631 337.162 174.392C336.56 173.153 336.26 171.715 336.26 170.08C336.26 168.445 336.56 167.007 337.162 165.768C337.77 164.529 338.639 163.564 339.769 162.875C340.898 162.178 342.255 161.83 343.839 161.83C345.423 161.83 346.779 162.178 347.909 162.875C349.045 163.564 349.914 164.529 350.516 165.768C351.124 167.007 351.429 168.445 351.429 170.08C351.429 171.715 351.124 173.153 350.516 174.392C349.914 175.631 349.045 176.599 347.909 177.296C346.779 177.985 345.423 178.33 343.839 178.33ZM343.839 175.833C344.902 175.84 345.786 175.606 346.49 175.129C347.201 174.652 347.733 173.981 348.085 173.116C348.444 172.251 348.624 171.239 348.624 170.08C348.624 168.921 348.444 167.917 348.085 167.066C347.733 166.208 347.201 165.541 346.49 165.064C345.786 164.587 344.902 164.342 343.839 164.327C342.775 164.32 341.892 164.554 341.188 165.031C340.484 165.508 339.952 166.179 339.593 167.044C339.241 167.909 339.065 168.921 339.065 170.08C339.065 171.239 339.241 172.247 339.593 173.105C339.945 173.956 340.473 174.619 341.177 175.096C341.888 175.573 342.775 175.818 343.839 175.833ZM353.618 178V162.16H360.163C360.317 162.16 360.515 162.167 360.757 162.182C360.999 162.189 361.223 162.211 361.428 162.248C362.345 162.387 363.1 162.692 363.694 163.161C364.295 163.63 364.739 164.224 365.025 164.943C365.318 165.654 365.465 166.446 365.465 167.319C365.465 168.61 365.139 169.721 364.486 170.652C363.833 171.576 362.832 172.148 361.483 172.368L360.35 172.467H356.269V178H353.618ZM362.715 178L359.591 171.554L362.286 170.96L365.718 178H362.715ZM356.269 169.992H360.053C360.2 169.992 360.365 169.985 360.548 169.97C360.731 169.955 360.9 169.926 361.054 169.882C361.494 169.772 361.839 169.578 362.088 169.299C362.345 169.02 362.524 168.705 362.627 168.353C362.737 168.001 362.792 167.656 362.792 167.319C362.792 166.982 362.737 166.637 362.627 166.285C362.524 165.926 362.345 165.607 362.088 165.328C361.839 165.049 361.494 164.855 361.054 164.745C360.9 164.701 360.731 164.675 360.548 164.668C360.365 164.653 360.2 164.646 360.053 164.646H356.269V169.992ZM371.948 178V164.646H366.822V162.16H379.725V164.646H374.599V178H371.948ZM384.122 178L389.116 162.16H392.999L397.993 178H395.265L390.733 163.788H391.327L386.85 178H384.122ZM386.905 174.568V172.093H395.221V174.568H386.905ZM405.415 178.33C404.256 178.33 403.211 178.128 402.28 177.725C401.356 177.322 400.593 176.746 399.992 175.998C399.398 175.243 399.02 174.348 398.859 173.314L401.609 172.896C401.843 173.835 402.324 174.561 403.05 175.074C403.783 175.587 404.626 175.844 405.58 175.844C406.144 175.844 406.676 175.756 407.175 175.58C407.673 175.404 408.077 175.147 408.385 174.81C408.7 174.473 408.858 174.058 408.858 173.567C408.858 173.347 408.821 173.145 408.748 172.962C408.674 172.771 408.564 172.603 408.418 172.456C408.278 172.309 408.095 172.177 407.868 172.06C407.648 171.935 407.391 171.829 407.098 171.741L403.006 170.531C402.654 170.428 402.272 170.293 401.862 170.124C401.458 169.948 401.073 169.71 400.707 169.409C400.347 169.101 400.05 168.712 399.816 168.243C399.588 167.766 399.475 167.18 399.475 166.483C399.475 165.464 399.731 164.609 400.245 163.92C400.765 163.223 401.462 162.703 402.335 162.358C403.215 162.013 404.19 161.845 405.261 161.852C406.346 161.859 407.314 162.046 408.165 162.413C409.015 162.772 409.727 163.297 410.299 163.986C410.871 164.675 411.274 165.508 411.509 166.483L408.66 166.978C408.542 166.421 408.315 165.948 407.978 165.559C407.648 165.163 407.241 164.862 406.757 164.657C406.28 164.452 405.77 164.342 405.228 164.327C404.7 164.32 404.208 164.4 403.754 164.569C403.306 164.73 402.943 164.965 402.665 165.273C402.393 165.581 402.258 165.94 402.258 166.351C402.258 166.74 402.375 167.059 402.61 167.308C402.844 167.55 403.134 167.744 403.479 167.891C403.831 168.03 404.186 168.148 404.546 168.243L407.384 169.035C407.772 169.138 408.209 169.277 408.693 169.453C409.177 169.629 409.642 169.875 410.09 170.19C410.537 170.505 410.904 170.92 411.19 171.433C411.483 171.946 411.63 172.599 411.63 173.391C411.63 174.212 411.457 174.935 411.113 175.558C410.775 176.174 410.317 176.687 409.738 177.098C409.158 177.509 408.495 177.817 407.747 178.022C407.006 178.227 406.229 178.33 405.415 178.33ZM417.315 178L422.309 162.16H426.192L431.186 178H428.458L423.926 163.788H424.52L420.043 178H417.315ZM420.098 174.568V172.093H428.414V174.568H420.098ZM437.579 178V162.16H444.124C444.278 162.16 444.476 162.167 444.718 162.182C444.96 162.189 445.184 162.211 445.389 162.248C446.306 162.387 447.061 162.692 447.655 163.161C448.256 163.63 448.7 164.224 448.986 164.943C449.279 165.654 449.426 166.446 449.426 167.319C449.426 168.61 449.1 169.721 448.447 170.652C447.794 171.576 446.793 172.148 445.444 172.368L444.311 172.467H440.23V178H437.579ZM446.676 178L443.552 171.554L446.247 170.96L449.679 178H446.676ZM440.23 169.992H444.014C444.161 169.992 444.326 169.985 444.509 169.97C444.692 169.955 444.861 169.926 445.015 169.882C445.455 169.772 445.8 169.578 446.049 169.299C446.306 169.02 446.485 168.705 446.588 168.353C446.698 168.001 446.753 167.656 446.753 167.319C446.753 166.982 446.698 166.637 446.588 166.285C446.485 165.926 446.306 165.607 446.049 165.328C445.8 165.049 445.455 164.855 445.015 164.745C444.861 164.701 444.692 164.675 444.509 164.668C444.326 164.653 444.161 164.646 444.014 164.646H440.23V169.992ZM452.103 178V162.16H462.333V164.646H454.754V168.551H461.013V171.037H454.754V175.514H462.333V178H452.103ZM470.684 178.33C469.526 178.33 468.481 178.128 467.549 177.725C466.625 177.322 465.863 176.746 465.261 175.998C464.667 175.243 464.29 174.348 464.128 173.314L466.878 172.896C467.113 173.835 467.593 174.561 468.319 175.074C469.053 175.587 469.896 175.844 470.849 175.844C471.414 175.844 471.946 175.756 472.444 175.58C472.943 175.404 473.346 175.147 473.654 174.81C473.97 174.473 474.127 174.058 474.127 173.567C474.127 173.347 474.091 173.145 474.017 172.962C473.944 172.771 473.834 172.603 473.687 172.456C473.548 172.309 473.365 172.177 473.137 172.06C472.917 171.935 472.661 171.829 472.367 171.741L468.275 170.531C467.923 170.428 467.542 170.293 467.131 170.124C466.728 169.948 466.343 169.71 465.976 169.409C465.617 169.101 465.32 168.712 465.085 168.243C464.858 167.766 464.744 167.18 464.744 166.483C464.744 165.464 465.001 164.609 465.514 163.92C466.035 163.223 466.732 162.703 467.604 162.358C468.484 162.013 469.46 161.845 470.53 161.852C471.616 161.859 472.584 162.046 473.434 162.413C474.285 162.772 474.996 163.297 475.568 163.986C476.14 164.675 476.544 165.508 476.778 166.483L473.929 166.978C473.812 166.421 473.585 165.948 473.247 165.559C472.917 165.163 472.51 164.862 472.026 164.657C471.55 164.452 471.04 164.342 470.497 164.327C469.969 164.32 469.478 164.4 469.023 164.569C468.576 164.73 468.213 164.965 467.934 165.273C467.663 165.581 467.527 165.94 467.527 166.351C467.527 166.74 467.645 167.059 467.879 167.308C468.114 167.55 468.404 167.744 468.748 167.891C469.1 168.03 469.456 168.148 469.815 168.243L472.653 169.035C473.042 169.138 473.478 169.277 473.962 169.453C474.446 169.629 474.912 169.875 475.359 170.19C475.807 170.505 476.173 170.92 476.459 171.433C476.753 171.946 476.899 172.599 476.899 173.391C476.899 174.212 476.727 174.935 476.382 175.558C476.045 176.174 475.587 176.687 475.007 177.098C474.428 177.509 473.764 177.817 473.016 178.022C472.276 178.227 471.498 178.33 470.684 178.33ZM483.086 178V164.646H477.96V162.16H490.863V164.646H485.737V178H483.086ZM86.0691 209.33C84.4851 209.33 83.1284 208.985 81.9991 208.296C80.8697 207.599 80.0007 206.631 79.3921 205.392C78.7907 204.153 78.4901 202.715 78.4901 201.08C78.4901 199.445 78.7907 198.007 79.3921 196.768C80.0007 195.529 80.8697 194.564 81.9991 193.875C83.1284 193.178 84.4851 192.83 86.0691 192.83C87.6531 192.83 89.0097 193.178 90.1391 193.875C91.2757 194.564 92.1447 195.529 92.7461 196.768C93.3547 198.007 93.6591 199.445 93.6591 201.08C93.6591 202.715 93.3547 204.153 92.7461 205.392C92.1447 206.631 91.2757 207.599 90.1391 208.296C89.0097 208.985 87.6531 209.33 86.0691 209.33ZM86.0691 206.833C87.1324 206.84 88.0161 206.606 88.7201 206.129C89.4314 205.652 89.9631 204.981 90.3151 204.116C90.6744 203.251 90.8541 202.239 90.8541 201.08C90.8541 199.921 90.6744 198.917 90.3151 198.066C89.9631 197.208 89.4314 196.541 88.7201 196.064C88.0161 195.587 87.1324 195.342 86.0691 195.327C85.0057 195.32 84.1221 195.554 83.4181 196.031C82.7141 196.508 82.1824 197.179 81.8231 198.044C81.4711 198.909 81.2951 199.921 81.2951 201.08C81.2951 202.239 81.4711 203.247 81.8231 204.105C82.1751 204.956 82.7031 205.619 83.4071 206.096C84.1184 206.573 85.0057 206.818 86.0691 206.833ZM95.8486 209V193.16H102.394C102.548 193.16 102.746 193.167 102.988 193.182C103.23 193.189 103.453 193.211 103.659 193.248C104.575 193.387 105.331 193.692 105.925 194.161C106.526 194.63 106.97 195.224 107.256 195.943C107.549 196.654 107.696 197.446 107.696 198.319C107.696 199.61 107.369 200.721 106.717 201.652C106.064 202.576 105.063 203.148 103.714 203.368L102.581 203.467H98.4996V209H95.8486ZM104.946 209L101.822 202.554L104.517 201.96L107.949 209H104.946ZM98.4996 200.992H102.284C102.43 200.992 102.595 200.985 102.779 200.97C102.962 200.955 103.131 200.926 103.285 200.882C103.725 200.772 104.069 200.578 104.319 200.299C104.575 200.02 104.755 199.705 104.858 199.353C104.968 199.001 105.023 198.656 105.023 198.319C105.023 197.982 104.968 197.637 104.858 197.285C104.755 196.926 104.575 196.607 104.319 196.328C104.069 196.049 103.725 195.855 103.285 195.745C103.131 195.701 102.962 195.675 102.779 195.668C102.595 195.653 102.43 195.646 102.284 195.646H98.4996V200.992ZM114.996 209V193.16H117.647V209H114.996ZM126.805 209.33C125.647 209.33 124.602 209.128 123.67 208.725C122.746 208.322 121.984 207.746 121.382 206.998C120.788 206.243 120.411 205.348 120.249 204.314L122.999 203.896C123.234 204.835 123.714 205.561 124.44 206.074C125.174 206.587 126.017 206.844 126.97 206.844C127.535 206.844 128.067 206.756 128.565 206.58C129.064 206.404 129.467 206.147 129.775 205.81C130.091 205.473 130.248 205.058 130.248 204.567C130.248 204.347 130.212 204.145 130.138 203.962C130.065 203.771 129.955 203.603 129.808 203.456C129.669 203.309 129.486 203.177 129.258 203.06C129.038 202.935 128.782 202.829 128.488 202.741L124.396 201.531C124.044 201.428 123.663 201.293 123.252 201.124C122.849 200.948 122.464 200.71 122.097 200.409C121.738 200.101 121.441 199.712 121.206 199.243C120.979 198.766 120.865 198.18 120.865 197.483C120.865 196.464 121.122 195.609 121.635 194.92C122.156 194.223 122.853 193.703 123.725 193.358C124.605 193.013 125.581 192.845 126.651 192.852C127.737 192.859 128.705 193.046 129.555 193.413C130.406 193.772 131.117 194.297 131.689 194.986C132.261 195.675 132.665 196.508 132.899 197.483L130.05 197.978C129.933 197.421 129.706 196.948 129.368 196.559C129.038 196.163 128.631 195.862 128.147 195.657C127.671 195.452 127.161 195.342 126.618 195.327C126.09 195.32 125.599 195.4 125.144 195.569C124.697 195.73 124.334 195.965 124.055 196.273C123.784 196.581 123.648 196.94 123.648 197.351C123.648 197.74 123.766 198.059 124 198.308C124.235 198.55 124.525 198.744 124.869 198.891C125.221 199.03 125.577 199.148 125.936 199.243L128.774 200.035C129.163 200.138 129.599 200.277 130.083 200.453C130.567 200.629 131.033 200.875 131.48 201.19C131.928 201.505 132.294 201.92 132.58 202.433C132.874 202.946 133.02 203.599 133.02 204.391C133.02 205.212 132.848 205.935 132.503 206.558C132.166 207.174 131.708 207.687 131.128 208.098C130.549 208.509 129.885 208.817 129.137 209.022C128.397 209.227 127.619 209.33 126.805 209.33ZM140.026 209V193.16H142.677V209H140.026ZM149.778 209V195.646H144.652V193.16H157.555V195.646H152.429V209H149.778ZM163.052 209V193.16H165.736L173.084 204.325V193.16H175.768V209H173.084L165.736 197.835V209H163.052ZM178.843 209V193.16H189.073V195.646H181.494V199.551H187.753V202.037H181.494V206.514H189.073V209H178.843ZM197.852 209.33C196.268 209.33 194.912 208.985 193.782 208.296C192.653 207.599 191.784 206.631 191.175 205.392C190.574 204.153 190.273 202.715 190.273 201.08C190.273 199.445 190.574 198.007 191.175 196.768C191.784 195.529 192.653 194.564 193.782 193.875C194.912 193.178 196.268 192.83 197.852 192.83C199.678 192.83 201.2 193.288 202.417 194.205C203.635 195.114 204.489 196.343 204.98 197.89L202.307 198.627C201.999 197.593 201.475 196.786 200.734 196.207C199.994 195.62 199.033 195.327 197.852 195.327C196.789 195.327 195.902 195.565 195.19 196.042C194.486 196.519 193.955 197.19 193.595 198.055C193.243 198.913 193.064 199.921 193.056 201.08C193.056 202.239 193.232 203.251 193.584 204.116C193.944 204.974 194.479 205.641 195.19 206.118C195.902 206.595 196.789 206.833 197.852 206.833C199.033 206.833 199.994 206.54 200.734 205.953C201.475 205.366 201.999 204.56 202.307 203.533L204.98 204.27C204.489 205.817 203.635 207.049 202.417 207.966C201.2 208.875 199.678 209.33 197.852 209.33ZM207.395 209V193.16H217.625V195.646H210.046V199.551H216.305V202.037H210.046V206.514H217.625V209H207.395ZM225.977 209.33C224.819 209.33 223.774 209.128 222.842 208.725C221.918 208.322 221.156 207.746 220.554 206.998C219.96 206.243 219.583 205.348 219.421 204.314L222.171 203.896C222.406 204.835 222.886 205.561 223.612 206.074C224.346 206.587 225.189 206.844 226.142 206.844C226.707 206.844 227.239 206.756 227.737 206.58C228.236 206.404 228.639 206.147 228.947 205.81C229.263 205.473 229.42 205.058 229.42 204.567C229.42 204.347 229.384 204.145 229.31 203.962C229.237 203.771 229.127 203.603 228.98 203.456C228.841 203.309 228.658 203.177 228.43 203.06C228.21 202.935 227.954 202.829 227.66 202.741L223.568 201.531C223.216 201.428 222.835 201.293 222.424 201.124C222.021 200.948 221.636 200.71 221.269 200.409C220.91 200.101 220.613 199.712 220.378 199.243C220.151 198.766 220.037 198.18 220.037 197.483C220.037 196.464 220.294 195.609 220.807 194.92C221.328 194.223 222.025 193.703 222.897 193.358C223.777 193.013 224.753 192.845 225.823 192.852C226.909 192.859 227.877 193.046 228.727 193.413C229.578 193.772 230.289 194.297 230.861 194.986C231.433 195.675 231.837 196.508 232.071 197.483L229.222 197.978C229.105 197.421 228.878 196.948 228.54 196.559C228.21 196.163 227.803 195.862 227.319 195.657C226.843 195.452 226.333 195.342 225.79 195.327C225.262 195.32 224.771 195.4 224.316 195.569C223.869 195.73 223.506 195.965 223.227 196.273C222.956 196.581 222.82 196.94 222.82 197.351C222.82 197.74 222.938 198.059 223.172 198.308C223.407 198.55 223.697 198.744 224.041 198.891C224.393 199.03 224.749 199.148 225.108 199.243L227.946 200.035C228.335 200.138 228.771 200.277 229.255 200.453C229.739 200.629 230.205 200.875 230.652 201.19C231.1 201.505 231.466 201.92 231.752 202.433C232.046 202.946 232.192 203.599 232.192 204.391C232.192 205.212 232.02 205.935 231.675 206.558C231.338 207.174 230.88 207.687 230.3 208.098C229.721 208.509 229.057 208.817 228.309 209.022C227.569 209.227 226.791 209.33 225.977 209.33ZM240.758 209.33C239.6 209.33 238.555 209.128 237.623 208.725C236.699 208.322 235.937 207.746 235.335 206.998C234.741 206.243 234.364 205.348 234.202 204.314L236.952 203.896C237.187 204.835 237.667 205.561 238.393 206.074C239.127 206.587 239.97 206.844 240.923 206.844C241.488 206.844 242.02 206.756 242.518 206.58C243.017 206.404 243.42 206.147 243.728 205.81C244.044 205.473 244.201 205.058 244.201 204.567C244.201 204.347 244.165 204.145 244.091 203.962C244.018 203.771 243.908 203.603 243.761 203.456C243.622 203.309 243.439 203.177 243.211 203.06C242.991 202.935 242.735 202.829 242.441 202.741L238.349 201.531C237.997 201.428 237.616 201.293 237.205 201.124C236.802 200.948 236.417 200.71 236.05 200.409C235.691 200.101 235.394 199.712 235.159 199.243C234.932 198.766 234.818 198.18 234.818 197.483C234.818 196.464 235.075 195.609 235.588 194.92C236.109 194.223 236.806 193.703 237.678 193.358C238.558 193.013 239.534 192.845 240.604 192.852C241.69 192.859 242.658 193.046 243.508 193.413C244.359 193.772 245.07 194.297 245.642 194.986C246.214 195.675 246.618 196.508 246.852 197.483L244.003 197.978C243.886 197.421 243.659 196.948 243.321 196.559C242.991 196.163 242.584 195.862 242.1 195.657C241.624 195.452 241.114 195.342 240.571 195.327C240.043 195.32 239.552 195.4 239.097 195.569C238.65 195.73 238.287 195.965 238.008 196.273C237.737 196.581 237.601 196.94 237.601 197.351C237.601 197.74 237.719 198.059 237.953 198.308C238.188 198.55 238.478 198.744 238.822 198.891C239.174 199.03 239.53 199.148 239.889 199.243L242.727 200.035C243.116 200.138 243.552 200.277 244.036 200.453C244.52 200.629 244.986 200.875 245.433 201.19C245.881 201.505 246.247 201.92 246.533 202.433C246.827 202.946 246.973 203.599 246.973 204.391C246.973 205.212 246.801 205.935 246.456 206.558C246.119 207.174 245.661 207.687 245.081 208.098C244.502 208.509 243.838 208.817 243.09 209.022C242.35 209.227 241.572 209.33 240.758 209.33ZM248.254 209L253.248 193.16H257.131L262.125 209H259.397L254.865 194.788H255.459L250.982 209H248.254ZM251.037 205.568V203.093H259.353V205.568H251.037ZM264.114 209V193.16H270.659C270.813 193.16 271.011 193.167 271.253 193.182C271.495 193.189 271.719 193.211 271.924 193.248C272.841 193.387 273.596 193.692 274.19 194.161C274.792 194.63 275.235 195.224 275.521 195.943C275.815 196.654 275.961 197.446 275.961 198.319C275.961 199.61 275.635 200.721 274.982 201.652C274.33 202.576 273.329 203.148 271.979 203.368L270.846 203.467H266.765V209H264.114ZM273.211 209L270.087 202.554L272.782 201.96L276.214 209H273.211ZM266.765 200.992H270.549C270.696 200.992 270.861 200.985 271.044 200.97C271.228 200.955 271.396 200.926 271.55 200.882C271.99 200.772 272.335 200.578 272.584 200.299C272.841 200.02 273.021 199.705 273.123 199.353C273.233 199.001 273.288 198.656 273.288 198.319C273.288 197.982 273.233 197.637 273.123 197.285C273.021 196.926 272.841 196.607 272.584 196.328C272.335 196.049 271.99 195.855 271.55 195.745C271.396 195.701 271.228 195.675 271.044 195.668C270.861 195.653 270.696 195.646 270.549 195.646H266.765V200.992ZM282.187 209V202.51L276.797 193.16H279.888L283.529 199.474L287.159 193.16H290.25L284.871 202.51V209H282.187ZM299.116 209V195.646H293.99V193.16H306.893V195.646H301.767V209H299.116ZM315.35 209.33C313.766 209.33 312.41 208.985 311.28 208.296C310.151 207.599 309.282 206.631 308.673 205.392C308.072 204.153 307.771 202.715 307.771 201.08C307.771 199.445 308.072 198.007 308.673 196.768C309.282 195.529 310.151 194.564 311.28 193.875C312.41 193.178 313.766 192.83 315.35 192.83C316.934 192.83 318.291 193.178 319.42 193.875C320.557 194.564 321.426 195.529 322.027 196.768C322.636 198.007 322.94 199.445 322.94 201.08C322.94 202.715 322.636 204.153 322.027 205.392C321.426 206.631 320.557 207.599 319.42 208.296C318.291 208.985 316.934 209.33 315.35 209.33ZM315.35 206.833C316.414 206.84 317.297 206.606 318.001 206.129C318.713 205.652 319.244 204.981 319.596 204.116C319.956 203.251 320.135 202.239 320.135 201.08C320.135 199.921 319.956 198.917 319.596 198.066C319.244 197.208 318.713 196.541 318.001 196.064C317.297 195.587 316.414 195.342 315.35 195.327C314.287 195.32 313.403 195.554 312.699 196.031C311.995 196.508 311.464 197.179 311.104 198.044C310.752 198.909 310.576 199.921 310.576 201.08C310.576 202.239 310.752 203.247 311.104 204.105C311.456 204.956 311.984 205.619 312.688 206.096C313.4 206.573 314.287 206.818 315.35 206.833ZM329.534 209V193.16H336.079C336.233 193.16 336.431 193.167 336.673 193.182C336.915 193.189 337.139 193.211 337.344 193.248C338.261 193.387 339.016 193.692 339.61 194.161C340.211 194.63 340.655 195.224 340.941 195.943C341.234 196.654 341.381 197.446 341.381 198.319C341.381 199.61 341.055 200.721 340.402 201.652C339.749 202.576 338.748 203.148 337.399 203.368L336.266 203.467H332.185V209H329.534ZM338.631 209L335.507 202.554L338.202 201.96L341.634 209H338.631ZM332.185 200.992H335.969C336.116 200.992 336.281 200.985 336.464 200.97C336.647 200.955 336.816 200.926 336.97 200.882C337.41 200.772 337.755 200.578 338.004 200.299C338.261 200.02 338.44 199.705 338.543 199.353C338.653 199.001 338.708 198.656 338.708 198.319C338.708 197.982 338.653 197.637 338.543 197.285C338.44 196.926 338.261 196.607 338.004 196.328C337.755 196.049 337.41 195.855 336.97 195.745C336.816 195.701 336.647 195.675 336.464 195.668C336.281 195.653 336.116 195.646 335.969 195.646H332.185V200.992ZM344.058 209V193.16H354.288V195.646H346.709V199.551H352.968V202.037H346.709V206.514H354.288V209H344.058ZM357.147 209V193.16H359.798V206.514H366.794V209H357.147ZM367.557 209L372.551 193.16H376.434L381.428 209H378.7L374.168 194.788H374.762L370.285 209H367.557ZM370.34 205.568V203.093H378.656V205.568H370.34ZM382.097 209L387.465 200.992L382.251 193.16H385.496L389.104 198.737L392.679 193.16H395.946L390.732 200.992L396.078 209H392.833L389.104 203.247L385.364 209H382.097ZM406.087 209V202.51L400.697 193.16H403.788L407.429 199.474L411.059 193.16H414.15L408.771 202.51V209H406.087ZM421.505 209.33C419.921 209.33 418.564 208.985 417.435 208.296C416.305 207.599 415.436 206.631 414.828 205.392C414.226 204.153 413.926 202.715 413.926 201.08C413.926 199.445 414.226 198.007 414.828 196.768C415.436 195.529 416.305 194.564 417.435 193.875C418.564 193.178 419.921 192.83 421.505 192.83C423.089 192.83 424.445 193.178 425.575 193.875C426.711 194.564 427.58 195.529 428.182 196.768C428.79 198.007 429.095 199.445 429.095 201.08C429.095 202.715 428.79 204.153 428.182 205.392C427.58 206.631 426.711 207.599 425.575 208.296C424.445 208.985 423.089 209.33 421.505 209.33ZM421.505 206.833C422.568 206.84 423.452 206.606 424.156 206.129C424.867 205.652 425.399 204.981 425.751 204.116C426.11 203.251 426.29 202.239 426.29 201.08C426.29 199.921 426.11 198.917 425.751 198.066C425.399 197.208 424.867 196.541 424.156 196.064C423.452 195.587 422.568 195.342 421.505 195.327C420.441 195.32 419.558 195.554 418.854 196.031C418.15 196.508 417.618 197.179 417.259 198.044C416.907 198.909 416.731 199.921 416.731 201.08C416.731 202.239 416.907 203.247 417.259 204.105C417.611 204.956 418.139 205.619 418.843 206.096C419.554 206.573 420.441 206.818 421.505 206.833ZM437.664 209.33C436.403 209.33 435.292 209.073 434.331 208.56C433.378 208.047 432.63 207.324 432.087 206.393C431.552 205.462 431.284 204.369 431.284 203.115V193.182L433.968 193.16V203.049C433.968 203.643 434.067 204.175 434.265 204.644C434.47 205.113 434.745 205.513 435.09 205.843C435.435 206.166 435.831 206.411 436.278 206.58C436.725 206.749 437.187 206.833 437.664 206.833C438.155 206.833 438.621 206.749 439.061 206.58C439.508 206.404 439.904 206.155 440.249 205.832C440.594 205.502 440.865 205.102 441.063 204.633C441.261 204.164 441.36 203.636 441.36 203.049V193.16H444.044V203.115C444.044 204.369 443.773 205.462 443.23 206.393C442.695 207.324 441.947 208.047 440.986 208.56C440.033 209.073 438.925 209.33 437.664 209.33ZM447.118 209V193.16H453.663C453.817 193.16 454.015 193.167 454.257 193.182C454.499 193.189 454.723 193.211 454.928 193.248C455.845 193.387 456.6 193.692 457.194 194.161C457.795 194.63 458.239 195.224 458.525 195.943C458.818 196.654 458.965 197.446 458.965 198.319C458.965 199.61 458.639 200.721 457.986 201.652C457.333 202.576 456.332 203.148 454.983 203.368L453.85 203.467H449.769V209H447.118ZM456.215 209L453.091 202.554L455.786 201.96L459.218 209H456.215ZM449.769 200.992H453.553C453.7 200.992 453.865 200.985 454.048 200.97C454.231 200.955 454.4 200.926 454.554 200.882C454.994 200.772 455.339 200.578 455.588 200.299C455.845 200.02 456.024 199.705 456.127 199.353C456.237 199.001 456.292 198.656 456.292 198.319C456.292 197.982 456.237 197.637 456.127 197.285C456.024 196.926 455.845 196.607 455.588 196.328C455.339 196.049 454.994 195.855 454.554 195.745C454.4 195.701 454.231 195.675 454.048 195.668C453.865 195.653 453.7 195.646 453.553 195.646H449.769V200.992ZM466.046 209V193.16H472.327C473.398 193.16 474.274 193.376 474.956 193.809C475.645 194.234 476.155 194.781 476.485 195.448C476.822 196.115 476.991 196.805 476.991 197.516C476.991 198.389 476.782 199.129 476.364 199.738C475.953 200.347 475.392 200.757 474.681 200.97V200.42C475.678 200.647 476.434 201.12 476.947 201.839C477.468 202.558 477.728 203.375 477.728 204.292C477.728 205.231 477.548 206.052 477.189 206.756C476.83 207.46 476.294 208.01 475.583 208.406C474.879 208.802 474.006 209 472.965 209H466.046ZM468.73 206.503H472.635C473.097 206.503 473.511 206.411 473.878 206.228C474.245 206.037 474.531 205.773 474.736 205.436C474.949 205.091 475.055 204.684 475.055 204.215C475.055 203.79 474.963 203.408 474.78 203.071C474.597 202.734 474.329 202.466 473.977 202.268C473.625 202.063 473.203 201.96 472.712 201.96H468.73V206.503ZM468.73 199.485H472.294C472.675 199.485 473.016 199.412 473.317 199.265C473.618 199.118 473.856 198.902 474.032 198.616C474.208 198.33 474.296 197.978 474.296 197.56C474.296 197.01 474.12 196.552 473.768 196.185C473.416 195.818 472.925 195.635 472.294 195.635H468.73V199.485ZM486.624 209.33C485.04 209.33 483.683 208.985 482.554 208.296C481.424 207.599 480.555 206.631 479.947 205.392C479.345 204.153 479.045 202.715 479.045 201.08C479.045 199.445 479.345 198.007 479.947 196.768C480.555 195.529 481.424 194.564 482.554 193.875C483.683 193.178 485.04 192.83 486.624 192.83C488.208 192.83 489.564 193.178 490.694 193.875C491.83 194.564 492.699 195.529 493.301 196.768C493.909 198.007 494.214 199.445 494.214 201.08C494.214 202.715 493.909 204.153 493.301 205.392C492.699 206.631 491.83 207.599 490.694 208.296C489.564 208.985 488.208 209.33 486.624 209.33ZM486.624 206.833C487.687 206.84 488.571 206.606 489.275 206.129C489.986 205.652 490.518 204.981 490.87 204.116C491.229 203.251 491.409 202.239 491.409 201.08C491.409 199.921 491.229 198.917 490.87 198.066C490.518 197.208 489.986 196.541 489.275 196.064C488.571 195.587 487.687 195.342 486.624 195.327C485.56 195.32 484.677 195.554 483.973 196.031C483.269 196.508 482.737 197.179 482.378 198.044C482.026 198.909 481.85 199.921 481.85 201.08C481.85 202.239 482.026 203.247 482.378 204.105C482.73 204.956 483.258 205.619 483.962 206.096C484.673 206.573 485.56 206.818 486.624 206.833ZM496.403 209V193.16H501.452C501.584 193.16 501.845 193.164 502.233 193.171C502.629 193.178 503.011 193.204 503.377 193.248C504.631 193.409 505.691 193.857 506.556 194.59C507.429 195.316 508.089 196.244 508.536 197.373C508.984 198.502 509.207 199.738 509.207 201.08C509.207 202.422 508.984 203.658 508.536 204.787C508.089 205.916 507.429 206.848 506.556 207.581C505.691 208.307 504.631 208.751 503.377 208.912C503.018 208.956 502.64 208.982 502.244 208.989C501.848 208.996 501.584 209 501.452 209H496.403ZM499.098 206.503H501.452C501.672 206.503 501.951 206.496 502.288 206.481C502.633 206.466 502.937 206.433 503.201 206.382C503.949 206.243 504.558 205.909 505.027 205.381C505.497 204.853 505.841 204.211 506.061 203.456C506.289 202.701 506.402 201.909 506.402 201.08C506.402 200.222 506.289 199.415 506.061 198.66C505.834 197.905 505.482 197.27 505.005 196.757C504.536 196.244 503.935 195.917 503.201 195.778C502.937 195.719 502.633 195.686 502.288 195.679C501.951 195.664 501.672 195.657 501.452 195.657H499.098V206.503ZM514.992 209V202.51L509.602 193.16H512.693L516.334 199.474L519.964 193.16H523.055L517.676 202.51V209H514.992ZM221.231 240V224.16H230.768V226.811H223.882V230.76H229.448V233.4H223.882V240H221.231ZM239.446 240.33C237.862 240.33 236.505 239.985 235.376 239.296C234.247 238.599 233.378 237.631 232.769 236.392C232.168 235.153 231.867 233.715 231.867 232.08C231.867 230.445 232.168 229.007 232.769 227.768C233.378 226.529 234.247 225.564 235.376 224.875C236.505 224.178 237.862 223.83 239.446 223.83C241.03 223.83 242.387 224.178 243.516 224.875C244.653 225.564 245.522 226.529 246.123 227.768C246.732 229.007 247.036 230.445 247.036 232.08C247.036 233.715 246.732 235.153 246.123 236.392C245.522 237.631 244.653 238.599 243.516 239.296C242.387 239.985 241.03 240.33 239.446 240.33ZM239.446 237.833C240.509 237.84 241.393 237.606 242.097 237.129C242.808 236.652 243.34 235.981 243.692 235.116C244.051 234.251 244.231 233.239 244.231 232.08C244.231 230.921 244.051 229.917 243.692 229.066C243.34 228.208 242.808 227.541 242.097 227.064C241.393 226.587 240.509 226.342 239.446 226.327C238.383 226.32 237.499 226.554 236.795 227.031C236.091 227.508 235.559 228.179 235.2 229.044C234.848 229.909 234.672 230.921 234.672 232.08C234.672 233.239 234.848 234.247 235.2 235.105C235.552 235.956 236.08 236.619 236.784 237.096C237.495 237.573 238.383 237.818 239.446 237.833ZM249.226 240V224.16H255.771C255.925 224.16 256.123 224.167 256.365 224.182C256.607 224.189 256.83 224.211 257.036 224.248C257.952 224.387 258.708 224.692 259.302 225.161C259.903 225.63 260.347 226.224 260.633 226.943C260.926 227.654 261.073 228.446 261.073 229.319C261.073 230.61 260.746 231.721 260.094 232.652C259.441 233.576 258.44 234.148 257.091 234.368L255.958 234.467H251.877V240H249.226ZM258.323 240L255.199 233.554L257.894 232.96L261.326 240H258.323ZM251.877 231.992H255.661C255.807 231.992 255.972 231.985 256.156 231.97C256.339 231.955 256.508 231.926 256.662 231.882C257.102 231.772 257.446 231.578 257.696 231.299C257.952 231.02 258.132 230.705 258.235 230.353C258.345 230.001 258.4 229.656 258.4 229.319C258.4 228.982 258.345 228.637 258.235 228.285C258.132 227.926 257.952 227.607 257.696 227.328C257.446 227.049 257.102 226.855 256.662 226.745C256.508 226.701 256.339 226.675 256.156 226.668C255.972 226.653 255.807 226.646 255.661 226.646H251.877V231.992ZM271.959 240V226.646H266.833V224.16H279.736V226.646H274.61V240H271.959ZM281.495 240V224.16H284.146V230.826H291.648V224.16H294.288V240H291.648V233.312H284.146V240H281.495ZM297.372 240V224.16H307.602V226.646H300.023V230.551H306.282V233.037H300.023V237.514H307.602V240H297.372ZM314.645 240V224.16H321.19C321.344 224.16 321.542 224.167 321.784 224.182C322.026 224.189 322.25 224.211 322.455 224.248C323.372 224.387 324.127 224.692 324.721 225.161C325.323 225.63 325.766 226.224 326.052 226.943C326.346 227.654 326.492 228.446 326.492 229.319C326.492 230.61 326.166 231.721 325.513 232.652C324.861 233.576 323.86 234.148 322.51 234.368L321.377 234.467H317.296V240H314.645ZM323.742 240L320.618 233.554L323.313 232.96L326.745 240H323.742ZM317.296 231.992H321.08C321.227 231.992 321.392 231.985 321.575 231.97C321.759 231.955 321.927 231.926 322.081 231.882C322.521 231.772 322.866 231.578 323.115 231.299C323.372 231.02 323.552 230.705 323.654 230.353C323.764 230.001 323.819 229.656 323.819 229.319C323.819 228.982 323.764 228.637 323.654 228.285C323.552 227.926 323.372 227.607 323.115 227.328C322.866 227.049 322.521 226.855 322.081 226.745C321.927 226.701 321.759 226.675 321.575 226.668C321.392 226.653 321.227 226.646 321.08 226.646H317.296V231.992ZM329.169 240V224.16H339.399V226.646H331.82V230.551H338.079V233.037H331.82V237.514H339.399V240H329.169ZM347.751 240.33C346.592 240.33 345.547 240.128 344.616 239.725C343.692 239.322 342.929 238.746 342.328 237.998C341.734 237.243 341.356 236.348 341.195 235.314L343.945 234.896C344.179 235.835 344.66 236.561 345.386 237.074C346.119 237.587 346.962 237.844 347.916 237.844C348.48 237.844 349.012 237.756 349.511 237.58C350.009 237.404 350.413 237.147 350.721 236.81C351.036 236.473 351.194 236.058 351.194 235.567C351.194 235.347 351.157 235.145 351.084 234.962C351.01 234.771 350.9 234.603 350.754 234.456C350.614 234.309 350.431 234.177 350.204 234.06C349.984 233.935 349.727 233.829 349.434 233.741L345.342 232.531C344.99 232.428 344.608 232.293 344.198 232.124C343.794 231.948 343.409 231.71 343.043 231.409C342.683 231.101 342.386 230.712 342.152 230.243C341.924 229.766 341.811 229.18 341.811 228.483C341.811 227.464 342.067 226.609 342.581 225.92C343.101 225.223 343.798 224.703 344.671 224.358C345.551 224.013 346.526 223.845 347.597 223.852C348.682 223.859 349.65 224.046 350.501 224.413C351.351 224.772 352.063 225.297 352.635 225.986C353.207 226.675 353.61 227.508 353.845 228.483L350.996 228.978C350.878 228.421 350.651 227.948 350.314 227.559C349.984 227.163 349.577 226.862 349.093 226.657C348.616 226.452 348.106 226.342 347.564 226.327C347.036 226.32 346.544 226.4 346.09 226.569C345.642 226.73 345.279 226.965 345.001 227.273C344.729 227.581 344.594 227.94 344.594 228.351C344.594 228.74 344.711 229.059 344.946 229.308C345.18 229.55 345.47 229.744 345.815 229.891C346.167 230.03 346.522 230.148 346.882 230.243L349.72 231.035C350.108 231.138 350.545 231.277 351.029 231.453C351.513 231.629 351.978 231.875 352.426 232.19C352.873 232.505 353.24 232.92 353.526 233.433C353.819 233.946 353.966 234.599 353.966 235.391C353.966 236.212 353.793 236.935 353.449 237.558C353.111 238.174 352.653 238.687 352.074 239.098C351.494 239.509 350.831 239.817 350.083 240.022C349.342 240.227 348.565 240.33 347.751 240.33ZM360.153 240V226.646H355.027V224.16H367.93V226.646H362.804V240H360.153ZM372.559 235.699C372.559 235.193 372.607 234.705 372.702 234.236C372.805 233.759 372.97 233.319 373.197 232.916C373.395 232.527 373.615 232.219 373.857 231.992C374.099 231.757 374.371 231.526 374.671 231.299C374.972 231.064 375.306 230.753 375.672 230.364C375.973 230.034 376.171 229.708 376.266 229.385C376.362 229.055 376.409 228.703 376.409 228.329C376.409 228.087 376.384 227.86 376.332 227.647C376.281 227.434 376.189 227.251 376.057 227.097C375.852 226.826 375.588 226.635 375.265 226.525C374.943 226.408 374.598 226.349 374.231 226.349C373.931 226.349 373.641 226.389 373.362 226.47C373.091 226.543 372.86 226.661 372.669 226.822C372.449 226.998 372.288 227.214 372.185 227.471C372.083 227.728 372.035 228.01 372.042 228.318H369.248C369.322 227.585 369.52 226.906 369.842 226.283C370.172 225.652 370.605 225.15 371.14 224.776C371.558 224.468 372.028 224.237 372.548 224.083C373.076 223.929 373.604 223.852 374.132 223.852C374.939 223.852 375.698 223.977 376.409 224.226C377.128 224.475 377.726 224.886 378.202 225.458C378.532 225.832 378.782 226.265 378.95 226.756C379.126 227.247 379.214 227.746 379.214 228.252C379.214 229.007 379.049 229.697 378.719 230.32C378.397 230.943 377.986 231.519 377.487 232.047C377.253 232.296 377.029 232.516 376.816 232.707C376.604 232.898 376.406 233.085 376.222 233.268C376.046 233.444 375.9 233.631 375.782 233.829C375.577 234.174 375.456 234.467 375.419 234.709C375.383 234.944 375.364 235.274 375.364 235.699H372.559ZM372.581 240V237.085H375.364V240H372.581Z" fill="white"></path> <rect x="20" y="20" width="222" height="40" rx="20" fill="white" fill-opacity="0.3"></rect> <path d="M38.3482 46.24C37.2015 46.24 36.2282 45.9867 35.4282 45.48C34.6282 44.9733 34.0175 44.2693 33.5962 43.368C33.1802 42.4667 32.9722 41.424 32.9722 40.24C32.9722 39.056 33.1802 38.0133 33.5962 37.112C34.0175 36.2107 34.6282 35.5067 35.4282 35C36.2282 34.4933 37.2015 34.24 38.3482 34.24C39.6815 34.24 40.7775 34.5787 41.6362 35.256C42.5002 35.9333 43.0949 36.8453 43.4202 37.992L41.9722 38.376C41.7375 37.5173 41.3189 36.84 40.7162 36.344C40.1135 35.848 39.3242 35.6 38.3482 35.6C37.4895 35.6 36.7749 35.7947 36.2042 36.184C35.6335 36.5733 35.2042 37.1173 34.9162 37.816C34.6282 38.5093 34.4815 39.3173 34.4762 40.24C34.4709 41.1573 34.6122 41.9653 34.9002 42.664C35.1882 43.3573 35.6202 43.9013 36.1962 44.296C36.7722 44.6853 37.4895 44.88 38.3482 44.88C39.3242 44.88 40.1135 44.632 40.7162 44.136C41.3189 43.6347 41.7375 42.9573 41.9722 42.104L43.4202 42.488C43.0949 43.6293 42.5002 44.5413 41.6362 45.224C40.7775 45.9013 39.6815 46.24 38.3482 46.24ZM45.1747 46V34.48H46.5987V39.56H52.6627V34.48H54.0867V46H52.6627V40.912H46.5987V46H45.1747ZM56.4909 46V34.48H57.9149V46H56.4909ZM60.4753 46V34.48H61.8993V44.648H67.2433V46H60.4753ZM68.7566 46V34.48H70.1806V44.648H75.5246V46H68.7566ZM83.0281 46.24C82.3881 46.24 81.7907 46.1467 81.2361 45.96C80.6814 45.7733 80.2174 45.48 79.8441 45.08C79.5561 44.76 79.3401 44.408 79.1961 44.024C79.0574 43.6347 78.9801 43.224 78.9641 42.792C78.9641 42.3707 79.0254 41.96 79.1481 41.56C79.2707 41.1547 79.4654 40.7947 79.7321 40.48C79.8707 40.3093 80.0254 40.1653 80.1961 40.048C80.3721 39.9253 80.5481 39.8213 80.7241 39.736C80.3561 39.3413 80.0734 38.9707 79.8761 38.624C79.6841 38.2773 79.5881 37.8587 79.5881 37.368C79.5881 36.744 79.7481 36.1813 80.0681 35.68C80.3934 35.1733 80.8361 34.8027 81.3961 34.568C81.6681 34.4507 81.9454 34.3707 82.2281 34.328C82.5161 34.28 82.7961 34.256 83.0681 34.256C83.5267 34.256 83.9721 34.32 84.4041 34.448C84.8361 34.576 85.2041 34.784 85.5081 35.072C85.7107 35.2427 85.8841 35.44 86.0281 35.664C86.1721 35.8827 86.2841 36.112 86.3641 36.352L84.9721 36.712C84.8707 36.44 84.7027 36.2107 84.4681 36.024C84.2814 35.864 84.0627 35.7547 83.8121 35.696C83.5667 35.6373 83.3187 35.608 83.0681 35.608C82.6521 35.608 82.2761 35.688 81.9401 35.848C81.6414 35.992 81.4174 36.1947 81.2681 36.456C81.1187 36.712 81.0441 37.016 81.0441 37.368C81.0441 37.672 81.0947 37.9227 81.1961 38.12C81.3027 38.312 81.4494 38.5173 81.6361 38.736C81.7481 38.8533 81.8734 38.9787 82.0121 39.112C82.1561 39.24 82.3027 39.3733 82.4521 39.512L85.8441 42.664C85.8601 42.5307 85.8707 42.3947 85.8761 42.256C85.8814 42.1173 85.8841 41.984 85.8841 41.856L85.8761 40.264H87.1801V42.136C87.1801 42.5147 87.1667 42.8373 87.1401 43.104C87.1187 43.3707 87.0814 43.592 87.0281 43.768L88.4921 45.12L87.5641 46.112L86.3481 44.96C86.1401 45.1947 85.8921 45.4 85.6041 45.576C85.3161 45.752 85.0281 45.8853 84.7401 45.976C84.4681 46.0773 84.1881 46.1467 83.9001 46.184C83.6121 46.2213 83.3214 46.24 83.0281 46.24ZM83.0601 44.872C83.3214 44.872 83.5587 44.856 83.7721 44.824C83.9854 44.792 84.1881 44.7307 84.3801 44.64C84.6361 44.5173 84.8334 44.4 84.9721 44.288C85.1107 44.176 85.2254 44.072 85.3161 43.976L81.8041 40.76C81.6121 40.824 81.4307 40.9093 81.2601 41.016C81.0947 41.1227 80.9507 41.248 80.8281 41.392C80.6894 41.5627 80.5854 41.7627 80.5161 41.992C80.4521 42.2213 80.4201 42.464 80.4201 42.72C80.4254 42.992 80.4707 43.2427 80.5561 43.472C80.6414 43.7013 80.7614 43.9067 80.9161 44.088C81.1507 44.36 81.4681 44.56 81.8681 44.688C82.2681 44.8107 82.6654 44.872 83.0601 44.872ZM93.0028 46V34.48H100.283V35.832H94.4268V39.44H99.3228V40.792H94.4268V44.648H100.283V46H93.0028ZM102.206 46V34.48H103.646L109.654 43.48V34.48H111.094V46H109.654L103.646 36.992V46H102.206ZM116.299 46V35.832H112.371V34.48H121.651V35.832H117.723V46H116.299ZM122.925 46V34.48H130.205V35.832H124.349V39.44H129.245V40.792H124.349V44.648H130.205V46H122.925ZM132.128 46V34.48H136.68C136.792 34.48 136.925 34.4853 137.08 34.496C137.234 34.5013 137.384 34.5173 137.528 34.544C138.152 34.64 138.674 34.8533 139.096 35.184C139.522 35.5147 139.842 35.9333 140.056 36.44C140.269 36.9413 140.376 37.4987 140.376 38.112C140.376 39.0027 140.144 39.776 139.68 40.432C139.216 41.0827 138.536 41.4907 137.64 41.656L137.096 41.744H133.552V46H132.128ZM138.984 46L136.712 41.312L138.12 40.88L140.616 46H138.984ZM133.552 40.392H136.632C136.733 40.392 136.848 40.3867 136.976 40.376C137.109 40.3653 137.234 40.3467 137.352 40.32C137.72 40.2347 138.018 40.08 138.248 39.856C138.482 39.6267 138.653 39.36 138.76 39.056C138.866 38.7467 138.92 38.432 138.92 38.112C138.92 37.792 138.866 37.48 138.76 37.176C138.653 36.8667 138.482 36.5973 138.248 36.368C138.018 36.1387 137.72 35.984 137.352 35.904C137.234 35.872 137.109 35.8533 136.976 35.848C136.848 35.8373 136.733 35.832 136.632 35.832H133.552V40.392ZM145.346 46V35.832H141.418V34.48H150.698V35.832H146.77V46H145.346ZM150.859 46L154.715 34.48H156.699L160.555 46H159.075L155.467 35.312H155.915L152.339 46H150.859ZM152.715 43.304V41.968H158.699V43.304H152.715ZM162.147 46V34.48H163.571V46H162.147ZM165.972 46V34.48H167.412L173.42 43.48V34.48H174.86V46H173.42L167.412 36.992V46H165.972ZM177.097 46V34.48H178.393L182.745 43.656L187.073 34.48H188.385V45.992H187.033V37.608L183.121 46H182.361L178.449 37.608V46H177.097ZM190.628 46V34.48H197.908V35.832H192.052V39.44H196.948V40.792H192.052V44.648H197.908V46H190.628ZM199.831 46V34.48H201.271L207.279 43.48V34.48H208.719V46H207.279L201.271 36.992V46H199.831ZM213.924 46V35.832H209.996V34.48H219.276V35.832H215.348V46H213.924ZM224.638 46.24C223.822 46.24 223.086 46.1013 222.43 45.824C221.779 45.5467 221.24 45.152 220.814 44.64C220.392 44.1227 220.118 43.512 219.99 42.808L221.462 42.576C221.648 43.3013 222.035 43.8693 222.622 44.28C223.214 44.6853 223.91 44.888 224.71 44.888C225.227 44.888 225.694 44.808 226.11 44.648C226.531 44.4827 226.864 44.248 227.11 43.944C227.355 43.64 227.478 43.28 227.478 42.864C227.478 42.608 227.432 42.3893 227.342 42.208C227.256 42.0213 227.136 41.864 226.982 41.736C226.832 41.6027 226.662 41.4907 226.47 41.4C226.278 41.3093 226.078 41.2347 225.87 41.176L222.934 40.304C222.614 40.208 222.304 40.088 222.006 39.944C221.707 39.7947 221.44 39.6107 221.206 39.392C220.971 39.168 220.784 38.9013 220.646 38.592C220.507 38.2773 220.438 37.9067 220.438 37.48C220.438 36.7973 220.614 36.216 220.966 35.736C221.323 35.2507 221.806 34.88 222.414 34.624C223.022 34.368 223.707 34.2427 224.47 34.248C225.243 34.2533 225.934 34.392 226.542 34.664C227.155 34.9307 227.662 35.3147 228.062 35.816C228.467 36.3173 228.739 36.9173 228.878 37.616L227.366 37.88C227.286 37.4107 227.107 37.008 226.83 36.672C226.558 36.3307 226.216 36.0693 225.806 35.888C225.395 35.7013 224.944 35.6053 224.454 35.6C223.984 35.5947 223.56 35.6693 223.182 35.824C222.803 35.9787 222.502 36.1947 222.278 36.472C222.054 36.744 221.942 37.0587 221.942 37.416C221.942 37.768 222.043 38.0533 222.246 38.272C222.448 38.4853 222.696 38.656 222.99 38.784C223.288 38.9067 223.579 39.008 223.862 39.088L226.054 39.72C226.304 39.7893 226.592 39.8853 226.918 40.008C227.248 40.1307 227.568 40.304 227.878 40.528C228.187 40.7467 228.443 41.04 228.646 41.408C228.848 41.7707 228.95 42.2293 228.95 42.784C228.95 43.3387 228.838 43.832 228.614 44.264C228.395 44.696 228.088 45.0587 227.694 45.352C227.299 45.64 226.84 45.8587 226.318 46.008C225.795 46.1627 225.235 46.24 224.638 46.24Z" fill="white"></path> <defs> <linearGradient id="paint0_linear_160_210" x1="300" y1="0" x2="300" y2="400" gradientUnits="userSpaceOnUse"> <stop stop-color="#FF9A8B"></stop> <stop offset="1" stop-color="#6148AA"></stop> </linearGradient> </defs> </svg> 