<?xml version="1.0" encoding="UTF-8"?> <svg xmlns="http://www.w3.org/2000/svg" width="600" height="400" viewBox="0 0 600 400" fill="none"> <rect width="600" height="400" rx="20" fill="url(#paint0_linear_160_215)"></rect> <path d="M111.965 209L107.334 193.16H110.117L113.274 204.6L116.42 193.182L119.203 193.16L122.36 204.6L125.506 193.16H128.289L123.669 209H121.051L117.806 197.736L114.583 209H111.965ZM130.084 209V193.16H132.735V199.826H140.237V193.16H142.877V209H140.237V202.312H132.735V209H130.084ZM144.861 209L149.855 193.16H153.738L158.732 209H156.004L151.472 194.788H152.066L147.589 209H144.861ZM147.644 205.568V203.093H155.96V205.568H147.644ZM163.216 209V195.646H158.09V193.16H170.993V195.646H165.867V209H163.216ZM176.71 209V193.16H179.361V209H176.71ZM188.519 209.33C187.361 209.33 186.316 209.128 185.384 208.725C184.46 208.322 183.698 207.746 183.096 206.998C182.502 206.243 182.125 205.348 181.963 204.314L184.713 203.896C184.948 204.835 185.428 205.561 186.154 206.074C186.888 206.587 187.731 206.844 188.684 206.844C189.249 206.844 189.781 206.756 190.279 206.58C190.778 206.404 191.181 206.147 191.489 205.81C191.805 205.473 191.962 205.058 191.962 204.567C191.962 204.347 191.926 204.145 191.852 203.962C191.779 203.771 191.669 203.603 191.522 203.456C191.383 203.309 191.2 203.177 190.972 203.06C190.752 202.935 190.496 202.829 190.202 202.741L186.11 201.531C185.758 201.428 185.377 201.293 184.966 201.124C184.563 200.948 184.178 200.71 183.811 200.409C183.452 200.101 183.155 199.712 182.92 199.243C182.693 198.766 182.579 198.18 182.579 197.483C182.579 196.464 182.836 195.609 183.349 194.92C183.87 194.223 184.567 193.703 185.439 193.358C186.319 193.013 187.295 192.845 188.365 192.852C189.451 192.859 190.419 193.046 191.269 193.413C192.12 193.772 192.831 194.297 193.403 194.986C193.975 195.675 194.379 196.508 194.613 197.483L191.764 197.978C191.647 197.421 191.42 196.948 191.082 196.559C190.752 196.163 190.345 195.862 189.861 195.657C189.385 195.452 188.875 195.342 188.332 195.327C187.804 195.32 187.313 195.4 186.858 195.569C186.411 195.73 186.048 195.965 185.769 196.273C185.498 196.581 185.362 196.94 185.362 197.351C185.362 197.74 185.48 198.059 185.714 198.308C185.949 198.55 186.239 198.744 186.583 198.891C186.935 199.03 187.291 199.148 187.65 199.243L190.488 200.035C190.877 200.138 191.313 200.277 191.797 200.453C192.281 200.629 192.747 200.875 193.194 201.19C193.642 201.505 194.008 201.92 194.294 202.433C194.588 202.946 194.734 203.599 194.734 204.391C194.734 205.212 194.562 205.935 194.217 206.558C193.88 207.174 193.422 207.687 192.842 208.098C192.263 208.509 191.599 208.817 190.851 209.022C190.111 209.227 189.333 209.33 188.519 209.33ZM205.369 209V202.51L199.979 193.16H203.07L206.711 199.474L210.341 193.16H213.432L208.053 202.51V209H205.369ZM220.787 209.33C219.203 209.33 217.846 208.985 216.717 208.296C215.588 207.599 214.719 206.631 214.11 205.392C213.509 204.153 213.208 202.715 213.208 201.08C213.208 199.445 213.509 198.007 214.11 196.768C214.719 195.529 215.588 194.564 216.717 193.875C217.846 193.178 219.203 192.83 220.787 192.83C222.371 192.83 223.728 193.178 224.857 193.875C225.994 194.564 226.863 195.529 227.464 196.768C228.073 198.007 228.377 199.445 228.377 201.08C228.377 202.715 228.073 204.153 227.464 205.392C226.863 206.631 225.994 207.599 224.857 208.296C223.728 208.985 222.371 209.33 220.787 209.33ZM220.787 206.833C221.85 206.84 222.734 206.606 223.438 206.129C224.149 205.652 224.681 204.981 225.033 204.116C225.392 203.251 225.572 202.239 225.572 201.08C225.572 199.921 225.392 198.917 225.033 198.066C224.681 197.208 224.149 196.541 223.438 196.064C222.734 195.587 221.85 195.342 220.787 195.327C219.724 195.32 218.84 195.554 218.136 196.031C217.432 196.508 216.9 197.179 216.541 198.044C216.189 198.909 216.013 199.921 216.013 201.08C216.013 202.239 216.189 203.247 216.541 204.105C216.893 204.956 217.421 205.619 218.125 206.096C218.836 206.573 219.724 206.818 220.787 206.833ZM236.946 209.33C235.685 209.33 234.574 209.073 233.613 208.56C232.66 208.047 231.912 207.324 231.369 206.393C230.834 205.462 230.566 204.369 230.566 203.115V193.182L233.25 193.16V203.049C233.25 203.643 233.349 204.175 233.547 204.644C233.753 205.113 234.028 205.513 234.372 205.843C234.717 206.166 235.113 206.411 235.56 206.58C236.008 206.749 236.47 206.833 236.946 206.833C237.438 206.833 237.903 206.749 238.343 206.58C238.791 206.404 239.187 206.155 239.531 205.832C239.876 205.502 240.147 205.102 240.345 204.633C240.543 204.164 240.642 203.636 240.642 203.049V193.16H243.326V203.115C243.326 204.369 243.055 205.462 242.512 206.393C241.977 207.324 241.229 208.047 240.268 208.56C239.315 209.073 238.208 209.33 236.946 209.33ZM246.4 209V193.16H252.945C253.099 193.16 253.297 193.167 253.539 193.182C253.781 193.189 254.005 193.211 254.21 193.248C255.127 193.387 255.882 193.692 256.476 194.161C257.078 194.63 257.521 195.224 257.807 195.943C258.101 196.654 258.247 197.446 258.247 198.319C258.247 199.61 257.921 200.721 257.268 201.652C256.616 202.576 255.615 203.148 254.265 203.368L253.132 203.467H249.051V209H246.4ZM255.497 209L252.373 202.554L255.068 201.96L258.5 209H255.497ZM249.051 200.992H252.835C252.982 200.992 253.147 200.985 253.33 200.97C253.514 200.955 253.682 200.926 253.836 200.882C254.276 200.772 254.621 200.578 254.87 200.299C255.127 200.02 255.307 199.705 255.409 199.353C255.519 199.001 255.574 198.656 255.574 198.319C255.574 197.982 255.519 197.637 255.409 197.285C255.307 196.926 255.127 196.607 254.87 196.328C254.621 196.049 254.276 195.855 253.836 195.745C253.682 195.701 253.514 195.675 253.33 195.668C253.147 195.653 252.982 195.646 252.835 195.646H249.051V200.992ZM268.672 209L264.041 193.16H266.824L269.981 204.6L273.127 193.182L275.91 193.16L279.067 204.6L282.213 193.16H284.996L280.376 209H277.758L274.513 197.736L271.29 209H268.672ZM293.06 209.33C291.476 209.33 290.12 208.985 288.99 208.296C287.861 207.599 286.992 206.631 286.383 205.392C285.782 204.153 285.481 202.715 285.481 201.08C285.481 199.445 285.782 198.007 286.383 196.768C286.992 195.529 287.861 194.564 288.99 193.875C290.12 193.178 291.476 192.83 293.06 192.83C294.644 192.83 296.001 193.178 297.13 193.875C298.267 194.564 299.136 195.529 299.737 196.768C300.346 198.007 300.65 199.445 300.65 201.08C300.65 202.715 300.346 204.153 299.737 205.392C299.136 206.631 298.267 207.599 297.13 208.296C296.001 208.985 294.644 209.33 293.06 209.33ZM293.06 206.833C294.124 206.84 295.007 206.606 295.711 206.129C296.423 205.652 296.954 204.981 297.306 204.116C297.666 203.251 297.845 202.239 297.845 201.08C297.845 199.921 297.666 198.917 297.306 198.066C296.954 197.208 296.423 196.541 295.711 196.064C295.007 195.587 294.124 195.342 293.06 195.327C291.997 195.32 291.113 195.554 290.409 196.031C289.705 196.508 289.174 197.179 288.814 198.044C288.462 198.909 288.286 199.921 288.286 201.08C288.286 202.239 288.462 203.247 288.814 204.105C289.166 204.956 289.694 205.619 290.398 206.096C291.11 206.573 291.997 206.818 293.06 206.833ZM302.84 209V193.16H309.385C309.539 193.16 309.737 193.167 309.979 193.182C310.221 193.189 310.444 193.211 310.65 193.248C311.566 193.387 312.322 193.692 312.916 194.161C313.517 194.63 313.961 195.224 314.247 195.943C314.54 196.654 314.687 197.446 314.687 198.319C314.687 199.61 314.36 200.721 313.708 201.652C313.055 202.576 312.054 203.148 310.705 203.368L309.572 203.467H305.491V209H302.84ZM311.937 209L308.813 202.554L311.508 201.96L314.94 209H311.937ZM305.491 200.992H309.275C309.421 200.992 309.586 200.985 309.77 200.97C309.953 200.955 310.122 200.926 310.276 200.882C310.716 200.772 311.06 200.578 311.31 200.299C311.566 200.02 311.746 199.705 311.849 199.353C311.959 199.001 312.014 198.656 312.014 198.319C312.014 197.982 311.959 197.637 311.849 197.285C311.746 196.926 311.566 196.607 311.31 196.328C311.06 196.049 310.716 195.855 310.276 195.745C310.122 195.701 309.953 195.675 309.77 195.668C309.586 195.653 309.421 195.646 309.275 195.646H305.491V200.992ZM317.363 209V193.16H320.014V200.508L326.339 193.16H329.595L322.786 200.926L330.057 209H326.691L320.014 201.608V209H317.363ZM335.802 209V193.16H338.453V206.514H345.449V209H335.802ZM347.532 209V193.16H350.183V209H347.532ZM353.478 209V193.16H363.015V195.811H356.129V199.76H361.695V202.4H356.129V209H353.478ZM364.994 209V193.16H375.224V195.646H367.645V199.551H373.904V202.037H367.645V206.514H375.224V209H364.994ZM382.268 209V193.16H388.549C389.619 193.16 390.496 193.376 391.178 193.809C391.867 194.234 392.377 194.781 392.707 195.448C393.044 196.115 393.213 196.805 393.213 197.516C393.213 198.389 393.004 199.129 392.586 199.738C392.175 200.347 391.614 200.757 390.903 200.97V200.42C391.9 200.647 392.655 201.12 393.169 201.839C393.689 202.558 393.95 203.375 393.95 204.292C393.95 205.231 393.77 206.052 393.411 206.756C393.051 207.46 392.516 208.01 391.805 208.406C391.101 208.802 390.228 209 389.187 209H382.268ZM384.952 206.503H388.857C389.319 206.503 389.733 206.411 390.1 206.228C390.466 206.037 390.752 205.773 390.958 205.436C391.17 205.091 391.277 204.684 391.277 204.215C391.277 203.79 391.185 203.408 391.002 203.071C390.818 202.734 390.551 202.466 390.199 202.268C389.847 202.063 389.425 201.96 388.934 201.96H384.952V206.503ZM384.952 199.485H388.516C388.897 199.485 389.238 199.412 389.539 199.265C389.839 199.118 390.078 198.902 390.254 198.616C390.43 198.33 390.518 197.978 390.518 197.56C390.518 197.01 390.342 196.552 389.99 196.185C389.638 195.818 389.146 195.635 388.516 195.635H384.952V199.485ZM395.046 209L400.04 193.16H403.923L408.917 209H406.189L401.657 194.788H402.251L397.774 209H395.046ZM397.829 205.568V203.093H406.145V205.568H397.829ZM411.126 209V193.16H413.777V206.514H420.773V209H411.126ZM421.537 209L426.531 193.16H430.414L435.408 209H432.68L428.148 194.788H428.742L424.265 209H421.537ZM424.32 205.568V203.093H432.636V205.568H424.32ZM437.396 209V193.16H440.08L447.428 204.325V193.16H450.112V209H447.428L440.08 197.835V209H437.396ZM459.886 209.33C458.302 209.33 456.946 208.985 455.816 208.296C454.687 207.599 453.818 206.631 453.209 205.392C452.608 204.153 452.307 202.715 452.307 201.08C452.307 199.445 452.608 198.007 453.209 196.768C453.818 195.529 454.687 194.564 455.816 193.875C456.946 193.178 458.302 192.83 459.886 192.83C461.712 192.83 463.234 193.288 464.451 194.205C465.669 195.114 466.523 196.343 467.014 197.89L464.341 198.627C464.033 197.593 463.509 196.786 462.768 196.207C462.028 195.62 461.067 195.327 459.886 195.327C458.823 195.327 457.936 195.565 457.224 196.042C456.52 196.519 455.989 197.19 455.629 198.055C455.277 198.913 455.098 199.921 455.09 201.08C455.09 202.239 455.266 203.251 455.618 204.116C455.978 204.974 456.513 205.641 457.224 206.118C457.936 206.595 458.823 206.833 459.886 206.833C461.067 206.833 462.028 206.54 462.768 205.953C463.509 205.366 464.033 204.56 464.341 203.533L467.014 204.27C466.523 205.817 465.669 207.049 464.451 207.966C463.234 208.875 461.712 209.33 459.886 209.33ZM469.43 209V193.16H479.66V195.646H472.081V199.551H478.34V202.037H472.081V206.514H479.66V209H469.43ZM485.17 204.699C485.17 204.193 485.217 203.705 485.313 203.236C485.415 202.759 485.58 202.319 485.808 201.916C486.006 201.527 486.226 201.219 486.468 200.992C486.71 200.757 486.981 200.526 487.282 200.299C487.582 200.064 487.916 199.753 488.283 199.364C488.583 199.034 488.781 198.708 488.877 198.385C488.972 198.055 489.02 197.703 489.02 197.329C489.02 197.087 488.994 196.86 488.943 196.647C488.891 196.434 488.8 196.251 488.668 196.097C488.462 195.826 488.198 195.635 487.876 195.525C487.553 195.408 487.208 195.349 486.842 195.349C486.541 195.349 486.251 195.389 485.973 195.47C485.701 195.543 485.47 195.661 485.28 195.822C485.06 195.998 484.898 196.214 484.796 196.471C484.693 196.728 484.645 197.01 484.653 197.318H481.859C481.932 196.585 482.13 195.906 482.453 195.283C482.783 194.652 483.215 194.15 483.751 193.776C484.169 193.468 484.638 193.237 485.159 193.083C485.687 192.929 486.215 192.852 486.743 192.852C487.549 192.852 488.308 192.977 489.02 193.226C489.738 193.475 490.336 193.886 490.813 194.458C491.143 194.832 491.392 195.265 491.561 195.756C491.737 196.247 491.825 196.746 491.825 197.252C491.825 198.007 491.66 198.697 491.33 199.32C491.007 199.943 490.596 200.519 490.098 201.047C489.863 201.296 489.639 201.516 489.427 201.707C489.214 201.898 489.016 202.085 488.833 202.268C488.657 202.444 488.51 202.631 488.393 202.829C488.187 203.174 488.066 203.467 488.03 203.709C487.993 203.944 487.975 204.274 487.975 204.699H485.17ZM485.192 209V206.085H487.975V209H485.192Z" fill="white"></path> <rect x="20" y="20" width="222" height="40" rx="20" fill="white" fill-opacity="0.3"></rect> <path d="M38.3482 46.24C37.2015 46.24 36.2282 45.9867 35.4282 45.48C34.6282 44.9733 34.0175 44.2693 33.5962 43.368C33.1802 42.4667 32.9722 41.424 32.9722 40.24C32.9722 39.056 33.1802 38.0133 33.5962 37.112C34.0175 36.2107 34.6282 35.5067 35.4282 35C36.2282 34.4933 37.2015 34.24 38.3482 34.24C39.6815 34.24 40.7775 34.5787 41.6362 35.256C42.5002 35.9333 43.0949 36.8453 43.4202 37.992L41.9722 38.376C41.7375 37.5173 41.3189 36.84 40.7162 36.344C40.1135 35.848 39.3242 35.6 38.3482 35.6C37.4895 35.6 36.7749 35.7947 36.2042 36.184C35.6335 36.5733 35.2042 37.1173 34.9162 37.816C34.6282 38.5093 34.4815 39.3173 34.4762 40.24C34.4709 41.1573 34.6122 41.9653 34.9002 42.664C35.1882 43.3573 35.6202 43.9013 36.1962 44.296C36.7722 44.6853 37.4895 44.88 38.3482 44.88C39.3242 44.88 40.1135 44.632 40.7162 44.136C41.3189 43.6347 41.7375 42.9573 41.9722 42.104L43.4202 42.488C43.0949 43.6293 42.5002 44.5413 41.6362 45.224C40.7775 45.9013 39.6815 46.24 38.3482 46.24ZM45.1747 46V34.48H46.5987V39.56H52.6627V34.48H54.0867V46H52.6627V40.912H46.5987V46H45.1747ZM56.4909 46V34.48H57.9149V46H56.4909ZM60.4753 46V34.48H61.8993V44.648H67.2433V46H60.4753ZM68.7566 46V34.48H70.1806V44.648H75.5246V46H68.7566ZM83.0281 46.24C82.3881 46.24 81.7907 46.1467 81.2361 45.96C80.6814 45.7733 80.2174 45.48 79.8441 45.08C79.5561 44.76 79.3401 44.408 79.1961 44.024C79.0574 43.6347 78.9801 43.224 78.9641 42.792C78.9641 42.3707 79.0254 41.96 79.1481 41.56C79.2707 41.1547 79.4654 40.7947 79.7321 40.48C79.8707 40.3093 80.0254 40.1653 80.1961 40.048C80.3721 39.9253 80.5481 39.8213 80.7241 39.736C80.3561 39.3413 80.0734 38.9707 79.8761 38.624C79.6841 38.2773 79.5881 37.8587 79.5881 37.368C79.5881 36.744 79.7481 36.1813 80.0681 35.68C80.3934 35.1733 80.8361 34.8027 81.3961 34.568C81.6681 34.4507 81.9454 34.3707 82.2281 34.328C82.5161 34.28 82.7961 34.256 83.0681 34.256C83.5267 34.256 83.9721 34.32 84.4041 34.448C84.8361 34.576 85.2041 34.784 85.5081 35.072C85.7107 35.2427 85.8841 35.44 86.0281 35.664C86.1721 35.8827 86.2841 36.112 86.3641 36.352L84.9721 36.712C84.8707 36.44 84.7027 36.2107 84.4681 36.024C84.2814 35.864 84.0627 35.7547 83.8121 35.696C83.5667 35.6373 83.3187 35.608 83.0681 35.608C82.6521 35.608 82.2761 35.688 81.9401 35.848C81.6414 35.992 81.4174 36.1947 81.2681 36.456C81.1187 36.712 81.0441 37.016 81.0441 37.368C81.0441 37.672 81.0947 37.9227 81.1961 38.12C81.3027 38.312 81.4494 38.5173 81.6361 38.736C81.7481 38.8533 81.8734 38.9787 82.0121 39.112C82.1561 39.24 82.3027 39.3733 82.4521 39.512L85.8441 42.664C85.8601 42.5307 85.8707 42.3947 85.8761 42.256C85.8814 42.1173 85.8841 41.984 85.8841 41.856L85.8761 40.264H87.1801V42.136C87.1801 42.5147 87.1667 42.8373 87.1401 43.104C87.1187 43.3707 87.0814 43.592 87.0281 43.768L88.4921 45.12L87.5641 46.112L86.3481 44.96C86.1401 45.1947 85.8921 45.4 85.6041 45.576C85.3161 45.752 85.0281 45.8853 84.7401 45.976C84.4681 46.0773 84.1881 46.1467 83.9001 46.184C83.6121 46.2213 83.3214 46.24 83.0281 46.24ZM83.0601 44.872C83.3214 44.872 83.5587 44.856 83.7721 44.824C83.9854 44.792 84.1881 44.7307 84.3801 44.64C84.6361 44.5173 84.8334 44.4 84.9721 44.288C85.1107 44.176 85.2254 44.072 85.3161 43.976L81.8041 40.76C81.6121 40.824 81.4307 40.9093 81.2601 41.016C81.0947 41.1227 80.9507 41.248 80.8281 41.392C80.6894 41.5627 80.5854 41.7627 80.5161 41.992C80.4521 42.2213 80.4201 42.464 80.4201 42.72C80.4254 42.992 80.4707 43.2427 80.5561 43.472C80.6414 43.7013 80.7614 43.9067 80.9161 44.088C81.1507 44.36 81.4681 44.56 81.8681 44.688C82.2681 44.8107 82.6654 44.872 83.0601 44.872ZM93.0028 46V34.48H100.283V35.832H94.4268V39.44H99.3228V40.792H94.4268V44.648H100.283V46H93.0028ZM102.206 46V34.48H103.646L109.654 43.48V34.48H111.094V46H109.654L103.646 36.992V46H102.206ZM116.299 46V35.832H112.371V34.48H121.651V35.832H117.723V46H116.299ZM122.925 46V34.48H130.205V35.832H124.349V39.44H129.245V40.792H124.349V44.648H130.205V46H122.925ZM132.128 46V34.48H136.68C136.792 34.48 136.925 34.4853 137.08 34.496C137.234 34.5013 137.384 34.5173 137.528 34.544C138.152 34.64 138.674 34.8533 139.096 35.184C139.522 35.5147 139.842 35.9333 140.056 36.44C140.269 36.9413 140.376 37.4987 140.376 38.112C140.376 39.0027 140.144 39.776 139.68 40.432C139.216 41.0827 138.536 41.4907 137.64 41.656L137.096 41.744H133.552V46H132.128ZM138.984 46L136.712 41.312L138.12 40.88L140.616 46H138.984ZM133.552 40.392H136.632C136.733 40.392 136.848 40.3867 136.976 40.376C137.109 40.3653 137.234 40.3467 137.352 40.32C137.72 40.2347 138.018 40.08 138.248 39.856C138.482 39.6267 138.653 39.36 138.76 39.056C138.866 38.7467 138.92 38.432 138.92 38.112C138.92 37.792 138.866 37.48 138.76 37.176C138.653 36.8667 138.482 36.5973 138.248 36.368C138.018 36.1387 137.72 35.984 137.352 35.904C137.234 35.872 137.109 35.8533 136.976 35.848C136.848 35.8373 136.733 35.832 136.632 35.832H133.552V40.392ZM145.346 46V35.832H141.418V34.48H150.698V35.832H146.77V46H145.346ZM150.859 46L154.715 34.48H156.699L160.555 46H159.075L155.467 35.312H155.915L152.339 46H150.859ZM152.715 43.304V41.968H158.699V43.304H152.715ZM162.147 46V34.48H163.571V46H162.147ZM165.972 46V34.48H167.412L173.42 43.48V34.48H174.86V46H173.42L167.412 36.992V46H165.972ZM177.097 46V34.48H178.393L182.745 43.656L187.073 34.48H188.385V45.992H187.033V37.608L183.121 46H182.361L178.449 37.608V46H177.097ZM190.628 46V34.48H197.908V35.832H192.052V39.44H196.948V40.792H192.052V44.648H197.908V46H190.628ZM199.831 46V34.48H201.271L207.279 43.48V34.48H208.719V46H207.279L201.271 36.992V46H199.831ZM213.924 46V35.832H209.996V34.48H219.276V35.832H215.348V46H213.924ZM224.638 46.24C223.822 46.24 223.086 46.1013 222.43 45.824C221.779 45.5467 221.24 45.152 220.814 44.64C220.392 44.1227 220.118 43.512 219.99 42.808L221.462 42.576C221.648 43.3013 222.035 43.8693 222.622 44.28C223.214 44.6853 223.91 44.888 224.71 44.888C225.227 44.888 225.694 44.808 226.11 44.648C226.531 44.4827 226.864 44.248 227.11 43.944C227.355 43.64 227.478 43.28 227.478 42.864C227.478 42.608 227.432 42.3893 227.342 42.208C227.256 42.0213 227.136 41.864 226.982 41.736C226.832 41.6027 226.662 41.4907 226.47 41.4C226.278 41.3093 226.078 41.2347 225.87 41.176L222.934 40.304C222.614 40.208 222.304 40.088 222.006 39.944C221.707 39.7947 221.44 39.6107 221.206 39.392C220.971 39.168 220.784 38.9013 220.646 38.592C220.507 38.2773 220.438 37.9067 220.438 37.48C220.438 36.7973 220.614 36.216 220.966 35.736C221.323 35.2507 221.806 34.88 222.414 34.624C223.022 34.368 223.707 34.2427 224.47 34.248C225.243 34.2533 225.934 34.392 226.542 34.664C227.155 34.9307 227.662 35.3147 228.062 35.816C228.467 36.3173 228.739 36.9173 228.878 37.616L227.366 37.88C227.286 37.4107 227.107 37.008 226.83 36.672C226.558 36.3307 226.216 36.0693 225.806 35.888C225.395 35.7013 224.944 35.6053 224.454 35.6C223.984 35.5947 223.56 35.6693 223.182 35.824C222.803 35.9787 222.502 36.1947 222.278 36.472C222.054 36.744 221.942 37.0587 221.942 37.416C221.942 37.768 222.043 38.0533 222.246 38.272C222.448 38.4853 222.696 38.656 222.99 38.784C223.288 38.9067 223.579 39.008 223.862 39.088L226.054 39.72C226.304 39.7893 226.592 39.8853 226.918 40.008C227.248 40.1307 227.568 40.304 227.878 40.528C228.187 40.7467 228.443 41.04 228.646 41.408C228.848 41.7707 228.95 42.2293 228.95 42.784C228.95 43.3387 228.838 43.832 228.614 44.264C228.395 44.696 228.088 45.0587 227.694 45.352C227.299 45.64 226.84 45.8587 226.318 46.008C225.795 46.1627 225.235 46.24 224.638 46.24Z" fill="white"></path> <defs> <linearGradient id="paint0_linear_160_215" x1="300" y1="0" x2="300" y2="400" gradientUnits="userSpaceOnUse"> <stop stop-color="#FF9A8B"></stop> <stop offset="1" stop-color="#6148AA"></stop> </linearGradient> </defs> </svg> 