<?xml version="1.0" encoding="UTF-8"?> <svg xmlns="http://www.w3.org/2000/svg" width="600" height="400" viewBox="0 0 600 400" fill="none"> <rect width="600" height="400" rx="20" fill="#FC8F58"></rect> <path d="M64.8531 322L69.8471 306.16H73.7301L78.7241 322H75.9961L71.4641 307.788H72.0581L67.5811 322H64.8531ZM67.6361 318.568V316.093H75.9521V318.568H67.6361ZM88.4611 322L83.8301 306.16H86.6131L89.7701 317.6L92.9161 306.182L95.6991 306.16L98.8561 317.6L102.002 306.16H104.785L100.165 322H97.5471L94.3021 310.736L91.0791 322H88.4611ZM112.849 322.33C111.265 322.33 109.909 321.985 108.779 321.296C107.65 320.599 106.781 319.631 106.172 318.392C105.571 317.153 105.27 315.715 105.27 314.08C105.27 312.445 105.571 311.007 106.172 309.768C106.781 308.529 107.65 307.564 108.779 306.875C109.909 306.178 111.265 305.83 112.849 305.83C114.433 305.83 115.79 306.178 116.919 306.875C118.056 307.564 118.925 308.529 119.526 309.768C120.135 311.007 120.439 312.445 120.439 314.08C120.439 315.715 120.135 317.153 119.526 318.392C118.925 319.631 118.056 320.599 116.919 321.296C115.79 321.985 114.433 322.33 112.849 322.33ZM112.849 319.833C113.913 319.84 114.796 319.606 115.5 319.129C116.212 318.652 116.743 317.981 117.095 317.116C117.455 316.251 117.634 315.239 117.634 314.08C117.634 312.921 117.455 311.917 117.095 311.066C116.743 310.208 116.212 309.541 115.5 309.064C114.796 308.587 113.913 308.342 112.849 308.327C111.786 308.32 110.902 308.554 110.198 309.031C109.494 309.508 108.963 310.179 108.603 311.044C108.251 311.909 108.075 312.921 108.075 314.08C108.075 315.239 108.251 316.247 108.603 317.105C108.955 317.956 109.483 318.619 110.187 319.096C110.899 319.573 111.786 319.818 112.849 319.833ZM122.629 322V306.16H125.016L130.494 317.38L135.972 306.16H138.359V322H135.884V311.847L131.022 322H129.966L125.115 311.847V322H122.629ZM140.349 322L145.343 306.16H149.226L154.22 322H151.492L146.96 307.788H147.554L143.077 322H140.349ZM143.132 318.568V316.093H151.448V318.568H143.132ZM156.209 322V306.16H158.893L166.241 317.325V306.16H168.925V322H166.241L158.893 310.835V322H156.209ZM172.33 311.792L172.484 310.648C172.821 310.677 173.089 310.622 173.287 310.483C173.485 310.336 173.617 310.135 173.683 309.878C173.756 309.614 173.775 309.317 173.738 308.987H172.33V306.16H175.047V309.097C175.047 310.058 174.82 310.784 174.365 311.275C173.91 311.766 173.232 311.939 172.33 311.792ZM183.019 322.33C181.861 322.33 180.816 322.128 179.884 321.725C178.96 321.322 178.198 320.746 177.596 319.998C177.002 319.243 176.625 318.348 176.463 317.314L179.213 316.896C179.448 317.835 179.928 318.561 180.654 319.074C181.388 319.587 182.231 319.844 183.184 319.844C183.749 319.844 184.281 319.756 184.779 319.58C185.278 319.404 185.681 319.147 185.989 318.81C186.305 318.473 186.462 318.058 186.462 317.567C186.462 317.347 186.426 317.145 186.352 316.962C186.279 316.771 186.169 316.603 186.022 316.456C185.883 316.309 185.7 316.177 185.472 316.06C185.252 315.935 184.996 315.829 184.702 315.741L180.61 314.531C180.258 314.428 179.877 314.293 179.466 314.124C179.063 313.948 178.678 313.71 178.311 313.409C177.952 313.101 177.655 312.712 177.42 312.243C177.193 311.766 177.079 311.18 177.079 310.483C177.079 309.464 177.336 308.609 177.849 307.92C178.37 307.223 179.067 306.703 179.939 306.358C180.819 306.013 181.795 305.845 182.865 305.852C183.951 305.859 184.919 306.046 185.769 306.413C186.62 306.772 187.331 307.297 187.903 307.986C188.475 308.675 188.879 309.508 189.113 310.483L186.264 310.978C186.147 310.421 185.92 309.948 185.582 309.559C185.252 309.163 184.845 308.862 184.361 308.657C183.885 308.452 183.375 308.342 182.832 308.327C182.304 308.32 181.813 308.4 181.358 308.569C180.911 308.73 180.548 308.965 180.269 309.273C179.998 309.581 179.862 309.94 179.862 310.351C179.862 310.74 179.98 311.059 180.214 311.308C180.449 311.55 180.739 311.744 181.083 311.891C181.435 312.03 181.791 312.148 182.15 312.243L184.988 313.035C185.377 313.138 185.813 313.277 186.297 313.453C186.781 313.629 187.247 313.875 187.694 314.19C188.142 314.505 188.508 314.92 188.794 315.433C189.088 315.946 189.234 316.599 189.234 317.391C189.234 318.212 189.062 318.935 188.717 319.558C188.38 320.174 187.922 320.687 187.342 321.098C186.763 321.509 186.099 321.817 185.351 322.022C184.611 322.227 183.833 322.33 183.019 322.33ZM196.019 322V306.16H202.564C202.718 306.16 202.916 306.167 203.158 306.182C203.4 306.189 203.624 306.211 203.829 306.248C204.746 306.387 205.501 306.692 206.095 307.161C206.697 307.63 207.14 308.224 207.426 308.943C207.72 309.654 207.866 310.446 207.866 311.319C207.866 312.61 207.54 313.721 206.887 314.652C206.235 315.576 205.234 316.148 203.884 316.368L202.751 316.467H198.67V322H196.019ZM205.116 322L201.992 315.554L204.687 314.96L208.119 322H205.116ZM198.67 313.992H202.454C202.601 313.992 202.766 313.985 202.949 313.97C203.133 313.955 203.301 313.926 203.455 313.882C203.895 313.772 204.24 313.578 204.489 313.299C204.746 313.02 204.926 312.705 205.028 312.353C205.138 312.001 205.193 311.656 205.193 311.319C205.193 310.982 205.138 310.637 205.028 310.285C204.926 309.926 204.746 309.607 204.489 309.328C204.24 309.049 203.895 308.855 203.455 308.745C203.301 308.701 203.133 308.675 202.949 308.668C202.766 308.653 202.601 308.646 202.454 308.646H198.67V313.992ZM217.242 322.33C215.658 322.33 214.301 321.985 213.172 321.296C212.043 320.599 211.174 319.631 210.565 318.392C209.964 317.153 209.663 315.715 209.663 314.08C209.663 312.445 209.964 311.007 210.565 309.768C211.174 308.529 212.043 307.564 213.172 306.875C214.301 306.178 215.658 305.83 217.242 305.83C218.826 305.83 220.183 306.178 221.312 306.875C222.449 307.564 223.318 308.529 223.919 309.768C224.528 311.007 224.832 312.445 224.832 314.08C224.832 315.715 224.528 317.153 223.919 318.392C223.318 319.631 222.449 320.599 221.312 321.296C220.183 321.985 218.826 322.33 217.242 322.33ZM217.242 319.833C218.305 319.84 219.189 319.606 219.893 319.129C220.604 318.652 221.136 317.981 221.488 317.116C221.847 316.251 222.027 315.239 222.027 314.08C222.027 312.921 221.847 311.917 221.488 311.066C221.136 310.208 220.604 309.541 219.893 309.064C219.189 308.587 218.305 308.342 217.242 308.327C216.179 308.32 215.295 308.554 214.591 309.031C213.887 309.508 213.355 310.179 212.996 311.044C212.644 311.909 212.468 312.921 212.468 314.08C212.468 315.239 212.644 316.247 212.996 317.105C213.348 317.956 213.876 318.619 214.58 319.096C215.291 319.573 216.179 319.818 217.242 319.833ZM227.241 322V306.16H229.892V319.514H236.888V322H227.241ZM238.752 322V306.16H248.982V308.646H241.403V312.551H247.662V315.037H241.403V319.514H248.982V322H238.752ZM256.245 322V306.16H258.896V322H256.245ZM262.191 322V306.16H264.875L272.223 317.325V306.16H274.907V322H272.223L264.875 310.835V322H262.191ZM281.287 322L286.281 306.16H290.164L295.158 322H292.43L287.898 307.788H288.492L284.015 322H281.287ZM284.07 318.568V316.093H292.386V318.568H284.07ZM301.551 322V306.16H311.088V308.811H304.202V312.76H309.768V315.4H304.202V322H301.551ZM311.752 322L316.746 306.16H320.629L325.623 322H322.895L318.363 307.788H318.957L314.48 322H311.752ZM314.535 318.568V316.093H322.851V318.568H314.535ZM327.611 322V306.16H329.998L335.476 317.38L340.954 306.16H343.341V322H340.866V311.847L336.004 322H334.948L330.097 311.847V322H327.611ZM346.652 322V306.16H349.303V322H346.652ZM352.818 322V306.16H355.469V319.514H362.465V322H352.818ZM365.987 322V315.51L360.597 306.16H363.688L367.329 312.474L370.959 306.16H374.05L368.671 315.51V322H365.987ZM379.329 322V306.16H381.98V322H379.329ZM391.138 322.33C389.98 322.33 388.935 322.128 388.003 321.725C387.079 321.322 386.317 320.746 385.715 319.998C385.121 319.243 384.744 318.348 384.582 317.314L387.332 316.896C387.567 317.835 388.047 318.561 388.773 319.074C389.507 319.587 390.35 319.844 391.303 319.844C391.868 319.844 392.4 319.756 392.898 319.58C393.397 319.404 393.8 319.147 394.108 318.81C394.424 318.473 394.581 318.058 394.581 317.567C394.581 317.347 394.545 317.145 394.471 316.962C394.398 316.771 394.288 316.603 394.141 316.456C394.002 316.309 393.819 316.177 393.591 316.06C393.371 315.935 393.115 315.829 392.821 315.741L388.729 314.531C388.377 314.428 387.996 314.293 387.585 314.124C387.182 313.948 386.797 313.71 386.43 313.409C386.071 313.101 385.774 312.712 385.539 312.243C385.312 311.766 385.198 311.18 385.198 310.483C385.198 309.464 385.455 308.609 385.968 307.92C386.489 307.223 387.186 306.703 388.058 306.358C388.938 306.013 389.914 305.845 390.984 305.852C392.07 305.859 393.038 306.046 393.888 306.413C394.739 306.772 395.45 307.297 396.022 307.986C396.594 308.675 396.998 309.508 397.232 310.483L394.383 310.978C394.266 310.421 394.039 309.948 393.701 309.559C393.371 309.163 392.964 308.862 392.48 308.657C392.004 308.452 391.494 308.342 390.951 308.327C390.423 308.32 389.932 308.4 389.477 308.569C389.03 308.73 388.667 308.965 388.388 309.273C388.117 309.581 387.981 309.94 387.981 310.351C387.981 310.74 388.099 311.059 388.333 311.308C388.568 311.55 388.858 311.744 389.202 311.891C389.554 312.03 389.91 312.148 390.269 312.243L393.107 313.035C393.496 313.138 393.932 313.277 394.416 313.453C394.9 313.629 395.366 313.875 395.813 314.19C396.261 314.505 396.627 314.92 396.913 315.433C397.207 315.946 397.353 316.599 397.353 317.391C397.353 318.212 397.181 318.935 396.836 319.558C396.499 320.174 396.041 320.687 395.461 321.098C394.882 321.509 394.218 321.817 393.47 322.022C392.73 322.227 391.952 322.33 391.138 322.33ZM403.039 322L408.033 306.16H411.916L416.91 322H414.182L409.65 307.788H410.244L405.767 322H403.039ZM405.822 318.568V316.093H414.138V318.568H405.822ZM423.303 322V306.16H425.954V313.508L432.279 306.16H435.535L428.726 313.926L435.997 322H432.631L425.954 314.608V322H423.303ZM437.547 322V306.16H447.777V308.646H440.198V312.551H446.457V315.037H440.198V319.514H447.777V322H437.547ZM450.416 322V306.16H460.646V308.646H453.067V312.551H459.326V315.037H453.067V319.514H460.646V322H450.416ZM463.285 322V306.16H469.83C469.984 306.16 470.182 306.167 470.424 306.182C470.666 306.189 470.89 306.211 471.095 306.248C472.012 306.387 472.767 306.692 473.361 307.161C473.962 307.63 474.406 308.224 474.692 308.943C474.985 309.654 475.132 310.446 475.132 311.319C475.132 312.184 474.985 312.976 474.692 313.695C474.399 314.406 473.951 314.997 473.35 315.466C472.756 315.935 472.004 316.24 471.095 316.379C470.89 316.408 470.662 316.43 470.413 316.445C470.171 316.46 469.977 316.467 469.83 316.467H465.936V322H463.285ZM465.936 313.992H469.72C469.867 313.992 470.032 313.985 470.215 313.97C470.398 313.955 470.567 313.926 470.721 313.882C471.161 313.772 471.506 313.578 471.755 313.299C472.012 313.02 472.191 312.705 472.294 312.353C472.404 312.001 472.459 311.656 472.459 311.319C472.459 310.982 472.404 310.637 472.294 310.285C472.191 309.926 472.012 309.607 471.755 309.328C471.506 309.049 471.161 308.855 470.721 308.745C470.567 308.701 470.398 308.675 470.215 308.668C470.032 308.653 469.867 308.646 469.72 308.646H465.936V313.992ZM477.336 322V306.16H487.566V308.646H479.987V312.551H486.246V315.037H479.987V319.514H487.566V322H477.336ZM490.205 322V306.16H496.75C496.904 306.16 497.102 306.167 497.344 306.182C497.586 306.189 497.81 306.211 498.015 306.248C498.932 306.387 499.687 306.692 500.281 307.161C500.882 307.63 501.326 308.224 501.612 308.943C501.905 309.654 502.052 310.446 502.052 311.319C502.052 312.61 501.726 313.721 501.073 314.652C500.42 315.576 499.419 316.148 498.07 316.368L496.937 316.467H492.856V322H490.205ZM499.302 322L496.178 315.554L498.873 314.96L502.305 322H499.302ZM492.856 313.992H496.64C496.787 313.992 496.952 313.985 497.135 313.97C497.318 313.955 497.487 313.926 497.641 313.882C498.081 313.772 498.426 313.578 498.675 313.299C498.932 313.02 499.111 312.705 499.214 312.353C499.324 312.001 499.379 311.656 499.379 311.319C499.379 310.982 499.324 310.637 499.214 310.285C499.111 309.926 498.932 309.607 498.675 309.328C498.426 309.049 498.081 308.855 497.641 308.745C497.487 308.701 497.318 308.675 497.135 308.668C496.952 308.653 496.787 308.646 496.64 308.646H492.856V313.992ZM515.832 322.33C514.248 322.33 512.891 321.985 511.762 321.296C510.632 320.599 509.763 319.631 509.155 318.392C508.553 317.153 508.253 315.715 508.253 314.08C508.253 312.445 508.553 311.007 509.155 309.768C509.763 308.529 510.632 307.564 511.762 306.875C512.891 306.178 514.248 305.83 515.832 305.83C517.416 305.83 518.772 306.178 519.902 306.875C521.038 307.564 521.907 308.529 522.509 309.768C523.117 311.007 523.422 312.445 523.422 314.08C523.422 315.715 523.117 317.153 522.509 318.392C521.907 319.631 521.038 320.599 519.902 321.296C518.772 321.985 517.416 322.33 515.832 322.33ZM515.832 319.833C516.895 319.84 517.779 319.606 518.483 319.129C519.194 318.652 519.726 317.981 520.078 317.116C520.437 316.251 520.617 315.239 520.617 314.08C520.617 312.921 520.437 311.917 520.078 311.066C519.726 310.208 519.194 309.541 518.483 309.064C517.779 308.587 516.895 308.342 515.832 308.327C514.768 308.32 513.885 308.554 513.181 309.031C512.477 309.508 511.945 310.179 511.586 311.044C511.234 311.909 511.058 312.921 511.058 314.08C511.058 315.239 511.234 316.247 511.586 317.105C511.938 317.956 512.466 318.619 513.17 319.096C513.881 319.573 514.768 319.818 515.832 319.833ZM525.611 322V306.16H535.148V308.811H528.262V312.76H533.828V315.4H528.262V322H525.611ZM56.1273 353V339.646H51.0013V337.16H63.9043V339.646H58.7783V353H56.1273ZM65.663 353V337.16H68.314V343.826H75.816V337.16H78.456V353H75.816V346.312H68.314V353H65.663ZM81.54 353V337.16H91.77V339.646H84.191V343.551H90.45V346.037H84.191V350.514H91.77V353H81.54ZM98.8134 353V337.16H101.464V343.826H108.966V337.16H111.606V353H108.966V346.312H101.464V353H98.8134ZM114.69 353V337.16H124.92V339.646H117.341V343.551H123.6V346.037H117.341V350.514H124.92V353H114.69ZM126.46 353L131.454 337.16H135.337L140.331 353H137.603L133.071 338.788H133.665L129.188 353H126.46ZM129.243 349.568V347.093H137.559V349.568H129.243ZM142.319 353V337.16H148.864C149.018 337.16 149.216 337.167 149.458 337.182C149.7 337.189 149.924 337.211 150.129 337.248C151.046 337.387 151.801 337.692 152.395 338.161C152.997 338.63 153.44 339.224 153.726 339.943C154.02 340.654 154.166 341.446 154.166 342.319C154.166 343.61 153.84 344.721 153.187 345.652C152.535 346.576 151.534 347.148 150.184 347.368L149.051 347.467H144.97V353H142.319ZM151.416 353L148.292 346.554L150.987 345.96L154.419 353H151.416ZM144.97 344.992H148.754C148.901 344.992 149.066 344.985 149.249 344.97C149.433 344.955 149.601 344.926 149.755 344.882C150.195 344.772 150.54 344.578 150.789 344.299C151.046 344.02 151.226 343.705 151.328 343.353C151.438 343.001 151.493 342.656 151.493 342.319C151.493 341.982 151.438 341.637 151.328 341.285C151.226 340.926 151.046 340.607 150.789 340.328C150.54 340.049 150.195 339.855 149.755 339.745C149.601 339.701 149.433 339.675 149.249 339.668C149.066 339.653 148.901 339.646 148.754 339.646H144.97V344.992ZM160.649 353V339.646H155.523V337.16H168.426V339.646H163.3V353H160.649ZM170.185 353V337.16H172.836V343.826H180.338V337.16H182.978V353H180.338V346.312H172.836V353H170.185ZM185.841 355.805L185.995 354.661C186.333 354.69 186.6 354.632 186.798 354.485C186.996 354.346 187.128 354.144 187.194 353.88C187.268 353.623 187.286 353.33 187.249 353H185.841V350.173H188.558V353.11C188.558 354.071 188.331 354.797 187.876 355.288C187.422 355.779 186.743 355.952 185.841 355.805ZM196.047 353L201.041 337.16H204.924L209.918 353H207.19L202.658 338.788H203.252L198.775 353H196.047ZM198.83 349.568V347.093H207.146V349.568H198.83ZM216.311 353V337.16H218.698L224.176 348.38L229.654 337.16H232.041V353H229.566V342.847L224.704 353H223.648L218.797 342.847V353H216.311ZM234.032 353L239.026 337.16H242.909L247.903 353H245.175L240.643 338.788H241.237L236.76 353H234.032ZM236.815 349.568V347.093H245.131V349.568H236.815ZM249.892 353V337.16H252.576L259.924 348.325V337.16H262.608V353H259.924L252.576 341.835V353H249.892ZM265.463 341.12V337.16H268.114V341.12H265.463ZM276.186 353.33C275.028 353.33 273.983 353.128 273.051 352.725C272.127 352.322 271.365 351.746 270.763 350.998C270.169 350.243 269.792 349.348 269.63 348.314L272.38 347.896C272.615 348.835 273.095 349.561 273.821 350.074C274.555 350.587 275.398 350.844 276.351 350.844C276.916 350.844 277.448 350.756 277.946 350.58C278.445 350.404 278.848 350.147 279.156 349.81C279.472 349.473 279.629 349.058 279.629 348.567C279.629 348.347 279.593 348.145 279.519 347.962C279.446 347.771 279.336 347.603 279.189 347.456C279.05 347.309 278.867 347.177 278.639 347.06C278.419 346.935 278.163 346.829 277.869 346.741L273.777 345.531C273.425 345.428 273.044 345.293 272.633 345.124C272.23 344.948 271.845 344.71 271.478 344.409C271.119 344.101 270.822 343.712 270.587 343.243C270.36 342.766 270.246 342.18 270.246 341.483C270.246 340.464 270.503 339.609 271.016 338.92C271.537 338.223 272.234 337.703 273.106 337.358C273.986 337.013 274.962 336.845 276.032 336.852C277.118 336.859 278.086 337.046 278.936 337.413C279.787 337.772 280.498 338.297 281.07 338.986C281.642 339.675 282.046 340.508 282.28 341.483L279.431 341.978C279.314 341.421 279.087 340.948 278.749 340.559C278.419 340.163 278.012 339.862 277.528 339.657C277.052 339.452 276.542 339.342 275.999 339.327C275.471 339.32 274.98 339.4 274.525 339.569C274.078 339.73 273.715 339.965 273.436 340.273C273.165 340.581 273.029 340.94 273.029 341.351C273.029 341.74 273.147 342.059 273.381 342.308C273.616 342.55 273.906 342.744 274.25 342.891C274.602 343.03 274.958 343.148 275.317 343.243L278.155 344.035C278.544 344.138 278.98 344.277 279.464 344.453C279.948 344.629 280.414 344.875 280.861 345.19C281.309 345.505 281.675 345.92 281.961 346.433C282.255 346.946 282.401 347.599 282.401 348.391C282.401 349.212 282.229 349.935 281.884 350.558C281.547 351.174 281.089 351.687 280.509 352.098C279.93 352.509 279.266 352.817 278.518 353.022C277.778 353.227 277 353.33 276.186 353.33ZM289.186 353V337.16H295.731C295.885 337.16 296.083 337.167 296.325 337.182C296.567 337.189 296.791 337.211 296.996 337.248C297.913 337.387 298.668 337.692 299.262 338.161C299.864 338.63 300.307 339.224 300.593 339.943C300.887 340.654 301.033 341.446 301.033 342.319C301.033 343.61 300.707 344.721 300.054 345.652C299.402 346.576 298.401 347.148 297.051 347.368L295.918 347.467H291.837V353H289.186ZM298.283 353L295.159 346.554L297.854 345.96L301.286 353H298.283ZM291.837 344.992H295.621C295.768 344.992 295.933 344.985 296.116 344.97C296.3 344.955 296.468 344.926 296.622 344.882C297.062 344.772 297.407 344.578 297.656 344.299C297.913 344.02 298.093 343.705 298.195 343.353C298.305 343.001 298.36 342.656 298.36 342.319C298.36 341.982 298.305 341.637 298.195 341.285C298.093 340.926 297.913 340.607 297.656 340.328C297.407 340.049 297.062 339.855 296.622 339.745C296.468 339.701 296.3 339.675 296.116 339.668C295.933 339.653 295.768 339.646 295.621 339.646H291.837V344.992ZM310.409 353.33C308.825 353.33 307.468 352.985 306.339 352.296C305.21 351.599 304.341 350.631 303.732 349.392C303.131 348.153 302.83 346.715 302.83 345.08C302.83 343.445 303.131 342.007 303.732 340.768C304.341 339.529 305.21 338.564 306.339 337.875C307.468 337.178 308.825 336.83 310.409 336.83C311.993 336.83 313.35 337.178 314.479 337.875C315.616 338.564 316.485 339.529 317.086 340.768C317.695 342.007 317.999 343.445 317.999 345.08C317.999 346.715 317.695 348.153 317.086 349.392C316.485 350.631 315.616 351.599 314.479 352.296C313.35 352.985 311.993 353.33 310.409 353.33ZM310.409 350.833C311.472 350.84 312.356 350.606 313.06 350.129C313.771 349.652 314.303 348.981 314.655 348.116C315.014 347.251 315.194 346.239 315.194 345.08C315.194 343.921 315.014 342.917 314.655 342.066C314.303 341.208 313.771 340.541 313.06 340.064C312.356 339.587 311.472 339.342 310.409 339.327C309.346 339.32 308.462 339.554 307.758 340.031C307.054 340.508 306.522 341.179 306.163 342.044C305.811 342.909 305.635 343.921 305.635 345.08C305.635 346.239 305.811 347.247 306.163 348.105C306.515 348.956 307.043 349.619 307.747 350.096C308.458 350.573 309.346 350.818 310.409 350.833ZM320.408 353V337.16H323.059V350.514H330.055V353H320.408ZM331.919 353V337.16H342.149V339.646H334.57V343.551H340.829V346.037H334.57V350.514H342.149V353H331.919ZM349.412 353V337.16H352.063V353H349.412ZM361.221 353.33C360.063 353.33 359.018 353.128 358.086 352.725C357.162 352.322 356.4 351.746 355.798 350.998C355.204 350.243 354.827 349.348 354.665 348.314L357.415 347.896C357.65 348.835 358.13 349.561 358.856 350.074C359.59 350.587 360.433 350.844 361.386 350.844C361.951 350.844 362.483 350.756 362.981 350.58C363.48 350.404 363.883 350.147 364.191 349.81C364.507 349.473 364.664 349.058 364.664 348.567C364.664 348.347 364.628 348.145 364.554 347.962C364.481 347.771 364.371 347.603 364.224 347.456C364.085 347.309 363.902 347.177 363.674 347.06C363.454 346.935 363.198 346.829 362.904 346.741L358.812 345.531C358.46 345.428 358.079 345.293 357.668 345.124C357.265 344.948 356.88 344.71 356.513 344.409C356.154 344.101 355.857 343.712 355.622 343.243C355.395 342.766 355.281 342.18 355.281 341.483C355.281 340.464 355.538 339.609 356.051 338.92C356.572 338.223 357.269 337.703 358.141 337.358C359.021 337.013 359.997 336.845 361.067 336.852C362.153 336.859 363.121 337.046 363.971 337.413C364.822 337.772 365.533 338.297 366.105 338.986C366.677 339.675 367.081 340.508 367.315 341.483L364.466 341.978C364.349 341.421 364.122 340.948 363.784 340.559C363.454 340.163 363.047 339.862 362.563 339.657C362.087 339.452 361.577 339.342 361.034 339.327C360.506 339.32 360.015 339.4 359.56 339.569C359.113 339.73 358.75 339.965 358.471 340.273C358.2 340.581 358.064 340.94 358.064 341.351C358.064 341.74 358.182 342.059 358.416 342.308C358.651 342.55 358.941 342.744 359.285 342.891C359.637 343.03 359.993 343.148 360.352 343.243L363.19 344.035C363.579 344.138 364.015 344.277 364.499 344.453C364.983 344.629 365.449 344.875 365.896 345.19C366.344 345.505 366.71 345.92 366.996 346.433C367.29 346.946 367.436 347.599 367.436 348.391C367.436 349.212 367.264 349.935 366.919 350.558C366.582 351.174 366.124 351.687 365.544 352.098C364.965 352.509 364.301 352.817 363.553 353.022C362.813 353.227 362.035 353.33 361.221 353.33ZM373.122 353L378.116 337.16H381.999L386.993 353H384.265L379.733 338.788H380.327L375.85 353H373.122ZM375.905 349.568V347.093H384.221V349.568H375.905ZM393.386 353V337.16H399.667C400.737 337.16 401.614 337.376 402.296 337.809C402.985 338.234 403.495 338.781 403.825 339.448C404.162 340.115 404.331 340.805 404.331 341.516C404.331 342.389 404.122 343.129 403.704 343.738C403.293 344.347 402.732 344.757 402.021 344.97V344.42C403.018 344.647 403.773 345.12 404.287 345.839C404.807 346.558 405.068 347.375 405.068 348.292C405.068 349.231 404.888 350.052 404.529 350.756C404.169 351.46 403.634 352.01 402.923 352.406C402.219 352.802 401.346 353 400.305 353H393.386ZM396.07 350.503H399.975C400.437 350.503 400.851 350.411 401.218 350.228C401.584 350.037 401.87 349.773 402.076 349.436C402.288 349.091 402.395 348.684 402.395 348.215C402.395 347.79 402.303 347.408 402.12 347.071C401.936 346.734 401.669 346.466 401.317 346.268C400.965 346.063 400.543 345.96 400.052 345.96H396.07V350.503ZM396.07 343.485H399.634C400.015 343.485 400.356 343.412 400.657 343.265C400.957 343.118 401.196 342.902 401.372 342.616C401.548 342.33 401.636 341.978 401.636 341.56C401.636 341.01 401.46 340.552 401.108 340.185C400.756 339.818 400.264 339.635 399.634 339.635H396.07V343.485ZM407.265 353V337.16H413.81C413.964 337.16 414.162 337.167 414.404 337.182C414.646 337.189 414.869 337.211 415.075 337.248C415.991 337.387 416.747 337.692 417.341 338.161C417.942 338.63 418.386 339.224 418.672 339.943C418.965 340.654 419.112 341.446 419.112 342.319C419.112 343.61 418.785 344.721 418.133 345.652C417.48 346.576 416.479 347.148 415.13 347.368L413.997 347.467H409.916V353H407.265ZM416.362 353L413.238 346.554L415.933 345.96L419.365 353H416.362ZM409.916 344.992H413.7C413.846 344.992 414.011 344.985 414.195 344.97C414.378 344.955 414.547 344.926 414.701 344.882C415.141 344.772 415.485 344.578 415.735 344.299C415.991 344.02 416.171 343.705 416.274 343.353C416.384 343.001 416.439 342.656 416.439 342.319C416.439 341.982 416.384 341.637 416.274 341.285C416.171 340.926 415.991 340.607 415.735 340.328C415.485 340.049 415.141 339.855 414.701 339.745C414.547 339.701 414.378 339.675 414.195 339.668C414.011 339.653 413.846 339.646 413.7 339.646H409.916V344.992ZM421.788 353V337.16H432.018V339.646H424.439V343.551H430.698V346.037H424.439V350.514H432.018V353H421.788ZM433.557 353L438.551 337.16H442.434L447.428 353H444.7L440.168 338.788H440.762L436.285 353H433.557ZM436.34 349.568V347.093H444.656V349.568H436.34ZM449.417 353V337.16H454.466C454.598 337.16 454.858 337.164 455.247 337.171C455.643 337.178 456.024 337.204 456.391 337.248C457.645 337.409 458.705 337.857 459.57 338.59C460.443 339.316 461.103 340.244 461.55 341.373C461.997 342.502 462.221 343.738 462.221 345.08C462.221 346.422 461.997 347.658 461.55 348.787C461.103 349.916 460.443 350.848 459.57 351.581C458.705 352.307 457.645 352.751 456.391 352.912C456.032 352.956 455.654 352.982 455.258 352.989C454.862 352.996 454.598 353 454.466 353H449.417ZM452.112 350.503H454.466C454.686 350.503 454.965 350.496 455.302 350.481C455.647 350.466 455.951 350.433 456.215 350.382C456.963 350.243 457.572 349.909 458.041 349.381C458.51 348.853 458.855 348.211 459.075 347.456C459.302 346.701 459.416 345.909 459.416 345.08C459.416 344.222 459.302 343.415 459.075 342.66C458.848 341.905 458.496 341.27 458.019 340.757C457.55 340.244 456.948 339.917 456.215 339.778C455.951 339.719 455.647 339.686 455.302 339.679C454.965 339.664 454.686 339.657 454.466 339.657H452.112V350.503ZM467.499 353L462.868 337.16H465.651L468.808 348.6L471.954 337.182L474.737 337.16L477.894 348.6L481.04 337.16H483.823L479.203 353H476.585L473.34 341.736L470.117 353H467.499ZM485.838 353V337.16H488.489V353H485.838ZM491.784 353V337.16H494.468L501.816 348.325V337.16H504.5V353H501.816L494.468 341.835V353H491.784ZM507.575 353V337.16H510.259L517.607 348.325V337.16H520.291V353H517.607L510.259 341.835V353H507.575ZM523.366 353V337.16H533.596V339.646H526.017V343.551H532.276V346.037H526.017V350.514H533.596V353H523.366ZM536.235 353V337.16H542.78C542.934 337.16 543.132 337.167 543.374 337.182C543.616 337.189 543.84 337.211 544.045 337.248C544.962 337.387 545.717 337.692 546.311 338.161C546.913 338.63 547.356 339.224 547.642 339.943C547.936 340.654 548.082 341.446 548.082 342.319C548.082 343.61 547.756 344.721 547.103 345.652C546.451 346.576 545.45 347.148 544.1 347.368L542.967 347.467H538.886V353H536.235ZM545.332 353L542.208 346.554L544.903 345.96L548.335 353H545.332ZM538.886 344.992H542.67C542.817 344.992 542.982 344.985 543.165 344.97C543.349 344.955 543.517 344.926 543.671 344.882C544.111 344.772 544.456 344.578 544.705 344.299C544.962 344.02 545.142 343.705 545.244 343.353C545.354 343.001 545.409 342.656 545.409 342.319C545.409 341.982 545.354 341.637 545.244 341.285C545.142 340.926 544.962 340.607 544.705 340.328C544.456 340.049 544.111 339.855 543.671 339.745C543.517 339.701 543.349 339.675 543.165 339.668C542.982 339.653 542.817 339.646 542.67 339.646H538.886V344.992Z" fill="white"></path> <path d="M347.336 86.618C347.351 88.3042 347.283 89.9758 347.195 91.6522C347.118 93.3238 346.996 94.9953 346.894 96.662C346.831 97.493 346.787 98.3239 346.748 99.1499C346.695 99.9808 346.709 100.788 346.724 101.633L346.807 106.662C346.403 105.024 346.122 103.357 345.966 101.677C345.869 100.83 345.824 99.9779 345.83 99.1256C345.84 98.2801 345.878 97.4395 345.927 96.5989C346.049 94.9176 346.209 93.2461 346.447 91.5793C346.675 89.9126 346.948 88.2605 347.336 86.618V86.6132C345.917 78.7753 344.392 75.2719 343.507 73.8481C342.487 72.2057 340.271 69.9219 338.235 67.9879C336.844 69.0478 335.368 69.992 333.823 70.8111C332.297 71.6615 330.737 72.4341 329.168 73.1824C327.584 73.9113 325.995 74.6207 324.381 75.267C322.763 75.9229 321.135 76.5352 319.464 77.0503C320.975 76.1659 322.515 75.3593 324.07 74.5818C325.616 73.7947 327.185 73.0463 328.755 72.3028C330.329 71.574 331.899 70.8402 333.483 70.1357C335.067 69.4214 336.651 68.7265 338.235 67.9879C336.019 65.8839 334.017 64.1929 334.017 64.1929C332.219 66.6517 319.945 73.8481 319.945 73.8481C319.945 73.8481 312.258 124.243 310.455 139.734C308.657 155.22 309.313 156.639 311.436 157.83C312.53 158.442 314.736 157.3 317.608 156.498C317.331 154.584 317.102 151.396 317.029 150.308C317.011 150.06 317.019 149.81 317.054 149.564C319.119 135.681 327.797 116.507 327.797 116.507C327.797 113.203 327.263 106.332 327.161 105.073C326.643 104.732 326.146 104.359 325.674 103.956C327.266 104.782 328.911 105.504 330.596 106.118C331.432 106.429 332.273 106.721 333.128 106.978L334.406 107.367L335.694 107.702C336.121 107.824 336.559 107.906 336.991 108.013C337.428 108.115 337.861 108.212 338.298 108.285L339.61 108.538L340.937 108.742C341.816 108.897 342.705 108.97 343.599 109.087C344.489 109.199 345.388 109.233 346.292 109.354C345.392 109.451 344.484 109.544 343.58 109.563C342.769 109.558 341.952 109.583 341.146 109.519C341.427 110.554 341.967 113.907 340.397 121.624C338.701 129.977 328.92 145.307 326.315 149.292C326.126 149.577 326.009 149.904 325.976 150.245C325.943 150.586 325.995 150.929 326.126 151.245C326.694 152.611 327.511 155.113 326.743 156.809C326.879 156.867 327.01 156.931 327.146 156.994C334.343 160.459 350.543 152.057 350.543 152.057C351.117 117.387 349.338 97.6873 347.336 86.618ZM324.036 90.0632C324.031 91.2246 324.022 92.3811 323.988 93.5424C323.973 94.6989 323.91 95.8554 323.871 97.0119C323.803 98.1684 323.755 99.3249 323.667 100.481C323.589 101.643 323.492 102.799 323.385 103.956L323.351 104.354L323.006 104.281C322.263 104.127 321.529 103.927 320.81 103.684C320.45 103.565 320.097 103.424 319.755 103.261C319.404 103.113 319.082 102.904 318.803 102.644C319.125 102.831 319.472 102.972 319.833 103.062C320.188 103.154 320.547 103.237 320.912 103.309C321.514 103.416 322.127 103.518 322.729 103.586C322.729 102.547 322.744 101.512 322.773 100.472C322.792 99.3103 322.856 98.149 322.899 96.9876C322.967 95.8263 323.016 94.6649 323.103 93.5084C323.176 92.4297 323.269 91.3509 323.366 90.2722C322.054 89.8446 320.752 89.4024 319.464 88.9019C320.917 89.1303 322.36 89.4267 323.793 89.7329L324.036 89.7862L324.036 90.0632ZM338.041 75.3934C336.58 75.5589 335.165 76.0079 333.876 76.715C332.623 77.4321 331.563 78.4426 330.786 79.6597C330.396 80.2676 330.062 80.9101 329.79 81.5791C329.525 82.2588 329.31 82.9572 329.148 83.6685C328.819 85.1032 328.65 86.5698 328.643 88.0418C328.633 88.7804 328.662 89.519 328.721 90.2624C328.778 91.0288 328.789 91.7979 328.755 92.5657C328.6 95.6005 328.059 98.6034 327.146 101.502C327.399 100.01 327.627 98.523 327.763 97.0264C327.925 95.5402 328.004 94.0461 328.002 92.5511C327.997 91.8076 327.943 91.0739 327.875 90.3402C327.793 89.5822 327.739 88.8095 327.729 88.0418C327.709 86.4965 327.868 84.9541 328.201 83.445C328.543 81.9155 329.159 80.4603 330.018 79.1495C330.904 77.8347 332.11 76.7663 333.522 76.0444C334.918 75.36 336.443 74.9776 337.997 74.9219C339.518 74.8707 341.039 75.0094 342.526 75.3349C341.033 75.1962 339.529 75.2158 338.041 75.3934Z" fill="white"></path> <path d="M326.742 156.807C326.631 157.294 326.369 157.734 325.993 158.063C325.611 158.374 325.194 158.641 324.751 158.857C323.852 159.293 322.863 159.508 321.864 159.486C320.877 159.455 319.906 159.228 319.007 158.82C318.787 158.719 318.567 158.619 318.358 158.499C318.252 158.441 318.148 158.381 318.047 158.319L317.893 158.227C317.842 158.199 317.797 158.161 317.762 158.115C317.727 158.069 317.702 158.016 317.688 157.959C317.589 157.479 317.562 156.986 317.607 156.498C317.744 156.936 317.908 157.365 318.098 157.783C318.119 157.824 318.159 157.842 318.1 157.788L318.265 157.845C318.375 157.884 318.485 157.919 318.595 157.953C318.814 158.023 319.031 158.094 319.25 158.154C320.106 158.408 320.991 158.55 321.883 158.578C322.766 158.601 323.647 158.474 324.487 158.202C324.914 158.062 325.331 157.895 325.736 157.702C326.137 157.487 326.482 157.18 326.742 156.807Z" fill="white"></path> <path d="M318.439 158.052C318.294 159.453 318.318 160.866 318.51 162.261C318.684 163.663 319.107 165.023 319.76 166.276C320.428 167.53 321.458 168.553 322.716 169.211C324.011 169.839 325.438 170.147 326.877 170.111C325.422 170.223 323.961 169.984 322.617 169.416C321.266 168.795 320.134 167.78 319.368 166.506C318.615 165.231 318.097 163.831 317.838 162.374C317.559 160.919 317.457 159.436 317.535 157.957L318.439 158.052ZM322.405 163.075C323.002 163.963 323.712 164.769 324.519 165.472C324.913 165.802 325.367 166.053 325.856 166.211C326.37 166.335 326.905 166.344 327.422 166.238C326.926 166.524 326.348 166.637 325.781 166.557C325.212 166.448 324.68 166.197 324.234 165.826C323.797 165.47 323.42 165.046 323.116 164.571C322.807 164.11 322.567 163.606 322.405 163.075Z" fill="white"></path> <path d="M315.013 157.337L315.645 168.271L316.207 179.207L317.208 201.085L317.623 212.028L317.975 222.973C318.092 226.622 318.201 230.271 318.349 233.918C318.49 237.565 318.615 241.213 318.79 244.859L318.676 244.722C320.331 245.093 322 245.422 323.672 245.718C325.343 246.016 327.023 246.271 328.708 246.464C330.389 246.67 332.08 246.789 333.773 246.821C334.613 246.833 335.453 246.795 336.289 246.706C337.102 246.64 337.897 246.426 338.634 246.074L338.746 246.015L338.868 246.058C339.537 246.292 340.224 246.471 340.921 246.594C341.621 246.719 342.329 246.789 343.039 246.803C343.744 246.818 344.449 246.761 345.142 246.633C345.829 246.503 346.497 246.292 347.134 246.004L346.937 246.306L347.172 223.042L347.459 199.78L347.777 176.518L347.921 164.887C347.966 161.01 348.003 157.133 347.997 153.255L348.088 153.253C348.343 161.007 348.408 168.765 348.445 176.521C348.448 184.278 348.459 192.034 348.381 199.79C348.298 207.545 348.242 215.301 348.089 223.055C347.955 230.81 347.817 238.564 347.615 246.318L347.609 246.541L347.418 246.62C346.726 246.921 346 247.139 345.256 247.268C344.519 247.393 343.771 247.442 343.024 247.415C342.282 247.389 341.543 247.305 340.815 247.163C340.084 247.023 339.366 246.823 338.667 246.566L338.901 246.55C338.097 246.927 337.23 247.15 336.344 247.21C335.486 247.287 334.625 247.313 333.765 247.286C332.057 247.226 330.354 247.079 328.661 246.844C326.971 246.617 325.29 246.341 323.614 246.038C321.939 245.731 320.271 245.392 318.609 245.009L318.499 244.984L318.495 244.872C318.364 241.224 318.183 237.578 318.018 233.932C317.86 230.285 317.662 226.64 317.472 222.995L316.905 212.058L316.402 201.119L315.565 179.234L315.209 168.289L314.922 157.341L315.013 157.337Z" fill="white"></path> <path d="M342.58 155.467L342.6 178.222C342.636 182.012 342.615 185.804 342.712 189.588C342.768 191.483 342.822 193.362 343.031 195.225C343.099 196.191 343.118 197.16 343.086 198.127C343.078 199.083 343.022 200.03 342.992 200.982C342.79 204.778 342.512 208.563 342.208 212.345C341.897 216.127 341.595 219.909 341.213 223.683L340.069 235.006C339.643 238.776 339.242 242.547 338.769 246.312L339.625 234.965L340.516 223.623C341.091 216.063 341.729 208.501 342.085 200.939C342.122 199.996 342.185 199.049 342.199 198.109C342.214 197.169 342.247 196.22 342.17 195.326C341.97 193.418 341.929 191.502 341.886 189.606C341.83 185.806 341.836 182.01 341.904 178.218C341.968 174.424 342.051 170.631 342.152 166.839C342.284 163.048 342.396 159.256 342.58 155.467ZM323.341 266.287C322.316 266.389 321.281 266.539 320.261 266.705C319.338 266.86 318.409 267.035 317.486 267.215C318.401 267.292 319.323 267.264 320.232 267.132H320.246C321.68 266.782 323.113 266.467 324.571 266.195C324.163 266.214 323.755 266.248 323.341 266.287ZM323.341 266.287C322.316 266.389 321.281 266.539 320.261 266.705C319.338 266.86 318.409 267.035 317.486 267.215C318.401 267.292 319.323 267.264 320.232 267.132H320.246C321.68 266.782 323.113 266.467 324.571 266.195C324.163 266.214 323.755 266.248 323.341 266.287ZM345.32 259.931C344.217 258.06 344.508 255.038 344.508 255.038C344.508 255.038 345.835 250.149 343.415 249.284C341.908 248.735 340.562 250.344 339.756 251.622C339.485 252.06 339.153 252.458 338.769 252.803C338.749 253.576 338.685 254.349 338.58 255.116C338.483 255.878 338.4 256.622 338.264 257.409C339.518 257.356 340.514 257.783 340.723 258.566C340.922 259.319 340.266 259.688 339.275 260.398C339.659 260.846 339.935 261.376 340.081 261.948C340.245 262.52 340.302 263.118 340.247 263.711C340.192 264.262 340.049 264.8 339.824 265.305C340.553 265.179 341.282 265.019 341.996 264.819C342.494 264.679 342.983 264.505 343.459 264.299C343.94 264.097 344.382 263.813 344.766 263.459C344.021 264.218 343.097 264.778 342.079 265.087C341.257 265.391 340.414 265.634 339.557 265.815C339.484 265.937 339.401 266.058 339.328 266.18C339.155 266.414 338.969 266.638 338.769 266.851C338.876 266.574 339.012 266.326 339.119 266.063C339.139 266.01 339.163 265.952 339.182 265.898C339.133 265.912 339.083 265.924 339.032 265.932C337.992 266.14 336.94 266.286 335.883 266.369C334.807 266.478 333.722 266.455 332.652 266.301C332.196 266.209 331.732 266.169 331.267 266.18C330.732 266.185 330.188 266.238 329.634 266.287C329.226 266.326 328.818 266.374 328.41 266.428C327.807 266.505 327.209 266.598 326.607 266.695C326.589 266.696 326.571 266.7 326.553 266.705C325.159 266.943 323.766 267.208 322.374 267.502C321.718 267.633 321.067 267.774 320.421 267.92H320.406L320.377 267.924C319.144 268.087 317.892 268.053 316.67 267.822C316.365 267.754 316.065 267.667 315.771 267.56C315.222 267.681 314.668 267.798 314.119 267.92H314.109L314.08 267.924C313.08 268.052 312.068 268.055 311.067 267.934C312.078 268.591 313.221 269.017 314.415 269.183C318.22 269.829 323.385 268.964 327.744 267.749C329.108 267.361 330.493 267.054 331.894 266.831C335.567 266.262 337.637 266.666 338.454 266.909C338.591 266.946 338.726 266.993 338.857 267.05C343.468 268.857 345.291 267.04 345.985 264.926C346.235 264.094 346.305 263.218 346.19 262.357C346.076 261.496 345.779 260.669 345.32 259.931ZM339.717 262.025C339.629 261.468 339.481 260.922 339.275 260.398C338.768 260.755 338.287 261.148 337.837 261.573C336.374 262.978 334.202 261.758 333.915 260.679C333.87 260.478 333.868 260.269 333.908 260.067C333.948 259.864 334.03 259.673 334.148 259.503C333.658 260.018 332.647 260.514 331.539 261.573C330.076 262.978 327.904 261.758 327.618 260.679C327.331 259.601 328.623 258.26 330.504 257.667C332.38 257.084 334.134 257.492 334.425 258.566C334.486 258.767 334.47 258.983 334.382 259.173C335.031 258.456 335.867 257.934 336.797 257.667C337.272 257.514 337.765 257.427 338.264 257.409C338.04 256.646 337.984 255.844 338.099 255.057C338.186 254.272 338.413 253.508 338.769 252.803C338.697 252.871 338.624 252.934 338.546 252.997C337.896 253.522 337.108 253.848 336.277 253.935C335.613 254 334.944 253.919 334.316 253.696C333.688 253.473 333.116 253.115 332.642 252.647C332.045 253.251 331.288 253.673 330.46 253.862C330.673 254.084 330.865 254.324 331.034 254.581C331.376 255.075 331.598 255.643 331.68 256.238C330.972 255.394 330.164 254.638 329.275 253.988C329.255 253.979 329.236 253.959 329.211 253.944C328.801 253.644 328.366 253.381 327.909 253.157C327.433 252.9 326.913 252.71 326.374 252.448C326.374 252.448 326.325 252.477 326.223 252.526C325.902 252.696 325.081 253.118 323.973 253.687C324.263 253.951 324.518 254.252 324.731 254.581C324.853 254.761 324.961 254.95 325.057 255.145C325.378 255.331 325.685 255.541 325.975 255.772C326.449 256.15 326.852 256.609 327.166 257.127C327.345 257.384 327.464 257.677 327.513 257.986C327.561 258.295 327.539 258.611 327.447 258.911C327.301 258.383 327.016 257.905 326.621 257.526C326.246 257.14 325.847 256.778 325.426 256.442L324.124 255.402C323.667 255.051 323.229 254.677 322.812 254.28C321.893 254.761 320.844 255.291 319.76 255.844C319.987 256.031 320.197 256.238 320.387 256.462C320.533 256.51 320.674 256.564 320.815 256.622C321.375 256.858 321.898 257.175 322.365 257.565C322.837 257.966 323.232 258.45 323.531 258.993C323.821 259.541 323.951 260.159 323.905 260.777C323.633 260.281 323.319 259.81 322.967 259.367C322.606 258.96 322.218 258.577 321.806 258.221C321.587 258.036 321.359 257.856 321.13 257.686C321.287 258.078 321.294 258.514 321.15 258.911C321.007 258.383 320.723 257.904 320.329 257.526C319.951 257.142 319.552 256.78 319.133 256.442L318.92 256.272C318.006 256.734 317.073 257.21 316.174 257.657C316.602 258.039 316.962 258.491 317.238 258.993C317.528 259.541 317.658 260.159 317.612 260.777C317.34 260.28 317.025 259.808 316.67 259.367C316.311 258.958 315.923 258.574 315.508 258.221C315.45 258.172 315.397 258.128 315.338 258.075C314.401 258.546 313.516 258.983 312.734 259.362C307.943 261.695 309.002 263.93 309.002 263.93C309.029 263.628 309.106 263.332 309.23 263.056C309.351 262.756 309.582 262.514 309.877 262.38C310.182 262.269 310.516 262.263 310.824 262.365C311.13 262.454 311.415 262.601 311.665 262.798C312.15 263.204 312.523 263.728 312.748 264.319C313.002 264.832 313.344 265.296 313.759 265.689C314.173 266.078 314.648 266.398 315.164 266.637C315.273 266.688 315.385 266.734 315.499 266.773C317.029 266.428 318.57 266.122 320.12 265.864C321.165 265.699 322.204 265.553 323.264 265.451C323.793 265.407 324.333 265.383 324.872 265.378C325.139 265.383 325.416 265.407 325.693 265.422C325.961 265.461 326.286 265.514 326.515 265.553C326.867 265.616 327.222 265.662 327.579 265.689C328.23 265.597 328.895 265.514 329.561 265.451C330.091 265.407 330.625 265.383 331.17 265.378C331.442 265.383 331.714 265.407 331.986 265.422C332.112 265.441 332.248 265.461 332.38 265.485C332.467 265.475 332.559 265.461 332.647 265.446C333.676 265.3 334.695 265.091 335.698 264.819C336.197 264.68 336.686 264.507 337.161 264.299C337.642 264.096 338.084 263.812 338.468 263.459C337.724 264.217 336.802 264.777 335.786 265.087C335.143 265.322 334.488 265.521 333.823 265.684C334.495 265.736 335.17 265.749 335.844 265.723C336.882 265.689 337.917 265.597 338.944 265.446C339.09 265.427 339.236 265.402 339.382 265.378C339.395 265.345 339.407 265.311 339.416 265.276C339.455 265.145 339.498 265.014 339.542 264.883L339.634 264.479C339.696 264.212 339.738 263.941 339.761 263.668C339.814 263.121 339.799 262.569 339.717 262.025ZM323.341 266.287C322.316 266.389 321.281 266.539 320.261 266.705C319.338 266.86 318.409 267.035 317.486 267.215C318.401 267.292 319.323 267.264 320.232 267.132H320.246C321.68 266.782 323.113 266.467 324.571 266.195C324.163 266.214 323.755 266.248 323.341 266.287ZM323.341 266.287C322.316 266.389 321.281 266.539 320.261 266.705C319.338 266.86 318.409 267.035 317.486 267.215C318.401 267.292 319.323 267.264 320.232 267.132H320.246C321.68 266.782 323.113 266.467 324.571 266.195C324.163 266.214 323.755 266.248 323.341 266.287ZM313.38 266.073C312.945 265.614 312.593 265.083 312.34 264.504C312.238 264.23 312.121 263.963 311.99 263.702C311.845 263.458 311.667 263.236 311.461 263.041C311.253 262.85 311.011 262.701 310.746 262.604C310.493 262.492 310.208 262.469 309.94 262.54C309.681 262.677 309.46 262.875 309.296 263.117C309.133 263.36 309.031 263.639 309.002 263.93C308.998 265.062 309.382 266.162 310.09 267.045C310.231 267.074 310.372 267.103 310.513 267.132C311.649 267.305 312.804 267.305 313.939 267.132H313.949C314.148 267.084 314.347 267.04 314.546 266.991C314.12 266.736 313.729 266.427 313.38 266.073ZM323.147 254.114C323.035 254.168 322.928 254.221 322.812 254.28C323.09 254.331 323.364 254.401 323.633 254.489C323.473 254.357 323.312 254.231 323.147 254.114Z" fill="white"></path> <path d="M339.273 260.399C339.196 260.24 339.114 260.086 339.023 259.931C338.604 259.149 338.344 258.292 338.26 257.409C338.164 256.622 338.146 255.827 338.205 255.036C338.374 254.367 338.487 253.684 338.542 252.996C338.655 251.546 338.487 249.773 337.119 249.282C335.61 248.737 334.26 250.346 333.46 251.623C333.228 251.996 332.952 252.339 332.638 252.646C332.042 253.251 331.285 253.674 330.456 253.864C330.299 253.897 330.139 253.922 329.979 253.936C329.724 253.96 329.467 253.963 329.211 253.945C328.073 253.859 327.008 253.354 326.22 252.527C325.593 251.889 325.08 251.146 324.707 250.332C324.448 249.734 324.001 249.236 323.434 248.914C320.78 247.533 320.071 252.45 320.071 252.45C320.662 252.346 321.269 252.373 321.848 252.527C322.437 252.669 322.992 252.927 323.48 253.286C323.973 253.638 324.396 254.077 324.73 254.582C324.852 254.761 324.96 254.949 325.052 255.145C325.223 255.488 325.336 255.856 325.384 256.236C324.845 255.611 324.258 255.027 323.63 254.491C323.471 254.359 323.312 254.232 323.144 254.114C323.091 254.07 323.037 254.029 322.98 253.991C322.549 253.674 322.092 253.396 321.612 253.159C321.13 252.9 320.612 252.709 320.071 252.45C320.071 252.45 318.594 253.218 316.512 254.282C317.093 254.387 317.656 254.574 318.185 254.836C318.714 255.093 319.214 255.407 319.676 255.772C319.703 255.795 319.73 255.818 319.758 255.845C319.984 256.032 320.194 256.239 320.385 256.463C320.566 256.669 320.727 256.891 320.866 257.127C320.975 257.303 321.064 257.49 321.13 257.686C321.286 258.077 321.292 258.513 321.148 258.908C321.005 258.382 320.721 257.904 320.326 257.527C319.949 257.142 319.55 256.779 319.13 256.441L318.917 256.272L317.826 255.404C317.385 255.054 316.94 254.695 316.512 254.282C315.394 254.859 314.099 255.513 312.777 256.195C313.378 256.232 313.967 256.377 314.517 256.622C315.076 256.858 315.597 257.175 316.063 257.563C316.099 257.595 316.135 257.627 316.172 257.659C316.599 258.04 316.959 258.492 317.235 258.995C317.525 259.542 317.654 260.159 317.608 260.776C317.336 260.28 317.021 259.809 316.667 259.367C316.308 258.959 315.921 258.576 315.508 258.222C315.449 258.172 315.394 258.127 315.335 258.077C314.54 257.431 313.681 256.859 312.777 256.195L312.772 256.195C310.54 257.331 308.209 258.499 306.436 259.363C301.646 261.695 302.705 263.931 302.705 263.931C302.727 263.627 302.802 263.33 302.928 263.053C303.05 262.756 303.281 262.516 303.573 262.381C303.879 262.267 304.214 262.262 304.523 262.367C304.829 262.455 305.115 262.601 305.364 262.799C305.85 263.205 306.224 263.729 306.45 264.321C306.703 264.835 307.046 265.298 307.464 265.689C307.877 266.081 308.351 266.402 308.868 266.639C309.261 266.811 309.669 266.946 310.086 267.044C310.227 267.076 310.368 267.103 310.509 267.13C311.644 267.304 312.8 267.306 313.935 267.135H313.945C314.145 267.085 314.344 267.039 314.545 266.994C314.863 266.917 315.176 266.839 315.494 266.771C317.026 266.426 318.567 266.123 320.117 265.862C321.162 265.699 322.203 265.553 323.262 265.453C323.793 265.408 324.33 265.385 324.871 265.38C325.139 265.385 325.416 265.408 325.689 265.421C325.957 265.462 326.284 265.512 326.511 265.553C326.863 265.618 327.218 265.663 327.575 265.689C328.231 265.738 328.89 265.75 329.547 265.726C330.495 265.693 331.44 265.613 332.379 265.485C332.465 265.476 332.556 265.462 332.642 265.449C333.672 265.301 334.692 265.091 335.697 264.821C336.196 264.681 336.685 264.507 337.16 264.299C337.64 264.096 338.081 263.811 338.464 263.458C337.722 264.218 336.8 264.778 335.783 265.085C335.141 265.323 334.485 265.524 333.82 265.685C333.456 265.78 333.092 265.862 332.729 265.93C332.242 266.026 331.756 266.112 331.265 266.18C330.706 266.262 330.143 266.326 329.579 266.371C329.188 266.398 328.797 266.421 328.407 266.43C327.721 266.453 327.034 266.41 326.357 266.303C325.768 266.186 325.165 266.15 324.566 266.194C324.162 266.212 323.753 266.249 323.339 266.285C322.312 266.389 321.28 266.539 320.258 266.703C319.335 266.862 318.408 267.035 317.485 267.217C316.912 267.326 316.34 267.444 315.767 267.562C315.217 267.68 314.667 267.798 314.117 267.921H314.108L314.076 267.926C313.076 268.051 312.064 268.054 311.063 267.935C310.831 267.907 310.6 267.871 310.368 267.821C309.753 267.687 309.158 267.476 308.595 267.194C308.034 266.903 307.523 266.524 307.082 266.071C306.646 265.614 306.293 265.083 306.041 264.503C305.941 264.229 305.822 263.962 305.687 263.703C305.546 263.458 305.37 263.234 305.164 263.04C304.956 262.851 304.714 262.702 304.45 262.604C304.194 262.493 303.908 262.47 303.637 262.54C303.379 262.678 303.16 262.877 302.997 263.119C302.835 263.362 302.735 263.64 302.705 263.931C302.86 269.016 308.382 269.907 314.413 269.185C316.791 268.883 319.143 268.403 321.448 267.748C321.762 267.662 322.071 267.576 322.371 267.503C323.745 267.144 325.142 266.877 326.552 266.703C326.57 266.698 326.588 266.695 326.607 266.694C328.363 266.432 330.152 266.478 331.892 266.83C332.119 266.885 332.341 266.958 332.556 267.048C335.538 268.216 337.351 267.871 338.451 266.907C338.782 266.615 339.061 266.268 339.273 265.88C339.368 265.71 339.453 265.534 339.528 265.353C339.587 265.212 339.642 265.071 339.687 264.926C340.145 263.421 339.996 261.796 339.273 260.399ZM331.538 261.572C330.074 262.976 327.902 261.758 327.616 260.681C327.329 259.599 328.62 258.259 330.502 257.668C332.379 257.086 334.133 257.49 334.424 258.568C334.484 258.768 334.468 258.983 334.378 259.172C334.32 259.294 334.241 259.407 334.147 259.504C333.656 260.017 332.647 260.513 331.538 261.572Z" fill="white"></path> <path d="M320.071 252.45C320.071 252.45 320.78 247.533 323.434 248.914C324.001 249.236 324.448 249.734 324.707 250.332C325.08 251.146 325.593 251.889 326.22 252.527C327.008 253.354 328.073 253.859 329.211 253.945C329.467 253.963 329.724 253.96 329.979 253.936C330.139 253.922 330.299 253.897 330.456 253.864C331.285 253.674 332.042 253.251 332.638 252.646C332.952 252.339 333.228 251.996 333.46 251.623C334.26 250.346 335.61 248.737 337.119 249.282C338.487 249.773 338.655 251.546 338.542 252.996C338.487 253.684 338.374 254.367 338.205 255.036C338.146 255.827 338.164 256.622 338.26 257.409C338.344 258.292 338.604 259.149 339.023 259.931C339.114 260.086 339.196 260.24 339.273 260.399C339.996 261.796 340.145 263.421 339.687 264.926C339.642 265.071 339.587 265.212 339.528 265.353C339.453 265.534 339.368 265.71 339.273 265.88C339.061 266.268 338.782 266.615 338.451 266.907C337.351 267.871 335.538 268.216 332.556 267.048C332.341 266.958 332.119 266.885 331.892 266.83C330.152 266.478 328.363 266.432 326.607 266.694C326.588 266.695 326.57 266.698 326.552 266.703C325.142 266.877 323.745 267.144 322.371 267.503C322.071 267.576 321.762 267.662 321.448 267.748C319.143 268.403 316.791 268.883 314.413 269.185C308.382 269.907 302.86 269.016 302.705 263.931M320.071 252.45C320.662 252.346 321.269 252.373 321.848 252.527C322.437 252.669 322.992 252.927 323.48 253.286C323.973 253.638 324.396 254.077 324.73 254.582C324.852 254.761 324.96 254.949 325.052 255.145C325.223 255.488 325.336 255.856 325.384 256.236C324.845 255.611 324.258 255.027 323.63 254.491C323.471 254.359 323.312 254.232 323.144 254.114C323.091 254.07 323.037 254.029 322.98 253.991C322.549 253.674 322.092 253.396 321.612 253.159C321.13 252.9 320.612 252.709 320.071 252.45ZM320.071 252.45C320.071 252.45 318.594 253.218 316.512 254.282M316.512 254.282C317.093 254.387 317.656 254.574 318.185 254.836C318.714 255.093 319.214 255.407 319.676 255.772C319.703 255.795 319.73 255.818 319.758 255.845C319.984 256.032 320.194 256.239 320.385 256.463C320.566 256.669 320.727 256.891 320.866 257.127C320.975 257.303 321.064 257.49 321.13 257.686C321.286 258.077 321.292 258.513 321.148 258.908C321.005 258.382 320.721 257.904 320.326 257.527C319.949 257.142 319.55 256.779 319.13 256.441L318.917 256.272L317.826 255.404C317.385 255.054 316.94 254.695 316.512 254.282ZM316.512 254.282C315.394 254.859 314.099 255.513 312.777 256.195M312.777 256.195C313.378 256.232 313.967 256.377 314.517 256.622C315.076 256.858 315.597 257.175 316.063 257.563C316.099 257.595 316.135 257.627 316.172 257.659C316.599 258.04 316.959 258.492 317.235 258.995C317.525 259.542 317.654 260.159 317.608 260.776C317.336 260.28 317.021 259.809 316.667 259.367C316.308 258.959 315.921 258.576 315.508 258.222C315.449 258.172 315.394 258.127 315.335 258.077C314.54 257.431 313.681 256.859 312.777 256.195ZM312.777 256.195L312.772 256.195C310.54 257.331 308.209 258.499 306.436 259.363C301.646 261.695 302.705 263.931 302.705 263.931M302.705 263.931C302.727 263.627 302.802 263.33 302.928 263.053C303.05 262.756 303.281 262.516 303.573 262.381C303.879 262.267 304.214 262.262 304.523 262.367C304.829 262.455 305.115 262.601 305.364 262.799C305.85 263.205 306.224 263.729 306.45 264.321C306.703 264.835 307.046 265.298 307.464 265.689C307.877 266.081 308.351 266.402 308.868 266.639C309.261 266.811 309.669 266.946 310.086 267.044C310.227 267.076 310.368 267.103 310.509 267.13C311.644 267.304 312.8 267.306 313.935 267.135H313.945C314.145 267.085 314.344 267.039 314.545 266.994C314.863 266.917 315.176 266.839 315.494 266.771C317.026 266.426 318.567 266.123 320.117 265.862C321.162 265.699 322.203 265.553 323.262 265.453C323.793 265.408 324.33 265.385 324.871 265.38C325.139 265.385 325.416 265.408 325.689 265.421C325.957 265.462 326.284 265.512 326.511 265.553C326.863 265.618 327.218 265.663 327.575 265.689C328.231 265.738 328.89 265.75 329.547 265.726C330.495 265.693 331.44 265.613 332.379 265.485C332.465 265.476 332.556 265.462 332.642 265.449C333.672 265.301 334.692 265.091 335.697 264.821C336.196 264.681 336.685 264.507 337.16 264.299C337.64 264.096 338.081 263.811 338.464 263.458C337.722 264.218 336.8 264.778 335.783 265.085C335.141 265.323 334.485 265.524 333.82 265.685C333.456 265.78 333.092 265.862 332.729 265.93C332.242 266.026 331.756 266.112 331.265 266.18C330.706 266.262 330.143 266.326 329.579 266.371C329.188 266.398 328.797 266.421 328.407 266.43C327.721 266.453 327.034 266.41 326.357 266.303C325.768 266.186 325.165 266.15 324.566 266.194C324.162 266.212 323.753 266.249 323.339 266.285C322.312 266.389 321.28 266.539 320.258 266.703C319.335 266.862 318.408 267.035 317.485 267.217C316.912 267.326 316.34 267.444 315.767 267.562C315.217 267.68 314.667 267.798 314.117 267.921H314.108L314.076 267.926C313.076 268.051 312.064 268.054 311.063 267.935C310.831 267.907 310.6 267.871 310.368 267.821C309.753 267.687 309.158 267.476 308.595 267.194C308.034 266.903 307.523 266.524 307.082 266.071C306.646 265.614 306.293 265.083 306.041 264.503C305.941 264.229 305.822 263.962 305.687 263.703C305.546 263.458 305.37 263.234 305.164 263.04C304.956 262.851 304.714 262.702 304.45 262.604C304.194 262.493 303.908 262.47 303.637 262.54C303.379 262.678 303.16 262.877 302.997 263.119C302.835 263.362 302.735 263.64 302.705 263.931ZM331.538 261.572C330.074 262.976 327.902 261.758 327.616 260.681C327.329 259.599 328.62 258.259 330.502 257.668C332.379 257.086 334.133 257.49 334.424 258.568C334.484 258.768 334.468 258.983 334.378 259.172C334.32 259.294 334.241 259.407 334.147 259.504C333.656 260.017 332.647 260.513 331.538 261.572Z" stroke="white" stroke-width="0.896" stroke-miterlimit="10"></path> <path d="M318.807 64.7959C319.371 65.3718 319.798 66.0678 320.055 66.832C320.327 67.5863 320.501 68.372 320.575 69.1704C320.646 69.9631 320.632 70.7612 320.531 71.5507C320.486 71.9439 320.397 72.332 320.319 72.7178C320.216 73.1011 320.094 73.4788 319.952 73.8494C319.9 73.4499 319.891 73.0609 319.875 72.6736C319.848 72.286 319.839 71.9022 319.823 71.521C319.784 71.1396 319.803 70.7599 319.757 70.383L319.727 69.8174L319.67 69.2555C319.606 68.5065 319.506 67.7634 319.374 67.0217C319.24 66.2669 319.05 65.5229 318.807 64.7959Z" fill="white"></path> <path d="M314.402 43.8964C314.047 44.4929 313.725 45.1084 313.437 45.7402C313.157 46.3778 312.92 47.0339 312.73 47.704C312.551 48.3671 312.436 49.0461 312.388 49.7314C312.356 50.4048 312.411 51.0795 312.553 51.7386L312.607 52.0015L312.368 52.1327C311.844 52.4204 311.336 52.735 310.845 53.0752C310.358 53.3982 309.905 53.7689 309.491 54.1819C309.305 54.3647 309.15 54.5774 309.033 54.8112C309.01 54.8597 308.99 54.91 308.973 54.9615C308.968 55.0063 308.959 55.0507 308.947 55.0941C308.944 55.2107 308.954 55.3273 308.976 55.4417C309.021 55.6511 309.14 55.8373 309.311 55.9656C309.499 56.1016 309.716 56.1908 309.945 56.226L310.266 56.2672L310.303 56.5687C310.519 58.6805 310.987 60.7587 311.7 62.7584C312.044 63.7551 312.61 64.6605 313.355 65.4061C313.727 65.7603 314.197 65.9945 314.704 66.0783C315.218 66.1332 315.737 66.0437 316.202 65.8201C318.214 65.1504 319.984 63.9056 321.295 62.2397C322.546 60.5668 323.224 58.5351 323.791 56.4995L323.855 56.2665L324.118 56.1942C324.545 56.0674 324.941 55.8549 325.283 55.5696C325.634 55.2803 325.926 54.9266 326.143 54.5275C326.551 53.6784 326.731 52.7377 326.666 51.7979C326.655 51.5579 326.623 51.3183 326.604 51.0784C326.568 50.8512 326.519 50.6262 326.457 50.4048C326.344 49.9681 326.122 49.6143 325.862 49.5432C325.678 49.5077 325.489 49.5108 325.306 49.5524C325.123 49.594 324.951 49.673 324.801 49.7846C324.405 50.0311 324.046 50.3327 323.735 50.6803L323.469 50.9834C323.316 51.1565 323.105 51.267 322.875 51.2935C322.648 51.3078 322.422 51.2413 322.239 51.1057C322.109 51.0091 321.991 50.8967 321.888 50.7713C321.558 50.3412 321.272 49.8783 321.037 49.3899C320.609 48.4768 320.129 47.5888 319.601 46.7299C319.311 46.3485 318.946 46.0304 318.529 45.7953C318.099 45.5327 317.656 45.2928 317.201 45.0763C316.298 44.6324 315.307 44.2544 314.402 43.8964ZM314.373 43.8101C314.928 43.9296 315.384 44.0682 315.888 44.2225C316.38 44.3758 316.868 44.5416 317.353 44.7249C317.841 44.9099 318.316 45.1259 318.776 45.3715C319.014 45.4959 319.242 45.6373 319.459 45.7947C319.689 45.9552 319.894 46.1485 320.068 46.3685C320.679 47.2127 321.223 48.1035 321.695 49.0327C321.921 49.4596 322.19 49.863 322.497 50.2368C322.559 50.3077 322.629 50.371 322.706 50.4252C322.769 50.4626 322.8 50.4602 322.788 50.4574C322.772 50.463 322.798 50.4532 322.846 50.3962L322.881 50.355L322.945 50.2746L323.075 50.1115C323.428 49.6767 323.849 49.3012 324.322 48.9992C324.448 48.9267 324.577 48.8561 324.709 48.7892C324.851 48.7274 324.997 48.6751 325.146 48.6324C325.308 48.5874 325.475 48.565 325.642 48.5657C325.73 48.5637 325.818 48.5676 325.906 48.5772C325.995 48.5982 326.085 48.6219 326.174 48.6481C326.348 48.7096 326.511 48.7978 326.657 48.9095C326.782 49.0276 326.898 49.1545 327.005 49.2892L327.239 49.7022L327.388 50.119C327.465 50.3904 327.524 50.6664 327.566 50.9454C327.589 51.216 327.623 51.4857 327.634 51.7572C327.711 52.8735 327.475 53.989 326.955 54.9794C326.669 55.4765 326.291 55.9143 325.841 56.2688C325.386 56.6328 324.857 56.8946 324.292 57.0364L324.619 56.7313C324.319 57.7819 323.947 58.8103 323.504 59.8088C323.063 60.8228 322.483 61.7706 321.781 62.6249C321.067 63.4692 320.219 64.1897 319.271 64.7571C318.33 65.3047 317.337 65.7556 316.306 66.1031C315.791 66.331 315.224 66.4177 314.664 66.3543C314.106 66.2563 313.586 66.002 313.166 65.6208C312.379 64.8518 311.753 63.9325 311.328 62.9173C310.88 61.9259 310.511 60.9005 310.224 59.8509C309.925 58.8038 309.692 57.7387 309.528 56.662L309.885 57.0046C309.503 56.9716 309.137 56.8354 308.827 56.6105C308.503 56.369 308.275 56.0203 308.185 55.6266C308.145 55.4415 308.127 55.2523 308.132 55.063C308.146 54.9565 308.164 54.8493 308.185 54.7437C308.213 54.649 308.249 54.5569 308.293 54.4688C308.451 54.1548 308.661 53.8698 308.914 53.6259C309.373 53.1794 309.876 52.7803 310.415 52.4346C310.94 52.0932 311.484 51.7808 312.044 51.499L311.859 51.893C311.723 51.1637 311.693 50.4185 311.771 49.6808C311.855 48.957 312.019 48.2449 312.261 47.5577C312.503 46.8802 312.802 46.2249 313.157 45.5992C313.503 44.9643 313.91 44.365 314.373 43.8101Z" fill="white"></path> <path d="M313.297 50.2887C313.541 50.0576 313.835 49.8858 314.157 49.7866C314.477 49.6786 314.813 49.6248 315.151 49.6275C315.827 49.625 316.483 49.8588 317.006 50.2887C316.673 50.2457 316.368 50.1783 316.059 50.1445C315.757 50.1038 315.453 50.0828 315.148 50.0818C314.843 50.0773 314.538 50.0938 314.236 50.131C313.929 50.1675 313.622 50.2187 313.297 50.2887ZM314.824 52.9339C315.001 52.9278 315.168 52.8534 315.291 52.7262C315.414 52.599 315.483 52.429 315.483 52.2521C315.483 52.0753 315.414 51.9053 315.291 51.7781C315.168 51.6509 315.001 51.5764 314.824 51.5704C314.647 51.5764 314.48 51.6509 314.357 51.7781C314.234 51.9053 314.165 52.0753 314.165 52.2521C314.165 52.429 314.234 52.599 314.357 52.7262C314.48 52.8534 314.647 52.9278 314.824 52.9339ZM310.074 57.8242C310.36 57.5691 310.702 57.3858 311.073 57.2893C311.444 57.1929 311.832 57.1862 312.206 57.2697C313.432 57.6951 314.728 57.8833 316.024 57.8242C318.206 57.8151 322.023 56.4244 322.023 55.4836V50.2933L323.223 50.616C323.223 50.616 323.441 56.0699 324.205 56.6153C322.678 62.0692 320.633 64.4416 315.942 66.0778C311.252 67.7139 310.074 57.654 310.074 57.654" fill="white"></path> <path d="M314.389 43.8531C315.287 42.868 316.341 42.0371 317.509 41.3936C318.684 40.7218 319.976 40.2779 321.316 40.085C322.673 39.9148 324.051 40.0007 325.377 40.3382C325.702 40.4409 326.023 40.5602 326.346 40.6714L326.829 40.8418L327.287 41.0685C327.914 41.3485 328.513 41.6886 329.075 42.084C330.773 43.3277 331.964 45.1439 332.427 47.1972C332.588 47.8609 332.697 48.5361 332.754 49.2166C332.877 50.5888 332.726 51.9717 332.308 53.2846C331.884 54.5904 331.196 55.7951 330.287 56.8244L330.359 56.5664C330.472 57.2661 330.633 57.9572 330.841 58.6346C331.054 59.3179 331.309 59.9874 331.604 60.6394C331.898 61.2951 332.248 61.9239 332.651 62.5189C333.058 63.1173 333.517 63.6786 334.023 64.1961C333.454 63.7367 332.937 63.2167 332.48 62.6454C332.02 62.0719 331.61 61.4595 331.256 60.8151C330.898 60.1703 330.59 59.4987 330.335 58.8064C330.071 58.1102 329.864 57.3938 329.716 56.6641L329.69 56.5308L329.788 56.406C330.586 55.4121 331.183 54.2726 331.546 53.0509C331.892 51.83 332.005 50.5545 331.878 49.2916C331.778 48.0292 331.454 46.7946 330.923 45.6453C330.368 44.519 329.556 43.5386 328.554 42.783C328.305 42.5926 328.043 42.4186 327.771 42.2621L326.927 41.8115L326.504 41.5868L326.058 41.4184C325.76 41.308 325.464 41.188 325.164 41.0837C323.939 40.7258 322.659 40.5938 321.386 40.6939C318.78 40.9869 316.332 42.092 314.389 43.8531Z" fill="white"></path> <path d="M314.389 43.8534C314.389 43.8534 320.427 37.3706 328.098 41.9533C329.968 43.0693 331.333 44.8663 331.907 46.9672C332.605 49.5307 332.841 53.2736 330.037 56.6155C328.967 57.189 324.206 56.6155 324.206 56.6155C324.206 56.6155 327.369 55.9611 327.151 51.707C326.933 47.453 324.315 49.1982 323.224 50.6163C322.133 52.0343 320.834 47.3439 319.466 46.1441C318.097 44.9442 314.389 43.8534 314.389 43.8534ZM323.042 248.683L322.588 248.658C322.589 248.649 322.638 247.678 322.588 245.417L323.042 245.406C323.093 247.689 323.044 248.644 323.042 248.683Z" fill="white"></path> <path d="M336.447 247.04H335.992V249.201H336.447V247.04Z" fill="white"></path> <path d="M343.644 247.04H343.189V249.283H343.644V247.04Z" fill="white"></path> <path d="M279.817 55.1418C280.124 55.5266 280.375 55.9527 280.564 56.4075C280.761 56.8616 280.912 57.3339 281.016 57.8176C281.117 58.3051 281.17 58.8012 281.175 59.299C281.182 59.7983 281.145 60.2973 281.067 60.7905L280.994 60.526C281.291 60.8373 281.607 61.1429 281.921 61.4333C282.08 61.5776 282.24 61.7181 282.402 61.8431L282.673 62.0409C282.781 62.1315 282.878 62.2348 282.961 62.3486C283.296 62.7694 283.467 63.2968 283.443 63.8339C283.417 64.1099 283.331 64.3771 283.193 64.6172C283.054 64.8573 282.865 65.0648 282.639 65.2256L282.798 64.9381C282.705 65.9619 282.526 66.9762 282.264 67.9702C282.007 68.9689 281.641 69.9362 281.171 70.8543C280.718 71.8002 280.053 72.6295 279.229 73.2786C278.803 73.5944 278.316 73.8179 277.799 73.9349C277.285 74.0398 276.756 74.0491 276.239 73.9622L276.381 73.9019C275.68 74.9022 275.034 75.9391 274.444 77.0083L274.432 77.0269L274.418 77.0443C274.236 77.3116 274.122 77.6196 274.086 77.9411C274.044 78.2771 274.047 78.6172 274.095 78.9524C274.199 79.6336 274.398 80.2968 274.687 80.9225C274.985 81.5523 275.323 82.1622 275.699 82.7485C276.07 83.3408 276.489 83.9039 276.908 84.4659L276.917 84.4779C276.978 84.56 277.005 84.663 276.99 84.7643C276.975 84.8655 276.921 84.9568 276.839 85.018C276.796 85.0494 276.748 85.0719 276.697 85.0842C275.3 85.3819 273.856 85.3721 272.463 85.0556C271.089 84.7615 269.77 84.2483 268.559 83.5355L267.668 82.9825C267.379 82.7882 267.112 82.5623 266.834 82.3536C266.287 81.9254 265.765 81.4672 265.269 80.9812C264.773 80.4981 264.338 79.9582 263.872 79.4505L262.627 77.8052C262.571 77.7307 262.545 77.6377 262.555 77.545C262.565 77.4523 262.61 77.3668 262.68 77.3059C263.191 76.8664 263.688 76.3844 264.181 75.9108C264.673 75.4332 265.144 74.9355 265.594 74.4178C266.045 73.904 266.463 73.3618 266.845 72.7946C267.239 72.2356 267.532 71.6119 267.71 70.9517C267.712 70.9399 267.719 70.9296 267.729 70.923C267.74 70.9163 267.752 70.914 267.764 70.9165C267.775 70.9189 267.784 70.9252 267.791 70.9342C267.797 70.9432 267.801 70.9542 267.8 70.9654C267.701 71.6658 267.469 72.3408 267.115 72.9536C266.786 73.5753 266.405 74.1678 265.975 74.7246C265.132 75.8482 264.196 76.8985 263.176 77.8641L263.23 77.3649L264.506 78.9053C264.975 79.3765 265.423 79.8679 265.905 80.3209C266.385 80.7732 266.89 81.1985 267.418 81.5947C267.684 81.7879 267.943 81.9916 268.214 82.1766L269.048 82.6975C270.173 83.3612 271.389 83.8581 272.657 84.1728C273.909 84.4843 275.211 84.5346 276.484 84.3205L276.272 84.9387C275.864 84.3403 275.458 83.7421 275.099 83.11C274.735 82.4783 274.42 81.8195 274.158 81.1395C273.895 80.4502 273.726 79.7287 273.656 78.9943C273.555 78.2285 273.742 77.4523 274.181 76.8169L274.155 76.8527C274.779 75.7788 275.472 74.7713 276.145 73.7418C276.16 73.7194 276.181 73.7016 276.205 73.6908C276.23 73.68 276.257 73.6766 276.284 73.6809L276.287 73.6814C276.761 73.7665 277.249 73.7456 277.714 73.6205C278.18 73.4953 278.612 73.2689 278.98 72.9574C279.697 72.3015 280.256 71.4912 280.614 70.5878C280.991 69.68 281.287 68.7404 281.497 67.7801C281.72 66.821 281.888 65.8498 281.999 64.8714L282 64.8624C282.006 64.8077 282.023 64.7549 282.05 64.707C282.078 64.6591 282.114 64.6172 282.158 64.5837C282.296 64.4936 282.414 64.3745 282.502 64.2345C282.589 64.0945 282.646 63.937 282.667 63.7731C282.681 63.4195 282.575 63.0716 282.365 62.7866C282.321 62.7204 282.269 62.6591 282.212 62.6036C282.175 62.5717 282.137 62.5417 282.097 62.5139C282.045 62.4772 282.003 62.4388 281.955 62.4012C281.773 62.2495 281.608 62.0927 281.446 61.9333C281.121 61.6144 280.826 61.2822 280.531 60.939L280.525 60.9327C280.495 60.8976 280.474 60.856 280.462 60.8113C280.45 60.7666 280.449 60.7197 280.458 60.6743C280.554 60.2175 280.617 59.7543 280.646 59.2884C280.675 58.8203 280.662 58.3506 280.607 57.8848C280.556 57.415 280.458 56.9515 280.316 56.5009C280.176 56.046 279.984 55.6086 279.745 55.1972L279.743 55.194C279.737 55.1842 279.735 55.1724 279.737 55.1612C279.739 55.1499 279.746 55.1399 279.755 55.1333C279.765 55.1267 279.776 55.1239 279.788 55.1254C279.799 55.127 279.809 55.1329 279.817 55.1418Z" fill="white"></path> <path d="M280.074 55.6428C280.074 55.6428 275.036 60.8147 270.782 61.3056C270.782 61.3056 269.473 60.1602 269.227 61.3056C268.982 62.4509 268.491 66.7867 271.109 66.2141C271.109 66.2141 273.727 69.7318 273.4 71.4498C273.072 73.1678 271.682 74.6403 271.6 77.5855C271.518 80.5306 273.154 88.1387 273.563 88.9568C273.972 89.7749 266.037 91.3293 264.482 90.184C262.928 89.0386 260.965 87.8115 259.41 88.3024C257.856 88.7933 253.602 89.2791 253.356 90.5905C253.111 91.902 250.411 90.9203 255.074 80.776C259.737 70.6318 258.756 57.5424 260.147 55.17C261.537 52.7975 274.395 45.8896 280.074 55.6428Z" fill="white"></path> <path d="M279.532 59.7515C278.851 59.611 278.161 59.5184 277.468 59.4746C277.132 59.4599 276.795 59.4741 276.461 59.5171C276.116 59.5697 275.775 59.6481 275.441 59.7515C275.702 59.4853 276.024 59.2864 276.379 59.1721C276.736 59.0567 277.111 59.0054 277.485 59.0207C277.855 59.0388 278.221 59.1095 278.571 59.2305C278.92 59.3452 279.245 59.5217 279.532 59.7515ZM277.732 62.3149C277.909 62.3088 278.076 62.2344 278.199 62.1072C278.322 61.98 278.391 61.81 278.391 61.6331C278.391 61.4563 278.322 61.2863 278.199 61.1591C278.076 61.0319 277.909 60.9575 277.732 60.9514C277.555 60.9575 277.388 61.0319 277.265 61.1591C277.142 61.2863 277.073 61.4563 277.073 61.6331C277.073 61.81 277.142 61.98 277.265 62.1072C277.388 62.2344 277.555 62.3088 277.732 62.3149ZM280.831 60.2876C280.831 60.2876 279.245 59.3834 278.796 60.5696V64.701C278.796 64.701 279.818 66.419 280.554 64.4555C280.991 63.1107 281.086 61.6783 280.831 60.2876Z" fill="white"></path> <path d="M272.188 60.9904L279.505 60.0684L279.563 60.9757L272.188 60.9904Z" fill="white"></path> <path d="M281.046 67.3999C280.94 67.6562 280.766 67.8786 280.542 68.043C280.31 68.2241 280.028 68.3305 279.734 68.3483C279.431 68.363 279.134 68.2646 278.9 68.0723C278.68 67.8991 278.516 67.6653 278.428 67.3999C278.638 67.5375 278.858 67.6611 279.085 67.7697C279.281 67.8635 279.498 67.9064 279.715 67.8945C280.19 67.8308 280.644 67.6618 281.046 67.3999ZM270.533 65.7092C270.71 65.7031 270.877 65.6287 271 65.5015C271.123 65.3743 271.192 65.2043 271.192 65.0274C271.192 64.8506 271.123 64.6806 271 64.5534C270.877 64.4262 270.71 64.3517 270.533 64.3457C270.356 64.3517 270.189 64.4262 270.066 64.5534C269.943 64.6806 269.874 64.8506 269.874 65.0274C269.874 65.2043 269.943 65.3743 270.066 65.5015C270.189 65.6287 270.356 65.7031 270.533 65.7092ZM254.035 120.807C253.815 118.159 253.685 115.507 253.644 112.852C253.592 110.197 253.619 107.542 253.697 104.887C253.803 102.232 253.951 99.5769 254.246 96.9314C254.405 95.6091 254.578 94.2889 254.832 92.9788C255.068 91.6661 255.428 90.3786 255.907 89.1337C255.599 90.4199 255.387 91.7271 255.273 93.0447C255.126 94.3561 255.05 95.6761 254.953 96.9925C254.803 99.6312 254.695 102.273 254.605 104.917L254.351 112.856C254.273 115.504 254.168 118.155 254.035 120.807ZM276.587 84.7023C278.393 87.3566 280.026 90.1244 281.477 92.9884C282.235 94.431 282.846 95.9462 283.3 97.5112C283.412 97.9305 283.478 98.3606 283.498 98.7942L283.484 100.004C283.465 100.809 283.433 101.612 283.394 102.414C283.303 104.016 283.183 105.615 283.063 107.208L282.978 108.394C282.97 108.776 282.985 109.157 283.022 109.537C283.091 110.325 283.172 111.12 283.253 111.914C283.6 115.089 283.949 118.272 284.25 121.462C283.599 118.324 283.016 115.175 282.549 112.003C282.43 111.209 282.316 110.416 282.229 109.612L282.171 109.002C282.156 108.802 282.145 108.56 282.15 108.36L282.204 107.151C282.298 105.551 282.411 103.959 282.487 102.366C282.533 101.57 282.571 100.775 282.597 99.9806L282.621 98.7912C282.602 98.4256 282.55 98.0625 282.464 97.7066C282.054 96.189 281.51 94.7109 280.838 93.2897C279.524 90.3924 278.072 87.5402 276.587 84.7023ZM271.278 89.9932C271.669 90.5216 272.023 91.0769 272.337 91.6552C272.662 92.2359 272.938 92.8428 273.162 93.4696C273.283 93.8048 273.362 94.1537 273.398 94.5083C273.419 94.7225 273.395 94.9387 273.329 95.1432C273.262 95.3478 273.153 95.5362 273.01 95.6965C272.74 95.9834 272.4 96.1935 272.023 96.3052C271.678 96.4082 271.32 96.4623 270.961 96.466L270.006 96.4901L270.739 95.9203C271.039 95.697 271.296 95.4207 271.496 95.105C271.603 94.974 271.655 94.8073 271.642 94.639C271.63 94.4707 271.554 94.3135 271.429 94.1996C271.117 93.9736 270.751 93.8332 270.367 93.7925C269.971 93.7316 269.57 93.7094 269.169 93.7264C268.354 93.7521 267.537 93.8019 266.723 93.849L264.284 93.9499C262.662 94.0444 261.044 94.1068 259.447 94.2481C258.658 94.308 257.876 94.4344 257.109 94.626C256.755 94.7079 256.429 94.8821 256.164 95.1309C256.114 95.1957 256.078 95.2697 256.057 95.3488C256.036 95.4278 256.031 95.5102 256.043 95.5912C256.061 95.6826 256.086 95.7727 256.117 95.8608L256.252 96.127L256.181 96.1841L255.968 95.9466C255.906 95.8537 255.853 95.7552 255.81 95.6524C255.768 95.5361 255.75 95.4126 255.756 95.2892C255.763 95.1658 255.794 95.045 255.848 94.9338C256.106 94.5529 256.473 94.2586 256.901 94.089C257.678 93.7519 258.495 93.5183 259.332 93.3943C260.964 93.1303 262.616 93.0216 264.268 93.0695C265.089 93.0776 265.909 93.0906 266.728 93.1494L269.179 93.3535C269.593 93.3913 270.006 93.4351 270.418 93.5123C270.848 93.5736 271.258 93.7311 271.619 93.9729C271.818 94.1213 271.951 94.3418 271.99 94.5871C272.018 94.8261 271.984 95.0683 271.89 95.2899C271.715 95.7011 271.462 96.0748 271.146 96.3907L270.924 95.8451C271.473 95.7719 271.987 95.5337 272.398 95.1621C272.545 94.9937 272.619 94.7741 272.604 94.5513C272.579 94.2585 272.527 93.9685 272.45 93.6849C272.29 93.0839 272.076 92.4771 271.86 91.8706L271.198 90.0366L271.278 89.9932Z" fill="white"></path> <path d="M257.764 94.1351C257.636 97.4506 257.531 100.765 257.508 104.081C257.466 107.395 257.491 110.709 257.584 114.021C257.642 115.676 257.693 117.331 257.802 118.979C257.853 119.802 257.922 120.627 258.023 121.431L258.201 122.664L258.357 123.902C258.745 127.202 259.124 130.498 259.442 133.802C259.763 137.105 260.106 140.405 260.383 143.712L260.808 148.673C260.839 149.095 260.877 149.483 260.903 149.936C260.888 150.161 260.854 150.385 260.801 150.604L260.668 151.216L260.106 153.643L258.962 158.486C258.876 158.887 258.768 159.304 258.717 159.686C258.695 160.086 258.717 160.487 258.783 160.881C258.915 161.693 259.095 162.497 259.322 163.288C259.771 164.879 260.321 166.44 260.969 167.961C261.241 168.725 261.66 169.427 262.204 170.028C262.323 170.164 262.479 170.263 262.652 170.314C262.826 170.364 263.01 170.365 263.184 170.314C263.528 170.153 263.81 169.883 263.985 169.546L264.104 169.34L264.25 169.53L264.616 170.006C264.739 170.163 264.887 170.295 265.02 170.441C265.288 170.714 265.621 170.913 265.988 171.021C266.164 171.063 266.348 171.065 266.525 171.027C266.702 170.989 266.869 170.912 267.013 170.802C267.314 170.568 267.558 170.268 267.727 169.926L267.836 169.709L268.01 169.877C268.296 170.167 268.616 170.422 268.964 170.635C269.306 170.829 269.689 170.912 269.919 170.682C270.161 170.39 270.307 170.029 270.337 169.651C270.395 169.247 270.413 168.839 270.391 168.432L270.376 168.13L270.672 168.205C271.051 168.319 271.449 168.356 271.843 168.316C272.017 168.299 272.185 168.238 272.328 168.137C272.472 168.036 272.586 167.9 272.661 167.741C272.809 167.39 272.857 167.004 272.8 166.627C272.757 166.252 272.593 165.9 272.333 165.626C271.812 165.033 271.082 164.544 270.462 163.92C269.816 163.3 269.307 162.552 268.965 161.725C268.661 160.904 268.439 160.054 268.301 159.19C268.221 158.759 268.163 158.324 268.127 157.887C268.071 157.411 268.113 156.929 268.249 156.47C268.303 156.327 268.385 156.195 268.488 156.082C268.547 156.018 268.615 155.964 268.69 155.921C268.736 155.889 268.788 155.865 268.842 155.851C268.885 155.839 268.93 155.831 268.974 155.827C269.009 155.829 269.045 155.832 269.079 155.837C269.25 155.876 269.407 155.96 269.535 156.08C269.625 156.161 269.711 156.246 269.792 156.336C270.099 156.677 270.351 157.023 270.609 157.367C271.119 158.057 271.613 158.742 272.14 159.396C272.65 160.048 273.214 160.655 273.828 161.211C274.08 161.461 274.385 161.65 274.721 161.765C274.765 161.779 274.812 161.782 274.858 161.773C274.903 161.764 274.946 161.745 274.982 161.716C275.083 161.621 275.159 161.503 275.203 161.371C275.266 161.201 275.312 161.025 275.341 160.846C275.367 160.677 275.368 160.504 275.343 160.334C275.289 159.984 275.147 159.653 274.93 159.372C274.395 158.636 274.011 157.801 273.799 156.917C273.572 156.074 273.4 155.217 273.284 154.352C273.196 153.526 273.045 152.708 272.834 151.905C272.637 151.136 272.291 150.412 271.815 149.776C271.586 149.481 271.311 149.226 271.001 149.019C270.85 148.923 270.691 148.842 270.525 148.778C270.379 148.72 270.227 148.683 270.072 148.666L269.596 148.622L269.59 148.192L269.428 134.552C269.404 132.278 269.386 130.005 269.397 127.729C269.404 126.588 269.4 125.461 269.44 124.3C269.477 123.17 269.511 122.04 269.53 120.901C269.618 116.356 269.724 111.811 269.848 107.266C269.953 102.721 270.11 98.177 270.244 93.6318L270.335 93.6329C270.345 98.1798 270.377 102.727 270.357 107.274C270.351 111.822 270.332 116.369 270.3 120.916C270.297 122.051 270.279 123.193 270.258 124.335C270.236 125.447 270.255 126.594 270.264 127.726L270.349 134.542L270.553 148.177L270.072 147.703C270.569 147.762 271.048 147.924 271.478 148.18C271.908 148.436 272.279 148.78 272.567 149.189C273.112 149.925 273.507 150.761 273.731 151.649C273.948 152.497 274.101 153.359 274.188 154.229C274.292 155.055 274.449 155.873 274.659 156.679C274.835 157.459 275.164 158.197 275.627 158.849C275.93 159.249 276.126 159.721 276.196 160.218C276.231 160.471 276.228 160.728 276.186 160.98C276.147 161.222 276.082 161.459 275.993 161.687C275.893 161.959 275.724 162.199 275.501 162.384C275.368 162.486 275.214 162.557 275.05 162.592C274.887 162.628 274.717 162.627 274.554 162.589C274.074 162.447 273.637 162.189 273.281 161.837C272.632 161.245 272.04 160.594 271.511 159.893C270.98 159.209 270.49 158.503 269.998 157.813C269.751 157.471 269.504 157.124 269.245 156.827C269.185 156.757 269.121 156.691 269.054 156.628C269.001 156.575 268.916 156.537 268.964 156.552C269.134 156.534 269.021 156.54 269.007 156.579C268.966 156.623 268.935 156.674 268.913 156.73C268.81 157.092 268.777 157.469 268.816 157.843C268.843 158.256 268.891 158.668 268.96 159.076C269.076 159.898 269.271 160.707 269.544 161.49C269.841 162.249 270.294 162.938 270.873 163.512C271.442 164.11 272.145 164.586 272.745 165.283C273.066 165.643 273.264 166.095 273.311 166.575C273.371 167.047 273.298 167.526 273.101 167.959C272.989 168.19 272.818 168.386 272.605 168.529C272.394 168.662 272.157 168.747 271.909 168.778C271.452 168.821 270.991 168.771 270.553 168.633L270.834 168.406C270.851 168.845 270.823 169.285 270.752 169.719C270.703 170.189 270.503 170.631 270.183 170.979C270.083 171.067 269.965 171.132 269.837 171.17C269.71 171.209 269.575 171.22 269.443 171.203C269.208 171.166 268.981 171.083 268.778 170.959C268.406 170.723 268.065 170.443 267.762 170.124L268.044 170.075C267.843 170.466 267.558 170.807 267.209 171.075C267.025 171.211 266.814 171.305 266.59 171.351C266.366 171.397 266.135 171.393 265.912 171.339C265.491 171.217 265.108 170.987 264.801 170.673C264.659 170.517 264.502 170.372 264.374 170.207L263.995 169.707L264.26 169.692C264.047 170.095 263.704 170.415 263.286 170.598C263.059 170.681 262.811 170.683 262.582 170.604L262.415 170.544L262.271 170.453C262.173 170.398 262.083 170.328 262.007 170.246C261.435 169.614 260.995 168.874 260.714 168.069C260.058 166.539 259.493 164.971 259.022 163.373C258.784 162.571 258.594 161.756 258.452 160.932C258.378 160.508 258.351 160.078 258.373 159.649C258.429 159.21 258.529 158.821 258.613 158.41L259.654 153.542L260.159 151.109L260.276 150.502C260.316 150.317 260.342 150.13 260.354 149.942L260.234 148.726L259.7 143.78C259.326 140.483 259.004 137.182 258.647 133.884L257.607 123.99L257.462 122.759L257.295 121.527C257.196 120.686 257.135 119.855 257.091 119.022C257.002 117.359 256.944 115.697 256.929 114.035C256.901 110.711 256.953 107.389 257.066 104.07C257.2 100.752 257.387 97.4364 257.673 94.1294L257.764 94.1351Z" fill="white"></path> <path d="M266.117 161.602L266.685 163.679L266.968 164.717C267.051 165.056 267.191 165.379 267.382 165.671C267.572 165.959 267.811 166.211 268.088 166.416L268.971 167.021L270.749 168.235L270.483 168.604L268.772 167.298L267.913 166.639C267.624 166.401 267.379 166.114 267.189 165.791C267.003 165.471 266.872 165.122 266.803 164.758L266.574 163.706L266.117 161.602ZM267.731 170.164L266.265 168.659L265.532 167.906C265.268 167.661 265.038 167.38 264.849 167.073C264.676 166.76 264.542 166.426 264.451 166.079L264.134 165.078L263.499 163.075L264.241 165.04L264.612 166.023C264.716 166.35 264.86 166.662 265.042 166.953C265.236 167.233 265.468 167.485 265.73 167.703L266.502 168.415L268.048 169.838L267.731 170.164ZM263.942 169.753L263.122 168.52C262.833 168.113 262.566 167.69 262.321 167.255C262.141 166.789 262 166.308 261.898 165.819L261.535 164.384L262.007 165.787C262.142 166.255 262.315 166.711 262.523 167.151C262.795 167.555 263.087 167.946 263.398 168.321L264.31 169.486L263.942 169.753ZM269.744 148.867C269.92 148.861 270.088 148.787 270.211 148.66C270.334 148.533 270.402 148.363 270.402 148.186C270.402 148.009 270.334 147.839 270.211 147.712C270.088 147.584 269.92 147.51 269.744 147.504C269.567 147.51 269.399 147.584 269.276 147.712C269.153 147.839 269.085 148.009 269.085 148.186C269.085 148.363 269.153 148.533 269.276 148.66C269.399 148.787 269.567 148.861 269.744 148.867ZM267.453 149.958C267.63 149.952 267.797 149.878 267.92 149.75C268.043 149.623 268.112 149.453 268.112 149.276C268.112 149.1 268.043 148.93 267.92 148.802C267.797 148.675 267.63 148.601 267.453 148.595C267.276 148.601 267.109 148.675 266.986 148.802C266.863 148.93 266.794 149.1 266.794 149.276C266.794 149.453 266.863 149.623 266.986 149.75C267.109 149.878 267.276 149.952 267.453 149.958ZM264.835 150.94C265.012 150.934 265.179 150.859 265.302 150.732C265.425 150.605 265.494 150.435 265.494 150.258C265.494 150.081 265.425 149.911 265.302 149.784C265.179 149.657 265.012 149.582 264.835 149.576C264.658 149.582 264.491 149.657 264.368 149.784C264.245 149.911 264.176 150.081 264.176 150.258C264.176 150.435 264.245 150.605 264.368 150.732C264.491 150.859 264.658 150.934 264.835 150.94ZM262.326 151.376C262.503 151.37 262.671 151.296 262.793 151.168C262.916 151.041 262.985 150.871 262.985 150.694C262.985 150.518 262.916 150.348 262.793 150.22C262.671 150.093 262.503 150.019 262.326 150.013C262.149 150.019 261.982 150.093 261.859 150.22C261.736 150.348 261.667 150.518 261.667 150.694C261.667 150.871 261.736 151.041 261.859 151.168C261.982 151.296 262.149 151.37 262.326 151.376ZM260.254 151.267C260.431 151.261 260.598 151.187 260.721 151.059C260.844 150.932 260.913 150.762 260.913 150.585C260.913 150.408 260.844 150.239 260.721 150.111C260.598 149.984 260.431 149.91 260.254 149.904C260.077 149.91 259.909 149.984 259.787 150.111C259.664 150.239 259.595 150.408 259.595 150.585C259.595 150.762 259.664 150.932 259.787 151.059C259.909 151.187 260.077 151.261 260.254 151.267ZM252.24 237.554C251.527 237.394 250.834 237.159 250.17 236.854C250.826 220.192 253.085 160.04 251.963 152.44C252.575 156.182 253.173 159.924 253.557 163.694C254.018 167.45 254.344 171.226 254.645 174.997C255.238 182.548 255.646 190.114 255.933 197.684L256.404 209.045C256.482 210.935 256.56 212.83 256.662 214.731C256.778 216.635 256.924 218.526 257.06 220.411L257.896 231.747C258.09 234.06 258.275 236.373 258.464 238.686C257.104 238.492 255.734 238.273 254.378 238.016C253.659 237.88 252.949 237.729 252.24 237.554Z" fill="white"></path> <path d="M258.547 239.668C258.64 240.81 258.732 241.948 258.834 243.085C258.834 243.085 253.596 244.066 250 241.121C250 241.121 250.063 239.562 250.17 236.855C250.777 237.282 251.439 237.626 252.138 237.875C252.828 238.143 253.533 238.376 254.242 238.58C255.617 238.974 257.007 239.294 258.421 239.552C258.461 239.593 258.503 239.632 258.547 239.668Z" fill="white"></path> <path d="M264.817 241.874C264.822 243.026 264.822 244.172 264.836 245.324C262.672 245.124 260.601 244.351 258.835 243.084C258.801 241.996 258.753 240.907 258.709 239.819C259.814 240.706 261.118 241.312 262.509 241.587C263.27 241.741 264.041 241.836 264.817 241.874ZM277.086 127.493C276.906 128.577 276.707 129.641 276.45 130.681C276.184 131.823 275.8 132.933 275.303 133.995C275.058 134.512 274.759 135.001 274.409 135.453C274.072 135.903 273.671 136.301 273.218 136.633C272.751 136.96 272.236 137.214 271.693 137.387C271.117 137.556 270.526 137.665 269.929 137.712C269.89 134.291 269.851 130.7 269.836 128.052C270.687 128.028 271.537 127.994 272.387 127.94C273.729 127.843 275.07 127.736 276.401 127.581C276.634 127.552 276.858 127.522 277.086 127.493ZM284.351 126.259C281.673 126.478 279.006 126.658 276.338 126.828C274.166 126.949 271.999 127.056 269.832 127.1C269.827 125.749 269.832 124.748 269.851 124.296C269.865 123.99 269.88 123.329 269.899 122.401C277.276 122.207 284.249 121.463 284.249 121.463C284.249 121.463 284.312 123.208 284.351 126.259ZM256.478 126.074C255.182 125.77 253.951 125.235 252.844 124.495C253.193 123.324 253.592 122.1 254.034 120.807C255.192 121.382 256.439 121.755 257.722 121.91C257.824 122.493 258.024 124.184 258.271 126.473C257.669 126.366 257.071 126.235 256.478 126.074Z" fill="white"></path> <path d="M281.082 180.581C276.831 209.376 275.796 243.084 275.796 243.084C275.796 243.084 270.499 245.917 264.833 245.325C264.901 244.178 264.955 243.031 265.008 241.879C265.706 241.91 266.405 241.902 267.103 241.855C268.619 241.756 270.124 241.528 271.602 241.175C273.074 240.84 274.515 240.385 275.912 239.814C274.445 240.13 272.968 240.387 271.495 240.597C270.027 240.809 268.547 240.937 267.064 240.98C266.393 240.995 265.722 240.98 265.057 240.942C265.13 239.318 265.198 237.691 265.28 236.063L265.62 226.806C265.844 220.63 265.975 214.454 266.155 208.278C266.257 202.102 266.398 195.926 266.461 189.745L266.534 180.479C266.519 177.388 266.544 174.298 266.505 171.207C266.325 174.293 266.208 177.378 266.058 180.469L265.713 189.73C265.494 195.902 265.358 202.078 265.183 208.254C265.086 214.435 264.94 220.611 264.877 226.787L264.804 236.053C264.809 237.681 264.811 239.306 264.809 240.927C264.103 240.882 263.401 240.784 262.71 240.635C261.311 240.383 260.004 239.762 258.924 238.837L258.813 238.74L258.686 238.721C258.678 238.721 258.67 238.719 258.662 238.716C258.565 236.384 258.463 234.051 258.371 231.719L257.802 220.353C257.311 212.807 257.214 205.226 256.903 197.646C256.733 193.856 256.527 190.067 256.286 186.28C256.038 182.495 255.776 178.71 255.387 174.934C254.993 171.159 254.585 167.383 254.026 163.632C253.482 159.875 252.794 156.145 251.961 152.441C250.751 144.282 248.613 138.544 252.841 124.496C253.858 125.399 255.043 126.091 256.33 126.532C256.99 126.768 257.661 126.971 258.341 127.139C259.221 135.254 260.63 149.618 260.63 149.987C260.63 150.478 258.779 158.33 258.56 159.53C258.341 160.731 259.323 164.545 261.014 168.418C262.705 172.291 264.124 169.618 264.124 169.618C266.466 173 267.885 170.002 267.885 170.002C270.883 173 270.611 168.418 270.611 168.418C272.574 168.962 273.147 167.942 273.065 166.673C272.934 164.613 269.795 164.385 268.92 160.565C268.278 157.762 268.322 156.474 268.92 156.202C269.522 155.93 271.485 159.856 273.774 161.712C275.076 162.762 275.567 161.926 275.747 161.003C275.809 160.659 275.794 160.307 275.705 159.969C275.616 159.632 275.455 159.318 275.232 159.049C274.731 158.423 274.046 156.994 273.667 153.748C273.011 148.184 270.071 148.184 270.071 148.184C270.071 148.184 269.994 143.17 269.926 137.713C270.532 137.867 271.16 137.915 271.782 137.854C272.425 137.779 273.049 137.583 273.619 137.275C274.737 136.604 275.627 135.609 276.17 134.423C276.702 133.286 277.047 132.07 277.19 130.822C277.334 129.713 277.334 128.589 277.19 127.479C279.596 127.197 281.985 126.79 284.348 126.26C284.464 135.92 284.319 158.69 281.082 180.581Z" fill="white"></path> <path d="M272.527 244.421C272.43 245.848 272.557 247.281 272.903 248.668C273.219 250.044 273.797 251.346 274.606 252.503C275.41 253.647 276.436 254.617 277.622 255.357C278.816 256.092 280.12 256.631 281.484 256.952C284.333 257.541 287.097 258.489 289.707 259.775C290.986 260.456 292.285 261.245 293.145 262.494C293.363 262.807 293.515 263.161 293.593 263.534C293.67 263.908 293.671 264.293 293.596 264.667C293.39 265.387 293.006 266.044 292.481 266.578L292.462 266.599L292.439 266.609C291.458 267.007 290.424 267.262 289.37 267.365C288.325 267.49 287.271 267.521 286.22 267.458C284.114 267.336 282.034 266.93 280.037 266.251L277.103 265.171C276.13 264.835 275.151 264.52 274.157 264.256C272.166 263.731 270.137 263.359 268.089 263.144C267.065 263.018 266.035 262.93 264.995 262.829C263.922 262.755 262.86 262.576 261.822 262.295C261.682 262.258 261.546 262.206 261.416 262.141C261.278 262.082 261.144 262.015 261.014 261.94L260.635 261.661C260.521 261.554 260.416 261.441 260.318 261.32C259.957 260.852 259.714 260.304 259.609 259.723C259.416 258.651 259.402 257.555 259.568 256.478C259.873 254.396 260.384 252.35 261.094 250.369C261.427 249.4 261.646 248.395 261.745 247.375C261.796 246.867 261.783 246.355 261.708 245.85C261.65 245.344 261.465 244.862 261.17 244.448L261.232 244.381C261.585 244.786 261.823 245.279 261.921 245.808C262.037 246.327 262.087 246.858 262.072 247.39C262.045 248.448 261.88 249.499 261.581 250.515C261.307 251.521 261.043 252.517 260.831 253.528C260.603 254.528 260.437 255.541 260.334 256.561C260.212 257.55 260.252 258.552 260.455 259.527C260.547 259.97 260.741 260.386 261.023 260.741C261.09 260.821 261.162 260.897 261.238 260.969L261.489 261.148C261.586 261.2 261.686 261.247 261.787 261.289C261.89 261.34 261.999 261.38 262.111 261.406C263.088 261.647 264.085 261.799 265.09 261.861C266.121 261.963 267.164 262.054 268.205 262.184C270.295 262.435 272.361 262.849 274.386 263.423C275.398 263.714 276.396 264.046 277.381 264.418L280.272 265.584C282.193 266.326 284.204 266.808 286.252 267.019C287.276 267.13 288.309 267.135 289.334 267.036C290.355 266.952 291.359 266.722 292.315 266.353L292.274 266.383C292.773 265.894 293.132 265.28 293.316 264.606C293.381 264.271 293.375 263.927 293.298 263.595C293.221 263.263 293.075 262.951 292.869 262.679C292.452 262.116 291.933 261.637 291.338 261.266C290.744 260.88 290.121 260.54 289.474 260.25C288.171 259.669 286.827 259.185 285.453 258.804C284.076 258.396 282.706 258.072 281.285 257.743C280.922 257.663 280.566 257.558 280.218 257.43C279.866 257.317 279.523 257.176 279.183 257.03C278.837 256.898 278.513 256.711 278.178 256.553C277.857 256.367 277.527 256.195 277.221 255.983C275.962 255.178 274.891 254.112 274.08 252.856C272.522 250.334 271.938 247.33 272.437 244.407L272.527 244.421Z" fill="white"></path> <path d="M265.673 253.391C265.776 253.984 265.929 254.567 266.13 255.135C266.237 255.398 266.376 255.647 266.544 255.875C266.734 256.109 266.951 256.318 267.191 256.5C266.859 256.471 266.543 256.339 266.289 256.122C266.035 255.898 265.837 255.618 265.709 255.304C265.591 254.997 265.527 254.671 265.52 254.342C265.507 254.018 265.559 253.695 265.673 253.391ZM256.548 248.483C256.707 248.979 256.795 249.444 256.963 249.856C257.033 250.056 257.14 250.242 257.278 250.404C257.442 250.567 257.64 250.693 257.857 250.774C257.725 250.818 257.585 250.833 257.446 250.817C257.308 250.801 257.175 250.755 257.057 250.681C256.819 250.523 256.638 250.292 256.541 250.024C256.445 249.775 256.398 249.511 256.401 249.244C256.397 248.983 256.447 248.724 256.548 248.483ZM259.865 255.856C258.765 258.239 259.865 263.863 259.865 263.863L258.838 270H268.655V265.335C268.655 265.335 282.399 269.917 287.308 269.999C292.216 270.08 292.38 266.481 292.38 266.481C292.38 266.481 287.308 268.935 278.636 265.335C269.964 261.736 263.583 262.881 261.293 261.572C259.85 260.748 259.64 258.496 260.051 255.756M273.026 249.944C274.842 250.121 276.639 250.397 278.429 250.716C280.219 251.031 281.997 251.408 283.769 251.831C284.653 252.059 285.534 252.282 286.417 252.568C286.638 252.643 286.857 252.719 287.086 252.816C287.146 252.839 287.205 252.866 287.263 252.896C287.333 252.927 287.401 252.965 287.464 253.008C287.504 253.035 287.545 253.064 287.58 253.093L287.655 253.174C287.704 253.226 287.751 253.281 287.794 253.338C288.098 253.764 288.284 254.263 288.332 254.783C288.39 255.299 288.297 255.82 288.064 256.284C287.823 256.724 287.473 257.094 287.046 257.359C286.229 257.814 285.314 258.067 284.379 258.098C285.245 257.89 286.062 257.516 286.786 256.996C287.11 256.743 287.364 256.411 287.524 256.033C287.665 255.666 287.702 255.266 287.63 254.879C287.559 254.497 287.4 254.137 287.166 253.827C287.139 253.795 287.111 253.765 287.08 253.737L287.039 253.693C287.03 253.691 287.022 253.688 287.014 253.684C286.982 253.666 286.949 253.651 286.914 253.639C286.87 253.618 286.825 253.6 286.778 253.585C286.586 253.514 286.373 253.45 286.161 253.39C285.31 253.141 284.43 252.924 283.553 252.714L278.279 251.407C276.521 250.958 274.767 250.489 273.026 249.944Z" fill="white"></path> <path d="M282.326 251.953C282.326 251.953 280.103 254.813 279.814 256.865C279.814 256.865 274.296 255.056 272.923 249.628L282.326 251.953ZM253.573 242.861C253.708 243.896 253.751 244.941 253.701 245.984C253.676 247.05 253.484 248.106 253.131 249.112C252.733 250.035 252.41 250.989 252.167 251.965C252.09 252.435 252.07 252.912 252.107 253.387C252.156 253.872 252.248 254.352 252.382 254.821L252.2 254.579C252.743 254.923 253.307 255.234 253.887 255.511C254.471 255.799 255.067 256.067 255.678 256.299C256.905 256.783 258.169 257.167 259.458 257.449C258.788 257.451 258.119 257.402 257.456 257.302C256.79 257.205 256.13 257.065 255.482 256.882C254.832 256.697 254.193 256.476 253.568 256.219C252.935 255.958 252.321 255.655 251.728 255.313L251.593 255.233L251.546 255.07C251.387 254.547 251.276 254.012 251.213 253.469C251.156 252.913 251.182 252.352 251.288 251.804C251.547 250.774 251.919 249.775 252.399 248.827C252.786 247.899 253.053 246.926 253.194 245.93C253.36 244.921 253.474 243.896 253.573 242.861Z" fill="white"></path> <path d="M259.864 263.863H250.738C252.047 262.39 251.965 254.946 251.965 254.946C254.359 256.403 257.068 257.261 259.864 257.449V263.863ZM275.918 264.331L284.378 267.022C284.967 262.982 289.029 259.747 289.029 259.747C286.73 258.491 281.79 257.449 281.79 257.449C281.79 257.449 278.272 258.581 275.918 264.331Z" fill="white"></path> </svg> 