<?xml version="1.0" encoding="UTF-8"?> <svg xmlns="http://www.w3.org/2000/svg" width="600" height="400" viewBox="0 0 600 400" fill="none"> <rect width="600" height="400" rx="20" fill="#2724A4"></rect> <path d="M71.4273 322L76.4213 306.16H80.3043L85.2983 322H82.5703L78.0383 307.788H78.6323L74.1553 322H71.4273ZM74.2103 318.568V316.093H82.5263V318.568H74.2103ZM95.0354 322L90.4044 306.16H93.1874L96.3444 317.6L99.4904 306.182L102.273 306.16L105.43 317.6L108.576 306.16H111.359L106.739 322H104.121L100.876 310.736L97.6534 322H95.0354ZM119.424 322.33C117.84 322.33 116.483 321.985 115.354 321.296C114.224 320.599 113.355 319.631 112.747 318.392C112.145 317.153 111.845 315.715 111.845 314.08C111.845 312.445 112.145 311.007 112.747 309.768C113.355 308.529 114.224 307.564 115.354 306.875C116.483 306.178 117.84 305.83 119.424 305.83C121.008 305.83 122.364 306.178 123.494 306.875C124.63 307.564 125.499 308.529 126.101 309.768C126.709 311.007 127.014 312.445 127.014 314.08C127.014 315.715 126.709 317.153 126.101 318.392C125.499 319.631 124.63 320.599 123.494 321.296C122.364 321.985 121.008 322.33 119.424 322.33ZM119.424 319.833C120.487 319.84 121.371 319.606 122.075 319.129C122.786 318.652 123.318 317.981 123.67 317.116C124.029 316.251 124.209 315.239 124.209 314.08C124.209 312.921 124.029 311.917 123.67 311.066C123.318 310.208 122.786 309.541 122.075 309.064C121.371 308.587 120.487 308.342 119.424 308.327C118.36 308.32 117.477 308.554 116.773 309.031C116.069 309.508 115.537 310.179 115.178 311.044C114.826 311.909 114.65 312.921 114.65 314.08C114.65 315.239 114.826 316.247 115.178 317.105C115.53 317.956 116.058 318.619 116.762 319.096C117.473 319.573 118.36 319.818 119.424 319.833ZM129.203 322V306.16H131.59L137.068 317.38L142.546 306.16H144.933V322H142.458V311.847L137.596 322H136.54L131.689 311.847V322H129.203ZM146.923 322L151.917 306.16H155.8L160.794 322H158.066L153.534 307.788H154.128L149.651 322H146.923ZM149.706 318.568V316.093H158.022V318.568H149.706ZM162.783 322V306.16H165.467L172.815 317.325V306.16H175.499V322H172.815L165.467 310.835V322H162.783ZM189.677 322.33C188.093 322.33 186.737 321.985 185.607 321.296C184.478 320.599 183.609 319.631 183 318.392C182.399 317.153 182.098 315.715 182.098 314.08C182.098 312.445 182.399 311.007 183 309.768C183.609 308.529 184.478 307.564 185.607 306.875C186.737 306.178 188.093 305.83 189.677 305.83C191.503 305.83 193.025 306.288 194.242 307.205C195.46 308.114 196.314 309.343 196.805 310.89L194.132 311.627C193.824 310.593 193.3 309.786 192.559 309.207C191.819 308.62 190.858 308.327 189.677 308.327C188.614 308.327 187.727 308.565 187.015 309.042C186.311 309.519 185.78 310.19 185.42 311.055C185.068 311.913 184.889 312.921 184.881 314.08C184.881 315.239 185.057 316.251 185.409 317.116C185.769 317.974 186.304 318.641 187.015 319.118C187.727 319.595 188.614 319.833 189.677 319.833C190.858 319.833 191.819 319.54 192.559 318.953C193.3 318.366 193.824 317.56 194.132 316.533L196.805 317.27C196.314 318.817 195.46 320.049 194.242 320.966C193.025 321.875 191.503 322.33 189.677 322.33ZM197.691 322L202.685 306.16H206.568L211.562 322H208.834L204.302 307.788H204.896L200.419 322H197.691ZM200.474 318.568V316.093H208.79V318.568H200.474ZM213.551 322V306.16H216.235L223.583 317.325V306.16H226.267V322H223.583L216.235 310.835V322H213.551ZM240.28 322.33C239.253 322.33 238.289 322.15 237.387 321.791C236.492 321.424 235.704 320.889 235.022 320.185C234.347 319.481 233.819 318.619 233.438 317.6C233.057 316.573 232.866 315.4 232.866 314.08C232.866 312.349 233.189 310.872 233.834 309.647C234.479 308.415 235.363 307.473 236.485 306.82C237.607 306.16 238.872 305.83 240.28 305.83C242.231 305.83 243.774 306.285 244.911 307.194C246.055 308.096 246.829 309.365 247.232 311L244.526 311.429C244.225 310.49 243.734 309.742 243.052 309.185C242.37 308.62 241.501 308.338 240.445 308.338C239.382 308.323 238.498 308.554 237.794 309.031C237.09 309.508 236.558 310.179 236.199 311.044C235.847 311.909 235.671 312.921 235.671 314.08C235.671 315.239 235.847 316.247 236.199 317.105C236.551 317.956 237.079 318.619 237.783 319.096C238.494 319.573 239.382 319.818 240.445 319.833C241.244 319.84 241.945 319.697 242.546 319.404C243.147 319.103 243.639 318.652 244.02 318.051C244.401 317.442 244.658 316.683 244.79 315.774H241.996V313.695H247.606C247.621 313.812 247.632 313.985 247.639 314.212C247.646 314.439 247.65 314.575 247.65 314.619C247.65 316.115 247.353 317.446 246.759 318.612C246.172 319.771 245.329 320.68 244.229 321.34C243.129 322 241.813 322.33 240.28 322.33ZM249.859 322V306.16H260.089V308.646H252.51V312.551H258.769V315.037H252.51V319.514H260.089V322H249.859ZM266.534 322V308.646H261.408V306.16H274.311V308.646H269.185V322H266.534ZM279.809 322V306.16H286.354C286.508 306.16 286.706 306.167 286.948 306.182C287.19 306.189 287.413 306.211 287.619 306.248C288.535 306.387 289.291 306.692 289.885 307.161C290.486 307.63 290.93 308.224 291.216 308.943C291.509 309.654 291.656 310.446 291.656 311.319C291.656 312.184 291.509 312.976 291.216 313.695C290.922 314.406 290.475 314.997 289.874 315.466C289.28 315.935 288.528 316.24 287.619 316.379C287.413 316.408 287.186 316.43 286.937 316.445C286.695 316.46 286.5 316.467 286.354 316.467H282.46V322H279.809ZM282.46 313.992H286.244C286.39 313.992 286.555 313.985 286.739 313.97C286.922 313.955 287.091 313.926 287.245 313.882C287.685 313.772 288.029 313.578 288.279 313.299C288.535 313.02 288.715 312.705 288.818 312.353C288.928 312.001 288.983 311.656 288.983 311.319C288.983 310.982 288.928 310.637 288.818 310.285C288.715 309.926 288.535 309.607 288.279 309.328C288.029 309.049 287.685 308.855 287.245 308.745C287.091 308.701 286.922 308.675 286.739 308.668C286.555 308.653 286.39 308.646 286.244 308.646H282.46V313.992ZM293.859 322V306.16H300.404C300.558 306.16 300.756 306.167 300.998 306.182C301.24 306.189 301.464 306.211 301.669 306.248C302.586 306.387 303.341 306.692 303.935 307.161C304.537 307.63 304.98 308.224 305.266 308.943C305.56 309.654 305.706 310.446 305.706 311.319C305.706 312.61 305.38 313.721 304.727 314.652C304.075 315.576 303.074 316.148 301.724 316.368L300.591 316.467H296.51V322H293.859ZM302.956 322L299.832 315.554L302.527 314.96L305.959 322H302.956ZM296.51 313.992H300.294C300.441 313.992 300.606 313.985 300.789 313.97C300.973 313.955 301.141 313.926 301.295 313.882C301.735 313.772 302.08 313.578 302.329 313.299C302.586 313.02 302.766 312.705 302.868 312.353C302.978 312.001 303.033 311.656 303.033 311.319C303.033 310.982 302.978 310.637 302.868 310.285C302.766 309.926 302.586 309.607 302.329 309.328C302.08 309.049 301.735 308.855 301.295 308.745C301.141 308.701 300.973 308.675 300.789 308.668C300.606 308.653 300.441 308.646 300.294 308.646H296.51V313.992ZM308.383 322V306.16H318.613V308.646H311.034V312.551H317.293V315.037H311.034V319.514H318.613V322H308.383ZM326.965 322.33C325.806 322.33 324.761 322.128 323.83 321.725C322.906 321.322 322.143 320.746 321.542 319.998C320.948 319.243 320.57 318.348 320.409 317.314L323.159 316.896C323.393 317.835 323.874 318.561 324.6 319.074C325.333 319.587 326.176 319.844 327.13 319.844C327.694 319.844 328.226 319.756 328.725 319.58C329.223 319.404 329.627 319.147 329.935 318.81C330.25 318.473 330.408 318.058 330.408 317.567C330.408 317.347 330.371 317.145 330.298 316.962C330.224 316.771 330.114 316.603 329.968 316.456C329.828 316.309 329.645 316.177 329.418 316.06C329.198 315.935 328.941 315.829 328.648 315.741L324.556 314.531C324.204 314.428 323.822 314.293 323.412 314.124C323.008 313.948 322.623 313.71 322.257 313.409C321.897 313.101 321.6 312.712 321.366 312.243C321.138 311.766 321.025 311.18 321.025 310.483C321.025 309.464 321.281 308.609 321.795 307.92C322.315 307.223 323.012 306.703 323.885 306.358C324.765 306.013 325.74 305.845 326.811 305.852C327.896 305.859 328.864 306.046 329.715 306.413C330.565 306.772 331.277 307.297 331.849 307.986C332.421 308.675 332.824 309.508 333.059 310.483L330.21 310.978C330.092 310.421 329.865 309.948 329.528 309.559C329.198 309.163 328.791 308.862 328.307 308.657C327.83 308.452 327.32 308.342 326.778 308.327C326.25 308.32 325.758 308.4 325.304 308.569C324.856 308.73 324.493 308.965 324.215 309.273C323.943 309.581 323.808 309.94 323.808 310.351C323.808 310.74 323.925 311.059 324.16 311.308C324.394 311.55 324.684 311.744 325.029 311.891C325.381 312.03 325.736 312.148 326.096 312.243L328.934 313.035C329.322 313.138 329.759 313.277 330.243 313.453C330.727 313.629 331.192 313.875 331.64 314.19C332.087 314.505 332.454 314.92 332.74 315.433C333.033 315.946 333.18 316.599 333.18 317.391C333.18 318.212 333.007 318.935 332.663 319.558C332.325 320.174 331.867 320.687 331.288 321.098C330.708 321.509 330.045 321.817 329.297 322.022C328.556 322.227 327.779 322.33 326.965 322.33ZM335.561 322V306.16H345.791V308.646H338.212V312.551H344.471V315.037H338.212V319.514H345.791V322H335.561ZM348.43 322V306.16H351.114L358.462 317.325V306.16H361.146V322H358.462L351.114 310.835V322H348.43ZM368.027 322V308.646H362.901V306.16H375.804V308.646H370.678V322H368.027ZM383.425 322.33C382.267 322.33 381.222 322.128 380.29 321.725C379.366 321.322 378.604 320.746 378.002 319.998C377.408 319.243 377.031 318.348 376.869 317.314L379.619 316.896C379.854 317.835 380.334 318.561 381.06 319.074C381.794 319.587 382.637 319.844 383.59 319.844C384.155 319.844 384.687 319.756 385.185 319.58C385.684 319.404 386.087 319.147 386.395 318.81C386.711 318.473 386.868 318.058 386.868 317.567C386.868 317.347 386.832 317.145 386.758 316.962C386.685 316.771 386.575 316.603 386.428 316.456C386.289 316.309 386.106 316.177 385.878 316.06C385.658 315.935 385.402 315.829 385.108 315.741L381.016 314.531C380.664 314.428 380.283 314.293 379.872 314.124C379.469 313.948 379.084 313.71 378.717 313.409C378.358 313.101 378.061 312.712 377.826 312.243C377.599 311.766 377.485 311.18 377.485 310.483C377.485 309.464 377.742 308.609 378.255 307.92C378.776 307.223 379.473 306.703 380.345 306.358C381.225 306.013 382.201 305.845 383.271 305.852C384.357 305.859 385.325 306.046 386.175 306.413C387.026 306.772 387.737 307.297 388.309 307.986C388.881 308.675 389.285 309.508 389.519 310.483L386.67 310.978C386.553 310.421 386.326 309.948 385.988 309.559C385.658 309.163 385.251 308.862 384.767 308.657C384.291 308.452 383.781 308.342 383.238 308.327C382.71 308.32 382.219 308.4 381.764 308.569C381.317 308.73 380.954 308.965 380.675 309.273C380.404 309.581 380.268 309.94 380.268 310.351C380.268 310.74 380.386 311.059 380.62 311.308C380.855 311.55 381.145 311.744 381.489 311.891C381.841 312.03 382.197 312.148 382.556 312.243L385.394 313.035C385.783 313.138 386.219 313.277 386.703 313.453C387.187 313.629 387.653 313.875 388.1 314.19C388.548 314.505 388.914 314.92 389.2 315.433C389.494 315.946 389.64 316.599 389.64 317.391C389.64 318.212 389.468 318.935 389.123 319.558C388.786 320.174 388.328 320.687 387.748 321.098C387.169 321.509 386.505 321.817 385.757 322.022C385.017 322.227 384.239 322.33 383.425 322.33ZM395.326 322L400.32 306.16H404.203L409.197 322H406.469L401.937 307.788H402.531L398.054 322H395.326ZM398.109 318.568V316.093H406.425V318.568H398.109ZM411.186 322V306.16H413.87L421.218 317.325V306.16H423.902V322H421.218L413.87 310.835V322H411.186ZM426.977 322V306.16H432.026C432.158 306.16 432.418 306.164 432.807 306.171C433.203 306.178 433.584 306.204 433.951 306.248C435.205 306.409 436.264 306.857 437.13 307.59C438.002 308.316 438.662 309.244 439.11 310.373C439.557 311.502 439.781 312.738 439.781 314.08C439.781 315.422 439.557 316.658 439.11 317.787C438.662 318.916 438.002 319.848 437.13 320.581C436.264 321.307 435.205 321.751 433.951 321.912C433.591 321.956 433.214 321.982 432.818 321.989C432.422 321.996 432.158 322 432.026 322H426.977ZM429.672 319.503H432.026C432.246 319.503 432.524 319.496 432.862 319.481C433.206 319.466 433.511 319.433 433.775 319.382C434.523 319.243 435.131 318.909 435.601 318.381C436.07 317.853 436.415 317.211 436.635 316.456C436.862 315.701 436.976 314.909 436.976 314.08C436.976 313.222 436.862 312.415 436.635 311.66C436.407 310.905 436.055 310.27 435.579 309.757C435.109 309.244 434.508 308.917 433.775 308.778C433.511 308.719 433.206 308.686 432.862 308.679C432.524 308.664 432.246 308.657 432.026 308.657H429.672V319.503ZM447.005 322V306.16H449.656V319.514H456.652V322H447.005ZM458.516 322V306.16H468.746V308.646H461.167V312.551H467.426V315.037H461.167V319.514H468.746V322H458.516ZM475.191 322V308.646H470.065V306.16H482.968V308.646H477.842V322H475.191ZM492.271 322V308.646H487.145V306.16H500.048V308.646H494.922V322H492.271ZM501.807 322V306.16H504.458V312.826H511.96V306.16H514.6V322H511.96V315.312H504.458V322H501.807ZM517.684 322V306.16H527.914V308.646H520.335V312.551H526.594V315.037H520.335V319.514H527.914V322H517.684ZM57.8535 353V337.16H60.2405L65.7185 348.38L71.1965 337.16H73.5835V353H71.1085V342.847L66.2465 353H65.1905L60.3395 342.847V353H57.8535ZM75.5738 353L80.5678 337.16H84.4508L89.4448 353H86.7168L82.1848 338.788H82.7788L78.3018 353H75.5738ZM78.3568 349.568V347.093H86.6728V349.568H78.3568ZM91.4336 353V337.16H94.1176L101.466 348.325V337.16H104.15V353H101.466L94.1176 341.835V353H91.4336ZM111.629 353V337.16H118.174C118.328 337.16 118.526 337.167 118.768 337.182C119.01 337.189 119.234 337.211 119.439 337.248C120.356 337.387 121.111 337.692 121.705 338.161C122.306 338.63 122.75 339.224 123.036 339.943C123.329 340.654 123.476 341.446 123.476 342.319C123.476 343.184 123.329 343.976 123.036 344.695C122.743 345.406 122.295 345.997 121.694 346.466C121.1 346.935 120.348 347.24 119.439 347.379C119.234 347.408 119.006 347.43 118.757 347.445C118.515 347.46 118.321 347.467 118.174 347.467H114.28V353H111.629ZM114.28 344.992H118.064C118.211 344.992 118.376 344.985 118.559 344.97C118.742 344.955 118.911 344.926 119.065 344.882C119.505 344.772 119.85 344.578 120.099 344.299C120.356 344.02 120.535 343.705 120.638 343.353C120.748 343.001 120.803 342.656 120.803 342.319C120.803 341.982 120.748 341.637 120.638 341.285C120.535 340.926 120.356 340.607 120.099 340.328C119.85 340.049 119.505 339.855 119.065 339.745C118.911 339.701 118.742 339.675 118.559 339.668C118.376 339.653 118.211 339.646 118.064 339.646H114.28V344.992ZM123.484 353L128.478 337.16H132.361L137.355 353H134.627L130.095 338.788H130.689L126.212 353H123.484ZM126.267 349.568V347.093H134.583V349.568H126.267ZM141.883 353V346.51L136.493 337.16H139.584L143.225 343.474L146.855 337.16H149.946L144.567 346.51V353H141.883ZM155.006 353V337.16H164.543V339.811H157.657V343.76H163.223V346.4H157.657V353H155.006ZM173.22 353.33C171.636 353.33 170.28 352.985 169.15 352.296C168.021 351.599 167.152 350.631 166.543 349.392C165.942 348.153 165.641 346.715 165.641 345.08C165.641 343.445 165.942 342.007 166.543 340.768C167.152 339.529 168.021 338.564 169.15 337.875C170.28 337.178 171.636 336.83 173.22 336.83C174.804 336.83 176.161 337.178 177.29 337.875C178.427 338.564 179.296 339.529 179.897 340.768C180.506 342.007 180.81 343.445 180.81 345.08C180.81 346.715 180.506 348.153 179.897 349.392C179.296 350.631 178.427 351.599 177.29 352.296C176.161 352.985 174.804 353.33 173.22 353.33ZM173.22 350.833C174.284 350.84 175.167 350.606 175.871 350.129C176.583 349.652 177.114 348.981 177.466 348.116C177.826 347.251 178.005 346.239 178.005 345.08C178.005 343.921 177.826 342.917 177.466 342.066C177.114 341.208 176.583 340.541 175.871 340.064C175.167 339.587 174.284 339.342 173.22 339.327C172.157 339.32 171.273 339.554 170.569 340.031C169.865 340.508 169.334 341.179 168.974 342.044C168.622 342.909 168.446 343.921 168.446 345.08C168.446 346.239 168.622 347.247 168.974 348.105C169.326 348.956 169.854 349.619 170.558 350.096C171.27 350.573 172.157 350.818 173.22 350.833ZM183 353V337.16H189.545C189.699 337.16 189.897 337.167 190.139 337.182C190.381 337.189 190.605 337.211 190.81 337.248C191.727 337.387 192.482 337.692 193.076 338.161C193.677 338.63 194.121 339.224 194.407 339.943C194.7 340.654 194.847 341.446 194.847 342.319C194.847 343.61 194.521 344.721 193.868 345.652C193.215 346.576 192.214 347.148 190.865 347.368L189.732 347.467H185.651V353H183ZM192.097 353L188.973 346.554L191.668 345.96L195.1 353H192.097ZM185.651 344.992H189.435C189.582 344.992 189.747 344.985 189.93 344.97C190.113 344.955 190.282 344.926 190.436 344.882C190.876 344.772 191.221 344.578 191.47 344.299C191.727 344.02 191.906 343.705 192.009 343.353C192.119 343.001 192.174 342.656 192.174 342.319C192.174 341.982 192.119 341.637 192.009 341.285C191.906 340.926 191.727 340.607 191.47 340.328C191.221 340.049 190.876 339.855 190.436 339.745C190.282 339.701 190.113 339.675 189.93 339.668C189.747 339.653 189.582 339.646 189.435 339.646H185.651V344.992ZM201.928 353V337.16H204.579V343.826H212.081V337.16H214.721V353H212.081V346.312H204.579V353H201.928ZM217.805 353V337.16H228.035V339.646H220.456V343.551H226.715V346.037H220.456V350.514H228.035V353H217.805ZM230.674 353V337.16H237.219C237.373 337.16 237.571 337.167 237.813 337.182C238.055 337.189 238.278 337.211 238.484 337.248C239.4 337.387 240.156 337.692 240.75 338.161C241.351 338.63 241.795 339.224 242.081 339.943C242.374 340.654 242.521 341.446 242.521 342.319C242.521 343.61 242.194 344.721 241.542 345.652C240.889 346.576 239.888 347.148 238.539 347.368L237.406 347.467H233.325V353H230.674ZM239.771 353L236.647 346.554L239.342 345.96L242.774 353H239.771ZM233.325 344.992H237.109C237.255 344.992 237.42 344.985 237.604 344.97C237.787 344.955 237.956 344.926 238.11 344.882C238.55 344.772 238.894 344.578 239.144 344.299C239.4 344.02 239.58 343.705 239.683 343.353C239.793 343.001 239.848 342.656 239.848 342.319C239.848 341.982 239.793 341.637 239.683 341.285C239.58 340.926 239.4 340.607 239.144 340.328C238.894 340.049 238.55 339.855 238.11 339.745C237.956 339.701 237.787 339.675 237.604 339.668C237.42 339.653 237.255 339.646 237.109 339.646H233.325V344.992ZM256.136 353.33C255.109 353.33 254.145 353.15 253.243 352.791C252.348 352.424 251.56 351.889 250.878 351.185C250.203 350.481 249.675 349.619 249.294 348.6C248.912 347.573 248.722 346.4 248.722 345.08C248.722 343.349 249.044 341.872 249.69 340.647C250.335 339.415 251.219 338.473 252.341 337.82C253.463 337.16 254.728 336.83 256.136 336.83C258.086 336.83 259.63 337.285 260.767 338.194C261.911 339.096 262.684 340.365 263.088 342L260.382 342.429C260.081 341.49 259.59 340.742 258.908 340.185C258.226 339.62 257.357 339.338 256.301 339.338C255.237 339.323 254.354 339.554 253.65 340.031C252.946 340.508 252.414 341.179 252.055 342.044C251.703 342.909 251.527 343.921 251.527 345.08C251.527 346.239 251.703 347.247 252.055 348.105C252.407 348.956 252.935 349.619 253.639 350.096C254.35 350.573 255.237 350.818 256.301 350.833C257.1 350.84 257.8 350.697 258.402 350.404C259.003 350.103 259.494 349.652 259.876 349.051C260.257 348.442 260.514 347.683 260.646 346.774H257.852V344.695H263.462C263.476 344.812 263.487 344.985 263.495 345.212C263.502 345.439 263.506 345.575 263.506 345.619C263.506 347.115 263.209 348.446 262.615 349.612C262.028 350.771 261.185 351.68 260.085 352.34C258.985 353 257.668 353.33 256.136 353.33ZM265.935 353V337.16H268.586V353H265.935ZM275.445 353L270.451 337.16H273.179L277.359 350.426L281.594 337.16H284.322L279.328 353H275.445ZM286.195 353V337.16H288.846V353H286.195ZM292.141 353V337.16H294.825L302.173 348.325V337.16H304.857V353H302.173L294.825 341.835V353H292.141ZM314.466 353.33C313.439 353.33 312.475 353.15 311.573 352.791C310.678 352.424 309.89 351.889 309.208 351.185C308.533 350.481 308.005 349.619 307.624 348.6C307.242 347.573 307.052 346.4 307.052 345.08C307.052 343.349 307.374 341.872 308.02 340.647C308.665 339.415 309.549 338.473 310.671 337.82C311.793 337.16 313.058 336.83 314.466 336.83C316.416 336.83 317.96 337.285 319.097 338.194C320.241 339.096 321.014 340.365 321.418 342L318.712 342.429C318.411 341.49 317.92 340.742 317.238 340.185C316.556 339.62 315.687 339.338 314.631 339.338C313.567 339.323 312.684 339.554 311.98 340.031C311.276 340.508 310.744 341.179 310.385 342.044C310.033 342.909 309.857 343.921 309.857 345.08C309.857 346.239 310.033 347.247 310.385 348.105C310.737 348.956 311.265 349.619 311.969 350.096C312.68 350.573 313.567 350.818 314.631 350.833C315.43 350.84 316.13 350.697 316.732 350.404C317.333 350.103 317.824 349.652 318.206 349.051C318.587 348.442 318.844 347.683 318.976 346.774H316.182V344.695H321.792C321.806 344.812 321.817 344.985 321.825 345.212C321.832 345.439 321.836 345.575 321.836 345.619C321.836 347.115 321.539 348.446 320.945 349.612C320.358 350.771 319.515 351.68 318.415 352.34C317.315 353 315.998 353.33 314.466 353.33ZM328.449 353V337.16H331.133L338.481 348.325V337.16H341.165V353H338.481L331.133 341.835V353H328.449ZM350.939 353.33C349.355 353.33 347.999 352.985 346.869 352.296C345.74 351.599 344.871 350.631 344.262 349.392C343.661 348.153 343.36 346.715 343.36 345.08C343.36 343.445 343.661 342.007 344.262 340.768C344.871 339.529 345.74 338.564 346.869 337.875C347.999 337.178 349.355 336.83 350.939 336.83C352.523 336.83 353.88 337.178 355.009 337.875C356.146 338.564 357.015 339.529 357.616 340.768C358.225 342.007 358.529 343.445 358.529 345.08C358.529 346.715 358.225 348.153 357.616 349.392C357.015 350.631 356.146 351.599 355.009 352.296C353.88 352.985 352.523 353.33 350.939 353.33ZM350.939 350.833C352.003 350.84 352.886 350.606 353.59 350.129C354.302 349.652 354.833 348.981 355.185 348.116C355.545 347.251 355.724 346.239 355.724 345.08C355.724 343.921 355.545 342.917 355.185 342.066C354.833 341.208 354.302 340.541 353.59 340.064C352.886 339.587 352.003 339.342 350.939 339.327C349.876 339.32 348.992 339.554 348.288 340.031C347.584 340.508 347.053 341.179 346.693 342.044C346.341 342.909 346.165 343.921 346.165 345.08C346.165 346.239 346.341 347.247 346.693 348.105C347.045 348.956 347.573 349.619 348.277 350.096C348.989 350.573 349.876 350.818 350.939 350.833ZM364.095 353V339.646H358.969V337.16H371.872V339.646H366.746V353H364.095ZM373.631 353V337.16H376.282V343.826H383.784V337.16H386.424V353H383.784V346.312H376.282V353H373.631ZM389.728 353V337.16H392.379V353H389.728ZM395.674 353V337.16H398.358L405.706 348.325V337.16H408.39V353H405.706L398.358 341.835V353H395.674ZM417.999 353.33C416.972 353.33 416.008 353.15 415.106 352.791C414.211 352.424 413.423 351.889 412.741 351.185C412.066 350.481 411.538 349.619 411.157 348.6C410.775 347.573 410.585 346.4 410.585 345.08C410.585 343.349 410.907 341.872 411.553 340.647C412.198 339.415 413.082 338.473 414.204 337.82C415.326 337.16 416.591 336.83 417.999 336.83C419.949 336.83 421.493 337.285 422.63 338.194C423.774 339.096 424.547 340.365 424.951 342L422.245 342.429C421.944 341.49 421.453 340.742 420.771 340.185C420.089 339.62 419.22 339.338 418.164 339.338C417.1 339.323 416.217 339.554 415.513 340.031C414.809 340.508 414.277 341.179 413.918 342.044C413.566 342.909 413.39 343.921 413.39 345.08C413.39 346.239 413.566 347.247 413.918 348.105C414.27 348.956 414.798 349.619 415.502 350.096C416.213 350.573 417.1 350.818 418.164 350.833C418.963 350.84 419.663 350.697 420.265 350.404C420.866 350.103 421.357 349.652 421.739 349.051C422.12 348.442 422.377 347.683 422.509 346.774H419.715V344.695H425.325C425.339 344.812 425.35 344.985 425.358 345.212C425.365 345.439 425.369 345.575 425.369 345.619C425.369 347.115 425.072 348.446 424.478 349.612C423.891 350.771 423.048 351.68 421.948 352.34C420.848 353 419.531 353.33 417.999 353.33ZM432.202 353V337.16H434.853V353H432.202ZM438.148 353V337.16H440.832L448.18 348.325V337.16H450.864V353H448.18L440.832 341.835V353H438.148ZM458.344 353V337.16H464.889C465.043 337.16 465.241 337.167 465.483 337.182C465.725 337.189 465.948 337.211 466.154 337.248C467.07 337.387 467.826 337.692 468.42 338.161C469.021 338.63 469.465 339.224 469.751 339.943C470.044 340.654 470.191 341.446 470.191 342.319C470.191 343.61 469.864 344.721 469.212 345.652C468.559 346.576 467.558 347.148 466.209 347.368L465.076 347.467H460.995V353H458.344ZM467.441 353L464.317 346.554L467.012 345.96L470.444 353H467.441ZM460.995 344.992H464.779C464.925 344.992 465.09 344.985 465.274 344.97C465.457 344.955 465.626 344.926 465.78 344.882C466.22 344.772 466.564 344.578 466.814 344.299C467.07 344.02 467.25 343.705 467.353 343.353C467.463 343.001 467.518 342.656 467.518 342.319C467.518 341.982 467.463 341.637 467.353 341.285C467.25 340.926 467.07 340.607 466.814 340.328C466.564 340.049 466.22 339.855 465.78 339.745C465.626 339.701 465.457 339.675 465.274 339.668C465.09 339.653 464.925 339.646 464.779 339.646H460.995V344.992ZM472.867 353V337.16H483.097V339.646H475.518V343.551H481.777V346.037H475.518V350.514H483.097V353H472.867ZM489.542 353V339.646H484.416V337.16H497.319V339.646H492.193V353H489.542ZM505.458 353.33C504.197 353.33 503.086 353.073 502.125 352.56C501.172 352.047 500.424 351.324 499.881 350.393C499.346 349.462 499.078 348.369 499.078 347.115V337.182L501.762 337.16V347.049C501.762 347.643 501.861 348.175 502.059 348.644C502.264 349.113 502.539 349.513 502.884 349.843C503.229 350.166 503.625 350.411 504.072 350.58C504.519 350.749 504.981 350.833 505.458 350.833C505.949 350.833 506.415 350.749 506.855 350.58C507.302 350.404 507.698 350.155 508.043 349.832C508.388 349.502 508.659 349.102 508.857 348.633C509.055 348.164 509.154 347.636 509.154 347.049V337.16H511.838V347.115C511.838 348.369 511.567 349.462 511.024 350.393C510.489 351.324 509.741 352.047 508.78 352.56C507.827 353.073 506.719 353.33 505.458 353.33ZM514.912 353V337.16H521.457C521.611 337.16 521.809 337.167 522.051 337.182C522.293 337.189 522.517 337.211 522.722 337.248C523.639 337.387 524.394 337.692 524.988 338.161C525.589 338.63 526.033 339.224 526.319 339.943C526.612 340.654 526.759 341.446 526.759 342.319C526.759 343.61 526.433 344.721 525.78 345.652C525.127 346.576 524.126 347.148 522.777 347.368L521.644 347.467H517.563V353H514.912ZM524.009 353L520.885 346.554L523.58 345.96L527.012 353H524.009ZM517.563 344.992H521.347C521.494 344.992 521.659 344.985 521.842 344.97C522.025 344.955 522.194 344.926 522.348 344.882C522.788 344.772 523.133 344.578 523.382 344.299C523.639 344.02 523.818 343.705 523.921 343.353C524.031 343.001 524.086 342.656 524.086 342.319C524.086 341.982 524.031 341.637 523.921 341.285C523.818 340.926 523.639 340.607 523.382 340.328C523.133 340.049 522.788 339.855 522.348 339.745C522.194 339.701 522.025 339.675 521.842 339.668C521.659 339.653 521.494 339.646 521.347 339.646H517.563V344.992ZM529.436 353V337.16H532.12L539.468 348.325V337.16H542.152V353H539.468L532.12 341.835V353H529.436Z" fill="white"></path> <path d="M384.056 80.8881C383.768 81.2061 383.529 81.5651 383.346 81.9534C382.97 82.71 382.771 83.5422 382.765 84.387C382.759 84.8078 382.793 85.2281 382.868 85.6423L382.937 85.4198C382.655 85.6817 382.355 85.939 382.056 86.1834C381.905 86.3049 381.752 86.4231 381.598 86.5283L381.341 86.6948C381.24 86.7698 381.148 86.8567 381.067 86.9538C380.912 87.1218 380.792 87.3187 380.714 87.5332C380.635 87.7477 380.599 87.9756 380.609 88.2039C380.64 88.4442 380.724 88.6744 380.857 88.8773C380.989 89.0802 381.166 89.2505 381.373 89.3752L381.222 89.1333C381.311 89.9979 381.482 90.8523 381.73 91.6852C381.977 92.5333 382.326 93.3484 382.768 94.1127C383.216 94.9274 383.849 95.6261 384.615 96.1532C385.028 96.4225 385.49 96.61 385.974 96.7055C386.463 96.7939 386.964 96.8016 387.456 96.7285L387.322 96.6778C387.984 97.5143 388.598 98.3872 389.162 99.2924L389.174 99.308L389.187 99.3226C389.358 99.5416 389.467 99.8022 389.502 100.077C389.542 100.36 389.539 100.647 389.494 100.929C389.394 101.507 389.204 102.067 388.932 102.587C388.646 103.12 388.325 103.634 387.97 104.124C387.617 104.622 387.219 105.096 386.82 105.569L386.812 105.579C386.783 105.613 386.762 105.652 386.75 105.694C386.739 105.736 386.736 105.781 386.743 105.824C386.75 105.867 386.767 105.908 386.792 105.945C386.816 105.981 386.849 106.011 386.886 106.034C386.928 106.061 386.973 106.079 387.021 106.09C388.352 106.34 389.718 106.332 391.045 106.065C392.338 105.823 393.588 105.392 394.756 104.786L395.603 104.321C395.878 104.157 396.131 103.967 396.396 103.791C396.912 103.433 397.409 103.048 397.883 102.636C398.354 102.23 398.768 101.775 399.211 101.348L400.394 99.9631C400.42 99.9329 400.44 99.8977 400.452 99.8595C400.463 99.8214 400.467 99.7812 400.462 99.7416C400.457 99.702 400.444 99.6639 400.424 99.6296C400.403 99.5954 400.376 99.5658 400.343 99.5428C399.857 99.1729 399.386 98.7673 398.917 98.3686C398.449 97.9666 398.001 97.5478 397.574 97.112C397.148 96.683 396.751 96.2267 396.385 95.7458C396.016 95.2851 395.737 94.7589 395.563 94.1947C395.56 94.1842 395.553 94.1753 395.543 94.1698C395.534 94.1643 395.522 94.1626 395.512 94.1651C395.502 94.1665 395.493 94.1714 395.487 94.179C395.48 94.1866 395.477 94.1963 395.477 94.2062C395.574 94.8035 395.796 95.3737 396.128 95.8797C396.444 96.4078 396.807 96.9066 397.212 97.3702C398.022 98.325 398.912 99.209 399.872 100.013L399.821 99.5925L398.608 100.889C398.162 101.286 397.736 101.699 397.279 102.08C396.819 102.463 396.339 102.821 395.84 103.153C395.587 103.315 395.341 103.487 395.084 103.642L394.291 104.081C393.208 104.644 392.054 105.062 390.861 105.322C389.666 105.585 388.434 105.627 387.224 105.447L387.425 105.967C387.813 105.463 388.199 104.96 388.54 104.428C388.884 103.901 389.183 103.346 389.435 102.769C389.683 102.195 389.844 101.586 389.911 100.964C389.958 100.641 389.938 100.311 389.852 99.9959C389.766 99.6806 389.616 99.3864 389.412 99.1313L389.437 99.1614C388.844 98.2575 388.186 97.4096 387.546 96.5431C387.53 96.5236 387.51 96.5085 387.487 96.4995C387.464 96.4905 387.439 96.4878 387.414 96.4918L387.411 96.4922C386.965 96.5655 386.509 96.5494 386.07 96.4448C385.631 96.3402 385.216 96.1492 384.852 95.8829C384.184 95.3493 383.652 94.666 383.298 93.8884C382.942 93.1301 382.66 92.3386 382.459 91.5253C382.247 90.7204 382.088 89.9026 381.982 89.0771L381.981 89.0696C381.974 89.022 381.957 88.9765 381.931 88.9361C381.905 88.8957 381.871 88.8612 381.831 88.835C381.704 88.7656 381.594 88.6681 381.51 88.5498C381.426 88.4316 381.371 88.2957 381.347 88.1527C381.335 87.8498 381.438 87.5534 381.634 87.3225C381.677 87.2661 381.726 87.2144 381.779 87.1684C381.815 87.1414 381.851 87.1162 381.889 87.0929C381.938 87.062 381.978 87.0297 382.023 86.9981C382.196 86.8704 382.354 86.7384 382.508 86.6043C382.816 86.3358 383.096 86.0563 383.377 85.7674L383.382 85.7621C383.41 85.7341 383.431 85.6995 383.442 85.6616C383.453 85.6236 383.455 85.5834 383.447 85.5446C383.355 85.1613 383.296 84.7712 383.268 84.3781C383.24 83.9841 383.253 83.5883 383.304 83.1968C383.354 82.7995 383.447 82.4089 383.582 82.0319C383.717 81.6453 383.899 81.2768 384.124 80.9347L384.126 80.932C384.129 80.9277 384.131 80.9228 384.132 80.9177C384.133 80.9126 384.132 80.9074 384.131 80.9024C384.13 80.8974 384.127 80.8928 384.124 80.8888C384.121 80.8849 384.116 80.8817 384.112 80.8795C384.103 80.8748 384.092 80.873 384.082 80.8746C384.072 80.8761 384.063 80.8808 384.056 80.8881Z" fill="white"></path> <path d="M383.812 81.3096C383.812 81.3096 388.601 85.6627 392.644 86.0757C392.644 86.0757 393.888 85.1118 394.122 86.0757C394.355 87.0397 394.821 90.6891 392.333 90.2071C392.333 90.2071 389.845 93.1679 390.156 94.6139C390.166 94.645 390.183 94.6733 390.206 94.6965C391.14 95.9958 398.628 95.1995 401.562 91.1847C404.069 87.7527 402.91 82.4307 399.087 79.6789C394.887 76.6563 388.031 77.1352 383.812 81.3096Z" fill="white"></path> <path d="M396.642 88.6342C396.642 88.6342 393.033 92.6111 395.889 97.2108C398.745 101.81 399.395 101.777 400.014 103.968C400.014 103.968 402.385 100.681 401.87 96.8455C401.354 93.0103 399.007 88.8302 396.642 88.6342ZM384.324 84.7668C384.972 84.6483 385.627 84.5705 386.285 84.5337C386.605 84.5213 386.925 84.5333 387.242 84.5695C387.569 84.6136 387.893 84.6795 388.211 84.7668C387.955 84.5384 387.651 84.3715 387.32 84.2791C386.978 84.1817 386.624 84.1387 386.269 84.1517C385.919 84.1667 385.572 84.226 385.237 84.3283C384.91 84.4225 384.602 84.5707 384.324 84.7668ZM386.034 86.9243C385.955 86.9312 385.875 86.9215 385.799 86.8958C385.723 86.8701 385.654 86.829 385.595 86.7751C385.536 86.7211 385.489 86.6555 385.457 86.5824C385.425 86.5093 385.408 86.4303 385.408 86.3505C385.408 86.2706 385.425 86.1917 385.457 86.1186C385.489 86.0455 385.536 85.9799 385.595 85.9259C385.654 85.872 385.723 85.8308 385.799 85.8051C385.875 85.7795 385.955 85.7698 386.034 85.7767C386.114 85.7698 386.194 85.7795 386.27 85.8051C386.345 85.8308 386.415 85.872 386.473 85.9259C386.532 85.9799 386.579 86.0455 386.611 86.1186C386.644 86.1917 386.66 86.2706 386.66 86.3505C386.66 86.4303 386.644 86.5093 386.611 86.5824C386.579 86.6555 386.532 86.7211 386.473 86.7751C386.415 86.829 386.345 86.8701 386.27 86.8958C386.194 86.9215 386.114 86.9312 386.034 86.9243ZM382.885 91.2048C382.991 91.4263 383.157 91.6139 383.363 91.7461C383.591 91.9008 383.857 91.9897 384.132 92.003C384.415 92.0169 384.694 91.9351 384.925 91.7708C385.128 91.6319 385.285 91.4345 385.373 91.2048C385.172 91.3213 384.963 91.4253 384.749 91.5161C384.56 91.5955 384.355 91.6314 384.15 91.6211C383.704 91.5694 383.274 91.4277 382.885 91.2048ZM392.877 89.7818C392.797 89.7887 392.717 89.779 392.641 89.7533C392.566 89.7276 392.496 89.6865 392.437 89.6326C392.379 89.5786 392.332 89.513 392.299 89.4399C392.267 89.3668 392.251 89.2878 392.251 89.208C392.251 89.1281 392.267 89.0492 392.299 88.9761C392.332 88.903 392.379 88.8374 392.437 88.7834C392.496 88.7295 392.566 88.6883 392.641 88.6627C392.717 88.637 392.797 88.6273 392.877 88.6342C392.956 88.6273 393.036 88.637 393.112 88.6627C393.188 88.6883 393.257 88.7295 393.316 88.7834C393.375 88.8374 393.422 88.903 393.454 88.9761C393.486 89.0492 393.503 89.1281 393.503 89.208C393.503 89.2878 393.486 89.3668 393.454 89.4399C393.422 89.513 393.375 89.5786 393.316 89.6326C393.257 89.6865 393.188 89.7276 393.112 89.7533C393.036 89.779 392.956 89.7887 392.877 89.7818ZM408.557 136.156C408.766 133.927 408.89 131.695 408.928 129.46C408.978 127.226 408.953 124.991 408.878 122.756C408.778 120.522 408.637 118.287 408.357 116.06C408.206 114.948 408.042 113.836 407.8 112.734C407.573 111.622 407.231 110.537 406.778 109.497C407.07 110.576 407.271 111.677 407.381 112.789C407.521 113.893 407.593 115.004 407.685 116.112C407.827 118.333 407.93 120.557 408.015 122.782L408.257 129.464C408.331 131.693 408.431 133.923 408.557 136.156ZM387.123 105.768C385.418 107.985 383.865 110.315 382.475 112.742C381.76 113.944 381.179 115.22 380.742 116.548C380.636 116.899 380.573 117.262 380.554 117.628L380.568 118.647C380.585 119.324 380.616 120 380.653 120.675C380.74 122.024 380.854 123.369 380.968 124.71L381.049 125.708C381.056 126.029 381.042 126.351 381.006 126.67C380.942 127.334 380.864 128.002 380.788 128.671C380.457 131.343 380.126 134.022 379.84 136.707C380.458 134.065 381.012 131.415 381.456 128.746C381.569 128.078 381.678 127.41 381.76 126.733L381.815 126.22C381.832 126.041 381.839 125.86 381.836 125.68L381.784 124.662C381.695 123.315 381.588 121.975 381.515 120.634C381.472 119.965 381.435 119.295 381.411 118.627L381.388 117.626C381.406 117.317 381.456 117.011 381.537 116.713C381.93 115.427 382.448 114.182 383.083 112.995C384.331 110.557 385.711 108.156 387.123 105.768ZM392.169 110.221C391.8 110.662 391.463 111.129 391.162 111.62C390.856 112.104 390.593 112.615 390.378 113.147C390.264 113.426 390.188 113.721 390.154 114.021C390.135 114.205 390.159 114.39 390.223 114.564C390.287 114.737 390.389 114.893 390.523 115.021C390.788 115.268 391.11 115.444 391.461 115.533C391.79 115.62 392.13 115.666 392.47 115.669L393.378 115.689L392.681 115.209C392.401 115.027 392.157 114.794 391.961 114.523C391.912 114.471 391.874 114.409 391.85 114.34C391.826 114.272 391.817 114.2 391.823 114.128C391.829 114.056 391.85 113.986 391.885 113.923C391.919 113.86 391.967 113.805 392.025 113.761C392.329 113.568 392.675 113.451 393.034 113.419C393.412 113.367 393.793 113.349 394.173 113.363C394.948 113.385 395.725 113.426 396.498 113.466L398.816 113.551C400.357 113.631 401.896 113.683 403.414 113.802C404.161 113.852 404.904 113.958 405.635 114.12C405.965 114.186 406.274 114.332 406.533 114.545C406.58 114.597 406.615 114.659 406.635 114.726C406.655 114.793 406.66 114.863 406.649 114.932C406.631 115.01 406.607 115.086 406.578 115.159L406.45 115.383L406.517 115.431L406.72 115.232C406.778 115.154 406.829 115.071 406.871 114.984C406.91 114.887 406.928 114.782 406.921 114.677C406.915 114.573 406.885 114.471 406.834 114.379C406.576 114.05 406.229 113.803 405.833 113.668C405.089 113.383 404.313 113.186 403.523 113.083C401.969 112.861 400.4 112.77 398.831 112.81C398.051 112.817 397.271 112.828 396.493 112.877L394.163 113.049C393.77 113.081 393.378 113.118 392.986 113.183C392.583 113.232 392.195 113.364 391.845 113.57C391.754 113.628 391.676 113.704 391.615 113.793C391.555 113.881 391.513 113.982 391.492 114.087C391.466 114.29 391.499 114.495 391.587 114.679C391.759 115.032 391.999 115.347 392.294 115.605L392.505 115.146C391.994 115.089 391.508 114.89 391.104 114.571C391.036 114.505 390.984 114.424 390.95 114.336C390.917 114.247 390.902 114.152 390.909 114.057C390.933 113.81 390.981 113.566 391.055 113.328C391.207 112.822 391.41 112.311 391.616 111.801L392.245 110.257L392.169 110.221Z" fill="white"></path> <path d="M405.014 113.707C405.136 116.497 405.235 119.287 405.257 122.078C405.298 124.868 405.279 127.658 405.185 130.444C405.13 131.837 405.082 133.23 404.978 134.617C404.929 135.31 404.864 136.004 404.768 136.681L404.599 137.718L404.45 138.761C404.082 141.538 403.721 144.312 403.42 147.093C403.114 149.873 402.788 152.651 402.525 155.434L402.121 159.609C402.091 159.965 402.055 160.291 402.031 160.673C402.045 160.863 402.078 161.051 402.128 161.235L402.254 161.75L402.788 163.793L403.876 167.869C403.957 168.206 404.059 168.557 404.108 168.879C404.129 169.215 404.108 169.553 404.045 169.885C403.919 170.57 403.748 171.247 403.533 171.91C403.104 173.256 402.581 174.571 401.968 175.844C401.701 176.499 401.302 177.091 400.794 177.583C400.673 177.7 400.523 177.783 400.36 177.826C400.197 177.868 400.026 177.867 399.863 177.824C399.545 177.697 399.278 177.47 399.101 177.178L398.989 177.004L398.849 177.164L398.502 177.565C398.384 177.697 398.244 177.808 398.117 177.931C397.854 178.165 397.539 178.332 397.198 178.419C397.031 178.454 396.859 178.456 396.692 178.425C396.525 178.393 396.366 178.329 396.224 178.235C395.944 178.044 395.711 177.792 395.544 177.497L395.441 177.315L395.276 177.456C395 177.703 394.696 177.918 394.369 178.094C394.238 178.187 394.082 178.24 393.921 178.247C393.76 178.254 393.6 178.215 393.461 178.134C393.236 177.897 393.096 177.591 393.064 177.266C393.009 176.927 392.991 176.583 393.013 176.24L393.027 175.986L392.746 176.049C392.383 176.145 392.006 176.176 391.633 176.142C391.473 176.132 391.319 176.083 391.183 175.999C391.047 175.914 390.934 175.797 390.855 175.659C390.716 175.367 390.67 175.04 390.723 174.721C390.768 174.397 390.925 174.099 391.167 173.878C391.662 173.379 392.356 172.968 392.946 172.443C393.547 171.936 394.032 171.306 394.368 170.595C394.655 169.909 394.867 169.193 394.999 168.461C395.075 168.099 395.13 167.733 395.164 167.364C395.218 166.963 395.178 166.556 395.049 166.172C394.995 166.049 394.918 165.938 394.821 165.845C394.764 165.791 394.7 165.745 394.63 165.71C394.585 165.683 394.536 165.663 394.485 165.651C394.444 165.641 394.402 165.634 394.359 165.631C394.326 165.632 394.293 165.635 394.259 165.639C394.1 165.67 393.951 165.74 393.827 165.844C393.741 165.911 393.66 165.983 393.582 166.059C393.291 166.346 393.05 166.637 392.805 166.927C392.321 167.507 391.851 168.085 391.35 168.635C390.86 169.189 390.324 169.7 389.746 170.162C389.5 170.376 389.21 170.535 388.897 170.629C388.855 170.64 388.812 170.643 388.769 170.635C388.726 170.628 388.685 170.612 388.649 170.587C388.555 170.51 388.483 170.41 388.44 170.297C388.38 170.155 388.336 170.007 388.308 169.855C388.283 169.713 388.283 169.567 388.306 169.424C388.36 169.123 388.496 168.843 388.699 168.615C389.199 168.009 389.566 167.305 389.773 166.548C389.989 165.841 390.152 165.12 390.263 164.39C390.348 163.692 390.491 163.003 390.691 162.33C390.884 161.671 391.214 161.061 391.659 160.538C391.882 160.286 392.143 160.071 392.433 159.9C392.577 159.819 392.729 159.751 392.886 159.698C393.025 159.649 393.169 159.618 393.316 159.604L393.769 159.567L393.774 159.205L393.928 147.724C393.951 145.811 393.968 143.897 393.958 141.982C393.951 141.021 393.954 140.073 393.917 139.096C393.882 138.145 393.849 137.193 393.831 136.235C393.748 132.409 393.647 128.584 393.528 124.759C393.429 120.934 393.28 117.109 393.152 113.283L393.066 113.284C393.056 117.111 393.026 120.939 393.045 124.766C393.05 128.593 393.068 132.42 393.099 136.247C393.102 137.202 393.119 138.163 393.14 139.125C393.16 140.061 393.142 141.026 393.133 141.979L393.053 147.716L392.859 159.192L393.316 158.793C392.858 158.834 392.412 158.966 392.005 159.181C391.598 159.395 391.238 159.689 390.945 160.044C390.435 160.649 390.057 161.354 389.838 162.115C389.633 162.825 389.488 163.551 389.404 164.286C389.305 164.983 389.155 165.672 388.956 166.348C388.783 167.015 388.47 167.638 388.036 168.174C387.753 168.501 387.566 168.9 387.495 169.326C387.462 169.539 387.465 169.756 387.505 169.968C387.543 170.172 387.605 170.372 387.689 170.563C387.788 170.798 387.949 171.001 388.156 171.15C388.288 171.236 388.435 171.296 388.589 171.326C388.743 171.355 388.902 171.354 389.056 171.322C389.503 171.208 389.917 170.991 390.266 170.689C390.876 170.197 391.439 169.649 391.948 169.053C392.453 168.477 392.919 167.883 393.387 167.302C393.621 167.014 393.856 166.722 394.102 166.472C394.16 166.413 394.22 166.358 394.284 166.305C394.334 166.26 394.414 166.228 394.369 166.241C394.207 166.226 394.315 166.231 394.329 166.263C394.366 166.3 394.396 166.343 394.418 166.391C394.515 166.693 394.546 167.012 394.509 167.328C394.484 167.676 394.438 168.023 394.373 168.366C394.262 169.061 394.076 169.742 393.818 170.397C393.525 171.049 393.094 171.63 392.555 172.099C392.014 172.602 391.345 173.003 390.776 173.59C390.477 173.88 390.287 174.264 390.238 174.677C390.181 175.077 390.25 175.484 390.437 175.842C390.549 176.041 390.711 176.206 390.908 176.322C391.113 176.435 391.338 176.506 391.57 176.532C392.003 176.567 392.44 176.526 392.859 176.409L392.592 176.218C392.576 176.588 392.602 176.959 392.67 177.323C392.721 177.729 392.912 178.104 393.211 178.384C393.412 178.535 393.664 178.602 393.914 178.572C394.135 178.542 394.349 178.472 394.546 178.367C394.895 178.172 395.219 177.936 395.512 177.664L395.244 177.623C395.442 177.959 395.713 178.247 396.037 178.464C396.402 178.698 396.845 178.779 397.269 178.687C397.662 178.588 398.024 178.396 398.326 178.126C398.461 177.995 398.61 177.873 398.732 177.734L399.092 177.313L398.84 177.3C399.055 177.651 399.38 177.919 399.765 178.063C399.983 178.133 400.216 178.134 400.435 178.068L400.593 178.018L400.731 177.94C400.823 177.895 400.907 177.837 400.982 177.766C401.516 177.249 401.934 176.625 402.21 175.935C402.831 174.653 403.368 173.333 403.819 171.982C404.044 171.31 404.225 170.623 404.36 169.927C404.431 169.572 404.456 169.209 404.435 168.848C404.382 168.478 404.287 168.151 404.207 167.804L403.218 163.708L402.738 161.66L402.626 161.149C402.588 160.994 402.563 160.836 402.552 160.678L402.667 159.654L403.174 155.491C403.529 152.716 403.835 149.938 404.175 147.162L405.163 138.835L405.301 137.799L405.46 136.762C405.553 136.053 405.611 135.354 405.654 134.654C405.739 133.253 405.793 131.855 405.807 130.456C405.834 127.658 405.785 124.862 405.677 122.069C405.55 119.276 405.373 116.485 405.1 113.702L405.014 113.707Z" fill="white"></path> <path d="M397.077 170.492L396.537 172.24L396.267 173.114C396.187 173.404 396.054 173.676 395.874 173.917C395.689 174.163 395.462 174.375 395.203 174.543L394.364 175.053L392.674 176.075L392.927 176.385L394.553 175.286L395.369 174.732C395.639 174.537 395.872 174.295 396.057 174.018C396.233 173.753 396.357 173.458 396.424 173.148L396.642 172.263L397.077 170.492ZM395.543 177.698L396.936 176.432L397.633 175.798C397.88 175.595 398.098 175.359 398.281 175.097C398.445 174.837 398.572 174.555 398.66 174.26L398.962 173.417L399.565 171.732L398.86 173.386L398.507 174.213C398.407 174.491 398.269 174.755 398.098 174.996C397.91 175.235 397.69 175.447 397.444 175.627L396.71 176.226L395.241 177.424L395.543 177.698ZM399.144 177.352L399.923 176.315C400.196 175.974 400.45 175.618 400.684 175.25C400.854 174.86 400.989 174.456 401.086 174.041L401.431 172.833L400.982 174.014C400.853 174.411 400.689 174.795 400.492 175.162C400.232 175.504 399.954 175.833 399.66 176.147L398.794 177.128L399.144 177.352ZM393.63 159.774C393.55 159.781 393.47 159.771 393.394 159.745C393.319 159.72 393.249 159.679 393.19 159.625C393.132 159.571 393.085 159.505 393.052 159.432C393.02 159.359 393.004 159.28 393.004 159.2C393.004 159.12 393.02 159.041 393.052 158.968C393.085 158.895 393.132 158.829 393.19 158.775C393.249 158.721 393.319 158.68 393.394 158.655C393.47 158.629 393.55 158.619 393.63 158.626C393.709 158.619 393.789 158.629 393.865 158.655C393.94 158.68 394.01 158.721 394.069 158.775C394.128 158.829 394.175 158.895 394.207 158.968C394.239 159.041 394.256 159.12 394.256 159.2C394.256 159.28 394.239 159.359 394.207 159.432C394.175 159.505 394.128 159.571 394.069 159.625C394.01 159.679 393.94 159.72 393.865 159.745C393.789 159.771 393.709 159.781 393.63 159.774ZM395.807 160.692C395.727 160.699 395.647 160.689 395.571 160.663C395.496 160.638 395.426 160.597 395.368 160.543C395.309 160.489 395.262 160.423 395.23 160.35C395.197 160.277 395.181 160.198 395.181 160.118C395.181 160.038 395.197 159.959 395.23 159.886C395.262 159.813 395.309 159.747 395.368 159.693C395.426 159.64 395.496 159.598 395.571 159.573C395.647 159.547 395.727 159.537 395.807 159.544C395.886 159.537 395.966 159.547 396.042 159.573C396.118 159.598 396.187 159.64 396.246 159.693C396.305 159.747 396.352 159.813 396.384 159.886C396.416 159.959 396.433 160.038 396.433 160.118C396.433 160.198 396.416 160.277 396.384 160.35C396.352 160.423 396.305 160.489 396.246 160.543C396.187 160.597 396.118 160.638 396.042 160.663C395.966 160.689 395.886 160.699 395.807 160.692ZM398.295 161.518C398.215 161.525 398.135 161.515 398.06 161.49C397.984 161.464 397.915 161.423 397.856 161.369C397.797 161.315 397.75 161.249 397.718 161.176C397.686 161.103 397.669 161.024 397.669 160.944C397.669 160.864 397.686 160.786 397.718 160.712C397.75 160.639 397.797 160.574 397.856 160.52C397.915 160.466 397.984 160.425 398.06 160.399C398.135 160.373 398.215 160.364 398.295 160.371C398.374 160.364 398.455 160.373 398.53 160.399C398.606 160.425 398.675 160.466 398.734 160.52C398.793 160.574 398.84 160.639 398.872 160.712C398.904 160.786 398.921 160.864 398.921 160.944C398.921 161.024 398.904 161.103 398.872 161.176C398.84 161.249 398.793 161.315 398.734 161.369C398.675 161.423 398.606 161.464 398.53 161.49C398.455 161.515 398.374 161.525 398.295 161.518ZM400.679 161.885C400.6 161.892 400.52 161.883 400.444 161.857C400.368 161.831 400.299 161.79 400.24 161.736C400.181 161.682 400.134 161.617 400.102 161.543C400.07 161.47 400.053 161.391 400.053 161.312C400.053 161.232 400.07 161.153 400.102 161.08C400.134 161.007 400.181 160.941 400.24 160.887C400.299 160.833 400.368 160.792 400.444 160.766C400.52 160.741 400.6 160.731 400.679 160.738C400.759 160.731 400.839 160.741 400.915 160.766C400.99 160.792 401.06 160.833 401.119 160.887C401.177 160.941 401.224 161.007 401.257 161.08C401.289 161.153 401.305 161.232 401.305 161.312C401.305 161.391 401.289 161.47 401.257 161.543C401.224 161.617 401.177 161.682 401.119 161.736C401.06 161.79 400.99 161.831 400.915 161.857C400.839 161.883 400.759 161.892 400.679 161.885ZM402.649 161.794C402.57 161.8 402.489 161.791 402.414 161.765C402.338 161.739 402.269 161.698 402.21 161.644C402.151 161.59 402.104 161.525 402.072 161.452C402.04 161.379 402.023 161.3 402.023 161.22C402.023 161.14 402.04 161.061 402.072 160.988C402.104 160.915 402.151 160.849 402.21 160.795C402.269 160.741 402.338 160.7 402.414 160.674C402.489 160.649 402.57 160.639 402.649 160.646C402.729 160.639 402.809 160.649 402.884 160.674C402.96 160.7 403.029 160.741 403.088 160.795C403.147 160.849 403.194 160.915 403.226 160.988C403.258 161.061 403.275 161.14 403.275 161.22C403.275 161.3 403.258 161.379 403.226 161.452C403.194 161.525 403.147 161.59 403.088 161.644C403.029 161.698 402.96 161.739 402.884 161.765C402.809 161.791 402.729 161.8 402.649 161.794ZM410.266 234.418C410.939 234.285 411.598 234.087 412.233 233.829C411.61 219.805 409.462 169.178 410.529 162.781C409.947 165.93 409.379 169.079 409.014 172.253C408.576 175.415 408.266 178.592 407.98 181.766C407.416 188.122 407.028 194.489 406.756 200.861L406.308 210.423C406.234 212.014 406.16 213.609 406.063 215.209C405.952 216.812 405.814 218.403 405.684 219.989L404.89 229.531C404.705 231.478 404.53 233.425 404.35 235.371C405.643 235.208 406.945 235.024 408.234 234.807C408.917 234.692 409.592 234.566 410.266 234.418Z" fill="white"></path> <path d="M404.271 236.197C404.183 237.158 404.095 238.115 403.998 239.072C403.998 239.072 408.977 239.898 412.394 237.42C412.394 237.42 412.334 236.107 412.233 233.829C411.648 234.193 411.019 234.481 410.362 234.688C409.706 234.913 409.037 235.109 408.362 235.281C407.055 235.612 405.735 235.882 404.391 236.099C404.353 236.134 404.312 236.167 404.271 236.197Z" fill="white"></path> <path d="M398.312 238.054C398.307 239.023 398.307 239.988 398.294 240.958C400.319 240.8 402.277 240.153 403.997 239.072C404.03 238.156 404.076 237.24 404.117 236.324C403.039 237.082 401.805 237.591 400.506 237.813C399.781 237.942 399.048 238.022 398.312 238.054ZM386.651 141.784C386.822 142.696 387.011 143.592 387.256 144.467C387.511 145.435 387.877 146.371 388.346 147.256C388.581 147.696 388.866 148.108 389.195 148.483C389.522 148.868 389.903 149.202 390.327 149.477C390.778 149.755 391.266 149.968 391.777 150.111C392.326 150.254 392.887 150.345 393.454 150.385C393.49 147.505 393.527 144.483 393.541 142.254C392.733 142.234 391.925 142.205 391.117 142.16C389.842 142.078 388.567 141.988 387.302 141.857C387.08 141.833 386.868 141.808 386.651 141.784ZM379.746 140.745C382.291 140.929 384.826 141.08 387.362 141.223C389.426 141.326 391.486 141.416 393.546 141.453C393.55 140.316 393.546 139.473 393.527 139.093C393.514 138.835 393.5 138.279 393.481 137.498C386.471 137.334 379.843 136.708 379.843 136.708C379.843 136.708 379.783 138.177 379.746 140.745ZM406.237 140.59C407.454 140.34 408.621 139.89 409.692 139.26C409.359 138.275 408.981 137.244 408.56 136.156C407.446 136.644 406.264 136.957 405.055 137.085C404.958 137.575 404.769 138.999 404.533 140.925C405.106 140.835 405.674 140.725 406.237 140.59Z" fill="white"></path> <path d="M382.849 186.465C386.89 210.702 387.874 239.073 387.874 239.073C387.874 239.073 392.908 241.457 398.293 240.958C398.228 239.993 398.177 239.028 398.127 238.059C397.462 238.083 396.796 238.079 396.136 238.038C393.279 237.858 390.46 237.28 387.763 236.32C389.158 236.586 390.562 236.803 391.961 236.979C393.359 237.157 394.765 237.265 396.173 237.302C396.81 237.314 397.448 237.302 398.08 237.269C398.011 235.903 397.946 234.533 397.868 233.163L397.545 225.372C397.332 220.174 397.208 214.976 397.037 209.777C396.94 204.579 396.806 199.381 396.746 194.179L396.676 186.38C396.69 183.778 396.667 181.177 396.704 178.576C396.875 181.173 396.986 183.77 397.129 186.371L397.457 194.167C397.665 199.361 397.794 204.559 397.96 209.757C398.053 214.959 398.191 220.157 398.251 225.356L398.321 233.155C398.316 234.525 398.314 235.892 398.316 237.257C398.986 237.219 399.652 237.137 400.311 237.012C401.616 236.81 402.852 236.29 403.909 235.498L404.015 235.417L404.135 235.4C404.143 235.4 404.151 235.399 404.158 235.396C404.251 233.433 404.348 231.47 404.435 229.507L404.976 219.941C405.442 213.589 405.534 207.209 405.83 200.829C405.992 197.639 406.187 194.45 406.417 191.263C406.652 188.077 406.902 184.891 407.271 181.713C407.645 178.535 408.033 175.358 408.564 172.2C409.082 169.039 409.736 165.899 410.527 162.781C411.677 155.915 413.709 151.084 409.691 139.261C408.702 140.033 407.577 140.614 406.375 140.974C405.747 141.175 405.11 141.342 404.463 141.486C403.627 148.316 402.288 160.405 402.288 160.716C402.288 161.129 404.047 167.738 404.255 168.748C404.463 169.759 403.53 172.969 401.923 176.229C400.316 179.488 398.967 177.239 398.967 177.239C396.741 180.085 395.392 177.562 395.392 177.562C392.543 180.085 392.802 176.229 392.802 176.229C390.936 176.687 390.391 175.828 390.469 174.76C390.594 173.026 393.577 172.834 394.409 169.619C395.018 167.26 394.977 166.176 394.409 165.947C393.836 165.718 391.97 169.022 389.795 170.585C388.557 171.468 388.091 170.765 387.92 169.988C387.863 169.694 387.878 169.392 387.963 169.105C388.048 168.819 388.202 168.558 388.409 168.343C388.885 167.816 389.536 166.613 389.897 163.881C390.52 159.199 393.314 159.199 393.314 159.199C393.314 159.199 393.388 154.978 393.453 150.385C392.874 150.515 392.279 150.555 391.689 150.504C391.083 150.443 390.492 150.278 389.943 150.017C388.909 149.482 388.064 148.644 387.518 147.616C387.016 146.672 386.688 145.646 386.548 144.586C386.412 143.653 386.412 142.705 386.548 141.772C384.262 141.531 381.99 141.195 379.745 140.745C379.635 148.876 379.773 168.041 382.849 186.465Z" fill="white"></path> <path d="M390.983 240.198C391.075 241.401 390.954 242.611 390.625 243.772C390.316 244.949 389.765 246.049 389.007 247C388.219 247.982 387.245 248.799 386.14 249.403C384.989 250.027 383.752 250.479 382.47 250.744C379.782 251.234 377.16 252.031 374.654 253.121C373.438 253.694 372.204 254.358 371.387 255.409C371.182 255.662 371.038 255.958 370.963 256.275C370.889 256.591 370.887 256.921 370.958 257.238C371.163 257.859 371.529 258.413 372.018 258.847L372.035 258.864L372.057 258.872C372.998 259.21 373.979 259.424 374.975 259.509C375.969 259.614 376.97 259.64 377.969 259.587C379.961 259.486 381.934 259.145 383.845 258.571L386.634 257.662C387.558 257.379 388.489 257.114 389.434 256.892C391.333 256.449 393.259 256.137 395.201 255.956C396.174 255.85 397.153 255.776 398.142 255.691C399.158 255.629 400.167 255.479 401.157 255.242C401.29 255.211 401.419 255.168 401.543 255.112C401.673 255.063 401.801 255.006 401.925 254.943L402.286 254.708C402.393 254.619 402.493 254.523 402.587 254.421C402.924 254.039 403.157 253.576 403.261 253.077C403.444 252.177 403.457 251.251 403.3 250.346C403.007 248.584 402.521 246.86 401.849 245.204C401.534 244.395 401.326 243.547 401.23 242.684C401.182 242.257 401.194 241.824 401.266 241.4C401.324 240.967 401.501 240.559 401.777 240.22L401.718 240.164C401.389 240.493 401.162 240.91 401.063 241.365C400.954 241.8 400.906 242.248 400.92 242.696C400.946 243.591 401.103 244.478 401.386 245.327C401.647 246.174 401.897 247.012 402.1 247.863C402.316 248.702 402.473 249.555 402.572 250.416C402.688 251.248 402.649 252.094 402.457 252.912C402.366 253.293 402.18 253.644 401.917 253.934C401.852 254.002 401.784 254.066 401.712 254.125L401.473 254.277C401.39 254.325 401.283 254.354 401.19 254.395C401.092 254.439 400.989 254.472 400.883 254.493C399.951 254.696 399.004 254.824 398.051 254.876C397.072 254.962 396.08 255.039 395.091 255.149C393.111 255.358 391.147 255.707 389.216 256.192C388.254 256.436 387.306 256.715 386.37 257.029L383.622 258.01C381.782 258.637 379.874 259.043 377.938 259.218C376.964 259.311 375.984 259.316 375.009 259.232C374.044 259.162 373.091 258.969 372.175 258.657L372.214 258.683C371.751 258.287 371.408 257.768 371.224 257.187C371.163 256.902 371.17 256.607 371.244 256.326C371.318 256.044 371.456 255.784 371.649 255.565C372.056 255.082 372.549 254.679 373.104 254.376C373.673 254.048 374.265 253.763 374.876 253.521C376.121 253.029 377.398 252.622 378.698 252.304C380.006 251.96 381.308 251.688 382.659 251.41C383.002 251.343 383.341 251.255 383.673 251.147C384.008 251.052 384.333 250.933 384.657 250.811C384.986 250.699 385.293 250.542 385.612 250.409C385.917 250.252 386.231 250.108 386.522 249.929C387.693 249.274 388.71 248.377 389.507 247.298C390.233 246.279 390.745 245.123 391.014 243.901C391.282 242.679 391.301 241.416 391.068 240.186L390.983 240.198Z" fill="white"></path> <path d="M397.502 247.747C397.402 248.249 397.257 248.74 397.066 249.215C396.964 249.439 396.831 249.648 396.674 249.838C396.49 250.037 396.283 250.213 396.058 250.364C396.368 250.341 396.666 250.231 396.915 250.046C397.151 249.864 397.341 249.628 397.467 249.357C397.578 249.102 397.639 248.826 397.646 248.547C397.659 248.273 397.609 248 397.502 247.747ZM406.174 243.616C406.023 244.033 405.94 244.425 405.78 244.771C405.711 244.943 405.609 245.1 405.48 245.233C405.32 245.373 405.133 245.479 404.93 245.544C405.056 245.582 405.188 245.594 405.318 245.581C405.448 245.568 405.575 245.529 405.69 245.466C405.91 245.34 406.082 245.146 406.181 244.913C406.271 244.706 406.317 244.483 406.314 244.257C406.317 244.035 406.269 243.816 406.174 243.616ZM390.512 244.846C388.787 244.994 387.078 245.227 385.378 245.496C383.676 245.761 381.986 246.078 380.302 246.434C379.462 246.626 378.624 246.814 377.785 247.055C377.575 247.117 377.367 247.181 377.149 247.263C377.097 247.281 377.041 247.303 376.981 247.33C376.915 247.356 376.851 247.388 376.79 247.425C376.752 247.448 376.713 247.472 376.679 247.496L376.609 247.564C376.562 247.608 376.517 247.654 376.476 247.702C376.192 248.05 376.014 248.473 375.965 248.919C375.911 249.357 376 249.8 376.219 250.182C376.459 250.562 376.792 250.873 377.187 251.087C377.978 251.473 378.842 251.685 379.722 251.709C378.911 251.538 378.136 251.224 377.434 250.781C377.134 250.577 376.892 250.297 376.733 249.971C376.599 249.665 376.564 249.326 376.633 249C376.703 248.672 376.854 248.368 377.073 248.114C377.099 248.087 377.126 248.062 377.155 248.038L377.194 248.001C377.202 247.999 377.21 247.997 377.218 247.994C377.249 247.979 377.28 247.966 377.312 247.955C377.355 247.938 377.398 247.923 377.442 247.91C377.624 247.85 377.827 247.796 378.029 247.746C378.838 247.536 379.674 247.354 380.508 247.177L385.52 246.077C387.19 245.699 388.858 245.305 390.512 244.846ZM409 238.885C408.871 239.754 408.83 240.635 408.877 241.513C408.902 242.415 409.085 243.307 409.419 244.146C409.796 244.917 410.103 245.721 410.335 246.547C410.409 246.941 410.428 247.344 410.392 247.744C410.345 248.154 410.258 248.558 410.131 248.951L410.304 248.747C409.785 249.038 409.249 249.3 408.7 249.532C408.146 249.774 407.58 249.999 406.999 250.195C405.826 250.604 404.625 250.927 403.406 251.162C404.042 251.164 404.678 251.123 405.308 251.039C405.94 250.958 406.567 250.84 407.185 250.685C407.8 250.531 408.408 250.344 409.004 250.127C409.602 249.909 410.186 249.654 410.752 249.365L410.881 249.297L410.926 249.16C411.076 248.723 411.182 248.271 411.243 247.813C411.296 247.345 411.272 246.871 411.171 246.411C410.922 245.537 410.567 244.695 410.115 243.906C409.75 243.133 409.496 242.312 409.36 241.468C409.201 240.619 409.094 239.755 409 238.885ZM400.686 99.4023C401.38 99.8446 402.009 100.383 402.553 101.001C402.844 101.293 403.085 101.629 403.354 101.941C403.593 102.275 403.841 102.606 404.07 102.947C404.972 104.33 405.713 105.811 406.28 107.362C406.859 108.908 407.324 110.494 407.673 112.108L408.117 114.543L408.43 116.999L407.893 117.046L407.65 114.608L407.276 112.187C406.975 110.581 406.558 109 406.027 107.454C405.508 105.903 404.813 104.415 403.957 103.02C403.739 102.675 403.502 102.341 403.273 102.002C403.015 101.685 402.784 101.344 402.503 101.046C401.978 100.415 401.366 99.8618 400.686 99.4023Z" fill="white"></path> <path d="M269.819 112.35C269.954 111.422 270.184 110.512 270.506 109.632C270.806 108.751 271.113 107.872 271.436 106.999C272.073 105.251 272.755 103.521 273.453 101.798C274.836 98.3455 276.277 94.9179 277.774 91.5148L277.875 91.285L278.137 91.2793C279.631 91.2009 281.104 90.8944 282.505 90.3705C283.22 90.1254 283.924 89.841 284.62 89.54C285.312 89.2344 286.01 88.9146 286.673 88.5742L286.451 89.0501C285.974 86.7888 285.447 84.5289 284.894 82.2807C284.356 80.0283 283.788 77.7819 283.14 75.5602C282.572 73.3382 281.39 71.3209 279.73 69.7388C278.061 68.1511 276.099 66.9047 273.952 66.0697L274.149 65.8752C274.568 67.2308 274.876 68.6183 275.069 70.024C275.291 71.4392 275.262 72.8822 274.985 74.2876C274.83 75.0056 274.521 75.6815 274.08 76.2688C273.615 76.8589 272.981 77.293 272.262 77.5131C271.552 77.7325 270.801 77.7902 270.065 77.682C269.323 77.5586 268.626 77.245 268.042 76.7719C267.472 76.3098 266.968 75.7705 266.547 75.1695C266.14 74.573 265.779 73.9466 265.466 73.2956C264.861 71.9998 264.372 70.6524 264.006 69.2697C263.273 66.5199 262.789 63.7096 262.561 60.8729L263.159 61.2772C258.622 62.8151 254.309 64.951 250.336 67.6284C248.37 68.9875 246.504 70.4849 244.751 72.1093C243.012 73.7504 241.391 75.5117 239.899 77.3801C236.927 81.1489 234.482 85.3051 232.632 89.7339C231.699 91.9502 230.909 94.2239 230.266 96.5413C229.591 98.8551 229.104 101.219 228.807 103.611L228.709 103.605C229.129 98.7642 230.246 94.0099 232.026 89.489C233.787 84.9408 236.183 80.6647 239.143 76.7878C240.642 74.8607 242.286 73.0508 244.06 71.3738C245.845 69.7064 247.746 68.1684 249.75 66.7716C253.811 64.0587 258.227 61.9185 262.873 60.4112L263.427 60.2285L263.471 60.8156C263.665 63.5989 264.095 66.3606 264.756 69.0711C265.09 70.4178 265.533 71.7351 266.08 73.0101C266.36 73.6371 266.686 74.2422 267.057 74.8202C267.429 75.3839 267.878 75.8935 268.389 76.3344C268.892 76.768 269.501 77.0614 270.153 77.1852C270.812 77.2966 271.487 77.2606 272.13 77.08C272.772 76.9012 273.343 76.5301 273.768 76.0168C274.19 75.4855 274.486 74.8654 274.634 74.2031C274.913 72.8406 274.951 71.4399 274.748 70.0642C274.58 68.6755 274.281 67.3056 273.856 65.9727L273.756 65.6653L274.053 65.7781C276.256 66.6033 278.277 67.8524 280 69.4547C280.876 70.2481 281.64 71.1563 282.272 72.1545C282.438 72.4 282.587 72.6572 282.716 72.924C282.863 73.182 282.994 73.4487 283.11 73.7225C283.332 74.2752 283.552 74.8304 283.716 75.3837C284.433 77.5993 285.069 79.8375 285.676 82.0829C286.258 84.3357 286.801 86.5976 287.306 88.8688L287.377 89.1899L287.085 89.3449C286.384 89.7162 285.685 90.0413 284.965 90.3436C284.246 90.6444 283.52 90.928 282.778 91.1731C281.286 91.7101 279.721 92.0139 278.137 92.0738L278.5 91.8384L276.231 96.9242C275.469 98.6173 274.716 100.315 273.973 102.016C273.23 103.717 272.505 105.426 271.782 107.135C271.422 107.99 271.078 108.851 270.741 109.715C270.386 110.566 270.11 111.448 269.917 112.35L269.819 112.35Z" fill="white"></path> <path d="M243.601 92.8825C243.718 90.4652 243.973 88.0565 244.365 85.6682C244.725 83.2775 245.236 80.9118 245.893 78.5852C246.224 77.4156 246.616 76.2643 247.069 75.136C247.516 73.9935 248.078 72.8994 248.747 71.8705C249.088 71.3521 249.471 70.8615 249.889 70.4032C250.1 70.1732 250.344 69.97 250.57 69.7542C250.82 69.5596 251.082 69.3805 251.354 69.2178C251.63 69.0561 251.925 68.9289 252.232 68.8393C252.383 68.7846 252.538 68.7442 252.696 68.7189L253.175 68.6688C253.791 68.6464 254.407 68.6901 255.014 68.799C256.226 69.009 257.378 69.479 258.391 70.1767C259.391 70.8779 260.272 71.7362 260.999 72.7184C262.415 74.6979 263.523 76.8798 264.287 79.1904C265.866 83.7878 266.577 88.6067 267.082 93.3994L267.123 93.7857L266.771 93.9279C264.907 94.6641 262.963 95.1789 260.979 95.4618C259.014 95.7683 257.023 95.873 255.036 95.7743L254.293 95.7469L253.552 95.6755C253.06 95.6195 252.564 95.5994 252.075 95.5113C251.097 95.3627 250.126 95.1652 249.167 94.9193C248.691 94.7879 248.203 94.703 247.738 94.5335L246.339 94.0533C245.864 93.8909 245.398 93.7019 244.945 93.4872L243.601 92.8825ZM243.686 92.8326L245.078 93.2954C245.534 93.4448 245.962 93.612 246.447 93.7212C247.391 93.9638 248.324 94.234 249.285 94.3879C251.187 94.753 253.119 94.9406 255.056 94.9483C255.539 94.9402 256.022 94.9625 256.504 94.9301L257.95 94.8431C258.909 94.7406 259.867 94.6303 260.817 94.468C261.767 94.3064 262.708 94.0969 263.637 93.8511C264.558 93.6125 265.464 93.3177 266.35 92.9685L266.039 93.4969C265.61 88.737 264.975 83.9755 263.641 79.3987C263.023 77.0974 262.035 74.9122 260.713 72.9293C260.024 71.9642 259.184 71.117 258.224 70.4207C257.247 69.7536 256.129 69.3229 254.957 69.1627C254.378 69.077 253.79 69.0631 253.207 69.1214L252.792 69.1885C252.655 69.2182 252.521 69.2615 252.393 69.3177C252.128 69.4112 251.876 69.5373 251.642 69.6932C250.702 70.3677 249.93 71.2495 249.386 72.2704C248.261 74.3526 247.366 76.5517 246.719 78.8284C246.38 79.9705 246.072 81.1234 245.781 82.2824C245.5 83.4438 245.234 84.6102 244.984 85.7817C244.495 88.1138 244.078 90.5186 243.686 92.8326ZM277.193 77.7367C277.723 80.0183 278.116 82.3298 278.37 84.6586C278.504 85.8247 278.587 86.9977 278.638 88.1746C278.692 89.3519 278.676 90.534 278.628 91.7193L277.647 91.6332C277.774 90.4898 277.872 89.3372 277.9 88.1784C277.931 87.0202 277.93 85.8575 277.879 84.6952C277.79 82.3641 277.56 80.0404 277.193 77.7367ZM247.45 241.099C244.364 241.188 242.228 241.232 242.228 241.232L240.81 160.194C241.425 158.525 241.967 156.832 242.498 155.139C243.015 153.445 243.511 151.744 243.985 150.034C244.457 148.331 244.905 146.614 245.338 144.896C245.649 143.65 245.944 142.395 246.229 141.14C246.185 144.871 246.18 148.597 246.15 152.323L246.165 165.008C246.185 173.464 246.293 181.92 246.352 190.371C246.495 198.828 246.589 207.284 246.771 215.735L247.056 228.42C247.189 232.643 247.287 236.871 247.45 241.099ZM216.436 140.958C215.029 144.934 213.847 148.987 212.896 153.096C217.105 115.609 228.761 103.609 228.761 103.609C230.122 104.973 231.67 106.138 233.358 107.069C230.99 110.554 228.82 114.177 226.797 117.883C224.769 121.579 222.903 125.37 221.156 129.209C220.285 131.133 219.473 133.083 218.665 135.032C218.262 136.006 217.907 137.001 217.523 137.985C217.144 138.969 216.765 139.954 216.436 140.958Z" fill="white"></path> <path d="M269.844 126.827L269.633 239.579C267.147 240.405 254.684 240.888 247.449 241.099C247.508 236.871 247.503 232.643 247.537 228.415L247.522 215.731C247.503 207.274 247.395 198.818 247.335 190.362C247.198 181.906 247.099 173.454 246.922 164.998L246.632 152.319C246.514 148.514 246.415 144.704 246.282 140.899C246.361 140.545 246.445 140.19 246.523 139.836C247.862 139.009 249.191 138.167 250.495 137.277C249.004 137.931 247.537 138.635 246.085 139.359L245.977 139.413L245.933 139.556C245.401 141.249 244.909 142.952 244.426 144.655C243.959 146.363 243.496 148.076 243.063 149.794C242.63 151.511 242.221 153.236 241.837 154.967C241.458 156.699 241.094 158.437 240.809 160.194C239.155 165.628 228.759 241.232 228.759 241.232L198.754 239.579C198.754 239.579 208.677 193.98 212.693 154.996C212.757 154.356 212.826 153.726 212.895 153.101V153.096C213.245 152.102 213.579 151.108 213.909 150.109L214.406 148.612L214.953 147.131L216.021 144.168L217.158 141.224C218.694 137.316 220.303 133.432 222.05 129.618C223.773 125.783 225.581 121.99 227.475 118.238C228.43 116.362 229.379 114.487 230.364 112.631C231.329 110.761 232.343 108.915 233.357 107.069C238.092 109.752 244.112 111.194 249.895 111.932C250.74 114.433 252.218 116.672 254.187 118.43C254.049 119.483 253.872 120.512 253.67 121.536C253.424 122.732 253.168 123.923 252.833 125.094C252.671 125.68 252.509 126.271 252.317 126.847L252.046 127.723L251.751 128.589C251.362 129.751 250.904 130.888 250.495 132.079C251.265 131.087 251.924 130.014 252.459 128.879C253.558 126.608 254.225 124.153 254.428 121.639C254.518 120.626 254.501 119.606 254.379 118.597C255.172 119.284 256.035 119.887 256.953 120.394C260.832 122.54 265.986 125.075 269.844 126.827Z" fill="white"></path> <path d="M254.381 118.596C254.318 118.542 254.253 118.488 254.189 118.429C254.219 118.252 254.239 118.07 254.263 117.888C254.312 118.124 254.352 118.36 254.381 118.596Z" fill="white"></path> <path d="M289.509 48.4404C289.496 49.8437 289.315 51.2404 288.969 52.6003C288.642 54.0022 288.047 55.3277 287.218 56.5042L287.292 56.1113C287.798 57.5823 288.174 59.0951 288.414 60.6322C288.443 60.85 288.451 61.0699 288.438 61.2892C288.431 61.4499 288.391 61.6075 288.323 61.753C288.292 61.8152 288.253 61.8726 288.205 61.9233C288.14 61.9934 288.059 62.0481 287.97 62.0836C287.921 62.1007 287.871 62.1133 287.82 62.1211L287.745 62.1292L287.725 62.1302L287.67 62.1321C287.34 62.1568 287.016 62.2304 286.707 62.3506C286.382 62.467 286.07 62.6173 285.776 62.7989L285.679 62.8632L285.638 62.8934C285.64 62.8942 285.643 62.8946 285.645 62.8944C285.648 62.8942 285.651 62.8934 285.653 62.8922C285.655 62.8911 285.656 62.8895 285.657 62.8877C285.658 62.8858 285.658 62.8837 285.657 62.8818C285.653 62.8863 285.64 62.9136 285.632 62.9284L285.576 63.0347L285.333 63.542C284.708 65.0243 283.643 66.2791 282.282 67.1374C280.893 67.8907 279.29 68.1518 277.733 67.8782C279.232 67.8761 280.698 67.4419 281.957 66.6275C282.538 66.1969 283.049 65.6787 283.471 65.0914C283.888 64.4912 284.239 63.8473 284.517 63.1711L284.745 62.6373L284.817 62.4877C284.831 62.4604 284.836 62.4431 284.857 62.4077C284.885 62.3652 284.915 62.3231 284.947 62.2826C284.979 62.2421 285.013 62.2032 285.048 62.1667L285.119 62.11C285.166 62.0718 285.211 62.0427 285.257 62.0109C285.608 61.7853 285.982 61.5979 286.373 61.4518C286.774 61.2907 287.197 61.1917 287.628 61.1582L287.717 61.1544C287.721 61.154 287.738 61.1542 287.732 61.1533C287.719 61.1521 287.705 61.1522 287.692 61.1534C287.664 61.1559 287.637 61.1632 287.611 61.175C287.566 61.1922 287.525 61.2197 287.491 61.2552C287.462 61.294 287.462 61.2852 287.451 61.307C287.436 61.343 287.457 61.2804 287.458 61.217C287.465 61.0555 287.459 60.8937 287.441 60.7332C287.349 59.9992 287.211 59.2718 287.028 58.5551C286.852 57.8245 286.672 57.086 286.469 56.3632L286.407 56.1423L286.543 55.97C286.953 55.4486 287.315 54.8908 287.625 54.3036C287.926 53.6953 288.195 53.0716 288.431 52.435C288.889 51.132 289.249 49.7968 289.509 48.4404ZM263.018 60.8443C263.868 60.3475 264.702 59.8368 265.535 59.3286C266.365 58.8161 267.182 58.2863 267.974 57.7254C268.773 57.1787 269.532 56.5763 270.246 55.9227C270.981 55.2872 271.594 54.5231 272.055 53.6677C271.757 54.6232 271.229 55.4909 270.517 56.1941C269.835 56.9166 269.077 57.5647 268.257 58.1275C266.64 59.2631 264.878 60.1769 263.018 60.8443Z" fill="white"></path> <path d="M272.052 53.6674C272.052 53.6674 270.989 54.642 272.052 51.8954C273.116 49.1489 277.103 48.4401 277.191 50.3893C277.28 52.3384 278.697 53.0942 281.355 52.1847C284.013 51.2753 289.949 48.9717 289.949 47.9971C289.949 47.0225 287.291 42.061 280.204 40.289C273.116 38.517 267.091 45.2505 266.559 50.7437C266.028 56.2368 267.209 58.5381 267.209 58.5381C267.209 58.5381 270.714 56.7385 272.052 53.6674Z" fill="white"></path> <path d="M272.053 56.4136C271.971 57.3466 271.865 58.2382 271.832 59.134C271.815 59.5809 271.825 60.0246 271.849 60.4711C271.89 60.9238 271.958 61.3736 272.053 61.8181C271.774 61.4326 271.575 60.9945 271.469 60.5303C271.369 60.0659 271.326 59.591 271.341 59.1162C271.362 58.6457 271.431 58.1786 271.546 57.722C271.655 57.265 271.826 56.8248 272.053 56.4136ZM282.419 53.667C283.223 53.7149 284.01 53.917 284.737 54.2621C285.107 54.4316 285.455 54.6451 285.773 54.898C286.113 55.1398 286.366 55.4849 286.495 55.882C286.22 55.6112 285.904 55.3862 285.557 55.2157C285.221 55.0388 284.881 54.865 284.529 54.7078C283.832 54.3771 283.12 54.0719 282.419 53.667ZM284.546 57.3291C284.737 57.3224 284.918 57.2418 285.051 57.104C285.184 56.9663 285.259 56.7823 285.259 56.5908C285.259 56.3993 285.184 56.2152 285.051 56.0775C284.918 55.9398 284.737 55.8591 284.546 55.8524C284.354 55.8591 284.173 55.9398 284.04 56.0775C283.907 56.2152 283.832 56.3993 283.832 56.5908C283.832 56.7823 283.907 56.9663 284.04 57.104C284.173 57.2418 284.354 57.3224 284.546 57.3291ZM282.419 61.8181C282.864 62.1107 283.264 62.4675 283.605 62.877C283.772 63.0755 283.936 63.2772 284.087 63.4883C284.245 63.6966 284.374 63.9152 284.546 64.1331C284.273 64.0699 284.021 63.9402 283.811 63.7555C283.601 63.5881 283.408 63.4018 283.233 63.1991C282.874 62.7967 282.597 62.3274 282.419 61.8181ZM298.964 140.167L299.114 145.544C299.163 147.336 299.2 149.129 299.224 150.921L299.309 156.298C299.345 158.091 299.351 159.883 299.363 161.675L298.906 161.218L309.851 161.152C313.499 161.155 317.147 161.173 320.796 161.245L331.74 161.429C335.389 161.48 339.037 161.509 342.685 161.492L342.503 161.675C342.483 158.027 342.476 154.38 342.413 150.732L342.248 139.788L342.146 128.845L342.081 117.902L342.685 118.506C339.037 118.531 335.389 118.525 331.74 118.52C328.092 118.499 324.444 118.495 320.796 118.446L309.851 118.325L298.906 118.124L299.128 117.902L298.964 124.315C298.964 124.331 298.957 124.345 298.946 124.356C298.936 124.366 298.921 124.372 298.906 124.372C298.891 124.372 298.876 124.366 298.865 124.356C298.854 124.345 298.848 124.331 298.848 124.315L298.684 117.902C298.682 117.844 298.704 117.789 298.743 117.747C298.783 117.705 298.837 117.681 298.895 117.68L298.896 117.68L298.906 117.679L309.851 117.478L320.796 117.357C324.444 117.308 328.092 117.304 331.74 117.283C335.389 117.278 339.037 117.272 342.685 117.297H342.693C342.772 117.297 342.85 117.313 342.923 117.344C342.995 117.375 343.061 117.419 343.117 117.476C343.172 117.532 343.216 117.598 343.246 117.671C343.275 117.744 343.29 117.823 343.29 117.902L343.225 128.845L343.123 139.788L342.958 150.732C342.894 154.38 342.887 158.027 342.868 161.675C342.868 161.724 342.849 161.77 342.814 161.804C342.78 161.838 342.734 161.858 342.685 161.858C339.037 161.842 335.389 161.87 331.74 161.921L320.796 162.106C317.147 162.177 313.499 162.195 309.851 162.198L298.906 162.132H298.9C298.84 162.132 298.781 162.12 298.726 162.097C298.671 162.074 298.622 162.04 298.58 161.997C298.538 161.955 298.505 161.905 298.482 161.849C298.46 161.794 298.448 161.735 298.448 161.675C298.46 159.883 298.467 158.09 298.502 156.298L298.588 150.921C298.61 149.129 298.647 147.336 298.698 145.544L298.848 140.167C298.848 140.152 298.854 140.137 298.865 140.127C298.876 140.116 298.891 140.11 298.906 140.11C298.921 140.11 298.936 140.116 298.946 140.127C298.957 140.137 298.964 140.152 298.964 140.167Z" fill="white"></path> <path d="M320.799 117.902V161.676" stroke="white" stroke-width="3.551" stroke-miterlimit="10"></path> <path d="M342.69 139.789H309.934" stroke="white" stroke-width="3.551" stroke-miterlimit="10"></path> <path d="M321.344 118.064C321.314 118.085 321.279 118.098 321.242 118.102L321.192 118.107L321.109 118.119L320.943 118.141L320.611 118.179C320.39 118.198 320.168 118.22 319.946 118.231C319.504 118.253 319.059 118.271 318.616 118.264C317.727 118.262 316.839 118.209 315.956 118.105C315.067 118.006 314.184 117.85 313.315 117.639C312.429 117.438 311.568 117.141 310.747 116.754C309.909 116.359 309.131 115.848 308.435 115.236C307.718 114.627 307.154 113.857 306.789 112.989C306.455 112.111 306.401 111.151 306.635 110.241C306.823 109.34 307.147 108.472 307.597 107.669C308.076 106.809 308.784 106.098 309.641 105.615C310.552 105.133 311.592 104.951 312.612 105.095C313.601 105.234 314.547 105.587 315.385 106.13C316.189 106.645 316.912 107.28 317.527 108.011C318.691 109.432 319.595 111.047 320.198 112.782C320.502 113.624 320.754 114.484 320.95 115.358C321.042 115.797 321.12 116.225 321.202 116.675C321.286 117.189 321.301 117.678 321.344 118.064ZM321.211 117.958C321.023 117.501 320.807 117.147 320.66 116.819C320.485 116.433 320.296 116.029 320.127 115.635L319.568 114.466C319.367 114.086 319.18 113.701 318.977 113.327C318.207 111.846 317.263 110.463 316.164 109.207C315.086 108.018 313.816 106.979 312.364 106.68C311.621 106.54 310.855 106.608 310.148 106.877C309.442 107.145 308.823 107.602 308.36 108.199C307.825 108.841 307.428 109.586 307.192 110.388C306.919 111.168 306.955 112.022 307.294 112.776C307.675 113.502 308.266 114.096 308.99 114.482C309.719 114.879 310.486 115.202 311.28 115.445C312.072 115.71 312.88 115.94 313.693 116.184C314.51 116.414 315.342 116.611 316.179 116.808L318.712 117.366L319.992 117.638L320.635 117.78L320.957 117.853L321.119 117.89L321.199 117.908C321.209 117.911 321.236 117.914 321.23 117.917C321.223 117.921 321.218 117.927 321.214 117.934C321.211 117.942 321.21 117.95 321.211 117.958Z" fill="white"></path> <path d="M320.396 117.958C320.398 117.95 320.397 117.942 320.393 117.934C320.39 117.927 320.384 117.921 320.377 117.917C320.372 117.914 320.399 117.911 320.408 117.908L320.489 117.89L320.65 117.853L320.973 117.78L321.616 117.638L322.896 117.366L325.429 116.808C326.265 116.611 327.098 116.414 327.914 116.184C328.727 115.94 329.536 115.71 330.328 115.445C331.121 115.202 331.888 114.879 332.617 114.482C333.342 114.096 333.933 113.502 334.314 112.776C334.652 112.022 334.688 111.168 334.415 110.388C334.18 109.586 333.782 108.841 333.247 108.199C332.784 107.602 332.165 107.145 331.459 106.877C330.753 106.608 329.986 106.54 329.244 106.68C327.792 106.979 326.521 108.018 325.443 109.207C324.345 110.463 323.401 111.846 322.63 113.327C322.427 113.701 322.241 114.086 322.039 114.466L321.48 115.635C321.312 116.029 321.122 116.433 320.947 116.819C320.8 117.147 320.585 117.501 320.396 117.958ZM320.264 118.064C320.306 117.678 320.322 117.189 320.406 116.675C320.487 116.225 320.565 115.797 320.658 115.358C320.854 114.484 321.105 113.624 321.41 112.782C322.013 111.047 322.917 109.432 324.081 108.011C324.696 107.28 325.418 106.645 326.223 106.13C327.06 105.587 328.007 105.234 328.995 105.095C330.015 104.951 331.055 105.133 331.966 105.615C332.824 106.098 333.531 106.809 334.01 107.669C334.46 108.472 334.785 109.34 334.972 110.241C335.206 111.151 335.152 112.111 334.818 112.989C334.453 113.857 333.89 114.627 333.172 115.236C332.477 115.848 331.698 116.359 330.86 116.754C330.039 117.141 329.178 117.438 328.293 117.639C327.423 117.85 326.541 118.006 325.651 118.105C324.769 118.209 323.88 118.262 322.992 118.264C322.548 118.271 322.104 118.253 321.661 118.231C321.439 118.22 321.217 118.198 320.996 118.179L320.664 118.141L320.498 118.119L320.416 118.108L320.365 118.102C320.328 118.098 320.294 118.085 320.264 118.064Z" fill="white"></path> <path d="M326.307 117.275L329.921 116.245C331.118 115.904 332.295 115.53 333.488 115.195C334.703 114.912 335.892 114.53 337.044 114.051C338.18 113.529 339.238 112.854 340.191 112.046C341.201 111.209 342.364 110.577 343.616 110.184C344.877 109.77 346.205 109.6 347.53 109.682C348.859 109.771 350.154 110.142 351.329 110.77C351.917 111.086 352.452 111.491 352.916 111.972C353.391 112.446 353.705 113.058 353.813 113.721L353.7 113.749C353.433 113.208 353.026 112.749 352.521 112.419C352.029 112.084 351.498 111.81 350.941 111.601C349.824 111.191 348.648 110.961 347.458 110.923C346.268 110.86 345.075 110.968 343.916 111.244C342.742 111.54 341.61 111.987 340.55 112.573C339.441 113.185 338.337 113.82 337.211 114.39C336.104 115.021 334.967 115.596 333.802 116.112C332.614 116.576 331.381 116.915 330.123 117.125C328.869 117.358 327.592 117.448 326.318 117.392L326.307 117.275Z" fill="white"></path> <path d="M327.24 117.833L330.304 115.656C331.318 114.935 332.304 114.189 333.317 113.476C334.368 112.804 335.361 112.047 336.287 111.212C337.184 110.341 337.957 109.352 338.585 108.271C339.258 107.146 340.144 106.162 341.193 105.374C342.244 104.563 343.439 103.96 344.716 103.595C345.998 103.236 347.342 103.154 348.659 103.353C349.319 103.455 349.959 103.659 350.556 103.958C351.163 104.246 351.663 104.718 351.986 105.307L351.889 105.371C351.457 104.95 350.92 104.653 350.333 104.51C349.758 104.359 349.166 104.278 348.571 104.267C347.381 104.252 346.196 104.429 345.061 104.789C343.918 105.127 342.83 105.627 341.829 106.273C340.821 106.944 339.904 107.743 339.099 108.649C338.258 109.596 337.429 110.563 336.557 111.476C335.725 112.44 334.844 113.361 333.918 114.236C332.953 115.069 331.904 115.8 330.788 116.418C329.684 117.056 328.51 117.567 327.289 117.939L327.24 117.833Z" fill="white"></path> <path d="M246.714 95.1006C247.117 97.8617 247.566 100.616 248.124 103.346C248.408 104.71 248.675 106.077 249.031 107.42C249.403 108.756 249.746 110.113 250.139 111.429C250.988 114.022 252.517 116.341 254.567 118.143C255.076 118.588 255.617 118.997 256.184 119.366C256.743 119.742 257.346 120.052 257.962 120.388C259.188 121.044 260.424 121.684 261.67 122.308C264.163 123.546 266.651 124.804 269.177 125.975C270.437 126.567 271.709 127.134 272.976 127.695C273.609 127.969 274.253 128.248 274.879 128.458L275.368 128.608C275.541 128.666 275.726 128.715 275.889 128.78C276.219 128.909 276.558 129.027 276.88 129.164C279.482 130.232 282.006 131.422 284.539 132.605L292.113 136.189C292.127 136.195 292.14 136.204 292.152 136.213C293.081 136.931 294.063 137.577 295.091 138.145C296.118 138.721 297.192 139.212 298.27 139.691C299.35 140.164 300.451 140.593 301.558 141.001C302.667 141.402 303.786 141.791 304.914 142.119L304.859 142.11C305.034 142.113 305.208 142.102 305.381 142.077C305.535 142.047 305.686 141.983 305.697 141.929C305.707 141.875 305.705 141.82 305.693 141.766C305.68 141.713 305.656 141.662 305.624 141.618C305.54 141.474 305.438 141.342 305.321 141.224C305.274 141.176 305.247 141.111 305.248 141.044C305.248 140.977 305.276 140.912 305.324 140.865C305.353 140.837 305.388 140.816 305.427 140.804C305.466 140.792 305.506 140.789 305.546 140.796L307.727 141.173L307.676 141.168L308.04 141.14C308.154 141.12 308.266 141.092 308.376 141.056C308.579 140.994 308.758 140.871 308.889 140.704C309.015 140.531 309.09 140.327 309.107 140.114C309.129 139.887 309.113 139.657 309.06 139.435C309.041 139.362 309.048 139.285 309.08 139.216C309.112 139.148 309.167 139.093 309.236 139.061L309.254 139.053C309.479 138.965 309.685 138.833 309.858 138.664C310.013 138.515 310.107 138.314 310.121 138.099C310.132 137.864 310.091 137.629 310.001 137.41C309.911 137.175 309.789 136.953 309.641 136.75C309.584 136.674 309.558 136.579 309.569 136.485C309.58 136.391 309.626 136.305 309.698 136.244L309.71 136.233C309.994 136.016 310.236 135.748 310.423 135.443C310.496 135.331 310.534 135.2 310.531 135.067C310.528 134.934 310.485 134.804 310.407 134.696C310.207 134.456 309.929 134.295 309.621 134.242C309.543 134.226 309.464 134.215 309.385 134.21L309.117 134.218C308.893 134.227 308.668 134.22 308.445 134.198C307.609 134.108 306.779 133.969 305.959 133.783L305.35 133.645L305.198 133.609L305.098 133.583L305.022 133.559L304.723 133.465C304.325 133.337 303.931 133.202 303.539 133.059C302.745 132.777 301.968 132.445 301.215 132.065C300.815 131.865 300.437 131.624 300.086 131.346C299.872 131.179 299.692 130.973 299.554 130.738C299.514 130.661 299.48 130.581 299.452 130.498C299.428 130.407 299.413 130.313 299.408 130.219C299.4 130.071 299.411 129.922 299.441 129.776C299.455 129.686 299.484 129.599 299.527 129.519C299.565 129.424 299.621 129.339 299.693 129.266C299.755 129.189 299.832 129.124 299.918 129.075C299.99 129.025 300.068 128.986 300.15 128.958C300.396 128.872 300.654 128.824 300.915 128.816C301.363 128.791 301.771 128.8 302.18 128.798C302.98 128.805 303.78 128.769 304.577 128.691C304.939 128.655 305.296 128.576 305.64 128.454C305.925 128.354 306.177 128.176 306.367 127.941C306.522 127.699 306.59 127.413 306.563 127.127C306.551 126.95 306.526 126.775 306.489 126.602L306.475 126.529C306.471 126.508 306.46 126.46 306.469 126.51C306.477 126.54 306.491 126.569 306.511 126.594C306.48 126.57 306.446 126.548 306.412 126.528C306.087 126.373 305.746 126.255 305.395 126.175C305.016 126.078 304.623 125.996 304.227 125.92C303.434 125.768 302.627 125.642 301.815 125.51C301.005 125.384 300.163 125.226 299.362 125.048C298.642 124.841 297.896 124.737 297.146 124.74C297.077 124.75 297.009 124.765 296.943 124.785C296.911 124.794 296.88 124.805 296.85 124.819L296.702 124.875C296.469 124.959 296.228 125.021 295.983 125.058C295.542 125.133 295.121 125.172 294.699 125.205C293.856 125.268 293.032 125.291 292.191 125.298L292.163 125.298C292.137 125.298 292.112 125.295 292.087 125.289L290.624 124.93C290.146 124.792 289.696 124.602 289.231 124.44C288.771 124.277 288.32 124.089 287.88 123.879C287.44 123.676 286.986 123.493 286.557 123.271C285.7 122.827 284.827 122.407 283.996 121.923L282.736 121.217L281.503 120.471C278.221 118.472 275.064 116.299 271.966 114.049C270.415 112.927 268.887 111.773 267.383 110.588C267.291 110.515 267.189 110.438 267.093 110.355L266.804 110.067C266.634 109.873 266.478 109.666 266.339 109.448C266.071 109.027 265.841 108.582 265.654 108.119C265.294 107.215 265.005 106.285 264.791 105.336C264.37 103.46 264.079 101.558 263.92 99.6428C263.746 97.7352 263.643 95.8251 263.613 93.9122C263.613 93.9046 263.615 93.897 263.618 93.8899C263.62 93.8827 263.625 93.8763 263.63 93.8708C263.635 93.8653 263.642 93.8609 263.649 93.8579C263.656 93.8548 263.663 93.8532 263.671 93.8531C263.686 93.8532 263.7 93.8591 263.711 93.8694C263.722 93.8798 263.729 93.8939 263.73 93.9089C263.927 97.7117 264.477 101.488 265.373 105.189C265.608 106.097 265.913 106.985 266.286 107.845C266.47 108.262 266.692 108.662 266.949 109.039C267.072 109.22 267.208 109.391 267.358 109.551L267.582 109.763C267.668 109.833 267.76 109.898 267.856 109.97C269.39 111.097 270.943 112.203 272.503 113.296C275.627 115.476 278.808 117.576 282.088 119.489L283.318 120.205L284.563 120.888C285.387 121.359 286.24 121.759 287.081 122.186C288.738 123.017 290.488 123.646 292.294 124.059L292.191 124.05C292.992 124.045 293.811 124.022 294.607 123.964C295.004 123.934 295.402 123.896 295.771 123.834C295.932 123.81 296.091 123.772 296.245 123.719L296.289 123.706L296.386 123.667C296.45 123.639 296.515 123.616 296.582 123.597C296.713 123.558 296.845 123.529 296.98 123.51C297.452 123.464 297.929 123.489 298.394 123.584C298.823 123.659 299.227 123.751 299.628 123.839C300.431 124.024 301.202 124.179 302.015 124.314C302.822 124.454 303.638 124.59 304.457 124.756C304.867 124.84 305.278 124.929 305.693 125.041C306.143 125.148 306.578 125.31 306.989 125.522C307.134 125.603 307.265 125.706 307.378 125.827C307.467 125.928 307.534 126.046 307.574 126.174C307.589 126.217 307.599 126.26 307.607 126.304L307.622 126.382C307.667 126.612 307.696 126.844 307.708 127.077C307.743 127.618 307.595 128.154 307.289 128.601C306.967 129.015 306.533 129.327 306.039 129.501C305.607 129.652 305.157 129.75 304.701 129.791C303.862 129.866 303.019 129.895 302.176 129.879C301.763 129.876 301.35 129.864 300.977 129.882C300.827 129.884 300.677 129.906 300.533 129.948C300.446 129.997 300.502 129.937 300.47 130.006C300.255 130.255 301.037 130.826 301.692 131.171C302.4 131.544 303.13 131.872 303.879 132.154C304.256 132.299 304.637 132.438 305.02 132.568L305.306 132.664L305.377 132.688L305.427 132.701L305.573 132.739L306.163 132.884C306.942 133.077 307.732 133.224 308.528 133.326C308.714 133.348 308.9 133.358 309.087 133.358L309.434 133.36C309.56 133.37 309.684 133.39 309.807 133.419C310.313 133.527 310.762 133.816 311.069 134.233C311.237 134.468 311.324 134.75 311.319 135.038C311.314 135.309 311.24 135.575 311.104 135.81C310.857 136.204 310.537 136.547 310.16 136.82L310.229 136.303C310.416 136.569 310.566 136.86 310.673 137.167C310.792 137.488 310.838 137.831 310.807 138.172C310.768 138.538 310.6 138.877 310.333 139.13C310.089 139.36 309.8 139.537 309.484 139.651L309.678 139.268C309.747 139.57 309.762 139.882 309.723 140.189C309.687 140.512 309.561 140.819 309.361 141.076C309.153 141.329 308.875 141.514 308.56 141.607C308.415 141.651 308.266 141.684 308.115 141.706L307.676 141.729C307.662 141.73 307.647 141.729 307.633 141.727L307.624 141.725L305.454 141.294L305.679 140.866C305.828 141.021 305.956 141.196 306.058 141.386C306.131 141.5 306.174 141.631 306.184 141.766C306.194 141.901 306.171 142.037 306.116 142.161C306.041 142.268 305.943 142.357 305.83 142.422C305.717 142.487 305.59 142.525 305.46 142.535C305.255 142.561 305.048 142.569 304.842 142.56C304.823 142.559 304.804 142.556 304.786 142.551C302.519 141.835 300.293 140.996 298.117 140.036C297.034 139.548 295.963 139.029 294.919 138.456C293.866 137.891 292.858 137.245 291.904 136.525L291.943 136.549C289.41 135.379 286.874 134.211 284.31 133.109C281.749 132.007 279.184 130.894 276.589 129.916C276.265 129.79 275.941 129.688 275.617 129.572C275.454 129.512 275.299 129.479 275.14 129.43L274.624 129.287C273.919 129.073 273.274 128.813 272.617 128.553C271.31 128.033 270.038 127.448 268.762 126.874C266.22 125.702 263.684 124.518 261.204 123.221C259.961 122.577 258.725 121.919 257.496 121.246C256.892 120.907 256.254 120.57 255.658 120.16C255.059 119.76 254.49 119.319 253.954 118.838C251.794 116.919 250.218 114.432 249.403 111.661C249.036 110.291 248.733 108.93 248.395 107.566C248.08 106.2 247.834 104.82 247.611 103.439C247.183 100.673 246.821 97.9001 246.598 95.1128C246.597 95.0974 246.602 95.0821 246.612 95.0704C246.622 95.0586 246.636 95.0513 246.651 95.0501C246.666 95.0491 246.681 95.0537 246.692 95.0631C246.704 95.0724 246.712 95.0858 246.714 95.1006ZM285.015 89.333C286.158 91.8328 287.368 94.2809 288.612 96.7113C289.24 97.9227 289.865 99.135 290.521 100.331L291.495 102.129L292.501 103.909C293.17 105.096 293.849 106.28 294.552 107.448L295.597 109.207L296.67 110.95C298.09 113.284 299.596 115.563 301.048 117.902C299.204 115.859 297.489 113.705 295.911 111.452C294.321 109.204 292.845 106.878 291.487 104.483C290.131 102.086 288.898 99.6217 287.793 97.0994C286.665 94.5876 285.736 91.9908 285.015 89.333Z" fill="white"></path> <path d="M274.68 98.0605C276.27 100.074 277.795 102.127 279.311 104.184C280.831 106.238 282.322 108.31 283.821 110.374C285.322 112.436 286.819 114.5 288.351 116.532C289.12 117.546 289.889 118.558 290.697 119.534C291.096 120.027 291.508 120.505 291.935 120.969C292.346 121.435 292.805 121.856 293.305 122.225L293.328 122.24C293.352 122.256 293.371 122.279 293.382 122.307C293.693 123.07 293.999 123.836 294.292 124.609C293.865 123.901 293.451 123.188 293.043 122.471L293.12 122.553C292.007 121.864 290.997 121.021 290.122 120.048C289.231 119.114 288.373 118.153 287.558 117.16C285.919 115.181 284.375 113.132 282.889 111.045C281.403 108.958 279.972 106.834 278.597 104.673C277.226 102.511 275.896 100.321 274.68 98.0605ZM300.417 134.432C302.015 134.834 303.572 135.279 305.147 135.659C305.933 135.85 306.722 136.018 307.516 136.175C308.313 136.317 309.111 136.435 309.933 136.528C309.115 136.666 308.283 136.698 307.457 136.626C306.632 136.551 305.815 136.417 305.01 136.224C304.209 136.026 303.421 135.779 302.651 135.486C301.877 135.198 301.13 134.846 300.417 134.432ZM299.577 136.54C301.186 137.165 302.771 137.769 304.392 138.263C305.199 138.522 306.02 138.722 306.845 138.917C307.673 139.102 308.509 139.227 309.368 139.351C308.506 139.468 307.633 139.473 306.769 139.365C305.906 139.258 305.053 139.076 304.222 138.82C303.393 138.562 302.585 138.244 301.803 137.869C301.019 137.5 300.273 137.055 299.577 136.54ZM298.911 137.946C300.045 138.39 301.155 138.893 302.237 139.453L303.851 140.269C304.392 140.536 304.925 140.81 305.497 141.045C304.875 141.025 304.26 140.905 303.677 140.689C303.094 140.49 302.526 140.251 301.976 139.973C301.429 139.697 300.897 139.391 300.383 139.058C299.863 138.728 299.371 138.356 298.911 137.946ZM204.926 239.959C204.614 240.6 204.226 241.3 203.863 241.959L202.746 243.958C201.985 245.282 201.202 246.594 200.398 247.893C199.605 249.2 198.762 250.477 197.895 251.741C197.031 253.021 196.084 254.243 195.06 255.399L194.661 255.832L194.205 256.236C193.884 256.526 193.628 256.701 193.356 256.962C192.824 257.475 192.329 258.025 191.874 258.608C190.946 259.782 190.149 261.054 189.499 262.402C188.806 263.716 188.446 265.181 188.451 266.667C188.477 267.392 188.769 268.081 189.272 268.604C189.803 269.113 190.479 269.447 191.206 269.561C191.944 269.694 192.696 269.732 193.443 269.673C194.195 269.607 194.94 269.485 195.674 269.31C197.148 268.96 198.582 268.463 199.956 267.825C202.705 266.557 205.305 264.985 207.706 263.14C210.117 261.331 212.306 259.244 214.228 256.922C216.152 254.64 217.591 251.99 218.458 249.133L218.442 249.307C218.211 246.435 218.025 243.559 217.826 240.685L218.208 241.057C217.116 240.976 216.024 240.909 214.927 240.814L211.625 240.544C209.418 240.368 207.187 240.161 204.926 239.959ZM204.88 239.873C207.062 239.915 209.273 239.954 211.509 240.023L214.871 240.119C215.995 240.147 217.124 240.202 218.253 240.244L218.601 240.257L218.636 240.617C218.918 243.484 219.214 246.351 219.464 249.221L219.471 249.306L219.449 249.394C219.048 250.913 218.45 252.373 217.668 253.736C216.903 255.092 216.011 256.372 215.003 257.558C213.002 259.915 210.714 262.012 208.193 263.801C205.694 265.599 202.99 267.094 200.139 268.255C198.716 268.836 197.247 269.299 195.749 269.641C194.996 269.809 194.233 269.922 193.464 269.979C192.69 270.029 191.912 269.99 191.146 269.865C190.355 269.742 189.618 269.391 189.024 268.856C188.446 268.282 188.088 267.523 188.015 266.711C187.927 265.136 188.231 263.564 188.898 262.135C189.499 260.699 190.274 259.342 191.205 258.095C191.669 257.46 192.188 256.867 192.755 256.322C193.031 256.051 193.399 255.785 193.64 255.556L194.04 255.204L194.42 254.8C195.426 253.68 196.366 252.502 197.235 251.272C198.125 250.044 198.987 248.792 199.844 247.535C200.703 246.278 201.534 245.002 202.365 243.725L204.88 239.873ZM245.025 241.208C244.177 242.689 243.5 244.263 243.01 245.898C242.765 246.705 242.613 247.537 242.556 248.378C242.49 249.194 242.605 250.014 242.892 250.781C243.184 251.52 243.693 252.154 244.351 252.6C245.05 253.037 245.809 253.37 246.604 253.587C248.223 254.127 249.881 254.575 251.545 255.004C254.875 255.851 258.22 256.679 261.591 257.395C264.953 258.152 268.357 258.714 271.784 259.077C272.635 259.168 273.49 259.216 274.346 259.22C274.773 259.22 275.198 259.191 275.621 259.134C276.047 259.086 276.47 259.027 276.892 258.957C278.562 258.671 280.275 258.252 281.632 257.334C281.96 257.138 282.241 256.873 282.455 256.557C282.67 256.241 282.813 255.883 282.874 255.506C282.897 254.73 282.658 253.968 282.196 253.344C281.745 252.695 281.131 252.175 280.417 251.836C280.054 251.662 279.673 251.528 279.282 251.437L278.028 251.101C276.358 250.644 274.695 250.16 273.044 249.616C272.218 249.343 271.396 249.052 270.582 248.717C270.175 248.551 269.769 248.367 269.366 248.17C268.924 247.961 268.515 247.691 268.15 247.367C266.949 246.161 265.66 245.046 264.294 244.03C262.937 242.979 261.571 241.928 260.185 240.913L260.451 240.992C257.91 241.059 255.364 241.112 252.795 241.139C250.23 241.18 247.644 241.198 245.025 241.208ZM244.977 241.122C247.502 240.931 250.06 240.748 252.64 240.588C255.215 240.413 257.814 240.265 260.417 240.131L260.559 240.123L260.683 240.21C262.106 241.198 263.518 242.193 264.901 243.239C265.592 243.763 266.278 244.295 266.954 244.845C267.291 245.122 267.627 245.404 267.957 245.699C268.123 245.846 268.286 246.004 268.448 246.158L268.688 246.415L268.808 246.545C268.846 246.584 268.868 246.598 268.898 246.626C269.185 246.868 269.502 247.071 269.84 247.233C270.212 247.414 270.591 247.588 270.983 247.749C271.766 248.067 272.565 248.366 273.372 248.649C274.989 249.21 276.632 249.718 278.282 250.199L279.522 250.553C279.969 250.667 280.403 250.828 280.815 251.034C281.66 251.456 282.376 252.097 282.889 252.89C283.139 253.285 283.338 253.711 283.48 254.157C283.633 254.621 283.682 255.114 283.623 255.6C283.556 256.093 283.357 256.559 283.047 256.948C282.751 257.314 282.395 257.627 281.996 257.876C281.229 258.338 280.398 258.684 279.53 258.901C278.684 259.125 277.824 259.29 276.956 259.396C276.092 259.512 275.222 259.573 274.351 259.58C273.482 259.564 272.614 259.504 271.751 259.4C268.315 258.998 264.906 258.459 261.492 257.918C258.084 257.349 254.681 256.72 251.325 255.857C249.645 255.439 247.98 254.946 246.332 254.38C245.918 254.225 245.515 254.103 245.096 253.912C244.671 253.734 244.268 253.506 243.896 253.233C243.127 252.688 242.547 251.916 242.237 251.026C241.952 250.158 241.861 249.239 241.971 248.333C242.068 247.454 242.265 246.589 242.558 245.755C242.853 244.933 243.205 244.134 243.611 243.362C244.01 242.582 244.467 241.834 244.977 241.122Z" fill="white"></path> </svg> 