<?xml version="1.0" encoding="UTF-8"?> <svg xmlns="http://www.w3.org/2000/svg" width="600" height="400" viewBox="0 0 600 400" fill="none"> <rect width="600" height="400" rx="20" fill="#0BA360"></rect> <path d="M62.0173 322.33C60.4333 322.33 59.0767 321.985 57.9473 321.296C56.818 320.599 55.949 319.631 55.3403 318.392C54.739 317.153 54.4383 315.715 54.4383 314.08C54.4383 312.445 54.739 311.007 55.3403 309.768C55.949 308.529 56.818 307.564 57.9473 306.875C59.0767 306.178 60.4333 305.83 62.0173 305.83C63.8433 305.83 65.365 306.288 66.5823 307.205C67.7997 308.114 68.654 309.343 69.1453 310.89L66.4723 311.627C66.1643 310.593 65.64 309.786 64.8993 309.207C64.1587 308.62 63.198 308.327 62.0173 308.327C60.954 308.327 60.0667 308.565 59.3553 309.042C58.6513 309.519 58.1197 310.19 57.7603 311.055C57.4083 311.913 57.2287 312.921 57.2213 314.08C57.2213 315.239 57.3973 316.251 57.7493 317.116C58.1087 317.974 58.644 318.641 59.3553 319.118C60.0667 319.595 60.954 319.833 62.0173 319.833C63.198 319.833 64.1587 319.54 64.8993 318.953C65.64 318.366 66.1643 317.56 66.4723 316.533L69.1453 317.27C68.654 318.817 67.7997 320.049 66.5823 320.966C65.365 321.875 63.8433 322.33 62.0173 322.33ZM78.2595 322.33C76.6755 322.33 75.3188 321.985 74.1895 321.296C73.0602 320.599 72.1912 319.631 71.5825 318.392C70.9812 317.153 70.6805 315.715 70.6805 314.08C70.6805 312.445 70.9812 311.007 71.5825 309.768C72.1912 308.529 73.0602 307.564 74.1895 306.875C75.3188 306.178 76.6755 305.83 78.2595 305.83C79.8435 305.83 81.2002 306.178 82.3295 306.875C83.4662 307.564 84.3352 308.529 84.9365 309.768C85.5452 311.007 85.8495 312.445 85.8495 314.08C85.8495 315.715 85.5452 317.153 84.9365 318.392C84.3352 319.631 83.4662 320.599 82.3295 321.296C81.2002 321.985 79.8435 322.33 78.2595 322.33ZM78.2595 319.833C79.3228 319.84 80.2065 319.606 80.9105 319.129C81.6218 318.652 82.1535 317.981 82.5055 317.116C82.8648 316.251 83.0445 315.239 83.0445 314.08C83.0445 312.921 82.8648 311.917 82.5055 311.066C82.1535 310.208 81.6218 309.541 80.9105 309.064C80.2065 308.587 79.3228 308.342 78.2595 308.327C77.1962 308.32 76.3125 308.554 75.6085 309.031C74.9045 309.508 74.3728 310.179 74.0135 311.044C73.6615 311.909 73.4855 312.921 73.4855 314.08C73.4855 315.239 73.6615 316.247 74.0135 317.105C74.3655 317.956 74.8935 318.619 75.5975 319.096C76.3088 319.573 77.1962 319.818 78.2595 319.833ZM94.419 322.33C93.1577 322.33 92.0467 322.073 91.086 321.56C90.1327 321.047 89.3847 320.324 88.842 319.393C88.3067 318.462 88.039 317.369 88.039 316.115V306.182L90.723 306.16V316.049C90.723 316.643 90.822 317.175 91.02 317.644C91.2254 318.113 91.5004 318.513 91.845 318.843C92.1897 319.166 92.5857 319.411 93.033 319.58C93.4804 319.749 93.9424 319.833 94.419 319.833C94.9104 319.833 95.376 319.749 95.816 319.58C96.2634 319.404 96.6594 319.155 97.004 318.832C97.3487 318.502 97.62 318.102 97.818 317.633C98.016 317.164 98.115 316.636 98.115 316.049V306.16H100.799V316.115C100.799 317.369 100.528 318.462 99.985 319.393C99.4497 320.324 98.7017 321.047 97.741 321.56C96.7877 322.073 95.6804 322.33 94.419 322.33ZM103.873 322V306.16H106.557L113.905 317.325V306.16H116.589V322H113.905L106.557 310.835V322H103.873ZM123.47 322V308.646H118.344V306.16H131.247V308.646H126.121V322H123.47ZM133.006 322V306.16H139.551C139.705 306.16 139.903 306.167 140.145 306.182C140.387 306.189 140.61 306.211 140.816 306.248C141.732 306.387 142.488 306.692 143.082 307.161C143.683 307.63 144.127 308.224 144.413 308.943C144.706 309.654 144.853 310.446 144.853 311.319C144.853 312.61 144.526 313.721 143.874 314.652C143.221 315.576 142.22 316.148 140.871 316.368L139.738 316.467H135.657V322H133.006ZM142.103 322L138.979 315.554L141.674 314.96L145.106 322H142.103ZM135.657 313.992H139.441C139.587 313.992 139.752 313.985 139.936 313.97C140.119 313.955 140.288 313.926 140.442 313.882C140.882 313.772 141.226 313.578 141.476 313.299C141.732 313.02 141.912 312.705 142.015 312.353C142.125 312.001 142.18 311.656 142.18 311.319C142.18 310.982 142.125 310.637 142.015 310.285C141.912 309.926 141.732 309.607 141.476 309.328C141.226 309.049 140.882 308.855 140.442 308.745C140.288 308.701 140.119 308.675 139.936 308.668C139.752 308.653 139.587 308.646 139.441 308.646H135.657V313.992ZM147.749 322V306.16H150.4V322H147.749ZM153.695 322V306.16H163.925V308.646H156.346V312.551H162.605V315.037H156.346V319.514H163.925V322H153.695ZM172.277 322.33C171.118 322.33 170.073 322.128 169.142 321.725C168.218 321.322 167.455 320.746 166.854 319.998C166.26 319.243 165.882 318.348 165.721 317.314L168.471 316.896C168.706 317.835 169.186 318.561 169.912 319.074C170.645 319.587 171.489 319.844 172.442 319.844C173.007 319.844 173.538 319.756 174.037 319.58C174.536 319.404 174.939 319.147 175.247 318.81C175.562 318.473 175.72 318.058 175.72 317.567C175.72 317.347 175.683 317.145 175.61 316.962C175.537 316.771 175.427 316.603 175.28 316.456C175.141 316.309 174.957 316.177 174.73 316.06C174.51 315.935 174.253 315.829 173.96 315.741L169.868 314.531C169.516 314.428 169.135 314.293 168.724 314.124C168.321 313.948 167.936 313.71 167.569 313.409C167.21 313.101 166.913 312.712 166.678 312.243C166.451 311.766 166.337 311.18 166.337 310.483C166.337 309.464 166.594 308.609 167.107 307.92C167.628 307.223 168.324 306.703 169.197 306.358C170.077 306.013 171.052 305.845 172.123 305.852C173.208 305.859 174.176 306.046 175.027 306.413C175.878 306.772 176.589 307.297 177.161 307.986C177.733 308.675 178.136 309.508 178.371 310.483L175.522 310.978C175.405 310.421 175.177 309.948 174.84 309.559C174.51 309.163 174.103 308.862 173.619 308.657C173.142 308.452 172.633 308.342 172.09 308.327C171.562 308.32 171.071 308.4 170.616 308.569C170.169 308.73 169.806 308.965 169.527 309.273C169.256 309.581 169.12 309.94 169.12 310.351C169.12 310.74 169.237 311.059 169.472 311.308C169.707 311.55 169.996 311.744 170.341 311.891C170.693 312.03 171.049 312.148 171.408 312.243L174.246 313.035C174.635 313.138 175.071 313.277 175.555 313.453C176.039 313.629 176.505 313.875 176.952 314.19C177.399 314.505 177.766 314.92 178.052 315.433C178.345 315.946 178.492 316.599 178.492 317.391C178.492 318.212 178.32 318.935 177.975 319.558C177.638 320.174 177.179 320.687 176.6 321.098C176.021 321.509 175.357 321.817 174.609 322.022C173.868 322.227 173.091 322.33 172.277 322.33ZM188.621 322L183.99 306.16H186.773L189.93 317.6L193.076 306.182L195.859 306.16L199.016 317.6L202.162 306.16H204.945L200.325 322H197.707L194.462 310.736L191.239 322H188.621ZM206.96 322V306.16H209.611V322H206.96ZM216.712 322V308.646H211.586V306.16H224.489V308.646H219.363V322H216.712ZM226.248 322V306.16H228.899V312.826H236.401V306.16H239.041V322H236.401V315.312H228.899V322H226.248ZM246.529 322V306.16H248.916L254.394 317.38L259.872 306.16H262.259V322H259.784V311.847L254.922 322H253.866L249.015 311.847V322H246.529ZM272.049 322.33C270.465 322.33 269.108 321.985 267.979 321.296C266.849 320.599 265.98 319.631 265.372 318.392C264.77 317.153 264.47 315.715 264.47 314.08C264.47 312.445 264.77 311.007 265.372 309.768C265.98 308.529 266.849 307.564 267.979 306.875C269.108 306.178 270.465 305.83 272.049 305.83C273.633 305.83 274.989 306.178 276.119 306.875C277.255 307.564 278.124 308.529 278.726 309.768C279.334 311.007 279.639 312.445 279.639 314.08C279.639 315.715 279.334 317.153 278.726 318.392C278.124 319.631 277.255 320.599 276.119 321.296C274.989 321.985 273.633 322.33 272.049 322.33ZM272.049 319.833C273.112 319.84 273.996 319.606 274.7 319.129C275.411 318.652 275.943 317.981 276.295 317.116C276.654 316.251 276.834 315.239 276.834 314.08C276.834 312.921 276.654 311.917 276.295 311.066C275.943 310.208 275.411 309.541 274.7 309.064C273.996 308.587 273.112 308.342 272.049 308.327C270.985 308.32 270.102 308.554 269.398 309.031C268.694 309.508 268.162 310.179 267.803 311.044C267.451 311.909 267.275 312.921 267.275 314.08C267.275 315.239 267.451 316.247 267.803 317.105C268.155 317.956 268.683 318.619 269.387 319.096C270.098 319.573 270.985 319.818 272.049 319.833ZM281.828 322V306.16H288.373C288.527 306.16 288.725 306.167 288.967 306.182C289.209 306.189 289.433 306.211 289.638 306.248C290.555 306.387 291.31 306.692 291.904 307.161C292.505 307.63 292.949 308.224 293.235 308.943C293.528 309.654 293.675 310.446 293.675 311.319C293.675 312.61 293.349 313.721 292.696 314.652C292.043 315.576 291.042 316.148 289.693 316.368L288.56 316.467H284.479V322H281.828ZM290.925 322L287.801 315.554L290.496 314.96L293.928 322H290.925ZM284.479 313.992H288.263C288.41 313.992 288.575 313.985 288.758 313.97C288.941 313.955 289.11 313.926 289.264 313.882C289.704 313.772 290.049 313.578 290.298 313.299C290.555 313.02 290.734 312.705 290.837 312.353C290.947 312.001 291.002 311.656 291.002 311.319C291.002 310.982 290.947 310.637 290.837 310.285C290.734 309.926 290.555 309.607 290.298 309.328C290.049 309.049 289.704 308.855 289.264 308.745C289.11 308.701 288.941 308.675 288.758 308.668C288.575 308.653 288.41 308.646 288.263 308.646H284.479V313.992ZM296.352 322V306.16H306.582V308.646H299.003V312.551H305.262V315.037H299.003V319.514H306.582V322H296.352ZM313.625 322V306.16H316.309L323.657 317.325V306.16H326.341V322H323.657L316.309 310.835V322H313.625ZM328.316 322L333.31 306.16H337.193L342.187 322H339.459L334.927 307.788H335.521L331.044 322H328.316ZM331.099 318.568V316.093H339.415V318.568H331.099ZM346.671 322V308.646H341.545V306.16H354.448V308.646H349.322V322H346.671ZM362.587 322.33C361.326 322.33 360.215 322.073 359.254 321.56C358.301 321.047 357.553 320.324 357.01 319.393C356.475 318.462 356.207 317.369 356.207 316.115V306.182L358.891 306.16V316.049C358.891 316.643 358.99 317.175 359.188 317.644C359.393 318.113 359.668 318.513 360.013 318.843C360.358 319.166 360.754 319.411 361.201 319.58C361.648 319.749 362.11 319.833 362.587 319.833C363.078 319.833 363.544 319.749 363.984 319.58C364.431 319.404 364.827 319.155 365.172 318.832C365.517 318.502 365.788 318.102 365.986 317.633C366.184 317.164 366.283 316.636 366.283 316.049V306.16H368.967V316.115C368.967 317.369 368.696 318.462 368.153 319.393C367.618 320.324 366.87 321.047 365.909 321.56C364.956 322.073 363.848 322.33 362.587 322.33ZM372.041 322V306.16H378.586C378.74 306.16 378.938 306.167 379.18 306.182C379.422 306.189 379.646 306.211 379.851 306.248C380.768 306.387 381.523 306.692 382.117 307.161C382.718 307.63 383.162 308.224 383.448 308.943C383.741 309.654 383.888 310.446 383.888 311.319C383.888 312.61 383.562 313.721 382.909 314.652C382.256 315.576 381.255 316.148 379.906 316.368L378.773 316.467H374.692V322H372.041ZM381.138 322L378.014 315.554L380.709 314.96L384.141 322H381.138ZM374.692 313.992H378.476C378.623 313.992 378.788 313.985 378.971 313.97C379.154 313.955 379.323 313.926 379.477 313.882C379.917 313.772 380.262 313.578 380.511 313.299C380.768 313.02 380.947 312.705 381.05 312.353C381.16 312.001 381.215 311.656 381.215 311.319C381.215 310.982 381.16 310.637 381.05 310.285C380.947 309.926 380.768 309.607 380.511 309.328C380.262 309.049 379.917 308.855 379.477 308.745C379.323 308.701 379.154 308.675 378.971 308.668C378.788 308.653 378.623 308.646 378.476 308.646H374.692V313.992ZM385.464 322L390.458 306.16H394.341L399.335 322H396.607L392.075 307.788H392.669L388.192 322H385.464ZM388.247 318.568V316.093H396.563V318.568H388.247ZM401.544 322V306.16H404.195V319.514H411.191V322H401.544ZM416.363 322V306.16H422.908C423.062 306.16 423.26 306.167 423.502 306.182C423.744 306.189 423.968 306.211 424.173 306.248C425.09 306.387 425.845 306.692 426.439 307.161C427.041 307.63 427.484 308.224 427.77 308.943C428.064 309.654 428.21 310.446 428.21 311.319C428.21 312.61 427.884 313.721 427.231 314.652C426.579 315.576 425.578 316.148 424.228 316.368L423.095 316.467H419.014V322H416.363ZM425.46 322L422.336 315.554L425.031 314.96L428.463 322H425.46ZM419.014 313.992H422.798C422.945 313.992 423.11 313.985 423.293 313.97C423.477 313.955 423.645 313.926 423.799 313.882C424.239 313.772 424.584 313.578 424.833 313.299C425.09 313.02 425.27 312.705 425.372 312.353C425.482 312.001 425.537 311.656 425.537 311.319C425.537 310.982 425.482 310.637 425.372 310.285C425.27 309.926 425.09 309.607 424.833 309.328C424.584 309.049 424.239 308.855 423.799 308.745C423.645 308.701 423.477 308.675 423.293 308.668C423.11 308.653 422.945 308.646 422.798 308.646H419.014V313.992ZM430.887 322V306.16H441.117V308.646H433.538V312.551H439.797V315.037H433.538V319.514H441.117V322H430.887ZM449.468 322.33C448.31 322.33 447.265 322.128 446.333 321.725C445.409 321.322 444.647 320.746 444.045 319.998C443.451 319.243 443.074 318.348 442.912 317.314L445.662 316.896C445.897 317.835 446.377 318.561 447.103 319.074C447.837 319.587 448.68 319.844 449.633 319.844C450.198 319.844 450.73 319.756 451.228 319.58C451.727 319.404 452.13 319.147 452.438 318.81C452.754 318.473 452.911 318.058 452.911 317.567C452.911 317.347 452.875 317.145 452.801 316.962C452.728 316.771 452.618 316.603 452.471 316.456C452.332 316.309 452.149 316.177 451.921 316.06C451.701 315.935 451.445 315.829 451.151 315.741L447.059 314.531C446.707 314.428 446.326 314.293 445.915 314.124C445.512 313.948 445.127 313.71 444.76 313.409C444.401 313.101 444.104 312.712 443.869 312.243C443.642 311.766 443.528 311.18 443.528 310.483C443.528 309.464 443.785 308.609 444.298 307.92C444.819 307.223 445.516 306.703 446.388 306.358C447.268 306.013 448.244 305.845 449.314 305.852C450.4 305.859 451.368 306.046 452.218 306.413C453.069 306.772 453.78 307.297 454.352 307.986C454.924 308.675 455.328 309.508 455.562 310.483L452.713 310.978C452.596 310.421 452.369 309.948 452.031 309.559C451.701 309.163 451.294 308.862 450.81 308.657C450.334 308.452 449.824 308.342 449.281 308.327C448.753 308.32 448.262 308.4 447.807 308.569C447.36 308.73 446.997 308.965 446.718 309.273C446.447 309.581 446.311 309.94 446.311 310.351C446.311 310.74 446.429 311.059 446.663 311.308C446.898 311.55 447.188 311.744 447.532 311.891C447.884 312.03 448.24 312.148 448.599 312.243L451.437 313.035C451.826 313.138 452.262 313.277 452.746 313.453C453.23 313.629 453.696 313.875 454.143 314.19C454.591 314.505 454.957 314.92 455.243 315.433C455.537 315.946 455.683 316.599 455.683 317.391C455.683 318.212 455.511 318.935 455.166 319.558C454.829 320.174 454.371 320.687 453.791 321.098C453.212 321.509 452.548 321.817 451.8 322.022C451.06 322.227 450.282 322.33 449.468 322.33ZM464.763 322.33C463.179 322.33 461.823 321.985 460.693 321.296C459.564 320.599 458.695 319.631 458.086 318.392C457.485 317.153 457.184 315.715 457.184 314.08C457.184 312.445 457.485 311.007 458.086 309.768C458.695 308.529 459.564 307.564 460.693 306.875C461.823 306.178 463.179 305.83 464.763 305.83C466.347 305.83 467.704 306.178 468.833 306.875C469.97 307.564 470.839 308.529 471.44 309.768C472.049 311.007 472.353 312.445 472.353 314.08C472.353 315.715 472.049 317.153 471.44 318.392C470.839 319.631 469.97 320.599 468.833 321.296C467.704 321.985 466.347 322.33 464.763 322.33ZM464.763 319.833C465.827 319.84 466.71 319.606 467.414 319.129C468.126 318.652 468.657 317.981 469.009 317.116C469.369 316.251 469.548 315.239 469.548 314.08C469.548 312.921 469.369 311.917 469.009 311.066C468.657 310.208 468.126 309.541 467.414 309.064C466.71 308.587 465.827 308.342 464.763 308.327C463.7 308.32 462.816 308.554 462.112 309.031C461.408 309.508 460.877 310.179 460.517 311.044C460.165 311.909 459.989 312.921 459.989 314.08C459.989 315.239 460.165 316.247 460.517 317.105C460.869 317.956 461.397 318.619 462.101 319.096C462.813 319.573 463.7 319.818 464.763 319.833ZM480.923 322.33C479.662 322.33 478.551 322.073 477.59 321.56C476.637 321.047 475.889 320.324 475.346 319.393C474.811 318.462 474.543 317.369 474.543 316.115V306.182L477.227 306.16V316.049C477.227 316.643 477.326 317.175 477.524 317.644C477.729 318.113 478.004 318.513 478.349 318.843C478.694 319.166 479.09 319.411 479.537 319.58C479.984 319.749 480.446 319.833 480.923 319.833C481.414 319.833 481.88 319.749 482.32 319.58C482.767 319.404 483.163 319.155 483.508 318.832C483.853 318.502 484.124 318.102 484.322 317.633C484.52 317.164 484.619 316.636 484.619 316.049V306.16H487.303V316.115C487.303 317.369 487.032 318.462 486.489 319.393C485.954 320.324 485.206 321.047 484.245 321.56C483.292 322.073 482.184 322.33 480.923 322.33ZM490.377 322V306.16H496.922C497.076 306.16 497.274 306.167 497.516 306.182C497.758 306.189 497.982 306.211 498.187 306.248C499.104 306.387 499.859 306.692 500.453 307.161C501.054 307.63 501.498 308.224 501.784 308.943C502.077 309.654 502.224 310.446 502.224 311.319C502.224 312.61 501.898 313.721 501.245 314.652C500.592 315.576 499.591 316.148 498.242 316.368L497.109 316.467H493.028V322H490.377ZM499.474 322L496.35 315.554L499.045 314.96L502.477 322H499.474ZM493.028 313.992H496.812C496.959 313.992 497.124 313.985 497.307 313.97C497.49 313.955 497.659 313.926 497.813 313.882C498.253 313.772 498.598 313.578 498.847 313.299C499.104 313.02 499.283 312.705 499.386 312.353C499.496 312.001 499.551 311.656 499.551 311.319C499.551 310.982 499.496 310.637 499.386 310.285C499.283 309.926 499.104 309.607 498.847 309.328C498.598 309.049 498.253 308.855 497.813 308.745C497.659 308.701 497.49 308.675 497.307 308.668C497.124 308.653 496.959 308.646 496.812 308.646H493.028V313.992ZM511.041 322.33C509.457 322.33 508.1 321.985 506.971 321.296C505.841 320.599 504.972 319.631 504.364 318.392C503.762 317.153 503.462 315.715 503.462 314.08C503.462 312.445 503.762 311.007 504.364 309.768C504.972 308.529 505.841 307.564 506.971 306.875C508.1 306.178 509.457 305.83 511.041 305.83C512.867 305.83 514.388 306.288 515.606 307.205C516.823 308.114 517.677 309.343 518.169 310.89L515.496 311.627C515.188 310.593 514.663 309.786 513.923 309.207C513.182 308.62 512.221 308.327 511.041 308.327C509.977 308.327 509.09 308.565 508.379 309.042C507.675 309.519 507.143 310.19 506.784 311.055C506.432 311.913 506.252 312.921 506.245 314.08C506.245 315.239 506.421 316.251 506.773 317.116C507.132 317.974 507.667 318.641 508.379 319.118C509.09 319.595 509.977 319.833 511.041 319.833C512.221 319.833 513.182 319.54 513.923 318.953C514.663 318.366 515.188 317.56 515.496 316.533L518.169 317.27C517.677 318.817 516.823 320.049 515.606 320.966C514.388 321.875 512.867 322.33 511.041 322.33ZM520.584 322V306.16H530.814V308.646H523.235V312.551H529.494V315.037H523.235V319.514H530.814V322H520.584ZM539.166 322.33C538.007 322.33 536.962 322.128 536.031 321.725C535.107 321.322 534.344 320.746 533.743 319.998C533.149 319.243 532.771 318.348 532.61 317.314L535.36 316.896C535.594 317.835 536.075 318.561 536.801 319.074C537.534 319.587 538.377 319.844 539.331 319.844C539.895 319.844 540.427 319.756 540.926 319.58C541.424 319.404 541.828 319.147 542.136 318.81C542.451 318.473 542.609 318.058 542.609 317.567C542.609 317.347 542.572 317.145 542.499 316.962C542.425 316.771 542.315 316.603 542.169 316.456C542.029 316.309 541.846 316.177 541.619 316.06C541.399 315.935 541.142 315.829 540.849 315.741L536.757 314.531C536.405 314.428 536.023 314.293 535.613 314.124C535.209 313.948 534.824 313.71 534.458 313.409C534.098 313.101 533.801 312.712 533.567 312.243C533.339 311.766 533.226 311.18 533.226 310.483C533.226 309.464 533.482 308.609 533.996 307.92C534.516 307.223 535.213 306.703 536.086 306.358C536.966 306.013 537.941 305.845 539.012 305.852C540.097 305.859 541.065 306.046 541.916 306.413C542.766 306.772 543.478 307.297 544.05 307.986C544.622 308.675 545.025 309.508 545.26 310.483L542.411 310.978C542.293 310.421 542.066 309.948 541.729 309.559C541.399 309.163 540.992 308.862 540.508 308.657C540.031 308.452 539.521 308.342 538.979 308.327C538.451 308.32 537.959 308.4 537.505 308.569C537.057 308.73 536.694 308.965 536.416 309.273C536.144 309.581 536.009 309.94 536.009 310.351C536.009 310.74 536.126 311.059 536.361 311.308C536.595 311.55 536.885 311.744 537.23 311.891C537.582 312.03 537.937 312.148 538.297 312.243L541.135 313.035C541.523 313.138 541.96 313.277 542.444 313.453C542.928 313.629 543.393 313.875 543.841 314.19C544.288 314.505 544.655 314.92 544.941 315.433C545.234 315.946 545.381 316.599 545.381 317.391C545.381 318.212 545.208 318.935 544.864 319.558C544.526 320.174 544.068 320.687 543.489 321.098C542.909 321.509 542.246 321.817 541.498 322.022C540.757 322.227 539.98 322.33 539.166 322.33ZM122.436 353V337.16H125.087V343.826H132.589V337.16H135.229V353H132.589V346.312H125.087V353H122.436ZM137.212 353L142.206 337.16H146.089L151.083 353H148.355L143.823 338.788H144.417L139.94 353H137.212ZM139.995 349.568V347.093H148.311V349.568H139.995ZM155.089 353L150.095 337.16H152.823L157.003 350.426L161.238 337.16H163.966L158.972 353H155.089ZM165.619 353V337.16H175.849V339.646H168.27V343.551H174.529V346.037H168.27V350.514H175.849V353H165.619ZM186.699 353V339.646H181.573V337.16H194.476V339.646H189.35V353H186.699ZM202.933 353.33C201.349 353.33 199.993 352.985 198.863 352.296C197.734 351.599 196.865 350.631 196.256 349.392C195.655 348.153 195.354 346.715 195.354 345.08C195.354 343.445 195.655 342.007 196.256 340.768C196.865 339.529 197.734 338.564 198.863 337.875C199.993 337.178 201.349 336.83 202.933 336.83C204.517 336.83 205.874 337.178 207.003 337.875C208.14 338.564 209.009 339.529 209.61 340.768C210.219 342.007 210.523 343.445 210.523 345.08C210.523 346.715 210.219 348.153 209.61 349.392C209.009 350.631 208.14 351.599 207.003 352.296C205.874 352.985 204.517 353.33 202.933 353.33ZM202.933 350.833C203.997 350.84 204.88 350.606 205.584 350.129C206.296 349.652 206.827 348.981 207.179 348.116C207.539 347.251 207.718 346.239 207.718 345.08C207.718 343.921 207.539 342.917 207.179 342.066C206.827 341.208 206.296 340.541 205.584 340.064C204.88 339.587 203.997 339.342 202.933 339.327C201.87 339.32 200.986 339.554 200.282 340.031C199.578 340.508 199.047 341.179 198.687 342.044C198.335 342.909 198.159 343.921 198.159 345.08C198.159 346.239 198.335 347.247 198.687 348.105C199.039 348.956 199.567 349.619 200.271 350.096C200.983 350.573 201.87 350.818 202.933 350.833ZM222.98 353.33C221.821 353.33 220.776 353.128 219.845 352.725C218.921 352.322 218.158 351.746 217.557 350.998C216.963 350.243 216.585 349.348 216.424 348.314L219.174 347.896C219.409 348.835 219.889 349.561 220.615 350.074C221.348 350.587 222.192 350.844 223.145 350.844C223.71 350.844 224.241 350.756 224.74 350.58C225.239 350.404 225.642 350.147 225.95 349.81C226.265 349.473 226.423 349.058 226.423 348.567C226.423 348.347 226.386 348.145 226.313 347.962C226.24 347.771 226.13 347.603 225.983 347.456C225.844 347.309 225.66 347.177 225.433 347.06C225.213 346.935 224.956 346.829 224.663 346.741L220.571 345.531C220.219 345.428 219.838 345.293 219.427 345.124C219.024 344.948 218.639 344.71 218.272 344.409C217.913 344.101 217.616 343.712 217.381 343.243C217.154 342.766 217.04 342.18 217.04 341.483C217.04 340.464 217.297 339.609 217.81 338.92C218.331 338.223 219.027 337.703 219.9 337.358C220.78 337.013 221.755 336.845 222.826 336.852C223.911 336.859 224.879 337.046 225.73 337.413C226.581 337.772 227.292 338.297 227.864 338.986C228.436 339.675 228.839 340.508 229.074 341.483L226.225 341.978C226.108 341.421 225.88 340.948 225.543 340.559C225.213 340.163 224.806 339.862 224.322 339.657C223.845 339.452 223.336 339.342 222.793 339.327C222.265 339.32 221.774 339.4 221.319 339.569C220.872 339.73 220.509 339.965 220.23 340.273C219.959 340.581 219.823 340.94 219.823 341.351C219.823 341.74 219.94 342.059 220.175 342.308C220.41 342.55 220.699 342.744 221.044 342.891C221.396 343.03 221.752 343.148 222.111 343.243L224.949 344.035C225.338 344.138 225.774 344.277 226.258 344.453C226.742 344.629 227.208 344.875 227.655 345.19C228.102 345.505 228.469 345.92 228.755 346.433C229.048 346.946 229.195 347.599 229.195 348.391C229.195 349.212 229.023 349.935 228.678 350.558C228.341 351.174 227.882 351.687 227.303 352.098C226.724 352.509 226.06 352.817 225.312 353.022C224.571 353.227 223.794 353.33 222.98 353.33ZM231.576 353V337.16H234.227V343.826H241.729V337.16H244.369V353H241.729V346.312H234.227V353H231.576ZM246.353 353L251.347 337.16H255.23L260.224 353H257.496L252.964 338.788H253.558L249.081 353H246.353ZM249.136 349.568V347.093H257.452V349.568H249.136ZM262.213 353V337.16H268.758C268.912 337.16 269.11 337.167 269.352 337.182C269.594 337.189 269.818 337.211 270.023 337.248C270.94 337.387 271.695 337.692 272.289 338.161C272.89 338.63 273.334 339.224 273.62 339.943C273.913 340.654 274.06 341.446 274.06 342.319C274.06 343.61 273.734 344.721 273.081 345.652C272.428 346.576 271.427 347.148 270.078 347.368L268.945 347.467H264.864V353H262.213ZM271.31 353L268.186 346.554L270.881 345.96L274.313 353H271.31ZM264.864 344.992H268.648C268.795 344.992 268.96 344.985 269.143 344.97C269.326 344.955 269.495 344.926 269.649 344.882C270.089 344.772 270.434 344.578 270.683 344.299C270.94 344.02 271.119 343.705 271.222 343.353C271.332 343.001 271.387 342.656 271.387 342.319C271.387 341.982 271.332 341.637 271.222 341.285C271.119 340.926 270.94 340.607 270.683 340.328C270.434 340.049 270.089 339.855 269.649 339.745C269.495 339.701 269.326 339.675 269.143 339.668C268.96 339.653 268.795 339.646 268.648 339.646H264.864V344.992ZM276.736 353V337.16H286.966V339.646H279.387V343.551H285.646V346.037H279.387V350.514H286.966V353H276.736ZM297.354 353L292.723 337.16H295.506L298.663 348.6L301.809 337.182L304.592 337.16L307.749 348.6L310.895 337.16H313.678L309.058 353H306.44L303.195 341.736L299.972 353H297.354ZM315.693 353V337.16H318.344V353H315.693ZM325.445 353V339.646H320.319V337.16H333.222V339.646H328.096V353H325.445ZM334.98 353V337.16H337.631V343.826H345.133V337.16H347.773V353H345.133V346.312H337.631V353H334.98ZM355.262 353V337.16H361.807C361.961 337.16 362.159 337.167 362.401 337.182C362.643 337.189 362.866 337.211 363.072 337.248C363.988 337.387 364.744 337.692 365.338 338.161C365.939 338.63 366.383 339.224 366.669 339.943C366.962 340.654 367.109 341.446 367.109 342.319C367.109 343.184 366.962 343.976 366.669 344.695C366.375 345.406 365.928 345.997 365.327 346.466C364.733 346.935 363.981 347.24 363.072 347.379C362.866 347.408 362.639 347.43 362.39 347.445C362.148 347.46 361.953 347.467 361.807 347.467H357.913V353H355.262ZM357.913 344.992H361.697C361.843 344.992 362.008 344.985 362.192 344.97C362.375 344.955 362.544 344.926 362.698 344.882C363.138 344.772 363.482 344.578 363.732 344.299C363.988 344.02 364.168 343.705 364.271 343.353C364.381 343.001 364.436 342.656 364.436 342.319C364.436 341.982 364.381 341.637 364.271 341.285C364.168 340.926 363.988 340.607 363.732 340.328C363.482 340.049 363.138 339.855 362.698 339.745C362.544 339.701 362.375 339.675 362.192 339.668C362.008 339.653 361.843 339.646 361.697 339.646H357.913V344.992ZM376.011 353.33C374.427 353.33 373.071 352.985 371.941 352.296C370.812 351.599 369.943 350.631 369.334 349.392C368.733 348.153 368.432 346.715 368.432 345.08C368.432 343.445 368.733 342.007 369.334 340.768C369.943 339.529 370.812 338.564 371.941 337.875C373.071 337.178 374.427 336.83 376.011 336.83C377.595 336.83 378.952 337.178 380.081 337.875C381.218 338.564 382.087 339.529 382.688 340.768C383.297 342.007 383.601 343.445 383.601 345.08C383.601 346.715 383.297 348.153 382.688 349.392C382.087 350.631 381.218 351.599 380.081 352.296C378.952 352.985 377.595 353.33 376.011 353.33ZM376.011 350.833C377.075 350.84 377.958 350.606 378.662 350.129C379.374 349.652 379.905 348.981 380.257 348.116C380.617 347.251 380.796 346.239 380.796 345.08C380.796 343.921 380.617 342.917 380.257 342.066C379.905 341.208 379.374 340.541 378.662 340.064C377.958 339.587 377.075 339.342 376.011 339.327C374.948 339.32 374.064 339.554 373.36 340.031C372.656 340.508 372.125 341.179 371.765 342.044C371.413 342.909 371.237 343.921 371.237 345.08C371.237 346.239 371.413 347.247 371.765 348.105C372.117 348.956 372.645 349.619 373.349 350.096C374.061 350.573 374.948 350.818 376.011 350.833ZM392.49 353.33C390.906 353.33 389.549 352.985 388.42 352.296C387.291 351.599 386.422 350.631 385.813 349.392C385.212 348.153 384.911 346.715 384.911 345.08C384.911 343.445 385.212 342.007 385.813 340.768C386.422 339.529 387.291 338.564 388.42 337.875C389.549 337.178 390.906 336.83 392.49 336.83C394.074 336.83 395.431 337.178 396.56 337.875C397.697 338.564 398.566 339.529 399.167 340.768C399.776 342.007 400.08 343.445 400.08 345.08C400.08 346.715 399.776 348.153 399.167 349.392C398.566 350.631 397.697 351.599 396.56 352.296C395.431 352.985 394.074 353.33 392.49 353.33ZM392.49 350.833C393.553 350.84 394.437 350.606 395.141 350.129C395.852 349.652 396.384 348.981 396.736 348.116C397.095 347.251 397.275 346.239 397.275 345.08C397.275 343.921 397.095 342.917 396.736 342.066C396.384 341.208 395.852 340.541 395.141 340.064C394.437 339.587 393.553 339.342 392.49 339.327C391.427 339.32 390.543 339.554 389.839 340.031C389.135 340.508 388.603 341.179 388.244 342.044C387.892 342.909 387.716 343.921 387.716 345.08C387.716 346.239 387.892 347.247 388.244 348.105C388.596 348.956 389.124 349.619 389.828 350.096C390.539 350.573 391.427 350.818 392.49 350.833ZM402.269 353V337.16H408.814C408.968 337.16 409.166 337.167 409.408 337.182C409.65 337.189 409.874 337.211 410.079 337.248C410.996 337.387 411.751 337.692 412.345 338.161C412.947 338.63 413.39 339.224 413.676 339.943C413.97 340.654 414.116 341.446 414.116 342.319C414.116 343.61 413.79 344.721 413.137 345.652C412.485 346.576 411.484 347.148 410.134 347.368L409.001 347.467H404.92V353H402.269ZM411.366 353L408.242 346.554L410.937 345.96L414.369 353H411.366ZM404.92 344.992H408.704C408.851 344.992 409.016 344.985 409.199 344.97C409.383 344.955 409.551 344.926 409.705 344.882C410.145 344.772 410.49 344.578 410.739 344.299C410.996 344.02 411.176 343.705 411.278 343.353C411.388 343.001 411.443 342.656 411.443 342.319C411.443 341.982 411.388 341.637 411.278 341.285C411.176 340.926 410.996 340.607 410.739 340.328C410.49 340.049 410.145 339.855 409.705 339.745C409.551 339.701 409.383 339.675 409.199 339.668C409.016 339.653 408.851 339.646 408.704 339.646H404.92V344.992ZM427.896 353.33C426.312 353.33 424.956 352.985 423.826 352.296C422.697 351.599 421.828 350.631 421.219 349.392C420.618 348.153 420.317 346.715 420.317 345.08C420.317 343.445 420.618 342.007 421.219 340.768C421.828 339.529 422.697 338.564 423.826 337.875C424.956 337.178 426.312 336.83 427.896 336.83C429.48 336.83 430.837 337.178 431.966 337.875C433.103 338.564 433.972 339.529 434.573 340.768C435.182 342.007 435.486 343.445 435.486 345.08C435.486 346.715 435.182 348.153 434.573 349.392C433.972 350.631 433.103 351.599 431.966 352.296C430.837 352.985 429.48 353.33 427.896 353.33ZM427.896 350.833C428.96 350.84 429.843 350.606 430.547 350.129C431.259 349.652 431.79 348.981 432.142 348.116C432.502 347.251 432.681 346.239 432.681 345.08C432.681 343.921 432.502 342.917 432.142 342.066C431.79 341.208 431.259 340.541 430.547 340.064C429.843 339.587 428.96 339.342 427.896 339.327C426.833 339.32 425.949 339.554 425.245 340.031C424.541 340.508 424.01 341.179 423.65 342.044C423.298 342.909 423.122 343.921 423.122 345.08C423.122 346.239 423.298 347.247 423.65 348.105C424.002 348.956 424.53 349.619 425.234 350.096C425.946 350.573 426.833 350.818 427.896 350.833ZM437.676 353V337.16H440.36L447.708 348.325V337.16H450.392V353H447.708L440.36 341.835V353H437.676ZM453.467 353V337.16H463.697V339.646H456.118V343.551H462.377V346.037H456.118V350.514H463.697V353H453.467ZM472.049 353.33C470.89 353.33 469.845 353.128 468.914 352.725C467.99 352.322 467.227 351.746 466.626 350.998C466.032 350.243 465.654 349.348 465.493 348.314L468.243 347.896C468.477 348.835 468.958 349.561 469.684 350.074C470.417 350.587 471.26 350.844 472.214 350.844C472.778 350.844 473.31 350.756 473.809 350.58C474.307 350.404 474.711 350.147 475.019 349.81C475.334 349.473 475.492 349.058 475.492 348.567C475.492 348.347 475.455 348.145 475.382 347.962C475.308 347.771 475.198 347.603 475.052 347.456C474.912 347.309 474.729 347.177 474.502 347.06C474.282 346.935 474.025 346.829 473.732 346.741L469.64 345.531C469.288 345.428 468.906 345.293 468.496 345.124C468.092 344.948 467.707 344.71 467.341 344.409C466.981 344.101 466.684 343.712 466.45 343.243C466.222 342.766 466.109 342.18 466.109 341.483C466.109 340.464 466.365 339.609 466.879 338.92C467.399 338.223 468.096 337.703 468.969 337.358C469.849 337.013 470.824 336.845 471.895 336.852C472.98 336.859 473.948 337.046 474.799 337.413C475.649 337.772 476.361 338.297 476.933 338.986C477.505 339.675 477.908 340.508 478.143 341.483L475.294 341.978C475.176 341.421 474.949 340.948 474.612 340.559C474.282 340.163 473.875 339.862 473.391 339.657C472.914 339.452 472.404 339.342 471.862 339.327C471.334 339.32 470.842 339.4 470.388 339.569C469.94 339.73 469.577 339.965 469.299 340.273C469.027 340.581 468.892 340.94 468.892 341.351C468.892 341.74 469.009 342.059 469.244 342.308C469.478 342.55 469.768 342.744 470.113 342.891C470.465 343.03 470.82 343.148 471.18 343.243L474.018 344.035C474.406 344.138 474.843 344.277 475.327 344.453C475.811 344.629 476.276 344.875 476.724 345.19C477.171 345.505 477.538 345.92 477.824 346.433C478.117 346.946 478.264 347.599 478.264 348.391C478.264 349.212 478.091 349.935 477.747 350.558C477.409 351.174 476.951 351.687 476.372 352.098C475.792 352.509 475.129 352.817 474.381 353.022C473.64 353.227 472.863 353.33 472.049 353.33Z" fill="white"></path> <path d="M327.857 82.4177C327.857 82.4177 325.525 81.018 323.347 83.5063C323.347 83.5063 319.46 77.982 302.975 82.7659C302.975 82.7659 305.152 86.9276 306.708 86.9276C308.263 86.9276 303.753 94.0812 299.554 93.7701C299.554 93.7701 292.4 104.189 297.843 114.298C303.208 124.261 307.062 127.425 312.383 120.963C312.546 120.763 312.728 120.578 312.927 120.413C314.457 119.151 321.232 113.904 323.633 117.816C324.144 118.685 324.291 119.722 324.04 120.698C322.944 125.289 317.819 142.195 302.975 135.448C302.975 135.448 285.677 128.961 289.757 113.593C290.193 112.03 290.826 110.528 291.64 109.125C292.425 107.69 292.908 106.111 293.061 104.484C293.214 102.856 293.033 101.214 292.529 99.659C291.904 97.4419 290.493 95.5281 288.56 94.2747C286.686 93.1059 284.216 92.5834 282.345 95.8517C281.571 97.2113 281.162 98.7487 281.16 100.313C281.157 101.746 281.423 103.502 282.603 104.345L281.16 107.144C280.376 105.548 279.372 104.068 278.179 102.749C276.181 100.725 274.897 98.1044 274.523 95.2851C273.994 90.8126 274.63 84.1348 279.959 76.3527C279.959 76.3527 287.113 62.0455 300.487 62.3566C313.861 62.6676 325.369 66.2443 327.857 82.4177Z" fill="white"></path> <path d="M305.463 101.079C307.786 100.548 310.173 100.351 312.552 100.495C313.75 100.555 314.939 100.735 316.101 101.034C317.286 101.288 318.388 101.839 319.304 102.635C318.247 102.144 317.119 101.826 315.961 101.693C314.818 101.529 313.664 101.409 312.501 101.357C310.175 101.213 307.838 101.202 305.463 101.079ZM327.857 100.857C327.006 101.116 326.219 101.55 325.546 102.131C325.227 102.394 324.967 102.721 324.783 103.092C324.599 103.462 324.496 103.867 324.479 104.281C324.541 105.128 324.764 105.957 325.134 106.722L326.151 109.222C326.909 110.914 327.35 112.731 327.451 114.582C327.45 115.069 327.36 115.553 327.187 116.009C327.001 116.47 326.697 116.875 326.305 117.181C325.509 117.683 324.569 117.906 323.632 117.816C324.51 117.742 325.346 117.407 326.034 116.856C326.316 116.555 326.529 116.196 326.657 115.804C326.785 115.412 326.826 114.997 326.777 114.587C326.71 113.721 326.534 112.867 326.254 112.045C325.993 111.203 325.68 110.369 325.347 109.538C325.028 108.701 324.682 107.868 324.371 107.011C324.222 106.578 324.071 106.146 323.954 105.689C323.809 105.218 323.759 104.721 323.809 104.23C323.861 103.742 324.02 103.271 324.275 102.851C324.53 102.431 324.875 102.072 325.284 101.801C326.054 101.286 326.936 100.962 327.857 100.857Z" fill="white"></path> <path d="M327.855 82.418C328.147 84.1611 328.363 85.9135 328.505 87.6754C328.667 89.4345 328.767 91.1987 328.805 92.9682C328.833 94.7376 328.807 96.5102 328.668 98.284C328.587 100.092 328.183 101.871 327.476 103.537C327.466 103.558 327.452 103.577 327.437 103.594C326.891 104.181 326.379 104.799 325.902 105.445C325.666 105.768 325.455 106.109 325.273 106.466C325.071 106.813 324.989 107.218 325.043 107.616C324.918 107.215 324.94 106.783 325.106 106.397C325.249 106.008 325.423 105.631 325.627 105.27C326.033 104.55 326.502 103.867 327.029 103.231L326.991 103.287C327.292 102.491 327.493 101.661 327.588 100.816C327.723 99.963 327.777 99.0922 327.842 98.2243C327.944 96.4822 327.962 94.7296 327.972 92.976C327.972 89.4662 327.895 85.9499 327.855 82.418ZM318.524 112.898C318.36 113.236 318.228 113.588 318.128 113.95C318.027 114.284 318.005 114.638 318.064 114.982C318.112 115.323 318.261 115.642 318.492 115.898C318.736 116.181 319.007 116.439 319.302 116.668C319.114 116.612 318.929 116.546 318.748 116.47C318.571 116.373 318.405 116.258 318.252 116.128C317.931 115.85 317.715 115.471 317.638 115.054C317.584 114.64 317.645 114.22 317.817 113.839C317.976 113.475 318.219 113.153 318.524 112.898ZM282.601 104.345C283.139 105.021 283.569 105.776 283.874 106.584C284.037 106.997 284.156 107.426 284.227 107.864C284.265 108.094 284.28 108.326 284.272 108.559L284.268 108.738L284.278 108.835C284.274 108.898 284.288 108.962 284.318 109.017C284.451 109.302 284.687 109.526 284.978 109.644C285.323 109.821 285.687 109.959 286.063 110.055C286.862 110.271 287.683 110.39 288.511 110.41C287.694 110.73 286.808 110.836 285.939 110.718C285.485 110.672 285.041 110.558 284.621 110.38C284.373 110.284 284.148 110.14 283.956 109.957C283.765 109.773 283.612 109.554 283.506 109.311C283.45 109.174 283.423 109.027 283.426 108.88L283.423 108.661L283.429 108.525C283.439 108.337 283.435 108.148 283.417 107.961C283.382 107.562 283.32 107.167 283.23 106.777C283.054 105.978 282.822 105.175 282.601 104.345ZM281.158 107.144C280.811 108.402 280.322 109.616 279.7 110.763C279.091 111.927 278.356 113.021 277.507 114.024C276.659 115.046 275.653 115.926 274.526 116.63C273.397 117.33 272.105 117.723 270.777 117.77C271.992 117.405 273.134 116.83 274.15 116.07C275.145 115.305 276.05 114.431 276.85 113.464C277.671 112.498 278.43 111.481 279.123 110.42C279.82 109.353 280.512 108.271 281.158 107.144ZM292.554 143.534C293.536 143.104 294.466 142.56 295.323 141.914C296.173 141.279 296.98 140.588 297.737 139.844C298.518 139.123 299.218 138.317 299.946 137.527L301.005 136.305C301.349 135.888 301.693 135.468 302.073 135.065C301.856 135.569 301.604 136.056 301.353 136.547C301.069 137.015 300.789 137.49 300.477 137.943C299.846 138.851 299.129 139.696 298.336 140.467C297.539 141.243 296.649 141.919 295.687 142.478C294.734 143.057 293.663 143.418 292.554 143.534Z" fill="white"></path> <path d="M276.998 113.744C276.224 112.597 275.267 111.585 274.164 110.749C273.935 110.546 273.657 110.406 273.358 110.343C273.058 110.279 272.747 110.294 272.455 110.387C271.939 110.737 271.569 111.264 271.414 111.867C271.202 112.511 271.049 113.174 270.957 113.846C270.91 114.18 270.869 114.527 270.839 114.849C270.841 115.155 270.868 115.515 270.899 115.849C271.032 117.22 271.287 118.577 271.658 119.904C272.343 122.604 273.406 125.193 274.817 127.595C276.246 129.995 277.955 132.218 279.909 134.215C280.889 135.206 281.907 136.16 282.941 137.089C284.014 137.975 285.04 138.926 286.157 139.739C286.696 140.174 287.29 140.528 287.853 140.926C288.449 141.269 289.021 141.658 289.642 141.949C290.841 142.601 292.117 143.101 293.439 143.437C296.081 144.138 298.888 143.843 301.327 142.609C303.778 141.301 305.836 139.365 307.291 136.998C307.296 136.988 307.305 136.98 307.316 136.977C307.327 136.973 307.339 136.974 307.349 136.98C307.359 136.986 307.366 136.995 307.369 137.005C307.373 137.016 307.372 137.027 307.368 137.038C306.103 139.607 304.114 141.751 301.646 143.205C300.382 143.922 298.992 144.388 297.551 144.578C296.106 144.749 294.642 144.656 293.23 144.303C291.828 143.97 290.479 143.446 289.22 142.745C288.578 142.425 287.994 142.012 287.385 141.643C286.812 141.221 286.207 140.842 285.664 140.385C284.526 139.53 283.53 138.532 282.477 137.594C281.939 137.137 281.484 136.591 280.991 136.089C280.516 135.568 280.002 135.085 279.561 134.534C277.72 132.406 276.048 130.137 274.56 127.748C273.045 125.36 271.839 122.79 270.97 120.098C270.545 118.737 270.268 117.333 270.143 115.913C270.119 115.549 270.098 115.209 270.106 114.814C270.147 114.44 270.197 114.092 270.255 113.734C270.369 113.02 270.549 112.318 270.793 111.636C270.903 111.26 271.086 110.91 271.332 110.606C271.579 110.301 271.883 110.049 272.228 109.863C272.616 109.711 273.045 109.703 273.439 109.839C273.797 109.961 274.131 110.144 274.427 110.38C275.514 111.306 276.412 112.433 277.072 113.699C277.075 113.704 277.076 113.709 277.077 113.715C277.078 113.72 277.077 113.726 277.076 113.732C277.074 113.737 277.072 113.742 277.068 113.747C277.065 113.751 277.06 113.755 277.056 113.758C277.046 113.763 277.035 113.764 277.024 113.761C277.014 113.759 277.004 113.752 276.998 113.744ZM236.963 125.495C238.095 125.816 239.123 126.431 239.942 127.277C240.786 128.109 241.461 129.096 241.93 130.185C242.4 131.268 242.664 132.428 242.709 133.607C242.732 134.188 242.702 134.769 242.62 135.344C242.522 135.914 242.371 136.475 242.17 137.018C241.968 136.456 241.877 135.914 241.729 135.384C241.57 134.857 241.475 134.333 241.298 133.831C241.017 132.836 240.671 131.859 240.264 130.908C239.856 129.963 239.378 129.048 238.836 128.173C238.268 127.242 237.642 126.348 236.963 125.495ZM240.926 147.267C241.276 151.3 241.446 155.331 241.554 159.363C241.673 163.394 241.686 167.425 241.678 171.455C241.636 175.485 241.572 179.515 241.401 183.545C241.242 187.574 241.019 191.604 240.615 195.632C240.262 191.599 240.091 187.567 239.983 183.536C239.865 179.505 239.852 175.474 239.862 171.443C239.906 167.413 239.971 163.383 240.142 159.354C240.301 155.324 240.524 151.295 240.926 147.267ZM324.093 120.625C327.421 122.707 330.687 124.875 333.892 127.13C335.496 128.256 337.087 129.402 338.665 130.568L341.013 132.362C341.425 132.671 341.812 133.01 342.173 133.378L342.731 133.96L343.201 134.556C344.418 136.125 345.528 137.775 346.524 139.493C347.527 141.186 348.504 142.891 349.454 144.606C351.331 148.053 353.263 151.46 355.252 154.83C356.247 156.516 357.261 158.191 358.294 159.855L359.838 162.349C360.296 163.165 360.84 163.929 361.461 164.629C362.12 165.274 362.904 165.914 363.585 166.718C364.393 167.559 364.88 168.657 364.96 169.821C364.898 171.014 364.379 172.137 363.509 172.956C363.137 173.332 362.746 173.688 362.338 174.024C361.972 174.318 361.617 174.628 361.269 174.947C360.57 175.589 359.927 176.263 359.273 176.989C358.607 177.725 357.917 178.439 357.218 179.145C355.805 180.555 354.305 181.876 352.727 183.098C351.117 184.344 349.366 185.394 347.508 186.226C346.534 186.638 345.51 186.921 344.463 187.069C343.363 187.232 342.24 187.134 341.184 186.784C341.016 186.733 340.873 186.622 340.782 186.471L340.776 186.461C340.094 185.332 339.348 184.205 338.592 183.103C337.838 181.995 337.048 180.914 336.222 179.86C335.393 178.814 334.507 177.814 333.568 176.865C332.664 175.889 331.557 175.123 330.325 174.622L330.318 174.62C330.297 174.612 330.279 174.597 330.268 174.576C330.257 174.556 330.255 174.532 330.261 174.51C330.267 174.488 330.281 174.469 330.301 174.457C330.32 174.445 330.344 174.441 330.366 174.445C331.712 174.793 332.957 175.454 333.998 176.376C335.066 177.239 336.067 178.183 336.992 179.198C338.85 181.211 340.558 183.358 342.101 185.622L341.693 185.299C343.423 185.652 345.222 185.391 346.78 184.56C348.48 183.749 350.079 182.74 351.542 181.553C353.058 180.376 354.508 179.116 355.884 177.778C356.581 177.112 357.27 176.436 357.936 175.738C358.611 175.028 359.34 174.303 360.101 173.642C360.483 173.309 360.875 172.986 361.28 172.677C361.647 172.371 361.995 172.109 362.302 171.797C362.897 171.285 363.286 170.574 363.396 169.796C363.349 168.989 363.027 168.223 362.484 167.624C361.927 166.908 361.225 166.26 360.543 165.48C360.363 165.277 360.194 165.064 360.039 164.841L359.645 164.175L358.936 162.875L357.551 160.281C356.637 158.548 355.703 156.827 354.75 155.119C352.839 151.704 350.824 148.347 348.642 145.099C346.478 141.856 344.283 138.573 341.939 135.577L341.496 135.023L341.034 134.55C340.717 134.211 340.373 133.899 340.006 133.615L337.722 131.8L333.111 128.18C330.03 125.769 326.988 123.3 323.987 120.772C323.969 120.758 323.957 120.737 323.955 120.714C323.952 120.691 323.958 120.668 323.971 120.649C323.985 120.63 324.005 120.618 324.028 120.613C324.05 120.609 324.074 120.613 324.093 120.625Z" fill="white"></path> <path d="M336.254 149.963C334.664 155.939 333.162 161.93 331.908 167.945C331.262 170.926 330.812 173.946 330.559 176.986C330.473 178.448 330.464 180.061 330.336 181.626C330.211 183.221 329.944 184.801 329.538 186.349C328.584 189.408 327.054 192.257 325.031 194.743C324.096 195.99 323.106 197.195 322.179 198.406C321.733 199.007 321.28 199.604 320.88 200.248C320.45 200.868 320.062 201.521 319.676 202.176C318.154 204.835 316.794 207.583 315.602 210.405C314.345 213.216 313.261 216.104 312.201 219.011C313.55 212.935 315.644 207.05 318.436 201.488C319.157 200.082 319.983 198.732 320.906 197.45C321.822 196.183 322.761 194.974 323.645 193.724C325.505 191.385 326.911 188.719 327.789 185.862C328.179 184.424 328.44 182.954 328.569 181.469C328.714 179.955 328.709 178.477 328.848 176.858C329.173 173.745 329.735 170.661 330.53 167.634C332.055 161.626 333.967 155.724 336.254 149.963ZM404.792 230.891C404.43 230.891 404.083 230.748 403.828 230.493C403.572 230.237 403.428 229.891 403.428 229.529C403.428 229.168 403.571 228.821 403.826 228.565C404.082 228.31 404.428 228.166 404.79 228.166L436.511 228.124H436.513C436.692 228.124 436.869 228.159 437.034 228.227C437.2 228.296 437.35 228.396 437.477 228.522C437.603 228.649 437.704 228.799 437.772 228.964C437.841 229.13 437.876 229.307 437.877 229.486C437.877 229.665 437.842 229.842 437.773 230.007C437.705 230.173 437.605 230.323 437.478 230.45C437.352 230.576 437.201 230.677 437.036 230.745C436.871 230.814 436.694 230.849 436.515 230.849L404.793 230.891H404.792Z" fill="white"></path> <path d="M202.997 229.987L163 230.364L163.026 233.09L203.022 232.712L202.997 229.987Z" fill="white"></path> <path d="M313.859 106.886C314.195 106.874 314.514 106.733 314.747 106.491C314.981 106.249 315.111 105.926 315.111 105.59C315.111 105.254 314.981 104.931 314.747 104.689C314.514 104.447 314.195 104.306 313.859 104.294C313.523 104.306 313.205 104.447 312.972 104.689C312.738 104.931 312.607 105.254 312.607 105.59C312.607 105.926 312.738 106.249 312.972 106.491C313.205 106.733 313.523 106.874 313.859 106.886ZM348.157 241.231C352.738 244.353 357.891 246.535 363.321 247.652C366.016 248.172 368.764 248.369 371.507 248.238C374.243 248.09 376.953 247.631 379.584 246.868C384.84 245.267 389.799 242.818 394.263 239.615C395.384 238.859 396.444 238.015 397.431 237.092C398.417 236.157 399.346 235.163 400.213 234.117C401.946 232.023 403.445 229.746 404.684 227.327L404.597 227.694L404.598 227.685L404.598 227.666C404.6 227.545 404.629 227.427 404.684 227.32C405.755 225.217 406.63 223.02 407.297 220.757C407.961 218.483 408.39 216.148 408.577 213.787L408.581 213.737L408.586 213.705C408.599 213.659 408.584 213.681 408.599 213.766L408.591 213.622C408.964 208.843 408.292 204.04 406.622 199.547C404.916 195.061 402.274 190.99 398.873 187.605C395.511 184.277 391.516 181.657 387.124 179.899C382.733 178.142 378.034 177.282 373.304 177.371C368.575 177.46 363.911 178.496 359.589 180.418C355.267 182.34 351.373 185.109 348.139 188.56C344.896 192.025 342.371 196.098 340.712 200.545C339.059 205.049 338.29 209.83 338.449 214.625C338.45 214.637 338.448 214.65 338.443 214.661C338.439 214.673 338.432 214.683 338.424 214.692C338.415 214.701 338.405 214.708 338.394 214.713C338.383 214.718 338.371 214.721 338.359 214.721C338.335 214.721 338.312 214.713 338.294 214.697C338.277 214.681 338.266 214.66 338.263 214.636C337.684 209.773 338.149 204.842 339.626 200.172C341.115 195.453 343.586 191.103 346.877 187.408C350.177 183.684 354.222 180.695 358.751 178.634C363.289 176.578 368.213 175.513 373.195 175.512C378.145 175.463 383.049 176.457 387.59 178.428C392.13 180.399 396.205 183.304 399.549 186.953C402.86 190.555 405.443 194.764 407.153 199.348C408.861 203.941 409.687 208.814 409.586 213.713L409.578 213.57C409.598 213.68 409.596 213.793 409.572 213.903L409.582 213.821C409.515 216.277 409.193 218.718 408.621 221.106C408.056 223.505 407.228 225.834 406.153 228.051L406.239 227.685L406.239 227.694C406.241 227.816 406.214 227.937 406.16 228.046L406.152 228.062C404.894 230.619 403.321 233.008 401.47 235.175C400.549 236.259 399.564 237.286 398.52 238.252C397.456 239.206 396.324 240.081 395.131 240.868C390.505 244.116 385.358 246.549 379.911 248.061C374.439 249.547 368.689 249.688 363.151 248.471C357.685 247.167 352.546 244.756 348.051 241.385C348.032 241.371 348.018 241.349 348.014 241.325C348.01 241.301 348.015 241.276 348.029 241.256C348.043 241.236 348.064 241.222 348.088 241.217C348.112 241.213 348.137 241.218 348.157 241.231Z" fill="white"></path> <path d="M356.171 181.208C355.922 181.876 355.712 182.554 355.501 183.228C355.294 183.903 355.092 184.578 354.91 185.258C354.708 185.931 354.545 186.616 354.384 187.302L353.858 189.339L353.885 189.169C353.883 189.246 353.868 189.322 353.84 189.394C353.807 189.483 353.757 189.563 353.692 189.632C353.627 189.7 353.549 189.755 353.462 189.792C353.375 189.83 353.282 189.85 353.188 189.851L353.85 189.347C353.467 191.32 352.995 193.262 352.592 195.222C352.223 197.19 351.852 199.159 351.541 201.141C351.217 203.122 350.896 205.104 350.625 207.101C350.315 209.095 350.023 211.097 349.676 213.104C349.494 211.076 349.434 209.039 349.496 207.004C349.531 204.967 349.67 202.934 349.914 200.912C350.168 198.891 350.474 196.872 350.919 194.879C351.121 193.879 351.393 192.892 351.672 191.91C351.953 190.928 352.211 189.94 352.515 188.967L353.177 188.463C353.085 188.464 352.994 188.484 352.91 188.521C352.826 188.558 352.749 188.611 352.686 188.677C352.623 188.744 352.574 188.823 352.541 188.909C352.515 188.979 352.501 189.053 352.499 189.128L352.525 188.957C353.027 187.612 353.491 186.263 354.086 184.957C354.665 183.646 355.363 182.391 356.171 181.208ZM391.433 181.208C392.671 183.339 393.693 185.588 394.485 187.923C394.925 189.078 395.237 190.269 395.617 191.445C395.954 192.632 396.234 193.833 396.543 195.029C397.62 199.844 398.313 204.738 398.613 209.663C398.924 214.578 398.928 219.508 398.625 224.423C398.474 226.877 398.199 229.322 397.964 231.765C397.587 234.195 397.261 236.627 396.828 239.041C396.867 236.582 397.024 234.141 397.111 231.698L397.264 224.376C397.251 223.156 397.245 221.937 397.254 220.719L397.26 218.893L397.195 217.067L397.099 213.418L396.873 209.778C396.584 204.925 396.03 200.091 395.214 195.299L394.513 191.722C394.232 190.541 394.005 189.341 393.672 188.172C393.109 185.795 392.36 183.467 391.433 181.208ZM373.005 229.202C373.567 228.637 374.044 227.995 374.422 227.294C374.413 228.112 374.395 228.92 374.377 229.738C374.259 235.643 374.032 241.548 373.695 247.453C373.359 241.548 373.132 235.643 373.014 229.738C373.014 229.556 373.005 229.384 373.005 229.202ZM373.25 223.36C373.25 223.36 373.85 222.643 374.504 221.698C374.495 222.615 374.486 223.542 374.468 224.46C374.153 224.003 373.736 223.627 373.25 223.36ZM374.568 211.142V212.886L374.54 217.165C373.966 217.212 373.399 217.324 372.851 217.501C372.841 215.957 372.832 214.421 372.823 212.886V211.142C372.86 199.613 373.023 188.094 373.695 176.566C374.359 188.094 374.531 199.613 374.568 211.142Z" fill="white"></path> <path d="M341.477 197.247C346.524 195.004 351.807 193.333 357.226 192.266C362.652 191.157 368.173 190.571 373.711 190.515C376.483 190.433 379.249 190.655 382.014 190.809C383.391 190.963 384.763 191.163 386.137 191.338C386.822 191.434 387.511 191.505 388.193 191.623L390.225 192.059C395.644 193.147 400.91 194.889 405.909 197.247C404.582 196.869 403.266 196.476 401.96 196.069L399.999 195.466C399.344 195.276 398.665 195.16 398 195.004L394.015 194.077C392.676 193.821 391.325 193.627 389.984 193.399L387.971 193.07C387.297 192.981 386.617 192.927 385.941 192.854C384.587 192.723 383.236 192.567 381.882 192.456C379.164 192.356 376.452 192.149 373.731 192.259C368.284 192.306 362.848 192.755 357.467 193.601L353.434 194.3C352.099 194.582 350.754 194.833 349.423 195.142C346.745 195.71 344.105 196.437 341.477 197.247ZM372.888 232.145L381.244 231.067C384.008 230.677 386.766 230.263 389.506 229.766C392.25 229.295 394.983 228.739 397.712 228.153C399.063 227.813 400.426 227.506 401.797 227.205L402.831 226.992L403.847 226.728C404.527 226.554 405.215 226.393 405.911 226.24C405.285 226.564 404.652 226.878 404.01 227.183C403.375 227.498 402.723 227.777 402.057 228.021C400.734 228.518 399.404 229.011 398.062 229.469C395.357 230.318 392.6 230.991 389.809 231.484C384.229 232.513 378.531 232.736 372.888 232.145ZM338.258 212.014C340.047 211.905 341.837 211.814 343.627 211.741C343.139 211.872 342.659 212.033 342.191 212.223C340.874 212.159 339.566 212.087 338.258 212.014ZM409.135 212.014C403.231 212.35 397.326 212.577 391.421 212.695C385.797 212.822 380.183 212.868 374.569 212.886H372.825C372.116 212.886 371.416 212.877 370.708 212.877C370.781 212.123 370.408 211.623 369.354 211.569C368.426 211.543 367.519 211.846 366.792 212.423C366.629 212.55 366.447 212.686 366.238 212.841C360.724 212.804 355.213 212.698 349.704 212.523C349.682 212.327 349.621 212.138 349.524 211.966C349.427 211.794 349.297 211.644 349.141 211.523C357.036 211.251 364.93 211.169 372.825 211.142H374.569C380.183 211.16 385.797 211.205 391.421 211.333C397.326 211.442 403.231 211.669 409.135 212.014Z" fill="white"></path> <path d="M353.193 189.148C353.193 189.15 353.193 189.151 353.193 189.152C353.192 189.153 353.191 189.154 353.191 189.155C353.19 189.156 353.189 189.156 353.188 189.157C353.186 189.157 353.185 189.157 353.184 189.157C352.343 190.746 351.688 192.425 351.231 194.163C351.222 194.181 351.222 194.208 351.213 194.227C350.531 196.852 350.868 197.333 349.968 199.923C349.459 201.385 349.005 202.23 349.26 203.438C349.501 204.199 349.808 204.938 350.177 205.646C350.286 205.873 350.395 206.118 350.522 206.391C351.149 207.772 351.304 208.099 351.167 208.517C350.995 209.025 350.595 209.089 349.859 209.534C349.6 209.686 349.354 209.859 349.123 210.052C348.687 210.38 348.285 210.751 347.924 211.16C345.201 211.132 342.519 211.831 340.157 213.186C339.594 213.504 338.985 213.822 338.331 214.158H338.322C338.295 213.767 338.285 213.377 338.267 212.986C338.258 212.659 338.258 212.341 338.258 212.014C338.252 206.916 339.349 201.877 341.474 197.243L341.483 197.234H341.492C342.347 195.356 343.368 193.559 344.545 191.865C348.497 188.013 352.757 186.014 354.174 186.023C354.328 186.009 354.481 186.055 354.601 186.15C354.919 186.468 354.156 187.34 353.193 189.148ZM409.136 212.014C409.136 212.314 409.136 212.614 409.118 212.914C409.118 213.168 409.1 213.413 409.09 213.668C409.09 213.713 409.081 213.758 409.081 213.804C409.08 214.068 409.065 214.332 409.036 214.594C408.716 219.134 407.516 223.568 405.502 227.649C405.477 227.665 405.449 227.677 405.42 227.685V227.694C405.182 227.807 404.928 227.881 404.666 227.912C404.361 227.943 404.052 227.909 403.761 227.812C403.47 227.715 403.202 227.557 402.977 227.349C402.967 227.34 402.958 227.322 402.94 227.313C402.204 226.504 402.795 225.378 402.559 223.688C402.359 222.289 401.623 221.299 400.16 219.327C399.523 218.422 398.812 217.571 398.035 216.784C397.499 216.266 396.999 215.948 396.645 216.093C396.199 216.293 396.063 217.238 396.227 217.928C396.472 218.964 397.308 219.055 397.489 219.89C397.735 220.99 396.617 222.262 395.663 222.843C395.131 223.201 394.515 223.416 393.875 223.465C393.235 223.514 392.593 223.397 392.011 223.125C390.703 222.361 390.74 220.735 390.04 220.735C389.486 220.744 388.995 221.762 388.914 222.561C388.849 223.061 388.935 223.569 389.16 224.02C389.385 224.472 389.738 224.846 390.176 225.096C391.076 225.477 391.657 224.687 392.711 225.096C393.026 225.2 393.309 225.384 393.53 225.631C393.752 225.878 393.905 226.179 393.974 226.504C394.019 227.367 392.838 228.039 391.303 228.893C389.549 229.865 389.004 229.82 386.942 230.865C386.742 230.965 386.561 231.055 386.388 231.146C385.582 231.517 384.825 231.987 384.135 232.545C382.718 233.708 382.854 234.226 381.464 235.361C380.557 236.204 379.44 236.787 378.23 237.051C377.131 237.233 376.904 236.897 374.996 236.77C374.564 236.738 374.13 236.729 373.697 236.742C372.862 236.753 372.028 236.808 371.199 236.906C370.228 237.002 369.265 237.169 368.319 237.406C373.188 234.925 373.833 231.174 371.807 230.283C371.807 230.283 377.567 225.914 373.252 223.361C373.252 223.361 380.229 215.058 372.352 217.656C371.698 217.88 371.075 218.189 370.499 218.573C370.254 218.728 369.972 218.918 369.654 219.118L368.719 216.738V216.729C370.563 214.222 371.798 211.687 369.355 211.569C368.427 211.544 367.52 211.846 366.793 212.423C366.229 212.85 365.421 213.45 364.403 214.14L362.341 212.014C361.87 211.248 361.581 210.384 361.496 209.489C361.459 208.501 361.627 207.516 361.989 206.597C362.352 205.677 362.902 204.843 363.604 204.147C364.899 202.776 366.556 201.799 368.382 201.331C369.816 200.776 371.363 200.583 372.888 200.768C373.143 200.813 373.415 200.867 373.697 200.94C374.587 201.149 375.505 201.458 375.977 201.612C376.781 201.977 377.636 202.216 378.512 202.321C379.656 202.375 379.974 202.03 380.474 202.321C381.101 202.666 381.001 203.393 381.464 205.128C381.928 206.845 382.309 208.299 383.29 208.644C384.026 208.898 384.426 208.299 385.262 208.644C385.807 208.871 385.807 209.198 386.661 210.052C387.415 210.797 387.796 211.169 388.35 211.315C388.879 211.435 389.431 211.392 389.934 211.191C390.437 210.99 390.867 210.64 391.167 210.188C391.276 209.997 391.475 209.598 391.303 207.944C391.094 205.855 390.994 204.81 390.322 204.147C389.504 203.338 388.868 203.929 386.942 203.302C384.735 202.584 384.898 201.585 382.445 200.631C380.801 199.995 380.365 200.295 379.075 199.505C378.03 198.869 376.704 197.688 376.958 196.97C377.24 196.207 379.057 196.798 379.775 195.707C380.338 194.863 379.557 194.036 380.192 192.891C380.565 192.237 381.337 191.61 381.882 191.774C382.482 191.946 382.255 192.919 383.009 194.163C383.707 195.227 384.749 196.019 385.961 196.407C386.879 196.743 388.014 197.161 388.914 196.552C389.713 196.016 390.158 194.79 389.758 194.163C389.241 193.355 387.669 194.045 387.224 193.318C387.151 193.144 387.114 192.957 387.115 192.768C387.117 192.579 387.157 192.392 387.233 192.219C387.35 191.817 387.565 191.449 387.858 191.15C388.151 190.85 388.514 190.628 388.914 190.502C389.377 190.429 389.849 190.602 392.575 192.891C392.72 193.018 392.865 193.137 392.993 193.246L393.002 193.255C394.446 194.481 394.71 194.754 395.245 194.726C395.423 194.715 395.598 194.675 395.763 194.608C396.051 194.488 396.315 194.319 396.545 194.109C397.187 193.482 397.7 192.735 398.053 191.91C398.516 190.838 398.334 190.402 398.616 190.22C399.27 189.802 401.605 191.201 404.058 193.718C404.745 194.855 405.364 196.032 405.911 197.243C407.693 201.113 408.758 205.274 409.054 209.525C409.081 209.934 409.099 210.352 409.118 210.77C409.127 211.178 409.136 211.596 409.136 212.014ZM305.464 25C305.972 27.0665 306.363 29.1602 306.635 31.2709C306.935 33.3678 307.129 35.4726 307.302 37.5789C307.442 39.6877 307.559 41.7981 307.57 43.9164C307.612 46.0442 307.532 48.1727 307.33 50.2914C306.819 48.2253 306.428 46.1316 306.156 44.0207C305.857 41.9237 305.663 39.819 305.491 37.7125C305.354 35.6035 305.237 33.4931 305.226 31.3748C305.185 29.2471 305.264 27.1187 305.464 25ZM318.563 52.0356C319.047 49.8815 319.65 47.7555 320.366 45.667C321.051 43.5779 321.835 41.5285 322.638 39.4868C323.472 37.4578 324.327 35.4373 325.281 33.4563C326.211 31.4538 327.251 29.5042 328.397 27.6163C327.914 29.7711 327.313 31.8975 326.596 33.986C325.91 36.0749 325.127 38.1243 324.322 40.1651C323.486 42.1933 322.63 44.2138 321.676 46.1946C320.746 48.1968 319.706 50.1467 318.563 52.0356ZM285.558 29.7966C286.683 31.4941 287.706 33.2566 288.622 35.0749C289.56 36.8704 290.401 38.7082 291.223 40.5543C292.014 42.4139 292.784 44.2825 293.457 46.1933C294.161 48.1038 294.751 50.0547 295.223 52.0356C294.096 50.3393 293.072 48.577 292.156 46.7584C291.218 44.9627 290.378 43.1249 289.558 41.2779C288.769 39.4175 287.999 37.5488 287.327 35.6378C286.622 33.7273 286.032 31.7769 285.558 29.7966ZM200.95 177.487C200.138 177.28 199.31 177.136 198.476 177.054C198.081 177.004 197.679 177.044 197.302 177.172C196.945 177.301 197.057 177.693 197.255 178.035C197.716 178.716 198.269 179.331 198.897 179.863C199.509 180.427 200.158 180.964 200.818 181.467C200.877 181.512 200.916 181.579 200.926 181.653C200.936 181.727 200.916 181.802 200.871 181.861C200.84 181.9 200.8 181.93 200.755 181.949C200.709 181.968 200.659 181.975 200.61 181.97C198.891 181.779 197.272 181.067 195.969 179.93C195.309 179.36 194.761 178.671 194.353 177.9C194.138 177.5 193.984 177.069 193.898 176.623C193.847 176.364 193.852 176.097 193.913 175.839C193.958 175.675 194.039 175.522 194.151 175.393C194.186 175.33 194.218 175.309 194.27 175.211C195.028 173.831 195.675 172.271 196.333 170.775L198.266 166.222C198.915 164.7 199.571 163.198 200.127 161.658C200.699 160.118 201.163 158.559 201.7 156.984L203.277 152.277C203.813 150.713 204.47 149.19 205.06 147.646C207.421 141.459 210.444 135.544 214.077 130.007C215.911 127.228 218.077 124.683 220.525 122.427C220.834 122.147 221.136 121.857 221.452 121.584L222.443 120.813C223.1 120.291 223.788 119.809 224.504 119.371C225.941 118.432 227.529 117.748 229.199 117.349L229.106 117.372C231.945 116.526 234.874 116.017 237.832 115.855C240.757 115.617 243.687 115.541 246.612 115.538C249.537 115.54 252.46 115.596 255.381 115.709C258.301 115.847 261.215 116.022 264.132 116.261L263.826 116.365C264.955 115.208 265.995 113.969 266.939 112.658L268.398 110.68C268.864 109.957 269.476 109.339 270.195 108.865C271.688 108.015 273.444 107.749 275.122 108.12C276.761 108.414 278.322 109.041 279.709 109.962C279.715 109.966 279.72 109.97 279.723 109.976C279.727 109.981 279.73 109.987 279.731 109.994C279.732 110 279.732 110.007 279.731 110.014C279.73 110.02 279.727 110.026 279.724 110.032C279.716 110.042 279.704 110.05 279.691 110.052C279.678 110.055 279.664 110.052 279.653 110.046C278.25 109.209 276.692 108.668 275.073 108.456C273.493 108.187 271.869 108.492 270.494 109.314C269.85 109.77 269.31 110.356 268.908 111.035L267.508 113.073C266.577 114.462 265.529 115.768 264.376 116.979C264.34 117.015 264.296 117.043 264.248 117.062C264.2 117.08 264.148 117.088 264.097 117.085L264.07 117.083C261.168 116.906 258.254 116.79 255.345 116.712C252.435 116.62 249.525 116.571 246.617 116.585C243.708 116.593 240.804 116.713 237.912 116.894C235.037 117.018 232.186 117.477 229.417 118.261L229.356 118.277L229.324 118.284C227.779 118.659 226.302 119.274 224.947 120.107C224.244 120.513 223.568 120.963 222.92 121.452L221.938 122.178C221.623 122.436 221.322 122.712 221.013 122.979C220.384 123.5 219.786 124.057 219.221 124.648C218.659 125.242 218.06 125.804 217.527 126.426C216.484 127.69 215.392 128.92 214.476 130.288C210.7 135.696 207.661 141.583 205.441 147.793C204.903 149.352 204.3 150.885 203.817 152.461L202.398 157.195C201.914 158.76 201.503 160.388 200.925 161.945C200.375 163.518 199.724 165.049 199.094 166.571C198.466 168.099 197.791 169.608 197.122 171.121C196.431 172.635 195.801 174.129 194.95 175.633C194.88 175.747 194.801 175.856 194.713 175.957C194.719 176.008 194.676 175.974 194.675 176.056C194.646 176.202 194.645 176.353 194.673 176.499C194.742 176.865 194.865 177.218 195.038 177.548C195.399 178.243 195.877 178.87 196.452 179.402C197.624 180.487 199.099 181.187 200.681 181.41L200.473 181.913C199.808 181.372 199.172 180.814 198.561 180.216C197.927 179.627 197.38 178.949 196.937 178.205C196.823 177.995 196.755 177.764 196.739 177.526C196.739 177.39 196.781 177.257 196.86 177.146C196.938 177.034 197.049 176.95 197.176 176.903C197.604 176.773 198.057 176.746 198.497 176.824C199.337 176.949 200.166 177.138 200.977 177.389C200.983 177.391 200.989 177.394 200.994 177.399C200.999 177.403 201.004 177.408 201.007 177.414C201.01 177.419 201.012 177.426 201.013 177.432C201.014 177.439 201.013 177.446 201.011 177.452C201.007 177.464 200.999 177.475 200.988 177.482C200.976 177.488 200.963 177.49 200.95 177.487Z" fill="white"></path> <path d="M374.429 221.647C374.829 221.054 375.186 220.434 375.497 219.791C375.65 219.474 375.772 219.144 375.862 218.804C375.967 218.491 375.973 218.153 375.879 217.836C375.814 217.699 375.712 217.582 375.585 217.5C375.457 217.418 375.309 217.373 375.157 217.372C374.818 217.333 374.476 217.344 374.141 217.404C373.447 217.53 372.768 217.723 372.112 217.979C371.462 218.255 370.846 218.602 370.273 219.015C369.675 219.417 369.062 219.804 368.443 220.18C367.822 220.553 367.194 220.917 366.542 221.248C365.882 221.61 365.177 221.883 364.446 222.06C364.378 222.074 364.308 222.066 364.245 222.037C364.182 222.008 364.13 221.96 364.096 221.9C364.063 221.839 364.049 221.77 364.057 221.701C364.066 221.633 364.096 221.568 364.143 221.518L364.158 221.502C365.673 219.924 367.085 218.251 368.385 216.493L368.305 216.738L368.304 216.729C368.303 216.645 368.329 216.563 368.378 216.494L368.384 216.485C368.787 215.918 369.172 215.339 369.51 214.747C369.854 214.193 370.101 213.585 370.24 212.949C370.325 212.329 370.126 212.141 369.497 212.052C368.881 211.999 368.263 212.125 367.717 212.415C367.432 212.565 367.162 212.744 366.913 212.95C366.63 213.172 366.342 213.382 366.052 213.588C365.471 213.999 364.906 214.43 364.311 214.824C363.128 215.622 361.92 216.379 360.675 217.08C358.184 218.517 355.531 219.65 352.77 220.456C351.364 220.843 349.923 221.088 348.467 221.185C346.983 221.262 345.496 221.115 344.056 220.747C343.948 220.718 343.849 220.663 343.767 220.586C343.686 220.509 343.625 220.413 343.589 220.307C343.554 220.201 343.546 220.088 343.565 219.978C343.584 219.867 343.631 219.764 343.7 219.676L343.711 219.662L347.16 215.342L348.854 213.216C348.927 213.112 348.976 212.992 348.996 212.867C349.017 212.741 349.008 212.613 348.972 212.491C348.939 212.376 348.881 212.27 348.8 212.182C348.752 212.131 348.699 212.085 348.642 212.044C348.595 212.009 348.544 211.98 348.491 211.957C348.357 211.903 348.214 211.879 348.07 211.886C347.891 211.878 347.636 211.881 347.427 211.885C346.989 211.896 346.551 211.928 346.116 211.978C345.242 212.077 344.382 212.266 343.548 212.544C343.131 212.69 342.721 212.816 342.298 212.975C341.894 213.135 341.496 213.318 341.107 213.518L338.674 214.829C338.574 214.883 338.462 214.911 338.348 214.912L338.329 214.912H338.32L338.661 214.831C334.08 217.119 329.458 219.139 325.099 221.658L323.459 222.614C321.736 223.62 319.856 224.329 317.898 224.711C316.6 224.973 315.278 225.101 313.953 225.094C312.609 225.084 311.356 224.925 310.094 224.833L294.923 223.563L279.756 222.232C269.645 221.357 259.533 220.466 249.417 219.692L245.624 219.443C244.989 219.4 244.365 219.379 243.742 219.361C243.366 219.368 242.994 219.281 242.659 219.109C242.342 218.927 242.069 218.677 241.859 218.377C241.163 217.251 240.709 215.993 240.526 214.682C240.302 213.42 240.149 212.147 240.069 210.868C239.811 205.782 239.9 200.684 240.337 195.611L240.536 195.902C237.044 194.829 233.554 193.725 230.162 192.354C226.755 191.02 223.418 189.512 220.165 187.837C216.914 186.162 213.745 184.326 210.602 182.485C207.457 180.662 204.284 178.836 200.838 177.896L201.436 177.443C201.443 187.494 201.655 197.545 202.073 207.595C202.291 212.615 202.57 217.632 202.981 222.633C203.07 223.885 203.195 225.132 203.312 226.38C203.422 227.63 203.552 228.876 203.703 230.118C203.846 231.365 203.958 232.617 204.188 233.793C204.411 234.982 204.741 236.149 205.175 237.279C206.973 241.822 210.233 245.636 214.44 248.119C216.526 249.375 218.78 250.328 221.134 250.95C222.311 251.263 223.507 251.499 224.715 251.656C225.931 251.806 227.2 251.905 228.44 252.033L232.179 252.391L235.928 252.634C238.426 252.828 240.93 252.882 243.432 252.984C245.934 253.098 248.439 253.052 250.943 253.095C253.446 253.033 255.952 253.042 258.453 252.908C268.467 252.499 278.44 251.376 288.294 249.545C293.212 248.632 298.159 247.591 303.137 246.763C308.113 245.92 313.101 245.213 318.091 244.537C328.069 243.17 338.066 242.01 348.047 240.765C353.033 240.126 358.028 239.501 362.958 238.616L364.792 238.246C365.405 238.125 365.974 237.925 366.569 237.77C367.138 237.547 367.701 237.3 368.259 237.044C368.807 236.767 369.334 236.453 369.839 236.104C370.848 235.43 371.678 234.52 372.255 233.452C372.531 232.939 372.655 232.357 372.612 231.775C372.587 231.501 372.491 231.239 372.334 231.013C372.176 230.788 371.963 230.607 371.715 230.489C371.681 230.474 371.652 230.45 371.629 230.421C371.607 230.391 371.592 230.357 371.586 230.32C371.579 230.283 371.583 230.246 371.594 230.21C371.606 230.175 371.626 230.143 371.653 230.118L371.668 230.104C372.212 229.655 372.731 229.176 373.224 228.67C373.702 228.156 374.099 227.572 374.401 226.938C374.557 226.635 374.651 226.304 374.679 225.965C374.707 225.625 374.668 225.284 374.563 224.96C374.287 224.32 373.803 223.793 373.191 223.462C373.177 223.454 373.166 223.443 373.157 223.431C373.147 223.418 373.141 223.404 373.137 223.389C373.133 223.374 373.132 223.358 373.135 223.343C373.137 223.328 373.142 223.313 373.15 223.3L373.16 223.286L374.429 221.647L374.433 221.641C374.448 221.622 374.469 221.609 374.493 221.606C374.517 221.603 374.541 221.609 374.56 221.624C374.579 221.638 374.591 221.659 374.595 221.683C374.598 221.707 374.592 221.731 374.578 221.75L373.34 223.436L373.309 223.26C373.982 223.605 374.519 224.167 374.832 224.856C374.959 225.215 375.014 225.596 374.994 225.976C374.974 226.357 374.879 226.73 374.715 227.074C374.414 227.75 374.012 228.376 373.523 228.931C373.025 229.47 372.498 229.981 371.943 230.462L371.896 230.077C372.222 230.222 372.504 230.448 372.716 230.734C372.928 231.021 373.062 231.357 373.106 231.711C373.178 232.389 373.054 233.073 372.749 233.683C372.158 234.856 371.288 235.865 370.215 236.622C369.695 237.002 369.149 237.346 368.581 237.652C368.005 237.935 367.42 238.209 366.826 238.459C366.21 238.639 365.591 238.869 364.973 239.007L363.118 239.428C358.158 240.407 353.175 241.117 348.193 241.844L318.303 246.037C313.329 246.765 308.36 247.523 303.425 248.414C300.952 248.83 298.496 249.363 296.036 249.84C293.578 250.348 291.108 250.874 288.626 251.335C278.69 253.204 268.633 254.361 258.533 254.796C248.431 255.251 238.309 254.945 228.254 253.88C226.992 253.743 225.752 253.64 224.473 253.474C223.186 253.3 221.913 253.041 220.661 252.699C218.146 252.019 215.741 250.985 213.518 249.627C208.999 246.92 205.511 242.783 203.605 237.871C203.144 236.649 202.795 235.387 202.561 234.101C202.319 232.804 202.214 231.547 202.081 230.294C201.944 229.037 201.829 227.779 201.736 226.521C201.634 225.263 201.525 224.006 201.451 222.747C201.103 217.715 200.888 212.679 200.734 207.645C200.431 197.574 200.348 187.503 200.487 177.433L200.487 177.424C200.488 177.363 200.501 177.302 200.525 177.245C200.549 177.189 200.585 177.138 200.629 177.095C200.673 177.052 200.725 177.018 200.782 176.995C200.839 176.973 200.9 176.961 200.961 176.962C201.003 176.963 201.045 176.969 201.085 176.98C204.693 178.021 207.882 179.931 211.007 181.797C214.136 183.677 217.245 185.567 220.474 187.244C223.699 188.925 227.008 190.44 230.388 191.784C233.754 193.165 237.222 194.28 240.695 195.367C240.756 195.386 240.809 195.425 240.845 195.478C240.881 195.531 240.898 195.595 240.894 195.659C240.459 200.702 240.394 205.769 240.697 210.822C240.784 212.075 240.942 213.323 241.171 214.559C241.346 215.767 241.765 216.926 242.403 217.966C242.556 218.187 242.757 218.371 242.99 218.506C243.222 218.623 243.48 218.678 243.74 218.667C244.385 218.68 245.029 218.698 245.66 218.736L249.466 218.949C259.604 219.554 269.729 220.267 279.856 220.979L295.043 222.069L310.223 223.259C311.491 223.347 312.762 223.496 313.958 223.496C315.173 223.496 316.385 223.372 317.575 223.126C318.762 222.88 319.92 222.512 321.031 222.027C321.585 221.784 322.126 221.512 322.651 221.211L324.306 220.261C328.759 217.726 333.468 215.704 337.979 213.485L337.989 213.48C338.092 213.43 338.205 213.404 338.32 213.404H338.329L337.984 213.487L340.429 212.191C340.86 211.973 341.303 211.773 341.757 211.596C342.197 211.433 342.669 211.287 343.123 211.134C344.043 210.837 344.99 210.636 345.951 210.533C346.432 210.48 346.914 210.448 347.397 210.44C347.649 210.437 347.855 210.434 348.137 210.446C348.455 210.449 348.77 210.514 349.063 210.639C349.221 210.708 349.37 210.796 349.508 210.9C349.636 210.996 349.756 211.104 349.864 211.222C350.093 211.478 350.26 211.784 350.35 212.115C350.439 212.439 350.455 212.778 350.398 213.108C350.341 213.439 350.211 213.752 350.019 214.027L348.255 216.216L344.775 220.518L344.43 219.434C345.728 219.772 347.068 219.922 348.408 219.878C349.774 219.807 351.128 219.599 352.451 219.256C355.13 218.518 357.711 217.462 360.139 216.111C361.365 215.446 362.563 214.721 363.734 213.959C364.322 213.583 364.887 213.165 365.465 212.771C365.754 212.572 366.04 212.371 366.315 212.162C366.616 211.924 366.941 211.717 367.283 211.544C368 211.181 368.807 211.034 369.606 211.119C370.081 211.152 370.526 211.365 370.849 211.716C370.992 211.91 371.092 212.133 371.142 212.37C371.191 212.606 371.189 212.85 371.135 213.085C370.971 213.831 370.676 214.541 370.265 215.184C369.893 215.802 369.487 216.399 369.049 216.972L369.129 216.729L369.129 216.738L369.129 216.75C369.128 216.835 369.1 216.916 369.048 216.983C367.683 218.738 366.206 220.402 364.627 221.967L364.339 221.409C365.688 221.023 366.975 220.449 368.163 219.703C368.784 219.347 369.399 218.98 370.005 218.593C370.613 218.179 371.265 217.833 371.95 217.563C372.642 217.311 373.357 217.128 374.085 217.015C374.461 216.961 374.843 216.962 375.218 217.019C375.428 217.037 375.628 217.111 375.798 217.235C375.967 217.359 376.1 217.527 376.18 217.721C376.288 218.102 376.274 218.506 376.14 218.878C376.034 219.232 375.895 219.574 375.724 219.901C375.387 220.544 375.004 221.162 374.578 221.75C374.564 221.769 374.543 221.782 374.52 221.786C374.497 221.791 374.472 221.785 374.453 221.772C374.433 221.758 374.42 221.737 374.415 221.714C374.411 221.691 374.415 221.666 374.429 221.647Z" fill="white"></path> <path d="M364.68 222.151C363.309 222.954 361.927 223.695 360.504 224.375C359.097 225.079 357.624 225.641 356.105 226.054C357.558 225.486 358.951 224.775 360.263 223.931C361.585 223.114 362.877 222.231 364.116 221.313L364.123 221.308C364.231 221.228 364.366 221.194 364.498 221.214C364.631 221.234 364.75 221.306 364.83 221.413C364.91 221.521 364.944 221.656 364.924 221.789C364.904 221.922 364.833 222.041 364.725 222.121C364.711 222.132 364.696 222.142 364.68 222.151ZM373.552 223.771C371.204 225.369 368.826 226.9 366.388 228.346C365.167 229.063 363.938 229.768 362.666 230.396C362.035 230.719 361.388 231.01 360.727 231.268C360.4 231.406 360.063 231.518 359.719 231.605C359.379 231.704 359.028 231.758 358.673 231.767C359.024 231.738 359.37 231.663 359.702 231.544C360.037 231.438 360.363 231.307 360.679 231.151C361.318 230.857 361.941 230.531 362.547 230.173C363.77 229.476 364.949 228.703 366.119 227.919C368.451 226.341 370.73 224.672 372.954 222.957L372.959 222.953C373.065 222.871 373.2 222.835 373.333 222.852C373.466 222.869 373.586 222.939 373.668 223.045C373.75 223.151 373.786 223.285 373.769 223.418C373.752 223.551 373.683 223.672 373.577 223.754L373.552 223.771ZM372.133 230.674C371.217 231.344 370.255 231.949 369.254 232.485C368.269 233.023 367.254 233.504 366.214 233.924C364.148 234.773 361.987 235.367 359.778 235.694C361.937 235.206 364.028 234.457 366.005 233.464C366.99 232.976 367.946 232.432 368.867 231.833C369.783 231.249 370.657 230.603 371.484 229.899L371.5 229.885C371.55 229.841 371.609 229.808 371.672 229.787C371.735 229.765 371.802 229.757 371.868 229.761C371.935 229.766 372 229.784 372.059 229.814C372.119 229.843 372.172 229.884 372.215 229.935C372.259 229.985 372.292 230.044 372.313 230.107C372.334 230.17 372.343 230.237 372.338 230.303C372.333 230.37 372.315 230.434 372.285 230.494C372.255 230.553 372.213 230.606 372.163 230.65C372.153 230.658 372.143 230.666 372.133 230.674ZM347.56 192.7C347.485 192.7 347.411 192.681 347.345 192.646C347.279 192.61 347.223 192.559 347.181 192.497L343.259 186.572C343.226 186.523 343.203 186.467 343.192 186.408C343.181 186.35 343.181 186.289 343.193 186.231C343.205 186.172 343.228 186.117 343.261 186.067C343.294 186.018 343.337 185.975 343.387 185.942C343.437 185.909 343.492 185.887 343.551 185.875C343.61 185.864 343.67 185.864 343.728 185.876C343.787 185.888 343.842 185.911 343.892 185.944C343.941 185.978 343.984 186.02 344.017 186.07L347.939 191.995C348.005 192.095 348.029 192.218 348.005 192.336C347.981 192.454 347.912 192.558 347.811 192.624C347.737 192.674 347.65 192.7 347.56 192.7ZM367.755 177.892C367.68 177.892 367.606 177.874 367.54 177.838C367.474 177.803 367.417 177.752 367.376 177.689L363.453 171.765C363.42 171.715 363.397 171.659 363.386 171.601C363.374 171.542 363.374 171.482 363.386 171.423C363.398 171.365 363.421 171.309 363.455 171.26C363.488 171.21 363.531 171.168 363.581 171.135C363.63 171.102 363.686 171.079 363.745 171.067C363.803 171.056 363.864 171.056 363.922 171.068C363.981 171.08 364.036 171.103 364.086 171.137C364.135 171.17 364.178 171.213 364.211 171.262L368.134 177.187C368.179 177.255 368.205 177.335 368.209 177.417C368.213 177.499 368.194 177.581 368.155 177.653C368.116 177.725 368.059 177.786 367.988 177.828C367.918 177.87 367.837 177.892 367.755 177.892Z" fill="white"></path> </svg> 