<?xml version="1.0" encoding="UTF-8"?> <svg xmlns="http://www.w3.org/2000/svg" width="600" height="400" viewBox="0 0 600 400" fill="none"> <rect width="600" height="400" rx="20" fill="#FC8F58"></rect> <path d="M66.372 322V306.16H72.917C73.071 306.16 73.269 306.167 73.511 306.182C73.753 306.189 73.9767 306.211 74.182 306.248C75.0987 306.387 75.854 306.692 76.448 307.161C77.0494 307.63 77.493 308.224 77.779 308.943C78.0724 309.654 78.219 310.446 78.219 311.319C78.219 312.184 78.0724 312.976 77.779 313.695C77.4857 314.406 77.0384 314.997 76.437 315.466C75.843 315.935 75.0914 316.24 74.182 316.379C73.9767 316.408 73.7494 316.43 73.5 316.445C73.258 316.46 73.0637 316.467 72.917 316.467H69.023V322H66.372ZM69.023 313.992H72.807C72.9537 313.992 73.1187 313.985 73.302 313.97C73.4854 313.955 73.654 313.926 73.808 313.882C74.248 313.772 74.5927 313.578 74.842 313.299C75.0987 313.02 75.2784 312.705 75.381 312.353C75.491 312.001 75.546 311.656 75.546 311.319C75.546 310.982 75.491 310.637 75.381 310.285C75.2784 309.926 75.0987 309.607 74.842 309.328C74.5927 309.049 74.248 308.855 73.808 308.745C73.654 308.701 73.4854 308.675 73.302 308.668C73.1187 308.653 72.9537 308.646 72.807 308.646H69.023V313.992ZM80.4228 322V306.16H90.6528V308.646H83.0738V312.551H89.3328V315.037H83.0738V319.514H90.6528V322H80.4228ZM99.3249 322.33C97.7409 322.33 96.3843 321.985 95.2549 321.296C94.1256 320.599 93.2566 319.631 92.6479 318.392C92.0466 317.153 91.7459 315.715 91.7459 314.08C91.7459 312.445 92.0466 311.007 92.6479 309.768C93.2566 308.529 94.1256 307.564 95.2549 306.875C96.3843 306.178 97.7409 305.83 99.3249 305.83C100.909 305.83 102.266 306.178 103.395 306.875C104.532 307.564 105.401 308.529 106.002 309.768C106.611 311.007 106.915 312.445 106.915 314.08C106.915 315.715 106.611 317.153 106.002 318.392C105.401 319.631 104.532 320.599 103.395 321.296C102.266 321.985 100.909 322.33 99.3249 322.33ZM99.3249 319.833C100.388 319.84 101.272 319.606 101.976 319.129C102.687 318.652 103.219 317.981 103.571 317.116C103.93 316.251 104.11 315.239 104.11 314.08C104.11 312.921 103.93 311.917 103.571 311.066C103.219 310.208 102.687 309.541 101.976 309.064C101.272 308.587 100.388 308.342 99.3249 308.327C98.2616 308.32 97.3779 308.554 96.6739 309.031C95.9699 309.508 95.4383 310.179 95.0789 311.044C94.7269 311.909 94.5509 312.921 94.5509 314.08C94.5509 315.239 94.7269 316.247 95.0789 317.105C95.4309 317.956 95.9589 318.619 96.6629 319.096C97.3743 319.573 98.2616 319.818 99.3249 319.833ZM109.104 322V306.16H115.649C115.803 306.16 116.001 306.167 116.243 306.182C116.485 306.189 116.709 306.211 116.914 306.248C117.831 306.387 118.586 306.692 119.18 307.161C119.782 307.63 120.225 308.224 120.511 308.943C120.805 309.654 120.951 310.446 120.951 311.319C120.951 312.184 120.805 312.976 120.511 313.695C120.218 314.406 119.771 314.997 119.169 315.466C118.575 315.935 117.824 316.24 116.914 316.379C116.709 316.408 116.482 316.43 116.232 316.445C115.99 316.46 115.796 316.467 115.649 316.467H111.755V322H109.104ZM111.755 313.992H115.539C115.686 313.992 115.851 313.985 116.034 313.97C116.218 313.955 116.386 313.926 116.54 313.882C116.98 313.772 117.325 313.578 117.574 313.299C117.831 313.02 118.011 312.705 118.113 312.353C118.223 312.001 118.278 311.656 118.278 311.319C118.278 310.982 118.223 310.637 118.113 310.285C118.011 309.926 117.831 309.607 117.574 309.328C117.325 309.049 116.98 308.855 116.54 308.745C116.386 308.701 116.218 308.675 116.034 308.668C115.851 308.653 115.686 308.646 115.539 308.646H111.755V313.992ZM123.375 322V306.16H126.026V319.514H133.022V322H123.375ZM134.886 322V306.16H145.116V308.646H137.537V312.551H143.796V315.037H137.537V319.514H145.116V322H134.886ZM152.379 322V306.16H155.03V322H152.379ZM158.325 322V306.16H161.009L168.357 317.325V306.16H171.041V322H168.357L161.009 310.835V322H158.325ZM182.326 322V308.646H177.2V306.16H190.103V308.646H184.977V322H182.326ZM191.862 322V306.16H194.513V312.826H202.015V306.16H204.655V322H202.015V315.312H194.513V322H191.862ZM207.739 322V306.16H217.969V308.646H210.39V312.551H216.649V315.037H210.39V319.514H217.969V322H207.739ZM231.393 322.33C230.131 322.33 229.02 322.073 228.06 321.56C227.106 321.047 226.358 320.324 225.816 319.393C225.28 318.462 225.013 317.369 225.013 316.115V306.182L227.697 306.16V316.049C227.697 316.643 227.796 317.175 227.994 317.644C228.199 318.113 228.474 318.513 228.819 318.843C229.163 319.166 229.559 319.411 230.007 319.58C230.454 319.749 230.916 319.833 231.393 319.833C231.884 319.833 232.35 319.749 232.79 319.58C233.237 319.404 233.633 319.155 233.978 318.832C234.322 318.502 234.594 318.102 234.792 317.633C234.99 317.164 235.089 316.636 235.089 316.049V306.16H237.773V316.115C237.773 317.369 237.501 318.462 236.959 319.393C236.423 320.324 235.675 321.047 234.715 321.56C233.761 322.073 232.654 322.33 231.393 322.33ZM246.044 322.33C244.885 322.33 243.84 322.128 242.909 321.725C241.985 321.322 241.222 320.746 240.621 319.998C240.027 319.243 239.649 318.348 239.488 317.314L242.238 316.896C242.472 317.835 242.953 318.561 243.679 319.074C244.412 319.587 245.255 319.844 246.209 319.844C246.773 319.844 247.305 319.756 247.804 319.58C248.302 319.404 248.706 319.147 249.014 318.81C249.329 318.473 249.487 318.058 249.487 317.567C249.487 317.347 249.45 317.145 249.377 316.962C249.303 316.771 249.193 316.603 249.047 316.456C248.907 316.309 248.724 316.177 248.497 316.06C248.277 315.935 248.02 315.829 247.727 315.741L243.635 314.531C243.283 314.428 242.901 314.293 242.491 314.124C242.087 313.948 241.702 313.71 241.336 313.409C240.976 313.101 240.679 312.712 240.445 312.243C240.217 311.766 240.104 311.18 240.104 310.483C240.104 309.464 240.36 308.609 240.874 307.92C241.394 307.223 242.091 306.703 242.964 306.358C243.844 306.013 244.819 305.845 245.89 305.852C246.975 305.859 247.943 306.046 248.794 306.413C249.644 306.772 250.356 307.297 250.928 307.986C251.5 308.675 251.903 309.508 252.138 310.483L249.289 310.978C249.171 310.421 248.944 309.948 248.607 309.559C248.277 309.163 247.87 308.862 247.386 308.657C246.909 308.452 246.399 308.342 245.857 308.327C245.329 308.32 244.837 308.4 244.383 308.569C243.935 308.73 243.572 308.965 243.294 309.273C243.022 309.581 242.887 309.94 242.887 310.351C242.887 310.74 243.004 311.059 243.239 311.308C243.473 311.55 243.763 311.744 244.108 311.891C244.46 312.03 244.815 312.148 245.175 312.243L248.013 313.035C248.401 313.138 248.838 313.277 249.322 313.453C249.806 313.629 250.271 313.875 250.719 314.19C251.166 314.505 251.533 314.92 251.819 315.433C252.112 315.946 252.259 316.599 252.259 317.391C252.259 318.212 252.086 318.935 251.742 319.558C251.404 320.174 250.946 320.687 250.367 321.098C249.787 321.509 249.124 321.817 248.376 322.022C247.635 322.227 246.858 322.33 246.044 322.33ZM260.825 322.33C259.666 322.33 258.621 322.128 257.69 321.725C256.766 321.322 256.003 320.746 255.402 319.998C254.808 319.243 254.43 318.348 254.269 317.314L257.019 316.896C257.254 317.835 257.734 318.561 258.46 319.074C259.193 319.587 260.037 319.844 260.99 319.844C261.555 319.844 262.086 319.756 262.585 319.58C263.084 319.404 263.487 319.147 263.795 318.81C264.11 318.473 264.268 318.058 264.268 317.567C264.268 317.347 264.231 317.145 264.158 316.962C264.085 316.771 263.975 316.603 263.828 316.456C263.689 316.309 263.505 316.177 263.278 316.06C263.058 315.935 262.801 315.829 262.508 315.741L258.416 314.531C258.064 314.428 257.683 314.293 257.272 314.124C256.869 313.948 256.484 313.71 256.117 313.409C255.758 313.101 255.461 312.712 255.226 312.243C254.999 311.766 254.885 311.18 254.885 310.483C254.885 309.464 255.142 308.609 255.655 307.92C256.176 307.223 256.872 306.703 257.745 306.358C258.625 306.013 259.6 305.845 260.671 305.852C261.756 305.859 262.724 306.046 263.575 306.413C264.426 306.772 265.137 307.297 265.709 307.986C266.281 308.675 266.684 309.508 266.919 310.483L264.07 310.978C263.953 310.421 263.725 309.948 263.388 309.559C263.058 309.163 262.651 308.862 262.167 308.657C261.69 308.452 261.181 308.342 260.638 308.327C260.11 308.32 259.619 308.4 259.164 308.569C258.717 308.73 258.354 308.965 258.075 309.273C257.804 309.581 257.668 309.94 257.668 310.351C257.668 310.74 257.785 311.059 258.02 311.308C258.255 311.55 258.544 311.744 258.889 311.891C259.241 312.03 259.597 312.148 259.956 312.243L262.794 313.035C263.183 313.138 263.619 313.277 264.103 313.453C264.587 313.629 265.053 313.875 265.5 314.19C265.947 314.505 266.314 314.92 266.6 315.433C266.893 315.946 267.04 316.599 267.04 317.391C267.04 318.212 266.868 318.935 266.523 319.558C266.186 320.174 265.727 320.687 265.148 321.098C264.569 321.509 263.905 321.817 263.157 322.022C262.416 322.227 261.639 322.33 260.825 322.33ZM269.421 322V306.16H275.966C276.12 306.16 276.318 306.167 276.56 306.182C276.802 306.189 277.026 306.211 277.231 306.248C278.148 306.387 278.903 306.692 279.497 307.161C280.098 307.63 280.542 308.224 280.828 308.943C281.121 309.654 281.268 310.446 281.268 311.319C281.268 312.61 280.942 313.721 280.289 314.652C279.636 315.576 278.635 316.148 277.286 316.368L276.153 316.467H272.072V322H269.421ZM278.518 322L275.394 315.554L278.089 314.96L281.521 322H278.518ZM272.072 313.992H275.856C276.003 313.992 276.168 313.985 276.351 313.97C276.534 313.955 276.703 313.926 276.857 313.882C277.297 313.772 277.642 313.578 277.891 313.299C278.148 313.02 278.327 312.705 278.43 312.353C278.54 312.001 278.595 311.656 278.595 311.319C278.595 310.982 278.54 310.637 278.43 310.285C278.327 309.926 278.148 309.607 277.891 309.328C277.642 309.049 277.297 308.855 276.857 308.745C276.703 308.701 276.534 308.675 276.351 308.668C276.168 308.653 276.003 308.646 275.856 308.646H272.072V313.992ZM291.693 322L287.062 306.16H289.845L293.002 317.6L296.148 306.182L298.931 306.16L302.088 317.6L305.234 306.16H308.017L303.397 322H300.779L297.534 310.736L294.311 322H291.693ZM309.811 322V306.16H320.041V308.646H312.462V312.551H318.721V315.037H312.462V319.514H320.041V322H309.811ZM322.681 322V306.16H329.226C329.38 306.16 329.578 306.167 329.82 306.182C330.062 306.189 330.285 306.211 330.491 306.248C331.407 306.387 332.163 306.692 332.757 307.161C333.358 307.63 333.802 308.224 334.088 308.943C334.381 309.654 334.528 310.446 334.528 311.319C334.528 312.61 334.201 313.721 333.549 314.652C332.896 315.576 331.895 316.148 330.546 316.368L329.413 316.467H325.332V322H322.681ZM331.778 322L328.654 315.554L331.349 314.96L334.781 322H331.778ZM325.332 313.992H329.116C329.262 313.992 329.427 313.985 329.611 313.97C329.794 313.955 329.963 313.926 330.117 313.882C330.557 313.772 330.901 313.578 331.151 313.299C331.407 313.02 331.587 312.705 331.69 312.353C331.8 312.001 331.855 311.656 331.855 311.319C331.855 310.982 331.8 310.637 331.69 310.285C331.587 309.926 331.407 309.607 331.151 309.328C330.901 309.049 330.557 308.855 330.117 308.745C329.963 308.701 329.794 308.675 329.611 308.668C329.427 308.653 329.262 308.646 329.116 308.646H325.332V313.992ZM337.204 322V306.16H347.434V308.646H339.855V312.551H346.114V315.037H339.855V319.514H347.434V322H337.204ZM354.478 322V306.16H357.129V313.508L363.454 306.16H366.71L359.901 313.926L367.172 322H363.806L357.129 314.608V322H354.478ZM368.942 322V306.16H371.593V322H368.942ZM374.888 322V306.16H377.572L384.92 317.325V306.16H387.604V322H384.92L377.572 310.835V322H374.888ZM390.679 322V306.16H395.728C395.86 306.16 396.12 306.164 396.509 306.171C396.905 306.178 397.286 306.204 397.653 306.248C398.907 306.409 399.966 306.857 400.832 307.59C401.704 308.316 402.364 309.244 402.812 310.373C403.259 311.502 403.483 312.738 403.483 314.08C403.483 315.422 403.259 316.658 402.812 317.787C402.364 318.916 401.704 319.848 400.832 320.581C399.966 321.307 398.907 321.751 397.653 321.912C397.293 321.956 396.916 321.982 396.52 321.989C396.124 321.996 395.86 322 395.728 322H390.679ZM393.374 319.503H395.728C395.948 319.503 396.226 319.496 396.564 319.481C396.908 319.466 397.213 319.433 397.477 319.382C398.225 319.243 398.833 318.909 399.303 318.381C399.772 317.853 400.117 317.211 400.337 316.456C400.564 315.701 400.678 314.909 400.678 314.08C400.678 313.222 400.564 312.415 400.337 311.66C400.109 310.905 399.757 310.27 399.281 309.757C398.811 309.244 398.21 308.917 397.477 308.778C397.213 308.719 396.908 308.686 396.564 308.679C396.226 308.664 395.948 308.657 395.728 308.657H393.374V319.503ZM406.083 322V306.16H416.313V308.646H408.734V312.551H414.993V315.037H408.734V319.514H416.313V322H406.083ZM418.952 322V306.16H425.497C425.651 306.16 425.849 306.167 426.091 306.182C426.333 306.189 426.557 306.211 426.762 306.248C427.679 306.387 428.434 306.692 429.028 307.161C429.629 307.63 430.073 308.224 430.359 308.943C430.652 309.654 430.799 310.446 430.799 311.319C430.799 312.61 430.473 313.721 429.82 314.652C429.167 315.576 428.166 316.148 426.817 316.368L425.684 316.467H421.603V322H418.952ZM428.049 322L424.925 315.554L427.62 314.96L431.052 322H428.049ZM421.603 313.992H425.387C425.534 313.992 425.699 313.985 425.882 313.97C426.065 313.955 426.234 313.926 426.388 313.882C426.828 313.772 427.173 313.578 427.422 313.299C427.679 313.02 427.858 312.705 427.961 312.353C428.071 312.001 428.126 311.656 428.126 311.319C428.126 310.982 428.071 310.637 427.961 310.285C427.858 309.926 427.679 309.607 427.422 309.328C427.173 309.049 426.828 308.855 426.388 308.745C426.234 308.701 426.065 308.675 425.882 308.668C425.699 308.653 425.534 308.646 425.387 308.646H421.603V313.992ZM437.88 322V306.16H444.161C445.232 306.16 446.108 306.376 446.79 306.809C447.479 307.234 447.989 307.781 448.319 308.448C448.656 309.115 448.825 309.805 448.825 310.516C448.825 311.389 448.616 312.129 448.198 312.738C447.787 313.347 447.226 313.757 446.515 313.97V313.42C447.512 313.647 448.268 314.12 448.781 314.839C449.302 315.558 449.562 316.375 449.562 317.292C449.562 318.231 449.382 319.052 449.023 319.756C448.664 320.46 448.128 321.01 447.417 321.406C446.713 321.802 445.84 322 444.799 322H437.88ZM440.564 319.503H444.469C444.931 319.503 445.345 319.411 445.712 319.228C446.079 319.037 446.365 318.773 446.57 318.436C446.783 318.091 446.889 317.684 446.889 317.215C446.889 316.79 446.797 316.408 446.614 316.071C446.431 315.734 446.163 315.466 445.811 315.268C445.459 315.063 445.037 314.96 444.546 314.96H440.564V319.503ZM440.564 312.485H444.128C444.509 312.485 444.85 312.412 445.151 312.265C445.452 312.118 445.69 311.902 445.866 311.616C446.042 311.33 446.13 310.978 446.13 310.56C446.13 310.01 445.954 309.552 445.602 309.185C445.25 308.818 444.759 308.635 444.128 308.635H440.564V312.485ZM451.759 322V306.16H461.989V308.646H454.41V312.551H460.669V315.037H454.41V319.514H461.989V322H451.759ZM470.768 322.33C469.184 322.33 467.828 321.985 466.698 321.296C465.569 320.599 464.7 319.631 464.091 318.392C463.49 317.153 463.189 315.715 463.189 314.08C463.189 312.445 463.49 311.007 464.091 309.768C464.7 308.529 465.569 307.564 466.698 306.875C467.828 306.178 469.184 305.83 470.768 305.83C472.594 305.83 474.116 306.288 475.333 307.205C476.551 308.114 477.405 309.343 477.896 310.89L475.223 311.627C474.915 310.593 474.391 309.786 473.65 309.207C472.91 308.62 471.949 308.327 470.768 308.327C469.705 308.327 468.818 308.565 468.106 309.042C467.402 309.519 466.871 310.19 466.511 311.055C466.159 311.913 465.98 312.921 465.972 314.08C465.972 315.239 466.148 316.251 466.5 317.116C466.86 317.974 467.395 318.641 468.106 319.118C468.818 319.595 469.705 319.833 470.768 319.833C471.949 319.833 472.91 319.54 473.65 318.953C474.391 318.366 474.915 317.56 475.223 316.533L477.896 317.27C477.405 318.817 476.551 320.049 475.333 320.966C474.116 321.875 472.594 322.33 470.768 322.33ZM478.782 322L483.776 306.16H487.659L492.653 322H489.925L485.393 307.788H485.987L481.51 322H478.782ZM481.565 318.568V316.093H489.881V318.568H481.565ZM500.592 322.33C499.331 322.33 498.22 322.073 497.259 321.56C496.306 321.047 495.558 320.324 495.015 319.393C494.48 318.462 494.212 317.369 494.212 316.115V306.182L496.896 306.16V316.049C496.896 316.643 496.995 317.175 497.193 317.644C497.398 318.113 497.673 318.513 498.018 318.843C498.363 319.166 498.759 319.411 499.206 319.58C499.653 319.749 500.115 319.833 500.592 319.833C501.083 319.833 501.549 319.749 501.989 319.58C502.436 319.404 502.832 319.155 503.177 318.832C503.522 318.502 503.793 318.102 503.991 317.633C504.189 317.164 504.288 316.636 504.288 316.049V306.16H506.972V316.115C506.972 317.369 506.701 318.462 506.158 319.393C505.623 320.324 504.875 321.047 503.914 321.56C502.961 322.073 501.853 322.33 500.592 322.33ZM515.243 322.33C514.084 322.33 513.039 322.128 512.108 321.725C511.184 321.322 510.421 320.746 509.82 319.998C509.226 319.243 508.848 318.348 508.687 317.314L511.437 316.896C511.672 317.835 512.152 318.561 512.878 319.074C513.611 319.587 514.455 319.844 515.408 319.844C515.973 319.844 516.504 319.756 517.003 319.58C517.502 319.404 517.905 319.147 518.213 318.81C518.528 318.473 518.686 318.058 518.686 317.567C518.686 317.347 518.649 317.145 518.576 316.962C518.503 316.771 518.393 316.603 518.246 316.456C518.107 316.309 517.923 316.177 517.696 316.06C517.476 315.935 517.219 315.829 516.926 315.741L512.834 314.531C512.482 314.428 512.101 314.293 511.69 314.124C511.287 313.948 510.902 313.71 510.535 313.409C510.176 313.101 509.879 312.712 509.644 312.243C509.417 311.766 509.303 311.18 509.303 310.483C509.303 309.464 509.56 308.609 510.073 307.92C510.594 307.223 511.29 306.703 512.163 306.358C513.043 306.013 514.018 305.845 515.089 305.852C516.174 305.859 517.142 306.046 517.993 306.413C518.844 306.772 519.555 307.297 520.127 307.986C520.699 308.675 521.102 309.508 521.337 310.483L518.488 310.978C518.371 310.421 518.143 309.948 517.806 309.559C517.476 309.163 517.069 308.862 516.585 308.657C516.108 308.452 515.599 308.342 515.056 308.327C514.528 308.32 514.037 308.4 513.582 308.569C513.135 308.73 512.772 308.965 512.493 309.273C512.222 309.581 512.086 309.94 512.086 310.351C512.086 310.74 512.203 311.059 512.438 311.308C512.673 311.55 512.962 311.744 513.307 311.891C513.659 312.03 514.015 312.148 514.374 312.243L517.212 313.035C517.601 313.138 518.037 313.277 518.521 313.453C519.005 313.629 519.471 313.875 519.918 314.19C520.365 314.505 520.732 314.92 521.018 315.433C521.311 315.946 521.458 316.599 521.458 317.391C521.458 318.212 521.286 318.935 520.941 319.558C520.604 320.174 520.145 320.687 519.566 321.098C518.987 321.509 518.323 321.817 517.575 322.022C516.834 322.227 516.057 322.33 515.243 322.33ZM523.839 322V306.16H534.069V308.646H526.49V312.551H532.749V315.037H526.49V319.514H534.069V322H523.839ZM43.1689 353V337.16H53.3989V339.646H45.8199V343.551H52.0789V346.037H45.8199V350.514H53.3989V353H43.1689ZM59.602 353L54.608 337.16H57.336L61.516 350.426L65.751 337.16H68.479L63.485 353H59.602ZM70.1318 353V337.16H80.3618V339.646H72.7828V343.551H79.0418V346.037H72.7828V350.514H80.3618V353H70.1318ZM83.0009 353V337.16H89.5459C89.6999 337.16 89.8979 337.167 90.1399 337.182C90.3819 337.189 90.6056 337.211 90.8109 337.248C91.7276 337.387 92.4829 337.692 93.0769 338.161C93.6783 338.63 94.1219 339.224 94.4079 339.943C94.7013 340.654 94.8479 341.446 94.8479 342.319C94.8479 343.61 94.5216 344.721 93.8689 345.652C93.2163 346.576 92.2153 347.148 90.8659 347.368L89.7329 347.467H85.6519V353H83.0009ZM92.0979 353L88.9739 346.554L91.6689 345.96L95.1009 353H92.0979ZM85.6519 344.992H89.4359C89.5826 344.992 89.7476 344.985 89.9309 344.97C90.1143 344.955 90.2829 344.926 90.4369 344.882C90.8769 344.772 91.2216 344.578 91.4709 344.299C91.7276 344.02 91.9073 343.705 92.0099 343.353C92.1199 343.001 92.1749 342.656 92.1749 342.319C92.1749 341.982 92.1199 341.637 92.0099 341.285C91.9073 340.926 91.7276 340.607 91.4709 340.328C91.2216 340.049 90.8769 339.855 90.4369 339.745C90.2829 339.701 90.1143 339.675 89.9309 339.668C89.7476 339.653 89.5826 339.646 89.4359 339.646H85.6519V344.992ZM101.074 353V346.51L95.6836 337.16H98.7746L102.416 343.474L106.046 337.16H109.137L103.758 346.51V353H101.074ZM110.673 353V337.16H116.954C118.024 337.16 118.901 337.376 119.583 337.809C120.272 338.234 120.782 338.781 121.112 339.448C121.449 340.115 121.618 340.805 121.618 341.516C121.618 342.389 121.409 343.129 120.991 343.738C120.58 344.347 120.019 344.757 119.308 344.97V344.42C120.305 344.647 121.06 345.12 121.574 345.839C122.094 346.558 122.355 347.375 122.355 348.292C122.355 349.231 122.175 350.052 121.816 350.756C121.456 351.46 120.921 352.01 120.21 352.406C119.506 352.802 118.633 353 117.592 353H110.673ZM113.357 350.503H117.262C117.724 350.503 118.138 350.411 118.505 350.228C118.871 350.037 119.157 349.773 119.363 349.436C119.575 349.091 119.682 348.684 119.682 348.215C119.682 347.79 119.59 347.408 119.407 347.071C119.223 346.734 118.956 346.466 118.604 346.268C118.252 346.063 117.83 345.96 117.339 345.96H113.357V350.503ZM113.357 343.485H116.921C117.302 343.485 117.643 343.412 117.944 343.265C118.244 343.118 118.483 342.902 118.659 342.616C118.835 342.33 118.923 341.978 118.923 341.56C118.923 341.01 118.747 340.552 118.395 340.185C118.043 339.818 117.551 339.635 116.921 339.635H113.357V343.485ZM131.251 353.33C129.667 353.33 128.31 352.985 127.181 352.296C126.051 351.599 125.182 350.631 124.574 349.392C123.972 348.153 123.672 346.715 123.672 345.08C123.672 343.445 123.972 342.007 124.574 340.768C125.182 339.529 126.051 338.564 127.181 337.875C128.31 337.178 129.667 336.83 131.251 336.83C132.835 336.83 134.191 337.178 135.321 337.875C136.457 338.564 137.326 339.529 137.928 340.768C138.536 342.007 138.841 343.445 138.841 345.08C138.841 346.715 138.536 348.153 137.928 349.392C137.326 350.631 136.457 351.599 135.321 352.296C134.191 352.985 132.835 353.33 131.251 353.33ZM131.251 350.833C132.314 350.84 133.198 350.606 133.902 350.129C134.613 349.652 135.145 348.981 135.497 348.116C135.856 347.251 136.036 346.239 136.036 345.08C136.036 343.921 135.856 342.917 135.497 342.066C135.145 341.208 134.613 340.541 133.902 340.064C133.198 339.587 132.314 339.342 131.251 339.327C130.187 339.32 129.304 339.554 128.6 340.031C127.896 340.508 127.364 341.179 127.005 342.044C126.653 342.909 126.477 343.921 126.477 345.08C126.477 346.239 126.653 347.247 127.005 348.105C127.357 348.956 127.885 349.619 128.589 350.096C129.3 350.573 130.187 350.818 131.251 350.833ZM141.03 353V337.16H146.079C146.211 337.16 146.472 337.164 146.86 337.171C147.256 337.178 147.638 337.204 148.004 337.248C149.258 337.409 150.318 337.857 151.183 338.59C152.056 339.316 152.716 340.244 153.163 341.373C153.611 342.502 153.834 343.738 153.834 345.08C153.834 346.422 153.611 347.658 153.163 348.787C152.716 349.916 152.056 350.848 151.183 351.581C150.318 352.307 149.258 352.751 148.004 352.912C147.645 352.956 147.267 352.982 146.871 352.989C146.475 352.996 146.211 353 146.079 353H141.03ZM143.725 350.503H146.079C146.299 350.503 146.578 350.496 146.915 350.481C147.26 350.466 147.564 350.433 147.828 350.382C148.576 350.243 149.185 349.909 149.654 349.381C150.124 348.853 150.468 348.211 150.688 347.456C150.916 346.701 151.029 345.909 151.029 345.08C151.029 344.222 150.916 343.415 150.688 342.66C150.461 341.905 150.109 341.27 149.632 340.757C149.163 340.244 148.562 339.917 147.828 339.778C147.564 339.719 147.26 339.686 146.915 339.679C146.578 339.664 146.299 339.657 146.079 339.657H143.725V350.503ZM159.619 353V346.51L154.229 337.16H157.32L160.961 343.474L164.591 337.16H167.682L162.303 346.51V353H159.619ZM176.085 353L171.454 337.16H174.237L177.394 348.6L180.54 337.182L183.323 337.16L186.48 348.6L189.626 337.16H192.409L187.789 353H185.171L181.926 341.736L178.703 353H176.085ZM191.557 353L196.551 337.16H200.434L205.428 353H202.7L198.168 338.788H198.762L194.285 353H191.557ZM194.34 349.568V347.093H202.656V349.568H194.34ZM212.85 353.33C211.692 353.33 210.647 353.128 209.715 352.725C208.791 352.322 208.029 351.746 207.427 350.998C206.833 350.243 206.456 349.348 206.294 348.314L209.044 347.896C209.279 348.835 209.759 349.561 210.485 350.074C211.219 350.587 212.062 350.844 213.015 350.844C213.58 350.844 214.112 350.756 214.61 350.58C215.109 350.404 215.512 350.147 215.82 349.81C216.136 349.473 216.293 349.058 216.293 348.567C216.293 348.347 216.257 348.145 216.183 347.962C216.11 347.771 216 347.603 215.853 347.456C215.714 347.309 215.531 347.177 215.303 347.06C215.083 346.935 214.827 346.829 214.533 346.741L210.441 345.531C210.089 345.428 209.708 345.293 209.297 345.124C208.894 344.948 208.509 344.71 208.142 344.409C207.783 344.101 207.486 343.712 207.251 343.243C207.024 342.766 206.91 342.18 206.91 341.483C206.91 340.464 207.167 339.609 207.68 338.92C208.201 338.223 208.898 337.703 209.77 337.358C210.65 337.013 211.626 336.845 212.696 336.852C213.782 336.859 214.75 337.046 215.6 337.413C216.451 337.772 217.162 338.297 217.734 338.986C218.306 339.675 218.71 340.508 218.944 341.483L216.095 341.978C215.978 341.421 215.751 340.948 215.413 340.559C215.083 340.163 214.676 339.862 214.192 339.657C213.716 339.452 213.206 339.342 212.663 339.327C212.135 339.32 211.644 339.4 211.189 339.569C210.742 339.73 210.379 339.965 210.1 340.273C209.829 340.581 209.693 340.94 209.693 341.351C209.693 341.74 209.811 342.059 210.045 342.308C210.28 342.55 210.57 342.744 210.914 342.891C211.266 343.03 211.622 343.148 211.981 343.243L214.819 344.035C215.208 344.138 215.644 344.277 216.128 344.453C216.612 344.629 217.078 344.875 217.525 345.19C217.973 345.505 218.339 345.92 218.625 346.433C218.919 346.946 219.065 347.599 219.065 348.391C219.065 349.212 218.893 349.935 218.548 350.558C218.211 351.174 217.753 351.687 217.173 352.098C216.594 352.509 215.93 352.817 215.182 353.022C214.442 353.227 213.664 353.33 212.85 353.33ZM224.751 353L229.745 337.16H233.628L238.622 353H235.894L231.362 338.788H231.956L227.479 353H224.751ZM227.534 349.568V347.093H235.85V349.568H227.534ZM240.83 353V337.16H243.481V350.514H250.477V353H240.83ZM252.341 353V337.16H254.728L260.206 348.38L265.684 337.16H268.071V353H265.596V342.847L260.734 353H259.678L254.827 342.847V353H252.341ZM277.86 353.33C276.276 353.33 274.919 352.985 273.79 352.296C272.661 351.599 271.792 350.631 271.183 349.392C270.582 348.153 270.281 346.715 270.281 345.08C270.281 343.445 270.582 342.007 271.183 340.768C271.792 339.529 272.661 338.564 273.79 337.875C274.919 337.178 276.276 336.83 277.86 336.83C279.444 336.83 280.801 337.178 281.93 337.875C283.067 338.564 283.936 339.529 284.537 340.768C285.146 342.007 285.45 343.445 285.45 345.08C285.45 346.715 285.146 348.153 284.537 349.392C283.936 350.631 283.067 351.599 281.93 352.296C280.801 352.985 279.444 353.33 277.86 353.33ZM277.86 350.833C278.923 350.84 279.807 350.606 280.511 350.129C281.222 349.652 281.754 348.981 282.106 348.116C282.465 347.251 282.645 346.239 282.645 345.08C282.645 343.921 282.465 342.917 282.106 342.066C281.754 341.208 281.222 340.541 280.511 340.064C279.807 339.587 278.923 339.342 277.86 339.327C276.797 339.32 275.913 339.554 275.209 340.031C274.505 340.508 273.973 341.179 273.614 342.044C273.262 342.909 273.086 343.921 273.086 345.08C273.086 346.239 273.262 347.247 273.614 348.105C273.966 348.956 274.494 349.619 275.198 350.096C275.909 350.573 276.797 350.818 277.86 350.833ZM293.503 353.33C292.344 353.33 291.299 353.128 290.368 352.725C289.444 352.322 288.681 351.746 288.08 350.998C287.486 350.243 287.108 349.348 286.947 348.314L289.697 347.896C289.931 348.835 290.412 349.561 291.138 350.074C291.871 350.587 292.714 350.844 293.668 350.844C294.232 350.844 294.764 350.756 295.263 350.58C295.761 350.404 296.165 350.147 296.473 349.81C296.788 349.473 296.946 349.058 296.946 348.567C296.946 348.347 296.909 348.145 296.836 347.962C296.762 347.771 296.652 347.603 296.506 347.456C296.366 347.309 296.183 347.177 295.956 347.06C295.736 346.935 295.479 346.829 295.186 346.741L291.094 345.531C290.742 345.428 290.36 345.293 289.95 345.124C289.546 344.948 289.161 344.71 288.795 344.409C288.435 344.101 288.138 343.712 287.904 343.243C287.676 342.766 287.563 342.18 287.563 341.483C287.563 340.464 287.819 339.609 288.333 338.92C288.853 338.223 289.55 337.703 290.423 337.358C291.303 337.013 292.278 336.845 293.349 336.852C294.434 336.859 295.402 337.046 296.253 337.413C297.103 337.772 297.815 338.297 298.387 338.986C298.959 339.675 299.362 340.508 299.597 341.483L296.748 341.978C296.63 341.421 296.403 340.948 296.066 340.559C295.736 340.163 295.329 339.862 294.845 339.657C294.368 339.452 293.858 339.342 293.316 339.327C292.788 339.32 292.296 339.4 291.842 339.569C291.394 339.73 291.031 339.965 290.753 340.273C290.481 340.581 290.346 340.94 290.346 341.351C290.346 341.74 290.463 342.059 290.698 342.308C290.932 342.55 291.222 342.744 291.567 342.891C291.919 343.03 292.274 343.148 292.634 343.243L295.472 344.035C295.86 344.138 296.297 344.277 296.781 344.453C297.265 344.629 297.73 344.875 298.178 345.19C298.625 345.505 298.992 345.92 299.278 346.433C299.571 346.946 299.718 347.599 299.718 348.391C299.718 349.212 299.545 349.935 299.201 350.558C298.863 351.174 298.405 351.687 297.826 352.098C297.246 352.509 296.583 352.817 295.835 353.022C295.094 353.227 294.317 353.33 293.503 353.33ZM305.905 353V339.646H300.779V337.16H313.682V339.646H308.556V353H305.905ZM325.878 353.33C324.294 353.33 322.937 352.985 321.808 352.296C320.678 351.599 319.809 350.631 319.201 349.392C318.599 348.153 318.299 346.715 318.299 345.08C318.299 343.445 318.599 342.007 319.201 340.768C319.809 339.529 320.678 338.564 321.808 337.875C322.937 337.178 324.294 336.83 325.878 336.83C327.462 336.83 328.818 337.178 329.948 337.875C331.084 338.564 331.953 339.529 332.555 340.768C333.163 342.007 333.468 343.445 333.468 345.08C333.468 346.715 333.163 348.153 332.555 349.392C331.953 350.631 331.084 351.599 329.948 352.296C328.818 352.985 327.462 353.33 325.878 353.33ZM325.878 350.833C326.941 350.84 327.825 350.606 328.529 350.129C329.24 349.652 329.772 348.981 330.124 348.116C330.483 347.251 330.663 346.239 330.663 345.08C330.663 343.921 330.483 342.917 330.124 342.066C329.772 341.208 329.24 340.541 328.529 340.064C327.825 339.587 326.941 339.342 325.878 339.327C324.814 339.32 323.931 339.554 323.227 340.031C322.523 340.508 321.991 341.179 321.632 342.044C321.28 342.909 321.104 343.921 321.104 345.08C321.104 346.239 321.28 347.247 321.632 348.105C321.984 348.956 322.512 349.619 323.216 350.096C323.927 350.573 324.814 350.818 325.878 350.833ZM335.657 353V337.16H338.341L345.689 348.325V337.16H348.373V353H345.689L338.341 341.835V353H335.657ZM354.753 353L359.747 337.16H363.63L368.624 353H365.896L361.364 338.788H361.958L357.481 353H354.753ZM357.536 349.568V347.093H365.852V349.568H357.536ZM370.612 353V337.16H373.296L380.644 348.325V337.16H383.328V353H380.644L373.296 341.835V353H370.612ZM390.808 353V337.16H401.038V339.646H393.459V343.551H399.718V346.037H393.459V350.514H401.038V353H390.808ZM415.408 353.33L410.887 348.831L412.548 347.17L417.047 351.669L415.408 353.33ZM409.71 353.33C408.126 353.33 406.769 352.985 405.64 352.296C404.51 351.599 403.641 350.631 403.033 349.392C402.431 348.153 402.131 346.715 402.131 345.08C402.131 343.445 402.431 342.007 403.033 340.768C403.641 339.529 404.51 338.564 405.64 337.875C406.769 337.178 408.126 336.83 409.71 336.83C411.294 336.83 412.65 337.178 413.78 337.875C414.916 338.564 415.785 339.529 416.387 340.768C416.995 342.007 417.3 343.445 417.3 345.08C417.3 346.715 416.995 348.153 416.387 349.392C415.785 350.631 414.916 351.599 413.78 352.296C412.65 352.985 411.294 353.33 409.71 353.33ZM409.71 350.833C410.773 350.84 411.657 350.606 412.361 350.129C413.072 349.652 413.604 348.981 413.956 348.116C414.315 347.251 414.495 346.239 414.495 345.08C414.495 343.921 414.315 342.917 413.956 342.066C413.604 341.208 413.072 340.541 412.361 340.064C411.657 339.587 410.773 339.342 409.71 339.327C408.646 339.32 407.763 339.554 407.059 340.031C406.355 340.508 405.823 341.179 405.464 342.044C405.112 342.909 404.936 343.921 404.936 345.08C404.936 346.239 405.112 347.247 405.464 348.105C405.816 348.956 406.344 349.619 407.048 350.096C407.759 350.573 408.646 350.818 409.71 350.833ZM425.869 353.33C424.608 353.33 423.497 353.073 422.536 352.56C421.583 352.047 420.835 351.324 420.292 350.393C419.757 349.462 419.489 348.369 419.489 347.115V337.182L422.173 337.16V347.049C422.173 347.643 422.272 348.175 422.47 348.644C422.676 349.113 422.951 349.513 423.295 349.843C423.64 350.166 424.036 350.411 424.483 350.58C424.931 350.749 425.393 350.833 425.869 350.833C426.361 350.833 426.826 350.749 427.266 350.58C427.714 350.404 428.11 350.155 428.454 349.832C428.799 349.502 429.07 349.102 429.268 348.633C429.466 348.164 429.565 347.636 429.565 347.049V337.16H432.249V347.115C432.249 348.369 431.978 349.462 431.435 350.393C430.9 351.324 430.152 352.047 429.191 352.56C428.238 353.073 427.131 353.33 425.869 353.33ZM433.557 353L438.551 337.16H442.434L447.428 353H444.7L440.168 338.788H440.762L436.285 353H433.557ZM436.34 349.568V347.093H444.656V349.568H436.34ZM449.637 353V337.16H452.288V350.514H459.284V353H449.637ZM464.456 353V337.16H473.993V339.811H467.107V343.76H472.673V346.4H467.107V353H464.456ZM482.671 353.33C481.087 353.33 479.73 352.985 478.601 352.296C477.471 351.599 476.602 350.631 475.994 349.392C475.392 348.153 475.092 346.715 475.092 345.08C475.092 343.445 475.392 342.007 475.994 340.768C476.602 339.529 477.471 338.564 478.601 337.875C479.73 337.178 481.087 336.83 482.671 336.83C484.255 336.83 485.611 337.178 486.741 337.875C487.877 338.564 488.746 339.529 489.348 340.768C489.956 342.007 490.261 343.445 490.261 345.08C490.261 346.715 489.956 348.153 489.348 349.392C488.746 350.631 487.877 351.599 486.741 352.296C485.611 352.985 484.255 353.33 482.671 353.33ZM482.671 350.833C483.734 350.84 484.618 350.606 485.322 350.129C486.033 349.652 486.565 348.981 486.917 348.116C487.276 347.251 487.456 346.239 487.456 345.08C487.456 343.921 487.276 342.917 486.917 342.066C486.565 341.208 486.033 340.541 485.322 340.064C484.618 339.587 483.734 339.342 482.671 339.327C481.607 339.32 480.724 339.554 480.02 340.031C479.316 340.508 478.784 341.179 478.425 342.044C478.073 342.909 477.897 343.921 477.897 345.08C477.897 346.239 478.073 347.247 478.425 348.105C478.777 348.956 479.305 349.619 480.009 350.096C480.72 350.573 481.607 350.818 482.671 350.833ZM499.149 353.33C497.565 353.33 496.208 352.985 495.079 352.296C493.95 351.599 493.081 350.631 492.472 349.392C491.871 348.153 491.57 346.715 491.57 345.08C491.57 343.445 491.871 342.007 492.472 340.768C493.081 339.529 493.95 338.564 495.079 337.875C496.208 337.178 497.565 336.83 499.149 336.83C500.733 336.83 502.09 337.178 503.219 337.875C504.356 338.564 505.225 339.529 505.826 340.768C506.435 342.007 506.739 343.445 506.739 345.08C506.739 346.715 506.435 348.153 505.826 349.392C505.225 350.631 504.356 351.599 503.219 352.296C502.09 352.985 500.733 353.33 499.149 353.33ZM499.149 350.833C500.212 350.84 501.096 350.606 501.8 350.129C502.511 349.652 503.043 348.981 503.395 348.116C503.754 347.251 503.934 346.239 503.934 345.08C503.934 343.921 503.754 342.917 503.395 342.066C503.043 341.208 502.511 340.541 501.8 340.064C501.096 339.587 500.212 339.342 499.149 339.327C498.086 339.32 497.202 339.554 496.498 340.031C495.794 340.508 495.262 341.179 494.903 342.044C494.551 342.909 494.375 343.921 494.375 345.08C494.375 346.239 494.551 347.247 494.903 348.105C495.255 348.956 495.783 349.619 496.487 350.096C497.198 350.573 498.086 350.818 499.149 350.833ZM512.305 353V339.646H507.179V337.16H520.082V339.646H514.956V353H512.305ZM522.061 353V337.16H524.712V353H522.061ZM528.007 353V337.16H530.691L538.039 348.325V337.16H540.723V353H538.039L530.691 341.835V353H528.007ZM550.332 353.33C549.305 353.33 548.341 353.15 547.439 352.791C546.544 352.424 545.756 351.889 545.074 351.185C544.399 350.481 543.871 349.619 543.49 348.6C543.108 347.573 542.918 346.4 542.918 345.08C542.918 343.349 543.24 341.872 543.886 340.647C544.531 339.415 545.415 338.473 546.537 337.82C547.659 337.16 548.924 336.83 550.332 336.83C552.282 336.83 553.826 337.285 554.963 338.194C556.107 339.096 556.88 340.365 557.284 342L554.578 342.429C554.277 341.49 553.786 340.742 553.104 340.185C552.422 339.62 551.553 339.338 550.497 339.338C549.433 339.323 548.55 339.554 547.846 340.031C547.142 340.508 546.61 341.179 546.251 342.044C545.899 342.909 545.723 343.921 545.723 345.08C545.723 346.239 545.899 347.247 546.251 348.105C546.603 348.956 547.131 349.619 547.835 350.096C548.546 350.573 549.433 350.818 550.497 350.833C551.296 350.84 551.996 350.697 552.598 350.404C553.199 350.103 553.69 349.652 554.072 349.051C554.453 348.442 554.71 347.683 554.842 346.774H552.048V344.695H557.658C557.672 344.812 557.683 344.985 557.691 345.212C557.698 345.439 557.702 345.575 557.702 345.619C557.702 347.115 557.405 348.446 556.811 349.612C556.224 350.771 555.381 351.68 554.281 352.34C553.181 353 551.864 353.33 550.332 353.33Z" fill="white"></path> <path d="M329.595 118.513C329.595 118.513 321.328 110.819 318.171 112.995C318.171 112.995 314.037 122.338 312.135 123.06C311.348 125.351 310.213 127.532 308.634 127.457C308.46 128.226 308.478 129.026 308.684 129.788C309.023 131.182 305.796 137.287 303.644 136.69C301.493 136.092 298.42 130.639 299.317 127.567C299.373 127.358 299.418 127.147 299.451 126.934C299.336 126.71 295.547 119.534 295.163 115.789C294.77 111.984 293.126 113.633 293.126 113.633C293.126 113.633 295.308 115.555 291.906 117.069C288.5 118.588 280.049 119.773 283.415 116.626C283.415 116.626 282.922 115.152 281.274 116.496C281.274 116.496 280.084 118.065 282.952 123.398C282.952 123.398 287.394 146.251 286.603 151.974C286.603 151.974 285.353 166.52 286.762 167.904C287.434 168.567 296.09 171.032 304.65 170.783C310.092 170.653 315.491 169.787 320.701 168.208L320.188 148.174C320.077 143.909 320.861 139.668 322.488 135.724L329.595 118.513ZM301.911 161.709C300.171 161.351 298.546 160.569 297.18 159.434C295.824 158.287 294.762 156.832 294.083 155.191C293.4 153.592 293.074 151.864 293.126 150.126C293.456 151.774 294.014 153.368 294.785 154.862C295.534 156.32 296.564 157.615 297.818 158.672C298.433 159.203 299.112 159.656 299.839 160.021C300.193 160.23 300.577 160.375 300.945 160.549C301.333 160.679 301.712 160.853 302.11 160.957C303.727 161.427 305.39 161.719 307.07 161.829C305.359 162.115 303.608 162.074 301.911 161.709Z" fill="white"></path> <path d="M313.4 118.225L313.375 118.235C313.544 115.107 311.956 108.359 311.956 108.359C311.956 108.359 303.485 108.773 302.334 108.474C302.334 108.474 299.809 108.424 300.053 116.043C300.053 116.043 297.404 113.509 298.007 116.691C298.116 117.269 298.231 117.771 298.35 118.205C293.296 114.968 299.391 101.601 299.416 102.767C299.456 103.129 299.622 103.465 299.884 103.718C300.93 104.893 302.558 103.608 304.017 103.1C304.311 102.996 304.595 102.906 304.874 102.827C305.969 102.518 307.12 102.463 308.239 102.666C309.358 102.869 310.416 103.324 311.333 103.997C312.25 104.67 313.002 105.543 313.531 106.55C314.06 107.557 314.352 108.671 314.386 109.808C314.49 112.648 314.157 115.486 313.4 118.225ZM303.405 125.882C302.616 125.451 301.919 124.871 301.352 124.174C301.066 123.823 300.824 123.439 300.63 123.03C300.44 122.619 300.333 122.175 300.315 121.723C300.452 122.137 300.632 122.537 300.852 122.914C301.078 123.283 301.328 123.636 301.601 123.971C302.165 124.642 302.767 125.281 303.405 125.882ZM305.87 126.865C306.09 126.943 306.32 126.987 306.552 126.995C306.781 127.018 307.01 127.049 307.241 127.078C307.471 127.118 307.703 127.155 307.935 127.214C308.176 127.269 308.411 127.35 308.634 127.458C308.161 127.612 307.658 127.651 307.167 127.571C306.92 127.535 306.678 127.467 306.449 127.368C306.323 127.328 306.207 127.263 306.108 127.176C306.008 127.09 305.927 126.984 305.87 126.865Z" fill="white"></path> <path d="M313.409 118.236C313.405 118.467 313.387 118.697 313.355 118.925C313.317 119.158 313.262 119.374 313.214 119.599L312.907 120.935C312.698 121.829 312.443 122.711 312.144 123.578C311.853 124.461 311.465 125.309 310.985 126.106C310.735 126.519 310.418 126.888 310.047 127.197C309.65 127.535 309.145 127.718 308.624 127.713L308.881 127.532C308.765 128.093 308.755 128.67 308.852 129.234C308.877 129.378 308.904 129.521 308.938 129.662C308.958 129.751 308.973 129.841 308.981 129.932C308.986 130.021 308.984 130.11 308.977 130.199C308.944 130.523 308.877 130.843 308.777 131.153C308.38 132.337 307.815 133.458 307.099 134.481C306.751 135.002 306.35 135.486 305.904 135.927C305.455 136.411 304.877 136.755 304.238 136.92C304.062 136.954 303.881 136.952 303.706 136.916C303.541 136.875 303.381 136.815 303.228 136.74C302.943 136.591 302.678 136.406 302.44 136.189C301.976 135.772 301.566 135.299 301.218 134.78C300.515 133.767 299.957 132.66 299.562 131.492C299.363 130.908 299.22 130.307 299.133 129.697C299.03 129.083 299.036 128.456 299.151 127.844C299.403 126.654 299.591 125.451 299.714 124.24C299.856 123.03 299.988 121.819 300.11 120.607L300.342 120.828C300.129 120.869 299.908 120.856 299.701 120.791C299.496 120.721 299.311 120.604 299.159 120.45C298.888 120.162 298.674 119.826 298.526 119.46C298.243 118.769 298.026 118.052 297.879 117.32C297.779 116.956 297.704 116.586 297.655 116.212C297.63 116.009 297.628 115.804 297.649 115.6C297.656 115.468 297.692 115.339 297.753 115.221C297.814 115.104 297.899 115.001 298.003 114.919C298.12 114.849 298.251 114.807 298.387 114.795C298.523 114.783 298.659 114.803 298.786 114.852C298.983 114.918 299.171 115.007 299.346 115.117C299.676 115.321 299.984 115.557 300.268 115.821L299.748 116.053C299.736 115.346 299.711 114.64 299.746 113.929C299.766 113.215 299.833 112.503 299.945 111.798C300.05 111.073 300.256 110.367 300.558 109.7C300.64 109.532 300.738 109.367 300.833 109.203C300.942 109.04 301.064 108.886 301.199 108.743C301.338 108.591 301.498 108.461 301.676 108.356C301.768 108.299 301.867 108.252 301.969 108.216C302.089 108.171 302.215 108.146 302.343 108.142L302.359 108.143L302.42 108.152L302.669 108.192L302.956 108.214C303.145 108.232 303.348 108.232 303.544 108.241C303.939 108.252 304.337 108.256 304.737 108.255L307.137 108.226C308.739 108.203 310.343 108.159 311.945 108.104L311.952 108.104C312.011 108.102 312.069 108.12 312.115 108.156C312.161 108.192 312.194 108.243 312.206 108.301C312.565 109.937 312.848 111.582 313.089 113.237C313.212 114.063 313.305 114.894 313.368 115.729C313.444 116.562 313.458 117.401 313.409 118.236C313.408 118.241 313.407 118.245 313.405 118.248C313.403 118.252 313.401 118.255 313.398 118.258C313.394 118.261 313.391 118.263 313.387 118.264C313.383 118.266 313.378 118.266 313.374 118.266C313.366 118.265 313.358 118.261 313.353 118.255C313.347 118.249 313.344 118.241 313.345 118.233C313.346 117.402 313.284 116.572 313.161 115.75C313.051 114.927 312.91 114.108 312.762 113.29C312.465 111.655 312.092 110.031 311.709 108.418L311.97 108.615C310.365 108.709 308.759 108.789 307.154 108.854C306.35 108.889 305.546 108.899 304.739 108.907C304.336 108.91 303.932 108.908 303.526 108.899C303.32 108.89 303.121 108.892 302.911 108.874L302.598 108.851L302.253 108.795L302.33 108.806C302.217 108.827 302.11 108.869 302.014 108.931C301.89 109.005 301.778 109.098 301.682 109.207C301.578 109.319 301.482 109.44 301.398 109.569C301.319 109.708 301.238 109.845 301.167 109.991C300.9 110.605 300.712 111.251 300.608 111.913C300.491 112.589 300.418 113.272 300.39 113.958C300.346 114.647 300.361 115.34 300.363 116.033V116.04C300.363 116.1 300.346 116.159 300.312 116.21C300.279 116.26 300.232 116.3 300.177 116.324C300.122 116.348 300.06 116.355 300.001 116.345C299.941 116.335 299.886 116.307 299.842 116.266C299.593 116.028 299.322 115.815 299.032 115.629C298.899 115.542 298.756 115.471 298.607 115.417C298.47 115.373 298.357 115.376 298.333 115.403C298.295 115.414 298.241 115.532 298.222 115.677C298.203 115.837 298.2 115.999 298.215 116.16C298.252 116.512 298.313 116.862 298.397 117.206C298.517 117.912 298.704 118.606 298.955 119.277C299.205 119.918 299.633 120.561 300.276 120.432C300.307 120.426 300.338 120.427 300.368 120.436C300.398 120.444 300.425 120.459 300.448 120.481C300.471 120.502 300.488 120.528 300.499 120.557C300.51 120.587 300.513 120.618 300.509 120.649L300.509 120.653C300.35 121.864 300.181 123.072 300.002 124.279C299.811 125.483 299.646 126.697 299.363 127.888C299.178 129.081 299.317 130.301 299.767 131.422C300.163 132.564 300.734 133.638 301.46 134.605C301.811 135.087 302.22 135.524 302.679 135.906C302.898 136.092 303.141 136.249 303.401 136.373C303.523 136.428 303.651 136.471 303.782 136.5C303.907 136.522 304.035 136.518 304.158 136.488C304.697 136.317 305.178 135.998 305.545 135.567C305.952 135.135 306.321 134.67 306.649 134.176C307.314 133.184 307.847 132.111 308.236 130.983C308.328 130.715 308.392 130.437 308.426 130.155C308.432 130.092 308.435 130.029 308.433 129.965C308.428 129.904 308.419 129.844 308.405 129.784C308.37 129.628 308.343 129.472 308.319 129.314C308.218 128.672 308.242 128.016 308.391 127.383C308.404 127.329 308.436 127.281 308.481 127.248C308.526 127.215 308.58 127.198 308.636 127.201L308.648 127.202C309.048 127.207 309.437 127.068 309.743 126.81C310.075 126.536 310.365 126.213 310.602 125.852C311.091 125.1 311.495 124.296 311.805 123.454C312.131 122.608 312.412 121.744 312.678 120.873L313.059 119.56C313.118 119.341 313.189 119.118 313.242 118.903C313.29 118.682 313.324 118.458 313.345 118.233C313.345 118.225 313.349 118.217 313.356 118.211C313.362 118.206 313.37 118.203 313.379 118.204C313.387 118.204 313.395 118.208 313.4 118.214C313.406 118.22 313.409 118.228 313.409 118.236Z" fill="white"></path> <path d="M313.122 113.701C312.826 113.553 312.551 113.409 312.277 113.284C312.018 113.158 311.744 113.068 311.461 113.016C311.2 112.969 310.931 112.996 310.684 113.094C310.41 113.223 310.157 113.392 309.933 113.596C310.014 113.258 310.212 112.961 310.492 112.756C310.798 112.544 311.175 112.461 311.542 112.525C311.884 112.589 312.206 112.736 312.478 112.953C312.744 113.152 312.964 113.408 313.122 113.701ZM305.573 113.102C304.945 112.781 304.241 112.636 303.537 112.683C303.201 112.721 302.875 112.819 302.574 112.973C302.41 113.036 302.27 113.148 302.107 113.23C301.952 113.326 301.807 113.439 301.634 113.534C301.725 113.364 301.828 113.201 301.944 113.047C302.07 112.897 302.213 112.761 302.369 112.642C302.692 112.391 303.077 112.235 303.482 112.189C303.888 112.144 304.298 112.21 304.669 112.379C305.029 112.536 305.341 112.785 305.573 113.102ZM310.036 118.261C309.997 118.511 309.889 118.745 309.726 118.938C309.562 119.131 309.348 119.275 309.108 119.355C308.868 119.44 308.611 119.465 308.359 119.426C308.114 119.394 307.882 119.296 307.688 119.144C307.934 119.094 308.151 119.078 308.358 119.038C308.556 119.005 308.75 118.954 308.939 118.886C309.128 118.821 309.309 118.736 309.481 118.634C309.672 118.519 309.858 118.395 310.036 118.261ZM310.971 116.353C311.164 116.346 311.348 116.264 311.482 116.125C311.617 115.986 311.692 115.799 311.692 115.606C311.692 115.412 311.617 115.226 311.482 115.087C311.348 114.947 311.164 114.866 310.971 114.859C310.777 114.866 310.594 114.947 310.459 115.087C310.325 115.226 310.249 115.412 310.249 115.606C310.249 115.799 310.325 115.986 310.459 116.125C310.594 116.264 310.777 116.346 310.971 116.353ZM304.4 116.273C304.593 116.267 304.777 116.185 304.911 116.046C305.046 115.906 305.121 115.72 305.121 115.526C305.121 115.333 305.046 115.146 304.911 115.007C304.777 114.868 304.593 114.786 304.4 114.779C304.206 114.786 304.022 114.868 303.888 115.007C303.753 115.146 303.678 115.333 303.678 115.526C303.678 115.72 303.753 115.906 303.888 116.046C304.022 116.185 304.206 116.267 304.4 116.273ZM306.784 120.902C306.687 121.186 306.702 121.495 306.824 121.769C306.935 122.022 307.106 122.243 307.322 122.415C307.533 122.59 307.785 122.71 308.054 122.763C308.199 122.791 308.348 122.791 308.493 122.762C308.638 122.733 308.775 122.675 308.898 122.592C308.824 122.759 308.704 122.9 308.551 123C308.398 123.099 308.22 123.151 308.038 123.151C307.663 123.164 307.297 123.039 307.008 122.801C306.718 122.568 306.52 122.238 306.451 121.871C306.41 121.695 306.42 121.51 306.479 121.339C306.538 121.168 306.643 121.016 306.784 120.902ZM293.099 113.646L290.234 108.006L287.336 102.386C286.363 100.517 285.371 98.6581 284.331 96.8303C283.817 95.9134 283.295 95.0007 282.741 94.1125C282.463 93.6689 282.178 93.2308 281.876 92.8102C281.604 92.3976 281.275 92.0256 280.898 91.7053L280.89 91.6992C280.863 91.6797 280.84 91.655 280.822 91.6266C280.804 91.5982 280.793 91.5666 280.787 91.5336C280.782 91.5006 280.783 91.4669 280.791 91.4344C280.798 91.4018 280.812 91.3711 280.832 91.3439C280.853 91.3144 280.88 91.2897 280.912 91.2715C281.046 91.1746 281.151 91.0431 281.215 90.8912C281.289 90.7142 281.33 90.5257 281.338 90.3342C281.343 89.9207 281.278 89.5094 281.144 89.118C281.006 88.712 280.836 88.3175 280.636 87.9385C280.441 87.5522 280.208 87.1849 279.981 86.8139L279.975 86.8046C279.965 86.7882 279.958 86.77 279.955 86.7511L279.569 84.4725L279.476 83.9017L279.43 83.6149L279.409 83.4712C279.402 83.4334 279.391 83.3964 279.377 83.3605C279.318 83.1993 279.222 83.054 279.097 82.936C278.973 82.818 278.822 82.7305 278.658 82.6803C278.343 82.6263 278.056 82.951 278.036 83.2911C278.027 83.6526 278.037 84.0539 278.04 84.4331C278.045 84.8173 278.048 85.2024 278.07 85.584C278.092 85.6936 278.086 85.8069 278.053 85.9135C278.019 86.02 277.959 86.1164 277.878 86.1935C277.704 86.328 277.487 86.3935 277.267 86.3775C276.862 86.3476 276.472 86.2104 276.137 85.9799C275.97 85.8745 275.814 85.7398 275.668 85.6347C275.516 85.5265 275.354 85.4273 275.19 85.3325C274.52 84.962 273.829 84.6323 273.119 84.3451L272.052 83.9151C271.709 83.7665 271.356 83.6452 270.994 83.5524C270.841 83.5106 270.679 83.5137 270.527 83.5613C270.376 83.609 270.241 83.6992 270.139 83.8212C270.027 84.1393 270.041 84.4881 270.178 84.7964C270.189 84.831 270.19 84.8681 270.18 84.9032C270.171 84.9383 270.151 84.9699 270.125 84.9944C270.098 85.0189 270.064 85.0351 270.029 85.0413C269.993 85.0474 269.956 85.0432 269.923 85.029L269.92 85.0278L268.995 84.6353C268.721 84.4898 268.42 84.4004 268.111 84.3725C267.836 84.3505 267.562 84.4333 267.345 84.6043C267.189 84.7485 267.216 85.0149 267.335 85.292C267.352 85.3328 267.358 85.3777 267.351 85.4216C267.344 85.4654 267.325 85.5065 267.296 85.54C267.267 85.5735 267.229 85.5982 267.186 85.6112C267.144 85.6241 267.099 85.6249 267.056 85.6133L267.047 85.611C266.699 85.5164 266.346 85.4423 265.989 85.389C265.66 85.3261 265.322 85.3233 264.992 85.3805C264.86 85.4212 264.74 85.4927 264.641 85.5892C264.543 85.6856 264.469 85.8042 264.425 85.935C264.364 86.1603 264.519 86.4099 264.761 86.6249C264.814 86.672 264.848 86.7369 264.857 86.8073C264.865 86.8777 264.847 86.9487 264.807 87.0069L264.802 87.0128C264.717 87.1192 264.654 87.2421 264.618 87.3739C264.582 87.5057 264.573 87.6435 264.593 87.7787C264.643 87.9494 264.936 88.0788 265.264 88.1163C265.457 88.1322 265.649 88.1596 265.839 88.1982C266.031 88.244 266.221 88.3021 266.406 88.3721C266.764 88.5086 267.113 88.6691 267.449 88.8524C268.108 89.2136 268.745 89.6135 269.356 90.05C269.968 90.4817 270.558 90.9295 271.139 91.41L271.104 91.3835C272.125 92.0334 273.146 92.6902 274.177 93.3231C274.691 93.6374 275.211 93.9566 275.728 94.2358L275.917 94.3316L276.2 94.4566C276.255 94.506 276.301 94.5643 276.337 94.629L276.402 94.7423L276.512 94.9559C276.65 95.2369 276.775 95.5154 276.899 95.7954C277.881 98.0315 278.737 100.305 279.576 102.589C280.413 104.871 281.203 107.172 281.908 109.501C282.26 110.665 282.6 111.834 282.88 113.019C283.196 114.198 283.386 115.406 283.449 116.625C283.449 116.629 283.448 116.633 283.447 116.637C283.445 116.641 283.443 116.644 283.44 116.647C283.437 116.65 283.433 116.653 283.429 116.655C283.426 116.656 283.421 116.657 283.417 116.657C283.409 116.657 283.401 116.653 283.395 116.647C283.389 116.642 283.385 116.634 283.385 116.625C283.266 115.421 283.022 114.232 282.654 113.079C282.315 111.916 281.949 110.761 281.558 109.613C280.773 107.32 279.928 105.046 279.057 102.784C278.177 100.526 277.268 98.2734 276.301 96.061C276.179 95.7866 276.053 95.5118 275.923 95.2488L275.823 95.0579L275.775 94.9739C275.77 94.9579 275.72 94.9059 275.778 94.9637C275.806 94.9803 275.774 94.9742 275.879 95.0177C275.909 95.0265 275.94 95.0307 275.97 95.0303L275.948 95.0287C275.918 95.0261 275.888 95.0215 275.859 95.015C275.827 95.007 275.796 94.997 275.766 94.9851C275.71 94.9653 275.681 94.9487 275.637 94.9301L275.419 94.821C274.866 94.5252 274.35 94.2101 273.827 93.894C272.788 93.2577 271.758 92.6146 270.737 91.952L270.704 91.9283L270.701 91.9254C269.597 90.9786 268.408 90.1348 267.15 89.4045C266.84 89.2312 266.519 89.0788 266.189 88.9486C266.029 88.8862 265.866 88.8339 265.7 88.7922C265.528 88.756 265.355 88.73 265.18 88.7144C264.965 88.6878 264.755 88.627 264.559 88.5341C264.32 88.4252 264.132 88.2266 264.037 87.9809C263.961 87.7432 263.963 87.4872 264.045 87.2512C264.111 87.0436 264.209 86.8476 264.335 86.6701L264.376 87.0579C264.21 86.9096 264.071 86.7323 263.968 86.5347C263.855 86.3075 263.826 86.0476 263.886 85.8011C263.952 85.5709 264.082 85.364 264.26 85.2045C264.427 85.0456 264.63 84.9308 264.852 84.8706C265.255 84.7999 265.667 84.8074 266.067 84.8929C266.444 84.9581 266.816 85.0455 267.182 85.1546L266.895 85.4735C266.818 85.2902 266.776 85.094 266.772 84.8953C266.771 84.7813 266.794 84.6683 266.838 84.563C266.881 84.4578 266.946 84.3625 267.028 84.2829C267.181 84.1562 267.357 84.061 267.547 84.0031C267.737 83.9451 267.937 83.9253 268.134 83.945C268.493 83.9831 268.841 84.0919 269.158 84.2652L270.073 84.6794L269.815 84.9107C269.733 84.7084 269.693 84.4918 269.697 84.2737C269.701 84.0557 269.748 83.8405 269.836 83.641C269.9 83.5402 269.983 83.4533 270.081 83.3854C270.179 83.3176 270.29 83.2701 270.406 83.2459C270.617 83.1976 270.835 83.1932 271.048 83.2329C271.43 83.3377 271.803 83.4744 272.162 83.6417L273.225 84.1015C273.928 84.4214 274.63 84.7461 275.305 85.1353C275.473 85.2343 275.638 85.338 275.799 85.4546C275.964 85.5764 276.098 85.6964 276.256 85.7978C276.556 86.0096 276.907 86.1383 277.273 86.1709C277.442 86.1865 277.61 86.1404 277.747 86.0411C277.805 85.9844 277.848 85.9133 277.871 85.8348C277.893 85.7563 277.894 85.6733 277.875 85.5941L277.837 84.4369C277.83 84.0468 277.814 83.678 277.82 83.2703C277.837 83.0521 277.925 82.8455 278.072 82.6832C278.149 82.5983 278.245 82.5329 278.352 82.4925C278.459 82.4522 278.575 82.4379 278.688 82.451C278.905 82.4884 279.103 82.5955 279.253 82.7559C279.402 82.9024 279.522 83.0766 279.606 83.2688C279.627 83.3224 279.644 83.378 279.654 83.4349L279.677 83.5764L279.725 83.8592L279.831 84.4256L280.287 86.6881L280.261 86.6254C280.506 86.9969 280.756 87.3651 280.97 87.7589C281.193 88.151 281.384 88.5605 281.542 88.9835C281.706 89.4215 281.792 89.8848 281.797 90.3525C281.808 90.6153 281.754 90.8769 281.641 91.1141C281.527 91.3514 281.357 91.5571 281.145 91.7131L281.158 91.2793C281.607 91.6172 281.996 92.0283 282.308 92.4953C282.625 92.9282 282.92 93.3715 283.206 93.8191C283.775 94.7157 284.314 95.6268 284.833 96.5483C285.857 98.3986 286.829 100.274 287.782 102.157C288.742 104.037 289.641 105.947 290.545 107.853C291.447 109.761 292.317 111.683 293.158 113.619C293.161 113.627 293.161 113.636 293.158 113.643C293.155 113.651 293.149 113.658 293.142 113.661C293.134 113.665 293.126 113.665 293.118 113.662C293.11 113.66 293.103 113.654 293.099 113.646Z" fill="white"></path> <path d="M277.947 93.9132C277.396 94.4162 276.718 94.7573 275.986 94.8989C275.95 94.9056 275.914 94.9053 275.878 94.8979C275.843 94.8905 275.81 94.8763 275.78 94.856C275.75 94.8357 275.725 94.8097 275.705 94.7795C275.685 94.7494 275.671 94.7156 275.665 94.6802C275.658 94.6447 275.658 94.6083 275.666 94.573C275.673 94.5377 275.688 94.5043 275.708 94.4745C275.728 94.4447 275.754 94.4193 275.784 94.3995C275.815 94.3798 275.848 94.3663 275.884 94.3596C275.907 94.3554 275.931 94.3541 275.955 94.3556C276.647 94.3937 277.336 94.2406 277.947 93.9132ZM277.445 87.4511C277.617 87.976 277.742 88.489 277.917 88.982C277.998 89.2283 278.097 89.4684 278.212 89.7005C278.329 89.9374 278.478 90.1572 278.655 90.3538C278.391 90.2464 278.164 90.066 278 89.8338C277.833 89.6064 277.703 89.3544 277.614 89.0868C277.431 88.5623 277.373 88.0021 277.445 87.4511ZM273.946 86.6167L269.804 85.0031C269.764 84.9876 269.733 84.957 269.715 84.918C269.698 84.879 269.697 84.8348 269.713 84.795C269.728 84.7553 269.759 84.7234 269.798 84.7063C269.837 84.6891 269.881 84.6882 269.921 84.7036L269.931 84.7083L273.946 86.6167ZM271.944 87.4113L267.055 85.574C267.035 85.5667 267.017 85.5555 267.001 85.5411C266.986 85.5267 266.973 85.5094 266.965 85.4901C266.956 85.4709 266.951 85.4501 266.95 85.4289C266.949 85.4078 266.953 85.3867 266.96 85.3669C266.968 85.3471 266.979 85.3289 266.994 85.3135C267.008 85.2981 267.025 85.2857 267.045 85.277C267.064 85.2683 267.085 85.2635 267.106 85.2629C267.127 85.2622 267.148 85.2658 267.168 85.2734L267.177 85.277L271.944 87.4113ZM269.784 88.1816C268.929 87.8926 268.066 87.6295 267.196 87.3982C266.76 87.2858 266.323 87.1795 265.884 87.0968C265.461 87.0021 265.027 86.9696 264.595 87.0005L264.577 87.003C264.556 87.0058 264.535 87.0045 264.514 86.9991C264.494 86.9938 264.475 86.9844 264.458 86.9716C264.441 86.9589 264.427 86.9429 264.416 86.9247C264.406 86.9065 264.399 86.8863 264.396 86.8654C264.393 86.8445 264.394 86.8232 264.4 86.8028C264.405 86.7824 264.415 86.7633 264.427 86.7465C264.44 86.7297 264.456 86.7156 264.474 86.705C264.493 86.6943 264.513 86.6874 264.534 86.6846L264.544 86.6835C265.014 86.6713 265.483 86.7313 265.935 86.8615C266.377 86.9722 266.81 87.1054 267.241 87.2443C268.1 87.5282 268.948 87.8406 269.784 88.1816ZM327.324 116.605L329.164 109.766L330.069 106.346C330.213 105.775 330.359 105.203 330.484 104.633C330.602 104.062 330.69 103.485 330.746 102.905C331.01 100.566 331.226 98.2135 331.472 95.8648C331.592 94.69 331.725 93.5152 331.869 92.3404C331.942 91.7531 332.024 91.1655 332.116 90.5776C332.172 90.2829 332.221 89.9901 332.286 89.6938L332.396 89.2473C332.447 89.0841 332.507 88.9239 332.576 88.7675C332.593 88.7261 332.624 88.6922 332.663 88.6723L332.701 88.6536C333.228 88.3822 333.729 88.0631 334.198 87.7003C334.676 87.3387 335.125 86.9409 335.542 86.5105C336.379 85.6497 337.088 84.6726 337.645 83.6095L337.649 83.6027C337.66 83.5822 337.674 83.5635 337.69 83.5471L340.743 80.5363C340.837 80.425 340.897 80.2895 340.918 80.1453C340.946 79.9867 340.95 79.8249 340.93 79.6652C340.92 79.5313 340.858 79.4065 340.758 79.3178C340.645 79.2441 340.508 79.2156 340.375 79.2382C340.229 79.2626 340.093 79.3285 339.983 79.4278L339.604 79.7987C339.345 80.0497 339.082 80.2969 338.812 80.5376C338.283 81.0464 337.688 81.4806 337.042 81.8285C336.947 81.87 336.847 81.8967 336.744 81.9076C336.678 81.9162 336.611 81.9067 336.55 81.8801C336.489 81.8534 336.436 81.8107 336.397 81.7565C336.35 81.6594 336.323 81.5534 336.319 81.4454C336.314 81.3374 336.333 81.2297 336.372 81.1291C336.501 80.7793 336.684 80.4518 336.913 80.1584C337.352 79.5825 337.834 79.0401 338.353 78.5359C338.888 78.0769 339.31 77.5005 339.586 76.8516C339.709 76.532 339.668 76.1692 339.353 76.0484C339.201 75.9882 339.035 75.9691 338.873 75.9929C338.711 76.0167 338.558 76.0825 338.429 76.1839C337.835 76.5695 337.302 77.0406 336.846 77.5819C336.611 77.8491 336.381 78.1219 336.163 78.4046C335.937 78.6804 335.75 78.9829 335.49 79.2586C335.36 79.3944 335.217 79.5165 335.063 79.623C334.985 79.6792 334.902 79.7288 334.815 79.7712C334.76 79.806 334.697 79.8267 334.632 79.8315C334.567 79.8364 334.502 79.8252 334.443 79.7989C334.405 79.7743 334.374 79.7401 334.353 79.6998C334.34 79.667 334.331 79.6331 334.324 79.5985C334.318 79.5436 334.319 79.4881 334.327 79.4333C334.339 79.3368 334.36 79.2417 334.39 79.1492C334.444 78.9725 334.509 78.7992 334.583 78.6301C334.73 78.294 334.906 77.9712 335.109 77.6654L335.72 76.7782C336.12 76.1932 336.47 75.576 336.767 74.933C336.914 74.6338 337 74.3088 337.02 73.9764C337.019 73.9104 337.005 73.8454 336.977 73.7857C336.949 73.7259 336.909 73.6727 336.859 73.6295C336.815 73.5854 336.762 73.5529 336.703 73.5349C336.643 73.5169 336.581 73.514 336.52 73.5264C336.216 73.6195 335.947 73.8014 335.747 74.0486C335.516 74.305 335.311 74.5847 335.137 74.8832C334.953 75.1839 334.805 75.489 334.644 75.8204C334.481 76.1491 334.302 76.4655 334.115 76.7774C333.745 77.4094 333.327 78.0113 332.862 78.5774C332.801 78.6486 332.736 78.7194 332.664 78.7888C332.627 78.8255 332.588 78.8603 332.548 78.893C332.521 78.9183 332.49 78.9397 332.458 78.9568C332.432 78.9706 332.406 78.9828 332.379 78.9932C332.332 79.0045 332.283 79.0073 332.236 79.0012C332.151 78.9867 332.075 78.9404 332.024 78.8717C331.995 78.8338 331.973 78.7917 331.957 78.7469C331.936 78.6877 331.921 78.6266 331.912 78.5645C331.899 78.4649 331.892 78.3646 331.89 78.2642C331.89 77.894 331.911 77.5241 331.954 77.1564C332.066 76.4375 332.217 75.7252 332.406 75.0226C332.481 74.6947 332.517 74.3589 332.512 74.0224C332.515 73.7025 332.459 73.3847 332.347 73.0849C332.293 72.958 332.206 72.8706 332.193 72.8806C332.185 72.8895 332.187 72.8778 332.174 72.881C332.16 72.8904 332.144 72.8962 332.127 72.8979C332.076 72.9299 332.028 72.9669 331.984 73.0084C331.764 73.2512 331.576 73.5226 331.428 73.8154C331.094 74.4234 330.837 75.0701 330.66 75.741C330.571 76.0779 330.497 76.4195 330.435 76.7665C330.366 77.1198 330.333 77.4514 330.236 77.8533C330.048 78.5766 329.774 79.2742 329.417 79.9308C329.222 80.3193 328.907 80.6351 328.52 80.8325C328.392 80.8834 328.255 80.9049 328.118 80.8955C328.049 80.892 327.98 80.8831 327.912 80.8688L327.735 80.7925C327.533 80.6922 327.355 80.5514 327.211 80.3787C326.658 79.7261 326.538 78.9474 326.187 78.4563C326.115 78.3443 326.018 78.2499 325.905 78.1798C325.792 78.1096 325.664 78.0656 325.532 78.0508C325.384 78.0324 325.235 78.0341 325.088 78.0559L324.861 78.0962C324.804 78.121 324.73 78.1376 324.685 78.1619C324.589 78.2252 324.611 78.2083 324.603 78.2762C324.625 78.4028 324.672 78.5235 324.743 78.6309C324.904 78.9093 325.123 79.1934 325.332 79.4973C325.443 79.6538 325.545 79.8169 325.636 79.9857C325.736 80.1681 325.81 80.3629 325.858 80.5649C325.945 80.9431 325.99 81.3018 326.038 81.6635L326.288 83.7998C326.336 84.1503 326.387 84.5005 326.458 84.8368C326.491 84.9996 326.534 85.1603 326.587 85.3179C326.62 85.4328 326.672 85.5414 326.741 85.6391L326.815 85.7543C326.837 85.788 326.851 85.8259 326.856 85.8655C326.862 85.905 326.859 85.9453 326.848 85.9836C326.178 88.2288 325.47 90.4625 324.783 92.7023L322.707 99.4177L320.632 106.133L318.506 112.833C318.503 112.841 318.497 112.848 318.49 112.852C318.483 112.856 318.474 112.857 318.466 112.854C318.458 112.852 318.451 112.846 318.447 112.839C318.443 112.832 318.442 112.823 318.444 112.815L320.349 106.048L322.305 99.2973L324.261 92.546C324.918 90.2971 325.554 88.0419 326.228 85.7981L326.335 86.1426C326.237 86.0515 326.157 85.9437 326.097 85.8242C326.046 85.7311 326.005 85.6328 325.974 85.5311C325.912 85.3486 325.861 85.1624 325.822 84.9736C325.744 84.6079 325.691 84.2472 325.64 83.8868L325.383 81.7465C325.336 81.3971 325.289 81.0426 325.213 80.7213C325.126 80.4142 324.98 80.1269 324.783 79.8757C324.586 79.5881 324.362 79.3049 324.161 78.9628C324.037 78.7676 323.959 78.5465 323.933 78.3164C323.922 78.2407 323.927 78.1635 323.949 78.0902C323.962 78.0088 323.993 77.9314 324.041 77.8642C324.122 77.7393 324.234 77.6376 324.366 77.5694C324.471 77.5196 324.58 77.4776 324.691 77.4439L324.993 77.3879C325.202 77.3566 325.413 77.3541 325.622 77.3805C325.847 77.4085 326.062 77.4838 326.255 77.6016C326.448 77.7194 326.614 77.8768 326.742 78.0635C327.206 78.7597 327.317 79.4874 327.718 79.9366C327.802 80.0413 327.907 80.1278 328.026 80.1907C328.049 80.2011 328.072 80.2131 328.093 80.2265C328.115 80.2313 328.134 80.2255 328.153 80.23C328.191 80.2496 328.234 80.2161 328.277 80.2141C328.525 80.0682 328.725 79.8537 328.853 79.5966C329.185 78.9914 329.442 78.3484 329.62 77.6816C329.696 77.3865 329.745 77.0028 329.815 76.652C329.882 76.2931 329.963 75.9333 330.06 75.5771C330.255 74.8594 330.537 74.1683 330.9 73.5193C331.08 73.1727 331.308 72.8535 331.578 72.5713C331.665 72.4901 331.762 72.4203 331.866 72.3635C331.935 72.3371 332.004 72.3145 332.075 72.2958C332.158 72.2862 332.241 72.2886 332.323 72.3029C332.453 72.3438 332.57 72.4142 332.668 72.5085C332.765 72.6028 332.84 72.7184 332.885 72.8462C333.028 73.2193 333.098 73.6162 333.091 74.0156C333.092 74.3976 333.046 74.7783 332.954 75.1491C332.759 75.8296 332.599 76.5199 332.477 77.2173C332.431 77.5621 332.404 77.9092 332.398 78.257C332.398 78.3359 332.402 78.4149 332.41 78.4934C332.414 78.5202 332.419 78.5466 332.427 78.5726C332.43 78.589 332.429 78.5738 332.42 78.5673C332.393 78.5368 332.356 78.5162 332.315 78.5087C332.29 78.5033 332.263 78.5055 332.239 78.5149C332.232 78.5147 332.225 78.5164 332.219 78.5198C332.198 78.5371 332.227 78.5145 332.238 78.505C332.268 78.4819 332.296 78.4572 332.323 78.4309C332.381 78.3766 332.439 78.3162 332.496 78.2525C332.951 77.715 333.363 77.1429 333.728 76.5413C333.916 76.2404 334.095 75.9344 334.257 75.6234C334.415 75.3116 334.586 74.9729 334.783 74.6648C334.977 74.3459 335.203 74.0479 335.458 73.7757C335.719 73.467 336.071 73.2485 336.464 73.151C336.581 73.1324 336.701 73.1417 336.814 73.178C336.926 73.2144 337.029 73.2768 337.113 73.3603C337.195 73.4367 337.261 73.5285 337.307 73.6304C337.355 73.7354 337.38 73.8493 337.381 73.9646C337.358 74.3504 337.256 74.7273 337.08 75.0715C336.763 75.7268 336.392 76.3545 335.971 76.948C335.53 77.5052 335.146 78.1047 334.824 78.7376C334.751 78.8956 334.687 79.0578 334.633 79.2233C334.606 79.301 334.586 79.3812 334.574 79.4626C334.565 79.5054 334.565 79.5496 334.573 79.5925C334.622 79.5911 334.67 79.5779 334.713 79.5539C334.788 79.5176 334.86 79.4752 334.927 79.4271C335.069 79.3305 335.201 79.2196 335.32 79.096C335.556 78.8517 335.754 78.5416 335.984 78.2639C336.207 77.9796 336.441 77.7045 336.682 77.4348C337.156 76.8796 337.71 76.3979 338.326 76.0054C338.489 75.9048 338.667 75.8319 338.854 75.7896C339.053 75.7517 339.258 75.7797 339.439 75.8693C339.536 75.9104 339.621 75.9737 339.688 76.0541C339.755 76.1345 339.803 76.2297 339.826 76.3318C339.859 76.527 339.84 76.7275 339.771 76.9129C339.491 77.5943 339.058 78.2016 338.504 78.6871C337.997 79.1875 337.528 79.7249 337.102 80.295C336.89 80.5692 336.722 80.8744 336.604 81.1997C336.551 81.3333 336.55 81.4819 336.601 81.6164C336.627 81.6873 336.796 81.6627 336.945 81.5958C337.558 81.2509 338.12 80.8217 338.614 80.3206C338.874 80.0773 339.129 79.827 339.38 79.5728L339.762 79.1822C339.917 79.0366 340.111 78.9387 340.32 78.9001C340.545 78.8581 340.776 78.9051 340.966 79.0312C341.147 79.1724 341.264 79.3792 341.292 79.6064C341.322 79.8027 341.322 80.0023 341.293 80.1987C341.266 80.4126 341.181 80.6149 341.046 80.7832L338.034 83.889L338.079 83.8266C337.801 84.3872 337.482 84.9266 337.124 85.4402C336.766 85.9534 336.366 86.437 335.93 86.8864C335.497 87.3392 335.031 87.7581 334.534 88.1394C334.036 88.5303 333.502 88.8739 332.941 89.1657L333.065 89.0519C333.028 89.172 332.978 89.268 332.943 89.4028L332.844 89.8165C332.785 90.0968 332.738 90.3869 332.686 90.6721C332.592 91.2499 332.504 91.8299 332.427 92.4134C332.272 93.5796 332.13 94.7492 332.001 95.9221C331.731 98.2658 331.511 100.615 331.203 102.962C331.132 103.555 331.03 104.144 330.897 104.727C330.757 105.307 330.599 105.875 330.442 106.445L329.463 109.851C328.786 112.113 328.088 114.368 327.386 116.623C327.383 116.631 327.378 116.637 327.37 116.641C327.363 116.645 327.354 116.646 327.346 116.644C327.338 116.642 327.331 116.636 327.327 116.629C327.323 116.621 327.322 116.613 327.324 116.605Z" fill="white"></path> <path d="M335.091 82.758C334.666 82.2678 334.213 81.8034 333.733 81.3672C333.499 81.1565 333.242 80.9727 332.968 80.8191C332.686 80.6656 332.379 80.5637 332.062 80.5182C332.398 80.44 332.749 80.4652 333.07 80.5905C333.391 80.7144 333.687 80.8953 333.943 81.1245C334.453 81.5677 334.846 82.1284 335.091 82.758ZM330.936 81.4192C331.02 81.9372 331.021 82.4653 330.938 82.9836C330.9 83.2437 330.84 83.5001 330.758 83.75C330.683 84.0078 330.551 84.2456 330.373 84.446C330.437 84.1979 330.484 83.9457 330.514 83.6912L330.621 82.9362C330.689 82.4235 330.794 81.9165 330.936 81.4192ZM328.488 86.6263C328.11 86.6703 327.727 86.6568 327.353 86.5863C326.931 86.5169 326.542 86.3112 326.248 86.0007L326.235 85.9869C326.206 85.9551 326.184 85.9179 326.17 85.8775C326.155 85.837 326.149 85.7941 326.151 85.7513C326.153 85.7084 326.164 85.6663 326.182 85.6275C326.2 85.5887 326.226 85.5539 326.258 85.5251C326.29 85.4963 326.327 85.4741 326.368 85.4597C326.408 85.4453 326.451 85.439 326.494 85.4412C326.537 85.4434 326.579 85.4541 326.618 85.4725C326.656 85.491 326.691 85.5169 326.72 85.5488C326.743 85.5748 326.762 85.6043 326.776 85.6361C326.927 85.9204 327.167 86.1476 327.458 86.2831C327.782 86.4487 328.13 86.5644 328.488 86.6263ZM286.239 168.439C286.25 171.521 286.251 174.604 286.212 177.685C286.179 180.766 286.158 183.848 286.088 186.929L285.905 196.171C285.83 199.251 285.727 202.331 285.594 205.41L285.473 205.151C286.811 206.185 288.254 207.076 289.778 207.81C291.301 208.564 292.919 209.109 294.587 209.428C296.256 209.75 297.973 209.726 299.632 209.358C301.283 208.971 302.822 208.208 304.128 207.127C304.146 207.112 304.167 207.101 304.19 207.094C304.212 207.088 304.236 207.086 304.259 207.088L304.268 207.09C306.088 207.305 307.919 207.409 309.751 207.4C311.578 207.397 313.403 207.27 315.213 207.021C317.009 206.785 318.768 206.327 320.45 205.657C322.111 205.027 323.574 203.968 324.69 202.587L324.601 202.906L323.592 194.237L322.634 185.562L321.669 176.887C321.339 173.997 321.016 171.105 320.659 168.216C320.657 168.205 320.66 168.193 320.667 168.184C320.674 168.175 320.684 168.168 320.696 168.167C320.707 168.165 320.719 168.167 320.729 168.174C320.738 168.181 320.745 168.191 320.747 168.202C321.305 171.061 321.773 173.937 322.213 176.815C322.668 179.692 323.054 182.578 323.446 185.463C323.844 188.347 324.195 191.237 324.544 194.127C324.88 197.019 325.194 199.913 325.487 202.81L325.487 202.817C325.498 202.929 325.466 203.04 325.397 203.129C324.171 204.617 322.57 205.751 320.76 206.416C319.005 207.083 317.172 207.521 315.305 207.719C313.46 207.929 311.601 208 309.744 207.931C307.893 207.879 306.046 207.717 304.214 207.445L304.354 207.408C302.987 208.49 301.395 209.252 299.696 209.638C297.997 209.994 296.246 210.023 294.537 209.723C292.832 209.428 291.17 208.923 289.589 208.221C287.998 207.528 286.484 206.667 285.075 205.653C285.037 205.626 285.006 205.59 284.985 205.548C284.964 205.507 284.953 205.461 284.953 205.414L284.953 205.394C284.979 202.312 285.029 199.231 285.103 196.151L285.38 186.911C285.464 183.831 285.596 180.752 285.716 177.673C285.831 174.593 285.985 171.515 286.149 168.437C286.15 168.425 286.155 168.414 286.164 168.406C286.172 168.398 286.184 168.394 286.195 168.394C286.207 168.395 286.218 168.399 286.226 168.408C286.234 168.416 286.239 168.427 286.239 168.439Z" fill="white"></path> <path d="M307.912 177.925C308.626 177.685 309.327 177.427 310.026 177.171C310.721 176.909 311.413 176.64 312.081 176.325C312.755 176.028 313.405 175.68 314.027 175.285C314.655 174.892 315.223 174.41 315.713 173.854C315.351 174.529 314.844 175.114 314.229 175.569C313.623 176.032 312.964 176.423 312.267 176.732C311.578 177.046 310.864 177.304 310.133 177.502C309.407 177.709 308.663 177.85 307.912 177.925Z" fill="white"></path> <path d="M304.24 207.268C304.384 204.729 304.635 202.199 304.924 199.673C305.211 197.147 305.584 194.631 305.991 192.12C306.429 189.614 306.903 187.113 307.526 184.643C308.101 182.162 308.896 179.737 309.9 177.396L309.285 179.199L308.762 181.028C308.436 182.253 308.117 183.48 307.861 184.722C307.585 185.959 307.338 187.203 307.088 188.446C306.864 189.695 306.628 190.941 306.432 192.194C305.989 194.692 305.624 197.204 305.263 199.717C305.079 200.973 304.905 202.231 304.742 203.49L304.24 207.268Z" fill="white"></path> <path d="M308.677 207.639L309.033 200.937C309.142 198.704 309.266 196.472 309.322 194.239C309.415 192.007 309.448 189.774 309.423 187.541C309.411 186.426 309.376 185.31 309.282 184.199C309.232 183.084 309.028 181.981 308.677 180.922C309.112 181.959 309.39 183.056 309.5 184.176C309.639 185.291 309.713 186.411 309.767 187.531C309.866 189.773 309.827 192.015 309.769 194.254C309.675 196.492 309.558 198.729 309.374 200.96C309.191 203.191 308.975 205.42 308.677 207.639ZM285.673 184.163C287.115 183.987 288.564 183.886 290.016 183.86C290.06 183.859 290.104 183.867 290.145 183.883C290.186 183.899 290.223 183.922 290.255 183.953C290.287 183.983 290.312 184.019 290.33 184.059C290.348 184.099 290.358 184.143 290.359 184.187L290.359 184.188L290.359 184.203C290.373 184.938 290.39 185.673 290.358 186.408C290.327 187.142 290.266 187.877 290.219 188.612C290.112 190.08 290.111 191.554 290.216 193.022C290.255 193.756 290.315 194.491 290.346 195.226C290.378 195.961 290.392 196.696 290.41 197.431C290.46 198.901 290.453 200.37 290.404 201.84L290.403 201.873C290.4 201.96 290.366 202.043 290.307 202.107C290.248 202.171 290.168 202.212 290.082 202.223C289.648 202.276 289.211 202.302 288.774 202.299C288.338 202.299 287.902 202.264 287.472 202.194C287.033 202.127 286.607 201.995 286.207 201.802C286.002 201.709 285.818 201.575 285.667 201.409C285.515 201.244 285.398 201.048 285.324 200.836C285.322 200.831 285.322 200.826 285.323 200.82C285.323 200.815 285.325 200.81 285.328 200.806C285.33 200.801 285.334 200.797 285.338 200.794C285.342 200.79 285.347 200.788 285.352 200.787C285.361 200.785 285.37 200.785 285.378 200.789C285.386 200.792 285.393 200.798 285.398 200.806C285.612 201.147 285.95 201.392 286.341 201.49C286.725 201.605 287.124 201.667 287.525 201.673C287.932 201.678 288.34 201.663 288.746 201.627C289.15 201.586 289.565 201.534 289.951 201.458L289.629 201.84C289.58 200.37 289.573 198.901 289.623 197.431C289.641 196.696 289.655 195.961 289.687 195.226C289.718 194.491 289.778 193.756 289.817 193.022C289.922 191.554 289.921 190.08 289.814 188.612C289.767 187.877 289.706 187.143 289.675 186.408C289.643 185.673 289.66 184.938 289.674 184.203L290.016 184.546C288.564 184.52 287.115 184.419 285.673 184.243C285.663 184.242 285.654 184.237 285.648 184.23C285.641 184.222 285.638 184.213 285.638 184.203C285.638 184.193 285.641 184.184 285.648 184.176C285.654 184.169 285.663 184.164 285.673 184.163Z" fill="white"></path> <path d="M285.613 187.371C286.362 187.335 287.112 187.384 287.851 187.516C288.592 187.629 289.318 187.825 290.016 188.102C289.266 188.139 288.516 188.09 287.777 187.957C287.036 187.843 286.31 187.647 285.613 187.371ZM287.088 206.326C286.561 206.904 286.062 207.506 285.587 208.122C285.141 208.772 284.651 209.392 284.121 209.977C283.841 210.262 283.544 210.525 283.239 210.78C282.921 211.034 282.593 211.254 282.267 211.474L280.316 212.772C277.733 214.493 275.301 216.43 273.047 218.564C271.922 219.628 270.854 220.751 269.825 221.909C268.805 223.083 267.848 224.278 266.886 225.527C265.911 226.766 264.869 227.95 263.764 229.073C262.668 230.211 261.427 231.164 260.26 232.212C260.726 231.58 261.254 230.992 261.765 230.402C262.273 229.804 262.81 229.238 263.327 228.661C264.368 227.509 265.338 226.296 266.268 225.054C268.079 222.474 270.148 220.085 272.444 217.924C273.59 216.84 274.798 215.824 276.062 214.88C277.319 213.931 278.624 213.048 279.973 212.236C280.641 211.825 281.326 211.439 281.997 211.045C282.332 210.848 282.663 210.647 282.974 210.436C283.285 210.212 283.591 209.975 283.877 209.721C284.434 209.182 284.955 208.607 285.436 207.999C285.954 207.41 286.506 206.851 287.088 206.326ZM264.498 241.435C265.259 240.673 266.042 239.935 266.834 239.207C267.628 238.48 268.417 237.746 269.234 237.045C270.865 235.639 272.52 234.258 274.223 232.932C275.931 231.602 277.712 230.368 279.558 229.237C280.494 228.665 281.468 228.159 282.474 227.723C282.726 227.61 282.997 227.526 283.259 227.43C283.514 227.338 283.753 227.262 283.999 227.168C284.485 226.978 284.968 226.771 285.441 226.537C289.225 224.575 292.698 222.064 295.748 219.085C297.289 217.608 298.685 215.987 299.916 214.243C301.194 212.52 302.074 210.535 302.494 208.43C302.315 210.591 301.367 212.62 300.242 214.457C299.072 216.284 297.715 217.984 296.193 219.529C294.689 221.091 293.065 222.533 291.336 223.843C289.614 225.176 287.768 226.342 285.824 227.324C285.335 227.569 284.83 227.789 284.316 227.993C284.061 228.093 283.788 228.182 283.538 228.274C283.297 228.365 283.053 228.442 282.815 228.55C281.845 228.963 280.906 229.443 280.003 229.986C278.177 231.073 276.405 232.276 274.675 233.538C272.93 234.78 271.223 236.082 269.537 237.412C267.842 238.73 266.169 240.079 264.498 241.435ZM288.394 215.002C287.953 215.733 287.491 216.415 287.122 217.137C286.93 217.487 286.782 217.859 286.68 218.244C286.57 218.634 286.574 219.047 286.692 219.435C286.548 219.264 286.443 219.064 286.381 218.85C286.32 218.635 286.304 218.41 286.335 218.189C286.381 217.749 286.513 217.322 286.724 216.933C287.122 216.167 287.694 215.506 288.394 215.002Z" fill="white"></path> <path d="M264.91 241.883C264.493 241.55 263.969 241.38 263.435 241.404C262.31 241.434 259.845 241.175 258.968 238.541C258.781 237.909 258.723 237.246 258.799 236.591C258.876 235.936 259.084 235.303 259.412 234.731C260.054 233.551 260.736 231.793 259.815 230.767C258.331 229.134 255.273 232.221 255.273 232.221C255.273 232.221 253.187 233.69 251.444 233.541C250.731 233.472 250.011 233.571 249.344 233.831C248.676 234.09 248.078 234.503 247.599 235.035C246.319 236.464 245.642 238.71 248.58 241.763C248.58 241.763 250.801 243.76 251.996 251.185C253.192 258.61 256.18 267.759 261.374 265.054C261.575 264.904 261.739 264.71 261.856 264.488C261.972 264.266 262.037 264.02 262.046 263.77C262.006 263.532 261.907 263.308 261.758 263.119C261.61 262.929 261.416 262.78 261.195 262.684C260.979 262.58 260.746 262.518 260.507 262.5C260.26 262.486 260.011 262.496 259.765 262.53C259.222 262.552 258.679 262.462 258.172 262.266C257.175 261.829 256.333 261.102 255.756 260.179C255.189 259.287 254.75 258.32 254.452 257.305L254.442 257.286V257.271C254.048 255.423 253.63 253.576 253.152 251.753C252.913 250.841 252.659 249.93 252.37 249.039C252.119 248.155 251.75 247.31 251.274 246.524C250.773 245.687 250.372 244.795 250.079 243.865C249.77 242.958 249.512 242.037 249.292 241.106C249.076 240.173 248.926 239.226 248.844 238.272C248.717 237.321 248.802 236.353 249.093 235.438C248.904 236.365 248.904 237.321 249.093 238.247C249.252 239.175 249.458 240.094 249.711 241.001C249.97 241.907 250.263 242.799 250.607 243.67C250.931 244.537 251.34 245.369 251.827 246.155C251.942 246.325 252.096 246.579 252.221 246.788C252.33 247.012 252.445 247.231 252.539 247.455C252.734 247.903 252.898 248.357 253.052 248.815C253.356 249.726 253.62 250.642 253.869 251.564C254.342 253.411 254.765 255.259 255.114 257.136C255.381 258.088 255.765 259.004 256.259 259.86C256.738 260.718 257.466 261.411 258.346 261.847C258.79 262.045 259.27 262.149 259.755 262.151C260.021 262.133 260.288 262.141 260.552 262.176C260.825 262.219 261.087 262.314 261.324 262.455C261.567 262.583 261.775 262.77 261.927 262.998C262.079 263.227 262.172 263.491 262.196 263.765C262.167 264.028 262.079 264.282 261.936 264.506C261.794 264.73 261.601 264.917 261.374 265.054C261.374 265.054 263.366 265.015 263.361 260.119C263.356 257.231 263.421 252.858 263.47 249.766C263.017 249.572 262.604 249.347 262.195 249.128L260.99 248.476C260.604 248.27 260.205 248.088 259.795 247.933C259.384 247.76 258.928 247.725 258.495 247.834C258.67 247.639 258.892 247.493 259.14 247.411C259.388 247.328 259.653 247.31 259.91 247.361C260.411 247.419 260.896 247.573 261.339 247.814C261.77 248.043 262.17 248.326 262.529 248.655C262.901 248.972 263.219 249.347 263.47 249.766C263.51 247.62 263.54 246.086 263.54 246.086C263.162 245.752 262.848 245.418 262.499 245.124C262.166 244.83 261.81 244.564 261.434 244.328C260.658 243.846 259.813 243.487 258.929 243.262C259.407 243.096 259.92 243.059 260.418 243.152C260.921 243.235 261.402 243.42 261.832 243.695C262.264 243.964 262.638 244.316 262.932 244.731C263.228 245.135 263.436 245.596 263.54 246.086C263.54 246.086 266.842 243.501 264.91 241.883ZM254.93 243.232C254.048 243.436 252.4 242.147 252.898 240.369C253.476 238.302 253.172 236.977 254.053 236.773C254.935 236.569 255.846 237.854 256.085 239.637C256.329 241.419 255.811 243.028 254.93 243.232ZM259.855 251.115C260.371 251.144 260.876 251.283 261.334 251.524C261.784 251.754 262.195 252.055 262.549 252.415C262.91 252.759 263.203 253.168 263.411 253.62C262.554 253.117 261.802 252.594 260.995 252.191C260.6 251.989 260.189 251.82 259.765 251.688C259.315 251.577 258.854 251.517 258.391 251.509C258.824 251.224 259.337 251.086 259.855 251.115ZM309.858 207.39C309.42 208.038 309.014 208.706 308.634 209.384C308.286 210.093 307.892 210.777 307.452 211.432C307.216 211.755 306.961 212.058 306.696 212.355C306.418 212.653 306.125 212.918 305.835 213.183L304.092 214.749C301.786 216.827 299.661 219.096 297.74 221.534C296.782 222.751 295.887 224.016 295.037 225.311C294.198 226.62 293.424 227.942 292.653 229.318C291.869 230.684 291.01 232.006 290.079 233.278C289.159 234.563 288.069 235.686 287.067 236.892C287.437 236.199 287.873 235.541 288.294 234.883C288.71 234.218 289.159 233.58 289.586 232.934C290.45 231.643 291.233 230.302 291.973 228.939C293.391 226.123 295.092 223.459 297.05 220.989C298.027 219.75 299.075 218.569 300.189 217.452C301.295 216.331 302.459 215.268 303.675 214.269C304.277 213.765 304.899 213.284 305.506 212.797C305.809 212.554 306.107 212.307 306.384 212.053C306.659 211.786 306.927 211.507 307.173 211.215C307.647 210.601 308.079 209.956 308.467 209.285C308.894 208.627 309.359 207.994 309.858 207.39ZM292.597 245.403C295.364 241.757 298.354 238.286 301.549 235.009C303.15 233.353 304.865 231.813 306.683 230.398C307.147 230.05 307.621 229.713 308.118 229.399C308.602 229.084 309.175 228.809 309.637 228.56C310.607 228.007 311.527 227.372 312.39 226.663C314.139 225.233 315.766 223.659 317.253 221.958C318.752 220.263 320.112 218.447 321.317 216.531C322.529 214.62 323.479 212.554 324.143 210.39C324.849 208.22 324.906 205.891 324.308 203.689C325.141 205.838 325.039 208.257 324.504 210.485C323.925 212.722 323.028 214.863 321.839 216.843C319.501 220.831 316.489 224.381 312.936 227.338C312.037 228.084 311.077 228.752 310.066 229.335C309.523 229.627 309.069 229.854 308.591 230.156C308.12 230.448 307.662 230.769 307.21 231.102C305.419 232.487 303.71 233.975 302.092 235.56C300.451 237.133 298.845 238.747 297.274 240.403C295.699 242.051 294.14 243.718 292.597 245.403ZM312.409 215.785C312.078 216.572 311.72 217.314 311.459 218.082C311.321 218.456 311.228 218.845 311.182 219.242C311.131 219.643 311.195 220.051 311.367 220.418C311.2 220.269 311.067 220.087 310.975 219.884C310.883 219.681 310.835 219.46 310.833 219.237C310.815 218.795 310.884 218.353 311.036 217.937C311.319 217.122 311.789 216.385 312.409 215.785Z" fill="white"></path> <path d="M294.183 264.053C293.919 262.266 293.595 259.895 293.292 257.619C292.37 257.241 291.549 256.832 290.697 256.553C290.277 256.411 289.845 256.304 289.407 256.235C288.945 256.187 288.479 256.194 288.018 256.255C288.406 255.912 288.892 255.701 289.407 255.652C289.923 255.611 290.441 255.676 290.931 255.841C291.41 256.002 291.859 256.241 292.261 256.548C292.669 256.837 293.018 257.201 293.292 257.619C293.112 256.265 292.938 254.94 292.794 253.795C292.334 253.67 291.882 253.52 291.439 253.346L290.154 252.878C289.741 252.731 289.318 252.609 288.889 252.515C288.456 252.401 287.998 252.432 287.585 252.604C287.732 252.388 287.932 252.213 288.165 252.096C288.399 251.978 288.658 251.922 288.919 251.932C289.423 251.919 289.925 252.001 290.398 252.176C290.859 252.339 291.298 252.559 291.703 252.833C292.114 253.096 292.482 253.42 292.794 253.795C292.515 251.668 292.326 250.144 292.326 250.144C291.907 249.87 291.544 249.581 291.155 249.342C290.783 249.101 290.394 248.888 289.99 248.705C289.151 248.345 288.263 248.113 287.355 248.018C287.802 247.782 288.305 247.67 288.81 247.694C289.32 247.705 289.822 247.817 290.289 248.023C290.756 248.229 291.177 248.525 291.529 248.894C291.88 249.25 292.152 249.676 292.326 250.144C292.326 250.144 295.219 247.106 293.073 245.787C292.612 245.516 292.068 245.424 291.544 245.528C290.433 245.717 287.963 245.822 286.708 243.342C286.431 242.743 286.279 242.095 286.26 241.436C286.241 240.776 286.356 240.12 286.599 239.507C287.062 238.247 287.48 236.404 286.419 235.528C284.716 234.124 282.136 237.625 282.136 237.625C282.136 237.625 280.284 239.382 278.536 239.487C277.821 239.522 277.124 239.724 276.502 240.077C275.879 240.43 275.348 240.924 274.95 241.519C273.895 243.122 273.551 245.438 276.898 248.038C276.898 248.038 279.383 249.691 281.643 256.862C283.904 264.038 288.187 272.654 292.933 269.223C293.11 269.046 293.245 268.831 293.328 268.595C293.411 268.359 293.439 268.107 293.411 267.858C293.338 267.629 293.208 267.422 293.034 267.255C292.86 267.089 292.647 266.969 292.415 266.907C292.187 266.834 291.947 266.805 291.708 266.822C291.46 266.845 291.215 266.891 290.976 266.962C290.44 267.061 289.889 267.051 289.357 266.932C288.31 266.643 287.373 266.046 286.668 265.219C285.977 264.417 285.402 263.521 284.96 262.559L284.95 262.544L284.945 262.529C284.288 260.762 283.606 258.994 282.869 257.256C282.5 256.389 282.117 255.528 281.703 254.686C281.324 253.849 280.837 253.065 280.254 252.355C279.637 251.601 279.11 250.777 278.685 249.9C278.25 249.047 277.858 248.173 277.51 247.281C277.158 246.392 276.872 245.478 276.654 244.547C276.391 243.622 276.335 242.652 276.489 241.703C276.436 242.647 276.573 243.592 276.893 244.482C277.187 245.376 277.526 246.256 277.908 247.116C278.292 247.973 278.715 248.815 279.183 249.631C279.628 250.439 280.152 251.202 280.747 251.907C280.887 252.062 281.076 252.291 281.23 252.48C281.365 252.684 281.514 252.888 281.643 253.097C281.897 253.511 282.127 253.934 282.346 254.362C282.779 255.219 283.172 256.09 283.551 256.967C284.288 258.725 284.975 260.498 285.593 262.3C285.994 263.204 286.505 264.053 287.116 264.83C287.718 265.608 288.538 266.187 289.472 266.494C289.94 266.622 290.43 266.654 290.911 266.588C291.171 266.531 291.437 266.501 291.703 266.499C291.978 266.501 292.25 266.555 292.505 266.658C292.765 266.749 292.997 266.905 293.181 267.111C293.365 267.316 293.494 267.565 293.556 267.833C293.568 268.097 293.518 268.361 293.41 268.602C293.302 268.843 293.138 269.056 292.933 269.223C292.933 269.223 294.895 268.894 294.183 264.053ZM283.391 248.571C282.55 248.894 280.732 247.863 280.966 246.031C281.24 243.899 280.747 242.634 281.589 242.306C282.43 241.977 283.521 243.112 284.019 244.841C284.512 246.574 284.233 248.242 283.391 248.571ZM253.473 100.997C253.747 103.36 254.155 105.705 254.693 108.021C255.215 110.319 255.94 112.565 256.859 114.735C257.308 115.815 257.839 116.858 258.448 117.858C259.041 118.861 259.724 119.809 260.489 120.689C261.263 121.565 262.125 122.359 263.063 123.058C264.031 123.741 265.066 124.324 266.152 124.798C264.978 124.51 263.849 124.063 262.796 123.468C261.748 122.84 260.783 122.085 259.921 121.219C258.229 119.454 256.88 117.389 255.945 115.129C255.004 112.898 254.329 110.564 253.935 108.175C253.513 105.807 253.359 103.4 253.473 100.997ZM250.693 116.979C251.449 119.136 252.347 121.24 253.381 123.279C253.906 124.285 254.448 125.281 255.057 126.232C255.646 127.193 256.299 128.112 257.011 128.986C258.39 130.754 260.067 132.268 261.967 133.46C262.932 134.034 263.954 134.505 265.018 134.864C266.105 135.209 267.222 135.451 268.354 135.584C267.194 135.654 266.029 135.571 264.89 135.336C263.743 135.078 262.633 134.675 261.587 134.138C260.547 133.581 259.57 132.914 258.672 132.149C257.788 131.374 256.973 130.525 256.235 129.61C254.788 127.776 253.593 125.758 252.68 123.609C251.747 121.489 251.079 119.262 250.693 116.979ZM231.007 216.63C230.288 218.897 229.697 221.203 229.238 223.536C228.771 225.845 228.51 228.192 228.458 230.547C228.425 231.716 228.481 232.886 228.625 234.047C228.755 235.206 228.989 236.35 229.326 237.467C229.671 238.583 230.132 239.661 230.7 240.683C231.303 241.703 232.008 242.66 232.804 243.537C231.851 242.793 231.005 241.922 230.289 240.947C229.591 239.945 229.02 238.86 228.59 237.717C227.771 235.413 227.389 232.976 227.462 230.532C227.519 228.111 227.862 225.706 228.483 223.365C229.07 221.033 229.917 218.774 231.007 216.63ZM221.914 230.063C221.719 232.341 221.674 234.628 221.78 236.911C221.846 238.045 221.932 239.175 222.097 240.293C222.24 241.41 222.458 242.517 222.749 243.605C223.281 245.784 224.19 247.853 225.433 249.719C226.077 250.639 226.817 251.488 227.639 252.252C228.488 253.013 229.408 253.691 230.386 254.277C229.299 253.865 228.271 253.311 227.329 252.63C226.388 251.924 225.541 251.101 224.808 250.181C224.088 249.247 223.47 248.238 222.966 247.172C222.478 246.103 222.083 244.993 221.786 243.856C221.218 241.591 220.956 239.26 221.006 236.925C221.024 234.609 221.33 232.304 221.914 230.063ZM348.656 154.66C348.757 157.063 348.588 159.47 348.153 161.835C347.744 164.221 347.056 166.552 346.102 168.777C345.153 171.031 343.792 173.088 342.089 174.844C341.223 175.704 340.253 176.454 339.202 177.075C338.145 177.664 337.014 178.105 335.837 178.386C336.927 177.918 337.965 177.342 338.937 176.664C339.879 175.971 340.746 175.182 341.524 174.31C342.295 173.435 342.984 172.491 343.583 171.491C344.197 170.495 344.734 169.454 345.19 168.377C346.122 166.213 346.859 163.971 347.395 161.676C347.947 159.363 348.368 157.021 348.656 154.66ZM351.342 170.657C350.943 172.938 350.262 175.161 349.316 177.275C348.391 179.42 347.184 181.431 345.726 183.256C344.983 184.166 344.163 185.011 343.274 185.781C342.372 186.541 341.392 187.202 340.348 187.752C339.299 188.284 338.187 188.68 337.038 188.931C335.898 189.159 334.732 189.236 333.572 189.158C334.705 189.032 335.824 188.797 336.913 188.458C337.978 188.105 339.004 187.641 339.972 187.072C341.879 185.891 343.565 184.387 344.954 182.627C345.671 181.758 346.329 180.842 346.924 179.885C347.539 178.937 348.086 177.945 348.618 176.941C349.663 174.909 350.573 172.81 351.342 170.657ZM253.734 60.5021C253.739 60.3939 253.721 60.2859 253.682 60.1847C253.644 60.0835 253.585 59.9913 253.51 59.9136L250.486 57.0708C250.255 56.8761 249.959 56.9713 249.809 57.2812C249.736 57.4371 249.708 57.6106 249.729 57.7817C249.75 57.9527 249.819 58.1143 249.928 58.2478L252.321 60.5021L249.928 62.7565C249.784 62.9183 249.704 63.1278 249.704 63.3449C249.704 63.562 249.784 63.7715 249.928 63.9333L252.321 66.1877L249.928 68.442C249.784 68.6039 249.704 68.8134 249.704 69.0305C249.704 69.2476 249.784 69.4571 249.928 69.619L252.951 72.4618C253.183 72.6778 253.494 72.5897 253.648 72.267C253.725 72.1081 253.752 71.9298 253.728 71.755C253.703 71.5801 253.627 71.4165 253.51 71.2849L251.116 69.0305L253.51 66.7762C253.654 66.6143 253.734 66.4048 253.734 66.1877C253.734 65.9706 253.654 65.7611 253.51 65.5993L251.116 63.3449L253.51 61.0906C253.585 61.0129 253.644 60.9206 253.682 60.8195C253.721 60.7183 253.739 60.6103 253.734 60.5021ZM235.72 183.678C235.712 183.884 235.776 184.086 235.901 184.25L237.825 186.439L235.901 188.628C235.809 188.765 235.752 188.923 235.734 189.087C235.717 189.252 235.739 189.418 235.8 189.572C235.92 189.878 236.163 189.971 236.35 189.77L238.78 187.01C238.897 186.843 238.96 186.643 238.96 186.439C238.96 186.234 238.897 186.035 238.78 185.867L236.856 183.678L238.78 181.489C238.897 181.322 238.96 181.122 238.96 180.918C238.96 180.713 238.897 180.514 238.78 180.346L236.856 178.157L238.78 175.968C238.871 175.831 238.929 175.673 238.946 175.509C238.964 175.344 238.941 175.178 238.881 175.024C238.761 174.718 238.517 174.625 238.331 174.825L235.901 177.586C235.783 177.753 235.72 177.953 235.72 178.157C235.72 178.362 235.783 178.561 235.901 178.729L237.825 180.918L235.901 183.107C235.775 183.27 235.711 183.472 235.72 183.678ZM224.266 100.972C224.258 101.178 224.322 101.38 224.447 101.543L226.37 103.732L224.447 105.922C224.355 106.059 224.298 106.217 224.28 106.381C224.262 106.546 224.285 106.712 224.345 106.866C224.465 107.172 224.709 107.264 224.895 107.064L227.325 104.304C227.443 104.137 227.506 103.937 227.506 103.732C227.506 103.528 227.443 103.328 227.325 103.161L225.402 100.972L227.325 98.783C227.443 98.6157 227.506 98.4161 227.506 98.2116C227.506 98.0071 227.443 97.8076 227.325 97.6402L225.402 95.4511L227.325 93.2622C227.417 93.1246 227.474 92.9669 227.492 92.8025C227.509 92.6381 227.487 92.4719 227.427 92.3181C227.307 92.0117 227.063 91.9192 226.877 92.1193L224.447 94.8798C224.329 95.0471 224.266 95.2467 224.266 95.4512C224.266 95.6557 224.329 95.8552 224.447 96.0226L226.37 98.2116L224.447 100.401C224.32 100.564 224.256 100.766 224.266 100.972ZM362.541 209.852C362.533 210.068 362.61 210.279 362.755 210.44L365.039 212.694L362.755 214.949C362.648 215.084 362.579 215.246 362.558 215.418C362.537 215.59 362.563 215.764 362.635 215.921C362.777 216.237 363.067 216.332 363.288 216.126L366.173 213.283C366.311 213.118 366.387 212.91 366.387 212.694C366.387 212.479 366.311 212.271 366.173 212.106L363.889 209.852L366.173 207.597C366.311 207.433 366.387 207.224 366.387 207.009C366.387 206.794 366.311 206.585 366.173 206.42L363.889 204.166L366.173 201.912C366.281 201.777 366.349 201.614 366.37 201.443C366.391 201.271 366.365 201.097 366.293 200.939C366.151 200.624 365.861 200.529 365.64 200.735L362.755 203.578C362.617 203.742 362.541 203.951 362.541 204.166C362.541 204.381 362.617 204.59 362.755 204.755L365.039 207.009L362.755 209.263C362.683 209.342 362.626 209.435 362.589 209.536C362.553 209.637 362.536 209.744 362.541 209.852ZM370.471 121.022L368.677 122.643C368.235 123.11 367.988 123.729 367.988 124.372C367.988 125.015 368.235 125.634 368.677 126.101L369.194 126.573C369.34 126.728 369.421 126.934 369.421 127.147C369.421 127.361 369.34 127.566 369.194 127.722L368.677 128.193C368.235 128.66 367.988 129.279 367.988 129.922C367.988 130.566 368.235 131.184 368.677 131.651L369.194 132.123C369.34 132.279 369.421 132.484 369.421 132.698C369.421 132.911 369.34 133.116 369.194 133.272L368.677 133.744C368.235 134.211 367.988 134.83 367.988 135.473C367.988 136.116 368.235 136.735 368.677 137.202L369.194 137.674C369.34 137.829 369.421 138.035 369.421 138.248C369.421 138.462 369.34 138.667 369.194 138.823L367.395 140.449C367.282 140.576 367.209 140.735 367.186 140.904C367.163 141.073 367.191 141.245 367.267 141.398C367.289 141.466 367.328 141.528 367.379 141.577C367.43 141.627 367.493 141.663 367.562 141.683C367.631 141.703 367.703 141.705 367.773 141.691C367.843 141.676 367.909 141.644 367.963 141.598L369.758 139.977C370.2 139.51 370.447 138.891 370.447 138.248C370.447 137.605 370.2 136.986 369.758 136.519L369.241 136.047C369.166 135.972 369.107 135.883 369.068 135.784C369.03 135.685 369.013 135.579 369.017 135.473C369.012 135.366 369.03 135.26 369.069 135.161C369.108 135.062 369.168 134.972 369.245 134.898L369.762 134.427C370.202 133.958 370.447 133.34 370.447 132.698C370.447 132.055 370.202 131.437 369.762 130.969L369.245 130.497C369.099 130.341 369.017 130.136 369.017 129.922C369.017 129.709 369.099 129.503 369.245 129.348L369.762 128.876C370.202 128.408 370.447 127.79 370.447 127.147C370.447 126.505 370.202 125.886 369.762 125.418L369.245 124.946C369.099 124.791 369.017 124.585 369.017 124.372C369.017 124.158 369.099 123.953 369.245 123.797L371.039 122.171C371.158 122.045 371.236 121.886 371.262 121.714C371.288 121.543 371.26 121.368 371.184 121.212C371.162 121.142 371.122 121.079 371.069 121.028C371.016 120.977 370.951 120.94 370.88 120.921C370.809 120.903 370.734 120.902 370.663 120.919C370.591 120.937 370.525 120.972 370.471 121.022ZM349.325 60.0049L347.429 58.3391C347.275 58.1818 347.189 57.9706 347.189 57.7506C347.189 57.5307 347.275 57.3194 347.429 57.1622L347.974 56.6789C348.439 56.2068 348.7 55.5706 348.7 54.9078C348.7 54.2449 348.439 53.6087 347.974 53.1367L347.429 52.6535C347.275 52.4962 347.189 52.285 347.189 52.065C347.189 51.8451 347.275 51.6338 347.429 51.4766L347.974 50.9932C348.439 50.5212 348.7 49.885 348.7 49.2222C348.7 48.5594 348.439 47.9232 347.974 47.4511L347.429 46.9679C347.275 46.8106 347.189 46.5994 347.189 46.3794C347.189 46.1594 347.275 45.9482 347.429 45.7909L347.974 45.3077C348.439 44.8356 348.7 44.1994 348.7 43.5366C348.7 42.8738 348.439 42.2376 347.974 41.7655L346.083 40.1053C346.025 40.058 345.956 40.0253 345.883 40.0099C345.81 39.9946 345.735 39.997 345.663 40.0171C345.591 40.0372 345.525 40.0743 345.47 40.1252C345.415 40.1762 345.374 40.2396 345.349 40.31C345.269 40.4663 345.239 40.6435 345.263 40.8174C345.287 40.9913 345.364 41.1536 345.484 41.2822L347.38 42.9481C347.533 43.1054 347.619 43.3166 347.619 43.5366C347.619 43.7566 347.533 43.9678 347.38 44.1251L346.835 44.6083C346.369 45.0803 346.109 45.7165 346.109 46.3794C346.109 47.0422 346.369 47.6785 346.835 48.1505L347.38 48.6338C347.533 48.791 347.619 49.0022 347.619 49.2222C347.619 49.4422 347.533 49.6534 347.38 49.8106L346.835 50.2939C346.369 50.766 346.109 51.4022 346.109 52.065C346.109 52.7279 346.369 53.3641 346.835 53.8361L347.38 54.3193C347.533 54.4766 347.619 54.6878 347.619 54.9078C347.619 55.1278 347.533 55.339 347.38 55.4963L346.835 55.9796C346.369 56.4516 346.109 57.0878 346.109 57.7506C346.109 58.4135 346.369 59.0497 346.835 59.5217L348.726 61.1819C348.783 61.2319 348.852 61.2671 348.926 61.2845C349 61.3019 349.077 61.301 349.151 61.2818C349.225 61.2626 349.292 61.2258 349.348 61.1744C349.405 61.1231 349.447 61.0588 349.473 60.9872C349.555 60.8288 349.585 60.6485 349.559 60.472C349.532 60.2955 349.45 60.132 349.325 60.0049ZM313.809 49.8995C313.847 50.469 313.713 51.0369 313.425 51.5294C313.136 52.0218 312.706 52.4161 312.19 52.6609C311.675 52.9057 311.097 52.9897 310.533 52.902C309.969 52.8143 309.445 52.559 309.028 52.1692C308.611 51.7794 308.321 51.2732 308.195 50.7163C308.07 50.1595 308.115 49.5778 308.324 49.0469C308.534 48.5159 308.898 48.0603 309.37 47.7391C309.842 47.418 310.4 47.2463 310.97 47.2463C311.698 47.2232 312.405 47.4895 312.937 47.9867C313.469 48.484 313.783 49.1718 313.809 49.8995ZM346.823 228.992C346.861 229.563 346.727 230.133 346.438 230.627C346.148 231.121 345.717 231.516 345.199 231.762C344.682 232.007 344.103 232.092 343.537 232.004C342.971 231.916 342.445 231.66 342.027 231.268C341.608 230.877 341.317 230.37 341.191 229.811C341.066 229.252 341.111 228.669 341.321 228.136C341.531 227.604 341.897 227.146 342.37 226.824C342.843 226.502 343.403 226.33 343.975 226.33C344.706 226.307 345.415 226.574 345.949 227.073C346.482 227.572 346.797 228.262 346.823 228.992ZM379.14 93.913C379.17 94.3706 379.063 94.827 378.831 95.2227C378.599 95.6185 378.253 95.9353 377.839 96.132C377.425 96.3287 376.961 96.3963 376.508 96.3258C376.054 96.2553 375.633 96.0501 375.298 95.7369C374.963 95.4237 374.729 95.0169 374.629 94.5694C374.528 94.1219 374.564 93.6544 374.732 93.2278C374.901 92.8011 375.193 92.4349 375.573 92.1769C375.952 91.9188 376.4 91.7809 376.859 91.7809C377.444 91.762 378.012 91.9759 378.44 92.3755C378.867 92.7752 379.119 93.3281 379.14 93.913ZM275.717 189C275.748 189.458 275.64 189.914 275.408 190.31C275.176 190.706 274.831 191.023 274.416 191.22C274.002 191.416 273.538 191.484 273.085 191.413C272.632 191.343 272.21 191.138 271.875 190.824C271.54 190.511 271.307 190.104 271.206 189.657C271.105 189.209 271.141 188.742 271.31 188.315C271.478 187.889 271.771 187.522 272.15 187.264C272.529 187.006 272.977 186.868 273.436 186.868C274.021 186.85 274.59 187.063 275.017 187.463C275.445 187.863 275.696 188.416 275.717 189ZM300.316 91.8475C302.239 91.8475 302.242 88.8595 300.316 88.8595C298.393 88.8595 298.39 91.8475 300.316 91.8475ZM246.507 143.198C248.43 143.198 248.433 140.21 246.507 140.21C244.584 140.21 244.581 143.198 246.507 143.198ZM362.541 181.402C364.463 181.402 364.467 178.414 362.541 178.414C360.618 178.414 360.615 181.402 362.541 181.402ZM338.973 132.806C340.896 132.806 340.899 129.818 338.973 129.818C337.05 129.818 337.047 132.806 338.973 132.806Z" fill="white"></path> </svg> 