<?xml version="1.0" encoding="UTF-8"?> <svg xmlns="http://www.w3.org/2000/svg" width="600" height="400" viewBox="0 0 600 400" fill="none"> <rect width="600" height="400" rx="20" fill="#6E48AA"></rect> <path d="M90.5521 322V315.51L85.1621 306.16H88.2531L91.8941 312.474L95.5241 306.16H98.6151L93.2361 315.51V322H90.5521ZM105.969 322.33C104.385 322.33 103.029 321.985 101.899 321.296C100.77 320.599 99.9011 319.631 99.2925 318.392C98.6911 317.153 98.3905 315.715 98.3905 314.08C98.3905 312.445 98.6911 311.007 99.2925 309.768C99.9011 308.529 100.77 307.564 101.899 306.875C103.029 306.178 104.385 305.83 105.969 305.83C107.553 305.83 108.91 306.178 110.039 306.875C111.176 307.564 112.045 308.529 112.646 309.768C113.255 311.007 113.559 312.445 113.559 314.08C113.559 315.715 113.255 317.153 112.646 318.392C112.045 319.631 111.176 320.599 110.039 321.296C108.91 321.985 107.553 322.33 105.969 322.33ZM105.969 319.833C107.033 319.84 107.916 319.606 108.62 319.129C109.332 318.652 109.863 317.981 110.215 317.116C110.575 316.251 110.754 315.239 110.754 314.08C110.754 312.921 110.575 311.917 110.215 311.066C109.863 310.208 109.332 309.541 108.62 309.064C107.916 308.587 107.033 308.342 105.969 308.327C104.906 308.32 104.022 308.554 103.318 309.031C102.614 309.508 102.083 310.179 101.723 311.044C101.371 311.909 101.195 312.921 101.195 314.08C101.195 315.239 101.371 316.247 101.723 317.105C102.075 317.956 102.603 318.619 103.307 319.096C104.019 319.573 104.906 319.818 105.969 319.833ZM122.129 322.33C120.868 322.33 119.757 322.073 118.796 321.56C117.843 321.047 117.095 320.324 116.552 319.393C116.017 318.462 115.749 317.369 115.749 316.115V306.182L118.433 306.16V316.049C118.433 316.643 118.532 317.175 118.73 317.644C118.935 318.113 119.21 318.513 119.555 318.843C119.9 319.166 120.296 319.411 120.743 319.58C121.19 319.749 121.652 319.833 122.129 319.833C122.62 319.833 123.086 319.749 123.526 319.58C123.973 319.404 124.369 319.155 124.714 318.832C125.059 318.502 125.33 318.102 125.528 317.633C125.726 317.164 125.825 316.636 125.825 316.049V306.16H128.509V316.115C128.509 317.369 128.238 318.462 127.695 319.393C127.16 320.324 126.412 321.047 125.451 321.56C124.498 322.073 123.39 322.33 122.129 322.33ZM139.331 322L134.7 306.16H137.483L140.64 317.6L143.786 306.182L146.569 306.16L149.726 317.6L152.872 306.16H155.655L151.035 322H148.417L145.172 310.736L141.949 322H139.331ZM157.67 322V306.16H160.321V322H157.67ZM163.836 322V306.16H166.487V319.514H173.483V322H163.836ZM175.567 322V306.16H178.218V319.514H185.214V322H175.567ZM189.286 322L194.28 306.16H198.163L203.157 322H200.429L195.897 307.788H196.491L192.014 322H189.286ZM192.069 318.568V316.093H200.385V318.568H192.069ZM205.365 322V306.16H208.016V319.514H215.012V322H205.365ZM218.458 322L213.827 306.16H216.61L219.767 317.6L222.913 306.182L225.696 306.16L228.853 317.6L231.999 306.16H234.782L230.162 322H227.544L224.299 310.736L221.076 322H218.458ZM233.93 322L238.924 306.16H242.807L247.801 322H245.073L240.541 307.788H241.135L236.658 322H233.93ZM236.713 318.568V316.093H245.029V318.568H236.713ZM252.329 322V315.51L246.939 306.16H250.03L253.671 312.474L257.301 306.16H260.392L255.013 315.51V322H252.329ZM267.126 322.33C265.967 322.33 264.922 322.128 263.991 321.725C263.067 321.322 262.304 320.746 261.703 319.998C261.109 319.243 260.731 318.348 260.57 317.314L263.32 316.896C263.554 317.835 264.035 318.561 264.761 319.074C265.494 319.587 266.337 319.844 267.291 319.844C267.855 319.844 268.387 319.756 268.886 319.58C269.384 319.404 269.788 319.147 270.096 318.81C270.411 318.473 270.569 318.058 270.569 317.567C270.569 317.347 270.532 317.145 270.459 316.962C270.385 316.771 270.275 316.603 270.129 316.456C269.989 316.309 269.806 316.177 269.579 316.06C269.359 315.935 269.102 315.829 268.809 315.741L264.717 314.531C264.365 314.428 263.983 314.293 263.573 314.124C263.169 313.948 262.784 313.71 262.418 313.409C262.058 313.101 261.761 312.712 261.527 312.243C261.299 311.766 261.186 311.18 261.186 310.483C261.186 309.464 261.442 308.609 261.956 307.92C262.476 307.223 263.173 306.703 264.046 306.358C264.926 306.013 265.901 305.845 266.972 305.852C268.057 305.859 269.025 306.046 269.876 306.413C270.726 306.772 271.438 307.297 272.01 307.986C272.582 308.675 272.985 309.508 273.22 310.483L270.371 310.978C270.253 310.421 270.026 309.948 269.689 309.559C269.359 309.163 268.952 308.862 268.468 308.657C267.991 308.452 267.481 308.342 266.939 308.327C266.411 308.32 265.919 308.4 265.465 308.569C265.017 308.73 264.654 308.965 264.376 309.273C264.104 309.581 263.969 309.94 263.969 310.351C263.969 310.74 264.086 311.059 264.321 311.308C264.555 311.55 264.845 311.744 265.19 311.891C265.542 312.03 265.897 312.148 266.257 312.243L269.095 313.035C269.483 313.138 269.92 313.277 270.404 313.453C270.888 313.629 271.353 313.875 271.801 314.19C272.248 314.505 272.615 314.92 272.901 315.433C273.194 315.946 273.341 316.599 273.341 317.391C273.341 318.212 273.168 318.935 272.824 319.558C272.486 320.174 272.028 320.687 271.449 321.098C270.869 321.509 270.206 321.817 269.458 322.022C268.717 322.227 267.94 322.33 267.126 322.33ZM280.126 322V306.16H289.663V308.811H282.777V312.76H288.343V315.4H282.777V322H280.126ZM291.642 322V306.16H301.872V308.646H294.293V312.551H300.552V315.037H294.293V319.514H301.872V322H291.642ZM304.511 322V306.16H314.741V308.646H307.162V312.551H313.421V315.037H307.162V319.514H314.741V322H304.511ZM317.6 322V306.16H320.251V319.514H327.247V322H317.6ZM332.639 322V306.16H335.29V319.514H342.286V322H332.639ZM344.369 322V306.16H347.02V322H344.369ZM350.315 322V306.16H352.966V313.508L359.291 306.16H362.547L355.738 313.926L363.009 322H359.643L352.966 314.608V322H350.315ZM364.56 322V306.16H374.79V308.646H367.211V312.551H373.47V315.037H367.211V319.514H374.79V322H364.56ZM380.733 322L385.727 306.16H389.61L394.604 322H391.876L387.344 307.788H387.938L383.461 322H380.733ZM383.516 318.568V316.093H391.832V318.568H383.516ZM406.86 322.33C405.701 322.33 404.656 322.128 403.725 321.725C402.801 321.322 402.038 320.746 401.437 319.998C400.843 319.243 400.465 318.348 400.304 317.314L403.054 316.896C403.289 317.835 403.769 318.561 404.495 319.074C405.228 319.587 406.072 319.844 407.025 319.844C407.59 319.844 408.121 319.756 408.62 319.58C409.119 319.404 409.522 319.147 409.83 318.81C410.145 318.473 410.303 318.058 410.303 317.567C410.303 317.347 410.266 317.145 410.193 316.962C410.12 316.771 410.01 316.603 409.863 316.456C409.724 316.309 409.54 316.177 409.313 316.06C409.093 315.935 408.836 315.829 408.543 315.741L404.451 314.531C404.099 314.428 403.718 314.293 403.307 314.124C402.904 313.948 402.519 313.71 402.152 313.409C401.793 313.101 401.496 312.712 401.261 312.243C401.034 311.766 400.92 311.18 400.92 310.483C400.92 309.464 401.177 308.609 401.69 307.92C402.211 307.223 402.907 306.703 403.78 306.358C404.66 306.013 405.635 305.845 406.706 305.852C407.791 305.859 408.759 306.046 409.61 306.413C410.461 306.772 411.172 307.297 411.744 307.986C412.316 308.675 412.719 309.508 412.954 310.483L410.105 310.978C409.988 310.421 409.76 309.948 409.423 309.559C409.093 309.163 408.686 308.862 408.202 308.657C407.725 308.452 407.216 308.342 406.673 308.327C406.145 308.32 405.654 308.4 405.199 308.569C404.752 308.73 404.389 308.965 404.11 309.273C403.839 309.581 403.703 309.94 403.703 310.351C403.703 310.74 403.82 311.059 404.055 311.308C404.29 311.55 404.579 311.744 404.924 311.891C405.276 312.03 405.632 312.148 405.991 312.243L408.829 313.035C409.218 313.138 409.654 313.277 410.138 313.453C410.622 313.629 411.088 313.875 411.535 314.19C411.982 314.505 412.349 314.92 412.635 315.433C412.928 315.946 413.075 316.599 413.075 317.391C413.075 318.212 412.903 318.935 412.558 319.558C412.221 320.174 411.762 320.687 411.183 321.098C410.604 321.509 409.94 321.817 409.192 322.022C408.451 322.227 407.674 322.33 406.86 322.33ZM419.262 322V308.646H414.136V306.16H427.039V308.646H421.913V322H419.262ZM428.798 322V306.16H435.343C435.497 306.16 435.695 306.167 435.937 306.182C436.179 306.189 436.402 306.211 436.608 306.248C437.524 306.387 438.28 306.692 438.874 307.161C439.475 307.63 439.919 308.224 440.205 308.943C440.498 309.654 440.645 310.446 440.645 311.319C440.645 312.61 440.318 313.721 439.666 314.652C439.013 315.576 438.012 316.148 436.663 316.368L435.53 316.467H431.449V322H428.798ZM437.895 322L434.771 315.554L437.466 314.96L440.898 322H437.895ZM431.449 313.992H435.233C435.379 313.992 435.544 313.985 435.728 313.97C435.911 313.955 436.08 313.926 436.234 313.882C436.674 313.772 437.018 313.578 437.268 313.299C437.524 313.02 437.704 312.705 437.807 312.353C437.917 312.001 437.972 311.656 437.972 311.319C437.972 310.982 437.917 310.637 437.807 310.285C437.704 309.926 437.524 309.607 437.268 309.328C437.018 309.049 436.674 308.855 436.234 308.745C436.08 308.701 435.911 308.675 435.728 308.668C435.544 308.653 435.379 308.646 435.233 308.646H431.449V313.992ZM442.221 322L447.215 306.16H451.098L456.092 322H453.364L448.832 307.788H449.426L444.949 322H442.221ZM445.004 318.568V316.093H453.32V318.568H445.004ZM458.081 322V306.16H460.765L468.113 317.325V306.16H470.797V322H468.113L460.765 310.835V322H458.081ZM480.406 322.33C479.379 322.33 478.415 322.15 477.513 321.791C476.618 321.424 475.83 320.889 475.148 320.185C474.473 319.481 473.945 318.619 473.564 317.6C473.183 316.573 472.992 315.4 472.992 314.08C472.992 312.349 473.315 310.872 473.96 309.647C474.605 308.415 475.489 307.473 476.611 306.82C477.733 306.16 478.998 305.83 480.406 305.83C482.357 305.83 483.9 306.285 485.037 307.194C486.181 308.096 486.955 309.365 487.358 311L484.652 311.429C484.351 310.49 483.86 309.742 483.178 309.185C482.496 308.62 481.627 308.338 480.571 308.338C479.508 308.323 478.624 308.554 477.92 309.031C477.216 309.508 476.684 310.179 476.325 311.044C475.973 311.909 475.797 312.921 475.797 314.08C475.797 315.239 475.973 316.247 476.325 317.105C476.677 317.956 477.205 318.619 477.909 319.096C478.62 319.573 479.508 319.818 480.571 319.833C481.37 319.84 482.071 319.697 482.672 319.404C483.273 319.103 483.765 318.652 484.146 318.051C484.527 317.442 484.784 316.683 484.916 315.774H482.122V313.695H487.732C487.747 313.812 487.758 313.985 487.765 314.212C487.772 314.439 487.776 314.575 487.776 314.619C487.776 316.115 487.479 317.446 486.885 318.612C486.298 319.771 485.455 320.68 484.355 321.34C483.255 322 481.939 322.33 480.406 322.33ZM489.985 322V306.16H500.215V308.646H492.636V312.551H498.895V315.037H492.636V319.514H500.215V322H489.985ZM502.854 322V306.16H509.399C509.553 306.16 509.751 306.167 509.993 306.182C510.235 306.189 510.459 306.211 510.664 306.248C511.581 306.387 512.336 306.692 512.93 307.161C513.532 307.63 513.975 308.224 514.261 308.943C514.555 309.654 514.701 310.446 514.701 311.319C514.701 312.61 514.375 313.721 513.722 314.652C513.07 315.576 512.069 316.148 510.719 316.368L509.586 316.467H505.505V322H502.854ZM511.951 322L508.827 315.554L511.522 314.96L514.954 322H511.951ZM505.505 313.992H509.289C509.436 313.992 509.601 313.985 509.784 313.97C509.968 313.955 510.136 313.926 510.29 313.882C510.73 313.772 511.075 313.578 511.324 313.299C511.581 313.02 511.761 312.705 511.863 312.353C511.973 312.001 512.028 311.656 512.028 311.319C512.028 310.982 511.973 310.637 511.863 310.285C511.761 309.926 511.581 309.607 511.324 309.328C511.075 309.049 510.73 308.855 510.29 308.745C510.136 308.701 509.968 308.675 509.784 308.668C509.601 308.653 509.436 308.646 509.289 308.646H505.505V313.992ZM132.84 353V337.16H135.227L140.705 348.38L146.183 337.16H148.57V353H146.095V342.847L141.233 353H140.177L135.326 342.847V353H132.84ZM158.359 353.33C156.775 353.33 155.418 352.985 154.289 352.296C153.16 351.599 152.291 350.631 151.682 349.392C151.081 348.153 150.78 346.715 150.78 345.08C150.78 343.445 151.081 342.007 151.682 340.768C152.291 339.529 153.16 338.564 154.289 337.875C155.418 337.178 156.775 336.83 158.359 336.83C159.943 336.83 161.3 337.178 162.429 337.875C163.566 338.564 164.435 339.529 165.036 340.768C165.645 342.007 165.949 343.445 165.949 345.08C165.949 346.715 165.645 348.153 165.036 349.392C164.435 350.631 163.566 351.599 162.429 352.296C161.3 352.985 159.943 353.33 158.359 353.33ZM158.359 350.833C159.422 350.84 160.306 350.606 161.01 350.129C161.721 349.652 162.253 348.981 162.605 348.116C162.964 347.251 163.144 346.239 163.144 345.08C163.144 343.921 162.964 342.917 162.605 342.066C162.253 341.208 161.721 340.541 161.01 340.064C160.306 339.587 159.422 339.342 158.359 339.327C157.296 339.32 156.412 339.554 155.708 340.031C155.004 340.508 154.472 341.179 154.113 342.044C153.761 342.909 153.585 343.921 153.585 345.08C153.585 346.239 153.761 347.247 154.113 348.105C154.465 348.956 154.993 349.619 155.697 350.096C156.408 350.573 157.296 350.818 158.359 350.833ZM171.037 353L166.043 337.16H168.771L172.951 350.426L177.186 337.16H179.914L174.92 353H171.037ZM181.786 353V337.16H184.437V353H181.786ZM187.732 353V337.16H190.416L197.764 348.325V337.16H200.448V353H197.764L190.416 341.835V353H187.732ZM210.057 353.33C209.031 353.33 208.066 353.15 207.164 352.791C206.27 352.424 205.481 351.889 204.799 351.185C204.125 350.481 203.597 349.619 203.215 348.6C202.834 347.573 202.643 346.4 202.643 345.08C202.643 343.349 202.966 341.872 203.611 340.647C204.257 339.415 205.14 338.473 206.262 337.82C207.384 337.16 208.649 336.83 210.057 336.83C212.008 336.83 213.552 337.285 214.688 338.194C215.832 339.096 216.606 340.365 217.009 342L214.303 342.429C214.003 341.49 213.511 340.742 212.829 340.185C212.147 339.62 211.278 339.338 210.222 339.338C209.159 339.323 208.275 339.554 207.571 340.031C206.867 340.508 206.336 341.179 205.976 342.044C205.624 342.909 205.448 343.921 205.448 345.08C205.448 346.239 205.624 347.247 205.976 348.105C206.328 348.956 206.856 349.619 207.56 350.096C208.272 350.573 209.159 350.818 210.222 350.833C211.022 350.84 211.722 350.697 212.323 350.404C212.925 350.103 213.416 349.652 213.797 349.051C214.179 348.442 214.435 347.683 214.567 346.774H211.773V344.695H217.383C217.398 344.812 217.409 344.985 217.416 345.212C217.424 345.439 217.427 345.575 217.427 345.619C217.427 347.115 217.13 348.446 216.536 349.612C215.95 350.771 215.106 351.68 214.006 352.34C212.906 353 211.59 353.33 210.057 353.33ZM227.847 353V339.646H222.721V337.16H235.624V339.646H230.498V353H227.847ZM244.082 353.33C242.498 353.33 241.141 352.985 240.012 352.296C238.882 351.599 238.013 350.631 237.405 349.392C236.803 348.153 236.503 346.715 236.503 345.08C236.503 343.445 236.803 342.007 237.405 340.768C238.013 339.529 238.882 338.564 240.012 337.875C241.141 337.178 242.498 336.83 244.082 336.83C245.666 336.83 247.022 337.178 248.152 337.875C249.288 338.564 250.157 339.529 250.759 340.768C251.367 342.007 251.672 343.445 251.672 345.08C251.672 346.715 251.367 348.153 250.759 349.392C250.157 350.631 249.288 351.599 248.152 352.296C247.022 352.985 245.666 353.33 244.082 353.33ZM244.082 350.833C245.145 350.84 246.029 350.606 246.733 350.129C247.444 349.652 247.976 348.981 248.328 348.116C248.687 347.251 248.867 346.239 248.867 345.08C248.867 343.921 248.687 342.917 248.328 342.066C247.976 341.208 247.444 340.541 246.733 340.064C246.029 339.587 245.145 339.342 244.082 339.327C243.018 339.32 242.135 339.554 241.431 340.031C240.727 340.508 240.195 341.179 239.836 342.044C239.484 342.909 239.308 343.921 239.308 345.08C239.308 346.239 239.484 347.247 239.836 348.105C240.188 348.956 240.716 349.619 241.42 350.096C242.131 350.573 243.018 350.818 244.082 350.833ZM257.166 353L262.16 337.16H266.043L271.037 353H268.309L263.777 338.788H264.371L259.894 353H257.166ZM259.949 349.568V347.093H268.265V349.568H259.949ZM273.025 353V337.16H275.709L283.057 348.325V337.16H285.741V353H283.057L275.709 341.835V353H273.025ZM295.515 353.33C293.931 353.33 292.575 352.985 291.445 352.296C290.316 351.599 289.447 350.631 288.838 349.392C288.237 348.153 287.936 346.715 287.936 345.08C287.936 343.445 288.237 342.007 288.838 340.768C289.447 339.529 290.316 338.564 291.445 337.875C292.575 337.178 293.931 336.83 295.515 336.83C297.099 336.83 298.456 337.178 299.585 337.875C300.722 338.564 301.591 339.529 302.192 340.768C302.801 342.007 303.105 343.445 303.105 345.08C303.105 346.715 302.801 348.153 302.192 349.392C301.591 350.631 300.722 351.599 299.585 352.296C298.456 352.985 297.099 353.33 295.515 353.33ZM295.515 350.833C296.579 350.84 297.462 350.606 298.166 350.129C298.878 349.652 299.409 348.981 299.761 348.116C300.121 347.251 300.3 346.239 300.3 345.08C300.3 343.921 300.121 342.917 299.761 342.066C299.409 341.208 298.878 340.541 298.166 340.064C297.462 339.587 296.579 339.342 295.515 339.327C294.452 339.32 293.568 339.554 292.864 340.031C292.16 340.508 291.629 341.179 291.269 342.044C290.917 342.909 290.741 343.921 290.741 345.08C290.741 346.239 290.917 347.247 291.269 348.105C291.621 348.956 292.149 349.619 292.853 350.096C293.565 350.573 294.452 350.818 295.515 350.833ZM308.671 353V339.646H303.545V337.16H316.448V339.646H311.322V353H308.671ZM318.207 353V337.16H320.858V343.826H328.36V337.16H331V353H328.36V346.312H320.858V353H318.207ZM334.084 353V337.16H344.314V339.646H336.735V343.551H342.994V346.037H336.735V350.514H344.314V353H334.084ZM346.953 353V337.16H353.498C353.652 337.16 353.85 337.167 354.092 337.182C354.334 337.189 354.558 337.211 354.763 337.248C355.68 337.387 356.435 337.692 357.029 338.161C357.63 338.63 358.074 339.224 358.36 339.943C358.653 340.654 358.8 341.446 358.8 342.319C358.8 343.61 358.474 344.721 357.821 345.652C357.168 346.576 356.167 347.148 354.818 347.368L353.685 347.467H349.604V353H346.953ZM356.05 353L352.926 346.554L355.621 345.96L359.053 353H356.05ZM349.604 344.992H353.388C353.535 344.992 353.7 344.985 353.883 344.97C354.066 344.955 354.235 344.926 354.389 344.882C354.829 344.772 355.174 344.578 355.423 344.299C355.68 344.02 355.859 343.705 355.962 343.353C356.072 343.001 356.127 342.656 356.127 342.319C356.127 341.982 356.072 341.637 355.962 341.285C355.859 340.926 355.68 340.607 355.423 340.328C355.174 340.049 354.829 339.855 354.389 339.745C354.235 339.701 354.066 339.675 353.883 339.668C353.7 339.653 353.535 339.646 353.388 339.646H349.604V344.992ZM372.58 353.33C370.996 353.33 369.639 352.985 368.51 352.296C367.38 351.599 366.511 350.631 365.903 349.392C365.301 348.153 365.001 346.715 365.001 345.08C365.001 343.445 365.301 342.007 365.903 340.768C366.511 339.529 367.38 338.564 368.51 337.875C369.639 337.178 370.996 336.83 372.58 336.83C374.406 336.83 375.927 337.288 377.145 338.205C378.362 339.114 379.216 340.343 379.708 341.89L377.035 342.627C376.727 341.593 376.202 340.786 375.462 340.207C374.721 339.62 373.76 339.327 372.58 339.327C371.516 339.327 370.629 339.565 369.918 340.042C369.214 340.519 368.682 341.19 368.323 342.055C367.971 342.913 367.791 343.921 367.784 345.08C367.784 346.239 367.96 347.251 368.312 348.116C368.671 348.974 369.206 349.641 369.918 350.118C370.629 350.595 371.516 350.833 372.58 350.833C373.76 350.833 374.721 350.54 375.462 349.953C376.202 349.366 376.727 348.56 377.035 347.533L379.708 348.27C379.216 349.817 378.362 351.049 377.145 351.966C375.927 352.875 374.406 353.33 372.58 353.33ZM388.822 353.33C387.238 353.33 385.881 352.985 384.752 352.296C383.623 351.599 382.754 350.631 382.145 349.392C381.544 348.153 381.243 346.715 381.243 345.08C381.243 343.445 381.544 342.007 382.145 340.768C382.754 339.529 383.623 338.564 384.752 337.875C385.881 337.178 387.238 336.83 388.822 336.83C390.406 336.83 391.763 337.178 392.892 337.875C394.029 338.564 394.898 339.529 395.499 340.768C396.108 342.007 396.412 343.445 396.412 345.08C396.412 346.715 396.108 348.153 395.499 349.392C394.898 350.631 394.029 351.599 392.892 352.296C391.763 352.985 390.406 353.33 388.822 353.33ZM388.822 350.833C389.885 350.84 390.769 350.606 391.473 350.129C392.184 349.652 392.716 348.981 393.068 348.116C393.427 347.251 393.607 346.239 393.607 345.08C393.607 343.921 393.427 342.917 393.068 342.066C392.716 341.208 392.184 340.541 391.473 340.064C390.769 339.587 389.885 339.342 388.822 339.327C387.759 339.32 386.875 339.554 386.171 340.031C385.467 340.508 384.935 341.179 384.576 342.044C384.224 342.909 384.048 343.921 384.048 345.08C384.048 346.239 384.224 347.247 384.576 348.105C384.928 348.956 385.456 349.619 386.16 350.096C386.871 350.573 387.759 350.818 388.822 350.833ZM404.982 353.33C403.72 353.33 402.609 353.073 401.649 352.56C400.695 352.047 399.947 351.324 399.405 350.393C398.869 349.462 398.602 348.369 398.602 347.115V337.182L401.286 337.16V347.049C401.286 347.643 401.385 348.175 401.583 348.644C401.788 349.113 402.063 349.513 402.408 349.843C402.752 350.166 403.148 350.411 403.596 350.58C404.043 350.749 404.505 350.833 404.982 350.833C405.473 350.833 405.939 350.749 406.379 350.58C406.826 350.404 407.222 350.155 407.567 349.832C407.911 349.502 408.183 349.102 408.381 348.633C408.579 348.164 408.678 347.636 408.678 347.049V337.16H411.362V347.115C411.362 348.369 411.09 349.462 410.548 350.393C410.012 351.324 409.264 352.047 408.304 352.56C407.35 353.073 406.243 353.33 404.982 353.33ZM414.436 353V337.16H417.12L424.468 348.325V337.16H427.152V353H424.468L417.12 341.835V353H414.436ZM434.033 353V339.646H428.907V337.16H441.81V339.646H436.684V353H434.033ZM443.568 353V337.16H450.113C450.267 337.16 450.465 337.167 450.707 337.182C450.949 337.189 451.173 337.211 451.378 337.248C452.295 337.387 453.05 337.692 453.644 338.161C454.246 338.63 454.689 339.224 454.975 339.943C455.269 340.654 455.415 341.446 455.415 342.319C455.415 343.61 455.089 344.721 454.436 345.652C453.784 346.576 452.783 347.148 451.433 347.368L450.3 347.467H446.219V353H443.568ZM452.665 353L449.541 346.554L452.236 345.96L455.668 353H452.665ZM446.219 344.992H450.003C450.15 344.992 450.315 344.985 450.498 344.97C450.682 344.955 450.85 344.926 451.004 344.882C451.444 344.772 451.789 344.578 452.038 344.299C452.295 344.02 452.475 343.705 452.577 343.353C452.687 343.001 452.742 342.656 452.742 342.319C452.742 341.982 452.687 341.637 452.577 341.285C452.475 340.926 452.295 340.607 452.038 340.328C451.789 340.049 451.444 339.855 451.004 339.745C450.85 339.701 450.682 339.675 450.498 339.668C450.315 339.653 450.15 339.646 450.003 339.646H446.219V344.992ZM461.641 353V346.51L456.251 337.16H459.342L462.983 343.474L466.613 337.16H469.704L464.325 346.51V353H461.641Z" fill="white"></path> <path d="M306.822 146.696C305.842 145.266 304.77 143.902 303.612 142.613C299.657 144.904 293.053 144.493 293.053 144.493L292.684 145.371C290.974 149.523 289.047 153.582 286.911 157.532C286.964 157.573 287.008 157.624 287.041 157.682C287.074 157.74 287.094 157.804 287.101 157.871V157.881C287.584 162.385 287.877 166.873 288.056 171.382C288.231 175.886 288.27 180.392 288.175 184.899C288.103 189.403 287.851 193.907 287.461 198.39L287.142 201.754L286.726 205.102L286.516 206.781L286.254 208.445L285.72 211.778L286.187 208.435L286.418 206.766L286.598 205.086L286.947 201.733L287.204 198.369C287.507 193.886 287.676 189.387 287.661 184.894C287.666 180.4 287.541 175.908 287.286 171.418C287.035 167.217 286.69 163.006 286.182 158.836C285.024 160.892 283.758 162.885 282.392 164.809C282.462 164.865 282.515 164.939 282.546 165.023C282.578 165.107 282.587 165.198 282.572 165.286C282.57 165.288 282.568 165.291 282.567 165.294C282.567 165.296 282.566 165.299 282.567 165.302V165.307C281.575 170.186 280.708 175.111 280.009 180.046C279.655 182.516 279.372 184.995 279.162 187.482C278.907 189.965 278.878 192.466 279.074 194.954C278.792 192.469 278.735 189.962 278.905 187.467C279.028 184.966 279.227 182.471 279.501 179.984C279.994 175.362 280.631 170.766 281.38 166.175C279.956 168.075 278.323 169.81 276.512 171.346C276.586 171.415 276.638 171.505 276.662 171.604C276.686 171.702 276.68 171.806 276.645 171.901V171.906L276.64 171.922C274.95 176.164 273.576 180.525 272.532 184.971C271.996 187.174 271.706 189.431 271.669 191.698C271.652 192.809 271.854 193.912 272.265 194.944C272.484 195.489 272.668 196.049 272.814 196.618C272.963 197.178 273.107 197.738 273.215 198.308C273.698 200.562 274.037 202.832 274.355 205.107C274.679 207.382 274.94 209.662 275.207 211.942C275.711 216.503 276.149 221.07 276.522 225.644C276.065 221.078 275.541 216.521 274.951 211.973C274.648 209.698 274.34 207.428 273.975 205.163C273.615 202.904 273.235 200.639 272.712 198.415C272.599 197.856 272.445 197.311 272.285 196.767C272.14 196.226 271.958 195.696 271.741 195.18C271.275 194.085 271.032 192.909 271.027 191.719C271.021 189.394 271.272 187.076 271.777 184.806C272.699 180.505 273.932 176.276 275.464 172.153C268.963 176.852 264.962 173.359 264.962 173.359L261.799 180.349C259.807 184.753 259.549 189.746 261.075 194.333C264.243 203.88 266.58 220.929 266.847 231.93C269.148 232.346 271.428 232.762 273.718 233.147C276.009 233.517 278.294 233.876 280.595 234.128C282.881 234.408 285.183 234.545 287.486 234.538C288.634 234.536 289.779 234.443 290.912 234.261C292.055 234.099 293.163 233.745 294.188 233.214C293.25 233.937 292.173 234.462 291.025 234.754C289.881 235.064 288.71 235.26 287.527 235.34C285.176 235.498 282.815 235.433 280.476 235.144C278.149 234.873 275.839 234.467 273.559 233.927C271.28 233.409 269.038 232.741 266.847 231.93C266.953 234.478 266.847 237.03 266.528 239.561C270.741 241.637 275.322 242.861 280.009 243.163C284.695 243.464 289.395 242.837 293.839 241.317C293.839 241.317 294.902 218.603 295.015 205.857C295.063 199.88 296.845 194.047 300.145 189.064L303.021 184.729L307.207 178.408C310.334 173.694 311.971 168.149 311.902 162.492C311.833 156.836 310.063 151.332 306.822 146.696ZM269.276 238.616C269.076 238.609 268.887 238.525 268.749 238.381C268.61 238.237 268.533 238.045 268.533 237.846C268.533 237.646 268.61 237.454 268.749 237.311C268.887 237.167 269.076 237.083 269.276 237.075C269.475 237.083 269.664 237.167 269.803 237.311C269.942 237.454 270.019 237.646 270.019 237.846C270.019 238.045 269.942 238.237 269.803 238.381C269.664 238.525 269.475 238.609 269.276 238.616ZM272.974 239.54C272.774 239.533 272.585 239.449 272.446 239.305C272.308 239.162 272.23 238.97 272.23 238.77C272.23 238.571 272.308 238.379 272.446 238.235C272.585 238.091 272.774 238.007 272.974 238C273.173 238.007 273.362 238.091 273.501 238.235C273.639 238.379 273.717 238.571 273.717 238.77C273.717 238.97 273.639 239.162 273.501 239.305C273.362 239.449 273.173 239.533 272.974 239.54ZM277.78 240.28C277.581 240.273 277.392 240.189 277.253 240.045C277.115 239.901 277.037 239.709 277.037 239.51C277.037 239.31 277.115 239.118 277.253 238.974C277.392 238.831 277.581 238.746 277.78 238.739C277.98 238.747 278.169 238.831 278.307 238.974C278.446 239.118 278.524 239.31 278.524 239.51C278.524 239.709 278.446 239.901 278.307 240.045C278.169 240.189 277.98 240.273 277.78 240.28ZM282.587 240.465C282.388 240.458 282.199 240.373 282.06 240.23C281.921 240.086 281.844 239.894 281.844 239.695C281.844 239.495 281.921 239.303 282.06 239.159C282.199 239.016 282.388 238.931 282.587 238.924C282.787 238.931 282.976 239.016 283.114 239.159C283.253 239.303 283.33 239.495 283.33 239.695C283.33 239.894 283.253 240.086 283.114 240.23C282.976 240.373 282.787 240.458 282.587 240.465ZM287.579 240.28C287.379 240.273 287.19 240.189 287.052 240.045C286.913 239.901 286.835 239.709 286.835 239.51C286.835 239.31 286.913 239.118 287.052 238.974C287.19 238.831 287.379 238.746 287.579 238.739C287.778 238.746 287.967 238.831 288.106 238.974C288.245 239.118 288.322 239.31 288.322 239.51C288.322 239.709 288.245 239.901 288.106 240.045C287.967 240.189 287.778 240.273 287.579 240.28ZM291.646 239.725C291.447 239.718 291.258 239.634 291.119 239.49C290.98 239.347 290.903 239.155 290.903 238.955C290.903 238.755 290.98 238.563 291.119 238.42C291.258 238.276 291.447 238.192 291.646 238.185C291.846 238.192 292.035 238.276 292.173 238.42C292.312 238.563 292.39 238.755 292.39 238.955C292.39 239.155 292.312 239.347 292.173 239.49C292.035 239.634 291.846 239.718 291.646 239.725ZM304.3 163.227C303.939 165.524 303.329 167.774 302.482 169.939C302.256 170.478 302.046 171.023 301.799 171.547L301.008 173.108C300.879 173.368 300.733 173.621 300.572 173.863L300.109 174.607L299.642 175.347C299.493 175.593 299.293 175.809 299.118 176.045L298.045 177.422L296.838 178.675L296.227 179.291L295.549 179.84C295.102 180.2 294.645 180.554 294.188 180.903C294.579 180.472 294.964 180.051 295.354 179.635L295.939 179.014L296.463 178.336L297.521 177L298.461 175.588C299.685 173.69 300.712 171.671 301.527 169.564C302.354 167.456 303.02 165.287 303.519 163.078C304.018 160.849 304.375 158.59 304.588 156.315C304.777 158.622 304.68 160.944 304.3 163.227ZM327.305 242.229C339.138 241.466 350.981 241.015 362.826 240.639C368.748 240.469 374.672 240.312 380.597 240.214C386.522 240.102 392.448 240.056 398.377 240.076C392.46 240.455 386.542 240.768 380.621 241.015C374.701 241.276 368.779 241.477 362.857 241.665C351.011 242.008 339.163 242.274 327.305 242.229ZM360.358 251.314C365.235 250.788 370.119 250.573 375.005 250.434C377.449 250.381 379.893 250.342 382.338 250.362C384.783 250.368 387.23 250.441 389.678 250.58C387.24 250.84 384.8 251.035 382.358 251.164C379.917 251.307 377.474 251.39 375.031 251.46C370.144 251.566 365.255 251.595 360.358 251.314ZM343.624 162.649C355.458 161.887 367.3 161.435 379.145 161.06C385.068 160.89 390.991 160.732 396.916 160.634C402.841 160.522 408.768 160.476 414.696 160.497C408.78 160.876 402.861 161.189 396.94 161.436C391.02 161.696 385.098 161.898 379.176 162.086C367.33 162.428 355.482 162.694 343.624 162.649ZM376.678 171.734C381.554 171.208 386.438 170.993 391.325 170.854C393.768 170.802 396.212 170.763 398.657 170.783C401.102 170.789 403.549 170.861 405.997 171C403.559 171.261 401.119 171.456 398.677 171.584C396.236 171.727 393.793 171.81 391.35 171.88C386.463 171.986 381.574 172.016 376.678 171.734Z" fill="white"></path> <path d="M213.438 270L235.499 268.779L257.565 267.665L301.706 265.604L345.857 263.78L367.935 262.952L390.02 262.232L367.958 263.455L345.891 264.569L301.751 266.629L257.6 268.451L235.521 269.279L213.438 270Z" fill="white"></path> <path d="M299.54 127.347L299.192 127.346C299.139 127.346 299.098 127.345 299.163 127.345L299.426 127.345C299.463 127.344 299.407 127.344 299.31 127.344L299.043 127.343L299.54 127.341H299.643L300.14 127.343L299.873 127.344C299.776 127.344 299.72 127.344 299.757 127.345L300.02 127.345C300.085 127.345 300.044 127.346 299.991 127.346L299.643 127.347H299.54ZM302.498 143.38L302.498 143.728C302.497 143.78 302.497 143.822 302.497 143.757L302.496 143.494C302.496 143.457 302.496 143.513 302.496 143.609L302.494 143.877L302.493 143.38V143.277L302.494 142.78L302.496 143.047C302.496 143.143 302.496 143.199 302.496 143.163L302.497 142.9C302.497 142.834 302.497 142.876 302.498 142.928L302.498 143.277V143.38ZM303.073 184.731C303.045 187.297 302.995 189.864 302.921 192.429C302.837 194.995 302.785 197.564 302.673 200.13L302.408 199.732C304.596 200.448 306.878 200.835 309.18 200.879C310.298 200.897 311.409 200.716 312.463 200.344C312.962 200.154 313.424 199.879 313.83 199.531C314.027 199.359 314.208 199.168 314.369 198.961L314.852 198.243C315.599 197.249 316.578 196.451 317.704 195.922C318.781 195.391 319.914 194.984 321.082 194.708C323.389 194.169 325.75 193.891 328.119 193.882L327.993 194.202C326.886 192.998 325.98 191.622 325.312 190.129C324.595 188.678 323.954 187.191 323.39 185.675C322.243 182.652 321.234 179.581 320.307 176.486C318.448 170.296 316.965 164.004 315.59 157.697C314.22 151.387 313.019 145.046 311.988 138.673C311.456 135.49 310.95 132.304 310.494 129.11C310.022 125.918 309.591 122.721 309.201 119.518C309.199 119.504 309.203 119.491 309.211 119.48C309.219 119.47 309.23 119.463 309.244 119.461C309.257 119.459 309.27 119.462 309.281 119.469C309.292 119.477 309.3 119.489 309.302 119.502L312.882 138.513C314.114 144.84 315.33 151.168 316.625 157.478C317.269 160.634 317.94 163.785 318.665 166.922C319.37 170.064 320.126 173.193 320.934 176.31C321.75 179.423 322.629 182.524 323.731 185.547C324.274 187.059 324.893 188.543 325.588 189.992L326.142 191.059L326.76 192.086C326.974 192.422 327.22 192.735 327.451 193.059C327.694 193.371 327.983 193.639 328.245 193.932L328.253 193.94C328.277 193.966 328.292 193.999 328.298 194.034C328.304 194.069 328.3 194.106 328.286 194.138C328.272 194.171 328.249 194.199 328.219 194.219C328.19 194.239 328.155 194.251 328.12 194.252C325.793 194.325 323.485 194.68 321.244 195.309C320.138 195.615 319.069 196.045 318.06 196.59C317.074 197.104 316.221 197.84 315.568 198.739L315.084 199.491C314.89 199.751 314.672 199.992 314.432 200.21C313.95 200.632 313.397 200.966 312.8 201.197C311.642 201.624 310.412 201.821 309.178 201.777C306.783 201.698 304.413 201.261 302.147 200.48C302.066 200.454 301.997 200.401 301.949 200.331C301.901 200.261 301.877 200.177 301.881 200.092L301.882 200.082C302.018 197.523 302.215 194.967 302.378 192.407C302.551 189.849 302.749 187.29 302.971 184.731L302.971 184.726C302.972 184.712 302.978 184.7 302.988 184.691C302.998 184.683 303.011 184.678 303.025 184.679C303.038 184.679 303.05 184.685 303.059 184.695C303.068 184.704 303.073 184.717 303.073 184.731Z" fill="white"></path> <path d="M293.055 144.495C294.64 144.211 296.22 144.043 297.781 143.811C298.563 143.711 299.337 143.578 300.102 143.444C300.851 143.311 301.587 143.118 302.305 142.867L302.327 142.859C302.38 142.84 302.437 142.83 302.494 142.83L302.499 142.83L302.31 142.867C302.659 142.746 302.981 142.558 303.258 142.314L303.16 142.72C302.976 141.805 302.814 140.885 302.674 139.959C302.53 139.034 302.415 138.103 302.345 137.161C302.697 138.037 303.005 138.924 303.284 139.817C303.566 140.71 303.827 141.607 304.067 142.509C304.085 142.577 304.086 142.648 304.071 142.716C304.056 142.784 304.025 142.848 303.981 142.901L303.968 142.916C303.619 143.308 303.179 143.608 302.687 143.79C302.633 143.814 302.575 143.826 302.516 143.827L302.499 143.827L302.494 143.827L302.682 143.79C301.908 144.098 301.101 144.313 300.276 144.43C299.477 144.557 298.671 144.64 297.863 144.679C296.258 144.757 294.649 144.696 293.055 144.495Z" fill="white"></path> <path d="M271.377 136.75L270.863 136.747L271.377 136.745L271.89 136.747L271.377 136.75Z" fill="white"></path> <path d="M272.059 241.599C272.161 241.609 272.087 241.606 272.11 241.61L272.109 241.617L272.109 241.632L272.107 241.661L272.105 241.72C272.104 241.76 272.1 241.799 272.095 241.838C272.087 241.917 272.074 241.995 272.057 242.072C272.025 242.229 271.976 242.382 271.91 242.528C271.775 242.825 271.581 243.091 271.339 243.31C271.093 243.534 270.805 243.706 270.491 243.816L269.618 244.108C268.453 244.489 267.283 244.856 266.111 245.22C263.776 245.934 261.389 246.638 259.072 247.284C258.553 247.439 258.081 247.721 257.699 248.105C257.317 248.489 257.038 248.964 256.887 249.484C256.742 250.028 256.748 250.601 256.902 251.142C257.057 251.684 257.355 252.173 257.766 252.558C258.153 253.001 258.652 253.332 259.21 253.517C259.768 253.703 260.365 253.736 260.94 253.613C262.158 253.487 263.374 253.344 264.588 253.183L264.593 253.183C264.625 253.179 264.657 253.183 264.686 253.196C264.715 253.208 264.74 253.228 264.759 253.254C264.777 253.28 264.788 253.31 264.791 253.342C264.794 253.373 264.788 253.405 264.774 253.433C264.443 254.087 264.371 254.842 264.57 255.547C264.765 256.23 265.214 256.813 265.824 257.176C266.146 257.347 266.482 257.489 266.83 257.599C267.186 257.728 267.547 257.843 267.909 257.951C268.629 258.172 269.363 258.35 270.105 258.483C271.577 258.756 273.079 258.824 274.57 258.687C274.928 258.654 275.285 258.601 275.637 258.527C275.965 258.443 276.279 258.316 276.573 258.148C276.875 257.971 277.158 257.762 277.415 257.523L278.288 256.77C280.61 254.756 282.983 252.8 285.365 250.85C285.649 250.609 285.99 250.355 286.227 250.124C286.471 249.881 286.677 249.603 286.838 249.299C287.168 248.677 287.271 247.96 287.129 247.271C287.055 246.924 286.915 246.595 286.718 246.301C286.492 245.977 286.292 245.636 286.123 245.279C285.956 244.922 285.82 244.551 285.717 244.171C285.597 243.791 285.549 243.392 285.576 242.994C285.578 242.981 285.584 242.97 285.594 242.961C285.604 242.953 285.617 242.949 285.63 242.95C285.643 242.951 285.655 242.956 285.664 242.966C285.672 242.975 285.677 242.988 285.677 243.001L285.677 243.015C285.705 243.388 285.796 243.754 285.945 244.097C286.079 244.449 286.244 244.789 286.437 245.114C286.633 245.435 286.854 245.74 287.099 246.026C287.356 246.356 287.549 246.731 287.666 247.133C287.834 247.748 287.843 248.396 287.691 249.016C287.54 249.636 287.232 250.207 286.799 250.675C286.496 250.993 286.221 251.207 285.931 251.478C283.642 253.545 281.344 255.605 278.995 257.607L278.117 258.36C277.804 258.641 277.459 258.884 277.089 259.084C276.707 259.29 276.3 259.443 275.878 259.539C275.475 259.615 275.068 259.667 274.659 259.694C273.074 259.811 271.481 259.691 269.932 259.338C269.164 259.166 268.408 258.947 267.667 258.682C267.297 258.548 266.933 258.403 266.574 258.246L266.039 258.005C265.848 257.918 265.664 257.814 265.49 257.696C264.791 257.216 264.298 256.492 264.108 255.665C263.936 254.859 264.054 254.018 264.443 253.292L264.629 253.542C263.409 253.657 262.192 253.785 260.976 253.932C260.349 254.049 259.704 254.027 259.086 253.868C258.464 253.683 257.896 253.35 257.431 252.899C256.938 252.462 256.556 251.916 256.313 251.304C256.071 250.668 256.021 249.974 256.169 249.31C256.308 248.635 256.626 248.009 257.09 247.499C257.554 246.989 258.146 246.613 258.806 246.411C261.198 245.712 263.531 245.107 265.91 244.492C267.096 244.194 268.284 243.899 269.476 243.618L270.372 243.413C270.65 243.347 270.911 243.225 271.141 243.055C271.37 242.885 271.563 242.67 271.707 242.423C271.784 242.298 271.848 242.165 271.897 242.027C271.923 241.958 271.945 241.887 271.963 241.814C271.973 241.779 271.981 241.742 271.987 241.705L271.997 241.65L272.003 241.622L272.005 241.609L272.006 241.602C272.03 241.601 271.956 241.593 272.059 241.599Z" fill="white"></path> <path d="M264.608 253.362C265.558 252.409 266.555 251.504 267.596 250.651C268.623 249.788 269.686 248.973 270.755 248.168C271.836 247.378 272.924 246.599 274.048 245.867L274.893 245.321C275.159 245.162 275.401 244.967 275.612 244.741C276.058 244.266 276.372 243.681 276.522 243.047C276.574 243.752 276.395 244.455 276.012 245.049C275.813 245.353 275.571 245.627 275.294 245.862L274.526 246.511C273.499 247.374 272.436 248.189 271.366 248.993C270.285 249.782 269.196 250.561 268.072 251.292C266.953 252.04 265.797 252.731 264.608 253.362ZM261.074 107.404C255.388 108.617 249.695 109.787 244.006 110.96C241.161 111.544 238.322 112.149 235.488 112.777L231.241 113.719L229.126 114.215C228.721 114.313 228.3 114.332 227.888 114.271L226.81 114.103C221.066 113.221 215.329 112.273 209.567 111.517L207.406 111.233C207.265 111.191 207.112 111.203 206.98 111.268C206.923 111.298 206.873 111.341 206.836 111.393C206.799 111.446 206.775 111.506 206.766 111.57C206.733 111.894 206.805 112.22 206.97 112.5C207.359 113.081 207.869 113.571 208.466 113.936C209.071 114.318 209.704 114.653 210.361 114.938C213.033 116.037 215.802 116.88 218.633 117.457L218.638 117.458C218.667 117.465 218.695 117.476 218.722 117.49C219.029 117.663 219.302 117.893 219.526 118.166C219.753 118.446 219.917 118.772 220.008 119.122C220.134 119.819 219.999 120.539 219.627 121.143C219.294 121.692 218.888 122.193 218.419 122.632C217.967 123.058 217.491 123.458 216.992 123.829L216.986 123.833L216.964 123.848C216.541 124.113 216.147 124.422 215.789 124.77C215.659 124.888 215.557 125.034 215.49 125.197C215.497 125.221 215.479 125.136 215.473 125.144C215.521 125.176 215.574 125.201 215.63 125.217C216.099 125.322 216.581 125.358 217.06 125.322C217.576 125.302 218.091 125.254 218.602 125.177C220.635 124.788 222.534 123.882 224.116 122.546C224.525 122.224 224.917 121.88 225.296 121.52C225.486 121.342 225.67 121.156 225.853 120.97C226.036 120.781 226.2 120.598 226.425 120.375C227.3 119.531 228.446 119.026 229.659 118.95C229.952 118.935 230.246 118.942 230.538 118.97L231.336 119.029L232.936 119.126C234.003 119.179 235.071 119.216 236.14 119.237C238.277 119.286 240.414 119.261 242.551 119.162C244.687 119.067 246.811 118.838 248.931 118.57C251.047 118.273 253.142 117.842 255.203 117.28C257.263 116.697 259.259 115.91 261.163 114.93C261.169 114.927 261.175 114.925 261.182 114.924C261.188 114.923 261.195 114.924 261.202 114.926C261.208 114.927 261.214 114.93 261.22 114.935C261.225 114.939 261.229 114.944 261.233 114.95C261.239 114.962 261.24 114.975 261.237 114.988C261.234 115 261.226 115.012 261.215 115.019C259.357 116.125 257.387 117.03 255.337 117.717C253.274 118.368 251.171 118.885 249.041 119.265C244.772 119.963 240.452 120.298 236.127 120.265C235.047 120.255 233.967 120.229 232.887 120.187L231.268 120.106L230.458 120.055C230.215 120.033 229.971 120.03 229.727 120.044C228.774 120.108 227.873 120.505 227.184 121.166L226.639 121.733C226.445 121.93 226.25 122.126 226.048 122.314C225.646 122.694 225.23 123.059 224.793 123.4C223.052 124.827 220.974 125.781 218.757 126.171C218.204 126.247 217.647 126.292 217.089 126.306C216.495 126.342 215.898 126.283 215.322 126.131C215.12 126.068 214.936 125.958 214.785 125.811C214.685 125.708 214.612 125.582 214.572 125.444C214.531 125.306 214.525 125.16 214.554 125.02C214.596 124.822 214.682 124.636 214.805 124.475C214.898 124.345 215.002 124.223 215.116 124.11C215.531 123.711 215.99 123.359 216.484 123.062L216.456 123.08C216.929 122.745 217.382 122.382 217.813 121.994C218.231 121.622 218.596 121.195 218.9 120.724C219.18 120.304 219.297 119.797 219.229 119.297C219.172 119.063 219.066 118.843 218.918 118.651C218.764 118.457 218.578 118.289 218.37 118.154L218.458 118.187L216.346 117.61C215.648 117.392 214.943 117.204 214.252 116.962C212.855 116.519 211.489 115.984 210.164 115.359C209.496 115.045 208.853 114.68 208.242 114.267C207.606 113.854 207.064 113.313 206.65 112.678C206.449 112.324 206.367 111.916 206.417 111.512C206.436 111.396 206.481 111.286 206.55 111.19C206.619 111.094 206.71 111.016 206.814 110.961C207.011 110.865 207.236 110.841 207.448 110.894L209.606 111.202C215.361 112.022 221.14 112.651 226.913 113.346L227.994 113.474C228.304 113.509 228.617 113.483 228.917 113.399L231.036 112.856C232.45 112.504 233.871 112.19 235.292 111.875C238.139 111.272 240.994 110.716 243.85 110.168C249.564 109.091 255.3 108.136 261.056 107.303C261.069 107.301 261.083 107.304 261.094 107.312C261.105 107.32 261.112 107.332 261.114 107.345C261.116 107.358 261.114 107.371 261.106 107.382C261.099 107.393 261.087 107.401 261.074 107.404ZM318.495 108.357L322.915 108.795C324.389 108.943 325.861 109.1 327.331 109.268C330.273 109.603 333.217 109.911 336.154 110.283L344.968 111.361C347.904 111.744 350.838 112.131 353.766 112.57L353.554 112.602L360.602 109.544C362.954 108.53 365.288 107.477 367.619 106.419L371.101 104.799L371.971 104.394C372.122 104.325 372.249 104.26 372.419 104.19C372.609 104.112 372.819 104.104 373.014 104.166C373.209 104.23 373.377 104.357 373.491 104.528C373.604 104.699 373.657 104.903 373.641 105.107C373.615 105.294 373.547 105.473 373.444 105.63C373.367 105.774 373.281 105.913 373.198 106.053C371.786 108.272 369.776 110.047 367.398 111.172L367.316 110.511C367.506 110.551 367.687 110.624 367.85 110.728C368.027 110.839 368.173 110.993 368.274 111.175C368.361 111.355 368.408 111.552 368.412 111.752C368.417 111.952 368.378 112.151 368.299 112.335C368.04 112.923 367.672 113.457 367.214 113.907C366.368 114.761 365.451 115.542 364.472 116.241C363.515 116.948 362.521 117.595 361.521 118.228C360.522 118.864 359.504 119.463 358.485 120.061L358.562 120.007C358.01 120.457 357.398 120.828 356.744 121.111C356.076 121.411 355.353 121.572 354.621 121.586C353.853 121.592 353.1 121.374 352.456 120.958C351.846 120.542 351.328 120.005 350.934 119.38L351.36 119.629C345.177 119.264 338.998 118.821 332.82 118.366C329.731 118.15 326.643 117.897 323.556 117.65C320.468 117.409 317.382 117.135 314.296 116.853C314.283 116.852 314.27 116.846 314.262 116.835C314.253 116.825 314.249 116.812 314.249 116.799C314.25 116.785 314.256 116.773 314.266 116.764C314.276 116.755 314.289 116.75 314.302 116.751C317.399 116.849 320.495 116.955 323.59 117.094C326.684 117.228 329.78 117.354 332.872 117.519C339.059 117.824 345.246 118.141 351.427 118.536C351.513 118.542 351.595 118.567 351.669 118.611C351.743 118.654 351.806 118.714 351.853 118.785C352.163 119.281 352.57 119.709 353.05 120.042C353.518 120.35 354.065 120.515 354.625 120.518C355.215 120.513 355.799 120.389 356.34 120.154C356.901 119.919 357.428 119.611 357.908 119.237L357.928 119.221C357.946 119.207 357.965 119.194 357.985 119.183C360.024 118.034 362.038 116.835 363.948 115.51C364.902 114.865 365.799 114.14 366.63 113.344C367.022 112.979 367.345 112.545 367.581 112.064C367.626 111.981 367.653 111.889 367.661 111.795C367.668 111.701 367.656 111.606 367.625 111.517C367.576 111.437 367.512 111.368 367.436 111.313C367.36 111.259 367.274 111.22 367.183 111.199L367.153 111.191C367.083 111.172 367.021 111.133 366.975 111.078C366.929 111.023 366.901 110.954 366.895 110.883C366.89 110.811 366.906 110.74 366.943 110.678C366.98 110.616 367.035 110.567 367.101 110.538C369.424 109.548 371.415 107.912 372.836 105.824C372.92 105.692 373.007 105.561 373.086 105.425C373.165 105.319 373.219 105.197 373.246 105.067C373.259 104.95 373.231 104.833 373.167 104.734C373.104 104.636 373.008 104.562 372.897 104.525C372.785 104.488 372.663 104.492 372.554 104.536C372.427 104.586 372.267 104.663 372.126 104.725L371.25 105.12L367.749 106.699C365.424 107.772 363.102 108.852 360.798 109.971L353.879 113.311C353.818 113.34 353.75 113.352 353.683 113.345L353.666 113.343C350.723 113.023 347.786 112.653 344.85 112.277L336.051 111.081C333.116 110.695 330.19 110.244 327.26 109.822C325.794 109.613 324.331 109.391 322.869 109.157L318.482 108.459C318.469 108.457 318.457 108.449 318.449 108.439C318.441 108.428 318.437 108.415 318.439 108.401C318.441 108.388 318.448 108.376 318.458 108.368C318.469 108.359 318.482 108.355 318.495 108.357Z" fill="white"></path> <path d="M359.694 114.856L367.01 110.401C367.067 110.366 367.131 110.342 367.198 110.332C367.265 110.321 367.333 110.324 367.399 110.34C367.465 110.356 367.527 110.384 367.581 110.424C367.636 110.464 367.682 110.515 367.717 110.572C367.753 110.63 367.776 110.694 367.786 110.761C367.797 110.828 367.794 110.896 367.778 110.962C367.762 111.028 367.733 111.089 367.693 111.144C367.653 111.199 367.603 111.245 367.545 111.28C367.527 111.29 367.509 111.3 367.49 111.309L359.694 114.856ZM281.217 99.7285C281.312 98.929 281.48 98.1834 281.627 97.4312L281.844 96.3059L282.033 95.1504C282.281 95.9208 282.314 96.744 282.13 97.532C282.049 97.9224 281.934 98.305 281.787 98.6754C281.643 99.0497 281.452 99.4037 281.217 99.7285Z" fill="white"></path> <path d="M289.284 94.5155C288.366 95.399 287.202 95.9853 285.946 96.198C284.689 96.4107 283.397 96.24 282.239 95.708C281.652 95.4215 281.117 95.0383 280.656 94.5746C280.19 94.1161 279.8 93.5854 279.503 93.0029C279.352 92.7097 279.227 92.4038 279.129 92.0888C279.086 91.9409 279.033 91.74 279.005 91.6578C278.949 91.503 278.903 91.3453 278.865 91.1854C278.738 90.5407 278.714 89.88 278.794 89.2278C278.947 87.994 279.224 86.7788 279.62 85.6004C280.003 84.428 280.49 83.2919 281.073 82.2055C281.385 81.6716 281.727 81.1555 282.096 80.6596C282.449 80.1604 282.821 79.6763 283.195 79.1939C283.935 78.2153 284.756 77.2999 285.648 76.457C285.674 76.4323 285.706 76.415 285.741 76.4068C285.776 76.3986 285.813 76.3997 285.847 76.4101C285.882 76.4205 285.913 76.4398 285.937 76.4661C285.962 76.4923 285.979 76.5246 285.988 76.5596L285.991 76.5766C286.447 78.6203 287.207 80.5839 288.246 82.4015C288.745 83.2808 289.39 84.069 290.154 84.7321C290.877 85.3607 291.797 85.7165 292.755 85.7376L292.689 85.7408C293.157 85.6925 293.631 85.7257 294.088 85.8388C294.607 85.9541 295.07 86.2486 295.394 86.6707C295.692 87.1148 295.826 87.6493 295.771 88.1814C295.747 88.415 295.709 88.6469 295.659 88.8763L295.454 89.5122C295.137 90.3498 294.63 91.102 293.972 91.709C293.64 92.013 293.269 92.2726 292.87 92.4813C292.449 92.7138 291.982 92.8517 291.502 92.8853L291.955 92.5202C291.714 93.4281 291.526 94.3489 291.389 95.2781C291.252 96.2091 291.17 97.1474 291.142 98.088C291.111 99.0229 291.207 99.9577 291.427 100.867C291.625 101.785 292.129 102.609 292.856 103.203C292.867 103.211 292.874 103.223 292.876 103.236C292.879 103.248 292.876 103.262 292.869 103.273C292.862 103.284 292.851 103.291 292.838 103.295C292.825 103.298 292.812 103.296 292.801 103.29C291.955 102.759 291.324 101.946 291.02 100.995C290.703 100.062 290.523 99.0874 290.484 98.1023C290.427 97.1264 290.452 96.1475 290.558 95.1758C290.654 94.2019 290.805 93.2342 291.011 92.2775C291.033 92.1802 291.085 92.0924 291.16 92.027C291.235 91.9617 291.329 91.9223 291.428 91.9147L291.464 91.9122C291.791 91.8618 292.105 91.7464 292.387 91.5728C292.701 91.3992 292.992 91.1855 293.252 90.9372C293.775 90.4279 294.176 89.8076 294.426 89.1222C294.704 88.4392 294.792 87.6924 294.507 87.3072C294.257 86.9011 293.465 86.7191 292.804 86.7656L292.768 86.7681L292.738 86.7688C291.552 86.7161 290.422 86.2514 289.542 85.4548C288.716 84.6999 288.036 83.8005 287.534 82.801C287.032 81.8384 286.626 80.8291 286.32 79.7876C286.005 78.7587 285.758 77.7101 285.581 76.6487L285.925 76.7682C285.004 77.5475 284.171 78.4251 283.44 79.3855C282.687 80.3238 282.018 81.327 281.442 82.3833C280.955 83.4812 280.565 84.62 280.278 85.7863C279.994 86.9428 279.799 88.1192 279.693 89.3052C279.634 89.8628 279.658 90.4262 279.764 90.9769C279.796 91.1071 279.83 91.2242 279.88 91.3793L280 91.8264C280.078 92.0937 280.178 92.3536 280.301 92.6033C280.8 93.6234 281.598 94.4668 282.59 95.0204C283.64 95.5479 284.816 95.7728 285.987 95.6698C287.157 95.5668 288.276 95.14 289.218 94.4372C289.229 94.429 289.243 94.4256 289.256 94.4276C289.27 94.4296 289.282 94.4369 289.29 94.4478C289.297 94.4579 289.301 94.4703 289.3 94.4827C289.299 94.4951 289.293 94.5068 289.284 94.5155Z" fill="white"></path> <path d="M280.51 84.0086C280.465 83.1314 280.518 82.2518 280.669 81.3865C280.808 80.5081 281.066 79.6527 281.436 78.8441C281.795 77.9926 282.421 77.2812 283.221 76.8174C283.634 76.6057 284.096 76.5057 284.561 76.5273C285.005 76.5676 285.438 76.688 285.84 76.8827C285.422 76.787 284.993 76.7521 284.565 76.779C284.157 76.8177 283.764 76.9506 283.417 77.167C282.742 77.6444 282.216 78.3023 281.899 79.0653C281.543 79.8386 281.262 80.6439 281.059 81.4703C280.847 82.3024 280.662 83.1481 280.51 84.0086ZM282.76 85.2516C282.981 85.2439 283.192 85.1504 283.346 84.9907C283.5 84.831 283.587 84.6176 283.587 84.3955C283.587 84.1735 283.5 83.9601 283.346 83.8004C283.192 83.6407 282.981 83.5471 282.76 83.5394C282.538 83.5471 282.327 83.6407 282.173 83.8004C282.019 83.9601 281.933 84.1735 281.933 84.3955C281.933 84.6176 282.019 84.831 282.173 84.9907C282.327 85.1504 282.538 85.2439 282.76 85.2516ZM287.261 86.5159C287.483 86.5083 287.693 86.4147 287.847 86.255C288.001 86.0953 288.088 85.8819 288.088 85.6599C288.088 85.4378 288.001 85.2244 287.847 85.0647C287.693 84.905 287.483 84.8115 287.261 84.8038C287.039 84.8115 286.828 84.905 286.674 85.0647C286.52 85.2244 286.434 85.4378 286.434 85.6599C286.434 85.8819 286.52 86.0953 286.674 86.255C286.828 86.4147 287.039 86.5083 287.261 86.5159Z" fill="white"></path> <path d="M281.379 82.1312C281.596 81.9375 281.867 81.8148 282.156 81.7796C282.436 81.7345 282.723 81.7489 282.997 81.8217C283.275 81.8861 283.535 82.0148 283.755 82.1974C283.975 82.3801 284.149 82.6116 284.264 82.8736C284 82.8456 283.739 82.7989 283.481 82.7339C283.248 82.6744 283.022 82.629 282.802 82.5668C282.356 82.4416 281.929 82.3357 281.379 82.1312ZM287.099 83.6032C287.28 83.4279 287.512 83.3138 287.761 83.2771C287.998 83.2331 288.242 83.2416 288.475 83.302C288.716 83.3543 288.94 83.4669 289.126 83.6293C289.311 83.7917 289.453 83.9985 289.537 84.2304C289.309 84.2287 289.081 84.2072 288.856 84.1661C288.657 84.1297 288.47 84.0975 288.286 84.0484C287.875 83.9447 287.477 83.7954 287.099 83.6032ZM282.67 86.3883C282.965 86.6972 283.314 86.948 283.701 87.1276C283.871 87.2192 284.061 87.2977 284.259 87.4012C284.489 87.4999 284.709 87.6205 284.916 87.7616C284.685 87.9069 284.419 87.9865 284.147 87.9918C283.871 87.9989 283.597 87.9375 283.35 87.8131C283.09 87.6827 282.875 87.4754 282.736 87.2191C282.662 87.0947 282.618 86.9553 282.607 86.8113C282.595 86.6673 282.617 86.5226 282.67 86.3883ZM283.734 92.3546C283.946 92.4128 284.168 92.4214 284.384 92.3799C284.599 92.3385 284.803 92.248 284.978 92.1155C285.271 91.8604 285.46 91.5057 285.507 91.1198C285.555 90.7339 285.458 90.3441 285.235 90.0255C285.035 89.7848 284.763 89.6134 284.46 89.5357C284.157 89.458 283.836 89.4781 283.545 89.593C283.197 89.7643 282.924 90.0583 282.779 90.4185C282.634 90.7788 282.627 91.1799 282.76 91.5448C282.849 91.7455 282.984 91.9228 283.152 92.0633C283.321 92.2037 283.52 92.3034 283.734 92.3546ZM283.734 92.3546C283.29 92.2481 282.9 91.9844 282.636 91.6124C282.364 91.2022 282.248 90.7085 282.309 90.2203C282.336 89.9518 282.417 89.6917 282.547 89.4553C282.677 89.2189 282.853 89.0111 283.066 88.8444C283.302 88.6771 283.572 88.5634 283.857 88.511C284.141 88.4586 284.434 88.4689 284.714 88.5411C284.995 88.6134 285.256 88.7458 285.48 88.9292C285.704 89.1127 285.885 89.3427 286.011 89.6033C286.116 89.8515 286.17 90.1184 286.17 90.3879C286.17 90.6574 286.115 90.9241 286.01 91.1721C285.827 91.6283 285.488 92.0046 285.053 92.2332C284.643 92.4322 284.174 92.4754 283.734 92.3546Z" fill="white"></path> <path d="M285.814 82.7653C286.014 82.7584 286.203 82.6742 286.342 82.5305C286.481 82.3868 286.559 82.1948 286.559 81.9949C286.559 81.7951 286.481 81.6031 286.342 81.4594C286.203 81.3157 286.014 81.2315 285.814 81.2246C285.615 81.2315 285.426 81.3157 285.287 81.4594C285.148 81.6031 285.07 81.7951 285.07 81.9949C285.07 82.1948 285.148 82.3868 285.287 82.5305C285.426 82.6742 285.615 82.7584 285.814 82.7653Z" fill="white"></path> <path d="M269.528 127.493C269.872 127.77 270.255 127.994 270.665 128.158C271.063 128.317 271.477 128.433 271.9 128.505C272.329 128.579 272.761 128.627 273.196 128.646L273.863 128.668C274.087 128.668 274.313 128.666 274.547 128.687C274.335 128.778 274.115 128.848 273.893 128.918C273.669 128.966 273.441 129.017 273.211 129.046C272.744 129.102 272.272 129.09 271.809 129.01C271.339 128.928 270.889 128.759 270.482 128.513C270.07 128.275 269.738 127.92 269.528 127.493ZM285.167 128.016C285.841 128.351 286.546 128.619 287.271 128.816C287.983 129.012 288.715 129.12 289.453 129.139C290.188 129.168 290.924 129.096 291.64 128.925C292.371 128.751 293.086 128.512 293.774 128.211C293.468 128.443 293.148 128.656 292.816 128.85C292.475 129.037 292.118 129.191 291.748 129.311C291.005 129.566 290.222 129.682 289.437 129.652C287.868 129.614 286.36 129.036 285.167 128.016ZM268.188 103.707C270.291 100.065 272.405 96.4733 274.383 92.8041C275.386 90.9776 276.318 89.1167 277.247 87.251C278.156 85.3747 278.996 83.4707 279.834 81.5371C279.392 83.5996 278.772 85.6198 277.98 87.5748C277.187 89.5285 276.288 91.4373 275.286 93.2923C274.271 95.138 273.193 96.9478 272.011 98.6896C270.847 100.443 269.57 102.119 268.188 103.707Z" fill="white"></path> <path d="M285.858 76.0046C285.68 75.5491 285.427 75.1266 285.109 74.7546C284.98 74.5973 284.818 74.4709 284.633 74.3849C284.449 74.2989 284.247 74.2554 284.044 74.2577C283.616 74.3076 283.208 74.4618 282.854 74.7066C282.456 74.9715 282.073 75.2582 281.707 75.5653C280.913 76.1832 280.182 76.877 279.524 77.6369C278.888 78.4261 278.349 79.2884 277.918 80.2056C277.81 80.4337 277.693 80.6568 277.592 80.8873C277.499 81.1219 277.402 81.3539 277.302 81.5832C277.092 82.0381 276.908 82.5011 276.73 82.966C276.382 83.8936 276.083 84.8388 275.834 85.7977C275.295 87.7201 275.043 89.7113 275.085 91.7073L275.085 91.7137C275.086 91.7259 275.082 91.7379 275.074 91.7475C275.067 91.7571 275.056 91.7637 275.044 91.7661C275.032 91.7685 275.02 91.7666 275.009 91.7608C274.998 91.7549 274.99 91.7454 274.986 91.734C274.324 89.7302 274.249 87.5788 274.771 85.534C275.027 84.5184 275.386 83.5314 275.841 82.5881C276.051 82.1116 276.294 81.6503 276.568 81.2076C276.83 80.7594 277.119 80.3283 277.436 79.9169C277.731 79.4929 278.041 79.0819 278.358 78.6777C278.676 78.275 278.949 77.8409 279.26 77.4337C279.825 76.5612 280.449 75.7275 281.125 74.9383C281.495 74.5421 281.919 74.2014 282.386 73.9267C282.888 73.6073 283.475 73.4455 284.069 73.4621C284.378 73.4895 284.674 73.5926 284.933 73.7621C285.192 73.9317 285.404 74.1626 285.552 74.4342C285.82 74.9081 285.96 75.4435 285.959 75.9879C285.959 75.9999 285.955 76.0116 285.947 76.0209C285.94 76.0303 285.929 76.0367 285.918 76.0391C285.906 76.0415 285.894 76.0398 285.883 76.0342C285.872 76.0286 285.864 76.0194 285.859 76.0083L285.858 76.0046Z" fill="white"></path> <path d="M285.336 74.6729C285.322 74.1908 285.378 73.7092 285.501 73.2429C285.617 72.7583 285.821 72.2994 286.105 71.8895C286.403 71.4578 286.809 71.1118 287.282 70.8862C287.761 70.6677 288.282 70.5596 288.808 70.57C289.807 70.6146 290.786 70.8701 291.68 71.3197C292.559 71.7263 293.385 72.2381 294.14 72.844C295.618 74.064 296.884 75.519 297.889 77.1505C298.92 78.7431 299.783 80.4384 300.464 82.2093C301.16 83.9939 301.597 85.8691 301.761 87.7776C301.851 88.7451 301.853 89.7188 301.766 90.6865L301.657 91.4266L301.548 92.1011L301.44 92.769C301.415 92.9927 301.413 93.2183 301.391 93.4423C301.146 97.132 302.352 100.771 304.753 103.584L304.757 103.588C304.765 103.598 304.769 103.611 304.768 103.623C304.768 103.636 304.763 103.648 304.753 103.657C304.744 103.666 304.732 103.672 304.72 103.672C304.707 103.673 304.694 103.669 304.684 103.66C303.211 102.399 302.049 100.814 301.288 99.0294C300.527 97.2449 300.188 95.309 300.298 93.3723C300.31 93.1285 300.323 92.8839 300.349 92.6416L300.469 91.92L300.703 90.5549C300.817 89.655 300.848 88.7466 300.797 87.841C300.703 85.9966 300.412 84.1675 299.93 82.3848C299.453 80.5813 298.67 78.8735 297.613 77.3363C296.531 75.8363 295.183 74.5476 293.636 73.5345C292.889 73.0133 292.105 72.5477 291.29 72.1416C290.509 71.73 289.658 71.4669 288.781 71.3656C288.366 71.3334 287.948 71.3861 287.554 71.5204C287.162 71.6713 286.812 71.9142 286.533 72.2286C285.957 72.9326 285.579 73.7781 285.439 74.6773L285.438 74.6805C285.436 74.6929 285.429 74.7041 285.419 74.7118C285.409 74.7195 285.396 74.7233 285.384 74.7223C285.371 74.7214 285.359 74.7158 285.35 74.7067C285.342 74.6976 285.336 74.6855 285.336 74.6729Z" fill="white"></path> <path d="M287.134 73.5672C287.849 73.6819 288.526 73.9631 289.112 74.3881C289.707 74.8092 290.226 75.3292 290.646 75.9255C291.051 76.5273 291.365 77.1855 291.578 77.8789C291.68 78.2224 291.762 78.5717 291.824 78.9248C291.861 79.2813 291.897 79.6357 291.91 79.9895C291.782 79.654 291.697 79.3146 291.579 78.9857C291.445 78.6622 291.348 78.3292 291.202 78.0166C290.934 77.3875 290.607 76.7853 290.225 76.2183C289.834 75.6611 289.378 75.1527 288.867 74.7038C288.347 74.2441 287.763 73.8614 287.134 73.5672ZM296.516 92.3321C296.564 93.1304 296.627 93.9198 296.692 94.705C296.767 95.4891 296.848 96.27 296.989 97.0368C297.109 97.8019 297.312 98.5518 297.592 99.2739C297.852 100.008 298.337 100.643 298.977 101.087C298.201 100.791 297.572 100.201 297.229 99.4443C296.864 98.7141 296.612 97.9322 296.484 97.1259C296.215 95.5382 296.226 93.9159 296.516 92.3321ZM275.615 99.4728C276.024 98.4801 276.52 97.5573 276.996 96.6272C277.242 96.166 277.472 95.7004 277.704 95.2353C277.944 94.7714 278.136 94.2837 278.275 93.78C278.334 94.3223 278.266 94.8708 278.076 95.3822C277.91 95.8924 277.701 96.3879 277.452 96.8636C276.965 97.8153 276.347 98.6937 275.615 99.4728ZM281.791 97.8785C281.867 98.0305 281.954 98.1769 282.051 98.3166C282.055 98.3226 282.058 98.3294 282.059 98.3365C282.06 98.3436 282.06 98.3508 282.059 98.3579C282.057 98.365 282.055 98.3717 282.051 98.3777C282.047 98.3837 282.041 98.3888 282.035 98.3928C282.029 98.3968 282.023 98.3996 282.015 98.401C282.008 98.4023 282.001 98.4023 281.994 98.4009C281.987 98.3994 281.98 98.3966 281.974 98.3926C281.968 98.3885 281.963 98.3834 281.959 98.3774L281.955 98.3699C281.883 98.2126 281.828 98.0478 281.791 97.8785ZM282.734 99.0983C282.986 99.33 283.259 99.5383 283.548 99.7203C283.571 99.7343 283.59 99.7525 283.605 99.7739C283.62 99.7952 283.631 99.8194 283.637 99.845C283.643 99.8706 283.643 99.8971 283.639 99.923C283.635 99.9488 283.625 99.9736 283.611 99.9957C283.597 100.018 283.579 100.037 283.557 100.052C283.536 100.067 283.512 100.078 283.486 100.084C283.46 100.09 283.434 100.09 283.408 100.086C283.382 100.081 283.358 100.072 283.335 100.057L283.322 100.048C283.028 99.8293 282.761 99.5755 282.527 99.2925C282.504 99.2646 282.493 99.2291 282.495 99.193C282.498 99.157 282.513 99.1232 282.54 99.0985C282.566 99.0738 282.601 99.06 282.637 99.06C282.673 99.0599 282.708 99.0736 282.734 99.0983ZM284.456 100.185C284.784 100.286 285.105 100.397 285.427 100.507L285.463 100.52C285.494 100.53 285.523 100.547 285.548 100.569C285.573 100.591 285.593 100.617 285.608 100.647C285.622 100.676 285.631 100.709 285.633 100.742C285.635 100.775 285.63 100.808 285.62 100.839C285.609 100.87 285.592 100.899 285.57 100.924C285.549 100.948 285.522 100.969 285.492 100.983C285.463 100.998 285.43 101.006 285.398 101.008C285.365 101.01 285.332 101.006 285.3 100.995L285.297 100.994C284.952 100.87 284.606 100.748 284.266 100.615C284.21 100.593 284.164 100.55 284.139 100.495C284.114 100.44 284.111 100.378 284.13 100.321C284.15 100.264 284.191 100.216 284.245 100.189C284.299 100.162 284.361 100.156 284.419 100.174L284.456 100.185ZM286.436 100.706C286.78 100.737 287.123 100.764 287.467 100.805L287.491 100.808C287.552 100.815 287.607 100.845 287.646 100.892C287.684 100.939 287.703 100.999 287.698 101.06C287.693 101.121 287.665 101.177 287.62 101.217C287.574 101.258 287.514 101.279 287.454 101.276C287.092 101.26 286.731 101.231 286.369 101.206C286.336 101.204 286.304 101.195 286.274 101.18C286.244 101.165 286.218 101.145 286.196 101.12C286.153 101.069 286.131 101.004 286.135 100.937C286.14 100.87 286.171 100.808 286.221 100.765C286.272 100.721 286.338 100.699 286.404 100.703L286.408 100.704L286.436 100.706ZM288.51 100.825C288.858 100.807 289.208 100.795 289.559 100.787L289.569 100.787C289.605 100.786 289.64 100.799 289.667 100.823C289.694 100.847 289.71 100.88 289.714 100.916C289.717 100.952 289.706 100.988 289.684 101.016C289.662 101.045 289.63 101.064 289.595 101.07C289.243 101.126 288.889 101.178 288.533 101.225C288.507 101.228 288.48 101.226 288.454 101.22C288.429 101.213 288.405 101.201 288.384 101.185C288.363 101.169 288.346 101.149 288.333 101.126C288.319 101.104 288.311 101.078 288.307 101.052C288.304 101.026 288.306 101 288.313 100.974C288.319 100.949 288.331 100.925 288.347 100.904C288.363 100.883 288.383 100.866 288.406 100.852C288.429 100.839 288.454 100.831 288.481 100.828L288.496 100.826L288.51 100.825ZM290.629 100.707C290.799 100.686 290.971 100.675 291.143 100.661C290.979 100.713 290.816 100.769 290.649 100.815C290.642 100.817 290.635 100.818 290.628 100.817C290.621 100.816 290.614 100.814 290.607 100.81C290.601 100.807 290.595 100.802 290.591 100.796C290.586 100.791 290.583 100.784 290.581 100.777C290.579 100.77 290.578 100.763 290.579 100.755C290.58 100.748 290.583 100.741 290.586 100.735C290.59 100.728 290.595 100.723 290.6 100.718C290.606 100.714 290.613 100.711 290.62 100.709L290.629 100.707ZM274.627 41.2948L274.252 41.3102C274.36 41.3051 274.488 41.2948 274.627 41.2948ZM306.482 54.6522C305.65 54.2767 304.788 53.971 303.904 53.7381C303.006 53.497 302.075 53.4033 301.147 53.4607C300.222 53.5173 299.344 53.5891 298.451 53.6662L295.79 53.8973L295.672 53.9075C295.082 54.0103 294.501 54.1489 293.947 54.2259C293.721 54.2888 293.485 54.3062 293.252 54.2771C293.019 54.248 292.794 54.173 292.591 54.0565C292.242 53.7192 292.009 53.2808 291.923 52.8034C291.752 52.2749 291.642 51.7288 291.595 51.1754C291.574 50.8981 291.59 50.6362 291.559 50.2716C291.539 50.0489 291.471 49.8332 291.358 49.6399C291.296 49.5378 291.22 49.4445 291.132 49.3626C291.038 49.2728 290.928 49.1999 290.809 49.147C290.458 49.0159 290.083 48.965 289.71 48.998C289.393 49.0108 289.077 49.0451 288.765 49.1007C287.57 49.3121 286.399 49.6389 285.268 50.0765C284.2 50.5445 283.106 50.9492 281.991 51.2884C280.838 51.5847 279.701 51.943 278.586 52.3618C276.435 53.1423 274.278 54.0051 271.967 54.1129C272.136 53.7945 272.311 53.4813 272.48 53.1629C273.42 51.4322 274.658 49.5115 276.24 46.0348C277.015 44.3298 277.529 43.0049 276.912 42.1318C276.409 41.4232 275.377 41.2948 274.663 41.2948L302.148 40.2266C300.753 40.4342 299.497 41.1834 298.651 42.3116C298.32 42.7234 298.112 43.2199 298.05 43.7444C297.942 45.2953 299.688 46.4868 300.972 47.5549C300.972 47.5549 304.603 50.59 306.482 54.6522Z" fill="white"></path> <path d="M306.483 54.6528C305.615 54.3961 304.734 54.187 303.843 54.0263C302.967 53.8842 302.073 53.8756 301.194 54.0005L298.472 54.3857L295.724 54.7503L295.837 54.7452C295.272 54.8684 294.707 55.0174 294.091 55.1303C293.765 55.1919 293.432 55.216 293.1 55.2022C292.718 55.1824 292.348 55.0581 292.032 54.8427C291.726 54.6234 291.48 54.3324 291.313 53.9954C291.175 53.7018 291.06 53.3979 290.969 53.0864C290.774 52.4897 290.646 51.873 290.589 51.2479C290.563 50.9398 290.568 50.6059 290.543 50.3851C290.542 50.3113 290.522 50.2389 290.486 50.1746C290.47 50.1528 290.453 50.1322 290.435 50.1129C290.421 50.1008 290.405 50.0905 290.388 50.0822C290.181 50.0194 289.963 49.995 289.747 50.0103C289.473 50.0219 289.2 50.051 288.93 50.0975C287.797 50.2953 286.682 50.5874 285.597 50.9706C284.491 51.4238 283.355 51.8013 282.197 52.1004C281.032 52.3418 279.928 52.6396 278.793 52.9837C277.659 53.3417 276.507 53.6399 275.342 53.8773C274.231 54.123 273.092 54.2111 271.957 54.1392C270.827 56.2704 269.79 58.4941 269.508 61.3443C269.333 63.0903 269.056 65.9251 270.694 68.4775C272.568 71.3995 275.845 72.2212 277.909 72.7399C281.17 73.5565 284.221 73.0737 290.198 72.0723C294.882 71.2865 297.275 70.8706 299.648 69.7048C302.251 68.4261 306.129 66.5208 307.366 62.5049C308.471 58.9409 306.915 55.5771 306.483 54.6528ZM289.885 59.4852L283.995 60.1889C283.507 60.2504 283.014 60.3018 282.511 60.3481C282.007 60.3891 281.509 60.4559 281.001 60.4508C280.492 60.4559 279.989 60.4764 279.481 60.4405C279.224 60.4251 278.972 60.42 278.721 60.3994L277.961 60.2916C276.941 60.1578 275.951 59.8522 275.033 59.3877C274.578 59.1444 274.16 58.8346 273.796 58.4684C273.433 58.1085 273.172 57.6582 273.041 57.164C273.532 58.0043 274.317 58.6335 275.244 58.9307C276.148 59.2545 277.094 59.4464 278.053 59.5007C279.999 59.5825 281.948 59.4724 283.872 59.172C285.849 58.9409 287.831 58.7561 289.824 58.6842C291.817 58.5762 293.816 58.6484 295.796 58.8999C293.809 59.0333 291.847 59.2696 289.885 59.4852Z" fill="white"></path> <path d="M271.541 41.2247L305.628 40" stroke="white" stroke-width="2.903" stroke-linecap="round" stroke-linejoin="round"></path> <path d="M271.968 54.1133C271.967 54.1228 271.964 54.1319 271.957 54.139C271.901 54.1338 271.849 54.1287 271.793 54.1236C271.849 54.1236 271.911 54.1184 271.968 54.1133Z" fill="white"></path> <path d="M271.107 46.9086C271.107 46.9086 262.241 52.7821 266.273 54.7638C267.836 55.5324 269.056 52.629 269.249 51.6617C269.475 50.4464 269.868 49.2681 270.416 48.1599C270.611 47.7787 270.839 47.361 271.107 46.9086ZM307.751 42.9229C307.751 42.9229 315.755 46.8767 312.607 48.953C311.386 49.7582 310.063 47.4695 309.801 46.6844C309.484 45.6964 309.032 44.7567 308.458 43.8918C308.256 43.5949 308.022 43.2712 307.751 42.9229ZM304.588 198.869C304.788 198.862 304.977 198.778 305.116 198.634C305.255 198.49 305.332 198.298 305.332 198.099C305.332 197.899 305.255 197.707 305.116 197.563C304.977 197.419 304.788 197.335 304.588 197.328C304.389 197.335 304.199 197.419 304.06 197.563C303.922 197.707 303.844 197.899 303.844 198.099C303.844 198.298 303.922 198.49 304.06 198.634C304.199 198.778 304.389 198.862 304.588 198.869ZM308.101 199.239C308.301 199.232 308.49 199.148 308.629 199.004C308.767 198.86 308.845 198.668 308.845 198.468C308.845 198.268 308.767 198.076 308.629 197.933C308.49 197.789 308.301 197.705 308.101 197.698C307.901 197.705 307.712 197.789 307.573 197.933C307.434 198.076 307.357 198.268 307.357 198.468C307.357 198.668 307.434 198.86 307.573 199.004C307.712 199.148 307.901 199.232 308.101 199.239ZM311.983 198.499C312.183 198.492 312.372 198.408 312.511 198.264C312.65 198.121 312.727 197.929 312.727 197.729C312.727 197.529 312.65 197.337 312.511 197.193C312.372 197.05 312.183 196.965 311.983 196.958C311.784 196.965 311.594 197.05 311.456 197.193C311.317 197.337 311.239 197.529 311.239 197.729C311.239 197.929 311.317 198.121 311.456 198.264C311.594 198.408 311.784 198.492 311.983 198.499ZM315.681 195.726C315.881 195.719 316.07 195.635 316.209 195.491C316.347 195.347 316.425 195.155 316.425 194.956C316.425 194.756 316.347 194.564 316.209 194.42C316.07 194.276 315.881 194.192 315.681 194.185C315.481 194.192 315.292 194.276 315.153 194.42C315.014 194.564 314.937 194.756 314.937 194.956C314.937 195.155 315.014 195.347 315.153 195.491C315.292 195.635 315.481 195.719 315.681 195.726ZM319.378 193.877C319.578 193.87 319.767 193.786 319.906 193.642C320.045 193.499 320.123 193.307 320.123 193.107C320.123 192.907 320.045 192.715 319.906 192.571C319.767 192.428 319.578 192.343 319.378 192.336C319.179 192.343 318.99 192.428 318.851 192.571C318.712 192.715 318.634 192.907 318.634 193.107C318.634 193.307 318.712 193.499 318.851 193.642C318.99 193.786 319.179 193.87 319.378 193.877ZM323.446 193.138C323.645 193.131 323.835 193.047 323.973 192.903C324.112 192.759 324.19 192.567 324.19 192.367C324.19 192.167 324.112 191.976 323.973 191.832C323.835 191.688 323.645 191.604 323.446 191.597C323.246 191.604 323.057 191.688 322.918 191.832C322.779 191.976 322.702 192.167 322.702 192.367C322.702 192.567 322.779 192.759 322.918 192.903C323.057 193.047 323.246 193.131 323.446 193.138ZM302.65 193.107C304.516 192.946 306.349 192.525 308.097 191.856C308.531 191.698 308.943 191.493 309.364 191.311C309.766 191.093 310.185 190.905 310.564 190.649C311.345 190.183 312.078 189.64 312.75 189.027C314.208 187.721 315.918 186.727 317.776 186.107C319.594 185.47 321.522 185.202 323.446 185.319C321.594 185.602 319.785 186.119 318.062 186.856C317.635 187.032 317.228 187.249 316.812 187.444C316.414 187.673 315.999 187.874 315.624 188.137C314.848 188.618 314.118 189.17 313.443 189.784C311.98 191.095 310.241 192.061 308.355 192.611C306.51 193.178 304.565 193.347 302.65 193.107ZM296.254 103.979H296.228C295.079 103.817 293.942 103.572 292.829 103.245C292.829 103.245 280.986 111.194 281.017 99.8859C281.017 99.8859 271.753 102.752 265.621 104.421C265.621 104.421 265.622 104.421 265.623 104.421C265.623 104.421 265.624 104.422 265.624 104.422C265.625 104.423 265.625 104.423 265.626 104.424C265.626 104.424 265.626 104.425 265.626 104.426C265.883 105.502 266.078 106.593 266.211 107.692C266.34 108.791 266.427 109.895 266.473 111.004C266.561 112.112 266.55 113.226 266.442 114.332C266.309 115.433 266.039 116.513 265.636 117.547C266.401 117.28 267.295 116.936 268.343 116.499L267.947 121.66C267.947 121.66 291.612 104.703 296.254 103.979ZM265.421 115.898C265.395 115.344 265.421 114.805 265.415 114.255C265.431 113.171 265.595 112.093 265.652 110.999C265.708 109.91 265.724 108.82 265.698 107.728C265.693 106.634 265.635 105.542 265.523 104.451C263.674 104.95 262.124 105.345 261.209 105.509C259.983 109.558 259.974 113.878 261.184 117.932C261.157 118.008 261.158 118.091 261.187 118.166C261.31 118.466 262.027 118.815 265.534 117.588C265.534 117.588 265.528 117.588 265.534 117.583C265.523 117.578 265.523 117.573 265.523 117.562C265.459 117.01 265.425 116.454 265.421 115.898ZM263.361 106.552C263.561 106.559 263.75 106.643 263.888 106.787C264.027 106.931 264.105 107.122 264.105 107.322C264.105 107.522 264.027 107.714 263.888 107.857C263.75 108.001 263.561 108.085 263.361 108.092C263.162 108.085 262.973 108.001 262.834 107.857C262.695 107.714 262.618 107.522 262.618 107.322C262.618 107.122 262.695 106.931 262.834 106.787C262.973 106.643 263.162 106.559 263.361 106.552ZM263.454 116.874C263.254 116.867 263.065 116.783 262.926 116.639C262.788 116.495 262.71 116.303 262.71 116.104C262.71 115.904 262.788 115.712 262.926 115.569C263.065 115.425 263.254 115.341 263.454 115.333C263.653 115.341 263.842 115.425 263.981 115.569C264.12 115.712 264.197 115.904 264.197 116.104C264.197 116.303 264.12 116.495 263.981 116.639C263.842 116.783 263.653 116.867 263.454 116.874ZM263.454 114.101C263.254 114.094 263.065 114.01 262.926 113.866C262.788 113.722 262.71 113.53 262.71 113.331C262.71 113.131 262.788 112.939 262.926 112.795C263.065 112.652 263.254 112.567 263.454 112.56C263.653 112.567 263.842 112.652 263.981 112.795C264.12 112.939 264.197 113.131 264.197 113.331C264.197 113.53 264.12 113.722 263.981 113.866C263.842 114.01 263.653 114.094 263.454 114.101ZM263.454 111.05C263.254 111.043 263.065 110.959 262.926 110.815C262.788 110.672 262.71 110.48 262.71 110.28C262.71 110.08 262.788 109.889 262.926 109.745C263.065 109.601 263.254 109.517 263.454 109.51C263.653 109.517 263.842 109.601 263.981 109.745C264.12 109.889 264.197 110.08 264.197 110.28C264.197 110.48 264.12 110.672 263.981 110.815C263.842 110.959 263.653 111.043 263.454 111.05ZM303.433 118.286C300.83 125.692 303.798 136.579 303.798 136.579C303.337 136.827 302.85 137.022 302.345 137.159C301.751 137.329 301.147 137.463 300.537 137.56C298.932 137.809 297.313 137.96 295.689 138.012C295.689 138.012 306.371 108.781 306.494 104.908L306.325 104.77C309.709 104.883 312.898 104.883 315.019 104.862C314.802 105.052 314.595 105.252 314.398 105.463C314.177 105.73 313.941 105.992 313.735 106.269C313.525 106.547 313.335 106.834 313.134 107.117L312.59 108C311.927 109.203 311.349 110.45 310.859 111.733C310.33 112.997 309.82 114.265 309.329 115.539C308.857 116.818 308.379 118.096 307.953 119.396L307.999 119.416C306.44 119.209 304.909 118.83 303.433 118.286Z" fill="white"></path> <path d="M317.628 104.816C317.628 104.816 316.714 104.842 315.215 104.863C314.609 106.075 314.059 107.271 313.494 108.478C312.935 109.711 312.221 110.866 311.605 112.078C310.988 113.29 310.387 114.512 309.802 115.74C309.206 116.957 308.636 118.194 308.051 119.422C308.446 119.468 308.852 119.499 309.252 119.509C311.44 119.566 313.571 118.99 314.301 116.803C315.985 111.739 320.525 108.19 317.628 104.816ZM310.968 117.614C310.768 117.607 310.579 117.523 310.441 117.379C310.302 117.235 310.224 117.043 310.224 116.844C310.224 116.644 310.302 116.452 310.441 116.309C310.579 116.165 310.768 116.081 310.968 116.073C311.167 116.081 311.356 116.165 311.495 116.309C311.634 116.452 311.711 116.644 311.711 116.844C311.711 117.043 311.634 117.235 311.495 117.379C311.356 117.523 311.167 117.607 310.968 117.614ZM313.001 114.471C312.802 114.464 312.613 114.38 312.474 114.236C312.335 114.092 312.258 113.901 312.258 113.701C312.258 113.501 312.335 113.309 312.474 113.166C312.613 113.022 312.802 112.938 313.001 112.931C313.201 112.938 313.39 113.022 313.529 113.166C313.667 113.309 313.745 113.501 313.745 113.701C313.745 113.901 313.667 114.092 313.529 114.236C313.39 114.38 313.201 114.464 313.001 114.471ZM314.943 111.051C314.743 111.044 314.554 110.959 314.415 110.816C314.277 110.672 314.199 110.48 314.199 110.281C314.199 110.081 314.277 109.889 314.415 109.745C314.554 109.602 314.743 109.517 314.943 109.51C315.142 109.517 315.331 109.602 315.47 109.745C315.608 109.889 315.686 110.081 315.686 110.281C315.686 110.48 315.608 110.672 315.47 110.816C315.331 110.959 315.142 111.044 314.943 111.051ZM316.422 107.538C316.222 107.531 316.033 107.447 315.894 107.303C315.756 107.159 315.678 106.968 315.678 106.768C315.678 106.568 315.756 106.376 315.894 106.233C316.033 106.089 316.222 106.005 316.422 105.998C316.621 106.005 316.81 106.089 316.949 106.233C317.087 106.376 317.165 106.568 317.165 106.768C317.165 106.968 317.088 107.159 316.949 107.303C316.81 107.447 316.621 107.531 316.422 107.538Z" fill="white"></path> <path d="M265.619 104.42C265.588 104.431 265.555 104.44 265.522 104.446C265.52 104.433 265.524 104.42 265.531 104.41C265.539 104.399 265.55 104.392 265.563 104.389C265.575 104.387 265.586 104.389 265.597 104.395C265.607 104.401 265.615 104.409 265.619 104.42ZM265.635 117.547C265.634 117.557 265.63 117.568 265.625 117.577C265.619 117.591 265.608 117.601 265.595 117.607C265.581 117.613 265.566 117.613 265.553 117.608C265.544 117.604 265.536 117.597 265.532 117.588C265.532 117.588 265.527 117.588 265.532 117.583C265.563 117.572 265.599 117.562 265.635 117.547ZM307.998 119.416C308.015 119.415 308.032 119.417 308.049 119.421C308.049 119.426 308.044 119.426 308.044 119.431L307.998 119.416ZM315.239 104.805C315.228 104.823 315.219 104.842 315.213 104.862H315.018L315.156 104.739L315.239 104.805Z" fill="white"></path> <path d="M269.186 240.786C264.614 241.069 260.039 241.294 255.464 241.52L241.734 242.081C237.156 242.24 232.575 242.349 227.991 242.41C226.846 242.428 225.699 242.436 224.552 242.432C223.405 242.442 222.256 242.422 221.106 242.398C220.532 242.396 219.952 242.36 219.373 242.329L218.505 242.281C218.248 242.258 217.99 242.258 217.733 242.28C217.236 242.306 216.757 242.467 216.345 242.745C215.934 243.024 215.606 243.409 215.398 243.861C215.002 244.838 214.943 245.92 215.232 246.935C215.509 247.997 215.964 249.005 216.577 249.915C217.843 251.772 219.448 253.373 221.308 254.634C225.021 257.225 229.358 258.873 233.778 259.957C238.231 260.997 242.776 261.591 247.346 261.731C249.632 261.812 251.922 261.87 254.21 261.922C256.498 261.956 258.787 261.978 261.076 261.985C265.653 261.999 270.23 261.925 274.802 261.789C279.374 261.661 283.94 261.422 288.498 261.073C293.053 260.722 297.596 260.219 302.093 259.471C306.589 258.786 311.014 257.695 315.315 256.214C317.44 255.462 319.48 254.489 321.401 253.309C322.348 252.715 323.246 252.046 324.087 251.309C324.929 250.595 325.678 249.778 326.316 248.876C326.945 248.015 327.327 246.999 327.421 245.937C327.459 244.88 327.144 243.841 326.526 242.983C325.909 242.088 325.104 241.34 324.167 240.789C323.22 240.241 322.171 239.893 321.084 239.766C320.54 239.695 319.99 239.682 319.443 239.726C319.168 239.738 318.9 239.785 318.624 239.822L317.772 239.961C316.638 240.141 315.502 240.302 314.365 240.454C312.092 240.758 309.814 241.024 307.533 241.252C305.251 241.478 302.964 241.655 300.673 241.757C299.527 241.805 298.379 241.838 297.231 241.814C296.657 241.802 296.083 241.776 295.51 241.723C294.931 241.684 294.361 241.564 293.816 241.367C293.804 241.362 293.794 241.352 293.788 241.34C293.783 241.328 293.783 241.314 293.787 241.302C293.792 241.289 293.801 241.279 293.813 241.273C293.825 241.268 293.839 241.267 293.852 241.271L293.857 241.273C294.958 241.562 296.096 241.677 297.232 241.613C298.374 241.605 299.516 241.54 300.655 241.459C302.936 241.296 305.21 241.042 307.48 240.77C309.751 240.498 312.016 240.188 314.277 239.84C315.407 239.666 316.535 239.483 317.658 239.283L318.499 239.129C318.789 239.083 319.085 239.024 319.381 239.004C319.976 238.942 320.575 238.943 321.169 239.005C322.366 239.126 323.525 239.492 324.575 240.081C325.628 240.68 326.538 241.502 327.239 242.491C327.981 243.5 328.367 244.727 328.336 245.979C328.251 247.214 327.83 248.401 327.118 249.413C326.448 250.395 325.656 251.287 324.761 252.069C323.888 252.852 322.95 253.559 321.956 254.183C319.976 255.409 317.872 256.422 315.679 257.206C313.507 257.993 311.29 258.654 309.041 259.186C306.799 259.725 304.539 260.179 302.265 260.527C297.721 261.245 293.147 261.714 288.569 262.03C279.409 262.673 270.23 262.695 261.07 262.5C258.779 262.45 256.489 262.386 254.2 262.308C251.91 262.238 249.622 262.166 247.332 262.068C242.742 261.899 238.175 261.321 233.688 260.341C229.223 259.304 224.791 257.786 220.918 255.2C218.948 253.926 217.237 252.291 215.875 250.38C215.198 249.393 214.695 248.297 214.388 247.14C214.042 245.934 214.113 244.646 214.588 243.484C214.856 242.884 215.286 242.37 215.829 241.999C216.371 241.638 216.996 241.42 217.646 241.366C217.959 241.337 218.274 241.335 218.588 241.361L219.434 241.412C219.998 241.446 220.56 241.486 221.133 241.492C222.272 241.524 223.411 241.551 224.555 241.55C225.697 241.562 226.84 241.563 227.984 241.553C232.559 241.53 237.136 241.435 241.713 241.337L255.446 241.018L269.181 240.684C269.195 240.683 269.208 240.688 269.218 240.698C269.227 240.707 269.233 240.719 269.234 240.733C269.234 240.746 269.23 240.759 269.221 240.769C269.212 240.779 269.199 240.786 269.186 240.786Z" fill="white"></path> <path d="M233.513 259.163C232.628 258.947 231.699 258.997 230.844 259.309C229.988 259.621 229.244 260.179 228.705 260.914C228.167 261.648 227.858 262.526 227.819 263.436C227.779 264.346 228.01 265.247 228.483 266.025C228.955 266.804 229.648 267.425 230.474 267.81C231.299 268.194 232.22 268.326 233.12 268.187C234.021 268.048 234.859 267.646 235.531 267.03C236.202 266.415 236.676 265.614 236.892 264.73C237.181 263.543 236.988 262.291 236.354 261.247C235.721 260.204 234.699 259.454 233.513 259.163ZM233.025 266.27C232.758 266.292 232.49 266.285 232.224 266.25C231.673 266.183 231.151 265.962 230.719 265.613C230.289 265.262 229.959 264.803 229.764 264.283C229.569 263.784 229.495 263.245 229.549 262.712C229.781 263.678 230.302 264.55 231.043 265.212C231.128 265.294 231.223 265.365 231.325 265.423C231.423 265.489 231.526 265.548 231.634 265.598L231.957 265.752C232.075 265.783 232.188 265.818 232.306 265.86C232.423 265.899 232.544 265.929 232.666 265.947L233.035 266.019C233.282 266.06 233.539 266.07 233.801 266.116C233.546 266.186 233.287 266.238 233.025 266.27ZM218.697 253.005C218.677 253.067 218.656 253.129 218.641 253.195C218.406 254.153 218.485 255.16 218.866 256.069C219.247 256.979 219.91 257.741 220.757 258.246C221.604 258.75 222.59 258.969 223.571 258.871C224.552 258.772 225.475 258.362 226.205 257.699C223.46 256.562 220.922 254.975 218.697 253.005ZM223.093 257.792C222.826 257.811 222.557 257.803 222.292 257.766C221.739 257.698 221.216 257.478 220.782 257.129C220.355 256.777 220.027 256.318 219.832 255.799C219.636 255.3 219.562 254.761 219.616 254.228C219.849 255.193 220.368 256.064 221.106 256.729C221.194 256.809 221.29 256.88 221.393 256.939C221.491 257.005 221.594 257.064 221.701 257.114L222.025 257.268C222.143 257.299 222.256 257.335 222.374 257.376C222.49 257.42 222.611 257.45 222.734 257.463L223.098 257.535C223.35 257.576 223.607 257.586 223.869 257.632C223.614 257.701 223.355 257.754 223.093 257.792ZM321.068 254.977C320.183 254.761 319.254 254.812 318.399 255.124C317.543 255.435 316.799 255.994 316.26 256.728C315.722 257.463 315.413 258.34 315.374 259.25C315.334 260.16 315.565 261.061 316.038 261.84C316.51 262.618 317.203 263.239 318.029 263.624C318.854 264.009 319.775 264.14 320.675 264.002C321.575 263.863 322.414 263.46 323.086 262.845C323.757 262.23 324.231 261.429 324.447 260.544C324.591 259.957 324.618 259.347 324.526 258.749C324.434 258.151 324.225 257.577 323.911 257.06C323.598 256.543 323.185 256.093 322.697 255.736C322.209 255.379 321.656 255.121 321.068 254.977ZM320.539 262.809C320.272 262.83 320.004 262.824 319.738 262.789C319.186 262.72 318.665 262.497 318.233 262.147C317.803 261.796 317.473 261.337 317.278 260.816C317.082 260.319 317.008 259.782 317.062 259.25C317.296 260.216 317.817 261.088 318.557 261.751C318.642 261.831 318.737 261.9 318.839 261.957C318.936 262.025 319.039 262.083 319.147 262.131L319.476 262.285C319.589 262.321 319.707 262.357 319.82 262.393C319.936 262.436 320.057 262.467 320.18 262.486L320.549 262.557C320.801 262.593 321.053 262.604 321.315 262.655C321.06 262.723 320.801 262.774 320.539 262.809ZM185 249.717C190.142 249.288 195.286 249.17 200.43 249.129C203.003 249.126 205.575 249.135 208.147 249.204C210.72 249.259 213.293 249.38 215.866 249.568C213.295 249.78 210.723 249.926 208.151 250.006C205.58 250.1 203.007 250.134 200.435 250.155C195.291 250.164 190.146 250.096 185 249.717ZM358.393 149.366C363.535 148.937 368.679 148.819 373.823 148.778C376.395 148.774 378.968 148.784 381.54 148.853C384.113 148.908 386.685 149.029 389.258 149.217C386.687 149.429 384.116 149.575 381.544 149.655C378.972 149.749 376.4 149.783 373.828 149.804C368.684 149.813 363.539 149.745 358.393 149.366Z" fill="white"></path> <path d="M276.513 171.346C276.159 171.639 275.81 171.906 275.471 172.153C275.537 171.952 275.614 171.747 275.686 171.547C275.709 171.483 275.745 171.425 275.79 171.376C275.836 171.326 275.891 171.286 275.952 171.258C276.013 171.23 276.079 171.214 276.146 171.212C276.214 171.209 276.281 171.22 276.344 171.244C276.406 171.267 276.463 171.302 276.513 171.346ZM282.393 164.809C282.054 165.281 281.715 165.733 281.387 166.165C281.438 165.816 281.5 165.466 281.556 165.117C281.578 164.982 281.653 164.862 281.763 164.782C281.874 164.702 282.012 164.669 282.147 164.691C282.239 164.706 282.324 164.747 282.393 164.809ZM286.913 157.532C286.671 157.979 286.425 158.41 286.183 158.836C286.153 158.564 286.122 158.287 286.086 158.015V157.999C286.072 157.898 286.089 157.795 286.135 157.704C286.18 157.612 286.252 157.536 286.341 157.486C286.43 157.436 286.532 157.413 286.634 157.422C286.736 157.43 286.833 157.468 286.913 157.532Z" fill="white"></path> <path d="M267.9 121.633C270.146 119.902 272.384 118.279 274.648 116.626C276.913 114.989 279.204 113.389 281.509 111.805C283.812 110.22 286.143 108.674 288.532 107.209C289.726 106.476 290.931 105.758 292.171 105.087C292.791 104.752 293.421 104.43 294.075 104.138C294.406 103.988 294.745 103.855 295.09 103.739C295.477 103.592 295.889 103.523 296.303 103.536L296.057 103.577C296.92 103.191 297.822 102.901 298.748 102.713C299.674 102.522 300.619 102.448 301.563 102.491C302.52 102.53 303.463 102.728 304.354 103.075C305.249 103.428 306.072 103.942 306.782 104.59L306.785 104.592C306.843 104.644 306.886 104.711 306.908 104.786C306.93 104.861 306.93 104.941 306.909 105.016C304.984 111.965 302.724 118.797 300.388 125.604C299.217 129.007 297.985 132.387 296.738 135.762C295.472 139.13 294.148 142.477 292.765 145.801C289.96 152.426 286.884 158.987 282.79 164.98C281.76 166.479 280.64 167.913 279.434 169.274C278.223 170.657 276.857 171.897 275.363 172.968C273.837 174.09 272.058 174.816 270.183 175.083C269.226 175.195 268.257 175.137 267.32 174.913C266.394 174.68 265.507 174.312 264.689 173.821C264.609 173.775 264.543 173.708 264.497 173.628C264.45 173.549 264.425 173.458 264.424 173.366C264.382 169.031 264.454 164.713 264.579 160.389C264.704 156.068 264.941 151.75 265.222 147.437C265.495 143.123 265.857 138.816 266.309 134.517L266.646 131.294L267.037 128.076C267.289 125.934 267.618 123.756 267.9 121.633ZM267.989 121.685C267.787 123.853 267.561 125.958 267.387 128.113C267.209 130.265 267.022 132.414 266.867 134.566C266.537 138.869 266.294 143.178 266.073 147.486C265.85 151.794 265.726 156.107 265.614 160.418C265.504 164.727 265.448 169.046 265.504 173.347L265.24 172.892C266.684 173.782 268.378 174.178 270.067 174.019C271.771 173.786 273.391 173.136 274.784 172.127C277.662 170.133 279.969 167.339 282.035 164.451C284.083 161.517 285.944 158.455 287.604 155.285C289.297 152.125 290.855 148.888 292.315 145.607C293.785 142.329 295.141 139 296.42 135.642C297.717 132.29 298.896 128.893 300.03 125.483C302.288 118.66 304.264 111.739 306.08 104.799L306.207 105.225C305.569 104.654 304.833 104.203 304.035 103.896C303.231 103.59 302.382 103.421 301.522 103.393C300.652 103.363 299.782 103.438 298.93 103.617C298.076 103.781 297.243 104.038 296.444 104.382C296.367 104.416 296.282 104.43 296.198 104.423C295.912 104.428 295.63 104.48 295.362 104.579C295.044 104.683 294.731 104.803 294.425 104.938C293.801 105.208 293.183 105.517 292.572 105.839C291.348 106.485 290.146 107.185 288.953 107.901C286.572 109.343 284.223 110.847 281.88 112.361C279.539 113.88 277.223 115.438 274.906 116.996L267.989 121.685ZM292.13 90.9846C292.279 90.9794 292.421 90.9163 292.525 90.8085C292.63 90.7007 292.688 90.5567 292.688 90.4068C292.688 90.257 292.63 90.113 292.525 90.0052C292.421 89.8974 292.279 89.8343 292.13 89.8291C291.98 89.8343 291.838 89.8974 291.734 90.0052C291.63 90.113 291.572 90.257 291.572 90.4068C291.572 90.5567 291.63 90.7007 291.734 90.8085C291.838 90.9163 291.98 90.9794 292.13 90.9846Z" fill="white"></path> </svg> 