<?xml version="1.0" encoding="UTF-8"?> <svg xmlns="http://www.w3.org/2000/svg" width="600" height="400" viewBox="0 0 600 400" fill="none"> <rect width="600" height="400" rx="20" fill="#5199FF"></rect> <path d="M127.483 322V315.51L122.093 306.16H125.184L128.825 312.474L132.455 306.16H135.546L130.167 315.51V322H127.483ZM142.9 322.33C141.316 322.33 139.959 321.985 138.83 321.296C137.701 320.599 136.832 319.631 136.223 318.392C135.622 317.153 135.321 315.715 135.321 314.08C135.321 312.445 135.622 311.007 136.223 309.768C136.832 308.529 137.701 307.564 138.83 306.875C139.959 306.178 141.316 305.83 142.9 305.83C144.484 305.83 145.841 306.178 146.97 306.875C148.107 307.564 148.976 308.529 149.577 309.768C150.186 311.007 150.49 312.445 150.49 314.08C150.49 315.715 150.186 317.153 149.577 318.392C148.976 319.631 148.107 320.599 146.97 321.296C145.841 321.985 144.484 322.33 142.9 322.33ZM142.9 319.833C143.963 319.84 144.847 319.606 145.551 319.129C146.262 318.652 146.794 317.981 147.146 317.116C147.505 316.251 147.685 315.239 147.685 314.08C147.685 312.921 147.505 311.917 147.146 311.066C146.794 310.208 146.262 309.541 145.551 309.064C144.847 308.587 143.963 308.342 142.9 308.327C141.837 308.32 140.953 308.554 140.249 309.031C139.545 309.508 139.013 310.179 138.654 311.044C138.302 311.909 138.126 312.921 138.126 314.08C138.126 315.239 138.302 316.247 138.654 317.105C139.006 317.956 139.534 318.619 140.238 319.096C140.949 319.573 141.837 319.818 142.9 319.833ZM159.06 322.33C157.798 322.33 156.687 322.073 155.727 321.56C154.773 321.047 154.025 320.324 153.483 319.393C152.947 318.462 152.68 317.369 152.68 316.115V306.182L155.364 306.16V316.049C155.364 316.643 155.463 317.175 155.661 317.644C155.866 318.113 156.141 318.513 156.486 318.843C156.83 319.166 157.226 319.411 157.674 319.58C158.121 319.749 158.583 319.833 159.06 319.833C159.551 319.833 160.017 319.749 160.457 319.58C160.904 319.404 161.3 319.155 161.645 318.832C161.989 318.502 162.261 318.102 162.459 317.633C162.657 317.164 162.756 316.636 162.756 316.049V306.16H165.44V316.115C165.44 317.369 165.168 318.462 164.626 319.393C164.09 320.324 163.342 321.047 162.382 321.56C161.428 322.073 160.321 322.33 159.06 322.33ZM171.818 322L176.812 306.16H180.695L185.689 322H182.961L178.429 307.788H179.023L174.546 322H171.818ZM174.601 318.568V316.093H182.917V318.568H174.601ZM187.898 322V306.16H190.549V319.514H197.545V322H187.898ZM200.99 322L196.359 306.16H199.142L202.299 317.6L205.445 306.182L208.228 306.16L211.385 317.6L214.531 306.16H217.314L212.694 322H210.076L206.831 310.736L203.608 322H200.99ZM216.462 322L221.456 306.16H225.339L230.333 322H227.605L223.073 307.788H223.667L219.19 322H216.462ZM219.245 318.568V316.093H227.561V318.568H219.245ZM234.862 322V315.51L229.472 306.16H232.563L236.204 312.474L239.834 306.16H242.925L237.546 315.51V322H234.862ZM249.658 322.33C248.499 322.33 247.454 322.128 246.523 321.725C245.599 321.322 244.836 320.746 244.235 319.998C243.641 319.243 243.263 318.348 243.102 317.314L245.852 316.896C246.087 317.835 246.567 318.561 247.293 319.074C248.026 319.587 248.87 319.844 249.823 319.844C250.388 319.844 250.919 319.756 251.418 319.58C251.917 319.404 252.32 319.147 252.628 318.81C252.943 318.473 253.101 318.058 253.101 317.567C253.101 317.347 253.064 317.145 252.991 316.962C252.918 316.771 252.808 316.603 252.661 316.456C252.522 316.309 252.338 316.177 252.111 316.06C251.891 315.935 251.634 315.829 251.341 315.741L247.249 314.531C246.897 314.428 246.516 314.293 246.105 314.124C245.702 313.948 245.317 313.71 244.95 313.409C244.591 313.101 244.294 312.712 244.059 312.243C243.832 311.766 243.718 311.18 243.718 310.483C243.718 309.464 243.975 308.609 244.488 307.92C245.009 307.223 245.705 306.703 246.578 306.358C247.458 306.013 248.433 305.845 249.504 305.852C250.589 305.859 251.557 306.046 252.408 306.413C253.259 306.772 253.97 307.297 254.542 307.986C255.114 308.675 255.517 309.508 255.752 310.483L252.903 310.978C252.786 310.421 252.558 309.948 252.221 309.559C251.891 309.163 251.484 308.862 251 308.657C250.523 308.452 250.014 308.342 249.471 308.327C248.943 308.32 248.452 308.4 247.997 308.569C247.55 308.73 247.187 308.965 246.908 309.273C246.637 309.581 246.501 309.94 246.501 310.351C246.501 310.74 246.618 311.059 246.853 311.308C247.088 311.55 247.377 311.744 247.722 311.891C248.074 312.03 248.43 312.148 248.789 312.243L251.627 313.035C252.016 313.138 252.452 313.277 252.936 313.453C253.42 313.629 253.886 313.875 254.333 314.19C254.78 314.505 255.147 314.92 255.433 315.433C255.726 315.946 255.873 316.599 255.873 317.391C255.873 318.212 255.701 318.935 255.356 319.558C255.019 320.174 254.56 320.687 253.981 321.098C253.402 321.509 252.738 321.817 251.99 322.022C251.249 322.227 250.472 322.33 249.658 322.33ZM268.521 322.33C267.362 322.33 266.317 322.128 265.386 321.725C264.462 321.322 263.699 320.746 263.098 319.998C262.504 319.243 262.126 318.348 261.965 317.314L264.715 316.896C264.95 317.835 265.43 318.561 266.156 319.074C266.889 319.587 267.733 319.844 268.686 319.844C269.251 319.844 269.782 319.756 270.281 319.58C270.78 319.404 271.183 319.147 271.491 318.81C271.806 318.473 271.964 318.058 271.964 317.567C271.964 317.347 271.927 317.145 271.854 316.962C271.781 316.771 271.671 316.603 271.524 316.456C271.385 316.309 271.201 316.177 270.974 316.06C270.754 315.935 270.497 315.829 270.204 315.741L266.112 314.531C265.76 314.428 265.379 314.293 264.968 314.124C264.565 313.948 264.18 313.71 263.813 313.409C263.454 313.101 263.157 312.712 262.922 312.243C262.695 311.766 262.581 311.18 262.581 310.483C262.581 309.464 262.838 308.609 263.351 307.92C263.872 307.223 264.568 306.703 265.441 306.358C266.321 306.013 267.296 305.845 268.367 305.852C269.452 305.859 270.42 306.046 271.271 306.413C272.122 306.772 272.833 307.297 273.405 307.986C273.977 308.675 274.38 309.508 274.615 310.483L271.766 310.978C271.649 310.421 271.421 309.948 271.084 309.559C270.754 309.163 270.347 308.862 269.863 308.657C269.386 308.452 268.877 308.342 268.334 308.327C267.806 308.32 267.315 308.4 266.86 308.569C266.413 308.73 266.05 308.965 265.771 309.273C265.5 309.581 265.364 309.94 265.364 310.351C265.364 310.74 265.481 311.059 265.716 311.308C265.951 311.55 266.24 311.744 266.585 311.891C266.937 312.03 267.293 312.148 267.652 312.243L270.49 313.035C270.879 313.138 271.315 313.277 271.799 313.453C272.283 313.629 272.749 313.875 273.196 314.19C273.643 314.505 274.01 314.92 274.296 315.433C274.589 315.946 274.736 316.599 274.736 317.391C274.736 318.212 274.564 318.935 274.219 319.558C273.882 320.174 273.423 320.687 272.844 321.098C272.265 321.509 271.601 321.817 270.853 322.022C270.112 322.227 269.335 322.33 268.521 322.33ZM277.117 322V306.16H279.768V312.826H287.27V306.16H289.91V322H287.27V315.312H279.768V322H277.117ZM299.693 322.33C298.109 322.33 296.752 321.985 295.623 321.296C294.494 320.599 293.625 319.631 293.016 318.392C292.415 317.153 292.114 315.715 292.114 314.08C292.114 312.445 292.415 311.007 293.016 309.768C293.625 308.529 294.494 307.564 295.623 306.875C296.752 306.178 298.109 305.83 299.693 305.83C301.277 305.83 302.634 306.178 303.763 306.875C304.9 307.564 305.769 308.529 306.37 309.768C306.979 311.007 307.283 312.445 307.283 314.08C307.283 315.715 306.979 317.153 306.37 318.392C305.769 319.631 304.9 320.599 303.763 321.296C302.634 321.985 301.277 322.33 299.693 322.33ZM299.693 319.833C300.756 319.84 301.64 319.606 302.344 319.129C303.055 318.652 303.587 317.981 303.939 317.116C304.298 316.251 304.478 315.239 304.478 314.08C304.478 312.921 304.298 311.917 303.939 311.066C303.587 310.208 303.055 309.541 302.344 309.064C301.64 308.587 300.756 308.342 299.693 308.327C298.63 308.32 297.746 308.554 297.042 309.031C296.338 309.508 295.806 310.179 295.447 311.044C295.095 311.909 294.919 312.921 294.919 314.08C294.919 315.239 295.095 316.247 295.447 317.105C295.799 317.956 296.327 318.619 297.031 319.096C297.742 319.573 298.63 319.818 299.693 319.833ZM315.853 322.33C314.591 322.33 313.48 322.073 312.52 321.56C311.566 321.047 310.818 320.324 310.276 319.393C309.74 318.462 309.473 317.369 309.473 316.115V306.182L312.157 306.16V316.049C312.157 316.643 312.256 317.175 312.454 317.644C312.659 318.113 312.934 318.513 313.279 318.843C313.623 319.166 314.019 319.411 314.467 319.58C314.914 319.749 315.376 319.833 315.853 319.833C316.344 319.833 316.81 319.749 317.25 319.58C317.697 319.404 318.093 319.155 318.438 318.832C318.782 318.502 319.054 318.102 319.252 317.633C319.45 317.164 319.549 316.636 319.549 316.049V306.16H322.233V316.115C322.233 317.369 321.961 318.462 321.419 319.393C320.883 320.324 320.135 321.047 319.175 321.56C318.221 322.073 317.114 322.33 315.853 322.33ZM325.527 322V306.16H328.178V319.514H335.174V322H325.527ZM337.037 322V306.16H342.086C342.218 306.16 342.478 306.164 342.867 306.171C343.263 306.178 343.644 306.204 344.011 306.248C345.265 306.409 346.325 306.857 347.19 307.59C348.063 308.316 348.723 309.244 349.17 310.373C349.617 311.502 349.841 312.738 349.841 314.08C349.841 315.422 349.617 316.658 349.17 317.787C348.723 318.916 348.063 319.848 347.19 320.581C346.325 321.307 345.265 321.751 344.011 321.912C343.652 321.956 343.274 321.982 342.878 321.989C342.482 321.996 342.218 322 342.086 322H337.037ZM339.732 319.503H342.086C342.306 319.503 342.585 319.496 342.922 319.481C343.267 319.466 343.571 319.433 343.835 319.382C344.583 319.243 345.192 318.909 345.661 318.381C346.13 317.853 346.475 317.211 346.695 316.456C346.922 315.701 347.036 314.909 347.036 314.08C347.036 313.222 346.922 312.415 346.695 311.66C346.468 310.905 346.116 310.27 345.639 309.757C345.17 309.244 344.568 308.917 343.835 308.778C343.571 308.719 343.267 308.686 342.922 308.679C342.585 308.664 342.306 308.657 342.086 308.657H339.732V319.503ZM357.066 322V306.16H359.717V319.514H366.713V322H357.066ZM368.576 322V306.16H378.806V308.646H371.227V312.551H377.486V315.037H371.227V319.514H378.806V322H368.576ZM380.345 322L385.339 306.16H389.222L394.216 322H391.488L386.956 307.788H387.55L383.073 322H380.345ZM383.128 318.568V316.093H391.444V318.568H383.128ZM398.222 322L393.228 306.16H395.956L400.136 319.426L404.371 306.16H407.099L402.105 322H398.222ZM408.752 322V306.16H418.982V308.646H411.403V312.551H417.662V315.037H411.403V319.514H418.982V322H408.752ZM429.831 322V308.646H424.705V306.16H437.608V308.646H432.482V322H429.831ZM439.587 322V306.16H442.238V322H439.587ZM445.533 322V306.16H452.078C452.232 306.16 452.43 306.167 452.672 306.182C452.914 306.189 453.138 306.211 453.343 306.248C454.26 306.387 455.015 306.692 455.609 307.161C456.21 307.63 456.654 308.224 456.94 308.943C457.233 309.654 457.38 310.446 457.38 311.319C457.38 312.184 457.233 312.976 456.94 313.695C456.647 314.406 456.199 314.997 455.598 315.466C455.004 315.935 454.252 316.24 453.343 316.379C453.138 316.408 452.91 316.43 452.661 316.445C452.419 316.46 452.225 316.467 452.078 316.467H448.184V322H445.533ZM448.184 313.992H451.968C452.115 313.992 452.28 313.985 452.463 313.97C452.646 313.955 452.815 313.926 452.969 313.882C453.409 313.772 453.754 313.578 454.003 313.299C454.26 313.02 454.439 312.705 454.542 312.353C454.652 312.001 454.707 311.656 454.707 311.319C454.707 310.982 454.652 310.637 454.542 310.285C454.439 309.926 454.26 309.607 454.003 309.328C453.754 309.049 453.409 308.855 452.969 308.745C452.815 308.701 452.646 308.675 452.463 308.668C452.28 308.653 452.115 308.646 451.968 308.646H448.184V313.992ZM465.447 322.33C464.288 322.33 463.243 322.128 462.312 321.725C461.388 321.322 460.625 320.746 460.024 319.998C459.43 319.243 459.052 318.348 458.891 317.314L461.641 316.896C461.876 317.835 462.356 318.561 463.082 319.074C463.815 319.587 464.659 319.844 465.612 319.844C466.177 319.844 466.708 319.756 467.207 319.58C467.706 319.404 468.109 319.147 468.417 318.81C468.732 318.473 468.89 318.058 468.89 317.567C468.89 317.347 468.853 317.145 468.78 316.962C468.707 316.771 468.597 316.603 468.45 316.456C468.311 316.309 468.127 316.177 467.9 316.06C467.68 315.935 467.423 315.829 467.13 315.741L463.038 314.531C462.686 314.428 462.305 314.293 461.894 314.124C461.491 313.948 461.106 313.71 460.739 313.409C460.38 313.101 460.083 312.712 459.848 312.243C459.621 311.766 459.507 311.18 459.507 310.483C459.507 309.464 459.764 308.609 460.277 307.92C460.798 307.223 461.494 306.703 462.367 306.358C463.247 306.013 464.222 305.845 465.293 305.852C466.378 305.859 467.346 306.046 468.197 306.413C469.048 306.772 469.759 307.297 470.331 307.986C470.903 308.675 471.306 309.508 471.541 310.483L468.692 310.978C468.575 310.421 468.347 309.948 468.01 309.559C467.68 309.163 467.273 308.862 466.789 308.657C466.312 308.452 465.803 308.342 465.26 308.327C464.732 308.32 464.241 308.4 463.786 308.569C463.339 308.73 462.976 308.965 462.697 309.273C462.426 309.581 462.29 309.94 462.29 310.351C462.29 310.74 462.407 311.059 462.642 311.308C462.877 311.55 463.166 311.744 463.511 311.891C463.863 312.03 464.219 312.148 464.578 312.243L467.416 313.035C467.805 313.138 468.241 313.277 468.725 313.453C469.209 313.629 469.675 313.875 470.122 314.19C470.569 314.505 470.936 314.92 471.222 315.433C471.515 315.946 471.662 316.599 471.662 317.391C471.662 318.212 471.49 318.935 471.145 319.558C470.808 320.174 470.349 320.687 469.77 321.098C469.191 321.509 468.527 321.817 467.779 322.022C467.038 322.227 466.261 322.33 465.447 322.33ZM118.767 353V337.16H128.997V339.646H121.418V343.551H127.677V346.037H121.418V350.514H128.997V353H118.767ZM135.2 353L130.206 337.16H132.934L137.114 350.426L141.349 337.16H144.077L139.083 353H135.2ZM145.729 353V337.16H155.959V339.646H148.38V343.551H154.639V346.037H148.38V350.514H155.959V353H145.729ZM158.599 353V337.16H161.283L168.631 348.325V337.16H171.315V353H168.631L161.283 341.835V353H158.599ZM179.014 353V337.16H181.665V353H179.014ZM184.96 353V337.16H194.497V339.811H187.611V343.76H193.177V346.4H187.611V353H184.96ZM204.73 353V346.51L199.34 337.16H202.431L206.072 343.474L209.702 337.16H212.793L207.414 346.51V353H204.73ZM220.147 353.33C218.563 353.33 217.207 352.985 216.077 352.296C214.948 351.599 214.079 350.631 213.47 349.392C212.869 348.153 212.568 346.715 212.568 345.08C212.568 343.445 212.869 342.007 213.47 340.768C214.079 339.529 214.948 338.564 216.077 337.875C217.207 337.178 218.563 336.83 220.147 336.83C221.731 336.83 223.088 337.178 224.217 337.875C225.354 338.564 226.223 339.529 226.824 340.768C227.433 342.007 227.737 343.445 227.737 345.08C227.737 346.715 227.433 348.153 226.824 349.392C226.223 350.631 225.354 351.599 224.217 352.296C223.088 352.985 221.731 353.33 220.147 353.33ZM220.147 350.833C221.211 350.84 222.094 350.606 222.798 350.129C223.51 349.652 224.041 348.981 224.393 348.116C224.753 347.251 224.932 346.239 224.932 345.08C224.932 343.921 224.753 342.917 224.393 342.066C224.041 341.208 223.51 340.541 222.798 340.064C222.094 339.587 221.211 339.342 220.147 339.327C219.084 339.32 218.2 339.554 217.496 340.031C216.792 340.508 216.261 341.179 215.901 342.044C215.549 342.909 215.373 343.921 215.373 345.08C215.373 346.239 215.549 347.247 215.901 348.105C216.253 348.956 216.781 349.619 217.485 350.096C218.197 350.573 219.084 350.818 220.147 350.833ZM236.307 353.33C235.045 353.33 233.934 353.073 232.974 352.56C232.02 352.047 231.272 351.324 230.73 350.393C230.194 349.462 229.927 348.369 229.927 347.115V337.182L232.611 337.16V347.049C232.611 347.643 232.71 348.175 232.908 348.644C233.113 349.113 233.388 349.513 233.733 349.843C234.077 350.166 234.473 350.411 234.921 350.58C235.368 350.749 235.83 350.833 236.307 350.833C236.798 350.833 237.264 350.749 237.704 350.58C238.151 350.404 238.547 350.155 238.892 349.832C239.236 349.502 239.508 349.102 239.706 348.633C239.904 348.164 240.003 347.636 240.003 347.049V337.16H242.687V347.115C242.687 348.369 242.415 349.462 241.873 350.393C241.337 351.324 240.589 352.047 239.629 352.56C238.675 353.073 237.568 353.33 236.307 353.33ZM250.165 353V337.16H256.71C256.864 337.16 257.062 337.167 257.304 337.182C257.546 337.189 257.77 337.211 257.975 337.248C258.892 337.387 259.647 337.692 260.241 338.161C260.842 338.63 261.286 339.224 261.572 339.943C261.865 340.654 262.012 341.446 262.012 342.319C262.012 343.61 261.686 344.721 261.033 345.652C260.38 346.576 259.379 347.148 258.03 347.368L256.897 347.467H252.816V353H250.165ZM259.262 353L256.138 346.554L258.833 345.96L262.265 353H259.262ZM252.816 344.992H256.6C256.747 344.992 256.912 344.985 257.095 344.97C257.278 344.955 257.447 344.926 257.601 344.882C258.041 344.772 258.386 344.578 258.635 344.299C258.892 344.02 259.071 343.705 259.174 343.353C259.284 343.001 259.339 342.656 259.339 342.319C259.339 341.982 259.284 341.637 259.174 341.285C259.071 340.926 258.892 340.607 258.635 340.328C258.386 340.049 258.041 339.855 257.601 339.745C257.447 339.701 257.278 339.675 257.095 339.668C256.912 339.653 256.747 339.646 256.6 339.646H252.816V344.992ZM264.688 353V337.16H274.918V339.646H267.339V343.551H273.598V346.037H267.339V350.514H274.918V353H264.688ZM283.698 353.33C282.114 353.33 280.757 352.985 279.628 352.296C278.499 351.599 277.63 350.631 277.021 349.392C276.42 348.153 276.119 346.715 276.119 345.08C276.119 343.445 276.42 342.007 277.021 340.768C277.63 339.529 278.499 338.564 279.628 337.875C280.757 337.178 282.114 336.83 283.698 336.83C285.524 336.83 287.046 337.288 288.263 338.205C289.48 339.114 290.335 340.343 290.826 341.89L288.153 342.627C287.845 341.593 287.321 340.786 286.58 340.207C285.839 339.62 284.879 339.327 283.698 339.327C282.635 339.327 281.747 339.565 281.036 340.042C280.332 340.519 279.8 341.19 279.441 342.055C279.089 342.913 278.909 343.921 278.902 345.08C278.902 346.239 279.078 347.251 279.43 348.116C279.789 348.974 280.325 349.641 281.036 350.118C281.747 350.595 282.635 350.833 283.698 350.833C284.879 350.833 285.839 350.54 286.58 349.953C287.321 349.366 287.845 348.56 288.153 347.533L290.826 348.27C290.335 349.817 289.48 351.049 288.263 351.966C287.046 352.875 285.524 353.33 283.698 353.33ZM293.241 353V337.16H303.471V339.646H295.892V343.551H302.151V346.037H295.892V350.514H303.471V353H293.241ZM306.33 353V337.16H308.981V353H306.33ZM315.84 353L310.846 337.16H313.574L317.754 350.426L321.989 337.16H324.717L319.723 353H315.84ZM326.37 353V337.16H336.6V339.646H329.021V343.551H335.28V346.037H329.021V350.514H336.6V353H326.37ZM343.644 353V337.16H349.925C350.995 337.16 351.872 337.376 352.554 337.809C353.243 338.234 353.753 338.781 354.083 339.448C354.42 340.115 354.589 340.805 354.589 341.516C354.589 342.389 354.38 343.129 353.962 343.738C353.551 344.347 352.99 344.757 352.279 344.97V344.42C353.276 344.647 354.031 345.12 354.545 345.839C355.065 346.558 355.326 347.375 355.326 348.292C355.326 349.231 355.146 350.052 354.787 350.756C354.427 351.46 353.892 352.01 353.181 352.406C352.477 352.802 351.604 353 350.563 353H343.644ZM346.328 350.503H350.233C350.695 350.503 351.109 350.411 351.476 350.228C351.842 350.037 352.128 349.773 352.334 349.436C352.546 349.091 352.653 348.684 352.653 348.215C352.653 347.79 352.561 347.408 352.378 347.071C352.194 346.734 351.927 346.466 351.575 346.268C351.223 346.063 350.801 345.96 350.31 345.96H346.328V350.503ZM346.328 343.485H349.892C350.273 343.485 350.614 343.412 350.915 343.265C351.215 343.118 351.454 342.902 351.63 342.616C351.806 342.33 351.894 341.978 351.894 341.56C351.894 341.01 351.718 340.552 351.366 340.185C351.014 339.818 350.522 339.635 349.892 339.635H346.328V343.485ZM356.422 353L361.416 337.16H365.299L370.293 353H367.565L363.033 338.788H363.627L359.15 353H356.422ZM359.205 349.568V347.093H367.521V349.568H359.205ZM372.282 353V337.16H377.331C377.463 337.16 377.724 337.164 378.112 337.171C378.508 337.178 378.89 337.204 379.256 337.248C380.51 337.409 381.57 337.857 382.435 338.59C383.308 339.316 383.968 340.244 384.415 341.373C384.863 342.502 385.086 343.738 385.086 345.08C385.086 346.422 384.863 347.658 384.415 348.787C383.968 349.916 383.308 350.848 382.435 351.581C381.57 352.307 380.51 352.751 379.256 352.912C378.897 352.956 378.519 352.982 378.123 352.989C377.727 352.996 377.463 353 377.331 353H372.282ZM374.977 350.503H377.331C377.551 350.503 377.83 350.496 378.167 350.481C378.512 350.466 378.816 350.433 379.08 350.382C379.828 350.243 380.437 349.909 380.906 349.381C381.376 348.853 381.72 348.211 381.94 347.456C382.168 346.701 382.281 345.909 382.281 345.08C382.281 344.222 382.168 343.415 381.94 342.66C381.713 341.905 381.361 341.27 380.884 340.757C380.415 340.244 379.814 339.917 379.08 339.778C378.816 339.719 378.512 339.686 378.167 339.679C377.83 339.664 377.551 339.657 377.331 339.657H374.977V350.503ZM397.954 353.33C396.795 353.33 395.75 353.128 394.819 352.725C393.895 352.322 393.132 351.746 392.531 350.998C391.937 350.243 391.559 349.348 391.398 348.314L394.148 347.896C394.382 348.835 394.863 349.561 395.589 350.074C396.322 350.587 397.165 350.844 398.119 350.844C398.683 350.844 399.215 350.756 399.714 350.58C400.212 350.404 400.616 350.147 400.924 349.81C401.239 349.473 401.397 349.058 401.397 348.567C401.397 348.347 401.36 348.145 401.287 347.962C401.213 347.771 401.103 347.603 400.957 347.456C400.817 347.309 400.634 347.177 400.407 347.06C400.187 346.935 399.93 346.829 399.637 346.741L395.545 345.531C395.193 345.428 394.811 345.293 394.401 345.124C393.997 344.948 393.612 344.71 393.246 344.409C392.886 344.101 392.589 343.712 392.355 343.243C392.127 342.766 392.014 342.18 392.014 341.483C392.014 340.464 392.27 339.609 392.784 338.92C393.304 338.223 394.001 337.703 394.874 337.358C395.754 337.013 396.729 336.845 397.8 336.852C398.885 336.859 399.853 337.046 400.704 337.413C401.554 337.772 402.266 338.297 402.838 338.986C403.41 339.675 403.813 340.508 404.048 341.483L401.199 341.978C401.081 341.421 400.854 340.948 400.517 340.559C400.187 340.163 399.78 339.862 399.296 339.657C398.819 339.452 398.309 339.342 397.767 339.327C397.239 339.32 396.747 339.4 396.293 339.569C395.845 339.73 395.482 339.965 395.204 340.273C394.932 340.581 394.797 340.94 394.797 341.351C394.797 341.74 394.914 342.059 395.149 342.308C395.383 342.55 395.673 342.744 396.018 342.891C396.37 343.03 396.725 343.148 397.085 343.243L399.923 344.035C400.311 344.138 400.748 344.277 401.232 344.453C401.716 344.629 402.181 344.875 402.629 345.19C403.076 345.505 403.443 345.92 403.729 346.433C404.022 346.946 404.169 347.599 404.169 348.391C404.169 349.212 403.996 349.935 403.652 350.558C403.314 351.174 402.856 351.687 402.277 352.098C401.697 352.509 401.034 352.817 400.286 353.022C399.545 353.227 398.768 353.33 397.954 353.33ZM406.55 353V337.16H416.78V339.646H409.201V343.551H415.46V346.037H409.201V350.514H416.78V353H406.55ZM419.419 353V337.16H425.964C426.118 337.16 426.316 337.167 426.558 337.182C426.8 337.189 427.024 337.211 427.229 337.248C428.146 337.387 428.901 337.692 429.495 338.161C430.096 338.63 430.54 339.224 430.826 339.943C431.119 340.654 431.266 341.446 431.266 342.319C431.266 343.61 430.94 344.721 430.287 345.652C429.634 346.576 428.633 347.148 427.284 347.368L426.151 347.467H422.07V353H419.419ZM428.516 353L425.392 346.554L428.087 345.96L431.519 353H428.516ZM422.07 344.992H425.854C426.001 344.992 426.166 344.985 426.349 344.97C426.532 344.955 426.701 344.926 426.855 344.882C427.295 344.772 427.64 344.578 427.889 344.299C428.146 344.02 428.325 343.705 428.428 343.353C428.538 343.001 428.593 342.656 428.593 342.319C428.593 341.982 428.538 341.637 428.428 341.285C428.325 340.926 428.146 340.607 427.889 340.328C427.64 340.049 427.295 339.855 426.855 339.745C426.701 339.701 426.532 339.675 426.349 339.668C426.166 339.653 426.001 339.646 425.854 339.646H422.07V344.992ZM437.506 353L432.512 337.16H435.24L439.42 350.426L443.655 337.16H446.383L441.389 353H437.506ZM448.256 353V337.16H450.907V353H448.256ZM460.901 353.33C459.317 353.33 457.96 352.985 456.831 352.296C455.702 351.599 454.833 350.631 454.224 349.392C453.623 348.153 453.322 346.715 453.322 345.08C453.322 343.445 453.623 342.007 454.224 340.768C454.833 339.529 455.702 338.564 456.831 337.875C457.96 337.178 459.317 336.83 460.901 336.83C462.727 336.83 464.249 337.288 465.466 338.205C466.683 339.114 467.538 340.343 468.029 341.89L465.356 342.627C465.048 341.593 464.524 340.786 463.783 340.207C463.042 339.62 462.082 339.327 460.901 339.327C459.838 339.327 458.95 339.565 458.239 340.042C457.535 340.519 457.003 341.19 456.644 342.055C456.292 342.913 456.112 343.921 456.105 345.08C456.105 346.239 456.281 347.251 456.633 348.116C456.992 348.974 457.528 349.641 458.239 350.118C458.95 350.595 459.838 350.833 460.901 350.833C462.082 350.833 463.042 350.54 463.783 349.953C464.524 349.366 465.048 348.56 465.356 347.533L468.029 348.27C467.538 349.817 466.683 351.049 465.466 351.966C464.249 352.875 462.727 353.33 460.901 353.33ZM470.444 353V337.16H480.674V339.646H473.095V343.551H479.354V346.037H473.095V350.514H480.674V353H470.444Z" fill="white"></path> <path d="M327.092 249.654L318.39 254.269L313.355 251.439L313.774 244.434C314.528 244.748 315.311 244.989 316.111 245.154C316.911 245.335 317.725 245.445 318.544 245.483C319.369 245.525 320.195 245.472 321.008 245.324C321.818 245.172 322.593 244.87 323.292 244.433C322.538 244.711 321.753 244.898 320.955 244.99C320.161 245.065 319.362 245.084 318.565 245.048C317.765 245.022 316.97 244.921 316.17 244.826C315.369 244.72 314.574 244.587 313.774 244.434C313.774 244.434 311.055 244.322 310.372 243.792C311.029 247.613 309.158 251.54 309.158 251.54V257.942L300.244 260.878L295.422 258.043L295.946 250.703C296.605 251.321 297.347 251.844 298.151 252.256C298.957 252.678 299.816 252.99 300.705 253.183C301.595 253.385 302.512 253.437 303.419 253.337C304.322 253.242 305.201 252.989 306.016 252.589C305.565 252.669 305.152 252.833 304.707 252.87L304.055 252.971L303.398 253.003C302.524 253.031 301.649 252.949 300.796 252.759C299.939 252.567 299.102 252.297 298.294 251.954C297.886 251.779 297.489 251.588 297.102 251.376C296.705 251.172 296.319 250.948 295.946 250.703C295.946 250.703 294.791 249.654 288.082 249.654L288.093 247.37C288.093 247.37 300.35 251.44 309.158 240.74C309.277 240.909 309.386 241.084 309.487 241.264C315.886 240.721 321.876 237.892 326.361 233.294C326.467 236.23 326.885 240.777 325.942 242.648L327.092 249.654Z" fill="white"></path> <path d="M396.759 248.879C396.419 248.94 396.071 248.932 395.735 248.857C395.398 248.782 395.08 248.642 394.798 248.443C394.516 248.244 394.277 247.992 394.093 247.7C393.909 247.409 393.785 247.084 393.728 246.744L380.929 172.704C380.906 172.557 380.894 172.408 380.892 172.259C380.892 167.367 386.499 147.044 388.598 141.172C389.901 137.52 392.329 130.721 390.203 126.476C389.329 124.722 387.707 123.503 385.259 122.745C376.313 119.979 365.566 126.147 357.717 130.652C356.488 131.357 355.332 132.019 354.251 132.608C349.487 135.21 341.644 137.626 332.566 140.424C325.639 142.56 317.785 144.982 310.08 147.865C294.436 153.716 290.132 173.955 289.835 175.438L283.307 238.052V238.058C282.891 239.84 282.59 241.648 282.406 243.468C282.189 245.331 282.097 247.206 282.13 249.081C282.563 247.256 282.872 245.404 283.058 243.537C283.254 241.819 283.349 240.09 283.344 238.36C285.62 238.719 287.868 239.235 290.074 239.902C290.074 239.902 288.325 241.651 288.092 247.369C288.066 248.068 288.06 248.826 288.081 249.653C286.091 249.651 284.106 249.461 282.151 249.086L281.038 259.786C280.97 260.43 280.665 261.025 280.184 261.459C279.703 261.892 279.079 262.132 278.431 262.133C278.339 262.133 278.247 262.128 278.155 262.118C277.813 262.082 277.481 261.98 277.179 261.816C276.876 261.652 276.609 261.43 276.392 261.163C276.176 260.895 276.014 260.588 275.916 260.258C275.819 259.928 275.787 259.582 275.824 259.24L277.037 247.539C277.042 247.607 277.042 247.671 277.042 247.74C277.508 245.921 277.848 244.073 278.06 242.207C278.309 240.347 278.433 238.472 278.431 236.595C277.969 238.415 277.629 240.263 277.413 242.128C277.179 243.913 277.054 245.711 277.037 247.512C274.234 246.224 272.172 244.316 271.928 241.683C271.674 238.932 274.414 237.968 278.044 237.925L284.631 174.781C284.642 174.712 284.647 174.649 284.658 174.585C284.843 173.584 289.321 150.032 308.241 142.952C316.089 140.016 324.023 137.568 331.023 135.411C339.831 132.698 347.436 130.35 351.739 128.002C352.768 127.446 353.907 126.794 355.105 126.105C363.791 121.118 375.683 114.298 386.807 117.732C390.643 118.919 393.362 121.07 394.894 124.128C398.02 130.376 395.106 138.543 393.537 142.936C391.253 149.328 386.308 167.918 386.139 172.057L398.895 245.853C399.013 246.538 398.854 247.241 398.453 247.809C398.053 248.376 397.443 248.761 396.759 248.879ZM314.193 44.624C313.317 45.4212 312.563 46.3441 311.957 47.3625C311.351 48.3656 310.871 49.4399 310.528 50.5608C310.432 50.8362 310.382 51.1258 310.304 51.4058C310.224 51.6858 310.164 51.971 310.123 52.2594L309.983 53.1203L309.919 53.9908C309.88 54.5709 309.87 55.1526 309.89 55.7336C309.913 56.3144 309.992 56.8936 310.039 57.4726L310.051 57.6246L309.969 57.7575C308.999 59.2092 308.553 60.9476 308.702 62.6868C308.843 63.5625 309.079 64.4202 309.406 65.2444C309.789 66.1328 310 67.0858 310.027 68.0529C309.954 68.9244 310.045 69.8019 310.297 70.6394C310.576 71.4445 311.125 72.128 311.85 72.5737C312.609 73.0294 313.446 73.3419 314.318 73.4954C314.757 73.5903 315.21 73.6305 315.658 73.7009L317.023 73.7791L317.09 73.783L317.116 73.8312C317.453 74.4595 317.778 75.0948 318.102 75.7306C317.708 75.1354 317.315 74.5397 316.934 73.937L317.027 73.989C315.201 74.0955 313.264 74.013 311.539 73.0844C310.668 72.5941 309.993 71.8187 309.627 70.8889C309.311 69.9772 309.177 69.0123 309.232 68.049C309.175 67.1798 308.964 66.3277 308.61 65.5316C308.254 64.6519 307.996 63.7355 307.84 62.7991C307.719 61.8274 307.803 60.841 308.088 59.9041C308.355 58.9765 308.761 58.0949 309.293 57.2898L309.223 57.5745C309.188 56.9669 309.123 56.3616 309.114 55.7538L309.132 54.841C309.13 54.5364 309.151 54.2322 309.195 53.9309L309.301 53.0244L309.486 52.1301C309.541 51.8311 309.617 51.5361 309.712 51.2473C309.804 50.9576 309.875 50.6614 309.991 50.3803C310.404 49.2405 310.975 48.1642 311.686 47.1824C312.373 46.1958 313.221 45.331 314.193 44.624Z" fill="white"></path> <path d="M316.71 71.996C317.044 71.6751 317.33 71.3077 317.559 70.9052C317.785 70.5117 317.972 70.0973 318.119 69.6678C318.269 69.2351 318.392 68.7934 318.488 68.3453L318.625 67.6607C318.669 67.43 318.698 67.1971 318.755 66.9621C318.797 67.1975 318.811 67.4352 318.839 67.675C318.839 67.9134 318.844 68.1547 318.825 68.3944C318.788 68.8779 318.689 69.3546 318.531 69.8129C318.371 70.2755 318.137 70.7092 317.839 71.0974C317.547 71.4899 317.158 71.7996 316.71 71.996ZM309.494 55.478C309.867 55.1744 310.311 54.9708 310.784 54.8866C311.258 54.8023 311.744 54.8401 312.199 54.9963C312.501 55.098 312.779 55.2621 313.013 55.478C312.437 55.3477 311.848 55.2812 311.258 55.2796C310.665 55.2923 310.075 55.3587 309.494 55.478ZM310.103 58.9654C310.273 58.9595 310.434 58.8879 310.552 58.7656C310.67 58.6433 310.736 58.4799 310.736 58.3099C310.736 58.1399 310.67 57.9765 310.552 57.8542C310.434 57.732 310.273 57.6603 310.103 57.6544C309.933 57.6603 309.772 57.732 309.654 57.8542C309.536 57.9765 309.47 58.1399 309.47 58.3099C309.47 58.4799 309.536 58.6433 309.654 58.7656C309.772 58.8879 309.933 58.9595 310.103 58.9654ZM297.947 106.299C298.894 103.147 300.029 100.055 301.348 97.0401C302.644 94.0167 304.15 91.0877 305.855 88.2742C306.711 86.869 307.616 85.4904 308.605 84.1705C309.58 82.8368 310.639 81.567 311.777 80.3689C312.907 79.1549 314.145 78.0459 315.475 77.0554C316.8 76.0434 318.241 75.1926 319.767 74.5211C321.303 73.9101 322.871 73.3806 324.463 72.935C326.035 72.4627 327.611 71.9994 329.198 71.567C330.786 71.1398 332.383 70.7331 334.012 70.422C334.833 70.2633 335.663 70.1563 336.497 70.1016C337.351 70.0457 338.208 70.1102 339.043 70.293C339.875 70.4908 340.614 70.6759 341.441 70.8354C342.266 71.0082 343.072 71.2578 343.851 71.5811C345.382 72.2594 346.817 73.1359 348.119 74.1879C350.654 76.3052 352.981 78.6601 355.068 81.2204C357.19 83.7364 359.129 86.3901 361.043 89.0569C361.981 90.404 362.909 91.7579 363.826 93.1186C364.26 93.8182 364.72 94.5018 365.136 95.211C365.534 95.9307 365.956 96.6374 366.334 97.3675C367.843 100.288 369.136 103.316 370.202 106.426C371.294 109.523 372.205 112.681 372.992 115.868C374.533 122.252 375.687 128.723 376.447 135.247C377.233 141.771 377.683 148.331 377.797 154.901L377.801 155.134L377.587 155.23C373.586 156.991 369.418 158.343 365.145 159.266C360.876 160.225 356.512 160.701 352.136 160.685C349.943 160.652 347.756 160.462 345.59 160.115C343.422 159.754 341.291 159.197 339.223 158.452C337.151 157.708 335.161 156.753 333.285 155.602L331.896 154.709C331.443 154.399 331.013 154.054 330.57 153.728L329.911 153.232L329.288 152.692L328.047 151.605L327.929 151.502L327.91 151.329L326.589 139.592L325.881 133.731C325.627 131.783 325.377 129.825 325.03 127.908L325.184 128.13C324.018 127.35 322.924 126.467 321.915 125.492C320.904 124.524 319.984 123.465 319.167 122.328C318.36 121.177 317.702 119.928 317.208 118.612C316.74 117.28 316.491 115.882 316.47 114.47L316.724 114.71C314.946 114.727 313.172 114.55 311.433 114.18C309.698 113.825 308.006 113.284 306.387 112.566C305.565 112.237 304.798 111.791 304.014 111.386C303.254 110.937 302.518 110.448 301.81 109.921C300.388 108.866 299.092 107.651 297.947 106.299ZM298.033 106.281C299.201 107.578 300.508 108.743 301.93 109.755C302.642 110.261 303.381 110.729 304.143 111.157C304.928 111.54 305.693 111.964 306.512 112.27C308.126 112.936 309.802 113.439 311.515 113.77C313.221 114.111 314.958 114.265 316.697 114.23L316.94 114.223L316.951 114.47C316.988 115.822 317.243 117.159 317.706 118.43C318.198 119.694 318.848 120.891 319.639 121.992C320.447 123.087 321.353 124.106 322.347 125.036C323.335 125.968 324.404 126.811 325.541 127.554L325.668 127.635L325.695 127.775C326.073 129.73 326.344 131.679 326.623 133.632L327.401 139.494C327.906 143.402 328.358 147.316 328.793 151.233L328.656 150.958L329.865 152.012L330.472 152.537L331.114 153.017C331.545 153.333 331.963 153.668 332.404 153.969L333.755 154.833C335.581 155.948 337.518 156.873 339.533 157.592C343.593 159 347.853 159.742 352.149 159.788C356.459 159.826 360.759 159.38 364.969 158.457C367.077 158.003 369.161 157.453 371.222 156.805C373.279 156.169 375.301 155.422 377.278 154.569L377.068 154.898C377.029 148.352 376.653 141.812 375.944 135.304C375.28 128.786 374.194 122.318 372.695 115.941C371.924 112.759 371.03 109.605 369.954 106.513C368.874 103.423 367.569 100.416 366.05 97.5177C365.67 96.7943 365.246 96.0951 364.847 95.3827C364.428 94.6817 363.971 94.0045 363.533 93.3161C362.596 91.9744 361.65 90.6377 360.696 89.3061C358.748 86.6753 356.773 84.0611 354.631 81.5925C352.536 79.0967 350.208 76.8065 347.678 74.753C346.421 73.7491 345.039 72.913 343.567 72.266C342.829 71.9635 342.064 71.7309 341.283 71.5714C340.499 71.4253 339.645 71.2183 338.882 71.0399C337.311 70.7709 335.703 70.8238 334.154 71.1954C332.56 71.4903 330.974 71.8841 329.395 72.2994C327.815 72.72 326.243 73.1726 324.672 73.6345C323.105 74.0634 321.561 74.5743 320.047 75.165C318.565 75.8071 317.166 76.6233 315.877 77.5965C315.217 78.0644 314.606 78.598 313.987 79.1207C313.398 79.6768 312.789 80.2146 312.234 80.8089C311.097 81.9736 310.036 83.2101 309.057 84.5107C308.062 85.8009 307.146 87.1538 306.277 88.5357C302.85 94.1111 300.084 100.066 298.033 106.281Z" fill="white"></path> <path d="M321.744 91.1881C321.748 93.1133 321.703 95.0347 321.624 96.9536C321.542 98.8722 321.441 100.789 321.304 102.704C321.177 104.619 321.023 106.532 320.843 108.444C320.671 110.356 320.461 112.264 320.228 114.172L320.205 114.365L320.034 114.37C318.925 114.402 317.82 114.465 316.71 114.47C317.801 114.266 318.899 114.119 319.993 113.941L319.798 114.139C319.854 112.219 319.932 110.3 320.048 108.384C320.16 106.467 320.295 104.553 320.453 102.64C320.604 100.726 320.791 98.8156 320.998 96.9064C321.207 94.9973 321.451 93.0908 321.744 91.1881ZM321.483 63.0472C321.483 63.0472 320.642 74.513 324.575 79.3897C328.508 84.2664 332.598 88.3565 334.014 92.2893C335.43 96.2221 347.386 98.8964 348.644 92.2893C349.903 85.6822 344.554 82.8506 343.61 78.7605C342.666 74.6703 342.194 66.4901 340.936 62.4C339.677 58.3099 343.767 51.2308 331.654 43.0506C319.541 34.8704 313.013 45.7316 313.013 45.7316C313.013 45.7316 316.238 60.5123 318.755 56.2648C318.755 56.2648 322.216 53.5905 321.901 60.1976M303.332 143.99L303.263 143.558C315.279 141.656 327.002 140.526 327.119 140.515L327.16 140.95C327.043 140.961 315.334 142.09 303.332 143.99ZM311.155 180.716L314.634 189.276L318.085 197.847L324.921 215.015L325.331 216.044L324.365 215.457C323.618 215.026 322.817 214.696 321.984 214.476L321.349 214.309L320.702 214.192C320.27 214.115 319.834 214.062 319.396 214.032C317.635 213.919 315.868 214.085 314.159 214.524L312.879 214.872L311.633 215.334L311.011 215.565L310.409 215.851L309.206 216.421C308.422 216.838 307.663 217.305 306.892 217.747L304.693 219.268L304.42 219.457L304.16 219.249C303.779 218.977 303.361 218.761 302.919 218.608L302.219 218.416L301.497 218.315C301.255 218.294 301.009 218.313 300.765 218.308C300.643 218.312 300.521 218.299 300.399 218.315L300.034 218.37C299.791 218.409 299.546 218.436 299.304 218.484L298.591 218.701C296.689 219.403 294.945 220.477 293.464 221.861C291.962 223.27 290.589 224.81 289.36 226.461L288.443 227.711L287.984 228.336L287.564 228.989L285.89 231.606L285.41 232.357L285.19 231.507C284.331 228.187 283.482 224.864 282.645 221.538L280.128 211.563L277.638 201.58L275.187 191.588L277.923 201.506L280.62 211.435L283.29 221.37C284.187 224.68 285.067 227.994 285.932 231.313L285.232 231.213L286.912 228.556L287.334 227.893L287.797 227.255L288.723 225.98C289.974 224.281 291.374 222.697 292.906 221.246C294.47 219.772 296.313 218.628 298.328 217.88L299.109 217.64C299.376 217.585 299.65 217.551 299.921 217.507L300.329 217.446C300.465 217.428 300.605 217.439 300.743 217.435C301.019 217.44 301.296 217.423 301.572 217.449C302.708 217.527 303.799 217.927 304.717 218.602L304.184 218.583L306.443 217.037C307.238 216.586 308.019 216.11 308.829 215.686L310.073 215.103L310.696 214.812L311.342 214.576L312.635 214.104L313.968 213.748C315.761 213.298 317.613 213.134 319.456 213.263C321.329 213.379 323.15 213.919 324.783 214.842L324.228 215.285L317.643 198.019L314.385 189.373L311.155 180.716ZM270.468 173.327C270.062 172.114 269.71 170.886 269.329 169.664C268.994 168.408 268.822 167.115 268.817 165.815C268.762 163.201 269.266 160.605 270.294 158.201C271.342 155.794 272.96 153.679 275.008 152.038C275.536 151.658 276.037 151.242 276.584 150.897L278.268 149.937C279.432 149.395 280.632 148.935 281.86 148.559L280.993 148.968L280.558 149.165L280.14 149.394C279.583 149.702 279.023 149.998 278.476 150.312L276.908 151.37C276.404 151.743 275.937 152.164 275.45 152.557C275.21 152.757 274.985 152.975 274.777 153.208L274.122 153.876C273.904 154.098 273.703 154.337 273.52 154.589L272.942 155.322C272.577 155.824 272.263 156.363 271.92 156.88C271.645 157.437 271.339 157.98 271.095 158.551C270.844 159.12 270.625 159.703 270.438 160.296L270.165 161.19L269.957 162.102C269.796 162.706 269.737 163.33 269.633 163.947C269.596 164.257 269.581 164.57 269.55 164.882C269.516 165.193 269.497 165.506 269.496 165.819C269.439 167.074 269.522 168.331 269.744 169.567C269.984 170.819 270.253 172.065 270.468 173.327ZM373.013 168.376H372.891L372.889 168.156L372.704 168.044C375.109 164.019 376.645 159.536 377.213 154.882L377.649 154.917C377.074 159.639 375.517 164.188 373.078 168.271L373.013 168.376ZM294.686 164.81C297.066 165.237 299.44 165.679 301.824 166.073C304.202 166.492 306.582 166.894 308.968 167.264C313.737 168.002 318.512 168.707 323.305 169.203C325.7 169.459 328.1 169.659 330.501 169.764C332.893 169.9 335.293 169.855 337.678 169.628C338.854 169.521 340.011 169.255 341.115 168.836C341.645 168.628 342.125 168.313 342.526 167.909C342.61 167.802 342.699 167.696 342.774 167.583C342.835 167.458 342.906 167.358 342.964 167.212L343.325 166.381C344.313 164.175 345.274 161.958 346.286 159.762C345.457 162.034 344.575 164.283 343.721 166.545L343.391 167.388C343.343 167.526 343.252 167.684 343.182 167.83C343.096 167.971 342.994 168.102 342.895 168.234C342.459 168.708 341.929 169.085 341.339 169.341C340.197 169.82 338.995 170.141 337.766 170.295C335.347 170.601 332.906 170.701 330.47 170.591C328.042 170.51 325.624 170.315 323.213 170.072C318.396 169.551 313.608 168.821 308.854 167.923C306.477 167.472 304.107 166.995 301.742 166.491C299.384 165.955 297.024 165.429 294.686 164.81ZM328.351 151.281C323.29 151.625 318.23 151.704 313.17 151.718C308.11 151.706 303.05 151.627 297.99 151.281C303.05 150.936 308.11 150.857 313.17 150.845C318.23 150.859 323.29 150.938 328.351 151.281Z" fill="white"></path> <path d="M304.44 218.926C304.09 217.222 303.796 215.51 303.472 213.803L302.594 208.666C302.009 205.241 301.493 201.807 300.977 198.372C300.482 194.934 299.988 191.496 299.561 188.049L298.924 182.876C298.743 181.148 298.533 179.423 298.378 177.691C298.729 179.395 299.024 181.107 299.348 182.814L300.226 187.951C300.81 191.376 301.326 194.81 301.841 198.245C302.336 201.683 302.83 205.121 303.256 208.569L303.893 213.741C304.074 215.469 304.285 217.194 304.44 218.926ZM330.925 153.461C331.198 155.013 331.468 156.551 331.772 158.079C332.081 159.604 332.413 161.121 332.841 162.604C333.236 164.087 333.787 165.523 334.487 166.888C335.2 168.209 336.184 169.477 337.712 169.963C336.903 169.888 336.135 169.572 335.507 169.056C334.875 168.543 334.333 167.929 333.902 167.238C333.468 166.56 333.094 165.846 332.784 165.104C332.482 164.363 332.229 163.606 332.001 162.844C331.578 161.317 331.277 159.759 331.101 158.184C330.909 156.617 330.85 155.037 330.925 153.461ZM289.22 225.997C289.842 227.193 290.401 228.418 290.927 229.659C291.453 230.901 291.945 232.161 292.347 233.458C292.79 234.764 293.07 236.12 293.182 237.495C293.198 237.859 293.183 238.224 293.137 238.586C293.112 238.772 293.055 238.964 293.011 239.152C292.942 239.351 292.85 239.54 292.737 239.717C292.488 240.103 292.105 240.383 291.662 240.502C291.261 240.586 290.849 240.59 290.447 240.514L289.899 240.389L289.421 240.253L288.459 239.997C287.817 239.829 287.167 239.688 286.52 239.54C285.222 239.258 283.915 239.015 282.602 238.841C281.296 238.658 279.98 238.547 278.662 238.51C277.374 238.451 276.083 238.568 274.827 238.858C274.241 238.994 273.689 239.247 273.202 239.6C272.758 239.942 272.466 240.445 272.39 241.001C272.324 241.606 272.389 242.218 272.578 242.796C272.769 243.397 273.061 243.96 273.442 244.461C274.254 245.482 275.271 246.321 276.428 246.922C277.599 247.549 278.836 248.043 280.116 248.396C282.691 249.107 285.353 249.454 288.024 249.424C289.371 249.419 290.722 249.422 292.075 249.516C292.751 249.569 293.429 249.631 294.106 249.748C294.445 249.808 294.784 249.875 295.124 249.97C295.294 250.015 295.465 250.069 295.636 250.132C295.723 250.168 295.808 250.198 295.897 250.243C295.943 250.264 295.988 250.287 296.032 250.312C296.091 250.344 296.147 250.381 296.199 250.424L296.331 250.532L296.321 250.73C296.197 253.181 296.09 255.633 295.943 258.082L295.686 257.593L300.548 260.36L300.058 260.308L308.948 257.297L308.483 257.939C308.458 255.807 308.462 253.675 308.459 251.542L308.459 251.393L308.527 251.241C308.881 250.423 309.17 249.577 309.389 248.713C309.612 247.847 309.757 246.962 309.82 246.07C309.867 245.195 309.803 244.316 309.631 243.457C309.44 242.618 309.109 241.819 308.652 241.09L308.585 240.982L308.566 240.907L307.129 235.363C306.653 233.515 306.202 231.66 305.776 229.799C305.346 227.939 304.919 226.077 304.544 224.203C304.356 223.266 304.182 222.326 304.022 221.383C303.954 220.908 303.863 220.44 303.815 219.961L303.742 219.244C303.731 219.002 303.74 218.755 303.739 218.514L303.869 218.526C303.891 218.76 303.901 218.992 303.932 219.224L304.061 219.923C304.147 220.388 304.264 220.851 304.363 221.315C304.586 222.239 304.82 223.162 305.069 224.081C305.561 225.92 306.058 227.759 306.583 229.591L308.155 235.086L309.753 240.573L309.667 240.39C310.24 241.234 310.661 242.172 310.911 243.161C311.124 244.138 311.212 245.139 311.171 246.139C311.116 247.121 310.971 248.095 310.739 249.049C310.511 250.008 310.194 250.943 309.792 251.843L309.86 251.542C309.858 253.675 309.861 255.807 309.837 257.939L309.831 258.435L309.371 258.582L300.432 261.444L300.168 261.529L299.942 261.392L295.156 258.495L294.873 258.324L294.9 258.007C295.102 255.562 295.344 253.12 295.57 250.676L295.692 250.982C295.65 250.954 295.607 250.928 295.563 250.905C295.504 250.871 295.431 250.842 295.364 250.81C295.223 250.751 295.075 250.697 294.922 250.65C294.619 250.552 294.301 250.476 293.981 250.406C293.34 250.27 292.681 250.184 292.021 250.106C290.699 249.965 289.362 249.898 288.024 249.884C285.316 249.849 282.623 249.485 280.004 248.799C278.688 248.455 277.409 247.979 276.188 247.38C274.927 246.792 273.803 245.946 272.888 244.898C271.927 243.79 271.43 242.354 271.501 240.889C271.578 240.095 271.96 239.362 272.565 238.843C273.143 238.37 273.811 238.022 274.529 237.818C275.208 237.623 275.904 237.492 276.608 237.429C277.296 237.357 277.989 237.329 278.68 237.344C280.048 237.368 281.412 237.482 282.764 237.688C284.111 237.883 285.444 238.147 286.767 238.451C287.427 238.606 288.084 238.776 288.738 238.961L289.715 239.249L290.202 239.4L290.634 239.51C290.77 239.538 290.908 239.555 291.046 239.562C291.17 239.563 291.295 239.555 291.418 239.537C291.63 239.484 291.815 239.356 291.939 239.177C292.218 238.67 292.342 238.094 292.296 237.518C292.232 236.209 292.022 234.912 291.671 233.65C290.972 231.067 290.114 228.53 289.101 226.053L289.22 225.997Z" fill="white"></path> <path d="M296.679 238.642C296.697 238.935 296.725 239.212 296.753 239.479C296.778 239.737 296.833 239.991 296.918 240.236C296.998 240.465 297.13 240.673 297.304 240.842C297.508 241.018 297.74 241.161 297.99 241.264C297.687 241.322 297.373 241.27 297.104 241.118C296.826 240.95 296.616 240.691 296.507 240.384C296.413 240.098 296.38 239.795 296.409 239.495C296.439 239.195 296.531 238.905 296.679 238.642ZM276.519 247.377C276.383 244.107 276.968 240.847 278.232 237.828L278.626 238.016C277.392 240.971 276.822 244.16 276.956 247.359L276.519 247.377ZM306.013 217.818C306.717 219.195 307.344 220.61 307.89 222.057C308.445 223.492 308.955 224.942 309.42 226.406C309.649 227.138 309.874 227.873 310.082 228.612L310.386 229.725C310.447 229.933 310.494 230.145 310.525 230.36C310.552 230.583 310.557 230.808 310.542 231.032C310.49 231.915 310.097 232.743 309.446 233.341C309.137 233.592 308.813 233.824 308.475 234.035C308.151 234.248 307.825 234.458 307.487 234.655C307.729 234.348 307.982 234.054 308.237 233.761C308.481 233.469 308.781 233.184 308.97 232.908C309.367 232.363 309.561 231.696 309.519 231.023C309.491 230.696 309.414 230.375 309.291 230.071L308.899 228.987C308.643 228.263 308.404 227.533 308.17 226.801C307.706 225.337 307.288 223.859 306.918 222.365C306.531 220.867 306.229 219.35 306.013 217.818ZM314.822 233.923C314.905 234.403 315.152 234.841 315.522 235.159C315.713 235.289 315.926 235.385 316.15 235.442C316.39 235.502 316.645 235.546 316.92 235.601C316.791 235.654 316.66 235.701 316.526 235.74C316.387 235.765 316.246 235.779 316.105 235.78C315.804 235.775 315.511 235.682 315.263 235.511C315.015 235.327 314.841 235.062 314.77 234.762C314.7 234.484 314.719 234.19 314.822 233.923Z" fill="white"></path> <path d="M319.398 213.609C320.582 215.856 321.622 218.166 322.621 220.493C323.112 221.661 323.595 222.832 324.049 224.015C324.509 225.196 324.949 226.385 325.337 227.595C325.73 228.804 326.076 230.029 326.359 231.281C326.516 231.921 326.62 232.572 326.67 233.228C326.673 233.864 326.664 234.492 326.683 235.125C326.702 236.391 326.751 237.657 326.742 238.931C326.729 239.567 326.715 240.206 326.652 240.848C326.604 241.511 326.455 242.163 326.211 242.781L326.239 242.596C326.706 244.919 327.229 247.232 327.659 249.561L327.732 249.955L327.362 250.16L323.051 252.545C321.618 253.346 320.169 254.12 318.718 254.889L318.374 255.071L318.045 254.88L315.546 253.432C314.712 252.953 313.89 252.449 313.062 251.959L312.725 251.76L312.757 251.401C312.964 249.071 313.19 246.741 313.466 244.415L313.762 244.743C313.168 244.681 312.589 244.585 312.008 244.466C311.719 244.404 311.43 244.333 311.145 244.245C310.852 244.161 310.576 244.024 310.331 243.842L310.411 243.738C310.662 243.864 310.932 243.945 311.21 243.979C311.492 244.026 311.777 244.057 312.064 244.079C312.636 244.121 313.218 244.13 313.787 244.125L314.084 244.121L314.084 244.452C314.08 246.795 314.027 249.134 313.954 251.473L313.649 250.914C314.499 251.368 315.355 251.809 316.198 252.273L318.733 253.656L318.061 253.648C319.511 252.879 320.964 252.114 322.432 251.377L326.826 249.148L326.529 249.747C326.19 247.403 325.944 245.044 325.642 242.694L325.628 242.588L325.67 242.509C325.935 241.968 326.108 241.386 326.183 240.789C326.27 240.17 326.32 239.547 326.333 238.923C326.357 237.664 326.314 236.403 326.203 235.148C326.157 234.52 326.1 233.884 326.036 233.258C325.927 232.661 325.771 232.073 325.571 231.499C325.175 230.316 324.703 229.147 324.272 227.966C323.394 225.608 322.542 223.233 321.692 220.855C320.854 218.472 320.015 216.088 319.276 213.659L319.398 213.609ZM315.667 114.446C315.602 114.683 315.526 114.916 315.437 115.145L315.202 115.803L314.728 117.12L313.771 119.749L311.821 124.996C310.482 128.479 309.116 131.952 307.673 135.398C307.315 136.26 306.949 137.119 306.564 137.972C306.192 138.828 305.794 139.676 305.397 140.523C304.634 142.253 303.691 143.897 302.585 145.429C301.445 146.936 300.196 148.331 298.945 149.72C297.691 151.107 296.407 152.462 295.123 153.814C292.562 156.522 289.994 159.227 287.653 162.1C287.078 162.824 286.516 163.559 286.013 164.327C285.495 165.063 285.099 165.878 284.841 166.741L284.78 167.054C284.77 167.156 284.777 167.255 284.773 167.357C284.77 167.561 284.798 167.826 284.808 168.058C284.823 168.296 284.825 168.535 284.813 168.773C284.807 169.011 284.808 169.25 284.781 169.485C284.706 170.425 284.571 171.359 284.378 172.282C283.981 174.113 283.489 175.921 282.906 177.701C282.628 178.592 282.331 179.478 282.065 180.365C281.827 181.25 281.763 182.173 281.878 183.082C282.028 184.933 282.234 186.8 282.238 188.673C282.239 189.141 282.247 189.607 282.216 190.082C282.211 190.576 282.085 191.06 281.849 191.493C281.77 191.612 281.659 191.707 281.529 191.767C281.393 191.821 281.244 191.832 281.101 191.799C280.853 191.733 280.624 191.61 280.431 191.441C280.064 191.13 279.739 190.773 279.463 190.379L279.731 190.324C279.642 190.826 279.481 191.312 279.253 191.767C279.13 192.007 278.959 192.218 278.75 192.387C278.525 192.563 278.245 192.653 277.96 192.641C277.432 192.574 276.94 192.339 276.554 191.972C276.169 191.642 275.821 191.271 275.515 190.866L275.81 190.83C275.716 191.075 275.596 191.309 275.451 191.529C275.303 191.772 275.087 191.967 274.83 192.09C274.691 192.145 274.543 192.172 274.394 192.169C274.245 192.166 274.098 192.134 273.961 192.073C273.712 191.964 273.483 191.814 273.285 191.628C272.909 191.275 272.577 190.878 272.295 190.446C272.011 190.024 271.754 189.584 271.525 189.13L271.901 189.155C271.768 189.368 271.611 189.566 271.434 189.744C271.334 189.844 271.219 189.927 271.093 189.991C270.94 190.067 270.765 190.086 270.599 190.046C270.459 189.995 270.332 189.917 270.223 189.815C270.115 189.714 270.028 189.592 269.967 189.456C269.851 189.236 269.756 189.004 269.685 188.765C269.428 187.847 269.253 186.908 269.162 185.96C268.959 184.082 268.857 182.212 268.821 180.324C268.808 179.376 268.843 178.428 268.925 177.484C269 176.523 269.19 175.575 269.491 174.659C269.822 173.753 270.262 172.891 270.803 172.092C271.313 171.321 271.775 170.52 272.188 169.693C273.794 166.339 275.279 162.887 276.77 159.457C278.25 156.019 279.714 152.571 281.132 149.109L282.187 146.513L283.196 143.886C283.924 142.145 284.682 140.433 285.448 138.721C286.982 135.301 288.524 131.886 290.099 128.486C293.26 121.691 296.414 114.894 299.644 108.133L299.805 107.795L300.073 108.061C301.095 109.052 302.222 109.927 303.434 110.671C304.646 111.434 305.923 112.088 307.25 112.626C308.577 113.171 309.952 113.594 311.357 113.887C312.055 114.06 312.77 114.142 313.481 114.248C314.195 114.345 314.956 114.376 315.667 114.446ZM315.595 114.495C314.868 114.46 314.182 114.479 313.465 114.397C312.747 114.311 312.024 114.249 311.315 114.095C309.887 113.839 308.485 113.452 307.127 112.939C305.762 112.435 304.448 111.801 303.203 111.047C301.94 110.306 300.763 109.427 299.693 108.426L300.122 108.354L290.873 128.839L286.269 139.087C285.509 140.796 284.755 142.512 284.042 144.23L283.044 146.85L281.99 149.463C280.549 152.927 279.057 156.365 277.553 159.798C276.029 163.227 274.544 166.657 272.872 170.04C272.436 170.884 271.949 171.7 271.414 172.485C270.891 173.23 270.462 174.037 270.136 174.887C269.607 176.648 269.366 178.483 269.423 180.321C269.43 182.179 269.505 184.055 269.678 185.905C269.752 186.823 269.907 187.733 270.14 188.624C270.199 188.835 270.279 189.039 270.378 189.235C270.471 189.417 270.605 189.583 270.716 189.607C270.814 189.644 270.98 189.567 271.129 189.421C271.284 189.269 271.421 189.1 271.539 188.918L271.752 188.604L271.916 188.943C272.129 189.383 272.37 189.809 272.636 190.219C272.894 190.628 273.198 191.005 273.544 191.343C273.882 191.659 274.319 191.912 274.689 191.756C275.074 191.512 275.36 191.139 275.496 190.704L275.614 190.427L275.791 190.668C276.073 191.057 276.399 191.411 276.762 191.726C277.093 192.048 277.517 192.258 277.974 192.327C278.193 192.32 278.405 192.249 278.584 192.124C278.764 191.998 278.903 191.823 278.985 191.62C279.2 191.193 279.354 190.736 279.44 190.265L279.512 189.937L279.708 190.211C279.966 190.583 280.27 190.921 280.613 191.216C280.944 191.503 281.405 191.698 281.621 191.33C281.827 190.939 281.938 190.504 281.944 190.062C281.976 189.607 281.972 189.139 281.973 188.675C281.967 186.815 281.74 184.97 281.577 183.105C281.453 182.159 281.513 181.199 281.754 180.276C282.017 179.374 282.306 178.49 282.576 177.599C283.127 175.824 283.581 174.021 283.937 172.197C284.109 171.291 284.223 170.374 284.279 169.454C284.301 169.224 284.294 168.996 284.296 168.768C284.303 168.54 284.297 168.313 284.278 168.086C284.262 167.852 284.237 167.653 284.23 167.391C284.23 167.26 284.222 167.124 284.232 166.996L284.297 166.621C284.552 165.687 284.958 164.801 285.499 163.999C286.004 163.196 286.562 162.437 287.132 161.69C288.281 160.204 289.505 158.786 290.761 157.401C292.014 156.014 293.288 154.649 294.563 153.287C297.088 150.547 299.734 147.901 302.007 144.99C303.095 143.504 304.024 141.907 304.78 140.227C305.59 138.556 306.343 136.853 307.097 135.15C308.598 131.741 310.025 128.296 311.425 124.84L313.529 119.657L314.566 117.058L315.08 115.757L315.335 115.107C315.409 114.898 315.496 114.693 315.595 114.495Z" fill="white"></path> <path d="M277.172 180.017L279.796 190.244L279.371 190.344L277.172 180.017Z" fill="white"></path> <path d="M274.027 180.017L275.869 190.734L275.437 190.799L274.027 180.017Z" fill="white"></path> <path d="M271.246 180.017L271.936 189.025L271.5 189.047L271.246 180.017Z" fill="white"></path> <path d="M347.756 270C347.735 270 347.713 270 347.692 269.999C346.997 269.982 346.337 269.69 345.857 269.187C345.377 268.684 345.117 268.01 345.134 267.315L347.126 183.94C347.129 183.833 347.138 183.726 347.153 183.621L355.296 128.207C355.4 127.522 355.771 126.906 356.328 126.493C356.885 126.081 357.583 125.906 358.269 126.006C358.955 126.107 359.574 126.476 359.988 127.031C360.403 127.587 360.581 128.284 360.484 128.97L352.365 184.225L350.376 267.44C350.36 268.125 350.077 268.775 349.587 269.253C349.097 269.731 348.44 269.999 347.756 270Z" fill="white"></path> <path d="M383.514 172.256L382.885 176.661C376.802 184.212 352.995 189.036 352.995 189.036H346.288L288.275 175.298L290.075 170.227C290.075 170.227 329.608 182.744 352.576 180.541C363.273 179.514 369.4 173.882 372.887 168.157H372.891C384.287 169.507 383.514 172.256 383.514 172.256Z" fill="white"></path> <path d="M327.934 230.176C327.893 230.176 327.852 230.175 327.81 230.173C327.116 230.141 326.462 229.834 325.994 229.32C325.526 228.806 325.281 228.127 325.313 227.432L327.35 183.6C327.383 182.906 327.691 182.253 328.204 181.785C328.718 181.318 329.397 181.073 330.091 181.105C330.785 181.138 331.438 181.444 331.907 181.957C332.375 182.471 332.62 183.149 332.589 183.843L330.551 227.676C330.52 228.349 330.231 228.984 329.743 229.45C329.256 229.915 328.608 230.175 327.934 230.176ZM290.373 128.978C282.435 129.808 274.45 130.193 266.464 130.284C258.479 130.33 250.483 130.179 242.517 129.512C238.536 129.172 234.566 128.732 230.605 128.193C228.626 127.922 226.652 127.618 224.683 127.282C222.712 126.957 220.745 126.605 218.789 126.202C216.831 125.801 214.889 125.33 212.955 124.819C211.014 124.319 209.109 123.689 207.252 122.932C206.318 122.546 205.416 122.086 204.556 121.556C203.643 121.04 202.875 120.302 202.323 119.411C202.049 118.916 201.945 118.346 202.027 117.787C202.128 117.242 202.366 116.732 202.718 116.305C203.396 115.514 204.212 114.853 205.127 114.355C206.896 113.373 208.762 112.575 210.694 111.973C212.604 111.34 214.545 110.824 216.498 110.371C220.403 109.464 224.351 108.777 228.314 108.233C236.241 107.137 244.219 106.492 252.205 106.182C260.192 105.881 268.187 105.928 276.168 106.238C284.149 106.574 292.119 107.197 300.026 108.314L300.017 108.313L300.035 108.314V108.445L300.017 108.445L300.016 108.445L300.008 108.444C292.065 107.759 284.101 107.39 276.139 107.263C268.177 107.118 260.211 107.241 252.261 107.579C244.312 107.923 236.365 108.455 228.477 109.455C224.536 109.965 220.605 110.566 216.724 111.386C214.785 111.802 212.858 112.267 210.962 112.826C209.067 113.355 207.231 114.076 205.482 114.978C204.63 115.413 203.863 115.998 203.218 116.705C202.923 117.042 202.718 117.448 202.621 117.885C202.547 118.319 202.619 118.765 202.825 119.154C203.313 119.974 203.999 120.658 204.82 121.145C205.654 121.668 206.527 122.124 207.433 122.508C211.125 123.987 214.96 125.076 218.878 125.756C220.832 126.13 222.794 126.468 224.765 126.749C226.737 127.021 228.713 127.261 230.693 127.468C234.653 127.886 238.623 128.189 242.596 128.424C258.499 129.423 274.445 129.564 290.364 128.847L290.373 128.978ZM311.068 126.637L310.99 126.207C314.342 125.629 317.657 124.858 320.92 123.897L321.047 124.315C317.768 125.281 314.436 126.056 311.068 126.637ZM240.649 99.6832C240.679 99.4529 240.931 99.3473 241.113 99.2575C241.312 99.1698 241.517 99.0954 241.726 99.035C242.144 98.927 242.567 98.8415 242.994 98.779C244.7 98.5401 246.431 98.5398 248.137 98.778C248.564 98.8407 248.987 98.9262 249.405 99.0341C249.614 99.0947 249.819 99.1691 250.018 99.257C250.2 99.347 250.452 99.4527 250.481 99.6832C250.406 99.4766 250.165 99.4307 249.977 99.3655C249.774 99.3112 249.568 99.2704 249.36 99.2435C248.942 99.1786 248.522 99.1348 248.101 99.1122C247.257 99.0598 246.412 99.0345 245.565 99.0363C244.719 99.0347 243.874 99.0598 243.03 99.1116C242.608 99.1371 242.187 99.176 241.771 99.2431C241.563 99.2701 241.356 99.311 241.153 99.3654C240.965 99.4307 240.724 99.4766 240.649 99.6832Z" fill="white"></path> <path d="M250.48 99.6823V118.638C247.287 119.687 243.842 119.687 240.648 118.638V99.6823C240.648 100.159 242.851 100.547 245.564 100.547C248.282 100.547 250.48 100.159 250.48 99.6823ZM252.289 95.0416C252.32 94.8113 252.571 94.7058 252.753 94.6159C252.952 94.5281 253.157 94.4538 253.366 94.3934C253.784 94.2854 254.207 94.1999 254.634 94.1373C256.34 93.8985 258.071 93.8982 259.777 94.1364C260.204 94.1991 260.627 94.2846 261.045 94.3925C261.254 94.453 261.459 94.5275 261.658 94.6154C261.84 94.7053 262.092 94.8111 262.121 95.0415C262.047 94.8349 261.805 94.789 261.617 94.7239C261.415 94.6695 261.208 94.6287 261 94.6018C260.583 94.537 260.162 94.4931 259.741 94.4705C258.898 94.4181 258.052 94.3928 257.206 94.3947C256.36 94.3931 255.514 94.4182 254.67 94.47C254.248 94.4954 253.827 94.5344 253.411 94.6015C253.203 94.6285 252.997 94.6694 252.794 94.7238C252.606 94.7891 252.364 94.8349 252.289 95.0416ZM262.121 95.0415L262.121 113.998C258.928 115.046 255.483 115.046 252.289 113.998V95.0416C252.289 95.5179 254.492 95.9068 257.205 95.9068C259.923 95.9068 262.121 95.5178 262.121 95.0415Z" fill="white"></path> <path d="M264.744 130.258H259.5V214.566H264.744V130.258Z" fill="white"></path> <path d="M239.627 245.809C239.263 245.808 238.904 245.717 238.584 245.543C238.264 245.369 237.993 245.117 237.795 244.811C237.597 244.506 237.478 244.155 237.45 243.792C237.422 243.429 237.485 243.064 237.634 242.731C238.082 241.728 248.763 218.09 261.037 211.052C261.286 210.909 261.56 210.817 261.845 210.781C262.13 210.744 262.419 210.764 262.696 210.839C262.973 210.914 263.232 211.043 263.459 211.218C263.686 211.394 263.877 211.612 264.019 211.861C264.162 212.11 264.254 212.385 264.291 212.669C264.328 212.954 264.308 213.243 264.233 213.52C264.158 213.797 264.029 214.056 263.853 214.283C263.678 214.51 263.46 214.701 263.211 214.844C252.17 221.174 241.727 244.283 241.622 244.516C241.45 244.901 241.17 245.228 240.816 245.457C240.462 245.687 240.049 245.809 239.627 245.809Z" fill="white"></path> <path d="M246.553 259.81C246.413 259.81 246.273 259.796 246.135 259.77C245.853 259.715 245.585 259.606 245.346 259.447C245.106 259.289 244.9 259.085 244.74 258.848C244.579 258.61 244.467 258.343 244.409 258.062C244.352 257.781 244.351 257.491 244.405 257.209C244.679 255.794 251.212 222.417 260.372 210.135C260.719 209.672 261.236 209.365 261.809 209.282C262.381 209.199 262.964 209.347 263.428 209.693C263.892 210.039 264.199 210.555 264.283 211.128C264.367 211.7 264.22 212.283 263.875 212.748C255.306 224.236 248.761 257.702 248.695 258.039C248.599 258.537 248.333 258.986 247.942 259.309C247.551 259.632 247.06 259.809 246.553 259.81Z" fill="white"></path> <path d="M276.719 239.585C276.239 239.585 275.773 239.427 275.392 239.135C275.011 238.843 274.737 238.434 274.612 237.971C274.566 237.803 269.949 221.117 260.006 213.207C259.553 212.847 259.261 212.32 259.196 211.745C259.13 211.169 259.296 210.591 259.657 210.137C260.017 209.684 260.543 209.392 261.119 209.327C261.695 209.261 262.273 209.427 262.727 209.787C273.804 218.6 278.63 236.089 278.83 236.83C278.917 237.154 278.929 237.494 278.864 237.823C278.799 238.152 278.659 238.462 278.455 238.729C278.25 238.995 277.988 239.211 277.687 239.359C277.386 239.508 277.055 239.585 276.719 239.585Z" fill="white"></path> <path d="M270.019 260.197C269.455 260.197 268.912 259.978 268.506 259.587C268.099 259.196 267.86 258.663 267.837 258.099C267.823 257.756 266.398 223.679 259.664 211.036C259.529 210.783 259.445 210.505 259.417 210.219C259.389 209.934 259.417 209.645 259.501 209.37C259.584 209.096 259.721 208.84 259.904 208.618C260.086 208.397 260.31 208.213 260.564 208.078C260.817 207.943 261.095 207.859 261.381 207.832C261.666 207.804 261.955 207.833 262.229 207.917C262.504 208.001 262.759 208.138 262.981 208.321C263.203 208.503 263.386 208.728 263.521 208.981C270.723 222.504 272.146 256.486 272.203 257.926C272.215 258.213 272.17 258.499 272.07 258.768C271.971 259.037 271.82 259.284 271.625 259.495C271.431 259.706 271.196 259.876 270.936 259.996C270.675 260.116 270.393 260.184 270.107 260.195C270.077 260.197 270.048 260.197 270.019 260.197ZM367.188 110.735C368.64 110.735 368.643 108.478 367.188 108.478C365.736 108.478 365.734 110.735 367.188 110.735ZM370.464 120.276C371.916 120.276 371.918 118.019 370.464 118.019C369.012 118.019 369.009 120.276 370.464 120.276ZM373.648 130.277C375.1 130.277 375.102 128.02 373.648 128.02C372.196 128.02 372.193 130.277 373.648 130.277ZM359.212 96.3983C360.664 96.3983 360.666 94.1416 359.212 94.1416C357.759 94.1416 357.757 96.3983 359.212 96.3983ZM356.354 102.622C357.806 102.622 357.809 100.365 356.354 100.365C354.902 100.365 354.9 102.622 356.354 102.622ZM354.528 109.432C355.98 109.432 355.983 107.176 354.528 107.176C353.076 107.176 353.074 109.432 354.528 109.432ZM361.339 111.258C362.791 111.258 362.793 109.002 361.339 109.002C359.886 109.002 359.884 111.258 361.339 111.258ZM358.344 122.523C359.796 122.523 359.799 120.266 358.344 120.266C356.892 120.266 356.89 122.523 358.344 122.523ZM364.254 125.031C365.706 125.031 365.709 122.775 364.254 122.775C362.802 122.775 362.8 125.031 364.254 125.031ZM365.049 117.634C366.501 117.634 366.503 115.378 365.049 115.378C363.597 115.378 363.595 117.634 365.049 117.634ZM363.144 103.583C364.596 103.583 364.599 101.327 363.144 101.327C361.692 101.327 361.69 103.583 363.144 103.583ZM352.025 117.734C353.477 117.734 353.479 115.477 352.025 115.477C350.573 115.477 350.57 117.734 352.025 117.734ZM354.511 128.362C355.963 128.362 355.966 126.105 354.511 126.105C353.059 126.105 353.057 128.362 354.511 128.362ZM365.765 135.275C367.217 135.275 367.22 133.018 365.765 133.018C364.313 133.018 364.311 135.275 365.765 135.275ZM371.953 138.795C373.405 138.795 373.408 136.538 371.953 136.538C370.501 136.538 370.499 138.795 371.953 138.795ZM347.327 123.593C348.779 123.593 348.781 121.337 347.327 121.337C345.875 121.337 345.873 123.593 347.327 123.593ZM350.965 94.0969C352.417 94.0969 352.42 91.8403 350.965 91.8403C349.513 91.8403 349.511 94.0969 350.965 94.0969ZM347.481 99.6228C348.933 99.6228 348.936 97.3661 347.481 97.3661C346.029 97.3661 346.027 99.6228 347.481 99.6228ZM344.993 106.398C346.445 106.398 346.447 104.141 344.993 104.141C343.541 104.141 343.538 106.398 344.993 106.398ZM342.747 114.846C344.199 114.846 344.202 112.589 342.747 112.589C341.295 112.589 341.293 114.846 342.747 114.846ZM327.139 117.634C328.591 117.634 328.594 115.378 327.139 115.378C325.687 115.378 325.685 117.634 327.139 117.634ZM339.586 125.504C341.038 125.504 341.04 123.247 339.586 123.247C338.134 123.247 338.132 125.504 339.586 125.504ZM345.319 131.324C346.771 131.324 346.773 129.067 345.319 129.067C343.867 129.067 343.864 131.324 345.319 131.324ZM362.159 144.315C363.611 144.315 363.614 142.058 362.159 142.058C360.707 142.058 360.705 144.315 362.159 144.315ZM348.83 111.651C350.282 111.651 350.284 109.395 348.83 109.395C347.378 109.395 347.375 111.651 348.83 111.651ZM335.491 120.104C336.943 120.104 336.946 117.847 335.491 117.847C334.039 117.847 334.037 120.104 335.491 120.104ZM346.286 150.262C347.738 150.262 347.741 148.006 346.286 148.006C344.834 148.006 344.832 150.262 346.286 150.262ZM337.034 109.89C338.486 109.89 338.489 107.634 337.034 107.634C335.582 107.634 335.58 109.89 337.034 109.89ZM340.216 100.097C341.668 100.097 341.67 97.8406 340.216 97.8406C338.764 97.8406 338.761 100.097 340.216 100.097ZM331.888 103.039C333.34 103.039 333.342 100.782 331.888 100.782C330.436 100.782 330.434 103.039 331.888 103.039ZM328.702 110.441C330.154 110.441 330.156 108.184 328.702 108.184C327.25 108.184 327.247 110.441 328.702 110.441ZM341.081 137.274C342.533 137.274 342.536 135.018 341.081 135.018C339.629 135.018 339.627 137.274 341.081 137.274ZM347.441 143.792C348.893 143.792 348.896 141.536 347.441 141.536C345.989 141.536 345.987 143.792 347.441 143.792ZM354.528 147.196C355.98 147.196 355.983 144.939 354.528 144.939C353.076 144.939 353.074 147.196 354.528 147.196ZM357.887 138.795C359.339 138.795 359.342 136.538 357.887 136.538C356.435 136.538 356.433 138.795 357.887 138.795ZM350.965 136.435C352.417 136.435 352.42 134.178 350.965 134.178C349.513 134.178 349.511 136.435 350.965 136.435ZM356.311 88.5305C357.763 88.5305 357.766 86.2739 356.311 86.2739C354.859 86.2739 354.857 88.5305 356.311 88.5305ZM346.918 83.2848C348.37 83.2848 348.372 81.0282 346.918 81.0282C345.466 81.0282 345.464 83.2848 346.918 83.2848ZM351.468 86.3847C352.92 86.3847 352.923 84.128 351.468 84.128C350.016 84.128 350.014 86.3847 351.468 86.3847ZM327.982 89.5776C329.434 89.5776 329.437 87.321 327.982 87.321C326.53 87.321 326.528 89.5776 327.982 89.5776ZM333.897 94.4775C335.35 94.4775 335.352 92.2209 333.897 92.2209C332.445 92.2209 332.443 94.4775 333.897 94.4775ZM371.236 147.196C372.689 147.196 372.691 144.939 371.236 144.939C369.784 144.939 369.782 147.196 371.236 147.196ZM370.246 154.097C371.698 154.097 371.701 151.841 370.246 151.841C368.794 151.841 368.792 154.097 370.246 154.097ZM352.064 156.289C353.516 156.289 353.519 154.032 352.064 154.032C350.612 154.032 350.61 156.289 352.064 156.289ZM361.339 153.262C362.791 153.262 362.793 151.005 361.339 151.005C359.886 151.005 359.884 153.262 361.339 153.262ZM376.538 149.933C377.99 149.933 377.992 147.677 376.538 147.677C375.086 147.677 375.083 149.933 376.538 149.933ZM317.86 79.7039C319.312 79.7039 319.314 77.4473 317.86 77.4473C316.408 77.4473 316.406 79.7039 317.86 79.7039ZM321.384 84.6086C322.836 84.6086 322.838 82.352 321.384 82.352C319.931 82.352 319.929 84.6086 321.384 84.6086ZM323.061 95.4591C324.513 95.4591 324.515 93.2024 323.061 93.2024C321.609 93.2024 321.607 95.4591 323.061 95.4591ZM315.882 93.082C317.334 93.082 317.336 90.8253 315.882 90.8253C314.43 90.8253 314.427 93.082 315.882 93.082ZM312.464 86.1902C313.917 86.1902 313.919 83.9336 312.464 83.9336C311.012 83.9336 311.01 86.1902 312.464 86.1902ZM306.482 93.7079C307.934 93.7079 307.937 91.4513 306.482 91.4513C305.03 91.4513 305.028 93.7079 306.482 93.7079ZM301.714 100.892C303.166 100.892 303.168 98.6354 301.714 98.6354C300.262 98.6354 300.259 100.892 301.714 100.892ZM311.391 101.277C312.843 101.277 312.845 99.0207 311.391 99.0207C309.939 99.0207 309.937 101.277 311.391 101.277ZM321.744 103.583C323.196 103.583 323.198 101.327 321.744 101.327C320.292 101.327 320.289 103.583 321.744 103.583ZM317.732 112.501C319.184 112.501 319.187 110.245 317.732 110.245C316.28 110.245 316.278 112.501 317.732 112.501ZM311.517 108.856C312.969 108.856 312.971 106.6 311.517 106.6C310.065 106.6 310.062 108.856 311.517 108.856ZM302.983 107.733C304.435 107.733 304.438 105.476 302.983 105.476C301.531 105.476 301.529 107.733 302.983 107.733ZM325.024 125.031C326.476 125.031 326.479 122.775 325.024 122.775C323.572 122.775 323.57 125.031 325.024 125.031ZM331.203 128.243C332.655 128.243 332.657 125.987 331.203 125.987C329.751 125.987 329.748 128.243 331.203 128.243ZM330.514 142.355C331.966 142.355 331.968 140.098 330.514 140.098C329.062 140.098 329.059 142.355 330.514 142.355ZM335.151 133.901C336.603 133.901 336.605 131.645 335.151 131.645C333.699 131.645 333.696 133.901 335.151 133.901ZM338.997 143.938C340.45 143.938 340.452 141.681 338.997 141.681C337.545 141.681 337.543 143.938 338.997 143.938ZM331.817 150.262C333.269 150.262 333.272 148.006 331.817 148.006C330.365 148.006 330.363 150.262 331.817 150.262ZM340.69 153.262C342.142 153.262 342.145 151.005 340.69 151.005C339.238 151.005 339.236 153.262 340.69 153.262Z" fill="white"></path> <path d="M283.344 238.36C283.323 238.355 283.297 238.355 283.275 238.349L283.307 238.058V238.052C283.318 238.01 283.328 237.962 283.339 237.92C283.344 238.068 283.344 238.211 283.344 238.36Z" fill="white"></path> <path d="M277.043 247.512L277.037 247.538V247.512H277.043Z" fill="white"></path> </svg> 