<?xml version="1.0" encoding="UTF-8"?> <svg xmlns="http://www.w3.org/2000/svg" width="600" height="400" viewBox="0 0 600 400" fill="none"> <rect width="600" height="400" rx="20" fill="#2724A4"></rect> <path d="M107.74 322V306.16H114.285C114.439 306.16 114.637 306.167 114.879 306.182C115.121 306.189 115.345 306.211 115.55 306.248C116.467 306.387 117.222 306.692 117.816 307.161C118.418 307.63 118.861 308.224 119.147 308.943C119.441 309.654 119.587 310.446 119.587 311.319C119.587 312.184 119.441 312.976 119.147 313.695C118.854 314.406 118.407 314.997 117.805 315.466C117.211 315.935 116.46 316.24 115.55 316.379C115.345 316.408 115.118 316.43 114.868 316.445C114.626 316.46 114.432 316.467 114.285 316.467H110.391V322H107.74ZM110.391 313.992H114.175C114.322 313.992 114.487 313.985 114.67 313.97C114.854 313.955 115.022 313.926 115.176 313.882C115.616 313.772 115.961 313.578 116.21 313.299C116.467 313.02 116.647 312.705 116.749 312.353C116.859 312.001 116.914 311.656 116.914 311.319C116.914 310.982 116.859 310.637 116.749 310.285C116.647 309.926 116.467 309.607 116.21 309.328C115.961 309.049 115.616 308.855 115.176 308.745C115.022 308.701 114.854 308.675 114.67 308.668C114.487 308.653 114.322 308.646 114.175 308.646H110.391V313.992ZM121.791 322V306.16H132.021V308.646H124.442V312.551H130.701V315.037H124.442V319.514H132.021V322H121.791ZM140.693 322.33C139.109 322.33 137.752 321.985 136.623 321.296C135.494 320.599 134.625 319.631 134.016 318.392C133.415 317.153 133.114 315.715 133.114 314.08C133.114 312.445 133.415 311.007 134.016 309.768C134.625 308.529 135.494 307.564 136.623 306.875C137.752 306.178 139.109 305.83 140.693 305.83C142.277 305.83 143.634 306.178 144.763 306.875C145.9 307.564 146.769 308.529 147.37 309.768C147.979 311.007 148.283 312.445 148.283 314.08C148.283 315.715 147.979 317.153 147.37 318.392C146.769 319.631 145.9 320.599 144.763 321.296C143.634 321.985 142.277 322.33 140.693 322.33ZM140.693 319.833C141.756 319.84 142.64 319.606 143.344 319.129C144.055 318.652 144.587 317.981 144.939 317.116C145.298 316.251 145.478 315.239 145.478 314.08C145.478 312.921 145.298 311.917 144.939 311.066C144.587 310.208 144.055 309.541 143.344 309.064C142.64 308.587 141.756 308.342 140.693 308.327C139.63 308.32 138.746 308.554 138.042 309.031C137.338 309.508 136.806 310.179 136.447 311.044C136.095 311.909 135.919 312.921 135.919 314.08C135.919 315.239 136.095 316.247 136.447 317.105C136.799 317.956 137.327 318.619 138.031 319.096C138.742 319.573 139.63 319.818 140.693 319.833ZM150.473 322V306.16H157.018C157.172 306.16 157.37 306.167 157.612 306.182C157.854 306.189 158.077 306.211 158.283 306.248C159.199 306.387 159.955 306.692 160.549 307.161C161.15 307.63 161.594 308.224 161.88 308.943C162.173 309.654 162.32 310.446 162.32 311.319C162.32 312.184 162.173 312.976 161.88 313.695C161.586 314.406 161.139 314.997 160.538 315.466C159.944 315.935 159.192 316.24 158.283 316.379C158.077 316.408 157.85 316.43 157.601 316.445C157.359 316.46 157.164 316.467 157.018 316.467H153.124V322H150.473ZM153.124 313.992H156.908C157.054 313.992 157.219 313.985 157.403 313.97C157.586 313.955 157.755 313.926 157.909 313.882C158.349 313.772 158.693 313.578 158.943 313.299C159.199 313.02 159.379 312.705 159.482 312.353C159.592 312.001 159.647 311.656 159.647 311.319C159.647 310.982 159.592 310.637 159.482 310.285C159.379 309.926 159.199 309.607 158.943 309.328C158.693 309.049 158.349 308.855 157.909 308.745C157.755 308.701 157.586 308.675 157.403 308.668C157.219 308.653 157.054 308.646 156.908 308.646H153.124V313.992ZM164.743 322V306.16H167.394V319.514H174.39V322H164.743ZM176.254 322V306.16H186.484V308.646H178.905V312.551H185.164V315.037H178.905V319.514H186.484V322H176.254ZM197.333 322V308.646H192.207V306.16H205.11V308.646H199.984V322H197.333ZM206.869 322V306.16H209.52V312.826H217.022V306.16H219.662V322H217.022V315.312H209.52V322H206.869ZM222.746 322V306.16H232.976V308.646H225.397V312.551H231.656V315.037H225.397V319.514H232.976V322H222.746ZM235.615 322V306.16H238.002L243.48 317.38L248.958 306.16H251.345V322H248.87V311.847L244.008 322H242.952L238.101 311.847V322H235.615ZM260.299 322.33C259.14 322.33 258.095 322.128 257.164 321.725C256.24 321.322 255.477 320.746 254.876 319.998C254.282 319.243 253.904 318.348 253.743 317.314L256.493 316.896C256.727 317.835 257.208 318.561 257.934 319.074C258.667 319.587 259.51 319.844 260.464 319.844C261.028 319.844 261.56 319.756 262.059 319.58C262.557 319.404 262.961 319.147 263.269 318.81C263.584 318.473 263.742 318.058 263.742 317.567C263.742 317.347 263.705 317.145 263.632 316.962C263.558 316.771 263.448 316.603 263.302 316.456C263.162 316.309 262.979 316.177 262.752 316.06C262.532 315.935 262.275 315.829 261.982 315.741L257.89 314.531C257.538 314.428 257.156 314.293 256.746 314.124C256.342 313.948 255.957 313.71 255.591 313.409C255.231 313.101 254.934 312.712 254.7 312.243C254.472 311.766 254.359 311.18 254.359 310.483C254.359 309.464 254.615 308.609 255.129 307.92C255.649 307.223 256.346 306.703 257.219 306.358C258.099 306.013 259.074 305.845 260.145 305.852C261.23 305.859 262.198 306.046 263.049 306.413C263.899 306.772 264.611 307.297 265.183 307.986C265.755 308.675 266.158 309.508 266.393 310.483L263.544 310.978C263.426 310.421 263.199 309.948 262.862 309.559C262.532 309.163 262.125 308.862 261.641 308.657C261.164 308.452 260.654 308.342 260.112 308.327C259.584 308.32 259.092 308.4 258.638 308.569C258.19 308.73 257.827 308.965 257.549 309.273C257.277 309.581 257.142 309.94 257.142 310.351C257.142 310.74 257.259 311.059 257.494 311.308C257.728 311.55 258.018 311.744 258.363 311.891C258.715 312.03 259.07 312.148 259.43 312.243L262.268 313.035C262.656 313.138 263.093 313.277 263.577 313.453C264.061 313.629 264.526 313.875 264.974 314.19C265.421 314.505 265.788 314.92 266.074 315.433C266.367 315.946 266.514 316.599 266.514 317.391C266.514 318.212 266.341 318.935 265.997 319.558C265.659 320.174 265.201 320.687 264.622 321.098C264.042 321.509 263.379 321.817 262.631 322.022C261.89 322.227 261.113 322.33 260.299 322.33ZM268.894 322V306.16H279.124V308.646H271.545V312.551H277.804V315.037H271.545V319.514H279.124V322H268.894ZM281.984 322V306.16H284.635V319.514H291.631V322H281.984ZM295.296 322L290.302 306.16H293.03L297.21 319.426L301.445 306.16H304.173L299.179 322H295.296ZM305.826 322V306.16H316.056V308.646H308.477V312.551H314.736V315.037H308.477V319.514H316.056V322H305.826ZM324.408 322.33C323.249 322.33 322.204 322.128 321.273 321.725C320.349 321.322 319.586 320.746 318.985 319.998C318.391 319.243 318.013 318.348 317.852 317.314L320.602 316.896C320.837 317.835 321.317 318.561 322.043 319.074C322.776 319.587 323.62 319.844 324.573 319.844C325.138 319.844 325.669 319.756 326.168 319.58C326.667 319.404 327.07 319.147 327.378 318.81C327.693 318.473 327.851 318.058 327.851 317.567C327.851 317.347 327.814 317.145 327.741 316.962C327.668 316.771 327.558 316.603 327.411 316.456C327.272 316.309 327.088 316.177 326.861 316.06C326.641 315.935 326.384 315.829 326.091 315.741L321.999 314.531C321.647 314.428 321.266 314.293 320.855 314.124C320.452 313.948 320.067 313.71 319.7 313.409C319.341 313.101 319.044 312.712 318.809 312.243C318.582 311.766 318.468 311.18 318.468 310.483C318.468 309.464 318.725 308.609 319.238 307.92C319.759 307.223 320.455 306.703 321.328 306.358C322.208 306.013 323.183 305.845 324.254 305.852C325.339 305.859 326.307 306.046 327.158 306.413C328.009 306.772 328.72 307.297 329.292 307.986C329.864 308.675 330.267 309.508 330.502 310.483L327.653 310.978C327.536 310.421 327.308 309.948 326.971 309.559C326.641 309.163 326.234 308.862 325.75 308.657C325.273 308.452 324.764 308.342 324.221 308.327C323.693 308.32 323.202 308.4 322.747 308.569C322.3 308.73 321.937 308.965 321.658 309.273C321.387 309.581 321.251 309.94 321.251 310.351C321.251 310.74 321.368 311.059 321.603 311.308C321.838 311.55 322.127 311.744 322.472 311.891C322.824 312.03 323.18 312.148 323.539 312.243L326.377 313.035C326.766 313.138 327.202 313.277 327.686 313.453C328.17 313.629 328.636 313.875 329.083 314.19C329.53 314.505 329.897 314.92 330.183 315.433C330.476 315.946 330.623 316.599 330.623 317.391C330.623 318.212 330.451 318.935 330.106 319.558C329.769 320.174 329.31 320.687 328.731 321.098C328.152 321.509 327.488 321.817 326.74 322.022C325.999 322.227 325.222 322.33 324.408 322.33ZM337.408 322V306.16H339.795L345.273 317.38L350.751 306.16H353.138V322H350.663V311.847L345.801 322H344.745L339.894 311.847V322H337.408ZM362.608 322.33C361.347 322.33 360.236 322.073 359.275 321.56C358.322 321.047 357.574 320.324 357.031 319.393C356.496 318.462 356.228 317.369 356.228 316.115V306.182L358.912 306.16V316.049C358.912 316.643 359.011 317.175 359.209 317.644C359.415 318.113 359.69 318.513 360.034 318.843C360.379 319.166 360.775 319.411 361.222 319.58C361.67 319.749 362.132 319.833 362.608 319.833C363.1 319.833 363.565 319.749 364.005 319.58C364.453 319.404 364.849 319.155 365.193 318.832C365.538 318.502 365.809 318.102 366.007 317.633C366.205 317.164 366.304 316.636 366.304 316.049V306.16H368.988V316.115C368.988 317.369 368.717 318.462 368.174 319.393C367.639 320.324 366.891 321.047 365.93 321.56C364.977 322.073 363.87 322.33 362.608 322.33ZM377.259 322.33C376.101 322.33 375.056 322.128 374.124 321.725C373.2 321.322 372.438 320.746 371.836 319.998C371.242 319.243 370.865 318.348 370.703 317.314L373.453 316.896C373.688 317.835 374.168 318.561 374.894 319.074C375.628 319.587 376.471 319.844 377.424 319.844C377.989 319.844 378.521 319.756 379.019 319.58C379.518 319.404 379.921 319.147 380.229 318.81C380.545 318.473 380.702 318.058 380.702 317.567C380.702 317.347 380.666 317.145 380.592 316.962C380.519 316.771 380.409 316.603 380.262 316.456C380.123 316.309 379.94 316.177 379.712 316.06C379.492 315.935 379.236 315.829 378.942 315.741L374.85 314.531C374.498 314.428 374.117 314.293 373.706 314.124C373.303 313.948 372.918 313.71 372.551 313.409C372.192 313.101 371.895 312.712 371.66 312.243C371.433 311.766 371.319 311.18 371.319 310.483C371.319 309.464 371.576 308.609 372.089 307.92C372.61 307.223 373.307 306.703 374.179 306.358C375.059 306.013 376.035 305.845 377.105 305.852C378.191 305.859 379.159 306.046 380.009 306.413C380.86 306.772 381.571 307.297 382.143 307.986C382.715 308.675 383.119 309.508 383.353 310.483L380.504 310.978C380.387 310.421 380.16 309.948 379.822 309.559C379.492 309.163 379.085 308.862 378.601 308.657C378.125 308.452 377.615 308.342 377.072 308.327C376.544 308.32 376.053 308.4 375.598 308.569C375.151 308.73 374.788 308.965 374.509 309.273C374.238 309.581 374.102 309.94 374.102 310.351C374.102 310.74 374.22 311.059 374.454 311.308C374.689 311.55 374.979 311.744 375.323 311.891C375.675 312.03 376.031 312.148 376.39 312.243L379.228 313.035C379.617 313.138 380.053 313.277 380.537 313.453C381.021 313.629 381.487 313.875 381.934 314.19C382.382 314.505 382.748 314.92 383.034 315.433C383.328 315.946 383.474 316.599 383.474 317.391C383.474 318.212 383.302 318.935 382.957 319.558C382.62 320.174 382.162 320.687 381.582 321.098C381.003 321.509 380.339 321.817 379.591 322.022C378.851 322.227 378.073 322.33 377.259 322.33ZM389.661 322V308.646H384.535V306.16H397.438V308.646H392.312V322H389.661ZM409.635 322.33C408.051 322.33 406.694 321.985 405.565 321.296C404.435 320.599 403.566 319.631 402.958 318.392C402.356 317.153 402.056 315.715 402.056 314.08C402.056 312.445 402.356 311.007 402.958 309.768C403.566 308.529 404.435 307.564 405.565 306.875C406.694 306.178 408.051 305.83 409.635 305.83C411.461 305.83 412.982 306.288 414.2 307.205C415.417 308.114 416.271 309.343 416.763 310.89L414.09 311.627C413.782 310.593 413.257 309.786 412.517 309.207C411.776 308.62 410.815 308.327 409.635 308.327C408.571 308.327 407.684 308.565 406.973 309.042C406.269 309.519 405.737 310.19 405.378 311.055C405.026 311.913 404.846 312.921 404.839 314.08C404.839 315.239 405.015 316.251 405.367 317.116C405.726 317.974 406.261 318.641 406.973 319.118C407.684 319.595 408.571 319.833 409.635 319.833C410.815 319.833 411.776 319.54 412.517 318.953C413.257 318.366 413.782 317.56 414.09 316.533L416.763 317.27C416.271 318.817 415.417 320.049 414.2 320.966C412.982 321.875 411.461 322.33 409.635 322.33ZM419.178 322V306.16H421.829V312.826H429.331V306.16H431.971V322H429.331V315.312H421.829V322H419.178ZM441.754 322.33C440.17 322.33 438.813 321.985 437.684 321.296C436.554 320.599 435.685 319.631 435.077 318.392C434.475 317.153 434.175 315.715 434.175 314.08C434.175 312.445 434.475 311.007 435.077 309.768C435.685 308.529 436.554 307.564 437.684 306.875C438.813 306.178 440.17 305.83 441.754 305.83C443.338 305.83 444.694 306.178 445.824 306.875C446.96 307.564 447.829 308.529 448.431 309.768C449.039 311.007 449.344 312.445 449.344 314.08C449.344 315.715 449.039 317.153 448.431 318.392C447.829 319.631 446.96 320.599 445.824 321.296C444.694 321.985 443.338 322.33 441.754 322.33ZM441.754 319.833C442.817 319.84 443.701 319.606 444.405 319.129C445.116 318.652 445.648 317.981 446 317.116C446.359 316.251 446.539 315.239 446.539 314.08C446.539 312.921 446.359 311.917 446 311.066C445.648 310.208 445.116 309.541 444.405 309.064C443.701 308.587 442.817 308.342 441.754 308.327C440.69 308.32 439.807 308.554 439.103 309.031C438.399 309.508 437.867 310.179 437.508 311.044C437.156 311.909 436.98 312.921 436.98 314.08C436.98 315.239 437.156 316.247 437.508 317.105C437.86 317.956 438.388 318.619 439.092 319.096C439.803 319.573 440.69 319.818 441.754 319.833ZM458.232 322.33C456.648 322.33 455.291 321.985 454.162 321.296C453.033 320.599 452.164 319.631 451.555 318.392C450.954 317.153 450.653 315.715 450.653 314.08C450.653 312.445 450.954 311.007 451.555 309.768C452.164 308.529 453.033 307.564 454.162 306.875C455.291 306.178 456.648 305.83 458.232 305.83C459.816 305.83 461.173 306.178 462.302 306.875C463.439 307.564 464.308 308.529 464.909 309.768C465.518 311.007 465.822 312.445 465.822 314.08C465.822 315.715 465.518 317.153 464.909 318.392C464.308 319.631 463.439 320.599 462.302 321.296C461.173 321.985 459.816 322.33 458.232 322.33ZM458.232 319.833C459.295 319.84 460.179 319.606 460.883 319.129C461.594 318.652 462.126 317.981 462.478 317.116C462.837 316.251 463.017 315.239 463.017 314.08C463.017 312.921 462.837 311.917 462.478 311.066C462.126 310.208 461.594 309.541 460.883 309.064C460.179 308.587 459.295 308.342 458.232 308.327C457.169 308.32 456.285 308.554 455.581 309.031C454.877 309.508 454.345 310.179 453.986 311.044C453.634 311.909 453.458 312.921 453.458 314.08C453.458 315.239 453.634 316.247 453.986 317.105C454.338 317.956 454.866 318.619 455.57 319.096C456.281 319.573 457.169 319.818 458.232 319.833ZM473.875 322.33C472.716 322.33 471.671 322.128 470.74 321.725C469.816 321.322 469.053 320.746 468.452 319.998C467.858 319.243 467.48 318.348 467.319 317.314L470.069 316.896C470.303 317.835 470.784 318.561 471.51 319.074C472.243 319.587 473.086 319.844 474.04 319.844C474.604 319.844 475.136 319.756 475.635 319.58C476.133 319.404 476.537 319.147 476.845 318.81C477.16 318.473 477.318 318.058 477.318 317.567C477.318 317.347 477.281 317.145 477.208 316.962C477.134 316.771 477.024 316.603 476.878 316.456C476.738 316.309 476.555 316.177 476.328 316.06C476.108 315.935 475.851 315.829 475.558 315.741L471.466 314.531C471.114 314.428 470.732 314.293 470.322 314.124C469.918 313.948 469.533 313.71 469.167 313.409C468.807 313.101 468.51 312.712 468.276 312.243C468.048 311.766 467.935 311.18 467.935 310.483C467.935 309.464 468.191 308.609 468.705 307.92C469.225 307.223 469.922 306.703 470.795 306.358C471.675 306.013 472.65 305.845 473.721 305.852C474.806 305.859 475.774 306.046 476.625 306.413C477.475 306.772 478.187 307.297 478.759 307.986C479.331 308.675 479.734 309.508 479.969 310.483L477.12 310.978C477.002 310.421 476.775 309.948 476.438 309.559C476.108 309.163 475.701 308.862 475.217 308.657C474.74 308.452 474.23 308.342 473.688 308.327C473.16 308.32 472.668 308.4 472.214 308.569C471.766 308.73 471.403 308.965 471.125 309.273C470.853 309.581 470.718 309.94 470.718 310.351C470.718 310.74 470.835 311.059 471.07 311.308C471.304 311.55 471.594 311.744 471.939 311.891C472.291 312.03 472.646 312.148 473.006 312.243L475.844 313.035C476.232 313.138 476.669 313.277 477.153 313.453C477.637 313.629 478.102 313.875 478.55 314.19C478.997 314.505 479.364 314.92 479.65 315.433C479.943 315.946 480.09 316.599 480.09 317.391C480.09 318.212 479.917 318.935 479.573 319.558C479.235 320.174 478.777 320.687 478.198 321.098C477.618 321.509 476.955 321.817 476.207 322.022C475.466 322.227 474.689 322.33 473.875 322.33ZM482.471 322V306.16H492.701V308.646H485.122V312.551H491.381V315.037H485.122V319.514H492.701V322H482.471ZM177.159 353L172.528 337.16H175.311L178.468 348.6L181.614 337.182L184.397 337.16L187.554 348.6L190.7 337.16H193.483L188.863 353H186.245L183 341.736L179.777 353H177.159ZM195.278 353V337.16H197.929V343.826H205.431V337.16H208.071V353H205.431V346.312H197.929V353H195.278ZM211.155 353V337.16H221.385V339.646H213.806V343.551H220.065V346.037H213.806V350.514H221.385V353H211.155ZM224.024 353V337.16H230.569C230.723 337.16 230.921 337.167 231.163 337.182C231.405 337.189 231.629 337.211 231.834 337.248C232.751 337.387 233.506 337.692 234.1 338.161C234.702 338.63 235.145 339.224 235.431 339.943C235.725 340.654 235.871 341.446 235.871 342.319C235.871 343.61 235.545 344.721 234.892 345.652C234.24 346.576 233.239 347.148 231.889 347.368L230.756 347.467H226.675V353H224.024ZM233.121 353L229.997 346.554L232.692 345.96L236.124 353H233.121ZM226.675 344.992H230.459C230.606 344.992 230.771 344.985 230.954 344.97C231.138 344.955 231.306 344.926 231.46 344.882C231.9 344.772 232.245 344.578 232.494 344.299C232.751 344.02 232.931 343.705 233.033 343.353C233.143 343.001 233.198 342.656 233.198 342.319C233.198 341.982 233.143 341.637 233.033 341.285C232.931 340.926 232.751 340.607 232.494 340.328C232.245 340.049 231.9 339.855 231.46 339.745C231.306 339.701 231.138 339.675 230.954 339.668C230.771 339.653 230.606 339.646 230.459 339.646H226.675V344.992ZM238.548 353V337.16H248.778V339.646H241.199V343.551H247.458V346.037H241.199V350.514H248.778V353H238.548ZM259.627 353V339.646H254.501V337.16H267.404V339.646H262.278V353H259.627ZM269.163 353V337.16H271.814V343.826H279.316V337.16H281.956V353H279.316V346.312H271.814V353H269.163ZM285.04 353V337.16H295.27V339.646H287.691V343.551H293.95V346.037H287.691V350.514H295.27V353H285.04ZM298.129 353V337.16H300.78V353H298.129ZM304.075 353V337.16H310.62C310.774 337.16 310.972 337.167 311.214 337.182C311.456 337.189 311.68 337.211 311.885 337.248C312.802 337.387 313.557 337.692 314.151 338.161C314.752 338.63 315.196 339.224 315.482 339.943C315.775 340.654 315.922 341.446 315.922 342.319C315.922 343.61 315.596 344.721 314.943 345.652C314.29 346.576 313.289 347.148 311.94 347.368L310.807 347.467H306.726V353H304.075ZM313.172 353L310.048 346.554L312.743 345.96L316.175 353H313.172ZM306.726 344.992H310.51C310.657 344.992 310.822 344.985 311.005 344.97C311.188 344.955 311.357 344.926 311.511 344.882C311.951 344.772 312.296 344.578 312.545 344.299C312.802 344.02 312.981 343.705 313.084 343.353C313.194 343.001 313.249 342.656 313.249 342.319C313.249 341.982 313.194 341.637 313.084 341.285C312.981 340.926 312.802 340.607 312.545 340.328C312.296 340.049 311.951 339.855 311.511 339.745C311.357 339.701 311.188 339.675 311.005 339.668C310.822 339.653 310.657 339.646 310.51 339.646H306.726V344.992ZM326.809 353V339.646H321.683V337.16H334.586V339.646H329.46V353H326.809ZM334.815 353L339.809 337.16H343.692L348.686 353H345.958L341.426 338.788H342.02L337.543 353H334.815ZM337.598 349.568V347.093H345.914V349.568H337.598ZM349.355 353L354.723 344.992L349.509 337.16H352.754L356.362 342.737L359.937 337.16H363.204L357.99 344.992L363.336 353H360.091L356.362 347.247L352.622 353H349.355ZM365.091 353V337.16H375.321V339.646H367.742V343.551H374.001V346.037H367.742V350.514H375.321V353H365.091ZM383.673 353.33C382.514 353.33 381.469 353.128 380.538 352.725C379.614 352.322 378.851 351.746 378.25 350.998C377.656 350.243 377.278 349.348 377.117 348.314L379.867 347.896C380.101 348.835 380.582 349.561 381.308 350.074C382.041 350.587 382.884 350.844 383.838 350.844C384.402 350.844 384.934 350.756 385.433 350.58C385.931 350.404 386.335 350.147 386.643 349.81C386.958 349.473 387.116 349.058 387.116 348.567C387.116 348.347 387.079 348.145 387.006 347.962C386.932 347.771 386.822 347.603 386.676 347.456C386.536 347.309 386.353 347.177 386.126 347.06C385.906 346.935 385.649 346.829 385.356 346.741L381.264 345.531C380.912 345.428 380.53 345.293 380.12 345.124C379.716 344.948 379.331 344.71 378.965 344.409C378.605 344.101 378.308 343.712 378.074 343.243C377.846 342.766 377.733 342.18 377.733 341.483C377.733 340.464 377.989 339.609 378.503 338.92C379.023 338.223 379.72 337.703 380.593 337.358C381.473 337.013 382.448 336.845 383.519 336.852C384.604 336.859 385.572 337.046 386.423 337.413C387.273 337.772 387.985 338.297 388.557 338.986C389.129 339.675 389.532 340.508 389.767 341.483L386.918 341.978C386.8 341.421 386.573 340.948 386.236 340.559C385.906 340.163 385.499 339.862 385.015 339.657C384.538 339.452 384.028 339.342 383.486 339.327C382.958 339.32 382.466 339.4 382.012 339.569C381.564 339.73 381.201 339.965 380.923 340.273C380.651 340.581 380.516 340.94 380.516 341.351C380.516 341.74 380.633 342.059 380.868 342.308C381.102 342.55 381.392 342.744 381.737 342.891C382.089 343.03 382.444 343.148 382.804 343.243L385.642 344.035C386.03 344.138 386.467 344.277 386.951 344.453C387.435 344.629 387.9 344.875 388.348 345.19C388.795 345.505 389.162 345.92 389.448 346.433C389.741 346.946 389.888 347.599 389.888 348.391C389.888 349.212 389.715 349.935 389.371 350.558C389.033 351.174 388.575 351.687 387.996 352.098C387.416 352.509 386.753 352.817 386.005 353.022C385.264 353.227 384.487 353.33 383.673 353.33ZM403.207 353.33C402.18 353.33 401.216 353.15 400.314 352.791C399.419 352.424 398.631 351.889 397.949 351.185C397.274 350.481 396.746 349.619 396.365 348.6C395.983 347.573 395.793 346.4 395.793 345.08C395.793 343.349 396.115 341.872 396.761 340.647C397.406 339.415 398.29 338.473 399.412 337.82C400.534 337.16 401.799 336.83 403.207 336.83C405.157 336.83 406.701 337.285 407.838 338.194C408.982 339.096 409.755 340.365 410.159 342L407.453 342.429C407.152 341.49 406.661 340.742 405.979 340.185C405.297 339.62 404.428 339.338 403.372 339.338C402.308 339.323 401.425 339.554 400.721 340.031C400.017 340.508 399.485 341.179 399.126 342.044C398.774 342.909 398.598 343.921 398.598 345.08C398.598 346.239 398.774 347.247 399.126 348.105C399.478 348.956 400.006 349.619 400.71 350.096C401.421 350.573 402.308 350.818 403.372 350.833C404.171 350.84 404.871 350.697 405.473 350.404C406.074 350.103 406.565 349.652 406.947 349.051C407.328 348.442 407.585 347.683 407.717 346.774H404.923V344.695H410.533C410.547 344.812 410.558 344.985 410.566 345.212C410.573 345.439 410.577 345.575 410.577 345.619C410.577 347.115 410.28 348.446 409.686 349.612C409.099 350.771 408.256 351.68 407.156 352.34C406.056 353 404.739 353.33 403.207 353.33ZM419.485 353.33C417.901 353.33 416.544 352.985 415.415 352.296C414.286 351.599 413.417 350.631 412.808 349.392C412.207 348.153 411.906 346.715 411.906 345.08C411.906 343.445 412.207 342.007 412.808 340.768C413.417 339.529 414.286 338.564 415.415 337.875C416.544 337.178 417.901 336.83 419.485 336.83C421.069 336.83 422.426 337.178 423.555 337.875C424.692 338.564 425.561 339.529 426.162 340.768C426.771 342.007 427.075 343.445 427.075 345.08C427.075 346.715 426.771 348.153 426.162 349.392C425.561 350.631 424.692 351.599 423.555 352.296C422.426 352.985 421.069 353.33 419.485 353.33ZM419.485 350.833C420.548 350.84 421.432 350.606 422.136 350.129C422.847 349.652 423.379 348.981 423.731 348.116C424.09 347.251 424.27 346.239 424.27 345.08C424.27 343.921 424.09 342.917 423.731 342.066C423.379 341.208 422.847 340.541 422.136 340.064C421.432 339.587 420.548 339.342 419.485 339.327C418.422 339.32 417.538 339.554 416.834 340.031C416.13 340.508 415.598 341.179 415.239 342.044C414.887 342.909 414.711 343.921 414.711 345.08C414.711 346.239 414.887 347.247 415.239 348.105C415.591 348.956 416.119 349.619 416.823 350.096C417.534 350.573 418.422 350.818 419.485 350.833Z" fill="white"></path> <path d="M247.495 66.2195C253.616 66.397 264.053 67.9699 264.92 76.5526C261.795 79.2486 258.043 81.1144 254.007 81.9779C254.007 81.9779 249.63 77.6623 248.644 83.4575C247.657 89.2527 251.603 90.1158 251.603 90.1158C251.603 90.1158 251.726 98.5004 254.932 103.926C256.852 107.202 257.713 110.992 257.398 114.776C257.398 114.776 249.383 105.899 234.587 108.488C219.791 111.077 227.436 101.953 227.189 98.9936C226.942 96.0344 228.052 92.9518 230.272 88.5129C232.491 84.0741 230.077 76.599 235.08 71.2506C235.229 71.0914 235.38 70.9368 235.532 70.7868C237.114 69.257 238.99 68.0635 241.046 67.2785C243.102 66.4936 245.296 66.1333 247.495 66.2195Z" fill="white"></path> <path d="M264.971 76.5449C265.294 77.825 265.47 79.1377 265.496 80.4577C265.511 81.1238 265.485 81.7902 265.417 82.453L265.355 82.9467L265.324 83.3701L265.361 83.7786C265.403 83.9068 265.421 84.0405 265.466 84.1671C265.694 84.6992 266.034 85.1755 266.464 85.5632C266.973 86.0093 267.434 86.5069 267.84 87.0482C268.051 87.3715 268.142 87.7581 268.099 88.1416C268.069 88.5115 267.923 88.8624 267.681 89.1443C267.172 89.635 266.491 89.9079 265.784 89.9051L265.943 89.7419C265.979 91.3185 266.047 92.8917 266.013 94.4792C266.012 96.0984 265.767 97.7083 265.285 99.2544C265.141 99.6871 264.921 100.091 264.637 100.448C264.553 100.551 264.457 100.643 264.35 100.723L264.18 100.846L263.975 100.943C263.863 100.992 263.748 101.029 263.629 101.054L263.313 101.135C262.505 101.284 261.684 101.347 260.863 101.322C259.27 101.286 257.683 101.107 256.121 100.787L256.331 100.744C255.873 100.992 255.442 101.285 255.045 101.621C254.849 101.784 254.679 101.974 254.537 102.186C254.465 102.285 254.417 102.4 254.398 102.522C254.379 102.643 254.389 102.767 254.428 102.884L254.338 102.932C254.26 102.804 254.215 102.657 254.208 102.507C254.201 102.356 254.232 102.206 254.297 102.07C254.412 101.805 254.564 101.557 254.749 101.336C255.118 100.907 255.538 100.526 256.001 100.202L256.071 100.151L256.211 100.159C257.76 100.248 259.324 100.327 260.855 100.279C261.604 100.265 262.351 100.192 263.089 100.061L263.343 99.9964C263.417 99.9832 263.489 99.9616 263.557 99.9319C263.578 99.922 263.599 99.9137 263.62 99.9072L263.686 99.8555C263.737 99.8183 263.784 99.7757 263.826 99.7285C264.039 99.4762 264.207 99.1895 264.323 98.8807C264.807 97.4345 265.127 95.9386 265.278 94.4211C265.504 92.8741 265.619 91.3131 265.624 89.7497L265.623 89.5896L265.784 89.5863C266.086 89.5953 266.386 89.5398 266.665 89.4238C266.944 89.3077 267.195 89.1336 267.402 88.9131C267.575 88.6845 267.661 88.4016 267.644 88.1154C267.642 87.8433 267.541 87.581 267.362 87.3766C266.919 86.9319 266.435 86.5299 265.917 86.1762C265.332 85.7409 264.876 85.154 264.6 84.4787C264.539 84.2974 264.491 84.1123 264.455 83.9245C264.439 83.7364 264.43 83.5473 264.421 83.3595L264.479 82.8105L264.553 82.3373C264.659 81.7138 264.716 81.0786 264.768 80.4399C264.851 79.1616 264.887 77.8649 264.87 76.56L264.971 76.5449Z" fill="white"></path> <path d="M262.331 85.7078C262.531 85.7008 262.72 85.6166 262.859 85.4729C262.998 85.3291 263.076 85.137 263.076 84.9371C263.076 84.7373 262.998 84.5452 262.859 84.4014C262.72 84.2577 262.531 84.1734 262.331 84.1665C262.132 84.1734 261.942 84.2577 261.803 84.4014C261.665 84.5452 261.587 84.7373 261.587 84.9371C261.587 85.137 261.665 85.3291 261.803 85.4729C261.942 85.6166 262.132 85.7008 262.331 85.7078ZM264.921 87.7731C264.975 87.9506 265.015 88.1323 265.041 88.3163C265.054 88.4126 265.059 88.5099 265.055 88.6071C265.051 88.6704 265.017 88.684 264.97 88.7628C264.909 88.9186 264.892 89.088 264.921 89.2527C264.814 89.3073 264.692 89.3267 264.574 89.3082C264.455 89.2897 264.345 89.2342 264.26 89.1497C264.142 89.0312 264.063 88.8788 264.035 88.7137C264.007 88.5485 264.031 88.3787 264.103 88.2276C264.176 88.0766 264.293 87.9517 264.44 87.8703C264.586 87.7889 264.754 87.7549 264.921 87.7731ZM259.002 82.5944C259.199 82.2085 259.518 81.8985 259.91 81.7128C260.297 81.5164 260.727 81.418 261.161 81.4263C261.592 81.431 262.017 81.5388 262.398 81.7405C262.778 81.9345 263.096 82.2301 263.318 82.5944C262.876 82.5934 262.514 82.5323 262.157 82.5117C261.807 82.4681 261.474 82.469 261.147 82.4534C260.43 82.4519 259.713 82.499 259.002 82.5944ZM262.331 92.4586C262.64 92.3984 262.956 92.3754 263.27 92.3903C263.549 92.4041 263.827 92.4403 264.1 92.4987C264.373 92.5579 264.64 92.6392 264.899 92.7417C265.193 92.8567 265.471 93.0092 265.726 93.1955C265.456 93.3712 265.153 93.4892 264.836 93.542C264.518 93.5948 264.193 93.5813 263.881 93.5024C263.578 93.4371 263.287 93.3201 263.023 93.1565C262.737 92.9861 262.499 92.746 262.331 92.4586ZM251.481 88.7903C251.68 88.7834 251.87 88.6992 252.009 88.5554C252.147 88.4116 252.225 88.2196 252.225 88.0197C252.225 87.8198 252.147 87.6277 252.009 87.484C251.87 87.3402 251.68 87.256 251.481 87.2491C251.281 87.256 251.092 87.3402 250.953 87.484C250.814 87.6277 250.736 87.8198 250.736 88.0197C250.736 88.2196 250.814 88.4116 250.953 88.5554C251.092 88.6992 251.281 88.7834 251.481 88.7903Z" fill="white"></path> <path d="M244.205 140.053L252.369 149.096L251.578 149.752L244.205 140.053Z" fill="white"></path> <path d="M297.058 170.849C299.084 167.388 300.632 163.669 301.658 159.792C302.691 155.923 303.426 151.981 303.86 148.001C304.099 146.011 304.27 144.017 304.451 142.011C304.516 140.983 304.675 139.963 304.925 138.964C305.201 137.974 305.553 137.006 305.978 136.071C307.631 132.357 309.813 128.964 310.973 125.164C311.274 124.223 311.523 123.265 311.72 122.296C311.812 121.812 311.896 121.325 311.95 120.838C312.013 120.365 312.034 119.887 312.014 119.411C311.862 118.445 311.607 117.499 311.255 116.587C310.918 115.652 310.541 114.725 310.123 113.824C310.019 113.595 309.91 113.385 309.797 113.155C309.732 113.012 309.691 112.859 309.676 112.702C309.657 112.564 309.652 112.423 309.663 112.284C309.699 111.766 309.781 111.252 309.907 110.749C310.136 109.759 310.415 108.795 310.655 107.823C310.909 106.861 311.087 105.88 311.187 104.89C311.233 104.402 311.235 103.896 311.233 103.403C311.24 102.917 311.181 102.433 311.058 101.963C311 101.743 310.888 101.542 310.732 101.377C310.576 101.212 310.382 101.089 310.166 101.019C310.053 100.978 309.94 100.936 309.821 100.9C309.801 100.895 309.743 100.873 309.753 100.881C309.756 100.878 309.749 100.881 309.74 100.883C309.704 100.899 309.67 100.921 309.641 100.948C309.478 101.117 309.339 101.307 309.227 101.513C308.749 102.389 308.332 103.296 307.979 104.229C307.238 106.093 306.562 107.985 305.871 109.873C305.172 111.758 304.501 113.653 303.711 115.516C303.512 115.987 303.29 116.448 303.043 116.896C302.793 117.392 302.392 117.797 301.897 118.053C301.377 118.289 300.788 118.325 300.243 118.153C299.727 117.994 299.246 117.735 298.828 117.393L298.725 117.312L298.724 117.174V117.169L298.829 117.389C298.204 116.896 297.705 116.262 297.375 115.538C297.293 115.348 297.23 115.15 297.187 114.947C297.146 114.732 297.133 114.558 297.111 114.363L297.02 113.244C296.977 112.516 296.89 111.791 296.757 111.073C296.671 110.406 296.39 109.779 295.949 109.272C295.899 109.22 295.841 109.176 295.777 109.141C295.722 109.096 295.658 109.062 295.59 109.042C295.525 109.021 295.452 108.987 295.396 108.973C295.357 108.965 295.316 108.966 295.277 108.974C295.143 108.991 294.941 109.239 294.822 109.545C294.58 110.208 294.427 110.901 294.365 111.605C294.216 113.062 294.168 114.529 294.223 115.993L294.226 116.113L294.154 116.247C293.633 117.124 293.233 118.068 292.965 119.054C292.706 120.041 292.59 121.061 292.62 122.082C292.657 123.109 292.813 124.127 293.086 125.117C293.35 126.104 293.728 127.056 294.214 127.954L294.317 128.141L294.271 128.332C293.855 130.05 293.419 131.764 292.898 133.453C292.398 135.148 291.826 136.821 291.209 138.475C290.597 140.132 289.938 141.77 289.23 143.389C288.524 145.011 287.786 146.605 286.959 148.19L286.762 148.566L286.363 148.449C285.42 148.126 284.543 147.637 283.773 147.006C283.037 146.413 282.335 145.777 281.672 145.103C280.357 143.764 279.156 142.342 277.985 140.9C275.656 138.008 273.475 135.017 271.267 132.057L269.611 129.838L267.881 127.677L264.417 123.357C262.148 120.441 259.729 117.647 257.359 114.808L257.436 114.74C259.903 117.493 262.441 120.186 264.798 123.04L268.379 127.281L270.169 129.405L271.884 131.588C274.141 134.519 276.363 137.47 278.717 140.3C279.896 141.71 281.109 143.092 282.4 144.376C283.035 145.017 283.706 145.622 284.41 146.187C285.074 146.728 285.825 147.15 286.631 147.436L286.036 147.696C286.829 146.163 287.563 144.566 288.254 142.966C288.945 141.362 289.592 139.74 290.194 138.1C290.794 136.46 291.355 134.807 291.874 133.14C292.404 131.476 292.848 129.788 293.273 128.097L293.33 128.474C292.805 127.494 292.4 126.454 292.123 125.377C291.839 124.308 291.68 123.21 291.651 122.105C291.598 119.868 292.203 117.665 293.39 115.768L293.321 116.021C293.293 114.511 293.37 113.001 293.553 111.502C293.637 110.723 293.825 109.96 294.112 109.231C294.199 109.029 294.313 108.839 294.45 108.666C294.618 108.449 294.856 108.297 295.123 108.235C295.266 108.206 295.413 108.208 295.556 108.24C295.668 108.273 295.778 108.313 295.886 108.358C295.994 108.398 296.095 108.454 296.185 108.525C296.283 108.583 296.372 108.654 296.451 108.735C296.997 109.353 297.341 110.122 297.436 110.941C297.561 111.688 297.639 112.443 297.669 113.201L297.737 114.306C297.745 114.648 297.812 114.985 297.936 115.302C298.217 115.942 298.645 116.506 299.185 116.948L299.292 117.037L299.29 117.168L299.29 117.173L299.186 116.954C299.894 117.55 300.876 117.971 301.683 117.594C302.493 117.23 302.87 116.212 303.303 115.335C304.127 113.515 304.827 111.628 305.53 109.747C306.235 107.865 306.926 105.977 307.684 104.11C308.053 103.167 308.475 102.245 308.947 101.349C309.073 101.112 309.232 100.894 309.419 100.701C309.482 100.642 309.555 100.596 309.635 100.566C309.691 100.546 309.75 100.541 309.808 100.55C309.846 100.556 309.884 100.566 309.921 100.579C310.043 100.615 310.166 100.659 310.29 100.703C310.55 100.796 310.788 100.944 310.986 101.137C311.176 101.341 311.316 101.587 311.395 101.854C311.855 103.909 311.516 105.956 311.063 107.919C310.845 108.904 310.589 109.879 310.39 110.853C310.283 111.327 310.218 111.81 310.195 112.296C310.179 112.501 310.21 112.708 310.284 112.9C310.398 113.117 310.526 113.351 310.636 113.577C311.086 114.489 311.49 115.415 311.858 116.363C312.254 117.318 312.545 118.314 312.726 119.332C312.765 119.859 312.755 120.388 312.698 120.914C312.654 121.427 312.579 121.933 312.495 122.438C312.321 123.445 312.083 124.44 311.785 125.417C311.169 127.355 310.393 129.239 309.464 131.048C308.58 132.862 307.632 134.637 306.803 136.438C306.387 137.329 306.041 138.251 305.768 139.195C305.522 140.144 305.363 141.114 305.293 142.093C305.094 144.088 304.902 146.098 304.643 148.097C304.377 150.097 304.068 152.093 303.649 154.069C303.466 155.061 303.205 156.039 302.986 157.024C302.719 157.997 302.479 158.979 302.177 159.942C301.044 163.823 299.349 167.516 297.144 170.905L297.058 170.849Z" fill="white"></path> <path d="M289.58 150.164L286.197 148.361L286.798 147.528L289.58 150.164Z" fill="white"></path> <path d="M271.475 131.715C272.108 130.694 272.797 129.711 273.506 128.739C274.214 127.759 274.987 126.826 275.819 125.949C276.247 125.487 276.728 125.078 277.253 124.73C277.397 124.654 277.577 124.554 277.696 124.503C277.824 124.45 277.949 124.39 278.07 124.323C278.317 124.195 278.551 124.046 278.772 123.878C279.667 123.112 280.517 122.295 281.319 121.432C282.163 120.579 283.016 119.728 283.899 118.912C284.774 118.087 285.703 117.313 286.563 116.515C287.435 115.729 288.236 114.867 288.956 113.94C289.307 113.481 289.609 112.988 289.86 112.468C290.115 111.981 290.232 111.432 290.197 110.883L290.192 110.851L290.193 110.839L290.193 110.834L290.197 110.879C290.178 110.738 290.129 110.603 290.053 110.483C290.019 110.431 289.977 110.386 289.928 110.349C289.916 110.339 289.902 110.331 289.887 110.325C289.868 110.321 289.848 110.32 289.829 110.323C289.517 110.408 289.223 110.548 288.962 110.737C288.378 111.126 287.816 111.546 287.278 111.996L285.654 113.361C285.518 113.477 285.383 113.591 285.238 113.703C285.158 113.778 285.064 113.836 284.962 113.873C284.859 113.911 284.75 113.928 284.641 113.923C284.526 113.903 284.418 113.853 284.328 113.78C284.237 113.707 284.167 113.611 284.123 113.503C284.047 113.321 284.003 113.127 283.994 112.929C283.986 112.196 284.12 111.468 284.387 110.784C284.621 110.106 284.9 109.444 285.22 108.802C285.862 107.523 286.6 106.307 287.321 105.089C288.062 103.91 288.728 102.685 289.315 101.422C289.439 101.144 289.516 100.848 289.544 100.545C289.559 100.47 289.544 100.392 289.503 100.328C289.468 100.3 289.425 100.283 289.381 100.278C289.119 100.318 288.87 100.414 288.649 100.56C288.366 100.732 288.095 100.923 287.838 101.133C286.774 102.026 285.778 102.997 284.856 104.036C283.914 105.071 283.001 106.149 282.116 107.227L281.932 107.45L281.637 107.428C279.694 107.352 277.776 107.88 276.147 108.941C274.455 110.017 272.911 111.31 271.555 112.787C270.182 114.289 268.905 115.877 267.731 117.54C267.072 118.372 266.237 119.048 265.286 119.521C264.361 119.995 263.366 120.32 262.339 120.482L262.322 120.38C264.295 119.934 266.049 118.812 267.282 117.208C268.363 115.452 269.581 113.783 270.923 112.217C272.283 110.621 273.856 109.22 275.598 108.054C277.405 106.83 279.562 106.228 281.742 106.338L281.263 106.539C282.168 105.427 283.111 104.366 284.094 103.327C285.071 102.267 286.125 101.28 287.247 100.375C287.544 100.144 287.856 99.9331 288.182 99.7451C288.558 99.5051 288.993 99.3735 289.439 99.3647C289.593 99.3768 289.743 99.4214 289.878 99.4955C290.014 99.5697 290.132 99.6718 290.225 99.795C290.384 100.027 290.454 100.308 290.423 100.587C290.38 100.989 290.269 101.382 290.095 101.747C289.456 103.035 288.717 104.272 287.886 105.445C287.102 106.623 286.314 107.794 285.634 109.018C285.292 109.627 284.995 110.26 284.745 110.911C284.485 111.545 284.347 112.221 284.339 112.906C284.346 113.224 284.468 113.577 284.682 113.597C284.888 113.634 285.188 113.324 285.454 113.123L287.067 111.742C287.614 111.289 288.153 110.826 288.746 110.414C289.052 110.179 289.399 110.003 289.77 109.894C289.837 109.882 289.907 109.882 289.975 109.894C290.046 109.907 290.114 109.935 290.174 109.975C290.272 110.038 290.357 110.118 290.427 110.211C290.553 110.382 290.639 110.58 290.68 110.789L290.683 110.804L290.684 110.834L290.684 110.839L290.68 110.795C290.768 111.444 290.672 112.104 290.403 112.7C290.165 113.275 289.868 113.823 289.517 114.336C288.825 115.344 288.037 116.282 287.162 117.137C286.296 118 285.392 118.769 284.525 119.588C283.652 120.399 282.778 121.208 281.925 122.043C281.078 122.917 280.181 123.741 279.238 124.51C278.979 124.7 278.703 124.866 278.414 125.006C278.269 125.076 278.12 125.139 277.969 125.193C277.809 125.252 277.73 125.304 277.605 125.357C277.117 125.65 276.665 125.999 276.259 126.397C274.578 128.086 273.008 129.882 271.559 131.773L271.475 131.715Z" fill="white"></path> <path d="M279.346 109.351L281.316 106.531L282.061 107.239L279.346 109.351Z" fill="white"></path> <path d="M288.596 110.757C289.101 109.278 289.676 107.832 290.246 106.384L291.129 104.225L292.045 102.082C292.657 100.654 293.301 99.2408 293.938 97.8247C294.601 96.4205 295.238 95.0045 295.921 93.61L296.237 92.9653L296.892 93.2291C299.109 94.1204 301.312 95.0451 303.502 96.0031C304.592 96.4943 305.689 96.9666 306.771 97.4797C307.858 97.9785 308.936 98.4986 310.012 99.0265L310.232 99.1348L310.141 99.3232C309.792 100.045 309.433 100.764 309.063 101.478C309.268 100.7 309.486 99.9271 309.712 99.1575L309.842 99.454C308.698 99.0983 307.557 98.7347 306.424 98.3499C305.286 97.9793 304.164 97.5679 303.035 97.1755C300.786 96.3671 298.55 95.5244 296.328 94.6475L297.299 94.2667C296.646 95.6754 295.948 97.0625 295.275 98.4615C294.576 99.8486 293.884 101.239 293.161 102.614L292.073 104.675L290.953 106.721C290.187 108.076 289.426 109.433 288.596 110.757Z" fill="white"></path> <path d="M286.614 116.944L286.381 117.401L292.14 120.338L292.373 119.88L286.614 116.944Z" fill="white"></path> <path d="M306.597 100.713L299.009 117.169C298.232 116.576 297.688 115.728 297.473 114.775C297.226 112.925 297.473 109.103 295.5 108.609C293.527 108.116 293.774 116.008 293.774 116.008C293.539 116.382 293.328 116.772 293.142 117.174L288.76 114.775C290.286 112.858 290.573 111.574 290.44 110.839V110.834L290.47 110.757L297.473 96.7725L306.597 100.713ZM279.327 170.953C276.457 170.21 273.709 169.057 271.167 167.531C268.617 166.025 266.181 164.334 263.88 162.469C261.564 160.624 259.356 158.647 257.268 156.548C256.744 156.025 256.227 155.495 255.717 154.949C255.203 154.385 254.732 153.842 254.246 153.28L252.81 151.591C252.333 151.007 251.873 150.479 251.401 149.783L251.95 150.101C250.653 149.988 249.382 149.662 248.191 149.136C247.017 148.631 245.917 147.967 244.924 147.164C242.959 145.557 241.385 143.526 240.321 141.223L239.929 140.369L239.734 139.942C239.679 139.797 239.633 139.648 239.582 139.5L238.988 137.73C238.802 137.138 238.697 136.525 238.549 135.925C238.393 135.327 238.274 134.72 238.192 134.107C238.041 132.883 237.819 131.672 237.776 130.433C237.713 129.2 237.736 127.964 237.845 126.734C238.058 124.276 238.641 121.863 239.574 119.578C240.037 118.436 240.606 117.339 241.275 116.304C241.956 115.266 242.779 114.328 243.719 113.517C244.694 112.726 245.825 112.151 247.039 111.829L247.961 111.641C248.272 111.606 248.586 111.602 248.898 111.582L249.367 111.56L249.833 111.602L250.766 111.686C253.197 112.177 255.515 113.121 257.598 114.468L257.128 115.022C255.158 113.158 252.856 111.681 250.341 110.667C247.84 109.624 245.191 108.983 242.491 108.767C239.789 108.585 237.075 108.741 234.411 109.231C233.014 109.49 231.598 109.638 230.177 109.675C229.436 109.689 228.695 109.629 227.965 109.498C227.147 109.362 226.379 109.014 225.738 108.489L224.798 107.669L225.98 107.218L225.982 107.217L227.405 106.673L226.967 108.164C226.2 110.845 225.635 113.58 225.276 116.345C225.166 117.036 225.089 117.732 225.014 118.429C224.942 119.125 224.848 119.82 224.793 120.518L224.65 122.614L224.581 123.663L224.559 124.713C224.373 130.319 224.796 135.929 225.819 141.444C226.099 142.817 226.31 144.208 226.711 145.554L227.251 147.588C227.435 148.265 227.592 148.951 227.841 149.608L229.204 153.595C229.732 154.894 230.29 156.183 230.832 157.481C231.379 158.779 231.991 160.048 232.667 161.284C233.321 162.536 233.998 163.775 234.686 165.008C235.381 166.236 236.097 167.454 236.879 168.625C237.27 169.21 237.68 169.783 238.121 170.327C238.338 170.6 238.574 170.858 238.825 171.1C239.06 171.348 239.346 171.541 239.663 171.667L239.625 171.817C239.273 171.705 238.949 171.517 238.678 171.266C238.404 171.033 238.145 170.783 237.903 170.517C237.424 169.987 236.972 169.433 236.55 168.857C235.699 167.714 234.915 166.526 234.153 165.326C233.39 164.127 232.67 162.902 231.964 161.669C231.235 160.445 230.567 159.185 229.965 157.894C229.365 156.6 228.749 155.31 228.163 154.007L226.671 149.991C226.403 149.327 226.226 148.634 226.023 147.949L225.426 145.89C224.985 144.527 224.737 143.117 224.419 141.722C223.243 136.115 222.736 130.387 222.91 124.66L222.936 123.587L223.007 122.516L223.157 120.374C223.214 119.66 223.311 118.951 223.386 118.239C223.461 117.527 223.545 116.816 223.669 116.11C224.076 113.26 224.698 110.445 225.529 107.689L226.514 108.636L226.512 108.636L226.754 107.366C227.192 107.714 227.711 107.946 228.262 108.04C228.892 108.16 229.532 108.218 230.173 108.214C231.516 108.195 232.855 108.07 234.179 107.842C236.964 107.377 239.797 107.274 242.608 107.535C245.424 107.816 248.173 108.565 250.742 109.752C253.328 110.902 255.678 112.522 257.672 114.531L259.84 116.788L257.202 115.085C255.237 113.711 253.02 112.742 250.678 112.233L249.795 112.145L249.353 112.1L248.912 112.116C248.618 112.132 248.321 112.132 248.029 112.161L247.163 112.329C246.017 112.62 244.945 113.151 244.019 113.886C242.228 115.487 240.865 117.51 240.055 119.772C239.185 122.015 238.683 124.383 238.568 126.786C238.507 127.982 238.529 129.182 238.634 130.375C238.718 131.569 238.983 132.748 239.169 133.93C239.269 134.52 239.405 135.103 239.577 135.676C239.741 136.249 239.861 136.837 240.06 137.397L240.687 139.063C240.74 139.202 240.788 139.342 240.845 139.478L241.045 139.874L241.442 140.664C242.48 142.762 243.958 144.612 245.775 146.087C246.676 146.811 247.673 147.408 248.737 147.861C249.77 148.328 250.871 148.628 251.998 148.748L252.359 148.781L252.548 149.066C252.896 149.59 253.389 150.187 253.839 150.742L255.244 152.426L256.663 154.088C257.146 154.626 257.646 155.159 258.151 155.684C259.162 156.736 260.2 157.762 261.266 158.762C261.796 159.265 262.324 159.769 262.871 160.253C263.411 160.746 263.955 161.233 264.515 161.702C266.727 163.61 269.066 165.366 271.516 166.958C273.95 168.584 276.591 169.878 279.368 170.805L279.327 170.953ZM303.871 150.569C305.224 149.843 306.597 149.165 307.981 148.515C308.67 148.181 309.369 147.874 310.062 147.553C310.755 147.23 311.459 146.934 312.157 146.624L312.465 146.487L312.759 146.696C313.492 147.222 314.194 147.789 314.862 148.395C315.544 148.972 316.165 149.612 316.795 150.241C318.01 151.54 319.125 152.928 320.133 154.393C322.127 157.327 324.002 160.302 325.697 163.401C326.163 164.155 326.538 164.955 326.934 165.747L327.532 166.935L327.829 167.532L328.085 168.145C328.42 168.966 328.759 169.788 329.079 170.618C329.41 171.444 329.615 172.311 329.884 173.159C330.401 174.862 330.824 176.593 331.15 178.344C331.496 180.091 331.6 181.876 331.794 183.643L331.867 184.307L331.198 184.465C330.066 184.732 328.925 184.961 327.788 185.21L324.366 185.906C323.223 186.129 322.077 186.342 320.93 186.547C319.778 186.735 318.632 186.944 317.474 187.106L317.437 186.957C318.538 186.564 319.651 186.218 320.759 185.852C321.87 185.5 322.984 185.159 324.101 184.828L327.456 183.859C328.579 183.553 329.697 183.228 330.824 182.94L330.228 183.762L329.889 181.189C329.814 180.328 329.696 179.471 329.534 178.622C329.212 176.925 328.979 175.205 328.488 173.543L328.164 172.285C328.053 171.867 327.965 171.441 327.815 171.034C327.54 170.213 327.285 169.384 327.025 168.554L326.836 167.929L326.606 167.32L326.141 166.1C325.828 165.287 325.525 164.467 325.134 163.687C323.698 160.495 321.763 157.553 319.4 154.972C318.242 153.67 317.023 152.435 315.815 151.199C315.189 150.603 314.588 149.98 313.954 149.398C313.334 148.803 312.662 148.241 312.026 147.713L312.627 147.786C311.91 148.048 311.198 148.325 310.476 148.575C309.754 148.827 309.038 149.092 308.311 149.331C306.864 149.826 305.406 150.294 303.929 150.712L303.871 150.569Z" fill="white"></path> <path d="M225.493 110.834C218.261 111.523 211.046 112.336 203.846 113.273C200.248 113.746 196.658 114.27 193.086 114.882C189.519 115.504 185.959 116.199 182.49 117.14C180.776 117.569 179.116 118.19 177.543 118.994C177.194 119.185 176.872 119.421 176.586 119.696C176.477 119.809 176.384 119.936 176.311 120.074C176.292 120.136 176.275 120.178 176.26 120.245L176.246 120.482C176.297 121.352 176.408 122.217 176.577 123.072C177.234 126.608 178.103 130.139 178.969 133.658C180.735 140.695 182.528 147.733 184.4 154.749L189.956 175.821L192.781 186.346L195.69 196.847C196.671 200.345 197.631 203.848 198.639 207.338L201.67 217.805C203.678 224.787 205.785 231.74 207.864 238.701L207.454 238.399L232.234 237.728L257.015 237.149L281.797 236.611L294.189 236.375L306.582 236.18L306.12 236.34L323.02 223.67C328.662 219.457 334.285 215.221 339.948 211.036L339.75 211.374C340.128 208.63 340.356 205.836 340.46 203.053C340.575 200.27 340.494 197.482 340.216 194.71C340.077 193.329 339.841 191.96 339.51 190.612C339.193 189.267 338.69 187.973 338.016 186.767C337.362 185.555 336.334 184.586 335.085 184.005C333.791 183.501 332.371 183.422 331.029 183.777L330.992 183.627C332.369 183.172 333.862 183.216 335.21 183.751C336.558 184.286 337.675 185.278 338.365 186.554C339.099 187.776 339.659 189.095 340.028 190.472C340.408 191.836 340.691 193.225 340.876 194.629C341.227 197.43 341.373 200.252 341.31 203.074C341.264 205.895 341.095 208.699 340.766 211.515L340.743 211.718L340.568 211.854C335.01 216.177 329.413 220.449 323.834 224.744L307.073 237.597L306.871 237.751L306.611 237.757L294.22 238.024L281.828 238.251L257.043 238.638L232.257 238.983L207.469 239.237L207.145 239.24L207.059 238.935L201.15 217.954L198.184 207.468L195.174 196.993L189.125 176.052C187.112 169.07 185.105 162.086 183.166 155.081L180.34 144.551C179.409 141.037 178.496 137.518 177.656 133.979C176.814 130.437 175.972 126.903 175.329 123.29C175.152 122.361 175.042 121.421 175 120.477C175.005 120.335 175.02 120.181 175.035 120.034C175.069 119.87 175.119 119.711 175.183 119.556C175.317 119.29 175.492 119.047 175.701 118.834C176.069 118.479 176.484 118.175 176.934 117.931C178.602 117.088 180.362 116.44 182.178 116C185.719 115.101 189.306 114.393 192.923 113.879C196.524 113.333 200.134 112.876 203.748 112.471C207.361 112.058 210.982 111.732 214.605 111.433C218.228 111.136 221.852 110.871 225.482 110.68L225.493 110.834Z" fill="white"></path> <path d="M306.597 236.969C306.597 236.969 305.858 189.621 303.9 182.223C301.942 174.825 244.688 181.795 227.437 179.633C222.022 178.955 218.01 175.714 215.282 172.482C212.903 169.622 211.106 166.325 209.992 162.776C201.688 136.908 198.113 126.231 194.886 121.928C191.556 117.489 175.65 120.109 175.65 120.109C174.541 125.997 207.462 238.818 207.462 238.818L306.597 236.969Z" fill="white"></path> <path d="M193.771 117.095C196.02 117.094 198.239 117.603 200.262 118.584C202.285 119.564 204.059 120.991 205.45 122.757C206.152 123.64 206.778 124.58 207.32 125.569C207.835 126.57 208.277 127.605 208.644 128.669C209.036 129.73 209.343 130.795 209.624 131.864C209.918 132.931 210.174 134.005 210.435 135.077C211.474 139.365 212.41 143.66 213.556 147.888C214.629 152.114 216.082 156.235 217.899 160.199C218.816 162.15 219.961 163.985 221.31 165.666C222.64 167.341 224.334 168.691 226.262 169.616C226.498 169.739 226.744 169.841 226.997 169.923L227.746 170.198C228.268 170.312 228.767 170.484 229.311 170.556C230.393 170.707 231.464 170.918 232.557 171.02C233.648 171.125 234.74 171.234 235.835 171.321L239.126 171.514C243.519 171.703 247.92 171.747 252.321 171.695C256.721 171.684 261.12 171.506 265.518 171.355C269.916 171.188 274.311 170.948 278.707 170.748L285.298 170.404L288.592 170.222C289.669 170.176 290.77 170.051 291.878 169.987C296.305 169.656 300.748 169.609 305.181 169.846C307.46 169.938 309.716 170.333 311.891 171.02C312.48 171.224 313.039 171.506 313.555 171.856C314.185 172.264 314.648 172.884 314.86 173.604C315.099 174.812 315.228 175.86 315.357 176.979C316.29 185.78 316.786 194.562 317.243 203.372L317.314 205.028C317.326 205.301 317.335 205.584 317.338 205.872L317.341 206.083C317.348 206.112 317.341 206.145 317.348 206.172C317.358 206.229 317.38 206.283 317.414 206.33C317.549 206.46 317.712 206.559 317.889 206.62C318.067 206.68 318.256 206.7 318.443 206.679C318.942 206.662 319.436 206.575 319.911 206.421C320.92 206.082 321.886 205.628 322.791 205.068C323.72 204.507 324.616 203.893 325.474 203.229C328.906 200.493 332.1 197.471 335.02 194.194L335.137 194.295C333.747 196.005 332.296 197.666 330.783 199.277C329.272 200.898 327.66 202.422 325.958 203.841C325.098 204.554 324.198 205.218 323.262 205.828C322.314 206.46 321.295 206.981 320.226 207.378C319.659 207.583 319.066 207.706 318.464 207.744C318.131 207.76 317.797 207.722 317.475 207.631C317.094 207.528 316.756 207.305 316.511 206.996C316.378 206.823 316.284 206.622 316.237 206.409C316.215 206.304 316.202 206.197 316.197 206.089L316.187 205.888L316.145 205.082L316.04 203.441C315.734 199.056 315.386 194.671 314.996 190.286C314.6 185.907 314.249 181.516 313.724 177.171C313.664 176.626 313.581 176.093 313.515 175.552C313.483 175.28 313.44 175.018 313.394 174.757L313.329 174.365L313.296 174.168L313.28 174.07L313.264 174.014C313.147 173.673 312.913 173.384 312.603 173.199C312.206 172.932 311.775 172.718 311.323 172.562C309.29 171.935 307.187 171.56 305.062 171.448C300.702 171.164 296.328 171.16 291.967 171.435C290.876 171.484 289.787 171.596 288.663 171.631L285.36 171.762L278.754 171.97C274.35 172.102 269.944 172.155 265.539 172.199C256.727 172.269 247.917 172.294 239.105 172.013L235.8 171.878L232.495 171.651C231.392 171.585 230.292 171.408 229.188 171.291C228.637 171.238 228.08 171.074 227.525 170.969L226.714 170.704C226.44 170.624 226.174 170.523 225.916 170.402C223.826 169.486 221.971 168.107 220.492 166.369C219.021 164.663 217.764 162.784 216.751 160.772C214.807 156.766 213.294 152.566 212.237 148.241C211.106 143.961 210.214 139.638 209.272 135.347L208.536 132.139C208.291 131.07 208.021 130.01 207.679 128.993C207.361 127.965 206.97 126.96 206.508 125.987C206.021 125.03 205.454 124.115 204.813 123.254C203.523 121.523 201.88 120.085 199.993 119.035C199.761 118.895 199.52 118.772 199.27 118.667L198.531 118.327C198.02 118.15 197.519 117.931 196.99 117.801C195.946 117.485 194.867 117.3 193.777 117.249L193.771 117.095Z" fill="white"></path> <path d="M317.539 206.082L316.769 224.392L315.998 206.082H317.539Z" fill="white"></path> <path d="M308.393 236.968H304.797V271H308.393V236.968Z" fill="white"></path> <path d="M341.835 205.497H338.238V239.528H341.835V205.497Z" fill="white"></path> <path d="M210.847 236.968H207.25V271H210.847V236.968Z" fill="white"></path> <path d="M369.206 218.431L370.957 228.584L372.442 245.676C372.442 245.676 362.794 247.475 359.091 246.738C359.091 246.738 350.862 233.625 343.832 220.919C339.152 212.446 335.653 203.372 333.429 193.951L331.012 183.701C330.763 180.362 330.205 177.054 329.348 173.819C331.017 172.295 332.616 170.713 334.194 169.108C335.777 167.509 337.316 165.866 338.861 164.235C339.539 163.503 340.211 162.766 340.888 162.029C343.962 161.421 347.136 161.555 350.147 162.419C351.761 162.898 353.27 163.676 354.597 164.712C355.906 165.756 357.006 167.038 357.839 168.49C358.624 169.983 359.268 171.545 359.763 173.157C360.305 174.773 360.772 176.415 361.211 178.074C362.078 181.38 362.831 184.725 363.531 188.08C364.994 194.775 366.209 201.535 367.428 208.289C368.046 211.666 368.632 215.049 369.206 218.431Z" fill="white"></path> <path d="M381.732 237.539L370.956 228.584C370.609 225.164 370.159 221.759 369.731 218.35C369.259 214.946 368.766 211.545 368.251 208.148C367.747 204.749 367.14 201.367 366.544 197.984C365.931 194.602 365.291 191.219 364.587 187.853C363.855 184.492 363.069 181.142 362.158 177.814C361.703 176.149 361.215 174.496 360.651 172.859C360.123 171.191 359.42 169.582 358.553 168.062C357.627 166.555 356.426 165.235 355.014 164.17C353.598 163.122 351.996 162.355 350.292 161.909C348.605 161.482 346.865 161.303 345.126 161.378C343.724 161.423 342.331 161.614 340.969 161.947C341.787 161.058 342.611 160.175 343.419 159.28C344.947 157.632 346.406 155.925 348.026 154.358L347.316 154.819C347.078 154.982 346.861 155.16 346.633 155.334C346.183 155.675 345.755 156.044 345.322 156.407C344.465 157.144 343.63 157.905 342.817 158.689C341.175 160.234 339.613 161.86 338.069 163.497C336.535 165.145 335.028 166.82 333.569 168.539C332.111 170.252 330.686 171.997 329.347 173.819C324.631 156.022 312.391 147.203 312.391 147.203C312.391 147.203 339.641 131.916 348.27 138.822C356.9 145.723 360.846 148.932 372.436 181.977C384.031 215.021 390.373 227.993 390.373 227.993L381.732 237.539ZM359.167 242.936C359.271 245.293 359.093 247.654 358.637 249.969C358.496 250.553 358.302 251.122 358.057 251.67C357.848 252.198 357.669 252.737 357.521 253.285C357.216 254.353 357.162 255.478 357.365 256.571C357.604 257.63 358.172 258.586 358.987 259.304C359.191 259.486 359.405 259.658 359.628 259.817L359.973 260.047C360.103 260.133 360.235 260.218 360.356 260.31C360.783 260.669 361.248 260.981 361.741 261.241C362.786 261.655 363.894 261.886 365.018 261.924C366.169 262.004 367.334 262.021 368.499 262.008C373.169 261.86 377.826 261.432 382.444 260.726L396.32 258.718L395.896 259.147C395.883 259.058 395.863 258.971 395.837 258.885C395.796 258.764 395.743 258.648 395.679 258.537C395.543 258.295 395.376 258.071 395.183 257.871C394.77 257.442 394.307 257.066 393.802 256.75C392.75 256.096 391.636 255.547 390.476 255.113C389.299 254.665 388.113 254.293 386.877 253.93C385.648 253.558 384.431 253.145 383.223 252.703C380.782 251.86 378.441 250.751 376.241 249.398C375.133 248.714 374.131 247.87 373.268 246.894C372.376 245.921 371.875 244.653 371.862 243.334C371.862 243.321 371.868 243.309 371.877 243.3C371.886 243.291 371.898 243.286 371.911 243.286C371.924 243.286 371.936 243.291 371.945 243.3C371.954 243.308 371.96 243.32 371.961 243.333C372.077 244.591 372.642 245.765 373.553 246.639C374.445 247.524 375.453 248.282 376.55 248.893C378.772 250.103 381.104 251.099 383.515 251.867C385.913 252.694 388.391 253.232 390.852 254.127C392.087 254.583 393.27 255.168 394.383 255.871C394.96 256.237 395.485 256.678 395.945 257.183C396.189 257.449 396.399 257.744 396.569 258.063C396.783 258.428 396.89 258.847 396.878 259.271C396.875 259.375 396.834 259.476 396.764 259.553C396.694 259.631 396.598 259.681 396.494 259.694L396.454 259.699C391.814 260.294 387.167 260.842 382.506 261.254C377.842 261.652 373.196 262.158 368.516 262.462C367.346 262.538 366.171 262.587 364.987 262.566C363.768 262.589 362.554 262.394 361.404 261.989C360.853 261.723 360.333 261.398 359.851 261.02L359.122 260.539C358.868 260.36 358.625 260.167 358.392 259.961C357.439 259.12 356.79 257.987 356.546 256.738C356.342 255.519 356.423 254.268 356.786 253.086C356.948 252.506 357.157 251.941 357.411 251.395C357.672 250.889 357.884 250.359 358.045 249.813C358.589 247.555 358.931 245.253 359.068 242.934C359.068 242.928 359.07 242.921 359.072 242.915C359.075 242.91 359.079 242.904 359.084 242.9C359.089 242.895 359.094 242.892 359.1 242.89C359.107 242.888 359.113 242.887 359.12 242.887C359.132 242.888 359.144 242.894 359.152 242.903C359.161 242.911 359.166 242.923 359.167 242.936Z" fill="white"></path> <path d="M362.753 249.259C362.745 250.04 362.919 250.812 363.26 251.514C363.433 251.847 363.666 252.146 363.946 252.395C364.244 252.66 364.564 252.901 364.902 253.113C364.478 253.072 364.07 252.931 363.71 252.702C363.335 252.468 363.029 252.139 362.823 251.748C362.622 251.366 362.511 250.943 362.499 250.511C362.487 250.08 362.574 249.652 362.753 249.259Z" fill="white"></path> <path d="M365.94 253.51L364.867 253.368C364.403 253.322 363.956 253.166 363.563 252.913C363.154 252.658 362.82 252.298 362.596 251.871C362.377 251.453 362.256 250.991 362.243 250.519C362.229 250.047 362.324 249.579 362.519 249.149L362.968 248.193L363.008 249.249C362.996 249.99 363.159 250.724 363.484 251.391C363.643 251.698 363.857 251.973 364.115 252.202C364.368 252.431 364.64 252.638 364.929 252.821L365.94 253.51ZM358.278 259.61C358.278 259.61 355.496 260.68 357.22 265.738C357.22 265.738 357.055 267.647 363.816 267.067L397.92 265.983C397.92 265.983 400.26 260.32 394.981 259.399L386.446 260.475C386.446 260.475 388.408 255.309 387.759 253.666C386.797 252.207 385.379 251.109 383.727 250.543C382.074 249.977 380.281 249.975 378.627 250.537C378.627 250.537 379.249 258.701 373.04 261.704C373.04 261.704 363.755 261.544 358.278 259.61ZM380.501 236.144C382.136 237.845 383.562 239.736 384.748 241.776C385.027 242.307 385.258 242.863 385.435 243.436C385.627 243.971 385.848 244.494 386.099 245.003C386.575 246.007 387.278 246.887 388.152 247.573C389.03 248.211 390.088 248.554 391.174 248.555C391.448 248.557 391.722 248.545 391.995 248.517L392.406 248.462C392.56 248.44 392.716 248.417 392.867 248.406C393.425 248.393 393.979 248.321 394.522 248.191C395.58 247.813 396.565 247.254 397.433 246.54C398.351 245.84 399.237 245.084 400.103 244.305C403.513 241.11 406.727 237.714 409.729 234.134L418.824 223.464L418.789 224.066C418.721 224.007 418.648 223.955 418.572 223.908C418.461 223.844 418.345 223.791 418.224 223.751C417.961 223.659 417.688 223.601 417.411 223.578C416.818 223.528 416.221 223.552 415.634 223.648C414.412 223.851 413.213 224.175 412.055 224.615C410.875 225.056 409.739 225.559 408.571 226.103C407.402 226.635 406.215 227.129 405.017 227.595C402.627 228.573 400.137 229.286 397.591 229.722C396.307 229.941 394.997 229.969 393.705 229.805C392.393 229.663 391.18 229.042 390.298 228.06C390.29 228.05 390.286 228.038 390.287 228.025C390.288 228.012 390.294 228 390.303 227.992C390.313 227.983 390.325 227.979 390.338 227.979C390.351 227.98 390.363 227.985 390.372 227.994C391.29 228.862 392.489 229.37 393.751 229.426C395.004 229.501 396.262 229.405 397.49 229.139C399.958 228.581 402.367 227.789 404.684 226.774C407.031 225.812 409.247 224.579 411.686 223.626C412.915 223.154 414.19 222.811 415.49 222.604C416.165 222.498 416.851 222.483 417.53 222.558C417.888 222.596 418.241 222.68 418.579 222.807C418.981 222.94 419.338 223.184 419.608 223.51C419.675 223.591 419.711 223.693 419.709 223.797C419.708 223.902 419.669 224.003 419.6 224.082L419.573 224.112C416.481 227.622 413.353 231.102 410.125 234.49C406.885 237.868 403.73 241.316 400.416 244.634C399.587 245.464 398.737 246.277 397.834 247.043C396.934 247.865 395.894 248.519 394.763 248.976C394.173 249.139 393.568 249.239 392.957 249.273L392.091 249.393C391.783 249.426 391.472 249.442 391.162 249.441C389.89 249.439 388.655 249.016 387.648 248.24C386.688 247.459 385.924 246.466 385.415 245.339C385.155 244.796 384.938 244.233 384.768 243.656C384.63 243.104 384.44 242.565 384.2 242.049C383.117 239.994 381.854 238.039 380.426 236.208C380.418 236.198 380.414 236.185 380.415 236.172C380.417 236.158 380.423 236.146 380.434 236.138C380.444 236.131 380.456 236.127 380.469 236.128C380.481 236.129 380.493 236.135 380.501 236.144Z" fill="white"></path> <path d="M387.367 238.526C387.877 239.117 388.517 239.583 389.238 239.885C389.587 240.021 389.959 240.091 390.334 240.093C390.734 240.095 391.132 240.065 391.527 240.001C391.181 240.25 390.781 240.414 390.36 240.479C389.924 240.552 389.476 240.507 389.064 240.348C388.661 240.194 388.298 239.95 388.004 239.634C387.71 239.318 387.492 238.939 387.367 238.526Z" fill="white"></path> <path d="M389.968 240.773C389.629 240.77 389.294 240.708 388.976 240.59C388.536 240.421 388.14 240.154 387.818 239.808C387.496 239.463 387.258 239.049 387.121 238.598L386.827 237.584L387.554 238.349C388.035 238.914 388.642 239.357 389.326 239.644C389.648 239.769 389.99 239.834 390.336 239.836C390.677 239.841 391.017 239.817 391.354 239.764L392.569 239.614L391.67 240.215C391.291 240.487 390.853 240.665 390.391 240.734C390.251 240.761 390.11 240.774 389.968 240.773ZM390.843 249.254C390.843 249.254 389.461 251.894 394.095 254.555C394.095 254.555 395.232 256.097 399.926 251.197L424.823 227.864C424.823 227.864 422.841 222.066 418.268 224.86L412.568 231.303C412.568 231.303 410.631 226.129 409.058 225.323C407.373 224.863 405.583 224.975 403.968 225.641C402.354 226.307 401.005 227.489 400.135 229.003C400.135 229.003 405.993 234.723 403.312 241.078C403.312 241.078 396.234 247.089 390.843 249.254ZM370.437 67.0629V43.976C370.435 43.1874 370.12 42.4318 369.563 41.8741C369.005 41.3165 368.249 41.0022 367.461 41H326.339C325.551 41.0022 324.795 41.3165 324.237 41.8741C323.68 42.4317 323.365 43.1874 323.363 43.976V118.283C323.363 119.073 323.677 119.83 324.235 120.389C324.793 120.948 325.549 121.263 326.339 121.265H367.461C368.251 121.263 369.007 120.948 369.565 120.389C370.123 119.83 370.437 119.073 370.437 118.283V98.2429H365.39V113.676C365.39 114.33 365.13 114.957 364.667 115.419C364.205 115.882 363.578 116.142 362.924 116.142H330.876C330.223 116.141 329.597 115.881 329.135 115.419C328.674 114.956 328.415 114.329 328.415 113.676V48.589C328.415 48.2654 328.478 47.9447 328.601 47.6455C328.724 47.3462 328.905 47.0743 329.134 46.8451C329.363 46.616 329.634 46.4343 329.933 46.3103C330.232 46.1863 330.553 46.1225 330.876 46.1226H362.924C363.248 46.1224 363.568 46.1861 363.868 46.31C364.167 46.4338 364.439 46.6155 364.668 46.8446C364.897 47.0736 365.079 47.3456 365.203 47.6449C365.327 47.9443 365.39 48.2651 365.39 48.589V67.0629H370.437Z" fill="white"></path> <path d="M338.021 114.009C337.918 114.01 337.818 113.984 337.728 113.936C337.638 113.888 337.561 113.818 337.504 113.732L334.756 109.583C334.694 109.49 334.658 109.382 334.653 109.27C334.648 109.158 334.673 109.047 334.726 108.949C334.779 108.85 334.857 108.768 334.953 108.71C335.049 108.653 335.159 108.623 335.271 108.623C335.836 108.623 336.378 108.398 336.778 107.999C337.177 107.599 337.402 107.057 337.402 106.492C337.402 105.927 337.177 105.385 336.778 104.986C336.378 104.586 335.836 104.362 335.271 104.362C335.19 104.362 335.109 104.346 335.034 104.315C334.958 104.284 334.89 104.239 334.832 104.181C334.775 104.124 334.729 104.055 334.698 103.98C334.666 103.905 334.65 103.824 334.65 103.743C334.65 103.661 334.666 103.581 334.698 103.506C334.729 103.43 334.775 103.362 334.832 103.305C334.89 103.247 334.958 103.202 335.034 103.171C335.109 103.14 335.19 103.124 335.271 103.124C336.073 103.124 336.848 103.41 337.458 103.931C338.068 104.452 338.472 105.173 338.597 105.964C338.723 106.756 338.562 107.567 338.144 108.251C337.725 108.935 337.076 109.447 336.314 109.695L338.536 113.049C338.598 113.142 338.633 113.25 338.638 113.362C338.643 113.474 338.618 113.585 338.565 113.683C338.513 113.782 338.434 113.864 338.338 113.922C338.242 113.979 338.132 114.009 338.021 114.009Z" fill="white"></path> <path d="M340.154 104.362H332.056C331.975 104.362 331.894 104.346 331.819 104.315C331.744 104.284 331.675 104.239 331.617 104.181C331.56 104.124 331.514 104.055 331.483 103.98C331.452 103.905 331.436 103.824 331.436 103.743C331.436 103.661 331.452 103.581 331.483 103.506C331.514 103.43 331.56 103.362 331.617 103.305C331.675 103.247 331.744 103.202 331.819 103.171C331.894 103.14 331.975 103.124 332.056 103.124H340.154C340.235 103.124 340.316 103.14 340.391 103.171C340.467 103.202 340.535 103.247 340.593 103.305C340.65 103.362 340.696 103.43 340.727 103.506C340.759 103.581 340.775 103.661 340.775 103.743C340.775 103.824 340.759 103.905 340.727 103.98C340.696 104.055 340.65 104.124 340.593 104.181C340.535 104.239 340.467 104.284 340.391 104.315C340.316 104.346 340.235 104.362 340.154 104.362ZM340.154 109.861H332.056C331.975 109.861 331.894 109.845 331.819 109.814C331.744 109.783 331.675 109.737 331.617 109.68C331.56 109.622 331.514 109.554 331.483 109.479C331.452 109.404 331.436 109.323 331.436 109.242C331.436 109.16 331.452 109.08 331.483 109.004C331.514 108.929 331.56 108.861 331.617 108.803C331.675 108.746 331.744 108.7 331.819 108.669C331.894 108.638 331.975 108.623 332.056 108.623H340.154C340.235 108.623 340.316 108.638 340.391 108.669C340.467 108.7 340.535 108.746 340.593 108.803C340.65 108.861 340.696 108.929 340.727 109.004C340.759 109.08 340.775 109.16 340.775 109.242C340.775 109.323 340.759 109.404 340.727 109.479C340.696 109.554 340.65 109.622 340.593 109.68C340.535 109.737 340.467 109.783 340.391 109.814C340.316 109.845 340.235 109.861 340.154 109.861ZM348.941 114.009C348.839 114.01 348.739 113.984 348.648 113.936C348.558 113.888 348.482 113.818 348.425 113.732L345.676 109.583C345.614 109.49 345.579 109.382 345.573 109.27C345.568 109.158 345.593 109.047 345.646 108.949C345.699 108.85 345.778 108.768 345.874 108.71C345.97 108.653 346.08 108.623 346.191 108.623C346.756 108.623 347.298 108.398 347.698 107.999C348.098 107.599 348.322 107.057 348.322 106.492C348.322 105.927 348.098 105.385 347.698 104.986C347.298 104.586 346.756 104.362 346.191 104.362C346.028 104.361 345.871 104.296 345.755 104.18C345.639 104.064 345.574 103.907 345.574 103.743C345.574 103.579 345.639 103.422 345.755 103.306C345.871 103.19 346.028 103.125 346.191 103.124C346.993 103.124 347.769 103.41 348.379 103.931C348.988 104.451 349.392 105.173 349.518 105.964C349.644 106.756 349.483 107.567 349.064 108.251C348.646 108.935 347.997 109.447 347.234 109.695L349.457 113.049C349.518 113.142 349.554 113.25 349.559 113.362C349.564 113.474 349.539 113.585 349.486 113.683C349.433 113.782 349.355 113.864 349.259 113.921C349.163 113.979 349.053 114.009 348.941 114.009Z" fill="white"></path> <path d="M351.072 104.362H342.974C342.893 104.362 342.812 104.346 342.737 104.315C342.662 104.284 342.593 104.239 342.535 104.181C342.478 104.124 342.432 104.055 342.401 103.98C342.37 103.905 342.354 103.824 342.354 103.743C342.354 103.661 342.37 103.581 342.401 103.506C342.432 103.43 342.478 103.362 342.535 103.305C342.593 103.247 342.662 103.202 342.737 103.171C342.812 103.14 342.893 103.124 342.974 103.124H351.072C351.154 103.124 351.235 103.14 351.31 103.171C351.385 103.202 351.454 103.247 351.511 103.305C351.569 103.362 351.615 103.43 351.646 103.506C351.677 103.581 351.693 103.661 351.693 103.743C351.693 103.824 351.677 103.905 351.646 103.98C351.615 104.055 351.569 104.124 351.511 104.181C351.454 104.239 351.385 104.284 351.31 104.315C351.235 104.346 351.154 104.362 351.072 104.362ZM351.072 109.861H342.974C342.893 109.861 342.812 109.845 342.737 109.814C342.662 109.783 342.593 109.737 342.535 109.68C342.478 109.622 342.432 109.554 342.401 109.479C342.37 109.404 342.354 109.323 342.354 109.242C342.354 109.16 342.37 109.08 342.401 109.004C342.432 108.929 342.478 108.861 342.535 108.803C342.593 108.746 342.662 108.7 342.737 108.669C342.812 108.638 342.893 108.623 342.974 108.623H351.072C351.154 108.623 351.235 108.638 351.31 108.669C351.385 108.7 351.454 108.746 351.511 108.803C351.569 108.861 351.615 108.929 351.646 109.004C351.677 109.08 351.693 109.16 351.693 109.242C351.693 109.323 351.677 109.404 351.646 109.479C351.615 109.554 351.569 109.622 351.511 109.68C351.454 109.737 351.385 109.783 351.31 109.814C351.235 109.845 351.154 109.861 351.072 109.861ZM359.613 114.009C359.511 114.01 359.41 113.984 359.32 113.936C359.23 113.888 359.153 113.818 359.097 113.732L356.347 109.583C356.285 109.49 356.25 109.382 356.245 109.27C356.239 109.158 356.265 109.047 356.318 108.949C356.37 108.85 356.449 108.768 356.545 108.71C356.641 108.653 356.751 108.623 356.863 108.623C357.428 108.623 357.97 108.398 358.369 107.999C358.769 107.599 358.993 107.057 358.993 106.492C358.993 105.927 358.769 105.385 358.369 104.986C357.97 104.586 357.428 104.362 356.863 104.362C356.781 104.362 356.701 104.346 356.625 104.315C356.55 104.284 356.482 104.239 356.424 104.181C356.366 104.124 356.321 104.055 356.289 103.98C356.258 103.905 356.242 103.824 356.242 103.743C356.242 103.661 356.258 103.581 356.289 103.506C356.321 103.43 356.366 103.362 356.424 103.305C356.482 103.247 356.55 103.202 356.625 103.171C356.701 103.14 356.781 103.124 356.863 103.124C357.665 103.124 358.44 103.41 359.05 103.931C359.66 104.451 360.064 105.173 360.189 105.964C360.315 106.756 360.154 107.567 359.736 108.251C359.317 108.935 358.668 109.447 357.906 109.695L360.128 113.049C360.19 113.142 360.225 113.25 360.23 113.362C360.235 113.474 360.21 113.585 360.157 113.683C360.105 113.782 360.026 113.864 359.93 113.921C359.834 113.979 359.725 114.009 359.613 114.009Z" fill="white"></path> <path d="M361.746 104.362H353.648C353.567 104.362 353.486 104.346 353.411 104.315C353.336 104.284 353.267 104.239 353.209 104.181C353.152 104.124 353.106 104.055 353.075 103.98C353.044 103.905 353.027 103.824 353.027 103.743C353.027 103.662 353.044 103.581 353.075 103.506C353.106 103.431 353.152 103.362 353.209 103.305C353.267 103.247 353.336 103.202 353.411 103.171C353.486 103.14 353.567 103.124 353.648 103.124H361.746C361.828 103.124 361.909 103.14 361.984 103.171C362.059 103.202 362.128 103.247 362.185 103.305C362.243 103.362 362.289 103.431 362.32 103.506C362.351 103.581 362.367 103.662 362.367 103.743C362.367 103.824 362.351 103.905 362.32 103.98C362.289 104.055 362.243 104.124 362.185 104.181C362.128 104.239 362.059 104.284 361.984 104.315C361.909 104.346 361.828 104.362 361.746 104.362ZM361.746 109.861H353.648C353.567 109.861 353.486 109.845 353.411 109.814C353.336 109.783 353.267 109.738 353.209 109.68C353.152 109.623 353.106 109.554 353.075 109.479C353.044 109.404 353.027 109.323 353.027 109.242C353.027 109.16 353.044 109.08 353.075 109.005C353.106 108.929 353.152 108.861 353.209 108.804C353.267 108.746 353.336 108.701 353.411 108.67C353.486 108.639 353.567 108.623 353.648 108.623H361.746C361.828 108.623 361.909 108.639 361.984 108.67C362.059 108.701 362.128 108.746 362.185 108.804C362.243 108.861 362.289 108.929 362.32 109.005C362.351 109.08 362.367 109.16 362.367 109.242C362.367 109.323 362.351 109.404 362.32 109.479C362.289 109.554 362.243 109.623 362.185 109.68C362.128 109.738 362.059 109.783 361.984 109.814C361.909 109.845 361.828 109.861 361.746 109.861ZM401.694 67.009C402.158 67.0099 402.607 67.1789 402.957 67.4848C403.307 67.7907 403.535 68.2129 403.598 68.6734C403.637 69.5805 403.609 70.4632 403.627 71.3592C403.649 73.145 403.655 74.9308 403.695 76.7166L403.893 87.4312L403.983 92.7886L404.016 95.4672L404.019 96.1369C404.031 96.3952 404.012 96.654 403.963 96.9078C403.839 97.4606 403.516 97.9487 403.056 98.2796C402.828 98.4446 402.572 98.5671 402.301 98.6414C402.044 98.7075 401.778 98.7363 401.513 98.7269L400.173 98.7286L397.495 98.7165L392.138 98.6923L381.423 98.545L376.065 98.466L370.708 98.4309C363.565 98.3753 356.422 98.4523 349.279 98.54C348.751 98.5436 348.241 98.3558 347.841 98.0113C347.442 97.6669 347.181 97.1892 347.107 96.6671C347.085 96.4307 347.076 96.1935 347.079 95.9562L347.07 95.2865L347.051 93.9472L346.991 88.5899L346.911 77.8752L346.884 72.5178L346.87 69.8392L346.867 69.1695C346.855 68.9048 346.874 68.6396 346.925 68.3795C347.021 67.951 347.233 67.5569 347.537 67.2396C347.841 66.9223 348.225 66.6939 348.649 66.5789C348.79 66.5401 348.934 66.5146 349.079 66.5025L349.292 66.4922L349.459 66.4914L350.799 66.4883L353.478 66.4936L358.835 66.5042C365.978 66.5027 373.121 66.5553 380.264 66.7064C387.407 66.8474 394.55 67.0131 401.694 67.009ZM401.694 67.1174C394.55 67.1133 387.407 67.279 380.264 67.42C373.121 67.5711 365.978 67.6236 358.835 67.6222L353.478 67.6328L350.799 67.6381L349.459 67.635L349.292 67.6341L349.17 67.639C349.093 67.6445 349.017 67.6572 348.942 67.6771C348.716 67.7361 348.509 67.8558 348.346 68.0232C348.182 68.1907 348.067 68.3995 348.013 68.6274C347.979 68.806 347.967 68.9879 347.976 69.1695L347.972 69.8392L347.959 72.5178L347.931 77.8752L347.851 88.5899L347.791 93.9472L347.773 95.2865L347.764 95.9562C347.763 96.177 347.751 96.4178 347.769 96.5831C347.813 96.9547 347.99 97.2976 348.268 97.5484C348.545 97.7991 348.905 97.9405 349.279 97.9464C356.422 98.0341 363.565 98.1111 370.708 98.0555L376.065 98.0204L381.423 97.9415L392.137 97.7941L397.495 97.7699L400.173 97.7578L401.513 97.7596C401.694 97.7719 401.876 97.7565 402.052 97.7139C402.213 97.6718 402.364 97.6012 402.5 97.5055C402.775 97.3127 402.97 97.0253 403.047 96.698C403.083 96.5133 403.096 96.3249 403.087 96.137L403.09 95.4673L403.123 92.7886L403.213 87.4313L403.411 76.7166C403.45 74.9308 403.457 73.145 403.479 71.3592C403.482 70.4702 403.502 69.5648 403.474 68.6892C403.417 68.2565 403.205 67.859 402.878 67.5701C402.551 67.2813 402.13 67.1205 401.694 67.1174Z" fill="white"></path> <path d="M403.549 73.5337H347.42V76.6273H403.549V73.5337Z" fill="white"></path> <path d="M396.273 94.8662C397.933 94.8662 399.28 93.5199 399.28 91.8591C399.28 90.1984 397.933 88.8521 396.273 88.8521C394.612 88.8521 393.266 90.1984 393.266 91.8591C393.266 93.5199 394.612 94.8662 396.273 94.8662Z" fill="white"></path> <path d="M355.832 47.362H337.969C337.806 47.3624 337.645 47.3306 337.494 47.2686C337.344 47.2065 337.207 47.1155 337.092 47.0005C336.977 46.8856 336.885 46.7491 336.823 46.5987C336.761 46.4484 336.729 46.2873 336.729 46.1246C336.729 45.9619 336.761 45.8008 336.823 45.6505C336.885 45.5002 336.977 45.3636 337.092 45.2487C337.207 45.1338 337.344 45.0427 337.494 44.9806C337.645 44.9186 337.806 44.8869 337.969 44.8872H355.832C355.995 44.8869 356.156 44.9186 356.306 44.9806C356.457 45.0427 356.594 45.1338 356.709 45.2487C356.824 45.3636 356.915 45.5002 356.978 45.6505C357.04 45.8008 357.072 45.9619 357.072 46.1246C357.072 46.2873 357.04 46.4484 356.978 46.5987C356.915 46.7491 356.824 46.8856 356.709 47.0005C356.594 47.1155 356.457 47.2065 356.306 47.2686C356.156 47.3306 355.995 47.3624 355.832 47.362ZM347.42 79.9122V90.6283C346.024 90.5907 344.698 90.0097 343.724 89.009C342.75 88.0083 342.204 86.6668 342.204 85.2703C342.204 83.8737 342.75 82.5323 343.724 81.5315C344.698 80.5308 346.024 79.9498 347.42 79.9122Z" fill="white"></path> <path d="M365.388 52.3237H328.414V54.1795H365.388V52.3237Z" fill="white"></path> <path d="M307.357 134.254C307.929 134.553 308.458 134.931 308.927 135.375C309.176 135.609 309.392 135.876 309.567 136.169C309.782 136.507 309.875 136.908 309.829 137.306C309.79 137.527 309.7 137.735 309.568 137.916C309.441 138.08 309.286 138.22 309.11 138.33C308.797 138.517 308.454 138.65 308.097 138.724C307.444 138.857 306.774 138.89 306.111 138.821C304.845 138.647 303.594 138.371 302.372 137.994C301.154 137.662 299.932 137.355 298.713 137.001C297.484 136.664 296.288 136.22 295.137 135.673C293.962 135.143 292.848 134.486 291.815 133.713C291.287 133.306 290.808 132.84 290.386 132.324C290.162 132.045 289.976 131.737 289.834 131.408C289.661 131.025 289.632 130.592 289.754 130.189C289.826 129.995 289.939 129.818 290.083 129.67C290.228 129.522 290.402 129.405 290.595 129.328C290.913 129.19 291.252 129.106 291.598 129.079C292.243 129.029 292.892 129.067 293.526 129.192L293.521 129.295C292.904 129.338 292.293 129.439 291.695 129.595C291.421 129.669 291.159 129.781 290.916 129.928C290.821 129.979 290.738 130.05 290.671 130.135C290.605 130.22 290.556 130.318 290.529 130.423C290.456 130.769 290.767 131.276 291.149 131.683C291.555 132.112 292.001 132.5 292.481 132.843C293.465 133.57 294.499 134.227 295.574 134.811C296.664 135.389 297.773 135.949 298.907 136.473C301.16 137.559 303.647 138.072 306.146 137.967C306.737 137.969 307.327 137.924 307.91 137.833C308.463 137.732 308.969 137.499 309.047 137.158C309.085 136.927 309.051 136.691 308.95 136.48C308.832 136.217 308.686 135.967 308.515 135.734C308.139 135.243 307.731 134.776 307.295 134.336L307.357 134.254Z" fill="white"></path> <path d="M305.905 137.858C306.492 138.145 307.042 138.5 307.545 138.917C307.807 139.132 308.045 139.373 308.257 139.637C308.498 139.921 308.673 140.255 308.77 140.616C308.826 140.832 308.83 141.059 308.782 141.277C308.734 141.496 308.634 141.7 308.492 141.873C308.222 142.168 307.877 142.386 307.494 142.503C306.836 142.706 306.145 142.783 305.459 142.729C304.166 142.59 302.888 142.334 301.641 141.965C300.4 141.644 299.157 141.339 297.917 140.99C296.667 140.657 295.449 140.214 294.278 139.666C293.082 139.135 291.947 138.478 290.892 137.705C290.354 137.298 289.862 136.834 289.424 136.321C289.194 136.045 288.999 135.743 288.841 135.42C288.654 135.048 288.594 134.623 288.672 134.214C288.727 134.008 288.827 133.816 288.965 133.653C289.102 133.49 289.273 133.358 289.467 133.268C289.787 133.116 290.132 133.022 290.485 132.989C291.14 132.929 291.799 132.963 292.444 133.088L292.439 133.191C291.814 133.234 291.194 133.339 290.589 133.504C290.314 133.582 290.052 133.7 289.812 133.855C289.721 133.911 289.643 133.987 289.583 134.075C289.523 134.164 289.483 134.265 289.466 134.371C289.532 134.875 289.784 135.336 290.172 135.664C290.595 136.092 291.055 136.482 291.548 136.827C292.555 137.556 293.611 138.216 294.708 138.8C295.82 139.379 296.95 139.94 298.106 140.46C299.262 140.986 300.472 141.382 301.715 141.64C302.951 141.865 304.21 141.944 305.465 141.874C306.054 141.862 306.64 141.783 307.21 141.638C307.443 141.581 307.658 141.465 307.833 141.3C307.901 141.232 307.951 141.148 307.978 141.055C308.005 140.963 308.009 140.865 307.989 140.771C307.838 140.221 307.553 139.718 307.16 139.305C306.76 138.835 306.306 138.391 305.846 137.942L305.905 137.858Z" fill="white"></path> </svg> 