<?xml version="1.0" encoding="UTF-8"?> <svg xmlns="http://www.w3.org/2000/svg" width="600" height="400" viewBox="0 0 600 400" fill="none"> <rect width="600" height="400" rx="20" fill="#0BA360"></rect> <path d="M121.129 322V315.51L115.739 306.16H118.83L122.471 312.474L126.101 306.16H129.192L123.813 315.51V322H121.129ZM136.547 322.33C134.963 322.33 133.606 321.985 132.477 321.296C131.347 320.599 130.478 319.631 129.87 318.392C129.268 317.153 128.968 315.715 128.968 314.08C128.968 312.445 129.268 311.007 129.87 309.768C130.478 308.529 131.347 307.564 132.477 306.875C133.606 306.178 134.963 305.83 136.547 305.83C138.131 305.83 139.487 306.178 140.617 306.875C141.753 307.564 142.622 308.529 143.224 309.768C143.832 311.007 144.137 312.445 144.137 314.08C144.137 315.715 143.832 317.153 143.224 318.392C142.622 319.631 141.753 320.599 140.617 321.296C139.487 321.985 138.131 322.33 136.547 322.33ZM136.547 319.833C137.61 319.84 138.494 319.606 139.198 319.129C139.909 318.652 140.441 317.981 140.793 317.116C141.152 316.251 141.332 315.239 141.332 314.08C141.332 312.921 141.152 311.917 140.793 311.066C140.441 310.208 139.909 309.541 139.198 309.064C138.494 308.587 137.61 308.342 136.547 308.327C135.483 308.32 134.6 308.554 133.896 309.031C133.192 309.508 132.66 310.179 132.301 311.044C131.949 311.909 131.773 312.921 131.773 314.08C131.773 315.239 131.949 316.247 132.301 317.105C132.653 317.956 133.181 318.619 133.885 319.096C134.596 319.573 135.483 319.818 136.547 319.833ZM152.706 322.33C151.445 322.33 150.334 322.073 149.373 321.56C148.42 321.047 147.672 320.324 147.129 319.393C146.594 318.462 146.326 317.369 146.326 316.115V306.182L149.01 306.16V316.049C149.01 316.643 149.109 317.175 149.307 317.644C149.512 318.113 149.787 318.513 150.132 318.843C150.477 319.166 150.873 319.411 151.32 319.58C151.767 319.749 152.229 319.833 152.706 319.833C153.197 319.833 153.663 319.749 154.103 319.58C154.55 319.404 154.946 319.155 155.291 318.832C155.636 318.502 155.907 318.102 156.105 317.633C156.303 317.164 156.402 316.636 156.402 316.049V306.16H159.086V316.115C159.086 317.369 158.815 318.462 158.272 319.393C157.737 320.324 156.989 321.047 156.028 321.56C155.075 322.073 153.967 322.33 152.706 322.33ZM173.263 322.33C171.679 322.33 170.323 321.985 169.193 321.296C168.064 320.599 167.195 319.631 166.586 318.392C165.985 317.153 165.684 315.715 165.684 314.08C165.684 312.445 165.985 311.007 166.586 309.768C167.195 308.529 168.064 307.564 169.193 306.875C170.323 306.178 171.679 305.83 173.263 305.83C175.089 305.83 176.611 306.288 177.828 307.205C179.046 308.114 179.9 309.343 180.391 310.89L177.718 311.627C177.41 310.593 176.886 309.786 176.145 309.207C175.405 308.62 174.444 308.327 173.263 308.327C172.2 308.327 171.313 308.565 170.601 309.042C169.897 309.519 169.366 310.19 169.006 311.055C168.654 311.913 168.475 312.921 168.467 314.08C168.467 315.239 168.643 316.251 168.995 317.116C169.355 317.974 169.89 318.641 170.601 319.118C171.313 319.595 172.2 319.833 173.263 319.833C174.444 319.833 175.405 319.54 176.145 318.953C176.886 318.366 177.41 317.56 177.718 316.533L180.391 317.27C179.9 318.817 179.046 320.049 177.828 320.966C176.611 321.875 175.089 322.33 173.263 322.33ZM181.277 322L186.271 306.16H190.154L195.148 322H192.42L187.888 307.788H188.482L184.005 322H181.277ZM184.06 318.568V316.093H192.376V318.568H184.06ZM197.137 322V306.16H199.821L207.169 317.325V306.16H209.853V322H207.169L199.821 310.835V322H197.137ZM223.195 322.33C222.036 322.33 220.991 322.128 220.06 321.725C219.136 321.322 218.373 320.746 217.772 319.998C217.178 319.243 216.8 318.348 216.639 317.314L219.389 316.896C219.624 317.835 220.104 318.561 220.83 319.074C221.563 319.587 222.407 319.844 223.36 319.844C223.925 319.844 224.456 319.756 224.955 319.58C225.454 319.404 225.857 319.147 226.165 318.81C226.48 318.473 226.638 318.058 226.638 317.567C226.638 317.347 226.601 317.145 226.528 316.962C226.455 316.771 226.345 316.603 226.198 316.456C226.059 316.309 225.875 316.177 225.648 316.06C225.428 315.935 225.171 315.829 224.878 315.741L220.786 314.531C220.434 314.428 220.053 314.293 219.642 314.124C219.239 313.948 218.854 313.71 218.487 313.409C218.128 313.101 217.831 312.712 217.596 312.243C217.369 311.766 217.255 311.18 217.255 310.483C217.255 309.464 217.512 308.609 218.025 307.92C218.546 307.223 219.242 306.703 220.115 306.358C220.995 306.013 221.97 305.845 223.041 305.852C224.126 305.859 225.094 306.046 225.945 306.413C226.796 306.772 227.507 307.297 228.079 307.986C228.651 308.675 229.054 309.508 229.289 310.483L226.44 310.978C226.323 310.421 226.095 309.948 225.758 309.559C225.428 309.163 225.021 308.862 224.537 308.657C224.06 308.452 223.551 308.342 223.008 308.327C222.48 308.32 221.989 308.4 221.534 308.569C221.087 308.73 220.724 308.965 220.445 309.273C220.174 309.581 220.038 309.94 220.038 310.351C220.038 310.74 220.155 311.059 220.39 311.308C220.625 311.55 220.914 311.744 221.259 311.891C221.611 312.03 221.967 312.148 222.326 312.243L225.164 313.035C225.553 313.138 225.989 313.277 226.473 313.453C226.957 313.629 227.423 313.875 227.87 314.19C228.317 314.505 228.684 314.92 228.97 315.433C229.263 315.946 229.41 316.599 229.41 317.391C229.41 318.212 229.238 318.935 228.893 319.558C228.556 320.174 228.097 320.687 227.518 321.098C226.939 321.509 226.275 321.817 225.527 322.022C224.786 322.227 224.009 322.33 223.195 322.33ZM231.791 322V306.16H242.021V308.646H234.442V312.551H240.701V315.037H234.442V319.514H242.021V322H231.791ZM248.466 322V308.646H243.34V306.16H256.243V308.646H251.117V322H248.466ZM268.12 322.33C266.859 322.33 265.748 322.073 264.787 321.56C263.834 321.047 263.086 320.324 262.543 319.393C262.008 318.462 261.74 317.369 261.74 316.115V306.182L264.424 306.16V316.049C264.424 316.643 264.523 317.175 264.721 317.644C264.927 318.113 265.202 318.513 265.546 318.843C265.891 319.166 266.287 319.411 266.734 319.58C267.182 319.749 267.644 319.833 268.12 319.833C268.612 319.833 269.077 319.749 269.517 319.58C269.965 319.404 270.361 319.155 270.705 318.832C271.05 318.502 271.321 318.102 271.519 317.633C271.717 317.164 271.816 316.636 271.816 316.049V306.16H274.5V316.115C274.5 317.369 274.229 318.462 273.686 319.393C273.151 320.324 272.403 321.047 271.442 321.56C270.489 322.073 269.382 322.33 268.12 322.33ZM277.574 322V306.16H284.119C284.273 306.16 284.471 306.167 284.713 306.182C284.955 306.189 285.179 306.211 285.384 306.248C286.301 306.387 287.056 306.692 287.65 307.161C288.252 307.63 288.695 308.224 288.981 308.943C289.275 309.654 289.421 310.446 289.421 311.319C289.421 312.184 289.275 312.976 288.981 313.695C288.688 314.406 288.241 314.997 287.639 315.466C287.045 315.935 286.294 316.24 285.384 316.379C285.179 316.408 284.952 316.43 284.702 316.445C284.46 316.46 284.266 316.467 284.119 316.467H280.225V322H277.574ZM280.225 313.992H284.009C284.156 313.992 284.321 313.985 284.504 313.97C284.688 313.955 284.856 313.926 285.01 313.882C285.45 313.772 285.795 313.578 286.044 313.299C286.301 313.02 286.481 312.705 286.583 312.353C286.693 312.001 286.748 311.656 286.748 311.319C286.748 310.982 286.693 310.637 286.583 310.285C286.481 309.926 286.301 309.607 286.044 309.328C285.795 309.049 285.45 308.855 285.01 308.745C284.856 308.701 284.688 308.675 284.504 308.668C284.321 308.653 284.156 308.646 284.009 308.646H280.225V313.992ZM294.929 322L299.923 306.16H303.806L308.8 322H306.072L301.54 307.788H302.134L297.657 322H294.929ZM297.712 318.568V316.093H306.028V318.568H297.712ZM315.193 322V306.16H321.474C322.545 306.16 323.421 306.376 324.103 306.809C324.793 307.234 325.302 307.781 325.632 308.448C325.97 309.115 326.138 309.805 326.138 310.516C326.138 311.389 325.929 312.129 325.511 312.738C325.101 313.347 324.54 313.757 323.828 313.97V313.42C324.826 313.647 325.581 314.12 326.094 314.839C326.615 315.558 326.875 316.375 326.875 317.292C326.875 318.231 326.696 319.052 326.336 319.756C325.977 320.46 325.442 321.01 324.73 321.406C324.026 321.802 323.154 322 322.112 322H315.193ZM317.877 319.503H321.782C322.244 319.503 322.659 319.411 323.025 319.228C323.392 319.037 323.678 318.773 323.883 318.436C324.096 318.091 324.202 317.684 324.202 317.215C324.202 316.79 324.111 316.408 323.927 316.071C323.744 315.734 323.476 315.466 323.124 315.268C322.772 315.063 322.351 314.96 321.859 314.96H317.877V319.503ZM317.877 312.485H321.441C321.823 312.485 322.164 312.412 322.464 312.265C322.765 312.118 323.003 311.902 323.179 311.616C323.355 311.33 323.443 310.978 323.443 310.56C323.443 310.01 323.267 309.552 322.915 309.185C322.563 308.818 322.072 308.635 321.441 308.635H317.877V312.485ZM335.452 322.33C334.191 322.33 333.08 322.073 332.119 321.56C331.166 321.047 330.418 320.324 329.875 319.393C329.34 318.462 329.072 317.369 329.072 316.115V306.182L331.756 306.16V316.049C331.756 316.643 331.855 317.175 332.053 317.644C332.259 318.113 332.534 318.513 332.878 318.843C333.223 319.166 333.619 319.411 334.066 319.58C334.514 319.749 334.976 319.833 335.452 319.833C335.944 319.833 336.409 319.749 336.849 319.58C337.297 319.404 337.693 319.155 338.037 318.832C338.382 318.502 338.653 318.102 338.851 317.633C339.049 317.164 339.148 316.636 339.148 316.049V306.16H341.832V316.115C341.832 317.369 341.561 318.462 341.018 319.393C340.483 320.324 339.735 321.047 338.774 321.56C337.821 322.073 336.714 322.33 335.452 322.33ZM350.103 322.33C348.945 322.33 347.9 322.128 346.968 321.725C346.044 321.322 345.282 320.746 344.68 319.998C344.086 319.243 343.709 318.348 343.547 317.314L346.297 316.896C346.532 317.835 347.012 318.561 347.738 319.074C348.472 319.587 349.315 319.844 350.268 319.844C350.833 319.844 351.365 319.756 351.863 319.58C352.362 319.404 352.765 319.147 353.073 318.81C353.389 318.473 353.546 318.058 353.546 317.567C353.546 317.347 353.51 317.145 353.436 316.962C353.363 316.771 353.253 316.603 353.106 316.456C352.967 316.309 352.784 316.177 352.556 316.06C352.336 315.935 352.08 315.829 351.786 315.741L347.694 314.531C347.342 314.428 346.961 314.293 346.55 314.124C346.147 313.948 345.762 313.71 345.395 313.409C345.036 313.101 344.739 312.712 344.504 312.243C344.277 311.766 344.163 311.18 344.163 310.483C344.163 309.464 344.42 308.609 344.933 307.92C345.454 307.223 346.151 306.703 347.023 306.358C347.903 306.013 348.879 305.845 349.949 305.852C351.035 305.859 352.003 306.046 352.853 306.413C353.704 306.772 354.415 307.297 354.987 307.986C355.559 308.675 355.963 309.508 356.197 310.483L353.348 310.978C353.231 310.421 353.004 309.948 352.666 309.559C352.336 309.163 351.929 308.862 351.445 308.657C350.969 308.452 350.459 308.342 349.916 308.327C349.388 308.32 348.897 308.4 348.442 308.569C347.995 308.73 347.632 308.965 347.353 309.273C347.082 309.581 346.946 309.94 346.946 310.351C346.946 310.74 347.064 311.059 347.298 311.308C347.533 311.55 347.823 311.744 348.167 311.891C348.519 312.03 348.875 312.148 349.234 312.243L352.072 313.035C352.461 313.138 352.897 313.277 353.381 313.453C353.865 313.629 354.331 313.875 354.778 314.19C355.226 314.505 355.592 314.92 355.878 315.433C356.172 315.946 356.318 316.599 356.318 317.391C356.318 318.212 356.146 318.935 355.801 319.558C355.464 320.174 355.006 320.687 354.426 321.098C353.847 321.509 353.183 321.817 352.435 322.022C351.695 322.227 350.917 322.33 350.103 322.33ZM358.919 322V306.16H361.57V322H358.919ZM364.865 322V306.16H367.549L374.897 317.325V306.16H377.581V322H374.897L367.549 310.835V322H364.865ZM380.656 322V306.16H390.886V308.646H383.307V312.551H389.566V315.037H383.307V319.514H390.886V322H380.656ZM399.238 322.33C398.079 322.33 397.034 322.128 396.103 321.725C395.179 321.322 394.416 320.746 393.815 319.998C393.221 319.243 392.843 318.348 392.682 317.314L395.432 316.896C395.667 317.835 396.147 318.561 396.873 319.074C397.606 319.587 398.45 319.844 399.403 319.844C399.968 319.844 400.499 319.756 400.998 319.58C401.497 319.404 401.9 319.147 402.208 318.81C402.523 318.473 402.681 318.058 402.681 317.567C402.681 317.347 402.644 317.145 402.571 316.962C402.498 316.771 402.388 316.603 402.241 316.456C402.102 316.309 401.918 316.177 401.691 316.06C401.471 315.935 401.214 315.829 400.921 315.741L396.829 314.531C396.477 314.428 396.096 314.293 395.685 314.124C395.282 313.948 394.897 313.71 394.53 313.409C394.171 313.101 393.874 312.712 393.639 312.243C393.412 311.766 393.298 311.18 393.298 310.483C393.298 309.464 393.555 308.609 394.068 307.92C394.589 307.223 395.285 306.703 396.158 306.358C397.038 306.013 398.013 305.845 399.084 305.852C400.169 305.859 401.137 306.046 401.988 306.413C402.839 306.772 403.55 307.297 404.122 307.986C404.694 308.675 405.097 309.508 405.332 310.483L402.483 310.978C402.366 310.421 402.138 309.948 401.801 309.559C401.471 309.163 401.064 308.862 400.58 308.657C400.103 308.452 399.594 308.342 399.051 308.327C398.523 308.32 398.032 308.4 397.577 308.569C397.13 308.73 396.767 308.965 396.488 309.273C396.217 309.581 396.081 309.94 396.081 310.351C396.081 310.74 396.198 311.059 396.433 311.308C396.668 311.55 396.957 311.744 397.302 311.891C397.654 312.03 398.01 312.148 398.369 312.243L401.207 313.035C401.596 313.138 402.032 313.277 402.516 313.453C403 313.629 403.466 313.875 403.913 314.19C404.36 314.505 404.727 314.92 405.013 315.433C405.306 315.946 405.453 316.599 405.453 317.391C405.453 318.212 405.281 318.935 404.936 319.558C404.599 320.174 404.14 320.687 403.561 321.098C402.982 321.509 402.318 321.817 401.57 322.022C400.829 322.227 400.052 322.33 399.238 322.33ZM414.019 322.33C412.861 322.33 411.816 322.128 410.884 321.725C409.96 321.322 409.198 320.746 408.596 319.998C408.002 319.243 407.625 318.348 407.463 317.314L410.213 316.896C410.448 317.835 410.928 318.561 411.654 319.074C412.388 319.587 413.231 319.844 414.184 319.844C414.749 319.844 415.281 319.756 415.779 319.58C416.278 319.404 416.681 319.147 416.989 318.81C417.305 318.473 417.462 318.058 417.462 317.567C417.462 317.347 417.426 317.145 417.352 316.962C417.279 316.771 417.169 316.603 417.022 316.456C416.883 316.309 416.7 316.177 416.472 316.06C416.252 315.935 415.996 315.829 415.702 315.741L411.61 314.531C411.258 314.428 410.877 314.293 410.466 314.124C410.063 313.948 409.678 313.71 409.311 313.409C408.952 313.101 408.655 312.712 408.42 312.243C408.193 311.766 408.079 311.18 408.079 310.483C408.079 309.464 408.336 308.609 408.849 307.92C409.37 307.223 410.067 306.703 410.939 306.358C411.819 306.013 412.795 305.845 413.865 305.852C414.951 305.859 415.919 306.046 416.769 306.413C417.62 306.772 418.331 307.297 418.903 307.986C419.475 308.675 419.879 309.508 420.113 310.483L417.264 310.978C417.147 310.421 416.92 309.948 416.582 309.559C416.252 309.163 415.845 308.862 415.361 308.657C414.885 308.452 414.375 308.342 413.832 308.327C413.304 308.32 412.813 308.4 412.358 308.569C411.911 308.73 411.548 308.965 411.269 309.273C410.998 309.581 410.862 309.94 410.862 310.351C410.862 310.74 410.98 311.059 411.214 311.308C411.449 311.55 411.739 311.744 412.083 311.891C412.435 312.03 412.791 312.148 413.15 312.243L415.988 313.035C416.377 313.138 416.813 313.277 417.297 313.453C417.781 313.629 418.247 313.875 418.694 314.19C419.142 314.505 419.508 314.92 419.794 315.433C420.088 315.946 420.234 316.599 420.234 317.391C420.234 318.212 420.062 318.935 419.717 319.558C419.38 320.174 418.922 320.687 418.342 321.098C417.763 321.509 417.099 321.817 416.351 322.022C415.611 322.227 414.833 322.33 414.019 322.33ZM433.718 322.33C432.134 322.33 430.778 321.985 429.648 321.296C428.519 320.599 427.65 319.631 427.041 318.392C426.44 317.153 426.139 315.715 426.139 314.08C426.139 312.445 426.44 311.007 427.041 309.768C427.65 308.529 428.519 307.564 429.648 306.875C430.778 306.178 432.134 305.83 433.718 305.83C435.302 305.83 436.659 306.178 437.788 306.875C438.925 307.564 439.794 308.529 440.395 309.768C441.004 311.007 441.308 312.445 441.308 314.08C441.308 315.715 441.004 317.153 440.395 318.392C439.794 319.631 438.925 320.599 437.788 321.296C436.659 321.985 435.302 322.33 433.718 322.33ZM433.718 319.833C434.782 319.84 435.665 319.606 436.369 319.129C437.081 318.652 437.612 317.981 437.964 317.116C438.324 316.251 438.503 315.239 438.503 314.08C438.503 312.921 438.324 311.917 437.964 311.066C437.612 310.208 437.081 309.541 436.369 309.064C435.665 308.587 434.782 308.342 433.718 308.327C432.655 308.32 431.771 308.554 431.067 309.031C430.363 309.508 429.832 310.179 429.472 311.044C429.12 311.909 428.944 312.921 428.944 314.08C428.944 315.239 429.12 316.247 429.472 317.105C429.824 317.956 430.352 318.619 431.056 319.096C431.768 319.573 432.655 319.818 433.718 319.833ZM443.498 322V306.16H446.182L453.53 317.325V306.16H456.214V322H453.53L446.182 310.835V322H443.498ZM459.509 322V306.16H462.16V319.514H469.156V322H459.509ZM472.678 322V315.51L467.288 306.16H470.379L474.02 312.474L477.65 306.16H480.741L475.362 315.51V322H472.678ZM167.139 353V337.16H169.79V353H167.139ZM173.085 353V337.16H182.622V339.811H175.736V343.76H181.302V346.4H175.736V353H173.085ZM192.855 353V346.51L187.465 337.16H190.556L194.197 343.474L197.827 337.16H200.918L195.539 346.51V353H192.855ZM208.272 353.33C206.688 353.33 205.332 352.985 204.202 352.296C203.073 351.599 202.204 350.631 201.595 349.392C200.994 348.153 200.693 346.715 200.693 345.08C200.693 343.445 200.994 342.007 201.595 340.768C202.204 339.529 203.073 338.564 204.202 337.875C205.332 337.178 206.688 336.83 208.272 336.83C209.856 336.83 211.213 337.178 212.342 337.875C213.479 338.564 214.348 339.529 214.949 340.768C215.558 342.007 215.862 343.445 215.862 345.08C215.862 346.715 215.558 348.153 214.949 349.392C214.348 350.631 213.479 351.599 212.342 352.296C211.213 352.985 209.856 353.33 208.272 353.33ZM208.272 350.833C209.336 350.84 210.219 350.606 210.923 350.129C211.635 349.652 212.166 348.981 212.518 348.116C212.878 347.251 213.057 346.239 213.057 345.08C213.057 343.921 212.878 342.917 212.518 342.066C212.166 341.208 211.635 340.541 210.923 340.064C210.219 339.587 209.336 339.342 208.272 339.327C207.209 339.32 206.325 339.554 205.621 340.031C204.917 340.508 204.386 341.179 204.026 342.044C203.674 342.909 203.498 343.921 203.498 345.08C203.498 346.239 203.674 347.247 204.026 348.105C204.378 348.956 204.906 349.619 205.61 350.096C206.322 350.573 207.209 350.818 208.272 350.833ZM224.432 353.33C223.17 353.33 222.059 353.073 221.099 352.56C220.145 352.047 219.397 351.324 218.855 350.393C218.319 349.462 218.052 348.369 218.052 347.115V337.182L220.736 337.16V347.049C220.736 347.643 220.835 348.175 221.033 348.644C221.238 349.113 221.513 349.513 221.858 349.843C222.202 350.166 222.598 350.411 223.046 350.58C223.493 350.749 223.955 350.833 224.432 350.833C224.923 350.833 225.389 350.749 225.829 350.58C226.276 350.404 226.672 350.155 227.017 349.832C227.361 349.502 227.633 349.102 227.831 348.633C228.029 348.164 228.128 347.636 228.128 347.049V337.16H230.812V347.115C230.812 348.369 230.54 349.462 229.998 350.393C229.462 351.324 228.714 352.047 227.754 352.56C226.8 353.073 225.693 353.33 224.432 353.33ZM238.29 353V337.16H240.941V343.826H248.443V337.16H251.083V353H248.443V346.312H240.941V353H238.29ZM253.067 353L258.061 337.16H261.944L266.938 353H264.21L259.678 338.788H260.272L255.795 353H253.067ZM255.85 349.568V347.093H264.166V349.568H255.85ZM270.944 353L265.95 337.16H268.678L272.858 350.426L277.093 337.16H279.821L274.827 353H270.944ZM281.474 353V337.16H291.704V339.646H284.125V343.551H290.384V346.037H284.125V350.514H291.704V353H281.474ZM304.61 353.33C303.451 353.33 302.406 353.128 301.475 352.725C300.551 352.322 299.788 351.746 299.187 350.998C298.593 350.243 298.215 349.348 298.054 348.314L300.804 347.896C301.039 348.835 301.519 349.561 302.245 350.074C302.978 350.587 303.822 350.844 304.775 350.844C305.34 350.844 305.871 350.756 306.37 350.58C306.869 350.404 307.272 350.147 307.58 349.81C307.895 349.473 308.053 349.058 308.053 348.567C308.053 348.347 308.016 348.145 307.943 347.962C307.87 347.771 307.76 347.603 307.613 347.456C307.474 347.309 307.29 347.177 307.063 347.06C306.843 346.935 306.586 346.829 306.293 346.741L302.201 345.531C301.849 345.428 301.468 345.293 301.057 345.124C300.654 344.948 300.269 344.71 299.902 344.409C299.543 344.101 299.246 343.712 299.011 343.243C298.784 342.766 298.67 342.18 298.67 341.483C298.67 340.464 298.927 339.609 299.44 338.92C299.961 338.223 300.657 337.703 301.53 337.358C302.41 337.013 303.385 336.845 304.456 336.852C305.541 336.859 306.509 337.046 307.36 337.413C308.211 337.772 308.922 338.297 309.494 338.986C310.066 339.675 310.469 340.508 310.704 341.483L307.855 341.978C307.738 341.421 307.51 340.948 307.173 340.559C306.843 340.163 306.436 339.862 305.952 339.657C305.475 339.452 304.966 339.342 304.423 339.327C303.895 339.32 303.404 339.4 302.949 339.569C302.502 339.73 302.139 339.965 301.86 340.273C301.589 340.581 301.453 340.94 301.453 341.351C301.453 341.74 301.57 342.059 301.805 342.308C302.04 342.55 302.329 342.744 302.674 342.891C303.026 343.03 303.382 343.148 303.741 343.243L306.579 344.035C306.968 344.138 307.404 344.277 307.888 344.453C308.372 344.629 308.838 344.875 309.285 345.19C309.732 345.505 310.099 345.92 310.385 346.433C310.678 346.946 310.825 347.599 310.825 348.391C310.825 349.212 310.653 349.935 310.308 350.558C309.971 351.174 309.512 351.687 308.933 352.098C308.354 352.509 307.69 352.817 306.942 353.022C306.201 353.227 305.424 353.33 304.61 353.33ZM313.206 353V337.16H323.436V339.646H315.857V343.551H322.116V346.037H315.857V350.514H323.436V353H313.206ZM326.075 353V337.16H336.305V339.646H328.726V343.551H334.985V346.037H328.726V350.514H336.305V353H326.075ZM338.944 353V337.16H343.993C344.125 337.16 344.386 337.164 344.774 337.171C345.17 337.178 345.552 337.204 345.918 337.248C347.172 337.409 348.232 337.857 349.097 338.59C349.97 339.316 350.63 340.244 351.077 341.373C351.525 342.502 351.748 343.738 351.748 345.08C351.748 346.422 351.525 347.658 351.077 348.787C350.63 349.916 349.97 350.848 349.097 351.581C348.232 352.307 347.172 352.751 345.918 352.912C345.559 352.956 345.181 352.982 344.785 352.989C344.389 352.996 344.125 353 343.993 353H338.944ZM341.639 350.503H343.993C344.213 350.503 344.492 350.496 344.829 350.481C345.174 350.466 345.478 350.433 345.742 350.382C346.49 350.243 347.099 349.909 347.568 349.381C348.038 348.853 348.382 348.211 348.602 347.456C348.83 346.701 348.943 345.909 348.943 345.08C348.943 344.222 348.83 343.415 348.602 342.66C348.375 341.905 348.023 341.27 347.546 340.757C347.077 340.244 346.476 339.917 345.742 339.778C345.478 339.719 345.174 339.686 344.829 339.679C344.492 339.664 344.213 339.657 343.993 339.657H341.639V350.503ZM358.753 353V337.16H361.14L366.618 348.38L372.096 337.16H374.483V353H372.008V342.847L367.146 353H366.09L361.239 342.847V353H358.753ZM384.272 353.33C382.688 353.33 381.332 352.985 380.202 352.296C379.073 351.599 378.204 350.631 377.595 349.392C376.994 348.153 376.693 346.715 376.693 345.08C376.693 343.445 376.994 342.007 377.595 340.768C378.204 339.529 379.073 338.564 380.202 337.875C381.332 337.178 382.688 336.83 384.272 336.83C385.856 336.83 387.213 337.178 388.342 337.875C389.479 338.564 390.348 339.529 390.949 340.768C391.558 342.007 391.862 343.445 391.862 345.08C391.862 346.715 391.558 348.153 390.949 349.392C390.348 350.631 389.479 351.599 388.342 352.296C387.213 352.985 385.856 353.33 384.272 353.33ZM384.272 350.833C385.336 350.84 386.219 350.606 386.923 350.129C387.635 349.652 388.166 348.981 388.518 348.116C388.878 347.251 389.057 346.239 389.057 345.08C389.057 343.921 388.878 342.917 388.518 342.066C388.166 341.208 387.635 340.541 386.923 340.064C386.219 339.587 385.336 339.342 384.272 339.327C383.209 339.32 382.325 339.554 381.621 340.031C380.917 340.508 380.386 341.179 380.026 342.044C379.674 342.909 379.498 343.921 379.498 345.08C379.498 346.239 379.674 347.247 380.026 348.105C380.378 348.956 380.906 349.619 381.61 350.096C382.322 350.573 383.209 350.818 384.272 350.833ZM394.052 353V337.16H396.736L404.084 348.325V337.16H406.768V353H404.084L396.736 341.835V353H394.052ZM409.843 353V337.16H420.073V339.646H412.494V343.551H418.753V346.037H412.494V350.514H420.073V353H409.843ZM426.562 353V346.51L421.172 337.16H424.263L427.904 343.474L431.534 337.16H434.625L429.246 346.51V353H426.562Z" fill="white"></path> <path d="M387.957 108.057C384.947 108.058 382.005 108.951 379.503 110.624C377.001 112.296 375.051 114.673 373.899 117.454C372.748 120.235 372.447 123.295 373.034 126.247C373.621 129.198 375.071 131.91 377.199 134.038C379.327 136.166 382.039 137.616 384.99 138.203C387.942 138.791 391.002 138.49 393.783 137.338C396.564 136.187 398.941 134.236 400.613 131.734C402.286 129.232 403.179 126.29 403.18 123.28C403.18 121.281 402.787 119.301 402.022 117.454C401.257 115.607 400.136 113.928 398.723 112.515C397.309 111.101 395.631 109.98 393.783 109.215C391.936 108.45 389.956 108.057 387.957 108.057ZM389.148 130.606V132.774H386.773V130.798H384.79V128.423H387.957C388.217 128.424 388.475 128.373 388.716 128.274C388.956 128.174 389.175 128.029 389.359 127.845C389.543 127.661 389.69 127.442 389.789 127.202C389.889 126.962 389.94 126.704 389.94 126.444C389.94 126.183 389.889 125.926 389.789 125.685C389.69 125.445 389.543 125.227 389.359 125.043C389.175 124.859 388.956 124.713 388.716 124.614C388.475 124.515 388.217 124.464 387.957 124.464C386.906 124.471 385.887 124.096 385.092 123.408C384.296 122.72 383.778 121.766 383.633 120.725C383.488 119.683 383.727 118.624 384.305 117.746C384.882 116.867 385.759 116.228 386.773 115.948V113.779H389.148V115.755H391.124V118.13H387.957C387.432 118.13 386.929 118.339 386.557 118.71C386.186 119.081 385.978 119.585 385.978 120.11C385.978 120.635 386.186 121.138 386.557 121.509C386.929 121.88 387.432 122.089 387.957 122.089C389.008 122.082 390.026 122.458 390.821 123.145C391.616 123.832 392.135 124.785 392.281 125.826C392.426 126.867 392.189 127.925 391.613 128.805C391.037 129.684 390.161 130.324 389.148 130.606ZM244.527 81.7759C244.527 81.7759 223.326 60.2642 239.149 50.3357C239.149 50.3357 241.424 39.0627 253.421 40.0969C265.418 41.1312 274.313 40.8936 276.381 40.0299C278.449 39.1661 280.828 57.3684 261.799 49.8186C261.799 49.8186 258.592 50.7494 260.351 56.6444C262.109 62.5394 263.764 75.1569 258.386 70.6063C258.386 70.6063 259.267 64.2976 255.517 65.7455C251.767 67.1934 251.146 70.1926 252.697 73.3987C252.697 73.3987 246.906 81.569 244.527 81.7759Z" fill="white"></path> <path d="M268.935 62.3323C269.535 62.0592 270.17 61.8687 270.822 61.7661C271.446 61.6619 272.077 61.6096 272.71 61.6099C273.342 61.6081 273.974 61.6596 274.597 61.7641C275.249 61.8663 275.884 62.0574 276.485 62.3323C275.884 62.6072 275.249 62.7984 274.597 62.9005C273.974 63.005 273.342 63.0566 272.71 63.0547C272.077 63.055 271.446 63.0027 270.822 62.8986C270.17 62.7959 269.535 62.6054 268.935 62.3323ZM273.692 68.3825C274.027 68.3709 274.345 68.2296 274.578 67.9884C274.811 67.7472 274.941 67.425 274.941 67.0897C274.941 66.7544 274.811 66.4322 274.578 66.191C274.345 65.9499 274.027 65.8086 273.692 65.797C273.357 65.8086 273.04 65.9499 272.807 66.191C272.574 66.4322 272.443 66.7544 272.443 67.0897C272.443 67.425 272.574 67.7472 272.807 67.9884C273.04 68.2296 273.357 68.3709 273.692 68.3825ZM204.132 191.051C201.786 191.409 199.413 191.569 197.04 191.528C194.661 191.484 192.289 191.262 189.944 190.865C185.245 190.045 180.664 188.657 176.299 186.733L176 186.605L176.042 186.28C177.376 176.189 179.573 166.23 182.609 156.514C185.548 146.756 189.449 137.313 194.254 128.325C196.68 123.838 199.407 119.519 202.414 115.398L204.743 112.361C205.564 111.378 206.363 110.394 207.203 109.413C208.918 107.517 210.72 105.722 212.559 103.96C216.224 100.417 220.157 97.163 224.325 94.2277C226.416 92.7585 228.629 91.4698 230.939 90.3756C232.101 89.8356 233.298 89.3749 234.522 88.9966C235.756 88.6326 237.024 88.4018 238.307 88.308L238.268 88.3147C239.047 88.0853 239.802 87.7821 240.523 87.4092C241.252 87.0454 241.933 86.5924 242.55 86.0607C243.169 85.5302 243.682 84.8871 244.062 84.1656C244.401 83.4166 244.56 82.5986 244.526 81.777C244.596 82.6057 244.471 83.4392 244.16 84.2106C243.803 84.9673 243.306 85.6493 242.695 86.2207C242.082 86.7885 241.4 87.2764 240.665 87.6728C239.934 88.0812 239.166 88.4184 238.371 88.6799L238.357 88.6841L238.331 88.6866C237.087 88.819 235.861 89.0839 234.673 89.4766C233.487 89.886 232.331 90.3751 231.211 90.9406C228.975 92.0945 226.829 93.4164 224.793 94.895C220.726 97.8831 216.896 101.182 213.339 104.762C211.55 106.54 209.807 108.373 208.124 110.238L205.731 113.145L203.453 116.157C200.508 120.249 197.842 124.534 195.473 128.985C190.761 137.919 186.872 147.264 183.855 156.904C182.334 161.722 181.005 166.601 179.836 171.518C178.66 176.43 177.633 181.398 176.913 186.384L176.656 185.931C180.938 187.899 185.426 189.383 190.037 190.357C194.673 191.304 199.426 191.538 204.132 191.051Z" fill="white"></path> <path d="M216.328 187.387C218.577 186.211 220.736 184.872 222.788 183.379C224.824 181.88 226.755 180.243 228.566 178.479C230.356 176.701 232.03 174.809 233.578 172.818C234.346 171.82 235.092 170.804 235.773 169.751C236.118 169.221 236.439 168.706 236.747 168.152L237.701 166.492C240.244 162.076 242.811 157.674 245.583 153.384C246.27 152.306 246.983 151.246 247.735 150.196C247.921 149.934 248.114 149.672 248.324 149.412C248.536 149.115 248.79 148.849 249.078 148.625C249.708 148.255 250.423 148.055 251.154 148.042C252.455 147.969 253.76 148.016 255.052 148.183C256.332 148.325 257.595 148.52 258.86 148.765L258.502 148.929C260.752 145.289 262.904 141.592 265.11 137.926C267.251 134.222 269.426 130.538 271.531 126.812L271.501 127.059L268.163 116.558L268.138 116.478L268.146 116.362L268.369 113.335C268.462 112.327 268.425 111.318 268.459 110.311C268.512 109.301 268.39 108.303 268.357 107.3C268.335 106.8 268.285 106.302 268.205 105.809L268.006 104.326C267.682 102.393 267.031 100.53 266.08 98.8162L265.703 98.2063C265.561 98.0173 265.406 97.8398 265.26 97.6554C264.964 97.2945 264.637 96.9607 264.282 96.6579L263.725 96.2542C263.536 96.1268 263.331 96.0322 263.136 95.9173C262.934 95.8227 262.726 95.7369 262.521 95.6645C262.335 95.6016 262.144 95.5548 261.95 95.5244L261.289 95.4542L261.286 94.8211C261.256 93.2664 261.421 91.7141 261.777 90.2004C261.963 89.3884 262.289 88.615 262.741 87.9148L262.939 87.6415C263.025 87.5353 263.119 87.4354 263.22 87.3427C263.433 87.1638 263.675 87.0236 263.935 86.9287C264.382 86.7778 264.854 86.7143 265.325 86.7415C266.118 86.7935 266.904 86.9215 267.672 87.1236L269.838 87.6662C271.222 88.0372 272.639 88.2715 274.069 88.3657C274.745 88.4028 275.422 88.3597 276.088 88.2372C276.642 88.1065 277.125 87.7685 277.437 87.2926C278.137 86.119 278.555 84.7994 278.659 83.437C278.947 80.5391 278.881 77.6168 278.463 74.7347L278.376 74.0616L279.054 74.0253C279.546 74.0314 280.037 73.9553 280.505 73.8002C280.666 73.7439 280.81 73.6471 280.924 73.5193C280.998 73.3898 281.025 73.2387 281.001 73.0914C280.909 72.6282 280.706 72.1941 280.41 71.8257L280.151 71.4963C280.059 71.3746 279.97 71.2523 279.885 71.1289C279.714 70.8829 279.558 70.6299 279.41 70.3736C278.233 68.3272 277.547 66.0356 277.405 63.6791C277.342 62.4873 277.409 61.3948 277.267 60.2846C277.125 59.1703 276.904 58.0672 276.608 56.9835C275.999 54.7989 275.155 52.6867 274.091 50.6836L274.216 50.6099C275.398 52.5748 276.364 54.662 277.097 56.835C277.466 57.9301 277.749 59.0525 277.943 60.1918C278.133 61.3403 278.111 62.5355 278.211 63.6139C278.424 65.8189 279.145 67.9445 280.317 69.8239C280.462 70.0554 280.616 70.2804 280.774 70.4991C280.853 70.6094 280.934 70.7151 281.016 70.8187L281.292 71.1543C281.721 71.6708 282.013 72.2874 282.139 72.9468C282.204 73.3663 282.119 73.7951 281.9 74.1585C281.667 74.4849 281.347 74.7383 280.976 74.8889C280.37 75.1201 279.729 75.2423 279.081 75.2499L279.672 74.5406C280.177 77.5331 280.313 80.5763 280.076 83.602C280 84.3801 279.859 85.1505 279.652 85.9047C279.445 86.7073 279.103 87.469 278.642 88.1575C278.123 88.9316 277.333 89.4835 276.427 89.7048C275.634 89.8662 274.824 89.9298 274.016 89.8942C272.478 89.8151 270.953 89.5709 269.468 89.1659C268.096 88.7565 266.693 88.4596 265.273 88.2785C265.001 88.2592 264.728 88.2901 264.468 88.3696C264.249 88.4597 264.193 88.4954 263.993 88.7878C263.637 89.3371 263.377 89.9434 263.226 90.5802C262.887 91.9578 262.72 93.3718 262.727 94.7904L262.064 94.0872C264.556 94.5295 266.146 96.2767 267.25 98.1153C268.269 99.9813 268.95 102.012 269.264 104.114L269.439 105.668C269.51 106.183 269.551 106.701 269.563 107.221C269.575 108.256 269.675 109.294 269.599 110.323C269.54 111.353 269.559 112.389 269.435 113.41L269.105 116.476L269.088 116.28L272.095 126.88L272.133 127.015L272.065 127.127C269.836 130.779 267.679 134.473 265.486 138.147C263.359 141.859 261.177 145.539 259.094 149.277L258.982 149.48L258.736 149.441C257.493 149.247 256.231 149.099 254.976 149.006C253.736 148.891 252.489 148.89 251.249 149C250.702 149.025 250.169 149.179 249.693 149.45C249.49 149.629 249.312 149.834 249.165 150.061C248.983 150.304 248.807 150.56 248.634 150.824C247.937 151.866 247.277 152.952 246.608 154.03L238.746 167.104C236.225 171.6 232.993 175.657 229.175 179.12C227.287 180.858 225.264 182.444 223.125 183.863C220.986 185.268 218.734 186.491 216.39 187.518L216.328 187.387Z" fill="white"></path> <path d="M238.322 88.498C240.198 91.62 242.041 94.7449 243.947 97.8195C244.914 99.3479 245.866 100.882 246.892 102.358C247.874 103.844 248.957 105.26 250.135 106.595C250.677 107.234 251.304 107.795 252 108.262C252.253 108.438 252.552 108.537 252.861 108.546C252.915 108.544 252.969 108.532 253.019 108.51L253.264 108.406C253.428 108.324 253.585 108.229 253.733 108.122C254.371 107.617 254.891 106.978 255.255 106.25C255.663 105.481 256.007 104.679 256.284 103.854C256.576 103.009 256.779 102.17 257.016 101.267C257.268 100.357 257.632 99.4822 258.1 98.6625C259.028 97.0471 260.378 95.7145 262.006 94.8068C260.598 95.9208 259.475 97.354 258.73 98.988C258.366 99.7843 258.1 100.622 257.938 101.483C257.789 102.353 257.606 103.29 257.363 104.182C257.125 105.098 256.794 105.988 256.377 106.838C255.954 107.754 255.333 108.565 254.56 109.213C254.348 109.381 254.119 109.527 253.877 109.649L253.498 109.816C253.337 109.879 253.168 109.919 252.996 109.935C252.392 109.965 251.793 109.806 251.283 109.479C250.456 108.951 249.71 108.307 249.066 107.567C246.71 104.735 244.668 101.656 242.976 98.3845C241.229 95.1849 239.675 91.8835 238.322 88.498ZM268.159 116.422C267.046 119.386 265.764 122.273 264.412 125.126C263.064 127.981 261.608 130.784 260.102 133.56C258.567 136.321 256.965 139.05 255.218 141.691L253.879 143.654L252.461 145.564C251.98 146.193 251.453 146.794 250.945 147.4C250.431 148.004 249.838 148.545 249.285 149.103C251.083 146.525 252.742 143.853 254.257 141.099C255.794 138.362 257.331 135.623 258.837 132.864L263.413 124.61C264.951 121.862 266.509 119.123 268.159 116.422Z" fill="white"></path> <path d="M229.034 91.7247C230.356 91.2939 231.734 91.0528 233.124 91.0084C234.537 90.948 235.947 91.1645 237.276 91.6456C238.633 92.1599 239.814 93.0528 240.678 94.2183C241.519 95.3928 242.099 96.7335 242.379 98.1504C242.967 100.91 243.159 103.74 242.948 106.553C242.641 109.373 241.865 112.122 240.653 114.686C240.395 115.344 240.042 115.948 239.738 116.581L239.26 117.519L238.738 118.427L237.685 120.239L236.555 121.996C235.048 124.34 233.41 126.584 231.731 128.791C228.373 133.206 224.805 137.439 221.19 141.625L220.857 142.011L220.436 141.748C216.982 139.599 213.537 137.434 210.102 135.255L204.967 131.955C203.253 130.858 201.547 129.749 199.85 128.626C201.635 129.604 203.411 130.598 205.178 131.606L210.489 134.614C214.018 136.638 217.537 138.679 221.046 140.739L220.291 140.862C223.797 136.602 227.277 132.322 230.598 127.935C233.872 123.526 237.096 119.037 239.426 114.126C240.621 111.704 241.412 109.102 241.767 106.424C242.038 103.726 241.939 101.004 241.472 98.3337C241.27 97.0211 240.79 95.767 240.063 94.6555C239.322 93.552 238.285 92.6787 237.072 92.135C235.823 91.6032 234.482 91.3203 233.124 91.3023C231.748 91.2659 230.373 91.4079 229.034 91.7247Z" fill="white"></path> <path d="M222.608 193.486L222.351 193.302C221.373 192.604 216.47 189.046 215.953 187.598C215.703 186.905 213.855 181.345 212.016 175.485C207.034 159.641 207.389 158.464 207.505 158.077C207.793 157.121 209.719 154.804 212.836 151.104C215.917 147.446 219.751 142.895 220.327 141.109L221.147 141.374C220.519 143.32 216.948 147.559 213.495 151.658C211.079 154.526 208.582 157.492 208.331 158.325C208.238 158.633 208.289 160.76 212.838 175.226C214.767 181.374 216.567 186.76 216.764 187.306C217.082 188.196 220.405 190.833 222.597 192.418C224.566 190.915 226.662 189.586 228.861 188.445C230.908 187.573 232.693 186.183 234.039 184.412C234.787 183.314 235.491 183.316 235.841 183.413C236.257 183.529 236.971 184.003 237.073 185.875C237.229 188.963 231.834 192.388 231.218 192.769L230.765 192.036C232.318 191.077 236.323 188.108 236.212 185.921C236.146 184.711 235.803 184.297 235.61 184.243C235.454 184.202 235.13 184.344 234.751 184.898C233.311 186.801 231.399 188.296 229.205 189.235C226.96 190.215 222.901 193.265 222.861 193.296L222.608 193.486Z" fill="white"></path> <path d="M230.944 192.345L230.958 192.337L230.964 192.335C233.397 191.239 235.855 190.206 238.3 189.14L238.328 189.128L238.358 189.123C239.057 189.006 239.753 188.858 240.458 188.766L241.522 188.673L242.055 188.627L242.59 188.627L243.663 188.63C244.02 188.65 244.377 188.692 244.734 188.723C245.093 188.746 245.45 188.794 245.801 188.868C246.154 188.937 246.512 188.986 246.861 189.074C248.27 189.412 249.624 189.947 250.883 190.664C252.177 191.373 253.339 192.3 254.319 193.403L255.205 194.428L253.683 194.381C253.561 194.377 253.443 194.368 253.324 194.353C253.189 194.355 253.034 194.381 252.89 194.392C252.582 194.433 252.276 194.491 251.974 194.566L251.039 194.839L250.105 195.167C248.865 195.638 247.641 196.183 246.427 196.749C244.002 197.895 241.64 199.17 239.352 200.57C237.107 202.113 234.767 203.513 232.346 204.763C229.936 206.06 227.384 207.076 224.741 207.791C224.408 207.878 224.07 207.946 223.729 207.995C223.384 208.065 223.033 208.101 222.682 208.103C221.979 208.086 221.283 207.956 220.621 207.719C219.328 207.243 218.103 206.599 216.979 205.802C214.765 204.208 212.689 202.429 210.774 200.487L209.336 199.045L208.979 198.689C208.848 198.562 208.725 198.427 208.61 198.285C208.388 198.013 208.183 197.74 207.977 197.466C207.16 196.372 206.379 195.262 205.6 194.15C204.031 191.932 202.56 189.655 201.068 187.389L196.618 180.574C195.16 178.285 193.722 175.983 192.304 173.669C190.881 171.355 189.508 169.008 188.184 166.626C187.524 165.428 186.887 164.228 186.323 162.929L186.122 162.424C186.063 162.229 186.015 162.008 185.967 161.799C185.929 161.601 185.911 161.4 185.913 161.198C185.898 161.005 185.899 160.812 185.917 160.62C185.937 160.253 185.982 159.887 186.051 159.526C186.107 159.174 186.182 158.825 186.276 158.481C187.042 155.831 188.057 153.26 189.31 150.802C190.503 148.349 191.775 145.942 193.123 143.583C195.826 138.867 198.691 134.255 201.758 129.778L201.88 129.856C200.525 132.203 199.174 134.551 197.872 136.926C196.547 139.287 195.264 141.669 194.021 144.071C192.788 146.476 191.559 148.882 190.458 151.338C189.321 153.749 188.398 156.254 187.699 158.826C187.618 159.137 187.554 159.452 187.508 159.769C187.453 160.074 187.418 160.383 187.405 160.692C187.391 160.837 187.392 160.983 187.407 161.128C187.405 161.265 187.418 161.402 187.446 161.535L187.536 161.897L187.716 162.333C188.245 163.516 188.9 164.702 189.538 165.881C190.832 168.241 192.223 170.562 193.589 172.895C194.968 175.221 196.367 177.538 197.786 179.844L202.092 186.73C203.519 189.03 204.942 191.337 206.401 193.615C207.13 194.753 207.864 195.891 208.625 197C208.816 197.275 209.01 197.551 209.207 197.811C209.3 197.936 209.401 198.055 209.51 198.167L209.861 198.542L211.242 200.028C213.06 202.018 215.073 203.821 217.251 205.409C218.328 206.2 219.509 206.837 220.761 207.303C221.379 207.519 222.028 207.634 222.682 207.646C223.008 207.64 223.333 207.604 223.652 207.535C223.981 207.487 224.307 207.416 224.627 207.324C227.206 206.563 229.677 205.474 231.979 204.085C234.321 202.744 236.577 201.259 238.736 199.639C239.868 198.851 241.043 198.151 242.234 197.478C243.423 196.803 244.636 196.171 245.872 195.583C247.107 194.991 248.364 194.44 249.665 193.968L250.653 193.633L251.672 193.348C252.028 193.262 252.389 193.198 252.752 193.155C252.946 193.141 253.128 193.114 253.331 193.113C253.548 193.131 253.767 193.155 253.983 193.184L253.347 194.163C252.474 193.169 251.446 192.323 250.304 191.656C249.144 190.969 247.9 190.437 246.603 190.071C246.279 189.975 245.945 189.917 245.616 189.838C245.288 189.754 244.953 189.695 244.616 189.66C244.28 189.618 243.944 189.563 243.606 189.531L242.585 189.487L242.074 189.465L241.562 189.49L240.537 189.538C239.855 189.598 239.177 189.715 238.495 189.8L238.554 189.782C236.041 190.678 233.542 191.605 231.018 192.47L231.023 192.468L231.009 192.474L230.944 192.345ZM225.637 241.467C219.178 240.965 214.951 240.531 214.951 240.531L216.191 227.498C216.879 227.622 217.581 227.808 218.29 227.883L220.411 228.11L224.659 228.455L227.337 228.599C226.989 229.526 226.706 230.476 226.49 231.443C226.236 232.531 226.029 233.632 225.878 234.734C225.726 235.842 225.623 236.958 225.568 238.073C225.498 239.204 225.521 240.34 225.637 241.467Z" fill="white"></path> <path d="M224.68 227.78C221.847 227.834 219.014 227.74 216.191 227.498C213.292 227.078 199.846 222.534 199.846 222.534C176.479 212.606 176.479 186.333 176.479 186.333C180.623 188.205 184.965 189.605 189.422 190.505C189.199 194.439 190.073 198.358 191.949 201.824C193.846 205.305 196.624 208.227 200.004 210.299C201.676 211.353 203.45 212.234 205.299 212.929C206.201 213.315 207.158 213.569 208.087 213.893C209.037 214.141 209.981 214.43 210.945 214.63C211.909 214.829 212.865 215.063 213.843 215.194C214.814 215.353 215.785 215.511 216.762 215.6C218.718 215.848 220.659 215.931 222.615 216.089C230.417 216.589 238.241 216.663 246.051 216.31L257.735 215.828C261.594 215.629 265.462 215.715 269.308 216.082C270.257 216.178 271.199 216.328 272.131 216.53L273.529 216.833L274.871 217.267C275.768 217.555 276.639 217.919 277.474 218.354C277.901 218.54 278.321 218.795 278.748 219.029L280.015 219.745C281.688 220.723 283.34 221.728 284.91 222.83C286.483 223.853 287.883 225.122 289.055 226.589C289.315 226.906 289.509 227.272 289.624 227.667C289.739 228.061 289.772 228.474 289.722 228.882C289.695 229.076 289.642 229.266 289.564 229.446L289.447 229.728L289.275 229.997C289.082 230.32 288.71 230.844 288.483 231.202C287.48 232.762 286.031 233.986 284.325 234.713C283.905 234.92 283.443 235.064 283.01 235.25C282.573 235.437 282.124 235.596 281.667 235.725L280.29 236.118C279.831 236.262 279.365 236.379 278.892 236.469L276.063 237.047L273.185 237.46C265.501 238.465 257.68 238.52 249.9 238.438C246.003 238.459 242.113 238.273 238.216 238.169L226.752 237.639C226.945 236.744 227.117 235.835 227.241 234.927C227.4 233.818 227.503 232.71 227.558 231.587C227.612 230.594 227.6 229.598 227.524 228.606L228.914 228.682L233.169 228.847C238.842 229.04 244.523 229.116 250.196 229.136C255.876 229.136 261.549 229.102 267.222 228.971C272.895 228.854 278.569 228.638 284.242 228.324C278.562 228.11 272.886 227.968 267.215 227.897C261.542 227.807 255.876 227.787 250.203 227.759L233.19 227.773L224.68 227.78Z" fill="white"></path> <path d="M281.593 241.564C267.465 244.159 240.579 242.624 225.639 241.467C226.054 240.414 226.385 239.33 226.63 238.224C226.672 238.032 226.706 237.839 226.748 237.653C230.562 237.956 234.376 238.293 238.197 238.534C242.094 238.741 245.984 239.03 249.888 239.113C257.689 239.333 265.517 239.395 273.317 238.514L276.243 238.142C277.214 237.977 278.178 237.777 279.149 237.598C279.635 237.508 280.115 237.391 280.588 237.247L282.027 236.847C282.507 236.712 282.979 236.547 283.438 236.352C283.899 236.159 284.382 236.007 284.836 235.787L286.178 235.071C286.619 234.816 287.025 234.486 287.445 234.19C287.844 233.853 288.223 233.495 288.581 233.116C288.91 232.723 289.215 232.311 289.497 231.883C289.8 231.422 290 231.154 290.316 230.651L290.537 230.3L290.709 229.907C290.822 229.643 290.903 229.365 290.95 229.081C290.994 228.79 291.008 228.494 290.991 228.2C290.953 227.912 290.898 227.627 290.826 227.346C290.723 227.091 290.626 226.83 290.509 226.575L290.096 225.88C288.849 224.28 287.349 222.894 285.655 221.776C284.037 220.633 282.364 219.601 280.677 218.609L279.404 217.879C278.97 217.638 278.564 217.384 278.095 217.177C277.203 216.706 276.272 216.31 275.314 215.993L273.882 215.525L272.415 215.201C271.446 214.979 270.464 214.818 269.475 214.719C265.557 214.361 261.617 214.294 257.688 214.519L246.005 215.057C242.115 215.236 238.225 215.311 234.335 215.332C230.445 215.304 226.562 215.242 222.671 215.036C218.798 214.929 214.939 214.512 211.132 213.79C210.182 213.604 209.26 213.335 208.316 213.108C207.408 212.805 206.464 212.571 205.569 212.206C203.755 211.553 202.009 210.723 200.357 209.728C197 207.79 194.211 205.005 192.268 201.651C191.306 199.967 190.577 198.161 190.099 196.281C189.589 194.4 189.362 192.453 189.424 190.505C194.264 191.488 199.231 191.672 204.13 191.049C206.705 194.987 208.674 197.844 209.156 198.333C210.809 199.992 218.258 208.468 223.222 207.848C228.186 207.221 235.705 202.498 238.321 200.605C241.819 198.092 251.354 193.162 253.833 193.782C253.833 193.782 248.821 187.365 238.431 189.458L230.995 192.405C231.333 192.192 236.786 188.749 236.641 185.899C236.524 183.64 235.402 183.179 234.397 184.659C233.002 186.495 231.154 187.935 229.033 188.839C226.713 189.851 222.603 192.949 222.603 192.949C222.603 192.949 216.861 188.845 216.358 187.455C230.204 180.955 237.082 168.748 237.082 168.748C237.082 168.748 237.323 168.342 237.743 167.626C275.837 154.076 283.831 157.168 283.831 157.168C310.93 164.204 281.552 202.677 281.552 202.677C279.328 201.665 277.07 200.777 274.791 199.944C272.512 199.097 270.212 198.326 267.906 197.576C265.592 196.846 263.272 196.13 260.931 195.496C259.713 195.159 258.494 194.835 257.268 194.539C258.811 193.066 260.27 191.517 261.689 189.947C263.196 188.281 264.649 186.573 266.081 184.852C267.5 183.11 268.904 181.362 270.247 179.565C271.596 177.768 272.904 175.943 274.109 174.029C272.464 175.578 270.921 177.21 269.414 178.876C267.906 180.542 266.46 182.25 265.021 183.978C263.61 185.713 262.205 187.462 260.862 189.265C259.582 190.973 258.336 192.708 257.179 194.519C256.07 194.25 254.962 194.002 253.84 193.782C256.057 194.794 258.322 195.682 260.601 196.515C262.88 197.362 265.179 198.133 267.486 198.884C269.799 199.614 272.119 200.323 274.46 200.963C276.801 201.603 279.156 202.209 281.552 202.677L294.378 211.153C307.198 219.635 301.821 237.839 281.593 241.564ZM215.109 238.867C213.874 238.83 212.658 238.809 211.45 238.847C210.256 238.87 209.067 239 207.896 239.234C206.754 239.427 205.678 239.9 204.765 240.612C204.326 240.983 203.97 241.441 203.718 241.957C203.471 242.506 203.301 243.087 203.212 243.682C203.125 243.056 203.163 242.419 203.323 241.807C203.508 241.176 203.844 240.6 204.3 240.126C205.24 239.22 206.429 238.616 207.715 238.392C208.949 238.147 210.21 238.075 211.464 238.177C212.703 238.256 213.927 238.488 215.109 238.867Z" fill="white"></path> <path d="M216.192 261.523C213.039 259.196 204.295 262.611 204.453 257.798C204.605 252.993 204.453 243.684 204.453 243.684C188.164 239.801 191.42 224.599 191.42 224.599C188.164 224.757 177.926 226.465 177.457 229.253C176.996 232.049 196.074 268.814 196.074 268.814H219.497C219.497 268.814 219.346 263.85 216.192 261.523ZM198.477 245.853C198.931 245.76 199.397 245.748 199.854 245.819C200.278 245.879 200.694 245.988 201.094 246.142C201.492 246.3 201.871 246.503 202.223 246.748C202.61 247.008 202.946 247.337 203.214 247.719C202.758 247.812 202.29 247.824 201.83 247.753C201.405 247.694 200.989 247.583 200.591 247.423C200.192 247.269 199.813 247.067 199.462 246.824C199.081 246.558 198.748 246.23 198.477 245.853ZM202.601 253.784C202.176 253.725 201.76 253.614 201.362 253.454C200.963 253.297 200.584 253.094 200.233 252.848C199.849 252.589 199.516 252.262 199.248 251.884C199.702 251.791 200.168 251.779 200.625 251.85C201.05 251.907 201.466 252.016 201.865 252.173C202.265 252.327 202.644 252.531 202.994 252.779C203.378 253.038 203.711 253.365 203.978 253.743C203.526 253.842 203.059 253.856 202.601 253.784ZM202.601 250.604C202.176 250.544 201.76 250.433 201.362 250.273C200.963 250.119 200.584 249.918 200.233 249.674C199.851 249.41 199.517 249.082 199.248 248.703C199.702 248.61 200.168 248.598 200.625 248.669C201.049 248.729 201.465 248.838 201.865 248.993C202.264 249.149 202.643 249.353 202.994 249.598C203.378 249.858 203.711 250.184 203.978 250.562C203.526 250.661 203.059 250.675 202.601 250.604Z" fill="white"></path> <path d="M191.299 225.381C192.609 224.624 193.997 224.009 195.439 223.548C196.868 223.051 198.348 222.711 199.851 222.533C198.541 223.292 197.153 223.906 195.711 224.365C194.281 224.861 192.802 225.201 191.299 225.381ZM243.075 242.558C243.38 244.093 243.524 245.656 243.506 247.221C243.526 248.786 243.382 250.349 243.075 251.883C242.769 250.349 242.625 248.786 242.645 247.221C242.627 245.656 242.771 244.093 243.075 242.558ZM260.81 242.984C260.79 243.95 260.916 244.913 261.184 245.842C261.441 246.745 261.853 247.597 262.403 248.358C262.675 248.738 262.982 249.093 263.32 249.416C263.492 249.577 263.646 249.758 263.832 249.904C264.021 250.047 264.206 250.195 264.391 250.346C264.758 250.651 265.187 250.874 265.583 251.157C265.997 251.409 266.438 251.616 266.862 251.883C266.382 251.77 265.906 251.625 265.428 251.475C264.962 251.288 264.51 251.067 264.076 250.814C263.195 250.293 262.426 249.602 261.816 248.78C261.217 247.955 260.815 247.003 260.64 245.999C260.466 244.994 260.524 243.962 260.81 242.984Z" fill="white"></path> <path d="M274.728 258.266C270.073 258.576 265.55 249.633 265.55 249.633C255.45 254.19 241.687 250.562 241.687 250.562C239.359 265.826 241.687 268.814 241.687 268.814H290.391C290.535 262.762 279.382 257.956 274.728 258.266ZM263.243 255.471C263.466 255.07 263.758 254.711 264.104 254.411C264.423 254.129 264.774 253.886 265.15 253.688C265.523 253.488 265.918 253.333 266.328 253.227C266.772 253.11 267.234 253.075 267.691 253.123C267.473 253.525 267.184 253.884 266.837 254.183C266.519 254.465 266.167 254.708 265.791 254.906C265.418 255.103 265.022 255.256 264.614 255.361C264.167 255.479 263.703 255.517 263.243 255.471ZM264.751 257.502C264.97 257.098 265.262 256.739 265.612 256.442C266.249 255.877 267.011 255.471 267.836 255.258C268.28 255.141 268.742 255.106 269.199 255.154C268.98 255.558 268.688 255.918 268.338 256.215C267.703 256.781 266.94 257.185 266.114 257.392C265.67 257.51 265.209 257.548 264.751 257.502ZM270.562 258.287C270.246 258.566 269.896 258.807 269.523 259.003C269.147 259.203 268.75 259.358 268.338 259.464C267.894 259.579 267.432 259.617 266.975 259.574C267.194 259.169 267.485 258.807 267.836 258.507C268.154 258.228 268.503 257.985 268.875 257.784C269.251 257.586 269.648 257.434 270.06 257.33C270.503 257.208 270.965 257.17 271.423 257.22C271.204 257.626 270.912 257.987 270.562 258.287ZM258.798 149.103C260.455 150.821 262.2 152.448 263.982 154.027C265.756 155.611 267.632 157.075 269.598 158.411C270.575 159.072 271.597 159.663 272.657 160.18C273.685 160.701 274.794 161.043 275.937 161.194C276.476 161.257 277.023 161.198 277.537 161.02C277.782 160.932 278.015 160.814 278.231 160.667C278.433 160.493 278.621 160.303 278.793 160.1C279.499 159.181 280.094 158.182 280.568 157.124C281.569 154.978 282.456 152.78 283.225 150.539C284.012 148.299 284.748 146.038 285.432 143.758C286.802 139.202 288.097 134.618 289.254 129.999C291.64 120.788 293.508 111.451 294.847 102.031C295.178 99.7057 295.326 97.3578 295.29 95.0092C295.225 92.7025 294.741 90.4269 293.862 88.2933C292.942 86.1946 291.533 84.3466 289.753 82.904C287.955 81.4894 285.862 80.4971 283.628 80.0006L283.107 79.892L283.113 79.3913C283.118 78.8357 283.091 78.2803 283.033 77.7277C282.981 77.1833 282.882 76.6445 282.736 76.1173C282.631 75.6515 282.406 75.2212 282.084 74.8689C281.816 74.6193 281.494 74.6183 281.045 74.8074L280.816 74.9037L280.6 74.8131C280.506 74.7795 280.405 74.7707 280.306 74.7878C280.214 74.8101 280.134 74.8674 280.083 74.9477C279.916 75.2378 279.822 75.564 279.809 75.8985C279.774 76.7183 279.84 77.5393 280.006 78.3429C280.114 79.1294 280.388 79.884 280.81 80.5566C280.894 80.6867 281.004 80.7984 281.133 80.8849C281.261 80.9714 281.406 81.0309 281.558 81.0599C281.896 81.0707 282.228 80.9748 282.508 80.7859L283.086 80.4334L283.17 81.0998C283.387 82.8084 283.657 84.5258 284.014 86.2099C284.188 87.0477 284.405 87.8757 284.666 88.6905C284.788 89.0822 284.95 89.4602 285.149 89.8186C285.226 89.961 285.332 90.0859 285.46 90.1852C285.484 90.1999 285.51 90.2105 285.538 90.2167C285.593 90.2012 285.642 90.1725 285.683 90.1332L286.035 89.8155L286.193 90.2628C286.512 91.2525 286.919 92.2116 287.409 93.1288C287.612 93.5591 287.928 93.9263 288.324 94.1916C288.613 94.348 288.951 93.8426 289.11 93.3927L289.286 92.8959L289.501 93.3841L289.828 94.1245L289.85 94.1741L289.849 94.2132V94.2203L289.827 94.1293C290.011 94.501 290.226 94.8568 290.47 95.193C290.68 95.5247 290.986 95.7848 291.347 95.9389C291.688 96.0585 292.029 95.8039 292.254 95.4751C292.478 95.1243 292.669 94.7536 292.825 94.3677C293.51 92.8116 293.863 91.1296 293.86 89.4294C293.937 91.1431 293.655 92.8539 293.032 94.4523C292.883 94.8606 292.696 95.2538 292.472 95.6267C292.35 95.8249 292.185 95.9938 291.99 96.1216C291.885 96.191 291.766 96.2371 291.641 96.2568C291.517 96.2764 291.39 96.2693 291.268 96.2357C290.832 96.0781 290.457 95.7882 290.194 95.4065C289.926 95.0619 289.688 94.6956 289.481 94.3115L289.46 94.2722L289.459 94.2203L289.459 94.2132L289.48 94.3016L289.113 93.5392L289.504 93.5306C289.42 93.8091 289.286 94.07 289.108 94.3004L288.946 94.4775C288.874 94.5299 288.798 94.5774 288.718 94.6198C288.628 94.6506 288.533 94.6707 288.438 94.6799C288.346 94.6711 288.255 94.6556 288.165 94.6334C287.649 94.3506 287.229 93.9194 286.961 93.3955C286.42 92.4601 285.964 91.4778 285.6 90.4604L286.11 90.5901C285.994 90.7038 285.853 90.787 285.697 90.832C285.511 90.873 285.316 90.8446 285.149 90.7522C284.917 90.6073 284.723 90.4086 284.583 90.173C284.344 89.7792 284.148 89.3614 283.997 88.9266C283.704 88.0918 283.46 87.2409 283.266 86.3781C282.867 84.6662 282.562 82.949 282.307 81.2113L282.969 81.5251C282.528 81.826 282.002 81.9759 281.468 81.9521C281.193 81.9152 280.928 81.8226 280.69 81.6801C280.451 81.5376 280.244 81.348 280.082 81.123C279.552 80.3459 279.2 79.4617 279.051 78.5333C278.85 77.6451 278.761 76.7352 278.786 75.8249C278.8 75.2922 278.956 74.7729 279.238 74.3209C279.433 74.0402 279.723 73.8388 280.054 73.7534C280.379 73.6743 280.722 73.6996 281.032 73.8258L280.588 73.8315C280.927 73.6644 281.301 73.578 281.68 73.5791C282.097 73.594 282.496 73.7521 282.811 74.0267C283.307 74.5076 283.661 75.1158 283.834 75.7847C284.011 76.3749 284.136 76.9796 284.207 77.5916C284.283 78.1941 284.323 78.8003 284.33 79.4074L283.814 78.7983C286.264 79.3081 288.565 80.3732 290.538 81.9116C292.492 83.4725 294.044 85.4787 295.063 87.7624C296.024 90.0423 296.561 92.4782 296.649 94.9508C296.704 97.3745 296.569 99.7989 296.244 102.201C295.678 106.974 294.787 111.679 293.805 116.361C292.813 121.04 291.714 125.694 290.509 130.321C289.301 134.946 288.021 139.555 286.545 144.107C285.812 146.384 285.026 148.645 284.188 150.89C283.362 153.148 282.418 155.36 281.358 157.518C280.833 158.629 280.178 159.674 279.407 160.631C279.189 160.879 278.951 161.107 278.693 161.312C278.414 161.498 278.111 161.647 277.792 161.753C277.171 161.957 276.513 162.017 275.865 161.931C274.64 161.748 273.458 161.349 272.374 160.751C271.307 160.187 270.28 159.548 269.302 158.84C267.365 157.431 265.522 155.894 263.788 154.241C262.042 152.609 260.384 150.886 258.798 149.103Z" fill="white"></path> <path d="M286.264 91.3375C286.032 90.7739 285.895 90.362 285.895 90.362C285.805 90.4527 285.689 90.5133 285.562 90.5354L285.895 82.7095L286.264 91.3375Z" fill="white"></path> <path d="M283.347 79.1864L282.365 80.9453L283.118 81.3655L284.1 79.6066L283.347 79.1864Z" fill="white"></path> <path d="M289.655 94.2132C289.438 93.7868 289.308 93.4616 289.308 93.4616C289.231 93.6998 289.117 93.9243 288.969 94.1264L289.308 86.5317L289.655 94.2132ZM278.675 86.533C278.939 87.2955 279.145 88.0612 279.356 88.8194L279.672 89.9444C279.764 90.2789 279.887 90.604 280.04 90.9154L280.652 91.9344L279.542 91.5473C279.076 91.3846 278.615 91.2023 278.156 91.0202C277.693 90.8444 277.242 90.6386 276.786 90.4466C276.335 90.2417 275.884 90.0362 275.438 89.8143L274.107 89.1315C274.609 89.1733 275.106 89.2581 275.593 89.3852C276.079 89.4997 276.558 89.6346 277.035 89.7737C277.507 89.9256 277.984 90.0656 278.449 90.2379C278.916 90.4036 279.383 90.5705 279.842 90.7589L279.344 91.3908C279.133 90.9978 278.991 90.5721 278.922 90.1316C278.842 89.7362 278.781 89.3369 278.741 88.9354C278.653 88.1378 278.631 87.3342 278.675 86.533ZM269.992 88.498C270.884 89.6698 271.847 90.7857 272.875 91.8395C273.891 92.8858 274.976 93.8621 276.124 94.7615C277.267 95.6332 278.492 96.3927 279.78 97.0296C281.059 97.6168 282.416 98.0151 283.809 98.2121L284.517 98.3051L284.379 99.0098C283.865 101.641 283.258 104.238 282.612 106.833C281.946 109.421 281.239 112.001 280.412 114.548C280.008 115.824 279.57 117.09 279.096 118.346C278.627 119.602 278.122 120.848 277.548 122.066C276.995 123.3 276.33 124.482 275.564 125.597C275.177 126.164 274.705 126.669 274.166 127.094C273.891 127.313 273.566 127.46 273.22 127.521C272.877 127.572 272.526 127.486 272.246 127.281C272.535 127.438 272.875 127.475 273.191 127.384C273.494 127.282 273.769 127.111 273.994 126.884C274.45 126.423 274.838 125.898 275.147 125.327C275.776 124.172 276.318 122.972 276.768 121.737C277.693 119.264 278.455 116.725 279.185 114.177C279.898 111.624 280.583 109.06 281.219 106.482C281.869 103.91 282.481 101.319 283.072 98.7387L283.642 99.5363C282.113 99.2827 280.633 98.7901 279.257 98.0764C277.929 97.3419 276.684 96.4651 275.545 95.4615C274.432 94.4599 273.404 93.3666 272.473 92.193C271.541 91.0353 270.711 89.799 269.992 88.498Z" fill="white"></path> <path d="M279.838 90.748L284.656 92.9448L279.545 91.5586L279.838 90.748Z" fill="white"></path> <path d="M283.858 98.1642C284.284 98.2956 284.719 98.3961 285.159 98.4651C285.614 98.5387 286.073 98.5836 286.533 98.5997C287.474 98.6419 288.414 98.5132 289.309 98.2196C288.481 98.7459 287.564 99.1183 286.604 99.3188C286.117 99.4263 285.624 99.503 285.127 99.5485C284.616 99.598 284.102 99.61 283.589 99.5843L283.858 98.1642ZM252.697 73.3984C253.066 73.8682 253.425 74.3132 253.797 74.7331C254.156 75.1471 254.557 75.522 254.995 75.8517C255.417 76.1666 255.896 76.3988 256.405 76.5361C256.954 76.6488 257.518 76.6719 258.075 76.6045C257.561 76.9542 256.947 77.1262 256.326 77.0944C255.689 77.0423 255.08 76.8134 254.567 76.4334C254.075 76.0606 253.66 75.5965 253.345 75.0665C253.024 74.5571 252.804 73.9908 252.697 73.3984ZM276.484 78.4661C276.458 78.1042 276.57 77.7457 276.798 77.4634C277.017 77.1879 277.317 76.9879 277.656 76.8912C278.022 76.7853 278.415 76.8171 278.76 76.9806C278.932 77.0606 279.082 77.1817 279.197 77.3333C279.312 77.4849 279.388 77.6623 279.419 77.8501C279.13 77.9155 278.846 77.9992 278.568 78.1007C278.397 78.1704 278.223 78.2311 278.045 78.2824C277.841 78.3385 277.632 78.3806 277.422 78.4082C277.111 78.4504 276.798 78.4698 276.484 78.4661ZM424.818 206.003L421.738 221.452L418.508 237.218C417.394 242.511 416.266 247.828 415.078 253.147C413.911 258.466 412.7 263.791 411.409 269.077L411.184 270L410.258 269.993C405.633 269.958 401.009 269.806 396.384 269.713L382.51 269.383C377.885 269.291 373.26 269.241 368.635 269.232C364.011 269.226 359.386 269.25 354.761 269.305L354.378 269.31L354.281 268.922L350.378 253.308C349.063 248.107 347.72 242.912 346.457 237.699C345.171 232.49 343.893 227.28 342.658 222.061L338.914 206.41L338.5 204.678L340.309 204.657C343.873 204.617 347.44 204.626 351.009 204.626C354.579 204.622 358.147 204.639 361.714 204.679L372.401 204.797L383.044 204.98L393.626 205.204L404.118 205.468L424.818 206.003ZM424.603 206.174L403.102 206.709L392.493 206.974L381.975 207.198L371.518 207.38L361.105 207.498C357.635 207.543 354.17 207.561 350.709 207.551C347.244 207.552 343.779 207.56 340.309 207.52L341.704 205.767L345.186 221.478C346.359 226.712 347.49 231.956 348.613 237.202C349.759 242.442 350.825 247.701 351.918 252.953L355.242 268.701L354.761 268.319C359.386 268.378 364.011 268.402 368.635 268.391C373.26 268.381 377.885 268.331 382.51 268.24L396.384 267.911C401.008 267.817 405.633 267.665 410.258 267.63L409.107 268.546C410.225 263.379 411.422 258.25 412.664 253.114C413.885 247.98 415.166 242.843 416.461 237.682L420.457 222.086L424.603 206.174Z" fill="white"></path> <path d="M387.135 131.126C383.427 143.222 381.155 155.712 380.365 168.338L380.19 170.695L380.124 173.056C380.092 174.631 380.022 176.206 380.019 177.78C380.077 180.929 380.059 184.085 380.312 187.23C380.582 193.546 381.565 199.789 382.51 206.091C380.601 199.995 379.3 193.725 378.626 187.372C378.169 184.199 378.145 180.995 377.967 177.798C377.923 176.198 377.997 174.597 378.007 172.996L378.049 170.595L378.203 168.199L378.381 165.805C378.435 165.006 378.498 164.209 378.606 163.415L379.185 158.65L380.001 153.921C380.275 152.346 380.66 150.791 380.999 149.23C382.387 142.992 384.444 136.922 387.135 131.126Z" fill="white"></path> <path d="M378.903 183.008C378.833 182.261 378.885 181.508 379.058 180.779C379.194 180.184 379.414 179.611 379.71 179.077C379.975 178.59 380.305 178.142 380.692 177.744C381.059 177.332 381.541 177.039 382.076 176.903C383.214 176.612 384.762 176.896 385.737 176.451C386.753 175.934 387.522 175.035 387.875 173.951C388.114 173.374 388.398 172.817 388.724 172.285C389.055 171.809 389.439 171.373 389.868 170.984C390.644 170.114 391.6 169.423 392.67 168.958C393.863 168.53 395.139 168.384 396.398 168.531C397.106 168.605 397.798 168.782 398.454 169.057C399.183 169.352 399.828 169.82 400.335 170.421L400.293 171.143C399.289 172.337 398.753 173.213 398.092 173.984C397.79 174.357 397.463 174.708 397.113 175.036C396.788 175.363 396.429 175.654 396.042 175.905C394.7 176.503 393.291 176.935 391.845 177.193C391.297 177.251 390.685 177.228 390.081 177.235C389.536 177.182 388.986 177.253 388.472 177.442C387.958 177.631 387.493 177.933 387.112 178.326C386.411 179.113 386.301 180.657 385.801 181.649C385.568 182.116 385.2 182.5 384.744 182.753C384.297 183.03 383.816 183.248 383.313 183.401C382.752 183.579 382.17 183.684 381.582 183.716C380.847 183.76 380.108 183.702 379.389 183.544L378.903 183.008ZM378.616 166.373C377.532 165.985 376.517 165.426 375.611 164.717C375.298 164.465 375.02 164.173 374.782 163.85C374.539 163.539 374.415 163.151 374.431 162.757C374.439 162.509 374.471 162.262 374.528 162.02L374.657 161.214C374.775 160.716 374.746 160.194 374.576 159.712C374.409 159.301 374.098 158.965 373.702 158.767C373.254 158.559 372.773 158.433 372.281 158.397C371.739 158.365 371.199 158.368 370.747 158.296C370.327 158.216 369.912 158.11 369.505 157.978C368.728 157.817 367.986 157.516 367.317 157.088C366.647 156.529 366.079 155.858 365.636 155.106C365.34 154.66 365.077 154.194 364.848 153.711C364.55 153.11 364.308 152.483 364.125 151.838L364.357 151.154C364.922 150.772 365.539 150.473 366.19 150.267C366.756 150.063 367.347 149.934 367.947 149.884C368.5 149.853 369.055 149.878 369.603 149.957C370.138 150.009 370.661 150.152 371.147 150.382C371.626 150.609 372.07 150.904 372.465 151.257C372.855 151.636 373.217 152.042 373.549 152.473C373.926 152.874 374.237 153.332 374.472 153.83C374.696 154.38 374.874 154.948 375.005 155.527C375.103 156.582 375.599 157.56 376.393 158.261C376.875 158.565 377.397 158.799 377.944 158.957C378.548 159.116 379.12 159.375 379.639 159.723C379.871 159.882 380.073 160.08 380.236 160.309C380.38 160.539 380.496 160.785 380.581 161.043C380.767 161.569 380.861 162.124 380.858 162.682C380.86 163.29 380.75 163.894 380.533 164.463C380.276 165.154 379.866 165.778 379.333 166.288L378.616 166.373Z" fill="white"></path> <path d="M421.864 218.431H343.568V220.231V222.044H343.987H421.033L421.864 218.431Z" fill="white"></path> <path d="M373.203 268.812H355.311C355.838 266.842 357.001 265.102 358.618 263.861C360.236 262.62 362.218 261.947 364.257 261.947C366.295 261.947 368.277 262.62 369.895 263.861C371.512 265.102 372.675 266.842 373.203 268.812ZM391.731 268.812H373.839C374.366 266.842 375.529 265.102 377.146 263.861C378.764 262.62 380.746 261.947 382.785 261.947C384.823 261.947 386.805 262.62 388.423 263.861C390.04 265.102 391.203 266.842 391.731 268.812Z" fill="white"></path> <path d="M391.732 268.495H373.84V269.128H391.732V268.495Z" fill="white"></path> <path d="M410.259 268.495H392.367V269.128H410.259V268.495Z" fill="white"></path> <path d="M373.204 268.495H355.312V269.128H373.204V268.495Z" fill="white"></path> <path d="M410.259 268.812H392.367C392.895 266.842 394.057 265.102 395.675 263.861C397.292 262.62 399.274 261.947 401.313 261.947C403.352 261.947 405.334 262.62 406.951 263.861C408.569 265.102 409.732 266.842 410.259 268.812Z" fill="white"></path> <path d="M415.596 243.838H349.424V247.451H415.596V243.838Z" fill="white"></path> <path d="M343.343 213.7H341.897C341.802 213.7 341.708 213.682 341.62 213.646C341.532 213.609 341.452 213.556 341.384 213.489C341.317 213.422 341.264 213.342 341.227 213.254C341.191 213.166 341.172 213.072 341.172 212.977C341.172 212.882 341.191 212.788 341.227 212.7C341.264 212.612 341.317 212.532 341.384 212.465C341.452 212.398 341.532 212.345 341.62 212.309C341.708 212.273 341.802 212.254 341.897 212.254H343.343C343.534 212.255 343.717 212.331 343.852 212.467C343.987 212.602 344.063 212.786 344.063 212.977C344.063 213.169 343.987 213.352 343.852 213.487C343.717 213.623 343.534 213.699 343.343 213.7ZM418.024 213.7H415.152C414.961 213.699 414.777 213.623 414.642 213.487C414.507 213.352 414.431 213.169 414.431 212.977C414.431 212.786 414.507 212.602 414.642 212.467C414.777 212.331 414.961 212.255 415.152 212.254H418.024C418.215 212.255 418.399 212.331 418.534 212.467C418.669 212.602 418.745 212.786 418.745 212.977C418.745 213.169 418.669 213.352 418.534 213.487C418.399 213.623 418.215 213.699 418.024 213.7ZM412.279 213.7H409.407C409.311 213.7 409.217 213.682 409.129 213.646C409.041 213.609 408.961 213.556 408.894 213.489C408.827 213.422 408.773 213.342 408.737 213.254C408.7 213.166 408.681 213.072 408.681 212.977C408.681 212.882 408.7 212.788 408.737 212.7C408.773 212.612 408.827 212.532 408.894 212.465C408.961 212.398 409.041 212.345 409.129 212.309C409.217 212.273 409.311 212.254 409.407 212.254H412.279C412.47 212.255 412.653 212.331 412.788 212.467C412.924 212.602 412.999 212.786 412.999 212.977C412.999 213.169 412.924 213.352 412.788 213.487C412.653 213.623 412.47 213.699 412.279 213.7ZM406.534 213.7H403.662C403.471 213.699 403.287 213.623 403.152 213.487C403.017 213.352 402.941 213.169 402.941 212.977C402.941 212.786 403.017 212.602 403.152 212.467C403.287 212.331 403.471 212.255 403.662 212.254H406.534C406.726 212.255 406.909 212.331 407.044 212.467C407.179 212.602 407.255 212.786 407.255 212.977C407.255 213.169 407.179 213.352 407.044 213.487C406.909 213.623 406.726 213.699 406.534 213.7ZM400.79 213.7H397.917C397.726 213.699 397.543 213.623 397.408 213.487C397.273 213.352 397.197 213.169 397.197 212.977C397.197 212.786 397.273 212.602 397.408 212.467C397.543 212.331 397.726 212.255 397.917 212.254H400.79C400.885 212.254 400.979 212.273 401.067 212.309C401.155 212.345 401.235 212.398 401.302 212.465C401.37 212.532 401.423 212.612 401.459 212.7C401.496 212.788 401.515 212.882 401.515 212.977C401.515 213.072 401.496 213.166 401.459 213.254C401.423 213.342 401.37 213.422 401.302 213.489C401.235 213.556 401.155 213.609 401.067 213.646C400.979 213.682 400.885 213.7 400.79 213.7ZM395.045 213.7H392.173C392.078 213.7 391.983 213.682 391.895 213.646C391.807 213.609 391.727 213.556 391.66 213.489C391.593 213.422 391.539 213.342 391.503 213.254C391.466 213.166 391.448 213.072 391.448 212.977C391.448 212.882 391.466 212.788 391.503 212.7C391.539 212.612 391.593 212.532 391.66 212.465C391.727 212.398 391.807 212.345 391.895 212.309C391.983 212.273 392.078 212.254 392.173 212.254H395.045C395.236 212.255 395.42 212.331 395.555 212.467C395.69 212.602 395.765 212.786 395.765 212.977C395.765 213.169 395.69 213.352 395.555 213.487C395.42 213.623 395.236 213.699 395.045 213.7ZM389.3 213.7H386.428C386.237 213.699 386.053 213.623 385.918 213.487C385.783 213.352 385.707 213.169 385.707 212.977C385.707 212.786 385.783 212.602 385.918 212.467C386.053 212.331 386.237 212.255 386.428 212.254H389.3C389.492 212.255 389.675 212.331 389.81 212.467C389.945 212.602 390.021 212.786 390.021 212.977C390.021 213.169 389.945 213.352 389.81 213.487C389.675 213.623 389.492 213.699 389.3 213.7ZM383.556 213.7H380.683C380.492 213.699 380.309 213.623 380.174 213.487C380.039 213.352 379.963 213.169 379.963 212.977C379.963 212.786 380.039 212.602 380.174 212.467C380.309 212.331 380.492 212.255 380.683 212.254H383.556C383.651 212.254 383.745 212.273 383.833 212.309C383.921 212.345 384.001 212.398 384.068 212.465C384.136 212.532 384.189 212.612 384.226 212.7C384.262 212.788 384.281 212.882 384.281 212.977C384.281 213.072 384.262 213.166 384.226 213.254C384.189 213.342 384.136 213.422 384.068 213.489C384.001 213.556 383.921 213.609 383.833 213.646C383.745 213.682 383.651 213.7 383.556 213.7ZM377.811 213.7H374.939C374.844 213.7 374.749 213.682 374.661 213.646C374.573 213.609 374.494 213.556 374.426 213.489C374.359 213.422 374.305 213.342 374.269 213.254C374.232 213.166 374.214 213.072 374.214 212.977C374.214 212.882 374.232 212.788 374.269 212.7C374.305 212.612 374.359 212.532 374.426 212.465C374.494 212.398 374.573 212.345 374.661 212.309C374.749 212.273 374.844 212.254 374.939 212.254H377.811C378.002 212.255 378.186 212.331 378.321 212.467C378.456 212.602 378.532 212.786 378.532 212.977C378.532 213.169 378.456 213.352 378.321 213.487C378.186 213.623 378.002 213.699 377.811 213.7ZM372.066 213.7H369.194C369.003 213.699 368.82 213.623 368.684 213.487C368.549 213.352 368.474 213.169 368.474 212.977C368.474 212.786 368.549 212.602 368.684 212.467C368.82 212.331 369.003 212.255 369.194 212.254H372.066C372.258 212.255 372.441 212.331 372.576 212.467C372.711 212.602 372.787 212.786 372.787 212.977C372.787 213.169 372.711 213.352 372.576 213.487C372.441 213.623 372.258 213.699 372.066 213.7ZM366.321 213.7H363.449C363.354 213.7 363.259 213.682 363.171 213.646C363.083 213.609 363.004 213.556 362.936 213.489C362.869 213.422 362.815 213.342 362.779 213.254C362.742 213.166 362.724 213.072 362.724 212.977C362.724 212.882 362.742 212.788 362.779 212.7C362.815 212.612 362.869 212.532 362.936 212.465C363.004 212.398 363.083 212.345 363.171 212.309C363.259 212.273 363.354 212.254 363.449 212.254H366.321C366.512 212.255 366.696 212.331 366.831 212.467C366.966 212.602 367.042 212.786 367.042 212.977C367.042 213.169 366.966 213.352 366.831 213.487C366.696 213.623 366.512 213.699 366.321 213.7ZM360.576 213.7H357.704C357.513 213.699 357.33 213.623 357.194 213.487C357.059 213.352 356.984 213.169 356.984 212.977C356.984 212.786 357.059 212.602 357.194 212.467C357.33 212.331 357.513 212.255 357.704 212.254H360.576C360.768 212.255 360.951 212.331 361.086 212.467C361.221 212.602 361.297 212.786 361.297 212.977C361.297 213.169 361.221 213.352 361.086 213.487C360.951 213.623 360.768 213.699 360.576 213.7ZM354.832 213.7H351.959C351.768 213.699 351.585 213.623 351.45 213.487C351.315 213.352 351.239 213.169 351.239 212.977C351.239 212.786 351.315 212.602 351.45 212.467C351.585 212.331 351.768 212.255 351.959 212.254H354.832C354.927 212.254 355.021 212.273 355.109 212.309C355.197 212.345 355.277 212.398 355.344 212.465C355.412 212.532 355.465 212.612 355.502 212.7C355.538 212.788 355.557 212.882 355.557 212.977C355.557 213.072 355.538 213.166 355.502 213.254C355.465 213.342 355.412 213.422 355.344 213.489C355.277 213.556 355.197 213.609 355.109 213.646C355.021 213.682 354.927 213.7 354.832 213.7ZM349.087 213.7H346.215C346.12 213.7 346.025 213.682 345.938 213.646C345.85 213.609 345.77 213.556 345.702 213.489C345.635 213.422 345.581 213.342 345.545 213.254C345.509 213.166 345.49 213.072 345.49 212.977C345.49 212.882 345.509 212.788 345.545 212.7C345.581 212.612 345.635 212.532 345.702 212.465C345.77 212.398 345.85 212.345 345.938 212.309C346.025 212.273 346.12 212.254 346.215 212.254H349.087C349.182 212.254 349.277 212.273 349.364 212.309C349.452 212.345 349.532 212.398 349.6 212.465C349.667 212.532 349.721 212.612 349.757 212.7C349.793 212.788 349.812 212.882 349.812 212.977C349.812 213.072 349.793 213.166 349.757 213.254C349.721 213.342 349.667 213.422 349.6 213.489C349.532 213.556 349.452 213.609 349.364 213.646C349.277 213.682 349.182 213.7 349.087 213.7ZM422.341 213.7H420.896C420.705 213.699 420.521 213.623 420.386 213.487C420.251 213.352 420.175 213.169 420.175 212.977C420.175 212.786 420.251 212.602 420.386 212.467C420.521 212.331 420.705 212.255 420.896 212.254H422.341C422.436 212.254 422.531 212.273 422.619 212.309C422.707 212.345 422.787 212.398 422.854 212.465C422.921 212.532 422.975 212.612 423.011 212.7C423.048 212.788 423.066 212.882 423.066 212.977C423.066 213.072 423.048 213.166 423.011 213.254C422.975 213.342 422.921 213.422 422.854 213.489C422.787 213.556 422.707 213.609 422.619 213.646C422.531 213.682 422.436 213.7 422.341 213.7ZM347.114 233.206H346.392C346.2 233.206 346.017 233.129 345.882 232.994C345.747 232.858 345.671 232.675 345.671 232.484C345.671 232.292 345.747 232.109 345.882 231.973C346.017 231.838 346.2 231.762 346.392 231.761H347.114C347.306 231.762 347.489 231.838 347.624 231.973C347.759 232.109 347.835 232.292 347.835 232.484C347.835 232.675 347.759 232.858 347.624 232.994C347.489 233.129 347.306 233.206 347.114 233.206ZM414.848 233.206H413.437C413.245 233.206 413.062 233.129 412.927 232.994C412.792 232.858 412.716 232.675 412.716 232.484C412.716 232.292 412.792 232.109 412.927 231.973C413.062 231.838 413.245 231.762 413.437 231.761H414.848C414.943 231.761 415.037 231.779 415.125 231.815C415.213 231.851 415.293 231.905 415.361 231.972C415.428 232.039 415.481 232.119 415.518 232.207C415.554 232.294 415.573 232.389 415.573 232.484C415.573 232.579 415.554 232.673 415.518 232.761C415.481 232.849 415.428 232.928 415.361 232.996C415.293 233.063 415.213 233.116 415.125 233.152C415.037 233.188 414.943 233.207 414.848 233.206ZM410.615 233.206H409.203C409.012 233.206 408.829 233.129 408.694 232.994C408.559 232.858 408.483 232.675 408.483 232.484C408.483 232.292 408.559 232.109 408.694 231.973C408.829 231.838 409.012 231.762 409.203 231.761H410.615C410.806 231.762 410.989 231.838 411.124 231.973C411.259 232.109 411.335 232.292 411.335 232.484C411.335 232.675 411.259 232.858 411.124 232.994C410.989 233.129 410.806 233.206 410.615 233.206ZM406.382 233.206H404.97C404.875 233.207 404.781 233.188 404.693 233.152C404.605 233.116 404.525 233.063 404.458 232.996C404.39 232.928 404.337 232.849 404.3 232.761C404.264 232.673 404.245 232.579 404.245 232.484C404.245 232.389 404.264 232.294 404.3 232.207C404.337 232.119 404.39 232.039 404.458 231.972C404.525 231.905 404.605 231.851 404.693 231.815C404.781 231.779 404.875 231.761 404.97 231.761H406.382C406.573 231.762 406.756 231.838 406.891 231.973C407.026 232.109 407.102 232.292 407.102 232.484C407.102 232.675 407.026 232.858 406.891 232.994C406.756 233.129 406.573 233.206 406.382 233.206ZM402.148 233.206H400.736C400.641 233.207 400.547 233.188 400.459 233.152C400.371 233.116 400.291 233.063 400.224 232.996C400.157 232.928 400.103 232.849 400.067 232.761C400.03 232.673 400.011 232.579 400.011 232.484C400.011 232.389 400.03 232.294 400.067 232.207C400.103 232.119 400.157 232.039 400.224 231.972C400.291 231.905 400.371 231.851 400.459 231.815C400.547 231.779 400.641 231.761 400.736 231.761H402.148C402.339 231.762 402.522 231.838 402.657 231.973C402.792 232.109 402.868 232.292 402.868 232.484C402.868 232.675 402.792 232.858 402.657 232.994C402.522 233.129 402.339 233.206 402.148 233.206ZM397.915 233.206H396.503C396.312 233.206 396.129 233.129 395.994 232.994C395.859 232.858 395.783 232.675 395.783 232.484C395.783 232.292 395.859 232.109 395.994 231.973C396.129 231.838 396.312 231.762 396.503 231.761H397.915C398.01 231.761 398.104 231.779 398.192 231.815C398.28 231.851 398.36 231.905 398.427 231.972C398.495 232.039 398.548 232.119 398.584 232.207C398.621 232.294 398.64 232.389 398.64 232.484C398.64 232.579 398.621 232.673 398.584 232.761C398.548 232.849 398.495 232.928 398.427 232.996C398.36 233.063 398.28 233.116 398.192 233.152C398.104 233.188 398.01 233.207 397.915 233.206ZM393.681 233.206H392.27C392.175 233.207 392.081 233.188 391.993 233.152C391.905 233.116 391.825 233.063 391.758 232.996C391.69 232.928 391.637 232.849 391.6 232.761C391.564 232.673 391.545 232.579 391.545 232.484C391.545 232.389 391.564 232.294 391.6 232.207C391.637 232.119 391.69 232.039 391.758 231.972C391.825 231.905 391.905 231.851 391.993 231.815C392.081 231.779 392.175 231.761 392.27 231.761H393.681C393.873 231.762 394.056 231.838 394.191 231.973C394.326 232.109 394.402 232.292 394.402 232.484C394.402 232.675 394.326 232.858 394.191 232.994C394.056 233.129 393.873 233.206 393.681 233.206ZM389.448 233.206H388.037C387.846 233.206 387.662 233.129 387.527 232.994C387.392 232.858 387.316 232.675 387.316 232.484C387.316 232.292 387.392 232.109 387.527 231.973C387.662 231.838 387.846 231.762 388.037 231.761H389.448C389.639 231.762 389.822 231.838 389.957 231.973C390.092 232.109 390.168 232.292 390.168 232.484C390.168 232.675 390.092 232.858 389.957 232.994C389.822 233.129 389.639 233.206 389.448 233.206ZM385.214 233.206H383.803C383.708 233.207 383.614 233.188 383.526 233.152C383.438 233.116 383.358 233.063 383.291 232.996C383.223 232.928 383.17 232.849 383.133 232.761C383.097 232.673 383.078 232.579 383.078 232.484C383.078 232.389 383.097 232.294 383.133 232.207C383.17 232.119 383.223 232.039 383.291 231.972C383.358 231.905 383.438 231.851 383.526 231.815C383.614 231.779 383.708 231.761 383.803 231.761H385.214C385.309 231.761 385.404 231.779 385.492 231.815C385.58 231.851 385.66 231.905 385.727 231.972C385.794 232.039 385.848 232.119 385.884 232.207C385.921 232.294 385.939 232.389 385.939 232.484C385.939 232.579 385.921 232.673 385.884 232.761C385.848 232.849 385.794 232.928 385.727 232.996C385.66 233.063 385.58 233.116 385.492 233.152C385.404 233.188 385.309 233.207 385.214 233.206ZM380.981 233.206H379.57C379.379 233.206 379.195 233.129 379.06 232.994C378.925 232.858 378.849 232.675 378.849 232.484C378.849 232.292 378.925 232.109 379.06 231.973C379.195 231.838 379.379 231.762 379.57 231.761H380.981C381.076 231.761 381.171 231.779 381.258 231.815C381.346 231.851 381.426 231.905 381.494 231.972C381.561 232.039 381.615 232.119 381.651 232.207C381.688 232.294 381.706 232.389 381.706 232.484C381.706 232.579 381.688 232.673 381.651 232.761C381.615 232.849 381.561 232.928 381.494 232.996C381.426 233.063 381.346 233.116 381.258 233.152C381.171 233.188 381.076 233.207 380.981 233.206ZM376.748 233.206H375.337C375.242 233.207 375.147 233.188 375.059 233.152C374.971 233.116 374.892 233.063 374.824 232.996C374.757 232.928 374.703 232.849 374.667 232.761C374.63 232.673 374.612 232.579 374.612 232.484C374.612 232.389 374.63 232.294 374.667 232.207C374.703 232.119 374.757 232.039 374.824 231.972C374.892 231.905 374.971 231.851 375.059 231.815C375.147 231.779 375.242 231.761 375.337 231.761H376.748C376.939 231.762 377.123 231.838 377.258 231.973C377.393 232.109 377.469 232.292 377.469 232.484C377.469 232.675 377.393 232.858 377.258 232.994C377.123 233.129 376.939 233.206 376.748 233.206ZM372.514 233.206H371.103C371.008 233.207 370.914 233.188 370.826 233.152C370.738 233.116 370.658 233.063 370.59 232.996C370.523 232.928 370.469 232.849 370.433 232.761C370.397 232.673 370.378 232.579 370.378 232.484C370.378 232.389 370.397 232.294 370.433 232.207C370.469 232.119 370.523 232.039 370.59 231.972C370.658 231.905 370.738 231.851 370.826 231.815C370.914 231.779 371.008 231.761 371.103 231.761H372.514C372.705 231.762 372.889 231.838 373.024 231.973C373.159 232.109 373.235 232.292 373.235 232.484C373.235 232.675 373.159 232.858 373.024 232.994C372.889 233.129 372.705 233.206 372.514 233.206ZM368.281 233.206H366.87C366.678 233.206 366.495 233.129 366.36 232.994C366.225 232.858 366.149 232.675 366.149 232.484C366.149 232.292 366.225 232.109 366.36 231.973C366.495 231.838 366.678 231.762 366.87 231.761H368.281C368.376 231.761 368.47 231.779 368.558 231.815C368.646 231.851 368.726 231.905 368.794 231.972C368.861 232.039 368.914 232.119 368.951 232.207C368.987 232.294 369.006 232.389 369.006 232.484C369.006 232.579 368.987 232.673 368.951 232.761C368.914 232.849 368.861 232.928 368.794 232.996C368.726 233.063 368.646 233.116 368.558 233.152C368.47 233.188 368.376 233.207 368.281 233.206ZM364.048 233.206H362.637C362.445 233.206 362.262 233.129 362.127 232.994C361.992 232.858 361.916 232.675 361.916 232.484C361.916 232.292 361.992 232.109 362.127 231.973C362.262 231.838 362.445 231.762 362.637 231.761H364.048C364.239 231.762 364.422 231.838 364.557 231.973C364.692 232.109 364.768 232.292 364.768 232.484C364.768 232.675 364.692 232.858 364.557 232.994C364.422 233.129 364.239 233.206 364.048 233.206ZM359.814 233.206H358.403C358.308 233.207 358.214 233.188 358.126 233.152C358.038 233.116 357.958 233.063 357.891 232.996C357.823 232.928 357.77 232.849 357.734 232.761C357.697 232.673 357.678 232.579 357.678 232.484C357.678 232.389 357.697 232.294 357.734 232.207C357.77 232.119 357.823 232.039 357.891 231.972C357.958 231.905 358.038 231.851 358.126 231.815C358.214 231.779 358.308 231.761 358.403 231.761H359.814C360.005 231.762 360.189 231.838 360.324 231.973C360.459 232.109 360.534 232.292 360.534 232.484C360.534 232.675 360.459 232.858 360.324 232.994C360.189 233.129 360.005 233.206 359.814 233.206ZM355.581 233.206H354.169C354.074 233.207 353.98 233.188 353.892 233.152C353.804 233.116 353.724 233.063 353.657 232.996C353.59 232.928 353.536 232.849 353.5 232.761C353.463 232.673 353.444 232.579 353.444 232.484C353.444 232.389 353.463 232.294 353.5 232.207C353.536 232.119 353.59 232.039 353.657 231.972C353.724 231.905 353.804 231.851 353.892 231.815C353.98 231.779 354.074 231.761 354.169 231.761H355.581C355.772 231.762 355.955 231.838 356.09 231.973C356.225 232.109 356.301 232.292 356.301 232.484C356.301 232.675 356.225 232.858 356.09 232.994C355.955 233.129 355.772 233.206 355.581 233.206ZM351.348 233.206H349.936C349.745 233.206 349.562 233.129 349.427 232.994C349.292 232.858 349.216 232.675 349.216 232.484C349.216 232.292 349.292 232.109 349.427 231.973C349.562 231.838 349.745 231.762 349.936 231.761H351.348C351.443 231.761 351.537 231.779 351.625 231.815C351.713 231.851 351.793 231.905 351.86 231.972C351.928 232.039 351.981 232.119 352.017 232.207C352.054 232.294 352.073 232.389 352.073 232.484C352.073 232.579 352.054 232.673 352.017 232.761C351.981 232.849 351.928 232.928 351.86 232.996C351.793 233.063 351.713 233.116 351.625 233.152C351.537 233.188 351.443 233.207 351.348 233.206ZM418.393 233.206H417.671C417.479 233.206 417.295 233.13 417.159 232.995C417.024 232.859 416.948 232.675 416.948 232.484C416.948 232.292 417.024 232.108 417.159 231.973C417.295 231.837 417.479 231.761 417.671 231.761H418.393C418.585 231.762 418.768 231.838 418.903 231.973C419.038 232.109 419.114 232.292 419.114 232.484C419.114 232.675 419.038 232.858 418.903 232.994C418.768 233.129 418.585 233.206 418.393 233.206ZM352.14 255.02H351.418C351.323 255.02 351.229 255.002 351.141 254.965C351.053 254.929 350.973 254.876 350.906 254.809C350.838 254.742 350.785 254.662 350.748 254.574C350.712 254.486 350.693 254.392 350.693 254.297C350.693 254.202 350.712 254.108 350.748 254.02C350.785 253.932 350.838 253.852 350.906 253.785C350.973 253.718 351.053 253.665 351.141 253.629C351.229 253.592 351.323 253.574 351.418 253.574H352.14C352.332 253.575 352.515 253.651 352.65 253.787C352.785 253.922 352.861 254.106 352.861 254.297C352.861 254.488 352.785 254.672 352.65 254.807C352.515 254.943 352.332 255.019 352.14 255.02ZM409.918 255.02H408.437C408.342 255.02 408.248 255.002 408.16 254.965C408.072 254.929 407.992 254.876 407.924 254.809C407.857 254.742 407.804 254.662 407.767 254.574C407.731 254.486 407.712 254.392 407.712 254.297C407.712 254.202 407.731 254.108 407.767 254.02C407.804 253.932 407.857 253.852 407.924 253.785C407.992 253.718 408.072 253.665 408.16 253.629C408.248 253.592 408.342 253.574 408.437 253.574H409.918C410.11 253.575 410.293 253.651 410.428 253.787C410.563 253.922 410.639 254.106 410.639 254.297C410.639 254.488 410.563 254.672 410.428 254.807C410.293 254.943 410.11 255.019 409.918 255.02ZM405.474 255.02H403.992C403.801 255.019 403.617 254.943 403.482 254.807C403.347 254.672 403.272 254.488 403.272 254.297C403.272 254.106 403.347 253.922 403.482 253.787C403.617 253.651 403.801 253.575 403.992 253.574H405.474C405.665 253.575 405.848 253.651 405.984 253.787C406.119 253.922 406.194 254.106 406.194 254.297C406.194 254.488 406.119 254.672 405.984 254.807C405.848 254.943 405.665 255.019 405.474 255.02ZM401.03 255.02H399.548C399.356 255.019 399.173 254.943 399.038 254.807C398.903 254.672 398.827 254.488 398.827 254.297C398.827 254.106 398.903 253.922 399.038 253.787C399.173 253.651 399.356 253.575 399.548 253.574H401.03C401.125 253.574 401.219 253.592 401.307 253.629C401.395 253.665 401.475 253.718 401.542 253.785C401.61 253.852 401.663 253.932 401.699 254.02C401.736 254.108 401.755 254.202 401.755 254.297C401.755 254.392 401.736 254.486 401.699 254.574C401.663 254.662 401.61 254.742 401.542 254.809C401.475 254.876 401.395 254.929 401.307 254.965C401.219 255.002 401.125 255.02 401.03 255.02ZM396.585 255.02H395.103C395.008 255.02 394.914 255.002 394.826 254.965C394.738 254.929 394.658 254.876 394.591 254.809C394.524 254.742 394.47 254.662 394.434 254.574C394.397 254.486 394.378 254.392 394.378 254.297C394.378 254.202 394.397 254.108 394.434 254.02C394.47 253.932 394.524 253.852 394.591 253.785C394.658 253.718 394.738 253.665 394.826 253.629C394.914 253.592 395.008 253.574 395.103 253.574H396.585C396.776 253.575 396.959 253.651 397.094 253.787C397.229 253.922 397.305 254.106 397.305 254.297C397.305 254.488 397.229 254.672 397.094 254.807C396.959 254.943 396.776 255.019 396.585 255.02ZM392.14 255.02H390.659C390.564 255.02 390.47 255.002 390.382 254.965C390.294 254.929 390.214 254.876 390.147 254.809C390.079 254.742 390.026 254.662 389.989 254.574C389.953 254.486 389.934 254.392 389.934 254.297C389.934 254.202 389.953 254.108 389.989 254.02C390.026 253.932 390.079 253.852 390.147 253.785C390.214 253.718 390.294 253.665 390.382 253.629C390.47 253.592 390.564 253.574 390.659 253.574H392.14C392.332 253.575 392.515 253.651 392.65 253.787C392.785 253.922 392.861 254.106 392.861 254.297C392.861 254.488 392.785 254.672 392.65 254.807C392.515 254.943 392.332 255.019 392.14 255.02ZM387.696 255.02H386.215C386.12 255.02 386.026 255.002 385.938 254.965C385.85 254.929 385.77 254.876 385.702 254.809C385.635 254.742 385.581 254.662 385.545 254.574C385.509 254.486 385.49 254.392 385.49 254.297C385.49 254.202 385.509 254.108 385.545 254.02C385.581 253.932 385.635 253.852 385.702 253.785C385.77 253.718 385.85 253.665 385.938 253.629C386.026 253.592 386.12 253.574 386.215 253.574H387.696C387.887 253.575 388.071 253.651 388.206 253.787C388.341 253.922 388.417 254.106 388.417 254.297C388.417 254.488 388.341 254.672 388.206 254.807C388.071 254.943 387.887 255.019 387.696 255.02ZM383.252 255.02H381.77C381.579 255.019 381.395 254.943 381.26 254.807C381.125 254.672 381.049 254.488 381.049 254.297C381.049 254.106 381.125 253.922 381.26 253.787C381.395 253.651 381.579 253.575 381.77 253.574H383.252C383.347 253.574 383.441 253.592 383.529 253.629C383.617 253.665 383.697 253.718 383.764 253.785C383.832 253.852 383.885 253.932 383.922 254.02C383.958 254.108 383.977 254.202 383.977 254.297C383.977 254.392 383.958 254.486 383.922 254.574C383.885 254.662 383.832 254.742 383.764 254.809C383.697 254.876 383.617 254.929 383.529 254.965C383.441 255.002 383.347 255.02 383.252 255.02ZM378.807 255.02H377.326C377.231 255.02 377.136 255.002 377.048 254.965C376.96 254.929 376.88 254.876 376.813 254.809C376.746 254.742 376.692 254.662 376.656 254.574C376.619 254.486 376.601 254.392 376.601 254.297C376.601 254.202 376.619 254.108 376.656 254.02C376.692 253.932 376.746 253.852 376.813 253.785C376.88 253.718 376.96 253.665 377.048 253.629C377.136 253.592 377.231 253.574 377.326 253.574H378.807C378.998 253.575 379.181 253.651 379.316 253.787C379.451 253.922 379.527 254.106 379.527 254.297C379.527 254.488 379.451 254.672 379.316 254.807C379.181 254.943 378.998 255.019 378.807 255.02ZM374.362 255.02H372.881C372.786 255.02 372.692 255.002 372.604 254.965C372.516 254.929 372.436 254.876 372.369 254.809C372.301 254.742 372.248 254.662 372.211 254.574C372.175 254.486 372.156 254.392 372.156 254.297C372.156 254.202 372.175 254.108 372.211 254.02C372.248 253.932 372.301 253.852 372.369 253.785C372.436 253.718 372.516 253.665 372.604 253.629C372.692 253.592 372.786 253.574 372.881 253.574H374.362C374.554 253.575 374.737 253.651 374.872 253.787C375.007 253.922 375.083 254.106 375.083 254.297C375.083 254.488 375.007 254.672 374.872 254.807C374.737 254.943 374.554 255.019 374.362 255.02ZM369.918 255.02H368.437C368.342 255.02 368.248 255.002 368.16 254.965C368.072 254.929 367.992 254.876 367.924 254.809C367.857 254.742 367.804 254.662 367.767 254.574C367.731 254.486 367.712 254.392 367.712 254.297C367.712 254.202 367.731 254.108 367.767 254.02C367.804 253.932 367.857 253.852 367.924 253.785C367.992 253.718 368.072 253.665 368.16 253.629C368.248 253.592 368.342 253.574 368.437 253.574H369.918C370.11 253.575 370.293 253.651 370.428 253.787C370.563 253.922 370.639 254.106 370.639 254.297C370.639 254.488 370.563 254.672 370.428 254.807C370.293 254.943 370.11 255.019 369.918 255.02ZM365.474 255.02H363.992C363.801 255.019 363.617 254.943 363.482 254.807C363.347 254.672 363.272 254.488 363.272 254.297C363.272 254.106 363.347 253.922 363.482 253.787C363.617 253.651 363.801 253.575 363.992 253.574H365.474C365.569 253.574 365.663 253.592 365.751 253.629C365.839 253.665 365.919 253.718 365.986 253.785C366.054 253.852 366.107 253.932 366.144 254.02C366.18 254.108 366.199 254.202 366.199 254.297C366.199 254.392 366.18 254.486 366.144 254.574C366.107 254.662 366.054 254.742 365.986 254.809C365.919 254.876 365.839 254.929 365.751 254.965C365.663 255.002 365.569 255.02 365.474 255.02ZM361.03 255.02H359.548C359.453 255.02 359.358 255.002 359.27 254.965C359.182 254.929 359.103 254.876 359.035 254.809C358.968 254.742 358.914 254.662 358.878 254.574C358.841 254.486 358.823 254.392 358.823 254.297C358.823 254.202 358.841 254.108 358.878 254.02C358.914 253.932 358.968 253.852 359.035 253.785C359.103 253.718 359.182 253.665 359.27 253.629C359.358 253.592 359.453 253.574 359.548 253.574H361.03C361.125 253.574 361.219 253.592 361.307 253.629C361.395 253.665 361.475 253.718 361.542 253.785C361.61 253.852 361.663 253.932 361.699 254.02C361.736 254.108 361.755 254.202 361.755 254.297C361.755 254.392 361.736 254.486 361.699 254.574C361.663 254.662 361.61 254.742 361.542 254.809C361.475 254.876 361.395 254.929 361.307 254.965C361.219 255.002 361.125 255.02 361.03 255.02ZM356.585 255.02H355.103C355.008 255.02 354.914 255.002 354.826 254.965C354.738 254.929 354.658 254.876 354.591 254.809C354.524 254.742 354.47 254.662 354.434 254.574C354.397 254.486 354.378 254.392 354.378 254.297C354.378 254.202 354.397 254.108 354.434 254.02C354.47 253.932 354.524 253.852 354.591 253.785C354.658 253.718 354.738 253.665 354.826 253.629C354.914 253.592 355.008 253.574 355.103 253.574H356.585C356.776 253.575 356.959 253.651 357.094 253.787C357.229 253.922 357.305 254.106 357.305 254.297C357.305 254.488 357.229 254.672 357.094 254.807C356.959 254.943 356.776 255.019 356.585 255.02ZM413.603 255.02H412.881C412.786 255.02 412.692 255.002 412.604 254.965C412.516 254.929 412.436 254.876 412.369 254.809C412.301 254.742 412.248 254.662 412.211 254.574C412.175 254.486 412.156 254.392 412.156 254.297C412.156 254.202 412.175 254.108 412.211 254.02C412.248 253.932 412.301 253.852 412.369 253.785C412.436 253.718 412.516 253.665 412.604 253.629C412.692 253.592 412.786 253.574 412.881 253.574H413.603C413.795 253.575 413.978 253.651 414.113 253.787C414.248 253.922 414.324 254.106 414.324 254.297C414.324 254.488 414.248 254.672 414.113 254.807C413.978 254.943 413.795 255.019 413.603 255.02Z" fill="white"></path> </svg> 