<?xml version="1.0" encoding="UTF-8"?> <svg xmlns="http://www.w3.org/2000/svg" width="900" height="540" viewBox="0 0 900 540" fill="none"><rect width="900" height="540" rx="30" fill="url(#paint0_linear_3955_885)"></rect><path d="M146.196 237.156H145.083L137.524 227.938L145.083 218.758H146.196L141.43 227.938L146.196 237.156ZM155.024 237.156H153.891L146.196 227.938L153.891 218.758H155.024L150.278 227.938L155.024 237.156ZM167.018 236.277V237H155.67V236.277H156.608C157.702 236.277 158.496 235.958 158.991 235.32C159.303 234.904 159.459 233.901 159.459 232.312V215.203C159.459 213.862 159.375 212.977 159.205 212.547C159.075 212.221 158.808 211.941 158.405 211.707C157.832 211.395 157.233 211.238 156.608 211.238H155.67V210.516H167.018V211.238H166.061C164.98 211.238 164.192 211.557 163.698 212.195C163.372 212.612 163.209 213.615 163.209 215.203V232.312C163.209 233.654 163.294 234.539 163.463 234.969C163.594 235.294 163.867 235.574 164.284 235.809C164.844 236.121 165.436 236.277 166.061 236.277H167.018ZM181.24 213.23V219.109H185.42V220.477H181.24V232.078C181.24 233.237 181.403 234.018 181.728 234.422C182.067 234.826 182.496 235.027 183.017 235.027C183.447 235.027 183.864 234.897 184.267 234.637C184.671 234.363 184.983 233.966 185.205 233.445H185.966C185.511 234.721 184.866 235.685 184.033 236.336C183.199 236.974 182.34 237.293 181.455 237.293C180.856 237.293 180.27 237.13 179.697 236.805C179.124 236.466 178.701 235.991 178.427 235.379C178.154 234.754 178.017 233.797 178.017 232.508V220.477H175.185V219.832C175.901 219.546 176.63 219.064 177.373 218.387C178.128 217.697 178.798 216.883 179.384 215.945C179.684 215.451 180.101 214.546 180.634 213.23H181.24ZM194.327 218.582C197.036 218.582 199.21 219.611 200.851 221.668C202.244 223.426 202.941 225.444 202.941 227.723C202.941 229.324 202.557 230.945 201.788 232.586C201.02 234.227 199.959 235.464 198.605 236.297C197.264 237.13 195.766 237.547 194.113 237.547C191.417 237.547 189.275 236.473 187.687 234.324C186.346 232.514 185.675 230.483 185.675 228.23C185.675 226.59 186.079 224.962 186.886 223.348C187.706 221.72 188.78 220.522 190.109 219.754C191.437 218.973 192.843 218.582 194.327 218.582ZM193.722 219.852C193.032 219.852 192.335 220.06 191.632 220.477C190.942 220.88 190.382 221.596 189.952 222.625C189.523 223.654 189.308 224.975 189.308 226.59C189.308 229.194 189.822 231.44 190.851 233.328C191.892 235.216 193.26 236.16 194.952 236.16C196.215 236.16 197.257 235.639 198.077 234.598C198.898 233.556 199.308 231.766 199.308 229.227C199.308 226.049 198.624 223.549 197.257 221.727C196.333 220.477 195.154 219.852 193.722 219.852ZM210.13 209.227V232.957C210.13 234.077 210.208 234.819 210.364 235.184C210.533 235.548 210.787 235.828 211.126 236.023C211.464 236.206 212.096 236.297 213.02 236.297V237H204.251V236.297C205.071 236.297 205.631 236.212 205.93 236.043C206.23 235.874 206.464 235.594 206.634 235.203C206.803 234.812 206.888 234.064 206.888 232.957V216.707C206.888 214.689 206.842 213.452 206.751 212.996C206.66 212.527 206.51 212.208 206.302 212.039C206.106 211.87 205.852 211.785 205.54 211.785C205.201 211.785 204.772 211.889 204.251 212.098L203.919 211.414L209.251 209.227H210.13ZM226.147 234.988C225.274 235.9 224.422 236.557 223.588 236.961C222.755 237.352 221.857 237.547 220.893 237.547C218.94 237.547 217.234 236.733 215.776 235.105C214.317 233.465 213.588 231.362 213.588 228.797C213.588 226.232 214.396 223.888 216.01 221.766C217.625 219.63 219.702 218.562 222.241 218.562C223.816 218.562 225.118 219.064 226.147 220.066V216.766C226.147 214.721 226.095 213.465 225.991 212.996C225.899 212.527 225.75 212.208 225.541 212.039C225.333 211.87 225.073 211.785 224.76 211.785C224.422 211.785 223.972 211.889 223.413 212.098L223.159 211.414L228.491 209.227H229.37V229.91C229.37 232.007 229.415 233.289 229.506 233.758C229.61 234.214 229.767 234.533 229.975 234.715C230.196 234.897 230.45 234.988 230.737 234.988C231.088 234.988 231.557 234.878 232.143 234.656L232.358 235.34L227.045 237.547H226.147V234.988ZM226.147 233.621V224.402C226.069 223.517 225.834 222.71 225.444 221.98C225.053 221.251 224.532 220.704 223.881 220.34C223.243 219.962 222.618 219.773 222.006 219.773C220.86 219.773 219.838 220.288 218.94 221.316C217.755 222.671 217.163 224.65 217.163 227.254C217.163 229.884 217.735 231.902 218.881 233.309C220.027 234.702 221.303 235.398 222.709 235.398C223.894 235.398 225.04 234.806 226.147 233.621ZM245.623 222.391C246.925 221.089 247.693 220.34 247.927 220.145C248.513 219.65 249.145 219.266 249.822 218.992C250.499 218.719 251.17 218.582 251.834 218.582C252.953 218.582 253.917 218.908 254.724 219.559C255.532 220.21 256.072 221.154 256.345 222.391C257.686 220.828 258.819 219.806 259.744 219.324C260.668 218.829 261.619 218.582 262.595 218.582C263.546 218.582 264.386 218.829 265.115 219.324C265.857 219.806 266.443 220.6 266.873 221.707C267.159 222.462 267.302 223.647 267.302 225.262V232.957C267.302 234.077 267.387 234.845 267.556 235.262C267.686 235.548 267.927 235.796 268.279 236.004C268.63 236.199 269.203 236.297 269.998 236.297V237H261.17V236.297H261.541C262.309 236.297 262.908 236.147 263.338 235.848C263.637 235.639 263.852 235.307 263.982 234.852C264.034 234.63 264.06 233.999 264.06 232.957V225.262C264.06 223.803 263.884 222.775 263.533 222.176C263.025 221.342 262.211 220.926 261.091 220.926C260.401 220.926 259.705 221.102 259.002 221.453C258.311 221.792 257.472 222.43 256.482 223.367L256.443 223.582L256.482 224.422V232.957C256.482 234.181 256.547 234.943 256.677 235.242C256.821 235.542 257.081 235.796 257.459 236.004C257.836 236.199 258.481 236.297 259.392 236.297V237H250.349V236.297C251.339 236.297 252.016 236.18 252.38 235.945C252.758 235.711 253.018 235.359 253.162 234.891C253.227 234.669 253.259 234.025 253.259 232.957V225.262C253.259 223.803 253.045 222.755 252.615 222.117C252.042 221.284 251.241 220.867 250.213 220.867C249.509 220.867 248.813 221.056 248.123 221.434C247.042 222.007 246.209 222.651 245.623 223.367V232.957C245.623 234.129 245.701 234.891 245.857 235.242C246.026 235.594 246.267 235.861 246.58 236.043C246.905 236.212 247.556 236.297 248.533 236.297V237H239.685V236.297C240.505 236.297 241.078 236.212 241.404 236.043C241.729 235.861 241.977 235.581 242.146 235.203C242.315 234.812 242.4 234.064 242.4 232.957V226.121C242.4 224.155 242.341 222.885 242.224 222.312C242.133 221.883 241.99 221.59 241.795 221.434C241.599 221.264 241.332 221.18 240.994 221.18C240.629 221.18 240.193 221.277 239.685 221.473L239.392 220.77L244.783 218.582H245.623V222.391ZM268.827 219.109H277.167V219.832H276.757C276.171 219.832 275.728 219.962 275.429 220.223C275.142 220.47 274.999 220.783 274.999 221.16C274.999 221.668 275.214 222.371 275.644 223.27L279.999 232.293L284.003 222.41C284.224 221.876 284.335 221.349 284.335 220.828C284.335 220.594 284.29 220.418 284.198 220.301C284.094 220.158 283.932 220.047 283.71 219.969C283.489 219.878 283.098 219.832 282.538 219.832V219.109H288.359V219.832C287.877 219.884 287.506 219.988 287.245 220.145C286.985 220.301 286.698 220.594 286.386 221.023C286.269 221.206 286.047 221.707 285.722 222.527L278.437 240.379C277.734 242.111 276.809 243.419 275.663 244.305C274.53 245.19 273.437 245.633 272.382 245.633C271.614 245.633 270.982 245.411 270.488 244.969C269.993 244.526 269.745 244.018 269.745 243.445C269.745 242.898 269.921 242.456 270.273 242.117C270.637 241.792 271.132 241.629 271.757 241.629C272.187 241.629 272.773 241.772 273.515 242.059C274.036 242.254 274.361 242.352 274.491 242.352C274.882 242.352 275.305 242.15 275.761 241.746C276.23 241.342 276.698 240.561 277.167 239.402L278.437 236.297L272.011 222.801C271.816 222.397 271.503 221.896 271.073 221.297C270.748 220.841 270.481 220.535 270.273 220.379C269.973 220.171 269.491 219.988 268.827 219.832V219.109ZM303.635 220.516V232.273C303.635 233.94 303.817 234.995 304.182 235.438C304.664 236.01 305.308 236.297 306.116 236.297H307.737V237H297.053V236.297H297.854C298.375 236.297 298.85 236.167 299.28 235.906C299.709 235.646 300.002 235.294 300.159 234.852C300.328 234.409 300.413 233.549 300.413 232.273V220.516H296.936V219.109H300.413V217.938C300.413 216.154 300.699 214.643 301.272 213.406C301.845 212.169 302.717 211.173 303.889 210.418C305.074 209.65 306.402 209.266 307.873 209.266C309.241 209.266 310.497 209.708 311.643 210.594C312.398 211.18 312.776 211.837 312.776 212.566C312.776 212.957 312.607 213.328 312.268 213.68C311.929 214.018 311.565 214.188 311.174 214.188C310.875 214.188 310.556 214.083 310.217 213.875C309.892 213.654 309.488 213.191 309.006 212.488C308.524 211.772 308.082 211.29 307.678 211.043C307.274 210.796 306.825 210.672 306.33 210.672C305.732 210.672 305.224 210.835 304.807 211.16C304.39 211.473 304.091 211.967 303.909 212.645C303.726 213.309 303.635 215.034 303.635 217.82V219.109H308.245V220.516H303.635ZM313.598 218.582V222.605C315.095 219.923 316.632 218.582 318.207 218.582C318.923 218.582 319.516 218.803 319.984 219.246C320.453 219.676 320.688 220.177 320.688 220.75C320.688 221.258 320.518 221.688 320.18 222.039C319.841 222.391 319.438 222.566 318.969 222.566C318.513 222.566 317.999 222.345 317.426 221.902C316.866 221.447 316.449 221.219 316.176 221.219C315.941 221.219 315.688 221.349 315.414 221.609C314.828 222.143 314.223 223.022 313.598 224.246V232.82C313.598 233.81 313.721 234.559 313.969 235.066C314.138 235.418 314.438 235.711 314.867 235.945C315.297 236.18 315.915 236.297 316.723 236.297V237H307.563V236.297C308.474 236.297 309.151 236.154 309.594 235.867C309.919 235.659 310.147 235.327 310.277 234.871C310.342 234.65 310.375 234.018 310.375 232.977V226.043C310.375 223.96 310.329 222.723 310.238 222.332C310.16 221.928 310.004 221.635 309.77 221.453C309.548 221.271 309.268 221.18 308.93 221.18C308.526 221.18 308.07 221.277 307.563 221.473L307.367 220.77L312.777 218.582H313.598ZM324.634 209.227C325.181 209.227 325.643 209.422 326.021 209.812C326.412 210.19 326.607 210.652 326.607 211.199C326.607 211.746 326.412 212.215 326.021 212.605C325.643 212.996 325.181 213.191 324.634 213.191C324.088 213.191 323.619 212.996 323.228 212.605C322.838 212.215 322.642 211.746 322.642 211.199C322.642 210.652 322.831 210.19 323.209 209.812C323.599 209.422 324.074 209.227 324.634 209.227ZM326.255 218.582V232.957C326.255 234.077 326.334 234.826 326.49 235.203C326.659 235.568 326.9 235.841 327.213 236.023C327.538 236.206 328.124 236.297 328.97 236.297V237H320.279V236.297C321.151 236.297 321.737 236.212 322.037 236.043C322.336 235.874 322.571 235.594 322.74 235.203C322.922 234.812 323.013 234.064 323.013 232.957V226.062C323.013 224.122 322.955 222.866 322.838 222.293C322.746 221.876 322.603 221.59 322.408 221.434C322.213 221.264 321.946 221.18 321.607 221.18C321.242 221.18 320.8 221.277 320.279 221.473L320.005 220.77L325.396 218.582H326.255ZM332.624 225.848C332.611 228.504 333.256 230.587 334.558 232.098C335.86 233.608 337.39 234.363 339.148 234.363C340.32 234.363 341.335 234.044 342.195 233.406C343.067 232.755 343.796 231.648 344.382 230.086L344.988 230.477C344.714 232.26 343.92 233.888 342.605 235.359C341.29 236.818 339.642 237.547 337.663 237.547C335.515 237.547 333.672 236.714 332.136 235.047C330.613 233.367 329.851 231.115 329.851 228.289C329.851 225.229 330.632 222.846 332.195 221.141C333.77 219.422 335.743 218.562 338.113 218.562C340.118 218.562 341.765 219.227 343.054 220.555C344.343 221.87 344.988 223.634 344.988 225.848H332.624ZM332.624 224.715H340.905C340.84 223.569 340.704 222.762 340.495 222.293C340.17 221.564 339.682 220.991 339.03 220.574C338.392 220.158 337.722 219.949 337.019 219.949C335.938 219.949 334.968 220.372 334.109 221.219C333.262 222.052 332.767 223.217 332.624 224.715ZM351.005 222.371C353.101 219.845 355.1 218.582 357.001 218.582C357.977 218.582 358.817 218.829 359.52 219.324C360.223 219.806 360.783 220.607 361.2 221.727C361.486 222.508 361.63 223.706 361.63 225.32V232.957C361.63 234.09 361.721 234.858 361.903 235.262C362.046 235.587 362.274 235.841 362.587 236.023C362.912 236.206 363.505 236.297 364.364 236.297V237H355.516V236.297H355.888C356.721 236.297 357.3 236.173 357.626 235.926C357.964 235.665 358.199 235.288 358.329 234.793C358.381 234.598 358.407 233.986 358.407 232.957V225.633C358.407 224.005 358.192 222.827 357.763 222.098C357.346 221.355 356.636 220.984 355.634 220.984C354.084 220.984 352.541 221.831 351.005 223.523V232.957C351.005 234.168 351.076 234.917 351.22 235.203C351.402 235.581 351.649 235.861 351.962 236.043C352.287 236.212 352.938 236.297 353.915 236.297V237H345.067V236.297H345.458C346.369 236.297 346.981 236.069 347.294 235.613C347.619 235.145 347.782 234.259 347.782 232.957V226.316C347.782 224.168 347.73 222.859 347.626 222.391C347.535 221.922 347.385 221.603 347.177 221.434C346.981 221.264 346.714 221.18 346.376 221.18C346.011 221.18 345.575 221.277 345.067 221.473L344.774 220.77L350.165 218.582H351.005V222.371ZM376.827 234.988C375.954 235.9 375.101 236.557 374.268 236.961C373.435 237.352 372.536 237.547 371.573 237.547C369.62 237.547 367.914 236.733 366.455 235.105C364.997 233.465 364.268 231.362 364.268 228.797C364.268 226.232 365.075 223.888 366.69 221.766C368.304 219.63 370.381 218.562 372.92 218.562C374.496 218.562 375.798 219.064 376.827 220.066V216.766C376.827 214.721 376.774 213.465 376.67 212.996C376.579 212.527 376.429 212.208 376.221 212.039C376.013 211.87 375.752 211.785 375.44 211.785C375.101 211.785 374.652 211.889 374.092 212.098L373.838 211.414L379.17 209.227H380.049V229.91C380.049 232.007 380.095 233.289 380.186 233.758C380.29 234.214 380.446 234.533 380.655 234.715C380.876 234.897 381.13 234.988 381.416 234.988C381.768 234.988 382.237 234.878 382.823 234.656L383.038 235.34L377.725 237.547H376.827V234.988ZM376.827 233.621V224.402C376.748 223.517 376.514 222.71 376.123 221.98C375.733 221.251 375.212 220.704 374.561 220.34C373.923 219.962 373.298 219.773 372.686 219.773C371.54 219.773 370.518 220.288 369.62 221.316C368.435 222.671 367.842 224.65 367.842 227.254C367.842 229.884 368.415 231.902 369.561 233.309C370.707 234.702 371.983 235.398 373.389 235.398C374.574 235.398 375.72 234.806 376.827 233.621ZM396.185 213.23V219.109H400.365V220.477H396.185V232.078C396.185 233.237 396.348 234.018 396.673 234.422C397.012 234.826 397.442 235.027 397.963 235.027C398.392 235.027 398.809 234.897 399.213 234.637C399.616 234.363 399.929 233.966 400.15 233.445H400.912C400.456 234.721 399.811 235.685 398.978 236.336C398.145 236.974 397.285 237.293 396.4 237.293C395.801 237.293 395.215 237.13 394.642 236.805C394.069 236.466 393.646 235.991 393.373 235.379C393.099 234.754 392.963 233.797 392.963 232.508V220.477H390.13V219.832C390.847 219.546 391.576 219.064 392.318 218.387C393.073 217.697 393.744 216.883 394.33 215.945C394.629 215.451 395.046 214.546 395.58 213.23H396.185ZM409.273 218.582C411.981 218.582 414.155 219.611 415.796 221.668C417.189 223.426 417.886 225.444 417.886 227.723C417.886 229.324 417.502 230.945 416.734 232.586C415.965 234.227 414.904 235.464 413.55 236.297C412.209 237.13 410.711 237.547 409.058 237.547C406.363 237.547 404.221 236.473 402.632 234.324C401.291 232.514 400.62 230.483 400.62 228.23C400.62 226.59 401.024 224.962 401.831 223.348C402.652 221.72 403.726 220.522 405.054 219.754C406.382 218.973 407.788 218.582 409.273 218.582ZM408.667 219.852C407.977 219.852 407.28 220.06 406.577 220.477C405.887 220.88 405.327 221.596 404.898 222.625C404.468 223.654 404.253 224.975 404.253 226.59C404.253 229.194 404.767 231.44 405.796 233.328C406.838 235.216 408.205 236.16 409.898 236.16C411.161 236.16 412.202 235.639 413.023 234.598C413.843 233.556 414.253 231.766 414.253 229.227C414.253 226.049 413.57 223.549 412.202 221.727C411.278 220.477 410.099 219.852 408.667 219.852ZM432.518 213.23V219.109H436.698V220.477H432.518V232.078C432.518 233.237 432.681 234.018 433.006 234.422C433.345 234.826 433.774 235.027 434.295 235.027C434.725 235.027 435.142 234.897 435.545 234.637C435.949 234.363 436.261 233.966 436.483 233.445H437.245C436.789 234.721 436.144 235.685 435.311 236.336C434.478 236.974 433.618 237.293 432.733 237.293C432.134 237.293 431.548 237.13 430.975 236.805C430.402 236.466 429.979 235.991 429.705 235.379C429.432 234.754 429.295 233.797 429.295 232.508V220.477H426.463V219.832C427.179 219.546 427.909 219.064 428.651 218.387C429.406 217.697 430.077 216.883 430.663 215.945C430.962 215.451 431.379 214.546 431.913 213.23H432.518ZM446.992 234.422C445.156 235.841 444.004 236.661 443.535 236.883C442.832 237.208 442.083 237.371 441.289 237.371C440.052 237.371 439.03 236.948 438.223 236.102C437.428 235.255 437.031 234.142 437.031 232.762C437.031 231.889 437.227 231.134 437.617 230.496C438.151 229.611 439.076 228.777 440.391 227.996C441.719 227.215 443.919 226.264 446.992 225.145V224.441C446.992 222.658 446.706 221.434 446.133 220.77C445.573 220.105 444.753 219.773 443.672 219.773C442.852 219.773 442.201 219.995 441.719 220.438C441.224 220.88 440.977 221.388 440.977 221.961L441.016 223.094C441.016 223.693 440.859 224.155 440.547 224.48C440.247 224.806 439.85 224.969 439.355 224.969C438.874 224.969 438.477 224.799 438.164 224.461C437.865 224.122 437.715 223.66 437.715 223.074C437.715 221.954 438.288 220.926 439.434 219.988C440.579 219.051 442.188 218.582 444.258 218.582C445.846 218.582 447.148 218.849 448.164 219.383C448.932 219.786 449.499 220.418 449.863 221.277C450.098 221.837 450.215 222.983 450.215 224.715V230.789C450.215 232.495 450.247 233.543 450.312 233.934C450.378 234.311 450.482 234.565 450.625 234.695C450.781 234.826 450.957 234.891 451.152 234.891C451.361 234.891 451.543 234.845 451.699 234.754C451.973 234.585 452.5 234.109 453.281 233.328V234.422C451.823 236.375 450.43 237.352 449.102 237.352C448.464 237.352 447.956 237.13 447.578 236.688C447.201 236.245 447.005 235.49 446.992 234.422ZM446.992 233.152V226.336C445.026 227.117 443.757 227.671 443.184 227.996C442.155 228.569 441.419 229.168 440.977 229.793C440.534 230.418 440.312 231.102 440.312 231.844C440.312 232.781 440.592 233.562 441.152 234.188C441.712 234.799 442.357 235.105 443.086 235.105C444.076 235.105 445.378 234.454 446.992 233.152ZM458.322 209.227V227.039L462.873 222.879C463.836 221.993 464.396 221.434 464.552 221.199C464.657 221.043 464.709 220.887 464.709 220.73C464.709 220.47 464.598 220.249 464.377 220.066C464.168 219.871 463.817 219.76 463.322 219.734V219.109H471.095V219.734C470.028 219.76 469.136 219.923 468.42 220.223C467.716 220.522 466.942 221.056 466.095 221.824L461.505 226.062L466.095 231.863C467.371 233.465 468.231 234.48 468.673 234.91C469.298 235.522 469.845 235.919 470.314 236.102C470.64 236.232 471.206 236.297 472.013 236.297V237H463.322V236.297C463.817 236.284 464.149 236.212 464.318 236.082C464.5 235.939 464.591 235.743 464.591 235.496C464.591 235.197 464.331 234.715 463.81 234.051L458.322 227.039V232.977C458.322 234.135 458.4 234.897 458.556 235.262C458.726 235.626 458.96 235.887 459.259 236.043C459.559 236.199 460.21 236.284 461.213 236.297V237H452.111V236.297C453.022 236.297 453.706 236.186 454.162 235.965C454.435 235.822 454.644 235.6 454.787 235.301C454.982 234.871 455.08 234.129 455.08 233.074V216.785C455.08 214.715 455.034 213.452 454.943 212.996C454.852 212.527 454.702 212.208 454.494 212.039C454.285 211.857 454.012 211.766 453.673 211.766C453.4 211.766 452.99 211.876 452.443 212.098L452.111 211.414L457.423 209.227H458.322ZM474.437 225.848C474.424 228.504 475.068 230.587 476.37 232.098C477.672 233.608 479.202 234.363 480.96 234.363C482.132 234.363 483.148 234.044 484.007 233.406C484.879 232.755 485.609 231.648 486.195 230.086L486.8 230.477C486.527 232.26 485.732 233.888 484.417 235.359C483.102 236.818 481.455 237.547 479.476 237.547C477.327 237.547 475.485 236.714 473.948 235.047C472.425 233.367 471.663 231.115 471.663 228.289C471.663 225.229 472.445 222.846 474.007 221.141C475.583 219.422 477.555 218.562 479.925 218.562C481.93 218.562 483.577 219.227 484.866 220.555C486.155 221.87 486.8 223.634 486.8 225.848H474.437ZM474.437 224.715H482.718C482.653 223.569 482.516 222.762 482.308 222.293C481.982 221.564 481.494 220.991 480.843 220.574C480.205 220.158 479.534 219.949 478.831 219.949C477.751 219.949 476.78 220.372 475.921 221.219C475.075 222.052 474.58 223.217 474.437 224.715ZM506.139 234.422C504.303 235.841 503.151 236.661 502.682 236.883C501.979 237.208 501.23 237.371 500.436 237.371C499.199 237.371 498.177 236.948 497.37 236.102C496.575 235.255 496.178 234.142 496.178 232.762C496.178 231.889 496.373 231.134 496.764 230.496C497.298 229.611 498.222 228.777 499.538 227.996C500.866 227.215 503.066 226.264 506.139 225.145V224.441C506.139 222.658 505.853 221.434 505.28 220.77C504.72 220.105 503.899 219.773 502.819 219.773C501.998 219.773 501.347 219.995 500.866 220.438C500.371 220.88 500.123 221.388 500.123 221.961L500.163 223.094C500.163 223.693 500.006 224.155 499.694 224.48C499.394 224.806 498.997 224.969 498.502 224.969C498.021 224.969 497.623 224.799 497.311 224.461C497.011 224.122 496.862 223.66 496.862 223.074C496.862 221.954 497.435 220.926 498.58 219.988C499.726 219.051 501.334 218.582 503.405 218.582C504.993 218.582 506.295 218.849 507.311 219.383C508.079 219.786 508.646 220.418 509.01 221.277C509.245 221.837 509.362 222.983 509.362 224.715V230.789C509.362 232.495 509.394 233.543 509.459 233.934C509.524 234.311 509.629 234.565 509.772 234.695C509.928 234.826 510.104 234.891 510.299 234.891C510.508 234.891 510.69 234.845 510.846 234.754C511.12 234.585 511.647 234.109 512.428 233.328V234.422C510.97 236.375 509.577 237.352 508.248 237.352C507.61 237.352 507.103 237.13 506.725 236.688C506.347 236.245 506.152 235.49 506.139 234.422ZM506.139 233.152V226.336C504.173 227.117 502.903 227.671 502.33 227.996C501.302 228.569 500.566 229.168 500.123 229.793C499.681 230.418 499.459 231.102 499.459 231.844C499.459 232.781 499.739 233.562 500.299 234.188C500.859 234.799 501.504 235.105 502.233 235.105C503.222 235.105 504.524 234.454 506.139 233.152ZM525.791 222.371C527.887 219.845 529.886 218.582 531.787 218.582C532.763 218.582 533.603 218.829 534.306 219.324C535.009 219.806 535.569 220.607 535.986 221.727C536.272 222.508 536.416 223.706 536.416 225.32V232.957C536.416 234.09 536.507 234.858 536.689 235.262C536.832 235.587 537.06 235.841 537.373 236.023C537.698 236.206 538.291 236.297 539.15 236.297V237H530.302V236.297H530.673C531.507 236.297 532.086 236.173 532.412 235.926C532.75 235.665 532.985 235.288 533.115 234.793C533.167 234.598 533.193 233.986 533.193 232.957V225.633C533.193 224.005 532.978 222.827 532.548 222.098C532.132 221.355 531.422 220.984 530.42 220.984C528.87 220.984 527.327 221.831 525.791 223.523V232.957C525.791 234.168 525.862 234.917 526.005 235.203C526.188 235.581 526.435 235.861 526.748 236.043C527.073 236.212 527.724 236.297 528.701 236.297V237H519.853V236.297H520.244C521.155 236.297 521.767 236.069 522.08 235.613C522.405 235.145 522.568 234.259 522.568 232.957V226.316C522.568 224.168 522.516 222.859 522.412 222.391C522.321 221.922 522.171 221.603 521.963 221.434C521.767 221.264 521.5 221.18 521.162 221.18C520.797 221.18 520.361 221.277 519.853 221.473L519.56 220.77L524.951 218.582H525.791V222.371ZM549.113 234.422C547.277 235.841 546.124 236.661 545.655 236.883C544.952 237.208 544.204 237.371 543.409 237.371C542.172 237.371 541.15 236.948 540.343 236.102C539.549 235.255 539.152 234.142 539.152 232.762C539.152 231.889 539.347 231.134 539.738 230.496C540.271 229.611 541.196 228.777 542.511 227.996C543.839 227.215 546.04 226.264 549.113 225.145V224.441C549.113 222.658 548.826 221.434 548.253 220.77C547.693 220.105 546.873 219.773 545.792 219.773C544.972 219.773 544.321 219.995 543.839 220.438C543.344 220.88 543.097 221.388 543.097 221.961L543.136 223.094C543.136 223.693 542.98 224.155 542.667 224.48C542.368 224.806 541.971 224.969 541.476 224.969C540.994 224.969 540.597 224.799 540.284 224.461C539.985 224.122 539.835 223.66 539.835 223.074C539.835 221.954 540.408 220.926 541.554 219.988C542.7 219.051 544.308 218.582 546.378 218.582C547.967 218.582 549.269 218.849 550.284 219.383C551.053 219.786 551.619 220.418 551.984 221.277C552.218 221.837 552.335 222.983 552.335 224.715V230.789C552.335 232.495 552.368 233.543 552.433 233.934C552.498 234.311 552.602 234.565 552.745 234.695C552.902 234.826 553.077 234.891 553.273 234.891C553.481 234.891 553.663 234.845 553.82 234.754C554.093 234.585 554.62 234.109 555.402 233.328V234.422C553.943 236.375 552.55 237.352 551.222 237.352C550.584 237.352 550.076 237.13 549.698 236.688C549.321 236.245 549.126 235.49 549.113 234.422ZM549.113 233.152V226.336C547.146 227.117 545.877 227.671 545.304 227.996C544.275 228.569 543.54 229.168 543.097 229.793C542.654 230.418 542.433 231.102 542.433 231.844C542.433 232.781 542.713 233.562 543.273 234.188C543.833 234.799 544.477 235.105 545.206 235.105C546.196 235.105 547.498 234.454 549.113 233.152ZM553.86 220.887L559.368 218.66H560.11V222.84C561.035 221.264 561.959 220.164 562.884 219.539C563.821 218.901 564.804 218.582 565.833 218.582C567.63 218.582 569.127 219.285 570.325 220.691C571.796 222.41 572.532 224.65 572.532 227.41C572.532 230.496 571.647 233.048 569.876 235.066C568.417 236.72 566.582 237.547 564.368 237.547C563.404 237.547 562.571 237.41 561.868 237.137C561.347 236.941 560.761 236.551 560.11 235.965V241.414C560.11 242.638 560.182 243.413 560.325 243.738C560.481 244.077 560.742 244.344 561.106 244.539C561.484 244.734 562.161 244.832 563.138 244.832V245.555H553.763V244.832H554.251C554.967 244.845 555.579 244.708 556.087 244.422C556.334 244.279 556.523 244.044 556.653 243.719C556.796 243.406 556.868 242.599 556.868 241.297V224.383C556.868 223.224 556.816 222.488 556.712 222.176C556.608 221.863 556.438 221.629 556.204 221.473C555.983 221.316 555.677 221.238 555.286 221.238C554.973 221.238 554.576 221.329 554.095 221.512L553.86 220.887ZM560.11 223.992V230.672C560.11 232.117 560.169 233.068 560.286 233.523C560.468 234.279 560.911 234.943 561.614 235.516C562.33 236.089 563.229 236.375 564.309 236.375C565.611 236.375 566.666 235.867 567.473 234.852C568.528 233.523 569.055 231.655 569.055 229.246C569.055 226.512 568.457 224.409 567.259 222.938C566.425 221.922 565.436 221.414 564.29 221.414C563.665 221.414 563.046 221.57 562.434 221.883C561.966 222.117 561.191 222.82 560.11 223.992ZM590.699 218.582C593.408 218.582 595.582 219.611 597.223 221.668C598.616 223.426 599.312 225.444 599.312 227.723C599.312 229.324 598.928 230.945 598.16 232.586C597.392 234.227 596.331 235.464 594.977 236.297C593.635 237.13 592.138 237.547 590.484 237.547C587.789 237.547 585.647 236.473 584.059 234.324C582.717 232.514 582.047 230.483 582.047 228.23C582.047 226.59 582.451 224.962 583.258 223.348C584.078 221.72 585.152 220.522 586.48 219.754C587.809 218.973 589.215 218.582 590.699 218.582ZM590.094 219.852C589.404 219.852 588.707 220.06 588.004 220.477C587.314 220.88 586.754 221.596 586.324 222.625C585.895 223.654 585.68 224.975 585.68 226.59C585.68 229.194 586.194 231.44 587.223 233.328C588.264 235.216 589.632 236.16 591.324 236.16C592.587 236.16 593.629 235.639 594.449 234.598C595.27 233.556 595.68 231.766 595.68 229.227C595.68 226.049 594.996 223.549 593.629 221.727C592.704 220.477 591.526 219.852 590.094 219.852ZM605.564 222.371C607.66 219.845 609.659 218.582 611.56 218.582C612.537 218.582 613.377 218.829 614.08 219.324C614.783 219.806 615.343 220.607 615.759 221.727C616.046 222.508 616.189 223.706 616.189 225.32V232.957C616.189 234.09 616.28 234.858 616.463 235.262C616.606 235.587 616.834 235.841 617.146 236.023C617.472 236.206 618.064 236.297 618.923 236.297V237H610.076V236.297H610.447C611.28 236.297 611.86 236.173 612.185 235.926C612.524 235.665 612.758 235.288 612.888 234.793C612.94 234.598 612.966 233.986 612.966 232.957V225.633C612.966 224.005 612.752 222.827 612.322 222.098C611.905 221.355 611.196 220.984 610.193 220.984C608.644 220.984 607.101 221.831 605.564 223.523V232.957C605.564 234.168 605.636 234.917 605.779 235.203C605.961 235.581 606.209 235.861 606.521 236.043C606.847 236.212 607.498 236.297 608.474 236.297V237H599.627V236.297H600.017C600.929 236.297 601.541 236.069 601.853 235.613C602.179 235.145 602.341 234.259 602.341 232.957V226.316C602.341 224.168 602.289 222.859 602.185 222.391C602.094 221.922 601.944 221.603 601.736 221.434C601.541 221.264 601.274 221.18 600.935 221.18C600.571 221.18 600.134 221.277 599.627 221.473L599.334 220.77L604.724 218.582H605.564V222.371ZM632.345 213.23V219.109H636.524V220.477H632.345V232.078C632.345 233.237 632.507 234.018 632.833 234.422C633.171 234.826 633.601 235.027 634.122 235.027C634.552 235.027 634.968 234.897 635.372 234.637C635.776 234.363 636.088 233.966 636.309 233.445H637.071C636.615 234.721 635.971 235.685 635.138 236.336C634.304 236.974 633.445 237.293 632.559 237.293C631.96 237.293 631.374 237.13 630.802 236.805C630.229 236.466 629.805 235.991 629.532 235.379C629.259 234.754 629.122 233.797 629.122 232.508V220.477H626.29V219.832C627.006 219.546 627.735 219.064 628.477 218.387C629.233 217.697 629.903 216.883 630.489 215.945C630.789 215.451 631.205 214.546 631.739 213.23H632.345ZM641.936 209.227V222.312C643.381 220.724 644.527 219.708 645.373 219.266C646.22 218.81 647.066 218.582 647.912 218.582C648.928 218.582 649.8 218.862 650.53 219.422C651.259 219.982 651.799 220.861 652.151 222.059C652.398 222.892 652.522 224.415 652.522 226.629V232.957C652.522 234.09 652.613 234.865 652.795 235.281C652.925 235.594 653.147 235.841 653.459 236.023C653.772 236.206 654.345 236.297 655.178 236.297V237H646.389V236.297H646.799C647.633 236.297 648.212 236.173 648.537 235.926C648.863 235.665 649.091 235.288 649.221 234.793C649.26 234.585 649.28 233.973 649.28 232.957V226.629C649.28 224.676 649.175 223.393 648.967 222.781C648.772 222.169 648.453 221.714 648.01 221.414C647.567 221.102 647.034 220.945 646.409 220.945C645.771 220.945 645.106 221.115 644.416 221.453C643.726 221.792 642.899 222.475 641.936 223.504V232.957C641.936 234.181 642.001 234.943 642.131 235.242C642.274 235.542 642.528 235.796 642.893 236.004C643.271 236.199 643.915 236.297 644.827 236.297V237H635.959V236.297C636.754 236.297 637.379 236.173 637.834 235.926C638.095 235.796 638.303 235.548 638.459 235.184C638.616 234.819 638.694 234.077 638.694 232.957V216.766C638.694 214.721 638.642 213.465 638.537 212.996C638.446 212.527 638.297 212.208 638.088 212.039C637.893 211.87 637.626 211.785 637.287 211.785C637.014 211.785 636.571 211.889 635.959 212.098L635.686 211.414L641.037 209.227H641.936ZM658.09 225.848C658.077 228.504 658.721 230.587 660.023 232.098C661.326 233.608 662.855 234.363 664.613 234.363C665.785 234.363 666.801 234.044 667.66 233.406C668.533 232.755 669.262 231.648 669.848 230.086L670.453 230.477C670.18 232.26 669.385 233.888 668.07 235.359C666.755 236.818 665.108 237.547 663.129 237.547C660.98 237.547 659.138 236.714 657.602 235.047C656.078 233.367 655.316 231.115 655.316 228.289C655.316 225.229 656.098 222.846 657.66 221.141C659.236 219.422 661.208 218.562 663.578 218.562C665.583 218.562 667.23 219.227 668.52 220.555C669.809 221.87 670.453 223.634 670.453 225.848H658.09ZM658.09 224.715H666.371C666.306 223.569 666.169 222.762 665.961 222.293C665.635 221.564 665.147 220.991 664.496 220.574C663.858 220.158 663.188 219.949 662.484 219.949C661.404 219.949 660.434 220.372 659.574 221.219C658.728 222.052 658.233 223.217 658.09 224.715ZM684.558 222.195C686.29 219.786 688.158 218.582 690.163 218.582C691.999 218.582 693.601 219.37 694.968 220.945C696.335 222.508 697.019 224.65 697.019 227.371C697.019 230.548 695.964 233.107 693.855 235.047C692.045 236.714 690.027 237.547 687.8 237.547C686.758 237.547 685.697 237.358 684.616 236.98C683.549 236.603 682.455 236.036 681.335 235.281V216.746C681.335 214.715 681.283 213.465 681.179 212.996C681.088 212.527 680.938 212.208 680.73 212.039C680.521 211.87 680.261 211.785 679.948 211.785C679.584 211.785 679.128 211.889 678.581 212.098L678.308 211.414L683.679 209.227H684.558V222.195ZM684.558 223.445V234.148C685.222 234.799 685.905 235.294 686.609 235.633C687.325 235.958 688.054 236.121 688.796 236.121C689.981 236.121 691.081 235.47 692.097 234.168C693.126 232.866 693.64 230.971 693.64 228.484C693.64 226.193 693.126 224.435 692.097 223.211C691.081 221.974 689.922 221.355 688.62 221.355C687.93 221.355 687.24 221.531 686.55 221.883C686.029 222.143 685.365 222.664 684.558 223.445ZM701.063 225.848C701.05 228.504 701.695 230.587 702.997 232.098C704.299 233.608 705.829 234.363 707.587 234.363C708.759 234.363 709.774 234.044 710.634 233.406C711.506 232.755 712.235 231.648 712.821 230.086L713.427 230.477C713.153 232.26 712.359 233.888 711.044 235.359C709.729 236.818 708.082 237.547 706.102 237.547C703.954 237.547 702.111 236.714 700.575 235.047C699.052 233.367 698.29 231.115 698.29 228.289C698.29 225.229 699.071 222.846 700.634 221.141C702.209 219.422 704.182 218.562 706.552 218.562C708.557 218.562 710.204 219.227 711.493 220.555C712.782 221.87 713.427 223.634 713.427 225.848H701.063ZM701.063 224.715H709.345C709.279 223.569 709.143 222.762 708.934 222.293C708.609 221.564 708.121 220.991 707.47 220.574C706.832 220.158 706.161 219.949 705.458 219.949C704.377 219.949 703.407 220.372 702.548 221.219C701.701 222.052 701.207 223.217 701.063 224.715ZM724.366 234.422C722.53 235.841 721.377 236.661 720.909 236.883C720.206 237.208 719.457 237.371 718.663 237.371C717.426 237.371 716.403 236.948 715.596 236.102C714.802 235.255 714.405 234.142 714.405 232.762C714.405 231.889 714.6 231.134 714.991 230.496C715.525 229.611 716.449 228.777 717.764 227.996C719.092 227.215 721.293 226.264 724.366 225.145V224.441C724.366 222.658 724.079 221.434 723.506 220.77C722.946 220.105 722.126 219.773 721.045 219.773C720.225 219.773 719.574 219.995 719.092 220.438C718.597 220.88 718.35 221.388 718.35 221.961L718.389 223.094C718.389 223.693 718.233 224.155 717.92 224.48C717.621 224.806 717.224 224.969 716.729 224.969C716.247 224.969 715.85 224.799 715.538 224.461C715.238 224.122 715.088 223.66 715.088 223.074C715.088 221.954 715.661 220.926 716.807 219.988C717.953 219.051 719.561 218.582 721.631 218.582C723.22 218.582 724.522 218.849 725.538 219.383C726.306 219.786 726.872 220.418 727.237 221.277C727.471 221.837 727.588 222.983 727.588 224.715V230.789C727.588 232.495 727.621 233.543 727.686 233.934C727.751 234.311 727.855 234.565 727.998 234.695C728.155 234.826 728.331 234.891 728.526 234.891C728.734 234.891 728.916 234.845 729.073 234.754C729.346 234.585 729.873 234.109 730.655 233.328V234.422C729.196 236.375 727.803 237.352 726.475 237.352C725.837 237.352 725.329 237.13 724.952 236.688C724.574 236.245 724.379 235.49 724.366 234.422ZM724.366 233.152V226.336C722.4 227.117 721.13 227.671 720.557 227.996C719.528 228.569 718.793 229.168 718.35 229.793C717.907 230.418 717.686 231.102 717.686 231.844C717.686 232.781 717.966 233.562 718.526 234.188C719.086 234.799 719.73 235.105 720.459 235.105C721.449 235.105 722.751 234.454 724.366 233.152ZM745.598 230.203C745.116 232.56 744.172 234.376 742.766 235.652C741.359 236.915 739.803 237.547 738.098 237.547C736.066 237.547 734.296 236.694 732.785 234.988C731.275 233.283 730.52 230.978 730.52 228.074C730.52 225.262 731.353 222.977 733.02 221.219C734.699 219.461 736.711 218.582 739.055 218.582C740.812 218.582 742.258 219.051 743.391 219.988C744.523 220.913 745.09 221.876 745.09 222.879C745.09 223.374 744.927 223.777 744.602 224.09C744.289 224.389 743.846 224.539 743.273 224.539C742.505 224.539 741.926 224.292 741.535 223.797C741.314 223.523 741.164 223.003 741.086 222.234C741.021 221.466 740.76 220.88 740.305 220.477C739.849 220.086 739.217 219.891 738.41 219.891C737.108 219.891 736.06 220.372 735.266 221.336C734.211 222.612 733.684 224.298 733.684 226.395C733.684 228.53 734.204 230.418 735.246 232.059C736.301 233.686 737.72 234.5 739.504 234.5C740.78 234.5 741.926 234.064 742.941 233.191C743.658 232.592 744.354 231.505 745.031 229.93L745.598 230.203ZM751.83 209.227V222.312C753.275 220.724 754.421 219.708 755.267 219.266C756.114 218.81 756.96 218.582 757.806 218.582C758.822 218.582 759.694 218.862 760.423 219.422C761.153 219.982 761.693 220.861 762.045 222.059C762.292 222.892 762.416 224.415 762.416 226.629V232.957C762.416 234.09 762.507 234.865 762.689 235.281C762.819 235.594 763.041 235.841 763.353 236.023C763.666 236.206 764.239 236.297 765.072 236.297V237H756.283V236.297H756.693C757.526 236.297 758.106 236.173 758.431 235.926C758.757 235.665 758.985 235.288 759.115 234.793C759.154 234.585 759.173 233.973 759.173 232.957V226.629C759.173 224.676 759.069 223.393 758.861 222.781C758.666 222.169 758.347 221.714 757.904 221.414C757.461 221.102 756.927 220.945 756.302 220.945C755.664 220.945 755 221.115 754.31 221.453C753.62 221.792 752.793 222.475 751.83 223.504V232.957C751.83 234.181 751.895 234.943 752.025 235.242C752.168 235.542 752.422 235.796 752.787 236.004C753.164 236.199 753.809 236.297 754.72 236.297V237H745.853V236.297C746.647 236.297 747.272 236.173 747.728 235.926C747.989 235.796 748.197 235.548 748.353 235.184C748.509 234.819 748.588 234.077 748.588 232.957V216.766C748.588 214.721 748.535 213.465 748.431 212.996C748.34 212.527 748.19 212.208 747.982 212.039C747.787 211.87 747.52 211.785 747.181 211.785C746.908 211.785 746.465 211.889 745.853 212.098L745.58 211.414L750.931 209.227H751.83ZM102.091 265.109H109.591V265.832C108.901 265.884 108.445 266.008 108.223 266.203C108.015 266.398 107.911 266.678 107.911 267.043C107.911 267.447 108.022 267.935 108.243 268.508L112.071 278.801L115.919 270.422L114.903 267.785C114.591 267.004 114.18 266.464 113.673 266.164C113.386 265.982 112.852 265.871 112.071 265.832V265.109H120.587V265.832C119.649 265.871 118.985 266.04 118.595 266.34C118.334 266.548 118.204 266.88 118.204 267.336C118.204 267.596 118.256 267.863 118.36 268.137L122.423 278.41L126.192 268.508C126.453 267.805 126.583 267.245 126.583 266.828C126.583 266.581 126.453 266.359 126.192 266.164C125.945 265.969 125.45 265.858 124.708 265.832V265.109H130.352V265.832C129.22 266.001 128.386 266.77 127.852 268.137L121.876 283.547H121.075L116.602 272.121L111.388 283.547H110.665L104.923 268.508C104.545 267.557 104.174 266.919 103.809 266.594C103.445 266.255 102.872 266.001 102.091 265.832V265.109ZM134.944 255.227C135.491 255.227 135.953 255.422 136.33 255.812C136.721 256.19 136.916 256.652 136.916 257.199C136.916 257.746 136.721 258.215 136.33 258.605C135.953 258.996 135.491 259.191 134.944 259.191C134.397 259.191 133.928 258.996 133.538 258.605C133.147 258.215 132.952 257.746 132.952 257.199C132.952 256.652 133.14 256.19 133.518 255.812C133.909 255.422 134.384 255.227 134.944 255.227ZM136.565 264.582V278.957C136.565 280.077 136.643 280.826 136.799 281.203C136.969 281.568 137.209 281.841 137.522 282.023C137.847 282.206 138.433 282.297 139.28 282.297V283H130.588V282.297C131.461 282.297 132.047 282.212 132.346 282.043C132.646 281.874 132.88 281.594 133.049 281.203C133.232 280.812 133.323 280.064 133.323 278.957V272.062C133.323 270.122 133.264 268.866 133.147 268.293C133.056 267.876 132.913 267.59 132.717 267.434C132.522 267.264 132.255 267.18 131.916 267.18C131.552 267.18 131.109 267.277 130.588 267.473L130.315 266.77L135.705 264.582H136.565ZM145.121 259.23V265.109H149.301V266.477H145.121V278.078C145.121 279.237 145.284 280.018 145.609 280.422C145.948 280.826 146.378 281.027 146.898 281.027C147.328 281.027 147.745 280.897 148.148 280.637C148.552 280.363 148.865 279.966 149.086 279.445H149.848C149.392 280.721 148.747 281.685 147.914 282.336C147.081 282.974 146.221 283.293 145.336 283.293C144.737 283.293 144.151 283.13 143.578 282.805C143.005 282.466 142.582 281.991 142.309 281.379C142.035 280.754 141.898 279.797 141.898 278.508V266.477H139.066V265.832C139.783 265.546 140.512 265.064 141.254 264.387C142.009 263.697 142.68 262.883 143.266 261.945C143.565 261.451 143.982 260.546 144.516 259.23H145.121ZM154.713 255.227V268.312C156.158 266.724 157.304 265.708 158.15 265.266C158.996 264.81 159.843 264.582 160.689 264.582C161.705 264.582 162.577 264.862 163.306 265.422C164.035 265.982 164.576 266.861 164.927 268.059C165.175 268.892 165.298 270.415 165.298 272.629V278.957C165.298 280.09 165.39 280.865 165.572 281.281C165.702 281.594 165.923 281.841 166.236 282.023C166.548 282.206 167.121 282.297 167.955 282.297V283H159.166V282.297H159.576C160.409 282.297 160.989 282.173 161.314 281.926C161.64 281.665 161.867 281.288 161.998 280.793C162.037 280.585 162.056 279.973 162.056 278.957V272.629C162.056 270.676 161.952 269.393 161.744 268.781C161.548 268.169 161.229 267.714 160.787 267.414C160.344 267.102 159.81 266.945 159.185 266.945C158.547 266.945 157.883 267.115 157.193 267.453C156.503 267.792 155.676 268.475 154.713 269.504V278.957C154.713 280.181 154.778 280.943 154.908 281.242C155.051 281.542 155.305 281.796 155.67 282.004C156.047 282.199 156.692 282.297 157.603 282.297V283H148.736V282.297C149.53 282.297 150.155 282.173 150.611 281.926C150.871 281.796 151.08 281.548 151.236 281.184C151.392 280.819 151.47 280.077 151.47 278.957V262.766C151.47 260.721 151.418 259.465 151.314 258.996C151.223 258.527 151.073 258.208 150.865 258.039C150.67 257.87 150.403 257.785 150.064 257.785C149.791 257.785 149.348 257.889 148.736 258.098L148.463 257.414L153.814 255.227H154.713ZM176.609 264.582C179.317 264.582 181.491 265.611 183.132 267.668C184.525 269.426 185.222 271.444 185.222 273.723C185.222 275.324 184.838 276.945 184.07 278.586C183.301 280.227 182.24 281.464 180.886 282.297C179.545 283.13 178.047 283.547 176.394 283.547C173.698 283.547 171.557 282.473 169.968 280.324C168.627 278.514 167.956 276.483 167.956 274.23C167.956 272.59 168.36 270.962 169.167 269.348C169.988 267.72 171.062 266.522 172.39 265.754C173.718 264.973 175.124 264.582 176.609 264.582ZM176.003 265.852C175.313 265.852 174.616 266.06 173.913 266.477C173.223 266.88 172.663 267.596 172.234 268.625C171.804 269.654 171.589 270.975 171.589 272.59C171.589 275.194 172.103 277.44 173.132 279.328C174.174 281.216 175.541 282.16 177.234 282.16C178.497 282.16 179.538 281.639 180.359 280.598C181.179 279.556 181.589 277.766 181.589 275.227C181.589 272.049 180.905 269.549 179.538 267.727C178.614 266.477 177.435 265.852 176.003 265.852ZM201.942 265.109V275.949C201.942 278.02 201.988 279.289 202.079 279.758C202.183 280.214 202.339 280.533 202.548 280.715C202.769 280.897 203.023 280.988 203.309 280.988C203.713 280.988 204.169 280.878 204.677 280.656L204.95 281.34L199.598 283.547H198.72V279.758C197.183 281.424 196.011 282.473 195.204 282.902C194.397 283.332 193.544 283.547 192.645 283.547C191.643 283.547 190.77 283.26 190.028 282.688C189.299 282.102 188.791 281.353 188.505 280.441C188.218 279.53 188.075 278.241 188.075 276.574V268.586C188.075 267.74 187.984 267.154 187.802 266.828C187.619 266.503 187.346 266.255 186.981 266.086C186.63 265.904 185.985 265.819 185.048 265.832V265.109H191.317V277.082C191.317 278.749 191.604 279.842 192.177 280.363C192.763 280.884 193.466 281.145 194.286 281.145C194.846 281.145 195.477 280.969 196.18 280.617C196.897 280.266 197.743 279.595 198.72 278.605V268.469C198.72 267.453 198.531 266.77 198.153 266.418C197.789 266.053 197.02 265.858 195.848 265.832V265.109H201.942ZM209.854 259.23V265.109H214.034V266.477H209.854V278.078C209.854 279.237 210.017 280.018 210.342 280.422C210.681 280.826 211.11 281.027 211.631 281.027C212.061 281.027 212.478 280.897 212.881 280.637C213.285 280.363 213.597 279.966 213.819 279.445H214.58C214.125 280.721 213.48 281.685 212.647 282.336C211.814 282.974 210.954 283.293 210.069 283.293C209.47 283.293 208.884 283.13 208.311 282.805C207.738 282.466 207.315 281.991 207.041 281.379C206.768 280.754 206.631 279.797 206.631 278.508V266.477H203.799V265.832C204.515 265.546 205.245 265.064 205.987 264.387C206.742 263.697 207.413 262.883 207.998 261.945C208.298 261.451 208.715 260.546 209.248 259.23H209.854ZM232.728 280.422C230.892 281.841 229.74 282.661 229.271 282.883C228.568 283.208 227.819 283.371 227.025 283.371C225.788 283.371 224.766 282.948 223.959 282.102C223.164 281.255 222.767 280.142 222.767 278.762C222.767 277.889 222.963 277.134 223.353 276.496C223.887 275.611 224.811 274.777 226.127 273.996C227.455 273.215 229.655 272.264 232.728 271.145V270.441C232.728 268.658 232.442 267.434 231.869 266.77C231.309 266.105 230.489 265.773 229.408 265.773C228.588 265.773 227.936 265.995 227.455 266.438C226.96 266.88 226.713 267.388 226.713 267.961L226.752 269.094C226.752 269.693 226.595 270.155 226.283 270.48C225.983 270.806 225.586 270.969 225.091 270.969C224.61 270.969 224.213 270.799 223.9 270.461C223.601 270.122 223.451 269.66 223.451 269.074C223.451 267.954 224.024 266.926 225.17 265.988C226.315 265.051 227.923 264.582 229.994 264.582C231.582 264.582 232.884 264.849 233.9 265.383C234.668 265.786 235.235 266.418 235.599 267.277C235.834 267.837 235.951 268.983 235.951 270.715V276.789C235.951 278.495 235.983 279.543 236.048 279.934C236.114 280.311 236.218 280.565 236.361 280.695C236.517 280.826 236.693 280.891 236.888 280.891C237.097 280.891 237.279 280.845 237.435 280.754C237.709 280.585 238.236 280.109 239.017 279.328V280.422C237.559 282.375 236.166 283.352 234.838 283.352C234.199 283.352 233.692 283.13 233.314 282.688C232.936 282.245 232.741 281.49 232.728 280.422ZM232.728 279.152V272.336C230.762 273.117 229.492 273.671 228.92 273.996C227.891 274.569 227.155 275.168 226.713 275.793C226.27 276.418 226.048 277.102 226.048 277.844C226.048 278.781 226.328 279.562 226.888 280.188C227.448 280.799 228.093 281.105 228.822 281.105C229.811 281.105 231.114 280.454 232.728 279.152ZM243.98 268.371C246.076 265.845 248.075 264.582 249.976 264.582C250.952 264.582 251.792 264.829 252.495 265.324C253.198 265.806 253.758 266.607 254.175 267.727C254.461 268.508 254.605 269.706 254.605 271.32V278.957C254.605 280.09 254.696 280.858 254.878 281.262C255.021 281.587 255.249 281.841 255.562 282.023C255.887 282.206 256.48 282.297 257.339 282.297V283H248.491V282.297H248.863C249.696 282.297 250.275 282.173 250.601 281.926C250.939 281.665 251.174 281.288 251.304 280.793C251.356 280.598 251.382 279.986 251.382 278.957V271.633C251.382 270.005 251.167 268.827 250.738 268.098C250.321 267.355 249.611 266.984 248.609 266.984C247.059 266.984 245.516 267.831 243.98 269.523V278.957C243.98 280.168 244.051 280.917 244.195 281.203C244.377 281.581 244.624 281.861 244.937 282.043C245.262 282.212 245.913 282.297 246.89 282.297V283H238.042V282.297H238.433C239.344 282.297 239.956 282.069 240.269 281.613C240.594 281.145 240.757 280.259 240.757 278.957V272.316C240.757 270.168 240.705 268.859 240.601 268.391C240.51 267.922 240.36 267.603 240.152 267.434C239.956 267.264 239.689 267.18 239.351 267.18C238.986 267.18 238.55 267.277 238.042 267.473L237.749 266.77L243.14 264.582H243.98V268.371ZM256.149 265.109H264.489V265.832H264.079C263.493 265.832 263.05 265.962 262.751 266.223C262.464 266.47 262.321 266.783 262.321 267.16C262.321 267.668 262.536 268.371 262.966 269.27L267.321 278.293L271.325 268.41C271.546 267.876 271.657 267.349 271.657 266.828C271.657 266.594 271.611 266.418 271.52 266.301C271.416 266.158 271.253 266.047 271.032 265.969C270.811 265.878 270.42 265.832 269.86 265.832V265.109H275.68V265.832C275.199 265.884 274.828 265.988 274.567 266.145C274.307 266.301 274.02 266.594 273.708 267.023C273.591 267.206 273.369 267.707 273.044 268.527L265.759 286.379C265.055 288.111 264.131 289.419 262.985 290.305C261.852 291.19 260.759 291.633 259.704 291.633C258.936 291.633 258.304 291.411 257.809 290.969C257.315 290.526 257.067 290.018 257.067 289.445C257.067 288.898 257.243 288.456 257.595 288.117C257.959 287.792 258.454 287.629 259.079 287.629C259.509 287.629 260.095 287.772 260.837 288.059C261.358 288.254 261.683 288.352 261.813 288.352C262.204 288.352 262.627 288.15 263.083 287.746C263.552 287.342 264.02 286.561 264.489 285.402L265.759 282.297L259.333 268.801C259.138 268.397 258.825 267.896 258.395 267.297C258.07 266.841 257.803 266.535 257.595 266.379C257.295 266.171 256.813 265.988 256.149 265.832V265.109ZM289.16 259.23V265.109H293.34V266.477H289.16V278.078C289.16 279.237 289.323 280.018 289.648 280.422C289.987 280.826 290.417 281.027 290.938 281.027C291.367 281.027 291.784 280.897 292.188 280.637C292.591 280.363 292.904 279.966 293.125 279.445H293.887C293.431 280.721 292.786 281.685 291.953 282.336C291.12 282.974 290.26 283.293 289.375 283.293C288.776 283.293 288.19 283.13 287.617 282.805C287.044 282.466 286.621 281.991 286.348 281.379C286.074 280.754 285.938 279.797 285.938 278.508V266.477H283.105V265.832C283.822 265.546 284.551 265.064 285.293 264.387C286.048 263.697 286.719 262.883 287.305 261.945C287.604 261.451 288.021 260.546 288.555 259.23H289.16ZM302.248 264.582C304.956 264.582 307.13 265.611 308.771 267.668C310.164 269.426 310.861 271.444 310.861 273.723C310.861 275.324 310.477 276.945 309.709 278.586C308.94 280.227 307.879 281.464 306.525 282.297C305.184 283.13 303.686 283.547 302.033 283.547C299.338 283.547 297.196 282.473 295.607 280.324C294.266 278.514 293.595 276.483 293.595 274.23C293.595 272.59 293.999 270.962 294.806 269.348C295.627 267.72 296.701 266.522 298.029 265.754C299.357 264.973 300.763 264.582 302.248 264.582ZM301.642 265.852C300.952 265.852 300.255 266.06 299.552 266.477C298.862 266.88 298.302 267.596 297.873 268.625C297.443 269.654 297.228 270.975 297.228 272.59C297.228 275.194 297.742 277.44 298.771 279.328C299.813 281.216 301.18 282.16 302.873 282.16C304.136 282.16 305.177 281.639 305.998 280.598C306.818 279.556 307.228 277.766 307.228 275.227C307.228 272.049 306.545 269.549 305.177 267.727C304.253 266.477 303.074 265.852 301.642 265.852ZM310.902 265.109H318.402V265.832C317.711 265.884 317.256 266.008 317.034 266.203C316.826 266.398 316.722 266.678 316.722 267.043C316.722 267.447 316.833 267.935 317.054 268.508L320.882 278.801L324.73 270.422L323.714 267.785C323.402 267.004 322.991 266.464 322.484 266.164C322.197 265.982 321.663 265.871 320.882 265.832V265.109H329.398V265.832C328.46 265.871 327.796 266.04 327.405 266.34C327.145 266.548 327.015 266.88 327.015 267.336C327.015 267.596 327.067 267.863 327.171 268.137L331.234 278.41L335.003 268.508C335.264 267.805 335.394 267.245 335.394 266.828C335.394 266.581 335.264 266.359 335.003 266.164C334.756 265.969 334.261 265.858 333.519 265.832V265.109H339.163V265.832C338.03 266.001 337.197 266.77 336.663 268.137L330.687 283.547H329.886L325.413 272.121L320.198 283.547H319.476L313.734 268.508C313.356 267.557 312.985 266.919 312.62 266.594C312.256 266.255 311.683 266.001 310.902 265.832V265.109ZM342.212 271.848C342.199 274.504 342.843 276.587 344.145 278.098C345.447 279.608 346.977 280.363 348.735 280.363C349.907 280.363 350.923 280.044 351.782 279.406C352.654 278.755 353.384 277.648 353.97 276.086L354.575 276.477C354.302 278.26 353.507 279.888 352.192 281.359C350.877 282.818 349.23 283.547 347.251 283.547C345.102 283.547 343.26 282.714 341.723 281.047C340.2 279.367 339.438 277.115 339.438 274.289C339.438 271.229 340.22 268.846 341.782 267.141C343.358 265.422 345.33 264.562 347.7 264.562C349.705 264.562 351.352 265.227 352.641 266.555C353.93 267.87 354.575 269.634 354.575 271.848H342.212ZM342.212 270.715H350.493C350.428 269.569 350.291 268.762 350.083 268.293C349.757 267.564 349.269 266.991 348.618 266.574C347.98 266.158 347.309 265.949 346.606 265.949C345.526 265.949 344.555 266.372 343.696 267.219C342.85 268.052 342.355 269.217 342.212 270.715ZM361.53 255.227V278.957C361.53 280.077 361.608 280.819 361.764 281.184C361.933 281.548 362.187 281.828 362.526 282.023C362.864 282.206 363.496 282.297 364.42 282.297V283H355.651V282.297C356.471 282.297 357.031 282.212 357.33 282.043C357.63 281.874 357.864 281.594 358.034 281.203C358.203 280.812 358.288 280.064 358.288 278.957V262.707C358.288 260.689 358.242 259.452 358.151 258.996C358.06 258.527 357.91 258.208 357.702 258.039C357.506 257.87 357.252 257.785 356.94 257.785C356.601 257.785 356.172 257.889 355.651 258.098L355.319 257.414L360.651 255.227H361.53ZM382.06 264.582C384.769 264.582 386.943 265.611 388.584 267.668C389.977 269.426 390.673 271.444 390.673 273.723C390.673 275.324 390.289 276.945 389.521 278.586C388.753 280.227 387.692 281.464 386.338 282.297C384.996 283.13 383.499 283.547 381.845 283.547C379.15 283.547 377.008 282.473 375.42 280.324C374.078 278.514 373.408 276.483 373.408 274.23C373.408 272.59 373.811 270.962 374.619 269.348C375.439 267.72 376.513 266.522 377.841 265.754C379.17 264.973 380.576 264.582 382.06 264.582ZM381.455 265.852C380.765 265.852 380.068 266.06 379.365 266.477C378.675 266.88 378.115 267.596 377.685 268.625C377.255 269.654 377.041 270.975 377.041 272.59C377.041 275.194 377.555 277.44 378.584 279.328C379.625 281.216 380.992 282.16 382.685 282.16C383.948 282.16 384.99 281.639 385.81 280.598C386.63 279.556 387.041 277.766 387.041 275.227C387.041 272.049 386.357 269.549 384.99 267.727C384.065 266.477 382.887 265.852 381.455 265.852ZM396.945 264.582V268.605C398.442 265.923 399.978 264.582 401.554 264.582C402.27 264.582 402.863 264.803 403.331 265.246C403.8 265.676 404.034 266.177 404.034 266.75C404.034 267.258 403.865 267.688 403.527 268.039C403.188 268.391 402.784 268.566 402.316 268.566C401.86 268.566 401.346 268.345 400.773 267.902C400.213 267.447 399.796 267.219 399.523 267.219C399.288 267.219 399.034 267.349 398.761 267.609C398.175 268.143 397.57 269.022 396.945 270.246V278.82C396.945 279.81 397.068 280.559 397.316 281.066C397.485 281.418 397.784 281.711 398.214 281.945C398.644 282.18 399.262 282.297 400.07 282.297V283H390.909V282.297C391.821 282.297 392.498 282.154 392.941 281.867C393.266 281.659 393.494 281.327 393.624 280.871C393.689 280.65 393.722 280.018 393.722 278.977V272.043C393.722 269.96 393.676 268.723 393.585 268.332C393.507 267.928 393.351 267.635 393.116 267.453C392.895 267.271 392.615 267.18 392.277 267.18C391.873 267.18 391.417 267.277 390.909 267.473L390.714 266.77L396.124 264.582H396.945ZM416.733 268.195C418.465 265.786 420.333 264.582 422.338 264.582C424.174 264.582 425.776 265.37 427.143 266.945C428.51 268.508 429.194 270.65 429.194 273.371C429.194 276.548 428.139 279.107 426.03 281.047C424.22 282.714 422.202 283.547 419.975 283.547C418.933 283.547 417.872 283.358 416.791 282.98C415.724 282.603 414.63 282.036 413.51 281.281V262.746C413.51 260.715 413.458 259.465 413.354 258.996C413.263 258.527 413.113 258.208 412.905 258.039C412.696 257.87 412.436 257.785 412.123 257.785C411.759 257.785 411.303 257.889 410.756 258.098L410.483 257.414L415.854 255.227H416.733V268.195ZM416.733 269.445V280.148C417.397 280.799 418.08 281.294 418.784 281.633C419.5 281.958 420.229 282.121 420.971 282.121C422.156 282.121 423.256 281.47 424.272 280.168C425.301 278.866 425.815 276.971 425.815 274.484C425.815 272.193 425.301 270.435 424.272 269.211C423.256 267.974 422.097 267.355 420.795 267.355C420.105 267.355 419.415 267.531 418.725 267.883C418.204 268.143 417.54 268.664 416.733 269.445ZM436.383 255.227V278.957C436.383 280.077 436.461 280.819 436.617 281.184C436.786 281.548 437.04 281.828 437.379 282.023C437.717 282.206 438.349 282.297 439.273 282.297V283H430.504V282.297C431.324 282.297 431.884 282.212 432.184 282.043C432.483 281.874 432.717 281.594 432.887 281.203C433.056 280.812 433.141 280.064 433.141 278.957V262.707C433.141 260.689 433.095 259.452 433.004 258.996C432.913 258.527 432.763 258.208 432.555 258.039C432.359 257.87 432.105 257.785 431.793 257.785C431.454 257.785 431.025 257.889 430.504 258.098L430.172 257.414L435.504 255.227H436.383ZM449.9 280.422C448.064 281.841 446.912 282.661 446.443 282.883C445.74 283.208 444.991 283.371 444.197 283.371C442.96 283.371 441.938 282.948 441.13 282.102C440.336 281.255 439.939 280.142 439.939 278.762C439.939 277.889 440.134 277.134 440.525 276.496C441.059 275.611 441.983 274.777 443.298 273.996C444.627 273.215 446.827 272.264 449.9 271.145V270.441C449.9 268.658 449.614 267.434 449.041 266.77C448.481 266.105 447.66 265.773 446.58 265.773C445.759 265.773 445.108 265.995 444.627 266.438C444.132 266.88 443.884 267.388 443.884 267.961L443.923 269.094C443.923 269.693 443.767 270.155 443.455 270.48C443.155 270.806 442.758 270.969 442.263 270.969C441.782 270.969 441.384 270.799 441.072 270.461C440.772 270.122 440.623 269.66 440.623 269.074C440.623 267.954 441.196 266.926 442.341 265.988C443.487 265.051 445.095 264.582 447.166 264.582C448.754 264.582 450.056 264.849 451.072 265.383C451.84 265.786 452.407 266.418 452.771 267.277C453.005 267.837 453.123 268.983 453.123 270.715V276.789C453.123 278.495 453.155 279.543 453.22 279.934C453.285 280.311 453.39 280.565 453.533 280.695C453.689 280.826 453.865 280.891 454.06 280.891C454.269 280.891 454.451 280.845 454.607 280.754C454.88 280.585 455.408 280.109 456.189 279.328V280.422C454.731 282.375 453.338 283.352 452.009 283.352C451.371 283.352 450.864 283.13 450.486 282.688C450.108 282.245 449.913 281.49 449.9 280.422ZM449.9 279.152V272.336C447.934 273.117 446.664 273.671 446.091 273.996C445.063 274.569 444.327 275.168 443.884 275.793C443.442 276.418 443.22 277.102 443.22 277.844C443.22 278.781 443.5 279.562 444.06 280.188C444.62 280.799 445.265 281.105 445.994 281.105C446.983 281.105 448.285 280.454 449.9 279.152ZM461.152 268.371C463.248 265.845 465.247 264.582 467.148 264.582C468.124 264.582 468.964 264.829 469.667 265.324C470.37 265.806 470.93 266.607 471.347 267.727C471.633 268.508 471.777 269.706 471.777 271.32V278.957C471.777 280.09 471.868 280.858 472.05 281.262C472.193 281.587 472.421 281.841 472.734 282.023C473.059 282.206 473.652 282.297 474.511 282.297V283H465.663V282.297H466.034C466.868 282.297 467.447 282.173 467.773 281.926C468.111 281.665 468.346 281.288 468.476 280.793C468.528 280.598 468.554 279.986 468.554 278.957V271.633C468.554 270.005 468.339 268.827 467.909 268.098C467.493 267.355 466.783 266.984 465.78 266.984C464.231 266.984 462.688 267.831 461.152 269.523V278.957C461.152 280.168 461.223 280.917 461.366 281.203C461.549 281.581 461.796 281.861 462.109 282.043C462.434 282.212 463.085 282.297 464.062 282.297V283H455.214V282.297H455.605C456.516 282.297 457.128 282.069 457.441 281.613C457.766 281.145 457.929 280.259 457.929 278.957V272.316C457.929 270.168 457.877 268.859 457.773 268.391C457.682 267.922 457.532 267.603 457.323 267.434C457.128 267.264 456.861 267.18 456.523 267.18C456.158 267.18 455.722 267.277 455.214 267.473L454.921 266.77L460.312 264.582H461.152V268.371ZM479.63 255.227V273.039L484.18 268.879C485.144 267.993 485.704 267.434 485.86 267.199C485.964 267.043 486.016 266.887 486.016 266.73C486.016 266.47 485.906 266.249 485.684 266.066C485.476 265.871 485.124 265.76 484.63 265.734V265.109H492.403V265.734C491.335 265.76 490.444 265.923 489.727 266.223C489.024 266.522 488.249 267.056 487.403 267.824L482.813 272.062L487.403 277.863C488.679 279.465 489.539 280.48 489.981 280.91C490.606 281.522 491.153 281.919 491.622 282.102C491.947 282.232 492.514 282.297 493.321 282.297V283H484.63V282.297C485.124 282.284 485.457 282.212 485.626 282.082C485.808 281.939 485.899 281.743 485.899 281.496C485.899 281.197 485.639 280.715 485.118 280.051L479.63 273.039V278.977C479.63 280.135 479.708 280.897 479.864 281.262C480.033 281.626 480.268 281.887 480.567 282.043C480.867 282.199 481.518 282.284 482.52 282.297V283H473.419V282.297C474.33 282.297 475.014 282.186 475.47 281.965C475.743 281.822 475.951 281.6 476.095 281.301C476.29 280.871 476.388 280.129 476.388 279.074V262.785C476.388 260.715 476.342 259.452 476.251 258.996C476.16 258.527 476.01 258.208 475.802 258.039C475.593 257.857 475.32 257.766 474.981 257.766C474.708 257.766 474.298 257.876 473.751 258.098L473.419 257.414L478.731 255.227H479.63ZM495.745 271.848C495.732 274.504 496.376 276.587 497.678 278.098C498.98 279.608 500.51 280.363 502.268 280.363C503.44 280.363 504.455 280.044 505.315 279.406C506.187 278.755 506.916 277.648 507.502 276.086L508.108 276.477C507.834 278.26 507.04 279.888 505.725 281.359C504.41 282.818 502.763 283.547 500.784 283.547C498.635 283.547 496.793 282.714 495.256 281.047C493.733 279.367 492.971 277.115 492.971 274.289C492.971 271.229 493.752 268.846 495.315 267.141C496.89 265.422 498.863 264.562 501.233 264.562C503.238 264.562 504.885 265.227 506.174 266.555C507.463 267.87 508.108 269.634 508.108 271.848H495.745ZM495.745 270.715H504.026C503.961 269.569 503.824 268.762 503.616 268.293C503.29 267.564 502.802 266.991 502.151 266.574C501.513 266.158 500.842 265.949 500.139 265.949C499.058 265.949 498.088 266.372 497.229 267.219C496.383 268.052 495.888 269.217 495.745 270.715ZM514.105 259.23V265.109H518.285V266.477H514.105V278.078C514.105 279.237 514.268 280.018 514.594 280.422C514.932 280.826 515.362 281.027 515.883 281.027C516.312 281.027 516.729 280.897 517.133 280.637C517.536 280.363 517.849 279.966 518.07 279.445H518.832C518.376 280.721 517.732 281.685 516.898 282.336C516.065 282.974 515.206 283.293 514.32 283.293C513.721 283.293 513.135 283.13 512.562 282.805C511.99 282.466 511.566 281.991 511.293 281.379C511.02 280.754 510.883 279.797 510.883 278.508V266.477H508.051V265.832C508.767 265.546 509.496 265.064 510.238 264.387C510.993 263.697 511.664 262.883 512.25 261.945C512.549 261.451 512.966 260.546 513.5 259.23H514.105ZM519.341 289.66V288.801C520.683 288.358 521.718 287.668 522.447 286.73C523.189 285.806 523.56 284.823 523.56 283.781C523.56 283.534 523.502 283.326 523.384 283.156C523.293 283.039 523.202 282.98 523.111 282.98C522.968 282.98 522.655 283.111 522.173 283.371C521.939 283.488 521.692 283.547 521.431 283.547C520.793 283.547 520.285 283.358 519.908 282.98C519.53 282.603 519.341 282.082 519.341 281.418C519.341 280.78 519.582 280.233 520.064 279.777C520.559 279.322 521.158 279.094 521.861 279.094C522.72 279.094 523.482 279.471 524.146 280.227C524.823 280.969 525.162 281.958 525.162 283.195C525.162 284.536 524.693 285.78 523.755 286.926C522.831 288.085 521.36 288.996 519.341 289.66ZM539.774 255.207C540.334 255.207 540.809 255.402 541.2 255.793C541.591 256.184 541.786 256.659 541.786 257.219C541.786 257.766 541.591 258.234 541.2 258.625C540.809 259.016 540.334 259.211 539.774 259.211C539.227 259.211 538.759 259.016 538.368 258.625C537.977 258.234 537.782 257.766 537.782 257.219C537.782 256.659 537.977 256.184 538.368 255.793C538.759 255.402 539.227 255.207 539.774 255.207ZM541.454 264.582V282.59C541.454 285.65 540.803 287.922 539.501 289.406C538.199 290.891 536.506 291.633 534.423 291.633C533.238 291.633 532.359 291.418 531.786 290.988C531.213 290.559 530.927 290.116 530.927 289.66C530.927 289.204 531.089 288.814 531.415 288.488C531.727 288.163 532.098 288 532.528 288C532.867 288 533.212 288.085 533.563 288.254C533.785 288.345 534.208 288.671 534.833 289.23C535.471 289.803 536.005 290.09 536.434 290.09C536.747 290.09 537.053 289.966 537.352 289.719C537.652 289.484 537.873 289.081 538.016 288.508C538.16 287.948 538.231 286.724 538.231 284.836V272.102C538.231 270.135 538.173 268.872 538.055 268.312C537.964 267.883 537.821 267.59 537.626 267.434C537.43 267.264 537.164 267.18 536.825 267.18C536.46 267.18 536.018 267.277 535.497 267.473L535.223 266.77L540.614 264.582H541.454ZM560.459 265.109V275.949C560.459 278.02 560.505 279.289 560.596 279.758C560.7 280.214 560.857 280.533 561.065 280.715C561.286 280.897 561.54 280.988 561.827 280.988C562.23 280.988 562.686 280.878 563.194 280.656L563.467 281.34L558.116 283.547H557.237V279.758C555.7 281.424 554.528 282.473 553.721 282.902C552.914 283.332 552.061 283.547 551.163 283.547C550.16 283.547 549.288 283.26 548.545 282.688C547.816 282.102 547.308 281.353 547.022 280.441C546.735 279.53 546.592 278.241 546.592 276.574V268.586C546.592 267.74 546.501 267.154 546.319 266.828C546.136 266.503 545.863 266.255 545.498 266.086C545.147 265.904 544.502 265.819 543.565 265.832V265.109H549.834V277.082C549.834 278.749 550.121 279.842 550.694 280.363C551.28 280.884 551.983 281.145 552.803 281.145C553.363 281.145 553.995 280.969 554.698 280.617C555.414 280.266 556.26 279.595 557.237 278.605V268.469C557.237 267.453 557.048 266.77 556.67 266.418C556.306 266.053 555.538 265.858 554.366 265.832V265.109H560.459ZM574.738 264.582V270.676H574.094C573.599 268.762 572.961 267.46 572.18 266.77C571.411 266.079 570.428 265.734 569.23 265.734C568.319 265.734 567.583 265.975 567.023 266.457C566.464 266.939 566.184 267.473 566.184 268.059C566.184 268.788 566.392 269.413 566.809 269.934C567.212 270.467 568.033 271.034 569.27 271.633L572.121 273.02C574.764 274.309 576.086 276.008 576.086 278.117C576.086 279.745 575.467 281.06 574.23 282.062C573.007 283.052 571.633 283.547 570.109 283.547C569.016 283.547 567.766 283.352 566.359 282.961C565.93 282.831 565.578 282.766 565.305 282.766C565.005 282.766 564.771 282.935 564.602 283.273H563.957V276.887H564.602C564.966 278.71 565.663 280.083 566.691 281.008C567.72 281.932 568.872 282.395 570.148 282.395C571.047 282.395 571.776 282.134 572.336 281.613C572.909 281.079 573.195 280.441 573.195 279.699C573.195 278.801 572.876 278.046 572.238 277.434C571.613 276.822 570.357 276.047 568.469 275.109C566.581 274.172 565.344 273.326 564.758 272.57C564.172 271.828 563.879 270.891 563.879 269.758C563.879 268.286 564.38 267.056 565.383 266.066C566.398 265.077 567.707 264.582 569.309 264.582C570.012 264.582 570.865 264.732 571.867 265.031C572.531 265.227 572.974 265.324 573.195 265.324C573.404 265.324 573.566 265.279 573.684 265.188C573.801 265.096 573.938 264.895 574.094 264.582H574.738ZM582.357 259.23V265.109H586.537V266.477H582.357V278.078C582.357 279.237 582.52 280.018 582.845 280.422C583.184 280.826 583.614 281.027 584.134 281.027C584.564 281.027 584.981 280.897 585.384 280.637C585.788 280.363 586.101 279.966 586.322 279.445H587.084C586.628 280.721 585.983 281.685 585.15 282.336C584.317 282.974 583.457 283.293 582.572 283.293C581.973 283.293 581.387 283.13 580.814 282.805C580.241 282.466 579.818 281.991 579.545 281.379C579.271 280.754 579.134 279.797 579.134 278.508V266.477H576.302V265.832C577.019 265.546 577.748 265.064 578.49 264.387C579.245 263.697 579.916 262.883 580.502 261.945C580.801 261.451 581.218 260.546 581.752 259.23H582.357ZM602.516 255.91V256.75C601.188 257.557 600.283 258.306 599.802 258.996C599.45 259.504 599.274 260.103 599.274 260.793C599.274 261.21 599.352 261.516 599.509 261.711C599.652 261.906 599.821 262.004 600.016 262.004C600.147 262.004 600.329 261.958 600.563 261.867C600.915 261.75 601.201 261.691 601.423 261.691C601.944 261.691 602.406 261.887 602.809 262.277C603.213 262.668 603.415 263.156 603.415 263.742C603.415 264.406 603.213 264.921 602.809 265.285C602.249 265.78 601.598 266.027 600.856 266.027C599.971 266.027 599.183 265.656 598.493 264.914C597.803 264.172 597.458 263.254 597.458 262.16C597.458 260.624 598.031 259.224 599.177 257.961C599.945 257.128 601.058 256.444 602.516 255.91ZM618.377 264.582V270.676H617.733C617.238 268.762 616.6 267.46 615.819 266.77C615.05 266.079 614.067 265.734 612.87 265.734C611.958 265.734 611.222 265.975 610.662 266.457C610.103 266.939 609.823 267.473 609.823 268.059C609.823 268.788 610.031 269.413 610.448 269.934C610.851 270.467 611.672 271.034 612.909 271.633L615.76 273.02C618.403 274.309 619.725 276.008 619.725 278.117C619.725 279.745 619.106 281.06 617.87 282.062C616.646 283.052 615.272 283.547 613.748 283.547C612.655 283.547 611.405 283.352 609.998 282.961C609.569 282.831 609.217 282.766 608.944 282.766C608.644 282.766 608.41 282.935 608.241 283.273H607.596V276.887H608.241C608.605 278.71 609.302 280.083 610.33 281.008C611.359 281.932 612.511 282.395 613.787 282.395C614.686 282.395 615.415 282.134 615.975 281.613C616.548 281.079 616.834 280.441 616.834 279.699C616.834 278.801 616.515 278.046 615.877 277.434C615.252 276.822 613.996 276.047 612.108 275.109C610.22 274.172 608.983 273.326 608.397 272.57C607.811 271.828 607.518 270.891 607.518 269.758C607.518 268.286 608.019 267.056 609.022 266.066C610.037 265.077 611.346 264.582 612.948 264.582C613.651 264.582 614.504 264.732 615.506 265.031C616.17 265.227 616.613 265.324 616.834 265.324C617.043 265.324 617.205 265.279 617.323 265.188C617.44 265.096 617.577 264.895 617.733 264.582H618.377ZM629.551 264.582C632.259 264.582 634.434 265.611 636.074 267.668C637.467 269.426 638.164 271.444 638.164 273.723C638.164 275.324 637.78 276.945 637.012 278.586C636.243 280.227 635.182 281.464 633.828 282.297C632.487 283.13 630.99 283.547 629.336 283.547C626.641 283.547 624.499 282.473 622.91 280.324C621.569 278.514 620.898 276.483 620.898 274.23C620.898 272.59 621.302 270.962 622.109 269.348C622.93 267.72 624.004 266.522 625.332 265.754C626.66 264.973 628.066 264.582 629.551 264.582ZM628.945 265.852C628.255 265.852 627.559 266.06 626.855 266.477C626.165 266.88 625.605 267.596 625.176 268.625C624.746 269.654 624.531 270.975 624.531 272.59C624.531 275.194 625.046 277.44 626.074 279.328C627.116 281.216 628.483 282.16 630.176 282.16C631.439 282.16 632.48 281.639 633.301 280.598C634.121 279.556 634.531 277.766 634.531 275.227C634.531 272.049 633.848 269.549 632.48 267.727C631.556 266.477 630.378 265.852 628.945 265.852ZM652.796 259.23V265.109H656.976V266.477H652.796V278.078C652.796 279.237 652.959 280.018 653.284 280.422C653.623 280.826 654.053 281.027 654.573 281.027C655.003 281.027 655.42 280.897 655.823 280.637C656.227 280.363 656.54 279.966 656.761 279.445H657.523C657.067 280.721 656.422 281.685 655.589 282.336C654.756 282.974 653.896 283.293 653.011 283.293C652.412 283.293 651.826 283.13 651.253 282.805C650.68 282.466 650.257 281.991 649.984 281.379C649.71 280.754 649.573 279.797 649.573 278.508V266.477H646.741V265.832C647.458 265.546 648.187 265.064 648.929 264.387C649.684 263.697 650.355 262.883 650.941 261.945C651.24 261.451 651.657 260.546 652.191 259.23H652.796ZM662.388 255.227V268.312C663.833 266.724 664.979 265.708 665.825 265.266C666.671 264.81 667.518 264.582 668.364 264.582C669.38 264.582 670.252 264.862 670.981 265.422C671.71 265.982 672.251 266.861 672.602 268.059C672.85 268.892 672.973 270.415 672.973 272.629V278.957C672.973 280.09 673.065 280.865 673.247 281.281C673.377 281.594 673.598 281.841 673.911 282.023C674.223 282.206 674.796 282.297 675.63 282.297V283H666.841V282.297H667.251C668.084 282.297 668.664 282.173 668.989 281.926C669.315 281.665 669.542 281.288 669.673 280.793C669.712 280.585 669.731 279.973 669.731 278.957V272.629C669.731 270.676 669.627 269.393 669.419 268.781C669.223 268.169 668.904 267.714 668.462 267.414C668.019 267.102 667.485 266.945 666.86 266.945C666.222 266.945 665.558 267.115 664.868 267.453C664.178 267.792 663.351 268.475 662.388 269.504V278.957C662.388 280.181 662.453 280.943 662.583 281.242C662.726 281.542 662.98 281.796 663.345 282.004C663.722 282.199 664.367 282.297 665.278 282.297V283H656.411V282.297C657.205 282.297 657.83 282.173 658.286 281.926C658.546 281.796 658.755 281.548 658.911 281.184C659.067 280.819 659.145 280.077 659.145 278.957V262.766C659.145 260.721 659.093 259.465 658.989 258.996C658.898 258.527 658.748 258.208 658.54 258.039C658.345 257.87 658.078 257.785 657.739 257.785C657.466 257.785 657.023 257.889 656.411 258.098L656.138 257.414L661.489 255.227H662.388ZM678.541 271.848C678.528 274.504 679.173 276.587 680.475 278.098C681.777 279.608 683.307 280.363 685.065 280.363C686.237 280.363 687.252 280.044 688.112 279.406C688.984 278.755 689.713 277.648 690.299 276.086L690.905 276.477C690.631 278.26 689.837 279.888 688.522 281.359C687.207 282.818 685.56 283.547 683.581 283.547C681.432 283.547 679.59 282.714 678.053 281.047C676.53 279.367 675.768 277.115 675.768 274.289C675.768 271.229 676.549 268.846 678.112 267.141C679.687 265.422 681.66 264.562 684.03 264.562C686.035 264.562 687.682 265.227 688.971 266.555C690.26 267.87 690.905 269.634 690.905 271.848H678.541ZM678.541 270.715H686.823C686.758 269.569 686.621 268.762 686.413 268.293C686.087 267.564 685.599 266.991 684.948 266.574C684.31 266.158 683.639 265.949 682.936 265.949C681.855 265.949 680.885 266.372 680.026 267.219C679.179 268.052 678.685 269.217 678.541 270.715ZM690.691 265.109H699.031V265.832H698.621C698.035 265.832 697.592 265.962 697.293 266.223C697.007 266.47 696.863 266.783 696.863 267.16C696.863 267.668 697.078 268.371 697.508 269.27L701.863 278.293L705.867 268.41C706.089 267.876 706.199 267.349 706.199 266.828C706.199 266.594 706.154 266.418 706.062 266.301C705.958 266.158 705.796 266.047 705.574 265.969C705.353 265.878 704.962 265.832 704.402 265.832V265.109H710.223V265.832C709.741 265.884 709.37 265.988 709.109 266.145C708.849 266.301 708.562 266.594 708.25 267.023C708.133 267.206 707.911 267.707 707.586 268.527L700.301 286.379C699.598 288.111 698.673 289.419 697.527 290.305C696.395 291.19 695.301 291.633 694.246 291.633C693.478 291.633 692.846 291.411 692.352 290.969C691.857 290.526 691.609 290.018 691.609 289.445C691.609 288.898 691.785 288.456 692.137 288.117C692.501 287.792 692.996 287.629 693.621 287.629C694.051 287.629 694.637 287.772 695.379 288.059C695.9 288.254 696.225 288.352 696.355 288.352C696.746 288.352 697.169 288.15 697.625 287.746C698.094 287.342 698.562 286.561 699.031 285.402L700.301 282.297L693.875 268.801C693.68 268.397 693.367 267.896 692.938 267.297C692.612 266.841 692.345 266.535 692.137 266.379C691.837 266.171 691.355 265.988 690.691 265.832V265.109ZM733.702 276.203C733.221 278.56 732.277 280.376 730.87 281.652C729.464 282.915 727.908 283.547 726.202 283.547C724.171 283.547 722.4 282.694 720.89 280.988C719.379 279.283 718.624 276.978 718.624 274.074C718.624 271.262 719.458 268.977 721.124 267.219C722.804 265.461 724.816 264.582 727.159 264.582C728.917 264.582 730.362 265.051 731.495 265.988C732.628 266.913 733.195 267.876 733.195 268.879C733.195 269.374 733.032 269.777 732.706 270.09C732.394 270.389 731.951 270.539 731.378 270.539C730.61 270.539 730.03 270.292 729.64 269.797C729.418 269.523 729.269 269.003 729.191 268.234C729.126 267.466 728.865 266.88 728.409 266.477C727.954 266.086 727.322 265.891 726.515 265.891C725.213 265.891 724.165 266.372 723.37 267.336C722.316 268.612 721.788 270.298 721.788 272.395C721.788 274.53 722.309 276.418 723.351 278.059C724.405 279.686 725.825 280.5 727.609 280.5C728.885 280.5 730.03 280.064 731.046 279.191C731.762 278.592 732.459 277.505 733.136 275.93L733.702 276.203ZM743.43 264.582C746.139 264.582 748.313 265.611 749.954 267.668C751.347 269.426 752.044 271.444 752.044 273.723C752.044 275.324 751.66 276.945 750.891 278.586C750.123 280.227 749.062 281.464 747.708 282.297C746.367 283.13 744.869 283.547 743.216 283.547C740.52 283.547 738.378 282.473 736.79 280.324C735.449 278.514 734.778 276.483 734.778 274.23C734.778 272.59 735.182 270.962 735.989 269.348C736.809 267.72 737.884 266.522 739.212 265.754C740.54 264.973 741.946 264.582 743.43 264.582ZM742.825 265.852C742.135 265.852 741.438 266.06 740.735 266.477C740.045 266.88 739.485 267.596 739.055 268.625C738.626 269.654 738.411 270.975 738.411 272.59C738.411 275.194 738.925 277.44 739.954 279.328C740.996 281.216 742.363 282.16 744.055 282.16C745.319 282.16 746.36 281.639 747.18 280.598C748.001 279.556 748.411 277.766 748.411 275.227C748.411 272.049 747.727 269.549 746.36 267.727C745.436 266.477 744.257 265.852 742.825 265.852ZM768.764 265.109V275.949C768.764 278.02 768.81 279.289 768.901 279.758C769.005 280.214 769.161 280.533 769.37 280.715C769.591 280.897 769.845 280.988 770.131 280.988C770.535 280.988 770.991 280.878 771.498 280.656L771.772 281.34L766.42 283.547H765.541V279.758C764.005 281.424 762.833 282.473 762.026 282.902C761.219 283.332 760.366 283.547 759.467 283.547C758.465 283.547 757.592 283.26 756.85 282.688C756.121 282.102 755.613 281.353 755.327 280.441C755.04 279.53 754.897 278.241 754.897 276.574V268.586C754.897 267.74 754.806 267.154 754.623 266.828C754.441 266.503 754.168 266.255 753.803 266.086C753.452 265.904 752.807 265.819 751.87 265.832V265.109H758.139V277.082C758.139 278.749 758.426 279.842 758.998 280.363C759.584 280.884 760.288 281.145 761.108 281.145C761.668 281.145 762.299 280.969 763.002 280.617C763.719 280.266 764.565 279.595 765.541 278.605V268.469C765.541 267.453 765.353 266.77 764.975 266.418C764.61 266.053 763.842 265.858 762.67 265.832V265.109H768.764ZM777.633 255.227V278.957C777.633 280.077 777.711 280.819 777.867 281.184C778.036 281.548 778.29 281.828 778.629 282.023C778.967 282.206 779.599 282.297 780.523 282.297V283H771.754V282.297C772.574 282.297 773.134 282.212 773.434 282.043C773.733 281.874 773.967 281.594 774.137 281.203C774.306 280.812 774.391 280.064 774.391 278.957V262.707C774.391 260.689 774.345 259.452 774.254 258.996C774.163 258.527 774.013 258.208 773.805 258.039C773.609 257.87 773.355 257.785 773.043 257.785C772.704 257.785 772.275 257.889 771.754 258.098L771.422 257.414L776.754 255.227H777.633ZM793.65 280.988C792.778 281.9 791.925 282.557 791.091 282.961C790.258 283.352 789.36 283.547 788.396 283.547C786.443 283.547 784.737 282.733 783.279 281.105C781.821 279.465 781.091 277.362 781.091 274.797C781.091 272.232 781.899 269.888 783.513 267.766C785.128 265.63 787.205 264.562 789.744 264.562C791.319 264.562 792.621 265.064 793.65 266.066V262.766C793.65 260.721 793.598 259.465 793.494 258.996C793.403 258.527 793.253 258.208 793.045 258.039C792.836 257.87 792.576 257.785 792.263 257.785C791.925 257.785 791.476 257.889 790.916 258.098L790.662 257.414L795.994 255.227H796.873V275.91C796.873 278.007 796.918 279.289 797.009 279.758C797.114 280.214 797.27 280.533 797.478 280.715C797.7 280.897 797.953 280.988 798.24 280.988C798.591 280.988 799.06 280.878 799.646 280.656L799.861 281.34L794.548 283.547H793.65V280.988ZM793.65 279.621V270.402C793.572 269.517 793.338 268.71 792.947 267.98C792.556 267.251 792.035 266.704 791.384 266.34C790.746 265.962 790.121 265.773 789.509 265.773C788.364 265.773 787.341 266.288 786.443 267.316C785.258 268.671 784.666 270.65 784.666 273.254C784.666 275.884 785.239 277.902 786.384 279.309C787.53 280.702 788.806 281.398 790.213 281.398C791.397 281.398 792.543 280.806 793.65 279.621ZM310.785 310.582V314.605C312.283 311.923 313.819 310.582 315.395 310.582C316.111 310.582 316.703 310.803 317.172 311.246C317.641 311.676 317.875 312.177 317.875 312.75C317.875 313.258 317.706 313.688 317.367 314.039C317.029 314.391 316.625 314.566 316.156 314.566C315.701 314.566 315.186 314.345 314.613 313.902C314.053 313.447 313.637 313.219 313.363 313.219C313.129 313.219 312.875 313.349 312.602 313.609C312.016 314.143 311.41 315.022 310.785 316.246V324.82C310.785 325.81 310.909 326.559 311.156 327.066C311.326 327.418 311.625 327.711 312.055 327.945C312.484 328.18 313.103 328.297 313.91 328.297V329H304.75V328.297C305.661 328.297 306.339 328.154 306.781 327.867C307.107 327.659 307.335 327.327 307.465 326.871C307.53 326.65 307.562 326.018 307.562 324.977V318.043C307.562 315.96 307.517 314.723 307.426 314.332C307.348 313.928 307.191 313.635 306.957 313.453C306.736 313.271 306.456 313.18 306.117 313.18C305.714 313.18 305.258 313.277 304.75 313.473L304.555 312.77L309.965 310.582H310.785ZM320.279 317.848C320.266 320.504 320.91 322.587 322.212 324.098C323.515 325.608 325.045 326.363 326.802 326.363C327.974 326.363 328.99 326.044 329.849 325.406C330.722 324.755 331.451 323.648 332.037 322.086L332.642 322.477C332.369 324.26 331.574 325.888 330.259 327.359C328.944 328.818 327.297 329.547 325.318 329.547C323.17 329.547 321.327 328.714 319.791 327.047C318.267 325.367 317.505 323.115 317.505 320.289C317.505 317.229 318.287 314.846 319.849 313.141C321.425 311.422 323.397 310.562 325.767 310.562C327.772 310.562 329.42 311.227 330.709 312.555C331.998 313.87 332.642 315.634 332.642 317.848H320.279ZM320.279 316.715H328.56C328.495 315.569 328.358 314.762 328.15 314.293C327.824 313.564 327.336 312.991 326.685 312.574C326.047 312.158 325.377 311.949 324.673 311.949C323.593 311.949 322.623 312.372 321.763 313.219C320.917 314.052 320.422 315.217 320.279 316.715ZM343.581 326.422C341.745 327.841 340.593 328.661 340.124 328.883C339.421 329.208 338.672 329.371 337.878 329.371C336.641 329.371 335.619 328.948 334.812 328.102C334.017 327.255 333.62 326.142 333.62 324.762C333.62 323.889 333.816 323.134 334.206 322.496C334.74 321.611 335.665 320.777 336.98 319.996C338.308 319.215 340.508 318.264 343.581 317.145V316.441C343.581 314.658 343.295 313.434 342.722 312.77C342.162 312.105 341.342 311.773 340.261 311.773C339.441 311.773 338.79 311.995 338.308 312.438C337.813 312.88 337.566 313.388 337.566 313.961L337.605 315.094C337.605 315.693 337.448 316.155 337.136 316.48C336.836 316.806 336.439 316.969 335.945 316.969C335.463 316.969 335.066 316.799 334.753 316.461C334.454 316.122 334.304 315.66 334.304 315.074C334.304 313.954 334.877 312.926 336.023 311.988C337.168 311.051 338.777 310.582 340.847 310.582C342.435 310.582 343.738 310.849 344.753 311.383C345.521 311.786 346.088 312.418 346.452 313.277C346.687 313.837 346.804 314.983 346.804 316.715V322.789C346.804 324.495 346.836 325.543 346.902 325.934C346.967 326.311 347.071 326.565 347.214 326.695C347.37 326.826 347.546 326.891 347.741 326.891C347.95 326.891 348.132 326.845 348.288 326.754C348.562 326.585 349.089 326.109 349.87 325.328V326.422C348.412 328.375 347.019 329.352 345.691 329.352C345.053 329.352 344.545 329.13 344.167 328.688C343.79 328.245 343.594 327.49 343.581 326.422ZM343.581 325.152V318.336C341.615 319.117 340.346 319.671 339.773 319.996C338.744 320.569 338.008 321.168 337.566 321.793C337.123 322.418 336.902 323.102 336.902 323.844C336.902 324.781 337.182 325.562 337.741 326.188C338.301 326.799 338.946 327.105 339.675 327.105C340.665 327.105 341.967 326.454 343.581 325.152ZM355.77 301.227V324.957C355.77 326.077 355.848 326.819 356.005 327.184C356.174 327.548 356.428 327.828 356.766 328.023C357.105 328.206 357.736 328.297 358.661 328.297V329H349.891V328.297C350.712 328.297 351.272 328.212 351.571 328.043C351.871 327.874 352.105 327.594 352.274 327.203C352.444 326.812 352.528 326.064 352.528 324.957V308.707C352.528 306.689 352.483 305.452 352.391 304.996C352.3 304.527 352.151 304.208 351.942 304.039C351.747 303.87 351.493 303.785 351.18 303.785C350.842 303.785 350.412 303.889 349.891 304.098L349.559 303.414L354.891 301.227H355.77ZM365.303 301.227V324.957C365.303 326.077 365.381 326.819 365.538 327.184C365.707 327.548 365.961 327.828 366.299 328.023C366.638 328.206 367.269 328.297 368.194 328.297V329H359.424V328.297C360.245 328.297 360.804 328.212 361.104 328.043C361.403 327.874 361.638 327.594 361.807 327.203C361.976 326.812 362.061 326.064 362.061 324.957V308.707C362.061 306.689 362.015 305.452 361.924 304.996C361.833 304.527 361.683 304.208 361.475 304.039C361.28 303.87 361.026 303.785 360.713 303.785C360.375 303.785 359.945 303.889 359.424 304.098L359.092 303.414L364.424 301.227H365.303ZM367.668 311.109H376.008V311.832H375.598C375.012 311.832 374.569 311.962 374.27 312.223C373.983 312.47 373.84 312.783 373.84 313.16C373.84 313.668 374.055 314.371 374.484 315.27L378.84 324.293L382.844 314.41C383.065 313.876 383.176 313.349 383.176 312.828C383.176 312.594 383.13 312.418 383.039 312.301C382.935 312.158 382.772 312.047 382.551 311.969C382.329 311.878 381.939 311.832 381.379 311.832V311.109H387.199V311.832C386.717 311.884 386.346 311.988 386.086 312.145C385.826 312.301 385.539 312.594 385.227 313.023C385.109 313.206 384.888 313.707 384.562 314.527L377.277 332.379C376.574 334.111 375.65 335.419 374.504 336.305C373.371 337.19 372.277 337.633 371.223 337.633C370.454 337.633 369.823 337.411 369.328 336.969C368.833 336.526 368.586 336.018 368.586 335.445C368.586 334.898 368.762 334.456 369.113 334.117C369.478 333.792 369.973 333.629 370.598 333.629C371.027 333.629 371.613 333.772 372.355 334.059C372.876 334.254 373.202 334.352 373.332 334.352C373.723 334.352 374.146 334.15 374.602 333.746C375.07 333.342 375.539 332.561 376.008 331.402L377.277 328.297L370.852 314.801C370.656 314.397 370.344 313.896 369.914 313.297C369.589 312.841 369.322 312.535 369.113 312.379C368.814 312.171 368.332 311.988 367.668 311.832V311.109ZM402.476 312.516V324.273C402.476 325.94 402.658 326.995 403.023 327.438C403.504 328.01 404.149 328.297 404.956 328.297H406.577V329H395.894V328.297H396.695C397.215 328.297 397.691 328.167 398.12 327.906C398.55 327.646 398.843 327.294 398.999 326.852C399.168 326.409 399.253 325.549 399.253 324.273V312.516H395.777V311.109H399.253V309.938C399.253 308.154 399.54 306.643 400.112 305.406C400.685 304.169 401.558 303.173 402.73 302.418C403.915 301.65 405.243 301.266 406.714 301.266C408.081 301.266 409.338 301.708 410.484 302.594C411.239 303.18 411.616 303.837 411.616 304.566C411.616 304.957 411.447 305.328 411.109 305.68C410.77 306.018 410.405 306.188 410.015 306.188C409.715 306.188 409.396 306.083 409.058 305.875C408.732 305.654 408.329 305.191 407.847 304.488C407.365 303.772 406.922 303.29 406.519 303.043C406.115 302.796 405.666 302.672 405.171 302.672C404.572 302.672 404.064 302.835 403.648 303.16C403.231 303.473 402.931 303.967 402.749 304.645C402.567 305.309 402.476 307.034 402.476 309.82V311.109H407.085V312.516H402.476ZM410.212 317.848C410.199 320.504 410.843 322.587 412.145 324.098C413.447 325.608 414.977 326.363 416.735 326.363C417.907 326.363 418.923 326.044 419.782 325.406C420.654 324.755 421.384 323.648 421.97 322.086L422.575 322.477C422.302 324.26 421.507 325.888 420.192 327.359C418.877 328.818 417.23 329.547 415.251 329.547C413.102 329.547 411.26 328.714 409.723 327.047C408.2 325.367 407.438 323.115 407.438 320.289C407.438 317.229 408.22 314.846 409.782 313.141C411.358 311.422 413.33 310.562 415.7 310.562C417.705 310.562 419.352 311.227 420.641 312.555C421.93 313.87 422.575 315.634 422.575 317.848H410.212ZM410.212 316.715H418.493C418.428 315.569 418.291 314.762 418.083 314.293C417.757 313.564 417.269 312.991 416.618 312.574C415.98 312.158 415.309 311.949 414.606 311.949C413.526 311.949 412.555 312.372 411.696 313.219C410.85 314.052 410.355 315.217 410.212 316.715ZM426.385 317.848C426.372 320.504 427.017 322.587 428.319 324.098C429.621 325.608 431.151 326.363 432.909 326.363C434.08 326.363 435.096 326.044 435.955 325.406C436.828 324.755 437.557 323.648 438.143 322.086L438.748 322.477C438.475 324.26 437.681 325.888 436.366 327.359C435.051 328.818 433.403 329.547 431.424 329.547C429.276 329.547 427.433 328.714 425.897 327.047C424.373 325.367 423.612 323.115 423.612 320.289C423.612 317.229 424.393 314.846 425.955 313.141C427.531 311.422 429.504 310.562 431.873 310.562C433.879 310.562 435.526 311.227 436.815 312.555C438.104 313.87 438.748 315.634 438.748 317.848H426.385ZM426.385 316.715H434.666C434.601 315.569 434.465 314.762 434.256 314.293C433.931 313.564 433.442 312.991 432.791 312.574C432.153 312.158 431.483 311.949 430.78 311.949C429.699 311.949 428.729 312.372 427.87 313.219C427.023 314.052 426.528 315.217 426.385 316.715ZM445.703 301.227V324.957C445.703 326.077 445.781 326.819 445.938 327.184C446.107 327.548 446.361 327.828 446.699 328.023C447.038 328.206 447.669 328.297 448.594 328.297V329H439.824V328.297C440.645 328.297 441.204 328.212 441.504 328.043C441.803 327.874 442.038 327.594 442.207 327.203C442.376 326.812 442.461 326.064 442.461 324.957V308.707C442.461 306.689 442.415 305.452 442.324 304.996C442.233 304.527 442.083 304.208 441.875 304.039C441.68 303.87 441.426 303.785 441.113 303.785C440.775 303.785 440.345 303.889 439.824 304.098L439.492 303.414L444.824 301.227H445.703ZM462.679 305.23V311.109H466.859V312.477H462.679V324.078C462.679 325.237 462.842 326.018 463.167 326.422C463.506 326.826 463.935 327.027 464.456 327.027C464.886 327.027 465.303 326.897 465.706 326.637C466.11 326.363 466.422 325.966 466.644 325.445H467.405C466.95 326.721 466.305 327.685 465.472 328.336C464.639 328.974 463.779 329.293 462.894 329.293C462.295 329.293 461.709 329.13 461.136 328.805C460.563 328.466 460.14 327.991 459.866 327.379C459.593 326.754 459.456 325.797 459.456 324.508V312.477H456.624V311.832C457.34 311.546 458.07 311.064 458.812 310.387C459.567 309.697 460.237 308.883 460.823 307.945C461.123 307.451 461.54 306.546 462.073 305.23H462.679ZM472.27 301.227V314.312C473.716 312.724 474.861 311.708 475.708 311.266C476.554 310.81 477.401 310.582 478.247 310.582C479.263 310.582 480.135 310.862 480.864 311.422C481.593 311.982 482.134 312.861 482.485 314.059C482.733 314.892 482.856 316.415 482.856 318.629V324.957C482.856 326.09 482.947 326.865 483.13 327.281C483.26 327.594 483.481 327.841 483.794 328.023C484.106 328.206 484.679 328.297 485.513 328.297V329H476.723V328.297H477.134C477.967 328.297 478.546 328.173 478.872 327.926C479.197 327.665 479.425 327.288 479.555 326.793C479.595 326.585 479.614 325.973 479.614 324.957V318.629C479.614 316.676 479.51 315.393 479.302 314.781C479.106 314.169 478.787 313.714 478.345 313.414C477.902 313.102 477.368 312.945 476.743 312.945C476.105 312.945 475.441 313.115 474.751 313.453C474.061 313.792 473.234 314.475 472.27 315.504V324.957C472.27 326.181 472.335 326.943 472.466 327.242C472.609 327.542 472.863 327.796 473.227 328.004C473.605 328.199 474.249 328.297 475.161 328.297V329H466.294V328.297C467.088 328.297 467.713 328.173 468.169 327.926C468.429 327.796 468.638 327.548 468.794 327.184C468.95 326.819 469.028 326.077 469.028 324.957V308.766C469.028 306.721 468.976 305.465 468.872 304.996C468.781 304.527 468.631 304.208 468.423 304.039C468.227 303.87 467.96 303.785 467.622 303.785C467.348 303.785 466.906 303.889 466.294 304.098L466.02 303.414L471.372 301.227H472.27ZM488.424 317.848C488.411 320.504 489.056 322.587 490.358 324.098C491.66 325.608 493.19 326.363 494.948 326.363C496.12 326.363 497.135 326.044 497.995 325.406C498.867 324.755 499.596 323.648 500.182 322.086L500.788 322.477C500.514 324.26 499.72 325.888 498.405 327.359C497.09 328.818 495.442 329.547 493.463 329.547C491.315 329.547 489.472 328.714 487.936 327.047C486.413 325.367 485.651 323.115 485.651 320.289C485.651 317.229 486.432 314.846 487.995 313.141C489.57 311.422 491.543 310.562 493.913 310.562C495.918 310.562 497.565 311.227 498.854 312.555C500.143 313.87 500.788 315.634 500.788 317.848H488.424ZM488.424 316.715H496.705C496.64 315.569 496.504 314.762 496.295 314.293C495.97 313.564 495.482 312.991 494.83 312.574C494.192 312.158 493.522 311.949 492.819 311.949C491.738 311.949 490.768 312.372 489.909 313.219C489.062 314.052 488.567 315.217 488.424 316.715ZM521.552 310.582V316.676H520.908C520.413 314.762 519.775 313.46 518.994 312.77C518.226 312.079 517.242 311.734 516.045 311.734C515.133 311.734 514.397 311.975 513.837 312.457C513.278 312.939 512.998 313.473 512.998 314.059C512.998 314.788 513.206 315.413 513.623 315.934C514.026 316.467 514.847 317.034 516.084 317.633L518.935 319.02C521.578 320.309 522.9 322.008 522.9 324.117C522.9 325.745 522.282 327.06 521.045 328.062C519.821 329.052 518.447 329.547 516.923 329.547C515.83 329.547 514.58 329.352 513.173 328.961C512.744 328.831 512.392 328.766 512.119 328.766C511.819 328.766 511.585 328.935 511.416 329.273H510.771V322.887H511.416C511.78 324.71 512.477 326.083 513.505 327.008C514.534 327.932 515.686 328.395 516.962 328.395C517.861 328.395 518.59 328.134 519.15 327.613C519.723 327.079 520.009 326.441 520.009 325.699C520.009 324.801 519.69 324.046 519.052 323.434C518.427 322.822 517.171 322.047 515.283 321.109C513.395 320.172 512.158 319.326 511.572 318.57C510.986 317.828 510.693 316.891 510.693 315.758C510.693 314.286 511.194 313.056 512.197 312.066C513.212 311.077 514.521 310.582 516.123 310.582C516.826 310.582 517.679 310.732 518.681 311.031C519.345 311.227 519.788 311.324 520.009 311.324C520.218 311.324 520.38 311.279 520.498 311.188C520.615 311.096 520.752 310.895 520.908 310.582H521.552ZM534.112 326.422C532.277 327.841 531.124 328.661 530.655 328.883C529.952 329.208 529.204 329.371 528.409 329.371C527.172 329.371 526.15 328.948 525.343 328.102C524.549 327.255 524.152 326.142 524.152 324.762C524.152 323.889 524.347 323.134 524.737 322.496C525.271 321.611 526.196 320.777 527.511 319.996C528.839 319.215 531.04 318.264 534.112 317.145V316.441C534.112 314.658 533.826 313.434 533.253 312.77C532.693 312.105 531.873 311.773 530.792 311.773C529.972 311.773 529.321 311.995 528.839 312.438C528.344 312.88 528.097 313.388 528.097 313.961L528.136 315.094C528.136 315.693 527.98 316.155 527.667 316.48C527.368 316.806 526.971 316.969 526.476 316.969C525.994 316.969 525.597 316.799 525.284 316.461C524.985 316.122 524.835 315.66 524.835 315.074C524.835 313.954 525.408 312.926 526.554 311.988C527.7 311.051 529.308 310.582 531.378 310.582C532.967 310.582 534.269 310.849 535.284 311.383C536.053 311.786 536.619 312.418 536.984 313.277C537.218 313.837 537.335 314.983 537.335 316.715V322.789C537.335 324.495 537.368 325.543 537.433 325.934C537.498 326.311 537.602 326.565 537.745 326.695C537.902 326.826 538.077 326.891 538.273 326.891C538.481 326.891 538.663 326.845 538.82 326.754C539.093 326.585 539.62 326.109 540.402 325.328V326.422C538.943 328.375 537.55 329.352 536.222 329.352C535.584 329.352 535.076 329.13 534.698 328.688C534.321 328.245 534.126 327.49 534.112 326.422ZM534.112 325.152V318.336C532.146 319.117 530.877 319.671 530.304 319.996C529.275 320.569 528.54 321.168 528.097 321.793C527.654 322.418 527.433 323.102 527.433 323.844C527.433 324.781 527.713 325.562 528.273 326.188C528.833 326.799 529.477 327.105 530.206 327.105C531.196 327.105 532.498 326.454 534.112 325.152ZM545.364 314.371C547.46 311.845 549.459 310.582 551.36 310.582C552.337 310.582 553.177 310.829 553.88 311.324C554.583 311.806 555.143 312.607 555.559 313.727C555.846 314.508 555.989 315.706 555.989 317.32V324.957C555.989 326.09 556.08 326.858 556.263 327.262C556.406 327.587 556.634 327.841 556.946 328.023C557.272 328.206 557.864 328.297 558.723 328.297V329H549.876V328.297H550.247C551.08 328.297 551.66 328.173 551.985 327.926C552.324 327.665 552.558 327.288 552.688 326.793C552.74 326.598 552.766 325.986 552.766 324.957V317.633C552.766 316.005 552.552 314.827 552.122 314.098C551.705 313.355 550.996 312.984 549.993 312.984C548.444 312.984 546.901 313.831 545.364 315.523V324.957C545.364 326.168 545.436 326.917 545.579 327.203C545.761 327.581 546.009 327.861 546.321 328.043C546.647 328.212 547.298 328.297 548.274 328.297V329H539.427V328.297H539.817C540.729 328.297 541.341 328.069 541.653 327.613C541.979 327.145 542.141 326.259 542.141 324.957V318.316C542.141 316.168 542.089 314.859 541.985 314.391C541.894 313.922 541.744 313.603 541.536 313.434C541.341 313.264 541.074 313.18 540.735 313.18C540.371 313.18 539.934 313.277 539.427 313.473L539.134 312.77L544.524 310.582H545.364V314.371ZM571.186 326.988C570.314 327.9 569.461 328.557 568.627 328.961C567.794 329.352 566.896 329.547 565.932 329.547C563.979 329.547 562.273 328.733 560.815 327.105C559.357 325.465 558.627 323.362 558.627 320.797C558.627 318.232 559.435 315.888 561.049 313.766C562.664 311.63 564.741 310.562 567.28 310.562C568.855 310.562 570.157 311.064 571.186 312.066V308.766C571.186 306.721 571.134 305.465 571.03 304.996C570.939 304.527 570.789 304.208 570.58 304.039C570.372 303.87 570.112 303.785 569.799 303.785C569.461 303.785 569.011 303.889 568.452 304.098L568.198 303.414L573.53 301.227H574.409V321.91C574.409 324.007 574.454 325.289 574.545 325.758C574.649 326.214 574.806 326.533 575.014 326.715C575.235 326.897 575.489 326.988 575.776 326.988C576.127 326.988 576.596 326.878 577.182 326.656L577.397 327.34L572.084 329.547H571.186V326.988ZM571.186 325.621V316.402C571.108 315.517 570.873 314.71 570.483 313.98C570.092 313.251 569.571 312.704 568.92 312.34C568.282 311.962 567.657 311.773 567.045 311.773C565.899 311.773 564.877 312.288 563.979 313.316C562.794 314.671 562.202 316.65 562.202 319.254C562.202 321.884 562.774 323.902 563.92 325.309C565.066 326.702 566.342 327.398 567.748 327.398C568.933 327.398 570.079 326.806 571.186 325.621ZM585.777 310.758H586.891L594.449 319.977L586.891 329.156H585.777L590.543 319.977L585.777 310.758ZM576.949 310.758H578.082L585.777 319.977L578.082 329.156H576.949L581.695 319.977L576.949 310.758Z" fill="white"></path><defs><linearGradient id="paint0_linear_3955_885" x1="450" y1="0" x2="450" y2="540" gradientUnits="userSpaceOnUse"><stop stop-color="#9D50BB"></stop><stop offset="1" stop-color="#170562"></stop></linearGradient></defs></svg> 