<?xml version="1.0" encoding="UTF-8"?> <svg xmlns="http://www.w3.org/2000/svg" width="800" height="450" viewBox="0 0 800 450" fill="none"><rect width="800" height="450" rx="20" fill="#90AD26"></rect><path d="M254.332 132.84C251.252 132.84 248.685 132.037 246.632 130.432C244.597 128.827 243.169 126.661 242.348 123.936L249.012 122.34C249.217 123.479 249.815 124.459 250.804 125.28C251.793 126.101 252.885 126.512 254.08 126.512C254.864 126.512 255.695 126.307 256.572 125.896C257.449 125.467 258.103 124.785 258.532 123.852C258.793 123.255 258.943 122.545 258.98 121.724C259.036 120.884 259.064 119.913 259.064 118.812V91.68H265.896V118.812C265.896 120.063 265.887 121.164 265.868 122.116C265.868 123.049 265.775 123.936 265.588 124.776C265.42 125.597 265.075 126.447 264.552 127.324C263.451 129.228 262.013 130.628 260.24 131.524C258.467 132.401 256.497 132.84 254.332 132.84ZM291.683 132.84C288.472 132.84 285.644 132.187 283.199 130.88C280.772 129.573 278.868 127.735 277.487 125.364C276.124 122.993 275.443 120.212 275.443 117.02V91.736L282.275 91.68V116.852C282.275 118.364 282.527 119.717 283.031 120.912C283.553 122.107 284.253 123.124 285.131 123.964C286.008 124.785 287.016 125.411 288.155 125.84C289.293 126.269 290.469 126.484 291.683 126.484C292.933 126.484 294.119 126.269 295.239 125.84C296.377 125.392 297.385 124.757 298.263 123.936C299.14 123.096 299.831 122.079 300.335 120.884C300.839 119.689 301.091 118.345 301.091 116.852V91.68H307.923V117.02C307.923 120.212 307.232 122.993 305.851 125.364C304.488 127.735 302.584 129.573 300.139 130.88C297.712 132.187 294.893 132.84 291.683 132.84ZM316.868 132V91.68H323.7L342.404 120.1V91.68H349.236V132H342.404L323.7 103.58V132H316.868ZM358.183 132V91.68H364.931V110.384L381.031 91.68H389.319L371.987 111.448L390.495 132H381.927L364.931 113.184V132H358.183ZM406.798 132V91.68H431.074V98.428H413.546V108.48H427.714V115.2H413.546V132H406.798ZM454.282 132.84C450.25 132.84 446.797 131.963 443.922 130.208C441.048 128.435 438.836 125.971 437.286 122.816C435.756 119.661 434.99 116.003 434.99 111.84C434.99 107.677 435.756 104.019 437.286 100.864C438.836 97.7093 441.048 95.2547 443.922 93.5C446.797 91.7267 450.25 90.84 454.282 90.84C458.314 90.84 461.768 91.7267 464.642 93.5C467.536 95.2547 469.748 97.7093 471.278 100.864C472.828 104.019 473.602 107.677 473.602 111.84C473.602 116.003 472.828 119.661 471.278 122.816C469.748 125.971 467.536 128.435 464.642 130.208C461.768 131.963 458.314 132.84 454.282 132.84ZM454.282 126.484C456.989 126.503 459.238 125.905 461.03 124.692C462.841 123.479 464.194 121.771 465.09 119.568C466.005 117.365 466.462 114.789 466.462 111.84C466.462 108.891 466.005 106.333 465.09 104.168C464.194 101.984 462.841 100.285 461.03 99.072C459.238 97.8587 456.989 97.2333 454.282 97.196C451.576 97.1773 449.326 97.7747 447.534 98.988C445.742 100.201 444.389 101.909 443.474 104.112C442.578 106.315 442.13 108.891 442.13 111.84C442.13 114.789 442.578 117.356 443.474 119.54C444.37 121.705 445.714 123.395 447.506 124.608C449.317 125.821 451.576 126.447 454.282 126.484ZM497.348 132.84C493.316 132.84 489.862 131.963 486.988 130.208C484.113 128.435 481.901 125.971 480.352 122.816C478.821 119.661 478.056 116.003 478.056 111.84C478.056 107.677 478.821 104.019 480.352 100.864C481.901 97.7093 484.113 95.2547 486.988 93.5C489.862 91.7267 493.316 90.84 497.348 90.84C501.38 90.84 504.833 91.7267 507.708 93.5C510.601 95.2547 512.813 97.7093 514.344 100.864C515.893 104.019 516.668 107.677 516.668 111.84C516.668 116.003 515.893 119.661 514.344 122.816C512.813 125.971 510.601 128.435 507.708 130.208C504.833 131.963 501.38 132.84 497.348 132.84ZM497.348 126.484C500.054 126.503 502.304 125.905 504.096 124.692C505.906 123.479 507.26 121.771 508.156 119.568C509.07 117.365 509.528 114.789 509.528 111.84C509.528 108.891 509.07 106.333 508.156 104.168C507.26 101.984 505.906 100.285 504.096 99.072C502.304 97.8587 500.054 97.2333 497.348 97.196C494.641 97.1773 492.392 97.7747 490.6 98.988C488.808 100.201 487.454 101.909 486.54 104.112C485.644 106.315 485.196 108.891 485.196 111.84C485.196 114.789 485.644 117.356 486.54 119.54C487.436 121.705 488.78 123.395 490.572 124.608C492.382 125.821 494.641 126.447 497.348 126.484ZM523.361 132V91.68H536.213C536.549 91.68 537.212 91.6893 538.201 91.708C539.209 91.7267 540.18 91.792 541.113 91.904C544.305 92.3147 547.002 93.4533 549.205 95.32C551.426 97.168 553.106 99.5293 554.245 102.404C555.384 105.279 555.953 108.424 555.953 111.84C555.953 115.256 555.384 118.401 554.245 121.276C553.106 124.151 551.426 126.521 549.205 128.388C547.002 130.236 544.305 131.365 541.113 131.776C540.198 131.888 539.237 131.953 538.229 131.972C537.221 131.991 536.549 132 536.213 132H523.361ZM530.221 125.644H536.213C536.773 125.644 537.482 125.625 538.341 125.588C539.218 125.551 539.993 125.467 540.665 125.336C542.569 124.981 544.118 124.132 545.313 122.788C546.508 121.444 547.385 119.811 547.945 117.888C548.524 115.965 548.813 113.949 548.813 111.84C548.813 109.656 548.524 107.603 547.945 105.68C547.366 103.757 546.47 102.143 545.257 100.836C544.062 99.5293 542.532 98.6987 540.665 98.344C539.993 98.1947 539.218 98.1107 538.341 98.092C537.482 98.0547 536.773 98.036 536.213 98.036H530.221V125.644Z" fill="#F4FDD3"></path><path d="M253.452 239V212.897L247.761 216.341V212.162L253.452 208.76H257.253V239H253.452ZM270.488 239V234.884H274.604V239H270.488ZM311.285 239V227.639C311.285 226.561 311.187 225.525 310.991 224.531C310.809 223.537 310.48 222.648 310.004 221.864C309.542 221.066 308.912 220.436 308.114 219.974C307.33 219.512 306.336 219.281 305.132 219.281C304.194 219.281 303.34 219.442 302.57 219.764C301.814 220.072 301.163 220.548 300.617 221.192C300.071 221.836 299.644 222.648 299.336 223.628C299.042 224.594 298.895 225.735 298.895 227.051L296.438 226.295C296.438 224.097 296.83 222.214 297.614 220.646C298.412 219.064 299.525 217.853 300.953 217.013C302.395 216.159 304.089 215.732 306.035 215.732C307.505 215.732 308.758 215.963 309.794 216.425C310.83 216.887 311.691 217.503 312.377 218.273C313.063 219.029 313.602 219.883 313.994 220.835C314.386 221.773 314.659 222.732 314.813 223.712C314.981 224.678 315.065 225.595 315.065 226.463V239H311.285ZM295.115 239V208.76H298.475V225.455H298.895V239H295.115ZM331.193 239.63C328.967 239.63 327.021 239.14 325.355 238.16C323.703 237.166 322.415 235.787 321.491 234.023C320.567 232.245 320.105 230.173 320.105 227.807C320.105 225.329 320.56 223.187 321.47 221.381C322.38 219.561 323.647 218.161 325.271 217.181C326.909 216.187 328.827 215.69 331.025 215.69C333.307 215.69 335.246 216.215 336.842 217.265C338.452 218.315 339.656 219.813 340.454 221.759C341.266 223.705 341.616 226.022 341.504 228.71H337.724V227.366C337.682 224.58 337.115 222.501 336.023 221.129C334.931 219.743 333.307 219.05 331.151 219.05C328.841 219.05 327.084 219.792 325.88 221.276C324.676 222.76 324.074 224.888 324.074 227.66C324.074 230.334 324.676 232.406 325.88 233.876C327.084 235.346 328.799 236.081 331.025 236.081C332.523 236.081 333.825 235.738 334.931 235.052C336.037 234.366 336.905 233.379 337.535 232.091L341.126 233.33C340.244 235.332 338.914 236.886 337.136 237.992C335.372 239.084 333.391 239.63 331.193 239.63ZM322.814 228.71V225.707H339.572V228.71H322.814ZM353.056 239.63C351.362 239.63 349.941 239.322 348.793 238.706C347.659 238.076 346.798 237.25 346.21 236.228C345.636 235.206 345.349 234.086 345.349 232.868C345.349 231.678 345.573 230.649 346.021 229.781C346.483 228.899 347.127 228.171 347.953 227.597C348.779 227.009 349.766 226.547 350.914 226.211C351.992 225.917 353.196 225.665 354.526 225.455C355.87 225.231 357.228 225.028 358.6 224.846C359.972 224.664 361.253 224.489 362.443 224.321L361.099 225.098C361.141 223.082 360.735 221.591 359.881 220.625C359.041 219.659 357.585 219.176 355.513 219.176C354.141 219.176 352.937 219.491 351.901 220.121C350.879 220.737 350.158 221.745 349.738 223.145L346.189 222.074C346.735 220.086 347.792 218.525 349.36 217.391C350.928 216.257 352.993 215.69 355.555 215.69C357.613 215.69 359.377 216.061 360.847 216.803C362.331 217.531 363.395 218.637 364.039 220.121C364.361 220.821 364.564 221.584 364.648 222.41C364.732 223.222 364.774 224.076 364.774 224.972V239H361.456V233.561L362.233 234.065C361.379 235.899 360.182 237.285 358.642 238.223C357.116 239.161 355.254 239.63 353.056 239.63ZM353.623 236.501C354.967 236.501 356.129 236.263 357.109 235.787C358.103 235.297 358.901 234.66 359.503 233.876C360.105 233.078 360.497 232.21 360.679 231.272C360.889 230.572 361.001 229.795 361.015 228.941C361.043 228.073 361.057 227.408 361.057 226.946L362.359 227.513C361.141 227.681 359.944 227.842 358.768 227.996C357.592 228.15 356.479 228.318 355.429 228.5C354.379 228.668 353.434 228.871 352.594 229.109C351.978 229.305 351.397 229.557 350.851 229.865C350.319 230.173 349.885 230.572 349.549 231.062C349.227 231.538 349.066 232.133 349.066 232.847C349.066 233.463 349.22 234.051 349.528 234.611C349.85 235.171 350.34 235.626 350.998 235.976C351.67 236.326 352.545 236.501 353.623 236.501ZM371.494 239V208.13H375.232V239H371.494ZM395.036 239C393.692 239.266 392.362 239.371 391.046 239.315C389.744 239.273 388.582 239.014 387.56 238.538C386.538 238.048 385.761 237.292 385.229 236.27C384.781 235.374 384.536 234.471 384.494 233.561C384.466 232.637 384.452 231.594 384.452 230.432V210.02H388.19V230.264C388.19 231.188 388.197 231.979 388.211 232.637C388.239 233.295 388.386 233.862 388.652 234.338C389.156 235.234 389.954 235.759 391.046 235.913C392.152 236.067 393.482 236.025 395.036 235.787V239ZM379.853 219.407V216.32H395.036V219.407H379.853ZM416.63 239V227.639C416.63 226.561 416.532 225.525 416.336 224.531C416.154 223.537 415.825 222.648 415.349 221.864C414.887 221.066 414.257 220.436 413.459 219.974C412.675 219.512 411.681 219.281 410.477 219.281C409.539 219.281 408.685 219.442 407.915 219.764C407.159 220.072 406.508 220.548 405.962 221.192C405.416 221.836 404.989 222.648 404.681 223.628C404.387 224.594 404.24 225.735 404.24 227.051L401.783 226.295C401.783 224.097 402.175 222.214 402.959 220.646C403.757 219.064 404.87 217.853 406.298 217.013C407.74 216.159 409.434 215.732 411.38 215.732C412.85 215.732 414.103 215.963 415.139 216.425C416.175 216.887 417.036 217.503 417.722 218.273C418.408 219.029 418.947 219.883 419.339 220.835C419.731 221.773 420.004 222.732 420.158 223.712C420.326 224.678 420.41 225.595 420.41 226.463V239H416.63ZM400.46 239V208.76H403.82V225.455H404.24V239H400.46ZM429.859 249.08L434.248 237.152L434.311 240.68L424.399 216.32H428.326L436.096 235.913H434.752L442.039 216.32H445.84L433.492 249.08H429.859ZM467.041 208.76H470.842L462.778 239H458.977L467.041 208.76ZM488.547 239V215.081C488.547 214.493 488.575 213.898 488.631 213.296C488.687 212.68 488.813 212.085 489.009 211.511C489.205 210.923 489.527 210.384 489.975 209.894C490.493 209.32 491.06 208.914 491.676 208.676C492.292 208.424 492.915 208.27 493.545 208.214C494.189 208.158 494.798 208.13 495.372 208.13H498.249V211.238H495.582C494.476 211.238 493.65 211.511 493.104 212.057C492.558 212.589 492.285 213.401 492.285 214.493V239H488.547ZM484.704 219.407V216.32H498.249V219.407H484.704ZM502.441 239V216.32H505.78V221.801L505.234 221.087C505.5 220.387 505.843 219.743 506.263 219.155C506.697 218.567 507.18 218.084 507.712 217.706C508.3 217.23 508.965 216.866 509.707 216.614C510.449 216.362 511.205 216.215 511.975 216.173C512.745 216.117 513.466 216.166 514.138 216.32V219.827C513.354 219.617 512.493 219.561 511.555 219.659C510.617 219.757 509.749 220.1 508.951 220.688C508.223 221.206 507.656 221.836 507.25 222.578C506.858 223.32 506.585 224.125 506.431 224.993C506.277 225.847 506.2 226.722 506.2 227.618V239H502.441ZM527.559 239.588C526.103 239.588 524.85 239.357 523.8 238.895C522.764 238.433 521.903 237.817 521.217 237.047C520.531 236.277 519.992 235.423 519.6 234.485C519.208 233.547 518.928 232.588 518.76 231.608C518.606 230.628 518.529 229.711 518.529 228.857V216.32H522.309V227.681C522.309 228.745 522.407 229.774 522.603 230.768C522.799 231.762 523.128 232.658 523.59 233.456C524.066 234.254 524.696 234.884 525.48 235.346C526.278 235.808 527.272 236.039 528.462 236.039C529.4 236.039 530.254 235.878 531.024 235.556C531.794 235.234 532.452 234.758 532.998 234.128C533.544 233.484 533.964 232.672 534.258 231.692C534.552 230.712 534.699 229.571 534.699 228.269L537.156 229.025C537.156 231.209 536.757 233.092 535.959 234.674C535.175 236.256 534.062 237.474 532.62 238.328C531.192 239.168 529.505 239.588 527.559 239.588ZM535.119 239V232.931H534.699V216.32H538.458V239H535.119ZM545.597 212.309V208.445H549.335V212.309H545.597ZM545.597 239V216.32H549.335V239H545.597ZM569.139 239C567.795 239.266 566.465 239.371 565.149 239.315C563.847 239.273 562.685 239.014 561.663 238.538C560.641 238.048 559.864 237.292 559.332 236.27C558.884 235.374 558.639 234.471 558.597 233.561C558.569 232.637 558.555 231.594 558.555 230.432V210.02H562.293V230.264C562.293 231.188 562.3 231.979 562.314 232.637C562.342 233.295 562.489 233.862 562.755 234.338C563.259 235.234 564.057 235.759 565.149 235.913C566.255 236.067 567.585 236.025 569.139 235.787V239ZM553.956 219.407V216.32H569.139V219.407H553.956ZM198.071 297.979L198.092 294.619L211.511 282.544C212.631 281.536 213.38 280.584 213.758 279.688C214.15 278.778 214.346 277.847 214.346 276.895C214.346 275.733 214.08 274.683 213.548 273.745C213.016 272.807 212.288 272.065 211.364 271.519C210.454 270.973 209.418 270.7 208.256 270.7C207.052 270.7 205.981 270.987 205.043 271.561C204.105 272.121 203.363 272.87 202.817 273.808C202.285 274.746 202.026 275.768 202.04 276.874H198.218C198.218 274.97 198.659 273.29 199.541 271.834C200.423 270.364 201.62 269.216 203.132 268.39C204.658 267.55 206.387 267.13 208.319 267.13C210.195 267.13 211.875 267.564 213.359 268.432C214.843 269.286 216.012 270.455 216.866 271.939C217.734 273.409 218.168 275.075 218.168 276.937C218.168 278.253 218 279.394 217.664 280.36C217.342 281.326 216.838 282.222 216.152 283.048C215.466 283.86 214.605 284.728 213.569 285.652L202.418 295.669L201.935 294.409H218.168V297.979H198.071ZM224.788 298V293.884H228.904V298H224.788ZM262.099 298C260.755 298.266 259.425 298.371 258.109 298.315C256.807 298.273 255.645 298.014 254.623 297.538C253.601 297.048 252.824 296.292 252.292 295.27C251.844 294.374 251.599 293.471 251.557 292.561C251.529 291.637 251.515 290.594 251.515 289.432V269.02H255.253V289.264C255.253 290.188 255.26 290.979 255.274 291.637C255.302 292.295 255.449 292.862 255.715 293.338C256.219 294.234 257.017 294.759 258.109 294.913C259.215 295.067 260.545 295.025 262.099 294.787V298ZM246.916 278.407V275.32H262.099V278.407H246.916ZM273.99 298.63C272.296 298.63 270.875 298.322 269.727 297.706C268.593 297.076 267.732 296.25 267.144 295.228C266.57 294.206 266.283 293.086 266.283 291.868C266.283 290.678 266.507 289.649 266.955 288.781C267.417 287.899 268.061 287.171 268.887 286.597C269.713 286.009 270.7 285.547 271.848 285.211C272.926 284.917 274.13 284.665 275.46 284.455C276.804 284.231 278.162 284.028 279.534 283.846C280.906 283.664 282.187 283.489 283.377 283.321L282.033 284.098C282.075 282.082 281.669 280.591 280.815 279.625C279.975 278.659 278.519 278.176 276.447 278.176C275.075 278.176 273.871 278.491 272.835 279.121C271.813 279.737 271.092 280.745 270.672 282.145L267.123 281.074C267.669 279.086 268.726 277.525 270.294 276.391C271.862 275.257 273.927 274.69 276.489 274.69C278.547 274.69 280.311 275.061 281.781 275.803C283.265 276.531 284.329 277.637 284.973 279.121C285.295 279.821 285.498 280.584 285.582 281.41C285.666 282.222 285.708 283.076 285.708 283.972V298H282.39V292.561L283.167 293.065C282.313 294.899 281.116 296.285 279.576 297.223C278.05 298.161 276.188 298.63 273.99 298.63ZM274.557 295.501C275.901 295.501 277.063 295.263 278.043 294.787C279.037 294.297 279.835 293.66 280.437 292.876C281.039 292.078 281.431 291.21 281.613 290.272C281.823 289.572 281.935 288.795 281.949 287.941C281.977 287.073 281.991 286.408 281.991 285.946L283.293 286.513C282.075 286.681 280.878 286.842 279.702 286.996C278.526 287.15 277.413 287.318 276.363 287.5C275.313 287.668 274.368 287.871 273.528 288.109C272.912 288.305 272.331 288.557 271.785 288.865C271.253 289.173 270.819 289.572 270.483 290.062C270.161 290.538 270 291.133 270 291.847C270 292.463 270.154 293.051 270.462 293.611C270.784 294.171 271.274 294.626 271.932 294.976C272.604 295.326 273.479 295.501 274.557 295.501ZM300.576 298.609C297.874 298.609 295.655 298.021 293.919 296.845C292.197 295.655 291.14 293.996 290.748 291.868L294.57 291.259C294.878 292.491 295.585 293.471 296.691 294.199C297.797 294.913 299.169 295.27 300.807 295.27C302.361 295.27 303.579 294.948 304.461 294.304C305.343 293.66 305.784 292.785 305.784 291.679C305.784 291.035 305.637 290.517 305.343 290.125C305.049 289.719 304.44 289.341 303.516 288.991C302.606 288.641 301.227 288.221 299.379 287.731C297.377 287.199 295.802 286.646 294.654 286.072C293.506 285.498 292.687 284.833 292.197 284.077C291.707 283.321 291.462 282.404 291.462 281.326C291.462 279.996 291.826 278.834 292.554 277.84C293.282 276.832 294.297 276.055 295.599 275.509C296.915 274.963 298.441 274.69 300.177 274.69C301.899 274.69 303.439 274.963 304.797 275.509C306.155 276.055 307.247 276.832 308.073 277.84C308.913 278.834 309.41 279.996 309.564 281.326L305.742 282.019C305.56 280.801 304.972 279.842 303.978 279.142C302.998 278.442 301.731 278.071 300.177 278.029C298.707 277.973 297.51 278.232 296.586 278.806C295.676 279.38 295.221 280.157 295.221 281.137C295.221 281.683 295.389 282.152 295.725 282.544C296.075 282.936 296.712 283.307 297.636 283.657C298.574 284.007 299.932 284.406 301.71 284.854C303.712 285.358 305.287 285.911 306.435 286.513C307.597 287.101 308.423 287.801 308.913 288.613C309.403 289.411 309.648 290.398 309.648 291.574C309.648 293.758 308.843 295.48 307.233 296.74C305.623 297.986 303.404 298.609 300.576 298.609ZM327.783 298C326.439 298.266 325.109 298.371 323.793 298.315C322.491 298.273 321.329 298.014 320.307 297.538C319.285 297.048 318.508 296.292 317.976 295.27C317.528 294.374 317.283 293.471 317.241 292.561C317.213 291.637 317.199 290.594 317.199 289.432V269.02H320.937V289.264C320.937 290.188 320.944 290.979 320.958 291.637C320.986 292.295 321.133 292.862 321.399 293.338C321.903 294.234 322.701 294.759 323.793 294.913C324.899 295.067 326.229 295.025 327.783 294.787V298ZM312.6 278.407V275.32H327.783V278.407H312.6ZM335.762 308.08L340.151 296.152L340.214 299.68L330.302 275.32H334.229L341.999 294.913H340.655L347.942 275.32H351.743L339.395 308.08H335.762ZM372.944 267.76H376.745L368.681 298H364.88L372.944 267.76ZM398.419 298L390.187 275.32H393.967L400.33 293.233L406.672 275.32H410.473L402.241 298H398.419ZM424.119 298.63C421.893 298.63 419.947 298.14 418.281 297.16C416.629 296.166 415.341 294.787 414.417 293.023C413.493 291.245 413.031 289.173 413.031 286.807C413.031 284.329 413.486 282.187 414.396 280.381C415.306 278.561 416.573 277.161 418.197 276.181C419.835 275.187 421.753 274.69 423.951 274.69C426.233 274.69 428.172 275.215 429.768 276.265C431.378 277.315 432.582 278.813 433.38 280.759C434.192 282.705 434.542 285.022 434.43 287.71H430.65V286.366C430.608 283.58 430.041 281.501 428.949 280.129C427.857 278.743 426.233 278.05 424.077 278.05C421.767 278.05 420.01 278.792 418.806 280.276C417.602 281.76 417 283.888 417 286.66C417 289.334 417.602 291.406 418.806 292.876C420.01 294.346 421.725 295.081 423.951 295.081C425.449 295.081 426.751 294.738 427.857 294.052C428.963 293.366 429.831 292.379 430.461 291.091L434.052 292.33C433.17 294.332 431.84 295.886 430.062 296.992C428.298 298.084 426.317 298.63 424.119 298.63ZM415.74 287.71V284.707H432.498V287.71H415.74ZM449.122 308.71C447.932 308.71 446.77 308.528 445.636 308.164C444.502 307.8 443.459 307.247 442.507 306.505C441.569 305.777 440.785 304.853 440.155 303.733L443.578 301.927C444.138 303.033 444.929 303.838 445.951 304.342C446.987 304.846 448.051 305.098 449.143 305.098C450.585 305.098 451.782 304.832 452.734 304.3C453.686 303.782 454.386 303.005 454.834 301.969C455.296 300.933 455.52 299.645 455.506 298.105V291.91H455.947V275.32H459.265V298.147C459.265 298.763 459.244 299.358 459.202 299.932C459.174 300.506 459.104 301.073 458.992 301.633C458.698 303.243 458.117 304.566 457.249 305.602C456.381 306.652 455.261 307.429 453.889 307.933C452.517 308.451 450.928 308.71 449.122 308.71ZM448.849 298.63C446.735 298.63 444.922 298.105 443.41 297.055C441.898 295.991 440.729 294.556 439.903 292.75C439.091 290.944 438.685 288.907 438.685 286.639C438.685 284.371 439.091 282.334 439.903 280.528C440.729 278.722 441.898 277.301 443.41 276.265C444.922 275.215 446.728 274.69 448.828 274.69C450.97 274.69 452.769 275.208 454.225 276.244C455.681 277.28 456.78 278.701 457.522 280.507C458.278 282.313 458.656 284.357 458.656 286.639C458.656 288.893 458.278 290.93 457.522 292.75C456.78 294.556 455.681 295.991 454.225 297.055C452.769 298.105 450.977 298.63 448.849 298.63ZM449.311 295.207C450.837 295.207 452.09 294.843 453.07 294.115C454.05 293.373 454.771 292.358 455.233 291.07C455.709 289.768 455.947 288.291 455.947 286.639C455.947 284.959 455.709 283.482 455.233 282.208C454.771 280.92 454.057 279.919 453.091 279.205C452.125 278.477 450.9 278.113 449.416 278.113C447.876 278.113 446.602 278.491 445.594 279.247C444.6 280.003 443.858 281.025 443.368 282.313C442.892 283.601 442.654 285.043 442.654 286.639C442.654 288.249 442.899 289.705 443.389 291.007C443.879 292.295 444.614 293.317 445.594 294.073C446.588 294.829 447.827 295.207 449.311 295.207ZM475.797 298.63C473.571 298.63 471.625 298.14 469.959 297.16C468.307 296.166 467.019 294.787 466.095 293.023C465.171 291.245 464.709 289.173 464.709 286.807C464.709 284.329 465.164 282.187 466.074 280.381C466.984 278.561 468.251 277.161 469.875 276.181C471.513 275.187 473.431 274.69 475.629 274.69C477.911 274.69 479.85 275.215 481.446 276.265C483.056 277.315 484.26 278.813 485.058 280.759C485.87 282.705 486.22 285.022 486.108 287.71H482.328V286.366C482.286 283.58 481.719 281.501 480.627 280.129C479.535 278.743 477.911 278.05 475.755 278.05C473.445 278.05 471.688 278.792 470.484 280.276C469.28 281.76 468.678 283.888 468.678 286.66C468.678 289.334 469.28 291.406 470.484 292.876C471.688 294.346 473.403 295.081 475.629 295.081C477.127 295.081 478.429 294.738 479.535 294.052C480.641 293.366 481.509 292.379 482.139 291.091L485.73 292.33C484.848 294.332 483.518 295.886 481.74 296.992C479.976 298.084 477.995 298.63 475.797 298.63ZM467.418 287.71V284.707H484.176V287.71H467.418ZM504.286 298C502.942 298.266 501.612 298.371 500.296 298.315C498.994 298.273 497.832 298.014 496.81 297.538C495.788 297.048 495.011 296.292 494.479 295.27C494.031 294.374 493.786 293.471 493.744 292.561C493.716 291.637 493.702 290.594 493.702 289.432V269.02H497.44V289.264C497.44 290.188 497.447 290.979 497.461 291.637C497.489 292.295 497.636 292.862 497.902 293.338C498.406 294.234 499.204 294.759 500.296 294.913C501.402 295.067 502.732 295.025 504.286 294.787V298ZM489.103 278.407V275.32H504.286V278.407H489.103ZM516.178 298.63C514.484 298.63 513.063 298.322 511.915 297.706C510.781 297.076 509.92 296.25 509.332 295.228C508.758 294.206 508.471 293.086 508.471 291.868C508.471 290.678 508.695 289.649 509.143 288.781C509.605 287.899 510.249 287.171 511.075 286.597C511.901 286.009 512.888 285.547 514.036 285.211C515.114 284.917 516.318 284.665 517.648 284.455C518.992 284.231 520.35 284.028 521.722 283.846C523.094 283.664 524.375 283.489 525.565 283.321L524.221 284.098C524.263 282.082 523.857 280.591 523.003 279.625C522.163 278.659 520.707 278.176 518.635 278.176C517.263 278.176 516.059 278.491 515.023 279.121C514.001 279.737 513.28 280.745 512.86 282.145L509.311 281.074C509.857 279.086 510.914 277.525 512.482 276.391C514.05 275.257 516.115 274.69 518.677 274.69C520.735 274.69 522.499 275.061 523.969 275.803C525.453 276.531 526.517 277.637 527.161 279.121C527.483 279.821 527.686 280.584 527.77 281.41C527.854 282.222 527.896 283.076 527.896 283.972V298H524.578V292.561L525.355 293.065C524.501 294.899 523.304 296.285 521.764 297.223C520.238 298.161 518.376 298.63 516.178 298.63ZM516.745 295.501C518.089 295.501 519.251 295.263 520.231 294.787C521.225 294.297 522.023 293.66 522.625 292.876C523.227 292.078 523.619 291.21 523.801 290.272C524.011 289.572 524.123 288.795 524.137 287.941C524.165 287.073 524.179 286.408 524.179 285.946L525.481 286.513C524.263 286.681 523.066 286.842 521.89 286.996C520.714 287.15 519.601 287.318 518.551 287.5C517.501 287.668 516.556 287.871 515.716 288.109C515.1 288.305 514.519 288.557 513.973 288.865C513.441 289.173 513.007 289.572 512.671 290.062C512.349 290.538 512.188 291.133 512.188 291.847C512.188 292.463 512.342 293.051 512.65 293.611C512.972 294.171 513.462 294.626 514.12 294.976C514.792 295.326 515.667 295.501 516.745 295.501ZM544.612 298.63C542.484 298.63 540.692 298.105 539.236 297.055C537.78 295.991 536.674 294.556 535.918 292.75C535.176 290.93 534.805 288.893 534.805 286.639C534.805 284.357 535.176 282.313 535.918 280.507C536.674 278.701 537.78 277.28 539.236 276.244C540.706 275.208 542.505 274.69 544.633 274.69C546.733 274.69 548.539 275.215 550.051 276.265C551.577 277.301 552.746 278.722 553.558 280.528C554.37 282.334 554.776 284.371 554.776 286.639C554.776 288.907 554.37 290.944 553.558 292.75C552.746 294.556 551.577 295.991 550.051 297.055C548.539 298.105 546.726 298.63 544.612 298.63ZM534.175 298V267.76H537.934V281.305H537.514V298H534.175ZM544.15 295.207C545.648 295.207 546.887 294.829 547.867 294.073C548.847 293.317 549.582 292.295 550.072 291.007C550.562 289.705 550.807 288.249 550.807 286.639C550.807 285.043 550.562 283.601 550.072 282.313C549.596 281.025 548.854 280.003 547.846 279.247C546.852 278.491 545.585 278.113 544.045 278.113C542.575 278.113 541.357 278.477 540.391 279.205C539.425 279.919 538.704 280.92 538.228 282.208C537.752 283.482 537.514 284.959 537.514 286.639C537.514 288.291 537.745 289.768 538.207 291.07C538.683 292.358 539.411 293.373 540.391 294.115C541.371 294.843 542.624 295.207 544.15 295.207ZM560.639 298V267.13H564.377V298H560.639ZM581.346 298.63C579.12 298.63 577.174 298.14 575.508 297.16C573.856 296.166 572.568 294.787 571.644 293.023C570.72 291.245 570.258 289.173 570.258 286.807C570.258 284.329 570.713 282.187 571.623 280.381C572.533 278.561 573.8 277.161 575.424 276.181C577.062 275.187 578.98 274.69 581.178 274.69C583.46 274.69 585.399 275.215 586.995 276.265C588.605 277.315 589.809 278.813 590.607 280.759C591.419 282.705 591.769 285.022 591.657 287.71H587.877V286.366C587.835 283.58 587.268 281.501 586.176 280.129C585.084 278.743 583.46 278.05 581.304 278.05C578.994 278.05 577.237 278.792 576.033 280.276C574.829 281.76 574.227 283.888 574.227 286.66C574.227 289.334 574.829 291.406 576.033 292.876C577.237 294.346 578.952 295.081 581.178 295.081C582.676 295.081 583.978 294.738 585.084 294.052C586.19 293.366 587.058 292.379 587.688 291.091L591.279 292.33C590.397 294.332 589.067 295.886 587.289 296.992C585.525 298.084 583.544 298.63 581.346 298.63ZM572.967 287.71V284.707H589.725V287.71H572.967ZM605.741 298.609C603.039 298.609 600.82 298.021 599.084 296.845C597.362 295.655 596.305 293.996 595.913 291.868L599.735 291.259C600.043 292.491 600.75 293.471 601.856 294.199C602.962 294.913 604.334 295.27 605.972 295.27C607.526 295.27 608.744 294.948 609.626 294.304C610.508 293.66 610.949 292.785 610.949 291.679C610.949 291.035 610.802 290.517 610.508 290.125C610.214 289.719 609.605 289.341 608.681 288.991C607.771 288.641 606.392 288.221 604.544 287.731C602.542 287.199 600.967 286.646 599.819 286.072C598.671 285.498 597.852 284.833 597.362 284.077C596.872 283.321 596.627 282.404 596.627 281.326C596.627 279.996 596.991 278.834 597.719 277.84C598.447 276.832 599.462 276.055 600.764 275.509C602.08 274.963 603.606 274.69 605.342 274.69C607.064 274.69 608.604 274.963 609.962 275.509C611.32 276.055 612.412 276.832 613.238 277.84C614.078 278.834 614.575 279.996 614.729 281.326L610.907 282.019C610.725 280.801 610.137 279.842 609.143 279.142C608.163 278.442 606.896 278.071 605.342 278.029C603.872 277.973 602.675 278.232 601.751 278.806C600.841 279.38 600.386 280.157 600.386 281.137C600.386 281.683 600.554 282.152 600.89 282.544C601.24 282.936 601.877 283.307 602.801 283.657C603.739 284.007 605.097 284.406 606.875 284.854C608.877 285.358 610.452 285.911 611.6 286.513C612.762 287.101 613.588 287.801 614.078 288.613C614.568 289.411 614.813 290.398 614.813 291.574C614.813 293.758 614.008 295.48 612.398 296.74C610.788 297.986 608.569 298.609 605.741 298.609ZM96.3837 357.588C94.8857 357.588 93.4927 357.315 92.2047 356.769C90.9167 356.209 89.8037 355.425 88.8657 354.417C87.9417 353.395 87.2627 352.184 86.8287 350.784L90.4197 349.755C90.8817 351.155 91.6517 352.219 92.7297 352.947C93.8077 353.675 95.0187 354.032 96.3627 354.018C97.5947 353.99 98.6587 353.71 99.5547 353.178C100.465 352.632 101.165 351.89 101.655 350.952C102.159 350.014 102.411 348.929 102.411 347.697C102.411 345.821 101.851 344.302 100.731 343.14C99.6107 341.964 98.1407 341.376 96.3207 341.376C95.8167 341.376 95.2847 341.446 94.7247 341.586C94.1787 341.726 93.6677 341.922 93.1917 342.174L91.3857 339.213L102.6 329.07L103.083 330.33H88.0257V326.76H105.855V330.351L96.2997 339.507L96.2577 338.184C98.2597 338.044 100.01 338.373 101.508 339.171C103.006 339.969 104.168 341.11 104.994 342.594C105.834 344.078 106.254 345.779 106.254 347.697C106.254 349.629 105.82 351.337 104.952 352.821C104.084 354.305 102.908 355.474 101.424 356.328C99.9397 357.168 98.2597 357.588 96.3837 357.588ZM113.588 357V352.884H117.704V357H113.588ZM140.399 357V333.081C140.399 332.493 140.427 331.898 140.483 331.296C140.539 330.68 140.665 330.085 140.861 329.511C141.057 328.923 141.379 328.384 141.827 327.894C142.345 327.32 142.912 326.914 143.528 326.676C144.144 326.424 144.767 326.27 145.397 326.214C146.041 326.158 146.65 326.13 147.224 326.13H150.101V329.238H147.434C146.328 329.238 145.502 329.511 144.956 330.057C144.41 330.589 144.137 331.401 144.137 332.493V357H140.399ZM136.556 337.407V334.32H150.101V337.407H136.556ZM160.124 357.63C158.43 357.63 157.009 357.322 155.861 356.706C154.727 356.076 153.866 355.25 153.278 354.228C152.704 353.206 152.417 352.086 152.417 350.868C152.417 349.678 152.641 348.649 153.089 347.781C153.551 346.899 154.195 346.171 155.021 345.597C155.847 345.009 156.834 344.547 157.982 344.211C159.06 343.917 160.264 343.665 161.594 343.455C162.938 343.231 164.296 343.028 165.668 342.846C167.04 342.664 168.321 342.489 169.511 342.321L168.167 343.098C168.209 341.082 167.803 339.591 166.949 338.625C166.109 337.659 164.653 337.176 162.581 337.176C161.209 337.176 160.005 337.491 158.969 338.121C157.947 338.737 157.226 339.745 156.806 341.145L153.257 340.074C153.803 338.086 154.86 336.525 156.428 335.391C157.996 334.257 160.061 333.69 162.623 333.69C164.681 333.69 166.445 334.061 167.915 334.803C169.399 335.531 170.463 336.637 171.107 338.121C171.429 338.821 171.632 339.584 171.716 340.41C171.8 341.222 171.842 342.076 171.842 342.972V357H168.524V351.561L169.301 352.065C168.447 353.899 167.25 355.285 165.71 356.223C164.184 357.161 162.322 357.63 160.124 357.63ZM160.691 354.501C162.035 354.501 163.197 354.263 164.177 353.787C165.171 353.297 165.969 352.66 166.571 351.876C167.173 351.078 167.565 350.21 167.747 349.272C167.957 348.572 168.069 347.795 168.083 346.941C168.111 346.073 168.125 345.408 168.125 344.946L169.427 345.513C168.209 345.681 167.012 345.842 165.836 345.996C164.66 346.15 163.547 346.318 162.497 346.5C161.447 346.668 160.502 346.871 159.662 347.109C159.046 347.305 158.465 347.557 157.919 347.865C157.387 348.173 156.953 348.572 156.617 349.062C156.295 349.538 156.134 350.133 156.134 350.847C156.134 351.463 156.288 352.051 156.596 352.611C156.918 353.171 157.408 353.626 158.066 353.976C158.738 354.326 159.613 354.501 160.691 354.501ZM205.253 357L205.274 342.489C205.274 340.795 204.819 339.472 203.909 338.52C203.013 337.554 201.844 337.071 200.402 337.071C199.562 337.071 198.764 337.267 198.008 337.659C197.252 338.037 196.636 338.639 196.16 339.465C195.684 340.277 195.446 341.32 195.446 342.594L193.472 341.796C193.444 340.186 193.773 338.779 194.459 337.575C195.159 336.357 196.111 335.412 197.315 334.74C198.519 334.068 199.877 333.732 201.389 333.732C203.755 333.732 205.617 334.453 206.975 335.895C208.333 337.323 209.012 339.248 209.012 341.67L208.991 357H205.253ZM178.121 357V334.32H181.46V340.389H181.88V357H178.121ZM191.708 357L191.729 342.636C191.729 340.9 191.281 339.542 190.385 338.562C189.489 337.568 188.299 337.071 186.815 337.071C185.345 337.071 184.155 337.575 183.245 338.583C182.335 339.591 181.88 340.928 181.88 342.594L179.906 341.418C179.906 339.948 180.256 338.632 180.956 337.47C181.656 336.308 182.608 335.398 183.812 334.74C185.016 334.068 186.381 333.732 187.907 333.732C189.433 333.732 190.763 334.054 191.897 334.698C193.031 335.342 193.906 336.266 194.522 337.47C195.138 338.66 195.446 340.081 195.446 341.733L195.425 357H191.708ZM224.777 357.63C222.523 357.63 220.577 357.119 218.939 356.097C217.315 355.075 216.062 353.661 215.18 351.855C214.298 350.049 213.857 347.977 213.857 345.639C213.857 343.259 214.305 341.173 215.201 339.381C216.097 337.589 217.364 336.196 219.002 335.202C220.64 334.194 222.565 333.69 224.777 333.69C227.045 333.69 228.998 334.201 230.636 335.223C232.274 336.231 233.527 337.638 234.395 339.444C235.277 341.236 235.718 343.301 235.718 345.639C235.718 348.005 235.277 350.091 234.395 351.897C233.513 353.689 232.253 355.096 230.615 356.118C228.977 357.126 227.031 357.63 224.777 357.63ZM224.777 354.081C227.129 354.081 228.879 353.297 230.027 351.729C231.175 350.161 231.749 348.131 231.749 345.639C231.749 343.077 231.168 341.04 230.006 339.528C228.844 338.002 227.101 337.239 224.777 337.239C223.195 337.239 221.893 337.596 220.871 338.31C219.849 339.024 219.086 340.011 218.582 341.271C218.078 342.531 217.826 343.987 217.826 345.639C217.826 348.187 218.414 350.231 219.59 351.771C220.766 353.311 222.495 354.081 224.777 354.081ZM249.792 357.588C248.336 357.588 247.083 357.357 246.033 356.895C244.997 356.433 244.136 355.817 243.45 355.047C242.764 354.277 242.225 353.423 241.833 352.485C241.441 351.547 241.161 350.588 240.993 349.608C240.839 348.628 240.762 347.711 240.762 346.857V334.32H244.542V345.681C244.542 346.745 244.64 347.774 244.836 348.768C245.032 349.762 245.361 350.658 245.823 351.456C246.299 352.254 246.929 352.884 247.713 353.346C248.511 353.808 249.505 354.039 250.695 354.039C251.633 354.039 252.487 353.878 253.257 353.556C254.027 353.234 254.685 352.758 255.231 352.128C255.777 351.484 256.197 350.672 256.491 349.692C256.785 348.712 256.932 347.571 256.932 346.269L259.389 347.025C259.389 349.209 258.99 351.092 258.192 352.674C257.408 354.256 256.295 355.474 254.853 356.328C253.425 357.168 251.738 357.588 249.792 357.588ZM257.352 357V350.931H256.932V334.32H260.691V357H257.352ZM275.978 357.609C273.276 357.609 271.057 357.021 269.321 355.845C267.599 354.655 266.542 352.996 266.15 350.868L269.972 350.259C270.28 351.491 270.987 352.471 272.093 353.199C273.199 353.913 274.571 354.27 276.209 354.27C277.763 354.27 278.981 353.948 279.863 353.304C280.745 352.66 281.186 351.785 281.186 350.679C281.186 350.035 281.039 349.517 280.745 349.125C280.451 348.719 279.842 348.341 278.918 347.991C278.008 347.641 276.629 347.221 274.781 346.731C272.779 346.199 271.204 345.646 270.056 345.072C268.908 344.498 268.089 343.833 267.599 343.077C267.109 342.321 266.864 341.404 266.864 340.326C266.864 338.996 267.228 337.834 267.956 336.84C268.684 335.832 269.699 335.055 271.001 334.509C272.317 333.963 273.843 333.69 275.579 333.69C277.301 333.69 278.841 333.963 280.199 334.509C281.557 335.055 282.649 335.832 283.475 336.84C284.315 337.834 284.812 338.996 284.966 340.326L281.144 341.019C280.962 339.801 280.374 338.842 279.38 338.142C278.4 337.442 277.133 337.071 275.579 337.029C274.109 336.973 272.912 337.232 271.988 337.806C271.078 338.38 270.623 339.157 270.623 340.137C270.623 340.683 270.791 341.152 271.127 341.544C271.477 341.936 272.114 342.307 273.038 342.657C273.976 343.007 275.334 343.406 277.112 343.854C279.114 344.358 280.689 344.911 281.837 345.513C282.999 346.101 283.825 346.801 284.315 347.613C284.805 348.411 285.05 349.398 285.05 350.574C285.05 352.758 284.245 354.48 282.635 355.74C281.025 356.986 278.806 357.609 275.978 357.609ZM306.217 357.63C304.523 357.63 303.102 357.322 301.954 356.706C300.82 356.076 299.959 355.25 299.371 354.228C298.797 353.206 298.51 352.086 298.51 350.868C298.51 349.678 298.734 348.649 299.182 347.781C299.644 346.899 300.288 346.171 301.114 345.597C301.94 345.009 302.927 344.547 304.075 344.211C305.153 343.917 306.357 343.665 307.687 343.455C309.031 343.231 310.389 343.028 311.761 342.846C313.133 342.664 314.414 342.489 315.604 342.321L314.26 343.098C314.302 341.082 313.896 339.591 313.042 338.625C312.202 337.659 310.746 337.176 308.674 337.176C307.302 337.176 306.098 337.491 305.062 338.121C304.04 338.737 303.319 339.745 302.899 341.145L299.35 340.074C299.896 338.086 300.953 336.525 302.521 335.391C304.089 334.257 306.154 333.69 308.716 333.69C310.774 333.69 312.538 334.061 314.008 334.803C315.492 335.531 316.556 336.637 317.2 338.121C317.522 338.821 317.725 339.584 317.809 340.41C317.893 341.222 317.935 342.076 317.935 342.972V357H314.617V351.561L315.394 352.065C314.54 353.899 313.343 355.285 311.803 356.223C310.277 357.161 308.415 357.63 306.217 357.63ZM306.784 354.501C308.128 354.501 309.29 354.263 310.27 353.787C311.264 353.297 312.062 352.66 312.664 351.876C313.266 351.078 313.658 350.21 313.84 349.272C314.05 348.572 314.162 347.795 314.176 346.941C314.204 346.073 314.218 345.408 314.218 344.946L315.52 345.513C314.302 345.681 313.105 345.842 311.929 345.996C310.753 346.15 309.64 346.318 308.59 346.5C307.54 346.668 306.595 346.871 305.755 347.109C305.139 347.305 304.558 347.557 304.012 347.865C303.48 348.173 303.046 348.572 302.71 349.062C302.388 349.538 302.227 350.133 302.227 350.847C302.227 351.463 302.381 352.051 302.689 352.611C303.011 353.171 303.501 353.626 304.159 353.976C304.831 354.326 305.706 354.501 306.784 354.501ZM351.346 357L351.367 342.489C351.367 340.795 350.912 339.472 350.002 338.52C349.106 337.554 347.937 337.071 346.495 337.071C345.655 337.071 344.857 337.267 344.101 337.659C343.345 338.037 342.729 338.639 342.253 339.465C341.777 340.277 341.539 341.32 341.539 342.594L339.565 341.796C339.537 340.186 339.866 338.779 340.552 337.575C341.252 336.357 342.204 335.412 343.408 334.74C344.612 334.068 345.97 333.732 347.482 333.732C349.848 333.732 351.71 334.453 353.068 335.895C354.426 337.323 355.105 339.248 355.105 341.67L355.084 357H351.346ZM324.214 357V334.32H327.553V340.389H327.973V357H324.214ZM337.801 357L337.822 342.636C337.822 340.9 337.374 339.542 336.478 338.562C335.582 337.568 334.392 337.071 332.908 337.071C331.438 337.071 330.248 337.575 329.338 338.583C328.428 339.591 327.973 340.928 327.973 342.594L325.999 341.418C325.999 339.948 326.349 338.632 327.049 337.47C327.749 336.308 328.701 335.398 329.905 334.74C331.109 334.068 332.474 333.732 334 333.732C335.526 333.732 336.856 334.054 337.99 334.698C339.124 335.342 339.999 336.266 340.615 337.47C341.231 338.66 341.539 340.081 341.539 341.733L341.518 357H337.801ZM370.87 357.63C368.616 357.63 366.67 357.119 365.032 356.097C363.408 355.075 362.155 353.661 361.273 351.855C360.391 350.049 359.95 347.977 359.95 345.639C359.95 343.259 360.398 341.173 361.294 339.381C362.19 337.589 363.457 336.196 365.095 335.202C366.733 334.194 368.658 333.69 370.87 333.69C373.138 333.69 375.091 334.201 376.729 335.223C378.367 336.231 379.62 337.638 380.488 339.444C381.37 341.236 381.811 343.301 381.811 345.639C381.811 348.005 381.37 350.091 380.488 351.897C379.606 353.689 378.346 355.096 376.708 356.118C375.07 357.126 373.124 357.63 370.87 357.63ZM370.87 354.081C373.222 354.081 374.972 353.297 376.12 351.729C377.268 350.161 377.842 348.131 377.842 345.639C377.842 343.077 377.261 341.04 376.099 339.528C374.937 338.002 373.194 337.239 370.87 337.239C369.288 337.239 367.986 337.596 366.964 338.31C365.942 339.024 365.179 340.011 364.675 341.271C364.171 342.531 363.919 343.987 363.919 345.639C363.919 348.187 364.507 350.231 365.683 351.771C366.859 353.311 368.588 354.081 370.87 354.081ZM403.423 357V345.639C403.423 344.561 403.325 343.525 403.129 342.531C402.947 341.537 402.618 340.648 402.142 339.864C401.68 339.066 401.05 338.436 400.252 337.974C399.468 337.512 398.474 337.281 397.27 337.281C396.332 337.281 395.478 337.442 394.708 337.764C393.952 338.072 393.301 338.548 392.755 339.192C392.209 339.836 391.782 340.648 391.474 341.628C391.18 342.594 391.033 343.735 391.033 345.051L388.576 344.295C388.576 342.097 388.968 340.214 389.752 338.646C390.55 337.064 391.663 335.853 393.091 335.013C394.533 334.159 396.227 333.732 398.173 333.732C399.643 333.732 400.896 333.963 401.932 334.425C402.968 334.887 403.829 335.503 404.515 336.273C405.201 337.029 405.74 337.883 406.132 338.835C406.524 339.773 406.797 340.732 406.951 341.712C407.119 342.678 407.203 343.595 407.203 344.463V357H403.423ZM387.253 357V334.32H390.613V340.389H391.033V357H387.253ZM422.68 367.71C421.49 367.71 420.328 367.528 419.194 367.164C418.06 366.8 417.017 366.247 416.065 365.505C415.127 364.777 414.343 363.853 413.713 362.733L417.136 360.927C417.696 362.033 418.487 362.838 419.509 363.342C420.545 363.846 421.609 364.098 422.701 364.098C424.143 364.098 425.34 363.832 426.292 363.3C427.244 362.782 427.944 362.005 428.392 360.969C428.854 359.933 429.078 358.645 429.064 357.105V350.91H429.505V334.32H432.823V357.147C432.823 357.763 432.802 358.358 432.76 358.932C432.732 359.506 432.662 360.073 432.55 360.633C432.256 362.243 431.675 363.566 430.807 364.602C429.939 365.652 428.819 366.429 427.447 366.933C426.075 367.451 424.486 367.71 422.68 367.71ZM422.407 357.63C420.293 357.63 418.48 357.105 416.968 356.055C415.456 354.991 414.287 353.556 413.461 351.75C412.649 349.944 412.243 347.907 412.243 345.639C412.243 343.371 412.649 341.334 413.461 339.528C414.287 337.722 415.456 336.301 416.968 335.265C418.48 334.215 420.286 333.69 422.386 333.69C424.528 333.69 426.327 334.208 427.783 335.244C429.239 336.28 430.338 337.701 431.08 339.507C431.836 341.313 432.214 343.357 432.214 345.639C432.214 347.893 431.836 349.93 431.08 351.75C430.338 353.556 429.239 354.991 427.783 356.055C426.327 357.105 424.535 357.63 422.407 357.63ZM422.869 354.207C424.395 354.207 425.648 353.843 426.628 353.115C427.608 352.373 428.329 351.358 428.791 350.07C429.267 348.768 429.505 347.291 429.505 345.639C429.505 343.959 429.267 342.482 428.791 341.208C428.329 339.92 427.615 338.919 426.649 338.205C425.683 337.477 424.458 337.113 422.974 337.113C421.434 337.113 420.16 337.491 419.152 338.247C418.158 339.003 417.416 340.025 416.926 341.313C416.45 342.601 416.212 344.043 416.212 345.639C416.212 347.249 416.457 348.705 416.947 350.007C417.437 351.295 418.172 352.317 419.152 353.073C420.146 353.829 421.385 354.207 422.869 354.207ZM461.438 357C460.094 357.266 458.764 357.371 457.448 357.315C456.146 357.273 454.984 357.014 453.962 356.538C452.94 356.048 452.163 355.292 451.631 354.27C451.183 353.374 450.938 352.471 450.896 351.561C450.868 350.637 450.854 349.594 450.854 348.432V328.02H454.592V348.264C454.592 349.188 454.599 349.979 454.613 350.637C454.641 351.295 454.788 351.862 455.054 352.338C455.558 353.234 456.356 353.759 457.448 353.913C458.554 354.067 459.884 354.025 461.438 353.787V357ZM446.255 337.407V334.32H461.438V337.407H446.255ZM475.767 357.63C473.541 357.63 471.595 357.14 469.929 356.16C468.277 355.166 466.989 353.787 466.065 352.023C465.141 350.245 464.679 348.173 464.679 345.807C464.679 343.329 465.134 341.187 466.044 339.381C466.954 337.561 468.221 336.161 469.845 335.181C471.483 334.187 473.401 333.69 475.599 333.69C477.881 333.69 479.82 334.215 481.416 335.265C483.026 336.315 484.23 337.813 485.028 339.759C485.84 341.705 486.19 344.022 486.078 346.71H482.298V345.366C482.256 342.58 481.689 340.501 480.597 339.129C479.505 337.743 477.881 337.05 475.725 337.05C473.415 337.05 471.658 337.792 470.454 339.276C469.25 340.76 468.648 342.888 468.648 345.66C468.648 348.334 469.25 350.406 470.454 351.876C471.658 353.346 473.373 354.081 475.599 354.081C477.097 354.081 478.399 353.738 479.505 353.052C480.611 352.366 481.479 351.379 482.109 350.091L485.7 351.33C484.818 353.332 483.488 354.886 481.71 355.992C479.946 357.084 477.965 357.63 475.767 357.63ZM467.388 346.71V343.707H484.146V346.71H467.388ZM501.422 357.63C499.196 357.63 497.25 357.14 495.584 356.16C493.932 355.166 492.644 353.787 491.72 352.023C490.796 350.245 490.334 348.173 490.334 345.807C490.334 343.329 490.789 341.187 491.699 339.381C492.609 337.561 493.876 336.161 495.5 335.181C497.138 334.187 499.056 333.69 501.254 333.69C503.536 333.69 505.475 334.215 507.071 335.265C508.681 336.315 509.885 337.813 510.683 339.759C511.495 341.705 511.845 344.022 511.733 346.71H507.953V345.366C507.911 342.58 507.344 340.501 506.252 339.129C505.16 337.743 503.536 337.05 501.38 337.05C499.07 337.05 497.313 337.792 496.109 339.276C494.905 340.76 494.303 342.888 494.303 345.66C494.303 348.334 494.905 350.406 496.109 351.876C497.313 353.346 499.028 354.081 501.254 354.081C502.752 354.081 504.054 353.738 505.16 353.052C506.266 352.366 507.134 351.379 507.764 350.091L511.355 351.33C510.473 353.332 509.143 354.886 507.365 355.992C505.601 357.084 503.62 357.63 501.422 357.63ZM493.043 346.71V343.707H509.801V346.71H493.043ZM532.782 357V345.639C532.782 344.561 532.684 343.525 532.488 342.531C532.306 341.537 531.977 340.648 531.501 339.864C531.039 339.066 530.409 338.436 529.611 337.974C528.827 337.512 527.833 337.281 526.629 337.281C525.691 337.281 524.837 337.442 524.067 337.764C523.311 338.072 522.66 338.548 522.114 339.192C521.568 339.836 521.141 340.648 520.833 341.628C520.539 342.594 520.392 343.735 520.392 345.051L517.935 344.295C517.935 342.097 518.327 340.214 519.111 338.646C519.909 337.064 521.022 335.853 522.45 335.013C523.892 334.159 525.586 333.732 527.532 333.732C529.002 333.732 530.255 333.963 531.291 334.425C532.327 334.887 533.188 335.503 533.874 336.273C534.56 337.029 535.099 337.883 535.491 338.835C535.883 339.773 536.156 340.732 536.31 341.712C536.478 342.678 536.562 343.595 536.562 344.463V357H532.782ZM516.612 357V334.32H519.972V340.389H520.392V357H516.612ZM551.43 357.609C548.728 357.609 546.509 357.021 544.773 355.845C543.051 354.655 541.994 352.996 541.602 350.868L545.424 350.259C545.732 351.491 546.439 352.471 547.545 353.199C548.651 353.913 550.023 354.27 551.661 354.27C553.215 354.27 554.433 353.948 555.315 353.304C556.197 352.66 556.638 351.785 556.638 350.679C556.638 350.035 556.491 349.517 556.197 349.125C555.903 348.719 555.294 348.341 554.37 347.991C553.46 347.641 552.081 347.221 550.233 346.731C548.231 346.199 546.656 345.646 545.508 345.072C544.36 344.498 543.541 343.833 543.051 343.077C542.561 342.321 542.316 341.404 542.316 340.326C542.316 338.996 542.68 337.834 543.408 336.84C544.136 335.832 545.151 335.055 546.453 334.509C547.769 333.963 549.295 333.69 551.031 333.69C552.753 333.69 554.293 333.963 555.651 334.509C557.009 335.055 558.101 335.832 558.927 336.84C559.767 337.834 560.264 338.996 560.418 340.326L556.596 341.019C556.414 339.801 555.826 338.842 554.832 338.142C553.852 337.442 552.585 337.071 551.031 337.029C549.561 336.973 548.364 337.232 547.44 337.806C546.53 338.38 546.075 339.157 546.075 340.137C546.075 340.683 546.243 341.152 546.579 341.544C546.929 341.936 547.566 342.307 548.49 342.657C549.428 343.007 550.786 343.406 552.564 343.854C554.566 344.358 556.141 344.911 557.289 345.513C558.451 346.101 559.277 346.801 559.767 347.613C560.257 348.411 560.502 349.398 560.502 350.574C560.502 352.758 559.697 354.48 558.087 355.74C556.477 356.986 554.258 357.609 551.43 357.609ZM582.865 326.76H586.666L578.602 357H574.801L582.865 326.76ZM608.655 357.63C606.961 357.63 605.54 357.322 604.392 356.706C603.258 356.076 602.397 355.25 601.809 354.228C601.235 353.206 600.948 352.086 600.948 350.868C600.948 349.678 601.172 348.649 601.62 347.781C602.082 346.899 602.726 346.171 603.552 345.597C604.378 345.009 605.365 344.547 606.513 344.211C607.591 343.917 608.795 343.665 610.125 343.455C611.469 343.231 612.827 343.028 614.199 342.846C615.571 342.664 616.852 342.489 618.042 342.321L616.698 343.098C616.74 341.082 616.334 339.591 615.48 338.625C614.64 337.659 613.184 337.176 611.112 337.176C609.74 337.176 608.536 337.491 607.5 338.121C606.478 338.737 605.757 339.745 605.337 341.145L601.788 340.074C602.334 338.086 603.391 336.525 604.959 335.391C606.527 334.257 608.592 333.69 611.154 333.69C613.212 333.69 614.976 334.061 616.446 334.803C617.93 335.531 618.994 336.637 619.638 338.121C619.96 338.821 620.163 339.584 620.247 340.41C620.331 341.222 620.373 342.076 620.373 342.972V357H617.055V351.561L617.832 352.065C616.978 353.899 615.781 355.285 614.241 356.223C612.715 357.161 610.853 357.63 608.655 357.63ZM609.222 354.501C610.566 354.501 611.728 354.263 612.708 353.787C613.702 353.297 614.5 352.66 615.102 351.876C615.704 351.078 616.096 350.21 616.278 349.272C616.488 348.572 616.6 347.795 616.614 346.941C616.642 346.073 616.656 345.408 616.656 344.946L617.958 345.513C616.74 345.681 615.543 345.842 614.367 345.996C613.191 346.15 612.078 346.318 611.028 346.5C609.978 346.668 609.033 346.871 608.193 347.109C607.577 347.305 606.996 347.557 606.45 347.865C605.918 348.173 605.484 348.572 605.148 349.062C604.826 349.538 604.665 350.133 604.665 350.847C604.665 351.463 604.819 352.051 605.127 352.611C605.449 353.171 605.939 353.626 606.597 353.976C607.269 354.326 608.144 354.501 609.222 354.501ZM635.577 357.63C633.463 357.63 631.65 357.105 630.138 356.055C628.626 354.991 627.457 353.556 626.631 351.75C625.819 349.944 625.413 347.907 625.413 345.639C625.413 343.371 625.819 341.334 626.631 339.528C627.457 337.722 628.626 336.301 630.138 335.265C631.65 334.215 633.456 333.69 635.556 333.69C637.698 333.69 639.497 334.208 640.953 335.244C642.409 336.28 643.508 337.701 644.25 339.507C645.006 341.313 645.384 343.357 645.384 345.639C645.384 347.893 645.006 349.93 644.25 351.75C643.508 353.556 642.409 354.991 640.953 356.055C639.497 357.105 637.705 357.63 635.577 357.63ZM636.039 354.207C637.565 354.207 638.818 353.843 639.798 353.115C640.778 352.373 641.499 351.358 641.961 350.07C642.437 348.768 642.675 347.291 642.675 345.639C642.675 343.959 642.437 342.482 641.961 341.208C641.499 339.92 640.785 338.919 639.819 338.205C638.853 337.477 637.628 337.113 636.144 337.113C634.604 337.113 633.33 337.491 632.322 338.247C631.328 339.003 630.586 340.025 630.096 341.313C629.62 342.601 629.382 344.043 629.382 345.639C629.382 347.249 629.627 348.705 630.117 350.007C630.607 351.295 631.342 352.317 632.322 353.073C633.316 353.829 634.555 354.207 636.039 354.207ZM642.675 357V340.305H642.255V326.76H646.014V357H642.675ZM661.347 357.588C659.891 357.588 658.638 357.357 657.588 356.895C656.552 356.433 655.691 355.817 655.005 355.047C654.319 354.277 653.78 353.423 653.388 352.485C652.996 351.547 652.716 350.588 652.548 349.608C652.394 348.628 652.317 347.711 652.317 346.857V334.32H656.097V345.681C656.097 346.745 656.195 347.774 656.391 348.768C656.587 349.762 656.916 350.658 657.378 351.456C657.854 352.254 658.484 352.884 659.268 353.346C660.066 353.808 661.06 354.039 662.25 354.039C663.188 354.039 664.042 353.878 664.812 353.556C665.582 353.234 666.24 352.758 666.786 352.128C667.332 351.484 667.752 350.672 668.046 349.692C668.34 348.712 668.487 347.571 668.487 346.269L670.944 347.025C670.944 349.209 670.545 351.092 669.747 352.674C668.963 354.256 667.85 355.474 666.408 356.328C664.98 357.168 663.293 357.588 661.347 357.588ZM668.907 357V350.931H668.487V334.32H672.246V357H668.907ZM679.386 357V326.13H683.124V357H679.386ZM702.928 357C701.584 357.266 700.254 357.371 698.938 357.315C697.636 357.273 696.474 357.014 695.452 356.538C694.43 356.048 693.653 355.292 693.121 354.27C692.673 353.374 692.428 352.471 692.386 351.561C692.358 350.637 692.344 349.594 692.344 348.432V328.02H696.082V348.264C696.082 349.188 696.089 349.979 696.103 350.637C696.131 351.295 696.278 351.862 696.544 352.338C697.048 353.234 697.846 353.759 698.938 353.913C700.044 354.067 701.374 354.025 702.928 353.787V357ZM687.745 337.407V334.32H702.928V337.407H687.745ZM716.941 357.609C714.239 357.609 712.02 357.021 710.284 355.845C708.562 354.655 707.505 352.996 707.113 350.868L710.935 350.259C711.243 351.491 711.95 352.471 713.056 353.199C714.162 353.913 715.534 354.27 717.172 354.27C718.726 354.27 719.944 353.948 720.826 353.304C721.708 352.66 722.149 351.785 722.149 350.679C722.149 350.035 722.002 349.517 721.708 349.125C721.414 348.719 720.805 348.341 719.881 347.991C718.971 347.641 717.592 347.221 715.744 346.731C713.742 346.199 712.167 345.646 711.019 345.072C709.871 344.498 709.052 343.833 708.562 343.077C708.072 342.321 707.827 341.404 707.827 340.326C707.827 338.996 708.191 337.834 708.919 336.84C709.647 335.832 710.662 335.055 711.964 334.509C713.28 333.963 714.806 333.69 716.542 333.69C718.264 333.69 719.804 333.963 721.162 334.509C722.52 335.055 723.612 335.832 724.438 336.84C725.278 337.834 725.775 338.996 725.929 340.326L722.107 341.019C721.925 339.801 721.337 338.842 720.343 338.142C719.363 337.442 718.096 337.071 716.542 337.029C715.072 336.973 713.875 337.232 712.951 337.806C712.041 338.38 711.586 339.157 711.586 340.137C711.586 340.683 711.754 341.152 712.09 341.544C712.44 341.936 713.077 342.307 714.001 342.657C714.939 343.007 716.297 343.406 718.075 343.854C720.077 344.358 721.652 344.911 722.8 345.513C723.962 346.101 724.788 346.801 725.278 347.613C725.768 348.411 726.013 349.398 726.013 350.574C726.013 352.758 725.208 354.48 723.598 355.74C721.988 356.986 719.769 357.609 716.941 357.609Z" fill="#F4FDD3"></path></svg> 