<?xml version="1.0" encoding="UTF-8"?> <svg xmlns="http://www.w3.org/2000/svg" width="800" height="450" viewBox="0 0 800 450" fill="none"><rect width="800" height="450" rx="20" fill="#90AD26"></rect><path d="M274.727 132V98.008H261.679V91.68H294.523V98.008H281.475V132H274.727ZM300.12 132V91.68H316.78C317.172 91.68 317.676 91.6987 318.292 91.736C318.908 91.7547 319.477 91.8107 320 91.904C322.333 92.2587 324.256 93.0333 325.768 94.228C327.299 95.4227 328.428 96.9347 329.156 98.764C329.903 100.575 330.276 102.591 330.276 104.812C330.276 108.097 329.445 110.925 327.784 113.296C326.123 115.648 323.575 117.104 320.14 117.664L317.256 117.916H306.868V132H300.12ZM323.276 132L315.324 115.592L322.184 114.08L330.92 132H323.276ZM306.868 111.616H316.5C316.873 111.616 317.293 111.597 317.76 111.56C318.227 111.523 318.656 111.448 319.048 111.336C320.168 111.056 321.045 110.561 321.68 109.852C322.333 109.143 322.791 108.34 323.052 107.444C323.332 106.548 323.472 105.671 323.472 104.812C323.472 103.953 323.332 103.076 323.052 102.18C322.791 101.265 322.333 100.453 321.68 99.744C321.045 99.0347 320.168 98.54 319.048 98.26C318.656 98.148 318.227 98.0827 317.76 98.064C317.293 98.0267 316.873 98.008 316.5 98.008H306.868V111.616ZM335.409 132L348.121 91.68H358.005L370.717 132H363.773L352.237 95.824H353.749L342.353 132H335.409ZM342.493 123.264V116.964H363.661V123.264H342.493ZM377.459 132V91.68H384.207V132H377.459ZM393.714 132V91.68H400.546L419.25 120.1V91.68H426.082V132H419.25L400.546 103.58V132H393.714ZM435.03 132V91.68H461.07V98.008H441.778V107.948H457.71V114.276H441.778V125.672H461.07V132H435.03ZM468.908 132V91.68H485.568C485.96 91.68 486.464 91.6987 487.08 91.736C487.696 91.7547 488.265 91.8107 488.788 91.904C491.121 92.2587 493.044 93.0333 494.556 94.228C496.086 95.4227 497.216 96.9347 497.944 98.764C498.69 100.575 499.064 102.591 499.064 104.812C499.064 108.097 498.233 110.925 496.572 113.296C494.91 115.648 492.362 117.104 488.928 117.664L486.044 117.916H475.656V132H468.908ZM492.064 132L484.112 115.592L490.972 114.08L499.708 132H492.064ZM475.656 111.616H485.288C485.661 111.616 486.081 111.597 486.548 111.56C487.014 111.523 487.444 111.448 487.836 111.336C488.956 111.056 489.833 110.561 490.468 109.852C491.121 109.143 491.578 108.34 491.84 107.444C492.12 106.548 492.26 105.671 492.26 104.812C492.26 103.953 492.12 103.076 491.84 102.18C491.578 101.265 491.121 100.453 490.468 99.744C489.833 99.0347 488.956 98.54 487.836 98.26C487.444 98.148 487.014 98.0827 486.548 98.064C486.081 98.0267 485.661 98.008 485.288 98.008H475.656V111.616ZM521.92 132.84C518.971 132.84 516.311 132.327 513.94 131.3C511.588 130.273 509.647 128.808 508.116 126.904C506.604 124.981 505.643 122.704 505.232 120.072L512.232 119.008C512.83 121.397 514.052 123.245 515.9 124.552C517.767 125.859 519.914 126.512 522.34 126.512C523.778 126.512 525.131 126.288 526.4 125.84C527.67 125.392 528.696 124.739 529.48 123.88C530.283 123.021 530.684 121.967 530.684 120.716C530.684 120.156 530.591 119.643 530.404 119.176C530.218 118.691 529.938 118.261 529.564 117.888C529.21 117.515 528.743 117.179 528.164 116.88C527.604 116.563 526.951 116.292 526.204 116.068L515.788 112.988C514.892 112.727 513.922 112.381 512.876 111.952C511.85 111.504 510.87 110.897 509.936 110.132C509.022 109.348 508.266 108.359 507.668 107.164C507.09 105.951 506.8 104.457 506.8 102.684C506.8 100.089 507.454 97.9147 508.76 96.16C510.086 94.3867 511.859 93.0613 514.08 92.184C516.32 91.3067 518.803 90.8773 521.528 90.896C524.291 90.9147 526.755 91.3907 528.92 92.324C531.086 93.2387 532.896 94.5733 534.352 96.328C535.808 98.0827 536.835 100.201 537.432 102.684L530.18 103.944C529.882 102.525 529.303 101.321 528.444 100.332C527.604 99.324 526.568 98.5587 525.336 98.036C524.123 97.5133 522.826 97.2333 521.444 97.196C520.1 97.1773 518.85 97.3827 517.692 97.812C516.554 98.2227 515.63 98.82 514.92 99.604C514.23 100.388 513.884 101.303 513.884 102.348C513.884 103.337 514.183 104.149 514.78 104.784C515.378 105.4 516.115 105.895 516.992 106.268C517.888 106.623 518.794 106.921 519.708 107.164L526.932 109.18C527.922 109.441 529.032 109.796 530.264 110.244C531.496 110.692 532.682 111.317 533.82 112.12C534.959 112.923 535.892 113.977 536.62 115.284C537.367 116.591 537.74 118.252 537.74 120.268C537.74 122.359 537.302 124.197 536.424 125.784C535.566 127.352 534.399 128.659 532.924 129.704C531.45 130.749 529.76 131.533 527.856 132.056C525.971 132.579 523.992 132.84 521.92 132.84Z" fill="#F4FDD3"></path><path d="M190.687 239V212.897L184.996 216.341V212.162L190.687 208.76H194.488V239H190.687ZM207.723 239V234.884H211.839V239H207.723ZM241.926 239.63C239.63 239.63 237.677 239.119 236.067 238.097C234.471 237.061 233.253 235.64 232.413 233.834C231.573 232.028 231.139 229.97 231.111 227.66C231.139 225.294 231.58 223.215 232.434 221.423C233.302 219.617 234.541 218.21 236.151 217.202C237.761 216.194 239.7 215.69 241.968 215.69C244.362 215.69 246.42 216.278 248.142 217.454C249.878 218.63 251.04 220.24 251.628 222.284L247.932 223.397C247.456 222.081 246.679 221.059 245.601 220.331C244.537 219.603 243.312 219.239 241.926 219.239C240.372 219.239 239.091 219.603 238.083 220.331C237.075 221.045 236.326 222.039 235.836 223.313C235.346 224.573 235.094 226.022 235.08 227.66C235.108 230.18 235.689 232.217 236.823 233.771C237.971 235.311 239.672 236.081 241.926 236.081C243.41 236.081 244.642 235.745 245.622 235.073C246.602 234.387 247.344 233.4 247.848 232.112L251.628 233.099C250.844 235.213 249.619 236.83 247.953 237.95C246.287 239.07 244.278 239.63 241.926 239.63ZM265.799 239.63C263.545 239.63 261.599 239.119 259.961 238.097C258.337 237.075 257.084 235.661 256.202 233.855C255.32 232.049 254.879 229.977 254.879 227.639C254.879 225.259 255.327 223.173 256.223 221.381C257.119 219.589 258.386 218.196 260.024 217.202C261.662 216.194 263.587 215.69 265.799 215.69C268.067 215.69 270.02 216.201 271.658 217.223C273.296 218.231 274.549 219.638 275.417 221.444C276.299 223.236 276.74 225.301 276.74 227.639C276.74 230.005 276.299 232.091 275.417 233.897C274.535 235.689 273.275 237.096 271.637 238.118C269.999 239.126 268.053 239.63 265.799 239.63ZM265.799 236.081C268.151 236.081 269.901 235.297 271.049 233.729C272.197 232.161 272.771 230.131 272.771 227.639C272.771 225.077 272.19 223.04 271.028 221.528C269.866 220.002 268.123 219.239 265.799 219.239C264.217 219.239 262.915 219.596 261.893 220.31C260.871 221.024 260.108 222.011 259.604 223.271C259.1 224.531 258.848 225.987 258.848 227.639C258.848 230.187 259.436 232.231 260.612 233.771C261.788 235.311 263.517 236.081 265.799 236.081ZM309.315 239L309.336 224.489C309.336 222.795 308.881 221.472 307.971 220.52C307.075 219.554 305.906 219.071 304.464 219.071C303.624 219.071 302.826 219.267 302.07 219.659C301.314 220.037 300.698 220.639 300.222 221.465C299.746 222.277 299.508 223.32 299.508 224.594L297.534 223.796C297.506 222.186 297.835 220.779 298.521 219.575C299.221 218.357 300.173 217.412 301.377 216.74C302.581 216.068 303.939 215.732 305.451 215.732C307.817 215.732 309.679 216.453 311.037 217.895C312.395 219.323 313.074 221.248 313.074 223.67L313.053 239H309.315ZM282.183 239V216.32H285.522V222.389H285.942V239H282.183ZM295.77 239L295.791 224.636C295.791 222.9 295.343 221.542 294.447 220.562C293.551 219.568 292.361 219.071 290.877 219.071C289.407 219.071 288.217 219.575 287.307 220.583C286.397 221.591 285.942 222.928 285.942 224.594L283.968 223.418C283.968 221.948 284.318 220.632 285.018 219.47C285.718 218.308 286.67 217.398 287.874 216.74C289.078 216.068 290.443 215.732 291.969 215.732C293.495 215.732 294.825 216.054 295.959 216.698C297.093 217.342 297.968 218.266 298.584 219.47C299.2 220.66 299.508 222.081 299.508 223.733L299.487 239H295.77ZM321.546 239V215.081C321.546 214.493 321.574 213.898 321.63 213.296C321.686 212.68 321.812 212.085 322.008 211.511C322.204 210.923 322.526 210.384 322.974 209.894C323.492 209.32 324.059 208.914 324.675 208.676C325.291 208.424 325.914 208.27 326.544 208.214C327.188 208.158 327.797 208.13 328.371 208.13H331.248V211.238H328.581C327.475 211.238 326.649 211.511 326.103 212.057C325.557 212.589 325.284 213.401 325.284 214.493V239H321.546ZM317.703 219.407V216.32H331.248V219.407H317.703ZM344.28 239.63C342.026 239.63 340.08 239.119 338.442 238.097C336.818 237.075 335.565 235.661 334.683 233.855C333.801 232.049 333.36 229.977 333.36 227.639C333.36 225.259 333.808 223.173 334.704 221.381C335.6 219.589 336.867 218.196 338.505 217.202C340.143 216.194 342.068 215.69 344.28 215.69C346.548 215.69 348.501 216.201 350.139 217.223C351.777 218.231 353.03 219.638 353.898 221.444C354.78 223.236 355.221 225.301 355.221 227.639C355.221 230.005 354.78 232.091 353.898 233.897C353.016 235.689 351.756 237.096 350.118 238.118C348.48 239.126 346.534 239.63 344.28 239.63ZM344.28 236.081C346.632 236.081 348.382 235.297 349.53 233.729C350.678 232.161 351.252 230.131 351.252 227.639C351.252 225.077 350.671 223.04 349.509 221.528C348.347 220.002 346.604 219.239 344.28 219.239C342.698 219.239 341.396 219.596 340.374 220.31C339.352 221.024 338.589 222.011 338.085 223.271C337.581 224.531 337.329 225.987 337.329 227.639C337.329 230.187 337.917 232.231 339.093 233.771C340.269 235.311 341.998 236.081 344.28 236.081ZM360.684 239V216.32H364.023V221.801L363.477 221.087C363.743 220.387 364.086 219.743 364.506 219.155C364.94 218.567 365.423 218.084 365.955 217.706C366.543 217.23 367.208 216.866 367.95 216.614C368.692 216.362 369.448 216.215 370.218 216.173C370.988 216.117 371.709 216.166 372.381 216.32V219.827C371.597 219.617 370.736 219.561 369.798 219.659C368.86 219.757 367.992 220.1 367.194 220.688C366.466 221.206 365.899 221.836 365.493 222.578C365.101 223.32 364.828 224.125 364.674 224.993C364.52 225.847 364.443 226.722 364.443 227.618V239H360.684ZM389.855 239C388.511 239.266 387.181 239.371 385.865 239.315C384.563 239.273 383.401 239.014 382.379 238.538C381.357 238.048 380.58 237.292 380.048 236.27C379.6 235.374 379.355 234.471 379.313 233.561C379.285 232.637 379.271 231.594 379.271 230.432V210.02H383.009V230.264C383.009 231.188 383.016 231.979 383.03 232.637C383.058 233.295 383.205 233.862 383.471 234.338C383.975 235.234 384.773 235.759 385.865 235.913C386.971 236.067 388.301 236.025 389.855 235.787V239ZM374.672 219.407V216.32H389.855V219.407H374.672ZM401.747 239.63C400.053 239.63 398.632 239.322 397.484 238.706C396.35 238.076 395.489 237.25 394.901 236.228C394.327 235.206 394.04 234.086 394.04 232.868C394.04 231.678 394.264 230.649 394.712 229.781C395.174 228.899 395.818 228.171 396.644 227.597C397.47 227.009 398.457 226.547 399.605 226.211C400.683 225.917 401.887 225.665 403.217 225.455C404.561 225.231 405.919 225.028 407.291 224.846C408.663 224.664 409.944 224.489 411.134 224.321L409.79 225.098C409.832 223.082 409.426 221.591 408.572 220.625C407.732 219.659 406.276 219.176 404.204 219.176C402.832 219.176 401.628 219.491 400.592 220.121C399.57 220.737 398.849 221.745 398.429 223.145L394.88 222.074C395.426 220.086 396.483 218.525 398.051 217.391C399.619 216.257 401.684 215.69 404.246 215.69C406.304 215.69 408.068 216.061 409.538 216.803C411.022 217.531 412.086 218.637 412.73 220.121C413.052 220.821 413.255 221.584 413.339 222.41C413.423 223.222 413.465 224.076 413.465 224.972V239H410.147V233.561L410.924 234.065C410.07 235.899 408.873 237.285 407.333 238.223C405.807 239.161 403.945 239.63 401.747 239.63ZM402.314 236.501C403.658 236.501 404.82 236.263 405.8 235.787C406.794 235.297 407.592 234.66 408.194 233.876C408.796 233.078 409.188 232.21 409.37 231.272C409.58 230.572 409.692 229.795 409.706 228.941C409.734 228.073 409.748 227.408 409.748 226.946L411.05 227.513C409.832 227.681 408.635 227.842 407.459 227.996C406.283 228.15 405.17 228.318 404.12 228.5C403.07 228.668 402.125 228.871 401.285 229.109C400.669 229.305 400.088 229.557 399.542 229.865C399.01 230.173 398.576 230.572 398.24 231.062C397.918 231.538 397.757 232.133 397.757 232.847C397.757 233.463 397.911 234.051 398.219 234.611C398.541 235.171 399.031 235.626 399.689 235.976C400.361 236.326 401.236 236.501 402.314 236.501ZM430.181 239.63C428.053 239.63 426.261 239.105 424.805 238.055C423.349 236.991 422.243 235.556 421.487 233.75C420.745 231.93 420.374 229.893 420.374 227.639C420.374 225.357 420.745 223.313 421.487 221.507C422.243 219.701 423.349 218.28 424.805 217.244C426.275 216.208 428.074 215.69 430.202 215.69C432.302 215.69 434.108 216.215 435.62 217.265C437.146 218.301 438.315 219.722 439.127 221.528C439.939 223.334 440.345 225.371 440.345 227.639C440.345 229.907 439.939 231.944 439.127 233.75C438.315 235.556 437.146 236.991 435.62 238.055C434.108 239.105 432.295 239.63 430.181 239.63ZM419.744 239V208.76H423.503V222.305H423.083V239H419.744ZM429.719 236.207C431.217 236.207 432.456 235.829 433.436 235.073C434.416 234.317 435.151 233.295 435.641 232.007C436.131 230.705 436.376 229.249 436.376 227.639C436.376 226.043 436.131 224.601 435.641 223.313C435.165 222.025 434.423 221.003 433.415 220.247C432.421 219.491 431.154 219.113 429.614 219.113C428.144 219.113 426.926 219.477 425.96 220.205C424.994 220.919 424.273 221.92 423.797 223.208C423.321 224.482 423.083 225.959 423.083 227.639C423.083 229.291 423.314 230.768 423.776 232.07C424.252 233.358 424.98 234.373 425.96 235.115C426.94 235.843 428.193 236.207 429.719 236.207ZM446.209 239V208.13H449.947V239H446.209ZM466.916 239.63C464.69 239.63 462.744 239.14 461.078 238.16C459.426 237.166 458.138 235.787 457.214 234.023C456.29 232.245 455.828 230.173 455.828 227.807C455.828 225.329 456.283 223.187 457.193 221.381C458.103 219.561 459.37 218.161 460.994 217.181C462.632 216.187 464.55 215.69 466.748 215.69C469.03 215.69 470.969 216.215 472.565 217.265C474.175 218.315 475.379 219.813 476.177 221.759C476.989 223.705 477.339 226.022 477.227 228.71H473.447V227.366C473.405 224.58 472.838 222.501 471.746 221.129C470.654 219.743 469.03 219.05 466.874 219.05C464.564 219.05 462.807 219.792 461.603 221.276C460.399 222.76 459.797 224.888 459.797 227.66C459.797 230.334 460.399 232.406 461.603 233.876C462.807 235.346 464.522 236.081 466.748 236.081C468.246 236.081 469.548 235.738 470.654 235.052C471.76 234.366 472.628 233.379 473.258 232.091L476.849 233.33C475.967 235.332 474.637 236.886 472.859 237.992C471.095 239.084 469.114 239.63 466.916 239.63ZM458.537 228.71V225.707H475.295V228.71H458.537ZM499.634 208.76H503.435L495.371 239H491.57L499.634 208.76ZM529.393 239.63C527.265 239.63 525.473 239.105 524.017 238.055C522.561 236.991 521.455 235.556 520.699 233.75C519.957 231.93 519.586 229.893 519.586 227.639C519.586 225.357 519.957 223.313 520.699 221.507C521.455 219.701 522.561 218.28 524.017 217.244C525.487 216.208 527.286 215.69 529.414 215.69C531.514 215.69 533.32 216.215 534.832 217.265C536.358 218.301 537.527 219.722 538.339 221.528C539.151 223.334 539.557 225.371 539.557 227.639C539.557 229.907 539.151 231.944 538.339 233.75C537.527 235.556 536.358 236.991 534.832 238.055C533.32 239.105 531.507 239.63 529.393 239.63ZM518.956 239V208.76H522.715V222.305H522.295V239H518.956ZM528.931 236.207C530.429 236.207 531.668 235.829 532.648 235.073C533.628 234.317 534.363 233.295 534.853 232.007C535.343 230.705 535.588 229.249 535.588 227.639C535.588 226.043 535.343 224.601 534.853 223.313C534.377 222.025 533.635 221.003 532.627 220.247C531.633 219.491 530.366 219.113 528.826 219.113C527.356 219.113 526.138 219.477 525.172 220.205C524.206 220.919 523.485 221.92 523.009 223.208C522.533 224.482 522.295 225.959 522.295 227.639C522.295 229.291 522.526 230.768 522.988 232.07C523.464 233.358 524.192 234.373 525.172 235.115C526.152 235.843 527.405 236.207 528.931 236.207ZM554.661 239.63C552.407 239.63 550.461 239.119 548.823 238.097C547.199 237.075 545.946 235.661 545.064 233.855C544.182 232.049 543.741 229.977 543.741 227.639C543.741 225.259 544.189 223.173 545.085 221.381C545.981 219.589 547.248 218.196 548.886 217.202C550.524 216.194 552.449 215.69 554.661 215.69C556.929 215.69 558.882 216.201 560.52 217.223C562.158 218.231 563.411 219.638 564.279 221.444C565.161 223.236 565.602 225.301 565.602 227.639C565.602 230.005 565.161 232.091 564.279 233.897C563.397 235.689 562.137 237.096 560.499 238.118C558.861 239.126 556.915 239.63 554.661 239.63ZM554.661 236.081C557.013 236.081 558.763 235.297 559.911 233.729C561.059 232.161 561.633 230.131 561.633 227.639C561.633 225.077 561.052 223.04 559.89 221.528C558.728 220.002 556.985 219.239 554.661 219.239C553.079 219.239 551.777 219.596 550.755 220.31C549.733 221.024 548.97 222.011 548.466 223.271C547.962 224.531 547.71 225.987 547.71 227.639C547.71 230.187 548.298 232.231 549.474 233.771C550.65 235.311 552.379 236.081 554.661 236.081ZM580.725 239.63C578.471 239.63 576.525 239.119 574.887 238.097C573.263 237.075 572.01 235.661 571.128 233.855C570.246 232.049 569.805 229.977 569.805 227.639C569.805 225.259 570.253 223.173 571.149 221.381C572.045 219.589 573.312 218.196 574.95 217.202C576.588 216.194 578.513 215.69 580.725 215.69C582.993 215.69 584.946 216.201 586.584 217.223C588.222 218.231 589.475 219.638 590.343 221.444C591.225 223.236 591.666 225.301 591.666 227.639C591.666 230.005 591.225 232.091 590.343 233.897C589.461 235.689 588.201 237.096 586.563 238.118C584.925 239.126 582.979 239.63 580.725 239.63ZM580.725 236.081C583.077 236.081 584.827 235.297 585.975 233.729C587.123 232.161 587.697 230.131 587.697 227.639C587.697 225.077 587.116 223.04 585.954 221.528C584.792 220.002 583.049 219.239 580.725 219.239C579.143 219.239 577.841 219.596 576.819 220.31C575.797 221.024 575.034 222.011 574.53 223.271C574.026 224.531 573.774 225.987 573.774 227.639C573.774 230.187 574.362 232.231 575.538 233.771C576.714 235.311 578.443 236.081 580.725 236.081ZM609.793 239C608.449 239.266 607.119 239.371 605.803 239.315C604.501 239.273 603.339 239.014 602.317 238.538C601.295 238.048 600.518 237.292 599.986 236.27C599.538 235.374 599.293 234.471 599.251 233.561C599.223 232.637 599.209 231.594 599.209 230.432V210.02H602.947V230.264C602.947 231.188 602.954 231.979 602.968 232.637C602.996 233.295 603.143 233.862 603.409 234.338C603.913 235.234 604.711 235.759 605.803 235.913C606.909 236.067 608.239 236.025 609.793 235.787V239ZM594.61 219.407V216.32H609.793V219.407H594.61ZM623.805 239.609C621.103 239.609 618.884 239.021 617.148 237.845C615.426 236.655 614.369 234.996 613.977 232.868L617.799 232.259C618.107 233.491 618.814 234.471 619.92 235.199C621.026 235.913 622.398 236.27 624.036 236.27C625.59 236.27 626.808 235.948 627.69 235.304C628.572 234.66 629.013 233.785 629.013 232.679C629.013 232.035 628.866 231.517 628.572 231.125C628.278 230.719 627.669 230.341 626.745 229.991C625.835 229.641 624.456 229.221 622.608 228.731C620.606 228.199 619.031 227.646 617.883 227.072C616.735 226.498 615.916 225.833 615.426 225.077C614.936 224.321 614.691 223.404 614.691 222.326C614.691 220.996 615.055 219.834 615.783 218.84C616.511 217.832 617.526 217.055 618.828 216.509C620.144 215.963 621.67 215.69 623.406 215.69C625.128 215.69 626.668 215.963 628.026 216.509C629.384 217.055 630.476 217.832 631.302 218.84C632.142 219.834 632.639 220.996 632.793 222.326L628.971 223.019C628.789 221.801 628.201 220.842 627.207 220.142C626.227 219.442 624.96 219.071 623.406 219.029C621.936 218.973 620.739 219.232 619.815 219.806C618.905 220.38 618.45 221.157 618.45 222.137C618.45 222.683 618.618 223.152 618.954 223.544C619.304 223.936 619.941 224.307 620.865 224.657C621.803 225.007 623.161 225.406 624.939 225.854C626.941 226.358 628.516 226.911 629.664 227.513C630.826 228.101 631.652 228.801 632.142 229.613C632.632 230.411 632.877 231.398 632.877 232.574C632.877 234.758 632.072 236.48 630.462 237.74C628.852 238.986 626.633 239.609 623.805 239.609ZM237.472 297.979L237.493 294.619L250.912 282.544C252.032 281.536 252.781 280.584 253.159 279.688C253.551 278.778 253.747 277.847 253.747 276.895C253.747 275.733 253.481 274.683 252.949 273.745C252.417 272.807 251.689 272.065 250.765 271.519C249.855 270.973 248.819 270.7 247.657 270.7C246.453 270.7 245.382 270.987 244.444 271.561C243.506 272.121 242.764 272.87 242.218 273.808C241.686 274.746 241.427 275.768 241.441 276.874H237.619C237.619 274.97 238.06 273.29 238.942 271.834C239.824 270.364 241.021 269.216 242.533 268.39C244.059 267.55 245.788 267.13 247.72 267.13C249.596 267.13 251.276 267.564 252.76 268.432C254.244 269.286 255.413 270.455 256.267 271.939C257.135 273.409 257.569 275.075 257.569 276.937C257.569 278.253 257.401 279.394 257.065 280.36C256.743 281.326 256.239 282.222 255.553 283.048C254.867 283.86 254.006 284.728 252.97 285.652L241.819 295.669L241.336 294.409H257.569V297.979H237.472ZM264.189 298V293.884H268.305V298H264.189ZM297.405 298.609C294.703 298.609 292.484 298.021 290.748 296.845C289.026 295.655 287.969 293.996 287.577 291.868L291.399 291.259C291.707 292.491 292.414 293.471 293.52 294.199C294.626 294.913 295.998 295.27 297.636 295.27C299.19 295.27 300.408 294.948 301.29 294.304C302.172 293.66 302.613 292.785 302.613 291.679C302.613 291.035 302.466 290.517 302.172 290.125C301.878 289.719 301.269 289.341 300.345 288.991C299.435 288.641 298.056 288.221 296.208 287.731C294.206 287.199 292.631 286.646 291.483 286.072C290.335 285.498 289.516 284.833 289.026 284.077C288.536 283.321 288.291 282.404 288.291 281.326C288.291 279.996 288.655 278.834 289.383 277.84C290.111 276.832 291.126 276.055 292.428 275.509C293.744 274.963 295.27 274.69 297.006 274.69C298.728 274.69 300.268 274.963 301.626 275.509C302.984 276.055 304.076 276.832 304.902 277.84C305.742 278.834 306.239 279.996 306.393 281.326L302.571 282.019C302.389 280.801 301.801 279.842 300.807 279.142C299.827 278.442 298.56 278.071 297.006 278.029C295.536 277.973 294.339 278.232 293.415 278.806C292.505 279.38 292.05 280.157 292.05 281.137C292.05 281.683 292.218 282.152 292.554 282.544C292.904 282.936 293.541 283.307 294.465 283.657C295.403 284.007 296.761 284.406 298.539 284.854C300.541 285.358 302.116 285.911 303.264 286.513C304.426 287.101 305.252 287.801 305.742 288.613C306.232 289.411 306.477 290.398 306.477 291.574C306.477 293.758 305.672 295.48 304.062 296.74C302.452 297.986 300.233 298.609 297.405 298.609ZM322.365 298.63C320.237 298.63 318.445 298.105 316.989 297.055C315.533 295.991 314.427 294.556 313.671 292.75C312.929 290.93 312.558 288.893 312.558 286.639C312.558 284.357 312.929 282.313 313.671 280.507C314.427 278.701 315.533 277.28 316.989 276.244C318.459 275.208 320.258 274.69 322.386 274.69C324.486 274.69 326.292 275.215 327.804 276.265C329.33 277.301 330.499 278.722 331.311 280.528C332.123 282.334 332.529 284.371 332.529 286.639C332.529 288.907 332.123 290.944 331.311 292.75C330.499 294.556 329.33 295.991 327.804 297.055C326.292 298.105 324.479 298.63 322.365 298.63ZM311.928 308.08V275.32H315.267V292.015H315.687V308.08H311.928ZM321.903 295.207C323.401 295.207 324.64 294.829 325.62 294.073C326.6 293.317 327.335 292.295 327.825 291.007C328.315 289.705 328.56 288.249 328.56 286.639C328.56 285.043 328.315 283.601 327.825 282.313C327.349 281.025 326.607 280.003 325.599 279.247C324.605 278.491 323.338 278.113 321.798 278.113C320.328 278.113 319.11 278.477 318.144 279.205C317.178 279.919 316.457 280.92 315.981 282.208C315.505 283.482 315.267 284.959 315.267 286.639C315.267 288.291 315.498 289.768 315.96 291.07C316.436 292.358 317.164 293.373 318.144 294.115C319.124 294.843 320.377 295.207 321.903 295.207ZM347.633 298.63C345.379 298.63 343.433 298.119 341.795 297.097C340.171 296.075 338.918 294.661 338.036 292.855C337.154 291.049 336.713 288.977 336.713 286.639C336.713 284.259 337.161 282.173 338.057 280.381C338.953 278.589 340.22 277.196 341.858 276.202C343.496 275.194 345.421 274.69 347.633 274.69C349.901 274.69 351.854 275.201 353.492 276.223C355.13 277.231 356.383 278.638 357.251 280.444C358.133 282.236 358.574 284.301 358.574 286.639C358.574 289.005 358.133 291.091 357.251 292.897C356.369 294.689 355.109 296.096 353.471 297.118C351.833 298.126 349.887 298.63 347.633 298.63ZM347.633 295.081C349.985 295.081 351.735 294.297 352.883 292.729C354.031 291.161 354.605 289.131 354.605 286.639C354.605 284.077 354.024 282.04 352.862 280.528C351.7 279.002 349.957 278.239 347.633 278.239C346.051 278.239 344.749 278.596 343.727 279.31C342.705 280.024 341.942 281.011 341.438 282.271C340.934 283.531 340.682 284.987 340.682 286.639C340.682 289.187 341.27 291.231 342.446 292.771C343.622 294.311 345.351 295.081 347.633 295.081ZM364.037 298V275.32H367.376V280.801L366.83 280.087C367.096 279.387 367.439 278.743 367.859 278.155C368.293 277.567 368.776 277.084 369.308 276.706C369.896 276.23 370.561 275.866 371.303 275.614C372.045 275.362 372.801 275.215 373.571 275.173C374.341 275.117 375.062 275.166 375.734 275.32V278.827C374.95 278.617 374.089 278.561 373.151 278.659C372.213 278.757 371.345 279.1 370.547 279.688C369.819 280.206 369.252 280.836 368.846 281.578C368.454 282.32 368.181 283.125 368.027 283.993C367.873 284.847 367.796 285.722 367.796 286.618V298H364.037ZM393.208 298C391.864 298.266 390.534 298.371 389.218 298.315C387.916 298.273 386.754 298.014 385.732 297.538C384.71 297.048 383.933 296.292 383.401 295.27C382.953 294.374 382.708 293.471 382.666 292.561C382.638 291.637 382.624 290.594 382.624 289.432V269.02H386.362V289.264C386.362 290.188 386.369 290.979 386.383 291.637C386.411 292.295 386.558 292.862 386.824 293.338C387.328 294.234 388.126 294.759 389.218 294.913C390.324 295.067 391.654 295.025 393.208 294.787V298ZM378.025 278.407V275.32H393.208V278.407H378.025ZM401.187 308.08L405.576 296.152L405.639 299.68L395.727 275.32H399.654L407.424 294.913H406.08L413.367 275.32H417.168L404.82 308.08H401.187ZM438.369 267.76H442.17L434.106 298H430.305L438.369 267.76ZM466.28 298.609C463.578 298.609 461.359 298.021 459.623 296.845C457.901 295.655 456.844 293.996 456.452 291.868L460.274 291.259C460.582 292.491 461.289 293.471 462.395 294.199C463.501 294.913 464.873 295.27 466.511 295.27C468.065 295.27 469.283 294.948 470.165 294.304C471.047 293.66 471.488 292.785 471.488 291.679C471.488 291.035 471.341 290.517 471.047 290.125C470.753 289.719 470.144 289.341 469.22 288.991C468.31 288.641 466.931 288.221 465.083 287.731C463.081 287.199 461.506 286.646 460.358 286.072C459.21 285.498 458.391 284.833 457.901 284.077C457.411 283.321 457.166 282.404 457.166 281.326C457.166 279.996 457.53 278.834 458.258 277.84C458.986 276.832 460.001 276.055 461.303 275.509C462.619 274.963 464.145 274.69 465.881 274.69C467.603 274.69 469.143 274.963 470.501 275.509C471.859 276.055 472.951 276.832 473.777 277.84C474.617 278.834 475.114 279.996 475.268 281.326L471.446 282.019C471.264 280.801 470.676 279.842 469.682 279.142C468.702 278.442 467.435 278.071 465.881 278.029C464.411 277.973 463.214 278.232 462.29 278.806C461.38 279.38 460.925 280.157 460.925 281.137C460.925 281.683 461.093 282.152 461.429 282.544C461.779 282.936 462.416 283.307 463.34 283.657C464.278 284.007 465.636 284.406 467.414 284.854C469.416 285.358 470.991 285.911 472.139 286.513C473.301 287.101 474.127 287.801 474.617 288.613C475.107 289.411 475.352 290.398 475.352 291.574C475.352 293.758 474.547 295.48 472.937 296.74C471.327 297.986 469.108 298.609 466.28 298.609ZM496.972 298V286.639C496.972 285.561 496.874 284.525 496.678 283.531C496.496 282.537 496.167 281.648 495.691 280.864C495.229 280.066 494.599 279.436 493.801 278.974C493.017 278.512 492.023 278.281 490.819 278.281C489.881 278.281 489.027 278.442 488.257 278.764C487.501 279.072 486.85 279.548 486.304 280.192C485.758 280.836 485.331 281.648 485.023 282.628C484.729 283.594 484.582 284.735 484.582 286.051L482.125 285.295C482.125 283.097 482.517 281.214 483.301 279.646C484.099 278.064 485.212 276.853 486.64 276.013C488.082 275.159 489.776 274.732 491.722 274.732C493.192 274.732 494.445 274.963 495.481 275.425C496.517 275.887 497.378 276.503 498.064 277.273C498.75 278.029 499.289 278.883 499.681 279.835C500.073 280.773 500.346 281.732 500.5 282.712C500.668 283.678 500.752 284.595 500.752 285.463V298H496.972ZM480.802 298V267.76H484.162V284.455H484.582V298H480.802ZM516.712 298.63C514.458 298.63 512.512 298.119 510.874 297.097C509.25 296.075 507.997 294.661 507.115 292.855C506.233 291.049 505.792 288.977 505.792 286.639C505.792 284.259 506.24 282.173 507.136 280.381C508.032 278.589 509.299 277.196 510.937 276.202C512.575 275.194 514.5 274.69 516.712 274.69C518.98 274.69 520.933 275.201 522.571 276.223C524.209 277.231 525.462 278.638 526.33 280.444C527.212 282.236 527.653 284.301 527.653 286.639C527.653 289.005 527.212 291.091 526.33 292.897C525.448 294.689 524.188 296.096 522.55 297.118C520.912 298.126 518.966 298.63 516.712 298.63ZM516.712 295.081C519.064 295.081 520.814 294.297 521.962 292.729C523.11 291.161 523.684 289.131 523.684 286.639C523.684 284.077 523.103 282.04 521.941 280.528C520.779 279.002 519.036 278.239 516.712 278.239C515.13 278.239 513.828 278.596 512.806 279.31C511.784 280.024 511.021 281.011 510.517 282.271C510.013 283.531 509.761 284.987 509.761 286.639C509.761 289.187 510.349 291.231 511.525 292.771C512.701 294.311 514.43 295.081 516.712 295.081ZM542.945 298.63C540.719 298.63 538.773 298.14 537.107 297.16C535.455 296.166 534.167 294.787 533.243 293.023C532.319 291.245 531.857 289.173 531.857 286.807C531.857 284.329 532.312 282.187 533.222 280.381C534.132 278.561 535.399 277.161 537.023 276.181C538.661 275.187 540.579 274.69 542.777 274.69C545.059 274.69 546.998 275.215 548.594 276.265C550.204 277.315 551.408 278.813 552.206 280.759C553.018 282.705 553.368 285.022 553.256 287.71H549.476V286.366C549.434 283.58 548.867 281.501 547.775 280.129C546.683 278.743 545.059 278.05 542.903 278.05C540.593 278.05 538.836 278.792 537.632 280.276C536.428 281.76 535.826 283.888 535.826 286.66C535.826 289.334 536.428 291.406 537.632 292.876C538.836 294.346 540.551 295.081 542.777 295.081C544.275 295.081 545.577 294.738 546.683 294.052C547.789 293.366 548.657 292.379 549.287 291.091L552.878 292.33C551.996 294.332 550.666 295.886 548.888 296.992C547.124 298.084 545.143 298.63 542.945 298.63ZM534.566 287.71V284.707H551.324V287.71H534.566ZM567.339 298.609C564.637 298.609 562.418 298.021 560.682 296.845C558.96 295.655 557.903 293.996 557.511 291.868L561.333 291.259C561.641 292.491 562.348 293.471 563.454 294.199C564.56 294.913 565.932 295.27 567.57 295.27C569.124 295.27 570.342 294.948 571.224 294.304C572.106 293.66 572.547 292.785 572.547 291.679C572.547 291.035 572.4 290.517 572.106 290.125C571.812 289.719 571.203 289.341 570.279 288.991C569.369 288.641 567.99 288.221 566.142 287.731C564.14 287.199 562.565 286.646 561.417 286.072C560.269 285.498 559.45 284.833 558.96 284.077C558.47 283.321 558.225 282.404 558.225 281.326C558.225 279.996 558.589 278.834 559.317 277.84C560.045 276.832 561.06 276.055 562.362 275.509C563.678 274.963 565.204 274.69 566.94 274.69C568.662 274.69 570.202 274.963 571.56 275.509C572.918 276.055 574.01 276.832 574.836 277.84C575.676 278.834 576.173 279.996 576.327 281.326L572.505 282.019C572.323 280.801 571.735 279.842 570.741 279.142C569.761 278.442 568.494 278.071 566.94 278.029C565.47 277.973 564.273 278.232 563.349 278.806C562.439 279.38 561.984 280.157 561.984 281.137C561.984 281.683 562.152 282.152 562.488 282.544C562.838 282.936 563.475 283.307 564.399 283.657C565.337 284.007 566.695 284.406 568.473 284.854C570.475 285.358 572.05 285.911 573.198 286.513C574.36 287.101 575.186 287.801 575.676 288.613C576.166 289.411 576.411 290.398 576.411 291.574C576.411 293.758 575.606 295.48 573.996 296.74C572.386 297.986 570.167 298.609 567.339 298.609ZM199.276 357.588C197.778 357.588 196.385 357.315 195.097 356.769C193.809 356.209 192.696 355.425 191.758 354.417C190.834 353.395 190.155 352.184 189.721 350.784L193.312 349.755C193.774 351.155 194.544 352.219 195.622 352.947C196.7 353.675 197.911 354.032 199.255 354.018C200.487 353.99 201.551 353.71 202.447 353.178C203.357 352.632 204.057 351.89 204.547 350.952C205.051 350.014 205.303 348.929 205.303 347.697C205.303 345.821 204.743 344.302 203.623 343.14C202.503 341.964 201.033 341.376 199.213 341.376C198.709 341.376 198.177 341.446 197.617 341.586C197.071 341.726 196.56 341.922 196.084 342.174L194.278 339.213L205.492 329.07L205.975 330.33H190.918V326.76H208.747V330.351L199.192 339.507L199.15 338.184C201.152 338.044 202.902 338.373 204.4 339.171C205.898 339.969 207.06 341.11 207.886 342.594C208.726 344.078 209.146 345.779 209.146 347.697C209.146 349.629 208.712 351.337 207.844 352.821C206.976 354.305 205.8 355.474 204.316 356.328C202.832 357.168 201.152 357.588 199.276 357.588ZM216.48 357V352.884H220.596V357H216.48ZM243.291 357V333.081C243.291 332.493 243.319 331.898 243.375 331.296C243.431 330.68 243.557 330.085 243.753 329.511C243.949 328.923 244.271 328.384 244.719 327.894C245.237 327.32 245.804 326.914 246.42 326.676C247.036 326.424 247.659 326.27 248.289 326.214C248.933 326.158 249.542 326.13 250.116 326.13H252.993V329.238H250.326C249.22 329.238 248.394 329.511 247.848 330.057C247.302 330.589 247.029 331.401 247.029 332.493V357H243.291ZM239.448 337.407V334.32H252.993V337.407H239.448ZM263.017 357.63C261.323 357.63 259.902 357.322 258.754 356.706C257.62 356.076 256.759 355.25 256.171 354.228C255.597 353.206 255.31 352.086 255.31 350.868C255.31 349.678 255.534 348.649 255.982 347.781C256.444 346.899 257.088 346.171 257.914 345.597C258.74 345.009 259.727 344.547 260.875 344.211C261.953 343.917 263.157 343.665 264.487 343.455C265.831 343.231 267.189 343.028 268.561 342.846C269.933 342.664 271.214 342.489 272.404 342.321L271.06 343.098C271.102 341.082 270.696 339.591 269.842 338.625C269.002 337.659 267.546 337.176 265.474 337.176C264.102 337.176 262.898 337.491 261.862 338.121C260.84 338.737 260.119 339.745 259.699 341.145L256.15 340.074C256.696 338.086 257.753 336.525 259.321 335.391C260.889 334.257 262.954 333.69 265.516 333.69C267.574 333.69 269.338 334.061 270.808 334.803C272.292 335.531 273.356 336.637 274 338.121C274.322 338.821 274.525 339.584 274.609 340.41C274.693 341.222 274.735 342.076 274.735 342.972V357H271.417V351.561L272.194 352.065C271.34 353.899 270.143 355.285 268.603 356.223C267.077 357.161 265.215 357.63 263.017 357.63ZM263.584 354.501C264.928 354.501 266.09 354.263 267.07 353.787C268.064 353.297 268.862 352.66 269.464 351.876C270.066 351.078 270.458 350.21 270.64 349.272C270.85 348.572 270.962 347.795 270.976 346.941C271.004 346.073 271.018 345.408 271.018 344.946L272.32 345.513C271.102 345.681 269.905 345.842 268.729 345.996C267.553 346.15 266.44 346.318 265.39 346.5C264.34 346.668 263.395 346.871 262.555 347.109C261.939 347.305 261.358 347.557 260.812 347.865C260.28 348.173 259.846 348.572 259.51 349.062C259.188 349.538 259.027 350.133 259.027 350.847C259.027 351.463 259.181 352.051 259.489 352.611C259.811 353.171 260.301 353.626 260.959 353.976C261.631 354.326 262.506 354.501 263.584 354.501ZM289.603 357.609C286.901 357.609 284.682 357.021 282.946 355.845C281.224 354.655 280.167 352.996 279.775 350.868L283.597 350.259C283.905 351.491 284.612 352.471 285.718 353.199C286.824 353.913 288.196 354.27 289.834 354.27C291.388 354.27 292.606 353.948 293.488 353.304C294.37 352.66 294.811 351.785 294.811 350.679C294.811 350.035 294.664 349.517 294.37 349.125C294.076 348.719 293.467 348.341 292.543 347.991C291.633 347.641 290.254 347.221 288.406 346.731C286.404 346.199 284.829 345.646 283.681 345.072C282.533 344.498 281.714 343.833 281.224 343.077C280.734 342.321 280.489 341.404 280.489 340.326C280.489 338.996 280.853 337.834 281.581 336.84C282.309 335.832 283.324 335.055 284.626 334.509C285.942 333.963 287.468 333.69 289.204 333.69C290.926 333.69 292.466 333.963 293.824 334.509C295.182 335.055 296.274 335.832 297.1 336.84C297.94 337.834 298.437 338.996 298.591 340.326L294.769 341.019C294.587 339.801 293.999 338.842 293.005 338.142C292.025 337.442 290.758 337.071 289.204 337.029C287.734 336.973 286.537 337.232 285.613 337.806C284.703 338.38 284.248 339.157 284.248 340.137C284.248 340.683 284.416 341.152 284.752 341.544C285.102 341.936 285.739 342.307 286.663 342.657C287.601 343.007 288.959 343.406 290.737 343.854C292.739 344.358 294.314 344.911 295.462 345.513C296.624 346.101 297.45 346.801 297.94 347.613C298.43 348.411 298.675 349.398 298.675 350.574C298.675 352.758 297.87 354.48 296.26 355.74C294.65 356.986 292.431 357.609 289.603 357.609ZM320.295 357V345.639C320.295 344.561 320.197 343.525 320.001 342.531C319.819 341.537 319.49 340.648 319.014 339.864C318.552 339.066 317.922 338.436 317.124 337.974C316.34 337.512 315.346 337.281 314.142 337.281C313.204 337.281 312.35 337.442 311.58 337.764C310.824 338.072 310.173 338.548 309.627 339.192C309.081 339.836 308.654 340.648 308.346 341.628C308.052 342.594 307.905 343.735 307.905 345.051L305.448 344.295C305.448 342.097 305.84 340.214 306.624 338.646C307.422 337.064 308.535 335.853 309.963 335.013C311.405 334.159 313.099 333.732 315.045 333.732C316.515 333.732 317.768 333.963 318.804 334.425C319.84 334.887 320.701 335.503 321.387 336.273C322.073 337.029 322.612 337.883 323.004 338.835C323.396 339.773 323.669 340.732 323.823 341.712C323.991 342.678 324.075 343.595 324.075 344.463V357H320.295ZM304.125 357V326.76H307.485V343.455H307.905V357H304.125ZM330.795 330.309V326.445H334.533V330.309H330.795ZM330.795 357V334.32H334.533V357H330.795ZM351.334 357.63C349.08 357.63 347.134 357.119 345.496 356.097C343.872 355.075 342.619 353.661 341.737 351.855C340.855 350.049 340.414 347.977 340.414 345.639C340.414 343.259 340.862 341.173 341.758 339.381C342.654 337.589 343.921 336.196 345.559 335.202C347.197 334.194 349.122 333.69 351.334 333.69C353.602 333.69 355.555 334.201 357.193 335.223C358.831 336.231 360.084 337.638 360.952 339.444C361.834 341.236 362.275 343.301 362.275 345.639C362.275 348.005 361.834 350.091 360.952 351.897C360.07 353.689 358.81 355.096 357.172 356.118C355.534 357.126 353.588 357.63 351.334 357.63ZM351.334 354.081C353.686 354.081 355.436 353.297 356.584 351.729C357.732 350.161 358.306 348.131 358.306 345.639C358.306 343.077 357.725 341.04 356.563 339.528C355.401 338.002 353.658 337.239 351.334 337.239C349.752 337.239 348.45 337.596 347.428 338.31C346.406 339.024 345.643 340.011 345.139 341.271C344.635 342.531 344.383 343.987 344.383 345.639C344.383 348.187 344.971 350.231 346.147 351.771C347.323 353.311 349.052 354.081 351.334 354.081ZM383.887 357V345.639C383.887 344.561 383.789 343.525 383.593 342.531C383.411 341.537 383.082 340.648 382.606 339.864C382.144 339.066 381.514 338.436 380.716 337.974C379.932 337.512 378.938 337.281 377.734 337.281C376.796 337.281 375.942 337.442 375.172 337.764C374.416 338.072 373.765 338.548 373.219 339.192C372.673 339.836 372.246 340.648 371.938 341.628C371.644 342.594 371.497 343.735 371.497 345.051L369.04 344.295C369.04 342.097 369.432 340.214 370.216 338.646C371.014 337.064 372.127 335.853 373.555 335.013C374.997 334.159 376.691 333.732 378.637 333.732C380.107 333.732 381.36 333.963 382.396 334.425C383.432 334.887 384.293 335.503 384.979 336.273C385.665 337.029 386.204 337.883 386.596 338.835C386.988 339.773 387.261 340.732 387.415 341.712C387.583 342.678 387.667 343.595 387.667 344.463V357H383.887ZM367.717 357V334.32H371.077V340.389H371.497V357H367.717ZM400.414 357.63C398.72 357.63 397.299 357.322 396.151 356.706C395.017 356.076 394.156 355.25 393.568 354.228C392.994 353.206 392.707 352.086 392.707 350.868C392.707 349.678 392.931 348.649 393.379 347.781C393.841 346.899 394.485 346.171 395.311 345.597C396.137 345.009 397.124 344.547 398.272 344.211C399.35 343.917 400.554 343.665 401.884 343.455C403.228 343.231 404.586 343.028 405.958 342.846C407.33 342.664 408.611 342.489 409.801 342.321L408.457 343.098C408.499 341.082 408.093 339.591 407.239 338.625C406.399 337.659 404.943 337.176 402.871 337.176C401.499 337.176 400.295 337.491 399.259 338.121C398.237 338.737 397.516 339.745 397.096 341.145L393.547 340.074C394.093 338.086 395.15 336.525 396.718 335.391C398.286 334.257 400.351 333.69 402.913 333.69C404.971 333.69 406.735 334.061 408.205 334.803C409.689 335.531 410.753 336.637 411.397 338.121C411.719 338.821 411.922 339.584 412.006 340.41C412.09 341.222 412.132 342.076 412.132 342.972V357H408.814V351.561L409.591 352.065C408.737 353.899 407.54 355.285 406 356.223C404.474 357.161 402.612 357.63 400.414 357.63ZM400.981 354.501C402.325 354.501 403.487 354.263 404.467 353.787C405.461 353.297 406.259 352.66 406.861 351.876C407.463 351.078 407.855 350.21 408.037 349.272C408.247 348.572 408.359 347.795 408.373 346.941C408.401 346.073 408.415 345.408 408.415 344.946L409.717 345.513C408.499 345.681 407.302 345.842 406.126 345.996C404.95 346.15 403.837 346.318 402.787 346.5C401.737 346.668 400.792 346.871 399.952 347.109C399.336 347.305 398.755 347.557 398.209 347.865C397.677 348.173 397.243 348.572 396.907 349.062C396.585 349.538 396.424 350.133 396.424 350.847C396.424 351.463 396.578 352.051 396.886 352.611C397.208 353.171 397.698 353.626 398.356 353.976C399.028 354.326 399.903 354.501 400.981 354.501ZM428.848 357.63C426.72 357.63 424.928 357.105 423.472 356.055C422.016 354.991 420.91 353.556 420.154 351.75C419.412 349.93 419.041 347.893 419.041 345.639C419.041 343.357 419.412 341.313 420.154 339.507C420.91 337.701 422.016 336.28 423.472 335.244C424.942 334.208 426.741 333.69 428.869 333.69C430.969 333.69 432.775 334.215 434.287 335.265C435.813 336.301 436.982 337.722 437.794 339.528C438.606 341.334 439.012 343.371 439.012 345.639C439.012 347.907 438.606 349.944 437.794 351.75C436.982 353.556 435.813 354.991 434.287 356.055C432.775 357.105 430.962 357.63 428.848 357.63ZM418.411 357V326.76H422.17V340.305H421.75V357H418.411ZM428.386 354.207C429.884 354.207 431.123 353.829 432.103 353.073C433.083 352.317 433.818 351.295 434.308 350.007C434.798 348.705 435.043 347.249 435.043 345.639C435.043 344.043 434.798 342.601 434.308 341.313C433.832 340.025 433.09 339.003 432.082 338.247C431.088 337.491 429.821 337.113 428.281 337.113C426.811 337.113 425.593 337.477 424.627 338.205C423.661 338.919 422.94 339.92 422.464 341.208C421.988 342.482 421.75 343.959 421.75 345.639C421.75 347.291 421.981 348.768 422.443 350.07C422.919 351.358 423.647 352.373 424.627 353.115C425.607 353.843 426.86 354.207 428.386 354.207ZM444.876 357V326.13H448.614V357H444.876ZM465.583 357.63C463.357 357.63 461.411 357.14 459.745 356.16C458.093 355.166 456.805 353.787 455.881 352.023C454.957 350.245 454.495 348.173 454.495 345.807C454.495 343.329 454.95 341.187 455.86 339.381C456.77 337.561 458.037 336.161 459.661 335.181C461.299 334.187 463.217 333.69 465.415 333.69C467.697 333.69 469.636 334.215 471.232 335.265C472.842 336.315 474.046 337.813 474.844 339.759C475.656 341.705 476.006 344.022 475.894 346.71H472.114V345.366C472.072 342.58 471.505 340.501 470.413 339.129C469.321 337.743 467.697 337.05 465.541 337.05C463.231 337.05 461.474 337.792 460.27 339.276C459.066 340.76 458.464 342.888 458.464 345.66C458.464 348.334 459.066 350.406 460.27 351.876C461.474 353.346 463.189 354.081 465.415 354.081C466.913 354.081 468.215 353.738 469.321 353.052C470.427 352.366 471.295 351.379 471.925 350.091L475.516 351.33C474.634 353.332 473.304 354.886 471.526 355.992C469.762 357.084 467.781 357.63 465.583 357.63ZM457.204 346.71V343.707H473.962V346.71H457.204ZM498.301 326.76H502.102L494.038 357H490.237L498.301 326.76ZM533.793 357V345.639C533.793 344.561 533.695 343.525 533.499 342.531C533.317 341.537 532.988 340.648 532.512 339.864C532.05 339.066 531.42 338.436 530.622 337.974C529.838 337.512 528.844 337.281 527.64 337.281C526.702 337.281 525.848 337.442 525.078 337.764C524.322 338.072 523.671 338.548 523.125 339.192C522.579 339.836 522.152 340.648 521.844 341.628C521.55 342.594 521.403 343.735 521.403 345.051L518.946 344.295C518.946 342.097 519.338 340.214 520.122 338.646C520.92 337.064 522.033 335.853 523.461 335.013C524.903 334.159 526.597 333.732 528.543 333.732C530.013 333.732 531.266 333.963 532.302 334.425C533.338 334.887 534.199 335.503 534.885 336.273C535.571 337.029 536.11 337.883 536.502 338.835C536.894 339.773 537.167 340.732 537.321 341.712C537.489 342.678 537.573 343.595 537.573 344.463V357H533.793ZM517.623 357V326.76H520.983V343.455H521.403V357H517.623ZM553.701 357.63C551.475 357.63 549.529 357.14 547.863 356.16C546.211 355.166 544.923 353.787 543.999 352.023C543.075 350.245 542.613 348.173 542.613 345.807C542.613 343.329 543.068 341.187 543.978 339.381C544.888 337.561 546.155 336.161 547.779 335.181C549.417 334.187 551.335 333.69 553.533 333.69C555.815 333.69 557.754 334.215 559.35 335.265C560.96 336.315 562.164 337.813 562.962 339.759C563.774 341.705 564.124 344.022 564.012 346.71H560.232V345.366C560.19 342.58 559.623 340.501 558.531 339.129C557.439 337.743 555.815 337.05 553.659 337.05C551.349 337.05 549.592 337.792 548.388 339.276C547.184 340.76 546.582 342.888 546.582 345.66C546.582 348.334 547.184 350.406 548.388 351.876C549.592 353.346 551.307 354.081 553.533 354.081C555.031 354.081 556.333 353.738 557.439 353.052C558.545 352.366 559.413 351.379 560.043 350.091L563.634 351.33C562.752 353.332 561.422 354.886 559.644 355.992C557.88 357.084 555.899 357.63 553.701 357.63ZM545.322 346.71V343.707H562.08V346.71H545.322ZM579.355 357.63C577.129 357.63 575.183 357.14 573.517 356.16C571.865 355.166 570.577 353.787 569.653 352.023C568.729 350.245 568.267 348.173 568.267 345.807C568.267 343.329 568.722 341.187 569.632 339.381C570.542 337.561 571.809 336.161 573.433 335.181C575.071 334.187 576.989 333.69 579.187 333.69C581.469 333.69 583.408 334.215 585.004 335.265C586.614 336.315 587.818 337.813 588.616 339.759C589.428 341.705 589.778 344.022 589.666 346.71H585.886V345.366C585.844 342.58 585.277 340.501 584.185 339.129C583.093 337.743 581.469 337.05 579.313 337.05C577.003 337.05 575.246 337.792 574.042 339.276C572.838 340.76 572.236 342.888 572.236 345.66C572.236 348.334 572.838 350.406 574.042 351.876C575.246 353.346 576.961 354.081 579.187 354.081C580.685 354.081 581.987 353.738 583.093 353.052C584.199 352.366 585.067 351.379 585.697 350.091L589.288 351.33C588.406 353.332 587.076 354.886 585.298 355.992C583.534 357.084 581.553 357.63 579.355 357.63ZM570.976 346.71V343.707H587.734V346.71H570.976ZM595.601 357V326.13H599.339V357H595.601ZM615.048 357.609C612.346 357.609 610.127 357.021 608.391 355.845C606.669 354.655 605.612 352.996 605.22 350.868L609.042 350.259C609.35 351.491 610.057 352.471 611.163 353.199C612.269 353.913 613.641 354.27 615.279 354.27C616.833 354.27 618.051 353.948 618.933 353.304C619.815 352.66 620.256 351.785 620.256 350.679C620.256 350.035 620.109 349.517 619.815 349.125C619.521 348.719 618.912 348.341 617.988 347.991C617.078 347.641 615.699 347.221 613.851 346.731C611.849 346.199 610.274 345.646 609.126 345.072C607.978 344.498 607.159 343.833 606.669 343.077C606.179 342.321 605.934 341.404 605.934 340.326C605.934 338.996 606.298 337.834 607.026 336.84C607.754 335.832 608.769 335.055 610.071 334.509C611.387 333.963 612.913 333.69 614.649 333.69C616.371 333.69 617.911 333.963 619.269 334.509C620.627 335.055 621.719 335.832 622.545 336.84C623.385 337.834 623.882 338.996 624.036 340.326L620.214 341.019C620.032 339.801 619.444 338.842 618.45 338.142C617.47 337.442 616.203 337.071 614.649 337.029C613.179 336.973 611.982 337.232 611.058 337.806C610.148 338.38 609.693 339.157 609.693 340.137C609.693 340.683 609.861 341.152 610.197 341.544C610.547 341.936 611.184 342.307 612.108 342.657C613.046 343.007 614.404 343.406 616.182 343.854C618.184 344.358 619.759 344.911 620.907 345.513C622.069 346.101 622.895 346.801 623.385 347.613C623.875 348.411 624.12 349.398 624.12 350.574C624.12 352.758 623.315 354.48 621.705 355.74C620.095 356.986 617.876 357.609 615.048 357.609Z" fill="#F4FDD3"></path></svg> 