<?xml version="1.0" encoding="UTF-8"?> <svg xmlns="http://www.w3.org/2000/svg" width="800" height="450" viewBox="0 0 800 450" fill="none"><rect width="800" height="450" rx="20" fill="#90AD26"></rect><path d="M182.198 132.84C179.249 132.84 176.589 132.327 174.218 131.3C171.866 130.273 169.925 128.808 168.394 126.904C166.882 124.981 165.921 122.704 165.51 120.072L172.51 119.008C173.108 121.397 174.33 123.245 176.178 124.552C178.045 125.859 180.192 126.512 182.618 126.512C184.056 126.512 185.409 126.288 186.678 125.84C187.948 125.392 188.974 124.739 189.758 123.88C190.561 123.021 190.962 121.967 190.962 120.716C190.962 120.156 190.869 119.643 190.682 119.176C190.496 118.691 190.216 118.261 189.842 117.888C189.488 117.515 189.021 117.179 188.442 116.88C187.882 116.563 187.229 116.292 186.482 116.068L176.066 112.988C175.17 112.727 174.2 112.381 173.154 111.952C172.128 111.504 171.148 110.897 170.214 110.132C169.3 109.348 168.544 108.359 167.946 107.164C167.368 105.951 167.078 104.457 167.078 102.684C167.078 100.089 167.732 97.9147 169.038 96.16C170.364 94.3867 172.137 93.0613 174.358 92.184C176.598 91.3067 179.081 90.8773 181.806 90.896C184.569 90.9147 187.033 91.3907 189.198 92.324C191.364 93.2387 193.174 94.5733 194.63 96.328C196.086 98.0827 197.113 100.201 197.71 102.684L190.458 103.944C190.16 102.525 189.581 101.321 188.722 100.332C187.882 99.324 186.846 98.5587 185.614 98.036C184.401 97.5133 183.104 97.2333 181.722 97.196C180.378 97.1773 179.128 97.3827 177.97 97.812C176.832 98.2227 175.908 98.82 175.198 99.604C174.508 100.388 174.162 101.303 174.162 102.348C174.162 103.337 174.461 104.149 175.058 104.784C175.656 105.4 176.393 105.895 177.27 106.268C178.166 106.623 179.072 106.921 179.986 107.164L187.21 109.18C188.2 109.441 189.31 109.796 190.542 110.244C191.774 110.692 192.96 111.317 194.098 112.12C195.237 112.923 196.17 113.977 196.898 115.284C197.645 116.591 198.018 118.252 198.018 120.268C198.018 122.359 197.58 124.197 196.702 125.784C195.844 127.352 194.677 128.659 193.202 129.704C191.728 130.749 190.038 131.533 188.134 132.056C186.249 132.579 184.27 132.84 182.198 132.84ZM205.199 132V91.68H211.947V110.384L228.047 91.68H236.335L219.003 111.448L237.511 132H228.943L211.947 113.184V132H205.199ZM239.777 132L252.489 91.68H262.373L275.085 132H268.141L256.605 95.824H258.117L246.721 132H239.777ZM246.861 123.264V116.964H268.029V123.264H246.861ZM287.619 132V98.008H274.571V91.68H307.415V98.008H294.367V132H287.619ZM313.012 132V91.68H339.052V98.008H319.76V107.948H335.692V114.276H319.76V125.672H339.052V132H313.012ZM346.89 132V91.68H362.878C365.603 91.68 367.834 92.2307 369.57 93.332C371.325 94.4147 372.622 95.8053 373.462 97.504C374.321 99.2027 374.75 100.957 374.75 102.768C374.75 104.989 374.218 106.875 373.154 108.424C372.109 109.973 370.681 111.019 368.87 111.56V110.16C371.409 110.739 373.331 111.943 374.638 113.772C375.963 115.601 376.626 117.683 376.626 120.016C376.626 122.405 376.169 124.496 375.254 126.288C374.339 128.08 372.977 129.48 371.166 130.488C369.374 131.496 367.153 132 364.502 132H346.89ZM353.722 125.644H363.662C364.838 125.644 365.893 125.411 366.826 124.944C367.759 124.459 368.487 123.787 369.01 122.928C369.551 122.051 369.822 121.015 369.822 119.82C369.822 118.737 369.589 117.767 369.122 116.908C368.655 116.049 367.974 115.368 367.078 114.864C366.182 114.341 365.109 114.08 363.858 114.08H353.722V125.644ZM353.722 107.78H362.794C363.765 107.78 364.633 107.593 365.398 107.22C366.163 106.847 366.77 106.296 367.218 105.568C367.666 104.84 367.89 103.944 367.89 102.88C367.89 101.48 367.442 100.313 366.546 99.38C365.65 98.4467 364.399 97.98 362.794 97.98H353.722V107.78ZM400.39 132.84C396.358 132.84 392.905 131.963 390.03 130.208C387.155 128.435 384.943 125.971 383.394 122.816C381.863 119.661 381.098 116.003 381.098 111.84C381.098 107.677 381.863 104.019 383.394 100.864C384.943 97.7093 387.155 95.2547 390.03 93.5C392.905 91.7267 396.358 90.84 400.39 90.84C404.422 90.84 407.875 91.7267 410.75 93.5C413.643 95.2547 415.855 97.7093 417.386 100.864C418.935 104.019 419.71 107.677 419.71 111.84C419.71 116.003 418.935 119.661 417.386 122.816C415.855 125.971 413.643 128.435 410.75 130.208C407.875 131.963 404.422 132.84 400.39 132.84ZM400.39 126.484C403.097 126.503 405.346 125.905 407.138 124.692C408.949 123.479 410.302 121.771 411.198 119.568C412.113 117.365 412.57 114.789 412.57 111.84C412.57 108.891 412.113 106.333 411.198 104.168C410.302 101.984 408.949 100.285 407.138 99.072C405.346 97.8587 403.097 97.2333 400.39 97.196C397.683 97.1773 395.434 97.7747 393.642 98.988C391.85 100.201 390.497 101.909 389.582 104.112C388.686 106.315 388.238 108.891 388.238 111.84C388.238 114.789 388.686 117.356 389.582 119.54C390.478 121.705 391.822 123.395 393.614 124.608C395.425 125.821 397.683 126.447 400.39 126.484ZM422.51 132L435.222 91.68H445.106L457.818 132H450.874L439.338 95.824H440.85L429.454 132H422.51ZM429.594 123.264V116.964H450.762V123.264H429.594ZM464 132V91.68H480.66C481.052 91.68 481.556 91.6987 482.172 91.736C482.788 91.7547 483.357 91.8107 483.88 91.904C486.213 92.2587 488.136 93.0333 489.648 94.228C491.179 95.4227 492.308 96.9347 493.036 98.764C493.783 100.575 494.156 102.591 494.156 104.812C494.156 108.097 493.325 110.925 491.664 113.296C490.003 115.648 487.455 117.104 484.02 117.664L481.136 117.916H470.748V132H464ZM487.156 132L479.204 115.592L486.064 114.08L494.8 132H487.156ZM470.748 111.616H480.38C480.753 111.616 481.173 111.597 481.64 111.56C482.107 111.523 482.536 111.448 482.928 111.336C484.048 111.056 484.925 110.561 485.56 109.852C486.213 109.143 486.671 108.34 486.932 107.444C487.212 106.548 487.352 105.671 487.352 104.812C487.352 103.953 487.212 103.076 486.932 102.18C486.671 101.265 486.213 100.453 485.56 99.744C484.925 99.0347 484.048 98.54 482.928 98.26C482.536 98.148 482.107 98.0827 481.64 98.064C481.173 98.0267 480.753 98.008 480.38 98.008H470.748V111.616ZM502.089 132V91.68H514.941C515.277 91.68 515.939 91.6893 516.929 91.708C517.937 91.7267 518.907 91.792 519.841 91.904C523.033 92.3147 525.73 93.4533 527.933 95.32C530.154 97.168 531.834 99.5293 532.973 102.404C534.111 105.279 534.681 108.424 534.681 111.84C534.681 115.256 534.111 118.401 532.973 121.276C531.834 124.151 530.154 126.521 527.933 128.388C525.73 130.236 523.033 131.365 519.841 131.776C518.926 131.888 517.965 131.953 516.957 131.972C515.949 131.991 515.277 132 514.941 132H502.089ZM508.949 125.644H514.941C515.501 125.644 516.21 125.625 517.069 125.588C517.946 125.551 518.721 125.467 519.393 125.336C521.297 124.981 522.846 124.132 524.041 122.788C525.235 121.444 526.113 119.811 526.673 117.888C527.251 115.965 527.541 113.949 527.541 111.84C527.541 109.656 527.251 107.603 526.673 105.68C526.094 103.757 525.198 102.143 523.985 100.836C522.79 99.5293 521.259 98.6987 519.393 98.344C518.721 98.1947 517.946 98.1107 517.069 98.092C516.21 98.0547 515.501 98.036 514.941 98.036H508.949V125.644ZM542.98 132V91.68H549.728V132H542.98ZM559.235 132V91.68H566.067L584.771 120.1V91.68H591.603V132H584.771L566.067 103.58V132H559.235ZM617.182 132.84C614.569 132.84 612.114 132.383 609.818 131.468C607.541 130.535 605.534 129.172 603.798 127.38C602.081 125.588 600.737 123.395 599.766 120.8C598.795 118.187 598.31 115.2 598.31 111.84C598.31 107.435 599.131 103.673 600.774 100.556C602.417 97.42 604.666 95.0213 607.522 93.36C610.378 91.68 613.598 90.84 617.182 90.84C622.147 90.84 626.077 91.9973 628.97 94.312C631.882 96.608 633.851 99.8373 634.878 104L627.99 105.092C627.225 102.703 625.974 100.799 624.238 99.38C622.502 97.9427 620.29 97.224 617.602 97.224C614.895 97.1867 612.646 97.7747 610.854 98.988C609.062 100.201 607.709 101.909 606.794 104.112C605.898 106.315 605.45 108.891 605.45 111.84C605.45 114.789 605.898 117.356 606.794 119.54C607.69 121.705 609.034 123.395 610.826 124.608C612.637 125.821 614.895 126.447 617.602 126.484C619.637 126.503 621.419 126.139 622.95 125.392C624.481 124.627 625.731 123.479 626.702 121.948C627.673 120.399 628.326 118.467 628.662 116.152H621.55V110.86H635.83C635.867 111.159 635.895 111.597 635.914 112.176C635.933 112.755 635.942 113.1 635.942 113.212C635.942 117.02 635.186 120.408 633.674 123.376C632.181 126.325 630.034 128.64 627.234 130.32C624.434 132 621.083 132.84 617.182 132.84Z" fill="#F4FDD3"></path><path d="M213.637 239V212.897L207.946 216.341V212.162L213.637 208.76H217.438V239H213.637ZM230.673 239V234.884H234.789V239H230.673ZM265.149 239.63C262.923 239.63 260.977 239.14 259.311 238.16C257.659 237.166 256.371 235.787 255.447 234.023C254.523 232.245 254.061 230.173 254.061 227.807C254.061 225.329 254.516 223.187 255.426 221.381C256.336 219.561 257.603 218.161 259.227 217.181C260.865 216.187 262.783 215.69 264.981 215.69C267.263 215.69 269.202 216.215 270.798 217.265C272.408 218.315 273.612 219.813 274.41 221.759C275.222 223.705 275.572 226.022 275.46 228.71H271.68V227.366C271.638 224.58 271.071 222.501 269.979 221.129C268.887 219.743 267.263 219.05 265.107 219.05C262.797 219.05 261.04 219.792 259.836 221.276C258.632 222.76 258.03 224.888 258.03 227.66C258.03 230.334 258.632 232.406 259.836 233.876C261.04 235.346 262.755 236.081 264.981 236.081C266.479 236.081 267.781 235.738 268.887 235.052C269.993 234.366 270.861 233.379 271.491 232.091L275.082 233.33C274.2 235.332 272.87 236.886 271.092 237.992C269.328 239.084 267.347 239.63 265.149 239.63ZM256.77 228.71V225.707H273.528V228.71H256.77ZM277.636 239L286.309 227.534L277.825 216.32H282.277L288.493 224.636L294.646 216.32H299.098L290.614 227.534L299.308 239H294.835L288.493 230.432L282.109 239H277.636ZM312.248 239.63C309.952 239.63 307.999 239.119 306.389 238.097C304.793 237.061 303.575 235.64 302.735 233.834C301.895 232.028 301.461 229.97 301.433 227.66C301.461 225.294 301.902 223.215 302.756 221.423C303.624 219.617 304.863 218.21 306.473 217.202C308.083 216.194 310.022 215.69 312.29 215.69C314.684 215.69 316.742 216.278 318.464 217.454C320.2 218.63 321.362 220.24 321.95 222.284L318.254 223.397C317.778 222.081 317.001 221.059 315.923 220.331C314.859 219.603 313.634 219.239 312.248 219.239C310.694 219.239 309.413 219.603 308.405 220.331C307.397 221.045 306.648 222.039 306.158 223.313C305.668 224.573 305.416 226.022 305.402 227.66C305.43 230.18 306.011 232.217 307.145 233.771C308.293 235.311 309.994 236.081 312.248 236.081C313.732 236.081 314.964 235.745 315.944 235.073C316.924 234.387 317.666 233.4 318.17 232.112L321.95 233.099C321.166 235.213 319.941 236.83 318.275 237.95C316.609 239.07 314.6 239.63 312.248 239.63ZM326.881 212.309V208.445H330.619V212.309H326.881ZM326.881 239V216.32H330.619V239H326.881ZM350.423 239C349.079 239.266 347.749 239.371 346.433 239.315C345.131 239.273 343.969 239.014 342.947 238.538C341.925 238.048 341.148 237.292 340.616 236.27C340.168 235.374 339.923 234.471 339.881 233.561C339.853 232.637 339.839 231.594 339.839 230.432V210.02H343.577V230.264C343.577 231.188 343.584 231.979 343.598 232.637C343.626 233.295 343.773 233.862 344.039 234.338C344.543 235.234 345.341 235.759 346.433 235.913C347.539 236.067 348.869 236.025 350.423 235.787V239ZM335.24 219.407V216.32H350.423V219.407H335.24ZM356.287 212.309V208.445H360.025V212.309H356.287ZM356.287 239V216.32H360.025V239H356.287ZM383.315 239V227.639C383.315 226.561 383.217 225.525 383.021 224.531C382.839 223.537 382.51 222.648 382.034 221.864C381.572 221.066 380.942 220.436 380.144 219.974C379.36 219.512 378.366 219.281 377.162 219.281C376.224 219.281 375.37 219.442 374.6 219.764C373.844 220.072 373.193 220.548 372.647 221.192C372.101 221.836 371.674 222.648 371.366 223.628C371.072 224.594 370.925 225.735 370.925 227.051L368.468 226.295C368.468 224.097 368.86 222.214 369.644 220.646C370.442 219.064 371.555 217.853 372.983 217.013C374.425 216.159 376.119 215.732 378.065 215.732C379.535 215.732 380.788 215.963 381.824 216.425C382.86 216.887 383.721 217.503 384.407 218.273C385.093 219.029 385.632 219.883 386.024 220.835C386.416 221.773 386.689 222.732 386.843 223.712C387.011 224.678 387.095 225.595 387.095 226.463V239H383.315ZM367.145 239V216.32H370.505V222.389H370.925V239H367.145ZM402.572 249.71C401.382 249.71 400.22 249.528 399.086 249.164C397.952 248.8 396.909 248.247 395.957 247.505C395.019 246.777 394.235 245.853 393.605 244.733L397.028 242.927C397.588 244.033 398.379 244.838 399.401 245.342C400.437 245.846 401.501 246.098 402.593 246.098C404.035 246.098 405.232 245.832 406.184 245.3C407.136 244.782 407.836 244.005 408.284 242.969C408.746 241.933 408.97 240.645 408.956 239.105V232.91H409.397V216.32H412.715V239.147C412.715 239.763 412.694 240.358 412.652 240.932C412.624 241.506 412.554 242.073 412.442 242.633C412.148 244.243 411.567 245.566 410.699 246.602C409.831 247.652 408.711 248.429 407.339 248.933C405.967 249.451 404.378 249.71 402.572 249.71ZM402.299 239.63C400.185 239.63 398.372 239.105 396.86 238.055C395.348 236.991 394.179 235.556 393.353 233.75C392.541 231.944 392.135 229.907 392.135 227.639C392.135 225.371 392.541 223.334 393.353 221.528C394.179 219.722 395.348 218.301 396.86 217.265C398.372 216.215 400.178 215.69 402.278 215.69C404.42 215.69 406.219 216.208 407.675 217.244C409.131 218.28 410.23 219.701 410.972 221.507C411.728 223.313 412.106 225.357 412.106 227.639C412.106 229.893 411.728 231.93 410.972 233.75C410.23 235.556 409.131 236.991 407.675 238.055C406.219 239.105 404.427 239.63 402.299 239.63ZM402.761 236.207C404.287 236.207 405.54 235.843 406.52 235.115C407.5 234.373 408.221 233.358 408.683 232.07C409.159 230.768 409.397 229.291 409.397 227.639C409.397 225.959 409.159 224.482 408.683 223.208C408.221 221.92 407.507 220.919 406.541 220.205C405.575 219.477 404.35 219.113 402.866 219.113C401.326 219.113 400.052 219.491 399.044 220.247C398.05 221.003 397.308 222.025 396.818 223.313C396.342 224.601 396.104 226.043 396.104 227.639C396.104 229.249 396.349 230.705 396.839 232.007C397.329 233.295 398.064 234.317 399.044 235.073C400.038 235.829 401.277 236.207 402.761 236.207ZM436.311 208.76H440.112L432.048 239H428.247L436.311 208.76ZM455.653 239V216.32H458.992V221.801L458.446 221.087C458.712 220.387 459.055 219.743 459.475 219.155C459.909 218.567 460.392 218.084 460.924 217.706C461.512 217.23 462.177 216.866 462.919 216.614C463.661 216.362 464.417 216.215 465.187 216.173C465.957 216.117 466.678 216.166 467.35 216.32V219.827C466.566 219.617 465.705 219.561 464.767 219.659C463.829 219.757 462.961 220.1 462.163 220.688C461.435 221.206 460.868 221.836 460.462 222.578C460.07 223.32 459.797 224.125 459.643 224.993C459.489 225.847 459.412 226.722 459.412 227.618V239H455.653ZM480.771 239.588C479.315 239.588 478.062 239.357 477.012 238.895C475.976 238.433 475.115 237.817 474.429 237.047C473.743 236.277 473.204 235.423 472.812 234.485C472.42 233.547 472.14 232.588 471.972 231.608C471.818 230.628 471.741 229.711 471.741 228.857V216.32H475.521V227.681C475.521 228.745 475.619 229.774 475.815 230.768C476.011 231.762 476.34 232.658 476.802 233.456C477.278 234.254 477.908 234.884 478.692 235.346C479.49 235.808 480.484 236.039 481.674 236.039C482.612 236.039 483.466 235.878 484.236 235.556C485.006 235.234 485.664 234.758 486.21 234.128C486.756 233.484 487.176 232.672 487.47 231.692C487.764 230.712 487.911 229.571 487.911 228.269L490.368 229.025C490.368 231.209 489.969 233.092 489.171 234.674C488.387 236.256 487.274 237.474 485.832 238.328C484.404 239.168 482.717 239.588 480.771 239.588ZM488.331 239V232.931H487.911V216.32H491.67V239H488.331ZM514.539 239V227.639C514.539 226.561 514.441 225.525 514.245 224.531C514.063 223.537 513.734 222.648 513.258 221.864C512.796 221.066 512.166 220.436 511.368 219.974C510.584 219.512 509.59 219.281 508.386 219.281C507.448 219.281 506.594 219.442 505.824 219.764C505.068 220.072 504.417 220.548 503.871 221.192C503.325 221.836 502.898 222.648 502.59 223.628C502.296 224.594 502.149 225.735 502.149 227.051L499.692 226.295C499.692 224.097 500.084 222.214 500.868 220.646C501.666 219.064 502.779 217.853 504.207 217.013C505.649 216.159 507.343 215.732 509.289 215.732C510.759 215.732 512.012 215.963 513.048 216.425C514.084 216.887 514.945 217.503 515.631 218.273C516.317 219.029 516.856 219.883 517.248 220.835C517.64 221.773 517.913 222.732 518.067 223.712C518.235 224.678 518.319 225.595 518.319 226.463V239H514.539ZM498.369 239V216.32H501.729V222.389H502.149V239H498.369ZM540.768 239V227.639C540.768 226.561 540.67 225.525 540.474 224.531C540.292 223.537 539.963 222.648 539.487 221.864C539.025 221.066 538.395 220.436 537.597 219.974C536.813 219.512 535.819 219.281 534.615 219.281C533.677 219.281 532.823 219.442 532.053 219.764C531.297 220.072 530.646 220.548 530.1 221.192C529.554 221.836 529.127 222.648 528.819 223.628C528.525 224.594 528.378 225.735 528.378 227.051L525.921 226.295C525.921 224.097 526.313 222.214 527.097 220.646C527.895 219.064 529.008 217.853 530.436 217.013C531.878 216.159 533.572 215.732 535.518 215.732C536.988 215.732 538.241 215.963 539.277 216.425C540.313 216.887 541.174 217.503 541.86 218.273C542.546 219.029 543.085 219.883 543.477 220.835C543.869 221.773 544.142 222.732 544.296 223.712C544.464 224.678 544.548 225.595 544.548 226.463V239H540.768ZM524.598 239V216.32H527.958V222.389H528.378V239H524.598ZM551.267 212.309V208.445H555.005V212.309H551.267ZM551.267 239V216.32H555.005V239H551.267ZM578.295 239V227.639C578.295 226.561 578.197 225.525 578.001 224.531C577.819 223.537 577.49 222.648 577.014 221.864C576.552 221.066 575.922 220.436 575.124 219.974C574.34 219.512 573.346 219.281 572.142 219.281C571.204 219.281 570.35 219.442 569.58 219.764C568.824 220.072 568.173 220.548 567.627 221.192C567.081 221.836 566.654 222.648 566.346 223.628C566.052 224.594 565.905 225.735 565.905 227.051L563.448 226.295C563.448 224.097 563.84 222.214 564.624 220.646C565.422 219.064 566.535 217.853 567.963 217.013C569.405 216.159 571.099 215.732 573.045 215.732C574.515 215.732 575.768 215.963 576.804 216.425C577.84 216.887 578.701 217.503 579.387 218.273C580.073 219.029 580.612 219.883 581.004 220.835C581.396 221.773 581.669 222.732 581.823 223.712C581.991 224.678 582.075 225.595 582.075 226.463V239H578.295ZM562.125 239V216.32H565.485V222.389H565.905V239H562.125ZM597.552 249.71C596.362 249.71 595.2 249.528 594.066 249.164C592.932 248.8 591.889 248.247 590.937 247.505C589.999 246.777 589.215 245.853 588.585 244.733L592.008 242.927C592.568 244.033 593.359 244.838 594.381 245.342C595.417 245.846 596.481 246.098 597.573 246.098C599.015 246.098 600.212 245.832 601.164 245.3C602.116 244.782 602.816 244.005 603.264 242.969C603.726 241.933 603.95 240.645 603.936 239.105V232.91H604.377V216.32H607.695V239.147C607.695 239.763 607.674 240.358 607.632 240.932C607.604 241.506 607.534 242.073 607.422 242.633C607.128 244.243 606.547 245.566 605.679 246.602C604.811 247.652 603.691 248.429 602.319 248.933C600.947 249.451 599.358 249.71 597.552 249.71ZM597.279 239.63C595.165 239.63 593.352 239.105 591.84 238.055C590.328 236.991 589.159 235.556 588.333 233.75C587.521 231.944 587.115 229.907 587.115 227.639C587.115 225.371 587.521 223.334 588.333 221.528C589.159 219.722 590.328 218.301 591.84 217.265C593.352 216.215 595.158 215.69 597.258 215.69C599.4 215.69 601.199 216.208 602.655 217.244C604.111 218.28 605.21 219.701 605.952 221.507C606.708 223.313 607.086 225.357 607.086 227.639C607.086 229.893 606.708 231.93 605.952 233.75C605.21 235.556 604.111 236.991 602.655 238.055C601.199 239.105 599.407 239.63 597.279 239.63ZM597.741 236.207C599.267 236.207 600.52 235.843 601.5 235.115C602.48 234.373 603.201 233.358 603.663 232.07C604.139 230.768 604.377 229.291 604.377 227.639C604.377 225.959 604.139 224.482 603.663 223.208C603.201 221.92 602.487 220.919 601.521 220.205C600.555 219.477 599.33 219.113 597.846 219.113C596.306 219.113 595.032 219.491 594.024 220.247C593.03 221.003 592.288 222.025 591.798 223.313C591.322 224.601 591.084 226.043 591.084 227.639C591.084 229.249 591.329 230.705 591.819 232.007C592.309 233.295 593.044 234.317 594.024 235.073C595.018 235.829 596.257 236.207 597.741 236.207ZM194.041 297.979L194.062 294.619L207.481 282.544C208.601 281.536 209.35 280.584 209.728 279.688C210.12 278.778 210.316 277.847 210.316 276.895C210.316 275.733 210.05 274.683 209.518 273.745C208.986 272.807 208.258 272.065 207.334 271.519C206.424 270.973 205.388 270.7 204.226 270.7C203.022 270.7 201.951 270.987 201.013 271.561C200.075 272.121 199.333 272.87 198.787 273.808C198.255 274.746 197.996 275.768 198.01 276.874H194.188C194.188 274.97 194.629 273.29 195.511 271.834C196.393 270.364 197.59 269.216 199.102 268.39C200.628 267.55 202.357 267.13 204.289 267.13C206.165 267.13 207.845 267.564 209.329 268.432C210.813 269.286 211.982 270.455 212.836 271.939C213.704 273.409 214.138 275.075 214.138 276.937C214.138 278.253 213.97 279.394 213.634 280.36C213.312 281.326 212.808 282.222 212.122 283.048C211.436 283.86 210.575 284.728 209.539 285.652L198.388 295.669L197.905 294.409H214.138V297.979H194.041ZM220.758 298V293.884H224.874V298H220.758ZM255.234 298.63C253.008 298.63 251.062 298.14 249.396 297.16C247.744 296.166 246.456 294.787 245.532 293.023C244.608 291.245 244.146 289.173 244.146 286.807C244.146 284.329 244.601 282.187 245.511 280.381C246.421 278.561 247.688 277.161 249.312 276.181C250.95 275.187 252.868 274.69 255.066 274.69C257.348 274.69 259.287 275.215 260.883 276.265C262.493 277.315 263.697 278.813 264.495 280.759C265.307 282.705 265.657 285.022 265.545 287.71H261.765V286.366C261.723 283.58 261.156 281.501 260.064 280.129C258.972 278.743 257.348 278.05 255.192 278.05C252.882 278.05 251.125 278.792 249.921 280.276C248.717 281.76 248.115 283.888 248.115 286.66C248.115 289.334 248.717 291.406 249.921 292.876C251.125 294.346 252.84 295.081 255.066 295.081C256.564 295.081 257.866 294.738 258.972 294.052C260.078 293.366 260.946 292.379 261.576 291.091L265.167 292.33C264.285 294.332 262.955 295.886 261.177 296.992C259.413 298.084 257.432 298.63 255.234 298.63ZM246.855 287.71V284.707H263.613V287.71H246.855ZM286.595 298V286.639C286.595 285.561 286.497 284.525 286.301 283.531C286.119 282.537 285.79 281.648 285.314 280.864C284.852 280.066 284.222 279.436 283.424 278.974C282.64 278.512 281.646 278.281 280.442 278.281C279.504 278.281 278.65 278.442 277.88 278.764C277.124 279.072 276.473 279.548 275.927 280.192C275.381 280.836 274.954 281.648 274.646 282.628C274.352 283.594 274.205 284.735 274.205 286.051L271.748 285.295C271.748 283.097 272.14 281.214 272.924 279.646C273.722 278.064 274.835 276.853 276.263 276.013C277.705 275.159 279.399 274.732 281.345 274.732C282.815 274.732 284.068 274.963 285.104 275.425C286.14 275.887 287.001 276.503 287.687 277.273C288.373 278.029 288.912 278.883 289.304 279.835C289.696 280.773 289.969 281.732 290.123 282.712C290.291 283.678 290.375 284.595 290.375 285.463V298H286.595ZM270.425 298V275.32H273.785V281.389H274.205V298H270.425ZM306.297 298.63C304.071 298.63 302.125 298.14 300.459 297.16C298.807 296.166 297.519 294.787 296.595 293.023C295.671 291.245 295.209 289.173 295.209 286.807C295.209 284.329 295.664 282.187 296.574 280.381C297.484 278.561 298.751 277.161 300.375 276.181C302.013 275.187 303.931 274.69 306.129 274.69C308.411 274.69 310.35 275.215 311.946 276.265C313.556 277.315 314.76 278.813 315.558 280.759C316.37 282.705 316.72 285.022 316.608 287.71H312.828V286.366C312.786 283.58 312.219 281.501 311.127 280.129C310.035 278.743 308.411 278.05 306.255 278.05C303.945 278.05 302.188 278.792 300.984 280.276C299.78 281.76 299.178 283.888 299.178 286.66C299.178 289.334 299.78 291.406 300.984 292.876C302.188 294.346 303.903 295.081 306.129 295.081C307.627 295.081 308.929 294.738 310.035 294.052C311.141 293.366 312.009 292.379 312.639 291.091L316.23 292.33C315.348 294.332 314.018 295.886 312.24 296.992C310.476 298.084 308.495 298.63 306.297 298.63ZM297.918 287.71V284.707H314.676V287.71H297.918ZM322.124 298V275.32H325.463V280.801L324.917 280.087C325.183 279.387 325.526 278.743 325.946 278.155C326.38 277.567 326.863 277.084 327.395 276.706C327.983 276.23 328.648 275.866 329.39 275.614C330.132 275.362 330.888 275.215 331.658 275.173C332.428 275.117 333.149 275.166 333.821 275.32V278.827C333.037 278.617 332.176 278.561 331.238 278.659C330.3 278.757 329.432 279.1 328.634 279.688C327.906 280.206 327.339 280.836 326.933 281.578C326.541 282.32 326.268 283.125 326.114 283.993C325.96 284.847 325.883 285.722 325.883 286.618V298H322.124ZM346.988 308.71C345.798 308.71 344.636 308.528 343.502 308.164C342.368 307.8 341.325 307.247 340.373 306.505C339.435 305.777 338.651 304.853 338.021 303.733L341.444 301.927C342.004 303.033 342.795 303.838 343.817 304.342C344.853 304.846 345.917 305.098 347.009 305.098C348.451 305.098 349.648 304.832 350.6 304.3C351.552 303.782 352.252 303.005 352.7 301.969C353.162 300.933 353.386 299.645 353.372 298.105V291.91H353.813V275.32H357.131V298.147C357.131 298.763 357.11 299.358 357.068 299.932C357.04 300.506 356.97 301.073 356.858 301.633C356.564 303.243 355.983 304.566 355.115 305.602C354.247 306.652 353.127 307.429 351.755 307.933C350.383 308.451 348.794 308.71 346.988 308.71ZM346.715 298.63C344.601 298.63 342.788 298.105 341.276 297.055C339.764 295.991 338.595 294.556 337.769 292.75C336.957 290.944 336.551 288.907 336.551 286.639C336.551 284.371 336.957 282.334 337.769 280.528C338.595 278.722 339.764 277.301 341.276 276.265C342.788 275.215 344.594 274.69 346.694 274.69C348.836 274.69 350.635 275.208 352.091 276.244C353.547 277.28 354.646 278.701 355.388 280.507C356.144 282.313 356.522 284.357 356.522 286.639C356.522 288.893 356.144 290.93 355.388 292.75C354.646 294.556 353.547 295.991 352.091 297.055C350.635 298.105 348.843 298.63 346.715 298.63ZM347.177 295.207C348.703 295.207 349.956 294.843 350.936 294.115C351.916 293.373 352.637 292.358 353.099 291.07C353.575 289.768 353.813 288.291 353.813 286.639C353.813 284.959 353.575 283.482 353.099 282.208C352.637 280.92 351.923 279.919 350.957 279.205C349.991 278.477 348.766 278.113 347.282 278.113C345.742 278.113 344.468 278.491 343.46 279.247C342.466 280.003 341.724 281.025 341.234 282.313C340.758 283.601 340.52 285.043 340.52 286.639C340.52 288.249 340.765 289.705 341.255 291.007C341.745 292.295 342.48 293.317 343.46 294.073C344.454 294.829 345.693 295.207 347.177 295.207ZM373.663 298.63C371.437 298.63 369.491 298.14 367.825 297.16C366.173 296.166 364.885 294.787 363.961 293.023C363.037 291.245 362.575 289.173 362.575 286.807C362.575 284.329 363.03 282.187 363.94 280.381C364.85 278.561 366.117 277.161 367.741 276.181C369.379 275.187 371.297 274.69 373.495 274.69C375.777 274.69 377.716 275.215 379.312 276.265C380.922 277.315 382.126 278.813 382.924 280.759C383.736 282.705 384.086 285.022 383.974 287.71H380.194V286.366C380.152 283.58 379.585 281.501 378.493 280.129C377.401 278.743 375.777 278.05 373.621 278.05C371.311 278.05 369.554 278.792 368.35 280.276C367.146 281.76 366.544 283.888 366.544 286.66C366.544 289.334 367.146 291.406 368.35 292.876C369.554 294.346 371.269 295.081 373.495 295.081C374.993 295.081 376.295 294.738 377.401 294.052C378.507 293.366 379.375 292.379 380.005 291.091L383.596 292.33C382.714 294.332 381.384 295.886 379.606 296.992C377.842 298.084 375.861 298.63 373.663 298.63ZM365.284 287.71V284.707H382.042V287.71H365.284ZM402.152 298C400.808 298.266 399.478 298.371 398.162 298.315C396.86 298.273 395.698 298.014 394.676 297.538C393.654 297.048 392.877 296.292 392.345 295.27C391.897 294.374 391.652 293.471 391.61 292.561C391.582 291.637 391.568 290.594 391.568 289.432V269.02H395.306V289.264C395.306 290.188 395.313 290.979 395.327 291.637C395.355 292.295 395.502 292.862 395.768 293.338C396.272 294.234 397.07 294.759 398.162 294.913C399.268 295.067 400.598 295.025 402.152 294.787V298ZM386.969 278.407V275.32H402.152V278.407H386.969ZM408.017 271.309V267.445H411.755V271.309H408.017ZM408.017 298V275.32H411.755V298H408.017ZM428.451 298.63C426.155 298.63 424.202 298.119 422.592 297.097C420.996 296.061 419.778 294.64 418.938 292.834C418.098 291.028 417.664 288.97 417.636 286.66C417.664 284.294 418.105 282.215 418.959 280.423C419.827 278.617 421.066 277.21 422.676 276.202C424.286 275.194 426.225 274.69 428.493 274.69C430.887 274.69 432.945 275.278 434.667 276.454C436.403 277.63 437.565 279.24 438.153 281.284L434.457 282.397C433.981 281.081 433.204 280.059 432.126 279.331C431.062 278.603 429.837 278.239 428.451 278.239C426.897 278.239 425.616 278.603 424.608 279.331C423.6 280.045 422.851 281.039 422.361 282.313C421.871 283.573 421.619 285.022 421.605 286.66C421.633 289.18 422.214 291.217 423.348 292.771C424.496 294.311 426.197 295.081 428.451 295.081C429.935 295.081 431.167 294.745 432.147 294.073C433.127 293.387 433.869 292.4 434.373 291.112L438.153 292.099C437.369 294.213 436.144 295.83 434.478 296.95C432.812 298.07 430.803 298.63 428.451 298.63ZM460.171 267.76H463.972L455.908 298H452.107L460.171 267.76ZM489.069 298.63C486.773 298.63 484.82 298.119 483.21 297.097C481.614 296.061 480.396 294.64 479.556 292.834C478.716 291.028 478.282 288.97 478.254 286.66C478.282 284.294 478.723 282.215 479.577 280.423C480.445 278.617 481.684 277.21 483.294 276.202C484.904 275.194 486.843 274.69 489.111 274.69C491.505 274.69 493.563 275.278 495.285 276.454C497.021 277.63 498.183 279.24 498.771 281.284L495.075 282.397C494.599 281.081 493.822 280.059 492.744 279.331C491.68 278.603 490.455 278.239 489.069 278.239C487.515 278.239 486.234 278.603 485.226 279.331C484.218 280.045 483.469 281.039 482.979 282.313C482.489 283.573 482.237 285.022 482.223 286.66C482.251 289.18 482.832 291.217 483.966 292.771C485.114 294.311 486.815 295.081 489.069 295.081C490.553 295.081 491.785 294.745 492.765 294.073C493.745 293.387 494.487 292.4 494.991 291.112L498.771 292.099C497.987 294.213 496.762 295.83 495.096 296.95C493.43 298.07 491.421 298.63 489.069 298.63ZM506.226 308.08L510.615 296.152L510.678 299.68L500.766 275.32H504.693L512.463 294.913H511.119L518.406 275.32H522.207L509.859 308.08H506.226ZM535.251 298.63C532.955 298.63 531.002 298.119 529.392 297.097C527.796 296.061 526.578 294.64 525.738 292.834C524.898 291.028 524.464 288.97 524.436 286.66C524.464 284.294 524.905 282.215 525.759 280.423C526.627 278.617 527.866 277.21 529.476 276.202C531.086 275.194 533.025 274.69 535.293 274.69C537.687 274.69 539.745 275.278 541.467 276.454C543.203 277.63 544.365 279.24 544.953 281.284L541.257 282.397C540.781 281.081 540.004 280.059 538.926 279.331C537.862 278.603 536.637 278.239 535.251 278.239C533.697 278.239 532.416 278.603 531.408 279.331C530.4 280.045 529.651 281.039 529.161 282.313C528.671 283.573 528.419 285.022 528.405 286.66C528.433 289.18 529.014 291.217 530.148 292.771C531.296 294.311 532.997 295.081 535.251 295.081C536.735 295.081 537.967 294.745 538.947 294.073C539.927 293.387 540.669 292.4 541.173 291.112L544.953 292.099C544.169 294.213 542.944 295.83 541.278 296.95C539.612 298.07 537.603 298.63 535.251 298.63ZM549.883 298V267.13H553.621V298H549.883ZM561.182 271.309V267.445H564.92V271.309H561.182ZM561.182 298V275.32H564.92V298H561.182ZM588.21 298V286.639C588.21 285.561 588.112 284.525 587.916 283.531C587.734 282.537 587.405 281.648 586.929 280.864C586.467 280.066 585.837 279.436 585.039 278.974C584.255 278.512 583.261 278.281 582.057 278.281C581.119 278.281 580.265 278.442 579.495 278.764C578.739 279.072 578.088 279.548 577.542 280.192C576.996 280.836 576.569 281.648 576.261 282.628C575.967 283.594 575.82 284.735 575.82 286.051L573.363 285.295C573.363 283.097 573.755 281.214 574.539 279.646C575.337 278.064 576.45 276.853 577.878 276.013C579.32 275.159 581.014 274.732 582.96 274.732C584.43 274.732 585.683 274.963 586.719 275.425C587.755 275.887 588.616 276.503 589.302 277.273C589.988 278.029 590.527 278.883 590.919 279.835C591.311 280.773 591.584 281.732 591.738 282.712C591.906 283.678 591.99 284.595 591.99 285.463V298H588.21ZM572.04 298V275.32H575.4V281.389H575.82V298H572.04ZM607.467 308.71C606.277 308.71 605.115 308.528 603.981 308.164C602.847 307.8 601.804 307.247 600.852 306.505C599.914 305.777 599.13 304.853 598.5 303.733L601.923 301.927C602.483 303.033 603.274 303.838 604.296 304.342C605.332 304.846 606.396 305.098 607.488 305.098C608.93 305.098 610.127 304.832 611.079 304.3C612.031 303.782 612.731 303.005 613.179 301.969C613.641 300.933 613.865 299.645 613.851 298.105V291.91H614.292V275.32H617.61V298.147C617.61 298.763 617.589 299.358 617.547 299.932C617.519 300.506 617.449 301.073 617.337 301.633C617.043 303.243 616.462 304.566 615.594 305.602C614.726 306.652 613.606 307.429 612.234 307.933C610.862 308.451 609.273 308.71 607.467 308.71ZM607.194 298.63C605.08 298.63 603.267 298.105 601.755 297.055C600.243 295.991 599.074 294.556 598.248 292.75C597.436 290.944 597.03 288.907 597.03 286.639C597.03 284.371 597.436 282.334 598.248 280.528C599.074 278.722 600.243 277.301 601.755 276.265C603.267 275.215 605.073 274.69 607.173 274.69C609.315 274.69 611.114 275.208 612.57 276.244C614.026 277.28 615.125 278.701 615.867 280.507C616.623 282.313 617.001 284.357 617.001 286.639C617.001 288.893 616.623 290.93 615.867 292.75C615.125 294.556 614.026 295.991 612.57 297.055C611.114 298.105 609.322 298.63 607.194 298.63ZM607.656 295.207C609.182 295.207 610.435 294.843 611.415 294.115C612.395 293.373 613.116 292.358 613.578 291.07C614.054 289.768 614.292 288.291 614.292 286.639C614.292 284.959 614.054 283.482 613.578 282.208C613.116 280.92 612.402 279.919 611.436 279.205C610.47 278.477 609.245 278.113 607.761 278.113C606.221 278.113 604.947 278.491 603.939 279.247C602.945 280.003 602.203 281.025 601.713 282.313C601.237 283.601 600.999 285.043 600.999 286.639C600.999 288.249 601.244 289.705 601.734 291.007C602.224 292.295 602.959 293.317 603.939 294.073C604.933 294.829 606.172 295.207 607.656 295.207ZM204.815 357.588C203.317 357.588 201.924 357.315 200.636 356.769C199.348 356.209 198.235 355.425 197.297 354.417C196.373 353.395 195.694 352.184 195.26 350.784L198.851 349.755C199.313 351.155 200.083 352.219 201.161 352.947C202.239 353.675 203.45 354.032 204.794 354.018C206.026 353.99 207.09 353.71 207.986 353.178C208.896 352.632 209.596 351.89 210.086 350.952C210.59 350.014 210.842 348.929 210.842 347.697C210.842 345.821 210.282 344.302 209.162 343.14C208.042 341.964 206.572 341.376 204.752 341.376C204.248 341.376 203.716 341.446 203.156 341.586C202.61 341.726 202.099 341.922 201.623 342.174L199.817 339.213L211.031 329.07L211.514 330.33H196.457V326.76H214.286V330.351L204.731 339.507L204.689 338.184C206.691 338.044 208.441 338.373 209.939 339.171C211.437 339.969 212.599 341.11 213.425 342.594C214.265 344.078 214.685 345.779 214.685 347.697C214.685 349.629 214.251 351.337 213.383 352.821C212.515 354.305 211.339 355.474 209.855 356.328C208.371 357.168 206.691 357.588 204.815 357.588ZM222.019 357V352.884H226.135V357H222.019ZM255.571 357.63C253.457 357.63 251.644 357.105 250.132 356.055C248.62 354.991 247.451 353.556 246.625 351.75C245.813 349.944 245.407 347.907 245.407 345.639C245.407 343.371 245.813 341.334 246.625 339.528C247.451 337.722 248.62 336.301 250.132 335.265C251.644 334.215 253.45 333.69 255.55 333.69C257.692 333.69 259.491 334.208 260.947 335.244C262.403 336.28 263.502 337.701 264.244 339.507C265 341.313 265.378 343.357 265.378 345.639C265.378 347.893 265 349.93 264.244 351.75C263.502 353.556 262.403 354.991 260.947 356.055C259.491 357.105 257.699 357.63 255.571 357.63ZM256.033 354.207C257.559 354.207 258.812 353.843 259.792 353.115C260.772 352.373 261.493 351.358 261.955 350.07C262.431 348.768 262.669 347.291 262.669 345.639C262.669 343.959 262.431 342.482 261.955 341.208C261.493 339.92 260.779 338.919 259.813 338.205C258.847 337.477 257.622 337.113 256.138 337.113C254.598 337.113 253.324 337.491 252.316 338.247C251.322 339.003 250.58 340.025 250.09 341.313C249.614 342.601 249.376 344.043 249.376 345.639C249.376 347.249 249.621 348.705 250.111 350.007C250.601 351.295 251.336 352.317 252.316 353.073C253.31 353.829 254.549 354.207 256.033 354.207ZM262.669 357V340.305H262.249V326.76H266.008V357H262.669ZM279.179 357.63C277.485 357.63 276.064 357.322 274.916 356.706C273.782 356.076 272.921 355.25 272.333 354.228C271.759 353.206 271.472 352.086 271.472 350.868C271.472 349.678 271.696 348.649 272.144 347.781C272.606 346.899 273.25 346.171 274.076 345.597C274.902 345.009 275.889 344.547 277.037 344.211C278.115 343.917 279.319 343.665 280.649 343.455C281.993 343.231 283.351 343.028 284.723 342.846C286.095 342.664 287.376 342.489 288.566 342.321L287.222 343.098C287.264 341.082 286.858 339.591 286.004 338.625C285.164 337.659 283.708 337.176 281.636 337.176C280.264 337.176 279.06 337.491 278.024 338.121C277.002 338.737 276.281 339.745 275.861 341.145L272.312 340.074C272.858 338.086 273.915 336.525 275.483 335.391C277.051 334.257 279.116 333.69 281.678 333.69C283.736 333.69 285.5 334.061 286.97 334.803C288.454 335.531 289.518 336.637 290.162 338.121C290.484 338.821 290.687 339.584 290.771 340.41C290.855 341.222 290.897 342.076 290.897 342.972V357H287.579V351.561L288.356 352.065C287.502 353.899 286.305 355.285 284.765 356.223C283.239 357.161 281.377 357.63 279.179 357.63ZM279.746 354.501C281.09 354.501 282.252 354.263 283.232 353.787C284.226 353.297 285.024 352.66 285.626 351.876C286.228 351.078 286.62 350.21 286.802 349.272C287.012 348.572 287.124 347.795 287.138 346.941C287.166 346.073 287.18 345.408 287.18 344.946L288.482 345.513C287.264 345.681 286.067 345.842 284.891 345.996C283.715 346.15 282.602 346.318 281.552 346.5C280.502 346.668 279.557 346.871 278.717 347.109C278.101 347.305 277.52 347.557 276.974 347.865C276.442 348.173 276.008 348.572 275.672 349.062C275.35 349.538 275.189 350.133 275.189 350.847C275.189 351.463 275.343 352.051 275.651 352.611C275.973 353.171 276.463 353.626 277.121 353.976C277.793 354.326 278.668 354.501 279.746 354.501ZM313.346 357V345.639C313.346 344.561 313.248 343.525 313.052 342.531C312.87 341.537 312.541 340.648 312.065 339.864C311.603 339.066 310.973 338.436 310.175 337.974C309.391 337.512 308.397 337.281 307.193 337.281C306.255 337.281 305.401 337.442 304.631 337.764C303.875 338.072 303.224 338.548 302.678 339.192C302.132 339.836 301.705 340.648 301.397 341.628C301.103 342.594 300.956 343.735 300.956 345.051L298.499 344.295C298.499 342.097 298.891 340.214 299.675 338.646C300.473 337.064 301.586 335.853 303.014 335.013C304.456 334.159 306.15 333.732 308.096 333.732C309.566 333.732 310.819 333.963 311.855 334.425C312.891 334.887 313.752 335.503 314.438 336.273C315.124 337.029 315.663 337.883 316.055 338.835C316.447 339.773 316.72 340.732 316.874 341.712C317.042 342.678 317.126 343.595 317.126 344.463V357H313.346ZM297.176 357V334.32H300.536V340.389H300.956V357H297.176ZM332.602 367.71C331.412 367.71 330.25 367.528 329.116 367.164C327.982 366.8 326.939 366.247 325.987 365.505C325.049 364.777 324.265 363.853 323.635 362.733L327.058 360.927C327.618 362.033 328.409 362.838 329.431 363.342C330.467 363.846 331.531 364.098 332.623 364.098C334.065 364.098 335.262 363.832 336.214 363.3C337.166 362.782 337.866 362.005 338.314 360.969C338.776 359.933 339 358.645 338.986 357.105V350.91H339.427V334.32H342.745V357.147C342.745 357.763 342.724 358.358 342.682 358.932C342.654 359.506 342.584 360.073 342.472 360.633C342.178 362.243 341.597 363.566 340.729 364.602C339.861 365.652 338.741 366.429 337.369 366.933C335.997 367.451 334.408 367.71 332.602 367.71ZM332.329 357.63C330.215 357.63 328.402 357.105 326.89 356.055C325.378 354.991 324.209 353.556 323.383 351.75C322.571 349.944 322.165 347.907 322.165 345.639C322.165 343.371 322.571 341.334 323.383 339.528C324.209 337.722 325.378 336.301 326.89 335.265C328.402 334.215 330.208 333.69 332.308 333.69C334.45 333.69 336.249 334.208 337.705 335.244C339.161 336.28 340.26 337.701 341.002 339.507C341.758 341.313 342.136 343.357 342.136 345.639C342.136 347.893 341.758 349.93 341.002 351.75C340.26 353.556 339.161 354.991 337.705 356.055C336.249 357.105 334.457 357.63 332.329 357.63ZM332.791 354.207C334.317 354.207 335.57 353.843 336.55 353.115C337.53 352.373 338.251 351.358 338.713 350.07C339.189 348.768 339.427 347.291 339.427 345.639C339.427 343.959 339.189 342.482 338.713 341.208C338.251 339.92 337.537 338.919 336.571 338.205C335.605 337.477 334.38 337.113 332.896 337.113C331.356 337.113 330.082 337.491 329.074 338.247C328.08 339.003 327.338 340.025 326.848 341.313C326.372 342.601 326.134 344.043 326.134 345.639C326.134 347.249 326.379 348.705 326.869 350.007C327.359 351.295 328.094 352.317 329.074 353.073C330.068 353.829 331.307 354.207 332.791 354.207ZM359.277 357.63C357.051 357.63 355.105 357.14 353.439 356.16C351.787 355.166 350.499 353.787 349.575 352.023C348.651 350.245 348.189 348.173 348.189 345.807C348.189 343.329 348.644 341.187 349.554 339.381C350.464 337.561 351.731 336.161 353.355 335.181C354.993 334.187 356.911 333.69 359.109 333.69C361.391 333.69 363.33 334.215 364.926 335.265C366.536 336.315 367.74 337.813 368.538 339.759C369.35 341.705 369.7 344.022 369.588 346.71H365.808V345.366C365.766 342.58 365.199 340.501 364.107 339.129C363.015 337.743 361.391 337.05 359.235 337.05C356.925 337.05 355.168 337.792 353.964 339.276C352.76 340.76 352.158 342.888 352.158 345.66C352.158 348.334 352.76 350.406 353.964 351.876C355.168 353.346 356.883 354.081 359.109 354.081C360.607 354.081 361.909 353.738 363.015 353.052C364.121 352.366 364.989 351.379 365.619 350.091L369.21 351.33C368.328 353.332 366.998 354.886 365.22 355.992C363.456 357.084 361.475 357.63 359.277 357.63ZM350.898 346.71V343.707H367.656V346.71H350.898ZM375.104 357V334.32H378.443V339.801L377.897 339.087C378.163 338.387 378.506 337.743 378.926 337.155C379.36 336.567 379.843 336.084 380.375 335.706C380.963 335.23 381.628 334.866 382.37 334.614C383.112 334.362 383.868 334.215 384.638 334.173C385.408 334.117 386.129 334.166 386.801 334.32V337.827C386.017 337.617 385.156 337.561 384.218 337.659C383.28 337.757 382.412 338.1 381.614 338.688C380.886 339.206 380.319 339.836 379.913 340.578C379.521 341.32 379.248 342.125 379.094 342.993C378.94 343.847 378.863 344.722 378.863 345.618V357H375.104ZM400.861 357.63C398.607 357.63 396.661 357.119 395.023 356.097C393.399 355.075 392.146 353.661 391.264 351.855C390.382 350.049 389.941 347.977 389.941 345.639C389.941 343.259 390.389 341.173 391.285 339.381C392.181 337.589 393.448 336.196 395.086 335.202C396.724 334.194 398.649 333.69 400.861 333.69C403.129 333.69 405.082 334.201 406.72 335.223C408.358 336.231 409.611 337.638 410.479 339.444C411.361 341.236 411.802 343.301 411.802 345.639C411.802 348.005 411.361 350.091 410.479 351.897C409.597 353.689 408.337 355.096 406.699 356.118C405.061 357.126 403.115 357.63 400.861 357.63ZM400.861 354.081C403.213 354.081 404.963 353.297 406.111 351.729C407.259 350.161 407.833 348.131 407.833 345.639C407.833 343.077 407.252 341.04 406.09 339.528C404.928 338.002 403.185 337.239 400.861 337.239C399.279 337.239 397.977 337.596 396.955 338.31C395.933 339.024 395.17 340.011 394.666 341.271C394.162 342.531 393.91 343.987 393.91 345.639C393.91 348.187 394.498 350.231 395.674 351.771C396.85 353.311 398.579 354.081 400.861 354.081ZM425.876 357.588C424.42 357.588 423.167 357.357 422.117 356.895C421.081 356.433 420.22 355.817 419.534 355.047C418.848 354.277 418.309 353.423 417.917 352.485C417.525 351.547 417.245 350.588 417.077 349.608C416.923 348.628 416.846 347.711 416.846 346.857V334.32H420.626V345.681C420.626 346.745 420.724 347.774 420.92 348.768C421.116 349.762 421.445 350.658 421.907 351.456C422.383 352.254 423.013 352.884 423.797 353.346C424.595 353.808 425.589 354.039 426.779 354.039C427.717 354.039 428.571 353.878 429.341 353.556C430.111 353.234 430.769 352.758 431.315 352.128C431.861 351.484 432.281 350.672 432.575 349.692C432.869 348.712 433.016 347.571 433.016 346.269L435.473 347.025C435.473 349.209 435.074 351.092 434.276 352.674C433.492 354.256 432.379 355.474 430.937 356.328C429.509 357.168 427.822 357.588 425.876 357.588ZM433.436 357V350.931H433.016V334.32H436.775V357H433.436ZM452.063 357.609C449.361 357.609 447.142 357.021 445.406 355.845C443.684 354.655 442.627 352.996 442.235 350.868L446.057 350.259C446.365 351.491 447.072 352.471 448.178 353.199C449.284 353.913 450.656 354.27 452.294 354.27C453.848 354.27 455.066 353.948 455.948 353.304C456.83 352.66 457.271 351.785 457.271 350.679C457.271 350.035 457.124 349.517 456.83 349.125C456.536 348.719 455.927 348.341 455.003 347.991C454.093 347.641 452.714 347.221 450.866 346.731C448.864 346.199 447.289 345.646 446.141 345.072C444.993 344.498 444.174 343.833 443.684 343.077C443.194 342.321 442.949 341.404 442.949 340.326C442.949 338.996 443.313 337.834 444.041 336.84C444.769 335.832 445.784 335.055 447.086 334.509C448.402 333.963 449.928 333.69 451.664 333.69C453.386 333.69 454.926 333.963 456.284 334.509C457.642 335.055 458.734 335.832 459.56 336.84C460.4 337.834 460.897 338.996 461.051 340.326L457.229 341.019C457.047 339.801 456.459 338.842 455.465 338.142C454.485 337.442 453.218 337.071 451.664 337.029C450.194 336.973 448.997 337.232 448.073 337.806C447.163 338.38 446.708 339.157 446.708 340.137C446.708 340.683 446.876 341.152 447.212 341.544C447.562 341.936 448.199 342.307 449.123 342.657C450.061 343.007 451.419 343.406 453.197 343.854C455.199 344.358 456.774 344.911 457.922 345.513C459.084 346.101 459.91 346.801 460.4 347.613C460.89 348.411 461.135 349.398 461.135 350.574C461.135 352.758 460.33 354.48 458.72 355.74C457.11 356.986 454.891 357.609 452.063 357.609ZM483.498 326.76H487.299L479.235 357H475.434L483.498 326.76ZM511.409 357.609C508.707 357.609 506.488 357.021 504.752 355.845C503.03 354.655 501.973 352.996 501.581 350.868L505.403 350.259C505.711 351.491 506.418 352.471 507.524 353.199C508.63 353.913 510.002 354.27 511.64 354.27C513.194 354.27 514.412 353.948 515.294 353.304C516.176 352.66 516.617 351.785 516.617 350.679C516.617 350.035 516.47 349.517 516.176 349.125C515.882 348.719 515.273 348.341 514.349 347.991C513.439 347.641 512.06 347.221 510.212 346.731C508.21 346.199 506.635 345.646 505.487 345.072C504.339 344.498 503.52 343.833 503.03 343.077C502.54 342.321 502.295 341.404 502.295 340.326C502.295 338.996 502.659 337.834 503.387 336.84C504.115 335.832 505.13 335.055 506.432 334.509C507.748 333.963 509.274 333.69 511.01 333.69C512.732 333.69 514.272 333.963 515.63 334.509C516.988 335.055 518.08 335.832 518.906 336.84C519.746 337.834 520.243 338.996 520.397 340.326L516.575 341.019C516.393 339.801 515.805 338.842 514.811 338.142C513.831 337.442 512.564 337.071 511.01 337.029C509.54 336.973 508.343 337.232 507.419 337.806C506.509 338.38 506.054 339.157 506.054 340.137C506.054 340.683 506.222 341.152 506.558 341.544C506.908 341.936 507.545 342.307 508.469 342.657C509.407 343.007 510.765 343.406 512.543 343.854C514.545 344.358 516.12 344.911 517.268 345.513C518.43 346.101 519.256 346.801 519.746 347.613C520.236 348.411 520.481 349.398 520.481 350.574C520.481 352.758 519.676 354.48 518.066 355.74C516.456 356.986 514.237 357.609 511.409 357.609ZM525.931 357L525.952 326.76H529.732V345.24L539.245 334.32H544.096L534.079 345.66L545.272 357H540.043L529.732 346.08V357H525.931ZM548.623 330.309V326.445H552.361V330.309H548.623ZM548.623 357V334.32H552.361V357H548.623ZM559.922 330.309V326.445H563.66V330.309H559.922ZM559.922 357V334.32H563.66V357H559.922ZM586.95 357V345.639C586.95 344.561 586.852 343.525 586.656 342.531C586.474 341.537 586.145 340.648 585.669 339.864C585.207 339.066 584.577 338.436 583.779 337.974C582.995 337.512 582.001 337.281 580.797 337.281C579.859 337.281 579.005 337.442 578.235 337.764C577.479 338.072 576.828 338.548 576.282 339.192C575.736 339.836 575.309 340.648 575.001 341.628C574.707 342.594 574.56 343.735 574.56 345.051L572.103 344.295C572.103 342.097 572.495 340.214 573.279 338.646C574.077 337.064 575.19 335.853 576.618 335.013C578.06 334.159 579.754 333.732 581.7 333.732C583.17 333.732 584.423 333.963 585.459 334.425C586.495 334.887 587.356 335.503 588.042 336.273C588.728 337.029 589.267 337.883 589.659 338.835C590.051 339.773 590.324 340.732 590.478 341.712C590.646 342.678 590.73 343.595 590.73 344.463V357H586.95ZM570.78 357V334.32H574.14V340.389H574.56V357H570.78ZM606.206 367.71C605.016 367.71 603.854 367.528 602.72 367.164C601.586 366.8 600.543 366.247 599.591 365.505C598.653 364.777 597.869 363.853 597.239 362.733L600.662 360.927C601.222 362.033 602.013 362.838 603.035 363.342C604.071 363.846 605.135 364.098 606.227 364.098C607.669 364.098 608.866 363.832 609.818 363.3C610.77 362.782 611.47 362.005 611.918 360.969C612.38 359.933 612.604 358.645 612.59 357.105V350.91H613.031V334.32H616.349V357.147C616.349 357.763 616.328 358.358 616.286 358.932C616.258 359.506 616.188 360.073 616.076 360.633C615.782 362.243 615.201 363.566 614.333 364.602C613.465 365.652 612.345 366.429 610.973 366.933C609.601 367.451 608.012 367.71 606.206 367.71ZM605.933 357.63C603.819 357.63 602.006 357.105 600.494 356.055C598.982 354.991 597.813 353.556 596.987 351.75C596.175 349.944 595.769 347.907 595.769 345.639C595.769 343.371 596.175 341.334 596.987 339.528C597.813 337.722 598.982 336.301 600.494 335.265C602.006 334.215 603.812 333.69 605.912 333.69C608.054 333.69 609.853 334.208 611.309 335.244C612.765 336.28 613.864 337.701 614.606 339.507C615.362 341.313 615.74 343.357 615.74 345.639C615.74 347.893 615.362 349.93 614.606 351.75C613.864 353.556 612.765 354.991 611.309 356.055C609.853 357.105 608.061 357.63 605.933 357.63ZM606.395 354.207C607.921 354.207 609.174 353.843 610.154 353.115C611.134 352.373 611.855 351.358 612.317 350.07C612.793 348.768 613.031 347.291 613.031 345.639C613.031 343.959 612.793 342.482 612.317 341.208C611.855 339.92 611.141 338.919 610.175 338.205C609.209 337.477 607.984 337.113 606.5 337.113C604.96 337.113 603.686 337.491 602.678 338.247C601.684 339.003 600.942 340.025 600.452 341.313C599.976 342.601 599.738 344.043 599.738 345.639C599.738 347.249 599.983 348.705 600.473 350.007C600.963 351.295 601.698 352.317 602.678 353.073C603.672 353.829 604.911 354.207 606.395 354.207Z" fill="#F4FDD3"></path></svg> 