<?xml version="1.0" encoding="UTF-8"?> <svg xmlns="http://www.w3.org/2000/svg" width="800" height="450" viewBox="0 0 800 450" fill="none"><rect width="800" height="450" rx="20" fill="#90AD26"></rect><path d="M299.983 132V91.68H316.643C317.035 91.68 317.539 91.6987 318.155 91.736C318.771 91.7547 319.341 91.8107 319.863 91.904C322.197 92.2587 324.119 93.0333 325.631 94.228C327.162 95.4227 328.291 96.9347 329.019 98.764C329.766 100.575 330.139 102.591 330.139 104.812C330.139 108.097 329.309 110.925 327.647 113.296C325.986 115.648 323.438 117.104 320.003 117.664L317.119 117.916H306.731V132H299.983ZM323.139 132L315.187 115.592L322.047 114.08L330.783 132H323.139ZM306.731 111.616H316.363C316.737 111.616 317.157 111.597 317.623 111.56C318.09 111.523 318.519 111.448 318.911 111.336C320.031 111.056 320.909 110.561 321.543 109.852C322.197 109.143 322.654 108.34 322.915 107.444C323.195 106.548 323.335 105.671 323.335 104.812C323.335 103.953 323.195 103.076 322.915 102.18C322.654 101.265 322.197 100.453 321.543 99.744C320.909 99.0347 320.031 98.54 318.911 98.26C318.519 98.148 318.09 98.0827 317.623 98.064C317.157 98.0267 316.737 98.008 316.363 98.008H306.731V111.616ZM354.312 132.84C351.101 132.84 348.273 132.187 345.828 130.88C343.401 129.573 341.497 127.735 340.116 125.364C338.753 122.993 338.072 120.212 338.072 117.02V91.736L344.904 91.68V116.852C344.904 118.364 345.156 119.717 345.66 120.912C346.183 122.107 346.883 123.124 347.76 123.964C348.637 124.785 349.645 125.411 350.784 125.84C351.923 126.269 353.099 126.484 354.312 126.484C355.563 126.484 356.748 126.269 357.868 125.84C359.007 125.392 360.015 124.757 360.892 123.936C361.769 123.096 362.46 122.079 362.964 120.884C363.468 119.689 363.72 118.345 363.72 116.852V91.68H370.552V117.02C370.552 120.212 369.861 122.993 368.48 125.364C367.117 127.735 365.213 129.573 362.768 130.88C360.341 132.187 357.523 132.84 354.312 132.84ZM392.725 132.84C389.776 132.84 387.116 132.327 384.745 131.3C382.393 130.273 380.452 128.808 378.921 126.904C377.409 124.981 376.448 122.704 376.037 120.072L383.037 119.008C383.635 121.397 384.857 123.245 386.705 124.552C388.572 125.859 390.719 126.512 393.145 126.512C394.583 126.512 395.936 126.288 397.205 125.84C398.475 125.392 399.501 124.739 400.285 123.88C401.088 123.021 401.489 121.967 401.489 120.716C401.489 120.156 401.396 119.643 401.209 119.176C401.023 118.691 400.743 118.261 400.369 117.888C400.015 117.515 399.548 117.179 398.969 116.88C398.409 116.563 397.756 116.292 397.009 116.068L386.593 112.988C385.697 112.727 384.727 112.381 383.681 111.952C382.655 111.504 381.675 110.897 380.741 110.132C379.827 109.348 379.071 108.359 378.473 107.164C377.895 105.951 377.605 104.457 377.605 102.684C377.605 100.089 378.259 97.9147 379.565 96.16C380.891 94.3867 382.664 93.0613 384.885 92.184C387.125 91.3067 389.608 90.8773 392.333 90.896C395.096 90.9147 397.56 91.3907 399.725 92.324C401.891 93.2387 403.701 94.5733 405.157 96.328C406.613 98.0827 407.64 100.201 408.237 102.684L400.985 103.944C400.687 102.525 400.108 101.321 399.249 100.332C398.409 99.324 397.373 98.5587 396.141 98.036C394.928 97.5133 393.631 97.2333 392.249 97.196C390.905 97.1773 389.655 97.3827 388.497 97.812C387.359 98.2227 386.435 98.82 385.725 99.604C385.035 100.388 384.689 101.303 384.689 102.348C384.689 103.337 384.988 104.149 385.585 104.784C386.183 105.4 386.92 105.895 387.797 106.268C388.693 106.623 389.599 106.921 390.513 107.164L397.737 109.18C398.727 109.441 399.837 109.796 401.069 110.244C402.301 110.692 403.487 111.317 404.625 112.12C405.764 112.923 406.697 113.977 407.425 115.284C408.172 116.591 408.545 118.252 408.545 120.268C408.545 122.359 408.107 124.197 407.229 125.784C406.371 127.352 405.204 128.659 403.729 129.704C402.255 130.749 400.565 131.533 398.661 132.056C396.776 132.579 394.797 132.84 392.725 132.84ZM431.47 132.84C428.521 132.84 425.861 132.327 423.49 131.3C421.138 130.273 419.197 128.808 417.666 126.904C416.154 124.981 415.193 122.704 414.782 120.072L421.782 119.008C422.38 121.397 423.602 123.245 425.45 124.552C427.317 125.859 429.464 126.512 431.89 126.512C433.328 126.512 434.681 126.288 435.95 125.84C437.22 125.392 438.246 124.739 439.03 123.88C439.833 123.021 440.234 121.967 440.234 120.716C440.234 120.156 440.141 119.643 439.954 119.176C439.768 118.691 439.488 118.261 439.114 117.888C438.76 117.515 438.293 117.179 437.714 116.88C437.154 116.563 436.501 116.292 435.754 116.068L425.338 112.988C424.442 112.727 423.472 112.381 422.426 111.952C421.4 111.504 420.42 110.897 419.486 110.132C418.572 109.348 417.816 108.359 417.218 107.164C416.64 105.951 416.35 104.457 416.35 102.684C416.35 100.089 417.004 97.9147 418.31 96.16C419.636 94.3867 421.409 93.0613 423.63 92.184C425.87 91.3067 428.353 90.8773 431.078 90.896C433.841 90.9147 436.305 91.3907 438.47 92.324C440.636 93.2387 442.446 94.5733 443.902 96.328C445.358 98.0827 446.385 100.201 446.982 102.684L439.73 103.944C439.432 102.525 438.853 101.321 437.994 100.332C437.154 99.324 436.118 98.5587 434.886 98.036C433.673 97.5133 432.376 97.2333 430.994 97.196C429.65 97.1773 428.4 97.3827 427.242 97.812C426.104 98.2227 425.18 98.82 424.47 99.604C423.78 100.388 423.434 101.303 423.434 102.348C423.434 103.337 423.733 104.149 424.33 104.784C424.928 105.4 425.665 105.895 426.542 106.268C427.438 106.623 428.344 106.921 429.258 107.164L436.482 109.18C437.472 109.441 438.582 109.796 439.814 110.244C441.046 110.692 442.232 111.317 443.37 112.12C444.509 112.923 445.442 113.977 446.17 115.284C446.917 116.591 447.29 118.252 447.29 120.268C447.29 122.359 446.852 124.197 445.974 125.784C445.116 127.352 443.949 128.659 442.474 129.704C441 130.749 439.31 131.533 437.406 132.056C435.521 132.579 433.542 132.84 431.47 132.84ZM455.031 132V91.68H461.779V132H455.031ZM468.486 132L481.198 91.68H491.082L503.794 132H496.85L485.314 95.824H486.826L475.43 132H468.486ZM475.57 123.264V116.964H496.738V123.264H475.57Z" fill="#F4FDD3"></path><path d="M205.678 239V212.897L199.987 216.341V212.162L205.678 208.76H209.479V239H205.678ZM222.714 239V234.884H226.83V239H222.714ZM256.917 239.63C254.621 239.63 252.668 239.119 251.058 238.097C249.462 237.061 248.244 235.64 247.404 233.834C246.564 232.028 246.13 229.97 246.102 227.66C246.13 225.294 246.571 223.215 247.425 221.423C248.293 219.617 249.532 218.21 251.142 217.202C252.752 216.194 254.691 215.69 256.959 215.69C259.353 215.69 261.411 216.278 263.133 217.454C264.869 218.63 266.031 220.24 266.619 222.284L262.923 223.397C262.447 222.081 261.67 221.059 260.592 220.331C259.528 219.603 258.303 219.239 256.917 219.239C255.363 219.239 254.082 219.603 253.074 220.331C252.066 221.045 251.317 222.039 250.827 223.313C250.337 224.573 250.085 226.022 250.071 227.66C250.099 230.18 250.68 232.217 251.814 233.771C252.962 235.311 254.663 236.081 256.917 236.081C258.401 236.081 259.633 235.745 260.613 235.073C261.593 234.387 262.335 233.4 262.839 232.112L266.619 233.099C265.835 235.213 264.61 236.83 262.944 237.95C261.278 239.07 259.269 239.63 256.917 239.63ZM280.79 239.63C278.536 239.63 276.59 239.119 274.952 238.097C273.328 237.075 272.075 235.661 271.193 233.855C270.311 232.049 269.87 229.977 269.87 227.639C269.87 225.259 270.318 223.173 271.214 221.381C272.11 219.589 273.377 218.196 275.015 217.202C276.653 216.194 278.578 215.69 280.79 215.69C283.058 215.69 285.011 216.201 286.649 217.223C288.287 218.231 289.54 219.638 290.408 221.444C291.29 223.236 291.731 225.301 291.731 227.639C291.731 230.005 291.29 232.091 290.408 233.897C289.526 235.689 288.266 237.096 286.628 238.118C284.99 239.126 283.044 239.63 280.79 239.63ZM280.79 236.081C283.142 236.081 284.892 235.297 286.04 233.729C287.188 232.161 287.762 230.131 287.762 227.639C287.762 225.077 287.181 223.04 286.019 221.528C284.857 220.002 283.114 219.239 280.79 219.239C279.208 219.239 277.906 219.596 276.884 220.31C275.862 221.024 275.099 222.011 274.595 223.271C274.091 224.531 273.839 225.987 273.839 227.639C273.839 230.187 274.427 232.231 275.603 233.771C276.779 235.311 278.508 236.081 280.79 236.081ZM297.615 239V208.13H301.353V239H297.615ZM317.398 239.63C315.284 239.63 313.471 239.105 311.959 238.055C310.447 236.991 309.278 235.556 308.452 233.75C307.64 231.944 307.234 229.907 307.234 227.639C307.234 225.371 307.64 223.334 308.452 221.528C309.278 219.722 310.447 218.301 311.959 217.265C313.471 216.215 315.277 215.69 317.377 215.69C319.519 215.69 321.318 216.208 322.774 217.244C324.23 218.28 325.329 219.701 326.071 221.507C326.827 223.313 327.205 225.357 327.205 227.639C327.205 229.893 326.827 231.93 326.071 233.75C325.329 235.556 324.23 236.991 322.774 238.055C321.318 239.105 319.526 239.63 317.398 239.63ZM317.86 236.207C319.386 236.207 320.639 235.843 321.619 235.115C322.599 234.373 323.32 233.358 323.782 232.07C324.258 230.768 324.496 229.291 324.496 227.639C324.496 225.959 324.258 224.482 323.782 223.208C323.32 221.92 322.606 220.919 321.64 220.205C320.674 219.477 319.449 219.113 317.965 219.113C316.425 219.113 315.151 219.491 314.143 220.247C313.149 221.003 312.407 222.025 311.917 223.313C311.441 224.601 311.203 226.043 311.203 227.639C311.203 229.249 311.448 230.705 311.938 232.007C312.428 233.295 313.163 234.317 314.143 235.073C315.137 235.829 316.376 236.207 317.86 236.207ZM324.496 239V222.305H324.076V208.76H327.835V239H324.496ZM351.451 208.76H355.252L347.188 239H343.387L351.451 208.76ZM381.524 239.63C379.382 239.63 377.45 239.266 375.728 238.538C374.02 237.81 372.606 236.774 371.486 235.43C370.38 234.072 369.659 232.469 369.323 230.621L373.187 230.012C373.677 231.916 374.692 233.407 376.232 234.485C377.786 235.549 379.613 236.081 381.713 236.081C383.071 236.081 384.296 235.871 385.388 235.451C386.494 235.017 387.369 234.401 388.013 233.603C388.657 232.805 388.979 231.86 388.979 230.768C388.979 230.096 388.86 229.522 388.622 229.046C388.398 228.556 388.083 228.143 387.677 227.807C387.285 227.457 386.837 227.163 386.333 226.925C385.829 226.687 385.304 226.491 384.758 226.337L377.051 224.048C376.211 223.796 375.399 223.481 374.615 223.103C373.831 222.711 373.131 222.228 372.515 221.654C371.899 221.066 371.409 220.366 371.045 219.554C370.681 218.728 370.499 217.755 370.499 216.635C370.499 214.843 370.961 213.317 371.885 212.057C372.823 210.783 374.09 209.81 375.686 209.138C377.282 208.466 379.081 208.137 381.083 208.151C383.113 208.165 384.926 208.529 386.522 209.243C388.132 209.943 389.462 210.951 390.512 212.267C391.576 213.583 392.29 215.158 392.654 216.992L388.685 217.685C388.475 216.453 388.006 215.396 387.278 214.514C386.564 213.618 385.668 212.932 384.59 212.456C383.512 211.966 382.329 211.714 381.041 211.7C379.809 211.686 378.696 211.882 377.702 212.288C376.708 212.694 375.917 213.261 375.329 213.989C374.741 214.703 374.447 215.529 374.447 216.467C374.447 217.391 374.713 218.14 375.245 218.714C375.777 219.274 376.428 219.722 377.198 220.058C377.982 220.38 378.745 220.646 379.487 220.856L385.241 222.515C385.899 222.697 386.655 222.949 387.509 223.271C388.377 223.593 389.217 224.048 390.029 224.636C390.841 225.21 391.513 225.98 392.045 226.946C392.577 227.898 392.843 229.102 392.843 230.558C392.843 232.014 392.549 233.309 391.961 234.443C391.387 235.577 390.582 236.529 389.546 237.299C388.51 238.055 387.306 238.629 385.934 239.021C384.562 239.427 383.092 239.63 381.524 239.63ZM407.748 239.63C405.494 239.63 403.548 239.119 401.91 238.097C400.286 237.075 399.033 235.661 398.151 233.855C397.269 232.049 396.828 229.977 396.828 227.639C396.828 225.259 397.276 223.173 398.172 221.381C399.068 219.589 400.335 218.196 401.973 217.202C403.611 216.194 405.536 215.69 407.748 215.69C410.016 215.69 411.969 216.201 413.607 217.223C415.245 218.231 416.498 219.638 417.366 221.444C418.248 223.236 418.689 225.301 418.689 227.639C418.689 230.005 418.248 232.091 417.366 233.897C416.484 235.689 415.224 237.096 413.586 238.118C411.948 239.126 410.002 239.63 407.748 239.63ZM407.748 236.081C410.1 236.081 411.85 235.297 412.998 233.729C414.146 232.161 414.72 230.131 414.72 227.639C414.72 225.077 414.139 223.04 412.977 221.528C411.815 220.002 410.072 219.239 407.748 219.239C406.166 219.239 404.864 219.596 403.842 220.31C402.82 221.024 402.057 222.011 401.553 223.271C401.049 224.531 400.797 225.987 400.797 227.639C400.797 230.187 401.385 232.231 402.561 233.771C403.737 235.311 405.466 236.081 407.748 236.081ZM432.763 239.588C431.307 239.588 430.054 239.357 429.004 238.895C427.968 238.433 427.107 237.817 426.421 237.047C425.735 236.277 425.196 235.423 424.804 234.485C424.412 233.547 424.132 232.588 423.964 231.608C423.81 230.628 423.733 229.711 423.733 228.857V216.32H427.513V227.681C427.513 228.745 427.611 229.774 427.807 230.768C428.003 231.762 428.332 232.658 428.794 233.456C429.27 234.254 429.9 234.884 430.684 235.346C431.482 235.808 432.476 236.039 433.666 236.039C434.604 236.039 435.458 235.878 436.228 235.556C436.998 235.234 437.656 234.758 438.202 234.128C438.748 233.484 439.168 232.672 439.462 231.692C439.756 230.712 439.903 229.571 439.903 228.269L442.36 229.025C442.36 231.209 441.961 233.092 441.163 234.674C440.379 236.256 439.266 237.474 437.824 238.328C436.396 239.168 434.709 239.588 432.763 239.588ZM440.323 239V232.931H439.903V216.32H443.662V239H440.323ZM463.045 239C461.701 239.266 460.371 239.371 459.055 239.315C457.753 239.273 456.591 239.014 455.569 238.538C454.547 238.048 453.77 237.292 453.238 236.27C452.79 235.374 452.545 234.471 452.503 233.561C452.475 232.637 452.461 231.594 452.461 230.432V210.02H456.199V230.264C456.199 231.188 456.206 231.979 456.22 232.637C456.248 233.295 456.395 233.862 456.661 234.338C457.165 235.234 457.963 235.759 459.055 235.913C460.161 236.067 461.491 236.025 463.045 235.787V239ZM447.862 219.407V216.32H463.045V219.407H447.862ZM484.638 239V227.639C484.638 226.561 484.54 225.525 484.344 224.531C484.162 223.537 483.833 222.648 483.357 221.864C482.895 221.066 482.265 220.436 481.467 219.974C480.683 219.512 479.689 219.281 478.485 219.281C477.547 219.281 476.693 219.442 475.923 219.764C475.167 220.072 474.516 220.548 473.97 221.192C473.424 221.836 472.997 222.648 472.689 223.628C472.395 224.594 472.248 225.735 472.248 227.051L469.791 226.295C469.791 224.097 470.183 222.214 470.967 220.646C471.765 219.064 472.878 217.853 474.306 217.013C475.748 216.159 477.442 215.732 479.388 215.732C480.858 215.732 482.111 215.963 483.147 216.425C484.183 216.887 485.044 217.503 485.73 218.273C486.416 219.029 486.955 219.883 487.347 220.835C487.739 221.773 488.012 222.732 488.166 223.712C488.334 224.678 488.418 225.595 488.418 226.463V239H484.638ZM468.468 239V208.76H471.828V225.455H472.248V239H468.468ZM501.866 239L511.988 208.76H517.196L527.318 239H523.433L513.962 210.944H515.138L505.751 239H501.866ZM506.738 231.923V228.416H522.446V231.923H506.738ZM533.014 239V215.081C533.014 214.493 533.042 213.898 533.098 213.296C533.154 212.68 533.28 212.085 533.476 211.511C533.672 210.923 533.994 210.384 534.442 209.894C534.96 209.32 535.527 208.914 536.143 208.676C536.759 208.424 537.382 208.27 538.012 208.214C538.656 208.158 539.265 208.13 539.839 208.13H542.716V211.238H540.049C538.943 211.238 538.117 211.511 537.571 212.057C537.025 212.589 536.752 213.401 536.752 214.493V239H533.014ZM529.171 219.407V216.32H542.716V219.407H529.171ZM546.908 239V216.32H550.247V221.801L549.701 221.087C549.967 220.387 550.31 219.743 550.73 219.155C551.164 218.567 551.647 218.084 552.179 217.706C552.767 217.23 553.432 216.866 554.174 216.614C554.916 216.362 555.672 216.215 556.442 216.173C557.212 216.117 557.933 216.166 558.605 216.32V219.827C557.821 219.617 556.96 219.561 556.022 219.659C555.084 219.757 554.216 220.1 553.418 220.688C552.69 221.206 552.123 221.836 551.717 222.578C551.325 223.32 551.052 224.125 550.898 224.993C550.744 225.847 550.667 226.722 550.667 227.618V239H546.908ZM563.836 212.309V208.445H567.574V212.309H563.836ZM563.836 239V216.32H567.574V239H563.836ZM584.27 239.63C581.974 239.63 580.021 239.119 578.411 238.097C576.815 237.061 575.597 235.64 574.757 233.834C573.917 232.028 573.483 229.97 573.455 227.66C573.483 225.294 573.924 223.215 574.778 221.423C575.646 219.617 576.885 218.21 578.495 217.202C580.105 216.194 582.044 215.69 584.312 215.69C586.706 215.69 588.764 216.278 590.486 217.454C592.222 218.63 593.384 220.24 593.972 222.284L590.276 223.397C589.8 222.081 589.023 221.059 587.945 220.331C586.881 219.603 585.656 219.239 584.27 219.239C582.716 219.239 581.435 219.603 580.427 220.331C579.419 221.045 578.67 222.039 578.18 223.313C577.69 224.573 577.438 226.022 577.424 227.66C577.452 230.18 578.033 232.217 579.167 233.771C580.315 235.311 582.016 236.081 584.27 236.081C585.754 236.081 586.986 235.745 587.966 235.073C588.946 234.387 589.688 233.4 590.192 232.112L593.972 233.099C593.188 235.213 591.963 236.83 590.297 237.95C588.631 239.07 586.622 239.63 584.27 239.63ZM605.34 239.63C603.646 239.63 602.225 239.322 601.077 238.706C599.943 238.076 599.082 237.25 598.494 236.228C597.92 235.206 597.633 234.086 597.633 232.868C597.633 231.678 597.857 230.649 598.305 229.781C598.767 228.899 599.411 228.171 600.237 227.597C601.063 227.009 602.05 226.547 603.198 226.211C604.276 225.917 605.48 225.665 606.81 225.455C608.154 225.231 609.512 225.028 610.884 224.846C612.256 224.664 613.537 224.489 614.727 224.321L613.383 225.098C613.425 223.082 613.019 221.591 612.165 220.625C611.325 219.659 609.869 219.176 607.797 219.176C606.425 219.176 605.221 219.491 604.185 220.121C603.163 220.737 602.442 221.745 602.022 223.145L598.473 222.074C599.019 220.086 600.076 218.525 601.644 217.391C603.212 216.257 605.277 215.69 607.839 215.69C609.897 215.69 611.661 216.061 613.131 216.803C614.615 217.531 615.679 218.637 616.323 220.121C616.645 220.821 616.848 221.584 616.932 222.41C617.016 223.222 617.058 224.076 617.058 224.972V239H613.74V233.561L614.517 234.065C613.663 235.899 612.466 237.285 610.926 238.223C609.4 239.161 607.538 239.63 605.34 239.63ZM605.907 236.501C607.251 236.501 608.413 236.263 609.393 235.787C610.387 235.297 611.185 234.66 611.787 233.876C612.389 233.078 612.781 232.21 612.963 231.272C613.173 230.572 613.285 229.795 613.299 228.941C613.327 228.073 613.341 227.408 613.341 226.946L614.643 227.513C613.425 227.681 612.228 227.842 611.052 227.996C609.876 228.15 608.763 228.318 607.713 228.5C606.663 228.668 605.718 228.871 604.878 229.109C604.262 229.305 603.681 229.557 603.135 229.865C602.603 230.173 602.169 230.572 601.833 231.062C601.511 231.538 601.35 232.133 601.35 232.847C601.35 233.463 601.504 234.051 601.812 234.611C602.134 235.171 602.624 235.626 603.282 235.976C603.954 236.326 604.829 236.501 605.907 236.501ZM242.466 297.979L242.487 294.619L255.906 282.544C257.026 281.536 257.775 280.584 258.153 279.688C258.545 278.778 258.741 277.847 258.741 276.895C258.741 275.733 258.475 274.683 257.943 273.745C257.411 272.807 256.683 272.065 255.759 271.519C254.849 270.973 253.813 270.7 252.651 270.7C251.447 270.7 250.376 270.987 249.438 271.561C248.5 272.121 247.758 272.87 247.212 273.808C246.68 274.746 246.421 275.768 246.435 276.874H242.613C242.613 274.97 243.054 273.29 243.936 271.834C244.818 270.364 246.015 269.216 247.527 268.39C249.053 267.55 250.782 267.13 252.714 267.13C254.59 267.13 256.27 267.564 257.754 268.432C259.238 269.286 260.407 270.455 261.261 271.939C262.129 273.409 262.563 275.075 262.563 276.937C262.563 278.253 262.395 279.394 262.059 280.36C261.737 281.326 261.233 282.222 260.547 283.048C259.861 283.86 259 284.728 257.964 285.652L246.813 295.669L246.33 294.409H262.563V297.979H242.466ZM269.182 298V293.884H273.298V298H269.182ZM304.247 298.63C302.119 298.63 300.327 298.105 298.871 297.055C297.415 295.991 296.309 294.556 295.553 292.75C294.811 290.93 294.44 288.893 294.44 286.639C294.44 284.357 294.811 282.313 295.553 280.507C296.309 278.701 297.415 277.28 298.871 276.244C300.341 275.208 302.14 274.69 304.268 274.69C306.368 274.69 308.174 275.215 309.686 276.265C311.212 277.301 312.381 278.722 313.193 280.528C314.005 282.334 314.411 284.371 314.411 286.639C314.411 288.907 314.005 290.944 313.193 292.75C312.381 294.556 311.212 295.991 309.686 297.055C308.174 298.105 306.361 298.63 304.247 298.63ZM293.81 298V267.76H297.569V281.305H297.149V298H293.81ZM303.785 295.207C305.283 295.207 306.522 294.829 307.502 294.073C308.482 293.317 309.217 292.295 309.707 291.007C310.197 289.705 310.442 288.249 310.442 286.639C310.442 285.043 310.197 283.601 309.707 282.313C309.231 281.025 308.489 280.003 307.481 279.247C306.487 278.491 305.22 278.113 303.68 278.113C302.21 278.113 300.992 278.477 300.026 279.205C299.06 279.919 298.339 280.92 297.863 282.208C297.387 283.482 297.149 284.959 297.149 286.639C297.149 288.291 297.38 289.768 297.842 291.07C298.318 292.358 299.046 293.373 300.026 294.115C301.006 294.843 302.259 295.207 303.785 295.207ZM320.274 271.309V267.445H324.012V271.309H320.274ZM320.274 298V275.32H324.012V298H320.274ZM340.33 308.71C339.14 308.71 337.978 308.528 336.844 308.164C335.71 307.8 334.667 307.247 333.715 306.505C332.777 305.777 331.993 304.853 331.363 303.733L334.786 301.927C335.346 303.033 336.137 303.838 337.159 304.342C338.195 304.846 339.259 305.098 340.351 305.098C341.793 305.098 342.99 304.832 343.942 304.3C344.894 303.782 345.594 303.005 346.042 301.969C346.504 300.933 346.728 299.645 346.714 298.105V291.91H347.155V275.32H350.473V298.147C350.473 298.763 350.452 299.358 350.41 299.932C350.382 300.506 350.312 301.073 350.2 301.633C349.906 303.243 349.325 304.566 348.457 305.602C347.589 306.652 346.469 307.429 345.097 307.933C343.725 308.451 342.136 308.71 340.33 308.71ZM340.057 298.63C337.943 298.63 336.13 298.105 334.618 297.055C333.106 295.991 331.937 294.556 331.111 292.75C330.299 290.944 329.893 288.907 329.893 286.639C329.893 284.371 330.299 282.334 331.111 280.528C331.937 278.722 333.106 277.301 334.618 276.265C336.13 275.215 337.936 274.69 340.036 274.69C342.178 274.69 343.977 275.208 345.433 276.244C346.889 277.28 347.988 278.701 348.73 280.507C349.486 282.313 349.864 284.357 349.864 286.639C349.864 288.893 349.486 290.93 348.73 292.75C347.988 294.556 346.889 295.991 345.433 297.055C343.977 298.105 342.185 298.63 340.057 298.63ZM340.519 295.207C342.045 295.207 343.298 294.843 344.278 294.115C345.258 293.373 345.979 292.358 346.441 291.07C346.917 289.768 347.155 288.291 347.155 286.639C347.155 284.959 346.917 283.482 346.441 282.208C345.979 280.92 345.265 279.919 344.299 279.205C343.333 278.477 342.108 278.113 340.624 278.113C339.084 278.113 337.81 278.491 336.802 279.247C335.808 280.003 335.066 281.025 334.576 282.313C334.1 283.601 333.862 285.043 333.862 286.639C333.862 288.249 334.107 289.705 334.597 291.007C335.087 292.295 335.822 293.317 336.802 294.073C337.796 294.829 339.035 295.207 340.519 295.207ZM374.069 267.76H377.87L369.806 298H366.005L374.069 267.76ZM405.655 298.63C403.583 298.63 401.693 298.266 399.985 297.538C398.277 296.81 396.807 295.767 395.575 294.409C394.343 293.037 393.391 291.385 392.719 289.453C392.061 287.507 391.732 285.316 391.732 282.88C391.732 279.66 392.306 276.874 393.454 274.522C394.602 272.17 396.219 270.357 398.305 269.083C400.391 267.795 402.841 267.151 405.655 267.151C409.043 267.151 411.773 267.942 413.845 269.524C415.917 271.092 417.345 273.241 418.129 275.971L414.349 276.748C413.719 274.914 412.683 273.451 411.241 272.359C409.799 271.267 408 270.721 405.844 270.721C403.59 270.707 401.714 271.211 400.216 272.233C398.732 273.241 397.612 274.662 396.856 276.496C396.1 278.33 395.715 280.458 395.701 282.88C395.687 285.288 396.058 287.402 396.814 289.222C397.57 291.042 398.697 292.47 400.195 293.506C401.707 294.528 403.59 295.046 405.844 295.06C407.79 295.074 409.428 294.703 410.758 293.947C412.088 293.191 413.117 292.099 413.845 290.671C414.573 289.243 415.014 287.528 415.168 285.526H408.742V282.439H419.116C419.158 282.719 419.179 283.055 419.179 283.447C419.193 283.825 419.2 284.084 419.2 284.224C419.2 286.982 418.682 289.453 417.646 291.637C416.624 293.807 415.105 295.515 413.089 296.761C411.087 298.007 408.609 298.63 405.655 298.63ZM434.062 298.63C431.836 298.63 429.89 298.14 428.224 297.16C426.572 296.166 425.284 294.787 424.36 293.023C423.436 291.245 422.974 289.173 422.974 286.807C422.974 284.329 423.429 282.187 424.339 280.381C425.249 278.561 426.516 277.161 428.14 276.181C429.778 275.187 431.696 274.69 433.894 274.69C436.176 274.69 438.115 275.215 439.711 276.265C441.321 277.315 442.525 278.813 443.323 280.759C444.135 282.705 444.485 285.022 444.373 287.71H440.593V286.366C440.551 283.58 439.984 281.501 438.892 280.129C437.8 278.743 436.176 278.05 434.02 278.05C431.71 278.05 429.953 278.792 428.749 280.276C427.545 281.76 426.943 283.888 426.943 286.66C426.943 289.334 427.545 291.406 428.749 292.876C429.953 294.346 431.668 295.081 433.894 295.081C435.392 295.081 436.694 294.738 437.8 294.052C438.906 293.366 439.774 292.379 440.404 291.091L443.995 292.33C443.113 294.332 441.783 295.886 440.005 296.992C438.241 298.084 436.26 298.63 434.062 298.63ZM425.683 287.71V284.707H442.441V287.71H425.683ZM449.889 298V275.32H453.228V280.801L452.682 280.087C452.948 279.387 453.291 278.743 453.711 278.155C454.145 277.567 454.628 277.084 455.16 276.706C455.748 276.23 456.413 275.866 457.155 275.614C457.897 275.362 458.653 275.215 459.423 275.173C460.193 275.117 460.914 275.166 461.586 275.32V278.827C460.802 278.617 459.941 278.561 459.003 278.659C458.065 278.757 457.197 279.1 456.399 279.688C455.671 280.206 455.104 280.836 454.698 281.578C454.306 282.32 454.033 283.125 453.879 283.993C453.725 284.847 453.648 285.722 453.648 286.618V298H449.889ZM493.508 298L493.529 283.489C493.529 281.795 493.074 280.472 492.164 279.52C491.268 278.554 490.099 278.071 488.657 278.071C487.817 278.071 487.019 278.267 486.263 278.659C485.507 279.037 484.891 279.639 484.415 280.465C483.939 281.277 483.701 282.32 483.701 283.594L481.727 282.796C481.699 281.186 482.028 279.779 482.714 278.575C483.414 277.357 484.366 276.412 485.57 275.74C486.774 275.068 488.132 274.732 489.644 274.732C492.01 274.732 493.872 275.453 495.23 276.895C496.588 278.323 497.267 280.248 497.267 282.67L497.246 298H493.508ZM466.376 298V275.32H469.715V281.389H470.135V298H466.376ZM479.963 298L479.984 283.636C479.984 281.9 479.536 280.542 478.64 279.562C477.744 278.568 476.554 278.071 475.07 278.071C473.6 278.071 472.41 278.575 471.5 279.583C470.59 280.591 470.135 281.928 470.135 283.594L468.161 282.418C468.161 280.948 468.511 279.632 469.211 278.47C469.911 277.308 470.863 276.398 472.067 275.74C473.271 275.068 474.636 274.732 476.162 274.732C477.688 274.732 479.018 275.054 480.152 275.698C481.286 276.342 482.161 277.266 482.777 278.47C483.393 279.66 483.701 281.081 483.701 282.733L483.68 298H479.963ZM510.023 298.63C508.329 298.63 506.908 298.322 505.76 297.706C504.626 297.076 503.765 296.25 503.177 295.228C502.603 294.206 502.316 293.086 502.316 291.868C502.316 290.678 502.54 289.649 502.988 288.781C503.45 287.899 504.094 287.171 504.92 286.597C505.746 286.009 506.733 285.547 507.881 285.211C508.959 284.917 510.163 284.665 511.493 284.455C512.837 284.231 514.195 284.028 515.567 283.846C516.939 283.664 518.22 283.489 519.41 283.321L518.066 284.098C518.108 282.082 517.702 280.591 516.848 279.625C516.008 278.659 514.552 278.176 512.48 278.176C511.108 278.176 509.904 278.491 508.868 279.121C507.846 279.737 507.125 280.745 506.705 282.145L503.156 281.074C503.702 279.086 504.759 277.525 506.327 276.391C507.895 275.257 509.96 274.69 512.522 274.69C514.58 274.69 516.344 275.061 517.814 275.803C519.298 276.531 520.362 277.637 521.006 279.121C521.328 279.821 521.531 280.584 521.615 281.41C521.699 282.222 521.741 283.076 521.741 283.972V298H518.423V292.561L519.2 293.065C518.346 294.899 517.149 296.285 515.609 297.223C514.083 298.161 512.221 298.63 510.023 298.63ZM510.59 295.501C511.934 295.501 513.096 295.263 514.076 294.787C515.07 294.297 515.868 293.66 516.47 292.876C517.072 292.078 517.464 291.21 517.646 290.272C517.856 289.572 517.968 288.795 517.982 287.941C518.01 287.073 518.024 286.408 518.024 285.946L519.326 286.513C518.108 286.681 516.911 286.842 515.735 286.996C514.559 287.15 513.446 287.318 512.396 287.5C511.346 287.668 510.401 287.871 509.561 288.109C508.945 288.305 508.364 288.557 507.818 288.865C507.286 289.173 506.852 289.572 506.516 290.062C506.194 290.538 506.033 291.133 506.033 291.847C506.033 292.463 506.187 293.051 506.495 293.611C506.817 294.171 507.307 294.626 507.965 294.976C508.637 295.326 509.512 295.501 510.59 295.501ZM544.19 298V286.639C544.19 285.561 544.092 284.525 543.896 283.531C543.714 282.537 543.385 281.648 542.909 280.864C542.447 280.066 541.817 279.436 541.019 278.974C540.235 278.512 539.241 278.281 538.037 278.281C537.099 278.281 536.245 278.442 535.475 278.764C534.719 279.072 534.068 279.548 533.522 280.192C532.976 280.836 532.549 281.648 532.241 282.628C531.947 283.594 531.8 284.735 531.8 286.051L529.343 285.295C529.343 283.097 529.735 281.214 530.519 279.646C531.317 278.064 532.43 276.853 533.858 276.013C535.3 275.159 536.994 274.732 538.94 274.732C540.41 274.732 541.663 274.963 542.699 275.425C543.735 275.887 544.596 276.503 545.282 277.273C545.968 278.029 546.507 278.883 546.899 279.835C547.291 280.773 547.564 281.732 547.718 282.712C547.886 283.678 547.97 284.595 547.97 285.463V298H544.19ZM528.02 298V275.32H531.38V281.389H531.8V298H528.02ZM556.6 308.08L560.989 296.152L561.052 299.68L551.14 275.32H555.067L562.837 294.913H561.493L568.78 275.32H572.581L560.233 308.08H556.6ZM98.2791 357.588C96.7811 357.588 95.3881 357.315 94.1001 356.769C92.8121 356.209 91.6991 355.425 90.7611 354.417C89.8371 353.395 89.1581 352.184 88.7241 350.784L92.3151 349.755C92.7771 351.155 93.5471 352.219 94.6251 352.947C95.7031 353.675 96.9141 354.032 98.2581 354.018C99.4901 353.99 100.554 353.71 101.45 353.178C102.36 352.632 103.06 351.89 103.55 350.952C104.054 350.014 104.306 348.929 104.306 347.697C104.306 345.821 103.746 344.302 102.626 343.14C101.506 341.964 100.036 341.376 98.2161 341.376C97.7121 341.376 97.1801 341.446 96.6201 341.586C96.0741 341.726 95.5631 341.922 95.0871 342.174L93.2811 339.213L104.495 329.07L104.978 330.33H89.9211V326.76H107.75V330.351L98.1951 339.507L98.1531 338.184C100.155 338.044 101.905 338.373 103.403 339.171C104.901 339.969 106.063 341.11 106.889 342.594C107.729 344.078 108.149 345.779 108.149 347.697C108.149 349.629 107.715 351.337 106.847 352.821C105.979 354.305 104.803 355.474 103.319 356.328C101.835 357.168 100.155 357.588 98.2791 357.588ZM115.483 357V352.884H119.599V357H115.483ZM150.547 357.63C148.419 357.63 146.627 357.105 145.171 356.055C143.715 354.991 142.609 353.556 141.853 351.75C141.111 349.93 140.74 347.893 140.74 345.639C140.74 343.357 141.111 341.313 141.853 339.507C142.609 337.701 143.715 336.28 145.171 335.244C146.641 334.208 148.44 333.69 150.568 333.69C152.668 333.69 154.474 334.215 155.986 335.265C157.512 336.301 158.681 337.722 159.493 339.528C160.305 341.334 160.711 343.371 160.711 345.639C160.711 347.907 160.305 349.944 159.493 351.75C158.681 353.556 157.512 354.991 155.986 356.055C154.474 357.105 152.661 357.63 150.547 357.63ZM140.11 367.08V334.32H143.449V351.015H143.869V367.08H140.11ZM150.085 354.207C151.583 354.207 152.822 353.829 153.802 353.073C154.782 352.317 155.517 351.295 156.007 350.007C156.497 348.705 156.742 347.249 156.742 345.639C156.742 344.043 156.497 342.601 156.007 341.313C155.531 340.025 154.789 339.003 153.781 338.247C152.787 337.491 151.52 337.113 149.98 337.113C148.51 337.113 147.292 337.477 146.326 338.205C145.36 338.919 144.639 339.92 144.163 341.208C143.687 342.482 143.449 343.959 143.449 345.639C143.449 347.291 143.68 348.768 144.142 350.07C144.618 351.358 145.346 352.373 146.326 353.115C147.306 353.843 148.559 354.207 150.085 354.207ZM175.815 357.63C173.561 357.63 171.615 357.119 169.977 356.097C168.353 355.075 167.1 353.661 166.218 351.855C165.336 350.049 164.895 347.977 164.895 345.639C164.895 343.259 165.343 341.173 166.239 339.381C167.135 337.589 168.402 336.196 170.04 335.202C171.678 334.194 173.603 333.69 175.815 333.69C178.083 333.69 180.036 334.201 181.674 335.223C183.312 336.231 184.565 337.638 185.433 339.444C186.315 341.236 186.756 343.301 186.756 345.639C186.756 348.005 186.315 350.091 185.433 351.897C184.551 353.689 183.291 355.096 181.653 356.118C180.015 357.126 178.069 357.63 175.815 357.63ZM175.815 354.081C178.167 354.081 179.917 353.297 181.065 351.729C182.213 350.161 182.787 348.131 182.787 345.639C182.787 343.077 182.206 341.04 181.044 339.528C179.882 338.002 178.139 337.239 175.815 337.239C174.233 337.239 172.931 337.596 171.909 338.31C170.887 339.024 170.124 340.011 169.62 341.271C169.116 342.531 168.864 343.987 168.864 345.639C168.864 348.187 169.452 350.231 170.628 351.771C171.804 353.311 173.533 354.081 175.815 354.081ZM202.635 357.63C200.507 357.63 198.715 357.105 197.259 356.055C195.803 354.991 194.697 353.556 193.941 351.75C193.199 349.93 192.828 347.893 192.828 345.639C192.828 343.357 193.199 341.313 193.941 339.507C194.697 337.701 195.803 336.28 197.259 335.244C198.729 334.208 200.528 333.69 202.656 333.69C204.756 333.69 206.562 334.215 208.074 335.265C209.6 336.301 210.769 337.722 211.581 339.528C212.393 341.334 212.799 343.371 212.799 345.639C212.799 347.907 212.393 349.944 211.581 351.75C210.769 353.556 209.6 354.991 208.074 356.055C206.562 357.105 204.749 357.63 202.635 357.63ZM192.198 367.08V334.32H195.537V351.015H195.957V367.08H192.198ZM202.173 354.207C203.671 354.207 204.91 353.829 205.89 353.073C206.87 352.317 207.605 351.295 208.095 350.007C208.585 348.705 208.83 347.249 208.83 345.639C208.83 344.043 208.585 342.601 208.095 341.313C207.619 340.025 206.877 339.003 205.869 338.247C204.875 337.491 203.608 337.113 202.068 337.113C200.598 337.113 199.38 337.477 198.414 338.205C197.448 338.919 196.727 339.92 196.251 341.208C195.775 342.482 195.537 343.959 195.537 345.639C195.537 347.291 195.768 348.768 196.23 350.07C196.706 351.358 197.434 352.373 198.414 353.115C199.394 353.843 200.647 354.207 202.173 354.207ZM226.853 357.588C225.397 357.588 224.144 357.357 223.094 356.895C222.058 356.433 221.197 355.817 220.511 355.047C219.825 354.277 219.286 353.423 218.894 352.485C218.502 351.547 218.222 350.588 218.054 349.608C217.9 348.628 217.823 347.711 217.823 346.857V334.32H221.603V345.681C221.603 346.745 221.701 347.774 221.897 348.768C222.093 349.762 222.422 350.658 222.884 351.456C223.36 352.254 223.99 352.884 224.774 353.346C225.572 353.808 226.566 354.039 227.756 354.039C228.694 354.039 229.548 353.878 230.318 353.556C231.088 353.234 231.746 352.758 232.292 352.128C232.838 351.484 233.258 350.672 233.552 349.692C233.846 348.712 233.993 347.571 233.993 346.269L236.45 347.025C236.45 349.209 236.051 351.092 235.253 352.674C234.469 354.256 233.356 355.474 231.914 356.328C230.486 357.168 228.799 357.588 226.853 357.588ZM234.413 357V350.931H233.993V334.32H237.752V357H234.413ZM244.892 357V326.13H248.63V357H244.892ZM262.218 357.63C260.524 357.63 259.103 357.322 257.955 356.706C256.821 356.076 255.96 355.25 255.372 354.228C254.798 353.206 254.511 352.086 254.511 350.868C254.511 349.678 254.735 348.649 255.183 347.781C255.645 346.899 256.289 346.171 257.115 345.597C257.941 345.009 258.928 344.547 260.076 344.211C261.154 343.917 262.358 343.665 263.688 343.455C265.032 343.231 266.39 343.028 267.762 342.846C269.134 342.664 270.415 342.489 271.605 342.321L270.261 343.098C270.303 341.082 269.897 339.591 269.043 338.625C268.203 337.659 266.747 337.176 264.675 337.176C263.303 337.176 262.099 337.491 261.063 338.121C260.041 338.737 259.32 339.745 258.9 341.145L255.351 340.074C255.897 338.086 256.954 336.525 258.522 335.391C260.09 334.257 262.155 333.69 264.717 333.69C266.775 333.69 268.539 334.061 270.009 334.803C271.493 335.531 272.557 336.637 273.201 338.121C273.523 338.821 273.726 339.584 273.81 340.41C273.894 341.222 273.936 342.076 273.936 342.972V357H270.618V351.561L271.395 352.065C270.541 353.899 269.344 355.285 267.804 356.223C266.278 357.161 264.416 357.63 262.218 357.63ZM262.785 354.501C264.129 354.501 265.291 354.263 266.271 353.787C267.265 353.297 268.063 352.66 268.665 351.876C269.267 351.078 269.659 350.21 269.841 349.272C270.051 348.572 270.163 347.795 270.177 346.941C270.205 346.073 270.219 345.408 270.219 344.946L271.521 345.513C270.303 345.681 269.106 345.842 267.93 345.996C266.754 346.15 265.641 346.318 264.591 346.5C263.541 346.668 262.596 346.871 261.756 347.109C261.14 347.305 260.559 347.557 260.013 347.865C259.481 348.173 259.047 348.572 258.711 349.062C258.389 349.538 258.228 350.133 258.228 350.847C258.228 351.463 258.382 352.051 258.69 352.611C259.012 353.171 259.502 353.626 260.16 353.976C260.832 354.326 261.707 354.501 262.785 354.501ZM280.236 357V334.32H283.575V339.801L283.029 339.087C283.295 338.387 283.638 337.743 284.058 337.155C284.492 336.567 284.975 336.084 285.507 335.706C286.095 335.23 286.76 334.866 287.502 334.614C288.244 334.362 289 334.215 289.77 334.173C290.54 334.117 291.261 334.166 291.933 334.32V337.827C291.149 337.617 290.288 337.561 289.35 337.659C288.412 337.757 287.544 338.1 286.746 338.688C286.018 339.206 285.451 339.836 285.045 340.578C284.653 341.32 284.38 342.125 284.226 342.993C284.072 343.847 283.995 344.722 283.995 345.618V357H280.236ZM312.439 357.63C310.745 357.63 309.324 357.322 308.176 356.706C307.042 356.076 306.181 355.25 305.593 354.228C305.019 353.206 304.732 352.086 304.732 350.868C304.732 349.678 304.956 348.649 305.404 347.781C305.866 346.899 306.51 346.171 307.336 345.597C308.162 345.009 309.149 344.547 310.297 344.211C311.375 343.917 312.579 343.665 313.909 343.455C315.253 343.231 316.611 343.028 317.983 342.846C319.355 342.664 320.636 342.489 321.826 342.321L320.482 343.098C320.524 341.082 320.118 339.591 319.264 338.625C318.424 337.659 316.968 337.176 314.896 337.176C313.524 337.176 312.32 337.491 311.284 338.121C310.262 338.737 309.541 339.745 309.121 341.145L305.572 340.074C306.118 338.086 307.175 336.525 308.743 335.391C310.311 334.257 312.376 333.69 314.938 333.69C316.996 333.69 318.76 334.061 320.23 334.803C321.714 335.531 322.778 336.637 323.422 338.121C323.744 338.821 323.947 339.584 324.031 340.41C324.115 341.222 324.157 342.076 324.157 342.972V357H320.839V351.561L321.616 352.065C320.762 353.899 319.565 355.285 318.025 356.223C316.499 357.161 314.637 357.63 312.439 357.63ZM313.006 354.501C314.35 354.501 315.512 354.263 316.492 353.787C317.486 353.297 318.284 352.66 318.886 351.876C319.488 351.078 319.88 350.21 320.062 349.272C320.272 348.572 320.384 347.795 320.398 346.941C320.426 346.073 320.44 345.408 320.44 344.946L321.742 345.513C320.524 345.681 319.327 345.842 318.151 345.996C316.975 346.15 315.862 346.318 314.812 346.5C313.762 346.668 312.817 346.871 311.977 347.109C311.361 347.305 310.78 347.557 310.234 347.865C309.702 348.173 309.268 348.572 308.932 349.062C308.61 349.538 308.449 350.133 308.449 350.847C308.449 351.463 308.603 352.051 308.911 352.611C309.233 353.171 309.723 353.626 310.381 353.976C311.053 354.326 311.928 354.501 313.006 354.501ZM357.568 357L357.589 342.489C357.589 340.795 357.134 339.472 356.224 338.52C355.328 337.554 354.159 337.071 352.717 337.071C351.877 337.071 351.079 337.267 350.323 337.659C349.567 338.037 348.951 338.639 348.475 339.465C347.999 340.277 347.761 341.32 347.761 342.594L345.787 341.796C345.759 340.186 346.088 338.779 346.774 337.575C347.474 336.357 348.426 335.412 349.63 334.74C350.834 334.068 352.192 333.732 353.704 333.732C356.07 333.732 357.932 334.453 359.29 335.895C360.648 337.323 361.327 339.248 361.327 341.67L361.306 357H357.568ZM330.436 357V334.32H333.775V340.389H334.195V357H330.436ZM344.023 357L344.044 342.636C344.044 340.9 343.596 339.542 342.7 338.562C341.804 337.568 340.614 337.071 339.13 337.071C337.66 337.071 336.47 337.575 335.56 338.583C334.65 339.591 334.195 340.928 334.195 342.594L332.221 341.418C332.221 339.948 332.571 338.632 333.271 337.47C333.971 336.308 334.923 335.398 336.127 334.74C337.331 334.068 338.696 333.732 340.222 333.732C341.748 333.732 343.078 334.054 344.212 334.698C345.346 335.342 346.221 336.266 346.837 337.47C347.453 338.66 347.761 340.081 347.761 341.733L347.74 357H344.023ZM377.092 357.63C374.838 357.63 372.892 357.119 371.254 356.097C369.63 355.075 368.377 353.661 367.495 351.855C366.613 350.049 366.172 347.977 366.172 345.639C366.172 343.259 366.62 341.173 367.516 339.381C368.412 337.589 369.679 336.196 371.317 335.202C372.955 334.194 374.88 333.69 377.092 333.69C379.36 333.69 381.313 334.201 382.951 335.223C384.589 336.231 385.842 337.638 386.71 339.444C387.592 341.236 388.033 343.301 388.033 345.639C388.033 348.005 387.592 350.091 386.71 351.897C385.828 353.689 384.568 355.096 382.93 356.118C381.292 357.126 379.346 357.63 377.092 357.63ZM377.092 354.081C379.444 354.081 381.194 353.297 382.342 351.729C383.49 350.161 384.064 348.131 384.064 345.639C384.064 343.077 383.483 341.04 382.321 339.528C381.159 338.002 379.416 337.239 377.092 337.239C375.51 337.239 374.208 337.596 373.186 338.31C372.164 339.024 371.401 340.011 370.897 341.271C370.393 342.531 370.141 343.987 370.141 345.639C370.141 348.187 370.729 350.231 371.905 351.771C373.081 353.311 374.81 354.081 377.092 354.081ZM409.645 357V345.639C409.645 344.561 409.547 343.525 409.351 342.531C409.169 341.537 408.84 340.648 408.364 339.864C407.902 339.066 407.272 338.436 406.474 337.974C405.69 337.512 404.696 337.281 403.492 337.281C402.554 337.281 401.7 337.442 400.93 337.764C400.174 338.072 399.523 338.548 398.977 339.192C398.431 339.836 398.004 340.648 397.696 341.628C397.402 342.594 397.255 343.735 397.255 345.051L394.798 344.295C394.798 342.097 395.19 340.214 395.974 338.646C396.772 337.064 397.885 335.853 399.313 335.013C400.755 334.159 402.449 333.732 404.395 333.732C405.865 333.732 407.118 333.963 408.154 334.425C409.19 334.887 410.051 335.503 410.737 336.273C411.423 337.029 411.962 337.883 412.354 338.835C412.746 339.773 413.019 340.732 413.173 341.712C413.341 342.678 413.425 343.595 413.425 344.463V357H409.645ZM393.475 357V334.32H396.835V340.389H397.255V357H393.475ZM428.902 367.71C427.712 367.71 426.55 367.528 425.416 367.164C424.282 366.8 423.239 366.247 422.287 365.505C421.349 364.777 420.565 363.853 419.935 362.733L423.358 360.927C423.918 362.033 424.709 362.838 425.731 363.342C426.767 363.846 427.831 364.098 428.923 364.098C430.365 364.098 431.562 363.832 432.514 363.3C433.466 362.782 434.166 362.005 434.614 360.969C435.076 359.933 435.3 358.645 435.286 357.105V350.91H435.727V334.32H439.045V357.147C439.045 357.763 439.024 358.358 438.982 358.932C438.954 359.506 438.884 360.073 438.772 360.633C438.478 362.243 437.897 363.566 437.029 364.602C436.161 365.652 435.041 366.429 433.669 366.933C432.297 367.451 430.708 367.71 428.902 367.71ZM428.629 357.63C426.515 357.63 424.702 357.105 423.19 356.055C421.678 354.991 420.509 353.556 419.683 351.75C418.871 349.944 418.465 347.907 418.465 345.639C418.465 343.371 418.871 341.334 419.683 339.528C420.509 337.722 421.678 336.301 423.19 335.265C424.702 334.215 426.508 333.69 428.608 333.69C430.75 333.69 432.549 334.208 434.005 335.244C435.461 336.28 436.56 337.701 437.302 339.507C438.058 341.313 438.436 343.357 438.436 345.639C438.436 347.893 438.058 349.93 437.302 351.75C436.56 353.556 435.461 354.991 434.005 356.055C432.549 357.105 430.757 357.63 428.629 357.63ZM429.091 354.207C430.617 354.207 431.87 353.843 432.85 353.115C433.83 352.373 434.551 351.358 435.013 350.07C435.489 348.768 435.727 347.291 435.727 345.639C435.727 343.959 435.489 342.482 435.013 341.208C434.551 339.92 433.837 338.919 432.871 338.205C431.905 337.477 430.68 337.113 429.196 337.113C427.656 337.113 426.382 337.491 425.374 338.247C424.38 339.003 423.638 340.025 423.148 341.313C422.672 342.601 422.434 344.043 422.434 345.639C422.434 347.249 422.679 348.705 423.169 350.007C423.659 351.295 424.394 352.317 425.374 353.073C426.368 353.829 427.607 354.207 429.091 354.207ZM467.66 357C466.316 357.266 464.986 357.371 463.67 357.315C462.368 357.273 461.206 357.014 460.184 356.538C459.162 356.048 458.385 355.292 457.853 354.27C457.405 353.374 457.16 352.471 457.118 351.561C457.09 350.637 457.076 349.594 457.076 348.432V328.02H460.814V348.264C460.814 349.188 460.821 349.979 460.835 350.637C460.863 351.295 461.01 351.862 461.276 352.338C461.78 353.234 462.578 353.759 463.67 353.913C464.776 354.067 466.106 354.025 467.66 353.787V357ZM452.477 337.407V334.32H467.66V337.407H452.477ZM481.821 357.63C479.567 357.63 477.621 357.119 475.983 356.097C474.359 355.075 473.106 353.661 472.224 351.855C471.342 350.049 470.901 347.977 470.901 345.639C470.901 343.259 471.349 341.173 472.245 339.381C473.141 337.589 474.408 336.196 476.046 335.202C477.684 334.194 479.609 333.69 481.821 333.69C484.089 333.69 486.042 334.201 487.68 335.223C489.318 336.231 490.571 337.638 491.439 339.444C492.321 341.236 492.762 343.301 492.762 345.639C492.762 348.005 492.321 350.091 491.439 351.897C490.557 353.689 489.297 355.096 487.659 356.118C486.021 357.126 484.075 357.63 481.821 357.63ZM481.821 354.081C484.173 354.081 485.923 353.297 487.071 351.729C488.219 350.161 488.793 348.131 488.793 345.639C488.793 343.077 488.212 341.04 487.05 339.528C485.888 338.002 484.145 337.239 481.821 337.239C480.239 337.239 478.937 337.596 477.915 338.31C476.893 339.024 476.13 340.011 475.626 341.271C475.122 342.531 474.87 343.987 474.87 345.639C474.87 348.187 475.458 350.231 476.634 351.771C477.81 353.311 479.539 354.081 481.821 354.081ZM506.835 357.588C505.379 357.588 504.126 357.357 503.076 356.895C502.04 356.433 501.179 355.817 500.493 355.047C499.807 354.277 499.268 353.423 498.876 352.485C498.484 351.547 498.204 350.588 498.036 349.608C497.882 348.628 497.805 347.711 497.805 346.857V334.32H501.585V345.681C501.585 346.745 501.683 347.774 501.879 348.768C502.075 349.762 502.404 350.658 502.866 351.456C503.342 352.254 503.972 352.884 504.756 353.346C505.554 353.808 506.548 354.039 507.738 354.039C508.676 354.039 509.53 353.878 510.3 353.556C511.07 353.234 511.728 352.758 512.274 352.128C512.82 351.484 513.24 350.672 513.534 349.692C513.828 348.712 513.975 347.571 513.975 346.269L516.432 347.025C516.432 349.209 516.033 351.092 515.235 352.674C514.451 354.256 513.338 355.474 511.896 356.328C510.468 357.168 508.781 357.588 506.835 357.588ZM514.395 357V350.931H513.975V334.32H517.734V357H514.395ZM524.454 357V334.32H527.793V339.801L527.247 339.087C527.513 338.387 527.856 337.743 528.276 337.155C528.71 336.567 529.193 336.084 529.725 335.706C530.313 335.23 530.978 334.866 531.72 334.614C532.462 334.362 533.218 334.215 533.988 334.173C534.758 334.117 535.479 334.166 536.151 334.32V337.827C535.367 337.617 534.506 337.561 533.568 337.659C532.63 337.757 531.762 338.1 530.964 338.688C530.236 339.206 529.669 339.836 529.263 340.578C528.871 341.32 528.598 342.125 528.444 342.993C528.29 343.847 528.213 344.722 528.213 345.618V357H524.454ZM541.382 330.309V326.445H545.12V330.309H541.382ZM541.382 357V334.32H545.12V357H541.382ZM560.829 357.609C558.127 357.609 555.908 357.021 554.172 355.845C552.45 354.655 551.393 352.996 551.001 350.868L554.823 350.259C555.131 351.491 555.838 352.471 556.944 353.199C558.05 353.913 559.422 354.27 561.06 354.27C562.614 354.27 563.832 353.948 564.714 353.304C565.596 352.66 566.037 351.785 566.037 350.679C566.037 350.035 565.89 349.517 565.596 349.125C565.302 348.719 564.693 348.341 563.769 347.991C562.859 347.641 561.48 347.221 559.632 346.731C557.63 346.199 556.055 345.646 554.907 345.072C553.759 344.498 552.94 343.833 552.45 343.077C551.96 342.321 551.715 341.404 551.715 340.326C551.715 338.996 552.079 337.834 552.807 336.84C553.535 335.832 554.55 335.055 555.852 334.509C557.168 333.963 558.694 333.69 560.43 333.69C562.152 333.69 563.692 333.963 565.05 334.509C566.408 335.055 567.5 335.832 568.326 336.84C569.166 337.834 569.663 338.996 569.817 340.326L565.995 341.019C565.813 339.801 565.225 338.842 564.231 338.142C563.251 337.442 561.984 337.071 560.43 337.029C558.96 336.973 557.763 337.232 556.839 337.806C555.929 338.38 555.474 339.157 555.474 340.137C555.474 340.683 555.642 341.152 555.978 341.544C556.328 341.936 556.965 342.307 557.889 342.657C558.827 343.007 560.185 343.406 561.963 343.854C563.965 344.358 565.54 344.911 566.688 345.513C567.85 346.101 568.676 346.801 569.166 347.613C569.656 348.411 569.901 349.398 569.901 350.574C569.901 352.758 569.096 354.48 567.486 355.74C565.876 356.986 563.657 357.609 560.829 357.609ZM588.036 357C586.692 357.266 585.362 357.371 584.046 357.315C582.744 357.273 581.582 357.014 580.56 356.538C579.538 356.048 578.761 355.292 578.229 354.27C577.781 353.374 577.536 352.471 577.494 351.561C577.466 350.637 577.452 349.594 577.452 348.432V328.02H581.19V348.264C581.19 349.188 581.197 349.979 581.211 350.637C581.239 351.295 581.386 351.862 581.652 352.338C582.156 353.234 582.954 353.759 584.046 353.913C585.152 354.067 586.482 354.025 588.036 353.787V357ZM572.853 337.407V334.32H588.036V337.407H572.853ZM602.048 357.609C599.346 357.609 597.127 357.021 595.391 355.845C593.669 354.655 592.612 352.996 592.22 350.868L596.042 350.259C596.35 351.491 597.057 352.471 598.163 353.199C599.269 353.913 600.641 354.27 602.279 354.27C603.833 354.27 605.051 353.948 605.933 353.304C606.815 352.66 607.256 351.785 607.256 350.679C607.256 350.035 607.109 349.517 606.815 349.125C606.521 348.719 605.912 348.341 604.988 347.991C604.078 347.641 602.699 347.221 600.851 346.731C598.849 346.199 597.274 345.646 596.126 345.072C594.978 344.498 594.159 343.833 593.669 343.077C593.179 342.321 592.934 341.404 592.934 340.326C592.934 338.996 593.298 337.834 594.026 336.84C594.754 335.832 595.769 335.055 597.071 334.509C598.387 333.963 599.913 333.69 601.649 333.69C603.371 333.69 604.911 333.963 606.269 334.509C607.627 335.055 608.719 335.832 609.545 336.84C610.385 337.834 610.882 338.996 611.036 340.326L607.214 341.019C607.032 339.801 606.444 338.842 605.45 338.142C604.47 337.442 603.203 337.071 601.649 337.029C600.179 336.973 598.982 337.232 598.058 337.806C597.148 338.38 596.693 339.157 596.693 340.137C596.693 340.683 596.861 341.152 597.197 341.544C597.547 341.936 598.184 342.307 599.108 342.657C600.046 343.007 601.404 343.406 603.182 343.854C605.184 344.358 606.759 344.911 607.907 345.513C609.069 346.101 609.895 346.801 610.385 347.613C610.875 348.411 611.12 349.398 611.12 350.574C611.12 352.758 610.315 354.48 608.705 355.74C607.095 356.986 604.876 357.609 602.048 357.609ZM633.484 326.76H637.285L629.221 357H625.42L633.484 326.76ZM653.246 357V326.76H656.984V357H653.246ZM664.125 357V334.32H667.464V339.801L666.918 339.087C667.184 338.387 667.527 337.743 667.947 337.155C668.381 336.567 668.864 336.084 669.396 335.706C669.984 335.23 670.649 334.866 671.391 334.614C672.133 334.362 672.889 334.215 673.659 334.173C674.429 334.117 675.15 334.166 675.822 334.32V337.827C675.038 337.617 674.177 337.561 673.239 337.659C672.301 337.757 671.433 338.1 670.635 338.688C669.907 339.206 669.34 339.836 668.934 340.578C668.542 341.32 668.269 342.125 668.115 342.993C667.961 343.847 667.884 344.722 667.884 345.618V357H664.125ZM686.342 357.63C684.648 357.63 683.227 357.322 682.079 356.706C680.945 356.076 680.084 355.25 679.496 354.228C678.922 353.206 678.635 352.086 678.635 350.868C678.635 349.678 678.859 348.649 679.307 347.781C679.769 346.899 680.413 346.171 681.239 345.597C682.065 345.009 683.052 344.547 684.2 344.211C685.278 343.917 686.482 343.665 687.812 343.455C689.156 343.231 690.514 343.028 691.886 342.846C693.258 342.664 694.539 342.489 695.729 342.321L694.385 343.098C694.427 341.082 694.021 339.591 693.167 338.625C692.327 337.659 690.871 337.176 688.799 337.176C687.427 337.176 686.223 337.491 685.187 338.121C684.165 338.737 683.444 339.745 683.024 341.145L679.475 340.074C680.021 338.086 681.078 336.525 682.646 335.391C684.214 334.257 686.279 333.69 688.841 333.69C690.899 333.69 692.663 334.061 694.133 334.803C695.617 335.531 696.681 336.637 697.325 338.121C697.647 338.821 697.85 339.584 697.934 340.41C698.018 341.222 698.06 342.076 698.06 342.972V357H694.742V351.561L695.519 352.065C694.665 353.899 693.468 355.285 691.928 356.223C690.402 357.161 688.54 357.63 686.342 357.63ZM686.909 354.501C688.253 354.501 689.415 354.263 690.395 353.787C691.389 353.297 692.187 352.66 692.789 351.876C693.391 351.078 693.783 350.21 693.965 349.272C694.175 348.572 694.287 347.795 694.301 346.941C694.329 346.073 694.343 345.408 694.343 344.946L695.645 345.513C694.427 345.681 693.23 345.842 692.054 345.996C690.878 346.15 689.765 346.318 688.715 346.5C687.665 346.668 686.72 346.871 685.88 347.109C685.264 347.305 684.683 347.557 684.137 347.865C683.605 348.173 683.171 348.572 682.835 349.062C682.513 349.538 682.352 350.133 682.352 350.847C682.352 351.463 682.506 352.051 682.814 352.611C683.136 353.171 683.626 353.626 684.284 353.976C684.956 354.326 685.831 354.501 686.909 354.501ZM720.509 357V345.639C720.509 344.561 720.411 343.525 720.215 342.531C720.033 341.537 719.704 340.648 719.228 339.864C718.766 339.066 718.136 338.436 717.338 337.974C716.554 337.512 715.56 337.281 714.356 337.281C713.418 337.281 712.564 337.442 711.794 337.764C711.038 338.072 710.387 338.548 709.841 339.192C709.295 339.836 708.868 340.648 708.56 341.628C708.266 342.594 708.119 343.735 708.119 345.051L705.662 344.295C705.662 342.097 706.054 340.214 706.838 338.646C707.636 337.064 708.749 335.853 710.177 335.013C711.619 334.159 713.313 333.732 715.259 333.732C716.729 333.732 717.982 333.963 719.018 334.425C720.054 334.887 720.915 335.503 721.601 336.273C722.287 337.029 722.826 337.883 723.218 338.835C723.61 339.773 723.883 340.732 724.037 341.712C724.205 342.678 724.289 343.595 724.289 344.463V357H720.509ZM704.339 357V334.32H707.699V340.389H708.119V357H704.339Z" fill="#F4FDD3"></path></svg> 