<?xml version="1.0" encoding="UTF-8"?> <svg xmlns="http://www.w3.org/2000/svg" width="800" height="450" viewBox="0 0 800 450" fill="none"><rect width="800" height="450" rx="20" fill="#90AD26"></rect><path d="M192.28 132V91.68H199.028V108.648H218.124V91.68H224.844V132H218.124V114.976H199.028V132H192.28ZM231.014 132L243.726 91.68H253.61L266.322 132H259.378L247.842 95.824H249.354L237.958 132H231.014ZM238.098 123.264V116.964H259.266V123.264H238.098ZM272.504 132V91.68H289.164C289.556 91.68 290.06 91.6987 290.676 91.736C291.292 91.7547 291.861 91.8107 292.384 91.904C294.717 92.2587 296.64 93.0333 298.152 94.228C299.683 95.4227 300.812 96.9347 301.54 98.764C302.287 100.575 302.66 102.591 302.66 104.812C302.66 108.097 301.829 110.925 300.168 113.296C298.507 115.648 295.959 117.104 292.524 117.664L289.64 117.916H279.252V132H272.504ZM295.66 132L287.708 115.592L294.568 114.08L303.304 132H295.66ZM279.252 111.616H288.884C289.257 111.616 289.677 111.597 290.144 111.56C290.611 111.523 291.04 111.448 291.432 111.336C292.552 111.056 293.429 110.561 294.064 109.852C294.717 109.143 295.175 108.34 295.436 107.444C295.716 106.548 295.856 105.671 295.856 104.812C295.856 103.953 295.716 103.076 295.436 102.18C295.175 101.265 294.717 100.453 294.064 99.744C293.429 99.0347 292.552 98.54 291.432 98.26C291.04 98.148 290.611 98.0827 290.144 98.064C289.677 98.0267 289.257 98.008 288.884 98.008H279.252V111.616ZM310.593 132V91.68H327.253C327.645 91.68 328.149 91.6987 328.765 91.736C329.381 91.7547 329.95 91.8107 330.473 91.904C332.806 92.2587 334.729 93.0333 336.241 94.228C337.771 95.4227 338.901 96.9347 339.629 98.764C340.375 100.575 340.749 102.591 340.749 104.812C340.749 108.097 339.918 110.925 338.257 113.296C336.595 115.648 334.047 117.104 330.613 117.664L327.729 117.916H317.341V132H310.593ZM333.749 132L325.797 115.592L332.657 114.08L341.393 132H333.749ZM317.341 111.616H326.973C327.346 111.616 327.766 111.597 328.233 111.56C328.699 111.523 329.129 111.448 329.521 111.336C330.641 111.056 331.518 110.561 332.153 109.852C332.806 109.143 333.263 108.34 333.525 107.444C333.805 106.548 333.945 105.671 333.945 104.812C333.945 103.953 333.805 103.076 333.525 102.18C333.263 101.265 332.806 100.453 332.153 99.744C331.518 99.0347 330.641 98.54 329.521 98.26C329.129 98.148 328.699 98.0827 328.233 98.064C327.766 98.0267 327.346 98.008 326.973 98.008H317.341V111.616ZM357.716 132V115.48L343.996 91.68H351.864L361.132 107.752L370.372 91.68H378.24L364.548 115.48V132H357.716ZM393.359 132V91.68H410.019C410.411 91.68 410.915 91.6987 411.531 91.736C412.147 91.7547 412.716 91.8107 413.239 91.904C415.572 92.2587 417.495 93.0333 419.007 94.228C420.538 95.4227 421.667 96.9347 422.395 98.764C423.142 100.575 423.515 102.591 423.515 104.812C423.515 107.015 423.142 109.031 422.395 110.86C421.648 112.671 420.51 114.173 418.979 115.368C417.467 116.563 415.554 117.337 413.239 117.692C412.716 117.767 412.138 117.823 411.503 117.86C410.887 117.897 410.392 117.916 410.019 117.916H400.107V132H393.359ZM400.107 111.616H409.739C410.112 111.616 410.532 111.597 410.999 111.56C411.466 111.523 411.895 111.448 412.287 111.336C413.407 111.056 414.284 110.561 414.919 109.852C415.572 109.143 416.03 108.34 416.291 107.444C416.571 106.548 416.711 105.671 416.711 104.812C416.711 103.953 416.571 103.076 416.291 102.18C416.03 101.265 415.572 100.453 414.919 99.744C414.284 99.0347 413.407 98.54 412.287 98.26C411.895 98.148 411.466 98.0827 410.999 98.064C410.532 98.0267 410.112 98.008 409.739 98.008H400.107V111.616ZM447.297 132.84C443.265 132.84 439.811 131.963 436.937 130.208C434.062 128.435 431.85 125.971 430.301 122.816C428.77 119.661 428.005 116.003 428.005 111.84C428.005 107.677 428.77 104.019 430.301 100.864C431.85 97.7093 434.062 95.2547 436.937 93.5C439.811 91.7267 443.265 90.84 447.297 90.84C451.329 90.84 454.782 91.7267 457.657 93.5C460.55 95.2547 462.762 97.7093 464.293 100.864C465.842 104.019 466.617 107.677 466.617 111.84C466.617 116.003 465.842 119.661 464.293 122.816C462.762 125.971 460.55 128.435 457.657 130.208C454.782 131.963 451.329 132.84 447.297 132.84ZM447.297 126.484C450.003 126.503 452.253 125.905 454.045 124.692C455.855 123.479 457.209 121.771 458.105 119.568C459.019 117.365 459.477 114.789 459.477 111.84C459.477 108.891 459.019 106.333 458.105 104.168C457.209 101.984 455.855 100.285 454.045 99.072C452.253 97.8587 450.003 97.2333 447.297 97.196C444.59 97.1773 442.341 97.7747 440.549 98.988C438.757 100.201 437.403 101.909 436.489 104.112C435.593 106.315 435.145 108.891 435.145 111.84C435.145 114.789 435.593 117.356 436.489 119.54C437.385 121.705 438.729 123.395 440.521 124.608C442.331 125.821 444.59 126.447 447.297 126.484ZM481.904 132V98.008H468.856V91.68H501.7V98.008H488.652V132H481.904ZM520.321 132V98.008H507.273V91.68H540.117V98.008H527.069V132H520.321ZM545.714 132V91.68H571.754V98.008H552.462V107.948H568.394V114.276H552.462V125.672H571.754V132H545.714ZM579.592 132V91.68H596.252C596.644 91.68 597.148 91.6987 597.764 91.736C598.38 91.7547 598.949 91.8107 599.472 91.904C601.805 92.2587 603.728 93.0333 605.24 94.228C606.77 95.4227 607.9 96.9347 608.628 98.764C609.374 100.575 609.748 102.591 609.748 104.812C609.748 108.097 608.917 110.925 607.256 113.296C605.594 115.648 603.046 117.104 599.612 117.664L596.728 117.916H586.34V132H579.592ZM602.748 132L594.796 115.592L601.656 114.08L610.392 132H602.748ZM586.34 111.616H595.972C596.345 111.616 596.765 111.597 597.232 111.56C597.698 111.523 598.128 111.448 598.52 111.336C599.64 111.056 600.517 110.561 601.152 109.852C601.805 109.143 602.262 108.34 602.524 107.444C602.804 106.548 602.944 105.671 602.944 104.812C602.944 103.953 602.804 103.076 602.524 102.18C602.262 101.265 601.805 100.453 601.152 99.744C600.517 99.0347 599.64 98.54 598.52 98.26C598.128 98.148 597.698 98.0827 597.232 98.064C596.765 98.0267 596.345 98.008 595.972 98.008H586.34V111.616Z" fill="#F4FDD3"></path><path d="M188.843 239V212.897L183.152 216.341V212.162L188.843 208.76H192.644V239H188.843ZM205.879 239V234.884H209.995V239H205.879ZM233.678 249.08L238.067 237.152L238.13 240.68L228.218 216.32H232.145L239.915 235.913H238.571L245.858 216.32H249.659L237.311 249.08H233.678ZM262.807 239.63C260.553 239.63 258.607 239.119 256.969 238.097C255.345 237.075 254.092 235.661 253.21 233.855C252.328 232.049 251.887 229.977 251.887 227.639C251.887 225.259 252.335 223.173 253.231 221.381C254.127 219.589 255.394 218.196 257.032 217.202C258.67 216.194 260.595 215.69 262.807 215.69C265.075 215.69 267.028 216.201 268.666 217.223C270.304 218.231 271.557 219.638 272.425 221.444C273.307 223.236 273.748 225.301 273.748 227.639C273.748 230.005 273.307 232.091 272.425 233.897C271.543 235.689 270.283 237.096 268.645 238.118C267.007 239.126 265.061 239.63 262.807 239.63ZM262.807 236.081C265.159 236.081 266.909 235.297 268.057 233.729C269.205 232.161 269.779 230.131 269.779 227.639C269.779 225.077 269.198 223.04 268.036 221.528C266.874 220.002 265.131 219.239 262.807 219.239C261.225 219.239 259.923 219.596 258.901 220.31C257.879 221.024 257.116 222.011 256.612 223.271C256.108 224.531 255.856 225.987 255.856 227.639C255.856 230.187 256.444 232.231 257.62 233.771C258.796 235.311 260.525 236.081 262.807 236.081ZM287.821 239.588C286.365 239.588 285.112 239.357 284.062 238.895C283.026 238.433 282.165 237.817 281.479 237.047C280.793 236.277 280.254 235.423 279.862 234.485C279.47 233.547 279.19 232.588 279.022 231.608C278.868 230.628 278.791 229.711 278.791 228.857V216.32H282.571V227.681C282.571 228.745 282.669 229.774 282.865 230.768C283.061 231.762 283.39 232.658 283.852 233.456C284.328 234.254 284.958 234.884 285.742 235.346C286.54 235.808 287.534 236.039 288.724 236.039C289.662 236.039 290.516 235.878 291.286 235.556C292.056 235.234 292.714 234.758 293.26 234.128C293.806 233.484 294.226 232.672 294.52 231.692C294.814 230.712 294.961 229.571 294.961 228.269L297.418 229.025C297.418 231.209 297.019 233.092 296.221 234.674C295.437 236.256 294.324 237.474 292.882 238.328C291.454 239.168 289.767 239.588 287.821 239.588ZM295.381 239V232.931H294.961V216.32H298.72V239H295.381ZM321.589 239V227.639C321.589 226.561 321.491 225.525 321.295 224.531C321.113 223.537 320.784 222.648 320.308 221.864C319.846 221.066 319.216 220.436 318.418 219.974C317.634 219.512 316.64 219.281 315.436 219.281C314.498 219.281 313.644 219.442 312.874 219.764C312.118 220.072 311.467 220.548 310.921 221.192C310.375 221.836 309.948 222.648 309.64 223.628C309.346 224.594 309.199 225.735 309.199 227.051L306.742 226.295C306.742 224.097 307.134 222.214 307.918 220.646C308.716 219.064 309.829 217.853 311.257 217.013C312.699 216.159 314.393 215.732 316.339 215.732C317.809 215.732 319.062 215.963 320.098 216.425C321.134 216.887 321.995 217.503 322.681 218.273C323.367 219.029 323.906 219.883 324.298 220.835C324.69 221.773 324.963 222.732 325.117 223.712C325.285 224.678 325.369 225.595 325.369 226.463V239H321.589ZM305.419 239V216.32H308.779V222.389H309.199V239H305.419ZM340.846 249.71C339.656 249.71 338.494 249.528 337.36 249.164C336.226 248.8 335.183 248.247 334.231 247.505C333.293 246.777 332.509 245.853 331.879 244.733L335.302 242.927C335.862 244.033 336.653 244.838 337.675 245.342C338.711 245.846 339.775 246.098 340.867 246.098C342.309 246.098 343.506 245.832 344.458 245.3C345.41 244.782 346.11 244.005 346.558 242.969C347.02 241.933 347.244 240.645 347.23 239.105V232.91H347.671V216.32H350.989V239.147C350.989 239.763 350.968 240.358 350.926 240.932C350.898 241.506 350.828 242.073 350.716 242.633C350.422 244.243 349.841 245.566 348.973 246.602C348.105 247.652 346.985 248.429 345.613 248.933C344.241 249.451 342.652 249.71 340.846 249.71ZM340.573 239.63C338.459 239.63 336.646 239.105 335.134 238.055C333.622 236.991 332.453 235.556 331.627 233.75C330.815 231.944 330.409 229.907 330.409 227.639C330.409 225.371 330.815 223.334 331.627 221.528C332.453 219.722 333.622 218.301 335.134 217.265C336.646 216.215 338.452 215.69 340.552 215.69C342.694 215.69 344.493 216.208 345.949 217.244C347.405 218.28 348.504 219.701 349.246 221.507C350.002 223.313 350.38 225.357 350.38 227.639C350.38 229.893 350.002 231.93 349.246 233.75C348.504 235.556 347.405 236.991 345.949 238.055C344.493 239.105 342.701 239.63 340.573 239.63ZM341.035 236.207C342.561 236.207 343.814 235.843 344.794 235.115C345.774 234.373 346.495 233.358 346.957 232.07C347.433 230.768 347.671 229.291 347.671 227.639C347.671 225.959 347.433 224.482 346.957 223.208C346.495 221.92 345.781 220.919 344.815 220.205C343.849 219.477 342.624 219.113 341.14 219.113C339.6 219.113 338.326 219.491 337.318 220.247C336.324 221.003 335.582 222.025 335.092 223.313C334.616 224.601 334.378 226.043 334.378 227.639C334.378 229.249 334.623 230.705 335.113 232.007C335.603 233.295 336.338 234.317 337.318 235.073C338.312 235.829 339.551 236.207 341.035 236.207ZM374.585 208.76H378.386L370.322 239H366.521L374.585 208.76ZM399.387 239.609C397.273 239.609 395.481 239.035 394.011 237.887C392.541 236.739 391.533 235.199 390.987 233.267L394.704 232.385C394.928 233.407 395.467 234.275 396.321 234.989C397.189 235.703 398.183 236.06 399.303 236.06C400.031 236.06 400.773 235.885 401.529 235.535C402.285 235.171 402.866 234.583 403.272 233.771C403.552 233.211 403.713 232.595 403.755 231.923C403.797 231.237 403.818 230.432 403.818 229.508V208.76H407.598V229.508C407.598 230.376 407.591 231.153 407.577 231.839C407.577 232.525 407.507 233.183 407.367 233.813C407.241 234.429 406.989 235.059 406.611 235.703C405.855 237.033 404.84 238.02 403.566 238.664C402.306 239.294 400.913 239.609 399.387 239.609ZM421.189 239.63C419.495 239.63 418.074 239.322 416.926 238.706C415.792 238.076 414.931 237.25 414.343 236.228C413.769 235.206 413.482 234.086 413.482 232.868C413.482 231.678 413.706 230.649 414.154 229.781C414.616 228.899 415.26 228.171 416.086 227.597C416.912 227.009 417.899 226.547 419.047 226.211C420.125 225.917 421.329 225.665 422.659 225.455C424.003 225.231 425.361 225.028 426.733 224.846C428.105 224.664 429.386 224.489 430.576 224.321L429.232 225.098C429.274 223.082 428.868 221.591 428.014 220.625C427.174 219.659 425.718 219.176 423.646 219.176C422.274 219.176 421.07 219.491 420.034 220.121C419.012 220.737 418.291 221.745 417.871 223.145L414.322 222.074C414.868 220.086 415.925 218.525 417.493 217.391C419.061 216.257 421.126 215.69 423.688 215.69C425.746 215.69 427.51 216.061 428.98 216.803C430.464 217.531 431.528 218.637 432.172 220.121C432.494 220.821 432.697 221.584 432.781 222.41C432.865 223.222 432.907 224.076 432.907 224.972V239H429.589V233.561L430.366 234.065C429.512 235.899 428.315 237.285 426.775 238.223C425.249 239.161 423.387 239.63 421.189 239.63ZM421.756 236.501C423.1 236.501 424.262 236.263 425.242 235.787C426.236 235.297 427.034 234.66 427.636 233.876C428.238 233.078 428.63 232.21 428.812 231.272C429.022 230.572 429.134 229.795 429.148 228.941C429.176 228.073 429.19 227.408 429.19 226.946L430.492 227.513C429.274 227.681 428.077 227.842 426.901 227.996C425.725 228.15 424.612 228.318 423.562 228.5C422.512 228.668 421.567 228.871 420.727 229.109C420.111 229.305 419.53 229.557 418.984 229.865C418.452 230.173 418.018 230.572 417.682 231.062C417.36 231.538 417.199 232.133 417.199 232.847C417.199 233.463 417.353 234.051 417.661 234.611C417.983 235.171 418.473 235.626 419.131 235.976C419.803 236.326 420.678 236.501 421.756 236.501ZM466.318 239L466.339 224.489C466.339 222.795 465.884 221.472 464.974 220.52C464.078 219.554 462.909 219.071 461.467 219.071C460.627 219.071 459.829 219.267 459.073 219.659C458.317 220.037 457.701 220.639 457.225 221.465C456.749 222.277 456.511 223.32 456.511 224.594L454.537 223.796C454.509 222.186 454.838 220.779 455.524 219.575C456.224 218.357 457.176 217.412 458.38 216.74C459.584 216.068 460.942 215.732 462.454 215.732C464.82 215.732 466.682 216.453 468.04 217.895C469.398 219.323 470.077 221.248 470.077 223.67L470.056 239H466.318ZM439.186 239V216.32H442.525V222.389H442.945V239H439.186ZM452.773 239L452.794 224.636C452.794 222.9 452.346 221.542 451.45 220.562C450.554 219.568 449.364 219.071 447.88 219.071C446.41 219.071 445.22 219.575 444.31 220.583C443.4 221.591 442.945 222.928 442.945 224.594L440.971 223.418C440.971 221.948 441.321 220.632 442.021 219.47C442.721 218.308 443.673 217.398 444.877 216.74C446.081 216.068 447.446 215.732 448.972 215.732C450.498 215.732 451.828 216.054 452.962 216.698C454.096 217.342 454.971 218.266 455.587 219.47C456.203 220.66 456.511 222.081 456.511 223.733L456.49 239H452.773ZM486.01 239.63C483.784 239.63 481.838 239.14 480.172 238.16C478.52 237.166 477.232 235.787 476.308 234.023C475.384 232.245 474.922 230.173 474.922 227.807C474.922 225.329 475.377 223.187 476.287 221.381C477.197 219.561 478.464 218.161 480.088 217.181C481.726 216.187 483.644 215.69 485.842 215.69C488.124 215.69 490.063 216.215 491.659 217.265C493.269 218.315 494.473 219.813 495.271 221.759C496.083 223.705 496.433 226.022 496.321 228.71H492.541V227.366C492.499 224.58 491.932 222.501 490.84 221.129C489.748 219.743 488.124 219.05 485.968 219.05C483.658 219.05 481.901 219.792 480.697 221.276C479.493 222.76 478.891 224.888 478.891 227.66C478.891 230.334 479.493 232.406 480.697 233.876C481.901 235.346 483.616 236.081 485.842 236.081C487.34 236.081 488.642 235.738 489.748 235.052C490.854 234.366 491.722 233.379 492.352 232.091L495.943 233.33C495.061 235.332 493.731 236.886 491.953 237.992C490.189 239.084 488.208 239.63 486.01 239.63ZM477.631 228.71V225.707H494.389V228.71H477.631ZM510.404 239.609C507.702 239.609 505.483 239.021 503.747 237.845C502.025 236.655 500.968 234.996 500.576 232.868L504.398 232.259C504.706 233.491 505.413 234.471 506.519 235.199C507.625 235.913 508.997 236.27 510.635 236.27C512.189 236.27 513.407 235.948 514.289 235.304C515.171 234.66 515.612 233.785 515.612 232.679C515.612 232.035 515.465 231.517 515.171 231.125C514.877 230.719 514.268 230.341 513.344 229.991C512.434 229.641 511.055 229.221 509.207 228.731C507.205 228.199 505.63 227.646 504.482 227.072C503.334 226.498 502.515 225.833 502.025 225.077C501.535 224.321 501.29 223.404 501.29 222.326C501.29 220.996 501.654 219.834 502.382 218.84C503.11 217.832 504.125 217.055 505.427 216.509C506.743 215.963 508.269 215.69 510.005 215.69C511.727 215.69 513.267 215.963 514.625 216.509C515.983 217.055 517.075 217.832 517.901 218.84C518.741 219.834 519.238 220.996 519.392 222.326L515.57 223.019C515.388 221.801 514.8 220.842 513.806 220.142C512.826 219.442 511.559 219.071 510.005 219.029C508.535 218.973 507.338 219.232 506.414 219.806C505.504 220.38 505.049 221.157 505.049 222.137C505.049 222.683 505.217 223.152 505.553 223.544C505.903 223.936 506.54 224.307 507.464 224.657C508.402 225.007 509.76 225.406 511.538 225.854C513.54 226.358 515.115 226.911 516.263 227.513C517.425 228.101 518.251 228.801 518.741 229.613C519.231 230.411 519.476 231.398 519.476 232.574C519.476 234.758 518.671 236.48 517.061 237.74C515.451 238.986 513.232 239.609 510.404 239.609ZM534.196 239V208.76H545.977C547.783 208.76 549.323 209.131 550.597 209.873C551.885 210.615 552.865 211.595 553.537 212.813C554.223 214.017 554.566 215.319 554.566 216.719C554.566 218.357 554.146 219.792 553.306 221.024C552.466 222.256 551.332 223.103 549.904 223.565L549.862 222.536C551.808 223.054 553.32 224.006 554.398 225.392C555.476 226.778 556.015 228.43 556.015 230.348C556.015 232.112 555.651 233.638 554.923 234.926C554.209 236.214 553.173 237.215 551.815 237.929C550.471 238.643 548.875 239 547.027 239H534.196ZM537.976 235.43H546.313C547.433 235.43 548.434 235.227 549.316 234.821C550.198 234.401 550.891 233.813 551.395 233.057C551.913 232.301 552.172 231.391 552.172 230.327C552.172 229.305 551.941 228.388 551.479 227.576C551.031 226.764 550.394 226.12 549.568 225.644C548.756 225.154 547.811 224.909 546.733 224.909H537.976V235.43ZM537.976 221.381H545.935C546.831 221.381 547.636 221.192 548.35 220.814C549.078 220.422 549.652 219.876 550.072 219.176C550.506 218.476 550.723 217.657 550.723 216.719C550.723 215.417 550.282 214.353 549.4 213.527C548.518 212.701 547.363 212.288 545.935 212.288H537.976V221.381ZM570.7 239.63C568.446 239.63 566.5 239.119 564.862 238.097C563.238 237.075 561.985 235.661 561.103 233.855C560.221 232.049 559.78 229.977 559.78 227.639C559.78 225.259 560.228 223.173 561.124 221.381C562.02 219.589 563.287 218.196 564.925 217.202C566.563 216.194 568.488 215.69 570.7 215.69C572.968 215.69 574.921 216.201 576.559 217.223C578.197 218.231 579.45 219.638 580.318 221.444C581.2 223.236 581.641 225.301 581.641 227.639C581.641 230.005 581.2 232.091 580.318 233.897C579.436 235.689 578.176 237.096 576.538 238.118C574.9 239.126 572.954 239.63 570.7 239.63ZM570.7 236.081C573.052 236.081 574.802 235.297 575.95 233.729C577.098 232.161 577.672 230.131 577.672 227.639C577.672 225.077 577.091 223.04 575.929 221.528C574.767 220.002 573.024 219.239 570.7 219.239C569.118 219.239 567.816 219.596 566.794 220.31C565.772 221.024 565.009 222.011 564.505 223.271C564.001 224.531 563.749 225.987 563.749 227.639C563.749 230.187 564.337 232.231 565.513 233.771C566.689 235.311 568.418 236.081 570.7 236.081ZM603.253 239V227.639C603.253 226.561 603.155 225.525 602.959 224.531C602.777 223.537 602.448 222.648 601.972 221.864C601.51 221.066 600.88 220.436 600.082 219.974C599.298 219.512 598.304 219.281 597.1 219.281C596.162 219.281 595.308 219.442 594.538 219.764C593.782 220.072 593.131 220.548 592.585 221.192C592.039 221.836 591.612 222.648 591.304 223.628C591.01 224.594 590.863 225.735 590.863 227.051L588.406 226.295C588.406 224.097 588.798 222.214 589.582 220.646C590.38 219.064 591.493 217.853 592.921 217.013C594.363 216.159 596.057 215.732 598.003 215.732C599.473 215.732 600.726 215.963 601.762 216.425C602.798 216.887 603.659 217.503 604.345 218.273C605.031 219.029 605.57 219.883 605.962 220.835C606.354 221.773 606.627 222.732 606.781 223.712C606.949 224.678 607.033 225.595 607.033 226.463V239H603.253ZM587.083 239V216.32H590.443V222.389H590.863V239H587.083ZM622.032 239.63C619.918 239.63 618.105 239.105 616.593 238.055C615.081 236.991 613.912 235.556 613.086 233.75C612.274 231.944 611.868 229.907 611.868 227.639C611.868 225.371 612.274 223.334 613.086 221.528C613.912 219.722 615.081 218.301 616.593 217.265C618.105 216.215 619.911 215.69 622.011 215.69C624.153 215.69 625.952 216.208 627.408 217.244C628.864 218.28 629.963 219.701 630.705 221.507C631.461 223.313 631.839 225.357 631.839 227.639C631.839 229.893 631.461 231.93 630.705 233.75C629.963 235.556 628.864 236.991 627.408 238.055C625.952 239.105 624.16 239.63 622.032 239.63ZM622.494 236.207C624.02 236.207 625.273 235.843 626.253 235.115C627.233 234.373 627.954 233.358 628.416 232.07C628.892 230.768 629.13 229.291 629.13 227.639C629.13 225.959 628.892 224.482 628.416 223.208C627.954 221.92 627.24 220.919 626.274 220.205C625.308 219.477 624.083 219.113 622.599 219.113C621.059 219.113 619.785 219.491 618.777 220.247C617.783 221.003 617.041 222.025 616.551 223.313C616.075 224.601 615.837 226.043 615.837 227.639C615.837 229.249 616.082 230.705 616.572 232.007C617.062 233.295 617.797 234.317 618.777 235.073C619.771 235.829 621.01 236.207 622.494 236.207ZM629.13 239V222.305H628.71V208.76H632.469V239H629.13ZM227.129 297.979L227.15 294.619L240.569 282.544C241.689 281.536 242.438 280.584 242.816 279.688C243.208 278.778 243.404 277.847 243.404 276.895C243.404 275.733 243.138 274.683 242.606 273.745C242.074 272.807 241.346 272.065 240.422 271.519C239.512 270.973 238.476 270.7 237.314 270.7C236.11 270.7 235.039 270.987 234.101 271.561C233.163 272.121 232.421 272.87 231.875 273.808C231.343 274.746 231.084 275.768 231.098 276.874H227.276C227.276 274.97 227.717 273.29 228.599 271.834C229.481 270.364 230.678 269.216 232.19 268.39C233.716 267.55 235.445 267.13 237.377 267.13C239.253 267.13 240.933 267.564 242.417 268.432C243.901 269.286 245.07 270.455 245.924 271.939C246.792 273.409 247.226 275.075 247.226 276.937C247.226 278.253 247.058 279.394 246.722 280.36C246.4 281.326 245.896 282.222 245.21 283.048C244.524 283.86 243.663 284.728 242.627 285.652L231.476 295.669L230.993 294.409H247.226V297.979H227.129ZM253.846 298V293.884H257.962V298H253.846ZM287.062 298.609C284.36 298.609 282.141 298.021 280.405 296.845C278.683 295.655 277.626 293.996 277.234 291.868L281.056 291.259C281.364 292.491 282.071 293.471 283.177 294.199C284.283 294.913 285.655 295.27 287.293 295.27C288.847 295.27 290.065 294.948 290.947 294.304C291.829 293.66 292.27 292.785 292.27 291.679C292.27 291.035 292.123 290.517 291.829 290.125C291.535 289.719 290.926 289.341 290.002 288.991C289.092 288.641 287.713 288.221 285.865 287.731C283.863 287.199 282.288 286.646 281.14 286.072C279.992 285.498 279.173 284.833 278.683 284.077C278.193 283.321 277.948 282.404 277.948 281.326C277.948 279.996 278.312 278.834 279.04 277.84C279.768 276.832 280.783 276.055 282.085 275.509C283.401 274.963 284.927 274.69 286.663 274.69C288.385 274.69 289.925 274.963 291.283 275.509C292.641 276.055 293.733 276.832 294.559 277.84C295.399 278.834 295.896 279.996 296.05 281.326L292.228 282.019C292.046 280.801 291.458 279.842 290.464 279.142C289.484 278.442 288.217 278.071 286.663 278.029C285.193 277.973 283.996 278.232 283.072 278.806C282.162 279.38 281.707 280.157 281.707 281.137C281.707 281.683 281.875 282.152 282.211 282.544C282.561 282.936 283.198 283.307 284.122 283.657C285.06 284.007 286.418 284.406 288.196 284.854C290.198 285.358 291.773 285.911 292.921 286.513C294.083 287.101 294.909 287.801 295.399 288.613C295.889 289.411 296.134 290.398 296.134 291.574C296.134 293.758 295.329 295.48 293.719 296.74C292.109 297.986 289.89 298.609 287.062 298.609ZM328.717 298L328.738 283.489C328.738 281.795 328.283 280.472 327.373 279.52C326.477 278.554 325.308 278.071 323.866 278.071C323.026 278.071 322.228 278.267 321.472 278.659C320.716 279.037 320.1 279.639 319.624 280.465C319.148 281.277 318.91 282.32 318.91 283.594L316.936 282.796C316.908 281.186 317.237 279.779 317.923 278.575C318.623 277.357 319.575 276.412 320.779 275.74C321.983 275.068 323.341 274.732 324.853 274.732C327.219 274.732 329.081 275.453 330.439 276.895C331.797 278.323 332.476 280.248 332.476 282.67L332.455 298H328.717ZM301.585 298V275.32H304.924V281.389H305.344V298H301.585ZM315.172 298L315.193 283.636C315.193 281.9 314.745 280.542 313.849 279.562C312.953 278.568 311.763 278.071 310.279 278.071C308.809 278.071 307.619 278.575 306.709 279.583C305.799 280.591 305.344 281.928 305.344 283.594L303.37 282.418C303.37 280.948 303.72 279.632 304.42 278.47C305.12 277.308 306.072 276.398 307.276 275.74C308.48 275.068 309.845 274.732 311.371 274.732C312.897 274.732 314.227 275.054 315.361 275.698C316.495 276.342 317.37 277.266 317.986 278.47C318.602 279.66 318.91 281.081 318.91 282.733L318.889 298H315.172ZM345.233 298.63C343.539 298.63 342.118 298.322 340.97 297.706C339.836 297.076 338.975 296.25 338.387 295.228C337.813 294.206 337.526 293.086 337.526 291.868C337.526 290.678 337.75 289.649 338.198 288.781C338.66 287.899 339.304 287.171 340.13 286.597C340.956 286.009 341.943 285.547 343.091 285.211C344.169 284.917 345.373 284.665 346.703 284.455C348.047 284.231 349.405 284.028 350.777 283.846C352.149 283.664 353.43 283.489 354.62 283.321L353.276 284.098C353.318 282.082 352.912 280.591 352.058 279.625C351.218 278.659 349.762 278.176 347.69 278.176C346.318 278.176 345.114 278.491 344.078 279.121C343.056 279.737 342.335 280.745 341.915 282.145L338.366 281.074C338.912 279.086 339.969 277.525 341.537 276.391C343.105 275.257 345.17 274.69 347.732 274.69C349.79 274.69 351.554 275.061 353.024 275.803C354.508 276.531 355.572 277.637 356.216 279.121C356.538 279.821 356.741 280.584 356.825 281.41C356.909 282.222 356.951 283.076 356.951 283.972V298H353.633V292.561L354.41 293.065C353.556 294.899 352.359 296.285 350.819 297.223C349.293 298.161 347.431 298.63 345.233 298.63ZM345.8 295.501C347.144 295.501 348.306 295.263 349.286 294.787C350.28 294.297 351.078 293.66 351.68 292.876C352.282 292.078 352.674 291.21 352.856 290.272C353.066 289.572 353.178 288.795 353.192 287.941C353.22 287.073 353.234 286.408 353.234 285.946L354.536 286.513C353.318 286.681 352.121 286.842 350.945 286.996C349.769 287.15 348.656 287.318 347.606 287.5C346.556 287.668 345.611 287.871 344.771 288.109C344.155 288.305 343.574 288.557 343.028 288.865C342.496 289.173 342.062 289.572 341.726 290.062C341.404 290.538 341.243 291.133 341.243 291.847C341.243 292.463 341.397 293.051 341.705 293.611C342.027 294.171 342.517 294.626 343.175 294.976C343.847 295.326 344.722 295.501 345.8 295.501ZM363.671 298V267.13H367.409V298H363.671ZM374.97 298V267.13H378.708V298H374.97ZM402.741 267.76H406.542L398.478 298H394.677L402.741 267.76ZM434.747 298C433.403 298.266 432.073 298.371 430.757 298.315C429.455 298.273 428.293 298.014 427.271 297.538C426.249 297.048 425.472 296.292 424.94 295.27C424.492 294.374 424.247 293.471 424.205 292.561C424.177 291.637 424.163 290.594 424.163 289.432V269.02H427.901V289.264C427.901 290.188 427.908 290.979 427.922 291.637C427.95 292.295 428.097 292.862 428.363 293.338C428.867 294.234 429.665 294.759 430.757 294.913C431.863 295.067 433.193 295.025 434.747 294.787V298ZM419.564 278.407V275.32H434.747V278.407H419.564ZM456.34 298V286.639C456.34 285.561 456.242 284.525 456.046 283.531C455.864 282.537 455.535 281.648 455.059 280.864C454.597 280.066 453.967 279.436 453.169 278.974C452.385 278.512 451.391 278.281 450.187 278.281C449.249 278.281 448.395 278.442 447.625 278.764C446.869 279.072 446.218 279.548 445.672 280.192C445.126 280.836 444.699 281.648 444.391 282.628C444.097 283.594 443.95 284.735 443.95 286.051L441.493 285.295C441.493 283.097 441.885 281.214 442.669 279.646C443.467 278.064 444.58 276.853 446.008 276.013C447.45 275.159 449.144 274.732 451.09 274.732C452.56 274.732 453.813 274.963 454.849 275.425C455.885 275.887 456.746 276.503 457.432 277.273C458.118 278.029 458.657 278.883 459.049 279.835C459.441 280.773 459.714 281.732 459.868 282.712C460.036 283.678 460.12 284.595 460.12 285.463V298H456.34ZM440.17 298V267.76H443.53V284.455H443.95V298H440.17ZM476.248 298.63C474.022 298.63 472.076 298.14 470.41 297.16C468.758 296.166 467.47 294.787 466.546 293.023C465.622 291.245 465.16 289.173 465.16 286.807C465.16 284.329 465.615 282.187 466.525 280.381C467.435 278.561 468.702 277.161 470.326 276.181C471.964 275.187 473.882 274.69 476.08 274.69C478.362 274.69 480.301 275.215 481.897 276.265C483.507 277.315 484.711 278.813 485.509 280.759C486.321 282.705 486.671 285.022 486.559 287.71H482.779V286.366C482.737 283.58 482.17 281.501 481.078 280.129C479.986 278.743 478.362 278.05 476.206 278.05C473.896 278.05 472.139 278.792 470.935 280.276C469.731 281.76 469.129 283.888 469.129 286.66C469.129 289.334 469.731 291.406 470.935 292.876C472.139 294.346 473.854 295.081 476.08 295.081C477.578 295.081 478.88 294.738 479.986 294.052C481.092 293.366 481.96 292.379 482.59 291.091L486.181 292.33C485.299 294.332 483.969 295.886 482.191 296.992C480.427 298.084 478.446 298.63 476.248 298.63ZM467.869 287.71V284.707H484.627V287.71H467.869ZM501.323 298V267.76H505.061V281.095H520.979V267.76H524.717V298H520.979V284.644H505.061V298H501.323ZM540.058 298.588C538.602 298.588 537.349 298.357 536.299 297.895C535.263 297.433 534.402 296.817 533.716 296.047C533.03 295.277 532.491 294.423 532.099 293.485C531.707 292.547 531.427 291.588 531.259 290.608C531.105 289.628 531.028 288.711 531.028 287.857V275.32H534.808V286.681C534.808 287.745 534.906 288.774 535.102 289.768C535.298 290.762 535.627 291.658 536.089 292.456C536.565 293.254 537.195 293.884 537.979 294.346C538.777 294.808 539.771 295.039 540.961 295.039C541.899 295.039 542.753 294.878 543.523 294.556C544.293 294.234 544.951 293.758 545.497 293.128C546.043 292.484 546.463 291.672 546.757 290.692C547.051 289.712 547.198 288.571 547.198 287.269L549.655 288.025C549.655 290.209 549.256 292.092 548.458 293.674C547.674 295.256 546.561 296.474 545.119 297.328C543.691 298.168 542.004 298.588 540.058 298.588ZM547.618 298V291.931H547.198V275.32H550.957V298H547.618ZM558.096 298V267.13H561.834V298H558.096ZM568.954 298L568.975 267.76H572.755V286.24L582.268 275.32H587.119L577.102 286.66L588.295 298H583.066L572.755 287.08V298H568.954ZM137.449 357.588C135.951 357.588 134.558 357.315 133.27 356.769C131.982 356.209 130.869 355.425 129.931 354.417C129.007 353.395 128.328 352.184 127.894 350.784L131.485 349.755C131.947 351.155 132.717 352.219 133.795 352.947C134.873 353.675 136.084 354.032 137.428 354.018C138.66 353.99 139.724 353.71 140.62 353.178C141.53 352.632 142.23 351.89 142.72 350.952C143.224 350.014 143.476 348.929 143.476 347.697C143.476 345.821 142.916 344.302 141.796 343.14C140.676 341.964 139.206 341.376 137.386 341.376C136.882 341.376 136.35 341.446 135.79 341.586C135.244 341.726 134.733 341.922 134.257 342.174L132.451 339.213L143.665 329.07L144.148 330.33H129.091V326.76H146.92V330.351L137.365 339.507L137.323 338.184C139.325 338.044 141.075 338.373 142.573 339.171C144.071 339.969 145.233 341.11 146.059 342.594C146.899 344.078 147.319 345.779 147.319 347.697C147.319 349.629 146.885 351.337 146.017 352.821C145.149 354.305 143.973 355.474 142.489 356.328C141.005 357.168 139.325 357.588 137.449 357.588ZM154.652 357V352.884H158.768V357H154.652ZM195.45 357V345.639C195.45 344.561 195.352 343.525 195.156 342.531C194.974 341.537 194.645 340.648 194.169 339.864C193.707 339.066 193.077 338.436 192.279 337.974C191.495 337.512 190.501 337.281 189.297 337.281C188.359 337.281 187.505 337.442 186.735 337.764C185.979 338.072 185.328 338.548 184.782 339.192C184.236 339.836 183.809 340.648 183.501 341.628C183.207 342.594 183.06 343.735 183.06 345.051L180.603 344.295C180.603 342.097 180.995 340.214 181.779 338.646C182.577 337.064 183.69 335.853 185.118 335.013C186.56 334.159 188.254 333.732 190.2 333.732C191.67 333.732 192.923 333.963 193.959 334.425C194.995 334.887 195.856 335.503 196.542 336.273C197.228 337.029 197.767 337.883 198.159 338.835C198.551 339.773 198.824 340.732 198.978 341.712C199.146 342.678 199.23 343.595 199.23 344.463V357H195.45ZM179.28 357V326.76H182.64V343.455H183.06V357H179.28ZM211.976 357.63C210.282 357.63 208.861 357.322 207.713 356.706C206.579 356.076 205.718 355.25 205.13 354.228C204.556 353.206 204.269 352.086 204.269 350.868C204.269 349.678 204.493 348.649 204.941 347.781C205.403 346.899 206.047 346.171 206.873 345.597C207.699 345.009 208.686 344.547 209.834 344.211C210.912 343.917 212.116 343.665 213.446 343.455C214.79 343.231 216.148 343.028 217.52 342.846C218.892 342.664 220.173 342.489 221.363 342.321L220.019 343.098C220.061 341.082 219.655 339.591 218.801 338.625C217.961 337.659 216.505 337.176 214.433 337.176C213.061 337.176 211.857 337.491 210.821 338.121C209.799 338.737 209.078 339.745 208.658 341.145L205.109 340.074C205.655 338.086 206.712 336.525 208.28 335.391C209.848 334.257 211.913 333.69 214.475 333.69C216.533 333.69 218.297 334.061 219.767 334.803C221.251 335.531 222.315 336.637 222.959 338.121C223.281 338.821 223.484 339.584 223.568 340.41C223.652 341.222 223.694 342.076 223.694 342.972V357H220.376V351.561L221.153 352.065C220.299 353.899 219.102 355.285 217.562 356.223C216.036 357.161 214.174 357.63 211.976 357.63ZM212.543 354.501C213.887 354.501 215.049 354.263 216.029 353.787C217.023 353.297 217.821 352.66 218.423 351.876C219.025 351.078 219.417 350.21 219.599 349.272C219.809 348.572 219.921 347.795 219.935 346.941C219.963 346.073 219.977 345.408 219.977 344.946L221.279 345.513C220.061 345.681 218.864 345.842 217.688 345.996C216.512 346.15 215.399 346.318 214.349 346.5C213.299 346.668 212.354 346.871 211.514 347.109C210.898 347.305 210.317 347.557 209.771 347.865C209.239 348.173 208.805 348.572 208.469 349.062C208.147 349.538 207.986 350.133 207.986 350.847C207.986 351.463 208.14 352.051 208.448 352.611C208.77 353.171 209.26 353.626 209.918 353.976C210.59 354.326 211.465 354.501 212.543 354.501ZM246.143 357V345.639C246.143 344.561 246.045 343.525 245.849 342.531C245.667 341.537 245.338 340.648 244.862 339.864C244.4 339.066 243.77 338.436 242.972 337.974C242.188 337.512 241.194 337.281 239.99 337.281C239.052 337.281 238.198 337.442 237.428 337.764C236.672 338.072 236.021 338.548 235.475 339.192C234.929 339.836 234.502 340.648 234.194 341.628C233.9 342.594 233.753 343.735 233.753 345.051L231.296 344.295C231.296 342.097 231.688 340.214 232.472 338.646C233.27 337.064 234.383 335.853 235.811 335.013C237.253 334.159 238.947 333.732 240.893 333.732C242.363 333.732 243.616 333.963 244.652 334.425C245.688 334.887 246.549 335.503 247.235 336.273C247.921 337.029 248.46 337.883 248.852 338.835C249.244 339.773 249.517 340.732 249.671 341.712C249.839 342.678 249.923 343.595 249.923 344.463V357H246.143ZM229.973 357V334.32H233.333V340.389H233.753V357H229.973ZM264.922 357.63C262.808 357.63 260.995 357.105 259.483 356.055C257.971 354.991 256.802 353.556 255.976 351.75C255.164 349.944 254.758 347.907 254.758 345.639C254.758 343.371 255.164 341.334 255.976 339.528C256.802 337.722 257.971 336.301 259.483 335.265C260.995 334.215 262.801 333.69 264.901 333.69C267.043 333.69 268.842 334.208 270.298 335.244C271.754 336.28 272.853 337.701 273.595 339.507C274.351 341.313 274.729 343.357 274.729 345.639C274.729 347.893 274.351 349.93 273.595 351.75C272.853 353.556 271.754 354.991 270.298 356.055C268.842 357.105 267.05 357.63 264.922 357.63ZM265.384 354.207C266.91 354.207 268.163 353.843 269.143 353.115C270.123 352.373 270.844 351.358 271.306 350.07C271.782 348.768 272.02 347.291 272.02 345.639C272.02 343.959 271.782 342.482 271.306 341.208C270.844 339.92 270.13 338.919 269.164 338.205C268.198 337.477 266.973 337.113 265.489 337.113C263.949 337.113 262.675 337.491 261.667 338.247C260.673 339.003 259.931 340.025 259.441 341.313C258.965 342.601 258.727 344.043 258.727 345.639C258.727 347.249 258.972 348.705 259.462 350.007C259.952 351.295 260.687 352.317 261.667 353.073C262.661 353.829 263.9 354.207 265.384 354.207ZM272.02 357V340.305H271.6V326.76H275.359V357H272.02ZM290.651 357.609C287.949 357.609 285.73 357.021 283.994 355.845C282.272 354.655 281.215 352.996 280.823 350.868L284.645 350.259C284.953 351.491 285.66 352.471 286.766 353.199C287.872 353.913 289.244 354.27 290.882 354.27C292.436 354.27 293.654 353.948 294.536 353.304C295.418 352.66 295.859 351.785 295.859 350.679C295.859 350.035 295.712 349.517 295.418 349.125C295.124 348.719 294.515 348.341 293.591 347.991C292.681 347.641 291.302 347.221 289.454 346.731C287.452 346.199 285.877 345.646 284.729 345.072C283.581 344.498 282.762 343.833 282.272 343.077C281.782 342.321 281.537 341.404 281.537 340.326C281.537 338.996 281.901 337.834 282.629 336.84C283.357 335.832 284.372 335.055 285.674 334.509C286.99 333.963 288.516 333.69 290.252 333.69C291.974 333.69 293.514 333.963 294.872 334.509C296.23 335.055 297.322 335.832 298.148 336.84C298.988 337.834 299.485 338.996 299.639 340.326L295.817 341.019C295.635 339.801 295.047 338.842 294.053 338.142C293.073 337.442 291.806 337.071 290.252 337.029C288.782 336.973 287.585 337.232 286.661 337.806C285.751 338.38 285.296 339.157 285.296 340.137C285.296 340.683 285.464 341.152 285.8 341.544C286.15 341.936 286.787 342.307 287.711 342.657C288.649 343.007 290.007 343.406 291.785 343.854C293.787 344.358 295.362 344.911 296.51 345.513C297.672 346.101 298.498 346.801 298.988 347.613C299.478 348.411 299.723 349.398 299.723 350.574C299.723 352.758 298.918 354.48 297.308 355.74C295.698 356.986 293.479 357.609 290.651 357.609ZM314.854 357.63C312.6 357.63 310.654 357.119 309.016 356.097C307.392 355.075 306.139 353.661 305.257 351.855C304.375 350.049 303.934 347.977 303.934 345.639C303.934 343.259 304.382 341.173 305.278 339.381C306.174 337.589 307.441 336.196 309.079 335.202C310.717 334.194 312.642 333.69 314.854 333.69C317.122 333.69 319.075 334.201 320.713 335.223C322.351 336.231 323.604 337.638 324.472 339.444C325.354 341.236 325.795 343.301 325.795 345.639C325.795 348.005 325.354 350.091 324.472 351.897C323.59 353.689 322.33 355.096 320.692 356.118C319.054 357.126 317.108 357.63 314.854 357.63ZM314.854 354.081C317.206 354.081 318.956 353.297 320.104 351.729C321.252 350.161 321.826 348.131 321.826 345.639C321.826 343.077 321.245 341.04 320.083 339.528C318.921 338.002 317.178 337.239 314.854 337.239C313.272 337.239 311.97 337.596 310.948 338.31C309.926 339.024 309.163 340.011 308.659 341.271C308.155 342.531 307.903 343.987 307.903 345.639C307.903 348.187 308.491 350.231 309.667 351.771C310.843 353.311 312.572 354.081 314.854 354.081ZM358.37 357L358.391 342.489C358.391 340.795 357.936 339.472 357.026 338.52C356.13 337.554 354.961 337.071 353.519 337.071C352.679 337.071 351.881 337.267 351.125 337.659C350.369 338.037 349.753 338.639 349.277 339.465C348.801 340.277 348.563 341.32 348.563 342.594L346.589 341.796C346.561 340.186 346.89 338.779 347.576 337.575C348.276 336.357 349.228 335.412 350.432 334.74C351.636 334.068 352.994 333.732 354.506 333.732C356.872 333.732 358.734 334.453 360.092 335.895C361.45 337.323 362.129 339.248 362.129 341.67L362.108 357H358.37ZM331.238 357V334.32H334.577V340.389H334.997V357H331.238ZM344.825 357L344.846 342.636C344.846 340.9 344.398 339.542 343.502 338.562C342.606 337.568 341.416 337.071 339.932 337.071C338.462 337.071 337.272 337.575 336.362 338.583C335.452 339.591 334.997 340.928 334.997 342.594L333.023 341.418C333.023 339.948 333.373 338.632 334.073 337.47C334.773 336.308 335.725 335.398 336.929 334.74C338.133 334.068 339.498 333.732 341.024 333.732C342.55 333.732 343.88 334.054 345.014 334.698C346.148 335.342 347.023 336.266 347.639 337.47C348.255 338.66 348.563 340.081 348.563 341.733L348.542 357H344.825ZM378.061 357.63C375.835 357.63 373.889 357.14 372.223 356.16C370.571 355.166 369.283 353.787 368.359 352.023C367.435 350.245 366.973 348.173 366.973 345.807C366.973 343.329 367.428 341.187 368.338 339.381C369.248 337.561 370.515 336.161 372.139 335.181C373.777 334.187 375.695 333.69 377.893 333.69C380.175 333.69 382.114 334.215 383.71 335.265C385.32 336.315 386.524 337.813 387.322 339.759C388.134 341.705 388.484 344.022 388.372 346.71H384.592V345.366C384.55 342.58 383.983 340.501 382.891 339.129C381.799 337.743 380.175 337.05 378.019 337.05C375.709 337.05 373.952 337.792 372.748 339.276C371.544 340.76 370.942 342.888 370.942 345.66C370.942 348.334 371.544 350.406 372.748 351.876C373.952 353.346 375.667 354.081 377.893 354.081C379.391 354.081 380.693 353.738 381.799 353.052C382.905 352.366 383.773 351.379 384.403 350.091L387.994 351.33C387.112 353.332 385.782 354.886 384.004 355.992C382.24 357.084 380.259 357.63 378.061 357.63ZM369.682 346.71V343.707H386.44V346.71H369.682ZM410.78 326.76H414.581L406.517 357H402.716L410.78 326.76ZM430.123 357V326.76H442.072C442.366 326.76 442.716 326.774 443.122 326.802C443.528 326.816 443.92 326.858 444.298 326.928C445.936 327.18 447.308 327.74 448.414 328.608C449.534 329.476 450.374 330.575 450.934 331.905C451.494 333.221 451.774 334.684 451.774 336.294C451.774 338.632 451.165 340.662 449.947 342.384C448.729 344.092 446.944 345.163 444.592 345.597L443.164 345.828H433.861V357H430.123ZM448.12 357L442.156 344.694L445.852 343.56L452.404 357H448.12ZM433.861 342.279H441.946C442.212 342.279 442.513 342.265 442.849 342.237C443.199 342.209 443.528 342.16 443.836 342.09C444.802 341.866 445.586 341.46 446.188 340.872C446.804 340.27 447.252 339.57 447.532 338.772C447.812 337.96 447.952 337.134 447.952 336.294C447.952 335.454 447.812 334.635 447.532 333.837C447.252 333.025 446.804 332.318 446.188 331.716C445.586 331.114 444.802 330.708 443.836 330.498C443.528 330.414 443.199 330.365 442.849 330.351C442.513 330.323 442.212 330.309 441.946 330.309H433.861V342.279ZM467.529 357.63C465.275 357.63 463.329 357.119 461.691 356.097C460.067 355.075 458.814 353.661 457.932 351.855C457.05 350.049 456.609 347.977 456.609 345.639C456.609 343.259 457.057 341.173 457.953 339.381C458.849 337.589 460.116 336.196 461.754 335.202C463.392 334.194 465.317 333.69 467.529 333.69C469.797 333.69 471.75 334.201 473.388 335.223C475.026 336.231 476.279 337.638 477.147 339.444C478.029 341.236 478.47 343.301 478.47 345.639C478.47 348.005 478.029 350.091 477.147 351.897C476.265 353.689 475.005 355.096 473.367 356.118C471.729 357.126 469.783 357.63 467.529 357.63ZM467.529 354.081C469.881 354.081 471.631 353.297 472.779 351.729C473.927 350.161 474.501 348.131 474.501 345.639C474.501 343.077 473.92 341.04 472.758 339.528C471.596 338.002 469.853 337.239 467.529 337.239C465.947 337.239 464.645 337.596 463.623 338.31C462.601 339.024 461.838 340.011 461.334 341.271C460.83 342.531 460.578 343.987 460.578 345.639C460.578 348.187 461.166 350.231 462.342 351.771C463.518 353.311 465.247 354.081 467.529 354.081ZM500.083 357V345.639C500.083 344.561 499.985 343.525 499.789 342.531C499.607 341.537 499.278 340.648 498.802 339.864C498.34 339.066 497.71 338.436 496.912 337.974C496.128 337.512 495.134 337.281 493.93 337.281C492.992 337.281 492.138 337.442 491.368 337.764C490.612 338.072 489.961 338.548 489.415 339.192C488.869 339.836 488.442 340.648 488.134 341.628C487.84 342.594 487.693 343.735 487.693 345.051L485.236 344.295C485.236 342.097 485.628 340.214 486.412 338.646C487.21 337.064 488.323 335.853 489.751 335.013C491.193 334.159 492.887 333.732 494.833 333.732C496.303 333.732 497.556 333.963 498.592 334.425C499.628 334.887 500.489 335.503 501.175 336.273C501.861 337.029 502.4 337.883 502.792 338.835C503.184 339.773 503.457 340.732 503.611 341.712C503.779 342.678 503.863 343.595 503.863 344.463V357H500.083ZM483.913 357V334.32H487.273V340.389H487.693V357H483.913ZM525.857 357L517.1 326.76H521.006L527.726 350.679L534.425 326.781L538.352 326.76L545.072 350.679L551.771 326.76H555.698L546.941 357H543.203L536.399 333.291L529.595 357H525.857ZM567.444 357.63C565.218 357.63 563.272 357.14 561.606 356.16C559.954 355.166 558.666 353.787 557.742 352.023C556.818 350.245 556.356 348.173 556.356 345.807C556.356 343.329 556.811 341.187 557.721 339.381C558.631 337.561 559.898 336.161 561.522 335.181C563.16 334.187 565.078 333.69 567.276 333.69C569.558 333.69 571.497 334.215 573.093 335.265C574.703 336.315 575.907 337.813 576.705 339.759C577.517 341.705 577.867 344.022 577.755 346.71H573.975V345.366C573.933 342.58 573.366 340.501 572.274 339.129C571.182 337.743 569.558 337.05 567.402 337.05C565.092 337.05 563.335 337.792 562.131 339.276C560.927 340.76 560.325 342.888 560.325 345.66C560.325 348.334 560.927 350.406 562.131 351.876C563.335 353.346 565.05 354.081 567.276 354.081C568.774 354.081 570.076 353.738 571.182 353.052C572.288 352.366 573.156 351.379 573.786 350.091L577.377 351.33C576.495 353.332 575.165 354.886 573.387 355.992C571.623 357.084 569.642 357.63 567.444 357.63ZM559.065 346.71V343.707H575.823V346.71H559.065ZM589.307 357.63C587.613 357.63 586.192 357.322 585.044 356.706C583.91 356.076 583.049 355.25 582.461 354.228C581.887 353.206 581.6 352.086 581.6 350.868C581.6 349.678 581.824 348.649 582.272 347.781C582.734 346.899 583.378 346.171 584.204 345.597C585.03 345.009 586.017 344.547 587.165 344.211C588.243 343.917 589.447 343.665 590.777 343.455C592.121 343.231 593.479 343.028 594.851 342.846C596.223 342.664 597.504 342.489 598.694 342.321L597.35 343.098C597.392 341.082 596.986 339.591 596.132 338.625C595.292 337.659 593.836 337.176 591.764 337.176C590.392 337.176 589.188 337.491 588.152 338.121C587.13 338.737 586.409 339.745 585.989 341.145L582.44 340.074C582.986 338.086 584.043 336.525 585.611 335.391C587.179 334.257 589.244 333.69 591.806 333.69C593.864 333.69 595.628 334.061 597.098 334.803C598.582 335.531 599.646 336.637 600.29 338.121C600.612 338.821 600.815 339.584 600.899 340.41C600.983 341.222 601.025 342.076 601.025 342.972V357H597.707V351.561L598.484 352.065C597.63 353.899 596.433 355.285 594.893 356.223C593.367 357.161 591.505 357.63 589.307 357.63ZM589.874 354.501C591.218 354.501 592.38 354.263 593.36 353.787C594.354 353.297 595.152 352.66 595.754 351.876C596.356 351.078 596.748 350.21 596.93 349.272C597.14 348.572 597.252 347.795 597.266 346.941C597.294 346.073 597.308 345.408 597.308 344.946L598.61 345.513C597.392 345.681 596.195 345.842 595.019 345.996C593.843 346.15 592.73 346.318 591.68 346.5C590.63 346.668 589.685 346.871 588.845 347.109C588.229 347.305 587.648 347.557 587.102 347.865C586.57 348.173 586.136 348.572 585.8 349.062C585.478 349.538 585.317 350.133 585.317 350.847C585.317 351.463 585.471 352.051 585.779 352.611C586.101 353.171 586.591 353.626 587.249 353.976C587.921 354.326 588.796 354.501 589.874 354.501ZM615.893 357.609C613.191 357.609 610.972 357.021 609.236 355.845C607.514 354.655 606.457 352.996 606.065 350.868L609.887 350.259C610.195 351.491 610.902 352.471 612.008 353.199C613.114 353.913 614.486 354.27 616.124 354.27C617.678 354.27 618.896 353.948 619.778 353.304C620.66 352.66 621.101 351.785 621.101 350.679C621.101 350.035 620.954 349.517 620.66 349.125C620.366 348.719 619.757 348.341 618.833 347.991C617.923 347.641 616.544 347.221 614.696 346.731C612.694 346.199 611.119 345.646 609.971 345.072C608.823 344.498 608.004 343.833 607.514 343.077C607.024 342.321 606.779 341.404 606.779 340.326C606.779 338.996 607.143 337.834 607.871 336.84C608.599 335.832 609.614 335.055 610.916 334.509C612.232 333.963 613.758 333.69 615.494 333.69C617.216 333.69 618.756 333.963 620.114 334.509C621.472 335.055 622.564 335.832 623.39 336.84C624.23 337.834 624.727 338.996 624.881 340.326L621.059 341.019C620.877 339.801 620.289 338.842 619.295 338.142C618.315 337.442 617.048 337.071 615.494 337.029C614.024 336.973 612.827 337.232 611.903 337.806C610.993 338.38 610.538 339.157 610.538 340.137C610.538 340.683 610.706 341.152 611.042 341.544C611.392 341.936 612.029 342.307 612.953 342.657C613.891 343.007 615.249 343.406 617.027 343.854C619.029 344.358 620.604 344.911 621.752 345.513C622.914 346.101 623.74 346.801 624.23 347.613C624.72 348.411 624.965 349.398 624.965 350.574C624.965 352.758 624.16 354.48 622.55 355.74C620.94 356.986 618.721 357.609 615.893 357.609ZM630.856 357V326.13H634.594V357H630.856ZM651.563 357.63C649.337 357.63 647.391 357.14 645.725 356.16C644.073 355.166 642.785 353.787 641.861 352.023C640.937 350.245 640.475 348.173 640.475 345.807C640.475 343.329 640.93 341.187 641.84 339.381C642.75 337.561 644.017 336.161 645.641 335.181C647.279 334.187 649.197 333.69 651.395 333.69C653.677 333.69 655.616 334.215 657.212 335.265C658.822 336.315 660.026 337.813 660.824 339.759C661.636 341.705 661.986 344.022 661.874 346.71H658.094V345.366C658.052 342.58 657.485 340.501 656.393 339.129C655.301 337.743 653.677 337.05 651.521 337.05C649.211 337.05 647.454 337.792 646.25 339.276C645.046 340.76 644.444 342.888 644.444 345.66C644.444 348.334 645.046 350.406 646.25 351.876C647.454 353.346 649.169 354.081 651.395 354.081C652.893 354.081 654.195 353.738 655.301 353.052C656.407 352.366 657.275 351.379 657.905 350.091L661.496 351.33C660.614 353.332 659.284 354.886 657.506 355.992C655.742 357.084 653.761 357.63 651.563 357.63ZM643.184 346.71V343.707H659.942V346.71H643.184ZM670.13 367.08L674.519 355.152L674.582 358.68L664.67 334.32H668.597L676.367 353.913H675.023L682.31 334.32H686.111L673.763 367.08H670.13Z" fill="#F4FDD3"></path></svg> 