<?xml version="1.0" encoding="UTF-8"?> <svg xmlns="http://www.w3.org/2000/svg" width="800" height="450" viewBox="0 0 800 450" fill="none"><rect width="800" height="450" rx="20" fill="#90AD26"></rect><path d="M146.049 132V91.68H152.797V110.384L168.897 91.68H177.185L159.853 111.448L178.361 132H169.793L152.797 113.184V132H146.049ZM180.627 132L193.339 91.68H203.223L215.935 132H208.991L197.455 95.824H198.967L187.571 132H180.627ZM187.711 123.264V116.964H208.879V123.264H187.711ZM222.117 132V91.68H238.777C239.169 91.68 239.673 91.6987 240.289 91.736C240.905 91.7547 241.474 91.8107 241.997 91.904C244.33 92.2587 246.253 93.0333 247.765 94.228C249.296 95.4227 250.425 96.9347 251.153 98.764C251.9 100.575 252.273 102.591 252.273 104.812C252.273 108.097 251.442 110.925 249.781 113.296C248.12 115.648 245.572 117.104 242.137 117.664L239.253 117.916H228.865V132H222.117ZM245.273 132L237.321 115.592L244.181 114.08L252.917 132H245.273ZM228.865 111.616H238.497C238.87 111.616 239.29 111.597 239.757 111.56C240.224 111.523 240.653 111.448 241.045 111.336C242.165 111.056 243.042 110.561 243.677 109.852C244.33 109.143 244.788 108.34 245.049 107.444C245.329 106.548 245.469 105.671 245.469 104.812C245.469 103.953 245.329 103.076 245.049 102.18C244.788 101.265 244.33 100.453 243.677 99.744C243.042 99.0347 242.165 98.54 241.045 98.26C240.653 98.148 240.224 98.0827 239.757 98.064C239.29 98.0267 238.87 98.008 238.497 98.008H228.865V111.616ZM257.406 132L270.118 91.68H280.002L292.714 132H285.77L274.234 95.824H275.746L264.35 132H257.406ZM264.49 123.264V116.964H285.658V123.264H264.49ZM314.854 132.84C310.822 132.84 307.369 131.963 304.494 130.208C301.62 128.435 299.408 125.971 297.858 122.816C296.328 119.661 295.562 116.003 295.562 111.84C295.562 107.677 296.328 104.019 297.858 100.864C299.408 97.7093 301.62 95.2547 304.494 93.5C307.369 91.7267 310.822 90.84 314.854 90.84C318.886 90.84 322.34 91.7267 325.214 93.5C328.108 95.2547 330.32 97.7093 331.85 100.864C333.4 104.019 334.174 107.677 334.174 111.84C334.174 116.003 333.4 119.661 331.85 122.816C330.32 125.971 328.108 128.435 325.214 130.208C322.34 131.963 318.886 132.84 314.854 132.84ZM314.854 126.484C317.561 126.503 319.81 125.905 321.602 124.692C323.413 123.479 324.766 121.771 325.662 119.568C326.577 117.365 327.034 114.789 327.034 111.84C327.034 108.891 326.577 106.333 325.662 104.168C324.766 101.984 323.413 100.285 321.602 99.072C319.81 97.8587 317.561 97.2333 314.854 97.196C312.148 97.1773 309.898 97.7747 308.106 98.988C306.314 100.201 304.961 101.909 304.046 104.112C303.15 106.315 302.702 108.891 302.702 111.84C302.702 114.789 303.15 117.356 304.046 119.54C304.942 121.705 306.286 123.395 308.078 124.608C309.889 125.821 312.148 126.447 314.854 126.484ZM340.868 132V91.68H347.616V110.384L363.716 91.68H372.004L354.672 111.448L373.18 132H364.612L347.616 113.184V132H340.868ZM378.245 132V91.68H404.285V98.008H384.993V107.948H400.925V114.276H384.993V125.672H404.285V132H378.245ZM439.378 132.84C436.429 132.84 433.769 132.327 431.398 131.3C429.046 130.273 427.105 128.808 425.574 126.904C424.062 124.981 423.101 122.704 422.69 120.072L429.69 119.008C430.287 121.397 431.51 123.245 433.358 124.552C435.225 125.859 437.371 126.512 439.798 126.512C441.235 126.512 442.589 126.288 443.858 125.84C445.127 125.392 446.154 124.739 446.938 123.88C447.741 123.021 448.142 121.967 448.142 120.716C448.142 120.156 448.049 119.643 447.862 119.176C447.675 118.691 447.395 118.261 447.022 117.888C446.667 117.515 446.201 117.179 445.622 116.88C445.062 116.563 444.409 116.292 443.662 116.068L433.246 112.988C432.35 112.727 431.379 112.381 430.334 111.952C429.307 111.504 428.327 110.897 427.394 110.132C426.479 109.348 425.723 108.359 425.126 107.164C424.547 105.951 424.258 104.457 424.258 102.684C424.258 100.089 424.911 97.9147 426.218 96.16C427.543 94.3867 429.317 93.0613 431.538 92.184C433.778 91.3067 436.261 90.8773 438.986 90.896C441.749 90.9147 444.213 91.3907 446.378 92.324C448.543 93.2387 450.354 94.5733 451.81 96.328C453.266 98.0827 454.293 100.201 454.89 102.684L447.638 103.944C447.339 102.525 446.761 101.321 445.902 100.332C445.062 99.324 444.026 98.5587 442.794 98.036C441.581 97.5133 440.283 97.2333 438.902 97.196C437.558 97.1773 436.307 97.3827 435.15 97.812C434.011 98.2227 433.087 98.82 432.378 99.604C431.687 100.388 431.342 101.303 431.342 102.348C431.342 103.337 431.641 104.149 432.238 104.784C432.835 105.4 433.573 105.895 434.45 106.268C435.346 106.623 436.251 106.921 437.166 107.164L444.39 109.18C445.379 109.441 446.49 109.796 447.722 110.244C448.954 110.692 450.139 111.317 451.278 112.12C452.417 112.923 453.35 113.977 454.078 115.284C454.825 116.591 455.198 118.252 455.198 120.268C455.198 122.359 454.759 124.197 453.882 125.784C453.023 127.352 451.857 128.659 450.382 129.704C448.907 130.749 447.218 131.533 445.314 132.056C443.429 132.579 441.45 132.84 439.378 132.84ZM462.939 132V91.68H469.687V132H462.939ZM479.194 132V91.68H486.026L504.73 120.1V91.68H511.562V132H504.73L486.026 103.58V132H479.194ZM537.141 132.84C534.528 132.84 532.073 132.383 529.777 131.468C527.5 130.535 525.493 129.172 523.757 127.38C522.04 125.588 520.696 123.395 519.725 120.8C518.755 118.187 518.269 115.2 518.269 111.84C518.269 107.435 519.091 103.673 520.733 100.556C522.376 97.42 524.625 95.0213 527.481 93.36C530.337 91.68 533.557 90.84 537.141 90.84C542.107 90.84 546.036 91.9973 548.929 94.312C551.841 96.608 553.811 99.8373 554.837 104L547.949 105.092C547.184 102.703 545.933 100.799 544.197 99.38C542.461 97.9427 540.249 97.224 537.561 97.224C534.855 97.1867 532.605 97.7747 530.813 98.988C529.021 100.201 527.668 101.909 526.753 104.112C525.857 106.315 525.409 108.891 525.409 111.84C525.409 114.789 525.857 117.356 526.753 119.54C527.649 121.705 528.993 123.395 530.785 124.608C532.596 125.821 534.855 126.447 537.561 126.484C539.596 126.503 541.379 126.139 542.909 125.392C544.44 124.627 545.691 123.479 546.661 121.948C547.632 120.399 548.285 118.467 548.621 116.152H541.509V110.86H555.789C555.827 111.159 555.855 111.597 555.873 112.176C555.892 112.755 555.901 113.1 555.901 113.212C555.901 117.02 555.145 120.408 553.633 123.376C552.14 126.325 549.993 128.64 547.193 130.32C544.393 132 541.043 132.84 537.141 132.84ZM563.205 132V91.68H569.953V132H563.205ZM579.46 132V91.68H586.292L604.996 120.1V91.68H611.828V132H604.996L586.292 103.58V132H579.46ZM637.408 132.84C634.794 132.84 632.34 132.383 630.044 131.468C627.766 130.535 625.76 129.172 624.024 127.38C622.306 125.588 620.962 123.395 619.992 120.8C619.021 118.187 618.536 115.2 618.536 111.84C618.536 107.435 619.357 103.673 621 100.556C622.642 97.42 624.892 95.0213 627.748 93.36C630.604 91.68 633.824 90.84 637.408 90.84C642.373 90.84 646.302 91.9973 649.196 94.312C652.108 96.608 654.077 99.8373 655.104 104L648.216 105.092C647.45 102.703 646.2 100.799 644.464 99.38C642.728 97.9427 640.516 97.224 637.828 97.224C635.121 97.1867 632.872 97.7747 631.08 98.988C629.288 100.201 627.934 101.909 627.02 104.112C626.124 106.315 625.676 108.891 625.676 111.84C625.676 114.789 626.124 117.356 627.02 119.54C627.916 121.705 629.26 123.395 631.052 124.608C632.862 125.821 635.121 126.447 637.828 126.484C639.862 126.503 641.645 126.139 643.176 125.392C644.706 124.627 645.957 123.479 646.928 121.948C647.898 120.399 648.552 118.467 648.888 116.152H641.776V110.86H656.056C656.093 111.159 656.121 111.597 656.14 112.176C656.158 112.755 656.168 113.1 656.168 113.212C656.168 117.02 655.412 120.408 653.9 123.376C652.406 126.325 650.26 128.64 647.46 130.32C644.66 132 641.309 132.84 637.408 132.84Z" fill="#F4FDD3"></path><path d="M89.5602 239V212.897L83.8692 216.341V212.162L89.5602 208.76H93.3612V239H89.5602ZM106.596 239V234.884H110.712V239H106.596ZM133.407 239V215.081C133.407 214.493 133.435 213.898 133.491 213.296C133.547 212.68 133.673 212.085 133.869 211.511C134.065 210.923 134.387 210.384 134.835 209.894C135.353 209.32 135.92 208.914 136.536 208.676C137.152 208.424 137.775 208.27 138.405 208.214C139.049 208.158 139.658 208.13 140.232 208.13H143.109V211.238H140.442C139.336 211.238 138.51 211.511 137.964 212.057C137.418 212.589 137.145 213.401 137.145 214.493V239H133.407ZM129.564 219.407V216.32H143.109V219.407H129.564ZM155.911 239.588C154.455 239.588 153.202 239.357 152.152 238.895C151.116 238.433 150.255 237.817 149.569 237.047C148.883 236.277 148.344 235.423 147.952 234.485C147.56 233.547 147.28 232.588 147.112 231.608C146.958 230.628 146.881 229.711 146.881 228.857V216.32H150.661V227.681C150.661 228.745 150.759 229.774 150.955 230.768C151.151 231.762 151.48 232.658 151.942 233.456C152.418 234.254 153.048 234.884 153.832 235.346C154.63 235.808 155.624 236.039 156.814 236.039C157.752 236.039 158.606 235.878 159.376 235.556C160.146 235.234 160.804 234.758 161.35 234.128C161.896 233.484 162.316 232.672 162.61 231.692C162.904 230.712 163.051 229.571 163.051 228.269L165.508 229.025C165.508 231.209 165.109 233.092 164.311 234.674C163.527 236.256 162.414 237.474 160.972 238.328C159.544 239.168 157.857 239.588 155.911 239.588ZM163.471 239V232.931H163.051V216.32H166.81V239H163.471ZM189.679 239V227.639C189.679 226.561 189.581 225.525 189.385 224.531C189.203 223.537 188.874 222.648 188.398 221.864C187.936 221.066 187.306 220.436 186.508 219.974C185.724 219.512 184.73 219.281 183.526 219.281C182.588 219.281 181.734 219.442 180.964 219.764C180.208 220.072 179.557 220.548 179.011 221.192C178.465 221.836 178.038 222.648 177.73 223.628C177.436 224.594 177.289 225.735 177.289 227.051L174.832 226.295C174.832 224.097 175.224 222.214 176.008 220.646C176.806 219.064 177.919 217.853 179.347 217.013C180.789 216.159 182.483 215.732 184.429 215.732C185.899 215.732 187.152 215.963 188.188 216.425C189.224 216.887 190.085 217.503 190.771 218.273C191.457 219.029 191.996 219.883 192.388 220.835C192.78 221.773 193.053 222.732 193.207 223.712C193.375 224.678 193.459 225.595 193.459 226.463V239H189.679ZM173.509 239V216.32H176.869V222.389H177.289V239H173.509ZM215.907 239V227.639C215.907 226.561 215.809 225.525 215.613 224.531C215.431 223.537 215.102 222.648 214.626 221.864C214.164 221.066 213.534 220.436 212.736 219.974C211.952 219.512 210.958 219.281 209.754 219.281C208.816 219.281 207.962 219.442 207.192 219.764C206.436 220.072 205.785 220.548 205.239 221.192C204.693 221.836 204.266 222.648 203.958 223.628C203.664 224.594 203.517 225.735 203.517 227.051L201.06 226.295C201.06 224.097 201.452 222.214 202.236 220.646C203.034 219.064 204.147 217.853 205.575 217.013C207.017 216.159 208.711 215.732 210.657 215.732C212.127 215.732 213.38 215.963 214.416 216.425C215.452 216.887 216.313 217.503 216.999 218.273C217.685 219.029 218.224 219.883 218.616 220.835C219.008 221.773 219.281 222.732 219.435 223.712C219.603 224.678 219.687 225.595 219.687 226.463V239H215.907ZM199.737 239V216.32H203.097V222.389H203.517V239H199.737ZM228.317 249.08L232.706 237.152L232.769 240.68L222.857 216.32H226.784L234.554 235.913H233.21L240.497 216.32H244.298L231.95 249.08H228.317ZM265.499 208.76H269.3L261.236 239H257.435L265.499 208.76ZM294.669 239.63C292.443 239.63 290.497 239.14 288.831 238.16C287.179 237.166 285.891 235.787 284.967 234.023C284.043 232.245 283.581 230.173 283.581 227.807C283.581 225.329 284.036 223.187 284.946 221.381C285.856 219.561 287.123 218.161 288.747 217.181C290.385 216.187 292.303 215.69 294.501 215.69C296.783 215.69 298.722 216.215 300.318 217.265C301.928 218.315 303.132 219.813 303.93 221.759C304.742 223.705 305.092 226.022 304.98 228.71H301.2V227.366C301.158 224.58 300.591 222.501 299.499 221.129C298.407 219.743 296.783 219.05 294.627 219.05C292.317 219.05 290.56 219.792 289.356 221.276C288.152 222.76 287.55 224.888 287.55 227.66C287.55 230.334 288.152 232.406 289.356 233.876C290.56 235.346 292.275 236.081 294.501 236.081C295.999 236.081 297.301 235.738 298.407 235.052C299.513 234.366 300.381 233.379 301.011 232.091L304.602 233.33C303.72 235.332 302.39 236.886 300.612 237.992C298.848 239.084 296.867 239.63 294.669 239.63ZM286.29 228.71V225.707H303.048V228.71H286.29ZM316.533 239.63C314.839 239.63 313.418 239.322 312.27 238.706C311.136 238.076 310.275 237.25 309.687 236.228C309.113 235.206 308.826 234.086 308.826 232.868C308.826 231.678 309.05 230.649 309.498 229.781C309.96 228.899 310.604 228.171 311.43 227.597C312.256 227.009 313.243 226.547 314.391 226.211C315.469 225.917 316.673 225.665 318.003 225.455C319.347 225.231 320.705 225.028 322.077 224.846C323.449 224.664 324.73 224.489 325.92 224.321L324.576 225.098C324.618 223.082 324.212 221.591 323.358 220.625C322.518 219.659 321.062 219.176 318.99 219.176C317.618 219.176 316.414 219.491 315.378 220.121C314.356 220.737 313.635 221.745 313.215 223.145L309.666 222.074C310.212 220.086 311.269 218.525 312.837 217.391C314.405 216.257 316.47 215.69 319.032 215.69C321.09 215.69 322.854 216.061 324.324 216.803C325.808 217.531 326.872 218.637 327.516 220.121C327.838 220.821 328.041 221.584 328.125 222.41C328.209 223.222 328.251 224.076 328.251 224.972V239H324.933V233.561L325.71 234.065C324.856 235.899 323.659 237.285 322.119 238.223C320.593 239.161 318.731 239.63 316.533 239.63ZM317.1 236.501C318.444 236.501 319.606 236.263 320.586 235.787C321.58 235.297 322.378 234.66 322.98 233.876C323.582 233.078 323.974 232.21 324.156 231.272C324.366 230.572 324.478 229.795 324.492 228.941C324.52 228.073 324.534 227.408 324.534 226.946L325.836 227.513C324.618 227.681 323.421 227.842 322.245 227.996C321.069 228.15 319.956 228.318 318.906 228.5C317.856 228.668 316.911 228.871 316.071 229.109C315.455 229.305 314.874 229.557 314.328 229.865C313.796 230.173 313.362 230.572 313.026 231.062C312.704 231.538 312.543 232.133 312.543 232.847C312.543 233.463 312.697 234.051 313.005 234.611C313.327 235.171 313.817 235.626 314.475 235.976C315.147 236.326 316.022 236.501 317.1 236.501ZM347.214 239C345.87 239.266 344.54 239.371 343.224 239.315C341.922 239.273 340.76 239.014 339.738 238.538C338.716 238.048 337.939 237.292 337.407 236.27C336.959 235.374 336.714 234.471 336.672 233.561C336.644 232.637 336.63 231.594 336.63 230.432V210.02H340.368V230.264C340.368 231.188 340.375 231.979 340.389 232.637C340.417 233.295 340.564 233.862 340.83 234.338C341.334 235.234 342.132 235.759 343.224 235.913C344.33 236.067 345.66 236.025 347.214 235.787V239ZM332.031 219.407V216.32H347.214V219.407H332.031ZM353.078 212.309V208.445H356.816V212.309H353.078ZM353.078 239V216.32H356.816V239H353.078ZM380.106 239V227.639C380.106 226.561 380.008 225.525 379.812 224.531C379.63 223.537 379.301 222.648 378.825 221.864C378.363 221.066 377.733 220.436 376.935 219.974C376.151 219.512 375.157 219.281 373.953 219.281C373.015 219.281 372.161 219.442 371.391 219.764C370.635 220.072 369.984 220.548 369.438 221.192C368.892 221.836 368.465 222.648 368.157 223.628C367.863 224.594 367.716 225.735 367.716 227.051L365.259 226.295C365.259 224.097 365.651 222.214 366.435 220.646C367.233 219.064 368.346 217.853 369.774 217.013C371.216 216.159 372.91 215.732 374.856 215.732C376.326 215.732 377.579 215.963 378.615 216.425C379.651 216.887 380.512 217.503 381.198 218.273C381.884 219.029 382.423 219.883 382.815 220.835C383.207 221.773 383.48 222.732 383.634 223.712C383.802 224.678 383.886 225.595 383.886 226.463V239H380.106ZM363.936 239V216.32H367.296V222.389H367.716V239H363.936ZM399.363 249.71C398.173 249.71 397.011 249.528 395.877 249.164C394.743 248.8 393.7 248.247 392.748 247.505C391.81 246.777 391.026 245.853 390.396 244.733L393.819 242.927C394.379 244.033 395.17 244.838 396.192 245.342C397.228 245.846 398.292 246.098 399.384 246.098C400.826 246.098 402.023 245.832 402.975 245.3C403.927 244.782 404.627 244.005 405.075 242.969C405.537 241.933 405.761 240.645 405.747 239.105V232.91H406.188V216.32H409.506V239.147C409.506 239.763 409.485 240.358 409.443 240.932C409.415 241.506 409.345 242.073 409.233 242.633C408.939 244.243 408.358 245.566 407.49 246.602C406.622 247.652 405.502 248.429 404.13 248.933C402.758 249.451 401.169 249.71 399.363 249.71ZM399.09 239.63C396.976 239.63 395.163 239.105 393.651 238.055C392.139 236.991 390.97 235.556 390.144 233.75C389.332 231.944 388.926 229.907 388.926 227.639C388.926 225.371 389.332 223.334 390.144 221.528C390.97 219.722 392.139 218.301 393.651 217.265C395.163 216.215 396.969 215.69 399.069 215.69C401.211 215.69 403.01 216.208 404.466 217.244C405.922 218.28 407.021 219.701 407.763 221.507C408.519 223.313 408.897 225.357 408.897 227.639C408.897 229.893 408.519 231.93 407.763 233.75C407.021 235.556 405.922 236.991 404.466 238.055C403.01 239.105 401.218 239.63 399.09 239.63ZM399.552 236.207C401.078 236.207 402.331 235.843 403.311 235.115C404.291 234.373 405.012 233.358 405.474 232.07C405.95 230.768 406.188 229.291 406.188 227.639C406.188 225.959 405.95 224.482 405.474 223.208C405.012 221.92 404.298 220.919 403.332 220.205C402.366 219.477 401.141 219.113 399.657 219.113C398.117 219.113 396.843 219.491 395.835 220.247C394.841 221.003 394.099 222.025 393.609 223.313C393.133 224.601 392.895 226.043 392.895 227.639C392.895 229.249 393.14 230.705 393.63 232.007C394.12 233.295 394.855 234.317 395.835 235.073C396.829 235.829 398.068 236.207 399.552 236.207ZM431.905 239.63C430.211 239.63 428.79 239.322 427.642 238.706C426.508 238.076 425.647 237.25 425.059 236.228C424.485 235.206 424.198 234.086 424.198 232.868C424.198 231.678 424.422 230.649 424.87 229.781C425.332 228.899 425.976 228.171 426.802 227.597C427.628 227.009 428.615 226.547 429.763 226.211C430.841 225.917 432.045 225.665 433.375 225.455C434.719 225.231 436.077 225.028 437.449 224.846C438.821 224.664 440.102 224.489 441.292 224.321L439.948 225.098C439.99 223.082 439.584 221.591 438.73 220.625C437.89 219.659 436.434 219.176 434.362 219.176C432.99 219.176 431.786 219.491 430.75 220.121C429.728 220.737 429.007 221.745 428.587 223.145L425.038 222.074C425.584 220.086 426.641 218.525 428.209 217.391C429.777 216.257 431.842 215.69 434.404 215.69C436.462 215.69 438.226 216.061 439.696 216.803C441.18 217.531 442.244 218.637 442.888 220.121C443.21 220.821 443.413 221.584 443.497 222.41C443.581 223.222 443.623 224.076 443.623 224.972V239H440.305V233.561L441.082 234.065C440.228 235.899 439.031 237.285 437.491 238.223C435.965 239.161 434.103 239.63 431.905 239.63ZM432.472 236.501C433.816 236.501 434.978 236.263 435.958 235.787C436.952 235.297 437.75 234.66 438.352 233.876C438.954 233.078 439.346 232.21 439.528 231.272C439.738 230.572 439.85 229.795 439.864 228.941C439.892 228.073 439.906 227.408 439.906 226.946L441.208 227.513C439.99 227.681 438.793 227.842 437.617 227.996C436.441 228.15 435.328 228.318 434.278 228.5C433.228 228.668 432.283 228.871 431.443 229.109C430.827 229.305 430.246 229.557 429.7 229.865C429.168 230.173 428.734 230.572 428.398 231.062C428.076 231.538 427.915 232.133 427.915 232.847C427.915 233.463 428.069 234.051 428.377 234.611C428.699 235.171 429.189 235.626 429.847 235.976C430.519 236.326 431.394 236.501 432.472 236.501ZM462.586 239C461.242 239.266 459.912 239.371 458.596 239.315C457.294 239.273 456.132 239.014 455.11 238.538C454.088 238.048 453.311 237.292 452.779 236.27C452.331 235.374 452.086 234.471 452.044 233.561C452.016 232.637 452.002 231.594 452.002 230.432V210.02H455.74V230.264C455.74 231.188 455.747 231.979 455.761 232.637C455.789 233.295 455.936 233.862 456.202 234.338C456.706 235.234 457.504 235.759 458.596 235.913C459.702 236.067 461.032 236.025 462.586 235.787V239ZM447.403 219.407V216.32H462.586V219.407H447.403ZM483.725 239.63C482.031 239.63 480.61 239.322 479.462 238.706C478.328 238.076 477.467 237.25 476.879 236.228C476.305 235.206 476.018 234.086 476.018 232.868C476.018 231.678 476.242 230.649 476.69 229.781C477.152 228.899 477.796 228.171 478.622 227.597C479.448 227.009 480.435 226.547 481.583 226.211C482.661 225.917 483.865 225.665 485.195 225.455C486.539 225.231 487.897 225.028 489.269 224.846C490.641 224.664 491.922 224.489 493.112 224.321L491.768 225.098C491.81 223.082 491.404 221.591 490.55 220.625C489.71 219.659 488.254 219.176 486.182 219.176C484.81 219.176 483.606 219.491 482.57 220.121C481.548 220.737 480.827 221.745 480.407 223.145L476.858 222.074C477.404 220.086 478.461 218.525 480.029 217.391C481.597 216.257 483.662 215.69 486.224 215.69C488.282 215.69 490.046 216.061 491.516 216.803C493 217.531 494.064 218.637 494.708 220.121C495.03 220.821 495.233 221.584 495.317 222.41C495.401 223.222 495.443 224.076 495.443 224.972V239H492.125V233.561L492.902 234.065C492.048 235.899 490.851 237.285 489.311 238.223C487.785 239.161 485.923 239.63 483.725 239.63ZM484.292 236.501C485.636 236.501 486.798 236.263 487.778 235.787C488.772 235.297 489.57 234.66 490.172 233.876C490.774 233.078 491.166 232.21 491.348 231.272C491.558 230.572 491.67 229.795 491.684 228.941C491.712 228.073 491.726 227.408 491.726 226.946L493.028 227.513C491.81 227.681 490.613 227.842 489.437 227.996C488.261 228.15 487.148 228.318 486.098 228.5C485.048 228.668 484.103 228.871 483.263 229.109C482.647 229.305 482.066 229.557 481.52 229.865C480.988 230.173 480.554 230.572 480.218 231.062C479.896 231.538 479.735 232.133 479.735 232.847C479.735 233.463 479.889 234.051 480.197 234.611C480.519 235.171 481.009 235.626 481.667 235.976C482.339 236.326 483.214 236.501 484.292 236.501ZM510.992 239V216.32H514.331V221.801L513.785 221.087C514.051 220.387 514.394 219.743 514.814 219.155C515.248 218.567 515.731 218.084 516.263 217.706C516.851 217.23 517.516 216.866 518.258 216.614C519 216.362 519.756 216.215 520.526 216.173C521.296 216.117 522.017 216.166 522.689 216.32V219.827C521.905 219.617 521.044 219.561 520.106 219.659C519.168 219.757 518.3 220.1 517.502 220.688C516.774 221.206 516.207 221.836 515.801 222.578C515.409 223.32 515.136 224.125 514.982 224.993C514.828 225.847 514.751 226.722 514.751 227.618V239H510.992ZM536.917 239.63C534.691 239.63 532.745 239.14 531.079 238.16C529.427 237.166 528.139 235.787 527.215 234.023C526.291 232.245 525.829 230.173 525.829 227.807C525.829 225.329 526.284 223.187 527.194 221.381C528.104 219.561 529.371 218.161 530.995 217.181C532.633 216.187 534.551 215.69 536.749 215.69C539.031 215.69 540.97 216.215 542.566 217.265C544.176 218.315 545.38 219.813 546.178 221.759C546.99 223.705 547.34 226.022 547.228 228.71H543.448V227.366C543.406 224.58 542.839 222.501 541.747 221.129C540.655 219.743 539.031 219.05 536.875 219.05C534.565 219.05 532.808 219.792 531.604 221.276C530.4 222.76 529.798 224.888 529.798 227.66C529.798 230.334 530.4 232.406 531.604 233.876C532.808 235.346 534.523 236.081 536.749 236.081C538.247 236.081 539.549 235.738 540.655 235.052C541.761 234.366 542.629 233.379 543.259 232.091L546.85 233.33C545.968 235.332 544.638 236.886 542.86 237.992C541.096 239.084 539.115 239.63 536.917 239.63ZM528.538 228.71V225.707H545.296V228.71H528.538ZM561.312 239.609C558.61 239.609 556.391 239.021 554.655 237.845C552.933 236.655 551.876 234.996 551.484 232.868L555.306 232.259C555.614 233.491 556.321 234.471 557.427 235.199C558.533 235.913 559.905 236.27 561.543 236.27C563.097 236.27 564.315 235.948 565.197 235.304C566.079 234.66 566.52 233.785 566.52 232.679C566.52 232.035 566.373 231.517 566.079 231.125C565.785 230.719 565.176 230.341 564.252 229.991C563.342 229.641 561.963 229.221 560.115 228.731C558.113 228.199 556.538 227.646 555.39 227.072C554.242 226.498 553.423 225.833 552.933 225.077C552.443 224.321 552.198 223.404 552.198 222.326C552.198 220.996 552.562 219.834 553.29 218.84C554.018 217.832 555.033 217.055 556.335 216.509C557.651 215.963 559.177 215.69 560.913 215.69C562.635 215.69 564.175 215.963 565.533 216.509C566.891 217.055 567.983 217.832 568.809 218.84C569.649 219.834 570.146 220.996 570.3 222.326L566.478 223.019C566.296 221.801 565.708 220.842 564.714 220.142C563.734 219.442 562.467 219.071 560.913 219.029C559.443 218.973 558.246 219.232 557.322 219.806C556.412 220.38 555.957 221.157 555.957 222.137C555.957 222.683 556.125 223.152 556.461 223.544C556.811 223.936 557.448 224.307 558.372 224.657C559.31 225.007 560.668 225.406 562.446 225.854C564.448 226.358 566.023 226.911 567.171 227.513C568.333 228.101 569.159 228.801 569.649 229.613C570.139 230.411 570.384 231.398 570.384 232.574C570.384 234.758 569.579 236.48 567.969 237.74C566.359 238.986 564.14 239.609 561.312 239.609ZM588.518 239C587.174 239.266 585.844 239.371 584.528 239.315C583.226 239.273 582.064 239.014 581.042 238.538C580.02 238.048 579.243 237.292 578.711 236.27C578.263 235.374 578.018 234.471 577.976 233.561C577.948 232.637 577.934 231.594 577.934 230.432V210.02H581.672V230.264C581.672 231.188 581.679 231.979 581.693 232.637C581.721 233.295 581.868 233.862 582.134 234.338C582.638 235.234 583.436 235.759 584.528 235.913C585.634 236.067 586.964 236.025 588.518 235.787V239ZM573.335 219.407V216.32H588.518V219.407H573.335ZM600.41 239.63C598.716 239.63 597.295 239.322 596.147 238.706C595.013 238.076 594.152 237.25 593.564 236.228C592.99 235.206 592.703 234.086 592.703 232.868C592.703 231.678 592.927 230.649 593.375 229.781C593.837 228.899 594.481 228.171 595.307 227.597C596.133 227.009 597.12 226.547 598.268 226.211C599.346 225.917 600.55 225.665 601.88 225.455C603.224 225.231 604.582 225.028 605.954 224.846C607.326 224.664 608.607 224.489 609.797 224.321L608.453 225.098C608.495 223.082 608.089 221.591 607.235 220.625C606.395 219.659 604.939 219.176 602.867 219.176C601.495 219.176 600.291 219.491 599.255 220.121C598.233 220.737 597.512 221.745 597.092 223.145L593.543 222.074C594.089 220.086 595.146 218.525 596.714 217.391C598.282 216.257 600.347 215.69 602.909 215.69C604.967 215.69 606.731 216.061 608.201 216.803C609.685 217.531 610.749 218.637 611.393 220.121C611.715 220.821 611.918 221.584 612.002 222.41C612.086 223.222 612.128 224.076 612.128 224.972V239H608.81V233.561L609.587 234.065C608.733 235.899 607.536 237.285 605.996 238.223C604.47 239.161 602.608 239.63 600.41 239.63ZM600.977 236.501C602.321 236.501 603.483 236.263 604.463 235.787C605.457 235.297 606.255 234.66 606.857 233.876C607.459 233.078 607.851 232.21 608.033 231.272C608.243 230.572 608.355 229.795 608.369 228.941C608.397 228.073 608.411 227.408 608.411 226.946L609.713 227.513C608.495 227.681 607.298 227.842 606.122 227.996C604.946 228.15 603.833 228.318 602.783 228.5C601.733 228.668 600.788 228.871 599.948 229.109C599.332 229.305 598.751 229.557 598.205 229.865C597.673 230.173 597.239 230.572 596.903 231.062C596.581 231.538 596.42 232.133 596.42 232.847C596.42 233.463 596.574 234.051 596.882 234.611C597.204 235.171 597.694 235.626 598.352 235.976C599.024 236.326 599.899 236.501 600.977 236.501ZM627.038 239.588C625.582 239.588 624.329 239.357 623.279 238.895C622.243 238.433 621.382 237.817 620.696 237.047C620.01 236.277 619.471 235.423 619.079 234.485C618.687 233.547 618.407 232.588 618.239 231.608C618.085 230.628 618.008 229.711 618.008 228.857V216.32H621.788V227.681C621.788 228.745 621.886 229.774 622.082 230.768C622.278 231.762 622.607 232.658 623.069 233.456C623.545 234.254 624.175 234.884 624.959 235.346C625.757 235.808 626.751 236.039 627.941 236.039C628.879 236.039 629.733 235.878 630.503 235.556C631.273 235.234 631.931 234.758 632.477 234.128C633.023 233.484 633.443 232.672 633.737 231.692C634.031 230.712 634.178 229.571 634.178 228.269L636.635 229.025C636.635 231.209 636.236 233.092 635.438 234.674C634.654 236.256 633.541 237.474 632.099 238.328C630.671 239.168 628.984 239.588 627.038 239.588ZM634.598 239V232.931H634.178V216.32H637.937V239H634.598ZM644.657 239V216.32H647.996V221.801L647.45 221.087C647.716 220.387 648.059 219.743 648.479 219.155C648.913 218.567 649.396 218.084 649.928 217.706C650.516 217.23 651.181 216.866 651.923 216.614C652.665 216.362 653.421 216.215 654.191 216.173C654.961 216.117 655.682 216.166 656.354 216.32V219.827C655.57 219.617 654.709 219.561 653.771 219.659C652.833 219.757 651.965 220.1 651.167 220.688C650.439 221.206 649.872 221.836 649.466 222.578C649.074 223.32 648.801 224.125 648.647 224.993C648.493 225.847 648.416 226.722 648.416 227.618V239H644.657ZM666.873 239.63C665.179 239.63 663.758 239.322 662.61 238.706C661.476 238.076 660.615 237.25 660.027 236.228C659.453 235.206 659.166 234.086 659.166 232.868C659.166 231.678 659.39 230.649 659.838 229.781C660.3 228.899 660.944 228.171 661.77 227.597C662.596 227.009 663.583 226.547 664.731 226.211C665.809 225.917 667.013 225.665 668.343 225.455C669.687 225.231 671.045 225.028 672.417 224.846C673.789 224.664 675.07 224.489 676.26 224.321L674.916 225.098C674.958 223.082 674.552 221.591 673.698 220.625C672.858 219.659 671.402 219.176 669.33 219.176C667.958 219.176 666.754 219.491 665.718 220.121C664.696 220.737 663.975 221.745 663.555 223.145L660.006 222.074C660.552 220.086 661.609 218.525 663.177 217.391C664.745 216.257 666.81 215.69 669.372 215.69C671.43 215.69 673.194 216.061 674.664 216.803C676.148 217.531 677.212 218.637 677.856 220.121C678.178 220.821 678.381 221.584 678.465 222.41C678.549 223.222 678.591 224.076 678.591 224.972V239H675.273V233.561L676.05 234.065C675.196 235.899 673.999 237.285 672.459 238.223C670.933 239.161 669.071 239.63 666.873 239.63ZM667.44 236.501C668.784 236.501 669.946 236.263 670.926 235.787C671.92 235.297 672.718 234.66 673.32 233.876C673.922 233.078 674.314 232.21 674.496 231.272C674.706 230.572 674.818 229.795 674.832 228.941C674.86 228.073 674.874 227.408 674.874 226.946L676.176 227.513C674.958 227.681 673.761 227.842 672.585 227.996C671.409 228.15 670.296 228.318 669.246 228.5C668.196 228.668 667.251 228.871 666.411 229.109C665.795 229.305 665.214 229.557 664.668 229.865C664.136 230.173 663.702 230.572 663.366 231.062C663.044 231.538 662.883 232.133 662.883 232.847C662.883 233.463 663.037 234.051 663.345 234.611C663.667 235.171 664.157 235.626 664.815 235.976C665.487 236.326 666.362 236.501 667.44 236.501ZM701.04 239V227.639C701.04 226.561 700.942 225.525 700.746 224.531C700.564 223.537 700.235 222.648 699.759 221.864C699.297 221.066 698.667 220.436 697.869 219.974C697.085 219.512 696.091 219.281 694.887 219.281C693.949 219.281 693.095 219.442 692.325 219.764C691.569 220.072 690.918 220.548 690.372 221.192C689.826 221.836 689.399 222.648 689.091 223.628C688.797 224.594 688.65 225.735 688.65 227.051L686.193 226.295C686.193 224.097 686.585 222.214 687.369 220.646C688.167 219.064 689.28 217.853 690.708 217.013C692.15 216.159 693.844 215.732 695.79 215.732C697.26 215.732 698.513 215.963 699.549 216.425C700.585 216.887 701.446 217.503 702.132 218.273C702.818 219.029 703.357 219.883 703.749 220.835C704.141 221.773 704.414 222.732 704.568 223.712C704.736 224.678 704.82 225.595 704.82 226.463V239H701.04ZM684.87 239V216.32H688.23V222.389H688.65V239H684.87ZM723.783 239C722.439 239.266 721.109 239.371 719.793 239.315C718.491 239.273 717.329 239.014 716.307 238.538C715.285 238.048 714.508 237.292 713.976 236.27C713.528 235.374 713.283 234.471 713.241 233.561C713.213 232.637 713.199 231.594 713.199 230.432V210.02H716.937V230.264C716.937 231.188 716.944 231.979 716.958 232.637C716.986 233.295 717.133 233.862 717.399 234.338C717.903 235.234 718.701 235.759 719.793 235.913C720.899 236.067 722.229 236.025 723.783 235.787V239ZM708.6 219.407V216.32H723.783V219.407H708.6ZM246.088 297.979L246.109 294.619L259.528 282.544C260.648 281.536 261.397 280.584 261.775 279.688C262.167 278.778 262.363 277.847 262.363 276.895C262.363 275.733 262.097 274.683 261.565 273.745C261.033 272.807 260.305 272.065 259.381 271.519C258.471 270.973 257.435 270.7 256.273 270.7C255.069 270.7 253.998 270.987 253.06 271.561C252.122 272.121 251.38 272.87 250.834 273.808C250.302 274.746 250.043 275.768 250.057 276.874H246.235C246.235 274.97 246.676 273.29 247.558 271.834C248.44 270.364 249.637 269.216 251.149 268.39C252.675 267.55 254.404 267.13 256.336 267.13C258.212 267.13 259.892 267.564 261.376 268.432C262.86 269.286 264.029 270.455 264.883 271.939C265.751 273.409 266.185 275.075 266.185 276.937C266.185 278.253 266.017 279.394 265.681 280.36C265.359 281.326 264.855 282.222 264.169 283.048C263.483 283.86 262.622 284.728 261.586 285.652L250.435 295.669L249.952 294.409H266.185V297.979H246.088ZM272.805 298V293.884H276.921V298H272.805ZM297.874 298V267.13H301.612V298H297.874ZM318.413 298.63C316.159 298.63 314.213 298.119 312.575 297.097C310.951 296.075 309.698 294.661 308.816 292.855C307.934 291.049 307.493 288.977 307.493 286.639C307.493 284.259 307.941 282.173 308.837 280.381C309.733 278.589 311 277.196 312.638 276.202C314.276 275.194 316.201 274.69 318.413 274.69C320.681 274.69 322.634 275.201 324.272 276.223C325.91 277.231 327.163 278.638 328.031 280.444C328.913 282.236 329.354 284.301 329.354 286.639C329.354 289.005 328.913 291.091 328.031 292.897C327.149 294.689 325.889 296.096 324.251 297.118C322.613 298.126 320.667 298.63 318.413 298.63ZM318.413 295.081C320.765 295.081 322.515 294.297 323.663 292.729C324.811 291.161 325.385 289.131 325.385 286.639C325.385 284.077 324.804 282.04 323.642 280.528C322.48 279.002 320.737 278.239 318.413 278.239C316.831 278.239 315.529 278.596 314.507 279.31C313.485 280.024 312.722 281.011 312.218 282.271C311.714 283.531 311.462 284.987 311.462 286.639C311.462 289.187 312.05 291.231 313.226 292.771C314.402 294.311 316.131 295.081 318.413 295.081ZM343.427 298.588C341.971 298.588 340.718 298.357 339.668 297.895C338.632 297.433 337.771 296.817 337.085 296.047C336.399 295.277 335.86 294.423 335.468 293.485C335.076 292.547 334.796 291.588 334.628 290.608C334.474 289.628 334.397 288.711 334.397 287.857V275.32H338.177V286.681C338.177 287.745 338.275 288.774 338.471 289.768C338.667 290.762 338.996 291.658 339.458 292.456C339.934 293.254 340.564 293.884 341.348 294.346C342.146 294.808 343.14 295.039 344.33 295.039C345.268 295.039 346.122 294.878 346.892 294.556C347.662 294.234 348.32 293.758 348.866 293.128C349.412 292.484 349.832 291.672 350.126 290.692C350.42 289.712 350.567 288.571 350.567 287.269L353.024 288.025C353.024 290.209 352.625 292.092 351.827 293.674C351.043 295.256 349.93 296.474 348.488 297.328C347.06 298.168 345.373 298.588 343.427 298.588ZM350.987 298V291.931H350.567V275.32H354.326V298H350.987ZM369.95 298.63C367.836 298.63 366.023 298.105 364.511 297.055C362.999 295.991 361.83 294.556 361.004 292.75C360.192 290.944 359.786 288.907 359.786 286.639C359.786 284.371 360.192 282.334 361.004 280.528C361.83 278.722 362.999 277.301 364.511 276.265C366.023 275.215 367.829 274.69 369.929 274.69C372.071 274.69 373.87 275.208 375.326 276.244C376.782 277.28 377.881 278.701 378.623 280.507C379.379 282.313 379.757 284.357 379.757 286.639C379.757 288.893 379.379 290.93 378.623 292.75C377.881 294.556 376.782 295.991 375.326 297.055C373.87 298.105 372.078 298.63 369.95 298.63ZM370.412 295.207C371.938 295.207 373.191 294.843 374.171 294.115C375.151 293.373 375.872 292.358 376.334 291.07C376.81 289.768 377.048 288.291 377.048 286.639C377.048 284.959 376.81 283.482 376.334 282.208C375.872 280.92 375.158 279.919 374.192 279.205C373.226 278.477 372.001 278.113 370.517 278.113C368.977 278.113 367.703 278.491 366.695 279.247C365.701 280.003 364.959 281.025 364.469 282.313C363.993 283.601 363.755 285.043 363.755 286.639C363.755 288.249 364 289.705 364.49 291.007C364.98 292.295 365.715 293.317 366.695 294.073C367.689 294.829 368.928 295.207 370.412 295.207ZM377.048 298V281.305H376.628V267.76H380.387V298H377.048ZM404.003 267.76H407.804L399.74 298H395.939L404.003 267.76ZM436.008 298C434.664 298.266 433.334 298.371 432.018 298.315C430.716 298.273 429.554 298.014 428.532 297.538C427.51 297.048 426.733 296.292 426.201 295.27C425.753 294.374 425.508 293.471 425.466 292.561C425.438 291.637 425.424 290.594 425.424 289.432V269.02H429.162V289.264C429.162 290.188 429.169 290.979 429.183 291.637C429.211 292.295 429.358 292.862 429.624 293.338C430.128 294.234 430.926 294.759 432.018 294.913C433.124 295.067 434.454 295.025 436.008 294.787V298ZM420.825 278.407V275.32H436.008V278.407H420.825ZM447.9 298.63C446.206 298.63 444.785 298.322 443.637 297.706C442.503 297.076 441.642 296.25 441.054 295.228C440.48 294.206 440.193 293.086 440.193 291.868C440.193 290.678 440.417 289.649 440.865 288.781C441.327 287.899 441.971 287.171 442.797 286.597C443.623 286.009 444.61 285.547 445.758 285.211C446.836 284.917 448.04 284.665 449.37 284.455C450.714 284.231 452.072 284.028 453.444 283.846C454.816 283.664 456.097 283.489 457.287 283.321L455.943 284.098C455.985 282.082 455.579 280.591 454.725 279.625C453.885 278.659 452.429 278.176 450.357 278.176C448.985 278.176 447.781 278.491 446.745 279.121C445.723 279.737 445.002 280.745 444.582 282.145L441.033 281.074C441.579 279.086 442.636 277.525 444.204 276.391C445.772 275.257 447.837 274.69 450.399 274.69C452.457 274.69 454.221 275.061 455.691 275.803C457.175 276.531 458.239 277.637 458.883 279.121C459.205 279.821 459.408 280.584 459.492 281.41C459.576 282.222 459.618 283.076 459.618 283.972V298H456.3V292.561L457.077 293.065C456.223 294.899 455.026 296.285 453.486 297.223C451.96 298.161 450.098 298.63 447.9 298.63ZM448.467 295.501C449.811 295.501 450.973 295.263 451.953 294.787C452.947 294.297 453.745 293.66 454.347 292.876C454.949 292.078 455.341 291.21 455.523 290.272C455.733 289.572 455.845 288.795 455.859 287.941C455.887 287.073 455.901 286.408 455.901 285.946L457.203 286.513C455.985 286.681 454.788 286.842 453.612 286.996C452.436 287.15 451.323 287.318 450.273 287.5C449.223 287.668 448.278 287.871 447.438 288.109C446.822 288.305 446.241 288.557 445.695 288.865C445.163 289.173 444.729 289.572 444.393 290.062C444.071 290.538 443.91 291.133 443.91 291.847C443.91 292.463 444.064 293.051 444.372 293.611C444.694 294.171 445.184 294.626 445.842 294.976C446.514 295.326 447.389 295.501 448.467 295.501ZM466.338 298V267.13H470.076V298H466.338ZM477.196 298L477.217 267.76H480.997V286.24L490.51 275.32H495.361L485.344 286.66L496.537 298H491.308L480.997 287.08V298H477.196ZM499.887 271.309V267.445H503.625V271.309H499.887ZM499.887 298V275.32H503.625V298H499.887ZM526.915 298V286.639C526.915 285.561 526.817 284.525 526.621 283.531C526.439 282.537 526.11 281.648 525.634 280.864C525.172 280.066 524.542 279.436 523.744 278.974C522.96 278.512 521.966 278.281 520.762 278.281C519.824 278.281 518.97 278.442 518.2 278.764C517.444 279.072 516.793 279.548 516.247 280.192C515.701 280.836 515.274 281.648 514.966 282.628C514.672 283.594 514.525 284.735 514.525 286.051L512.068 285.295C512.068 283.097 512.46 281.214 513.244 279.646C514.042 278.064 515.155 276.853 516.583 276.013C518.025 275.159 519.719 274.732 521.665 274.732C523.135 274.732 524.388 274.963 525.424 275.425C526.46 275.887 527.321 276.503 528.007 277.273C528.693 278.029 529.232 278.883 529.624 279.835C530.016 280.773 530.289 281.732 530.443 282.712C530.611 283.678 530.695 284.595 530.695 285.463V298H526.915ZM510.745 298V275.32H514.105V281.389H514.525V298H510.745ZM546.172 308.71C544.982 308.71 543.82 308.528 542.686 308.164C541.552 307.8 540.509 307.247 539.557 306.505C538.619 305.777 537.835 304.853 537.205 303.733L540.628 301.927C541.188 303.033 541.979 303.838 543.001 304.342C544.037 304.846 545.101 305.098 546.193 305.098C547.635 305.098 548.832 304.832 549.784 304.3C550.736 303.782 551.436 303.005 551.884 301.969C552.346 300.933 552.57 299.645 552.556 298.105V291.91H552.997V275.32H556.315V298.147C556.315 298.763 556.294 299.358 556.252 299.932C556.224 300.506 556.154 301.073 556.042 301.633C555.748 303.243 555.167 304.566 554.299 305.602C553.431 306.652 552.311 307.429 550.939 307.933C549.567 308.451 547.978 308.71 546.172 308.71ZM545.899 298.63C543.785 298.63 541.972 298.105 540.46 297.055C538.948 295.991 537.779 294.556 536.953 292.75C536.141 290.944 535.735 288.907 535.735 286.639C535.735 284.371 536.141 282.334 536.953 280.528C537.779 278.722 538.948 277.301 540.46 276.265C541.972 275.215 543.778 274.69 545.878 274.69C548.02 274.69 549.819 275.208 551.275 276.244C552.731 277.28 553.83 278.701 554.572 280.507C555.328 282.313 555.706 284.357 555.706 286.639C555.706 288.893 555.328 290.93 554.572 292.75C553.83 294.556 552.731 295.991 551.275 297.055C549.819 298.105 548.027 298.63 545.899 298.63ZM546.361 295.207C547.887 295.207 549.14 294.843 550.12 294.115C551.1 293.373 551.821 292.358 552.283 291.07C552.759 289.768 552.997 288.291 552.997 286.639C552.997 284.959 552.759 283.482 552.283 282.208C551.821 280.92 551.107 279.919 550.141 279.205C549.175 278.477 547.95 278.113 546.466 278.113C544.926 278.113 543.652 278.491 542.644 279.247C541.65 280.003 540.908 281.025 540.418 282.313C539.942 283.601 539.704 285.043 539.704 286.639C539.704 288.249 539.949 289.705 540.439 291.007C540.929 292.295 541.664 293.317 542.644 294.073C543.638 294.829 544.877 295.207 546.361 295.207ZM153.342 357.588C151.844 357.588 150.451 357.315 149.163 356.769C147.875 356.209 146.762 355.425 145.824 354.417C144.9 353.395 144.221 352.184 143.787 350.784L147.378 349.755C147.84 351.155 148.61 352.219 149.688 352.947C150.766 353.675 151.977 354.032 153.321 354.018C154.553 353.99 155.617 353.71 156.513 353.178C157.423 352.632 158.123 351.89 158.613 350.952C159.117 350.014 159.369 348.929 159.369 347.697C159.369 345.821 158.809 344.302 157.689 343.14C156.569 341.964 155.099 341.376 153.279 341.376C152.775 341.376 152.243 341.446 151.683 341.586C151.137 341.726 150.626 341.922 150.15 342.174L148.344 339.213L159.558 329.07L160.041 330.33H144.984V326.76H162.813V330.351L153.258 339.507L153.216 338.184C155.218 338.044 156.968 338.373 158.466 339.171C159.964 339.969 161.126 341.11 161.952 342.594C162.792 344.078 163.212 345.779 163.212 347.697C163.212 349.629 162.778 351.337 161.91 352.821C161.042 354.305 159.866 355.474 158.382 356.328C156.898 357.168 155.218 357.588 153.342 357.588ZM170.546 357V352.884H174.662V357H170.546ZM205.022 357.63C202.796 357.63 200.85 357.14 199.184 356.16C197.532 355.166 196.244 353.787 195.32 352.023C194.396 350.245 193.934 348.173 193.934 345.807C193.934 343.329 194.389 341.187 195.299 339.381C196.209 337.561 197.476 336.161 199.1 335.181C200.738 334.187 202.656 333.69 204.854 333.69C207.136 333.69 209.075 334.215 210.671 335.265C212.281 336.315 213.485 337.813 214.283 339.759C215.095 341.705 215.445 344.022 215.333 346.71H211.553V345.366C211.511 342.58 210.944 340.501 209.852 339.129C208.76 337.743 207.136 337.05 204.98 337.05C202.67 337.05 200.913 337.792 199.709 339.276C198.505 340.76 197.903 342.888 197.903 345.66C197.903 348.334 198.505 350.406 199.709 351.876C200.913 353.346 202.628 354.081 204.854 354.081C206.352 354.081 207.654 353.738 208.76 353.052C209.866 352.366 210.734 351.379 211.364 350.091L214.955 351.33C214.073 353.332 212.743 354.886 210.965 355.992C209.201 357.084 207.22 357.63 205.022 357.63ZM196.643 346.71V343.707H213.401V346.71H196.643ZM247.344 357L247.365 342.489C247.365 340.795 246.91 339.472 246 338.52C245.104 337.554 243.935 337.071 242.493 337.071C241.653 337.071 240.855 337.267 240.099 337.659C239.343 338.037 238.727 338.639 238.251 339.465C237.775 340.277 237.537 341.32 237.537 342.594L235.563 341.796C235.535 340.186 235.864 338.779 236.55 337.575C237.25 336.357 238.202 335.412 239.406 334.74C240.61 334.068 241.968 333.732 243.48 333.732C245.846 333.732 247.708 334.453 249.066 335.895C250.424 337.323 251.103 339.248 251.103 341.67L251.082 357H247.344ZM220.212 357V334.32H223.551V340.389H223.971V357H220.212ZM233.799 357L233.82 342.636C233.82 340.9 233.372 339.542 232.476 338.562C231.58 337.568 230.39 337.071 228.906 337.071C227.436 337.071 226.246 337.575 225.336 338.583C224.426 339.591 223.971 340.928 223.971 342.594L221.997 341.418C221.997 339.948 222.347 338.632 223.047 337.47C223.747 336.308 224.699 335.398 225.903 334.74C227.107 334.068 228.472 333.732 229.998 333.732C231.524 333.732 232.854 334.054 233.988 334.698C235.122 335.342 235.997 336.266 236.613 337.47C237.229 338.66 237.537 340.081 237.537 341.733L237.516 357H233.799ZM267.829 357.63C265.701 357.63 263.909 357.105 262.453 356.055C260.997 354.991 259.891 353.556 259.135 351.75C258.393 349.93 258.022 347.893 258.022 345.639C258.022 343.357 258.393 341.313 259.135 339.507C259.891 337.701 260.997 336.28 262.453 335.244C263.923 334.208 265.722 333.69 267.85 333.69C269.95 333.69 271.756 334.215 273.268 335.265C274.794 336.301 275.963 337.722 276.775 339.528C277.587 341.334 277.993 343.371 277.993 345.639C277.993 347.907 277.587 349.944 276.775 351.75C275.963 353.556 274.794 354.991 273.268 356.055C271.756 357.105 269.943 357.63 267.829 357.63ZM257.392 357V326.76H261.151V340.305H260.731V357H257.392ZM267.367 354.207C268.865 354.207 270.104 353.829 271.084 353.073C272.064 352.317 272.799 351.295 273.289 350.007C273.779 348.705 274.024 347.249 274.024 345.639C274.024 344.043 273.779 342.601 273.289 341.313C272.813 340.025 272.071 339.003 271.063 338.247C270.069 337.491 268.802 337.113 267.262 337.113C265.792 337.113 264.574 337.477 263.608 338.205C262.642 338.919 261.921 339.92 261.445 341.208C260.969 342.482 260.731 343.959 260.731 345.639C260.731 347.291 260.962 348.768 261.424 350.07C261.9 351.358 262.628 352.373 263.608 353.115C264.588 353.843 265.841 354.207 267.367 354.207ZM289.884 357.63C288.19 357.63 286.769 357.322 285.621 356.706C284.487 356.076 283.626 355.25 283.038 354.228C282.464 353.206 282.177 352.086 282.177 350.868C282.177 349.678 282.401 348.649 282.849 347.781C283.311 346.899 283.955 346.171 284.781 345.597C285.607 345.009 286.594 344.547 287.742 344.211C288.82 343.917 290.024 343.665 291.354 343.455C292.698 343.231 294.056 343.028 295.428 342.846C296.8 342.664 298.081 342.489 299.271 342.321L297.927 343.098C297.969 341.082 297.563 339.591 296.709 338.625C295.869 337.659 294.413 337.176 292.341 337.176C290.969 337.176 289.765 337.491 288.729 338.121C287.707 338.737 286.986 339.745 286.566 341.145L283.017 340.074C283.563 338.086 284.62 336.525 286.188 335.391C287.756 334.257 289.821 333.69 292.383 333.69C294.441 333.69 296.205 334.061 297.675 334.803C299.159 335.531 300.223 336.637 300.867 338.121C301.189 338.821 301.392 339.584 301.476 340.41C301.56 341.222 301.602 342.076 301.602 342.972V357H298.284V351.561L299.061 352.065C298.207 353.899 297.01 355.285 295.47 356.223C293.944 357.161 292.082 357.63 289.884 357.63ZM290.451 354.501C291.795 354.501 292.957 354.263 293.937 353.787C294.931 353.297 295.729 352.66 296.331 351.876C296.933 351.078 297.325 350.21 297.507 349.272C297.717 348.572 297.829 347.795 297.843 346.941C297.871 346.073 297.885 345.408 297.885 344.946L299.187 345.513C297.969 345.681 296.772 345.842 295.596 345.996C294.42 346.15 293.307 346.318 292.257 346.5C291.207 346.668 290.262 346.871 289.422 347.109C288.806 347.305 288.225 347.557 287.679 347.865C287.147 348.173 286.713 348.572 286.377 349.062C286.055 349.538 285.894 350.133 285.894 350.847C285.894 351.463 286.048 352.051 286.356 352.611C286.678 353.171 287.168 353.626 287.826 353.976C288.498 354.326 289.373 354.501 290.451 354.501ZM307.902 357V334.32H311.241V339.801L310.695 339.087C310.961 338.387 311.304 337.743 311.724 337.155C312.158 336.567 312.641 336.084 313.173 335.706C313.761 335.23 314.426 334.866 315.168 334.614C315.91 334.362 316.666 334.215 317.436 334.173C318.206 334.117 318.927 334.166 319.599 334.32V337.827C318.815 337.617 317.954 337.561 317.016 337.659C316.078 337.757 315.21 338.1 314.412 338.688C313.684 339.206 313.117 339.836 312.711 340.578C312.319 341.32 312.046 342.125 311.892 342.993C311.738 343.847 311.661 344.722 311.661 345.618V357H307.902ZM324.41 357V334.32H327.749V339.801L327.203 339.087C327.469 338.387 327.812 337.743 328.232 337.155C328.666 336.567 329.149 336.084 329.681 335.706C330.269 335.23 330.934 334.866 331.676 334.614C332.418 334.362 333.174 334.215 333.944 334.173C334.714 334.117 335.435 334.166 336.107 334.32V337.827C335.323 337.617 334.462 337.561 333.524 337.659C332.586 337.757 331.718 338.1 330.92 338.688C330.192 339.206 329.625 339.836 329.219 340.578C328.827 341.32 328.554 342.125 328.4 342.993C328.246 343.847 328.169 344.722 328.169 345.618V357H324.41ZM346.627 357.63C344.933 357.63 343.512 357.322 342.364 356.706C341.23 356.076 340.369 355.25 339.781 354.228C339.207 353.206 338.92 352.086 338.92 350.868C338.92 349.678 339.144 348.649 339.592 347.781C340.054 346.899 340.698 346.171 341.524 345.597C342.35 345.009 343.337 344.547 344.485 344.211C345.563 343.917 346.767 343.665 348.097 343.455C349.441 343.231 350.799 343.028 352.171 342.846C353.543 342.664 354.824 342.489 356.014 342.321L354.67 343.098C354.712 341.082 354.306 339.591 353.452 338.625C352.612 337.659 351.156 337.176 349.084 337.176C347.712 337.176 346.508 337.491 345.472 338.121C344.45 338.737 343.729 339.745 343.309 341.145L339.76 340.074C340.306 338.086 341.363 336.525 342.931 335.391C344.499 334.257 346.564 333.69 349.126 333.69C351.184 333.69 352.948 334.061 354.418 334.803C355.902 335.531 356.966 336.637 357.61 338.121C357.932 338.821 358.135 339.584 358.219 340.41C358.303 341.222 358.345 342.076 358.345 342.972V357H355.027V351.561L355.804 352.065C354.95 353.899 353.753 355.285 352.213 356.223C350.687 357.161 348.825 357.63 346.627 357.63ZM347.194 354.501C348.538 354.501 349.7 354.263 350.68 353.787C351.674 353.297 352.472 352.66 353.074 351.876C353.676 351.078 354.068 350.21 354.25 349.272C354.46 348.572 354.572 347.795 354.586 346.941C354.614 346.073 354.628 345.408 354.628 344.946L355.93 345.513C354.712 345.681 353.515 345.842 352.339 345.996C351.163 346.15 350.05 346.318 349 346.5C347.95 346.668 347.005 346.871 346.165 347.109C345.549 347.305 344.968 347.557 344.422 347.865C343.89 348.173 343.456 348.572 343.12 349.062C342.798 349.538 342.637 350.133 342.637 350.847C342.637 351.463 342.791 352.051 343.099 352.611C343.421 353.171 343.911 353.626 344.569 353.976C345.241 354.326 346.116 354.501 347.194 354.501ZM373.213 357.609C370.511 357.609 368.292 357.021 366.556 355.845C364.834 354.655 363.777 352.996 363.385 350.868L367.207 350.259C367.515 351.491 368.222 352.471 369.328 353.199C370.434 353.913 371.806 354.27 373.444 354.27C374.998 354.27 376.216 353.948 377.098 353.304C377.98 352.66 378.421 351.785 378.421 350.679C378.421 350.035 378.274 349.517 377.98 349.125C377.686 348.719 377.077 348.341 376.153 347.991C375.243 347.641 373.864 347.221 372.016 346.731C370.014 346.199 368.439 345.646 367.291 345.072C366.143 344.498 365.324 343.833 364.834 343.077C364.344 342.321 364.099 341.404 364.099 340.326C364.099 338.996 364.463 337.834 365.191 336.84C365.919 335.832 366.934 335.055 368.236 334.509C369.552 333.963 371.078 333.69 372.814 333.69C374.536 333.69 376.076 333.963 377.434 334.509C378.792 335.055 379.884 335.832 380.71 336.84C381.55 337.834 382.047 338.996 382.201 340.326L378.379 341.019C378.197 339.801 377.609 338.842 376.615 338.142C375.635 337.442 374.368 337.071 372.814 337.029C371.344 336.973 370.147 337.232 369.223 337.806C368.313 338.38 367.858 339.157 367.858 340.137C367.858 340.683 368.026 341.152 368.362 341.544C368.712 341.936 369.349 342.307 370.273 342.657C371.211 343.007 372.569 343.406 374.347 343.854C376.349 344.358 377.924 344.911 379.072 345.513C380.234 346.101 381.06 346.801 381.55 347.613C382.04 348.411 382.285 349.398 382.285 350.574C382.285 352.758 381.48 354.48 379.87 355.74C378.26 356.986 376.041 357.609 373.213 357.609ZM396.324 357.609C393.622 357.609 391.403 357.021 389.667 355.845C387.945 354.655 386.888 352.996 386.496 350.868L390.318 350.259C390.626 351.491 391.333 352.471 392.439 353.199C393.545 353.913 394.917 354.27 396.555 354.27C398.109 354.27 399.327 353.948 400.209 353.304C401.091 352.66 401.532 351.785 401.532 350.679C401.532 350.035 401.385 349.517 401.091 349.125C400.797 348.719 400.188 348.341 399.264 347.991C398.354 347.641 396.975 347.221 395.127 346.731C393.125 346.199 391.55 345.646 390.402 345.072C389.254 344.498 388.435 343.833 387.945 343.077C387.455 342.321 387.21 341.404 387.21 340.326C387.21 338.996 387.574 337.834 388.302 336.84C389.03 335.832 390.045 335.055 391.347 334.509C392.663 333.963 394.189 333.69 395.925 333.69C397.647 333.69 399.187 333.963 400.545 334.509C401.903 335.055 402.995 335.832 403.821 336.84C404.661 337.834 405.158 338.996 405.312 340.326L401.49 341.019C401.308 339.801 400.72 338.842 399.726 338.142C398.746 337.442 397.479 337.071 395.925 337.029C394.455 336.973 393.258 337.232 392.334 337.806C391.424 338.38 390.969 339.157 390.969 340.137C390.969 340.683 391.137 341.152 391.473 341.544C391.823 341.936 392.46 342.307 393.384 342.657C394.322 343.007 395.68 343.406 397.458 343.854C399.46 344.358 401.035 344.911 402.183 345.513C403.345 346.101 404.171 346.801 404.661 347.613C405.151 348.411 405.396 349.398 405.396 350.574C405.396 352.758 404.591 354.48 402.981 355.74C401.371 356.986 399.152 357.609 396.324 357.609ZM411.287 330.309V326.445H415.025V330.309H411.287ZM411.287 357V334.32H415.025V357H411.287ZM438.315 357V345.639C438.315 344.561 438.217 343.525 438.021 342.531C437.839 341.537 437.51 340.648 437.034 339.864C436.572 339.066 435.942 338.436 435.144 337.974C434.36 337.512 433.366 337.281 432.162 337.281C431.224 337.281 430.37 337.442 429.6 337.764C428.844 338.072 428.193 338.548 427.647 339.192C427.101 339.836 426.674 340.648 426.366 341.628C426.072 342.594 425.925 343.735 425.925 345.051L423.468 344.295C423.468 342.097 423.86 340.214 424.644 338.646C425.442 337.064 426.555 335.853 427.983 335.013C429.425 334.159 431.119 333.732 433.065 333.732C434.535 333.732 435.788 333.963 436.824 334.425C437.86 334.887 438.721 335.503 439.407 336.273C440.093 337.029 440.632 337.883 441.024 338.835C441.416 339.773 441.689 340.732 441.843 341.712C442.011 342.678 442.095 343.595 442.095 344.463V357H438.315ZM422.145 357V334.32H425.505V340.389H425.925V357H422.145ZM457.572 367.71C456.382 367.71 455.22 367.528 454.086 367.164C452.952 366.8 451.909 366.247 450.957 365.505C450.019 364.777 449.235 363.853 448.605 362.733L452.028 360.927C452.588 362.033 453.379 362.838 454.401 363.342C455.437 363.846 456.501 364.098 457.593 364.098C459.035 364.098 460.232 363.832 461.184 363.3C462.136 362.782 462.836 362.005 463.284 360.969C463.746 359.933 463.97 358.645 463.956 357.105V350.91H464.397V334.32H467.715V357.147C467.715 357.763 467.694 358.358 467.652 358.932C467.624 359.506 467.554 360.073 467.442 360.633C467.148 362.243 466.567 363.566 465.699 364.602C464.831 365.652 463.711 366.429 462.339 366.933C460.967 367.451 459.378 367.71 457.572 367.71ZM457.299 357.63C455.185 357.63 453.372 357.105 451.86 356.055C450.348 354.991 449.179 353.556 448.353 351.75C447.541 349.944 447.135 347.907 447.135 345.639C447.135 343.371 447.541 341.334 448.353 339.528C449.179 337.722 450.348 336.301 451.86 335.265C453.372 334.215 455.178 333.69 457.278 333.69C459.42 333.69 461.219 334.208 462.675 335.244C464.131 336.28 465.23 337.701 465.972 339.507C466.728 341.313 467.106 343.357 467.106 345.639C467.106 347.893 466.728 349.93 465.972 351.75C465.23 353.556 464.131 354.991 462.675 356.055C461.219 357.105 459.427 357.63 457.299 357.63ZM457.761 354.207C459.287 354.207 460.54 353.843 461.52 353.115C462.5 352.373 463.221 351.358 463.683 350.07C464.159 348.768 464.397 347.291 464.397 345.639C464.397 343.959 464.159 342.482 463.683 341.208C463.221 339.92 462.507 338.919 461.541 338.205C460.575 337.477 459.35 337.113 457.866 337.113C456.326 337.113 455.052 337.491 454.044 338.247C453.05 339.003 452.308 340.025 451.818 341.313C451.342 342.601 451.104 344.043 451.104 345.639C451.104 347.249 451.349 348.705 451.839 350.007C452.329 351.295 453.064 352.317 454.044 353.073C455.038 353.829 456.277 354.207 457.761 354.207ZM491.311 326.76H495.112L487.048 357H483.247L491.311 326.76ZM519.558 357.63C517.444 357.63 515.631 357.105 514.119 356.055C512.607 354.991 511.438 353.556 510.612 351.75C509.8 349.944 509.394 347.907 509.394 345.639C509.394 343.371 509.8 341.334 510.612 339.528C511.438 337.722 512.607 336.301 514.119 335.265C515.631 334.215 517.437 333.69 519.537 333.69C521.679 333.69 523.478 334.208 524.934 335.244C526.39 336.28 527.489 337.701 528.231 339.507C528.987 341.313 529.365 343.357 529.365 345.639C529.365 347.893 528.987 349.93 528.231 351.75C527.489 353.556 526.39 354.991 524.934 356.055C523.478 357.105 521.686 357.63 519.558 357.63ZM520.02 354.207C521.546 354.207 522.799 353.843 523.779 353.115C524.759 352.373 525.48 351.358 525.942 350.07C526.418 348.768 526.656 347.291 526.656 345.639C526.656 343.959 526.418 342.482 525.942 341.208C525.48 339.92 524.766 338.919 523.8 338.205C522.834 337.477 521.609 337.113 520.125 337.113C518.585 337.113 517.311 337.491 516.303 338.247C515.309 339.003 514.567 340.025 514.077 341.313C513.601 342.601 513.363 344.043 513.363 345.639C513.363 347.249 513.608 348.705 514.098 350.007C514.588 351.295 515.323 352.317 516.303 353.073C517.297 353.829 518.536 354.207 520.02 354.207ZM526.656 357V340.305H526.236V326.76H529.995V357H526.656ZM543.165 357.63C541.471 357.63 540.05 357.322 538.902 356.706C537.768 356.076 536.907 355.25 536.319 354.228C535.745 353.206 535.458 352.086 535.458 350.868C535.458 349.678 535.682 348.649 536.13 347.781C536.592 346.899 537.236 346.171 538.062 345.597C538.888 345.009 539.875 344.547 541.023 344.211C542.101 343.917 543.305 343.665 544.635 343.455C545.979 343.231 547.337 343.028 548.709 342.846C550.081 342.664 551.362 342.489 552.552 342.321L551.208 343.098C551.25 341.082 550.844 339.591 549.99 338.625C549.15 337.659 547.694 337.176 545.622 337.176C544.25 337.176 543.046 337.491 542.01 338.121C540.988 338.737 540.267 339.745 539.847 341.145L536.298 340.074C536.844 338.086 537.901 336.525 539.469 335.391C541.037 334.257 543.102 333.69 545.664 333.69C547.722 333.69 549.486 334.061 550.956 334.803C552.44 335.531 553.504 336.637 554.148 338.121C554.47 338.821 554.673 339.584 554.757 340.41C554.841 341.222 554.883 342.076 554.883 342.972V357H551.565V351.561L552.342 352.065C551.488 353.899 550.291 355.285 548.751 356.223C547.225 357.161 545.363 357.63 543.165 357.63ZM543.732 354.501C545.076 354.501 546.238 354.263 547.218 353.787C548.212 353.297 549.01 352.66 549.612 351.876C550.214 351.078 550.606 350.21 550.788 349.272C550.998 348.572 551.11 347.795 551.124 346.941C551.152 346.073 551.166 345.408 551.166 344.946L552.468 345.513C551.25 345.681 550.053 345.842 548.877 345.996C547.701 346.15 546.588 346.318 545.538 346.5C544.488 346.668 543.543 346.871 542.703 347.109C542.087 347.305 541.506 347.557 540.96 347.865C540.428 348.173 539.994 348.572 539.658 349.062C539.336 349.538 539.175 350.133 539.175 350.847C539.175 351.463 539.329 352.051 539.637 352.611C539.959 353.171 540.449 353.626 541.107 353.976C541.779 354.326 542.654 354.501 543.732 354.501ZM577.332 357V345.639C577.332 344.561 577.234 343.525 577.038 342.531C576.856 341.537 576.527 340.648 576.051 339.864C575.589 339.066 574.959 338.436 574.161 337.974C573.377 337.512 572.383 337.281 571.179 337.281C570.241 337.281 569.387 337.442 568.617 337.764C567.861 338.072 567.21 338.548 566.664 339.192C566.118 339.836 565.691 340.648 565.383 341.628C565.089 342.594 564.942 343.735 564.942 345.051L562.485 344.295C562.485 342.097 562.877 340.214 563.661 338.646C564.459 337.064 565.572 335.853 567 335.013C568.442 334.159 570.136 333.732 572.082 333.732C573.552 333.732 574.805 333.963 575.841 334.425C576.877 334.887 577.738 335.503 578.424 336.273C579.11 337.029 579.649 337.883 580.041 338.835C580.433 339.773 580.706 340.732 580.86 341.712C581.028 342.678 581.112 343.595 581.112 344.463V357H577.332ZM561.162 357V334.32H564.522V340.389H564.942V357H561.162ZM596.762 357.63C594.466 357.63 592.513 357.119 590.903 356.097C589.307 355.061 588.089 353.64 587.249 351.834C586.409 350.028 585.975 347.97 585.947 345.66C585.975 343.294 586.416 341.215 587.27 339.423C588.138 337.617 589.377 336.21 590.987 335.202C592.597 334.194 594.536 333.69 596.804 333.69C599.198 333.69 601.256 334.278 602.978 335.454C604.714 336.63 605.876 338.24 606.464 340.284L602.768 341.397C602.292 340.081 601.515 339.059 600.437 338.331C599.373 337.603 598.148 337.239 596.762 337.239C595.208 337.239 593.927 337.603 592.919 338.331C591.911 339.045 591.162 340.039 590.672 341.313C590.182 342.573 589.93 344.022 589.916 345.66C589.944 348.18 590.525 350.217 591.659 351.771C592.807 353.311 594.508 354.081 596.762 354.081C598.246 354.081 599.478 353.745 600.458 353.073C601.438 352.387 602.18 351.4 602.684 350.112L606.464 351.099C605.68 353.213 604.455 354.83 602.789 355.95C601.123 357.07 599.114 357.63 596.762 357.63ZM611.395 330.309V326.445H615.133V330.309H611.395ZM611.395 357V334.32H615.133V357H611.395ZM638.422 357V345.639C638.422 344.561 638.324 343.525 638.128 342.531C637.946 341.537 637.617 340.648 637.141 339.864C636.679 339.066 636.049 338.436 635.251 337.974C634.467 337.512 633.473 337.281 632.269 337.281C631.331 337.281 630.477 337.442 629.707 337.764C628.951 338.072 628.3 338.548 627.754 339.192C627.208 339.836 626.781 340.648 626.473 341.628C626.179 342.594 626.032 343.735 626.032 345.051L623.575 344.295C623.575 342.097 623.967 340.214 624.751 338.646C625.549 337.064 626.662 335.853 628.09 335.013C629.532 334.159 631.226 333.732 633.172 333.732C634.642 333.732 635.895 333.963 636.931 334.425C637.967 334.887 638.828 335.503 639.514 336.273C640.2 337.029 640.739 337.883 641.131 338.835C641.523 339.773 641.796 340.732 641.95 341.712C642.118 342.678 642.202 343.595 642.202 344.463V357H638.422ZM622.252 357V334.32H625.612V340.389H626.032V357H622.252ZM657.679 367.71C656.489 367.71 655.327 367.528 654.193 367.164C653.059 366.8 652.016 366.247 651.064 365.505C650.126 364.777 649.342 363.853 648.712 362.733L652.135 360.927C652.695 362.033 653.486 362.838 654.508 363.342C655.544 363.846 656.608 364.098 657.7 364.098C659.142 364.098 660.339 363.832 661.291 363.3C662.243 362.782 662.943 362.005 663.391 360.969C663.853 359.933 664.077 358.645 664.063 357.105V350.91H664.504V334.32H667.822V357.147C667.822 357.763 667.801 358.358 667.759 358.932C667.731 359.506 667.661 360.073 667.549 360.633C667.255 362.243 666.674 363.566 665.806 364.602C664.938 365.652 663.818 366.429 662.446 366.933C661.074 367.451 659.485 367.71 657.679 367.71ZM657.406 357.63C655.292 357.63 653.479 357.105 651.967 356.055C650.455 354.991 649.286 353.556 648.46 351.75C647.648 349.944 647.242 347.907 647.242 345.639C647.242 343.371 647.648 341.334 648.46 339.528C649.286 337.722 650.455 336.301 651.967 335.265C653.479 334.215 655.285 333.69 657.385 333.69C659.527 333.69 661.326 334.208 662.782 335.244C664.238 336.28 665.337 337.701 666.079 339.507C666.835 341.313 667.213 343.357 667.213 345.639C667.213 347.893 666.835 349.93 666.079 351.75C665.337 353.556 664.238 354.991 662.782 356.055C661.326 357.105 659.534 357.63 657.406 357.63ZM657.868 354.207C659.394 354.207 660.647 353.843 661.627 353.115C662.607 352.373 663.328 351.358 663.79 350.07C664.266 348.768 664.504 347.291 664.504 345.639C664.504 343.959 664.266 342.482 663.79 341.208C663.328 339.92 662.614 338.919 661.648 338.205C660.682 337.477 659.457 337.113 657.973 337.113C656.433 337.113 655.159 337.491 654.151 338.247C653.157 339.003 652.415 340.025 651.925 341.313C651.449 342.601 651.211 344.043 651.211 345.639C651.211 347.249 651.456 348.705 651.946 350.007C652.436 351.295 653.171 352.317 654.151 353.073C655.145 353.829 656.384 354.207 657.868 354.207Z" fill="#F4FDD3"></path></svg> 