<?xml version="1.0" encoding="UTF-8"?> <svg xmlns="http://www.w3.org/2000/svg" width="325" height="325" viewBox="0 0 325 325" fill="none"><g clip-path="url(#clip0_1513_987)"><rect width="325" height="325" rx="10" fill="white"></rect><rect width="325" height="325" rx="10" fill="#0978B6"></rect><mask id="mask0_1513_987" style="mask-type:alpha" maskUnits="userSpaceOnUse" x="0" y="0" width="325" height="325"><rect width="325" height="325" rx="10" fill="#FF7EB3"></rect></mask><g mask="url(#mask0_1513_987)"><g filter="url(#filter0_d_1513_987)"><path d="M-73.394 -66.3393C-110.861 -29.8439 -128.362 46.756 -139.653 114.986C-143.534 138.435 -172.309 276.425 -131.695 281.847C-110.084 284.732 -89.288 271.514 -72.7227 255.958C-32.8468 218.512 0.0462878 160.797 26.1785 100.263C34.1002 81.9132 98.0743 -76.1468 48.1966 -98.0331C29.2339 -106.354 7.02046 -96.3054 -7.53403 -83.7445C-47.736 -49.0492 -72.5126 21.313 -82.1513 95.3247C-89.7313 153.528 -86.8766 216.63 -76.6211 279.341C-68.8219 327.031 -55.9061 381.361 -25.4079 407.152C3.88609 431.924 32.1476 423.307 56.5127 404.669C109.387 364.223 150.939 290.389 187.844 220.489C230.1 140.453 270.222 56.2963 295.801 -43.6857" stroke="#158CCF" stroke-width="50" stroke-linecap="round" shape-rendering="crispEdges"></path></g></g><path d="M48.9201 175.48L42.3441 168.936L44.7601 166.52L51.3041 173.064L48.9201 175.48ZM40.6321 175.48C38.3281 175.48 36.3548 174.979 34.7121 173.976C33.0695 172.963 31.8055 171.555 30.9201 169.752C30.0455 167.949 29.6081 165.859 29.6081 163.48C29.6081 161.101 30.0455 159.011 30.9201 157.208C31.8055 155.405 33.0695 154.003 34.7121 153C36.3548 151.987 38.3281 151.48 40.6321 151.48C42.9361 151.48 44.9095 151.987 46.5521 153C48.2055 154.003 49.4695 155.405 50.3441 157.208C51.2295 159.011 51.6721 161.101 51.6721 163.48C51.6721 165.859 51.2295 167.949 50.3441 169.752C49.4695 171.555 48.2055 172.963 46.5521 173.976C44.9095 174.979 42.9361 175.48 40.6321 175.48ZM40.6321 171.848C42.1788 171.859 43.4641 171.517 44.4881 170.824C45.5228 170.131 46.2961 169.155 46.8081 167.896C47.3308 166.637 47.5921 165.165 47.5921 163.48C47.5921 161.795 47.3308 160.333 46.8081 159.096C46.2961 157.848 45.5228 156.877 44.4881 156.184C43.4641 155.491 42.1788 155.133 40.6321 155.112C39.0855 155.101 37.8001 155.443 36.7761 156.136C35.7521 156.829 34.9788 157.805 34.4561 159.064C33.9441 160.323 33.6881 161.795 33.6881 163.48C33.6881 165.165 33.9441 166.632 34.4561 167.88C34.9681 169.117 35.7361 170.083 36.7601 170.776C37.7948 171.469 39.0855 171.827 40.6321 171.848ZM65.4169 175.48C63.5822 175.48 61.9662 175.107 60.5689 174.36C59.1822 173.613 58.0942 172.563 57.3049 171.208C56.5262 169.853 56.1369 168.264 56.1369 166.44V151.992L60.0409 151.96V166.344C60.0409 167.208 60.1849 167.981 60.4729 168.664C60.7715 169.347 61.1715 169.928 61.6729 170.408C62.1742 170.877 62.7502 171.235 63.4009 171.48C64.0515 171.725 64.7235 171.848 65.4169 171.848C66.1315 171.848 66.8089 171.725 67.4489 171.48C68.0995 171.224 68.6755 170.861 69.1769 170.392C69.6782 169.912 70.0729 169.331 70.3609 168.648C70.6489 167.965 70.7929 167.197 70.7929 166.344V151.96H74.6969V166.44C74.6969 168.264 74.3022 169.853 73.5129 171.208C72.7342 172.563 71.6462 173.613 70.2489 174.36C68.8622 175.107 67.2515 175.48 65.4169 175.48ZM80.4481 175V151.96H95.3281V155.576H84.3041V161.256H93.4081V164.872H84.3041V171.384H95.3281V175H80.4481ZM108.756 175.48C107.071 175.48 105.551 175.187 104.196 174.6C102.852 174.013 101.743 173.176 100.868 172.088C100.004 170.989 99.4548 169.688 99.2201 168.184L103.22 167.576C103.561 168.941 104.26 169.997 105.316 170.744C106.383 171.491 107.609 171.864 108.996 171.864C109.817 171.864 110.591 171.736 111.316 171.48C112.041 171.224 112.628 170.851 113.076 170.36C113.535 169.869 113.764 169.267 113.764 168.552C113.764 168.232 113.711 167.939 113.604 167.672C113.497 167.395 113.337 167.149 113.124 166.936C112.921 166.723 112.655 166.531 112.324 166.36C112.004 166.179 111.631 166.024 111.204 165.896L105.252 164.136C104.74 163.987 104.185 163.789 103.588 163.544C103.001 163.288 102.441 162.941 101.908 162.504C101.385 162.056 100.953 161.491 100.612 160.808C100.281 160.115 100.116 159.261 100.116 158.248C100.116 156.765 100.489 155.523 101.236 154.52C101.993 153.507 103.007 152.749 104.276 152.248C105.556 151.747 106.975 151.501 108.532 151.512C110.111 151.523 111.519 151.795 112.756 152.328C113.993 152.851 115.028 153.613 115.86 154.616C116.692 155.619 117.279 156.829 117.62 158.248L113.476 158.968C113.305 158.157 112.975 157.469 112.484 156.904C112.004 156.328 111.412 155.891 110.708 155.592C110.015 155.293 109.273 155.133 108.484 155.112C107.716 155.101 107.001 155.219 106.34 155.464C105.689 155.699 105.161 156.04 104.756 156.488C104.361 156.936 104.164 157.459 104.164 158.056C104.164 158.621 104.335 159.085 104.676 159.448C105.017 159.8 105.439 160.083 105.94 160.296C106.452 160.499 106.969 160.669 107.492 160.808L111.62 161.96C112.185 162.109 112.82 162.312 113.524 162.568C114.228 162.824 114.905 163.181 115.556 163.64C116.207 164.099 116.74 164.701 117.156 165.448C117.583 166.195 117.796 167.144 117.796 168.296C117.796 169.491 117.545 170.541 117.044 171.448C116.553 172.344 115.887 173.091 115.044 173.688C114.201 174.285 113.236 174.733 112.148 175.032C111.071 175.331 109.94 175.48 108.756 175.48ZM128.075 175V155.576H120.619V151.96H139.387V155.576H131.931V175H128.075ZM143.546 175V151.96H147.402V175H143.546ZM163.218 175.48C160.914 175.48 158.941 174.979 157.298 173.976C155.656 172.963 154.392 171.555 153.506 169.752C152.632 167.949 152.194 165.859 152.194 163.48C152.194 161.101 152.632 159.011 153.506 157.208C154.392 155.405 155.656 154.003 157.298 153C158.941 151.987 160.914 151.48 163.218 151.48C165.522 151.48 167.496 151.987 169.138 153C170.792 154.003 172.056 155.405 172.93 157.208C173.816 159.011 174.258 161.101 174.258 163.48C174.258 165.859 173.816 167.949 172.93 169.752C172.056 171.555 170.792 172.963 169.138 173.976C167.496 174.979 165.522 175.48 163.218 175.48ZM163.218 171.848C164.765 171.859 166.05 171.517 167.074 170.824C168.109 170.131 168.882 169.155 169.394 167.896C169.917 166.637 170.178 165.165 170.178 163.48C170.178 161.795 169.917 160.333 169.394 159.096C168.882 157.848 168.109 156.877 167.074 156.184C166.05 155.491 164.765 155.133 163.218 155.112C161.672 155.101 160.386 155.443 159.362 156.136C158.338 156.829 157.565 157.805 157.042 159.064C156.53 160.323 156.274 161.795 156.274 163.48C156.274 165.165 156.53 166.632 157.042 167.88C157.554 169.117 158.322 170.083 159.346 170.776C160.381 171.469 161.672 171.827 163.218 171.848ZM178.723 175V151.96H182.627L193.315 168.2V151.96H197.219V175H193.315L182.627 158.76V175H178.723ZM216.194 175V155.576H208.738V151.96H227.506V155.576H220.05V175H216.194ZM229.119 175L236.383 151.96H242.031L249.295 175H245.327L238.735 154.328H239.599L233.087 175H229.119ZM233.167 170.008V166.408H245.263V170.008H233.167ZM262.347 175.48C260.854 175.48 259.451 175.219 258.139 174.696C256.838 174.163 255.691 173.384 254.699 172.36C253.718 171.336 252.95 170.083 252.395 168.6C251.84 167.107 251.563 165.4 251.563 163.48C251.563 160.963 252.032 158.813 252.971 157.032C253.91 155.24 255.195 153.869 256.827 152.92C258.459 151.96 260.299 151.48 262.347 151.48C265.184 151.48 267.43 152.141 269.083 153.464C270.747 154.776 271.872 156.621 272.459 159L268.523 159.624C268.086 158.259 267.371 157.171 266.379 156.36C265.387 155.539 264.123 155.128 262.587 155.128C261.04 155.107 259.755 155.443 258.731 156.136C257.707 156.829 256.934 157.805 256.411 159.064C255.899 160.323 255.643 161.795 255.643 163.48C255.643 165.165 255.899 166.632 256.411 167.88C256.923 169.117 257.691 170.083 258.715 170.776C259.75 171.469 261.04 171.827 262.587 171.848C263.75 171.859 264.768 171.651 265.643 171.224C266.518 170.787 267.232 170.131 267.787 169.256C268.342 168.371 268.715 167.267 268.907 165.944H264.843V162.92H273.003C273.024 163.091 273.04 163.341 273.051 163.672C273.062 164.003 273.067 164.2 273.067 164.264C273.067 166.44 272.635 168.376 271.771 170.072C270.918 171.757 269.691 173.08 268.091 174.04C266.491 175 264.576 175.48 262.347 175.48ZM286.089 175.48C284.403 175.48 282.883 175.187 281.529 174.6C280.185 174.013 279.075 173.176 278.201 172.088C277.337 170.989 276.787 169.688 276.553 168.184L280.553 167.576C280.894 168.941 281.593 169.997 282.649 170.744C283.715 171.491 284.942 171.864 286.329 171.864C287.15 171.864 287.923 171.736 288.649 171.48C289.374 171.224 289.961 170.851 290.409 170.36C290.867 169.869 291.097 169.267 291.097 168.552C291.097 168.232 291.043 167.939 290.937 167.672C290.83 167.395 290.67 167.149 290.457 166.936C290.254 166.723 289.987 166.531 289.657 166.36C289.337 166.179 288.963 166.024 288.537 165.896L282.585 164.136C282.073 163.987 281.518 163.789 280.921 163.544C280.334 163.288 279.774 162.941 279.241 162.504C278.718 162.056 278.286 161.491 277.945 160.808C277.614 160.115 277.449 159.261 277.449 158.248C277.449 156.765 277.822 155.523 278.569 154.52C279.326 153.507 280.339 152.749 281.609 152.248C282.889 151.747 284.307 151.501 285.865 151.512C287.443 151.523 288.851 151.795 290.089 152.328C291.326 152.851 292.361 153.613 293.193 154.616C294.025 155.619 294.611 156.829 294.953 158.248L290.809 158.968C290.638 158.157 290.307 157.469 289.817 156.904C289.337 156.328 288.745 155.891 288.041 155.592C287.347 155.293 286.606 155.133 285.817 155.112C285.049 155.101 284.334 155.219 283.673 155.464C283.022 155.699 282.494 156.04 282.089 156.488C281.694 156.936 281.497 157.459 281.497 158.056C281.497 158.621 281.667 159.085 282.009 159.448C282.35 159.8 282.771 160.083 283.273 160.296C283.785 160.499 284.302 160.669 284.825 160.808L288.953 161.96C289.518 162.109 290.153 162.312 290.857 162.568C291.561 162.824 292.238 163.181 292.889 163.64C293.539 164.099 294.073 164.701 294.489 165.448C294.915 166.195 295.129 167.144 295.129 168.296C295.129 169.491 294.878 170.541 294.377 171.448C293.886 172.344 293.219 173.091 292.377 173.688C291.534 174.285 290.569 174.733 289.481 175.032C288.403 175.331 287.273 175.48 286.089 175.48Z" fill="white"></path></g><defs><filter id="filter0_d_1513_987" x="-196.16" y="-136.078" width="534.967" height="609.529" filterUnits="userSpaceOnUse" color-interpolation-filters="sRGB"><feFlood flood-opacity="0" result="BackgroundImageFix"></feFlood><feColorMatrix in="SourceAlpha" type="matrix" values="0 0 0 0 0 0 0 0 0 0 0 0 0 0 0 0 0 0 127 0" result="hardAlpha"></feColorMatrix><feOffset dy="8"></feOffset><feGaussianBlur stdDeviation="9"></feGaussianBlur><feComposite in2="hardAlpha" operator="out"></feComposite><feColorMatrix type="matrix" values="0 0 0 0 0 0 0 0 0 0 0 0 0 0 0 0 0 0 0.15 0"></feColorMatrix><feBlend mode="normal" in2="BackgroundImageFix" result="effect1_dropShadow_1513_987"></feBlend><feBlend mode="normal" in="SourceGraphic" in2="effect1_dropShadow_1513_987" result="shape"></feBlend></filter><clipPath id="clip0_1513_987"><rect width="325" height="325" rx="10" fill="white"></rect></clipPath></defs></svg> 