<?xml version="1.0" encoding="UTF-8"?> <svg xmlns="http://www.w3.org/2000/svg" width="325" height="325" viewBox="0 0 325 325" fill="none"><rect width="325" height="325" rx="10" fill="#FF905A"></rect><mask id="mask0_1213_2761" style="mask-type:alpha" maskUnits="userSpaceOnUse" x="0" y="0" width="325" height="325"><rect width="325" height="325" rx="10" fill="#7F3CC9"></rect></mask><g mask="url(#mask0_1213_2761)"><g filter="url(#filter0_d_1213_2761)"><path d="M135.096 -7.30039C53.3489 11.8544 -6.11674 59.8761 -51.2034 103.2C-66.699 118.09 -168.776 204.95 -96.2401 213.7C-57.642 218.357 -14.7846 212.343 21.1505 204.255C107.653 184.784 188.595 151.122 258.146 114.745C279.23 103.718 453.025 8.18996 369.384 -12.548C337.586 -20.4323 293.262 -16.6796 262.084 -10.299C175.966 7.32502 105.389 50.3236 61.265 97.6524C26.5659 134.872 9.25074 176.64 5.64604 219.098C2.9047 251.387 7.17342 288.686 53.882 309.507C98.7463 329.507 153.649 327.467 204.988 318.353C316.398 298.576 418.978 255.444 511.631 214.3C617.719 167.189 721.365 117.102 804 54.7717" stroke="#FFA87D" stroke-width="50" stroke-linecap="round" shape-rendering="crispEdges"></path></g></g><path d="M98.4775 137.48C96.6428 137.48 95.0268 137.107 93.6295 136.36C92.2428 135.613 91.1548 134.563 90.3655 133.208C89.5868 131.853 89.1975 130.264 89.1975 128.44V113.992L93.1015 113.96V128.344C93.1015 129.208 93.2455 129.981 93.5335 130.664C93.8322 131.347 94.2322 131.928 94.7335 132.408C95.2348 132.877 95.8108 133.235 96.4615 133.48C97.1122 133.725 97.7842 133.848 98.4775 133.848C99.1922 133.848 99.8695 133.725 100.509 133.48C101.16 133.224 101.736 132.861 102.237 132.392C102.739 131.912 103.133 131.331 103.421 130.648C103.709 129.965 103.853 129.197 103.853 128.344V113.96H107.757V128.44C107.757 130.264 107.363 131.853 106.573 133.208C105.795 134.563 104.707 135.613 103.309 136.36C101.923 137.107 100.312 137.48 98.4775 137.48ZM121.068 137.48C119.383 137.48 117.863 137.187 116.508 136.6C115.164 136.013 114.055 135.176 113.18 134.088C112.316 132.989 111.767 131.688 111.532 130.184L115.532 129.576C115.873 130.941 116.572 131.997 117.628 132.744C118.695 133.491 119.921 133.864 121.308 133.864C122.129 133.864 122.903 133.736 123.628 133.48C124.353 133.224 124.94 132.851 125.388 132.36C125.847 131.869 126.076 131.267 126.076 130.552C126.076 130.232 126.023 129.939 125.916 129.672C125.809 129.395 125.649 129.149 125.436 128.936C125.233 128.723 124.967 128.531 124.636 128.36C124.316 128.179 123.943 128.024 123.516 127.896L117.564 126.136C117.052 125.987 116.497 125.789 115.9 125.544C115.313 125.288 114.753 124.941 114.22 124.504C113.697 124.056 113.265 123.491 112.924 122.808C112.593 122.115 112.428 121.261 112.428 120.248C112.428 118.765 112.801 117.523 113.548 116.52C114.305 115.507 115.319 114.749 116.588 114.248C117.868 113.747 119.287 113.501 120.844 113.512C122.423 113.523 123.831 113.795 125.068 114.328C126.305 114.851 127.34 115.613 128.172 116.616C129.004 117.619 129.591 118.829 129.932 120.248L125.788 120.968C125.617 120.157 125.287 119.469 124.796 118.904C124.316 118.328 123.724 117.891 123.02 117.592C122.327 117.293 121.585 117.133 120.796 117.112C120.028 117.101 119.313 117.219 118.652 117.464C118.001 117.699 117.473 118.04 117.068 118.488C116.673 118.936 116.476 119.459 116.476 120.056C116.476 120.621 116.647 121.085 116.988 121.448C117.329 121.8 117.751 122.083 118.252 122.296C118.764 122.499 119.281 122.669 119.804 122.808L123.932 123.96C124.497 124.109 125.132 124.312 125.836 124.568C126.54 124.824 127.217 125.181 127.868 125.64C128.519 126.099 129.052 126.701 129.468 127.448C129.895 128.195 130.108 129.144 130.108 130.296C130.108 131.491 129.857 132.541 129.356 133.448C128.865 134.344 128.199 135.091 127.356 135.688C126.513 136.285 125.548 136.733 124.46 137.032C123.383 137.331 122.252 137.48 121.068 137.48ZM134.851 137V113.96H149.731V117.576H138.707V123.256H147.811V126.872H138.707V133.384H149.731V137H134.851ZM154.85 137V113.96H162.194C162.386 113.96 162.765 113.965 163.33 113.976C163.906 113.987 164.461 114.024 164.994 114.088C166.818 114.323 168.359 114.973 169.618 116.04C170.887 117.096 171.847 118.445 172.498 120.088C173.149 121.731 173.474 123.528 173.474 125.48C173.474 127.432 173.149 129.229 172.498 130.872C171.847 132.515 170.887 133.869 169.618 134.936C168.359 135.992 166.818 136.637 164.994 136.872C164.471 136.936 163.922 136.973 163.346 136.984C162.77 136.995 162.386 137 162.194 137H154.85ZM158.77 133.368H162.194C162.514 133.368 162.919 133.357 163.41 133.336C163.911 133.315 164.354 133.267 164.738 133.192C165.826 132.989 166.711 132.504 167.394 131.736C168.077 130.968 168.578 130.035 168.898 128.936C169.229 127.837 169.394 126.685 169.394 125.48C169.394 124.232 169.229 123.059 168.898 121.96C168.567 120.861 168.055 119.939 167.362 119.192C166.679 118.445 165.805 117.971 164.738 117.768C164.354 117.683 163.911 117.635 163.41 117.624C162.919 117.603 162.514 117.592 162.194 117.592H158.77V133.368ZM191.758 137V117.576H184.302V113.96H203.07V117.576H195.614V137H191.758ZM216.653 137.48C214.349 137.48 212.375 136.979 210.733 135.976C209.09 134.963 207.826 133.555 206.941 131.752C206.066 129.949 205.629 127.859 205.629 125.48C205.629 123.101 206.066 121.011 206.941 119.208C207.826 117.405 209.09 116.003 210.733 115C212.375 113.987 214.349 113.48 216.653 113.48C218.957 113.48 220.93 113.987 222.573 115C224.226 116.003 225.49 117.405 226.365 119.208C227.25 121.011 227.693 123.101 227.693 125.48C227.693 127.859 227.25 129.949 226.365 131.752C225.49 133.555 224.226 134.963 222.573 135.976C220.93 136.979 218.957 137.48 216.653 137.48ZM216.653 133.848C218.199 133.859 219.485 133.517 220.509 132.824C221.543 132.131 222.317 131.155 222.829 129.896C223.351 128.637 223.613 127.165 223.613 125.48C223.613 123.795 223.351 122.333 222.829 121.096C222.317 119.848 221.543 118.877 220.509 118.184C219.485 117.491 218.199 117.133 216.653 117.112C215.106 117.101 213.821 117.443 212.797 118.136C211.773 118.829 210.999 119.805 210.477 121.064C209.965 122.323 209.709 123.795 209.709 125.48C209.709 127.165 209.965 128.632 210.477 129.88C210.989 131.117 211.757 132.083 212.781 132.776C213.815 133.469 215.106 133.827 216.653 133.848ZM230.244 141.08L230.468 139.416C230.958 139.459 231.348 139.373 231.636 139.16C231.924 138.957 232.116 138.664 232.212 138.28C232.318 137.907 232.345 137.48 232.292 137H230.244V132.888H234.196V137.16C234.196 138.557 233.865 139.613 233.204 140.328C232.542 141.043 231.556 141.293 230.244 141.08ZM62.6415 175.48C61.1482 175.48 59.7455 175.219 58.4335 174.696C57.1322 174.163 55.9855 173.384 54.9935 172.36C54.0122 171.336 53.2442 170.083 52.6895 168.6C52.1348 167.107 51.8575 165.4 51.8575 163.48C51.8575 160.963 52.3268 158.813 53.2655 157.032C54.2042 155.24 55.4895 153.869 57.1215 152.92C58.7535 151.96 60.5935 151.48 62.6415 151.48C65.4788 151.48 67.7242 152.141 69.3775 153.464C71.0415 154.776 72.1668 156.621 72.7535 159L68.8175 159.624C68.3802 158.259 67.6655 157.171 66.6735 156.36C65.6815 155.539 64.4175 155.128 62.8815 155.128C61.3348 155.107 60.0495 155.443 59.0255 156.136C58.0015 156.829 57.2282 157.805 56.7055 159.064C56.1935 160.323 55.9375 161.795 55.9375 163.48C55.9375 165.165 56.1935 166.632 56.7055 167.88C57.2175 169.117 57.9855 170.083 59.0095 170.776C60.0442 171.469 61.3348 171.827 62.8815 171.848C64.0442 171.859 65.0628 171.651 65.9375 171.224C66.8122 170.787 67.5268 170.131 68.0815 169.256C68.6362 168.371 69.0095 167.267 69.2015 165.944H65.1375V162.92H73.2975C73.3188 163.091 73.3348 163.341 73.3455 163.672C73.3562 164.003 73.3615 164.2 73.3615 164.264C73.3615 166.44 72.9295 168.376 72.0655 170.072C71.2122 171.757 69.9855 173.08 68.3855 174.04C66.7855 175 64.8708 175.48 62.6415 175.48ZM77.855 175V151.96H92.735V155.576H81.711V161.256H90.815V164.872H81.711V171.384H92.735V175H77.855ZM103.39 175V155.576H95.9338V151.96H114.702V155.576H107.246V175H103.39ZM134.538 175.48C132.703 175.48 131.087 175.107 129.69 174.36C128.303 173.613 127.215 172.563 126.426 171.208C125.647 169.853 125.258 168.264 125.258 166.44V151.992L129.162 151.96V166.344C129.162 167.208 129.306 167.981 129.594 168.664C129.892 169.347 130.292 169.928 130.794 170.408C131.295 170.877 131.871 171.235 132.522 171.48C133.172 171.725 133.844 171.848 134.538 171.848C135.252 171.848 135.93 171.725 136.57 171.48C137.22 171.224 137.796 170.861 138.298 170.392C138.799 169.912 139.194 169.331 139.482 168.648C139.77 167.965 139.914 167.197 139.914 166.344V151.96H143.818V166.44C143.818 168.264 143.423 169.853 142.634 171.208C141.855 172.563 140.767 173.613 139.37 174.36C137.983 175.107 136.372 175.48 134.538 175.48ZM157.128 175.48C155.443 175.48 153.923 175.187 152.568 174.6C151.224 174.013 150.115 173.176 149.24 172.088C148.376 170.989 147.827 169.688 147.592 168.184L151.592 167.576C151.933 168.941 152.632 169.997 153.688 170.744C154.755 171.491 155.981 171.864 157.368 171.864C158.189 171.864 158.963 171.736 159.688 171.48C160.413 171.224 161 170.851 161.448 170.36C161.907 169.869 162.136 169.267 162.136 168.552C162.136 168.232 162.083 167.939 161.976 167.672C161.869 167.395 161.709 167.149 161.496 166.936C161.293 166.723 161.027 166.531 160.696 166.36C160.376 166.179 160.003 166.024 159.576 165.896L153.624 164.136C153.112 163.987 152.557 163.789 151.96 163.544C151.373 163.288 150.813 162.941 150.28 162.504C149.757 162.056 149.325 161.491 148.984 160.808C148.653 160.115 148.488 159.261 148.488 158.248C148.488 156.765 148.861 155.523 149.608 154.52C150.365 153.507 151.379 152.749 152.648 152.248C153.928 151.747 155.347 151.501 156.904 151.512C158.483 151.523 159.891 151.795 161.128 152.328C162.365 152.851 163.4 153.613 164.232 154.616C165.064 155.619 165.651 156.829 165.992 158.248L161.848 158.968C161.677 158.157 161.347 157.469 160.856 156.904C160.376 156.328 159.784 155.891 159.08 155.592C158.387 155.293 157.645 155.133 156.856 155.112C156.088 155.101 155.373 155.219 154.712 155.464C154.061 155.699 153.533 156.04 153.128 156.488C152.733 156.936 152.536 157.459 152.536 158.056C152.536 158.621 152.707 159.085 153.048 159.448C153.389 159.8 153.811 160.083 154.312 160.296C154.824 160.499 155.341 160.669 155.864 160.808L159.992 161.96C160.557 162.109 161.192 162.312 161.896 162.568C162.6 162.824 163.277 163.181 163.928 163.64C164.579 164.099 165.112 164.701 165.528 165.448C165.955 166.195 166.168 167.144 166.168 168.296C166.168 169.491 165.917 170.541 165.416 171.448C164.925 172.344 164.259 173.091 163.416 173.688C162.573 174.285 161.608 174.733 160.52 175.032C159.443 175.331 158.312 175.48 157.128 175.48ZM170.911 175V151.96H185.791V155.576H174.767V161.256H183.871V164.872H174.767V171.384H185.791V175H170.911ZM190.91 175V151.96H198.254C198.446 151.96 198.825 151.965 199.39 151.976C199.966 151.987 200.521 152.024 201.054 152.088C202.878 152.323 204.419 152.973 205.678 154.04C206.947 155.096 207.907 156.445 208.558 158.088C209.209 159.731 209.534 161.528 209.534 163.48C209.534 165.432 209.209 167.229 208.558 168.872C207.907 170.515 206.947 171.869 205.678 172.936C204.419 173.992 202.878 174.637 201.054 174.872C200.531 174.936 199.982 174.973 199.406 174.984C198.83 174.995 198.446 175 198.254 175H190.91ZM194.83 171.368H198.254C198.574 171.368 198.979 171.357 199.47 171.336C199.971 171.315 200.414 171.267 200.798 171.192C201.886 170.989 202.771 170.504 203.454 169.736C204.137 168.968 204.638 168.035 204.958 166.936C205.289 165.837 205.454 164.685 205.454 163.48C205.454 162.232 205.289 161.059 204.958 159.96C204.627 158.861 204.115 157.939 203.422 157.192C202.739 156.445 201.865 155.971 200.798 155.768C200.414 155.683 199.971 155.635 199.47 155.624C198.979 155.603 198.574 155.592 198.254 155.592H194.83V171.368ZM227.819 175V155.576H220.363V151.96H239.131V155.576H231.675V175H227.819ZM252.713 175.48C250.409 175.48 248.435 174.979 246.793 173.976C245.15 172.963 243.886 171.555 243.001 169.752C242.126 167.949 241.689 165.859 241.689 163.48C241.689 161.101 242.126 159.011 243.001 157.208C243.886 155.405 245.15 154.003 246.793 153C248.435 151.987 250.409 151.48 252.713 151.48C255.017 151.48 256.99 151.987 258.633 153C260.286 154.003 261.55 155.405 262.425 157.208C263.31 159.011 263.753 161.101 263.753 163.48C263.753 165.859 263.31 167.949 262.425 169.752C261.55 171.555 260.286 172.963 258.633 173.976C256.99 174.979 255.017 175.48 252.713 175.48ZM252.713 171.848C254.259 171.859 255.545 171.517 256.569 170.824C257.603 170.131 258.377 169.155 258.889 167.896C259.411 166.637 259.673 165.165 259.673 163.48C259.673 161.795 259.411 160.333 258.889 159.096C258.377 157.848 257.603 156.877 256.569 156.184C255.545 155.491 254.259 155.133 252.713 155.112C251.166 155.101 249.881 155.443 248.857 156.136C247.833 156.829 247.059 157.805 246.537 159.064C246.025 160.323 245.769 161.795 245.769 163.48C245.769 165.165 246.025 166.632 246.537 167.88C247.049 169.117 247.817 170.083 248.841 170.776C249.875 171.469 251.166 171.827 252.713 171.848ZM266.304 179.08L266.528 177.416C267.018 177.459 267.408 177.373 267.696 177.16C267.984 176.957 268.176 176.664 268.272 176.28C268.378 175.907 268.405 175.48 268.352 175H266.304V170.888H270.256V175.16C270.256 176.557 269.925 177.613 269.264 178.328C268.602 179.043 267.616 179.293 266.304 179.08ZM69.3237 213V189.96H78.4597C80.0171 189.96 81.2917 190.275 82.2837 190.904C83.2864 191.523 84.0277 192.317 84.5077 193.288C84.9984 194.259 85.2437 195.261 85.2437 196.296C85.2437 197.565 84.9397 198.643 84.3317 199.528C83.7344 200.413 82.9184 201.011 81.8837 201.32V200.52C83.3344 200.851 84.4331 201.539 85.1797 202.584C85.9371 203.629 86.3157 204.819 86.3157 206.152C86.3157 207.517 86.0544 208.712 85.5317 209.736C85.0091 210.76 84.2304 211.56 83.1957 212.136C82.1717 212.712 80.9024 213 79.3877 213H69.3237ZM73.2277 209.368H78.9077C79.5797 209.368 80.1824 209.235 80.7157 208.968C81.2491 208.691 81.6651 208.307 81.9637 207.816C82.2731 207.315 82.4277 206.723 82.4277 206.04C82.4277 205.421 82.2944 204.867 82.0277 204.376C81.7611 203.885 81.3717 203.496 80.8597 203.208C80.3477 202.909 79.7344 202.76 79.0197 202.76H73.2277V209.368ZM73.2277 199.16H78.4117C78.9664 199.16 79.4624 199.053 79.8997 198.84C80.3371 198.627 80.6837 198.312 80.9397 197.896C81.1957 197.48 81.3237 196.968 81.3237 196.36C81.3237 195.56 81.0677 194.893 80.5557 194.36C80.0437 193.827 79.3291 193.56 78.4117 193.56H73.2277V199.16ZM90.7912 213V189.96H105.671V193.576H94.6472V199.256H103.751V202.872H94.6472V209.384H105.671V213H90.7912ZM127.756 213.48C125.922 213.48 124.306 213.107 122.908 212.36C121.522 211.613 120.434 210.563 119.644 209.208C118.866 207.853 118.476 206.264 118.476 204.44V189.992L122.38 189.96V204.344C122.38 205.208 122.524 205.981 122.812 206.664C123.111 207.347 123.511 207.928 124.012 208.408C124.514 208.877 125.09 209.235 125.74 209.48C126.391 209.725 127.063 209.848 127.756 209.848C128.471 209.848 129.148 209.725 129.788 209.48C130.439 209.224 131.015 208.861 131.516 208.392C132.018 207.912 132.412 207.331 132.7 206.648C132.988 205.965 133.132 205.197 133.132 204.344V189.96H137.036V204.44C137.036 206.264 136.642 207.853 135.852 209.208C135.074 210.563 133.986 211.613 132.588 212.36C131.202 213.107 129.591 213.48 127.756 213.48ZM150.347 213.48C148.661 213.48 147.141 213.187 145.787 212.6C144.443 212.013 143.333 211.176 142.459 210.088C141.595 208.989 141.045 207.688 140.811 206.184L144.811 205.576C145.152 206.941 145.851 207.997 146.907 208.744C147.973 209.491 149.2 209.864 150.587 209.864C151.408 209.864 152.181 209.736 152.907 209.48C153.632 209.224 154.219 208.851 154.667 208.36C155.125 207.869 155.355 207.267 155.355 206.552C155.355 206.232 155.301 205.939 155.195 205.672C155.088 205.395 154.928 205.149 154.715 204.936C154.512 204.723 154.245 204.531 153.915 204.36C153.595 204.179 153.221 204.024 152.795 203.896L146.843 202.136C146.331 201.987 145.776 201.789 145.179 201.544C144.592 201.288 144.032 200.941 143.499 200.504C142.976 200.056 142.544 199.491 142.203 198.808C141.872 198.115 141.707 197.261 141.707 196.248C141.707 194.765 142.08 193.523 142.827 192.52C143.584 191.507 144.597 190.749 145.867 190.248C147.147 189.747 148.565 189.501 150.123 189.512C151.701 189.523 153.109 189.795 154.347 190.328C155.584 190.851 156.619 191.613 157.451 192.616C158.283 193.619 158.869 194.829 159.211 196.248L155.067 196.968C154.896 196.157 154.565 195.469 154.075 194.904C153.595 194.328 153.003 193.891 152.299 193.592C151.605 193.293 150.864 193.133 150.075 193.112C149.307 193.101 148.592 193.219 147.931 193.464C147.28 193.699 146.752 194.04 146.347 194.488C145.952 194.936 145.755 195.459 145.755 196.056C145.755 196.621 145.925 197.085 146.267 197.448C146.608 197.8 147.029 198.083 147.531 198.296C148.043 198.499 148.56 198.669 149.083 198.808L153.211 199.96C153.776 200.109 154.411 200.312 155.115 200.568C155.819 200.824 156.496 201.181 157.147 201.64C157.797 202.099 158.331 202.701 158.747 203.448C159.173 204.195 159.387 205.144 159.387 206.296C159.387 207.491 159.136 208.541 158.635 209.448C158.144 210.344 157.477 211.091 156.635 211.688C155.792 212.285 154.827 212.733 153.739 213.032C152.661 213.331 151.531 213.48 150.347 213.48ZM164.13 213V189.96H179.01V193.576H167.986V199.256H177.09V202.872H167.986V209.384H179.01V213H164.13ZM184.129 213V189.96H191.473C191.665 189.96 192.043 189.965 192.609 189.976C193.185 189.987 193.739 190.024 194.273 190.088C196.097 190.323 197.638 190.973 198.897 192.04C200.166 193.096 201.126 194.445 201.777 196.088C202.427 197.731 202.753 199.528 202.753 201.48C202.753 203.432 202.427 205.229 201.777 206.872C201.126 208.515 200.166 209.869 198.897 210.936C197.638 211.992 196.097 212.637 194.273 212.872C193.75 212.936 193.201 212.973 192.625 212.984C192.049 212.995 191.665 213 191.473 213H184.129ZM188.049 209.368H191.473C191.793 209.368 192.198 209.357 192.689 209.336C193.19 209.315 193.633 209.267 194.017 209.192C195.105 208.989 195.99 208.504 196.673 207.736C197.355 206.968 197.857 206.035 198.177 204.936C198.507 203.837 198.673 202.685 198.673 201.48C198.673 200.232 198.507 199.059 198.177 197.96C197.846 196.861 197.334 195.939 196.641 195.192C195.958 194.445 195.083 193.971 194.017 193.768C193.633 193.683 193.19 193.635 192.689 193.624C192.198 193.603 191.793 193.592 191.473 193.592H188.049V209.368ZM221.037 213V193.576H213.581V189.96H232.349V193.576H224.893V213H221.037ZM245.932 213.48C243.628 213.48 241.654 212.979 240.012 211.976C238.369 210.963 237.105 209.555 236.22 207.752C235.345 205.949 234.908 203.859 234.908 201.48C234.908 199.101 235.345 197.011 236.22 195.208C237.105 193.405 238.369 192.003 240.012 191C241.654 189.987 243.628 189.48 245.932 189.48C248.236 189.48 250.209 189.987 251.852 191C253.505 192.003 254.769 193.405 255.644 195.208C256.529 197.011 256.972 199.101 256.972 201.48C256.972 203.859 256.529 205.949 255.644 207.752C254.769 209.555 253.505 210.963 251.852 211.976C250.209 212.979 248.236 213.48 245.932 213.48ZM245.932 209.848C247.478 209.859 248.764 209.517 249.788 208.824C250.822 208.131 251.596 207.155 252.108 205.896C252.63 204.637 252.892 203.165 252.892 201.48C252.892 199.795 252.63 198.333 252.108 197.096C251.596 195.848 250.822 194.877 249.788 194.184C248.764 193.491 247.478 193.133 245.932 193.112C244.385 193.101 243.1 193.443 242.076 194.136C241.052 194.829 240.278 195.805 239.756 197.064C239.244 198.323 238.988 199.795 238.988 201.48C238.988 203.165 239.244 204.632 239.756 205.88C240.268 207.117 241.036 208.083 242.06 208.776C243.094 209.469 244.385 209.827 245.932 209.848Z" fill="white"></path><defs><filter id="filter0_d_1213_2761" x="-165" y="-51.998" width="1012" height="427.999" filterUnits="userSpaceOnUse" color-interpolation-filters="sRGB"><feFlood flood-opacity="0" result="BackgroundImageFix"></feFlood><feColorMatrix in="SourceAlpha" type="matrix" values="0 0 0 0 0 0 0 0 0 0 0 0 0 0 0 0 0 0 127 0" result="hardAlpha"></feColorMatrix><feOffset dy="8"></feOffset><feGaussianBlur stdDeviation="9"></feGaussianBlur><feComposite in2="hardAlpha" operator="out"></feComposite><feColorMatrix type="matrix" values="0 0 0 0 0 0 0 0 0 0 0 0 0 0 0 0 0 0 0.15 0"></feColorMatrix><feBlend mode="normal" in2="BackgroundImageFix" result="effect1_dropShadow_1213_2761"></feBlend><feBlend mode="normal" in="SourceGraphic" in2="effect1_dropShadow_1213_2761" result="shape"></feBlend></filter></defs></svg> 