<?xml version="1.0" encoding="UTF-8"?> <svg xmlns="http://www.w3.org/2000/svg" width="325" height="325" viewBox="0 0 325 325" fill="none"><rect x="0.5" y="0.5" width="324" height="324" rx="9.5" fill="#E74995" stroke="#E9519B"></rect><mask id="mask0_1513_966" style="mask-type:alpha" maskUnits="userSpaceOnUse" x="0" y="0" width="325" height="325"><rect x="0.5" y="0.5" width="324" height="324" rx="9.5" fill="#704657" stroke="#C24B79"></rect></mask><g mask="url(#mask0_1513_966)"><g filter="url(#filter0_d_1513_966)"><path d="M-87.5397 85.9443C-113.081 125.423 -114.465 176.751 -112.027 220.255C-111.189 235.206 -111.332 326.252 -75.6805 308.3C-56.7094 298.748 -41.2866 280.723 -29.8914 263.588C-2.46101 222.343 15.4153 173.505 27.0174 126.597C30.5344 112.378 57.19 -7.90581 10.7092 5.73159C-6.96205 10.9163 -24.1571 27.9221 -34.365 42.3653C-62.561 82.2599 -71.2646 133.896 -66.3914 179.741C-62.559 215.793 -48.9461 249.169 -29.0807 278.512C-13.9732 300.827 6.6805 324.17 37.2989 322.683C66.7084 321.256 89.3231 301.921 106.835 279.062C144.837 229.456 167.255 167.25 186.401 109.614C208.322 43.6206 227.691 -23.5478 231.835 -91.9558" stroke="#E9519B" stroke-width="50" stroke-linecap="round" shape-rendering="crispEdges"></path></g><g filter="url(#filter1_d_1513_966)"><path d="M451.897 129C392.69 149.142 336.549 197.311 284.324 240.629C254.455 265.405 223.575 290.661 197.386 323.537C180.417 344.839 159.476 374.667 163.504 410.849C172.826 494.609 239.661 490.077 280.384 460.824C319.975 432.385 352.851 383.302 384.789 340.004C402.855 315.513 420.362 290.466 437.189 264.18C440.385 259.188 460.86 224.59 441.917 241.587C421.021 260.335 408.322 308.918 410.661 343.45C413.482 385.104 449.385 414.927 471.859 432.294C500.496 454.423 531.001 464.168 563 466.76" stroke="#E9519B" stroke-width="50" stroke-linecap="round" shape-rendering="crispEdges"></path></g></g><path d="M112.016 156V132.96H115.872V156H112.016ZM134.495 156L127.759 132.96H131.807L136.399 149.6L140.975 132.992L145.023 132.96L149.615 149.6L154.191 132.96H158.239L151.519 156H147.711L142.991 139.616L138.303 156H134.495ZM162.45 156V132.96H166.306V156H162.45ZM180.907 156.48C179.221 156.48 177.701 156.187 176.347 155.6C175.003 155.013 173.893 154.176 173.019 153.088C172.155 151.989 171.605 150.688 171.371 149.184L175.371 148.576C175.712 149.941 176.411 150.997 177.467 151.744C178.533 152.491 179.76 152.864 181.147 152.864C181.968 152.864 182.741 152.736 183.467 152.48C184.192 152.224 184.779 151.851 185.227 151.36C185.685 150.869 185.915 150.267 185.915 149.552C185.915 149.232 185.861 148.939 185.755 148.672C185.648 148.395 185.488 148.149 185.275 147.936C185.072 147.723 184.805 147.531 184.475 147.36C184.155 147.179 183.781 147.024 183.355 146.896L177.403 145.136C176.891 144.987 176.336 144.789 175.739 144.544C175.152 144.288 174.592 143.941 174.059 143.504C173.536 143.056 173.104 142.491 172.763 141.808C172.432 141.115 172.267 140.261 172.267 139.248C172.267 137.765 172.64 136.523 173.387 135.52C174.144 134.507 175.157 133.749 176.427 133.248C177.707 132.747 179.125 132.501 180.683 132.512C182.261 132.523 183.669 132.795 184.907 133.328C186.144 133.851 187.179 134.613 188.011 135.616C188.843 136.619 189.429 137.829 189.771 139.248L185.627 139.968C185.456 139.157 185.125 138.469 184.635 137.904C184.155 137.328 183.563 136.891 182.859 136.592C182.165 136.293 181.424 136.133 180.635 136.112C179.867 136.101 179.152 136.219 178.491 136.464C177.84 136.699 177.312 137.04 176.907 137.488C176.512 137.936 176.315 138.459 176.315 139.056C176.315 139.621 176.485 140.085 176.827 140.448C177.168 140.8 177.589 141.083 178.091 141.296C178.603 141.499 179.12 141.669 179.643 141.808L183.771 142.96C184.336 143.109 184.971 143.312 185.675 143.568C186.379 143.824 187.056 144.181 187.707 144.64C188.357 145.099 188.891 145.701 189.307 146.448C189.733 147.195 189.947 148.144 189.947 149.296C189.947 150.491 189.696 151.541 189.195 152.448C188.704 153.344 188.037 154.091 187.195 154.688C186.352 155.285 185.387 155.733 184.299 156.032C183.221 156.331 182.091 156.48 180.907 156.48ZM194.69 156V132.96H198.546V142.656H209.458V132.96H213.298V156H209.458V146.272H198.546V156H194.69ZM20.9547 199.136C19.7067 197.685 18.6401 196.043 17.7547 194.208C16.8694 192.384 16.1974 190.469 15.7387 188.464C15.2801 186.459 15.0667 184.464 15.0987 182.48C15.0667 180.496 15.2801 178.501 15.7387 176.496C16.1974 174.48 16.8694 172.56 17.7547 170.736C18.6401 168.912 19.7067 167.275 20.9547 165.824L23.8027 167.936C22.5227 169.483 21.4987 171.045 20.7307 172.624C19.9734 174.203 19.4294 175.813 19.0987 177.456C18.7681 179.088 18.5974 180.763 18.5867 182.48C18.5974 184.197 18.7681 185.877 19.0987 187.52C19.4401 189.152 19.9894 190.763 20.7467 192.352C21.5041 193.931 22.5227 195.483 23.8027 197.008L20.9547 199.136ZM28.6387 194V170.96H38.1587C38.3827 170.96 38.6707 170.971 39.0227 170.992C39.3747 171.003 39.7001 171.035 39.9987 171.088C41.3321 171.291 42.4307 171.733 43.2947 172.416C44.1694 173.099 44.8147 173.963 45.2307 175.008C45.6574 176.043 45.8707 177.195 45.8707 178.464C45.8707 179.723 45.6574 180.875 45.2307 181.92C44.8041 182.955 44.1534 183.813 43.2787 184.496C42.4147 185.179 41.3214 185.621 39.9987 185.824C39.7001 185.867 39.3694 185.899 39.0067 185.92C38.6547 185.941 38.3721 185.952 38.1587 185.952H32.4947V194H28.6387ZM32.4947 182.352H37.9987C38.2121 182.352 38.4521 182.341 38.7187 182.32C38.9854 182.299 39.2307 182.256 39.4547 182.192C40.0947 182.032 40.5961 181.749 40.9587 181.344C41.3321 180.939 41.5934 180.48 41.7427 179.968C41.9027 179.456 41.9827 178.955 41.9827 178.464C41.9827 177.973 41.9027 177.472 41.7427 176.96C41.5934 176.437 41.3321 175.973 40.9587 175.568C40.5961 175.163 40.0947 174.88 39.4547 174.72C39.2307 174.656 38.9854 174.619 38.7187 174.608C38.4521 174.587 38.2121 174.576 37.9987 174.576H32.4947V182.352ZM47.1625 194L54.4265 170.96H60.0745L67.3385 194H63.3705L56.7785 173.328H57.6425L51.1305 194H47.1625ZM51.2105 189.008V185.408H63.3065V189.008H51.2105ZM79.4142 194.48C77.7289 194.48 76.2089 194.187 74.8542 193.6C73.5102 193.013 72.4009 192.176 71.5262 191.088C70.6622 189.989 70.1129 188.688 69.8782 187.184L73.8782 186.576C74.2196 187.941 74.9182 188.997 75.9742 189.744C77.0409 190.491 78.2676 190.864 79.6542 190.864C80.4756 190.864 81.2489 190.736 81.9742 190.48C82.6996 190.224 83.2862 189.851 83.7342 189.36C84.1929 188.869 84.4222 188.267 84.4222 187.552C84.4222 187.232 84.3689 186.939 84.2622 186.672C84.1556 186.395 83.9956 186.149 83.7822 185.936C83.5796 185.723 83.3129 185.531 82.9822 185.36C82.6622 185.179 82.2889 185.024 81.8622 184.896L75.9102 183.136C75.3982 182.987 74.8436 182.789 74.2462 182.544C73.6596 182.288 73.0996 181.941 72.5662 181.504C72.0436 181.056 71.6116 180.491 71.2702 179.808C70.9396 179.115 70.7742 178.261 70.7742 177.248C70.7742 175.765 71.1476 174.523 71.8942 173.52C72.6516 172.507 73.6649 171.749 74.9342 171.248C76.2142 170.747 77.6329 170.501 79.1902 170.512C80.7689 170.523 82.1769 170.795 83.4142 171.328C84.6516 171.851 85.6862 172.613 86.5182 173.616C87.3502 174.619 87.9369 175.829 88.2782 177.248L84.1342 177.968C83.9636 177.157 83.6329 176.469 83.1422 175.904C82.6622 175.328 82.0702 174.891 81.3662 174.592C80.6729 174.293 79.9316 174.133 79.1422 174.112C78.3742 174.101 77.6596 174.219 76.9982 174.464C76.3476 174.699 75.8196 175.04 75.4142 175.488C75.0196 175.936 74.8222 176.459 74.8222 177.056C74.8222 177.621 74.9929 178.085 75.3342 178.448C75.6756 178.8 76.0969 179.083 76.5982 179.296C77.1102 179.499 77.6276 179.669 78.1502 179.808L82.2782 180.96C82.8436 181.109 83.4782 181.312 84.1822 181.568C84.8862 181.824 85.5636 182.181 86.2142 182.64C86.8649 183.099 87.3982 183.701 87.8142 184.448C88.2409 185.195 88.4542 186.144 88.4542 187.296C88.4542 188.491 88.2036 189.541 87.7022 190.448C87.2116 191.344 86.5449 192.091 85.7022 192.688C84.8596 193.285 83.8942 193.733 82.8062 194.032C81.7289 194.331 80.5982 194.48 79.4142 194.48ZM98.7335 194V174.576H91.2775V170.96H110.045V174.576H102.589V194H98.7335ZM128.233 194.48C126.953 194.48 125.743 194.293 124.601 193.92C123.471 193.536 122.527 192.933 121.769 192.112C121.161 191.44 120.713 190.709 120.425 189.92C120.148 189.12 119.993 188.267 119.961 187.36C119.961 186.475 120.089 185.616 120.345 184.784C120.612 183.952 121.017 183.216 121.561 182.576C121.775 182.32 122.004 182.096 122.249 181.904C122.505 181.701 122.761 181.52 123.017 181.36C122.388 180.656 121.908 179.973 121.577 179.312C121.257 178.651 121.097 177.872 121.097 176.976C121.097 175.632 121.46 174.427 122.185 173.36C122.911 172.293 123.897 171.525 125.145 171.056C125.689 170.853 126.239 170.715 126.793 170.64C127.359 170.565 127.908 170.528 128.441 170.528C129.444 170.528 130.409 170.683 131.337 170.992C132.265 171.291 133.055 171.781 133.705 172.464C134.121 172.859 134.468 173.307 134.745 173.808C135.023 174.299 135.231 174.805 135.369 175.328L131.561 176.144C131.412 175.664 131.151 175.253 130.777 174.912C130.457 174.603 130.079 174.4 129.641 174.304C129.204 174.197 128.772 174.144 128.345 174.144C127.663 174.144 127.06 174.267 126.537 174.512C126.015 174.757 125.625 175.088 125.369 175.504C125.124 175.92 125.001 176.427 125.001 177.024C125.001 177.557 125.097 177.984 125.289 178.304C125.492 178.624 125.737 178.949 126.025 179.28C126.217 179.493 126.452 179.728 126.729 179.984C127.007 180.24 127.295 180.507 127.593 180.784L133.385 186.144C133.396 185.931 133.401 185.701 133.401 185.456C133.401 185.2 133.401 184.96 133.401 184.736V181.92H136.793V186.096C136.793 186.672 136.777 187.232 136.745 187.776C136.713 188.309 136.649 188.752 136.553 189.104L139.417 191.728L136.937 194.368L134.713 192.256C134.169 192.768 133.572 193.184 132.921 193.504C132.271 193.824 131.615 194.053 130.953 194.192C130.473 194.309 130.015 194.384 129.577 194.416C129.14 194.459 128.692 194.48 128.233 194.48ZM128.393 190.816C128.724 190.816 129.033 190.8 129.321 190.768C129.62 190.736 129.908 190.672 130.185 190.576C130.58 190.459 130.916 190.32 131.193 190.16C131.481 190 131.732 189.835 131.945 189.664L125.849 184.064C125.561 184.171 125.3 184.309 125.065 184.48C124.841 184.64 124.649 184.821 124.489 185.024C124.287 185.291 124.127 185.605 124.009 185.968C123.903 186.32 123.849 186.709 123.849 187.136C123.86 187.627 123.94 188.064 124.089 188.448C124.239 188.821 124.436 189.157 124.681 189.456C125.065 189.947 125.615 190.299 126.329 190.512C127.044 190.715 127.732 190.816 128.393 190.816ZM150.974 194V170.96H160.494C160.718 170.96 161.006 170.971 161.358 170.992C161.71 171.003 162.035 171.035 162.334 171.088C163.667 171.291 164.766 171.733 165.63 172.416C166.504 173.099 167.15 173.963 167.566 175.008C167.992 176.043 168.206 177.195 168.206 178.464C168.206 179.723 167.992 180.875 167.566 181.92C167.139 182.955 166.488 183.813 165.614 184.496C164.75 185.179 163.656 185.621 162.334 185.824C162.035 185.867 161.704 185.899 161.342 185.92C160.99 185.941 160.707 185.952 160.494 185.952H154.83V194H150.974ZM154.83 182.352H160.334C160.547 182.352 160.787 182.341 161.054 182.32C161.32 182.299 161.566 182.256 161.79 182.192C162.43 182.032 162.931 181.749 163.294 181.344C163.667 180.939 163.928 180.48 164.078 179.968C164.238 179.456 164.318 178.955 164.318 178.464C164.318 177.973 164.238 177.472 164.078 176.96C163.928 176.437 163.667 175.973 163.294 175.568C162.931 175.163 162.43 174.88 161.79 174.72C161.566 174.656 161.32 174.619 161.054 174.608C160.787 174.587 160.547 174.576 160.334 174.576H154.83V182.352ZM172.691 194V170.96H182.211C182.435 170.96 182.723 170.971 183.075 170.992C183.427 171.003 183.753 171.035 184.051 171.088C185.385 171.291 186.483 171.733 187.347 172.416C188.222 173.099 188.867 173.963 189.283 175.008C189.71 176.043 189.923 177.195 189.923 178.464C189.923 180.341 189.449 181.957 188.499 183.312C187.55 184.656 186.094 185.488 184.131 185.808L182.483 185.952H176.547V194H172.691ZM185.923 194L181.379 184.624L185.299 183.76L190.291 194H185.923ZM176.547 182.352H182.051C182.265 182.352 182.505 182.341 182.771 182.32C183.038 182.299 183.283 182.256 183.507 182.192C184.147 182.032 184.649 181.749 185.011 181.344C185.385 180.939 185.646 180.48 185.795 179.968C185.955 179.456 186.035 178.955 186.035 178.464C186.035 177.973 185.955 177.472 185.795 176.96C185.646 176.437 185.385 175.973 185.011 175.568C184.649 175.163 184.147 174.88 183.507 174.72C183.283 174.656 183.038 174.619 182.771 174.608C182.505 174.587 182.265 174.576 182.051 174.576H176.547V182.352ZM195.096 194V170.96H209.976V174.576H198.952V180.256H208.056V183.872H198.952V190.384H209.976V194H195.096ZM223.404 194.48C221.719 194.48 220.199 194.187 218.844 193.6C217.5 193.013 216.391 192.176 215.516 191.088C214.652 189.989 214.103 188.688 213.868 187.184L217.868 186.576C218.21 187.941 218.908 188.997 219.964 189.744C221.031 190.491 222.258 190.864 223.644 190.864C224.466 190.864 225.239 190.736 225.964 190.48C226.69 190.224 227.276 189.851 227.724 189.36C228.183 188.869 228.412 188.267 228.412 187.552C228.412 187.232 228.359 186.939 228.252 186.672C228.146 186.395 227.986 186.149 227.772 185.936C227.57 185.723 227.303 185.531 226.972 185.36C226.652 185.179 226.279 185.024 225.852 184.896L219.9 183.136C219.388 182.987 218.834 182.789 218.236 182.544C217.65 182.288 217.09 181.941 216.556 181.504C216.034 181.056 215.602 180.491 215.26 179.808C214.93 179.115 214.764 178.261 214.764 177.248C214.764 175.765 215.138 174.523 215.884 173.52C216.642 172.507 217.655 171.749 218.924 171.248C220.204 170.747 221.623 170.501 223.18 170.512C224.759 170.523 226.167 170.795 227.404 171.328C228.642 171.851 229.676 172.613 230.508 173.616C231.34 174.619 231.927 175.829 232.268 177.248L228.124 177.968C227.954 177.157 227.623 176.469 227.132 175.904C226.652 175.328 226.06 174.891 225.356 174.592C224.663 174.293 223.922 174.133 223.132 174.112C222.364 174.101 221.65 174.219 220.988 174.464C220.338 174.699 219.81 175.04 219.404 175.488C219.01 175.936 218.812 176.459 218.812 177.056C218.812 177.621 218.983 178.085 219.324 178.448C219.666 178.8 220.087 179.083 220.588 179.296C221.1 179.499 221.618 179.669 222.14 179.808L226.268 180.96C226.834 181.109 227.468 181.312 228.172 181.568C228.876 181.824 229.554 182.181 230.204 182.64C230.855 183.099 231.388 183.701 231.804 184.448C232.231 185.195 232.444 186.144 232.444 187.296C232.444 188.491 232.194 189.541 231.692 190.448C231.202 191.344 230.535 192.091 229.692 192.688C228.85 193.285 227.884 193.733 226.796 194.032C225.719 194.331 224.588 194.48 223.404 194.48ZM237.187 194V170.96H252.067V174.576H241.043V180.256H250.147V183.872H241.043V190.384H252.067V194H237.187ZM257.186 194V170.96H261.09L271.778 187.2V170.96H275.682V194H271.778L261.09 177.76V194H257.186ZM286.971 194V174.576H279.515V170.96H298.283V174.576H290.827V194H286.971ZM304.041 199.136L301.193 197.008C302.473 195.483 303.492 193.931 304.249 192.352C305.007 190.763 305.551 189.152 305.881 187.52C306.223 185.877 306.399 184.197 306.409 182.48C306.399 180.763 306.228 179.088 305.897 177.456C305.567 175.813 305.017 174.203 304.249 172.624C303.492 171.045 302.473 169.483 301.193 167.936L304.041 165.824C305.289 167.275 306.356 168.912 307.241 170.736C308.127 172.56 308.799 174.48 309.257 176.496C309.716 178.501 309.929 180.496 309.897 182.48C309.929 184.464 309.716 186.459 309.257 188.464C308.799 190.469 308.127 192.384 307.241 194.208C306.356 196.043 305.289 197.685 304.041 199.136Z" fill="white"></path><defs><filter id="filter0_d_1513_966" x="-155.881" y="-126.957" width="430.717" height="500.711" filterUnits="userSpaceOnUse" color-interpolation-filters="sRGB"><feFlood flood-opacity="0" result="BackgroundImageFix"></feFlood><feColorMatrix in="SourceAlpha" type="matrix" values="0 0 0 0 0 0 0 0 0 0 0 0 0 0 0 0 0 0 127 0" result="hardAlpha"></feColorMatrix><feOffset dy="8"></feOffset><feGaussianBlur stdDeviation="9"></feGaussianBlur><feComposite in2="hardAlpha" operator="out"></feComposite><feColorMatrix type="matrix" values="0 0 0 0 0 0 0 0 0 0 0 0 0 0 0 0 0 0 0.15 0"></feColorMatrix><feBlend mode="normal" in2="BackgroundImageFix" result="effect1_dropShadow_1513_966"></feBlend><feBlend mode="normal" in="SourceGraphic" in2="effect1_dropShadow_1513_966" result="shape"></feBlend></filter><filter id="filter1_d_1513_966" x="119.998" y="93.9932" width="486.004" height="437.021" filterUnits="userSpaceOnUse" color-interpolation-filters="sRGB"><feFlood flood-opacity="0" result="BackgroundImageFix"></feFlood><feColorMatrix in="SourceAlpha" type="matrix" values="0 0 0 0 0 0 0 0 0 0 0 0 0 0 0 0 0 0 127 0" result="hardAlpha"></feColorMatrix><feOffset dy="8"></feOffset><feGaussianBlur stdDeviation="9"></feGaussianBlur><feComposite in2="hardAlpha" operator="out"></feComposite><feColorMatrix type="matrix" values="0 0 0 0 0 0 0 0 0 0 0 0 0 0 0 0 0 0 0.15 0"></feColorMatrix><feBlend mode="normal" in2="BackgroundImageFix" result="effect1_dropShadow_1513_966"></feBlend><feBlend mode="normal" in="SourceGraphic" in2="effect1_dropShadow_1513_966" result="shape"></feBlend></filter></defs></svg> 