<?xml version="1.0" encoding="UTF-8"?> <svg xmlns="http://www.w3.org/2000/svg" width="325" height="325" viewBox="0 0 325 325" fill="none"><rect width="325" height="325" rx="10" fill="#6398DD"></rect><mask id="mask0_1308_889" style="mask-type:alpha" maskUnits="userSpaceOnUse" x="0" y="0" width="325" height="325"><rect width="325" height="325" rx="10" fill="#F794A4"></rect></mask><g mask="url(#mask0_1308_889)"><g filter="url(#filter0_d_1308_889)"><path d="M-76.2726 47.1312C-104.795 75.2595 -115.452 117.238 -121.485 153.43C-123.558 165.868 -140.541 240.721 -107.609 232.014C-90.0854 227.381 -73.9391 215.177 -61.3026 203.022C-30.8841 173.761 -6.99323 136.633 11.3298 100.027C16.8841 88.9298 61.2987 -5.46441 20.1736 -2.1454C4.53847 -0.883562 -12.8907 10.181 -24.0428 20.325C-54.847 48.3446 -71.6388 89.3322 -76.0832 127.863C-79.5783 158.164 -74.4555 187.926 -63.3935 215.433C-54.981 236.351 -42.153 259.057 -16.4511 263.037C8.23593 266.859 30.5971 254.8 49.3735 238.975C90.1196 204.635 120.258 157.285 146.833 113.137C177.26 62.5871 205.785 10.6375 221.897 -44.918" stroke="#8CCAF7" stroke-width="50" stroke-linecap="round" shape-rendering="crispEdges"></path></g><g filter="url(#filter1_d_1308_889)"><path d="M424.197 -97.0264C367.387 -63.3321 307.525 25.284 252.147 104.813C220.473 150.3 187.802 196.628 157.732 258.252C138.249 298.179 113.474 354.355 109.595 425.266C100.615 589.419 160.99 586.872 203.239 533.679C244.313 481.966 283.673 389.38 321.005 307.981C342.122 261.939 362.857 214.76 383.242 165.104C387.113 155.672 412.458 90.1545 392.105 121.505C369.656 156.086 348.344 249.596 343.304 317.133C337.224 398.596 363.005 460.109 379.412 496.078C400.317 541.908 425.437 563.774 453.362 571.837" stroke="#8CCAF7" stroke-width="50" stroke-linecap="round" shape-rendering="crispEdges"></path></g></g><path d="M123.102 159V135.96H132.622C132.846 135.96 133.134 135.971 133.486 135.992C133.838 136.003 134.163 136.035 134.462 136.088C135.795 136.291 136.894 136.733 137.758 137.416C138.633 138.099 139.278 138.963 139.694 140.008C140.121 141.043 140.334 142.195 140.334 143.464C140.334 144.723 140.121 145.875 139.694 146.92C139.267 147.955 138.617 148.813 137.742 149.496C136.878 150.179 135.785 150.621 134.462 150.824C134.163 150.867 133.833 150.899 133.47 150.92C133.118 150.941 132.835 150.952 132.622 150.952H126.958V159H123.102ZM126.958 147.352H132.462C132.675 147.352 132.915 147.341 133.182 147.32C133.449 147.299 133.694 147.256 133.918 147.192C134.558 147.032 135.059 146.749 135.422 146.344C135.795 145.939 136.057 145.48 136.206 144.968C136.366 144.456 136.446 143.955 136.446 143.464C136.446 142.973 136.366 142.472 136.206 141.96C136.057 141.437 135.795 140.973 135.422 140.568C135.059 140.163 134.558 139.88 133.918 139.72C133.694 139.656 133.449 139.619 133.182 139.608C132.915 139.587 132.675 139.576 132.462 139.576H126.958V147.352ZM141.626 159L148.89 135.96H154.538L161.802 159H157.834L151.242 138.328H152.106L145.594 159H141.626ZM145.674 154.008V150.408H157.77V154.008H145.674ZM173.877 159.48C172.192 159.48 170.672 159.187 169.317 158.6C167.973 158.013 166.864 157.176 165.989 156.088C165.125 154.989 164.576 153.688 164.341 152.184L168.341 151.576C168.683 152.941 169.381 153.997 170.437 154.744C171.504 155.491 172.731 155.864 174.117 155.864C174.939 155.864 175.712 155.736 176.437 155.48C177.163 155.224 177.749 154.851 178.197 154.36C178.656 153.869 178.885 153.267 178.885 152.552C178.885 152.232 178.832 151.939 178.725 151.672C178.619 151.395 178.459 151.149 178.245 150.936C178.043 150.723 177.776 150.531 177.445 150.36C177.125 150.179 176.752 150.024 176.325 149.896L170.373 148.136C169.861 147.987 169.307 147.789 168.709 147.544C168.123 147.288 167.563 146.941 167.029 146.504C166.507 146.056 166.075 145.491 165.733 144.808C165.403 144.115 165.237 143.261 165.237 142.248C165.237 140.765 165.611 139.523 166.357 138.52C167.115 137.507 168.128 136.749 169.397 136.248C170.677 135.747 172.096 135.501 173.653 135.512C175.232 135.523 176.64 135.795 177.877 136.328C179.115 136.851 180.149 137.613 180.981 138.616C181.813 139.619 182.4 140.829 182.741 142.248L178.597 142.968C178.427 142.157 178.096 141.469 177.605 140.904C177.125 140.328 176.533 139.891 175.829 139.592C175.136 139.293 174.395 139.133 173.605 139.112C172.837 139.101 172.123 139.219 171.461 139.464C170.811 139.699 170.283 140.04 169.877 140.488C169.483 140.936 169.285 141.459 169.285 142.056C169.285 142.621 169.456 143.085 169.797 143.448C170.139 143.8 170.56 144.083 171.061 144.296C171.573 144.499 172.091 144.669 172.613 144.808L176.741 145.96C177.307 146.109 177.941 146.312 178.645 146.568C179.349 146.824 180.027 147.181 180.677 147.64C181.328 148.099 181.861 148.701 182.277 149.448C182.704 150.195 182.917 151.144 182.917 152.296C182.917 153.491 182.667 154.541 182.165 155.448C181.675 156.344 181.008 157.091 180.165 157.688C179.323 158.285 178.357 158.733 177.269 159.032C176.192 159.331 175.061 159.48 173.877 159.48ZM193.197 159V139.576H185.741V135.96H204.509V139.576H197.053V159H193.197ZM63.224 191.48C60.92 191.48 58.9467 190.979 57.304 189.976C55.6613 188.963 54.3973 187.555 53.512 185.752C52.6373 183.949 52.2 181.859 52.2 179.48C52.2 177.101 52.6373 175.011 53.512 173.208C54.3973 171.405 55.6613 170.003 57.304 169C58.9467 167.987 60.92 167.48 63.224 167.48C65.88 167.48 68.0933 168.147 69.864 169.48C71.6347 170.803 72.8773 172.589 73.592 174.84L69.704 175.912C69.256 174.408 68.4933 173.235 67.416 172.392C66.3387 171.539 64.9413 171.112 63.224 171.112C61.6773 171.112 60.3867 171.459 59.352 172.152C58.328 172.845 57.5547 173.821 57.032 175.08C56.52 176.328 56.2587 177.795 56.248 179.48C56.248 181.165 56.504 182.637 57.016 183.896C57.5387 185.144 58.3173 186.115 59.352 186.808C60.3867 187.501 61.6773 187.848 63.224 187.848C64.9413 187.848 66.3387 187.421 67.416 186.568C68.4933 185.715 69.256 184.541 69.704 183.048L73.592 184.12C72.8773 186.371 71.6347 188.163 69.864 189.496C68.0933 190.819 65.88 191.48 63.224 191.48ZM88.129 191.48C85.825 191.48 83.8517 190.979 82.209 189.976C80.5663 188.963 79.3023 187.555 78.417 185.752C77.5423 183.949 77.105 181.859 77.105 179.48C77.105 177.101 77.5423 175.011 78.417 173.208C79.3023 171.405 80.5663 170.003 82.209 169C83.8517 167.987 85.825 167.48 88.129 167.48C90.433 167.48 92.4063 167.987 94.049 169C95.7023 170.003 96.9663 171.405 97.841 173.208C98.7263 175.011 99.169 177.101 99.169 179.48C99.169 181.859 98.7263 183.949 97.841 185.752C96.9663 187.555 95.7023 188.963 94.049 189.976C92.4063 190.979 90.433 191.48 88.129 191.48ZM88.129 187.848C89.6757 187.859 90.961 187.517 91.985 186.824C93.0197 186.131 93.793 185.155 94.305 183.896C94.8277 182.637 95.089 181.165 95.089 179.48C95.089 177.795 94.8277 176.333 94.305 175.096C93.793 173.848 93.0197 172.877 91.985 172.184C90.961 171.491 89.6757 171.133 88.129 171.112C86.5823 171.101 85.297 171.443 84.273 172.136C83.249 172.829 82.4757 173.805 81.953 175.064C81.441 176.323 81.185 177.795 81.185 179.48C81.185 181.165 81.441 182.632 81.953 183.88C82.465 185.117 83.233 186.083 84.257 186.776C85.2917 187.469 86.5823 187.827 88.129 187.848ZM103.634 191V167.96H107.538L118.226 184.2V167.96H122.13V191H118.226L107.538 174.76V191H103.634ZM133.418 191V171.576H125.962V167.96H144.73V171.576H137.274V191H133.418ZM148.889 191V167.96H152.745V191H148.889ZM158.817 191V167.96H162.721L173.41 184.2V167.96H177.313V191H173.41L162.721 174.76V191H158.817ZM192.346 191.48C190.512 191.48 188.896 191.107 187.498 190.36C186.112 189.613 185.024 188.563 184.234 187.208C183.456 185.853 183.066 184.264 183.066 182.44V167.992L186.97 167.96V182.344C186.97 183.208 187.114 183.981 187.402 184.664C187.701 185.347 188.101 185.928 188.602 186.408C189.104 186.877 189.68 187.235 190.33 187.48C190.981 187.725 191.653 187.848 192.346 187.848C193.061 187.848 193.738 187.725 194.378 187.48C195.029 187.224 195.605 186.861 196.106 186.392C196.608 185.912 197.002 185.331 197.29 184.648C197.578 183.965 197.722 183.197 197.722 182.344V167.96H201.626V182.44C201.626 184.264 201.232 185.853 200.442 187.208C199.664 188.563 198.576 189.613 197.178 190.36C195.792 191.107 194.181 191.48 192.346 191.48ZM217.122 191.48C214.818 191.48 212.844 190.979 211.202 189.976C209.559 188.963 208.295 187.555 207.41 185.752C206.535 183.949 206.098 181.859 206.098 179.48C206.098 177.101 206.535 175.011 207.41 173.208C208.295 171.405 209.559 170.003 211.202 169C212.844 167.987 214.818 167.48 217.122 167.48C219.426 167.48 221.399 167.987 223.042 169C224.695 170.003 225.959 171.405 226.834 173.208C227.719 175.011 228.162 177.101 228.162 179.48C228.162 181.859 227.719 183.949 226.834 185.752C225.959 187.555 224.695 188.963 223.042 189.976C221.399 190.979 219.426 191.48 217.122 191.48ZM217.122 187.848C218.668 187.859 219.954 187.517 220.978 186.824C222.012 186.131 222.786 185.155 223.298 183.896C223.82 182.637 224.082 181.165 224.082 179.48C224.082 177.795 223.82 176.333 223.298 175.096C222.786 173.848 222.012 172.877 220.978 172.184C219.954 171.491 218.668 171.133 217.122 171.112C215.575 171.101 214.29 171.443 213.266 172.136C212.242 172.829 211.468 173.805 210.946 175.064C210.434 176.323 210.178 177.795 210.178 179.48C210.178 181.165 210.434 182.632 210.946 183.88C211.458 185.117 212.226 186.083 213.25 186.776C214.284 187.469 215.575 187.827 217.122 187.848ZM241.906 191.48C240.072 191.48 238.456 191.107 237.058 190.36C235.672 189.613 234.584 188.563 233.794 187.208C233.016 185.853 232.626 184.264 232.626 182.44V167.992L236.53 167.96V182.344C236.53 183.208 236.674 183.981 236.962 184.664C237.261 185.347 237.661 185.928 238.162 186.408C238.664 186.877 239.24 187.235 239.89 187.48C240.541 187.725 241.213 187.848 241.906 187.848C242.621 187.848 243.298 187.725 243.938 187.48C244.589 187.224 245.165 186.861 245.666 186.392C246.168 185.912 246.562 185.331 246.85 184.648C247.138 183.965 247.282 183.197 247.282 182.344V167.96H251.186V182.44C251.186 184.264 250.792 185.853 250.002 187.208C249.224 188.563 248.136 189.613 246.738 190.36C245.352 191.107 243.741 191.48 241.906 191.48ZM264.497 191.48C262.811 191.48 261.291 191.187 259.937 190.6C258.593 190.013 257.483 189.176 256.609 188.088C255.745 186.989 255.195 185.688 254.961 184.184L258.961 183.576C259.302 184.941 260.001 185.997 261.057 186.744C262.123 187.491 263.35 187.864 264.737 187.864C265.558 187.864 266.331 187.736 267.057 187.48C267.782 187.224 268.369 186.851 268.817 186.36C269.275 185.869 269.505 185.267 269.505 184.552C269.505 184.232 269.451 183.939 269.345 183.672C269.238 183.395 269.078 183.149 268.865 182.936C268.662 182.723 268.395 182.531 268.065 182.36C267.745 182.179 267.371 182.024 266.945 181.896L260.993 180.136C260.481 179.987 259.926 179.789 259.329 179.544C258.742 179.288 258.182 178.941 257.649 178.504C257.126 178.056 256.694 177.491 256.353 176.808C256.022 176.115 255.857 175.261 255.857 174.248C255.857 172.765 256.23 171.523 256.977 170.52C257.734 169.507 258.747 168.749 260.017 168.248C261.297 167.747 262.715 167.501 264.273 167.512C265.851 167.523 267.259 167.795 268.497 168.328C269.734 168.851 270.769 169.613 271.601 170.616C272.433 171.619 273.019 172.829 273.361 174.248L269.217 174.968C269.046 174.157 268.715 173.469 268.225 172.904C267.745 172.328 267.153 171.891 266.449 171.592C265.755 171.293 265.014 171.133 264.225 171.112C263.457 171.101 262.742 171.219 262.081 171.464C261.43 171.699 260.902 172.04 260.497 172.488C260.102 172.936 259.905 173.459 259.905 174.056C259.905 174.621 260.075 175.085 260.417 175.448C260.758 175.8 261.179 176.083 261.681 176.296C262.193 176.499 262.71 176.669 263.233 176.808L267.361 177.96C267.926 178.109 268.561 178.312 269.265 178.568C269.969 178.824 270.646 179.181 271.297 179.64C271.947 180.099 272.481 180.701 272.897 181.448C273.323 182.195 273.537 183.144 273.537 184.296C273.537 185.491 273.286 186.541 272.785 187.448C272.294 188.344 271.627 189.091 270.785 189.688C269.942 190.285 268.977 190.733 267.889 191.032C266.811 191.331 265.681 191.48 264.497 191.48Z" fill="white"></path><defs><filter id="filter0_d_1308_889" x="-170.701" y="-79.9248" width="435.605" height="394.685" filterUnits="userSpaceOnUse" color-interpolation-filters="sRGB"><feFlood flood-opacity="0" result="BackgroundImageFix"></feFlood><feColorMatrix in="SourceAlpha" type="matrix" values="0 0 0 0 0 0 0 0 0 0 0 0 0 0 0 0 0 0 127 0" result="hardAlpha"></feColorMatrix><feOffset dy="8"></feOffset><feGaussianBlur stdDeviation="9"></feGaussianBlur><feComposite in2="hardAlpha" operator="out"></feComposite><feColorMatrix type="matrix" values="0 0 0 0 0 0 0 0 0 0 0 0 0 0 0 0 0 0 0.15 0"></feColorMatrix><feBlend mode="normal" in2="BackgroundImageFix" result="effect1_dropShadow_1308_889"></feBlend><feBlend mode="normal" in="SourceGraphic" in2="effect1_dropShadow_1308_889" result="shape"></feBlend></filter><filter id="filter1_d_1308_889" x="65.6973" y="-132.03" width="430.672" height="754.873" filterUnits="userSpaceOnUse" color-interpolation-filters="sRGB"><feFlood flood-opacity="0" result="BackgroundImageFix"></feFlood><feColorMatrix in="SourceAlpha" type="matrix" values="0 0 0 0 0 0 0 0 0 0 0 0 0 0 0 0 0 0 127 0" result="hardAlpha"></feColorMatrix><feOffset dy="8"></feOffset><feGaussianBlur stdDeviation="9"></feGaussianBlur><feComposite in2="hardAlpha" operator="out"></feComposite><feColorMatrix type="matrix" values="0 0 0 0 0 0 0 0 0 0 0 0 0 0 0 0 0 0 0.15 0"></feColorMatrix><feBlend mode="normal" in2="BackgroundImageFix" result="effect1_dropShadow_1308_889"></feBlend><feBlend mode="normal" in="SourceGraphic" in2="effect1_dropShadow_1308_889" result="shape"></feBlend></filter></defs></svg> 