<?xml version="1.0" encoding="UTF-8"?> <svg xmlns="http://www.w3.org/2000/svg" width="325" height="325" viewBox="0 0 325 325" fill="none"><rect width="325" height="325" rx="10" fill="#5C63AB"></rect><mask id="mask0_1213_2732" style="mask-type:alpha" maskUnits="userSpaceOnUse" x="0" y="0" width="325" height="325"><rect width="325" height="325" rx="10" fill="#FF7EB3"></rect></mask><g mask="url(#mask0_1213_2732)"><g filter="url(#filter0_d_1213_2732)"><path d="M205.641 383.559C247.572 352.294 274.97 278.652 295.114 212.493C302.037 189.755 348.665 56.7321 309.114 46.0292C288.068 40.334 265.718 50.71 247.255 63.9583C202.811 95.8496 162.631 148.751 128.784 205.334C118.524 222.486 34.3679 370.788 80.9435 399.028C98.6508 409.765 121.99 402.717 138.067 392.174C182.473 363.052 216.265 296.548 235.53 224.441C250.68 167.734 256.127 104.804 254.187 41.2895C252.711 -7.01237 247.034 -62.5671 220.183 -92.1355C194.391 -120.536 165.244 -115.702 138.644 -100.421C80.9212 -67.2598 30.0427 0.485469 -15.713 64.9401C-68.1035 138.741 -118.918 216.907 -157.392 312.67" stroke="#7980C4" stroke-width="50" stroke-linecap="round" shape-rendering="crispEdges"></path></g><path d="M76.6669 156V132.96H86.1869C86.4109 132.96 86.6989 132.971 87.0509 132.992C87.4029 133.003 87.7282 133.035 88.0269 133.088C89.3602 133.291 90.4589 133.733 91.3229 134.416C92.1975 135.099 92.8429 135.963 93.2589 137.008C93.6855 138.043 93.8989 139.195 93.8989 140.464C93.8989 142.341 93.4242 143.957 92.4749 145.312C91.5255 146.656 90.0695 147.488 88.1069 147.808L86.4589 147.952H80.5229V156H76.6669ZM89.8989 156L85.3549 146.624L89.2749 145.76L94.2669 156H89.8989ZM80.5229 144.352H86.0269C86.2402 144.352 86.4802 144.341 86.7469 144.32C87.0135 144.299 87.2589 144.256 87.4829 144.192C88.1229 144.032 88.6242 143.749 88.9869 143.344C89.3602 142.939 89.6215 142.48 89.7709 141.968C89.9309 141.456 90.0109 140.955 90.0109 140.464C90.0109 139.973 89.9309 139.472 89.7709 138.96C89.6215 138.437 89.3602 137.973 88.9869 137.568C88.6242 137.163 88.1229 136.88 87.4829 136.72C87.2589 136.656 87.0135 136.619 86.7469 136.608C86.4802 136.587 86.2402 136.576 86.0269 136.576H80.5229V144.352ZM99.0719 156V132.96H113.952V136.576H102.928V142.256H112.032V145.872H102.928V152.384H113.952V156H99.0719ZM119.071 156V132.96H128.591C128.815 132.96 129.103 132.971 129.455 132.992C129.807 133.003 130.132 133.035 130.431 133.088C131.764 133.291 132.863 133.733 133.727 134.416C134.601 135.099 135.247 135.963 135.663 137.008C136.089 138.043 136.303 139.195 136.303 140.464C136.303 141.723 136.089 142.875 135.663 143.92C135.236 144.955 134.585 145.813 133.711 146.496C132.847 147.179 131.753 147.621 130.431 147.824C130.132 147.867 129.801 147.899 129.439 147.92C129.087 147.941 128.804 147.952 128.591 147.952H122.927V156H119.071ZM122.927 144.352H128.431C128.644 144.352 128.884 144.341 129.151 144.32C129.417 144.299 129.663 144.256 129.887 144.192C130.527 144.032 131.028 143.749 131.391 143.344C131.764 142.939 132.025 142.48 132.175 141.968C132.335 141.456 132.415 140.955 132.415 140.464C132.415 139.973 132.335 139.472 132.175 138.96C132.025 138.437 131.764 137.973 131.391 137.568C131.028 137.163 130.527 136.88 129.887 136.72C129.663 136.656 129.417 136.619 129.151 136.608C128.884 136.587 128.644 136.576 128.431 136.576H122.927V144.352ZM150.532 156.48C148.228 156.48 146.255 155.979 144.612 154.976C142.969 153.963 141.705 152.555 140.82 150.752C139.945 148.949 139.508 146.859 139.508 144.48C139.508 142.101 139.945 140.011 140.82 138.208C141.705 136.405 142.969 135.003 144.612 134C146.255 132.987 148.228 132.48 150.532 132.48C152.836 132.48 154.809 132.987 156.452 134C158.105 135.003 159.369 136.405 160.244 138.208C161.129 140.011 161.572 142.101 161.572 144.48C161.572 146.859 161.129 148.949 160.244 150.752C159.369 152.555 158.105 153.963 156.452 154.976C154.809 155.979 152.836 156.48 150.532 156.48ZM150.532 152.848C152.079 152.859 153.364 152.517 154.388 151.824C155.423 151.131 156.196 150.155 156.708 148.896C157.231 147.637 157.492 146.165 157.492 144.48C157.492 142.795 157.231 141.333 156.708 140.096C156.196 138.848 155.423 137.877 154.388 137.184C153.364 136.491 152.079 136.133 150.532 136.112C148.985 136.101 147.7 136.443 146.676 137.136C145.652 137.829 144.879 138.805 144.356 140.064C143.844 141.323 143.588 142.795 143.588 144.48C143.588 146.165 143.844 147.632 144.356 148.88C144.868 150.117 145.636 151.083 146.66 151.776C147.695 152.469 148.985 152.827 150.532 152.848ZM166.037 156V132.96H175.557C175.781 132.96 176.069 132.971 176.421 132.992C176.773 133.003 177.098 133.035 177.397 133.088C178.73 133.291 179.829 133.733 180.693 134.416C181.568 135.099 182.213 135.963 182.629 137.008C183.056 138.043 183.269 139.195 183.269 140.464C183.269 142.341 182.794 143.957 181.845 145.312C180.896 146.656 179.44 147.488 177.477 147.808L175.829 147.952H169.893V156H166.037ZM179.269 156L174.725 146.624L178.645 145.76L183.637 156H179.269ZM169.893 144.352H175.397C175.61 144.352 175.85 144.341 176.117 144.32C176.384 144.299 176.629 144.256 176.853 144.192C177.493 144.032 177.994 143.749 178.357 143.344C178.73 142.939 178.992 142.48 179.141 141.968C179.301 141.456 179.381 140.955 179.381 140.464C179.381 139.973 179.301 139.472 179.141 138.96C178.992 138.437 178.73 137.973 178.357 137.568C177.994 137.163 177.493 136.88 176.853 136.72C176.629 136.656 176.384 136.619 176.117 136.608C175.85 136.587 175.61 136.576 175.397 136.576H169.893V144.352ZM193.978 156V136.576H186.522V132.96H205.29V136.576H197.834V156H193.978ZM209.128 156V132.96H224.008V136.576H212.984V142.256H222.088V145.872H212.984V152.384H224.008V156H209.128ZM229.127 156V132.96H236.471C236.663 132.96 237.042 132.965 237.607 132.976C238.183 132.987 238.738 133.024 239.271 133.088C241.095 133.323 242.636 133.973 243.895 135.04C245.164 136.096 246.124 137.445 246.775 139.088C247.426 140.731 247.751 142.528 247.751 144.48C247.751 146.432 247.426 148.229 246.775 149.872C246.124 151.515 245.164 152.869 243.895 153.936C242.636 154.992 241.095 155.637 239.271 155.872C238.748 155.936 238.199 155.973 237.623 155.984C237.047 155.995 236.663 156 236.471 156H229.127ZM233.047 152.368H236.471C236.791 152.368 237.196 152.357 237.687 152.336C238.188 152.315 238.631 152.267 239.015 152.192C240.103 151.989 240.988 151.504 241.671 150.736C242.354 149.968 242.855 149.035 243.175 147.936C243.506 146.837 243.671 145.685 243.671 144.48C243.671 143.232 243.506 142.059 243.175 140.96C242.844 139.861 242.332 138.939 241.639 138.192C240.956 137.445 240.082 136.971 239.015 136.768C238.631 136.683 238.188 136.635 237.687 136.624C237.196 136.603 236.791 136.592 236.471 136.592H233.047V152.368ZM107.662 194.48C105.976 194.48 104.456 194.187 103.102 193.6C101.758 193.013 100.648 192.176 99.7738 191.088C98.9098 189.989 98.3604 188.688 98.1258 187.184L102.126 186.576C102.467 187.941 103.166 188.997 104.222 189.744C105.288 190.491 106.515 190.864 107.902 190.864C108.723 190.864 109.496 190.736 110.222 190.48C110.947 190.224 111.534 189.851 111.982 189.36C112.44 188.869 112.67 188.267 112.67 187.552C112.67 187.232 112.616 186.939 112.51 186.672C112.403 186.395 112.243 186.149 112.03 185.936C111.827 185.723 111.56 185.531 111.23 185.36C110.91 185.179 110.536 185.024 110.11 184.896L104.158 183.136C103.646 182.987 103.091 182.789 102.494 182.544C101.907 182.288 101.347 181.941 100.814 181.504C100.291 181.056 99.8591 180.491 99.5178 179.808C99.1871 179.115 99.0218 178.261 99.0218 177.248C99.0218 175.765 99.3951 174.523 100.142 173.52C100.899 172.507 101.912 171.749 103.182 171.248C104.462 170.747 105.88 170.501 107.438 170.512C109.016 170.523 110.424 170.795 111.662 171.328C112.899 171.851 113.934 172.613 114.766 173.616C115.598 174.619 116.184 175.829 116.526 177.248L112.382 177.968C112.211 177.157 111.88 176.469 111.39 175.904C110.91 175.328 110.318 174.891 109.614 174.592C108.92 174.293 108.179 174.133 107.39 174.112C106.622 174.101 105.907 174.219 105.246 174.464C104.595 174.699 104.067 175.04 103.662 175.488C103.267 175.936 103.07 176.459 103.07 177.056C103.07 177.621 103.24 178.085 103.582 178.448C103.923 178.8 104.344 179.083 104.846 179.296C105.358 179.499 105.875 179.669 106.398 179.808L110.526 180.96C111.091 181.109 111.726 181.312 112.43 181.568C113.134 181.824 113.811 182.181 114.462 182.64C115.112 183.099 115.646 183.701 116.062 184.448C116.488 185.195 116.702 186.144 116.702 187.296C116.702 188.491 116.451 189.541 115.95 190.448C115.459 191.344 114.792 192.091 113.95 192.688C113.107 193.285 112.142 193.733 111.054 194.032C109.976 194.331 108.846 194.48 107.662 194.48ZM121.445 194V170.96H130.965C131.189 170.96 131.477 170.971 131.829 170.992C132.181 171.003 132.506 171.035 132.805 171.088C134.138 171.291 135.237 171.733 136.101 172.416C136.976 173.099 137.621 173.963 138.037 175.008C138.464 176.043 138.677 177.195 138.677 178.464C138.677 179.723 138.464 180.875 138.037 181.92C137.61 182.955 136.96 183.813 136.085 184.496C135.221 185.179 134.128 185.621 132.805 185.824C132.506 185.867 132.176 185.899 131.813 185.92C131.461 185.941 131.178 185.952 130.965 185.952H125.301V194H121.445ZM125.301 182.352H130.805C131.018 182.352 131.258 182.341 131.525 182.32C131.792 182.299 132.037 182.256 132.261 182.192C132.901 182.032 133.402 181.749 133.765 181.344C134.138 180.939 134.4 180.48 134.549 179.968C134.709 179.456 134.789 178.955 134.789 178.464C134.789 177.973 134.709 177.472 134.549 176.96C134.4 176.437 134.138 175.973 133.765 175.568C133.402 175.163 132.901 174.88 132.261 174.72C132.037 174.656 131.792 174.619 131.525 174.608C131.258 174.587 131.018 174.576 130.805 174.576H125.301V182.352ZM143.163 194V170.96H158.043V174.576H147.019V180.256H156.123V183.872H147.019V190.384H158.043V194H143.163ZM163.161 194V170.96H178.041V174.576H167.017V180.256H176.121V183.872H167.017V190.384H178.041V194H163.161ZM192.092 194.48C189.788 194.48 187.814 193.979 186.172 192.976C184.529 191.963 183.265 190.555 182.38 188.752C181.505 186.949 181.068 184.859 181.068 182.48C181.068 180.101 181.505 178.011 182.38 176.208C183.265 174.405 184.529 173.003 186.172 172C187.814 170.987 189.788 170.48 192.092 170.48C194.748 170.48 196.961 171.147 198.732 172.48C200.502 173.803 201.745 175.589 202.46 177.84L198.572 178.912C198.124 177.408 197.361 176.235 196.284 175.392C195.206 174.539 193.809 174.112 192.092 174.112C190.545 174.112 189.254 174.459 188.22 175.152C187.196 175.845 186.422 176.821 185.9 178.08C185.388 179.328 185.126 180.795 185.116 182.48C185.116 184.165 185.372 185.637 185.884 186.896C186.406 188.144 187.185 189.115 188.22 189.808C189.254 190.501 190.545 190.848 192.092 190.848C193.809 190.848 195.206 190.421 196.284 189.568C197.361 188.715 198.124 187.541 198.572 186.048L202.46 187.12C201.745 189.371 200.502 191.163 198.732 192.496C196.961 193.819 194.748 194.48 192.092 194.48ZM207.253 194V170.96H211.109V180.656H222.021V170.96H225.861V194H222.021V184.272H211.109V194H207.253Z" fill="white"></path></g><defs><filter id="filter0_d_1213_2732" x="-200.398" y="-147.685" width="568.248" height="603.059" filterUnits="userSpaceOnUse" color-interpolation-filters="sRGB"><feFlood flood-opacity="0" result="BackgroundImageFix"></feFlood><feColorMatrix in="SourceAlpha" type="matrix" values="0 0 0 0 0 0 0 0 0 0 0 0 0 0 0 0 0 0 127 0" result="hardAlpha"></feColorMatrix><feOffset dy="8"></feOffset><feGaussianBlur stdDeviation="9"></feGaussianBlur><feComposite in2="hardAlpha" operator="out"></feComposite><feColorMatrix type="matrix" values="0 0 0 0 0 0 0 0 0 0 0 0 0 0 0 0 0 0 0.15 0"></feColorMatrix><feBlend mode="normal" in2="BackgroundImageFix" result="effect1_dropShadow_1213_2732"></feBlend><feBlend mode="normal" in="SourceGraphic" in2="effect1_dropShadow_1213_2732" result="shape"></feBlend></filter></defs></svg> 