<?xml version="1.0" encoding="UTF-8"?> <svg xmlns="http://www.w3.org/2000/svg" width="325" height="325" viewBox="0 0 325 325" fill="none"><rect width="325" height="325" rx="10" fill="#E89635"></rect><mask id="mask0_951_3148" style="mask-type:alpha" maskUnits="userSpaceOnUse" x="0" y="0" width="325" height="325"><rect width="325" height="325" rx="10" fill="#FF7EB3"></rect></mask><g mask="url(#mask0_951_3148)"><g filter="url(#filter0_d_951_3148)"><path d="M424.339 -45.1054C349.478 -37.7794 266.588 8.69594 190.09 49.9029C146.337 73.4709 101.251 97.3501 58.3223 133.181C30.5074 156.396 -5.26945 189.861 -15.5577 240.426C-39.3743 357.481 37.6748 373.966 95.4723 347.988C151.661 322.733 208.752 267.131 262.418 219.077C292.773 191.896 322.729 163.769 352.426 133.728C358.066 128.023 395.273 87.9146 366.998 104.607C335.811 123.02 301.625 184.78 290.113 232.53C276.228 290.127 304.405 342.847 322.578 374.078C345.733 413.873 376.061 437.46 411.001 451.828" stroke="#FFAD4C" stroke-width="50" stroke-linecap="round" shape-rendering="crispEdges"></path></g></g><path d="M51.0405 175.48C49.3552 175.48 47.8352 175.187 46.4805 174.6C45.1365 174.013 44.0272 173.176 43.1525 172.088C42.2885 170.989 41.7392 169.688 41.5045 168.184L45.5045 167.576C45.8458 168.941 46.5445 169.997 47.6005 170.744C48.6672 171.491 49.8938 171.864 51.2805 171.864C52.1018 171.864 52.8752 171.736 53.6005 171.48C54.3258 171.224 54.9125 170.851 55.3605 170.36C55.8192 169.869 56.0485 169.267 56.0485 168.552C56.0485 168.232 55.9952 167.939 55.8885 167.672C55.7818 167.395 55.6218 167.149 55.4085 166.936C55.2058 166.723 54.9392 166.531 54.6085 166.36C54.2885 166.179 53.9152 166.024 53.4885 165.896L47.5365 164.136C47.0245 163.987 46.4698 163.789 45.8725 163.544C45.2858 163.288 44.7258 162.941 44.1925 162.504C43.6698 162.056 43.2378 161.491 42.8965 160.808C42.5658 160.115 42.4005 159.261 42.4005 158.248C42.4005 156.765 42.7738 155.523 43.5205 154.52C44.2778 153.507 45.2912 152.749 46.5605 152.248C47.8405 151.747 49.2592 151.501 50.8165 151.512C52.3952 151.523 53.8032 151.795 55.0405 152.328C56.2778 152.851 57.3125 153.613 58.1445 154.616C58.9765 155.619 59.5632 156.829 59.9045 158.248L55.7605 158.968C55.5898 158.157 55.2592 157.469 54.7685 156.904C54.2885 156.328 53.6965 155.891 52.9925 155.592C52.2992 155.293 51.5578 155.133 50.7685 155.112C50.0005 155.101 49.2858 155.219 48.6245 155.464C47.9738 155.699 47.4458 156.04 47.0405 156.488C46.6458 156.936 46.4485 157.459 46.4485 158.056C46.4485 158.621 46.6192 159.085 46.9605 159.448C47.3018 159.8 47.7232 160.083 48.2245 160.296C48.7365 160.499 49.2538 160.669 49.7765 160.808L53.9045 161.96C54.4698 162.109 55.1045 162.312 55.8085 162.568C56.5125 162.824 57.1898 163.181 57.8405 163.64C58.4912 164.099 59.0245 164.701 59.4405 165.448C59.8672 166.195 60.0805 167.144 60.0805 168.296C60.0805 169.491 59.8298 170.541 59.3285 171.448C58.8378 172.344 58.1712 173.091 57.3285 173.688C56.4858 174.285 55.5205 174.733 54.4325 175.032C53.3552 175.331 52.2245 175.48 51.0405 175.48ZM74.1038 175.48C72.2691 175.48 70.6531 175.107 69.2558 174.36C67.8691 173.613 66.7811 172.563 65.9918 171.208C65.2131 169.853 64.8237 168.264 64.8237 166.44V151.992L68.7277 151.96V166.344C68.7277 167.208 68.8717 167.981 69.1597 168.664C69.4584 169.347 69.8584 169.928 70.3598 170.408C70.8611 170.877 71.4371 171.235 72.0878 171.48C72.7384 171.725 73.4104 171.848 74.1038 171.848C74.8184 171.848 75.4958 171.725 76.1358 171.48C76.7864 171.224 77.3624 170.861 77.8638 170.392C78.3651 169.912 78.7598 169.331 79.0478 168.648C79.3357 167.965 79.4797 167.197 79.4797 166.344V151.96H83.3838V166.44C83.3838 168.264 82.9891 169.853 82.1998 171.208C81.4211 172.563 80.3331 173.613 78.9358 174.36C77.5491 175.107 75.9384 175.48 74.1038 175.48ZM89.135 175V151.96H98.655C98.879 151.96 99.167 151.971 99.519 151.992C99.871 152.003 100.196 152.035 100.495 152.088C101.828 152.291 102.927 152.733 103.791 153.416C104.666 154.099 105.311 154.963 105.727 156.008C106.154 157.043 106.367 158.195 106.367 159.464C106.367 160.723 106.154 161.875 105.727 162.92C105.3 163.955 104.65 164.813 103.775 165.496C102.911 166.179 101.818 166.621 100.495 166.824C100.196 166.867 99.8657 166.899 99.503 166.92C99.151 166.941 98.8683 166.952 98.655 166.952H92.991V175H89.135ZM92.991 163.352H98.495C98.7083 163.352 98.9483 163.341 99.215 163.32C99.4817 163.299 99.727 163.256 99.951 163.192C100.591 163.032 101.092 162.749 101.455 162.344C101.828 161.939 102.09 161.48 102.239 160.968C102.399 160.456 102.479 159.955 102.479 159.464C102.479 158.973 102.399 158.472 102.239 157.96C102.09 157.437 101.828 156.973 101.455 156.568C101.092 156.163 100.591 155.88 99.951 155.72C99.727 155.656 99.4817 155.619 99.215 155.608C98.9483 155.587 98.7083 155.576 98.495 155.576H92.991V163.352ZM110.852 175V151.96H125.732V155.576H114.708V161.256H123.812V164.872H114.708V171.384H125.732V175H110.852ZM130.851 175V151.96H140.371C140.595 151.96 140.883 151.971 141.235 151.992C141.587 152.003 141.913 152.035 142.211 152.088C143.545 152.291 144.643 152.733 145.507 153.416C146.382 154.099 147.027 154.963 147.443 156.008C147.87 157.043 148.083 158.195 148.083 159.464C148.083 161.341 147.609 162.957 146.659 164.312C145.71 165.656 144.254 166.488 142.291 166.808L140.643 166.952H134.707V175H130.851ZM144.083 175L139.539 165.624L143.459 164.76L148.451 175H144.083ZM134.707 163.352H140.211C140.425 163.352 140.665 163.341 140.931 163.32C141.198 163.299 141.443 163.256 141.667 163.192C142.307 163.032 142.809 162.749 143.171 162.344C143.545 161.939 143.806 161.48 143.955 160.968C144.115 160.456 144.195 159.955 144.195 159.464C144.195 158.973 144.115 158.472 143.955 157.96C143.806 157.437 143.545 156.973 143.171 156.568C142.809 156.163 142.307 155.88 141.667 155.72C141.443 155.656 141.198 155.619 140.931 155.608C140.665 155.587 140.425 155.576 140.211 155.576H134.707V163.352ZM153.576 175V151.96H157.432V171.384H167.608V175H153.576ZM169.999 175L177.263 151.96H182.911L190.175 175H186.207L179.615 154.328H180.479L173.967 175H169.999ZM174.047 170.008V166.408H186.143V170.008H174.047ZM197.977 175V155.576H190.521V151.96H209.289V155.576H201.833V175H197.977ZM213.448 175V151.96H217.304V175H213.448ZM228.56 175L221.296 151.96H225.264L231.344 171.256L237.504 151.96H241.472L234.208 175H228.56ZM245.156 175V151.96H260.036V155.576H249.012V161.256H258.116V164.872H249.012V171.384H260.036V175H245.156ZM273.464 175.48C271.779 175.48 270.259 175.187 268.904 174.6C267.56 174.013 266.451 173.176 265.576 172.088C264.712 170.989 264.163 169.688 263.928 168.184L267.928 167.576C268.27 168.941 268.968 169.997 270.024 170.744C271.091 171.491 272.318 171.864 273.704 171.864C274.526 171.864 275.299 171.736 276.024 171.48C276.75 171.224 277.336 170.851 277.784 170.36C278.243 169.869 278.472 169.267 278.472 168.552C278.472 168.232 278.419 167.939 278.312 167.672C278.206 167.395 278.046 167.149 277.832 166.936C277.63 166.723 277.363 166.531 277.032 166.36C276.712 166.179 276.339 166.024 275.912 165.896L269.96 164.136C269.448 163.987 268.894 163.789 268.296 163.544C267.71 163.288 267.15 162.941 266.616 162.504C266.094 162.056 265.662 161.491 265.32 160.808C264.99 160.115 264.824 159.261 264.824 158.248C264.824 156.765 265.198 155.523 265.944 154.52C266.702 153.507 267.715 152.749 268.984 152.248C270.264 151.747 271.683 151.501 273.24 151.512C274.819 151.523 276.227 151.795 277.464 152.328C278.702 152.851 279.736 153.613 280.568 154.616C281.4 155.619 281.987 156.829 282.328 158.248L278.184 158.968C278.014 158.157 277.683 157.469 277.192 156.904C276.712 156.328 276.12 155.891 275.416 155.592C274.723 155.293 273.982 155.133 273.192 155.112C272.424 155.101 271.71 155.219 271.048 155.464C270.398 155.699 269.87 156.04 269.464 156.488C269.07 156.936 268.872 157.459 268.872 158.056C268.872 158.621 269.043 159.085 269.384 159.448C269.726 159.8 270.147 160.083 270.648 160.296C271.16 160.499 271.678 160.669 272.2 160.808L276.328 161.96C276.894 162.109 277.528 162.312 278.232 162.568C278.936 162.824 279.614 163.181 280.264 163.64C280.915 164.099 281.448 164.701 281.864 165.448C282.291 166.195 282.504 167.144 282.504 168.296C282.504 169.491 282.254 170.541 281.752 171.448C281.262 172.344 280.595 173.091 279.752 173.688C278.91 174.285 277.944 174.733 276.856 175.032C275.779 175.331 274.648 175.48 273.464 175.48Z" fill="white"></path><defs><filter id="filter0_d_951_3148" x="-62.9473" y="-80.1074" width="530.289" height="582.942" filterUnits="userSpaceOnUse" color-interpolation-filters="sRGB"><feFlood flood-opacity="0" result="BackgroundImageFix"></feFlood><feColorMatrix in="SourceAlpha" type="matrix" values="0 0 0 0 0 0 0 0 0 0 0 0 0 0 0 0 0 0 127 0" result="hardAlpha"></feColorMatrix><feOffset dy="8"></feOffset><feGaussianBlur stdDeviation="9"></feGaussianBlur><feComposite in2="hardAlpha" operator="out"></feComposite><feColorMatrix type="matrix" values="0 0 0 0 0 0 0 0 0 0 0 0 0 0 0 0 0 0 0.15 0"></feColorMatrix><feBlend mode="normal" in2="BackgroundImageFix" result="effect1_dropShadow_951_3148"></feBlend><feBlend mode="normal" in="SourceGraphic" in2="effect1_dropShadow_951_3148" result="shape"></feBlend></filter></defs></svg> 