<?xml version="1.0" encoding="UTF-8"?> <svg xmlns="http://www.w3.org/2000/svg" width="325" height="325" viewBox="0 0 325 325" fill="none"><rect width="325" height="325" rx="10" fill="#8CBA51"></rect><mask id="mask0_1213_2739" style="mask-type:alpha" maskUnits="userSpaceOnUse" x="0" y="0" width="325" height="325"><rect width="325" height="325" rx="10" fill="#F794A4"></rect></mask><g mask="url(#mask0_1213_2739)"><g filter="url(#filter0_d_1213_2739)"><path d="M-46.326 28.9667C-65.7699 54.1679 -69.912 87.3943 -71.0239 115.607C-71.406 125.304 -77.2173 184.274 -52.4094 173.162C-39.2085 167.249 -27.8326 155.797 -19.1879 144.864C1.62161 118.546 16.5618 87.1711 27.2132 56.9561C30.4421 47.7967 55.6993 -29.7273 23.9694 -21.5668C11.9062 -18.4642 -0.582838 -7.69813 -8.26999 1.50926C-29.5032 26.9416 -38.5263 60.2613 -38.1677 90.0261C-37.8857 113.433 -30.9391 135.248 -19.5863 154.542C-10.9527 169.214 1.30048 184.633 21.7313 184.113C41.3554 183.614 57.5906 171.418 70.6576 156.865C99.0139 125.284 117.81 85.3171 134.146 48.2622C152.85 5.83422 169.932 -37.3916 176.98 -81.6406" stroke="#A1C770" stroke-width="50" stroke-linecap="round" shape-rendering="crispEdges"></path></g><g filter="url(#filter1_d_1213_2739)"><path d="M351.525 45.1488C307.296 71.574 260.662 141.023 217.521 203.352C192.847 239.001 167.396 275.309 143.961 323.598C128.777 354.885 109.466 398.904 106.408 454.453C99.3301 583.046 146.316 581.017 179.225 539.326C211.218 498.795 241.9 426.247 270.997 362.463C287.456 326.386 303.619 289.417 319.51 250.508C322.528 243.118 342.287 191.781 326.431 216.351C308.942 243.452 292.305 316.714 288.346 369.621C283.57 433.437 303.599 481.609 316.348 509.775C332.592 545.665 352.129 562.779 373.856 569.08" stroke="#A1C770" stroke-width="50" stroke-linecap="round" shape-rendering="crispEdges"></path></g></g><path d="M102.68 175.48C100.845 175.48 99.2293 175.107 97.832 174.36C96.4453 173.613 95.3573 172.563 94.568 171.208C93.7893 169.853 93.4 168.264 93.4 166.44V151.992L97.304 151.96V166.344C97.304 167.208 97.448 167.981 97.736 168.664C98.0347 169.347 98.4347 169.928 98.936 170.408C99.4373 170.877 100.013 171.235 100.664 171.48C101.315 171.725 101.987 171.848 102.68 171.848C103.395 171.848 104.072 171.725 104.712 171.48C105.363 171.224 105.939 170.861 106.44 170.392C106.941 169.912 107.336 169.331 107.624 168.648C107.912 167.965 108.056 167.197 108.056 166.344V151.96H111.96V166.44C111.96 168.264 111.565 169.853 110.776 171.208C109.997 172.563 108.909 173.613 107.512 174.36C106.125 175.107 104.515 175.48 102.68 175.48ZM125.271 175.48C123.585 175.48 122.065 175.187 120.711 174.6C119.367 174.013 118.257 173.176 117.383 172.088C116.519 170.989 115.969 169.688 115.735 168.184L119.735 167.576C120.076 168.941 120.775 169.997 121.831 170.744C122.897 171.491 124.124 171.864 125.511 171.864C126.332 171.864 127.105 171.736 127.831 171.48C128.556 171.224 129.143 170.851 129.591 170.36C130.049 169.869 130.279 169.267 130.279 168.552C130.279 168.232 130.225 167.939 130.119 167.672C130.012 167.395 129.852 167.149 129.639 166.936C129.436 166.723 129.169 166.531 128.839 166.36C128.519 166.179 128.145 166.024 127.719 165.896L121.767 164.136C121.255 163.987 120.7 163.789 120.103 163.544C119.516 163.288 118.956 162.941 118.423 162.504C117.9 162.056 117.468 161.491 117.127 160.808C116.796 160.115 116.631 159.261 116.631 158.248C116.631 156.765 117.004 155.523 117.751 154.52C118.508 153.507 119.521 152.749 120.791 152.248C122.071 151.747 123.489 151.501 125.047 151.512C126.625 151.523 128.033 151.795 129.271 152.328C130.508 152.851 131.543 153.613 132.375 154.616C133.207 155.619 133.793 156.829 134.135 158.248L129.991 158.968C129.82 158.157 129.489 157.469 128.999 156.904C128.519 156.328 127.927 155.891 127.223 155.592C126.529 155.293 125.788 155.133 124.999 155.112C124.231 155.101 123.516 155.219 122.855 155.464C122.204 155.699 121.676 156.04 121.271 156.488C120.876 156.936 120.679 157.459 120.679 158.056C120.679 158.621 120.849 159.085 121.191 159.448C121.532 159.8 121.953 160.083 122.455 160.296C122.967 160.499 123.484 160.669 124.007 160.808L128.135 161.96C128.7 162.109 129.335 162.312 130.039 162.568C130.743 162.824 131.42 163.181 132.071 163.64C132.721 164.099 133.255 164.701 133.671 165.448C134.097 166.195 134.311 167.144 134.311 168.296C134.311 169.491 134.06 170.541 133.559 171.448C133.068 172.344 132.401 173.091 131.559 173.688C130.716 174.285 129.751 174.733 128.663 175.032C127.585 175.331 126.455 175.48 125.271 175.48ZM139.054 175V151.96H153.934V155.576H142.91V161.256H152.014V164.872H142.91V171.384H153.934V175H139.054ZM159.053 175V151.96H166.397C166.589 151.96 166.967 151.965 167.533 151.976C168.109 151.987 168.663 152.024 169.197 152.088C171.021 152.323 172.562 152.973 173.821 154.04C175.09 155.096 176.05 156.445 176.701 158.088C177.351 159.731 177.677 161.528 177.677 163.48C177.677 165.432 177.351 167.229 176.701 168.872C176.05 170.515 175.09 171.869 173.821 172.936C172.562 173.992 171.021 174.637 169.197 174.872C168.674 174.936 168.125 174.973 167.549 174.984C166.973 174.995 166.589 175 166.397 175H159.053ZM162.973 171.368H166.397C166.717 171.368 167.122 171.357 167.613 171.336C168.114 171.315 168.557 171.267 168.941 171.192C170.029 170.989 170.914 170.504 171.597 169.736C172.279 168.968 172.781 168.035 173.101 166.936C173.431 165.837 173.597 164.685 173.597 163.48C173.597 162.232 173.431 161.059 173.101 159.96C172.77 158.861 172.258 157.939 171.565 157.192C170.882 156.445 170.007 155.971 168.941 155.768C168.557 155.683 168.114 155.635 167.613 155.624C167.122 155.603 166.717 155.592 166.397 155.592H162.973V171.368ZM195.961 175V155.576H188.505V151.96H207.273V155.576H199.817V175H195.961ZM220.855 175.48C218.551 175.48 216.578 174.979 214.935 173.976C213.293 172.963 212.029 171.555 211.143 169.752C210.269 167.949 209.831 165.859 209.831 163.48C209.831 161.101 210.269 159.011 211.143 157.208C212.029 155.405 213.293 154.003 214.935 153C216.578 151.987 218.551 151.48 220.855 151.48C223.159 151.48 225.133 151.987 226.775 153C228.429 154.003 229.693 155.405 230.567 157.208C231.453 159.011 231.895 161.101 231.895 163.48C231.895 165.859 231.453 167.949 230.567 169.752C229.693 171.555 228.429 172.963 226.775 173.976C225.133 174.979 223.159 175.48 220.855 175.48ZM220.855 171.848C222.402 171.859 223.687 171.517 224.711 170.824C225.746 170.131 226.519 169.155 227.031 167.896C227.554 166.637 227.815 165.165 227.815 163.48C227.815 161.795 227.554 160.333 227.031 159.096C226.519 157.848 225.746 156.877 224.711 156.184C223.687 155.491 222.402 155.133 220.855 155.112C219.309 155.101 218.023 155.443 216.999 156.136C215.975 156.829 215.202 157.805 214.679 159.064C214.167 160.323 213.911 161.795 213.911 163.48C213.911 165.165 214.167 166.632 214.679 167.88C215.191 169.117 215.959 170.083 216.983 170.776C218.018 171.469 219.309 171.827 220.855 171.848Z" fill="white"></path><defs><filter id="filter0_d_1213_2739" x="-114.867" y="-116.645" width="334.852" height="351.771" filterUnits="userSpaceOnUse" color-interpolation-filters="sRGB"><feFlood flood-opacity="0" result="BackgroundImageFix"></feFlood><feColorMatrix in="SourceAlpha" type="matrix" values="0 0 0 0 0 0 0 0 0 0 0 0 0 0 0 0 0 0 127 0" result="hardAlpha"></feColorMatrix><feOffset dy="8"></feOffset><feGaussianBlur stdDeviation="9"></feGaussianBlur><feComposite in2="hardAlpha" operator="out"></feComposite><feColorMatrix type="matrix" values="0 0 0 0 0 0 0 0 0 0 0 0 0 0 0 0 0 0 0.15 0"></feColorMatrix><feBlend mode="normal" in2="BackgroundImageFix" result="effect1_dropShadow_1213_2739"></feBlend><feBlend mode="normal" in="SourceGraphic" in2="effect1_dropShadow_1213_2739" result="shape"></feBlend></filter><filter id="filter1_d_1213_2739" x="62.6914" y="10.1445" width="354.172" height="609.941" filterUnits="userSpaceOnUse" color-interpolation-filters="sRGB"><feFlood flood-opacity="0" result="BackgroundImageFix"></feFlood><feColorMatrix in="SourceAlpha" type="matrix" values="0 0 0 0 0 0 0 0 0 0 0 0 0 0 0 0 0 0 127 0" result="hardAlpha"></feColorMatrix><feOffset dy="8"></feOffset><feGaussianBlur stdDeviation="9"></feGaussianBlur><feComposite in2="hardAlpha" operator="out"></feComposite><feColorMatrix type="matrix" values="0 0 0 0 0 0 0 0 0 0 0 0 0 0 0 0 0 0 0.15 0"></feColorMatrix><feBlend mode="normal" in2="BackgroundImageFix" result="effect1_dropShadow_1213_2739"></feBlend><feBlend mode="normal" in="SourceGraphic" in2="effect1_dropShadow_1213_2739" result="shape"></feBlend></filter></defs></svg> 