<?xml version="1.0" encoding="UTF-8"?> <svg xmlns="http://www.w3.org/2000/svg" width="600" height="400" viewBox="0 0 600 400" fill="none"> <rect width="600" height="400" rx="20" fill="url(#paint0_linear_160_83)"></rect> <path d="M68.0908 177V161.16H70.7418V167.826H78.2438V161.16H80.8838V177H78.2438V170.312H70.7418V177H68.0908ZM90.6667 177.33C89.0827 177.33 87.7261 176.985 86.5967 176.296C85.4674 175.599 84.5984 174.631 83.9897 173.392C83.3884 172.153 83.0877 170.715 83.0877 169.08C83.0877 167.445 83.3884 166.007 83.9897 164.768C84.5984 163.529 85.4674 162.564 86.5967 161.875C87.7261 161.178 89.0827 160.83 90.6667 160.83C92.2507 160.83 93.6074 161.178 94.7367 161.875C95.8734 162.564 96.7424 163.529 97.3437 164.768C97.9524 166.007 98.2567 167.445 98.2567 169.08C98.2567 170.715 97.9524 172.153 97.3437 173.392C96.7424 174.631 95.8734 175.599 94.7367 176.296C93.6074 176.985 92.2507 177.33 90.6667 177.33ZM90.6667 174.833C91.7301 174.84 92.6137 174.606 93.3177 174.129C94.0291 173.652 94.5607 172.981 94.9127 172.116C95.2721 171.251 95.4517 170.239 95.4517 169.08C95.4517 167.921 95.2721 166.917 94.9127 166.066C94.5607 165.208 94.0291 164.541 93.3177 164.064C92.6137 163.587 91.7301 163.342 90.6667 163.327C89.6034 163.32 88.7197 163.554 88.0157 164.031C87.3117 164.508 86.7801 165.179 86.4207 166.044C86.0687 166.909 85.8927 167.921 85.8927 169.08C85.8927 170.239 86.0687 171.247 86.4207 172.105C86.7727 172.956 87.3007 173.619 88.0047 174.096C88.7161 174.573 89.6034 174.818 90.6667 174.833ZM103.124 177L98.4932 161.16H101.276L104.433 172.6L107.579 161.182L110.362 161.16L113.519 172.6L116.665 161.16H119.448L114.828 177H112.21L108.965 165.736L105.742 177H103.124ZM128.991 177L124.36 161.16H127.143L130.3 172.6L133.446 161.182L136.229 161.16L139.386 172.6L142.532 161.16H145.315L140.695 177H138.077L134.832 165.736L131.609 177H128.991ZM147.11 177V161.16H157.34V163.646H149.761V167.551H156.02V170.037H149.761V174.514H157.34V177H147.11ZM160.199 177V161.16H162.85V174.514H169.846V177H160.199ZM171.93 177V161.16H174.581V174.514H181.577V177H171.93ZM186.749 177V161.16H191.798C191.93 161.16 192.19 161.164 192.579 161.171C192.975 161.178 193.356 161.204 193.723 161.248C194.977 161.409 196.037 161.857 196.902 162.59C197.775 163.316 198.435 164.244 198.882 165.373C199.329 166.502 199.553 167.738 199.553 169.08C199.553 170.422 199.329 171.658 198.882 172.787C198.435 173.916 197.775 174.848 196.902 175.581C196.037 176.307 194.977 176.751 193.723 176.912C193.364 176.956 192.986 176.982 192.59 176.989C192.194 176.996 191.93 177 191.798 177H186.749ZM189.444 174.503H191.798C192.018 174.503 192.297 174.496 192.634 174.481C192.979 174.466 193.283 174.433 193.547 174.382C194.295 174.243 194.904 173.909 195.373 173.381C195.842 172.853 196.187 172.211 196.407 171.456C196.634 170.701 196.748 169.909 196.748 169.08C196.748 168.222 196.634 167.415 196.407 166.66C196.18 165.905 195.828 165.27 195.351 164.757C194.882 164.244 194.28 163.917 193.547 163.778C193.283 163.719 192.979 163.686 192.634 163.679C192.297 163.664 192.018 163.657 191.798 163.657H189.444V174.503ZM208.852 177.33C207.268 177.33 205.912 176.985 204.782 176.296C203.653 175.599 202.784 174.631 202.175 173.392C201.574 172.153 201.273 170.715 201.273 169.08C201.273 167.445 201.574 166.007 202.175 164.768C202.784 163.529 203.653 162.564 204.782 161.875C205.912 161.178 207.268 160.83 208.852 160.83C210.436 160.83 211.793 161.178 212.922 161.875C214.059 162.564 214.928 163.529 215.529 164.768C216.138 166.007 216.442 167.445 216.442 169.08C216.442 170.715 216.138 172.153 215.529 173.392C214.928 174.631 214.059 175.599 212.922 176.296C211.793 176.985 210.436 177.33 208.852 177.33ZM208.852 174.833C209.916 174.84 210.799 174.606 211.503 174.129C212.215 173.652 212.746 172.981 213.098 172.116C213.458 171.251 213.637 170.239 213.637 169.08C213.637 167.921 213.458 166.917 213.098 166.066C212.746 165.208 212.215 164.541 211.503 164.064C210.799 163.587 209.916 163.342 208.852 163.327C207.789 163.32 206.905 163.554 206.201 164.031C205.497 164.508 204.966 165.179 204.606 166.044C204.254 166.909 204.078 167.921 204.078 169.08C204.078 170.239 204.254 171.247 204.606 172.105C204.958 172.956 205.486 173.619 206.19 174.096C206.902 174.573 207.789 174.818 208.852 174.833ZM226.886 177V170.51L221.496 161.16H224.587L228.228 167.474L231.858 161.16H234.949L229.57 170.51V177H226.886ZM242.303 177.33C240.719 177.33 239.363 176.985 238.233 176.296C237.104 175.599 236.235 174.631 235.626 173.392C235.025 172.153 234.724 170.715 234.724 169.08C234.724 167.445 235.025 166.007 235.626 164.768C236.235 163.529 237.104 162.564 238.233 161.875C239.363 161.178 240.719 160.83 242.303 160.83C243.887 160.83 245.244 161.178 246.373 161.875C247.51 162.564 248.379 163.529 248.98 164.768C249.589 166.007 249.893 167.445 249.893 169.08C249.893 170.715 249.589 172.153 248.98 173.392C248.379 174.631 247.51 175.599 246.373 176.296C245.244 176.985 243.887 177.33 242.303 177.33ZM242.303 174.833C243.367 174.84 244.25 174.606 244.954 174.129C245.666 173.652 246.197 172.981 246.549 172.116C246.909 171.251 247.088 170.239 247.088 169.08C247.088 167.921 246.909 166.917 246.549 166.066C246.197 165.208 245.666 164.541 244.954 164.064C244.25 163.587 243.367 163.342 242.303 163.327C241.24 163.32 240.356 163.554 239.652 164.031C238.948 164.508 238.417 165.179 238.057 166.044C237.705 166.909 237.529 167.921 237.529 169.08C237.529 170.239 237.705 171.247 238.057 172.105C238.409 172.956 238.937 173.619 239.641 174.096C240.353 174.573 241.24 174.818 242.303 174.833ZM258.463 177.33C257.202 177.33 256.091 177.073 255.13 176.56C254.177 176.047 253.429 175.324 252.886 174.393C252.351 173.462 252.083 172.369 252.083 171.115V161.182L254.767 161.16V171.049C254.767 171.643 254.866 172.175 255.064 172.644C255.269 173.113 255.544 173.513 255.889 173.843C256.234 174.166 256.63 174.411 257.077 174.58C257.524 174.749 257.986 174.833 258.463 174.833C258.954 174.833 259.42 174.749 259.86 174.58C260.307 174.404 260.703 174.155 261.048 173.832C261.393 173.502 261.664 173.102 261.862 172.633C262.06 172.164 262.159 171.636 262.159 171.049V161.16H264.843V171.115C264.843 172.369 264.572 173.462 264.029 174.393C263.494 175.324 262.746 176.047 261.785 176.56C260.832 177.073 259.724 177.33 258.463 177.33ZM272.321 177V161.16H274.972V168.508L281.297 161.16H284.553L277.744 168.926L285.015 177H281.649L274.972 169.608V177H272.321ZM286.565 177V161.16H289.249L296.597 172.325V161.16H299.281V177H296.597L289.249 165.835V177H286.565ZM309.055 177.33C307.471 177.33 306.115 176.985 304.985 176.296C303.856 175.599 302.987 174.631 302.378 173.392C301.777 172.153 301.476 170.715 301.476 169.08C301.476 167.445 301.777 166.007 302.378 164.768C302.987 163.529 303.856 162.564 304.985 161.875C306.115 161.178 307.471 160.83 309.055 160.83C310.639 160.83 311.996 161.178 313.125 161.875C314.262 162.564 315.131 163.529 315.732 164.768C316.341 166.007 316.645 167.445 316.645 169.08C316.645 170.715 316.341 172.153 315.732 173.392C315.131 174.631 314.262 175.599 313.125 176.296C311.996 176.985 310.639 177.33 309.055 177.33ZM309.055 174.833C310.119 174.84 311.002 174.606 311.706 174.129C312.418 173.652 312.949 172.981 313.301 172.116C313.661 171.251 313.84 170.239 313.84 169.08C313.84 167.921 313.661 166.917 313.301 166.066C312.949 165.208 312.418 164.541 311.706 164.064C311.002 163.587 310.119 163.342 309.055 163.327C307.992 163.32 307.108 163.554 306.404 164.031C305.7 164.508 305.169 165.179 304.809 166.044C304.457 166.909 304.281 167.921 304.281 169.08C304.281 170.239 304.457 171.247 304.809 172.105C305.161 172.956 305.689 173.619 306.393 174.096C307.105 174.573 307.992 174.818 309.055 174.833ZM321.513 177L316.882 161.16H319.665L322.822 172.6L325.968 161.182L328.751 161.16L331.908 172.6L335.054 161.16H337.837L333.217 177H330.599L327.354 165.736L324.131 177H321.513ZM347.886 177V170.51L342.496 161.16H345.587L349.228 167.474L352.858 161.16H355.949L350.57 170.51V177H347.886ZM363.303 177.33C361.719 177.33 360.363 176.985 359.233 176.296C358.104 175.599 357.235 174.631 356.626 173.392C356.025 172.153 355.724 170.715 355.724 169.08C355.724 167.445 356.025 166.007 356.626 164.768C357.235 163.529 358.104 162.564 359.233 161.875C360.363 161.178 361.719 160.83 363.303 160.83C364.887 160.83 366.244 161.178 367.373 161.875C368.51 162.564 369.379 163.529 369.98 164.768C370.589 166.007 370.893 167.445 370.893 169.08C370.893 170.715 370.589 172.153 369.98 173.392C369.379 174.631 368.51 175.599 367.373 176.296C366.244 176.985 364.887 177.33 363.303 177.33ZM363.303 174.833C364.367 174.84 365.25 174.606 365.954 174.129C366.666 173.652 367.197 172.981 367.549 172.116C367.909 171.251 368.088 170.239 368.088 169.08C368.088 167.921 367.909 166.917 367.549 166.066C367.197 165.208 366.666 164.541 365.954 164.064C365.25 163.587 364.367 163.342 363.303 163.327C362.24 163.32 361.356 163.554 360.652 164.031C359.948 164.508 359.417 165.179 359.057 166.044C358.705 166.909 358.529 167.921 358.529 169.08C358.529 170.239 358.705 171.247 359.057 172.105C359.409 172.956 359.937 173.619 360.641 174.096C361.353 174.573 362.24 174.818 363.303 174.833ZM379.463 177.33C378.202 177.33 377.091 177.073 376.13 176.56C375.177 176.047 374.429 175.324 373.886 174.393C373.351 173.462 373.083 172.369 373.083 171.115V161.182L375.767 161.16V171.049C375.767 171.643 375.866 172.175 376.064 172.644C376.269 173.113 376.544 173.513 376.889 173.843C377.234 174.166 377.63 174.411 378.077 174.58C378.524 174.749 378.986 174.833 379.463 174.833C379.954 174.833 380.42 174.749 380.86 174.58C381.307 174.404 381.703 174.155 382.048 173.832C382.393 173.502 382.664 173.102 382.862 172.633C383.06 172.164 383.159 171.636 383.159 171.049V161.16H385.843V171.115C385.843 172.369 385.572 173.462 385.029 174.393C384.494 175.324 383.746 176.047 382.785 176.56C381.832 177.073 380.724 177.33 379.463 177.33ZM388.917 177V161.16H395.462C395.616 161.16 395.814 161.167 396.056 161.182C396.298 161.189 396.522 161.211 396.727 161.248C397.644 161.387 398.399 161.692 398.993 162.161C399.594 162.63 400.038 163.224 400.324 163.943C400.617 164.654 400.764 165.446 400.764 166.319C400.764 167.61 400.438 168.721 399.785 169.652C399.132 170.576 398.131 171.148 396.782 171.368L395.649 171.467H391.568V177H388.917ZM398.014 177L394.89 170.554L397.585 169.96L401.017 177H398.014ZM391.568 168.992H395.352C395.499 168.992 395.664 168.985 395.847 168.97C396.03 168.955 396.199 168.926 396.353 168.882C396.793 168.772 397.138 168.578 397.387 168.299C397.644 168.02 397.823 167.705 397.926 167.353C398.036 167.001 398.091 166.656 398.091 166.319C398.091 165.982 398.036 165.637 397.926 165.285C397.823 164.926 397.644 164.607 397.387 164.328C397.138 164.049 396.793 163.855 396.353 163.745C396.199 163.701 396.03 163.675 395.847 163.668C395.664 163.653 395.499 163.646 395.352 163.646H391.568V168.992ZM406.745 177L411.739 161.16H415.622L420.616 177H417.888L413.356 162.788H413.95L409.473 177H406.745ZM409.528 173.568V171.093H417.844V173.568H409.528ZM422.604 177V161.16H425.288L432.636 172.325V161.16H435.32V177H432.636L425.288 165.835V177H422.604ZM445.094 177.33C443.51 177.33 442.154 176.985 441.024 176.296C439.895 175.599 439.026 174.631 438.417 173.392C437.816 172.153 437.515 170.715 437.515 169.08C437.515 167.445 437.816 166.007 438.417 164.768C439.026 163.529 439.895 162.564 441.024 161.875C442.154 161.178 443.51 160.83 445.094 160.83C446.92 160.83 448.442 161.288 449.659 162.205C450.877 163.114 451.731 164.343 452.222 165.89L449.549 166.627C449.241 165.593 448.717 164.786 447.976 164.207C447.236 163.62 446.275 163.327 445.094 163.327C444.031 163.327 443.144 163.565 442.432 164.042C441.728 164.519 441.197 165.19 440.837 166.055C440.485 166.913 440.306 167.921 440.298 169.08C440.298 170.239 440.474 171.251 440.826 172.116C441.186 172.974 441.721 173.641 442.432 174.118C443.144 174.595 444.031 174.833 445.094 174.833C446.275 174.833 447.236 174.54 447.976 173.953C448.717 173.366 449.241 172.56 449.549 171.533L452.222 172.27C451.731 173.817 450.877 175.049 449.659 175.966C448.442 176.875 446.92 177.33 445.094 177.33ZM454.638 177V161.16H464.868V163.646H457.289V167.551H463.548V170.037H457.289V174.514H464.868V177H454.638ZM473.219 177.33C472.061 177.33 471.016 177.128 470.084 176.725C469.16 176.322 468.398 175.746 467.796 174.998C467.202 174.243 466.825 173.348 466.663 172.314L469.413 171.896C469.648 172.835 470.128 173.561 470.854 174.074C471.588 174.587 472.431 174.844 473.384 174.844C473.949 174.844 474.481 174.756 474.979 174.58C475.478 174.404 475.881 174.147 476.189 173.81C476.505 173.473 476.662 173.058 476.662 172.567C476.662 172.347 476.626 172.145 476.552 171.962C476.479 171.771 476.369 171.603 476.222 171.456C476.083 171.309 475.9 171.177 475.672 171.06C475.452 170.935 475.196 170.829 474.902 170.741L470.81 169.531C470.458 169.428 470.077 169.293 469.666 169.124C469.263 168.948 468.878 168.71 468.511 168.409C468.152 168.101 467.855 167.712 467.62 167.243C467.393 166.766 467.279 166.18 467.279 165.483C467.279 164.464 467.536 163.609 468.049 162.92C468.57 162.223 469.267 161.703 470.139 161.358C471.019 161.013 471.995 160.845 473.065 160.852C474.151 160.859 475.119 161.046 475.969 161.413C476.82 161.772 477.531 162.297 478.103 162.986C478.675 163.675 479.079 164.508 479.313 165.483L476.464 165.978C476.347 165.421 476.12 164.948 475.782 164.559C475.452 164.163 475.045 163.862 474.561 163.657C474.085 163.452 473.575 163.342 473.032 163.327C472.504 163.32 472.013 163.4 471.558 163.569C471.111 163.73 470.748 163.965 470.469 164.273C470.198 164.581 470.062 164.94 470.062 165.351C470.062 165.74 470.18 166.059 470.414 166.308C470.649 166.55 470.939 166.744 471.283 166.891C471.635 167.03 471.991 167.148 472.35 167.243L475.188 168.035C475.577 168.138 476.013 168.277 476.497 168.453C476.981 168.629 477.447 168.875 477.894 169.19C478.342 169.505 478.708 169.92 478.994 170.433C479.288 170.946 479.434 171.599 479.434 172.391C479.434 173.212 479.262 173.935 478.917 174.558C478.58 175.174 478.122 175.687 477.542 176.098C476.963 176.509 476.299 176.817 475.551 177.022C474.811 177.227 474.033 177.33 473.219 177.33ZM485.621 177V163.646H480.495V161.16H493.398V163.646H488.272V177H485.621ZM495.157 177V161.16H501.702C501.856 161.16 502.054 161.167 502.296 161.182C502.538 161.189 502.762 161.211 502.967 161.248C503.884 161.387 504.639 161.692 505.233 162.161C505.835 162.63 506.278 163.224 506.564 163.943C506.858 164.654 507.004 165.446 507.004 166.319C507.004 167.61 506.678 168.721 506.025 169.652C505.373 170.576 504.372 171.148 503.022 171.368L501.889 171.467H497.808V177H495.157ZM504.254 177L501.13 170.554L503.825 169.96L507.257 177H504.254ZM497.808 168.992H501.592C501.739 168.992 501.904 168.985 502.087 168.97C502.271 168.955 502.439 168.926 502.593 168.882C503.033 168.772 503.378 168.578 503.627 168.299C503.884 168.02 504.064 167.705 504.166 167.353C504.276 167.001 504.331 166.656 504.331 166.319C504.331 165.982 504.276 165.637 504.166 165.285C504.064 164.926 503.884 164.607 503.627 164.328C503.378 164.049 503.033 163.855 502.593 163.745C502.439 163.701 502.271 163.675 502.087 163.668C501.904 163.653 501.739 163.646 501.592 163.646H497.808V168.992ZM513.23 177V170.51L507.84 161.16H510.931L514.572 167.474L518.202 161.16H521.293L515.914 170.51V177H513.23ZM525.7 172.699C525.7 172.193 525.748 171.705 525.843 171.236C525.946 170.759 526.111 170.319 526.338 169.916C526.536 169.527 526.756 169.219 526.998 168.992C527.24 168.757 527.511 168.526 527.812 168.299C528.113 168.064 528.446 167.753 528.813 167.364C529.114 167.034 529.312 166.708 529.407 166.385C529.502 166.055 529.55 165.703 529.55 165.329C529.55 165.087 529.524 164.86 529.473 164.647C529.422 164.434 529.33 164.251 529.198 164.097C528.993 163.826 528.729 163.635 528.406 163.525C528.083 163.408 527.739 163.349 527.372 163.349C527.071 163.349 526.782 163.389 526.503 163.47C526.232 163.543 526.001 163.661 525.81 163.822C525.59 163.998 525.429 164.214 525.326 164.471C525.223 164.728 525.176 165.01 525.183 165.318H522.389C522.462 164.585 522.66 163.906 522.983 163.283C523.313 162.652 523.746 162.15 524.281 161.776C524.699 161.468 525.168 161.237 525.689 161.083C526.217 160.929 526.745 160.852 527.273 160.852C528.08 160.852 528.839 160.977 529.55 161.226C530.269 161.475 530.866 161.886 531.343 162.458C531.673 162.832 531.922 163.265 532.091 163.756C532.267 164.247 532.355 164.746 532.355 165.252C532.355 166.007 532.19 166.697 531.86 167.32C531.537 167.943 531.127 168.519 530.628 169.047C530.393 169.296 530.17 169.516 529.957 169.707C529.744 169.898 529.546 170.085 529.363 170.268C529.187 170.444 529.04 170.631 528.923 170.829C528.718 171.174 528.597 171.467 528.56 171.709C528.523 171.944 528.505 172.274 528.505 172.699H525.7ZM525.722 177V174.085H528.505V177H525.722ZM84.22 208V192.16H86.871V208H84.22ZM96.029 208.33C94.8703 208.33 93.8253 208.128 92.894 207.725C91.97 207.322 91.2073 206.746 90.606 205.998C90.012 205.243 89.6343 204.348 89.473 203.314L92.223 202.896C92.4576 203.835 92.938 204.561 93.664 205.074C94.3973 205.587 95.2406 205.844 96.194 205.844C96.7586 205.844 97.2903 205.756 97.789 205.58C98.2876 205.404 98.691 205.147 98.999 204.81C99.3143 204.473 99.472 204.058 99.472 203.567C99.472 203.347 99.4353 203.145 99.362 202.962C99.2886 202.771 99.1786 202.603 99.032 202.456C98.8926 202.309 98.7093 202.177 98.482 202.06C98.262 201.935 98.0053 201.829 97.712 201.741L93.62 200.531C93.268 200.428 92.8866 200.293 92.476 200.124C92.0726 199.948 91.6876 199.71 91.321 199.409C90.9616 199.101 90.6646 198.712 90.43 198.243C90.2026 197.766 90.089 197.18 90.089 196.483C90.089 195.464 90.3456 194.609 90.859 193.92C91.3796 193.223 92.0763 192.703 92.949 192.358C93.829 192.013 94.8043 191.845 95.875 191.852C96.9603 191.859 97.9283 192.046 98.779 192.413C99.6296 192.772 100.341 193.297 100.913 193.986C101.485 194.675 101.888 195.508 102.123 196.483L99.274 196.978C99.1566 196.421 98.9293 195.948 98.592 195.559C98.262 195.163 97.855 194.862 97.371 194.657C96.8943 194.452 96.3846 194.342 95.842 194.327C95.314 194.32 94.8226 194.4 94.368 194.569C93.9206 194.73 93.5576 194.965 93.279 195.273C93.0076 195.581 92.872 195.94 92.872 196.351C92.872 196.74 92.9893 197.059 93.224 197.308C93.4586 197.55 93.7483 197.744 94.093 197.891C94.445 198.03 94.8006 198.148 95.16 198.243L97.998 199.035C98.3866 199.138 98.823 199.277 99.307 199.453C99.791 199.629 100.257 199.875 100.704 200.19C101.151 200.505 101.518 200.92 101.804 201.433C102.097 201.946 102.244 202.599 102.244 203.391C102.244 204.212 102.072 204.935 101.727 205.558C101.39 206.174 100.931 206.687 100.352 207.098C99.7726 207.509 99.109 207.817 98.361 208.022C97.6203 208.227 96.843 208.33 96.029 208.33ZM109.249 208V192.16H111.9V208H109.249ZM119.001 208V194.646H113.875V192.16H126.778V194.646H121.652V208H119.001ZM132.275 208V192.16H134.959L142.307 203.325V192.16H144.991V208H142.307L134.959 196.835V208H132.275ZM148.066 208V192.16H158.296V194.646H150.717V198.551H156.976V201.037H150.717V205.514H158.296V208H148.066ZM167.076 208.33C165.492 208.33 164.135 207.985 163.006 207.296C161.877 206.599 161.008 205.631 160.399 204.392C159.798 203.153 159.497 201.715 159.497 200.08C159.497 198.445 159.798 197.007 160.399 195.768C161.008 194.529 161.877 193.564 163.006 192.875C164.135 192.178 165.492 191.83 167.076 191.83C168.902 191.83 170.424 192.288 171.641 193.205C172.858 194.114 173.713 195.343 174.204 196.89L171.531 197.627C171.223 196.593 170.699 195.786 169.958 195.207C169.217 194.62 168.257 194.327 167.076 194.327C166.013 194.327 165.125 194.565 164.414 195.042C163.71 195.519 163.178 196.19 162.819 197.055C162.467 197.913 162.287 198.921 162.28 200.08C162.28 201.239 162.456 202.251 162.808 203.116C163.167 203.974 163.703 204.641 164.414 205.118C165.125 205.595 166.013 205.833 167.076 205.833C168.257 205.833 169.217 205.54 169.958 204.953C170.699 204.366 171.223 203.56 171.531 202.533L174.204 203.27C173.713 204.817 172.858 206.049 171.641 206.966C170.424 207.875 168.902 208.33 167.076 208.33ZM176.619 208V192.16H186.849V194.646H179.27V198.551H185.529V201.037H179.27V205.514H186.849V208H176.619ZM195.201 208.33C194.042 208.33 192.997 208.128 192.066 207.725C191.142 207.322 190.379 206.746 189.778 205.998C189.184 205.243 188.806 204.348 188.645 203.314L191.395 202.896C191.63 203.835 192.11 204.561 192.836 205.074C193.569 205.587 194.413 205.844 195.366 205.844C195.931 205.844 196.462 205.756 196.961 205.58C197.46 205.404 197.863 205.147 198.171 204.81C198.486 204.473 198.644 204.058 198.644 203.567C198.644 203.347 198.607 203.145 198.534 202.962C198.461 202.771 198.351 202.603 198.204 202.456C198.065 202.309 197.881 202.177 197.654 202.06C197.434 201.935 197.177 201.829 196.884 201.741L192.792 200.531C192.44 200.428 192.059 200.293 191.648 200.124C191.245 199.948 190.86 199.71 190.493 199.409C190.134 199.101 189.837 198.712 189.602 198.243C189.375 197.766 189.261 197.18 189.261 196.483C189.261 195.464 189.518 194.609 190.031 193.92C190.552 193.223 191.248 192.703 192.121 192.358C193.001 192.013 193.976 191.845 195.047 191.852C196.132 191.859 197.1 192.046 197.951 192.413C198.802 192.772 199.513 193.297 200.085 193.986C200.657 194.675 201.06 195.508 201.295 196.483L198.446 196.978C198.329 196.421 198.101 195.948 197.764 195.559C197.434 195.163 197.027 194.862 196.543 194.657C196.066 194.452 195.557 194.342 195.014 194.327C194.486 194.32 193.995 194.4 193.54 194.569C193.093 194.73 192.73 194.965 192.451 195.273C192.18 195.581 192.044 195.94 192.044 196.351C192.044 196.74 192.161 197.059 192.396 197.308C192.631 197.55 192.92 197.744 193.265 197.891C193.617 198.03 193.973 198.148 194.332 198.243L197.17 199.035C197.559 199.138 197.995 199.277 198.479 199.453C198.963 199.629 199.429 199.875 199.876 200.19C200.323 200.505 200.69 200.92 200.976 201.433C201.269 201.946 201.416 202.599 201.416 203.391C201.416 204.212 201.244 204.935 200.899 205.558C200.562 206.174 200.103 206.687 199.524 207.098C198.945 207.509 198.281 207.817 197.533 208.022C196.792 208.227 196.015 208.33 195.201 208.33ZM209.982 208.33C208.823 208.33 207.778 208.128 206.847 207.725C205.923 207.322 205.16 206.746 204.559 205.998C203.965 205.243 203.587 204.348 203.426 203.314L206.176 202.896C206.411 203.835 206.891 204.561 207.617 205.074C208.35 205.587 209.194 205.844 210.147 205.844C210.712 205.844 211.243 205.756 211.742 205.58C212.241 205.404 212.644 205.147 212.952 204.81C213.267 204.473 213.425 204.058 213.425 203.567C213.425 203.347 213.388 203.145 213.315 202.962C213.242 202.771 213.132 202.603 212.985 202.456C212.846 202.309 212.662 202.177 212.435 202.06C212.215 201.935 211.958 201.829 211.665 201.741L207.573 200.531C207.221 200.428 206.84 200.293 206.429 200.124C206.026 199.948 205.641 199.71 205.274 199.409C204.915 199.101 204.618 198.712 204.383 198.243C204.156 197.766 204.042 197.18 204.042 196.483C204.042 195.464 204.299 194.609 204.812 193.92C205.333 193.223 206.029 192.703 206.902 192.358C207.782 192.013 208.757 191.845 209.828 191.852C210.913 191.859 211.881 192.046 212.732 192.413C213.583 192.772 214.294 193.297 214.866 193.986C215.438 194.675 215.841 195.508 216.076 196.483L213.227 196.978C213.11 196.421 212.882 195.948 212.545 195.559C212.215 195.163 211.808 194.862 211.324 194.657C210.847 194.452 210.338 194.342 209.795 194.327C209.267 194.32 208.776 194.4 208.321 194.569C207.874 194.73 207.511 194.965 207.232 195.273C206.961 195.581 206.825 195.94 206.825 196.351C206.825 196.74 206.942 197.059 207.177 197.308C207.412 197.55 207.701 197.744 208.046 197.891C208.398 198.03 208.754 198.148 209.113 198.243L211.951 199.035C212.34 199.138 212.776 199.277 213.26 199.453C213.744 199.629 214.21 199.875 214.657 200.19C215.104 200.505 215.471 200.92 215.757 201.433C216.05 201.946 216.197 202.599 216.197 203.391C216.197 204.212 216.025 204.935 215.68 205.558C215.343 206.174 214.884 206.687 214.305 207.098C213.726 207.509 213.062 207.817 212.314 208.022C211.573 208.227 210.796 208.33 209.982 208.33ZM217.478 208L222.472 192.16H226.355L231.349 208H228.621L224.089 193.788H224.683L220.206 208H217.478ZM220.261 204.568V202.093H228.577V204.568H220.261ZM233.338 208V192.16H239.883C240.037 192.16 240.235 192.167 240.477 192.182C240.719 192.189 240.943 192.211 241.148 192.248C242.065 192.387 242.82 192.692 243.414 193.161C244.015 193.63 244.459 194.224 244.745 194.943C245.038 195.654 245.185 196.446 245.185 197.319C245.185 198.61 244.859 199.721 244.206 200.652C243.553 201.576 242.552 202.148 241.203 202.368L240.07 202.467H235.989V208H233.338ZM242.435 208L239.311 201.554L242.006 200.96L245.438 208H242.435ZM235.989 199.992H239.773C239.92 199.992 240.085 199.985 240.268 199.97C240.451 199.955 240.62 199.926 240.774 199.882C241.214 199.772 241.559 199.578 241.808 199.299C242.065 199.02 242.244 198.705 242.347 198.353C242.457 198.001 242.512 197.656 242.512 197.319C242.512 196.982 242.457 196.637 242.347 196.285C242.244 195.926 242.065 195.607 241.808 195.328C241.559 195.049 241.214 194.855 240.774 194.745C240.62 194.701 240.451 194.675 240.268 194.668C240.085 194.653 239.92 194.646 239.773 194.646H235.989V199.992ZM251.411 208V201.51L246.021 192.16H249.112L252.753 198.474L256.383 192.16H259.474L254.095 201.51V208H251.411ZM268.339 208V194.646H263.213V192.16H276.116V194.646H270.99V208H268.339ZM284.574 208.33C282.99 208.33 281.633 207.985 280.504 207.296C279.375 206.599 278.506 205.631 277.897 204.392C277.296 203.153 276.995 201.715 276.995 200.08C276.995 198.445 277.296 197.007 277.897 195.768C278.506 194.529 279.375 193.564 280.504 192.875C281.633 192.178 282.99 191.83 284.574 191.83C286.158 191.83 287.515 192.178 288.644 192.875C289.781 193.564 290.65 194.529 291.251 195.768C291.86 197.007 292.164 198.445 292.164 200.08C292.164 201.715 291.86 203.153 291.251 204.392C290.65 205.631 289.781 206.599 288.644 207.296C287.515 207.985 286.158 208.33 284.574 208.33ZM284.574 205.833C285.637 205.84 286.521 205.606 287.225 205.129C287.936 204.652 288.468 203.981 288.82 203.116C289.179 202.251 289.359 201.239 289.359 200.08C289.359 198.921 289.179 197.917 288.82 197.066C288.468 196.208 287.936 195.541 287.225 195.064C286.521 194.587 285.637 194.342 284.574 194.327C283.511 194.32 282.627 194.554 281.923 195.031C281.219 195.508 280.687 196.179 280.328 197.044C279.976 197.909 279.8 198.921 279.8 200.08C279.8 201.239 279.976 202.247 280.328 203.105C280.68 203.956 281.208 204.619 281.912 205.096C282.623 205.573 283.511 205.818 284.574 205.833ZM298.758 208V192.16H301.409V199.508L307.734 192.16H310.99L304.181 199.926L311.452 208H308.086L301.409 200.608V208H298.758ZM313.002 208V192.16H315.686L323.034 203.325V192.16H325.718V208H323.034L315.686 196.835V208H313.002ZM335.492 208.33C333.908 208.33 332.551 207.985 331.422 207.296C330.293 206.599 329.424 205.631 328.815 204.392C328.214 203.153 327.913 201.715 327.913 200.08C327.913 198.445 328.214 197.007 328.815 195.768C329.424 194.529 330.293 193.564 331.422 192.875C332.551 192.178 333.908 191.83 335.492 191.83C337.076 191.83 338.433 192.178 339.562 192.875C340.699 193.564 341.568 194.529 342.169 195.768C342.778 197.007 343.082 198.445 343.082 200.08C343.082 201.715 342.778 203.153 342.169 204.392C341.568 205.631 340.699 206.599 339.562 207.296C338.433 207.985 337.076 208.33 335.492 208.33ZM335.492 205.833C336.555 205.84 337.439 205.606 338.143 205.129C338.854 204.652 339.386 203.981 339.738 203.116C340.097 202.251 340.277 201.239 340.277 200.08C340.277 198.921 340.097 197.917 339.738 197.066C339.386 196.208 338.854 195.541 338.143 195.064C337.439 194.587 336.555 194.342 335.492 194.327C334.429 194.32 333.545 194.554 332.841 195.031C332.137 195.508 331.605 196.179 331.246 197.044C330.894 197.909 330.718 198.921 330.718 200.08C330.718 201.239 330.894 202.247 331.246 203.105C331.598 203.956 332.126 204.619 332.83 205.096C333.541 205.573 334.429 205.818 335.492 205.833ZM347.949 208L343.318 192.16H346.101L349.258 203.6L352.404 192.182L355.187 192.16L358.344 203.6L361.49 192.16H364.273L359.653 208H357.035L353.79 196.736L350.567 208H347.949ZM374.279 208V194.646H369.153V192.16H382.056V194.646H376.93V208H374.279ZM383.814 208V192.16H386.465V198.826H393.967V192.16H396.607V208H393.967V201.312H386.465V208H383.814ZM399.691 208V192.16H409.921V194.646H402.342V198.551H408.601V201.037H402.342V205.514H409.921V208H399.691ZM416.965 208V192.16H422.014C422.146 192.16 422.406 192.164 422.795 192.171C423.191 192.178 423.572 192.204 423.939 192.248C425.193 192.409 426.252 192.857 427.118 193.59C427.99 194.316 428.65 195.244 429.098 196.373C429.545 197.502 429.769 198.738 429.769 200.08C429.769 201.422 429.545 202.658 429.098 203.787C428.65 204.916 427.99 205.848 427.118 206.581C426.252 207.307 425.193 207.751 423.939 207.912C423.579 207.956 423.202 207.982 422.806 207.989C422.41 207.996 422.146 208 422.014 208H416.965ZM419.66 205.503H422.014C422.234 205.503 422.512 205.496 422.85 205.481C423.194 205.466 423.499 205.433 423.763 205.382C424.511 205.243 425.119 204.909 425.589 204.381C426.058 203.853 426.403 203.211 426.623 202.456C426.85 201.701 426.964 200.909 426.964 200.08C426.964 199.222 426.85 198.415 426.623 197.66C426.395 196.905 426.043 196.27 425.567 195.757C425.097 195.244 424.496 194.917 423.763 194.778C423.499 194.719 423.194 194.686 422.85 194.679C422.512 194.664 422.234 194.657 422.014 194.657H419.66V205.503ZM432.369 208V192.16H442.599V194.646H435.02V198.551H441.279V201.037H435.02V205.514H442.599V208H432.369ZM449.044 208V194.646H443.918V192.16H456.821V194.646H451.695V208H449.044ZM457.05 208L462.044 192.16H465.927L470.921 208H468.193L463.661 193.788H464.255L459.778 208H457.05ZM459.833 204.568V202.093H468.149V204.568H459.833ZM473.13 208V192.16H475.781V208H473.13ZM479.296 208V192.16H481.947V205.514H488.943V208H479.296ZM490.807 208V192.16H501.037V194.646H493.458V198.551H499.717V201.037H493.458V205.514H501.037V208H490.807ZM503.676 208V192.16H508.725C508.857 192.16 509.117 192.164 509.506 192.171C509.902 192.178 510.283 192.204 510.65 192.248C511.904 192.409 512.963 192.857 513.829 193.59C514.701 194.316 515.361 195.244 515.809 196.373C516.256 197.502 516.48 198.738 516.48 200.08C516.48 201.422 516.256 202.658 515.809 203.787C515.361 204.916 514.701 205.848 513.829 206.581C512.963 207.307 511.904 207.751 510.65 207.912C510.29 207.956 509.913 207.982 509.517 207.989C509.121 207.996 508.857 208 508.725 208H503.676ZM506.371 205.503H508.725C508.945 205.503 509.223 205.496 509.561 205.481C509.905 205.466 510.21 205.433 510.474 205.382C511.222 205.243 511.83 204.909 512.3 204.381C512.769 203.853 513.114 203.211 513.334 202.456C513.561 201.701 513.675 200.909 513.675 200.08C513.675 199.222 513.561 198.415 513.334 197.66C513.106 196.905 512.754 196.27 512.278 195.757C511.808 195.244 511.207 194.917 510.474 194.778C510.21 194.719 509.905 194.686 509.561 194.679C509.223 194.664 508.945 194.657 508.725 194.657H506.371V205.503ZM170.238 239V223.16H172.889V229.826H180.391V223.16H183.031V239H180.391V232.312H172.889V239H170.238ZM186.335 239V223.16H188.986V239H186.335ZM198.144 239.33C196.986 239.33 195.941 239.128 195.009 238.725C194.085 238.322 193.323 237.746 192.721 236.998C192.127 236.243 191.75 235.348 191.588 234.314L194.338 233.896C194.573 234.835 195.053 235.561 195.779 236.074C196.513 236.587 197.356 236.844 198.309 236.844C198.874 236.844 199.406 236.756 199.904 236.58C200.403 236.404 200.806 236.147 201.114 235.81C201.43 235.473 201.587 235.058 201.587 234.567C201.587 234.347 201.551 234.145 201.477 233.962C201.404 233.771 201.294 233.603 201.147 233.456C201.008 233.309 200.825 233.177 200.597 233.06C200.377 232.935 200.121 232.829 199.827 232.741L195.735 231.531C195.383 231.428 195.002 231.293 194.591 231.124C194.188 230.948 193.803 230.71 193.436 230.409C193.077 230.101 192.78 229.712 192.545 229.243C192.318 228.766 192.204 228.18 192.204 227.483C192.204 226.464 192.461 225.609 192.974 224.92C193.495 224.223 194.192 223.703 195.064 223.358C195.944 223.013 196.92 222.845 197.99 222.852C199.076 222.859 200.044 223.046 200.894 223.413C201.745 223.772 202.456 224.297 203.028 224.986C203.6 225.675 204.004 226.508 204.238 227.483L201.389 227.978C201.272 227.421 201.045 226.948 200.707 226.559C200.377 226.163 199.97 225.862 199.486 225.657C199.01 225.452 198.5 225.342 197.957 225.327C197.429 225.32 196.938 225.4 196.483 225.569C196.036 225.73 195.673 225.965 195.394 226.273C195.123 226.581 194.987 226.94 194.987 227.351C194.987 227.74 195.105 228.059 195.339 228.308C195.574 228.55 195.864 228.744 196.208 228.891C196.56 229.03 196.916 229.148 197.275 229.243L200.113 230.035C200.502 230.138 200.938 230.277 201.422 230.453C201.906 230.629 202.372 230.875 202.819 231.19C203.267 231.505 203.633 231.92 203.919 232.433C204.213 232.946 204.359 233.599 204.359 234.391C204.359 235.212 204.187 235.935 203.842 236.558C203.505 237.174 203.047 237.687 202.467 238.098C201.888 238.509 201.224 238.817 200.476 239.022C199.736 239.227 198.958 239.33 198.144 239.33ZM210.546 239V225.646H205.42V223.16H218.323V225.646H213.197V239H210.546ZM226.781 239.33C225.197 239.33 223.84 238.985 222.711 238.296C221.582 237.599 220.713 236.631 220.104 235.392C219.503 234.153 219.202 232.715 219.202 231.08C219.202 229.445 219.503 228.007 220.104 226.768C220.713 225.529 221.582 224.564 222.711 223.875C223.84 223.178 225.197 222.83 226.781 222.83C228.365 222.83 229.722 223.178 230.851 223.875C231.988 224.564 232.857 225.529 233.458 226.768C234.067 228.007 234.371 229.445 234.371 231.08C234.371 232.715 234.067 234.153 233.458 235.392C232.857 236.631 231.988 237.599 230.851 238.296C229.722 238.985 228.365 239.33 226.781 239.33ZM226.781 236.833C227.844 236.84 228.728 236.606 229.432 236.129C230.143 235.652 230.675 234.981 231.027 234.116C231.386 233.251 231.566 232.239 231.566 231.08C231.566 229.921 231.386 228.917 231.027 228.066C230.675 227.208 230.143 226.541 229.432 226.064C228.728 225.587 227.844 225.342 226.781 225.327C225.718 225.32 224.834 225.554 224.13 226.031C223.426 226.508 222.894 227.179 222.535 228.044C222.183 228.909 222.007 229.921 222.007 231.08C222.007 232.239 222.183 233.247 222.535 234.105C222.887 234.956 223.415 235.619 224.119 236.096C224.83 236.573 225.718 236.818 226.781 236.833ZM236.561 239V223.16H243.106C243.26 223.16 243.458 223.167 243.7 223.182C243.942 223.189 244.165 223.211 244.371 223.248C245.287 223.387 246.043 223.692 246.637 224.161C247.238 224.63 247.682 225.224 247.968 225.943C248.261 226.654 248.408 227.446 248.408 228.319C248.408 229.61 248.081 230.721 247.429 231.652C246.776 232.576 245.775 233.148 244.426 233.368L243.293 233.467H239.212V239H236.561ZM245.658 239L242.534 232.554L245.229 231.96L248.661 239H245.658ZM239.212 230.992H242.996C243.142 230.992 243.307 230.985 243.491 230.97C243.674 230.955 243.843 230.926 243.997 230.882C244.437 230.772 244.781 230.578 245.031 230.299C245.287 230.02 245.467 229.705 245.57 229.353C245.68 229.001 245.735 228.656 245.735 228.319C245.735 227.982 245.68 227.637 245.57 227.285C245.467 226.926 245.287 226.607 245.031 226.328C244.781 226.049 244.437 225.855 243.997 225.745C243.843 225.701 243.674 225.675 243.491 225.668C243.307 225.653 243.142 225.646 242.996 225.646H239.212V230.992ZM254.633 239V232.51L249.243 223.16H252.334L255.975 229.474L259.605 223.16H262.696L257.317 232.51V239H254.633ZM274.455 239.33C272.871 239.33 271.514 238.985 270.385 238.296C269.255 237.599 268.386 236.631 267.778 235.392C267.176 234.153 266.876 232.715 266.876 231.08C266.876 229.445 267.176 228.007 267.778 226.768C268.386 225.529 269.255 224.564 270.385 223.875C271.514 223.178 272.871 222.83 274.455 222.83C276.039 222.83 277.395 223.178 278.525 223.875C279.661 224.564 280.53 225.529 281.132 226.768C281.74 228.007 282.045 229.445 282.045 231.08C282.045 232.715 281.74 234.153 281.132 235.392C280.53 236.631 279.661 237.599 278.525 238.296C277.395 238.985 276.039 239.33 274.455 239.33ZM274.455 236.833C275.518 236.84 276.402 236.606 277.106 236.129C277.817 235.652 278.349 234.981 278.701 234.116C279.06 233.251 279.24 232.239 279.24 231.08C279.24 229.921 279.06 228.917 278.701 228.066C278.349 227.208 277.817 226.541 277.106 226.064C276.402 225.587 275.518 225.342 274.455 225.327C273.391 225.32 272.508 225.554 271.804 226.031C271.1 226.508 270.568 227.179 270.209 228.044C269.857 228.909 269.681 229.921 269.681 231.08C269.681 232.239 269.857 233.247 270.209 234.105C270.561 234.956 271.089 235.619 271.793 236.096C272.504 236.573 273.391 236.818 274.455 236.833ZM284.234 239V223.16H293.771V225.811H286.885V229.76H292.451V232.4H286.885V239H284.234ZM303.96 239V225.646H298.834V223.16H311.737V225.646H306.611V239H303.96ZM313.496 239V223.16H316.147V229.826H323.649V223.16H326.289V239H323.649V232.312H316.147V239H313.496ZM329.373 239V223.16H339.603V225.646H332.024V229.551H338.283V232.037H332.024V236.514H339.603V239H329.373ZM346.646 239V223.16H356.183V225.811H349.297V229.76H354.863V232.4H349.297V239H346.646ZM356.847 239L361.841 223.16H365.724L370.718 239H367.99L363.458 224.788H364.052L359.575 239H356.847ZM359.63 235.568V233.093H367.946V235.568H359.63ZM372.707 239V223.16H375.094L380.572 234.38L386.05 223.16H388.437V239H385.962V228.847L381.1 239H380.044L375.193 228.847V239H372.707ZM391.747 239V223.16H394.398V239H391.747ZM397.913 239V223.16H400.564V236.514H407.56V239H397.913ZM411.082 239V232.51L405.692 223.16H408.783L412.424 229.474L416.054 223.16H419.145L413.766 232.51V239H411.082ZM423.553 234.699C423.553 234.193 423.6 233.705 423.696 233.236C423.798 232.759 423.963 232.319 424.191 231.916C424.389 231.527 424.609 231.219 424.851 230.992C425.093 230.757 425.364 230.526 425.665 230.299C425.965 230.064 426.299 229.753 426.666 229.364C426.966 229.034 427.164 228.708 427.26 228.385C427.355 228.055 427.403 227.703 427.403 227.329C427.403 227.087 427.377 226.86 427.326 226.647C427.274 226.434 427.183 226.251 427.051 226.097C426.845 225.826 426.581 225.635 426.259 225.525C425.936 225.408 425.591 225.349 425.225 225.349C424.924 225.349 424.634 225.389 424.356 225.47C424.084 225.543 423.853 225.661 423.663 225.822C423.443 225.998 423.281 226.214 423.179 226.471C423.076 226.728 423.028 227.01 423.036 227.318H420.242C420.315 226.585 420.513 225.906 420.836 225.283C421.166 224.652 421.598 224.15 422.134 223.776C422.552 223.468 423.021 223.237 423.542 223.083C424.07 222.929 424.598 222.852 425.126 222.852C425.932 222.852 426.691 222.977 427.403 223.226C428.121 223.475 428.719 223.886 429.196 224.458C429.526 224.832 429.775 225.265 429.944 225.756C430.12 226.247 430.208 226.746 430.208 227.252C430.208 228.007 430.043 228.697 429.713 229.32C429.39 229.943 428.979 230.519 428.481 231.047C428.246 231.296 428.022 231.516 427.81 231.707C427.597 231.898 427.399 232.085 427.216 232.268C427.04 232.444 426.893 232.631 426.776 232.829C426.57 233.174 426.449 233.467 426.413 233.709C426.376 233.944 426.358 234.274 426.358 234.699H423.553ZM423.575 239V236.085H426.358V239H423.575Z" fill="white"></path> <rect x="20" y="20" width="76" height="40" rx="20" fill="white" fill-opacity="0.3"></rect> <path d="M33.2606 46V34.48H39.9806V35.904H34.6846V39.528H39.0206V40.952H34.6846V46H33.2606ZM40.4606 46L44.3166 34.48H46.3006L50.1566 46H48.6766L45.0686 35.312H45.5166L41.9406 46H40.4606ZM42.3166 43.304V41.968H48.3006V43.304H42.3166ZM51.5888 46V34.48H52.8848L57.2368 43.656L61.5648 34.48H62.8768V45.992H61.5248V37.608L57.6128 46H56.8528L52.9408 37.608V46H51.5888ZM65.28 46V34.48H66.704V46H65.28ZM69.2644 46V34.48H70.6884V44.648H76.0324V46H69.2644ZM78.5519 46V41.208L74.6719 34.48H76.3279L79.2719 39.576L82.2079 34.48H83.8639L79.9919 41.208V46H78.5519Z" fill="white"></path> <defs> <linearGradient id="paint0_linear_160_83" x1="300" y1="0" x2="300" y2="400" gradientUnits="userSpaceOnUse"> <stop stop-color="#FF758C"></stop> <stop offset="1" stop-color="#FF7EB3"></stop> </linearGradient> </defs> </svg> 