<?xml version="1.0" encoding="UTF-8"?> <svg xmlns="http://www.w3.org/2000/svg" width="600" height="400" viewBox="0 0 600 400" fill="none"> <rect width="600" height="400" rx="20" fill="url(#paint0_linear_120_281)"></rect> <path d="M76.2285 193V177.16H81.2775C81.4095 177.16 81.6698 177.164 82.0585 177.171C82.4545 177.178 82.8358 177.204 83.2025 177.248C84.4565 177.409 85.5161 177.857 86.3815 178.59C87.2541 179.316 87.9141 180.244 88.3615 181.373C88.8088 182.502 89.0325 183.738 89.0325 185.08C89.0325 186.422 88.8088 187.658 88.3615 188.787C87.9141 189.916 87.2541 190.848 86.3815 191.581C85.5161 192.307 84.4565 192.751 83.2025 192.912C82.8431 192.956 82.4655 192.982 82.0695 192.989C81.6735 192.996 81.4095 193 81.2775 193H76.2285ZM78.9235 190.503H81.2775C81.4975 190.503 81.7761 190.496 82.1135 190.481C82.4581 190.466 82.7625 190.433 83.0265 190.382C83.7745 190.243 84.3831 189.909 84.8525 189.381C85.3218 188.853 85.6665 188.211 85.8865 187.456C86.1138 186.701 86.2275 185.909 86.2275 185.08C86.2275 184.222 86.1138 183.415 85.8865 182.66C85.6591 181.905 85.3071 181.27 84.8305 180.757C84.3611 180.244 83.7598 179.917 83.0265 179.778C82.7625 179.719 82.4581 179.686 82.1135 179.679C81.7761 179.664 81.4975 179.657 81.2775 179.657H78.9235V190.503ZM98.3318 193.33C96.7478 193.33 95.3911 192.985 94.2618 192.296C93.1324 191.599 92.2634 190.631 91.6548 189.392C91.0534 188.153 90.7528 186.715 90.7528 185.08C90.7528 183.445 91.0534 182.007 91.6548 180.768C92.2634 179.529 93.1324 178.564 94.2618 177.875C95.3911 177.178 96.7478 176.83 98.3318 176.83C99.9158 176.83 101.272 177.178 102.402 177.875C103.538 178.564 104.407 179.529 105.009 180.768C105.617 182.007 105.922 183.445 105.922 185.08C105.922 186.715 105.617 188.153 105.009 189.392C104.407 190.631 103.538 191.599 102.402 192.296C101.272 192.985 99.9158 193.33 98.3318 193.33ZM98.3318 190.833C99.3951 190.84 100.279 190.606 100.983 190.129C101.694 189.652 102.226 188.981 102.578 188.116C102.937 187.251 103.117 186.239 103.117 185.08C103.117 183.921 102.937 182.917 102.578 182.066C102.226 181.208 101.694 180.541 100.983 180.064C100.279 179.587 99.3951 179.342 98.3318 179.327C97.2684 179.32 96.3848 179.554 95.6808 180.031C94.9768 180.508 94.4451 181.179 94.0858 182.044C93.7338 182.909 93.5578 183.921 93.5578 185.08C93.5578 186.239 93.7338 187.247 94.0858 188.105C94.4378 188.956 94.9658 189.619 95.6698 190.096C96.3811 190.573 97.2684 190.818 98.3318 190.833ZM111.416 193L116.41 177.16H120.293L125.287 193H122.559L118.027 178.788H118.621L114.144 193H111.416ZM114.199 189.568V187.093H122.515V189.568H114.199ZM127.275 193V177.16H132.324C132.456 177.16 132.717 177.164 133.105 177.171C133.501 177.178 133.883 177.204 134.249 177.248C135.503 177.409 136.563 177.857 137.428 178.59C138.301 179.316 138.961 180.244 139.408 181.373C139.856 182.502 140.079 183.738 140.079 185.08C140.079 186.422 139.856 187.658 139.408 188.787C138.961 189.916 138.301 190.848 137.428 191.581C136.563 192.307 135.503 192.751 134.249 192.912C133.89 192.956 133.512 192.982 133.116 192.989C132.72 192.996 132.456 193 132.324 193H127.275ZM129.97 190.503H132.324C132.544 190.503 132.823 190.496 133.16 190.481C133.505 190.466 133.809 190.433 134.073 190.382C134.821 190.243 135.43 189.909 135.899 189.381C136.369 188.853 136.713 188.211 136.933 187.456C137.161 186.701 137.274 185.909 137.274 185.08C137.274 184.222 137.161 183.415 136.933 182.66C136.706 181.905 136.354 181.27 135.877 180.757C135.408 180.244 134.807 179.917 134.073 179.778C133.809 179.719 133.505 179.686 133.16 179.679C132.823 179.664 132.544 179.657 132.324 179.657H129.97V190.503ZM149.06 193.33C147.798 193.33 146.687 193.073 145.727 192.56C144.773 192.047 144.025 191.324 143.483 190.393C142.947 189.462 142.68 188.369 142.68 187.115V177.182L145.364 177.16V187.049C145.364 187.643 145.463 188.175 145.661 188.644C145.866 189.113 146.141 189.513 146.486 189.843C146.83 190.166 147.226 190.411 147.674 190.58C148.121 190.749 148.583 190.833 149.06 190.833C149.551 190.833 150.017 190.749 150.457 190.58C150.904 190.404 151.3 190.155 151.645 189.832C151.989 189.502 152.261 189.102 152.459 188.633C152.657 188.164 152.756 187.636 152.756 187.049V177.16H155.44V187.115C155.44 188.369 155.168 189.462 154.626 190.393C154.09 191.324 153.342 192.047 152.382 192.56C151.428 193.073 150.321 193.33 149.06 193.33ZM158.734 193V177.16H161.385V190.514H168.381V193H158.734ZM171.859 193V179.646H166.733V177.16H179.636V179.646H174.51V193H171.859ZM191.832 193.33C190.248 193.33 188.891 192.985 187.762 192.296C186.632 191.599 185.763 190.631 185.155 189.392C184.553 188.153 184.253 186.715 184.253 185.08C184.253 183.445 184.553 182.007 185.155 180.768C185.763 179.529 186.632 178.564 187.762 177.875C188.891 177.178 190.248 176.83 191.832 176.83C193.658 176.83 195.179 177.288 196.397 178.205C197.614 179.114 198.468 180.343 198.96 181.89L196.287 182.627C195.979 181.593 195.454 180.786 194.714 180.207C193.973 179.62 193.012 179.327 191.832 179.327C190.768 179.327 189.881 179.565 189.17 180.042C188.466 180.519 187.934 181.19 187.575 182.055C187.223 182.913 187.043 183.921 187.036 185.08C187.036 186.239 187.212 187.251 187.564 188.116C187.923 188.974 188.458 189.641 189.17 190.118C189.881 190.595 190.768 190.833 191.832 190.833C193.012 190.833 193.973 190.54 194.714 189.953C195.454 189.366 195.979 188.56 196.287 187.533L198.96 188.27C198.468 189.817 197.614 191.049 196.397 191.966C195.179 192.875 193.658 193.33 191.832 193.33ZM201.375 193V177.16H204.026V183.826H211.528V177.16H214.168V193H211.528V186.312H204.026V193H201.375ZM217.472 193V177.16H220.123V193H217.472ZM223.638 193V177.16H226.289V190.514H233.285V193H223.638ZM235.148 193V177.16H240.197C240.329 177.16 240.59 177.164 240.978 177.171C241.374 177.178 241.756 177.204 242.122 177.248C243.376 177.409 244.436 177.857 245.301 178.59C246.174 179.316 246.834 180.244 247.281 181.373C247.729 182.502 247.952 183.738 247.952 185.08C247.952 186.422 247.729 187.658 247.281 188.787C246.834 189.916 246.174 190.848 245.301 191.581C244.436 192.307 243.376 192.751 242.122 192.912C241.763 192.956 241.385 192.982 240.989 192.989C240.593 192.996 240.329 193 240.197 193H235.148ZM237.843 190.503H240.197C240.417 190.503 240.696 190.496 241.033 190.481C241.378 190.466 241.682 190.433 241.946 190.382C242.694 190.243 243.303 189.909 243.772 189.381C244.242 188.853 244.586 188.211 244.806 187.456C245.034 186.701 245.147 185.909 245.147 185.08C245.147 184.222 245.034 183.415 244.806 182.66C244.579 181.905 244.227 181.27 243.75 180.757C243.281 180.244 242.68 179.917 241.946 179.778C241.682 179.719 241.378 179.686 241.033 179.679C240.696 179.664 240.417 179.657 240.197 179.657H237.843V190.503ZM250.553 193V177.16H257.098C257.252 177.16 257.45 177.167 257.692 177.182C257.934 177.189 258.157 177.211 258.363 177.248C259.279 177.387 260.035 177.692 260.629 178.161C261.23 178.63 261.674 179.224 261.96 179.943C262.253 180.654 262.4 181.446 262.4 182.319C262.4 183.61 262.073 184.721 261.421 185.652C260.768 186.576 259.767 187.148 258.418 187.368L257.285 187.467H253.204V193H250.553ZM259.65 193L256.526 186.554L259.221 185.96L262.653 193H259.65ZM253.204 184.992H256.988C257.134 184.992 257.299 184.985 257.483 184.97C257.666 184.955 257.835 184.926 257.989 184.882C258.429 184.772 258.773 184.578 259.023 184.299C259.279 184.02 259.459 183.705 259.562 183.353C259.672 183.001 259.727 182.656 259.727 182.319C259.727 181.982 259.672 181.637 259.562 181.285C259.459 180.926 259.279 180.607 259.023 180.328C258.773 180.049 258.429 179.855 257.989 179.745C257.835 179.701 257.666 179.675 257.483 179.668C257.299 179.653 257.134 179.646 256.988 179.646H253.204V184.992ZM265.076 193V177.16H275.306V179.646H267.727V183.551H273.986V186.037H267.727V190.514H275.306V193H265.076ZM277.945 193V177.16H280.629L287.977 188.325V177.16H290.661V193H287.977L280.629 181.835V193H277.945ZM298.141 193V177.16H300.792V183.826H308.294V177.16H310.934V193H308.294V186.312H300.792V193H298.141ZM312.918 193L317.912 177.16H321.795L326.789 193H324.061L319.529 178.788H320.123L315.646 193H312.918ZM315.701 189.568V187.093H324.017V189.568H315.701ZM330.794 193L325.8 177.16H328.528L332.708 190.426L336.943 177.16H339.671L334.677 193H330.794ZM341.324 193V177.16H351.554V179.646H343.975V183.551H350.234V186.037H343.975V190.514H351.554V193H341.324ZM362.404 193V179.646H357.278V177.16H370.181V179.646H365.055V193H362.404ZM378.638 193.33C377.054 193.33 375.698 192.985 374.568 192.296C373.439 191.599 372.57 190.631 371.961 189.392C371.36 188.153 371.059 186.715 371.059 185.08C371.059 183.445 371.36 182.007 371.961 180.768C372.57 179.529 373.439 178.564 374.568 177.875C375.698 177.178 377.054 176.83 378.638 176.83C380.222 176.83 381.579 177.178 382.708 177.875C383.845 178.564 384.714 179.529 385.315 180.768C385.924 182.007 386.228 183.445 386.228 185.08C386.228 186.715 385.924 188.153 385.315 189.392C384.714 190.631 383.845 191.599 382.708 192.296C381.579 192.985 380.222 193.33 378.638 193.33ZM378.638 190.833C379.702 190.84 380.585 190.606 381.289 190.129C382.001 189.652 382.532 188.981 382.884 188.116C383.244 187.251 383.423 186.239 383.423 185.08C383.423 183.921 383.244 182.917 382.884 182.066C382.532 181.208 382.001 180.541 381.289 180.064C380.585 179.587 379.702 179.342 378.638 179.327C377.575 179.32 376.691 179.554 375.987 180.031C375.283 180.508 374.752 181.179 374.392 182.044C374.04 182.909 373.864 183.921 373.864 185.08C373.864 186.239 374.04 187.247 374.392 188.105C374.744 188.956 375.272 189.619 375.976 190.096C376.688 190.573 377.575 190.818 378.638 190.833ZM392.822 193V177.16H402.359V179.811H395.473V183.76H401.039V186.4H395.473V193H392.822ZM404.558 193V177.16H407.209V193H404.558ZM410.504 193V177.16H413.188L420.536 188.325V177.16H423.22V193H420.536L413.188 181.835V193H410.504ZM425.195 193L430.189 177.16H434.072L439.066 193H436.338L431.806 178.788H432.4L427.923 193H425.195ZM427.978 189.568V187.093H436.294V189.568H427.978ZM441.055 193V177.16H443.739L451.087 188.325V177.16H453.771V193H451.087L443.739 181.835V193H441.055ZM463.545 193.33C461.961 193.33 460.604 192.985 459.475 192.296C458.345 191.599 457.476 190.631 456.868 189.392C456.266 188.153 455.966 186.715 455.966 185.08C455.966 183.445 456.266 182.007 456.868 180.768C457.476 179.529 458.345 178.564 459.475 177.875C460.604 177.178 461.961 176.83 463.545 176.83C465.371 176.83 466.892 177.288 468.11 178.205C469.327 179.114 470.181 180.343 470.673 181.89L468 182.627C467.692 181.593 467.167 180.786 466.427 180.207C465.686 179.62 464.725 179.327 463.545 179.327C462.481 179.327 461.594 179.565 460.883 180.042C460.179 180.519 459.647 181.19 459.288 182.055C458.936 182.913 458.756 183.921 458.749 185.08C458.749 186.239 458.925 187.251 459.277 188.116C459.636 188.974 460.171 189.641 460.883 190.118C461.594 190.595 462.481 190.833 463.545 190.833C464.725 190.833 465.686 190.54 466.427 189.953C467.167 189.366 467.692 188.56 468 187.533L470.673 188.27C470.181 189.817 469.327 191.049 468.11 191.966C466.892 192.875 465.371 193.33 463.545 193.33ZM473.308 193V177.16H475.959V193H473.308ZM478.154 193L483.148 177.16H487.031L492.025 193H489.297L484.765 178.788H485.359L480.882 193H478.154ZM480.937 189.568V187.093H489.253V189.568H480.937ZM494.234 193V177.16H496.885V190.514H503.881V193H494.234ZM505.964 193V177.16H508.615V190.514H515.611V193H505.964ZM519.133 193V186.51L513.743 177.16H516.834L520.475 183.474L524.105 177.16H527.196L521.817 186.51V193H519.133ZM183.554 224V208.16H186.205V214.826H193.707V208.16H196.347V224H193.707V217.312H186.205V224H183.554ZM199.431 224V208.16H209.661V210.646H202.082V214.551H208.341V217.037H202.082V221.514H209.661V224H199.431ZM212.52 224V208.16H215.171V221.514H222.167V224H212.52ZM224.03 224V208.16H230.575C230.729 208.16 230.927 208.167 231.169 208.182C231.411 208.189 231.635 208.211 231.84 208.248C232.757 208.387 233.512 208.692 234.106 209.161C234.708 209.63 235.151 210.224 235.437 210.943C235.731 211.654 235.877 212.446 235.877 213.319C235.877 214.184 235.731 214.976 235.437 215.695C235.144 216.406 234.697 216.997 234.095 217.466C233.501 217.935 232.75 218.24 231.84 218.379C231.635 218.408 231.408 218.43 231.158 218.445C230.916 218.46 230.722 218.467 230.575 218.467H226.681V224H224.03ZM226.681 215.992H230.465C230.612 215.992 230.777 215.985 230.96 215.97C231.144 215.955 231.312 215.926 231.466 215.882C231.906 215.772 232.251 215.578 232.5 215.299C232.757 215.02 232.937 214.705 233.039 214.353C233.149 214.001 233.204 213.656 233.204 213.319C233.204 212.982 233.149 212.637 233.039 212.285C232.937 211.926 232.757 211.607 232.5 211.328C232.251 211.049 231.906 210.855 231.466 210.745C231.312 210.701 231.144 210.675 230.96 210.668C230.777 210.653 230.612 210.646 230.465 210.646H226.681V215.992ZM246.291 224V210.646H241.165V208.16H254.068V210.646H248.942V224H246.291ZM255.827 224V208.16H258.478V214.826H265.98V208.16H268.62V224H265.98V217.312H258.478V224H255.827ZM271.704 224V208.16H281.934V210.646H274.355V214.551H280.614V217.037H274.355V221.514H281.934V224H271.704ZM284.793 224V208.16H287.444V224H284.793ZM290.739 224V208.16H297.284C297.438 208.16 297.636 208.167 297.878 208.182C298.12 208.189 298.344 208.211 298.549 208.248C299.466 208.387 300.221 208.692 300.815 209.161C301.417 209.63 301.86 210.224 302.146 210.943C302.44 211.654 302.586 212.446 302.586 213.319C302.586 214.61 302.26 215.721 301.607 216.652C300.955 217.576 299.954 218.148 298.604 218.368L297.471 218.467H293.39V224H290.739ZM299.836 224L296.712 217.554L299.407 216.96L302.839 224H299.836ZM293.39 215.992H297.174C297.321 215.992 297.486 215.985 297.669 215.97C297.853 215.955 298.021 215.926 298.175 215.882C298.615 215.772 298.96 215.578 299.209 215.299C299.466 215.02 299.646 214.705 299.748 214.353C299.858 214.001 299.913 213.656 299.913 213.319C299.913 212.982 299.858 212.637 299.748 212.285C299.646 211.926 299.466 211.607 299.209 211.328C298.96 211.049 298.615 210.855 298.175 210.745C298.021 210.701 297.853 210.675 297.669 210.668C297.486 210.653 297.321 210.646 297.174 210.646H293.39V215.992ZM309.667 224V208.16H316.212C316.366 208.16 316.564 208.167 316.806 208.182C317.048 208.189 317.272 208.211 317.477 208.248C318.394 208.387 319.149 208.692 319.743 209.161C320.344 209.63 320.788 210.224 321.074 210.943C321.367 211.654 321.514 212.446 321.514 213.319C321.514 214.184 321.367 214.976 321.074 215.695C320.781 216.406 320.333 216.997 319.732 217.466C319.138 217.935 318.386 218.24 317.477 218.379C317.272 218.408 317.044 218.43 316.795 218.445C316.553 218.46 316.359 218.467 316.212 218.467H312.318V224H309.667ZM312.318 215.992H316.102C316.249 215.992 316.414 215.985 316.597 215.97C316.78 215.955 316.949 215.926 317.103 215.882C317.543 215.772 317.888 215.578 318.137 215.299C318.394 215.02 318.573 214.705 318.676 214.353C318.786 214.001 318.841 213.656 318.841 213.319C318.841 212.982 318.786 212.637 318.676 212.285C318.573 211.926 318.394 211.607 318.137 211.328C317.888 211.049 317.543 210.855 317.103 210.745C316.949 210.701 316.78 210.675 316.597 210.668C316.414 210.653 316.249 210.646 316.102 210.646H312.318V215.992ZM321.522 224L326.516 208.16H330.399L335.393 224H332.665L328.133 209.788H328.727L324.25 224H321.522ZM324.305 220.568V218.093H332.621V220.568H324.305ZM337.382 224V208.16H343.927C344.081 208.16 344.279 208.167 344.521 208.182C344.763 208.189 344.986 208.211 345.192 208.248C346.108 208.387 346.864 208.692 347.458 209.161C348.059 209.63 348.503 210.224 348.789 210.943C349.082 211.654 349.229 212.446 349.229 213.319C349.229 214.61 348.902 215.721 348.25 216.652C347.597 217.576 346.596 218.148 345.247 218.368L344.114 218.467H340.033V224H337.382ZM346.479 224L343.355 217.554L346.05 216.96L349.482 224H346.479ZM340.033 215.992H343.817C343.963 215.992 344.128 215.985 344.312 215.97C344.495 215.955 344.664 215.926 344.818 215.882C345.258 215.772 345.602 215.578 345.852 215.299C346.108 215.02 346.288 214.705 346.391 214.353C346.501 214.001 346.556 213.656 346.556 213.319C346.556 212.982 346.501 212.637 346.391 212.285C346.288 211.926 346.108 211.607 345.852 211.328C345.602 211.049 345.258 210.855 344.818 210.745C344.664 210.701 344.495 210.675 344.312 210.668C344.128 210.653 343.963 210.646 343.817 210.646H340.033V215.992ZM351.905 224V208.16H362.135V210.646H354.556V214.551H360.815V217.037H354.556V221.514H362.135V224H351.905ZM364.774 224V208.16H367.458L374.806 219.325V208.16H377.49V224H374.806L367.458 212.835V224H364.774ZM384.371 224V210.646H379.245V208.16H392.148V210.646H387.022V224H384.371ZM399.77 224.33C398.612 224.33 397.567 224.128 396.635 223.725C395.711 223.322 394.949 222.746 394.347 221.998C393.753 221.243 393.376 220.348 393.214 219.314L395.964 218.896C396.199 219.835 396.679 220.561 397.405 221.074C398.139 221.587 398.982 221.844 399.935 221.844C400.5 221.844 401.032 221.756 401.53 221.58C402.029 221.404 402.432 221.147 402.74 220.81C403.056 220.473 403.213 220.058 403.213 219.567C403.213 219.347 403.177 219.145 403.103 218.962C403.03 218.771 402.92 218.603 402.773 218.456C402.634 218.309 402.451 218.177 402.223 218.06C402.003 217.935 401.747 217.829 401.453 217.741L397.361 216.531C397.009 216.428 396.628 216.293 396.217 216.124C395.814 215.948 395.429 215.71 395.062 215.409C394.703 215.101 394.406 214.712 394.171 214.243C393.944 213.766 393.83 213.18 393.83 212.483C393.83 211.464 394.087 210.609 394.6 209.92C395.121 209.223 395.818 208.703 396.69 208.358C397.57 208.013 398.546 207.845 399.616 207.852C400.702 207.859 401.67 208.046 402.52 208.413C403.371 208.772 404.082 209.297 404.654 209.986C405.226 210.675 405.63 211.508 405.864 212.483L403.015 212.978C402.898 212.421 402.671 211.948 402.333 211.559C402.003 211.163 401.596 210.862 401.112 210.657C400.636 210.452 400.126 210.342 399.583 210.327C399.055 210.32 398.564 210.4 398.109 210.569C397.662 210.73 397.299 210.965 397.02 211.273C396.749 211.581 396.613 211.94 396.613 212.351C396.613 212.74 396.731 213.059 396.965 213.308C397.2 213.55 397.49 213.744 397.834 213.891C398.186 214.03 398.542 214.148 398.901 214.243L401.739 215.035C402.128 215.138 402.564 215.277 403.048 215.453C403.532 215.629 403.998 215.875 404.445 216.19C404.893 216.505 405.259 216.92 405.545 217.433C405.839 217.946 405.985 218.599 405.985 219.391C405.985 220.212 405.813 220.935 405.468 221.558C405.131 222.174 404.673 222.687 404.093 223.098C403.514 223.509 402.85 223.817 402.102 224.022C401.362 224.227 400.584 224.33 399.77 224.33ZM411.237 219.699C411.237 219.193 411.285 218.705 411.38 218.236C411.483 217.759 411.648 217.319 411.875 216.916C412.073 216.527 412.293 216.219 412.535 215.992C412.777 215.757 413.049 215.526 413.349 215.299C413.65 215.064 413.984 214.753 414.35 214.364C414.651 214.034 414.849 213.708 414.944 213.385C415.04 213.055 415.087 212.703 415.087 212.329C415.087 212.087 415.062 211.86 415.01 211.647C414.959 211.434 414.867 211.251 414.735 211.097C414.53 210.826 414.266 210.635 413.943 210.525C413.621 210.408 413.276 210.349 412.909 210.349C412.609 210.349 412.319 210.389 412.04 210.47C411.769 210.543 411.538 210.661 411.347 210.822C411.127 210.998 410.966 211.214 410.863 211.471C410.761 211.728 410.713 212.01 410.72 212.318H407.926C408 211.585 408.198 210.906 408.52 210.283C408.85 209.652 409.283 209.15 409.818 208.776C410.236 208.468 410.706 208.237 411.226 208.083C411.754 207.929 412.282 207.852 412.81 207.852C413.617 207.852 414.376 207.977 415.087 208.226C415.806 208.475 416.404 208.886 416.88 209.458C417.21 209.832 417.46 210.265 417.628 210.756C417.804 211.247 417.892 211.746 417.892 212.252C417.892 213.007 417.727 213.697 417.397 214.32C417.075 214.943 416.664 215.519 416.165 216.047C415.931 216.296 415.707 216.516 415.494 216.707C415.282 216.898 415.084 217.085 414.9 217.268C414.724 217.444 414.578 217.631 414.46 217.829C414.255 218.174 414.134 218.467 414.097 218.709C414.061 218.944 414.042 219.274 414.042 219.699H411.237ZM411.259 224V221.085H414.042V224H411.259Z" fill="white"></path> <rect x="20" y="20" width="76" height="40" rx="20" fill="white" fill-opacity="0.3"></rect> <path d="M33.2606 46V34.48H39.9806V35.904H34.6846V39.528H39.0206V40.952H34.6846V46H33.2606ZM40.4606 46L44.3166 34.48H46.3006L50.1566 46H48.6766L45.0686 35.312H45.5166L41.9406 46H40.4606ZM42.3166 43.304V41.968H48.3006V43.304H42.3166ZM51.5888 46V34.48H52.8848L57.2368 43.656L61.5648 34.48H62.8768V45.992H61.5248V37.608L57.6128 46H56.8528L52.9408 37.608V46H51.5888ZM65.28 46V34.48H66.704V46H65.28ZM69.2644 46V34.48H70.6884V44.648H76.0324V46H69.2644ZM78.5519 46V41.208L74.6719 34.48H76.3279L79.2719 39.576L82.2079 34.48H83.8639L79.9919 41.208V46H78.5519Z" fill="white"></path> <defs> <linearGradient id="paint0_linear_120_281" x1="300" y1="0" x2="300" y2="400" gradientUnits="userSpaceOnUse"> <stop stop-color="#FF758C"></stop> <stop offset="1" stop-color="#FF7EB3"></stop> </linearGradient> </defs> </svg> 