<?xml version="1.0" encoding="UTF-8"?> <svg xmlns="http://www.w3.org/2000/svg" width="600" height="400" viewBox="0 0 600 400" fill="none"> <rect width="600" height="400" rx="20" fill="url(#paint0_linear_120_283)"></rect> <path d="M97.7134 177L102.707 161.16H106.59L111.584 177H108.856L104.324 162.788H104.918L100.441 177H97.7134ZM100.496 173.568V171.093H108.812V173.568H100.496ZM113.573 177V161.16H120.118C120.272 161.16 120.47 161.167 120.712 161.182C120.954 161.189 121.178 161.211 121.383 161.248C122.3 161.387 123.055 161.692 123.649 162.161C124.251 162.63 124.694 163.224 124.98 163.943C125.274 164.654 125.42 165.446 125.42 166.319C125.42 167.61 125.094 168.721 124.441 169.652C123.789 170.576 122.788 171.148 121.438 171.368L120.305 171.467H116.224V177H113.573ZM122.67 177L119.546 170.554L122.241 169.96L125.673 177H122.67ZM116.224 168.992H120.008C120.155 168.992 120.32 168.985 120.503 168.97C120.687 168.955 120.855 168.926 121.009 168.882C121.449 168.772 121.794 168.578 122.043 168.299C122.3 168.02 122.48 167.705 122.582 167.353C122.692 167.001 122.747 166.656 122.747 166.319C122.747 165.982 122.692 165.637 122.582 165.285C122.48 164.926 122.3 164.607 122.043 164.328C121.794 164.049 121.449 163.855 121.009 163.745C120.855 163.701 120.687 163.675 120.503 163.668C120.32 163.653 120.155 163.646 120.008 163.646H116.224V168.992ZM128.097 177V161.16H138.327V163.646H130.748V167.551H137.007V170.037H130.748V174.514H138.327V177H128.097ZM152.069 177.33C150.485 177.33 149.128 176.985 147.999 176.296C146.87 175.599 146.001 174.631 145.392 173.392C144.791 172.153 144.49 170.715 144.49 169.08C144.49 167.445 144.791 166.007 145.392 164.768C146.001 163.529 146.87 162.564 147.999 161.875C149.128 161.178 150.485 160.83 152.069 160.83C153.653 160.83 155.01 161.178 156.139 161.875C157.276 162.564 158.145 163.529 158.746 164.768C159.355 166.007 159.659 167.445 159.659 169.08C159.659 170.715 159.355 172.153 158.746 173.392C158.145 174.631 157.276 175.599 156.139 176.296C155.01 176.985 153.653 177.33 152.069 177.33ZM152.069 174.833C153.132 174.84 154.016 174.606 154.72 174.129C155.431 173.652 155.963 172.981 156.315 172.116C156.674 171.251 156.854 170.239 156.854 169.08C156.854 167.921 156.674 166.917 156.315 166.066C155.963 165.208 155.431 164.541 154.72 164.064C154.016 163.587 153.132 163.342 152.069 163.327C151.006 163.32 150.122 163.554 149.418 164.031C148.714 164.508 148.182 165.179 147.823 166.044C147.471 166.909 147.295 167.921 147.295 169.08C147.295 170.239 147.471 171.247 147.823 172.105C148.175 172.956 148.703 173.619 149.407 174.096C150.118 174.573 151.006 174.818 152.069 174.833ZM168.229 177.33C166.967 177.33 165.856 177.073 164.896 176.56C163.942 176.047 163.194 175.324 162.652 174.393C162.116 173.462 161.849 172.369 161.849 171.115V161.182L164.533 161.16V171.049C164.533 171.643 164.632 172.175 164.83 172.644C165.035 173.113 165.31 173.513 165.655 173.843C165.999 174.166 166.395 174.411 166.843 174.58C167.29 174.749 167.752 174.833 168.229 174.833C168.72 174.833 169.186 174.749 169.626 174.58C170.073 174.404 170.469 174.155 170.814 173.832C171.158 173.502 171.43 173.102 171.628 172.633C171.826 172.164 171.925 171.636 171.925 171.049V161.16H174.609V171.115C174.609 172.369 174.337 173.462 173.795 174.393C173.259 175.324 172.511 176.047 171.551 176.56C170.597 177.073 169.49 177.33 168.229 177.33ZM177.683 177V161.16H184.228C184.382 161.16 184.58 161.167 184.822 161.182C185.064 161.189 185.287 161.211 185.493 161.248C186.409 161.387 187.165 161.692 187.759 162.161C188.36 162.63 188.804 163.224 189.09 163.943C189.383 164.654 189.53 165.446 189.53 166.319C189.53 167.61 189.203 168.721 188.551 169.652C187.898 170.576 186.897 171.148 185.548 171.368L184.415 171.467H180.334V177H177.683ZM186.78 177L183.656 170.554L186.351 169.96L189.783 177H186.78ZM180.334 168.992H184.118C184.264 168.992 184.429 168.985 184.613 168.97C184.796 168.955 184.965 168.926 185.119 168.882C185.559 168.772 185.903 168.578 186.153 168.299C186.409 168.02 186.589 167.705 186.692 167.353C186.802 167.001 186.857 166.656 186.857 166.319C186.857 165.982 186.802 165.637 186.692 165.285C186.589 164.926 186.409 164.607 186.153 164.328C185.903 164.049 185.559 163.855 185.119 163.745C184.965 163.701 184.796 163.675 184.613 163.668C184.429 163.653 184.264 163.646 184.118 163.646H180.334V168.992ZM196.61 177V161.16H203.155C203.309 161.16 203.507 161.167 203.749 161.182C203.991 161.189 204.215 161.211 204.42 161.248C205.337 161.387 206.092 161.692 206.686 162.161C207.288 162.63 207.731 163.224 208.017 163.943C208.311 164.654 208.457 165.446 208.457 166.319C208.457 167.184 208.311 167.976 208.017 168.695C207.724 169.406 207.277 169.997 206.675 170.466C206.081 170.935 205.33 171.24 204.42 171.379C204.215 171.408 203.988 171.43 203.738 171.445C203.496 171.46 203.302 171.467 203.155 171.467H199.261V177H196.61ZM199.261 168.992H203.045C203.192 168.992 203.357 168.985 203.54 168.97C203.724 168.955 203.892 168.926 204.046 168.882C204.486 168.772 204.831 168.578 205.08 168.299C205.337 168.02 205.517 167.705 205.619 167.353C205.729 167.001 205.784 166.656 205.784 166.319C205.784 165.982 205.729 165.637 205.619 165.285C205.517 164.926 205.337 164.607 205.08 164.328C204.831 164.049 204.486 163.855 204.046 163.745C203.892 163.701 203.724 163.675 203.54 163.668C203.357 163.653 203.192 163.646 203.045 163.646H199.261V168.992ZM208.465 177L213.459 161.16H217.342L222.336 177H219.608L215.076 162.788H215.67L211.193 177H208.465ZM211.248 173.568V171.093H219.564V173.568H211.248ZM224.325 177V161.16H230.87C231.024 161.16 231.222 161.167 231.464 161.182C231.706 161.189 231.93 161.211 232.135 161.248C233.052 161.387 233.807 161.692 234.401 162.161C235.002 162.63 235.446 163.224 235.732 163.943C236.025 164.654 236.172 165.446 236.172 166.319C236.172 167.61 235.846 168.721 235.193 169.652C234.54 170.576 233.539 171.148 232.19 171.368L231.057 171.467H226.976V177H224.325ZM233.422 177L230.298 170.554L232.993 169.96L236.425 177H233.422ZM226.976 168.992H230.76C230.907 168.992 231.072 168.985 231.255 168.97C231.438 168.955 231.607 168.926 231.761 168.882C232.201 168.772 232.546 168.578 232.795 168.299C233.052 168.02 233.231 167.705 233.334 167.353C233.444 167.001 233.499 166.656 233.499 166.319C233.499 165.982 233.444 165.637 233.334 165.285C233.231 164.926 233.052 164.607 232.795 164.328C232.546 164.049 232.201 163.855 231.761 163.745C231.607 163.701 231.438 163.675 231.255 163.668C231.072 163.653 230.907 163.646 230.76 163.646H226.976V168.992ZM238.849 177V161.16H249.079V163.646H241.5V167.551H247.759V170.037H241.5V174.514H249.079V177H238.849ZM251.718 177V161.16H254.402L261.75 172.325V161.16H264.434V177H261.75L254.402 165.835V177H251.718ZM271.315 177V163.646H266.189V161.16H279.092V163.646H273.966V177H271.315ZM286.714 177.33C285.555 177.33 284.51 177.128 283.579 176.725C282.655 176.322 281.892 175.746 281.291 174.998C280.697 174.243 280.319 173.348 280.158 172.314L282.908 171.896C283.142 172.835 283.623 173.561 284.349 174.074C285.082 174.587 285.925 174.844 286.879 174.844C287.443 174.844 287.975 174.756 288.474 174.58C288.972 174.404 289.376 174.147 289.684 173.81C289.999 173.473 290.157 173.058 290.157 172.567C290.157 172.347 290.12 172.145 290.047 171.962C289.973 171.771 289.863 171.603 289.717 171.456C289.577 171.309 289.394 171.177 289.167 171.06C288.947 170.935 288.69 170.829 288.397 170.741L284.305 169.531C283.953 169.428 283.571 169.293 283.161 169.124C282.757 168.948 282.372 168.71 282.006 168.409C281.646 168.101 281.349 167.712 281.115 167.243C280.887 166.766 280.774 166.18 280.774 165.483C280.774 164.464 281.03 163.609 281.544 162.92C282.064 162.223 282.761 161.703 283.634 161.358C284.514 161.013 285.489 160.845 286.56 160.852C287.645 160.859 288.613 161.046 289.464 161.413C290.314 161.772 291.026 162.297 291.598 162.986C292.17 163.675 292.573 164.508 292.808 165.483L289.959 165.978C289.841 165.421 289.614 164.948 289.277 164.559C288.947 164.163 288.54 163.862 288.056 163.657C287.579 163.452 287.069 163.342 286.527 163.327C285.999 163.32 285.507 163.4 285.053 163.569C284.605 163.73 284.242 163.965 283.964 164.273C283.692 164.581 283.557 164.94 283.557 165.351C283.557 165.74 283.674 166.059 283.909 166.308C284.143 166.55 284.433 166.744 284.778 166.891C285.13 167.03 285.485 167.148 285.845 167.243L288.683 168.035C289.071 168.138 289.508 168.277 289.992 168.453C290.476 168.629 290.941 168.875 291.389 169.19C291.836 169.505 292.203 169.92 292.489 170.433C292.782 170.946 292.929 171.599 292.929 172.391C292.929 173.212 292.756 173.935 292.412 174.558C292.074 175.174 291.616 175.687 291.037 176.098C290.457 176.509 289.794 176.817 289.046 177.022C288.305 177.227 287.528 177.33 286.714 177.33ZM298.614 177L303.608 161.16H307.491L312.485 177H309.757L305.225 162.788H305.819L301.342 177H298.614ZM301.397 173.568V171.093H309.713V173.568H301.397ZM314.474 177V161.16H317.158L324.506 172.325V161.16H327.19V177H324.506L317.158 165.835V177H314.474ZM330.265 177V161.16H335.314C335.446 161.16 335.706 161.164 336.095 161.171C336.491 161.178 336.872 161.204 337.239 161.248C338.493 161.409 339.552 161.857 340.418 162.59C341.29 163.316 341.95 164.244 342.398 165.373C342.845 166.502 343.069 167.738 343.069 169.08C343.069 170.422 342.845 171.658 342.398 172.787C341.95 173.916 341.29 174.848 340.418 175.581C339.552 176.307 338.493 176.751 337.239 176.912C336.879 176.956 336.502 176.982 336.106 176.989C335.71 176.996 335.446 177 335.314 177H330.265ZM332.96 174.503H335.314C335.534 174.503 335.812 174.496 336.15 174.481C336.494 174.466 336.799 174.433 337.063 174.382C337.811 174.243 338.419 173.909 338.889 173.381C339.358 172.853 339.703 172.211 339.923 171.456C340.15 170.701 340.264 169.909 340.264 169.08C340.264 168.222 340.15 167.415 339.923 166.66C339.695 165.905 339.343 165.27 338.867 164.757C338.397 164.244 337.796 163.917 337.063 163.778C336.799 163.719 336.494 163.686 336.15 163.679C335.812 163.664 335.534 163.657 335.314 163.657H332.96V174.503ZM350.073 177V161.16H359.61V163.811H352.724V167.76H358.29V170.4H352.724V177H350.073ZM360.274 177L365.268 161.16H369.151L374.145 177H371.417L366.885 162.788H367.479L363.002 177H360.274ZM363.057 173.568V171.093H371.373V173.568H363.057ZM376.134 177V161.16H378.521L383.999 172.38L389.477 161.16H391.864V177H389.389V166.847L384.527 177H383.471L378.62 166.847V177H376.134ZM395.174 177V161.16H397.825V177H395.174ZM401.34 177V161.16H403.991V174.514H410.987V177H401.34ZM414.509 177V170.51L409.119 161.16H412.21L415.851 167.474L419.481 161.16H422.572L417.193 170.51V177H414.509ZM426.532 177L431.526 161.16H435.409L440.403 177H437.675L433.143 162.788H433.737L429.26 177H426.532ZM429.315 173.568V171.093H437.631V173.568H429.315ZM453.495 177.33C451.911 177.33 450.554 176.985 449.425 176.296C448.296 175.599 447.427 174.631 446.818 173.392C446.217 172.153 445.916 170.715 445.916 169.08C445.916 167.445 446.217 166.007 446.818 164.768C447.427 163.529 448.296 162.564 449.425 161.875C450.554 161.178 451.911 160.83 453.495 160.83C455.321 160.83 456.843 161.288 458.06 162.205C459.277 163.114 460.132 164.343 460.623 165.89L457.95 166.627C457.642 165.593 457.118 164.786 456.377 164.207C455.636 163.62 454.676 163.327 453.495 163.327C452.432 163.327 451.544 163.565 450.833 164.042C450.129 164.519 449.597 165.19 449.238 166.055C448.886 166.913 448.706 167.921 448.699 169.08C448.699 170.239 448.875 171.251 449.227 172.116C449.586 172.974 450.122 173.641 450.833 174.118C451.544 174.595 452.432 174.833 453.495 174.833C454.676 174.833 455.636 174.54 456.377 173.953C457.118 173.366 457.642 172.56 457.95 171.533L460.623 172.27C460.132 173.817 459.277 175.049 458.06 175.966C456.843 176.875 455.321 177.33 453.495 177.33ZM461.508 177L466.502 161.16H470.385L475.379 177H472.651L468.119 162.788H468.713L464.236 177H461.508ZM464.291 173.568V171.093H472.607V173.568H464.291ZM482.801 177.33C481.643 177.33 480.598 177.128 479.666 176.725C478.742 176.322 477.98 175.746 477.378 174.998C476.784 174.243 476.407 173.348 476.245 172.314L478.995 171.896C479.23 172.835 479.71 173.561 480.436 174.074C481.17 174.587 482.013 174.844 482.966 174.844C483.531 174.844 484.063 174.756 484.561 174.58C485.06 174.404 485.463 174.147 485.771 173.81C486.087 173.473 486.244 173.058 486.244 172.567C486.244 172.347 486.208 172.145 486.134 171.962C486.061 171.771 485.951 171.603 485.804 171.456C485.665 171.309 485.482 171.177 485.254 171.06C485.034 170.935 484.778 170.829 484.484 170.741L480.392 169.531C480.04 169.428 479.659 169.293 479.248 169.124C478.845 168.948 478.46 168.71 478.093 168.409C477.734 168.101 477.437 167.712 477.202 167.243C476.975 166.766 476.861 166.18 476.861 165.483C476.861 164.464 477.118 163.609 477.631 162.92C478.152 162.223 478.849 161.703 479.721 161.358C480.601 161.013 481.577 160.845 482.647 160.852C483.733 160.859 484.701 161.046 485.551 161.413C486.402 161.772 487.113 162.297 487.685 162.986C488.257 163.675 488.661 164.508 488.895 165.483L486.046 165.978C485.929 165.421 485.702 164.948 485.364 164.559C485.034 164.163 484.627 163.862 484.143 163.657C483.667 163.452 483.157 163.342 482.614 163.327C482.086 163.32 481.595 163.4 481.14 163.569C480.693 163.73 480.33 163.965 480.051 164.273C479.78 164.581 479.644 164.94 479.644 165.351C479.644 165.74 479.762 166.059 479.996 166.308C480.231 166.55 480.521 166.744 480.865 166.891C481.217 167.03 481.573 167.148 481.932 167.243L484.77 168.035C485.159 168.138 485.595 168.277 486.079 168.453C486.563 168.629 487.029 168.875 487.476 169.19C487.924 169.505 488.29 169.92 488.576 170.433C488.87 170.946 489.016 171.599 489.016 172.391C489.016 173.212 488.844 173.935 488.499 174.558C488.162 175.174 487.704 175.687 487.124 176.098C486.545 176.509 485.881 176.817 485.133 177.022C484.393 177.227 483.615 177.33 482.801 177.33ZM491.397 177V161.16H501.627V163.646H494.048V167.551H500.307V170.037H494.048V174.514H501.627V177H491.397ZM153.604 208V192.16H156.255V208H153.604ZM159.55 208V192.16H162.234L169.582 203.325V192.16H172.266V208H169.582L162.234 196.835V208H159.55ZM179.745 208V192.16H186.29C186.444 192.16 186.642 192.167 186.884 192.182C187.126 192.189 187.35 192.211 187.555 192.248C188.472 192.387 189.227 192.692 189.821 193.161C190.422 193.63 190.866 194.224 191.152 194.943C191.445 195.654 191.592 196.446 191.592 197.319C191.592 198.184 191.445 198.976 191.152 199.695C190.859 200.406 190.411 200.997 189.81 201.466C189.216 201.935 188.464 202.24 187.555 202.379C187.35 202.408 187.122 202.43 186.873 202.445C186.631 202.46 186.437 202.467 186.29 202.467H182.396V208H179.745ZM182.396 199.992H186.18C186.327 199.992 186.492 199.985 186.675 199.97C186.858 199.955 187.027 199.926 187.181 199.882C187.621 199.772 187.966 199.578 188.215 199.299C188.472 199.02 188.651 198.705 188.754 198.353C188.864 198.001 188.919 197.656 188.919 197.319C188.919 196.982 188.864 196.637 188.754 196.285C188.651 195.926 188.472 195.607 188.215 195.328C187.966 195.049 187.621 194.855 187.181 194.745C187.027 194.701 186.858 194.675 186.675 194.668C186.492 194.653 186.327 194.646 186.18 194.646H182.396V199.992ZM200.495 208.33C198.911 208.33 197.554 207.985 196.425 207.296C195.296 206.599 194.427 205.631 193.818 204.392C193.217 203.153 192.916 201.715 192.916 200.08C192.916 198.445 193.217 197.007 193.818 195.768C194.427 194.529 195.296 193.564 196.425 192.875C197.554 192.178 198.911 191.83 200.495 191.83C202.079 191.83 203.436 192.178 204.565 192.875C205.702 193.564 206.571 194.529 207.172 195.768C207.781 197.007 208.085 198.445 208.085 200.08C208.085 201.715 207.781 203.153 207.172 204.392C206.571 205.631 205.702 206.599 204.565 207.296C203.436 207.985 202.079 208.33 200.495 208.33ZM200.495 205.833C201.558 205.84 202.442 205.606 203.146 205.129C203.857 204.652 204.389 203.981 204.741 203.116C205.1 202.251 205.28 201.239 205.28 200.08C205.28 198.921 205.1 197.917 204.741 197.066C204.389 196.208 203.857 195.541 203.146 195.064C202.442 194.587 201.558 194.342 200.495 194.327C199.432 194.32 198.548 194.554 197.844 195.031C197.14 195.508 196.608 196.179 196.249 197.044C195.897 197.909 195.721 198.921 195.721 200.08C195.721 201.239 195.897 202.247 196.249 203.105C196.601 203.956 197.129 204.619 197.833 205.096C198.544 205.573 199.432 205.818 200.495 205.833ZM210.494 208V192.16H213.145V208H210.494ZM216.44 208V192.16H219.124L226.472 203.325V192.16H229.156V208H226.472L219.124 196.835V208H216.44ZM236.037 208V194.646H230.911V192.16H243.814V194.646H238.688V208H236.037ZM256.01 208.33C254.426 208.33 253.07 207.985 251.94 207.296C250.811 206.599 249.942 205.631 249.333 204.392C248.732 203.153 248.431 201.715 248.431 200.08C248.431 198.445 248.732 197.007 249.333 195.768C249.942 194.529 250.811 193.564 251.94 192.875C253.07 192.178 254.426 191.83 256.01 191.83C257.594 191.83 258.951 192.178 260.08 192.875C261.217 193.564 262.086 194.529 262.687 195.768C263.296 197.007 263.6 198.445 263.6 200.08C263.6 201.715 263.296 203.153 262.687 204.392C262.086 205.631 261.217 206.599 260.08 207.296C258.951 207.985 257.594 208.33 256.01 208.33ZM256.01 205.833C257.074 205.84 257.957 205.606 258.661 205.129C259.373 204.652 259.904 203.981 260.256 203.116C260.616 202.251 260.795 201.239 260.795 200.08C260.795 198.921 260.616 197.917 260.256 197.066C259.904 196.208 259.373 195.541 258.661 195.064C257.957 194.587 257.074 194.342 256.01 194.327C254.947 194.32 254.063 194.554 253.359 195.031C252.655 195.508 252.124 196.179 251.764 197.044C251.412 197.909 251.236 198.921 251.236 200.08C251.236 201.239 251.412 202.247 251.764 203.105C252.116 203.956 252.644 204.619 253.348 205.096C254.06 205.573 254.947 205.818 256.01 205.833ZM265.79 208V192.16H268.474L275.822 203.325V192.16H278.506V208H275.822L268.474 196.835V208H265.79ZM285.985 208V192.16H288.636V198.826H296.138V192.16H298.778V208H296.138V201.312H288.636V208H285.985ZM308.561 208.33C306.977 208.33 305.621 207.985 304.491 207.296C303.362 206.599 302.493 205.631 301.884 204.392C301.283 203.153 300.982 201.715 300.982 200.08C300.982 198.445 301.283 197.007 301.884 195.768C302.493 194.529 303.362 193.564 304.491 192.875C305.621 192.178 306.977 191.83 308.561 191.83C310.145 191.83 311.502 192.178 312.631 192.875C313.768 193.564 314.637 194.529 315.238 195.768C315.847 197.007 316.151 198.445 316.151 200.08C316.151 201.715 315.847 203.153 315.238 204.392C314.637 205.631 313.768 206.599 312.631 207.296C311.502 207.985 310.145 208.33 308.561 208.33ZM308.561 205.833C309.625 205.84 310.508 205.606 311.212 205.129C311.924 204.652 312.455 203.981 312.807 203.116C313.167 202.251 313.346 201.239 313.346 200.08C313.346 198.921 313.167 197.917 312.807 197.066C312.455 196.208 311.924 195.541 311.212 195.064C310.508 194.587 309.625 194.342 308.561 194.327C307.498 194.32 306.614 194.554 305.91 195.031C305.206 195.508 304.675 196.179 304.315 197.044C303.963 197.909 303.787 198.921 303.787 200.08C303.787 201.239 303.963 202.247 304.315 203.105C304.667 203.956 305.195 204.619 305.899 205.096C306.611 205.573 307.498 205.818 308.561 205.833ZM321.019 208L316.388 192.16H319.171L322.328 203.6L325.474 192.182L328.257 192.16L331.414 203.6L334.56 192.16H337.343L332.723 208H330.105L326.86 196.736L323.637 208H321.019ZM346.886 208L342.255 192.16H345.038L348.195 203.6L351.341 192.182L354.124 192.16L357.281 203.6L360.427 192.16H363.21L358.59 208H355.972L352.727 196.736L349.504 208H346.886ZM365.005 208V192.16H375.235V194.646H367.656V198.551H373.915V201.037H367.656V205.514H375.235V208H365.005ZM382.278 208V192.16H388.559C389.63 192.16 390.506 192.376 391.188 192.809C391.878 193.234 392.387 193.781 392.717 194.448C393.055 195.115 393.223 195.805 393.223 196.516C393.223 197.389 393.014 198.129 392.596 198.738C392.186 199.347 391.625 199.757 390.913 199.97V199.42C391.911 199.647 392.666 200.12 393.179 200.839C393.7 201.558 393.96 202.375 393.96 203.292C393.96 204.231 393.781 205.052 393.421 205.756C393.062 206.46 392.527 207.01 391.815 207.406C391.111 207.802 390.239 208 389.197 208H382.278ZM384.962 205.503H388.867C389.329 205.503 389.744 205.411 390.11 205.228C390.477 205.037 390.763 204.773 390.968 204.436C391.181 204.091 391.287 203.684 391.287 203.215C391.287 202.79 391.196 202.408 391.012 202.071C390.829 201.734 390.561 201.466 390.209 201.268C389.857 201.063 389.436 200.96 388.944 200.96H384.962V205.503ZM384.962 198.485H388.526C388.908 198.485 389.249 198.412 389.549 198.265C389.85 198.118 390.088 197.902 390.264 197.616C390.44 197.33 390.528 196.978 390.528 196.56C390.528 196.01 390.352 195.552 390 195.185C389.648 194.818 389.157 194.635 388.526 194.635H384.962V198.485ZM402.537 208.33C401.276 208.33 400.165 208.073 399.204 207.56C398.251 207.047 397.503 206.324 396.96 205.393C396.425 204.462 396.157 203.369 396.157 202.115V192.182L398.841 192.16V202.049C398.841 202.643 398.94 203.175 399.138 203.644C399.344 204.113 399.619 204.513 399.963 204.843C400.308 205.166 400.704 205.411 401.151 205.58C401.599 205.749 402.061 205.833 402.537 205.833C403.029 205.833 403.494 205.749 403.934 205.58C404.382 205.404 404.778 205.155 405.122 204.832C405.467 204.502 405.738 204.102 405.936 203.633C406.134 203.164 406.233 202.636 406.233 202.049V192.16H408.917V202.115C408.917 203.369 408.646 204.462 408.103 205.393C407.568 206.324 406.82 207.047 405.859 207.56C404.906 208.073 403.799 208.33 402.537 208.33ZM412.211 208V192.16H414.862V208H412.211ZM418.377 208V192.16H421.028V205.514H428.024V208H418.377ZM429.888 208V192.16H434.937C435.069 192.16 435.329 192.164 435.718 192.171C436.114 192.178 436.495 192.204 436.862 192.248C438.116 192.409 439.175 192.857 440.041 193.59C440.913 194.316 441.573 195.244 442.021 196.373C442.468 197.502 442.692 198.738 442.692 200.08C442.692 201.422 442.468 202.658 442.021 203.787C441.573 204.916 440.913 205.848 440.041 206.581C439.175 207.307 438.116 207.751 436.862 207.912C436.502 207.956 436.125 207.982 435.729 207.989C435.333 207.996 435.069 208 434.937 208H429.888ZM432.583 205.503H434.937C435.157 205.503 435.435 205.496 435.773 205.481C436.117 205.466 436.422 205.433 436.686 205.382C437.434 205.243 438.042 204.909 438.512 204.381C438.981 203.853 439.326 203.211 439.546 202.456C439.773 201.701 439.887 200.909 439.887 200.08C439.887 199.222 439.773 198.415 439.546 197.66C439.318 196.905 438.966 196.27 438.49 195.757C438.02 195.244 437.419 194.917 436.686 194.778C436.422 194.719 436.117 194.686 435.773 194.679C435.435 194.664 435.157 194.657 434.937 194.657H432.583V205.503ZM210.786 239.33C209.202 239.33 207.845 238.985 206.716 238.296C205.587 237.599 204.718 236.631 204.109 235.392C203.508 234.153 203.207 232.715 203.207 231.08C203.207 229.445 203.508 228.007 204.109 226.768C204.718 225.529 205.587 224.564 206.716 223.875C207.845 223.178 209.202 222.83 210.786 222.83C212.37 222.83 213.727 223.178 214.856 223.875C215.993 224.564 216.862 225.529 217.463 226.768C218.072 228.007 218.376 229.445 218.376 231.08C218.376 232.715 218.072 234.153 217.463 235.392C216.862 236.631 215.993 237.599 214.856 238.296C213.727 238.985 212.37 239.33 210.786 239.33ZM210.786 236.833C211.849 236.84 212.733 236.606 213.437 236.129C214.148 235.652 214.68 234.981 215.032 234.116C215.391 233.251 215.571 232.239 215.571 231.08C215.571 229.921 215.391 228.917 215.032 228.066C214.68 227.208 214.148 226.541 213.437 226.064C212.733 225.587 211.849 225.342 210.786 225.327C209.723 225.32 208.839 225.554 208.135 226.031C207.431 226.508 206.899 227.179 206.54 228.044C206.188 228.909 206.012 229.921 206.012 231.08C206.012 232.239 206.188 233.247 206.54 234.105C206.892 234.956 207.42 235.619 208.124 236.096C208.835 236.573 209.723 236.818 210.786 236.833ZM226.945 239.33C225.684 239.33 224.573 239.073 223.612 238.56C222.659 238.047 221.911 237.324 221.368 236.393C220.833 235.462 220.565 234.369 220.565 233.115V223.182L223.249 223.16V233.049C223.249 233.643 223.348 234.175 223.546 234.644C223.752 235.113 224.027 235.513 224.371 235.843C224.716 236.166 225.112 236.411 225.559 236.58C226.007 236.749 226.469 236.833 226.945 236.833C227.437 236.833 227.902 236.749 228.342 236.58C228.79 236.404 229.186 236.155 229.53 235.832C229.875 235.502 230.146 235.102 230.344 234.633C230.542 234.164 230.641 233.636 230.641 233.049V223.16H233.325V233.115C233.325 234.369 233.054 235.462 232.511 236.393C231.976 237.324 231.228 238.047 230.267 238.56C229.314 239.073 228.207 239.33 226.945 239.33ZM236.399 239V223.16H242.944C243.098 223.16 243.296 223.167 243.538 223.182C243.78 223.189 244.004 223.211 244.209 223.248C245.126 223.387 245.881 223.692 246.475 224.161C247.077 224.63 247.52 225.224 247.806 225.943C248.1 226.654 248.246 227.446 248.246 228.319C248.246 229.61 247.92 230.721 247.267 231.652C246.615 232.576 245.614 233.148 244.264 233.368L243.131 233.467H239.05V239H236.399ZM245.496 239L242.372 232.554L245.067 231.96L248.499 239H245.496ZM239.05 230.992H242.834C242.981 230.992 243.146 230.985 243.329 230.97C243.513 230.955 243.681 230.926 243.835 230.882C244.275 230.772 244.62 230.578 244.869 230.299C245.126 230.02 245.306 229.705 245.408 229.353C245.518 229.001 245.573 228.656 245.573 228.319C245.573 227.982 245.518 227.637 245.408 227.285C245.306 226.926 245.126 226.607 244.869 226.328C244.62 226.049 244.275 225.855 243.835 225.745C243.681 225.701 243.513 225.675 243.329 225.668C243.146 225.653 242.981 225.646 242.834 225.646H239.05V230.992ZM262.026 239.33C260.442 239.33 259.085 238.985 257.956 238.296C256.827 237.599 255.958 236.631 255.349 235.392C254.748 234.153 254.447 232.715 254.447 231.08C254.447 229.445 254.748 228.007 255.349 226.768C255.958 225.529 256.827 224.564 257.956 223.875C259.085 223.178 260.442 222.83 262.026 222.83C263.61 222.83 264.967 223.178 266.096 223.875C267.233 224.564 268.102 225.529 268.703 226.768C269.312 228.007 269.616 229.445 269.616 231.08C269.616 232.715 269.312 234.153 268.703 235.392C268.102 236.631 267.233 237.599 266.096 238.296C264.967 238.985 263.61 239.33 262.026 239.33ZM262.026 236.833C263.089 236.84 263.973 236.606 264.677 236.129C265.388 235.652 265.92 234.981 266.272 234.116C266.631 233.251 266.811 232.239 266.811 231.08C266.811 229.921 266.631 228.917 266.272 228.066C265.92 227.208 265.388 226.541 264.677 226.064C263.973 225.587 263.089 225.342 262.026 225.327C260.963 225.32 260.079 225.554 259.375 226.031C258.671 226.508 258.139 227.179 257.78 228.044C257.428 228.909 257.252 229.921 257.252 231.08C257.252 232.239 257.428 233.247 257.78 234.105C258.132 234.956 258.66 235.619 259.364 236.096C260.075 236.573 260.963 236.818 262.026 236.833ZM274.484 239L269.853 223.16H272.636L275.793 234.6L278.939 223.182L281.722 223.16L284.879 234.6L288.025 223.16H290.808L286.188 239H283.57L280.325 227.736L277.102 239H274.484ZM292.603 239V223.16H295.287L302.635 234.325V223.16H305.319V239H302.635L295.287 227.835V239H292.603ZM312.798 239V223.16H322.335V225.811H315.449V229.76H321.015V232.4H315.449V239H312.798ZM322.999 239L327.993 223.16H331.876L336.87 239H334.142L329.61 224.788H330.204L325.727 239H322.999ZM325.782 235.568V233.093H334.098V235.568H325.782ZM338.858 239V223.16H341.245L346.723 234.38L352.201 223.16H354.588V239H352.113V228.847L347.251 239H346.195L341.344 228.847V239H338.858ZM357.899 239V223.16H360.55V239H357.899ZM364.065 239V223.16H366.716V236.514H373.712V239H364.065ZM377.234 239V232.51L371.844 223.16H374.935L378.576 229.474L382.206 223.16H385.297L379.918 232.51V239H377.234ZM389.704 234.699C389.704 234.193 389.752 233.705 389.847 233.236C389.95 232.759 390.115 232.319 390.342 231.916C390.54 231.527 390.76 231.219 391.002 230.992C391.244 230.757 391.515 230.526 391.816 230.299C392.117 230.064 392.45 229.753 392.817 229.364C393.118 229.034 393.316 228.708 393.411 228.385C393.506 228.055 393.554 227.703 393.554 227.329C393.554 227.087 393.528 226.86 393.477 226.647C393.426 226.434 393.334 226.251 393.202 226.097C392.997 225.826 392.733 225.635 392.41 225.525C392.087 225.408 391.743 225.349 391.376 225.349C391.075 225.349 390.786 225.389 390.507 225.47C390.236 225.543 390.005 225.661 389.814 225.822C389.594 225.998 389.433 226.214 389.33 226.471C389.227 226.728 389.18 227.01 389.187 227.318H386.393C386.466 226.585 386.664 225.906 386.987 225.283C387.317 224.652 387.75 224.15 388.285 223.776C388.703 223.468 389.172 223.237 389.693 223.083C390.221 222.929 390.749 222.852 391.277 222.852C392.084 222.852 392.843 222.977 393.554 223.226C394.273 223.475 394.87 223.886 395.347 224.458C395.677 224.832 395.926 225.265 396.095 225.756C396.271 226.247 396.359 226.746 396.359 227.252C396.359 228.007 396.194 228.697 395.864 229.32C395.541 229.943 395.131 230.519 394.632 231.047C394.397 231.296 394.174 231.516 393.961 231.707C393.748 231.898 393.55 232.085 393.367 232.268C393.191 232.444 393.044 232.631 392.927 232.829C392.722 233.174 392.601 233.467 392.564 233.709C392.527 233.944 392.509 234.274 392.509 234.699H389.704ZM389.726 239V236.085H392.509V239H389.726Z" fill="white"></path> <path d="M147.258 355.27C145.968 355.27 144.879 354.985 143.991 354.415C143.103 353.839 142.431 353.044 141.975 352.03C141.519 351.016 141.291 349.846 141.291 348.52C141.291 347.194 141.519 346.024 141.975 345.01C142.431 343.996 143.103 343.204 143.991 342.634C144.879 342.058 145.968 341.77 147.258 341.77C148.764 341.77 149.994 342.157 150.948 342.931C151.902 343.699 152.556 344.731 152.91 346.027L151.56 346.378C151.284 345.352 150.789 344.539 150.075 343.939C149.361 343.339 148.422 343.039 147.258 343.039C146.244 343.039 145.401 343.27 144.729 343.732C144.057 344.194 143.55 344.839 143.208 345.667C142.872 346.489 142.698 347.44 142.686 348.52C142.68 349.6 142.845 350.551 143.181 351.373C143.523 352.195 144.033 352.84 144.711 353.308C145.395 353.77 146.244 354.001 147.258 354.001C148.422 354.001 149.361 353.701 150.075 353.101C150.789 352.495 151.284 351.682 151.56 350.662L152.91 351.013C152.556 352.309 151.902 353.344 150.948 354.118C149.994 354.886 148.764 355.27 147.258 355.27ZM153.644 355L158.108 342.04H159.863L164.327 355H162.95L158.711 342.778H159.233L155.021 355H153.644ZM155.633 351.859V350.617H162.329V351.859H155.633ZM170.101 355.27C169.195 355.27 168.379 355.12 167.653 354.82C166.933 354.514 166.336 354.082 165.862 353.524C165.394 352.966 165.088 352.303 164.944 351.535L166.294 351.31C166.51 352.15 166.966 352.81 167.662 353.29C168.358 353.764 169.189 354.001 170.155 354.001C170.791 354.001 171.361 353.902 171.865 353.704C172.369 353.5 172.765 353.212 173.053 352.84C173.341 352.468 173.485 352.027 173.485 351.517C173.485 351.181 173.425 350.896 173.305 350.662C173.185 350.422 173.026 350.224 172.828 350.068C172.63 349.912 172.414 349.783 172.18 349.681C171.946 349.573 171.718 349.486 171.496 349.42L168.211 348.439C167.815 348.325 167.449 348.181 167.113 348.007C166.777 347.827 166.483 347.614 166.231 347.368C165.985 347.116 165.793 346.822 165.655 346.486C165.517 346.15 165.448 345.766 165.448 345.334C165.448 344.602 165.64 343.969 166.024 343.435C166.408 342.901 166.933 342.49 167.599 342.202C168.265 341.914 169.024 341.773 169.876 341.779C170.74 341.779 171.511 341.932 172.189 342.238C172.873 342.544 173.437 342.982 173.881 343.552C174.325 344.116 174.619 344.785 174.763 345.559L173.377 345.811C173.287 345.247 173.08 344.758 172.756 344.344C172.432 343.93 172.018 343.612 171.514 343.39C171.016 343.162 170.467 343.045 169.867 343.039C169.285 343.039 168.766 343.138 168.31 343.336C167.86 343.528 167.503 343.792 167.239 344.128C166.975 344.464 166.843 344.848 166.843 345.28C166.843 345.718 166.963 346.069 167.203 346.333C167.449 346.597 167.749 346.804 168.103 346.954C168.463 347.104 168.811 347.227 169.147 347.323L171.685 348.07C171.949 348.142 172.258 348.247 172.612 348.385C172.972 348.517 173.32 348.709 173.656 348.961C173.998 349.207 174.28 349.531 174.502 349.933C174.724 350.335 174.835 350.845 174.835 351.463C174.835 352.063 174.715 352.6 174.475 353.074C174.241 353.548 173.908 353.947 173.476 354.271C173.05 354.595 172.549 354.841 171.973 355.009C171.403 355.183 170.779 355.27 170.101 355.27ZM176.693 355V342.04H184.793V343.309H178.016V347.791H183.713V349.06H178.016V353.731H184.793V355H176.693ZM190.742 355V342.04H192.065V355H190.742ZM194.763 355V342.04H196.095L203.232 352.66V342.04H204.564V355H203.232L196.095 344.371V355H194.763ZM210.689 355V342.04H215.693C215.819 342.04 215.96 342.046 216.116 342.058C216.278 342.064 216.44 342.082 216.602 342.112C217.28 342.214 217.853 342.451 218.321 342.823C218.795 343.189 219.152 343.651 219.392 344.209C219.638 344.767 219.761 345.385 219.761 346.063C219.761 346.735 219.638 347.35 219.392 347.908C219.146 348.466 218.786 348.931 218.312 349.303C217.844 349.669 217.274 349.903 216.602 350.005C216.44 350.029 216.278 350.047 216.116 350.059C215.96 350.071 215.819 350.077 215.693 350.077H212.012V355H210.689ZM212.012 348.817H215.657C215.765 348.817 215.891 348.811 216.035 348.799C216.179 348.787 216.32 348.766 216.458 348.736C216.902 348.64 217.265 348.457 217.547 348.187C217.835 347.917 218.048 347.596 218.186 347.224C218.33 346.852 218.402 346.465 218.402 346.063C218.402 345.661 218.33 345.274 218.186 344.902C218.048 344.524 217.835 344.2 217.547 343.93C217.265 343.66 216.902 343.477 216.458 343.381C216.32 343.351 216.179 343.333 216.035 343.327C215.891 343.315 215.765 343.309 215.657 343.309H212.012V348.817ZM226.799 355.27C225.509 355.27 224.42 354.985 223.532 354.415C222.644 353.839 221.972 353.044 221.516 352.03C221.06 351.016 220.832 349.846 220.832 348.52C220.832 347.194 221.06 346.024 221.516 345.01C221.972 343.996 222.644 343.204 223.532 342.634C224.42 342.058 225.509 341.77 226.799 341.77C228.095 341.77 229.184 342.058 230.066 342.634C230.954 343.204 231.626 343.996 232.082 345.01C232.544 346.024 232.775 347.194 232.775 348.52C232.775 349.846 232.544 351.016 232.082 352.03C231.626 353.044 230.954 353.839 230.066 354.415C229.184 354.985 228.095 355.27 226.799 355.27ZM226.799 354.001C227.813 354.001 228.659 353.77 229.337 353.308C230.015 352.846 230.522 352.204 230.858 351.382C231.2 350.554 231.371 349.6 231.371 348.52C231.371 347.44 231.2 346.489 230.858 345.667C230.522 344.845 230.015 344.203 229.337 343.741C228.659 343.279 227.813 343.045 226.799 343.039C225.785 343.039 224.942 343.27 224.27 343.732C223.598 344.194 223.091 344.839 222.749 345.667C222.413 346.489 222.242 347.44 222.236 348.52C222.23 349.6 222.395 350.551 222.731 351.373C223.073 352.189 223.583 352.831 224.261 353.299C224.939 353.761 225.785 353.995 226.799 354.001ZM234.757 355V342.04H236.08V355H234.757ZM238.779 355V342.04H240.111L247.248 352.66V342.04H248.58V355H247.248L240.111 344.371V355H238.779ZM254.548 355V343.309H250.021V342.04H260.398V343.309H255.871V355H254.548ZM264.72 349.897V348.763H270.12V349.897H264.72ZM276.062 355V342.04H277.385V347.881H284.549V342.04H285.863V355H284.549V349.15H277.385V355H276.062ZM287.484 355L291.948 342.04H293.703L298.167 355H296.79L292.551 342.778H293.073L288.861 355H287.484ZM289.473 351.859V350.617H296.169V351.859H289.473ZM299.792 355V342.04H307.892V343.309H301.115V355H299.792ZM308.086 355V353.821C308.416 353.851 308.689 353.839 308.905 353.785C309.121 353.725 309.295 353.593 309.427 353.389C309.565 353.185 309.685 352.882 309.787 352.48C309.889 352.072 309.991 351.541 310.093 350.887C310.207 350.179 310.303 349.474 310.381 348.772C310.465 348.07 310.537 347.359 310.597 346.639C310.663 345.913 310.717 345.169 310.759 344.407C310.801 343.645 310.84 342.856 310.876 342.04H319.057V355H317.734V343.309H312.154C312.112 343.927 312.07 344.56 312.028 345.208C311.992 345.856 311.944 346.519 311.884 347.197C311.83 347.875 311.761 348.574 311.677 349.294C311.599 350.008 311.5 350.746 311.38 351.508C311.284 352.084 311.17 352.618 311.038 353.11C310.912 353.602 310.732 354.016 310.498 354.352C310.27 354.688 309.961 354.919 309.571 355.045C309.187 355.171 308.692 355.156 308.086 355ZM330.401 355H329.087V350.077H324.776L324.317 349.969C323.357 349.783 322.619 349.33 322.103 348.61C321.587 347.89 321.329 347.041 321.329 346.063C321.329 345.385 321.452 344.767 321.698 344.209C321.944 343.651 322.301 343.189 322.769 342.823C323.243 342.451 323.816 342.214 324.488 342.112C324.656 342.082 324.818 342.064 324.974 342.058C325.13 342.046 325.271 342.04 325.397 342.04H330.401V355ZM322.553 355H321.032L323.84 349.24L325.109 349.726L322.553 355ZM329.087 348.817V343.309H325.433C325.331 343.309 325.205 343.315 325.055 343.327C324.911 343.333 324.77 343.351 324.632 343.381C324.188 343.477 323.822 343.66 323.534 343.93C323.252 344.2 323.042 344.524 322.904 344.902C322.766 345.274 322.697 345.661 322.697 346.063C322.697 346.465 322.766 346.852 322.904 347.224C323.042 347.596 323.252 347.917 323.534 348.187C323.822 348.457 324.188 348.64 324.632 348.736C324.77 348.766 324.911 348.787 325.055 348.799C325.205 348.811 325.331 348.817 325.433 348.817H329.087ZM332.324 357.16V353.731C332.828 353.731 333.233 353.605 333.539 353.353C333.845 353.095 334.079 352.753 334.241 352.327C334.403 351.901 334.526 351.424 334.61 350.896C334.694 350.362 334.766 349.822 334.826 349.276C334.91 348.478 334.976 347.707 335.024 346.963C335.078 346.219 335.123 345.448 335.159 344.65C335.201 343.852 335.249 342.979 335.303 342.031L343.295 342.04V353.731H344.222V357.16H342.908V355H333.647V357.16H332.324ZM334.853 353.731H341.972V343.309L336.536 343.3C336.5 344.032 336.464 344.74 336.428 345.424C336.392 346.108 336.35 346.798 336.302 347.494C336.254 348.19 336.191 348.916 336.113 349.672C336.047 350.362 335.969 350.965 335.879 351.481C335.789 351.997 335.663 352.438 335.501 352.804C335.345 353.17 335.129 353.479 334.853 353.731ZM346.198 355V342.04H347.521V347.881H354.685V342.04H355.999V355H354.685V349.15H347.521V355H346.198ZM358.512 355V342.04H359.835V346.963H363.516C363.642 346.963 363.783 346.969 363.939 346.981C364.101 346.987 364.266 347.005 364.434 347.035C365.106 347.137 365.676 347.374 366.144 347.746C366.618 348.112 366.975 348.574 367.215 349.132C367.461 349.69 367.584 350.305 367.584 350.977C367.584 351.655 367.461 352.273 367.215 352.831C366.975 353.389 366.618 353.854 366.144 354.226C365.676 354.592 365.106 354.826 364.434 354.928C364.266 354.952 364.101 354.97 363.939 354.982C363.783 354.994 363.642 355 363.516 355H358.512ZM359.835 353.731H363.48C363.594 353.731 363.723 353.725 363.867 353.713C364.011 353.701 364.152 353.683 364.29 353.659C364.728 353.563 365.091 353.38 365.379 353.11C365.667 352.84 365.88 352.519 366.018 352.147C366.156 351.769 366.225 351.379 366.225 350.977C366.225 350.575 366.156 350.188 366.018 349.816C365.88 349.444 365.667 349.123 365.379 348.853C365.091 348.583 364.728 348.4 364.29 348.304C364.152 348.274 364.011 348.253 363.867 348.241C363.723 348.229 363.594 348.223 363.48 348.223H359.835V353.731ZM368.862 355V342.04H370.185V355H368.862ZM372.689 355V342.04H374.021V352.66L381.158 342.04H382.49V355H381.158V344.371L374.021 355H372.689ZM377.693 340.888C377.267 340.888 376.877 340.783 376.523 340.573C376.175 340.363 375.896 340.084 375.686 339.736C375.476 339.382 375.371 338.992 375.371 338.566H376.469C376.469 338.902 376.589 339.19 376.829 339.43C377.069 339.67 377.357 339.79 377.693 339.79C378.035 339.79 378.323 339.67 378.557 339.43C378.797 339.19 378.917 338.902 378.917 338.566H380.015C380.015 338.992 379.91 339.382 379.7 339.736C379.496 340.084 379.217 340.363 378.863 340.573C378.509 340.783 378.119 340.888 377.693 340.888ZM388.614 355V342.04H398.541V355H397.218V343.309H389.937V355H388.614ZM401.06 355V342.04H406.064C406.19 342.04 406.331 342.046 406.487 342.058C406.649 342.064 406.811 342.082 406.973 342.112C407.651 342.214 408.224 342.451 408.692 342.823C409.166 343.189 409.523 343.651 409.763 344.209C410.009 344.767 410.132 345.385 410.132 346.063C410.132 346.735 410.009 347.35 409.763 347.908C409.517 348.466 409.157 348.931 408.683 349.303C408.215 349.669 407.645 349.903 406.973 350.005C406.811 350.029 406.649 350.047 406.487 350.059C406.331 350.071 406.19 350.077 406.064 350.077H402.383V355H401.06ZM402.383 348.817H406.028C406.136 348.817 406.262 348.811 406.406 348.799C406.55 348.787 406.691 348.766 406.829 348.736C407.273 348.64 407.636 348.457 407.918 348.187C408.206 347.917 408.419 347.596 408.557 347.224C408.701 346.852 408.773 346.465 408.773 346.063C408.773 345.661 408.701 345.274 408.557 344.902C408.419 344.524 408.206 344.2 407.918 343.93C407.636 343.66 407.273 343.477 406.829 343.381C406.691 343.351 406.55 343.333 406.406 343.327C406.262 343.315 406.136 343.309 406.028 343.309H402.383V348.817ZM421.724 355H420.392V344.371L413.255 355H411.923V342.04H413.255V352.66L420.392 342.04H421.724V355ZM424.245 355V342.04H425.46L430.554 352.939L435.621 342.04H436.854V354.991H435.594V344.992L430.977 355H430.122L425.514 344.992V355H424.245ZM439.38 355V342.04H447.48V343.309H440.703V347.791H446.4V349.06H440.703V353.731H447.48V355H439.38ZM449.646 355V342.04H454.65C454.776 342.04 454.917 342.046 455.073 342.058C455.235 342.064 455.397 342.082 455.559 342.112C456.237 342.214 456.81 342.451 457.278 342.823C457.752 343.189 458.109 343.651 458.349 344.209C458.595 344.767 458.718 345.385 458.718 346.063C458.718 346.735 458.595 347.35 458.349 347.908C458.103 348.466 457.743 348.931 457.269 349.303C456.801 349.669 456.231 349.903 455.559 350.005C455.397 350.029 455.235 350.047 455.073 350.059C454.917 350.071 454.776 350.077 454.65 350.077H450.969V355H449.646ZM450.969 348.817H454.614C454.722 348.817 454.848 348.811 454.992 348.799C455.136 348.787 455.277 348.766 455.415 348.736C455.859 348.64 456.222 348.457 456.504 348.187C456.792 347.917 457.005 347.596 457.143 347.224C457.287 346.852 457.359 346.465 457.359 346.063C457.359 345.661 457.287 345.274 457.143 344.902C457.005 344.524 456.792 344.2 456.504 343.93C456.222 343.66 455.859 343.477 455.415 343.381C455.277 343.351 455.136 343.333 454.992 343.327C454.848 343.315 454.722 343.309 454.614 343.309H450.969V348.817Z" fill="white"></path> <rect x="20" y="20" width="76" height="40" rx="20" fill="white" fill-opacity="0.3"></rect> <path d="M33.2606 46V34.48H39.9806V35.904H34.6846V39.528H39.0206V40.952H34.6846V46H33.2606ZM40.4606 46L44.3166 34.48H46.3006L50.1566 46H48.6766L45.0686 35.312H45.5166L41.9406 46H40.4606ZM42.3166 43.304V41.968H48.3006V43.304H42.3166ZM51.5888 46V34.48H52.8848L57.2368 43.656L61.5648 34.48H62.8768V45.992H61.5248V37.608L57.6128 46H56.8528L52.9408 37.608V46H51.5888ZM65.28 46V34.48H66.704V46H65.28ZM69.2644 46V34.48H70.6884V44.648H76.0324V46H69.2644ZM78.5519 46V41.208L74.6719 34.48H76.3279L79.2719 39.576L82.2079 34.48H83.8639L79.9919 41.208V46H78.5519Z" fill="white"></path> <defs> <linearGradient id="paint0_linear_120_283" x1="300" y1="0" x2="300" y2="400" gradientUnits="userSpaceOnUse"> <stop stop-color="#FF758C"></stop> <stop offset="1" stop-color="#FF7EB3"></stop> </linearGradient> </defs> </svg> 