<?xml version="1.0" encoding="UTF-8"?> <svg xmlns="http://www.w3.org/2000/svg" width="600" height="400" viewBox="0 0 600 400" fill="none"> <rect width="600" height="400" rx="20" fill="url(#paint0_linear_121_294)"></rect> <path d="M111.417 193L106.786 177.16H109.569L112.726 188.6L115.872 177.182L118.655 177.16L121.812 188.6L124.958 177.16H127.741L123.121 193H120.503L117.258 181.736L114.035 193H111.417ZM129.536 193V177.16H132.187V183.826H139.689V177.16H142.329V193H139.689V186.312H132.187V193H129.536ZM149.263 193V186.51L143.873 177.16H146.964L150.605 183.474L154.235 177.16H157.326L151.947 186.51V193H149.263ZM161.286 193L166.28 177.16H170.163L175.157 193H172.429L167.897 178.788H168.491L164.014 193H161.286ZM164.069 189.568V187.093H172.385V189.568H164.069ZM177.145 193V177.16H183.69C183.844 177.16 184.042 177.167 184.284 177.182C184.526 177.189 184.75 177.211 184.955 177.248C185.872 177.387 186.627 177.692 187.221 178.161C187.823 178.63 188.266 179.224 188.552 179.943C188.846 180.654 188.992 181.446 188.992 182.319C188.992 183.61 188.666 184.721 188.013 185.652C187.361 186.576 186.36 187.148 185.01 187.368L183.877 187.467H179.796V193H177.145ZM186.242 193L183.118 186.554L185.813 185.96L189.245 193H186.242ZM179.796 184.992H183.58C183.727 184.992 183.892 184.985 184.075 184.97C184.259 184.955 184.427 184.926 184.581 184.882C185.021 184.772 185.366 184.578 185.615 184.299C185.872 184.02 186.052 183.705 186.154 183.353C186.264 183.001 186.319 182.656 186.319 182.319C186.319 181.982 186.264 181.637 186.154 181.285C186.052 180.926 185.872 180.607 185.615 180.328C185.366 180.049 185.021 179.855 184.581 179.745C184.427 179.701 184.259 179.675 184.075 179.668C183.892 179.653 183.727 179.646 183.58 179.646H179.796V184.992ZM191.669 193V177.16H201.899V179.646H194.32V183.551H200.579V186.037H194.32V190.514H201.899V193H191.669ZM208.942 193V177.16H211.329L216.807 188.38L222.285 177.16H224.672V193H222.197V182.847L217.335 193H216.279L211.428 182.847V193H208.942ZM234.462 193.33C232.878 193.33 231.521 192.985 230.392 192.296C229.262 191.599 228.393 190.631 227.785 189.392C227.183 188.153 226.883 186.715 226.883 185.08C226.883 183.445 227.183 182.007 227.785 180.768C228.393 179.529 229.262 178.564 230.392 177.875C231.521 177.178 232.878 176.83 234.462 176.83C236.046 176.83 237.402 177.178 238.532 177.875C239.668 178.564 240.537 179.529 241.139 180.768C241.747 182.007 242.052 183.445 242.052 185.08C242.052 186.715 241.747 188.153 241.139 189.392C240.537 190.631 239.668 191.599 238.532 192.296C237.402 192.985 236.046 193.33 234.462 193.33ZM234.462 190.833C235.525 190.84 236.409 190.606 237.113 190.129C237.824 189.652 238.356 188.981 238.708 188.116C239.067 187.251 239.247 186.239 239.247 185.08C239.247 183.921 239.067 182.917 238.708 182.066C238.356 181.208 237.824 180.541 237.113 180.064C236.409 179.587 235.525 179.342 234.462 179.327C233.398 179.32 232.515 179.554 231.811 180.031C231.107 180.508 230.575 181.179 230.216 182.044C229.864 182.909 229.688 183.921 229.688 185.08C229.688 186.239 229.864 187.247 230.216 188.105C230.568 188.956 231.096 189.619 231.8 190.096C232.511 190.573 233.398 190.818 234.462 190.833ZM244.241 193V177.16H250.786C250.94 177.16 251.138 177.167 251.38 177.182C251.622 177.189 251.846 177.211 252.051 177.248C252.968 177.387 253.723 177.692 254.317 178.161C254.919 178.63 255.362 179.224 255.648 179.943C255.942 180.654 256.088 181.446 256.088 182.319C256.088 183.61 255.762 184.721 255.109 185.652C254.457 186.576 253.456 187.148 252.106 187.368L250.973 187.467H246.892V193H244.241ZM253.338 193L250.214 186.554L252.909 185.96L256.341 193H253.338ZM246.892 184.992H250.676C250.823 184.992 250.988 184.985 251.171 184.97C251.355 184.955 251.523 184.926 251.677 184.882C252.117 184.772 252.462 184.578 252.711 184.299C252.968 184.02 253.148 183.705 253.25 183.353C253.36 183.001 253.415 182.656 253.415 182.319C253.415 181.982 253.36 181.637 253.25 181.285C253.148 180.926 252.968 180.607 252.711 180.328C252.462 180.049 252.117 179.855 251.677 179.745C251.523 179.701 251.355 179.675 251.171 179.668C250.988 179.653 250.823 179.646 250.676 179.646H246.892V184.992ZM258.765 193V177.16H268.995V179.646H261.416V183.551H267.675V186.037H261.416V190.514H268.995V193H258.765ZM274.938 193L279.932 177.16H283.815L288.809 193H286.081L281.549 178.788H282.143L277.666 193H274.938ZM277.721 189.568V187.093H286.037V189.568H277.721ZM290.798 193V177.16H293.482L300.83 188.325V177.16H303.514V193H300.83L293.482 181.835V193H290.798ZM306.589 193V177.16H311.638C311.77 177.16 312.03 177.164 312.419 177.171C312.815 177.178 313.196 177.204 313.563 177.248C314.817 177.409 315.876 177.857 316.742 178.59C317.614 179.316 318.274 180.244 318.722 181.373C319.169 182.502 319.393 183.738 319.393 185.08C319.393 186.422 319.169 187.658 318.722 188.787C318.274 189.916 317.614 190.848 316.742 191.581C315.876 192.307 314.817 192.751 313.563 192.912C313.203 192.956 312.826 192.982 312.43 192.989C312.034 192.996 311.77 193 311.638 193H306.589ZM309.284 190.503H311.638C311.858 190.503 312.136 190.496 312.474 190.481C312.818 190.466 313.123 190.433 313.387 190.382C314.135 190.243 314.743 189.909 315.213 189.381C315.682 188.853 316.027 188.211 316.247 187.456C316.474 186.701 316.588 185.909 316.588 185.08C316.588 184.222 316.474 183.415 316.247 182.66C316.019 181.905 315.667 181.27 315.191 180.757C314.721 180.244 314.12 179.917 313.387 179.778C313.123 179.719 312.818 179.686 312.474 179.679C312.136 179.664 311.858 179.657 311.638 179.657H309.284V190.503ZM326.397 193V177.16H328.784L334.262 188.38L339.74 177.16H342.127V193H339.652V182.847L334.79 193H333.734L328.883 182.847V193H326.397ZM351.917 193.33C350.333 193.33 348.976 192.985 347.847 192.296C346.717 191.599 345.848 190.631 345.24 189.392C344.638 188.153 344.338 186.715 344.338 185.08C344.338 183.445 344.638 182.007 345.24 180.768C345.848 179.529 346.717 178.564 347.847 177.875C348.976 177.178 350.333 176.83 351.917 176.83C353.501 176.83 354.857 177.178 355.987 177.875C357.123 178.564 357.992 179.529 358.594 180.768C359.202 182.007 359.507 183.445 359.507 185.08C359.507 186.715 359.202 188.153 358.594 189.392C357.992 190.631 357.123 191.599 355.987 192.296C354.857 192.985 353.501 193.33 351.917 193.33ZM351.917 190.833C352.98 190.84 353.864 190.606 354.568 190.129C355.279 189.652 355.811 188.981 356.163 188.116C356.522 187.251 356.702 186.239 356.702 185.08C356.702 183.921 356.522 182.917 356.163 182.066C355.811 181.208 355.279 180.541 354.568 180.064C353.864 179.587 352.98 179.342 351.917 179.327C350.853 179.32 349.97 179.554 349.266 180.031C348.562 180.508 348.03 181.179 347.671 182.044C347.319 182.909 347.143 183.921 347.143 185.08C347.143 186.239 347.319 187.247 347.671 188.105C348.023 188.956 348.551 189.619 349.255 190.096C349.966 190.573 350.853 190.818 351.917 190.833ZM361.696 193V177.16H368.241C368.395 177.16 368.593 177.167 368.835 177.182C369.077 177.189 369.301 177.211 369.506 177.248C370.423 177.387 371.178 177.692 371.772 178.161C372.374 178.63 372.817 179.224 373.103 179.943C373.397 180.654 373.543 181.446 373.543 182.319C373.543 183.61 373.217 184.721 372.564 185.652C371.912 186.576 370.911 187.148 369.561 187.368L368.428 187.467H364.347V193H361.696ZM370.793 193L367.669 186.554L370.364 185.96L373.796 193H370.793ZM364.347 184.992H368.131C368.278 184.992 368.443 184.985 368.626 184.97C368.81 184.955 368.978 184.926 369.132 184.882C369.572 184.772 369.917 184.578 370.166 184.299C370.423 184.02 370.603 183.705 370.705 183.353C370.815 183.001 370.87 182.656 370.87 182.319C370.87 181.982 370.815 181.637 370.705 181.285C370.603 180.926 370.423 180.607 370.166 180.328C369.917 180.049 369.572 179.855 369.132 179.745C368.978 179.701 368.81 179.675 368.626 179.668C368.443 179.653 368.278 179.646 368.131 179.646H364.347V184.992ZM376.22 193V177.16H386.45V179.646H378.871V183.551H385.13V186.037H378.871V190.514H386.45V193H376.22ZM400.192 193.33C398.608 193.33 397.251 192.985 396.122 192.296C394.993 191.599 394.124 190.631 393.515 189.392C392.914 188.153 392.613 186.715 392.613 185.08C392.613 183.445 392.914 182.007 393.515 180.768C394.124 179.529 394.993 178.564 396.122 177.875C397.251 177.178 398.608 176.83 400.192 176.83C402.018 176.83 403.54 177.288 404.757 178.205C405.974 179.114 406.829 180.343 407.32 181.89L404.647 182.627C404.339 181.593 403.815 180.786 403.074 180.207C402.333 179.62 401.373 179.327 400.192 179.327C399.129 179.327 398.241 179.565 397.53 180.042C396.826 180.519 396.294 181.19 395.935 182.055C395.583 182.913 395.403 183.921 395.396 185.08C395.396 186.239 395.572 187.251 395.924 188.116C396.283 188.974 396.819 189.641 397.53 190.118C398.241 190.595 399.129 190.833 400.192 190.833C401.373 190.833 402.333 190.54 403.074 189.953C403.815 189.366 404.339 188.56 404.647 187.533L407.32 188.27C406.829 189.817 405.974 191.049 404.757 191.966C403.54 192.875 402.018 193.33 400.192 193.33ZM416.434 193.33C414.85 193.33 413.494 192.985 412.364 192.296C411.235 191.599 410.366 190.631 409.757 189.392C409.156 188.153 408.855 186.715 408.855 185.08C408.855 183.445 409.156 182.007 409.757 180.768C410.366 179.529 411.235 178.564 412.364 177.875C413.494 177.178 414.85 176.83 416.434 176.83C418.018 176.83 419.375 177.178 420.504 177.875C421.641 178.564 422.51 179.529 423.111 180.768C423.72 182.007 424.024 183.445 424.024 185.08C424.024 186.715 423.72 188.153 423.111 189.392C422.51 190.631 421.641 191.599 420.504 192.296C419.375 192.985 418.018 193.33 416.434 193.33ZM416.434 190.833C417.498 190.84 418.381 190.606 419.085 190.129C419.797 189.652 420.328 188.981 420.68 188.116C421.04 187.251 421.219 186.239 421.219 185.08C421.219 183.921 421.04 182.917 420.68 182.066C420.328 181.208 419.797 180.541 419.085 180.064C418.381 179.587 417.498 179.342 416.434 179.327C415.371 179.32 414.487 179.554 413.783 180.031C413.079 180.508 412.548 181.179 412.188 182.044C411.836 182.909 411.66 183.921 411.66 185.08C411.66 186.239 411.836 187.247 412.188 188.105C412.54 188.956 413.068 189.619 413.772 190.096C414.484 190.573 415.371 190.818 416.434 190.833ZM432.594 193.33C431.332 193.33 430.221 193.073 429.261 192.56C428.307 192.047 427.559 191.324 427.017 190.393C426.481 189.462 426.214 188.369 426.214 187.115V177.182L428.898 177.16V187.049C428.898 187.643 428.997 188.175 429.195 188.644C429.4 189.113 429.675 189.513 430.02 189.843C430.364 190.166 430.76 190.411 431.208 190.58C431.655 190.749 432.117 190.833 432.594 190.833C433.085 190.833 433.551 190.749 433.991 190.58C434.438 190.404 434.834 190.155 435.179 189.832C435.523 189.502 435.795 189.102 435.993 188.633C436.191 188.164 436.29 187.636 436.29 187.049V177.16H438.974V187.115C438.974 188.369 438.702 189.462 438.16 190.393C437.624 191.324 436.876 192.047 435.916 192.56C434.962 193.073 433.855 193.33 432.594 193.33ZM442.048 193V177.16H448.593C448.747 177.16 448.945 177.167 449.187 177.182C449.429 177.189 449.652 177.211 449.858 177.248C450.774 177.387 451.53 177.692 452.124 178.161C452.725 178.63 453.169 179.224 453.455 179.943C453.748 180.654 453.895 181.446 453.895 182.319C453.895 183.184 453.748 183.976 453.455 184.695C453.161 185.406 452.714 185.997 452.113 186.466C451.519 186.935 450.767 187.24 449.858 187.379C449.652 187.408 449.425 187.43 449.176 187.445C448.934 187.46 448.739 187.467 448.593 187.467H444.699V193H442.048ZM444.699 184.992H448.483C448.629 184.992 448.794 184.985 448.978 184.97C449.161 184.955 449.33 184.926 449.484 184.882C449.924 184.772 450.268 184.578 450.518 184.299C450.774 184.02 450.954 183.705 451.057 183.353C451.167 183.001 451.222 182.656 451.222 182.319C451.222 181.982 451.167 181.637 451.057 181.285C450.954 180.926 450.774 180.607 450.518 180.328C450.268 180.049 449.924 179.855 449.484 179.745C449.33 179.701 449.161 179.675 448.978 179.668C448.794 179.653 448.629 179.646 448.483 179.646H444.699V184.992ZM456.319 193V177.16H458.97V190.514H465.966V193H456.319ZM467.829 193V177.16H478.059V179.646H470.48V183.551H476.739V186.037H470.48V190.514H478.059V193H467.829ZM486.411 193.33C485.252 193.33 484.207 193.128 483.276 192.725C482.352 192.322 481.589 191.746 480.988 190.998C480.394 190.243 480.016 189.348 479.855 188.314L482.605 187.896C482.839 188.835 483.32 189.561 484.046 190.074C484.779 190.587 485.622 190.844 486.576 190.844C487.14 190.844 487.672 190.756 488.171 190.58C488.669 190.404 489.073 190.147 489.381 189.81C489.696 189.473 489.854 189.058 489.854 188.567C489.854 188.347 489.817 188.145 489.744 187.962C489.67 187.771 489.56 187.603 489.414 187.456C489.274 187.309 489.091 187.177 488.864 187.06C488.644 186.935 488.387 186.829 488.094 186.741L484.002 185.531C483.65 185.428 483.268 185.293 482.858 185.124C482.454 184.948 482.069 184.71 481.703 184.409C481.343 184.101 481.046 183.712 480.812 183.243C480.584 182.766 480.471 182.18 480.471 181.483C480.471 180.464 480.727 179.609 481.241 178.92C481.761 178.223 482.458 177.703 483.331 177.358C484.211 177.013 485.186 176.845 486.257 176.852C487.342 176.859 488.31 177.046 489.161 177.413C490.011 177.772 490.723 178.297 491.295 178.986C491.867 179.675 492.27 180.508 492.505 181.483L489.656 181.978C489.538 181.421 489.311 180.948 488.974 180.559C488.644 180.163 488.237 179.862 487.753 179.657C487.276 179.452 486.766 179.342 486.224 179.327C485.696 179.32 485.204 179.4 484.75 179.569C484.302 179.73 483.939 179.965 483.661 180.273C483.389 180.581 483.254 180.94 483.254 181.351C483.254 181.74 483.371 182.059 483.606 182.308C483.84 182.55 484.13 182.744 484.475 182.891C484.827 183.03 485.182 183.148 485.542 183.243L488.38 184.035C488.768 184.138 489.205 184.277 489.689 184.453C490.173 184.629 490.638 184.875 491.086 185.19C491.533 185.505 491.9 185.92 492.186 186.433C492.479 186.946 492.626 187.599 492.626 188.391C492.626 189.212 492.453 189.935 492.109 190.558C491.771 191.174 491.313 191.687 490.734 192.098C490.154 192.509 489.491 192.817 488.743 193.022C488.002 193.227 487.225 193.33 486.411 193.33ZM133.997 224.33C132.97 224.33 132.006 224.15 131.104 223.791C130.209 223.424 129.421 222.889 128.739 222.185C128.064 221.481 127.536 220.619 127.155 219.6C126.774 218.573 126.583 217.4 126.583 216.08C126.583 214.349 126.906 212.872 127.551 211.647C128.196 210.415 129.08 209.473 130.202 208.82C131.324 208.16 132.589 207.83 133.997 207.83C135.948 207.83 137.491 208.285 138.628 209.194C139.772 210.096 140.546 211.365 140.949 213L138.243 213.429C137.942 212.49 137.451 211.742 136.769 211.185C136.087 210.62 135.218 210.338 134.162 210.338C133.099 210.323 132.215 210.554 131.511 211.031C130.807 211.508 130.275 212.179 129.916 213.044C129.564 213.909 129.388 214.921 129.388 216.08C129.388 217.239 129.564 218.247 129.916 219.105C130.268 219.956 130.796 220.619 131.5 221.096C132.211 221.573 133.099 221.818 134.162 221.833C134.961 221.84 135.662 221.697 136.263 221.404C136.864 221.103 137.356 220.652 137.737 220.051C138.118 219.442 138.375 218.683 138.507 217.774H135.713V215.695H141.323C141.338 215.812 141.349 215.985 141.356 216.212C141.363 216.439 141.367 216.575 141.367 216.619C141.367 218.115 141.07 219.446 140.476 220.612C139.889 221.771 139.046 222.68 137.946 223.34C136.846 224 135.53 224.33 133.997 224.33ZM143.576 224V208.16H153.806V210.646H146.227V214.551H152.486V217.037H146.227V221.514H153.806V224H143.576ZM160.251 224V210.646H155.125V208.16H168.028V210.646H162.902V224H160.251ZM174.904 224V210.646H169.778V208.16H182.681V210.646H177.555V224H174.904ZM184.659 224V208.16H187.31V224H184.659ZM190.605 224V208.16H193.289L200.637 219.325V208.16H203.321V224H200.637L193.289 212.835V224H190.605ZM212.93 224.33C211.904 224.33 210.939 224.15 210.037 223.791C209.143 223.424 208.354 222.889 207.672 222.185C206.998 221.481 206.47 220.619 206.088 219.6C205.707 218.573 205.516 217.4 205.516 216.08C205.516 214.349 205.839 212.872 206.484 211.647C207.13 210.415 208.013 209.473 209.135 208.82C210.257 208.16 211.522 207.83 212.93 207.83C214.881 207.83 216.425 208.285 217.561 209.194C218.705 210.096 219.479 211.365 219.882 213L217.176 213.429C216.876 212.49 216.384 211.742 215.702 211.185C215.02 210.62 214.151 210.338 213.095 210.338C212.032 210.323 211.148 210.554 210.444 211.031C209.74 211.508 209.209 212.179 208.849 213.044C208.497 213.909 208.321 214.921 208.321 216.08C208.321 217.239 208.497 218.247 208.849 219.105C209.201 219.956 209.729 220.619 210.433 221.096C211.145 221.573 212.032 221.818 213.095 221.833C213.895 221.84 214.595 221.697 215.196 221.404C215.798 221.103 216.289 220.652 216.67 220.051C217.052 219.442 217.308 218.683 217.44 217.774H214.646V215.695H220.256C220.271 215.812 220.282 215.985 220.289 216.212C220.297 216.439 220.3 216.575 220.3 216.619C220.3 218.115 220.003 219.446 219.409 220.612C218.823 221.771 217.979 222.68 216.879 223.34C215.779 224 214.463 224.33 212.93 224.33ZM226.914 224V208.16H231.963C232.095 208.16 232.355 208.164 232.744 208.171C233.14 208.178 233.521 208.204 233.888 208.248C235.142 208.409 236.202 208.857 237.067 209.59C237.94 210.316 238.6 211.244 239.047 212.373C239.494 213.502 239.718 214.738 239.718 216.08C239.718 217.422 239.494 218.658 239.047 219.787C238.6 220.916 237.94 221.848 237.067 222.581C236.202 223.307 235.142 223.751 233.888 223.912C233.529 223.956 233.151 223.982 232.755 223.989C232.359 223.996 232.095 224 231.963 224H226.914ZM229.609 221.503H231.963C232.183 221.503 232.462 221.496 232.799 221.481C233.144 221.466 233.448 221.433 233.712 221.382C234.46 221.243 235.069 220.909 235.538 220.381C236.007 219.853 236.352 219.211 236.572 218.456C236.799 217.701 236.913 216.909 236.913 216.08C236.913 215.222 236.799 214.415 236.572 213.66C236.345 212.905 235.993 212.27 235.516 211.757C235.047 211.244 234.445 210.917 233.712 210.778C233.448 210.719 233.144 210.686 232.799 210.679C232.462 210.664 232.183 210.657 231.963 210.657H229.609V221.503ZM242.538 224V208.16H245.189V224H242.538ZM252.048 224L247.054 208.16H249.782L253.962 221.426L258.197 208.16H260.925L255.931 224H252.048ZM268.847 224.33C267.263 224.33 265.907 223.985 264.777 223.296C263.648 222.599 262.779 221.631 262.17 220.392C261.569 219.153 261.268 217.715 261.268 216.08C261.268 214.445 261.569 213.007 262.17 211.768C262.779 210.529 263.648 209.564 264.777 208.875C265.907 208.178 267.263 207.83 268.847 207.83C270.431 207.83 271.788 208.178 272.917 208.875C274.054 209.564 274.923 210.529 275.524 211.768C276.133 213.007 276.437 214.445 276.437 216.08C276.437 217.715 276.133 219.153 275.524 220.392C274.923 221.631 274.054 222.599 272.917 223.296C271.788 223.985 270.431 224.33 268.847 224.33ZM268.847 221.833C269.911 221.84 270.794 221.606 271.498 221.129C272.21 220.652 272.741 219.981 273.093 219.116C273.453 218.251 273.632 217.239 273.632 216.08C273.632 214.921 273.453 213.917 273.093 213.066C272.741 212.208 272.21 211.541 271.498 211.064C270.794 210.587 269.911 210.342 268.847 210.327C267.784 210.32 266.9 210.554 266.196 211.031C265.492 211.508 264.961 212.179 264.601 213.044C264.249 213.909 264.073 214.921 264.073 216.08C264.073 217.239 264.249 218.247 264.601 219.105C264.953 219.956 265.481 220.619 266.185 221.096C266.897 221.573 267.784 221.818 268.847 221.833ZM278.627 224V208.16H285.172C285.326 208.16 285.524 208.167 285.766 208.182C286.008 208.189 286.232 208.211 286.437 208.248C287.354 208.387 288.109 208.692 288.703 209.161C289.304 209.63 289.748 210.224 290.034 210.943C290.327 211.654 290.474 212.446 290.474 213.319C290.474 214.61 290.148 215.721 289.495 216.652C288.842 217.576 287.841 218.148 286.492 218.368L285.359 218.467H281.278V224H278.627ZM287.724 224L284.6 217.554L287.295 216.96L290.727 224H287.724ZM281.278 215.992H285.062C285.209 215.992 285.374 215.985 285.557 215.97C285.74 215.955 285.909 215.926 286.063 215.882C286.503 215.772 286.848 215.578 287.097 215.299C287.354 215.02 287.533 214.705 287.636 214.353C287.746 214.001 287.801 213.656 287.801 213.319C287.801 212.982 287.746 212.637 287.636 212.285C287.533 211.926 287.354 211.607 287.097 211.328C286.848 211.049 286.503 210.855 286.063 210.745C285.909 210.701 285.74 210.675 285.557 210.668C285.374 210.653 285.209 210.646 285.062 210.646H281.278V215.992ZM299.291 224.33C297.707 224.33 296.35 223.985 295.221 223.296C294.091 222.599 293.222 221.631 292.614 220.392C292.012 219.153 291.712 217.715 291.712 216.08C291.712 214.445 292.012 213.007 292.614 211.768C293.222 210.529 294.091 209.564 295.221 208.875C296.35 208.178 297.707 207.83 299.291 207.83C301.117 207.83 302.638 208.288 303.856 209.205C305.073 210.114 305.927 211.343 306.419 212.89L303.746 213.627C303.438 212.593 302.913 211.786 302.173 211.207C301.432 210.62 300.471 210.327 299.291 210.327C298.227 210.327 297.34 210.565 296.629 211.042C295.925 211.519 295.393 212.19 295.034 213.055C294.682 213.913 294.502 214.921 294.495 216.08C294.495 217.239 294.671 218.251 295.023 219.116C295.382 219.974 295.917 220.641 296.629 221.118C297.34 221.595 298.227 221.833 299.291 221.833C300.471 221.833 301.432 221.54 302.173 220.953C302.913 220.366 303.438 219.56 303.746 218.533L306.419 219.27C305.927 220.817 305.073 222.049 303.856 222.966C302.638 223.875 301.117 224.33 299.291 224.33ZM308.834 224V208.16H319.064V210.646H311.485V214.551H317.744V217.037H311.485V221.514H319.064V224H308.834ZM321.703 224V208.16H326.752C326.884 208.16 327.144 208.164 327.533 208.171C327.929 208.178 328.31 208.204 328.677 208.248C329.931 208.409 330.991 208.857 331.856 209.59C332.729 210.316 333.389 211.244 333.836 212.373C334.283 213.502 334.507 214.738 334.507 216.08C334.507 217.422 334.283 218.658 333.836 219.787C333.389 220.916 332.729 221.848 331.856 222.581C330.991 223.307 329.931 223.751 328.677 223.912C328.318 223.956 327.94 223.982 327.544 223.989C327.148 223.996 326.884 224 326.752 224H321.703ZM324.398 221.503H326.752C326.972 221.503 327.251 221.496 327.588 221.481C327.933 221.466 328.237 221.433 328.501 221.382C329.249 221.243 329.858 220.909 330.327 220.381C330.796 219.853 331.141 219.211 331.361 218.456C331.588 217.701 331.702 216.909 331.702 216.08C331.702 215.222 331.588 214.415 331.361 213.66C331.134 212.905 330.782 212.27 330.305 211.757C329.836 211.244 329.234 210.917 328.501 210.778C328.237 210.719 327.933 210.686 327.588 210.679C327.251 210.664 326.972 210.657 326.752 210.657H324.398V221.503ZM341.512 224V208.16H344.196L351.544 219.325V208.16H354.228V224H351.544L344.196 212.835V224H341.512ZM364.002 224.33C362.418 224.33 361.061 223.985 359.932 223.296C358.802 222.599 357.933 221.631 357.325 220.392C356.723 219.153 356.423 217.715 356.423 216.08C356.423 214.445 356.723 213.007 357.325 211.768C357.933 210.529 358.802 209.564 359.932 208.875C361.061 208.178 362.418 207.83 364.002 207.83C365.586 207.83 366.942 208.178 368.072 208.875C369.208 209.564 370.077 210.529 370.679 211.768C371.287 213.007 371.592 214.445 371.592 216.08C371.592 217.715 371.287 219.153 370.679 220.392C370.077 221.631 369.208 222.599 368.072 223.296C366.942 223.985 365.586 224.33 364.002 224.33ZM364.002 221.833C365.065 221.84 365.949 221.606 366.653 221.129C367.364 220.652 367.896 219.981 368.248 219.116C368.607 218.251 368.787 217.239 368.787 216.08C368.787 214.921 368.607 213.917 368.248 213.066C367.896 212.208 367.364 211.541 366.653 211.064C365.949 210.587 365.065 210.342 364.002 210.327C362.938 210.32 362.055 210.554 361.351 211.031C360.647 211.508 360.115 212.179 359.756 213.044C359.404 213.909 359.228 214.921 359.228 216.08C359.228 217.239 359.404 218.247 359.756 219.105C360.108 219.956 360.636 220.619 361.34 221.096C362.051 221.573 362.938 221.818 364.002 221.833ZM376.459 224L371.828 208.16H374.611L377.768 219.6L380.914 208.182L383.697 208.16L386.854 219.6L390 208.16H392.783L388.163 224H385.545L382.3 212.736L379.077 224H376.459ZM391.931 224L396.925 208.16H400.808L405.802 224H403.074L398.542 209.788H399.136L394.659 224H391.931ZM394.714 220.568V218.093H403.03V220.568H394.714ZM407.791 224V208.16H412.84C412.972 208.16 413.232 208.164 413.621 208.171C414.017 208.178 414.398 208.204 414.765 208.248C416.019 208.409 417.079 208.857 417.944 209.59C418.817 210.316 419.477 211.244 419.924 212.373C420.371 213.502 420.595 214.738 420.595 216.08C420.595 217.422 420.371 218.658 419.924 219.787C419.477 220.916 418.817 221.848 417.944 222.581C417.079 223.307 416.019 223.751 414.765 223.912C414.406 223.956 414.028 223.982 413.632 223.989C413.236 223.996 412.972 224 412.84 224H407.791ZM410.486 221.503H412.84C413.06 221.503 413.339 221.496 413.676 221.481C414.021 221.466 414.325 221.433 414.589 221.382C415.337 221.243 415.946 220.909 416.415 220.381C416.884 219.853 417.229 219.211 417.449 218.456C417.676 217.701 417.79 216.909 417.79 216.08C417.79 215.222 417.676 214.415 417.449 213.66C417.222 212.905 416.87 212.27 416.393 211.757C415.924 211.244 415.322 210.917 414.589 210.778C414.325 210.719 414.021 210.686 413.676 210.679C413.339 210.664 413.06 210.657 412.84 210.657H410.486V221.503ZM421.666 224L426.66 208.16H430.543L435.537 224H432.809L428.277 209.788H428.871L424.394 224H421.666ZM424.449 220.568V218.093H432.765V220.568H424.449ZM440.065 224V217.51L434.675 208.16H437.766L441.407 214.474L445.037 208.16H448.128L442.749 217.51V224H440.065ZM454.861 224.33C453.702 224.33 452.657 224.128 451.726 223.725C450.802 223.322 450.039 222.746 449.438 221.998C448.844 221.243 448.466 220.348 448.305 219.314L451.055 218.896C451.29 219.835 451.77 220.561 452.496 221.074C453.229 221.587 454.073 221.844 455.026 221.844C455.591 221.844 456.122 221.756 456.621 221.58C457.12 221.404 457.523 221.147 457.831 220.81C458.146 220.473 458.304 220.058 458.304 219.567C458.304 219.347 458.267 219.145 458.194 218.962C458.121 218.771 458.011 218.603 457.864 218.456C457.725 218.309 457.541 218.177 457.314 218.06C457.094 217.935 456.837 217.829 456.544 217.741L452.452 216.531C452.1 216.428 451.719 216.293 451.308 216.124C450.905 215.948 450.52 215.71 450.153 215.409C449.794 215.101 449.497 214.712 449.262 214.243C449.035 213.766 448.921 213.18 448.921 212.483C448.921 211.464 449.178 210.609 449.691 209.92C450.212 209.223 450.908 208.703 451.781 208.358C452.661 208.013 453.636 207.845 454.707 207.852C455.792 207.859 456.76 208.046 457.611 208.413C458.462 208.772 459.173 209.297 459.745 209.986C460.317 210.675 460.72 211.508 460.955 212.483L458.106 212.978C457.989 212.421 457.761 211.948 457.424 211.559C457.094 211.163 456.687 210.862 456.203 210.657C455.726 210.452 455.217 210.342 454.674 210.327C454.146 210.32 453.655 210.4 453.2 210.569C452.753 210.73 452.39 210.965 452.111 211.273C451.84 211.581 451.704 211.94 451.704 212.351C451.704 212.74 451.821 213.059 452.056 213.308C452.291 213.55 452.58 213.744 452.925 213.891C453.277 214.03 453.633 214.148 453.992 214.243L456.83 215.035C457.219 215.138 457.655 215.277 458.139 215.453C458.623 215.629 459.089 215.875 459.536 216.19C459.983 216.505 460.35 216.92 460.636 217.433C460.929 217.946 461.076 218.599 461.076 219.391C461.076 220.212 460.904 220.935 460.559 221.558C460.222 222.174 459.763 222.687 459.184 223.098C458.605 223.509 457.941 223.817 457.193 224.022C456.452 224.227 455.675 224.33 454.861 224.33ZM466.328 219.699C466.328 219.193 466.376 218.705 466.471 218.236C466.574 217.759 466.739 217.319 466.966 216.916C467.164 216.527 467.384 216.219 467.626 215.992C467.868 215.757 468.139 215.526 468.44 215.299C468.741 215.064 469.074 214.753 469.441 214.364C469.742 214.034 469.94 213.708 470.035 213.385C470.13 213.055 470.178 212.703 470.178 212.329C470.178 212.087 470.152 211.86 470.101 211.647C470.05 211.434 469.958 211.251 469.826 211.097C469.621 210.826 469.357 210.635 469.034 210.525C468.711 210.408 468.367 210.349 468 210.349C467.699 210.349 467.41 210.389 467.131 210.47C466.86 210.543 466.629 210.661 466.438 210.822C466.218 210.998 466.057 211.214 465.954 211.471C465.851 211.728 465.804 212.01 465.811 212.318H463.017C463.09 211.585 463.288 210.906 463.611 210.283C463.941 209.652 464.374 209.15 464.909 208.776C465.327 208.468 465.796 208.237 466.317 208.083C466.845 207.929 467.373 207.852 467.901 207.852C468.708 207.852 469.467 207.977 470.178 208.226C470.897 208.475 471.494 208.886 471.971 209.458C472.301 209.832 472.55 210.265 472.719 210.756C472.895 211.247 472.983 211.746 472.983 212.252C472.983 213.007 472.818 213.697 472.488 214.32C472.165 214.943 471.755 215.519 471.256 216.047C471.021 216.296 470.798 216.516 470.585 216.707C470.372 216.898 470.174 217.085 469.991 217.268C469.815 217.444 469.668 217.631 469.551 217.829C469.346 218.174 469.225 218.467 469.188 218.709C469.151 218.944 469.133 219.274 469.133 219.699H466.328ZM466.35 224V221.085H469.133V224H466.35Z" fill="white"></path> <rect x="20" y="20" width="76" height="40" rx="20" fill="white" fill-opacity="0.3"></rect> <path d="M33.2606 46V34.48H39.9806V35.904H34.6846V39.528H39.0206V40.952H34.6846V46H33.2606ZM40.4606 46L44.3166 34.48H46.3006L50.1566 46H48.6766L45.0686 35.312H45.5166L41.9406 46H40.4606ZM42.3166 43.304V41.968H48.3006V43.304H42.3166ZM51.5888 46V34.48H52.8848L57.2368 43.656L61.5648 34.48H62.8768V45.992H61.5248V37.608L57.6128 46H56.8528L52.9408 37.608V46H51.5888ZM65.28 46V34.48H66.704V46H65.28ZM69.2644 46V34.48H70.6884V44.648H76.0324V46H69.2644ZM78.5519 46V41.208L74.6719 34.48H76.3279L79.2719 39.576L82.2079 34.48H83.8639L79.9919 41.208V46H78.5519Z" fill="white"></path> <defs> <linearGradient id="paint0_linear_121_294" x1="300" y1="0" x2="300" y2="400" gradientUnits="userSpaceOnUse"> <stop stop-color="#FF758C"></stop> <stop offset="1" stop-color="#FF7EB3"></stop> </linearGradient> </defs> </svg> 