<?xml version="1.0" encoding="UTF-8"?> <svg xmlns="http://www.w3.org/2000/svg" width="600" height="400" viewBox="0 0 600 400" fill="none"> <rect width="600" height="400" rx="20" fill="url(#paint0_linear_160_79)"></rect> <path d="M100.978 193V177.16H103.629V193H100.978ZM112.787 193.33C111.628 193.33 110.583 193.128 109.652 192.725C108.728 192.322 107.965 191.746 107.364 190.998C106.77 190.243 106.392 189.348 106.231 188.314L108.981 187.896C109.215 188.835 109.696 189.561 110.422 190.074C111.155 190.587 111.998 190.844 112.952 190.844C113.516 190.844 114.048 190.756 114.547 190.58C115.045 190.404 115.449 190.147 115.757 189.81C116.072 189.473 116.23 189.058 116.23 188.567C116.23 188.347 116.193 188.145 116.12 187.962C116.046 187.771 115.936 187.603 115.79 187.456C115.65 187.309 115.467 187.177 115.24 187.06C115.02 186.935 114.763 186.829 114.47 186.741L110.378 185.531C110.026 185.428 109.644 185.293 109.234 185.124C108.83 184.948 108.445 184.71 108.079 184.409C107.719 184.101 107.422 183.712 107.188 183.243C106.96 182.766 106.847 182.18 106.847 181.483C106.847 180.464 107.103 179.609 107.617 178.92C108.137 178.223 108.834 177.703 109.707 177.358C110.587 177.013 111.562 176.845 112.633 176.852C113.718 176.859 114.686 177.046 115.537 177.413C116.387 177.772 117.099 178.297 117.671 178.986C118.243 179.675 118.646 180.508 118.881 181.483L116.032 181.978C115.914 181.421 115.687 180.948 115.35 180.559C115.02 180.163 114.613 179.862 114.129 179.657C113.652 179.452 113.142 179.342 112.6 179.327C112.072 179.32 111.58 179.4 111.126 179.569C110.678 179.73 110.315 179.965 110.037 180.273C109.765 180.581 109.63 180.94 109.63 181.351C109.63 181.74 109.747 182.059 109.982 182.308C110.216 182.55 110.506 182.744 110.851 182.891C111.203 183.03 111.558 183.148 111.918 183.243L114.756 184.035C115.144 184.138 115.581 184.277 116.065 184.453C116.549 184.629 117.014 184.875 117.462 185.19C117.909 185.505 118.276 185.92 118.562 186.433C118.855 186.946 119.002 187.599 119.002 188.391C119.002 189.212 118.829 189.935 118.485 190.558C118.147 191.174 117.689 191.687 117.11 192.098C116.53 192.509 115.867 192.817 115.119 193.022C114.378 193.227 113.601 193.33 112.787 193.33ZM125.787 193V177.16H135.324V179.811H128.438V183.76H134.004V186.4H128.438V193H125.787ZM135.988 193L140.982 177.16H144.865L149.859 193H147.131L142.599 178.788H143.193L138.716 193H135.988ZM138.771 189.568V187.093H147.087V189.568H138.771ZM151.848 193V177.16H154.235L159.713 188.38L165.191 177.16H167.578V193H165.103V182.847L160.241 193H159.185L154.334 182.847V193H151.848ZM170.888 193V177.16H173.539V193H170.888ZM177.054 193V177.16H179.705V190.514H186.701V193H177.054ZM190.223 193V186.51L184.833 177.16H187.924L191.565 183.474L195.195 177.16H198.286L192.907 186.51V193H190.223ZM202.246 193L207.24 177.16H211.123L216.117 193H213.389L208.857 178.788H209.451L204.974 193H202.246ZM205.029 189.568V187.093H213.345V189.568H205.029ZM222.51 193V177.16H224.897L230.375 188.38L235.853 177.16H238.24V193H235.765V182.847L230.903 193H229.847L224.996 182.847V193H222.51ZM240.23 193L245.224 177.16H249.107L254.101 193H251.373L246.841 178.788H247.435L242.958 193H240.23ZM243.013 189.568V187.093H251.329V189.568H243.013ZM259.258 193.33C258.048 193.33 257.039 193.015 256.233 192.384C255.433 191.753 254.872 190.903 254.55 189.832L257.168 189.205C257.248 189.652 257.483 190.037 257.872 190.36C258.26 190.683 258.689 190.844 259.159 190.844C259.467 190.844 259.793 190.763 260.138 190.602C260.482 190.433 260.739 190.166 260.908 189.799C261.01 189.564 261.069 189.286 261.084 188.963C261.106 188.633 261.117 188.252 261.117 187.819V177.16H263.801V187.819C263.801 188.31 263.797 188.743 263.79 189.117C263.79 189.484 263.753 189.832 263.68 190.162C263.614 190.485 263.478 190.818 263.273 191.163C262.84 191.911 262.275 192.461 261.579 192.813C260.882 193.158 260.108 193.33 259.258 193.33ZM273.81 193.33C272.226 193.33 270.87 192.985 269.74 192.296C268.611 191.599 267.742 190.631 267.133 189.392C266.532 188.153 266.231 186.715 266.231 185.08C266.231 183.445 266.532 182.007 267.133 180.768C267.742 179.529 268.611 178.564 269.74 177.875C270.87 177.178 272.226 176.83 273.81 176.83C275.394 176.83 276.751 177.178 277.88 177.875C279.017 178.564 279.886 179.529 280.487 180.768C281.096 182.007 281.4 183.445 281.4 185.08C281.4 186.715 281.096 188.153 280.487 189.392C279.886 190.631 279.017 191.599 277.88 192.296C276.751 192.985 275.394 193.33 273.81 193.33ZM273.81 190.833C274.874 190.84 275.757 190.606 276.461 190.129C277.173 189.652 277.704 188.981 278.056 188.116C278.416 187.251 278.595 186.239 278.595 185.08C278.595 183.921 278.416 182.917 278.056 182.066C277.704 181.208 277.173 180.541 276.461 180.064C275.757 179.587 274.874 179.342 273.81 179.327C272.747 179.32 271.863 179.554 271.159 180.031C270.455 180.508 269.924 181.179 269.564 182.044C269.212 182.909 269.036 183.921 269.036 185.08C269.036 186.239 269.212 187.247 269.564 188.105C269.916 188.956 270.444 189.619 271.148 190.096C271.86 190.573 272.747 190.818 273.81 190.833ZM283.59 193V177.16H290.135C290.289 177.16 290.487 177.167 290.729 177.182C290.971 177.189 291.194 177.211 291.4 177.248C292.316 177.387 293.072 177.692 293.666 178.161C294.267 178.63 294.711 179.224 294.997 179.943C295.29 180.654 295.437 181.446 295.437 182.319C295.437 183.61 295.11 184.721 294.458 185.652C293.805 186.576 292.804 187.148 291.455 187.368L290.322 187.467H286.241V193H283.59ZM292.687 193L289.563 186.554L292.258 185.96L295.69 193H292.687ZM286.241 184.992H290.025C290.171 184.992 290.336 184.985 290.52 184.97C290.703 184.955 290.872 184.926 291.026 184.882C291.466 184.772 291.81 184.578 292.06 184.299C292.316 184.02 292.496 183.705 292.599 183.353C292.709 183.001 292.764 182.656 292.764 182.319C292.764 181.982 292.709 181.637 292.599 181.285C292.496 180.926 292.316 180.607 292.06 180.328C291.81 180.049 291.466 179.855 291.026 179.745C290.872 179.701 290.703 179.675 290.52 179.668C290.336 179.653 290.171 179.646 290.025 179.646H286.241V184.992ZM301.418 193L306.412 177.16H310.295L315.289 193H312.561L308.029 178.788H308.623L304.146 193H301.418ZM304.201 189.568V187.093H312.517V189.568H304.201ZM317.277 193V177.16H323.822C323.976 177.16 324.174 177.167 324.416 177.182C324.658 177.189 324.882 177.211 325.087 177.248C326.004 177.387 326.759 177.692 327.353 178.161C327.955 178.63 328.398 179.224 328.684 179.943C328.978 180.654 329.124 181.446 329.124 182.319C329.124 183.61 328.798 184.721 328.145 185.652C327.493 186.576 326.492 187.148 325.142 187.368L324.009 187.467H319.928V193H317.277ZM326.374 193L323.25 186.554L325.945 185.96L329.377 193H326.374ZM319.928 184.992H323.712C323.859 184.992 324.024 184.985 324.207 184.97C324.391 184.955 324.559 184.926 324.713 184.882C325.153 184.772 325.498 184.578 325.747 184.299C326.004 184.02 326.184 183.705 326.286 183.353C326.396 183.001 326.451 182.656 326.451 182.319C326.451 181.982 326.396 181.637 326.286 181.285C326.184 180.926 326.004 180.607 325.747 180.328C325.498 180.049 325.153 179.855 324.713 179.745C324.559 179.701 324.391 179.675 324.207 179.668C324.024 179.653 323.859 179.646 323.712 179.646H319.928V184.992ZM331.801 193V177.16H342.031V179.646H334.452V183.551H340.711V186.037H334.452V190.514H342.031V193H331.801ZM343.57 193L348.564 177.16H352.447L357.441 193H354.713L350.181 178.788H350.775L346.298 193H343.57ZM346.353 189.568V187.093H354.669V189.568H346.353ZM370.533 193.33C368.949 193.33 367.592 192.985 366.463 192.296C365.334 191.599 364.465 190.631 363.856 189.392C363.255 188.153 362.954 186.715 362.954 185.08C362.954 183.445 363.255 182.007 363.856 180.768C364.465 179.529 365.334 178.564 366.463 177.875C367.592 177.178 368.949 176.83 370.533 176.83C372.117 176.83 373.474 177.178 374.603 177.875C375.74 178.564 376.609 179.529 377.21 180.768C377.819 182.007 378.123 183.445 378.123 185.08C378.123 186.715 377.819 188.153 377.21 189.392C376.609 190.631 375.74 191.599 374.603 192.296C373.474 192.985 372.117 193.33 370.533 193.33ZM370.533 190.833C371.596 190.84 372.48 190.606 373.184 190.129C373.895 189.652 374.427 188.981 374.779 188.116C375.138 187.251 375.318 186.239 375.318 185.08C375.318 183.921 375.138 182.917 374.779 182.066C374.427 181.208 373.895 180.541 373.184 180.064C372.48 179.587 371.596 179.342 370.533 179.327C369.47 179.32 368.586 179.554 367.882 180.031C367.178 180.508 366.646 181.179 366.287 182.044C365.935 182.909 365.759 183.921 365.759 185.08C365.759 186.239 365.935 187.247 366.287 188.105C366.639 188.956 367.167 189.619 367.871 190.096C368.582 190.573 369.47 190.818 370.533 190.833ZM380.312 193V177.16H389.849V179.811H382.963V183.76H388.529V186.4H382.963V193H380.312ZM400.082 193V186.51L394.692 177.16H397.783L401.424 183.474L405.054 177.16H408.145L402.766 186.51V193H400.082ZM415.5 193.33C413.916 193.33 412.559 192.985 411.43 192.296C410.3 191.599 409.431 190.631 408.823 189.392C408.221 188.153 407.921 186.715 407.921 185.08C407.921 183.445 408.221 182.007 408.823 180.768C409.431 179.529 410.3 178.564 411.43 177.875C412.559 177.178 413.916 176.83 415.5 176.83C417.084 176.83 418.44 177.178 419.57 177.875C420.706 178.564 421.575 179.529 422.177 180.768C422.785 182.007 423.09 183.445 423.09 185.08C423.09 186.715 422.785 188.153 422.177 189.392C421.575 190.631 420.706 191.599 419.57 192.296C418.44 192.985 417.084 193.33 415.5 193.33ZM415.5 190.833C416.563 190.84 417.447 190.606 418.151 190.129C418.862 189.652 419.394 188.981 419.746 188.116C420.105 187.251 420.285 186.239 420.285 185.08C420.285 183.921 420.105 182.917 419.746 182.066C419.394 181.208 418.862 180.541 418.151 180.064C417.447 179.587 416.563 179.342 415.5 179.327C414.436 179.32 413.553 179.554 412.849 180.031C412.145 180.508 411.613 181.179 411.254 182.044C410.902 182.909 410.726 183.921 410.726 185.08C410.726 186.239 410.902 187.247 411.254 188.105C411.606 188.956 412.134 189.619 412.838 190.096C413.549 190.573 414.436 190.818 415.5 190.833ZM431.659 193.33C430.398 193.33 429.287 193.073 428.326 192.56C427.373 192.047 426.625 191.324 426.082 190.393C425.547 189.462 425.279 188.369 425.279 187.115V177.182L427.963 177.16V187.049C427.963 187.643 428.062 188.175 428.26 188.644C428.466 189.113 428.741 189.513 429.085 189.843C429.43 190.166 429.826 190.411 430.273 190.58C430.721 190.749 431.183 190.833 431.659 190.833C432.151 190.833 432.616 190.749 433.056 190.58C433.504 190.404 433.9 190.155 434.244 189.832C434.589 189.502 434.86 189.102 435.058 188.633C435.256 188.164 435.355 187.636 435.355 187.049V177.16H438.039V187.115C438.039 188.369 437.768 189.462 437.225 190.393C436.69 191.324 435.942 192.047 434.981 192.56C434.028 193.073 432.921 193.33 431.659 193.33ZM441.113 193V177.16H447.658C447.812 177.16 448.01 177.167 448.252 177.182C448.494 177.189 448.718 177.211 448.923 177.248C449.84 177.387 450.595 177.692 451.189 178.161C451.791 178.63 452.234 179.224 452.52 179.943C452.814 180.654 452.96 181.446 452.96 182.319C452.96 183.61 452.634 184.721 451.981 185.652C451.329 186.576 450.328 187.148 448.978 187.368L447.845 187.467H443.764V193H441.113ZM450.21 193L447.086 186.554L449.781 185.96L453.213 193H450.21ZM443.764 184.992H447.548C447.695 184.992 447.86 184.985 448.043 184.97C448.227 184.955 448.395 184.926 448.549 184.882C448.989 184.772 449.334 184.578 449.583 184.299C449.84 184.02 450.02 183.705 450.122 183.353C450.232 183.001 450.287 182.656 450.287 182.319C450.287 181.982 450.232 181.637 450.122 181.285C450.02 180.926 449.84 180.607 449.583 180.328C449.334 180.049 448.989 179.855 448.549 179.745C448.395 179.701 448.227 179.675 448.043 179.668C447.86 179.653 447.695 179.646 447.548 179.646H443.764V184.992ZM460.261 193V177.16H462.912V190.514H469.908V193H460.261ZM471.991 193V177.16H474.642V193H471.991ZM477.937 193V177.16H487.474V179.811H480.588V183.76H486.154V186.4H480.588V193H477.937ZM489.453 193V177.16H499.683V179.646H492.104V183.551H498.363V186.037H492.104V190.514H499.683V193H489.453ZM67.9685 224.33C66.3845 224.33 65.0278 223.985 63.8985 223.296C62.7692 222.599 61.9002 221.631 61.2915 220.392C60.6902 219.153 60.3895 217.715 60.3895 216.08C60.3895 214.445 60.6902 213.007 61.2915 211.768C61.9002 210.529 62.7692 209.564 63.8985 208.875C65.0278 208.178 66.3845 207.83 67.9685 207.83C69.5525 207.83 70.9092 208.178 72.0385 208.875C73.1752 209.564 74.0442 210.529 74.6455 211.768C75.2542 213.007 75.5585 214.445 75.5585 216.08C75.5585 217.715 75.2542 219.153 74.6455 220.392C74.0442 221.631 73.1752 222.599 72.0385 223.296C70.9092 223.985 69.5525 224.33 67.9685 224.33ZM67.9685 221.833C69.0318 221.84 69.9155 221.606 70.6195 221.129C71.3308 220.652 71.8625 219.981 72.2145 219.116C72.5738 218.251 72.7535 217.239 72.7535 216.08C72.7535 214.921 72.5738 213.917 72.2145 213.066C71.8625 212.208 71.3308 211.541 70.6195 211.064C69.9155 210.587 69.0318 210.342 67.9685 210.327C66.9052 210.32 66.0215 210.554 65.3175 211.031C64.6135 211.508 64.0818 212.179 63.7225 213.044C63.3705 213.909 63.1945 214.921 63.1945 216.08C63.1945 217.239 63.3705 218.247 63.7225 219.105C64.0745 219.956 64.6025 220.619 65.3065 221.096C66.0178 221.573 66.9052 221.818 67.9685 221.833ZM77.748 224V208.16H84.293C84.447 208.16 84.645 208.167 84.887 208.182C85.129 208.189 85.3527 208.211 85.558 208.248C86.4747 208.387 87.23 208.692 87.824 209.161C88.4253 209.63 88.869 210.224 89.155 210.943C89.4483 211.654 89.595 212.446 89.595 213.319C89.595 214.61 89.2687 215.721 88.616 216.652C87.9633 217.576 86.9623 218.148 85.613 218.368L84.48 218.467H80.399V224H77.748ZM86.845 224L83.721 217.554L86.416 216.96L89.848 224H86.845ZM80.399 215.992H84.183C84.3297 215.992 84.4947 215.985 84.678 215.97C84.8613 215.955 85.03 215.926 85.184 215.882C85.624 215.772 85.9687 215.578 86.218 215.299C86.4747 215.02 86.6543 214.705 86.757 214.353C86.867 214.001 86.922 213.656 86.922 213.319C86.922 212.982 86.867 212.637 86.757 212.285C86.6543 211.926 86.4747 211.607 86.218 211.328C85.9687 211.049 85.624 210.855 85.184 210.745C85.03 210.701 84.8613 210.675 84.678 210.668C84.4947 210.653 84.3297 210.646 84.183 210.646H80.399V215.992ZM96.6757 224V208.16H106.906V210.646H99.3267V214.551H105.586V217.037H99.3267V221.514H106.906V224H96.6757ZM121.276 224.33L116.755 219.831L118.416 218.17L122.915 222.669L121.276 224.33ZM115.578 224.33C113.994 224.33 112.637 223.985 111.508 223.296C110.379 222.599 109.51 221.631 108.901 220.392C108.3 219.153 107.999 217.715 107.999 216.08C107.999 214.445 108.3 213.007 108.901 211.768C109.51 210.529 110.379 209.564 111.508 208.875C112.637 208.178 113.994 207.83 115.578 207.83C117.162 207.83 118.519 208.178 119.648 208.875C120.785 209.564 121.654 210.529 122.255 211.768C122.864 213.007 123.168 214.445 123.168 216.08C123.168 217.715 122.864 219.153 122.255 220.392C121.654 221.631 120.785 222.599 119.648 223.296C118.519 223.985 117.162 224.33 115.578 224.33ZM115.578 221.833C116.641 221.84 117.525 221.606 118.229 221.129C118.94 220.652 119.472 219.981 119.824 219.116C120.183 218.251 120.363 217.239 120.363 216.08C120.363 214.921 120.183 213.917 119.824 213.066C119.472 212.208 118.94 211.541 118.229 211.064C117.525 210.587 116.641 210.342 115.578 210.327C114.515 210.32 113.631 210.554 112.927 211.031C112.223 211.508 111.691 212.179 111.332 213.044C110.98 213.909 110.804 214.921 110.804 216.08C110.804 217.239 110.98 218.247 111.332 219.105C111.684 219.956 112.212 220.619 112.916 221.096C113.627 221.573 114.515 221.818 115.578 221.833ZM131.737 224.33C130.476 224.33 129.365 224.073 128.404 223.56C127.451 223.047 126.703 222.324 126.16 221.393C125.625 220.462 125.357 219.369 125.357 218.115V208.182L128.041 208.16V218.049C128.041 218.643 128.14 219.175 128.338 219.644C128.544 220.113 128.819 220.513 129.163 220.843C129.508 221.166 129.904 221.411 130.351 221.58C130.799 221.749 131.261 221.833 131.737 221.833C132.229 221.833 132.694 221.749 133.134 221.58C133.582 221.404 133.978 221.155 134.322 220.832C134.667 220.502 134.938 220.102 135.136 219.633C135.334 219.164 135.433 218.636 135.433 218.049V208.16H138.117V218.115C138.117 219.369 137.846 220.462 137.303 221.393C136.768 222.324 136.02 223.047 135.059 223.56C134.106 224.073 132.999 224.33 131.737 224.33ZM139.425 224L144.419 208.16H148.302L153.296 224H150.568L146.036 209.788H146.63L142.153 224H139.425ZM142.208 220.568V218.093H150.524V220.568H142.208ZM155.505 224V208.16H158.156V221.514H165.152V224H155.505ZM174.13 224V210.646H169.004V208.16H181.907V210.646H176.781V224H174.13ZM190.365 224.33C188.781 224.33 187.424 223.985 186.295 223.296C185.166 222.599 184.297 221.631 183.688 220.392C183.087 219.153 182.786 217.715 182.786 216.08C182.786 214.445 183.087 213.007 183.688 211.768C184.297 210.529 185.166 209.564 186.295 208.875C187.424 208.178 188.781 207.83 190.365 207.83C191.949 207.83 193.306 208.178 194.435 208.875C195.572 209.564 196.441 210.529 197.042 211.768C197.651 213.007 197.955 214.445 197.955 216.08C197.955 217.715 197.651 219.153 197.042 220.392C196.441 221.631 195.572 222.599 194.435 223.296C193.306 223.985 191.949 224.33 190.365 224.33ZM190.365 221.833C191.428 221.84 192.312 221.606 193.016 221.129C193.727 220.652 194.259 219.981 194.611 219.116C194.97 218.251 195.15 217.239 195.15 216.08C195.15 214.921 194.97 213.917 194.611 213.066C194.259 212.208 193.727 211.541 193.016 211.064C192.312 210.587 191.428 210.342 190.365 210.327C189.302 210.32 188.418 210.554 187.714 211.031C187.01 211.508 186.478 212.179 186.119 213.044C185.767 213.909 185.591 214.921 185.591 216.08C185.591 217.239 185.767 218.247 186.119 219.105C186.471 219.956 186.999 220.619 187.703 221.096C188.414 221.573 189.302 221.818 190.365 221.833ZM211.248 224.33C209.664 224.33 208.307 223.985 207.178 223.296C206.048 222.599 205.179 221.631 204.571 220.392C203.969 219.153 203.669 217.715 203.669 216.08C203.669 214.445 203.969 213.007 204.571 211.768C205.179 210.529 206.048 209.564 207.178 208.875C208.307 208.178 209.664 207.83 211.248 207.83C212.832 207.83 214.188 208.178 215.318 208.875C216.454 209.564 217.323 210.529 217.925 211.768C218.533 213.007 218.838 214.445 218.838 216.08C218.838 217.715 218.533 219.153 217.925 220.392C217.323 221.631 216.454 222.599 215.318 223.296C214.188 223.985 212.832 224.33 211.248 224.33ZM211.248 221.833C212.311 221.84 213.195 221.606 213.899 221.129C214.61 220.652 215.142 219.981 215.494 219.116C215.853 218.251 216.033 217.239 216.033 216.08C216.033 214.921 215.853 213.917 215.494 213.066C215.142 212.208 214.61 211.541 213.899 211.064C213.195 210.587 212.311 210.342 211.248 210.327C210.184 210.32 209.301 210.554 208.597 211.031C207.893 211.508 207.361 212.179 207.002 213.044C206.65 213.909 206.474 214.921 206.474 216.08C206.474 217.239 206.65 218.247 207.002 219.105C207.354 219.956 207.882 220.619 208.586 221.096C209.297 221.573 210.184 221.818 211.248 221.833ZM224.404 224V210.646H219.278V208.16H232.181V210.646H227.055V224H224.404ZM233.939 224V208.16H236.59V214.826H244.092V208.16H246.732V224H244.092V217.312H236.59V224H233.939ZM249.816 224V208.16H260.046V210.646H252.467V214.551H258.726V217.037H252.467V221.514H260.046V224H249.816ZM262.686 224V208.16H269.231C269.385 208.16 269.583 208.167 269.825 208.182C270.067 208.189 270.29 208.211 270.496 208.248C271.412 208.387 272.168 208.692 272.762 209.161C273.363 209.63 273.807 210.224 274.093 210.943C274.386 211.654 274.533 212.446 274.533 213.319C274.533 214.61 274.206 215.721 273.554 216.652C272.901 217.576 271.9 218.148 270.551 218.368L269.418 218.467H265.337V224H262.686ZM271.783 224L268.659 217.554L271.354 216.96L274.786 224H271.783ZM265.337 215.992H269.121C269.267 215.992 269.432 215.985 269.616 215.97C269.799 215.955 269.968 215.926 270.122 215.882C270.562 215.772 270.906 215.578 271.156 215.299C271.412 215.02 271.592 214.705 271.695 214.353C271.805 214.001 271.86 213.656 271.86 213.319C271.86 212.982 271.805 212.637 271.695 212.285C271.592 211.926 271.412 211.607 271.156 211.328C270.906 211.049 270.562 210.855 270.122 210.745C269.968 210.701 269.799 210.675 269.616 210.668C269.432 210.653 269.267 210.646 269.121 210.646H265.337V215.992ZM283.072 224.33C281.913 224.33 280.868 224.128 279.937 223.725C279.013 223.322 278.25 222.746 277.649 221.998C277.055 221.243 276.677 220.348 276.516 219.314L279.266 218.896C279.501 219.835 279.981 220.561 280.707 221.074C281.44 221.587 282.284 221.844 283.237 221.844C283.802 221.844 284.333 221.756 284.832 221.58C285.331 221.404 285.734 221.147 286.042 220.81C286.357 220.473 286.515 220.058 286.515 219.567C286.515 219.347 286.478 219.145 286.405 218.962C286.332 218.771 286.222 218.603 286.075 218.456C285.936 218.309 285.752 218.177 285.525 218.06C285.305 217.935 285.048 217.829 284.755 217.741L280.663 216.531C280.311 216.428 279.93 216.293 279.519 216.124C279.116 215.948 278.731 215.71 278.364 215.409C278.005 215.101 277.708 214.712 277.473 214.243C277.246 213.766 277.132 213.18 277.132 212.483C277.132 211.464 277.389 210.609 277.902 209.92C278.423 209.223 279.119 208.703 279.992 208.358C280.872 208.013 281.847 207.845 282.918 207.852C284.003 207.859 284.971 208.046 285.822 208.413C286.673 208.772 287.384 209.297 287.956 209.986C288.528 210.675 288.931 211.508 289.166 212.483L286.317 212.978C286.2 212.421 285.972 211.948 285.635 211.559C285.305 211.163 284.898 210.862 284.414 210.657C283.937 210.452 283.428 210.342 282.885 210.327C282.357 210.32 281.866 210.4 281.411 210.569C280.964 210.73 280.601 210.965 280.322 211.273C280.051 211.581 279.915 211.94 279.915 212.351C279.915 212.74 280.032 213.059 280.267 213.308C280.502 213.55 280.791 213.744 281.136 213.891C281.488 214.03 281.844 214.148 282.203 214.243L285.041 215.035C285.43 215.138 285.866 215.277 286.35 215.453C286.834 215.629 287.3 215.875 287.747 216.19C288.194 216.505 288.561 216.92 288.847 217.433C289.14 217.946 289.287 218.599 289.287 219.391C289.287 220.212 289.115 220.935 288.77 221.558C288.433 222.174 287.974 222.687 287.395 223.098C286.816 223.509 286.152 223.817 285.404 224.022C284.663 224.227 283.886 224.33 283.072 224.33ZM301.638 227.531C300.78 226.534 300.047 225.404 299.438 224.143C298.83 222.889 298.368 221.573 298.052 220.194C297.737 218.815 297.59 217.444 297.612 216.08C297.59 214.716 297.737 213.345 298.052 211.966C298.368 210.58 298.83 209.26 299.438 208.006C300.047 206.752 300.78 205.626 301.638 204.629L303.596 206.081C302.716 207.144 302.012 208.219 301.484 209.304C300.964 210.389 300.59 211.497 300.362 212.626C300.135 213.748 300.018 214.899 300.01 216.08C300.018 217.261 300.135 218.416 300.362 219.545C300.597 220.667 300.975 221.774 301.495 222.867C302.016 223.952 302.716 225.019 303.596 226.068L301.638 227.531ZM309.385 224L304.754 208.16H307.537L310.694 219.6L313.84 208.182L316.623 208.16L319.78 219.6L322.926 208.16H325.709L321.089 224H318.471L315.226 212.736L312.003 224H309.385ZM333.773 224.33C332.189 224.33 330.833 223.985 329.703 223.296C328.574 222.599 327.705 221.631 327.096 220.392C326.495 219.153 326.194 217.715 326.194 216.08C326.194 214.445 326.495 213.007 327.096 211.768C327.705 210.529 328.574 209.564 329.703 208.875C330.833 208.178 332.189 207.83 333.773 207.83C335.357 207.83 336.714 208.178 337.843 208.875C338.98 209.564 339.849 210.529 340.45 211.768C341.059 213.007 341.363 214.445 341.363 216.08C341.363 217.715 341.059 219.153 340.45 220.392C339.849 221.631 338.98 222.599 337.843 223.296C336.714 223.985 335.357 224.33 333.773 224.33ZM333.773 221.833C334.837 221.84 335.72 221.606 336.424 221.129C337.136 220.652 337.667 219.981 338.019 219.116C338.379 218.251 338.558 217.239 338.558 216.08C338.558 214.921 338.379 213.917 338.019 213.066C337.667 212.208 337.136 211.541 336.424 211.064C335.72 210.587 334.837 210.342 333.773 210.327C332.71 210.32 331.826 210.554 331.122 211.031C330.418 211.508 329.887 212.179 329.527 213.044C329.175 213.909 328.999 214.921 328.999 216.08C328.999 217.239 329.175 218.247 329.527 219.105C329.879 219.956 330.407 220.619 331.111 221.096C331.823 221.573 332.71 221.818 333.773 221.833ZM343.553 224V208.16H350.098C350.252 208.16 350.45 208.167 350.692 208.182C350.934 208.189 351.157 208.211 351.363 208.248C352.279 208.387 353.035 208.692 353.629 209.161C354.23 209.63 354.674 210.224 354.96 210.943C355.253 211.654 355.4 212.446 355.4 213.319C355.4 214.61 355.073 215.721 354.421 216.652C353.768 217.576 352.767 218.148 351.418 218.368L350.285 218.467H346.204V224H343.553ZM352.65 224L349.526 217.554L352.221 216.96L355.653 224H352.65ZM346.204 215.992H349.988C350.134 215.992 350.299 215.985 350.483 215.97C350.666 215.955 350.835 215.926 350.989 215.882C351.429 215.772 351.773 215.578 352.023 215.299C352.279 215.02 352.459 214.705 352.562 214.353C352.672 214.001 352.727 213.656 352.727 213.319C352.727 212.982 352.672 212.637 352.562 212.285C352.459 211.926 352.279 211.607 352.023 211.328C351.773 211.049 351.429 210.855 350.989 210.745C350.835 210.701 350.666 210.675 350.483 210.668C350.299 210.653 350.134 210.646 349.988 210.646H346.204V215.992ZM358.076 224V208.16H360.727V215.508L367.052 208.16H370.308L363.499 215.926L370.77 224H367.404L360.727 216.608V224H358.076ZM372.1 226.805L372.254 225.661C372.592 225.69 372.859 225.632 373.057 225.485C373.255 225.346 373.387 225.144 373.453 224.88C373.527 224.623 373.545 224.33 373.508 224H372.1V221.173H374.817V224.11C374.817 225.071 374.59 225.797 374.135 226.288C373.681 226.779 373.002 226.952 372.1 226.805ZM383.406 224V208.16H392.943V210.811H386.057V214.76H391.623V217.4H386.057V224H383.406ZM394.922 224V208.16H401.467C401.621 208.16 401.819 208.167 402.061 208.182C402.303 208.189 402.527 208.211 402.732 208.248C403.649 208.387 404.404 208.692 404.998 209.161C405.599 209.63 406.043 210.224 406.329 210.943C406.622 211.654 406.769 212.446 406.769 213.319C406.769 214.61 406.443 215.721 405.79 216.652C405.137 217.576 404.136 218.148 402.787 218.368L401.654 218.467H397.573V224H394.922ZM404.019 224L400.895 217.554L403.59 216.96L407.022 224H404.019ZM397.573 215.992H401.357C401.504 215.992 401.669 215.985 401.852 215.97C402.035 215.955 402.204 215.926 402.358 215.882C402.798 215.772 403.143 215.578 403.392 215.299C403.649 215.02 403.828 214.705 403.931 214.353C404.041 214.001 404.096 213.656 404.096 213.319C404.096 212.982 404.041 212.637 403.931 212.285C403.828 211.926 403.649 211.607 403.392 211.328C403.143 211.049 402.798 210.855 402.358 210.745C402.204 210.701 402.035 210.675 401.852 210.668C401.669 210.653 401.504 210.646 401.357 210.646H397.573V215.992ZM409.665 224V208.16H412.316V224H409.665ZM415.611 224V208.16H425.841V210.646H418.262V214.551H424.521V217.037H418.262V221.514H425.841V224H415.611ZM428.48 224V208.16H431.164L438.512 219.325V208.16H441.196V224H438.512L431.164 212.835V224H428.48ZM444.271 224V208.16H449.32C449.452 208.16 449.713 208.164 450.101 208.171C450.497 208.178 450.879 208.204 451.245 208.248C452.499 208.409 453.559 208.857 454.424 209.59C455.297 210.316 455.957 211.244 456.404 212.373C456.852 213.502 457.075 214.738 457.075 216.08C457.075 217.422 456.852 218.658 456.404 219.787C455.957 220.916 455.297 221.848 454.424 222.581C453.559 223.307 452.499 223.751 451.245 223.912C450.886 223.956 450.508 223.982 450.112 223.989C449.716 223.996 449.452 224 449.32 224H444.271ZM446.966 221.503H449.32C449.54 221.503 449.819 221.496 450.156 221.481C450.501 221.466 450.805 221.433 451.069 221.382C451.817 221.243 452.426 220.909 452.895 220.381C453.365 219.853 453.709 219.211 453.929 218.456C454.157 217.701 454.27 216.909 454.27 216.08C454.27 215.222 454.157 214.415 453.929 213.66C453.702 212.905 453.35 212.27 452.873 211.757C452.404 211.244 451.803 210.917 451.069 210.778C450.805 210.719 450.501 210.686 450.156 210.679C449.819 210.664 449.54 210.657 449.32 210.657H446.966V221.503ZM465.539 224.33C464.38 224.33 463.335 224.128 462.404 223.725C461.48 223.322 460.717 222.746 460.116 221.998C459.522 221.243 459.144 220.348 458.983 219.314L461.733 218.896C461.967 219.835 462.448 220.561 463.174 221.074C463.907 221.587 464.75 221.844 465.704 221.844C466.268 221.844 466.8 221.756 467.299 221.58C467.797 221.404 468.201 221.147 468.509 220.81C468.824 220.473 468.982 220.058 468.982 219.567C468.982 219.347 468.945 219.145 468.872 218.962C468.798 218.771 468.688 218.603 468.542 218.456C468.402 218.309 468.219 218.177 467.992 218.06C467.772 217.935 467.515 217.829 467.222 217.741L463.13 216.531C462.778 216.428 462.396 216.293 461.986 216.124C461.582 215.948 461.197 215.71 460.831 215.409C460.471 215.101 460.174 214.712 459.94 214.243C459.712 213.766 459.599 213.18 459.599 212.483C459.599 211.464 459.855 210.609 460.369 209.92C460.889 209.223 461.586 208.703 462.459 208.358C463.339 208.013 464.314 207.845 465.385 207.852C466.47 207.859 467.438 208.046 468.289 208.413C469.139 208.772 469.851 209.297 470.423 209.986C470.995 210.675 471.398 211.508 471.633 212.483L468.784 212.978C468.666 212.421 468.439 211.948 468.102 211.559C467.772 211.163 467.365 210.862 466.881 210.657C466.404 210.452 465.894 210.342 465.352 210.327C464.824 210.32 464.332 210.4 463.878 210.569C463.43 210.73 463.067 210.965 462.789 211.273C462.517 211.581 462.382 211.94 462.382 212.351C462.382 212.74 462.499 213.059 462.734 213.308C462.968 213.55 463.258 213.744 463.603 213.891C463.955 214.03 464.31 214.148 464.67 214.243L467.508 215.035C467.896 215.138 468.333 215.277 468.817 215.453C469.301 215.629 469.766 215.875 470.214 216.19C470.661 216.505 471.028 216.92 471.314 217.433C471.607 217.946 471.754 218.599 471.754 219.391C471.754 220.212 471.581 220.935 471.237 221.558C470.899 222.174 470.441 222.687 469.862 223.098C469.282 223.509 468.619 223.817 467.871 224.022C467.13 224.227 466.353 224.33 465.539 224.33ZM478.539 224V208.16H488.769V210.646H481.19V214.551H487.449V217.037H481.19V221.514H488.769V224H478.539ZM495.214 224V210.646H490.088V208.16H502.991V210.646H497.865V224H495.214ZM511.449 224.33C509.865 224.33 508.508 223.985 507.379 223.296C506.25 222.599 505.381 221.631 504.772 220.392C504.171 219.153 503.87 217.715 503.87 216.08C503.87 214.445 504.171 213.007 504.772 211.768C505.381 210.529 506.25 209.564 507.379 208.875C508.508 208.178 509.865 207.83 511.449 207.83C513.275 207.83 514.797 208.288 516.014 209.205C517.231 210.114 518.086 211.343 518.577 212.89L515.904 213.627C515.596 212.593 515.072 211.786 514.331 211.207C513.59 210.62 512.63 210.327 511.449 210.327C510.386 210.327 509.498 210.565 508.787 211.042C508.083 211.519 507.551 212.19 507.192 213.055C506.84 213.913 506.66 214.921 506.653 216.08C506.653 217.239 506.829 218.251 507.181 219.116C507.54 219.974 508.076 220.641 508.787 221.118C509.498 221.595 510.386 221.833 511.449 221.833C512.63 221.833 513.59 221.54 514.331 220.953C515.072 220.366 515.596 219.56 515.904 218.533L518.577 219.27C518.086 220.817 517.231 222.049 516.014 222.966C514.797 223.875 513.275 224.33 511.449 224.33ZM521.002 227.531L519.044 226.068C519.924 225.019 520.624 223.952 521.145 222.867C521.665 221.774 522.039 220.667 522.267 219.545C522.501 218.416 522.622 217.261 522.63 216.08C522.622 214.899 522.505 213.748 522.278 212.626C522.05 211.497 521.673 210.389 521.145 209.304C520.624 208.219 519.924 207.144 519.044 206.081L521.002 204.629C521.86 205.626 522.593 206.752 523.202 208.006C523.81 209.26 524.272 210.58 524.588 211.966C524.903 213.345 525.05 214.716 525.028 216.08C525.05 217.444 524.903 218.815 524.588 220.194C524.272 221.573 523.81 222.889 523.202 224.143C522.593 225.404 521.86 226.534 521.002 227.531ZM532.521 219.699C532.521 219.193 532.569 218.705 532.664 218.236C532.767 217.759 532.932 217.319 533.159 216.916C533.357 216.527 533.577 216.219 533.819 215.992C534.061 215.757 534.333 215.526 534.633 215.299C534.934 215.064 535.268 214.753 535.634 214.364C535.935 214.034 536.133 213.708 536.228 213.385C536.324 213.055 536.371 212.703 536.371 212.329C536.371 212.087 536.346 211.86 536.294 211.647C536.243 211.434 536.151 211.251 536.019 211.097C535.814 210.826 535.55 210.635 535.227 210.525C534.905 210.408 534.56 210.349 534.193 210.349C533.893 210.349 533.603 210.389 533.324 210.47C533.053 210.543 532.822 210.661 532.631 210.822C532.411 210.998 532.25 211.214 532.147 211.471C532.045 211.728 531.997 212.01 532.004 212.318H529.21C529.284 211.585 529.482 210.906 529.804 210.283C530.134 209.652 530.567 209.15 531.102 208.776C531.52 208.468 531.99 208.237 532.51 208.083C533.038 207.929 533.566 207.852 534.094 207.852C534.901 207.852 535.66 207.977 536.371 208.226C537.09 208.475 537.688 208.886 538.164 209.458C538.494 209.832 538.744 210.265 538.912 210.756C539.088 211.247 539.176 211.746 539.176 212.252C539.176 213.007 539.011 213.697 538.681 214.32C538.359 214.943 537.948 215.519 537.449 216.047C537.215 216.296 536.991 216.516 536.778 216.707C536.566 216.898 536.368 217.085 536.184 217.268C536.008 217.444 535.862 217.631 535.744 217.829C535.539 218.174 535.418 218.467 535.381 218.709C535.345 218.944 535.326 219.274 535.326 219.699H532.521ZM532.543 224V221.085H535.326V224H532.543Z" fill="white"></path> <rect x="20" y="20" width="76" height="40" rx="20" fill="white" fill-opacity="0.3"></rect> <path d="M33.2606 46V34.48H39.9806V35.904H34.6846V39.528H39.0206V40.952H34.6846V46H33.2606ZM40.4606 46L44.3166 34.48H46.3006L50.1566 46H48.6766L45.0686 35.312H45.5166L41.9406 46H40.4606ZM42.3166 43.304V41.968H48.3006V43.304H42.3166ZM51.5888 46V34.48H52.8848L57.2368 43.656L61.5648 34.48H62.8768V45.992H61.5248V37.608L57.6128 46H56.8528L52.9408 37.608V46H51.5888ZM65.28 46V34.48H66.704V46H65.28ZM69.2644 46V34.48H70.6884V44.648H76.0324V46H69.2644ZM78.5519 46V41.208L74.6719 34.48H76.3279L79.2719 39.576L82.2079 34.48H83.8639L79.9919 41.208V46H78.5519Z" fill="white"></path> <defs> <linearGradient id="paint0_linear_160_79" x1="300" y1="0" x2="300" y2="400" gradientUnits="userSpaceOnUse"> <stop stop-color="#FF758C"></stop> <stop offset="1" stop-color="#FF7EB3"></stop> </linearGradient> </defs> </svg> 