<?xml version="1.0" encoding="UTF-8"?> <svg xmlns="http://www.w3.org/2000/svg" width="600" height="400" viewBox="0 0 600 400" fill="none"> <g clip-path="url(#clip0_1323_247)"> <rect width="600" height="400" rx="20" fill="#A91F49"></rect> <path d="M126.582 193V177.16H129.233V193H126.582ZM132.528 193V177.16H135.212L142.56 188.325V177.16H145.244V193H142.56L135.212 181.835V193H132.528ZM156.574 193V186.51L151.184 177.16H154.275L157.916 183.474L161.546 177.16H164.637L159.258 186.51V193H156.574ZM171.991 193.33C170.407 193.33 169.05 192.985 167.921 192.296C166.792 191.599 165.923 190.631 165.314 189.392C164.713 188.153 164.412 186.715 164.412 185.08C164.412 183.445 164.713 182.007 165.314 180.768C165.923 179.529 166.792 178.564 167.921 177.875C169.05 177.178 170.407 176.83 171.991 176.83C173.575 176.83 174.932 177.178 176.061 177.875C177.198 178.564 178.067 179.529 178.668 180.768C179.277 182.007 179.581 183.445 179.581 185.08C179.581 186.715 179.277 188.153 178.668 189.392C178.067 190.631 177.198 191.599 176.061 192.296C174.932 192.985 173.575 193.33 171.991 193.33ZM171.991 190.833C173.054 190.84 173.938 190.606 174.642 190.129C175.353 189.652 175.885 188.981 176.237 188.116C176.596 187.251 176.776 186.239 176.776 185.08C176.776 183.921 176.596 182.917 176.237 182.066C175.885 181.208 175.353 180.541 174.642 180.064C173.938 179.587 173.054 179.342 171.991 179.327C170.928 179.32 170.044 179.554 169.34 180.031C168.636 180.508 168.104 181.179 167.745 182.044C167.393 182.909 167.217 183.921 167.217 185.08C167.217 186.239 167.393 187.247 167.745 188.105C168.097 188.956 168.625 189.619 169.329 190.096C170.04 190.573 170.928 190.818 171.991 190.833ZM188.15 193.33C186.889 193.33 185.778 193.073 184.817 192.56C183.864 192.047 183.116 191.324 182.573 190.393C182.038 189.462 181.77 188.369 181.77 187.115V177.182L184.454 177.16V187.049C184.454 187.643 184.553 188.175 184.751 188.644C184.957 189.113 185.232 189.513 185.576 189.843C185.921 190.166 186.317 190.411 186.764 190.58C187.212 190.749 187.674 190.833 188.15 190.833C188.642 190.833 189.107 190.749 189.547 190.58C189.995 190.404 190.391 190.155 190.735 189.832C191.08 189.502 191.351 189.102 191.549 188.633C191.747 188.164 191.846 187.636 191.846 187.049V177.16H194.53V187.115C194.53 188.369 194.259 189.462 193.716 190.393C193.181 191.324 192.433 192.047 191.472 192.56C190.519 193.073 189.412 193.33 188.15 193.33ZM197.604 193V177.16H204.149C204.303 177.16 204.501 177.167 204.743 177.182C204.985 177.189 205.209 177.211 205.414 177.248C206.331 177.387 207.086 177.692 207.68 178.161C208.282 178.63 208.725 179.224 209.011 179.943C209.305 180.654 209.451 181.446 209.451 182.319C209.451 183.61 209.125 184.721 208.472 185.652C207.82 186.576 206.819 187.148 205.469 187.368L204.336 187.467H200.255V193H197.604ZM206.701 193L203.577 186.554L206.272 185.96L209.704 193H206.701ZM200.255 184.992H204.039C204.186 184.992 204.351 184.985 204.534 184.97C204.718 184.955 204.886 184.926 205.04 184.882C205.48 184.772 205.825 184.578 206.074 184.299C206.331 184.02 206.511 183.705 206.613 183.353C206.723 183.001 206.778 182.656 206.778 182.319C206.778 181.982 206.723 181.637 206.613 181.285C206.511 180.926 206.331 180.607 206.074 180.328C205.825 180.049 205.48 179.855 205.04 179.745C204.886 179.701 204.718 179.675 204.534 179.668C204.351 179.653 204.186 179.646 204.039 179.646H200.255V184.992ZM223.231 193.33C221.647 193.33 220.291 192.985 219.161 192.296C218.032 191.599 217.163 190.631 216.554 189.392C215.953 188.153 215.652 186.715 215.652 185.08C215.652 183.445 215.953 182.007 216.554 180.768C217.163 179.529 218.032 178.564 219.161 177.875C220.291 177.178 221.647 176.83 223.231 176.83C224.815 176.83 226.172 177.178 227.301 177.875C228.438 178.564 229.307 179.529 229.908 180.768C230.517 182.007 230.821 183.445 230.821 185.08C230.821 186.715 230.517 188.153 229.908 189.392C229.307 190.631 228.438 191.599 227.301 192.296C226.172 192.985 224.815 193.33 223.231 193.33ZM223.231 190.833C224.295 190.84 225.178 190.606 225.882 190.129C226.594 189.652 227.125 188.981 227.477 188.116C227.837 187.251 228.016 186.239 228.016 185.08C228.016 183.921 227.837 182.917 227.477 182.066C227.125 181.208 226.594 180.541 225.882 180.064C225.178 179.587 224.295 179.342 223.231 179.327C222.168 179.32 221.284 179.554 220.58 180.031C219.876 180.508 219.345 181.179 218.985 182.044C218.633 182.909 218.457 183.921 218.457 185.08C218.457 186.239 218.633 187.247 218.985 188.105C219.337 188.956 219.865 189.619 220.569 190.096C221.281 190.573 222.168 190.818 223.231 190.833ZM233.011 193V177.16H239.556C239.71 177.16 239.908 177.167 240.15 177.182C240.392 177.189 240.615 177.211 240.821 177.248C241.737 177.387 242.493 177.692 243.087 178.161C243.688 178.63 244.132 179.224 244.418 179.943C244.711 180.654 244.858 181.446 244.858 182.319C244.858 183.184 244.711 183.976 244.418 184.695C244.124 185.406 243.677 185.997 243.076 186.466C242.482 186.935 241.73 187.24 240.821 187.379C240.615 187.408 240.388 187.43 240.139 187.445C239.897 187.46 239.702 187.467 239.556 187.467H235.662V193H233.011ZM235.662 184.992H239.446C239.592 184.992 239.757 184.985 239.941 184.97C240.124 184.955 240.293 184.926 240.447 184.882C240.887 184.772 241.231 184.578 241.481 184.299C241.737 184.02 241.917 183.705 242.02 183.353C242.13 183.001 242.185 182.656 242.185 182.319C242.185 181.982 242.13 181.637 242.02 181.285C241.917 180.926 241.737 180.607 241.481 180.328C241.231 180.049 240.887 179.855 240.447 179.745C240.293 179.701 240.124 179.675 239.941 179.668C239.757 179.653 239.592 179.646 239.446 179.646H235.662V184.992ZM247.281 193V177.16H249.932V193H247.281ZM253.228 193V177.16H255.912L263.26 188.325V177.16H265.944V193H263.26L255.912 181.835V193H253.228ZM269.239 193V177.16H271.89V193H269.239ZM281.884 193.33C280.3 193.33 278.943 192.985 277.814 192.296C276.684 191.599 275.815 190.631 275.207 189.392C274.605 188.153 274.305 186.715 274.305 185.08C274.305 183.445 274.605 182.007 275.207 180.768C275.815 179.529 276.684 178.564 277.814 177.875C278.943 177.178 280.3 176.83 281.884 176.83C283.468 176.83 284.824 177.178 285.954 177.875C287.09 178.564 287.959 179.529 288.561 180.768C289.169 182.007 289.474 183.445 289.474 185.08C289.474 186.715 289.169 188.153 288.561 189.392C287.959 190.631 287.09 191.599 285.954 192.296C284.824 192.985 283.468 193.33 281.884 193.33ZM281.884 190.833C282.947 190.84 283.831 190.606 284.535 190.129C285.246 189.652 285.778 188.981 286.13 188.116C286.489 187.251 286.669 186.239 286.669 185.08C286.669 183.921 286.489 182.917 286.13 182.066C285.778 181.208 285.246 180.541 284.535 180.064C283.831 179.587 282.947 179.342 281.884 179.327C280.82 179.32 279.937 179.554 279.233 180.031C278.529 180.508 277.997 181.179 277.638 182.044C277.286 182.909 277.11 183.921 277.11 185.08C277.11 186.239 277.286 187.247 277.638 188.105C277.99 188.956 278.518 189.619 279.222 190.096C279.933 190.573 280.82 190.818 281.884 190.833ZM291.663 193V177.16H294.347L301.695 188.325V177.16H304.379V193H301.695L294.347 181.835V193H291.663ZM307.234 195.805L307.388 194.661C307.725 194.69 307.993 194.632 308.191 194.485C308.389 194.346 308.521 194.144 308.587 193.88C308.66 193.623 308.679 193.33 308.642 193H307.234V190.173H309.951V193.11C309.951 194.071 309.724 194.797 309.269 195.288C308.814 195.779 308.136 195.952 307.234 195.805ZM321.884 193L317.253 177.16H320.036L323.193 188.6L326.339 177.182L329.122 177.16L332.279 188.6L335.425 177.16H338.208L333.588 193H330.97L327.725 181.736L324.502 193H321.884ZM340.003 193V177.16H342.654V183.826H350.156V177.16H352.796V193H350.156V186.312H342.654V193H340.003ZM354.78 193L359.774 177.16H363.657L368.651 193H365.923L361.391 178.788H361.985L357.508 193H354.78ZM357.563 189.568V187.093H365.879V189.568H357.563ZM373.135 193V179.646H368.009V177.16H380.912V179.646H375.786V193H373.135ZM390.215 193V179.646H385.089V177.16H397.992V179.646H392.866V193H390.215ZM406.45 193.33C404.866 193.33 403.509 192.985 402.38 192.296C401.251 191.599 400.382 190.631 399.773 189.392C399.172 188.153 398.871 186.715 398.871 185.08C398.871 183.445 399.172 182.007 399.773 180.768C400.382 179.529 401.251 178.564 402.38 177.875C403.509 177.178 404.866 176.83 406.45 176.83C408.034 176.83 409.391 177.178 410.52 177.875C411.657 178.564 412.526 179.529 413.127 180.768C413.736 182.007 414.04 183.445 414.04 185.08C414.04 186.715 413.736 188.153 413.127 189.392C412.526 190.631 411.657 191.599 410.52 192.296C409.391 192.985 408.034 193.33 406.45 193.33ZM406.45 190.833C407.513 190.84 408.397 190.606 409.101 190.129C409.812 189.652 410.344 188.981 410.696 188.116C411.055 187.251 411.235 186.239 411.235 185.08C411.235 183.921 411.055 182.917 410.696 182.066C410.344 181.208 409.812 180.541 409.101 180.064C408.397 179.587 407.513 179.342 406.45 179.327C405.387 179.32 404.503 179.554 403.799 180.031C403.095 180.508 402.563 181.179 402.204 182.044C401.852 182.909 401.676 183.921 401.676 185.08C401.676 186.239 401.852 187.247 402.204 188.105C402.556 188.956 403.084 189.619 403.788 190.096C404.499 190.573 405.387 190.818 406.45 190.833ZM416.229 193V177.16H422.774C422.928 177.16 423.126 177.167 423.368 177.182C423.61 177.189 423.834 177.211 424.039 177.248C424.956 177.387 425.711 177.692 426.305 178.161C426.907 178.63 427.35 179.224 427.636 179.943C427.93 180.654 428.076 181.446 428.076 182.319C428.076 183.184 427.93 183.976 427.636 184.695C427.343 185.406 426.896 185.997 426.294 186.466C425.7 186.935 424.949 187.24 424.039 187.379C423.834 187.408 423.607 187.43 423.357 187.445C423.115 187.46 422.921 187.467 422.774 187.467H418.88V193H416.229ZM418.88 184.992H422.664C422.811 184.992 422.976 184.985 423.159 184.97C423.343 184.955 423.511 184.926 423.665 184.882C424.105 184.772 424.45 184.578 424.699 184.299C424.956 184.02 425.136 183.705 425.238 183.353C425.348 183.001 425.403 182.656 425.403 182.319C425.403 181.982 425.348 181.637 425.238 181.285C425.136 180.926 424.956 180.607 424.699 180.328C424.45 180.049 424.105 179.855 423.665 179.745C423.511 179.701 423.343 179.675 423.159 179.668C422.976 179.653 422.811 179.646 422.664 179.646H418.88V184.992ZM430.5 193V177.16H433.151V193H430.5ZM443.145 193.33C441.561 193.33 440.205 192.985 439.075 192.296C437.946 191.599 437.077 190.631 436.468 189.392C435.867 188.153 435.566 186.715 435.566 185.08C435.566 183.445 435.867 182.007 436.468 180.768C437.077 179.529 437.946 178.564 439.075 177.875C440.205 177.178 441.561 176.83 443.145 176.83C444.971 176.83 446.493 177.288 447.71 178.205C448.928 179.114 449.782 180.343 450.273 181.89L447.6 182.627C447.292 181.593 446.768 180.786 446.027 180.207C445.287 179.62 444.326 179.327 443.145 179.327C442.082 179.327 441.195 179.565 440.483 180.042C439.779 180.519 439.248 181.19 438.888 182.055C438.536 182.913 438.357 183.921 438.349 185.08C438.349 186.239 438.525 187.251 438.877 188.116C439.237 188.974 439.772 189.641 440.483 190.118C441.195 190.595 442.082 190.833 443.145 190.833C444.326 190.833 445.287 190.54 446.027 189.953C446.768 189.366 447.292 188.56 447.6 187.533L450.273 188.27C449.782 189.817 448.928 191.049 447.71 191.966C446.493 192.875 444.971 193.33 443.145 193.33ZM457.313 193V177.16H459.964V193H457.313ZM469.122 193.33C467.963 193.33 466.918 193.128 465.987 192.725C465.063 192.322 464.3 191.746 463.699 190.998C463.105 190.243 462.727 189.348 462.566 188.314L465.316 187.896C465.55 188.835 466.031 189.561 466.757 190.074C467.49 190.587 468.333 190.844 469.287 190.844C469.851 190.844 470.383 190.756 470.882 190.58C471.38 190.404 471.784 190.147 472.092 189.81C472.407 189.473 472.565 189.058 472.565 188.567C472.565 188.347 472.528 188.145 472.455 187.962C472.381 187.771 472.271 187.603 472.125 187.456C471.985 187.309 471.802 187.177 471.575 187.06C471.355 186.935 471.098 186.829 470.805 186.741L466.713 185.531C466.361 185.428 465.979 185.293 465.569 185.124C465.165 184.948 464.78 184.71 464.414 184.409C464.054 184.101 463.757 183.712 463.523 183.243C463.295 182.766 463.182 182.18 463.182 181.483C463.182 180.464 463.438 179.609 463.952 178.92C464.472 178.223 465.169 177.703 466.042 177.358C466.922 177.013 467.897 176.845 468.968 176.852C470.053 176.859 471.021 177.046 471.872 177.413C472.722 177.772 473.434 178.297 474.006 178.986C474.578 179.675 474.981 180.508 475.216 181.483L472.367 181.978C472.249 181.421 472.022 180.948 471.685 180.559C471.355 180.163 470.948 179.862 470.464 179.657C469.987 179.452 469.477 179.342 468.935 179.327C468.407 179.32 467.915 179.4 467.461 179.569C467.013 179.73 466.65 179.965 466.372 180.273C466.1 180.581 465.965 180.94 465.965 181.351C465.965 181.74 466.082 182.059 466.317 182.308C466.551 182.55 466.841 182.744 467.186 182.891C467.538 183.03 467.893 183.148 468.253 183.243L471.091 184.035C471.479 184.138 471.916 184.277 472.4 184.453C472.884 184.629 473.349 184.875 473.797 185.19C474.244 185.505 474.611 185.92 474.897 186.433C475.19 186.946 475.337 187.599 475.337 188.391C475.337 189.212 475.164 189.935 474.82 190.558C474.482 191.174 474.024 191.687 473.445 192.098C472.865 192.509 472.202 192.817 471.454 193.022C470.713 193.227 469.936 193.33 469.122 193.33ZM99.6194 224V208.16H102.27V224H99.6194ZM105.565 224V208.16H108.249L115.597 219.325V208.16H118.281V224H115.597L108.249 212.835V224H105.565ZM120.256 224L125.25 208.16H129.133L134.127 224H131.399L126.867 209.788H127.461L122.984 224H120.256ZM123.039 220.568V218.093H131.355V220.568H123.039ZM136.116 224V208.16H142.661C142.815 208.16 143.013 208.167 143.255 208.182C143.497 208.189 143.721 208.211 143.926 208.248C144.843 208.387 145.598 208.692 146.192 209.161C146.794 209.63 147.237 210.224 147.523 210.943C147.817 211.654 147.963 212.446 147.963 213.319C147.963 214.184 147.817 214.976 147.523 215.695C147.23 216.406 146.783 216.997 146.181 217.466C145.587 217.935 144.836 218.24 143.926 218.379C143.721 218.408 143.494 218.43 143.244 218.445C143.002 218.46 142.808 218.467 142.661 218.467H138.767V224H136.116ZM138.767 215.992H142.551C142.698 215.992 142.863 215.985 143.046 215.97C143.23 215.955 143.398 215.926 143.552 215.882C143.992 215.772 144.337 215.578 144.586 215.299C144.843 215.02 145.023 214.705 145.125 214.353C145.235 214.001 145.29 213.656 145.29 213.319C145.29 212.982 145.235 212.637 145.125 212.285C145.023 211.926 144.843 211.607 144.586 211.328C144.337 211.049 143.992 210.855 143.552 210.745C143.398 210.701 143.23 210.675 143.046 210.668C142.863 210.653 142.698 210.646 142.551 210.646H138.767V215.992ZM150.167 224V208.16H156.712C156.866 208.16 157.064 208.167 157.306 208.182C157.548 208.189 157.772 208.211 157.977 208.248C158.894 208.387 159.649 208.692 160.243 209.161C160.844 209.63 161.288 210.224 161.574 210.943C161.867 211.654 162.014 212.446 162.014 213.319C162.014 214.184 161.867 214.976 161.574 215.695C161.281 216.406 160.833 216.997 160.232 217.466C159.638 217.935 158.886 218.24 157.977 218.379C157.772 218.408 157.544 218.43 157.295 218.445C157.053 218.46 156.859 218.467 156.712 218.467H152.818V224H150.167ZM152.818 215.992H156.602C156.749 215.992 156.914 215.985 157.097 215.97C157.28 215.955 157.449 215.926 157.603 215.882C158.043 215.772 158.388 215.578 158.637 215.299C158.894 215.02 159.073 214.705 159.176 214.353C159.286 214.001 159.341 213.656 159.341 213.319C159.341 212.982 159.286 212.637 159.176 212.285C159.073 211.926 158.894 211.607 158.637 211.328C158.388 211.049 158.043 210.855 157.603 210.745C157.449 210.701 157.28 210.675 157.097 210.668C156.914 210.653 156.749 210.646 156.602 210.646H152.818V215.992ZM164.218 224V208.16H170.763C170.917 208.16 171.115 208.167 171.357 208.182C171.599 208.189 171.822 208.211 172.028 208.248C172.944 208.387 173.7 208.692 174.294 209.161C174.895 209.63 175.339 210.224 175.625 210.943C175.918 211.654 176.065 212.446 176.065 213.319C176.065 214.61 175.738 215.721 175.086 216.652C174.433 217.576 173.432 218.148 172.083 218.368L170.95 218.467H166.869V224H164.218ZM173.315 224L170.191 217.554L172.886 216.96L176.318 224H173.315ZM166.869 215.992H170.653C170.799 215.992 170.964 215.985 171.148 215.97C171.331 215.955 171.5 215.926 171.654 215.882C172.094 215.772 172.438 215.578 172.688 215.299C172.944 215.02 173.124 214.705 173.227 214.353C173.337 214.001 173.392 213.656 173.392 213.319C173.392 212.982 173.337 212.637 173.227 212.285C173.124 211.926 172.944 211.607 172.688 211.328C172.438 211.049 172.094 210.855 171.654 210.745C171.5 210.701 171.331 210.675 171.148 210.668C170.964 210.653 170.799 210.646 170.653 210.646H166.869V215.992ZM185.44 224.33C183.856 224.33 182.5 223.985 181.37 223.296C180.241 222.599 179.372 221.631 178.763 220.392C178.162 219.153 177.861 217.715 177.861 216.08C177.861 214.445 178.162 213.007 178.763 211.768C179.372 210.529 180.241 209.564 181.37 208.875C182.5 208.178 183.856 207.83 185.44 207.83C187.024 207.83 188.381 208.178 189.51 208.875C190.647 209.564 191.516 210.529 192.117 211.768C192.726 213.007 193.03 214.445 193.03 216.08C193.03 217.715 192.726 219.153 192.117 220.392C191.516 221.631 190.647 222.599 189.51 223.296C188.381 223.985 187.024 224.33 185.44 224.33ZM185.44 221.833C186.504 221.84 187.387 221.606 188.091 221.129C188.803 220.652 189.334 219.981 189.686 219.116C190.046 218.251 190.225 217.239 190.225 216.08C190.225 214.921 190.046 213.917 189.686 213.066C189.334 212.208 188.803 211.541 188.091 211.064C187.387 210.587 186.504 210.342 185.44 210.327C184.377 210.32 183.493 210.554 182.789 211.031C182.085 211.508 181.554 212.179 181.194 213.044C180.842 213.909 180.666 214.921 180.666 216.08C180.666 217.239 180.842 218.247 181.194 219.105C181.546 219.956 182.074 220.619 182.778 221.096C183.49 221.573 184.377 221.818 185.44 221.833ZM195.22 224V208.16H201.765C201.919 208.16 202.117 208.167 202.359 208.182C202.601 208.189 202.824 208.211 203.03 208.248C203.946 208.387 204.702 208.692 205.296 209.161C205.897 209.63 206.341 210.224 206.627 210.943C206.92 211.654 207.067 212.446 207.067 213.319C207.067 214.184 206.92 214.976 206.627 215.695C206.333 216.406 205.886 216.997 205.285 217.466C204.691 217.935 203.939 218.24 203.03 218.379C202.824 218.408 202.597 218.43 202.348 218.445C202.106 218.46 201.911 218.467 201.765 218.467H197.871V224H195.22ZM197.871 215.992H201.655C201.801 215.992 201.966 215.985 202.15 215.97C202.333 215.955 202.502 215.926 202.656 215.882C203.096 215.772 203.44 215.578 203.69 215.299C203.946 215.02 204.126 214.705 204.229 214.353C204.339 214.001 204.394 213.656 204.394 213.319C204.394 212.982 204.339 212.637 204.229 212.285C204.126 211.926 203.946 211.607 203.69 211.328C203.44 211.049 203.096 210.855 202.656 210.745C202.502 210.701 202.333 210.675 202.15 210.668C201.966 210.653 201.801 210.646 201.655 210.646H197.871V215.992ZM209.27 224V208.16H215.815C215.969 208.16 216.167 208.167 216.409 208.182C216.651 208.189 216.875 208.211 217.08 208.248C217.997 208.387 218.752 208.692 219.346 209.161C219.948 209.63 220.391 210.224 220.677 210.943C220.971 211.654 221.117 212.446 221.117 213.319C221.117 214.61 220.791 215.721 220.138 216.652C219.486 217.576 218.485 218.148 217.135 218.368L216.002 218.467H211.921V224H209.27ZM218.367 224L215.243 217.554L217.938 216.96L221.37 224H218.367ZM211.921 215.992H215.705C215.852 215.992 216.017 215.985 216.2 215.97C216.384 215.955 216.552 215.926 216.706 215.882C217.146 215.772 217.491 215.578 217.74 215.299C217.997 215.02 218.177 214.705 218.279 214.353C218.389 214.001 218.444 213.656 218.444 213.319C218.444 212.982 218.389 212.637 218.279 212.285C218.177 211.926 217.997 211.607 217.74 211.328C217.491 211.049 217.146 210.855 216.706 210.745C216.552 210.701 216.384 210.675 216.2 210.668C216.017 210.653 215.852 210.646 215.705 210.646H211.921V215.992ZM224.014 224V208.16H226.665V224H224.014ZM228.86 224L233.854 208.16H237.737L242.731 224H240.003L235.471 209.788H236.065L231.588 224H228.86ZM231.643 220.568V218.093H239.959V220.568H231.643ZM247.215 224V210.646H242.089V208.16H254.992V210.646H249.866V224H247.215ZM256.751 224V208.16H266.981V210.646H259.402V214.551H265.661V217.037H259.402V221.514H266.981V224H256.751ZM277.83 224V210.646H272.704V208.16H285.607V210.646H280.481V224H277.83ZM294.065 224.33C292.481 224.33 291.125 223.985 289.995 223.296C288.866 222.599 287.997 221.631 287.388 220.392C286.787 219.153 286.486 217.715 286.486 216.08C286.486 214.445 286.787 213.007 287.388 211.768C287.997 210.529 288.866 209.564 289.995 208.875C291.125 208.178 292.481 207.83 294.065 207.83C295.649 207.83 297.006 208.178 298.135 208.875C299.272 209.564 300.141 210.529 300.742 211.768C301.351 213.007 301.655 214.445 301.655 216.08C301.655 217.715 301.351 219.153 300.742 220.392C300.141 221.631 299.272 222.599 298.135 223.296C297.006 223.985 295.649 224.33 294.065 224.33ZM294.065 221.833C295.129 221.84 296.012 221.606 296.716 221.129C297.428 220.652 297.959 219.981 298.311 219.116C298.671 218.251 298.85 217.239 298.85 216.08C298.85 214.921 298.671 213.917 298.311 213.066C297.959 212.208 297.428 211.541 296.716 211.064C296.012 210.587 295.129 210.342 294.065 210.327C293.002 210.32 292.118 210.554 291.414 211.031C290.71 211.508 290.179 212.179 289.819 213.044C289.467 213.909 289.291 214.921 289.291 216.08C289.291 217.239 289.467 218.247 289.819 219.105C290.171 219.956 290.699 220.619 291.403 221.096C292.115 221.573 293.002 221.818 294.065 221.833ZM308.249 224V208.16H314.53C315.601 208.16 316.477 208.376 317.159 208.809C317.848 209.234 318.358 209.781 318.688 210.448C319.025 211.115 319.194 211.805 319.194 212.516C319.194 213.389 318.985 214.129 318.567 214.738C318.156 215.347 317.595 215.757 316.884 215.97V215.42C317.881 215.647 318.637 216.12 319.15 216.839C319.671 217.558 319.931 218.375 319.931 219.292C319.931 220.231 319.751 221.052 319.392 221.756C319.033 222.46 318.497 223.01 317.786 223.406C317.082 223.802 316.209 224 315.168 224H308.249ZM310.933 221.503H314.838C315.3 221.503 315.714 221.411 316.081 221.228C316.448 221.037 316.734 220.773 316.939 220.436C317.152 220.091 317.258 219.684 317.258 219.215C317.258 218.79 317.166 218.408 316.983 218.071C316.8 217.734 316.532 217.466 316.18 217.268C315.828 217.063 315.406 216.96 314.915 216.96H310.933V221.503ZM310.933 214.485H314.497C314.878 214.485 315.219 214.412 315.52 214.265C315.821 214.118 316.059 213.902 316.235 213.616C316.411 213.33 316.499 212.978 316.499 212.56C316.499 212.01 316.323 211.552 315.971 211.185C315.619 210.818 315.128 210.635 314.497 210.635H310.933V214.485ZM322.128 224V208.16H332.358V210.646H324.779V214.551H331.038V217.037H324.779V221.514H332.358V224H322.128ZM342.569 224.33C341.359 224.33 340.351 224.015 339.544 223.384C338.745 222.753 338.184 221.903 337.861 220.832L340.479 220.205C340.56 220.652 340.795 221.037 341.183 221.36C341.572 221.683 342.001 221.844 342.47 221.844C342.778 221.844 343.105 221.763 343.449 221.602C343.794 221.433 344.051 221.166 344.219 220.799C344.322 220.564 344.381 220.286 344.395 219.963C344.417 219.633 344.428 219.252 344.428 218.819V208.16H347.112V218.819C347.112 219.31 347.109 219.743 347.101 220.117C347.101 220.484 347.065 220.832 346.991 221.162C346.925 221.485 346.79 221.818 346.584 222.163C346.152 222.911 345.587 223.461 344.89 223.813C344.194 224.158 343.42 224.33 342.569 224.33ZM357.122 224.33C355.538 224.33 354.181 223.985 353.052 223.296C351.922 222.599 351.053 221.631 350.445 220.392C349.843 219.153 349.543 217.715 349.543 216.08C349.543 214.445 349.843 213.007 350.445 211.768C351.053 210.529 351.922 209.564 353.052 208.875C354.181 208.178 355.538 207.83 357.122 207.83C358.706 207.83 360.062 208.178 361.192 208.875C362.328 209.564 363.197 210.529 363.799 211.768C364.407 213.007 364.712 214.445 364.712 216.08C364.712 217.715 364.407 219.153 363.799 220.392C363.197 221.631 362.328 222.599 361.192 223.296C360.062 223.985 358.706 224.33 357.122 224.33ZM357.122 221.833C358.185 221.84 359.069 221.606 359.773 221.129C360.484 220.652 361.016 219.981 361.368 219.116C361.727 218.251 361.907 217.239 361.907 216.08C361.907 214.921 361.727 213.917 361.368 213.066C361.016 212.208 360.484 211.541 359.773 211.064C359.069 210.587 358.185 210.342 357.122 210.327C356.058 210.32 355.175 210.554 354.471 211.031C353.767 211.508 353.235 212.179 352.876 213.044C352.524 213.909 352.348 214.921 352.348 216.08C352.348 217.239 352.524 218.247 352.876 219.105C353.228 219.956 353.756 220.619 354.46 221.096C355.171 221.573 356.058 221.818 357.122 221.833ZM366.901 224V208.16H369.552V215.508L375.877 208.16H379.133L372.324 215.926L379.595 224H376.229L369.552 216.608V224H366.901ZM381.145 224V208.16H391.375V210.646H383.796V214.551H390.055V217.037H383.796V221.514H391.375V224H381.145ZM394.015 224V208.16H399.064C399.196 208.16 399.456 208.164 399.845 208.171C400.241 208.178 400.622 208.204 400.989 208.248C402.243 208.409 403.302 208.857 404.168 209.59C405.04 210.316 405.7 211.244 406.148 212.373C406.595 213.502 406.819 214.738 406.819 216.08C406.819 217.422 406.595 218.658 406.148 219.787C405.7 220.916 405.04 221.848 404.168 222.581C403.302 223.307 402.243 223.751 400.989 223.912C400.629 223.956 400.252 223.982 399.856 223.989C399.46 223.996 399.196 224 399.064 224H394.015ZM396.71 221.503H399.064C399.284 221.503 399.562 221.496 399.9 221.481C400.244 221.466 400.549 221.433 400.813 221.382C401.561 221.243 402.169 220.909 402.639 220.381C403.108 219.853 403.453 219.211 403.673 218.456C403.9 217.701 404.014 216.909 404.014 216.08C404.014 215.222 403.9 214.415 403.673 213.66C403.445 212.905 403.093 212.27 402.617 211.757C402.147 211.244 401.546 210.917 400.813 210.778C400.549 210.719 400.244 210.686 399.9 210.679C399.562 210.664 399.284 210.657 399.064 210.657H396.71V221.503ZM412.723 224L417.717 208.16H421.6L426.594 224H423.866L419.334 209.788H419.928L415.451 224H412.723ZM415.506 220.568V218.093H423.822V220.568H415.506ZM428.583 224V208.16H434.864C435.935 208.16 436.811 208.376 437.493 208.809C438.182 209.234 438.692 209.781 439.022 210.448C439.359 211.115 439.528 211.805 439.528 212.516C439.528 213.389 439.319 214.129 438.901 214.738C438.49 215.347 437.929 215.757 437.218 215.97V215.42C438.215 215.647 438.971 216.12 439.484 216.839C440.005 217.558 440.265 218.375 440.265 219.292C440.265 220.231 440.085 221.052 439.726 221.756C439.367 222.46 438.831 223.01 438.12 223.406C437.416 223.802 436.543 224 435.502 224H428.583ZM431.267 221.503H435.172C435.634 221.503 436.048 221.411 436.415 221.228C436.782 221.037 437.068 220.773 437.273 220.436C437.486 220.091 437.592 219.684 437.592 219.215C437.592 218.79 437.5 218.408 437.317 218.071C437.134 217.734 436.866 217.466 436.514 217.268C436.162 217.063 435.74 216.96 435.249 216.96H431.267V221.503ZM431.267 214.485H434.831C435.212 214.485 435.553 214.412 435.854 214.265C436.155 214.118 436.393 213.902 436.569 213.616C436.745 213.33 436.833 212.978 436.833 212.56C436.833 212.01 436.657 211.552 436.305 211.185C435.953 210.818 435.462 210.635 434.831 210.635H431.267V214.485ZM449.161 224.33C447.577 224.33 446.22 223.985 445.091 223.296C443.962 222.599 443.093 221.631 442.484 220.392C441.883 219.153 441.582 217.715 441.582 216.08C441.582 214.445 441.883 213.007 442.484 211.768C443.093 210.529 443.962 209.564 445.091 208.875C446.22 208.178 447.577 207.83 449.161 207.83C450.745 207.83 452.102 208.178 453.231 208.875C454.368 209.564 455.237 210.529 455.838 211.768C456.447 213.007 456.751 214.445 456.751 216.08C456.751 217.715 456.447 219.153 455.838 220.392C455.237 221.631 454.368 222.599 453.231 223.296C452.102 223.985 450.745 224.33 449.161 224.33ZM449.161 221.833C450.224 221.84 451.108 221.606 451.812 221.129C452.523 220.652 453.055 219.981 453.407 219.116C453.766 218.251 453.946 217.239 453.946 216.08C453.946 214.921 453.766 213.917 453.407 213.066C453.055 212.208 452.523 211.541 451.812 211.064C451.108 210.587 450.224 210.342 449.161 210.327C448.098 210.32 447.214 210.554 446.51 211.031C445.806 211.508 445.274 212.179 444.915 213.044C444.563 213.909 444.387 214.921 444.387 216.08C444.387 217.239 444.563 218.247 444.915 219.105C445.267 219.956 445.795 220.619 446.499 221.096C447.21 221.573 448.098 221.818 449.161 221.833ZM465.32 224.33C464.059 224.33 462.948 224.073 461.987 223.56C461.034 223.047 460.286 222.324 459.743 221.393C459.208 220.462 458.94 219.369 458.94 218.115V208.182L461.624 208.16V218.049C461.624 218.643 461.723 219.175 461.921 219.644C462.127 220.113 462.402 220.513 462.746 220.843C463.091 221.166 463.487 221.411 463.934 221.58C464.382 221.749 464.844 221.833 465.32 221.833C465.812 221.833 466.277 221.749 466.717 221.58C467.165 221.404 467.561 221.155 467.905 220.832C468.25 220.502 468.521 220.102 468.719 219.633C468.917 219.164 469.016 218.636 469.016 218.049V208.16H471.7V218.115C471.7 219.369 471.429 220.462 470.886 221.393C470.351 222.324 469.603 223.047 468.642 223.56C467.689 224.073 466.582 224.33 465.32 224.33ZM478.58 224V210.646H473.454V208.16H486.357V210.646H481.231V224H478.58ZM490.987 219.699C490.987 219.193 491.035 218.705 491.13 218.236C491.233 217.759 491.398 217.319 491.625 216.916C491.823 216.527 492.043 216.219 492.285 215.992C492.527 215.757 492.799 215.526 493.099 215.299C493.4 215.064 493.734 214.753 494.1 214.364C494.401 214.034 494.599 213.708 494.694 213.385C494.79 213.055 494.837 212.703 494.837 212.329C494.837 212.087 494.812 211.86 494.76 211.647C494.709 211.434 494.617 211.251 494.485 211.097C494.28 210.826 494.016 210.635 493.693 210.525C493.371 210.408 493.026 210.349 492.659 210.349C492.359 210.349 492.069 210.389 491.79 210.47C491.519 210.543 491.288 210.661 491.097 210.822C490.877 210.998 490.716 211.214 490.613 211.471C490.511 211.728 490.463 212.01 490.47 212.318H487.676C487.75 211.585 487.948 210.906 488.27 210.283C488.6 209.652 489.033 209.15 489.568 208.776C489.986 208.468 490.456 208.237 490.976 208.083C491.504 207.929 492.032 207.852 492.56 207.852C493.367 207.852 494.126 207.977 494.837 208.226C495.556 208.475 496.154 208.886 496.63 209.458C496.96 209.832 497.21 210.265 497.378 210.756C497.554 211.247 497.642 211.746 497.642 212.252C497.642 213.007 497.477 213.697 497.147 214.32C496.825 214.943 496.414 215.519 495.915 216.047C495.681 216.296 495.457 216.516 495.244 216.707C495.032 216.898 494.834 217.085 494.65 217.268C494.474 217.444 494.328 217.631 494.21 217.829C494.005 218.174 493.884 218.467 493.847 218.709C493.811 218.944 493.792 219.274 493.792 219.699H490.987ZM491.009 224V221.085H493.792V224H491.009Z" fill="white"></path> <path d="M246.766 35V24.766H252.786V25.914H247.998V29.316H252.422V30.464H248.026V35H246.766ZM255.3 35V33.852H257.386V25.928H255.3V24.78H260.76V25.928H258.674V33.852H260.76V35H255.3ZM263.513 35V24.78H266.677C267.283 24.78 267.815 24.906 268.273 25.158C268.73 25.4007 269.085 25.7413 269.337 26.18C269.589 26.6187 269.715 27.132 269.715 27.72C269.715 28.4107 269.533 29.0033 269.169 29.498C268.814 29.9927 268.329 30.3333 267.713 30.52L269.855 35H268.371L266.411 30.66H264.773V35H263.513ZM264.773 29.526H266.677C267.199 29.526 267.619 29.3627 267.937 29.036C268.254 28.7 268.413 28.2613 268.413 27.72C268.413 27.1693 268.254 26.7307 267.937 26.404C267.619 26.0773 267.199 25.914 266.677 25.914H264.773V29.526ZM274.875 35.14C274.203 35.14 273.624 35.028 273.139 34.804C272.663 34.58 272.294 34.258 272.033 33.838C271.772 33.418 271.636 32.9187 271.627 32.34H272.887C272.887 32.8533 273.06 33.2593 273.405 33.558C273.76 33.8567 274.25 34.006 274.875 34.006C275.463 34.006 275.92 33.8613 276.247 33.572C276.583 33.2827 276.751 32.8813 276.751 32.368C276.751 31.9573 276.639 31.598 276.415 31.29C276.2 30.982 275.888 30.7673 275.477 30.646L274.091 30.212C273.391 29.9973 272.85 29.638 272.467 29.134C272.094 28.63 271.907 28.0373 271.907 27.356C271.907 26.8053 272.028 26.3293 272.271 25.928C272.523 25.5173 272.873 25.2 273.321 24.976C273.769 24.7427 274.296 24.626 274.903 24.626C275.799 24.626 276.518 24.878 277.059 25.382C277.6 25.8767 277.876 26.5393 277.885 27.37H276.625C276.625 26.866 276.471 26.474 276.163 26.194C275.864 25.9047 275.44 25.76 274.889 25.76C274.348 25.76 273.923 25.8907 273.615 26.152C273.316 26.4133 273.167 26.7773 273.167 27.244C273.167 27.664 273.279 28.028 273.503 28.336C273.727 28.644 274.049 28.8633 274.469 28.994L275.869 29.442C276.55 29.6567 277.078 30.0207 277.451 30.534C277.824 31.0473 278.011 31.6493 278.011 32.34C278.011 32.9 277.88 33.39 277.619 33.81C277.358 34.23 276.989 34.5567 276.513 34.79C276.046 35.0233 275.5 35.14 274.875 35.14ZM282.584 35V25.914H279.784V24.766H286.644V25.914H283.844V35H282.584ZM296.867 35V24.78H298.519L299.583 28.084C299.685 28.3827 299.779 28.6813 299.863 28.98C299.947 29.2693 300.007 29.4933 300.045 29.652C300.091 29.4933 300.152 29.2693 300.227 28.98C300.301 28.6813 300.385 28.378 300.479 28.07L301.487 24.78H303.139V35H301.907V31.29C301.907 30.8793 301.921 30.4127 301.949 29.89C301.977 29.3673 302.014 28.8353 302.061 28.294C302.107 27.7433 302.154 27.2207 302.201 26.726C302.257 26.222 302.303 25.7833 302.341 25.41L300.689 30.52H299.359L297.693 25.41C297.739 25.774 297.786 26.1987 297.833 26.684C297.879 27.16 297.921 27.6687 297.959 28.21C297.996 28.742 298.029 29.274 298.057 29.806C298.085 30.338 298.099 30.8327 298.099 31.29V35H296.867ZM305.597 35V24.78H311.477V25.928H306.843V29.092H310.987V30.226H306.843V33.852H311.477V35H305.597ZM313.992 35V24.78H319.872V25.928H315.238V29.092H319.382V30.226H315.238V33.852H319.872V35H313.992ZM324.556 35V25.914H321.756V24.766H328.616V25.914H325.816V35H324.556ZM330.851 35V33.852H332.937V25.928H330.851V24.78H336.311V25.928H334.225V33.852H336.311V35H330.851ZM339.035 35V24.78H340.715L343.837 33.53C343.819 33.2967 343.795 33.012 343.767 32.676C343.749 32.3307 343.73 31.9713 343.711 31.598C343.702 31.2153 343.697 30.856 343.697 30.52V24.78H344.915V35H343.235L340.127 26.25C340.146 26.474 340.165 26.7587 340.183 27.104C340.202 27.44 340.216 27.7993 340.225 28.182C340.244 28.5553 340.253 28.9147 340.253 29.26V35H339.035ZM350.426 35.14C349.81 35.14 349.273 35.0233 348.816 34.79C348.368 34.5567 348.018 34.2207 347.766 33.782C347.523 33.334 347.402 32.8067 347.402 32.2V27.58C347.402 26.964 347.523 26.4367 347.766 25.998C348.018 25.5593 348.368 25.2233 348.816 24.99C349.273 24.7567 349.81 24.64 350.426 24.64C351.042 24.64 351.574 24.7613 352.022 25.004C352.47 25.2373 352.815 25.5733 353.058 26.012C353.301 26.4507 353.422 26.9733 353.422 27.58H352.162C352.162 27.0013 352.008 26.558 351.7 26.25C351.401 25.9327 350.977 25.774 350.426 25.774C349.875 25.774 349.441 25.928 349.124 26.236C348.816 26.544 348.662 26.9873 348.662 27.566V32.2C348.662 32.7787 348.816 33.2267 349.124 33.544C349.441 33.8613 349.875 34.02 350.426 34.02C350.977 34.02 351.401 33.8613 351.7 33.544C352.008 33.2267 352.162 32.7787 352.162 32.2V30.94H350.09V29.792H353.422V32.2C353.422 32.7973 353.301 33.32 353.058 33.768C352.815 34.2067 352.47 34.5473 352.022 34.79C351.574 35.0233 351.042 35.14 350.426 35.14Z" fill="white"></path> </g> <defs> <clipPath id="clip0_1323_247"> <rect width="600" height="400" rx="20" fill="white"></rect> </clipPath> </defs> </svg> 