<?xml version="1.0" encoding="UTF-8"?> <svg xmlns="http://www.w3.org/2000/svg" width="600" height="400" viewBox="0 0 600 400" fill="none"> <g clip-path="url(#clip0_1323_282)"> <rect width="600" height="400" rx="20" fill="#B7332C"></rect> <path d="M107.91 209L103.279 193.16H106.062L109.219 204.6L112.365 193.182L115.148 193.16L118.305 204.6L121.451 193.16H124.234L119.614 209H116.996L113.751 197.736L110.528 209H107.91ZM126.029 209V193.16H128.68V199.826H136.182V193.16H138.822V209H136.182V202.312H128.68V209H126.029ZM140.806 209L145.8 193.16H149.683L154.677 209H151.949L147.417 194.788H148.011L143.534 209H140.806ZM143.589 205.568V203.093H151.905V205.568H143.589ZM159.161 209V195.646H154.035V193.16H166.938V195.646H161.812V209H159.161ZM172.436 209V193.16H175.12L182.468 204.325V193.16H185.152V209H182.468L175.12 197.835V209H172.436ZM188.227 209V193.16H198.457V195.646H190.878V199.551H197.137V202.037H190.878V206.514H198.457V209H188.227ZM204.66 209L199.666 193.16H202.394L206.574 206.426L210.809 193.16H213.537L208.543 209H204.66ZM215.189 209V193.16H225.419V195.646H217.84V199.551H224.099V202.037H217.84V206.514H225.419V209H215.189ZM228.059 209V193.16H234.604C234.758 193.16 234.956 193.167 235.198 193.182C235.44 193.189 235.663 193.211 235.869 193.248C236.785 193.387 237.541 193.692 238.135 194.161C238.736 194.63 239.18 195.224 239.466 195.943C239.759 196.654 239.906 197.446 239.906 198.319C239.906 199.61 239.579 200.721 238.927 201.652C238.274 202.576 237.273 203.148 235.924 203.368L234.791 203.467H230.71V209H228.059ZM237.156 209L234.032 202.554L236.727 201.96L240.159 209H237.156ZM230.71 200.992H234.494C234.64 200.992 234.805 200.985 234.989 200.97C235.172 200.955 235.341 200.926 235.495 200.882C235.935 200.772 236.279 200.578 236.529 200.299C236.785 200.02 236.965 199.705 237.068 199.353C237.178 199.001 237.233 198.656 237.233 198.319C237.233 197.982 237.178 197.637 237.068 197.285C236.965 196.926 236.785 196.607 236.529 196.328C236.279 196.049 235.935 195.855 235.495 195.745C235.341 195.701 235.172 195.675 234.989 195.668C234.805 195.653 234.64 195.646 234.494 195.646H230.71V200.992ZM253.52 209.33C252.494 209.33 251.529 209.15 250.627 208.791C249.733 208.424 248.944 207.889 248.262 207.185C247.588 206.481 247.06 205.619 246.678 204.6C246.297 203.573 246.106 202.4 246.106 201.08C246.106 199.349 246.429 197.872 247.074 196.647C247.72 195.415 248.603 194.473 249.725 193.82C250.847 193.16 252.112 192.83 253.52 192.83C255.471 192.83 257.015 193.285 258.151 194.194C259.295 195.096 260.069 196.365 260.472 198L257.766 198.429C257.466 197.49 256.974 196.742 256.292 196.185C255.61 195.62 254.741 195.338 253.685 195.338C252.622 195.323 251.738 195.554 251.034 196.031C250.33 196.508 249.799 197.179 249.439 198.044C249.087 198.909 248.911 199.921 248.911 201.08C248.911 202.239 249.087 203.247 249.439 204.105C249.791 204.956 250.319 205.619 251.023 206.096C251.735 206.573 252.622 206.818 253.685 206.833C254.485 206.84 255.185 206.697 255.786 206.404C256.388 206.103 256.879 205.652 257.26 205.051C257.642 204.442 257.898 203.683 258.03 202.774H255.236V200.695H260.846C260.861 200.812 260.872 200.985 260.879 201.212C260.887 201.439 260.89 201.575 260.89 201.619C260.89 203.115 260.593 204.446 259.999 205.612C259.413 206.771 258.569 207.68 257.469 208.34C256.369 209 255.053 209.33 253.52 209.33ZM269.799 209.33C268.215 209.33 266.858 208.985 265.729 208.296C264.599 207.599 263.73 206.631 263.122 205.392C262.52 204.153 262.22 202.715 262.22 201.08C262.22 199.445 262.52 198.007 263.122 196.768C263.73 195.529 264.599 194.564 265.729 193.875C266.858 193.178 268.215 192.83 269.799 192.83C271.383 192.83 272.739 193.178 273.869 193.875C275.005 194.564 275.874 195.529 276.476 196.768C277.084 198.007 277.389 199.445 277.389 201.08C277.389 202.715 277.084 204.153 276.476 205.392C275.874 206.631 275.005 207.599 273.869 208.296C272.739 208.985 271.383 209.33 269.799 209.33ZM269.799 206.833C270.862 206.84 271.746 206.606 272.45 206.129C273.161 205.652 273.693 204.981 274.045 204.116C274.404 203.251 274.584 202.239 274.584 201.08C274.584 199.921 274.404 198.917 274.045 198.066C273.693 197.208 273.161 196.541 272.45 196.064C271.746 195.587 270.862 195.342 269.799 195.327C268.735 195.32 267.852 195.554 267.148 196.031C266.444 196.508 265.912 197.179 265.553 198.044C265.201 198.909 265.025 199.921 265.025 201.08C265.025 202.239 265.201 203.247 265.553 204.105C265.905 204.956 266.433 205.619 267.137 206.096C267.848 206.573 268.735 206.818 269.799 206.833ZM279.578 209V193.16H289.808V195.646H282.229V199.551H288.488V202.037H282.229V206.514H289.808V209H279.578ZM298.16 209.33C297.001 209.33 295.956 209.128 295.025 208.725C294.101 208.322 293.338 207.746 292.737 206.998C292.143 206.243 291.765 205.348 291.604 204.314L294.354 203.896C294.589 204.835 295.069 205.561 295.795 206.074C296.528 206.587 297.372 206.844 298.325 206.844C298.89 206.844 299.421 206.756 299.92 206.58C300.419 206.404 300.822 206.147 301.13 205.81C301.445 205.473 301.603 205.058 301.603 204.567C301.603 204.347 301.566 204.145 301.493 203.962C301.42 203.771 301.31 203.603 301.163 203.456C301.024 203.309 300.84 203.177 300.613 203.06C300.393 202.935 300.136 202.829 299.843 202.741L295.751 201.531C295.399 201.428 295.018 201.293 294.607 201.124C294.204 200.948 293.819 200.71 293.452 200.409C293.093 200.101 292.796 199.712 292.561 199.243C292.334 198.766 292.22 198.18 292.22 197.483C292.22 196.464 292.477 195.609 292.99 194.92C293.511 194.223 294.207 193.703 295.08 193.358C295.96 193.013 296.935 192.845 298.006 192.852C299.091 192.859 300.059 193.046 300.91 193.413C301.761 193.772 302.472 194.297 303.044 194.986C303.616 195.675 304.019 196.508 304.254 197.483L301.405 197.978C301.288 197.421 301.06 196.948 300.723 196.559C300.393 196.163 299.986 195.862 299.502 195.657C299.025 195.452 298.516 195.342 297.973 195.327C297.445 195.32 296.954 195.4 296.499 195.569C296.052 195.73 295.689 195.965 295.41 196.273C295.139 196.581 295.003 196.94 295.003 197.351C295.003 197.74 295.12 198.059 295.355 198.308C295.59 198.55 295.879 198.744 296.224 198.891C296.576 199.03 296.932 199.148 297.291 199.243L300.129 200.035C300.518 200.138 300.954 200.277 301.438 200.453C301.922 200.629 302.388 200.875 302.835 201.19C303.282 201.505 303.649 201.92 303.935 202.433C304.228 202.946 304.375 203.599 304.375 204.391C304.375 205.212 304.203 205.935 303.858 206.558C303.521 207.174 303.062 207.687 302.483 208.098C301.904 208.509 301.24 208.817 300.492 209.022C299.751 209.227 298.974 209.33 298.16 209.33ZM317.859 209.33C316.275 209.33 314.918 208.985 313.789 208.296C312.66 207.599 311.791 206.631 311.182 205.392C310.581 204.153 310.28 202.715 310.28 201.08C310.28 199.445 310.581 198.007 311.182 196.768C311.791 195.529 312.66 194.564 313.789 193.875C314.918 193.178 316.275 192.83 317.859 192.83C319.443 192.83 320.8 193.178 321.929 193.875C323.066 194.564 323.935 195.529 324.536 196.768C325.145 198.007 325.449 199.445 325.449 201.08C325.449 202.715 325.145 204.153 324.536 205.392C323.935 206.631 323.066 207.599 321.929 208.296C320.8 208.985 319.443 209.33 317.859 209.33ZM317.859 206.833C318.922 206.84 319.806 206.606 320.51 206.129C321.221 205.652 321.753 204.981 322.105 204.116C322.464 203.251 322.644 202.239 322.644 201.08C322.644 199.921 322.464 198.917 322.105 198.066C321.753 197.208 321.221 196.541 320.51 196.064C319.806 195.587 318.922 195.342 317.859 195.327C316.796 195.32 315.912 195.554 315.208 196.031C314.504 196.508 313.972 197.179 313.613 198.044C313.261 198.909 313.085 199.921 313.085 201.08C313.085 202.239 313.261 203.247 313.613 204.105C313.965 204.956 314.493 205.619 315.197 206.096C315.908 206.573 316.796 206.818 317.859 206.833ZM334.019 209.33C332.757 209.33 331.646 209.073 330.686 208.56C329.732 208.047 328.984 207.324 328.442 206.393C327.906 205.462 327.639 204.369 327.639 203.115V193.182L330.323 193.16V203.049C330.323 203.643 330.422 204.175 330.62 204.644C330.825 205.113 331.1 205.513 331.445 205.843C331.789 206.166 332.185 206.411 332.633 206.58C333.08 206.749 333.542 206.833 334.019 206.833C334.51 206.833 334.976 206.749 335.416 206.58C335.863 206.404 336.259 206.155 336.604 205.832C336.948 205.502 337.22 205.102 337.418 204.633C337.616 204.164 337.715 203.636 337.715 203.049V193.16H340.399V203.115C340.399 204.369 340.127 205.462 339.585 206.393C339.049 207.324 338.301 208.047 337.341 208.56C336.387 209.073 335.28 209.33 334.019 209.33ZM347.279 209V195.646H342.153V193.16H355.056V195.646H349.93V209H347.279ZM367.252 209.33C365.668 209.33 364.311 208.985 363.182 208.296C362.052 207.599 361.183 206.631 360.575 205.392C359.973 204.153 359.673 202.715 359.673 201.08C359.673 199.445 359.973 198.007 360.575 196.768C361.183 195.529 362.052 194.564 363.182 193.875C364.311 193.178 365.668 192.83 367.252 192.83C368.836 192.83 370.192 193.178 371.322 193.875C372.458 194.564 373.327 195.529 373.929 196.768C374.537 198.007 374.842 199.445 374.842 201.08C374.842 202.715 374.537 204.153 373.929 205.392C373.327 206.631 372.458 207.599 371.322 208.296C370.192 208.985 368.836 209.33 367.252 209.33ZM367.252 206.833C368.315 206.84 369.199 206.606 369.903 206.129C370.614 205.652 371.146 204.981 371.498 204.116C371.857 203.251 372.037 202.239 372.037 201.08C372.037 199.921 371.857 198.917 371.498 198.066C371.146 197.208 370.614 196.541 369.903 196.064C369.199 195.587 368.315 195.342 367.252 195.327C366.188 195.32 365.305 195.554 364.601 196.031C363.897 196.508 363.365 197.179 363.006 198.044C362.654 198.909 362.478 199.921 362.478 201.08C362.478 202.239 362.654 203.247 363.006 204.105C363.358 204.956 363.886 205.619 364.59 206.096C365.301 206.573 366.188 206.818 367.252 206.833ZM377.031 209V193.16H386.568V195.811H379.682V199.76H385.248V202.4H379.682V209H377.031ZM392.951 209V193.16H402.488V195.811H395.602V199.76H401.168V202.4H395.602V209H392.951ZM403.152 209L408.146 193.16H412.029L417.023 209H414.295L409.763 194.788H410.357L405.88 209H403.152ZM405.935 205.568V203.093H414.251V205.568H405.935ZM424.445 209.33C423.286 209.33 422.241 209.128 421.31 208.725C420.386 208.322 419.623 207.746 419.022 206.998C418.428 206.243 418.05 205.348 417.889 204.314L420.639 203.896C420.874 204.835 421.354 205.561 422.08 206.074C422.813 206.587 423.657 206.844 424.61 206.844C425.175 206.844 425.706 206.756 426.205 206.58C426.704 206.404 427.107 206.147 427.415 205.81C427.73 205.473 427.888 205.058 427.888 204.567C427.888 204.347 427.851 204.145 427.778 203.962C427.705 203.771 427.595 203.603 427.448 203.456C427.309 203.309 427.125 203.177 426.898 203.06C426.678 202.935 426.421 202.829 426.128 202.741L422.036 201.531C421.684 201.428 421.303 201.293 420.892 201.124C420.489 200.948 420.104 200.71 419.737 200.409C419.378 200.101 419.081 199.712 418.846 199.243C418.619 198.766 418.505 198.18 418.505 197.483C418.505 196.464 418.762 195.609 419.275 194.92C419.796 194.223 420.492 193.703 421.365 193.358C422.245 193.013 423.22 192.845 424.291 192.852C425.376 192.859 426.344 193.046 427.195 193.413C428.046 193.772 428.757 194.297 429.329 194.986C429.901 195.675 430.304 196.508 430.539 197.483L427.69 197.978C427.573 197.421 427.345 196.948 427.008 196.559C426.678 196.163 426.271 195.862 425.787 195.657C425.31 195.452 424.801 195.342 424.258 195.327C423.73 195.32 423.239 195.4 422.784 195.569C422.337 195.73 421.974 195.965 421.695 196.273C421.424 196.581 421.288 196.94 421.288 197.351C421.288 197.74 421.405 198.059 421.64 198.308C421.875 198.55 422.164 198.744 422.509 198.891C422.861 199.03 423.217 199.148 423.576 199.243L426.414 200.035C426.803 200.138 427.239 200.277 427.723 200.453C428.207 200.629 428.673 200.875 429.12 201.19C429.567 201.505 429.934 201.92 430.22 202.433C430.513 202.946 430.66 203.599 430.66 204.391C430.66 205.212 430.488 205.935 430.143 206.558C429.806 207.174 429.347 207.687 428.768 208.098C428.189 208.509 427.525 208.817 426.777 209.022C426.036 209.227 425.259 209.33 424.445 209.33ZM433.041 209V193.16H435.692V199.826H443.194V193.16H445.834V209H443.194V202.312H435.692V209H433.041ZM449.138 209V193.16H451.789V209H449.138ZM461.783 209.33C460.199 209.33 458.842 208.985 457.713 208.296C456.584 207.599 455.715 206.631 455.106 205.392C454.505 204.153 454.204 202.715 454.204 201.08C454.204 199.445 454.505 198.007 455.106 196.768C455.715 195.529 456.584 194.564 457.713 193.875C458.842 193.178 460.199 192.83 461.783 192.83C463.367 192.83 464.724 193.178 465.853 193.875C466.99 194.564 467.859 195.529 468.46 196.768C469.069 198.007 469.373 199.445 469.373 201.08C469.373 202.715 469.069 204.153 468.46 205.392C467.859 206.631 466.99 207.599 465.853 208.296C464.724 208.985 463.367 209.33 461.783 209.33ZM461.783 206.833C462.846 206.84 463.73 206.606 464.434 206.129C465.145 205.652 465.677 204.981 466.029 204.116C466.388 203.251 466.568 202.239 466.568 201.08C466.568 199.921 466.388 198.917 466.029 198.066C465.677 197.208 465.145 196.541 464.434 196.064C463.73 195.587 462.846 195.342 461.783 195.327C460.72 195.32 459.836 195.554 459.132 196.031C458.428 196.508 457.896 197.179 457.537 198.044C457.185 198.909 457.009 199.921 457.009 201.08C457.009 202.239 457.185 203.247 457.537 204.105C457.889 204.956 458.417 205.619 459.121 206.096C459.832 206.573 460.72 206.818 461.783 206.833ZM471.562 209V193.16H474.246L481.594 204.325V193.16H484.278V209H481.594L474.246 197.835V209H471.562ZM490.224 204.699C490.224 204.193 490.272 203.705 490.367 203.236C490.47 202.759 490.635 202.319 490.862 201.916C491.06 201.527 491.28 201.219 491.522 200.992C491.764 200.757 492.036 200.526 492.336 200.299C492.637 200.064 492.971 199.753 493.337 199.364C493.638 199.034 493.836 198.708 493.931 198.385C494.027 198.055 494.074 197.703 494.074 197.329C494.074 197.087 494.049 196.86 493.997 196.647C493.946 196.434 493.854 196.251 493.722 196.097C493.517 195.826 493.253 195.635 492.93 195.525C492.608 195.408 492.263 195.349 491.896 195.349C491.596 195.349 491.306 195.389 491.027 195.47C490.756 195.543 490.525 195.661 490.334 195.822C490.114 195.998 489.953 196.214 489.85 196.471C489.748 196.728 489.7 197.01 489.707 197.318H486.913C486.987 196.585 487.185 195.906 487.507 195.283C487.837 194.652 488.27 194.15 488.805 193.776C489.223 193.468 489.693 193.237 490.213 193.083C490.741 192.929 491.269 192.852 491.797 192.852C492.604 192.852 493.363 192.977 494.074 193.226C494.793 193.475 495.391 193.886 495.867 194.458C496.197 194.832 496.447 195.265 496.615 195.756C496.791 196.247 496.879 196.746 496.879 197.252C496.879 198.007 496.714 198.697 496.384 199.32C496.062 199.943 495.651 200.519 495.152 201.047C494.918 201.296 494.694 201.516 494.481 201.707C494.269 201.898 494.071 202.085 493.887 202.268C493.711 202.444 493.565 202.631 493.447 202.829C493.242 203.174 493.121 203.467 493.084 203.709C493.048 203.944 493.029 204.274 493.029 204.699H490.224ZM490.246 209V206.085H493.029V209H490.246Z" fill="white"></path> <path d="M246.766 35V24.766H252.786V25.914H247.998V29.316H252.422V30.464H248.026V35H246.766ZM255.3 35V33.852H257.386V25.928H255.3V24.78H260.76V25.928H258.674V33.852H260.76V35H255.3ZM263.513 35V24.78H266.677C267.283 24.78 267.815 24.906 268.273 25.158C268.73 25.4007 269.085 25.7413 269.337 26.18C269.589 26.6187 269.715 27.132 269.715 27.72C269.715 28.4107 269.533 29.0033 269.169 29.498C268.814 29.9927 268.329 30.3333 267.713 30.52L269.855 35H268.371L266.411 30.66H264.773V35H263.513ZM264.773 29.526H266.677C267.199 29.526 267.619 29.3627 267.937 29.036C268.254 28.7 268.413 28.2613 268.413 27.72C268.413 27.1693 268.254 26.7307 267.937 26.404C267.619 26.0773 267.199 25.914 266.677 25.914H264.773V29.526ZM274.875 35.14C274.203 35.14 273.624 35.028 273.139 34.804C272.663 34.58 272.294 34.258 272.033 33.838C271.772 33.418 271.636 32.9187 271.627 32.34H272.887C272.887 32.8533 273.06 33.2593 273.405 33.558C273.76 33.8567 274.25 34.006 274.875 34.006C275.463 34.006 275.92 33.8613 276.247 33.572C276.583 33.2827 276.751 32.8813 276.751 32.368C276.751 31.9573 276.639 31.598 276.415 31.29C276.2 30.982 275.888 30.7673 275.477 30.646L274.091 30.212C273.391 29.9973 272.85 29.638 272.467 29.134C272.094 28.63 271.907 28.0373 271.907 27.356C271.907 26.8053 272.028 26.3293 272.271 25.928C272.523 25.5173 272.873 25.2 273.321 24.976C273.769 24.7427 274.296 24.626 274.903 24.626C275.799 24.626 276.518 24.878 277.059 25.382C277.6 25.8767 277.876 26.5393 277.885 27.37H276.625C276.625 26.866 276.471 26.474 276.163 26.194C275.864 25.9047 275.44 25.76 274.889 25.76C274.348 25.76 273.923 25.8907 273.615 26.152C273.316 26.4133 273.167 26.7773 273.167 27.244C273.167 27.664 273.279 28.028 273.503 28.336C273.727 28.644 274.049 28.8633 274.469 28.994L275.869 29.442C276.55 29.6567 277.078 30.0207 277.451 30.534C277.824 31.0473 278.011 31.6493 278.011 32.34C278.011 32.9 277.88 33.39 277.619 33.81C277.358 34.23 276.989 34.5567 276.513 34.79C276.046 35.0233 275.5 35.14 274.875 35.14ZM282.584 35V25.914H279.784V24.766H286.644V25.914H283.844V35H282.584ZM296.867 35V24.78H298.519L299.583 28.084C299.685 28.3827 299.779 28.6813 299.863 28.98C299.947 29.2693 300.007 29.4933 300.045 29.652C300.091 29.4933 300.152 29.2693 300.227 28.98C300.301 28.6813 300.385 28.378 300.479 28.07L301.487 24.78H303.139V35H301.907V31.29C301.907 30.8793 301.921 30.4127 301.949 29.89C301.977 29.3673 302.014 28.8353 302.061 28.294C302.107 27.7433 302.154 27.2207 302.201 26.726C302.257 26.222 302.303 25.7833 302.341 25.41L300.689 30.52H299.359L297.693 25.41C297.739 25.774 297.786 26.1987 297.833 26.684C297.879 27.16 297.921 27.6687 297.959 28.21C297.996 28.742 298.029 29.274 298.057 29.806C298.085 30.338 298.099 30.8327 298.099 31.29V35H296.867ZM305.597 35V24.78H311.477V25.928H306.843V29.092H310.987V30.226H306.843V33.852H311.477V35H305.597ZM313.992 35V24.78H319.872V25.928H315.238V29.092H319.382V30.226H315.238V33.852H319.872V35H313.992ZM324.556 35V25.914H321.756V24.766H328.616V25.914H325.816V35H324.556ZM330.851 35V33.852H332.937V25.928H330.851V24.78H336.311V25.928H334.225V33.852H336.311V35H330.851ZM339.035 35V24.78H340.715L343.837 33.53C343.819 33.2967 343.795 33.012 343.767 32.676C343.749 32.3307 343.73 31.9713 343.711 31.598C343.702 31.2153 343.697 30.856 343.697 30.52V24.78H344.915V35H343.235L340.127 26.25C340.146 26.474 340.165 26.7587 340.183 27.104C340.202 27.44 340.216 27.7993 340.225 28.182C340.244 28.5553 340.253 28.9147 340.253 29.26V35H339.035ZM350.426 35.14C349.81 35.14 349.273 35.0233 348.816 34.79C348.368 34.5567 348.018 34.2207 347.766 33.782C347.523 33.334 347.402 32.8067 347.402 32.2V27.58C347.402 26.964 347.523 26.4367 347.766 25.998C348.018 25.5593 348.368 25.2233 348.816 24.99C349.273 24.7567 349.81 24.64 350.426 24.64C351.042 24.64 351.574 24.7613 352.022 25.004C352.47 25.2373 352.815 25.5733 353.058 26.012C353.301 26.4507 353.422 26.9733 353.422 27.58H352.162C352.162 27.0013 352.008 26.558 351.7 26.25C351.401 25.9327 350.977 25.774 350.426 25.774C349.875 25.774 349.441 25.928 349.124 26.236C348.816 26.544 348.662 26.9873 348.662 27.566V32.2C348.662 32.7787 348.816 33.2267 349.124 33.544C349.441 33.8613 349.875 34.02 350.426 34.02C350.977 34.02 351.401 33.8613 351.7 33.544C352.008 33.2267 352.162 32.7787 352.162 32.2V30.94H350.09V29.792H353.422V32.2C353.422 32.7973 353.301 33.32 353.058 33.768C352.815 34.2067 352.47 34.5473 352.022 34.79C351.574 35.0233 351.042 35.14 350.426 35.14Z" fill="white"></path> </g> <defs> <clipPath id="clip0_1323_282"> <rect width="600" height="400" rx="20" fill="white"></rect> </clipPath> </defs> </svg> 