<?xml version="1.0" encoding="UTF-8"?> <svg xmlns="http://www.w3.org/2000/svg" width="600" height="400" viewBox="0 0 600 400" fill="none"> <g clip-path="url(#clip0_1323_288)"> <rect width="600" height="400" rx="20" fill="#EC5895"></rect> <path d="M-232.621 163.8C-239.581 176.76 -244.141 186.96 -246.301 194.4C-248.221 201.84 -249.901 210.72 -251.341 221.04C-248.941 221.04 -244.981 221.04 -239.461 221.04C-233.941 220.8 -230.341 220.56 -228.661 220.32L-208.141 216C-203.101 214.8 -198.661 213.84 -194.821 213.12C-190.981 212.16 -183.901 210.84 -173.581 209.16C-169.021 208.44 -164.101 207.96 -158.821 207.72C-153.541 207.48 -150.061 207.36 -148.381 207.36C-142.621 207.36 -138.301 207.24 -135.421 207C-131.341 207 -128.461 207.72 -126.781 209.16C-119.821 215.16 -116.341 220.32 -116.341 224.64C-116.341 227.52 -117.421 229.56 -119.581 230.76C-121.741 231.96 -125.101 233.28 -129.661 234.72L-163.141 241.92L-232.981 261C-234.181 261.24 -235.381 261.72 -236.581 262.44C-237.541 262.92 -238.621 263.28 -239.821 263.52C-247.501 265.2 -252.661 266.64 -255.301 267.84C-257.701 268.8 -259.261 270.6 -259.981 273.24C-260.461 275.88 -260.701 281.04 -260.701 288.72V303.12C-260.701 309.6 -260.941 314.52 -261.421 317.88C-262.861 329.88 -267.301 335.88 -274.741 335.88C-278.821 335.88 -283.501 334.32 -288.781 331.2C-294.781 327.6 -299.341 323.64 -302.461 319.32C-305.341 314.76 -306.781 309.48 -306.781 303.48C-306.781 301.32 -306.661 299.64 -306.421 298.44C-304.501 281.64 -303.181 269.16 -302.461 261C-301.741 254.04 -300.781 245.28 -299.581 234.72C-298.381 223.92 -296.821 211.44 -294.901 197.28C-291.781 174.96 -283.981 155.28 -271.501 138.24C-258.781 121.2 -242.101 105.6 -221.461 91.44C-201.061 77.28 -180.661 68.28 -160.261 64.44C-156.181 63.48 -151.501 63 -146.221 63C-130.381 63 -116.821 69 -105.541 81C-100.981 85.56 -98.7012 89.52 -98.7012 92.88C-98.7012 94.32 -99.3012 96.24 -100.501 98.64C-103.621 103.68 -107.941 106.2 -113.461 106.2C-115.381 106.2 -117.421 105.84 -119.581 105.12C-120.781 104.64 -122.341 104.16 -124.261 103.68C-125.941 103.2 -127.261 102.72 -128.221 102.24C-132.301 99.36 -136.981 97.92 -142.261 97.92C-149.461 95.76 -157.501 97.08 -166.381 101.88C-175.261 106.68 -187.381 115.08 -202.741 127.08C-210.901 133.08 -217.981 139.92 -223.981 147.6L-232.621 163.8ZM127.238 223.2C126.278 229.2 124.358 244.8 121.478 270C119.798 284.4 118.838 291.84 118.598 292.32L86.9181 287.28L93.3981 209.52L89.4381 212.4C87.2781 214.32 84.2781 217.32 80.4381 221.4C76.8381 225.24 73.5981 228.72 70.7181 231.84C61.3581 244.8 54.5181 253.56 50.1981 258.12C39.6381 269.16 29.9181 278.4 21.0381 285.84C12.3981 293.04 2.07813 299.64 -9.92187 305.64C-14.7219 308.04 -20.6019 309.24 -27.5619 309.24C-33.5619 309.24 -39.3219 308.16 -44.8419 306C-50.3619 303.84 -55.0419 300.6 -58.8819 296.28C-77.8419 275.64 -87.3219 250.68 -87.3219 221.4C-87.3219 213 -86.6019 204.36 -85.1619 195.48C-83.2419 183.96 -80.8419 172.68 -77.9619 161.64C-75.0819 150.36 -71.1219 135.84 -66.0819 118.08C-64.4019 113.04 -62.1219 105.48 -59.2419 95.4C-58.0419 90.6 -56.2419 87.84 -53.8419 87.12C-52.8819 86.64 -52.0419 86.4 -51.3219 86.4C-48.6819 86.4 -45.5619 87.48 -41.9619 89.64C-34.0419 94.2 -28.4019 98.64 -25.0419 102.96C-21.4419 107.28 -19.6419 112.2 -19.6419 117.72C-19.6419 124.2 -22.1619 132.72 -27.2019 143.28C-42.0819 174.96 -49.5219 204.12 -49.5219 230.76C-49.5219 237.72 -49.2819 242.88 -48.8019 246.24C-48.3219 251.76 -45.5619 256.68 -40.5219 261C-35.4819 265.32 -29.9619 267.48 -23.9619 267.48C-17.4819 267.48 -11.8419 265.08 -7.04187 260.28C17.9181 235.32 38.4381 210 54.5181 184.32C70.5981 158.64 83.1981 130.44 92.3181 99.72C93.2781 96.12 94.3581 92.64 95.5581 89.28L96.2781 88.56C110.438 90 121.598 95.52 129.758 105.12C137.918 114.48 141.518 126.12 140.558 140.04C134.078 178.44 129.638 206.16 127.238 223.2ZM392.173 111.24C393.853 115.08 394.693 118.2 394.693 120.6C394.693 124.2 393.253 127.68 390.373 131.04C387.013 132 384.613 132.48 383.173 132.48C378.613 132.48 374.653 131.04 371.293 128.16C367.933 125.28 364.573 121.32 361.213 116.28C354.493 107.16 345.613 102.6 334.573 102.6C332.653 102.6 329.533 102.84 325.213 103.32C284.653 108.84 253.693 132.84 232.333 175.32C221.293 197.88 215.773 220.08 215.773 241.92C215.773 259.2 220.093 272.28 228.733 281.16C237.373 290.04 250.213 294.48 267.253 294.48C298.933 294.48 326.533 287.52 350.053 273.6L393.253 247.68L419.893 231.48C423.733 229.08 426.613 227.88 428.533 227.88C430.693 227.88 432.493 228.72 433.933 230.4C436.333 233.52 437.533 237.24 437.533 241.56C437.533 244.44 436.693 247.32 435.013 250.2C433.333 252.84 431.173 255.24 428.533 257.4L416.293 267.84C408.133 274.8 401.293 280.44 395.773 284.76C390.253 288.84 384.493 292.68 378.493 296.28C345.853 314.52 315.973 323.64 288.853 323.64C275.893 323.64 263.173 321.72 250.693 317.88C228.133 310.92 210.733 299.88 198.493 284.76C186.253 269.4 180.133 250.2 180.133 227.16C180.133 219.96 180.613 213.36 181.573 207.36C186.613 173.76 197.773 144.72 215.053 120.24C221.053 111.6 229.333 103.08 239.893 94.68C250.453 86.04 262.213 79.08 275.173 73.8C288.373 68.28 301.333 65.52 314.053 65.52C323.893 65.52 333.253 67.32 342.133 70.92C354.373 75.72 364.573 81.24 372.733 87.48C381.133 93.48 387.613 101.4 392.173 111.24ZM532.008 162C532.488 162.48 532.968 162.84 533.448 163.08C533.928 163.32 534.408 163.56 534.888 163.8C543.768 157.08 553.248 150.12 563.328 142.92L642.168 87.12C644.808 85.2 648.768 84.24 654.047 84.24C658.368 84.24 662.448 85.08 666.288 86.76C670.368 88.2 673.248 90.24 674.928 92.88C676.368 95.04 677.088 97.2 677.088 99.36C677.088 102.48 675.168 105.96 671.328 109.8L631.728 143.28L621.648 151.56C610.128 160.68 601.608 167.76 596.088 172.8C592.728 175.68 590.208 178.2 588.528 180.36C587.088 182.28 586.368 184.32 586.368 186.48C586.368 189.36 588.408 194.16 592.488 200.88L598.968 210.96C614.808 236.4 628.368 257.28 639.648 273.6C651.168 289.92 663.888 305.4 677.808 320.04L683.928 326.88C679.848 330.24 676.248 331.92 673.128 331.92C670.248 331.92 667.488 330.84 664.848 328.68C648.288 316.44 633.528 303.96 620.568 291.24C607.608 278.28 596.448 264.12 587.088 248.76C582.288 241.08 576.288 232.44 569.088 222.84C568.608 221.88 565.488 217.32 559.728 209.16L549.288 217.8C536.088 228.36 526.128 236.88 519.408 243.36C517.248 245.28 515.568 248.04 514.368 251.64C513.168 255 512.448 258.36 512.208 261.72C511.968 265.56 511.848 271.44 511.848 279.36L512.208 315C512.208 320.52 511.608 325.08 510.408 328.68C509.448 332.52 507.048 335.64 503.207 338.04C494.568 334.92 488.568 332.28 485.208 330.12C482.088 327.96 479.928 325.08 478.728 321.48C477.768 317.88 477.168 311.88 476.928 303.48L475.488 285.12C474.288 275.04 473.688 266.28 473.688 258.84C473.688 247.56 474.528 236.28 476.208 225C478.128 213.48 480.888 199.2 484.488 182.16C489.288 157.92 494.808 135.6 501.048 115.2C503.928 106.32 507.888 97.08 512.928 87.48C517.968 77.64 520.968 71.76 521.928 69.84C523.608 66.72 525.288 64.44 526.968 63C528.888 61.56 531.048 60.84 533.448 60.84C537.048 60.84 542.568 62.64 550.008 66.24C553.608 67.92 556.008 69.48 557.208 70.92C558.648 72.36 559.368 74.16 559.368 76.32C559.368 78.48 558.648 81.6 557.208 85.68L544.968 120.6C543.288 125.88 540.528 133.8 536.688 144.36C535.728 147.24 534.168 153.12 532.008 162Z" fill="white" fill-opacity="0.1"></path> <path d="M81.6799 193V177.16H84.3309V193H81.6799ZM87.6259 193V177.16H97.1629V179.811H90.2769V183.76H95.8429V186.4H90.2769V193H87.6259ZM107.396 193V186.51L102.006 177.16H105.097L108.738 183.474L112.368 177.16H115.459L110.08 186.51V193H107.396ZM122.813 193.33C121.229 193.33 119.873 192.985 118.743 192.296C117.614 191.599 116.745 190.631 116.136 189.392C115.535 188.153 115.234 186.715 115.234 185.08C115.234 183.445 115.535 182.007 116.136 180.768C116.745 179.529 117.614 178.564 118.743 177.875C119.873 177.178 121.229 176.83 122.813 176.83C124.397 176.83 125.754 177.178 126.883 177.875C128.02 178.564 128.889 179.529 129.49 180.768C130.099 182.007 130.403 183.445 130.403 185.08C130.403 186.715 130.099 188.153 129.49 189.392C128.889 190.631 128.02 191.599 126.883 192.296C125.754 192.985 124.397 193.33 122.813 193.33ZM122.813 190.833C123.877 190.84 124.76 190.606 125.464 190.129C126.176 189.652 126.707 188.981 127.059 188.116C127.419 187.251 127.598 186.239 127.598 185.08C127.598 183.921 127.419 182.917 127.059 182.066C126.707 181.208 126.176 180.541 125.464 180.064C124.76 179.587 123.877 179.342 122.813 179.327C121.75 179.32 120.866 179.554 120.162 180.031C119.458 180.508 118.927 181.179 118.567 182.044C118.215 182.909 118.039 183.921 118.039 185.08C118.039 186.239 118.215 187.247 118.567 188.105C118.919 188.956 119.447 189.619 120.151 190.096C120.863 190.573 121.75 190.818 122.813 190.833ZM138.973 193.33C137.711 193.33 136.6 193.073 135.64 192.56C134.686 192.047 133.938 191.324 133.396 190.393C132.86 189.462 132.593 188.369 132.593 187.115V177.182L135.277 177.16V187.049C135.277 187.643 135.376 188.175 135.574 188.644C135.779 189.113 136.054 189.513 136.399 189.843C136.743 190.166 137.139 190.411 137.587 190.58C138.034 190.749 138.496 190.833 138.973 190.833C139.464 190.833 139.93 190.749 140.37 190.58C140.817 190.404 141.213 190.155 141.558 189.832C141.902 189.502 142.174 189.102 142.372 188.633C142.57 188.164 142.669 187.636 142.669 187.049V177.16H145.353V187.115C145.353 188.369 145.081 189.462 144.539 190.393C144.003 191.324 143.255 192.047 142.295 192.56C141.341 193.073 140.234 193.33 138.973 193.33ZM159.53 193.33C157.946 193.33 156.589 192.985 155.46 192.296C154.331 191.599 153.462 190.631 152.853 189.392C152.252 188.153 151.951 186.715 151.951 185.08C151.951 183.445 152.252 182.007 152.853 180.768C153.462 179.529 154.331 178.564 155.46 177.875C156.589 177.178 157.946 176.83 159.53 176.83C161.356 176.83 162.878 177.288 164.095 178.205C165.312 179.114 166.167 180.343 166.658 181.89L163.985 182.627C163.677 181.593 163.153 180.786 162.412 180.207C161.671 179.62 160.711 179.327 159.53 179.327C158.467 179.327 157.579 179.565 156.868 180.042C156.164 180.519 155.632 181.19 155.273 182.055C154.921 182.913 154.741 183.921 154.734 185.08C154.734 186.239 154.91 187.251 155.262 188.116C155.621 188.974 156.157 189.641 156.868 190.118C157.579 190.595 158.467 190.833 159.53 190.833C160.711 190.833 161.671 190.54 162.412 189.953C163.153 189.366 163.677 188.56 163.985 187.533L166.658 188.27C166.167 189.817 165.312 191.049 164.095 191.966C162.878 192.875 161.356 193.33 159.53 193.33ZM175.772 193.33C174.188 193.33 172.832 192.985 171.702 192.296C170.573 191.599 169.704 190.631 169.095 189.392C168.494 188.153 168.193 186.715 168.193 185.08C168.193 183.445 168.494 182.007 169.095 180.768C169.704 179.529 170.573 178.564 171.702 177.875C172.832 177.178 174.188 176.83 175.772 176.83C177.356 176.83 178.713 177.178 179.842 177.875C180.979 178.564 181.848 179.529 182.449 180.768C183.058 182.007 183.362 183.445 183.362 185.08C183.362 186.715 183.058 188.153 182.449 189.392C181.848 190.631 180.979 191.599 179.842 192.296C178.713 192.985 177.356 193.33 175.772 193.33ZM175.772 190.833C176.836 190.84 177.719 190.606 178.423 190.129C179.135 189.652 179.666 188.981 180.018 188.116C180.378 187.251 180.557 186.239 180.557 185.08C180.557 183.921 180.378 182.917 180.018 182.066C179.666 181.208 179.135 180.541 178.423 180.064C177.719 179.587 176.836 179.342 175.772 179.327C174.709 179.32 173.825 179.554 173.121 180.031C172.417 180.508 171.886 181.179 171.526 182.044C171.174 182.909 170.998 183.921 170.998 185.08C170.998 186.239 171.174 187.247 171.526 188.105C171.878 188.956 172.406 189.619 173.11 190.096C173.822 190.573 174.709 190.818 175.772 190.833ZM191.932 193.33C190.67 193.33 189.559 193.073 188.599 192.56C187.645 192.047 186.897 191.324 186.355 190.393C185.819 189.462 185.552 188.369 185.552 187.115V177.182L188.236 177.16V187.049C188.236 187.643 188.335 188.175 188.533 188.644C188.738 189.113 189.013 189.513 189.358 189.843C189.702 190.166 190.098 190.411 190.546 190.58C190.993 190.749 191.455 190.833 191.932 190.833C192.423 190.833 192.889 190.749 193.329 190.58C193.776 190.404 194.172 190.155 194.517 189.832C194.861 189.502 195.133 189.102 195.331 188.633C195.529 188.164 195.628 187.636 195.628 187.049V177.16H198.312V187.115C198.312 188.369 198.04 189.462 197.498 190.393C196.962 191.324 196.214 192.047 195.254 192.56C194.3 193.073 193.193 193.33 191.932 193.33ZM201.606 193V177.16H204.257V190.514H211.253V193H201.606ZM213.116 193V177.16H218.165C218.297 177.16 218.558 177.164 218.946 177.171C219.342 177.178 219.724 177.204 220.09 177.248C221.344 177.409 222.404 177.857 223.269 178.59C224.142 179.316 224.802 180.244 225.249 181.373C225.697 182.502 225.92 183.738 225.92 185.08C225.92 186.422 225.697 187.658 225.249 188.787C224.802 189.916 224.142 190.848 223.269 191.581C222.404 192.307 221.344 192.751 220.09 192.912C219.731 192.956 219.353 192.982 218.957 192.989C218.561 192.996 218.297 193 218.165 193H213.116ZM215.811 190.503H218.165C218.385 190.503 218.664 190.496 219.001 190.481C219.346 190.466 219.65 190.433 219.914 190.382C220.662 190.243 221.271 189.909 221.74 189.381C222.21 188.853 222.554 188.211 222.774 187.456C223.002 186.701 223.115 185.909 223.115 185.08C223.115 184.222 223.002 183.415 222.774 182.66C222.547 181.905 222.195 181.27 221.718 180.757C221.249 180.244 220.648 179.917 219.914 179.778C219.65 179.719 219.346 179.686 219.001 179.679C218.664 179.664 218.385 179.657 218.165 179.657H215.811V190.503ZM238.788 193.33C237.629 193.33 236.584 193.128 235.653 192.725C234.729 192.322 233.966 191.746 233.365 190.998C232.771 190.243 232.393 189.348 232.232 188.314L234.982 187.896C235.216 188.835 235.697 189.561 236.423 190.074C237.156 190.587 237.999 190.844 238.953 190.844C239.517 190.844 240.049 190.756 240.548 190.58C241.046 190.404 241.45 190.147 241.758 189.81C242.073 189.473 242.231 189.058 242.231 188.567C242.231 188.347 242.194 188.145 242.121 187.962C242.047 187.771 241.937 187.603 241.791 187.456C241.651 187.309 241.468 187.177 241.241 187.06C241.021 186.935 240.764 186.829 240.471 186.741L236.379 185.531C236.027 185.428 235.645 185.293 235.235 185.124C234.831 184.948 234.446 184.71 234.08 184.409C233.72 184.101 233.423 183.712 233.189 183.243C232.961 182.766 232.848 182.18 232.848 181.483C232.848 180.464 233.104 179.609 233.618 178.92C234.138 178.223 234.835 177.703 235.708 177.358C236.588 177.013 237.563 176.845 238.634 176.852C239.719 176.859 240.687 177.046 241.538 177.413C242.388 177.772 243.1 178.297 243.672 178.986C244.244 179.675 244.647 180.508 244.882 181.483L242.033 181.978C241.915 181.421 241.688 180.948 241.351 180.559C241.021 180.163 240.614 179.862 240.13 179.657C239.653 179.452 239.143 179.342 238.601 179.327C238.073 179.32 237.581 179.4 237.127 179.569C236.679 179.73 236.316 179.965 236.038 180.273C235.766 180.581 235.631 180.94 235.631 181.351C235.631 181.74 235.748 182.059 235.983 182.308C236.217 182.55 236.507 182.744 236.852 182.891C237.204 183.03 237.559 183.148 237.919 183.243L240.757 184.035C241.145 184.138 241.582 184.277 242.066 184.453C242.55 184.629 243.015 184.875 243.463 185.19C243.91 185.505 244.277 185.92 244.563 186.433C244.856 186.946 245.003 187.599 245.003 188.391C245.003 189.212 244.83 189.935 244.486 190.558C244.148 191.174 243.69 191.687 243.111 192.098C242.531 192.509 241.868 192.817 241.12 193.022C240.379 193.227 239.602 193.33 238.788 193.33ZM246.284 193L251.278 177.16H255.161L260.155 193H257.427L252.895 178.788H253.489L249.012 193H246.284ZM249.067 189.568V187.093H257.383V189.568H249.067ZM264.683 193V186.51L259.293 177.16H262.384L266.025 183.474L269.655 177.16H272.746L267.367 186.51V193H264.683ZM284.505 193.33C282.921 193.33 281.564 192.985 280.435 192.296C279.305 191.599 278.436 190.631 277.828 189.392C277.226 188.153 276.926 186.715 276.926 185.08C276.926 183.445 277.226 182.007 277.828 180.768C278.436 179.529 279.305 178.564 280.435 177.875C281.564 177.178 282.921 176.83 284.505 176.83C286.089 176.83 287.445 177.178 288.575 177.875C289.711 178.564 290.58 179.529 291.182 180.768C291.79 182.007 292.095 183.445 292.095 185.08C292.095 186.715 291.79 188.153 291.182 189.392C290.58 190.631 289.711 191.599 288.575 192.296C287.445 192.985 286.089 193.33 284.505 193.33ZM284.505 190.833C285.568 190.84 286.452 190.606 287.156 190.129C287.867 189.652 288.399 188.981 288.751 188.116C289.11 187.251 289.29 186.239 289.29 185.08C289.29 183.921 289.11 182.917 288.751 182.066C288.399 181.208 287.867 180.541 287.156 180.064C286.452 179.587 285.568 179.342 284.505 179.327C283.441 179.32 282.558 179.554 281.854 180.031C281.15 180.508 280.618 181.179 280.259 182.044C279.907 182.909 279.731 183.921 279.731 185.08C279.731 186.239 279.907 187.247 280.259 188.105C280.611 188.956 281.139 189.619 281.843 190.096C282.554 190.573 283.441 190.818 284.505 190.833ZM294.284 193V177.16H296.968L304.316 188.325V177.16H307V193H304.316L296.968 181.835V193H294.284ZM310.295 193V177.16H312.946V190.514H319.942V193H310.295ZM323.464 193V186.51L318.074 177.16H321.165L324.806 183.474L328.436 177.16H331.527L326.148 186.51V193H323.464ZM343.286 193.33C341.702 193.33 340.345 192.985 339.216 192.296C338.087 191.599 337.218 190.631 336.609 189.392C336.008 188.153 335.707 186.715 335.707 185.08C335.707 183.445 336.008 182.007 336.609 180.768C337.218 179.529 338.087 178.564 339.216 177.875C340.345 177.178 341.702 176.83 343.286 176.83C344.87 176.83 346.227 177.178 347.356 177.875C348.493 178.564 349.362 179.529 349.963 180.768C350.572 182.007 350.876 183.445 350.876 185.08C350.876 186.715 350.572 188.153 349.963 189.392C349.362 190.631 348.493 191.599 347.356 192.296C346.227 192.985 344.87 193.33 343.286 193.33ZM343.286 190.833C344.349 190.84 345.233 190.606 345.937 190.129C346.648 189.652 347.18 188.981 347.532 188.116C347.891 187.251 348.071 186.239 348.071 185.08C348.071 183.921 347.891 182.917 347.532 182.066C347.18 181.208 346.648 180.541 345.937 180.064C345.233 179.587 344.349 179.342 343.286 179.327C342.223 179.32 341.339 179.554 340.635 180.031C339.931 180.508 339.399 181.179 339.04 182.044C338.688 182.909 338.512 183.921 338.512 185.08C338.512 186.239 338.688 187.247 339.04 188.105C339.392 188.956 339.92 189.619 340.624 190.096C341.335 190.573 342.223 190.818 343.286 190.833ZM353.065 193V177.16H355.749L363.097 188.325V177.16H365.781V193H363.097L355.749 181.835V193H353.065ZM368.856 193V177.16H379.086V179.646H371.507V183.551H377.766V186.037H371.507V190.514H379.086V193H368.856ZM389.474 193L384.843 177.16H387.626L390.783 188.6L393.929 177.182L396.712 177.16L399.869 188.6L403.015 177.16H405.798L401.178 193H398.56L395.315 181.736L392.092 193H389.474ZM413.862 193.33C412.278 193.33 410.921 192.985 409.792 192.296C408.663 191.599 407.794 190.631 407.185 189.392C406.584 188.153 406.283 186.715 406.283 185.08C406.283 183.445 406.584 182.007 407.185 180.768C407.794 179.529 408.663 178.564 409.792 177.875C410.921 177.178 412.278 176.83 413.862 176.83C415.446 176.83 416.803 177.178 417.932 177.875C419.069 178.564 419.938 179.529 420.539 180.768C421.148 182.007 421.452 183.445 421.452 185.08C421.452 186.715 421.148 188.153 420.539 189.392C419.938 190.631 419.069 191.599 417.932 192.296C416.803 192.985 415.446 193.33 413.862 193.33ZM413.862 190.833C414.925 190.84 415.809 190.606 416.513 190.129C417.224 189.652 417.756 188.981 418.108 188.116C418.467 187.251 418.647 186.239 418.647 185.08C418.647 183.921 418.467 182.917 418.108 182.066C417.756 181.208 417.224 180.541 416.513 180.064C415.809 179.587 414.925 179.342 413.862 179.327C412.799 179.32 411.915 179.554 411.211 180.031C410.507 180.508 409.975 181.179 409.616 182.044C409.264 182.909 409.088 183.921 409.088 185.08C409.088 186.239 409.264 187.247 409.616 188.105C409.968 188.956 410.496 189.619 411.2 190.096C411.911 190.573 412.799 190.818 413.862 190.833ZM423.642 193V177.16H430.187C430.341 177.16 430.539 177.167 430.781 177.182C431.023 177.189 431.246 177.211 431.452 177.248C432.368 177.387 433.124 177.692 433.718 178.161C434.319 178.63 434.763 179.224 435.049 179.943C435.342 180.654 435.489 181.446 435.489 182.319C435.489 183.61 435.162 184.721 434.51 185.652C433.857 186.576 432.856 187.148 431.507 187.368L430.374 187.467H426.293V193H423.642ZM432.739 193L429.615 186.554L432.31 185.96L435.742 193H432.739ZM426.293 184.992H430.077C430.223 184.992 430.388 184.985 430.572 184.97C430.755 184.955 430.924 184.926 431.078 184.882C431.518 184.772 431.862 184.578 432.112 184.299C432.368 184.02 432.548 183.705 432.651 183.353C432.761 183.001 432.816 182.656 432.816 182.319C432.816 181.982 432.761 181.637 432.651 181.285C432.548 180.926 432.368 180.607 432.112 180.328C431.862 180.049 431.518 179.855 431.078 179.745C430.924 179.701 430.755 179.675 430.572 179.668C430.388 179.653 430.223 179.646 430.077 179.646H426.293V184.992ZM438.165 193V177.16H443.214C443.346 177.16 443.606 177.164 443.995 177.171C444.391 177.178 444.772 177.204 445.139 177.248C446.393 177.409 447.453 177.857 448.318 178.59C449.191 179.316 449.851 180.244 450.298 181.373C450.745 182.502 450.969 183.738 450.969 185.08C450.969 186.422 450.745 187.658 450.298 188.787C449.851 189.916 449.191 190.848 448.318 191.581C447.453 192.307 446.393 192.751 445.139 192.912C444.78 192.956 444.402 192.982 444.006 192.989C443.61 192.996 443.346 193 443.214 193H438.165ZM440.86 190.503H443.214C443.434 190.503 443.713 190.496 444.05 190.481C444.395 190.466 444.699 190.433 444.963 190.382C445.711 190.243 446.32 189.909 446.789 189.381C447.258 188.853 447.603 188.211 447.823 187.456C448.05 186.701 448.164 185.909 448.164 185.08C448.164 184.222 448.05 183.415 447.823 182.66C447.596 181.905 447.244 181.27 446.767 180.757C446.298 180.244 445.696 179.917 444.963 179.778C444.699 179.719 444.395 179.686 444.05 179.679C443.713 179.664 443.434 179.657 443.214 179.657H440.86V190.503ZM456.874 193L461.868 177.16H465.751L470.745 193H468.017L463.485 178.788H464.079L459.602 193H456.874ZM459.657 189.568V187.093H467.973V189.568H459.657ZM477.138 193V177.16H482.187C482.319 177.16 482.579 177.164 482.968 177.171C483.364 177.178 483.745 177.204 484.112 177.248C485.366 177.409 486.425 177.857 487.291 178.59C488.163 179.316 488.823 180.244 489.271 181.373C489.718 182.502 489.942 183.738 489.942 185.08C489.942 186.422 489.718 187.658 489.271 188.787C488.823 189.916 488.163 190.848 487.291 191.581C486.425 192.307 485.366 192.751 484.112 192.912C483.752 192.956 483.375 192.982 482.979 192.989C482.583 192.996 482.319 193 482.187 193H477.138ZM479.833 190.503H482.187C482.407 190.503 482.685 190.496 483.023 190.481C483.367 190.466 483.672 190.433 483.936 190.382C484.684 190.243 485.292 189.909 485.762 189.381C486.231 188.853 486.576 188.211 486.796 187.456C487.023 186.701 487.137 185.909 487.137 185.08C487.137 184.222 487.023 183.415 486.796 182.66C486.568 181.905 486.216 181.27 485.74 180.757C485.27 180.244 484.669 179.917 483.936 179.778C483.672 179.719 483.367 179.686 483.023 179.679C482.685 179.664 482.407 179.657 482.187 179.657H479.833V190.503ZM491.012 193L496.006 177.16H499.889L504.883 193H502.155L497.623 178.788H498.217L493.74 193H491.012ZM493.795 189.568V187.093H502.111V189.568H493.795ZM509.411 193V186.51L504.021 177.16H507.112L510.753 183.474L514.383 177.16H517.474L512.095 186.51V193H509.411ZM515.718 195.805L515.872 194.661C516.21 194.69 516.477 194.632 516.675 194.485C516.873 194.346 517.005 194.144 517.071 193.88C517.145 193.623 517.163 193.33 517.126 193H515.718V190.173H518.435V193.11C518.435 194.071 518.208 194.797 517.753 195.288C517.299 195.779 516.62 195.952 515.718 195.805ZM177.606 224L172.975 208.16H175.758L178.915 219.6L182.061 208.182L184.844 208.16L188.001 219.6L191.147 208.16H193.93L189.31 224H186.692L183.447 212.736L180.224 224H177.606ZM195.725 224V208.16H198.376V214.826H205.878V208.16H208.518V224H205.878V217.312H198.376V224H195.725ZM210.502 224L215.496 208.16H219.379L224.373 224H221.645L217.113 209.788H217.707L213.23 224H210.502ZM213.285 220.568V218.093H221.601V220.568H213.285ZM228.857 224V210.646H223.731V208.16H236.634V210.646H231.508V224H228.857ZM245.475 224L240.844 208.16H243.627L246.784 219.6L249.93 208.182L252.713 208.16L255.87 219.6L259.016 208.16H261.799L257.179 224H254.561L251.316 212.736L248.093 224H245.475ZM269.863 224.33C268.279 224.33 266.922 223.985 265.793 223.296C264.664 222.599 263.795 221.631 263.186 220.392C262.585 219.153 262.284 217.715 262.284 216.08C262.284 214.445 262.585 213.007 263.186 211.768C263.795 210.529 264.664 209.564 265.793 208.875C266.922 208.178 268.279 207.83 269.863 207.83C271.447 207.83 272.804 208.178 273.933 208.875C275.07 209.564 275.939 210.529 276.54 211.768C277.149 213.007 277.453 214.445 277.453 216.08C277.453 217.715 277.149 219.153 276.54 220.392C275.939 221.631 275.07 222.599 273.933 223.296C272.804 223.985 271.447 224.33 269.863 224.33ZM269.863 221.833C270.926 221.84 271.81 221.606 272.514 221.129C273.225 220.652 273.757 219.981 274.109 219.116C274.468 218.251 274.648 217.239 274.648 216.08C274.648 214.921 274.468 213.917 274.109 213.066C273.757 212.208 273.225 211.541 272.514 211.064C271.81 210.587 270.926 210.342 269.863 210.327C268.8 210.32 267.916 210.554 267.212 211.031C266.508 211.508 265.976 212.179 265.617 213.044C265.265 213.909 265.089 214.921 265.089 216.08C265.089 217.239 265.265 218.247 265.617 219.105C265.969 219.956 266.497 220.619 267.201 221.096C267.912 221.573 268.8 221.818 269.863 221.833ZM286.023 224.33C284.761 224.33 283.65 224.073 282.69 223.56C281.736 223.047 280.988 222.324 280.446 221.393C279.91 220.462 279.643 219.369 279.643 218.115V208.182L282.327 208.16V218.049C282.327 218.643 282.426 219.175 282.624 219.644C282.829 220.113 283.104 220.513 283.449 220.843C283.793 221.166 284.189 221.411 284.637 221.58C285.084 221.749 285.546 221.833 286.023 221.833C286.514 221.833 286.98 221.749 287.42 221.58C287.867 221.404 288.263 221.155 288.608 220.832C288.952 220.502 289.224 220.102 289.422 219.633C289.62 219.164 289.719 218.636 289.719 218.049V208.16H292.403V218.115C292.403 219.369 292.131 220.462 291.589 221.393C291.053 222.324 290.305 223.047 289.345 223.56C288.391 224.073 287.284 224.33 286.023 224.33ZM295.697 224V208.16H298.348V221.514H305.344V224H295.697ZM307.207 224V208.16H312.256C312.388 208.16 312.648 208.164 313.037 208.171C313.433 208.178 313.814 208.204 314.181 208.248C315.435 208.409 316.495 208.857 317.36 209.59C318.233 210.316 318.893 211.244 319.34 212.373C319.787 213.502 320.011 214.738 320.011 216.08C320.011 217.422 319.787 218.658 319.34 219.787C318.893 220.916 318.233 221.848 317.36 222.581C316.495 223.307 315.435 223.751 314.181 223.912C313.822 223.956 313.444 223.982 313.048 223.989C312.652 223.996 312.388 224 312.256 224H307.207ZM309.902 221.503H312.256C312.476 221.503 312.755 221.496 313.092 221.481C313.437 221.466 313.741 221.433 314.005 221.382C314.753 221.243 315.362 220.909 315.831 220.381C316.3 219.853 316.645 219.211 316.865 218.456C317.092 217.701 317.206 216.909 317.206 216.08C317.206 215.222 317.092 214.415 316.865 213.66C316.638 212.905 316.286 212.27 315.809 211.757C315.34 211.244 314.738 210.917 314.005 210.778C313.741 210.719 313.437 210.686 313.092 210.679C312.755 210.664 312.476 210.657 312.256 210.657H309.902V221.503ZM330.866 224V217.51L325.476 208.16H328.567L332.208 214.474L335.838 208.16H338.929L333.55 217.51V224H330.866ZM346.283 224.33C344.699 224.33 343.342 223.985 342.213 223.296C341.084 222.599 340.215 221.631 339.606 220.392C339.005 219.153 338.704 217.715 338.704 216.08C338.704 214.445 339.005 213.007 339.606 211.768C340.215 210.529 341.084 209.564 342.213 208.875C343.342 208.178 344.699 207.83 346.283 207.83C347.867 207.83 349.224 208.178 350.353 208.875C351.49 209.564 352.359 210.529 352.96 211.768C353.569 213.007 353.873 214.445 353.873 216.08C353.873 217.715 353.569 219.153 352.96 220.392C352.359 221.631 351.49 222.599 350.353 223.296C349.224 223.985 347.867 224.33 346.283 224.33ZM346.283 221.833C347.346 221.84 348.23 221.606 348.934 221.129C349.645 220.652 350.177 219.981 350.529 219.116C350.888 218.251 351.068 217.239 351.068 216.08C351.068 214.921 350.888 213.917 350.529 213.066C350.177 212.208 349.645 211.541 348.934 211.064C348.23 210.587 347.346 210.342 346.283 210.327C345.22 210.32 344.336 210.554 343.632 211.031C342.928 211.508 342.396 212.179 342.037 213.044C341.685 213.909 341.509 214.921 341.509 216.08C341.509 217.239 341.685 218.247 342.037 219.105C342.389 219.956 342.917 220.619 343.621 221.096C344.332 221.573 345.22 221.818 346.283 221.833ZM362.442 224.33C361.181 224.33 360.07 224.073 359.109 223.56C358.156 223.047 357.408 222.324 356.865 221.393C356.33 220.462 356.062 219.369 356.062 218.115V208.182L358.746 208.16V218.049C358.746 218.643 358.845 219.175 359.043 219.644C359.249 220.113 359.524 220.513 359.868 220.843C360.213 221.166 360.609 221.411 361.056 221.58C361.504 221.749 361.966 221.833 362.442 221.833C362.934 221.833 363.399 221.749 363.839 221.58C364.287 221.404 364.683 221.155 365.027 220.832C365.372 220.502 365.643 220.102 365.841 219.633C366.039 219.164 366.138 218.636 366.138 218.049V208.16H368.822V218.115C368.822 219.369 368.551 220.462 368.008 221.393C367.473 222.324 366.725 223.047 365.764 223.56C364.811 224.073 363.704 224.33 362.442 224.33ZM382.164 224.33C381.005 224.33 379.96 224.128 379.029 223.725C378.105 223.322 377.342 222.746 376.741 221.998C376.147 221.243 375.769 220.348 375.608 219.314L378.358 218.896C378.592 219.835 379.073 220.561 379.799 221.074C380.532 221.587 381.375 221.844 382.329 221.844C382.893 221.844 383.425 221.756 383.924 221.58C384.422 221.404 384.826 221.147 385.134 220.81C385.449 220.473 385.607 220.058 385.607 219.567C385.607 219.347 385.57 219.145 385.497 218.962C385.423 218.771 385.313 218.603 385.167 218.456C385.027 218.309 384.844 218.177 384.617 218.06C384.397 217.935 384.14 217.829 383.847 217.741L379.755 216.531C379.403 216.428 379.021 216.293 378.611 216.124C378.207 215.948 377.822 215.71 377.456 215.409C377.096 215.101 376.799 214.712 376.565 214.243C376.337 213.766 376.224 213.18 376.224 212.483C376.224 211.464 376.48 210.609 376.994 209.92C377.514 209.223 378.211 208.703 379.084 208.358C379.964 208.013 380.939 207.845 382.01 207.852C383.095 207.859 384.063 208.046 384.914 208.413C385.764 208.772 386.476 209.297 387.048 209.986C387.62 210.675 388.023 211.508 388.258 212.483L385.409 212.978C385.291 212.421 385.064 211.948 384.727 211.559C384.397 211.163 383.99 210.862 383.506 210.657C383.029 210.452 382.519 210.342 381.977 210.327C381.449 210.32 380.957 210.4 380.503 210.569C380.055 210.73 379.692 210.965 379.414 211.273C379.142 211.581 379.007 211.94 379.007 212.351C379.007 212.74 379.124 213.059 379.359 213.308C379.593 213.55 379.883 213.744 380.228 213.891C380.58 214.03 380.935 214.148 381.295 214.243L384.133 215.035C384.521 215.138 384.958 215.277 385.442 215.453C385.926 215.629 386.391 215.875 386.839 216.19C387.286 216.505 387.653 216.92 387.939 217.433C388.232 217.946 388.379 218.599 388.379 219.391C388.379 220.212 388.206 220.935 387.862 221.558C387.524 222.174 387.066 222.687 386.487 223.098C385.907 223.509 385.244 223.817 384.496 224.022C383.755 224.227 382.978 224.33 382.164 224.33ZM389.66 224L394.654 208.16H398.537L403.531 224H400.803L396.271 209.788H396.865L392.388 224H389.66ZM392.443 220.568V218.093H400.759V220.568H392.443ZM408.059 224V217.51L402.669 208.16H405.76L409.401 214.474L413.031 208.16H416.122L410.743 217.51V224H408.059ZM420.529 219.699C420.529 219.193 420.577 218.705 420.672 218.236C420.775 217.759 420.94 217.319 421.167 216.916C421.365 216.527 421.585 216.219 421.827 215.992C422.069 215.757 422.34 215.526 422.641 215.299C422.942 215.064 423.275 214.753 423.642 214.364C423.943 214.034 424.141 213.708 424.236 213.385C424.331 213.055 424.379 212.703 424.379 212.329C424.379 212.087 424.353 211.86 424.302 211.647C424.251 211.434 424.159 211.251 424.027 211.097C423.822 210.826 423.558 210.635 423.235 210.525C422.912 210.408 422.568 210.349 422.201 210.349C421.9 210.349 421.611 210.389 421.332 210.47C421.061 210.543 420.83 210.661 420.639 210.822C420.419 210.998 420.258 211.214 420.155 211.471C420.052 211.728 420.005 212.01 420.012 212.318H417.218C417.291 211.585 417.489 210.906 417.812 210.283C418.142 209.652 418.575 209.15 419.11 208.776C419.528 208.468 419.997 208.237 420.518 208.083C421.046 207.929 421.574 207.852 422.102 207.852C422.909 207.852 423.668 207.977 424.379 208.226C425.098 208.475 425.695 208.886 426.172 209.458C426.502 209.832 426.751 210.265 426.92 210.756C427.096 211.247 427.184 211.746 427.184 212.252C427.184 213.007 427.019 213.697 426.689 214.32C426.366 214.943 425.956 215.519 425.457 216.047C425.222 216.296 424.999 216.516 424.786 216.707C424.573 216.898 424.375 217.085 424.192 217.268C424.016 217.444 423.869 217.631 423.752 217.829C423.547 218.174 423.426 218.467 423.389 218.709C423.352 218.944 423.334 219.274 423.334 219.699H420.529ZM420.551 224V221.085H423.334V224H420.551Z" fill="white"></path> <path d="M246.766 35V24.766H252.786V25.914H247.998V29.316H252.422V30.464H248.026V35H246.766ZM255.3 35V33.852H257.386V25.928H255.3V24.78H260.76V25.928H258.674V33.852H260.76V35H255.3ZM263.513 35V24.78H266.677C267.283 24.78 267.815 24.906 268.273 25.158C268.73 25.4007 269.085 25.7413 269.337 26.18C269.589 26.6187 269.715 27.132 269.715 27.72C269.715 28.4107 269.533 29.0033 269.169 29.498C268.814 29.9927 268.329 30.3333 267.713 30.52L269.855 35H268.371L266.411 30.66H264.773V35H263.513ZM264.773 29.526H266.677C267.199 29.526 267.619 29.3627 267.937 29.036C268.254 28.7 268.413 28.2613 268.413 27.72C268.413 27.1693 268.254 26.7307 267.937 26.404C267.619 26.0773 267.199 25.914 266.677 25.914H264.773V29.526ZM274.875 35.14C274.203 35.14 273.624 35.028 273.139 34.804C272.663 34.58 272.294 34.258 272.033 33.838C271.772 33.418 271.636 32.9187 271.627 32.34H272.887C272.887 32.8533 273.06 33.2593 273.405 33.558C273.76 33.8567 274.25 34.006 274.875 34.006C275.463 34.006 275.92 33.8613 276.247 33.572C276.583 33.2827 276.751 32.8813 276.751 32.368C276.751 31.9573 276.639 31.598 276.415 31.29C276.2 30.982 275.888 30.7673 275.477 30.646L274.091 30.212C273.391 29.9973 272.85 29.638 272.467 29.134C272.094 28.63 271.907 28.0373 271.907 27.356C271.907 26.8053 272.028 26.3293 272.271 25.928C272.523 25.5173 272.873 25.2 273.321 24.976C273.769 24.7427 274.296 24.626 274.903 24.626C275.799 24.626 276.518 24.878 277.059 25.382C277.6 25.8767 277.876 26.5393 277.885 27.37H276.625C276.625 26.866 276.471 26.474 276.163 26.194C275.864 25.9047 275.44 25.76 274.889 25.76C274.348 25.76 273.923 25.8907 273.615 26.152C273.316 26.4133 273.167 26.7773 273.167 27.244C273.167 27.664 273.279 28.028 273.503 28.336C273.727 28.644 274.049 28.8633 274.469 28.994L275.869 29.442C276.55 29.6567 277.078 30.0207 277.451 30.534C277.824 31.0473 278.011 31.6493 278.011 32.34C278.011 32.9 277.88 33.39 277.619 33.81C277.358 34.23 276.989 34.5567 276.513 34.79C276.046 35.0233 275.5 35.14 274.875 35.14ZM282.584 35V25.914H279.784V24.766H286.644V25.914H283.844V35H282.584ZM296.867 35V24.78H298.519L299.583 28.084C299.685 28.3827 299.779 28.6813 299.863 28.98C299.947 29.2693 300.007 29.4933 300.045 29.652C300.091 29.4933 300.152 29.2693 300.227 28.98C300.301 28.6813 300.385 28.378 300.479 28.07L301.487 24.78H303.139V35H301.907V31.29C301.907 30.8793 301.921 30.4127 301.949 29.89C301.977 29.3673 302.014 28.8353 302.061 28.294C302.107 27.7433 302.154 27.2207 302.201 26.726C302.257 26.222 302.303 25.7833 302.341 25.41L300.689 30.52H299.359L297.693 25.41C297.739 25.774 297.786 26.1987 297.833 26.684C297.879 27.16 297.921 27.6687 297.959 28.21C297.996 28.742 298.029 29.274 298.057 29.806C298.085 30.338 298.099 30.8327 298.099 31.29V35H296.867ZM305.597 35V24.78H311.477V25.928H306.843V29.092H310.987V30.226H306.843V33.852H311.477V35H305.597ZM313.992 35V24.78H319.872V25.928H315.238V29.092H319.382V30.226H315.238V33.852H319.872V35H313.992ZM324.556 35V25.914H321.756V24.766H328.616V25.914H325.816V35H324.556ZM330.851 35V33.852H332.937V25.928H330.851V24.78H336.311V25.928H334.225V33.852H336.311V35H330.851ZM339.035 35V24.78H340.715L343.837 33.53C343.819 33.2967 343.795 33.012 343.767 32.676C343.749 32.3307 343.73 31.9713 343.711 31.598C343.702 31.2153 343.697 30.856 343.697 30.52V24.78H344.915V35H343.235L340.127 26.25C340.146 26.474 340.165 26.7587 340.183 27.104C340.202 27.44 340.216 27.7993 340.225 28.182C340.244 28.5553 340.253 28.9147 340.253 29.26V35H339.035ZM350.426 35.14C349.81 35.14 349.273 35.0233 348.816 34.79C348.368 34.5567 348.018 34.2207 347.766 33.782C347.523 33.334 347.402 32.8067 347.402 32.2V27.58C347.402 26.964 347.523 26.4367 347.766 25.998C348.018 25.5593 348.368 25.2233 348.816 24.99C349.273 24.7567 349.81 24.64 350.426 24.64C351.042 24.64 351.574 24.7613 352.022 25.004C352.47 25.2373 352.815 25.5733 353.058 26.012C353.301 26.4507 353.422 26.9733 353.422 27.58H352.162C352.162 27.0013 352.008 26.558 351.7 26.25C351.401 25.9327 350.977 25.774 350.426 25.774C349.875 25.774 349.441 25.928 349.124 26.236C348.816 26.544 348.662 26.9873 348.662 27.566V32.2C348.662 32.7787 348.816 33.2267 349.124 33.544C349.441 33.8613 349.875 34.02 350.426 34.02C350.977 34.02 351.401 33.8613 351.7 33.544C352.008 33.2267 352.162 32.7787 352.162 32.2V30.94H350.09V29.792H353.422V32.2C353.422 32.7973 353.301 33.32 353.058 33.768C352.815 34.2067 352.47 34.5473 352.022 34.79C351.574 35.0233 351.042 35.14 350.426 35.14Z" fill="white"></path> </g> <defs> <clipPath id="clip0_1323_288"> <rect width="600" height="400" rx="20" fill="white"></rect> </clipPath> </defs> </svg> 