<?xml version="1.0" encoding="UTF-8"?> <svg xmlns="http://www.w3.org/2000/svg" width="600" height="400" viewBox="0 0 600 400" fill="none"> <g clip-path="url(#clip0_1323_291)"> <rect width="600" height="400" rx="20" fill="#FF722B"></rect> <path d="M95.8545 193V177.16H98.5055V183.826H106.007V177.16H108.647V193H106.007V186.312H98.5055V193H95.8545ZM118.43 193.33C116.846 193.33 115.49 192.985 114.36 192.296C113.231 191.599 112.362 190.631 111.753 189.392C111.152 188.153 110.851 186.715 110.851 185.08C110.851 183.445 111.152 182.007 111.753 180.768C112.362 179.529 113.231 178.564 114.36 177.875C115.49 177.178 116.846 176.83 118.43 176.83C120.014 176.83 121.371 177.178 122.5 177.875C123.637 178.564 124.506 179.529 125.107 180.768C125.716 182.007 126.02 183.445 126.02 185.08C126.02 186.715 125.716 188.153 125.107 189.392C124.506 190.631 123.637 191.599 122.5 192.296C121.371 192.985 120.014 193.33 118.43 193.33ZM118.43 190.833C119.494 190.84 120.377 190.606 121.081 190.129C121.793 189.652 122.324 188.981 122.676 188.116C123.036 187.251 123.215 186.239 123.215 185.08C123.215 183.921 123.036 182.917 122.676 182.066C122.324 181.208 121.793 180.541 121.081 180.064C120.377 179.587 119.494 179.342 118.43 179.327C117.367 179.32 116.483 179.554 115.779 180.031C115.075 180.508 114.544 181.179 114.184 182.044C113.832 182.909 113.656 183.921 113.656 185.08C113.656 186.239 113.832 187.247 114.184 188.105C114.536 188.956 115.064 189.619 115.768 190.096C116.48 190.573 117.367 190.818 118.43 190.833ZM130.888 193L126.257 177.16H129.04L132.197 188.6L135.343 177.182L138.126 177.16L141.283 188.6L144.429 177.16H147.212L142.592 193H139.974L136.729 181.736L133.506 193H130.888ZM156.755 193L152.124 177.16H154.907L158.064 188.6L161.21 177.182L163.993 177.16L167.15 188.6L170.296 177.16H173.079L168.459 193H165.841L162.596 181.736L159.373 193H156.755ZM181.143 193.33C179.559 193.33 178.203 192.985 177.073 192.296C175.944 191.599 175.075 190.631 174.466 189.392C173.865 188.153 173.564 186.715 173.564 185.08C173.564 183.445 173.865 182.007 174.466 180.768C175.075 179.529 175.944 178.564 177.073 177.875C178.203 177.178 179.559 176.83 181.143 176.83C182.727 176.83 184.084 177.178 185.213 177.875C186.35 178.564 187.219 179.529 187.82 180.768C188.429 182.007 188.733 183.445 188.733 185.08C188.733 186.715 188.429 188.153 187.82 189.392C187.219 190.631 186.35 191.599 185.213 192.296C184.084 192.985 182.727 193.33 181.143 193.33ZM181.143 190.833C182.207 190.84 183.09 190.606 183.794 190.129C184.506 189.652 185.037 188.981 185.389 188.116C185.749 187.251 185.928 186.239 185.928 185.08C185.928 183.921 185.749 182.917 185.389 182.066C185.037 181.208 184.506 180.541 183.794 180.064C183.09 179.587 182.207 179.342 181.143 179.327C180.08 179.32 179.196 179.554 178.492 180.031C177.788 180.508 177.257 181.179 176.897 182.044C176.545 182.909 176.369 183.921 176.369 185.08C176.369 186.239 176.545 187.247 176.897 188.105C177.249 188.956 177.777 189.619 178.481 190.096C179.193 190.573 180.08 190.818 181.143 190.833ZM197.303 193.33C196.041 193.33 194.93 193.073 193.97 192.56C193.016 192.047 192.268 191.324 191.726 190.393C191.19 189.462 190.923 188.369 190.923 187.115V177.182L193.607 177.16V187.049C193.607 187.643 193.706 188.175 193.904 188.644C194.109 189.113 194.384 189.513 194.729 189.843C195.073 190.166 195.469 190.411 195.917 190.58C196.364 190.749 196.826 190.833 197.303 190.833C197.794 190.833 198.26 190.749 198.7 190.58C199.147 190.404 199.543 190.155 199.888 189.832C200.232 189.502 200.504 189.102 200.702 188.633C200.9 188.164 200.999 187.636 200.999 187.049V177.16H203.683V187.115C203.683 188.369 203.411 189.462 202.869 190.393C202.333 191.324 201.585 192.047 200.625 192.56C199.671 193.073 198.564 193.33 197.303 193.33ZM206.977 193V177.16H209.628V190.514H216.624V193H206.977ZM218.487 193V177.16H223.536C223.668 177.16 223.929 177.164 224.317 177.171C224.713 177.178 225.095 177.204 225.461 177.248C226.715 177.409 227.775 177.857 228.64 178.59C229.513 179.316 230.173 180.244 230.62 181.373C231.068 182.502 231.291 183.738 231.291 185.08C231.291 186.422 231.068 187.658 230.62 188.787C230.173 189.916 229.513 190.848 228.64 191.581C227.775 192.307 226.715 192.751 225.461 192.912C225.102 192.956 224.724 192.982 224.328 192.989C223.932 192.996 223.668 193 223.536 193H218.487ZM221.182 190.503H223.536C223.756 190.503 224.035 190.496 224.372 190.481C224.717 190.466 225.021 190.433 225.285 190.382C226.033 190.243 226.642 189.909 227.111 189.381C227.581 188.853 227.925 188.211 228.145 187.456C228.373 186.701 228.486 185.909 228.486 185.08C228.486 184.222 228.373 183.415 228.145 182.66C227.918 181.905 227.566 181.27 227.089 180.757C226.62 180.244 226.019 179.917 225.285 179.778C225.021 179.719 224.717 179.686 224.372 179.679C224.035 179.664 223.756 179.657 223.536 179.657H221.182V190.503ZM242.146 193V186.51L236.756 177.16H239.847L243.488 183.474L247.118 177.16H250.209L244.83 186.51V193H242.146ZM257.563 193.33C255.979 193.33 254.623 192.985 253.493 192.296C252.364 191.599 251.495 190.631 250.886 189.392C250.285 188.153 249.984 186.715 249.984 185.08C249.984 183.445 250.285 182.007 250.886 180.768C251.495 179.529 252.364 178.564 253.493 177.875C254.623 177.178 255.979 176.83 257.563 176.83C259.147 176.83 260.504 177.178 261.633 177.875C262.77 178.564 263.639 179.529 264.24 180.768C264.849 182.007 265.153 183.445 265.153 185.08C265.153 186.715 264.849 188.153 264.24 189.392C263.639 190.631 262.77 191.599 261.633 192.296C260.504 192.985 259.147 193.33 257.563 193.33ZM257.563 190.833C258.627 190.84 259.51 190.606 260.214 190.129C260.926 189.652 261.457 188.981 261.809 188.116C262.169 187.251 262.348 186.239 262.348 185.08C262.348 183.921 262.169 182.917 261.809 182.066C261.457 181.208 260.926 180.541 260.214 180.064C259.51 179.587 258.627 179.342 257.563 179.327C256.5 179.32 255.616 179.554 254.912 180.031C254.208 180.508 253.677 181.179 253.317 182.044C252.965 182.909 252.789 183.921 252.789 185.08C252.789 186.239 252.965 187.247 253.317 188.105C253.669 188.956 254.197 189.619 254.901 190.096C255.613 190.573 256.5 190.818 257.563 190.833ZM273.723 193.33C272.461 193.33 271.35 193.073 270.39 192.56C269.436 192.047 268.688 191.324 268.146 190.393C267.61 189.462 267.343 188.369 267.343 187.115V177.182L270.027 177.16V187.049C270.027 187.643 270.126 188.175 270.324 188.644C270.529 189.113 270.804 189.513 271.149 189.843C271.493 190.166 271.889 190.411 272.337 190.58C272.784 190.749 273.246 190.833 273.723 190.833C274.214 190.833 274.68 190.749 275.12 190.58C275.567 190.404 275.963 190.155 276.308 189.832C276.652 189.502 276.924 189.102 277.122 188.633C277.32 188.164 277.419 187.636 277.419 187.049V177.16H280.103V187.115C280.103 188.369 279.831 189.462 279.289 190.393C278.753 191.324 278.005 192.047 277.045 192.56C276.091 193.073 274.984 193.33 273.723 193.33ZM287.581 193V177.16H292.63C292.762 177.16 293.022 177.164 293.411 177.171C293.807 177.178 294.188 177.204 294.555 177.248C295.809 177.409 296.869 177.857 297.734 178.59C298.607 179.316 299.267 180.244 299.714 181.373C300.161 182.502 300.385 183.738 300.385 185.08C300.385 186.422 300.161 187.658 299.714 188.787C299.267 189.916 298.607 190.848 297.734 191.581C296.869 192.307 295.809 192.751 294.555 192.912C294.196 192.956 293.818 192.982 293.422 192.989C293.026 192.996 292.762 193 292.63 193H287.581ZM290.276 190.503H292.63C292.85 190.503 293.129 190.496 293.466 190.481C293.811 190.466 294.115 190.433 294.379 190.382C295.127 190.243 295.736 189.909 296.205 189.381C296.674 188.853 297.019 188.211 297.239 187.456C297.466 186.701 297.58 185.909 297.58 185.08C297.58 184.222 297.466 183.415 297.239 182.66C297.012 181.905 296.66 181.27 296.183 180.757C295.714 180.244 295.112 179.917 294.379 179.778C294.115 179.719 293.811 179.686 293.466 179.679C293.129 179.664 292.85 179.657 292.63 179.657H290.276V190.503ZM302.985 193V177.16H313.215V179.646H305.636V183.551H311.895V186.037H305.636V190.514H313.215V193H302.985ZM321.567 193.33C320.408 193.33 319.363 193.128 318.432 192.725C317.508 192.322 316.745 191.746 316.144 190.998C315.55 190.243 315.172 189.348 315.011 188.314L317.761 187.896C317.996 188.835 318.476 189.561 319.202 190.074C319.935 190.587 320.779 190.844 321.732 190.844C322.297 190.844 322.828 190.756 323.327 190.58C323.826 190.404 324.229 190.147 324.537 189.81C324.852 189.473 325.01 189.058 325.01 188.567C325.01 188.347 324.973 188.145 324.9 187.962C324.827 187.771 324.717 187.603 324.57 187.456C324.431 187.309 324.247 187.177 324.02 187.06C323.8 186.935 323.543 186.829 323.25 186.741L319.158 185.531C318.806 185.428 318.425 185.293 318.014 185.124C317.611 184.948 317.226 184.71 316.859 184.409C316.5 184.101 316.203 183.712 315.968 183.243C315.741 182.766 315.627 182.18 315.627 181.483C315.627 180.464 315.884 179.609 316.397 178.92C316.918 178.223 317.614 177.703 318.487 177.358C319.367 177.013 320.342 176.845 321.413 176.852C322.498 176.859 323.466 177.046 324.317 177.413C325.168 177.772 325.879 178.297 326.451 178.986C327.023 179.675 327.426 180.508 327.661 181.483L324.812 181.978C324.695 181.421 324.467 180.948 324.13 180.559C323.8 180.163 323.393 179.862 322.909 179.657C322.432 179.452 321.923 179.342 321.38 179.327C320.852 179.32 320.361 179.4 319.906 179.569C319.459 179.73 319.096 179.965 318.817 180.273C318.546 180.581 318.41 180.94 318.41 181.351C318.41 181.74 318.527 182.059 318.762 182.308C318.997 182.55 319.286 182.744 319.631 182.891C319.983 183.03 320.339 183.148 320.698 183.243L323.536 184.035C323.925 184.138 324.361 184.277 324.845 184.453C325.329 184.629 325.795 184.875 326.242 185.19C326.689 185.505 327.056 185.92 327.342 186.433C327.635 186.946 327.782 187.599 327.782 188.391C327.782 189.212 327.61 189.935 327.265 190.558C326.928 191.174 326.469 191.687 325.89 192.098C325.311 192.509 324.647 192.817 323.899 193.022C323.158 193.227 322.381 193.33 321.567 193.33ZM336.862 193.33C335.278 193.33 333.921 192.985 332.792 192.296C331.663 191.599 330.794 190.631 330.185 189.392C329.584 188.153 329.283 186.715 329.283 185.08C329.283 183.445 329.584 182.007 330.185 180.768C330.794 179.529 331.663 178.564 332.792 177.875C333.921 177.178 335.278 176.83 336.862 176.83C338.688 176.83 340.21 177.288 341.427 178.205C342.644 179.114 343.499 180.343 343.99 181.89L341.317 182.627C341.009 181.593 340.485 180.786 339.744 180.207C339.003 179.62 338.043 179.327 336.862 179.327C335.799 179.327 334.911 179.565 334.2 180.042C333.496 180.519 332.964 181.19 332.605 182.055C332.253 182.913 332.073 183.921 332.066 185.08C332.066 186.239 332.242 187.251 332.594 188.116C332.953 188.974 333.489 189.641 334.2 190.118C334.911 190.595 335.799 190.833 336.862 190.833C338.043 190.833 339.003 190.54 339.744 189.953C340.485 189.366 341.009 188.56 341.317 187.533L343.99 188.27C343.499 189.817 342.644 191.049 341.427 191.966C340.21 192.875 338.688 193.33 336.862 193.33ZM346.405 193V177.16H352.95C353.104 177.16 353.302 177.167 353.544 177.182C353.786 177.189 354.01 177.211 354.215 177.248C355.132 177.387 355.887 177.692 356.481 178.161C357.083 178.63 357.526 179.224 357.812 179.943C358.106 180.654 358.252 181.446 358.252 182.319C358.252 183.61 357.926 184.721 357.273 185.652C356.621 186.576 355.62 187.148 354.27 187.368L353.137 187.467H349.056V193H346.405ZM355.502 193L352.378 186.554L355.073 185.96L358.505 193H355.502ZM349.056 184.992H352.84C352.987 184.992 353.152 184.985 353.335 184.97C353.519 184.955 353.687 184.926 353.841 184.882C354.281 184.772 354.626 184.578 354.875 184.299C355.132 184.02 355.312 183.705 355.414 183.353C355.524 183.001 355.579 182.656 355.579 182.319C355.579 181.982 355.524 181.637 355.414 181.285C355.312 180.926 355.132 180.607 354.875 180.328C354.626 180.049 354.281 179.855 353.841 179.745C353.687 179.701 353.519 179.675 353.335 179.668C353.152 179.653 352.987 179.646 352.84 179.646H349.056V184.992ZM361.149 193V177.16H363.8V193H361.149ZM367.095 193V177.16H373.376C374.446 177.16 375.323 177.376 376.005 177.809C376.694 178.234 377.204 178.781 377.534 179.448C377.871 180.115 378.04 180.805 378.04 181.516C378.04 182.389 377.831 183.129 377.413 183.738C377.002 184.347 376.441 184.757 375.73 184.97V184.42C376.727 184.647 377.482 185.12 377.996 185.839C378.516 186.558 378.777 187.375 378.777 188.292C378.777 189.231 378.597 190.052 378.238 190.756C377.878 191.46 377.343 192.01 376.632 192.406C375.928 192.802 375.055 193 374.014 193H367.095ZM369.779 190.503H373.684C374.146 190.503 374.56 190.411 374.927 190.228C375.293 190.037 375.579 189.773 375.785 189.436C375.997 189.091 376.104 188.684 376.104 188.215C376.104 187.79 376.012 187.408 375.829 187.071C375.645 186.734 375.378 186.466 375.026 186.268C374.674 186.063 374.252 185.96 373.761 185.96H369.779V190.503ZM369.779 183.485H373.343C373.724 183.485 374.065 183.412 374.366 183.265C374.666 183.118 374.905 182.902 375.081 182.616C375.257 182.33 375.345 181.978 375.345 181.56C375.345 181.01 375.169 180.552 374.817 180.185C374.465 179.818 373.973 179.635 373.343 179.635H369.779V183.485ZM380.974 193V177.16H391.204V179.646H383.625V183.551H389.884V186.037H383.625V190.514H391.204V193H380.974ZM402.097 193V186.51L396.707 177.16H399.798L403.439 183.474L407.069 177.16H410.16L404.781 186.51V193H402.097ZM417.514 193.33C415.93 193.33 414.574 192.985 413.444 192.296C412.315 191.599 411.446 190.631 410.837 189.392C410.236 188.153 409.935 186.715 409.935 185.08C409.935 183.445 410.236 182.007 410.837 180.768C411.446 179.529 412.315 178.564 413.444 177.875C414.574 177.178 415.93 176.83 417.514 176.83C419.098 176.83 420.455 177.178 421.584 177.875C422.721 178.564 423.59 179.529 424.191 180.768C424.8 182.007 425.104 183.445 425.104 185.08C425.104 186.715 424.8 188.153 424.191 189.392C423.59 190.631 422.721 191.599 421.584 192.296C420.455 192.985 419.098 193.33 417.514 193.33ZM417.514 190.833C418.578 190.84 419.461 190.606 420.165 190.129C420.877 189.652 421.408 188.981 421.76 188.116C422.12 187.251 422.299 186.239 422.299 185.08C422.299 183.921 422.12 182.917 421.76 182.066C421.408 181.208 420.877 180.541 420.165 180.064C419.461 179.587 418.578 179.342 417.514 179.327C416.451 179.32 415.567 179.554 414.863 180.031C414.159 180.508 413.628 181.179 413.268 182.044C412.916 182.909 412.74 183.921 412.74 185.08C412.74 186.239 412.916 187.247 413.268 188.105C413.62 188.956 414.148 189.619 414.852 190.096C415.564 190.573 416.451 190.818 417.514 190.833ZM433.674 193.33C432.413 193.33 431.302 193.073 430.341 192.56C429.388 192.047 428.64 191.324 428.097 190.393C427.562 189.462 427.294 188.369 427.294 187.115V177.182L429.978 177.16V187.049C429.978 187.643 430.077 188.175 430.275 188.644C430.48 189.113 430.755 189.513 431.1 189.843C431.445 190.166 431.841 190.411 432.288 190.58C432.735 190.749 433.197 190.833 433.674 190.833C434.165 190.833 434.631 190.749 435.071 190.58C435.518 190.404 435.914 190.155 436.259 189.832C436.604 189.502 436.875 189.102 437.073 188.633C437.271 188.164 437.37 187.636 437.37 187.049V177.16H440.054V187.115C440.054 188.369 439.783 189.462 439.24 190.393C438.705 191.324 437.957 192.047 436.996 192.56C436.043 193.073 434.935 193.33 433.674 193.33ZM443.128 193V177.16H449.673C449.827 177.16 450.025 177.167 450.267 177.182C450.509 177.189 450.733 177.211 450.938 177.248C451.855 177.387 452.61 177.692 453.204 178.161C453.805 178.63 454.249 179.224 454.535 179.943C454.828 180.654 454.975 181.446 454.975 182.319C454.975 183.61 454.649 184.721 453.996 185.652C453.343 186.576 452.342 187.148 450.993 187.368L449.86 187.467H445.779V193H443.128ZM452.225 193L449.101 186.554L451.796 185.96L455.228 193H452.225ZM445.779 184.992H449.563C449.71 184.992 449.875 184.985 450.058 184.97C450.241 184.955 450.41 184.926 450.564 184.882C451.004 184.772 451.349 184.578 451.598 184.299C451.855 184.02 452.034 183.705 452.137 183.353C452.247 183.001 452.302 182.656 452.302 182.319C452.302 181.982 452.247 181.637 452.137 181.285C452.034 180.926 451.855 180.607 451.598 180.328C451.349 180.049 451.004 179.855 450.564 179.745C450.41 179.701 450.241 179.675 450.058 179.668C449.875 179.653 449.71 179.646 449.563 179.646H445.779V184.992ZM463.514 193.33C462.356 193.33 461.311 193.128 460.379 192.725C459.455 192.322 458.693 191.746 458.091 190.998C457.497 190.243 457.12 189.348 456.958 188.314L459.708 187.896C459.943 188.835 460.423 189.561 461.149 190.074C461.883 190.587 462.726 190.844 463.679 190.844C464.244 190.844 464.776 190.756 465.274 190.58C465.773 190.404 466.176 190.147 466.484 189.81C466.8 189.473 466.957 189.058 466.957 188.567C466.957 188.347 466.921 188.145 466.847 187.962C466.774 187.771 466.664 187.603 466.517 187.456C466.378 187.309 466.195 187.177 465.967 187.06C465.747 186.935 465.491 186.829 465.197 186.741L461.105 185.531C460.753 185.428 460.372 185.293 459.961 185.124C459.558 184.948 459.173 184.71 458.806 184.409C458.447 184.101 458.15 183.712 457.915 183.243C457.688 182.766 457.574 182.18 457.574 181.483C457.574 180.464 457.831 179.609 458.344 178.92C458.865 178.223 459.562 177.703 460.434 177.358C461.314 177.013 462.29 176.845 463.36 176.852C464.446 176.859 465.414 177.046 466.264 177.413C467.115 177.772 467.826 178.297 468.398 178.986C468.97 179.675 469.374 180.508 469.608 181.483L466.759 181.978C466.642 181.421 466.415 180.948 466.077 180.559C465.747 180.163 465.34 179.862 464.856 179.657C464.38 179.452 463.87 179.342 463.327 179.327C462.799 179.32 462.308 179.4 461.853 179.569C461.406 179.73 461.043 179.965 460.764 180.273C460.493 180.581 460.357 180.94 460.357 181.351C460.357 181.74 460.475 182.059 460.709 182.308C460.944 182.55 461.234 182.744 461.578 182.891C461.93 183.03 462.286 183.148 462.645 183.243L465.483 184.035C465.872 184.138 466.308 184.277 466.792 184.453C467.276 184.629 467.742 184.875 468.189 185.19C468.637 185.505 469.003 185.92 469.289 186.433C469.583 186.946 469.729 187.599 469.729 188.391C469.729 189.212 469.557 189.935 469.212 190.558C468.875 191.174 468.417 191.687 467.837 192.098C467.258 192.509 466.594 192.817 465.846 193.022C465.106 193.227 464.328 193.33 463.514 193.33ZM472.11 193V177.16H482.34V179.646H474.761V183.551H481.02V186.037H474.761V190.514H482.34V193H472.11ZM485.199 193V177.16H487.85V190.514H494.846V193H485.199ZM496.71 193V177.16H506.247V179.811H499.361V183.76H504.927V186.4H499.361V193H496.71ZM205.108 224V208.16H207.759V224H205.108ZM211.054 224V208.16H213.738L221.086 219.325V208.16H223.77V224H221.086L213.738 212.835V224H211.054ZM235.055 224V210.646H229.929V208.16H242.832V210.646H237.706V224H235.055ZM244.591 224V208.16H247.242V214.826H254.744V208.16H257.384V224H254.744V217.312H247.242V224H244.591ZM260.468 224V208.16H267.013C267.167 208.16 267.365 208.167 267.607 208.182C267.849 208.189 268.072 208.211 268.278 208.248C269.194 208.387 269.95 208.692 270.544 209.161C271.145 209.63 271.589 210.224 271.875 210.943C272.168 211.654 272.315 212.446 272.315 213.319C272.315 214.61 271.988 215.721 271.336 216.652C270.683 217.576 269.682 218.148 268.333 218.368L267.2 218.467H263.119V224H260.468ZM269.565 224L266.441 217.554L269.136 216.96L272.568 224H269.565ZM263.119 215.992H266.903C267.049 215.992 267.214 215.985 267.398 215.97C267.581 215.955 267.75 215.926 267.904 215.882C268.344 215.772 268.688 215.578 268.938 215.299C269.194 215.02 269.374 214.705 269.477 214.353C269.587 214.001 269.642 213.656 269.642 213.319C269.642 212.982 269.587 212.637 269.477 212.285C269.374 211.926 269.194 211.607 268.938 211.328C268.688 211.049 268.344 210.855 267.904 210.745C267.75 210.701 267.581 210.675 267.398 210.668C267.214 210.653 267.049 210.646 266.903 210.646H263.119V215.992ZM274.991 224V208.16H285.221V210.646H277.642V214.551H283.901V217.037H277.642V221.514H285.221V224H274.991ZM287.86 224V208.16H298.09V210.646H290.511V214.551H296.77V217.037H290.511V221.514H298.09V224H287.86ZM308.478 224L303.847 208.16H306.63L309.787 219.6L312.933 208.182L315.716 208.16L318.873 219.6L322.019 208.16H324.802L320.182 224H317.564L314.319 212.736L311.096 224H308.478ZM332.866 224.33C331.282 224.33 329.925 223.985 328.796 223.296C327.667 222.599 326.798 221.631 326.189 220.392C325.588 219.153 325.287 217.715 325.287 216.08C325.287 214.445 325.588 213.007 326.189 211.768C326.798 210.529 327.667 209.564 328.796 208.875C329.925 208.178 331.282 207.83 332.866 207.83C334.45 207.83 335.807 208.178 336.936 208.875C338.073 209.564 338.942 210.529 339.543 211.768C340.152 213.007 340.456 214.445 340.456 216.08C340.456 217.715 340.152 219.153 339.543 220.392C338.942 221.631 338.073 222.599 336.936 223.296C335.807 223.985 334.45 224.33 332.866 224.33ZM332.866 221.833C333.929 221.84 334.813 221.606 335.517 221.129C336.228 220.652 336.76 219.981 337.112 219.116C337.471 218.251 337.651 217.239 337.651 216.08C337.651 214.921 337.471 213.917 337.112 213.066C336.76 212.208 336.228 211.541 335.517 211.064C334.813 210.587 333.929 210.342 332.866 210.327C331.803 210.32 330.919 210.554 330.215 211.031C329.511 211.508 328.979 212.179 328.62 213.044C328.268 213.909 328.092 214.921 328.092 216.08C328.092 217.239 328.268 218.247 328.62 219.105C328.972 219.956 329.5 220.619 330.204 221.096C330.915 221.573 331.803 221.818 332.866 221.833ZM342.645 224V208.16H349.19C349.344 208.16 349.542 208.167 349.784 208.182C350.026 208.189 350.25 208.211 350.455 208.248C351.372 208.387 352.127 208.692 352.721 209.161C353.323 209.63 353.766 210.224 354.052 210.943C354.346 211.654 354.492 212.446 354.492 213.319C354.492 214.61 354.166 215.721 353.513 216.652C352.861 217.576 351.86 218.148 350.51 218.368L349.377 218.467H345.296V224H342.645ZM351.742 224L348.618 217.554L351.313 216.96L354.745 224H351.742ZM345.296 215.992H349.08C349.227 215.992 349.392 215.985 349.575 215.97C349.759 215.955 349.927 215.926 350.081 215.882C350.521 215.772 350.866 215.578 351.115 215.299C351.372 215.02 351.552 214.705 351.654 214.353C351.764 214.001 351.819 213.656 351.819 213.319C351.819 212.982 351.764 212.637 351.654 212.285C351.552 211.926 351.372 211.607 351.115 211.328C350.866 211.049 350.521 210.855 350.081 210.745C349.927 210.701 349.759 210.675 349.575 210.668C349.392 210.653 349.227 210.646 349.08 210.646H345.296V215.992ZM357.169 224V208.16H362.218C362.35 208.16 362.61 208.164 362.999 208.171C363.395 208.178 363.776 208.204 364.143 208.248C365.397 208.409 366.457 208.857 367.322 209.59C368.195 210.316 368.855 211.244 369.302 212.373C369.749 213.502 369.973 214.738 369.973 216.08C369.973 217.422 369.749 218.658 369.302 219.787C368.855 220.916 368.195 221.848 367.322 222.581C366.457 223.307 365.397 223.751 364.143 223.912C363.784 223.956 363.406 223.982 363.01 223.989C362.614 223.996 362.35 224 362.218 224H357.169ZM359.864 221.503H362.218C362.438 221.503 362.717 221.496 363.054 221.481C363.399 221.466 363.703 221.433 363.967 221.382C364.715 221.243 365.324 220.909 365.793 220.381C366.262 219.853 366.607 219.211 366.827 218.456C367.054 217.701 367.168 216.909 367.168 216.08C367.168 215.222 367.054 214.415 366.827 213.66C366.6 212.905 366.248 212.27 365.771 211.757C365.302 211.244 364.7 210.917 363.967 210.778C363.703 210.719 363.399 210.686 363.054 210.679C362.717 210.664 362.438 210.657 362.218 210.657H359.864V221.503ZM378.436 224.33C377.278 224.33 376.233 224.128 375.301 223.725C374.377 223.322 373.615 222.746 373.013 221.998C372.419 221.243 372.042 220.348 371.88 219.314L374.63 218.896C374.865 219.835 375.345 220.561 376.071 221.074C376.805 221.587 377.648 221.844 378.601 221.844C379.166 221.844 379.698 221.756 380.196 221.58C380.695 221.404 381.098 221.147 381.406 220.81C381.722 220.473 381.879 220.058 381.879 219.567C381.879 219.347 381.843 219.145 381.769 218.962C381.696 218.771 381.586 218.603 381.439 218.456C381.3 218.309 381.117 218.177 380.889 218.06C380.669 217.935 380.413 217.829 380.119 217.741L376.027 216.531C375.675 216.428 375.294 216.293 374.883 216.124C374.48 215.948 374.095 215.71 373.728 215.409C373.369 215.101 373.072 214.712 372.837 214.243C372.61 213.766 372.496 213.18 372.496 212.483C372.496 211.464 372.753 210.609 373.266 209.92C373.787 209.223 374.484 208.703 375.356 208.358C376.236 208.013 377.212 207.845 378.282 207.852C379.368 207.859 380.336 208.046 381.186 208.413C382.037 208.772 382.748 209.297 383.32 209.986C383.892 210.675 384.296 211.508 384.53 212.483L381.681 212.978C381.564 212.421 381.337 211.948 380.999 211.559C380.669 211.163 380.262 210.862 379.778 210.657C379.302 210.452 378.792 210.342 378.249 210.327C377.721 210.32 377.23 210.4 376.775 210.569C376.328 210.73 375.965 210.965 375.686 211.273C375.415 211.581 375.279 211.94 375.279 212.351C375.279 212.74 375.397 213.059 375.631 213.308C375.866 213.55 376.156 213.744 376.5 213.891C376.852 214.03 377.208 214.148 377.567 214.243L380.405 215.035C380.794 215.138 381.23 215.277 381.714 215.453C382.198 215.629 382.664 215.875 383.111 216.19C383.559 216.505 383.925 216.92 384.211 217.433C384.505 217.946 384.651 218.599 384.651 219.391C384.651 220.212 384.479 220.935 384.134 221.558C383.797 222.174 383.339 222.687 382.759 223.098C382.18 223.509 381.516 223.817 380.768 224.022C380.028 224.227 379.25 224.33 378.436 224.33ZM389.903 219.699C389.903 219.193 389.951 218.705 390.046 218.236C390.149 217.759 390.314 217.319 390.541 216.916C390.739 216.527 390.959 216.219 391.201 215.992C391.443 215.757 391.715 215.526 392.015 215.299C392.316 215.064 392.65 214.753 393.016 214.364C393.317 214.034 393.515 213.708 393.61 213.385C393.706 213.055 393.753 212.703 393.753 212.329C393.753 212.087 393.728 211.86 393.676 211.647C393.625 211.434 393.533 211.251 393.401 211.097C393.196 210.826 392.932 210.635 392.609 210.525C392.287 210.408 391.942 210.349 391.575 210.349C391.275 210.349 390.985 210.389 390.706 210.47C390.435 210.543 390.204 210.661 390.013 210.822C389.793 210.998 389.632 211.214 389.529 211.471C389.427 211.728 389.379 212.01 389.386 212.318H386.592C386.666 211.585 386.864 210.906 387.186 210.283C387.516 209.652 387.949 209.15 388.484 208.776C388.902 208.468 389.372 208.237 389.892 208.083C390.42 207.929 390.948 207.852 391.476 207.852C392.283 207.852 393.042 207.977 393.753 208.226C394.472 208.475 395.07 208.886 395.546 209.458C395.876 209.832 396.126 210.265 396.294 210.756C396.47 211.247 396.558 211.746 396.558 212.252C396.558 213.007 396.393 213.697 396.063 214.32C395.741 214.943 395.33 215.519 394.831 216.047C394.597 216.296 394.373 216.516 394.16 216.707C393.948 216.898 393.75 217.085 393.566 217.268C393.39 217.444 393.244 217.631 393.126 217.829C392.921 218.174 392.8 218.467 392.763 218.709C392.727 218.944 392.708 219.274 392.708 219.699H389.903ZM389.925 224V221.085H392.708V224H389.925Z" fill="white"></path> <path d="M246.766 35V24.766H252.786V25.914H247.998V29.316H252.422V30.464H248.026V35H246.766ZM255.3 35V33.852H257.386V25.928H255.3V24.78H260.76V25.928H258.674V33.852H260.76V35H255.3ZM263.513 35V24.78H266.677C267.283 24.78 267.815 24.906 268.273 25.158C268.73 25.4007 269.085 25.7413 269.337 26.18C269.589 26.6187 269.715 27.132 269.715 27.72C269.715 28.4107 269.533 29.0033 269.169 29.498C268.814 29.9927 268.329 30.3333 267.713 30.52L269.855 35H268.371L266.411 30.66H264.773V35H263.513ZM264.773 29.526H266.677C267.199 29.526 267.619 29.3627 267.937 29.036C268.254 28.7 268.413 28.2613 268.413 27.72C268.413 27.1693 268.254 26.7307 267.937 26.404C267.619 26.0773 267.199 25.914 266.677 25.914H264.773V29.526ZM274.875 35.14C274.203 35.14 273.624 35.028 273.139 34.804C272.663 34.58 272.294 34.258 272.033 33.838C271.772 33.418 271.636 32.9187 271.627 32.34H272.887C272.887 32.8533 273.06 33.2593 273.405 33.558C273.76 33.8567 274.25 34.006 274.875 34.006C275.463 34.006 275.92 33.8613 276.247 33.572C276.583 33.2827 276.751 32.8813 276.751 32.368C276.751 31.9573 276.639 31.598 276.415 31.29C276.2 30.982 275.888 30.7673 275.477 30.646L274.091 30.212C273.391 29.9973 272.85 29.638 272.467 29.134C272.094 28.63 271.907 28.0373 271.907 27.356C271.907 26.8053 272.028 26.3293 272.271 25.928C272.523 25.5173 272.873 25.2 273.321 24.976C273.769 24.7427 274.296 24.626 274.903 24.626C275.799 24.626 276.518 24.878 277.059 25.382C277.6 25.8767 277.876 26.5393 277.885 27.37H276.625C276.625 26.866 276.471 26.474 276.163 26.194C275.864 25.9047 275.44 25.76 274.889 25.76C274.348 25.76 273.923 25.8907 273.615 26.152C273.316 26.4133 273.167 26.7773 273.167 27.244C273.167 27.664 273.279 28.028 273.503 28.336C273.727 28.644 274.049 28.8633 274.469 28.994L275.869 29.442C276.55 29.6567 277.078 30.0207 277.451 30.534C277.824 31.0473 278.011 31.6493 278.011 32.34C278.011 32.9 277.88 33.39 277.619 33.81C277.358 34.23 276.989 34.5567 276.513 34.79C276.046 35.0233 275.5 35.14 274.875 35.14ZM282.584 35V25.914H279.784V24.766H286.644V25.914H283.844V35H282.584ZM296.867 35V24.78H298.519L299.583 28.084C299.685 28.3827 299.779 28.6813 299.863 28.98C299.947 29.2693 300.007 29.4933 300.045 29.652C300.091 29.4933 300.152 29.2693 300.227 28.98C300.301 28.6813 300.385 28.378 300.479 28.07L301.487 24.78H303.139V35H301.907V31.29C301.907 30.8793 301.921 30.4127 301.949 29.89C301.977 29.3673 302.014 28.8353 302.061 28.294C302.107 27.7433 302.154 27.2207 302.201 26.726C302.257 26.222 302.303 25.7833 302.341 25.41L300.689 30.52H299.359L297.693 25.41C297.739 25.774 297.786 26.1987 297.833 26.684C297.879 27.16 297.921 27.6687 297.959 28.21C297.996 28.742 298.029 29.274 298.057 29.806C298.085 30.338 298.099 30.8327 298.099 31.29V35H296.867ZM305.597 35V24.78H311.477V25.928H306.843V29.092H310.987V30.226H306.843V33.852H311.477V35H305.597ZM313.992 35V24.78H319.872V25.928H315.238V29.092H319.382V30.226H315.238V33.852H319.872V35H313.992ZM324.556 35V25.914H321.756V24.766H328.616V25.914H325.816V35H324.556ZM330.851 35V33.852H332.937V25.928H330.851V24.78H336.311V25.928H334.225V33.852H336.311V35H330.851ZM339.035 35V24.78H340.715L343.837 33.53C343.819 33.2967 343.795 33.012 343.767 32.676C343.749 32.3307 343.73 31.9713 343.711 31.598C343.702 31.2153 343.697 30.856 343.697 30.52V24.78H344.915V35H343.235L340.127 26.25C340.146 26.474 340.165 26.7587 340.183 27.104C340.202 27.44 340.216 27.7993 340.225 28.182C340.244 28.5553 340.253 28.9147 340.253 29.26V35H339.035ZM350.426 35.14C349.81 35.14 349.273 35.0233 348.816 34.79C348.368 34.5567 348.018 34.2207 347.766 33.782C347.523 33.334 347.402 32.8067 347.402 32.2V27.58C347.402 26.964 347.523 26.4367 347.766 25.998C348.018 25.5593 348.368 25.2233 348.816 24.99C349.273 24.7567 349.81 24.64 350.426 24.64C351.042 24.64 351.574 24.7613 352.022 25.004C352.47 25.2373 352.815 25.5733 353.058 26.012C353.301 26.4507 353.422 26.9733 353.422 27.58H352.162C352.162 27.0013 352.008 26.558 351.7 26.25C351.401 25.9327 350.977 25.774 350.426 25.774C349.875 25.774 349.441 25.928 349.124 26.236C348.816 26.544 348.662 26.9873 348.662 27.566V32.2C348.662 32.7787 348.816 33.2267 349.124 33.544C349.441 33.8613 349.875 34.02 350.426 34.02C350.977 34.02 351.401 33.8613 351.7 33.544C352.008 33.2267 352.162 32.7787 352.162 32.2V30.94H350.09V29.792H353.422V32.2C353.422 32.7973 353.301 33.32 353.058 33.768C352.815 34.2067 352.47 34.5473 352.022 34.79C351.574 35.0233 351.042 35.14 350.426 35.14Z" fill="white"></path> </g> <defs> <clipPath id="clip0_1323_291"> <rect width="600" height="400" rx="20" fill="white"></rect> </clipPath> </defs> </svg> 