<?xml version="1.0" encoding="UTF-8"?> <svg xmlns="http://www.w3.org/2000/svg" width="600" height="400" viewBox="0 0 600 400" fill="none"> <g clip-path="url(#clip0_1323_294)"> <rect width="600" height="400" rx="20" fill="#0B68DB"></rect> <path d="M97.3046 209V193.16H99.9556V199.826H107.458V193.16H110.098V209H107.458V202.312H99.9556V209H97.3046ZM119.881 209.33C118.297 209.33 116.94 208.985 115.811 208.296C114.681 207.599 113.812 206.631 113.204 205.392C112.602 204.153 112.302 202.715 112.302 201.08C112.302 199.445 112.602 198.007 113.204 196.768C113.812 195.529 114.681 194.564 115.811 193.875C116.94 193.178 118.297 192.83 119.881 192.83C121.465 192.83 122.821 193.178 123.951 193.875C125.087 194.564 125.956 195.529 126.558 196.768C127.166 198.007 127.471 199.445 127.471 201.08C127.471 202.715 127.166 204.153 126.558 205.392C125.956 206.631 125.087 207.599 123.951 208.296C122.821 208.985 121.465 209.33 119.881 209.33ZM119.881 206.833C120.944 206.84 121.828 206.606 122.532 206.129C123.243 205.652 123.775 204.981 124.127 204.116C124.486 203.251 124.666 202.239 124.666 201.08C124.666 199.921 124.486 198.917 124.127 198.066C123.775 197.208 123.243 196.541 122.532 196.064C121.828 195.587 120.944 195.342 119.881 195.327C118.817 195.32 117.934 195.554 117.23 196.031C116.526 196.508 115.994 197.179 115.635 198.044C115.283 198.909 115.107 199.921 115.107 201.08C115.107 202.239 115.283 203.247 115.635 204.105C115.987 204.956 116.515 205.619 117.219 206.096C117.93 206.573 118.817 206.818 119.881 206.833ZM132.338 209L127.707 193.16H130.49L133.647 204.6L136.793 193.182L139.576 193.16L142.733 204.6L145.879 193.16H148.662L144.042 209H141.424L138.179 197.736L134.956 209H132.338ZM154.861 209V193.16H159.91C160.042 193.16 160.303 193.164 160.691 193.171C161.087 193.178 161.469 193.204 161.835 193.248C163.089 193.409 164.149 193.857 165.014 194.59C165.887 195.316 166.547 196.244 166.994 197.373C167.442 198.502 167.665 199.738 167.665 201.08C167.665 202.422 167.442 203.658 166.994 204.787C166.547 205.916 165.887 206.848 165.014 207.581C164.149 208.307 163.089 208.751 161.835 208.912C161.476 208.956 161.098 208.982 160.702 208.989C160.306 208.996 160.042 209 159.91 209H154.861ZM157.556 206.503H159.91C160.13 206.503 160.409 206.496 160.746 206.481C161.091 206.466 161.395 206.433 161.659 206.382C162.407 206.243 163.016 205.909 163.485 205.381C163.955 204.853 164.299 204.211 164.519 203.456C164.747 202.701 164.86 201.909 164.86 201.08C164.86 200.222 164.747 199.415 164.519 198.66C164.292 197.905 163.94 197.27 163.463 196.757C162.994 196.244 162.393 195.917 161.659 195.778C161.395 195.719 161.091 195.686 160.746 195.679C160.409 195.664 160.13 195.657 159.91 195.657H157.556V206.503ZM176.965 209.33C175.381 209.33 174.024 208.985 172.895 208.296C171.765 207.599 170.896 206.631 170.288 205.392C169.686 204.153 169.386 202.715 169.386 201.08C169.386 199.445 169.686 198.007 170.288 196.768C170.896 195.529 171.765 194.564 172.895 193.875C174.024 193.178 175.381 192.83 176.965 192.83C178.549 192.83 179.905 193.178 181.035 193.875C182.171 194.564 183.04 195.529 183.642 196.768C184.25 198.007 184.555 199.445 184.555 201.08C184.555 202.715 184.25 204.153 183.642 205.392C183.04 206.631 182.171 207.599 181.035 208.296C179.905 208.985 178.549 209.33 176.965 209.33ZM176.965 206.833C178.028 206.84 178.912 206.606 179.616 206.129C180.327 205.652 180.859 204.981 181.211 204.116C181.57 203.251 181.75 202.239 181.75 201.08C181.75 199.921 181.57 198.917 181.211 198.066C180.859 197.208 180.327 196.541 179.616 196.064C178.912 195.587 178.028 195.342 176.965 195.327C175.901 195.32 175.018 195.554 174.314 196.031C173.61 196.508 173.078 197.179 172.719 198.044C172.367 198.909 172.191 199.921 172.191 201.08C172.191 202.239 172.367 203.247 172.719 204.105C173.071 204.956 173.599 205.619 174.303 206.096C175.014 206.573 175.901 206.818 176.965 206.833ZM194.998 209V202.51L189.608 193.16H192.699L196.34 199.474L199.97 193.16H203.061L197.682 202.51V209H194.998ZM210.416 209.33C208.832 209.33 207.475 208.985 206.346 208.296C205.216 207.599 204.347 206.631 203.739 205.392C203.137 204.153 202.837 202.715 202.837 201.08C202.837 199.445 203.137 198.007 203.739 196.768C204.347 195.529 205.216 194.564 206.346 193.875C207.475 193.178 208.832 192.83 210.416 192.83C212 192.83 213.356 193.178 214.486 193.875C215.622 194.564 216.491 195.529 217.093 196.768C217.701 198.007 218.006 199.445 218.006 201.08C218.006 202.715 217.701 204.153 217.093 205.392C216.491 206.631 215.622 207.599 214.486 208.296C213.356 208.985 212 209.33 210.416 209.33ZM210.416 206.833C211.479 206.84 212.363 206.606 213.067 206.129C213.778 205.652 214.31 204.981 214.662 204.116C215.021 203.251 215.201 202.239 215.201 201.08C215.201 199.921 215.021 198.917 214.662 198.066C214.31 197.208 213.778 196.541 213.067 196.064C212.363 195.587 211.479 195.342 210.416 195.327C209.352 195.32 208.469 195.554 207.765 196.031C207.061 196.508 206.529 197.179 206.17 198.044C205.818 198.909 205.642 199.921 205.642 201.08C205.642 202.239 205.818 203.247 206.17 204.105C206.522 204.956 207.05 205.619 207.754 206.096C208.465 206.573 209.352 206.818 210.416 206.833ZM226.575 209.33C225.314 209.33 224.203 209.073 223.242 208.56C222.289 208.047 221.541 207.324 220.998 206.393C220.463 205.462 220.195 204.369 220.195 203.115V193.182L222.879 193.16V203.049C222.879 203.643 222.978 204.175 223.176 204.644C223.382 205.113 223.657 205.513 224.001 205.843C224.346 206.166 224.742 206.411 225.189 206.58C225.637 206.749 226.099 206.833 226.575 206.833C227.067 206.833 227.532 206.749 227.972 206.58C228.42 206.404 228.816 206.155 229.16 205.832C229.505 205.502 229.776 205.102 229.974 204.633C230.172 204.164 230.271 203.636 230.271 203.049V193.16H232.955V203.115C232.955 204.369 232.684 205.462 232.141 206.393C231.606 207.324 230.858 208.047 229.897 208.56C228.944 209.073 227.837 209.33 226.575 209.33ZM240.434 209V193.16H246.979C247.133 193.16 247.331 193.167 247.573 193.182C247.815 193.189 248.038 193.211 248.244 193.248C249.16 193.387 249.916 193.692 250.51 194.161C251.111 194.63 251.555 195.224 251.841 195.943C252.134 196.654 252.281 197.446 252.281 198.319C252.281 199.61 251.954 200.721 251.302 201.652C250.649 202.576 249.648 203.148 248.299 203.368L247.166 203.467H243.085V209H240.434ZM249.531 209L246.407 202.554L249.102 201.96L252.534 209H249.531ZM243.085 200.992H246.869C247.015 200.992 247.18 200.985 247.364 200.97C247.547 200.955 247.716 200.926 247.87 200.882C248.31 200.772 248.654 200.578 248.904 200.299C249.16 200.02 249.34 199.705 249.443 199.353C249.553 199.001 249.608 198.656 249.608 198.319C249.608 197.982 249.553 197.637 249.443 197.285C249.34 196.926 249.16 196.607 248.904 196.328C248.654 196.049 248.31 195.855 247.87 195.745C247.716 195.701 247.547 195.675 247.364 195.668C247.18 195.653 247.015 195.646 246.869 195.646H243.085V200.992ZM254.957 209V193.16H265.187V195.646H257.608V199.551H263.867V202.037H257.608V206.514H265.187V209H254.957ZM273.539 209.33C272.38 209.33 271.335 209.128 270.404 208.725C269.48 208.322 268.717 207.746 268.116 206.998C267.522 206.243 267.144 205.348 266.983 204.314L269.733 203.896C269.967 204.835 270.448 205.561 271.174 206.074C271.907 206.587 272.75 206.844 273.704 206.844C274.268 206.844 274.8 206.756 275.299 206.58C275.797 206.404 276.201 206.147 276.509 205.81C276.824 205.473 276.982 205.058 276.982 204.567C276.982 204.347 276.945 204.145 276.872 203.962C276.798 203.771 276.688 203.603 276.542 203.456C276.402 203.309 276.219 203.177 275.992 203.06C275.772 202.935 275.515 202.829 275.222 202.741L271.13 201.531C270.778 201.428 270.396 201.293 269.986 201.124C269.582 200.948 269.197 200.71 268.831 200.409C268.471 200.101 268.174 199.712 267.94 199.243C267.712 198.766 267.599 198.18 267.599 197.483C267.599 196.464 267.855 195.609 268.369 194.92C268.889 194.223 269.586 193.703 270.459 193.358C271.339 193.013 272.314 192.845 273.385 192.852C274.47 192.859 275.438 193.046 276.289 193.413C277.139 193.772 277.851 194.297 278.423 194.986C278.995 195.675 279.398 196.508 279.633 197.483L276.784 197.978C276.666 197.421 276.439 196.948 276.102 196.559C275.772 196.163 275.365 195.862 274.881 195.657C274.404 195.452 273.894 195.342 273.352 195.327C272.824 195.32 272.332 195.4 271.878 195.569C271.43 195.73 271.067 195.965 270.789 196.273C270.517 196.581 270.382 196.94 270.382 197.351C270.382 197.74 270.499 198.059 270.734 198.308C270.968 198.55 271.258 198.744 271.603 198.891C271.955 199.03 272.31 199.148 272.67 199.243L275.508 200.035C275.896 200.138 276.333 200.277 276.817 200.453C277.301 200.629 277.766 200.875 278.214 201.19C278.661 201.505 279.028 201.92 279.314 202.433C279.607 202.946 279.754 203.599 279.754 204.391C279.754 205.212 279.581 205.935 279.237 206.558C278.899 207.174 278.441 207.687 277.862 208.098C277.282 208.509 276.619 208.817 275.871 209.022C275.13 209.227 274.353 209.33 273.539 209.33ZM282.135 209V193.16H288.68C288.834 193.16 289.032 193.167 289.274 193.182C289.516 193.189 289.739 193.211 289.945 193.248C290.861 193.387 291.617 193.692 292.211 194.161C292.812 194.63 293.256 195.224 293.542 195.943C293.835 196.654 293.982 197.446 293.982 198.319C293.982 199.184 293.835 199.976 293.542 200.695C293.248 201.406 292.801 201.997 292.2 202.466C291.606 202.935 290.854 203.24 289.945 203.379C289.739 203.408 289.512 203.43 289.263 203.445C289.021 203.46 288.826 203.467 288.68 203.467H284.786V209H282.135ZM284.786 200.992H288.57C288.716 200.992 288.881 200.985 289.065 200.97C289.248 200.955 289.417 200.926 289.571 200.882C290.011 200.772 290.355 200.578 290.605 200.299C290.861 200.02 291.041 199.705 291.144 199.353C291.254 199.001 291.309 198.656 291.309 198.319C291.309 197.982 291.254 197.637 291.144 197.285C291.041 196.926 290.861 196.607 290.605 196.328C290.355 196.049 290.011 195.855 289.571 195.745C289.417 195.701 289.248 195.675 289.065 195.668C288.881 195.653 288.716 195.646 288.57 195.646H284.786V200.992ZM302.885 209.33C301.301 209.33 299.944 208.985 298.815 208.296C297.685 207.599 296.816 206.631 296.208 205.392C295.606 204.153 295.306 202.715 295.306 201.08C295.306 199.445 295.606 198.007 296.208 196.768C296.816 195.529 297.685 194.564 298.815 193.875C299.944 193.178 301.301 192.83 302.885 192.83C304.469 192.83 305.825 193.178 306.955 193.875C308.091 194.564 308.96 195.529 309.562 196.768C310.17 198.007 310.475 199.445 310.475 201.08C310.475 202.715 310.17 204.153 309.562 205.392C308.96 206.631 308.091 207.599 306.955 208.296C305.825 208.985 304.469 209.33 302.885 209.33ZM302.885 206.833C303.948 206.84 304.832 206.606 305.536 206.129C306.247 205.652 306.779 204.981 307.131 204.116C307.49 203.251 307.67 202.239 307.67 201.08C307.67 199.921 307.49 198.917 307.131 198.066C306.779 197.208 306.247 196.541 305.536 196.064C304.832 195.587 303.948 195.342 302.885 195.327C301.821 195.32 300.938 195.554 300.234 196.031C299.53 196.508 298.998 197.179 298.639 198.044C298.287 198.909 298.111 199.921 298.111 201.08C298.111 202.239 298.287 203.247 298.639 204.105C298.991 204.956 299.519 205.619 300.223 206.096C300.934 206.573 301.821 206.818 302.885 206.833ZM312.664 209V193.16H315.348L322.696 204.325V193.16H325.38V209H322.696L315.348 197.835V209H312.664ZM328.455 209V193.16H333.504C333.636 193.16 333.896 193.164 334.285 193.171C334.681 193.178 335.062 193.204 335.429 193.248C336.683 193.409 337.743 193.857 338.608 194.59C339.481 195.316 340.141 196.244 340.588 197.373C341.035 198.502 341.259 199.738 341.259 201.08C341.259 202.422 341.035 203.658 340.588 204.787C340.141 205.916 339.481 206.848 338.608 207.581C337.743 208.307 336.683 208.751 335.429 208.912C335.07 208.956 334.692 208.982 334.296 208.989C333.9 208.996 333.636 209 333.504 209H328.455ZM331.15 206.503H333.504C333.724 206.503 334.003 206.496 334.34 206.481C334.685 206.466 334.989 206.433 335.253 206.382C336.001 206.243 336.61 205.909 337.079 205.381C337.548 204.853 337.893 204.211 338.113 203.456C338.34 202.701 338.454 201.909 338.454 201.08C338.454 200.222 338.34 199.415 338.113 198.66C337.886 197.905 337.534 197.27 337.057 196.757C336.588 196.244 335.986 195.917 335.253 195.778C334.989 195.719 334.685 195.686 334.34 195.679C334.003 195.664 333.724 195.657 333.504 195.657H331.15V206.503ZM352.07 209V195.646H346.944V193.16H359.847V195.646H354.721V209H352.07ZM368.304 209.33C366.72 209.33 365.364 208.985 364.234 208.296C363.105 207.599 362.236 206.631 361.627 205.392C361.026 204.153 360.725 202.715 360.725 201.08C360.725 199.445 361.026 198.007 361.627 196.768C362.236 195.529 363.105 194.564 364.234 193.875C365.364 193.178 366.72 192.83 368.304 192.83C369.888 192.83 371.245 193.178 372.374 193.875C373.511 194.564 374.38 195.529 374.981 196.768C375.59 198.007 375.894 199.445 375.894 201.08C375.894 202.715 375.59 204.153 374.981 205.392C374.38 206.631 373.511 207.599 372.374 208.296C371.245 208.985 369.888 209.33 368.304 209.33ZM368.304 206.833C369.368 206.84 370.251 206.606 370.955 206.129C371.667 205.652 372.198 204.981 372.55 204.116C372.91 203.251 373.089 202.239 373.089 201.08C373.089 199.921 372.91 198.917 372.55 198.066C372.198 197.208 371.667 196.541 370.955 196.064C370.251 195.587 369.368 195.342 368.304 195.327C367.241 195.32 366.357 195.554 365.653 196.031C364.949 196.508 364.418 197.179 364.058 198.044C363.706 198.909 363.53 199.921 363.53 201.08C363.53 202.239 363.706 203.247 364.058 204.105C364.41 204.956 364.938 205.619 365.642 206.096C366.354 206.573 367.241 206.818 368.304 206.833ZM389.187 209.33C387.603 209.33 386.247 208.985 385.117 208.296C383.988 207.599 383.119 206.631 382.51 205.392C381.909 204.153 381.608 202.715 381.608 201.08C381.608 199.445 381.909 198.007 382.51 196.768C383.119 195.529 383.988 194.564 385.117 193.875C386.247 193.178 387.603 192.83 389.187 192.83C391.013 192.83 392.535 193.288 393.752 194.205C394.97 195.114 395.824 196.343 396.315 197.89L393.642 198.627C393.334 197.593 392.81 196.786 392.069 196.207C391.329 195.62 390.368 195.327 389.187 195.327C388.124 195.327 387.237 195.565 386.525 196.042C385.821 196.519 385.29 197.19 384.93 198.055C384.578 198.913 384.399 199.921 384.391 201.08C384.391 202.239 384.567 203.251 384.919 204.116C385.279 204.974 385.814 205.641 386.525 206.118C387.237 206.595 388.124 206.833 389.187 206.833C390.368 206.833 391.329 206.54 392.069 205.953C392.81 205.366 393.334 204.56 393.642 203.533L396.315 204.27C395.824 205.817 394.97 207.049 393.752 207.966C392.535 208.875 391.013 209.33 389.187 209.33ZM398.73 209V193.16H405.275C405.429 193.16 405.627 193.167 405.869 193.182C406.111 193.189 406.335 193.211 406.54 193.248C407.457 193.387 408.212 193.692 408.806 194.161C409.408 194.63 409.851 195.224 410.137 195.943C410.431 196.654 410.577 197.446 410.577 198.319C410.577 199.61 410.251 200.721 409.598 201.652C408.946 202.576 407.945 203.148 406.595 203.368L405.462 203.467H401.381V209H398.73ZM407.827 209L404.703 202.554L407.398 201.96L410.83 209H407.827ZM401.381 200.992H405.165C405.312 200.992 405.477 200.985 405.66 200.97C405.844 200.955 406.012 200.926 406.166 200.882C406.606 200.772 406.951 200.578 407.2 200.299C407.457 200.02 407.637 199.705 407.739 199.353C407.849 199.001 407.904 198.656 407.904 198.319C407.904 197.982 407.849 197.637 407.739 197.285C407.637 196.926 407.457 196.607 407.2 196.328C406.951 196.049 406.606 195.855 406.166 195.745C406.012 195.701 405.844 195.675 405.66 195.668C405.477 195.653 405.312 195.646 405.165 195.646H401.381V200.992ZM413.474 209V193.16H416.125V209H413.474ZM423.226 209V195.646H418.1V193.16H431.003V195.646H425.877V209H423.226ZM432.982 209V193.16H435.633V209H432.982ZM445.627 209.33C444.043 209.33 442.686 208.985 441.557 208.296C440.427 207.599 439.558 206.631 438.95 205.392C438.348 204.153 438.048 202.715 438.048 201.08C438.048 199.445 438.348 198.007 438.95 196.768C439.558 195.529 440.427 194.564 441.557 193.875C442.686 193.178 444.043 192.83 445.627 192.83C447.453 192.83 448.974 193.288 450.192 194.205C451.409 195.114 452.263 196.343 452.755 197.89L450.082 198.627C449.774 197.593 449.249 196.786 448.509 196.207C447.768 195.62 446.807 195.327 445.627 195.327C444.563 195.327 443.676 195.565 442.965 196.042C442.261 196.519 441.729 197.19 441.37 198.055C441.018 198.913 440.838 199.921 440.831 201.08C440.831 202.239 441.007 203.251 441.359 204.116C441.718 204.974 442.253 205.641 442.965 206.118C443.676 206.595 444.563 206.833 445.627 206.833C446.807 206.833 447.768 206.54 448.509 205.953C449.249 205.366 449.774 204.56 450.082 203.533L452.755 204.27C452.263 205.817 451.409 207.049 450.192 207.966C448.974 208.875 447.453 209.33 445.627 209.33ZM455.39 209V193.16H458.041V209H455.39ZM467.199 209.33C466.04 209.33 464.995 209.128 464.064 208.725C463.14 208.322 462.377 207.746 461.776 206.998C461.182 206.243 460.804 205.348 460.643 204.314L463.393 203.896C463.628 204.835 464.108 205.561 464.834 206.074C465.567 206.587 466.411 206.844 467.364 206.844C467.929 206.844 468.46 206.756 468.959 206.58C469.458 206.404 469.861 206.147 470.169 205.81C470.484 205.473 470.642 205.058 470.642 204.567C470.642 204.347 470.605 204.145 470.532 203.962C470.459 203.771 470.349 203.603 470.202 203.456C470.063 203.309 469.879 203.177 469.652 203.06C469.432 202.935 469.175 202.829 468.882 202.741L464.79 201.531C464.438 201.428 464.057 201.293 463.646 201.124C463.243 200.948 462.858 200.71 462.491 200.409C462.132 200.101 461.835 199.712 461.6 199.243C461.373 198.766 461.259 198.18 461.259 197.483C461.259 196.464 461.516 195.609 462.029 194.92C462.55 194.223 463.246 193.703 464.119 193.358C464.999 193.013 465.974 192.845 467.045 192.852C468.13 192.859 469.098 193.046 469.949 193.413C470.8 193.772 471.511 194.297 472.083 194.986C472.655 195.675 473.058 196.508 473.293 197.483L470.444 197.978C470.327 197.421 470.099 196.948 469.762 196.559C469.432 196.163 469.025 195.862 468.541 195.657C468.064 195.452 467.555 195.342 467.012 195.327C466.484 195.32 465.993 195.4 465.538 195.569C465.091 195.73 464.728 195.965 464.449 196.273C464.178 196.581 464.042 196.94 464.042 197.351C464.042 197.74 464.159 198.059 464.394 198.308C464.629 198.55 464.918 198.744 465.263 198.891C465.615 199.03 465.971 199.148 466.33 199.243L469.168 200.035C469.557 200.138 469.993 200.277 470.477 200.453C470.961 200.629 471.427 200.875 471.874 201.19C472.321 201.505 472.688 201.92 472.974 202.433C473.267 202.946 473.414 203.599 473.414 204.391C473.414 205.212 473.242 205.935 472.897 206.558C472.56 207.174 472.101 207.687 471.522 208.098C470.943 208.509 470.279 208.817 469.531 209.022C468.79 209.227 468.013 209.33 467.199 209.33ZM475.795 209V193.16H478.182L483.66 204.38L489.138 193.16H491.525V209H489.05V198.847L484.188 209H483.132L478.281 198.847V209H475.795ZM497.486 204.699C497.486 204.193 497.534 203.705 497.629 203.236C497.732 202.759 497.897 202.319 498.124 201.916C498.322 201.527 498.542 201.219 498.784 200.992C499.026 200.757 499.298 200.526 499.598 200.299C499.899 200.064 500.233 199.753 500.599 199.364C500.9 199.034 501.098 198.708 501.193 198.385C501.289 198.055 501.336 197.703 501.336 197.329C501.336 197.087 501.311 196.86 501.259 196.647C501.208 196.434 501.116 196.251 500.984 196.097C500.779 195.826 500.515 195.635 500.192 195.525C499.87 195.408 499.525 195.349 499.158 195.349C498.858 195.349 498.568 195.389 498.289 195.47C498.018 195.543 497.787 195.661 497.596 195.822C497.376 195.998 497.215 196.214 497.112 196.471C497.01 196.728 496.962 197.01 496.969 197.318H494.175C494.249 196.585 494.447 195.906 494.769 195.283C495.099 194.652 495.532 194.15 496.067 193.776C496.485 193.468 496.955 193.237 497.475 193.083C498.003 192.929 498.531 192.852 499.059 192.852C499.866 192.852 500.625 192.977 501.336 193.226C502.055 193.475 502.653 193.886 503.129 194.458C503.459 194.832 503.709 195.265 503.877 195.756C504.053 196.247 504.141 196.746 504.141 197.252C504.141 198.007 503.976 198.697 503.646 199.32C503.324 199.943 502.913 200.519 502.414 201.047C502.18 201.296 501.956 201.516 501.743 201.707C501.531 201.898 501.333 202.085 501.149 202.268C500.973 202.444 500.827 202.631 500.709 202.829C500.504 203.174 500.383 203.467 500.346 203.709C500.31 203.944 500.291 204.274 500.291 204.699H497.486ZM497.508 209V206.085H500.291V209H497.508Z" fill="white"></path> <path d="M243.766 35V24.766H249.786V25.914H244.998V29.316H249.422V30.464H245.026V35H243.766ZM252.3 35V33.852H254.386V25.928H252.3V24.78H257.76V25.928H255.674V33.852H257.76V35H252.3ZM260.513 35V24.78H263.677C264.283 24.78 264.815 24.906 265.273 25.158C265.73 25.4007 266.085 25.7413 266.337 26.18C266.589 26.6187 266.715 27.132 266.715 27.72C266.715 28.4107 266.533 29.0033 266.169 29.498C265.814 29.9927 265.329 30.3333 264.713 30.52L266.855 35H265.371L263.411 30.66H261.773V35H260.513ZM261.773 29.526H263.677C264.199 29.526 264.619 29.3627 264.937 29.036C265.254 28.7 265.413 28.2613 265.413 27.72C265.413 27.1693 265.254 26.7307 264.937 26.404C264.619 26.0773 264.199 25.914 263.677 25.914H261.773V29.526ZM271.875 35.14C271.203 35.14 270.624 35.028 270.139 34.804C269.663 34.58 269.294 34.258 269.033 33.838C268.772 33.418 268.636 32.9187 268.627 32.34H269.887C269.887 32.8533 270.06 33.2593 270.405 33.558C270.76 33.8567 271.25 34.006 271.875 34.006C272.463 34.006 272.92 33.8613 273.247 33.572C273.583 33.2827 273.751 32.8813 273.751 32.368C273.751 31.9573 273.639 31.598 273.415 31.29C273.2 30.982 272.888 30.7673 272.477 30.646L271.091 30.212C270.391 29.9973 269.85 29.638 269.467 29.134C269.094 28.63 268.907 28.0373 268.907 27.356C268.907 26.8053 269.028 26.3293 269.271 25.928C269.523 25.5173 269.873 25.2 270.321 24.976C270.769 24.7427 271.296 24.626 271.903 24.626C272.799 24.626 273.518 24.878 274.059 25.382C274.6 25.8767 274.876 26.5393 274.885 27.37H273.625C273.625 26.866 273.471 26.474 273.163 26.194C272.864 25.9047 272.44 25.76 271.889 25.76C271.348 25.76 270.923 25.8907 270.615 26.152C270.316 26.4133 270.167 26.7773 270.167 27.244C270.167 27.664 270.279 28.028 270.503 28.336C270.727 28.644 271.049 28.8633 271.469 28.994L272.869 29.442C273.55 29.6567 274.078 30.0207 274.451 30.534C274.824 31.0473 275.011 31.6493 275.011 32.34C275.011 32.9 274.88 33.39 274.619 33.81C274.358 34.23 273.989 34.5567 273.513 34.79C273.046 35.0233 272.5 35.14 271.875 35.14ZM279.584 35V25.914H276.784V24.766H283.644V25.914H280.844V35H279.584ZM293.867 35V24.78H295.519L296.583 28.084C296.685 28.3827 296.779 28.6813 296.863 28.98C296.947 29.2693 297.007 29.4933 297.045 29.652C297.091 29.4933 297.152 29.2693 297.227 28.98C297.301 28.6813 297.385 28.378 297.479 28.07L298.487 24.78H300.139V35H298.907V31.29C298.907 30.8793 298.921 30.4127 298.949 29.89C298.977 29.3673 299.014 28.8353 299.061 28.294C299.107 27.7433 299.154 27.2207 299.201 26.726C299.257 26.222 299.303 25.7833 299.341 25.41L297.689 30.52H296.359L294.693 25.41C294.739 25.774 294.786 26.1987 294.833 26.684C294.879 27.16 294.921 27.6687 294.959 28.21C294.996 28.742 295.029 29.274 295.057 29.806C295.085 30.338 295.099 30.8327 295.099 31.29V35H293.867ZM302.597 35V24.78H308.477V25.928H303.843V29.092H307.987V30.226H303.843V33.852H308.477V35H302.597ZM310.992 35V24.78H316.872V25.928H312.238V29.092H316.382V30.226H312.238V33.852H316.872V35H310.992ZM321.556 35V25.914H318.756V24.766H325.616V25.914H322.816V35H321.556ZM327.851 35V33.852H329.937V25.928H327.851V24.78H333.311V25.928H331.225V33.852H333.311V35H327.851ZM336.035 35V24.78H337.715L340.837 33.53C340.819 33.2967 340.795 33.012 340.767 32.676C340.749 32.3307 340.73 31.9713 340.711 31.598C340.702 31.2153 340.697 30.856 340.697 30.52V24.78H341.915V35H340.235L337.127 26.25C337.146 26.474 337.165 26.7587 337.183 27.104C337.202 27.44 337.216 27.7993 337.225 28.182C337.244 28.5553 337.253 28.9147 337.253 29.26V35H336.035ZM347.426 35.14C346.81 35.14 346.273 35.0233 345.816 34.79C345.368 34.5567 345.018 34.2207 344.766 33.782C344.523 33.334 344.402 32.8067 344.402 32.2V27.58C344.402 26.964 344.523 26.4367 344.766 25.998C345.018 25.5593 345.368 25.2233 345.816 24.99C346.273 24.7567 346.81 24.64 347.426 24.64C348.042 24.64 348.574 24.7613 349.022 25.004C349.47 25.2373 349.815 25.5733 350.058 26.012C350.301 26.4507 350.422 26.9733 350.422 27.58H349.162C349.162 27.0013 349.008 26.558 348.7 26.25C348.401 25.9327 347.977 25.774 347.426 25.774C346.875 25.774 346.441 25.928 346.124 26.236C345.816 26.544 345.662 26.9873 345.662 27.566V32.2C345.662 32.7787 345.816 33.2267 346.124 33.544C346.441 33.8613 346.875 34.02 347.426 34.02C347.977 34.02 348.401 33.8613 348.7 33.544C349.008 33.2267 349.162 32.7787 349.162 32.2V30.94H347.09V29.792H350.422V32.2C350.422 32.7973 350.301 33.32 350.058 33.768C349.815 34.2067 349.47 34.5473 349.022 34.79C348.574 35.0233 348.042 35.14 347.426 35.14Z" fill="white"></path> </g> <defs> <clipPath id="clip0_1323_294"> <rect width="600" height="400" rx="20" fill="white"></rect> </clipPath> </defs> </svg> 