<?xml version="1.0" encoding="UTF-8"?> <svg xmlns="http://www.w3.org/2000/svg" width="600" height="400" viewBox="0 0 600 400" fill="none"><g clip-path="url(#clip0_1323_270)"><rect width="600" height="400" rx="20" fill="#131313"></rect><path d="M104.43 193L99.7989 177.16H102.582L105.739 188.6L108.885 177.182L111.668 177.16L114.825 188.6L117.971 177.16H120.754L116.134 193H113.516L110.271 181.736L107.048 193H104.43ZM122.549 193V177.16H125.2V183.826H132.702V177.16H135.342V193H132.702V186.312H125.2V193H122.549ZM137.326 193L142.32 177.16H146.203L151.197 193H148.469L143.937 178.788H144.531L140.054 193H137.326ZM140.109 189.568V187.093H148.425V189.568H140.109ZM155.681 193V179.646H150.555V177.16H163.458V179.646H158.332V193H155.681ZM174.818 193.33C173.659 193.33 172.614 193.128 171.683 192.725C170.759 192.322 169.996 191.746 169.395 190.998C168.801 190.243 168.423 189.348 168.262 188.314L171.012 187.896C171.247 188.835 171.727 189.561 172.453 190.074C173.186 190.587 174.03 190.844 174.983 190.844C175.548 190.844 176.079 190.756 176.578 190.58C177.077 190.404 177.48 190.147 177.788 189.81C178.103 189.473 178.261 189.058 178.261 188.567C178.261 188.347 178.224 188.145 178.151 187.962C178.078 187.771 177.968 187.603 177.821 187.456C177.682 187.309 177.498 187.177 177.271 187.06C177.051 186.935 176.794 186.829 176.501 186.741L172.409 185.531C172.057 185.428 171.676 185.293 171.265 185.124C170.862 184.948 170.477 184.71 170.11 184.409C169.751 184.101 169.454 183.712 169.219 183.243C168.992 182.766 168.878 182.18 168.878 181.483C168.878 180.464 169.135 179.609 169.648 178.92C170.169 178.223 170.865 177.703 171.738 177.358C172.618 177.013 173.593 176.845 174.664 176.852C175.749 176.859 176.717 177.046 177.568 177.413C178.419 177.772 179.13 178.297 179.702 178.986C180.274 179.675 180.677 180.508 180.912 181.483L178.063 181.978C177.946 181.421 177.718 180.948 177.381 180.559C177.051 180.163 176.644 179.862 176.16 179.657C175.683 179.452 175.174 179.342 174.631 179.327C174.103 179.32 173.612 179.4 173.157 179.569C172.71 179.73 172.347 179.965 172.068 180.273C171.797 180.581 171.661 180.94 171.661 181.351C171.661 181.74 171.778 182.059 172.013 182.308C172.248 182.55 172.537 182.744 172.882 182.891C173.234 183.03 173.59 183.148 173.949 183.243L176.787 184.035C177.176 184.138 177.612 184.277 178.096 184.453C178.58 184.629 179.046 184.875 179.493 185.19C179.94 185.505 180.307 185.92 180.593 186.433C180.886 186.946 181.033 187.599 181.033 188.391C181.033 189.212 180.861 189.935 180.516 190.558C180.179 191.174 179.72 191.687 179.141 192.098C178.562 192.509 177.898 192.817 177.15 193.022C176.409 193.227 175.632 193.33 174.818 193.33ZM189.794 193.33C188.533 193.33 187.422 193.073 186.461 192.56C185.508 192.047 184.76 191.324 184.217 190.393C183.682 189.462 183.414 188.369 183.414 187.115V177.182L186.098 177.16V187.049C186.098 187.643 186.197 188.175 186.395 188.644C186.6 189.113 186.875 189.513 187.22 189.843C187.565 190.166 187.961 190.411 188.408 190.58C188.855 190.749 189.317 190.833 189.794 190.833C190.285 190.833 190.751 190.749 191.191 190.58C191.638 190.404 192.034 190.155 192.379 189.832C192.724 189.502 192.995 189.102 193.193 188.633C193.391 188.164 193.49 187.636 193.49 187.049V177.16H196.174V187.115C196.174 188.369 195.903 189.462 195.36 190.393C194.825 191.324 194.077 192.047 193.116 192.56C192.163 193.073 191.055 193.33 189.794 193.33ZM199.248 193V177.16H205.793C205.947 177.16 206.145 177.167 206.387 177.182C206.629 177.189 206.853 177.211 207.058 177.248C207.975 177.387 208.73 177.692 209.324 178.161C209.925 178.63 210.369 179.224 210.655 179.943C210.948 180.654 211.095 181.446 211.095 182.319C211.095 183.184 210.948 183.976 210.655 184.695C210.362 185.406 209.914 185.997 209.313 186.466C208.719 186.935 207.967 187.24 207.058 187.379C206.853 187.408 206.625 187.43 206.376 187.445C206.134 187.46 205.94 187.467 205.793 187.467H201.899V193H199.248ZM201.899 184.992H205.683C205.83 184.992 205.995 184.985 206.178 184.97C206.361 184.955 206.53 184.926 206.684 184.882C207.124 184.772 207.469 184.578 207.718 184.299C207.975 184.02 208.154 183.705 208.257 183.353C208.367 183.001 208.422 182.656 208.422 182.319C208.422 181.982 208.367 181.637 208.257 181.285C208.154 180.926 207.975 180.607 207.718 180.328C207.469 180.049 207.124 179.855 206.684 179.745C206.53 179.701 206.361 179.675 206.178 179.668C205.995 179.653 205.83 179.646 205.683 179.646H201.899V184.992ZM213.299 193V177.16H223.529V179.646H215.95V183.551H222.209V186.037H215.95V190.514H223.529V193H213.299ZM226.168 193V177.16H232.713C232.867 177.16 233.065 177.167 233.307 177.182C233.549 177.189 233.773 177.211 233.978 177.248C234.895 177.387 235.65 177.692 236.244 178.161C236.845 178.63 237.289 179.224 237.575 179.943C237.868 180.654 238.015 181.446 238.015 182.319C238.015 183.61 237.689 184.721 237.036 185.652C236.383 186.576 235.382 187.148 234.033 187.368L232.9 187.467H228.819V193H226.168ZM235.265 193L232.141 186.554L234.836 185.96L238.268 193H235.265ZM228.819 184.992H232.603C232.75 184.992 232.915 184.985 233.098 184.97C233.281 184.955 233.45 184.926 233.604 184.882C234.044 184.772 234.389 184.578 234.638 184.299C234.895 184.02 235.074 183.705 235.177 183.353C235.287 183.001 235.342 182.656 235.342 182.319C235.342 181.982 235.287 181.637 235.177 181.285C235.074 180.926 234.895 180.607 234.638 180.328C234.389 180.049 234.044 179.855 233.604 179.745C233.45 179.701 233.281 179.675 233.098 179.668C232.915 179.653 232.75 179.646 232.603 179.646H228.819V184.992ZM240.691 193V177.16H247.236C247.39 177.16 247.588 177.167 247.83 177.182C248.072 177.189 248.296 177.211 248.501 177.248C249.418 177.387 250.173 177.692 250.767 178.161C251.369 178.63 251.812 179.224 252.098 179.943C252.392 180.654 252.538 181.446 252.538 182.319C252.538 183.184 252.392 183.976 252.098 184.695C251.805 185.406 251.358 185.997 250.756 186.466C250.162 186.935 249.411 187.24 248.501 187.379C248.296 187.408 248.069 187.43 247.819 187.445C247.577 187.46 247.383 187.467 247.236 187.467H243.342V193H240.691ZM243.342 184.992H247.126C247.273 184.992 247.438 184.985 247.621 184.97C247.805 184.955 247.973 184.926 248.127 184.882C248.567 184.772 248.912 184.578 249.161 184.299C249.418 184.02 249.598 183.705 249.7 183.353C249.81 183.001 249.865 182.656 249.865 182.319C249.865 181.982 249.81 181.637 249.7 181.285C249.598 180.926 249.418 180.607 249.161 180.328C248.912 180.049 248.567 179.855 248.127 179.745C247.973 179.701 247.805 179.675 247.621 179.668C247.438 179.653 247.273 179.646 247.126 179.646H243.342V184.992ZM261.441 193.33C259.857 193.33 258.5 192.985 257.371 192.296C256.242 191.599 255.373 190.631 254.764 189.392C254.163 188.153 253.862 186.715 253.862 185.08C253.862 183.445 254.163 182.007 254.764 180.768C255.373 179.529 256.242 178.564 257.371 177.875C258.5 177.178 259.857 176.83 261.441 176.83C263.025 176.83 264.382 177.178 265.511 177.875C266.648 178.564 267.517 179.529 268.118 180.768C268.727 182.007 269.031 183.445 269.031 185.08C269.031 186.715 268.727 188.153 268.118 189.392C267.517 190.631 266.648 191.599 265.511 192.296C264.382 192.985 263.025 193.33 261.441 193.33ZM261.441 190.833C262.504 190.84 263.388 190.606 264.092 190.129C264.803 189.652 265.335 188.981 265.687 188.116C266.046 187.251 266.226 186.239 266.226 185.08C266.226 183.921 266.046 182.917 265.687 182.066C265.335 181.208 264.803 180.541 264.092 180.064C263.388 179.587 262.504 179.342 261.441 179.327C260.378 179.32 259.494 179.554 258.79 180.031C258.086 180.508 257.554 181.179 257.195 182.044C256.843 182.909 256.667 183.921 256.667 185.08C256.667 186.239 256.843 187.247 257.195 188.105C257.547 188.956 258.075 189.619 258.779 190.096C259.49 190.573 260.378 190.818 261.441 190.833ZM273.899 193L269.268 177.16H272.051L275.208 188.6L278.354 177.182L281.137 177.16L284.294 188.6L287.44 177.16H290.223L285.603 193H282.985L279.74 181.736L276.517 193H273.899ZM292.018 193V177.16H302.248V179.646H294.669V183.551H300.928V186.037H294.669V190.514H302.248V193H292.018ZM304.887 193V177.16H311.432C311.586 177.16 311.784 177.167 312.026 177.182C312.268 177.189 312.491 177.211 312.697 177.248C313.613 177.387 314.369 177.692 314.963 178.161C315.564 178.63 316.008 179.224 316.294 179.943C316.587 180.654 316.734 181.446 316.734 182.319C316.734 183.61 316.407 184.721 315.755 185.652C315.102 186.576 314.101 187.148 312.752 187.368L311.619 187.467H307.538V193H304.887ZM313.984 193L310.86 186.554L313.555 185.96L316.987 193H313.984ZM307.538 184.992H311.322C311.468 184.992 311.633 184.985 311.817 184.97C312 184.955 312.169 184.926 312.323 184.882C312.763 184.772 313.107 184.578 313.357 184.299C313.613 184.02 313.793 183.705 313.896 183.353C314.006 183.001 314.061 182.656 314.061 182.319C314.061 181.982 314.006 181.637 313.896 181.285C313.793 180.926 313.613 180.607 313.357 180.328C313.107 180.049 312.763 179.855 312.323 179.745C312.169 179.701 312 179.675 311.817 179.668C311.633 179.653 311.468 179.646 311.322 179.646H307.538V184.992ZM327.158 193L322.527 177.16H325.31L328.467 188.6L331.613 177.182L334.396 177.16L337.553 188.6L340.699 177.16H343.482L338.862 193H336.244L332.999 181.736L329.776 193H327.158ZM351.547 193.33C349.963 193.33 348.606 192.985 347.477 192.296C346.347 191.599 345.478 190.631 344.87 189.392C344.268 188.153 343.968 186.715 343.968 185.08C343.968 183.445 344.268 182.007 344.87 180.768C345.478 179.529 346.347 178.564 347.477 177.875C348.606 177.178 349.963 176.83 351.547 176.83C353.131 176.83 354.487 177.178 355.617 177.875C356.753 178.564 357.622 179.529 358.224 180.768C358.832 182.007 359.137 183.445 359.137 185.08C359.137 186.715 358.832 188.153 358.224 189.392C357.622 190.631 356.753 191.599 355.617 192.296C354.487 192.985 353.131 193.33 351.547 193.33ZM351.547 190.833C352.61 190.84 353.494 190.606 354.198 190.129C354.909 189.652 355.441 188.981 355.793 188.116C356.152 187.251 356.332 186.239 356.332 185.08C356.332 183.921 356.152 182.917 355.793 182.066C355.441 181.208 354.909 180.541 354.198 180.064C353.494 179.587 352.61 179.342 351.547 179.327C350.483 179.32 349.6 179.554 348.896 180.031C348.192 180.508 347.66 181.179 347.301 182.044C346.949 182.909 346.773 183.921 346.773 185.08C346.773 186.239 346.949 187.247 347.301 188.105C347.653 188.956 348.181 189.619 348.885 190.096C349.596 190.573 350.483 190.818 351.547 190.833ZM367.706 193.33C366.445 193.33 365.334 193.073 364.373 192.56C363.42 192.047 362.672 191.324 362.129 190.393C361.594 189.462 361.326 188.369 361.326 187.115V177.182L364.01 177.16V187.049C364.01 187.643 364.109 188.175 364.307 188.644C364.512 189.113 364.787 189.513 365.132 189.843C365.477 190.166 365.873 190.411 366.32 190.58C366.767 190.749 367.229 190.833 367.706 190.833C368.197 190.833 368.663 190.749 369.103 190.58C369.55 190.404 369.946 190.155 370.291 189.832C370.636 189.502 370.907 189.102 371.105 188.633C371.303 188.164 371.402 187.636 371.402 187.049V177.16H374.086V187.115C374.086 188.369 373.815 189.462 373.272 190.393C372.737 191.324 371.989 192.047 371.028 192.56C370.075 193.073 368.967 193.33 367.706 193.33ZM377.38 193V177.16H380.031V190.514H387.027V193H377.38ZM388.891 193V177.16H393.94C394.072 177.16 394.332 177.164 394.721 177.171C395.117 177.178 395.498 177.204 395.865 177.248C397.119 177.409 398.178 177.857 399.044 178.59C399.916 179.316 400.576 180.244 401.024 181.373C401.471 182.502 401.695 183.738 401.695 185.08C401.695 186.422 401.471 187.658 401.024 188.787C400.576 189.916 399.916 190.848 399.044 191.581C398.178 192.307 397.119 192.751 395.865 192.912C395.505 192.956 395.128 192.982 394.732 192.989C394.336 192.996 394.072 193 393.94 193H388.891ZM391.586 190.503H393.94C394.16 190.503 394.438 190.496 394.776 190.481C395.12 190.466 395.425 190.433 395.689 190.382C396.437 190.243 397.045 189.909 397.515 189.381C397.984 188.853 398.329 188.211 398.549 187.456C398.776 186.701 398.89 185.909 398.89 185.08C398.89 184.222 398.776 183.415 398.549 182.66C398.321 181.905 397.969 181.27 397.493 180.757C397.023 180.244 396.422 179.917 395.689 179.778C395.425 179.719 395.12 179.686 394.776 179.679C394.438 179.664 394.16 179.657 393.94 179.657H391.586V190.503ZM412.549 193V186.51L407.159 177.16H410.25L413.891 183.474L417.521 177.16H420.612L415.233 186.51V193H412.549ZM427.967 193.33C426.383 193.33 425.026 192.985 423.897 192.296C422.767 191.599 421.898 190.631 421.29 189.392C420.688 188.153 420.388 186.715 420.388 185.08C420.388 183.445 420.688 182.007 421.29 180.768C421.898 179.529 422.767 178.564 423.897 177.875C425.026 177.178 426.383 176.83 427.967 176.83C429.551 176.83 430.907 177.178 432.037 177.875C433.173 178.564 434.042 179.529 434.644 180.768C435.252 182.007 435.557 183.445 435.557 185.08C435.557 186.715 435.252 188.153 434.644 189.392C434.042 190.631 433.173 191.599 432.037 192.296C430.907 192.985 429.551 193.33 427.967 193.33ZM427.967 190.833C429.03 190.84 429.914 190.606 430.618 190.129C431.329 189.652 431.861 188.981 432.213 188.116C432.572 187.251 432.752 186.239 432.752 185.08C432.752 183.921 432.572 182.917 432.213 182.066C431.861 181.208 431.329 180.541 430.618 180.064C429.914 179.587 429.03 179.342 427.967 179.327C426.903 179.32 426.02 179.554 425.316 180.031C424.612 180.508 424.08 181.179 423.721 182.044C423.369 182.909 423.193 183.921 423.193 185.08C423.193 186.239 423.369 187.247 423.721 188.105C424.073 188.956 424.601 189.619 425.305 190.096C426.016 190.573 426.903 190.818 427.967 190.833ZM444.126 193.33C442.865 193.33 441.754 193.073 440.793 192.56C439.84 192.047 439.092 191.324 438.549 190.393C438.014 189.462 437.746 188.369 437.746 187.115V177.182L440.43 177.16V187.049C440.43 187.643 440.529 188.175 440.727 188.644C440.932 189.113 441.207 189.513 441.552 189.843C441.897 190.166 442.293 190.411 442.74 190.58C443.187 190.749 443.649 190.833 444.126 190.833C444.617 190.833 445.083 190.749 445.523 190.58C445.97 190.404 446.366 190.155 446.711 189.832C447.056 189.502 447.327 189.102 447.525 188.633C447.723 188.164 447.822 187.636 447.822 187.049V177.16H450.506V187.115C450.506 188.369 450.235 189.462 449.692 190.393C449.157 191.324 448.409 192.047 447.448 192.56C446.495 193.073 445.387 193.33 444.126 193.33ZM458.204 193V177.16H460.855V190.514H467.851V193H458.204ZM469.935 193V177.16H472.586V193H469.935ZM475.881 193V177.16H478.532V184.508L484.857 177.16H488.113L481.304 184.926L488.575 193H485.209L478.532 185.608V193H475.881ZM490.125 193V177.16H500.355V179.646H492.776V183.551H499.035V186.037H492.776V190.514H500.355V193H490.125ZM220.95 224V210.646H215.824V208.16H228.727V210.646H223.601V224H220.95ZM237.185 224.33C235.601 224.33 234.245 223.985 233.115 223.296C231.986 222.599 231.117 221.631 230.508 220.392C229.907 219.153 229.606 217.715 229.606 216.08C229.606 214.445 229.907 213.007 230.508 211.768C231.117 210.529 231.986 209.564 233.115 208.875C234.245 208.178 235.601 207.83 237.185 207.83C238.769 207.83 240.126 208.178 241.255 208.875C242.392 209.564 243.261 210.529 243.862 211.768C244.471 213.007 244.775 214.445 244.775 216.08C244.775 217.715 244.471 219.153 243.862 220.392C243.261 221.631 242.392 222.599 241.255 223.296C240.126 223.985 238.769 224.33 237.185 224.33ZM237.185 221.833C238.249 221.84 239.132 221.606 239.836 221.129C240.548 220.652 241.079 219.981 241.431 219.116C241.791 218.251 241.97 217.239 241.97 216.08C241.97 214.921 241.791 213.917 241.431 213.066C241.079 212.208 240.548 211.541 239.836 211.064C239.132 210.587 238.249 210.342 237.185 210.327C236.122 210.32 235.238 210.554 234.534 211.031C233.83 211.508 233.299 212.179 232.939 213.044C232.587 213.909 232.411 214.921 232.411 216.08C232.411 217.239 232.587 218.247 232.939 219.105C233.291 219.956 233.819 220.619 234.523 221.096C235.235 221.573 236.122 221.818 237.185 221.833ZM251.369 224V208.16H254.02V214.826H261.522V208.16H264.162V224H261.522V217.312H254.02V224H251.369ZM266.146 224L271.14 208.16H275.023L280.017 224H277.289L272.757 209.788H273.351L268.874 224H266.146ZM268.929 220.568V218.093H277.245V220.568H268.929ZM284.023 224L279.029 208.16H281.757L285.937 221.426L290.172 208.16H292.9L287.906 224H284.023ZM294.553 224V208.16H304.783V210.646H297.204V214.551H303.463V217.037H297.204V221.514H304.783V224H294.553ZM310.293 219.699C310.293 219.193 310.341 218.705 310.436 218.236C310.539 217.759 310.704 217.319 310.931 216.916C311.129 216.527 311.349 216.219 311.591 215.992C311.833 215.757 312.104 215.526 312.405 215.299C312.706 215.064 313.039 214.753 313.406 214.364C313.707 214.034 313.905 213.708 314 213.385C314.095 213.055 314.143 212.703 314.143 212.329C314.143 212.087 314.117 211.86 314.066 211.647C314.015 211.434 313.923 211.251 313.791 211.097C313.586 210.826 313.322 210.635 312.999 210.525C312.676 210.408 312.332 210.349 311.965 210.349C311.664 210.349 311.375 210.389 311.096 210.47C310.825 210.543 310.594 210.661 310.403 210.822C310.183 210.998 310.022 211.214 309.919 211.471C309.816 211.728 309.769 212.01 309.776 212.318H306.982C307.055 211.585 307.253 210.906 307.576 210.283C307.906 209.652 308.339 209.15 308.874 208.776C309.292 208.468 309.761 208.237 310.282 208.083C310.81 207.929 311.338 207.852 311.866 207.852C312.673 207.852 313.432 207.977 314.143 208.226C314.862 208.475 315.459 208.886 315.936 209.458C316.266 209.832 316.515 210.265 316.684 210.756C316.86 211.247 316.948 211.746 316.948 212.252C316.948 213.007 316.783 213.697 316.453 214.32C316.13 214.943 315.72 215.519 315.221 216.047C314.986 216.296 314.763 216.516 314.55 216.707C314.337 216.898 314.139 217.085 313.956 217.268C313.78 217.444 313.633 217.631 313.516 217.829C313.311 218.174 313.19 218.467 313.153 218.709C313.116 218.944 313.098 219.274 313.098 219.699H310.293ZM310.315 224V221.085H313.098V224H310.315ZM327.33 224L322.699 208.16H325.482L328.639 219.6L331.785 208.182L334.568 208.16L337.725 219.6L340.871 208.16H343.654L339.034 224H336.416L333.171 212.736L329.948 224H327.33ZM345.449 224V208.16H348.1V214.826H355.602V208.16H358.242V224H355.602V217.312H348.1V224H345.449ZM365.176 224V217.51L359.786 208.16H362.877L366.518 214.474L370.148 208.16H373.239L367.86 217.51V224H365.176ZM377.646 219.699C377.646 219.193 377.694 218.705 377.789 218.236C377.892 217.759 378.057 217.319 378.284 216.916C378.482 216.527 378.702 216.219 378.944 215.992C379.186 215.757 379.458 215.526 379.758 215.299C380.059 215.064 380.393 214.753 380.759 214.364C381.06 214.034 381.258 213.708 381.353 213.385C381.449 213.055 381.496 212.703 381.496 212.329C381.496 212.087 381.471 211.86 381.419 211.647C381.368 211.434 381.276 211.251 381.144 211.097C380.939 210.826 380.675 210.635 380.352 210.525C380.03 210.408 379.685 210.349 379.318 210.349C379.018 210.349 378.728 210.389 378.449 210.47C378.178 210.543 377.947 210.661 377.756 210.822C377.536 210.998 377.375 211.214 377.272 211.471C377.17 211.728 377.122 212.01 377.129 212.318H374.335C374.409 211.585 374.607 210.906 374.929 210.283C375.259 209.652 375.692 209.15 376.227 208.776C376.645 208.468 377.115 208.237 377.635 208.083C378.163 207.929 378.691 207.852 379.219 207.852C380.026 207.852 380.785 207.977 381.496 208.226C382.215 208.475 382.813 208.886 383.289 209.458C383.619 209.832 383.869 210.265 384.037 210.756C384.213 211.247 384.301 211.746 384.301 212.252C384.301 213.007 384.136 213.697 383.806 214.32C383.484 214.943 383.073 215.519 382.574 216.047C382.34 216.296 382.116 216.516 381.903 216.707C381.691 216.898 381.493 217.085 381.309 217.268C381.133 217.444 380.987 217.631 380.869 217.829C380.664 218.174 380.543 218.467 380.506 218.709C380.47 218.944 380.451 219.274 380.451 219.699H377.646ZM377.668 224V221.085H380.451V224H377.668Z" fill="white"></path><path d="M246.766 35V24.766H252.786V25.914H247.998V29.316H252.422V30.464H248.026V35H246.766ZM255.3 35V33.852H257.386V25.928H255.3V24.78H260.76V25.928H258.674V33.852H260.76V35H255.3ZM263.513 35V24.78H266.677C267.283 24.78 267.815 24.906 268.273 25.158C268.73 25.4007 269.085 25.7413 269.337 26.18C269.589 26.6187 269.715 27.132 269.715 27.72C269.715 28.4107 269.533 29.0033 269.169 29.498C268.814 29.9927 268.329 30.3333 267.713 30.52L269.855 35H268.371L266.411 30.66H264.773V35H263.513ZM264.773 29.526H266.677C267.199 29.526 267.619 29.3627 267.937 29.036C268.254 28.7 268.413 28.2613 268.413 27.72C268.413 27.1693 268.254 26.7307 267.937 26.404C267.619 26.0773 267.199 25.914 266.677 25.914H264.773V29.526ZM274.875 35.14C274.203 35.14 273.624 35.028 273.139 34.804C272.663 34.58 272.294 34.258 272.033 33.838C271.772 33.418 271.636 32.9187 271.627 32.34H272.887C272.887 32.8533 273.06 33.2593 273.405 33.558C273.76 33.8567 274.25 34.006 274.875 34.006C275.463 34.006 275.92 33.8613 276.247 33.572C276.583 33.2827 276.751 32.8813 276.751 32.368C276.751 31.9573 276.639 31.598 276.415 31.29C276.2 30.982 275.888 30.7673 275.477 30.646L274.091 30.212C273.391 29.9973 272.85 29.638 272.467 29.134C272.094 28.63 271.907 28.0373 271.907 27.356C271.907 26.8053 272.028 26.3293 272.271 25.928C272.523 25.5173 272.873 25.2 273.321 24.976C273.769 24.7427 274.296 24.626 274.903 24.626C275.799 24.626 276.518 24.878 277.059 25.382C277.6 25.8767 277.876 26.5393 277.885 27.37H276.625C276.625 26.866 276.471 26.474 276.163 26.194C275.864 25.9047 275.44 25.76 274.889 25.76C274.348 25.76 273.923 25.8907 273.615 26.152C273.316 26.4133 273.167 26.7773 273.167 27.244C273.167 27.664 273.279 28.028 273.503 28.336C273.727 28.644 274.049 28.8633 274.469 28.994L275.869 29.442C276.55 29.6567 277.078 30.0207 277.451 30.534C277.824 31.0473 278.011 31.6493 278.011 32.34C278.011 32.9 277.88 33.39 277.619 33.81C277.358 34.23 276.989 34.5567 276.513 34.79C276.046 35.0233 275.5 35.14 274.875 35.14ZM282.584 35V25.914H279.784V24.766H286.644V25.914H283.844V35H282.584ZM296.867 35V24.78H298.519L299.583 28.084C299.685 28.3827 299.779 28.6813 299.863 28.98C299.947 29.2693 300.007 29.4933 300.045 29.652C300.091 29.4933 300.152 29.2693 300.227 28.98C300.301 28.6813 300.385 28.378 300.479 28.07L301.487 24.78H303.139V35H301.907V31.29C301.907 30.8793 301.921 30.4127 301.949 29.89C301.977 29.3673 302.014 28.8353 302.061 28.294C302.107 27.7433 302.154 27.2207 302.201 26.726C302.257 26.222 302.303 25.7833 302.341 25.41L300.689 30.52H299.359L297.693 25.41C297.739 25.774 297.786 26.1987 297.833 26.684C297.879 27.16 297.921 27.6687 297.959 28.21C297.996 28.742 298.029 29.274 298.057 29.806C298.085 30.338 298.099 30.8327 298.099 31.29V35H296.867ZM305.597 35V24.78H311.477V25.928H306.843V29.092H310.987V30.226H306.843V33.852H311.477V35H305.597ZM313.992 35V24.78H319.872V25.928H315.238V29.092H319.382V30.226H315.238V33.852H319.872V35H313.992ZM324.556 35V25.914H321.756V24.766H328.616V25.914H325.816V35H324.556ZM330.851 35V33.852H332.937V25.928H330.851V24.78H336.311V25.928H334.225V33.852H336.311V35H330.851ZM339.035 35V24.78H340.715L343.837 33.53C343.819 33.2967 343.795 33.012 343.767 32.676C343.749 32.3307 343.73 31.9713 343.711 31.598C343.702 31.2153 343.697 30.856 343.697 30.52V24.78H344.915V35H343.235L340.127 26.25C340.146 26.474 340.165 26.7587 340.183 27.104C340.202 27.44 340.216 27.7993 340.225 28.182C340.244 28.5553 340.253 28.9147 340.253 29.26V35H339.035ZM350.426 35.14C349.81 35.14 349.273 35.0233 348.816 34.79C348.368 34.5567 348.018 34.2207 347.766 33.782C347.523 33.334 347.402 32.8067 347.402 32.2V27.58C347.402 26.964 347.523 26.4367 347.766 25.998C348.018 25.5593 348.368 25.2233 348.816 24.99C349.273 24.7567 349.81 24.64 350.426 24.64C351.042 24.64 351.574 24.7613 352.022 25.004C352.47 25.2373 352.815 25.5733 353.058 26.012C353.301 26.4507 353.422 26.9733 353.422 27.58H352.162C352.162 27.0013 352.008 26.558 351.7 26.25C351.401 25.9327 350.977 25.774 350.426 25.774C349.875 25.774 349.441 25.928 349.124 26.236C348.816 26.544 348.662 26.9873 348.662 27.566V32.2C348.662 32.7787 348.816 33.2267 349.124 33.544C349.441 33.8613 349.875 34.02 350.426 34.02C350.977 34.02 351.401 33.8613 351.7 33.544C352.008 33.2267 352.162 32.7787 352.162 32.2V30.94H350.09V29.792H353.422V32.2C353.422 32.7973 353.301 33.32 353.058 33.768C352.815 34.2067 352.47 34.5473 352.022 34.79C351.574 35.0233 351.042 35.14 350.426 35.14Z" fill="white"></path></g><defs><clipPath id="clip0_1323_270"><rect width="600" height="400" rx="20" fill="white"></rect></clipPath></defs></svg> 