<?xml version="1.0" encoding="UTF-8"?> <svg xmlns="http://www.w3.org/2000/svg" width="600" height="400" viewBox="0 0 600 400" fill="none"> <g clip-path="url(#clip0_1323_276)"> <rect width="600" height="400" rx="20" fill="#3AA3C3"></rect> <path d="M86.5517 193V177.16H91.6007C91.7327 177.16 91.9931 177.164 92.3817 177.171C92.7777 177.178 93.1591 177.204 93.5257 177.248C94.7797 177.409 95.8394 177.857 96.7047 178.59C97.5774 179.316 98.2374 180.244 98.6847 181.373C99.1321 182.502 99.3557 183.738 99.3557 185.08C99.3557 186.422 99.1321 187.658 98.6847 188.787C98.2374 189.916 97.5774 190.848 96.7047 191.581C95.8394 192.307 94.7797 192.751 93.5257 192.912C93.1664 192.956 92.7887 192.982 92.3927 192.989C91.9967 192.996 91.7327 193 91.6007 193H86.5517ZM89.2467 190.503H91.6007C91.8207 190.503 92.0994 190.496 92.4367 190.481C92.7814 190.466 93.0857 190.433 93.3497 190.382C94.0977 190.243 94.7064 189.909 95.1757 189.381C95.6451 188.853 95.9897 188.211 96.2097 187.456C96.4371 186.701 96.5507 185.909 96.5507 185.08C96.5507 184.222 96.4371 183.415 96.2097 182.66C95.9824 181.905 95.6304 181.27 95.1537 180.757C94.6844 180.244 94.0831 179.917 93.3497 179.778C93.0857 179.719 92.7814 179.686 92.4367 179.679C92.0994 179.664 91.8207 179.657 91.6007 179.657H89.2467V190.503ZM108.655 193.33C107.071 193.33 105.714 192.985 104.585 192.296C103.456 191.599 102.587 190.631 101.978 189.392C101.377 188.153 101.076 186.715 101.076 185.08C101.076 183.445 101.377 182.007 101.978 180.768C102.587 179.529 103.456 178.564 104.585 177.875C105.714 177.178 107.071 176.83 108.655 176.83C110.239 176.83 111.596 177.178 112.725 177.875C113.862 178.564 114.731 179.529 115.332 180.768C115.941 182.007 116.245 183.445 116.245 185.08C116.245 186.715 115.941 188.153 115.332 189.392C114.731 190.631 113.862 191.599 112.725 192.296C111.596 192.985 110.239 193.33 108.655 193.33ZM108.655 190.833C109.718 190.84 110.602 190.606 111.306 190.129C112.017 189.652 112.549 188.981 112.901 188.116C113.26 187.251 113.44 186.239 113.44 185.08C113.44 183.921 113.26 182.917 112.901 182.066C112.549 181.208 112.017 180.541 111.306 180.064C110.602 179.587 109.718 179.342 108.655 179.327C107.592 179.32 106.708 179.554 106.004 180.031C105.3 180.508 104.768 181.179 104.409 182.044C104.057 182.909 103.881 183.921 103.881 185.08C103.881 186.239 104.057 187.247 104.409 188.105C104.761 188.956 105.289 189.619 105.993 190.096C106.704 190.573 107.592 190.818 108.655 190.833ZM126.689 193V186.51L121.299 177.16H124.39L128.031 183.474L131.661 177.16H134.752L129.373 186.51V193H126.689ZM142.106 193.33C140.522 193.33 139.166 192.985 138.036 192.296C136.907 191.599 136.038 190.631 135.429 189.392C134.828 188.153 134.527 186.715 134.527 185.08C134.527 183.445 134.828 182.007 135.429 180.768C136.038 179.529 136.907 178.564 138.036 177.875C139.166 177.178 140.522 176.83 142.106 176.83C143.69 176.83 145.047 177.178 146.176 177.875C147.313 178.564 148.182 179.529 148.783 180.768C149.392 182.007 149.696 183.445 149.696 185.08C149.696 186.715 149.392 188.153 148.783 189.392C148.182 190.631 147.313 191.599 146.176 192.296C145.047 192.985 143.69 193.33 142.106 193.33ZM142.106 190.833C143.17 190.84 144.053 190.606 144.757 190.129C145.469 189.652 146 188.981 146.352 188.116C146.712 187.251 146.891 186.239 146.891 185.08C146.891 183.921 146.712 182.917 146.352 182.066C146 181.208 145.469 180.541 144.757 180.064C144.053 179.587 143.17 179.342 142.106 179.327C141.043 179.32 140.159 179.554 139.455 180.031C138.751 180.508 138.22 181.179 137.86 182.044C137.508 182.909 137.332 183.921 137.332 185.08C137.332 186.239 137.508 187.247 137.86 188.105C138.212 188.956 138.74 189.619 139.444 190.096C140.156 190.573 141.043 190.818 142.106 190.833ZM158.266 193.33C157.004 193.33 155.893 193.073 154.933 192.56C153.979 192.047 153.231 191.324 152.689 190.393C152.153 189.462 151.886 188.369 151.886 187.115V177.182L154.57 177.16V187.049C154.57 187.643 154.669 188.175 154.867 188.644C155.072 189.113 155.347 189.513 155.692 189.843C156.036 190.166 156.432 190.411 156.88 190.58C157.327 190.749 157.789 190.833 158.266 190.833C158.757 190.833 159.223 190.749 159.663 190.58C160.11 190.404 160.506 190.155 160.851 189.832C161.195 189.502 161.467 189.102 161.665 188.633C161.863 188.164 161.962 187.636 161.962 187.049V177.16H164.646V187.115C164.646 188.369 164.374 189.462 163.832 190.393C163.296 191.324 162.548 192.047 161.588 192.56C160.634 193.073 159.527 193.33 158.266 193.33ZM175.93 193V179.646H170.804V177.16H183.707V179.646H178.581V193H175.93ZM185.466 193V177.16H188.117V183.826H195.619V177.16H198.259V193H195.619V186.312H188.117V193H185.466ZM201.563 193V177.16H204.214V193H201.563ZM207.509 193V177.16H210.193L217.541 188.325V177.16H220.225V193H217.541L210.193 181.835V193H207.509ZM223.3 193V177.16H225.951V184.508L232.276 177.16H235.532L228.723 184.926L235.994 193H232.628L225.951 185.608V193H223.3ZM241.739 193V177.16H244.39V193H241.739ZM251.491 193V179.646H246.365V177.16H259.268V179.646H254.142V193H251.491ZM261.356 182.792L261.51 181.648C261.848 181.677 262.115 181.622 262.313 181.483C262.511 181.336 262.643 181.135 262.709 180.878C262.783 180.614 262.801 180.317 262.764 179.987H261.356V177.16H264.073V180.097C264.073 181.058 263.846 181.784 263.391 182.275C262.937 182.766 262.258 182.939 261.356 182.792ZM272.046 193.33C270.887 193.33 269.842 193.128 268.911 192.725C267.987 192.322 267.224 191.746 266.623 190.998C266.029 190.243 265.651 189.348 265.49 188.314L268.24 187.896C268.474 188.835 268.955 189.561 269.681 190.074C270.414 190.587 271.257 190.844 272.211 190.844C272.775 190.844 273.307 190.756 273.806 190.58C274.304 190.404 274.708 190.147 275.016 189.81C275.331 189.473 275.489 189.058 275.489 188.567C275.489 188.347 275.452 188.145 275.379 187.962C275.305 187.771 275.195 187.603 275.049 187.456C274.909 187.309 274.726 187.177 274.499 187.06C274.279 186.935 274.022 186.829 273.729 186.741L269.637 185.531C269.285 185.428 268.903 185.293 268.493 185.124C268.089 184.948 267.704 184.71 267.338 184.409C266.978 184.101 266.681 183.712 266.447 183.243C266.219 182.766 266.106 182.18 266.106 181.483C266.106 180.464 266.362 179.609 266.876 178.92C267.396 178.223 268.093 177.703 268.966 177.358C269.846 177.013 270.821 176.845 271.892 176.852C272.977 176.859 273.945 177.046 274.796 177.413C275.646 177.772 276.358 178.297 276.93 178.986C277.502 179.675 277.905 180.508 278.14 181.483L275.291 181.978C275.173 181.421 274.946 180.948 274.609 180.559C274.279 180.163 273.872 179.862 273.388 179.657C272.911 179.452 272.401 179.342 271.859 179.327C271.331 179.32 270.839 179.4 270.385 179.569C269.937 179.73 269.574 179.965 269.296 180.273C269.024 180.581 268.889 180.94 268.889 181.351C268.889 181.74 269.006 182.059 269.241 182.308C269.475 182.55 269.765 182.744 270.11 182.891C270.462 183.03 270.817 183.148 271.177 183.243L274.015 184.035C274.403 184.138 274.84 184.277 275.324 184.453C275.808 184.629 276.273 184.875 276.721 185.19C277.168 185.505 277.535 185.92 277.821 186.433C278.114 186.946 278.261 187.599 278.261 188.391C278.261 189.212 278.088 189.935 277.744 190.558C277.406 191.174 276.948 191.687 276.369 192.098C275.789 192.509 275.126 192.817 274.378 193.022C273.637 193.227 272.86 193.33 272.046 193.33ZM288.852 193V179.646H283.726V177.16H296.629V179.646H291.503V193H288.852ZM298.388 193V177.16H304.933C305.087 177.16 305.285 177.167 305.527 177.182C305.769 177.189 305.992 177.211 306.198 177.248C307.114 177.387 307.87 177.692 308.464 178.161C309.065 178.63 309.509 179.224 309.795 179.943C310.088 180.654 310.235 181.446 310.235 182.319C310.235 183.61 309.908 184.721 309.256 185.652C308.603 186.576 307.602 187.148 306.253 187.368L305.12 187.467H301.039V193H298.388ZM307.485 193L304.361 186.554L307.056 185.96L310.488 193H307.485ZM301.039 184.992H304.823C304.969 184.992 305.134 184.985 305.318 184.97C305.501 184.955 305.67 184.926 305.824 184.882C306.264 184.772 306.608 184.578 306.858 184.299C307.114 184.02 307.294 183.705 307.397 183.353C307.507 183.001 307.562 182.656 307.562 182.319C307.562 181.982 307.507 181.637 307.397 181.285C307.294 180.926 307.114 180.607 306.858 180.328C306.608 180.049 306.264 179.855 305.824 179.745C305.67 179.701 305.501 179.675 305.318 179.668C305.134 179.653 304.969 179.646 304.823 179.646H301.039V184.992ZM319.291 193.33C318.03 193.33 316.919 193.073 315.958 192.56C315.005 192.047 314.257 191.324 313.714 190.393C313.179 189.462 312.911 188.369 312.911 187.115V177.182L315.595 177.16V187.049C315.595 187.643 315.694 188.175 315.892 188.644C316.097 189.113 316.372 189.513 316.717 189.843C317.062 190.166 317.458 190.411 317.905 190.58C318.352 190.749 318.814 190.833 319.291 190.833C319.782 190.833 320.248 190.749 320.688 190.58C321.135 190.404 321.531 190.155 321.876 189.832C322.221 189.502 322.492 189.102 322.69 188.633C322.888 188.164 322.987 187.636 322.987 187.049V177.16H325.671V187.115C325.671 188.369 325.4 189.462 324.857 190.393C324.322 191.324 323.574 192.047 322.613 192.56C321.66 193.073 320.552 193.33 319.291 193.33ZM328.745 193V177.16H338.975V179.646H331.396V183.551H337.655V186.037H331.396V190.514H338.975V193H328.745ZM349.825 193V179.646H344.699V177.16H357.602V179.646H352.476V193H349.825ZM359.36 193V177.16H362.011V183.826H369.513V177.16H372.153V193H369.513V186.312H362.011V193H359.36ZM374.137 193L379.131 177.16H383.014L388.008 193H385.28L380.748 178.788H381.342L376.865 193H374.137ZM376.92 189.568V187.093H385.236V189.568H376.92ZM392.492 193V179.646H387.366V177.16H400.269V179.646H395.143V193H392.492ZM405.767 193V177.16H415.997V179.646H408.418V183.551H414.677V186.037H408.418V190.514H415.997V193H405.767ZM422.2 193L417.206 177.16H419.934L424.114 190.426L428.349 177.16H431.077L426.083 193H422.2ZM432.729 193V177.16H442.959V179.646H435.38V183.551H441.639V186.037H435.38V190.514H442.959V193H432.729ZM445.599 193V177.16H452.144C452.298 177.16 452.496 177.167 452.738 177.182C452.98 177.189 453.203 177.211 453.409 177.248C454.325 177.387 455.081 177.692 455.675 178.161C456.276 178.63 456.72 179.224 457.006 179.943C457.299 180.654 457.446 181.446 457.446 182.319C457.446 183.61 457.119 184.721 456.467 185.652C455.814 186.576 454.813 187.148 453.464 187.368L452.331 187.467H448.25V193H445.599ZM454.696 193L451.572 186.554L454.267 185.96L457.699 193H454.696ZM448.25 184.992H452.034C452.18 184.992 452.345 184.985 452.529 184.97C452.712 184.955 452.881 184.926 453.035 184.882C453.475 184.772 453.819 184.578 454.069 184.299C454.325 184.02 454.505 183.705 454.608 183.353C454.718 183.001 454.773 182.656 454.773 182.319C454.773 181.982 454.718 181.637 454.608 181.285C454.505 180.926 454.325 180.607 454.069 180.328C453.819 180.049 453.475 179.855 453.035 179.745C452.881 179.701 452.712 179.675 452.529 179.668C452.345 179.653 452.18 179.646 452.034 179.646H448.25V184.992ZM463.671 193V186.51L458.281 177.16H461.372L465.013 183.474L468.643 177.16H471.734L466.355 186.51V193H463.671ZM479.089 193.33C477.505 193.33 476.148 192.985 475.019 192.296C473.889 191.599 473.02 190.631 472.412 189.392C471.81 188.153 471.51 186.715 471.51 185.08C471.51 183.445 471.81 182.007 472.412 180.768C473.02 179.529 473.889 178.564 475.019 177.875C476.148 177.178 477.505 176.83 479.089 176.83C480.673 176.83 482.029 177.178 483.159 177.875C484.295 178.564 485.164 179.529 485.766 180.768C486.374 182.007 486.679 183.445 486.679 185.08C486.679 186.715 486.374 188.153 485.766 189.392C485.164 190.631 484.295 191.599 483.159 192.296C482.029 192.985 480.673 193.33 479.089 193.33ZM479.089 190.833C480.152 190.84 481.036 190.606 481.74 190.129C482.451 189.652 482.983 188.981 483.335 188.116C483.694 187.251 483.874 186.239 483.874 185.08C483.874 183.921 483.694 182.917 483.335 182.066C482.983 181.208 482.451 180.541 481.74 180.064C481.036 179.587 480.152 179.342 479.089 179.327C478.025 179.32 477.142 179.554 476.438 180.031C475.734 180.508 475.202 181.179 474.843 182.044C474.491 182.909 474.315 183.921 474.315 185.08C474.315 186.239 474.491 187.247 474.843 188.105C475.195 188.956 475.723 189.619 476.427 190.096C477.138 190.573 478.025 190.818 479.089 190.833ZM488.868 193V177.16H491.552L498.9 188.325V177.16H501.584V193H498.9L491.552 181.835V193H488.868ZM504.659 193V177.16H514.889V179.646H507.31V183.551H513.569V186.037H507.31V190.514H514.889V193H504.659ZM133.807 224V208.16H136.458V214.826H143.96V208.16H146.6V224H143.96V217.312H136.458V224H133.807ZM148.584 224L153.578 208.16H157.461L162.455 224H159.727L155.195 209.788H155.789L151.312 224H148.584ZM151.367 220.568V218.093H159.683V220.568H151.367ZM169.877 224.33C168.718 224.33 167.673 224.128 166.742 223.725C165.818 223.322 165.055 222.746 164.454 221.998C163.86 221.243 163.482 220.348 163.321 219.314L166.071 218.896C166.305 219.835 166.786 220.561 167.512 221.074C168.245 221.587 169.088 221.844 170.042 221.844C170.606 221.844 171.138 221.756 171.637 221.58C172.135 221.404 172.539 221.147 172.847 220.81C173.162 220.473 173.32 220.058 173.32 219.567C173.32 219.347 173.283 219.145 173.21 218.962C173.136 218.771 173.026 218.603 172.88 218.456C172.74 218.309 172.557 218.177 172.33 218.06C172.11 217.935 171.853 217.829 171.56 217.741L167.468 216.531C167.116 216.428 166.734 216.293 166.324 216.124C165.92 215.948 165.535 215.71 165.169 215.409C164.809 215.101 164.512 214.712 164.278 214.243C164.05 213.766 163.937 213.18 163.937 212.483C163.937 211.464 164.193 210.609 164.707 209.92C165.227 209.223 165.924 208.703 166.797 208.358C167.677 208.013 168.652 207.845 169.723 207.852C170.808 207.859 171.776 208.046 172.627 208.413C173.477 208.772 174.189 209.297 174.761 209.986C175.333 210.675 175.736 211.508 175.971 212.483L173.122 212.978C173.004 212.421 172.777 211.948 172.44 211.559C172.11 211.163 171.703 210.862 171.219 210.657C170.742 210.452 170.232 210.342 169.69 210.327C169.162 210.32 168.67 210.4 168.216 210.569C167.768 210.73 167.405 210.965 167.127 211.273C166.855 211.581 166.72 211.94 166.72 212.351C166.72 212.74 166.837 213.059 167.072 213.308C167.306 213.55 167.596 213.744 167.941 213.891C168.293 214.03 168.648 214.148 169.008 214.243L171.846 215.035C172.234 215.138 172.671 215.277 173.155 215.453C173.639 215.629 174.104 215.875 174.552 216.19C174.999 216.505 175.366 216.92 175.652 217.433C175.945 217.946 176.092 218.599 176.092 219.391C176.092 220.212 175.919 220.935 175.575 221.558C175.237 222.174 174.779 222.687 174.2 223.098C173.62 223.509 172.957 223.817 172.209 224.022C171.468 224.227 170.691 224.33 169.877 224.33ZM188.74 224.33C187.581 224.33 186.536 224.128 185.605 223.725C184.681 223.322 183.918 222.746 183.317 221.998C182.723 221.243 182.345 220.348 182.184 219.314L184.934 218.896C185.169 219.835 185.649 220.561 186.375 221.074C187.108 221.587 187.952 221.844 188.905 221.844C189.47 221.844 190.001 221.756 190.5 221.58C190.999 221.404 191.402 221.147 191.71 220.81C192.025 220.473 192.183 220.058 192.183 219.567C192.183 219.347 192.146 219.145 192.073 218.962C192 218.771 191.89 218.603 191.743 218.456C191.604 218.309 191.42 218.177 191.193 218.06C190.973 217.935 190.716 217.829 190.423 217.741L186.331 216.531C185.979 216.428 185.598 216.293 185.187 216.124C184.784 215.948 184.399 215.71 184.032 215.409C183.673 215.101 183.376 214.712 183.141 214.243C182.914 213.766 182.8 213.18 182.8 212.483C182.8 211.464 183.057 210.609 183.57 209.92C184.091 209.223 184.787 208.703 185.66 208.358C186.54 208.013 187.515 207.845 188.586 207.852C189.671 207.859 190.639 208.046 191.49 208.413C192.341 208.772 193.052 209.297 193.624 209.986C194.196 210.675 194.599 211.508 194.834 212.483L191.985 212.978C191.868 212.421 191.64 211.948 191.303 211.559C190.973 211.163 190.566 210.862 190.082 210.657C189.605 210.452 189.096 210.342 188.553 210.327C188.025 210.32 187.534 210.4 187.079 210.569C186.632 210.73 186.269 210.965 185.99 211.273C185.719 211.581 185.583 211.94 185.583 212.351C185.583 212.74 185.7 213.059 185.935 213.308C186.17 213.55 186.459 213.744 186.804 213.891C187.156 214.03 187.512 214.148 187.871 214.243L190.709 215.035C191.098 215.138 191.534 215.277 192.018 215.453C192.502 215.629 192.968 215.875 193.415 216.19C193.862 216.505 194.229 216.92 194.515 217.433C194.808 217.946 194.955 218.599 194.955 219.391C194.955 220.212 194.783 220.935 194.438 221.558C194.101 222.174 193.642 222.687 193.063 223.098C192.484 223.509 191.82 223.817 191.072 224.022C190.331 224.227 189.554 224.33 188.74 224.33ZM204.035 224.33C202.451 224.33 201.094 223.985 199.965 223.296C198.836 222.599 197.967 221.631 197.358 220.392C196.757 219.153 196.456 217.715 196.456 216.08C196.456 214.445 196.757 213.007 197.358 211.768C197.967 210.529 198.836 209.564 199.965 208.875C201.094 208.178 202.451 207.83 204.035 207.83C205.619 207.83 206.976 208.178 208.105 208.875C209.242 209.564 210.111 210.529 210.712 211.768C211.321 213.007 211.625 214.445 211.625 216.08C211.625 217.715 211.321 219.153 210.712 220.392C210.111 221.631 209.242 222.599 208.105 223.296C206.976 223.985 205.619 224.33 204.035 224.33ZM204.035 221.833C205.098 221.84 205.982 221.606 206.686 221.129C207.397 220.652 207.929 219.981 208.281 219.116C208.64 218.251 208.82 217.239 208.82 216.08C208.82 214.921 208.64 213.917 208.281 213.066C207.929 212.208 207.397 211.541 206.686 211.064C205.982 210.587 205.098 210.342 204.035 210.327C202.972 210.32 202.088 210.554 201.384 211.031C200.68 211.508 200.148 212.179 199.789 213.044C199.437 213.909 199.261 214.921 199.261 216.08C199.261 217.239 199.437 218.247 199.789 219.105C200.141 219.956 200.669 220.619 201.373 221.096C202.084 221.573 202.972 221.818 204.035 221.833ZM213.814 224V208.16H216.201L221.679 219.38L227.157 208.16H229.544V224H227.069V213.847L222.207 224H221.151L216.3 213.847V224H213.814ZM232.635 224V208.16H242.865V210.646H235.286V214.551H241.545V217.037H235.286V221.514H242.865V224H232.635ZM249.31 224V210.646H244.184V208.16H257.087V210.646H251.961V224H249.31ZM258.846 224V208.16H261.497V214.826H268.999V208.16H271.639V224H268.999V217.312H261.497V224H258.846ZM274.943 224V208.16H277.594V224H274.943ZM280.889 224V208.16H283.573L290.921 219.325V208.16H293.605V224H290.921L283.573 212.835V224H280.889ZM303.214 224.33C302.187 224.33 301.223 224.15 300.321 223.791C299.426 223.424 298.638 222.889 297.956 222.185C297.281 221.481 296.753 220.619 296.372 219.6C295.99 218.573 295.8 217.4 295.8 216.08C295.8 214.349 296.122 212.872 296.768 211.647C297.413 210.415 298.297 209.473 299.419 208.82C300.541 208.16 301.806 207.83 303.214 207.83C305.164 207.83 306.708 208.285 307.845 209.194C308.989 210.096 309.762 211.365 310.166 213L307.46 213.429C307.159 212.49 306.668 211.742 305.986 211.185C305.304 210.62 304.435 210.338 303.379 210.338C302.315 210.323 301.432 210.554 300.728 211.031C300.024 211.508 299.492 212.179 299.133 213.044C298.781 213.909 298.605 214.921 298.605 216.08C298.605 217.239 298.781 218.247 299.133 219.105C299.485 219.956 300.013 220.619 300.717 221.096C301.428 221.573 302.315 221.818 303.379 221.833C304.178 221.84 304.878 221.697 305.48 221.404C306.081 221.103 306.572 220.652 306.954 220.051C307.335 219.442 307.592 218.683 307.724 217.774H304.93V215.695H310.54C310.554 215.812 310.565 215.985 310.573 216.212C310.58 216.439 310.584 216.575 310.584 216.619C310.584 218.115 310.287 219.446 309.693 220.612C309.106 221.771 308.263 222.68 307.163 223.34C306.063 224 304.746 224.33 303.214 224.33ZM321.003 224V210.646H315.877V208.16H328.78V210.646H323.654V224H321.003ZM337.238 224.33C335.654 224.33 334.297 223.985 333.168 223.296C332.039 222.599 331.17 221.631 330.561 220.392C329.96 219.153 329.659 217.715 329.659 216.08C329.659 214.445 329.96 213.007 330.561 211.768C331.17 210.529 332.039 209.564 333.168 208.875C334.297 208.178 335.654 207.83 337.238 207.83C338.822 207.83 340.179 208.178 341.308 208.875C342.445 209.564 343.314 210.529 343.915 211.768C344.524 213.007 344.828 214.445 344.828 216.08C344.828 217.715 344.524 219.153 343.915 220.392C343.314 221.631 342.445 222.599 341.308 223.296C340.179 223.985 338.822 224.33 337.238 224.33ZM337.238 221.833C338.301 221.84 339.185 221.606 339.889 221.129C340.6 220.652 341.132 219.981 341.484 219.116C341.843 218.251 342.023 217.239 342.023 216.08C342.023 214.921 341.843 213.917 341.484 213.066C341.132 212.208 340.6 211.541 339.889 211.064C339.185 210.587 338.301 210.342 337.238 210.327C336.175 210.32 335.291 210.554 334.587 211.031C333.883 211.508 333.351 212.179 332.992 213.044C332.64 213.909 332.464 214.921 332.464 216.08C332.464 217.239 332.64 218.247 332.992 219.105C333.344 219.956 333.872 220.619 334.576 221.096C335.287 221.573 336.175 221.818 337.238 221.833ZM355.228 224V210.646H350.102V208.16H363.005V210.646H357.879V224H355.228ZM364.764 224V208.16H374.994V210.646H367.415V214.551H373.674V217.037H367.415V221.514H374.994V224H364.764ZM376.533 224L381.527 208.16H385.41L390.404 224H387.676L383.144 209.788H383.738L379.261 224H376.533ZM379.316 220.568V218.093H387.632V220.568H379.316ZM398.662 224.33C397.078 224.33 395.721 223.985 394.592 223.296C393.463 222.599 392.594 221.631 391.985 220.392C391.384 219.153 391.083 217.715 391.083 216.08C391.083 214.445 391.384 213.007 391.985 211.768C392.594 210.529 393.463 209.564 394.592 208.875C395.721 208.178 397.078 207.83 398.662 207.83C400.488 207.83 402.01 208.288 403.227 209.205C404.444 210.114 405.299 211.343 405.79 212.89L403.117 213.627C402.809 212.593 402.285 211.786 401.544 211.207C400.803 210.62 399.843 210.327 398.662 210.327C397.599 210.327 396.711 210.565 396 211.042C395.296 211.519 394.764 212.19 394.405 213.055C394.053 213.913 393.873 214.921 393.866 216.08C393.866 217.239 394.042 218.251 394.394 219.116C394.753 219.974 395.289 220.641 396 221.118C396.711 221.595 397.599 221.833 398.662 221.833C399.843 221.833 400.803 221.54 401.544 220.953C402.285 220.366 402.809 219.56 403.117 218.533L405.79 219.27C405.299 220.817 404.444 222.049 403.227 222.966C402.01 223.875 400.488 224.33 398.662 224.33ZM408.205 224V208.16H410.856V214.826H418.358V208.16H420.998V224H418.358V217.312H410.856V224H408.205ZM434.866 224.33C433.605 224.33 432.494 224.073 431.533 223.56C430.58 223.047 429.832 222.324 429.289 221.393C428.754 220.462 428.486 219.369 428.486 218.115V208.182L431.17 208.16V218.049C431.17 218.643 431.269 219.175 431.467 219.644C431.673 220.113 431.948 220.513 432.292 220.843C432.637 221.166 433.033 221.411 433.48 221.58C433.928 221.749 434.39 221.833 434.866 221.833C435.358 221.833 435.823 221.749 436.263 221.58C436.711 221.404 437.107 221.155 437.451 220.832C437.796 220.502 438.067 220.102 438.265 219.633C438.463 219.164 438.562 218.636 438.562 218.049V208.16H441.246V218.115C441.246 219.369 440.975 220.462 440.432 221.393C439.897 222.324 439.149 223.047 438.188 223.56C437.235 224.073 436.128 224.33 434.866 224.33ZM449.517 224.33C448.359 224.33 447.314 224.128 446.382 223.725C445.458 223.322 444.696 222.746 444.094 221.998C443.5 221.243 443.123 220.348 442.961 219.314L445.711 218.896C445.946 219.835 446.426 220.561 447.152 221.074C447.886 221.587 448.729 221.844 449.682 221.844C450.247 221.844 450.779 221.756 451.277 221.58C451.776 221.404 452.179 221.147 452.487 220.81C452.803 220.473 452.96 220.058 452.96 219.567C452.96 219.347 452.924 219.145 452.85 218.962C452.777 218.771 452.667 218.603 452.52 218.456C452.381 218.309 452.198 218.177 451.97 218.06C451.75 217.935 451.494 217.829 451.2 217.741L447.108 216.531C446.756 216.428 446.375 216.293 445.964 216.124C445.561 215.948 445.176 215.71 444.809 215.409C444.45 215.101 444.153 214.712 443.918 214.243C443.691 213.766 443.577 213.18 443.577 212.483C443.577 211.464 443.834 210.609 444.347 209.92C444.868 209.223 445.565 208.703 446.437 208.358C447.317 208.013 448.293 207.845 449.363 207.852C450.449 207.859 451.417 208.046 452.267 208.413C453.118 208.772 453.829 209.297 454.401 209.986C454.973 210.675 455.377 211.508 455.611 212.483L452.762 212.978C452.645 212.421 452.418 211.948 452.08 211.559C451.75 211.163 451.343 210.862 450.859 210.657C450.383 210.452 449.873 210.342 449.33 210.327C448.802 210.32 448.311 210.4 447.856 210.569C447.409 210.73 447.046 210.965 446.767 211.273C446.496 211.581 446.36 211.94 446.36 212.351C446.36 212.74 446.478 213.059 446.712 213.308C446.947 213.55 447.237 213.744 447.581 213.891C447.933 214.03 448.289 214.148 448.648 214.243L451.486 215.035C451.875 215.138 452.311 215.277 452.795 215.453C453.279 215.629 453.745 215.875 454.192 216.19C454.64 216.505 455.006 216.92 455.292 217.433C455.586 217.946 455.732 218.599 455.732 219.391C455.732 220.212 455.56 220.935 455.215 221.558C454.878 222.174 454.42 222.687 453.84 223.098C453.261 223.509 452.597 223.817 451.849 224.022C451.109 224.227 450.331 224.33 449.517 224.33ZM460.984 219.699C460.984 219.193 461.032 218.705 461.127 218.236C461.23 217.759 461.395 217.319 461.622 216.916C461.82 216.527 462.04 216.219 462.282 215.992C462.524 215.757 462.796 215.526 463.096 215.299C463.397 215.064 463.731 214.753 464.097 214.364C464.398 214.034 464.596 213.708 464.691 213.385C464.787 213.055 464.834 212.703 464.834 212.329C464.834 212.087 464.809 211.86 464.757 211.647C464.706 211.434 464.614 211.251 464.482 211.097C464.277 210.826 464.013 210.635 463.69 210.525C463.368 210.408 463.023 210.349 462.656 210.349C462.356 210.349 462.066 210.389 461.787 210.47C461.516 210.543 461.285 210.661 461.094 210.822C460.874 210.998 460.713 211.214 460.61 211.471C460.508 211.728 460.46 212.01 460.467 212.318H457.673C457.747 211.585 457.945 210.906 458.267 210.283C458.597 209.652 459.03 209.15 459.565 208.776C459.983 208.468 460.453 208.237 460.973 208.083C461.501 207.929 462.029 207.852 462.557 207.852C463.364 207.852 464.123 207.977 464.834 208.226C465.553 208.475 466.151 208.886 466.627 209.458C466.957 209.832 467.207 210.265 467.375 210.756C467.551 211.247 467.639 211.746 467.639 212.252C467.639 213.007 467.474 213.697 467.144 214.32C466.822 214.943 466.411 215.519 465.912 216.047C465.678 216.296 465.454 216.516 465.241 216.707C465.029 216.898 464.831 217.085 464.647 217.268C464.471 217.444 464.325 217.631 464.207 217.829C464.002 218.174 463.881 218.467 463.844 218.709C463.808 218.944 463.789 219.274 463.789 219.699H460.984ZM461.006 224V221.085H463.789V224H461.006Z" fill="white"></path> <path d="M246.766 35V24.766H252.786V25.914H247.998V29.316H252.422V30.464H248.026V35H246.766ZM255.3 35V33.852H257.386V25.928H255.3V24.78H260.76V25.928H258.674V33.852H260.76V35H255.3ZM263.513 35V24.78H266.677C267.283 24.78 267.815 24.906 268.273 25.158C268.73 25.4007 269.085 25.7413 269.337 26.18C269.589 26.6187 269.715 27.132 269.715 27.72C269.715 28.4107 269.533 29.0033 269.169 29.498C268.814 29.9927 268.329 30.3333 267.713 30.52L269.855 35H268.371L266.411 30.66H264.773V35H263.513ZM264.773 29.526H266.677C267.199 29.526 267.619 29.3627 267.937 29.036C268.254 28.7 268.413 28.2613 268.413 27.72C268.413 27.1693 268.254 26.7307 267.937 26.404C267.619 26.0773 267.199 25.914 266.677 25.914H264.773V29.526ZM274.875 35.14C274.203 35.14 273.624 35.028 273.139 34.804C272.663 34.58 272.294 34.258 272.033 33.838C271.772 33.418 271.636 32.9187 271.627 32.34H272.887C272.887 32.8533 273.06 33.2593 273.405 33.558C273.76 33.8567 274.25 34.006 274.875 34.006C275.463 34.006 275.92 33.8613 276.247 33.572C276.583 33.2827 276.751 32.8813 276.751 32.368C276.751 31.9573 276.639 31.598 276.415 31.29C276.2 30.982 275.888 30.7673 275.477 30.646L274.091 30.212C273.391 29.9973 272.85 29.638 272.467 29.134C272.094 28.63 271.907 28.0373 271.907 27.356C271.907 26.8053 272.028 26.3293 272.271 25.928C272.523 25.5173 272.873 25.2 273.321 24.976C273.769 24.7427 274.296 24.626 274.903 24.626C275.799 24.626 276.518 24.878 277.059 25.382C277.6 25.8767 277.876 26.5393 277.885 27.37H276.625C276.625 26.866 276.471 26.474 276.163 26.194C275.864 25.9047 275.44 25.76 274.889 25.76C274.348 25.76 273.923 25.8907 273.615 26.152C273.316 26.4133 273.167 26.7773 273.167 27.244C273.167 27.664 273.279 28.028 273.503 28.336C273.727 28.644 274.049 28.8633 274.469 28.994L275.869 29.442C276.55 29.6567 277.078 30.0207 277.451 30.534C277.824 31.0473 278.011 31.6493 278.011 32.34C278.011 32.9 277.88 33.39 277.619 33.81C277.358 34.23 276.989 34.5567 276.513 34.79C276.046 35.0233 275.5 35.14 274.875 35.14ZM282.584 35V25.914H279.784V24.766H286.644V25.914H283.844V35H282.584ZM296.867 35V24.78H298.519L299.583 28.084C299.685 28.3827 299.779 28.6813 299.863 28.98C299.947 29.2693 300.007 29.4933 300.045 29.652C300.091 29.4933 300.152 29.2693 300.227 28.98C300.301 28.6813 300.385 28.378 300.479 28.07L301.487 24.78H303.139V35H301.907V31.29C301.907 30.8793 301.921 30.4127 301.949 29.89C301.977 29.3673 302.014 28.8353 302.061 28.294C302.107 27.7433 302.154 27.2207 302.201 26.726C302.257 26.222 302.303 25.7833 302.341 25.41L300.689 30.52H299.359L297.693 25.41C297.739 25.774 297.786 26.1987 297.833 26.684C297.879 27.16 297.921 27.6687 297.959 28.21C297.996 28.742 298.029 29.274 298.057 29.806C298.085 30.338 298.099 30.8327 298.099 31.29V35H296.867ZM305.597 35V24.78H311.477V25.928H306.843V29.092H310.987V30.226H306.843V33.852H311.477V35H305.597ZM313.992 35V24.78H319.872V25.928H315.238V29.092H319.382V30.226H315.238V33.852H319.872V35H313.992ZM324.556 35V25.914H321.756V24.766H328.616V25.914H325.816V35H324.556ZM330.851 35V33.852H332.937V25.928H330.851V24.78H336.311V25.928H334.225V33.852H336.311V35H330.851ZM339.035 35V24.78H340.715L343.837 33.53C343.819 33.2967 343.795 33.012 343.767 32.676C343.749 32.3307 343.73 31.9713 343.711 31.598C343.702 31.2153 343.697 30.856 343.697 30.52V24.78H344.915V35H343.235L340.127 26.25C340.146 26.474 340.165 26.7587 340.183 27.104C340.202 27.44 340.216 27.7993 340.225 28.182C340.244 28.5553 340.253 28.9147 340.253 29.26V35H339.035ZM350.426 35.14C349.81 35.14 349.273 35.0233 348.816 34.79C348.368 34.5567 348.018 34.2207 347.766 33.782C347.523 33.334 347.402 32.8067 347.402 32.2V27.58C347.402 26.964 347.523 26.4367 347.766 25.998C348.018 25.5593 348.368 25.2233 348.816 24.99C349.273 24.7567 349.81 24.64 350.426 24.64C351.042 24.64 351.574 24.7613 352.022 25.004C352.47 25.2373 352.815 25.5733 353.058 26.012C353.301 26.4507 353.422 26.9733 353.422 27.58H352.162C352.162 27.0013 352.008 26.558 351.7 26.25C351.401 25.9327 350.977 25.774 350.426 25.774C349.875 25.774 349.441 25.928 349.124 26.236C348.816 26.544 348.662 26.9873 348.662 27.566V32.2C348.662 32.7787 348.816 33.2267 349.124 33.544C349.441 33.8613 349.875 34.02 350.426 34.02C350.977 34.02 351.401 33.8613 351.7 33.544C352.008 33.2267 352.162 32.7787 352.162 32.2V30.94H350.09V29.792H353.422V32.2C353.422 32.7973 353.301 33.32 353.058 33.768C352.815 34.2067 352.47 34.5473 352.022 34.79C351.574 35.0233 351.042 35.14 350.426 35.14Z" fill="white"></path> </g> <defs> <clipPath id="clip0_1323_276"> <rect width="600" height="400" rx="20" fill="white"></rect> </clipPath> </defs> </svg> 