<?xml version="1.0" encoding="UTF-8"?> <svg xmlns="http://www.w3.org/2000/svg" width="600" height="400" viewBox="0 0 600 400" fill="none"> <rect width="600" height="400" rx="20" fill="url(#paint0_linear_120_238)"></rect> <path d="M101.536 193.33C100.275 193.33 99.1639 193.073 98.2032 192.56C97.2499 192.047 96.5019 191.324 95.9592 190.393C95.4239 189.462 95.1562 188.369 95.1562 187.115V177.182L97.8402 177.16V187.049C97.8402 187.643 97.9392 188.175 98.1372 188.644C98.3425 189.113 98.6175 189.513 98.9622 189.843C99.3069 190.166 99.7029 190.411 100.15 190.58C100.598 190.749 101.06 190.833 101.536 190.833C102.028 190.833 102.493 190.749 102.933 190.58C103.381 190.404 103.777 190.155 104.121 189.832C104.466 189.502 104.737 189.102 104.935 188.633C105.133 188.164 105.232 187.636 105.232 187.049V177.16H107.916V187.115C107.916 188.369 107.645 189.462 107.102 190.393C106.567 191.324 105.819 192.047 104.858 192.56C103.905 193.073 102.798 193.33 101.536 193.33ZM110.99 193V177.16H117.535C117.689 177.16 117.887 177.167 118.129 177.182C118.371 177.189 118.595 177.211 118.8 177.248C119.717 177.387 120.472 177.692 121.066 178.161C121.668 178.63 122.111 179.224 122.397 179.943C122.691 180.654 122.837 181.446 122.837 182.319C122.837 183.184 122.691 183.976 122.397 184.695C122.104 185.406 121.657 185.997 121.055 186.466C120.461 186.935 119.71 187.24 118.8 187.379C118.595 187.408 118.368 187.43 118.118 187.445C117.876 187.46 117.682 187.467 117.535 187.467H113.641V193H110.99ZM113.641 184.992H117.425C117.572 184.992 117.737 184.985 117.92 184.97C118.104 184.955 118.272 184.926 118.426 184.882C118.866 184.772 119.211 184.578 119.46 184.299C119.717 184.02 119.897 183.705 119.999 183.353C120.109 183.001 120.164 182.656 120.164 182.319C120.164 181.982 120.109 181.637 119.999 181.285C119.897 180.926 119.717 180.607 119.46 180.328C119.211 180.049 118.866 179.855 118.426 179.745C118.272 179.701 118.104 179.675 117.92 179.668C117.737 179.653 117.572 179.646 117.425 179.646H113.641V184.992ZM133.251 193V179.646H128.125V177.16H141.028V179.646H135.902V193H133.251ZM149.486 193.33C147.902 193.33 146.545 192.985 145.416 192.296C144.287 191.599 143.418 190.631 142.809 189.392C142.208 188.153 141.907 186.715 141.907 185.08C141.907 183.445 142.208 182.007 142.809 180.768C143.418 179.529 144.287 178.564 145.416 177.875C146.545 177.178 147.902 176.83 149.486 176.83C151.07 176.83 152.427 177.178 153.556 177.875C154.693 178.564 155.562 179.529 156.163 180.768C156.772 182.007 157.076 183.445 157.076 185.08C157.076 186.715 156.772 188.153 156.163 189.392C155.562 190.631 154.693 191.599 153.556 192.296C152.427 192.985 151.07 193.33 149.486 193.33ZM149.486 190.833C150.549 190.84 151.433 190.606 152.137 190.129C152.848 189.652 153.38 188.981 153.732 188.116C154.091 187.251 154.271 186.239 154.271 185.08C154.271 183.921 154.091 182.917 153.732 182.066C153.38 181.208 152.848 180.541 152.137 180.064C151.433 179.587 150.549 179.342 149.486 179.327C148.423 179.32 147.539 179.554 146.835 180.031C146.131 180.508 145.599 181.179 145.24 182.044C144.888 182.909 144.712 183.921 144.712 185.08C144.712 186.239 144.888 187.247 145.24 188.105C145.592 188.956 146.12 189.619 146.824 190.096C147.535 190.573 148.423 190.818 149.486 190.833ZM167.014 193L162.383 177.16H165.166L168.323 188.6L171.469 177.182L174.252 177.16L177.409 188.6L180.555 177.16H183.338L178.718 193H176.1L172.855 181.736L169.632 193H167.014ZM185.133 193V177.16H187.784V183.826H195.286V177.16H197.926V193H195.286V186.312H187.784V193H185.133ZM199.91 193L204.904 177.16H208.787L213.781 193H211.053L206.521 178.788H207.115L202.638 193H199.91ZM202.693 189.568V187.093H211.009V189.568H202.693ZM218.265 193V179.646H213.139V177.16H226.042V179.646H220.916V193H218.265ZM230.439 193L235.433 177.16H239.316L244.31 193H241.582L237.05 178.788H237.644L233.167 193H230.439ZM233.222 189.568V187.093H241.538V189.568H233.222ZM252.403 193.33C251.376 193.33 250.412 193.15 249.51 192.791C248.615 192.424 247.827 191.889 247.145 191.185C246.47 190.481 245.942 189.619 245.561 188.6C245.18 187.573 244.989 186.4 244.989 185.08C244.989 183.349 245.312 181.872 245.957 180.647C246.602 179.415 247.486 178.473 248.608 177.82C249.73 177.16 250.995 176.83 252.403 176.83C254.354 176.83 255.897 177.285 257.034 178.194C258.178 179.096 258.952 180.365 259.355 182L256.649 182.429C256.348 181.49 255.857 180.742 255.175 180.185C254.493 179.62 253.624 179.338 252.568 179.338C251.505 179.323 250.621 179.554 249.917 180.031C249.213 180.508 248.681 181.179 248.322 182.044C247.97 182.909 247.794 183.921 247.794 185.08C247.794 186.239 247.97 187.247 248.322 188.105C248.674 188.956 249.202 189.619 249.906 190.096C250.617 190.573 251.505 190.818 252.568 190.833C253.367 190.84 254.068 190.697 254.669 190.404C255.27 190.103 255.762 189.652 256.143 189.051C256.524 188.442 256.781 187.683 256.913 186.774H254.119V184.695H259.729C259.744 184.812 259.755 184.985 259.762 185.212C259.769 185.439 259.773 185.575 259.773 185.619C259.773 187.115 259.476 188.446 258.882 189.612C258.295 190.771 257.452 191.68 256.352 192.34C255.252 193 253.936 193.33 252.403 193.33ZM261.982 193V177.16H272.212V179.646H264.633V183.551H270.892V186.037H264.633V190.514H272.212V193H261.982ZM279.256 193V177.16H284.305C284.437 177.16 284.697 177.164 285.086 177.171C285.482 177.178 285.863 177.204 286.23 177.248C287.484 177.409 288.543 177.857 289.409 178.59C290.281 179.316 290.941 180.244 291.389 181.373C291.836 182.502 292.06 183.738 292.06 185.08C292.06 186.422 291.836 187.658 291.389 188.787C290.941 189.916 290.281 190.848 289.409 191.581C288.543 192.307 287.484 192.751 286.23 192.912C285.87 192.956 285.493 192.982 285.097 192.989C284.701 192.996 284.437 193 284.305 193H279.256ZM281.951 190.503H284.305C284.525 190.503 284.803 190.496 285.141 190.481C285.485 190.466 285.79 190.433 286.054 190.382C286.802 190.243 287.41 189.909 287.88 189.381C288.349 188.853 288.694 188.211 288.914 187.456C289.141 186.701 289.255 185.909 289.255 185.08C289.255 184.222 289.141 183.415 288.914 182.66C288.686 181.905 288.334 181.27 287.858 180.757C287.388 180.244 286.787 179.917 286.054 179.778C285.79 179.719 285.485 179.686 285.141 179.679C284.803 179.664 284.525 179.657 284.305 179.657H281.951V190.503ZM301.359 193.33C299.775 193.33 298.418 192.985 297.289 192.296C296.16 191.599 295.291 190.631 294.682 189.392C294.081 188.153 293.78 186.715 293.78 185.08C293.78 183.445 294.081 182.007 294.682 180.768C295.291 179.529 296.16 178.564 297.289 177.875C298.418 177.178 299.775 176.83 301.359 176.83C302.943 176.83 304.3 177.178 305.429 177.875C306.566 178.564 307.435 179.529 308.036 180.768C308.645 182.007 308.949 183.445 308.949 185.08C308.949 186.715 308.645 188.153 308.036 189.392C307.435 190.631 306.566 191.599 305.429 192.296C304.3 192.985 302.943 193.33 301.359 193.33ZM301.359 190.833C302.422 190.84 303.306 190.606 304.01 190.129C304.721 189.652 305.253 188.981 305.605 188.116C305.964 187.251 306.144 186.239 306.144 185.08C306.144 183.921 305.964 182.917 305.605 182.066C305.253 181.208 304.721 180.541 304.01 180.064C303.306 179.587 302.422 179.342 301.359 179.327C300.296 179.32 299.412 179.554 298.708 180.031C298.004 180.508 297.472 181.179 297.113 182.044C296.761 182.909 296.585 183.921 296.585 185.08C296.585 186.239 296.761 187.247 297.113 188.105C297.465 188.956 297.993 189.619 298.697 190.096C299.408 190.573 300.296 190.818 301.359 190.833ZM315.543 193V177.16H322.088C322.242 177.16 322.44 177.167 322.682 177.182C322.924 177.189 323.148 177.211 323.353 177.248C324.27 177.387 325.025 177.692 325.619 178.161C326.22 178.63 326.664 179.224 326.95 179.943C327.243 180.654 327.39 181.446 327.39 182.319C327.39 183.184 327.243 183.976 326.95 184.695C326.657 185.406 326.209 185.997 325.608 186.466C325.014 186.935 324.262 187.24 323.353 187.379C323.148 187.408 322.92 187.43 322.671 187.445C322.429 187.46 322.235 187.467 322.088 187.467H318.194V193H315.543ZM318.194 184.992H321.978C322.125 184.992 322.29 184.985 322.473 184.97C322.656 184.955 322.825 184.926 322.979 184.882C323.419 184.772 323.764 184.578 324.013 184.299C324.27 184.02 324.449 183.705 324.552 183.353C324.662 183.001 324.717 182.656 324.717 182.319C324.717 181.982 324.662 181.637 324.552 181.285C324.449 180.926 324.27 180.607 324.013 180.328C323.764 180.049 323.419 179.855 322.979 179.745C322.825 179.701 322.656 179.675 322.473 179.668C322.29 179.653 322.125 179.646 321.978 179.646H318.194V184.992ZM327.398 193L332.392 177.16H336.275L341.269 193H338.541L334.009 178.788H334.603L330.126 193H327.398ZM330.181 189.568V187.093H338.497V189.568H330.181ZM343.258 193V177.16H349.803C349.957 177.16 350.155 177.167 350.397 177.182C350.639 177.189 350.862 177.211 351.068 177.248C351.984 177.387 352.74 177.692 353.334 178.161C353.935 178.63 354.379 179.224 354.665 179.943C354.958 180.654 355.105 181.446 355.105 182.319C355.105 183.61 354.778 184.721 354.126 185.652C353.473 186.576 352.472 187.148 351.123 187.368L349.99 187.467H345.909V193H343.258ZM352.355 193L349.231 186.554L351.926 185.96L355.358 193H352.355ZM345.909 184.992H349.693C349.839 184.992 350.004 184.985 350.188 184.97C350.371 184.955 350.54 184.926 350.694 184.882C351.134 184.772 351.478 184.578 351.728 184.299C351.984 184.02 352.164 183.705 352.267 183.353C352.377 183.001 352.432 182.656 352.432 182.319C352.432 181.982 352.377 181.637 352.267 181.285C352.164 180.926 351.984 180.607 351.728 180.328C351.478 180.049 351.134 179.855 350.694 179.745C350.54 179.701 350.371 179.675 350.188 179.668C350.004 179.653 349.839 179.646 349.693 179.646H345.909V184.992ZM357.781 193V177.16H368.011V179.646H360.432V183.551H366.691V186.037H360.432V190.514H368.011V193H357.781ZM370.65 193V177.16H373.334L380.682 188.325V177.16H383.366V193H380.682L373.334 181.835V193H370.65ZM390.247 193V179.646H385.121V177.16H398.024V179.646H392.898V193H390.247ZM405.646 193.33C404.487 193.33 403.442 193.128 402.511 192.725C401.587 192.322 400.824 191.746 400.223 190.998C399.629 190.243 399.251 189.348 399.09 188.314L401.84 187.896C402.075 188.835 402.555 189.561 403.281 190.074C404.014 190.587 404.858 190.844 405.811 190.844C406.376 190.844 406.907 190.756 407.406 190.58C407.905 190.404 408.308 190.147 408.616 189.81C408.931 189.473 409.089 189.058 409.089 188.567C409.089 188.347 409.052 188.145 408.979 187.962C408.906 187.771 408.796 187.603 408.649 187.456C408.51 187.309 408.326 187.177 408.099 187.06C407.879 186.935 407.622 186.829 407.329 186.741L403.237 185.531C402.885 185.428 402.504 185.293 402.093 185.124C401.69 184.948 401.305 184.71 400.938 184.409C400.579 184.101 400.282 183.712 400.047 183.243C399.82 182.766 399.706 182.18 399.706 181.483C399.706 180.464 399.963 179.609 400.476 178.92C400.997 178.223 401.693 177.703 402.566 177.358C403.446 177.013 404.421 176.845 405.492 176.852C406.577 176.859 407.545 177.046 408.396 177.413C409.247 177.772 409.958 178.297 410.53 178.986C411.102 179.675 411.505 180.508 411.74 181.483L408.891 181.978C408.774 181.421 408.546 180.948 408.209 180.559C407.879 180.163 407.472 179.862 406.988 179.657C406.511 179.452 406.002 179.342 405.459 179.327C404.931 179.32 404.44 179.4 403.985 179.569C403.538 179.73 403.175 179.965 402.896 180.273C402.625 180.581 402.489 180.94 402.489 181.351C402.489 181.74 402.606 182.059 402.841 182.308C403.076 182.55 403.365 182.744 403.71 182.891C404.062 183.03 404.418 183.148 404.777 183.243L407.615 184.035C408.004 184.138 408.44 184.277 408.924 184.453C409.408 184.629 409.874 184.875 410.321 185.19C410.768 185.505 411.135 185.92 411.421 186.433C411.714 186.946 411.861 187.599 411.861 188.391C411.861 189.212 411.689 189.935 411.344 190.558C411.007 191.174 410.548 191.687 409.969 192.098C409.39 192.509 408.726 192.817 407.978 193.022C407.237 193.227 406.46 193.33 405.646 193.33ZM418.646 193V177.16H421.297V183.826H428.799V177.16H431.439V193H428.799V186.312H421.297V193H418.646ZM433.423 193L438.417 177.16H442.3L447.294 193H444.566L440.034 178.788H440.628L436.151 193H433.423ZM436.206 189.568V187.093H444.522V189.568H436.206ZM451.3 193L446.306 177.16H449.034L453.214 190.426L457.449 177.16H460.177L455.183 193H451.3ZM461.83 193V177.16H472.06V179.646H464.481V183.551H470.74V186.037H464.481V190.514H472.06V193H461.83ZM482.909 193V179.646H477.783V177.16H490.686V179.646H485.56V193H482.909ZM499.144 193.33C497.56 193.33 496.204 192.985 495.074 192.296C493.945 191.599 493.076 190.631 492.467 189.392C491.866 188.153 491.565 186.715 491.565 185.08C491.565 183.445 491.866 182.007 492.467 180.768C493.076 179.529 493.945 178.564 495.074 177.875C496.204 177.178 497.56 176.83 499.144 176.83C500.728 176.83 502.085 177.178 503.214 177.875C504.351 178.564 505.22 179.529 505.821 180.768C506.43 182.007 506.734 183.445 506.734 185.08C506.734 186.715 506.43 188.153 505.821 189.392C505.22 190.631 504.351 191.599 503.214 192.296C502.085 192.985 500.728 193.33 499.144 193.33ZM499.144 190.833C500.208 190.84 501.091 190.606 501.795 190.129C502.507 189.652 503.038 188.981 503.39 188.116C503.75 187.251 503.929 186.239 503.929 185.08C503.929 183.921 503.75 182.917 503.39 182.066C503.038 181.208 502.507 180.541 501.795 180.064C501.091 179.587 500.208 179.342 499.144 179.327C498.081 179.32 497.197 179.554 496.493 180.031C495.789 180.508 495.258 181.179 494.898 182.044C494.546 182.909 494.37 183.921 494.37 185.08C494.37 186.239 494.546 187.247 494.898 188.105C495.25 188.956 495.778 189.619 496.482 190.096C497.194 190.573 498.081 190.818 499.144 190.833ZM85.1123 224V208.16H94.6493V210.811H87.7633V214.76H93.3293V217.4H87.7633V224H85.1123ZM96.8479 224V208.16H99.4989V224H96.8479ZM102.794 224V208.16H105.478L112.826 219.325V208.16H115.51V224H112.826L105.478 212.835V224H102.794ZM117.485 224L122.479 208.16H126.362L131.356 224H128.628L124.096 209.788H124.69L120.213 224H117.485ZM120.268 220.568V218.093H128.584V220.568H120.268ZM133.345 224V208.16H136.029L143.377 219.325V208.16H146.061V224H143.377L136.029 212.835V224H133.345ZM155.835 224.33C154.251 224.33 152.894 223.985 151.765 223.296C150.635 222.599 149.766 221.631 149.158 220.392C148.556 219.153 148.256 217.715 148.256 216.08C148.256 214.445 148.556 213.007 149.158 211.768C149.766 210.529 150.635 209.564 151.765 208.875C152.894 208.178 154.251 207.83 155.835 207.83C157.661 207.83 159.182 208.288 160.4 209.205C161.617 210.114 162.471 211.343 162.963 212.89L160.29 213.627C159.982 212.593 159.457 211.786 158.717 211.207C157.976 210.62 157.015 210.327 155.835 210.327C154.771 210.327 153.884 210.565 153.173 211.042C152.469 211.519 151.937 212.19 151.578 213.055C151.226 213.913 151.046 214.921 151.039 216.08C151.039 217.239 151.215 218.251 151.567 219.116C151.926 219.974 152.461 220.641 153.173 221.118C153.884 221.595 154.771 221.833 155.835 221.833C157.015 221.833 157.976 221.54 158.717 220.953C159.457 220.366 159.982 219.56 160.29 218.533L162.963 219.27C162.471 220.817 161.617 222.049 160.4 222.966C159.182 223.875 157.661 224.33 155.835 224.33ZM165.598 224V208.16H168.249V224H165.598ZM170.444 224L175.438 208.16H179.321L184.315 224H181.587L177.055 209.788H177.649L173.172 224H170.444ZM173.227 220.568V218.093H181.543V220.568H173.227ZM186.524 224V208.16H189.175V221.514H196.171V224H186.524ZM198.254 224V208.16H200.905V221.514H207.901V224H198.254ZM211.423 224V217.51L206.033 208.16H209.124L212.765 214.474L216.395 208.16H219.486L214.107 217.51V224H211.423ZM230.409 224.33C229.25 224.33 228.205 224.128 227.274 223.725C226.35 223.322 225.587 222.746 224.986 221.998C224.392 221.243 224.014 220.348 223.853 219.314L226.603 218.896C226.838 219.835 227.318 220.561 228.044 221.074C228.777 221.587 229.621 221.844 230.574 221.844C231.139 221.844 231.67 221.756 232.169 221.58C232.668 221.404 233.071 221.147 233.379 220.81C233.694 220.473 233.852 220.058 233.852 219.567C233.852 219.347 233.815 219.145 233.742 218.962C233.669 218.771 233.559 218.603 233.412 218.456C233.273 218.309 233.089 218.177 232.862 218.06C232.642 217.935 232.385 217.829 232.092 217.741L228 216.531C227.648 216.428 227.267 216.293 226.856 216.124C226.453 215.948 226.068 215.71 225.701 215.409C225.342 215.101 225.045 214.712 224.81 214.243C224.583 213.766 224.469 213.18 224.469 212.483C224.469 211.464 224.726 210.609 225.239 209.92C225.76 209.223 226.456 208.703 227.329 208.358C228.209 208.013 229.184 207.845 230.255 207.852C231.34 207.859 232.308 208.046 233.159 208.413C234.01 208.772 234.721 209.297 235.293 209.986C235.865 210.675 236.268 211.508 236.503 212.483L233.654 212.978C233.537 212.421 233.309 211.948 232.972 211.559C232.642 211.163 232.235 210.862 231.751 210.657C231.274 210.452 230.765 210.342 230.222 210.327C229.694 210.32 229.203 210.4 228.748 210.569C228.301 210.73 227.938 210.965 227.659 211.273C227.388 211.581 227.252 211.94 227.252 212.351C227.252 212.74 227.369 213.059 227.604 213.308C227.839 213.55 228.128 213.744 228.473 213.891C228.825 214.03 229.181 214.148 229.54 214.243L232.378 215.035C232.767 215.138 233.203 215.277 233.687 215.453C234.171 215.629 234.637 215.875 235.084 216.19C235.531 216.505 235.898 216.92 236.184 217.433C236.477 217.946 236.624 218.599 236.624 219.391C236.624 220.212 236.452 220.935 236.107 221.558C235.77 222.174 235.311 222.687 234.732 223.098C234.153 223.509 233.489 223.817 232.741 224.022C232 224.227 231.223 224.33 230.409 224.33ZM245.385 224.33C244.124 224.33 243.013 224.073 242.052 223.56C241.099 223.047 240.351 222.324 239.808 221.393C239.273 220.462 239.005 219.369 239.005 218.115V208.182L241.689 208.16V218.049C241.689 218.643 241.788 219.175 241.986 219.644C242.191 220.113 242.466 220.513 242.811 220.843C243.156 221.166 243.552 221.411 243.999 221.58C244.446 221.749 244.908 221.833 245.385 221.833C245.876 221.833 246.342 221.749 246.782 221.58C247.229 221.404 247.625 221.155 247.97 220.832C248.315 220.502 248.586 220.102 248.784 219.633C248.982 219.164 249.081 218.636 249.081 218.049V208.16H251.765V218.115C251.765 219.369 251.494 220.462 250.951 221.393C250.416 222.324 249.668 223.047 248.707 223.56C247.754 224.073 246.646 224.33 245.385 224.33ZM254.839 224V208.16H261.384C261.538 208.16 261.736 208.167 261.978 208.182C262.22 208.189 262.443 208.211 262.649 208.248C263.565 208.387 264.321 208.692 264.915 209.161C265.516 209.63 265.96 210.224 266.246 210.943C266.539 211.654 266.686 212.446 266.686 213.319C266.686 214.184 266.539 214.976 266.246 215.695C265.952 216.406 265.505 216.997 264.904 217.466C264.31 217.935 263.558 218.24 262.649 218.379C262.443 218.408 262.216 218.43 261.967 218.445C261.725 218.46 261.53 218.467 261.384 218.467H257.49V224H254.839ZM257.49 215.992H261.274C261.42 215.992 261.585 215.985 261.769 215.97C261.952 215.955 262.121 215.926 262.275 215.882C262.715 215.772 263.059 215.578 263.309 215.299C263.565 215.02 263.745 214.705 263.848 214.353C263.958 214.001 264.013 213.656 264.013 213.319C264.013 212.982 263.958 212.637 263.848 212.285C263.745 211.926 263.565 211.607 263.309 211.328C263.059 211.049 262.715 210.855 262.275 210.745C262.121 210.701 261.952 210.675 261.769 210.668C261.585 210.653 261.42 210.646 261.274 210.646H257.49V215.992ZM268.89 224V208.16H275.435C275.589 208.16 275.787 208.167 276.029 208.182C276.271 208.189 276.494 208.211 276.7 208.248C277.616 208.387 278.372 208.692 278.966 209.161C279.567 209.63 280.011 210.224 280.297 210.943C280.59 211.654 280.737 212.446 280.737 213.319C280.737 214.184 280.59 214.976 280.297 215.695C280.003 216.406 279.556 216.997 278.955 217.466C278.361 217.935 277.609 218.24 276.7 218.379C276.494 218.408 276.267 218.43 276.018 218.445C275.776 218.46 275.581 218.467 275.435 218.467H271.541V224H268.89ZM271.541 215.992H275.325C275.471 215.992 275.636 215.985 275.82 215.97C276.003 215.955 276.172 215.926 276.326 215.882C276.766 215.772 277.11 215.578 277.36 215.299C277.616 215.02 277.796 214.705 277.899 214.353C278.009 214.001 278.064 213.656 278.064 213.319C278.064 212.982 278.009 212.637 277.899 212.285C277.796 211.926 277.616 211.607 277.36 211.328C277.11 211.049 276.766 210.855 276.326 210.745C276.172 210.701 276.003 210.675 275.82 210.668C275.636 210.653 275.471 210.646 275.325 210.646H271.541V215.992ZM289.639 224.33C288.055 224.33 286.699 223.985 285.569 223.296C284.44 222.599 283.571 221.631 282.962 220.392C282.361 219.153 282.06 217.715 282.06 216.08C282.06 214.445 282.361 213.007 282.962 211.768C283.571 210.529 284.44 209.564 285.569 208.875C286.699 208.178 288.055 207.83 289.639 207.83C291.223 207.83 292.58 208.178 293.709 208.875C294.846 209.564 295.715 210.529 296.316 211.768C296.925 213.007 297.229 214.445 297.229 216.08C297.229 217.715 296.925 219.153 296.316 220.392C295.715 221.631 294.846 222.599 293.709 223.296C292.58 223.985 291.223 224.33 289.639 224.33ZM289.639 221.833C290.703 221.84 291.586 221.606 292.29 221.129C293.002 220.652 293.533 219.981 293.885 219.116C294.245 218.251 294.424 217.239 294.424 216.08C294.424 214.921 294.245 213.917 293.885 213.066C293.533 212.208 293.002 211.541 292.29 211.064C291.586 210.587 290.703 210.342 289.639 210.327C288.576 210.32 287.692 210.554 286.988 211.031C286.284 211.508 285.753 212.179 285.393 213.044C285.041 213.909 284.865 214.921 284.865 216.08C284.865 217.239 285.041 218.247 285.393 219.105C285.745 219.956 286.273 220.619 286.977 221.096C287.689 221.573 288.576 221.818 289.639 221.833ZM299.419 224V208.16H305.964C306.118 208.16 306.316 208.167 306.558 208.182C306.8 208.189 307.024 208.211 307.229 208.248C308.146 208.387 308.901 208.692 309.495 209.161C310.096 209.63 310.54 210.224 310.826 210.943C311.119 211.654 311.266 212.446 311.266 213.319C311.266 214.61 310.94 215.721 310.287 216.652C309.634 217.576 308.633 218.148 307.284 218.368L306.151 218.467H302.07V224H299.419ZM308.516 224L305.392 217.554L308.087 216.96L311.519 224H308.516ZM302.07 215.992H305.854C306.001 215.992 306.166 215.985 306.349 215.97C306.532 215.955 306.701 215.926 306.855 215.882C307.295 215.772 307.64 215.578 307.889 215.299C308.146 215.02 308.325 214.705 308.428 214.353C308.538 214.001 308.593 213.656 308.593 213.319C308.593 212.982 308.538 212.637 308.428 212.285C308.325 211.926 308.146 211.607 307.889 211.328C307.64 211.049 307.295 210.855 306.855 210.745C306.701 210.701 306.532 210.675 306.349 210.668C306.166 210.653 306.001 210.646 305.854 210.646H302.07V215.992ZM317.748 224V210.646H312.622V208.16H325.525V210.646H320.399V224H317.748ZM334.828 224V210.646H329.702V208.16H342.605V210.646H337.479V224H334.828ZM344.364 224V208.16H347.015V214.826H354.517V208.16H357.157V224H354.517V217.312H347.015V224H344.364ZM360.241 224V208.16H370.471V210.646H362.892V214.551H369.151V217.037H362.892V221.514H370.471V224H360.241ZM373.33 224V208.16H375.981V224H373.33ZM379.276 224V208.16H385.821C385.975 208.16 386.173 208.167 386.415 208.182C386.657 208.189 386.881 208.211 387.086 208.248C388.003 208.387 388.758 208.692 389.352 209.161C389.954 209.63 390.397 210.224 390.683 210.943C390.977 211.654 391.123 212.446 391.123 213.319C391.123 214.61 390.797 215.721 390.144 216.652C389.492 217.576 388.491 218.148 387.141 218.368L386.008 218.467H381.927V224H379.276ZM388.373 224L385.249 217.554L387.944 216.96L391.376 224H388.373ZM381.927 215.992H385.711C385.858 215.992 386.023 215.985 386.206 215.97C386.39 215.955 386.558 215.926 386.712 215.882C387.152 215.772 387.497 215.578 387.746 215.299C388.003 215.02 388.183 214.705 388.285 214.353C388.395 214.001 388.45 213.656 388.45 213.319C388.45 212.982 388.395 212.637 388.285 212.285C388.183 211.926 388.003 211.607 387.746 211.328C387.497 211.049 387.152 210.855 386.712 210.745C386.558 210.701 386.39 210.675 386.206 210.668C386.023 210.653 385.858 210.646 385.711 210.646H381.927V215.992ZM404.903 224.33C403.319 224.33 401.962 223.985 400.833 223.296C399.704 222.599 398.835 221.631 398.226 220.392C397.625 219.153 397.324 217.715 397.324 216.08C397.324 214.445 397.625 213.007 398.226 211.768C398.835 210.529 399.704 209.564 400.833 208.875C401.962 208.178 403.319 207.83 404.903 207.83C406.729 207.83 408.251 208.288 409.468 209.205C410.685 210.114 411.54 211.343 412.031 212.89L409.358 213.627C409.05 212.593 408.526 211.786 407.785 211.207C407.044 210.62 406.084 210.327 404.903 210.327C403.84 210.327 402.952 210.565 402.241 211.042C401.537 211.519 401.005 212.19 400.646 213.055C400.294 213.913 400.114 214.921 400.107 216.08C400.107 217.239 400.283 218.251 400.635 219.116C400.994 219.974 401.53 220.641 402.241 221.118C402.952 221.595 403.84 221.833 404.903 221.833C406.084 221.833 407.044 221.54 407.785 220.953C408.526 220.366 409.05 219.56 409.358 218.533L412.031 219.27C411.54 220.817 410.685 222.049 409.468 222.966C408.251 223.875 406.729 224.33 404.903 224.33ZM414.446 224V208.16H417.097V214.826H424.599V208.16H427.239V224H424.599V217.312H417.097V224H414.446ZM430.543 224V208.16H433.194V224H430.543ZM436.709 224V208.16H439.36V221.514H446.356V224H436.709ZM448.22 224V208.16H453.269C453.401 208.16 453.661 208.164 454.05 208.171C454.446 208.178 454.827 208.204 455.194 208.248C456.448 208.409 457.507 208.857 458.373 209.59C459.245 210.316 459.905 211.244 460.353 212.373C460.8 213.502 461.024 214.738 461.024 216.08C461.024 217.422 460.8 218.658 460.353 219.787C459.905 220.916 459.245 221.848 458.373 222.581C457.507 223.307 456.448 223.751 455.194 223.912C454.834 223.956 454.457 223.982 454.061 223.989C453.665 223.996 453.401 224 453.269 224H448.22ZM450.915 221.503H453.269C453.489 221.503 453.767 221.496 454.105 221.481C454.449 221.466 454.754 221.433 455.018 221.382C455.766 221.243 456.374 220.909 456.844 220.381C457.313 219.853 457.658 219.211 457.878 218.456C458.105 217.701 458.219 216.909 458.219 216.08C458.219 215.222 458.105 214.415 457.878 213.66C457.65 212.905 457.298 212.27 456.822 211.757C456.352 211.244 455.751 210.917 455.018 210.778C454.754 210.719 454.449 210.686 454.105 210.679C453.767 210.664 453.489 210.657 453.269 210.657H450.915V221.503ZM463.624 224V208.16H470.169C470.323 208.16 470.521 208.167 470.763 208.182C471.005 208.189 471.229 208.211 471.434 208.248C472.351 208.387 473.106 208.692 473.7 209.161C474.301 209.63 474.745 210.224 475.031 210.943C475.324 211.654 475.471 212.446 475.471 213.319C475.471 214.61 475.145 215.721 474.492 216.652C473.839 217.576 472.838 218.148 471.489 218.368L470.356 218.467H466.275V224H463.624ZM472.721 224L469.597 217.554L472.292 216.96L475.724 224H472.721ZM466.275 215.992H470.059C470.206 215.992 470.371 215.985 470.554 215.97C470.737 215.955 470.906 215.926 471.06 215.882C471.5 215.772 471.845 215.578 472.094 215.299C472.351 215.02 472.53 214.705 472.633 214.353C472.743 214.001 472.798 213.656 472.798 213.319C472.798 212.982 472.743 212.637 472.633 212.285C472.53 211.926 472.351 211.607 472.094 211.328C471.845 211.049 471.5 210.855 471.06 210.745C470.906 210.701 470.737 210.675 470.554 210.668C470.371 210.653 470.206 210.646 470.059 210.646H466.275V215.992ZM478.147 224V208.16H488.377V210.646H480.798V214.551H487.057V217.037H480.798V221.514H488.377V224H478.147ZM491.017 224V208.16H493.701L501.049 219.325V208.16H503.733V224H501.049L493.701 212.835V224H491.017ZM509.679 219.699C509.679 219.193 509.726 218.705 509.822 218.236C509.924 217.759 510.089 217.319 510.317 216.916C510.515 216.527 510.735 216.219 510.977 215.992C511.219 215.757 511.49 215.526 511.791 215.299C512.091 215.064 512.425 214.753 512.792 214.364C513.092 214.034 513.29 213.708 513.386 213.385C513.481 213.055 513.529 212.703 513.529 212.329C513.529 212.087 513.503 211.86 513.452 211.647C513.4 211.434 513.309 211.251 513.177 211.097C512.971 210.826 512.707 210.635 512.385 210.525C512.062 210.408 511.717 210.349 511.351 210.349C511.05 210.349 510.76 210.389 510.482 210.47C510.21 210.543 509.979 210.661 509.789 210.822C509.569 210.998 509.407 211.214 509.305 211.471C509.202 211.728 509.154 212.01 509.162 212.318H506.368C506.441 211.585 506.639 210.906 506.962 210.283C507.292 209.652 507.724 209.15 508.26 208.776C508.678 208.468 509.147 208.237 509.668 208.083C510.196 207.929 510.724 207.852 511.252 207.852C512.058 207.852 512.817 207.977 513.529 208.226C514.247 208.475 514.845 208.886 515.322 209.458C515.652 209.832 515.901 210.265 516.07 210.756C516.246 211.247 516.334 211.746 516.334 212.252C516.334 213.007 516.169 213.697 515.839 214.32C515.516 214.943 515.105 215.519 514.607 216.047C514.372 216.296 514.148 216.516 513.936 216.707C513.723 216.898 513.525 217.085 513.342 217.268C513.166 217.444 513.019 217.631 512.902 217.829C512.696 218.174 512.575 218.467 512.539 218.709C512.502 218.944 512.484 219.274 512.484 219.699H509.679ZM509.701 224V221.085H512.484V224H509.701Z" fill="white"></path> <rect x="20" y="20" width="79" height="40" rx="20" fill="white" fill-opacity="0.3"></rect> <path d="M33.2372 46V34.48H34.5332L38.8852 43.656L43.2132 34.48H44.5252V45.992H43.1732V37.608L39.2612 46H38.5012L34.5892 37.608V46H33.2372ZM51.5044 46.24C50.3578 46.24 49.3844 45.9867 48.5844 45.48C47.7844 44.9733 47.1738 44.2693 46.7524 43.368C46.3364 42.4667 46.1284 41.424 46.1284 40.24C46.1284 39.056 46.3364 38.0133 46.7524 37.112C47.1738 36.2107 47.7844 35.5067 48.5844 35C49.3844 34.4933 50.3578 34.24 51.5044 34.24C52.6564 34.24 53.6324 34.4933 54.4324 35C55.2324 35.5067 55.8404 36.2107 56.2564 37.112C56.6724 38.0133 56.8804 39.056 56.8804 40.24C56.8804 41.424 56.6724 42.4667 56.2564 43.368C55.8404 44.2693 55.2324 44.9733 54.4324 45.48C53.6324 45.9867 52.6564 46.24 51.5044 46.24ZM51.5044 44.88C52.3631 44.8853 53.0778 44.6933 53.6484 44.304C54.2244 43.9093 54.6538 43.3627 54.9364 42.664C55.2244 41.9653 55.3684 41.1573 55.3684 40.24C55.3684 39.3173 55.2244 38.5093 54.9364 37.816C54.6538 37.1227 54.2244 36.5813 53.6484 36.192C53.0778 35.8027 52.3631 35.6053 51.5044 35.6C50.6458 35.5947 49.9311 35.7867 49.3604 36.176C48.7951 36.5653 48.3684 37.1093 48.0804 37.808C47.7924 38.5067 47.6458 39.3173 47.6404 40.24C47.6351 41.1573 47.7764 41.9627 48.0644 42.656C48.3524 43.3493 48.7818 43.8933 49.3524 44.288C49.9284 44.6773 50.6458 44.8747 51.5044 44.88ZM58.4872 46V34.48H59.9272L65.9352 43.48V34.48H67.3752V46H65.9352L59.9272 36.992V46H58.4872ZM69.6122 46V34.48H76.8922V35.832H71.0362V39.44H75.9322V40.792H71.0362V44.648H76.8922V46H69.6122ZM81.5753 46V41.208L77.6953 34.48H79.3513L82.2953 39.576L85.2313 34.48H86.8873L83.0153 41.208V46H81.5753Z" fill="white"></path> <defs> <linearGradient id="paint0_linear_120_238" x1="300" y1="0" x2="300" y2="400" gradientUnits="userSpaceOnUse"> <stop stop-color="#303FC5"></stop> <stop offset="1" stop-color="#25598A"></stop> </linearGradient> </defs> </svg> 