<?xml version="1.0" encoding="UTF-8"?> <svg xmlns="http://www.w3.org/2000/svg" width="600" height="400" viewBox="0 0 600 400" fill="none"> <rect width="600" height="400" rx="20" fill="url(#paint0_linear_120_241)"></rect> <path d="M148.542 193L143.911 177.16H146.694L149.851 188.6L152.997 177.182L155.78 177.16L158.937 188.6L162.083 177.16H164.866L160.246 193H157.628L154.383 181.736L151.16 193H148.542ZM166.661 193V177.16H169.312V183.826H176.814V177.16H179.454V193H176.814V186.312H169.312V193H166.661ZM181.438 193L186.432 177.16H190.315L195.309 193H192.581L188.049 178.788H188.643L184.166 193H181.438ZM184.221 189.568V187.093H192.537V189.568H184.221ZM199.793 193V179.646H194.667V177.16H207.57V179.646H202.444V193H199.793ZM213.067 193V177.16H215.454L220.932 188.38L226.41 177.16H228.797V193H226.322V182.847L221.46 193H220.404L215.553 182.847V193H213.067ZM238.587 193.33C237.003 193.33 235.646 192.985 234.517 192.296C233.387 191.599 232.518 190.631 231.91 189.392C231.308 188.153 231.008 186.715 231.008 185.08C231.008 183.445 231.308 182.007 231.91 180.768C232.518 179.529 233.387 178.564 234.517 177.875C235.646 177.178 237.003 176.83 238.587 176.83C240.171 176.83 241.527 177.178 242.657 177.875C243.793 178.564 244.662 179.529 245.264 180.768C245.872 182.007 246.177 183.445 246.177 185.08C246.177 186.715 245.872 188.153 245.264 189.392C244.662 190.631 243.793 191.599 242.657 192.296C241.527 192.985 240.171 193.33 238.587 193.33ZM238.587 190.833C239.65 190.84 240.534 190.606 241.238 190.129C241.949 189.652 242.481 188.981 242.833 188.116C243.192 187.251 243.372 186.239 243.372 185.08C243.372 183.921 243.192 182.917 242.833 182.066C242.481 181.208 241.949 180.541 241.238 180.064C240.534 179.587 239.65 179.342 238.587 179.327C237.523 179.32 236.64 179.554 235.936 180.031C235.232 180.508 234.7 181.179 234.341 182.044C233.989 182.909 233.813 183.921 233.813 185.08C233.813 186.239 233.989 187.247 234.341 188.105C234.693 188.956 235.221 189.619 235.925 190.096C236.636 190.573 237.523 190.818 238.587 190.833ZM251.742 193V179.646H246.616V177.16H259.519V179.646H254.393V193H251.742ZM261.498 193V177.16H264.149V193H261.498ZM271.008 193L266.014 177.16H268.742L272.922 190.426L277.157 177.16H279.885L274.891 193H271.008ZM278.891 193L283.885 177.16H287.768L292.762 193H290.034L285.502 178.788H286.096L281.619 193H278.891ZM281.674 189.568V187.093H289.99V189.568H281.674ZM297.246 193V179.646H292.12V177.16H305.023V179.646H299.897V193H297.246ZM306.782 193V177.16H317.012V179.646H309.433V183.551H315.692V186.037H309.433V190.514H317.012V193H306.782ZM325.364 193.33C324.205 193.33 323.16 193.128 322.229 192.725C321.305 192.322 320.542 191.746 319.941 190.998C319.347 190.243 318.969 189.348 318.808 188.314L321.558 187.896C321.793 188.835 322.273 189.561 322.999 190.074C323.732 190.587 324.576 190.844 325.529 190.844C326.094 190.844 326.625 190.756 327.124 190.58C327.623 190.404 328.026 190.147 328.334 189.81C328.649 189.473 328.807 189.058 328.807 188.567C328.807 188.347 328.77 188.145 328.697 187.962C328.624 187.771 328.514 187.603 328.367 187.456C328.228 187.309 328.044 187.177 327.817 187.06C327.597 186.935 327.34 186.829 327.047 186.741L322.955 185.531C322.603 185.428 322.222 185.293 321.811 185.124C321.408 184.948 321.023 184.71 320.656 184.409C320.297 184.101 320 183.712 319.765 183.243C319.538 182.766 319.424 182.18 319.424 181.483C319.424 180.464 319.681 179.609 320.194 178.92C320.715 178.223 321.411 177.703 322.284 177.358C323.164 177.013 324.139 176.845 325.21 176.852C326.295 176.859 327.263 177.046 328.114 177.413C328.965 177.772 329.676 178.297 330.248 178.986C330.82 179.675 331.223 180.508 331.458 181.483L328.609 181.978C328.492 181.421 328.264 180.948 327.927 180.559C327.597 180.163 327.19 179.862 326.706 179.657C326.229 179.452 325.72 179.342 325.177 179.327C324.649 179.32 324.158 179.4 323.703 179.569C323.256 179.73 322.893 179.965 322.614 180.273C322.343 180.581 322.207 180.94 322.207 181.351C322.207 181.74 322.324 182.059 322.559 182.308C322.794 182.55 323.083 182.744 323.428 182.891C323.78 183.03 324.136 183.148 324.495 183.243L327.333 184.035C327.722 184.138 328.158 184.277 328.642 184.453C329.126 184.629 329.592 184.875 330.039 185.19C330.486 185.505 330.853 185.92 331.139 186.433C331.432 186.946 331.579 187.599 331.579 188.391C331.579 189.212 331.407 189.935 331.062 190.558C330.725 191.174 330.266 191.687 329.687 192.098C329.108 192.509 328.444 192.817 327.696 193.022C326.955 193.227 326.178 193.33 325.364 193.33ZM342.214 193V186.51L336.824 177.16H339.915L343.556 183.474L347.186 177.16H350.277L344.898 186.51V193H342.214ZM357.632 193.33C356.048 193.33 354.691 192.985 353.562 192.296C352.432 191.599 351.563 190.631 350.955 189.392C350.353 188.153 350.053 186.715 350.053 185.08C350.053 183.445 350.353 182.007 350.955 180.768C351.563 179.529 352.432 178.564 353.562 177.875C354.691 177.178 356.048 176.83 357.632 176.83C359.216 176.83 360.572 177.178 361.702 177.875C362.838 178.564 363.707 179.529 364.309 180.768C364.917 182.007 365.222 183.445 365.222 185.08C365.222 186.715 364.917 188.153 364.309 189.392C363.707 190.631 362.838 191.599 361.702 192.296C360.572 192.985 359.216 193.33 357.632 193.33ZM357.632 190.833C358.695 190.84 359.579 190.606 360.283 190.129C360.994 189.652 361.526 188.981 361.878 188.116C362.237 187.251 362.417 186.239 362.417 185.08C362.417 183.921 362.237 182.917 361.878 182.066C361.526 181.208 360.994 180.541 360.283 180.064C359.579 179.587 358.695 179.342 357.632 179.327C356.568 179.32 355.685 179.554 354.981 180.031C354.277 180.508 353.745 181.179 353.386 182.044C353.034 182.909 352.858 183.921 352.858 185.08C352.858 186.239 353.034 187.247 353.386 188.105C353.738 188.956 354.266 189.619 354.97 190.096C355.681 190.573 356.568 190.818 357.632 190.833ZM373.791 193.33C372.53 193.33 371.419 193.073 370.458 192.56C369.505 192.047 368.757 191.324 368.214 190.393C367.679 189.462 367.411 188.369 367.411 187.115V177.182L370.095 177.16V187.049C370.095 187.643 370.194 188.175 370.392 188.644C370.597 189.113 370.872 189.513 371.217 189.843C371.562 190.166 371.958 190.411 372.405 190.58C372.852 190.749 373.314 190.833 373.791 190.833C374.282 190.833 374.748 190.749 375.188 190.58C375.635 190.404 376.031 190.155 376.376 189.832C376.721 189.502 376.992 189.102 377.19 188.633C377.388 188.164 377.487 187.636 377.487 187.049V177.16H380.171V187.115C380.171 188.369 379.9 189.462 379.357 190.393C378.822 191.324 378.074 192.047 377.113 192.56C376.16 193.073 375.052 193.33 373.791 193.33ZM387.649 193V177.16H390.036L395.514 188.38L400.992 177.16H403.379V193H400.904V182.847L396.042 193H394.986L390.135 182.847V193H387.649ZM413.169 193.33C411.585 193.33 410.228 192.985 409.099 192.296C407.969 191.599 407.1 190.631 406.492 189.392C405.89 188.153 405.59 186.715 405.59 185.08C405.59 183.445 405.89 182.007 406.492 180.768C407.1 179.529 407.969 178.564 409.099 177.875C410.228 177.178 411.585 176.83 413.169 176.83C414.753 176.83 416.109 177.178 417.239 177.875C418.375 178.564 419.244 179.529 419.846 180.768C420.454 182.007 420.759 183.445 420.759 185.08C420.759 186.715 420.454 188.153 419.846 189.392C419.244 190.631 418.375 191.599 417.239 192.296C416.109 192.985 414.753 193.33 413.169 193.33ZM413.169 190.833C414.232 190.84 415.116 190.606 415.82 190.129C416.531 189.652 417.063 188.981 417.415 188.116C417.774 187.251 417.954 186.239 417.954 185.08C417.954 183.921 417.774 182.917 417.415 182.066C417.063 181.208 416.531 180.541 415.82 180.064C415.116 179.587 414.232 179.342 413.169 179.327C412.105 179.32 411.222 179.554 410.518 180.031C409.814 180.508 409.282 181.179 408.923 182.044C408.571 182.909 408.395 183.921 408.395 185.08C408.395 186.239 408.571 187.247 408.923 188.105C409.275 188.956 409.803 189.619 410.507 190.096C411.218 190.573 412.105 190.818 413.169 190.833ZM422.948 193V177.16H429.493C429.647 177.16 429.845 177.167 430.087 177.182C430.329 177.189 430.553 177.211 430.758 177.248C431.675 177.387 432.43 177.692 433.024 178.161C433.626 178.63 434.069 179.224 434.355 179.943C434.649 180.654 434.795 181.446 434.795 182.319C434.795 183.61 434.469 184.721 433.816 185.652C433.164 186.576 432.163 187.148 430.813 187.368L429.68 187.467H425.599V193H422.948ZM432.045 193L428.921 186.554L431.616 185.96L435.048 193H432.045ZM425.599 184.992H429.383C429.53 184.992 429.695 184.985 429.878 184.97C430.062 184.955 430.23 184.926 430.384 184.882C430.824 184.772 431.169 184.578 431.418 184.299C431.675 184.02 431.855 183.705 431.957 183.353C432.067 183.001 432.122 182.656 432.122 182.319C432.122 181.982 432.067 181.637 431.957 181.285C431.855 180.926 431.675 180.607 431.418 180.328C431.169 180.049 430.824 179.855 430.384 179.745C430.23 179.701 430.062 179.675 429.878 179.668C429.695 179.653 429.53 179.646 429.383 179.646H425.599V184.992ZM437.472 193V177.16H447.702V179.646H440.123V183.551H446.382V186.037H440.123V190.514H447.702V193H437.472ZM451.221 190.25V187.533H453.938V190.25H451.221ZM451.243 182.627V179.91H453.96V182.627H451.243ZM185.686 224V208.16H188.073L193.551 219.38L199.029 208.16H201.416V224H198.941V213.847L194.079 224H193.023L188.172 213.847V224H185.686ZM211.205 224.33C209.621 224.33 208.264 223.985 207.135 223.296C206.005 222.599 205.136 221.631 204.528 220.392C203.926 219.153 203.626 217.715 203.626 216.08C203.626 214.445 203.926 213.007 204.528 211.768C205.136 210.529 206.005 209.564 207.135 208.875C208.264 208.178 209.621 207.83 211.205 207.83C212.789 207.83 214.145 208.178 215.275 208.875C216.411 209.564 217.28 210.529 217.882 211.768C218.49 213.007 218.795 214.445 218.795 216.08C218.795 217.715 218.49 219.153 217.882 220.392C217.28 221.631 216.411 222.599 215.275 223.296C214.145 223.985 212.789 224.33 211.205 224.33ZM211.205 221.833C212.268 221.84 213.152 221.606 213.856 221.129C214.567 220.652 215.099 219.981 215.451 219.116C215.81 218.251 215.99 217.239 215.99 216.08C215.99 214.921 215.81 213.917 215.451 213.066C215.099 212.208 214.567 211.541 213.856 211.064C213.152 210.587 212.268 210.342 211.205 210.327C210.141 210.32 209.258 210.554 208.554 211.031C207.85 211.508 207.318 212.179 206.959 213.044C206.607 213.909 206.431 214.921 206.431 216.08C206.431 217.239 206.607 218.247 206.959 219.105C207.311 219.956 207.839 220.619 208.543 221.096C209.254 221.573 210.141 221.818 211.205 221.833ZM220.984 224V208.16H223.668L231.016 219.325V208.16H233.7V224H231.016L223.668 212.835V224H220.984ZM236.775 224V208.16H247.005V210.646H239.426V214.551H245.685V217.037H239.426V221.514H247.005V224H236.775ZM253.494 224V217.51L248.104 208.16H251.195L254.836 214.474L258.466 208.16H261.557L256.178 217.51V224H253.494ZM273.316 224.33C271.732 224.33 270.375 223.985 269.246 223.296C268.117 222.599 267.248 221.631 266.639 220.392C266.038 219.153 265.737 217.715 265.737 216.08C265.737 214.445 266.038 213.007 266.639 211.768C267.248 210.529 268.117 209.564 269.246 208.875C270.375 208.178 271.732 207.83 273.316 207.83C274.9 207.83 276.257 208.178 277.386 208.875C278.523 209.564 279.392 210.529 279.993 211.768C280.602 213.007 280.906 214.445 280.906 216.08C280.906 217.715 280.602 219.153 279.993 220.392C279.392 221.631 278.523 222.599 277.386 223.296C276.257 223.985 274.9 224.33 273.316 224.33ZM273.316 221.833C274.379 221.84 275.263 221.606 275.967 221.129C276.678 220.652 277.21 219.981 277.562 219.116C277.921 218.251 278.101 217.239 278.101 216.08C278.101 214.921 277.921 213.917 277.562 213.066C277.21 212.208 276.678 211.541 275.967 211.064C275.263 210.587 274.379 210.342 273.316 210.327C272.253 210.32 271.369 210.554 270.665 211.031C269.961 211.508 269.429 212.179 269.07 213.044C268.718 213.909 268.542 214.921 268.542 216.08C268.542 217.239 268.718 218.247 269.07 219.105C269.422 219.956 269.95 220.619 270.654 221.096C271.365 221.573 272.253 221.818 273.316 221.833ZM283.096 224V208.16H289.641C289.795 208.16 289.993 208.167 290.235 208.182C290.477 208.189 290.7 208.211 290.906 208.248C291.822 208.387 292.578 208.692 293.172 209.161C293.773 209.63 294.217 210.224 294.503 210.943C294.796 211.654 294.943 212.446 294.943 213.319C294.943 214.61 294.616 215.721 293.964 216.652C293.311 217.576 292.31 218.148 290.961 218.368L289.828 218.467H285.747V224H283.096ZM292.193 224L289.069 217.554L291.764 216.96L295.196 224H292.193ZM285.747 215.992H289.531C289.677 215.992 289.842 215.985 290.026 215.97C290.209 215.955 290.378 215.926 290.532 215.882C290.972 215.772 291.316 215.578 291.566 215.299C291.822 215.02 292.002 214.705 292.105 214.353C292.215 214.001 292.27 213.656 292.27 213.319C292.27 212.982 292.215 212.637 292.105 212.285C292.002 211.926 291.822 211.607 291.566 211.328C291.316 211.049 290.972 210.855 290.532 210.745C290.378 210.701 290.209 210.675 290.026 210.668C289.842 210.653 289.677 210.646 289.531 210.646H285.747V215.992ZM302.243 224V208.16H304.894V224H302.243ZM308.189 224V208.16H310.873L318.221 219.325V208.16H320.905V224H318.221L310.873 212.835V224H308.189ZM327.786 224V210.646H322.66V208.16H335.563V210.646H330.437V224H327.786ZM337.322 224V208.16H347.552V210.646H339.973V214.551H346.232V217.037H339.973V221.514H347.552V224H337.322ZM350.191 224V208.16H356.736C356.89 208.16 357.088 208.167 357.33 208.182C357.572 208.189 357.796 208.211 358.001 208.248C358.918 208.387 359.673 208.692 360.267 209.161C360.869 209.63 361.312 210.224 361.598 210.943C361.892 211.654 362.038 212.446 362.038 213.319C362.038 214.61 361.712 215.721 361.059 216.652C360.407 217.576 359.406 218.148 358.056 218.368L356.923 218.467H352.842V224H350.191ZM359.288 224L356.164 217.554L358.859 216.96L362.291 224H359.288ZM352.842 215.992H356.626C356.773 215.992 356.938 215.985 357.121 215.97C357.305 215.955 357.473 215.926 357.627 215.882C358.067 215.772 358.412 215.578 358.661 215.299C358.918 215.02 359.098 214.705 359.2 214.353C359.31 214.001 359.365 213.656 359.365 213.319C359.365 212.982 359.31 212.637 359.2 212.285C359.098 211.926 358.918 211.607 358.661 211.328C358.412 211.049 358.067 210.855 357.627 210.745C357.473 210.701 357.305 210.675 357.121 210.668C356.938 210.653 356.773 210.646 356.626 210.646H352.842V215.992ZM364.715 224V208.16H374.945V210.646H367.366V214.551H373.625V217.037H367.366V221.514H374.945V224H364.715ZM383.297 224.33C382.138 224.33 381.093 224.128 380.162 223.725C379.238 223.322 378.475 222.746 377.874 221.998C377.28 221.243 376.902 220.348 376.741 219.314L379.491 218.896C379.725 219.835 380.206 220.561 380.932 221.074C381.665 221.587 382.508 221.844 383.462 221.844C384.026 221.844 384.558 221.756 385.057 221.58C385.555 221.404 385.959 221.147 386.267 220.81C386.582 220.473 386.74 220.058 386.74 219.567C386.74 219.347 386.703 219.145 386.63 218.962C386.556 218.771 386.446 218.603 386.3 218.456C386.16 218.309 385.977 218.177 385.75 218.06C385.53 217.935 385.273 217.829 384.98 217.741L380.888 216.531C380.536 216.428 380.154 216.293 379.744 216.124C379.34 215.948 378.955 215.71 378.589 215.409C378.229 215.101 377.932 214.712 377.698 214.243C377.47 213.766 377.357 213.18 377.357 212.483C377.357 211.464 377.613 210.609 378.127 209.92C378.647 209.223 379.344 208.703 380.217 208.358C381.097 208.013 382.072 207.845 383.143 207.852C384.228 207.859 385.196 208.046 386.047 208.413C386.897 208.772 387.609 209.297 388.181 209.986C388.753 210.675 389.156 211.508 389.391 212.483L386.542 212.978C386.424 212.421 386.197 211.948 385.86 211.559C385.53 211.163 385.123 210.862 384.639 210.657C384.162 210.452 383.652 210.342 383.11 210.327C382.582 210.32 382.09 210.4 381.636 210.569C381.188 210.73 380.825 210.965 380.547 211.273C380.275 211.581 380.14 211.94 380.14 212.351C380.14 212.74 380.257 213.059 380.492 213.308C380.726 213.55 381.016 213.744 381.361 213.891C381.713 214.03 382.068 214.148 382.428 214.243L385.266 215.035C385.654 215.138 386.091 215.277 386.575 215.453C387.059 215.629 387.524 215.875 387.972 216.19C388.419 216.505 388.786 216.92 389.072 217.433C389.365 217.946 389.512 218.599 389.512 219.391C389.512 220.212 389.339 220.935 388.995 221.558C388.657 222.174 388.199 222.687 387.62 223.098C387.04 223.509 386.377 223.817 385.629 224.022C384.888 224.227 384.111 224.33 383.297 224.33ZM395.699 224V210.646H390.573V208.16H403.476V210.646H398.35V224H395.699ZM408.105 219.699C408.105 219.193 408.153 218.705 408.248 218.236C408.351 217.759 408.516 217.319 408.743 216.916C408.941 216.527 409.161 216.219 409.403 215.992C409.645 215.757 409.917 215.526 410.217 215.299C410.518 215.064 410.852 214.753 411.218 214.364C411.519 214.034 411.717 213.708 411.812 213.385C411.908 213.055 411.955 212.703 411.955 212.329C411.955 212.087 411.93 211.86 411.878 211.647C411.827 211.434 411.735 211.251 411.603 211.097C411.398 210.826 411.134 210.635 410.811 210.525C410.489 210.408 410.144 210.349 409.777 210.349C409.477 210.349 409.187 210.389 408.908 210.47C408.637 210.543 408.406 210.661 408.215 210.822C407.995 210.998 407.834 211.214 407.731 211.471C407.629 211.728 407.581 212.01 407.588 212.318H404.794C404.868 211.585 405.066 210.906 405.388 210.283C405.718 209.652 406.151 209.15 406.686 208.776C407.104 208.468 407.574 208.237 408.094 208.083C408.622 207.929 409.15 207.852 409.678 207.852C410.485 207.852 411.244 207.977 411.955 208.226C412.674 208.475 413.272 208.886 413.748 209.458C414.078 209.832 414.328 210.265 414.496 210.756C414.672 211.247 414.76 211.746 414.76 212.252C414.76 213.007 414.595 213.697 414.265 214.32C413.943 214.943 413.532 215.519 413.033 216.047C412.799 216.296 412.575 216.516 412.362 216.707C412.15 216.898 411.952 217.085 411.768 217.268C411.592 217.444 411.446 217.631 411.328 217.829C411.123 218.174 411.002 218.467 410.965 218.709C410.929 218.944 410.91 219.274 410.91 219.699H408.105ZM408.127 224V221.085H410.91V224H408.127Z" fill="white"></path> <rect x="20" y="20" width="79" height="40" rx="20" fill="white" fill-opacity="0.3"></rect> <path d="M33.2372 46V34.48H34.5332L38.8852 43.656L43.2132 34.48H44.5252V45.992H43.1732V37.608L39.2612 46H38.5012L34.5892 37.608V46H33.2372ZM51.5044 46.24C50.3578 46.24 49.3844 45.9867 48.5844 45.48C47.7844 44.9733 47.1738 44.2693 46.7524 43.368C46.3364 42.4667 46.1284 41.424 46.1284 40.24C46.1284 39.056 46.3364 38.0133 46.7524 37.112C47.1738 36.2107 47.7844 35.5067 48.5844 35C49.3844 34.4933 50.3578 34.24 51.5044 34.24C52.6564 34.24 53.6324 34.4933 54.4324 35C55.2324 35.5067 55.8404 36.2107 56.2564 37.112C56.6724 38.0133 56.8804 39.056 56.8804 40.24C56.8804 41.424 56.6724 42.4667 56.2564 43.368C55.8404 44.2693 55.2324 44.9733 54.4324 45.48C53.6324 45.9867 52.6564 46.24 51.5044 46.24ZM51.5044 44.88C52.3631 44.8853 53.0778 44.6933 53.6484 44.304C54.2244 43.9093 54.6538 43.3627 54.9364 42.664C55.2244 41.9653 55.3684 41.1573 55.3684 40.24C55.3684 39.3173 55.2244 38.5093 54.9364 37.816C54.6538 37.1227 54.2244 36.5813 53.6484 36.192C53.0778 35.8027 52.3631 35.6053 51.5044 35.6C50.6458 35.5947 49.9311 35.7867 49.3604 36.176C48.7951 36.5653 48.3684 37.1093 48.0804 37.808C47.7924 38.5067 47.6458 39.3173 47.6404 40.24C47.6351 41.1573 47.7764 41.9627 48.0644 42.656C48.3524 43.3493 48.7818 43.8933 49.3524 44.288C49.9284 44.6773 50.6458 44.8747 51.5044 44.88ZM58.4872 46V34.48H59.9272L65.9352 43.48V34.48H67.3752V46H65.9352L59.9272 36.992V46H58.4872ZM69.6122 46V34.48H76.8922V35.832H71.0362V39.44H75.9322V40.792H71.0362V44.648H76.8922V46H69.6122ZM81.5753 46V41.208L77.6953 34.48H79.3513L82.2953 39.576L85.2313 34.48H86.8873L83.0153 41.208V46H81.5753Z" fill="white"></path> <defs> <linearGradient id="paint0_linear_120_241" x1="300" y1="0" x2="300" y2="400" gradientUnits="userSpaceOnUse"> <stop stop-color="#303FC5"></stop> <stop offset="1" stop-color="#25598A"></stop> </linearGradient> </defs> </svg> 