<?xml version="1.0" encoding="UTF-8"?> <svg xmlns="http://www.w3.org/2000/svg" width="600" height="400" viewBox="0 0 600 400" fill="none"> <rect width="600" height="400" rx="20" fill="url(#paint0_linear_120_256)"></rect> <path d="M74.5686 162V146.16H77.2196V162H74.5686ZM80.5146 162V146.16H90.0516V148.811H83.1656V152.76H88.7316V155.4H83.1656V162H80.5146ZM100.285 162V155.51L94.8945 146.16H97.9855L101.627 152.474L105.257 146.16H108.348L102.969 155.51V162H100.285ZM115.702 162.33C114.118 162.33 112.761 161.985 111.632 161.296C110.503 160.599 109.634 159.631 109.025 158.392C108.424 157.153 108.123 155.715 108.123 154.08C108.123 152.445 108.424 151.007 109.025 149.768C109.634 148.529 110.503 147.564 111.632 146.875C112.761 146.178 114.118 145.83 115.702 145.83C117.286 145.83 118.643 146.178 119.772 146.875C120.909 147.564 121.778 148.529 122.379 149.768C122.988 151.007 123.292 152.445 123.292 154.08C123.292 155.715 122.988 157.153 122.379 158.392C121.778 159.631 120.909 160.599 119.772 161.296C118.643 161.985 117.286 162.33 115.702 162.33ZM115.702 159.833C116.765 159.84 117.649 159.606 118.353 159.129C119.064 158.652 119.596 157.981 119.948 157.116C120.307 156.251 120.487 155.239 120.487 154.08C120.487 152.921 120.307 151.917 119.948 151.066C119.596 150.208 119.064 149.541 118.353 149.064C117.649 148.587 116.765 148.342 115.702 148.327C114.639 148.32 113.755 148.554 113.051 149.031C112.347 149.508 111.815 150.179 111.456 151.044C111.104 151.909 110.928 152.921 110.928 154.08C110.928 155.239 111.104 156.247 111.456 157.105C111.808 157.956 112.336 158.619 113.04 159.096C113.751 159.573 114.639 159.818 115.702 159.833ZM131.861 162.33C130.6 162.33 129.489 162.073 128.528 161.56C127.575 161.047 126.827 160.324 126.284 159.393C125.749 158.462 125.481 157.369 125.481 156.115V146.182L128.165 146.16V156.049C128.165 156.643 128.264 157.175 128.462 157.644C128.668 158.113 128.943 158.513 129.287 158.843C129.632 159.166 130.028 159.411 130.475 159.58C130.923 159.749 131.385 159.833 131.861 159.833C132.353 159.833 132.818 159.749 133.258 159.58C133.706 159.404 134.102 159.155 134.446 158.832C134.791 158.502 135.062 158.102 135.26 157.633C135.458 157.164 135.557 156.636 135.557 156.049V146.16H138.241V156.115C138.241 157.369 137.97 158.462 137.427 159.393C136.892 160.324 136.144 161.047 135.183 161.56C134.23 162.073 133.123 162.33 131.861 162.33ZM149.064 162L144.433 146.16H147.216L150.373 157.6L153.519 146.182L156.302 146.16L159.459 157.6L162.605 146.16H165.388L160.768 162H158.15L154.905 150.736L151.682 162H149.064ZM164.536 162L169.53 146.16H173.413L178.407 162H175.679L171.147 147.788H171.741L167.264 162H164.536ZM167.319 158.568V156.093H175.635V158.568H167.319ZM180.395 162V146.16H183.079L190.427 157.325V146.16H193.111V162H190.427L183.079 150.835V162H180.395ZM196.186 162V146.16H198.87L206.218 157.325V146.16H208.902V162H206.218L198.87 150.835V162H196.186ZM210.878 162L215.872 146.16H219.755L224.749 162H222.021L217.489 147.788H218.083L213.606 162H210.878ZM213.661 158.568V156.093H221.977V158.568H213.661ZM231.142 162V146.16H237.423C238.493 146.16 239.37 146.376 240.052 146.809C240.741 147.234 241.251 147.781 241.581 148.448C241.918 149.115 242.087 149.805 242.087 150.516C242.087 151.389 241.878 152.129 241.46 152.738C241.049 153.347 240.488 153.757 239.777 153.97V153.42C240.774 153.647 241.529 154.12 242.043 154.839C242.563 155.558 242.824 156.375 242.824 157.292C242.824 158.231 242.644 159.052 242.285 159.756C241.925 160.46 241.39 161.01 240.679 161.406C239.975 161.802 239.102 162 238.061 162H231.142ZM233.826 159.503H237.731C238.193 159.503 238.607 159.411 238.974 159.228C239.34 159.037 239.626 158.773 239.832 158.436C240.044 158.091 240.151 157.684 240.151 157.215C240.151 156.79 240.059 156.408 239.876 156.071C239.692 155.734 239.425 155.466 239.073 155.268C238.721 155.063 238.299 154.96 237.808 154.96H233.826V159.503ZM233.826 152.485H237.39C237.771 152.485 238.112 152.412 238.413 152.265C238.713 152.118 238.952 151.902 239.128 151.616C239.304 151.33 239.392 150.978 239.392 150.56C239.392 150.01 239.216 149.552 238.864 149.185C238.512 148.818 238.02 148.635 237.39 148.635H233.826V152.485ZM251.4 162.33C250.139 162.33 249.028 162.073 248.067 161.56C247.114 161.047 246.366 160.324 245.823 159.393C245.288 158.462 245.02 157.369 245.02 156.115V146.182L247.704 146.16V156.049C247.704 156.643 247.803 157.175 248.001 157.644C248.207 158.113 248.482 158.513 248.826 158.843C249.171 159.166 249.567 159.411 250.014 159.58C250.462 159.749 250.924 159.833 251.4 159.833C251.892 159.833 252.357 159.749 252.797 159.58C253.245 159.404 253.641 159.155 253.985 158.832C254.33 158.502 254.601 158.102 254.799 157.633C254.997 157.164 255.096 156.636 255.096 156.049V146.16H257.78V156.115C257.78 157.369 257.509 158.462 256.966 159.393C256.431 160.324 255.683 161.047 254.722 161.56C253.769 162.073 252.662 162.33 251.4 162.33ZM264.704 162V155.51L259.314 146.16H262.405L266.046 152.474L269.676 146.16H272.767L267.388 155.51V162H264.704ZM283.69 162.33C282.531 162.33 281.486 162.128 280.555 161.725C279.631 161.322 278.868 160.746 278.267 159.998C277.673 159.243 277.295 158.348 277.134 157.314L279.884 156.896C280.119 157.835 280.599 158.561 281.325 159.074C282.058 159.587 282.902 159.844 283.855 159.844C284.42 159.844 284.951 159.756 285.45 159.58C285.949 159.404 286.352 159.147 286.66 158.81C286.975 158.473 287.133 158.058 287.133 157.567C287.133 157.347 287.096 157.145 287.023 156.962C286.95 156.771 286.84 156.603 286.693 156.456C286.554 156.309 286.37 156.177 286.143 156.06C285.923 155.935 285.666 155.829 285.373 155.741L281.281 154.531C280.929 154.428 280.548 154.293 280.137 154.124C279.734 153.948 279.349 153.71 278.982 153.409C278.623 153.101 278.326 152.712 278.091 152.243C277.864 151.766 277.75 151.18 277.75 150.483C277.75 149.464 278.007 148.609 278.52 147.92C279.041 147.223 279.737 146.703 280.61 146.358C281.49 146.013 282.465 145.845 283.536 145.852C284.621 145.859 285.589 146.046 286.44 146.413C287.291 146.772 288.002 147.297 288.574 147.986C289.146 148.675 289.549 149.508 289.784 150.483L286.935 150.978C286.818 150.421 286.59 149.948 286.253 149.559C285.923 149.163 285.516 148.862 285.032 148.657C284.555 148.452 284.046 148.342 283.503 148.327C282.975 148.32 282.484 148.4 282.029 148.569C281.582 148.73 281.219 148.965 280.94 149.273C280.669 149.581 280.533 149.94 280.533 150.351C280.533 150.74 280.65 151.059 280.885 151.308C281.12 151.55 281.409 151.744 281.754 151.891C282.106 152.03 282.462 152.148 282.821 152.243L285.659 153.035C286.048 153.138 286.484 153.277 286.968 153.453C287.452 153.629 287.918 153.875 288.365 154.19C288.812 154.505 289.179 154.92 289.465 155.433C289.758 155.946 289.905 156.599 289.905 157.391C289.905 158.212 289.733 158.935 289.388 159.558C289.051 160.174 288.592 160.687 288.013 161.098C287.434 161.509 286.77 161.817 286.022 162.022C285.281 162.227 284.504 162.33 283.69 162.33ZM298.985 162.33C297.401 162.33 296.044 161.985 294.915 161.296C293.786 160.599 292.917 159.631 292.308 158.392C291.707 157.153 291.406 155.715 291.406 154.08C291.406 152.445 291.707 151.007 292.308 149.768C292.917 148.529 293.786 147.564 294.915 146.875C296.044 146.178 297.401 145.83 298.985 145.83C300.569 145.83 301.926 146.178 303.055 146.875C304.192 147.564 305.061 148.529 305.662 149.768C306.271 151.007 306.575 152.445 306.575 154.08C306.575 155.715 306.271 157.153 305.662 158.392C305.061 159.631 304.192 160.599 303.055 161.296C301.926 161.985 300.569 162.33 298.985 162.33ZM298.985 159.833C300.048 159.84 300.932 159.606 301.636 159.129C302.347 158.652 302.879 157.981 303.231 157.116C303.59 156.251 303.77 155.239 303.77 154.08C303.77 152.921 303.59 151.917 303.231 151.066C302.879 150.208 302.347 149.541 301.636 149.064C300.932 148.587 300.048 148.342 298.985 148.327C297.922 148.32 297.038 148.554 296.334 149.031C295.63 149.508 295.098 150.179 294.739 151.044C294.387 151.909 294.211 152.921 294.211 154.08C294.211 155.239 294.387 156.247 294.739 157.105C295.091 157.956 295.619 158.619 296.323 159.096C297.034 159.573 297.922 159.818 298.985 159.833ZM308.765 162V146.16H311.152L316.63 157.38L322.108 146.16H324.495V162H322.02V151.847L317.158 162H316.102L311.251 151.847V162H308.765ZM327.585 162V146.16H337.815V148.646H330.236V152.551H336.495V155.037H330.236V159.514H337.815V162H327.585ZM344.26 162V148.646H339.134V146.16H352.037V148.646H346.911V162H344.26ZM353.796 162V146.16H356.447V152.826H363.949V146.16H366.589V162H363.949V155.312H356.447V162H353.796ZM369.893 162V146.16H372.544V162H369.893ZM375.839 162V146.16H378.523L385.871 157.325V146.16H388.555V162H385.871L378.523 150.835V162H375.839ZM398.164 162.33C397.137 162.33 396.173 162.15 395.271 161.791C394.376 161.424 393.588 160.889 392.906 160.185C392.231 159.481 391.703 158.619 391.322 157.6C390.941 156.573 390.75 155.4 390.75 154.08C390.75 152.349 391.073 150.872 391.718 149.647C392.363 148.415 393.247 147.473 394.369 146.82C395.491 146.16 396.756 145.83 398.164 145.83C400.115 145.83 401.658 146.285 402.795 147.194C403.939 148.096 404.713 149.365 405.116 151L402.41 151.429C402.109 150.49 401.618 149.742 400.936 149.185C400.254 148.62 399.385 148.338 398.329 148.338C397.266 148.323 396.382 148.554 395.678 149.031C394.974 149.508 394.442 150.179 394.083 151.044C393.731 151.909 393.555 152.921 393.555 154.08C393.555 155.239 393.731 156.247 394.083 157.105C394.435 157.956 394.963 158.619 395.667 159.096C396.378 159.573 397.266 159.818 398.329 159.833C399.128 159.84 399.829 159.697 400.43 159.404C401.031 159.103 401.523 158.652 401.904 158.051C402.285 157.442 402.542 156.683 402.674 155.774H399.88V153.695H405.49C405.505 153.812 405.516 153.985 405.523 154.212C405.53 154.439 405.534 154.575 405.534 154.619C405.534 156.115 405.237 157.446 404.643 158.612C404.056 159.771 403.213 160.68 402.113 161.34C401.013 162 399.697 162.33 398.164 162.33ZM412.147 162V146.16H422.377V148.646H414.798V152.551H421.057V155.037H414.798V159.514H422.377V162H412.147ZM423.697 162L429.065 153.992L423.851 146.16H427.096L430.704 151.737L434.279 146.16H437.546L432.332 153.992L437.678 162H434.433L430.704 156.247L426.964 162H423.697ZM439.433 162V146.16H445.978C446.132 146.16 446.33 146.167 446.572 146.182C446.814 146.189 447.037 146.211 447.243 146.248C448.159 146.387 448.915 146.692 449.509 147.161C450.11 147.63 450.554 148.224 450.84 148.943C451.133 149.654 451.28 150.446 451.28 151.319C451.28 152.184 451.133 152.976 450.84 153.695C450.546 154.406 450.099 154.997 449.498 155.466C448.904 155.935 448.152 156.24 447.243 156.379C447.037 156.408 446.81 156.43 446.561 156.445C446.319 156.46 446.124 156.467 445.978 156.467H442.084V162H439.433ZM442.084 153.992H445.868C446.014 153.992 446.179 153.985 446.363 153.97C446.546 153.955 446.715 153.926 446.869 153.882C447.309 153.772 447.653 153.578 447.903 153.299C448.159 153.02 448.339 152.705 448.442 152.353C448.552 152.001 448.607 151.656 448.607 151.319C448.607 150.982 448.552 150.637 448.442 150.285C448.339 149.926 448.159 149.607 447.903 149.328C447.653 149.049 447.309 148.855 446.869 148.745C446.715 148.701 446.546 148.675 446.363 148.668C446.179 148.653 446.014 148.646 445.868 148.646H442.084V153.992ZM453.483 162V146.16H463.713V148.646H456.134V152.551H462.393V155.037H456.134V159.514H463.713V162H453.483ZM466.353 162V146.16H469.037L476.385 157.325V146.16H479.069V162H476.385L469.037 150.835V162H466.353ZM488.007 162.33C486.848 162.33 485.803 162.128 484.872 161.725C483.948 161.322 483.185 160.746 482.584 159.998C481.99 159.243 481.612 158.348 481.451 157.314L484.201 156.896C484.435 157.835 484.916 158.561 485.642 159.074C486.375 159.587 487.218 159.844 488.172 159.844C488.736 159.844 489.268 159.756 489.767 159.58C490.265 159.404 490.669 159.147 490.977 158.81C491.292 158.473 491.45 158.058 491.45 157.567C491.45 157.347 491.413 157.145 491.34 156.962C491.266 156.771 491.156 156.603 491.01 156.456C490.87 156.309 490.687 156.177 490.46 156.06C490.24 155.935 489.983 155.829 489.69 155.741L485.598 154.531C485.246 154.428 484.864 154.293 484.454 154.124C484.05 153.948 483.665 153.71 483.299 153.409C482.939 153.101 482.642 152.712 482.408 152.243C482.18 151.766 482.067 151.18 482.067 150.483C482.067 149.464 482.323 148.609 482.837 147.92C483.357 147.223 484.054 146.703 484.927 146.358C485.807 146.013 486.782 145.845 487.853 145.852C488.938 145.859 489.906 146.046 490.757 146.413C491.607 146.772 492.319 147.297 492.891 147.986C493.463 148.675 493.866 149.508 494.101 150.483L491.252 150.978C491.134 150.421 490.907 149.948 490.57 149.559C490.24 149.163 489.833 148.862 489.349 148.657C488.872 148.452 488.362 148.342 487.82 148.327C487.292 148.32 486.8 148.4 486.346 148.569C485.898 148.73 485.535 148.965 485.257 149.273C484.985 149.581 484.85 149.94 484.85 150.351C484.85 150.74 484.967 151.059 485.202 151.308C485.436 151.55 485.726 151.744 486.071 151.891C486.423 152.03 486.778 152.148 487.138 152.243L489.976 153.035C490.364 153.138 490.801 153.277 491.285 153.453C491.769 153.629 492.234 153.875 492.682 154.19C493.129 154.505 493.496 154.92 493.782 155.433C494.075 155.946 494.222 156.599 494.222 157.391C494.222 158.212 494.049 158.935 493.705 159.558C493.367 160.174 492.909 160.687 492.33 161.098C491.75 161.509 491.087 161.817 490.339 162.022C489.598 162.227 488.821 162.33 488.007 162.33ZM496.823 162V146.16H499.474V162H496.823ZM506.333 162L501.339 146.16H504.067L508.247 159.426L512.482 146.16H515.21L510.216 162H506.333ZM516.862 162V146.16H527.092V148.646H519.513V152.551H525.772V155.037H519.513V159.514H527.092V162H516.862ZM152.19 193L147.559 177.16H150.342L153.499 188.6L156.645 177.182L159.428 177.16L162.585 188.6L165.731 177.16H168.514L163.894 193H161.276L158.031 181.736L154.808 193H152.19ZM170.309 193V177.16H172.96V183.826H180.462V177.16H183.102V193H180.462V186.312H172.96V193H170.309ZM185.086 193L190.08 177.16H193.963L198.957 193H196.229L191.697 178.788H192.291L187.814 193H185.086ZM187.869 189.568V187.093H196.185V189.568H187.869ZM203.441 193V179.646H198.315V177.16H211.218V179.646H206.092V193H203.441ZM220.059 193L215.428 177.16H218.211L221.368 188.6L224.514 177.182L227.297 177.16L230.454 188.6L233.6 177.16H236.383L231.763 193H229.145L225.9 181.736L222.677 193H220.059ZM244.447 193.33C242.863 193.33 241.506 192.985 240.377 192.296C239.248 191.599 238.379 190.631 237.77 189.392C237.169 188.153 236.868 186.715 236.868 185.08C236.868 183.445 237.169 182.007 237.77 180.768C238.379 179.529 239.248 178.564 240.377 177.875C241.506 177.178 242.863 176.83 244.447 176.83C246.031 176.83 247.388 177.178 248.517 177.875C249.654 178.564 250.523 179.529 251.124 180.768C251.733 182.007 252.037 183.445 252.037 185.08C252.037 186.715 251.733 188.153 251.124 189.392C250.523 190.631 249.654 191.599 248.517 192.296C247.388 192.985 246.031 193.33 244.447 193.33ZM244.447 190.833C245.51 190.84 246.394 190.606 247.098 190.129C247.809 189.652 248.341 188.981 248.693 188.116C249.052 187.251 249.232 186.239 249.232 185.08C249.232 183.921 249.052 182.917 248.693 182.066C248.341 181.208 247.809 180.541 247.098 180.064C246.394 179.587 245.51 179.342 244.447 179.327C243.384 179.32 242.5 179.554 241.796 180.031C241.092 180.508 240.56 181.179 240.201 182.044C239.849 182.909 239.673 183.921 239.673 185.08C239.673 186.239 239.849 187.247 240.201 188.105C240.553 188.956 241.081 189.619 241.785 190.096C242.496 190.573 243.384 190.818 244.447 190.833ZM260.607 193.33C259.345 193.33 258.234 193.073 257.274 192.56C256.32 192.047 255.572 191.324 255.03 190.393C254.494 189.462 254.227 188.369 254.227 187.115V177.182L256.911 177.16V187.049C256.911 187.643 257.01 188.175 257.208 188.644C257.413 189.113 257.688 189.513 258.033 189.843C258.377 190.166 258.773 190.411 259.221 190.58C259.668 190.749 260.13 190.833 260.607 190.833C261.098 190.833 261.564 190.749 262.004 190.58C262.451 190.404 262.847 190.155 263.192 189.832C263.536 189.502 263.808 189.102 264.006 188.633C264.204 188.164 264.303 187.636 264.303 187.049V177.16H266.987V187.115C266.987 188.369 266.715 189.462 266.173 190.393C265.637 191.324 264.889 192.047 263.929 192.56C262.975 193.073 261.868 193.33 260.607 193.33ZM270.281 193V177.16H272.932V190.514H279.928V193H270.281ZM281.791 193V177.16H286.84C286.972 177.16 287.232 177.164 287.621 177.171C288.017 177.178 288.398 177.204 288.765 177.248C290.019 177.409 291.079 177.857 291.944 178.59C292.817 179.316 293.477 180.244 293.924 181.373C294.371 182.502 294.595 183.738 294.595 185.08C294.595 186.422 294.371 187.658 293.924 188.787C293.477 189.916 292.817 190.848 291.944 191.581C291.079 192.307 290.019 192.751 288.765 192.912C288.406 192.956 288.028 192.982 287.632 192.989C287.236 192.996 286.972 193 286.84 193H281.791ZM284.486 190.503H286.84C287.06 190.503 287.339 190.496 287.676 190.481C288.021 190.466 288.325 190.433 288.589 190.382C289.337 190.243 289.946 189.909 290.415 189.381C290.884 188.853 291.229 188.211 291.449 187.456C291.676 186.701 291.79 185.909 291.79 185.08C291.79 184.222 291.676 183.415 291.449 182.66C291.222 181.905 290.87 181.27 290.393 180.757C289.924 180.244 289.322 179.917 288.589 179.778C288.325 179.719 288.021 179.686 287.676 179.679C287.339 179.664 287.06 179.657 286.84 179.657H284.486V190.503ZM305.45 193V186.51L300.06 177.16H303.151L306.792 183.474L310.422 177.16H313.513L308.134 186.51V193H305.45ZM320.867 193.33C319.283 193.33 317.926 192.985 316.797 192.296C315.668 191.599 314.799 190.631 314.19 189.392C313.589 188.153 313.288 186.715 313.288 185.08C313.288 183.445 313.589 182.007 314.19 180.768C314.799 179.529 315.668 178.564 316.797 177.875C317.926 177.178 319.283 176.83 320.867 176.83C322.451 176.83 323.808 177.178 324.937 177.875C326.074 178.564 326.943 179.529 327.544 180.768C328.153 182.007 328.457 183.445 328.457 185.08C328.457 186.715 328.153 188.153 327.544 189.392C326.943 190.631 326.074 191.599 324.937 192.296C323.808 192.985 322.451 193.33 320.867 193.33ZM320.867 190.833C321.93 190.84 322.814 190.606 323.518 190.129C324.229 189.652 324.761 188.981 325.113 188.116C325.472 187.251 325.652 186.239 325.652 185.08C325.652 183.921 325.472 182.917 325.113 182.066C324.761 181.208 324.229 180.541 323.518 180.064C322.814 179.587 321.93 179.342 320.867 179.327C319.804 179.32 318.92 179.554 318.216 180.031C317.512 180.508 316.98 181.179 316.621 182.044C316.269 182.909 316.093 183.921 316.093 185.08C316.093 186.239 316.269 187.247 316.621 188.105C316.973 188.956 317.501 189.619 318.205 190.096C318.916 190.573 319.804 190.818 320.867 190.833ZM337.026 193.33C335.765 193.33 334.654 193.073 333.693 192.56C332.74 192.047 331.992 191.324 331.449 190.393C330.914 189.462 330.646 188.369 330.646 187.115V177.182L333.33 177.16V187.049C333.33 187.643 333.429 188.175 333.627 188.644C333.833 189.113 334.108 189.513 334.452 189.843C334.797 190.166 335.193 190.411 335.64 190.58C336.088 190.749 336.55 190.833 337.026 190.833C337.518 190.833 337.983 190.749 338.423 190.58C338.871 190.404 339.267 190.155 339.611 189.832C339.956 189.502 340.227 189.102 340.425 188.633C340.623 188.164 340.722 187.636 340.722 187.049V177.16H343.406V187.115C343.406 188.369 343.135 189.462 342.592 190.393C342.057 191.324 341.309 192.047 340.348 192.56C339.395 193.073 338.288 193.33 337.026 193.33ZM357.584 193.33C356 193.33 354.643 192.985 353.514 192.296C352.384 191.599 351.515 190.631 350.907 189.392C350.305 188.153 350.005 186.715 350.005 185.08C350.005 183.445 350.305 182.007 350.907 180.768C351.515 179.529 352.384 178.564 353.514 177.875C354.643 177.178 356 176.83 357.584 176.83C359.41 176.83 360.931 177.288 362.149 178.205C363.366 179.114 364.22 180.343 364.712 181.89L362.039 182.627C361.731 181.593 361.206 180.786 360.466 180.207C359.725 179.62 358.764 179.327 357.584 179.327C356.52 179.327 355.633 179.565 354.922 180.042C354.218 180.519 353.686 181.19 353.327 182.055C352.975 182.913 352.795 183.921 352.788 185.08C352.788 186.239 352.964 187.251 353.316 188.116C353.675 188.974 354.21 189.641 354.922 190.118C355.633 190.595 356.52 190.833 357.584 190.833C358.764 190.833 359.725 190.54 360.466 189.953C361.206 189.366 361.731 188.56 362.039 187.533L364.712 188.27C364.22 189.817 363.366 191.049 362.149 191.966C360.931 192.875 359.41 193.33 357.584 193.33ZM367.127 193V177.16H369.778V183.826H377.28V177.16H379.92V193H377.28V186.312H369.778V193H367.127ZM389.703 193.33C388.119 193.33 386.762 192.985 385.633 192.296C384.504 191.599 383.635 190.631 383.026 189.392C382.425 188.153 382.124 186.715 382.124 185.08C382.124 183.445 382.425 182.007 383.026 180.768C383.635 179.529 384.504 178.564 385.633 177.875C386.762 177.178 388.119 176.83 389.703 176.83C391.287 176.83 392.644 177.178 393.773 177.875C394.91 178.564 395.779 179.529 396.38 180.768C396.989 182.007 397.293 183.445 397.293 185.08C397.293 186.715 396.989 188.153 396.38 189.392C395.779 190.631 394.91 191.599 393.773 192.296C392.644 192.985 391.287 193.33 389.703 193.33ZM389.703 190.833C390.766 190.84 391.65 190.606 392.354 190.129C393.065 189.652 393.597 188.981 393.949 188.116C394.308 187.251 394.488 186.239 394.488 185.08C394.488 183.921 394.308 182.917 393.949 182.066C393.597 181.208 393.065 180.541 392.354 180.064C391.65 179.587 390.766 179.342 389.703 179.327C388.64 179.32 387.756 179.554 387.052 180.031C386.348 180.508 385.816 181.179 385.457 182.044C385.105 182.909 384.929 183.921 384.929 185.08C384.929 186.239 385.105 187.247 385.457 188.105C385.809 188.956 386.337 189.619 387.041 190.096C387.752 190.573 388.64 190.818 389.703 190.833ZM406.181 193.33C404.597 193.33 403.241 192.985 402.111 192.296C400.982 191.599 400.113 190.631 399.504 189.392C398.903 188.153 398.602 186.715 398.602 185.08C398.602 183.445 398.903 182.007 399.504 180.768C400.113 179.529 400.982 178.564 402.111 177.875C403.241 177.178 404.597 176.83 406.181 176.83C407.765 176.83 409.122 177.178 410.251 177.875C411.388 178.564 412.257 179.529 412.858 180.768C413.467 182.007 413.771 183.445 413.771 185.08C413.771 186.715 413.467 188.153 412.858 189.392C412.257 190.631 411.388 191.599 410.251 192.296C409.122 192.985 407.765 193.33 406.181 193.33ZM406.181 190.833C407.245 190.84 408.128 190.606 408.832 190.129C409.544 189.652 410.075 188.981 410.427 188.116C410.787 187.251 410.966 186.239 410.966 185.08C410.966 183.921 410.787 182.917 410.427 182.066C410.075 181.208 409.544 180.541 408.832 180.064C408.128 179.587 407.245 179.342 406.181 179.327C405.118 179.32 404.234 179.554 403.53 180.031C402.826 180.508 402.295 181.179 401.935 182.044C401.583 182.909 401.407 183.921 401.407 185.08C401.407 186.239 401.583 187.247 401.935 188.105C402.287 188.956 402.815 189.619 403.519 190.096C404.231 190.573 405.118 190.818 406.181 190.833ZM421.824 193.33C420.665 193.33 419.62 193.128 418.689 192.725C417.765 192.322 417.002 191.746 416.401 190.998C415.807 190.243 415.429 189.348 415.268 188.314L418.018 187.896C418.253 188.835 418.733 189.561 419.459 190.074C420.192 190.587 421.036 190.844 421.989 190.844C422.554 190.844 423.085 190.756 423.584 190.58C424.083 190.404 424.486 190.147 424.794 189.81C425.109 189.473 425.267 189.058 425.267 188.567C425.267 188.347 425.23 188.145 425.157 187.962C425.084 187.771 424.974 187.603 424.827 187.456C424.688 187.309 424.504 187.177 424.277 187.06C424.057 186.935 423.8 186.829 423.507 186.741L419.415 185.531C419.063 185.428 418.682 185.293 418.271 185.124C417.868 184.948 417.483 184.71 417.116 184.409C416.757 184.101 416.46 183.712 416.225 183.243C415.998 182.766 415.884 182.18 415.884 181.483C415.884 180.464 416.141 179.609 416.654 178.92C417.175 178.223 417.871 177.703 418.744 177.358C419.624 177.013 420.599 176.845 421.67 176.852C422.755 176.859 423.723 177.046 424.574 177.413C425.425 177.772 426.136 178.297 426.708 178.986C427.28 179.675 427.683 180.508 427.918 181.483L425.069 181.978C424.952 181.421 424.724 180.948 424.387 180.559C424.057 180.163 423.65 179.862 423.166 179.657C422.689 179.452 422.18 179.342 421.637 179.327C421.109 179.32 420.618 179.4 420.163 179.569C419.716 179.73 419.353 179.965 419.074 180.273C418.803 180.581 418.667 180.94 418.667 181.351C418.667 181.74 418.784 182.059 419.019 182.308C419.254 182.55 419.543 182.744 419.888 182.891C420.24 183.03 420.596 183.148 420.955 183.243L423.793 184.035C424.182 184.138 424.618 184.277 425.102 184.453C425.586 184.629 426.052 184.875 426.499 185.19C426.946 185.505 427.313 185.92 427.599 186.433C427.892 186.946 428.039 187.599 428.039 188.391C428.039 189.212 427.867 189.935 427.522 190.558C427.185 191.174 426.726 191.687 426.147 192.098C425.568 192.509 424.904 192.817 424.156 193.022C423.415 193.227 422.638 193.33 421.824 193.33ZM430.42 193V177.16H440.65V179.646H433.071V183.551H439.33V186.037H433.071V190.514H440.65V193H430.42ZM444.169 190.25V187.533H446.886V190.25H444.169ZM444.191 182.627V179.91H446.908V182.627H444.191ZM106.111 224.33C104.952 224.33 103.907 224.128 102.976 223.725C102.052 223.322 101.289 222.746 100.688 221.998C100.094 221.243 99.7163 220.348 99.555 219.314L102.305 218.896C102.54 219.835 103.02 220.561 103.746 221.074C104.479 221.587 105.323 221.844 106.276 221.844C106.841 221.844 107.372 221.756 107.871 221.58C108.37 221.404 108.773 221.147 109.081 220.81C109.396 220.473 109.554 220.058 109.554 219.567C109.554 219.347 109.517 219.145 109.444 218.962C109.371 218.771 109.261 218.603 109.114 218.456C108.975 218.309 108.791 218.177 108.564 218.06C108.344 217.935 108.087 217.829 107.794 217.741L103.702 216.531C103.35 216.428 102.969 216.293 102.558 216.124C102.155 215.948 101.77 215.71 101.403 215.409C101.044 215.101 100.747 214.712 100.512 214.243C100.285 213.766 100.171 213.18 100.171 212.483C100.171 211.464 100.428 210.609 100.941 209.92C101.462 209.223 102.158 208.703 103.031 208.358C103.911 208.013 104.886 207.845 105.957 207.852C107.042 207.859 108.01 208.046 108.861 208.413C109.712 208.772 110.423 209.297 110.995 209.986C111.567 210.675 111.97 211.508 112.205 212.483L109.356 212.978C109.239 212.421 109.011 211.948 108.674 211.559C108.344 211.163 107.937 210.862 107.453 210.657C106.976 210.452 106.467 210.342 105.924 210.327C105.396 210.32 104.905 210.4 104.45 210.569C104.003 210.73 103.64 210.965 103.361 211.273C103.09 211.581 102.954 211.94 102.954 212.351C102.954 212.74 103.071 213.059 103.306 213.308C103.541 213.55 103.83 213.744 104.175 213.891C104.527 214.03 104.883 214.148 105.242 214.243L108.08 215.035C108.469 215.138 108.905 215.277 109.389 215.453C109.873 215.629 110.339 215.875 110.786 216.19C111.233 216.505 111.6 216.92 111.886 217.433C112.179 217.946 112.326 218.599 112.326 219.391C112.326 220.212 112.154 220.935 111.809 221.558C111.472 222.174 111.013 222.687 110.434 223.098C109.855 223.509 109.191 223.817 108.443 224.022C107.702 224.227 106.925 224.33 106.111 224.33ZM113.607 224L118.601 208.16H122.484L127.478 224H124.75L120.218 209.788H120.812L116.335 224H113.607ZM116.39 220.568V218.093H124.706V220.568H116.39ZM131.484 224L126.49 208.16H129.218L133.398 221.426L137.633 208.16H140.361L135.367 224H131.484ZM142.014 224V208.16H152.244V210.646H144.665V214.551H150.924V217.037H144.665V221.514H152.244V224H142.014ZM165.667 224.33C164.406 224.33 163.295 224.073 162.334 223.56C161.381 223.047 160.633 222.324 160.09 221.393C159.555 220.462 159.287 219.369 159.287 218.115V208.182L161.971 208.16V218.049C161.971 218.643 162.07 219.175 162.268 219.644C162.473 220.113 162.748 220.513 163.093 220.843C163.438 221.166 163.834 221.411 164.281 221.58C164.728 221.749 165.19 221.833 165.667 221.833C166.158 221.833 166.624 221.749 167.064 221.58C167.511 221.404 167.907 221.155 168.252 220.832C168.597 220.502 168.868 220.102 169.066 219.633C169.264 219.164 169.363 218.636 169.363 218.049V208.16H172.047V218.115C172.047 219.369 171.776 220.462 171.233 221.393C170.698 222.324 169.95 223.047 168.989 223.56C168.036 224.073 166.928 224.33 165.667 224.33ZM175.121 224V208.16H181.666C181.82 208.16 182.018 208.167 182.26 208.182C182.502 208.189 182.726 208.211 182.931 208.248C183.848 208.387 184.603 208.692 185.197 209.161C185.798 209.63 186.242 210.224 186.528 210.943C186.821 211.654 186.968 212.446 186.968 213.319C186.968 214.184 186.821 214.976 186.528 215.695C186.235 216.406 185.787 216.997 185.186 217.466C184.592 217.935 183.84 218.24 182.931 218.379C182.726 218.408 182.498 218.43 182.249 218.445C182.007 218.46 181.813 218.467 181.666 218.467H177.772V224H175.121ZM177.772 215.992H181.556C181.703 215.992 181.868 215.985 182.051 215.97C182.234 215.955 182.403 215.926 182.557 215.882C182.997 215.772 183.342 215.578 183.591 215.299C183.848 215.02 184.027 214.705 184.13 214.353C184.24 214.001 184.295 213.656 184.295 213.319C184.295 212.982 184.24 212.637 184.13 212.285C184.027 211.926 183.848 211.607 183.591 211.328C183.342 211.049 182.997 210.855 182.557 210.745C182.403 210.701 182.234 210.675 182.051 210.668C181.868 210.653 181.703 210.646 181.556 210.646H177.772V215.992ZM193.576 224V208.16H203.113V210.811H196.227V214.76H201.793V217.4H196.227V224H193.576ZM211.791 224.33C210.207 224.33 208.85 223.985 207.721 223.296C206.591 222.599 205.722 221.631 205.114 220.392C204.512 219.153 204.212 217.715 204.212 216.08C204.212 214.445 204.512 213.007 205.114 211.768C205.722 210.529 206.591 209.564 207.721 208.875C208.85 208.178 210.207 207.83 211.791 207.83C213.375 207.83 214.731 208.178 215.861 208.875C216.997 209.564 217.866 210.529 218.468 211.768C219.076 213.007 219.381 214.445 219.381 216.08C219.381 217.715 219.076 219.153 218.468 220.392C217.866 221.631 216.997 222.599 215.861 223.296C214.731 223.985 213.375 224.33 211.791 224.33ZM211.791 221.833C212.854 221.84 213.738 221.606 214.442 221.129C215.153 220.652 215.685 219.981 216.037 219.116C216.396 218.251 216.576 217.239 216.576 216.08C216.576 214.921 216.396 213.917 216.037 213.066C215.685 212.208 215.153 211.541 214.442 211.064C213.738 210.587 212.854 210.342 211.791 210.327C210.727 210.32 209.844 210.554 209.14 211.031C208.436 211.508 207.904 212.179 207.545 213.044C207.193 213.909 207.017 214.921 207.017 216.08C207.017 217.239 207.193 218.247 207.545 219.105C207.897 219.956 208.425 220.619 209.129 221.096C209.84 221.573 210.727 221.818 211.791 221.833ZM221.57 224V208.16H228.115C228.269 208.16 228.467 208.167 228.709 208.182C228.951 208.189 229.175 208.211 229.38 208.248C230.297 208.387 231.052 208.692 231.646 209.161C232.248 209.63 232.691 210.224 232.977 210.943C233.271 211.654 233.417 212.446 233.417 213.319C233.417 214.61 233.091 215.721 232.438 216.652C231.786 217.576 230.785 218.148 229.435 218.368L228.302 218.467H224.221V224H221.57ZM230.667 224L227.543 217.554L230.238 216.96L233.67 224H230.667ZM224.221 215.992H228.005C228.152 215.992 228.317 215.985 228.5 215.97C228.684 215.955 228.852 215.926 229.006 215.882C229.446 215.772 229.791 215.578 230.04 215.299C230.297 215.02 230.477 214.705 230.579 214.353C230.689 214.001 230.744 213.656 230.744 213.319C230.744 212.982 230.689 212.637 230.579 212.285C230.477 211.926 230.297 211.607 230.04 211.328C229.791 211.049 229.446 210.855 229.006 210.745C228.852 210.701 228.684 210.675 228.5 210.668C228.317 210.653 228.152 210.646 228.005 210.646H224.221V215.992ZM239.398 224L244.392 208.16H248.275L253.269 224H250.541L246.009 209.788H246.603L242.126 224H239.398ZM242.181 220.568V218.093H250.497V220.568H242.181ZM263.006 224L258.375 208.16H261.158L264.315 219.6L267.461 208.182L270.244 208.16L273.401 219.6L276.547 208.16H279.33L274.71 224H272.092L268.847 212.736L265.624 224H263.006ZM281.125 224V208.16H283.776V214.826H291.278V208.16H293.918V224H291.278V217.312H283.776V224H281.125ZM297.222 224V208.16H299.873V224H297.222ZM303.388 224V208.16H306.039V221.514H313.035V224H303.388ZM314.898 224V208.16H325.128V210.646H317.549V214.551H323.808V217.037H317.549V221.514H325.128V224H314.898ZM338.871 224.33C337.287 224.33 335.93 223.985 334.801 223.296C333.672 222.599 332.803 221.631 332.194 220.392C331.593 219.153 331.292 217.715 331.292 216.08C331.292 214.445 331.593 213.007 332.194 211.768C332.803 210.529 333.672 209.564 334.801 208.875C335.93 208.178 337.287 207.83 338.871 207.83C340.455 207.83 341.812 208.178 342.941 208.875C344.078 209.564 344.947 210.529 345.548 211.768C346.157 213.007 346.461 214.445 346.461 216.08C346.461 217.715 346.157 219.153 345.548 220.392C344.947 221.631 344.078 222.599 342.941 223.296C341.812 223.985 340.455 224.33 338.871 224.33ZM338.871 221.833C339.934 221.84 340.818 221.606 341.522 221.129C342.233 220.652 342.765 219.981 343.117 219.116C343.476 218.251 343.656 217.239 343.656 216.08C343.656 214.921 343.476 213.917 343.117 213.066C342.765 212.208 342.233 211.541 341.522 211.064C340.818 210.587 339.934 210.342 338.871 210.327C337.808 210.32 336.924 210.554 336.22 211.031C335.516 211.508 334.984 212.179 334.625 213.044C334.273 213.909 334.097 214.921 334.097 216.08C334.097 217.239 334.273 218.247 334.625 219.105C334.977 219.956 335.505 220.619 336.209 221.096C336.92 221.573 337.808 221.818 338.871 221.833ZM348.65 224V208.16H355.195C355.349 208.16 355.547 208.167 355.789 208.182C356.031 208.189 356.255 208.211 356.46 208.248C357.377 208.387 358.132 208.692 358.726 209.161C359.328 209.63 359.771 210.224 360.057 210.943C360.351 211.654 360.497 212.446 360.497 213.319C360.497 214.61 360.171 215.721 359.518 216.652C358.866 217.576 357.865 218.148 356.515 218.368L355.382 218.467H351.301V224H348.65ZM357.747 224L354.623 217.554L357.318 216.96L360.75 224H357.747ZM351.301 215.992H355.085C355.232 215.992 355.397 215.985 355.58 215.97C355.764 215.955 355.932 215.926 356.086 215.882C356.526 215.772 356.871 215.578 357.12 215.299C357.377 215.02 357.557 214.705 357.659 214.353C357.769 214.001 357.824 213.656 357.824 213.319C357.824 212.982 357.769 212.637 357.659 212.285C357.557 211.926 357.377 211.607 357.12 211.328C356.871 211.049 356.526 210.855 356.086 210.745C355.932 210.701 355.764 210.675 355.58 210.668C355.397 210.653 355.232 210.646 355.085 210.646H351.301V215.992ZM371.384 224V210.646H366.258V208.16H379.161V210.646H374.035V224H371.384ZM379.39 224L384.384 208.16H388.267L393.261 224H390.533L386.001 209.788H386.595L382.118 224H379.39ZM382.173 220.568V218.093H390.489V220.568H382.173ZM395.25 224V208.16H397.901V215.508L404.226 208.16H407.482L400.673 215.926L407.944 224H404.578L397.901 216.608V224H395.25ZM409.494 224V208.16H419.724V210.646H412.145V214.551H418.404V217.037H412.145V221.514H419.724V224H409.494ZM425.668 224L430.662 208.16H434.545L439.539 224H436.811L432.279 209.788H432.873L428.396 224H425.668ZM428.451 220.568V218.093H436.767V220.568H428.451ZM446.152 224V208.16H448.803V221.514H455.799V224H446.152ZM463.931 224.33C462.347 224.33 460.991 223.985 459.861 223.296C458.732 222.599 457.863 221.631 457.254 220.392C456.653 219.153 456.352 217.715 456.352 216.08C456.352 214.445 456.653 213.007 457.254 211.768C457.863 210.529 458.732 209.564 459.861 208.875C460.991 208.178 462.347 207.83 463.931 207.83C465.515 207.83 466.872 208.178 468.001 208.875C469.138 209.564 470.007 210.529 470.608 211.768C471.217 213.007 471.521 214.445 471.521 216.08C471.521 217.715 471.217 219.153 470.608 220.392C470.007 221.631 469.138 222.599 468.001 223.296C466.872 223.985 465.515 224.33 463.931 224.33ZM463.931 221.833C464.995 221.84 465.878 221.606 466.582 221.129C467.294 220.652 467.825 219.981 468.177 219.116C468.537 218.251 468.716 217.239 468.716 216.08C468.716 214.921 468.537 213.917 468.177 213.066C467.825 212.208 467.294 211.541 466.582 211.064C465.878 210.587 464.995 210.342 463.931 210.327C462.868 210.32 461.984 210.554 461.28 211.031C460.576 211.508 460.045 212.179 459.685 213.044C459.333 213.909 459.157 214.921 459.157 216.08C459.157 217.239 459.333 218.247 459.685 219.105C460.037 219.956 460.565 220.619 461.269 221.096C461.981 221.573 462.868 221.818 463.931 221.833ZM472.181 224L477.175 208.16H481.058L486.052 224H483.324L478.792 209.788H479.386L474.909 224H472.181ZM474.964 220.568V218.093H483.28V220.568H474.964ZM488.041 224V208.16H490.725L498.073 219.325V208.16H500.757V224H498.073L490.725 212.835V224H488.041ZM184.924 255L189.918 239.16H193.801L198.795 255H196.067L191.535 240.788H192.129L187.652 255H184.924ZM187.707 251.568V249.093H196.023V251.568H187.707ZM200.784 255V239.16H203.468L210.816 250.325V239.16H213.5V255H210.816L203.468 243.835V255H200.784ZM216.575 255V239.16H221.624C221.756 239.16 222.016 239.164 222.405 239.171C222.801 239.178 223.182 239.204 223.549 239.248C224.803 239.409 225.863 239.857 226.728 240.59C227.601 241.316 228.261 242.244 228.708 243.373C229.155 244.502 229.379 245.738 229.379 247.08C229.379 248.422 229.155 249.658 228.708 250.787C228.261 251.916 227.601 252.848 226.728 253.581C225.863 254.307 224.803 254.751 223.549 254.912C223.19 254.956 222.812 254.982 222.416 254.989C222.02 254.996 221.756 255 221.624 255H216.575ZM219.27 252.503H221.624C221.844 252.503 222.123 252.496 222.46 252.481C222.805 252.466 223.109 252.433 223.373 252.382C224.121 252.243 224.73 251.909 225.199 251.381C225.668 250.853 226.013 250.211 226.233 249.456C226.46 248.701 226.574 247.909 226.574 247.08C226.574 246.222 226.46 245.415 226.233 244.66C226.006 243.905 225.654 243.27 225.177 242.757C224.708 242.244 224.106 241.917 223.373 241.778C223.109 241.719 222.805 241.686 222.46 241.679C222.123 241.664 221.844 241.657 221.624 241.657H219.27V252.503ZM236.384 255V239.16H242.665C243.735 239.16 244.612 239.376 245.294 239.809C245.983 240.234 246.493 240.781 246.823 241.448C247.16 242.115 247.329 242.805 247.329 243.516C247.329 244.389 247.12 245.129 246.702 245.738C246.291 246.347 245.73 246.757 245.019 246.97V246.42C246.016 246.647 246.771 247.12 247.285 247.839C247.805 248.558 248.066 249.375 248.066 250.292C248.066 251.231 247.886 252.052 247.527 252.756C247.167 253.46 246.632 254.01 245.921 254.406C245.217 254.802 244.344 255 243.303 255H236.384ZM239.068 252.503H242.973C243.435 252.503 243.849 252.411 244.216 252.228C244.582 252.037 244.868 251.773 245.074 251.436C245.286 251.091 245.393 250.684 245.393 250.215C245.393 249.79 245.301 249.408 245.118 249.071C244.934 248.734 244.667 248.466 244.315 248.268C243.963 248.063 243.541 247.96 243.05 247.96H239.068V252.503ZM239.068 245.485H242.632C243.013 245.485 243.354 245.412 243.655 245.265C243.955 245.118 244.194 244.902 244.37 244.616C244.546 244.33 244.634 243.978 244.634 243.56C244.634 243.01 244.458 242.552 244.106 242.185C243.754 241.818 243.262 241.635 242.632 241.635H239.068V245.485ZM256.643 255.33C255.381 255.33 254.27 255.073 253.31 254.56C252.356 254.047 251.608 253.324 251.066 252.393C250.53 251.462 250.263 250.369 250.263 249.115V239.182L252.947 239.16V249.049C252.947 249.643 253.046 250.175 253.244 250.644C253.449 251.113 253.724 251.513 254.069 251.843C254.413 252.166 254.809 252.411 255.257 252.58C255.704 252.749 256.166 252.833 256.643 252.833C257.134 252.833 257.6 252.749 258.04 252.58C258.487 252.404 258.883 252.155 259.228 251.832C259.572 251.502 259.844 251.102 260.042 250.633C260.24 250.164 260.339 249.636 260.339 249.049V239.16H263.023V249.115C263.023 250.369 262.751 251.462 262.209 252.393C261.673 253.324 260.925 254.047 259.965 254.56C259.011 255.073 257.904 255.33 256.643 255.33ZM269.947 255V248.51L264.557 239.16H267.648L271.289 245.474L274.919 239.16H278.01L272.631 248.51V255H269.947ZM283.069 255V239.16H289.614C289.768 239.16 289.966 239.167 290.208 239.182C290.45 239.189 290.674 239.211 290.879 239.248C291.796 239.387 292.551 239.692 293.145 240.161C293.747 240.63 294.19 241.224 294.476 241.943C294.77 242.654 294.916 243.446 294.916 244.319C294.916 245.61 294.59 246.721 293.937 247.652C293.285 248.576 292.284 249.148 290.934 249.368L289.801 249.467H285.72V255H283.069ZM292.166 255L289.042 248.554L291.737 247.96L295.169 255H292.166ZM285.72 246.992H289.504C289.651 246.992 289.816 246.985 289.999 246.97C290.183 246.955 290.351 246.926 290.505 246.882C290.945 246.772 291.29 246.578 291.539 246.299C291.796 246.02 291.976 245.705 292.078 245.353C292.188 245.001 292.243 244.656 292.243 244.319C292.243 243.982 292.188 243.637 292.078 243.285C291.976 242.926 291.796 242.607 291.539 242.328C291.29 242.049 290.945 241.855 290.505 241.745C290.351 241.701 290.183 241.675 289.999 241.668C289.816 241.653 289.651 241.646 289.504 241.646H285.72V246.992ZM297.813 255V239.16H300.464V255H297.813ZM310.293 255.33C309.266 255.33 308.302 255.15 307.4 254.791C306.505 254.424 305.717 253.889 305.035 253.185C304.36 252.481 303.832 251.619 303.451 250.6C303.069 249.573 302.879 248.4 302.879 247.08C302.879 245.349 303.201 243.872 303.847 242.647C304.492 241.415 305.376 240.473 306.498 239.82C307.62 239.16 308.885 238.83 310.293 238.83C312.243 238.83 313.787 239.285 314.924 240.194C316.068 241.096 316.841 242.365 317.245 244L314.539 244.429C314.238 243.49 313.747 242.742 313.065 242.185C312.383 241.62 311.514 241.338 310.458 241.338C309.394 241.323 308.511 241.554 307.807 242.031C307.103 242.508 306.571 243.179 306.212 244.044C305.86 244.909 305.684 245.921 305.684 247.08C305.684 248.239 305.86 249.247 306.212 250.105C306.564 250.956 307.092 251.619 307.796 252.096C308.507 252.573 309.394 252.818 310.458 252.833C311.257 252.84 311.957 252.697 312.559 252.404C313.16 252.103 313.651 251.652 314.033 251.051C314.414 250.442 314.671 249.683 314.803 248.774H312.009V246.695H317.619C317.633 246.812 317.644 246.985 317.652 247.212C317.659 247.439 317.663 247.575 317.663 247.619C317.663 249.115 317.366 250.446 316.772 251.612C316.185 252.771 315.342 253.68 314.242 254.34C313.142 255 311.825 255.33 310.293 255.33ZM319.872 255V239.16H322.523V245.826H330.025V239.16H332.665V255H330.025V248.312H322.523V255H319.872ZM339.555 255V241.646H334.429V239.16H347.332V241.646H342.206V255H339.555ZM352.829 255V239.16H355.513L362.861 250.325V239.16H365.545V255H362.861L355.513 243.835V255H352.829ZM375.319 255.33C373.735 255.33 372.378 254.985 371.249 254.296C370.12 253.599 369.251 252.631 368.642 251.392C368.041 250.153 367.74 248.715 367.74 247.08C367.74 245.445 368.041 244.007 368.642 242.768C369.251 241.529 370.12 240.564 371.249 239.875C372.378 239.178 373.735 238.83 375.319 238.83C376.903 238.83 378.26 239.178 379.389 239.875C380.526 240.564 381.395 241.529 381.996 242.768C382.605 244.007 382.909 245.445 382.909 247.08C382.909 248.715 382.605 250.153 381.996 251.392C381.395 252.631 380.526 253.599 379.389 254.296C378.26 254.985 376.903 255.33 375.319 255.33ZM375.319 252.833C376.382 252.84 377.266 252.606 377.97 252.129C378.681 251.652 379.213 250.981 379.565 250.116C379.924 249.251 380.104 248.239 380.104 247.08C380.104 245.921 379.924 244.917 379.565 244.066C379.213 243.208 378.681 242.541 377.97 242.064C377.266 241.587 376.382 241.342 375.319 241.327C374.256 241.32 373.372 241.554 372.668 242.031C371.964 242.508 371.432 243.179 371.073 244.044C370.721 244.909 370.545 245.921 370.545 247.08C370.545 248.239 370.721 249.247 371.073 250.105C371.425 250.956 371.953 251.619 372.657 252.096C373.368 252.573 374.256 252.818 375.319 252.833ZM387.777 255L383.146 239.16H385.929L389.086 250.6L392.232 239.182L395.015 239.16L398.172 250.6L401.318 239.16H404.101L399.481 255H396.863L393.618 243.736L390.395 255H387.777ZM408.766 250.699C408.766 250.193 408.814 249.705 408.909 249.236C409.012 248.759 409.177 248.319 409.404 247.916C409.602 247.527 409.822 247.219 410.064 246.992C410.306 246.757 410.578 246.526 410.878 246.299C411.179 246.064 411.513 245.753 411.879 245.364C412.18 245.034 412.378 244.708 412.473 244.385C412.569 244.055 412.616 243.703 412.616 243.329C412.616 243.087 412.591 242.86 412.539 242.647C412.488 242.434 412.396 242.251 412.264 242.097C412.059 241.826 411.795 241.635 411.472 241.525C411.15 241.408 410.805 241.349 410.438 241.349C410.138 241.349 409.848 241.389 409.569 241.47C409.298 241.543 409.067 241.661 408.876 241.822C408.656 241.998 408.495 242.214 408.392 242.471C408.29 242.728 408.242 243.01 408.249 243.318H405.455C405.529 242.585 405.727 241.906 406.049 241.283C406.379 240.652 406.812 240.15 407.347 239.776C407.765 239.468 408.235 239.237 408.755 239.083C409.283 238.929 409.811 238.852 410.339 238.852C411.146 238.852 411.905 238.977 412.616 239.226C413.335 239.475 413.933 239.886 414.409 240.458C414.739 240.832 414.989 241.265 415.157 241.756C415.333 242.247 415.421 242.746 415.421 243.252C415.421 244.007 415.256 244.697 414.926 245.32C414.604 245.943 414.193 246.519 413.694 247.047C413.46 247.296 413.236 247.516 413.023 247.707C412.811 247.898 412.613 248.085 412.429 248.268C412.253 248.444 412.107 248.631 411.989 248.829C411.784 249.174 411.663 249.467 411.626 249.709C411.59 249.944 411.571 250.274 411.571 250.699H408.766ZM408.788 255V252.085H411.571V255H408.788Z" fill="white"></path> <rect x="20" y="20" width="79" height="40" rx="20" fill="white" fill-opacity="0.3"></rect> <path d="M33.2372 46V34.48H34.5332L38.8852 43.656L43.2132 34.48H44.5252V45.992H43.1732V37.608L39.2612 46H38.5012L34.5892 37.608V46H33.2372ZM51.5044 46.24C50.3578 46.24 49.3844 45.9867 48.5844 45.48C47.7844 44.9733 47.1738 44.2693 46.7524 43.368C46.3364 42.4667 46.1284 41.424 46.1284 40.24C46.1284 39.056 46.3364 38.0133 46.7524 37.112C47.1738 36.2107 47.7844 35.5067 48.5844 35C49.3844 34.4933 50.3578 34.24 51.5044 34.24C52.6564 34.24 53.6324 34.4933 54.4324 35C55.2324 35.5067 55.8404 36.2107 56.2564 37.112C56.6724 38.0133 56.8804 39.056 56.8804 40.24C56.8804 41.424 56.6724 42.4667 56.2564 43.368C55.8404 44.2693 55.2324 44.9733 54.4324 45.48C53.6324 45.9867 52.6564 46.24 51.5044 46.24ZM51.5044 44.88C52.3631 44.8853 53.0778 44.6933 53.6484 44.304C54.2244 43.9093 54.6538 43.3627 54.9364 42.664C55.2244 41.9653 55.3684 41.1573 55.3684 40.24C55.3684 39.3173 55.2244 38.5093 54.9364 37.816C54.6538 37.1227 54.2244 36.5813 53.6484 36.192C53.0778 35.8027 52.3631 35.6053 51.5044 35.6C50.6458 35.5947 49.9311 35.7867 49.3604 36.176C48.7951 36.5653 48.3684 37.1093 48.0804 37.808C47.7924 38.5067 47.6458 39.3173 47.6404 40.24C47.6351 41.1573 47.7764 41.9627 48.0644 42.656C48.3524 43.3493 48.7818 43.8933 49.3524 44.288C49.9284 44.6773 50.6458 44.8747 51.5044 44.88ZM58.4872 46V34.48H59.9272L65.9352 43.48V34.48H67.3752V46H65.9352L59.9272 36.992V46H58.4872ZM69.6122 46V34.48H76.8922V35.832H71.0362V39.44H75.9322V40.792H71.0362V44.648H76.8922V46H69.6122ZM81.5753 46V41.208L77.6953 34.48H79.3513L82.2953 39.576L85.2313 34.48H86.8873L83.0153 41.208V46H81.5753Z" fill="white"></path> <defs> <linearGradient id="paint0_linear_120_256" x1="300" y1="0" x2="300" y2="400" gradientUnits="userSpaceOnUse"> <stop stop-color="#303FC5"></stop> <stop offset="1" stop-color="#25598A"></stop> </linearGradient> </defs> </svg> 