<?xml version="1.0" encoding="UTF-8"?> <svg xmlns="http://www.w3.org/2000/svg" width="600" height="400" viewBox="0 0 600 400" fill="none"> <rect width="600" height="400" rx="20" fill="url(#paint0_linear_160_91)"></rect> <path d="M66.4582 179V163.16H69.1092V179H66.4582ZM78.2673 179.33C77.1086 179.33 76.0636 179.128 75.1323 178.725C74.2083 178.322 73.4456 177.746 72.8443 176.998C72.2503 176.243 71.8726 175.348 71.7113 174.314L74.4613 173.896C74.6959 174.835 75.1763 175.561 75.9023 176.074C76.6356 176.587 77.4789 176.844 78.4323 176.844C78.9969 176.844 79.5286 176.756 80.0273 176.58C80.5259 176.404 80.9293 176.147 81.2373 175.81C81.5526 175.473 81.7103 175.058 81.7103 174.567C81.7103 174.347 81.6736 174.145 81.6003 173.962C81.5269 173.771 81.4169 173.603 81.2703 173.456C81.1309 173.309 80.9476 173.177 80.7203 173.06C80.5003 172.935 80.2436 172.829 79.9503 172.741L75.8583 171.531C75.5063 171.428 75.1249 171.293 74.7143 171.124C74.3109 170.948 73.9259 170.71 73.5593 170.409C73.1999 170.101 72.9029 169.712 72.6683 169.243C72.4409 168.766 72.3273 168.18 72.3273 167.483C72.3273 166.464 72.5839 165.609 73.0973 164.92C73.6179 164.223 74.3146 163.703 75.1873 163.358C76.0673 163.013 77.0426 162.845 78.1133 162.852C79.1986 162.859 80.1666 163.046 81.0173 163.413C81.8679 163.772 82.5793 164.297 83.1513 164.986C83.7233 165.675 84.1266 166.508 84.3613 167.483L81.5123 167.978C81.3949 167.421 81.1676 166.948 80.8303 166.559C80.5003 166.163 80.0933 165.862 79.6093 165.657C79.1326 165.452 78.6229 165.342 78.0803 165.327C77.5523 165.32 77.0609 165.4 76.6063 165.569C76.1589 165.73 75.7959 165.965 75.5173 166.273C75.2459 166.581 75.1103 166.94 75.1103 167.351C75.1103 167.74 75.2276 168.059 75.4623 168.308C75.6969 168.55 75.9866 168.744 76.3313 168.891C76.6833 169.03 77.0389 169.148 77.3983 169.243L80.2363 170.035C80.6249 170.138 81.0613 170.277 81.5453 170.453C82.0293 170.629 82.4949 170.875 82.9423 171.19C83.3896 171.505 83.7563 171.92 84.0423 172.433C84.3356 172.946 84.4823 173.599 84.4823 174.391C84.4823 175.212 84.3099 175.935 83.9653 176.558C83.6279 177.174 83.1696 177.687 82.5903 178.098C82.0109 178.509 81.3473 178.817 80.5993 179.022C79.8586 179.227 79.0813 179.33 78.2673 179.33ZM91.4875 179V163.16H94.1385V179H91.4875ZM101.24 179V165.646H96.1136V163.16H109.017V165.646H103.891V179H101.24ZM114.514 179V163.16H117.198L124.546 174.325V163.16H127.23V179H124.546L117.198 167.835V179H114.514ZM130.305 179V163.16H140.535V165.646H132.956V169.551H139.215V172.037H132.956V176.514H140.535V179H130.305ZM149.314 179.33C147.73 179.33 146.374 178.985 145.244 178.296C144.115 177.599 143.246 176.631 142.637 175.392C142.036 174.153 141.735 172.715 141.735 171.08C141.735 169.445 142.036 168.007 142.637 166.768C143.246 165.529 144.115 164.564 145.244 163.875C146.374 163.178 147.73 162.83 149.314 162.83C151.14 162.83 152.662 163.288 153.879 164.205C155.097 165.114 155.951 166.343 156.442 167.89L153.769 168.627C153.461 167.593 152.937 166.786 152.196 166.207C151.456 165.62 150.495 165.327 149.314 165.327C148.251 165.327 147.364 165.565 146.652 166.042C145.948 166.519 145.417 167.19 145.057 168.055C144.705 168.913 144.526 169.921 144.518 171.08C144.518 172.239 144.694 173.251 145.046 174.116C145.406 174.974 145.941 175.641 146.652 176.118C147.364 176.595 148.251 176.833 149.314 176.833C150.495 176.833 151.456 176.54 152.196 175.953C152.937 175.366 153.461 174.56 153.769 173.533L156.442 174.27C155.951 175.817 155.097 177.049 153.879 177.966C152.662 178.875 151.14 179.33 149.314 179.33ZM158.857 179V163.16H169.087V165.646H161.508V169.551H167.767V172.037H161.508V176.514H169.087V179H158.857ZM177.439 179.33C176.28 179.33 175.235 179.128 174.304 178.725C173.38 178.322 172.617 177.746 172.016 176.998C171.422 176.243 171.044 175.348 170.883 174.314L173.633 173.896C173.868 174.835 174.348 175.561 175.074 176.074C175.807 176.587 176.651 176.844 177.604 176.844C178.169 176.844 178.7 176.756 179.199 176.58C179.698 176.404 180.101 176.147 180.409 175.81C180.724 175.473 180.882 175.058 180.882 174.567C180.882 174.347 180.845 174.145 180.772 173.962C180.699 173.771 180.589 173.603 180.442 173.456C180.303 173.309 180.119 173.177 179.892 173.06C179.672 172.935 179.415 172.829 179.122 172.741L175.03 171.531C174.678 171.428 174.297 171.293 173.886 171.124C173.483 170.948 173.098 170.71 172.731 170.409C172.372 170.101 172.075 169.712 171.84 169.243C171.613 168.766 171.499 168.18 171.499 167.483C171.499 166.464 171.756 165.609 172.269 164.92C172.79 164.223 173.486 163.703 174.359 163.358C175.239 163.013 176.214 162.845 177.285 162.852C178.37 162.859 179.338 163.046 180.189 163.413C181.04 163.772 181.751 164.297 182.323 164.986C182.895 165.675 183.298 166.508 183.533 167.483L180.684 167.978C180.567 167.421 180.339 166.948 180.002 166.559C179.672 166.163 179.265 165.862 178.781 165.657C178.304 165.452 177.795 165.342 177.252 165.327C176.724 165.32 176.233 165.4 175.778 165.569C175.331 165.73 174.968 165.965 174.689 166.273C174.418 166.581 174.282 166.94 174.282 167.351C174.282 167.74 174.399 168.059 174.634 168.308C174.869 168.55 175.158 168.744 175.503 168.891C175.855 169.03 176.211 169.148 176.57 169.243L179.408 170.035C179.797 170.138 180.233 170.277 180.717 170.453C181.201 170.629 181.667 170.875 182.114 171.19C182.561 171.505 182.928 171.92 183.214 172.433C183.507 172.946 183.654 173.599 183.654 174.391C183.654 175.212 183.482 175.935 183.137 176.558C182.8 177.174 182.341 177.687 181.762 178.098C181.183 178.509 180.519 178.817 179.771 179.022C179.03 179.227 178.253 179.33 177.439 179.33ZM192.22 179.33C191.062 179.33 190.017 179.128 189.085 178.725C188.161 178.322 187.399 177.746 186.797 176.998C186.203 176.243 185.826 175.348 185.664 174.314L188.414 173.896C188.649 174.835 189.129 175.561 189.855 176.074C190.589 176.587 191.432 176.844 192.385 176.844C192.95 176.844 193.482 176.756 193.98 176.58C194.479 176.404 194.882 176.147 195.19 175.81C195.506 175.473 195.663 175.058 195.663 174.567C195.663 174.347 195.627 174.145 195.553 173.962C195.48 173.771 195.37 173.603 195.223 173.456C195.084 173.309 194.901 173.177 194.673 173.06C194.453 172.935 194.197 172.829 193.903 172.741L189.811 171.531C189.459 171.428 189.078 171.293 188.667 171.124C188.264 170.948 187.879 170.71 187.512 170.409C187.153 170.101 186.856 169.712 186.621 169.243C186.394 168.766 186.28 168.18 186.28 167.483C186.28 166.464 186.537 165.609 187.05 164.92C187.571 164.223 188.268 163.703 189.14 163.358C190.02 163.013 190.996 162.845 192.066 162.852C193.152 162.859 194.12 163.046 194.97 163.413C195.821 163.772 196.532 164.297 197.104 164.986C197.676 165.675 198.08 166.508 198.314 167.483L195.465 167.978C195.348 167.421 195.121 166.948 194.783 166.559C194.453 166.163 194.046 165.862 193.562 165.657C193.086 165.452 192.576 165.342 192.033 165.327C191.505 165.32 191.014 165.4 190.559 165.569C190.112 165.73 189.749 165.965 189.47 166.273C189.199 166.581 189.063 166.94 189.063 167.351C189.063 167.74 189.181 168.059 189.415 168.308C189.65 168.55 189.94 168.744 190.284 168.891C190.636 169.03 190.992 169.148 191.351 169.243L194.189 170.035C194.578 170.138 195.014 170.277 195.498 170.453C195.982 170.629 196.448 170.875 196.895 171.19C197.343 171.505 197.709 171.92 197.995 172.433C198.289 172.946 198.435 173.599 198.435 174.391C198.435 175.212 198.263 175.935 197.918 176.558C197.581 177.174 197.123 177.687 196.543 178.098C195.964 178.509 195.3 178.817 194.552 179.022C193.812 179.227 193.034 179.33 192.22 179.33ZM199.716 179L204.71 163.16H208.593L213.587 179H210.859L206.327 164.788H206.921L202.444 179H199.716ZM202.499 175.568V173.093H210.815V175.568H202.499ZM215.576 179V163.16H222.121C222.275 163.16 222.473 163.167 222.715 163.182C222.957 163.189 223.181 163.211 223.386 163.248C224.303 163.387 225.058 163.692 225.652 164.161C226.253 164.63 226.697 165.224 226.983 165.943C227.276 166.654 227.423 167.446 227.423 168.319C227.423 169.61 227.097 170.721 226.444 171.652C225.791 172.576 224.79 173.148 223.441 173.368L222.308 173.467H218.227V179H215.576ZM224.673 179L221.549 172.554L224.244 171.96L227.676 179H224.673ZM218.227 170.992H222.011C222.158 170.992 222.323 170.985 222.506 170.97C222.689 170.955 222.858 170.926 223.012 170.882C223.452 170.772 223.797 170.578 224.046 170.299C224.303 170.02 224.482 169.705 224.585 169.353C224.695 169.001 224.75 168.656 224.75 168.319C224.75 167.982 224.695 167.637 224.585 167.285C224.482 166.926 224.303 166.607 224.046 166.328C223.797 166.049 223.452 165.855 223.012 165.745C222.858 165.701 222.689 165.675 222.506 165.668C222.323 165.653 222.158 165.646 222.011 165.646H218.227V170.992ZM233.649 179V172.51L228.259 163.16H231.35L234.991 169.474L238.621 163.16H241.712L236.333 172.51V179H233.649ZM250.577 179V165.646H245.451V163.16H258.354V165.646H253.228V179H250.577ZM266.812 179.33C265.228 179.33 263.872 178.985 262.742 178.296C261.613 177.599 260.744 176.631 260.135 175.392C259.534 174.153 259.233 172.715 259.233 171.08C259.233 169.445 259.534 168.007 260.135 166.768C260.744 165.529 261.613 164.564 262.742 163.875C263.872 163.178 265.228 162.83 266.812 162.83C268.396 162.83 269.753 163.178 270.882 163.875C272.019 164.564 272.888 165.529 273.489 166.768C274.098 168.007 274.402 169.445 274.402 171.08C274.402 172.715 274.098 174.153 273.489 175.392C272.888 176.631 272.019 177.599 270.882 178.296C269.753 178.985 268.396 179.33 266.812 179.33ZM266.812 176.833C267.876 176.84 268.759 176.606 269.463 176.129C270.175 175.652 270.706 174.981 271.058 174.116C271.418 173.251 271.597 172.239 271.597 171.08C271.597 169.921 271.418 168.917 271.058 168.066C270.706 167.208 270.175 166.541 269.463 166.064C268.759 165.587 267.876 165.342 266.812 165.327C265.749 165.32 264.865 165.554 264.161 166.031C263.457 166.508 262.926 167.179 262.566 168.044C262.214 168.909 262.038 169.921 262.038 171.08C262.038 172.239 262.214 173.247 262.566 174.105C262.918 174.956 263.446 175.619 264.15 176.096C264.862 176.573 265.749 176.818 266.812 176.833ZM280.996 179V163.16H283.647V169.826H291.149V163.16H293.789V179H291.149V172.312H283.647V179H280.996ZM295.773 179L300.767 163.16H304.65L309.644 179H306.916L302.384 164.788H302.978L298.501 179H295.773ZM298.556 175.568V173.093H306.872V175.568H298.556ZM313.65 179L308.656 163.16H311.384L315.564 176.426L319.799 163.16H322.527L317.533 179H313.65ZM324.18 179V163.16H334.41V165.646H326.831V169.551H333.09V172.037H326.831V176.514H334.41V179H324.18ZM340.353 179L345.347 163.16H349.23L354.224 179H351.496L346.964 164.788H347.558L343.081 179H340.353ZM343.136 175.568V173.093H351.452V175.568H343.136ZM367.316 179.33C365.732 179.33 364.375 178.985 363.246 178.296C362.117 177.599 361.248 176.631 360.639 175.392C360.038 174.153 359.737 172.715 359.737 171.08C359.737 169.445 360.038 168.007 360.639 166.768C361.248 165.529 362.117 164.564 363.246 163.875C364.375 163.178 365.732 162.83 367.316 162.83C369.142 162.83 370.664 163.288 371.881 164.205C373.098 165.114 373.953 166.343 374.444 167.89L371.771 168.627C371.463 167.593 370.939 166.786 370.198 166.207C369.457 165.62 368.497 165.327 367.316 165.327C366.253 165.327 365.365 165.565 364.654 166.042C363.95 166.519 363.418 167.19 363.059 168.055C362.707 168.913 362.527 169.921 362.52 171.08C362.52 172.239 362.696 173.251 363.048 174.116C363.407 174.974 363.943 175.641 364.654 176.118C365.365 176.595 366.253 176.833 367.316 176.833C368.497 176.833 369.457 176.54 370.198 175.953C370.939 175.366 371.463 174.56 371.771 173.533L374.444 174.27C373.953 175.817 373.098 177.049 371.881 177.966C370.664 178.875 369.142 179.33 367.316 179.33ZM375.33 179L380.324 163.16H384.207L389.201 179H386.473L381.941 164.788H382.535L378.058 179H375.33ZM378.113 175.568V173.093H386.429V175.568H378.113ZM396.623 179.33C395.464 179.33 394.419 179.128 393.488 178.725C392.564 178.322 391.801 177.746 391.2 176.998C390.606 176.243 390.228 175.348 390.067 174.314L392.817 173.896C393.051 174.835 393.532 175.561 394.258 176.074C394.991 176.587 395.834 176.844 396.788 176.844C397.352 176.844 397.884 176.756 398.383 176.58C398.881 176.404 399.285 176.147 399.593 175.81C399.908 175.473 400.066 175.058 400.066 174.567C400.066 174.347 400.029 174.145 399.956 173.962C399.882 173.771 399.772 173.603 399.626 173.456C399.486 173.309 399.303 173.177 399.076 173.06C398.856 172.935 398.599 172.829 398.306 172.741L394.214 171.531C393.862 171.428 393.48 171.293 393.07 171.124C392.666 170.948 392.281 170.71 391.915 170.409C391.555 170.101 391.258 169.712 391.024 169.243C390.796 168.766 390.683 168.18 390.683 167.483C390.683 166.464 390.939 165.609 391.453 164.92C391.973 164.223 392.67 163.703 393.543 163.358C394.423 163.013 395.398 162.845 396.469 162.852C397.554 162.859 398.522 163.046 399.373 163.413C400.223 163.772 400.935 164.297 401.507 164.986C402.079 165.675 402.482 166.508 402.717 167.483L399.868 167.978C399.75 167.421 399.523 166.948 399.186 166.559C398.856 166.163 398.449 165.862 397.965 165.657C397.488 165.452 396.978 165.342 396.436 165.327C395.908 165.32 395.416 165.4 394.962 165.569C394.514 165.73 394.151 165.965 393.873 166.273C393.601 166.581 393.466 166.94 393.466 167.351C393.466 167.74 393.583 168.059 393.818 168.308C394.052 168.55 394.342 168.744 394.687 168.891C395.039 169.03 395.394 169.148 395.754 169.243L398.592 170.035C398.98 170.138 399.417 170.277 399.901 170.453C400.385 170.629 400.85 170.875 401.298 171.19C401.745 171.505 402.112 171.92 402.398 172.433C402.691 172.946 402.838 173.599 402.838 174.391C402.838 175.212 402.665 175.935 402.321 176.558C401.983 177.174 401.525 177.687 400.946 178.098C400.366 178.509 399.703 178.817 398.955 179.022C398.214 179.227 397.437 179.33 396.623 179.33ZM405.219 179V163.16H407.87V169.826H415.372V163.16H418.012V179H415.372V172.312H407.87V179H405.219ZM432.199 179.33C430.615 179.33 429.258 178.985 428.129 178.296C427 177.599 426.131 176.631 425.522 175.392C424.921 174.153 424.62 172.715 424.62 171.08C424.62 169.445 424.921 168.007 425.522 166.768C426.131 165.529 427 164.564 428.129 163.875C429.258 163.178 430.615 162.83 432.199 162.83C434.025 162.83 435.547 163.288 436.764 164.205C437.981 165.114 438.836 166.343 439.327 167.89L436.654 168.627C436.346 167.593 435.822 166.786 435.081 166.207C434.34 165.62 433.38 165.327 432.199 165.327C431.136 165.327 430.248 165.565 429.537 166.042C428.833 166.519 428.301 167.19 427.942 168.055C427.59 168.913 427.41 169.921 427.403 171.08C427.403 172.239 427.579 173.251 427.931 174.116C428.29 174.974 428.826 175.641 429.537 176.118C430.248 176.595 431.136 176.833 432.199 176.833C433.38 176.833 434.34 176.54 435.081 175.953C435.822 175.366 436.346 174.56 436.654 173.533L439.327 174.27C438.836 175.817 437.981 177.049 436.764 177.966C435.547 178.875 434.025 179.33 432.199 179.33ZM448.122 179.33C446.861 179.33 445.75 179.073 444.789 178.56C443.836 178.047 443.088 177.324 442.545 176.393C442.01 175.462 441.742 174.369 441.742 173.115V163.182L444.426 163.16V173.049C444.426 173.643 444.525 174.175 444.723 174.644C444.928 175.113 445.203 175.513 445.548 175.843C445.893 176.166 446.289 176.411 446.736 176.58C447.183 176.749 447.645 176.833 448.122 176.833C448.613 176.833 449.079 176.749 449.519 176.58C449.966 176.404 450.362 176.155 450.707 175.832C451.052 175.502 451.323 175.102 451.521 174.633C451.719 174.164 451.818 173.636 451.818 173.049V163.16H454.502V173.115C454.502 174.369 454.231 175.462 453.688 176.393C453.153 177.324 452.405 178.047 451.444 178.56C450.491 179.073 449.383 179.33 448.122 179.33ZM462.773 179.33C461.614 179.33 460.569 179.128 459.638 178.725C458.714 178.322 457.951 177.746 457.35 176.998C456.756 176.243 456.378 175.348 456.217 174.314L458.967 173.896C459.202 174.835 459.682 175.561 460.408 176.074C461.141 176.587 461.985 176.844 462.938 176.844C463.503 176.844 464.034 176.756 464.533 176.58C465.032 176.404 465.435 176.147 465.743 175.81C466.058 175.473 466.216 175.058 466.216 174.567C466.216 174.347 466.179 174.145 466.106 173.962C466.033 173.771 465.923 173.603 465.776 173.456C465.637 173.309 465.453 173.177 465.226 173.06C465.006 172.935 464.749 172.829 464.456 172.741L460.364 171.531C460.012 171.428 459.631 171.293 459.22 171.124C458.817 170.948 458.432 170.71 458.065 170.409C457.706 170.101 457.409 169.712 457.174 169.243C456.947 168.766 456.833 168.18 456.833 167.483C456.833 166.464 457.09 165.609 457.603 164.92C458.124 164.223 458.82 163.703 459.693 163.358C460.573 163.013 461.548 162.845 462.619 162.852C463.704 162.859 464.672 163.046 465.523 163.413C466.374 163.772 467.085 164.297 467.657 164.986C468.229 165.675 468.632 166.508 468.867 167.483L466.018 167.978C465.901 167.421 465.673 166.948 465.336 166.559C465.006 166.163 464.599 165.862 464.115 165.657C463.638 165.452 463.129 165.342 462.586 165.327C462.058 165.32 461.567 165.4 461.112 165.569C460.665 165.73 460.302 165.965 460.023 166.273C459.752 166.581 459.616 166.94 459.616 167.351C459.616 167.74 459.733 168.059 459.968 168.308C460.203 168.55 460.492 168.744 460.837 168.891C461.189 169.03 461.545 169.148 461.904 169.243L464.742 170.035C465.131 170.138 465.567 170.277 466.051 170.453C466.535 170.629 467.001 170.875 467.448 171.19C467.895 171.505 468.262 171.92 468.548 172.433C468.841 172.946 468.988 173.599 468.988 174.391C468.988 175.212 468.816 175.935 468.471 176.558C468.134 177.174 467.675 177.687 467.096 178.098C466.517 178.509 465.853 178.817 465.105 179.022C464.364 179.227 463.587 179.33 462.773 179.33ZM471.369 179V163.16H474.02V169.826H481.522V163.16H484.162V179H481.522V172.312H474.02V179H471.369ZM487.466 179V163.16H490.117V179H487.466ZM500.111 179.33C498.527 179.33 497.17 178.985 496.041 178.296C494.912 177.599 494.043 176.631 493.434 175.392C492.833 174.153 492.532 172.715 492.532 171.08C492.532 169.445 492.833 168.007 493.434 166.768C494.043 165.529 494.912 164.564 496.041 163.875C497.17 163.178 498.527 162.83 500.111 162.83C501.695 162.83 503.052 163.178 504.181 163.875C505.318 164.564 506.187 165.529 506.788 166.768C507.397 168.007 507.701 169.445 507.701 171.08C507.701 172.715 507.397 174.153 506.788 175.392C506.187 176.631 505.318 177.599 504.181 178.296C503.052 178.985 501.695 179.33 500.111 179.33ZM500.111 176.833C501.174 176.84 502.058 176.606 502.762 176.129C503.473 175.652 504.005 174.981 504.357 174.116C504.716 173.251 504.896 172.239 504.896 171.08C504.896 169.921 504.716 168.917 504.357 168.066C504.005 167.208 503.473 166.541 502.762 166.064C502.058 165.587 501.174 165.342 500.111 165.327C499.048 165.32 498.164 165.554 497.46 166.031C496.756 166.508 496.224 167.179 495.865 168.044C495.513 168.909 495.337 169.921 495.337 171.08C495.337 172.239 495.513 173.247 495.865 174.105C496.217 174.956 496.745 175.619 497.449 176.096C498.16 176.573 499.048 176.818 500.111 176.833ZM509.891 179V163.16H512.575L519.923 174.325V163.16H522.607V179H519.923L512.575 167.835V179H509.891ZM528.553 174.699C528.553 174.193 528.6 173.705 528.696 173.236C528.798 172.759 528.963 172.319 529.191 171.916C529.389 171.527 529.609 171.219 529.851 170.992C530.093 170.757 530.364 170.526 530.665 170.299C530.965 170.064 531.299 169.753 531.666 169.364C531.966 169.034 532.164 168.708 532.26 168.385C532.355 168.055 532.403 167.703 532.403 167.329C532.403 167.087 532.377 166.86 532.326 166.647C532.274 166.434 532.183 166.251 532.051 166.097C531.845 165.826 531.581 165.635 531.259 165.525C530.936 165.408 530.591 165.349 530.225 165.349C529.924 165.349 529.634 165.389 529.356 165.47C529.084 165.543 528.853 165.661 528.663 165.822C528.443 165.998 528.281 166.214 528.179 166.471C528.076 166.728 528.028 167.01 528.036 167.318H525.242C525.315 166.585 525.513 165.906 525.836 165.283C526.166 164.652 526.598 164.15 527.134 163.776C527.552 163.468 528.021 163.237 528.542 163.083C529.07 162.929 529.598 162.852 530.126 162.852C530.932 162.852 531.691 162.977 532.403 163.226C533.121 163.475 533.719 163.886 534.196 164.458C534.526 164.832 534.775 165.265 534.944 165.756C535.12 166.247 535.208 166.746 535.208 167.252C535.208 168.007 535.043 168.697 534.713 169.32C534.39 169.943 533.979 170.519 533.481 171.047C533.246 171.296 533.022 171.516 532.81 171.707C532.597 171.898 532.399 172.085 532.216 172.268C532.04 172.444 531.893 172.631 531.776 172.829C531.57 173.174 531.449 173.467 531.413 173.709C531.376 173.944 531.358 174.274 531.358 174.699H528.553ZM528.575 179V176.085H531.358V179H528.575ZM82.8723 208V192.16H85.5233V208H82.8723ZM88.8183 208V192.16H98.3553V194.811H91.4693V198.76H97.0353V201.4H91.4693V208H88.8183ZM108.588 208V201.51L103.198 192.16H106.289L109.93 198.474L113.56 192.16H116.651L111.272 201.51V208H108.588ZM118.187 208V192.16H128.417V194.646H120.838V198.551H127.097V201.037H120.838V205.514H128.417V208H118.187ZM136.769 208.33C135.611 208.33 134.566 208.128 133.634 207.725C132.71 207.322 131.948 206.746 131.346 205.998C130.752 205.243 130.375 204.348 130.213 203.314L132.963 202.896C133.198 203.835 133.678 204.561 134.404 205.074C135.138 205.587 135.981 205.844 136.934 205.844C137.499 205.844 138.031 205.756 138.529 205.58C139.028 205.404 139.431 205.147 139.739 204.81C140.055 204.473 140.212 204.058 140.212 203.567C140.212 203.347 140.176 203.145 140.102 202.962C140.029 202.771 139.919 202.603 139.772 202.456C139.633 202.309 139.45 202.177 139.222 202.06C139.002 201.935 138.746 201.829 138.452 201.741L134.36 200.531C134.008 200.428 133.627 200.293 133.216 200.124C132.813 199.948 132.428 199.71 132.061 199.409C131.702 199.101 131.405 198.712 131.17 198.243C130.943 197.766 130.829 197.18 130.829 196.483C130.829 195.464 131.086 194.609 131.599 193.92C132.12 193.223 132.817 192.703 133.689 192.358C134.569 192.013 135.545 191.845 136.615 191.852C137.701 191.859 138.669 192.046 139.519 192.413C140.37 192.772 141.081 193.297 141.653 193.986C142.225 194.675 142.629 195.508 142.863 196.483L140.014 196.978C139.897 196.421 139.67 195.948 139.332 195.559C139.002 195.163 138.595 194.862 138.111 194.657C137.635 194.452 137.125 194.342 136.582 194.327C136.054 194.32 135.563 194.4 135.108 194.569C134.661 194.73 134.298 194.965 134.019 195.273C133.748 195.581 133.612 195.94 133.612 196.351C133.612 196.74 133.73 197.059 133.964 197.308C134.199 197.55 134.489 197.744 134.833 197.891C135.185 198.03 135.541 198.148 135.9 198.243L138.738 199.035C139.127 199.138 139.563 199.277 140.047 199.453C140.531 199.629 140.997 199.875 141.444 200.19C141.892 200.505 142.258 200.92 142.544 201.433C142.838 201.946 142.984 202.599 142.984 203.391C142.984 204.212 142.812 204.935 142.467 205.558C142.13 206.174 141.672 206.687 141.092 207.098C140.513 207.509 139.849 207.817 139.101 208.022C138.361 208.227 137.583 208.33 136.769 208.33ZM144.587 210.805L144.741 209.661C145.078 209.69 145.346 209.632 145.544 209.485C145.742 209.346 145.874 209.144 145.94 208.88C146.013 208.623 146.031 208.33 145.995 208H144.587V205.173H147.304V208.11C147.304 209.071 147.076 209.797 146.622 210.288C146.167 210.779 145.489 210.952 144.587 210.805ZM159.237 208L154.606 192.16H157.389L160.546 203.6L163.692 192.182L166.475 192.16L169.632 203.6L172.778 192.16H175.561L170.941 208H168.323L165.078 196.736L161.855 208H159.237ZM177.355 208V192.16H180.006V198.826H187.508V192.16H190.148V208H187.508V201.312H180.006V208H177.355ZM192.132 208L197.126 192.16H201.009L206.003 208H203.275L198.743 193.788H199.337L194.86 208H192.132ZM194.915 204.568V202.093H203.231V204.568H194.915ZM210.488 208V194.646H205.362V192.16H218.265V194.646H213.139V208H210.488ZM222.662 208L227.656 192.16H231.539L236.533 208H233.805L229.273 193.788H229.867L225.39 208H222.662ZM225.445 204.568V202.093H233.761V204.568H225.445ZM238.521 208V192.16H240.908L246.386 203.38L251.864 192.16H254.251V208H251.776V197.847L246.914 208H245.858L241.007 197.847V208H238.521ZM264.041 208.33C262.457 208.33 261.1 207.985 259.971 207.296C258.841 206.599 257.972 205.631 257.364 204.392C256.762 203.153 256.462 201.715 256.462 200.08C256.462 198.445 256.762 197.007 257.364 195.768C257.972 194.529 258.841 193.564 259.971 192.875C261.1 192.178 262.457 191.83 264.041 191.83C265.625 191.83 266.981 192.178 268.111 192.875C269.247 193.564 270.116 194.529 270.718 195.768C271.326 197.007 271.631 198.445 271.631 200.08C271.631 201.715 271.326 203.153 270.718 204.392C270.116 205.631 269.247 206.599 268.111 207.296C266.981 207.985 265.625 208.33 264.041 208.33ZM264.041 205.833C265.104 205.84 265.988 205.606 266.692 205.129C267.403 204.652 267.935 203.981 268.287 203.116C268.646 202.251 268.826 201.239 268.826 200.08C268.826 198.921 268.646 197.917 268.287 197.066C267.935 196.208 267.403 195.541 266.692 195.064C265.988 194.587 265.104 194.342 264.041 194.327C262.977 194.32 262.094 194.554 261.39 195.031C260.686 195.508 260.154 196.179 259.795 197.044C259.443 197.909 259.267 198.921 259.267 200.08C259.267 201.239 259.443 202.247 259.795 203.105C260.147 203.956 260.675 204.619 261.379 205.096C262.09 205.573 262.977 205.818 264.041 205.833ZM280.2 208.33C278.939 208.33 277.828 208.073 276.867 207.56C275.914 207.047 275.166 206.324 274.623 205.393C274.088 204.462 273.82 203.369 273.82 202.115V192.182L276.504 192.16V202.049C276.504 202.643 276.603 203.175 276.801 203.644C277.007 204.113 277.282 204.513 277.626 204.843C277.971 205.166 278.367 205.411 278.814 205.58C279.262 205.749 279.724 205.833 280.2 205.833C280.692 205.833 281.157 205.749 281.597 205.58C282.045 205.404 282.441 205.155 282.785 204.832C283.13 204.502 283.401 204.102 283.599 203.633C283.797 203.164 283.896 202.636 283.896 202.049V192.16H286.58V202.115C286.58 203.369 286.309 204.462 285.766 205.393C285.231 206.324 284.483 207.047 283.522 207.56C282.569 208.073 281.462 208.33 280.2 208.33ZM289.654 208V192.16H292.338L299.686 203.325V192.16H302.37V208H299.686L292.338 196.835V208H289.654ZM309.251 208V194.646H304.125V192.16H317.028V194.646H311.902V208H309.251ZM329.224 208.33C327.64 208.33 326.284 207.985 325.154 207.296C324.025 206.599 323.156 205.631 322.547 204.392C321.946 203.153 321.645 201.715 321.645 200.08C321.645 198.445 321.946 197.007 322.547 195.768C323.156 194.529 324.025 193.564 325.154 192.875C326.284 192.178 327.64 191.83 329.224 191.83C330.808 191.83 332.165 192.178 333.294 192.875C334.431 193.564 335.3 194.529 335.901 195.768C336.51 197.007 336.814 198.445 336.814 200.08C336.814 201.715 336.51 203.153 335.901 204.392C335.3 205.631 334.431 206.599 333.294 207.296C332.165 207.985 330.808 208.33 329.224 208.33ZM329.224 205.833C330.288 205.84 331.171 205.606 331.875 205.129C332.587 204.652 333.118 203.981 333.47 203.116C333.83 202.251 334.009 201.239 334.009 200.08C334.009 198.921 333.83 197.917 333.47 197.066C333.118 196.208 332.587 195.541 331.875 195.064C331.171 194.587 330.288 194.342 329.224 194.327C328.161 194.32 327.277 194.554 326.573 195.031C325.869 195.508 325.338 196.179 324.978 197.044C324.626 197.909 324.45 198.921 324.45 200.08C324.45 201.239 324.626 202.247 324.978 203.105C325.33 203.956 325.858 204.619 326.562 205.096C327.274 205.573 328.161 205.818 329.224 205.833ZM339.004 208V192.16H348.541V194.811H341.655V198.76H347.221V201.4H341.655V208H339.004ZM354.924 208V192.16H357.311L362.789 203.38L368.267 192.16H370.654V208H368.179V197.847L363.317 208H362.261L357.41 197.847V208H354.924ZM380.443 208.33C378.859 208.33 377.502 207.985 376.373 207.296C375.244 206.599 374.375 205.631 373.766 204.392C373.165 203.153 372.864 201.715 372.864 200.08C372.864 198.445 373.165 197.007 373.766 195.768C374.375 194.529 375.244 193.564 376.373 192.875C377.502 192.178 378.859 191.83 380.443 191.83C382.027 191.83 383.384 192.178 384.513 192.875C385.65 193.564 386.519 194.529 387.12 195.768C387.729 197.007 388.033 198.445 388.033 200.08C388.033 201.715 387.729 203.153 387.12 204.392C386.519 205.631 385.65 206.599 384.513 207.296C383.384 207.985 382.027 208.33 380.443 208.33ZM380.443 205.833C381.506 205.84 382.39 205.606 383.094 205.129C383.805 204.652 384.337 203.981 384.689 203.116C385.048 202.251 385.228 201.239 385.228 200.08C385.228 198.921 385.048 197.917 384.689 197.066C384.337 196.208 383.805 195.541 383.094 195.064C382.39 194.587 381.506 194.342 380.443 194.327C379.38 194.32 378.496 194.554 377.792 195.031C377.088 195.508 376.556 196.179 376.197 197.044C375.845 197.909 375.669 198.921 375.669 200.08C375.669 201.239 375.845 202.247 376.197 203.105C376.549 203.956 377.077 204.619 377.781 205.096C378.492 205.573 379.38 205.818 380.443 205.833ZM390.223 208V192.16H392.907L400.255 203.325V192.16H402.939V208H400.255L392.907 196.835V208H390.223ZM406.014 208V192.16H416.244V194.646H408.665V198.551H414.924V201.037H408.665V205.514H416.244V208H406.014ZM422.733 208V201.51L417.343 192.16H420.434L424.075 198.474L427.705 192.16H430.796L425.417 201.51V208H422.733ZM435.855 208V192.16H440.904C441.036 192.16 441.297 192.164 441.685 192.171C442.081 192.178 442.463 192.204 442.829 192.248C444.083 192.409 445.143 192.857 446.008 193.59C446.881 194.316 447.541 195.244 447.988 196.373C448.436 197.502 448.659 198.738 448.659 200.08C448.659 201.422 448.436 202.658 447.988 203.787C447.541 204.916 446.881 205.848 446.008 206.581C445.143 207.307 444.083 207.751 442.829 207.912C442.47 207.956 442.092 207.982 441.696 207.989C441.3 207.996 441.036 208 440.904 208H435.855ZM438.55 205.503H440.904C441.124 205.503 441.403 205.496 441.74 205.481C442.085 205.466 442.389 205.433 442.653 205.382C443.401 205.243 444.01 204.909 444.479 204.381C444.949 203.853 445.293 203.211 445.513 202.456C445.741 201.701 445.854 200.909 445.854 200.08C445.854 199.222 445.741 198.415 445.513 197.66C445.286 196.905 444.934 196.27 444.457 195.757C443.988 195.244 443.387 194.917 442.653 194.778C442.389 194.719 442.085 194.686 441.74 194.679C441.403 194.664 441.124 194.657 440.904 194.657H438.55V205.503ZM457.959 208.33C456.375 208.33 455.018 207.985 453.889 207.296C452.759 206.599 451.89 205.631 451.282 204.392C450.68 203.153 450.38 201.715 450.38 200.08C450.38 198.445 450.68 197.007 451.282 195.768C451.89 194.529 452.759 193.564 453.889 192.875C455.018 192.178 456.375 191.83 457.959 191.83C459.543 191.83 460.899 192.178 462.029 192.875C463.165 193.564 464.034 194.529 464.636 195.768C465.244 197.007 465.549 198.445 465.549 200.08C465.549 201.715 465.244 203.153 464.636 204.392C464.034 205.631 463.165 206.599 462.029 207.296C460.899 207.985 459.543 208.33 457.959 208.33ZM457.959 205.833C459.022 205.84 459.906 205.606 460.61 205.129C461.321 204.652 461.853 203.981 462.205 203.116C462.564 202.251 462.744 201.239 462.744 200.08C462.744 198.921 462.564 197.917 462.205 197.066C461.853 196.208 461.321 195.541 460.61 195.064C459.906 194.587 459.022 194.342 457.959 194.327C456.895 194.32 456.012 194.554 455.308 195.031C454.604 195.508 454.072 196.179 453.713 197.044C453.361 197.909 453.185 198.921 453.185 200.08C453.185 201.239 453.361 202.247 453.713 203.105C454.065 203.956 454.593 204.619 455.297 205.096C456.008 205.573 456.895 205.818 457.959 205.833ZM475.993 208V201.51L470.603 192.16H473.694L477.335 198.474L480.965 192.16H484.056L478.677 201.51V208H475.993ZM491.41 208.33C489.826 208.33 488.469 207.985 487.34 207.296C486.211 206.599 485.342 205.631 484.733 204.392C484.132 203.153 483.831 201.715 483.831 200.08C483.831 198.445 484.132 197.007 484.733 195.768C485.342 194.529 486.211 193.564 487.34 192.875C488.469 192.178 489.826 191.83 491.41 191.83C492.994 191.83 494.351 192.178 495.48 192.875C496.617 193.564 497.486 194.529 498.087 195.768C498.696 197.007 499 198.445 499 200.08C499 201.715 498.696 203.153 498.087 204.392C497.486 205.631 496.617 206.599 495.48 207.296C494.351 207.985 492.994 208.33 491.41 208.33ZM491.41 205.833C492.473 205.84 493.357 205.606 494.061 205.129C494.772 204.652 495.304 203.981 495.656 203.116C496.015 202.251 496.195 201.239 496.195 200.08C496.195 198.921 496.015 197.917 495.656 197.066C495.304 196.208 494.772 195.541 494.061 195.064C493.357 194.587 492.473 194.342 491.41 194.327C490.347 194.32 489.463 194.554 488.759 195.031C488.055 195.508 487.523 196.179 487.164 197.044C486.812 197.909 486.636 198.921 486.636 200.08C486.636 201.239 486.812 202.247 487.164 203.105C487.516 203.956 488.044 204.619 488.748 205.096C489.459 205.573 490.347 205.818 491.41 205.833ZM507.569 208.33C506.308 208.33 505.197 208.073 504.236 207.56C503.283 207.047 502.535 206.324 501.992 205.393C501.457 204.462 501.189 203.369 501.189 202.115V192.182L503.873 192.16V202.049C503.873 202.643 503.972 203.175 504.17 203.644C504.376 204.113 504.651 204.513 504.995 204.843C505.34 205.166 505.736 205.411 506.183 205.58C506.631 205.749 507.093 205.833 507.569 205.833C508.061 205.833 508.526 205.749 508.966 205.58C509.414 205.404 509.81 205.155 510.154 204.832C510.499 204.502 510.77 204.102 510.968 203.633C511.166 203.164 511.265 202.636 511.265 202.049V192.16H513.949V202.115C513.949 203.369 513.678 204.462 513.135 205.393C512.6 206.324 511.852 207.047 510.891 207.56C509.938 208.073 508.831 208.33 507.569 208.33ZM166.645 237V221.16H173.19C173.344 221.16 173.542 221.167 173.784 221.182C174.026 221.189 174.25 221.211 174.455 221.248C175.372 221.387 176.127 221.692 176.721 222.161C177.323 222.63 177.766 223.224 178.052 223.943C178.346 224.654 178.492 225.446 178.492 226.319C178.492 227.184 178.346 227.976 178.052 228.695C177.759 229.406 177.312 229.997 176.71 230.466C176.116 230.935 175.365 231.24 174.455 231.379C174.25 231.408 174.023 231.43 173.773 231.445C173.531 231.46 173.337 231.467 173.19 231.467H169.296V237H166.645ZM169.296 228.992H173.08C173.227 228.992 173.392 228.985 173.575 228.97C173.759 228.955 173.927 228.926 174.081 228.882C174.521 228.772 174.866 228.578 175.115 228.299C175.372 228.02 175.552 227.705 175.654 227.353C175.764 227.001 175.819 226.656 175.819 226.319C175.819 225.982 175.764 225.637 175.654 225.285C175.552 224.926 175.372 224.607 175.115 224.328C174.866 224.049 174.521 223.855 174.081 223.745C173.927 223.701 173.759 223.675 173.575 223.668C173.392 223.653 173.227 223.646 173.08 223.646H169.296V228.992ZM187.076 237.33C185.815 237.33 184.704 237.073 183.743 236.56C182.79 236.047 182.042 235.324 181.499 234.393C180.964 233.462 180.696 232.369 180.696 231.115V221.182L183.38 221.16V231.049C183.38 231.643 183.479 232.175 183.677 232.644C183.883 233.113 184.158 233.513 184.502 233.843C184.847 234.166 185.243 234.411 185.69 234.58C186.138 234.749 186.6 234.833 187.076 234.833C187.568 234.833 188.033 234.749 188.473 234.58C188.921 234.404 189.317 234.155 189.661 233.832C190.006 233.502 190.277 233.102 190.475 232.633C190.673 232.164 190.772 231.636 190.772 231.049V221.16H193.456V231.115C193.456 232.369 193.185 233.462 192.642 234.393C192.107 235.324 191.359 236.047 190.398 236.56C189.445 237.073 188.338 237.33 187.076 237.33ZM200.336 237V223.646H195.21V221.16H208.113V223.646H202.987V237H200.336ZM212.51 237L217.504 221.16H221.387L226.381 237H223.653L219.121 222.788H219.715L215.238 237H212.51ZM215.293 233.568V231.093H223.609V233.568H215.293ZM233.803 237.33C232.645 237.33 231.6 237.128 230.668 236.725C229.744 236.322 228.982 235.746 228.38 234.998C227.786 234.243 227.409 233.348 227.247 232.314L229.997 231.896C230.232 232.835 230.712 233.561 231.438 234.074C232.172 234.587 233.015 234.844 233.968 234.844C234.533 234.844 235.065 234.756 235.563 234.58C236.062 234.404 236.465 234.147 236.773 233.81C237.089 233.473 237.246 233.058 237.246 232.567C237.246 232.347 237.21 232.145 237.136 231.962C237.063 231.771 236.953 231.603 236.806 231.456C236.667 231.309 236.484 231.177 236.256 231.06C236.036 230.935 235.78 230.829 235.486 230.741L231.394 229.531C231.042 229.428 230.661 229.293 230.25 229.124C229.847 228.948 229.462 228.71 229.095 228.409C228.736 228.101 228.439 227.712 228.204 227.243C227.977 226.766 227.863 226.18 227.863 225.483C227.863 224.464 228.12 223.609 228.633 222.92C229.154 222.223 229.851 221.703 230.723 221.358C231.603 221.013 232.579 220.845 233.649 220.852C234.735 220.859 235.703 221.046 236.553 221.413C237.404 221.772 238.115 222.297 238.687 222.986C239.259 223.675 239.663 224.508 239.897 225.483L237.048 225.978C236.931 225.421 236.704 224.948 236.366 224.559C236.036 224.163 235.629 223.862 235.145 223.657C234.669 223.452 234.159 223.342 233.616 223.327C233.088 223.32 232.597 223.4 232.142 223.569C231.695 223.73 231.332 223.965 231.053 224.273C230.782 224.581 230.646 224.94 230.646 225.351C230.646 225.74 230.764 226.059 230.998 226.308C231.233 226.55 231.523 226.744 231.867 226.891C232.219 227.03 232.575 227.148 232.934 227.243L235.772 228.035C236.161 228.138 236.597 228.277 237.081 228.453C237.565 228.629 238.031 228.875 238.478 229.19C238.926 229.505 239.292 229.92 239.578 230.433C239.872 230.946 240.018 231.599 240.018 232.391C240.018 233.212 239.846 233.935 239.501 234.558C239.164 235.174 238.706 235.687 238.126 236.098C237.547 236.509 236.883 236.817 236.135 237.022C235.395 237.227 234.617 237.33 233.803 237.33ZM242.619 237V221.16H245.27V237H242.619ZM248.565 237V221.16H253.614C253.746 221.16 254.007 221.164 254.395 221.171C254.791 221.178 255.173 221.204 255.539 221.248C256.793 221.409 257.853 221.857 258.718 222.59C259.591 223.316 260.251 224.244 260.698 225.373C261.146 226.502 261.369 227.738 261.369 229.08C261.369 230.422 261.146 231.658 260.698 232.787C260.251 233.916 259.591 234.848 258.718 235.581C257.853 236.307 256.793 236.751 255.539 236.912C255.18 236.956 254.802 236.982 254.406 236.989C254.01 236.996 253.746 237 253.614 237H248.565ZM251.26 234.503H253.614C253.834 234.503 254.113 234.496 254.45 234.481C254.795 234.466 255.099 234.433 255.363 234.382C256.111 234.243 256.72 233.909 257.189 233.381C257.659 232.853 258.003 232.211 258.223 231.456C258.451 230.701 258.564 229.909 258.564 229.08C258.564 228.222 258.451 227.415 258.223 226.66C257.996 225.905 257.644 225.27 257.167 224.757C256.698 224.244 256.097 223.917 255.363 223.778C255.099 223.719 254.795 223.686 254.45 223.679C254.113 223.664 253.834 223.657 253.614 223.657H251.26V234.503ZM263.97 237V221.16H274.2V223.646H266.621V227.551H272.88V230.037H266.621V234.514H274.2V237H263.97ZM281.243 237V221.16H291.473V223.646H283.894V227.551H290.153V230.037H283.894V234.514H291.473V237H281.243ZM293.012 237L298.006 221.16H301.889L306.883 237H304.155L299.623 222.788H300.217L295.74 237H293.012ZM295.795 233.568V231.093H304.111V233.568H295.795ZM315.141 237.33C313.557 237.33 312.201 236.985 311.071 236.296C309.942 235.599 309.073 234.631 308.464 233.392C307.863 232.153 307.562 230.715 307.562 229.08C307.562 227.445 307.863 226.007 308.464 224.768C309.073 223.529 309.942 222.564 311.071 221.875C312.201 221.178 313.557 220.83 315.141 220.83C316.967 220.83 318.489 221.288 319.706 222.205C320.924 223.114 321.778 224.343 322.269 225.89L319.596 226.627C319.288 225.593 318.764 224.786 318.023 224.207C317.283 223.62 316.322 223.327 315.141 223.327C314.078 223.327 313.191 223.565 312.479 224.042C311.775 224.519 311.244 225.19 310.884 226.055C310.532 226.913 310.353 227.921 310.345 229.08C310.345 230.239 310.521 231.251 310.873 232.116C311.233 232.974 311.768 233.641 312.479 234.118C313.191 234.595 314.078 234.833 315.141 234.833C316.322 234.833 317.283 234.54 318.023 233.953C318.764 233.366 319.288 232.56 319.596 231.533L322.269 232.27C321.778 233.817 320.924 235.049 319.706 235.966C318.489 236.875 316.967 237.33 315.141 237.33ZM324.685 237V221.16H327.336V227.826H334.838V221.16H337.478V237H334.838V230.312H327.336V237H324.685ZM344.966 237V221.16H347.353L352.831 232.38L358.309 221.16H360.696V237H358.221V226.847L353.359 237H352.303L347.452 226.847V237H344.966ZM370.485 237.33C368.901 237.33 367.544 236.985 366.415 236.296C365.286 235.599 364.417 234.631 363.808 233.392C363.207 232.153 362.906 230.715 362.906 229.08C362.906 227.445 363.207 226.007 363.808 224.768C364.417 223.529 365.286 222.564 366.415 221.875C367.544 221.178 368.901 220.83 370.485 220.83C372.069 220.83 373.426 221.178 374.555 221.875C375.692 222.564 376.561 223.529 377.162 224.768C377.771 226.007 378.075 227.445 378.075 229.08C378.075 230.715 377.771 232.153 377.162 233.392C376.561 234.631 375.692 235.599 374.555 236.296C373.426 236.985 372.069 237.33 370.485 237.33ZM370.485 234.833C371.548 234.84 372.432 234.606 373.136 234.129C373.847 233.652 374.379 232.981 374.731 232.116C375.09 231.251 375.27 230.239 375.27 229.08C375.27 227.921 375.09 226.917 374.731 226.066C374.379 225.208 373.847 224.541 373.136 224.064C372.432 223.587 371.548 223.342 370.485 223.327C369.422 223.32 368.538 223.554 367.834 224.031C367.13 224.508 366.598 225.179 366.239 226.044C365.887 226.909 365.711 227.921 365.711 229.08C365.711 230.239 365.887 231.247 366.239 232.105C366.591 232.956 367.119 233.619 367.823 234.096C368.534 234.573 369.422 234.818 370.485 234.833ZM380.265 237V221.16H382.949L390.297 232.325V221.16H392.981V237H390.297L382.949 225.835V237H380.265ZM399.862 237V223.646H394.736V221.16H407.639V223.646H402.513V237H399.862ZM409.397 237V221.16H412.048V227.826H419.55V221.16H422.19V237H419.55V230.312H412.048V237H409.397ZM428.145 232.699C428.145 232.193 428.193 231.705 428.288 231.236C428.391 230.759 428.556 230.319 428.783 229.916C428.981 229.527 429.201 229.219 429.443 228.992C429.685 228.757 429.957 228.526 430.257 228.299C430.558 228.064 430.892 227.753 431.258 227.364C431.559 227.034 431.757 226.708 431.852 226.385C431.948 226.055 431.995 225.703 431.995 225.329C431.995 225.087 431.97 224.86 431.918 224.647C431.867 224.434 431.775 224.251 431.643 224.097C431.438 223.826 431.174 223.635 430.851 223.525C430.529 223.408 430.184 223.349 429.817 223.349C429.517 223.349 429.227 223.389 428.948 223.47C428.677 223.543 428.446 223.661 428.255 223.822C428.035 223.998 427.874 224.214 427.771 224.471C427.669 224.728 427.621 225.01 427.628 225.318H424.834C424.908 224.585 425.106 223.906 425.428 223.283C425.758 222.652 426.191 222.15 426.726 221.776C427.144 221.468 427.614 221.237 428.134 221.083C428.662 220.929 429.19 220.852 429.718 220.852C430.525 220.852 431.284 220.977 431.995 221.226C432.714 221.475 433.312 221.886 433.788 222.458C434.118 222.832 434.368 223.265 434.536 223.756C434.712 224.247 434.8 224.746 434.8 225.252C434.8 226.007 434.635 226.697 434.305 227.32C433.983 227.943 433.572 228.519 433.073 229.047C432.839 229.296 432.615 229.516 432.402 229.707C432.19 229.898 431.992 230.085 431.808 230.268C431.632 230.444 431.486 230.631 431.368 230.829C431.163 231.174 431.042 231.467 431.005 231.709C430.969 231.944 430.95 232.274 430.95 232.699H428.145ZM428.167 237V234.085H430.95V237H428.167Z" fill="white"></path> <path d="M125.716 332.27C124.426 332.27 123.337 331.985 122.449 331.415C121.561 330.839 120.889 330.044 120.433 329.03C119.977 328.016 119.749 326.846 119.749 325.52C119.749 324.194 119.977 323.024 120.433 322.01C120.889 320.996 121.561 320.204 122.449 319.634C123.337 319.058 124.426 318.77 125.716 318.77C127.222 318.77 128.452 319.157 129.406 319.931C130.36 320.699 131.014 321.731 131.368 323.027L130.018 323.378C129.742 322.352 129.247 321.539 128.533 320.939C127.819 320.339 126.88 320.039 125.716 320.039C124.702 320.039 123.859 320.27 123.187 320.732C122.515 321.194 122.008 321.839 121.666 322.667C121.33 323.489 121.156 324.44 121.144 325.52C121.138 326.6 121.303 327.551 121.639 328.373C121.981 329.195 122.491 329.84 123.169 330.308C123.853 330.77 124.702 331.001 125.716 331.001C126.88 331.001 127.819 330.701 128.533 330.101C129.247 329.495 129.742 328.682 130.018 327.662L131.368 328.013C131.014 329.309 130.36 330.344 129.406 331.118C128.452 331.886 127.222 332.27 125.716 332.27ZM132.102 332L136.566 319.04H138.321L142.785 332H141.408L137.169 319.778H137.691L133.479 332H132.102ZM134.091 328.859V327.617H140.787V328.859H134.091ZM148.559 332.27C147.653 332.27 146.837 332.12 146.111 331.82C145.391 331.514 144.794 331.082 144.32 330.524C143.852 329.966 143.546 329.303 143.402 328.535L144.752 328.31C144.968 329.15 145.424 329.81 146.12 330.29C146.816 330.764 147.647 331.001 148.613 331.001C149.249 331.001 149.819 330.902 150.323 330.704C150.827 330.5 151.223 330.212 151.511 329.84C151.799 329.468 151.943 329.027 151.943 328.517C151.943 328.181 151.883 327.896 151.763 327.662C151.643 327.422 151.484 327.224 151.286 327.068C151.088 326.912 150.872 326.783 150.638 326.681C150.404 326.573 150.176 326.486 149.954 326.42L146.669 325.439C146.273 325.325 145.907 325.181 145.571 325.007C145.235 324.827 144.941 324.614 144.689 324.368C144.443 324.116 144.251 323.822 144.113 323.486C143.975 323.15 143.906 322.766 143.906 322.334C143.906 321.602 144.098 320.969 144.482 320.435C144.866 319.901 145.391 319.49 146.057 319.202C146.723 318.914 147.482 318.773 148.334 318.779C149.198 318.779 149.969 318.932 150.647 319.238C151.331 319.544 151.895 319.982 152.339 320.552C152.783 321.116 153.077 321.785 153.221 322.559L151.835 322.811C151.745 322.247 151.538 321.758 151.214 321.344C150.89 320.93 150.476 320.612 149.972 320.39C149.474 320.162 148.925 320.045 148.325 320.039C147.743 320.039 147.224 320.138 146.768 320.336C146.318 320.528 145.961 320.792 145.697 321.128C145.433 321.464 145.301 321.848 145.301 322.28C145.301 322.718 145.421 323.069 145.661 323.333C145.907 323.597 146.207 323.804 146.561 323.954C146.921 324.104 147.269 324.227 147.605 324.323L150.143 325.07C150.407 325.142 150.716 325.247 151.07 325.385C151.43 325.517 151.778 325.709 152.114 325.961C152.456 326.207 152.738 326.531 152.96 326.933C153.182 327.335 153.293 327.845 153.293 328.463C153.293 329.063 153.173 329.6 152.933 330.074C152.699 330.548 152.366 330.947 151.934 331.271C151.508 331.595 151.007 331.841 150.431 332.009C149.861 332.183 149.237 332.27 148.559 332.27ZM155.151 332V319.04H156.474V324.881H163.638V319.04H164.952V332H163.638V326.15H156.474V332H155.151ZM176.323 332.27C175.033 332.27 173.944 331.985 173.056 331.415C172.168 330.839 171.496 330.044 171.04 329.03C170.584 328.016 170.356 326.846 170.356 325.52C170.356 324.194 170.584 323.024 171.04 322.01C171.496 320.996 172.168 320.204 173.056 319.634C173.944 319.058 175.033 318.77 176.323 318.77C177.829 318.77 179.059 319.157 180.013 319.931C180.967 320.699 181.621 321.731 181.975 323.027L180.625 323.378C180.349 322.352 179.854 321.539 179.14 320.939C178.426 320.339 177.487 320.039 176.323 320.039C175.309 320.039 174.466 320.27 173.794 320.732C173.122 321.194 172.615 321.839 172.273 322.667C171.937 323.489 171.763 324.44 171.751 325.52C171.745 326.6 171.91 327.551 172.246 328.373C172.588 329.195 173.098 329.84 173.776 330.308C174.46 330.77 175.309 331.001 176.323 331.001C177.487 331.001 178.426 330.701 179.14 330.101C179.854 329.495 180.349 328.682 180.625 327.662L181.975 328.013C181.621 329.309 180.967 330.344 180.013 331.118C179.059 331.886 177.829 332.27 176.323 332.27ZM189.019 332.27C188.029 332.27 187.153 332.066 186.391 331.658C185.635 331.25 185.041 330.674 184.609 329.93C184.177 329.186 183.961 328.316 183.961 327.32V319.049L185.293 319.04V327.149C185.293 327.821 185.407 328.403 185.635 328.895C185.863 329.381 186.16 329.783 186.526 330.101C186.898 330.413 187.303 330.644 187.741 330.794C188.179 330.944 188.605 331.019 189.019 331.019C189.439 331.019 189.868 330.944 190.306 330.794C190.744 330.644 191.146 330.413 191.512 330.101C191.878 329.783 192.175 329.381 192.403 328.895C192.631 328.403 192.745 327.821 192.745 327.149V319.04H194.077V327.32C194.077 328.316 193.861 329.186 193.429 329.93C192.997 330.668 192.4 331.244 191.638 331.658C190.882 332.066 190.009 332.27 189.019 332.27ZM200.555 332.27C199.649 332.27 198.833 332.12 198.107 331.82C197.387 331.514 196.79 331.082 196.316 330.524C195.848 329.966 195.542 329.303 195.398 328.535L196.748 328.31C196.964 329.15 197.42 329.81 198.116 330.29C198.812 330.764 199.643 331.001 200.609 331.001C201.245 331.001 201.815 330.902 202.319 330.704C202.823 330.5 203.219 330.212 203.507 329.84C203.795 329.468 203.939 329.027 203.939 328.517C203.939 328.181 203.879 327.896 203.759 327.662C203.639 327.422 203.48 327.224 203.282 327.068C203.084 326.912 202.868 326.783 202.634 326.681C202.4 326.573 202.172 326.486 201.95 326.42L198.665 325.439C198.269 325.325 197.903 325.181 197.567 325.007C197.231 324.827 196.937 324.614 196.685 324.368C196.439 324.116 196.247 323.822 196.109 323.486C195.971 323.15 195.902 322.766 195.902 322.334C195.902 321.602 196.094 320.969 196.478 320.435C196.862 319.901 197.387 319.49 198.053 319.202C198.719 318.914 199.478 318.773 200.33 318.779C201.194 318.779 201.965 318.932 202.643 319.238C203.327 319.544 203.891 319.982 204.335 320.552C204.779 321.116 205.073 321.785 205.217 322.559L203.831 322.811C203.741 322.247 203.534 321.758 203.21 321.344C202.886 320.93 202.472 320.612 201.968 320.39C201.47 320.162 200.921 320.045 200.321 320.039C199.739 320.039 199.22 320.138 198.764 320.336C198.314 320.528 197.957 320.792 197.693 321.128C197.429 321.464 197.297 321.848 197.297 322.28C197.297 322.718 197.417 323.069 197.657 323.333C197.903 323.597 198.203 323.804 198.557 323.954C198.917 324.104 199.265 324.227 199.601 324.323L202.139 325.07C202.403 325.142 202.712 325.247 203.066 325.385C203.426 325.517 203.774 325.709 204.11 325.961C204.452 326.207 204.734 326.531 204.956 326.933C205.178 327.335 205.289 327.845 205.289 328.463C205.289 329.063 205.169 329.6 204.929 330.074C204.695 330.548 204.362 330.947 203.93 331.271C203.504 331.595 203.003 331.841 202.427 332.009C201.857 332.183 201.233 332.27 200.555 332.27ZM207.147 332V319.04H208.47V324.881H215.634V319.04H216.948V332H215.634V326.15H208.47V332H207.147ZM219.649 332V319.04H220.972V332H219.649ZM228.917 332.27C227.627 332.27 226.538 331.985 225.65 331.415C224.762 330.839 224.09 330.044 223.634 329.03C223.178 328.016 222.95 326.846 222.95 325.52C222.95 324.194 223.178 323.024 223.634 322.01C224.09 320.996 224.762 320.204 225.65 319.634C226.538 319.058 227.627 318.77 228.917 318.77C230.213 318.77 231.302 319.058 232.184 319.634C233.072 320.204 233.744 320.996 234.2 322.01C234.662 323.024 234.893 324.194 234.893 325.52C234.893 326.846 234.662 328.016 234.2 329.03C233.744 330.044 233.072 330.839 232.184 331.415C231.302 331.985 230.213 332.27 228.917 332.27ZM228.917 331.001C229.931 331.001 230.777 330.77 231.455 330.308C232.133 329.846 232.64 329.204 232.976 328.382C233.318 327.554 233.489 326.6 233.489 325.52C233.489 324.44 233.318 323.489 232.976 322.667C232.64 321.845 232.133 321.203 231.455 320.741C230.777 320.279 229.931 320.045 228.917 320.039C227.903 320.039 227.06 320.27 226.388 320.732C225.716 321.194 225.209 321.839 224.867 322.667C224.531 323.489 224.36 324.44 224.354 325.52C224.348 326.6 224.513 327.551 224.849 328.373C225.191 329.189 225.701 329.831 226.379 330.299C227.057 330.761 227.903 330.995 228.917 331.001ZM236.696 332V319.04H238.028L245.165 329.66V319.04H246.497V332H245.165L238.028 321.371V332H236.696ZM252.441 326.897V325.763H260.001V326.897H252.441ZM270.419 332V330.281C269.753 330.395 269.108 330.365 268.484 330.191C267.866 330.011 267.311 329.702 266.819 329.264C266.333 328.82 265.946 328.253 265.658 327.563C265.37 326.867 265.226 326.054 265.226 325.124C265.226 324.194 265.37 323.381 265.658 322.685C265.946 321.989 266.333 321.419 266.819 320.975C267.311 320.525 267.866 320.213 268.484 320.039C269.108 319.859 269.753 319.826 270.419 319.94V319.04H271.733V319.94C272.399 319.826 273.044 319.859 273.668 320.039C274.292 320.213 274.847 320.525 275.333 320.975C275.825 321.419 276.215 321.989 276.503 322.685C276.791 323.381 276.935 324.194 276.935 325.124C276.935 326.054 276.791 326.867 276.503 327.563C276.215 328.253 275.825 328.82 275.333 329.264C274.847 329.702 274.292 330.011 273.668 330.191C273.044 330.365 272.399 330.395 271.733 330.281V332H270.419ZM270.419 329.021V321.173C269.849 321.089 269.327 321.131 268.853 321.299C268.385 321.461 267.983 321.722 267.647 322.082C267.311 322.442 267.05 322.883 266.864 323.405C266.684 323.921 266.594 324.494 266.594 325.124C266.594 325.754 266.684 326.327 266.864 326.843C267.05 327.353 267.311 327.785 267.647 328.139C267.983 328.493 268.385 328.748 268.853 328.904C269.327 329.06 269.849 329.099 270.419 329.021ZM271.733 329.021C272.309 329.099 272.831 329.06 273.299 328.904C273.767 328.742 274.169 328.487 274.505 328.139C274.847 327.785 275.108 327.353 275.288 326.843C275.474 326.333 275.567 325.769 275.567 325.151C275.567 324.527 275.474 323.957 275.288 323.441C275.108 322.919 274.847 322.475 274.505 322.109C274.169 321.743 273.767 321.476 273.299 321.308C272.831 321.134 272.309 321.089 271.733 321.173V329.021ZM288.543 332H287.211V321.371L280.074 332H278.742V319.04H280.074V329.66L287.211 319.04H288.543V332ZM291.065 332V319.04H292.388V324.881H299.552V319.04H300.866V332H299.552V326.15H292.388V332H291.065ZM302.487 332L306.951 319.04H308.706L313.17 332H311.793L307.554 319.778H308.076L303.864 332H302.487ZM304.476 328.859V327.617H311.172V328.859H304.476ZM314.795 332V319.04H316.118V324.881H323.282V319.04H324.596V332H323.282V326.15H316.118V332H314.795ZM332.364 332.27C331.074 332.27 329.985 331.985 329.097 331.415C328.209 330.839 327.537 330.044 327.081 329.03C326.625 328.016 326.397 326.846 326.397 325.52C326.397 324.194 326.625 323.024 327.081 322.01C327.537 320.996 328.209 320.204 329.097 319.634C329.985 319.058 331.074 318.77 332.364 318.77C333.87 318.77 335.1 319.157 336.054 319.931C337.008 320.699 337.662 321.731 338.016 323.027L336.666 323.378C336.39 322.352 335.895 321.539 335.181 320.939C334.467 320.339 333.528 320.039 332.364 320.039C331.35 320.039 330.507 320.27 329.835 320.732C329.163 321.194 328.656 321.839 328.314 322.667C327.978 323.489 327.804 324.44 327.792 325.52C327.786 326.6 327.951 327.551 328.287 328.373C328.629 329.195 329.139 329.84 329.817 330.308C330.501 330.77 331.35 331.001 332.364 331.001C333.528 331.001 334.467 330.701 335.181 330.101C335.895 329.495 336.39 328.682 336.666 327.662L338.016 328.013C337.662 329.309 337.008 330.344 336.054 331.118C335.1 331.886 333.87 332.27 332.364 332.27ZM345.249 332.27C343.959 332.27 342.87 331.985 341.982 331.415C341.094 330.839 340.422 330.044 339.966 329.03C339.51 328.016 339.282 326.846 339.282 325.52C339.282 324.194 339.51 323.024 339.966 322.01C340.422 320.996 341.094 320.204 341.982 319.634C342.87 319.058 343.959 318.77 345.249 318.77C346.545 318.77 347.634 319.058 348.516 319.634C349.404 320.204 350.076 320.996 350.532 322.01C350.994 323.024 351.225 324.194 351.225 325.52C351.225 326.846 350.994 328.016 350.532 329.03C350.076 330.044 349.404 330.839 348.516 331.415C347.634 331.985 346.545 332.27 345.249 332.27ZM345.249 331.001C346.263 331.001 347.109 330.77 347.787 330.308C348.465 329.846 348.972 329.204 349.308 328.382C349.65 327.554 349.821 326.6 349.821 325.52C349.821 324.44 349.65 323.489 349.308 322.667C348.972 321.845 348.465 321.203 347.787 320.741C347.109 320.279 346.263 320.045 345.249 320.039C344.235 320.039 343.392 320.27 342.72 320.732C342.048 321.194 341.541 321.839 341.199 322.667C340.863 323.489 340.692 324.44 340.686 325.52C340.68 326.6 340.845 327.551 341.181 328.373C341.523 329.189 342.033 329.831 342.711 330.299C343.389 330.761 344.235 330.995 345.249 331.001ZM353.028 332V319.04H358.032C358.758 319.04 359.391 319.19 359.931 319.49C360.471 319.79 360.891 320.195 361.191 320.705C361.491 321.209 361.641 321.767 361.641 322.379C361.641 323.075 361.455 323.696 361.083 324.242C360.711 324.782 360.213 325.157 359.589 325.367L359.571 324.926C360.411 325.166 361.071 325.586 361.551 326.186C362.031 326.786 362.271 327.512 362.271 328.364C362.271 329.114 362.112 329.762 361.794 330.308C361.476 330.848 361.029 331.265 360.453 331.559C359.877 331.853 359.208 332 358.446 332H353.028ZM354.36 330.731H358.122C358.65 330.731 359.124 330.638 359.544 330.452C359.964 330.26 360.294 329.99 360.534 329.642C360.78 329.294 360.903 328.874 360.903 328.382C360.903 327.902 360.792 327.47 360.57 327.086C360.348 326.702 360.045 326.396 359.661 326.168C359.283 325.934 358.851 325.817 358.365 325.817H354.36V330.731ZM354.36 324.566H358.023C358.437 324.566 358.815 324.473 359.157 324.287C359.499 324.095 359.769 323.834 359.967 323.504C360.171 323.174 360.273 322.793 360.273 322.361C360.273 321.749 360.06 321.251 359.634 320.867C359.214 320.483 358.677 320.291 358.023 320.291H354.36V324.566ZM363.167 332L367.631 319.04H369.386L373.85 332H372.473L368.234 319.778H368.756L364.544 332H363.167ZM365.156 328.859V327.617H371.852V328.859H365.156ZM384.304 332H382.99V327.077H378.679L378.22 326.969C377.26 326.783 376.522 326.33 376.006 325.61C375.49 324.89 375.232 324.041 375.232 323.063C375.232 322.385 375.355 321.767 375.601 321.209C375.847 320.651 376.204 320.189 376.672 319.823C377.146 319.451 377.719 319.214 378.391 319.112C378.559 319.082 378.721 319.064 378.877 319.058C379.033 319.046 379.174 319.04 379.3 319.04H384.304V332ZM376.456 332H374.935L377.743 326.24L379.012 326.726L376.456 332ZM382.99 325.817V320.309H379.336C379.234 320.309 379.108 320.315 378.958 320.327C378.814 320.333 378.673 320.351 378.535 320.381C378.091 320.477 377.725 320.66 377.437 320.93C377.155 321.2 376.945 321.524 376.807 321.902C376.669 322.274 376.6 322.661 376.6 323.063C376.6 323.465 376.669 323.852 376.807 324.224C376.945 324.596 377.155 324.917 377.437 325.187C377.725 325.457 378.091 325.64 378.535 325.736C378.673 325.766 378.814 325.787 378.958 325.799C379.108 325.811 379.234 325.817 379.336 325.817H382.99ZM394.037 332V319.04H403.964V332H402.641V320.309H395.36V332H394.037ZM411.73 332.27C410.44 332.27 409.351 331.985 408.463 331.415C407.575 330.839 406.903 330.044 406.447 329.03C405.991 328.016 405.763 326.846 405.763 325.52C405.763 324.194 405.991 323.024 406.447 322.01C406.903 320.996 407.575 320.204 408.463 319.634C409.351 319.058 410.44 318.77 411.73 318.77C413.026 318.77 414.115 319.058 414.997 319.634C415.885 320.204 416.557 320.996 417.013 322.01C417.475 323.024 417.706 324.194 417.706 325.52C417.706 326.846 417.475 328.016 417.013 329.03C416.557 330.044 415.885 330.839 414.997 331.415C414.115 331.985 413.026 332.27 411.73 332.27ZM411.73 331.001C412.744 331.001 413.59 330.77 414.268 330.308C414.946 329.846 415.453 329.204 415.789 328.382C416.131 327.554 416.302 326.6 416.302 325.52C416.302 324.44 416.131 323.489 415.789 322.667C415.453 321.845 414.946 321.203 414.268 320.741C413.59 320.279 412.744 320.045 411.73 320.039C410.716 320.039 409.873 320.27 409.201 320.732C408.529 321.194 408.022 321.839 407.68 322.667C407.344 323.489 407.173 324.44 407.167 325.52C407.161 326.6 407.326 327.551 407.662 328.373C408.004 329.189 408.514 329.831 409.192 330.299C409.87 330.761 410.716 330.995 411.73 331.001ZM418.553 334.16V330.731C419.057 330.731 419.462 330.605 419.768 330.353C420.074 330.095 420.308 329.753 420.47 329.327C420.632 328.901 420.755 328.424 420.839 327.896C420.923 327.362 420.995 326.822 421.055 326.276C421.139 325.478 421.205 324.707 421.253 323.963C421.307 323.219 421.352 322.448 421.388 321.65C421.43 320.852 421.478 319.979 421.532 319.031L429.524 319.04V330.731H430.451V334.16H429.137V332H419.876V334.16H418.553ZM421.082 330.731H428.201V320.309L422.765 320.3C422.729 321.032 422.693 321.74 422.657 322.424C422.621 323.108 422.579 323.798 422.531 324.494C422.483 325.19 422.42 325.916 422.342 326.672C422.276 327.362 422.198 327.965 422.108 328.481C422.018 328.997 421.892 329.438 421.73 329.804C421.574 330.17 421.358 330.479 421.082 330.731ZM434.615 332L436.073 328.931L431.465 319.04H432.932L436.766 327.509L440.672 319.04H442.085L436.055 332H434.615ZM443.643 332V319.04H444.966V330.731H449.88V319.04H451.203V330.731H456.126V319.04H457.44V332H443.643ZM459.955 332V319.04H461.278V325.16L467.191 319.04H468.883L462.844 325.295L469.378 332H467.65L461.278 325.52V332H459.955ZM469.743 332L474.207 319.04H475.962L480.426 332H479.049L474.81 319.778H475.332L471.12 332H469.743ZM471.732 328.859V327.617H478.428V328.859H471.732ZM230.244 355V342.04H238.245V343.309H231.567V347.08H235.248C235.374 347.08 235.515 347.086 235.671 347.098C235.833 347.104 235.995 347.119 236.157 347.143C236.823 347.233 237.39 347.461 237.858 347.827C238.332 348.193 238.692 348.655 238.938 349.213C239.19 349.771 239.316 350.38 239.316 351.04C239.316 351.7 239.19 352.309 238.938 352.867C238.692 353.425 238.332 353.887 237.858 354.253C237.39 354.619 236.823 354.847 236.157 354.937C235.995 354.955 235.833 354.97 235.671 354.982C235.515 354.994 235.374 355 235.248 355H230.244ZM231.567 353.731H235.212C235.32 353.731 235.446 353.725 235.59 353.713C235.734 353.701 235.875 353.683 236.013 353.659C236.679 353.527 237.168 353.209 237.48 352.705C237.798 352.195 237.957 351.64 237.957 351.04C237.957 350.434 237.798 349.879 237.48 349.375C237.168 348.871 236.679 348.553 236.013 348.421C235.875 348.391 235.734 348.373 235.59 348.367C235.446 348.355 235.32 348.349 235.212 348.349H231.567V353.731ZM241.108 355V342.04H249.208V343.309H242.431V347.791H248.128V349.06H242.431V353.731H249.208V355H241.108ZM254.977 355.27C254.095 355.27 253.33 355.141 252.682 354.883C252.04 354.625 251.512 354.286 251.098 353.866C250.684 353.44 250.375 352.981 250.171 352.489L251.377 351.787C251.521 352.195 251.749 352.567 252.061 352.903C252.373 353.239 252.775 353.506 253.267 353.704C253.759 353.902 254.344 354.001 255.022 354.001C255.724 354.001 256.318 353.89 256.804 353.668C257.296 353.446 257.668 353.134 257.92 352.732C258.172 352.33 258.298 351.862 258.298 351.328C258.298 350.74 258.157 350.284 257.875 349.96C257.593 349.636 257.215 349.408 256.741 349.276C256.267 349.138 255.739 349.06 255.157 349.042C254.719 349.024 254.407 349.012 254.221 349.006C254.035 349 253.912 348.997 253.852 348.997C253.792 348.997 253.735 348.997 253.681 348.997V347.719C253.723 347.719 253.834 347.719 254.014 347.719C254.194 347.719 254.386 347.719 254.59 347.719C254.794 347.713 254.956 347.707 255.076 347.701C255.934 347.659 256.609 347.434 257.101 347.026C257.593 346.618 257.839 346.066 257.839 345.37C257.839 344.632 257.578 344.059 257.056 343.651C256.54 343.243 255.871 343.039 255.049 343.039C254.275 343.039 253.621 343.225 253.087 343.597C252.559 343.963 252.127 344.455 251.791 345.073L250.711 344.272C251.119 343.54 251.695 342.94 252.439 342.472C253.183 342.004 254.065 341.77 255.085 341.77C255.631 341.77 256.153 341.845 256.651 341.995C257.155 342.145 257.599 342.367 257.983 342.661C258.373 342.955 258.679 343.327 258.901 343.777C259.129 344.221 259.243 344.743 259.243 345.343C259.243 346.045 259.087 346.657 258.775 347.179C258.469 347.701 258.073 348.094 257.587 348.358C258.247 348.556 258.763 348.904 259.135 349.402C259.513 349.9 259.702 350.551 259.702 351.355C259.702 352.147 259.507 352.837 259.117 353.425C258.727 354.013 258.175 354.469 257.461 354.793C256.753 355.111 255.925 355.27 254.977 355.27ZM266.816 355.27C265.526 355.27 264.437 354.985 263.549 354.415C262.661 353.839 261.989 353.044 261.533 352.03C261.077 351.016 260.849 349.846 260.849 348.52C260.849 347.194 261.077 346.024 261.533 345.01C261.989 343.996 262.661 343.204 263.549 342.634C264.437 342.058 265.526 341.77 266.816 341.77C268.112 341.77 269.201 342.058 270.083 342.634C270.971 343.204 271.643 343.996 272.099 345.01C272.561 346.024 272.792 347.194 272.792 348.52C272.792 349.846 272.561 351.016 272.099 352.03C271.643 353.044 270.971 353.839 270.083 354.415C269.201 354.985 268.112 355.27 266.816 355.27ZM266.816 354.001C267.83 354.001 268.676 353.77 269.354 353.308C270.032 352.846 270.539 352.204 270.875 351.382C271.217 350.554 271.388 349.6 271.388 348.52C271.388 347.44 271.217 346.489 270.875 345.667C270.539 344.845 270.032 344.203 269.354 343.741C268.676 343.279 267.83 343.045 266.816 343.039C265.802 343.039 264.959 343.27 264.287 343.732C263.615 344.194 263.108 344.839 262.766 345.667C262.43 346.489 262.259 347.44 262.253 348.52C262.247 349.6 262.412 350.551 262.748 351.373C263.09 352.189 263.6 352.831 264.278 353.299C264.956 353.761 265.802 353.995 266.816 354.001ZM274.594 355V342.04H284.521V355H283.198V343.309H275.917V355H274.594ZM286.139 355L290.603 342.04H292.358L296.822 355H295.445L291.206 342.778H291.728L287.516 355H286.139ZM288.128 351.859V350.617H294.824V351.859H288.128ZM303.343 355.27C302.053 355.27 300.964 354.985 300.076 354.415C299.188 353.839 298.516 353.044 298.06 352.03C297.604 351.016 297.376 349.846 297.376 348.52C297.376 347.194 297.604 346.024 298.06 345.01C298.516 343.996 299.188 343.204 300.076 342.634C300.964 342.058 302.053 341.77 303.343 341.77C304.849 341.77 306.079 342.157 307.033 342.931C307.987 343.699 308.641 344.731 308.995 346.027L307.645 346.378C307.369 345.352 306.874 344.539 306.16 343.939C305.446 343.339 304.507 343.039 303.343 343.039C302.329 343.039 301.486 343.27 300.814 343.732C300.142 344.194 299.635 344.839 299.293 345.667C298.957 346.489 298.783 347.44 298.771 348.52C298.765 349.6 298.93 350.551 299.266 351.373C299.608 352.195 300.118 352.84 300.796 353.308C301.48 353.77 302.329 354.001 303.343 354.001C304.507 354.001 305.446 353.701 306.16 353.101C306.874 352.495 307.369 351.682 307.645 350.662L308.995 351.013C308.641 352.309 307.987 353.344 307.033 354.118C306.079 354.886 304.849 355.27 303.343 355.27ZM310.981 355V342.04H312.304V347.881H319.468V342.04H320.782V355H319.468V349.15H312.304V355H310.981ZM328.55 355.27C327.26 355.27 326.171 354.985 325.283 354.415C324.395 353.839 323.723 353.044 323.267 352.03C322.811 351.016 322.583 349.846 322.583 348.52C322.583 347.194 322.811 346.024 323.267 345.01C323.723 343.996 324.395 343.204 325.283 342.634C326.171 342.058 327.26 341.77 328.55 341.77C329.846 341.77 330.935 342.058 331.817 342.634C332.705 343.204 333.377 343.996 333.833 345.01C334.295 346.024 334.526 347.194 334.526 348.52C334.526 349.846 334.295 351.016 333.833 352.03C333.377 353.044 332.705 353.839 331.817 354.415C330.935 354.985 329.846 355.27 328.55 355.27ZM328.55 354.001C329.564 354.001 330.41 353.77 331.088 353.308C331.766 352.846 332.273 352.204 332.609 351.382C332.951 350.554 333.122 349.6 333.122 348.52C333.122 347.44 332.951 346.489 332.609 345.667C332.273 344.845 331.766 344.203 331.088 343.741C330.41 343.279 329.564 343.045 328.55 343.039C327.536 343.039 326.693 343.27 326.021 343.732C325.349 344.194 324.842 344.839 324.5 345.667C324.164 346.489 323.993 347.44 323.987 348.52C323.981 349.6 324.146 350.551 324.482 351.373C324.824 352.189 325.334 352.831 326.012 353.299C326.69 353.761 327.536 353.995 328.55 354.001ZM341.575 355.27C340.285 355.27 339.196 354.985 338.308 354.415C337.42 353.839 336.748 353.044 336.292 352.03C335.836 351.016 335.608 349.846 335.608 348.52C335.608 347.194 335.836 346.024 336.292 345.01C336.748 343.996 337.42 343.204 338.308 342.634C339.196 342.058 340.285 341.77 341.575 341.77C343.081 341.77 344.311 342.157 345.265 342.931C346.219 343.699 346.873 344.731 347.227 346.027L345.877 346.378C345.601 345.352 345.106 344.539 344.392 343.939C343.678 343.339 342.739 343.039 341.575 343.039C340.561 343.039 339.718 343.27 339.046 343.732C338.374 344.194 337.867 344.839 337.525 345.667C337.189 346.489 337.015 347.44 337.003 348.52C336.997 349.6 337.162 350.551 337.498 351.373C337.84 352.195 338.35 352.84 339.028 353.308C339.712 353.77 340.561 354.001 341.575 354.001C342.739 354.001 343.678 353.701 344.392 353.101C345.106 352.495 345.601 351.682 345.877 350.662L347.227 351.013C346.873 352.309 346.219 353.344 345.265 354.118C344.311 354.886 343.081 355.27 341.575 355.27ZM352.66 355V343.309H348.133V342.04H358.51V343.309H353.983V355H352.66ZM369.754 355H368.422V344.371L361.285 355H359.953V342.04H361.285V352.66L368.422 342.04H369.754V355Z" fill="white"></path> <rect x="20" y="20" width="79" height="40" rx="20" fill="white" fill-opacity="0.3"></rect> <path d="M33.2372 46V34.48H34.5332L38.8852 43.656L43.2132 34.48H44.5252V45.992H43.1732V37.608L39.2612 46H38.5012L34.5892 37.608V46H33.2372ZM51.5044 46.24C50.3578 46.24 49.3844 45.9867 48.5844 45.48C47.7844 44.9733 47.1738 44.2693 46.7524 43.368C46.3364 42.4667 46.1284 41.424 46.1284 40.24C46.1284 39.056 46.3364 38.0133 46.7524 37.112C47.1738 36.2107 47.7844 35.5067 48.5844 35C49.3844 34.4933 50.3578 34.24 51.5044 34.24C52.6564 34.24 53.6324 34.4933 54.4324 35C55.2324 35.5067 55.8404 36.2107 56.2564 37.112C56.6724 38.0133 56.8804 39.056 56.8804 40.24C56.8804 41.424 56.6724 42.4667 56.2564 43.368C55.8404 44.2693 55.2324 44.9733 54.4324 45.48C53.6324 45.9867 52.6564 46.24 51.5044 46.24ZM51.5044 44.88C52.3631 44.8853 53.0778 44.6933 53.6484 44.304C54.2244 43.9093 54.6538 43.3627 54.9364 42.664C55.2244 41.9653 55.3684 41.1573 55.3684 40.24C55.3684 39.3173 55.2244 38.5093 54.9364 37.816C54.6538 37.1227 54.2244 36.5813 53.6484 36.192C53.0778 35.8027 52.3631 35.6053 51.5044 35.6C50.6458 35.5947 49.9311 35.7867 49.3604 36.176C48.7951 36.5653 48.3684 37.1093 48.0804 37.808C47.7924 38.5067 47.6458 39.3173 47.6404 40.24C47.6351 41.1573 47.7764 41.9627 48.0644 42.656C48.3524 43.3493 48.7818 43.8933 49.3524 44.288C49.9284 44.6773 50.6458 44.8747 51.5044 44.88ZM58.4872 46V34.48H59.9272L65.9352 43.48V34.48H67.3752V46H65.9352L59.9272 36.992V46H58.4872ZM69.6122 46V34.48H76.8922V35.832H71.0362V39.44H75.9322V40.792H71.0362V44.648H76.8922V46H69.6122ZM81.5753 46V41.208L77.6953 34.48H79.3513L82.2953 39.576L85.2313 34.48H86.8873L83.0153 41.208V46H81.5753Z" fill="white"></path> <defs> <linearGradient id="paint0_linear_160_91" x1="300" y1="0" x2="300" y2="400" gradientUnits="userSpaceOnUse"> <stop stop-color="#303FC5"></stop> <stop offset="1" stop-color="#25598A"></stop> </linearGradient> </defs> </svg> 