<?xml version="1.0" encoding="UTF-8"?> <svg xmlns="http://www.w3.org/2000/svg" width="600" height="400" viewBox="0 0 600 400" fill="none"><rect width="600" height="400" rx="20" fill="#A11717"></rect><path d="M52.9015 188.032C52.2855 188.208 51.7135 188.296 51.1855 188.296C49.7775 188.296 48.4282 187.68 47.1375 186.448C47.3135 185.803 47.6068 185.333 48.0175 185.04C48.4282 184.717 48.8388 184.468 49.2495 184.292C49.6602 184.116 49.9388 183.999 50.0855 183.94C51.6695 183.265 53.3268 182.679 55.0575 182.18C55.7908 181.945 56.2455 181.476 56.4215 180.772C56.9495 178.983 57.3602 177.223 57.6535 175.492C57.9468 173.732 58.2988 171.371 58.7095 168.408L58.8855 167.044C58.9148 166.956 58.9295 166.824 58.9295 166.648C58.9295 166.032 58.6215 165.607 58.0055 165.372C57.8002 165.284 57.5655 165.137 57.3015 164.932C57.0375 164.697 56.8322 164.521 56.6855 164.404L55.6295 164.932C54.7788 165.313 53.8108 165.783 52.7255 166.34C52.3442 166.545 51.9482 166.648 51.5375 166.648C51.0975 166.648 50.6282 166.545 50.1295 166.34C49.6602 166.105 49.3815 165.973 49.2935 165.944C49.0295 165.827 48.8095 165.651 48.6335 165.416C48.4868 165.181 48.4135 164.932 48.4135 164.668C48.4135 164.316 48.5308 163.979 48.7655 163.656C49.0882 163.187 49.5868 162.703 50.2615 162.204C52.9015 160.239 55.6882 159.256 58.6215 159.256C59.9708 159.256 61.3055 159.447 62.6255 159.828C63.8575 160.209 64.9282 160.532 65.8375 160.796C66.7762 161.031 67.5535 161.236 68.1695 161.412L70.9415 162.204C71.0002 162.204 71.1175 162.219 71.2935 162.248C71.4988 162.277 71.6455 162.336 71.7335 162.424C71.9095 162.571 72.0855 162.776 72.2615 163.04C72.4668 163.275 72.6282 163.465 72.7455 163.612C72.5988 163.729 72.3935 163.905 72.1295 164.14C71.8948 164.375 71.6748 164.492 71.4695 164.492C71.2348 164.521 70.8682 164.536 70.3695 164.536C69.9882 164.536 69.4162 164.507 68.6535 164.448L67.6855 164.404L64.5615 164.052L64.3415 165.636C63.9602 168.393 63.6228 170.579 63.3295 172.192C63.0948 173.6 62.7135 175.492 62.1855 177.868L61.6575 180.464C63.6522 180.2 65.0015 180.024 65.7055 179.936C67.2895 179.76 68.4775 179.672 69.2695 179.672C70.2375 179.672 71.0442 179.804 71.6895 180.068C72.3348 180.332 72.7895 180.875 73.0535 181.696C72.7602 182.077 72.4228 182.356 72.0415 182.532C71.6895 182.708 71.3228 182.84 70.9415 182.928C70.5895 183.016 70.3695 183.075 70.2815 183.104L69.4455 183.368C67.6855 183.896 66.4828 184.204 65.8375 184.292C64.4588 184.497 63.1095 184.791 61.7895 185.172C60.4988 185.553 58.8855 186.067 56.9495 186.712C55.6882 187.181 54.3388 187.621 52.9015 188.032ZM106.117 172.896C105.413 172.955 104.9 172.984 104.577 172.984C102.407 173.131 100.735 173.292 99.5614 173.468C98.9161 173.585 98.1241 174.377 97.1854 175.844C96.3934 177.076 95.8508 179.027 95.5574 181.696L95.0734 183.28C94.9268 183.808 94.7068 184.263 94.4134 184.644C94.2374 184.849 94.0028 185.025 93.7094 185.172C93.4454 185.289 93.1668 185.348 92.8734 185.348C93.0201 185.348 92.9614 185.187 92.6974 184.864C92.1108 184.072 91.6708 183.441 91.3774 182.972C91.1134 182.473 90.9814 181.916 90.9814 181.3C90.9814 181.036 91.0254 180.728 91.1134 180.376C91.2601 179.936 91.3481 179.496 91.3774 179.056C91.4361 178.88 91.4948 178.631 91.5534 178.308C91.6121 177.956 91.6854 177.663 91.7734 177.428C91.8614 177.164 91.9054 176.915 91.9054 176.68C91.9054 176.035 91.5681 175.419 90.8934 174.832C89.8961 173.981 89.3974 173.204 89.3974 172.5C89.3974 171.679 90.0428 170.916 91.3334 170.212C91.4508 170.153 91.6121 170.051 91.8174 169.904C92.0521 169.757 92.2574 169.669 92.4334 169.64C93.0494 169.493 93.4894 169.215 93.7534 168.804C94.0468 168.393 94.2961 167.821 94.5014 167.088C95.0588 165.152 95.6748 163.069 96.3494 160.84L96.8334 159.256C96.8921 159.051 97.0534 158.669 97.3174 158.112C98.6081 158.083 99.5174 158.435 100.045 159.168C100.603 159.901 100.881 160.855 100.881 162.028C100.881 162.204 100.852 162.468 100.793 162.82L100.397 164.58L100.133 165.548L99.6934 167.88L102.025 168.056L107.613 168.54L109.109 163.92L109.461 162.424C110.312 161.309 111.06 161.045 111.705 161.632C112.321 162.189 112.849 162.82 113.289 163.524C113.759 164.199 113.993 164.976 113.993 165.856C113.993 166.707 113.744 167.792 113.245 169.112C113.48 169.259 113.759 169.391 114.081 169.508C114.404 169.596 114.624 169.655 114.741 169.684C115.651 169.948 116.355 170.256 116.853 170.608C117.352 170.96 117.66 171.591 117.777 172.5C117.425 173.057 116.956 173.424 116.369 173.6C115.783 173.776 115.093 173.82 114.301 173.732C114.008 173.703 113.627 173.688 113.157 173.688C112.512 173.688 112.087 173.82 111.881 174.084C111.676 174.348 111.427 174.964 111.133 175.932L110.605 177.648C109.901 179.936 109.388 181.769 109.065 183.148C108.772 184.527 108.567 185.964 108.449 187.46C108.449 187.577 108.435 187.827 108.405 188.208C108.405 188.56 108.317 188.839 108.141 189.044C107.965 189.279 107.687 189.396 107.305 189.396C106.337 189.484 105.751 188.971 105.545 187.856C104.841 186.301 104.489 184.805 104.489 183.368C104.489 182.752 104.519 182.283 104.577 181.96C104.9 180.083 105.325 177.692 105.853 174.788L106.117 172.896ZM123.552 186.404C122.906 186.404 122.364 186.243 121.924 185.92C121.513 185.597 121.22 184.996 121.044 184.116C121.982 184.204 122.672 183.999 123.112 183.5C123.581 183.001 124.006 182.253 124.388 181.256L125.312 178.616C125.488 178.147 125.928 176.915 126.632 174.92C127.365 172.925 128.113 171.063 128.876 169.332C129.873 166.985 131.398 164.14 133.452 160.796C133.98 159.975 134.61 159.359 135.344 158.948C136.077 158.508 136.854 158.288 137.676 158.288C138.409 158.288 139.113 158.479 139.788 158.86C140.492 159.212 141.108 159.74 141.636 160.444C142.076 161.031 142.472 161.676 142.824 162.38C143.176 163.055 143.616 163.964 144.144 165.108L144.98 166.868C145.185 167.337 145.346 167.983 145.464 168.804C145.61 170.153 146.212 170.989 147.268 171.312C147.414 171.371 147.576 171.517 147.752 171.752C147.928 171.957 148.074 172.133 148.192 172.28C147.312 172.867 146.872 173.644 146.872 174.612C146.872 175.14 147.004 175.873 147.268 176.812C147.62 178.073 147.972 179.496 148.324 181.08C148.705 182.635 148.954 183.691 149.072 184.248L149.6 186.668C149.629 186.785 149.644 186.947 149.644 187.152L149.6 188.34C149.336 188.428 148.984 188.56 148.544 188.736C148.104 188.912 147.737 189 147.444 189C146.652 189 145.772 188.824 144.804 188.472C144.422 188.355 144.173 188.164 144.056 187.9C143.968 187.607 143.924 187.255 143.924 186.844C143.924 186.433 143.909 186.14 143.88 185.964L143.66 184.732C142.692 179.423 142.12 176.475 141.944 175.888C141.24 176.093 140.345 176.24 139.26 176.328C137.969 176.504 137.074 176.665 136.576 176.812C136.312 176.9 135.857 176.944 135.212 176.944L133.408 176.9C132.586 176.9 131.97 176.988 131.56 177.164C131.325 177.281 130.797 178.44 129.976 180.64C129.36 182.224 128.978 183.148 128.832 183.412C128.274 184.439 127.541 185.201 126.632 185.7C125.722 186.169 124.696 186.404 123.552 186.404ZM133.496 172.016C134.053 171.928 134.698 171.884 135.432 171.884H137.016C137.954 171.884 138.746 171.84 139.392 171.752C140.066 171.635 140.668 171.415 141.196 171.092C140.961 170.447 140.433 169.332 139.612 167.748C138.702 165.959 138.072 164.565 137.72 163.568C136.605 165.357 135.71 166.883 135.036 168.144C134.39 169.405 133.877 170.696 133.496 172.016ZM166.012 188.164C165.865 188.369 165.645 188.707 165.352 189.176C165.058 189.675 164.736 190.056 164.384 190.32C164.032 190.613 163.606 190.789 163.108 190.848C160.526 189.733 159.118 187.885 158.884 185.304C158.678 183.72 158.282 181.227 157.696 177.824C157.256 175.243 156.698 172.339 156.024 169.112C155.965 168.877 155.789 168.599 155.496 168.276C155.232 167.953 155.056 167.719 154.968 167.572C154.88 167.425 154.718 167.147 154.484 166.736C154.249 166.296 154.102 165.885 154.044 165.504C154.014 164.976 154.132 164.551 154.396 164.228C154.66 163.905 155.041 163.744 155.54 163.744C155.716 163.744 155.862 163.759 155.98 163.788C157.124 164.052 158.062 164.419 158.796 164.888C159.558 165.357 160.13 166.076 160.512 167.044C161.098 168.569 161.524 170.109 161.788 171.664C162.052 173.189 162.316 175.213 162.58 177.736L162.712 178.924C162.741 179.1 162.814 179.613 162.932 180.464L163.108 181.52C163.841 180.845 164.472 180.156 165 179.452C165.557 178.719 166.173 177.853 166.848 176.856L167.64 175.712L171.556 170.124C174.489 165.812 176.836 162.468 178.596 160.092C178.948 159.623 179.373 159.153 179.872 158.684C180.4 158.215 180.913 157.76 181.412 157.32C182.057 156.792 182.526 156.381 182.82 156.088C183.23 155.677 183.597 155.472 183.92 155.472C184.125 155.472 184.33 155.575 184.536 155.78C184.741 156.015 184.917 156.293 185.064 156.616C185.21 156.939 185.284 157.247 185.284 157.54C185.284 158.068 184.99 158.743 184.404 159.564L182.82 161.764C181.969 162.879 181.236 163.891 180.62 164.8C179.74 166.149 179.065 167.161 178.596 167.836C177.334 169.743 176.293 171.341 175.472 172.632C174.68 173.923 173.932 175.228 173.228 176.548C171.38 180.039 168.974 183.911 166.012 188.164ZM201.281 172.632C201.281 172.749 201.296 172.881 201.325 173.028C201.354 173.145 201.384 173.263 201.413 173.38C201.648 173.409 202 173.424 202.469 173.424C204.522 173.424 206.634 172.984 208.805 172.104C209.421 171.869 209.934 171.752 210.345 171.752C211.166 171.752 211.841 172.133 212.369 172.896C212.633 173.307 212.765 173.659 212.765 173.952C212.765 174.304 212.574 174.671 212.193 175.052C211.02 176.137 209.773 176.753 208.453 176.9C207.28 177.047 205.52 177.296 203.173 177.648L200.093 178.088C199.624 179.115 199.389 180.112 199.389 181.08C199.389 182.488 199.873 183.661 200.841 184.6C201.838 185.509 203.188 185.993 204.889 186.052C206.62 186.081 208.834 185.964 211.533 185.7L212.193 185.656C212.926 185.656 213.528 185.832 213.997 186.184C214.496 186.507 214.965 187.093 215.405 187.944C215.082 188.648 214.628 189.117 214.041 189.352C213.454 189.616 212.692 189.807 211.753 189.924C210.785 190.041 209.685 190.1 208.453 190.1C205.784 190.1 203.378 189.675 201.237 188.824C197.453 187.357 195.033 184.82 193.977 181.212C193.83 180.713 193.757 180.185 193.757 179.628C193.757 179.041 193.757 178.689 193.757 178.572C193.757 177.575 193.273 176.841 192.305 176.372C191.513 175.932 190.897 175.507 190.457 175.096C190.046 174.685 189.782 174.069 189.665 173.248L194.637 172.94L196.881 166.472C196.94 166.267 196.998 166.017 197.057 165.724C197.145 165.401 197.233 165.152 197.321 164.976C197.585 164.389 197.717 163.905 197.717 163.524C197.717 162.937 197.438 162.424 196.881 161.984C196.676 161.837 196.5 161.573 196.353 161.192C196.236 160.781 196.118 160.459 196.001 160.224L196.969 159.916C197.438 159.799 197.776 159.696 197.981 159.608C198.098 159.549 198.348 159.447 198.729 159.3C199.11 159.124 199.33 158.933 199.389 158.728C199.594 158.229 199.844 157.892 200.137 157.716C200.46 157.54 200.841 157.452 201.281 157.452C201.574 157.452 202.014 157.481 202.601 157.54C202.777 157.54 202.953 157.584 203.129 157.672C203.334 157.731 203.496 157.819 203.613 157.936C204.288 158.64 205.036 159.109 205.857 159.344C206.678 159.579 207.646 159.696 208.761 159.696H210.653H214.349C216.842 159.696 218.705 159.725 219.937 159.784C220.582 159.813 221.404 160.092 222.401 160.62C222.577 160.708 222.709 160.884 222.797 161.148C222.914 161.383 222.973 161.617 222.973 161.852C222.973 161.969 222.87 162.116 222.665 162.292C222.46 162.439 222.269 162.541 222.093 162.6C220.098 163.128 218.588 163.436 217.561 163.524C215.977 163.671 213.601 163.861 210.433 164.096C209.7 164.125 208.526 164.199 206.913 164.316C206.796 164.316 206.59 164.287 206.297 164.228C206.004 164.14 205.784 164.096 205.637 164.096C204.552 164.096 203.862 164.551 203.569 165.46C202.777 167.807 202.029 170.139 201.325 172.456L201.281 172.632ZM237.591 186.404C236.945 186.404 236.403 186.243 235.963 185.92C235.552 185.597 235.259 184.996 235.083 184.116C236.021 184.204 236.711 183.999 237.151 183.5C237.62 183.001 238.045 182.253 238.427 181.256L239.351 178.616C239.527 178.147 239.967 176.915 240.671 174.92C241.404 172.925 242.152 171.063 242.915 169.332C243.912 166.985 245.437 164.14 247.491 160.796C248.019 159.975 248.649 159.359 249.383 158.948C250.116 158.508 250.893 158.288 251.715 158.288C252.448 158.288 253.152 158.479 253.827 158.86C254.531 159.212 255.147 159.74 255.675 160.444C256.115 161.031 256.511 161.676 256.863 162.38C257.215 163.055 257.655 163.964 258.183 165.108L259.019 166.868C259.224 167.337 259.385 167.983 259.503 168.804C259.649 170.153 260.251 170.989 261.307 171.312C261.453 171.371 261.615 171.517 261.791 171.752C261.967 171.957 262.113 172.133 262.231 172.28C261.351 172.867 260.911 173.644 260.911 174.612C260.911 175.14 261.043 175.873 261.307 176.812C261.659 178.073 262.011 179.496 262.363 181.08C262.744 182.635 262.993 183.691 263.111 184.248L263.639 186.668C263.668 186.785 263.683 186.947 263.683 187.152L263.639 188.34C263.375 188.428 263.023 188.56 262.583 188.736C262.143 188.912 261.776 189 261.483 189C260.691 189 259.811 188.824 258.843 188.472C258.461 188.355 258.212 188.164 258.095 187.9C258.007 187.607 257.963 187.255 257.963 186.844C257.963 186.433 257.948 186.14 257.919 185.964L257.699 184.732C256.731 179.423 256.159 176.475 255.983 175.888C255.279 176.093 254.384 176.24 253.299 176.328C252.008 176.504 251.113 176.665 250.615 176.812C250.351 176.9 249.896 176.944 249.251 176.944L247.447 176.9C246.625 176.9 246.009 176.988 245.599 177.164C245.364 177.281 244.836 178.44 244.015 180.64C243.399 182.224 243.017 183.148 242.871 183.412C242.313 184.439 241.58 185.201 240.671 185.7C239.761 186.169 238.735 186.404 237.591 186.404ZM247.535 172.016C248.092 171.928 248.737 171.884 249.471 171.884H251.055C251.993 171.884 252.785 171.84 253.431 171.752C254.105 171.635 254.707 171.415 255.235 171.092C255 170.447 254.472 169.332 253.651 167.748C252.741 165.959 252.111 164.565 251.759 163.568C250.644 165.357 249.749 166.883 249.075 168.144C248.429 169.405 247.916 170.696 247.535 172.016ZM296.727 172.896C296.023 172.955 295.509 172.984 295.187 172.984C293.016 173.131 291.344 173.292 290.171 173.468C289.525 173.585 288.733 174.377 287.795 175.844C287.003 177.076 286.46 179.027 286.167 181.696L285.683 183.28C285.536 183.808 285.316 184.263 285.023 184.644C284.847 184.849 284.612 185.025 284.319 185.172C284.055 185.289 283.776 185.348 283.483 185.348C283.629 185.348 283.571 185.187 283.307 184.864C282.72 184.072 282.28 183.441 281.987 182.972C281.723 182.473 281.591 181.916 281.591 181.3C281.591 181.036 281.635 180.728 281.723 180.376C281.869 179.936 281.957 179.496 281.987 179.056C282.045 178.88 282.104 178.631 282.163 178.308C282.221 177.956 282.295 177.663 282.383 177.428C282.471 177.164 282.515 176.915 282.515 176.68C282.515 176.035 282.177 175.419 281.503 174.832C280.505 173.981 280.007 173.204 280.007 172.5C280.007 171.679 280.652 170.916 281.943 170.212C282.06 170.153 282.221 170.051 282.427 169.904C282.661 169.757 282.867 169.669 283.043 169.64C283.659 169.493 284.099 169.215 284.363 168.804C284.656 168.393 284.905 167.821 285.111 167.088C285.668 165.152 286.284 163.069 286.959 160.84L287.443 159.256C287.501 159.051 287.663 158.669 287.927 158.112C289.217 158.083 290.127 158.435 290.655 159.168C291.212 159.901 291.491 160.855 291.491 162.028C291.491 162.204 291.461 162.468 291.403 162.82L291.007 164.58L290.743 165.548L290.303 167.88L292.635 168.056L298.223 168.54L299.719 163.92L300.071 162.424C300.921 161.309 301.669 161.045 302.315 161.632C302.931 162.189 303.459 162.82 303.899 163.524C304.368 164.199 304.603 164.976 304.603 165.856C304.603 166.707 304.353 167.792 303.855 169.112C304.089 169.259 304.368 169.391 304.691 169.508C305.013 169.596 305.233 169.655 305.351 169.684C306.26 169.948 306.964 170.256 307.463 170.608C307.961 170.96 308.269 171.591 308.387 172.5C308.035 173.057 307.565 173.424 306.979 173.6C306.392 173.776 305.703 173.82 304.911 173.732C304.617 173.703 304.236 173.688 303.767 173.688C303.121 173.688 302.696 173.82 302.491 174.084C302.285 174.348 302.036 174.964 301.743 175.932L301.215 177.648C300.511 179.936 299.997 181.769 299.675 183.148C299.381 184.527 299.176 185.964 299.059 187.46C299.059 187.577 299.044 187.827 299.015 188.208C299.015 188.56 298.927 188.839 298.751 189.044C298.575 189.279 298.296 189.396 297.915 189.396C296.947 189.484 296.36 188.971 296.155 187.856C295.451 186.301 295.099 184.805 295.099 183.368C295.099 182.752 295.128 182.283 295.187 181.96C295.509 180.083 295.935 177.692 296.463 174.788L296.727 172.896ZM334.973 165.416C335.149 166.677 335.325 168.511 335.501 170.916L335.589 173.204C335.589 177.457 336.146 181.256 337.261 184.6C337.408 185.069 337.481 185.671 337.481 186.404C337.481 186.815 337.452 187.372 337.393 188.076C337.364 188.545 337.188 188.912 336.865 189.176C336.542 189.469 336.132 189.616 335.633 189.616C335.574 189.616 335.413 189.587 335.149 189.528C334.416 189.352 333.858 189.029 333.477 188.56C333.096 188.061 332.905 187.46 332.905 186.756C332.905 186.521 332.92 186.345 332.949 186.228C332.949 186.052 332.949 185.803 332.949 185.48C332.949 184.952 332.92 184.468 332.861 184.028C332.626 182.884 332.26 181.359 331.761 179.452C331.585 178.66 331.218 178.264 330.661 178.264C330.456 178.264 330.221 178.308 329.957 178.396C329.048 178.66 328.241 178.909 327.537 179.144C326.862 179.379 326.261 179.569 325.733 179.716L323.621 180.332C322.418 180.684 321.304 180.963 320.277 181.168C319.192 181.403 318.4 182.004 317.901 182.972C317.432 183.852 316.757 185.04 315.877 186.536C315.32 187.533 314.586 188.032 313.677 188.032C313.237 188.032 312.797 187.929 312.357 187.724C311.946 187.489 311.594 187.196 311.301 186.844C310.861 186.345 310.641 185.861 310.641 185.392C310.641 185.069 310.729 184.732 310.905 184.38L313.941 178.22C317.285 171.415 319.28 167.337 319.925 165.988C321.773 162.409 324.281 159.945 327.449 158.596C328.124 158.273 328.813 158.112 329.517 158.112C330.397 158.112 331.204 158.347 331.937 158.816C332.7 159.256 333.286 159.887 333.697 160.708C334.284 161.911 334.709 163.48 334.973 165.416ZM320.761 176.548C324.78 175.844 328.197 175.272 331.013 174.832C330.954 172.016 330.866 169.801 330.749 168.188C330.661 166.545 330.456 164.903 330.133 163.26C328.578 163.436 327.405 164.199 326.613 165.548C325.234 167.719 323.914 169.963 322.653 172.28C322.448 172.661 322.066 173.512 321.509 174.832L320.761 176.548ZM352.165 172.588C352.106 172.412 351.96 172.177 351.725 171.884C351.52 171.591 351.344 171.341 351.197 171.136C350.669 172.661 350.273 174.172 350.009 175.668C349.745 177.164 349.613 178.44 349.613 179.496C349.613 180.552 349.76 181.564 350.053 182.532C350.317 183.441 350.449 184.439 350.449 185.524C350.449 186.199 350.302 186.697 350.009 187.02C349.716 187.343 349.232 187.607 348.557 187.812C347.941 187.988 347.134 188.12 346.137 188.208L344.729 188.34C344.67 188.223 344.465 187.841 344.113 187.196C343.79 186.609 343.57 186.184 343.453 185.92C343.336 185.627 343.292 185.333 343.321 185.04C343.38 184.688 343.409 184.395 343.409 184.16C343.438 183.896 343.453 183.676 343.453 183.5C343.453 183.353 343.468 183.089 343.497 182.708C343.526 182.327 343.57 181.989 343.629 181.696C344.01 179.261 344.48 177.032 345.037 175.008C345.624 172.984 346.401 171.077 347.369 169.288C347.516 169.024 347.648 168.789 347.765 168.584C347.882 168.379 347.985 168.203 348.073 168.056C348.161 167.939 348.396 167.528 348.777 166.824C349.1 166.237 349.51 165.768 350.009 165.416C350.508 165.064 350.948 164.771 351.329 164.536C351.71 164.272 352.209 164.067 352.825 163.92C353.06 163.861 353.25 163.832 353.397 163.832C354.16 163.861 354.673 164.243 354.937 164.976L359.425 176.944C360.276 179.232 361.009 181.051 361.625 182.4C361.889 181.843 362.08 181.3 362.197 180.772C362.344 180.244 362.461 179.745 362.549 179.276C363.576 173.761 365.849 168.364 369.369 163.084C369.662 162.791 370.029 162.468 370.469 162.116C370.909 161.735 371.232 161.456 371.437 161.28C372.258 161.925 372.669 162.571 372.669 163.216C372.669 163.597 372.537 164.081 372.273 164.668C372.126 165.02 371.745 165.768 371.129 166.912L370.205 168.76C369.296 170.637 368.665 172.632 368.313 174.744C367.961 176.856 367.697 179.305 367.521 182.092C367.462 182.884 367.433 184.087 367.433 185.7C367.404 186.111 367.389 186.712 367.389 187.504C367.389 188.472 367.228 189.176 366.905 189.616C366.612 190.056 366.01 190.423 365.101 190.716C364.426 190.892 363.62 191.039 362.681 191.156L361.405 191.376C360.32 190.203 359.41 188.971 358.677 187.68C357.973 186.389 357.152 184.688 356.213 182.576C355.861 181.696 355.142 179.921 354.057 177.252C352.972 174.553 352.341 172.999 352.165 172.588ZM397.116 159.52C398.729 159.725 400.078 160.561 401.164 162.028C400.782 162.585 400.372 162.996 399.932 163.26C399.521 163.495 399.008 163.627 398.392 163.656C395.84 163.685 393.654 163.788 391.836 163.964C390.046 164.14 388.14 164.727 386.116 165.724C384.121 166.721 382.992 168.32 382.728 170.52C381.936 172.133 381.54 174.025 381.54 176.196C381.54 177.311 381.672 178.733 381.936 180.464C382.288 182.693 383.388 183.808 385.236 183.808C385.705 183.808 386.072 183.779 386.336 183.72C387.89 183.456 389.445 182.869 391 181.96C391.88 181.403 392.76 180.772 393.64 180.068C394.52 179.335 395.048 178.909 395.224 178.792L396.368 177.868C396.69 177.575 396.925 177.311 397.072 177.076C397.248 176.812 397.336 176.489 397.336 176.108C397.336 175.961 397.306 175.741 397.248 175.448C396.25 175.536 394.784 175.639 392.848 175.756L391.572 175.844C391.014 175.903 390.178 175.961 389.064 176.02C387.861 176.02 386.908 175.741 386.204 175.184C385.529 174.597 385.001 173.644 384.62 172.324C384.708 172.265 384.81 172.177 384.928 172.06C385.045 171.943 385.148 171.884 385.236 171.884L386.776 171.708C390.149 171.297 392.716 171.048 394.476 170.96C395.913 170.872 397.585 170.989 399.492 171.312C402.132 171.752 403.452 172.969 403.452 174.964C403.452 175.697 403.305 176.46 403.012 177.252C402.865 177.692 402.63 178.205 402.308 178.792C401.633 180.229 400.709 181.476 399.536 182.532C398.362 183.588 396.94 184.6 395.268 185.568C393.948 186.36 392.789 186.976 391.792 187.416C390.794 187.856 389.738 188.12 388.624 188.208C388.36 188.237 387.949 188.252 387.392 188.252C384.84 188.252 382.522 187.387 380.44 185.656C379.413 184.776 378.621 183.837 378.064 182.84C377.536 181.813 377.228 180.655 377.14 179.364C377.081 178.484 377.052 177.868 377.052 177.516C377.052 175.844 377.257 174.289 377.668 172.852C378.078 171.385 378.856 169.112 380 166.032C381.144 163.539 382.992 161.793 385.544 160.796C388.096 159.769 390.794 159.256 393.64 159.256C394.842 159.256 396.001 159.344 397.116 159.52ZM437.032 173.248C437.12 175.037 436.724 176.929 435.844 178.924C434.993 180.919 433.791 182.723 432.236 184.336C430.711 185.949 429.024 187.108 427.176 187.812C425.328 188.516 423.509 188.868 421.72 188.868C419.872 188.868 418.112 188.501 416.44 187.768C414.797 187.005 413.287 185.891 411.908 184.424C410.999 183.485 410.236 182.327 409.62 180.948C409.004 179.54 408.549 178.088 408.256 176.592C407.992 175.213 407.86 173.864 407.86 172.544C407.86 169.523 408.549 166.853 409.928 164.536C410.779 163.099 411.747 161.999 412.832 161.236C413.947 160.444 415.252 160.048 416.748 160.048C416.983 160.048 417.393 160.077 417.98 160.136C419.241 160.312 420.796 160.429 422.644 160.488C424.463 160.547 425.812 160.635 426.692 160.752C428.305 160.928 429.728 161.5 430.96 162.468C432.221 163.436 433.38 164.683 434.436 166.208C434.876 166.853 435.257 167.528 435.58 168.232C435.932 168.936 436.313 169.801 436.724 170.828L437.648 172.984L437.032 173.248ZM422.644 183.94C424.257 183.383 425.724 182.488 427.044 181.256C428.364 180.024 429.391 178.587 430.124 176.944C430.857 175.301 431.18 173.629 431.092 171.928C430.916 169.141 430.549 167.088 429.992 165.768C429.435 164.448 428.54 163.524 427.308 162.996C426.105 162.468 424.257 162.116 421.764 161.94C421.5 161.911 421.221 161.896 420.928 161.896L418.024 165.02C417.203 165.959 416.645 166.707 416.352 167.264C415.032 169.699 414.372 172.617 414.372 176.02C414.372 177.164 414.401 178.029 414.46 178.616C414.577 180.464 415.135 181.901 416.132 182.928C417.129 183.925 418.405 184.424 419.96 184.424C420.723 184.424 421.617 184.263 422.644 183.94ZM454.031 188.164C453.885 188.369 453.665 188.707 453.371 189.176C453.078 189.675 452.755 190.056 452.403 190.32C452.051 190.613 451.626 190.789 451.127 190.848C448.546 189.733 447.138 187.885 446.903 185.304C446.698 183.72 446.302 181.227 445.715 177.824C445.275 175.243 444.718 172.339 444.043 169.112C443.985 168.877 443.809 168.599 443.515 168.276C443.251 167.953 443.075 167.719 442.987 167.572C442.899 167.425 442.738 167.147 442.503 166.736C442.269 166.296 442.122 165.885 442.063 165.504C442.034 164.976 442.151 164.551 442.415 164.228C442.679 163.905 443.061 163.744 443.559 163.744C443.735 163.744 443.882 163.759 443.999 163.788C445.143 164.052 446.082 164.419 446.815 164.888C447.578 165.357 448.15 166.076 448.531 167.044C449.118 168.569 449.543 170.109 449.807 171.664C450.071 173.189 450.335 175.213 450.599 177.736L450.731 178.924C450.761 179.1 450.834 179.613 450.951 180.464L451.127 181.52C451.861 180.845 452.491 180.156 453.019 179.452C453.577 178.719 454.193 177.853 454.867 176.856L455.659 175.712L459.575 170.124C462.509 165.812 464.855 162.468 466.615 160.092C466.967 159.623 467.393 159.153 467.891 158.684C468.419 158.215 468.933 157.76 469.431 157.32C470.077 156.792 470.546 156.381 470.839 156.088C471.25 155.677 471.617 155.472 471.939 155.472C472.145 155.472 472.35 155.575 472.555 155.78C472.761 156.015 472.937 156.293 473.083 156.616C473.23 156.939 473.303 157.247 473.303 157.54C473.303 158.068 473.01 158.743 472.423 159.564L470.839 161.764C469.989 162.879 469.255 163.891 468.639 164.8C467.759 166.149 467.085 167.161 466.615 167.836C465.354 169.743 464.313 171.341 463.491 172.632C462.699 173.923 461.951 175.228 461.247 176.548C459.399 180.039 456.994 183.911 454.031 188.164ZM489.3 172.632C489.3 172.749 489.315 172.881 489.344 173.028C489.374 173.145 489.403 173.263 489.432 173.38C489.667 173.409 490.019 173.424 490.488 173.424C492.542 173.424 494.654 172.984 496.824 172.104C497.44 171.869 497.954 171.752 498.364 171.752C499.186 171.752 499.86 172.133 500.388 172.896C500.652 173.307 500.784 173.659 500.784 173.952C500.784 174.304 500.594 174.671 500.212 175.052C499.039 176.137 497.792 176.753 496.472 176.9C495.299 177.047 493.539 177.296 491.192 177.648L488.112 178.088C487.643 179.115 487.408 180.112 487.408 181.08C487.408 182.488 487.892 183.661 488.86 184.6C489.858 185.509 491.207 185.993 492.908 186.052C494.639 186.081 496.854 185.964 499.552 185.7L500.212 185.656C500.946 185.656 501.547 185.832 502.016 186.184C502.515 186.507 502.984 187.093 503.424 187.944C503.102 188.648 502.647 189.117 502.06 189.352C501.474 189.616 500.711 189.807 499.772 189.924C498.804 190.041 497.704 190.1 496.472 190.1C493.803 190.1 491.398 189.675 489.256 188.824C485.472 187.357 483.052 184.82 481.996 181.212C481.85 180.713 481.776 180.185 481.776 179.628C481.776 179.041 481.776 178.689 481.776 178.572C481.776 177.575 481.292 176.841 480.324 176.372C479.532 175.932 478.916 175.507 478.476 175.096C478.066 174.685 477.802 174.069 477.684 173.248L482.656 172.94L484.9 166.472C484.959 166.267 485.018 166.017 485.076 165.724C485.164 165.401 485.252 165.152 485.34 164.976C485.604 164.389 485.736 163.905 485.736 163.524C485.736 162.937 485.458 162.424 484.9 161.984C484.695 161.837 484.519 161.573 484.372 161.192C484.255 160.781 484.138 160.459 484.02 160.224L484.988 159.916C485.458 159.799 485.795 159.696 486 159.608C486.118 159.549 486.367 159.447 486.748 159.3C487.13 159.124 487.35 158.933 487.408 158.728C487.614 158.229 487.863 157.892 488.156 157.716C488.479 157.54 488.86 157.452 489.3 157.452C489.594 157.452 490.034 157.481 490.62 157.54C490.796 157.54 490.972 157.584 491.148 157.672C491.354 157.731 491.515 157.819 491.632 157.936C492.307 158.64 493.055 159.109 493.876 159.344C494.698 159.579 495.666 159.696 496.78 159.696H498.672H502.368C504.862 159.696 506.724 159.725 507.956 159.784C508.602 159.813 509.423 160.092 510.42 160.62C510.596 160.708 510.728 160.884 510.816 161.148C510.934 161.383 510.992 161.617 510.992 161.852C510.992 161.969 510.89 162.116 510.684 162.292C510.479 162.439 510.288 162.541 510.112 162.6C508.118 163.128 506.607 163.436 505.58 163.524C503.996 163.671 501.62 163.861 498.452 164.096C497.719 164.125 496.546 164.199 494.932 164.316C494.815 164.316 494.61 164.287 494.316 164.228C494.023 164.14 493.803 164.096 493.656 164.096C492.571 164.096 491.882 164.551 491.588 165.46C490.796 167.807 490.048 170.139 489.344 172.456L489.3 172.632ZM537.622 184.776C537.71 185.069 537.754 185.348 537.754 185.612C537.754 186.081 537.608 186.463 537.314 186.756C537.05 187.02 536.684 187.152 536.214 187.152C536.038 187.152 535.892 187.137 535.774 187.108C534.454 186.815 533.413 186.492 532.65 186.14C532.064 185.876 530.978 185.216 529.394 184.16C528.192 183.368 527.194 182.752 526.402 182.312C525.376 181.755 524.276 181.373 523.102 181.168C522.574 181.08 521.328 180.933 519.362 180.728C518.482 180.669 517.837 180.611 517.426 180.552L516.634 187.064L516.678 187.768C516.678 188.824 516.546 189.528 516.282 189.88C516.048 190.232 515.549 190.408 514.786 190.408C513.994 190.408 513.305 190.159 512.718 189.66C512.132 189.161 511.838 188.545 511.838 187.812C511.838 185.583 511.956 183.603 512.19 181.872C513.012 176.563 514.904 171.048 517.866 165.328C519.538 162.131 522.105 159.667 525.566 157.936C526.681 157.379 527.81 157.1 528.954 157.1C530.128 157.1 531.213 157.408 532.21 158.024C533.237 158.611 534.088 159.476 534.762 160.62C535.378 161.647 535.686 162.644 535.686 163.612C535.686 164.961 535.158 166.325 534.102 167.704C532.841 169.347 531.052 171.679 528.734 174.7L525.874 178.396C525.904 178.396 525.933 178.44 525.962 178.528C526.021 178.587 526.08 178.645 526.138 178.704L527.106 179.232C529.541 180.552 531.33 181.593 532.474 182.356C533.589 183.031 534.777 183.368 536.038 183.368C536.42 183.368 536.713 183.353 536.918 183.324C537.006 183.471 537.124 183.691 537.27 183.984C537.417 184.277 537.534 184.541 537.622 184.776ZM521.342 176.064C522.545 174.715 523.748 173.307 524.95 171.84C526.182 170.373 527.268 168.995 528.206 167.704C528.588 167.176 528.91 166.619 529.174 166.032C529.438 165.416 529.673 164.8 529.878 164.184C530.113 163.568 530.274 163.128 530.362 162.864C530.392 162.776 530.406 162.629 530.406 162.424C530.406 162.189 530.377 161.896 530.318 161.544C530.26 161.192 530.216 160.943 530.186 160.796C528.045 161.441 526.094 162.761 524.334 164.756C522.574 166.751 521.181 168.965 520.154 171.4C519.157 173.835 518.644 175.932 518.614 177.692C519.201 177.751 519.656 177.648 519.978 177.384C520.33 177.12 520.785 176.68 521.342 176.064ZM552.602 165.68C552.338 167.44 552.133 168.672 551.986 169.376C551.605 171.107 550.901 173.952 549.874 177.912C549.405 179.555 548.98 180.743 548.598 181.476C548.188 182.356 547.601 183.148 546.838 183.852C546.633 184.057 546.34 184.16 545.958 184.16C545.782 184.16 545.606 184.101 545.43 183.984C545.254 183.808 545.093 183.544 544.946 183.192C544.829 182.811 544.77 182.473 544.77 182.18C544.858 181.183 545.049 180.053 545.342 178.792C546.838 172.573 547.704 166.795 547.938 161.456L547.982 160.796C548.041 159.652 548.202 158.831 548.466 158.332C548.76 157.804 549.214 157.54 549.83 157.54C550.329 157.54 550.857 157.892 551.414 158.596C552.001 159.3 552.338 160.019 552.426 160.752L552.866 164.096L552.602 165.68ZM544.462 190.232C543.788 189.939 543.274 189.543 542.922 189.044C542.6 188.575 542.438 187.973 542.438 187.24C542.438 186.653 542.512 186.111 542.658 185.612C542.922 185.671 543.333 185.759 543.89 185.876C544.448 185.993 544.917 186.111 545.298 186.228C545.797 186.375 546.237 186.609 546.618 186.932C547.176 187.401 547.454 187.944 547.454 188.56C547.454 188.941 547.337 189.293 547.102 189.616C546.692 190.203 546.164 190.496 545.518 190.496C545.166 190.496 544.814 190.408 544.462 190.232Z" fill="white"></path><path d="M67.0266 250V234.16H69.6776V250H67.0266ZM77.3769 250V234.16H80.0279V240.826H87.5299V234.16H90.1699V250H87.5299V243.312H80.0279V250H77.3769ZM92.1539 250L97.1479 234.16H101.031L106.025 250H103.297L98.7649 235.788H99.3589L94.8819 250H92.1539ZM94.9369 246.568V244.093H103.253V246.568H94.9369ZM110.031 250L105.037 234.16H107.765L111.945 247.426L116.18 234.16H118.908L113.914 250H110.031ZM120.561 250V234.16H130.791V236.646H123.212V240.551H129.471V243.037H123.212V247.514H130.791V250H120.561ZM137.834 250V234.16H144.115C145.186 234.16 146.062 234.376 146.744 234.809C147.433 235.234 147.943 235.781 148.273 236.448C148.61 237.115 148.779 237.805 148.779 238.516C148.779 239.389 148.57 240.129 148.152 240.738C147.741 241.347 147.18 241.757 146.469 241.97V241.42C147.466 241.647 148.222 242.12 148.735 242.839C149.256 243.558 149.516 244.375 149.516 245.292C149.516 246.231 149.336 247.052 148.977 247.756C148.618 248.46 148.082 249.01 147.371 249.406C146.667 249.802 145.794 250 144.753 250H137.834ZM140.518 247.503H144.423C144.885 247.503 145.299 247.411 145.666 247.228C146.033 247.037 146.319 246.773 146.524 246.436C146.737 246.091 146.843 245.684 146.843 245.215C146.843 244.79 146.751 244.408 146.568 244.071C146.385 243.734 146.117 243.466 145.765 243.268C145.413 243.063 144.991 242.96 144.5 242.96H140.518V247.503ZM140.518 240.485H144.082C144.463 240.485 144.804 240.412 145.105 240.265C145.406 240.118 145.644 239.902 145.82 239.616C145.996 239.33 146.084 238.978 146.084 238.56C146.084 238.01 145.908 237.552 145.556 237.185C145.204 236.818 144.713 236.635 144.082 236.635H140.518V240.485ZM151.713 250V234.16H161.943V236.646H154.364V240.551H160.623V243.037H154.364V247.514H161.943V250H151.713ZM164.582 250V234.16H174.812V236.646H167.233V240.551H173.492V243.037H167.233V247.514H174.812V250H164.582ZM177.451 250V234.16H180.135L187.483 245.325V234.16H190.167V250H187.483L180.135 238.835V250H177.451ZM197.646 250V234.16H202.695C202.827 234.16 203.088 234.164 203.476 234.171C203.872 234.178 204.254 234.204 204.62 234.248C205.874 234.409 206.934 234.857 207.799 235.59C208.672 236.316 209.332 237.244 209.779 238.373C210.227 239.502 210.45 240.738 210.45 242.08C210.45 243.422 210.227 244.658 209.779 245.787C209.332 246.916 208.672 247.848 207.799 248.581C206.934 249.307 205.874 249.751 204.62 249.912C204.261 249.956 203.883 249.982 203.487 249.989C203.091 249.996 202.827 250 202.695 250H197.646ZM200.341 247.503H202.695C202.915 247.503 203.194 247.496 203.531 247.481C203.876 247.466 204.18 247.433 204.444 247.382C205.192 247.243 205.801 246.909 206.27 246.381C206.74 245.853 207.084 245.211 207.304 244.456C207.532 243.701 207.645 242.909 207.645 242.08C207.645 241.222 207.532 240.415 207.304 239.66C207.077 238.905 206.725 238.27 206.248 237.757C205.779 237.244 205.178 236.917 204.444 236.778C204.18 236.719 203.876 236.686 203.531 236.679C203.194 236.664 202.915 236.657 202.695 236.657H200.341V247.503ZM213.051 250V234.16H219.596C219.75 234.16 219.948 234.167 220.19 234.182C220.432 234.189 220.655 234.211 220.861 234.248C221.777 234.387 222.533 234.692 223.127 235.161C223.728 235.63 224.172 236.224 224.458 236.943C224.751 237.654 224.898 238.446 224.898 239.319C224.898 240.61 224.571 241.721 223.919 242.652C223.266 243.576 222.265 244.148 220.916 244.368L219.783 244.467H215.702V250H213.051ZM222.148 250L219.024 243.554L221.719 242.96L225.151 250H222.148ZM215.702 241.992H219.486C219.632 241.992 219.797 241.985 219.981 241.97C220.164 241.955 220.333 241.926 220.487 241.882C220.927 241.772 221.271 241.578 221.521 241.299C221.777 241.02 221.957 240.705 222.06 240.353C222.17 240.001 222.225 239.656 222.225 239.319C222.225 238.982 222.17 238.637 222.06 238.285C221.957 237.926 221.777 237.607 221.521 237.328C221.271 237.049 220.927 236.855 220.487 236.745C220.333 236.701 220.164 236.675 219.981 236.668C219.797 236.653 219.632 236.646 219.486 236.646H215.702V241.992ZM227.794 250V234.16H230.445V250H227.794ZM233.74 250V234.16H236.424L243.772 245.325V234.16H246.456V250H243.772L236.424 238.835V250H233.74ZM249.531 250V234.16H252.182V241.508L258.507 234.16H261.763L254.954 241.926L262.225 250H258.859L252.182 242.608V250H249.531ZM263.995 250V234.16H266.646V250H263.995ZM269.941 250V234.16H272.625L279.973 245.325V234.16H282.657V250H279.973L272.625 238.835V250H269.941ZM292.266 250.33C291.24 250.33 290.275 250.15 289.373 249.791C288.479 249.424 287.69 248.889 287.008 248.185C286.334 247.481 285.806 246.619 285.424 245.6C285.043 244.573 284.852 243.4 284.852 242.08C284.852 240.349 285.175 238.872 285.82 237.647C286.466 236.415 287.349 235.473 288.471 234.82C289.593 234.16 290.858 233.83 292.266 233.83C294.217 233.83 295.761 234.285 296.897 235.194C298.041 236.096 298.815 237.365 299.218 239L296.512 239.429C296.212 238.49 295.72 237.742 295.038 237.185C294.356 236.62 293.487 236.338 292.431 236.338C291.368 236.323 290.484 236.554 289.78 237.031C289.076 237.508 288.545 238.179 288.185 239.044C287.833 239.909 287.657 240.921 287.657 242.08C287.657 243.239 287.833 244.247 288.185 245.105C288.537 245.956 289.065 246.619 289.769 247.096C290.481 247.573 291.368 247.818 292.431 247.833C293.231 247.84 293.931 247.697 294.532 247.404C295.134 247.103 295.625 246.652 296.006 246.051C296.388 245.442 296.644 244.683 296.776 243.774H293.982V241.695H299.592C299.607 241.812 299.618 241.985 299.625 242.212C299.633 242.439 299.636 242.575 299.636 242.619C299.636 244.115 299.339 245.446 298.745 246.612C298.159 247.771 297.315 248.68 296.215 249.34C295.115 250 293.799 250.33 292.266 250.33ZM306.25 250V234.16H312.531C313.602 234.16 314.478 234.376 315.16 234.809C315.849 235.234 316.359 235.781 316.689 236.448C317.026 237.115 317.195 237.805 317.195 238.516C317.195 239.389 316.986 240.129 316.568 240.738C316.157 241.347 315.596 241.757 314.885 241.97V241.42C315.882 241.647 316.638 242.12 317.151 242.839C317.672 243.558 317.932 244.375 317.932 245.292C317.932 246.231 317.752 247.052 317.393 247.756C317.034 248.46 316.498 249.01 315.787 249.406C315.083 249.802 314.21 250 313.169 250H306.25ZM308.934 247.503H312.839C313.301 247.503 313.715 247.411 314.082 247.228C314.449 247.037 314.735 246.773 314.94 246.436C315.153 246.091 315.259 245.684 315.259 245.215C315.259 244.79 315.167 244.408 314.984 244.071C314.801 243.734 314.533 243.466 314.181 243.268C313.829 243.063 313.407 242.96 312.916 242.96H308.934V247.503ZM308.934 240.485H312.498C312.879 240.485 313.22 240.412 313.521 240.265C313.822 240.118 314.06 239.902 314.236 239.616C314.412 239.33 314.5 238.978 314.5 238.56C314.5 238.01 314.324 237.552 313.972 237.185C313.62 236.818 313.129 236.635 312.498 236.635H308.934V240.485ZM326.828 250.33C325.244 250.33 323.887 249.985 322.758 249.296C321.629 248.599 320.76 247.631 320.151 246.392C319.55 245.153 319.249 243.715 319.249 242.08C319.249 240.445 319.55 239.007 320.151 237.768C320.76 236.529 321.629 235.564 322.758 234.875C323.887 234.178 325.244 233.83 326.828 233.83C328.412 233.83 329.769 234.178 330.898 234.875C332.035 235.564 332.904 236.529 333.505 237.768C334.114 239.007 334.418 240.445 334.418 242.08C334.418 243.715 334.114 245.153 333.505 246.392C332.904 247.631 332.035 248.599 330.898 249.296C329.769 249.985 328.412 250.33 326.828 250.33ZM326.828 247.833C327.891 247.84 328.775 247.606 329.479 247.129C330.19 246.652 330.722 245.981 331.074 245.116C331.433 244.251 331.613 243.239 331.613 242.08C331.613 240.921 331.433 239.917 331.074 239.066C330.722 238.208 330.19 237.541 329.479 237.064C328.775 236.587 327.891 236.342 326.828 236.327C325.765 236.32 324.881 236.554 324.177 237.031C323.473 237.508 322.941 238.179 322.582 239.044C322.23 239.909 322.054 240.921 322.054 242.08C322.054 243.239 322.23 244.247 322.582 245.105C322.934 245.956 323.462 246.619 324.166 247.096C324.877 247.573 325.765 247.818 326.828 247.833ZM343.306 250.33C341.722 250.33 340.366 249.985 339.236 249.296C338.107 248.599 337.238 247.631 336.629 246.392C336.028 245.153 335.727 243.715 335.727 242.08C335.727 240.445 336.028 239.007 336.629 237.768C337.238 236.529 338.107 235.564 339.236 234.875C340.366 234.178 341.722 233.83 343.306 233.83C344.89 233.83 346.247 234.178 347.376 234.875C348.513 235.564 349.382 236.529 349.983 237.768C350.592 239.007 350.896 240.445 350.896 242.08C350.896 243.715 350.592 245.153 349.983 246.392C349.382 247.631 348.513 248.599 347.376 249.296C346.247 249.985 344.89 250.33 343.306 250.33ZM343.306 247.833C344.37 247.84 345.253 247.606 345.957 247.129C346.669 246.652 347.2 245.981 347.552 245.116C347.912 244.251 348.091 243.239 348.091 242.08C348.091 240.921 347.912 239.917 347.552 239.066C347.2 238.208 346.669 237.541 345.957 237.064C345.253 236.587 344.37 236.342 343.306 236.327C342.243 236.32 341.359 236.554 340.655 237.031C339.951 237.508 339.42 238.179 339.06 239.044C338.708 239.909 338.532 240.921 338.532 242.08C338.532 243.239 338.708 244.247 339.06 245.105C339.412 245.956 339.94 246.619 340.644 247.096C341.356 247.573 342.243 247.818 343.306 247.833ZM352.646 250V249.637L360.456 236.646H353.196V234.16H365.043V234.534L357.277 247.503H364.856V250H352.646ZM367.674 250V234.16H377.904V236.646H370.325V240.551H376.584V243.037H370.325V247.514H377.904V250H367.674ZM383.847 250L388.841 234.16H392.724L397.718 250H394.99L390.458 235.788H391.052L386.575 250H383.847ZM386.63 246.568V244.093H394.946V246.568H386.63ZM402.202 250V236.646H397.076V234.16H409.979V236.646H404.853V250H402.202ZM419.283 250V236.646H414.157V234.16H427.06V236.646H421.934V250H419.283ZM428.818 250V234.16H431.469V240.826H438.971V234.16H441.611V250H438.971V243.312H431.469V250H428.818ZM444.695 250V234.16H454.925V236.646H447.346V240.551H453.605V243.037H447.346V247.514H454.925V250H444.695ZM461.969 250V234.16H468.514C468.668 234.16 468.866 234.167 469.108 234.182C469.35 234.189 469.573 234.211 469.779 234.248C470.695 234.387 471.451 234.692 472.045 235.161C472.646 235.63 473.09 236.224 473.376 236.943C473.669 237.654 473.816 238.446 473.816 239.319C473.816 240.184 473.669 240.976 473.376 241.695C473.082 242.406 472.635 242.997 472.034 243.466C471.44 243.935 470.688 244.24 469.779 244.379C469.573 244.408 469.346 244.43 469.097 244.445C468.855 244.46 468.66 244.467 468.514 244.467H464.62V250H461.969ZM464.62 241.992H468.404C468.55 241.992 468.715 241.985 468.899 241.97C469.082 241.955 469.251 241.926 469.405 241.882C469.845 241.772 470.189 241.578 470.439 241.299C470.695 241.02 470.875 240.705 470.978 240.353C471.088 240.001 471.143 239.656 471.143 239.319C471.143 238.982 471.088 238.637 470.978 238.285C470.875 237.926 470.695 237.607 470.439 237.328C470.189 237.049 469.845 236.855 469.405 236.745C469.251 236.701 469.082 236.675 468.899 236.668C468.715 236.653 468.55 236.646 468.404 236.646H464.62V241.992ZM473.824 250L478.818 234.16H482.701L487.695 250H484.967L480.435 235.788H481.029L476.552 250H473.824ZM476.607 246.568V244.093H484.923V246.568H476.607ZM489.684 250V234.16H496.229C496.383 234.16 496.581 234.167 496.823 234.182C497.065 234.189 497.288 234.211 497.494 234.248C498.41 234.387 499.166 234.692 499.76 235.161C500.361 235.63 500.805 236.224 501.091 236.943C501.384 237.654 501.531 238.446 501.531 239.319C501.531 240.61 501.204 241.721 500.552 242.652C499.899 243.576 498.898 244.148 497.549 244.368L496.416 244.467H492.335V250H489.684ZM498.781 250L495.657 243.554L498.352 242.96L501.784 250H498.781ZM492.335 241.992H496.119C496.265 241.992 496.43 241.985 496.614 241.97C496.797 241.955 496.966 241.926 497.12 241.882C497.56 241.772 497.904 241.578 498.154 241.299C498.41 241.02 498.59 240.705 498.693 240.353C498.803 240.001 498.858 239.656 498.858 239.319C498.858 238.982 498.803 238.637 498.693 238.285C498.59 237.926 498.41 237.607 498.154 237.328C497.904 237.049 497.56 236.855 497.12 236.745C496.966 236.701 496.797 236.675 496.614 236.668C496.43 236.653 496.265 236.646 496.119 236.646H492.335V241.992ZM508.013 250V236.646H502.887V234.16H515.79V236.646H510.664V250H508.013ZM522.065 250V243.51L516.675 234.16H519.766L523.407 240.474L527.037 234.16H530.128L524.749 243.51V250H522.065ZM529.032 250V247.283H531.749V250H529.032Z" fill="#FFACC0"></path></svg> 