<?xml version="1.0" encoding="UTF-8"?> <svg xmlns="http://www.w3.org/2000/svg" width="600" height="400" viewBox="0 0 600 400" fill="none"><rect width="600" height="400" rx="20" fill="#A11717"></rect><path d="M91.1007 188.032C90.4847 188.208 89.9127 188.296 89.3847 188.296C87.9767 188.296 86.6274 187.68 85.3367 186.448C85.5127 185.803 85.8061 185.333 86.2167 185.04C86.6274 184.717 87.0381 184.468 87.4487 184.292C87.8594 184.116 88.1381 183.999 88.2847 183.94C89.8687 183.265 91.5261 182.679 93.2567 182.18C93.9901 181.945 94.4447 181.476 94.6207 180.772C95.1487 178.983 95.5594 177.223 95.8527 175.492C96.1461 173.732 96.4981 171.371 96.9087 168.408L97.0847 167.044C97.1141 166.956 97.1287 166.824 97.1287 166.648C97.1287 166.032 96.8207 165.607 96.2047 165.372C95.9994 165.284 95.7647 165.137 95.5007 164.932C95.2367 164.697 95.0314 164.521 94.8847 164.404L93.8287 164.932C92.9781 165.313 92.0101 165.783 90.9247 166.34C90.5434 166.545 90.1474 166.648 89.7367 166.648C89.2967 166.648 88.8274 166.545 88.3287 166.34C87.8594 166.105 87.5807 165.973 87.4927 165.944C87.2287 165.827 87.0087 165.651 86.8327 165.416C86.6861 165.181 86.6127 164.932 86.6127 164.668C86.6127 164.316 86.7301 163.979 86.9647 163.656C87.2874 163.187 87.7861 162.703 88.4607 162.204C91.1007 160.239 93.8874 159.256 96.8207 159.256C98.1701 159.256 99.5047 159.447 100.825 159.828C102.057 160.209 103.127 160.532 104.037 160.796C104.975 161.031 105.753 161.236 106.369 161.412L109.141 162.204C109.199 162.204 109.317 162.219 109.493 162.248C109.698 162.277 109.845 162.336 109.933 162.424C110.109 162.571 110.285 162.776 110.461 163.04C110.666 163.275 110.827 163.465 110.945 163.612C110.798 163.729 110.593 163.905 110.329 164.14C110.094 164.375 109.874 164.492 109.669 164.492C109.434 164.521 109.067 164.536 108.569 164.536C108.187 164.536 107.615 164.507 106.853 164.448L105.885 164.404L102.761 164.052L102.541 165.636C102.159 168.393 101.822 170.579 101.529 172.192C101.294 173.6 100.913 175.492 100.385 177.868L99.8567 180.464C101.851 180.2 103.201 180.024 103.905 179.936C105.489 179.76 106.677 179.672 107.469 179.672C108.437 179.672 109.243 179.804 109.889 180.068C110.534 180.332 110.989 180.875 111.253 181.696C110.959 182.077 110.622 182.356 110.241 182.532C109.889 182.708 109.522 182.84 109.141 182.928C108.789 183.016 108.569 183.075 108.481 183.104L107.645 183.368C105.885 183.896 104.682 184.204 104.037 184.292C102.658 184.497 101.309 184.791 99.9887 185.172C98.6981 185.553 97.0847 186.067 95.1487 186.712C93.8874 187.181 92.5381 187.621 91.1007 188.032ZM129.181 186.404C128.535 186.404 127.993 186.243 127.553 185.92C127.142 185.597 126.849 184.996 126.673 184.116C127.611 184.204 128.301 183.999 128.741 183.5C129.21 183.001 129.635 182.253 130.017 181.256L130.941 178.616C131.117 178.147 131.557 176.915 132.261 174.92C132.994 172.925 133.742 171.063 134.505 169.332C135.502 166.985 137.027 164.14 139.081 160.796C139.609 159.975 140.239 159.359 140.973 158.948C141.706 158.508 142.483 158.288 143.305 158.288C144.038 158.288 144.742 158.479 145.417 158.86C146.121 159.212 146.737 159.74 147.265 160.444C147.705 161.031 148.101 161.676 148.453 162.38C148.805 163.055 149.245 163.964 149.773 165.108L150.609 166.868C150.814 167.337 150.975 167.983 151.093 168.804C151.239 170.153 151.841 170.989 152.897 171.312C153.043 171.371 153.205 171.517 153.381 171.752C153.557 171.957 153.703 172.133 153.821 172.28C152.941 172.867 152.501 173.644 152.501 174.612C152.501 175.14 152.633 175.873 152.897 176.812C153.249 178.073 153.601 179.496 153.953 181.08C154.334 182.635 154.583 183.691 154.701 184.248L155.229 186.668C155.258 186.785 155.273 186.947 155.273 187.152L155.229 188.34C154.965 188.428 154.613 188.56 154.173 188.736C153.733 188.912 153.366 189 153.073 189C152.281 189 151.401 188.824 150.433 188.472C150.051 188.355 149.802 188.164 149.685 187.9C149.597 187.607 149.553 187.255 149.553 186.844C149.553 186.433 149.538 186.14 149.509 185.964L149.289 184.732C148.321 179.423 147.749 176.475 147.573 175.888C146.869 176.093 145.974 176.24 144.889 176.328C143.598 176.504 142.703 176.665 142.205 176.812C141.941 176.9 141.486 176.944 140.841 176.944L139.037 176.9C138.215 176.9 137.599 176.988 137.189 177.164C136.954 177.281 136.426 178.44 135.605 180.64C134.989 182.224 134.607 183.148 134.461 183.412C133.903 184.439 133.17 185.201 132.261 185.7C131.351 186.169 130.325 186.404 129.181 186.404ZM139.125 172.016C139.682 171.928 140.327 171.884 141.061 171.884H142.645C143.583 171.884 144.375 171.84 145.021 171.752C145.695 171.635 146.297 171.415 146.825 171.092C146.59 170.447 146.062 169.332 145.241 167.748C144.331 165.959 143.701 164.565 143.349 163.568C142.234 165.357 141.339 166.883 140.665 168.144C140.019 169.405 139.506 170.696 139.125 172.016ZM172.917 161.5C173.239 161.559 173.958 162.688 175.073 164.888C176.187 167.059 177.551 169.875 179.165 173.336L180.573 176.284C181.189 175.609 181.761 174.832 182.289 173.952C182.817 173.043 183.477 171.825 184.269 170.3C185.178 168.569 185.809 167.455 186.161 166.956C187.569 164.815 189.094 162.541 190.737 160.136C190.942 159.813 191.309 159.593 191.837 159.476C191.925 159.447 192.071 159.432 192.277 159.432C192.981 159.432 193.758 159.725 194.609 160.312C195.489 160.899 196.061 161.5 196.325 162.116C196.383 162.233 196.413 162.453 196.413 162.776C196.413 163.069 196.398 163.289 196.369 163.436C196.31 163.7 196.237 164.037 196.149 164.448C196.09 164.829 196.031 165.284 195.973 165.812C195.034 172.969 194.359 178.337 193.949 181.916C193.831 182.737 193.773 183.661 193.773 184.688L193.685 186.096C193.655 186.389 193.641 186.727 193.641 187.108C193.641 187.489 193.597 187.753 193.509 187.9C193.421 188.047 193.259 188.12 193.025 188.12C192.849 188.12 192.585 188.076 192.233 187.988C191.294 187.783 190.575 187.416 190.077 186.888C189.578 186.331 189.299 185.568 189.241 184.6C189.211 184.101 189.197 183.324 189.197 182.268C189.197 181.183 189.226 179.525 189.285 177.296L189.329 174.876L189.417 171.4C189.153 171.635 188.478 172.559 187.393 174.172C186.337 175.756 185.295 177.413 184.269 179.144C183.242 180.875 182.567 182.209 182.245 183.148C181.951 183.881 181.658 184.424 181.365 184.776C181.101 185.128 180.778 185.304 180.397 185.304C180.045 185.304 179.59 185.143 179.033 184.82C177.449 183.852 176.481 182.517 176.129 180.816C175.571 178.205 174.882 175.492 174.061 172.676C173.914 172.148 173.621 171.429 173.181 170.52C172.77 169.611 172.506 169.039 172.389 168.804L171.817 167.66C167.534 173.351 164.63 178.572 163.105 183.324C162.811 184.321 162.533 185.04 162.269 185.48C162.005 185.891 161.697 186.096 161.345 186.096C160.787 186.096 159.995 185.597 158.969 184.6C158.177 183.896 157.781 183.104 157.781 182.224C157.781 181.755 157.869 181.285 158.045 180.816C159.277 177.179 161.11 173.732 163.545 170.476L164.909 168.672C166.757 166.237 168.15 164.331 169.089 162.952C169.793 161.925 170.731 161.412 171.905 161.412C172.11 161.412 172.447 161.441 172.917 161.5ZM223.41 172.632C223.41 172.749 223.424 172.881 223.454 173.028C223.483 173.145 223.512 173.263 223.542 173.38C223.776 173.409 224.128 173.424 224.598 173.424C226.651 173.424 228.763 172.984 230.934 172.104C231.55 171.869 232.063 171.752 232.474 171.752C233.295 171.752 233.97 172.133 234.498 172.896C234.762 173.307 234.894 173.659 234.894 173.952C234.894 174.304 234.703 174.671 234.322 175.052C233.148 176.137 231.902 176.753 230.582 176.9C229.408 177.047 227.648 177.296 225.302 177.648L222.222 178.088C221.752 179.115 221.518 180.112 221.518 181.08C221.518 182.488 222.002 183.661 222.97 184.6C223.967 185.509 225.316 185.993 227.018 186.052C228.748 186.081 230.963 185.964 233.662 185.7L234.322 185.656C235.055 185.656 235.656 185.832 236.126 186.184C236.624 186.507 237.094 187.093 237.534 187.944C237.211 188.648 236.756 189.117 236.17 189.352C235.583 189.616 234.82 189.807 233.882 189.924C232.914 190.041 231.814 190.1 230.582 190.1C227.912 190.1 225.507 189.675 223.366 188.824C219.582 187.357 217.162 184.82 216.106 181.212C215.959 180.713 215.886 180.185 215.886 179.628C215.886 179.041 215.886 178.689 215.886 178.572C215.886 177.575 215.402 176.841 214.434 176.372C213.642 175.932 213.026 175.507 212.586 175.096C212.175 174.685 211.911 174.069 211.794 173.248L216.766 172.94L219.01 166.472C219.068 166.267 219.127 166.017 219.186 165.724C219.274 165.401 219.362 165.152 219.45 164.976C219.714 164.389 219.846 163.905 219.846 163.524C219.846 162.937 219.567 162.424 219.01 161.984C218.804 161.837 218.628 161.573 218.482 161.192C218.364 160.781 218.247 160.459 218.13 160.224L219.098 159.916C219.567 159.799 219.904 159.696 220.11 159.608C220.227 159.549 220.476 159.447 220.858 159.3C221.239 159.124 221.459 158.933 221.518 158.728C221.723 158.229 221.972 157.892 222.266 157.716C222.588 157.54 222.97 157.452 223.41 157.452C223.703 157.452 224.143 157.481 224.73 157.54C224.906 157.54 225.082 157.584 225.258 157.672C225.463 157.731 225.624 157.819 225.742 157.936C226.416 158.64 227.164 159.109 227.986 159.344C228.807 159.579 229.775 159.696 230.89 159.696H232.782H236.478C238.971 159.696 240.834 159.725 242.066 159.784C242.711 159.813 243.532 160.092 244.53 160.62C244.706 160.708 244.838 160.884 244.926 161.148C245.043 161.383 245.102 161.617 245.102 161.852C245.102 161.969 244.999 162.116 244.794 162.292C244.588 162.439 244.398 162.541 244.222 162.6C242.227 163.128 240.716 163.436 239.69 163.524C238.106 163.671 235.73 163.861 232.562 164.096C231.828 164.125 230.655 164.199 229.042 164.316C228.924 164.316 228.719 164.287 228.426 164.228C228.132 164.14 227.912 164.096 227.766 164.096C226.68 164.096 225.991 164.551 225.698 165.46C224.906 167.807 224.158 170.139 223.454 172.456L223.41 172.632ZM248.896 187.328C248.162 187.299 247.59 187.064 247.18 186.624C246.769 186.184 246.446 185.465 246.212 184.468C246.652 184.82 247.121 184.996 247.62 184.996C248.001 184.996 248.573 184.849 249.336 184.556C250.333 184.175 251.272 183.661 252.152 183.016C253.032 182.371 253.97 181.579 254.968 180.64L257.036 178.528L258.4 177.076L257.432 175.8C256.61 174.627 255.965 173.835 255.496 173.424C254.44 172.456 253.486 171.972 252.636 171.972C251.726 171.972 250.788 172.544 249.82 173.688L249.028 174.7L248.632 174.524C248.661 174.319 248.676 173.996 248.676 173.556C248.676 173.38 248.661 173.013 248.632 172.456C248.632 171.869 248.705 171.341 248.852 170.872C248.998 170.403 249.233 169.977 249.556 169.596C250.084 168.98 250.685 168.511 251.36 168.188C252.064 167.865 252.797 167.704 253.56 167.704C254.586 167.704 255.613 167.997 256.64 168.584C257.109 168.877 257.505 169.2 257.828 169.552C258.18 169.904 258.605 170.417 259.104 171.092L259.764 171.928C259.969 172.163 260.16 172.397 260.336 172.632C260.512 172.837 260.673 173.043 260.82 173.248C260.937 173.424 261.142 173.688 261.436 174.04C263.489 171.664 266.334 168.393 269.972 164.228L273.8 159.828C273.8 159.828 274.416 160.239 275.648 161.06C276.821 161.881 277.408 162.864 277.408 164.008C277.408 164.771 277.1 165.533 276.484 166.296C276.278 166.531 275.677 167.147 274.68 168.144L273.36 169.42L264.868 178.352L265.528 179.144C266.261 180.053 266.848 180.669 267.288 180.992C269.077 182.341 271.38 183.955 274.196 185.832C274.753 186.213 275.164 186.565 275.428 186.888C275.721 187.211 275.868 187.621 275.868 188.12C275.868 188.355 275.824 188.648 275.736 189C274.474 189.059 273.301 188.853 272.216 188.384C271.13 187.885 269.884 187.152 268.476 186.184C267.537 185.539 265.85 184.277 263.416 182.4C262.506 181.696 262.096 181.373 262.184 181.432L260.6 182.576C260.306 182.811 259.837 183.133 259.192 183.544C258.693 183.867 258.18 184.219 257.652 184.6C257.124 184.981 256.684 185.363 256.332 185.744C255.716 186.389 255.041 186.844 254.308 187.108C253.574 187.343 252.753 187.46 251.844 187.46C251.521 187.46 251.037 187.431 250.392 187.372L248.896 187.328ZM299.477 172.896C298.773 172.955 298.259 172.984 297.937 172.984C295.766 173.131 294.094 173.292 292.921 173.468C292.275 173.585 291.483 174.377 290.545 175.844C289.753 177.076 289.21 179.027 288.917 181.696L288.433 183.28C288.286 183.808 288.066 184.263 287.773 184.644C287.597 184.849 287.362 185.025 287.069 185.172C286.805 185.289 286.526 185.348 286.233 185.348C286.379 185.348 286.321 185.187 286.057 184.864C285.47 184.072 285.03 183.441 284.737 182.972C284.473 182.473 284.341 181.916 284.341 181.3C284.341 181.036 284.385 180.728 284.473 180.376C284.619 179.936 284.707 179.496 284.737 179.056C284.795 178.88 284.854 178.631 284.913 178.308C284.971 177.956 285.045 177.663 285.133 177.428C285.221 177.164 285.265 176.915 285.265 176.68C285.265 176.035 284.927 175.419 284.253 174.832C283.255 173.981 282.757 173.204 282.757 172.5C282.757 171.679 283.402 170.916 284.693 170.212C284.81 170.153 284.971 170.051 285.177 169.904C285.411 169.757 285.617 169.669 285.793 169.64C286.409 169.493 286.849 169.215 287.113 168.804C287.406 168.393 287.655 167.821 287.861 167.088C288.418 165.152 289.034 163.069 289.709 160.84L290.193 159.256C290.251 159.051 290.413 158.669 290.677 158.112C291.967 158.083 292.877 158.435 293.405 159.168C293.962 159.901 294.241 160.855 294.241 162.028C294.241 162.204 294.211 162.468 294.153 162.82L293.757 164.58L293.493 165.548L293.053 167.88L295.385 168.056L300.973 168.54L302.469 163.92L302.821 162.424C303.671 161.309 304.419 161.045 305.065 161.632C305.681 162.189 306.209 162.82 306.649 163.524C307.118 164.199 307.353 164.976 307.353 165.856C307.353 166.707 307.103 167.792 306.605 169.112C306.839 169.259 307.118 169.391 307.441 169.508C307.763 169.596 307.983 169.655 308.101 169.684C309.01 169.948 309.714 170.256 310.213 170.608C310.711 170.96 311.019 171.591 311.137 172.5C310.785 173.057 310.315 173.424 309.729 173.6C309.142 173.776 308.453 173.82 307.661 173.732C307.367 173.703 306.986 173.688 306.517 173.688C305.871 173.688 305.446 173.82 305.241 174.084C305.035 174.348 304.786 174.964 304.493 175.932L303.965 177.648C303.261 179.936 302.747 181.769 302.425 183.148C302.131 184.527 301.926 185.964 301.809 187.46C301.809 187.577 301.794 187.827 301.765 188.208C301.765 188.56 301.677 188.839 301.501 189.044C301.325 189.279 301.046 189.396 300.665 189.396C299.697 189.484 299.11 188.971 298.905 187.856C298.201 186.301 297.849 184.805 297.849 183.368C297.849 182.752 297.878 182.283 297.937 181.96C298.259 180.083 298.685 177.692 299.213 174.788L299.477 172.896ZM316.911 186.404C316.266 186.404 315.723 186.243 315.283 185.92C314.872 185.597 314.579 184.996 314.403 184.116C315.342 184.204 316.031 183.999 316.471 183.5C316.94 183.001 317.366 182.253 317.747 181.256L318.671 178.616C318.847 178.147 319.287 176.915 319.991 174.92C320.724 172.925 321.472 171.063 322.235 169.332C323.232 166.985 324.758 164.14 326.811 160.796C327.339 159.975 327.97 159.359 328.703 158.948C329.436 158.508 330.214 158.288 331.035 158.288C331.768 158.288 332.472 158.479 333.147 158.86C333.851 159.212 334.467 159.74 334.995 160.444C335.435 161.031 335.831 161.676 336.183 162.38C336.535 163.055 336.975 163.964 337.503 165.108L338.339 166.868C338.544 167.337 338.706 167.983 338.823 168.804C338.97 170.153 339.571 170.989 340.627 171.312C340.774 171.371 340.935 171.517 341.111 171.752C341.287 171.957 341.434 172.133 341.551 172.28C340.671 172.867 340.231 173.644 340.231 174.612C340.231 175.14 340.363 175.873 340.627 176.812C340.979 178.073 341.331 179.496 341.683 181.08C342.064 182.635 342.314 183.691 342.431 184.248L342.959 186.668C342.988 186.785 343.003 186.947 343.003 187.152L342.959 188.34C342.695 188.428 342.343 188.56 341.903 188.736C341.463 188.912 341.096 189 340.803 189C340.011 189 339.131 188.824 338.163 188.472C337.782 188.355 337.532 188.164 337.415 187.9C337.327 187.607 337.283 187.255 337.283 186.844C337.283 186.433 337.268 186.14 337.239 185.964L337.019 184.732C336.051 179.423 335.479 176.475 335.303 175.888C334.599 176.093 333.704 176.24 332.619 176.328C331.328 176.504 330.434 176.665 329.935 176.812C329.671 176.9 329.216 176.944 328.571 176.944L326.767 176.9C325.946 176.9 325.33 176.988 324.919 177.164C324.684 177.281 324.156 178.44 323.335 180.64C322.719 182.224 322.338 183.148 322.191 183.412C321.634 184.439 320.9 185.201 319.991 185.7C319.082 186.169 318.055 186.404 316.911 186.404ZM326.855 172.016C327.412 171.928 328.058 171.884 328.791 171.884H330.375C331.314 171.884 332.106 171.84 332.751 171.752C333.426 171.635 334.027 171.415 334.555 171.092C334.32 170.447 333.792 169.332 332.971 167.748C332.062 165.959 331.431 164.565 331.079 163.568C329.964 165.357 329.07 166.883 328.395 168.144C327.75 169.405 327.236 170.696 326.855 172.016ZM374.067 176.68C373.95 177.413 373.715 179.32 373.363 182.4C373.158 184.16 373.04 185.069 373.011 185.128L369.139 184.512L369.931 175.008L369.447 175.36C369.183 175.595 368.816 175.961 368.347 176.46C367.907 176.929 367.511 177.355 367.159 177.736C366.015 179.32 365.179 180.391 364.651 180.948C363.36 182.297 362.172 183.427 361.087 184.336C360.031 185.216 358.77 186.023 357.303 186.756C356.716 187.049 355.998 187.196 355.147 187.196C354.414 187.196 353.71 187.064 353.035 186.8C352.36 186.536 351.788 186.14 351.319 185.612C349.002 183.089 347.843 180.039 347.843 176.46C347.843 175.433 347.931 174.377 348.107 173.292C348.342 171.884 348.635 170.505 348.987 169.156C349.339 167.777 349.823 166.003 350.439 163.832C350.644 163.216 350.923 162.292 351.275 161.06C351.422 160.473 351.642 160.136 351.935 160.048C352.052 159.989 352.155 159.96 352.243 159.96C352.566 159.96 352.947 160.092 353.387 160.356C354.355 160.913 355.044 161.456 355.455 161.984C355.895 162.512 356.115 163.113 356.115 163.788C356.115 164.58 355.807 165.621 355.191 166.912C353.372 170.784 352.463 174.348 352.463 177.604C352.463 178.455 352.492 179.085 352.551 179.496C352.61 180.171 352.947 180.772 353.563 181.3C354.179 181.828 354.854 182.092 355.587 182.092C356.379 182.092 357.068 181.799 357.655 181.212C360.706 178.161 363.214 175.067 365.179 171.928C367.144 168.789 368.684 165.343 369.799 161.588C369.916 161.148 370.048 160.723 370.195 160.312L370.283 160.224C372.014 160.4 373.378 161.075 374.375 162.248C375.372 163.392 375.812 164.815 375.695 166.516C374.903 171.209 374.36 174.597 374.067 176.68ZM394.568 182.708C394.715 182.62 394.832 182.473 394.92 182.268C395.037 182.033 395.125 181.857 395.184 181.74C394.92 181.183 394.583 180.757 394.172 180.464C393.791 180.141 393.248 179.804 392.544 179.452C392.133 179.305 391.723 179.085 391.312 178.792C390.901 178.499 390.417 178.22 389.86 177.956C389.303 177.692 388.936 177.516 388.76 177.428C387.587 176.841 386.721 176.387 386.164 176.064C384.961 175.301 383.817 174.363 382.732 173.248C381.265 171.811 380.532 170.168 380.532 168.32C380.532 166.912 380.957 165.387 381.808 163.744C382.717 162.043 383.905 160.664 385.372 159.608C386.839 158.552 388.584 157.716 390.608 157.1C390.784 157.012 390.975 156.968 391.18 156.968C391.385 156.968 391.591 156.953 391.796 156.924C392.001 156.895 392.221 156.88 392.456 156.88C393.219 156.88 393.732 157.159 393.996 157.716C394.26 158.215 394.392 158.743 394.392 159.3C394.392 159.916 394.231 160.517 393.908 161.104C393.761 161.368 393.512 161.588 393.16 161.764C392.837 161.94 392.5 162.057 392.148 162.116C390.945 162.263 389.831 162.629 388.804 163.216C387.777 163.803 386.692 164.58 385.548 165.548C385.255 165.783 384.991 166.076 384.756 166.428C384.111 167.249 383.788 167.865 383.788 168.276C383.788 168.804 384.228 169.376 385.108 169.992C386.105 170.725 387.205 171.459 388.408 172.192C389.64 172.896 390.388 173.336 390.652 173.512C391.356 173.893 391.767 174.128 391.884 174.216C392.324 174.509 392.749 174.759 393.16 174.964C394.304 175.668 394.876 176.02 394.876 176.02C395.903 176.724 396.695 177.619 397.252 178.704C397.839 179.789 398.132 180.933 398.132 182.136C398.132 183.837 397.604 185.348 396.548 186.668C395.609 187.9 394.509 188.941 393.248 189.792C391.987 190.643 390.373 191.596 388.408 192.652C388.203 192.769 387.968 192.828 387.704 192.828C387.088 192.828 386.545 192.564 386.076 192.036C385.607 191.508 385.416 190.936 385.504 190.32C385.563 189.704 385.739 189.205 386.032 188.824C386.325 188.443 386.78 188.091 387.396 187.768C388.305 187.269 389.185 186.727 390.036 186.14C390.887 185.524 391.943 184.732 393.204 183.764L394.568 182.708ZM413.752 173.82C413.84 172.617 413.928 171.517 414.016 170.52C414.104 169.493 414.192 168.569 414.28 167.748L414.632 164.228C412.344 164.58 409.909 165.255 407.328 166.252C406.712 166.487 406.14 166.604 405.612 166.604C404.82 166.604 404.087 166.384 403.412 165.944C402.767 165.504 402.253 164.859 401.872 164.008C402.048 163.363 402.371 162.879 402.84 162.556C403.339 162.233 404.013 161.911 404.864 161.588C408.941 160.092 413.605 159.359 418.856 159.388C421.349 159.388 423.945 159.491 426.644 159.696C429.372 159.901 430.971 160.019 431.44 160.048L434.52 160.268C434.637 160.268 434.828 160.268 435.092 160.268C435.385 160.268 435.62 160.341 435.796 160.488C435.972 160.605 436.06 160.811 436.06 161.104C436.06 161.837 435.532 162.263 434.476 162.38C431.836 162.673 429.959 162.879 428.844 162.996C427.7 163.055 426.835 163.113 426.248 163.172C423.96 163.319 422.244 163.436 421.1 163.524C420.396 163.583 419.912 163.671 419.648 163.788C419.384 163.876 419.208 164.052 419.12 164.316C419.061 164.551 419.003 165.064 418.944 165.856C418.797 167.704 418.489 170.887 418.02 175.404C417.551 179.481 417.257 182.297 417.14 183.852C417.111 184.703 416.92 185.729 416.568 186.932C416.333 187.695 416.143 188.208 415.996 188.472C415.849 188.707 415.629 188.853 415.336 188.912C415.072 188.971 414.559 188.985 413.796 188.956C413.239 188.956 412.799 188.839 412.476 188.604C412.183 188.34 412.036 187.988 412.036 187.548C412.036 187.46 412.065 187.269 412.124 186.976C412.769 184.424 413.312 180.039 413.752 173.82ZM445.509 172.192L447.093 171.972C448.237 171.796 449.014 171.693 449.425 171.664L450.481 171.576C450.833 171.547 451.273 171.517 451.801 171.488C452.329 171.459 452.93 171.444 453.605 171.444C454.25 171.444 454.719 171.459 455.013 171.488C456.039 171.576 456.787 171.913 457.257 172.5C457.755 173.087 458.049 173.967 458.137 175.14C458.019 175.14 457.843 175.125 457.609 175.096C457.374 175.067 457.183 175.037 457.037 175.008C456.215 174.861 455.467 174.788 454.793 174.788C454.001 174.788 453.238 174.891 452.505 175.096C450.627 175.683 448.222 176.299 445.289 176.944C444.731 177.091 444.291 177.325 443.969 177.648C443.675 177.941 443.485 178.367 443.397 178.924C443.221 180.039 443.001 181.153 442.737 182.268C442.531 183.295 442.37 184.145 442.253 184.82C442.223 185.055 442.209 185.363 442.209 185.744C442.209 186.096 442.209 186.345 442.209 186.492C442.678 186.58 443.162 186.624 443.661 186.624C444.629 186.624 445.817 186.433 447.225 186.052C449.806 185.436 452.402 184.776 455.013 184.072L459.853 182.84C461.378 182.459 462.581 182.121 463.461 181.828C465.367 181.3 466.746 180.933 467.597 180.728C467.949 180.669 468.213 180.64 468.389 180.64C469.122 180.64 469.606 180.933 469.841 181.52C469.929 181.725 469.973 181.931 469.973 182.136C469.973 182.488 469.855 182.825 469.621 183.148C469.386 183.471 469.063 183.735 468.653 183.94C468.095 184.175 467.333 184.424 466.365 184.688C463.549 185.509 461.055 186.287 458.885 187.02C454.661 188.369 451.522 189.323 449.469 189.88C448.647 190.115 447.415 190.32 445.773 190.496L444.145 190.716C443.147 190.833 442.253 190.496 441.461 189.704L440.669 188.912C439.701 188.003 438.953 187.211 438.425 186.536C438.043 186.037 437.882 185.348 437.941 184.468C438.029 183.441 438.219 181.872 438.513 179.76L438.689 178.352L438.821 177.032C437.941 176.768 437.251 176.445 436.753 176.064C436.283 175.653 436.034 175.008 436.005 174.128C436.943 174.011 437.647 173.952 438.117 173.952C438.645 173.923 439.07 173.791 439.393 173.556C439.715 173.321 439.965 172.94 440.141 172.412C440.463 171.356 441.006 169.801 441.769 167.748C442.003 166.985 442.297 166.135 442.649 165.196C442.795 164.727 442.898 164.14 442.957 163.436C442.957 162.908 443.074 162.497 443.309 162.204C443.573 161.881 443.983 161.632 444.541 161.456C447.21 160.635 450.686 160.004 454.969 159.564C456.377 159.417 457.77 159.373 459.149 159.432C461.085 159.432 462.522 160.165 463.461 161.632C463.725 161.984 463.857 162.453 463.857 163.04C463.857 163.304 463.827 163.495 463.769 163.612C463.593 164.023 463.329 164.375 462.977 164.668C462.654 164.932 462.243 165.064 461.745 165.064L460.029 165.108C459.207 165.167 458.606 165.196 458.225 165.196C457.403 165.196 456.846 165.049 456.553 164.756C456.142 164.345 455.629 164.14 455.013 164.14C454.837 164.14 454.543 164.169 454.133 164.228L449.777 165.24L448.017 165.68L445.509 172.192ZM494.04 160.576C495.888 162.424 497.311 164.287 498.308 166.164C499.335 168.012 499.848 169.963 499.848 172.016C499.848 174.157 499.291 176.387 498.176 178.704C496.827 181.549 494.627 184.072 491.576 186.272C488.995 188.179 486.164 189.66 483.084 190.716C480.034 191.772 476.631 192.593 472.876 193.18C472.73 193.209 472.524 193.224 472.26 193.224C471.204 193.224 470.295 192.857 469.532 192.124C468.77 191.42 468.183 190.423 467.772 189.132C471.615 188.575 475.12 187.783 478.288 186.756C481.486 185.729 484.463 184.321 487.22 182.532C491.796 179.628 494.671 175.463 495.844 170.036C495.932 169.655 495.976 169.273 495.976 168.892C495.976 167.807 495.595 166.765 494.832 165.768C494.07 164.683 493.16 163.861 492.104 163.304C491.048 162.747 489.655 162.189 487.924 161.632C486.81 161.28 485.666 161.104 484.492 161.104C483.348 161.104 482.175 161.251 480.972 161.544C480.65 161.661 480.298 161.72 479.916 161.72C478.831 161.72 477.863 161.207 477.012 160.18C476.602 159.623 476.396 159.095 476.396 158.596C476.396 158.185 476.499 157.833 476.704 157.54C476.939 157.217 477.291 156.953 477.76 156.748C479.462 156.044 480.943 155.692 482.204 155.692C482.703 155.692 483.29 155.765 483.964 155.912C486.194 156.411 488.115 157.012 489.728 157.716C491.371 158.391 492.808 159.344 494.04 160.576ZM477.892 184.468C476.807 184.204 476.074 183.881 475.692 183.5C475.34 183.089 475.15 182.429 475.12 181.52C475.12 180.435 475.194 179.525 475.34 178.792C475.986 175.272 476.91 170.403 478.112 164.184C479.374 164.36 480.356 164.829 481.06 165.592C481.794 166.355 482.16 167.293 482.16 168.408C482.16 168.848 482.102 169.288 481.984 169.728C481.486 171.576 481.046 173.409 480.664 175.228L479.96 178.484L479.696 179.76C479.462 180.904 479.227 181.813 478.992 182.488C478.758 183.163 478.391 183.823 477.892 184.468ZM514.403 165.68C514.139 167.44 513.934 168.672 513.787 169.376C513.406 171.107 512.702 173.952 511.675 177.912C511.206 179.555 510.78 180.743 510.399 181.476C509.988 182.356 509.402 183.148 508.639 183.852C508.434 184.057 508.14 184.16 507.759 184.16C507.583 184.16 507.407 184.101 507.231 183.984C507.055 183.808 506.894 183.544 506.747 183.192C506.63 182.811 506.571 182.473 506.571 182.18C506.659 181.183 506.85 180.053 507.143 178.792C508.639 172.573 509.504 166.795 509.739 161.456L509.783 160.796C509.842 159.652 510.003 158.831 510.267 158.332C510.56 157.804 511.015 157.54 511.631 157.54C512.13 157.54 512.658 157.892 513.215 158.596C513.802 159.3 514.139 160.019 514.227 160.752L514.667 164.096L514.403 165.68ZM506.263 190.232C505.588 189.939 505.075 189.543 504.723 189.044C504.4 188.575 504.239 187.973 504.239 187.24C504.239 186.653 504.312 186.111 504.459 185.612C504.723 185.671 505.134 185.759 505.691 185.876C506.248 185.993 506.718 186.111 507.099 186.228C507.598 186.375 508.038 186.609 508.419 186.932C508.976 187.401 509.255 187.944 509.255 188.56C509.255 188.941 509.138 189.293 508.903 189.616C508.492 190.203 507.964 190.496 507.319 190.496C506.967 190.496 506.615 190.408 506.263 190.232Z" fill="white"></path><path d="M133.344 250V234.16H135.995V250H133.344ZM143.694 250V234.16H146.345V240.826H153.847V234.16H156.487V250H153.847V243.312H146.345V250H143.694ZM158.471 250L163.465 234.16H167.348L172.342 250H169.614L165.082 235.788H165.676L161.199 250H158.471ZM161.254 246.568V244.093H169.57V246.568H161.254ZM176.348 250L171.354 234.16H174.082L178.262 247.426L182.497 234.16H185.225L180.231 250H176.348ZM186.878 250V234.16H197.108V236.646H189.529V240.551H195.788V243.037H189.529V247.514H197.108V250H186.878ZM204.151 250V234.16H210.432C211.503 234.16 212.379 234.376 213.061 234.809C213.751 235.234 214.26 235.781 214.59 236.448C214.928 237.115 215.096 237.805 215.096 238.516C215.096 239.389 214.887 240.129 214.469 240.738C214.059 241.347 213.498 241.757 212.786 241.97V241.42C213.784 241.647 214.539 242.12 215.052 242.839C215.573 243.558 215.833 244.375 215.833 245.292C215.833 246.231 215.654 247.052 215.294 247.756C214.935 248.46 214.4 249.01 213.688 249.406C212.984 249.802 212.112 250 211.07 250H204.151ZM206.835 247.503H210.74C211.202 247.503 211.617 247.411 211.983 247.228C212.35 247.037 212.636 246.773 212.841 246.436C213.054 246.091 213.16 245.684 213.16 245.215C213.16 244.79 213.069 244.408 212.885 244.071C212.702 243.734 212.434 243.466 212.082 243.268C211.73 243.063 211.309 242.96 210.817 242.96H206.835V247.503ZM206.835 240.485H210.399C210.781 240.485 211.122 240.412 211.422 240.265C211.723 240.118 211.961 239.902 212.137 239.616C212.313 239.33 212.401 238.978 212.401 238.56C212.401 238.01 212.225 237.552 211.873 237.185C211.521 236.818 211.03 236.635 210.399 236.635H206.835V240.485ZM218.03 250V234.16H228.26V236.646H220.681V240.551H226.94V243.037H220.681V247.514H228.26V250H218.03ZM230.899 250V234.16H241.129V236.646H233.55V240.551H239.809V243.037H233.55V247.514H241.129V250H230.899ZM243.769 250V234.16H246.453L253.801 245.325V234.16H256.485V250H253.801L246.453 238.835V250H243.769ZM263.964 250V234.16H269.013C269.145 234.16 269.405 234.164 269.794 234.171C270.19 234.178 270.571 234.204 270.938 234.248C272.192 234.409 273.251 234.857 274.117 235.59C274.989 236.316 275.649 237.244 276.097 238.373C276.544 239.502 276.768 240.738 276.768 242.08C276.768 243.422 276.544 244.658 276.097 245.787C275.649 246.916 274.989 247.848 274.117 248.581C273.251 249.307 272.192 249.751 270.938 249.912C270.578 249.956 270.201 249.982 269.805 249.989C269.409 249.996 269.145 250 269.013 250H263.964ZM266.659 247.503H269.013C269.233 247.503 269.511 247.496 269.849 247.481C270.193 247.466 270.498 247.433 270.762 247.382C271.51 247.243 272.118 246.909 272.588 246.381C273.057 245.853 273.402 245.211 273.622 244.456C273.849 243.701 273.963 242.909 273.963 242.08C273.963 241.222 273.849 240.415 273.622 239.66C273.394 238.905 273.042 238.27 272.566 237.757C272.096 237.244 271.495 236.917 270.762 236.778C270.498 236.719 270.193 236.686 269.849 236.679C269.511 236.664 269.233 236.657 269.013 236.657H266.659V247.503ZM277.838 250L282.832 234.16H286.715L291.709 250H288.981L284.449 235.788H285.043L280.566 250H277.838ZM280.621 246.568V244.093H288.937V246.568H280.621ZM296.194 250V236.646H291.068V234.16H303.971V236.646H298.845V250H296.194ZM305.949 250V234.16H308.6V250H305.949ZM311.895 250V234.16H314.579L321.927 245.325V234.16H324.611V250H321.927L314.579 238.835V250H311.895ZM334.22 250.33C333.194 250.33 332.229 250.15 331.327 249.791C330.433 249.424 329.644 248.889 328.962 248.185C328.288 247.481 327.76 246.619 327.378 245.6C326.997 244.573 326.806 243.4 326.806 242.08C326.806 240.349 327.129 238.872 327.774 237.647C328.42 236.415 329.303 235.473 330.425 234.82C331.547 234.16 332.812 233.83 334.22 233.83C336.171 233.83 337.715 234.285 338.851 235.194C339.995 236.096 340.769 237.365 341.172 239L338.466 239.429C338.166 238.49 337.674 237.742 336.992 237.185C336.31 236.62 335.441 236.338 334.385 236.338C333.322 236.323 332.438 236.554 331.734 237.031C331.03 237.508 330.499 238.179 330.139 239.044C329.787 239.909 329.611 240.921 329.611 242.08C329.611 243.239 329.787 244.247 330.139 245.105C330.491 245.956 331.019 246.619 331.723 247.096C332.435 247.573 333.322 247.818 334.385 247.833C335.185 247.84 335.885 247.697 336.486 247.404C337.088 247.103 337.579 246.652 337.96 246.051C338.342 245.442 338.598 244.683 338.73 243.774H335.936V241.695H341.546C341.561 241.812 341.572 241.985 341.579 242.212C341.587 242.439 341.59 242.575 341.59 242.619C341.59 244.115 341.293 245.446 340.699 246.612C340.113 247.771 339.269 248.68 338.169 249.34C337.069 250 335.753 250.33 334.22 250.33ZM347.104 250L352.098 234.16H355.981L360.975 250H358.247L353.715 235.788H354.309L349.832 250H347.104ZM349.887 246.568V244.093H358.203V246.568H349.887ZM373.231 250.33C372.072 250.33 371.027 250.128 370.096 249.725C369.172 249.322 368.409 248.746 367.808 247.998C367.214 247.243 366.836 246.348 366.675 245.314L369.425 244.896C369.66 245.835 370.14 246.561 370.866 247.074C371.599 247.587 372.443 247.844 373.396 247.844C373.961 247.844 374.492 247.756 374.991 247.58C375.49 247.404 375.893 247.147 376.201 246.81C376.516 246.473 376.674 246.058 376.674 245.567C376.674 245.347 376.637 245.145 376.564 244.962C376.491 244.771 376.381 244.603 376.234 244.456C376.095 244.309 375.911 244.177 375.684 244.06C375.464 243.935 375.207 243.829 374.914 243.741L370.822 242.531C370.47 242.428 370.089 242.293 369.678 242.124C369.275 241.948 368.89 241.71 368.523 241.409C368.164 241.101 367.867 240.712 367.632 240.243C367.405 239.766 367.291 239.18 367.291 238.483C367.291 237.464 367.548 236.609 368.061 235.92C368.582 235.223 369.278 234.703 370.151 234.358C371.031 234.013 372.006 233.845 373.077 233.852C374.162 233.859 375.13 234.046 375.981 234.413C376.832 234.772 377.543 235.297 378.115 235.986C378.687 236.675 379.09 237.508 379.325 238.483L376.476 238.978C376.359 238.421 376.131 237.948 375.794 237.559C375.464 237.163 375.057 236.862 374.573 236.657C374.096 236.452 373.587 236.342 373.044 236.327C372.516 236.32 372.025 236.4 371.57 236.569C371.123 236.73 370.76 236.965 370.481 237.273C370.21 237.581 370.074 237.94 370.074 238.351C370.074 238.74 370.191 239.059 370.426 239.308C370.661 239.55 370.95 239.744 371.295 239.891C371.647 240.03 372.003 240.148 372.362 240.243L375.2 241.035C375.589 241.138 376.025 241.277 376.509 241.453C376.993 241.629 377.459 241.875 377.906 242.19C378.353 242.505 378.72 242.92 379.006 243.433C379.299 243.946 379.446 244.599 379.446 245.391C379.446 246.212 379.274 246.935 378.929 247.558C378.592 248.174 378.133 248.687 377.554 249.098C376.975 249.509 376.311 249.817 375.563 250.022C374.822 250.227 374.045 250.33 373.231 250.33ZM381.827 250V234.16H384.478V240.826H391.98V234.16H394.62V250H391.98V243.312H384.478V250H381.827ZM397.924 250V234.16H400.575V250H397.924ZM407.676 250V236.646H402.55V234.16H415.453V236.646H410.327V250H407.676ZM427.484 250.33C426.457 250.33 425.493 250.15 424.591 249.791C423.696 249.424 422.908 248.889 422.226 248.185C421.551 247.481 421.023 246.619 420.642 245.6C420.261 244.573 420.07 243.4 420.07 242.08C420.07 240.349 420.393 238.872 421.038 237.647C421.683 236.415 422.567 235.473 423.689 234.82C424.811 234.16 426.076 233.83 427.484 233.83C429.435 233.83 430.978 234.285 432.115 235.194C433.259 236.096 434.033 237.365 434.436 239L431.73 239.429C431.429 238.49 430.938 237.742 430.256 237.185C429.574 236.62 428.705 236.338 427.649 236.338C426.586 236.323 425.702 236.554 424.998 237.031C424.294 237.508 423.762 238.179 423.403 239.044C423.051 239.909 422.875 240.921 422.875 242.08C422.875 243.239 423.051 244.247 423.403 245.105C423.755 245.956 424.283 246.619 424.987 247.096C425.698 247.573 426.586 247.818 427.649 247.833C428.448 247.84 429.149 247.697 429.75 247.404C430.351 247.103 430.843 246.652 431.224 246.051C431.605 245.442 431.862 244.683 431.994 243.774H429.2V241.695H434.81C434.825 241.812 434.836 241.985 434.843 242.212C434.85 242.439 434.854 242.575 434.854 242.619C434.854 244.115 434.557 245.446 433.963 246.612C433.376 247.771 432.533 248.68 431.433 249.34C430.333 250 429.017 250.33 427.484 250.33ZM443.443 250.33C442.182 250.33 441.071 250.073 440.11 249.56C439.157 249.047 438.409 248.324 437.866 247.393C437.331 246.462 437.063 245.369 437.063 244.115V234.182L439.747 234.16V244.049C439.747 244.643 439.846 245.175 440.044 245.644C440.25 246.113 440.525 246.513 440.869 246.843C441.214 247.166 441.61 247.411 442.057 247.58C442.505 247.749 442.967 247.833 443.443 247.833C443.935 247.833 444.4 247.749 444.84 247.58C445.288 247.404 445.684 247.155 446.028 246.832C446.373 246.502 446.644 246.102 446.842 245.633C447.04 245.164 447.139 244.636 447.139 244.049V234.16H449.823V244.115C449.823 245.369 449.552 246.462 449.009 247.393C448.474 248.324 447.726 249.047 446.765 249.56C445.812 250.073 444.705 250.33 443.443 250.33ZM456.747 250V243.51L451.357 234.16H454.448L458.089 240.474L461.719 234.16H464.81L459.431 243.51V250H456.747ZM463.714 250V247.283H466.431V250H463.714Z" fill="#FFACC0"></path></svg> 