<?xml version="1.0" encoding="UTF-8"?> <svg xmlns="http://www.w3.org/2000/svg" width="600" height="400" viewBox="0 0 600 400" fill="none"><rect width="600" height="400" rx="20" fill="#A11717"></rect><path d="M158.03 173.032C157.414 173.208 156.842 173.296 156.314 173.296C154.906 173.296 153.557 172.68 152.266 171.448C152.442 170.803 152.736 170.333 153.146 170.04C153.557 169.717 153.968 169.468 154.378 169.292C154.789 169.116 155.068 168.999 155.214 168.94C156.798 168.265 158.456 167.679 160.186 167.18C160.92 166.945 161.374 166.476 161.55 165.772C162.078 163.983 162.489 162.223 162.782 160.492C163.076 158.732 163.428 156.371 163.838 153.408L164.014 152.044C164.044 151.956 164.058 151.824 164.058 151.648C164.058 151.032 163.75 150.607 163.134 150.372C162.929 150.284 162.694 150.137 162.43 149.932C162.166 149.697 161.961 149.521 161.814 149.404L160.758 149.932C159.908 150.313 158.94 150.783 157.854 151.34C157.473 151.545 157.077 151.648 156.666 151.648C156.226 151.648 155.757 151.545 155.258 151.34C154.789 151.105 154.51 150.973 154.422 150.944C154.158 150.827 153.938 150.651 153.762 150.416C153.616 150.181 153.542 149.932 153.542 149.668C153.542 149.316 153.66 148.979 153.894 148.656C154.217 148.187 154.716 147.703 155.39 147.204C158.03 145.239 160.817 144.256 163.75 144.256C165.1 144.256 166.434 144.447 167.754 144.828C168.986 145.209 170.057 145.532 170.966 145.796C171.905 146.031 172.682 146.236 173.298 146.412L176.07 147.204C176.129 147.204 176.246 147.219 176.422 147.248C176.628 147.277 176.774 147.336 176.862 147.424C177.038 147.571 177.214 147.776 177.39 148.04C177.596 148.275 177.757 148.465 177.874 148.612C177.728 148.729 177.522 148.905 177.258 149.14C177.024 149.375 176.804 149.492 176.598 149.492C176.364 149.521 175.997 149.536 175.498 149.536C175.117 149.536 174.545 149.507 173.782 149.448L172.814 149.404L169.69 149.052L169.47 150.636C169.089 153.393 168.752 155.579 168.458 157.192C168.224 158.6 167.842 160.492 167.314 162.868L166.786 165.464C168.781 165.2 170.13 165.024 170.834 164.936C172.418 164.76 173.606 164.672 174.398 164.672C175.366 164.672 176.173 164.804 176.818 165.068C177.464 165.332 177.918 165.875 178.182 166.696C177.889 167.077 177.552 167.356 177.17 167.532C176.818 167.708 176.452 167.84 176.07 167.928C175.718 168.016 175.498 168.075 175.41 168.104L174.574 168.368C172.814 168.896 171.612 169.204 170.966 169.292C169.588 169.497 168.238 169.791 166.918 170.172C165.628 170.553 164.014 171.067 162.078 171.712C160.817 172.181 159.468 172.621 158.03 173.032ZM196.11 171.404C195.465 171.404 194.922 171.243 194.482 170.92C194.072 170.597 193.778 169.996 193.602 169.116C194.541 169.204 195.23 168.999 195.67 168.5C196.14 168.001 196.565 167.253 196.946 166.256L197.87 163.616C198.046 163.147 198.486 161.915 199.19 159.92C199.924 157.925 200.672 156.063 201.434 154.332C202.432 151.985 203.957 149.14 206.01 145.796C206.538 144.975 207.169 144.359 207.902 143.948C208.636 143.508 209.413 143.288 210.234 143.288C210.968 143.288 211.672 143.479 212.346 143.86C213.05 144.212 213.666 144.74 214.194 145.444C214.634 146.031 215.03 146.676 215.382 147.38C215.734 148.055 216.174 148.964 216.702 150.108L217.538 151.868C217.744 152.337 217.905 152.983 218.022 153.804C218.169 155.153 218.77 155.989 219.826 156.312C219.973 156.371 220.134 156.517 220.31 156.752C220.486 156.957 220.633 157.133 220.75 157.28C219.87 157.867 219.43 158.644 219.43 159.612C219.43 160.14 219.562 160.873 219.826 161.812C220.178 163.073 220.53 164.496 220.882 166.08C221.264 167.635 221.513 168.691 221.63 169.248L222.158 171.668C222.188 171.785 222.202 171.947 222.202 172.152L222.158 173.34C221.894 173.428 221.542 173.56 221.102 173.736C220.662 173.912 220.296 174 220.002 174C219.21 174 218.33 173.824 217.362 173.472C216.981 173.355 216.732 173.164 216.614 172.9C216.526 172.607 216.482 172.255 216.482 171.844C216.482 171.433 216.468 171.14 216.438 170.964L216.218 169.732C215.25 164.423 214.678 161.475 214.502 160.888C213.798 161.093 212.904 161.24 211.818 161.328C210.528 161.504 209.633 161.665 209.134 161.812C208.87 161.9 208.416 161.944 207.77 161.944L205.966 161.9C205.145 161.9 204.529 161.988 204.118 162.164C203.884 162.281 203.356 163.44 202.534 165.64C201.918 167.224 201.537 168.148 201.39 168.412C200.833 169.439 200.1 170.201 199.19 170.7C198.281 171.169 197.254 171.404 196.11 171.404ZM206.054 157.016C206.612 156.928 207.257 156.884 207.99 156.884H209.574C210.513 156.884 211.305 156.84 211.95 156.752C212.625 156.635 213.226 156.415 213.754 156.092C213.52 155.447 212.992 154.332 212.17 152.748C211.261 150.959 210.63 149.565 210.278 148.568C209.164 150.357 208.269 151.883 207.594 153.144C206.949 154.405 206.436 155.696 206.054 157.016ZM239.846 146.5C240.169 146.559 240.888 147.688 242.002 149.888C243.117 152.059 244.481 154.875 246.094 158.336L247.502 161.284C248.118 160.609 248.69 159.832 249.218 158.952C249.746 158.043 250.406 156.825 251.198 155.3C252.108 153.569 252.738 152.455 253.09 151.956C254.498 149.815 256.024 147.541 257.666 145.136C257.872 144.813 258.238 144.593 258.766 144.476C258.854 144.447 259.001 144.432 259.206 144.432C259.91 144.432 260.688 144.725 261.538 145.312C262.418 145.899 262.99 146.5 263.254 147.116C263.313 147.233 263.342 147.453 263.342 147.776C263.342 148.069 263.328 148.289 263.298 148.436C263.24 148.7 263.166 149.037 263.078 149.448C263.02 149.829 262.961 150.284 262.902 150.812C261.964 157.969 261.289 163.337 260.878 166.916C260.761 167.737 260.702 168.661 260.702 169.688L260.614 171.096C260.585 171.389 260.57 171.727 260.57 172.108C260.57 172.489 260.526 172.753 260.438 172.9C260.35 173.047 260.189 173.12 259.954 173.12C259.778 173.12 259.514 173.076 259.162 172.988C258.224 172.783 257.505 172.416 257.006 171.888C256.508 171.331 256.229 170.568 256.17 169.6C256.141 169.101 256.126 168.324 256.126 167.268C256.126 166.183 256.156 164.525 256.214 162.296L256.258 159.876L256.346 156.4C256.082 156.635 255.408 157.559 254.322 159.172C253.266 160.756 252.225 162.413 251.198 164.144C250.172 165.875 249.497 167.209 249.174 168.148C248.881 168.881 248.588 169.424 248.294 169.776C248.03 170.128 247.708 170.304 247.326 170.304C246.974 170.304 246.52 170.143 245.962 169.82C244.378 168.852 243.41 167.517 243.058 165.816C242.501 163.205 241.812 160.492 240.99 157.676C240.844 157.148 240.55 156.429 240.11 155.52C239.7 154.611 239.436 154.039 239.318 153.804L238.746 152.66C234.464 158.351 231.56 163.572 230.034 168.324C229.741 169.321 229.462 170.04 229.198 170.48C228.934 170.891 228.626 171.096 228.274 171.096C227.717 171.096 226.925 170.597 225.898 169.6C225.106 168.896 224.71 168.104 224.71 167.224C224.71 166.755 224.798 166.285 224.974 165.816C226.206 162.179 228.04 158.732 230.474 155.476L231.838 153.672C233.686 151.237 235.08 149.331 236.018 147.952C236.722 146.925 237.661 146.412 238.834 146.412C239.04 146.412 239.377 146.441 239.846 146.5ZM302.043 150.416C302.219 151.677 302.395 153.511 302.571 155.916L302.659 158.204C302.659 162.457 303.217 166.256 304.331 169.6C304.478 170.069 304.551 170.671 304.551 171.404C304.551 171.815 304.522 172.372 304.463 173.076C304.434 173.545 304.258 173.912 303.935 174.176C303.613 174.469 303.202 174.616 302.703 174.616C302.645 174.616 302.483 174.587 302.219 174.528C301.486 174.352 300.929 174.029 300.547 173.56C300.166 173.061 299.975 172.46 299.975 171.756C299.975 171.521 299.99 171.345 300.019 171.228C300.019 171.052 300.019 170.803 300.019 170.48C300.019 169.952 299.99 169.468 299.931 169.028C299.697 167.884 299.33 166.359 298.831 164.452C298.655 163.66 298.289 163.264 297.731 163.264C297.526 163.264 297.291 163.308 297.027 163.396C296.118 163.66 295.311 163.909 294.607 164.144C293.933 164.379 293.331 164.569 292.803 164.716L290.691 165.332C289.489 165.684 288.374 165.963 287.347 166.168C286.262 166.403 285.47 167.004 284.971 167.972C284.502 168.852 283.827 170.04 282.947 171.536C282.39 172.533 281.657 173.032 280.747 173.032C280.307 173.032 279.867 172.929 279.427 172.724C279.017 172.489 278.665 172.196 278.371 171.844C277.931 171.345 277.711 170.861 277.711 170.392C277.711 170.069 277.799 169.732 277.975 169.38L281.011 163.22C284.355 156.415 286.35 152.337 286.995 150.988C288.843 147.409 291.351 144.945 294.519 143.596C295.194 143.273 295.883 143.112 296.587 143.112C297.467 143.112 298.274 143.347 299.007 143.816C299.77 144.256 300.357 144.887 300.767 145.708C301.354 146.911 301.779 148.48 302.043 150.416ZM287.831 161.548C291.85 160.844 295.267 160.272 298.083 159.832C298.025 157.016 297.937 154.801 297.819 153.188C297.731 151.545 297.526 149.903 297.203 148.26C295.649 148.436 294.475 149.199 293.683 150.548C292.305 152.719 290.985 154.963 289.723 157.28C289.518 157.661 289.137 158.512 288.579 159.832L287.831 161.548ZM319.235 157.588C319.177 157.412 319.03 157.177 318.795 156.884C318.59 156.591 318.414 156.341 318.267 156.136C317.739 157.661 317.343 159.172 317.079 160.668C316.815 162.164 316.683 163.44 316.683 164.496C316.683 165.552 316.83 166.564 317.123 167.532C317.387 168.441 317.519 169.439 317.519 170.524C317.519 171.199 317.373 171.697 317.079 172.02C316.786 172.343 316.302 172.607 315.627 172.812C315.011 172.988 314.205 173.12 313.207 173.208L311.799 173.34C311.741 173.223 311.535 172.841 311.183 172.196C310.861 171.609 310.641 171.184 310.523 170.92C310.406 170.627 310.362 170.333 310.391 170.04C310.45 169.688 310.479 169.395 310.479 169.16C310.509 168.896 310.523 168.676 310.523 168.5C310.523 168.353 310.538 168.089 310.567 167.708C310.597 167.327 310.641 166.989 310.699 166.696C311.081 164.261 311.55 162.032 312.107 160.008C312.694 157.984 313.471 156.077 314.439 154.288C314.586 154.024 314.718 153.789 314.835 153.584C314.953 153.379 315.055 153.203 315.143 153.056C315.231 152.939 315.466 152.528 315.847 151.824C316.17 151.237 316.581 150.768 317.079 150.416C317.578 150.064 318.018 149.771 318.399 149.536C318.781 149.272 319.279 149.067 319.895 148.92C320.13 148.861 320.321 148.832 320.467 148.832C321.23 148.861 321.743 149.243 322.007 149.976L326.495 161.944C327.346 164.232 328.079 166.051 328.695 167.4C328.959 166.843 329.15 166.3 329.267 165.772C329.414 165.244 329.531 164.745 329.619 164.276C330.646 158.761 332.919 153.364 336.439 148.084C336.733 147.791 337.099 147.468 337.539 147.116C337.979 146.735 338.302 146.456 338.507 146.28C339.329 146.925 339.739 147.571 339.739 148.216C339.739 148.597 339.607 149.081 339.343 149.668C339.197 150.02 338.815 150.768 338.199 151.912L337.275 153.76C336.366 155.637 335.735 157.632 335.383 159.744C335.031 161.856 334.767 164.305 334.591 167.092C334.533 167.884 334.503 169.087 334.503 170.7C334.474 171.111 334.459 171.712 334.459 172.504C334.459 173.472 334.298 174.176 333.975 174.616C333.682 175.056 333.081 175.423 332.171 175.716C331.497 175.892 330.69 176.039 329.751 176.156L328.475 176.376C327.39 175.203 326.481 173.971 325.747 172.68C325.043 171.389 324.222 169.688 323.283 167.576C322.931 166.696 322.213 164.921 321.127 162.252C320.042 159.553 319.411 157.999 319.235 157.588ZM364.186 144.52C365.799 144.725 367.149 145.561 368.234 147.028C367.853 147.585 367.442 147.996 367.002 148.26C366.591 148.495 366.078 148.627 365.462 148.656C362.91 148.685 360.725 148.788 358.906 148.964C357.117 149.14 355.21 149.727 353.186 150.724C351.191 151.721 350.062 153.32 349.798 155.52C349.006 157.133 348.61 159.025 348.61 161.196C348.61 162.311 348.742 163.733 349.006 165.464C349.358 167.693 350.458 168.808 352.306 168.808C352.775 168.808 353.142 168.779 353.406 168.72C354.961 168.456 356.515 167.869 358.07 166.96C358.95 166.403 359.83 165.772 360.71 165.068C361.59 164.335 362.118 163.909 362.294 163.792L363.438 162.868C363.761 162.575 363.995 162.311 364.142 162.076C364.318 161.812 364.406 161.489 364.406 161.108C364.406 160.961 364.377 160.741 364.318 160.448C363.321 160.536 361.854 160.639 359.918 160.756L358.642 160.844C358.085 160.903 357.249 160.961 356.134 161.02C354.931 161.02 353.978 160.741 353.274 160.184C352.599 159.597 352.071 158.644 351.69 157.324C351.778 157.265 351.881 157.177 351.998 157.06C352.115 156.943 352.218 156.884 352.306 156.884L353.846 156.708C357.219 156.297 359.786 156.048 361.546 155.96C362.983 155.872 364.655 155.989 366.562 156.312C369.202 156.752 370.522 157.969 370.522 159.964C370.522 160.697 370.375 161.46 370.082 162.252C369.935 162.692 369.701 163.205 369.378 163.792C368.703 165.229 367.779 166.476 366.606 167.532C365.433 168.588 364.01 169.6 362.338 170.568C361.018 171.36 359.859 171.976 358.862 172.416C357.865 172.856 356.809 173.12 355.694 173.208C355.43 173.237 355.019 173.252 354.462 173.252C351.91 173.252 349.593 172.387 347.51 170.656C346.483 169.776 345.691 168.837 345.134 167.84C344.606 166.813 344.298 165.655 344.21 164.364C344.151 163.484 344.122 162.868 344.122 162.516C344.122 160.844 344.327 159.289 344.738 157.852C345.149 156.385 345.926 154.112 347.07 151.032C348.214 148.539 350.062 146.793 352.614 145.796C355.166 144.769 357.865 144.256 360.71 144.256C361.913 144.256 363.071 144.344 364.186 144.52ZM387.646 165.464C387.5 165.347 387.309 165.141 387.074 164.848C386.869 164.525 386.693 164.276 386.546 164.1L390.066 162.428L391.166 161.9C391.812 161.607 392.296 161.372 392.618 161.196C394.672 159.935 396.74 158.615 398.822 157.236C399.438 156.796 400.04 156.18 400.626 155.388C401.066 154.684 401.301 154.127 401.33 153.716C401.389 152.983 400.876 152.381 399.79 151.912C398.91 151.531 397.752 151.135 396.314 150.724C394.584 150.225 392.765 149.785 390.858 149.404C390.389 149.345 390.008 149.316 389.714 149.316C389.216 149.316 388.805 149.375 388.482 149.492C387.045 150.02 385.872 150.299 384.962 150.328C384.317 150.328 383.642 150.196 382.938 149.932C382.44 149.169 382.19 148.48 382.19 147.864C382.19 147.16 382.528 146.632 383.202 146.28C384.464 145.635 385.505 145.371 386.326 145.488C389.524 145.957 392.457 146.573 395.126 147.336C397.796 148.069 400.304 149.081 402.65 150.372C403.237 150.695 403.765 151.12 404.234 151.648C404.733 152.176 405.334 152.909 406.038 153.848C406.273 154.229 406.405 154.611 406.434 154.992C406.493 155.608 406.2 156.283 405.554 157.016C404.528 158.189 403.017 159.407 401.022 160.668C400.142 161.225 399.365 161.695 398.69 162.076C398.045 162.457 397.502 162.78 397.062 163.044L395.082 164.232C394.73 164.437 394.276 164.687 393.718 164.98C393.806 165.185 393.953 165.523 394.158 165.992C394.393 166.461 394.613 166.872 394.818 167.224C396.872 170.715 399.82 173.179 403.662 174.616C405.158 175.173 406.097 175.54 406.478 175.716C406.83 175.892 407.094 176.053 407.27 176.2C407.476 176.376 407.578 176.596 407.578 176.86C407.578 177.007 407.534 177.168 407.446 177.344C407.3 177.784 406.992 178.004 406.522 178.004C406.376 178.004 406.229 177.989 406.082 177.96C405.965 177.931 405.862 177.901 405.774 177.872C401.257 177.051 397.224 174.909 393.674 171.448C392.765 170.568 391.768 169.483 390.682 168.192C390.184 167.605 389.538 167.019 388.746 166.432L387.646 165.464ZM378.978 158.028C379.008 157.94 379.096 157.441 379.242 156.532C379.242 156.356 379.272 156.063 379.33 155.652C379.917 155.153 380.518 154.904 381.134 154.904C381.721 154.904 382.454 155.124 383.334 155.564C383.686 155.74 383.965 155.989 384.17 156.312C384.376 156.635 384.478 156.987 384.478 157.368C384.478 157.603 384.434 157.852 384.346 158.116C384.229 158.556 383.95 159.304 383.51 160.36L382.938 161.944L382.454 163.396C382.308 163.895 381.956 164.965 381.398 166.608C380.87 168.251 380.416 169.791 380.034 171.228C379.858 171.903 379.565 172.431 379.154 172.812C378.773 173.164 378.245 173.428 377.57 173.604C377.277 173.692 376.998 173.736 376.734 173.736C376.294 173.736 375.957 173.589 375.722 173.296C375.517 173.003 375.429 172.577 375.458 172.02C375.605 169.791 375.942 167.811 376.47 166.08C376.764 165.141 377.248 163.557 377.922 161.328C378.04 160.947 378.186 160.492 378.362 159.964C378.568 159.407 378.773 158.761 378.978 158.028ZM412.642 153.188C412.173 151.956 411.85 151.076 411.674 150.548C411.527 150.02 411.454 149.492 411.454 148.964C411.454 148.583 411.498 148.084 411.586 147.468C411.703 146.852 411.85 146.163 412.026 145.4L412.862 145.356C413.067 145.356 413.243 145.4 413.39 145.488L414.138 146.06C415.018 146.793 415.678 147.409 416.118 147.908C416.558 148.407 416.866 149.096 417.042 149.976C417.423 151.765 417.863 153.349 418.362 154.728C418.89 156.107 419.638 157.353 420.606 158.468C421.31 159.289 421.926 159.905 422.454 160.316C423.011 160.697 423.745 160.873 424.654 160.844C425.094 159.964 425.417 159.289 425.622 158.82L426.81 155.916C428.981 150.636 430.345 147.365 430.902 146.104C431.137 145.547 431.562 144.843 432.178 143.992C432.325 143.816 432.515 143.552 432.75 143.2C433.718 143.581 434.451 144.153 434.95 144.916C435.478 145.649 435.742 146.5 435.742 147.468C435.742 148.113 435.639 148.729 435.434 149.316C434.935 150.753 434.114 152.66 432.97 155.036C432.765 155.476 432.559 155.872 432.354 156.224C432.178 156.576 432.017 156.899 431.87 157.192C431.225 158.424 430.843 159.157 430.726 159.392L429.538 162.032C428.629 164.203 427.793 165.919 427.03 167.18L426.414 168.148C424.947 170.553 423.657 172.519 422.542 174.044C421.457 175.599 420.151 177.065 418.626 178.444C418.567 178.239 418.465 177.989 418.318 177.696C418.201 177.432 418.157 177.241 418.186 177.124C419.125 174.748 420.562 171.184 422.498 166.432C422.645 166.051 422.923 165.229 423.334 163.968C418.025 161.739 414.461 158.145 412.642 153.188ZM448.473 150.68C448.209 152.44 448.004 153.672 447.857 154.376C447.476 156.107 446.772 158.952 445.745 162.912C445.276 164.555 444.851 165.743 444.469 166.476C444.059 167.356 443.472 168.148 442.709 168.852C442.504 169.057 442.211 169.16 441.829 169.16C441.653 169.16 441.477 169.101 441.301 168.984C441.125 168.808 440.964 168.544 440.817 168.192C440.7 167.811 440.641 167.473 440.641 167.18C440.729 166.183 440.92 165.053 441.213 163.792C442.709 157.573 443.575 151.795 443.809 146.456L443.853 145.796C443.912 144.652 444.073 143.831 444.337 143.332C444.631 142.804 445.085 142.54 445.701 142.54C446.2 142.54 446.728 142.892 447.285 143.596C447.872 144.3 448.209 145.019 448.297 145.752L448.737 149.096L448.473 150.68ZM440.333 175.232C439.659 174.939 439.145 174.543 438.793 174.044C438.471 173.575 438.309 172.973 438.309 172.24C438.309 171.653 438.383 171.111 438.529 170.612C438.793 170.671 439.204 170.759 439.761 170.876C440.319 170.993 440.788 171.111 441.169 171.228C441.668 171.375 442.108 171.609 442.489 171.932C443.047 172.401 443.325 172.944 443.325 173.56C443.325 173.941 443.208 174.293 442.973 174.616C442.563 175.203 442.035 175.496 441.389 175.496C441.037 175.496 440.685 175.408 440.333 175.232Z" fill="white"></path><path d="M69.3049 235V219.16H71.9559V235H69.3049ZM79.6552 235V219.16H82.3062V225.826H89.8082V219.16H92.4482V235H89.8082V228.312H82.3062V235H79.6552ZM94.4322 235L99.4262 219.16H103.309L108.303 235H105.575L101.043 220.788H101.637L97.1602 235H94.4322ZM97.2152 231.568V229.093H105.531V231.568H97.2152ZM112.309 235L107.315 219.16H110.043L114.223 232.426L118.458 219.16H121.186L116.192 235H112.309ZM122.839 235V219.16H133.069V221.646H125.49V225.551H131.749V228.037H125.49V232.514H133.069V235H122.839ZM140.112 235V219.16H146.393C147.464 219.16 148.34 219.376 149.022 219.809C149.712 220.234 150.221 220.781 150.551 221.448C150.889 222.115 151.057 222.805 151.057 223.516C151.057 224.389 150.848 225.129 150.43 225.738C150.02 226.347 149.459 226.757 148.747 226.97V226.42C149.745 226.647 150.5 227.12 151.013 227.839C151.534 228.558 151.794 229.375 151.794 230.292C151.794 231.231 151.615 232.052 151.255 232.756C150.896 233.46 150.361 234.01 149.649 234.406C148.945 234.802 148.073 235 147.031 235H140.112ZM142.796 232.503H146.701C147.163 232.503 147.578 232.411 147.944 232.228C148.311 232.037 148.597 231.773 148.802 231.436C149.015 231.091 149.121 230.684 149.121 230.215C149.121 229.79 149.03 229.408 148.846 229.071C148.663 228.734 148.395 228.466 148.043 228.268C147.691 228.063 147.27 227.96 146.778 227.96H142.796V232.503ZM142.796 225.485H146.36C146.742 225.485 147.083 225.412 147.383 225.265C147.684 225.118 147.922 224.902 148.098 224.616C148.274 224.33 148.362 223.978 148.362 223.56C148.362 223.01 148.186 222.552 147.834 222.185C147.482 221.818 146.991 221.635 146.36 221.635H142.796V225.485ZM153.991 235V219.16H164.221V221.646H156.642V225.551H162.901V228.037H156.642V232.514H164.221V235H153.991ZM166.86 235V219.16H177.09V221.646H169.511V225.551H175.77V228.037H169.511V232.514H177.09V235H166.86ZM179.729 235V219.16H182.413L189.761 230.325V219.16H192.445V235H189.761L182.413 223.835V235H179.729ZM198.825 235L203.819 219.16H207.702L212.696 235H209.968L205.436 220.788H206.03L201.553 235H198.825ZM201.608 231.568V229.093H209.924V231.568H201.608ZM214.685 235V219.16H221.23C221.384 219.16 221.582 219.167 221.824 219.182C222.066 219.189 222.289 219.211 222.495 219.248C223.411 219.387 224.167 219.692 224.761 220.161C225.362 220.63 225.806 221.224 226.092 221.943C226.385 222.654 226.532 223.446 226.532 224.319C226.532 225.61 226.205 226.721 225.553 227.652C224.9 228.576 223.899 229.148 222.55 229.368L221.417 229.467H217.336V235H214.685ZM223.782 235L220.658 228.554L223.353 227.96L226.785 235H223.782ZM217.336 226.992H221.12C221.266 226.992 221.431 226.985 221.615 226.97C221.798 226.955 221.967 226.926 222.121 226.882C222.561 226.772 222.905 226.578 223.155 226.299C223.411 226.02 223.591 225.705 223.694 225.353C223.804 225.001 223.859 224.656 223.859 224.319C223.859 223.982 223.804 223.637 223.694 223.285C223.591 222.926 223.411 222.607 223.155 222.328C222.905 222.049 222.561 221.855 222.121 221.745C221.967 221.701 221.798 221.675 221.615 221.668C221.431 221.653 221.266 221.646 221.12 221.646H217.336V226.992ZM235.742 235.33C234.715 235.33 233.751 235.15 232.849 234.791C231.954 234.424 231.166 233.889 230.484 233.185C229.809 232.481 229.281 231.619 228.9 230.6C228.519 229.573 228.328 228.4 228.328 227.08C228.328 225.349 228.651 223.872 229.296 222.647C229.941 221.415 230.825 220.473 231.947 219.82C233.069 219.16 234.334 218.83 235.742 218.83C237.693 218.83 239.236 219.285 240.373 220.194C241.517 221.096 242.291 222.365 242.694 224L239.988 224.429C239.687 223.49 239.196 222.742 238.514 222.185C237.832 221.62 236.963 221.338 235.907 221.338C234.844 221.323 233.96 221.554 233.256 222.031C232.552 222.508 232.02 223.179 231.661 224.044C231.309 224.909 231.133 225.921 231.133 227.08C231.133 228.239 231.309 229.247 231.661 230.105C232.013 230.956 232.541 231.619 233.245 232.096C233.956 232.573 234.844 232.818 235.907 232.833C236.706 232.84 237.407 232.697 238.008 232.404C238.609 232.103 239.101 231.652 239.482 231.051C239.863 230.442 240.12 229.683 240.252 228.774H237.458V226.695H243.068C243.083 226.812 243.094 226.985 243.101 227.212C243.108 227.439 243.112 227.575 243.112 227.619C243.112 229.115 242.815 230.446 242.221 231.612C241.634 232.771 240.791 233.68 239.691 234.34C238.591 235 237.275 235.33 235.742 235.33ZM251.701 235.33C250.44 235.33 249.329 235.073 248.368 234.56C247.415 234.047 246.667 233.324 246.124 232.393C245.589 231.462 245.321 230.369 245.321 229.115V219.182L248.005 219.16V229.049C248.005 229.643 248.104 230.175 248.302 230.644C248.508 231.113 248.783 231.513 249.127 231.843C249.472 232.166 249.868 232.411 250.315 232.58C250.763 232.749 251.225 232.833 251.701 232.833C252.193 232.833 252.658 232.749 253.098 232.58C253.546 232.404 253.942 232.155 254.286 231.832C254.631 231.502 254.902 231.102 255.1 230.633C255.298 230.164 255.397 229.636 255.397 229.049V219.16H258.081V229.115C258.081 230.369 257.81 231.462 257.267 232.393C256.732 233.324 255.984 234.047 255.023 234.56C254.07 235.073 252.963 235.33 251.701 235.33ZM261.375 235V219.16H264.026V235H261.375ZM267.321 235V219.16H270.005L277.353 230.325V219.16H280.037V235H277.353L270.005 223.835V235H267.321ZM289.646 235.33C288.62 235.33 287.655 235.15 286.753 234.791C285.859 234.424 285.07 233.889 284.388 233.185C283.714 232.481 283.186 231.619 282.804 230.6C282.423 229.573 282.232 228.4 282.232 227.08C282.232 225.349 282.555 223.872 283.2 222.647C283.846 221.415 284.729 220.473 285.851 219.82C286.973 219.16 288.238 218.83 289.646 218.83C291.597 218.83 293.141 219.285 294.277 220.194C295.421 221.096 296.195 222.365 296.598 224L293.892 224.429C293.592 223.49 293.1 222.742 292.418 222.185C291.736 221.62 290.867 221.338 289.811 221.338C288.748 221.323 287.864 221.554 287.16 222.031C286.456 222.508 285.925 223.179 285.565 224.044C285.213 224.909 285.037 225.921 285.037 227.08C285.037 228.239 285.213 229.247 285.565 230.105C285.917 230.956 286.445 231.619 287.149 232.096C287.861 232.573 288.748 232.818 289.811 232.833C290.611 232.84 291.311 232.697 291.912 232.404C292.514 232.103 293.005 231.652 293.386 231.051C293.768 230.442 294.024 229.683 294.156 228.774H291.362V226.695H296.972C296.987 226.812 296.998 226.985 297.005 227.212C297.013 227.439 297.016 227.575 297.016 227.619C297.016 229.115 296.719 230.446 296.125 231.612C295.539 232.771 294.695 233.68 293.595 234.34C292.495 235 291.179 235.33 289.646 235.33ZM306.974 235L302.343 219.16H305.126L308.283 230.6L311.429 219.182L314.212 219.16L317.369 230.6L320.515 219.16H323.298L318.678 235H316.06L312.815 223.736L309.592 235H306.974ZM325.313 235V219.16H327.964V235H325.313ZM335.065 235V221.646H329.939V219.16H342.842V221.646H337.716V235H335.065ZM344.601 235V219.16H347.252V225.826H354.754V219.16H357.394V235H354.754V228.312H347.252V235H344.601ZM364.882 235V219.16H367.269L372.747 230.38L378.225 219.16H380.612V235H378.137V224.847L373.275 235H372.219L367.368 224.847V235H364.882ZM387.552 235V228.51L382.162 219.16H385.253L388.894 225.474L392.524 219.16H395.615L390.236 228.51V235H387.552ZM407.209 235.33C406.182 235.33 405.218 235.15 404.316 234.791C403.421 234.424 402.633 233.889 401.951 233.185C401.276 232.481 400.748 231.619 400.367 230.6C399.985 229.573 399.795 228.4 399.795 227.08C399.795 225.349 400.117 223.872 400.763 222.647C401.408 221.415 402.292 220.473 403.414 219.82C404.536 219.16 405.801 218.83 407.209 218.83C409.159 218.83 410.703 219.285 411.84 220.194C412.984 221.096 413.757 222.365 414.161 224L411.455 224.429C411.154 223.49 410.663 222.742 409.981 222.185C409.299 221.62 408.43 221.338 407.374 221.338C406.31 221.323 405.427 221.554 404.723 222.031C404.019 222.508 403.487 223.179 403.128 224.044C402.776 224.909 402.6 225.921 402.6 227.08C402.6 228.239 402.776 229.247 403.128 230.105C403.48 230.956 404.008 231.619 404.712 232.096C405.423 232.573 406.31 232.818 407.374 232.833C408.173 232.84 408.873 232.697 409.475 232.404C410.076 232.103 410.567 231.652 410.949 231.051C411.33 230.442 411.587 229.683 411.719 228.774H408.925V226.695H414.535C414.549 226.812 414.56 226.985 414.568 227.212C414.575 227.439 414.579 227.575 414.579 227.619C414.579 229.115 414.282 230.446 413.688 231.612C413.101 232.771 412.258 233.68 411.158 234.34C410.058 235 408.741 235.33 407.209 235.33ZM417.008 235V219.16H419.659V235H417.008ZM422.954 235V219.16H429.499C429.653 219.16 429.851 219.167 430.093 219.182C430.335 219.189 430.559 219.211 430.764 219.248C431.681 219.387 432.436 219.692 433.03 220.161C433.631 220.63 434.075 221.224 434.361 221.943C434.654 222.654 434.801 223.446 434.801 224.319C434.801 225.61 434.475 226.721 433.822 227.652C433.169 228.576 432.168 229.148 430.819 229.368L429.686 229.467H425.605V235H422.954ZM432.051 235L428.927 228.554L431.622 227.96L435.054 235H432.051ZM425.605 226.992H429.389C429.536 226.992 429.701 226.985 429.884 226.97C430.067 226.955 430.236 226.926 430.39 226.882C430.83 226.772 431.175 226.578 431.424 226.299C431.681 226.02 431.86 225.705 431.963 225.353C432.073 225.001 432.128 224.656 432.128 224.319C432.128 223.982 432.073 223.637 431.963 223.285C431.86 222.926 431.681 222.607 431.424 222.328C431.175 222.049 430.83 221.855 430.39 221.745C430.236 221.701 430.067 221.675 429.884 221.668C429.701 221.653 429.536 221.646 429.389 221.646H425.605V226.992ZM437.698 235V219.16H440.349V232.514H447.345V235H437.698ZM449.208 235V219.16H458.745V221.811H451.859V225.76H457.425V228.4H451.859V235H449.208ZM460.724 235V219.16H467.269C467.423 219.16 467.621 219.167 467.863 219.182C468.105 219.189 468.328 219.211 468.534 219.248C469.45 219.387 470.206 219.692 470.8 220.161C471.401 220.63 471.845 221.224 472.131 221.943C472.424 222.654 472.571 223.446 472.571 224.319C472.571 225.61 472.244 226.721 471.592 227.652C470.939 228.576 469.938 229.148 468.589 229.368L467.456 229.467H463.375V235H460.724ZM469.821 235L466.697 228.554L469.392 227.96L472.824 235H469.821ZM463.375 226.992H467.159C467.305 226.992 467.47 226.985 467.654 226.97C467.837 226.955 468.006 226.926 468.16 226.882C468.6 226.772 468.944 226.578 469.194 226.299C469.45 226.02 469.63 225.705 469.733 225.353C469.843 225.001 469.898 224.656 469.898 224.319C469.898 223.982 469.843 223.637 469.733 223.285C469.63 222.926 469.45 222.607 469.194 222.328C468.944 222.049 468.6 221.855 468.16 221.745C468.006 221.701 467.837 221.675 467.654 221.668C467.47 221.653 467.305 221.646 467.159 221.646H463.375V226.992ZM475.467 235V219.16H478.118V235H475.467ZM481.413 235V219.16H491.643V221.646H484.064V225.551H490.323V228.037H484.064V232.514H491.643V235H481.413ZM494.282 235V219.16H496.966L504.314 230.325V219.16H506.998V235H504.314L496.966 223.835V235H494.282ZM510.073 235V219.16H515.122C515.254 219.16 515.515 219.164 515.903 219.171C516.299 219.178 516.681 219.204 517.047 219.248C518.301 219.409 519.361 219.857 520.226 220.59C521.099 221.316 521.759 222.244 522.206 223.373C522.654 224.502 522.877 225.738 522.877 227.08C522.877 228.422 522.654 229.658 522.206 230.787C521.759 231.916 521.099 232.848 520.226 233.581C519.361 234.307 518.301 234.751 517.047 234.912C516.688 234.956 516.31 234.982 515.914 234.989C515.518 234.996 515.254 235 515.122 235H510.073ZM512.768 232.503H515.122C515.342 232.503 515.621 232.496 515.958 232.481C516.303 232.466 516.607 232.433 516.871 232.382C517.619 232.243 518.228 231.909 518.697 231.381C519.167 230.853 519.511 230.211 519.731 229.456C519.959 228.701 520.072 227.909 520.072 227.08C520.072 226.222 519.959 225.415 519.731 224.66C519.504 223.905 519.152 223.27 518.675 222.757C518.206 222.244 517.605 221.917 516.871 221.778C516.607 221.719 516.303 221.686 515.958 221.679C515.621 221.664 515.342 221.657 515.122 221.657H512.768V232.503ZM529.482 219.16H532.144L527.92 235H525.258L529.482 219.16ZM239.542 266V250.16H245.823C246.894 250.16 247.77 250.376 248.452 250.809C249.141 251.234 249.651 251.781 249.981 252.448C250.318 253.115 250.487 253.805 250.487 254.516C250.487 255.389 250.278 256.129 249.86 256.738C249.449 257.347 248.888 257.757 248.177 257.97V257.42C249.174 257.647 249.93 258.12 250.443 258.839C250.964 259.558 251.224 260.375 251.224 261.292C251.224 262.231 251.044 263.052 250.685 263.756C250.326 264.46 249.79 265.01 249.079 265.406C248.375 265.802 247.502 266 246.461 266H239.542ZM242.226 263.503H246.131C246.593 263.503 247.007 263.411 247.374 263.228C247.741 263.037 248.027 262.773 248.232 262.436C248.445 262.091 248.551 261.684 248.551 261.215C248.551 260.79 248.459 260.408 248.276 260.071C248.093 259.734 247.825 259.466 247.473 259.268C247.121 259.063 246.699 258.96 246.208 258.96H242.226V263.503ZM242.226 256.485H245.79C246.171 256.485 246.512 256.412 246.813 256.265C247.114 256.118 247.352 255.902 247.528 255.616C247.704 255.33 247.792 254.978 247.792 254.56C247.792 254.01 247.616 253.552 247.264 253.185C246.912 252.818 246.421 252.635 245.79 252.635H242.226V256.485ZM260.12 266.33C258.536 266.33 257.179 265.985 256.05 265.296C254.921 264.599 254.052 263.631 253.443 262.392C252.842 261.153 252.541 259.715 252.541 258.08C252.541 256.445 252.842 255.007 253.443 253.768C254.052 252.529 254.921 251.564 256.05 250.875C257.179 250.178 258.536 249.83 260.12 249.83C261.704 249.83 263.061 250.178 264.19 250.875C265.327 251.564 266.196 252.529 266.797 253.768C267.406 255.007 267.71 256.445 267.71 258.08C267.71 259.715 267.406 261.153 266.797 262.392C266.196 263.631 265.327 264.599 264.19 265.296C263.061 265.985 261.704 266.33 260.12 266.33ZM260.12 263.833C261.183 263.84 262.067 263.606 262.771 263.129C263.482 262.652 264.014 261.981 264.366 261.116C264.725 260.251 264.905 259.239 264.905 258.08C264.905 256.921 264.725 255.917 264.366 255.066C264.014 254.208 263.482 253.541 262.771 253.064C262.067 252.587 261.183 252.342 260.12 252.327C259.057 252.32 258.173 252.554 257.469 253.031C256.765 253.508 256.233 254.179 255.874 255.044C255.522 255.909 255.346 256.921 255.346 258.08C255.346 259.239 255.522 260.247 255.874 261.105C256.226 261.956 256.754 262.619 257.458 263.096C258.169 263.573 259.057 263.818 260.12 263.833ZM273.083 266V259.51L267.693 250.16H270.784L274.425 256.474L278.055 250.16H281.146L275.767 259.51V266H273.083ZM282.683 266V250.16H292.22V252.811H285.334V256.76H290.9V259.4H285.334V266H282.683ZM294.198 266V250.16H300.743C300.897 250.16 301.095 250.167 301.337 250.182C301.579 250.189 301.803 250.211 302.008 250.248C302.925 250.387 303.68 250.692 304.274 251.161C304.876 251.63 305.319 252.224 305.605 252.943C305.899 253.654 306.045 254.446 306.045 255.319C306.045 256.61 305.719 257.721 305.066 258.652C304.414 259.576 303.413 260.148 302.063 260.368L300.93 260.467H296.849V266H294.198ZM303.295 266L300.171 259.554L302.866 258.96L306.298 266H303.295ZM296.849 257.992H300.633C300.78 257.992 300.945 257.985 301.128 257.97C301.312 257.955 301.48 257.926 301.634 257.882C302.074 257.772 302.419 257.578 302.668 257.299C302.925 257.02 303.105 256.705 303.207 256.353C303.317 256.001 303.372 255.656 303.372 255.319C303.372 254.982 303.317 254.637 303.207 254.285C303.105 253.926 302.925 253.607 302.668 253.328C302.419 253.049 302.074 252.855 301.634 252.745C301.48 252.701 301.312 252.675 301.128 252.668C300.945 252.653 300.78 252.646 300.633 252.646H296.849V257.992ZM308.942 266V250.16H311.593V266H308.942ZM314.888 266V250.16H325.118V252.646H317.539V256.551H323.798V259.037H317.539V263.514H325.118V266H314.888ZM327.757 266V250.16H330.441L337.789 261.325V250.16H340.473V266H337.789L330.441 254.835V266H327.757ZM343.548 266V250.16H348.597C348.729 250.16 348.989 250.164 349.378 250.171C349.774 250.178 350.155 250.204 350.522 250.248C351.776 250.409 352.835 250.857 353.701 251.59C354.573 252.316 355.233 253.244 355.681 254.373C356.128 255.502 356.352 256.738 356.352 258.08C356.352 259.422 356.128 260.658 355.681 261.787C355.233 262.916 354.573 263.848 353.701 264.581C352.835 265.307 351.776 265.751 350.522 265.912C350.162 265.956 349.785 265.982 349.389 265.989C348.993 265.996 348.729 266 348.597 266H343.548ZM346.243 263.503H348.597C348.817 263.503 349.095 263.496 349.433 263.481C349.777 263.466 350.082 263.433 350.346 263.382C351.094 263.243 351.702 262.909 352.172 262.381C352.641 261.853 352.986 261.211 353.206 260.456C353.433 259.701 353.547 258.909 353.547 258.08C353.547 257.222 353.433 256.415 353.206 255.66C352.978 254.905 352.626 254.27 352.15 253.757C351.68 253.244 351.079 252.917 350.346 252.778C350.082 252.719 349.777 252.686 349.433 252.679C349.095 252.664 348.817 252.657 348.597 252.657H346.243V263.503ZM358.296 266V263.283H361.013V266H358.296Z" fill="#FFACC0"></path></svg> 