<?xml version="1.0" encoding="UTF-8"?> <svg xmlns="http://www.w3.org/2000/svg" width="600" height="400" viewBox="0 0 600 400" fill="none"><rect width="600" height="400" rx="20" fill="#A11717"></rect><path d="M164.323 140.5C164.646 140.559 165.364 141.688 166.479 143.888C167.594 146.059 168.958 148.875 170.571 152.336L171.979 155.284C172.595 154.609 173.167 153.832 173.695 152.952C174.223 152.043 174.883 150.825 175.675 149.3C176.584 147.569 177.215 146.455 177.567 145.956C178.975 143.815 180.5 141.541 182.143 139.136C182.348 138.813 182.715 138.593 183.243 138.476C183.331 138.447 183.478 138.432 183.683 138.432C184.387 138.432 185.164 138.725 186.015 139.312C186.895 139.899 187.467 140.5 187.731 141.116C187.79 141.233 187.819 141.453 187.819 141.776C187.819 142.069 187.804 142.289 187.775 142.436C187.716 142.7 187.643 143.037 187.555 143.448C187.496 143.829 187.438 144.284 187.379 144.812C186.44 151.969 185.766 157.337 185.355 160.916C185.238 161.737 185.179 162.661 185.179 163.688L185.091 165.096C185.062 165.389 185.047 165.727 185.047 166.108C185.047 166.489 185.003 166.753 184.915 166.9C184.827 167.047 184.666 167.12 184.431 167.12C184.255 167.12 183.991 167.076 183.639 166.988C182.7 166.783 181.982 166.416 181.483 165.888C180.984 165.331 180.706 164.568 180.647 163.6C180.618 163.101 180.603 162.324 180.603 161.268C180.603 160.183 180.632 158.525 180.691 156.296L180.735 153.876L180.823 150.4C180.559 150.635 179.884 151.559 178.799 153.172C177.743 154.756 176.702 156.413 175.675 158.144C174.648 159.875 173.974 161.209 173.651 162.148C173.358 162.881 173.064 163.424 172.771 163.776C172.507 164.128 172.184 164.304 171.803 164.304C171.451 164.304 170.996 164.143 170.439 163.82C168.855 162.852 167.887 161.517 167.535 159.816C166.978 157.205 166.288 154.492 165.467 151.676C165.32 151.148 165.027 150.429 164.587 149.52C164.176 148.611 163.912 148.039 163.795 147.804L163.223 146.66C158.94 152.351 156.036 157.572 154.511 162.324C154.218 163.321 153.939 164.04 153.675 164.48C153.411 164.891 153.103 165.096 152.751 165.096C152.194 165.096 151.402 164.597 150.375 163.6C149.583 162.896 149.187 162.104 149.187 161.224C149.187 160.755 149.275 160.285 149.451 159.816C150.683 156.179 152.516 152.732 154.951 149.476L156.315 147.672C158.163 145.237 159.556 143.331 160.495 141.952C161.199 140.925 162.138 140.412 163.311 140.412C163.516 140.412 163.854 140.441 164.323 140.5ZM204.08 158.54C203.992 158.481 203.845 158.364 203.64 158.188C203.435 158.012 203.244 157.895 203.068 157.836C199.783 156.633 197.319 154.316 195.676 150.884C194.913 149.3 193.945 146.836 192.772 143.492L192.376 142.392C192.259 141.981 192.2 141.615 192.2 141.292C192.2 140.823 192.288 140.529 192.464 140.412C192.699 140.236 193.095 140.148 193.652 140.148C193.916 140.148 194.253 140.177 194.664 140.236C194.928 140.265 195.251 140.368 195.632 140.544C196.013 140.691 196.307 140.808 196.512 140.896C196.923 141.043 197.216 141.263 197.392 141.556C197.597 141.82 197.744 142.187 197.832 142.656C198.565 146.616 199.9 150.268 201.836 153.612C202.247 154.257 202.833 154.888 203.596 155.504C204.212 155.973 204.696 156.208 205.048 156.208C205.576 156.208 206.104 155.812 206.632 155.02L208.524 152.204C209.668 150.415 210.929 148.537 212.308 146.572C213.364 145.047 214.596 144.284 216.004 144.284C216.913 144.284 217.852 144.592 218.82 145.208C219.348 145.501 219.612 145.927 219.612 146.484C219.612 146.895 219.421 147.247 219.04 147.54C217.28 148.948 215.725 150.532 214.376 152.292C213.027 154.023 211.501 156.237 209.8 158.936L209.096 160.036L207.688 162.236C204.784 166.783 202.364 170.537 200.428 173.5C200.34 173.617 200.164 173.867 199.9 174.248C199.665 174.629 199.401 174.923 199.108 175.128C198.815 175.363 198.477 175.48 198.096 175.48C197.363 175.744 196.82 175.891 196.468 175.92C196.116 175.949 195.852 176.008 195.676 176.096L195.368 175.876L204.08 158.54ZM236.317 154.492C236.288 154.287 236.273 153.949 236.273 153.48C236.273 152.336 236.39 151.221 236.625 150.136C236.86 149.051 237.197 147.863 237.637 146.572C238.077 145.369 238.913 144.167 240.145 142.964C241.377 141.761 242.756 140.779 244.281 140.016C245.806 139.224 247.185 138.828 248.417 138.828C249.678 138.828 250.91 139.297 252.113 140.236C253.316 141.145 254.078 142.187 254.401 143.36C254.46 143.712 254.489 143.947 254.489 144.064C254.489 144.504 254.357 144.841 254.093 145.076C253.858 145.281 253.536 145.384 253.125 145.384C252.802 145.384 252.553 145.369 252.377 145.34C252.289 145.34 252.157 145.281 251.981 145.164C251.13 144.695 250.309 144.46 249.517 144.46C248.021 144.46 246.54 145.237 245.073 146.792C242.58 149.403 241.333 152.512 241.333 156.12C241.333 157.411 241.465 158.657 241.729 159.86C242.022 161.209 242.536 162.207 243.269 162.852C244.032 163.468 245.044 163.776 246.305 163.776C246.745 163.776 247.229 163.732 247.757 163.644C249.605 163.409 251.306 162.852 252.861 161.972C254.416 161.063 256.132 159.86 258.009 158.364C258.449 158.012 259.226 157.279 260.341 156.164L261.221 155.24C261.602 154.859 261.925 154.595 262.189 154.448C262.482 154.272 262.746 154.184 262.981 154.184C263.362 154.184 263.832 154.375 264.389 154.756C265.005 155.196 265.313 155.753 265.313 156.428C265.313 156.897 265.152 157.337 264.829 157.748C264.712 157.953 264.389 158.437 263.861 159.2C263.333 159.933 262.82 160.593 262.321 161.18C261.822 161.767 261.324 162.265 260.825 162.676C258.126 165.052 255.31 166.651 252.377 167.472C251.086 167.824 249.796 168 248.505 168C246.129 168 244.017 167.399 242.169 166.196C240.35 164.993 238.928 163.424 237.901 161.488C236.874 159.523 236.346 157.484 236.317 155.372V154.492ZM270.364 156.604C271.537 153.172 272.74 149.843 273.972 146.616L275.028 143.712C274.148 143.624 273.708 143.287 273.708 142.7C273.708 142.495 273.752 142.289 273.84 142.084C274.544 140.5 275.116 139.341 275.556 138.608C276.201 137.523 276.832 136.54 277.448 135.66L278.636 133.856C279.105 133.739 279.442 133.68 279.648 133.68C280.029 133.68 280.396 133.739 280.748 133.856C281.129 133.973 281.496 134.12 281.848 134.296C282.229 134.443 282.537 134.56 282.772 134.648C283.505 134.971 283.872 135.543 283.872 136.364C283.872 136.745 283.813 137.112 283.696 137.464C283.197 139.077 282.361 141.468 281.188 144.636L279.208 149.784C277.682 153.715 276.568 156.663 275.864 158.628C275.453 159.86 275.116 161.195 274.852 162.632C274.617 164.069 274.47 164.92 274.412 165.184C274.353 165.595 274.324 165.859 274.324 165.976C274.324 166.416 274.441 166.739 274.676 166.944C274.94 167.149 275.365 167.311 275.952 167.428C276.89 167.575 278.049 167.648 279.428 167.648C284.004 167.589 288.492 166.885 292.892 165.536C292.921 165.565 292.95 165.58 292.98 165.58C293.009 165.58 293.038 165.609 293.068 165.668L293.552 167.12C292.877 167.912 292.085 168.513 291.176 168.924C290.296 169.335 289.181 169.716 287.832 170.068C286.776 170.361 285.72 170.552 284.664 170.64C283.637 170.757 282.185 170.86 280.308 170.948C280.014 170.977 279.589 170.992 279.032 170.992C277.8 170.992 276.582 170.904 275.38 170.728C273.737 170.493 272.065 169.701 270.364 168.352C269.044 167.237 268.384 165.903 268.384 164.348C268.384 163.82 268.442 163.336 268.56 162.896C269.117 160.52 269.718 158.423 270.364 156.604ZM300.586 145.868C301.73 143.961 303.505 142.289 305.91 140.852C307.817 139.708 310.031 139.136 312.554 139.136C314.343 139.136 316.074 139.444 317.746 140.06C319.418 140.647 320.797 141.483 321.882 142.568C322.263 142.949 322.674 143.316 323.114 143.668C323.789 144.255 324.185 144.621 324.302 144.768C325.769 146.323 326.502 148.039 326.502 149.916C326.502 151.383 326.033 152.879 325.094 154.404C323.862 156.428 322.586 158.203 321.266 159.728C319.946 161.253 318.465 162.559 316.822 163.644C314.035 165.492 311.366 166.416 308.814 166.416C308.051 166.416 307.289 166.328 306.526 166.152C303.974 165.595 301.906 164.407 300.322 162.588C298.738 160.74 297.946 158.643 297.946 156.296C297.946 154.507 298.445 152.717 299.442 150.928C299.501 150.781 299.618 150.635 299.794 150.488C299.999 150.341 300.161 150.224 300.278 150.136L301.29 150.62L302.258 151.104C303.167 151.603 303.754 152.013 304.018 152.336C304.311 152.659 304.458 153.113 304.458 153.7C304.458 154.111 304.414 154.668 304.326 155.372C304.297 155.636 304.282 156.017 304.282 156.516C304.282 157.601 304.414 158.907 304.678 160.432C304.737 160.872 304.913 161.209 305.206 161.444C305.529 161.679 305.925 161.796 306.394 161.796C306.629 161.796 306.819 161.781 306.966 161.752C308.345 161.488 309.518 161.18 310.486 160.828C311.483 160.476 312.378 159.948 313.17 159.244C314.637 157.983 315.913 156.765 316.998 155.592C318.083 154.419 319.037 153.157 319.858 151.808C320.415 150.869 320.694 149.96 320.694 149.08C320.694 148.347 320.533 147.628 320.21 146.924C319.887 146.22 319.418 145.428 318.802 144.548C317.775 143.14 316.441 142.436 314.798 142.436C314.211 142.436 313.61 142.524 312.994 142.7C312.789 142.759 311.85 143.067 310.178 143.624C310.002 143.683 309.811 143.741 309.606 143.8C309.43 143.859 309.239 143.917 309.034 143.976L304.018 145.428C303.373 145.633 302.375 145.912 301.026 146.264L300.586 145.868ZM341.221 152.82C341.309 151.617 341.397 150.517 341.485 149.52C341.573 148.493 341.661 147.569 341.749 146.748L342.101 143.228C339.813 143.58 337.378 144.255 334.797 145.252C334.181 145.487 333.609 145.604 333.081 145.604C332.289 145.604 331.555 145.384 330.881 144.944C330.235 144.504 329.722 143.859 329.341 143.008C329.517 142.363 329.839 141.879 330.309 141.556C330.807 141.233 331.482 140.911 332.333 140.588C336.41 139.092 341.074 138.359 346.325 138.388C348.818 138.388 351.414 138.491 354.113 138.696C356.841 138.901 358.439 139.019 358.909 139.048L361.989 139.268C362.106 139.268 362.297 139.268 362.561 139.268C362.854 139.268 363.089 139.341 363.265 139.488C363.441 139.605 363.529 139.811 363.529 140.104C363.529 140.837 363.001 141.263 361.945 141.38C359.305 141.673 357.427 141.879 356.313 141.996C355.169 142.055 354.303 142.113 353.717 142.172C351.429 142.319 349.713 142.436 348.569 142.524C347.865 142.583 347.381 142.671 347.117 142.788C346.853 142.876 346.677 143.052 346.589 143.316C346.53 143.551 346.471 144.064 346.413 144.856C346.266 146.704 345.958 149.887 345.489 154.404C345.019 158.481 344.726 161.297 344.609 162.852C344.579 163.703 344.389 164.729 344.037 165.932C343.802 166.695 343.611 167.208 343.465 167.472C343.318 167.707 343.098 167.853 342.805 167.912C342.541 167.971 342.027 167.985 341.265 167.956C340.707 167.956 340.267 167.839 339.945 167.604C339.651 167.34 339.505 166.988 339.505 166.548C339.505 166.46 339.534 166.269 339.593 165.976C340.238 163.424 340.781 159.039 341.221 152.82ZM363.693 161.62C364.163 159.625 364.529 158.129 364.793 157.132L365.717 153.348C365.629 153.231 365.453 153.04 365.189 152.776C364.925 152.483 364.705 152.204 364.529 151.94C364.353 151.676 364.265 151.456 364.265 151.28C364.265 151.075 364.368 150.884 364.573 150.708C364.808 150.532 365.16 150.312 365.629 150.048C366.979 149.344 367.844 148.185 368.225 146.572L370.205 138.124C370.293 137.772 370.411 137.508 370.557 137.332C370.704 137.127 370.953 137.039 371.305 137.068C372.655 137.156 373.725 137.596 374.517 138.388C375.309 139.151 375.705 140.045 375.705 141.072C375.705 141.512 375.617 141.981 375.441 142.48C375.089 143.389 374.737 144.607 374.385 146.132L373.945 147.892L374.913 148.024C375.412 148.112 375.852 148.156 376.233 148.156L379.269 148.024C380.619 147.965 381.631 147.936 382.305 147.936C383.185 147.907 383.757 147.452 384.021 146.572L385.473 141.336C385.532 141.131 385.723 140.544 386.045 139.576C387.424 139.605 388.524 140.045 389.345 140.896C390.196 141.747 390.621 142.773 390.621 143.976C390.621 144.387 390.548 144.856 390.401 145.384C388.377 152.395 385.943 158.907 383.097 164.92C382.599 166.005 381.777 167.384 380.633 169.056L379.621 170.64C379.211 171.315 378.727 171.652 378.169 171.652C378.052 171.652 377.876 171.623 377.641 171.564C377.025 171.359 376.541 171.124 376.189 170.86C375.867 170.625 375.72 170.259 375.749 169.76C375.808 168.851 375.881 168.103 375.969 167.516C376.057 166.929 376.204 166.357 376.409 165.8C376.791 164.861 377.612 162.881 378.873 159.86C379.108 159.332 379.387 158.716 379.709 158.012C380.032 157.279 380.369 156.457 380.721 155.548C380.868 155.225 381.059 154.565 381.293 153.568C381.323 153.333 381.396 152.981 381.513 152.512C381.015 152.571 380.296 152.629 379.357 152.688L376.761 152.952C376.527 152.981 376.101 153.055 375.485 153.172C374.723 153.377 374.004 153.495 373.329 153.524C372.42 153.641 371.804 154.155 371.481 155.064C370.924 156.707 370.059 159.171 368.885 162.456C368.797 162.72 368.651 163.145 368.445 163.732C368.24 164.319 368.005 164.832 367.741 165.272C367.477 165.712 367.155 166.079 366.773 166.372C365.512 166.02 364.647 165.653 364.177 165.272C363.708 164.861 363.473 164.245 363.473 163.424C363.473 163.013 363.547 162.412 363.693 161.62ZM404.517 151.192L406.101 150.972C407.245 150.796 408.022 150.693 408.433 150.664L409.489 150.576C409.841 150.547 410.281 150.517 410.809 150.488C411.337 150.459 411.938 150.444 412.613 150.444C413.258 150.444 413.727 150.459 414.021 150.488C415.047 150.576 415.795 150.913 416.265 151.5C416.763 152.087 417.057 152.967 417.145 154.14C417.027 154.14 416.851 154.125 416.617 154.096C416.382 154.067 416.191 154.037 416.044 154.008C415.223 153.861 414.475 153.788 413.801 153.788C413.009 153.788 412.246 153.891 411.513 154.096C409.635 154.683 407.23 155.299 404.297 155.944C403.739 156.091 403.299 156.325 402.977 156.648C402.683 156.941 402.493 157.367 402.405 157.924C402.229 159.039 402.009 160.153 401.745 161.268C401.539 162.295 401.378 163.145 401.261 163.82C401.231 164.055 401.217 164.363 401.217 164.744C401.217 165.096 401.217 165.345 401.217 165.492C401.686 165.58 402.17 165.624 402.669 165.624C403.637 165.624 404.825 165.433 406.233 165.052C408.814 164.436 411.41 163.776 414.021 163.072L418.861 161.84C420.386 161.459 421.589 161.121 422.469 160.828C424.375 160.3 425.754 159.933 426.605 159.728C426.957 159.669 427.221 159.64 427.397 159.64C428.13 159.64 428.614 159.933 428.849 160.52C428.937 160.725 428.981 160.931 428.981 161.136C428.981 161.488 428.863 161.825 428.629 162.148C428.394 162.471 428.071 162.735 427.661 162.94C427.103 163.175 426.341 163.424 425.373 163.688C422.557 164.509 420.063 165.287 417.893 166.02C413.669 167.369 410.53 168.323 408.477 168.88C407.655 169.115 406.423 169.32 404.781 169.496L403.153 169.716C402.155 169.833 401.261 169.496 400.469 168.704L399.677 167.912C398.709 167.003 397.961 166.211 397.433 165.536C397.051 165.037 396.89 164.348 396.949 163.468C397.037 162.441 397.227 160.872 397.521 158.76L397.697 157.352L397.829 156.032C396.949 155.768 396.259 155.445 395.761 155.064C395.291 154.653 395.042 154.008 395.013 153.128C395.951 153.011 396.655 152.952 397.125 152.952C397.653 152.923 398.078 152.791 398.401 152.556C398.723 152.321 398.973 151.94 399.149 151.412C399.471 150.356 400.014 148.801 400.777 146.748C401.011 145.985 401.305 145.135 401.657 144.196C401.803 143.727 401.906 143.14 401.965 142.436C401.965 141.908 402.082 141.497 402.317 141.204C402.581 140.881 402.991 140.632 403.549 140.456C406.218 139.635 409.694 139.004 413.977 138.564C415.385 138.417 416.778 138.373 418.157 138.432C420.093 138.432 421.53 139.165 422.469 140.632C422.733 140.984 422.865 141.453 422.865 142.04C422.865 142.304 422.835 142.495 422.777 142.612C422.601 143.023 422.337 143.375 421.985 143.668C421.662 143.932 421.251 144.064 420.753 144.064L419.037 144.108C418.215 144.167 417.614 144.196 417.233 144.196C416.411 144.196 415.854 144.049 415.561 143.756C415.15 143.345 414.637 143.14 414.021 143.14C413.845 143.14 413.551 143.169 413.141 143.228L408.785 144.24L407.025 144.68L404.517 151.192ZM447.68 136.672C448.413 136.965 448.78 137.376 448.78 137.904C448.78 138.432 448.413 139.107 447.68 139.928C447.357 139.899 446.888 139.884 446.272 139.884C444.923 139.884 443.632 140.075 442.4 140.456C441.168 140.808 439.892 141.365 438.572 142.128C437.956 142.509 437.428 142.993 436.988 143.58C436.665 143.932 436.504 144.343 436.504 144.812C436.504 145.604 436.944 146.367 437.824 147.1C438.675 147.98 440.068 149.579 442.004 151.896L443.016 152.952C444.453 154.507 445.583 155.827 446.404 156.912C447.255 157.997 447.973 159.244 448.56 160.652C448.795 161.268 448.912 161.825 448.912 162.324C448.912 163.585 448.428 164.744 447.46 165.8C446.345 167.032 445.055 167.927 443.588 168.484C442.121 169.071 440.464 169.437 438.616 169.584C438.381 169.613 438.103 169.643 437.78 169.672C437.457 169.701 437.091 169.716 436.68 169.716C436.416 169.716 436.02 169.687 435.492 169.628C434.847 169.657 434.172 169.54 433.468 169.276C432.764 169.041 432.119 168.689 431.532 168.22C430.417 167.281 429.86 166.24 429.86 165.096C429.86 164.128 430.271 163.145 431.092 162.148C431.503 162.207 431.737 162.339 431.796 162.544C431.884 162.72 431.899 162.925 431.84 163.16C431.811 163.395 431.796 163.585 431.796 163.732C431.796 163.82 431.825 163.952 431.884 164.128C433.028 164.656 434.392 164.92 435.976 164.92C437.736 164.92 439.393 164.627 440.948 164.04C442.532 163.424 443.5 162.676 443.852 161.796C444.057 161.209 443.559 160.183 442.356 158.716C441.153 157.22 439.804 155.768 438.308 154.36C436.9 153.099 435.624 151.852 434.48 150.62C433.835 149.916 433.321 149.109 432.94 148.2C432.588 147.261 432.412 146.293 432.412 145.296C432.412 143.947 432.749 142.671 433.424 141.468C434.128 140.265 435.169 139.283 436.548 138.52C439.188 137.024 441.887 136.276 444.644 136.276C445.025 136.276 445.568 136.305 446.272 136.364C446.917 136.423 447.387 136.525 447.68 136.672ZM208.473 188.416C208.649 189.677 208.825 191.511 209.001 193.916L209.089 196.204C209.089 200.457 209.646 204.256 210.761 207.6C210.908 208.069 210.981 208.671 210.981 209.404C210.981 209.815 210.952 210.372 210.893 211.076C210.864 211.545 210.688 211.912 210.365 212.176C210.042 212.469 209.632 212.616 209.133 212.616C209.074 212.616 208.913 212.587 208.649 212.528C207.916 212.352 207.358 212.029 206.977 211.56C206.596 211.061 206.405 210.46 206.405 209.756C206.405 209.521 206.42 209.345 206.449 209.228C206.449 209.052 206.449 208.803 206.449 208.48C206.449 207.952 206.42 207.468 206.361 207.028C206.126 205.884 205.76 204.359 205.261 202.452C205.085 201.66 204.718 201.264 204.161 201.264C203.956 201.264 203.721 201.308 203.457 201.396C202.548 201.66 201.741 201.909 201.037 202.144C200.362 202.379 199.761 202.569 199.233 202.716L197.121 203.332C195.918 203.684 194.804 203.963 193.777 204.168C192.692 204.403 191.9 205.004 191.401 205.972C190.932 206.852 190.257 208.04 189.377 209.536C188.82 210.533 188.086 211.032 187.177 211.032C186.737 211.032 186.297 210.929 185.857 210.724C185.446 210.489 185.094 210.196 184.801 209.844C184.361 209.345 184.141 208.861 184.141 208.392C184.141 208.069 184.229 207.732 184.405 207.38L187.441 201.22C190.785 194.415 192.78 190.337 193.425 188.988C195.273 185.409 197.781 182.945 200.949 181.596C201.624 181.273 202.313 181.112 203.017 181.112C203.897 181.112 204.704 181.347 205.437 181.816C206.2 182.256 206.786 182.887 207.197 183.708C207.784 184.911 208.209 186.48 208.473 188.416ZM194.261 199.548C198.28 198.844 201.697 198.272 204.513 197.832C204.454 195.016 204.366 192.801 204.249 191.188C204.161 189.545 203.956 187.903 203.633 186.26C202.078 186.436 200.905 187.199 200.113 188.548C198.734 190.719 197.414 192.963 196.153 195.28C195.948 195.661 195.566 196.512 195.009 197.832L194.261 199.548ZM242.341 207.776C242.429 208.069 242.473 208.348 242.473 208.612C242.473 209.081 242.326 209.463 242.033 209.756C241.769 210.02 241.402 210.152 240.933 210.152C240.757 210.152 240.61 210.137 240.493 210.108C239.173 209.815 238.132 209.492 237.369 209.14C236.782 208.876 235.697 208.216 234.113 207.16C232.91 206.368 231.913 205.752 231.121 205.312C230.094 204.755 228.994 204.373 227.821 204.168C227.293 204.08 226.046 203.933 224.081 203.728C223.201 203.669 222.556 203.611 222.145 203.552L221.353 210.064L221.397 210.768C221.397 211.824 221.265 212.528 221.001 212.88C220.766 213.232 220.268 213.408 219.505 213.408C218.713 213.408 218.024 213.159 217.437 212.66C216.85 212.161 216.557 211.545 216.557 210.812C216.557 208.583 216.674 206.603 216.909 204.872C217.73 199.563 219.622 194.048 222.585 188.328C224.257 185.131 226.824 182.667 230.285 180.936C231.4 180.379 232.529 180.1 233.673 180.1C234.846 180.1 235.932 180.408 236.929 181.024C237.956 181.611 238.806 182.476 239.481 183.62C240.097 184.647 240.405 185.644 240.405 186.612C240.405 187.961 239.877 189.325 238.821 190.704C237.56 192.347 235.77 194.679 233.453 197.7L230.593 201.396C230.622 201.396 230.652 201.44 230.681 201.528C230.74 201.587 230.798 201.645 230.857 201.704L231.825 202.232C234.26 203.552 236.049 204.593 237.193 205.356C238.308 206.031 239.496 206.368 240.757 206.368C241.138 206.368 241.432 206.353 241.637 206.324C241.725 206.471 241.842 206.691 241.989 206.984C242.136 207.277 242.253 207.541 242.341 207.776ZM226.061 199.064C227.264 197.715 228.466 196.307 229.669 194.84C230.901 193.373 231.986 191.995 232.925 190.704C233.306 190.176 233.629 189.619 233.893 189.032C234.157 188.416 234.392 187.8 234.597 187.184C234.832 186.568 234.993 186.128 235.081 185.864C235.11 185.776 235.125 185.629 235.125 185.424C235.125 185.189 235.096 184.896 235.037 184.544C234.978 184.192 234.934 183.943 234.905 183.796C232.764 184.441 230.813 185.761 229.053 187.756C227.293 189.751 225.9 191.965 224.873 194.4C223.876 196.835 223.362 198.932 223.333 200.692C223.92 200.751 224.374 200.648 224.697 200.384C225.049 200.12 225.504 199.68 226.061 199.064ZM256.661 195.192L258.245 194.972C259.389 194.796 260.166 194.693 260.577 194.664L261.633 194.576C261.985 194.547 262.425 194.517 262.953 194.488C263.481 194.459 264.082 194.444 264.757 194.444C265.402 194.444 265.872 194.459 266.165 194.488C267.192 194.576 267.94 194.913 268.409 195.5C268.908 196.087 269.201 196.967 269.289 198.14C269.172 198.14 268.996 198.125 268.761 198.096C268.526 198.067 268.336 198.037 268.189 198.008C267.368 197.861 266.62 197.788 265.945 197.788C265.153 197.788 264.39 197.891 263.657 198.096C261.78 198.683 259.374 199.299 256.441 199.944C255.884 200.091 255.444 200.325 255.121 200.648C254.828 200.941 254.637 201.367 254.549 201.924C254.373 203.039 254.153 204.153 253.889 205.268C253.684 206.295 253.522 207.145 253.405 207.82C253.376 208.055 253.361 208.363 253.361 208.744C253.361 209.096 253.361 209.345 253.361 209.492C253.83 209.58 254.314 209.624 254.813 209.624C255.781 209.624 256.969 209.433 258.377 209.052C260.958 208.436 263.554 207.776 266.165 207.072L271.005 205.84C272.53 205.459 273.733 205.121 274.613 204.828C276.52 204.3 277.898 203.933 278.749 203.728C279.101 203.669 279.365 203.64 279.541 203.64C280.274 203.64 280.758 203.933 280.993 204.52C281.081 204.725 281.125 204.931 281.125 205.136C281.125 205.488 281.008 205.825 280.773 206.148C280.538 206.471 280.216 206.735 279.805 206.94C279.248 207.175 278.485 207.424 277.517 207.688C274.701 208.509 272.208 209.287 270.037 210.02C265.813 211.369 262.674 212.323 260.621 212.88C259.8 213.115 258.568 213.32 256.925 213.496L255.297 213.716C254.3 213.833 253.405 213.496 252.613 212.704L251.821 211.912C250.853 211.003 250.105 210.211 249.577 209.536C249.196 209.037 249.034 208.348 249.093 207.468C249.181 206.441 249.372 204.872 249.665 202.76L249.841 201.352L249.973 200.032C249.093 199.768 248.404 199.445 247.905 199.064C247.436 198.653 247.186 198.008 247.157 197.128C248.096 197.011 248.8 196.952 249.269 196.952C249.797 196.923 250.222 196.791 250.545 196.556C250.868 196.321 251.117 195.94 251.293 195.412C251.616 194.356 252.158 192.801 252.921 190.748C253.156 189.985 253.449 189.135 253.801 188.196C253.948 187.727 254.05 187.14 254.109 186.436C254.109 185.908 254.226 185.497 254.461 185.204C254.725 184.881 255.136 184.632 255.693 184.456C258.362 183.635 261.838 183.004 266.121 182.564C267.529 182.417 268.922 182.373 270.301 182.432C272.237 182.432 273.674 183.165 274.613 184.632C274.877 184.984 275.009 185.453 275.009 186.04C275.009 186.304 274.98 186.495 274.921 186.612C274.745 187.023 274.481 187.375 274.129 187.668C273.806 187.932 273.396 188.064 272.897 188.064L271.181 188.108C270.36 188.167 269.758 188.196 269.377 188.196C268.556 188.196 267.998 188.049 267.705 187.756C267.294 187.345 266.781 187.14 266.165 187.14C265.989 187.14 265.696 187.169 265.285 187.228L260.929 188.24L259.169 188.68L256.661 195.192ZM312.585 207.512C312.555 207.277 312.423 206.735 312.189 205.884L311.793 204.564L309.021 207.688L307.965 208.832C306.527 210.387 305.457 211.531 304.753 212.264C304.459 212.528 304.122 212.748 303.741 212.924C303.359 213.1 303.022 213.173 302.729 213.144C302.113 213.027 301.57 212.748 301.101 212.308C300.631 211.897 300.323 211.369 300.177 210.724C298.945 205.268 297.771 199.988 296.657 194.884C296.51 194.151 296.305 193.549 296.041 193.08C295.777 192.611 295.366 192.215 294.809 191.892C294.193 191.54 293.885 190.924 293.885 190.044C293.885 189.663 293.899 189.369 293.929 189.164C294.046 188.284 294.603 187.683 295.601 187.36C295.777 187.272 295.997 187.228 296.261 187.228C296.554 187.228 296.803 187.301 297.009 187.448C297.947 188.123 298.71 188.783 299.297 189.428C299.883 190.073 300.25 190.909 300.397 191.936C300.69 193.931 301.247 196.923 302.069 200.912L302.641 203.64C302.67 203.757 302.729 203.904 302.817 204.08C302.934 204.227 303.037 204.373 303.125 204.52C304.738 203.552 306.117 202.408 307.261 201.088C308.434 199.739 309.769 197.964 311.265 195.764C312.409 194.063 313.347 192.743 314.081 191.804L316.457 195.192C316.369 195.573 316.207 196.116 315.973 196.82C315.591 198.199 315.283 199.387 315.049 200.384C314.843 201.352 314.799 202.203 314.917 202.936C315.034 203.669 315.327 204.373 315.797 205.048C316.207 204.96 316.515 204.813 316.721 204.608C316.926 204.373 317.073 204.153 317.161 203.948C317.278 203.713 317.366 203.552 317.425 203.464C317.835 202.701 318.363 201.499 319.009 199.856C321.267 193.96 324.523 188.005 328.777 181.992C329.129 181.493 329.598 181.229 330.185 181.2C330.771 181.141 331.021 181.42 330.933 182.036C330.874 182.652 330.625 183.503 330.185 184.588C329.774 185.673 329.525 186.421 329.437 186.832C329.349 187.243 329.246 187.58 329.129 187.844C328.777 188.636 328.601 188.988 328.601 188.9C328.63 188.783 328.542 188.929 328.337 189.34C327.163 191.687 326.21 193.769 325.477 195.588C324.655 197.524 323.585 200.516 322.265 204.564L321.737 206.192C321.473 207.043 321.091 207.849 320.593 208.612C320.123 209.375 319.507 210.225 318.745 211.164C318.393 211.692 317.938 211.956 317.381 211.956C317.117 211.956 316.809 211.883 316.457 211.736C315.313 211.267 314.418 210.724 313.773 210.108C313.127 209.492 312.731 208.627 312.585 207.512ZM348.148 195.632C348.148 195.749 348.163 195.881 348.192 196.028C348.221 196.145 348.251 196.263 348.28 196.38C348.515 196.409 348.867 196.424 349.336 196.424C351.389 196.424 353.501 195.984 355.672 195.104C356.288 194.869 356.801 194.752 357.212 194.752C358.033 194.752 358.708 195.133 359.236 195.896C359.5 196.307 359.632 196.659 359.632 196.952C359.632 197.304 359.441 197.671 359.06 198.052C357.887 199.137 356.64 199.753 355.32 199.9C354.147 200.047 352.387 200.296 350.04 200.648L346.96 201.088C346.491 202.115 346.256 203.112 346.256 204.08C346.256 205.488 346.74 206.661 347.708 207.6C348.705 208.509 350.055 208.993 351.756 209.052C353.487 209.081 355.701 208.964 358.4 208.7L359.06 208.656C359.793 208.656 360.395 208.832 360.864 209.184C361.363 209.507 361.832 210.093 362.272 210.944C361.949 211.648 361.495 212.117 360.908 212.352C360.321 212.616 359.559 212.807 358.62 212.924C357.652 213.041 356.552 213.1 355.32 213.1C352.651 213.1 350.245 212.675 348.104 211.824C344.32 210.357 341.9 207.82 340.844 204.212C340.697 203.713 340.624 203.185 340.624 202.628C340.624 202.041 340.624 201.689 340.624 201.572C340.624 200.575 340.14 199.841 339.172 199.372C338.38 198.932 337.764 198.507 337.324 198.096C336.913 197.685 336.649 197.069 336.532 196.248L341.504 195.94L343.748 189.472C343.807 189.267 343.865 189.017 343.924 188.724C344.012 188.401 344.1 188.152 344.188 187.976C344.452 187.389 344.584 186.905 344.584 186.524C344.584 185.937 344.305 185.424 343.748 184.984C343.543 184.837 343.367 184.573 343.22 184.192C343.103 183.781 342.985 183.459 342.868 183.224L343.836 182.916C344.305 182.799 344.643 182.696 344.848 182.608C344.965 182.549 345.215 182.447 345.596 182.3C345.977 182.124 346.197 181.933 346.256 181.728C346.461 181.229 346.711 180.892 347.004 180.716C347.327 180.54 347.708 180.452 348.148 180.452C348.441 180.452 348.881 180.481 349.468 180.54C349.644 180.54 349.82 180.584 349.996 180.672C350.201 180.731 350.363 180.819 350.48 180.936C351.155 181.64 351.903 182.109 352.724 182.344C353.545 182.579 354.513 182.696 355.628 182.696H357.52H361.216C363.709 182.696 365.572 182.725 366.804 182.784C367.449 182.813 368.271 183.092 369.268 183.62C369.444 183.708 369.576 183.884 369.664 184.148C369.781 184.383 369.84 184.617 369.84 184.852C369.84 184.969 369.737 185.116 369.532 185.292C369.327 185.439 369.136 185.541 368.96 185.6C366.965 186.128 365.455 186.436 364.428 186.524C362.844 186.671 360.468 186.861 357.3 187.096C356.567 187.125 355.393 187.199 353.78 187.316C353.663 187.316 353.457 187.287 353.164 187.228C352.871 187.14 352.651 187.096 352.504 187.096C351.419 187.096 350.729 187.551 350.436 188.46C349.644 190.807 348.896 193.139 348.192 195.456L348.148 195.632ZM382.17 196.82C382.258 195.617 382.346 194.517 382.434 193.52C382.522 192.493 382.61 191.569 382.698 190.748L383.05 187.228C380.762 187.58 378.327 188.255 375.746 189.252C375.13 189.487 374.558 189.604 374.03 189.604C373.238 189.604 372.505 189.384 371.83 188.944C371.185 188.504 370.671 187.859 370.29 187.008C370.466 186.363 370.789 185.879 371.258 185.556C371.757 185.233 372.431 184.911 373.282 184.588C377.359 183.092 382.023 182.359 387.274 182.388C389.767 182.388 392.363 182.491 395.062 182.696C397.79 182.901 399.389 183.019 399.858 183.048L402.938 183.268C403.055 183.268 403.246 183.268 403.51 183.268C403.803 183.268 404.038 183.341 404.214 183.488C404.39 183.605 404.478 183.811 404.478 184.104C404.478 184.837 403.95 185.263 402.894 185.38C400.254 185.673 398.377 185.879 397.262 185.996C396.118 186.055 395.253 186.113 394.666 186.172C392.378 186.319 390.662 186.436 389.518 186.524C388.814 186.583 388.33 186.671 388.066 186.788C387.802 186.876 387.626 187.052 387.538 187.316C387.479 187.551 387.421 188.064 387.362 188.856C387.215 190.704 386.907 193.887 386.438 198.404C385.969 202.481 385.675 205.297 385.558 206.852C385.529 207.703 385.338 208.729 384.986 209.932C384.751 210.695 384.561 211.208 384.414 211.472C384.267 211.707 384.047 211.853 383.754 211.912C383.49 211.971 382.977 211.985 382.214 211.956C381.657 211.956 381.217 211.839 380.894 211.604C380.601 211.34 380.454 210.988 380.454 210.548C380.454 210.46 380.483 210.269 380.542 209.976C381.187 207.424 381.73 203.039 382.17 196.82ZM414.587 188.68C414.323 190.44 414.117 191.672 413.971 192.376C413.589 194.107 412.885 196.952 411.859 200.912C411.389 202.555 410.964 203.743 410.583 204.476C410.172 205.356 409.585 206.148 408.823 206.852C408.617 207.057 408.324 207.16 407.943 207.16C407.767 207.16 407.591 207.101 407.415 206.984C407.239 206.808 407.077 206.544 406.931 206.192C406.813 205.811 406.755 205.473 406.755 205.18C406.843 204.183 407.033 203.053 407.327 201.792C408.823 195.573 409.688 189.795 409.923 184.456L409.967 183.796C410.025 182.652 410.187 181.831 410.451 181.332C410.744 180.804 411.199 180.54 411.815 180.54C412.313 180.54 412.841 180.892 413.399 181.596C413.985 182.3 414.323 183.019 414.411 183.752L414.851 187.096L414.587 188.68ZM406.447 213.232C405.772 212.939 405.259 212.543 404.907 212.044C404.584 211.575 404.423 210.973 404.423 210.24C404.423 209.653 404.496 209.111 404.643 208.612C404.907 208.671 405.317 208.759 405.875 208.876C406.432 208.993 406.901 209.111 407.283 209.228C407.781 209.375 408.221 209.609 408.603 209.932C409.16 210.401 409.439 210.944 409.439 211.56C409.439 211.941 409.321 212.293 409.087 212.616C408.676 213.203 408.148 213.496 407.503 213.496C407.151 213.496 406.799 213.408 406.447 213.232Z" fill="white"></path><path d="M64.1262 263V247.16H66.7772V263H64.1262ZM74.4765 263V247.16H77.1275V253.826H84.6295V247.16H87.2695V263H84.6295V256.312H77.1275V263H74.4765ZM89.2535 263L94.2475 247.16H98.1305L103.124 263H100.396L95.8645 248.788H96.4585L91.9815 263H89.2535ZM92.0365 259.568V257.093H100.352V259.568H92.0365ZM107.13 263L102.136 247.16H104.864L109.044 260.426L113.279 247.16H116.007L111.013 263H107.13ZM117.66 263V247.16H127.89V249.646H120.311V253.551H126.57V256.037H120.311V260.514H127.89V263H117.66ZM134.934 263V247.16H141.215C142.285 247.16 143.162 247.376 143.844 247.809C144.533 248.234 145.043 248.781 145.373 249.448C145.71 250.115 145.879 250.805 145.879 251.516C145.879 252.389 145.67 253.129 145.252 253.738C144.841 254.347 144.28 254.757 143.569 254.97V254.42C144.566 254.647 145.321 255.12 145.835 255.839C146.355 256.558 146.616 257.375 146.616 258.292C146.616 259.231 146.436 260.052 146.077 260.756C145.717 261.46 145.182 262.01 144.471 262.406C143.767 262.802 142.894 263 141.853 263H134.934ZM137.618 260.503H141.523C141.985 260.503 142.399 260.411 142.766 260.228C143.132 260.037 143.418 259.773 143.624 259.436C143.836 259.091 143.943 258.684 143.943 258.215C143.943 257.79 143.851 257.408 143.668 257.071C143.484 256.734 143.217 256.466 142.865 256.268C142.513 256.063 142.091 255.96 141.6 255.96H137.618V260.503ZM137.618 253.485H141.182C141.563 253.485 141.904 253.412 142.205 253.265C142.505 253.118 142.744 252.902 142.92 252.616C143.096 252.33 143.184 251.978 143.184 251.56C143.184 251.01 143.008 250.552 142.656 250.185C142.304 249.818 141.812 249.635 141.182 249.635H137.618V253.485ZM148.812 263V247.16H159.042V249.646H151.463V253.551H157.722V256.037H151.463V260.514H159.042V263H148.812ZM161.682 263V247.16H171.912V249.646H164.333V253.551H170.592V256.037H164.333V260.514H171.912V263H161.682ZM174.551 263V247.16H177.235L184.583 258.325V247.16H187.267V263H184.583L177.235 251.835V263H174.551ZM200.609 263.33C199.45 263.33 198.405 263.128 197.474 262.725C196.55 262.322 195.787 261.746 195.186 260.998C194.592 260.243 194.214 259.348 194.053 258.314L196.803 257.896C197.038 258.835 197.518 259.561 198.244 260.074C198.977 260.587 199.821 260.844 200.774 260.844C201.339 260.844 201.87 260.756 202.369 260.58C202.868 260.404 203.271 260.147 203.579 259.81C203.894 259.473 204.052 259.058 204.052 258.567C204.052 258.347 204.015 258.145 203.942 257.962C203.869 257.771 203.759 257.603 203.612 257.456C203.473 257.309 203.289 257.177 203.062 257.06C202.842 256.935 202.585 256.829 202.292 256.741L198.2 255.531C197.848 255.428 197.467 255.293 197.056 255.124C196.653 254.948 196.268 254.71 195.901 254.409C195.542 254.101 195.245 253.712 195.01 253.243C194.783 252.766 194.669 252.18 194.669 251.483C194.669 250.464 194.926 249.609 195.439 248.92C195.96 248.223 196.656 247.703 197.529 247.358C198.409 247.013 199.384 246.845 200.455 246.852C201.54 246.859 202.508 247.046 203.359 247.413C204.21 247.772 204.921 248.297 205.493 248.986C206.065 249.675 206.468 250.508 206.703 251.483L203.854 251.978C203.737 251.421 203.509 250.948 203.172 250.559C202.842 250.163 202.435 249.862 201.951 249.657C201.474 249.452 200.965 249.342 200.422 249.327C199.894 249.32 199.403 249.4 198.948 249.569C198.501 249.73 198.138 249.965 197.859 250.273C197.588 250.581 197.452 250.94 197.452 251.351C197.452 251.74 197.569 252.059 197.804 252.308C198.039 252.55 198.328 252.744 198.673 252.891C199.025 253.03 199.381 253.148 199.74 253.243L202.578 254.035C202.967 254.138 203.403 254.277 203.887 254.453C204.371 254.629 204.837 254.875 205.284 255.19C205.731 255.505 206.098 255.92 206.384 256.433C206.677 256.946 206.824 257.599 206.824 258.391C206.824 259.212 206.652 259.935 206.307 260.558C205.97 261.174 205.511 261.687 204.932 262.098C204.353 262.509 203.689 262.817 202.941 263.022C202.2 263.227 201.423 263.33 200.609 263.33ZM212.119 263L207.488 247.16H210.271L213.428 258.6L216.574 247.182L219.357 247.16L222.514 258.6L225.66 247.16H228.443L223.823 263H221.205L217.96 251.736L214.737 263H212.119ZM230.458 263V247.16H233.109V263H230.458ZM236.404 263V247.16H238.791L244.269 258.38L249.747 247.16H252.134V263H249.659V252.847L244.797 263H243.741L238.89 252.847V263H236.404ZM255.225 263V247.16H257.612L263.09 258.38L268.568 247.16H270.955V263H268.48V252.847L263.618 263H262.562L257.711 252.847V263H255.225ZM274.265 263V247.16H276.916V263H274.265ZM280.211 263V247.16H282.895L290.243 258.325V247.16H292.927V263H290.243L282.895 251.835V263H280.211ZM302.536 263.33C301.509 263.33 300.545 263.15 299.643 262.791C298.748 262.424 297.96 261.889 297.278 261.185C296.603 260.481 296.075 259.619 295.694 258.6C295.313 257.573 295.122 256.4 295.122 255.08C295.122 253.349 295.445 251.872 296.09 250.647C296.735 249.415 297.619 248.473 298.741 247.82C299.863 247.16 301.128 246.83 302.536 246.83C304.487 246.83 306.03 247.285 307.167 248.194C308.311 249.096 309.085 250.365 309.488 252L306.782 252.429C306.481 251.49 305.99 250.742 305.308 250.185C304.626 249.62 303.757 249.338 302.701 249.338C301.638 249.323 300.754 249.554 300.05 250.031C299.346 250.508 298.814 251.179 298.455 252.044C298.103 252.909 297.927 253.921 297.927 255.08C297.927 256.239 298.103 257.247 298.455 258.105C298.807 258.956 299.335 259.619 300.039 260.096C300.75 260.573 301.638 260.818 302.701 260.833C303.5 260.84 304.201 260.697 304.802 260.404C305.403 260.103 305.895 259.652 306.276 259.051C306.657 258.442 306.914 257.683 307.046 256.774H304.252V254.695H309.862C309.877 254.812 309.888 254.985 309.895 255.212C309.902 255.439 309.906 255.575 309.906 255.619C309.906 257.115 309.609 258.446 309.015 259.612C308.428 260.771 307.585 261.68 306.485 262.34C305.385 263 304.069 263.33 302.536 263.33ZM316.739 263V247.16H319.39V263H316.739ZM322.686 263V247.16H325.37L332.718 258.325V247.16H335.402V263H332.718L325.37 251.835V263H322.686ZM346.687 263V249.646H341.561V247.16H354.464V249.646H349.338V263H346.687ZM356.223 263V247.16H358.874V253.826H366.376V247.16H369.016V263H366.376V256.312H358.874V263H356.223ZM372.1 263V247.16H382.33V249.646H374.751V253.551H381.01V256.037H374.751V260.514H382.33V263H372.1ZM395.236 263.33C394.077 263.33 393.032 263.128 392.101 262.725C391.177 262.322 390.414 261.746 389.813 260.998C389.219 260.243 388.841 259.348 388.68 258.314L391.43 257.896C391.665 258.835 392.145 259.561 392.871 260.074C393.604 260.587 394.448 260.844 395.401 260.844C395.966 260.844 396.497 260.756 396.996 260.58C397.495 260.404 397.898 260.147 398.206 259.81C398.521 259.473 398.679 259.058 398.679 258.567C398.679 258.347 398.642 258.145 398.569 257.962C398.496 257.771 398.386 257.603 398.239 257.456C398.1 257.309 397.916 257.177 397.689 257.06C397.469 256.935 397.212 256.829 396.919 256.741L392.827 255.531C392.475 255.428 392.094 255.293 391.683 255.124C391.28 254.948 390.895 254.71 390.528 254.409C390.169 254.101 389.872 253.712 389.637 253.243C389.41 252.766 389.296 252.18 389.296 251.483C389.296 250.464 389.553 249.609 390.066 248.92C390.587 248.223 391.283 247.703 392.156 247.358C393.036 247.013 394.011 246.845 395.082 246.852C396.167 246.859 397.135 247.046 397.986 247.413C398.837 247.772 399.548 248.297 400.12 248.986C400.692 249.675 401.095 250.508 401.33 251.483L398.481 251.978C398.364 251.421 398.136 250.948 397.799 250.559C397.469 250.163 397.062 249.862 396.578 249.657C396.101 249.452 395.592 249.342 395.049 249.327C394.521 249.32 394.03 249.4 393.575 249.569C393.128 249.73 392.765 249.965 392.486 250.273C392.215 250.581 392.079 250.94 392.079 251.351C392.079 251.74 392.196 252.059 392.431 252.308C392.666 252.55 392.955 252.744 393.3 252.891C393.652 253.03 394.008 253.148 394.367 253.243L397.205 254.035C397.594 254.138 398.03 254.277 398.514 254.453C398.998 254.629 399.464 254.875 399.911 255.19C400.358 255.505 400.725 255.92 401.011 256.433C401.304 256.946 401.451 257.599 401.451 258.391C401.451 259.212 401.279 259.935 400.934 260.558C400.597 261.174 400.138 261.687 399.559 262.098C398.98 262.509 398.316 262.817 397.568 263.022C396.827 263.227 396.05 263.33 395.236 263.33ZM403.832 263V247.16H414.062V249.646H406.483V253.551H412.742V256.037H406.483V260.514H414.062V263H403.832ZM415.601 263L420.595 247.16H424.478L429.472 263H426.744L422.212 248.788H422.806L418.329 263H415.601ZM418.384 259.568V257.093H426.7V259.568H418.384ZM434.765 263L439.759 247.16H443.642L448.636 263H445.908L441.376 248.788H441.97L437.493 263H434.765ZM437.548 259.568V257.093H445.864V259.568H437.548ZM453.12 263V249.646H447.994V247.16H460.897V249.646H455.771V263H453.12ZM466.394 263V247.16H469.078L476.426 258.325V247.16H479.11V263H476.426L469.078 251.835V263H466.394ZM482.406 263V247.16H485.057V263H482.406ZM494.886 263.33C493.859 263.33 492.895 263.15 491.993 262.791C491.098 262.424 490.31 261.889 489.628 261.185C488.953 260.481 488.425 259.619 488.044 258.6C487.662 257.573 487.472 256.4 487.472 255.08C487.472 253.349 487.794 251.872 488.44 250.647C489.085 249.415 489.969 248.473 491.091 247.82C492.213 247.16 493.478 246.83 494.886 246.83C496.836 246.83 498.38 247.285 499.517 248.194C500.661 249.096 501.434 250.365 501.838 252L499.132 252.429C498.831 251.49 498.34 250.742 497.658 250.185C496.976 249.62 496.107 249.338 495.051 249.338C493.987 249.323 493.104 249.554 492.4 250.031C491.696 250.508 491.164 251.179 490.805 252.044C490.453 252.909 490.277 253.921 490.277 255.08C490.277 256.239 490.453 257.247 490.805 258.105C491.157 258.956 491.685 259.619 492.389 260.096C493.1 260.573 493.987 260.818 495.051 260.833C495.85 260.84 496.55 260.697 497.152 260.404C497.753 260.103 498.244 259.652 498.626 259.051C499.007 258.442 499.264 257.683 499.396 256.774H496.602V254.695H502.212C502.226 254.812 502.237 254.985 502.245 255.212C502.252 255.439 502.256 255.575 502.256 255.619C502.256 257.115 501.959 258.446 501.365 259.612C500.778 260.771 499.935 261.68 498.835 262.34C497.735 263 496.418 263.33 494.886 263.33ZM504.465 263V247.16H507.116V253.826H514.618V247.16H517.258V263H514.618V256.312H507.116V263H504.465ZM524.148 263V249.646H519.022V247.16H531.925V249.646H526.799V263H524.148ZM531.932 263V260.283H534.649V263H531.932Z" fill="#FFACC0"></path></svg> 