<?xml version="1.0" encoding="UTF-8"?> <svg xmlns="http://www.w3.org/2000/svg" width="600" height="400" viewBox="0 0 600 400" fill="none"><rect width="600" height="400" rx="20" fill="#A11717"></rect><path d="M74.3859 173.032C73.7699 173.208 73.1979 173.296 72.6699 173.296C71.2619 173.296 69.9125 172.68 68.6219 171.448C68.7979 170.803 69.0912 170.333 69.5019 170.04C69.9125 169.717 70.3232 169.468 70.7339 169.292C71.1445 169.116 71.4232 168.999 71.5699 168.94C73.1539 168.265 74.8112 167.679 76.5419 167.18C77.2752 166.945 77.7299 166.476 77.9059 165.772C78.4339 163.983 78.8445 162.223 79.1379 160.492C79.4312 158.732 79.7832 156.371 80.1939 153.408L80.3699 152.044C80.3992 151.956 80.4139 151.824 80.4139 151.648C80.4139 151.032 80.1059 150.607 79.4899 150.372C79.2845 150.284 79.0499 150.137 78.7859 149.932C78.5219 149.697 78.3165 149.521 78.1699 149.404L77.1139 149.932C76.2632 150.313 75.2952 150.783 74.2099 151.34C73.8285 151.545 73.4325 151.648 73.0219 151.648C72.5819 151.648 72.1125 151.545 71.6139 151.34C71.1445 151.105 70.8659 150.973 70.7779 150.944C70.5139 150.827 70.2939 150.651 70.1179 150.416C69.9712 150.181 69.8979 149.932 69.8979 149.668C69.8979 149.316 70.0152 148.979 70.2499 148.656C70.5725 148.187 71.0712 147.703 71.7459 147.204C74.3859 145.239 77.1725 144.256 80.1059 144.256C81.4552 144.256 82.7899 144.447 84.1099 144.828C85.3419 145.209 86.4125 145.532 87.3219 145.796C88.2605 146.031 89.0379 146.236 89.6539 146.412L92.4259 147.204C92.4845 147.204 92.6019 147.219 92.7779 147.248C92.9832 147.277 93.1299 147.336 93.2179 147.424C93.3939 147.571 93.5699 147.776 93.7459 148.04C93.9512 148.275 94.1125 148.465 94.2299 148.612C94.0832 148.729 93.8779 148.905 93.6139 149.14C93.3792 149.375 93.1592 149.492 92.9539 149.492C92.7192 149.521 92.3525 149.536 91.8539 149.536C91.4725 149.536 90.9005 149.507 90.1379 149.448L89.1699 149.404L86.0459 149.052L85.8259 150.636C85.4445 153.393 85.1072 155.579 84.8139 157.192C84.5792 158.6 84.1979 160.492 83.6699 162.868L83.1419 165.464C85.1365 165.2 86.4859 165.024 87.1899 164.936C88.7739 164.76 89.9619 164.672 90.7539 164.672C91.7219 164.672 92.5285 164.804 93.1739 165.068C93.8192 165.332 94.2739 165.875 94.5379 166.696C94.2445 167.077 93.9072 167.356 93.5259 167.532C93.1739 167.708 92.8072 167.84 92.4259 167.928C92.0739 168.016 91.8539 168.075 91.7659 168.104L90.9299 168.368C89.1699 168.896 87.9672 169.204 87.3219 169.292C85.9432 169.497 84.5939 169.791 83.2739 170.172C81.9832 170.553 80.3699 171.067 78.4339 171.712C77.1725 172.181 75.8232 172.621 74.3859 173.032ZM117.878 171.712C118.67 171.565 120.312 171.228 122.806 170.7L126.194 169.996C126.575 170.377 126.898 170.715 127.162 171.008C127.426 171.301 127.558 171.551 127.558 171.756C127.558 171.991 127.44 172.225 127.206 172.46C126.971 172.695 126.502 173.076 125.798 173.604C125.71 173.663 125.607 173.765 125.49 173.912C125.402 174.059 125.299 174.147 125.182 174.176L123.994 174.484C122.996 174.777 122.102 174.997 121.31 175.144C120.547 175.32 119.77 175.408 118.978 175.408C116.162 175.408 113.859 174.572 112.07 172.9C111.395 172.284 110.867 171.668 110.486 171.052C110.134 170.407 109.958 169.717 109.958 168.984C109.958 168.661 109.972 168.427 110.002 168.28C110.471 165.376 110.999 162.912 111.586 160.888C112.202 158.659 113.316 154.875 114.93 149.536C115.282 148.275 115.839 146.383 116.602 143.86C116.807 143.185 117.086 142.716 117.438 142.452C117.819 142.188 118.362 142.085 119.066 142.144C119.212 142.144 119.344 142.159 119.462 142.188C119.608 142.217 119.755 142.232 119.902 142.232C121.72 142.379 122.63 143.259 122.63 144.872C122.63 145.283 122.571 145.708 122.454 146.148C122.219 147.087 121.779 148.348 121.134 149.932C118.758 155.975 116.924 161.797 115.634 167.4C115.458 168.104 115.37 168.837 115.37 169.6C115.37 171.037 116 171.756 117.262 171.756C117.526 171.756 117.731 171.741 117.878 171.712ZM140.24 152.968C140.416 152.293 140.68 151.017 141.032 149.14L141.208 148.216L140.152 147.952C139.155 147.688 138.289 147.409 137.556 147.116C137.351 146.999 137.16 146.793 136.984 146.5C136.808 146.207 136.735 145.957 136.764 145.752C136.764 145.576 136.881 145.385 137.116 145.18C137.38 144.945 137.629 144.799 137.864 144.74L138.832 144.52C140.475 144.109 141.707 143.904 142.528 143.904C142.821 143.904 143.041 143.919 143.188 143.948C144.185 144.007 145.3 144.696 146.532 146.016C146.679 146.163 146.752 146.427 146.752 146.808C146.752 147.248 146.664 147.791 146.488 148.436C146.019 150.02 145.285 152.396 144.288 155.564L142.044 162.692C141.868 163.308 141.545 164.716 141.076 166.916L140.724 168.5C141.223 168.5 141.912 168.471 142.792 168.412C143.907 168.353 144.728 168.324 145.256 168.324L145.916 168.28C146.356 168.28 146.693 168.353 146.928 168.5C147.163 168.617 147.353 168.808 147.5 169.072C147.676 169.307 147.779 169.541 147.808 169.776V169.82C147.808 170.025 147.735 170.26 147.588 170.524C147.441 170.759 147.28 170.891 147.104 170.92C146.635 171.067 146.209 171.213 145.828 171.36C141.751 172.739 138.597 173.707 136.368 174.264C136.075 174.352 135.781 174.396 135.488 174.396C134.549 174.396 133.699 174.059 132.936 173.384C132.203 172.68 131.733 171.829 131.528 170.832C131.792 170.509 132.071 170.319 132.364 170.26C132.687 170.172 133.171 170.128 133.816 170.128C134.637 170.128 135.195 169.981 135.488 169.688C135.781 169.395 136.06 168.779 136.324 167.84L138.304 160.404C139.067 157.529 139.712 155.051 140.24 152.968ZM179.652 171.668C180.18 171.697 180.591 171.844 180.884 172.108C181.177 172.343 181.383 172.768 181.5 173.384C180.444 173.795 179.344 174 178.2 174C177.467 174 176.748 173.912 176.044 173.736C173.551 173.12 171.336 172.357 169.4 171.448C167.493 170.539 165.777 169.307 164.252 167.752L163.592 167.092C162.653 166.271 161.993 165.523 161.612 164.848C161.26 164.203 160.761 163.88 160.116 163.88C159.764 163.88 159.441 163.983 159.148 164.188C158.855 164.393 158.635 164.672 158.488 165.024C157.872 166.491 157.491 167.4 157.344 167.752C157.139 168.221 156.904 168.779 156.64 169.424C156.376 170.069 156.053 170.803 155.672 171.624C155.379 171.8 155.203 171.888 155.144 171.888C154.029 171.829 153.252 171.697 152.812 171.492C152.401 171.287 152.196 170.905 152.196 170.348C152.196 169.879 152.328 169.204 152.592 168.324C153.736 164.54 154.88 161.548 156.024 159.348C156.376 158.703 156.713 157.969 157.036 157.148C157.359 156.297 157.652 155.461 157.916 154.64C158.415 153.291 158.737 152.44 158.884 152.088L164.604 138.228C165.015 138.169 165.323 138.14 165.528 138.14C166.643 138.14 167.684 138.507 168.652 139.24C169.121 139.592 169.356 139.988 169.356 140.428C169.356 140.721 169.283 141.015 169.136 141.308C167.405 145.004 165.455 149.243 163.284 154.024C162.756 155.256 162.448 156.268 162.36 157.06L166.672 154.288L169.004 152.704C172.055 150.621 174.152 149.213 175.296 148.48C176.675 147.571 178.009 147.116 179.3 147.116C180.297 147.116 181.295 147.395 182.292 147.952C182.497 148.069 182.893 148.363 183.48 148.832C183.451 148.803 183.7 149.008 184.228 149.448C184.111 149.536 183.861 149.771 183.48 150.152C182.981 150.592 182.615 150.841 182.38 150.9C181.324 151.105 180.341 151.443 179.432 151.912C178.552 152.381 177.423 153.041 176.044 153.892C171.996 156.444 168.593 158.659 165.836 160.536C165.396 160.829 165.088 161.079 164.912 161.284C164.736 161.46 164.648 161.651 164.648 161.856C164.648 162.149 164.824 162.648 165.176 163.352C167.317 167.811 171.013 170.451 176.264 171.272C177.349 171.477 178.479 171.609 179.652 171.668ZM200.25 157.632C200.25 157.749 200.264 157.881 200.294 158.028C200.323 158.145 200.352 158.263 200.382 158.38C200.616 158.409 200.968 158.424 201.438 158.424C203.491 158.424 205.603 157.984 207.774 157.104C208.39 156.869 208.903 156.752 209.314 156.752C210.135 156.752 210.81 157.133 211.338 157.896C211.602 158.307 211.734 158.659 211.734 158.952C211.734 159.304 211.543 159.671 211.162 160.052C209.988 161.137 208.742 161.753 207.422 161.9C206.248 162.047 204.488 162.296 202.142 162.648L199.062 163.088C198.592 164.115 198.358 165.112 198.358 166.08C198.358 167.488 198.842 168.661 199.81 169.6C200.807 170.509 202.156 170.993 203.858 171.052C205.588 171.081 207.803 170.964 210.502 170.7L211.162 170.656C211.895 170.656 212.496 170.832 212.966 171.184C213.464 171.507 213.934 172.093 214.374 172.944C214.051 173.648 213.596 174.117 213.01 174.352C212.423 174.616 211.66 174.807 210.722 174.924C209.754 175.041 208.654 175.1 207.422 175.1C204.752 175.1 202.347 174.675 200.206 173.824C196.422 172.357 194.002 169.82 192.946 166.212C192.799 165.713 192.726 165.185 192.726 164.628C192.726 164.041 192.726 163.689 192.726 163.572C192.726 162.575 192.242 161.841 191.274 161.372C190.482 160.932 189.866 160.507 189.426 160.096C189.015 159.685 188.751 159.069 188.634 158.248L193.606 157.94L195.85 151.472C195.908 151.267 195.967 151.017 196.026 150.724C196.114 150.401 196.202 150.152 196.29 149.976C196.554 149.389 196.686 148.905 196.686 148.524C196.686 147.937 196.407 147.424 195.85 146.984C195.644 146.837 195.468 146.573 195.322 146.192C195.204 145.781 195.087 145.459 194.97 145.224L195.938 144.916C196.407 144.799 196.744 144.696 196.95 144.608C197.067 144.549 197.316 144.447 197.698 144.3C198.079 144.124 198.299 143.933 198.358 143.728C198.563 143.229 198.812 142.892 199.106 142.716C199.428 142.54 199.81 142.452 200.25 142.452C200.543 142.452 200.983 142.481 201.57 142.54C201.746 142.54 201.922 142.584 202.098 142.672C202.303 142.731 202.464 142.819 202.582 142.936C203.256 143.64 204.004 144.109 204.826 144.344C205.647 144.579 206.615 144.696 207.73 144.696H209.622H213.318C215.811 144.696 217.674 144.725 218.906 144.784C219.551 144.813 220.372 145.092 221.37 145.62C221.546 145.708 221.678 145.884 221.766 146.148C221.883 146.383 221.942 146.617 221.942 146.852C221.942 146.969 221.839 147.116 221.634 147.292C221.428 147.439 221.238 147.541 221.062 147.6C219.067 148.128 217.556 148.436 216.53 148.524C214.946 148.671 212.57 148.861 209.402 149.096C208.668 149.125 207.495 149.199 205.882 149.316C205.764 149.316 205.559 149.287 205.266 149.228C204.972 149.14 204.752 149.096 204.606 149.096C203.52 149.096 202.831 149.551 202.538 150.46C201.746 152.807 200.998 155.139 200.294 157.456L200.25 157.632ZM251.696 157.896C250.992 157.955 250.478 157.984 250.156 157.984C247.985 158.131 246.313 158.292 245.14 158.468C244.494 158.585 243.702 159.377 242.764 160.844C241.972 162.076 241.429 164.027 241.136 166.696L240.652 168.28C240.505 168.808 240.285 169.263 239.992 169.644C239.816 169.849 239.581 170.025 239.288 170.172C239.024 170.289 238.745 170.348 238.452 170.348C238.598 170.348 238.54 170.187 238.276 169.864C237.689 169.072 237.249 168.441 236.956 167.972C236.692 167.473 236.56 166.916 236.56 166.3C236.56 166.036 236.604 165.728 236.692 165.376C236.838 164.936 236.926 164.496 236.956 164.056C237.014 163.88 237.073 163.631 237.132 163.308C237.19 162.956 237.264 162.663 237.352 162.428C237.44 162.164 237.484 161.915 237.484 161.68C237.484 161.035 237.146 160.419 236.472 159.832C235.474 158.981 234.976 158.204 234.976 157.5C234.976 156.679 235.621 155.916 236.912 155.212C237.029 155.153 237.19 155.051 237.396 154.904C237.63 154.757 237.836 154.669 238.012 154.64C238.628 154.493 239.068 154.215 239.332 153.804C239.625 153.393 239.874 152.821 240.08 152.088C240.637 150.152 241.253 148.069 241.928 145.84L242.412 144.256C242.47 144.051 242.632 143.669 242.896 143.112C244.186 143.083 245.096 143.435 245.624 144.168C246.181 144.901 246.46 145.855 246.46 147.028C246.46 147.204 246.43 147.468 246.372 147.82L245.976 149.58L245.712 150.548L245.272 152.88L247.604 153.056L253.192 153.54L254.688 148.92L255.04 147.424C255.89 146.309 256.638 146.045 257.284 146.632C257.9 147.189 258.428 147.82 258.868 148.524C259.337 149.199 259.572 149.976 259.572 150.856C259.572 151.707 259.322 152.792 258.824 154.112C259.058 154.259 259.337 154.391 259.66 154.508C259.982 154.596 260.202 154.655 260.32 154.684C261.229 154.948 261.933 155.256 262.432 155.608C262.93 155.96 263.238 156.591 263.356 157.5C263.004 158.057 262.534 158.424 261.948 158.6C261.361 158.776 260.672 158.82 259.88 158.732C259.586 158.703 259.205 158.688 258.736 158.688C258.09 158.688 257.665 158.82 257.46 159.084C257.254 159.348 257.005 159.964 256.712 160.932L256.184 162.648C255.48 164.936 254.966 166.769 254.644 168.148C254.35 169.527 254.145 170.964 254.028 172.46C254.028 172.577 254.013 172.827 253.984 173.208C253.984 173.56 253.896 173.839 253.72 174.044C253.544 174.279 253.265 174.396 252.884 174.396C251.916 174.484 251.329 173.971 251.124 172.856C250.42 171.301 250.068 169.805 250.068 168.368C250.068 167.752 250.097 167.283 250.156 166.96C250.478 165.083 250.904 162.692 251.432 159.788L251.696 157.896ZM295.794 158.248C295.882 160.037 295.486 161.929 294.606 163.924C293.755 165.919 292.553 167.723 290.998 169.336C289.473 170.949 287.786 172.108 285.938 172.812C284.09 173.516 282.271 173.868 280.482 173.868C278.634 173.868 276.874 173.501 275.202 172.768C273.559 172.005 272.049 170.891 270.67 169.424C269.761 168.485 268.998 167.327 268.382 165.948C267.766 164.54 267.311 163.088 267.018 161.592C266.754 160.213 266.622 158.864 266.622 157.544C266.622 154.523 267.311 151.853 268.69 149.536C269.541 148.099 270.509 146.999 271.594 146.236C272.709 145.444 274.014 145.048 275.51 145.048C275.745 145.048 276.155 145.077 276.742 145.136C278.003 145.312 279.558 145.429 281.406 145.488C283.225 145.547 284.574 145.635 285.454 145.752C287.067 145.928 288.49 146.5 289.722 147.468C290.983 148.436 292.142 149.683 293.198 151.208C293.638 151.853 294.019 152.528 294.342 153.232C294.694 153.936 295.075 154.801 295.486 155.828L296.41 157.984L295.794 158.248ZM281.406 168.94C283.019 168.383 284.486 167.488 285.806 166.256C287.126 165.024 288.153 163.587 288.886 161.944C289.619 160.301 289.942 158.629 289.854 156.928C289.678 154.141 289.311 152.088 288.754 150.768C288.197 149.448 287.302 148.524 286.07 147.996C284.867 147.468 283.019 147.116 280.526 146.94C280.262 146.911 279.983 146.896 279.69 146.896L276.786 150.02C275.965 150.959 275.407 151.707 275.114 152.264C273.794 154.699 273.134 157.617 273.134 161.02C273.134 162.164 273.163 163.029 273.222 163.616C273.339 165.464 273.897 166.901 274.894 167.928C275.891 168.925 277.167 169.424 278.722 169.424C279.485 169.424 280.379 169.263 281.406 168.94ZM320.405 169.512C320.376 169.277 320.244 168.735 320.009 167.884L319.613 166.564L316.841 169.688L315.785 170.832C314.348 172.387 313.277 173.531 312.573 174.264C312.28 174.528 311.942 174.748 311.561 174.924C311.18 175.1 310.842 175.173 310.549 175.144C309.933 175.027 309.39 174.748 308.921 174.308C308.452 173.897 308.144 173.369 307.997 172.724C306.765 167.268 305.592 161.988 304.477 156.884C304.33 156.151 304.125 155.549 303.861 155.08C303.597 154.611 303.186 154.215 302.629 153.892C302.013 153.54 301.705 152.924 301.705 152.044C301.705 151.663 301.72 151.369 301.749 151.164C301.866 150.284 302.424 149.683 303.421 149.36C303.597 149.272 303.817 149.228 304.081 149.228C304.374 149.228 304.624 149.301 304.829 149.448C305.768 150.123 306.53 150.783 307.117 151.428C307.704 152.073 308.07 152.909 308.217 153.936C308.51 155.931 309.068 158.923 309.889 162.912L310.461 165.64C310.49 165.757 310.549 165.904 310.637 166.08C310.754 166.227 310.857 166.373 310.945 166.52C312.558 165.552 313.937 164.408 315.081 163.088C316.254 161.739 317.589 159.964 319.085 157.764C320.229 156.063 321.168 154.743 321.901 153.804L324.277 157.192C324.189 157.573 324.028 158.116 323.793 158.82C323.412 160.199 323.104 161.387 322.869 162.384C322.664 163.352 322.62 164.203 322.737 164.936C322.854 165.669 323.148 166.373 323.617 167.048C324.028 166.96 324.336 166.813 324.541 166.608C324.746 166.373 324.893 166.153 324.981 165.948C325.098 165.713 325.186 165.552 325.245 165.464C325.656 164.701 326.184 163.499 326.829 161.856C329.088 155.96 332.344 150.005 336.597 143.992C336.949 143.493 337.418 143.229 338.005 143.2C338.592 143.141 338.841 143.42 338.753 144.036C338.694 144.652 338.445 145.503 338.005 146.588C337.594 147.673 337.345 148.421 337.257 148.832C337.169 149.243 337.066 149.58 336.949 149.844C336.597 150.636 336.421 150.988 336.421 150.9C336.45 150.783 336.362 150.929 336.157 151.34C334.984 153.687 334.03 155.769 333.297 157.588C332.476 159.524 331.405 162.516 330.085 166.564L329.557 168.192C329.293 169.043 328.912 169.849 328.413 170.612C327.944 171.375 327.328 172.225 326.565 173.164C326.213 173.692 325.758 173.956 325.201 173.956C324.937 173.956 324.629 173.883 324.277 173.736C323.133 173.267 322.238 172.724 321.593 172.108C320.948 171.492 320.552 170.627 320.405 169.512ZM361.116 173.032C360.5 173.208 359.928 173.296 359.4 173.296C357.992 173.296 356.643 172.68 355.352 171.448C355.528 170.803 355.822 170.333 356.232 170.04C356.643 169.717 357.054 169.468 357.464 169.292C357.875 169.116 358.154 168.999 358.3 168.94C359.884 168.265 361.542 167.679 363.272 167.18C364.006 166.945 364.46 166.476 364.636 165.772C365.164 163.983 365.575 162.223 365.868 160.492C366.162 158.732 366.514 156.371 366.924 153.408L367.1 152.044C367.13 151.956 367.144 151.824 367.144 151.648C367.144 151.032 366.836 150.607 366.22 150.372C366.015 150.284 365.78 150.137 365.516 149.932C365.252 149.697 365.047 149.521 364.9 149.404L363.844 149.932C362.994 150.313 362.026 150.783 360.94 151.34C360.559 151.545 360.163 151.648 359.752 151.648C359.312 151.648 358.843 151.545 358.344 151.34C357.875 151.105 357.596 150.973 357.508 150.944C357.244 150.827 357.024 150.651 356.848 150.416C356.702 150.181 356.628 149.932 356.628 149.668C356.628 149.316 356.746 148.979 356.98 148.656C357.303 148.187 357.802 147.703 358.476 147.204C361.116 145.239 363.903 144.256 366.836 144.256C368.186 144.256 369.52 144.447 370.84 144.828C372.072 145.209 373.143 145.532 374.052 145.796C374.991 146.031 375.768 146.236 376.384 146.412L379.156 147.204C379.215 147.204 379.332 147.219 379.508 147.248C379.714 147.277 379.86 147.336 379.948 147.424C380.124 147.571 380.3 147.776 380.476 148.04C380.682 148.275 380.843 148.465 380.96 148.612C380.814 148.729 380.608 148.905 380.344 149.14C380.11 149.375 379.89 149.492 379.684 149.492C379.45 149.521 379.083 149.536 378.584 149.536C378.203 149.536 377.631 149.507 376.868 149.448L375.9 149.404L372.776 149.052L372.556 150.636C372.175 153.393 371.838 155.579 371.544 157.192C371.31 158.6 370.928 160.492 370.4 162.868L369.872 165.464C371.867 165.2 373.216 165.024 373.92 164.936C375.504 164.76 376.692 164.672 377.484 164.672C378.452 164.672 379.259 164.804 379.904 165.068C380.55 165.332 381.004 165.875 381.268 166.696C380.975 167.077 380.638 167.356 380.256 167.532C379.904 167.708 379.538 167.84 379.156 167.928C378.804 168.016 378.584 168.075 378.496 168.104L377.66 168.368C375.9 168.896 374.698 169.204 374.052 169.292C372.674 169.497 371.324 169.791 370.004 170.172C368.714 170.553 367.1 171.067 365.164 171.712C363.903 172.181 362.554 172.621 361.116 173.032ZM404.608 171.712C405.4 171.565 407.043 171.228 409.536 170.7L412.924 169.996C413.306 170.377 413.628 170.715 413.892 171.008C414.156 171.301 414.288 171.551 414.288 171.756C414.288 171.991 414.171 172.225 413.936 172.46C413.702 172.695 413.232 173.076 412.528 173.604C412.44 173.663 412.338 173.765 412.22 173.912C412.132 174.059 412.03 174.147 411.912 174.176L410.724 174.484C409.727 174.777 408.832 174.997 408.04 175.144C407.278 175.32 406.5 175.408 405.708 175.408C402.892 175.408 400.59 174.572 398.8 172.9C398.126 172.284 397.598 171.668 397.216 171.052C396.864 170.407 396.688 169.717 396.688 168.984C396.688 168.661 396.703 168.427 396.732 168.28C397.202 165.376 397.73 162.912 398.316 160.888C398.932 158.659 400.047 154.875 401.66 149.536C402.012 148.275 402.57 146.383 403.332 143.86C403.538 143.185 403.816 142.716 404.168 142.452C404.55 142.188 405.092 142.085 405.796 142.144C405.943 142.144 406.075 142.159 406.192 142.188C406.339 142.217 406.486 142.232 406.632 142.232C408.451 142.379 409.36 143.259 409.36 144.872C409.36 145.283 409.302 145.708 409.184 146.148C408.95 147.087 408.51 148.348 407.864 149.932C405.488 155.975 403.655 161.797 402.364 167.4C402.188 168.104 402.1 168.837 402.1 169.6C402.1 171.037 402.731 171.756 403.992 171.756C404.256 171.756 404.462 171.741 404.608 171.712ZM447.431 158.248C447.519 160.037 447.123 161.929 446.243 163.924C445.392 165.919 444.189 167.723 442.635 169.336C441.109 170.949 439.423 172.108 437.575 172.812C435.727 173.516 433.908 173.868 432.119 173.868C430.271 173.868 428.511 173.501 426.839 172.768C425.196 172.005 423.685 170.891 422.307 169.424C421.397 168.485 420.635 167.327 420.019 165.948C419.403 164.54 418.948 163.088 418.655 161.592C418.391 160.213 418.259 158.864 418.259 157.544C418.259 154.523 418.948 151.853 420.327 149.536C421.177 148.099 422.145 146.999 423.231 146.236C424.345 145.444 425.651 145.048 427.147 145.048C427.381 145.048 427.792 145.077 428.379 145.136C429.64 145.312 431.195 145.429 433.043 145.488C434.861 145.547 436.211 145.635 437.091 145.752C438.704 145.928 440.127 146.5 441.359 147.468C442.62 148.436 443.779 149.683 444.835 151.208C445.275 151.853 445.656 152.528 445.979 153.232C446.331 153.936 446.712 154.801 447.123 155.828L448.047 157.984L447.431 158.248ZM433.043 168.94C434.656 168.383 436.123 167.488 437.443 166.256C438.763 165.024 439.789 163.587 440.523 161.944C441.256 160.301 441.579 158.629 441.491 156.928C441.315 154.141 440.948 152.088 440.391 150.768C439.833 149.448 438.939 148.524 437.707 147.996C436.504 147.468 434.656 147.116 432.163 146.94C431.899 146.911 431.62 146.896 431.327 146.896L428.423 150.02C427.601 150.959 427.044 151.707 426.751 152.264C425.431 154.699 424.771 157.617 424.771 161.02C424.771 162.164 424.8 163.029 424.859 163.616C424.976 165.464 425.533 166.901 426.531 167.928C427.528 168.925 428.804 169.424 430.359 169.424C431.121 169.424 432.016 169.263 433.043 168.94ZM455.102 151.868C456.246 149.961 458.02 148.289 460.426 146.852C462.332 145.708 464.547 145.136 467.07 145.136C468.859 145.136 470.59 145.444 472.262 146.06C473.934 146.647 475.312 147.483 476.398 148.568C476.779 148.949 477.19 149.316 477.63 149.668C478.304 150.255 478.7 150.621 478.818 150.768C480.284 152.323 481.018 154.039 481.018 155.916C481.018 157.383 480.548 158.879 479.61 160.404C478.378 162.428 477.102 164.203 475.782 165.728C474.462 167.253 472.98 168.559 471.338 169.644C468.551 171.492 465.882 172.416 463.33 172.416C462.567 172.416 461.804 172.328 461.042 172.152C458.49 171.595 456.422 170.407 454.838 168.588C453.254 166.74 452.462 164.643 452.462 162.296C452.462 160.507 452.96 158.717 453.958 156.928C454.016 156.781 454.134 156.635 454.31 156.488C454.515 156.341 454.676 156.224 454.794 156.136L455.806 156.62L456.774 157.104C457.683 157.603 458.27 158.013 458.534 158.336C458.827 158.659 458.974 159.113 458.974 159.7C458.974 160.111 458.93 160.668 458.842 161.372C458.812 161.636 458.798 162.017 458.798 162.516C458.798 163.601 458.93 164.907 459.194 166.432C459.252 166.872 459.428 167.209 459.722 167.444C460.044 167.679 460.44 167.796 460.91 167.796C461.144 167.796 461.335 167.781 461.482 167.752C462.86 167.488 464.034 167.18 465.002 166.828C465.999 166.476 466.894 165.948 467.686 165.244C469.152 163.983 470.428 162.765 471.514 161.592C472.599 160.419 473.552 159.157 474.374 157.808C474.931 156.869 475.21 155.96 475.21 155.08C475.21 154.347 475.048 153.628 474.726 152.924C474.403 152.22 473.934 151.428 473.318 150.548C472.291 149.14 470.956 148.436 469.314 148.436C468.727 148.436 468.126 148.524 467.51 148.7C467.304 148.759 466.366 149.067 464.694 149.624C464.518 149.683 464.327 149.741 464.122 149.8C463.946 149.859 463.755 149.917 463.55 149.976L458.534 151.428C457.888 151.633 456.891 151.912 455.542 152.264L455.102 151.868ZM511.972 171.668C512.5 171.697 512.911 171.844 513.204 172.108C513.498 172.343 513.703 172.768 513.82 173.384C512.764 173.795 511.664 174 510.52 174C509.787 174 509.068 173.912 508.364 173.736C505.871 173.12 503.656 172.357 501.72 171.448C499.814 170.539 498.098 169.307 496.572 167.752L495.912 167.092C494.974 166.271 494.314 165.523 493.932 164.848C493.58 164.203 493.082 163.88 492.436 163.88C492.084 163.88 491.762 163.983 491.468 164.188C491.175 164.393 490.955 164.672 490.808 165.024C490.192 166.491 489.811 167.4 489.664 167.752C489.459 168.221 489.224 168.779 488.96 169.424C488.696 170.069 488.374 170.803 487.992 171.624C487.699 171.8 487.523 171.888 487.464 171.888C486.35 171.829 485.572 171.697 485.132 171.492C484.722 171.287 484.516 170.905 484.516 170.348C484.516 169.879 484.648 169.204 484.912 168.324C486.056 164.54 487.2 161.548 488.344 159.348C488.696 158.703 489.034 157.969 489.356 157.148C489.679 156.297 489.972 155.461 490.236 154.64C490.735 153.291 491.058 152.44 491.204 152.088L496.924 138.228C497.335 138.169 497.643 138.14 497.848 138.14C498.963 138.14 500.004 138.507 500.972 139.24C501.442 139.592 501.676 139.988 501.676 140.428C501.676 140.721 501.603 141.015 501.456 141.308C499.726 145.004 497.775 149.243 495.604 154.024C495.076 155.256 494.768 156.268 494.68 157.06L498.992 154.288L501.324 152.704C504.375 150.621 506.472 149.213 507.616 148.48C508.995 147.571 510.33 147.116 511.62 147.116C512.618 147.116 513.615 147.395 514.612 147.952C514.818 148.069 515.214 148.363 515.8 148.832C515.771 148.803 516.02 149.008 516.548 149.448C516.431 149.536 516.182 149.771 515.8 150.152C515.302 150.592 514.935 150.841 514.7 150.9C513.644 151.105 512.662 151.443 511.752 151.912C510.872 152.381 509.743 153.041 508.364 153.892C504.316 156.444 500.914 158.659 498.156 160.536C497.716 160.829 497.408 161.079 497.232 161.284C497.056 161.46 496.968 161.651 496.968 161.856C496.968 162.149 497.144 162.648 497.496 163.352C499.638 167.811 503.334 170.451 508.584 171.272C509.67 171.477 510.799 171.609 511.972 171.668ZM531.118 150.68C530.854 152.44 530.649 153.672 530.502 154.376C530.121 156.107 529.417 158.952 528.39 162.912C527.921 164.555 527.495 165.743 527.114 166.476C526.703 167.356 526.117 168.148 525.354 168.852C525.149 169.057 524.855 169.16 524.474 169.16C524.298 169.16 524.122 169.101 523.946 168.984C523.77 168.808 523.609 168.544 523.462 168.192C523.345 167.811 523.286 167.473 523.286 167.18C523.374 166.183 523.565 165.053 523.858 163.792C525.354 157.573 526.219 151.795 526.454 146.456L526.498 145.796C526.557 144.652 526.718 143.831 526.982 143.332C527.275 142.804 527.73 142.54 528.346 142.54C528.845 142.54 529.373 142.892 529.93 143.596C530.517 144.3 530.854 145.019 530.942 145.752L531.382 149.096L531.118 150.68ZM522.978 175.232C522.303 174.939 521.79 174.543 521.438 174.044C521.115 173.575 520.954 172.973 520.954 172.24C520.954 171.653 521.027 171.111 521.174 170.612C521.438 170.671 521.849 170.759 522.406 170.876C522.963 170.993 523.433 171.111 523.814 171.228C524.313 171.375 524.753 171.609 525.134 171.932C525.691 172.401 525.97 172.944 525.97 173.56C525.97 173.941 525.853 174.293 525.618 174.616C525.207 175.203 524.679 175.496 524.034 175.496C523.682 175.496 523.33 175.408 522.978 175.232Z" fill="white"></path><path d="M96.9817 225V209.16H99.6327V225H96.9817ZM107.332 225V209.16H109.983V215.826H117.485V209.16H120.125V225H117.485V218.312H109.983V225H107.332ZM122.109 225L127.103 209.16H130.986L135.98 225H133.252L128.72 210.788H129.314L124.837 225H122.109ZM124.892 221.568V219.093H133.208V221.568H124.892ZM139.986 225L134.992 209.16H137.72L141.9 222.426L146.135 209.16H148.863L143.869 225H139.986ZM150.516 225V209.16H160.746V211.646H153.167V215.551H159.426V218.037H153.167V222.514H160.746V225H150.516ZM167.789 225V209.16H174.07C175.141 209.16 176.017 209.376 176.699 209.809C177.388 210.234 177.898 210.781 178.228 211.448C178.565 212.115 178.734 212.805 178.734 213.516C178.734 214.389 178.525 215.129 178.107 215.738C177.696 216.347 177.135 216.757 176.424 216.97V216.42C177.421 216.647 178.177 217.12 178.69 217.839C179.211 218.558 179.471 219.375 179.471 220.292C179.471 221.231 179.291 222.052 178.932 222.756C178.573 223.46 178.037 224.01 177.326 224.406C176.622 224.802 175.749 225 174.708 225H167.789ZM170.473 222.503H174.378C174.84 222.503 175.254 222.411 175.621 222.228C175.988 222.037 176.274 221.773 176.479 221.436C176.692 221.091 176.798 220.684 176.798 220.215C176.798 219.79 176.706 219.408 176.523 219.071C176.34 218.734 176.072 218.466 175.72 218.268C175.368 218.063 174.946 217.96 174.455 217.96H170.473V222.503ZM170.473 215.485H174.037C174.418 215.485 174.759 215.412 175.06 215.265C175.361 215.118 175.599 214.902 175.775 214.616C175.951 214.33 176.039 213.978 176.039 213.56C176.039 213.01 175.863 212.552 175.511 212.185C175.159 211.818 174.668 211.635 174.037 211.635H170.473V215.485ZM181.668 225V209.16H191.898V211.646H184.319V215.551H190.578V218.037H184.319V222.514H191.898V225H181.668ZM194.537 225V209.16H204.767V211.646H197.188V215.551H203.447V218.037H197.188V222.514H204.767V225H194.537ZM207.406 225V209.16H210.09L217.438 220.325V209.16H220.122V225H217.438L210.09 213.835V225H207.406ZM230.946 225L226.315 209.16H229.098L232.255 220.6L235.401 209.182L238.184 209.16L241.341 220.6L244.487 209.16H247.27L242.65 225H240.032L236.787 213.736L233.564 225H230.946ZM255.334 225.33C253.75 225.33 252.393 224.985 251.264 224.296C250.134 223.599 249.265 222.631 248.657 221.392C248.055 220.153 247.755 218.715 247.755 217.08C247.755 215.445 248.055 214.007 248.657 212.768C249.265 211.529 250.134 210.564 251.264 209.875C252.393 209.178 253.75 208.83 255.334 208.83C256.918 208.83 258.274 209.178 259.404 209.875C260.54 210.564 261.409 211.529 262.011 212.768C262.619 214.007 262.924 215.445 262.924 217.08C262.924 218.715 262.619 220.153 262.011 221.392C261.409 222.631 260.54 223.599 259.404 224.296C258.274 224.985 256.918 225.33 255.334 225.33ZM255.334 222.833C256.397 222.84 257.281 222.606 257.985 222.129C258.696 221.652 259.228 220.981 259.58 220.116C259.939 219.251 260.119 218.239 260.119 217.08C260.119 215.921 259.939 214.917 259.58 214.066C259.228 213.208 258.696 212.541 257.985 212.064C257.281 211.587 256.397 211.342 255.334 211.327C254.27 211.32 253.387 211.554 252.683 212.031C251.979 212.508 251.447 213.179 251.088 214.044C250.736 214.909 250.56 215.921 250.56 217.08C250.56 218.239 250.736 219.247 251.088 220.105C251.44 220.956 251.968 221.619 252.672 222.096C253.383 222.573 254.27 222.818 255.334 222.833ZM265.113 225V209.16H271.658C271.812 209.16 272.01 209.167 272.252 209.182C272.494 209.189 272.718 209.211 272.923 209.248C273.84 209.387 274.595 209.692 275.189 210.161C275.791 210.63 276.234 211.224 276.52 211.943C276.814 212.654 276.96 213.446 276.96 214.319C276.96 215.61 276.634 216.721 275.981 217.652C275.329 218.576 274.328 219.148 272.978 219.368L271.845 219.467H267.764V225H265.113ZM274.21 225L271.086 218.554L273.781 217.96L277.213 225H274.21ZM267.764 216.992H271.548C271.695 216.992 271.86 216.985 272.043 216.97C272.227 216.955 272.395 216.926 272.549 216.882C272.989 216.772 273.334 216.578 273.583 216.299C273.84 216.02 274.02 215.705 274.122 215.353C274.232 215.001 274.287 214.656 274.287 214.319C274.287 213.982 274.232 213.637 274.122 213.285C274.02 212.926 273.84 212.607 273.583 212.328C273.334 212.049 272.989 211.855 272.549 211.745C272.395 211.701 272.227 211.675 272.043 211.668C271.86 211.653 271.695 211.646 271.548 211.646H267.764V216.992ZM279.637 225V209.16H282.288V216.508L288.613 209.16H291.869L285.06 216.926L292.331 225H288.965L282.288 217.608V225H279.637ZM294.101 225V209.16H296.752V225H294.101ZM300.047 225V209.16H302.731L310.079 220.325V209.16H312.763V225H310.079L302.731 213.835V225H300.047ZM322.372 225.33C321.345 225.33 320.381 225.15 319.479 224.791C318.584 224.424 317.796 223.889 317.114 223.185C316.439 222.481 315.911 221.619 315.53 220.6C315.149 219.573 314.958 218.4 314.958 217.08C314.958 215.349 315.281 213.872 315.926 212.647C316.571 211.415 317.455 210.473 318.577 209.82C319.699 209.16 320.964 208.83 322.372 208.83C324.323 208.83 325.866 209.285 327.003 210.194C328.147 211.096 328.921 212.365 329.324 214L326.618 214.429C326.317 213.49 325.826 212.742 325.144 212.185C324.462 211.62 323.593 211.338 322.537 211.338C321.474 211.323 320.59 211.554 319.886 212.031C319.182 212.508 318.65 213.179 318.291 214.044C317.939 214.909 317.763 215.921 317.763 217.08C317.763 218.239 317.939 219.247 318.291 220.105C318.643 220.956 319.171 221.619 319.875 222.096C320.586 222.573 321.474 222.818 322.537 222.833C323.336 222.84 324.037 222.697 324.638 222.404C325.239 222.103 325.731 221.652 326.112 221.051C326.493 220.442 326.75 219.683 326.882 218.774H324.088V216.695H329.698C329.713 216.812 329.724 216.985 329.731 217.212C329.738 217.439 329.742 217.575 329.742 217.619C329.742 219.115 329.445 220.446 328.851 221.612C328.264 222.771 327.421 223.68 326.321 224.34C325.221 225 323.905 225.33 322.372 225.33ZM343.054 225.33C341.47 225.33 340.114 224.985 338.984 224.296C337.855 223.599 336.986 222.631 336.377 221.392C335.776 220.153 335.475 218.715 335.475 217.08C335.475 215.445 335.776 214.007 336.377 212.768C336.986 211.529 337.855 210.564 338.984 209.875C340.114 209.178 341.47 208.83 343.054 208.83C344.638 208.83 345.995 209.178 347.124 209.875C348.261 210.564 349.13 211.529 349.731 212.768C350.34 214.007 350.644 215.445 350.644 217.08C350.644 218.715 350.34 220.153 349.731 221.392C349.13 222.631 348.261 223.599 347.124 224.296C345.995 224.985 344.638 225.33 343.054 225.33ZM343.054 222.833C344.118 222.84 345.001 222.606 345.705 222.129C346.417 221.652 346.948 220.981 347.3 220.116C347.66 219.251 347.839 218.239 347.839 217.08C347.839 215.921 347.66 214.917 347.3 214.066C346.948 213.208 346.417 212.541 345.705 212.064C345.001 211.587 344.118 211.342 343.054 211.327C341.991 211.32 341.107 211.554 340.403 212.031C339.699 212.508 339.168 213.179 338.808 214.044C338.456 214.909 338.28 215.921 338.28 217.08C338.28 218.239 338.456 219.247 338.808 220.105C339.16 220.956 339.688 221.619 340.392 222.096C341.104 222.573 341.991 222.818 343.054 222.833ZM359.214 225.33C357.953 225.33 356.842 225.073 355.881 224.56C354.928 224.047 354.18 223.324 353.637 222.393C353.102 221.462 352.834 220.369 352.834 219.115V209.182L355.518 209.16V219.049C355.518 219.643 355.617 220.175 355.815 220.644C356.02 221.113 356.295 221.513 356.64 221.843C356.985 222.166 357.381 222.411 357.828 222.58C358.275 222.749 358.737 222.833 359.214 222.833C359.705 222.833 360.171 222.749 360.611 222.58C361.058 222.404 361.454 222.155 361.799 221.832C362.144 221.502 362.415 221.102 362.613 220.633C362.811 220.164 362.91 219.636 362.91 219.049V209.16H365.594V219.115C365.594 220.369 365.323 221.462 364.78 222.393C364.245 223.324 363.497 224.047 362.536 224.56C361.583 225.073 360.475 225.33 359.214 225.33ZM372.474 225V211.646H367.348V209.16H380.251V211.646H375.125V225H372.474ZM385.968 225V209.16H388.619V225H385.968ZM391.914 225V209.16H394.598L401.946 220.325V209.16H404.63V225H401.946L394.598 213.835V225H391.914ZM415.915 225V211.646H410.789V209.16H423.692V211.646H418.566V225H415.915ZM425.451 225V209.16H428.102V215.826H435.604V209.16H438.244V225H435.604V218.312H428.102V225H425.451ZM441.328 225V209.16H451.558V211.646H443.979V215.551H450.238V218.037H443.979V222.514H451.558V225H441.328ZM465.136 225.33C464.109 225.33 463.145 225.15 462.243 224.791C461.348 224.424 460.56 223.889 459.878 223.185C459.203 222.481 458.675 221.619 458.294 220.6C457.912 219.573 457.722 218.4 457.722 217.08C457.722 215.349 458.044 213.872 458.69 212.647C459.335 211.415 460.219 210.473 461.341 209.82C462.463 209.16 463.728 208.83 465.136 208.83C467.086 208.83 468.63 209.285 469.767 210.194C470.911 211.096 471.684 212.365 472.088 214L469.382 214.429C469.081 213.49 468.59 212.742 467.908 212.185C467.226 211.62 466.357 211.338 465.301 211.338C464.237 211.323 463.354 211.554 462.65 212.031C461.946 212.508 461.414 213.179 461.055 214.044C460.703 214.909 460.527 215.921 460.527 217.08C460.527 218.239 460.703 219.247 461.055 220.105C461.407 220.956 461.935 221.619 462.639 222.096C463.35 222.573 464.237 222.818 465.301 222.833C466.1 222.84 466.8 222.697 467.402 222.404C468.003 222.103 468.494 221.652 468.876 221.051C469.257 220.442 469.514 219.683 469.646 218.774H466.852V216.695H472.462C472.476 216.812 472.487 216.985 472.495 217.212C472.502 217.439 472.506 217.575 472.506 217.619C472.506 219.115 472.209 220.446 471.615 221.612C471.028 222.771 470.185 223.68 469.085 224.34C467.985 225 466.668 225.33 465.136 225.33ZM477.899 225V218.51L472.509 209.16H475.6L479.241 215.474L482.871 209.16H485.962L480.583 218.51V225H477.899ZM487.498 225V209.16H489.885L495.363 220.38L500.841 209.16H503.228V225H500.753V214.847L495.891 225H494.835L489.984 214.847V225H487.498ZM210.854 256V240.16H220.391V242.811H213.505V246.76H219.071V249.4H213.505V256H210.854ZM229.069 256.33C227.485 256.33 226.128 255.985 224.999 255.296C223.87 254.599 223.001 253.631 222.392 252.392C221.791 251.153 221.49 249.715 221.49 248.08C221.49 246.445 221.791 245.007 222.392 243.768C223.001 242.529 223.87 241.564 224.999 240.875C226.128 240.178 227.485 239.83 229.069 239.83C230.653 239.83 232.01 240.178 233.139 240.875C234.276 241.564 235.145 242.529 235.746 243.768C236.355 245.007 236.659 246.445 236.659 248.08C236.659 249.715 236.355 251.153 235.746 252.392C235.145 253.631 234.276 254.599 233.139 255.296C232.01 255.985 230.653 256.33 229.069 256.33ZM229.069 253.833C230.132 253.84 231.016 253.606 231.72 253.129C232.431 252.652 232.963 251.981 233.315 251.116C233.674 250.251 233.854 249.239 233.854 248.08C233.854 246.921 233.674 245.917 233.315 245.066C232.963 244.208 232.431 243.541 231.72 243.064C231.016 242.587 230.132 242.342 229.069 242.327C228.006 242.32 227.122 242.554 226.418 243.031C225.714 243.508 225.182 244.179 224.823 245.044C224.471 245.909 224.295 246.921 224.295 248.08C224.295 249.239 224.471 250.247 224.823 251.105C225.175 251.956 225.703 252.619 226.407 253.096C227.118 253.573 228.006 253.818 229.069 253.833ZM238.849 256V240.16H245.394C245.548 240.16 245.746 240.167 245.988 240.182C246.23 240.189 246.453 240.211 246.659 240.248C247.575 240.387 248.331 240.692 248.925 241.161C249.526 241.63 249.97 242.224 250.256 242.943C250.549 243.654 250.696 244.446 250.696 245.319C250.696 246.61 250.369 247.721 249.717 248.652C249.064 249.576 248.063 250.148 246.714 250.368L245.581 250.467H241.5V256H238.849ZM247.946 256L244.822 249.554L247.517 248.96L250.949 256H247.946ZM241.5 247.992H245.284C245.43 247.992 245.595 247.985 245.779 247.97C245.962 247.955 246.131 247.926 246.285 247.882C246.725 247.772 247.069 247.578 247.319 247.299C247.575 247.02 247.755 246.705 247.858 246.353C247.968 246.001 248.023 245.656 248.023 245.319C248.023 244.982 247.968 244.637 247.858 244.285C247.755 243.926 247.575 243.607 247.319 243.328C247.069 243.049 246.725 242.855 246.285 242.745C246.131 242.701 245.962 242.675 245.779 242.668C245.595 242.653 245.43 242.646 245.284 242.646H241.5V247.992ZM256.676 256L261.67 240.16H265.553L270.547 256H267.819L263.287 241.788H263.881L259.404 256H256.676ZM259.459 252.568V250.093H267.775V252.568H259.459ZM277.16 256V240.16H279.811V253.514H286.807V256H277.16ZM294.94 256.33C293.356 256.33 292 255.985 290.87 255.296C289.741 254.599 288.872 253.631 288.263 252.392C287.662 251.153 287.361 249.715 287.361 248.08C287.361 246.445 287.662 245.007 288.263 243.768C288.872 242.529 289.741 241.564 290.87 240.875C292 240.178 293.356 239.83 294.94 239.83C296.524 239.83 297.881 240.178 299.01 240.875C300.147 241.564 301.016 242.529 301.617 243.768C302.226 245.007 302.53 246.445 302.53 248.08C302.53 249.715 302.226 251.153 301.617 252.392C301.016 253.631 300.147 254.599 299.01 255.296C297.881 255.985 296.524 256.33 294.94 256.33ZM294.94 253.833C296.004 253.84 296.887 253.606 297.591 253.129C298.303 252.652 298.834 251.981 299.186 251.116C299.546 250.251 299.725 249.239 299.725 248.08C299.725 246.921 299.546 245.917 299.186 245.066C298.834 244.208 298.303 243.541 297.591 243.064C296.887 242.587 296.004 242.342 294.94 242.327C293.877 242.32 292.993 242.554 292.289 243.031C291.585 243.508 291.054 244.179 290.694 245.044C290.342 245.909 290.166 246.921 290.166 248.08C290.166 249.239 290.342 250.247 290.694 251.105C291.046 251.956 291.574 252.619 292.278 253.096C292.99 253.573 293.877 253.818 294.94 253.833ZM304.72 256V240.16H307.404L314.752 251.325V240.16H317.436V256H314.752L307.404 244.835V256H304.72ZM327.045 256.33C326.018 256.33 325.054 256.15 324.152 255.791C323.257 255.424 322.469 254.889 321.787 254.185C321.112 253.481 320.584 252.619 320.203 251.6C319.821 250.573 319.631 249.4 319.631 248.08C319.631 246.349 319.953 244.872 320.599 243.647C321.244 242.415 322.128 241.473 323.25 240.82C324.372 240.16 325.637 239.83 327.045 239.83C328.995 239.83 330.539 240.285 331.676 241.194C332.82 242.096 333.593 243.365 333.997 245L331.291 245.429C330.99 244.49 330.499 243.742 329.817 243.185C329.135 242.62 328.266 242.338 327.21 242.338C326.146 242.323 325.263 242.554 324.559 243.031C323.855 243.508 323.323 244.179 322.964 245.044C322.612 245.909 322.436 246.921 322.436 248.08C322.436 249.239 322.612 250.247 322.964 251.105C323.316 251.956 323.844 252.619 324.548 253.096C325.259 253.573 326.146 253.818 327.21 253.833C328.009 253.84 328.709 253.697 329.311 253.404C329.912 253.103 330.403 252.652 330.785 252.051C331.166 251.442 331.423 250.683 331.555 249.774H328.761V247.695H334.371C334.385 247.812 334.396 247.985 334.404 248.212C334.411 248.439 334.415 248.575 334.415 248.619C334.415 250.115 334.118 251.446 333.524 252.612C332.937 253.771 332.094 254.68 330.994 255.34C329.894 256 328.577 256.33 327.045 256.33ZM344.834 256V242.646H339.708V240.16H352.611V242.646H347.485V256H344.834ZM354.59 256V240.16H357.241V256H354.59ZM360.536 256V240.16H362.923L368.401 251.38L373.879 240.16H376.266V256H373.791V245.847L368.929 256H367.873L363.022 245.847V256H360.536ZM379.356 256V240.16H389.586V242.646H382.007V246.551H388.266V249.037H382.007V253.514H389.586V256H379.356Z" fill="#FFACC0"></path></svg> 