<?xml version="1.0" encoding="UTF-8"?> <svg xmlns="http://www.w3.org/2000/svg" width="600" height="400" viewBox="0 0 600 400" fill="none"><rect width="600" height="400" rx="20" fill="#A11717"></rect><path d="M67.2101 166.032C66.5941 166.208 66.0221 166.296 65.4941 166.296C64.0861 166.296 62.7368 165.68 61.4461 164.448C61.6221 163.803 61.9154 163.333 62.3261 163.04C62.7368 162.717 63.1474 162.468 63.5581 162.292C63.9688 162.116 64.2474 161.999 64.3941 161.94C65.9781 161.265 67.6354 160.679 69.3661 160.18C70.0994 159.945 70.5541 159.476 70.7301 158.772C71.2581 156.983 71.6688 155.223 71.9621 153.492C72.2554 151.732 72.6074 149.371 73.0181 146.408L73.1941 145.044C73.2234 144.956 73.2381 144.824 73.2381 144.648C73.2381 144.032 72.9301 143.607 72.3141 143.372C72.1088 143.284 71.8741 143.137 71.6101 142.932C71.3461 142.697 71.1408 142.521 70.9941 142.404L69.9381 142.932C69.0874 143.313 68.1194 143.783 67.0341 144.34C66.6528 144.545 66.2568 144.648 65.8461 144.648C65.4061 144.648 64.9368 144.545 64.4381 144.34C63.9688 144.105 63.6901 143.973 63.6021 143.944C63.3381 143.827 63.1181 143.651 62.9421 143.416C62.7954 143.181 62.7221 142.932 62.7221 142.668C62.7221 142.316 62.8394 141.979 63.0741 141.656C63.3968 141.187 63.8954 140.703 64.5701 140.204C67.2101 138.239 69.9968 137.256 72.9301 137.256C74.2794 137.256 75.6141 137.447 76.9341 137.828C78.1661 138.209 79.2368 138.532 80.1461 138.796C81.0848 139.031 81.8621 139.236 82.4781 139.412L85.2501 140.204C85.3088 140.204 85.4261 140.219 85.6021 140.248C85.8074 140.277 85.9541 140.336 86.0421 140.424C86.2181 140.571 86.3941 140.776 86.5701 141.04C86.7754 141.275 86.9368 141.465 87.0541 141.612C86.9074 141.729 86.7021 141.905 86.4381 142.14C86.2034 142.375 85.9834 142.492 85.7781 142.492C85.5434 142.521 85.1768 142.536 84.6781 142.536C84.2968 142.536 83.7248 142.507 82.9621 142.448L81.9941 142.404L78.8701 142.052L78.6501 143.636C78.2688 146.393 77.9314 148.579 77.6381 150.192C77.4034 151.6 77.0221 153.492 76.4941 155.868L75.9661 158.464C77.9608 158.2 79.3101 158.024 80.0141 157.936C81.5981 157.76 82.7861 157.672 83.5781 157.672C84.5461 157.672 85.3528 157.804 85.9981 158.068C86.6434 158.332 87.0981 158.875 87.3621 159.696C87.0688 160.077 86.7314 160.356 86.3501 160.532C85.9981 160.708 85.6314 160.84 85.2501 160.928C84.8981 161.016 84.6781 161.075 84.5901 161.104L83.7541 161.368C81.9941 161.896 80.7914 162.204 80.1461 162.292C78.7674 162.497 77.4181 162.791 76.0981 163.172C74.8074 163.553 73.1941 164.067 71.2581 164.712C69.9968 165.181 68.6474 165.621 67.2101 166.032ZM105.29 164.404C104.645 164.404 104.102 164.243 103.662 163.92C103.251 163.597 102.958 162.996 102.782 162.116C103.721 162.204 104.41 161.999 104.85 161.5C105.319 161.001 105.745 160.253 106.126 159.256L107.05 156.616C107.226 156.147 107.666 154.915 108.37 152.92C109.103 150.925 109.851 149.063 110.614 147.332C111.611 144.985 113.137 142.14 115.19 138.796C115.718 137.975 116.349 137.359 117.082 136.948C117.815 136.508 118.593 136.288 119.414 136.288C120.147 136.288 120.851 136.479 121.526 136.86C122.23 137.212 122.846 137.74 123.374 138.444C123.814 139.031 124.21 139.676 124.562 140.38C124.914 141.055 125.354 141.964 125.882 143.108L126.718 144.868C126.923 145.337 127.085 145.983 127.202 146.804C127.349 148.153 127.95 148.989 129.006 149.312C129.153 149.371 129.314 149.517 129.49 149.752C129.666 149.957 129.813 150.133 129.93 150.28C129.05 150.867 128.61 151.644 128.61 152.612C128.61 153.14 128.742 153.873 129.006 154.812C129.358 156.073 129.71 157.496 130.062 159.08C130.443 160.635 130.693 161.691 130.81 162.248L131.338 164.668C131.367 164.785 131.382 164.947 131.382 165.152L131.338 166.34C131.074 166.428 130.722 166.56 130.282 166.736C129.842 166.912 129.475 167 129.182 167C128.39 167 127.51 166.824 126.542 166.472C126.161 166.355 125.911 166.164 125.794 165.9C125.706 165.607 125.662 165.255 125.662 164.844C125.662 164.433 125.647 164.14 125.618 163.964L125.398 162.732C124.43 157.423 123.858 154.475 123.682 153.888C122.978 154.093 122.083 154.24 120.998 154.328C119.707 154.504 118.813 154.665 118.314 154.812C118.05 154.9 117.595 154.944 116.95 154.944L115.146 154.9C114.325 154.9 113.709 154.988 113.298 155.164C113.063 155.281 112.535 156.44 111.714 158.64C111.098 160.224 110.717 161.148 110.57 161.412C110.013 162.439 109.279 163.201 108.37 163.7C107.461 164.169 106.434 164.404 105.29 164.404ZM115.234 150.016C115.791 149.928 116.437 149.884 117.17 149.884H118.754C119.693 149.884 120.485 149.84 121.13 149.752C121.805 149.635 122.406 149.415 122.934 149.092C122.699 148.447 122.171 147.332 121.35 145.748C120.441 143.959 119.81 142.565 119.458 141.568C118.343 143.357 117.449 144.883 116.774 146.144C116.129 147.405 115.615 148.696 115.234 150.016ZM149.026 139.5C149.349 139.559 150.067 140.688 151.182 142.888C152.297 145.059 153.661 147.875 155.274 151.336L156.682 154.284C157.298 153.609 157.87 152.832 158.398 151.952C158.926 151.043 159.586 149.825 160.378 148.3C161.287 146.569 161.918 145.455 162.27 144.956C163.678 142.815 165.203 140.541 166.846 138.136C167.051 137.813 167.418 137.593 167.946 137.476C168.034 137.447 168.181 137.432 168.386 137.432C169.09 137.432 169.867 137.725 170.718 138.312C171.598 138.899 172.17 139.5 172.434 140.116C172.493 140.233 172.522 140.453 172.522 140.776C172.522 141.069 172.507 141.289 172.478 141.436C172.419 141.7 172.346 142.037 172.258 142.448C172.199 142.829 172.141 143.284 172.082 143.812C171.143 150.969 170.469 156.337 170.058 159.916C169.941 160.737 169.882 161.661 169.882 162.688L169.794 164.096C169.765 164.389 169.75 164.727 169.75 165.108C169.75 165.489 169.706 165.753 169.618 165.9C169.53 166.047 169.369 166.12 169.134 166.12C168.958 166.12 168.694 166.076 168.342 165.988C167.403 165.783 166.685 165.416 166.186 164.888C165.687 164.331 165.409 163.568 165.35 162.6C165.321 162.101 165.306 161.324 165.306 160.268C165.306 159.183 165.335 157.525 165.394 155.296L165.438 152.876L165.526 149.4C165.262 149.635 164.587 150.559 163.502 152.172C162.446 153.756 161.405 155.413 160.378 157.144C159.351 158.875 158.677 160.209 158.354 161.148C158.061 161.881 157.767 162.424 157.474 162.776C157.21 163.128 156.887 163.304 156.506 163.304C156.154 163.304 155.699 163.143 155.142 162.82C153.558 161.852 152.59 160.517 152.238 158.816C151.681 156.205 150.991 153.492 150.17 150.676C150.023 150.148 149.73 149.429 149.29 148.52C148.879 147.611 148.615 147.039 148.498 146.804L147.926 145.66C143.643 151.351 140.739 156.572 139.214 161.324C138.921 162.321 138.642 163.04 138.378 163.48C138.114 163.891 137.806 164.096 137.454 164.096C136.897 164.096 136.105 163.597 135.078 162.6C134.286 161.896 133.89 161.104 133.89 160.224C133.89 159.755 133.978 159.285 134.154 158.816C135.386 155.179 137.219 151.732 139.654 148.476L141.018 146.672C142.866 144.237 144.259 142.331 145.198 140.952C145.902 139.925 146.841 139.412 148.014 139.412C148.219 139.412 148.557 139.441 149.026 139.5ZM211.091 138.576C212.939 140.424 214.362 142.287 215.359 144.164C216.386 146.012 216.899 147.963 216.899 150.016C216.899 152.157 216.342 154.387 215.227 156.704C213.878 159.549 211.678 162.072 208.627 164.272C206.046 166.179 203.215 167.66 200.135 168.716C197.084 169.772 193.682 170.593 189.927 171.18C189.78 171.209 189.575 171.224 189.311 171.224C188.255 171.224 187.346 170.857 186.583 170.124C185.82 169.42 185.234 168.423 184.823 167.132C188.666 166.575 192.171 165.783 195.339 164.756C198.536 163.729 201.514 162.321 204.271 160.532C208.847 157.628 211.722 153.463 212.895 148.036C212.983 147.655 213.027 147.273 213.027 146.892C213.027 145.807 212.646 144.765 211.883 143.768C211.12 142.683 210.211 141.861 209.155 141.304C208.099 140.747 206.706 140.189 204.975 139.632C203.86 139.28 202.716 139.104 201.543 139.104C200.399 139.104 199.226 139.251 198.023 139.544C197.7 139.661 197.348 139.72 196.967 139.72C195.882 139.72 194.914 139.207 194.063 138.18C193.652 137.623 193.447 137.095 193.447 136.596C193.447 136.185 193.55 135.833 193.755 135.54C193.99 135.217 194.342 134.953 194.811 134.748C196.512 134.044 197.994 133.692 199.255 133.692C199.754 133.692 200.34 133.765 201.015 133.912C203.244 134.411 205.166 135.012 206.779 135.716C208.422 136.391 209.859 137.344 211.091 138.576ZM194.943 162.468C193.858 162.204 193.124 161.881 192.743 161.5C192.391 161.089 192.2 160.429 192.171 159.52C192.171 158.435 192.244 157.525 192.391 156.792C193.036 153.272 193.96 148.403 195.163 142.184C196.424 142.36 197.407 142.829 198.111 143.592C198.844 144.355 199.211 145.293 199.211 146.408C199.211 146.848 199.152 147.288 199.035 147.728C198.536 149.576 198.096 151.409 197.715 153.228L197.011 156.484L196.747 157.76C196.512 158.904 196.278 159.813 196.043 160.488C195.808 161.163 195.442 161.823 194.943 162.468ZM227.054 166.032C226.438 166.208 225.866 166.296 225.338 166.296C223.93 166.296 222.581 165.68 221.29 164.448C221.466 163.803 221.759 163.333 222.17 163.04C222.581 162.717 222.991 162.468 223.402 162.292C223.813 162.116 224.091 161.999 224.238 161.94C225.822 161.265 227.479 160.679 229.21 160.18C229.943 159.945 230.398 159.476 230.574 158.772C231.102 156.983 231.513 155.223 231.806 153.492C232.099 151.732 232.451 149.371 232.862 146.408L233.038 145.044C233.067 144.956 233.082 144.824 233.082 144.648C233.082 144.032 232.774 143.607 232.158 143.372C231.953 143.284 231.718 143.137 231.454 142.932C231.19 142.697 230.985 142.521 230.838 142.404L229.782 142.932C228.931 143.313 227.963 143.783 226.878 144.34C226.497 144.545 226.101 144.648 225.69 144.648C225.25 144.648 224.781 144.545 224.282 144.34C223.813 144.105 223.534 143.973 223.446 143.944C223.182 143.827 222.962 143.651 222.786 143.416C222.639 143.181 222.566 142.932 222.566 142.668C222.566 142.316 222.683 141.979 222.918 141.656C223.241 141.187 223.739 140.703 224.414 140.204C227.054 138.239 229.841 137.256 232.774 137.256C234.123 137.256 235.458 137.447 236.778 137.828C238.01 138.209 239.081 138.532 239.99 138.796C240.929 139.031 241.706 139.236 242.322 139.412L245.094 140.204C245.153 140.204 245.27 140.219 245.446 140.248C245.651 140.277 245.798 140.336 245.886 140.424C246.062 140.571 246.238 140.776 246.414 141.04C246.619 141.275 246.781 141.465 246.898 141.612C246.751 141.729 246.546 141.905 246.282 142.14C246.047 142.375 245.827 142.492 245.622 142.492C245.387 142.521 245.021 142.536 244.522 142.536C244.141 142.536 243.569 142.507 242.806 142.448L241.838 142.404L238.714 142.052L238.494 143.636C238.113 146.393 237.775 148.579 237.482 150.192C237.247 151.6 236.866 153.492 236.338 155.868L235.81 158.464C237.805 158.2 239.154 158.024 239.858 157.936C241.442 157.76 242.63 157.672 243.422 157.672C244.39 157.672 245.197 157.804 245.842 158.068C246.487 158.332 246.942 158.875 247.206 159.696C246.913 160.077 246.575 160.356 246.194 160.532C245.842 160.708 245.475 160.84 245.094 160.928C244.742 161.016 244.522 161.075 244.434 161.104L243.598 161.368C241.838 161.896 240.635 162.204 239.99 162.292C238.611 162.497 237.262 162.791 235.942 163.172C234.651 163.553 233.038 164.067 231.102 164.712C229.841 165.181 228.491 165.621 227.054 166.032ZM269.446 135.672C270.179 135.965 270.546 136.376 270.546 136.904C270.546 137.432 270.179 138.107 269.446 138.928C269.123 138.899 268.654 138.884 268.038 138.884C266.688 138.884 265.398 139.075 264.166 139.456C262.934 139.808 261.658 140.365 260.338 141.128C259.722 141.509 259.194 141.993 258.754 142.58C258.431 142.932 258.27 143.343 258.27 143.812C258.27 144.604 258.71 145.367 259.59 146.1C260.44 146.98 261.834 148.579 263.77 150.896L264.782 151.952C266.219 153.507 267.348 154.827 268.17 155.912C269.02 156.997 269.739 158.244 270.326 159.652C270.56 160.268 270.678 160.825 270.678 161.324C270.678 162.585 270.194 163.744 269.226 164.8C268.111 166.032 266.82 166.927 265.354 167.484C263.887 168.071 262.23 168.437 260.382 168.584C260.147 168.613 259.868 168.643 259.546 168.672C259.223 168.701 258.856 168.716 258.446 168.716C258.182 168.716 257.786 168.687 257.258 168.628C256.612 168.657 255.938 168.54 255.234 168.276C254.53 168.041 253.884 167.689 253.298 167.22C252.183 166.281 251.626 165.24 251.626 164.096C251.626 163.128 252.036 162.145 252.858 161.148C253.268 161.207 253.503 161.339 253.562 161.544C253.65 161.72 253.664 161.925 253.606 162.16C253.576 162.395 253.562 162.585 253.562 162.732C253.562 162.82 253.591 162.952 253.65 163.128C254.794 163.656 256.158 163.92 257.742 163.92C259.502 163.92 261.159 163.627 262.714 163.04C264.298 162.424 265.266 161.676 265.618 160.796C265.823 160.209 265.324 159.183 264.122 157.716C262.919 156.22 261.57 154.768 260.074 153.36C258.666 152.099 257.39 150.852 256.246 149.62C255.6 148.916 255.087 148.109 254.706 147.2C254.354 146.261 254.178 145.293 254.178 144.296C254.178 142.947 254.515 141.671 255.19 140.468C255.894 139.265 256.935 138.283 258.314 137.52C260.954 136.024 263.652 135.276 266.41 135.276C266.791 135.276 267.334 135.305 268.038 135.364C268.683 135.423 269.152 135.525 269.446 135.672ZM277.595 164.404C276.949 164.404 276.407 164.243 275.967 163.92C275.556 163.597 275.263 162.996 275.087 162.116C276.025 162.204 276.715 161.999 277.155 161.5C277.624 161.001 278.049 160.253 278.431 159.256L279.355 156.616C279.531 156.147 279.971 154.915 280.675 152.92C281.408 150.925 282.156 149.063 282.919 147.332C283.916 144.985 285.441 142.14 287.495 138.796C288.023 137.975 288.653 137.359 289.387 136.948C290.12 136.508 290.897 136.288 291.719 136.288C292.452 136.288 293.156 136.479 293.831 136.86C294.535 137.212 295.151 137.74 295.679 138.444C296.119 139.031 296.515 139.676 296.867 140.38C297.219 141.055 297.659 141.964 298.187 143.108L299.023 144.868C299.228 145.337 299.389 145.983 299.507 146.804C299.653 148.153 300.255 148.989 301.311 149.312C301.457 149.371 301.619 149.517 301.795 149.752C301.971 149.957 302.117 150.133 302.235 150.28C301.355 150.867 300.915 151.644 300.915 152.612C300.915 153.14 301.047 153.873 301.311 154.812C301.663 156.073 302.015 157.496 302.367 159.08C302.748 160.635 302.997 161.691 303.115 162.248L303.643 164.668C303.672 164.785 303.687 164.947 303.687 165.152L303.643 166.34C303.379 166.428 303.027 166.56 302.587 166.736C302.147 166.912 301.78 167 301.487 167C300.695 167 299.815 166.824 298.847 166.472C298.465 166.355 298.216 166.164 298.099 165.9C298.011 165.607 297.967 165.255 297.967 164.844C297.967 164.433 297.952 164.14 297.923 163.964L297.703 162.732C296.735 157.423 296.163 154.475 295.987 153.888C295.283 154.093 294.388 154.24 293.303 154.328C292.012 154.504 291.117 154.665 290.619 154.812C290.355 154.9 289.9 154.944 289.255 154.944L287.451 154.9C286.629 154.9 286.013 154.988 285.603 155.164C285.368 155.281 284.84 156.44 284.019 158.64C283.403 160.224 283.021 161.148 282.875 161.412C282.317 162.439 281.584 163.201 280.675 163.7C279.765 164.169 278.739 164.404 277.595 164.404ZM287.539 150.016C288.096 149.928 288.741 149.884 289.475 149.884H291.059C291.997 149.884 292.789 149.84 293.435 149.752C294.109 149.635 294.711 149.415 295.239 149.092C295.004 148.447 294.476 147.332 293.655 145.748C292.745 143.959 292.115 142.565 291.763 141.568C290.648 143.357 289.753 144.883 289.079 146.144C288.433 147.405 287.92 148.696 287.539 150.016ZM311.563 170.564C311.563 170.769 311.504 171.033 311.387 171.356C311.269 171.679 311.181 171.957 311.123 172.192C310.037 171.605 309.275 170.916 308.835 170.124C308.424 169.361 308.189 168.423 308.131 167.308C307.867 162.292 308.497 157.203 310.023 152.04L310.903 148.96C311.519 146.789 311.988 145.147 312.311 144.032L309.099 141.656C309.597 140.835 310.199 140.248 310.903 139.896C311.607 139.544 312.311 139.295 313.015 139.148C313.748 138.972 314.261 138.855 314.555 138.796C316.725 138.239 318.881 137.975 321.023 138.004C322.812 138.033 324.689 138.239 326.655 138.62C328.972 139.06 330.908 140.483 332.463 142.888C332.727 143.299 332.873 143.739 332.903 144.208C332.932 144.912 332.609 145.675 331.935 146.496C331.377 147.171 330.629 147.845 329.691 148.52C326.288 150.955 321.932 152.832 316.623 154.152C315.684 154.387 314.98 154.533 314.511 154.592C313.543 154.709 312.971 155.296 312.795 156.352C312.619 157.408 312.501 158.259 312.443 158.904C312.032 161.603 311.68 164.184 311.387 166.648C311.357 166.795 311.343 167.015 311.343 167.308C311.343 167.865 311.387 168.408 311.475 168.936C311.533 169.64 311.563 170.183 311.563 170.564ZM314.775 150.896C315.537 150.808 316.887 150.265 318.823 149.268C320.759 148.271 322.636 147.185 324.455 146.012C326.303 144.839 327.461 143.929 327.931 143.284L327.227 142.932C326.024 142.521 324.763 142.316 323.443 142.316C322.856 142.316 322.343 142.331 321.903 142.36C321.492 142.389 321.14 142.419 320.847 142.448L319.923 142.536C318.867 142.624 318.031 142.873 317.415 143.284C316.828 143.665 316.447 144.355 316.271 145.352C316.241 145.528 316.139 145.763 315.963 146.056C315.816 146.349 315.728 146.584 315.699 146.76C315.64 147.053 315.493 147.493 315.259 148.08C314.877 148.96 314.687 149.679 314.687 150.236C314.687 150.383 314.716 150.603 314.775 150.896ZM346.827 154.988C346.269 155.193 345.815 155.296 345.463 155.296C344.817 155.296 344.201 155.076 343.615 154.636C343.057 154.196 342.588 153.595 342.207 152.832L343.439 152.04C344.847 151.101 345.888 150.383 346.563 149.884C348.821 148.124 350.787 146.481 352.459 144.956C352.781 144.692 353.163 144.149 353.603 143.328L354.219 142.272L353.427 141.876C353.339 141.847 353.133 141.773 352.811 141.656C352.517 141.509 352.268 141.421 352.063 141.392C349.511 141.128 346.651 140.893 343.483 140.688C342.485 140.6 341.84 141.143 341.547 142.316L337.851 159.432C337.645 160.312 337.484 161.089 337.367 161.764C337.249 162.409 337.147 162.952 337.059 163.392L336.663 165.372C336.545 165.841 336.355 166.223 336.091 166.516C335.827 166.78 335.445 166.927 334.947 166.956L334.375 167C333.817 167 333.421 166.868 333.187 166.604C332.981 166.34 332.893 165.871 332.923 165.196L333.011 163.436C333.187 159.975 333.407 157.379 333.671 155.648C333.847 154.387 334.096 152.993 334.419 151.468C334.771 149.943 335.005 148.945 335.123 148.476C335.533 146.775 335.827 145.484 336.003 144.604L333.715 144.208C333.363 143.445 333.187 142.785 333.187 142.228C333.187 141.289 333.627 140.336 334.507 139.368C335.123 138.664 335.856 138.092 336.707 137.652C337.557 137.212 338.437 136.919 339.347 136.772C340.667 136.625 341.84 136.552 342.867 136.552C346.885 136.552 350.963 137.403 355.099 139.104C355.597 139.309 356.096 139.632 356.595 140.072C357.093 140.483 357.416 140.747 357.563 140.864C358.707 141.832 359.279 142.844 359.279 143.9C359.279 144.604 359.059 145.381 358.619 146.232C358.384 146.731 357.988 147.303 357.431 147.948C354.703 150.94 351.168 153.287 346.827 154.988ZM361.731 144.868C362.875 142.961 364.649 141.289 367.055 139.852C368.961 138.708 371.176 138.136 373.699 138.136C375.488 138.136 377.219 138.444 378.891 139.06C380.563 139.647 381.941 140.483 383.027 141.568C383.408 141.949 383.819 142.316 384.259 142.668C384.933 143.255 385.329 143.621 385.447 143.768C386.913 145.323 387.647 147.039 387.647 148.916C387.647 150.383 387.177 151.879 386.239 153.404C385.007 155.428 383.731 157.203 382.411 158.728C381.091 160.253 379.609 161.559 377.967 162.644C375.18 164.492 372.511 165.416 369.959 165.416C369.196 165.416 368.433 165.328 367.671 165.152C365.119 164.595 363.051 163.407 361.467 161.588C359.883 159.74 359.091 157.643 359.091 155.296C359.091 153.507 359.589 151.717 360.587 149.928C360.645 149.781 360.763 149.635 360.939 149.488C361.144 149.341 361.305 149.224 361.423 149.136L362.435 149.62L363.403 150.104C364.312 150.603 364.899 151.013 365.163 151.336C365.456 151.659 365.603 152.113 365.603 152.7C365.603 153.111 365.559 153.668 365.471 154.372C365.441 154.636 365.427 155.017 365.427 155.516C365.427 156.601 365.559 157.907 365.823 159.432C365.881 159.872 366.057 160.209 366.351 160.444C366.673 160.679 367.069 160.796 367.539 160.796C367.773 160.796 367.964 160.781 368.111 160.752C369.489 160.488 370.663 160.18 371.631 159.828C372.628 159.476 373.523 158.948 374.315 158.244C375.781 156.983 377.057 155.765 378.143 154.592C379.228 153.419 380.181 152.157 381.003 150.808C381.56 149.869 381.839 148.96 381.839 148.08C381.839 147.347 381.677 146.628 381.355 145.924C381.032 145.22 380.563 144.428 379.947 143.548C378.92 142.14 377.585 141.436 375.943 141.436C375.356 141.436 374.755 141.524 374.139 141.7C373.933 141.759 372.995 142.067 371.323 142.624C371.147 142.683 370.956 142.741 370.751 142.8C370.575 142.859 370.384 142.917 370.179 142.976L365.163 144.428C364.517 144.633 363.52 144.912 362.171 145.264L361.731 144.868ZM399.857 145.968C400.033 145.293 400.297 144.017 400.649 142.14L400.825 141.216L399.769 140.952C398.772 140.688 397.907 140.409 397.173 140.116C396.968 139.999 396.777 139.793 396.601 139.5C396.425 139.207 396.352 138.957 396.381 138.752C396.381 138.576 396.499 138.385 396.733 138.18C396.997 137.945 397.247 137.799 397.481 137.74L398.449 137.52C400.092 137.109 401.324 136.904 402.145 136.904C402.439 136.904 402.659 136.919 402.805 136.948C403.803 137.007 404.917 137.696 406.149 139.016C406.296 139.163 406.369 139.427 406.369 139.808C406.369 140.248 406.281 140.791 406.105 141.436C405.636 143.02 404.903 145.396 403.905 148.564L401.661 155.692C401.485 156.308 401.163 157.716 400.693 159.916L400.341 161.5C400.84 161.5 401.529 161.471 402.409 161.412C403.524 161.353 404.345 161.324 404.873 161.324L405.533 161.28C405.973 161.28 406.311 161.353 406.545 161.5C406.78 161.617 406.971 161.808 407.117 162.072C407.293 162.307 407.396 162.541 407.425 162.776V162.82C407.425 163.025 407.352 163.26 407.205 163.524C407.059 163.759 406.897 163.891 406.721 163.92C406.252 164.067 405.827 164.213 405.445 164.36C401.368 165.739 398.215 166.707 395.985 167.264C395.692 167.352 395.399 167.396 395.105 167.396C394.167 167.396 393.316 167.059 392.553 166.384C391.82 165.68 391.351 164.829 391.145 163.832C391.409 163.509 391.688 163.319 391.981 163.26C392.304 163.172 392.788 163.128 393.433 163.128C394.255 163.128 394.812 162.981 395.105 162.688C395.399 162.395 395.677 161.779 395.941 160.84L397.921 153.404C398.684 150.529 399.329 148.051 399.857 145.968ZM420.657 150.588C420.599 150.412 420.452 150.177 420.217 149.884C420.012 149.591 419.836 149.341 419.689 149.136C419.161 150.661 418.765 152.172 418.501 153.668C418.237 155.164 418.105 156.44 418.105 157.496C418.105 158.552 418.252 159.564 418.545 160.532C418.809 161.441 418.941 162.439 418.941 163.524C418.941 164.199 418.795 164.697 418.501 165.02C418.208 165.343 417.724 165.607 417.049 165.812C416.433 165.988 415.627 166.12 414.629 166.208L413.221 166.34C413.163 166.223 412.957 165.841 412.605 165.196C412.283 164.609 412.063 164.184 411.945 163.92C411.828 163.627 411.784 163.333 411.813 163.04C411.872 162.688 411.901 162.395 411.901 162.16C411.931 161.896 411.945 161.676 411.945 161.5C411.945 161.353 411.96 161.089 411.989 160.708C412.019 160.327 412.063 159.989 412.121 159.696C412.503 157.261 412.972 155.032 413.529 153.008C414.116 150.984 414.893 149.077 415.861 147.288C416.008 147.024 416.14 146.789 416.257 146.584C416.375 146.379 416.477 146.203 416.565 146.056C416.653 145.939 416.888 145.528 417.269 144.824C417.592 144.237 418.003 143.768 418.501 143.416C419 143.064 419.44 142.771 419.821 142.536C420.203 142.272 420.701 142.067 421.317 141.92C421.552 141.861 421.743 141.832 421.889 141.832C422.652 141.861 423.165 142.243 423.429 142.976L427.917 154.944C428.768 157.232 429.501 159.051 430.117 160.4C430.381 159.843 430.572 159.3 430.689 158.772C430.836 158.244 430.953 157.745 431.041 157.276C432.068 151.761 434.341 146.364 437.861 141.084C438.155 140.791 438.521 140.468 438.961 140.116C439.401 139.735 439.724 139.456 439.929 139.28C440.751 139.925 441.161 140.571 441.161 141.216C441.161 141.597 441.029 142.081 440.765 142.668C440.619 143.02 440.237 143.768 439.621 144.912L438.697 146.76C437.788 148.637 437.157 150.632 436.805 152.744C436.453 154.856 436.189 157.305 436.013 160.092C435.955 160.884 435.925 162.087 435.925 163.7C435.896 164.111 435.881 164.712 435.881 165.504C435.881 166.472 435.72 167.176 435.397 167.616C435.104 168.056 434.503 168.423 433.593 168.716C432.919 168.892 432.112 169.039 431.173 169.156L429.897 169.376C428.812 168.203 427.903 166.971 427.169 165.68C426.465 164.389 425.644 162.688 424.705 160.576C424.353 159.696 423.635 157.921 422.549 155.252C421.464 152.553 420.833 150.999 420.657 150.588ZM456.764 151.82C456.852 150.617 456.94 149.517 457.028 148.52C457.116 147.493 457.204 146.569 457.292 145.748L457.644 142.228C455.356 142.58 452.921 143.255 450.34 144.252C449.724 144.487 449.152 144.604 448.624 144.604C447.832 144.604 447.098 144.384 446.424 143.944C445.778 143.504 445.265 142.859 444.884 142.008C445.06 141.363 445.382 140.879 445.852 140.556C446.35 140.233 447.025 139.911 447.876 139.588C451.953 138.092 456.617 137.359 461.868 137.388C464.361 137.388 466.957 137.491 469.656 137.696C472.384 137.901 473.982 138.019 474.452 138.048L477.532 138.268C477.649 138.268 477.84 138.268 478.104 138.268C478.397 138.268 478.632 138.341 478.808 138.488C478.984 138.605 479.072 138.811 479.072 139.104C479.072 139.837 478.544 140.263 477.488 140.38C474.848 140.673 472.97 140.879 471.856 140.996C470.712 141.055 469.846 141.113 469.26 141.172C466.972 141.319 465.256 141.436 464.112 141.524C463.408 141.583 462.924 141.671 462.66 141.788C462.396 141.876 462.22 142.052 462.132 142.316C462.073 142.551 462.014 143.064 461.956 143.856C461.809 145.704 461.501 148.887 461.032 153.404C460.562 157.481 460.269 160.297 460.152 161.852C460.122 162.703 459.932 163.729 459.58 164.932C459.345 165.695 459.154 166.208 459.008 166.472C458.861 166.707 458.641 166.853 458.348 166.912C458.084 166.971 457.57 166.985 456.808 166.956C456.25 166.956 455.81 166.839 455.488 166.604C455.194 166.34 455.048 165.988 455.048 165.548C455.048 165.46 455.077 165.269 455.136 164.976C455.781 162.424 456.324 158.039 456.764 151.82ZM486.765 150.632C486.765 150.749 486.78 150.881 486.809 151.028C486.839 151.145 486.868 151.263 486.897 151.38C487.132 151.409 487.484 151.424 487.953 151.424C490.007 151.424 492.119 150.984 494.289 150.104C494.905 149.869 495.419 149.752 495.829 149.752C496.651 149.752 497.325 150.133 497.853 150.896C498.117 151.307 498.249 151.659 498.249 151.952C498.249 152.304 498.059 152.671 497.677 153.052C496.504 154.137 495.257 154.753 493.937 154.9C492.764 155.047 491.004 155.296 488.657 155.648L485.577 156.088C485.108 157.115 484.873 158.112 484.873 159.08C484.873 160.488 485.357 161.661 486.325 162.6C487.323 163.509 488.672 163.993 490.373 164.052C492.104 164.081 494.319 163.964 497.017 163.7L497.677 163.656C498.411 163.656 499.012 163.832 499.481 164.184C499.98 164.507 500.449 165.093 500.889 165.944C500.567 166.648 500.112 167.117 499.525 167.352C498.939 167.616 498.176 167.807 497.237 167.924C496.269 168.041 495.169 168.1 493.937 168.1C491.268 168.1 488.863 167.675 486.721 166.824C482.937 165.357 480.517 162.82 479.461 159.212C479.315 158.713 479.241 158.185 479.241 157.628C479.241 157.041 479.241 156.689 479.241 156.572C479.241 155.575 478.757 154.841 477.789 154.372C476.997 153.932 476.381 153.507 475.941 153.096C475.531 152.685 475.267 152.069 475.149 151.248L480.121 150.94L482.365 144.472C482.424 144.267 482.483 144.017 482.541 143.724C482.629 143.401 482.717 143.152 482.805 142.976C483.069 142.389 483.201 141.905 483.201 141.524C483.201 140.937 482.923 140.424 482.365 139.984C482.16 139.837 481.984 139.573 481.837 139.192C481.72 138.781 481.603 138.459 481.485 138.224L482.453 137.916C482.923 137.799 483.26 137.696 483.465 137.608C483.583 137.549 483.832 137.447 484.213 137.3C484.595 137.124 484.815 136.933 484.873 136.728C485.079 136.229 485.328 135.892 485.621 135.716C485.944 135.54 486.325 135.452 486.765 135.452C487.059 135.452 487.499 135.481 488.085 135.54C488.261 135.54 488.437 135.584 488.613 135.672C488.819 135.731 488.98 135.819 489.097 135.936C489.772 136.64 490.52 137.109 491.341 137.344C492.163 137.579 493.131 137.696 494.245 137.696H496.137H499.833C502.327 137.696 504.189 137.725 505.421 137.784C506.067 137.813 506.888 138.092 507.885 138.62C508.061 138.708 508.193 138.884 508.281 139.148C508.399 139.383 508.457 139.617 508.457 139.852C508.457 139.969 508.355 140.116 508.149 140.292C507.944 140.439 507.753 140.541 507.577 140.6C505.583 141.128 504.072 141.436 503.045 141.524C501.461 141.671 499.085 141.861 495.917 142.096C495.184 142.125 494.011 142.199 492.397 142.316C492.28 142.316 492.075 142.287 491.781 142.228C491.488 142.14 491.268 142.096 491.121 142.096C490.036 142.096 489.347 142.551 489.053 143.46C488.261 145.807 487.513 148.139 486.809 150.456L486.765 150.632ZM532.755 138.576C534.603 140.424 536.026 142.287 537.023 144.164C538.05 146.012 538.563 147.963 538.563 150.016C538.563 152.157 538.006 154.387 536.891 156.704C535.542 159.549 533.342 162.072 530.291 164.272C527.71 166.179 524.879 167.66 521.799 168.716C518.749 169.772 515.346 170.593 511.591 171.18C511.445 171.209 511.239 171.224 510.975 171.224C509.919 171.224 509.01 170.857 508.247 170.124C507.485 169.42 506.898 168.423 506.487 167.132C510.33 166.575 513.835 165.783 517.003 164.756C520.201 163.729 523.178 162.321 525.935 160.532C530.511 157.628 533.386 153.463 534.559 148.036C534.647 147.655 534.691 147.273 534.691 146.892C534.691 145.807 534.31 144.765 533.547 143.768C532.785 142.683 531.875 141.861 530.819 141.304C529.763 140.747 528.37 140.189 526.639 139.632C525.525 139.28 524.381 139.104 523.207 139.104C522.063 139.104 520.89 139.251 519.687 139.544C519.365 139.661 519.013 139.72 518.631 139.72C517.546 139.72 516.578 139.207 515.727 138.18C515.317 137.623 515.111 137.095 515.111 136.596C515.111 136.185 515.214 135.833 515.419 135.54C515.654 135.217 516.006 134.953 516.475 134.748C518.177 134.044 519.658 133.692 520.919 133.692C521.418 133.692 522.005 133.765 522.679 133.912C524.909 134.411 526.83 135.012 528.443 135.716C530.086 136.391 531.523 137.344 532.755 138.576ZM516.607 162.468C515.522 162.204 514.789 161.881 514.407 161.5C514.055 161.089 513.865 160.429 513.835 159.52C513.835 158.435 513.909 157.525 514.055 156.792C514.701 153.272 515.625 148.403 516.827 142.184C518.089 142.36 519.071 142.829 519.775 143.592C520.509 144.355 520.875 145.293 520.875 146.408C520.875 146.848 520.817 147.288 520.699 147.728C520.201 149.576 519.761 151.409 519.379 153.228L518.675 156.484L518.411 157.76C518.177 158.904 517.942 159.813 517.707 160.488C517.473 161.163 517.106 161.823 516.607 162.468ZM125.803 189.968C125.979 189.293 126.243 188.017 126.595 186.14L126.771 185.216L125.715 184.952C124.717 184.688 123.852 184.409 123.119 184.116C122.913 183.999 122.723 183.793 122.547 183.5C122.371 183.207 122.297 182.957 122.327 182.752C122.327 182.576 122.444 182.385 122.679 182.18C122.943 181.945 123.192 181.799 123.427 181.74L124.395 181.52C126.037 181.109 127.269 180.904 128.091 180.904C128.384 180.904 128.604 180.919 128.751 180.948C129.748 181.007 130.863 181.696 132.095 183.016C132.241 183.163 132.315 183.427 132.315 183.808C132.315 184.248 132.227 184.791 132.051 185.436C131.581 187.02 130.848 189.396 129.851 192.564L127.607 199.692C127.431 200.308 127.108 201.716 126.639 203.916L126.287 205.5C126.785 205.5 127.475 205.471 128.355 205.412C129.469 205.353 130.291 205.324 130.819 205.324L131.479 205.28C131.919 205.28 132.256 205.353 132.491 205.5C132.725 205.617 132.916 205.808 133.063 206.072C133.239 206.307 133.341 206.541 133.371 206.776V206.82C133.371 207.025 133.297 207.26 133.151 207.524C133.004 207.759 132.843 207.891 132.667 207.92C132.197 208.067 131.772 208.213 131.391 208.36C127.313 209.739 124.16 210.707 121.931 211.264C121.637 211.352 121.344 211.396 121.051 211.396C120.112 211.396 119.261 211.059 118.499 210.384C117.765 209.68 117.296 208.829 117.091 207.832C117.355 207.509 117.633 207.319 117.927 207.26C118.249 207.172 118.733 207.128 119.379 207.128C120.2 207.128 120.757 206.981 121.051 206.688C121.344 206.395 121.623 205.779 121.887 204.84L123.867 197.404C124.629 194.529 125.275 192.051 125.803 189.968ZM142.159 189.308C142.041 188.252 142.188 187.299 142.599 186.448C143.039 185.568 143.655 184.717 144.447 183.896L147.131 183.676C147.541 183.617 147.791 183.588 147.879 183.588C148.319 183.588 148.876 184.131 149.551 185.216C149.609 185.392 149.668 185.612 149.727 185.876C149.785 186.111 149.873 186.301 149.991 186.448L155.095 193.532C155.857 194.5 156.605 195.512 157.339 196.568L158.087 194.148C159.025 191.068 159.876 188.575 160.639 186.668C161.431 184.732 162.457 182.899 163.719 181.168L165.831 181.476C166.388 181.916 166.579 182.503 166.403 183.236C166.139 184.292 165.86 185.084 165.567 185.612C164.863 187.401 164.276 189.22 163.807 191.068C163.337 192.887 162.809 195.189 162.223 197.976C162.135 198.357 162.017 198.929 161.871 199.692C161.636 200.865 161.181 201.745 160.507 202.332C159.832 202.889 158.908 203.197 157.735 203.256C156.561 203.315 155.549 202.831 154.699 201.804C153.819 200.748 152.719 199.325 151.399 197.536L150.519 196.348C149.727 195.292 148.524 193.737 146.911 191.684L146.515 193.576C146.075 195.688 145.811 197.345 145.723 198.548L145.459 203.872C145.429 204.459 145.4 205.207 145.371 206.116C145.341 206.996 145.283 208.037 145.195 209.24C145.165 210.12 144.857 210.883 144.271 211.528C143.713 212.173 143.009 212.613 142.159 212.848C141.719 212.965 141.176 212.848 140.531 212.496C139.915 212.173 139.548 211.792 139.431 211.352C139.225 210.589 139.123 209.915 139.123 209.328C139.123 208.8 139.196 208.331 139.343 207.92C139.607 207.216 139.783 206.101 139.871 204.576C139.929 203.637 140.003 202.933 140.091 202.464C140.472 199.765 141.059 196.04 141.851 191.288C141.88 191.053 141.939 190.745 142.027 190.364C142.144 189.953 142.188 189.601 142.159 189.308ZM203.488 200.22C203.517 199.927 203.532 199.472 203.532 198.856C203.561 198.651 203.576 198.313 203.576 197.844L202.564 198.812C201.713 199.604 201.053 200.191 200.584 200.572C199.909 201.071 199.322 201.305 198.824 201.276C197.68 201.188 196.697 200.953 195.876 200.572C195.084 200.161 194.482 199.472 194.072 198.504L192.224 194.016C192.194 194.045 192.106 194.148 191.96 194.324C191.842 194.471 191.754 194.632 191.696 194.808C190.405 197.888 189.085 201.173 187.736 204.664C186.973 206.629 186.313 208.58 185.756 210.516C185.609 211.015 185.36 211.367 185.008 211.572C184.685 211.777 184.26 211.88 183.732 211.88C182.881 211.88 182.074 211.572 181.312 210.956C180.578 210.34 180.212 209.592 180.212 208.712C180.212 208.389 180.285 208.037 180.432 207.656C181.077 205.955 181.546 204.679 181.84 203.828C183.336 199.809 184.612 196.583 185.668 194.148C186.753 191.684 188.088 189.308 189.672 187.02C190.288 186.111 190.684 185.568 190.86 185.392C191.388 184.747 192.048 184.424 192.84 184.424C193.016 184.424 193.25 184.453 193.544 184.512C194.746 184.747 195.553 184.967 195.964 185.172C196.404 185.348 196.697 185.656 196.844 186.096C197.02 186.507 197.21 187.313 197.416 188.516L198.208 194.104C198.824 193.752 199.513 193.18 200.276 192.388C201.068 191.567 201.816 190.657 202.52 189.66C202.432 189.777 202.886 189.191 203.884 187.9C204.206 187.519 204.661 186.947 205.248 186.184C205.746 185.48 206.406 185.128 207.228 185.128C207.521 185.128 207.814 185.172 208.108 185.26C209.164 185.495 209.926 185.847 210.396 186.316C210.865 186.785 211.1 187.46 211.1 188.34C211.1 188.868 211.041 189.411 210.924 189.968L210 194.544C208.885 200.235 208.269 203.432 208.152 204.136L206.744 212.32C206.538 213.728 206.201 215.811 205.732 218.568C205.702 218.891 205.6 219.345 205.424 219.932C205.336 220.196 205.204 220.651 205.028 221.296C204.852 221.941 204.734 222.513 204.676 223.012C204.617 223.511 204.47 223.877 204.236 224.112C204.001 224.376 203.649 224.523 203.18 224.552C202.622 224.581 202.168 224.449 201.816 224.156C201.464 223.892 201.273 223.496 201.244 222.968L201.2 220.064C201.2 219.096 201.244 218.128 201.332 217.16C201.713 213.757 202.153 210.311 202.652 206.82L203.488 200.22ZM227.105 194.632C227.105 194.749 227.12 194.881 227.149 195.028C227.178 195.145 227.208 195.263 227.237 195.38C227.472 195.409 227.824 195.424 228.293 195.424C230.346 195.424 232.458 194.984 234.629 194.104C235.245 193.869 235.758 193.752 236.169 193.752C236.99 193.752 237.665 194.133 238.193 194.896C238.457 195.307 238.589 195.659 238.589 195.952C238.589 196.304 238.398 196.671 238.017 197.052C236.844 198.137 235.597 198.753 234.277 198.9C233.104 199.047 231.344 199.296 228.997 199.648L225.917 200.088C225.448 201.115 225.213 202.112 225.213 203.08C225.213 204.488 225.697 205.661 226.665 206.6C227.662 207.509 229.012 207.993 230.713 208.052C232.444 208.081 234.658 207.964 237.357 207.7L238.017 207.656C238.75 207.656 239.352 207.832 239.821 208.184C240.32 208.507 240.789 209.093 241.229 209.944C240.906 210.648 240.452 211.117 239.865 211.352C239.278 211.616 238.516 211.807 237.577 211.924C236.609 212.041 235.509 212.1 234.277 212.1C231.608 212.1 229.202 211.675 227.061 210.824C223.277 209.357 220.857 206.82 219.801 203.212C219.654 202.713 219.581 202.185 219.581 201.628C219.581 201.041 219.581 200.689 219.581 200.572C219.581 199.575 219.097 198.841 218.129 198.372C217.337 197.932 216.721 197.507 216.281 197.096C215.87 196.685 215.606 196.069 215.489 195.248L220.461 194.94L222.705 188.472C222.764 188.267 222.822 188.017 222.881 187.724C222.969 187.401 223.057 187.152 223.145 186.976C223.409 186.389 223.541 185.905 223.541 185.524C223.541 184.937 223.262 184.424 222.705 183.984C222.5 183.837 222.324 183.573 222.177 183.192C222.06 182.781 221.942 182.459 221.825 182.224L222.793 181.916C223.262 181.799 223.6 181.696 223.805 181.608C223.922 181.549 224.172 181.447 224.553 181.3C224.934 181.124 225.154 180.933 225.213 180.728C225.418 180.229 225.668 179.892 225.961 179.716C226.284 179.54 226.665 179.452 227.105 179.452C227.398 179.452 227.838 179.481 228.425 179.54C228.601 179.54 228.777 179.584 228.953 179.672C229.158 179.731 229.32 179.819 229.437 179.936C230.112 180.64 230.86 181.109 231.681 181.344C232.502 181.579 233.47 181.696 234.585 181.696H236.477H240.173C242.666 181.696 244.529 181.725 245.761 181.784C246.406 181.813 247.228 182.092 248.225 182.62C248.401 182.708 248.533 182.884 248.621 183.148C248.738 183.383 248.797 183.617 248.797 183.852C248.797 183.969 248.694 184.116 248.489 184.292C248.284 184.439 248.093 184.541 247.917 184.6C245.922 185.128 244.412 185.436 243.385 185.524C241.801 185.671 239.425 185.861 236.257 186.096C235.524 186.125 234.35 186.199 232.737 186.316C232.62 186.316 232.414 186.287 232.121 186.228C231.828 186.14 231.608 186.096 231.461 186.096C230.376 186.096 229.686 186.551 229.393 187.46C228.601 189.807 227.853 192.139 227.149 194.456L227.105 194.632ZM254.307 189.308C254.19 188.252 254.336 187.299 254.747 186.448C255.187 185.568 255.803 184.717 256.595 183.896L259.279 183.676C259.69 183.617 259.939 183.588 260.027 183.588C260.467 183.588 261.024 184.131 261.699 185.216C261.758 185.392 261.816 185.612 261.875 185.876C261.934 186.111 262.022 186.301 262.139 186.448L267.243 193.532C268.006 194.5 268.754 195.512 269.487 196.568L270.235 194.148C271.174 191.068 272.024 188.575 272.787 186.668C273.579 184.732 274.606 182.899 275.867 181.168L277.979 181.476C278.536 181.916 278.727 182.503 278.551 183.236C278.287 184.292 278.008 185.084 277.715 185.612C277.011 187.401 276.424 189.22 275.955 191.068C275.486 192.887 274.958 195.189 274.371 197.976C274.283 198.357 274.166 198.929 274.019 199.692C273.784 200.865 273.33 201.745 272.655 202.332C271.98 202.889 271.056 203.197 269.883 203.256C268.71 203.315 267.698 202.831 266.847 201.804C265.967 200.748 264.867 199.325 263.547 197.536L262.667 196.348C261.875 195.292 260.672 193.737 259.059 191.684L258.663 193.576C258.223 195.688 257.959 197.345 257.871 198.548L257.607 203.872C257.578 204.459 257.548 205.207 257.519 206.116C257.49 206.996 257.431 208.037 257.343 209.24C257.314 210.12 257.006 210.883 256.419 211.528C255.862 212.173 255.158 212.613 254.307 212.848C253.867 212.965 253.324 212.848 252.679 212.496C252.063 212.173 251.696 211.792 251.579 211.352C251.374 210.589 251.271 209.915 251.271 209.328C251.271 208.8 251.344 208.331 251.491 207.92C251.755 207.216 251.931 206.101 252.019 204.576C252.078 203.637 252.151 202.933 252.239 202.464C252.62 199.765 253.207 196.04 253.999 191.288C254.028 191.053 254.087 190.745 254.175 190.364C254.292 189.953 254.336 189.601 254.307 189.308ZM286.156 211.836C285.863 212.833 285.584 213.523 285.32 213.904C285.056 214.315 284.719 214.52 284.308 214.52C283.721 214.52 282.739 214.08 281.36 213.2L281.58 211.44C281.785 209.856 281.976 208.668 282.152 207.876C282.651 205.911 283.267 203.711 284 201.276L285.452 196.172C285.863 194.676 286.215 193.107 286.508 191.464C286.684 190.584 286.977 189.264 287.388 187.504L289.456 178.528C289.925 176.475 290.248 175.125 290.424 174.48C290.747 174.48 291.04 174.465 291.304 174.436C291.568 174.407 291.832 174.392 292.096 174.392C292.419 174.392 292.741 174.436 293.064 174.524C293.973 174.729 294.633 175.008 295.044 175.36C295.484 175.683 295.704 176.167 295.704 176.812C295.704 177.135 295.631 177.589 295.484 178.176L294.252 182.356C293.489 184.937 292.844 187.123 292.316 188.912C291.964 190.32 291.421 192.461 290.688 195.336L289.016 201.76C288.987 201.907 288.943 202.083 288.884 202.288C288.825 202.464 288.767 202.655 288.708 202.86C288.503 203.593 288.136 204.899 287.608 206.776C287.08 208.653 286.596 210.34 286.156 211.836ZM307.825 195.028C307.825 195.028 307.986 195.512 308.309 196.48L308.881 198.152L311.301 193.312C312.005 191.787 312.709 190.481 313.413 189.396C314.117 188.311 315.056 187.079 316.229 185.7C316.581 185.289 316.977 184.981 317.417 184.776C317.886 184.541 318.356 184.424 318.825 184.424C319.47 184.424 320.072 184.615 320.629 184.996C321.216 185.377 321.656 185.92 321.949 186.624C322.037 186.859 322.184 187.181 322.389 187.592C322.741 188.384 322.99 189.044 323.137 189.572C323.284 190.071 323.372 190.716 323.401 191.508C323.43 192.681 323.548 194.192 323.753 196.04L323.973 198.592C324.589 198.064 325.073 197.536 325.425 197.008C325.777 196.451 326.056 195.849 326.261 195.204C326.672 194.119 327.126 192.784 327.625 191.2L328.945 187.24C329.414 185.891 330.001 184.805 330.705 183.984C331.438 183.163 332.421 182.635 333.653 182.4C333.888 182.341 334.152 182.312 334.445 182.312C334.68 182.312 334.841 182.356 334.929 182.444C335.017 182.532 335.105 182.693 335.193 182.928C335.281 183.133 335.398 183.368 335.545 183.632C335.868 184.189 336.029 184.688 336.029 185.128C336.029 185.744 335.706 186.375 335.061 187.02C334.093 187.959 333.345 188.985 332.817 190.1C332.318 191.215 331.746 192.711 331.101 194.588C330.837 195.38 330.412 196.773 329.825 198.768C329.033 201.643 328.373 203.725 327.845 205.016C327.522 205.808 327.229 206.365 326.965 206.688C326.73 206.981 326.437 207.128 326.085 207.128C325.704 207.128 325.058 206.879 324.149 206.38C322.653 205.559 321.465 204.239 320.585 202.42C319.705 200.572 319.177 198.651 319.001 196.656L318.957 195.688C318.84 194.104 318.722 192.725 318.605 191.552C317.989 192.256 317.432 193.048 316.933 193.928C316.464 194.808 315.906 195.893 315.261 197.184C314.733 198.299 314.396 198.988 314.249 199.252C313.75 200.103 313.09 201.628 312.269 203.828C311.477 205.881 310.934 207.172 310.641 207.7C310.172 207.788 309.732 207.832 309.321 207.832C308.441 207.832 307.737 207.568 307.209 207.04C306.681 206.512 306.241 205.661 305.889 204.488C305.214 202.288 304.54 199.897 303.865 197.316C303.22 194.735 302.736 192.432 302.413 190.408C302.325 189.821 302.164 189.191 301.929 188.516C301.694 187.841 301.548 187.416 301.489 187.24L301.049 185.964C300.785 185.201 300.653 184.644 300.653 184.292C300.653 183.969 300.756 183.676 300.961 183.412C301.196 183.148 301.577 182.825 302.105 182.444C304.158 183.031 305.434 184.409 305.933 186.58C306.168 187.519 306.49 188.927 306.901 190.804L307.825 195.028ZM341.492 188.868C342.636 186.961 344.411 185.289 346.816 183.852C348.723 182.708 350.938 182.136 353.46 182.136C355.25 182.136 356.98 182.444 358.652 183.06C360.324 183.647 361.703 184.483 362.788 185.568C363.17 185.949 363.58 186.316 364.02 186.668C364.695 187.255 365.091 187.621 365.208 187.768C366.675 189.323 367.408 191.039 367.408 192.916C367.408 194.383 366.939 195.879 366 197.404C364.768 199.428 363.492 201.203 362.172 202.728C360.852 204.253 359.371 205.559 357.728 206.644C354.942 208.492 352.272 209.416 349.72 209.416C348.958 209.416 348.195 209.328 347.432 209.152C344.88 208.595 342.812 207.407 341.228 205.588C339.644 203.74 338.852 201.643 338.852 199.296C338.852 197.507 339.351 195.717 340.348 193.928C340.407 193.781 340.524 193.635 340.7 193.488C340.906 193.341 341.067 193.224 341.184 193.136L342.196 193.62L343.164 194.104C344.074 194.603 344.66 195.013 344.924 195.336C345.218 195.659 345.364 196.113 345.364 196.7C345.364 197.111 345.32 197.668 345.232 198.372C345.203 198.636 345.188 199.017 345.188 199.516C345.188 200.601 345.32 201.907 345.584 203.432C345.643 203.872 345.819 204.209 346.112 204.444C346.435 204.679 346.831 204.796 347.3 204.796C347.535 204.796 347.726 204.781 347.872 204.752C349.251 204.488 350.424 204.18 351.392 203.828C352.39 203.476 353.284 202.948 354.076 202.244C355.543 200.983 356.819 199.765 357.904 198.592C358.99 197.419 359.943 196.157 360.764 194.808C361.322 193.869 361.6 192.96 361.6 192.08C361.6 191.347 361.439 190.628 361.116 189.924C360.794 189.22 360.324 188.428 359.708 187.548C358.682 186.14 357.347 185.436 355.704 185.436C355.118 185.436 354.516 185.524 353.9 185.7C353.695 185.759 352.756 186.067 351.084 186.624C350.908 186.683 350.718 186.741 350.512 186.8C350.336 186.859 350.146 186.917 349.94 186.976L344.924 188.428C344.279 188.633 343.282 188.912 341.932 189.264L341.492 188.868ZM394.183 200.22C394.212 199.927 394.227 199.472 394.227 198.856C394.256 198.651 394.271 198.313 394.271 197.844L393.259 198.812C392.408 199.604 391.748 200.191 391.279 200.572C390.604 201.071 390.018 201.305 389.519 201.276C388.375 201.188 387.392 200.953 386.571 200.572C385.779 200.161 385.178 199.472 384.767 198.504L382.919 194.016C382.89 194.045 382.802 194.148 382.655 194.324C382.538 194.471 382.45 194.632 382.391 194.808C381.1 197.888 379.78 201.173 378.431 204.664C377.668 206.629 377.008 208.58 376.451 210.516C376.304 211.015 376.055 211.367 375.703 211.572C375.38 211.777 374.955 211.88 374.427 211.88C373.576 211.88 372.77 211.572 372.007 210.956C371.274 210.34 370.907 209.592 370.907 208.712C370.907 208.389 370.98 208.037 371.127 207.656C371.772 205.955 372.242 204.679 372.535 203.828C374.031 199.809 375.307 196.583 376.363 194.148C377.448 191.684 378.783 189.308 380.367 187.02C380.983 186.111 381.379 185.568 381.555 185.392C382.083 184.747 382.743 184.424 383.535 184.424C383.711 184.424 383.946 184.453 384.239 184.512C385.442 184.747 386.248 184.967 386.659 185.172C387.099 185.348 387.392 185.656 387.539 186.096C387.715 186.507 387.906 187.313 388.111 188.516L388.903 194.104C389.519 193.752 390.208 193.18 390.971 192.388C391.763 191.567 392.511 190.657 393.215 189.66C393.127 189.777 393.582 189.191 394.579 187.9C394.902 187.519 395.356 186.947 395.943 186.184C396.442 185.48 397.102 185.128 397.923 185.128C398.216 185.128 398.51 185.172 398.803 185.26C399.859 185.495 400.622 185.847 401.091 186.316C401.56 186.785 401.795 187.46 401.795 188.34C401.795 188.868 401.736 189.411 401.619 189.968L400.695 194.544C399.58 200.235 398.964 203.432 398.847 204.136L397.439 212.32C397.234 213.728 396.896 215.811 396.427 218.568C396.398 218.891 396.295 219.345 396.119 219.932C396.031 220.196 395.899 220.651 395.723 221.296C395.547 221.941 395.43 222.513 395.371 223.012C395.312 223.511 395.166 223.877 394.931 224.112C394.696 224.376 394.344 224.523 393.875 224.552C393.318 224.581 392.863 224.449 392.511 224.156C392.159 223.892 391.968 223.496 391.939 222.968L391.895 220.064C391.895 219.096 391.939 218.128 392.027 217.16C392.408 213.757 392.848 210.311 393.347 206.82L394.183 200.22ZM415.688 194.192L417.272 193.972C418.416 193.796 419.194 193.693 419.604 193.664L420.66 193.576C421.012 193.547 421.452 193.517 421.98 193.488C422.508 193.459 423.11 193.444 423.784 193.444C424.43 193.444 424.899 193.459 425.192 193.488C426.219 193.576 426.967 193.913 427.436 194.5C427.935 195.087 428.228 195.967 428.316 197.14C428.199 197.14 428.023 197.125 427.788 197.096C427.554 197.067 427.363 197.037 427.216 197.008C426.395 196.861 425.647 196.788 424.972 196.788C424.18 196.788 423.418 196.891 422.684 197.096C420.807 197.683 418.402 198.299 415.468 198.944C414.911 199.091 414.471 199.325 414.148 199.648C413.855 199.941 413.664 200.367 413.576 200.924C413.4 202.039 413.18 203.153 412.916 204.268C412.711 205.295 412.55 206.145 412.432 206.82C412.403 207.055 412.388 207.363 412.388 207.744C412.388 208.096 412.388 208.345 412.388 208.492C412.858 208.58 413.342 208.624 413.84 208.624C414.808 208.624 415.996 208.433 417.404 208.052C419.986 207.436 422.582 206.776 425.192 206.072L430.032 204.84C431.558 204.459 432.76 204.121 433.64 203.828C435.547 203.3 436.926 202.933 437.776 202.728C438.128 202.669 438.392 202.64 438.568 202.64C439.302 202.64 439.786 202.933 440.02 203.52C440.108 203.725 440.152 203.931 440.152 204.136C440.152 204.488 440.035 204.825 439.8 205.148C439.566 205.471 439.243 205.735 438.832 205.94C438.275 206.175 437.512 206.424 436.544 206.688C433.728 207.509 431.235 208.287 429.064 209.02C424.84 210.369 421.702 211.323 419.648 211.88C418.827 212.115 417.595 212.32 415.952 212.496L414.324 212.716C413.327 212.833 412.432 212.496 411.64 211.704L410.848 210.912C409.88 210.003 409.132 209.211 408.604 208.536C408.223 208.037 408.062 207.348 408.12 206.468C408.208 205.441 408.399 203.872 408.692 201.76L408.868 200.352L409 199.032C408.12 198.768 407.431 198.445 406.932 198.064C406.463 197.653 406.214 197.008 406.184 196.128C407.123 196.011 407.827 195.952 408.296 195.952C408.824 195.923 409.25 195.791 409.572 195.556C409.895 195.321 410.144 194.94 410.32 194.412C410.643 193.356 411.186 191.801 411.948 189.748C412.183 188.985 412.476 188.135 412.828 187.196C412.975 186.727 413.078 186.14 413.136 185.436C413.136 184.908 413.254 184.497 413.488 184.204C413.752 183.881 414.163 183.632 414.72 183.456C417.39 182.635 420.866 182.004 425.148 181.564C426.556 181.417 427.95 181.373 429.328 181.432C431.264 181.432 432.702 182.165 433.64 183.632C433.904 183.984 434.036 184.453 434.036 185.04C434.036 185.304 434.007 185.495 433.948 185.612C433.772 186.023 433.508 186.375 433.156 186.668C432.834 186.932 432.423 187.064 431.924 187.064L430.208 187.108C429.387 187.167 428.786 187.196 428.404 187.196C427.583 187.196 427.026 187.049 426.732 186.756C426.322 186.345 425.808 186.14 425.192 186.14C425.016 186.14 424.723 186.169 424.312 186.228L419.956 187.24L418.196 187.68L415.688 194.192ZM445.432 189.308C445.315 188.252 445.461 187.299 445.872 186.448C446.312 185.568 446.928 184.717 447.72 183.896L450.404 183.676C450.815 183.617 451.064 183.588 451.152 183.588C451.592 183.588 452.149 184.131 452.824 185.216C452.883 185.392 452.941 185.612 453 185.876C453.059 186.111 453.147 186.301 453.264 186.448L458.368 193.532C459.131 194.5 459.879 195.512 460.612 196.568L461.36 194.148C462.299 191.068 463.149 188.575 463.912 186.668C464.704 184.732 465.731 182.899 466.992 181.168L469.104 181.476C469.661 181.916 469.852 182.503 469.676 183.236C469.412 184.292 469.133 185.084 468.84 185.612C468.136 187.401 467.549 189.22 467.08 191.068C466.611 192.887 466.083 195.189 465.496 197.976C465.408 198.357 465.291 198.929 465.144 199.692C464.909 200.865 464.455 201.745 463.78 202.332C463.105 202.889 462.181 203.197 461.008 203.256C459.835 203.315 458.823 202.831 457.972 201.804C457.092 200.748 455.992 199.325 454.672 197.536L453.792 196.348C453 195.292 451.797 193.737 450.184 191.684L449.788 193.576C449.348 195.688 449.084 197.345 448.996 198.548L448.732 203.872C448.703 204.459 448.673 205.207 448.644 206.116C448.615 206.996 448.556 208.037 448.468 209.24C448.439 210.12 448.131 210.883 447.544 211.528C446.987 212.173 446.283 212.613 445.432 212.848C444.992 212.965 444.449 212.848 443.804 212.496C443.188 212.173 442.821 211.792 442.704 211.352C442.499 210.589 442.396 209.915 442.396 209.328C442.396 208.8 442.469 208.331 442.616 207.92C442.88 207.216 443.056 206.101 443.144 204.576C443.203 203.637 443.276 202.933 443.364 202.464C443.745 199.765 444.332 196.04 445.124 191.288C445.153 191.053 445.212 190.745 445.3 190.364C445.417 189.953 445.461 189.601 445.432 189.308ZM482.649 187.68C482.385 189.44 482.18 190.672 482.033 191.376C481.652 193.107 480.948 195.952 479.921 199.912C479.452 201.555 479.026 202.743 478.645 203.476C478.234 204.356 477.648 205.148 476.885 205.852C476.68 206.057 476.386 206.16 476.005 206.16C475.829 206.16 475.653 206.101 475.477 205.984C475.301 205.808 475.14 205.544 474.993 205.192C474.876 204.811 474.817 204.473 474.817 204.18C474.905 203.183 475.096 202.053 475.389 200.792C476.885 194.573 477.75 188.795 477.985 183.456L478.029 182.796C478.088 181.652 478.249 180.831 478.513 180.332C478.806 179.804 479.261 179.54 479.877 179.54C480.376 179.54 480.904 179.892 481.461 180.596C482.048 181.3 482.385 182.019 482.473 182.752L482.913 186.096L482.649 187.68ZM474.509 212.232C473.834 211.939 473.321 211.543 472.969 211.044C472.646 210.575 472.485 209.973 472.485 209.24C472.485 208.653 472.558 208.111 472.705 207.612C472.969 207.671 473.38 207.759 473.937 207.876C474.494 207.993 474.964 208.111 475.345 208.228C475.844 208.375 476.284 208.609 476.665 208.932C477.222 209.401 477.501 209.944 477.501 210.56C477.501 210.941 477.384 211.293 477.149 211.616C476.738 212.203 476.21 212.496 475.565 212.496C475.213 212.496 474.861 212.408 474.509 212.232Z" fill="white"></path><path d="M74.4954 263V247.16H77.1464V263H74.4954ZM84.8457 263V247.16H87.4967V253.826H94.9987V247.16H97.6387V263H94.9987V256.312H87.4967V263H84.8457ZM99.6226 263L104.617 247.16H108.5L113.494 263H110.766L106.234 248.788H106.828L102.351 263H99.6226ZM102.406 259.568V257.093H110.722V259.568H102.406ZM117.5 263L112.506 247.16H115.234L119.414 260.426L123.649 247.16H126.377L121.383 263H117.5ZM128.029 263V247.16H138.259V249.646H130.68V253.551H136.939V256.037H130.68V260.514H138.259V263H128.029ZM145.303 263V247.16H151.584C152.654 247.16 153.531 247.376 154.213 247.809C154.902 248.234 155.412 248.781 155.742 249.448C156.079 250.115 156.248 250.805 156.248 251.516C156.248 252.389 156.039 253.129 155.621 253.738C155.21 254.347 154.649 254.757 153.938 254.97V254.42C154.935 254.647 155.69 255.12 156.204 255.839C156.724 256.558 156.985 257.375 156.985 258.292C156.985 259.231 156.805 260.052 156.446 260.756C156.086 261.46 155.551 262.01 154.84 262.406C154.136 262.802 153.263 263 152.222 263H145.303ZM147.987 260.503H151.892C152.354 260.503 152.768 260.411 153.135 260.228C153.501 260.037 153.787 259.773 153.993 259.436C154.205 259.091 154.312 258.684 154.312 258.215C154.312 257.79 154.22 257.408 154.037 257.071C153.853 256.734 153.586 256.466 153.234 256.268C152.882 256.063 152.46 255.96 151.969 255.96H147.987V260.503ZM147.987 253.485H151.551C151.932 253.485 152.273 253.412 152.574 253.265C152.874 253.118 153.113 252.902 153.289 252.616C153.465 252.33 153.553 251.978 153.553 251.56C153.553 251.01 153.377 250.552 153.025 250.185C152.673 249.818 152.181 249.635 151.551 249.635H147.987V253.485ZM159.182 263V247.16H169.412V249.646H161.833V253.551H168.092V256.037H161.833V260.514H169.412V263H159.182ZM172.051 263V247.16H182.281V249.646H174.702V253.551H180.961V256.037H174.702V260.514H182.281V263H172.051ZM184.92 263V247.16H187.604L194.952 258.325V247.16H197.636V263H194.952L187.604 251.835V263H184.92ZM208.921 263V249.646H203.795V247.16H216.698V249.646H211.572V263H208.921ZM218.457 263V247.16H225.002C225.156 247.16 225.354 247.167 225.596 247.182C225.838 247.189 226.062 247.211 226.267 247.248C227.184 247.387 227.939 247.692 228.533 248.161C229.134 248.63 229.578 249.224 229.864 249.943C230.157 250.654 230.304 251.446 230.304 252.319C230.304 253.61 229.978 254.721 229.325 255.652C228.672 256.576 227.671 257.148 226.322 257.368L225.189 257.467H221.108V263H218.457ZM227.554 263L224.43 256.554L227.125 255.96L230.557 263H227.554ZM221.108 254.992H224.892C225.039 254.992 225.204 254.985 225.387 254.97C225.57 254.955 225.739 254.926 225.893 254.882C226.333 254.772 226.678 254.578 226.927 254.299C227.184 254.02 227.363 253.705 227.466 253.353C227.576 253.001 227.631 252.656 227.631 252.319C227.631 251.982 227.576 251.637 227.466 251.285C227.363 250.926 227.184 250.607 226.927 250.328C226.678 250.049 226.333 249.855 225.893 249.745C225.739 249.701 225.57 249.675 225.387 249.668C225.204 249.653 225.039 249.646 224.892 249.646H221.108V254.992ZM231.88 263L236.874 247.16H240.757L245.751 263H243.023L238.491 248.788H239.085L234.608 263H231.88ZM234.663 259.568V257.093H242.979V259.568H234.663ZM249.757 263L244.763 247.16H247.491L251.671 260.426L255.906 247.16H258.634L253.64 263H249.757ZM260.287 263V247.16H270.517V249.646H262.938V253.551H269.197V256.037H262.938V260.514H270.517V263H260.287ZM273.376 263V247.16H276.027V260.514H283.023V263H273.376ZM285.107 263V247.16H287.758V263H285.107ZM291.053 263V247.16H293.737L301.085 258.325V247.16H303.769V263H301.085L293.737 251.835V263H291.053ZM313.378 263.33C312.351 263.33 311.387 263.15 310.485 262.791C309.59 262.424 308.802 261.889 308.12 261.185C307.445 260.481 306.917 259.619 306.536 258.6C306.154 257.573 305.964 256.4 305.964 255.08C305.964 253.349 306.286 251.872 306.932 250.647C307.577 249.415 308.461 248.473 309.583 247.82C310.705 247.16 311.97 246.83 313.378 246.83C315.328 246.83 316.872 247.285 318.009 248.194C319.153 249.096 319.926 250.365 320.33 252L317.624 252.429C317.323 251.49 316.832 250.742 316.15 250.185C315.468 249.62 314.599 249.338 313.543 249.338C312.479 249.323 311.596 249.554 310.892 250.031C310.188 250.508 309.656 251.179 309.297 252.044C308.945 252.909 308.769 253.921 308.769 255.08C308.769 256.239 308.945 257.247 309.297 258.105C309.649 258.956 310.177 259.619 310.881 260.096C311.592 260.573 312.479 260.818 313.543 260.833C314.342 260.84 315.042 260.697 315.644 260.404C316.245 260.103 316.736 259.652 317.118 259.051C317.499 258.442 317.756 257.683 317.888 256.774H315.094V254.695H320.704C320.718 254.812 320.729 254.985 320.737 255.212C320.744 255.439 320.748 255.575 320.748 255.619C320.748 257.115 320.451 258.446 319.857 259.612C319.27 260.771 318.427 261.68 317.327 262.34C316.227 263 314.91 263.33 313.378 263.33ZM326.261 263L331.255 247.16H335.138L340.132 263H337.404L332.872 248.788H333.466L328.989 263H326.261ZM329.044 259.568V257.093H337.36V259.568H329.044ZM342.121 263V247.16H348.666C348.82 247.16 349.018 247.167 349.26 247.182C349.502 247.189 349.726 247.211 349.931 247.248C350.848 247.387 351.603 247.692 352.197 248.161C352.798 248.63 353.242 249.224 353.528 249.943C353.821 250.654 353.968 251.446 353.968 252.319C353.968 253.61 353.642 254.721 352.989 255.652C352.336 256.576 351.335 257.148 349.986 257.368L348.853 257.467H344.772V263H342.121ZM351.218 263L348.094 256.554L350.789 255.96L354.221 263H351.218ZM344.772 254.992H348.556C348.703 254.992 348.868 254.985 349.051 254.97C349.234 254.955 349.403 254.926 349.557 254.882C349.997 254.772 350.342 254.578 350.591 254.299C350.848 254.02 351.027 253.705 351.13 253.353C351.24 253.001 351.295 252.656 351.295 252.319C351.295 251.982 351.24 251.637 351.13 251.285C351.027 250.926 350.848 250.607 350.591 250.328C350.342 250.049 349.997 249.855 349.557 249.745C349.403 249.701 349.234 249.675 349.051 249.668C348.868 249.653 348.703 249.646 348.556 249.646H344.772V254.992ZM363.343 263.33C361.759 263.33 360.403 262.985 359.273 262.296C358.144 261.599 357.275 260.631 356.666 259.392C356.065 258.153 355.764 256.715 355.764 255.08C355.764 253.445 356.065 252.007 356.666 250.768C357.275 249.529 358.144 248.564 359.273 247.875C360.403 247.178 361.759 246.83 363.343 246.83C364.927 246.83 366.284 247.178 367.413 247.875C368.55 248.564 369.419 249.529 370.02 250.768C370.629 252.007 370.933 253.445 370.933 255.08C370.933 256.715 370.629 258.153 370.02 259.392C369.419 260.631 368.55 261.599 367.413 262.296C366.284 262.985 364.927 263.33 363.343 263.33ZM363.343 260.833C364.407 260.84 365.29 260.606 365.994 260.129C366.706 259.652 367.237 258.981 367.589 258.116C367.949 257.251 368.128 256.239 368.128 255.08C368.128 253.921 367.949 252.917 367.589 252.066C367.237 251.208 366.706 250.541 365.994 250.064C365.29 249.587 364.407 249.342 363.343 249.327C362.28 249.32 361.396 249.554 360.692 250.031C359.988 250.508 359.457 251.179 359.097 252.044C358.745 252.909 358.569 253.921 358.569 255.08C358.569 256.239 358.745 257.247 359.097 258.105C359.449 258.956 359.977 259.619 360.681 260.096C361.393 260.573 362.28 260.818 363.343 260.833ZM379.503 263.33C378.242 263.33 377.131 263.073 376.17 262.56C375.217 262.047 374.469 261.324 373.926 260.393C373.391 259.462 373.123 258.369 373.123 257.115V247.182L375.807 247.16V257.049C375.807 257.643 375.906 258.175 376.104 258.644C376.309 259.113 376.584 259.513 376.929 259.843C377.274 260.166 377.67 260.411 378.117 260.58C378.564 260.749 379.026 260.833 379.503 260.833C379.994 260.833 380.46 260.749 380.9 260.58C381.347 260.404 381.743 260.155 382.088 259.832C382.433 259.502 382.704 259.102 382.902 258.633C383.1 258.164 383.199 257.636 383.199 257.049V247.16H385.883V257.115C385.883 258.369 385.612 259.462 385.069 260.393C384.534 261.324 383.786 262.047 382.825 262.56C381.872 263.073 380.764 263.33 379.503 263.33ZM388.957 263V247.16H391.641L398.989 258.325V247.16H401.673V263H398.989L391.641 251.835V263H388.957ZM404.748 263V247.16H409.797C409.929 247.16 410.189 247.164 410.578 247.171C410.974 247.178 411.355 247.204 411.722 247.248C412.976 247.409 414.036 247.857 414.901 248.59C415.774 249.316 416.434 250.244 416.881 251.373C417.328 252.502 417.552 253.738 417.552 255.08C417.552 256.422 417.328 257.658 416.881 258.787C416.434 259.916 415.774 260.848 414.901 261.581C414.036 262.307 412.976 262.751 411.722 262.912C411.363 262.956 410.985 262.982 410.589 262.989C410.193 262.996 409.929 263 409.797 263H404.748ZM407.443 260.503H409.797C410.017 260.503 410.296 260.496 410.633 260.481C410.978 260.466 411.282 260.433 411.546 260.382C412.294 260.243 412.903 259.909 413.372 259.381C413.841 258.853 414.186 258.211 414.406 257.456C414.633 256.701 414.747 255.909 414.747 255.08C414.747 254.222 414.633 253.415 414.406 252.66C414.179 251.905 413.827 251.27 413.35 250.757C412.881 250.244 412.279 249.917 411.546 249.778C411.282 249.719 410.978 249.686 410.633 249.679C410.296 249.664 410.017 249.657 409.797 249.657H407.443V260.503ZM428.363 263V249.646H423.237V247.16H436.14V249.646H431.014V263H428.363ZM437.898 263V247.16H440.549V253.826H448.051V247.16H450.691V263H448.051V256.312H440.549V263H437.898ZM453.775 263V247.16H464.005V249.646H456.426V253.551H462.685V256.037H456.426V260.514H464.005V263H453.775ZM474.393 263L469.762 247.16H472.545L475.702 258.6L478.848 247.182L481.631 247.16L484.788 258.6L487.934 247.16H490.717L486.097 263H483.479L480.234 251.736L477.011 263H474.393ZM498.781 263.33C497.197 263.33 495.84 262.985 494.711 262.296C493.582 261.599 492.713 260.631 492.104 259.392C491.503 258.153 491.202 256.715 491.202 255.08C491.202 253.445 491.503 252.007 492.104 250.768C492.713 249.529 493.582 248.564 494.711 247.875C495.84 247.178 497.197 246.83 498.781 246.83C500.365 246.83 501.722 247.178 502.851 247.875C503.988 248.564 504.857 249.529 505.458 250.768C506.067 252.007 506.371 253.445 506.371 255.08C506.371 256.715 506.067 258.153 505.458 259.392C504.857 260.631 503.988 261.599 502.851 262.296C501.722 262.985 500.365 263.33 498.781 263.33ZM498.781 260.833C499.844 260.84 500.728 260.606 501.432 260.129C502.143 259.652 502.675 258.981 503.027 258.116C503.386 257.251 503.566 256.239 503.566 255.08C503.566 253.921 503.386 252.917 503.027 252.066C502.675 251.208 502.143 250.541 501.432 250.064C500.728 249.587 499.844 249.342 498.781 249.327C497.718 249.32 496.834 249.554 496.13 250.031C495.426 250.508 494.894 251.179 494.535 252.044C494.183 252.909 494.007 253.921 494.007 255.08C494.007 256.239 494.183 257.247 494.535 258.105C494.887 258.956 495.415 259.619 496.119 260.096C496.83 260.573 497.718 260.818 498.781 260.833ZM508.561 263V247.16H515.106C515.26 247.16 515.458 247.167 515.7 247.182C515.942 247.189 516.165 247.211 516.371 247.248C517.287 247.387 518.043 247.692 518.637 248.161C519.238 248.63 519.682 249.224 519.968 249.943C520.261 250.654 520.408 251.446 520.408 252.319C520.408 253.61 520.081 254.721 519.429 255.652C518.776 256.576 517.775 257.148 516.426 257.368L515.293 257.467H511.212V263H508.561ZM517.658 263L514.534 256.554L517.229 255.96L520.661 263H517.658ZM511.212 254.992H514.996C515.142 254.992 515.307 254.985 515.491 254.97C515.674 254.955 515.843 254.926 515.997 254.882C516.437 254.772 516.781 254.578 517.031 254.299C517.287 254.02 517.467 253.705 517.57 253.353C517.68 253.001 517.735 252.656 517.735 252.319C517.735 251.982 517.68 251.637 517.57 251.285C517.467 250.926 517.287 250.607 517.031 250.328C516.781 250.049 516.437 249.855 515.997 249.745C515.843 249.701 515.674 249.675 515.491 249.668C515.307 249.653 515.142 249.646 514.996 249.646H511.212V254.992ZM523.304 263V247.16H525.955V260.514H532.951V263H523.304ZM534.814 263V247.16H539.863C539.995 247.16 540.256 247.164 540.644 247.171C541.04 247.178 541.422 247.204 541.788 247.248C543.042 247.409 544.102 247.857 544.967 248.59C545.84 249.316 546.5 250.244 546.947 251.373C547.395 252.502 547.618 253.738 547.618 255.08C547.618 256.422 547.395 257.658 546.947 258.787C546.5 259.916 545.84 260.848 544.967 261.581C544.102 262.307 543.042 262.751 541.788 262.912C541.429 262.956 541.051 262.982 540.655 262.989C540.259 262.996 539.995 263 539.863 263H534.814ZM537.509 260.503H539.863C540.083 260.503 540.362 260.496 540.699 260.481C541.044 260.466 541.348 260.433 541.612 260.382C542.36 260.243 542.969 259.909 543.438 259.381C543.908 258.853 544.252 258.211 544.472 257.456C544.7 256.701 544.813 255.909 544.813 255.08C544.813 254.222 544.7 253.415 544.472 252.66C544.245 251.905 543.893 251.27 543.416 250.757C542.947 250.244 542.346 249.917 541.612 249.778C541.348 249.719 541.044 249.686 540.699 249.679C540.362 249.664 540.083 249.657 539.863 249.657H537.509V260.503ZM549.563 263V260.283H552.28V263H549.563Z" fill="#FFACC0"></path></svg> 