<?xml version="1.0" encoding="UTF-8"?> <svg xmlns="http://www.w3.org/2000/svg" width="900" height="540" viewBox="0 0 900 540" fill="none"><rect width="900" height="540" rx="30" fill="url(#paint0_linear_3965_1020)"></rect><path d="M145.503 233.516H154.741V234.238H154.234C153.895 234.238 153.4 234.388 152.749 234.688C152.098 234.987 151.506 235.417 150.972 235.977C150.438 236.536 149.78 237.448 148.999 238.711L142.612 248.77V255.41C142.612 257.038 142.795 258.053 143.159 258.457C143.654 259.004 144.435 259.277 145.503 259.277H146.362V260H135.112V259.277H136.05C137.17 259.277 137.964 258.939 138.433 258.262C138.719 257.845 138.862 256.895 138.862 255.41V249.141L131.597 238.047C130.737 236.745 130.152 235.931 129.839 235.605C129.54 235.28 128.908 234.889 127.945 234.434C127.684 234.303 127.306 234.238 126.812 234.238V233.516H138.14V234.238H137.554C136.942 234.238 136.376 234.382 135.855 234.668C135.347 234.954 135.093 235.384 135.093 235.957C135.093 236.426 135.49 237.272 136.284 238.496L141.812 247.031L147.007 238.867C147.788 237.643 148.179 236.732 148.179 236.133C148.179 235.768 148.081 235.443 147.886 235.156C147.704 234.87 147.437 234.648 147.085 234.492C146.734 234.323 146.206 234.238 145.503 234.238V233.516ZM159.723 241.582C162.432 241.582 164.606 242.611 166.247 244.668C167.64 246.426 168.337 248.444 168.337 250.723C168.337 252.324 167.953 253.945 167.184 255.586C166.416 257.227 165.355 258.464 164.001 259.297C162.66 260.13 161.162 260.547 159.509 260.547C156.813 260.547 154.671 259.473 153.083 257.324C151.742 255.514 151.071 253.483 151.071 251.23C151.071 249.59 151.475 247.962 152.282 246.348C153.102 244.72 154.177 243.522 155.505 242.754C156.833 241.973 158.239 241.582 159.723 241.582ZM159.118 242.852C158.428 242.852 157.731 243.06 157.028 243.477C156.338 243.88 155.778 244.596 155.348 245.625C154.919 246.654 154.704 247.975 154.704 249.59C154.704 252.194 155.218 254.44 156.247 256.328C157.289 258.216 158.656 259.16 160.348 259.16C161.611 259.16 162.653 258.639 163.473 257.598C164.294 256.556 164.704 254.766 164.704 252.227C164.704 249.049 164.02 246.549 162.653 244.727C161.729 243.477 160.55 242.852 159.118 242.852ZM185.057 242.109V252.949C185.057 255.02 185.103 256.289 185.194 256.758C185.298 257.214 185.454 257.533 185.662 257.715C185.884 257.897 186.138 257.988 186.424 257.988C186.828 257.988 187.284 257.878 187.791 257.656L188.065 258.34L182.713 260.547H181.834V256.758C180.298 258.424 179.126 259.473 178.319 259.902C177.511 260.332 176.659 260.547 175.76 260.547C174.758 260.547 173.885 260.26 173.143 259.688C172.414 259.102 171.906 258.353 171.62 257.441C171.333 256.53 171.19 255.241 171.19 253.574V245.586C171.19 244.74 171.099 244.154 170.916 243.828C170.734 243.503 170.461 243.255 170.096 243.086C169.745 242.904 169.1 242.819 168.162 242.832V242.109H174.432V254.082C174.432 255.749 174.718 256.842 175.291 257.363C175.877 257.884 176.58 258.145 177.401 258.145C177.961 258.145 178.592 257.969 179.295 257.617C180.011 257.266 180.858 256.595 181.834 255.605V245.469C181.834 244.453 181.646 243.77 181.268 243.418C180.903 243.053 180.135 242.858 178.963 242.832V242.109H185.057ZM211.369 253.203C210.887 255.56 209.943 257.376 208.537 258.652C207.13 259.915 205.574 260.547 203.869 260.547C201.837 260.547 200.067 259.694 198.556 257.988C197.046 256.283 196.291 253.978 196.291 251.074C196.291 248.262 197.124 245.977 198.791 244.219C200.47 242.461 202.482 241.582 204.826 241.582C206.584 241.582 208.029 242.051 209.162 242.988C210.295 243.913 210.861 244.876 210.861 245.879C210.861 246.374 210.698 246.777 210.373 247.09C210.06 247.389 209.617 247.539 209.045 247.539C208.276 247.539 207.697 247.292 207.306 246.797C207.085 246.523 206.935 246.003 206.857 245.234C206.792 244.466 206.531 243.88 206.076 243.477C205.62 243.086 204.989 242.891 204.181 242.891C202.879 242.891 201.831 243.372 201.037 244.336C199.982 245.612 199.455 247.298 199.455 249.395C199.455 251.53 199.976 253.418 201.017 255.059C202.072 256.686 203.491 257.5 205.275 257.5C206.551 257.5 207.697 257.064 208.712 256.191C209.429 255.592 210.125 254.505 210.802 252.93L211.369 253.203ZM222.484 257.422C220.648 258.841 219.495 259.661 219.027 259.883C218.323 260.208 217.575 260.371 216.78 260.371C215.543 260.371 214.521 259.948 213.714 259.102C212.92 258.255 212.523 257.142 212.523 255.762C212.523 254.889 212.718 254.134 213.109 253.496C213.642 252.611 214.567 251.777 215.882 250.996C217.21 250.215 219.411 249.264 222.484 248.145V247.441C222.484 245.658 222.197 244.434 221.624 243.77C221.064 243.105 220.244 242.773 219.163 242.773C218.343 242.773 217.692 242.995 217.21 243.438C216.715 243.88 216.468 244.388 216.468 244.961L216.507 246.094C216.507 246.693 216.351 247.155 216.038 247.48C215.739 247.806 215.342 247.969 214.847 247.969C214.365 247.969 213.968 247.799 213.655 247.461C213.356 247.122 213.206 246.66 213.206 246.074C213.206 244.954 213.779 243.926 214.925 242.988C216.071 242.051 217.679 241.582 219.749 241.582C221.338 241.582 222.64 241.849 223.655 242.383C224.424 242.786 224.99 243.418 225.355 244.277C225.589 244.837 225.706 245.983 225.706 247.715V253.789C225.706 255.495 225.739 256.543 225.804 256.934C225.869 257.311 225.973 257.565 226.116 257.695C226.273 257.826 226.448 257.891 226.644 257.891C226.852 257.891 227.034 257.845 227.191 257.754C227.464 257.585 227.991 257.109 228.773 256.328V257.422C227.314 259.375 225.921 260.352 224.593 260.352C223.955 260.352 223.447 260.13 223.07 259.688C222.692 259.245 222.497 258.49 222.484 257.422ZM222.484 256.152V249.336C220.517 250.117 219.248 250.671 218.675 250.996C217.646 251.569 216.911 252.168 216.468 252.793C216.025 253.418 215.804 254.102 215.804 254.844C215.804 255.781 216.084 256.562 216.644 257.188C217.204 257.799 217.848 258.105 218.577 258.105C219.567 258.105 220.869 257.454 222.484 256.152ZM233.735 245.371C235.831 242.845 237.83 241.582 239.731 241.582C240.708 241.582 241.548 241.829 242.251 242.324C242.954 242.806 243.514 243.607 243.93 244.727C244.217 245.508 244.36 246.706 244.36 248.32V255.957C244.36 257.09 244.451 257.858 244.634 258.262C244.777 258.587 245.005 258.841 245.317 259.023C245.643 259.206 246.235 259.297 247.095 259.297V260H238.247V259.297H238.618C239.451 259.297 240.031 259.173 240.356 258.926C240.695 258.665 240.929 258.288 241.059 257.793C241.111 257.598 241.137 256.986 241.137 255.957V248.633C241.137 247.005 240.923 245.827 240.493 245.098C240.076 244.355 239.367 243.984 238.364 243.984C236.815 243.984 235.272 244.831 233.735 246.523V255.957C233.735 257.168 233.807 257.917 233.95 258.203C234.132 258.581 234.38 258.861 234.692 259.043C235.018 259.212 235.669 259.297 236.645 259.297V260H227.798V259.297H228.188C229.1 259.297 229.712 259.069 230.024 258.613C230.35 258.145 230.512 257.259 230.512 255.957V249.316C230.512 247.168 230.46 245.859 230.356 245.391C230.265 244.922 230.115 244.603 229.907 244.434C229.712 244.264 229.445 244.18 229.106 244.18C228.742 244.18 228.305 244.277 227.798 244.473L227.505 243.77L232.895 241.582H233.735V245.371ZM266.883 241.582V247.676H266.238C265.743 245.762 265.105 244.46 264.324 243.77C263.556 243.079 262.573 242.734 261.375 242.734C260.464 242.734 259.728 242.975 259.168 243.457C258.608 243.939 258.328 244.473 258.328 245.059C258.328 245.788 258.536 246.413 258.953 246.934C259.357 247.467 260.177 248.034 261.414 248.633L264.266 250.02C266.909 251.309 268.23 253.008 268.23 255.117C268.23 256.745 267.612 258.06 266.375 259.062C265.151 260.052 263.777 260.547 262.254 260.547C261.16 260.547 259.91 260.352 258.504 259.961C258.074 259.831 257.723 259.766 257.449 259.766C257.15 259.766 256.915 259.935 256.746 260.273H256.102V253.887H256.746C257.111 255.71 257.807 257.083 258.836 258.008C259.865 258.932 261.017 259.395 262.293 259.395C263.191 259.395 263.921 259.134 264.48 258.613C265.053 258.079 265.34 257.441 265.34 256.699C265.34 255.801 265.021 255.046 264.383 254.434C263.758 253.822 262.501 253.047 260.613 252.109C258.725 251.172 257.488 250.326 256.902 249.57C256.316 248.828 256.023 247.891 256.023 246.758C256.023 245.286 256.525 244.056 257.527 243.066C258.543 242.077 259.852 241.582 261.453 241.582C262.156 241.582 263.009 241.732 264.012 242.031C264.676 242.227 265.118 242.324 265.34 242.324C265.548 242.324 265.711 242.279 265.828 242.188C265.945 242.096 266.082 241.895 266.238 241.582H266.883ZM268.31 242.109H275.81V242.832C275.12 242.884 274.664 243.008 274.443 243.203C274.235 243.398 274.13 243.678 274.13 244.043C274.13 244.447 274.241 244.935 274.462 245.508L278.291 255.801L282.138 247.422L281.123 244.785C280.81 244.004 280.4 243.464 279.892 243.164C279.606 242.982 279.072 242.871 278.291 242.832V242.109H286.806V242.832C285.869 242.871 285.205 243.04 284.814 243.34C284.554 243.548 284.423 243.88 284.423 244.336C284.423 244.596 284.476 244.863 284.58 245.137L288.642 255.41L292.412 245.508C292.672 244.805 292.802 244.245 292.802 243.828C292.802 243.581 292.672 243.359 292.412 243.164C292.164 242.969 291.67 242.858 290.927 242.832V242.109H296.572V242.832C295.439 243.001 294.606 243.77 294.072 245.137L288.095 260.547H287.295L282.822 249.121L277.607 260.547H276.884L271.142 245.508C270.765 244.557 270.393 243.919 270.029 243.594C269.664 243.255 269.091 243.001 268.31 242.832V242.109ZM306.749 257.422C304.913 258.841 303.761 259.661 303.292 259.883C302.589 260.208 301.84 260.371 301.046 260.371C299.809 260.371 298.787 259.948 297.98 259.102C297.185 258.255 296.788 257.142 296.788 255.762C296.788 254.889 296.984 254.134 297.374 253.496C297.908 252.611 298.833 251.777 300.148 250.996C301.476 250.215 303.676 249.264 306.749 248.145V247.441C306.749 245.658 306.463 244.434 305.89 243.77C305.33 243.105 304.51 242.773 303.429 242.773C302.609 242.773 301.958 242.995 301.476 243.438C300.981 243.88 300.734 244.388 300.734 244.961L300.773 246.094C300.773 246.693 300.616 247.155 300.304 247.48C300.004 247.806 299.607 247.969 299.112 247.969C298.631 247.969 298.234 247.799 297.921 247.461C297.622 247.122 297.472 246.66 297.472 246.074C297.472 244.954 298.045 243.926 299.191 242.988C300.336 242.051 301.945 241.582 304.015 241.582C305.603 241.582 306.905 241.849 307.921 242.383C308.689 242.786 309.256 243.418 309.62 244.277C309.855 244.837 309.972 245.983 309.972 247.715V253.789C309.972 255.495 310.004 256.543 310.07 256.934C310.135 257.311 310.239 257.565 310.382 257.695C310.538 257.826 310.714 257.891 310.909 257.891C311.118 257.891 311.3 257.845 311.456 257.754C311.73 257.585 312.257 257.109 313.038 256.328V257.422C311.58 259.375 310.187 260.352 308.859 260.352C308.221 260.352 307.713 260.13 307.335 259.688C306.958 259.245 306.762 258.49 306.749 257.422ZM306.749 256.152V249.336C304.783 250.117 303.514 250.671 302.941 250.996C301.912 251.569 301.176 252.168 300.734 252.793C300.291 253.418 300.07 254.102 300.07 254.844C300.07 255.781 300.349 256.562 300.909 257.188C301.469 257.799 302.114 258.105 302.843 258.105C303.833 258.105 305.135 257.454 306.749 256.152ZM311.497 243.887L317.005 241.66H317.747V245.84C318.671 244.264 319.596 243.164 320.52 242.539C321.458 241.901 322.441 241.582 323.47 241.582C325.266 241.582 326.764 242.285 327.962 243.691C329.433 245.41 330.169 247.65 330.169 250.41C330.169 253.496 329.283 256.048 327.512 258.066C326.054 259.72 324.218 260.547 322.005 260.547C321.041 260.547 320.208 260.41 319.505 260.137C318.984 259.941 318.398 259.551 317.747 258.965V264.414C317.747 265.638 317.818 266.413 317.962 266.738C318.118 267.077 318.378 267.344 318.743 267.539C319.121 267.734 319.798 267.832 320.774 267.832V268.555H311.399V267.832H311.887C312.604 267.845 313.216 267.708 313.723 267.422C313.971 267.279 314.16 267.044 314.29 266.719C314.433 266.406 314.505 265.599 314.505 264.297V247.383C314.505 246.224 314.453 245.488 314.348 245.176C314.244 244.863 314.075 244.629 313.841 244.473C313.619 244.316 313.313 244.238 312.923 244.238C312.61 244.238 312.213 244.329 311.731 244.512L311.497 243.887ZM317.747 246.992V253.672C317.747 255.117 317.805 256.068 317.923 256.523C318.105 257.279 318.548 257.943 319.251 258.516C319.967 259.089 320.865 259.375 321.946 259.375C323.248 259.375 324.303 258.867 325.11 257.852C326.165 256.523 326.692 254.655 326.692 252.246C326.692 249.512 326.093 247.409 324.895 245.938C324.062 244.922 323.072 244.414 321.927 244.414C321.302 244.414 320.683 244.57 320.071 244.883C319.602 245.117 318.828 245.82 317.747 246.992ZM344.488 245.195C346.22 242.786 348.089 241.582 350.094 241.582C351.93 241.582 353.531 242.37 354.898 243.945C356.266 245.508 356.949 247.65 356.949 250.371C356.949 253.548 355.895 256.107 353.785 258.047C351.975 259.714 349.957 260.547 347.73 260.547C346.689 260.547 345.628 260.358 344.547 259.98C343.479 259.603 342.385 259.036 341.266 258.281V239.746C341.266 237.715 341.214 236.465 341.109 235.996C341.018 235.527 340.868 235.208 340.66 235.039C340.452 234.87 340.191 234.785 339.879 234.785C339.514 234.785 339.059 234.889 338.512 235.098L338.238 234.414L343.609 232.227H344.488V245.195ZM344.488 246.445V257.148C345.152 257.799 345.836 258.294 346.539 258.633C347.255 258.958 347.984 259.121 348.727 259.121C349.911 259.121 351.012 258.47 352.027 257.168C353.056 255.866 353.57 253.971 353.57 251.484C353.57 249.193 353.056 247.435 352.027 246.211C351.012 244.974 349.853 244.355 348.551 244.355C347.861 244.355 347.171 244.531 346.48 244.883C345.96 245.143 345.296 245.664 344.488 246.445ZM366.736 241.582C369.444 241.582 371.619 242.611 373.259 244.668C374.653 246.426 375.349 248.444 375.349 250.723C375.349 252.324 374.965 253.945 374.197 255.586C373.429 257.227 372.367 258.464 371.013 259.297C369.672 260.13 368.175 260.547 366.521 260.547C363.826 260.547 361.684 259.473 360.095 257.324C358.754 255.514 358.084 253.483 358.084 251.23C358.084 249.59 358.487 247.962 359.295 246.348C360.115 244.72 361.189 243.522 362.517 242.754C363.845 241.973 365.252 241.582 366.736 241.582ZM366.13 242.852C365.44 242.852 364.744 243.06 364.041 243.477C363.351 243.88 362.791 244.596 362.361 245.625C361.931 246.654 361.716 247.975 361.716 249.59C361.716 252.194 362.231 254.44 363.259 256.328C364.301 258.216 365.668 259.16 367.361 259.16C368.624 259.16 369.666 258.639 370.486 257.598C371.306 256.556 371.716 254.766 371.716 252.227C371.716 249.049 371.033 246.549 369.666 244.727C368.741 243.477 367.563 242.852 366.13 242.852ZM389.023 257.988C388.15 258.9 387.297 259.557 386.464 259.961C385.631 260.352 384.732 260.547 383.769 260.547C381.816 260.547 380.11 259.733 378.652 258.105C377.193 256.465 376.464 254.362 376.464 251.797C376.464 249.232 377.271 246.888 378.886 244.766C380.501 242.63 382.577 241.562 385.116 241.562C386.692 241.562 387.994 242.064 389.023 243.066V239.766C389.023 237.721 388.971 236.465 388.866 235.996C388.775 235.527 388.626 235.208 388.417 235.039C388.209 234.87 387.948 234.785 387.636 234.785C387.297 234.785 386.848 234.889 386.288 235.098L386.034 234.414L391.366 232.227H392.245V252.91C392.245 255.007 392.291 256.289 392.382 256.758C392.486 257.214 392.642 257.533 392.851 257.715C393.072 257.897 393.326 257.988 393.612 257.988C393.964 257.988 394.433 257.878 395.019 257.656L395.234 258.34L389.921 260.547H389.023V257.988ZM389.023 256.621V247.402C388.945 246.517 388.71 245.71 388.32 244.98C387.929 244.251 387.408 243.704 386.757 243.34C386.119 242.962 385.494 242.773 384.882 242.773C383.736 242.773 382.714 243.288 381.816 244.316C380.631 245.671 380.038 247.65 380.038 250.254C380.038 252.884 380.611 254.902 381.757 256.309C382.903 257.702 384.179 258.398 385.585 258.398C386.77 258.398 387.916 257.806 389.023 256.621ZM399.337 232.227C399.884 232.227 400.346 232.422 400.723 232.812C401.114 233.19 401.309 233.652 401.309 234.199C401.309 234.746 401.114 235.215 400.723 235.605C400.346 235.996 399.884 236.191 399.337 236.191C398.79 236.191 398.321 235.996 397.93 235.605C397.54 235.215 397.345 234.746 397.345 234.199C397.345 233.652 397.533 233.19 397.911 232.812C398.302 232.422 398.777 232.227 399.337 232.227ZM400.958 241.582V255.957C400.958 257.077 401.036 257.826 401.192 258.203C401.361 258.568 401.602 258.841 401.915 259.023C402.24 259.206 402.826 259.297 403.673 259.297V260H394.981V259.297C395.854 259.297 396.44 259.212 396.739 259.043C397.039 258.874 397.273 258.594 397.442 258.203C397.624 257.812 397.716 257.064 397.716 255.957V249.062C397.716 247.122 397.657 245.866 397.54 245.293C397.449 244.876 397.305 244.59 397.11 244.434C396.915 244.264 396.648 244.18 396.309 244.18C395.945 244.18 395.502 244.277 394.981 244.473L394.708 243.77L400.098 241.582H400.958ZM407.327 248.848C407.314 251.504 407.958 253.587 409.26 255.098C410.562 256.608 412.092 257.363 413.85 257.363C415.022 257.363 416.037 257.044 416.897 256.406C417.769 255.755 418.498 254.648 419.084 253.086L419.69 253.477C419.416 255.26 418.622 256.888 417.307 258.359C415.992 259.818 414.345 260.547 412.366 260.547C410.217 260.547 408.375 259.714 406.838 258.047C405.315 256.367 404.553 254.115 404.553 251.289C404.553 248.229 405.334 245.846 406.897 244.141C408.472 242.422 410.445 241.562 412.815 241.562C414.82 241.562 416.467 242.227 417.756 243.555C419.045 244.87 419.69 246.634 419.69 248.848H407.327ZM407.327 247.715H415.608C415.543 246.569 415.406 245.762 415.198 245.293C414.872 244.564 414.384 243.991 413.733 243.574C413.095 243.158 412.424 242.949 411.721 242.949C410.64 242.949 409.67 243.372 408.811 244.219C407.965 245.052 407.47 246.217 407.327 247.715ZM432.055 241.582V247.676H431.41C430.915 245.762 430.277 244.46 429.496 243.77C428.728 243.079 427.745 242.734 426.547 242.734C425.635 242.734 424.9 242.975 424.34 243.457C423.78 243.939 423.5 244.473 423.5 245.059C423.5 245.788 423.708 246.413 424.125 246.934C424.529 247.467 425.349 248.034 426.586 248.633L429.438 250.02C432.081 251.309 433.402 253.008 433.402 255.117C433.402 256.745 432.784 258.06 431.547 259.062C430.323 260.052 428.949 260.547 427.426 260.547C426.332 260.547 425.082 260.352 423.676 259.961C423.246 259.831 422.895 259.766 422.621 259.766C422.322 259.766 422.087 259.935 421.918 260.273H421.273V253.887H421.918C422.283 255.71 422.979 257.083 424.008 258.008C425.036 258.932 426.189 259.395 427.465 259.395C428.363 259.395 429.092 259.134 429.652 258.613C430.225 258.079 430.512 257.441 430.512 256.699C430.512 255.801 430.193 255.046 429.555 254.434C428.93 253.822 427.673 253.047 425.785 252.109C423.897 251.172 422.66 250.326 422.074 249.57C421.488 248.828 421.195 247.891 421.195 246.758C421.195 245.286 421.697 244.056 422.699 243.066C423.715 242.077 425.023 241.582 426.625 241.582C427.328 241.582 428.181 241.732 429.184 242.031C429.848 242.227 430.29 242.324 430.512 242.324C430.72 242.324 430.883 242.279 431 242.188C431.117 242.096 431.254 241.895 431.41 241.582H432.055ZM441.882 242.109H449.382V242.832C448.692 242.884 448.236 243.008 448.015 243.203C447.806 243.398 447.702 243.678 447.702 244.043C447.702 244.447 447.813 244.935 448.034 245.508L451.862 255.801L455.71 247.422L454.695 244.785C454.382 244.004 453.972 243.464 453.464 243.164C453.178 242.982 452.644 242.871 451.862 242.832V242.109H460.378V242.832C459.441 242.871 458.777 243.04 458.386 243.34C458.126 243.548 457.995 243.88 457.995 244.336C457.995 244.596 458.047 244.863 458.152 245.137L462.214 255.41L465.984 245.508C466.244 244.805 466.374 244.245 466.374 243.828C466.374 243.581 466.244 243.359 465.984 243.164C465.736 242.969 465.241 242.858 464.499 242.832V242.109H470.144V242.832C469.011 243.001 468.178 243.77 467.644 245.137L461.667 260.547H460.866L456.394 249.121L451.179 260.547H450.456L444.714 245.508C444.336 244.557 443.965 243.919 443.601 243.594C443.236 243.255 442.663 243.001 441.882 242.832V242.109ZM474.735 232.227C475.282 232.227 475.744 232.422 476.122 232.812C476.512 233.19 476.708 233.652 476.708 234.199C476.708 234.746 476.512 235.215 476.122 235.605C475.744 235.996 475.282 236.191 474.735 236.191C474.188 236.191 473.72 235.996 473.329 235.605C472.938 235.215 472.743 234.746 472.743 234.199C472.743 233.652 472.932 233.19 473.309 232.812C473.7 232.422 474.175 232.227 474.735 232.227ZM476.356 241.582V255.957C476.356 257.077 476.434 257.826 476.591 258.203C476.76 258.568 477.001 258.841 477.313 259.023C477.639 259.206 478.225 259.297 479.071 259.297V260H470.38V259.297C471.252 259.297 471.838 259.212 472.137 259.043C472.437 258.874 472.671 258.594 472.841 258.203C473.023 257.812 473.114 257.064 473.114 255.957V249.062C473.114 247.122 473.055 245.866 472.938 245.293C472.847 244.876 472.704 244.59 472.509 244.434C472.313 244.264 472.046 244.18 471.708 244.18C471.343 244.18 470.901 244.277 470.38 244.473L470.106 243.77L475.497 241.582H476.356ZM484.912 236.23V242.109H489.092V243.477H484.912V255.078C484.912 256.237 485.075 257.018 485.401 257.422C485.739 257.826 486.169 258.027 486.69 258.027C487.12 258.027 487.536 257.897 487.94 257.637C488.343 257.363 488.656 256.966 488.877 256.445H489.639C489.183 257.721 488.539 258.685 487.705 259.336C486.872 259.974 486.013 260.293 485.127 260.293C484.528 260.293 483.942 260.13 483.37 259.805C482.797 259.466 482.373 258.991 482.1 258.379C481.827 257.754 481.69 256.797 481.69 255.508V243.477H478.858V242.832C479.574 242.546 480.303 242.064 481.045 241.387C481.8 240.697 482.471 239.883 483.057 238.945C483.356 238.451 483.773 237.546 484.307 236.23H484.912ZM494.504 232.227V245.312C495.949 243.724 497.095 242.708 497.941 242.266C498.788 241.81 499.634 241.582 500.48 241.582C501.496 241.582 502.368 241.862 503.098 242.422C503.827 242.982 504.367 243.861 504.719 245.059C504.966 245.892 505.09 247.415 505.09 249.629V255.957C505.09 257.09 505.181 257.865 505.363 258.281C505.493 258.594 505.715 258.841 506.027 259.023C506.34 259.206 506.913 259.297 507.746 259.297V260H498.957V259.297H499.367C500.201 259.297 500.78 259.173 501.105 258.926C501.431 258.665 501.659 258.288 501.789 257.793C501.828 257.585 501.848 256.973 501.848 255.957V249.629C501.848 247.676 501.743 246.393 501.535 245.781C501.34 245.169 501.021 244.714 500.578 244.414C500.135 244.102 499.602 243.945 498.977 243.945C498.339 243.945 497.674 244.115 496.984 244.453C496.294 244.792 495.467 245.475 494.504 246.504V255.957C494.504 257.181 494.569 257.943 494.699 258.242C494.842 258.542 495.096 258.796 495.461 259.004C495.839 259.199 496.483 259.297 497.395 259.297V260H488.527V259.297C489.322 259.297 489.947 259.173 490.402 258.926C490.663 258.796 490.871 258.548 491.027 258.184C491.184 257.819 491.262 257.077 491.262 255.957V239.766C491.262 237.721 491.21 236.465 491.105 235.996C491.014 235.527 490.865 235.208 490.656 235.039C490.461 234.87 490.194 234.785 489.855 234.785C489.582 234.785 489.139 234.889 488.527 235.098L488.254 234.414L493.605 232.227H494.504ZM526.187 257.422C524.351 258.841 523.198 259.661 522.73 259.883C522.027 260.208 521.278 260.371 520.484 260.371C519.247 260.371 518.224 259.948 517.417 259.102C516.623 258.255 516.226 257.142 516.226 255.762C516.226 254.889 516.421 254.134 516.812 253.496C517.346 252.611 518.27 251.777 519.585 250.996C520.913 250.215 523.114 249.264 526.187 248.145V247.441C526.187 245.658 525.9 244.434 525.327 243.77C524.767 243.105 523.947 242.773 522.866 242.773C522.046 242.773 521.395 242.995 520.913 243.438C520.418 243.88 520.171 244.388 520.171 244.961L520.21 246.094C520.21 246.693 520.054 247.155 519.741 247.48C519.442 247.806 519.045 247.969 518.55 247.969C518.068 247.969 517.671 247.799 517.359 247.461C517.059 247.122 516.909 246.66 516.909 246.074C516.909 244.954 517.482 243.926 518.628 242.988C519.774 242.051 521.382 241.582 523.452 241.582C525.041 241.582 526.343 241.849 527.359 242.383C528.127 242.786 528.693 243.418 529.058 244.277C529.292 244.837 529.409 245.983 529.409 247.715V253.789C529.409 255.495 529.442 256.543 529.507 256.934C529.572 257.311 529.676 257.565 529.82 257.695C529.976 257.826 530.152 257.891 530.347 257.891C530.555 257.891 530.737 257.845 530.894 257.754C531.167 257.585 531.695 257.109 532.476 256.328V257.422C531.017 259.375 529.624 260.352 528.296 260.352C527.658 260.352 527.15 260.13 526.773 259.688C526.395 259.245 526.2 258.49 526.187 257.422ZM526.187 256.152V249.336C524.221 250.117 522.951 250.671 522.378 250.996C521.349 251.569 520.614 252.168 520.171 252.793C519.728 253.418 519.507 254.102 519.507 254.844C519.507 255.781 519.787 256.562 520.347 257.188C520.907 257.799 521.551 258.105 522.28 258.105C523.27 258.105 524.572 257.454 526.187 256.152ZM537.438 245.371C539.535 242.845 541.533 241.582 543.434 241.582C544.411 241.582 545.251 241.829 545.954 242.324C546.657 242.806 547.217 243.607 547.634 244.727C547.92 245.508 548.063 246.706 548.063 248.32V255.957C548.063 257.09 548.154 257.858 548.337 258.262C548.48 258.587 548.708 258.841 549.02 259.023C549.346 259.206 549.938 259.297 550.798 259.297V260H541.95V259.297H542.321C543.154 259.297 543.734 259.173 544.059 258.926C544.398 258.665 544.632 258.288 544.762 257.793C544.815 257.598 544.841 256.986 544.841 255.957V248.633C544.841 247.005 544.626 245.827 544.196 245.098C543.779 244.355 543.07 243.984 542.067 243.984C540.518 243.984 538.975 244.831 537.438 246.523V255.957C537.438 257.168 537.51 257.917 537.653 258.203C537.835 258.581 538.083 258.861 538.395 259.043C538.721 259.212 539.372 259.297 540.348 259.297V260H531.501V259.297H531.891C532.803 259.297 533.415 259.069 533.727 258.613C534.053 258.145 534.216 257.259 534.216 255.957V249.316C534.216 247.168 534.164 245.859 534.059 245.391C533.968 244.922 533.818 244.603 533.61 244.434C533.415 244.264 533.148 244.18 532.809 244.18C532.445 244.18 532.009 244.277 531.501 244.473L531.208 243.77L536.598 241.582H537.438V245.371ZM549.608 242.109H557.948V242.832H557.537C556.952 242.832 556.509 242.962 556.209 243.223C555.923 243.47 555.78 243.783 555.78 244.16C555.78 244.668 555.995 245.371 556.424 246.27L560.78 255.293L564.784 245.41C565.005 244.876 565.116 244.349 565.116 243.828C565.116 243.594 565.07 243.418 564.979 243.301C564.875 243.158 564.712 243.047 564.491 242.969C564.269 242.878 563.879 242.832 563.319 242.832V242.109H569.139V242.832C568.657 242.884 568.286 242.988 568.026 243.145C567.765 243.301 567.479 243.594 567.166 244.023C567.049 244.206 566.828 244.707 566.502 245.527L559.217 263.379C558.514 265.111 557.59 266.419 556.444 267.305C555.311 268.19 554.217 268.633 553.162 268.633C552.394 268.633 551.763 268.411 551.268 267.969C550.773 267.526 550.526 267.018 550.526 266.445C550.526 265.898 550.702 265.456 551.053 265.117C551.418 264.792 551.912 264.629 552.537 264.629C552.967 264.629 553.553 264.772 554.295 265.059C554.816 265.254 555.142 265.352 555.272 265.352C555.662 265.352 556.086 265.15 556.541 264.746C557.01 264.342 557.479 263.561 557.948 262.402L559.217 259.297L552.791 245.801C552.596 245.397 552.284 244.896 551.854 244.297C551.528 243.841 551.261 243.535 551.053 243.379C550.754 243.171 550.272 242.988 549.608 242.832V242.109ZM577.773 241.582C580.482 241.582 582.656 242.611 584.297 244.668C585.69 246.426 586.387 248.444 586.387 250.723C586.387 252.324 586.003 253.945 585.234 255.586C584.466 257.227 583.405 258.464 582.051 259.297C580.71 260.13 579.212 260.547 577.559 260.547C574.863 260.547 572.721 259.473 571.133 257.324C569.792 255.514 569.121 253.483 569.121 251.23C569.121 249.59 569.525 247.962 570.332 246.348C571.152 244.72 572.227 243.522 573.555 242.754C574.883 241.973 576.289 241.582 577.773 241.582ZM577.168 242.852C576.478 242.852 575.781 243.06 575.078 243.477C574.388 243.88 573.828 244.596 573.398 245.625C572.969 246.654 572.754 247.975 572.754 249.59C572.754 252.194 573.268 254.44 574.297 256.328C575.339 258.216 576.706 259.16 578.398 259.16C579.661 259.16 580.703 258.639 581.523 257.598C582.344 256.556 582.754 254.766 582.754 252.227C582.754 249.049 582.07 246.549 580.703 244.727C579.779 243.477 578.6 242.852 577.168 242.852ZM592.638 245.371C594.735 242.845 596.733 241.582 598.634 241.582C599.611 241.582 600.451 241.829 601.154 242.324C601.857 242.806 602.417 243.607 602.834 244.727C603.12 245.508 603.263 246.706 603.263 248.32V255.957C603.263 257.09 603.354 257.858 603.537 258.262C603.68 258.587 603.908 258.841 604.22 259.023C604.546 259.206 605.138 259.297 605.998 259.297V260H597.15V259.297H597.521C598.354 259.297 598.934 259.173 599.259 258.926C599.598 258.665 599.832 258.288 599.962 257.793C600.015 257.598 600.041 256.986 600.041 255.957V248.633C600.041 247.005 599.826 245.827 599.396 245.098C598.979 244.355 598.27 243.984 597.267 243.984C595.718 243.984 594.175 244.831 592.638 246.523V255.957C592.638 257.168 592.71 257.917 592.853 258.203C593.035 258.581 593.283 258.861 593.595 259.043C593.921 259.212 594.572 259.297 595.548 259.297V260H586.701V259.297H587.091C588.003 259.297 588.615 259.069 588.927 258.613C589.253 258.145 589.416 257.259 589.416 255.957V249.316C589.416 247.168 589.364 245.859 589.259 245.391C589.168 244.922 589.018 244.603 588.81 244.434C588.615 244.264 588.348 244.18 588.009 244.18C587.645 244.18 587.209 244.277 586.701 244.473L586.408 243.77L591.798 241.582H592.638V245.371ZM608.831 248.848C608.818 251.504 609.463 253.587 610.765 255.098C612.067 256.608 613.597 257.363 615.355 257.363C616.527 257.363 617.542 257.044 618.402 256.406C619.274 255.755 620.003 254.648 620.589 253.086L621.195 253.477C620.921 255.26 620.127 256.888 618.812 258.359C617.497 259.818 615.849 260.547 613.87 260.547C611.722 260.547 609.879 259.714 608.343 258.047C606.82 256.367 606.058 254.115 606.058 251.289C606.058 248.229 606.839 245.846 608.402 244.141C609.977 242.422 611.95 241.562 614.32 241.562C616.325 241.562 617.972 242.227 619.261 243.555C620.55 244.87 621.195 246.634 621.195 248.848H608.831ZM608.831 247.715H617.112C617.047 246.569 616.911 245.762 616.702 245.293C616.377 244.564 615.889 243.991 615.237 243.574C614.599 243.158 613.929 242.949 613.226 242.949C612.145 242.949 611.175 243.372 610.316 244.219C609.469 245.052 608.974 246.217 608.831 247.715ZM629.381 242.109H637.721V242.832H637.311C636.725 242.832 636.282 242.962 635.983 243.223C635.696 243.47 635.553 243.783 635.553 244.16C635.553 244.668 635.768 245.371 636.198 246.27L640.553 255.293L644.557 245.41C644.778 244.876 644.889 244.349 644.889 243.828C644.889 243.594 644.843 243.418 644.752 243.301C644.648 243.158 644.485 243.047 644.264 242.969C644.043 242.878 643.652 242.832 643.092 242.832V242.109H648.912V242.832C648.431 242.884 648.06 242.988 647.799 243.145C647.539 243.301 647.252 243.594 646.94 244.023C646.823 244.206 646.601 244.707 646.276 245.527L638.991 263.379C638.287 265.111 637.363 266.419 636.217 267.305C635.084 268.19 633.991 268.633 632.936 268.633C632.168 268.633 631.536 268.411 631.041 267.969C630.547 267.526 630.299 267.018 630.299 266.445C630.299 265.898 630.475 265.456 630.827 265.117C631.191 264.792 631.686 264.629 632.311 264.629C632.741 264.629 633.327 264.772 634.069 265.059C634.59 265.254 634.915 265.352 635.045 265.352C635.436 265.352 635.859 265.15 636.315 264.746C636.784 264.342 637.252 263.561 637.721 262.402L638.991 259.297L632.565 245.801C632.37 245.397 632.057 244.896 631.627 244.297C631.302 243.841 631.035 243.535 630.827 243.379C630.527 243.171 630.045 242.988 629.381 242.832V242.109ZM657.547 241.582C660.255 241.582 662.43 242.611 664.07 244.668C665.464 246.426 666.16 248.444 666.16 250.723C666.16 252.324 665.776 253.945 665.008 255.586C664.24 257.227 663.178 258.464 661.824 259.297C660.483 260.13 658.986 260.547 657.332 260.547C654.637 260.547 652.495 259.473 650.906 257.324C649.565 255.514 648.895 253.483 648.895 251.23C648.895 249.59 649.298 247.962 650.105 246.348C650.926 244.72 652 243.522 653.328 242.754C654.656 241.973 656.062 241.582 657.547 241.582ZM656.941 242.852C656.251 242.852 655.555 243.06 654.852 243.477C654.161 243.88 653.602 244.596 653.172 245.625C652.742 246.654 652.527 247.975 652.527 249.59C652.527 252.194 653.042 254.44 654.07 256.328C655.112 258.216 656.479 259.16 658.172 259.16C659.435 259.16 660.477 258.639 661.297 257.598C662.117 256.556 662.527 254.766 662.527 252.227C662.527 249.049 661.844 246.549 660.477 244.727C659.552 243.477 658.374 242.852 656.941 242.852ZM682.88 242.109V252.949C682.88 255.02 682.926 256.289 683.017 256.758C683.121 257.214 683.278 257.533 683.486 257.715C683.707 257.897 683.961 257.988 684.248 257.988C684.651 257.988 685.107 257.878 685.615 257.656L685.888 258.34L680.537 260.547H679.658V256.758C678.121 258.424 676.949 259.473 676.142 259.902C675.335 260.332 674.482 260.547 673.584 260.547C672.581 260.547 671.709 260.26 670.966 259.688C670.237 259.102 669.729 258.353 669.443 257.441C669.156 256.53 669.013 255.241 669.013 253.574V245.586C669.013 244.74 668.922 244.154 668.74 243.828C668.558 243.503 668.284 243.255 667.919 243.086C667.568 242.904 666.923 242.819 665.986 242.832V242.109H672.255V254.082C672.255 255.749 672.542 256.842 673.115 257.363C673.701 257.884 674.404 258.145 675.224 258.145C675.784 258.145 676.416 257.969 677.119 257.617C677.835 257.266 678.681 256.595 679.658 255.605V245.469C679.658 244.453 679.469 243.77 679.091 243.418C678.727 243.053 677.959 242.858 676.787 242.832V242.109H682.88ZM693.001 242.109H700.501V242.832C699.811 242.884 699.355 243.008 699.134 243.203C698.925 243.398 698.821 243.678 698.821 244.043C698.821 244.447 698.932 244.935 699.153 245.508L702.981 255.801L706.829 247.422L705.813 244.785C705.501 244.004 705.091 243.464 704.583 243.164C704.296 242.982 703.763 242.871 702.981 242.832V242.109H711.497V242.832C710.559 242.871 709.895 243.04 709.505 243.34C709.244 243.548 709.114 243.88 709.114 244.336C709.114 244.596 709.166 244.863 709.27 245.137L713.333 255.41L717.102 245.508C717.363 244.805 717.493 244.245 717.493 243.828C717.493 243.581 717.363 243.359 717.102 243.164C716.855 242.969 716.36 242.858 715.618 242.832V242.109H721.263V242.832C720.13 243.001 719.296 243.77 718.763 245.137L712.786 260.547H711.985L707.513 249.121L702.298 260.547H701.575L695.833 245.508C695.455 244.557 695.084 243.919 694.72 243.594C694.355 243.255 693.782 243.001 693.001 242.832V242.109ZM731.44 257.422C729.604 258.841 728.452 259.661 727.983 259.883C727.28 260.208 726.531 260.371 725.737 260.371C724.5 260.371 723.478 259.948 722.67 259.102C721.876 258.255 721.479 257.142 721.479 255.762C721.479 254.889 721.674 254.134 722.065 253.496C722.599 252.611 723.523 251.777 724.838 250.996C726.166 250.215 728.367 249.264 731.44 248.145V247.441C731.44 245.658 731.153 244.434 730.58 243.77C730.021 243.105 729.2 242.773 728.12 242.773C727.299 242.773 726.648 242.995 726.166 243.438C725.672 243.88 725.424 244.388 725.424 244.961L725.463 246.094C725.463 246.693 725.307 247.155 724.995 247.48C724.695 247.806 724.298 247.969 723.803 247.969C723.321 247.969 722.924 247.799 722.612 247.461C722.312 247.122 722.162 246.66 722.162 246.074C722.162 244.954 722.735 243.926 723.881 242.988C725.027 242.051 726.635 241.582 728.705 241.582C730.294 241.582 731.596 241.849 732.612 242.383C733.38 242.786 733.946 243.418 734.311 244.277C734.545 244.837 734.662 245.983 734.662 247.715V253.789C734.662 255.495 734.695 256.543 734.76 256.934C734.825 257.311 734.929 257.565 735.073 257.695C735.229 257.826 735.405 257.891 735.6 257.891C735.808 257.891 735.991 257.845 736.147 257.754C736.42 257.585 736.948 257.109 737.729 256.328V257.422C736.271 259.375 734.877 260.352 733.549 260.352C732.911 260.352 732.403 260.13 732.026 259.688C731.648 259.245 731.453 258.49 731.44 257.422ZM731.44 256.152V249.336C729.474 250.117 728.204 250.671 727.631 250.996C726.603 251.569 725.867 252.168 725.424 252.793C724.981 253.418 724.76 254.102 724.76 254.844C724.76 255.781 725.04 256.562 725.6 257.188C726.16 257.799 726.804 258.105 727.534 258.105C728.523 258.105 729.825 257.454 731.44 256.152ZM742.691 245.371C744.788 242.845 746.786 241.582 748.688 241.582C749.664 241.582 750.504 241.829 751.207 242.324C751.91 242.806 752.47 243.607 752.887 244.727C753.173 245.508 753.316 246.706 753.316 248.32V255.957C753.316 257.09 753.408 257.858 753.59 258.262C753.733 258.587 753.961 258.841 754.273 259.023C754.599 259.206 755.191 259.297 756.051 259.297V260H747.203V259.297H747.574C748.408 259.297 748.987 259.173 749.312 258.926C749.651 258.665 749.885 258.288 750.016 257.793C750.068 257.598 750.094 256.986 750.094 255.957V248.633C750.094 247.005 749.879 245.827 749.449 245.098C749.033 244.355 748.323 243.984 747.32 243.984C745.771 243.984 744.228 244.831 742.691 246.523V255.957C742.691 257.168 742.763 257.917 742.906 258.203C743.089 258.581 743.336 258.861 743.648 259.043C743.974 259.212 744.625 259.297 745.602 259.297V260H736.754V259.297H737.145C738.056 259.297 738.668 259.069 738.98 258.613C739.306 258.145 739.469 257.259 739.469 255.957V249.316C739.469 247.168 739.417 245.859 739.312 245.391C739.221 244.922 739.072 244.603 738.863 244.434C738.668 244.264 738.401 244.18 738.062 244.18C737.698 244.18 737.262 244.277 736.754 244.473L736.461 243.77L741.852 241.582H742.691V245.371ZM761.072 236.23V242.109H765.252V243.477H761.072V255.078C761.072 256.237 761.235 257.018 761.56 257.422C761.899 257.826 762.328 258.027 762.849 258.027C763.279 258.027 763.696 257.897 764.099 257.637C764.503 257.363 764.815 256.966 765.037 256.445H765.798C765.343 257.721 764.698 258.685 763.865 259.336C763.031 259.974 762.172 260.293 761.287 260.293C760.688 260.293 760.102 260.13 759.529 259.805C758.956 259.466 758.533 258.991 758.259 258.379C757.986 257.754 757.849 256.797 757.849 255.508V243.477H755.017V242.832C755.733 242.546 756.462 242.064 757.205 241.387C757.96 240.697 758.63 239.883 759.216 238.945C759.516 238.451 759.933 237.546 760.466 236.23H761.072ZM766.308 266.66V265.801C767.649 265.358 768.684 264.668 769.413 263.73C770.155 262.806 770.527 261.823 770.527 260.781C770.527 260.534 770.468 260.326 770.351 260.156C770.26 260.039 770.168 259.98 770.077 259.98C769.934 259.98 769.622 260.111 769.14 260.371C768.905 260.488 768.658 260.547 768.398 260.547C767.76 260.547 767.252 260.358 766.874 259.98C766.497 259.603 766.308 259.082 766.308 258.418C766.308 257.78 766.549 257.233 767.03 256.777C767.525 256.322 768.124 256.094 768.827 256.094C769.687 256.094 770.448 256.471 771.112 257.227C771.79 257.969 772.128 258.958 772.128 260.195C772.128 261.536 771.659 262.78 770.722 263.926C769.797 265.085 768.326 265.996 766.308 266.66ZM397.014 303.422C395.178 304.841 394.026 305.661 393.557 305.883C392.854 306.208 392.105 306.371 391.311 306.371C390.074 306.371 389.052 305.948 388.245 305.102C387.45 304.255 387.053 303.142 387.053 301.762C387.053 300.889 387.248 300.134 387.639 299.496C388.173 298.611 389.097 297.777 390.413 296.996C391.741 296.215 393.941 295.264 397.014 294.145V293.441C397.014 291.658 396.728 290.434 396.155 289.77C395.595 289.105 394.774 288.773 393.694 288.773C392.873 288.773 392.222 288.995 391.741 289.438C391.246 289.88 390.998 290.388 390.998 290.961L391.038 292.094C391.038 292.693 390.881 293.155 390.569 293.48C390.269 293.806 389.872 293.969 389.377 293.969C388.896 293.969 388.498 293.799 388.186 293.461C387.886 293.122 387.737 292.66 387.737 292.074C387.737 290.954 388.31 289.926 389.455 288.988C390.601 288.051 392.209 287.582 394.28 287.582C395.868 287.582 397.17 287.849 398.186 288.383C398.954 288.786 399.521 289.418 399.885 290.277C400.12 290.837 400.237 291.983 400.237 293.715V299.789C400.237 301.495 400.269 302.543 400.334 302.934C400.399 303.311 400.504 303.565 400.647 303.695C400.803 303.826 400.979 303.891 401.174 303.891C401.383 303.891 401.565 303.845 401.721 303.754C401.995 303.585 402.522 303.109 403.303 302.328V303.422C401.845 305.375 400.452 306.352 399.123 306.352C398.485 306.352 397.978 306.13 397.6 305.688C397.222 305.245 397.027 304.49 397.014 303.422ZM397.014 302.152V295.336C395.048 296.117 393.778 296.671 393.205 296.996C392.177 297.569 391.441 298.168 390.998 298.793C390.556 299.418 390.334 300.102 390.334 300.844C390.334 301.781 390.614 302.562 391.174 303.188C391.734 303.799 392.379 304.105 393.108 304.105C394.097 304.105 395.399 303.454 397.014 302.152ZM408.266 291.371C410.362 288.845 412.361 287.582 414.262 287.582C415.238 287.582 416.078 287.829 416.781 288.324C417.484 288.806 418.044 289.607 418.461 290.727C418.747 291.508 418.891 292.706 418.891 294.32V301.957C418.891 303.09 418.982 303.858 419.164 304.262C419.307 304.587 419.535 304.841 419.848 305.023C420.173 305.206 420.766 305.297 421.625 305.297V306H412.777V305.297H413.148C413.982 305.297 414.561 305.173 414.887 304.926C415.225 304.665 415.46 304.288 415.59 303.793C415.642 303.598 415.668 302.986 415.668 301.957V294.633C415.668 293.005 415.453 291.827 415.023 291.098C414.607 290.355 413.897 289.984 412.895 289.984C411.345 289.984 409.802 290.831 408.266 292.523V301.957C408.266 303.168 408.337 303.917 408.48 304.203C408.663 304.581 408.91 304.861 409.223 305.043C409.548 305.212 410.199 305.297 411.176 305.297V306H402.328V305.297H402.719C403.63 305.297 404.242 305.069 404.555 304.613C404.88 304.145 405.043 303.259 405.043 301.957V295.316C405.043 293.168 404.991 291.859 404.887 291.391C404.796 290.922 404.646 290.603 404.438 290.434C404.242 290.264 403.975 290.18 403.637 290.18C403.272 290.18 402.836 290.277 402.328 290.473L402.035 289.77L407.426 287.582H408.266V291.371ZM420.435 288.109H428.775V288.832H428.365C427.779 288.832 427.336 288.962 427.037 289.223C426.75 289.47 426.607 289.783 426.607 290.16C426.607 290.668 426.822 291.371 427.252 292.27L431.607 301.293L435.611 291.41C435.832 290.876 435.943 290.349 435.943 289.828C435.943 289.594 435.897 289.418 435.806 289.301C435.702 289.158 435.539 289.047 435.318 288.969C435.097 288.878 434.706 288.832 434.146 288.832V288.109H439.966V288.832C439.485 288.884 439.114 288.988 438.853 289.145C438.593 289.301 438.306 289.594 437.994 290.023C437.877 290.206 437.655 290.707 437.33 291.527L430.045 309.379C429.341 311.111 428.417 312.419 427.271 313.305C426.138 314.19 425.045 314.633 423.99 314.633C423.222 314.633 422.59 314.411 422.095 313.969C421.601 313.526 421.353 313.018 421.353 312.445C421.353 311.898 421.529 311.456 421.88 311.117C422.245 310.792 422.74 310.629 423.365 310.629C423.795 310.629 424.38 310.772 425.123 311.059C425.643 311.254 425.969 311.352 426.099 311.352C426.49 311.352 426.913 311.15 427.369 310.746C427.837 310.342 428.306 309.561 428.775 308.402L430.045 305.297L423.619 291.801C423.423 291.397 423.111 290.896 422.681 290.297C422.356 289.841 422.089 289.535 421.88 289.379C421.581 289.171 421.099 288.988 420.435 288.832V288.109ZM445.046 282.23V288.109H449.226V289.477H445.046V301.078C445.046 302.237 445.209 303.018 445.534 303.422C445.873 303.826 446.303 304.027 446.823 304.027C447.253 304.027 447.67 303.897 448.073 303.637C448.477 303.363 448.79 302.966 449.011 302.445H449.773C449.317 303.721 448.672 304.685 447.839 305.336C447.006 305.974 446.146 306.293 445.261 306.293C444.662 306.293 444.076 306.13 443.503 305.805C442.93 305.466 442.507 304.991 442.234 304.379C441.96 303.754 441.823 302.797 441.823 301.508V289.477H438.991V288.832C439.708 288.546 440.437 288.064 441.179 287.387C441.934 286.697 442.605 285.883 443.191 284.945C443.49 284.451 443.907 283.546 444.441 282.23H445.046ZM453.934 278.227C454.481 278.227 454.944 278.422 455.321 278.812C455.712 279.19 455.907 279.652 455.907 280.199C455.907 280.746 455.712 281.215 455.321 281.605C454.944 281.996 454.481 282.191 453.934 282.191C453.388 282.191 452.919 281.996 452.528 281.605C452.138 281.215 451.942 280.746 451.942 280.199C451.942 279.652 452.131 279.19 452.509 278.812C452.899 278.422 453.374 278.227 453.934 278.227ZM455.555 287.582V301.957C455.555 303.077 455.634 303.826 455.79 304.203C455.959 304.568 456.2 304.841 456.513 305.023C456.838 305.206 457.424 305.297 458.27 305.297V306H449.579V305.297C450.451 305.297 451.037 305.212 451.337 305.043C451.636 304.874 451.871 304.594 452.04 304.203C452.222 303.812 452.313 303.064 452.313 301.957V295.062C452.313 293.122 452.255 291.866 452.138 291.293C452.046 290.876 451.903 290.59 451.708 290.434C451.513 290.264 451.246 290.18 450.907 290.18C450.542 290.18 450.1 290.277 449.579 290.473L449.305 289.77L454.696 287.582H455.555ZM464.229 291.391C465.531 290.089 466.299 289.34 466.534 289.145C467.12 288.65 467.751 288.266 468.428 287.992C469.105 287.719 469.776 287.582 470.44 287.582C471.56 287.582 472.523 287.908 473.33 288.559C474.138 289.21 474.678 290.154 474.952 291.391C476.293 289.828 477.426 288.806 478.35 288.324C479.274 287.829 480.225 287.582 481.202 287.582C482.152 287.582 482.992 287.829 483.721 288.324C484.463 288.806 485.049 289.6 485.479 290.707C485.765 291.462 485.909 292.647 485.909 294.262V301.957C485.909 303.077 485.993 303.845 486.163 304.262C486.293 304.548 486.534 304.796 486.885 305.004C487.237 305.199 487.81 305.297 488.604 305.297V306H479.776V305.297H480.147C480.915 305.297 481.514 305.147 481.944 304.848C482.243 304.639 482.458 304.307 482.588 303.852C482.64 303.63 482.666 302.999 482.666 301.957V294.262C482.666 292.803 482.491 291.775 482.139 291.176C481.631 290.342 480.817 289.926 479.698 289.926C479.008 289.926 478.311 290.102 477.608 290.453C476.918 290.792 476.078 291.43 475.088 292.367L475.049 292.582L475.088 293.422V301.957C475.088 303.181 475.153 303.943 475.284 304.242C475.427 304.542 475.687 304.796 476.065 305.004C476.442 305.199 477.087 305.297 477.998 305.297V306H468.955V305.297C469.945 305.297 470.622 305.18 470.987 304.945C471.364 304.711 471.625 304.359 471.768 303.891C471.833 303.669 471.866 303.025 471.866 301.957V294.262C471.866 292.803 471.651 291.755 471.221 291.117C470.648 290.284 469.847 289.867 468.819 289.867C468.116 289.867 467.419 290.056 466.729 290.434C465.648 291.007 464.815 291.651 464.229 292.367V301.957C464.229 303.129 464.307 303.891 464.463 304.242C464.633 304.594 464.873 304.861 465.186 305.043C465.511 305.212 466.163 305.297 467.139 305.297V306H458.291V305.297C459.112 305.297 459.685 305.212 460.01 305.043C460.336 304.861 460.583 304.581 460.752 304.203C460.922 303.812 461.006 303.064 461.006 301.957V295.121C461.006 293.155 460.948 291.885 460.83 291.312C460.739 290.883 460.596 290.59 460.401 290.434C460.205 290.264 459.939 290.18 459.6 290.18C459.235 290.18 458.799 290.277 458.291 290.473L457.998 289.77L463.389 287.582H464.229V291.391ZM491.457 294.848C491.444 297.504 492.089 299.587 493.391 301.098C494.693 302.608 496.223 303.363 497.98 303.363C499.152 303.363 500.168 303.044 501.027 302.406C501.9 301.755 502.629 300.648 503.215 299.086L503.82 299.477C503.547 301.26 502.753 302.888 501.438 304.359C500.122 305.818 498.475 306.547 496.496 306.547C494.348 306.547 492.505 305.714 490.969 304.047C489.445 302.367 488.684 300.115 488.684 297.289C488.684 294.229 489.465 291.846 491.027 290.141C492.603 288.422 494.576 287.562 496.945 287.562C498.951 287.562 500.598 288.227 501.887 289.555C503.176 290.87 503.82 292.634 503.82 294.848H491.457ZM491.457 293.715H499.738C499.673 292.569 499.536 291.762 499.328 291.293C499.003 290.564 498.514 289.991 497.863 289.574C497.225 289.158 496.555 288.949 495.852 288.949C494.771 288.949 493.801 289.372 492.941 290.219C492.095 291.052 491.6 292.217 491.457 293.715ZM508.373 302.211C508.985 302.211 509.499 302.426 509.916 302.855C510.332 303.272 510.541 303.78 510.541 304.379C510.541 304.978 510.326 305.492 509.896 305.922C509.479 306.339 508.972 306.547 508.373 306.547C507.774 306.547 507.259 306.339 506.83 305.922C506.413 305.492 506.205 304.978 506.205 304.379C506.205 303.767 506.413 303.253 506.83 302.836C507.259 302.419 507.774 302.211 508.373 302.211Z" fill="white"></path><defs><linearGradient id="paint0_linear_3965_1020" x1="25" y1="-38" x2="908.5" y2="566" gradientUnits="userSpaceOnUse"><stop stop-color="#151515"></stop><stop offset="1" stop-color="#303FC5"></stop></linearGradient></defs></svg> 