<?xml version="1.0" encoding="UTF-8"?> <svg xmlns="http://www.w3.org/2000/svg" width="900" height="540" viewBox="0 0 900 540" fill="none"><rect width="900" height="540" rx="30" fill="url(#paint0_linear_3965_1016)"></rect><path d="M154.37 233.516H163.609V234.238H163.101C162.762 234.238 162.267 234.388 161.616 234.688C160.965 234.987 160.373 235.417 159.839 235.977C159.305 236.536 158.648 237.448 157.866 238.711L151.48 248.77V255.41C151.48 257.038 151.662 258.053 152.027 258.457C152.521 259.004 153.303 259.277 154.37 259.277H155.23V260H143.98V259.277H144.917C146.037 259.277 146.831 258.939 147.3 258.262C147.586 257.845 147.73 256.895 147.73 255.41V249.141L140.464 238.047C139.605 236.745 139.019 235.931 138.706 235.605C138.407 235.28 137.775 234.889 136.812 234.434C136.551 234.303 136.174 234.238 135.679 234.238V233.516H147.007V234.238H146.421C145.809 234.238 145.243 234.382 144.722 234.668C144.214 234.954 143.96 235.384 143.96 235.957C143.96 236.426 144.357 237.272 145.152 238.496L150.679 247.031L155.874 238.867C156.655 237.643 157.046 236.732 157.046 236.133C157.046 235.768 156.948 235.443 156.753 235.156C156.571 234.87 156.304 234.648 155.952 234.492C155.601 234.323 155.073 234.238 154.37 234.238V233.516ZM168.591 241.582C171.299 241.582 173.473 242.611 175.114 244.668C176.507 246.426 177.204 248.444 177.204 250.723C177.204 252.324 176.82 253.945 176.052 255.586C175.283 257.227 174.222 258.464 172.868 259.297C171.527 260.13 170.029 260.547 168.376 260.547C165.68 260.547 163.539 259.473 161.95 257.324C160.609 255.514 159.938 253.483 159.938 251.23C159.938 249.59 160.342 247.962 161.149 246.348C161.97 244.72 163.044 243.522 164.372 242.754C165.7 241.973 167.106 241.582 168.591 241.582ZM167.985 242.852C167.295 242.852 166.598 243.06 165.895 243.477C165.205 243.88 164.645 244.596 164.216 245.625C163.786 246.654 163.571 247.975 163.571 249.59C163.571 252.194 164.085 254.44 165.114 256.328C166.156 258.216 167.523 259.16 169.216 259.16C170.479 259.16 171.52 258.639 172.341 257.598C173.161 256.556 173.571 254.766 173.571 252.227C173.571 249.049 172.887 246.549 171.52 244.727C170.596 243.477 169.417 242.852 167.985 242.852ZM193.924 242.109V252.949C193.924 255.02 193.97 256.289 194.061 256.758C194.165 257.214 194.321 257.533 194.53 257.715C194.751 257.897 195.005 257.988 195.291 257.988C195.695 257.988 196.151 257.878 196.659 257.656L196.932 258.34L191.58 260.547H190.702V256.758C189.165 258.424 187.993 259.473 187.186 259.902C186.379 260.332 185.526 260.547 184.627 260.547C183.625 260.547 182.752 260.26 182.01 259.688C181.281 259.102 180.773 258.353 180.487 257.441C180.2 256.53 180.057 255.241 180.057 253.574V245.586C180.057 244.74 179.966 244.154 179.784 243.828C179.601 243.503 179.328 243.255 178.963 243.086C178.612 242.904 177.967 242.819 177.03 242.832V242.109H183.299V254.082C183.299 255.749 183.586 256.842 184.159 257.363C184.745 257.884 185.448 258.145 186.268 258.145C186.828 258.145 187.459 257.969 188.162 257.617C188.879 257.266 189.725 256.595 190.702 255.605V245.469C190.702 244.453 190.513 243.77 190.135 243.418C189.771 243.053 189.002 242.858 187.83 242.832V242.109H193.924ZM204.045 242.109H211.545V242.832C210.854 242.884 210.399 243.008 210.177 243.203C209.969 243.398 209.865 243.678 209.865 244.043C209.865 244.447 209.976 244.935 210.197 245.508L214.025 255.801L217.873 247.422L216.857 244.785C216.545 244.004 216.134 243.464 215.627 243.164C215.34 242.982 214.806 242.871 214.025 242.832V242.109H222.541V242.832C221.603 242.871 220.939 243.04 220.548 243.34C220.288 243.548 220.158 243.88 220.158 244.336C220.158 244.596 220.21 244.863 220.314 245.137L224.377 255.41L228.146 245.508C228.406 244.805 228.537 244.245 228.537 243.828C228.537 243.581 228.406 243.359 228.146 243.164C227.899 242.969 227.404 242.858 226.662 242.832V242.109H232.306V242.832C231.173 243.001 230.34 243.77 229.806 245.137L223.83 260.547H223.029L218.556 249.121L213.341 260.547H212.619L206.877 245.508C206.499 244.557 206.128 243.919 205.763 243.594C205.399 243.255 204.826 243.001 204.045 242.832V242.109ZM241.097 241.582C243.805 241.582 245.98 242.611 247.62 244.668C249.014 246.426 249.71 248.444 249.71 250.723C249.71 252.324 249.326 253.945 248.558 255.586C247.79 257.227 246.728 258.464 245.374 259.297C244.033 260.13 242.536 260.547 240.882 260.547C238.187 260.547 236.045 259.473 234.456 257.324C233.115 255.514 232.445 253.483 232.445 251.23C232.445 249.59 232.848 247.962 233.655 246.348C234.476 244.72 235.55 243.522 236.878 242.754C238.206 241.973 239.612 241.582 241.097 241.582ZM240.491 242.852C239.801 242.852 239.105 243.06 238.402 243.477C237.711 243.88 237.152 244.596 236.722 245.625C236.292 246.654 236.077 247.975 236.077 249.59C236.077 252.194 236.592 254.44 237.62 256.328C238.662 258.216 240.029 259.16 241.722 259.16C242.985 259.16 244.027 258.639 244.847 257.598C245.667 256.556 246.077 254.766 246.077 252.227C246.077 249.049 245.394 246.549 244.027 244.727C243.102 243.477 241.924 242.852 240.491 242.852ZM255.981 241.582V245.605C257.479 242.923 259.015 241.582 260.591 241.582C261.307 241.582 261.899 241.803 262.368 242.246C262.837 242.676 263.071 243.177 263.071 243.75C263.071 244.258 262.902 244.688 262.563 245.039C262.225 245.391 261.821 245.566 261.352 245.566C260.897 245.566 260.382 245.345 259.809 244.902C259.249 244.447 258.833 244.219 258.559 244.219C258.325 244.219 258.071 244.349 257.798 244.609C257.212 245.143 256.606 246.022 255.981 247.246V255.82C255.981 256.81 256.105 257.559 256.352 258.066C256.522 258.418 256.821 258.711 257.251 258.945C257.68 259.18 258.299 259.297 259.106 259.297V260H249.946V259.297C250.858 259.297 251.535 259.154 251.977 258.867C252.303 258.659 252.531 258.327 252.661 257.871C252.726 257.65 252.759 257.018 252.759 255.977V249.043C252.759 246.96 252.713 245.723 252.622 245.332C252.544 244.928 252.387 244.635 252.153 244.453C251.932 244.271 251.652 244.18 251.313 244.18C250.91 244.18 250.454 244.277 249.946 244.473L249.751 243.77L255.161 241.582H255.981ZM265.475 248.848C265.462 251.504 266.107 253.587 267.409 255.098C268.711 256.608 270.241 257.363 271.998 257.363C273.17 257.363 274.186 257.044 275.045 256.406C275.918 255.755 276.647 254.648 277.233 253.086L277.838 253.477C277.565 255.26 276.771 256.888 275.455 258.359C274.14 259.818 272.493 260.547 270.514 260.547C268.366 260.547 266.523 259.714 264.987 258.047C263.463 256.367 262.702 254.115 262.702 251.289C262.702 248.229 263.483 245.846 265.045 244.141C266.621 242.422 268.593 241.562 270.963 241.562C272.968 241.562 274.616 242.227 275.905 243.555C277.194 244.87 277.838 246.634 277.838 248.848H265.475ZM265.475 247.715H273.756C273.691 246.569 273.554 245.762 273.346 245.293C273.021 244.564 272.532 243.991 271.881 243.574C271.243 243.158 270.573 242.949 269.87 242.949C268.789 242.949 267.819 243.372 266.959 244.219C266.113 245.052 265.618 246.217 265.475 247.715ZM285.752 243.887L291.259 241.66H292.002V245.84C292.926 244.264 293.851 243.164 294.775 242.539C295.712 241.901 296.696 241.582 297.724 241.582C299.521 241.582 301.018 242.285 302.216 243.691C303.688 245.41 304.423 247.65 304.423 250.41C304.423 253.496 303.538 256.048 301.767 258.066C300.309 259.72 298.473 260.547 296.259 260.547C295.296 260.547 294.462 260.41 293.759 260.137C293.239 259.941 292.653 259.551 292.002 258.965V264.414C292.002 265.638 292.073 266.413 292.216 266.738C292.373 267.077 292.633 267.344 292.998 267.539C293.375 267.734 294.052 267.832 295.029 267.832V268.555H285.654V267.832H286.142C286.858 267.845 287.47 267.708 287.978 267.422C288.226 267.279 288.414 267.044 288.545 266.719C288.688 266.406 288.759 265.599 288.759 264.297V247.383C288.759 246.224 288.707 245.488 288.603 245.176C288.499 244.863 288.33 244.629 288.095 244.473C287.874 244.316 287.568 244.238 287.177 244.238C286.865 244.238 286.468 244.329 285.986 244.512L285.752 243.887ZM292.002 246.992V253.672C292.002 255.117 292.06 256.068 292.177 256.523C292.36 257.279 292.802 257.943 293.505 258.516C294.222 259.089 295.12 259.375 296.201 259.375C297.503 259.375 298.558 258.867 299.365 257.852C300.42 256.523 300.947 254.655 300.947 252.246C300.947 249.512 300.348 247.409 299.15 245.938C298.317 244.922 297.327 244.414 296.181 244.414C295.556 244.414 294.938 244.57 294.326 244.883C293.857 245.117 293.082 245.82 292.002 246.992ZM315.577 257.422C313.741 258.841 312.589 259.661 312.12 259.883C311.417 260.208 310.668 260.371 309.874 260.371C308.637 260.371 307.615 259.948 306.808 259.102C306.014 258.255 305.616 257.142 305.616 255.762C305.616 254.889 305.812 254.134 306.202 253.496C306.736 252.611 307.661 251.777 308.976 250.996C310.304 250.215 312.504 249.264 315.577 248.145V247.441C315.577 245.658 315.291 244.434 314.718 243.77C314.158 243.105 313.338 242.773 312.257 242.773C311.437 242.773 310.786 242.995 310.304 243.438C309.809 243.88 309.562 244.388 309.562 244.961L309.601 246.094C309.601 246.693 309.445 247.155 309.132 247.48C308.833 247.806 308.435 247.969 307.941 247.969C307.459 247.969 307.062 247.799 306.749 247.461C306.45 247.122 306.3 246.66 306.3 246.074C306.3 244.954 306.873 243.926 308.019 242.988C309.165 242.051 310.773 241.582 312.843 241.582C314.431 241.582 315.734 241.849 316.749 242.383C317.517 242.786 318.084 243.418 318.448 244.277C318.683 244.837 318.8 245.983 318.8 247.715V253.789C318.8 255.495 318.833 256.543 318.898 256.934C318.963 257.311 319.067 257.565 319.21 257.695C319.366 257.826 319.542 257.891 319.737 257.891C319.946 257.891 320.128 257.845 320.284 257.754C320.558 257.585 321.085 257.109 321.866 256.328V257.422C320.408 259.375 319.015 260.352 317.687 260.352C317.049 260.352 316.541 260.13 316.163 259.688C315.786 259.245 315.59 258.49 315.577 257.422ZM315.577 256.152V249.336C313.611 250.117 312.342 250.671 311.769 250.996C310.74 251.569 310.004 252.168 309.562 252.793C309.119 253.418 308.898 254.102 308.898 254.844C308.898 255.781 309.178 256.562 309.737 257.188C310.297 257.799 310.942 258.105 311.671 258.105C312.661 258.105 313.963 257.454 315.577 256.152ZM326.145 232.207C326.705 232.207 327.18 232.402 327.571 232.793C327.962 233.184 328.157 233.659 328.157 234.219C328.157 234.766 327.962 235.234 327.571 235.625C327.18 236.016 326.705 236.211 326.145 236.211C325.598 236.211 325.13 236.016 324.739 235.625C324.348 235.234 324.153 234.766 324.153 234.219C324.153 233.659 324.348 233.184 324.739 232.793C325.13 232.402 325.598 232.207 326.145 232.207ZM327.825 241.582V259.59C327.825 262.65 327.174 264.922 325.872 266.406C324.57 267.891 322.877 268.633 320.794 268.633C319.609 268.633 318.73 268.418 318.157 267.988C317.584 267.559 317.298 267.116 317.298 266.66C317.298 266.204 317.46 265.814 317.786 265.488C318.098 265.163 318.47 265 318.899 265C319.238 265 319.583 265.085 319.934 265.254C320.156 265.345 320.579 265.671 321.204 266.23C321.842 266.803 322.376 267.09 322.805 267.09C323.118 267.09 323.424 266.966 323.723 266.719C324.023 266.484 324.244 266.081 324.387 265.508C324.531 264.948 324.602 263.724 324.602 261.836V249.102C324.602 247.135 324.544 245.872 324.427 245.312C324.335 244.883 324.192 244.59 323.997 244.434C323.802 244.264 323.535 244.18 323.196 244.18C322.831 244.18 322.389 244.277 321.868 244.473L321.595 243.77L326.985 241.582H327.825ZM341.284 257.422C339.448 258.841 338.295 259.661 337.827 259.883C337.123 260.208 336.375 260.371 335.58 260.371C334.343 260.371 333.321 259.948 332.514 259.102C331.72 258.255 331.323 257.142 331.323 255.762C331.323 254.889 331.518 254.134 331.909 253.496C332.442 252.611 333.367 251.777 334.682 250.996C336.01 250.215 338.211 249.264 341.284 248.145V247.441C341.284 245.658 340.997 244.434 340.424 243.77C339.864 243.105 339.044 242.773 337.963 242.773C337.143 242.773 336.492 242.995 336.01 243.438C335.515 243.88 335.268 244.388 335.268 244.961L335.307 246.094C335.307 246.693 335.151 247.155 334.838 247.48C334.539 247.806 334.142 247.969 333.647 247.969C333.165 247.969 332.768 247.799 332.455 247.461C332.156 247.122 332.006 246.66 332.006 246.074C332.006 244.954 332.579 243.926 333.725 242.988C334.871 242.051 336.479 241.582 338.549 241.582C340.138 241.582 341.44 241.849 342.455 242.383C343.224 242.786 343.79 243.418 344.155 244.277C344.389 244.837 344.506 245.983 344.506 247.715V253.789C344.506 255.495 344.539 256.543 344.604 256.934C344.669 257.311 344.773 257.565 344.916 257.695C345.073 257.826 345.248 257.891 345.444 257.891C345.652 257.891 345.834 257.845 345.991 257.754C346.264 257.585 346.791 257.109 347.573 256.328V257.422C346.114 259.375 344.721 260.352 343.393 260.352C342.755 260.352 342.247 260.13 341.87 259.688C341.492 259.245 341.297 258.49 341.284 257.422ZM341.284 256.152V249.336C339.317 250.117 338.048 250.671 337.475 250.996C336.446 251.569 335.711 252.168 335.268 252.793C334.825 253.418 334.604 254.102 334.604 254.844C334.604 255.781 334.884 256.562 335.444 257.188C336.004 257.799 336.648 258.105 337.377 258.105C338.367 258.105 339.669 257.454 341.284 256.152ZM352.633 245.391C353.935 244.089 354.703 243.34 354.937 243.145C355.523 242.65 356.155 242.266 356.832 241.992C357.509 241.719 358.18 241.582 358.844 241.582C359.964 241.582 360.927 241.908 361.734 242.559C362.542 243.21 363.082 244.154 363.355 245.391C364.697 243.828 365.829 242.806 366.754 242.324C367.678 241.829 368.629 241.582 369.605 241.582C370.556 241.582 371.396 241.829 372.125 242.324C372.867 242.806 373.453 243.6 373.883 244.707C374.169 245.462 374.312 246.647 374.312 248.262V255.957C374.312 257.077 374.397 257.845 374.566 258.262C374.697 258.548 374.937 258.796 375.289 259.004C375.641 259.199 376.214 259.297 377.008 259.297V260H368.18V259.297H368.551C369.319 259.297 369.918 259.147 370.348 258.848C370.647 258.639 370.862 258.307 370.992 257.852C371.044 257.63 371.07 256.999 371.07 255.957V248.262C371.07 246.803 370.895 245.775 370.543 245.176C370.035 244.342 369.221 243.926 368.102 243.926C367.411 243.926 366.715 244.102 366.012 244.453C365.322 244.792 364.482 245.43 363.492 246.367L363.453 246.582L363.492 247.422V255.957C363.492 257.181 363.557 257.943 363.687 258.242C363.831 258.542 364.091 258.796 364.469 259.004C364.846 259.199 365.491 259.297 366.402 259.297V260H357.359V259.297C358.349 259.297 359.026 259.18 359.391 258.945C359.768 258.711 360.029 258.359 360.172 257.891C360.237 257.669 360.27 257.025 360.27 255.957V248.262C360.27 246.803 360.055 245.755 359.625 245.117C359.052 244.284 358.251 243.867 357.223 243.867C356.52 243.867 355.823 244.056 355.133 244.434C354.052 245.007 353.219 245.651 352.633 246.367V255.957C352.633 257.129 352.711 257.891 352.867 258.242C353.036 258.594 353.277 258.861 353.59 259.043C353.915 259.212 354.566 259.297 355.543 259.297V260H346.695V259.297C347.516 259.297 348.089 259.212 348.414 259.043C348.74 258.861 348.987 258.581 349.156 258.203C349.326 257.812 349.41 257.064 349.41 255.957V249.121C349.41 247.155 349.352 245.885 349.234 245.312C349.143 244.883 349 244.59 348.805 244.434C348.609 244.264 348.342 244.18 348.004 244.18C347.639 244.18 347.203 244.277 346.695 244.473L346.402 243.77L351.793 241.582H352.633V245.391ZM386.99 257.422C385.154 258.841 384.002 259.661 383.533 259.883C382.83 260.208 382.081 260.371 381.287 260.371C380.05 260.371 379.028 259.948 378.22 259.102C377.426 258.255 377.029 257.142 377.029 255.762C377.029 254.889 377.224 254.134 377.615 253.496C378.149 252.611 379.073 251.777 380.388 250.996C381.716 250.215 383.917 249.264 386.99 248.145V247.441C386.99 245.658 386.703 244.434 386.13 243.77C385.571 243.105 384.75 242.773 383.67 242.773C382.849 242.773 382.198 242.995 381.716 243.438C381.222 243.88 380.974 244.388 380.974 244.961L381.013 246.094C381.013 246.693 380.857 247.155 380.545 247.48C380.245 247.806 379.848 247.969 379.353 247.969C378.871 247.969 378.474 247.799 378.162 247.461C377.862 247.122 377.712 246.66 377.712 246.074C377.712 244.954 378.285 243.926 379.431 242.988C380.577 242.051 382.185 241.582 384.255 241.582C385.844 241.582 387.146 241.849 388.162 242.383C388.93 242.786 389.496 243.418 389.861 244.277C390.095 244.837 390.212 245.983 390.212 247.715V253.789C390.212 255.495 390.245 256.543 390.31 256.934C390.375 257.311 390.479 257.565 390.623 257.695C390.779 257.826 390.955 257.891 391.15 257.891C391.358 257.891 391.541 257.845 391.697 257.754C391.97 257.585 392.498 257.109 393.279 256.328V257.422C391.821 259.375 390.427 260.352 389.099 260.352C388.461 260.352 387.953 260.13 387.576 259.688C387.198 259.245 387.003 258.49 386.99 257.422ZM386.99 256.152V249.336C385.024 250.117 383.754 250.671 383.181 250.996C382.153 251.569 381.417 252.168 380.974 252.793C380.532 253.418 380.31 254.102 380.31 254.844C380.31 255.781 380.59 256.562 381.15 257.188C381.71 257.799 382.354 258.105 383.084 258.105C384.073 258.105 385.375 257.454 386.99 256.152ZM404.589 241.582V247.676H403.945C403.45 245.762 402.812 244.46 402.03 243.77C401.262 243.079 400.279 242.734 399.081 242.734C398.17 242.734 397.434 242.975 396.874 243.457C396.314 243.939 396.034 244.473 396.034 245.059C396.034 245.788 396.243 246.413 396.659 246.934C397.063 247.467 397.883 248.034 399.12 248.633L401.972 250.02C404.615 251.309 405.937 253.008 405.937 255.117C405.937 256.745 405.318 258.06 404.081 259.062C402.857 260.052 401.484 260.547 399.96 260.547C398.866 260.547 397.616 260.352 396.21 259.961C395.78 259.831 395.429 259.766 395.155 259.766C394.856 259.766 394.622 259.935 394.452 260.273H393.808V253.887H394.452C394.817 255.71 395.514 257.083 396.542 258.008C397.571 258.932 398.723 259.395 399.999 259.395C400.898 259.395 401.627 259.134 402.187 258.613C402.76 258.079 403.046 257.441 403.046 256.699C403.046 255.801 402.727 255.046 402.089 254.434C401.464 253.822 400.208 253.047 398.32 252.109C396.431 251.172 395.195 250.326 394.609 249.57C394.023 248.828 393.73 247.891 393.73 246.758C393.73 245.286 394.231 244.056 395.234 243.066C396.249 242.077 397.558 241.582 399.159 241.582C399.862 241.582 400.715 241.732 401.718 242.031C402.382 242.227 402.825 242.324 403.046 242.324C403.254 242.324 403.417 242.279 403.534 242.188C403.652 242.096 403.788 241.895 403.945 241.582H404.589ZM420.608 236.23V242.109H424.787V243.477H420.608V255.078C420.608 256.237 420.771 257.018 421.096 257.422C421.435 257.826 421.864 258.027 422.385 258.027C422.815 258.027 423.231 257.897 423.635 257.637C424.039 257.363 424.351 256.966 424.573 256.445H425.334C424.879 257.721 424.234 258.685 423.401 259.336C422.567 259.974 421.708 260.293 420.823 260.293C420.224 260.293 419.638 260.13 419.065 259.805C418.492 259.466 418.069 258.991 417.795 258.379C417.522 257.754 417.385 256.797 417.385 255.508V243.477H414.553V242.832C415.269 242.546 415.998 242.064 416.741 241.387C417.496 240.697 418.166 239.883 418.752 238.945C419.052 238.451 419.468 237.546 420.002 236.23H420.608ZM433.695 241.582C436.404 241.582 438.578 242.611 440.219 244.668C441.612 246.426 442.309 248.444 442.309 250.723C442.309 252.324 441.924 253.945 441.156 255.586C440.388 257.227 439.327 258.464 437.973 259.297C436.632 260.13 435.134 260.547 433.48 260.547C430.785 260.547 428.643 259.473 427.055 257.324C425.714 255.514 425.043 253.483 425.043 251.23C425.043 249.59 425.447 247.962 426.254 246.348C427.074 244.72 428.148 243.522 429.477 242.754C430.805 241.973 432.211 241.582 433.695 241.582ZM433.09 242.852C432.4 242.852 431.703 243.06 431 243.477C430.31 243.88 429.75 244.596 429.32 245.625C428.891 246.654 428.676 247.975 428.676 249.59C428.676 252.194 429.19 254.44 430.219 256.328C431.26 258.216 432.628 259.16 434.32 259.16C435.583 259.16 436.625 258.639 437.445 257.598C438.266 256.556 438.676 254.766 438.676 252.227C438.676 249.049 437.992 246.549 436.625 244.727C435.701 243.477 434.522 242.852 433.09 242.852ZM450.73 242.109H459.07V242.832H458.659C458.073 242.832 457.631 242.962 457.331 243.223C457.045 243.47 456.902 243.783 456.902 244.16C456.902 244.668 457.116 245.371 457.546 246.27L461.902 255.293L465.905 245.41C466.127 244.876 466.237 244.349 466.237 243.828C466.237 243.594 466.192 243.418 466.101 243.301C465.997 243.158 465.834 243.047 465.612 242.969C465.391 242.878 465.001 242.832 464.441 242.832V242.109H470.261V242.832C469.779 242.884 469.408 242.988 469.148 243.145C468.887 243.301 468.601 243.594 468.288 244.023C468.171 244.206 467.95 244.707 467.624 245.527L460.339 263.379C459.636 265.111 458.711 266.419 457.566 267.305C456.433 268.19 455.339 268.633 454.284 268.633C453.516 268.633 452.885 268.411 452.39 267.969C451.895 267.526 451.648 267.018 451.648 266.445C451.648 265.898 451.823 265.456 452.175 265.117C452.54 264.792 453.034 264.629 453.659 264.629C454.089 264.629 454.675 264.772 455.417 265.059C455.938 265.254 456.264 265.352 456.394 265.352C456.784 265.352 457.208 265.15 457.663 264.746C458.132 264.342 458.601 263.561 459.07 262.402L460.339 259.297L453.913 245.801C453.718 245.397 453.405 244.896 452.976 244.297C452.65 243.841 452.383 243.535 452.175 243.379C451.876 243.171 451.394 242.988 450.73 242.832V242.109ZM478.895 241.582C481.604 241.582 483.778 242.611 485.419 244.668C486.812 246.426 487.509 248.444 487.509 250.723C487.509 252.324 487.124 253.945 486.356 255.586C485.588 257.227 484.527 258.464 483.173 259.297C481.831 260.13 480.334 260.547 478.68 260.547C475.985 260.547 473.843 259.473 472.255 257.324C470.914 255.514 470.243 253.483 470.243 251.23C470.243 249.59 470.647 247.962 471.454 246.348C472.274 244.72 473.348 243.522 474.677 242.754C476.005 241.973 477.411 241.582 478.895 241.582ZM478.29 242.852C477.6 242.852 476.903 243.06 476.2 243.477C475.51 243.88 474.95 244.596 474.52 245.625C474.091 246.654 473.876 247.975 473.876 249.59C473.876 252.194 474.39 254.44 475.419 256.328C476.46 258.216 477.828 259.16 479.52 259.16C480.783 259.16 481.825 258.639 482.645 257.598C483.466 256.556 483.876 254.766 483.876 252.227C483.876 249.049 483.192 246.549 481.825 244.727C480.901 243.477 479.722 242.852 478.29 242.852ZM504.229 242.109V252.949C504.229 255.02 504.274 256.289 504.366 256.758C504.47 257.214 504.626 257.533 504.834 257.715C505.056 257.897 505.31 257.988 505.596 257.988C506 257.988 506.455 257.878 506.963 257.656L507.237 258.34L501.885 260.547H501.006V256.758C499.47 258.424 498.298 259.473 497.491 259.902C496.683 260.332 495.83 260.547 494.932 260.547C493.929 260.547 493.057 260.26 492.315 259.688C491.586 259.102 491.078 258.353 490.791 257.441C490.505 256.53 490.362 255.241 490.362 253.574V245.586C490.362 244.74 490.271 244.154 490.088 243.828C489.906 243.503 489.633 243.255 489.268 243.086C488.916 242.904 488.272 242.819 487.334 242.832V242.109H493.604V254.082C493.604 255.749 493.89 256.842 494.463 257.363C495.049 257.884 495.752 258.145 496.573 258.145C497.133 258.145 497.764 257.969 498.467 257.617C499.183 257.266 500.03 256.595 501.006 255.605V245.469C501.006 244.453 500.817 243.77 500.44 243.418C500.075 243.053 499.307 242.858 498.135 242.832V242.109H504.229ZM512.18 241.582V245.605C513.677 242.923 515.214 241.582 516.789 241.582C517.505 241.582 518.098 241.803 518.566 242.246C519.035 242.676 519.27 243.177 519.27 243.75C519.27 244.258 519.1 244.688 518.762 245.039C518.423 245.391 518.02 245.566 517.551 245.566C517.095 245.566 516.581 245.345 516.008 244.902C515.448 244.447 515.031 244.219 514.758 244.219C514.523 244.219 514.27 244.349 513.996 244.609C513.41 245.143 512.805 246.022 512.18 247.246V255.82C512.18 256.81 512.303 257.559 512.551 258.066C512.72 258.418 513.02 258.711 513.449 258.945C513.879 259.18 514.497 259.297 515.305 259.297V260H506.145V259.297C507.056 259.297 507.733 259.154 508.176 258.867C508.501 258.659 508.729 258.327 508.859 257.871C508.924 257.65 508.957 257.018 508.957 255.977V249.043C508.957 246.96 508.911 245.723 508.82 245.332C508.742 244.928 508.586 244.635 508.352 244.453C508.13 244.271 507.85 244.18 507.512 244.18C507.108 244.18 506.652 244.277 506.145 244.473L505.949 243.77L511.359 241.582H512.18ZM531.968 245.195C533.7 242.786 535.568 241.582 537.573 241.582C539.409 241.582 541.011 242.37 542.378 243.945C543.745 245.508 544.429 247.65 544.429 250.371C544.429 253.548 543.374 256.107 541.265 258.047C539.455 259.714 537.437 260.547 535.21 260.547C534.168 260.547 533.107 260.358 532.027 259.98C530.959 259.603 529.865 259.036 528.745 258.281V239.746C528.745 237.715 528.693 236.465 528.589 235.996C528.498 235.527 528.348 235.208 528.14 235.039C527.931 234.87 527.671 234.785 527.359 234.785C526.994 234.785 526.538 234.889 525.991 235.098L525.718 234.414L531.089 232.227H531.968V245.195ZM531.968 246.445V257.148C532.632 257.799 533.316 258.294 534.019 258.633C534.735 258.958 535.464 259.121 536.206 259.121C537.391 259.121 538.491 258.47 539.507 257.168C540.536 255.866 541.05 253.971 541.05 251.484C541.05 249.193 540.536 247.435 539.507 246.211C538.491 244.974 537.333 244.355 536.03 244.355C535.34 244.355 534.65 244.531 533.96 244.883C533.439 245.143 532.775 245.664 531.968 246.445ZM554.216 241.582C556.924 241.582 559.098 242.611 560.739 244.668C562.132 246.426 562.829 248.444 562.829 250.723C562.829 252.324 562.445 253.945 561.677 255.586C560.908 257.227 559.847 258.464 558.493 259.297C557.152 260.13 555.654 260.547 554.001 260.547C551.305 260.547 549.164 259.473 547.575 257.324C546.234 255.514 545.563 253.483 545.563 251.23C545.563 249.59 545.967 247.962 546.774 246.348C547.595 244.72 548.669 243.522 549.997 242.754C551.325 241.973 552.731 241.582 554.216 241.582ZM553.61 242.852C552.92 242.852 552.223 243.06 551.52 243.477C550.83 243.88 550.27 244.596 549.841 245.625C549.411 246.654 549.196 247.975 549.196 249.59C549.196 252.194 549.71 254.44 550.739 256.328C551.781 258.216 553.148 259.16 554.841 259.16C556.104 259.16 557.145 258.639 557.966 257.598C558.786 256.556 559.196 254.766 559.196 252.227C559.196 249.049 558.512 246.549 557.145 244.727C556.221 243.477 555.042 242.852 553.61 242.852ZM575.428 241.582V247.676H574.784C574.289 245.762 573.651 244.46 572.87 243.77C572.101 243.079 571.118 242.734 569.92 242.734C569.009 242.734 568.273 242.975 567.713 243.457C567.153 243.939 566.873 244.473 566.873 245.059C566.873 245.788 567.082 246.413 567.498 246.934C567.902 247.467 568.722 248.034 569.959 248.633L572.811 250.02C575.454 251.309 576.776 253.008 576.776 255.117C576.776 256.745 576.157 258.06 574.92 259.062C573.696 260.052 572.323 260.547 570.799 260.547C569.705 260.547 568.455 260.352 567.049 259.961C566.62 259.831 566.268 259.766 565.995 259.766C565.695 259.766 565.461 259.935 565.291 260.273H564.647V253.887H565.291C565.656 255.71 566.353 257.083 567.381 258.008C568.41 258.932 569.562 259.395 570.838 259.395C571.737 259.395 572.466 259.134 573.026 258.613C573.599 258.079 573.885 257.441 573.885 256.699C573.885 255.801 573.566 255.046 572.928 254.434C572.303 253.822 571.047 253.047 569.159 252.109C567.271 251.172 566.034 250.326 565.448 249.57C564.862 248.828 564.569 247.891 564.569 246.758C564.569 245.286 565.07 244.056 566.073 243.066C567.088 242.077 568.397 241.582 569.998 241.582C570.702 241.582 571.554 241.732 572.557 242.031C573.221 242.227 573.664 242.324 573.885 242.324C574.093 242.324 574.256 242.279 574.373 242.188C574.491 242.096 574.627 241.895 574.784 241.582H575.428ZM589.414 241.582V247.676H588.77C588.275 245.762 587.637 244.46 586.855 243.77C586.087 243.079 585.104 242.734 583.906 242.734C582.995 242.734 582.259 242.975 581.699 243.457C581.139 243.939 580.859 244.473 580.859 245.059C580.859 245.788 581.068 246.413 581.484 246.934C581.888 247.467 582.708 248.034 583.945 248.633L586.797 250.02C589.44 251.309 590.762 253.008 590.762 255.117C590.762 256.745 590.143 258.06 588.906 259.062C587.682 260.052 586.309 260.547 584.785 260.547C583.691 260.547 582.441 260.352 581.035 259.961C580.605 259.831 580.254 259.766 579.98 259.766C579.681 259.766 579.447 259.935 579.277 260.273H578.633V253.887H579.277C579.642 255.71 580.339 257.083 581.367 258.008C582.396 258.932 583.548 259.395 584.824 259.395C585.723 259.395 586.452 259.134 587.012 258.613C587.585 258.079 587.871 257.441 587.871 256.699C587.871 255.801 587.552 255.046 586.914 254.434C586.289 253.822 585.033 253.047 583.145 252.109C581.257 251.172 580.02 250.326 579.434 249.57C578.848 248.828 578.555 247.891 578.555 246.758C578.555 245.286 579.056 244.056 580.059 243.066C581.074 242.077 582.383 241.582 583.984 241.582C584.688 241.582 585.54 241.732 586.543 242.031C587.207 242.227 587.65 242.324 587.871 242.324C588.079 242.324 588.242 242.279 588.359 242.188C588.477 242.096 588.613 241.895 588.77 241.582H589.414ZM595.236 243.027V242.109C596.577 241.315 597.489 240.573 597.97 239.883C598.309 239.388 598.478 238.796 598.478 238.105C598.478 237.702 598.407 237.402 598.263 237.207C598.107 237.012 597.938 236.914 597.755 236.914C597.612 236.914 597.423 236.96 597.189 237.051C596.851 237.168 596.571 237.227 596.349 237.227C595.828 237.227 595.366 237.031 594.962 236.641C594.559 236.25 594.357 235.762 594.357 235.176C594.357 234.525 594.559 234.017 594.962 233.652C595.509 233.158 596.16 232.91 596.916 232.91C597.788 232.91 598.569 233.281 599.259 234.023C599.962 234.753 600.314 235.664 600.314 236.758C600.314 238.294 599.735 239.694 598.576 240.957C597.808 241.79 596.694 242.48 595.236 243.027ZM612.894 241.582V247.676H612.249C611.754 245.762 611.116 244.46 610.335 243.77C609.567 243.079 608.584 242.734 607.386 242.734C606.474 242.734 605.739 242.975 605.179 243.457C604.619 243.939 604.339 244.473 604.339 245.059C604.339 245.788 604.547 246.413 604.964 246.934C605.368 247.467 606.188 248.034 607.425 248.633L610.277 250.02C612.92 251.309 614.241 253.008 614.241 255.117C614.241 256.745 613.623 258.06 612.386 259.062C611.162 260.052 609.788 260.547 608.265 260.547C607.171 260.547 605.921 260.352 604.515 259.961C604.085 259.831 603.734 259.766 603.46 259.766C603.161 259.766 602.926 259.935 602.757 260.273H602.112V253.887H602.757C603.122 255.71 603.818 257.083 604.847 258.008C605.876 258.932 607.028 259.395 608.304 259.395C609.202 259.395 609.931 259.134 610.491 258.613C611.064 258.079 611.351 257.441 611.351 256.699C611.351 255.801 611.032 255.046 610.394 254.434C609.769 253.822 608.512 253.047 606.624 252.109C604.736 251.172 603.499 250.326 602.913 249.57C602.327 248.828 602.034 247.891 602.034 246.758C602.034 245.286 602.536 244.056 603.538 243.066C604.554 242.077 605.862 241.582 607.464 241.582C608.167 241.582 609.02 241.732 610.023 242.031C610.687 242.227 611.129 242.324 611.351 242.324C611.559 242.324 611.722 242.279 611.839 242.188C611.956 242.096 612.093 241.895 612.249 241.582H612.894ZM628.268 232.227C628.815 232.227 629.277 232.422 629.655 232.812C630.045 233.19 630.241 233.652 630.241 234.199C630.241 234.746 630.045 235.215 629.655 235.605C629.277 235.996 628.815 236.191 628.268 236.191C627.721 236.191 627.252 235.996 626.862 235.605C626.471 235.215 626.276 234.746 626.276 234.199C626.276 233.652 626.465 233.19 626.842 232.812C627.233 232.422 627.708 232.227 628.268 232.227ZM629.889 241.582V255.957C629.889 257.077 629.967 257.826 630.123 258.203C630.293 258.568 630.534 258.841 630.846 259.023C631.172 259.206 631.758 259.297 632.604 259.297V260H623.912V259.297C624.785 259.297 625.371 259.212 625.67 259.043C625.97 258.874 626.204 258.594 626.373 258.203C626.556 257.812 626.647 257.064 626.647 255.957V249.062C626.647 247.122 626.588 245.866 626.471 245.293C626.38 244.876 626.237 244.59 626.041 244.434C625.846 244.264 625.579 244.18 625.241 244.18C624.876 244.18 624.433 244.277 623.912 244.473L623.639 243.77L629.03 241.582H629.889ZM638.562 245.391C639.865 244.089 640.633 243.34 640.867 243.145C641.453 242.65 642.085 242.266 642.762 241.992C643.439 241.719 644.109 241.582 644.773 241.582C645.893 241.582 646.857 241.908 647.664 242.559C648.471 243.21 649.012 244.154 649.285 245.391C650.626 243.828 651.759 242.806 652.684 242.324C653.608 241.829 654.559 241.582 655.535 241.582C656.486 241.582 657.326 241.829 658.055 242.324C658.797 242.806 659.383 243.6 659.812 244.707C660.099 245.462 660.242 246.647 660.242 248.262V255.957C660.242 257.077 660.327 257.845 660.496 258.262C660.626 258.548 660.867 258.796 661.219 259.004C661.57 259.199 662.143 259.297 662.938 259.297V260H654.109V259.297H654.48C655.249 259.297 655.848 259.147 656.277 258.848C656.577 258.639 656.792 258.307 656.922 257.852C656.974 257.63 657 256.999 657 255.957V248.262C657 246.803 656.824 245.775 656.473 245.176C655.965 244.342 655.151 243.926 654.031 243.926C653.341 243.926 652.645 244.102 651.941 244.453C651.251 244.792 650.411 245.43 649.422 246.367L649.383 246.582L649.422 247.422V255.957C649.422 257.181 649.487 257.943 649.617 258.242C649.76 258.542 650.021 258.796 650.398 259.004C650.776 259.199 651.421 259.297 652.332 259.297V260H643.289V259.297C644.279 259.297 644.956 259.18 645.32 258.945C645.698 258.711 645.958 258.359 646.102 257.891C646.167 257.669 646.199 257.025 646.199 255.957V248.262C646.199 246.803 645.984 245.755 645.555 245.117C644.982 244.284 644.181 243.867 643.152 243.867C642.449 243.867 641.753 244.056 641.062 244.434C639.982 245.007 639.148 245.651 638.562 246.367V255.957C638.562 257.129 638.641 257.891 638.797 258.242C638.966 258.594 639.207 258.861 639.52 259.043C639.845 259.212 640.496 259.297 641.473 259.297V260H632.625V259.297C633.445 259.297 634.018 259.212 634.344 259.043C634.669 258.861 634.917 258.581 635.086 258.203C635.255 257.812 635.34 257.064 635.34 255.957V249.121C635.34 247.155 635.281 245.885 635.164 245.312C635.073 244.883 634.93 244.59 634.734 244.434C634.539 244.264 634.272 244.18 633.934 244.18C633.569 244.18 633.133 244.277 632.625 244.473L632.332 243.77L637.723 241.582H638.562V245.391ZM661.494 243.887L667.002 241.66H667.744V245.84C668.668 244.264 669.593 243.164 670.517 242.539C671.455 241.901 672.438 241.582 673.466 241.582C675.263 241.582 676.761 242.285 677.959 243.691C679.43 245.41 680.166 247.65 680.166 250.41C680.166 253.496 679.28 256.048 677.509 258.066C676.051 259.72 674.215 260.547 672.002 260.547C671.038 260.547 670.205 260.41 669.502 260.137C668.981 259.941 668.395 259.551 667.744 258.965V264.414C667.744 265.638 667.815 266.413 667.959 266.738C668.115 267.077 668.375 267.344 668.74 267.539C669.117 267.734 669.794 267.832 670.771 267.832V268.555H661.396V267.832H661.884C662.6 267.845 663.212 267.708 663.72 267.422C663.968 267.279 664.156 267.044 664.287 266.719C664.43 266.406 664.502 265.599 664.502 264.297V247.383C664.502 246.224 664.449 245.488 664.345 245.176C664.241 244.863 664.072 244.629 663.837 244.473C663.616 244.316 663.31 244.238 662.919 244.238C662.607 244.238 662.21 244.329 661.728 244.512L661.494 243.887ZM667.744 246.992V253.672C667.744 255.117 667.802 256.068 667.919 256.523C668.102 257.279 668.544 257.943 669.248 258.516C669.964 259.089 670.862 259.375 671.943 259.375C673.245 259.375 674.3 258.867 675.107 257.852C676.162 256.523 676.689 254.655 676.689 252.246C676.689 249.512 676.09 247.409 674.892 245.938C674.059 244.922 673.069 244.414 671.923 244.414C671.298 244.414 670.68 244.57 670.068 244.883C669.599 245.117 668.824 245.82 667.744 246.992ZM689.933 241.582C692.641 241.582 694.816 242.611 696.456 244.668C697.849 246.426 698.546 248.444 698.546 250.723C698.546 252.324 698.162 253.945 697.394 255.586C696.626 257.227 695.564 258.464 694.21 259.297C692.869 260.13 691.372 260.547 689.718 260.547C687.023 260.547 684.881 259.473 683.292 257.324C681.951 255.514 681.28 253.483 681.28 251.23C681.28 249.59 681.684 247.962 682.491 246.348C683.312 244.72 684.386 243.522 685.714 242.754C687.042 241.973 688.448 241.582 689.933 241.582ZM689.327 242.852C688.637 242.852 687.941 243.06 687.237 243.477C686.547 243.88 685.987 244.596 685.558 245.625C685.128 246.654 684.913 247.975 684.913 249.59C684.913 252.194 685.428 254.44 686.456 256.328C687.498 258.216 688.865 259.16 690.558 259.16C691.821 259.16 692.862 258.639 693.683 257.598C694.503 256.556 694.913 254.766 694.913 252.227C694.913 249.049 694.23 246.549 692.862 244.727C691.938 243.477 690.76 242.852 689.327 242.852ZM704.817 241.582V245.605C706.315 242.923 707.851 241.582 709.427 241.582C710.143 241.582 710.735 241.803 711.204 242.246C711.673 242.676 711.907 243.177 711.907 243.75C711.907 244.258 711.738 244.688 711.399 245.039C711.061 245.391 710.657 245.566 710.188 245.566C709.733 245.566 709.218 245.345 708.645 244.902C708.085 244.447 707.669 244.219 707.395 244.219C707.161 244.219 706.907 244.349 706.634 244.609C706.048 245.143 705.442 246.022 704.817 247.246V255.82C704.817 256.81 704.941 257.559 705.188 258.066C705.358 258.418 705.657 258.711 706.087 258.945C706.516 259.18 707.135 259.297 707.942 259.297V260H698.782V259.297C699.694 259.297 700.371 259.154 700.813 258.867C701.139 258.659 701.367 258.327 701.497 257.871C701.562 257.65 701.595 257.018 701.595 255.977V249.043C701.595 246.96 701.549 245.723 701.458 245.332C701.38 244.928 701.223 244.635 700.989 244.453C700.768 244.271 700.488 244.18 700.149 244.18C699.746 244.18 699.29 244.277 698.782 244.473L698.587 243.77L703.997 241.582H704.817ZM716.498 236.23V242.109H720.678V243.477H716.498V255.078C716.498 256.237 716.661 257.018 716.987 257.422C717.325 257.826 717.755 258.027 718.276 258.027C718.705 258.027 719.122 257.897 719.526 257.637C719.929 257.363 720.242 256.966 720.463 256.445H721.225C720.769 257.721 720.125 258.685 719.291 259.336C718.458 259.974 717.599 260.293 716.713 260.293C716.114 260.293 715.528 260.13 714.955 259.805C714.383 259.466 713.959 258.991 713.686 258.379C713.412 257.754 713.276 256.797 713.276 255.508V243.477H710.444V242.832C711.16 242.546 711.889 242.064 712.631 241.387C713.386 240.697 714.057 239.883 714.643 238.945C714.942 238.451 715.359 237.546 715.893 236.23H716.498ZM730.973 257.422C729.137 258.841 727.984 259.661 727.516 259.883C726.812 260.208 726.064 260.371 725.27 260.371C724.033 260.371 723.01 259.948 722.203 259.102C721.409 258.255 721.012 257.142 721.012 255.762C721.012 254.889 721.207 254.134 721.598 253.496C722.132 252.611 723.056 251.777 724.371 250.996C725.699 250.215 727.9 249.264 730.973 248.145V247.441C730.973 245.658 730.686 244.434 730.113 243.77C729.553 243.105 728.733 242.773 727.652 242.773C726.832 242.773 726.181 242.995 725.699 243.438C725.204 243.88 724.957 244.388 724.957 244.961L724.996 246.094C724.996 246.693 724.84 247.155 724.527 247.48C724.228 247.806 723.831 247.969 723.336 247.969C722.854 247.969 722.457 247.799 722.145 247.461C721.845 247.122 721.695 246.66 721.695 246.074C721.695 244.954 722.268 243.926 723.414 242.988C724.56 242.051 726.168 241.582 728.238 241.582C729.827 241.582 731.129 241.849 732.145 242.383C732.913 242.786 733.479 243.418 733.844 244.277C734.078 244.837 734.195 245.983 734.195 247.715V253.789C734.195 255.495 734.228 256.543 734.293 256.934C734.358 257.311 734.462 257.565 734.605 257.695C734.762 257.826 734.938 257.891 735.133 257.891C735.341 257.891 735.523 257.845 735.68 257.754C735.953 257.585 736.48 257.109 737.262 256.328V257.422C735.803 259.375 734.41 260.352 733.082 260.352C732.444 260.352 731.936 260.13 731.559 259.688C731.181 259.245 730.986 258.49 730.973 257.422ZM730.973 256.152V249.336C729.007 250.117 727.737 250.671 727.164 250.996C726.135 251.569 725.4 252.168 724.957 252.793C724.514 253.418 724.293 254.102 724.293 254.844C724.293 255.781 724.573 256.562 725.133 257.188C725.693 257.799 726.337 258.105 727.066 258.105C728.056 258.105 729.358 257.454 730.973 256.152ZM742.224 245.371C744.321 242.845 746.319 241.582 748.22 241.582C749.197 241.582 750.037 241.829 750.74 242.324C751.443 242.806 752.003 243.607 752.419 244.727C752.706 245.508 752.849 246.706 752.849 248.32V255.957C752.849 257.09 752.94 257.858 753.123 258.262C753.266 258.587 753.494 258.841 753.806 259.023C754.132 259.206 754.724 259.297 755.584 259.297V260H746.736V259.297H747.107C747.94 259.297 748.52 259.173 748.845 258.926C749.184 258.665 749.418 258.288 749.548 257.793C749.6 257.598 749.627 256.986 749.627 255.957V248.633C749.627 247.005 749.412 245.827 748.982 245.098C748.565 244.355 747.856 243.984 746.853 243.984C745.304 243.984 743.761 244.831 742.224 246.523V255.957C742.224 257.168 742.296 257.917 742.439 258.203C742.621 258.581 742.869 258.861 743.181 259.043C743.507 259.212 744.158 259.297 745.134 259.297V260H736.287V259.297H736.677C737.589 259.297 738.201 259.069 738.513 258.613C738.839 258.145 739.002 257.259 739.002 255.957V249.316C739.002 247.168 738.949 245.859 738.845 245.391C738.754 244.922 738.604 244.603 738.396 244.434C738.201 244.264 737.934 244.18 737.595 244.18C737.231 244.18 736.794 244.277 736.287 244.473L735.994 243.77L741.384 241.582H742.224V245.371ZM760.605 236.23V242.109H764.784V243.477H760.605V255.078C760.605 256.237 760.767 257.018 761.093 257.422C761.431 257.826 761.861 258.027 762.382 258.027C762.812 258.027 763.228 257.897 763.632 257.637C764.036 257.363 764.348 256.966 764.57 256.445H765.331C764.876 257.721 764.231 258.685 763.398 259.336C762.564 259.974 761.705 260.293 760.82 260.293C760.221 260.293 759.635 260.13 759.062 259.805C758.489 259.466 758.066 258.991 757.792 258.379C757.519 257.754 757.382 256.797 757.382 255.508V243.477H754.55V242.832C755.266 242.546 755.995 242.064 756.737 241.387C757.493 240.697 758.163 239.883 758.749 238.945C759.049 238.451 759.465 237.546 759.999 236.23H760.605ZM392.19 291.391C393.492 290.089 394.26 289.34 394.495 289.145C395.08 288.65 395.712 288.266 396.389 287.992C397.066 287.719 397.737 287.582 398.401 287.582C399.521 287.582 400.484 287.908 401.291 288.559C402.099 289.21 402.639 290.154 402.913 291.391C404.254 289.828 405.386 288.806 406.311 288.324C407.235 287.829 408.186 287.582 409.163 287.582C410.113 287.582 410.953 287.829 411.682 288.324C412.424 288.806 413.01 289.6 413.44 290.707C413.726 291.462 413.87 292.647 413.87 294.262V301.957C413.87 303.077 413.954 303.845 414.123 304.262C414.254 304.548 414.495 304.796 414.846 305.004C415.198 305.199 415.771 305.297 416.565 305.297V306H407.737V305.297H408.108C408.876 305.297 409.475 305.147 409.905 304.848C410.204 304.639 410.419 304.307 410.549 303.852C410.601 303.63 410.627 302.999 410.627 301.957V294.262C410.627 292.803 410.452 291.775 410.1 291.176C409.592 290.342 408.778 289.926 407.659 289.926C406.968 289.926 406.272 290.102 405.569 290.453C404.879 290.792 404.039 291.43 403.049 292.367L403.01 292.582L403.049 293.422V301.957C403.049 303.181 403.114 303.943 403.245 304.242C403.388 304.542 403.648 304.796 404.026 305.004C404.403 305.199 405.048 305.297 405.959 305.297V306H396.916V305.297C397.906 305.297 398.583 305.18 398.948 304.945C399.325 304.711 399.586 304.359 399.729 303.891C399.794 303.669 399.827 303.025 399.827 301.957V294.262C399.827 292.803 399.612 291.755 399.182 291.117C398.609 290.284 397.808 289.867 396.78 289.867C396.077 289.867 395.38 290.056 394.69 290.434C393.609 291.007 392.776 291.651 392.19 292.367V301.957C392.19 303.129 392.268 303.891 392.424 304.242C392.593 304.594 392.834 304.861 393.147 305.043C393.472 305.212 394.123 305.297 395.1 305.297V306H386.252V305.297C387.073 305.297 387.646 305.212 387.971 305.043C388.297 304.861 388.544 304.581 388.713 304.203C388.883 303.812 388.967 303.064 388.967 301.957V295.121C388.967 293.155 388.909 291.885 388.791 291.312C388.7 290.883 388.557 290.59 388.362 290.434C388.166 290.264 387.899 290.18 387.561 290.18C387.196 290.18 386.76 290.277 386.252 290.473L385.959 289.77L391.35 287.582H392.19V291.391ZM419.418 294.848C419.405 297.504 420.049 299.587 421.352 301.098C422.654 302.608 424.184 303.363 425.941 303.363C427.113 303.363 428.129 303.044 428.988 302.406C429.861 301.755 430.59 300.648 431.176 299.086L431.781 299.477C431.508 301.26 430.714 302.888 429.398 304.359C428.083 305.818 426.436 306.547 424.457 306.547C422.309 306.547 420.466 305.714 418.93 304.047C417.406 302.367 416.645 300.115 416.645 297.289C416.645 294.229 417.426 291.846 418.988 290.141C420.564 288.422 422.536 287.562 424.906 287.562C426.911 287.562 428.559 288.227 429.848 289.555C431.137 290.87 431.781 292.634 431.781 294.848H419.418ZM419.418 293.715H427.699C427.634 292.569 427.497 291.762 427.289 291.293C426.964 290.564 426.475 289.991 425.824 289.574C425.186 289.158 424.516 288.949 423.812 288.949C422.732 288.949 421.762 289.372 420.902 290.219C420.056 291.052 419.561 292.217 419.418 293.715ZM435.591 294.848C435.578 297.504 436.223 299.587 437.525 301.098C438.827 302.608 440.357 303.363 442.115 303.363C443.287 303.363 444.302 303.044 445.162 302.406C446.034 301.755 446.763 300.648 447.349 299.086L447.955 299.477C447.681 301.26 446.887 302.888 445.572 304.359C444.257 305.818 442.61 306.547 440.63 306.547C438.482 306.547 436.64 305.714 435.103 304.047C433.58 302.367 432.818 300.115 432.818 297.289C432.818 294.229 433.599 291.846 435.162 290.141C436.737 288.422 438.71 287.562 441.08 287.562C443.085 287.562 444.732 288.227 446.021 289.555C447.31 290.87 447.955 292.634 447.955 294.848H435.591ZM435.591 293.715H443.873C443.808 292.569 443.671 291.762 443.462 291.293C443.137 290.564 442.649 289.991 441.998 289.574C441.36 289.158 440.689 288.949 439.986 288.949C438.905 288.949 437.935 289.372 437.076 290.219C436.229 291.052 435.735 292.217 435.591 293.715ZM453.952 282.23V288.109H458.132V289.477H453.952V301.078C453.952 302.237 454.115 303.018 454.441 303.422C454.779 303.826 455.209 304.027 455.73 304.027C456.159 304.027 456.576 303.897 456.98 303.637C457.383 303.363 457.696 302.966 457.917 302.445H458.679C458.223 303.721 457.579 304.685 456.745 305.336C455.912 305.974 455.053 306.293 454.167 306.293C453.568 306.293 452.982 306.13 452.409 305.805C451.836 305.466 451.413 304.991 451.14 304.379C450.866 303.754 450.73 302.797 450.73 301.508V289.477H447.898V288.832C448.614 288.546 449.343 288.064 450.085 287.387C450.84 286.697 451.511 285.883 452.097 284.945C452.396 284.451 452.813 283.546 453.347 282.23H453.952ZM462.841 278.227C463.388 278.227 463.85 278.422 464.227 278.812C464.618 279.19 464.813 279.652 464.813 280.199C464.813 280.746 464.618 281.215 464.227 281.605C463.85 281.996 463.388 282.191 462.841 282.191C462.294 282.191 461.825 281.996 461.434 281.605C461.044 281.215 460.848 280.746 460.848 280.199C460.848 279.652 461.037 279.19 461.415 278.812C461.805 278.422 462.281 278.227 462.841 278.227ZM464.462 287.582V301.957C464.462 303.077 464.54 303.826 464.696 304.203C464.865 304.568 465.106 304.841 465.419 305.023C465.744 305.206 466.33 305.297 467.177 305.297V306H458.485V305.297C459.358 305.297 459.944 305.212 460.243 305.043C460.542 304.874 460.777 304.594 460.946 304.203C461.128 303.812 461.22 303.064 461.22 301.957V295.062C461.22 293.122 461.161 291.866 461.044 291.293C460.953 290.876 460.809 290.59 460.614 290.434C460.419 290.264 460.152 290.18 459.813 290.18C459.449 290.18 459.006 290.277 458.485 290.473L458.212 289.77L463.602 287.582H464.462ZM473.038 291.371C475.134 288.845 477.133 287.582 479.034 287.582C480.01 287.582 480.85 287.829 481.553 288.324C482.256 288.806 482.816 289.607 483.233 290.727C483.519 291.508 483.663 292.706 483.663 294.32V301.957C483.663 303.09 483.754 303.858 483.936 304.262C484.079 304.587 484.307 304.841 484.62 305.023C484.945 305.206 485.538 305.297 486.397 305.297V306H477.549V305.297H477.92C478.754 305.297 479.333 305.173 479.659 304.926C479.997 304.665 480.232 304.288 480.362 303.793C480.414 303.598 480.44 302.986 480.44 301.957V294.633C480.44 293.005 480.225 291.827 479.795 291.098C479.379 290.355 478.669 289.984 477.666 289.984C476.117 289.984 474.574 290.831 473.038 292.523V301.957C473.038 303.168 473.109 303.917 473.252 304.203C473.435 304.581 473.682 304.861 473.995 305.043C474.32 305.212 474.971 305.297 475.948 305.297V306H467.1V305.297H467.491C468.402 305.297 469.014 305.069 469.327 304.613C469.652 304.145 469.815 303.259 469.815 301.957V295.316C469.815 293.168 469.763 291.859 469.659 291.391C469.567 290.922 469.418 290.603 469.209 290.434C469.014 290.264 468.747 290.18 468.409 290.18C468.044 290.18 467.608 290.277 467.1 290.473L466.807 289.77L472.198 287.582H473.038V291.371ZM491.008 299.477C489.914 298.943 489.074 298.201 488.488 297.25C487.902 296.286 487.609 295.225 487.609 294.066C487.609 292.296 488.273 290.772 489.602 289.496C490.943 288.22 492.655 287.582 494.738 287.582C496.444 287.582 497.922 287.999 499.172 288.832H502.961C503.521 288.832 503.846 288.852 503.938 288.891C504.029 288.917 504.094 288.969 504.133 289.047C504.211 289.164 504.25 289.372 504.25 289.672C504.25 290.01 504.217 290.245 504.152 290.375C504.113 290.44 504.042 290.492 503.938 290.531C503.846 290.57 503.521 290.59 502.961 290.59H500.637C501.366 291.527 501.73 292.725 501.73 294.184C501.73 295.85 501.092 297.276 499.816 298.461C498.54 299.646 496.828 300.238 494.68 300.238C493.794 300.238 492.889 300.108 491.965 299.848C491.392 300.342 491.001 300.779 490.793 301.156C490.598 301.521 490.5 301.833 490.5 302.094C490.5 302.315 490.604 302.53 490.812 302.738C491.034 302.947 491.457 303.096 492.082 303.188C492.447 303.24 493.358 303.285 494.816 303.324C497.499 303.389 499.237 303.48 500.031 303.598C501.242 303.767 502.206 304.216 502.922 304.945C503.651 305.674 504.016 306.573 504.016 307.641C504.016 309.112 503.326 310.492 501.945 311.781C499.914 313.682 497.264 314.633 493.996 314.633C491.483 314.633 489.361 314.066 487.629 312.934C486.652 312.283 486.164 311.605 486.164 310.902C486.164 310.59 486.236 310.277 486.379 309.965C486.6 309.483 487.056 308.812 487.746 307.953C487.837 307.836 488.501 307.133 489.738 305.844C489.061 305.44 488.579 305.082 488.293 304.77C488.02 304.444 487.883 304.079 487.883 303.676C487.883 303.22 488.065 302.686 488.43 302.074C488.807 301.462 489.667 300.596 491.008 299.477ZM494.406 288.52C493.443 288.52 492.635 288.904 491.984 289.672C491.333 290.44 491.008 291.618 491.008 293.207C491.008 295.264 491.451 296.859 492.336 297.992C493.013 298.852 493.872 299.281 494.914 299.281C495.904 299.281 496.717 298.91 497.355 298.168C497.993 297.426 498.312 296.26 498.312 294.672C498.312 292.602 497.863 290.98 496.965 289.809C496.301 288.949 495.448 288.52 494.406 288.52ZM490.812 306C490.201 306.664 489.738 307.283 489.426 307.855C489.113 308.428 488.957 308.956 488.957 309.438C488.957 310.062 489.335 310.609 490.09 311.078C491.392 311.885 493.273 312.289 495.734 312.289C498.078 312.289 499.803 311.872 500.91 311.039C502.03 310.219 502.59 309.34 502.59 308.402C502.59 307.725 502.258 307.243 501.594 306.957C500.917 306.671 499.576 306.501 497.57 306.449C494.641 306.371 492.388 306.221 490.812 306ZM508.373 302.211C508.985 302.211 509.499 302.426 509.916 302.855C510.332 303.272 510.541 303.78 510.541 304.379C510.541 304.978 510.326 305.492 509.896 305.922C509.479 306.339 508.972 306.547 508.373 306.547C507.774 306.547 507.259 306.339 506.83 305.922C506.413 305.492 506.205 304.978 506.205 304.379C506.205 303.767 506.413 303.253 506.83 302.836C507.259 302.419 507.774 302.211 508.373 302.211Z" fill="white"></path><defs><linearGradient id="paint0_linear_3965_1016" x1="25" y1="-38" x2="908.5" y2="566" gradientUnits="userSpaceOnUse"><stop stop-color="#151515"></stop><stop offset="1" stop-color="#303FC5"></stop></linearGradient></defs></svg> 