<?xml version="1.0" encoding="UTF-8"?> <svg xmlns="http://www.w3.org/2000/svg" width="900" height="540" viewBox="0 0 900 540" fill="none"><rect width="900" height="540" rx="30" fill="url(#paint0_linear_3965_994)"></rect><path d="M186.143 233.516H195.381V234.238H194.873C194.535 234.238 194.04 234.388 193.389 234.688C192.738 234.987 192.146 235.417 191.612 235.977C191.078 236.536 190.42 237.448 189.639 238.711L183.252 248.77V255.41C183.252 257.038 183.435 258.053 183.799 258.457C184.294 259.004 185.075 259.277 186.143 259.277H187.002V260H175.752V259.277H176.69C177.81 259.277 178.604 258.939 179.073 258.262C179.359 257.845 179.502 256.895 179.502 255.41V249.141L172.237 238.047C171.377 236.745 170.791 235.931 170.479 235.605C170.179 235.28 169.548 234.889 168.584 234.434C168.324 234.303 167.946 234.238 167.452 234.238V233.516H178.78V234.238H178.194C177.582 234.238 177.015 234.382 176.495 234.668C175.987 234.954 175.733 235.384 175.733 235.957C175.733 236.426 176.13 237.272 176.924 238.496L182.452 247.031L187.647 238.867C188.428 237.643 188.819 236.732 188.819 236.133C188.819 235.768 188.721 235.443 188.526 235.156C188.343 234.87 188.077 234.648 187.725 234.492C187.373 234.323 186.846 234.238 186.143 234.238V233.516ZM200.363 241.582C203.072 241.582 205.246 242.611 206.887 244.668C208.28 246.426 208.977 248.444 208.977 250.723C208.977 252.324 208.592 253.945 207.824 255.586C207.056 257.227 205.995 258.464 204.641 259.297C203.299 260.13 201.802 260.547 200.148 260.547C197.453 260.547 195.311 259.473 193.723 257.324C192.382 255.514 191.711 253.483 191.711 251.23C191.711 249.59 192.115 247.962 192.922 246.348C193.742 244.72 194.816 243.522 196.145 242.754C197.473 241.973 198.879 241.582 200.363 241.582ZM199.758 242.852C199.068 242.852 198.371 243.06 197.668 243.477C196.978 243.88 196.418 244.596 195.988 245.625C195.559 246.654 195.344 247.975 195.344 249.59C195.344 252.194 195.858 254.44 196.887 256.328C197.928 258.216 199.296 259.16 200.988 259.16C202.251 259.16 203.293 258.639 204.113 257.598C204.934 256.556 205.344 254.766 205.344 252.227C205.344 249.049 204.66 246.549 203.293 244.727C202.368 243.477 201.19 242.852 199.758 242.852ZM225.697 242.109V252.949C225.697 255.02 225.742 256.289 225.834 256.758C225.938 257.214 226.094 257.533 226.302 257.715C226.524 257.897 226.778 257.988 227.064 257.988C227.468 257.988 227.923 257.878 228.431 257.656L228.705 258.34L223.353 260.547H222.474V256.758C220.938 258.424 219.766 259.473 218.959 259.902C218.151 260.332 217.298 260.547 216.4 260.547C215.397 260.547 214.525 260.26 213.783 259.688C213.054 259.102 212.546 258.353 212.259 257.441C211.973 256.53 211.83 255.241 211.83 253.574V245.586C211.83 244.74 211.739 244.154 211.556 243.828C211.374 243.503 211.101 243.255 210.736 243.086C210.384 242.904 209.74 242.819 208.802 242.832V242.109H215.072V254.082C215.072 255.749 215.358 256.842 215.931 257.363C216.517 257.884 217.22 258.145 218.041 258.145C218.601 258.145 219.232 257.969 219.935 257.617C220.651 257.266 221.498 256.595 222.474 255.605V245.469C222.474 244.453 222.285 243.77 221.908 243.418C221.543 243.053 220.775 242.858 219.603 242.832V242.109H225.697ZM243.805 243.516V255.273C243.805 256.94 243.988 257.995 244.352 258.438C244.834 259.01 245.479 259.297 246.286 259.297H247.907V260H237.223V259.297H238.024C238.545 259.297 239.02 259.167 239.45 258.906C239.88 258.646 240.173 258.294 240.329 257.852C240.498 257.409 240.583 256.549 240.583 255.273V243.516H237.106V242.109H240.583V240.938C240.583 239.154 240.869 237.643 241.442 236.406C242.015 235.169 242.888 234.173 244.059 233.418C245.244 232.65 246.572 232.266 248.044 232.266C249.411 232.266 250.667 232.708 251.813 233.594C252.568 234.18 252.946 234.837 252.946 235.566C252.946 235.957 252.777 236.328 252.438 236.68C252.1 237.018 251.735 237.188 251.345 237.188C251.045 237.188 250.726 237.083 250.388 236.875C250.062 236.654 249.658 236.191 249.177 235.488C248.695 234.772 248.252 234.29 247.848 234.043C247.445 233.796 246.996 233.672 246.501 233.672C245.902 233.672 245.394 233.835 244.977 234.16C244.561 234.473 244.261 234.967 244.079 235.645C243.897 236.309 243.805 238.034 243.805 240.82V242.109H248.415V243.516H243.805ZM251.541 248.848C251.528 251.504 252.173 253.587 253.475 255.098C254.777 256.608 256.307 257.363 258.065 257.363C259.237 257.363 260.252 257.044 261.112 256.406C261.984 255.755 262.713 254.648 263.299 253.086L263.905 253.477C263.631 255.26 262.837 256.888 261.522 258.359C260.207 259.818 258.56 260.547 256.58 260.547C254.432 260.547 252.59 259.714 251.053 258.047C249.53 256.367 248.768 254.115 248.768 251.289C248.768 248.229 249.549 245.846 251.112 244.141C252.687 242.422 254.66 241.562 257.03 241.562C259.035 241.562 260.682 242.227 261.971 243.555C263.26 244.87 263.905 246.634 263.905 248.848H251.541ZM251.541 247.715H259.823C259.758 246.569 259.621 245.762 259.413 245.293C259.087 244.564 258.599 243.991 257.948 243.574C257.31 243.158 256.639 242.949 255.936 242.949C254.855 242.949 253.885 243.372 253.026 244.219C252.179 245.052 251.685 246.217 251.541 247.715ZM270.859 232.227V255.957C270.859 257.077 270.938 257.819 271.094 258.184C271.263 258.548 271.517 258.828 271.855 259.023C272.194 259.206 272.826 259.297 273.75 259.297V260H264.98V259.297C265.801 259.297 266.361 259.212 266.66 259.043C266.96 258.874 267.194 258.594 267.363 258.203C267.533 257.812 267.617 257.064 267.617 255.957V239.707C267.617 237.689 267.572 236.452 267.48 235.996C267.389 235.527 267.24 235.208 267.031 235.039C266.836 234.87 266.582 234.785 266.27 234.785C265.931 234.785 265.501 234.889 264.98 235.098L264.648 234.414L269.98 232.227H270.859ZM280.392 232.227V255.957C280.392 257.077 280.47 257.819 280.627 258.184C280.796 258.548 281.05 258.828 281.388 259.023C281.727 259.206 282.358 259.297 283.283 259.297V260H274.513V259.297C275.334 259.297 275.893 259.212 276.193 259.043C276.492 258.874 276.727 258.594 276.896 258.203C277.065 257.812 277.15 257.064 277.15 255.957V239.707C277.15 237.689 277.104 236.452 277.013 235.996C276.922 235.527 276.772 235.208 276.564 235.039C276.369 234.87 276.115 234.785 275.802 234.785C275.464 234.785 275.034 234.889 274.513 235.098L274.181 234.414L279.513 232.227H280.392ZM302.309 257.422C300.473 258.841 299.321 259.661 298.852 259.883C298.149 260.208 297.401 260.371 296.606 260.371C295.369 260.371 294.347 259.948 293.54 259.102C292.746 258.255 292.348 257.142 292.348 255.762C292.348 254.889 292.544 254.134 292.934 253.496C293.468 252.611 294.393 251.777 295.708 250.996C297.036 250.215 299.236 249.264 302.309 248.145V247.441C302.309 245.658 302.023 244.434 301.45 243.77C300.89 243.105 300.07 242.773 298.989 242.773C298.169 242.773 297.518 242.995 297.036 243.438C296.541 243.88 296.294 244.388 296.294 244.961L296.333 246.094C296.333 246.693 296.177 247.155 295.864 247.48C295.565 247.806 295.167 247.969 294.673 247.969C294.191 247.969 293.794 247.799 293.481 247.461C293.182 247.122 293.032 246.66 293.032 246.074C293.032 244.954 293.605 243.926 294.751 242.988C295.897 242.051 297.505 241.582 299.575 241.582C301.164 241.582 302.466 241.849 303.481 242.383C304.249 242.786 304.816 243.418 305.18 244.277C305.415 244.837 305.532 245.983 305.532 247.715V253.789C305.532 255.495 305.565 256.543 305.63 256.934C305.695 257.311 305.799 257.565 305.942 257.695C306.098 257.826 306.274 257.891 306.47 257.891C306.678 257.891 306.86 257.845 307.016 257.754C307.29 257.585 307.817 257.109 308.598 256.328V257.422C307.14 259.375 305.747 260.352 304.419 260.352C303.781 260.352 303.273 260.13 302.895 259.688C302.518 259.245 302.322 258.49 302.309 257.422ZM302.309 256.152V249.336C300.343 250.117 299.074 250.671 298.501 250.996C297.472 251.569 296.736 252.168 296.294 252.793C295.851 253.418 295.63 254.102 295.63 254.844C295.63 255.781 295.91 256.562 296.47 257.188C297.029 257.799 297.674 258.105 298.403 258.105C299.393 258.105 300.695 257.454 302.309 256.152ZM319.909 241.582V247.676H319.264C318.769 245.762 318.131 244.46 317.35 243.77C316.582 243.079 315.599 242.734 314.401 242.734C313.489 242.734 312.754 242.975 312.194 243.457C311.634 243.939 311.354 244.473 311.354 245.059C311.354 245.788 311.562 246.413 311.979 246.934C312.383 247.467 313.203 248.034 314.44 248.633L317.291 250.02C319.935 251.309 321.256 253.008 321.256 255.117C321.256 256.745 320.638 258.06 319.401 259.062C318.177 260.052 316.803 260.547 315.28 260.547C314.186 260.547 312.936 260.352 311.53 259.961C311.1 259.831 310.748 259.766 310.475 259.766C310.176 259.766 309.941 259.935 309.772 260.273H309.127V253.887H309.772C310.136 255.71 310.833 257.083 311.862 258.008C312.89 258.932 314.043 259.395 315.319 259.395C316.217 259.395 316.946 259.134 317.506 258.613C318.079 258.079 318.366 257.441 318.366 256.699C318.366 255.801 318.047 255.046 317.409 254.434C316.784 253.822 315.527 253.047 313.639 252.109C311.751 251.172 310.514 250.326 309.928 249.57C309.342 248.828 309.049 247.891 309.049 246.758C309.049 245.286 309.551 244.056 310.553 243.066C311.569 242.077 312.877 241.582 314.479 241.582C315.182 241.582 316.035 241.732 317.038 242.031C317.702 242.227 318.144 242.324 318.366 242.324C318.574 242.324 318.737 242.279 318.854 242.188C318.971 242.096 319.108 241.895 319.264 241.582H319.909ZM328.484 232.227V255.957C328.484 257.077 328.562 257.819 328.719 258.184C328.888 258.548 329.142 258.828 329.48 259.023C329.819 259.206 330.451 259.297 331.375 259.297V260H322.605V259.297C323.426 259.297 323.986 259.212 324.285 259.043C324.585 258.874 324.819 258.594 324.988 258.203C325.158 257.812 325.242 257.064 325.242 255.957V239.707C325.242 237.689 325.197 236.452 325.105 235.996C325.014 235.527 324.865 235.208 324.656 235.039C324.461 234.87 324.207 234.785 323.895 234.785C323.556 234.785 323.126 234.889 322.605 235.098L322.273 234.414L327.605 232.227H328.484ZM334.873 248.848C334.86 251.504 335.504 253.587 336.806 255.098C338.108 256.608 339.638 257.363 341.396 257.363C342.568 257.363 343.584 257.044 344.443 256.406C345.315 255.755 346.045 254.648 346.63 253.086L347.236 253.477C346.963 255.26 346.168 256.888 344.853 258.359C343.538 259.818 341.891 260.547 339.912 260.547C337.763 260.547 335.921 259.714 334.384 258.047C332.861 256.367 332.099 254.115 332.099 251.289C332.099 248.229 332.88 245.846 334.443 244.141C336.018 242.422 337.991 241.562 340.361 241.562C342.366 241.562 344.013 242.227 345.302 243.555C346.591 244.87 347.236 246.634 347.236 248.848H334.873ZM334.873 247.715H343.154C343.089 246.569 342.952 245.762 342.744 245.293C342.418 244.564 341.93 243.991 341.279 243.574C340.641 243.158 339.97 242.949 339.267 242.949C338.186 242.949 337.216 243.372 336.357 244.219C335.511 245.052 335.016 246.217 334.873 247.715ZM351.046 248.848C351.033 251.504 351.678 253.587 352.98 255.098C354.282 256.608 355.812 257.363 357.57 257.363C358.741 257.363 359.757 257.044 360.616 256.406C361.489 255.755 362.218 254.648 362.804 253.086L363.409 253.477C363.136 255.26 362.342 256.888 361.027 258.359C359.711 259.818 358.064 260.547 356.085 260.547C353.937 260.547 352.094 259.714 350.558 258.047C349.034 256.367 348.273 254.115 348.273 251.289C348.273 248.229 349.054 245.846 350.616 244.141C352.192 242.422 354.165 241.562 356.534 241.562C358.54 241.562 360.187 242.227 361.476 243.555C362.765 244.87 363.409 246.634 363.409 248.848H351.046ZM351.046 247.715H359.327C359.262 246.569 359.126 245.762 358.917 245.293C358.592 244.564 358.103 243.991 357.452 243.574C356.814 243.158 356.144 242.949 355.441 242.949C354.36 242.949 353.39 243.372 352.53 244.219C351.684 245.052 351.189 246.217 351.046 247.715ZM362.923 243.887L368.43 241.66H369.173V245.84C370.097 244.264 371.022 243.164 371.946 242.539C372.884 241.901 373.867 241.582 374.895 241.582C376.692 241.582 378.19 242.285 379.388 243.691C380.859 245.41 381.595 247.65 381.595 250.41C381.595 253.496 380.709 256.048 378.938 258.066C377.48 259.72 375.644 260.547 373.43 260.547C372.467 260.547 371.634 260.41 370.93 260.137C370.41 259.941 369.824 259.551 369.173 258.965V264.414C369.173 265.638 369.244 266.413 369.388 266.738C369.544 267.077 369.804 267.344 370.169 267.539C370.546 267.734 371.223 267.832 372.2 267.832V268.555H362.825V267.832H363.313C364.029 267.845 364.641 267.708 365.149 267.422C365.397 267.279 365.585 267.044 365.716 266.719C365.859 266.406 365.93 265.599 365.93 264.297V247.383C365.93 246.224 365.878 245.488 365.774 245.176C365.67 244.863 365.501 244.629 365.266 244.473C365.045 244.316 364.739 244.238 364.348 244.238C364.036 244.238 363.639 244.329 363.157 244.512L362.923 243.887ZM369.173 246.992V253.672C369.173 255.117 369.231 256.068 369.348 256.523C369.531 257.279 369.973 257.943 370.677 258.516C371.393 259.089 372.291 259.375 373.372 259.375C374.674 259.375 375.729 258.867 376.536 257.852C377.591 256.523 378.118 254.655 378.118 252.246C378.118 249.512 377.519 247.409 376.321 245.938C375.488 244.922 374.498 244.414 373.352 244.414C372.727 244.414 372.109 244.57 371.497 244.883C371.028 245.117 370.253 245.82 369.173 246.992ZM403.648 257.988C402.776 258.9 401.923 259.557 401.09 259.961C400.257 260.352 399.358 260.547 398.395 260.547C396.441 260.547 394.736 259.733 393.277 258.105C391.819 256.465 391.09 254.362 391.09 251.797C391.09 249.232 391.897 246.888 393.512 244.766C395.126 242.63 397.203 241.562 399.742 241.562C401.318 241.562 402.62 242.064 403.648 243.066V239.766C403.648 237.721 403.596 236.465 403.492 235.996C403.401 235.527 403.251 235.208 403.043 235.039C402.835 234.87 402.574 234.785 402.262 234.785C401.923 234.785 401.474 234.889 400.914 235.098L400.66 234.414L405.992 232.227H406.871V252.91C406.871 255.007 406.917 256.289 407.008 256.758C407.112 257.214 407.268 257.533 407.477 257.715C407.698 257.897 407.952 257.988 408.238 257.988C408.59 257.988 409.059 257.878 409.645 257.656L409.859 258.34L404.547 260.547H403.648V257.988ZM403.648 256.621V247.402C403.57 246.517 403.336 245.71 402.945 244.98C402.555 244.251 402.034 243.704 401.383 243.34C400.745 242.962 400.12 242.773 399.508 242.773C398.362 242.773 397.34 243.288 396.441 244.316C395.257 245.671 394.664 247.65 394.664 250.254C394.664 252.884 395.237 254.902 396.383 256.309C397.529 257.702 398.805 258.398 400.211 258.398C401.396 258.398 402.542 257.806 403.648 256.621ZM425.095 242.109V252.949C425.095 255.02 425.141 256.289 425.232 256.758C425.336 257.214 425.492 257.533 425.701 257.715C425.922 257.897 426.176 257.988 426.463 257.988C426.866 257.988 427.322 257.878 427.83 257.656L428.103 258.34L422.752 260.547H421.873V256.758C420.336 258.424 419.164 259.473 418.357 259.902C417.55 260.332 416.697 260.547 415.798 260.547C414.796 260.547 413.923 260.26 413.181 259.688C412.452 259.102 411.944 258.353 411.658 257.441C411.371 256.53 411.228 255.241 411.228 253.574V245.586C411.228 244.74 411.137 244.154 410.955 243.828C410.772 243.503 410.499 243.255 410.134 243.086C409.783 242.904 409.138 242.819 408.201 242.832V242.109H414.47V254.082C414.47 255.749 414.757 256.842 415.33 257.363C415.916 257.884 416.619 258.145 417.439 258.145C417.999 258.145 418.63 257.969 419.334 257.617C420.05 257.266 420.896 256.595 421.873 255.605V245.469C421.873 244.453 421.684 243.77 421.306 243.418C420.942 243.053 420.173 242.858 419.002 242.832V242.109H425.095ZM433.046 241.582V245.605C434.544 242.923 436.08 241.582 437.655 241.582C438.372 241.582 438.964 241.803 439.433 242.246C439.902 242.676 440.136 243.177 440.136 243.75C440.136 244.258 439.967 244.688 439.628 245.039C439.29 245.391 438.886 245.566 438.417 245.566C437.961 245.566 437.447 245.345 436.874 244.902C436.314 244.447 435.898 244.219 435.624 244.219C435.39 244.219 435.136 244.349 434.863 244.609C434.277 245.143 433.671 246.022 433.046 247.246V255.82C433.046 256.81 433.17 257.559 433.417 258.066C433.586 258.418 433.886 258.711 434.316 258.945C434.745 259.18 435.364 259.297 436.171 259.297V260H427.011V259.297C427.922 259.297 428.599 259.154 429.042 258.867C429.368 258.659 429.596 258.327 429.726 257.871C429.791 257.65 429.823 257.018 429.823 255.977V249.043C429.823 246.96 429.778 245.723 429.687 245.332C429.609 244.928 429.452 244.635 429.218 244.453C428.997 244.271 428.717 244.18 428.378 244.18C427.974 244.18 427.519 244.277 427.011 244.473L426.816 243.77L432.226 241.582H433.046ZM444.083 232.227C444.63 232.227 445.092 232.422 445.47 232.812C445.86 233.19 446.055 233.652 446.055 234.199C446.055 234.746 445.86 235.215 445.47 235.605C445.092 235.996 444.63 236.191 444.083 236.191C443.536 236.191 443.067 235.996 442.677 235.605C442.286 235.215 442.091 234.746 442.091 234.199C442.091 233.652 442.279 233.19 442.657 232.812C443.048 232.422 443.523 232.227 444.083 232.227ZM445.704 241.582V255.957C445.704 257.077 445.782 257.826 445.938 258.203C446.108 258.568 446.348 258.841 446.661 259.023C446.986 259.206 447.572 259.297 448.419 259.297V260H439.727V259.297C440.6 259.297 441.186 259.212 441.485 259.043C441.785 258.874 442.019 258.594 442.188 258.203C442.371 257.812 442.462 257.064 442.462 255.957V249.062C442.462 247.122 442.403 245.866 442.286 245.293C442.195 244.876 442.052 244.59 441.856 244.434C441.661 244.264 441.394 244.18 441.055 244.18C440.691 244.18 440.248 244.277 439.727 244.473L439.454 243.77L444.845 241.582H445.704ZM454.28 245.371C456.376 242.845 458.375 241.582 460.276 241.582C461.252 241.582 462.092 241.829 462.795 242.324C463.498 242.806 464.058 243.607 464.475 244.727C464.761 245.508 464.905 246.706 464.905 248.32V255.957C464.905 257.09 464.996 257.858 465.178 258.262C465.321 258.587 465.549 258.841 465.862 259.023C466.187 259.206 466.78 259.297 467.639 259.297V260H458.791V259.297H459.163C459.996 259.297 460.575 259.173 460.901 258.926C461.239 258.665 461.474 258.288 461.604 257.793C461.656 257.598 461.682 256.986 461.682 255.957V248.633C461.682 247.005 461.467 245.827 461.038 245.098C460.621 244.355 459.911 243.984 458.909 243.984C457.359 243.984 455.816 244.831 454.28 246.523V255.957C454.28 257.168 454.351 257.917 454.495 258.203C454.677 258.581 454.924 258.861 455.237 259.043C455.562 259.212 456.213 259.297 457.19 259.297V260H448.342V259.297H448.733C449.644 259.297 450.256 259.069 450.569 258.613C450.894 258.145 451.057 257.259 451.057 255.957V249.316C451.057 247.168 451.005 245.859 450.901 245.391C450.81 244.922 450.66 244.603 450.452 244.434C450.256 244.264 449.989 244.18 449.651 244.18C449.286 244.18 448.85 244.277 448.342 244.473L448.049 243.77L453.44 241.582H454.28V245.371ZM472.25 253.477C471.156 252.943 470.316 252.201 469.73 251.25C469.145 250.286 468.852 249.225 468.852 248.066C468.852 246.296 469.516 244.772 470.844 243.496C472.185 242.22 473.897 241.582 475.98 241.582C477.686 241.582 479.164 241.999 480.414 242.832H484.203C484.763 242.832 485.089 242.852 485.18 242.891C485.271 242.917 485.336 242.969 485.375 243.047C485.453 243.164 485.492 243.372 485.492 243.672C485.492 244.01 485.46 244.245 485.395 244.375C485.355 244.44 485.284 244.492 485.18 244.531C485.089 244.57 484.763 244.59 484.203 244.59H481.879C482.608 245.527 482.973 246.725 482.973 248.184C482.973 249.85 482.335 251.276 481.059 252.461C479.783 253.646 478.07 254.238 475.922 254.238C475.036 254.238 474.132 254.108 473.207 253.848C472.634 254.342 472.243 254.779 472.035 255.156C471.84 255.521 471.742 255.833 471.742 256.094C471.742 256.315 471.846 256.53 472.055 256.738C472.276 256.947 472.699 257.096 473.324 257.188C473.689 257.24 474.6 257.285 476.059 257.324C478.741 257.389 480.479 257.48 481.273 257.598C482.484 257.767 483.448 258.216 484.164 258.945C484.893 259.674 485.258 260.573 485.258 261.641C485.258 263.112 484.568 264.492 483.188 265.781C481.156 267.682 478.507 268.633 475.238 268.633C472.725 268.633 470.603 268.066 468.871 266.934C467.895 266.283 467.406 265.605 467.406 264.902C467.406 264.59 467.478 264.277 467.621 263.965C467.842 263.483 468.298 262.812 468.988 261.953C469.079 261.836 469.743 261.133 470.98 259.844C470.303 259.44 469.822 259.082 469.535 258.77C469.262 258.444 469.125 258.079 469.125 257.676C469.125 257.22 469.307 256.686 469.672 256.074C470.049 255.462 470.909 254.596 472.25 253.477ZM475.648 242.52C474.685 242.52 473.878 242.904 473.227 243.672C472.576 244.44 472.25 245.618 472.25 247.207C472.25 249.264 472.693 250.859 473.578 251.992C474.255 252.852 475.115 253.281 476.156 253.281C477.146 253.281 477.96 252.91 478.598 252.168C479.236 251.426 479.555 250.26 479.555 248.672C479.555 246.602 479.105 244.98 478.207 243.809C477.543 242.949 476.69 242.52 475.648 242.52ZM472.055 260C471.443 260.664 470.98 261.283 470.668 261.855C470.355 262.428 470.199 262.956 470.199 263.438C470.199 264.062 470.577 264.609 471.332 265.078C472.634 265.885 474.516 266.289 476.977 266.289C479.32 266.289 481.046 265.872 482.152 265.039C483.272 264.219 483.832 263.34 483.832 262.402C483.832 261.725 483.5 261.243 482.836 260.957C482.159 260.671 480.818 260.501 478.812 260.449C475.883 260.371 473.63 260.221 472.055 260ZM504.402 257.422C502.566 258.841 501.413 259.661 500.945 259.883C500.241 260.208 499.493 260.371 498.698 260.371C497.461 260.371 496.439 259.948 495.632 259.102C494.838 258.255 494.441 257.142 494.441 255.762C494.441 254.889 494.636 254.134 495.027 253.496C495.56 252.611 496.485 251.777 497.8 250.996C499.128 250.215 501.329 249.264 504.402 248.145V247.441C504.402 245.658 504.115 244.434 503.542 243.77C502.982 243.105 502.162 242.773 501.081 242.773C500.261 242.773 499.61 242.995 499.128 243.438C498.633 243.88 498.386 244.388 498.386 244.961L498.425 246.094C498.425 246.693 498.269 247.155 497.956 247.48C497.657 247.806 497.26 247.969 496.765 247.969C496.283 247.969 495.886 247.799 495.573 247.461C495.274 247.122 495.124 246.66 495.124 246.074C495.124 244.954 495.697 243.926 496.843 242.988C497.989 242.051 499.597 241.582 501.667 241.582C503.256 241.582 504.558 241.849 505.573 242.383C506.342 242.786 506.908 243.418 507.273 244.277C507.507 244.837 507.624 245.983 507.624 247.715V253.789C507.624 255.495 507.657 256.543 507.722 256.934C507.787 257.311 507.891 257.565 508.034 257.695C508.191 257.826 508.366 257.891 508.562 257.891C508.77 257.891 508.952 257.845 509.109 257.754C509.382 257.585 509.909 257.109 510.691 256.328V257.422C509.232 259.375 507.839 260.352 506.511 260.352C505.873 260.352 505.365 260.13 504.988 259.688C504.61 259.245 504.415 258.49 504.402 257.422ZM504.402 256.152V249.336C502.435 250.117 501.166 250.671 500.593 250.996C499.564 251.569 498.829 252.168 498.386 252.793C497.943 253.418 497.722 254.102 497.722 254.844C497.722 255.781 498.002 256.562 498.562 257.188C499.122 257.799 499.766 258.105 500.495 258.105C501.485 258.105 502.787 257.454 504.402 256.152ZM540.596 233.516L523.194 258.398H534.053C535.72 258.398 536.996 258.034 537.881 257.305C538.78 256.576 539.574 255.098 540.264 252.871L540.909 252.988L539.659 260H518.096V259.277L535.088 235.098H526.612C525.205 235.098 524.183 235.254 523.545 235.566C522.92 235.866 522.439 236.309 522.1 236.895C521.774 237.467 521.475 238.548 521.202 240.137H520.459L521.006 233.516H540.596ZM550.441 241.582C553.15 241.582 555.324 242.611 556.965 244.668C558.358 246.426 559.055 248.444 559.055 250.723C559.055 252.324 558.671 253.945 557.902 255.586C557.134 257.227 556.073 258.464 554.719 259.297C553.378 260.13 551.88 260.547 550.227 260.547C547.531 260.547 545.389 259.473 543.801 257.324C542.46 255.514 541.789 253.483 541.789 251.23C541.789 249.59 542.193 247.962 543 246.348C543.82 244.72 544.895 243.522 546.223 242.754C547.551 241.973 548.957 241.582 550.441 241.582ZM549.836 242.852C549.146 242.852 548.449 243.06 547.746 243.477C547.056 243.88 546.496 244.596 546.066 245.625C545.637 246.654 545.422 247.975 545.422 249.59C545.422 252.194 545.936 254.44 546.965 256.328C548.007 258.216 549.374 259.16 551.066 259.16C552.329 259.16 553.371 258.639 554.191 257.598C555.012 256.556 555.422 254.766 555.422 252.227C555.422 249.049 554.738 246.549 553.371 244.727C552.447 243.477 551.268 242.852 549.836 242.852ZM568.841 241.582C571.55 241.582 573.724 242.611 575.365 244.668C576.758 246.426 577.455 248.444 577.455 250.723C577.455 252.324 577.071 253.945 576.302 255.586C575.534 257.227 574.473 258.464 573.119 259.297C571.778 260.13 570.28 260.547 568.627 260.547C565.931 260.547 563.789 259.473 562.201 257.324C560.86 255.514 560.189 253.483 560.189 251.23C560.189 249.59 560.593 247.962 561.4 246.348C562.22 244.72 563.295 243.522 564.623 242.754C565.951 241.973 567.357 241.582 568.841 241.582ZM568.236 242.852C567.546 242.852 566.849 243.06 566.146 243.477C565.456 243.88 564.896 244.596 564.466 245.625C564.037 246.654 563.822 247.975 563.822 249.59C563.822 252.194 564.336 254.44 565.365 256.328C566.407 258.216 567.774 259.16 569.466 259.16C570.729 259.16 571.771 258.639 572.591 257.598C573.412 256.556 573.822 254.766 573.822 252.227C573.822 249.049 573.138 246.549 571.771 244.727C570.847 243.477 569.668 242.852 568.236 242.852ZM583.804 245.391C585.106 244.089 585.874 243.34 586.109 243.145C586.695 242.65 587.326 242.266 588.003 241.992C588.68 241.719 589.351 241.582 590.015 241.582C591.135 241.582 592.098 241.908 592.905 242.559C593.713 243.21 594.253 244.154 594.527 245.391C595.868 243.828 597.001 242.806 597.925 242.324C598.849 241.829 599.8 241.582 600.777 241.582C601.727 241.582 602.567 241.829 603.296 242.324C604.038 242.806 604.624 243.6 605.054 244.707C605.34 245.462 605.484 246.647 605.484 248.262V255.957C605.484 257.077 605.568 257.845 605.738 258.262C605.868 258.548 606.109 258.796 606.46 259.004C606.812 259.199 607.385 259.297 608.179 259.297V260H599.351V259.297H599.722C600.49 259.297 601.089 259.147 601.519 258.848C601.818 258.639 602.033 258.307 602.163 257.852C602.215 257.63 602.241 256.999 602.241 255.957V248.262C602.241 246.803 602.066 245.775 601.714 245.176C601.206 244.342 600.392 243.926 599.273 243.926C598.583 243.926 597.886 244.102 597.183 244.453C596.493 244.792 595.653 245.43 594.663 246.367L594.624 246.582L594.663 247.422V255.957C594.663 257.181 594.728 257.943 594.859 258.242C595.002 258.542 595.262 258.796 595.64 259.004C596.017 259.199 596.662 259.297 597.573 259.297V260H588.53V259.297C589.52 259.297 590.197 259.18 590.562 258.945C590.939 258.711 591.2 258.359 591.343 257.891C591.408 257.669 591.441 257.025 591.441 255.957V248.262C591.441 246.803 591.226 245.755 590.796 245.117C590.223 244.284 589.422 243.867 588.394 243.867C587.691 243.867 586.994 244.056 586.304 244.434C585.223 245.007 584.39 245.651 583.804 246.367V255.957C583.804 257.129 583.882 257.891 584.038 258.242C584.208 258.594 584.448 258.861 584.761 259.043C585.086 259.212 585.738 259.297 586.714 259.297V260H577.866V259.297C578.687 259.297 579.26 259.212 579.585 259.043C579.911 258.861 580.158 258.581 580.327 258.203C580.497 257.812 580.581 257.064 580.581 255.957V249.121C580.581 247.155 580.523 245.885 580.405 245.312C580.314 244.883 580.171 244.59 579.976 244.434C579.78 244.264 579.514 244.18 579.175 244.18C578.81 244.18 578.374 244.277 577.866 244.473L577.573 243.77L582.964 241.582H583.804V245.391ZM621.737 245.391C623.039 244.089 623.807 243.34 624.041 243.145C624.627 242.65 625.259 242.266 625.936 241.992C626.613 241.719 627.284 241.582 627.948 241.582C629.067 241.582 630.031 241.908 630.838 242.559C631.646 243.21 632.186 244.154 632.459 245.391C633.801 243.828 634.933 242.806 635.858 242.324C636.782 241.829 637.733 241.582 638.709 241.582C639.66 241.582 640.5 241.829 641.229 242.324C641.971 242.806 642.557 243.6 642.987 244.707C643.273 245.462 643.416 246.647 643.416 248.262V255.957C643.416 257.077 643.501 257.845 643.67 258.262C643.801 258.548 644.041 258.796 644.393 259.004C644.745 259.199 645.317 259.297 646.112 259.297V260H637.284V259.297H637.655C638.423 259.297 639.022 259.147 639.452 258.848C639.751 258.639 639.966 258.307 640.096 257.852C640.148 257.63 640.174 256.999 640.174 255.957V248.262C640.174 246.803 639.998 245.775 639.647 245.176C639.139 244.342 638.325 243.926 637.205 243.926C636.515 243.926 635.819 244.102 635.116 244.453C634.426 244.792 633.586 245.43 632.596 246.367L632.557 246.582L632.596 247.422V255.957C632.596 257.181 632.661 257.943 632.791 258.242C632.935 258.542 633.195 258.796 633.573 259.004C633.95 259.199 634.595 259.297 635.506 259.297V260H626.463V259.297C627.453 259.297 628.13 259.18 628.495 258.945C628.872 258.711 629.133 258.359 629.276 257.891C629.341 257.669 629.373 257.025 629.373 255.957V248.262C629.373 246.803 629.159 245.755 628.729 245.117C628.156 244.284 627.355 243.867 626.327 243.867C625.623 243.867 624.927 244.056 624.237 244.434C623.156 245.007 622.323 245.651 621.737 246.367V255.957C621.737 257.129 621.815 257.891 621.971 258.242C622.14 258.594 622.381 258.861 622.694 259.043C623.019 259.212 623.67 259.297 624.647 259.297V260H615.799V259.297C616.62 259.297 617.192 259.212 617.518 259.043C617.843 258.861 618.091 258.581 618.26 258.203C618.429 257.812 618.514 257.064 618.514 255.957V249.121C618.514 247.155 618.455 245.885 618.338 245.312C618.247 244.883 618.104 244.59 617.909 244.434C617.713 244.264 617.446 244.18 617.108 244.18C616.743 244.18 616.307 244.277 615.799 244.473L615.506 243.77L620.897 241.582H621.737V245.391ZM648.965 248.848C648.952 251.504 649.596 253.587 650.898 255.098C652.201 256.608 653.73 257.363 655.488 257.363C656.66 257.363 657.676 257.044 658.535 256.406C659.408 255.755 660.137 254.648 660.723 253.086L661.328 253.477C661.055 255.26 660.26 256.888 658.945 258.359C657.63 259.818 655.983 260.547 654.004 260.547C651.855 260.547 650.013 259.714 648.477 258.047C646.953 256.367 646.191 254.115 646.191 251.289C646.191 248.229 646.973 245.846 648.535 244.141C650.111 242.422 652.083 241.562 654.453 241.562C656.458 241.562 658.105 242.227 659.395 243.555C660.684 244.87 661.328 246.634 661.328 248.848H648.965ZM648.965 247.715H657.246C657.181 246.569 657.044 245.762 656.836 245.293C656.51 244.564 656.022 243.991 655.371 243.574C654.733 243.158 654.062 242.949 653.359 242.949C652.279 242.949 651.309 243.372 650.449 244.219C649.603 245.052 649.108 246.217 648.965 247.715ZM665.138 248.848C665.125 251.504 665.77 253.587 667.072 255.098C668.374 256.608 669.904 257.363 671.662 257.363C672.834 257.363 673.849 257.044 674.709 256.406C675.581 255.755 676.31 254.648 676.896 253.086L677.502 253.477C677.228 255.26 676.434 256.888 675.119 258.359C673.804 259.818 672.157 260.547 670.177 260.547C668.029 260.547 666.186 259.714 664.65 258.047C663.127 256.367 662.365 254.115 662.365 251.289C662.365 248.229 663.146 245.846 664.709 244.141C666.284 242.422 668.257 241.562 670.627 241.562C672.632 241.562 674.279 242.227 675.568 243.555C676.857 244.87 677.502 246.634 677.502 248.848H665.138ZM665.138 247.715H673.42C673.354 246.569 673.218 245.762 673.009 245.293C672.684 244.564 672.196 243.991 671.545 243.574C670.907 243.158 670.236 242.949 669.533 242.949C668.452 242.949 667.482 243.372 666.623 244.219C665.776 245.052 665.282 246.217 665.138 247.715ZM683.499 236.23V242.109H687.679V243.477H683.499V255.078C683.499 256.237 683.662 257.018 683.988 257.422C684.326 257.826 684.756 258.027 685.277 258.027C685.706 258.027 686.123 257.897 686.527 257.637C686.93 257.363 687.243 256.966 687.464 256.445H688.226C687.77 257.721 687.126 258.685 686.292 259.336C685.459 259.974 684.6 260.293 683.714 260.293C683.115 260.293 682.529 260.13 681.956 259.805C681.383 259.466 680.96 258.991 680.687 258.379C680.413 257.754 680.277 256.797 680.277 255.508V243.477H677.445V242.832C678.161 242.546 678.89 242.064 679.632 241.387C680.387 240.697 681.058 239.883 681.644 238.945C681.943 238.451 682.36 237.546 682.894 236.23H683.499ZM692.387 232.227C692.934 232.227 693.397 232.422 693.774 232.812C694.165 233.19 694.36 233.652 694.36 234.199C694.36 234.746 694.165 235.215 693.774 235.605C693.397 235.996 692.934 236.191 692.387 236.191C691.841 236.191 691.372 235.996 690.981 235.605C690.591 235.215 690.395 234.746 690.395 234.199C690.395 233.652 690.584 233.19 690.962 232.812C691.352 232.422 691.828 232.227 692.387 232.227ZM694.009 241.582V255.957C694.009 257.077 694.087 257.826 694.243 258.203C694.412 258.568 694.653 258.841 694.966 259.023C695.291 259.206 695.877 259.297 696.723 259.297V260H688.032V259.297C688.904 259.297 689.49 259.212 689.79 259.043C690.089 258.874 690.324 258.594 690.493 258.203C690.675 257.812 690.766 257.064 690.766 255.957V249.062C690.766 247.122 690.708 245.866 690.591 245.293C690.499 244.876 690.356 244.59 690.161 244.434C689.966 244.264 689.699 244.18 689.36 244.18C688.996 244.18 688.553 244.277 688.032 244.473L687.759 243.77L693.149 241.582H694.009ZM702.584 245.371C704.681 242.845 706.679 241.582 708.58 241.582C709.557 241.582 710.397 241.829 711.1 242.324C711.803 242.806 712.363 243.607 712.78 244.727C713.066 245.508 713.209 246.706 713.209 248.32V255.957C713.209 257.09 713.3 257.858 713.483 258.262C713.626 258.587 713.854 258.841 714.166 259.023C714.492 259.206 715.084 259.297 715.944 259.297V260H707.096V259.297H707.467C708.3 259.297 708.88 259.173 709.205 258.926C709.544 258.665 709.778 258.288 709.909 257.793C709.961 257.598 709.987 256.986 709.987 255.957V248.633C709.987 247.005 709.772 245.827 709.342 245.098C708.925 244.355 708.216 243.984 707.213 243.984C705.664 243.984 704.121 244.831 702.584 246.523V255.957C702.584 257.168 702.656 257.917 702.799 258.203C702.981 258.581 703.229 258.861 703.541 259.043C703.867 259.212 704.518 259.297 705.495 259.297V260H696.647V259.297H697.037C697.949 259.297 698.561 259.069 698.873 258.613C699.199 258.145 699.362 257.259 699.362 255.957V249.316C699.362 247.168 699.31 245.859 699.205 245.391C699.114 244.922 698.965 244.603 698.756 244.434C698.561 244.264 698.294 244.18 697.955 244.18C697.591 244.18 697.155 244.277 696.647 244.473L696.354 243.77L701.745 241.582H702.584V245.371ZM720.555 253.477C719.461 252.943 718.621 252.201 718.035 251.25C717.449 250.286 717.156 249.225 717.156 248.066C717.156 246.296 717.82 244.772 719.148 243.496C720.49 242.22 722.202 241.582 724.285 241.582C725.991 241.582 727.469 241.999 728.719 242.832H732.508C733.068 242.832 733.393 242.852 733.484 242.891C733.576 242.917 733.641 242.969 733.68 243.047C733.758 243.164 733.797 243.372 733.797 243.672C733.797 244.01 733.764 244.245 733.699 244.375C733.66 244.44 733.589 244.492 733.484 244.531C733.393 244.57 733.068 244.59 732.508 244.59H730.184C730.913 245.527 731.277 246.725 731.277 248.184C731.277 249.85 730.639 251.276 729.363 252.461C728.087 253.646 726.375 254.238 724.227 254.238C723.341 254.238 722.436 254.108 721.512 253.848C720.939 254.342 720.548 254.779 720.34 255.156C720.145 255.521 720.047 255.833 720.047 256.094C720.047 256.315 720.151 256.53 720.359 256.738C720.581 256.947 721.004 257.096 721.629 257.188C721.993 257.24 722.905 257.285 724.363 257.324C727.046 257.389 728.784 257.48 729.578 257.598C730.789 257.767 731.753 258.216 732.469 258.945C733.198 259.674 733.562 260.573 733.562 261.641C733.562 263.112 732.872 264.492 731.492 265.781C729.461 267.682 726.811 268.633 723.543 268.633C721.03 268.633 718.908 268.066 717.176 266.934C716.199 266.283 715.711 265.605 715.711 264.902C715.711 264.59 715.783 264.277 715.926 263.965C716.147 263.483 716.603 262.812 717.293 261.953C717.384 261.836 718.048 261.133 719.285 259.844C718.608 259.44 718.126 259.082 717.84 258.77C717.566 258.444 717.43 258.079 717.43 257.676C717.43 257.22 717.612 256.686 717.977 256.074C718.354 255.462 719.214 254.596 720.555 253.477ZM723.953 242.52C722.99 242.52 722.182 242.904 721.531 243.672C720.88 244.44 720.555 245.618 720.555 247.207C720.555 249.264 720.997 250.859 721.883 251.992C722.56 252.852 723.419 253.281 724.461 253.281C725.451 253.281 726.264 252.91 726.902 252.168C727.54 251.426 727.859 250.26 727.859 248.672C727.859 246.602 727.41 244.98 726.512 243.809C725.848 242.949 724.995 242.52 723.953 242.52ZM720.359 260C719.747 260.664 719.285 261.283 718.973 261.855C718.66 262.428 718.504 262.956 718.504 263.438C718.504 264.062 718.882 264.609 719.637 265.078C720.939 265.885 722.82 266.289 725.281 266.289C727.625 266.289 729.35 265.872 730.457 265.039C731.577 264.219 732.137 263.34 732.137 262.402C732.137 261.725 731.805 261.243 731.141 260.957C730.464 260.671 729.122 260.501 727.117 260.449C724.188 260.371 721.935 260.221 720.359 260ZM338.622 288.109H346.122V288.832C345.432 288.884 344.976 289.008 344.755 289.203C344.546 289.398 344.442 289.678 344.442 290.043C344.442 290.447 344.553 290.935 344.774 291.508L348.602 301.801L352.45 293.422L351.434 290.785C351.122 290.004 350.712 289.464 350.204 289.164C349.917 288.982 349.384 288.871 348.602 288.832V288.109H357.118V288.832C356.18 288.871 355.516 289.04 355.126 289.34C354.865 289.548 354.735 289.88 354.735 290.336C354.735 290.596 354.787 290.863 354.891 291.137L358.954 301.41L362.723 291.508C362.984 290.805 363.114 290.245 363.114 289.828C363.114 289.581 362.984 289.359 362.723 289.164C362.476 288.969 361.981 288.858 361.239 288.832V288.109H366.884V288.832C365.751 289.001 364.917 289.77 364.384 291.137L358.407 306.547H357.606L353.134 295.121L347.919 306.547H347.196L341.454 291.508C341.076 290.557 340.705 289.919 340.341 289.594C339.976 289.255 339.403 289.001 338.622 288.832V288.109ZM371.475 278.227C372.022 278.227 372.484 278.422 372.862 278.812C373.252 279.19 373.448 279.652 373.448 280.199C373.448 280.746 373.252 281.215 372.862 281.605C372.484 281.996 372.022 282.191 371.475 282.191C370.928 282.191 370.459 281.996 370.069 281.605C369.678 281.215 369.483 280.746 369.483 280.199C369.483 279.652 369.672 279.19 370.049 278.812C370.44 278.422 370.915 278.227 371.475 278.227ZM373.096 287.582V301.957C373.096 303.077 373.174 303.826 373.33 304.203C373.5 304.568 373.741 304.841 374.053 305.023C374.379 305.206 374.965 305.297 375.811 305.297V306H367.12V305.297C367.992 305.297 368.578 305.212 368.877 305.043C369.177 304.874 369.411 304.594 369.58 304.203C369.763 303.812 369.854 303.064 369.854 301.957V295.062C369.854 293.122 369.795 291.866 369.678 291.293C369.587 290.876 369.444 290.59 369.248 290.434C369.053 290.264 368.786 290.18 368.448 290.18C368.083 290.18 367.64 290.277 367.12 290.473L366.846 289.77L372.237 287.582H373.096ZM381.652 282.23V288.109H385.832V289.477H381.652V301.078C381.652 302.237 381.815 303.018 382.141 303.422C382.479 303.826 382.909 304.027 383.43 304.027C383.859 304.027 384.276 303.897 384.68 303.637C385.083 303.363 385.396 302.966 385.617 302.445H386.379C385.923 303.721 385.279 304.685 384.445 305.336C383.612 305.974 382.753 306.293 381.867 306.293C381.268 306.293 380.682 306.13 380.109 305.805C379.536 305.466 379.113 304.991 378.84 304.379C378.566 303.754 378.43 302.797 378.43 301.508V289.477H375.598V288.832C376.314 288.546 377.043 288.064 377.785 287.387C378.54 286.697 379.211 285.883 379.797 284.945C380.096 284.451 380.513 283.546 381.047 282.23H381.652ZM391.244 278.227V291.312C392.689 289.724 393.835 288.708 394.681 288.266C395.528 287.81 396.374 287.582 397.22 287.582C398.236 287.582 399.108 287.862 399.837 288.422C400.567 288.982 401.107 289.861 401.459 291.059C401.706 291.892 401.83 293.415 401.83 295.629V301.957C401.83 303.09 401.921 303.865 402.103 304.281C402.233 304.594 402.455 304.841 402.767 305.023C403.08 305.206 403.653 305.297 404.486 305.297V306H395.697V305.297H396.107C396.94 305.297 397.52 305.173 397.845 304.926C398.171 304.665 398.399 304.288 398.529 303.793C398.568 303.585 398.587 302.973 398.587 301.957V295.629C398.587 293.676 398.483 292.393 398.275 291.781C398.08 291.169 397.761 290.714 397.318 290.414C396.875 290.102 396.341 289.945 395.716 289.945C395.078 289.945 394.414 290.115 393.724 290.453C393.034 290.792 392.207 291.475 391.244 292.504V301.957C391.244 303.181 391.309 303.943 391.439 304.242C391.582 304.542 391.836 304.796 392.201 305.004C392.578 305.199 393.223 305.297 394.134 305.297V306H385.267V305.297C386.061 305.297 386.686 305.173 387.142 304.926C387.403 304.796 387.611 304.548 387.767 304.184C387.923 303.819 388.002 303.077 388.002 301.957V285.766C388.002 283.721 387.949 282.465 387.845 281.996C387.754 281.527 387.604 281.208 387.396 281.039C387.201 280.87 386.934 280.785 386.595 280.785C386.322 280.785 385.879 280.889 385.267 281.098L384.994 280.414L390.345 278.227H391.244ZM411.774 288.109H420.114V288.832H419.704C419.118 288.832 418.675 288.962 418.376 289.223C418.089 289.47 417.946 289.783 417.946 290.16C417.946 290.668 418.161 291.371 418.591 292.27L422.946 301.293L426.95 291.41C427.171 290.876 427.282 290.349 427.282 289.828C427.282 289.594 427.236 289.418 427.145 289.301C427.041 289.158 426.878 289.047 426.657 288.969C426.436 288.878 426.045 288.832 425.485 288.832V288.109H431.305V288.832C430.824 288.884 430.453 288.988 430.192 289.145C429.932 289.301 429.645 289.594 429.333 290.023C429.216 290.206 428.994 290.707 428.669 291.527L421.384 309.379C420.68 311.111 419.756 312.419 418.61 313.305C417.477 314.19 416.384 314.633 415.329 314.633C414.561 314.633 413.929 314.411 413.434 313.969C412.94 313.526 412.692 313.018 412.692 312.445C412.692 311.898 412.868 311.456 413.22 311.117C413.584 310.792 414.079 310.629 414.704 310.629C415.134 310.629 415.72 310.772 416.462 311.059C416.983 311.254 417.308 311.352 417.438 311.352C417.829 311.352 418.252 311.15 418.708 310.746C419.177 310.342 419.645 309.561 420.114 308.402L421.384 305.297L414.958 291.801C414.763 291.397 414.45 290.896 414.02 290.297C413.695 289.841 413.428 289.535 413.22 289.379C412.92 289.171 412.438 288.988 411.774 288.832V288.109ZM439.94 287.582C442.648 287.582 444.823 288.611 446.463 290.668C447.857 292.426 448.553 294.444 448.553 296.723C448.553 298.324 448.169 299.945 447.401 301.586C446.633 303.227 445.571 304.464 444.217 305.297C442.876 306.13 441.379 306.547 439.725 306.547C437.03 306.547 434.888 305.473 433.299 303.324C431.958 301.514 431.288 299.483 431.288 297.23C431.288 295.59 431.691 293.962 432.498 292.348C433.319 290.72 434.393 289.522 435.721 288.754C437.049 287.973 438.455 287.582 439.94 287.582ZM439.334 288.852C438.644 288.852 437.948 289.06 437.245 289.477C436.554 289.88 435.995 290.596 435.565 291.625C435.135 292.654 434.92 293.975 434.92 295.59C434.92 298.194 435.435 300.44 436.463 302.328C437.505 304.216 438.872 305.16 440.565 305.16C441.828 305.16 442.87 304.639 443.69 303.598C444.51 302.556 444.92 300.766 444.92 298.227C444.92 295.049 444.237 292.549 442.87 290.727C441.945 289.477 440.767 288.852 439.334 288.852ZM465.273 288.109V298.949C465.273 301.02 465.319 302.289 465.41 302.758C465.514 303.214 465.671 303.533 465.879 303.715C466.1 303.897 466.354 303.988 466.641 303.988C467.044 303.988 467.5 303.878 468.008 303.656L468.281 304.34L462.93 306.547H462.051V302.758C460.514 304.424 459.342 305.473 458.535 305.902C457.728 306.332 456.875 306.547 455.977 306.547C454.974 306.547 454.102 306.26 453.359 305.688C452.63 305.102 452.122 304.353 451.836 303.441C451.549 302.53 451.406 301.241 451.406 299.574V291.586C451.406 290.74 451.315 290.154 451.133 289.828C450.951 289.503 450.677 289.255 450.312 289.086C449.961 288.904 449.316 288.819 448.379 288.832V288.109H454.648V300.082C454.648 301.749 454.935 302.842 455.508 303.363C456.094 303.884 456.797 304.145 457.617 304.145C458.177 304.145 458.809 303.969 459.512 303.617C460.228 303.266 461.074 302.595 462.051 301.605V291.469C462.051 290.453 461.862 289.77 461.484 289.418C461.12 289.053 460.352 288.858 459.18 288.832V288.109H465.273ZM473.224 287.582V291.605C474.722 288.923 476.258 287.582 477.834 287.582C478.55 287.582 479.142 287.803 479.611 288.246C480.08 288.676 480.314 289.177 480.314 289.75C480.314 290.258 480.145 290.688 479.806 291.039C479.468 291.391 479.064 291.566 478.595 291.566C478.14 291.566 477.625 291.345 477.052 290.902C476.492 290.447 476.076 290.219 475.802 290.219C475.568 290.219 475.314 290.349 475.041 290.609C474.455 291.143 473.849 292.022 473.224 293.246V301.82C473.224 302.81 473.348 303.559 473.595 304.066C473.765 304.418 474.064 304.711 474.494 304.945C474.923 305.18 475.542 305.297 476.349 305.297V306H467.189V305.297C468.101 305.297 468.778 305.154 469.22 304.867C469.546 304.659 469.774 304.327 469.904 303.871C469.969 303.65 470.002 303.018 470.002 301.977V295.043C470.002 292.96 469.956 291.723 469.865 291.332C469.787 290.928 469.63 290.635 469.396 290.453C469.175 290.271 468.895 290.18 468.556 290.18C468.153 290.18 467.697 290.277 467.189 290.473L466.994 289.77L472.404 287.582H473.224ZM493.013 291.195C494.744 288.786 496.613 287.582 498.618 287.582C500.454 287.582 502.055 288.37 503.423 289.945C504.79 291.508 505.473 293.65 505.473 296.371C505.473 299.548 504.419 302.107 502.309 304.047C500.499 305.714 498.481 306.547 496.255 306.547C495.213 306.547 494.152 306.358 493.071 305.98C492.003 305.603 490.91 305.036 489.79 304.281V285.746C489.79 283.715 489.738 282.465 489.634 281.996C489.542 281.527 489.393 281.208 489.184 281.039C488.976 280.87 488.716 280.785 488.403 280.785C488.039 280.785 487.583 280.889 487.036 281.098L486.763 280.414L492.134 278.227H493.013V291.195ZM493.013 292.445V303.148C493.677 303.799 494.36 304.294 495.063 304.633C495.779 304.958 496.509 305.121 497.251 305.121C498.436 305.121 499.536 304.47 500.552 303.168C501.58 301.866 502.095 299.971 502.095 297.484C502.095 295.193 501.58 293.435 500.552 292.211C499.536 290.974 498.377 290.355 497.075 290.355C496.385 290.355 495.695 290.531 495.005 290.883C494.484 291.143 493.82 291.664 493.013 292.445ZM515.26 287.582C517.968 287.582 520.143 288.611 521.784 290.668C523.177 292.426 523.873 294.444 523.873 296.723C523.873 298.324 523.489 299.945 522.721 301.586C521.953 303.227 520.892 304.464 519.537 305.297C518.196 306.13 516.699 306.547 515.045 306.547C512.35 306.547 510.208 305.473 508.62 303.324C507.278 301.514 506.608 299.483 506.608 297.23C506.608 295.59 507.011 293.962 507.819 292.348C508.639 290.72 509.713 289.522 511.041 288.754C512.37 287.973 513.776 287.582 515.26 287.582ZM514.655 288.852C513.965 288.852 513.268 289.06 512.565 289.477C511.875 289.88 511.315 290.596 510.885 291.625C510.455 292.654 510.241 293.975 510.241 295.59C510.241 298.194 510.755 300.44 511.784 302.328C512.825 304.216 514.192 305.16 515.885 305.16C517.148 305.16 518.19 304.639 519.01 303.598C519.83 302.556 520.241 300.766 520.241 298.227C520.241 295.049 519.557 292.549 518.19 290.727C517.265 289.477 516.087 288.852 514.655 288.852ZM536.473 287.582V293.676H535.828C535.333 291.762 534.695 290.46 533.914 289.77C533.146 289.079 532.163 288.734 530.965 288.734C530.053 288.734 529.318 288.975 528.758 289.457C528.198 289.939 527.918 290.473 527.918 291.059C527.918 291.788 528.126 292.413 528.543 292.934C528.947 293.467 529.767 294.034 531.004 294.633L533.855 296.02C536.499 297.309 537.82 299.008 537.82 301.117C537.82 302.745 537.202 304.06 535.965 305.062C534.741 306.052 533.367 306.547 531.844 306.547C530.75 306.547 529.5 306.352 528.094 305.961C527.664 305.831 527.312 305.766 527.039 305.766C526.74 305.766 526.505 305.935 526.336 306.273H525.691V299.887H526.336C526.701 301.71 527.397 303.083 528.426 304.008C529.454 304.932 530.607 305.395 531.883 305.395C532.781 305.395 533.51 305.134 534.07 304.613C534.643 304.079 534.93 303.441 534.93 302.699C534.93 301.801 534.611 301.046 533.973 300.434C533.348 299.822 532.091 299.047 530.203 298.109C528.315 297.172 527.078 296.326 526.492 295.57C525.906 294.828 525.613 293.891 525.613 292.758C525.613 291.286 526.115 290.056 527.117 289.066C528.133 288.077 529.441 287.582 531.043 287.582C531.746 287.582 532.599 287.732 533.602 288.031C534.266 288.227 534.708 288.324 534.93 288.324C535.138 288.324 535.301 288.279 535.418 288.188C535.535 288.096 535.672 287.895 535.828 287.582H536.473ZM550.459 287.582V293.676H549.814C549.319 291.762 548.681 290.46 547.9 289.77C547.132 289.079 546.149 288.734 544.951 288.734C544.039 288.734 543.304 288.975 542.744 289.457C542.184 289.939 541.904 290.473 541.904 291.059C541.904 291.788 542.112 292.413 542.529 292.934C542.933 293.467 543.753 294.034 544.99 294.633L547.841 296.02C550.485 297.309 551.806 299.008 551.806 301.117C551.806 302.745 551.188 304.06 549.951 305.062C548.727 306.052 547.353 306.547 545.83 306.547C544.736 306.547 543.486 306.352 542.08 305.961C541.65 305.831 541.298 305.766 541.025 305.766C540.726 305.766 540.491 305.935 540.322 306.273H539.677V299.887H540.322C540.686 301.71 541.383 303.083 542.412 304.008C543.44 304.932 544.593 305.395 545.869 305.395C546.767 305.395 547.496 305.134 548.056 304.613C548.629 304.079 548.916 303.441 548.916 302.699C548.916 301.801 548.597 301.046 547.959 300.434C547.334 299.822 546.077 299.047 544.189 298.109C542.301 297.172 541.064 296.326 540.478 295.57C539.892 294.828 539.599 293.891 539.599 292.758C539.599 291.286 540.101 290.056 541.103 289.066C542.119 288.077 543.427 287.582 545.029 287.582C545.732 287.582 546.585 287.732 547.587 288.031C548.252 288.227 548.694 288.324 548.916 288.324C549.124 288.324 549.287 288.279 549.404 288.188C549.521 288.096 549.658 287.895 549.814 287.582H550.459ZM556.632 302.211C557.244 302.211 557.758 302.426 558.175 302.855C558.592 303.272 558.8 303.78 558.8 304.379C558.8 304.978 558.585 305.492 558.155 305.922C557.739 306.339 557.231 306.547 556.632 306.547C556.033 306.547 555.519 306.339 555.089 305.922C554.672 305.492 554.464 304.978 554.464 304.379C554.464 303.767 554.672 303.253 555.089 302.836C555.519 302.419 556.033 302.211 556.632 302.211Z" fill="white"></path><defs><linearGradient id="paint0_linear_3965_994" x1="25" y1="-38" x2="908.5" y2="566" gradientUnits="userSpaceOnUse"><stop stop-color="#151515"></stop><stop offset="1" stop-color="#303FC5"></stop></linearGradient></defs></svg> 